<?xml version="1.0" standalone="no"?>
<!DOCTYPE svg PUBLIC "-//W3C//DTD SVG 1.1//EN"
 "http://www.w3.org/Graphics/SVG/1.1/DTD/svg11.dtd">
<!-- Created with svg_stack (http://github.com/astraw/svg_stack) -->
<svg xmlns:sodipodi="http://sodipodi.sourceforge.net/DTD/sodipodi-0.dtd" xmlns="http://www.w3.org/2000/svg" version="1.1" width="1332.0" height="180.0">
  <defs/>
  <g id="id0:id0" transform="matrix(1.25,0,0,1.25,0.0,0.0)"><g transform="translate(0.000000,144.000000) scale(0.040000,-0.040000)" fill="#ffffff" stroke="none">
<path d="M214 3415 c-2 -5 -3 -550 -2 -1209 l3 -1199 155 2 c85 1 156 4 158 6 2 1 3 142 2 313 -1 370 13 580 41 635 10 21 19 43 19 50 0 14 62 75 101 100 35 23 162 33 218 17 52 -14 120 -77 142 -130 11 -28 14 -129 16 -505 2 -258 7 -472 11 -476 4 -4 77 -9 162 -10 l155 -3 3 480 c3 463 -5 635 -29 650 -5 3 -9 16 -9 28 0 13 -9 35 -20 49 -11 14 -20 29 -20 35 0 10 -86 90 -140 131 -18 14 -39 21 -50 18 -12 -3 -23 1 -28 9 -12 22 -126 37 -234 30 -100 -5 -187 -33 -247 -77 -15 -11 -40 -21 -56 -22 l-30 -2 -3 539 c-1 297 -4 541 -6 543 -9 9 -309 7 -312 -2z"/>
<path d="M4404 3421 c-2 -2 -4 -260 -4 -572 0 -408 -3 -570 -11 -575 -6 -4 -22 7 -35 24 -33 42 -199 121 -283 134 -130 21 -300 -3 -381 -53 -8 -5 -33 -18 -55 -28 -22 -11 -74 -54 -115 -98 -72 -75 -86 -94 -117 -155 -8 -15 -18 -30 -24 -33 -5 -4 -9 -19 -9 -35 0 -16 -10 -48 -21 -70 -42 -80 -37 -444 7 -528 8 -15 14 -33 14 -40 0 -8 9 -25 20 -39 11 -14 20 -32 20 -39 0 -14 29 -63 75 -127 51 -70 175 -149 305 -193 79 -27 318 -28 348 0 12 10 25 15 31 12 13 -9 145 59 187 96 38 34 42 31 46 -47 l3 -50 160 4 c88 1 161 4 163 5 4 4 2 2399 -1 2403 -5 5 -318 9 -323 4z m-219 -1310 c11 -11 27 -21 35 -23 19 -4 150 -145 150 -161 0 -7 6 -24 14 -38 7 -14 19 -63 26 -108 15 -99 2 -205 -37 -289 -31 -68 -122 -158 -198 -196 -54 -27 -62 -28 -156 -24 -73 4 -104 9 -117 21 -10 10 -28 17 -41 17 -12 0 -24 7 -28 16 -3 8 -16 19 -28 24 -20 8 -48 44 -107 141 -9 14 -24 65 -33 113 -14 76 -14 103 -4 185 8 68 17 102 30 117 11 11 19 28 19 38 0 25 104 131 154 158 60 31 100 38 206 32 74 -4 99 -9 115 -23z"/>
<path d="M22004 3421 c-2 -2 -4 -256 -4 -563 0 -627 3 -601 -70 -534 -22 20 -48 36 -59 36 -10 0 -24 7 -31 15 -7 8 -20 15 -29 15 -9 0 -32 10 -51 22 -32 21 -47 22 -202 22 -144 0 -169 -2 -186 -17 -10 -9 -25 -17 -32 -17 -27 0 -166 -90 -212 -137 -67 -69 -168 -243 -168 -289 0 -11 -4 -24 -9 -29 -13 -14 -31 -152 -31 -240 0 -88 18 -226 31 -239 5 -6 9 -22 9 -36 0 -14 11 -42 25 -62 14 -20 25 -43 25 -51 0 -15 62 -103 107 -153 32 -35 135 -113 173 -131 96 -46 155 -57 291 -58 120 0 139 2 158 19 11 10 27 16 36 12 18 -7 128 47 167 82 37 34 56 24 60 -34 l3 -48 160 3 c88 1 161 4 163 5 4 4 2 2399 -1 2403 -5 5 -318 9 -323 4z m-212 -1311 c15 -11 32 -20 38 -20 15 0 90 -71 90 -85 0 -6 11 -22 24 -34 14 -13 22 -29 20 -36 -3 -7 3 -21 14 -31 28 -28 46 -145 39 -254 -5 -72 -12 -102 -34 -146 -35 -70 -147 -194 -175 -194 -12 0 -27 -8 -34 -17 -11 -16 -30 -18 -134 -18 -104 0 -123 2 -134 18 -7 9 -23 17 -34 17 -29 0 -147 132 -178 200 -47 101 -43 325 7 388 10 14 19 33 19 42 0 10 7 23 15 30 8 7 15 18 15 25 0 13 91 95 106 95 4 0 16 8 26 17 26 24 89 33 193 27 69 -3 96 -9 117 -24z"/>
<path d="M11820 3183 c-30 -2 -59 -8 -64 -14 -6 -5 -18 -9 -28 -9 -26 0 -88 -59 -88 -84 0 -12 -5 -27 -11 -33 -7 -7 -11 -40 -10 -80 2 -80 26 -125 93 -173 37 -27 48 -30 118 -30 60 0 83 4 101 18 13 10 32 22 42 25 9 4 20 15 24 24 3 10 13 26 21 36 10 12 17 46 20 101 l4 83 -43 49 c-43 48 -103 96 -117 92 -4 -1 -32 -3 -62 -5z"/>
<path d="M22788 3161 c-20 -14 -53 -46 -73 -71 l-37 -45 4 -82 c3 -54 10 -89 20 -100 8 -10 18 -26 21 -36 4 -9 17 -22 29 -28 13 -5 34 -16 48 -24 15 -9 53 -15 96 -15 63 0 76 3 112 30 61 44 89 93 95 167 4 44 1 67 -9 80 -7 10 -14 26 -14 37 0 24 -63 86 -87 86 -10 0 -23 4 -28 9 -6 5 -39 11 -75 13 -58 4 -69 2 -102 -21z"/>
<path d="M17545 2913 c-77 -2 -143 -7 -147 -11 -4 -4 -9 -114 -10 -245 -1 -130 -5 -242 -9 -248 -4 -7 -33 -12 -65 -13 l-57 -1 1 -150 1 -150 57 -5 c52 -4 59 -8 65 -30 4 -14 7 -252 8 -529 0 -277 4 -508 8 -512 4 -4 78 -9 163 -10 l155 -3 5 540 5 539 123 3 c67 1 122 6 122 10 4 166 1 285 -6 292 -5 5 -61 11 -124 12 l-115 3 -5 255 c-4 217 -7 255 -20 255 -8 1 -78 -1 -155 -2z"/>
<path d="M5408 2426 c-26 -7 -54 -18 -62 -25 -8 -7 -20 -9 -27 -6 -18 12 -189 -169 -189 -200 0 -14 -7 -42 -15 -62 -20 -48 -19 -171 2 -236 20 -62 66 -132 99 -152 13 -8 36 -23 51 -32 68 -46 100 -62 118 -63 11 0 28 -9 38 -20 9 -11 28 -20 41 -20 13 0 29 -7 36 -15 6 -8 21 -17 32 -21 35 -11 107 -64 130 -97 17 -24 22 -44 21 -86 -1 -50 -5 -59 -37 -88 -34 -31 -40 -33 -109 -33 l-74 0 -46 40 c-25 22 -58 60 -74 85 -15 25 -35 45 -44 45 -22 0 -86 -27 -94 -40 -3 -5 -17 -10 -30 -10 -14 0 -29 -8 -35 -20 -6 -10 -16 -17 -23 -14 -22 8 -62 -12 -76 -40 -13 -23 -12 -29 12 -65 15 -23 27 -46 27 -53 0 -19 142 -158 162 -158 9 0 19 -4 22 -9 3 -4 36 -19 73 -32 58 -21 86 -24 193 -24 99 1 132 4 157 18 18 9 41 17 53 17 11 0 28 9 37 20 10 11 24 20 31 20 17 0 152 129 152 145 0 7 7 18 15 25 8 7 15 25 15 39 0 15 7 36 15 47 21 28 20 196 -2 271 -15 50 -29 70 -102 141 -46 46 -89 81 -96 78 -7 -2 -28 6 -46 20 -18 13 -37 24 -43 24 -18 0 -192 88 -205 104 -8 9 -21 16 -30 16 -10 0 -28 11 -41 25 -19 20 -22 31 -17 66 7 52 30 75 82 83 52 7 92 -16 131 -78 16 -25 31 -46 34 -46 3 0 32 18 65 40 33 22 66 40 73 40 7 0 25 8 40 18 15 10 36 23 47 28 29 16 30 58 4 97 -61 87 -152 172 -176 163 -7 -3 -16 2 -21 11 -18 31 -204 43 -294 19z"/>
<path d="M6829 2431 c-30 -4 -66 -15 -80 -24 -13 -8 -37 -15 -52 -15 -15 0 -36 -7 -46 -16 -9 -9 -24 -16 -33 -16 -8 0 -23 -9 -33 -20 -10 -11 -22 -20 -27 -20 -15 0 -132 -109 -176 -164 -48 -60 -102 -158 -102 -185 0 -10 -6 -24 -14 -30 -9 -8 -17 -43 -21 -99 -3 -48 -11 -97 -17 -110 -9 -17 -9 -25 0 -34 7 -7 12 -36 12 -65 0 -63 18 -151 36 -177 7 -10 10 -25 7 -32 -3 -8 3 -26 13 -42 22 -32 49 -79 62 -107 15 -32 192 -195 212 -195 9 0 25 -9 35 -20 10 -11 23 -20 29 -20 7 0 29 -9 51 -20 22 -11 51 -20 65 -20 14 0 32 -6 38 -13 10 -9 60 -12 180 -12 140 0 172 3 199 18 18 9 42 17 55 17 13 0 38 9 56 20 18 11 37 20 43 20 21 0 131 75 191 130 35 32 68 73 79 98 10 23 22 42 26 42 8 0 37 60 63 130 7 19 20 82 28 139 13 87 14 122 4 208 -6 56 -18 116 -27 132 -8 17 -15 42 -15 57 0 15 -6 35 -14 43 -8 9 -25 39 -40 66 -14 29 -63 86 -113 135 -87 84 -136 120 -166 120 -9 0 -22 8 -29 19 -7 10 -29 21 -48 24 -19 2 -55 13 -80 22 -51 20 -258 29 -351 16z m277 -305 c12 -1 29 -10 39 -19 9 -9 25 -17 35 -17 11 0 23 -7 27 -15 5 -8 30 -37 57 -65 27 -28 63 -79 79 -113 l31 -62 1 -125 c0 -169 -21 -227 -115 -320 -37 -36 -92 -78 -124 -94 l-57 -28 -112 3 c-97 4 -116 7 -140 26 -15 12 -36 19 -46 16 -13 -3 -23 2 -30 16 -6 11 -23 26 -38 33 -15 7 -34 25 -42 40 -9 14 -28 47 -43 72 -16 28 -34 82 -43 134 -14 74 -15 101 -5 182 8 62 19 105 31 122 10 15 19 33 19 40 0 17 121 138 139 138 8 0 23 8 34 17 30 28 171 37 303 19z"/>
<path d="M8630 2433 c-25 -2 -52 -10 -60 -17 -8 -7 -27 -16 -42 -20 -16 -3 -28 -10 -28 -15 0 -13 -87 -54 -102 -48 -7 2 -13 17 -13 33 l0 29 -168 0 -168 0 1 -690 c0 -379 4 -692 8 -695 4 -3 78 -3 164 0 l158 5 2 450 3 450 23 42 c12 23 22 48 22 56 0 7 25 36 55 64 l55 51 75 7 c110 11 169 -6 225 -64 42 -44 46 -53 58 -128 9 -56 12 -207 12 -498 -1 -230 3 -422 7 -426 4 -4 78 -9 163 -10 l155 -3 3 490 c2 471 -4 614 -28 638 -6 6 -10 22 -10 37 0 49 -151 212 -210 226 -14 3 -32 11 -40 19 -8 7 -26 12 -40 13 -14 0 -72 2 -130 4 -58 3 -125 3 -150 0z"/>
<path d="M11075 2431 c-46 -9 -97 -34 -116 -57 -17 -21 -68 -46 -82 -41 -7 2 -12 17 -12 33 l0 29 -168 0 -168 0 1 -690 c0 -379 4 -692 8 -695 4 -3 78 -3 165 0 l158 5 0 370 c-1 375 8 521 35 559 7 11 14 29 14 40 0 26 67 106 88 106 10 0 28 7 40 16 31 22 122 22 153 0 13 -9 31 -16 41 -16 10 0 27 -9 38 -20 21 -21 40 -19 40 4 0 7 9 25 20 39 11 14 20 32 20 40 0 8 9 26 20 40 11 14 20 31 20 39 0 8 11 29 25 48 14 19 25 44 25 56 0 26 -43 64 -72 64 -10 0 -29 7 -42 15 -27 18 -190 28 -251 16z"/>
<path d="M14256 2430 c-32 -5 -64 -14 -70 -18 -6 -5 -26 -12 -44 -15 -86 -17 -242 -141 -291 -233 -12 -21 -25 -46 -30 -54 -34 -55 -63 -148 -83 -265 -11 -70 -3 -331 11 -349 5 -6 13 -35 17 -64 3 -28 13 -57 20 -63 8 -6 14 -21 14 -34 0 -12 9 -30 20 -40 11 -10 20 -22 20 -27 0 -19 98 -126 150 -163 71 -52 158 -96 192 -99 15 -2 35 -9 44 -17 13 -11 57 -14 194 -14 160 0 180 2 199 19 11 10 27 16 35 13 12 -5 76 20 132 52 58 32 133 94 165 135 22 28 60 77 84 108 25 32 45 62 45 68 0 5 -19 22 -42 36 -24 15 -56 36 -71 46 -15 11 -36 21 -45 23 -10 1 -34 13 -54 25 -44 25 -88 23 -103 -5 -45 -86 -114 -159 -190 -197 l-59 -30 -98 4 c-72 4 -103 9 -116 21 -10 10 -26 17 -36 17 -10 0 -43 26 -75 58 -58 59 -91 114 -91 150 0 12 -4 23 -9 26 -5 3 -11 20 -13 37 -4 25 -1 32 19 40 14 5 234 9 494 9 l469 0 2 23 c4 55 -5 243 -12 252 -4 6 -10 31 -14 56 -4 25 -16 62 -26 82 -11 20 -20 43 -20 51 0 7 -7 19 -15 26 -8 7 -15 22 -15 33 0 25 -177 207 -202 207 -9 0 -32 9 -50 20 -18 11 -40 20 -49 20 -9 0 -22 7 -29 15 -6 8 -24 14 -38 14 -15 0 -83 2 -152 5 -69 3 -151 1 -184 -4z m312 -327 c30 -15 62 -38 73 -51 28 -37 72 -130 65 -141 -4 -5 -120 -9 -299 -8 l-292 2 3 25 c2 14 10 32 18 41 8 8 14 19 14 23 0 19 67 83 109 105 93 48 219 50 309 4z"/>
<path d="M15938 2433 c-20 -2 -42 -11 -48 -19 -7 -8 -18 -14 -25 -14 -6 0 -20 -9 -31 -21 -24 -26 -71 -52 -87 -46 -7 2 -12 17 -12 33 l0 29 -168 3 -167 2 2 -697 3 -698 160 4 c88 1 161 4 162 5 1 1 4 193 6 426 4 429 9 491 43 531 8 8 14 22 14 30 1 24 43 66 94 93 51 27 129 35 164 17 9 -5 39 -20 66 -32 l49 -22 19 23 c10 13 17 29 14 36 -3 8 4 18 14 24 13 7 20 21 20 40 0 19 7 33 20 40 12 7 20 21 20 37 0 18 10 35 27 49 l27 21 -17 26 c-9 14 -27 29 -39 32 -13 4 -43 17 -68 28 -45 20 -178 31 -262 20z"/>
<path d="M18718 2431 c-21 -4 -46 -15 -56 -24 -10 -10 -24 -17 -30 -17 -6 0 -27 -14 -46 -31 -44 -38 -71 -35 -71 6 l0 30 -168 0 -168 0 0 -690 1 -690 155 -5 c85 -3 160 -3 165 -2 6 2 10 154 11 410 0 394 3 446 31 542 15 53 80 128 117 137 14 3 32 10 39 16 16 13 108 13 124 0 7 -6 30 -16 50 -22 20 -7 42 -19 48 -27 17 -20 40 -18 40 5 0 10 7 24 15 31 8 7 15 25 15 41 0 18 7 32 20 39 11 6 20 20 20 32 0 12 8 31 18 42 10 12 24 38 31 59 15 44 7 58 -42 78 -18 7 -39 18 -47 25 -19 16 -217 27 -272 15z"/>
<path d="M19703 2431 c-28 -5 -62 -16 -74 -25 -13 -9 -35 -16 -50 -16 -15 0 -32 -7 -39 -15 -7 -8 -19 -15 -27 -15 -7 0 -58 -44 -111 -97 -96 -96 -152 -173 -152 -210 0 -10 -7 -29 -16 -42 -65 -92 -69 -462 -7 -601 73 -163 82 -176 177 -267 53 -51 106 -93 122 -97 16 -4 37 -14 46 -23 9 -8 31 -16 47 -18 17 -1 38 -8 47 -15 11 -10 53 -14 152 -14 120 -1 146 2 207 23 39 14 87 36 109 50 85 57 97 63 111 57 11 -4 15 -18 13 -48 l-3 -43 160 -5 c88 -3 163 -3 167 0 4 3 8 316 8 695 l1 690 -162 3 c-180 3 -183 2 -173 -59 3 -21 1 -40 -5 -43 -13 -8 -76 18 -87 36 -16 25 -93 70 -109 64 -9 -3 -29 3 -44 15 -23 17 -46 21 -142 24 -63 2 -137 0 -166 -4z m282 -302 c129 -33 247 -155 272 -279 3 -17 10 -33 14 -36 5 -3 9 -48 9 -100 0 -97 -26 -210 -56 -245 -8 -8 -14 -22 -14 -30 0 -23 -100 -113 -155 -140 -41 -20 -68 -25 -150 -28 -92 -2 -104 -1 -155 24 -61 31 -160 120 -160 146 0 9 -6 22 -14 28 -7 6 -19 33 -26 59 -7 26 -17 51 -21 56 -12 13 -11 233 0 240 5 3 12 21 15 39 3 18 15 50 27 72 26 49 128 155 149 155 9 0 22 6 28 13 32 31 162 46 237 26z"/>
<path d="M24068 2435 c-4 -4 -25 -7 -47 -7 -23 0 -45 -5 -52 -14 -6 -8 -19 -14 -29 -14 -10 0 -23 -7 -30 -15 -19 -23 -97 -58 -114 -52 -12 5 -15 14 -10 31 8 34 -9 37 -189 34 l-148 -3 1 -690 c0 -379 4 -692 8 -695 4 -3 78 -3 165 0 l158 5 0 370 c-1 346 7 512 28 560 5 11 14 34 21 52 7 18 36 54 64 82 50 46 57 49 122 57 104 11 165 -5 218 -58 45 -46 66 -91 66 -142 0 -18 4 -36 10 -42 6 -6 11 -176 12 -449 l3 -440 160 4 c88 1 162 7 165 11 3 4 2 237 -1 517 -6 536 -8 553 -56 663 -17 39 -76 106 -160 182 -13 12 -32 18 -47 16 -15 -2 -30 4 -38 14 -11 15 -36 19 -143 24 -71 4 -133 3 -137 -1z"/>
<path d="M25485 2429 c-27 -6 -56 -16 -64 -22 -7 -6 -24 -10 -35 -9 -12 2 -34 -6 -48 -18 -14 -11 -30 -20 -34 -20 -4 0 -18 -10 -30 -21 -13 -12 -34 -27 -46 -33 -44 -22 -178 -213 -178 -254 0 -10 -7 -28 -16 -41 -33 -47 -47 -140 -47 -311 0 -171 14 -264 47 -311 9 -13 16 -32 16 -42 0 -36 55 -113 147 -205 51 -50 98 -92 105 -92 7 0 34 -11 60 -25 26 -14 55 -25 66 -25 10 0 24 -6 31 -13 8 -8 55 -12 162 -12 130 0 152 2 160 17 5 10 17 14 29 11 11 -3 36 4 55 16 20 11 42 21 48 21 7 0 32 16 56 36 26 20 54 34 65 32 19 -3 21 -11 24 -78 4 -87 -14 -230 -34 -269 -8 -14 -14 -33 -14 -42 0 -23 -112 -127 -146 -135 -16 -4 -35 -11 -41 -17 -7 -5 -53 -10 -101 -10 -96 0 -168 19 -212 58 -14 12 -33 25 -43 28 -9 4 -20 15 -24 24 -3 10 -14 27 -24 38 -10 11 -25 45 -32 75 l-14 55 -167 3 -167 2 7 -62 c3 -35 12 -76 20 -92 8 -16 14 -34 14 -39 0 -27 54 -118 101 -170 60 -68 174 -157 199 -157 10 0 23 -6 29 -14 6 -8 36 -17 66 -21 30 -3 57 -11 60 -16 10 -16 289 -11 363 7 60 14 130 41 172 66 8 4 29 15 45 22 68 32 118 87 184 206 32 57 62 132 58 144 -3 7 -1 18 5 24 21 21 27 230 28 932 l1 725 -157 3 c-177 3 -189 -1 -179 -55 3 -18 3 -38 0 -43 -9 -14 -48 4 -106 50 -28 22 -63 43 -77 46 -15 4 -34 12 -42 20 -8 7 -26 13 -40 13 -14 0 -77 2 -140 5 -63 3 -137 0 -165 -5z m367 -325 c71 -37 112 -76 158 -154 33 -56 40 -80 51 -165 11 -88 10 -112 -5 -197 -10 -53 -24 -102 -32 -109 -8 -6 -14 -18 -14 -26 0 -21 -121 -143 -141 -143 -9 0 -27 -8 -40 -18 -19 -14 -46 -19 -124 -21 -129 -3 -184 19 -265 107 -81 88 -84 92 -98 142 -34 115 -36 247 -7 335 8 22 16 51 19 65 7 31 136 170 159 170 9 0 21 9 27 21 7 11 18 18 25 15 7 -2 26 -1 42 4 15 5 65 8 110 5 63 -3 93 -10 135 -31z"/>
<path d="M1802 1888 l3 -513 29 -65 c29 -68 73 -135 116 -177 43 -42 153 -110 200 -123 25 -7 56 -17 69 -24 15 -7 84 -11 181 -11 139 0 160 2 178 18 13 12 28 16 40 13 12 -4 33 3 56 19 20 14 45 25 55 25 21 0 181 161 181 182 0 9 10 28 22 43 11 15 22 42 23 61 1 19 7 39 12 46 18 22 23 150 24 588 l1 425 -167 0 -167 0 2 -412 c1 -416 -6 -530 -36 -564 -8 -8 -14 -22 -14 -31 0 -8 -28 -39 -62 -67 l-63 -53 -97 4 c-77 3 -101 7 -117 22 -12 11 -31 24 -43 30 -21 11 -47 47 -69 96 -24 56 -29 153 -28 547 0 227 -2 417 -6 423 -4 6 -66 10 -166 10 l-160 0 3 -512z"/>
<path d="M11660 2393 c0 -5 0 -316 0 -693 l0 -685 156 -5 c86 -3 160 -3 165 0 5 3 9 315 9 695 l1 690 -165 3 c-92 1 -166 -1 -166 -5z"/>
<path d="M12207 2393 c-14 -13 -6 -43 13 -53 13 -7 20 -21 20 -39 0 -16 6 -34 14 -40 15 -12 68 -117 80 -158 4 -11 13 -27 21 -33 8 -7 15 -20 15 -30 0 -9 9 -29 20 -43 11 -14 20 -32 20 -40 0 -8 9 -26 20 -40 11 -14 20 -33 20 -42 0 -9 9 -28 20 -42 11 -14 20 -32 20 -40 0 -8 9 -26 20 -40 11 -14 20 -32 20 -40 0 -8 9 -26 20 -40 11 -14 20 -34 20 -44 0 -11 9 -36 20 -56 11 -21 20 -43 20 -49 0 -6 6 -17 14 -23 8 -7 18 -25 21 -41 3 -16 12 -34 20 -40 8 -6 17 -24 20 -40 3 -16 13 -34 21 -41 8 -6 14 -24 14 -39 0 -15 9 -35 20 -45 11 -10 20 -28 20 -40 0 -12 9 -30 20 -40 11 -10 20 -28 20 -40 0 -12 9 -30 20 -40 11 -10 20 -26 20 -35 0 -10 9 -29 21 -44 11 -14 25 -42 30 -61 6 -19 14 -35 19 -35 17 0 40 32 40 55 0 15 10 31 26 41 19 13 24 24 21 41 -3 17 2 28 14 36 12 8 19 23 19 44 0 22 6 36 20 43 13 7 20 21 20 40 0 19 7 33 20 40 13 7 20 21 20 40 0 19 7 33 20 40 13 7 20 21 20 40 0 19 7 33 20 40 13 7 20 21 20 39 0 16 9 40 20 54 11 14 20 32 20 40 0 8 9 26 20 40 11 14 20 32 20 40 0 8 9 26 20 40 11 14 20 32 20 40 0 8 9 26 20 40 11 14 20 29 20 34 0 4 38 85 84 178 46 94 95 193 108 220 13 28 32 62 42 78 10 15 16 36 13 48 -4 15 1 23 19 30 19 6 25 15 22 32 l-3 22 -179 3 c-158 2 -181 0 -198 -15 -10 -9 -18 -26 -16 -38 1 -11 -7 -30 -20 -43 -12 -12 -22 -33 -22 -46 0 -13 -7 -29 -15 -36 -8 -7 -15 -21 -15 -32 0 -11 -9 -31 -20 -45 -11 -14 -20 -36 -20 -48 0 -12 -9 -34 -20 -48 -11 -14 -20 -30 -20 -37 0 -6 -9 -28 -20 -48 -11 -20 -33 -65 -49 -100 -16 -34 -34 -68 -39 -75 -6 -7 -12 -28 -14 -47 -2 -28 -9 -37 -31 -44 -39 -14 -62 3 -62 43 -1 20 -7 36 -18 42 -9 6 -17 17 -17 25 0 8 -20 56 -45 106 -25 51 -45 96 -45 101 0 5 -9 20 -20 34 -11 14 -20 34 -20 43 0 22 -50 122 -66 132 -6 4 -9 18 -7 32 3 16 -3 32 -18 47 -13 13 -22 32 -21 42 2 10 -4 27 -14 38 -16 17 -32 19 -194 19 -97 0 -180 -3 -183 -7z"/>
<path d="M22730 2393 c-5 -125 3 -1379 8 -1383 4 -3 78 -3 165 0 l157 5 1 690 0 690 -166 3 c-91 1 -165 -1 -165 -5z"/>
</g>
</g>
</svg>
