<?xml version="1.0" standalone="no"?>
<!DOCTYPE svg PUBLIC "-//W3C//DTD SVG 1.1//EN"
 "http://www.w3.org/Graphics/SVG/1.1/DTD/svg11.dtd">
<!-- Created with svg_stack (http://github.com/astraw/svg_stack) -->
<svg xmlns:sodipodi="http://sodipodi.sourceforge.net/DTD/sodipodi-0.dtd" xmlns="http://www.w3.org/2000/svg" version="1.1" width="3502.0" height="1006.0">
  <defs/>
  <g id="id0:id0" transform="matrix(1.25,0,0,1.25,0.0,0.0)"><g transform="translate(0.000000,804.800000) scale(0.040000,-0.040000)" fill="#ffffff" stroke="none">
<path d="M0 10060 l0 -10060 10210 0 c8109 0 10214 3 10230 12 16 10 24 10 40 0 29 -18 20411 -18 20440 0 16 10 24 10 40 0 29 -18 1260 -18 1278 1 10 9 175 13 739 15 641 3 728 1 749 -13 21 -13 896 -15 8839 -15 6999 0 8819 3 8835 12 16 10 24 10 40 0 16 -9 902 -12 4259 -12 2397 0 4242 4 4245 9 3 4 18 11 34 14 34 7 51 39 45 83 -3 18 0 35 6 38 8 5 11 2762 11 9992 l0 9984 -35020 0 -35020 0 0 -10060z m55935 4981 c72 -12 166 -32 210 -44 l80 -23 3 -509 c1 -281 0 -515 -2 -521 -3 -8 -21 -4 -53 12 -135 66 -427 111 -638 98 -264 -16 -458 -94 -607 -245 -137 -139 -211 -309 -248 -570 -11 -73 -15 -988 -5 -998 4 -3 309 -8 678 -11 l672 -5 0 -493 0 -493 -672 1 c-370 0 -674 -1 -675 -2 -2 -2 -5 -1060 -8 -2353 l-5 -2350 -625 0 -625 0 -5 2350 c-3 1293 -6 2351 -8 2353 -1 1 -215 2 -474 2 l-473 -1 0 493 0 493 464 3 c307 1 469 6 477 13 10 8 13 137 17 587 3 527 6 587 24 692 87 483 290 830 648 1106 302 233 621 363 1025 418 175 24 178 24 445 21 198 -2 277 -7 380 -24z m-32985 -160 c175 -40 275 -95 399 -220 91 -92 141 -175 177 -296 26 -85 26 -296 0 -380 -44 -141 -117 -252 -231 -348 -90 -76 -151 -109 -266 -148 l-94 -33 -155 0 c-172 0 -226 10 -353 68 -186 85 -324 238 -388 431 -20 60 -24 90 -24 210 0 160 18 239 83 355 45 81 200 238 274 277 186 97 387 126 578 84z m-9249 -541 c36 -91 96 -244 134 -340 37 -96 107 -276 156 -400 48 -124 129 -331 180 -460 50 -129 134 -343 186 -475 51 -132 107 -274 123 -315 46 -120 159 -407 197 -505 19 -49 59 -151 88 -225 76 -194 140 -358 192 -490 49 -126 120 -309 239 -610 42 -107 96 -247 121 -310 55 -144 134 -345 257 -658 53 -134 96 -246 96 -249 0 -3 7 -19 15 -36 65 -144 276 -745 320 -914 19 -73 38 -95 60 -71 6 7 33 78 59 158 26 80 77 231 113 335 66 190 2252 5670 2279 5713 l15 22 887 -2 887 -3 0 -3985 0 -3985 -645 0 -645 0 -3 2720 c-2 1743 1 2803 7 2950 12 258 37 669 51 844 15 180 14 211 -9 211 -15 0 -20 -10 -25 -47 -8 -54 -64 -274 -102 -403 -62 -205 -57 -193 -421 -1110 -98 -246 -152 -383 -408 -1030 -53 -135 -131 -330 -172 -435 -41 -104 -80 -203 -87 -220 -7 -16 -23 -55 -35 -85 -11 -30 -89 -226 -172 -435 -83 -209 -167 -420 -186 -470 -19 -49 -81 -207 -138 -350 -57 -143 -146 -370 -199 -505 -54 -135 -101 -254 -106 -265 -12 -28 -38 -93 -113 -285 -105 -266 -334 -845 -385 -970 l-48 -115 -449 0 -449 0 -1183 2955 c-651 1625 -1203 3017 -1228 3092 -52 161 -140 508 -150 589 -13 117 -60 116 -51 -1 29 -391 31 -563 31 -3575 l0 -3060 -605 0 -605 0 -3 3975 c-1 2186 0 3981 3 3988 3 10 195 12 932 10 l928 -3 66 -165z m45091 -1275 l3 -830 675 -5 675 -5 0 -493 0 -493 -672 1 -672 0 -6 -32 c-3 -18 -4 -719 -3 -1558 l4 -1525 22 -105 c48 -229 116 -361 232 -452 141 -111 321 -155 595 -145 122 4 165 10 230 30 93 29 227 90 245 112 7 8 16 12 21 9 5 -3 9 -218 9 -488 0 -448 -1 -484 -17 -498 -56 -46 -283 -112 -518 -150 -190 -30 -646 -33 -825 -5 -393 61 -651 178 -859 386 -203 204 -308 424 -373 784 l-22 122 -6 1755 c-3 965 -6 1756 -8 1758 -1 1 -215 2 -474 2 l-473 -1 0 493 0 493 464 3 c322 1 468 6 478 13 11 9 13 129 13 655 0 602 1 644 18 653 9 5 274 82 587 171 314 89 586 167 605 174 19 7 38 10 42 7 5 -4 9 -380 10 -836z m-30477 -744 c231 -32 388 -66 565 -122 91 -29 258 -92 290 -108 13 -7 15 -84 18 -587 1 -318 0 -585 -3 -593 -4 -11 -12 -9 -33 11 -50 45 -176 122 -327 198 -331 167 -655 233 -1030 210 -385 -23 -714 -144 -1003 -368 -283 -220 -515 -563 -620 -917 -37 -125 -54 -206 -84 -405 -19 -129 -16 -517 6 -665 84 -575 316 -972 743 -1272 18 -13 34 -23 37 -23 2 0 33 -17 67 -38 169 -101 430 -181 684 -211 117 -14 385 -14 500 0 338 41 669 181 1007 426 35 25 49 31 53 21 3 -7 4 -253 3 -547 l-3 -535 -65 -35 c-231 -123 -516 -224 -800 -281 -254 -52 -397 -64 -730 -64 -251 -1 -340 3 -440 17 -252 36 -423 75 -616 141 -125 42 -162 58 -304 128 -156 78 -213 111 -360 215 -166 117 -438 386 -560 556 -290 401 -432 762 -512 1302 -20 132 -22 190 -22 480 0 285 3 353 22 494 83 616 258 1066 581 1495 98 131 389 423 511 513 439 324 861 489 1445 563 216 27 239 28 555 25 209 -3 311 -8 425 -24z m5230 0 c97 -23 160 -46 188 -69 16 -14 17 -56 17 -618 0 -365 -4 -605 -9 -609 -6 -3 -13 1 -18 9 -23 41 -214 122 -363 152 -118 25 -386 25 -490 1 -285 -67 -487 -198 -695 -453 -202 -246 -334 -586 -397 -1019 l-22 -150 -5 -1515 -6 -1515 -625 0 -625 0 0 2845 0 2845 625 0 625 0 5 -570 c3 -313 9 -575 13 -582 13 -21 36 -2 43 35 9 55 90 253 154 377 110 212 212 345 405 524 162 151 380 265 591 309 143 31 142 31 329 27 130 -2 191 -8 260 -24z m4209 0 c258 -36 437 -78 641 -148 117 -41 358 -155 465 -221 330 -205 636 -524 819 -855 196 -354 299 -689 362 -1172 31 -232 34 -764 6 -980 -96 -750 -354 -1306 -814 -1756 -429 -421 -935 -656 -1618 -751 -139 -19 -204 -22 -490 -22 -290 0 -349 3 -485 22 -389 57 -664 138 -945 281 -113 58 -119 62 -240 139 -373 239 -692 599 -901 1017 -28 55 -56 114 -62 130 -6 17 -25 66 -42 110 -75 194 -135 444 -172 710 -19 140 -22 203 -22 500 0 291 3 363 22 503 46 350 100 567 210 847 76 195 229 469 327 586 16 20 58 71 92 115 111 142 322 333 513 465 378 260 804 412 1340 479 227 28 239 28 560 25 220 -3 319 -8 434 -24z m6206 0 c271 -34 497 -82 715 -152 72 -22 136 -46 143 -51 9 -8 12 -130 12 -548 0 -295 -3 -540 -7 -543 -3 -4 -13 -1 -22 7 -27 23 -202 120 -281 155 -126 55 -132 58 -240 94 -135 46 -242 71 -410 99 -115 19 -173 22 -390 22 -235 0 -264 -2 -375 -26 -243 -52 -410 -133 -540 -263 -129 -129 -183 -264 -171 -430 17 -255 134 -410 426 -568 116 -63 291 -131 655 -257 100 -34 182 -68 333 -136 29 -13 55 -24 58 -24 3 0 78 -36 167 -79 352 -173 528 -291 717 -482 203 -204 318 -422 373 -708 31 -166 31 -488 -2 -636 -63 -289 -186 -507 -410 -731 -287 -286 -694 -481 -1221 -583 -274 -53 -424 -65 -795 -65 -429 0 -597 17 -961 95 -198 43 -398 104 -559 172 l-80 34 -3 578 c-1 319 2 583 6 587 5 5 22 -1 38 -14 120 -96 447 -285 552 -319 20 -6 42 -15 47 -19 18 -13 257 -90 345 -111 252 -59 613 -84 862 -60 521 51 781 201 884 511 29 86 26 264 -5 354 -38 110 -67 156 -164 254 -138 140 -337 247 -737 393 -124 45 -259 94 -300 109 -41 15 -91 35 -110 43 -19 9 -84 37 -145 63 -128 54 -426 202 -488 241 -23 15 -53 34 -67 41 -76 41 -247 180 -340 278 -184 191 -295 409 -351 684 -20 99 -23 145 -23 330 -1 228 11 311 66 480 102 314 403 649 767 855 288 162 634 270 1036 324 214 29 220 29 540 25 216 -2 332 -8 455 -23z m5554 0 c258 -36 437 -78 641 -148 117 -41 358 -155 465 -221 330 -205 636 -524 819 -855 196 -354 299 -689 362 -1172 31 -232 34 -764 6 -980 -96 -750 -354 -1306 -814 -1756 -429 -421 -935 -656 -1618 -751 -139 -19 -204 -22 -490 -22 -290 0 -349 3 -485 22 -389 57 -664 138 -945 281 -113 58 -119 62 -240 139 -373 239 -692 599 -901 1017 -28 55 -56 114 -62 130 -6 17 -25 66 -42 110 -75 194 -135 444 -172 710 -19 140 -22 203 -22 500 0 291 3 363 22 503 46 350 100 567 210 847 76 195 229 469 327 586 16 20 58 71 92 115 111 142 322 333 513 465 378 260 804 412 1340 479 227 28 239 28 560 25 220 -3 319 -8 434 -24z m-26129 -2941 l0 -2845 -625 0 -625 0 -3 2835 c-1 1559 0 2841 3 2848 3 10 134 12 627 10 l623 -3 0 -2845z"/>
<path d="M37025 11329 c-150 -10 -340 -52 -445 -96 -208 -90 -345 -179 -480 -313 -289 -288 -448 -635 -521 -1140 -32 -222 -33 -628 -1 -842 36 -248 104 -482 188 -650 247 -495 651 -786 1187 -858 112 -14 395 -12 507 5 337 50 584 170 800 386 121 123 193 224 276 389 104 209 156 384 201 685 23 151 26 203 26 460 1 249 -2 314 -22 460 -36 266 -85 453 -169 645 -25 58 -56 122 -69 142 -13 21 -23 40 -23 43 0 24 -143 208 -225 290 -240 241 -538 369 -917 395 -156 11 -153 11 -313 -1z"/>
<path d="M48785 11329 c-150 -10 -340 -52 -445 -96 -208 -90 -345 -179 -480 -313 -289 -288 -448 -635 -521 -1140 -32 -222 -33 -628 -1 -842 36 -248 104 -482 188 -650 247 -495 651 -786 1187 -858 112 -14 395 -12 507 5 337 50 584 170 800 386 121 123 193 224 276 389 104 209 156 384 201 685 23 151 26 203 26 460 1 249 -2 314 -22 460 -36 266 -85 453 -169 645 -25 58 -56 122 -69 142 -13 21 -23 40 -23 43 0 24 -143 208 -225 290 -240 241 -538 369 -917 395 -156 11 -153 11 -313 -1z"/>
</g>
</g>
  <g id="id1:id1" transform="matrix(1.25,0,0,1.25,0.0,0.0)"><g transform="translate(0.000000,804.800000) scale(0.040000,-0.040000)" fill="#000000" stroke="none">
<path d="M55275 15081 c-306 -25 -579 -95 -824 -212 -512 -244 -858 -649 -990 -1159 -59 -224 -63 -284 -70 -890 l-6 -565 -475 -5 c-261 -3 -476 -7 -478 -8 -6 -5 3 -1011 9 -1017 4 -3 218 -7 475 -8 l469 -2 3 -2339 c1 -1709 5 -2343 13 -2353 17 -20 1261 -20 1278 0 8 10 12 644 13 2353 l3 2339 665 3 c611 2 666 3 678 19 18 26 18 986 -1 1002 -10 8 -209 12 -683 13 l-669 3 1 465 c0 320 4 488 12 540 33 197 82 329 171 457 95 136 251 238 447 290 91 24 116 26 304 27 161 1 224 -3 295 -17 107 -22 244 -65 266 -84 25 -21 56 -16 63 10 3 12 6 245 6 518 0 459 -1 498 -17 517 -22 24 -142 55 -318 82 -148 23 -480 33 -640 21z"/>
<path d="M22628 14905 c-173 -33 -310 -108 -434 -237 -88 -92 -138 -178 -175 -298 -33 -107 -33 -293 0 -400 38 -124 86 -208 167 -292 99 -103 223 -177 369 -219 115 -33 314 -33 435 0 262 70 474 270 552 521 32 105 32 282 -1 390 -79 260 -300 462 -571 524 -105 24 -248 29 -342 11z"/>
<path d="M11763 14523 c-18 -7 -19 -7983 -1 -8001 17 -17 1219 -17 1236 0 17 17 17 5436 0 5998 -15 488 -15 549 -4 552 6 2 29 -73 53 -167 24 -93 59 -222 79 -285 40 -131 2410 -6066 2432 -6092 14 -17 48 -18 453 -18 240 0 444 3 452 6 15 5 75 152 362 879 57 143 182 458 277 700 96 242 225 566 286 720 61 154 177 447 257 650 267 674 356 898 440 1110 46 116 136 343 200 505 64 162 163 412 220 555 57 143 164 414 238 601 141 355 182 474 252 734 22 85 45 154 51 153 5 -2 9 -9 9 -15 0 -27 -28 -444 -43 -648 -13 -187 -16 -586 -19 -3068 -3 -2161 -1 -2857 8 -2868 10 -12 115 -14 658 -14 490 0 650 3 659 12 17 17 17 7979 0 7996 -18 18 -1777 17 -1801 0 -17 -14 -2141 -5312 -2252 -5618 -51 -141 -185 -540 -201 -599 -9 -29 -33 12 -54 91 -48 179 -162 504 -305 870 -277 707 -392 1000 -510 1303 -54 138 -136 347 -182 465 -46 118 -115 294 -153 390 -37 96 -85 218 -105 270 -40 102 -143 365 -255 650 -37 96 -85 218 -105 270 -40 102 -143 365 -255 650 -37 96 -85 218 -105 270 -60 155 -314 801 -357 910 -16 41 -35 78 -41 82 -13 8 -1854 10 -1874 1z m7301 -1364 c-3 -5 -10 -7 -15 -3 -5 3 -7 10 -3 15 3 5 10 7 15 3 5 -3 7 -10 3 -15z m-6069 -59 c-5 -8 -11 -8 -17 -2 -6 6 -7 16 -3 22 5 8 11 8 17 2 6 -6 7 -16 3 -22z"/>
<path d="M58143 13741 c-337 -97 -617 -181 -622 -186 -7 -7 -12 -227 -13 -655 l-3 -645 -475 -5 c-261 -3 -476 -7 -478 -8 -6 -5 3 -1011 9 -1017 4 -3 218 -7 475 -8 l469 -2 6 -1735 6 -1735 20 -120 c65 -377 186 -631 395 -831 253 -240 571 -360 1048 -395 374 -28 794 25 1075 134 63 24 94 42 102 58 10 18 13 140 13 494 0 259 -3 480 -6 493 -7 26 -26 29 -45 6 -20 -25 -145 -84 -233 -110 -224 -67 -563 -45 -741 50 -165 87 -258 234 -308 491 l-22 110 0 1545 0 1545 665 3 c611 2 666 3 678 19 18 26 18 986 -1 1002 -10 8 -208 12 -678 13 l-664 3 -5 830 c-3 457 -6 831 -8 833 -8 9 -113 -19 -659 -177z"/>
<path d="M27590 12364 c-109 -7 -399 -44 -505 -65 -294 -59 -542 -143 -780 -264 -287 -147 -487 -296 -730 -546 -216 -222 -374 -448 -505 -721 -154 -323 -240 -631 -291 -1038 -32 -254 -32 -695 -1 -927 52 -380 136 -665 282 -956 132 -261 267 -445 489 -668 171 -171 255 -240 426 -352 568 -369 1320 -508 2150 -397 83 11 164 24 180 29 17 5 48 12 70 16 73 11 318 84 440 130 149 57 362 163 381 189 12 17 14 110 14 542 0 287 -3 536 -6 553 -8 39 -20 39 -59 2 -59 -57 -262 -184 -410 -256 -206 -100 -397 -159 -600 -186 -104 -13 -404 -13 -525 1 -696 78 -1225 514 -1423 1170 -132 437 -130 996 5 1435 148 479 496 889 928 1092 405 191 924 226 1370 93 216 -64 503 -209 647 -326 49 -40 59 -42 67 -11 3 12 6 279 6 593 0 530 -1 573 -17 592 -30 33 -285 127 -483 176 -261 66 -503 96 -815 100 -132 2 -269 2 -305 0z"/>
<path d="M33086 12360 c-452 -57 -847 -346 -1109 -810 -48 -87 -152 -316 -173 -382 -25 -79 -29 -15 -32 511 -1 382 -6 548 -13 558 -9 11 -125 13 -634 13 -343 0 -630 -3 -639 -6 -15 -6 -16 -267 -16 -2858 0 -2205 3 -2855 12 -2864 18 -18 1261 -17 1276 1 8 10 12 453 15 1538 l3 1524 21 145 c64 431 188 742 404 1010 174 217 380 355 622 418 92 24 119 27 282 27 138 0 201 -4 270 -19 145 -30 292 -93 339 -145 25 -27 42 -27 50 2 3 12 6 290 6 618 0 678 8 619 -90 657 -142 55 -418 84 -594 62z"/>
<path d="M37020 12364 c-215 -13 -523 -61 -730 -114 -761 -194 -1382 -686 -1724 -1366 -159 -315 -254 -649 -307 -1074 -32 -256 -32 -722 -1 -963 78 -582 255 -1028 571 -1437 88 -114 285 -315 397 -406 405 -326 846 -506 1434 -585 238 -32 690 -32 930 0 420 55 716 144 1035 309 523 272 949 728 1192 1275 120 271 198 566 244 922 32 246 32 721 0 975 -89 714 -294 1205 -684 1641 -477 532 -1170 811 -2047 823 -135 2 -274 2 -310 0z m378 -1055 c355 -39 625 -162 849 -388 259 -261 415 -624 480 -1116 26 -199 26 -671 0 -870 -70 -531 -258 -929 -556 -1177 -207 -173 -441 -273 -726 -308 -117 -15 -397 -15 -505 -1 -647 86 -1115 526 -1291 1211 -58 226 -74 374 -74 685 0 304 13 445 62 665 144 654 550 1116 1100 1255 206 52 447 68 661 44z"/>
<path d="M43185 12360 c-669 -50 -1237 -263 -1622 -608 -188 -169 -353 -411 -421 -622 -119 -364 -84 -837 88 -1174 161 -316 425 -547 890 -776 160 -78 414 -187 545 -233 57 -20 440 -162 505 -187 88 -34 246 -116 324 -167 39 -25 110 -85 157 -132 129 -130 179 -245 179 -416 0 -171 -51 -298 -163 -409 -184 -183 -487 -266 -969 -266 -239 0 -400 16 -593 61 -326 74 -649 223 -929 426 -48 35 -91 61 -95 58 -3 -4 -7 -271 -9 -594 -2 -552 -2 -589 15 -608 27 -31 226 -107 438 -168 510 -147 1175 -191 1750 -115 627 82 1121 295 1450 625 227 228 350 447 413 740 23 106 26 142 25 315 0 213 -18 345 -70 505 -100 312 -312 571 -646 792 -238 158 -702 377 -1052 498 -358 124 -523 193 -660 278 -225 139 -324 304 -325 538 0 151 51 270 165 384 135 136 322 219 597 266 109 19 150 21 358 16 358 -7 567 -47 870 -164 142 -55 373 -175 400 -208 18 -22 37 -18 44 8 3 12 6 261 6 554 0 469 -2 533 -16 547 -33 34 -402 137 -644 181 -277 49 -741 75 -1005 55z"/>
<path d="M48780 12364 c-215 -13 -523 -61 -730 -114 -761 -194 -1382 -686 -1724 -1366 -159 -315 -254 -649 -307 -1074 -32 -256 -32 -722 -1 -963 78 -582 255 -1028 571 -1437 88 -114 285 -315 397 -406 405 -326 846 -506 1434 -585 238 -32 690 -32 930 0 420 55 716 144 1035 309 523 272 949 728 1192 1275 120 271 198 566 244 922 32 246 32 721 0 975 -89 714 -294 1205 -684 1641 -477 532 -1170 811 -2047 823 -135 2 -274 2 -310 0z m378 -1055 c355 -39 625 -162 849 -388 259 -261 415 -624 480 -1116 26 -199 26 -671 0 -870 -70 -531 -258 -929 -556 -1177 -207 -173 -441 -273 -726 -308 -117 -15 -397 -15 -505 -1 -647 86 -1115 526 -1291 1211 -58 226 -74 374 -74 685 0 304 13 445 62 665 144 654 550 1116 1100 1255 206 52 447 68 661 44z"/>
<path d="M22123 12243 c-18 -7 -19 -5703 -1 -5721 17 -17 1259 -17 1276 0 17 17 17 5699 0 5716 -9 9 -163 12 -638 11 -344 0 -631 -3 -637 -6z"/>
</g>
</g>
</svg>
