<?xml version="1.0" standalone="no"?>
<!DOCTYPE svg PUBLIC "-//W3C//DTD SVG 1.1//EN"
 "http://www.w3.org/Graphics/SVG/1.1/DTD/svg11.dtd">
<!-- Created with svg_stack (http://github.com/astraw/svg_stack) -->
<svg xmlns:sodipodi="http://sodipodi.sourceforge.net/DTD/sodipodi-0.dtd" xmlns="http://www.w3.org/2000/svg" version="1.1" width="3060.0" height="1680.0">
  <defs/>
  <g id="id0:id0" transform="matrix(1.25,0,0,1.25,0.0,0.0)"><g transform="translate(0.000000,1344.000000) scale(0.040000,-0.040000)" fill="#ffffff" stroke="none">
<path d="M0 16800 l0 -16800 1000 0 c880 0 999 2 994 15 -4 10 -20 15 -53 14 -55 0 -250 16 -306 26 -59 10 -265 54 -300 64 -137 41 -213 64 -230 72 -11 5 -57 22 -102 38 -46 15 -88 33 -95 39 -7 6 -27 14 -43 18 -17 3 -37 12 -45 19 -8 6 -62 35 -120 64 -134 66 -174 89 -296 168 -161 104 -384 285 -384 312 0 15 110 155 219 278 28 32 63 74 78 94 79 103 227 269 240 269 9 0 35 -17 58 -37 251 -225 643 -449 945 -538 25 -8 61 -19 80 -25 19 -6 58 -15 85 -20 28 -4 91 -16 140 -26 69 -13 144 -17 320 -18 205 -1 241 1 335 22 98 22 189 50 235 75 11 6 42 22 70 36 57 30 180 142 229 210 104 144 123 405 40 580 -57 121 -182 230 -354 308 -41 19 -88 41 -103 48 -65 34 -310 107 -562 169 -148 37 -317 80 -375 98 -58 17 -121 33 -140 35 -19 3 -40 9 -46 14 -5 4 -35 15 -65 23 -80 23 -149 46 -194 66 -22 10 -67 28 -100 40 -33 12 -67 26 -75 31 -8 5 -26 14 -40 19 -14 6 -32 15 -40 20 -8 6 -26 15 -40 20 -35 15 -40 17 -85 45 -22 13 -51 30 -65 37 -51 26 -217 158 -271 214 -80 84 -119 143 -187 279 -101 204 -134 362 -133 650 0 105 4 213 9 240 6 28 15 77 22 110 6 33 17 74 24 90 8 17 17 45 21 63 4 18 13 45 21 60 8 15 14 33 14 40 0 8 9 25 20 39 11 14 20 32 20 40 0 7 8 26 19 41 10 15 42 62 70 105 66 102 138 184 232 266 127 110 168 137 359 234 180 91 399 157 635 189 137 19 621 15 755 -7 58 -9 130 -20 160 -25 53 -7 86 -15 265 -62 105 -27 227 -68 241 -79 6 -5 33 -16 60 -24 134 -40 632 -333 712 -418 l23 -24 -92 -134 c-51 -74 -145 -206 -209 -294 -64 -88 -131 -184 -150 -213 -18 -28 -35 -52 -37 -52 -2 0 -27 17 -56 38 -136 100 -270 183 -407 252 -12 6 -44 23 -73 39 -29 15 -88 40 -131 55 -44 15 -89 34 -100 41 -32 20 -341 93 -441 105 -257 29 -527 -1 -685 -77 -272 -131 -400 -323 -387 -581 9 -183 43 -261 163 -377 60 -59 93 -81 201 -134 70 -34 145 -71 165 -82 20 -10 45 -19 55 -19 10 -1 36 -9 58 -20 22 -11 46 -19 52 -20 12 0 92 -23 193 -56 25 -8 178 -47 340 -88 162 -41 306 -78 320 -84 14 -5 61 -20 105 -32 44 -12 98 -30 120 -40 22 -10 67 -28 100 -40 286 -105 535 -252 698 -413 143 -141 222 -267 285 -453 89 -265 95 -664 14 -937 -96 -319 -267 -565 -522 -753 -92 -67 -261 -162 -291 -163 -9 -1 -27 -9 -40 -19 -27 -20 -256 -97 -334 -111 -27 -5 -63 -14 -78 -20 -16 -6 -74 -13 -130 -16 -56 -4 -118 -11 -138 -17 -24 -7 -43 -7 -55 0 -23 12 -44 5 -44 -14 0 -12 448 -14 3216 -14 2568 0 3215 3 3211 13 -2 6 -19 13 -38 14 -126 9 -279 39 -434 85 -115 34 -219 69 -230 78 -6 5 -33 16 -60 26 -46 15 -186 81 -230 108 -11 6 -42 24 -70 39 -50 28 -118 71 -216 139 -223 153 -510 455 -661 693 -17 28 -44 69 -59 92 -15 22 -30 52 -34 65 -4 12 -12 29 -18 36 -15 19 -67 126 -67 138 0 6 -6 17 -14 23 -8 6 -16 22 -19 34 -3 12 -17 51 -32 87 -56 138 -75 194 -85 250 -4 25 -15 65 -24 89 -9 24 -16 54 -16 66 0 13 -7 50 -15 82 -49 197 -62 636 -25 921 11 89 25 174 30 188 6 14 10 37 10 51 0 14 9 53 19 87 11 33 30 97 42 141 12 44 28 89 34 100 6 11 20 45 29 75 18 55 68 172 86 200 6 8 15 26 20 40 6 14 15 32 20 40 6 8 14 25 20 38 5 12 28 50 50 83 22 33 40 63 40 67 0 4 20 34 44 67 25 33 59 80 78 105 96 132 233 279 378 404 78 68 290 219 401 286 64 38 262 134 324 157 39 14 89 34 112 44 23 11 49 19 58 19 9 0 25 5 35 10 23 13 311 83 400 99 292 49 789 43 1055 -15 183 -40 259 -59 370 -96 136 -44 156 -53 350 -149 211 -105 276 -145 475 -299 225 -173 527 -539 656 -795 14 -27 29 -57 34 -65 22 -35 79 -168 89 -205 6 -22 17 -49 24 -60 8 -11 17 -35 20 -53 4 -19 13 -48 21 -65 22 -51 83 -312 101 -437 34 -229 31 -656 -6 -895 -13 -86 -78 -353 -92 -380 -5 -10 -16 -40 -23 -65 -18 -64 -50 -154 -62 -176 -6 -10 -28 -55 -50 -99 -123 -254 -218 -401 -401 -618 -232 -276 -599 -541 -941 -681 -43 -18 -85 -38 -92 -43 -7 -6 -31 -14 -53 -18 -22 -4 -49 -13 -60 -19 -63 -34 -406 -110 -534 -119 -19 -1 -36 -8 -38 -14 -4 -10 687 -13 3432 -13 2745 0 3436 3 3432 13 -2 7 -23 13 -48 14 -95 4 -246 24 -288 38 -25 8 -52 15 -61 15 -17 0 -183 51 -290 88 -136 48 -366 177 -500 281 -146 113 -389 397 -441 516 -5 11 -13 27 -19 35 -5 8 -14 26 -20 40 -5 14 -14 32 -20 40 -5 8 -14 26 -20 40 -5 14 -14 32 -20 40 -19 31 -130 369 -130 399 0 11 -7 46 -16 78 -8 32 -25 123 -36 203 l-22 145 -3 1664 c-2 935 0 1668 5 1673 13 13 872 10 888 -3 11 -9 14 -323 17 -1612 3 -1438 5 -1612 20 -1697 61 -344 152 -561 319 -755 85 -99 292 -265 330 -265 5 0 22 -8 36 -18 89 -62 420 -132 623 -132 226 0 493 56 644 134 17 9 35 16 41 16 6 0 17 7 24 15 7 9 28 22 46 31 72 34 265 219 322 308 99 157 184 380 224 586 l22 115 5 1643 6 1643 444 -1 c244 0 447 -3 452 -6 5 -3 9 -695 9 -1582 0 -1838 2 -1777 -82 -2162 -32 -146 -102 -341 -174 -485 -75 -150 -68 -139 -159 -275 -76 -114 -281 -329 -370 -390 -113 -76 -162 -108 -205 -133 -71 -42 -180 -93 -245 -116 -33 -12 -69 -26 -80 -31 -30 -13 -179 -56 -275 -79 -79 -19 -233 -40 -324 -44 -22 -1 -41 -8 -43 -14 -4 -10 4423 -13 22111 -13 l22116 0 0 16800 0 16800 -15166 0 c-12128 0 -15165 -3 -15162 -12 2 -7 19 -20 37 -30 18 -9 40 -22 49 -30 9 -8 34 -23 55 -33 21 -11 45 -28 54 -37 9 -10 20 -18 25 -18 9 0 189 -118 288 -188 25 -18 70 -49 100 -69 30 -21 80 -56 110 -79 30 -23 108 -81 174 -130 251 -188 452 -349 607 -486 35 -31 87 -75 114 -98 236 -199 734 -699 1021 -1025 325 -371 649 -794 921 -1205 34 -52 76 -114 93 -137 17 -24 33 -51 37 -60 3 -10 13 -26 21 -36 8 -9 20 -26 26 -37 6 -11 50 -84 97 -162 48 -79 99 -167 114 -196 15 -29 31 -55 36 -57 5 -3 17 -25 29 -48 11 -23 38 -73 60 -112 22 -38 44 -81 50 -95 5 -14 14 -32 19 -40 6 -8 60 -116 121 -240 62 -124 116 -232 121 -240 5 -8 14 -26 20 -40 5 -13 25 -56 43 -95 18 -38 46 -101 61 -140 15 -38 31 -75 35 -80 5 -6 15 -28 23 -50 8 -22 48 -123 89 -225 41 -102 83 -210 93 -240 9 -30 23 -68 30 -85 25 -57 63 -160 70 -190 3 -16 12 -43 20 -60 7 -16 18 -51 25 -78 7 -26 17 -50 21 -53 5 -3 9 -14 9 -24 0 -11 9 -48 20 -82 46 -149 99 -326 109 -368 6 -25 34 -135 61 -245 70 -282 66 -265 121 -533 27 -134 49 -255 49 -271 0 -15 5 -41 10 -58 6 -16 17 -76 25 -134 82 -608 107 -852 125 -1236 13 -285 13 -882 0 -1131 -23 -431 -88 -1035 -140 -1307 -6 -27 -17 -94 -26 -149 -8 -54 -19 -108 -23 -120 -5 -11 -11 -55 -15 -96 -4 -41 -14 -95 -21 -120 -13 -41 -21 -78 -56 -260 -6 -30 -15 -68 -21 -85 -11 -34 -44 -154 -64 -235 -23 -96 -52 -203 -69 -255 -9 -27 -20 -63 -24 -80 -19 -66 -73 -242 -83 -270 -5 -16 -32 -95 -59 -175 -27 -80 -53 -152 -58 -160 -5 -9 -12 -31 -16 -50 -4 -19 -13 -44 -20 -56 -7 -11 -25 -56 -40 -100 -15 -43 -35 -92 -45 -109 -10 -16 -21 -46 -25 -65 -4 -19 -22 -66 -40 -105 -43 -92 -85 -191 -85 -199 0 -8 -35 -82 -148 -316 -43 -91 -83 -177 -87 -190 -4 -14 -18 -41 -30 -60 -12 -19 -59 -107 -104 -195 -45 -88 -93 -178 -105 -200 -12 -22 -35 -62 -51 -90 -15 -27 -52 -90 -82 -138 -29 -49 -53 -91 -53 -95 0 -3 -11 -22 -24 -41 -77 -116 -176 -271 -176 -277 0 -12 -71 -117 -101 -149 -15 -16 -37 -49 -49 -72 -12 -23 -28 -47 -36 -53 -7 -7 -28 -35 -44 -64 -29 -48 -57 -87 -185 -261 -114 -154 -316 -412 -392 -500 -29 -33 -74 -86 -100 -118 -27 -32 -84 -97 -129 -145 -44 -48 -88 -97 -96 -110 -32 -47 -451 -482 -465 -482 -14 0 -291 136 -388 191 -56 32 -92 49 -104 49 -4 0 -16 9 -26 20 -10 11 -26 20 -35 20 -10 0 -28 8 -41 18 -29 20 -42 29 -134 82 -38 23 -83 50 -100 60 -16 11 -43 26 -60 35 -16 8 -49 27 -72 43 -95 62 -195 129 -278 187 -27 19 -63 42 -80 51 -16 9 -41 27 -55 40 -24 22 -93 74 -250 188 -41 29 -84 63 -94 75 l-19 21 69 62 c93 84 585 579 655 659 31 35 74 84 95 109 21 25 68 77 104 116 36 39 92 106 125 148 33 43 83 107 112 144 29 37 78 100 110 141 32 41 65 84 73 97 8 12 51 72 95 134 44 62 85 120 91 131 6 10 19 28 29 39 19 21 37 50 54 85 5 12 16 27 24 34 9 7 25 30 36 52 12 22 41 70 64 107 61 94 108 170 126 203 93 166 117 208 138 236 12 17 23 37 23 43 0 7 9 23 20 37 11 14 20 34 20 44 0 10 4 20 9 23 5 3 50 90 101 193 50 104 96 195 101 203 5 8 16 31 25 50 8 19 24 55 36 80 37 84 47 105 72 165 14 33 34 78 45 100 12 21 21 48 21 60 0 11 7 29 15 39 8 11 15 30 15 42 0 12 7 27 15 34 8 7 20 31 26 54 7 22 26 79 44 126 18 47 43 117 55 155 12 39 28 86 35 105 33 86 115 353 115 373 0 12 7 31 15 41 8 11 15 32 15 48 0 15 9 51 19 80 11 29 24 79 30 111 6 31 15 66 20 76 6 10 14 45 17 77 4 33 13 68 20 79 7 11 16 45 19 75 4 30 13 75 20 100 16 50 36 192 30 199 -3 2 0 10 7 18 13 16 42 196 62 383 8 69 19 136 24 150 16 38 54 452 73 785 13 238 7 786 -10 1030 -16 219 -51 534 -66 605 -8 36 -17 97 -20 135 -4 39 -13 97 -20 130 -8 33 -19 98 -24 145 -6 47 -24 150 -42 230 -17 80 -34 165 -38 190 -5 25 -16 74 -25 110 -10 36 -26 101 -37 145 -11 44 -28 108 -39 142 -11 34 -20 71 -20 82 0 19 -62 220 -98 321 -9 25 -22 63 -28 85 -6 22 -17 56 -24 75 -17 49 -41 116 -89 255 -23 66 -51 138 -61 160 -10 22 -29 67 -40 100 -21 56 -31 81 -81 190 -10 22 -35 78 -55 125 -48 112 -93 211 -105 230 -5 8 -14 26 -19 40 -6 14 -15 32 -20 40 -6 8 -15 26 -20 40 -6 14 -15 32 -20 40 -6 8 -15 26 -20 40 -6 14 -14 32 -20 40 -5 8 -25 47 -45 85 -20 39 -56 104 -80 145 -25 41 -52 89 -60 105 -9 17 -27 48 -40 70 -13 22 -33 58 -45 80 -12 22 -33 54 -46 72 -13 17 -24 35 -24 40 0 5 -21 40 -48 80 -26 39 -76 115 -110 169 -35 55 -83 126 -107 159 -24 33 -52 74 -61 90 -9 17 -39 59 -66 95 -27 36 -88 117 -136 180 -349 463 -845 998 -1271 1368 -80 70 -183 160 -229 201 l-85 74 -33 -18 c-19 -10 -56 -39 -82 -64 -27 -25 -70 -64 -98 -86 -227 -185 -856 -817 -1069 -1075 -33 -40 -80 -96 -105 -125 -25 -29 -61 -75 -80 -102 -19 -26 -53 -68 -75 -93 -23 -25 -54 -65 -70 -90 -16 -25 -41 -58 -55 -75 -28 -31 -180 -252 -331 -480 -105 -158 -349 -563 -349 -579 0 -7 -4 -16 -9 -21 -29 -30 -285 -543 -380 -761 -17 -39 -31 -74 -31 -78 0 -4 -14 -38 -31 -74 -59 -126 -69 -149 -69 -166 0 -9 -6 -27 -14 -39 -8 -12 -29 -63 -45 -113 -17 -50 -38 -104 -46 -120 -8 -16 -15 -37 -15 -47 0 -10 -5 -28 -11 -40 -7 -11 -18 -42 -25 -67 -17 -58 -42 -135 -59 -180 -27 -70 -75 -230 -75 -249 0 -11 -6 -32 -14 -48 -8 -15 -19 -50 -25 -78 -15 -76 -40 -175 -56 -226 -8 -26 -18 -69 -21 -95 -4 -27 -12 -60 -19 -74 -7 -14 -16 -56 -20 -95 -4 -38 -12 -78 -17 -89 -6 -10 -16 -57 -23 -105 -8 -47 -20 -108 -28 -136 -13 -45 -18 -51 -48 -56 -19 -4 -47 -12 -64 -18 -16 -7 -124 -43 -240 -81 -115 -38 -241 -81 -280 -95 -38 -15 -87 -31 -108 -36 -22 -5 -55 -18 -75 -29 -51 -26 -138 -60 -155 -60 -8 0 -25 -8 -38 -19 -13 -10 -35 -21 -49 -24 -50 -11 -145 -49 -161 -63 -8 -8 -21 -14 -28 -14 -7 0 -25 -7 -39 -14 -15 -8 -76 -36 -137 -61 -118 -49 -142 -60 -165 -74 -8 -5 -26 -14 -40 -20 -14 -6 -32 -15 -40 -19 -8 -5 -31 -16 -50 -24 -19 -8 -73 -33 -120 -55 -166 -80 -228 -105 -239 -98 -7 4 -9 20 -6 38 3 18 10 97 15 177 6 80 17 197 25 260 8 63 16 138 19 165 5 58 39 299 56 395 6 36 15 94 20 130 6 36 32 173 60 305 28 132 55 263 60 290 11 65 126 517 145 575 8 25 31 99 50 165 18 66 68 221 110 345 42 124 82 243 89 266 6 23 16 47 23 55 6 8 15 28 18 44 4 17 16 50 25 75 37 93 101 253 140 348 22 53 40 102 40 108 0 6 6 17 14 23 8 7 18 27 21 44 4 18 13 39 20 47 7 8 22 38 33 65 63 159 284 603 382 765 5 8 11 22 15 30 3 8 17 33 30 55 13 22 31 56 40 75 9 19 22 41 30 50 7 8 25 38 40 65 14 28 39 70 55 95 16 25 50 81 76 125 46 80 324 497 432 651 31 44 104 142 162 218 58 76 130 170 160 210 95 125 253 313 485 575 167 190 665 686 875 872 187 166 499 426 592 494 15 11 91 68 170 127 79 59 172 129 208 155 69 52 328 227 410 279 27 17 58 38 68 47 10 9 22 17 26 17 3 0 25 12 49 27 115 73 147 94 147 99 0 2 -6937 4 -15415 4 l-15415 0 0 -16800z m31550 8694 c52 -3 109 -9 125 -15 17 -5 102 -14 190 -19 88 -5 178 -12 200 -15 22 -2 108 -10 190 -17 83 -7 159 -18 170 -25 12 -6 66 -15 120 -19 55 -4 109 -13 120 -20 11 -7 65 -16 120 -20 55 -4 109 -13 120 -19 11 -7 58 -16 105 -20 47 -4 103 -13 125 -21 22 -8 65 -17 94 -21 30 -3 66 -12 80 -20 15 -7 37 -13 51 -13 14 0 53 -7 85 -16 33 -9 89 -22 125 -30 36 -7 90 -19 120 -27 30 -8 73 -18 95 -23 l39 -9 12 -81 c6 -45 14 -85 16 -90 3 -5 9 -69 13 -142 3 -73 11 -147 16 -165 32 -106 37 -1162 7 -1557 l-3 -35 -49 3 c-27 2 -58 9 -70 17 -11 7 -39 17 -61 21 -22 4 -49 13 -60 20 -11 7 -40 16 -65 20 -25 4 -50 10 -56 15 -6 5 -35 14 -65 20 -30 6 -65 17 -79 24 -14 7 -48 16 -75 20 -28 4 -64 13 -82 21 -18 7 -54 16 -80 20 -26 4 -61 13 -78 19 -16 7 -50 16 -75 19 -25 4 -67 13 -95 21 -58 16 -173 39 -295 59 -47 8 -96 18 -110 24 -14 5 -62 13 -105 17 -44 4 -109 13 -145 20 -36 8 -114 19 -175 25 -60 6 -123 15 -140 20 -16 5 -115 14 -220 20 -104 6 -203 15 -220 20 -16 5 -199 14 -405 19 -550 15 -954 -6 -1475 -75 -177 -23 -220 -30 -357 -53 -67 -11 -248 -47 -313 -61 -27 -6 -72 -15 -100 -20 -27 -5 -158 -36 -290 -70 -132 -35 -252 -65 -268 -67 -15 -3 -30 -9 -33 -14 -3 -5 -14 -9 -24 -9 -11 0 -39 -6 -62 -14 -24 -7 -110 -35 -193 -61 -82 -26 -161 -53 -175 -60 -14 -7 -45 -19 -70 -28 -25 -8 -61 -21 -80 -28 -44 -15 -125 -47 -165 -64 -16 -8 -46 -17 -65 -20 -19 -4 -51 -15 -70 -26 -45 -23 -118 -55 -150 -64 -33 -10 -111 -43 -130 -55 -8 -6 -22 -13 -30 -16 -87 -35 -575 -277 -705 -349 -44 -25 -87 -48 -95 -52 -12 -5 -78 -43 -160 -93 -46 -27 -277 -169 -310 -190 -21 -14 -105 -70 -186 -125 -80 -55 -170 -116 -199 -135 -29 -20 -68 -48 -86 -64 -19 -15 -91 -69 -160 -120 -135 -98 -346 -270 -523 -425 -276 -241 -884 -875 -1056 -1101 -19 -25 -55 -70 -81 -100 -237 -280 -689 -959 -895 -1344 -63 -118 -243 -477 -296 -592 -20 -43 -55 -118 -77 -166 -23 -48 -41 -90 -41 -94 0 -4 -11 -32 -24 -63 -38 -88 -86 -208 -121 -306 -18 -49 -45 -121 -59 -160 -39 -104 -90 -258 -141 -430 -15 -49 -35 -115 -45 -145 -35 -109 -180 -722 -180 -761 0 -12 -7 -49 -16 -83 -16 -60 -24 -111 -63 -396 -11 -80 -25 -172 -31 -205 -5 -33 -10 -81 -10 -106 l0 -46 78 -28 c42 -15 91 -33 107 -40 17 -7 48 -18 70 -25 22 -7 45 -16 50 -21 6 -4 33 -13 60 -20 28 -6 55 -15 60 -20 6 -4 33 -13 60 -20 27 -7 61 -18 75 -26 14 -7 34 -13 45 -13 11 0 38 -9 60 -20 22 -11 53 -19 68 -20 16 0 37 -5 48 -10 23 -13 179 -60 234 -71 22 -4 92 -22 155 -39 63 -18 135 -36 160 -40 25 -5 110 -23 190 -40 214 -46 344 -70 450 -85 699 -97 845 -108 1425 -108 257 0 509 4 570 10 61 6 184 14 274 18 90 3 171 10 180 14 9 5 52 12 96 15 145 11 190 17 225 27 19 5 87 16 150 24 141 18 334 50 377 63 18 6 63 13 100 17 37 4 79 13 93 20 14 7 48 15 76 18 28 3 66 12 85 20 19 8 61 20 94 25 71 12 122 25 226 58 42 13 85 24 95 24 11 0 31 6 45 14 14 7 46 16 71 20 25 4 54 13 64 21 11 8 27 15 36 15 21 0 319 99 333 110 6 4 29 11 52 15 22 3 49 13 60 20 10 8 26 15 35 15 16 0 83 28 161 66 16 8 35 14 43 14 7 0 40 12 71 26 32 15 72 33 88 40 17 7 51 19 76 25 l46 12 89 -78 c49 -44 102 -90 118 -104 16 -15 61 -55 101 -91 98 -89 183 -161 309 -260 17 -13 64 -52 105 -85 86 -70 201 -157 286 -216 33 -23 71 -52 85 -64 14 -13 57 -44 95 -71 213 -144 293 -199 315 -219 14 -11 36 -26 50 -32 33 -14 151 -110 148 -120 -4 -13 -67 -53 -83 -53 -8 0 -17 -5 -20 -10 -8 -14 -520 -270 -539 -270 -7 0 -24 -8 -37 -19 -13 -10 -38 -22 -56 -25 -17 -4 -37 -14 -44 -22 -6 -8 -18 -14 -26 -14 -8 0 -33 -11 -56 -24 -23 -14 -71 -34 -107 -46 -36 -12 -70 -26 -75 -30 -6 -5 -49 -23 -95 -40 -47 -17 -98 -37 -115 -44 -100 -45 -127 -56 -143 -56 -10 0 -28 -7 -40 -16 -27 -18 -791 -274 -821 -274 -11 0 -38 -6 -58 -14 -90 -32 -172 -56 -194 -56 -14 0 -47 -8 -75 -19 -28 -10 -69 -21 -90 -25 -21 -4 -61 -13 -89 -21 -70 -19 -189 -45 -500 -111 -44 -9 -102 -20 -130 -25 -27 -4 -77 -13 -110 -19 -58 -11 -122 -20 -360 -54 -559 -78 -1002 -109 -1585 -109 -471 0 -753 14 -1240 63 -114 11 -452 55 -540 69 -80 14 -188 31 -245 41 -208 34 -857 183 -1090 250 -16 5 -61 18 -100 29 -38 11 -83 24 -100 30 -34 11 -108 35 -175 56 -162 50 -581 199 -690 245 -41 17 -86 35 -100 40 -14 4 -63 24 -110 44 -46 20 -90 36 -96 36 -6 0 -17 6 -23 14 -7 8 -27 18 -44 22 -18 3 -43 15 -56 25 -13 11 -29 19 -36 19 -15 0 -252 105 -295 131 -8 5 -26 14 -40 19 -14 6 -32 15 -40 20 -8 6 -26 15 -40 20 -14 6 -32 15 -40 20 -8 6 -26 15 -40 20 -14 6 -32 15 -40 20 -8 6 -26 15 -40 20 -14 6 -32 14 -40 19 -8 5 -44 25 -80 43 -36 18 -84 45 -107 61 l-43 28 0 197 c1 257 16 666 35 917 33 449 113 1028 186 1355 10 47 19 96 19 110 0 14 9 57 20 95 11 39 20 82 20 97 0 15 9 51 20 80 11 29 20 63 20 76 0 21 12 69 60 242 10 36 25 92 33 125 8 33 29 107 46 165 18 58 39 128 47 155 15 52 129 396 165 499 11 33 27 69 35 80 8 11 14 29 14 39 0 10 9 39 19 65 10 26 37 93 60 150 23 56 59 146 81 200 22 53 40 102 40 108 0 6 6 17 14 23 8 7 18 27 22 44 3 18 15 43 25 56 11 13 19 29 19 36 0 16 124 289 171 375 4 8 43 85 87 170 84 164 150 285 182 335 22 33 24 38 40 75 6 14 21 43 35 65 13 22 33 56 45 75 11 19 29 49 40 65 11 17 24 40 29 51 5 12 36 62 68 112 58 91 101 158 138 218 37 61 80 124 138 204 31 43 57 82 57 85 0 3 26 40 57 83 31 42 78 106 104 142 497 678 1037 1271 1665 1826 138 122 425 361 546 452 23 18 72 56 108 83 36 27 76 57 90 66 14 10 52 38 85 63 80 61 649 445 685 463 8 4 35 21 60 37 25 16 68 41 95 55 28 15 57 32 65 39 16 13 111 69 214 124 33 18 99 55 146 81 106 61 601 309 695 349 93 40 117 50 135 60 39 22 117 56 313 133 26 11 68 28 95 38 26 11 85 34 132 51 47 17 101 39 120 48 19 9 53 21 75 28 22 7 159 52 305 102 146 49 280 93 298 97 19 4 66 18 105 32 78 27 140 44 259 74 43 11 114 29 158 40 156 39 246 60 300 70 30 6 84 17 120 25 36 8 101 19 145 25 44 6 102 17 129 25 26 8 62 14 80 14 17 0 67 9 111 19 44 10 118 22 165 26 46 4 93 11 104 17 10 6 44 12 75 14 213 12 278 17 293 25 9 5 85 13 170 19 84 6 175 15 202 21 98 23 1234 32 1566 13z m5569 -1867 c238 -158 271 -181 362 -242 25 -16 65 -46 89 -66 25 -20 63 -50 86 -65 117 -83 326 -248 474 -374 49 -41 121 -102 161 -135 76 -62 86 -71 309 -276 270 -248 700 -695 915 -952 340 -406 570 -712 805 -1067 38 -58 78 -118 90 -135 42 -60 150 -230 150 -238 0 -4 25 -46 56 -93 30 -47 59 -95 65 -107 5 -12 18 -35 29 -52 11 -16 33 -55 50 -85 17 -30 46 -82 65 -115 19 -33 39 -71 45 -85 5 -14 15 -32 20 -40 6 -8 17 -28 25 -45 9 -16 19 -37 24 -45 10 -16 254 -515 265 -540 3 -8 10 -22 14 -30 27 -48 47 -94 74 -165 16 -43 34 -85 39 -91 5 -7 14 -25 19 -41 5 -15 23 -62 40 -103 18 -41 36 -86 40 -100 5 -14 24 -62 44 -108 19 -46 47 -120 62 -164 14 -44 33 -92 40 -107 8 -14 14 -35 14 -45 0 -10 9 -37 19 -60 22 -46 38 -95 82 -246 17 -58 35 -109 39 -115 4 -5 11 -26 15 -45 4 -19 15 -59 25 -90 9 -30 27 -91 39 -135 12 -44 30 -109 41 -145 27 -97 51 -190 60 -235 4 -22 14 -67 23 -100 34 -138 77 -338 102 -475 7 -41 18 -100 24 -130 15 -76 41 -232 51 -310 77 -576 106 -920 121 -1420 6 -226 8 -420 3 -469 -10 -90 -16 -99 -94 -131 -14 -5 -32 -15 -40 -20 -8 -6 -26 -15 -40 -20 -14 -6 -32 -14 -40 -20 -8 -5 -29 -16 -46 -24 -17 -8 -35 -19 -38 -25 -4 -6 -15 -11 -25 -11 -10 0 -30 -9 -44 -20 -14 -11 -32 -20 -40 -20 -8 0 -26 -9 -40 -20 -14 -11 -32 -20 -40 -20 -8 0 -25 -8 -38 -19 -13 -10 -38 -22 -56 -25 -17 -4 -37 -13 -43 -21 -6 -8 -24 -17 -40 -20 -16 -3 -34 -13 -41 -21 -6 -8 -19 -14 -28 -14 -9 0 -25 -6 -36 -14 -19 -13 -127 -58 -172 -70 -11 -4 -27 -13 -33 -21 -7 -8 -22 -15 -34 -15 -12 0 -32 -8 -46 -17 -13 -9 -62 -30 -109 -46 -47 -16 -92 -34 -98 -39 -7 -6 -52 -24 -100 -40 -49 -17 -92 -34 -98 -38 -5 -4 -28 -13 -50 -20 -22 -7 -53 -18 -70 -25 -16 -8 -140 -50 -275 -94 -248 -81 -274 -89 -435 -136 -49 -15 -101 -30 -115 -35 -14 -5 -50 -14 -80 -21 -30 -6 -80 -20 -111 -30 -30 -11 -66 -19 -80 -19 -13 0 -49 -9 -79 -20 -30 -11 -65 -20 -78 -20 -13 0 -44 -6 -70 -14 -26 -8 -83 -21 -127 -30 -44 -9 -96 -21 -115 -26 -19 -4 -64 -13 -100 -20 -36 -6 -126 -22 -200 -37 -143 -27 -190 -34 -553 -82 -517 -69 -910 -93 -1487 -93 -635 0 -1090 35 -1795 137 -174 25 -697 128 -764 150 -25 8 -55 15 -68 15 -13 0 -52 8 -86 19 -78 23 -179 50 -234 61 -23 5 -63 16 -90 24 -26 8 -88 27 -138 41 -49 14 -112 33 -140 41 -85 25 -538 175 -570 189 -16 7 -48 18 -70 25 -22 7 -44 16 -50 20 -5 3 -46 19 -90 35 -44 15 -91 34 -105 42 -14 7 -63 26 -109 42 -46 16 -88 34 -94 40 -6 6 -15 11 -20 11 -9 0 -186 74 -262 110 -22 10 -47 21 -55 24 -8 3 -22 10 -30 15 -8 5 -96 48 -195 96 -99 48 -187 91 -195 96 -17 9 -127 63 -150 73 -8 4 -33 18 -55 31 -22 14 -51 29 -65 35 -14 5 -32 14 -40 20 -8 5 -28 16 -45 25 -16 8 -48 26 -70 40 -22 13 -47 28 -55 32 -8 3 -52 29 -98 57 -135 83 -155 95 -197 118 -22 12 -47 27 -55 33 -9 5 -31 19 -49 30 -18 11 -114 74 -213 140 -99 66 -197 131 -218 145 -88 58 -225 156 -423 307 -45 34 -102 77 -126 95 -67 51 -302 245 -421 348 -30 26 -80 69 -110 95 -30 26 -109 99 -175 161 -66 62 -138 126 -160 142 -40 30 -259 252 -412 418 -45 49 -120 130 -166 179 -76 83 -103 114 -202 230 -19 22 -54 63 -78 90 -77 90 -316 392 -364 462 -25 37 -57 80 -70 94 -50 55 -327 457 -439 637 -21 35 -57 92 -80 126 -22 34 -43 69 -47 77 -4 8 -19 35 -35 60 -22 38 -64 108 -112 189 -5 8 -11 22 -14 30 -4 8 -20 35 -36 60 -16 25 -45 77 -65 115 -20 39 -55 106 -80 150 -24 44 -47 87 -50 95 -13 30 -25 55 -34 70 -5 8 -14 26 -20 40 -6 14 -15 32 -20 40 -11 19 -117 239 -165 343 -19 42 -40 95 -46 116 -5 21 -17 44 -25 51 -8 7 -15 20 -15 29 0 9 -7 27 -16 39 -9 13 -29 61 -45 108 -16 46 -35 94 -43 106 -8 13 -26 58 -40 100 -14 42 -32 89 -40 105 -22 42 -56 130 -56 143 0 7 -6 26 -14 43 -14 32 -35 93 -61 177 -23 74 -46 143 -60 180 -21 54 -45 131 -56 175 -5 22 -19 64 -29 93 -11 29 -20 65 -20 80 0 16 -7 37 -15 48 -8 10 -15 29 -15 40 0 12 -7 41 -16 65 -8 24 -21 73 -28 109 -8 36 -19 79 -24 95 -15 40 -39 142 -57 238 -9 43 -22 93 -29 112 l-14 33 31 30 c18 17 53 43 78 59 75 46 142 90 169 111 14 10 41 27 60 38 19 10 45 28 58 39 13 11 43 31 67 45 23 14 80 48 126 75 46 28 91 54 99 58 8 4 35 21 60 37 49 32 63 40 220 122 126 65 150 78 170 90 8 4 26 13 40 19 14 6 32 15 40 20 8 5 26 14 40 20 14 6 32 15 40 20 8 5 26 14 40 20 14 7 75 36 136 65 62 30 117 54 123 54 6 0 34 11 61 25 27 14 56 25 63 25 8 0 26 9 40 20 43 34 90 19 85 -26 -4 -33 13 -158 27 -199 7 -22 16 -70 19 -107 3 -37 12 -80 19 -95 8 -15 18 -62 22 -103 4 -41 13 -86 20 -100 7 -14 16 -50 20 -80 4 -30 11 -63 16 -72 5 -10 16 -48 24 -85 21 -101 52 -220 62 -235 4 -7 9 -22 9 -33 1 -11 9 -45 18 -75 10 -30 23 -79 31 -108 7 -29 18 -58 23 -65 5 -7 13 -30 16 -52 4 -22 13 -49 20 -60 7 -11 16 -38 20 -60 4 -22 13 -49 20 -60 7 -11 16 -38 20 -60 4 -22 16 -54 27 -71 10 -17 19 -39 19 -49 0 -9 6 -31 14 -48 38 -85 56 -131 56 -145 0 -8 18 -52 40 -98 22 -46 40 -88 40 -94 0 -10 9 -30 82 -190 21 -47 48 -105 59 -130 80 -179 298 -599 395 -763 16 -27 34 -56 39 -65 126 -215 350 -557 475 -727 33 -44 67 -91 77 -105 10 -14 38 -51 63 -83 97 -125 110 -143 127 -167 9 -14 35 -46 58 -71 22 -25 65 -76 95 -114 30 -37 84 -100 120 -140 36 -39 124 -136 195 -215 176 -195 526 -539 620 -611 19 -14 70 -59 115 -100 44 -41 105 -94 136 -119 30 -25 90 -74 132 -110 75 -63 110 -91 271 -212 101 -76 341 -245 402 -284 27 -17 57 -38 67 -47 10 -9 23 -17 29 -17 5 0 18 -9 28 -20 10 -11 23 -20 29 -20 6 0 40 -20 76 -45 36 -25 69 -45 73 -45 5 0 23 -11 40 -24 31 -23 87 -57 152 -91 17 -9 47 -26 67 -38 157 -93 248 -141 498 -265 274 -135 395 -192 406 -192 3 0 38 -15 77 -34 40 -19 104 -46 142 -61 39 -14 84 -32 100 -39 17 -7 57 -23 90 -36 33 -12 72 -28 87 -35 15 -8 146 -53 290 -100 145 -48 281 -93 303 -100 22 -8 58 -17 80 -21 22 -4 54 -13 70 -20 17 -6 134 -37 260 -68 127 -31 244 -60 261 -66 17 -5 44 -10 60 -10 16 -1 56 -8 89 -16 33 -9 88 -20 123 -25 35 -4 67 -11 72 -14 5 -3 56 -12 112 -20 57 -8 128 -19 158 -25 30 -6 98 -15 150 -20 53 -4 123 -13 155 -19 33 -5 117 -15 188 -21 70 -5 184 -16 255 -22 83 -8 309 -13 657 -12 574 0 773 12 1196 69 101 14 198 27 214 29 34 5 130 20 220 36 33 5 87 14 120 20 33 5 78 14 100 19 22 6 96 22 165 36 69 15 145 32 170 40 25 7 65 18 90 23 69 15 168 40 240 62 36 10 99 29 140 40 136 38 564 181 602 201 20 10 43 19 50 19 7 1 31 9 53 20 22 11 45 19 52 20 6 0 19 7 27 16 13 13 15 29 10 82 -4 37 -10 74 -15 83 -5 9 -13 81 -20 160 -6 79 -16 153 -23 164 -7 11 -16 57 -20 102 -3 45 -12 99 -20 120 -7 21 -16 63 -20 93 -3 30 -13 84 -21 120 -33 148 -63 275 -105 443 -11 45 -27 109 -35 142 -8 33 -28 100 -45 149 -16 49 -30 96 -30 105 -1 9 -8 34 -16 56 -9 22 -22 63 -29 90 -7 28 -25 82 -40 120 -15 39 -33 92 -40 119 -8 27 -19 54 -24 59 -6 6 -11 18 -11 26 0 9 -11 43 -24 76 -13 33 -34 87 -46 120 -12 33 -30 78 -41 100 -10 22 -30 69 -45 105 -67 167 -96 234 -109 253 -8 12 -15 27 -15 33 0 18 -234 492 -266 539 -15 22 -40 67 -56 100 -15 33 -39 78 -53 100 -13 22 -27 47 -30 55 -7 17 -8 18 -65 110 -22 36 -45 73 -50 83 -149 265 -646 958 -859 1197 -37 41 -77 89 -90 105 -70 93 -700 735 -821 836 -103 87 -134 114 -200 174 -37 33 -88 76 -114 95 -57 42 -151 120 -213 175 l-45 41 11 71 c6 40 11 90 11 113 0 22 6 51 14 63 9 13 18 64 22 122 4 55 13 109 19 120 11 17 20 101 30 265 2 19 7 46 13 60 6 14 16 101 22 193 6 93 15 180 20 193 5 13 14 160 20 327 6 166 16 312 21 325 5 13 9 101 9 196 0 95 2 175 6 178 6 7 32 -9 343 -215z m-11544 -18722 l0 -420 -827 -3 -828 -2 -2 -2193 -3 -2192 -455 0 -455 0 -5 2190 -5 2190 -830 5 -830 5 -3 414 c-1 243 2 418 7 425 7 8 574 10 2123 6 l2113 -5 0 -420z m6830 -2195 l0 -2615 -450 0 -450 0 -3 1084 c-2 992 -4 1086 -19 1103 l-16 18 -1227 0 -1227 0 -16 -18 c-15 -17 -17 -111 -19 -1103 l-3 -1084 -450 0 -450 0 0 2615 0 2615 450 0 450 0 5 -1080 c3 -594 9 -1086 13 -1092 6 -10 265 -13 1239 -13 1132 0 1233 1 1250 17 l18 16 0 1077 c0 592 2 1079 4 1081 2 2 206 2 453 -1 l448 -5 0 -2615z m6779 2618 c14 -47 491 -1493 506 -1533 10 -27 21 -63 25 -80 4 -16 13 -43 20 -60 7 -16 16 -43 20 -60 4 -16 13 -43 20 -60 7 -16 16 -43 20 -60 4 -16 12 -43 19 -60 7 -16 37 -104 66 -195 29 -91 56 -169 60 -175 4 -5 10 -23 13 -40 3 -16 11 -43 18 -60 12 -29 39 -119 60 -200 5 -21 14 -44 18 -50 4 -5 14 -32 20 -60 7 -27 16 -54 20 -60 5 -5 14 -32 20 -60 7 -27 16 -54 20 -60 5 -5 14 -32 20 -60 7 -27 16 -54 20 -60 5 -5 14 -32 20 -60 7 -27 16 -54 20 -60 5 -5 14 -32 20 -60 7 -27 16 -54 20 -60 5 -5 14 -32 20 -60 7 -27 16 -54 20 -60 5 -5 14 -32 20 -60 7 -27 16 -54 20 -60 5 -5 11 -23 15 -40 4 -16 24 -86 46 -155 22 -69 42 -137 45 -152 4 -19 12 -28 24 -28 15 0 25 17 44 68 31 83 135 396 172 517 15 50 33 104 41 122 8 17 14 35 14 40 0 12 32 119 80 263 107 327 240 739 246 765 4 17 10 35 15 40 4 6 13 33 20 60 7 27 18 61 26 75 7 14 13 33 13 43 0 16 35 127 200 627 43 129 81 251 85 270 4 19 11 40 15 45 5 6 14 33 21 60 6 28 15 55 20 60 4 6 15 39 24 74 9 35 29 102 45 150 15 47 61 187 101 311 39 124 80 233 89 243 15 17 47 18 470 17 275 0 458 -4 464 -10 11 -11 0 -61 -32 -150 -33 -91 -211 -607 -253 -733 -22 -65 -44 -126 -49 -135 -5 -9 -28 -71 -49 -137 -22 -66 -81 -239 -131 -385 -51 -146 -109 -318 -131 -383 -22 -65 -44 -126 -49 -135 -5 -9 -28 -71 -49 -137 -22 -66 -81 -239 -131 -385 -51 -146 -109 -318 -131 -383 -22 -65 -44 -126 -49 -135 -5 -9 -28 -71 -49 -137 -22 -66 -81 -239 -131 -385 -51 -146 -109 -318 -131 -383 -22 -65 -44 -126 -49 -135 -6 -9 -25 -64 -44 -122 -19 -58 -80 -238 -136 -400 -56 -162 -108 -313 -114 -335 -7 -22 -18 -53 -24 -68 -7 -15 -15 -40 -18 -55 -4 -15 -13 -38 -22 -52 -9 -14 -18 -41 -22 -60 l-5 -35 -394 -3 c-263 -1 -398 1 -406 8 -7 6 -15 23 -18 38 -6 31 -123 379 -136 402 -5 9 -12 31 -16 50 -4 19 -13 49 -20 65 -28 63 -65 162 -65 174 0 7 -8 33 -18 59 -22 56 -48 131 -66 192 -8 25 -78 232 -156 460 -78 228 -148 435 -156 460 -8 25 -18 54 -24 65 -5 11 -14 40 -21 65 -6 25 -14 50 -19 55 -4 6 -11 26 -15 45 -4 19 -16 50 -26 68 -10 18 -19 40 -19 48 0 9 -8 36 -18 62 -22 56 -48 131 -66 192 -24 77 -285 844 -295 865 -6 11 -15 40 -22 65 -6 25 -14 50 -19 55 -4 6 -11 26 -15 45 -4 19 -16 54 -26 77 -11 23 -19 50 -19 60 -1 62 -33 84 -51 36 -5 -16 -16 -41 -24 -58 -14 -31 -37 -98 -59 -175 -7 -25 -18 -54 -24 -65 -7 -11 -39 -101 -71 -200 -33 -99 -119 -353 -191 -565 -72 -212 -158 -465 -191 -563 -33 -98 -64 -186 -69 -195 -9 -15 -171 -495 -326 -962 -31 -91 -59 -174 -65 -185 -12 -26 -86 -246 -104 -308 -7 -26 -18 -53 -23 -60 -6 -7 -17 -37 -26 -67 -8 -30 -34 -111 -58 -180 l-43 -125 -389 -3 c-257 -1 -393 1 -401 8 -7 6 -23 43 -35 83 -13 39 -26 77 -30 82 -4 6 -13 33 -19 60 -7 28 -18 57 -25 65 -8 8 -17 33 -21 55 -4 22 -12 49 -18 60 -6 11 -17 38 -23 60 -7 22 -58 173 -114 335 -56 162 -109 318 -117 345 -9 28 -19 55 -23 60 -4 6 -13 34 -20 63 -6 28 -16 54 -21 57 -5 3 -13 24 -19 47 -6 22 -16 52 -22 67 -6 14 -17 44 -24 66 -6 22 -58 173 -114 335 -56 162 -109 318 -117 345 -9 28 -19 55 -23 60 -4 6 -13 34 -20 63 -6 28 -16 54 -21 57 -5 3 -13 24 -19 47 -6 22 -16 52 -22 67 -6 14 -17 44 -24 66 -6 22 -58 173 -114 335 -56 162 -109 318 -117 345 -9 28 -19 55 -23 60 -4 6 -13 34 -20 63 -6 28 -16 54 -21 57 -5 3 -13 24 -19 47 -6 22 -16 52 -22 67 -6 14 -17 44 -24 66 -6 22 -58 173 -114 335 -56 162 -109 318 -117 345 -9 28 -19 55 -23 60 -4 6 -13 34 -20 63 -6 28 -16 54 -21 57 -5 3 -13 24 -19 47 -6 22 -16 52 -22 67 -6 14 -17 44 -24 66 -7 22 -57 173 -113 335 -55 162 -97 298 -93 302 5 5 228 7 497 6 l490 -3 6 -45 c4 -25 14 -58 23 -75 9 -16 16 -39 16 -50 0 -11 6 -32 14 -46 7 -14 16 -39 20 -55 9 -36 201 -631 226 -699 10 -27 23 -71 30 -98 7 -26 17 -50 21 -53 5 -3 9 -14 9 -24 0 -19 30 -121 55 -190 7 -19 24 -71 38 -115 60 -190 200 -623 212 -655 7 -19 19 -56 26 -83 6 -26 16 -50 20 -53 5 -3 9 -14 9 -25 0 -17 22 -92 51 -174 6 -16 18 -55 26 -85 8 -30 18 -59 23 -65 4 -5 11 -25 15 -43 4 -19 51 -167 104 -330 54 -164 101 -310 105 -327 4 -16 13 -43 20 -60 18 -42 56 -167 56 -185 1 -8 9 -33 20 -55 11 -22 20 -49 20 -60 0 -11 9 -38 19 -60 10 -23 21 -62 25 -88 8 -55 35 -64 56 -19 13 29 659 1969 705 2117 15 50 33 104 40 120 7 17 16 46 20 65 4 19 11 40 15 45 5 6 14 33 21 60 6 28 15 55 20 60 4 6 13 33 20 60 6 28 15 55 20 60 4 6 13 33 20 60 6 28 15 55 20 60 4 6 13 33 20 60 6 28 15 55 20 60 4 6 13 33 20 60 6 28 15 55 20 60 4 6 13 33 20 60 7 27 18 61 26 75 7 14 13 36 13 48 0 13 6 38 14 55 7 18 55 160 106 317 51 157 99 295 107 308 l13 22 386 0 c299 0 385 -3 388 -12z m10684 -10 c16 -14 166 -201 242 -303 25 -33 72 -94 105 -135 33 -41 69 -87 80 -101 11 -15 47 -62 79 -105 33 -44 104 -135 158 -204 53 -69 112 -145 130 -169 34 -44 158 -203 200 -254 13 -16 32 -41 43 -57 11 -15 88 -115 170 -220 83 -106 161 -208 175 -226 14 -18 44 -57 67 -86 59 -76 109 -140 189 -244 38 -50 114 -148 169 -218 55 -71 109 -141 120 -156 11 -16 31 -42 45 -59 27 -34 48 -60 160 -205 41 -54 122 -156 178 -229 57 -73 120 -154 140 -182 20 -27 66 -87 102 -131 36 -45 103 -132 150 -193 47 -61 91 -111 98 -111 9 0 12 364 12 1789 0 1499 2 1790 14 1800 9 8 135 10 447 9 l434 -3 0 -2615 0 -2615 -382 -3 -381 -2 -49 59 c-26 32 -64 80 -83 105 -19 26 -51 67 -70 90 -19 24 -66 85 -105 136 -38 51 -128 168 -200 259 -71 91 -138 177 -147 191 -10 14 -59 77 -108 140 -50 63 -122 156 -160 205 -38 50 -101 131 -140 180 -40 50 -86 110 -103 134 -18 24 -63 84 -102 132 -38 48 -86 108 -105 134 -19 25 -51 66 -70 89 -19 24 -66 85 -105 136 -38 51 -128 168 -200 260 -71 91 -139 178 -150 192 -11 15 -60 79 -110 143 -49 64 -117 151 -150 194 -33 43 -95 123 -138 177 -43 55 -117 150 -165 212 -140 182 -193 250 -286 367 -30 39 -68 91 -83 117 -27 46 -49 65 -62 52 -3 -3 -8 -837 -11 -1852 l-5 -1847 -440 0 -440 0 -3 2610 c-1 1436 0 2615 2 2620 6 16 824 9 844 -7z m-3773 -2608 l0 -2615 -450 0 -450 0 -3 2605 c-1 1433 0 2611 3 2618 3 10 99 12 452 10 l448 -3 0 -2615z m12660 2601 c106 -11 241 -34 340 -58 33 -8 80 -18 105 -22 25 -5 122 -34 215 -65 254 -85 579 -252 753 -386 121 -93 169 -134 260 -224 161 -156 245 -262 387 -484 26 -40 53 -89 61 -107 7 -19 18 -36 23 -39 5 -3 12 -18 16 -33 3 -16 12 -35 19 -43 7 -8 16 -24 19 -35 3 -11 20 -54 37 -95 73 -175 142 -434 159 -595 10 -89 26 -496 22 -535 -1 -8 -6 -85 -11 -170 -5 -94 -17 -186 -29 -235 -11 -44 -21 -91 -21 -104 0 -13 -9 -49 -19 -80 -11 -31 -36 -108 -57 -171 -33 -103 -95 -252 -140 -335 -79 -148 -98 -180 -175 -291 -70 -103 -179 -231 -291 -340 -226 -222 -400 -344 -683 -480 -191 -91 -213 -100 -345 -143 -108 -34 -183 -54 -385 -101 -22 -5 -101 -17 -175 -27 -123 -16 -239 -18 -1265 -18 l-1130 0 -3 2604 c-1 2002 1 2607 10 2618 10 13 164 14 1107 10 670 -3 1135 -9 1196 -16z"/>
<path d="M57356 4478 c-8 -30 -8 -3522 0 -3542 6 -14 68 -16 608 -16 625 0 754 7 896 46 30 9 69 18 85 21 45 7 155 41 200 63 317 147 428 222 605 407 122 127 189 222 272 383 60 116 134 316 149 400 4 25 15 83 25 130 26 122 25 537 0 660 -10 47 -21 105 -25 130 -15 87 -90 286 -154 410 -74 144 -148 251 -254 368 -80 88 -267 245 -320 268 -17 7 -34 18 -38 24 -24 39 -491 220 -566 220 -15 0 -54 7 -86 14 -101 26 -360 36 -883 36 l-508 0 -6 -22z"/>
<path d="M8980 4570 c-149 -15 -421 -79 -451 -106 -8 -8 -22 -14 -29 -14 -41 0 -277 -131 -395 -220 -22 -16 -53 -39 -70 -52 -38 -27 -243 -248 -287 -308 -89 -121 -201 -325 -228 -415 -6 -22 -20 -62 -30 -90 -29 -80 -51 -156 -60 -210 -4 -27 -15 -88 -23 -135 -54 -298 -14 -709 96 -1000 43 -112 63 -159 69 -166 4 -3 21 -36 38 -71 81 -168 258 -389 423 -531 402 -344 944 -486 1473 -388 116 22 326 86 374 115 8 5 51 26 95 47 44 22 127 70 185 108 141 92 354 306 458 459 39 59 72 111 72 116 0 5 6 14 14 20 8 7 17 24 21 38 3 15 15 38 26 51 10 14 19 35 19 47 0 12 7 28 15 35 8 7 19 31 25 54 6 22 15 49 21 60 24 42 84 295 98 411 28 237 18 518 -24 695 -34 138 -67 250 -86 286 -10 21 -19 44 -19 51 0 31 -90 199 -179 333 -77 116 -121 170 -221 270 -146 146 -258 229 -427 317 -122 62 -142 71 -278 118 -189 66 -490 97 -715 75z"/>
</g>
</g>
  <g id="id1:id1" transform="matrix(1.25,0,0,1.25,0.0,0.0)"><g transform="translate(0.000000,1344.000000) scale(0.040000,-0.040000)" fill="#000000" stroke="none">
<path d="M30730 33549 c-41 -28 -164 -109 -274 -182 -280 -186 -356 -240 -596 -421 -427 -323 -766 -620 -1180 -1035 -383 -384 -684 -724 -960 -1086 -14 -18 -66 -87 -117 -153 -51 -67 -103 -138 -117 -159 -14 -21 -48 -69 -75 -108 -67 -94 -308 -455 -348 -520 -7 -11 -29 -48 -50 -83 -21 -35 -47 -79 -58 -97 -121 -201 -138 -230 -176 -305 -18 -36 -39 -72 -46 -81 -22 -27 -357 -700 -373 -749 -7 -25 -22 -56 -32 -69 -10 -13 -18 -31 -18 -40 0 -10 -5 -22 -11 -28 -12 -12 -203 -486 -221 -548 -6 -22 -17 -47 -24 -55 -7 -8 -17 -33 -23 -55 -6 -22 -52 -164 -103 -315 -52 -151 -99 -295 -105 -320 -6 -25 -19 -70 -28 -100 -26 -86 -154 -579 -164 -635 -6 -27 -33 -160 -61 -295 -27 -135 -54 -274 -59 -310 -6 -36 -15 -92 -21 -125 -19 -103 -51 -336 -60 -443 -5 -57 -12 -107 -14 -111 -3 -4 -12 -97 -20 -207 -9 -109 -18 -217 -21 -239 -9 -69 1 -71 106 -25 52 23 126 57 164 75 39 19 95 46 125 60 30 14 62 29 70 34 35 21 304 141 316 141 10 0 95 40 112 53 7 6 52 23 99 39 47 15 92 33 100 39 7 6 52 25 100 41 49 17 95 36 103 43 8 7 33 17 55 20 22 4 51 14 65 21 14 7 66 27 115 43 50 17 128 43 175 59 104 36 335 109 373 118 19 4 29 14 32 33 3 14 10 40 16 56 6 17 17 68 25 115 17 115 42 235 59 290 7 25 17 68 20 95 4 28 11 58 16 67 5 10 14 44 20 75 6 32 19 82 30 111 10 29 19 65 19 80 0 15 7 36 15 46 8 11 15 32 15 47 0 42 236 744 274 814 9 17 16 38 16 48 0 11 6 31 14 45 20 38 51 108 76 172 12 30 30 73 40 95 10 22 46 101 80 175 55 118 207 422 299 592 123 232 471 777 636 998 19 25 57 79 86 120 29 41 68 91 86 111 18 19 51 60 73 90 45 60 64 84 201 244 256 302 656 706 973 985 60 52 139 123 176 156 86 79 101 84 143 46 17 -17 99 -88 182 -159 467 -400 985 -949 1332 -1412 39 -53 106 -141 147 -197 42 -55 76 -104 76 -109 0 -5 9 -18 19 -29 25 -28 221 -324 221 -335 0 -5 7 -14 16 -22 8 -7 33 -44 55 -83 22 -39 58 -100 80 -136 23 -36 54 -90 71 -120 16 -30 46 -82 65 -115 96 -162 284 -539 363 -725 37 -88 67 -153 87 -195 9 -16 29 -68 45 -115 16 -47 34 -90 39 -96 5 -6 18 -35 28 -65 10 -30 33 -94 51 -144 17 -49 38 -104 46 -122 7 -17 14 -38 14 -46 0 -8 9 -34 20 -58 11 -24 20 -53 20 -64 0 -11 9 -38 20 -60 11 -22 19 -48 20 -57 0 -10 9 -41 19 -70 31 -86 61 -186 61 -203 0 -9 9 -44 19 -78 11 -34 29 -100 41 -147 11 -47 29 -119 40 -160 10 -41 21 -91 24 -110 3 -19 10 -53 15 -75 20 -92 61 -307 76 -400 15 -94 20 -127 44 -285 22 -142 60 -495 73 -675 19 -280 17 -1013 -5 -1275 -10 -113 -21 -239 -26 -280 -6 -41 -13 -111 -16 -155 -4 -44 -12 -98 -19 -120 -8 -22 -16 -87 -20 -143 -4 -57 -11 -111 -16 -120 -5 -10 -16 -64 -24 -122 -22 -155 -52 -320 -65 -360 -6 -19 -11 -48 -11 -65 -1 -16 -8 -48 -16 -70 -9 -22 -20 -69 -26 -105 -5 -36 -13 -69 -18 -75 -4 -5 -13 -39 -20 -75 -6 -36 -20 -89 -31 -118 -10 -29 -19 -66 -19 -81 0 -16 -6 -34 -14 -40 -7 -6 -16 -30 -19 -54 -3 -23 -45 -159 -93 -302 -48 -143 -94 -280 -102 -305 -8 -25 -21 -52 -29 -61 -7 -8 -13 -26 -13 -40 0 -13 -12 -49 -26 -79 -36 -74 -41 -88 -55 -140 -7 -25 -21 -56 -31 -69 -10 -13 -18 -29 -18 -37 0 -7 -6 -25 -14 -41 -32 -63 -106 -234 -106 -244 0 -6 -9 -22 -20 -36 -11 -14 -20 -32 -20 -40 0 -8 -9 -26 -20 -40 -11 -14 -20 -32 -20 -40 0 -8 -9 -26 -20 -40 -11 -14 -20 -32 -20 -40 0 -8 -9 -26 -20 -40 -11 -14 -20 -32 -20 -40 0 -8 -9 -26 -20 -40 -11 -14 -20 -32 -20 -40 0 -8 -9 -26 -20 -40 -11 -14 -20 -34 -20 -43 0 -10 -7 -23 -15 -30 -8 -6 -17 -22 -21 -33 -4 -12 -19 -40 -34 -62 -15 -22 -46 -74 -69 -115 -23 -41 -47 -84 -54 -95 -62 -100 -87 -144 -87 -152 0 -5 -9 -18 -20 -28 -11 -10 -20 -22 -20 -26 0 -4 -15 -30 -32 -56 -18 -26 -40 -60 -48 -74 -27 -47 -74 -117 -137 -206 -34 -49 -71 -101 -83 -118 -26 -38 -156 -214 -240 -325 -35 -47 -78 -101 -95 -120 -18 -19 -49 -57 -70 -85 -20 -27 -103 -124 -184 -214 -80 -90 -159 -180 -174 -200 -35 -45 -489 -495 -584 -578 -40 -35 -76 -63 -82 -63 -6 0 -11 -8 -11 -18 0 -28 40 -62 254 -219 39 -28 86 -64 105 -80 18 -15 48 -37 66 -48 18 -11 80 -53 139 -92 58 -40 108 -73 111 -73 3 0 25 -15 49 -34 24 -18 84 -57 133 -85 48 -29 135 -81 193 -116 98 -60 122 -74 160 -90 8 -3 51 -26 95 -50 130 -72 436 -225 449 -225 22 0 585 600 715 760 20 25 70 86 111 136 271 330 474 602 627 840 17 27 38 57 47 66 9 10 37 51 63 92 89 139 128 200 166 261 20 33 41 67 47 75 20 32 105 177 123 210 11 19 25 42 32 50 7 8 20 31 29 50 9 19 38 76 66 125 27 50 75 140 106 200 31 61 65 121 74 135 10 14 21 36 25 49 4 13 36 83 70 155 128 265 175 366 175 375 0 10 36 93 86 199 19 39 34 79 34 89 0 9 11 39 24 67 13 28 35 83 49 123 15 40 31 80 36 90 6 10 34 88 62 173 29 85 65 187 81 225 15 39 28 77 28 85 0 15 65 231 96 320 8 25 21 70 29 100 7 30 25 100 40 155 15 55 32 123 37 150 5 28 14 55 18 60 5 6 14 42 20 79 6 38 14 76 19 85 4 9 13 50 20 91 7 41 17 89 23 105 6 17 12 44 13 60 5 51 22 154 50 300 79 425 137 934 165 1445 20 381 9 1169 -21 1440 -5 52 -12 137 -15 188 -3 51 -21 211 -40 355 -19 144 -41 309 -49 367 -7 58 -18 125 -24 150 -9 40 -108 529 -131 650 -9 50 -34 148 -56 225 -7 28 -17 66 -20 85 -3 19 -15 60 -25 91 -10 30 -19 65 -19 77 0 11 -4 31 -9 44 -5 13 -23 70 -41 128 -18 58 -41 131 -51 163 -11 31 -19 63 -19 69 0 7 -8 35 -19 63 -28 76 -42 116 -57 165 -7 25 -27 81 -44 125 -17 44 -40 106 -50 138 -25 76 -185 478 -215 542 -13 28 -36 79 -50 115 -79 192 -463 952 -510 1010 -7 8 -23 35 -35 60 -22 44 -177 305 -229 385 -14 22 -30 48 -36 57 -5 9 -25 37 -42 62 -18 26 -33 49 -33 52 0 2 -15 26 -33 52 -19 26 -69 99 -112 162 -42 63 -94 138 -115 165 -298 404 -417 555 -644 820 -379 441 -885 941 -1301 1286 -76 63 -155 129 -176 147 -106 93 -697 530 -807 597 -9 6 -37 24 -61 40 -55 37 -72 48 -168 109 -140 88 -148 93 -175 109 -46 28 -86 20 -168 -34z"/>
<path d="M30680 25527 c-3 -3 -149 -8 -326 -10 -176 -3 -341 -10 -365 -16 -24 -6 -115 -15 -202 -21 -87 -5 -166 -14 -175 -18 -9 -5 -91 -15 -182 -21 -91 -7 -172 -16 -181 -21 -8 -4 -51 -11 -95 -15 -43 -3 -119 -15 -169 -25 -112 -23 -193 -38 -270 -50 -217 -35 -367 -67 -724 -156 -139 -35 -259 -68 -265 -72 -6 -5 -49 -19 -96 -32 -47 -12 -211 -65 -365 -116 -154 -52 -298 -99 -320 -105 -22 -5 -47 -16 -55 -23 -8 -7 -28 -16 -45 -20 -31 -8 -509 -197 -554 -220 -48 -24 -116 -55 -211 -96 -52 -23 -110 -50 -128 -61 -18 -10 -39 -19 -45 -19 -7 0 -23 -9 -37 -20 -14 -11 -32 -20 -40 -20 -8 0 -26 -9 -40 -20 -14 -11 -32 -20 -40 -20 -8 0 -26 -9 -40 -20 -14 -11 -32 -20 -40 -20 -8 0 -26 -9 -40 -20 -14 -11 -32 -20 -40 -20 -8 0 -26 -9 -40 -20 -14 -11 -32 -20 -41 -20 -9 0 -22 -7 -29 -15 -7 -8 -32 -24 -55 -34 -24 -11 -77 -40 -119 -65 -42 -25 -79 -46 -84 -46 -5 0 -28 -13 -53 -28 -36 -24 -204 -125 -277 -167 -188 -109 -657 -429 -937 -639 -615 -462 -1335 -1141 -1800 -1699 -22 -26 -58 -69 -80 -96 -112 -134 -292 -362 -385 -490 -58 -78 -127 -172 -155 -209 -27 -37 -63 -88 -80 -113 -16 -26 -73 -112 -126 -191 -124 -185 -339 -530 -339 -544 0 -3 -16 -26 -35 -54 -19 -27 -37 -60 -41 -74 -3 -14 -12 -30 -20 -37 -8 -6 -14 -17 -14 -24 0 -7 -8 -23 -19 -36 -17 -23 -166 -304 -239 -454 -19 -38 -38 -77 -43 -85 -5 -8 -14 -26 -20 -40 -6 -14 -15 -32 -20 -40 -11 -17 -18 -34 -71 -151 -21 -47 -38 -91 -38 -98 0 -7 -9 -24 -20 -38 -11 -14 -20 -33 -20 -42 0 -10 -5 -22 -11 -28 -14 -14 -206 -494 -222 -553 -6 -25 -19 -56 -29 -69 -10 -13 -18 -33 -18 -43 0 -11 -7 -34 -15 -51 -12 -26 -75 -215 -157 -466 -6 -19 -16 -58 -23 -85 -7 -28 -27 -96 -45 -151 -18 -55 -36 -118 -40 -140 -5 -22 -16 -67 -25 -100 -42 -153 -55 -205 -55 -222 0 -10 -7 -38 -16 -63 -9 -25 -20 -67 -24 -95 -5 -27 -14 -70 -20 -95 -6 -25 -15 -72 -19 -105 -5 -33 -17 -86 -25 -118 -9 -32 -16 -70 -16 -84 0 -15 -6 -52 -14 -82 -8 -31 -26 -132 -40 -226 -14 -93 -33 -217 -42 -275 -8 -58 -19 -145 -24 -195 -4 -49 -15 -155 -24 -235 -26 -245 -46 -612 -53 -984 l-6 -356 35 -32 c19 -18 48 -39 64 -47 16 -7 38 -18 49 -24 75 -41 451 -227 459 -227 5 0 17 -6 25 -14 9 -7 66 -34 126 -60 103 -43 165 -72 225 -102 44 -21 401 -165 515 -206 205 -74 480 -169 519 -179 21 -5 48 -15 59 -21 11 -6 43 -17 71 -24 28 -7 76 -20 106 -29 73 -22 134 -39 265 -75 44 -12 107 -28 140 -36 33 -7 76 -18 95 -24 91 -26 426 -101 585 -130 28 -5 88 -17 135 -25 93 -18 156 -28 270 -44 41 -6 102 -15 135 -21 97 -16 284 -40 391 -50 54 -5 173 -15 264 -24 432 -39 1115 -51 1570 -27 208 11 610 47 796 71 206 27 476 66 549 80 33 6 83 15 110 19 28 5 85 16 127 25 43 9 113 23 155 32 97 20 157 33 208 46 22 5 58 13 80 17 42 8 135 32 245 61 36 10 83 22 105 27 123 30 830 252 900 283 11 5 38 14 60 20 22 6 58 19 80 30 22 10 74 31 115 46 41 15 80 31 86 36 6 4 31 15 55 22 79 26 134 47 146 58 7 6 49 23 94 38 44 16 88 35 97 43 9 8 31 18 49 22 17 3 37 13 44 21 6 8 17 14 23 14 23 0 620 293 631 309 3 6 14 11 24 11 10 0 24 7 31 16 8 8 28 21 47 29 29 12 47 45 24 45 -5 0 -42 27 -84 60 -41 33 -79 60 -84 60 -5 0 -35 19 -65 43 -31 23 -99 71 -152 107 -53 36 -126 88 -163 116 -38 27 -102 75 -144 105 -70 49 -171 126 -270 204 -20 17 -64 50 -96 75 -109 84 -529 448 -617 533 -41 41 -35 40 -128 21 -15 -4 -33 -12 -39 -20 -6 -8 -18 -14 -26 -14 -15 0 -112 -38 -166 -66 -16 -8 -34 -14 -40 -14 -6 0 -29 -9 -51 -19 -50 -24 -116 -48 -178 -66 -25 -7 -55 -18 -65 -23 -29 -15 -292 -102 -309 -102 -8 0 -28 -7 -45 -15 -16 -9 -48 -20 -72 -24 -23 -5 -55 -14 -72 -19 -61 -21 -202 -61 -250 -72 -27 -7 -84 -19 -125 -28 -41 -10 -81 -21 -88 -25 -7 -5 -38 -11 -70 -14 -31 -3 -66 -11 -77 -18 -11 -7 -51 -15 -89 -20 -38 -4 -89 -13 -114 -20 -25 -8 -88 -19 -141 -26 -53 -6 -100 -15 -106 -20 -5 -5 -25 -9 -45 -9 -19 0 -51 -4 -70 -10 -19 -5 -62 -11 -95 -14 -33 -3 -89 -10 -125 -16 -36 -5 -108 -14 -160 -20 -52 -5 -135 -14 -185 -20 -327 -38 -1242 -47 -1605 -16 -180 15 -601 65 -810 96 -94 14 -435 82 -550 109 -289 70 -474 118 -560 147 -25 9 -63 19 -85 24 -37 8 -79 21 -175 56 -42 15 -119 40 -180 59 -42 13 -82 28 -230 85 -30 12 -64 24 -75 27 -51 14 -55 43 -30 203 9 52 20 129 25 170 9 72 22 161 40 280 5 30 16 81 24 113 9 32 16 70 16 85 0 15 9 59 20 97 11 39 20 81 20 95 0 14 11 70 25 125 14 55 44 170 65 255 22 85 54 202 73 260 18 58 44 141 56 185 13 44 29 96 37 115 7 19 16 46 19 60 4 14 22 64 41 112 18 48 47 126 64 175 16 48 34 97 40 108 5 11 39 94 76 185 80 199 105 253 290 625 168 339 178 357 337 620 652 1085 1519 2039 2499 2750 303 219 650 445 923 599 55 31 111 63 125 71 40 24 571 289 615 308 22 9 47 20 55 25 47 28 298 132 317 132 6 0 22 9 35 20 14 10 45 22 69 26 24 4 50 12 58 18 15 11 57 28 141 55 30 10 69 25 87 34 18 10 41 17 53 17 11 0 31 7 43 15 24 15 208 77 342 115 44 12 109 31 145 42 97 30 487 128 550 138 30 6 73 14 95 19 66 15 256 53 315 62 30 5 78 13 105 18 95 16 440 60 595 75 191 19 431 33 700 42 213 7 827 -12 845 -26 6 -4 42 -8 80 -9 39 -1 90 -3 115 -5 25 -2 88 -7 140 -11 52 -4 100 -11 105 -15 6 -4 28 -8 50 -9 22 -1 54 -3 70 -5 91 -10 145 -18 185 -27 25 -5 92 -16 150 -24 58 -8 150 -23 205 -35 55 -11 145 -29 200 -39 55 -11 120 -25 145 -31 25 -7 72 -19 105 -27 33 -8 85 -21 115 -29 214 -51 352 -89 379 -103 11 -6 30 -11 43 -11 13 0 40 -8 60 -19 20 -10 56 -21 80 -25 23 -4 49 -13 58 -20 8 -7 36 -16 62 -19 58 -8 79 9 77 61 0 21 3 80 7 132 8 101 11 919 5 1160 -2 80 -7 170 -12 200 -17 104 -30 215 -34 290 -6 105 -30 239 -46 255 -8 7 -48 20 -89 29 -41 8 -104 22 -140 30 -36 9 -108 25 -160 37 -52 12 -117 27 -145 34 -90 24 -148 36 -250 51 -55 9 -120 21 -145 29 -25 7 -82 16 -128 20 -46 4 -97 12 -115 19 -18 8 -72 17 -121 20 -50 4 -97 11 -106 16 -9 5 -81 14 -160 20 -80 7 -154 16 -165 21 -11 5 -36 9 -55 8 -74 -1 -347 21 -380 31 -19 5 -46 9 -60 9 -14 0 -110 2 -215 4 -104 3 -307 9 -450 12 -143 4 -262 5 -265 2z"/>
<path d="M36756 23843 c-3 -21 -6 -113 -6 -205 0 -92 -4 -169 -9 -172 -5 -3 -10 -45 -10 -94 -1 -48 -3 -132 -6 -187 -2 -55 -7 -156 -10 -225 -4 -69 -10 -138 -15 -155 -5 -16 -11 -70 -15 -120 -6 -90 -18 -198 -35 -330 -5 -38 -12 -106 -16 -150 -4 -44 -11 -89 -17 -100 -5 -10 -11 -33 -12 -50 -7 -91 -19 -172 -28 -183 -5 -7 -11 -29 -13 -50 -8 -105 -17 -170 -24 -182 -5 -8 -5 -21 0 -30 8 -16 122 -111 244 -204 144 -112 470 -409 701 -640 477 -478 835 -914 1182 -1438 12 -18 36 -53 53 -78 40 -59 131 -205 149 -239 14 -27 50 -85 83 -133 10 -15 29 -47 41 -70 51 -94 143 -262 163 -296 54 -93 240 -477 249 -515 4 -15 13 -31 21 -38 8 -6 14 -19 14 -28 0 -10 7 -26 15 -37 8 -10 15 -25 15 -31 0 -7 13 -41 29 -75 16 -35 36 -86 45 -113 10 -27 22 -55 28 -62 6 -8 26 -55 44 -106 18 -50 45 -123 60 -162 14 -38 32 -91 39 -116 7 -26 18 -55 24 -65 16 -29 61 -170 61 -191 0 -10 6 -27 14 -38 7 -11 17 -36 20 -55 4 -19 21 -76 37 -126 43 -135 154 -584 189 -769 17 -88 33 -169 36 -180 6 -23 40 -212 54 -295 4 -30 11 -89 15 -130 9 -99 10 -111 18 -140 3 -14 9 -50 12 -81 l6 -57 -57 -26 c-31 -14 -64 -26 -73 -26 -9 0 -25 -6 -36 -14 -19 -13 -462 -164 -590 -201 -298 -86 -740 -193 -925 -225 -25 -4 -85 -15 -135 -23 -49 -9 -106 -18 -125 -21 -19 -3 -62 -10 -95 -15 -33 -6 -101 -15 -150 -21 -50 -6 -124 -15 -165 -21 -41 -5 -183 -19 -315 -31 -213 -20 -301 -22 -775 -22 -342 -1 -582 4 -665 12 -71 6 -206 19 -298 27 -93 8 -172 17 -177 20 -4 3 -54 9 -111 15 -57 6 -126 14 -154 20 -27 5 -86 14 -130 20 -80 10 -153 24 -317 61 -48 10 -97 19 -109 19 -12 0 -38 4 -58 10 -20 5 -136 34 -258 64 -122 30 -244 62 -270 70 -26 9 -82 25 -123 37 -143 40 -580 188 -602 203 -12 9 -29 16 -37 16 -16 0 -341 128 -356 141 -6 4 -47 22 -90 39 -44 18 -144 63 -222 101 -77 38 -152 73 -165 79 -12 5 -30 14 -38 19 -8 5 -75 39 -149 76 -74 36 -165 84 -202 106 -37 21 -72 39 -77 39 -5 0 -17 9 -27 20 -10 11 -22 20 -27 20 -4 0 -33 15 -64 33 -31 17 -72 41 -92 53 -21 11 -66 40 -102 62 -36 23 -74 46 -85 51 -12 5 -27 16 -34 25 -7 9 -18 16 -23 16 -9 0 -259 167 -415 277 -227 161 -479 362 -667 533 -40 36 -115 101 -166 145 -269 227 -851 850 -1094 1169 -115 150 -219 288 -253 336 -80 111 -327 487 -399 608 -43 73 -87 145 -96 160 -18 28 -31 52 -112 202 -73 133 -239 461 -256 505 -9 22 -31 70 -48 107 -18 37 -32 71 -32 76 0 5 -6 15 -14 21 -8 6 -16 22 -19 34 -3 12 -17 51 -32 87 -14 36 -30 74 -34 85 -5 11 -20 45 -35 75 -14 30 -26 61 -26 69 0 13 -10 38 -51 129 -10 23 -19 50 -19 60 0 9 -12 40 -25 67 -14 28 -25 59 -25 70 0 12 -9 38 -20 60 -11 22 -20 49 -20 60 0 11 -9 38 -20 60 -11 22 -20 51 -20 65 0 14 -5 31 -10 36 -14 14 -69 200 -73 250 -1 11 -7 27 -13 35 -7 8 -19 46 -28 84 -8 39 -24 107 -36 153 -62 251 -66 270 -109 487 -6 28 -15 75 -21 105 -16 78 -28 155 -36 228 -6 56 -10 65 -33 74 -20 7 -35 5 -66 -11 -69 -34 -175 -81 -185 -81 -6 0 -18 -4 -28 -10 -9 -5 -28 -14 -42 -20 -14 -5 -32 -14 -40 -19 -8 -5 -116 -59 -240 -120 -124 -62 -232 -116 -240 -121 -8 -6 -26 -14 -40 -20 -14 -5 -32 -14 -40 -20 -8 -5 -57 -33 -108 -62 -51 -29 -107 -62 -126 -73 -18 -11 -62 -37 -97 -58 -35 -21 -91 -56 -124 -77 -33 -22 -73 -48 -88 -57 -141 -89 -318 -211 -346 -238 l-35 -34 18 -58 c9 -32 23 -87 31 -123 14 -66 40 -172 76 -315 12 -44 26 -104 33 -132 6 -29 17 -58 24 -65 6 -6 12 -23 12 -36 0 -23 52 -205 71 -247 5 -11 13 -38 18 -60 11 -44 34 -114 63 -187 10 -26 18 -55 18 -65 0 -10 6 -27 13 -38 8 -11 19 -38 25 -60 16 -61 83 -249 93 -261 5 -6 23 -51 40 -100 17 -49 35 -94 40 -100 5 -6 23 -51 40 -100 17 -49 37 -96 45 -105 8 -8 14 -21 14 -28 0 -7 9 -29 20 -49 11 -20 31 -64 44 -97 48 -119 74 -177 85 -188 6 -6 11 -18 11 -28 0 -9 9 -28 20 -42 11 -14 20 -32 20 -40 0 -8 9 -26 20 -40 11 -14 20 -29 20 -34 0 -15 148 -303 259 -502 25 -45 52 -95 60 -110 30 -56 205 -347 221 -366 9 -11 27 -40 39 -64 13 -25 31 -56 42 -70 20 -27 229 -340 264 -396 11 -17 33 -47 48 -66 15 -19 71 -92 123 -164 115 -158 149 -202 239 -314 39 -47 83 -104 100 -126 49 -66 315 -372 457 -526 172 -187 499 -519 511 -519 5 0 68 -56 140 -124 140 -132 374 -336 547 -477 88 -72 463 -358 536 -409 12 -8 50 -35 84 -60 34 -25 70 -50 79 -55 18 -12 75 -50 137 -92 54 -37 71 -48 123 -81 24 -15 56 -36 70 -48 51 -41 572 -350 726 -431 116 -61 609 -306 675 -336 25 -11 52 -24 60 -29 22 -12 43 -21 155 -68 55 -22 111 -47 125 -55 14 -7 65 -27 114 -44 49 -17 94 -35 100 -40 6 -5 49 -23 96 -39 47 -16 101 -36 120 -45 19 -8 62 -25 95 -37 33 -12 69 -25 80 -30 17 -6 365 -120 505 -164 25 -8 61 -18 80 -22 19 -3 40 -9 45 -13 6 -3 39 -14 75 -24 140 -38 216 -59 250 -69 19 -5 53 -13 75 -18 22 -5 58 -14 80 -20 22 -6 60 -15 85 -20 25 -4 72 -15 105 -23 58 -15 212 -47 495 -102 74 -15 178 -33 230 -40 268 -38 563 -75 625 -80 39 -3 111 -9 160 -14 528 -57 1520 -57 2029 0 50 5 123 12 161 14 63 5 368 44 625 80 52 8 165 28 250 45 85 16 182 35 215 40 33 5 119 23 190 41 72 17 150 34 175 38 25 4 70 15 100 23 30 9 75 21 100 27 122 30 215 55 320 87 63 19 138 41 165 49 98 28 491 157 550 180 156 62 254 99 300 112 28 8 57 21 65 28 8 7 49 24 90 38 42 14 89 32 105 40 28 14 54 25 168 76 26 11 54 21 61 21 7 0 24 8 37 19 13 10 38 22 56 25 17 4 37 13 43 21 6 8 24 17 40 20 16 3 34 13 41 21 6 8 17 14 24 14 7 0 93 41 191 91 99 51 229 117 289 148 l110 56 7 85 c9 99 2 544 -13 805 -14 255 -44 587 -74 820 -14 110 -30 232 -34 271 -5 40 -11 76 -14 81 -4 6 -13 59 -22 119 -8 60 -24 152 -34 204 -72 358 -70 353 -102 480 -11 47 -24 105 -29 130 -4 25 -15 65 -24 90 -9 25 -16 53 -16 63 0 10 -8 46 -19 80 -10 34 -29 98 -41 142 -12 44 -40 139 -62 210 -22 72 -49 159 -60 195 -10 36 -24 79 -30 95 -5 17 -16 52 -24 79 -7 26 -18 54 -24 61 -6 7 -17 35 -24 61 -26 92 -133 376 -176 469 -5 11 -21 52 -35 90 -15 39 -39 97 -55 130 -16 33 -36 83 -45 112 -9 29 -23 57 -31 64 -8 6 -14 18 -14 26 0 9 -9 32 -19 52 -11 20 -85 169 -166 331 -130 262 -171 342 -264 512 -13 23 -43 75 -67 114 -24 39 -44 74 -44 78 0 4 -8 19 -19 34 -38 56 -91 141 -99 159 -41 99 -559 844 -747 1073 -33 41 -78 97 -98 124 -292 385 -1003 1118 -1436 1481 -46 39 -105 88 -131 111 -104 90 -314 256 -490 386 -102 76 -196 146 -209 155 -13 10 -34 25 -46 33 -13 8 -124 83 -246 165 -250 168 -238 160 -305 196 -27 15 -58 36 -68 48 -26 29 -32 27 -40 -16z"/>
<path d="M9060 5434 c-115 -6 -313 -25 -370 -35 -363 -69 -678 -179 -905 -314 -22 -13 -47 -27 -55 -31 -54 -25 -288 -192 -378 -269 -197 -169 -401 -402 -517 -592 -102 -167 -186 -330 -226 -438 -12 -33 -30 -78 -40 -100 -48 -107 -121 -416 -140 -590 -6 -60 -13 -113 -16 -117 -2 -4 -4 -108 -4 -230 0 -221 28 -535 52 -580 5 -9 9 -30 9 -46 0 -16 9 -55 20 -87 11 -32 20 -70 20 -84 0 -14 7 -39 15 -55 9 -16 20 -46 25 -65 17 -70 89 -246 136 -336 9 -16 32 -61 52 -100 19 -38 57 -102 83 -142 27 -40 49 -75 49 -79 0 -3 12 -21 28 -40 15 -18 41 -52 57 -74 84 -116 312 -349 450 -461 87 -71 278 -200 348 -236 28 -14 64 -35 79 -45 14 -10 31 -18 38 -18 7 0 24 -8 38 -19 15 -10 59 -29 97 -42 39 -13 81 -32 94 -41 13 -10 29 -18 35 -18 7 0 61 -16 122 -36 60 -20 127 -40 149 -45 120 -23 218 -48 228 -58 14 -14 978 -16 1005 -2 9 6 44 15 77 20 33 6 78 15 100 20 22 6 67 16 100 24 68 16 125 33 173 53 18 8 54 19 80 25 26 5 53 16 62 23 8 7 38 21 65 31 42 15 183 84 294 144 162 87 421 291 582 458 146 150 334 406 411 558 124 244 142 284 198 453 55 169 82 278 112 457 25 152 36 576 19 716 -19 157 -40 291 -55 354 -36 146 -54 213 -64 232 -6 11 -16 42 -22 69 -6 26 -16 54 -22 61 -6 8 -21 44 -34 81 -20 61 -71 165 -152 314 -35 64 -147 227 -233 340 -70 90 -238 262 -339 345 -41 34 -91 75 -110 91 -31 25 -140 104 -173 124 -127 77 -173 101 -432 223 -80 38 -437 145 -483 145 -16 0 -51 6 -78 14 -100 30 -480 58 -654 50z m355 -894 c143 -24 184 -33 245 -52 89 -29 172 -59 190 -69 8 -5 26 -14 40 -20 14 -6 33 -15 43 -20 9 -5 26 -13 37 -19 11 -5 29 -14 40 -20 34 -17 62 -34 104 -63 23 -15 66 -44 96 -65 100 -68 288 -266 377 -398 95 -140 163 -266 193 -354 12 -34 27 -72 34 -84 20 -31 83 -296 95 -401 37 -313 17 -579 -65 -860 -34 -117 -54 -178 -65 -195 -5 -8 -14 -26 -20 -40 -6 -14 -15 -32 -20 -40 -5 -8 -14 -26 -19 -40 -6 -14 -15 -32 -20 -40 -6 -8 -15 -26 -20 -38 -6 -13 -33 -58 -61 -100 -145 -217 -366 -427 -564 -537 -32 -18 -68 -37 -87 -47 -10 -4 -26 -12 -35 -16 -121 -58 -254 -103 -374 -127 -46 -9 -104 -20 -129 -25 -143 -29 -448 -18 -645 24 -164 35 -381 124 -560 231 -82 49 -263 204 -344 296 -148 167 -312 438 -356 589 -4 14 -13 39 -21 55 -22 50 -64 231 -85 370 -20 129 -16 484 6 595 9 47 20 105 25 130 45 244 190 554 353 755 107 132 290 299 407 372 63 40 264 140 295 147 17 4 37 13 45 20 28 24 275 80 420 96 91 10 363 4 445 -10z"/>
<path d="M1760 5410 c-156 -16 -321 -51 -490 -106 -105 -35 -310 -131 -386 -182 -124 -82 -178 -125 -270 -217 -204 -203 -320 -421 -394 -740 -31 -133 -29 -458 4 -625 20 -100 52 -214 69 -248 8 -15 33 -65 57 -111 93 -187 237 -336 465 -482 63 -40 325 -166 375 -180 25 -7 52 -18 60 -24 8 -6 56 -24 105 -39 50 -15 113 -36 140 -47 28 -10 62 -19 77 -19 15 0 29 -4 32 -9 3 -5 18 -11 33 -14 93 -17 727 -184 823 -217 64 -22 121 -40 129 -40 7 0 24 -9 38 -20 14 -11 32 -20 40 -20 19 0 148 -65 209 -105 199 -132 277 -309 245 -557 -7 -51 -16 -97 -20 -103 -5 -5 -16 -34 -26 -63 -13 -40 -35 -72 -95 -135 -121 -128 -253 -196 -470 -243 -118 -26 -532 -25 -660 1 -47 9 -105 20 -130 25 -319 58 -773 295 -1080 564 -41 35 -72 55 -85 54 -17 -3 -115 -111 -247 -273 -78 -97 -223 -269 -265 -315 -64 -70 -60 -81 54 -175 261 -213 443 -325 808 -495 46 -22 188 -75 255 -95 153 -47 195 -59 286 -80 55 -13 147 -31 204 -39 57 -9 108 -20 114 -26 13 -13 788 -14 802 -1 5 5 43 14 84 19 122 16 415 100 505 145 17 8 59 29 95 46 80 39 165 90 255 155 78 57 238 215 280 278 16 24 37 52 46 63 9 11 27 40 40 65 12 25 28 52 35 60 18 22 88 201 117 300 14 47 31 128 38 180 19 131 17 419 -3 545 -17 108 -79 303 -109 347 -11 14 -19 31 -19 37 0 10 -25 47 -117 175 -86 119 -328 305 -523 401 -103 51 -298 135 -315 135 -5 0 -32 11 -60 25 -27 13 -57 24 -65 25 -8 0 -35 6 -60 14 -133 43 -200 62 -470 131 -275 71 -347 91 -475 129 -77 23 -148 48 -165 58 -8 4 -22 11 -30 14 -28 11 -125 56 -140 65 -8 4 -44 23 -79 41 -88 44 -189 145 -228 228 -42 87 -53 142 -53 255 0 168 44 281 154 391 39 39 89 81 111 93 22 12 47 25 55 30 8 5 26 14 40 20 14 6 32 15 40 20 26 16 162 50 243 61 102 13 306 13 421 -1 105 -12 414 -86 436 -104 8 -7 40 -20 70 -29 54 -17 240 -106 350 -168 65 -37 249 -159 302 -200 21 -16 41 -27 45 -25 5 3 40 51 78 107 39 56 93 131 121 168 27 37 78 108 112 157 34 50 89 128 122 175 62 88 75 109 69 113 -2 2 -29 24 -59 49 -106 87 -318 221 -475 300 -33 17 -67 35 -75 39 -25 15 -52 26 -125 54 -38 15 -74 31 -80 34 -11 8 -131 49 -180 62 -16 4 -84 22 -150 39 -66 17 -147 35 -180 40 -33 5 -105 16 -160 24 -122 19 -542 28 -675 16z"/>
<path d="M38391 5346 c-10 -11 -87 -231 -125 -356 -16 -51 -30 -92 -57 -165 -11 -28 -19 -57 -19 -65 0 -8 -7 -28 -16 -45 -9 -16 -20 -50 -24 -75 -8 -44 -29 -111 -55 -180 -14 -37 -37 -106 -60 -180 -23 -74 -46 -143 -60 -180 -14 -37 -37 -106 -60 -180 -21 -69 -45 -141 -60 -180 -7 -19 -97 -291 -200 -605 -384 -1164 -541 -1630 -550 -1628 -6 1 -12 19 -16 40 -3 21 -11 48 -18 61 -7 13 -18 45 -26 70 -7 26 -18 61 -23 77 -6 17 -21 64 -33 105 -12 41 -29 98 -39 125 -10 28 -44 131 -76 230 -78 249 -151 474 -165 510 -6 17 -15 46 -20 65 -6 19 -16 51 -23 70 -8 19 -24 71 -36 115 -13 44 -31 103 -41 130 -10 28 -45 138 -79 245 -73 229 -185 572 -200 615 -12 33 -33 101 -55 180 -8 28 -22 73 -31 100 -44 127 -54 157 -84 255 -38 121 -174 541 -190 585 -6 17 -18 55 -26 85 -8 30 -19 59 -25 65 -5 5 -9 24 -9 42 0 20 -8 41 -20 53 l-20 20 -492 0 c-271 0 -499 -4 -507 -9 -10 -6 -10 -13 -3 -28 6 -10 29 -73 51 -138 22 -66 66 -192 97 -280 30 -88 62 -180 69 -205 25 -82 47 -144 66 -185 17 -38 32 -82 64 -185 8 -25 25 -76 39 -115 52 -146 178 -512 191 -555 26 -83 48 -145 66 -185 17 -38 32 -82 64 -185 8 -25 25 -76 39 -115 52 -146 178 -512 191 -555 26 -83 48 -145 66 -185 17 -38 32 -81 64 -185 14 -46 32 -98 150 -435 37 -104 73 -210 80 -235 25 -80 47 -144 66 -185 17 -38 32 -82 64 -185 8 -25 25 -76 39 -115 14 -38 57 -164 95 -280 39 -116 75 -218 81 -227 5 -10 14 -34 19 -55 13 -52 40 -130 61 -178 19 -42 43 -111 64 -185 7 -25 22 -63 32 -85 l19 -40 385 -3 c212 -1 395 0 406 3 22 5 29 18 58 110 66 204 80 244 97 276 10 20 19 44 19 54 0 9 8 37 18 63 23 57 50 136 62 177 5 17 35 107 68 200 57 163 209 611 239 705 8 25 21 61 28 80 17 46 43 123 59 182 8 25 21 57 30 69 9 13 16 32 16 42 0 10 8 39 18 65 23 57 50 136 62 177 5 17 35 107 68 200 57 163 209 611 239 705 8 25 21 61 28 80 16 42 41 119 59 180 8 25 21 59 30 75 9 17 16 36 16 43 0 7 8 34 19 60 10 26 24 65 30 87 6 22 17 49 25 60 l14 19 17 -39 c18 -43 57 -153 80 -225 7 -25 39 -117 69 -205 162 -469 238 -694 246 -726 5 -19 16 -49 25 -65 8 -16 15 -36 15 -45 0 -9 9 -36 20 -60 11 -24 20 -53 20 -64 0 -11 7 -33 16 -50 18 -34 48 -117 68 -187 8 -25 17 -52 21 -58 4 -6 13 -33 21 -58 7 -26 38 -119 68 -207 166 -483 238 -694 247 -730 5 -21 14 -44 19 -50 5 -6 13 -29 19 -50 5 -22 18 -62 27 -90 25 -71 63 -174 79 -215 14 -36 36 -103 60 -180 52 -170 134 -393 146 -401 8 -5 187 -9 406 -9 432 0 423 -1 423 62 0 16 9 41 20 55 11 14 20 34 20 45 0 11 8 40 19 66 10 26 31 83 46 127 15 44 65 190 111 325 47 135 91 265 99 290 34 109 47 148 64 185 19 41 46 118 61 170 4 17 18 57 30 90 27 73 185 533 205 595 33 107 47 147 60 175 15 32 51 131 65 180 4 17 18 57 30 90 27 73 185 533 205 595 34 109 47 148 64 185 19 41 46 118 61 170 4 17 18 57 30 90 27 73 185 533 205 595 34 109 47 148 64 185 19 41 45 115 61 170 5 17 36 109 70 205 34 96 79 227 100 290 21 63 55 160 74 215 38 108 42 135 24 153 -9 9 -129 12 -479 12 l-468 0 -20 -26 c-12 -15 -21 -32 -21 -39 0 -11 -114 -366 -155 -485 -17 -48 -37 -113 -60 -195 -15 -56 -40 -132 -60 -185 -7 -19 -43 -129 -80 -245 -91 -283 -142 -441 -161 -495 -8 -25 -20 -63 -25 -85 -6 -21 -15 -45 -20 -51 -5 -7 -14 -34 -19 -61 -8 -46 -27 -110 -55 -183 -7 -19 -43 -129 -80 -245 -37 -115 -85 -262 -106 -325 -22 -63 -39 -120 -39 -128 0 -8 -7 -28 -15 -45 -8 -18 -21 -54 -29 -82 -7 -27 -19 -63 -25 -80 -6 -16 -20 -64 -31 -105 -12 -41 -27 -91 -35 -110 -7 -19 -60 -176 -117 -349 -56 -172 -107 -313 -112 -313 -5 1 -32 70 -59 154 -27 84 -55 169 -62 188 -14 37 -36 104 -60 180 -19 63 -44 139 -60 180 -14 37 -37 106 -60 180 -23 74 -46 143 -60 180 -23 59 -63 187 -90 285 -8 28 -22 73 -31 100 -10 28 -25 73 -35 100 -9 28 -22 66 -29 85 -7 19 -18 55 -26 80 -7 25 -21 68 -30 95 -10 28 -25 73 -35 100 -9 28 -22 66 -29 85 -7 19 -18 55 -26 80 -7 25 -21 68 -30 95 -10 28 -25 73 -35 100 -9 28 -99 300 -199 605 -293 890 -311 944 -322 957 -16 20 -781 19 -797 -1z"/>
<path d="M14440 5330 c-7 -14 -10 -518 -7 -1682 l3 -1663 22 -140 c12 -77 27 -160 32 -185 6 -25 15 -67 19 -95 25 -148 180 -529 274 -673 149 -227 366 -443 572 -571 74 -45 253 -135 310 -155 28 -10 64 -24 80 -31 66 -30 350 -105 395 -105 14 0 35 -7 46 -15 16 -12 92 -14 495 -15 356 0 478 3 487 12 7 7 36 15 64 19 50 6 245 53 278 66 8 4 33 12 55 19 22 6 72 24 110 39 39 15 79 29 90 33 11 3 32 13 47 24 14 10 31 18 36 18 14 0 92 47 232 139 87 57 148 109 250 211 128 129 151 158 296 380 84 129 214 473 252 670 6 30 18 91 27 135 42 206 45 337 45 1986 0 1320 -2 1578 -14 1588 -9 8 -142 10 -472 9 l-459 -3 -6 -1650 c-3 -907 -9 -1661 -12 -1675 -4 -14 -14 -68 -22 -120 -68 -413 -305 -754 -635 -911 -312 -148 -780 -170 -1125 -53 -183 62 -299 135 -440 278 -197 199 -299 422 -362 791 -15 90 -18 254 -23 1706 -4 1341 -7 1609 -19 1622 -12 15 -57 17 -462 17 l-448 0 -11 -20z"/>
<path d="M21320 5331 c-16 -30 -14 -832 3 -854 11 -16 75 -17 832 -20 l820 -2 2 -2180 c3 -2036 4 -2181 20 -2192 24 -19 902 -19 926 0 16 11 17 156 20 2192 l2 2180 822 3 823 2 5 23 c3 12 4 211 3 442 l-3 420 -2132 3 -2132 2 -11 -19z"/>
<path d="M28063 5343 c-10 -4 -13 -539 -13 -2628 l0 -2624 19 -11 c23 -12 899 -14 918 -2 10 6 13 242 15 1103 l3 1094 1235 0 1235 0 3 -1094 c2 -861 5 -1097 15 -1103 21 -14 911 -10 925 4 9 9 12 608 12 2635 l0 2623 -22 5 c-13 3 -225 4 -473 3 l-450 -3 -5 -1090 -5 -1090 -1235 0 -1235 0 -5 1090 -5 1090 -460 2 c-253 1 -466 -1 -472 -4z"/>
<path d="M45183 5343 c-10 -4 -13 -539 -13 -2628 l0 -2624 19 -11 c23 -12 899 -14 919 -2 10 7 12 541 10 2638 l-3 2629 -460 2 c-253 1 -466 -1 -472 -4z"/>
<path d="M49007 5343 c-4 -3 -7 -1189 -7 -2634 0 -2386 1 -2627 16 -2633 9 -3 212 -6 453 -6 327 0 440 3 449 12 9 9 12 431 12 1839 0 1058 4 1830 9 1833 5 3 17 -7 27 -22 9 -15 32 -45 51 -67 33 -41 241 -308 345 -445 31 -41 89 -115 128 -165 39 -49 96 -124 128 -165 31 -41 91 -118 132 -170 42 -52 109 -139 150 -193 78 -100 103 -134 180 -231 25 -32 55 -70 66 -86 12 -16 49 -64 82 -107 34 -43 116 -149 184 -235 68 -87 148 -191 178 -232 47 -63 119 -156 257 -330 18 -23 41 -52 50 -66 10 -14 52 -68 93 -120 42 -52 109 -139 150 -193 41 -53 89 -114 105 -136 17 -21 49 -62 72 -92 23 -30 71 -92 108 -139 36 -47 85 -110 107 -140 99 -131 223 -287 251 -317 l31 -33 380 0 c210 0 387 4 394 8 10 7 12 541 10 2638 l-3 2629 -450 3 -450 2 -17 -21 c-17 -20 -18 -120 -18 -1780 0 -967 -4 -1760 -8 -1763 -5 -3 -20 7 -34 22 -28 31 -207 258 -323 412 -44 58 -101 133 -127 165 -82 104 -271 346 -353 454 -86 112 -107 139 -172 222 -102 132 -123 159 -189 245 -38 50 -116 151 -174 225 -58 73 -117 149 -132 169 -48 63 -274 355 -421 543 -27 34 -87 112 -133 172 -118 154 -198 258 -324 420 -60 77 -153 196 -206 265 -54 69 -118 152 -144 185 l-47 60 -430 3 c-236 1 -433 -1 -436 -5z"/>
<path d="M56436 5328 c-14 -20 -16 -286 -16 -2630 l0 -2607 20 -11 c14 -8 357 -10 1158 -7 l1137 3 135 22 c74 12 153 26 175 31 176 39 239 56 375 101 85 28 162 58 171 66 8 8 23 14 31 14 15 0 225 103 313 153 358 204 748 599 930 942 20 39 43 81 51 95 66 117 195 472 215 590 5 30 13 75 19 100 6 25 15 81 21 125 5 44 14 84 19 89 13 13 13 603 1 611 -6 3 -12 27 -16 53 -47 381 -161 710 -360 1032 -176 285 -447 565 -743 767 -18 13 -37 23 -41 23 -5 0 -14 6 -20 14 -13 16 -78 51 -246 134 -60 30 -123 61 -138 69 -46 24 -378 134 -432 143 -27 5 -68 13 -90 19 -115 31 -346 61 -534 71 -112 5 -635 10 -1162 10 l-958 0 -15 -22z m2099 -858 c205 -13 371 -45 520 -100 28 -10 68 -24 90 -31 43 -13 155 -66 220 -104 22 -13 54 -31 70 -41 119 -68 355 -288 429 -401 14 -21 38 -56 53 -78 16 -22 34 -51 41 -65 6 -14 16 -32 21 -40 5 -8 14 -26 20 -40 6 -14 15 -32 20 -40 42 -71 114 -283 145 -425 41 -191 46 -572 10 -750 -9 -44 -18 -96 -21 -115 -2 -19 -8 -44 -13 -55 -5 -11 -23 -65 -40 -120 -17 -55 -36 -107 -41 -115 -5 -8 -14 -26 -19 -40 -11 -26 -58 -117 -82 -160 -93 -165 -307 -391 -476 -504 -99 -66 -269 -156 -295 -156 -7 0 -22 -6 -33 -14 -24 -17 -167 -66 -193 -66 -10 0 -38 -7 -62 -16 -24 -8 -105 -24 -179 -34 -121 -17 -201 -20 -740 -20 l-605 -1 -3 1758 c-1 967 0 1764 3 1771 6 15 926 17 1160 2z"/>
</g>
</g>
</svg>
