<?xml version="1.0" standalone="no"?>
<!DOCTYPE svg PUBLIC "-//W3C//DTD SVG 1.1//EN"
 "http://www.w3.org/Graphics/SVG/1.1/DTD/svg11.dtd">
<!-- Created with svg_stack (http://github.com/astraw/svg_stack) -->
<svg xmlns:sodipodi="http://sodipodi.sourceforge.net/DTD/sodipodi-0.dtd" xmlns="http://www.w3.org/2000/svg" version="1.1" width="378.0" height="226.0">
  <defs/>
  <g id="id0:id0" transform="matrix(1.25,0,0,1.25,0.0,0.0)"><g transform="translate(0.000000,180.800000) scale(0.040000,-0.040000)" fill="#ffffff" stroke="none">
<path d="M2584 4002 c-10 -2 -23 -8 -28 -13 -6 -5 -29 -9 -52 -9 -24 0 -46 -4 -49 -10 -3 -5 -35 -10 -71 -10 -55 0 -64 -3 -64 -18 0 -12 23 -30 73 -55 l72 -37 117 15 c93 13 196 15 515 12 219 -2 407 -5 418 -8 17 -3 20 2 23 44 3 42 1 47 -17 47 -11 0 -37 10 -58 22 l-38 21 -411 1 c-226 1 -419 -1 -430 -2z"/>
<path d="M2920 3573 c0 -5 23 -18 51 -30 38 -17 69 -23 127 -23 119 0 464 -37 597 -63 39 -8 96 -17 128 -21 l58 -6 -3 42 -3 43 -45 6 c-162 23 -303 39 -426 48 -161 13 -484 15 -484 4z"/>
<path d="M5852 3207 c-25 -25 -31 -40 -29 -67 3 -47 22 -59 85 -58 44 0 52 4 52 19 0 11 5 28 12 38 15 24 4 49 -25 60 -12 5 -29 16 -36 25 -18 22 -22 21 -59 -17z"/>
<path d="M6040 3110 c0 -5 5 -10 10 -10 6 0 10 5 10 10 0 6 -4 10 -10 10 -5 0 -10 -4 -10 -10z"/>
<path d="M5960 3050 c0 -5 5 -10 10 -10 6 0 10 5 10 10 0 6 -4 10 -10 10 -5 0 -10 -4 -10 -10z"/>
<path d="M6180 3030 c0 -5 5 -10 10 -10 6 0 10 5 10 10 0 6 -4 10 -10 10 -5 0 -10 -4 -10 -10z"/>
<path d="M1583 2981 c-18 -17 -33 -39 -33 -50 0 -11 -9 -36 -20 -56 -11 -20 -20 -42 -20 -50 0 -8 -9 -29 -20 -47 -11 -18 -20 -41 -20 -50 0 -10 -9 -32 -20 -50 -11 -18 -20 -41 -20 -50 0 -10 -9 -32 -20 -50 -11 -18 -20 -41 -20 -50 0 -10 -9 -32 -20 -50 -11 -18 -20 -41 -20 -50 0 -10 -9 -32 -20 -50 -11 -18 -20 -41 -20 -51 0 -11 -9 -30 -20 -44 -11 -14 -20 -37 -20 -50 0 -14 -9 -36 -20 -50 -11 -14 -20 -32 -20 -39 0 -7 -9 -33 -19 -56 -82 -181 -85 -173 70 -173 l114 0 19 40 c18 38 42 98 71 175 l13 35 157 3 c104 2 162 -1 171 -8 7 -7 22 -42 34 -78 12 -37 31 -91 42 -120 l21 -52 171 2 171 3 -1 25 c-1 14 -36 115 -78 225 -43 110 -118 308 -167 440 -83 222 -102 268 -148 365 l-17 35 -119 3 -120 3 -32 -30z m127 -403 c0 -9 5 -30 11 -45 6 -15 15 -37 19 -48 16 -39 29 -110 22 -117 -9 -8 -51 -11 -120 -10 -58 2 -72 17 -55 55 6 12 18 47 27 77 10 30 22 64 27 75 5 11 13 33 19 50 l11 30 19 -25 c11 -14 20 -33 20 -42z"/>
<path d="M2343 3002 c-19 -12 -19 -1072 -1 -1083 7 -5 171 -9 365 -9 271 0 354 3 360 13 13 20 12 186 -2 197 -6 5 -96 11 -201 12 l-189 3 -2 428 c-1 235 -5 432 -8 437 -7 12 -304 13 -322 2z"/>
<path d="M3133 3004 c-9 -4 -10 -135 -7 -542 3 -295 9 -540 13 -545 4 -4 79 -6 167 -5 l159 3 3 425 c2 384 4 426 19 437 20 15 115 7 155 -14 53 -26 73 -104 43 -162 -18 -37 -71 -81 -95 -81 -11 0 -31 -5 -45 -12 l-26 -12 3 -95 3 -96 50 -3 c64 -4 154 13 219 42 58 26 154 99 163 124 3 9 12 24 20 33 29 34 53 123 53 196 0 39 -4 74 -9 77 -4 3 -11 19 -14 35 -4 18 -31 54 -71 93 -100 99 -108 101 -481 104 -170 2 -315 1 -322 -2z"/>
<path d="M4142 2998 c-17 -17 -17 -1059 0 -1076 8 -8 56 -12 148 -12 190 0 178 -18 180 265 0 121 4 223 9 228 4 4 79 6 167 5 l159 -3 2 -233 c1 -161 6 -238 14 -248 9 -11 43 -14 148 -14 75 0 142 4 150 9 11 7 14 99 15 540 1 492 0 531 -16 531 -9 0 -20 5 -23 10 -4 6 -60 10 -134 10 -105 0 -131 -3 -142 -16 -9 -12 -12 -57 -11 -184 1 -93 -1 -171 -6 -174 -4 -2 -81 -6 -171 -7 l-162 -2 -2 173 -2 173 -30 18 c-24 14 -55 18 -155 18 -86 1 -130 -3 -138 -11z"/>
<path d="M5610 2988 c-11 -12 -20 -30 -20 -40 0 -10 -9 -36 -20 -58 -11 -22 -20 -47 -20 -57 0 -10 -8 -36 -19 -58 -39 -82 -61 -136 -61 -148 0 -7 -9 -32 -20 -55 -11 -22 -20 -51 -20 -63 0 -12 -6 -30 -14 -38 -14 -16 -53 -114 -64 -161 -3 -14 -14 -38 -24 -55 -10 -16 -18 -39 -18 -50 0 -12 -4 -25 -9 -30 -5 -6 -16 -30 -24 -55 -9 -25 -27 -73 -40 -107 l-25 -61 22 -21 c20 -19 34 -21 163 -21 149 0 173 7 173 49 0 10 8 40 19 67 10 27 25 69 33 94 l15 45 167 3 166 2 9 -22 c55 -135 86 -206 99 -220 13 -15 33 -18 122 -18 130 0 140 7 111 71 -48 106 -61 140 -61 152 0 7 -4 17 -8 22 -5 6 -28 60 -52 120 -24 61 -47 114 -52 120 -4 5 -8 15 -8 22 0 7 -8 32 -19 56 -24 57 -84 204 -114 282 -9 22 -29 75 -46 119 -17 43 -31 83 -31 88 0 5 -10 18 -22 29 -20 16 -41 18 -145 19 -113 0 -124 -2 -143 -22z m226 -424 c14 -38 29 -82 33 -99 4 -16 15 -45 25 -63 9 -18 14 -37 11 -42 -8 -14 -192 -13 -200 0 -4 6 0 32 9 58 9 26 27 83 41 127 37 114 34 110 46 98 5 -5 21 -41 35 -79z"/>
<path d="M6240 2970 c0 -5 5 -10 10 -10 6 0 10 5 10 10 0 6 -4 10 -10 10 -5 0 -10 -4 -10 -10z"/>
<path d="M6060 2910 c0 -5 5 -10 10 -10 6 0 10 5 10 10 0 6 -4 10 -10 10 -5 0 -10 -4 -10 -10z"/>
<path d="M5400 1772 c-14 -2 -29 -8 -34 -13 -6 -5 -22 -9 -37 -9 -18 0 -38 -12 -62 -39 -51 -57 -67 -93 -67 -151 0 -73 33 -105 117 -115 50 -5 68 -3 103 14 44 21 60 20 60 -5 0 -28 51 -16 84 21 29 31 38 35 82 35 55 0 74 -12 74 -47 0 -27 2 -28 40 -8 26 14 30 13 39 -3 19 -34 51 3 97 112 10 23 17 46 15 53 -2 16 16 26 24 13 4 -6 2 -17 -5 -25 -7 -8 -7 -16 -1 -19 5 -3 12 -30 16 -59 9 -67 20 -87 49 -87 47 0 77 45 118 178 21 69 33 55 35 -43 4 -126 6 -132 45 -132 42 0 50 7 109 92 27 38 69 98 94 133 25 34 45 74 45 87 0 29 2 28 -38 14 -17 -6 -38 -23 -48 -37 -47 -73 -109 -150 -117 -145 -5 3 -6 41 -2 88 l7 83 -61 -2 c-75 -2 -101 -24 -129 -106 -10 -30 -23 -54 -28 -53 -5 1 -13 38 -18 81 l-8 79 -32 11 c-43 16 -75 5 -82 -27 -3 -14 -19 -55 -34 -91 -16 -36 -31 -73 -34 -83 -12 -38 -24 -4 -30 92 -5 67 -12 104 -22 112 -16 13 -58 5 -74 -14 -20 -23 -138 -177 -153 -200 -12 -18 -18 -20 -28 -9 -20 19 -63 14 -95 -10 -37 -29 -100 -31 -121 -3 -25 34 -11 95 32 132 55 47 80 50 131 14 48 -35 66 -38 85 -15 11 13 10 21 -6 50 -10 20 -26 39 -34 43 -23 12 -72 18 -101 13z m303 -150 c-9 -26 -24 -42 -34 -36 -5 3 -2 19 6 35 16 31 39 32 28 1z m-199 -123 c-3 -5 -10 -7 -15 -3 -5 3 -7 10 -3 15 3 5 10 7 15 3 5 -3 7 -10 3 -15z"/>
<path d="M6523 1754 c-10 -14 -29 -39 -42 -56 -89 -111 -161 -216 -161 -235 0 -36 40 -29 80 12 33 34 38 36 90 33 l55 -3 3 -32 c3 -30 6 -33 38 -33 26 0 34 4 34 18 0 31 12 33 36 7 18 -20 33 -25 72 -25 41 0 55 5 86 33 31 26 39 40 43 80 l6 47 -32 6 c-21 5 -36 15 -41 29 -13 34 -30 40 -52 17 l-21 -20 33 -42 c31 -39 32 -43 16 -58 -11 -12 -20 -14 -30 -7 -60 44 -65 46 -85 36 -30 -16 -36 2 -34 102 1 70 -2 87 -13 87 -8 0 -17 7 -20 15 -9 23 -41 18 -61 -11z m10 -144 c-7 -25 -19 -34 -28 -20 -8 13 13 52 25 45 4 -3 6 -14 3 -25z"/>
<path d="M6747 1759 c-9 -5 -24 -24 -33 -41 -13 -25 -13 -32 -3 -39 7 -4 18 -4 25 1 6 6 13 8 16 5 3 -3 11 1 18 10 15 18 61 20 78 3 10 -9 16 -8 29 5 16 16 15 18 -7 42 -18 19 -33 25 -64 25 -23 0 -49 -5 -59 -11z"/>
</g>
</g>
  <g id="id1:id1" transform="matrix(1.25,0,0,1.25,0.0,0.0)"><g transform="translate(0.000000,180.800000) scale(0.040000,-0.040000)" fill="#96989b" stroke="none">
<path d="M3610 4030 c20 -13 70 -13 70 0 0 6 -19 10 -42 10 -32 0 -39 -3 -28 -10z"/>
<path d="M2980 4010 c0 -6 30 -10 70 -10 40 0 70 4 70 10 0 6 -30 10 -70 10 -40 0 -70 -4 -70 -10z"/>
<path d="M2520 4004 c-8 -1 -48 -8 -87 -14 -40 -7 -73 -15 -73 -20 0 -15 84 -18 102 -3 10 9 32 13 55 11 28 -2 38 1 38 11 0 16 -11 20 -35 15z"/>
<path d="M3440 3992 c0 -5 8 -13 18 -16 53 -20 72 -38 72 -69 0 -18 4 -37 8 -43 4 -7 54 -14 117 -18 61 -4 124 -11 140 -16 17 -5 80 -16 140 -25 282 -39 663 -140 980 -260 216 -82 310 -125 575 -261 19 -10 100 -58 179 -107 80 -49 150 -91 157 -94 10 -3 12 8 8 44 -4 44 -1 52 26 78 28 27 31 27 48 12 10 -9 23 -17 29 -17 5 0 18 -9 28 -20 17 -19 17 -21 2 -38 -18 -20 -23 -67 -8 -76 5 -3 12 -21 15 -40 7 -34 58 -120 73 -122 18 -1 181 -165 253 -254 107 -133 134 -175 195 -303 65 -137 94 -245 102 -376 l6 -100 51 -6 c28 -3 76 -4 106 -1 30 2 74 5 96 5 26 1 44 6 47 15 9 23 -13 230 -27 251 -7 11 -16 37 -20 59 -4 21 -16 55 -27 75 -10 20 -19 43 -19 53 0 9 -4 19 -8 22 -5 3 -35 51 -67 108 -32 57 -77 124 -100 149 -24 25 -54 63 -67 85 -27 42 -273 284 -290 284 -10 0 -52 36 -101 88 -17 17 -36 32 -43 32 -7 0 -34 17 -61 38 -52 42 -190 132 -200 132 -4 0 -14 6 -22 14 -9 7 -56 34 -104 59 -48 26 -98 53 -110 62 -12 8 -29 15 -38 15 -9 0 -24 9 -34 20 -10 11 -24 20 -31 20 -12 0 -66 24 -250 111 -22 10 -47 19 -55 19 -8 0 -23 7 -33 15 -11 8 -27 15 -36 15 -9 0 -33 9 -54 19 -21 11 -52 23 -69 27 -18 4 -41 12 -52 20 -11 7 -38 16 -60 19 -22 4 -49 13 -60 20 -11 7 -40 16 -65 20 -25 4 -54 13 -65 21 -11 7 -42 17 -70 23 -68 14 -161 38 -215 56 -25 9 -70 18 -100 22 -30 3 -66 11 -80 18 -14 7 -53 15 -88 19 -34 4 -79 13 -100 20 -20 7 -79 16 -131 20 -51 4 -111 14 -133 22 -22 8 -68 14 -102 14 -60 1 -163 12 -238 26 -24 4 -38 3 -38 -4z"/>
<path d="M3900 3990 c20 -13 73 -13 65 0 -3 6 -23 10 -43 10 -28 0 -33 -3 -22 -10z"/>
<path d="M2283 3959 c-16 -16 -5 -39 18 -39 14 0 19 7 19 25 0 26 -18 33 -37 14z"/>
<path d="M4120 3950 c20 -13 70 -13 70 0 0 6 -19 10 -42 10 -32 0 -39 -3 -28 -10z"/>
<path d="M4220 3936 c0 -2 7 -6 15 -10 8 -3 15 -1 15 4 0 6 -7 10 -15 10 -8 0 -15 -2 -15 -4z"/>
<path d="M4310 3910 c8 -5 29 -10 45 -10 23 0 27 3 15 10 -8 5 -28 10 -45 10 -23 0 -27 -3 -15 -10z"/>
<path d="M4470 3870 c20 -13 73 -13 65 0 -3 6 -23 10 -43 10 -28 0 -33 -3 -22 -10z"/>
<path d="M4630 3830 c20 -13 63 -13 55 0 -3 6 -21 10 -38 10 -24 0 -28 -3 -17 -10z"/>
<path d="M1605 3820 c-3 -5 -18 -10 -33 -10 -15 0 -40 -9 -57 -20 -16 -11 -43 -20 -58 -20 -16 0 -40 -9 -54 -20 -14 -11 -36 -20 -49 -20 -14 0 -32 -9 -41 -20 -10 -11 -30 -20 -45 -20 -16 0 -36 -9 -45 -20 -10 -11 -27 -20 -39 -20 -12 0 -29 -11 -38 -25 -10 -15 -22 -22 -32 -18 -9 3 -26 -5 -42 -20 -15 -13 -36 -28 -47 -31 -12 -3 -48 -29 -80 -56 -33 -28 -64 -50 -70 -50 -20 0 -210 -203 -267 -285 -152 -219 -208 -459 -158 -680 26 -116 71 -245 112 -315 4 -8 14 -26 21 -40 23 -46 90 -144 132 -195 23 -27 48 -60 54 -72 19 -36 45 -28 65 20 10 23 26 60 35 82 49 110 54 131 38 156 -36 56 -51 310 -26 434 13 69 72 201 120 272 50 74 176 200 254 254 98 68 103 72 115 104 13 34 7 42 -19 24 -10 -8 -57 -41 -103 -73 -110 -78 -262 -235 -314 -322 -56 -97 -101 -214 -123 -319 -10 -49 -22 -89 -27 -88 -5 1 -15 49 -23 105 -43 316 87 611 369 837 134 108 229 168 345 219 55 24 73 38 90 69 24 42 75 168 75 183 0 13 -27 13 -35 0z"/>
<path d="M4705 3810 c3 -5 13 -10 21 -10 8 0 12 5 9 10 -3 6 -13 10 -21 10 -8 0 -12 -4 -9 -10z"/>
<path d="M4760 3790 c20 -13 40 -13 40 0 0 6 -12 10 -27 10 -22 0 -25 -2 -13 -10z"/>
<path d="M4880 3750 c20 -13 63 -13 55 0 -3 6 -21 10 -38 10 -24 0 -28 -3 -17 -10z"/>
<path d="M4995 3710 c3 -5 17 -10 31 -10 14 0 22 4 19 10 -3 6 -17 10 -31 10 -14 0 -22 -4 -19 -10z"/>
<path d="M5125 3670 c3 -5 13 -10 21 -10 8 0 12 5 9 10 -3 6 -13 10 -21 10 -8 0 -12 -4 -9 -10z"/>
<path d="M5209 3636 c7 -9 23 -16 34 -16 26 0 12 15 -23 25 -22 7 -23 6 -11 -9z"/>
<path d="M3876 3504 c-10 -27 -7 -71 7 -82 6 -5 57 -20 112 -31 55 -12 132 -30 170 -41 39 -10 97 -26 130 -35 77 -21 291 -92 332 -111 17 -8 34 -14 38 -14 3 0 31 -11 61 -25 30 -14 58 -25 62 -25 4 0 25 -9 47 -20 22 -11 45 -20 52 -20 23 0 24 -20 1 -29 -30 -13 -28 -13 141 -1 124 9 146 9 167 -5 14 -9 21 -21 18 -30 -4 -8 -3 -35 0 -60 l7 -45 77 -49 c42 -27 90 -59 105 -71 31 -24 50 -17 63 23 4 12 16 42 27 66 30 65 35 60 -184 172 -42 21 -80 39 -83 39 -4 0 -44 18 -89 41 -250 125 -707 265 -1134 349 -122 24 -119 24 -127 4z"/>
<path d="M5485 3510 c3 -5 13 -10 21 -10 8 0 14 5 14 10 0 6 -9 10 -21 10 -11 0 -17 -4 -14 -10z"/>
<path d="M5562 3478 c5 -15 28 -23 28 -10 0 5 -7 13 -16 16 -10 4 -14 1 -12 -6z"/>
<path d="M5860 3310 c0 -5 5 -10 10 -10 6 0 10 5 10 10 0 6 -4 10 -10 10 -5 0 -10 -4 -10 -10z"/>
<path d="M5920 3298 c0 -9 7 -19 16 -22 25 -10 27 -1 4 19 -17 15 -20 16 -20 3z"/>
<path d="M6040 3216 c0 -16 60 -70 67 -62 7 6 -38 63 -54 70 -7 3 -13 -1 -13 -8z"/>
<path d="M6160 3135 c0 -8 77 -85 84 -85 16 0 2 25 -31 55 -36 33 -53 42 -53 30z"/>
<path d="M5717 3084 c-12 -13 4 -24 36 -24 18 0 27 4 22 9 -14 13 -50 22 -58 15z"/>
<path d="M4260 3070 c-18 -6 -4 -8 48 -9 42 -1 72 3 72 9 0 12 -84 12 -120 0z"/>
<path d="M4195 3010 c3 -6 50 -10 106 -10 86 0 104 -3 129 -21 15 -12 26 -27 24 -33 -3 -7 2 -28 11 -47 l15 -34 -3 70 -2 70 -30 6 c-51 11 -257 10 -250 -1z"/>
<path d="M4870 3010 c0 -6 43 -10 109 -10 82 0 111 -4 120 -14 9 -11 13 -154 14 -543 l2 -528 -100 -3 c-134 -3 -145 -10 -18 -11 114 -1 153 9 153 38 0 33 18 33 35 1 12 -23 22 -30 38 -28 14 2 21 9 18 18 -6 25 -1 74 9 84 6 6 10 18 10 27 0 9 7 22 15 29 9 7 14 19 11 26 -3 7 -1 16 4 19 6 4 10 17 10 29 0 13 6 29 14 36 8 6 13 17 10 25 -3 7 -1 16 5 20 6 3 11 14 11 24 0 10 7 24 15 31 8 7 12 16 10 21 -5 8 -2 16 23 66 7 13 12 30 12 38 0 16 17 49 38 77 8 9 11 26 7 36 -3 11 -1 23 4 26 21 14 41 68 31 87 -7 13 -6 20 2 26 17 11 38 49 38 69 0 10 12 32 26 51 14 18 24 41 22 51 -2 9 6 37 19 61 12 24 20 47 17 52 -2 5 3 20 12 34 15 23 22 25 95 25 46 0 79 4 79 10 0 14 -156 13 -181 -1 -11 -6 -18 -17 -15 -24 2 -7 -2 -19 -10 -25 -8 -7 -14 -21 -14 -31 0 -10 -5 -21 -10 -24 -6 -4 -10 -12 -8 -18 1 -7 -8 -32 -20 -56 -12 -25 -22 -51 -22 -58 0 -7 -4 -21 -9 -31 -15 -29 -29 -65 -42 -107 -7 -22 -17 -45 -22 -52 -5 -7 -6 -16 -3 -21 3 -6 -1 -15 -9 -22 -8 -7 -15 -21 -15 -31 0 -10 -4 -21 -10 -24 -5 -3 -10 -15 -10 -25 0 -11 -9 -35 -20 -55 -11 -20 -20 -42 -20 -50 0 -9 -4 -23 -9 -33 -26 -51 -33 -71 -27 -80 3 -6 2 -13 -3 -17 -13 -7 -41 -64 -41 -82 0 -7 -9 -33 -21 -58 -11 -24 -18 -48 -15 -53 8 -13 -35 -47 -59 -47 l-20 0 -5 510 -5 509 -25 7 c-40 11 -250 10 -250 -1z"/>
<path d="M4117 2993 c-7 -25 -8 -772 -1 -805 3 -16 10 -28 15 -28 5 0 9 173 9 425 0 256 -4 425 -9 425 -5 0 -12 -8 -14 -17z"/>
<path d="M4799 3008 c-9 -22 -12 -375 -4 -388 5 -8 10 -8 20 0 19 16 16 381 -3 388 -6 2 -13 2 -13 0z"/>
<path d="M5880 2990 c0 -5 5 -10 10 -10 6 0 10 5 10 10 0 6 -4 10 -10 10 -5 0 -10 -4 -10 -10z"/>
<path d="M1560 2965 c0 -8 5 -15 10 -15 6 0 10 7 10 15 0 8 -4 15 -10 15 -5 0 -10 -7 -10 -15z"/>
<path d="M5900 2950 c0 -5 5 -10 10 -10 6 0 10 5 10 10 0 6 -4 10 -10 10 -5 0 -10 -4 -10 -10z"/>
<path d="M3890 2940 c0 -6 18 -26 40 -46 39 -35 70 -84 70 -111 0 -16 16 -17 25 -2 4 5 0 18 -9 28 -9 10 -16 26 -16 36 0 10 -20 38 -45 62 -45 42 -65 53 -65 33z"/>
<path d="M1880 2910 c0 -5 5 -10 10 -10 6 0 10 5 10 10 0 6 -4 10 -10 10 -5 0 -10 -4 -10 -10z"/>
<path d="M5920 2890 c0 -5 5 -10 10 -10 6 0 10 5 10 10 0 6 -4 10 -10 10 -5 0 -10 -4 -10 -10z"/>
<path d="M5940 2850 c0 -5 5 -10 10 -10 6 0 10 5 10 10 0 6 -4 10 -10 10 -5 0 -10 -4 -10 -10z"/>
<path d="M5960 2796 c0 -2 10 -24 21 -48 12 -23 26 -54 32 -68 5 -14 13 -33 18 -42 5 -10 9 -22 9 -27 0 -5 8 -26 17 -47 9 -22 16 -44 15 -50 -1 -6 5 -17 13 -24 8 -7 15 -19 15 -26 0 -8 4 -22 9 -32 5 -9 15 -32 21 -49 7 -18 16 -33 21 -33 18 0 17 20 -3 61 -12 24 -22 49 -23 54 -2 17 -18 49 -32 67 -8 9 -12 21 -9 27 4 5 -3 25 -14 43 -11 18 -22 39 -25 46 -14 35 -18 48 -16 56 1 5 -5 16 -14 26 -8 9 -13 24 -9 33 3 10 -2 20 -15 26 -21 12 -31 14 -31 7z"/>
<path d="M1480 2765 c0 -8 5 -15 10 -15 6 0 10 7 10 15 0 8 -4 15 -10 15 -5 0 -10 -7 -10 -15z"/>
<path d="M4025 2750 c-5 -8 -9 -39 -10 -70 -1 -30 -5 -63 -9 -73 -5 -9 -6 -26 -3 -37 3 -11 -1 -23 -7 -28 -7 -4 -25 -26 -40 -49 -16 -23 -39 -49 -52 -58 -26 -17 -32 -35 -11 -35 38 0 147 159 133 196 -3 7 2 18 10 24 15 13 18 90 5 124 -6 16 -9 17 -16 6z"/>
<path d="M4467 2707 c-4 -11 -5 -23 -2 -28 3 -5 1 -18 -6 -30 -13 -25 5 -43 30 -30 9 4 50 6 91 4 41 -1 82 0 90 4 8 4 -30 10 -85 13 l-100 5 -5 40 c-4 30 -7 35 -13 22z"/>
<path d="M1440 2670 c0 -5 5 -10 10 -10 6 0 10 5 10 10 0 6 -4 10 -10 10 -5 0 -10 -4 -10 -10z"/>
<path d="M1660 2670 c0 -5 5 -10 10 -10 6 0 10 5 10 10 0 6 -4 10 -10 10 -5 0 -10 -4 -10 -10z"/>
<path d="M5770 2661 c0 -11 -12 -52 -26 -93 -25 -72 -31 -92 -55 -177 -16 -57 -9 -61 119 -61 122 0 125 3 94 94 -67 195 -94 256 -117 256 -8 0 -15 -9 -15 -19z"/>
<path d="M4695 2630 c3 -5 19 -10 35 -10 16 0 32 5 35 10 4 6 -10 10 -35 10 -25 0 -39 -4 -35 -10z"/>
<path d="M1640 2615 c0 -8 5 -15 10 -15 6 0 10 7 10 15 0 8 -4 15 -10 15 -5 0 -10 -7 -10 -15z"/>
<path d="M1695 2601 c-7 -12 12 -24 25 -16 11 7 4 25 -10 25 -5 0 -11 -4 -15 -9z"/>
<path d="M1400 2570 c0 -5 5 -10 10 -10 6 0 10 5 10 10 0 6 -4 10 -10 10 -5 0 -10 -4 -10 -10z"/>
<path d="M1620 2550 c0 -5 5 -10 10 -10 6 0 10 5 10 10 0 6 -4 10 -10 10 -5 0 -10 -4 -10 -10z"/>
<path d="M1720 2535 c0 -8 5 -15 10 -15 6 0 10 7 10 15 0 8 -4 15 -10 15 -5 0 -10 -7 -10 -15z"/>
<path d="M1737 2485 c-7 -16 8 -29 23 -20 10 6 2 35 -10 35 -4 0 -10 -7 -13 -15z"/>
<path d="M1360 2470 c0 -5 5 -10 10 -10 6 0 10 5 10 10 0 6 -4 10 -10 10 -5 0 -10 -4 -10 -10z"/>
<path d="M1580 2450 c0 -5 5 -10 10 -10 6 0 10 5 10 10 0 6 -4 10 -10 10 -5 0 -10 -4 -10 -10z"/>
<path d="M4461 2421 c-35 -23 4 -31 160 -31 129 0 161 -3 165 -14 3 -8 6 -115 7 -238 2 -191 4 -223 17 -223 13 0 15 34 15 245 1 135 -3 250 -7 256 -10 13 -337 18 -357 5z"/>
<path d="M1560 2410 c0 -5 5 -10 10 -10 6 0 10 5 10 10 0 6 -4 10 -10 10 -5 0 -10 -4 -10 -10z"/>
<path d="M1760 2410 c0 -5 5 -10 10 -10 6 0 10 5 10 10 0 6 -4 10 -10 10 -5 0 -10 -4 -10 -10z"/>
<path d="M1320 2370 c0 -5 5 -10 10 -10 6 0 10 5 10 10 0 6 -4 10 -10 10 -5 0 -10 -4 -10 -10z"/>
<path d="M1684 2359 c-10 -17 13 -36 27 -22 12 12 4 33 -11 33 -5 0 -12 -5 -16 -11z"/>
<path d="M1560 2350 c0 -5 5 -10 10 -10 6 0 10 5 10 10 0 6 -4 10 -10 10 -5 0 -10 -4 -10 -10z"/>
<path d="M4466 2343 c-4 -9 -2 -21 4 -27 7 -7 10 -2 10 17 0 31 -5 34 -14 10z"/>
<path d="M6165 2331 c-9 -15 2 -61 20 -81 7 -8 15 -31 19 -51 4 -21 13 -42 21 -49 8 -7 15 -19 15 -26 0 -8 4 -22 9 -32 5 -9 13 -28 18 -42 6 -14 20 -45 32 -68 24 -49 21 -62 -14 -62 -13 0 -27 -5 -30 -11 -5 -7 6 -9 30 -7 57 5 62 23 29 94 -15 32 -28 64 -29 69 0 6 -9 28 -19 50 -11 22 -18 45 -17 52 1 6 -3 14 -9 18 -5 3 -10 14 -10 24 0 10 -7 24 -15 31 -8 7 -13 16 -10 20 2 4 -4 24 -14 45 -12 24 -21 33 -26 26z"/>
<path d="M445 2310 c3 -5 8 -10 11 -10 2 0 4 5 4 10 0 6 -5 10 -11 10 -5 0 -7 -4 -4 -10z"/>
<path d="M1280 2270 c0 -5 5 -10 10 -10 6 0 10 5 10 10 0 6 -4 10 -10 10 -5 0 -10 -4 -10 -10z"/>
<path d="M6280 2252 c0 -10 7 -27 15 -38 8 -10 15 -31 15 -45 0 -14 9 -34 20 -44 11 -10 20 -26 20 -36 0 -10 9 -34 20 -54 11 -20 20 -42 20 -49 0 -28 55 -114 66 -103 4 4 1 13 -5 21 -7 8 -10 24 -6 35 6 20 -32 123 -63 171 -9 14 -17 33 -17 43 -1 9 -11 28 -23 40 -12 13 -22 30 -22 38 0 16 -19 39 -32 39 -4 0 -8 -8 -8 -18z"/>
<path d="M491 2214 c0 -11 3 -14 6 -6 3 7 2 16 -1 19 -3 4 -6 -2 -5 -13z"/>
<path d="M5797 2182 c-149 -2 -168 -4 -173 -20 -3 -9 -11 -27 -16 -39 -13 -27 -2 -66 12 -43 6 8 10 22 10 31 0 35 25 41 177 40 l147 -1 22 -27 c12 -15 20 -33 17 -39 -2 -6 5 -28 16 -48 12 -20 21 -43 21 -50 0 -20 30 -76 41 -76 22 0 1 74 -28 92 -6 5 -9 16 -6 26 2 10 -5 35 -16 56 -12 20 -21 43 -21 50 0 8 -8 22 -17 32 -16 17 -33 19 -186 16z"/>
<path d="M1240 2170 c0 -5 5 -10 10 -10 6 0 10 5 10 10 0 6 -4 10 -10 10 -5 0 -10 -4 -10 -10z"/>
<path d="M1215 2131 c-7 -12 12 -24 25 -16 11 7 4 25 -10 25 -5 0 -11 -4 -15 -9z"/>
<path d="M1460 2110 c0 -5 5 -10 10 -10 6 0 10 5 10 10 0 6 -4 10 -10 10 -5 0 -10 -4 -10 -10z"/>
<path d="M1200 2070 c0 -5 5 -10 10 -10 6 0 10 5 10 10 0 6 -4 10 -10 10 -5 0 -10 -4 -10 -10z"/>
<path d="M5580 2041 c0 -11 -4 -23 -10 -26 -5 -3 -10 -19 -10 -34 0 -51 -27 -63 -146 -67 -59 -2 -109 -6 -112 -9 -3 -3 52 -5 122 -5 l126 0 10 24 c5 13 14 27 19 31 6 3 11 16 11 29 0 12 5 27 11 33 13 13 5 43 -11 43 -5 0 -10 -9 -10 -19z"/>
<path d="M6941 2052 c-2 -26 24 -142 31 -142 15 0 7 75 -12 115 -10 22 -19 34 -19 27z"/>
<path d="M4465 2025 c-5 -16 -8 -36 -7 -43 2 -7 -7 -26 -18 -42 l-21 -30 -102 -2 -102 -2 85 -4 c108 -4 168 4 178 26 5 9 6 42 2 72 -6 52 -7 53 -15 25z"/>
<path d="M1420 2010 c0 -5 5 -10 10 -10 6 0 10 5 10 10 0 6 -4 10 -10 10 -5 0 -10 -4 -10 -10z"/>
<path d="M1160 1985 c0 -8 5 -15 10 -15 6 0 10 7 10 15 0 8 -4 15 -10 15 -5 0 -10 -7 -10 -15z"/>
<path d="M4117 1973 c-6 -34 1 -53 20 -53 12 0 14 7 9 31 -3 17 -6 35 -6 40 0 21 -18 7 -23 -18z"/>
<path d="M1400 1970 c0 -5 5 -10 10 -10 6 0 10 5 10 10 0 6 -4 10 -10 10 -5 0 -10 -4 -10 -10z"/>
<path d="M6105 1910 c-4 -6 7 -10 25 -10 18 0 29 4 25 10 -3 6 -15 10 -25 10 -10 0 -22 -4 -25 -10z"/>
<path d="M6193 1903 c9 -2 25 -2 35 0 9 3 1 5 -18 5 -19 0 -27 -2 -17 -5z"/>
<path d="M6776 1835 c-18 -14 -16 -15 30 -15 l49 0 -29 15 c-15 8 -29 15 -30 15 0 0 -10 -7 -20 -15z"/>
<path d="M6680 1810 c0 -5 11 -10 24 -10 14 0 28 5 31 10 4 6 -7 10 -24 10 -17 0 -31 -4 -31 -10z"/>
<path d="M5366 1776 c-43 -12 -57 -32 -31 -43 11 -4 21 0 27 11 6 11 16 15 28 11 10 -3 21 -1 25 5 13 21 -9 28 -49 16z"/>
<path d="M6798 1783 c-40 -10 -14 -29 34 -25 24 2 44 -26 30 -40 -9 -9 -15 -9 -23 -1 -22 22 -150 -29 -149 -60 1 -7 12 -25 25 -42 19 -23 27 -27 36 -18 9 9 9 15 0 27 -24 28 6 25 34 -4 32 -33 34 -34 55 -20 12 8 9 15 -20 45 -25 26 -31 38 -22 47 8 8 17 7 37 -6 14 -10 36 -16 48 -14 33 5 31 64 -3 89 -29 20 -58 28 -82 22z"/>
<path d="M5440 1770 c0 -5 9 -10 20 -10 11 0 20 5 20 10 0 6 -9 10 -20 10 -11 0 -20 -4 -20 -10z"/>
<path d="M5700 1770 c0 -5 5 -10 10 -10 6 0 10 5 10 10 0 6 -4 10 -10 10 -5 0 -10 -4 -10 -10z"/>
<path d="M5960 1770 c0 -5 5 -10 10 -10 6 0 10 5 10 10 0 6 -4 10 -10 10 -5 0 -10 -4 -10 -10z"/>
<path d="M6090 1760 c-21 -21 -19 -40 2 -40 6 0 19 -7 28 -15 15 -13 20 -11 54 20 21 19 42 35 47 35 5 0 9 5 9 10 0 6 -27 10 -60 10 -47 0 -64 -4 -80 -20z"/>
<path d="M6390 1770 c0 -5 7 -10 15 -10 8 0 15 5 15 10 0 6 -7 10 -15 10 -8 0 -15 -4 -15 -10z"/>
<path d="M6574 1765 c-9 -23 14 -45 26 -25 5 8 8 19 7 24 -6 17 -27 18 -33 1z"/>
<path d="M6440 1760 c0 -5 5 -10 10 -10 6 0 10 5 10 10 0 6 -4 10 -10 10 -5 0 -10 -4 -10 -10z"/>
<path d="M5700 1670 c0 -5 5 -10 10 -10 6 0 10 5 10 10 0 6 -4 10 -10 10 -5 0 -10 -4 -10 -10z"/>
<path d="M6596 1649 c-7 -35 -1 -49 20 -49 15 0 19 35 8 64 -10 25 -21 19 -28 -15z"/>
<path d="M6100 1640 c0 -5 5 -10 10 -10 6 0 10 5 10 10 0 6 -4 10 -10 10 -5 0 -10 -4 -10 -10z"/>
<path d="M5665 1570 c3 -5 10 -10 16 -10 5 0 9 5 9 10 0 6 -7 10 -16 10 -8 0 -12 -4 -9 -10z"/>
<path d="M6006 1565 c-3 -8 -2 -15 3 -15 5 0 14 7 21 15 10 12 10 15 -3 15 -8 0 -17 -7 -21 -15z"/>
<path d="M6220 1550 c0 -5 5 -10 10 -10 6 0 10 5 10 10 0 6 -4 10 -10 10 -5 0 -10 -4 -10 -10z"/>
<path d="M5796 1542 c-3 -6 -1 -14 5 -17 15 -10 25 3 12 16 -7 7 -13 7 -17 1z"/>
<path d="M5495 1530 c-4 -6 -3 -16 3 -22 13 -13 23 4 13 21 -7 10 -10 10 -16 1z"/>
<path d="M5778 1483 c-2 -10 -12 -18 -23 -18 -11 0 -20 -7 -20 -15 0 -8 6 -15 13 -14 6 1 21 2 32 3 15 1 20 8 20 31 0 32 -16 41 -22 13z"/>
<path d="M6380 1470 c0 -5 5 -10 10 -10 6 0 10 5 10 10 0 6 -4 10 -10 10 -5 0 -10 -4 -10 -10z"/>
<path d="M5290 1460 c-13 -9 -13 -11 0 -20 18 -11 39 5 24 20 -6 6 -15 6 -24 0z"/>
<path d="M5480 1450 c0 -5 5 -10 10 -10 6 0 10 5 10 10 0 6 -4 10 -10 10 -5 0 -10 -4 -10 -10z"/>
<path d="M6020 1450 c0 -5 5 -10 10 -10 6 0 10 5 10 10 0 6 -4 10 -10 10 -5 0 -10 -4 -10 -10z"/>
<path d="M6175 1451 c-7 -12 12 -24 25 -16 11 7 4 25 -10 25 -5 0 -11 -4 -15 -9z"/>
<path d="M6315 1450 c3 -5 8 -10 11 -10 2 0 4 5 4 10 0 6 -5 10 -11 10 -5 0 -7 -4 -4 -10z"/>
<path d="M1993 1029 c-18 -18 -16 -29 5 -29 9 0 34 -11 54 -25 20 -14 44 -25 54 -25 9 0 33 -8 53 -18 89 -45 127 -62 139 -62 7 0 31 -9 55 -19 47 -22 175 -65 312 -105 50 -15 119 -36 155 -46 36 -11 72 -20 81 -20 9 0 36 -7 60 -16 24 -10 69 -20 99 -25 30 -4 82 -14 115 -23 94 -23 233 -48 315 -56 41 -5 117 -15 169 -24 262 -46 1024 -47 1261 -2 47 9 110 16 141 16 31 0 76 7 99 15 24 8 75 18 114 21 39 4 82 12 96 19 14 7 52 16 85 20 33 4 71 13 85 20 14 7 48 16 75 20 28 4 59 13 71 20 12 8 39 17 60 21 21 4 55 14 74 24 19 10 51 20 71 24 20 3 44 15 54 26 l17 19 -23 5 c-13 3 -119 10 -235 17 -184 9 -226 9 -322 -5 -61 -9 -126 -23 -144 -31 -19 -7 -63 -17 -98 -21 -36 -4 -83 -13 -105 -21 -22 -8 -89 -18 -150 -24 -60 -5 -126 -14 -145 -19 -112 -30 -791 -37 -963 -11 -34 6 -111 15 -172 21 -60 7 -135 18 -165 26 -30 7 -86 18 -125 23 -38 5 -88 16 -110 24 -22 8 -60 16 -85 18 -25 1 -56 7 -70 12 -36 14 -185 56 -255 72 -33 7 -95 27 -138 43 -42 17 -101 36 -130 43 -28 6 -61 18 -72 25 -14 9 -64 13 -165 13 -128 0 -197 7 -265 26 -11 3 -26 0 -32 -6z"/>
<path d="M5580 610 c0 -5 9 -10 19 -10 11 0 23 5 26 10 4 6 -5 10 -19 10 -14 0 -26 -4 -26 -10z"/>
<path d="M5430 570 c0 -13 11 -13 30 0 12 8 11 10 -7 10 -13 0 -23 -4 -23 -10z"/>
<path d="M3633 503 c9 -2 25 -2 35 0 9 3 1 5 -18 5 -19 0 -27 -2 -17 -5z"/>
<path d="M5038 503 c7 -3 16 -2 19 1 4 3 -2 6 -13 5 -11 0 -14 -3 -6 -6z"/>
<path d="M4097 468 c-7 -4 125 -8 292 -8 167 0 301 3 297 8 -10 9 -574 9 -589 0z"/>
</g>
</g>
  <g id="id2:id2" transform="matrix(1.25,0,0,1.25,0.0,0.0)"><g transform="translate(0.000000,180.800000) scale(0.040000,-0.040000)" fill="#ee3338" stroke="none">
<path d="M1809 4053 c-17 -38 -34 -77 -39 -88 -5 -11 -50 -119 -100 -240 -50 -121 -95 -229 -100 -240 -10 -22 -77 -182 -135 -320 -21 -49 -58 -137 -82 -195 -69 -163 -117 -277 -158 -375 -53 -126 -95 -227 -105 -250 -5 -11 -22 -51 -38 -90 -16 -38 -52 -124 -80 -190 -28 -66 -80 -192 -117 -280 -36 -88 -74 -178 -85 -201 -11 -23 -20 -45 -20 -49 0 -4 -6 -21 -14 -38 -8 -18 -37 -86 -66 -152 -28 -66 -56 -130 -62 -143 -7 -14 -8 -26 -2 -32 5 -5 117 -14 249 -20 132 -5 294 -14 360 -20 66 -5 228 -14 360 -20 132 -6 301 -15 375 -21 74 -6 263 -17 420 -24 278 -14 558 -30 1045 -60 132 -8 301 -17 375 -20 74 -3 200 -10 280 -16 142 -9 392 -23 970 -53 157 -9 355 -20 440 -26 85 -6 254 -15 375 -20 121 -5 247 -12 280 -15 56 -5 260 -16 535 -30 63 -4 214 -13 334 -21 121 -8 253 -14 293 -14 41 0 83 -5 95 -11 11 -6 22 -8 25 -5 12 12 -17 57 -44 68 -16 7 -46 24 -68 38 -22 15 -71 44 -108 66 -38 21 -80 46 -93 54 -25 16 -102 62 -349 208 -88 52 -167 101 -175 108 -13 11 -507 14 -2780 19 -1709 4 -2813 3 -2890 -3 -69 -5 -128 -6 -133 -3 -4 4 2 16 13 26 11 10 20 25 20 34 0 9 9 31 20 49 11 18 20 40 20 48 0 9 6 28 14 42 8 15 36 77 61 137 65 154 76 177 98 202 11 12 45 86 77 165 32 79 105 260 163 403 58 143 138 339 177 435 39 96 77 184 84 195 13 20 23 21 194 20 129 -1 185 -5 195 -14 9 -7 25 -38 36 -69 24 -70 88 -240 101 -267 32 -74 150 -397 150 -414 0 -17 38 -56 47 -47 2 1 6 182 9 402 3 219 8 401 11 404 6 6 462 2 474 -5 5 -4 9 -175 9 -430 0 -321 3 -426 12 -431 18 -11 261 -12 276 -1 9 7 12 106 12 433 0 277 4 425 10 429 6 4 123 6 260 6 203 0 250 3 250 14 0 7 -16 22 -36 32 -31 15 -175 102 -584 348 -47 28 -92 54 -100 58 -8 4 -24 13 -35 20 -11 7 -57 35 -103 62 -46 28 -91 55 -100 60 -9 6 -55 33 -101 60 -45 28 -98 59 -116 70 -18 11 -94 56 -170 100 -75 44 -149 88 -163 97 -15 9 -60 35 -99 58 -40 23 -75 45 -78 51 -4 5 -15 9 -26 9 -15 0 -28 -17 -50 -67z"/>
<path d="M2355 4050 c8 -13 115 -13 135 0 10 7 -9 10 -63 10 -50 0 -76 -4 -72 -10z"/>
<path d="M3490 4050 c8 -5 33 -10 55 -10 22 0 47 5 55 10 10 7 -6 10 -55 10 -49 0 -65 -3 -55 -10z"/>
<path d="M3830 4010 c20 -13 77 -13 85 0 4 6 -14 10 -47 10 -38 0 -49 -3 -38 -10z"/>
<path d="M4085 3970 c3 -5 19 -10 36 -10 16 0 29 5 29 10 0 6 -16 10 -36 10 -21 0 -33 -4 -29 -10z"/>
<path d="M2670 3952 c0 -10 25 -21 73 -31 55 -12 26 -26 -72 -35 -87 -8 -109 -6 -180 13 -44 11 -87 18 -96 15 -21 -9 -19 -34 3 -34 11 0 27 -9 37 -20 10 -11 23 -20 28 -20 6 0 18 -7 27 -15 21 -19 120 -80 175 -109 22 -12 60 -34 85 -51 95 -62 140 -84 190 -92 56 -8 64 -12 52 -26 -8 -10 -2 -20 23 -40 19 -15 38 -27 42 -27 5 0 33 -16 63 -36 30 -19 87 -53 125 -75 39 -22 84 -49 100 -59 17 -11 37 -23 45 -27 8 -3 33 -18 55 -32 22 -13 63 -38 90 -55 28 -17 59 -37 70 -43 61 -39 139 -74 196 -88 75 -19 165 -67 195 -103 34 -42 54 -24 54 47 0 33 4 63 10 66 5 3 114 6 242 6 l233 0 7 -27 c4 -14 6 -93 6 -175 -1 -104 2 -152 11 -163 9 -11 30 -14 79 -12 37 1 73 5 80 10 9 5 12 55 12 186 0 98 3 181 8 183 4 3 36 2 72 -2 74 -7 110 -4 110 10 0 5 -12 14 -27 20 -16 6 -46 20 -68 30 -68 32 -214 89 -340 131 -187 63 -261 83 -560 153 -60 14 -121 29 -135 32 -14 4 -41 7 -60 8 -19 1 -75 9 -123 19 -129 24 -255 37 -410 42 -143 5 -194 15 -181 35 5 9 45 9 148 3 78 -5 175 -9 216 -9 41 0 91 -4 110 -8 19 -4 71 -9 115 -10 108 -4 358 -44 580 -92 306 -67 711 -198 910 -294 44 -22 90 -42 101 -45 12 -4 68 -31 124 -61 56 -30 104 -55 107 -55 3 0 19 -10 35 -22 l31 -21 18 22 c11 13 19 31 19 41 0 9 9 29 21 44 l20 26 125 0 c68 0 124 4 124 9 0 13 -122 95 -255 171 -257 148 -608 299 -927 398 -212 67 -588 155 -708 168 -36 3 -76 11 -89 16 -13 4 -83 13 -155 19 -92 7 -134 14 -142 24 -9 12 -61 15 -280 17 -171 2 -269 7 -268 13 0 6 13 12 30 15 23 4 26 7 14 15 -21 13 -370 20 -370 7z m154 -43 c-3 -5 -10 -7 -15 -3 -5 3 -7 10 -3 15 3 5 10 7 15 3 5 -3 7 -10 3 -15z m114 6 c-2 -5 -21 -10 -43 -10 -44 -1 -58 3 -51 13 7 11 96 8 94 -3z"/>
<path d="M4285 3930 c3 -5 12 -10 20 -10 8 0 17 5 20 10 4 6 -5 10 -20 10 -15 0 -24 -4 -20 -10z"/>
<path d="M1608 3888 c9 -9 15 -9 24 0 9 9 7 12 -12 12 -19 0 -21 -3 -12 -12z"/>
<path d="M4455 3890 c3 -5 15 -10 26 -10 10 0 19 5 19 10 0 6 -12 10 -26 10 -14 0 -23 -4 -19 -10z"/>
<path d="M1480 3850 c0 -5 6 -10 14 -10 8 0 18 5 21 10 3 6 -3 10 -14 10 -12 0 -21 -4 -21 -10z"/>
<path d="M4625 3850 c4 -6 11 -8 16 -5 14 9 11 15 -7 15 -8 0 -12 -5 -9 -10z"/>
<path d="M1380 3810 c0 -5 4 -10 9 -10 6 0 13 5 16 10 3 6 -1 10 -9 10 -9 0 -16 -4 -16 -10z"/>
<path d="M4750 3810 c0 -5 9 -10 20 -10 11 0 20 5 20 10 0 6 -9 10 -20 10 -11 0 -20 -4 -20 -10z"/>
<path d="M1290 3770 c0 -5 5 -10 10 -10 6 0 10 5 10 10 0 6 -4 10 -10 10 -5 0 -10 -4 -10 -10z"/>
<path d="M4880 3770 c0 -5 7 -10 15 -10 8 0 15 5 15 10 0 6 -7 10 -15 10 -8 0 -15 -4 -15 -10z"/>
<path d="M1509 3757 c15 -18 51 -23 51 -7 0 6 -6 10 -14 10 -8 0 -23 3 -33 7 -16 6 -16 5 -4 -10z"/>
<path d="M4995 3730 c3 -5 13 -10 21 -10 8 0 14 5 14 10 0 6 -9 10 -21 10 -11 0 -17 -4 -14 -10z"/>
<path d="M1392 3719 c2 -8 20 -15 39 -17 40 -4 30 13 -15 24 -22 5 -28 4 -24 -7z"/>
<path d="M5115 3690 c3 -5 10 -10 16 -10 5 0 9 5 9 10 0 6 -7 10 -16 10 -8 0 -12 -4 -9 -10z"/>
<path d="M1300 3676 c0 -10 9 -16 25 -16 14 0 25 5 25 10 0 6 -4 10 -9 10 -5 0 -16 3 -25 6 -11 4 -16 1 -16 -10z"/>
<path d="M1207 3643 c-15 -14 -6 -23 23 -23 32 0 40 14 14 24 -20 8 -29 8 -37 -1z"/>
<path d="M1475 3587 c-154 -70 -366 -218 -471 -329 -163 -171 -250 -357 -269 -574 -8 -90 16 -286 43 -344 8 -19 21 -51 27 -70 7 -22 17 -35 28 -35 24 0 34 -20 42 -77 6 -40 28 -80 39 -67 6 8 116 265 232 544 67 161 135 324 159 380 62 145 60 137 41 147 -15 9 -13 13 18 41 26 24 47 61 80 142 24 61 58 141 75 179 18 38 30 75 29 82 -2 10 -23 4 -73 -19z m-191 -468 c-3 -5 -10 -7 -15 -3 -5 3 -7 10 -3 15 3 5 10 7 15 3 5 -3 7 -10 3 -15z m-75 -55 c-6 -7 -15 -11 -21 -8 -5 3 -4 12 3 20 6 7 15 11 21 8 5 -3 4 -12 -3 -20z m-135 -125 c-3 -5 -10 -7 -15 -3 -5 3 -7 10 -3 15 3 5 10 7 15 3 5 -3 7 -10 3 -15z m-55 -65 c-12 -13 -26 -21 -31 -18 -5 4 0 17 13 30 12 13 26 21 31 18 5 -4 0 -17 -13 -30z m-45 -65 c-3 -5 -10 -7 -15 -3 -5 3 -7 10 -3 15 3 5 10 7 15 3 5 -3 7 -10 3 -15z m-30 -50 c-3 -5 -10 -7 -15 -3 -5 3 -7 10 -3 15 3 5 10 7 15 3 5 -3 7 -10 3 -15z m-80 -200 c-3 -5 -10 -7 -15 -3 -5 3 -7 10 -3 15 3 5 10 7 15 3 5 -3 7 -10 3 -15z m-10 -50 c-3 -5 -10 -7 -15 -3 -5 3 -7 10 -3 15 3 5 10 7 15 3 5 -3 7 -10 3 -15z"/>
<path d="M5320 3610 c0 -5 5 -10 10 -10 6 0 10 5 10 10 0 6 -4 10 -10 10 -5 0 -10 -4 -10 -10z"/>
<path d="M1127 3604 c-14 -14 -7 -25 13 -22 12 2 21 8 21 13 0 12 -24 18 -34 9z"/>
<path d="M5400 3570 c0 -5 7 -10 16 -10 8 0 12 5 9 10 -3 6 -10 10 -16 10 -5 0 -9 -4 -9 -10z"/>
<path d="M1013 3533 c-26 -17 -30 -33 -9 -33 7 0 21 11 30 25 19 28 11 31 -21 8z"/>
<path d="M5480 3530 c0 -5 7 -10 15 -10 8 0 15 5 15 10 0 6 -7 10 -15 10 -8 0 -15 -4 -15 -10z"/>
<path d="M5565 3490 c3 -5 10 -10 16 -10 5 0 9 5 9 10 0 6 -7 10 -16 10 -8 0 -12 -4 -9 -10z"/>
<path d="M852 3420 c-82 -64 -212 -194 -212 -212 0 -20 21 -2 94 80 74 81 133 132 154 132 4 0 23 16 42 35 54 56 20 41 -78 -35z"/>
<path d="M770 3449 c0 -5 5 -7 10 -4 6 3 10 8 10 11 0 2 -4 4 -10 4 -5 0 -10 -5 -10 -11z"/>
<path d="M5645 3450 c3 -5 10 -10 16 -10 5 0 9 5 9 10 0 6 -7 10 -16 10 -8 0 -12 -4 -9 -10z"/>
<path d="M740 3420 c-8 -5 -12 -12 -9 -15 4 -3 12 1 19 10 14 17 11 19 -10 5z"/>
<path d="M5720 3410 c0 -5 7 -10 16 -10 8 0 12 5 9 10 -3 6 -10 10 -16 10 -5 0 -9 -4 -9 -10z"/>
<path d="M700 3380 c-8 -5 -12 -12 -9 -15 4 -3 12 1 19 10 14 17 11 19 -10 5z"/>
<path d="M535 3179 c-4 -6 -5 -12 -2 -15 2 -3 7 2 10 11 7 17 1 20 -8 4z"/>
<path d="M575 3110 c-10 -11 -16 -22 -13 -25 3 -3 13 4 23 15 10 11 16 22 13 25 -3 3 -13 -4 -23 -15z"/>
<path d="M460 3045 c0 -8 5 -15 10 -15 6 0 10 7 10 15 0 8 -4 15 -10 15 -5 0 -10 -7 -10 -15z"/>
<path d="M527 3033 c-10 -9 -9 -23 2 -23 5 0 11 7 15 15 5 15 -5 20 -17 8z"/>
<path d="M1570 2990 c0 -5 7 -10 15 -10 8 0 15 5 15 10 0 6 -7 10 -15 10 -8 0 -15 -4 -15 -10z"/>
<path d="M1860 2975 c0 -8 5 -15 10 -15 6 0 10 7 10 15 0 8 -4 15 -10 15 -5 0 -10 -7 -10 -15z"/>
<path d="M420 2929 c0 -11 5 -17 10 -14 6 3 10 13 10 21 0 8 -4 14 -10 14 -5 0 -10 -9 -10 -21z"/>
<path d="M486 2941 c-4 -7 -5 -15 -2 -18 9 -9 19 4 14 18 -4 11 -6 11 -12 0z"/>
<path d="M6000 2945 c0 -2 10 -26 21 -52 28 -64 31 -71 109 -263 12 -30 28 -68 36 -85 7 -16 28 -68 46 -115 18 -47 50 -119 72 -160 103 -194 135 -269 145 -330 5 -29 15 -56 22 -61 8 -5 44 -9 82 -9 89 0 94 9 77 152 -28 251 -159 499 -389 742 -108 113 -221 206 -221 181z"/>
<path d="M5218 2618 c-2 -177 -7 -331 -12 -340 -6 -14 -4 -18 11 -18 24 0 44 34 87 151 19 52 57 155 85 229 29 74 50 144 49 155 -2 10 -17 28 -35 40 -95 60 -152 95 -166 101 -15 5 -17 -28 -19 -318z"/>
<path d="M1540 2915 c0 -8 5 -15 10 -15 6 0 10 7 10 15 0 8 -4 15 -10 15 -5 0 -10 -7 -10 -15z"/>
<path d="M1520 2870 c0 -5 5 -10 10 -10 6 0 10 5 10 10 0 6 -4 10 -10 10 -5 0 -10 -4 -10 -10z"/>
<path d="M1500 2815 c0 -8 5 -15 10 -15 6 0 10 7 10 15 0 8 -4 15 -10 15 -5 0 -10 -7 -10 -15z"/>
<path d="M380 2640 c0 -93 4 -150 10 -150 6 0 10 57 10 150 0 93 -4 150 -10 150 -6 0 -10 -57 -10 -150z"/>
<path d="M447 2783 c-11 -10 -8 -91 3 -98 6 -4 10 15 10 49 0 57 -1 61 -13 49z"/>
<path d="M1460 2715 c0 -8 5 -15 10 -15 6 0 10 7 10 15 0 8 -4 15 -10 15 -5 0 -10 -7 -10 -15z"/>
<path d="M5780 2638 c0 -25 -22 -93 -33 -104 -4 -4 -7 -18 -7 -30 0 -13 -4 -26 -10 -29 -5 -3 -10 -19 -10 -34 0 -15 -5 -32 -11 -38 -6 -6 -9 -18 -7 -28 2 -14 19 -16 101 -18 l97 -2 0 27 c0 15 -4 30 -10 33 -5 3 -10 15 -10 25 0 11 -9 35 -20 55 -11 20 -20 42 -20 50 0 9 -4 23 -9 33 -5 9 -16 32 -23 50 -15 37 -28 42 -28 10z"/>
<path d="M1420 2615 c0 -8 5 -15 10 -15 6 0 10 7 10 15 0 8 -4 15 -10 15 -5 0 -10 -7 -10 -15z"/>
<path d="M446 2564 c-9 -25 -7 -64 4 -64 6 0 10 18 10 40 0 43 -4 50 -14 24z"/>
<path d="M6735 2570 c3 -5 8 -10 11 -10 2 0 4 5 4 10 0 6 -5 10 -11 10 -5 0 -7 -4 -4 -10z"/>
<path d="M1380 2531 c0 -5 -3 -17 -6 -25 -5 -12 -2 -15 10 -10 17 7 22 44 6 44 -5 0 -10 -4 -10 -9z"/>
<path d="M1337 2418 c-7 -25 -3 -33 12 -23 13 8 15 45 2 45 -5 0 -11 -10 -14 -22z"/>
<path d="M3969 2370 c-26 -27 -72 -60 -111 -78 -69 -33 -211 -72 -265 -72 -17 0 -34 -4 -37 -9 -3 -4 -8 -78 -11 -163 -5 -127 -3 -157 8 -167 11 -8 81 -11 253 -9 l239 3 0 270 c0 308 1 305 -76 225z"/>
<path d="M480 2360 c0 -11 5 -20 10 -20 6 0 10 9 10 20 0 11 -4 20 -10 20 -5 0 -10 -9 -10 -20z"/>
<path d="M420 2350 c0 -11 5 -20 10 -20 6 0 10 9 10 20 0 11 -4 20 -10 20 -5 0 -10 -9 -10 -20z"/>
<path d="M1293 2313 c-7 -15 -11 -29 -8 -31 9 -9 35 20 35 39 0 27 -13 23 -27 -8z"/>
<path d="M4556 2321 c-11 -18 -10 -431 1 -442 5 -5 45 -9 89 -7 l79 3 0 225 0 225 -82 3 c-46 2 -84 -2 -87 -7z"/>
<path d="M520 2263 c0 -14 19 -38 25 -32 8 8 -5 39 -16 39 -5 0 -9 -3 -9 -7z"/>
<path d="M460 2235 c0 -8 5 -15 10 -15 6 0 10 7 10 15 0 8 -4 15 -10 15 -5 0 -10 -7 -10 -15z"/>
<path d="M1253 2213 c-7 -15 -11 -29 -8 -31 9 -9 35 20 35 39 0 27 -13 23 -27 -8z"/>
<path d="M6920 2165 c0 -14 5 -25 10 -25 6 0 10 11 10 25 0 14 -4 25 -10 25 -5 0 -10 -11 -10 -25z"/>
<path d="M560 2172 c0 -5 7 -16 16 -23 14 -12 16 -11 13 5 -4 20 -29 35 -29 18z"/>
<path d="M1480 2150 c0 -5 5 -10 10 -10 6 0 10 5 10 10 0 6 -4 10 -10 10 -5 0 -10 -4 -10 -10z"/>
<path d="M600 2107 c0 -8 9 -22 20 -32 11 -10 20 -23 20 -28 0 -20 140 -187 156 -187 16 0 -6 33 -66 98 -38 42 -70 79 -70 84 0 13 -44 78 -52 78 -5 0 -8 -6 -8 -13z"/>
<path d="M1200 2090 c0 -5 5 -10 10 -10 6 0 10 5 10 10 0 6 -4 10 -10 10 -5 0 -10 -4 -10 -10z"/>
<path d="M1460 2090 c0 -5 5 -10 10 -10 6 0 10 5 10 10 0 6 -4 10 -10 10 -5 0 -10 -4 -10 -10z"/>
<path d="M1535 2034 c-14 -31 -25 -60 -25 -64 0 -5 -8 -21 -17 -38 -9 -16 -14 -36 -10 -46 6 -15 25 -16 179 -14 l173 3 3 23 c2 13 -1 28 -6 35 -5 7 -15 37 -23 67 -20 87 -25 90 -146 90 l-103 0 -25 -56z"/>
<path d="M5693 2078 c-6 -7 -18 -37 -27 -66 -20 -65 -14 -79 52 -115 44 -24 61 -27 140 -27 127 0 164 17 129 59 -7 9 -26 49 -41 89 l-28 72 -108 0 c-74 0 -111 -4 -117 -12z"/>
<path d="M1440 2050 c0 -5 5 -10 10 -10 6 0 10 5 10 10 0 6 -4 10 -10 10 -5 0 -10 -4 -10 -10z"/>
<path d="M1180 2035 c0 -8 5 -15 10 -15 6 0 10 7 10 15 0 8 -4 15 -10 15 -5 0 -10 -7 -10 -15z"/>
<path d="M1420 1990 c0 -5 5 -10 10 -10 6 0 10 5 10 10 0 6 -4 10 -10 10 -5 0 -10 -4 -10 -10z"/>
<path d="M1400 1950 c0 -5 5 -10 10 -10 6 0 10 5 10 10 0 6 -4 10 -10 10 -5 0 -10 -4 -10 -10z"/>
<path d="M1140 1935 c0 -8 5 -15 10 -15 6 0 10 7 10 15 0 8 -4 15 -10 15 -5 0 -10 -7 -10 -15z"/>
<path d="M1225 1810 l-159 -5 -13 -25 c-18 -35 -63 -138 -63 -144 0 -3 -22 -54 -50 -114 -27 -60 -50 -116 -50 -126 0 -15 217 -16 2973 -16 2363 0 2976 3 2989 13 9 6 27 39 41 72 100 234 130 301 138 311 5 6 7 18 4 26 -5 13 -362 15 -2828 14 -1552 -1 -2894 -3 -2982 -6z m4249 -60 c28 -10 50 -45 42 -66 -5 -12 -13 -10 -43 11 -70 47 -158 21 -194 -59 -25 -54 -24 -79 4 -112 30 -35 91 -37 136 -4 20 13 38 19 49 15 14 -6 12 -11 -17 -33 -72 -56 -162 -59 -212 -6 -60 64 4 210 112 253 32 13 92 13 123 1z m288 -50 c10 -87 9 -186 -2 -216 -12 -30 -26 -23 -32 16 -3 24 -7 25 -74 28 l-71 3 -27 -36 c-30 -39 -51 -39 -36 0 5 13 35 58 67 98 32 40 73 95 91 121 25 36 38 47 55 44 19 -3 23 -11 29 -58z m202 47 c12 -9 19 -35 25 -96 6 -53 14 -89 25 -99 8 -9 17 -14 19 -11 2 2 16 46 32 97 28 88 47 123 58 105 9 -15 -43 -185 -77 -250 -18 -36 -44 -49 -62 -31 -17 16 -37 153 -28 190 13 63 -44 16 -71 -58 -46 -125 -63 -152 -80 -125 -3 6 15 61 40 123 25 61 45 116 45 122 0 14 31 46 45 46 6 0 19 -6 29 -13z m403 -85 c-34 -48 -75 -106 -90 -128 -15 -23 -39 -52 -53 -65 -42 -39 -52 -15 -56 141 l-3 135 20 0 c18 0 20 -8 25 -104 3 -58 10 -106 15 -107 6 -2 37 35 70 83 71 101 111 147 124 138 6 -3 -18 -45 -52 -93z m221 86 c15 -15 17 -274 2 -283 -5 -3 -16 10 -24 30 l-15 35 -64 0 c-60 0 -65 -2 -95 -36 -17 -19 -36 -33 -42 -29 -14 9 14 61 60 111 21 23 51 61 66 85 35 55 74 99 89 99 6 0 16 -5 23 -12z m282 -8 c11 -11 20 -24 20 -29 0 -19 -22 -23 -39 -7 -24 22 -64 20 -85 -3 l-18 -19 46 -46 c38 -37 46 -51 46 -81 0 -95 -158 -140 -185 -54 -14 43 23 53 53 14 25 -32 45 -32 71 1 28 36 27 41 -17 83 -43 41 -53 85 -26 126 26 39 101 48 134 15z"/>
<path d="M5663 1640 c-32 -55 -30 -70 11 -70 45 0 58 18 50 69 -9 53 -32 54 -61 1z"/>
<path d="M6534 1682 c-22 -16 -65 -84 -61 -96 7 -18 59 -27 75 -14 13 11 17 104 4 112 -4 2 -12 2 -18 -2z"/>
<path d="M2471 1003 c-7 -3 -22 -14 -32 -24 -11 -11 -28 -19 -39 -19 -11 0 -20 -5 -20 -10 0 -20 33 -23 62 -7 37 21 80 22 124 1 18 -9 52 -21 74 -28 44 -13 54 -29 21 -34 -11 -2 -25 -10 -31 -18 -11 -12 -6 -14 26 -14 22 1 50 7 64 15 24 13 76 10 94 -5 4 -5 -1 -13 -13 -19 -35 -19 -25 -34 19 -27 22 3 58 9 79 12 47 7 88 -10 71 -31 -17 -20 14 -27 66 -14 57 15 115 4 121 -22 3 -10 13 -19 22 -19 127 -1 210 -9 236 -23 17 -9 51 -17 77 -17 26 0 122 -9 215 -20 332 -38 788 -36 1063 5 52 8 127 19 165 24 102 13 230 39 305 61 36 11 88 23 115 27 27 3 60 12 72 18 22 11 22 13 6 20 -10 4 -65 9 -123 11 -395 15 -620 26 -715 34 -60 5 -220 14 -355 20 -135 6 -299 15 -365 20 -66 6 -221 15 -345 20 -124 6 -281 15 -350 20 -69 5 -213 12 -320 15 -107 4 -231 13 -276 21 -86 15 -92 15 -113 7z"/>
<path d="M2255 990 c3 -5 15 -10 25 -10 10 0 22 5 25 10 4 6 -7 10 -25 10 -18 0 -29 -4 -25 -10z"/>
<path d="M2490 906 c0 -12 11 -16 41 -16 52 0 48 24 -4 28 -28 2 -37 -1 -37 -12z"/>
<path d="M5935 710 c-3 -5 1 -10 9 -10 9 0 16 5 16 10 0 6 -4 10 -9 10 -6 0 -13 -4 -16 -10z"/>
<path d="M2735 670 c-4 -6 3 -10 14 -10 25 0 27 6 6 13 -8 4 -17 2 -20 -3z"/>
<path d="M5825 670 c-3 -5 1 -10 9 -10 9 0 16 5 16 10 0 6 -4 10 -9 10 -6 0 -13 -4 -16 -10z"/>
<path d="M5710 630 c0 -5 7 -10 16 -10 8 0 12 5 9 10 -3 6 -10 10 -16 10 -5 0 -9 -4 -9 -10z"/>
<path d="M2898 623 c7 -3 16 -2 19 1 4 3 -2 6 -13 5 -11 0 -14 -3 -6 -6z"/>
<path d="M5550 590 c0 -5 9 -10 20 -10 11 0 20 5 20 10 0 6 -9 10 -20 10 -11 0 -20 -4 -20 -10z"/>
<path d="M3068 583 c7 -3 16 -2 19 1 4 3 -2 6 -13 5 -11 0 -14 -3 -6 -6z"/>
<path d="M5380 550 c0 -5 11 -10 25 -10 14 0 25 5 25 10 0 6 -11 10 -25 10 -14 0 -25 -4 -25 -10z"/>
<path d="M5180 510 c0 -5 14 -10 30 -10 17 0 30 5 30 10 0 6 -13 10 -30 10 -16 0 -30 -4 -30 -10z"/>
<path d="M4845 469 c-24 -5 -20 -7 23 -8 28 0 52 1 52 3 0 8 -47 11 -75 5z"/>
</g>
</g>
  <g id="id3:id3" transform="matrix(1.25,0,0,1.25,0.0,0.0)"><g transform="translate(0.000000,180.800000) scale(0.040000,-0.040000)" fill="#373535" stroke="none">
<path d="M1519 3087 c-9 -10 -24 -37 -34 -60 -9 -23 -22 -51 -27 -61 -6 -11 -14 -31 -18 -45 -5 -14 -43 -109 -84 -211 -42 -102 -97 -237 -122 -300 -25 -63 -56 -140 -69 -170 -13 -30 -48 -116 -79 -192 -31 -75 -74 -163 -96 -195 -33 -47 -41 -69 -43 -108 -2 -46 0 -50 23 -53 14 -2 30 -8 37 -14 13 -10 36 19 48 62 4 14 14 33 23 42 14 16 97 18 1306 20 710 2 1391 2 1513 0 205 -2 222 -1 227 15 2 10 8 90 11 178 l7 160 -46 44 c-25 25 -48 42 -51 39 -4 -3 -7 -82 -8 -174 l-2 -169 -60 -8 c-33 -4 -139 -6 -235 -4 l-175 3 -3 148 c-2 101 1 153 9 162 6 8 29 14 50 14 103 0 328 86 329 126 0 5 -15 25 -34 43 l-34 33 -29 -19 c-55 -40 -178 -74 -251 -71 l-67 3 -2 74 c-2 41 2 80 7 86 6 7 26 16 46 19 39 8 98 55 120 97 33 64 3 147 -66 182 -26 13 -54 17 -110 15 l-75 -3 -5 -430 -5 -430 -150 0 -150 0 -3 339 c-2 257 -5 342 -15 348 -19 12 -75 9 -84 -4 -4 -7 -8 -94 -9 -194 0 -99 -3 -185 -7 -190 -3 -6 -58 -10 -129 -9 l-123 0 -5 432 c-3 237 -9 435 -13 440 -7 7 -507 7 -514 0 -1 -2 -3 -158 -4 -347 -1 -190 -5 -355 -10 -368 -10 -27 -24 -22 -32 10 -3 13 -14 46 -25 73 -66 170 -159 414 -189 495 -18 52 -42 106 -52 120 l-18 25 -189 0 c-168 0 -190 -2 -205 -18z m333 -114 c10 -9 18 -22 18 -28 0 -7 7 -18 15 -25 8 -7 13 -16 10 -20 -3 -4 8 -41 24 -81 37 -94 137 -355 161 -423 11 -28 26 -69 34 -91 111 -296 134 -361 127 -368 -4 -4 -76 -6 -160 -5 l-153 3 -38 112 c-20 62 -43 119 -50 128 -10 12 -41 15 -168 15 -146 0 -157 -1 -179 -22 -13 -12 -23 -30 -23 -39 0 -10 -9 -34 -20 -54 -11 -20 -20 -44 -20 -55 0 -10 -5 -22 -10 -25 -6 -4 -8 -10 -5 -14 2 -5 -6 -18 -19 -30 -21 -20 -32 -22 -122 -19 l-99 3 -3 31 c-2 20 4 36 18 49 11 10 20 28 20 41 0 13 5 26 10 29 6 3 10 15 10 26 0 22 16 54 44 86 12 14 17 31 14 47 -4 18 2 32 18 47 16 15 24 34 24 54 0 20 8 39 21 51 14 13 19 27 17 46 -3 20 2 34 19 50 15 14 23 33 23 53 0 19 8 39 20 50 12 11 20 31 20 50 0 19 8 39 20 50 12 11 20 31 20 50 0 19 8 39 20 50 11 10 20 26 20 36 0 10 9 34 20 54 11 20 20 43 20 52 0 9 7 25 17 35 14 15 32 18 131 18 93 0 119 -3 134 -17z m805 -417 c2 -236 6 -432 9 -435 3 -3 92 -8 197 -11 l192 -5 0 -85 0 -85 -344 -3 c-190 -1 -349 2 -353 6 -9 9 -11 1029 -2 1043 3 5 72 8 152 7 l147 -3 2 -429z m-894 -494 c9 -10 23 -42 31 -72 8 -30 17 -62 21 -71 3 -10 1 -20 -6 -25 -17 -10 -290 -7 -301 4 -5 5 -2 21 6 38 8 16 24 52 35 79 22 56 34 62 137 64 47 1 65 -3 77 -17z"/>
<path d="M1662 2658 c-7 -7 -12 -19 -12 -27 0 -18 -21 -80 -33 -98 -7 -11 -35 -88 -54 -146 -12 -37 13 -46 119 -45 106 1 124 10 100 49 -7 10 -12 27 -12 37 0 10 -4 22 -8 28 -5 5 -14 29 -21 54 -7 25 -17 54 -22 65 -4 11 -12 35 -17 54 -9 38 -22 47 -40 29z"/>
<path d="M6974 1109 l-19 -21 33 -29 c18 -16 41 -29 51 -29 10 0 26 -9 35 -19 10 -11 25 -17 36 -14 14 4 22 -2 30 -21 5 -14 14 -26 20 -26 6 0 24 -10 39 -21 16 -12 33 -19 39 -16 5 4 22 -7 37 -23 16 -17 34 -30 41 -30 6 0 17 -7 24 -15 7 -8 16 -13 20 -10 4 2 15 -4 25 -15 14 -16 16 -23 7 -32 -9 -9 -16 -7 -31 6 -17 15 -35 16 -174 10 -136 -6 -160 -5 -192 10 -29 14 -60 17 -148 16 -62 -1 -114 -1 -117 0 -3 2 -25 4 -50 6 -25 2 -63 6 -85 10 -33 5 -44 2 -59 -15 l-19 -21 18 -20 c14 -16 31 -20 80 -20 33 0 65 -4 71 -9 5 -5 50 -12 99 -16 50 -3 123 -9 163 -11 49 -4 78 -2 88 6 11 10 17 10 28 1 9 -8 60 -12 145 -12 88 0 139 -4 158 -13 15 -8 65 -16 111 -20 l82 -5 0 69 c0 49 -4 70 -12 70 -7 0 -48 23 -91 50 -43 28 -82 50 -87 50 -5 0 -26 11 -46 25 -20 14 -42 25 -49 25 -7 0 -23 9 -37 20 -14 10 -49 32 -79 47 -30 16 -73 41 -96 56 -51 32 -64 33 -89 6z"/>
</g>
</g>
  <g id="id4:id4" transform="matrix(1.25,0,0,1.25,0.0,0.0)"><g transform="translate(0.000000,180.800000) scale(0.040000,-0.040000)" fill="#292929" stroke="none">
<path d="M0 2260 l0 -2260 3780 0 3780 0 0 354 0 354 -78 11 c-43 6 -86 9 -94 6 -8 -3 -21 1 -27 9 -11 13 -9 17 13 26 14 5 26 16 26 25 0 17 -35 21 -45 5 -3 -5 -31 -10 -61 -10 -34 0 -53 -4 -52 -11 4 -16 -27 -33 -46 -26 -22 9 -20 28 4 34 54 14 3 30 -120 39 -58 4 -79 1 -94 -11 l-20 -15 20 -14 19 -15 -18 -7 c-10 -4 -53 -3 -95 1 -43 4 -108 11 -147 14 -53 5 -70 10 -70 21 0 9 10 16 25 17 62 3 130 17 130 25 0 10 -185 6 -196 -5 -12 -12 -77 -8 -93 7 -15 12 -306 35 -671 51 -63 3 -187 10 -275 15 -88 6 -254 15 -370 21 -115 5 -266 14 -335 19 -69 6 -228 15 -355 20 -126 5 -288 14 -360 20 -71 5 -229 14 -350 20 -121 5 -283 14 -360 20 -77 6 -239 15 -360 20 -121 5 -276 14 -345 19 -69 6 -228 15 -355 21 -126 6 -284 15 -350 20 -66 5 -214 14 -330 20 -115 6 -284 15 -375 21 -91 5 -287 16 -436 23 -149 7 -276 16 -282 20 -8 5 -8 13 -2 24 10 18 16 32 140 332 45 107 96 231 115 275 102 239 155 366 155 370 0 3 9 24 19 48 11 23 36 83 56 132 34 83 78 188 110 260 8 17 26 59 40 95 15 36 35 83 44 105 10 22 26 60 36 85 10 25 26 65 37 89 11 24 41 96 68 160 65 157 239 569 255 606 8 17 35 82 61 145 51 127 81 190 90 190 7 0 131 -69 176 -98 14 -9 55 -34 90 -55 34 -20 81 -48 103 -62 22 -13 54 -32 70 -41 51 -28 349 -205 375 -223 14 -10 81 -50 150 -90 69 -40 172 -101 230 -136 58 -35 114 -69 125 -74 11 -6 56 -33 100 -60 44 -27 113 -68 153 -91 109 -63 94 -68 -196 -69 l-192 -1 2 -242 3 -243 24 -3 c12 -2 34 -1 47 2 l24 6 0 180 c0 132 3 181 13 187 37 23 587 8 657 -19 95 -36 135 -64 167 -117 43 -72 58 -148 44 -218 -14 -71 -53 -149 -99 -195 l-36 -38 29 -30 c35 -37 59 -38 81 -4 23 34 33 20 40 -56 6 -59 11 -69 47 -107 23 -24 45 -43 49 -43 5 0 8 185 8 411 -1 229 3 416 8 421 5 5 76 7 158 6 l149 -3 3 -188 2 -187 173 2 172 3 5 185 5 185 160 0 160 0 0 -535 -1 -535 -163 0 -162 0 0 230 c1 127 -3 236 -7 243 -6 9 -48 12 -173 10 l-164 -3 -5 -240 -5 -240 -149 -3 c-93 -2 -153 1 -160 8 -5 5 -13 10 -18 10 -12 0 -21 -67 -14 -105 l7 -34 597 -2 c328 0 640 -1 692 -2 190 -2 721 0 985 4 149 2 299 3 335 2 36 -1 111 -2 168 -2 56 0 107 -3 112 -6 7 -4 5 -16 -4 -33 -9 -15 -38 -81 -66 -147 -28 -66 -61 -140 -73 -165 l-22 -45 -230 -5 c-504 -11 -5693 -12 -5699 -1 -6 10 14 62 80 209 13 29 24 56 24 60 0 10 -69 72 -80 72 -5 0 -14 -17 -21 -37 -6 -21 -26 -69 -44 -108 -18 -38 -36 -81 -40 -95 -4 -14 -14 -34 -21 -45 -8 -11 -14 -27 -14 -36 0 -10 -12 -31 -26 -48 -20 -24 -24 -38 -20 -57 5 -20 11 -24 24 -19 9 4 44 12 77 16 33 5 1320 8 2875 7 l2815 -3 85 -52 c175 -106 329 -193 342 -193 8 0 19 -5 26 -12 18 -18 40 6 23 26 -23 27 8 27 51 -1 24 -15 68 -40 98 -56 30 -16 62 -34 70 -41 8 -7 47 -30 85 -50 39 -21 102 -58 141 -82 39 -24 76 -44 82 -44 9 0 12 449 12 1855 l0 1855 -3780 0 -3780 0 0 -2260z m3795 1683 c39 -8 111 -18 160 -23 50 -4 103 -13 120 -20 16 -6 57 -15 90 -19 53 -8 96 -17 240 -52 255 -64 270 -68 330 -88 127 -44 181 -61 194 -61 8 0 32 -8 55 -19 39 -17 56 -24 151 -57 22 -8 52 -21 67 -29 14 -8 33 -15 41 -15 8 0 50 -18 93 -40 43 -22 85 -40 94 -40 8 0 26 -9 40 -20 14 -11 32 -20 41 -20 9 0 28 -9 42 -20 14 -11 31 -20 39 -20 8 0 18 -4 24 -9 5 -5 45 -28 89 -52 84 -44 165 -98 165 -109 0 -4 -12 -17 -26 -31 -19 -18 -24 -31 -20 -51 3 -15 0 -30 -7 -35 -7 -5 -66 -10 -132 -12 -132 -3 -148 -9 -164 -65 -11 -40 -98 -266 -111 -288 -6 -10 -10 -24 -10 -33 0 -8 -7 -29 -15 -47 -8 -18 -30 -76 -50 -128 -20 -52 -41 -104 -45 -115 -5 -11 -13 -33 -18 -50 -5 -16 -13 -30 -18 -30 -5 0 -10 152 -12 364 -1 249 -6 369 -13 378 -9 10 -65 13 -259 13 l-248 0 -6 -35 c-4 -19 -6 -100 -5 -181 0 -81 -3 -150 -9 -156 -5 -5 -38 -8 -73 -6 l-64 3 -5 185 -5 185 -255 0 -255 0 -5 -64 c-5 -70 -19 -85 -43 -48 -16 24 -152 97 -184 97 -47 2 -110 34 -445 235 -45 28 -90 53 -98 58 -8 4 -33 18 -55 32 -22 14 -68 41 -103 61 -34 20 -60 40 -56 45 14 24 365 -4 634 -51 58 -10 124 -21 148 -24 l43 -6 -3 42 -3 43 -35 3 c-19 1 -57 7 -85 13 -89 18 -364 39 -590 45 -246 6 -253 8 -372 82 -43 27 -107 65 -143 85 -131 74 -145 84 -145 97 0 21 50 28 270 40 207 12 675 8 733 -5 l32 -7 0 44 c0 25 2 47 4 49 9 9 185 -3 251 -18z m-2206 -206 c-11 -29 -31 -77 -44 -107 -13 -30 -42 -98 -64 -150 -22 -52 -67 -159 -100 -238 -34 -78 -61 -145 -61 -147 0 -3 -9 -24 -19 -48 -11 -23 -32 -71 -46 -107 -45 -110 -95 -230 -140 -335 -23 -55 -57 -136 -75 -180 -36 -87 -84 -202 -105 -250 -7 -16 -32 -75 -55 -130 -66 -159 -81 -188 -89 -179 -144 168 -198 254 -263 419 -129 327 -98 599 98 885 141 204 399 397 709 530 28 12 61 27 75 35 14 7 41 16 60 20 19 4 40 11 45 15 14 11 78 28 87 23 4 -2 -2 -27 -13 -56z m4433 -594 c10 -9 18 -22 18 -30 0 -8 6 -13 13 -11 17 4 104 -52 156 -101 24 -22 46 -41 48 -41 15 0 131 -102 203 -177 75 -79 206 -238 220 -267 3 -6 18 -31 34 -55 16 -25 35 -58 42 -75 8 -17 18 -38 24 -46 19 -32 60 -133 60 -150 0 -10 9 -37 19 -61 13 -30 20 -74 23 -138 3 -86 1 -95 -17 -102 -11 -4 -104 -8 -206 -8 -211 -1 -205 -3 -238 85 -10 27 -42 105 -71 174 -29 69 -83 202 -121 295 -38 94 -78 190 -88 215 -11 25 -29 70 -41 100 -11 30 -25 64 -30 75 -32 70 -110 271 -110 284 0 14 28 51 38 51 3 0 14 -7 24 -17z m-120 -178 c9 -30 47 -123 73 -180 8 -16 40 -93 71 -170 31 -77 63 -156 71 -175 9 -19 24 -56 34 -82 11 -27 27 -69 38 -95 53 -134 112 -276 123 -292 6 -10 8 -26 5 -35 -9 -23 -218 -24 -238 0 -14 17 -55 111 -70 160 -5 18 -19 43 -30 58 l-20 26 -155 0 -154 0 -19 -30 c-15 -25 -43 -106 -77 -217 -5 -17 -339 -19 -349 -2 -4 6 2 20 12 32 11 12 26 45 33 72 7 28 16 55 20 60 4 6 11 21 15 35 4 14 13 39 21 55 16 38 110 282 135 355 11 30 24 64 29 75 15 35 100 260 100 267 0 3 11 31 25 62 l25 57 137 -3 136 -3 9 -30z m-1191 -855 c-1 -132 -6 -209 -13 -218 -8 -9 -31 -12 -72 -10 l-61 3 -3 205 c-1 112 0 210 3 218 3 9 24 12 76 10 l71 -3 -1 -205z m1200 -50 c4 -8 18 -42 30 -75 13 -33 27 -65 32 -72 13 -18 -10 -25 -104 -31 -81 -4 -91 -3 -132 21 -64 38 -68 45 -55 97 18 75 28 81 131 78 68 -2 92 -7 98 -18z m-3426 -1079 c61 -6 225 -16 365 -22 140 -6 316 -14 390 -19 74 -5 234 -14 355 -20 121 -6 283 -15 360 -20 77 -5 239 -14 359 -19 121 -6 238 -12 260 -15 23 -3 97 -8 166 -11 68 -4 127 -8 130 -10 4 -2 69 -5 146 -6 128 -2 287 -11 384 -23 21 -3 128 -8 237 -12 185 -6 255 -15 239 -31 -8 -8 -62 -29 -131 -50 -27 -9 -54 -19 -60 -23 -5 -5 -28 -11 -50 -15 -22 -4 -66 -15 -98 -26 -31 -10 -68 -19 -81 -19 -13 0 -42 -7 -65 -14 -22 -8 -69 -18 -103 -22 -35 -3 -87 -13 -117 -21 -29 -8 -101 -19 -160 -24 -58 -4 -133 -14 -166 -21 -44 -9 -184 -13 -525 -13 l-465 0 -195 28 c-230 32 -404 62 -516 88 -45 11 -90 19 -100 19 -10 0 -47 9 -83 19 -36 11 -102 29 -146 42 -176 48 -477 148 -580 194 -37 16 -91 39 -128 54 -15 6 -25 16 -22 22 8 12 230 6 400 -10z"/>
<path d="M6060 2910 c0 -5 5 -10 10 -10 6 0 10 5 10 10 0 6 -4 10 -10 10 -5 0 -10 -4 -10 -10z"/>
<path d="M1525 3060 c3 -5 8 -10 11 -10 2 0 4 5 4 10 0 6 -5 10 -11 10 -5 0 -7 -4 -4 -10z"/>
<path d="M1623 3043 c-37 -7 -26 -21 23 -29 51 -7 210 -1 221 9 3 4 3 10 -1 15 -9 8 -209 13 -243 5z"/>
<path d="M1505 3031 c-3 -5 -1 -12 5 -16 5 -3 10 1 10 9 0 18 -6 21 -15 7z"/>
<path d="M1920 3030 c0 -5 5 -10 10 -10 6 0 10 5 10 10 0 6 -4 10 -10 10 -5 0 -10 -4 -10 -10z"/>
<path d="M4120 1980 c0 -11 5 -20 10 -20 6 0 10 9 10 20 0 11 -4 20 -10 20 -5 0 -10 -9 -10 -20z"/>
<path d="M1280 1890 c0 -5 7 -10 15 -10 8 0 15 5 15 10 0 6 -7 10 -15 10 -8 0 -15 -4 -15 -10z"/>
<path d="M1340 1890 c0 -5 11 -10 25 -10 14 0 25 5 25 10 0 6 -11 10 -25 10 -14 0 -25 -4 -25 -10z"/>
<path d="M1013 1863 c-20 -8 -15 -23 7 -23 11 0 20 7 20 15 0 15 -6 17 -27 8z"/>
<path d="M1486 1845 c-11 -8 -16 -18 -12 -22 10 -10 343 -10 353 0 4 5 -1 15 -11 23 -29 20 -303 20 -330 -1z"/>
<path d="M7030 1032 c0 -11 40 -33 50 -27 5 3 14 -4 20 -15 12 -22 35 -26 46 -8 9 14 -26 40 -44 33 -7 -2 -15 2 -18 10 -6 15 -54 22 -54 7z"/>
<path d="M7195 960 c-3 -6 1 -13 10 -16 19 -8 30 0 20 15 -8 14 -22 14 -30 1z"/>
<path d="M7235 919 c-7 -10 21 -38 38 -39 11 0 8 25 -5 38 -15 15 -25 15 -33 1z"/>
<path d="M7317 870 c4 -14 11 -19 23 -15 10 3 21 1 25 -5 8 -13 45 -13 45 0 0 12 -26 26 -67 34 -28 7 -31 5 -26 -14z"/>
</g>
</g>
</svg>
