<?xml version="1.0" standalone="no"?>
<!DOCTYPE svg PUBLIC "-//W3C//DTD SVG 1.1//EN"
 "http://www.w3.org/Graphics/SVG/1.1/DTD/svg11.dtd">
<!-- Created with svg_stack (http://github.com/astraw/svg_stack) -->
<svg xmlns:sodipodi="http://sodipodi.sourceforge.net/DTD/sodipodi-0.dtd" xmlns="http://www.w3.org/2000/svg" version="1.1" width="512.0" height="512.0">
  <defs/>
  <g id="id0:id0" transform="matrix(1.25,0,0,1.25,0.0,0.0)"><g transform="translate(0.000000,409.600000) scale(0.040000,-0.040000)" fill="#ffffff" stroke="none">
<path d="M6638 9073 c-14 -13 -20 -14 -32 -3 -13 10 -19 10 -31 0 -14 -12 -14 -15 0 -30 11 -12 12 -19 4 -27 -13 -13 11 -121 36 -159 8 -13 15 -36 15 -51 0 -15 8 -41 18 -58 9 -17 17 -50 17 -75 l0 -45 -30 5 c-34 5 -164 6 -240 1 -64 -4 -178 4 -193 13 -6 4 -44 7 -83 7 -61 0 -73 -3 -86 -20 -8 -12 -23 -21 -34 -21 -10 0 -36 -9 -56 -20 -21 -11 -49 -20 -63 -20 -14 0 -35 -6 -46 -14 -11 -8 -31 -14 -44 -14 -54 0 -294 -34 -356 -51 -48 -13 -63 -32 -129 -164 -34 -69 -50 -113 -52 -150 l-4 -52 36 -24 c60 -41 144 -70 219 -77 39 -4 89 -12 111 -19 22 -7 65 -16 95 -19 49 -6 92 -20 140 -47 8 -5 33 -18 55 -30 54 -29 105 -89 94 -109 -5 -8 -14 -28 -19 -44 l-10 -29 -60 7 c-32 4 -83 14 -112 22 -37 10 -130 16 -300 20 l-248 7 -1 -19 c-7 -86 -4 -102 17 -128 13 -14 26 -26 30 -26 5 0 20 -11 35 -26 14 -14 48 -31 75 -39 27 -7 69 -21 93 -30 24 -8 59 -16 78 -17 20 -1 51 -10 71 -20 20 -10 45 -18 57 -18 26 -1 149 -62 150 -75 0 -5 -15 -12 -32 -16 -18 -3 -39 -11 -46 -17 -7 -6 -40 -14 -73 -18 -32 -4 -66 -10 -74 -15 -9 -4 -76 -9 -150 -10 l-134 -2 -18 29 c-10 16 -20 34 -23 40 -21 41 -169 112 -270 129 -22 4 -70 15 -107 25 -36 10 -69 16 -72 12 -6 -5 -56 16 -146 63 -25 13 -49 32 -55 42 -5 10 -17 30 -27 44 -9 15 -20 38 -23 52 -4 14 -21 41 -39 60 -25 28 -39 35 -69 35 -40 0 -47 -11 -43 -63 8 -78 20 -127 37 -149 11 -13 19 -30 19 -38 0 -28 165 -168 198 -168 7 0 29 -9 49 -20 21 -11 48 -20 61 -20 12 0 34 -7 47 -16 16 -10 53 -17 104 -19 43 -2 98 -6 123 -10 25 -4 62 -2 82 4 42 11 86 0 86 -22 0 -7 -11 -23 -23 -35 l-24 -22 -72 12 c-54 9 -76 9 -90 1 -13 -8 -22 -8 -29 -1 -15 15 -151 37 -184 31 -20 -4 -29 -1 -34 11 -3 9 -15 16 -26 16 -11 0 -31 9 -45 20 -14 11 -41 22 -62 26 -20 4 -42 11 -49 17 -21 17 -123 58 -164 67 -21 4 -43 12 -50 18 -27 21 -268 66 -282 52 -5 -5 -1 -33 9 -64 13 -41 30 -67 61 -96 24 -22 50 -40 57 -40 8 0 22 -9 33 -21 25 -28 67 -49 97 -49 25 0 52 -22 40 -33 -3 -4 -17 -7 -30 -7 -14 0 -45 -9 -71 -20 -26 -11 -67 -24 -92 -30 -265 -64 -338 -85 -358 -103 -10 -9 -29 -17 -43 -17 -13 0 -35 -9 -49 -20 -14 -11 -34 -20 -46 -20 -11 0 -29 -9 -39 -20 -10 -11 -26 -20 -36 -20 -10 0 -26 -11 -35 -25 -9 -14 -22 -25 -29 -25 -16 0 -147 -143 -158 -173 -8 -21 -9 -21 -21 -4 -7 9 -29 22 -47 29 -19 6 -52 26 -73 45 -22 18 -46 33 -53 33 -7 0 -40 26 -73 59 -54 52 -67 60 -123 70 -198 38 -246 52 -272 83 -14 17 -25 42 -25 59 0 60 -29 107 -92 149 -33 22 -66 40 -73 40 -7 0 -19 7 -26 17 -47 56 -183 112 -231 94 l-23 -9 27 -12 c16 -7 37 -28 48 -47 18 -30 18 -42 10 -138 -5 -58 -12 -110 -15 -115 -4 -6 -18 -10 -33 -10 -15 0 -38 -9 -52 -20 -14 -11 -28 -20 -32 -20 -4 0 -32 -16 -62 -35 -36 -23 -57 -44 -65 -66 -14 -40 -14 -69 -1 -69 6 0 10 6 10 13 0 7 13 23 29 35 24 17 41 21 83 18 46 -2 53 -6 50 -22 -16 -88 -17 -83 32 -129 25 -25 46 -49 46 -55 0 -6 -16 -26 -35 -46 -19 -19 -44 -53 -56 -75 -23 -46 -39 -179 -21 -179 6 0 42 32 81 70 59 58 76 69 95 64 13 -3 27 -1 30 5 4 6 20 1 42 -14 20 -14 51 -27 69 -31 36 -6 141 12 150 27 4 5 17 9 30 9 27 0 79 -71 96 -132 5 -21 15 -38 22 -38 7 0 28 16 47 35 28 29 41 35 76 35 35 0 47 -5 68 -31 17 -20 26 -43 27 -67 2 -60 13 -86 44 -102 17 -9 43 -24 59 -35 25 -16 44 -19 128 -17 88 2 102 0 136 -22 45 -29 71 -56 107 -116 16 -25 65 -83 110 -130 90 -92 115 -137 138 -243 9 -38 23 -77 31 -86 9 -10 16 -23 16 -29 0 -16 79 -130 149 -216 32 -39 153 -162 269 -273 200 -193 262 -268 262 -316 0 -8 9 -26 20 -40 11 -14 20 -38 20 -55 0 -16 4 -42 10 -58 5 -16 11 -60 13 -99 1 -38 6 -76 10 -83 5 -7 0 -23 -12 -38 -12 -15 -21 -36 -21 -48 0 -19 -49 -125 -70 -151 -16 -20 -50 -86 -50 -97 0 -7 -9 -21 -20 -33 -11 -12 -22 -36 -24 -53 -3 -17 -13 -48 -23 -69 -25 -52 -26 -241 -1 -293 9 -19 19 -49 22 -66 3 -18 20 -72 39 -120 64 -171 69 -188 67 -247 -1 -61 -27 -132 -58 -160 -17 -16 -23 -16 -63 -3 -24 8 -75 20 -114 26 -38 6 -80 13 -92 16 -30 6 -29 -7 3 -72 27 -54 81 -107 144 -139 48 -24 120 -95 120 -118 0 -26 67 -149 91 -166 10 -7 19 -20 19 -27 0 -8 7 -14 15 -14 8 0 19 -9 25 -20 14 -25 55 -28 46 -3 -4 9 -10 38 -13 63 -3 25 -13 53 -21 63 -14 15 -13 19 1 35 8 9 19 30 23 46 5 23 19 34 68 56 34 15 86 30 118 33 62 6 77 -4 111 -73 9 -19 22 -44 29 -55 6 -11 14 -27 18 -35 4 -8 47 -34 96 -58 49 -24 105 -52 124 -61 19 -10 50 -22 69 -26 36 -8 127 -51 135 -64 3 -4 -2 -32 -10 -62 -27 -95 -33 -133 -22 -146 6 -8 34 -13 68 -13 104 0 232 -67 200 -104 -6 -9 -28 -18 -49 -22 -20 -3 -49 -10 -66 -14 -16 -5 -64 -14 -105 -21 -41 -6 -84 -16 -95 -22 -33 -18 -113 -20 -138 -2 -12 8 -29 15 -38 15 -9 0 -24 9 -34 20 -10 11 -24 20 -32 20 -8 0 -33 11 -56 24 -67 40 -201 52 -330 31 -56 -10 -110 -24 -120 -33 -20 -18 -55 -39 -79 -48 -9 -3 -19 -13 -23 -22 -10 -26 10 -35 49 -21 27 10 39 10 47 2 7 -7 24 -9 39 -6 58 11 41 -40 -25 -75 -32 -16 -79 -63 -96 -94 -11 -21 -15 -95 -5 -105 3 -3 32 12 63 33 65 44 179 82 197 64 5 -5 20 -10 32 -10 27 0 40 -16 21 -27 -11 -7 -57 -85 -57 -97 0 -2 45 -2 100 1 81 5 103 3 118 -9 9 -9 31 -23 48 -31 17 -9 61 -40 97 -70 103 -85 114 -87 198 -43 39 20 78 36 87 36 9 0 26 10 38 21 l23 21 27 -21 c15 -11 41 -21 58 -21 17 0 47 -5 67 -10 46 -13 72 -3 124 45 l40 37 93 -6 c51 -3 101 -10 112 -16 10 -5 48 -10 83 -10 50 0 70 5 91 21 14 11 26 26 26 33 0 18 -33 46 -54 46 -10 0 -29 9 -43 20 -14 11 -36 20 -49 20 -25 0 -97 66 -91 84 4 12 35 12 227 1 146 -9 180 -2 180 35 0 32 -60 90 -95 92 -16 1 -39 8 -50 14 -11 7 -40 16 -65 20 -49 8 -93 31 -84 45 3 5 82 8 177 7 l172 -2 62 29 c34 17 64 38 67 48 2 9 10 17 18 17 19 1 52 50 41 61 -5 5 -68 5 -158 -1 -218 -15 -290 -12 -311 11 -9 10 -27 19 -39 19 -12 0 -25 3 -28 7 -11 11 35 53 58 53 12 0 30 6 40 14 l20 14 -18 36 c-9 21 -24 36 -34 36 -10 0 -33 16 -52 35 -36 36 -36 32 -15 143 7 34 -15 72 -41 72 -7 0 -19 10 -27 23 -9 12 -26 27 -39 34 -127 61 -161 78 -165 85 -3 4 -13 8 -23 8 -26 0 -104 111 -136 195 -23 61 -32 122 -47 328 -8 123 -8 161 1 170 10 9 15 9 24 -4 14 -18 142 -79 167 -79 9 0 32 -8 51 -17 26 -14 65 -19 165 -21 111 -3 143 -1 210 18 72 20 136 44 189 73 11 6 36 19 55 28 42 20 200 180 200 201 0 9 8 26 19 39 25 33 45 147 36 214 -3 30 -17 76 -31 102 -13 26 -24 58 -24 69 0 12 -9 33 -20 47 -11 14 -20 32 -20 40 0 8 -9 26 -20 40 -11 14 -20 31 -20 38 0 7 -6 20 -14 28 -20 22 -146 248 -146 262 0 6 -8 23 -19 37 -10 15 -21 43 -24 62 -12 74 -20 105 -27 115 -7 10 -6 457 1 505 2 14 7 30 10 35 4 6 12 37 19 70 10 54 17 66 72 118 33 31 72 60 87 63 14 4 31 10 36 15 6 4 29 2 50 -6 22 -8 47 -14 56 -15 26 0 131 -105 159 -157 17 -32 32 -48 45 -48 16 0 20 8 22 56 5 70 -28 146 -87 207 -23 23 -41 42 -39 43 25 7 86 6 100 -2 10 -5 52 -11 93 -13 41 -3 85 -11 98 -19 13 -8 42 -17 65 -21 24 -3 61 -16 83 -27 22 -12 49 -19 60 -16 11 3 24 -1 30 -8 10 -12 85 -33 120 -34 8 0 48 -7 89 -17 56 -12 79 -13 98 -5 13 6 34 11 47 11 42 0 109 30 141 63 45 47 70 86 59 97 -5 5 -67 11 -139 13 -131 3 -173 13 -225 50 -13 9 -33 17 -43 17 -9 0 -20 7 -23 15 -4 8 -11 15 -18 15 -6 1 -31 21 -56 45 -25 25 -51 45 -59 45 -8 0 -36 18 -62 40 -26 22 -53 40 -59 40 -6 0 -23 9 -38 19 -41 29 -126 45 -247 45 -136 1 -261 -17 -297 -44 -15 -11 -35 -20 -45 -20 -10 0 -24 -9 -31 -20 -7 -11 -23 -20 -36 -20 -26 0 -146 -98 -215 -176 -24 -27 -67 -85 -95 -129 -55 -84 -119 -245 -109 -270 3 -9 -1 -23 -10 -33 -24 -28 -39 -240 -27 -380 6 -64 14 -133 20 -152 5 -19 14 -59 21 -88 6 -30 22 -84 36 -120 13 -37 33 -95 44 -128 10 -34 26 -67 34 -74 8 -7 15 -16 15 -21 0 -9 122 -193 146 -220 8 -8 14 -22 14 -31 0 -8 9 -27 20 -41 11 -14 20 -38 20 -54 0 -15 7 -41 15 -57 23 -44 18 -72 -24 -144 -52 -89 -135 -141 -261 -164 -122 -23 -228 -2 -308 59 -24 18 -49 33 -55 33 -26 0 -182 200 -222 285 -45 93 -85 206 -85 236 0 16 -7 46 -16 67 -9 20 -18 69 -21 107 -3 46 -11 79 -23 96 -13 18 -15 30 -8 37 6 6 7 16 3 22 -4 7 -9 53 -11 103 -3 50 -8 95 -13 101 -4 6 -9 49 -10 96 -1 47 -8 175 -16 285 -9 110 -16 209 -17 220 0 11 -7 65 -14 119 -7 55 -11 102 -9 106 8 13 71 3 100 -16 25 -17 49 -19 186 -19 147 0 159 1 188 23 16 12 36 22 44 22 7 0 32 15 56 33 l42 32 -38 6 c-22 4 -43 2 -51 -4 -8 -6 -16 -7 -22 -1 -6 6 -43 7 -87 3 l-77 -6 -46 33 c-92 66 -100 143 -21 202 27 20 42 22 139 22 59 0 112 -4 117 -9 6 -5 29 -11 53 -15 55 -8 55 2 -8 88 -28 38 -53 81 -56 95 -3 14 -13 41 -22 60 -19 37 -25 190 -8 192 5 1 21 -19 34 -42 23 -42 46 -71 113 -147 16 -18 29 -37 29 -42 0 -19 46 -33 121 -37 72 -4 78 -3 84 18 5 14 0 31 -14 50 -12 15 -21 35 -21 42 0 8 -9 34 -19 58 -34 79 -23 434 14 442 5 1 13 -18 17 -42 4 -24 12 -49 18 -56 6 -7 11 -35 12 -61 0 -27 3 -53 6 -59 4 -5 7 -32 8 -58 0 -32 8 -57 22 -77 12 -16 22 -37 22 -47 0 -31 157 -183 189 -183 14 0 15 27 1 35 -5 3 -10 21 -10 38 0 18 -9 46 -20 62 -11 17 -20 44 -20 61 0 16 -5 35 -11 41 -7 7 -8 17 -1 29 5 11 12 44 16 75 3 31 13 73 22 95 9 21 16 53 16 72 0 18 6 36 12 38 7 3 40 -21 74 -53 58 -55 100 -81 217 -134 68 -32 265 -37 265 -8 0 5 -11 9 -25 9 -14 0 -28 7 -31 15 -3 8 -16 17 -27 21 -47 15 -167 142 -167 178 0 7 -9 25 -20 39 -11 14 -20 31 -20 39 0 7 -9 28 -20 46 -11 18 -20 44 -20 58 0 14 -5 34 -11 46 -13 23 -23 152 -15 175 9 23 36 -3 36 -34 0 -13 8 -40 19 -61 10 -20 21 -53 25 -71 3 -19 14 -46 23 -60 10 -15 18 -30 18 -36 2 -20 19 -50 32 -58 7 -4 13 -16 13 -25 0 -10 17 -35 39 -56 36 -35 43 -38 122 -45 46 -4 125 -5 175 -2 85 6 93 8 130 40 21 19 42 43 46 53 4 10 19 23 33 30 64 29 10 48 -139 48 l-125 0 -37 32 c-20 18 -43 47 -50 65 -16 38 -18 143 -4 192 6 22 6 39 0 46 -6 7 -3 17 10 28 10 8 22 33 25 54 4 21 8 44 11 51 7 22 24 2 24 -28 0 -52 22 -135 41 -156 10 -11 19 -27 19 -35 0 -18 50 -66 105 -100 56 -36 152 -70 202 -72 42 -2 70 12 43 21 -8 3 -54 43 -101 90 l-87 85 39 113 c28 81 39 129 39 171 0 68 14 91 40 68 10 -9 41 -18 71 -21 30 -4 72 -14 94 -24 32 -15 67 -19 176 -19 163 -1 228 9 248 38 7 12 24 21 37 21 13 0 24 4 24 9 0 15 -30 22 -49 11 -12 -6 -22 -5 -30 3 -8 8 -16 9 -29 0 -14 -8 -23 -6 -41 8 -14 11 -39 19 -62 19 -21 0 -41 5 -45 11 -3 6 -26 20 -50 31 -48 21 -237 195 -228 209 3 5 16 9 29 9 13 0 27 5 31 11 3 6 16 8 28 5 31 -7 203 28 223 46 10 9 28 19 39 22 12 4 29 15 39 26 10 11 24 20 32 20 19 0 16 44 -6 71 -17 22 -26 24 -88 21 -37 -2 -73 -8 -78 -12 -13 -11 -69 7 -105 33 -13 9 -32 17 -41 17 -9 0 -22 7 -29 15 -7 8 -31 20 -54 25 -22 6 -58 18 -79 27 -20 9 -54 19 -75 22 -20 4 -36 11 -36 16 1 9 6 12 54 34 70 33 103 55 159 106 65 61 101 111 105 148 1 12 6 28 10 35 13 22 -4 31 -33 16 -16 -8 -74 -23 -128 -33 -55 -10 -105 -21 -111 -25 -7 -4 -37 -14 -69 -22 -31 -8 -62 -19 -68 -24 -8 -6 -18 -5 -30 4 l-19 13 22 28 c13 16 22 42 22 62 0 19 4 64 10 101 5 37 11 103 14 147 2 44 11 122 20 173 9 51 14 98 11 103 -12 18 -54 9 -74 -17 -16 -20 -21 -41 -21 -83 0 -31 -7 -78 -15 -105 -8 -26 -13 -51 -11 -55 3 -4 -14 -30 -37 -58 -23 -28 -50 -65 -59 -82 -9 -17 -30 -36 -45 -42 -15 -5 -44 -25 -63 -43 -49 -47 -68 -51 -80 -20 -6 14 -10 45 -10 68 0 30 -6 48 -20 61 -11 10 -18 26 -15 35 3 9 -24 74 -60 145 -36 72 -65 136 -65 143 0 8 -9 25 -20 39 -11 14 -20 33 -20 42 0 17 -18 41 -30 41 -3 0 -13 -7 -22 -17z m-148 -759 c51 -18 72 -32 64 -45 -8 -13 -131 -11 -157 2 -34 18 -57 41 -51 50 8 14 95 10 144 -7z"/>
<path d="M5100 8470 c0 -5 9 -10 20 -10 11 0 20 5 20 10 0 6 -9 10 -20 10 -11 0 -20 -4 -20 -10z"/>
<path d="M3251 8441 c-15 -10 -7 -29 21 -49 12 -9 16 -21 12 -40 -4 -19 0 -32 10 -41 22 -19 20 -53 -5 -74 -11 -10 -19 -27 -18 -40 4 -30 -43 -81 -59 -65 -7 7 -12 18 -12 26 0 11 -8 13 -29 9 -22 -5 -33 0 -50 20 l-23 25 -22 -21 c-17 -16 -35 -21 -77 -21 -39 0 -66 -7 -97 -25 -23 -13 -48 -22 -55 -19 -18 6 -90 -63 -84 -80 4 -9 22 -12 57 -11 41 1 56 7 69 23 l16 22 63 -63 63 -64 -3 -49 c-3 -45 -5 -49 -31 -52 -15 -2 -32 -12 -37 -23 -6 -10 -19 -19 -29 -19 -9 0 -28 -12 -42 -26 -13 -14 -31 -23 -41 -21 -9 3 -25 -4 -34 -14 -9 -10 -23 -19 -29 -19 -7 0 -18 -7 -25 -16 -11 -12 -11 -18 2 -30 14 -14 18 -14 36 6 24 26 51 21 59 -10 3 -10 21 -28 39 -39 19 -12 44 -37 56 -57 17 -29 26 -35 45 -31 18 3 29 -2 40 -20 15 -22 22 -25 60 -19 35 5 47 2 69 -18 25 -21 27 -28 25 -89 l-2 -65 36 -34 c20 -18 46 -35 58 -38 19 -5 23 -15 27 -74 4 -50 9 -70 23 -77 14 -9 17 -25 17 -114 l0 -105 25 -16 24 -16 49 41 c26 23 55 41 64 41 9 0 21 7 28 15 7 8 19 15 26 15 8 0 14 6 14 14 0 17 72 76 93 76 8 0 26 9 40 20 14 11 36 20 50 20 13 0 32 9 42 20 10 11 26 20 37 20 10 0 26 9 35 20 10 11 24 20 32 20 19 0 91 49 91 62 0 14 -62 88 -74 88 -6 0 -55 44 -108 98 -79 78 -96 101 -92 119 4 15 -1 28 -19 43 -14 12 -23 28 -20 35 2 8 -6 24 -19 37 -12 12 -21 29 -20 37 2 8 -35 53 -83 101 l-86 87 26 17 c25 16 26 22 20 61 -5 39 -3 46 19 60 22 15 24 22 22 76 l-2 59 -139 140 c-77 77 -144 140 -150 140 -5 0 -16 -4 -24 -9z"/>
<path d="M5160 8365 c0 -14 5 -25 10 -25 6 0 10 11 10 25 0 14 -4 25 -10 25 -5 0 -10 -11 -10 -25z"/>
<path d="M5204 7918 c-13 -15 -21 -40 -22 -70 l-3 -46 63 5 c35 2 70 7 78 10 8 2 70 4 137 3 71 0 124 3 127 9 4 6 17 6 36 -1 17 -5 36 -8 44 -5 7 3 31 -1 52 -8 46 -16 104 -19 104 -5 0 14 -47 43 -59 36 -5 -4 -12 -2 -15 3 -5 8 -87 25 -173 36 -18 2 -37 6 -42 9 -5 4 -70 13 -143 21 -73 7 -140 16 -148 20 -10 3 -24 -4 -36 -17z"/>
<path d="M7463 7422 c-12 -7 8 -81 34 -127 l12 -20 25 24 c28 26 33 50 15 68 -18 18 5 23 35 7 33 -16 36 -17 36 -6 0 13 -87 55 -98 48 -6 -3 -13 -2 -17 4 -7 12 -25 13 -42 2z"/>
<path d="M8140 7370 c-14 -5 -50 -16 -81 -25 -90 -27 -90 -28 -34 -85 27 -27 57 -50 67 -50 30 0 88 59 88 89 0 15 5 32 11 38 14 14 5 43 -13 42 -7 0 -24 -4 -38 -9z"/>
<path d="M3243 6153 c-8 -6 -9 -14 -3 -23 7 -12 12 -12 22 -2 15 15 84 16 93 1 4 -6 -2 -21 -14 -33 -24 -26 -26 -38 -8 -69 6 -12 13 -24 14 -26 4 -8 149 22 155 33 22 33 -9 88 -51 91 -11 1 -27 7 -36 15 -18 15 -154 25 -172 13z"/>
<path d="M7270 6053 c0 -19 41 -73 55 -73 23 0 18 34 -8 58 -23 22 -47 29 -47 15z"/>
<path d="M7340 5951 c0 -13 29 -35 37 -28 7 8 -15 37 -28 37 -5 0 -9 -4 -9 -9z"/>
<path d="M7020 5635 c0 -7 5 -17 10 -20 6 -3 10 -15 10 -25 0 -24 48 -95 94 -139 l36 -35 25 24 c18 17 25 34 25 60 0 20 2 39 4 41 3 3 24 3 47 1 29 -3 43 -10 46 -22 5 -17 63 -25 63 -8 0 4 -5 8 -11 8 -6 0 -30 14 -54 31 -24 17 -48 28 -54 25 -5 -4 -14 1 -19 11 -7 11 -23 17 -50 18 -23 0 -49 8 -59 17 -25 22 -113 32 -113 13z"/>
<path d="M3202 4998 c-7 -7 -12 -26 -12 -43 0 -19 -8 -39 -20 -50 -13 -12 -17 -25 -14 -44 4 -18 -3 -36 -20 -60 -35 -47 -38 -154 -5 -195 12 -15 22 -44 23 -66 1 -22 10 -48 19 -58 25 -28 24 -136 -3 -169 -11 -14 -20 -34 -20 -44 0 -21 -117 -149 -137 -149 -7 0 -13 -6 -13 -13 0 -8 -20 -32 -45 -55 -42 -38 -45 -44 -45 -91 0 -39 5 -56 22 -73 13 -13 21 -32 20 -43 -2 -15 19 -43 68 -93 39 -40 75 -72 79 -72 15 0 63 -59 57 -69 -4 -6 3 -28 15 -49 27 -46 21 -67 -20 -75 -17 -4 -31 -13 -31 -20 0 -23 -47 -59 -80 -61 -18 -1 -36 -10 -42 -19 -7 -14 -26 -17 -112 -17 -90 0 -105 2 -121 20 -13 15 -31 20 -64 20 -35 0 -51 5 -65 21 -12 14 -25 20 -42 16 -20 -3 -27 1 -35 20 -8 21 -14 24 -40 21 -25 -4 -32 -1 -40 20 -7 19 -15 23 -35 19 -19 -3 -29 2 -41 20 -12 18 -23 23 -40 20 -19 -3 -27 1 -35 19 -14 30 -22 30 -48 2 -14 -15 -30 -22 -48 -20 -20 2 -30 -3 -37 -20 -6 -13 -17 -22 -24 -20 -19 4 -51 -8 -51 -19 0 -6 -16 -26 -35 -46 -40 -41 -41 -46 -20 -63 13 -11 20 -9 43 13 36 35 105 38 124 7 7 -11 18 -20 24 -20 12 0 43 -34 63 -70 8 -14 21 -35 29 -47 13 -21 11 -26 -48 -87 -34 -36 -59 -69 -56 -75 4 -5 32 -10 64 -10 47 0 61 5 83 25 24 23 30 24 66 15 21 -6 47 -17 58 -25 11 -9 42 -16 69 -16 l49 0 78 -77 c53 -51 79 -85 79 -100 0 -29 30 -91 47 -97 8 -3 25 5 37 19 13 14 27 25 32 25 5 0 18 18 28 40 26 55 141 186 180 205 28 14 32 14 42 0 6 -8 26 -15 47 -15 30 0 43 -8 89 -60 42 -46 59 -58 75 -54 15 4 25 0 32 -15 7 -12 21 -21 32 -21 17 0 20 5 17 29 -2 21 5 37 24 56 27 27 48 26 48 -2 0 -12 7 -14 34 -9 29 6 36 3 50 -19 26 -40 44 -17 44 55 0 32 3 63 7 69 3 6 37 11 75 11 77 0 95 15 57 51 -19 17 -22 28 -18 82 2 50 8 67 28 87 14 14 32 35 40 47 11 17 21 21 38 17 23 -6 55 17 55 39 0 7 -7 23 -16 35 -13 19 -24 23 -54 21 -25 -2 -45 3 -57 13 -10 9 -29 22 -43 28 -81 36 -118 71 -112 108 3 22 -2 32 -20 44 -23 15 -24 21 -20 80 4 49 10 68 28 86 24 25 44 22 44 -5 0 -12 7 -14 32 -9 26 5 36 2 49 -15 10 -13 23 -20 31 -16 12 4 16 25 17 93 1 75 4 91 23 111 12 13 32 23 45 23 13 0 31 9 40 20 16 18 30 20 144 20 113 0 128 2 144 20 14 15 31 20 71 20 57 0 84 7 84 22 0 13 56 68 69 68 6 0 14 12 17 28 4 15 15 38 25 51 12 15 17 32 13 47 -5 18 -1 26 12 31 39 14 45 54 14 93 -11 14 -20 38 -20 53 0 17 -10 37 -25 51 -15 14 -23 30 -19 39 3 9 -4 25 -18 39 -12 12 -22 30 -20 38 1 9 -13 31 -33 50 -19 19 -35 40 -35 46 0 17 -40 44 -65 44 -12 0 -40 18 -64 40 -34 32 -50 40 -80 40 -24 0 -42 7 -54 20 -15 17 -29 20 -115 20 -86 0 -101 -3 -117 -20 -12 -13 -31 -20 -57 -20 -26 0 -44 -6 -55 -20 -10 -11 -27 -20 -39 -20 -12 0 -33 -9 -47 -20 -14 -11 -37 -20 -51 -20 -15 0 -30 -8 -36 -20 -6 -11 -18 -20 -28 -20 -9 0 -44 -27 -77 -59 -75 -74 -115 -85 -126 -33 -4 19 -16 40 -27 48 -13 9 -19 21 -15 30 4 10 -6 26 -26 45 -20 18 -31 36 -28 47 15 52 17 95 6 108 -14 17 -21 18 -37 2z"/>
<path d="M3052 4390 c-9 -16 -23 -20 -61 -20 -33 0 -56 -6 -74 -20 -14 -11 -38 -20 -55 -20 -16 0 -42 -10 -58 -22 -15 -13 -38 -21 -50 -20 -17 2 -27 -5 -38 -26 -8 -16 -34 -45 -58 -66 -117 -101 -111 -91 -69 -136 l29 -32 28 33 c64 74 86 89 131 89 34 0 46 5 59 25 12 18 22 24 36 19 13 -4 28 1 41 14 16 15 40 21 90 24 83 5 117 32 123 97 5 64 -45 106 -74 61z"/>
<path d="M6358 3153 c11 -16 29 -37 41 -47 12 -11 21 -25 21 -31 0 -11 29 -24 53 -25 30 0 -21 61 -90 108 -42 29 -48 28 -25 -5z"/>
<path d="M5680 3125 c0 -8 5 -15 10 -15 6 0 10 7 10 15 0 8 -4 15 -10 15 -5 0 -10 -7 -10 -15z"/>
</g>
</g>
  <g id="id1:id1" transform="matrix(1.25,0,0,1.25,0.0,0.0)"><g transform="translate(0.000000,409.600000) scale(0.040000,-0.040000)" fill="#bdbab9" stroke="none">
<path d="M6593 9054 c-26 -30 -28 -34 -10 -34 12 1 67 45 67 55 0 15 -38 1 -57 -21z"/>
<path d="M6680 9055 c0 -8 5 -15 10 -15 6 0 10 7 10 15 0 8 -4 15 -10 15 -5 0 -10 -7 -10 -15z"/>
<path d="M6690 9010 c0 -5 7 -10 15 -10 8 0 15 5 15 10 0 6 -7 10 -15 10 -8 0 -15 -4 -15 -10z"/>
<path d="M6720 8950 c0 -5 5 -10 10 -10 6 0 10 5 10 10 0 6 -4 10 -10 10 -5 0 -10 -4 -10 -10z"/>
<path d="M6620 8830 c0 -5 5 -10 10 -10 6 0 10 5 10 10 0 6 -4 10 -10 10 -5 0 -10 -4 -10 -10z"/>
<path d="M7180 8750 c0 -5 5 -10 10 -10 6 0 10 5 10 10 0 6 -4 10 -10 10 -5 0 -10 -4 -10 -10z"/>
<path d="M6660 8710 c0 -5 5 -10 10 -10 6 0 10 5 10 10 0 6 -4 10 -10 10 -5 0 -10 -4 -10 -10z"/>
<path d="M6840 8671 c0 -13 29 -35 37 -28 7 8 -15 37 -28 37 -5 0 -9 -4 -9 -9z"/>
<path d="M6080 8650 c0 -5 5 -10 10 -10 6 0 10 5 10 10 0 6 -4 10 -10 10 -5 0 -10 -4 -10 -10z"/>
<path d="M6660 8650 c0 -5 5 -10 10 -10 6 0 10 5 10 10 0 6 -4 10 -10 10 -5 0 -10 -4 -10 -10z"/>
<path d="M6006 8625 c-23 -17 -13 -34 11 -19 19 12 29 34 16 34 -4 0 -17 -7 -27 -15z"/>
<path d="M6220 8610 c0 -5 5 -10 10 -10 6 0 10 5 10 10 0 6 -4 10 -10 10 -5 0 -10 -4 -10 -10z"/>
<path d="M6660 8610 c0 -5 5 -10 10 -10 6 0 10 5 10 10 0 6 -4 10 -10 10 -5 0 -10 -4 -10 -10z"/>
<path d="M7060 8590 c0 -5 5 -10 10 -10 6 0 10 5 10 10 0 6 -4 10 -10 10 -5 0 -10 -4 -10 -10z"/>
<path d="M6880 8550 c0 -5 5 -10 10 -10 6 0 10 5 10 10 0 6 -4 10 -10 10 -5 0 -10 -4 -10 -10z"/>
<path d="M7240 8540 c0 -11 5 -20 10 -20 6 0 10 9 10 20 0 11 -4 20 -10 20 -5 0 -10 -9 -10 -20z"/>
<path d="M6915 8512 c-16 -10 -32 -18 -35 -20 -10 -7 24 -20 39 -15 25 9 51 35 45 44 -7 12 -13 10 -49 -9z"/>
<path d="M7646 8505 c-11 -8 -16 -20 -12 -30 6 -18 31 -16 31 3 0 5 3 14 8 18 4 4 7 11 7 16 0 12 -12 9 -34 -7z"/>
<path d="M4991 8415 c-207 -110 -268 -175 -299 -322 -7 -33 -8 -62 -2 -83 9 -30 69 -92 129 -132 48 -33 174 -67 268 -74 l91 -7 11 38 c6 21 8 42 5 47 -3 5 2 18 11 28 23 26 14 36 -47 50 -68 17 -143 59 -191 108 l-38 39 43 40 c217 201 208 188 192 286 -6 34 -9 37 -38 37 -18 -1 -75 -24 -135 -55z"/>
<path d="M5360 8450 c0 -5 5 -10 10 -10 6 0 10 5 10 10 0 6 -4 10 -10 10 -5 0 -10 -4 -10 -10z"/>
<path d="M7208 8429 c-25 -27 -23 -35 14 -53 37 -19 64 -5 28 14 -17 9 -19 14 -10 25 11 14 6 36 -8 34 -4 0 -15 -9 -24 -20z"/>
<path d="M3230 8420 c0 -10 9 -24 20 -30 11 -6 20 -17 20 -25 0 -8 7 -15 15 -15 21 0 19 24 -5 45 -11 10 -20 24 -20 32 0 7 -7 13 -15 13 -8 0 -15 -9 -15 -20z"/>
<path d="M3300 8433 c0 -16 257 -265 263 -255 4 5 -50 65 -119 133 -122 121 -144 140 -144 122z"/>
<path d="M3300 8250 c0 -5 5 -10 10 -10 6 0 10 5 10 10 0 6 -4 10 -10 10 -5 0 -10 -4 -10 -10z"/>
<path d="M3104 8188 c3 -7 9 -21 12 -30 4 -10 15 -18 25 -18 25 0 24 4 -6 35 -28 27 -40 32 -31 13z"/>
<path d="M3057 8183 c-12 -11 -8 -23 8 -23 8 0 15 7 15 15 0 16 -12 20 -23 8z"/>
<path d="M3000 8170 c0 -5 5 -10 10 -10 6 0 10 5 10 10 0 6 -4 10 -10 10 -5 0 -10 -4 -10 -10z"/>
<path d="M3230 8150 c-21 -19 -31 -33 -25 -39 6 -6 24 3 48 25 20 19 37 36 37 39 0 13 -29 1 -60 -25z"/>
<path d="M2878 8146 c-10 -7 -18 -18 -18 -23 0 -17 31 -73 40 -73 5 0 36 -25 70 -56 33 -31 63 -54 67 -50 6 5 -110 134 -147 163 -13 9 -11 13 13 24 15 7 27 16 27 21 0 12 -33 9 -52 -6z"/>
<path d="M7263 8144 c-7 -18 17 -38 31 -24 11 11 1 40 -14 40 -6 0 -13 -7 -17 -16z"/>
<path d="M3540 8120 c0 -11 5 -20 10 -20 6 0 10 9 10 20 0 11 -4 20 -10 20 -5 0 -10 -9 -10 -20z"/>
<path d="M7340 8130 c0 -5 5 -10 10 -10 6 0 10 5 10 10 0 6 -4 10 -10 10 -5 0 -10 -4 -10 -10z"/>
<path d="M7201 8116 c-9 -11 -8 -18 5 -30 20 -21 44 -5 37 24 -6 23 -26 26 -42 6z"/>
<path d="M2776 8091 c-16 -16 -26 -35 -24 -42 4 -12 68 48 68 64 0 15 -17 6 -44 -22z"/>
<path d="M2800 8050 c0 -5 12 -10 26 -10 14 0 23 4 19 10 -3 6 -15 10 -26 10 -10 0 -19 -4 -19 -10z"/>
<path d="M5400 8050 c0 -5 5 -10 10 -10 6 0 10 5 10 10 0 6 -4 10 -10 10 -5 0 -10 -4 -10 -10z"/>
<path d="M3512 8028 c-13 -13 -16 -38 -6 -38 8 0 33 32 34 43 0 11 -15 8 -28 -5z"/>
<path d="M5560 8030 c0 -5 7 -10 15 -10 8 0 15 5 15 10 0 6 -7 10 -15 10 -8 0 -15 -4 -15 -10z"/>
<path d="M7850 8020 c-13 -9 -13 -11 0 -20 18 -11 39 5 24 20 -6 6 -15 6 -24 0z"/>
<path d="M5760 7990 c0 -5 5 -10 10 -10 6 0 10 5 10 10 0 6 -4 10 -10 10 -5 0 -10 -4 -10 -10z"/>
<path d="M7700 7990 c0 -5 5 -10 10 -10 6 0 10 5 10 10 0 6 -4 10 -10 10 -5 0 -10 -4 -10 -10z"/>
<path d="M7740 7970 c0 -5 5 -10 10 -10 6 0 10 5 10 10 0 6 -4 10 -10 10 -5 0 -10 -4 -10 -10z"/>
<path d="M3470 7910 c0 -17 162 -180 172 -174 6 4 -24 41 -66 83 -42 42 -76 82 -76 89 0 6 -7 12 -15 12 -8 0 -15 -5 -15 -10z"/>
<path d="M5540 7890 c0 -5 5 -10 10 -10 6 0 10 5 10 10 0 6 -4 10 -10 10 -5 0 -10 -4 -10 -10z"/>
<path d="M5740 7850 c0 -5 5 -10 10 -10 6 0 10 5 10 10 0 6 -4 10 -10 10 -5 0 -10 -4 -10 -10z"/>
<path d="M5584 7839 c-12 -20 16 -33 76 -35 33 0 60 2 60 6 0 4 -9 15 -20 25 -16 15 -22 16 -35 5 -12 -10 -19 -10 -27 -2 -15 15 -45 15 -54 1z"/>
<path d="M5320 7825 c0 -9 5 -15 11 -13 6 2 11 8 11 13 0 5 -5 11 -11 13 -6 2 -11 -4 -11 -13z"/>
<path d="M5800 7832 c0 -17 37 -42 54 -36 25 9 19 21 -15 33 -38 13 -39 13 -39 3z"/>
<path d="M2940 7810 c0 -5 5 -10 10 -10 6 0 10 5 10 10 0 6 -4 10 -10 10 -5 0 -10 -4 -10 -10z"/>
<path d="M6000 7810 c0 -5 5 -10 10 -10 6 0 10 5 10 10 0 6 -4 10 -10 10 -5 0 -10 -4 -10 -10z"/>
<path d="M7560 7810 c0 -5 5 -10 10 -10 6 0 10 5 10 10 0 6 -4 10 -10 10 -5 0 -10 -4 -10 -10z"/>
<path d="M2862 7780 c-26 -34 -27 -40 -9 -40 16 0 59 55 50 64 -11 11 -19 6 -41 -24z"/>
<path d="M5564 7779 c-10 -17 13 -36 27 -22 12 12 4 33 -11 33 -5 0 -12 -5 -16 -11z"/>
<path d="M7480 7770 c0 -5 7 -10 15 -10 8 0 15 5 15 10 0 6 -7 10 -15 10 -8 0 -15 -4 -15 -10z"/>
<path d="M2796 7754 c-3 -9 -3 -20 0 -25 3 -6 0 -17 -7 -25 -14 -18 -3 -32 13 -16 8 8 28 -4 80 -50 38 -33 72 -57 76 -53 4 3 -28 40 -70 81 -42 40 -73 76 -67 79 10 7 3 25 -11 25 -4 0 -11 -7 -14 -16z"/>
<path d="M4580 7750 c0 -5 5 -10 10 -10 6 0 10 5 10 10 0 6 -4 10 -10 10 -5 0 -10 -4 -10 -10z"/>
<path d="M5242 7751 c2 -7 7 -12 11 -12 12 1 9 15 -3 20 -7 2 -11 -2 -8 -8z"/>
<path d="M5980 7730 c0 -5 5 -10 10 -10 6 0 10 5 10 10 0 6 -4 10 -10 10 -5 0 -10 -4 -10 -10z"/>
<path d="M4600 7710 c0 -5 5 -10 10 -10 6 0 10 5 10 10 0 6 -4 10 -10 10 -5 0 -10 -4 -10 -10z"/>
<path d="M2740 7695 c0 -9 5 -15 11 -13 6 2 11 8 11 13 0 5 -5 11 -11 13 -6 2 -11 -4 -11 -13z"/>
<path d="M3630 7694 c0 -8 32 -33 43 -34 14 0 7 28 -9 34 -20 8 -34 8 -34 0z"/>
<path d="M5240 7690 c0 -5 4 -10 9 -10 6 0 13 5 16 10 3 6 -1 10 -9 10 -9 0 -16 -4 -16 -10z"/>
<path d="M5240 7651 c0 -13 29 -35 37 -28 7 8 -15 37 -28 37 -5 0 -9 -4 -9 -9z"/>
<path d="M3670 7610 c0 -5 7 -10 15 -10 8 0 15 5 15 10 0 6 -7 10 -15 10 -8 0 -15 -4 -15 -10z"/>
<path d="M4500 7610 c0 -5 5 -10 10 -10 6 0 10 5 10 10 0 6 -4 10 -10 10 -5 0 -10 -4 -10 -10z"/>
<path d="M5300 7610 c0 -5 5 -10 10 -10 6 0 10 5 10 10 0 6 -4 10 -10 10 -5 0 -10 -4 -10 -10z"/>
<path d="M3017 7563 c-12 -11 -8 -23 8 -23 8 0 15 7 15 15 0 16 -12 20 -23 8z"/>
<path d="M3716 7542 c-6 -9 174 -193 196 -201 22 -8 0 21 -79 102 -102 104 -110 110 -117 99z"/>
<path d="M7780 7530 c0 -5 5 -10 10 -10 6 0 10 5 10 10 0 6 -4 10 -10 10 -5 0 -10 -4 -10 -10z"/>
<path d="M3130 7523 c0 -5 14 -24 30 -43 22 -27 32 -32 41 -23 8 9 3 18 -22 42 -34 30 -49 38 -49 24z"/>
<path d="M7355 7498 c-18 -37 -18 -38 -4 -38 11 0 48 39 49 51 0 4 -7 9 -15 12 -9 4 -20 -5 -30 -25z"/>
<path d="M5600 7510 c0 -5 5 -10 10 -10 6 0 10 5 10 10 0 6 -4 10 -10 10 -5 0 -10 -4 -10 -10z"/>
<path d="M7993 7503 c-18 -2 -33 -8 -33 -12 0 -14 29 -33 40 -26 8 5 36 48 28 43 -2 0 -18 -3 -35 -5z"/>
<path d="M4120 7490 c0 -5 5 -10 10 -10 6 0 10 5 10 10 0 6 -4 10 -10 10 -5 0 -10 -4 -10 -10z"/>
<path d="M7900 7490 c0 -5 5 -10 10 -10 6 0 10 5 10 10 0 6 -4 10 -10 10 -5 0 -10 -4 -10 -10z"/>
<path d="M7480 7470 c0 -5 11 -10 25 -10 14 0 25 5 25 10 0 6 -11 10 -25 10 -14 0 -25 -4 -25 -10z"/>
<path d="M7450 7440 c-13 -9 -13 -11 0 -20 18 -11 39 5 24 20 -6 6 -15 6 -24 0z"/>
<path d="M2320 7431 c0 -5 7 -11 15 -15 8 -3 12 -11 9 -19 -5 -13 22 -44 31 -35 2 2 -1 21 -7 41 -8 25 -17 37 -30 37 -10 0 -18 -4 -18 -9z"/>
<path d="M5220 7430 c0 -5 5 -10 10 -10 6 0 10 5 10 10 0 6 -4 10 -10 10 -5 0 -10 -4 -10 -10z"/>
<path d="M7680 7430 c0 -6 33 -10 80 -10 47 0 80 4 80 10 0 6 -33 10 -80 10 -47 0 -80 -4 -80 -10z"/>
<path d="M7500 7415 c0 -8 5 -15 10 -15 6 0 10 7 10 15 0 8 -4 15 -10 15 -5 0 -10 -7 -10 -15z"/>
<path d="M5829 7381 c-41 -41 -49 -60 -16 -38 14 9 35 17 46 17 23 0 34 23 18 39 -15 15 -17 13 -48 -18z"/>
<path d="M4840 7390 c0 -5 5 -10 10 -10 6 0 10 5 10 10 0 6 -4 10 -10 10 -5 0 -10 -4 -10 -10z"/>
<path d="M6994 7389 c-10 -17 13 -36 27 -22 12 12 4 33 -11 33 -5 0 -12 -5 -16 -11z"/>
<path d="M7535 7390 c-4 -7 -2 -17 4 -23 17 -17 13 -38 -11 -64 -21 -22 -21 -26 -7 -51 20 -37 98 -87 167 -108 116 -35 296 -13 372 46 l25 19 -55 56 -55 56 -65 -6 c-80 -8 -189 9 -233 35 -17 11 -41 20 -52 20 -12 0 -25 4 -30 9 -18 16 -53 22 -60 11z"/>
<path d="M5200 7350 c0 -11 5 -20 10 -20 6 0 10 9 10 20 0 11 -4 20 -10 20 -5 0 -10 -9 -10 -20z"/>
<path d="M4910 7350 c0 -5 7 -10 15 -10 8 0 15 5 15 10 0 6 -7 10 -15 10 -8 0 -15 -4 -15 -10z"/>
<path d="M5020 7350 c0 -5 5 -10 10 -10 6 0 10 5 10 10 0 6 -4 10 -10 10 -5 0 -10 -4 -10 -10z"/>
<path d="M7040 7350 c0 -5 5 -10 10 -10 6 0 10 5 10 10 0 6 -4 10 -10 10 -5 0 -10 -4 -10 -10z"/>
<path d="M2400 7330 c0 -5 5 -10 10 -10 6 0 10 5 10 10 0 6 -4 10 -10 10 -5 0 -10 -4 -10 -10z"/>
<path d="M4260 7330 c0 -5 5 -10 10 -10 6 0 10 5 10 10 0 6 -4 10 -10 10 -5 0 -10 -4 -10 -10z"/>
<path d="M4730 7330 c0 -5 11 -10 25 -10 14 0 25 5 25 10 0 6 -11 10 -25 10 -14 0 -25 -4 -25 -10z"/>
<path d="M8180 7315 c0 -14 5 -25 10 -25 6 0 10 11 10 25 0 14 -4 25 -10 25 -5 0 -10 -11 -10 -25z"/>
<path d="M2560 7310 c0 -5 5 -10 10 -10 6 0 10 5 10 10 0 6 -4 10 -10 10 -5 0 -10 -4 -10 -10z"/>
<path d="M3220 7311 c0 -13 29 -35 37 -28 7 8 -15 37 -28 37 -5 0 -9 -4 -9 -9z"/>
<path d="M4800 7312 c0 -10 22 -32 32 -32 15 0 8 28 -8 34 -21 8 -24 8 -24 -2z"/>
<path d="M3980 7271 c0 -6 5 -13 10 -16 6 -3 10 1 10 9 0 9 -4 16 -10 16 -5 0 -10 -4 -10 -9z"/>
<path d="M5020 7261 c0 -12 6 -21 15 -21 8 0 15 4 15 9 0 5 -7 14 -15 21 -13 10 -15 9 -15 -9z"/>
<path d="M5140 7270 c0 -5 7 -10 15 -10 8 0 15 5 15 10 0 6 -7 10 -15 10 -8 0 -15 -4 -15 -10z"/>
<path d="M3950 7225 c-7 -9 -10 -18 -7 -22 8 -7 37 15 37 28 0 14 -16 11 -30 -6z"/>
<path d="M4420 7230 c0 -5 5 -10 10 -10 6 0 10 5 10 10 0 6 -4 10 -10 10 -5 0 -10 -4 -10 -10z"/>
<path d="M6960 7210 c0 -5 5 -10 10 -10 6 0 10 5 10 10 0 6 -4 10 -10 10 -5 0 -10 -4 -10 -10z"/>
<path d="M3872 7190 c-15 -25 -15 -30 1 -30 18 0 49 34 40 43 -12 12 -28 7 -41 -13z"/>
<path d="M6599 7194 c-18 -22 4 -42 26 -24 19 16 19 26 1 33 -8 3 -20 -1 -27 -9z"/>
<path d="M7260 7170 c0 -5 5 -10 10 -10 6 0 10 5 10 10 0 6 -4 10 -10 10 -5 0 -10 -4 -10 -10z"/>
<path d="M3795 7149 c-4 -6 -5 -13 -2 -16 8 -7 47 7 47 18 0 13 -37 11 -45 -2z"/>
<path d="M7253 7143 c-20 -7 -15 -23 7 -23 11 0 20 4 20 9 0 13 -12 19 -27 14z"/>
<path d="M3324 7124 c3 -9 6 -18 6 -20 0 -2 7 -4 15 -4 18 0 19 12 3 28 -17 17 -31 15 -24 -4z"/>
<path d="M7100 7130 c0 -5 5 -10 10 -10 6 0 10 5 10 10 0 6 -4 10 -10 10 -5 0 -10 -4 -10 -10z"/>
<path d="M3710 7105 c-7 -9 -10 -18 -7 -22 8 -7 37 15 37 28 0 14 -16 11 -30 -6z"/>
<path d="M2340 7090 c0 -5 9 -10 20 -10 11 0 20 5 20 10 0 6 -9 10 -20 10 -11 0 -20 -4 -20 -10z"/>
<path d="M3610 7045 c-18 -19 -31 -37 -28 -40 7 -7 96 56 97 68 2 19 -39 3 -69 -28z"/>
<path d="M3843 7066 c-27 -13 -29 -22 -8 -30 15 -5 45 18 45 35 0 11 -8 10 -37 -5z"/>
<path d="M2260 7050 c0 -5 7 -10 15 -10 8 0 15 5 15 10 0 6 -7 10 -15 10 -8 0 -15 -4 -15 -10z"/>
<path d="M3340 7050 c0 -5 5 -10 10 -10 6 0 10 5 10 10 0 6 -4 10 -10 10 -5 0 -10 -4 -10 -10z"/>
<path d="M2780 7030 c0 -5 5 -10 10 -10 6 0 10 5 10 10 0 6 -4 10 -10 10 -5 0 -10 -4 -10 -10z"/>
<path d="M3776 7033 c-4 -5 -13 -8 -18 -8 -6 0 -13 -6 -15 -12 -3 -8 4 -13 14 -13 19 0 43 18 43 32 0 10 -14 10 -24 1z"/>
<path d="M6960 6995 c0 -8 5 -15 10 -15 6 0 10 7 10 15 0 8 -4 15 -10 15 -5 0 -10 -7 -10 -15z"/>
<path d="M3667 6984 c-13 -13 -7 -24 14 -24 11 0 19 5 17 12 -5 14 -22 21 -31 12z"/>
<path d="M3540 6970 c0 -5 5 -10 10 -10 6 0 10 5 10 10 0 6 -4 10 -10 10 -5 0 -10 -4 -10 -10z"/>
<path d="M2146 6939 c-14 -21 -12 -49 5 -49 9 0 10 3 13 33 0 6 13 13 29 15 36 4 35 22 -2 22 -19 0 -35 -8 -45 -21z"/>
<path d="M2280 6951 c0 -13 29 -35 37 -28 7 8 -15 37 -28 37 -5 0 -9 -4 -9 -9z"/>
<path d="M3450 6925 c-18 -19 -30 -38 -27 -42 8 -7 77 55 77 69 0 16 -17 7 -50 -27z"/>
<path d="M7895 6953 c-72 -16 -85 -30 -110 -128 -23 -88 -29 -180 -16 -267 11 -80 2 -193 -21 -268 -21 -70 -77 -128 -163 -171 -72 -35 -90 -40 -182 -46 -105 -6 -122 -15 -87 -44 10 -8 14 -22 10 -40 -4 -22 -1 -29 14 -34 11 -3 29 -19 40 -35 46 -64 180 -82 310 -40 105 34 195 100 252 186 87 130 92 208 23 368 -60 141 -63 179 -30 351 7 39 17 94 20 123 l7 52 -24 -1 c-12 -1 -32 -3 -43 -6z"/>
<path d="M3600 6924 c0 -9 5 -14 12 -12 18 6 21 28 4 28 -9 0 -16 -7 -16 -16z"/>
<path d="M7440 6930 c0 -5 9 -10 20 -10 11 0 20 5 20 10 0 6 -9 10 -20 10 -11 0 -20 -4 -20 -10z"/>
<path d="M6640 6900 c0 -11 5 -20 10 -20 6 0 10 9 10 20 0 11 -4 20 -10 20 -5 0 -10 -9 -10 -20z"/>
<path d="M2300 6890 c0 -5 5 -10 10 -10 6 0 10 5 10 10 0 6 -4 10 -10 10 -5 0 -10 -4 -10 -10z"/>
<path d="M3355 6890 c-3 -6 1 -13 10 -16 19 -8 30 0 20 15 -8 14 -22 14 -30 1z"/>
<path d="M6740 6890 c0 -5 5 -10 10 -10 6 0 10 5 10 10 0 6 -4 10 -10 10 -5 0 -10 -4 -10 -10z"/>
<path d="M3200 6871 c0 -13 29 -35 37 -28 7 8 -15 37 -28 37 -5 0 -9 -4 -9 -9z"/>
<path d="M7340 6850 c0 -5 5 -10 10 -10 6 0 10 5 10 10 0 6 -4 10 -10 10 -5 0 -10 -4 -10 -10z"/>
<path d="M3260 6830 c0 -5 5 -10 10 -10 6 0 10 5 10 10 0 6 -4 10 -10 10 -5 0 -10 -4 -10 -10z"/>
<path d="M6780 6810 c0 -5 5 -10 10 -10 6 0 10 5 10 10 0 6 -4 10 -10 10 -5 0 -10 -4 -10 -10z"/>
<path d="M7306 6804 c-4 -9 -4 -19 -1 -22 6 -6 35 18 35 29 0 16 -28 10 -34 -7z"/>
<path d="M2360 6770 c0 -5 5 -10 10 -10 6 0 10 5 10 10 0 6 -4 10 -10 10 -5 0 -10 -4 -10 -10z"/>
<path d="M3360 6772 c0 -5 13 -21 30 -37 24 -23 32 -26 45 -15 22 18 19 30 -9 30 -13 0 -29 7 -36 15 -13 16 -30 20 -30 7z"/>
<path d="M6100 6750 c0 -5 9 -10 20 -10 11 0 20 5 20 10 0 6 -9 10 -20 10 -11 0 -20 -4 -20 -10z"/>
<path d="M2360 6710 c0 -5 5 -10 10 -10 6 0 10 5 10 10 0 6 -4 10 -10 10 -5 0 -10 -4 -10 -10z"/>
<path d="M6720 6710 c0 -5 5 -10 10 -10 6 0 10 5 10 10 0 6 -4 10 -10 10 -5 0 -10 -4 -10 -10z"/>
<path d="M6405 6699 c-10 -15 3 -25 16 -12 7 7 7 13 1 17 -6 3 -14 1 -17 -5z"/>
<path d="M2320 6670 c0 -5 5 -10 10 -10 6 0 10 5 10 10 0 6 -4 10 -10 10 -5 0 -10 -4 -10 -10z"/>
<path d="M6150 6630 c0 -5 7 -10 15 -10 8 0 15 5 15 10 0 6 -7 10 -15 10 -8 0 -15 -4 -15 -10z"/>
<path d="M6780 6630 c0 -5 5 -10 10 -10 6 0 10 5 10 10 0 6 -4 10 -10 10 -5 0 -10 -4 -10 -10z"/>
<path d="M6380 6610 c0 -5 5 -10 10 -10 6 0 10 5 10 10 0 6 -4 10 -10 10 -5 0 -10 -4 -10 -10z"/>
<path d="M2480 6590 c0 -5 5 -10 10 -10 6 0 10 5 10 10 0 6 -4 10 -10 10 -5 0 -10 -4 -10 -10z"/>
<path d="M2780 6570 c0 -5 5 -10 10 -10 6 0 10 5 10 10 0 6 -4 10 -10 10 -5 0 -10 -4 -10 -10z"/>
<path d="M6912 6528 c-19 -19 -14 -26 23 -30 33 -4 34 -3 22 16 -17 25 -30 29 -45 14z"/>
<path d="M2315 6509 c-4 -6 -5 -13 -2 -16 7 -7 27 6 27 18 0 12 -17 12 -25 -2z"/>
<path d="M6180 6510 c0 -5 5 -10 10 -10 6 0 10 5 10 10 0 6 -4 10 -10 10 -5 0 -10 -4 -10 -10z"/>
<path d="M2840 6490 c0 -5 5 -10 10 -10 6 0 10 5 10 10 0 6 -4 10 -10 10 -5 0 -10 -4 -10 -10z"/>
<path d="M5760 6420 c0 -11 5 -20 10 -20 6 0 10 9 10 20 0 11 -4 20 -10 20 -5 0 -10 -9 -10 -20z"/>
<path d="M6340 6405 c0 -8 5 -15 10 -15 6 0 10 7 10 15 0 8 -4 15 -10 15 -5 0 -10 -7 -10 -15z"/>
<path d="M6216 6372 c-2 -4 0 -14 5 -22 8 -13 10 -13 18 0 10 15 6 30 -9 30 -5 0 -11 -4 -14 -8z"/>
<path d="M6080 6350 c0 -5 5 -10 10 -10 6 0 10 5 10 10 0 6 -4 10 -10 10 -5 0 -10 -4 -10 -10z"/>
<path d="M6360 6340 c0 -11 5 -20 10 -20 6 0 10 9 10 20 0 11 -4 20 -10 20 -5 0 -10 -9 -10 -20z"/>
<path d="M3100 6310 c0 -5 5 -10 10 -10 6 0 10 5 10 10 0 6 -4 10 -10 10 -5 0 -10 -4 -10 -10z"/>
<path d="M5760 6275 c0 -8 5 -15 10 -15 6 0 10 7 10 15 0 8 -4 15 -10 15 -5 0 -10 -7 -10 -15z"/>
<path d="M3180 6250 c0 -5 5 -10 10 -10 6 0 10 5 10 10 0 6 -4 10 -10 10 -5 0 -10 -4 -10 -10z"/>
<path d="M3240 6230 c0 -5 5 -10 10 -10 6 0 10 5 10 10 0 6 -4 10 -10 10 -5 0 -10 -4 -10 -10z"/>
<path d="M3330 6230 c0 -5 7 -10 15 -10 8 0 15 5 15 10 0 6 -7 10 -15 10 -8 0 -15 -4 -15 -10z"/>
<path d="M3420 6230 c0 -5 5 -10 10 -10 6 0 10 5 10 10 0 6 -4 10 -10 10 -5 0 -10 -4 -10 -10z"/>
<path d="M6120 6230 c0 -5 5 -10 10 -10 6 0 10 5 10 10 0 6 -4 10 -10 10 -5 0 -10 -4 -10 -10z"/>
<path d="M5920 6211 c0 -13 29 -35 37 -28 7 8 -15 37 -28 37 -5 0 -9 -4 -9 -9z"/>
<path d="M6400 6210 c0 -5 5 -10 10 -10 6 0 10 5 10 10 0 6 -4 10 -10 10 -5 0 -10 -4 -10 -10z"/>
<path d="M5800 6150 c0 -5 5 -10 10 -10 6 0 10 5 10 10 0 6 -4 10 -10 10 -5 0 -10 -4 -10 -10z"/>
<path d="M6060 6150 c0 -5 5 -10 10 -10 6 0 10 5 10 10 0 6 -4 10 -10 10 -5 0 -10 -4 -10 -10z"/>
<path d="M6156 6152 c-2 -4 -1 -14 4 -22 7 -11 12 -12 21 -3 6 6 8 16 5 22 -8 13 -23 14 -30 3z"/>
<path d="M3138 6143 c-10 -2 -18 -8 -18 -13 0 -5 -26 -38 -58 -72 -50 -54 -195 -229 -227 -274 -16 -23 10 -32 65 -23 53 8 154 58 265 131 39 25 94 57 123 72 56 28 72 50 53 69 -17 17 -13 38 10 64 18 18 20 25 9 38 -15 18 -81 20 -98 3 -9 -9 -15 -9 -24 0 -12 12 -65 14 -100 5z"/>
<path d="M3420 6130 c0 -5 5 -10 10 -10 6 0 10 5 10 10 0 6 -4 10 -10 10 -5 0 -10 -4 -10 -10z"/>
<path d="M6560 6010 c0 -5 5 -10 10 -10 6 0 10 5 10 10 0 6 -4 10 -10 10 -5 0 -10 -4 -10 -10z"/>
<path d="M5784 5999 c-10 -17 13 -36 27 -22 12 12 4 33 -11 33 -5 0 -12 -5 -16 -11z"/>
<path d="M5900 5991 c0 -13 29 -35 37 -28 7 8 -15 37 -28 37 -5 0 -9 -4 -9 -9z"/>
<path d="M6486 5985 c-23 -17 -13 -34 11 -19 19 12 29 34 16 34 -4 0 -17 -7 -27 -15z"/>
<path d="M7260 5925 c0 -8 5 -15 10 -15 6 0 10 7 10 15 0 8 -4 15 -10 15 -5 0 -10 -7 -10 -15z"/>
<path d="M7300 5911 c0 -13 29 -35 37 -28 7 8 -15 37 -28 37 -5 0 -9 -4 -9 -9z"/>
<path d="M7380 5850 c0 -5 5 -10 10 -10 6 0 10 5 10 10 0 6 -4 10 -10 10 -5 0 -10 -4 -10 -10z"/>
<path d="M7420 5805 c0 -8 5 -15 10 -15 6 0 10 7 10 15 0 8 -4 15 -10 15 -5 0 -10 -7 -10 -15z"/>
<path d="M5540 5790 c0 -5 5 -10 10 -10 6 0 10 5 10 10 0 6 -4 10 -10 10 -5 0 -10 -4 -10 -10z"/>
<path d="M5865 5740 c-10 -11 -15 -23 -12 -27 8 -7 47 25 47 39 0 14 -16 9 -35 -12z"/>
<path d="M6830 5745 c-7 -9 -10 -18 -7 -22 8 -7 37 15 37 28 0 14 -16 11 -30 -6z"/>
<path d="M5630 5740 c-13 -9 -13 -11 0 -20 18 -11 39 5 24 20 -6 6 -15 6 -24 0z"/>
<path d="M5800 5730 c0 -5 5 -10 10 -10 6 0 10 5 10 10 0 6 -4 10 -10 10 -5 0 -10 -4 -10 -10z"/>
<path d="M7005 5722 c-3 -3 -5 -11 -5 -18 0 -15 52 -12 57 3 4 11 -43 24 -52 15z"/>
<path d="M6760 5710 c0 -5 5 -10 10 -10 6 0 10 5 10 10 0 6 -4 10 -10 10 -5 0 -10 -4 -10 -10z"/>
<path d="M7820 5690 c0 -5 5 -10 10 -10 6 0 10 5 10 10 0 6 -4 10 -10 10 -5 0 -10 -4 -10 -10z"/>
<path d="M6564 5679 c-3 -6 -2 -15 2 -19 12 -12 38 5 30 19 -9 14 -23 14 -32 0z"/>
<path d="M5360 5670 c0 -5 5 -10 10 -10 6 0 10 5 10 10 0 6 -4 10 -10 10 -5 0 -10 -4 -10 -10z"/>
<path d="M5780 5670 c0 -5 5 -10 10 -10 6 0 10 5 10 10 0 6 -4 10 -10 10 -5 0 -10 -4 -10 -10z"/>
<path d="M7120 5670 c0 -5 5 -10 10 -10 6 0 10 5 10 10 0 6 -4 10 -10 10 -5 0 -10 -4 -10 -10z"/>
<path d="M7180 5650 c0 -5 5 -10 10 -10 6 0 10 5 10 10 0 6 -4 10 -10 10 -5 0 -10 -4 -10 -10z"/>
<path d="M7000 5631 c0 -13 29 -35 37 -28 7 8 -15 37 -28 37 -5 0 -9 -4 -9 -9z"/>
<path d="M7120 5632 c0 -5 9 -17 20 -27 16 -14 23 -16 32 -7 8 8 8 15 3 21 -15 14 -55 23 -55 13z"/>
<path d="M7280 5630 c0 -5 7 -10 15 -10 8 0 15 5 15 10 0 6 -7 10 -15 10 -8 0 -15 -4 -15 -10z"/>
<path d="M3860 5610 c0 -5 5 -10 10 -10 6 0 10 5 10 10 0 6 -4 10 -10 10 -5 0 -10 -4 -10 -10z"/>
<path d="M6700 5610 c0 -5 5 -10 10 -10 6 0 10 5 10 10 0 6 -4 10 -10 10 -5 0 -10 -4 -10 -10z"/>
<path d="M7420 5590 c0 -5 5 -10 10 -10 6 0 10 5 10 10 0 6 -4 10 -10 10 -5 0 -10 -4 -10 -10z"/>
<path d="M7227 5562 c-10 -11 -17 -35 -17 -59 0 -27 -6 -46 -20 -58 -11 -10 -20 -23 -20 -30 0 -12 192 -194 248 -236 32 -22 42 -24 155 -23 104 0 129 4 172 23 47 21 88 58 123 109 20 31 9 38 -79 46 -104 11 -203 51 -349 141 -19 12 -51 27 -70 35 -19 7 -42 19 -51 27 -8 7 -23 13 -33 13 -9 0 -19 7 -22 15 -8 20 -17 19 -37 -3z"/>
<path d="M6380 5510 c0 -5 5 -10 10 -10 6 0 10 5 10 10 0 6 -4 10 -10 10 -5 0 -10 -4 -10 -10z"/>
<path d="M6880 5450 c0 -5 5 -10 10 -10 6 0 10 5 10 10 0 6 -4 10 -10 10 -5 0 -10 -4 -10 -10z"/>
<path d="M6880 5400 c0 -11 5 -20 10 -20 6 0 10 9 10 20 0 11 -4 20 -10 20 -5 0 -10 -9 -10 -20z"/>
<path d="M6040 5370 c0 -5 5 -10 10 -10 6 0 10 5 10 10 0 6 -4 10 -10 10 -5 0 -10 -4 -10 -10z"/>
<path d="M3210 5010 c0 -5 7 -10 15 -10 8 0 15 5 15 10 0 6 -7 10 -15 10 -8 0 -15 -4 -15 -10z"/>
<path d="M3830 4945 c-7 -9 -10 -18 -7 -22 8 -7 37 15 37 28 0 14 -16 11 -30 -6z"/>
<path d="M4060 4951 c0 -13 29 -35 37 -28 7 8 -15 37 -28 37 -5 0 -9 -4 -9 -9z"/>
<path d="M3170 4925 c-7 -9 -10 -18 -7 -22 8 -7 37 15 37 28 0 14 -16 11 -30 -6z"/>
<path d="M3219 4936 c-3 -3 -3 -23 -1 -45 3 -29 11 -44 29 -56 30 -20 42 -12 20 12 -8 10 -17 33 -19 52 -3 31 -17 49 -29 37z"/>
<path d="M3715 4910 c-25 -27 -10 -39 16 -13 12 11 17 23 11 27 -5 3 -17 -3 -27 -14z"/>
<path d="M4180 4912 c0 -13 64 -72 78 -72 21 0 13 14 -28 48 -40 33 -50 38 -50 24z"/>
<path d="M4500 4890 c0 -5 5 -10 10 -10 6 0 10 5 10 10 0 6 -4 10 -10 10 -5 0 -10 -4 -10 -10z"/>
<path d="M3628 4869 c-22 -23 -22 -29 -5 -29 18 0 49 34 40 43 -9 10 -16 8 -35 -14z"/>
<path d="M3157 4863 c-12 -11 -8 -23 8 -23 8 0 15 7 15 15 0 16 -12 20 -23 8z"/>
<path d="M4520 4850 c0 -5 5 -10 10 -10 6 0 10 5 10 10 0 6 -4 10 -10 10 -5 0 -10 -4 -10 -10z"/>
<path d="M5340 4845 c0 -8 5 -15 10 -15 6 0 10 7 10 15 0 8 -4 15 -10 15 -5 0 -10 -7 -10 -15z"/>
<path d="M6320 4850 c0 -5 5 -10 10 -10 6 0 10 5 10 10 0 6 -4 10 -10 10 -5 0 -10 -4 -10 -10z"/>
<path d="M3130 4805 c-7 -9 -10 -18 -7 -22 8 -7 37 15 37 28 0 14 -16 11 -30 -6z"/>
<path d="M3540 4810 c0 -5 5 -10 10 -10 6 0 10 5 10 10 0 6 -4 10 -10 10 -5 0 -10 -4 -10 -10z"/>
<path d="M3435 4750 c-32 -33 -56 -63 -52 -67 4 -4 35 20 68 54 34 33 57 63 52 66 -5 3 -36 -21 -68 -53z"/>
<path d="M4340 4792 c0 -14 49 -56 57 -49 3 4 -4 18 -17 32 -24 25 -40 32 -40 17z"/>
<path d="M3260 4775 c0 -8 9 -15 20 -15 24 0 27 15 4 24 -22 9 -24 8 -24 -9z"/>
<path d="M4580 4730 c0 -5 5 -10 10 -10 6 0 10 5 10 10 0 6 -4 10 -10 10 -5 0 -10 -4 -10 -10z"/>
<path d="M6360 4700 c0 -11 5 -20 10 -20 6 0 10 9 10 20 0 11 -4 20 -10 20 -5 0 -10 -9 -10 -20z"/>
<path d="M3317 4703 c-13 -12 -7 -23 13 -23 13 0 18 5 14 15 -7 16 -17 19 -27 8z"/>
<path d="M4390 4692 c0 -10 41 -35 47 -28 9 8 -17 36 -33 36 -8 0 -14 -3 -14 -8z"/>
<path d="M5360 4650 c0 -5 5 -10 10 -10 6 0 10 5 10 10 0 6 -4 10 -10 10 -5 0 -10 -4 -10 -10z"/>
<path d="M4435 4619 c-4 -6 1 -17 11 -24 24 -18 34 -19 34 0 0 19 -36 39 -45 24z"/>
<path d="M3120 4613 c0 -5 6 -18 14 -29 17 -22 35 -11 20 13 -12 19 -34 29 -34 16z"/>
<path d="M5360 4590 c0 -5 5 -10 10 -10 6 0 10 5 10 10 0 6 -4 10 -10 10 -5 0 -10 -4 -10 -10z"/>
<path d="M6100 4590 c0 -5 5 -10 10 -10 6 0 10 5 10 10 0 6 -4 10 -10 10 -5 0 -10 -4 -10 -10z"/>
<path d="M4475 4519 c-7 -10 21 -38 38 -39 11 0 8 25 -5 38 -15 15 -25 15 -33 1z"/>
<path d="M3160 4498 c0 -18 27 -44 37 -34 4 4 -3 16 -15 29 -18 17 -22 18 -22 5z"/>
<path d="M4620 4490 c0 -5 5 -10 10 -10 6 0 10 5 10 10 0 6 -4 10 -10 10 -5 0 -10 -4 -10 -10z"/>
<path d="M4614 4449 c-10 -17 13 -36 27 -22 12 12 4 33 -11 33 -5 0 -12 -5 -16 -11z"/>
<path d="M5400 4430 c0 -5 5 -10 10 -10 6 0 10 5 10 10 0 6 -4 10 -10 10 -5 0 -10 -4 -10 -10z"/>
<path d="M3112 4407 c-6 -7 -9 -22 -7 -33 14 -71 16 -76 30 -70 8 3 17 1 21 -5 7 -13 44 18 44 38 0 19 -13 16 -28 -7 -19 -31 -32 -15 -32 41 0 49 -8 60 -28 36z"/>
<path d="M4480 4395 c-13 -14 -20 -28 -17 -32 8 -7 57 35 57 49 0 15 -16 8 -40 -17z"/>
<path d="M6180 4410 c0 -5 5 -10 10 -10 6 0 10 5 10 10 0 6 -4 10 -10 10 -5 0 -10 -4 -10 -10z"/>
<path d="M3030 4385 c-7 -9 -10 -18 -7 -22 8 -7 37 15 37 28 0 14 -16 11 -30 -6z"/>
<path d="M6200 4370 c0 -5 5 -10 10 -10 6 0 10 5 10 10 0 6 -4 10 -10 10 -5 0 -10 -4 -10 -10z"/>
<path d="M2884 4346 c-10 -8 -16 -17 -12 -21 8 -8 68 16 68 27 0 13 -35 9 -56 -6z"/>
<path d="M4574 4349 c-8 -14 11 -33 25 -25 11 7 4 36 -9 36 -5 0 -12 -5 -16 -11z"/>
<path d="M2790 4305 c-18 -19 -20 -25 -8 -25 19 0 52 36 40 44 -5 3 -20 -6 -32 -19z"/>
<path d="M4447 4323 c-10 -10 -8 -33 3 -33 5 0 14 9 20 20 8 15 8 20 -3 20 -8 0 -17 -3 -20 -7z"/>
<path d="M6560 4310 c0 -5 5 -10 10 -10 6 0 10 5 10 10 0 6 -4 10 -10 10 -5 0 -10 -4 -10 -10z"/>
<path d="M5437 4285 c-7 -16 8 -29 23 -20 10 6 2 35 -10 35 -4 0 -10 -7 -13 -15z"/>
<path d="M3068 4263 c-16 -4 -34 -33 -20 -33 12 0 48 28 42 32 -3 3 -12 3 -22 1z"/>
<path d="M3081 4199 c-35 -38 -61 -72 -58 -76 9 -9 131 108 135 130 6 29 -10 18 -77 -54z"/>
<path d="M2660 4215 c-24 -24 -41 -48 -37 -52 8 -7 97 75 97 89 0 17 -18 6 -60 -37z"/>
<path d="M4381 4216 c-24 -24 -42 -49 -39 -56 4 -12 98 77 98 93 0 16 -18 5 -59 -37z"/>
<path d="M4540 4250 c0 -5 5 -10 10 -10 6 0 10 5 10 10 0 6 -4 10 -10 10 -5 0 -10 -4 -10 -10z"/>
<path d="M6280 4250 c0 -5 5 -10 10 -10 6 0 10 5 10 10 0 6 -4 10 -10 10 -5 0 -10 -4 -10 -10z"/>
<path d="M2910 4225 c-16 -19 -5 -34 12 -17 7 7 20 12 30 12 10 0 18 5 18 10 0 16 -46 12 -60 -5z"/>
<path d="M6600 4230 c0 -5 5 -10 10 -10 6 0 10 5 10 10 0 6 -4 10 -10 10 -5 0 -10 -4 -10 -10z"/>
<path d="M2832 4189 c-7 -12 -11 -23 -8 -27 9 -8 46 29 40 39 -8 14 -18 10 -32 -12z"/>
<path d="M6340 4170 c0 -5 5 -10 10 -10 6 0 10 5 10 10 0 6 -4 10 -10 10 -5 0 -10 -4 -10 -10z"/>
<path d="M2680 4115 c-24 -24 -41 -48 -37 -51 7 -7 104 74 106 89 3 20 -29 2 -69 -38z"/>
<path d="M4200 4150 c0 -5 5 -10 10 -10 6 0 10 5 10 10 0 6 -4 10 -10 10 -5 0 -10 -4 -10 -10z"/>
<path d="M4480 4150 c0 -5 5 -10 10 -10 6 0 10 5 10 10 0 6 -4 10 -10 10 -5 0 -10 -4 -10 -10z"/>
<path d="M6640 4140 c0 -11 5 -20 10 -20 6 0 10 9 10 20 0 11 -4 20 -10 20 -5 0 -10 -9 -10 -20z"/>
<path d="M2572 4128 c-15 -15 -15 -43 -1 -70 8 -14 8 -23 0 -31 -20 -20 -12 -31 9 -12 22 20 26 55 8 73 -9 9 -9 15 0 24 14 14 16 28 4 28 -4 0 -13 -5 -20 -12z"/>
<path d="M3910 4105 c-7 -9 -10 -18 -7 -21 7 -8 47 14 47 26 0 15 -26 12 -40 -5z"/>
<path d="M4460 4105 c0 -8 5 -15 10 -15 6 0 10 7 10 15 0 8 -4 15 -10 15 -5 0 -10 -7 -10 -15z"/>
<path d="M2950 4065 c-18 -19 -30 -38 -27 -42 8 -7 77 55 77 69 0 16 -17 7 -50 -27z"/>
<path d="M6380 4090 c0 -5 5 -10 10 -10 6 0 10 5 10 10 0 6 -4 10 -10 10 -5 0 -10 -4 -10 -10z"/>
<path d="M3820 4055 c-13 -14 -21 -28 -17 -31 6 -7 67 36 67 48 0 16 -27 7 -50 -17z"/>
<path d="M4420 4010 c0 -5 5 -10 10 -10 6 0 10 5 10 10 0 6 -4 10 -10 10 -5 0 -10 -4 -10 -10z"/>
<path d="M6400 4010 c0 -5 5 -10 10 -10 6 0 10 5 10 10 0 6 -4 10 -10 10 -5 0 -10 -4 -10 -10z"/>
<path d="M4400 3970 c0 -5 5 -10 10 -10 6 0 10 5 10 10 0 6 -4 10 -10 10 -5 0 -10 -4 -10 -10z"/>
<path d="M5580 3950 c0 -5 5 -10 10 -10 6 0 10 5 10 10 0 6 -4 10 -10 10 -5 0 -10 -4 -10 -10z"/>
<path d="M6420 3940 c0 -11 5 -20 10 -20 6 0 10 9 10 20 0 11 -4 20 -10 20 -5 0 -10 -9 -10 -20z"/>
<path d="M3647 3933 c-14 -13 -6 -33 13 -33 13 0 20 7 20 20 0 19 -20 27 -33 13z"/>
<path d="M5620 3910 c0 -5 5 -10 10 -10 6 0 10 5 10 10 0 6 -4 10 -10 10 -5 0 -10 -4 -10 -10z"/>
<path d="M2920 3887 c0 -21 25 -38 44 -31 21 8 20 20 -1 28 -10 3 -24 9 -30 12 -7 3 -13 -1 -13 -9z"/>
<path d="M3720 3892 c0 -14 69 -76 77 -69 3 4 -9 23 -27 42 -33 34 -50 43 -50 27z"/>
<path d="M3600 3870 c0 -5 5 -10 10 -10 6 0 10 5 10 10 0 6 -4 10 -10 10 -5 0 -10 -4 -10 -10z"/>
<path d="M2980 3790 c0 -5 5 -10 10 -10 6 0 10 5 10 10 0 6 -4 10 -10 10 -5 0 -10 -4 -10 -10z"/>
<path d="M5720 3791 c0 -13 29 -35 37 -28 7 8 -15 37 -28 37 -5 0 -9 -4 -9 -9z"/>
<path d="M6340 3790 c0 -5 5 -10 10 -10 6 0 10 5 10 10 0 6 -4 10 -10 10 -5 0 -10 -4 -10 -10z"/>
<path d="M3020 3750 c0 -5 5 -10 10 -10 6 0 10 5 10 10 0 6 -4 10 -10 10 -5 0 -10 -4 -10 -10z"/>
<path d="M6280 3750 c0 -5 5 -10 10 -10 6 0 10 5 10 10 0 6 -4 10 -10 10 -5 0 -10 -4 -10 -10z"/>
<path d="M6640 3750 c0 -5 5 -10 10 -10 6 0 10 5 10 10 0 6 -4 10 -10 10 -5 0 -10 -4 -10 -10z"/>
<path d="M3595 3730 c3 -5 10 -10 16 -10 5 0 9 5 9 10 0 6 -7 10 -16 10 -8 0 -12 -4 -9 -10z"/>
<path d="M3060 3710 c0 -5 5 -10 10 -10 6 0 10 5 10 10 0 6 -4 10 -10 10 -5 0 -10 -4 -10 -10z"/>
<path d="M5840 3710 c0 -5 5 -10 10 -10 6 0 10 5 10 10 0 6 -4 10 -10 10 -5 0 -10 -4 -10 -10z"/>
<path d="M3100 3673 c0 -5 11 -21 24 -38 19 -23 27 -27 37 -18 9 9 5 17 -17 37 -30 26 -44 32 -44 19z"/>
<path d="M3635 3660 c-9 -14 107 -115 119 -103 3 4 19 -6 35 -21 19 -18 31 -24 36 -17 8 14 -25 42 -80 70 -23 11 -51 34 -63 51 -23 31 -37 37 -47 20z"/>
<path d="M2272 3588 c-14 -14 -16 -48 -3 -48 5 0 11 8 15 18 3 9 9 23 12 30 7 15 -8 16 -24 0z"/>
<path d="M3155 3580 c-8 -13 4 -32 16 -25 12 8 12 35 0 35 -6 0 -13 -4 -16 -10z"/>
<path d="M2320 3556 c0 -9 7 -16 16 -16 9 0 14 5 12 12 -6 18 -28 21 -28 4z"/>
<path d="M5590 3560 c-13 -9 -13 -11 0 -20 18 -11 39 5 24 20 -6 6 -15 6 -24 0z"/>
<path d="M2384 3548 c3 -7 9 -21 12 -30 4 -10 10 -18 15 -18 13 0 11 34 -3 48 -16 16 -31 15 -24 0z"/>
<path d="M2177 3534 c-8 -8 1 -24 14 -24 5 0 9 7 9 15 0 15 -12 20 -23 9z"/>
<path d="M2460 3511 c0 -13 29 -35 37 -28 7 8 -15 37 -28 37 -5 0 -9 -4 -9 -9z"/>
<path d="M3900 3512 c0 -4 9 -13 21 -20 19 -12 19 -11 9 8 -10 19 -30 28 -30 12z"/>
<path d="M2100 3490 c0 -5 5 -10 10 -10 6 0 10 5 10 10 0 6 -4 10 -10 10 -5 0 -10 -4 -10 -10z"/>
<path d="M3170 3490 c0 -5 7 -10 15 -10 8 0 15 5 15 10 0 6 -7 10 -15 10 -8 0 -15 -4 -15 -10z"/>
<path d="M2540 3471 c0 -13 29 -35 37 -28 7 8 -15 37 -28 37 -5 0 -9 -4 -9 -9z"/>
<path d="M5800 3470 c0 -5 5 -10 10 -10 6 0 10 5 10 10 0 6 -4 10 -10 10 -5 0 -10 -4 -10 -10z"/>
<path d="M2120 3435 c-25 -27 -20 -47 8 -27 36 26 62 32 82 20 10 -7 22 -9 26 -5 13 13 -10 26 -52 32 -34 4 -44 1 -64 -20z"/>
<path d="M3080 3435 c-13 -14 -20 -28 -17 -32 8 -7 57 35 57 49 0 15 -16 8 -40 -17z"/>
<path d="M3900 3450 c0 -5 5 -10 10 -10 6 0 10 5 10 10 0 6 -4 10 -10 10 -5 0 -10 -4 -10 -10z"/>
<path d="M2620 3431 c0 -13 29 -35 37 -28 7 8 -15 37 -28 37 -5 0 -9 -4 -9 -9z"/>
<path d="M3820 3415 c-13 -14 -20 -28 -17 -32 8 -7 57 35 57 49 0 15 -16 8 -40 -17z"/>
<path d="M6000 3430 c0 -5 5 -10 10 -10 6 0 10 5 10 10 0 6 -4 10 -10 10 -5 0 -10 -4 -10 -10z"/>
<path d="M2040 3410 c0 -5 5 -10 10 -10 6 0 10 5 10 10 0 6 -4 10 -10 10 -5 0 -10 -4 -10 -10z"/>
<path d="M2260 3392 c0 -14 49 -56 57 -49 3 4 -4 18 -17 32 -24 25 -40 32 -40 17z"/>
<path d="M2990 3385 c-7 -9 -10 -18 -7 -22 8 -7 37 15 37 28 0 14 -16 11 -30 -6z"/>
<path d="M2760 3370 c0 -5 5 -10 10 -10 6 0 10 5 10 10 0 6 -4 10 -10 10 -5 0 -10 -4 -10 -10z"/>
<path d="M3760 3350 c0 -5 5 -10 10 -10 6 0 10 5 10 10 0 6 -4 10 -10 10 -5 0 -10 -4 -10 -10z"/>
<path d="M2320 3306 c0 -7 7 -19 15 -26 13 -11 6 -22 -51 -82 -60 -64 -79 -105 -46 -102 6 1 23 2 37 3 29 1 34 21 6 21 -36 0 -31 16 20 66 63 61 76 90 53 115 -20 22 -34 24 -34 5z"/>
<path d="M3750 3222 c0 -9 25 -33 48 -47 10 -5 9 1 -2 24 -15 28 -46 43 -46 23z"/>
<path d="M5950 3190 c-143 -11 -240 -31 -250 -50 -21 -40 48 -202 106 -246 17 -13 51 -27 75 -30 42 -6 47 -3 101 43 100 86 136 113 165 125 16 6 87 12 170 12 79 1 143 2 143 4 0 1 -31 35 -69 75 l-70 72 -143 1 c-79 1 -181 -2 -228 -6z"/>
<path d="M2402 3154 c-23 -16 -31 -47 -9 -38 14 5 41 44 35 50 -2 2 -14 -3 -26 -12z"/>
<path d="M2460 3153 c0 -5 11 -16 25 -26 27 -19 45 -6 25 18 -13 15 -50 21 -50 8z"/>
<path d="M3039 3073 c-45 -43 -91 -98 -104 -123 -13 -25 -37 -58 -55 -75 l-32 -30 -19 24 c-15 18 -23 21 -31 13 -17 -17 17 -51 48 -48 32 4 69 38 112 106 51 80 152 181 177 178 25 -4 27 25 2 30 -11 2 -46 -24 -98 -75z"/>
<path d="M2620 3113 c0 -4 7 -17 15 -27 17 -23 34 -13 19 11 -12 19 -34 29 -34 16z"/>
<path d="M3220 3112 c0 -14 109 -116 117 -109 4 4 -18 32 -47 62 -52 52 -70 65 -70 47z"/>
<path d="M4172 3100 c7 -11 16 -20 20 -20 15 0 8 15 -12 28 -19 12 -20 11 -8 -8z"/>
<path d="M5600 3110 c0 -5 5 -10 10 -10 6 0 10 5 10 10 0 6 -4 10 -10 10 -5 0 -10 -4 -10 -10z"/>
<path d="M3487 3093 c-14 -13 -6 -33 13 -33 13 0 20 7 20 20 0 19 -20 27 -33 13z"/>
<path d="M2680 3076 c0 -12 31 -59 67 -101 32 -37 45 -47 54 -38 8 8 1 21 -30 48 -23 21 -49 51 -58 66 -15 25 -33 38 -33 25z"/>
<path d="M4390 3072 c0 -10 41 -35 47 -28 9 8 -17 36 -33 36 -8 0 -14 -3 -14 -8z"/>
<path d="M3560 3052 c0 -14 69 -76 77 -69 3 4 -9 23 -27 42 -33 34 -50 43 -50 27z"/>
<path d="M4200 3050 c0 -5 5 -10 10 -10 6 0 10 5 10 10 0 6 -4 10 -10 10 -5 0 -10 -4 -10 -10z"/>
<path d="M3420 3030 c0 -5 9 -10 20 -10 11 0 20 5 20 10 0 6 -9 10 -20 10 -11 0 -20 -4 -20 -10z"/>
<path d="M3360 3009 c0 -6 14 -25 32 -42 38 -38 50 -22 17 23 -22 30 -49 40 -49 19z"/>
<path d="M5660 2950 c0 -5 5 -10 10 -10 6 0 10 5 10 10 0 6 -4 10 -10 10 -5 0 -10 -4 -10 -10z"/>
<path d="M5732 2848 c6 -18 28 -21 28 -4 0 9 -7 16 -16 16 -9 0 -14 -5 -12 -12z"/>
<path d="M4460 2810 c0 -5 5 -10 10 -10 6 0 10 5 10 10 0 6 -4 10 -10 10 -5 0 -10 -4 -10 -10z"/>
<path d="M5810 2810 c0 -5 8 -10 18 -10 10 0 23 -5 30 -12 6 -6 15 -9 19 -5 9 9 -27 36 -49 37 -10 0 -18 -4 -18 -10z"/>
<path d="M4660 2790 c0 -5 5 -10 10 -10 6 0 10 5 10 10 0 6 -4 10 -10 10 -5 0 -10 -4 -10 -10z"/>
<path d="M4980 2730 c0 -5 5 -10 10 -10 6 0 10 5 10 10 0 6 -4 10 -10 10 -5 0 -10 -4 -10 -10z"/>
<path d="M4500 2710 c0 -5 5 -10 10 -10 6 0 10 5 10 10 0 6 -4 10 -10 10 -5 0 -10 -4 -10 -10z"/>
<path d="M4612 2708 c-18 -18 -15 -28 8 -28 13 0 20 7 20 20 0 23 -10 26 -28 8z"/>
<path d="M6000 2710 c0 -5 5 -10 10 -10 6 0 10 5 10 10 0 6 -4 10 -10 10 -5 0 -10 -4 -10 -10z"/>
<path d="M4560 2610 c0 -5 5 -10 10 -10 6 0 10 5 10 10 0 6 -4 10 -10 10 -5 0 -10 -4 -10 -10z"/>
<path d="M4640 2610 c0 -5 5 -10 10 -10 6 0 10 5 10 10 0 6 -4 10 -10 10 -5 0 -10 -4 -10 -10z"/>
<path d="M4600 2570 c0 -5 5 -10 10 -10 6 0 10 5 10 10 0 6 -4 10 -10 10 -5 0 -10 -4 -10 -10z"/>
<path d="M6100 2450 c0 -5 5 -10 10 -10 6 0 10 5 10 10 0 6 -4 10 -10 10 -5 0 -10 -4 -10 -10z"/>
<path d="M6160 2410 c0 -5 5 -10 10 -10 6 0 10 5 10 10 0 6 -4 10 -10 10 -5 0 -10 -4 -10 -10z"/>
<path d="M6086 2344 c-4 -9 -4 -19 -1 -22 6 -6 35 18 35 29 0 16 -28 10 -34 -7z"/>
<path d="M5380 2290 c0 -16 5 -30 10 -30 6 0 10 14 10 30 0 17 -4 30 -10 30 -5 0 -10 -13 -10 -30z"/>
<path d="M6040 2310 c0 -5 5 -10 10 -10 6 0 10 5 10 10 0 6 -4 10 -10 10 -5 0 -10 -4 -10 -10z"/>
<path d="M6160 2250 c0 -5 5 -10 10 -10 6 0 10 5 10 10 0 6 -4 10 -10 10 -5 0 -10 -4 -10 -10z"/>
<path d="M5640 2210 c0 -5 5 -10 10 -10 6 0 10 5 10 10 0 6 -4 10 -10 10 -5 0 -10 -4 -10 -10z"/>
<path d="M6540 2190 c0 -5 5 -10 10 -10 6 0 10 5 10 10 0 6 -4 10 -10 10 -5 0 -10 -4 -10 -10z"/>
<path d="M6500 2150 c0 -5 5 -10 10 -10 6 0 10 5 10 10 0 6 -4 10 -10 10 -5 0 -10 -4 -10 -10z"/>
<path d="M4560 2130 c0 -5 5 -10 10 -10 6 0 10 5 10 10 0 6 -4 10 -10 10 -5 0 -10 -4 -10 -10z"/>
<path d="M5080 2130 c0 -5 5 -10 10 -10 6 0 10 5 10 10 0 6 -4 10 -10 10 -5 0 -10 -4 -10 -10z"/>
<path d="M4520 2110 c0 -5 5 -10 10 -10 6 0 10 5 10 10 0 6 -4 10 -10 10 -5 0 -10 -4 -10 -10z"/>
<path d="M6100 2110 c0 -5 14 -10 30 -10 17 0 30 5 30 10 0 6 -13 10 -30 10 -16 0 -30 -4 -30 -10z"/>
<path d="M6200 2110 c0 -5 14 -10 30 -10 17 0 30 5 30 10 0 6 -13 10 -30 10 -16 0 -30 -4 -30 -10z"/>
<path d="M6280 2110 c0 -5 5 -10 10 -10 6 0 10 5 10 10 0 6 -4 10 -10 10 -5 0 -10 -4 -10 -10z"/>
<path d="M4545 2080 c-15 -24 17 -38 45 -20 13 9 13 11 0 20 -19 13 -37 13 -45 0z"/>
<path d="M4490 2065 c-7 -9 -10 -18 -7 -22 8 -7 37 15 37 28 0 14 -16 11 -30 -6z"/>
<path d="M4620 2070 c0 -5 5 -10 10 -10 6 0 10 5 10 10 0 6 -4 10 -10 10 -5 0 -10 -4 -10 -10z"/>
<path d="M4660 2035 c0 -14 5 -25 10 -25 6 0 10 11 10 25 0 14 -4 25 -10 25 -5 0 -10 -11 -10 -25z"/>
<path d="M6100 2050 c0 -5 5 -10 10 -10 6 0 10 5 10 10 0 6 -4 10 -10 10 -5 0 -10 -4 -10 -10z"/>
<path d="M6220 2016 c0 -11 9 -16 30 -16 17 0 30 5 30 10 0 6 -6 10 -14 10 -8 0 -21 3 -30 6 -11 4 -16 1 -16 -10z"/>
<path d="M4620 1996 c0 -9 5 -16 10 -16 6 0 10 4 10 9 0 6 -4 13 -10 16 -5 3 -10 -1 -10 -9z"/>
<path d="M6300 1990 c0 -5 5 -10 10 -10 6 0 10 5 10 10 0 6 -4 10 -10 10 -5 0 -10 -4 -10 -10z"/>
<path d="M4540 1930 c0 -5 5 -10 10 -10 6 0 10 5 10 10 0 6 -4 10 -10 10 -5 0 -10 -4 -10 -10z"/>
<path d="M4740 1891 c0 -11 26 -22 34 -14 3 3 3 10 0 14 -7 12 -34 11 -34 0z"/>
<path d="M4600 1850 c0 -5 5 -10 10 -10 6 0 10 5 10 10 0 6 -4 10 -10 10 -5 0 -10 -4 -10 -10z"/>
<path d="M4810 1845 c-7 -9 -10 -18 -7 -22 8 -7 37 15 37 28 0 14 -16 11 -30 -6z"/>
<path d="M5980 1830 c0 -5 5 -10 10 -10 6 0 10 5 10 10 0 6 -4 10 -10 10 -5 0 -10 -4 -10 -10z"/>
<path d="M4540 1810 c0 -5 7 -10 15 -10 8 0 15 5 15 10 0 6 -7 10 -15 10 -8 0 -15 -4 -15 -10z"/>
<path d="M4780 1786 c0 -8 4 -17 9 -20 10 -7 23 19 14 28 -11 11 -23 6 -23 -8z"/>
<path d="M4960 1750 c0 -5 5 -10 10 -10 6 0 10 5 10 10 0 6 -4 10 -10 10 -5 0 -10 -4 -10 -10z"/>
<path d="M5760 1710 c0 -5 5 -10 10 -10 6 0 10 5 10 10 0 6 -4 10 -10 10 -5 0 -10 -4 -10 -10z"/>
<path d="M6163 1706 c-28 -13 -30 -26 -5 -26 19 0 42 18 42 32 0 10 -9 9 -37 -6z"/>
<path d="M5454 1669 c-9 -10 -15 -22 -12 -24 7 -7 58 16 58 26 0 17 -30 16 -46 -2z"/>
</g>
</g>
  <g id="id2:id2" transform="matrix(1.25,0,0,1.25,0.0,0.0)"><g transform="translate(0.000000,409.600000) scale(0.040000,-0.040000)" fill="#1a151a" stroke="none">
<path d="M4797 9593 c-4 -3 -29 -5 -55 -4 -83 2 -470 -21 -812 -50 -63 -5 -147 -12 -186 -14 -39 -3 -127 -12 -195 -21 -68 -8 -173 -19 -234 -24 -60 -5 -141 -14 -180 -20 -38 -6 -104 -15 -145 -20 -41 -4 -109 -13 -150 -19 -41 -7 -106 -16 -145 -21 -220 -30 -228 -33 -224 -89 5 -60 -23 -263 -53 -396 -39 -174 -97 -318 -177 -442 -47 -73 -169 -204 -228 -244 -119 -82 -308 -155 -518 -200 -49 -10 -100 -21 -112 -24 l-23 -5 0 -158 c0 -193 16 -655 30 -897 5 -99 15 -263 20 -365 10 -180 14 -236 46 -595 8 -93 17 -201 19 -240 3 -38 10 -101 15 -140 5 -38 14 -113 20 -165 6 -52 18 -151 26 -220 9 -69 20 -159 24 -200 5 -41 14 -95 20 -120 7 -25 15 -67 20 -95 9 -61 46 -235 61 -290 5 -22 14 -58 19 -80 6 -22 14 -56 19 -75 31 -118 42 -158 50 -180 5 -14 19 -59 31 -100 51 -174 155 -472 195 -555 23 -49 46 -101 50 -115 4 -14 12 -31 17 -37 6 -7 23 -39 39 -70 16 -32 45 -85 64 -118 19 -33 44 -78 55 -100 30 -59 45 -83 63 -103 10 -10 17 -22 17 -26 0 -4 9 -20 20 -34 11 -15 48 -70 82 -122 34 -52 87 -127 118 -167 30 -40 70 -93 89 -118 19 -25 57 -72 85 -104 28 -32 80 -93 116 -137 175 -210 542 -554 795 -744 61 -45 121 -93 136 -106 14 -13 28 -24 32 -24 6 0 123 -78 232 -155 33 -24 76 -52 95 -62 19 -11 103 -60 185 -110 83 -49 186 -108 230 -130 44 -22 116 -60 160 -83 44 -23 130 -64 190 -91 61 -27 121 -56 135 -64 14 -7 48 -23 76 -33 l50 -20 60 27 c32 16 97 46 144 67 47 21 137 65 200 97 63 33 145 74 181 92 211 106 604 351 794 495 39 30 107 82 152 116 142 106 433 366 573 511 334 346 647 764 843 1123 92 170 237 466 237 486 0 3 9 24 19 47 63 138 211 570 211 615 0 7 8 41 19 75 16 55 36 142 62 277 20 103 64 392 78 510 50 423 93 894 111 1225 6 105 15 260 20 345 20 328 31 716 28 970 l-3 265 -110 28 c-60 16 -123 32 -140 37 -16 5 -46 13 -65 18 -64 18 -199 70 -277 108 -137 67 -217 128 -272 209 -26 37 -96 204 -120 285 -6 19 -19 62 -30 95 -17 52 -33 121 -71 315 -5 25 -12 81 -15 125 -10 136 -12 141 -53 153 -40 12 -125 29 -182 36 -19 2 -82 11 -140 19 -58 9 -132 18 -165 21 -33 3 -89 10 -125 16 -36 6 -108 15 -160 20 -52 5 -135 14 -185 19 -49 6 -142 15 -205 21 -63 5 -164 14 -225 20 -392 36 -881 60 -1216 60 -152 0 -279 -3 -282 -7z m1881 -543 c2 -14 13 -35 23 -49 10 -13 19 -32 19 -42 0 -10 36 -92 80 -181 71 -146 80 -169 80 -220 0 -49 3 -58 21 -63 13 -4 27 -1 38 9 10 9 24 16 33 16 8 0 23 9 33 20 10 11 22 20 27 20 18 0 77 52 84 73 4 12 17 35 30 50 45 54 84 170 84 249 0 50 3 60 25 74 25 16 51 11 39 -8 -4 -6 -11 -38 -15 -72 -5 -33 -13 -95 -18 -136 -6 -41 -13 -136 -17 -210 -4 -99 -10 -139 -21 -152 -16 -18 -10 -58 10 -58 7 0 25 7 41 15 15 8 42 15 58 15 17 0 45 8 62 19 18 10 60 21 98 24 37 4 87 15 110 26 43 20 66 19 50 -2 -5 -7 -12 -24 -16 -39 -7 -32 -161 -188 -185 -188 -9 0 -21 -4 -27 -10 -20 -20 -128 -70 -151 -70 -16 0 -27 -8 -33 -24 -5 -13 -17 -29 -27 -34 -10 -6 -15 -14 -11 -18 4 -4 15 3 25 14 20 23 113 44 135 31 7 -5 24 -9 36 -9 13 0 35 -9 49 -20 14 -11 40 -20 58 -20 18 0 44 -9 58 -20 14 -11 34 -20 45 -20 10 0 27 -9 37 -20 10 -11 29 -20 42 -20 13 0 26 -7 29 -15 8 -19 23 -19 43 -1 25 21 114 28 140 10 34 -24 27 -58 -19 -88 -22 -14 -43 -26 -46 -26 -4 0 -16 -7 -25 -16 -20 -18 -183 -48 -207 -39 -7 3 -23 -2 -35 -10 -12 -8 -36 -15 -54 -15 -18 0 -33 -5 -33 -11 0 -20 220 -229 241 -229 12 0 32 -9 46 -20 14 -11 38 -20 53 -20 15 0 47 -9 71 -19 32 -15 48 -17 62 -9 29 15 41 -5 17 -27 -32 -29 -244 -56 -284 -36 -12 5 -43 12 -71 15 -27 2 -70 9 -95 16 -25 6 -60 14 -78 17 -18 3 -35 9 -38 14 -8 14 -44 10 -44 -5 0 -7 -6 -19 -14 -25 -8 -7 -15 -42 -19 -87 -3 -42 -12 -86 -21 -99 -9 -13 -18 -42 -22 -65 -4 -22 -11 -43 -15 -46 -22 -13 -3 -45 70 -119 44 -43 78 -82 76 -85 -7 -12 -77 5 -130 32 -102 52 -114 60 -144 93 -41 47 -58 88 -70 171 -12 79 -39 145 -51 123 -4 -8 -11 -39 -15 -69 -4 -30 -15 -68 -25 -85 -14 -24 -18 -56 -19 -153 l-2 -124 54 -54 54 -54 131 0 c72 0 133 -4 136 -9 3 -4 -23 -33 -57 -63 l-62 -55 -89 -7 c-48 -3 -124 -3 -169 0 -72 6 -84 10 -117 40 -44 40 -120 186 -120 230 0 17 -8 42 -19 55 -10 13 -21 42 -25 64 -12 68 -54 111 -69 71 -12 -30 2 -189 18 -206 8 -9 15 -34 15 -54 0 -23 8 -48 20 -63 11 -14 20 -34 20 -44 0 -10 4 -20 9 -23 5 -3 19 -27 31 -53 28 -61 150 -181 191 -190 30 -6 45 -18 32 -26 -5 -3 -53 -1 -108 5 -70 7 -107 15 -126 29 -15 10 -32 19 -38 19 -28 0 -111 54 -161 105 -78 79 -109 73 -110 -21 0 -18 -8 -38 -20 -49 -16 -14 -20 -31 -20 -80 0 -33 -5 -66 -12 -73 -9 -9 -9 -18 0 -37 7 -14 12 -43 12 -63 0 -21 9 -48 20 -62 22 -28 26 -65 9 -76 -6 -3 -40 22 -76 57 -85 83 -110 138 -119 261 -4 51 -13 102 -20 113 -8 11 -14 32 -14 47 0 35 -20 78 -35 78 -35 0 -40 -31 -42 -238 -2 -190 -1 -207 17 -233 11 -15 20 -34 20 -43 0 -9 11 -34 25 -56 14 -22 20 -42 15 -45 -5 -3 -42 -3 -82 0 -86 7 -146 41 -159 89 -5 16 -21 43 -37 60 -17 17 -39 50 -51 72 -22 45 -47 74 -62 74 -5 0 -9 -47 -9 -106 0 -91 3 -109 20 -131 11 -14 20 -37 20 -50 0 -32 15 -58 61 -112 21 -24 36 -47 33 -52 -2 -5 -28 -6 -57 -2 -29 3 -96 8 -149 10 l-97 4 -35 -28 c-19 -15 -43 -41 -52 -58 -15 -28 -15 -33 2 -73 10 -23 23 -42 28 -42 6 0 19 -11 31 -26 27 -34 82 -48 192 -49 54 0 93 -4 94 -10 1 -5 -25 -24 -57 -42 l-59 -31 -157 -1 c-140 -1 -161 1 -193 19 -20 11 -52 20 -72 20 l-36 0 8 -92 c4 -51 9 -112 10 -135 1 -23 6 -48 12 -55 8 -11 19 -193 27 -495 1 -24 7 -48 14 -55 8 -8 12 -44 12 -99 0 -48 4 -90 9 -93 4 -3 6 -16 4 -30 -3 -13 2 -39 11 -57 9 -20 16 -66 18 -109 1 -55 7 -80 19 -95 12 -13 20 -42 22 -83 3 -39 11 -69 21 -81 9 -9 16 -28 16 -40 0 -38 68 -163 115 -213 25 -26 45 -55 45 -65 0 -18 57 -83 73 -83 5 0 22 -10 37 -22 83 -66 122 -90 157 -95 21 -3 44 -10 51 -16 20 -16 95 -16 117 -1 11 8 35 14 54 14 53 0 111 21 141 52 16 15 37 28 47 28 18 1 83 77 83 97 0 6 7 16 16 24 10 8 14 22 10 39 -3 15 0 32 6 38 9 9 6 18 -10 35 -12 13 -22 36 -22 53 0 36 -63 162 -94 189 -13 11 -26 32 -30 47 -3 15 -22 43 -41 62 -19 20 -35 41 -35 48 0 7 -9 27 -19 44 -10 17 -22 46 -26 65 -4 19 -13 43 -19 54 -7 11 -18 42 -25 70 -7 27 -16 54 -21 60 -4 5 -11 37 -15 70 -3 33 -14 71 -22 84 -22 35 -23 479 -1 513 8 13 18 44 22 70 4 26 11 50 15 53 5 2 14 26 21 52 7 27 25 64 39 83 15 19 34 51 44 70 9 19 69 88 134 152 141 139 232 192 368 215 155 25 388 10 431 -29 11 -10 27 -18 36 -18 8 0 23 -9 32 -19 10 -11 41 -31 69 -45 29 -14 70 -44 92 -66 22 -23 58 -50 81 -60 22 -11 47 -26 54 -35 7 -8 22 -15 35 -15 12 0 30 -9 40 -20 16 -18 31 -20 141 -20 78 0 125 -4 130 -11 3 -6 -15 -32 -41 -59 -46 -47 -96 -67 -149 -62 -10 1 -30 -5 -43 -14 -20 -12 -31 -13 -51 -5 -15 6 -48 12 -75 14 -26 2 -50 7 -54 11 -3 3 -23 6 -44 6 -21 0 -53 9 -71 20 -18 11 -46 20 -63 20 -16 0 -39 7 -49 15 -11 8 -31 15 -45 15 -14 0 -39 7 -55 15 -15 8 -41 15 -57 15 -15 0 -31 5 -34 10 -3 6 -30 10 -60 10 -30 0 -57 5 -60 10 -6 10 -125 14 -125 5 0 -14 30 -62 50 -80 35 -32 67 -106 71 -164 5 -70 -14 -79 -40 -19 -21 51 -131 156 -171 164 -14 3 -42 10 -63 16 -28 9 -41 8 -49 0 -7 -7 -22 -12 -34 -12 -14 0 -48 -26 -93 -72 -65 -66 -71 -76 -71 -114 0 -27 -6 -47 -19 -58 -17 -16 -19 -36 -20 -276 -1 -142 2 -261 7 -264 5 -3 7 -18 4 -34 -2 -16 3 -43 12 -60 9 -17 16 -44 16 -60 0 -16 9 -41 20 -55 11 -14 20 -34 20 -45 0 -10 9 -27 20 -37 11 -10 20 -26 20 -35 0 -10 8 -28 18 -41 10 -13 24 -37 32 -54 8 -16 27 -46 42 -65 16 -19 28 -42 28 -52 0 -9 4 -20 10 -23 15 -9 90 -166 84 -176 -3 -5 1 -21 9 -36 27 -51 39 -128 28 -170 -6 -21 -11 -52 -11 -69 0 -18 -8 -38 -20 -49 -11 -10 -20 -27 -20 -38 0 -25 -167 -197 -191 -197 -10 0 -20 -4 -23 -8 -8 -14 -129 -70 -176 -82 -25 -7 -49 -15 -55 -20 -8 -6 -144 -20 -190 -20 -60 0 -148 15 -182 31 -24 10 -53 19 -65 19 -13 0 -34 9 -48 20 -14 11 -30 20 -37 20 -7 0 -29 9 -50 21 l-37 21 -13 -19 c-18 -24 -7 -295 13 -335 8 -15 14 -51 14 -81 0 -39 6 -61 20 -80 11 -14 20 -34 20 -45 0 -10 9 -27 20 -37 11 -10 20 -28 20 -40 0 -25 31 -55 81 -78 20 -9 42 -23 49 -32 7 -8 22 -15 35 -15 12 0 30 -8 39 -19 9 -10 29 -21 44 -24 15 -3 51 -28 80 -56 46 -43 52 -54 45 -73 -4 -13 -8 -49 -8 -81 l0 -59 50 -28 c81 -45 85 -74 16 -111 -38 -20 -71 -48 -71 -61 0 -4 13 -8 29 -8 15 0 39 -9 53 -20 23 -17 42 -19 234 -19 115 0 213 0 217 0 5 -1 -1 -14 -12 -30 -11 -15 -50 -42 -88 -60 l-67 -32 -183 0 c-166 0 -183 -2 -183 -17 0 -24 92 -63 185 -79 53 -9 92 -32 105 -62 21 -53 14 -55 -178 -47 -96 4 -188 10 -204 13 -18 3 -28 1 -28 -6 0 -18 44 -81 57 -81 7 0 17 -9 23 -20 6 -11 21 -20 34 -20 13 0 35 -9 49 -20 14 -11 34 -20 45 -20 10 0 27 -9 37 -20 l18 -20 -18 -20 c-14 -16 -31 -20 -80 -20 -34 0 -75 7 -91 14 -16 8 -69 18 -119 21 l-90 7 -49 -47 -49 -46 -71 6 c-39 4 -84 11 -99 17 -38 15 -124 -4 -199 -43 -31 -16 -64 -29 -73 -29 -27 0 -72 28 -136 85 -34 30 -67 55 -74 55 -7 0 -24 9 -38 20 -21 17 -40 20 -115 20 -50 0 -93 4 -96 9 -7 11 19 65 39 81 23 19 18 30 -15 30 -17 0 -39 6 -50 12 -16 10 -24 10 -40 0 -11 -6 -34 -12 -51 -12 -32 0 -82 -29 -110 -63 -11 -13 -23 -18 -34 -13 -14 5 -16 13 -10 43 10 57 31 89 69 107 46 22 98 74 94 95 -3 13 -16 16 -70 16 -38 0 -72 5 -79 12 -17 17 -3 43 22 43 13 0 31 8 41 17 19 17 67 27 190 39 91 9 241 -12 264 -37 10 -11 27 -19 39 -19 12 0 30 -9 40 -20 10 -11 26 -20 35 -20 10 0 29 -9 43 -21 31 -24 110 -22 150 4 14 9 59 19 103 23 44 3 89 13 101 20 12 8 36 14 53 14 110 0 83 88 -41 139 -42 16 -73 22 -118 20 -68 -3 -77 1 -63 28 32 59 46 104 46 148 1 47 -1 50 -30 60 -16 5 -42 18 -57 27 -14 10 -39 18 -55 18 -16 0 -41 9 -55 20 -14 11 -33 20 -44 20 -10 0 -29 9 -43 20 -14 11 -31 20 -38 20 -8 0 -26 8 -40 18 -15 9 -35 22 -46 27 -22 12 -66 88 -66 113 0 10 -15 32 -32 49 l-33 31 -64 -8 c-34 -5 -68 -13 -74 -19 -6 -6 -18 -11 -27 -11 -24 0 -90 -59 -90 -80 0 -11 -5 -31 -12 -45 -9 -19 -9 -28 0 -37 14 -14 16 -104 3 -113 -5 -3 -16 3 -23 13 -7 10 -21 21 -30 25 -10 3 -18 15 -18 26 0 11 -14 36 -30 54 -16 19 -30 41 -30 49 0 25 -47 109 -81 144 -18 19 -47 38 -64 44 -17 6 -58 38 -92 73 -65 66 -84 104 -48 99 11 -1 58 -5 105 -9 66 -4 90 -10 108 -26 l22 -21 35 34 c19 19 35 43 35 54 0 11 6 27 14 35 22 24 23 132 3 162 -10 13 -17 38 -17 55 0 17 -9 43 -20 57 -11 14 -20 33 -20 44 0 10 -9 36 -19 59 -10 23 -22 59 -26 82 -3 22 -13 48 -20 59 -20 26 -21 255 -1 286 8 12 17 38 21 57 4 19 16 47 26 62 11 14 19 34 19 43 0 10 16 35 35 56 19 22 35 46 35 54 0 9 10 29 21 44 12 16 19 33 15 39 -3 5 4 28 15 51 28 59 38 231 15 266 -9 13 -16 39 -16 57 0 18 -9 48 -20 66 -11 18 -20 41 -20 52 0 11 -8 24 -19 29 -10 6 -22 23 -26 38 -4 18 -101 123 -281 304 -151 151 -274 282 -274 290 0 8 -13 30 -29 50 -48 58 -87 141 -94 198 -4 29 -13 64 -22 77 -8 13 -15 30 -15 39 0 9 -44 62 -98 118 -54 56 -104 116 -111 133 -33 83 -170 169 -230 145 -49 -21 -122 -4 -206 47 -27 17 -31 25 -35 80 -4 50 -10 66 -34 91 -26 27 -36 31 -86 31 -47 0 -60 -4 -80 -25 l-24 -25 -27 32 c-16 18 -28 40 -29 49 0 20 -58 79 -77 79 -8 0 -26 -8 -40 -17 -39 -26 -173 -25 -201 0 -11 10 -39 20 -62 21 -39 3 -45 0 -104 -60 -35 -35 -66 -61 -70 -57 -14 15 -5 99 14 128 11 17 20 36 20 43 0 16 54 72 69 72 6 0 11 9 11 20 0 11 -5 20 -11 20 -7 0 -27 16 -45 36 -33 34 -40 57 -35 116 1 18 -4 30 -18 37 -25 14 -77 14 -102 1 -11 -6 -24 -8 -29 -5 -17 10 8 44 43 59 18 7 41 23 51 35 11 11 27 21 38 21 10 0 26 4 36 9 9 5 29 14 44 20 l28 11 0 80 c0 54 5 88 15 103 14 22 12 26 -30 72 -48 52 -47 74 1 54 69 -28 132 -62 174 -94 25 -18 50 -34 55 -35 6 0 31 -19 58 -43 41 -37 48 -48 54 -92 10 -77 75 -145 140 -145 19 0 46 -6 61 -14 15 -7 58 -16 96 -20 62 -6 74 -11 120 -50 28 -24 67 -52 86 -63 19 -10 53 -35 75 -56 22 -20 48 -37 58 -37 10 0 28 -7 40 -15 l23 -15 112 114 c74 75 128 121 160 136 26 12 59 31 74 41 14 11 34 19 45 19 10 0 33 9 51 20 18 11 48 20 68 20 19 0 56 8 82 19 26 10 76 24 112 31 36 6 69 16 75 21 5 5 27 9 48 9 24 0 49 8 64 20 14 11 40 20 57 20 36 1 66 20 66 43 0 15 -47 37 -78 37 -20 0 -141 82 -173 117 -28 31 -54 97 -44 113 9 15 72 12 98 -4 12 -8 49 -17 82 -21 34 -4 70 -15 84 -26 13 -10 37 -19 53 -19 16 0 46 -9 66 -19 88 -45 125 -61 143 -61 11 0 37 -9 57 -19 92 -49 140 -59 362 -80 47 -5 95 -11 106 -15 17 -6 29 0 53 26 33 35 39 62 19 74 -7 5 -91 9 -186 10 -152 2 -178 5 -217 23 -25 12 -55 21 -68 21 -13 0 -32 9 -42 20 -10 11 -28 20 -40 20 -12 0 -30 9 -40 20 -10 11 -26 20 -35 20 -24 0 -125 109 -144 155 -9 21 -17 70 -19 109 l-2 71 24 3 c28 4 101 -61 101 -91 0 -10 9 -30 20 -44 11 -14 20 -34 20 -45 0 -13 14 -25 44 -38 24 -10 47 -23 50 -29 4 -6 17 -11 28 -11 12 0 29 -7 39 -16 10 -9 43 -18 80 -21 34 -3 72 -11 83 -18 12 -7 47 -16 79 -20 32 -3 70 -13 85 -21 15 -8 43 -17 62 -20 44 -8 130 -88 130 -121 0 -12 5 -25 11 -28 6 -4 72 -6 147 -6 101 2 143 6 159 16 13 9 46 15 81 15 46 0 63 4 77 20 10 11 31 20 47 20 15 0 28 5 28 12 0 17 -51 68 -67 68 -8 0 -31 9 -53 20 -22 11 -50 20 -63 20 -13 0 -39 7 -57 17 -19 9 -56 18 -84 21 -28 3 -63 13 -78 23 -14 11 -38 19 -54 19 -25 0 -118 53 -141 82 -6 7 -13 36 -14 63 l-3 50 149 3 c92 1 154 7 162 14 10 8 17 8 25 0 7 -7 42 -12 80 -12 42 0 81 -6 98 -15 16 -8 67 -18 114 -21 93 -7 116 1 116 40 0 12 7 31 15 43 14 19 12 24 -35 67 -27 25 -55 46 -63 46 -8 0 -26 9 -40 20 -14 11 -31 20 -39 20 -8 0 -33 9 -56 20 -22 11 -61 20 -86 20 -25 0 -47 4 -50 9 -7 10 -58 19 -163 27 -53 5 -76 11 -89 25 -9 10 -27 19 -38 19 -12 1 -38 15 -58 33 l-37 32 13 63 c8 35 21 71 30 81 9 10 16 24 16 33 0 8 9 27 20 41 11 14 20 34 20 44 0 36 50 70 115 79 33 4 68 6 77 5 9 -1 27 5 40 13 15 10 56 15 123 17 78 2 105 7 124 21 13 10 41 18 61 18 21 0 43 7 50 15 6 8 22 17 33 21 12 4 34 15 49 25 31 22 146 27 166 7 9 -9 68 -12 214 -11 120 1 209 -2 220 -8 14 -7 24 -7 35 2 12 11 14 25 8 73 -3 33 -13 69 -21 80 -8 11 -14 36 -14 54 0 19 -9 45 -19 58 -16 20 -34 104 -36 168 0 9 64 35 80 31 6 -1 12 -12 13 -25z m-1533 -600 c3 -5 8 -31 12 -57 l5 -48 -121 -114 c-67 -62 -121 -118 -121 -125 0 -39 134 -132 225 -156 61 -16 72 -25 56 -44 -7 -8 -10 -19 -7 -24 3 -5 -1 -24 -10 -41 l-16 -32 -86 7 c-48 4 -95 11 -104 15 -9 5 -24 9 -33 9 -33 0 -151 66 -197 110 -43 41 -48 51 -48 89 0 67 28 146 70 199 43 55 113 105 245 174 91 48 119 56 130 38z m-1837 -27 c11 -10 70 -67 132 -128 l113 -110 3 -69 c3 -61 1 -69 -16 -73 -21 -6 -23 -14 -20 -76 1 -31 -2 -39 -19 -44 -36 -9 -22 -36 59 -108 59 -52 78 -75 75 -90 -5 -24 4 -39 28 -48 11 -4 17 -17 17 -38 0 -18 7 -37 15 -43 9 -6 18 -22 20 -36 5 -25 245 -280 264 -280 5 0 13 -5 16 -10 9 -14 -49 -70 -73 -70 -10 0 -27 -9 -37 -20 -10 -11 -28 -20 -40 -20 -12 0 -30 -9 -40 -20 -11 -13 -25 -18 -37 -15 -11 4 -26 -3 -42 -19 -13 -14 -32 -26 -43 -26 -10 0 -38 -18 -61 -40 -22 -22 -45 -40 -50 -40 -6 0 -12 -9 -15 -21 -4 -16 -11 -19 -27 -14 -16 5 -31 -4 -67 -40 -35 -34 -54 -45 -73 -43 l-25 3 0 108 c0 101 -1 109 -23 126 -21 15 -23 24 -21 82 2 79 -3 90 -39 83 -24 -5 -32 0 -55 34 -23 33 -27 47 -23 88 l5 49 -40 37 c-33 31 -45 36 -69 31 -22 -4 -37 1 -60 21 -18 14 -38 26 -46 26 -19 0 -142 107 -149 131 -3 9 -15 19 -27 22 -18 5 -19 9 -9 21 7 8 19 12 26 9 8 -2 25 7 38 21 15 16 35 26 53 26 18 0 34 7 42 20 8 13 23 20 42 20 26 0 30 4 30 28 0 15 3 37 6 48 4 16 -5 32 -42 65 -27 24 -60 56 -75 72 -32 32 -40 33 -57 6 -10 -16 -21 -20 -59 -17 -48 3 -69 23 -36 35 10 4 24 15 32 26 7 11 20 16 29 12 8 -3 32 5 52 19 31 21 47 24 104 21 61 -3 68 -1 83 21 19 29 33 31 40 4 4 -15 14 -20 40 -20 26 0 36 -5 40 -20 6 -22 43 -28 43 -6 0 7 9 20 20 27 11 8 22 25 25 38 2 13 11 31 20 41 22 24 19 73 -6 88 -16 10 -19 19 -14 43 6 25 4 29 -14 29 -22 0 -35 15 -26 30 10 16 43 12 63 -7z m2395 -588 c-3 -10 -87 -18 -111 -10 -7 3 -11 9 -7 15 8 12 121 8 118 -5z m-2907 -126 c10 -17 -13 -36 -27 -22 -12 12 -4 33 11 33 5 0 12 -5 16 -11z m4834 -354 c14 -4 34 -13 45 -19 45 -28 116 -39 215 -34 l99 5 43 -44 43 -44 -25 -19 c-72 -56 -257 -78 -362 -43 -64 21 -138 70 -157 105 -15 25 -14 29 8 52 20 21 22 28 11 41 -7 8 -10 22 -6 31 5 14 9 13 33 -4 16 -11 39 -23 53 -27z m307 -472 c-3 -26 -10 -73 -16 -103 -31 -155 -27 -209 24 -330 70 -166 72 -225 11 -340 -51 -95 -151 -177 -269 -220 -52 -18 -155 -31 -179 -21 -13 5 -35 12 -50 15 -36 8 -124 85 -120 106 1 9 -6 25 -17 34 -11 10 -18 23 -15 27 3 5 40 9 82 9 121 0 222 39 300 114 24 22 49 55 56 71 38 85 40 99 41 319 2 230 9 290 42 335 21 27 92 54 107 41 4 -5 6 -30 3 -57z m-4580 -759 c3 -8 -5 -26 -17 -39 -19 -20 -21 -27 -10 -40 20 -24 6 -40 -77 -85 -43 -24 -103 -59 -133 -80 -111 -73 -232 -122 -260 -105 -5 3 13 34 40 68 74 91 170 205 213 253 l38 42 100 0 c79 0 101 -3 106 -14z m3896 -569 c-4 -11 3 -15 25 -15 19 0 35 -7 41 -17 5 -10 12 -15 16 -11 4 3 30 -7 58 -24 109 -65 134 -78 182 -102 81 -39 132 -55 190 -62 30 -4 63 -13 72 -20 17 -12 15 -16 -26 -57 -58 -60 -125 -82 -251 -82 -77 0 -102 4 -125 19 -46 30 -255 227 -255 241 0 6 9 20 20 30 14 13 20 31 20 60 0 40 15 69 31 59 5 -2 6 -11 2 -19z m-4024 -581 c-6 -7 -15 -11 -21 -8 -5 3 -4 12 3 20 6 7 15 11 21 8 5 -3 4 -12 -3 -20z m848 -32 c10 -27 25 -33 65 -26 33 5 41 2 80 -35 23 -23 48 -41 54 -41 7 0 28 -14 46 -31 18 -17 43 -38 56 -46 16 -11 22 -23 18 -37 -6 -25 2 -40 26 -49 10 -3 17 -14 16 -24 -3 -37 3 -51 23 -56 18 -5 20 -11 15 -33 -5 -20 -2 -32 15 -50 30 -32 37 -101 12 -111 -25 -9 -33 -24 -27 -48 3 -13 -2 -28 -15 -39 -12 -11 -21 -29 -21 -41 0 -12 -19 -39 -46 -65 l-45 -43 -70 -2 c-60 -2 -72 -5 -86 -24 l-15 -23 -120 4 -119 3 -17 -23 c-12 -15 -24 -21 -35 -17 -10 5 -25 -2 -40 -19 -13 -14 -29 -26 -36 -26 -14 0 -14 -5 -11 -106 2 -89 -11 -116 -38 -76 -9 14 -25 22 -44 22 -21 0 -31 6 -35 20 -8 29 -28 25 -63 -11 -28 -30 -29 -35 -25 -96 2 -44 9 -69 20 -76 8 -7 17 -23 20 -36 5 -29 75 -95 118 -112 18 -7 43 -23 57 -36 20 -17 36 -22 65 -20 l40 2 0 -35 c0 -30 -3 -35 -25 -36 -45 -2 -50 -4 -50 -18 0 -8 -17 -28 -37 -43 -51 -37 -51 -38 -49 -99 1 -41 7 -59 26 -79 32 -35 19 -43 -70 -47 l-75 -3 3 -72 c3 -78 -11 -103 -36 -65 -9 14 -25 22 -44 22 -21 0 -31 6 -35 20 -7 28 -23 25 -61 -11 -24 -23 -31 -36 -26 -53 8 -35 -14 -41 -41 -12 -14 15 -30 23 -39 20 -10 -4 -35 16 -73 56 -47 50 -65 62 -93 64 -19 2 -42 6 -51 10 -11 5 -39 -17 -98 -75 -45 -45 -87 -92 -92 -103 -27 -58 -78 -116 -101 -116 -20 0 -51 47 -44 66 7 18 -110 163 -141 175 -13 5 -23 15 -23 24 0 17 -6 18 -76 15 -37 -1 -54 3 -64 15 -31 38 -94 40 -103 4 -4 -16 -15 -19 -75 -19 -39 0 -73 4 -76 8 -2 4 22 36 55 69 32 34 59 65 59 69 0 4 -8 16 -17 27 -10 10 -18 25 -18 32 0 8 -22 37 -48 64 -46 48 -52 51 -98 51 -36 0 -54 -5 -70 -21 -20 -20 -40 -22 -46 -3 -4 13 86 106 97 99 4 -3 22 6 39 21 17 14 35 23 40 20 15 -10 39 4 44 25 7 27 26 24 37 -7 9 -22 14 -25 40 -19 24 5 31 3 37 -12 9 -25 24 -33 50 -27 18 5 25 0 33 -21 9 -23 14 -26 40 -20 26 6 31 3 40 -20 9 -23 14 -26 40 -20 24 5 31 3 37 -12 10 -27 25 -34 63 -28 29 5 40 1 58 -18 21 -23 28 -24 125 -21 56 2 105 3 108 3 4 1 9 11 12 22 4 16 11 20 28 16 16 -4 33 5 69 39 30 28 56 44 72 44 14 0 28 6 31 13 10 25 -5 65 -25 71 -16 4 -19 10 -15 28 5 16 -1 30 -21 49 -114 113 -173 180 -177 200 -3 13 -13 31 -24 39 -16 12 -19 26 -16 81 l2 67 44 38 c24 22 53 50 63 64 11 14 46 51 77 83 37 37 56 63 52 73 -3 8 5 24 20 38 22 20 25 32 25 80 -1 50 -4 59 -25 74 -22 14 -25 21 -19 59 5 38 3 45 -19 59 -24 15 -25 22 -25 105 0 76 3 91 18 96 26 10 32 25 26 59 -5 25 0 37 23 63 32 34 43 32 43 -8 0 -44 11 -69 31 -74 14 -4 19 -14 19 -36 0 -18 9 -40 20 -51 11 -11 20 -31 20 -44 0 -18 7 -26 28 -31 24 -6 34 1 90 60 42 44 68 65 79 61 8 -4 28 5 44 19 16 13 36 22 44 19 8 -3 21 6 31 21 10 16 23 24 32 20 23 -9 49 4 55 27 5 18 11 20 47 14 36 -6 44 -3 63 18 l22 25 108 0 c92 0 109 -3 114 -17z m-959 -596 c3 -42 -1 -53 -25 -78 -23 -24 -34 -29 -59 -25 -56 9 -112 -3 -118 -26 -3 -14 -10 -18 -26 -14 -16 4 -29 -2 -46 -20 -20 -21 -29 -24 -58 -19 -32 6 -39 2 -102 -59 l-68 -65 -29 29 -30 29 49 47 c107 104 133 126 155 130 13 3 31 14 39 26 12 15 22 19 43 14 21 -6 34 -1 59 20 27 23 37 26 74 20 38 -5 46 -3 66 20 15 18 30 25 48 23 22 -3 25 -8 28 -52z m3217 -1178 c41 -22 99 -84 91 -97 -5 -7 -50 -11 -120 -11 -62 0 -128 -5 -147 -11 -35 -12 -117 -71 -179 -129 -42 -39 -67 -50 -106 -43 -62 12 -130 94 -154 188 -4 17 -11 38 -15 47 -5 13 0 21 21 29 105 43 543 62 609 27z"/>
<path d="M6338 8339 c-29 -17 -21 -38 29 -69 43 -28 54 -30 140 -30 68 0 93 3 93 13 0 17 -65 67 -88 67 -10 0 -27 7 -38 15 -22 17 -110 19 -136 4z"/>
</g>
</g>
</svg>
