<?xml version="1.0" standalone="no"?>
<!DOCTYPE svg PUBLIC "-//W3C//DTD SVG 1.1//EN"
 "http://www.w3.org/Graphics/SVG/1.1/DTD/svg11.dtd">
<!-- Created with svg_stack (http://github.com/astraw/svg_stack) -->
<svg xmlns:sodipodi="http://sodipodi.sourceforge.net/DTD/sodipodi-0.dtd" xmlns="http://www.w3.org/2000/svg" version="1.1" width="1506.0" height="512.0">
  <defs/>
  <g id="id0:id0" transform="matrix(1.25,0,0,1.25,0.0,0.0)"><g transform="translate(0.000000,409.600000) scale(0.040000,-0.040000)" fill="#ffffff" stroke="none">
<path d="M0 5120 l0 -5120 15060 0 15060 0 0 1770 c0 1032 -4 1770 -9 1770 -14 0 -21 -27 -41 -150 -29 -174 -54 -268 -106 -393 -13 -32 -24 -62 -24 -67 0 -16 -140 -291 -162 -319 -7 -9 -19 -27 -27 -41 -24 -44 -73 -109 -163 -213 -161 -189 -225 -250 -406 -385 -268 -200 -712 -379 -1007 -407 -38 -4 -80 -11 -95 -17 -41 -16 -419 -11 -555 7 -338 45 -619 146 -941 339 -226 135 -513 419 -680 671 -69 103 -199 360 -219 432 -7 26 -27 86 -44 133 -17 47 -30 96 -31 108 0 13 -7 47 -15 76 -51 177 -52 698 0 897 8 33 22 87 31 122 72 279 217 561 418 811 63 78 301 316 348 347 20 13 79 55 131 92 205 145 536 288 797 345 275 60 557 75 755 42 33 -6 103 -17 155 -24 110 -16 141 -24 310 -77 134 -42 140 -45 330 -138 161 -79 219 -114 334 -201 315 -238 564 -551 724 -910 11 -25 23 -56 27 -70 4 -14 13 -38 20 -55 32 -74 79 -255 100 -385 15 -98 32 -170 40 -170 3 0 5 1418 5 3150 l0 3150 -15060 0 -15060 0 0 -5120z m4626 4990 c71 -61 155 -133 187 -161 l57 -50 0 -619 c0 -401 -4 -621 -10 -625 -11 -7 -63 32 -154 116 -110 102 -208 179 -227 179 -17 0 -76 -46 -203 -160 -106 -96 -166 -141 -176 -135 -6 4 -10 225 -10 630 0 560 2 625 16 633 18 10 66 50 163 137 115 103 195 165 212 165 9 0 74 -50 145 -110z m-1404 -568 c18 -16 42 -35 54 -43 19 -13 63 -51 213 -185 25 -22 54 -44 64 -47 16 -6 17 -34 17 -386 0 -246 -4 -382 -10 -386 -10 -6 -39 17 -174 135 -35 30 -93 81 -130 113 l-66 58 -33 -20 c-18 -11 -42 -29 -52 -41 -10 -11 -23 -20 -29 -20 -7 0 -36 -25 -66 -56 -69 -70 -199 -176 -212 -172 -13 5 -11 745 3 769 5 10 14 19 20 19 11 0 220 176 252 213 18 20 96 75 109 76 4 1 22 -12 40 -27z m2652 -589 c41 -38 102 -90 136 -118 33 -27 83 -70 111 -94 l49 -44 0 -504 c0 -570 3 -549 -73 -475 -23 22 -61 56 -84 74 -23 18 -82 68 -132 111 -49 42 -95 77 -101 77 -6 0 -42 -25 -78 -57 -119 -100 -184 -157 -234 -202 -29 -26 -53 -41 -63 -38 -13 5 -15 72 -17 508 l-3 501 50 46 c28 26 86 76 129 112 43 36 105 89 138 118 33 28 69 52 79 52 10 0 51 -30 93 -67z m1305 -415 c27 -24 85 -74 129 -113 43 -38 107 -94 140 -123 l62 -53 0 -418 c0 -230 -3 -421 -6 -424 -9 -8 -49 23 -142 111 -42 39 -80 72 -84 72 -4 0 -34 24 -68 54 -33 29 -69 56 -81 59 -21 6 -52 -18 -224 -167 -110 -96 -162 -136 -169 -129 -3 4 -6 194 -6 424 l0 417 73 65 c123 110 311 267 318 267 4 0 30 -19 58 -42z m-5261 -248 c37 -33 122 -107 190 -166 l122 -106 0 -653 c0 -360 -4 -656 -8 -659 -5 -3 -38 19 -73 49 -35 30 -86 72 -114 94 -27 21 -81 66 -120 100 -38 33 -73 61 -77 61 -5 0 -18 -10 -30 -22 -12 -13 -32 -30 -44 -38 -12 -8 -56 -47 -98 -86 -42 -39 -95 -84 -119 -100 -23 -16 -50 -39 -60 -52 -10 -12 -23 -20 -28 -17 -5 4 -9 275 -9 665 l0 658 68 60 c37 32 97 84 133 113 36 30 94 78 128 107 34 28 64 52 67 52 3 0 36 -27 72 -60z m2711 -67 c74 -65 158 -137 188 -161 l53 -42 -2 -1493 -3 -1492 -30 -59 c-105 -212 -351 -287 -560 -169 -69 38 -113 86 -151 167 l-34 70 0 1479 0 1479 63 65 c34 36 88 86 121 111 32 25 88 72 124 104 37 32 73 58 82 58 8 0 76 -53 149 -117z m-1294 -164 c77 -66 161 -140 188 -163 l47 -42 0 -678 c0 -590 -2 -677 -15 -682 -9 -4 -48 23 -104 72 -193 170 -252 219 -266 222 -13 3 -114 -77 -256 -203 -100 -89 -122 -106 -131 -97 -4 4 -8 314 -9 687 l0 680 35 30 c19 16 68 57 107 90 40 33 99 85 133 116 65 58 105 88 121 88 6 1 73 -53 150 -120z m5168 -434 c23 -19 108 -91 190 -159 l147 -123 0 -1098 c0 -604 -2 -1100 -5 -1103 -2 -3 -22 11 -43 30 -21 19 -65 54 -98 78 -32 24 -93 74 -136 111 -42 37 -86 73 -98 79 -27 15 -44 4 -165 -104 -140 -127 -216 -187 -226 -181 -6 4 -9 426 -9 1090 l0 1084 130 113 c184 160 251 214 268 217 2 1 22 -15 45 -34z m2818 -42 c50 -43 116 -98 147 -124 31 -25 76 -63 99 -85 l42 -40 3 -923 c3 -831 5 -925 19 -934 15 -9 90 38 210 132 28 21 91 56 266 146 98 51 332 137 416 154 23 5 71 16 107 24 115 28 181 37 365 49 143 9 201 9 275 -1 52 -7 142 -18 200 -26 58 -8 119 -19 135 -25 17 -6 55 -16 85 -22 71 -13 267 -80 350 -119 36 -18 79 -37 95 -45 50 -21 217 -117 269 -154 339 -242 579 -515 749 -855 95 -189 154 -363 188 -555 6 -30 17 -90 25 -133 31 -170 14 -589 -31 -752 -8 -27 -17 -68 -21 -90 -4 -22 -23 -83 -42 -135 -19 -52 -41 -113 -49 -135 -54 -150 -214 -419 -335 -563 -106 -125 -267 -284 -354 -348 -44 -31 -90 -67 -104 -80 -14 -12 -50 -35 -80 -52 -30 -16 -89 -48 -130 -72 -204 -118 -511 -224 -725 -251 -44 -6 -91 -12 -105 -16 -14 -3 -122 -7 -240 -10 -296 -6 -481 18 -740 99 -123 39 -297 112 -383 160 -37 21 -78 43 -90 49 -20 8 -76 44 -163 104 -147 100 -320 267 -482 465 -42 51 -155 219 -179 265 -11 22 -32 62 -47 89 -14 27 -26 55 -26 61 0 7 -7 18 -15 25 -8 7 -15 19 -15 27 0 8 -9 33 -19 57 -27 59 -95 275 -115 366 -47 212 -48 265 -42 2210 l5 1825 21 15 c12 8 76 62 143 120 168 145 211 180 220 180 5 0 49 -35 98 -77z m5335 5 c41 -35 124 -104 183 -155 l109 -92 6 -63 c4 -35 6 -456 5 -936 -2 -579 1 -876 8 -883 7 -7 28 5 64 36 30 25 85 67 124 92 38 25 81 54 95 64 14 11 93 52 175 93 322 160 654 236 1030 236 204 0 322 -13 510 -56 105 -24 349 -99 370 -113 6 -4 42 -20 80 -36 39 -15 77 -33 85 -40 8 -6 40 -24 69 -39 219 -110 561 -402 695 -593 32 -46 62 -85 67 -89 5 -3 21 -26 35 -52 13 -26 35 -61 47 -78 74 -106 168 -323 230 -534 24 -81 36 -131 58 -245 14 -74 22 -529 11 -610 -13 -99 -41 -238 -65 -320 -23 -81 -92 -272 -107 -297 -5 -10 -10 -25 -10 -35 0 -9 -6 -24 -14 -32 -14 -16 -41 -62 -90 -156 -14 -27 -57 -93 -96 -145 -39 -52 -82 -113 -96 -135 -40 -61 -288 -300 -389 -374 -139 -103 -303 -202 -410 -248 -189 -82 -303 -123 -395 -142 -25 -5 -74 -16 -110 -24 -175 -41 -438 -60 -642 -46 -150 10 -448 63 -503 89 -11 5 -61 23 -111 39 -51 17 -126 46 -167 66 -42 19 -79 35 -82 35 -13 0 -156 86 -291 173 -79 52 -260 206 -345 294 -76 78 -227 269 -269 341 -18 31 -45 76 -60 98 -24 38 -68 125 -106 209 -57 126 -127 356 -145 475 -4 30 -13 80 -20 110 -10 42 -13 496 -16 1955 l-3 1901 110 94 c61 52 148 127 193 167 45 39 88 70 95 67 7 -2 47 -32 88 -66z m-16080 -118 c32 -27 79 -67 104 -89 25 -22 85 -74 133 -117 l88 -77 -3 -441 c-2 -243 -7 -447 -11 -454 -6 -9 -24 1 -68 40 -33 29 -77 67 -99 83 -22 17 -78 65 -125 109 l-85 78 -37 -28 c-21 -16 -68 -56 -104 -89 -88 -80 -236 -197 -245 -193 -4 2 -7 205 -6 452 l1 449 33 35 c69 71 335 291 354 292 6 0 37 -22 70 -50z m5299 -176 c44 -36 103 -87 130 -113 28 -26 73 -64 101 -84 29 -21 55 -44 58 -53 11 -29 7 -1952 -5 -2043 -28 -227 -44 -295 -109 -456 -52 -132 -75 -177 -150 -300 -64 -104 -74 -116 -220 -268 -106 -110 -158 -155 -245 -212 -185 -122 -244 -151 -435 -214 -186 -63 -342 -85 -545 -78 -316 10 -463 45 -720 169 -188 91 -434 282 -535 413 -19 26 -42 54 -51 63 -36 36 -154 231 -197 322 -47 101 -102 252 -102 282 0 9 -6 37 -14 60 -34 101 -46 276 -46 674 l0 387 73 67 c81 75 198 176 270 233 l47 38 47 -37 c27 -21 76 -63 109 -94 34 -30 89 -77 123 -105 34 -27 73 -60 87 -72 l24 -22 0 -373 c0 -484 11 -555 110 -730 72 -126 179 -246 280 -314 270 -181 601 -215 883 -89 226 99 419 309 497 540 48 140 50 177 50 1196 l0 955 83 72 c250 218 292 252 307 252 9 0 52 -30 95 -66z m1285 -226 c21 -18 66 -55 100 -83 35 -27 77 -63 94 -79 17 -15 59 -51 94 -79 l62 -50 0 -422 c0 -232 -3 -424 -6 -428 -6 -5 -254 195 -328 266 -21 20 -47 37 -56 37 -10 0 -37 -19 -61 -42 -60 -59 -126 -116 -189 -163 -29 -22 -70 -55 -90 -72 -20 -18 -40 -30 -44 -26 -3 3 -6 193 -6 422 l0 415 58 53 c31 30 104 93 161 141 57 48 118 99 135 114 17 15 33 28 35 28 2 0 20 -15 41 -32z m-5116 -840 l186 -163 0 -412 c0 -234 -4 -414 -9 -417 -5 -3 -49 23 -98 59 -48 36 -111 81 -138 99 -28 18 -70 50 -93 70 -24 20 -51 36 -60 36 -9 0 -95 -79 -192 -175 -97 -97 -179 -172 -183 -169 -4 4 -7 211 -7 459 l0 452 73 62 c160 136 220 188 260 223 23 21 49 38 58 38 9 0 101 -73 203 -162z m-1521 -260 c12 -6 70 -55 129 -110 59 -54 111 -98 115 -98 5 -1 35 -25 68 -55 l60 -54 6 -428 c6 -373 9 -444 28 -548 11 -66 21 -133 21 -150 1 -16 7 -41 15 -55 8 -14 14 -37 15 -51 1 -65 80 -338 157 -539 54 -141 229 -495 267 -540 7 -8 28 -42 46 -75 19 -33 48 -78 66 -100 18 -22 47 -63 66 -91 113 -173 395 -479 563 -612 39 -31 86 -70 105 -88 39 -35 107 -83 255 -181 55 -36 113 -74 128 -85 79 -54 480 -249 571 -277 17 -6 69 -24 116 -41 47 -17 101 -35 120 -40 19 -5 96 -25 170 -45 320 -84 771 -130 1036 -106 282 25 351 32 395 42 26 6 84 16 130 23 86 14 388 90 417 106 10 4 60 23 112 40 52 18 122 44 155 58 91 40 385 188 425 214 19 12 80 49 135 83 56 33 114 70 130 83 257 199 349 279 501 435 169 172 323 362 431 533 27 42 58 90 70 107 12 18 33 52 46 77 13 25 38 69 55 98 18 29 32 55 32 57 0 2 22 50 50 108 27 58 52 117 56 132 4 15 19 52 34 83 15 32 31 72 35 90 4 18 13 45 21 60 8 15 17 43 20 62 4 19 10 40 14 45 9 12 45 148 66 250 16 77 26 88 185 222 41 34 119 100 174 147 55 47 103 86 107 86 4 0 44 -33 90 -72 46 -40 122 -106 171 -146 l87 -73 0 -52 c0 -29 -9 -88 -20 -132 -11 -44 -22 -100 -25 -125 -4 -25 -12 -61 -19 -80 -8 -19 -18 -57 -24 -85 -23 -111 -92 -326 -159 -501 -42 -107 -149 -341 -175 -383 -15 -25 -28 -49 -28 -55 0 -28 -227 -389 -337 -537 -45 -60 -86 -116 -90 -123 -4 -7 -34 -42 -65 -77 -31 -35 -88 -100 -126 -145 -94 -109 -377 -377 -482 -458 -47 -36 -114 -89 -150 -117 -36 -28 -117 -85 -180 -126 -63 -42 -127 -84 -142 -94 -15 -11 -29 -19 -32 -19 -2 0 -44 -23 -93 -51 -102 -59 -347 -184 -382 -194 -13 -4 -63 -25 -110 -47 -255 -117 -713 -242 -1056 -287 -239 -32 -309 -36 -610 -36 -409 0 -512 9 -880 81 -240 46 -477 115 -730 212 -60 23 -306 133 -320 143 -5 4 -72 39 -148 78 -76 40 -157 83 -180 98 -96 59 -316 210 -370 252 -32 25 -76 60 -97 76 -197 154 -454 402 -611 590 -93 112 -221 273 -234 296 -5 9 -32 50 -60 90 -27 41 -54 82 -60 91 -5 10 -34 57 -64 105 -73 118 -251 471 -285 563 -15 41 -36 94 -46 117 -23 50 -92 253 -115 338 -55 202 -83 321 -105 460 -26 163 -50 338 -54 405 -5 65 -10 717 -7 808 1 35 9 44 100 117 35 28 111 92 168 143 58 50 107 92 110 92 2 0 14 -5 26 -12z m21328 -285 c61 -126 160 -327 219 -448 59 -121 161 -330 227 -465 165 -335 319 -650 423 -865 48 -99 145 -297 214 -440 70 -143 139 -285 154 -315 36 -75 67 -107 124 -126 44 -14 51 -14 92 1 29 11 55 32 80 64 20 27 36 52 36 57 0 11 76 196 100 244 10 19 29 67 43 105 14 39 44 111 67 160 23 50 50 110 60 135 48 122 114 278 180 425 5 11 37 88 70 170 33 83 81 195 105 250 25 55 45 106 45 113 0 8 8 26 18 40 10 15 36 72 57 127 21 55 49 120 62 144 13 24 23 50 23 57 0 8 9 33 20 56 10 24 35 78 55 120 19 43 35 83 35 90 0 6 8 30 19 52 25 54 114 259 137 316 10 25 23 52 30 60 7 8 16 29 20 45 13 57 -6 55 440 55 241 0 415 -4 419 -9 3 -5 -11 -45 -31 -88 -20 -43 -44 -102 -54 -130 -11 -29 -33 -81 -49 -117 -17 -35 -31 -69 -31 -75 0 -6 -15 -43 -34 -83 -18 -40 -51 -111 -71 -158 -21 -47 -48 -108 -61 -136 -13 -28 -24 -57 -24 -65 0 -8 -6 -23 -13 -34 -7 -11 -28 -56 -46 -100 -18 -44 -41 -98 -51 -120 -10 -22 -66 -152 -125 -290 -59 -137 -111 -254 -116 -259 -5 -6 -9 -18 -9 -29 0 -10 -9 -35 -20 -55 -28 -53 -119 -268 -141 -331 -11 -30 -23 -59 -28 -65 -4 -6 -27 -56 -50 -111 -24 -55 -51 -118 -62 -141 -10 -22 -19 -45 -19 -50 0 -5 -8 -27 -19 -49 -10 -22 -33 -71 -49 -110 -17 -38 -44 -100 -61 -137 -17 -37 -31 -73 -31 -80 0 -8 -9 -32 -21 -53 -11 -22 -39 -85 -61 -140 -22 -55 -46 -111 -53 -125 -8 -14 -28 -59 -45 -100 -18 -41 -38 -88 -45 -105 -45 -102 -99 -226 -115 -265 -10 -25 -37 -85 -59 -135 -22 -49 -52 -121 -66 -160 -15 -38 -30 -74 -35 -80 -4 -5 -24 -50 -43 -100 -133 -337 -296 -650 -444 -851 -156 -211 -365 -393 -556 -483 -119 -56 -274 -101 -397 -116 -213 -26 -503 -15 -660 26 -25 6 -81 20 -125 31 -146 37 -251 71 -345 111 -14 6 -54 23 -90 37 -73 29 -75 36 -42 113 11 23 31 74 47 112 48 122 56 139 71 167 7 14 14 33 14 43 0 9 11 37 25 63 14 26 25 52 25 59 0 7 9 27 20 45 11 18 20 41 20 51 0 30 23 29 82 -2 47 -26 202 -80 298 -105 23 -6 106 -20 185 -30 108 -15 297 -23 348 -14 175 27 274 73 373 174 40 40 92 101 117 136 49 68 126 214 127 238 0 8 7 24 15 34 8 11 15 32 15 47 0 15 5 50 12 78 20 87 3 132 -232 606 -119 242 -326 661 -459 930 -255 517 -261 528 -279 560 -6 11 -109 218 -228 460 -256 520 -352 715 -363 735 -5 8 -43 85 -84 170 -41 85 -130 265 -196 399 -67 134 -118 247 -115 252 3 5 196 9 440 9 l434 0 111 -227z m-14631 -140 c48 -43 133 -118 189 -166 l101 -88 -1 -152 c-1 -217 -26 -434 -69 -612 -34 -141 -91 -347 -105 -380 -99 -235 -179 -405 -213 -453 -12 -16 -22 -34 -22 -39 0 -4 -16 -32 -35 -60 -19 -29 -35 -54 -35 -57 0 -7 -103 -152 -153 -214 -188 -239 -453 -488 -687 -647 -129 -89 -451 -265 -483 -265 -7 0 -24 -8 -37 -17 -29 -21 -52 -30 -216 -83 -580 -190 -1140 -211 -1724 -63 -74 18 -151 37 -170 42 -19 4 -44 13 -55 19 -11 6 -55 23 -99 38 -43 14 -92 34 -110 44 -17 10 -48 23 -69 30 -21 6 -95 43 -164 81 -70 38 -130 69 -134 69 -4 0 -27 15 -51 33 -24 18 -61 43 -83 57 -22 13 -82 56 -133 94 -51 39 -110 83 -130 98 -36 26 -338 329 -377 378 -11 14 -45 57 -76 96 -108 135 -221 316 -313 500 -52 105 -126 278 -126 295 0 10 -4 20 -9 24 -9 5 -27 60 -80 245 -11 41 -21 95 -21 120 l0 45 167 167 c92 93 175 168 184 168 8 0 26 -12 40 -26 13 -14 42 -35 64 -46 22 -11 57 -36 78 -55 21 -19 62 -49 92 -68 29 -19 57 -39 60 -45 4 -6 23 -19 44 -29 32 -17 41 -30 65 -93 16 -40 37 -95 47 -122 11 -27 19 -53 19 -58 0 -32 144 -310 213 -413 133 -196 331 -410 492 -531 170 -129 209 -152 416 -256 473 -235 1015 -288 1534 -150 216 58 262 75 480 185 150 75 359 225 498 356 159 151 249 264 402 506 68 107 225 483 225 539 0 7 8 40 19 72 10 33 21 90 25 128 4 38 13 96 21 130 10 39 15 116 15 216 l0 156 38 36 c63 61 345 298 355 298 4 0 48 -35 97 -77z"/>
<path d="M12900 5203 c-14 -2 -56 -11 -95 -19 -298 -68 -543 -197 -741 -390 -176 -172 -306 -376 -367 -574 -70 -227 -72 -241 -72 -450 0 -225 14 -315 81 -504 29 -82 117 -257 149 -294 12 -15 34 -46 49 -70 15 -23 72 -90 127 -147 76 -78 133 -125 228 -188 116 -77 307 -177 342 -177 8 -1 32 -9 54 -20 22 -11 49 -19 61 -20 11 0 60 -9 110 -20 112 -25 445 -29 534 -6 30 7 76 16 101 19 25 3 67 15 93 27 26 11 56 20 65 20 27 0 280 131 352 183 211 150 364 326 474 545 25 49 45 94 45 101 0 6 6 22 14 34 19 30 60 180 81 297 57 313 -34 710 -230 1005 -96 145 -248 297 -401 402 -63 43 -314 173 -336 173 -7 1 -31 8 -53 16 -22 8 -95 26 -162 39 -106 22 -147 25 -300 24 -98 -1 -189 -3 -203 -6z"/>
<path d="M18245 5203 c-209 -25 -527 -152 -667 -265 -36 -29 -89 -71 -117 -93 -98 -75 -261 -274 -323 -393 -85 -164 -118 -260 -169 -503 -14 -69 -7 -373 10 -444 60 -242 119 -382 229 -545 81 -120 120 -164 261 -292 131 -120 339 -236 531 -296 169 -53 255 -65 449 -65 173 1 195 3 316 32 205 49 223 55 355 122 288 144 525 379 667 661 55 109 83 184 120 328 26 99 28 117 27 315 -1 195 -3 217 -27 310 -77 287 -183 483 -367 678 -60 64 -249 214 -311 248 -200 107 -313 150 -496 188 -83 17 -134 21 -280 20 -98 -1 -191 -4 -208 -6z"/>
<path d="M27600 5200 c-162 -27 -289 -68 -435 -140 -149 -73 -246 -140 -369 -253 -80 -74 -236 -260 -236 -282 0 -3 -13 -26 -29 -49 -59 -85 -112 -216 -158 -390 -25 -95 -27 -115 -27 -321 0 -233 6 -280 65 -465 25 -79 121 -272 158 -320 15 -19 39 -55 53 -80 28 -48 256 -278 298 -300 14 -7 61 -36 105 -65 44 -29 107 -65 140 -79 33 -15 68 -31 78 -37 30 -16 177 -66 252 -84 107 -27 487 -33 592 -11 211 46 440 139 587 240 200 137 384 338 465 509 11 23 25 49 30 57 14 23 68 157 92 230 50 154 72 431 45 583 -39 216 -67 304 -144 453 -85 166 -142 244 -271 373 -128 129 -289 243 -421 301 -41 18 -79 36 -85 40 -14 11 -172 55 -283 80 -77 16 -126 20 -275 19 -100 -1 -202 -5 -227 -9z"/>
</g>
</g>
  <g id="id1:id1" transform="matrix(1.25,0,0,1.25,0.0,0.0)"><g transform="translate(0.000000,409.600000) scale(0.040000,-0.040000)" fill="#232323" stroke="none">
<path d="M4452 10228 c7 -19 43 -21 58 -3 11 13 8 15 -25 15 -25 0 -35 -4 -33 -12z"/>
<path d="M4560 10170 c0 -5 5 -10 10 -10 6 0 10 5 10 10 0 6 -4 10 -10 10 -5 0 -10 -4 -10 -10z"/>
<path d="M4594 10139 c-10 -17 13 -36 27 -22 12 12 4 33 -11 33 -5 0 -12 -5 -16 -11z"/>
<path d="M4645 10100 c-4 -6 -3 -16 3 -22 6 -6 12 -6 17 2 4 6 3 16 -3 22 -6 6 -12 6 -17 -2z"/>
<path d="M4840 9932 c0 -14 36 -43 43 -35 4 3 0 15 -10 25 -17 19 -33 24 -33 10z"/>
<path d="M4077 9924 c-13 -13 -7 -24 14 -24 11 0 19 5 17 12 -5 14 -22 21 -31 12z"/>
<path d="M3160 9590 c0 -5 9 -10 20 -10 11 0 20 5 20 10 0 6 -9 10 -20 10 -11 0 -20 -4 -20 -10z"/>
<path d="M3074 9519 c-10 -17 13 -36 27 -22 12 12 4 33 -11 33 -5 0 -12 -5 -16 -11z"/>
<path d="M2840 9310 c0 -5 5 -10 10 -10 6 0 10 5 10 10 0 6 -4 10 -10 10 -5 0 -10 -4 -10 -10z"/>
<path d="M3520 9290 c0 -5 5 -10 10 -10 6 0 10 5 10 10 0 6 -4 10 -10 10 -5 0 -10 -4 -10 -10z"/>
<path d="M3560 9270 c0 -5 5 -10 10 -10 6 0 10 5 10 10 0 6 -4 10 -10 10 -5 0 -10 -4 -10 -10z"/>
<path d="M5774 9039 c-10 -17 13 -36 27 -22 12 12 4 33 -11 33 -5 0 -12 -5 -16 -11z"/>
<path d="M4467 8964 c-14 -15 -6 -34 14 -34 14 0 19 5 17 17 -3 18 -20 27 -31 17z"/>
<path d="M5580 8890 c0 -5 5 -10 10 -10 6 0 10 5 10 10 0 6 -4 10 -10 10 -5 0 -10 -4 -10 -10z"/>
<path d="M5540 8850 c0 -5 5 -10 10 -10 6 0 10 5 10 10 0 6 -4 10 -10 10 -5 0 -10 -4 -10 -10z"/>
<path d="M6000 8850 c0 -5 5 -10 10 -10 6 0 10 5 10 10 0 6 -4 10 -10 10 -5 0 -10 -4 -10 -10z"/>
<path d="M5560 8810 c0 -5 5 -10 10 -10 6 0 10 5 10 10 0 6 -4 10 -10 10 -5 0 -10 -4 -10 -10z"/>
<path d="M3180 8790 c0 -5 5 -10 10 -10 6 0 10 5 10 10 0 6 -4 10 -10 10 -5 0 -10 -4 -10 -10z"/>
<path d="M4700 8750 c0 -5 5 -10 10 -10 6 0 10 5 10 10 0 6 -4 10 -10 10 -5 0 -10 -4 -10 -10z"/>
<path d="M4077 8714 c-14 -14 -7 -75 9 -81 24 -9 33 8 26 46 -7 34 -22 48 -35 35z"/>
<path d="M6180 8690 c0 -5 5 -10 10 -10 6 0 10 5 10 10 0 6 -4 10 -10 10 -5 0 -10 -4 -10 -10z"/>
<path d="M4865 8680 c-4 -6 -3 -16 3 -22 6 -6 12 -6 17 2 4 6 3 16 -3 22 -6 6 -12 6 -17 -2z"/>
<path d="M3320 8670 c0 -5 5 -10 10 -10 6 0 10 5 10 10 0 6 -4 10 -10 10 -5 0 -10 -4 -10 -10z"/>
<path d="M4140 8670 c0 -5 5 -10 10 -10 6 0 10 5 10 10 0 6 -4 10 -10 10 -5 0 -10 -4 -10 -10z"/>
<path d="M4800 8672 c0 -10 22 -32 32 -32 15 0 8 28 -8 34 -21 8 -24 8 -24 -2z"/>
<path d="M6155 8660 c-10 -17 12 -37 25 -24 8 8 6 15 -4 23 -10 9 -16 9 -21 1z"/>
<path d="M3412 8588 c6 -18 28 -21 28 -4 0 9 -7 16 -16 16 -9 0 -14 -5 -12 -12z"/>
<path d="M3556 8541 c-3 -5 1 -14 8 -20 16 -13 32 2 21 19 -8 12 -22 13 -29 1z"/>
<path d="M2840 8510 c0 -5 5 -10 10 -10 6 0 10 5 10 10 0 6 -4 10 -10 10 -5 0 -10 -4 -10 -10z"/>
<path d="M3500 8513 c0 -10 52 -34 58 -28 3 2 -1 11 -8 20 -13 15 -50 21 -50 8z"/>
<path d="M2780 8495 c0 -8 5 -15 10 -15 6 0 10 7 10 15 0 8 -4 15 -10 15 -5 0 -10 -7 -10 -15z"/>
<path d="M6940 8450 c0 -5 5 -10 10 -10 6 0 10 5 10 10 0 6 -4 10 -10 10 -5 0 -10 -4 -10 -10z"/>
<path d="M7280 8450 c0 -5 5 -10 10 -10 6 0 10 5 10 10 0 6 -4 10 -10 10 -5 0 -10 -4 -10 -10z"/>
<path d="M4450 8350 c0 -5 7 -10 15 -10 8 0 15 5 15 10 0 6 -7 10 -15 10 -8 0 -15 -4 -15 -10z"/>
<path d="M1794 8339 c-10 -17 13 -36 27 -22 12 12 4 33 -11 33 -5 0 -12 -5 -16 -11z"/>
<path d="M1854 8339 c-10 -17 13 -36 27 -22 12 12 4 33 -11 33 -5 0 -12 -5 -16 -11z"/>
<path d="M4370 8285 c-18 -19 -30 -38 -27 -42 8 -7 77 55 77 69 0 16 -17 7 -50 -27z"/>
<path d="M1740 8290 c0 -5 5 -10 10 -10 6 0 10 5 10 10 0 6 -4 10 -10 10 -5 0 -10 -4 -10 -10z"/>
<path d="M6735 8280 c-4 -6 -3 -16 3 -22 6 -6 12 -6 17 2 4 6 3 16 -3 22 -6 6 -12 6 -17 -2z"/>
<path d="M1954 8259 c-10 -17 13 -36 27 -22 12 12 4 33 -11 33 -5 0 -12 -5 -16 -11z"/>
<path d="M1700 8250 c0 -5 5 -10 10 -10 6 0 10 5 10 10 0 6 -4 10 -10 10 -5 0 -10 -4 -10 -10z"/>
<path d="M4600 8250 c0 -5 5 -10 10 -10 6 0 10 5 10 10 0 6 -4 10 -10 10 -5 0 -10 -4 -10 -10z"/>
<path d="M4634 8219 c-10 -17 13 -36 27 -22 12 12 4 33 -11 33 -5 0 -12 -5 -16 -11z"/>
<path d="M3165 8200 c-7 -11 2 -30 13 -30 4 0 14 5 22 10 13 9 13 11 0 20 -19 12 -27 12 -35 0z"/>
<path d="M1360 8050 c0 -5 9 -10 20 -10 11 0 20 5 20 10 0 6 -9 10 -20 10 -11 0 -20 -4 -20 -10z"/>
<path d="M2200 8053 c0 -4 7 -17 15 -27 17 -23 34 -13 19 11 -12 19 -34 29 -34 16z"/>
<path d="M1434 8029 c-3 -6 -1 -16 5 -22 9 -9 14 -8 21 3 9 15 4 30 -10 30 -5 0 -12 -5 -16 -11z"/>
<path d="M4080 8030 c0 -5 5 -10 10 -10 6 0 10 5 10 10 0 6 -4 10 -10 10 -5 0 -10 -4 -10 -10z"/>
<path d="M4860 8010 c0 -5 5 -10 10 -10 6 0 10 5 10 10 0 6 -4 10 -10 10 -5 0 -10 -4 -10 -10z"/>
<path d="M2220 7970 c0 -5 5 -10 10 -10 6 0 10 5 10 10 0 6 -4 10 -10 10 -5 0 -10 -4 -10 -10z"/>
<path d="M2900 7970 c0 -5 5 -10 10 -10 6 0 10 5 10 10 0 6 -4 10 -10 10 -5 0 -10 -4 -10 -10z"/>
<path d="M3430 7970 c0 -5 7 -10 15 -10 8 0 15 5 15 10 0 6 -7 10 -15 10 -8 0 -15 -4 -15 -10z"/>
<path d="M3474 7939 c-10 -17 13 -36 27 -22 12 12 4 33 -11 33 -5 0 -12 -5 -16 -11z"/>
<path d="M2860 7930 c0 -5 5 -10 10 -10 6 0 10 5 10 10 0 6 -4 10 -10 10 -5 0 -10 -4 -10 -10z"/>
<path d="M6160 7710 c0 -5 5 -10 10 -10 6 0 10 5 10 10 0 6 -4 10 -10 10 -5 0 -10 -4 -10 -10z"/>
<path d="M8447 7683 c-13 -13 -7 -24 19 -34 33 -12 39 -7 22 20 -13 21 -29 27 -41 14z"/>
<path d="M11210 7680 c-13 -9 -13 -11 0 -20 9 -6 18 -6 24 0 15 15 -6 31 -24 20z"/>
<path d="M7160 7670 c0 -5 5 -10 10 -10 6 0 10 5 10 10 0 6 -4 10 -10 10 -5 0 -10 -4 -10 -10z"/>
<path d="M8520 7610 c0 -5 5 -10 10 -10 6 0 10 5 10 10 0 6 -4 10 -10 10 -5 0 -10 -4 -10 -10z"/>
<path d="M8580 7570 c0 -5 5 -10 10 -10 6 0 10 5 10 10 0 6 -4 10 -10 10 -5 0 -10 -4 -10 -10z"/>
<path d="M16420 7570 c0 -5 5 -10 10 -10 6 0 10 5 10 10 0 6 -4 10 -10 10 -5 0 -10 -4 -10 -10z"/>
<path d="M6914 7559 c-10 -17 13 -36 27 -22 12 12 4 33 -11 33 -5 0 -12 -5 -16 -11z"/>
<path d="M7300 7550 c0 -5 5 -10 10 -10 6 0 10 5 10 10 0 6 -4 10 -10 10 -5 0 -10 -4 -10 -10z"/>
<path d="M480 7530 c0 -5 5 -10 10 -10 6 0 10 5 10 10 0 6 -4 10 -10 10 -5 0 -10 -4 -10 -10z"/>
<path d="M8260 7530 c0 -5 5 -10 10 -10 6 0 10 5 10 10 0 6 -4 10 -10 10 -5 0 -10 -4 -10 -10z"/>
<path d="M16331 7486 c-13 -13 -18 -26 -13 -30 5 -3 19 5 31 18 13 13 18 26 13 30 -5 3 -19 -5 -31 -18z"/>
<path d="M8220 7490 c0 -5 5 -10 10 -10 6 0 10 5 10 10 0 6 -4 10 -10 10 -5 0 -10 -4 -10 -10z"/>
<path d="M6717 7473 c-13 -12 -7 -53 7 -53 20 0 29 16 21 40 -6 20 -17 25 -28 13z"/>
<path d="M11440 7470 c0 -5 5 -10 10 -10 6 0 10 5 10 10 0 6 -4 10 -10 10 -5 0 -10 -4 -10 -10z"/>
<path d="M7423 7454 c-3 -9 0 -20 8 -25 21 -13 29 -11 29 10 0 24 -29 36 -37 15z"/>
<path d="M11480 7450 c0 -5 5 -10 10 -10 6 0 10 5 10 10 0 6 -4 10 -10 10 -5 0 -10 -4 -10 -10z"/>
<path d="M6780 7430 c0 -5 5 -10 10 -10 6 0 10 5 10 10 0 6 -4 10 -10 10 -5 0 -10 -4 -10 -10z"/>
<path d="M11515 7420 c-11 -17 5 -32 21 -19 7 6 11 15 8 20 -7 12 -21 11 -29 -1z"/>
<path d="M340 7410 c0 -5 5 -10 10 -10 6 0 10 5 10 10 0 6 -4 10 -10 10 -5 0 -10 -4 -10 -10z"/>
<path d="M7484 7399 c-10 -17 13 -36 27 -22 12 12 4 33 -11 33 -5 0 -12 -5 -16 -11z"/>
<path d="M5760 7370 c0 -5 5 -10 10 -10 6 0 10 5 10 10 0 6 -4 10 -10 10 -5 0 -10 -4 -10 -10z"/>
<path d="M16920 7372 c0 -14 36 -43 43 -35 4 3 0 15 -10 25 -17 19 -33 24 -33 10z"/>
<path d="M8840 7350 c0 -5 5 -10 10 -10 6 0 10 5 10 10 0 6 -4 10 -10 10 -5 0 -10 -4 -10 -10z"/>
<path d="M5874 7299 c-10 -17 13 -36 27 -22 12 12 4 33 -11 33 -5 0 -12 -5 -16 -11z"/>
<path d="M16154 7299 c-10 -17 13 -36 27 -22 12 12 4 33 -11 33 -5 0 -12 -5 -16 -11z"/>
<path d="M5660 7290 c0 -5 5 -10 10 -10 6 0 10 5 10 10 0 6 -4 10 -10 10 -5 0 -10 -4 -10 -10z"/>
<path d="M16960 7250 c0 -5 5 -10 10 -10 6 0 10 5 10 10 0 6 -4 10 -10 10 -5 0 -10 -4 -10 -10z"/>
<path d="M16155 7221 c-7 -12 12 -24 25 -16 11 7 4 25 -10 25 -5 0 -11 -4 -15 -9z"/>
<path d="M900 7175 c0 -8 5 -15 10 -15 6 0 10 7 10 15 0 8 -4 15 -10 15 -5 0 -10 -7 -10 -15z"/>
<path d="M16160 7170 c0 -5 5 -10 10 -10 6 0 10 5 10 10 0 6 -4 10 -10 10 -5 0 -10 -4 -10 -10z"/>
<path d="M16160 7130 c0 -5 5 -10 10 -10 6 0 10 5 10 10 0 6 -4 10 -10 10 -5 0 -10 -4 -10 -10z"/>
<path d="M6120 7090 c0 -5 5 -10 10 -10 6 0 10 5 10 10 0 6 -4 10 -10 10 -5 0 -10 -4 -10 -10z"/>
<path d="M16160 7090 c0 -5 5 -10 10 -10 6 0 10 5 10 10 0 6 -4 10 -10 10 -5 0 -10 -4 -10 -10z"/>
<path d="M5400 7070 c0 -5 5 -10 10 -10 6 0 10 5 10 10 0 6 -4 10 -10 10 -5 0 -10 -4 -10 -10z"/>
<path d="M16160 7050 c0 -5 5 -10 10 -10 6 0 10 5 10 10 0 6 -4 10 -10 10 -5 0 -10 -4 -10 -10z"/>
<path d="M6960 6995 c-13 -14 -20 -28 -17 -32 8 -7 57 35 57 49 0 15 -16 8 -40 -17z"/>
<path d="M7220 7010 c0 -5 5 -10 10 -10 6 0 10 5 10 10 0 6 -4 10 -10 10 -5 0 -10 -4 -10 -10z"/>
<path d="M16160 7010 c0 -5 5 -10 10 -10 6 0 10 5 10 10 0 6 -4 10 -10 10 -5 0 -10 -4 -10 -10z"/>
<path d="M1855 6991 c-7 -12 12 -24 25 -16 11 7 4 25 -10 25 -5 0 -11 -4 -15 -9z"/>
<path d="M7280 6970 c0 -5 5 -10 10 -10 6 0 10 5 10 10 0 6 -4 10 -10 10 -5 0 -10 -4 -10 -10z"/>
<path d="M16160 6970 c0 -5 5 -10 10 -10 6 0 10 5 10 10 0 6 -4 10 -10 10 -5 0 -10 -4 -10 -10z"/>
<path d="M16160 6930 c0 -5 5 -10 10 -10 6 0 10 5 10 10 0 6 -4 10 -10 10 -5 0 -10 -4 -10 -10z"/>
<path d="M1690 6885 c-7 -9 -10 -18 -7 -22 8 -7 37 15 37 28 0 14 -16 11 -30 -6z"/>
<path d="M16155 6891 c-7 -12 12 -24 25 -16 11 7 4 25 -10 25 -5 0 -11 -4 -15 -9z"/>
<path d="M1614 6839 c-10 -17 13 -36 27 -22 12 12 4 33 -11 33 -5 0 -12 -5 -16 -11z"/>
<path d="M16155 6821 c-7 -12 12 -24 25 -16 11 7 4 25 -10 25 -5 0 -11 -4 -15 -9z"/>
<path d="M2214 6809 c-10 -17 13 -36 27 -22 12 12 4 33 -11 33 -5 0 -12 -5 -16 -11z"/>
<path d="M3175 6791 c-7 -12 12 -24 25 -16 11 7 4 25 -10 25 -5 0 -11 -4 -15 -9z"/>
<path d="M7480 6790 c0 -5 5 -10 10 -10 6 0 10 5 10 10 0 6 -4 10 -10 10 -5 0 -10 -4 -10 -10z"/>
<path d="M1430 6750 c0 -25 4 -31 18 -28 11 2 17 12 17 28 0 16 -6 26 -17 28 -14 3 -18 -3 -18 -28z"/>
<path d="M16160 6770 c0 -5 5 -10 10 -10 6 0 10 5 10 10 0 6 -4 10 -10 10 -5 0 -10 -4 -10 -10z"/>
<path d="M2215 6751 c-7 -12 12 -24 25 -16 11 7 4 25 -10 25 -5 0 -11 -4 -15 -9z"/>
<path d="M3240 6730 c0 -5 5 -10 10 -10 6 0 10 5 10 10 0 6 -4 10 -10 10 -5 0 -10 -4 -10 -10z"/>
<path d="M16155 6731 c-7 -12 12 -24 25 -16 11 7 4 25 -10 25 -5 0 -11 -4 -15 -9z"/>
<path d="M1467 6702 c-10 -10 -14 -22 -10 -25 7 -8 43 21 43 35 0 14 -16 9 -33 -10z"/>
<path d="M2204 6699 c-10 -17 13 -36 27 -22 12 12 4 33 -11 33 -5 0 -12 -5 -16 -11z"/>
<path d="M16155 6661 c-7 -12 12 -24 25 -16 11 7 4 25 -10 25 -5 0 -11 -4 -15 -9z"/>
<path d="M3360 6630 c0 -5 5 -10 10 -10 6 0 10 5 10 10 0 6 -4 10 -10 10 -5 0 -10 -4 -10 -10z"/>
<path d="M16160 6610 c0 -5 5 -10 10 -10 6 0 10 5 10 10 0 6 -4 10 -10 10 -5 0 -10 -4 -10 -10z"/>
<path d="M484 6599 c-10 -17 13 -36 27 -22 12 12 4 33 -11 33 -5 0 -12 -5 -16 -11z"/>
<path d="M3420 6570 c0 -5 5 -10 10 -10 6 0 10 5 10 10 0 6 -4 10 -10 10 -5 0 -10 -4 -10 -10z"/>
<path d="M16160 6570 c0 -5 5 -10 10 -10 6 0 10 5 10 10 0 6 -4 10 -10 10 -5 0 -10 -4 -10 -10z"/>
<path d="M2776 6551 c-7 -11 3 -41 14 -41 11 0 21 30 14 41 -3 5 -9 9 -14 9 -5 0 -11 -4 -14 -9z"/>
<path d="M16160 6530 c0 -5 5 -10 10 -10 6 0 10 5 10 10 0 6 -4 10 -10 10 -5 0 -10 -4 -10 -10z"/>
<path d="M2830 6505 c-7 -9 -10 -18 -7 -22 8 -7 37 15 37 28 0 14 -16 11 -30 -6z"/>
<path d="M16160 6490 c0 -5 5 -10 10 -10 6 0 10 5 10 10 0 6 -4 10 -10 10 -5 0 -10 -4 -10 -10z"/>
<path d="M16160 6450 c0 -5 5 -10 10 -10 6 0 10 5 10 10 0 6 -4 10 -10 10 -5 0 -10 -4 -10 -10z"/>
<path d="M696 6422 c-7 -12 22 -38 31 -28 4 3 0 14 -9 22 -9 10 -18 12 -22 6z"/>
<path d="M16155 6411 c-7 -12 12 -24 25 -16 11 7 4 25 -10 25 -5 0 -11 -4 -15 -9z"/>
<path d="M1814 6399 c-10 -17 13 -36 27 -22 12 12 4 33 -11 33 -5 0 -12 -5 -16 -11z"/>
<path d="M1894 6359 c-10 -17 13 -36 27 -22 12 12 4 33 -11 33 -5 0 -12 -5 -16 -11z"/>
<path d="M1760 6350 c0 -5 5 -10 10 -10 6 0 10 5 10 10 0 6 -4 10 -10 10 -5 0 -10 -4 -10 -10z"/>
<path d="M175 6330 c-10 -11 -16 -23 -12 -26 7 -7 47 14 47 26 0 19 -18 19 -35 0z"/>
<path d="M94 6319 c-10 -17 13 -36 27 -22 12 12 4 33 -11 33 -5 0 -12 -5 -16 -11z"/>
<path d="M840 6291 c0 -9 52 -31 61 -25 17 10 -3 31 -31 31 -17 0 -30 -3 -30 -6z"/>
<path d="M7107 6244 c-14 -14 -7 -35 11 -32 9 2 17 10 17 17 0 16 -18 25 -28 15z"/>
<path d="M3150 6185 c-17 -20 -5 -32 15 -15 12 10 18 10 30 0 9 -7 18 -10 22 -7 9 10 -18 37 -37 37 -10 0 -23 -7 -30 -15z"/>
<path d="M1510 6145 c-18 -19 -30 -38 -27 -42 8 -7 77 55 77 69 0 16 -17 7 -50 -27z"/>
<path d="M6716 6004 c-9 -24 -7 -52 5 -60 18 -11 30 11 23 44 -7 35 -18 41 -28 16z"/>
<path d="M7395 6000 c-11 -17 5 -32 21 -19 7 6 11 15 8 20 -7 12 -21 11 -29 -1z"/>
<path d="M27754 5999 c-10 -17 13 -36 27 -22 12 12 4 33 -11 33 -5 0 -12 -5 -16 -11z"/>
<path d="M480 5990 c0 -5 5 -10 10 -10 6 0 10 5 10 10 0 6 -4 10 -10 10 -5 0 -10 -4 -10 -10z"/>
<path d="M12804 5979 c-10 -17 13 -36 27 -22 12 12 4 33 -11 33 -5 0 -12 -5 -16 -11z"/>
<path d="M18174 5979 c-10 -17 13 -36 27 -22 12 12 4 33 -11 33 -5 0 -12 -5 -16 -11z"/>
<path d="M2860 5935 c-24 -24 -41 -48 -37 -52 8 -7 97 75 97 89 0 17 -18 6 -60 -37z"/>
<path d="M27540 5970 c0 -5 5 -10 10 -10 6 0 10 5 10 10 0 6 -4 10 -10 10 -5 0 -10 -4 -10 -10z"/>
<path d="M3460 5950 c0 -5 5 -10 10 -10 6 0 10 5 10 10 0 6 -4 10 -10 10 -5 0 -10 -4 -10 -10z"/>
<path d="M7430 5950 c0 -5 7 -10 15 -10 8 0 15 5 15 10 0 6 -7 10 -15 10 -8 0 -15 -4 -15 -10z"/>
<path d="M394 5919 c-10 -17 13 -36 27 -22 12 12 4 33 -11 33 -5 0 -12 -5 -16 -11z"/>
<path d="M7484 5919 c-10 -17 13 -36 27 -22 12 12 4 33 -11 33 -5 0 -12 -5 -16 -11z"/>
<path d="M25415 5921 c-7 -12 12 -24 25 -16 11 7 4 25 -10 25 -5 0 -11 -4 -15 -9z"/>
<path d="M19060 5910 c0 -5 5 -10 10 -10 6 0 10 5 10 10 0 6 -4 10 -10 10 -5 0 -10 -4 -10 -10z"/>
<path d="M21730 5910 c0 -5 7 -10 15 -10 8 0 15 5 15 10 0 6 -7 10 -15 10 -8 0 -15 -4 -15 -10z"/>
<path d="M20834 5899 c-10 -17 13 -36 27 -22 12 12 4 33 -11 33 -5 0 -12 -5 -16 -11z"/>
<path d="M3540 5890 c0 -5 5 -10 10 -10 6 0 10 5 10 10 0 6 -4 10 -10 10 -5 0 -10 -4 -10 -10z"/>
<path d="M12440 5890 c0 -5 5 -10 10 -10 6 0 10 5 10 10 0 6 -4 10 -10 10 -5 0 -10 -4 -10 -10z"/>
<path d="M2780 5870 c0 -5 5 -10 10 -10 6 0 10 5 10 10 0 6 -4 10 -10 10 -5 0 -10 -4 -10 -10z"/>
<path d="M25420 5865 c0 -8 5 -15 10 -15 6 0 10 7 10 15 0 8 -4 15 -10 15 -5 0 -10 -7 -10 -15z"/>
<path d="M24540 5830 c0 -5 5 -10 10 -10 6 0 10 5 10 10 0 6 -4 10 -10 10 -5 0 -10 -4 -10 -10z"/>
<path d="M12195 5820 c-4 -6 -3 -16 3 -22 6 -6 12 -6 17 2 4 6 3 16 -3 22 -6 6 -12 6 -17 -2z"/>
<path d="M26914 5819 c-10 -17 13 -36 27 -22 12 12 4 33 -11 33 -5 0 -12 -5 -16 -11z"/>
<path d="M2780 5810 c0 -5 5 -10 10 -10 6 0 10 5 10 10 0 6 -4 10 -10 10 -5 0 -10 -4 -10 -10z"/>
<path d="M21794 5779 c-10 -17 13 -36 27 -22 12 12 4 33 -11 33 -5 0 -12 -5 -16 -11z"/>
<path d="M220 5770 c0 -5 5 -10 10 -10 6 0 10 5 10 10 0 6 -4 10 -10 10 -5 0 -10 -4 -10 -10z"/>
<path d="M24495 5761 c-7 -12 12 -24 25 -16 11 7 4 25 -10 25 -5 0 -11 -4 -15 -9z"/>
<path d="M794 5739 c-10 -17 13 -36 27 -22 12 12 4 33 -11 33 -5 0 -12 -5 -16 -11z"/>
<path d="M180 5730 c0 -5 5 -10 10 -10 6 0 10 5 10 10 0 6 -4 10 -10 10 -5 0 -10 -4 -10 -10z"/>
<path d="M880 5670 c0 -5 5 -10 10 -10 6 0 10 5 10 10 0 6 -4 10 -10 10 -5 0 -10 -4 -10 -10z"/>
<path d="M24454 5659 c-10 -17 13 -36 27 -22 12 12 4 33 -11 33 -5 0 -12 -5 -16 -11z"/>
<path d="M11830 5625 c-7 -9 -10 -18 -7 -22 8 -7 37 15 37 28 0 14 -16 11 -30 -6z"/>
<path d="M26534 5619 c-10 -17 13 -36 27 -22 12 12 4 33 -11 33 -5 0 -12 -5 -16 -11z"/>
<path d="M17160 5610 c0 -5 5 -10 10 -10 6 0 10 5 10 10 0 6 -4 10 -10 10 -5 0 -10 -4 -10 -10z"/>
<path d="M19720 5610 c0 -5 5 -10 10 -10 6 0 10 5 10 10 0 6 -4 10 -10 10 -5 0 -10 -4 -10 -10z"/>
<path d="M14440 5570 c0 -5 5 -10 10 -10 6 0 10 5 10 10 0 6 -4 10 -10 10 -5 0 -10 -4 -10 -10z"/>
<path d="M29160 5570 c0 -5 5 -10 10 -10 6 0 10 5 10 10 0 6 -4 10 -10 10 -5 0 -10 -4 -10 -10z"/>
<path d="M29194 5539 c-10 -17 13 -36 27 -22 12 12 4 33 -11 33 -5 0 -12 -5 -16 -11z"/>
<path d="M7220 5530 c0 -5 5 -10 10 -10 6 0 10 5 10 10 0 6 -4 10 -10 10 -5 0 -10 -4 -10 -10z"/>
<path d="M11654 5499 c-10 -17 13 -36 27 -22 12 12 4 33 -11 33 -5 0 -12 -5 -16 -11z"/>
<path d="M6940 5490 c0 -5 5 -10 10 -10 6 0 10 5 10 10 0 6 -4 10 -10 10 -5 0 -10 -4 -10 -10z"/>
<path d="M7280 5490 c0 -5 5 -10 10 -10 6 0 10 5 10 10 0 6 -4 10 -10 10 -5 0 -10 -4 -10 -10z"/>
<path d="M14540 5490 c0 -5 5 -10 10 -10 6 0 10 5 10 10 0 6 -4 10 -10 10 -5 0 -10 -4 -10 -10z"/>
<path d="M16977 5485 c-7 -16 8 -29 23 -20 10 6 2 35 -10 35 -4 0 -10 -7 -13 -15z"/>
<path d="M29260 5490 c0 -5 5 -10 10 -10 6 0 10 5 10 10 0 6 -4 10 -10 10 -5 0 -10 -4 -10 -10z"/>
<path d="M24380 5475 c0 -8 5 -15 10 -15 6 0 10 7 10 15 0 8 -4 15 -10 15 -5 0 -10 -7 -10 -15z"/>
<path d="M1775 5471 c-7 -12 12 -24 25 -16 11 7 4 25 -10 25 -5 0 -11 -4 -15 -9z"/>
<path d="M14600 5430 c0 -5 5 -10 10 -10 6 0 10 5 10 10 0 6 -4 10 -10 10 -5 0 -10 -4 -10 -10z"/>
<path d="M1940 5410 c0 -5 5 -10 10 -10 6 0 10 5 10 10 0 6 -4 10 -10 10 -5 0 -10 -4 -10 -10z"/>
<path d="M14640 5410 c0 -5 5 -10 10 -10 6 0 10 5 10 10 0 6 -4 10 -10 10 -5 0 -10 -4 -10 -10z"/>
<path d="M25220 5390 c0 -5 5 -10 10 -10 6 0 10 5 10 10 0 6 -4 10 -10 10 -5 0 -10 -4 -10 -10z"/>
<path d="M8330 5365 c-7 -9 -10 -18 -7 -22 8 -7 37 15 37 28 0 14 -16 11 -30 -6z"/>
<path d="M14680 5370 c0 -5 5 -10 10 -10 6 0 10 5 10 10 0 6 -4 10 -10 10 -5 0 -10 -4 -10 -10z"/>
<path d="M29400 5370 c0 -5 5 -10 10 -10 6 0 10 5 10 10 0 6 -4 10 -10 10 -5 0 -10 -4 -10 -10z"/>
<path d="M14740 5312 c0 -17 38 -44 45 -32 4 6 -1 18 -11 25 -22 16 -34 19 -34 7z"/>
<path d="M24315 5311 c-6 -11 9 -23 19 -14 9 9 7 23 -3 23 -6 0 -12 -4 -16 -9z"/>
<path d="M25175 5310 c-3 -5 -3 -10 1 -10 4 0 -1 -9 -10 -19 -10 -11 -13 -21 -7 -25 11 -7 53 43 45 55 -7 12 -21 11 -29 -1z"/>
<path d="M8614 5299 c-10 -17 13 -36 27 -22 12 12 4 33 -11 33 -5 0 -12 -5 -16 -11z"/>
<path d="M29480 5290 c0 -5 5 -10 10 -10 6 0 10 5 10 10 0 6 -4 10 -10 10 -5 0 -10 -4 -10 -10z"/>
<path d="M2217 5234 c-14 -14 -7 -35 11 -32 9 2 17 10 17 17 0 16 -18 25 -28 15z"/>
<path d="M1437 5223 c-14 -13 -7 -93 8 -99 22 -9 48 15 35 31 -6 7 -8 19 -5 27 6 16 -28 52 -38 41z"/>
<path d="M8720 5210 c0 -5 5 -10 10 -10 6 0 10 5 10 10 0 6 -4 10 -10 10 -5 0 -10 -4 -10 -10z"/>
<path d="M1494 5199 c-10 -17 13 -36 27 -22 12 12 4 33 -11 33 -5 0 -12 -5 -16 -11z"/>
<path d="M18174 5199 c-10 -17 13 -36 27 -22 12 12 4 33 -11 33 -5 0 -12 -5 -16 -11z"/>
<path d="M8040 5190 c0 -5 5 -10 10 -10 6 0 10 5 10 10 0 6 -4 10 -10 10 -5 0 -10 -4 -10 -10z"/>
<path d="M20200 5190 c0 -5 5 -10 10 -10 6 0 10 5 10 10 0 6 -4 10 -10 10 -5 0 -10 -4 -10 -10z"/>
<path d="M24260 5170 c0 -5 5 -10 10 -10 6 0 10 5 10 10 0 6 -4 10 -10 10 -5 0 -10 -4 -10 -10z"/>
<path d="M13540 5150 c0 -5 5 -10 10 -10 6 0 10 5 10 10 0 6 -4 10 -10 10 -5 0 -10 -4 -10 -10z"/>
<path d="M17954 5139 c-10 -17 13 -36 27 -22 12 12 4 33 -11 33 -5 0 -12 -5 -16 -11z"/>
<path d="M20234 5139 c-10 -17 13 -36 27 -22 12 12 4 33 -11 33 -5 0 -12 -5 -16 -11z"/>
<path d="M8820 5130 c0 -5 5 -10 10 -10 6 0 10 5 10 10 0 6 -4 10 -10 10 -5 0 -10 -4 -10 -10z"/>
<path d="M25100 5110 c0 -5 5 -10 10 -10 6 0 10 5 10 10 0 6 -4 10 -10 10 -5 0 -10 -4 -10 -10z"/>
<path d="M27250 5105 c-7 -9 -10 -18 -7 -21 9 -9 48 16 42 27 -9 13 -21 11 -35 -6z"/>
<path d="M4074 5059 c-10 -17 13 -36 27 -22 12 12 4 33 -11 33 -5 0 -12 -5 -16 -11z"/>
<path d="M20320 5030 c0 -5 5 -10 10 -10 6 0 10 5 10 10 0 6 -4 10 -10 10 -5 0 -10 -4 -10 -10z"/>
<path d="M25055 5031 c-7 -12 12 -24 25 -16 11 7 4 25 -10 25 -5 0 -11 -4 -15 -9z"/>
<path d="M4814 4959 c-10 -17 13 -36 27 -22 12 12 4 33 -11 33 -5 0 -12 -5 -16 -11z"/>
<path d="M13940 4950 c0 -5 5 -10 10 -10 6 0 10 5 10 10 0 6 -4 10 -10 10 -5 0 -10 -4 -10 -10z"/>
<path d="M1840 4890 c0 -5 5 -10 10 -10 6 0 10 5 10 10 0 6 -4 10 -10 10 -5 0 -10 -4 -10 -10z"/>
<path d="M8406 4841 c-30 -31 -32 -41 -11 -41 8 0 19 9 25 20 6 11 17 20 25 20 19 0 19 16 1 23 -7 3 -25 -7 -40 -22z"/>
<path d="M6134 4849 c-10 -17 13 -36 27 -22 12 12 4 33 -11 33 -5 0 -12 -5 -16 -11z"/>
<path d="M24974 4849 c-10 -17 13 -36 27 -22 12 12 4 33 -11 33 -5 0 -12 -5 -16 -11z"/>
<path d="M20445 4840 c-4 -6 -3 -16 3 -22 6 -6 12 -6 17 2 4 6 3 16 -3 22 -6 6 -12 6 -17 -2z"/>
<path d="M1994 4819 c-10 -17 13 -36 27 -22 12 12 4 33 -11 33 -5 0 -12 -5 -16 -11z"/>
<path d="M8474 4819 c-10 -17 13 -36 27 -22 12 12 4 33 -11 33 -5 0 -12 -5 -16 -11z"/>
<path d="M3640 4810 c0 -5 5 -10 10 -10 6 0 10 5 10 10 0 6 -4 10 -10 10 -5 0 -10 -4 -10 -10z"/>
<path d="M24095 4801 c-7 -12 12 -24 25 -16 11 7 4 25 -10 25 -5 0 -11 -4 -15 -9z"/>
<path d="M20480 4750 c0 -13 5 -20 13 -17 6 2 12 10 12 17 0 7 -6 15 -12 18 -8 2 -13 -5 -13 -18z"/>
<path d="M24940 4750 c0 -5 5 -10 10 -10 6 0 10 5 10 10 0 6 -4 10 -10 10 -5 0 -10 -4 -10 -10z"/>
<path d="M7480 4730 c0 -5 5 -10 10 -10 6 0 10 5 10 10 0 6 -4 10 -10 10 -5 0 -10 -4 -10 -10z"/>
<path d="M24915 4720 c-10 -17 12 -37 25 -24 8 8 6 15 -4 23 -10 9 -16 9 -21 1z"/>
<path d="M17294 4699 c-10 -17 13 -36 27 -22 12 12 4 33 -11 33 -5 0 -12 -5 -16 -11z"/>
<path d="M19594 4679 c-10 -17 13 -36 27 -22 12 12 4 33 -11 33 -5 0 -12 -5 -16 -11z"/>
<path d="M6100 4670 c0 -5 5 -10 10 -10 6 0 10 5 10 10 0 6 -4 10 -10 10 -5 0 -10 -4 -10 -10z"/>
<path d="M3740 4651 c0 -13 29 -35 37 -28 7 8 -15 37 -28 37 -5 0 -9 -4 -9 -9z"/>
<path d="M2236 4641 c-9 -14 33 -46 45 -34 7 7 2 15 -15 26 -14 9 -27 13 -30 8z"/>
<path d="M1560 4610 c0 -5 5 -10 10 -10 6 0 10 5 10 10 0 6 -4 10 -10 10 -5 0 -10 -4 -10 -10z"/>
<path d="M8140 4610 c0 -5 5 -10 10 -10 6 0 10 5 10 10 0 6 -4 10 -10 10 -5 0 -10 -4 -10 -10z"/>
<path d="M8720 4610 c0 -5 5 -10 10 -10 6 0 10 5 10 10 0 6 -4 10 -10 10 -5 0 -10 -4 -10 -10z"/>
<path d="M5154 4599 c-10 -17 13 -36 27 -22 12 12 4 33 -11 33 -5 0 -12 -5 -16 -11z"/>
<path d="M8100 4570 c0 -5 5 -10 10 -10 6 0 10 5 10 10 0 6 -4 10 -10 10 -5 0 -10 -4 -10 -10z"/>
<path d="M7434 4549 c-10 -17 13 -36 27 -22 12 12 4 33 -11 33 -5 0 -12 -5 -16 -11z"/>
<path d="M3874 4499 c-10 -17 13 -36 27 -22 12 12 4 33 -11 33 -5 0 -12 -5 -16 -11z"/>
<path d="M6020 4470 c0 -5 5 -10 10 -10 6 0 10 5 10 10 0 6 -4 10 -10 10 -5 0 -10 -4 -10 -10z"/>
<path d="M3940 4450 c0 -5 5 -10 10 -10 6 0 10 5 10 10 0 6 -4 10 -10 10 -5 0 -10 -4 -10 -10z"/>
<path d="M20620 4430 c0 -5 5 -10 10 -10 6 0 10 5 10 10 0 6 -4 10 -10 10 -5 0 -10 -4 -10 -10z"/>
<path d="M26500 4430 c0 -5 5 -10 10 -10 6 0 10 5 10 10 0 6 -4 10 -10 10 -5 0 -10 -4 -10 -10z"/>
<path d="M7394 4399 c-10 -17 13 -36 27 -22 12 12 4 33 -11 33 -5 0 -12 -5 -16 -11z"/>
<path d="M980 4390 c0 -5 5 -10 10 -10 6 0 10 5 10 10 0 6 -4 10 -10 10 -5 0 -10 -4 -10 -10z"/>
<path d="M4820 4350 c0 -5 5 -10 10 -10 6 0 10 5 10 10 0 6 -4 10 -10 10 -5 0 -10 -4 -10 -10z"/>
<path d="M21600 4350 c0 -5 5 -10 10 -10 6 0 10 5 10 10 0 6 -4 10 -10 10 -5 0 -10 -4 -10 -10z"/>
<path d="M3000 4310 c0 -5 5 -10 10 -10 6 0 10 5 10 10 0 6 -4 10 -10 10 -5 0 -10 -4 -10 -10z"/>
<path d="M4654 4299 c-10 -17 13 -36 27 -22 12 12 4 33 -11 33 -5 0 -12 -5 -16 -11z"/>
<path d="M21640 4270 c0 -5 5 -10 10 -10 6 0 10 5 10 10 0 6 -4 10 -10 10 -5 0 -10 -4 -10 -10z"/>
<path d="M11700 4230 c0 -5 5 -10 10 -10 6 0 10 5 10 10 0 6 -4 10 -10 10 -5 0 -10 -4 -10 -10z"/>
<path d="M24693 4204 c-8 -21 13 -42 28 -27 13 13 5 43 -11 43 -6 0 -13 -7 -17 -16z"/>
<path d="M3077 4193 c-7 -10 31 -58 40 -50 3 4 0 14 -8 23 -8 10 -13 20 -11 23 5 9 -16 13 -21 4z"/>
<path d="M11676 4192 c-2 -4 0 -14 5 -22 8 -13 10 -13 18 0 10 15 6 30 -9 30 -5 0 -11 -4 -14 -8z"/>
<path d="M7340 4150 c0 -5 5 -10 10 -10 6 0 10 5 10 10 0 6 -4 10 -10 10 -5 0 -10 -4 -10 -10z"/>
<path d="M1620 4130 c0 -5 5 -10 10 -10 6 0 10 5 10 10 0 6 -4 10 -10 10 -5 0 -10 -4 -10 -10z"/>
<path d="M7900 4130 c0 -5 5 -10 10 -10 6 0 10 5 10 10 0 6 -4 10 -10 10 -5 0 -10 -4 -10 -10z"/>
<path d="M11654 4119 c-10 -17 13 -36 27 -22 12 12 4 33 -11 33 -5 0 -12 -5 -16 -11z"/>
<path d="M14534 4119 c-10 -17 13 -36 27 -22 12 12 4 33 -11 33 -5 0 -12 -5 -16 -11z"/>
<path d="M29254 4119 c-10 -17 13 -36 27 -22 12 12 4 33 -11 33 -5 0 -12 -5 -16 -11z"/>
<path d="M24654 4109 c-10 -17 13 -36 27 -22 12 12 4 33 -11 33 -5 0 -12 -5 -16 -11z"/>
<path d="M30100 4036 c0 -19 5 -38 10 -41 6 -4 10 10 10 34 0 23 -4 41 -10 41 -5 0 -10 -15 -10 -34z"/>
<path d="M11636 4032 c-2 -4 0 -14 5 -22 8 -13 10 -13 18 0 10 15 6 30 -9 30 -5 0 -11 -4 -14 -8z"/>
<path d="M29274 4019 c-10 -17 13 -36 27 -22 12 12 4 33 -11 33 -5 0 -12 -5 -16 -11z"/>
<path d="M6355 3980 c-10 -17 12 -37 25 -24 8 8 6 15 -4 23 -10 9 -16 9 -21 1z"/>
<path d="M23735 3961 c-7 -12 12 -24 25 -16 11 7 4 25 -10 25 -5 0 -11 -4 -15 -9z"/>
<path d="M8660 3910 c0 -5 5 -10 10 -10 6 0 10 5 10 10 0 6 -4 10 -10 10 -5 0 -10 -4 -10 -10z"/>
<path d="M24580 3910 c0 -5 5 -10 10 -10 6 0 10 5 10 10 0 6 -4 10 -10 10 -5 0 -10 -4 -10 -10z"/>
<path d="M2640 3890 c0 -5 5 -10 10 -10 6 0 10 5 10 10 0 6 -4 10 -10 10 -5 0 -10 -4 -10 -10z"/>
<path d="M8640 3850 c0 -5 5 -10 10 -10 6 0 10 5 10 10 0 6 -4 10 -10 10 -5 0 -10 -4 -10 -10z"/>
<path d="M7775 3831 c-7 -12 12 -24 25 -16 11 7 4 25 -10 25 -5 0 -11 -4 -15 -9z"/>
<path d="M21874 3799 c-10 -17 13 -36 27 -22 12 12 4 33 -11 33 -5 0 -12 -5 -16 -11z"/>
<path d="M7180 3790 c0 -5 5 -10 10 -10 6 0 10 5 10 10 0 6 -4 10 -10 10 -5 0 -10 -4 -10 -10z"/>
<path d="M8620 3790 c0 -5 5 -10 10 -10 6 0 10 5 10 10 0 6 -4 10 -10 10 -5 0 -10 -4 -10 -10z"/>
<path d="M7760 3750 c0 -5 5 -10 10 -10 6 0 10 5 10 10 0 6 -4 10 -10 10 -5 0 -10 -4 -10 -10z"/>
<path d="M8594 3749 c-10 -17 13 -36 27 -22 12 12 4 33 -11 33 -5 0 -12 -5 -16 -11z"/>
<path d="M2760 3730 c0 -5 5 -10 10 -10 6 0 10 5 10 10 0 6 -4 10 -10 10 -5 0 -10 -4 -10 -10z"/>
<path d="M8580 3670 c0 -5 5 -10 10 -10 6 0 10 5 10 10 0 6 -4 10 -10 10 -5 0 -10 -4 -10 -10z"/>
<path d="M16154 3659 c-10 -17 13 -36 27 -22 12 12 4 33 -11 33 -5 0 -12 -5 -16 -11z"/>
<path d="M24460 3625 c0 -8 5 -15 10 -15 6 0 10 7 10 15 0 8 -4 15 -10 15 -5 0 -10 -7 -10 -15z"/>
<path d="M26340 3630 c0 -5 5 -10 10 -10 6 0 10 5 10 10 0 6 -4 10 -10 10 -5 0 -10 -4 -10 -10z"/>
<path d="M1874 3599 c-10 -17 13 -36 27 -22 12 12 4 33 -11 33 -5 0 -12 -5 -16 -11z"/>
<path d="M15380 3570 c0 -5 5 -10 10 -10 6 0 10 5 10 10 0 6 -4 10 -10 10 -5 0 -10 -4 -10 -10z"/>
<path d="M1274 3559 c-10 -17 13 -36 27 -22 12 12 4 33 -11 33 -5 0 -12 -5 -16 -11z"/>
<path d="M25534 3559 c-10 -17 13 -36 27 -22 12 12 4 33 -11 33 -5 0 -12 -5 -16 -11z"/>
<path d="M7660 3550 c0 -5 5 -10 10 -10 6 0 10 5 10 10 0 6 -4 10 -10 10 -5 0 -10 -4 -10 -10z"/>
<path d="M20720 3530 c0 -5 5 -10 10 -10 6 0 10 5 10 10 0 6 -4 10 -10 10 -5 0 -10 -4 -10 -10z"/>
<path d="M7020 3510 c0 -5 5 -10 10 -10 6 0 10 5 10 10 0 6 -4 10 -10 10 -5 0 -10 -4 -10 -10z"/>
<path d="M24400 3486 c0 -7 -6 -19 -14 -26 -15 -11 -11 -40 4 -40 8 0 30 53 30 71 0 5 -4 9 -10 9 -5 0 -10 -6 -10 -14z"/>
<path d="M30100 3490 c0 -5 5 -10 10 -10 6 0 10 5 10 10 0 6 -4 10 -10 10 -5 0 -10 -4 -10 -10z"/>
<path d="M1314 3479 c-10 -17 13 -36 27 -22 12 12 4 33 -11 33 -5 0 -12 -5 -16 -11z"/>
<path d="M1954 3479 c-10 -17 13 -36 27 -22 12 12 4 33 -11 33 -5 0 -12 -5 -16 -11z"/>
<path d="M8500 3470 c0 -5 5 -10 10 -10 6 0 10 5 10 10 0 6 -4 10 -10 10 -5 0 -10 -4 -10 -10z"/>
<path d="M22040 3470 c0 -5 5 -10 10 -10 6 0 10 5 10 10 0 6 -4 10 -10 10 -5 0 -10 -4 -10 -10z"/>
<path d="M20694 3459 c-10 -17 13 -36 27 -22 12 12 4 33 -11 33 -5 0 -12 -5 -16 -11z"/>
<path d="M3020 3450 c0 -5 9 -10 20 -10 11 0 20 5 20 10 0 6 -9 10 -20 10 -11 0 -20 -4 -20 -10z"/>
<path d="M23500 3390 c0 -5 5 -10 10 -10 6 0 10 5 10 10 0 6 -4 10 -10 10 -5 0 -10 -4 -10 -10z"/>
<path d="M10840 3370 c0 -5 5 -10 10 -10 6 0 10 5 10 10 0 6 -4 10 -10 10 -5 0 -10 -4 -10 -10z"/>
<path d="M24336 3352 c-2 -4 0 -14 5 -22 8 -13 10 -13 18 0 10 15 6 30 -9 30 -5 0 -11 -4 -14 -8z"/>
<path d="M2075 3320 c-11 -17 5 -32 21 -19 7 6 11 15 8 20 -7 12 -21 11 -29 -1z"/>
<path d="M15340 3310 c0 -5 5 -10 10 -10 6 0 10 5 10 10 0 6 -4 10 -10 10 -5 0 -10 -4 -10 -10z"/>
<path d="M2100 3270 c0 -5 5 -10 10 -10 6 0 10 5 10 10 0 6 -4 10 -10 10 -5 0 -10 -4 -10 -10z"/>
<path d="M6814 3259 c-10 -17 13 -36 27 -22 12 12 4 33 -11 33 -5 0 -12 -5 -16 -11z"/>
<path d="M23440 3250 c0 -5 5 -10 10 -10 6 0 10 5 10 10 0 6 -4 10 -10 10 -5 0 -10 -4 -10 -10z"/>
<path d="M7465 3219 c-10 -15 3 -25 16 -12 7 7 7 13 1 17 -6 3 -14 1 -17 -5z"/>
<path d="M23415 3201 c-7 -12 12 -24 25 -16 11 7 4 25 -10 25 -5 0 -11 -4 -15 -9z"/>
<path d="M29176 3201 c-3 -5 1 -14 8 -20 16 -13 32 2 21 19 -8 12 -22 13 -29 1z"/>
<path d="M3440 3190 c0 -5 5 -10 10 -10 6 0 10 5 10 10 0 6 -4 10 -10 10 -5 0 -10 -4 -10 -10z"/>
<path d="M3520 3150 c0 -5 5 -10 10 -10 6 0 10 5 10 10 0 6 -4 10 -10 10 -5 0 -10 -4 -10 -10z"/>
<path d="M15300 3150 c0 -5 5 -10 10 -10 6 0 10 5 10 10 0 6 -4 10 -10 10 -5 0 -10 -4 -10 -10z"/>
<path d="M24260 3150 c0 -5 5 -10 10 -10 6 0 10 5 10 10 0 6 -4 10 -10 10 -5 0 -10 -4 -10 -10z"/>
<path d="M29160 3150 c0 -5 5 -10 10 -10 6 0 10 5 10 10 0 6 -4 10 -10 10 -5 0 -10 -4 -10 -10z"/>
<path d="M30020 3150 c0 -5 5 -10 10 -10 6 0 10 5 10 10 0 6 -4 10 -10 10 -5 0 -10 -4 -10 -10z"/>
<path d="M8340 3130 c0 -5 5 -10 10 -10 6 0 10 5 10 10 0 6 -4 10 -10 10 -5 0 -10 -4 -10 -10z"/>
<path d="M1560 3110 c0 -5 5 -10 10 -10 6 0 10 5 10 10 0 6 -4 10 -10 10 -5 0 -10 -4 -10 -10z"/>
<path d="M5340 3110 c0 -5 5 -10 10 -10 6 0 10 5 10 10 0 6 -4 10 -10 10 -5 0 -10 -4 -10 -10z"/>
<path d="M15274 3109 c-10 -17 13 -36 27 -22 12 12 4 33 -11 33 -5 0 -12 -5 -16 -11z"/>
<path d="M29140 3110 c0 -5 5 -10 10 -10 6 0 10 5 10 10 0 6 -4 10 -10 10 -5 0 -10 -4 -10 -10z"/>
<path d="M23120 3090 c0 -5 5 -10 10 -10 6 0 10 5 10 10 0 6 -4 10 -10 10 -5 0 -10 -4 -10 -10z"/>
<path d="M30000 3090 c0 -5 5 -10 10 -10 6 0 10 5 10 10 0 6 -4 10 -10 10 -5 0 -10 -4 -10 -10z"/>
<path d="M5207 3062 c-10 -10 -14 -22 -10 -25 7 -8 43 21 43 35 0 14 -16 9 -33 -10z"/>
<path d="M24219 3075 c-1 -3 -2 -8 -3 -12 -1 -5 -5 -14 -10 -21 -5 -8 -4 -18 2 -24 7 -7 15 -1 26 20 14 28 13 42 -6 42 -4 0 -9 -2 -9 -5z"/>
<path d="M17134 3059 c-10 -17 13 -36 27 -22 12 12 4 33 -11 33 -5 0 -12 -5 -16 -11z"/>
<path d="M15260 3030 c0 -5 5 -10 10 -10 6 0 10 5 10 10 0 6 -4 10 -10 10 -5 0 -10 -4 -10 -10z"/>
<path d="M23240 3030 c0 -5 5 -10 10 -10 6 0 10 5 10 10 0 6 -4 10 -10 10 -5 0 -10 -4 -10 -10z"/>
<path d="M29980 3030 c0 -5 5 -10 10 -10 6 0 10 5 10 10 0 6 -4 10 -10 10 -5 0 -10 -4 -10 -10z"/>
<path d="M5074 3019 c-10 -17 13 -36 27 -22 12 12 4 33 -11 33 -5 0 -12 -5 -16 -11z"/>
<path d="M680 2990 c0 -5 5 -10 10 -10 6 0 10 5 10 10 0 6 -4 10 -10 10 -5 0 -10 -4 -10 -10z"/>
<path d="M1640 2990 c0 -5 5 -10 10 -10 6 0 10 5 10 10 0 6 -4 10 -10 10 -5 0 -10 -4 -10 -10z"/>
<path d="M8260 2990 c0 -5 5 -10 10 -10 6 0 10 5 10 10 0 6 -4 10 -10 10 -5 0 -10 -4 -10 -10z"/>
<path d="M4920 2970 c0 -5 5 -10 10 -10 6 0 10 5 10 10 0 6 -4 10 -10 10 -5 0 -10 -4 -10 -10z"/>
<path d="M25680 2970 c0 -5 5 -10 10 -10 6 0 10 5 10 10 0 6 -4 10 -10 10 -5 0 -10 -4 -10 -10z"/>
<path d="M20554 2959 c-10 -17 13 -36 27 -22 12 12 4 33 -11 33 -5 0 -12 -5 -16 -11z"/>
<path d="M19640 2915 c-18 -21 -3 -32 16 -13 10 9 12 18 6 22 -5 3 -15 -1 -22 -9z"/>
<path d="M22314 2919 c-10 -17 13 -36 27 -22 12 12 4 33 -11 33 -5 0 -12 -5 -16 -11z"/>
<path d="M17240 2910 c0 -5 5 -10 10 -10 6 0 10 5 10 10 0 6 -4 10 -10 10 -5 0 -10 -4 -10 -10z"/>
<path d="M7220 2890 c0 -5 5 -10 10 -10 6 0 10 5 10 10 0 6 -4 10 -10 10 -5 0 -10 -4 -10 -10z"/>
<path d="M8174 2879 c-10 -17 13 -36 27 -22 12 12 4 33 -11 33 -5 0 -12 -5 -16 -11z"/>
<path d="M20540 2870 c0 -5 5 -10 10 -10 6 0 10 5 10 10 0 6 -4 10 -10 10 -5 0 -10 -4 -10 -10z"/>
<path d="M2500 2850 c0 -5 5 -10 10 -10 6 0 10 5 10 10 0 6 -4 10 -10 10 -5 0 -10 -4 -10 -10z"/>
<path d="M14235 2830 c-25 -27 -10 -39 16 -13 12 11 17 23 11 27 -5 3 -17 -3 -27 -14z"/>
<path d="M16354 2839 c-10 -17 13 -36 27 -22 12 12 4 33 -11 33 -5 0 -12 -5 -16 -11z"/>
<path d="M28955 2830 c-25 -27 -10 -39 16 -13 12 11 17 23 11 27 -5 3 -17 -3 -27 -14z"/>
<path d="M15180 2830 c0 -5 5 -10 10 -10 6 0 10 5 10 10 0 6 -4 10 -10 10 -5 0 -10 -4 -10 -10z"/>
<path d="M29900 2830 c0 -5 5 -10 10 -10 6 0 10 5 10 10 0 6 -4 10 -10 10 -5 0 -10 -4 -10 -10z"/>
<path d="M17320 2810 c0 -5 5 -10 10 -10 6 0 10 5 10 10 0 6 -4 10 -10 10 -5 0 -10 -4 -10 -10z"/>
<path d="M20520 2810 c0 -5 5 -10 10 -10 6 0 10 5 10 10 0 6 -4 10 -10 10 -5 0 -10 -4 -10 -10z"/>
<path d="M11034 2799 c-10 -17 13 -36 27 -22 12 12 4 33 -11 33 -5 0 -12 -5 -16 -11z"/>
<path d="M24095 2791 c-7 -12 12 -24 25 -16 11 7 4 25 -10 25 -5 0 -11 -4 -15 -9z"/>
<path d="M17354 2779 c-10 -17 13 -36 27 -22 12 12 4 33 -11 33 -5 0 -12 -5 -16 -11z"/>
<path d="M14180 2770 c0 -5 5 -10 10 -10 6 0 10 5 10 10 0 6 -4 10 -10 10 -5 0 -10 -4 -10 -10z"/>
<path d="M15140 2750 c0 -5 5 -10 10 -10 6 0 10 5 10 10 0 6 -4 10 -10 10 -5 0 -10 -4 -10 -10z"/>
<path d="M29860 2750 c0 -5 5 -10 10 -10 6 0 10 5 10 10 0 6 -4 10 -10 10 -5 0 -10 -4 -10 -10z"/>
<path d="M14140 2730 c0 -5 5 -10 10 -10 6 0 10 5 10 10 0 6 -4 10 -10 10 -5 0 -10 -4 -10 -10z"/>
<path d="M14200 2730 c0 -5 7 -10 15 -10 8 0 15 5 15 10 0 6 -7 10 -15 10 -8 0 -15 -4 -15 -10z"/>
<path d="M17400 2730 c0 -5 5 -10 10 -10 6 0 10 5 10 10 0 6 -4 10 -10 10 -5 0 -10 -4 -10 -10z"/>
<path d="M28920 2730 c0 -5 5 -10 10 -10 6 0 10 5 10 10 0 6 -4 10 -10 10 -5 0 -10 -4 -10 -10z"/>
<path d="M11080 2710 c0 -5 5 -10 10 -10 6 0 10 5 10 10 0 6 -4 10 -10 10 -5 0 -10 -4 -10 -10z"/>
<path d="M20460 2710 c0 -5 5 -10 10 -10 6 0 10 5 10 10 0 6 -4 10 -10 10 -5 0 -10 -4 -10 -10z"/>
<path d="M14094 2699 c-10 -17 13 -36 27 -22 12 12 4 33 -11 33 -5 0 -12 -5 -16 -11z"/>
<path d="M17445 2700 c-4 -6 -3 -16 3 -22 6 -6 12 -6 17 2 4 6 3 16 -3 22 -6 6 -12 6 -17 -2z"/>
<path d="M15096 2692 c-2 -4 0 -14 5 -22 8 -13 10 -13 18 0 10 15 6 30 -9 30 -5 0 -11 -4 -14 -8z"/>
<path d="M11114 2659 c-10 -17 13 -36 27 -22 12 12 4 33 -11 33 -5 0 -12 -5 -16 -11z"/>
<path d="M2780 2650 c0 -5 5 -10 10 -10 6 0 10 5 10 10 0 6 -4 10 -10 10 -5 0 -10 -4 -10 -10z"/>
<path d="M910 2630 c0 -5 7 -10 15 -10 8 0 15 5 15 10 0 6 -7 10 -15 10 -8 0 -15 -4 -15 -10z"/>
<path d="M25840 2630 c0 -5 5 -10 10 -10 6 0 10 5 10 10 0 6 -4 10 -10 10 -5 0 -10 -4 -10 -10z"/>
<path d="M2840 2610 c0 -5 5 -10 10 -10 6 0 10 5 10 10 0 6 -4 10 -10 10 -5 0 -10 -4 -10 -10z"/>
<path d="M2900 2570 c0 -5 5 -10 10 -10 6 0 10 5 10 10 0 6 -4 10 -10 10 -5 0 -10 -4 -10 -10z"/>
<path d="M28660 2570 c0 -5 5 -10 10 -10 6 0 10 5 10 10 0 6 -4 10 -10 10 -5 0 -10 -4 -10 -10z"/>
<path d="M16517 2553 c-7 -10 31 -58 40 -50 3 4 0 14 -8 23 -8 10 -13 20 -11 23 5 9 -16 13 -21 4z"/>
<path d="M996 2522 c-3 -6 -1 -14 5 -17 15 -10 25 3 12 16 -7 7 -13 7 -17 1z"/>
<path d="M23980 2510 c0 -5 5 -10 10 -10 6 0 10 5 10 10 0 6 -4 10 -10 10 -5 0 -10 -4 -10 -10z"/>
<path d="M25920 2510 c0 -5 5 -10 10 -10 6 0 10 5 10 10 0 6 -4 10 -10 10 -5 0 -10 -4 -10 -10z"/>
<path d="M23955 2480 c-10 -17 12 -37 25 -24 8 8 6 15 -4 23 -10 9 -16 9 -21 1z"/>
<path d="M25954 2479 c-10 -17 13 -36 27 -22 12 12 4 33 -11 33 -5 0 -12 -5 -16 -11z"/>
<path d="M2160 2450 c0 -5 5 -10 10 -10 6 0 10 5 10 10 0 6 -4 10 -10 10 -5 0 -10 -4 -10 -10z"/>
<path d="M11260 2430 c0 -5 5 -10 10 -10 6 0 10 5 10 10 0 6 -4 10 -10 10 -5 0 -10 -4 -10 -10z"/>
<path d="M19020 2430 c0 -5 5 -10 10 -10 6 0 10 5 10 10 0 6 -4 10 -10 10 -5 0 -10 -4 -10 -10z"/>
<path d="M27240 2430 c0 -5 5 -10 10 -10 6 0 10 5 10 10 0 6 -4 10 -10 10 -5 0 -10 -4 -10 -10z"/>
<path d="M17880 2410 c0 -5 5 -10 10 -10 6 0 10 5 10 10 0 6 -4 10 -10 10 -5 0 -10 -4 -10 -10z"/>
<path d="M5651 2386 c-28 -30 -14 -41 18 -15 16 13 21 23 14 30 -6 6 -17 1 -32 -15z"/>
<path d="M16634 2399 c-10 -17 13 -36 27 -22 12 12 4 33 -11 33 -5 0 -12 -5 -16 -11z"/>
<path d="M7814 2379 c-10 -17 13 -36 27 -22 12 12 4 33 -11 33 -5 0 -12 -5 -16 -11z"/>
<path d="M3300 2370 c0 -5 5 -10 10 -10 6 0 10 5 10 10 0 6 -4 10 -10 10 -5 0 -10 -4 -10 -10z"/>
<path d="M18704 2339 c-10 -17 13 -36 27 -22 12 12 4 33 -11 33 -5 0 -12 -5 -16 -11z"/>
<path d="M13380 2330 c0 -5 5 -10 10 -10 6 0 10 5 10 10 0 6 -4 10 -10 10 -5 0 -10 -4 -10 -10z"/>
<path d="M13154 2319 c-10 -17 13 -36 27 -22 12 12 4 33 -11 33 -5 0 -12 -5 -16 -11z"/>
<path d="M3480 2310 c0 -5 5 -10 10 -10 6 0 10 5 10 10 0 6 -4 10 -10 10 -5 0 -10 -4 -10 -10z"/>
<path d="M23900 2310 c0 -5 5 -10 10 -10 6 0 10 5 10 10 0 6 -4 10 -10 10 -5 0 -10 -4 -10 -10z"/>
<path d="M6580 2290 c0 -5 5 -10 10 -10 6 0 10 5 10 10 0 6 -4 10 -10 10 -5 0 -10 -4 -10 -10z"/>
<path d="M29540 2290 c0 -5 5 -10 10 -10 6 0 10 5 10 10 0 6 -4 10 -10 10 -5 0 -10 -4 -10 -10z"/>
<path d="M20114 2259 c-10 -17 13 -36 27 -22 12 12 4 33 -11 33 -5 0 -12 -5 -16 -11z"/>
<path d="M23860 2230 c0 -5 5 -10 10 -10 6 0 10 5 10 10 0 6 -4 10 -10 10 -5 0 -10 -4 -10 -10z"/>
<path d="M1254 2219 c-10 -17 13 -36 27 -22 12 12 4 33 -11 33 -5 0 -12 -5 -16 -11z"/>
<path d="M2480 2190 c0 -5 5 -10 10 -10 6 0 10 5 10 10 0 6 -4 10 -10 10 -5 0 -10 -4 -10 -10z"/>
<path d="M16860 2156 c0 -9 7 -16 16 -16 9 0 14 5 12 12 -6 18 -28 21 -28 4z"/>
<path d="M2594 2139 c-10 -17 13 -36 27 -22 12 12 4 33 -11 33 -5 0 -12 -5 -16 -11z"/>
<path d="M26274 2119 c-10 -17 13 -36 27 -22 12 12 4 33 -11 33 -5 0 -12 -5 -16 -11z"/>
<path d="M16900 2110 c0 -5 5 -10 10 -10 6 0 10 5 10 10 0 6 -4 10 -10 10 -5 0 -10 -4 -10 -10z"/>
<path d="M11700 1990 c0 -5 5 -10 10 -10 6 0 10 5 10 10 0 6 -4 10 -10 10 -5 0 -10 -4 -10 -10z"/>
<path d="M26420 1990 c0 -5 5 -10 10 -10 6 0 10 5 10 10 0 6 -4 10 -10 10 -5 0 -10 -4 -10 -10z"/>
<path d="M26474 1959 c-10 -17 13 -36 27 -22 12 12 4 33 -11 33 -5 0 -12 -5 -16 -11z"/>
<path d="M23740 1930 c0 -5 5 -10 10 -10 6 0 10 5 10 10 0 6 -4 10 -10 10 -5 0 -10 -4 -10 -10z"/>
<path d="M5874 1899 c-10 -17 13 -36 27 -22 12 12 4 33 -11 33 -5 0 -12 -5 -16 -11z"/>
<path d="M23700 1850 c0 -5 5 -10 10 -10 6 0 10 5 10 10 0 6 -4 10 -10 10 -5 0 -10 -4 -10 -10z"/>
<path d="M19574 1839 c-10 -17 13 -36 27 -22 12 12 4 33 -11 33 -5 0 -12 -5 -16 -11z"/>
<path d="M19800 1810 c0 -5 5 -10 10 -10 6 0 10 5 10 10 0 6 -4 10 -10 10 -5 0 -10 -4 -10 -10z"/>
<path d="M5440 1730 c0 -5 5 -10 10 -10 6 0 10 5 10 10 0 6 -4 10 -10 10 -5 0 -10 -4 -10 -10z"/>
<path d="M19400 1730 c0 -5 5 -10 10 -10 6 0 10 5 10 10 0 6 -4 10 -10 10 -5 0 -10 -4 -10 -10z"/>
<path d="M5280 1690 c0 -5 5 -10 10 -10 6 0 10 5 10 10 0 6 -4 10 -10 10 -5 0 -10 -4 -10 -10z"/>
<path d="M19212 1678 c-14 -14 -16 -38 -3 -38 5 0 14 7 21 15 17 20 0 41 -18 23z"/>
<path d="M5045 1660 c-15 -24 17 -38 45 -20 13 9 13 11 0 20 -19 13 -37 13 -45 0z"/>
<path d="M28540 1650 c0 -5 5 -10 10 -10 6 0 10 5 10 10 0 6 -4 10 -10 10 -5 0 -10 -4 -10 -10z"/>
<path d="M17780 1630 c0 -5 5 -10 10 -10 6 0 10 5 10 10 0 6 -4 10 -10 10 -5 0 -10 -4 -10 -10z"/>
<path d="M4684 1619 c-10 -17 13 -36 27 -22 12 12 4 33 -11 33 -5 0 -12 -5 -16 -11z"/>
<path d="M4745 1620 c-4 -6 -3 -16 3 -22 6 -6 12 -6 17 2 4 6 3 16 -3 22 -6 6 -12 6 -17 -2z"/>
<path d="M13394 1559 c-10 -17 13 -36 27 -22 12 12 4 33 -11 33 -5 0 -12 -5 -16 -11z"/>
<path d="M2180 1450 c0 -5 5 -10 10 -10 6 0 10 5 10 10 0 6 -4 10 -10 10 -5 0 -10 -4 -10 -10z"/>
<path d="M6414 1279 c-10 -17 13 -36 27 -22 12 12 4 33 -11 33 -5 0 -12 -5 -16 -11z"/>
<path d="M21250 1280 c-13 -9 -13 -11 0 -20 19 -12 35 -8 35 10 0 18 -16 22 -35 10z"/>
<path d="M6334 1239 c-10 -17 13 -36 27 -22 12 12 4 33 -11 33 -5 0 -12 -5 -16 -11z"/>
<path d="M21215 1201 c-7 -12 12 -24 25 -16 11 7 4 25 -10 25 -5 0 -11 -4 -15 -9z"/>
<path d="M6260 1190 c0 -5 5 -10 10 -10 6 0 10 5 10 10 0 6 -4 10 -10 10 -5 0 -10 -4 -10 -10z"/>
<path d="M6120 1130 c0 -5 5 -10 10 -10 6 0 10 5 10 10 0 6 -4 10 -10 10 -5 0 -10 -4 -10 -10z"/>
<path d="M6054 1119 c-10 -17 13 -36 27 -22 12 12 4 33 -11 33 -5 0 -12 -5 -16 -11z"/>
<path d="M21820 1110 c0 -5 5 -10 10 -10 6 0 10 5 10 10 0 6 -4 10 -10 10 -5 0 -10 -4 -10 -10z"/>
<path d="M22174 1099 c-10 -17 13 -36 27 -22 12 12 4 33 -11 33 -5 0 -12 -5 -16 -11z"/>
<path d="M2900 1090 c0 -5 5 -10 10 -10 6 0 10 5 10 10 0 6 -4 10 -10 10 -5 0 -10 -4 -10 -10z"/>
<path d="M21154 1069 c-10 -17 13 -36 27 -22 12 12 4 33 -11 33 -5 0 -12 -5 -16 -11z"/>
<path d="M5810 1025 c-7 -9 -10 -18 -7 -22 8 -7 37 15 37 28 0 14 -16 11 -30 -6z"/>
<path d="M21120 970 c0 -5 5 -10 10 -10 6 0 10 5 10 10 0 6 -4 10 -10 10 -5 0 -10 -4 -10 -10z"/>
<path d="M5360 910 c0 -5 5 -10 10 -10 6 0 10 5 10 10 0 6 -4 10 -10 10 -5 0 -10 -4 -10 -10z"/>
<path d="M23170 885 c-7 -9 -10 -18 -7 -22 8 -7 37 15 37 28 0 14 -16 11 -30 -6z"/>
<path d="M21015 721 c-7 -12 12 -24 25 -16 11 7 4 25 -10 25 -5 0 -11 -4 -15 -9z"/>
<path d="M22860 590 c0 -5 5 -10 10 -10 6 0 10 5 10 10 0 6 -4 10 -10 10 -5 0 -10 -4 -10 -10z"/>
<path d="M22790 545 c-7 -9 -10 -18 -7 -22 8 -7 37 15 37 28 0 14 -16 11 -30 -6z"/>
<path d="M22870 545 c0 -9 6 -12 15 -9 8 4 15 10 15 15 0 5 -7 9 -15 9 -8 0 -15 -7 -15 -15z"/>
<path d="M22180 350 c0 -5 5 -10 10 -10 6 0 10 5 10 10 0 6 -4 10 -10 10 -5 0 -10 -4 -10 -10z"/>
</g>
</g>
  <g id="id2:id2" transform="matrix(1.25,0,0,1.25,0.0,0.0)"><g transform="translate(0.000000,409.600000) scale(0.040000,-0.040000)" fill="#1c1c1c" stroke="none">
</g>
</g>
  <g id="id3:id3" transform="matrix(1.25,0,0,1.25,0.0,0.0)"><g transform="translate(0.000000,409.600000) scale(0.040000,-0.040000)" fill="#161616" stroke="none">
</g>
</g>
  <g id="id4:id4" transform="matrix(1.25,0,0,1.25,0.0,0.0)"><g transform="translate(0.000000,409.600000) scale(0.040000,-0.040000)" fill="#0d0d0d" stroke="none">
<path d="M4394 10183 c-128 -106 -219 -186 -271 -240 l-53 -54 0 -580 c0 -342 4 -586 9 -597 6 -9 12 -29 16 -44 7 -34 26 -36 58 -5 13 12 77 67 143 122 65 55 133 115 151 133 l32 33 48 -43 c25 -24 72 -67 103 -95 31 -29 60 -53 63 -53 4 0 26 -18 48 -40 23 -22 46 -40 52 -40 6 0 23 -12 38 -26 29 -28 54 -24 44 6 -3 10 -1 21 5 25 7 4 10 201 10 606 l0 600 -86 85 c-48 47 -101 92 -118 101 -17 8 -46 31 -63 49 -18 19 -35 34 -38 34 -3 0 -23 18 -45 40 -22 22 -48 40 -58 40 -10 0 -49 -26 -88 -57z"/>
<path d="M3140 9564 c-38 -27 -85 -66 -193 -161 -39 -35 -74 -63 -79 -63 -4 0 -8 -7 -8 -15 0 -8 -15 -21 -34 -29 -19 -8 -39 -23 -45 -34 -7 -14 -11 -148 -11 -402 0 -417 0 -415 57 -371 119 92 155 121 208 171 33 31 81 70 106 87 l45 31 60 -49 c32 -27 77 -65 99 -84 167 -145 218 -181 233 -162 13 15 17 777 4 777 -4 0 -62 48 -127 106 -128 114 -264 225 -274 223 -3 0 -22 -12 -41 -25z"/>
<path d="M5725 9009 c-22 -16 -64 -52 -92 -79 -29 -28 -55 -50 -57 -50 -3 0 -16 -10 -29 -22 -13 -13 -58 -52 -100 -88 l-76 -65 2 -520 2 -520 21 -3 c22 -3 41 11 239 183 138 120 140 121 168 102 12 -8 96 -78 186 -156 90 -78 169 -141 176 -141 7 0 15 6 18 14 11 29 8 964 -3 971 -8 5 -8 11 1 21 21 25 1 58 -75 122 -40 34 -77 62 -80 62 -3 0 -39 32 -81 72 -135 128 -162 141 -220 97z"/>
<path d="M7014 8517 c-49 -45 -129 -113 -177 -152 -48 -38 -87 -75 -87 -82 0 -7 -9 -17 -20 -23 l-20 -11 0 -384 c0 -267 3 -386 11 -391 7 -4 9 -22 4 -50 -6 -40 -4 -44 15 -44 11 0 23 7 27 15 3 9 24 29 47 44 22 16 61 49 86 73 25 24 63 56 85 72 22 16 59 47 82 69 l43 41 35 -17 c19 -9 35 -21 35 -27 0 -5 26 -28 58 -51 31 -23 82 -65 112 -94 30 -29 64 -55 75 -57 11 -2 24 -13 30 -26 12 -27 41 -38 60 -22 13 11 15 77 15 432 l0 419 -54 50 c-29 27 -82 73 -117 101 -35 28 -100 84 -143 124 -44 41 -86 74 -95 74 -9 -1 -57 -38 -107 -83z"/>
<path d="M1823 8350 c-10 -11 -23 -20 -30 -20 -7 0 -20 -11 -29 -25 -9 -14 -23 -25 -30 -25 -8 0 -14 -4 -14 -9 0 -5 -24 -26 -52 -48 -105 -79 -200 -168 -219 -205 -18 -35 -19 -67 -19 -632 0 -422 3 -597 11 -602 7 -4 9 -25 4 -60 -4 -33 -3 -54 3 -54 6 0 12 6 15 14 3 7 29 27 59 43 29 17 85 62 123 100 39 38 86 78 105 90 20 12 46 33 59 47 31 33 42 32 72 0 57 -63 315 -274 334 -274 19 0 38 27 29 42 -12 19 -14 77 -3 83 6 4 9 228 9 597 l-1 591 -33 38 c-28 33 -120 116 -275 247 -25 20 -54 47 -66 60 -27 27 -31 27 -52 2z"/>
<path d="M4456 8343 c-16 -8 -40 -28 -54 -44 -13 -16 -49 -46 -80 -66 -32 -20 -80 -57 -108 -82 -28 -25 -63 -54 -76 -63 -14 -9 -35 -35 -47 -58 l-21 -41 0 -1459 c0 -1024 3 -1461 11 -1465 6 -4 8 -14 5 -22 -10 -26 50 -140 100 -188 51 -50 98 -77 183 -106 175 -61 377 29 476 212 l40 74 0 1498 0 1499 -18 13 c-24 17 -225 187 -306 258 -36 31 -68 57 -71 57 -3 -1 -18 -8 -34 -17z"/>
<path d="M3110 8151 c-29 -22 -88 -74 -131 -115 -43 -42 -83 -76 -89 -76 -5 0 -10 -4 -10 -9 0 -6 -17 -19 -37 -31 -79 -45 -74 7 -73 -711 0 -455 4 -646 11 -656 9 -9 8 -17 -1 -28 -6 -8 -9 -23 -5 -35 7 -24 40 -27 49 -5 3 9 21 22 40 30 20 8 64 41 98 72 35 32 92 82 128 112 36 30 72 60 81 68 13 11 27 2 100 -62 46 -41 95 -86 109 -100 14 -14 30 -25 34 -25 5 0 35 -25 67 -55 58 -55 92 -68 103 -39 8 20 8 1342 0 1371 -3 12 -25 34 -47 50 -23 15 -71 55 -107 89 -81 77 -189 168 -217 183 -34 17 -47 14 -103 -28z"/>
<path d="M16471 7605 c-44 -41 -85 -75 -91 -75 -5 0 -16 -13 -25 -30 -9 -16 -23 -30 -33 -30 -17 0 -150 -109 -165 -136 -5 -9 -4 -21 2 -28 8 -10 8 -22 1 -41 -6 -15 -7 -33 -2 -39 4 -6 8 -195 7 -421 -10 -3259 -10 -3317 14 -3378 6 -16 11 -41 11 -56 0 -39 53 -241 90 -341 17 -47 34 -94 37 -105 4 -11 17 -37 30 -57 12 -21 23 -44 23 -52 0 -37 228 -394 267 -419 7 -4 13 -15 13 -23 0 -16 224 -243 330 -335 58 -50 131 -102 255 -182 122 -79 356 -185 495 -223 30 -9 60 -19 65 -24 10 -7 78 -23 270 -62 97 -20 141 -22 370 -23 208 0 282 4 370 18 167 29 375 84 400 107 12 12 28 17 41 14 12 -3 50 9 92 30 40 19 89 40 110 47 20 6 48 20 61 30 13 11 30 19 37 19 8 0 22 9 31 20 10 11 25 20 34 20 17 0 168 98 269 175 103 79 316 292 378 377 139 192 182 255 193 287 6 19 31 64 55 99 24 35 44 73 44 86 0 12 5 27 11 33 5 5 11 22 13 37 2 16 7 31 13 34 30 21 145 454 128 482 -4 6 -1 18 6 27 10 11 15 70 17 213 4 206 -8 386 -34 505 -41 189 -167 537 -202 559 -5 3 -8 14 -5 24 2 10 -6 27 -21 41 -14 14 -26 32 -26 40 0 14 -44 86 -91 151 -11 14 -33 45 -51 70 -17 25 -38 49 -45 53 -7 4 -13 14 -13 22 0 8 -11 22 -25 31 -14 9 -25 22 -25 29 0 18 -262 270 -323 311 -29 19 -94 63 -145 99 -51 36 -121 80 -155 97 -34 17 -68 35 -75 41 -31 24 -295 125 -397 152 -295 78 -416 95 -670 95 -146 0 -196 -3 -218 -15 -15 -8 -34 -12 -41 -9 -38 14 -251 -29 -456 -93 -136 -43 -406 -165 -470 -212 -14 -10 -68 -47 -120 -81 -52 -35 -105 -72 -117 -82 l-21 -20 -11 20 c-7 13 -10 314 -11 920 l0 901 -53 53 c-64 67 -341 298 -355 298 -6 0 -47 -34 -91 -75z m2267 -2436 c150 -31 302 -81 362 -119 8 -6 26 -15 40 -20 32 -14 109 -62 201 -127 73 -50 269 -236 269 -253 0 -5 13 -24 28 -42 74 -87 163 -254 205 -383 69 -215 70 -223 71 -460 1 -145 -3 -234 -11 -260 -7 -22 -19 -67 -27 -100 -34 -140 -124 -342 -185 -419 -17 -21 -33 -47 -37 -59 -8 -26 -198 -221 -269 -277 -112 -87 -148 -111 -259 -168 -112 -59 -149 -72 -303 -111 -40 -10 -78 -23 -85 -28 -18 -13 -113 -18 -315 -16 -135 1 -192 6 -265 22 -314 72 -563 204 -763 405 -69 70 -145 159 -145 170 0 11 -73 111 -87 119 -7 4 -13 15 -13 23 0 8 -5 22 -10 32 -42 73 -115 279 -140 397 -18 89 -25 375 -10 460 16 97 56 253 76 300 46 111 118 248 163 312 59 84 237 265 336 343 39 30 129 84 200 120 184 93 197 98 325 121 30 6 65 17 78 25 12 8 26 13 30 10 4 -2 50 -1 102 4 131 12 325 3 438 -21z"/>
<path d="M8399 7641 c-24 -16 -64 -49 -89 -73 -25 -24 -81 -72 -124 -108 -44 -36 -92 -76 -108 -90 l-28 -25 -1 -1100 c-1 -939 1 -1101 14 -1109 16 -10 122 71 229 178 37 36 71 66 76 66 5 0 19 11 32 25 25 26 54 33 66 14 3 -6 72 -63 153 -126 80 -64 156 -126 169 -139 13 -13 29 -25 37 -25 8 -1 20 -2 26 -3 16 -2 13 2200 -4 2222 -19 27 -235 212 -246 212 -6 0 -15 9 -21 20 -6 11 -17 20 -25 20 -8 0 -20 9 -27 20 -7 11 -18 20 -24 20 -6 0 -17 7 -24 15 -18 21 -31 19 -81 -14z"/>
<path d="M11133 7611 c-38 -32 -104 -89 -148 -127 -64 -56 -150 -124 -162 -129 -1 -1 -5 -814 -9 -1808 -5 -1387 -4 -1839 5 -1944 20 -225 62 -420 126 -588 15 -38 33 -87 41 -108 8 -21 25 -54 37 -75 13 -20 27 -48 30 -62 4 -14 22 -49 42 -78 19 -30 35 -59 35 -65 1 -13 92 -143 182 -259 63 -83 271 -287 369 -363 93 -74 176 -129 265 -176 44 -23 90 -49 104 -59 43 -29 209 -96 340 -138 132 -43 212 -63 350 -88 112 -20 524 -31 600 -15 30 7 75 14 100 16 172 17 345 63 550 145 77 31 255 121 314 159 28 17 54 31 58 31 24 0 269 201 378 310 224 224 294 324 448 635 33 66 65 138 72 160 7 22 16 48 21 57 5 10 9 27 9 38 0 11 4 28 9 38 21 42 31 71 41 127 6 33 15 69 19 80 31 75 53 533 32 670 -6 39 -16 102 -21 140 -9 59 -44 203 -80 320 -33 112 -145 350 -219 465 -93 146 -252 343 -298 368 -13 7 -23 18 -23 25 0 12 -77 87 -90 87 -3 0 -20 16 -36 35 -16 20 -42 44 -59 55 -16 11 -57 40 -90 65 -118 90 -199 138 -348 210 -150 72 -354 148 -432 160 -22 4 -58 13 -80 21 -44 15 -223 40 -377 54 -103 8 -368 -3 -390 -17 -7 -4 -47 -9 -89 -10 -43 -1 -97 -9 -120 -17 -24 -8 -72 -20 -106 -27 -35 -6 -68 -17 -74 -25 -6 -7 -16 -11 -22 -8 -14 5 -205 -60 -220 -75 -6 -6 -16 -11 -23 -11 -29 0 -280 -131 -340 -178 -16 -12 -60 -43 -99 -69 -38 -25 -75 -53 -81 -61 -6 -9 -18 -13 -28 -9 -15 6 -16 77 -16 924 0 505 0 923 0 930 0 6 -10 15 -21 18 -12 4 -36 21 -53 39 -18 17 -45 40 -61 50 -17 11 -55 43 -85 71 -121 114 -162 145 -194 145 -9 0 -46 -26 -83 -59z m2097 -2421 c52 -4 136 -15 185 -24 50 -10 100 -19 112 -20 12 -1 28 -7 35 -13 7 -6 27 -14 43 -17 50 -11 300 -141 375 -195 184 -134 338 -314 438 -510 38 -75 80 -167 92 -206 12 -38 26 -74 31 -79 5 -6 9 -29 9 -52 0 -24 6 -71 14 -106 23 -97 30 -244 17 -329 -26 -167 -69 -347 -90 -373 -5 -6 -12 -22 -16 -36 -16 -57 -100 -211 -160 -295 -36 -49 -65 -95 -65 -102 0 -7 -8 -17 -18 -22 -10 -5 -47 -38 -83 -73 -141 -138 -367 -274 -561 -339 -92 -31 -142 -43 -258 -60 -36 -5 -85 -13 -110 -17 -50 -8 -260 2 -355 18 -320 53 -582 189 -812 422 -165 168 -275 343 -344 550 -57 171 -72 296 -66 528 4 141 9 192 21 215 9 17 13 37 10 47 -2 9 0 19 6 23 5 3 10 17 10 31 0 13 4 32 9 42 5 9 13 28 18 42 28 70 80 180 105 218 15 24 28 45 28 47 0 20 116 163 209 256 122 123 198 180 328 249 43 23 83 45 88 50 6 4 56 24 112 43 236 83 406 106 643 87z"/>
<path d="M465 7514 c-22 -15 -59 -46 -84 -70 -24 -24 -48 -44 -52 -44 -10 0 -197 -163 -217 -188 -10 -13 -12 -120 -12 -484 1 -510 1 -505 55 -433 15 19 34 37 44 40 21 6 114 79 222 172 l83 72 60 -51 c34 -28 78 -65 99 -82 20 -17 68 -57 105 -89 37 -31 75 -64 85 -72 21 -19 22 -19 41 1 14 14 16 70 16 469 l0 453 -35 29 c-19 15 -82 69 -140 118 -140 121 -210 178 -222 182 -5 2 -27 -8 -48 -23z"/>
<path d="M5757 7365 c-27 -14 -48 -31 -223 -183 -51 -44 -108 -92 -128 -107 l-36 -27 0 -972 c0 -625 -4 -994 -11 -1036 -21 -136 -85 -289 -165 -396 -49 -66 -155 -163 -239 -217 -97 -64 -111 -70 -200 -98 -38 -12 -74 -25 -80 -29 -5 -3 -77 -7 -160 -9 -130 -2 -162 1 -245 22 -100 26 -301 119 -334 156 -11 12 -25 21 -32 21 -7 0 -17 7 -22 15 -4 9 -35 44 -69 78 -34 36 -75 92 -93 128 -18 35 -40 73 -49 84 -10 11 -25 47 -36 80 -40 131 -45 197 -45 595 l0 385 -42 37 c-24 21 -47 38 -51 38 -4 0 -20 13 -35 29 -58 61 -179 166 -230 198 l-52 34 -55 -36 c-62 -41 -168 -136 -239 -212 -27 -29 -54 -53 -61 -53 -6 0 -21 -10 -33 -23 l-22 -23 0 -378 c0 -390 13 -577 45 -675 8 -25 15 -53 15 -63 0 -29 65 -207 108 -298 44 -92 98 -181 149 -251 18 -24 52 -70 75 -102 50 -70 236 -246 316 -299 31 -21 81 -54 110 -74 30 -20 79 -49 110 -64 118 -57 168 -79 202 -89 19 -5 62 -19 95 -31 129 -45 267 -63 495 -64 214 -1 300 11 465 62 203 63 340 129 520 251 87 59 320 293 391 392 47 64 164 273 164 291 0 9 11 35 24 59 13 24 31 69 41 99 9 30 21 64 26 75 10 24 37 159 51 265 6 45 12 483 14 1084 l4 1008 -47 42 c-25 22 -72 64 -102 91 -31 28 -80 68 -109 90 -28 21 -52 42 -52 45 0 6 -84 70 -92 70 -1 0 -15 -7 -31 -15z"/>
<path d="M7025 7042 c-39 -37 -81 -75 -95 -84 -51 -33 -186 -151 -203 -178 -16 -26 -17 -55 -13 -407 3 -208 6 -402 6 -430 1 -58 19 -71 42 -33 7 11 46 46 87 78 108 83 216 178 244 213 l24 31 55 -53 c69 -68 153 -142 201 -176 20 -14 37 -30 37 -35 0 -4 9 -8 20 -8 11 0 24 -8 27 -17 13 -34 34 -41 57 -17 14 13 16 66 16 430 l0 415 -57 53 c-32 29 -80 72 -108 94 -27 23 -68 57 -90 76 -22 18 -62 52 -88 75 -27 23 -58 41 -71 41 -14 0 -48 -25 -91 -68z"/>
<path d="M1845 6400 c-4 -6 -15 -8 -25 -5 -13 4 -23 -1 -32 -15 -7 -12 -40 -41 -73 -65 -33 -23 -96 -79 -140 -124 -44 -44 -85 -81 -91 -81 -6 0 -20 -10 -32 -23 l-22 -23 0 -417 c0 -266 4 -418 10 -422 6 -3 10 -17 10 -29 0 -13 7 -29 15 -36 13 -11 40 12 177 149 89 88 170 164 181 167 11 4 27 -2 40 -14 12 -10 48 -36 79 -56 31 -20 87 -61 123 -90 37 -30 85 -63 108 -75 37 -20 41 -21 58 -5 18 16 19 40 19 423 0 223 -4 411 -8 418 -4 6 -42 40 -84 75 -125 103 -221 185 -253 216 -39 38 -52 45 -60 32z"/>
<path d="M27827 6004 c-4 -4 -44 -6 -90 -5 -46 0 -106 -3 -133 -9 -27 -5 -80 -12 -119 -15 -38 -3 -99 -13 -135 -22 -36 -8 -83 -19 -105 -23 -58 -11 -287 -91 -306 -107 -8 -7 -23 -13 -32 -13 -23 0 -285 -136 -329 -171 -20 -16 -40 -29 -44 -29 -4 0 -25 -15 -48 -33 -23 -19 -61 -47 -86 -62 -57 -36 -261 -234 -350 -341 -110 -130 -216 -295 -301 -465 -43 -87 -79 -166 -79 -175 0 -8 -6 -27 -13 -42 -7 -15 -26 -74 -41 -132 -15 -58 -34 -127 -41 -155 -49 -180 -54 -608 -8 -840 8 -44 19 -98 23 -120 9 -54 68 -225 86 -253 8 -12 12 -27 9 -32 -3 -5 26 -74 66 -152 79 -158 111 -214 152 -263 15 -18 27 -37 27 -42 0 -6 9 -18 20 -28 11 -10 20 -23 20 -30 0 -7 10 -20 21 -31 12 -10 39 -41 60 -69 81 -108 322 -331 431 -400 8 -5 44 -30 78 -54 113 -79 373 -203 530 -253 276 -88 394 -108 686 -115 183 -4 249 -2 320 10 49 8 114 18 144 22 63 7 237 50 283 70 18 7 66 23 107 35 121 37 406 186 544 285 94 68 272 222 319 276 21 24 65 74 98 110 144 161 309 436 379 632 15 43 31 81 34 84 3 4 6 17 6 29 0 13 5 26 10 29 6 3 10 15 10 26 0 10 4 27 9 37 12 21 37 133 51 222 6 36 12 73 13 82 2 10 6 21 10 24 11 11 8 492 -2 512 -5 9 -14 56 -20 103 -13 96 -51 257 -82 339 -11 30 -27 73 -34 95 -16 48 -91 211 -128 280 -58 106 -168 262 -257 366 -109 126 -339 339 -367 339 -3 0 -13 7 -22 15 -41 38 -89 74 -121 90 -19 10 -49 29 -66 41 -27 21 -112 63 -299 148 -66 30 -131 53 -240 83 -49 13 -110 31 -135 38 -25 8 -85 19 -135 25 -49 6 -117 15 -150 20 -88 13 -220 21 -228 14z m143 -814 c130 -13 362 -68 416 -98 10 -6 51 -26 89 -43 215 -97 440 -291 584 -502 54 -80 138 -247 165 -330 14 -43 29 -84 33 -90 4 -7 9 -27 10 -46 1 -19 5 -41 9 -50 22 -52 26 -387 6 -501 -15 -86 -59 -242 -79 -280 -7 -14 -13 -33 -13 -42 0 -9 -4 -20 -10 -23 -5 -3 -10 -15 -10 -25 0 -10 -11 -32 -25 -48 -14 -17 -25 -33 -25 -38 0 -11 -78 -132 -117 -180 -18 -23 -33 -48 -33 -57 0 -9 -10 -22 -22 -28 -13 -7 -56 -43 -97 -81 -136 -127 -239 -195 -416 -276 -235 -107 -506 -150 -766 -123 -245 26 -438 94 -653 230 -118 74 -338 286 -410 396 -173 262 -246 496 -246 790 1 214 10 278 71 473 104 330 382 647 716 817 50 25 96 52 103 59 6 8 26 14 44 14 19 0 43 5 54 11 33 17 179 51 282 66 113 15 223 17 340 5z"/>
<path d="M474 5981 c-18 -11 -39 -29 -47 -41 -9 -12 -31 -32 -51 -44 -19 -11 -62 -47 -95 -78 -33 -32 -63 -58 -66 -58 -3 0 -13 -8 -24 -17 -10 -10 -33 -31 -52 -47 l-34 -28 -5 -105 c-3 -58 -2 -265 1 -461 5 -273 11 -378 24 -447 9 -49 21 -121 25 -160 8 -72 43 -262 60 -325 5 -19 21 -80 36 -135 29 -111 111 -358 169 -505 38 -99 228 -487 255 -524 9 -12 31 -48 49 -81 48 -88 181 -285 192 -285 5 0 14 -11 19 -24 5 -14 24 -42 42 -63 18 -21 49 -60 68 -88 38 -55 123 -156 186 -220 23 -23 43 -46 45 -51 14 -32 489 -465 564 -514 12 -8 82 -55 154 -105 72 -49 143 -97 158 -105 16 -8 49 -30 74 -47 64 -44 431 -229 559 -282 58 -24 119 -49 135 -56 111 -50 559 -177 720 -204 39 -7 90 -16 114 -22 24 -5 143 -21 265 -35 206 -25 241 -26 521 -21 165 3 336 11 380 17 44 6 130 17 190 25 181 24 237 35 251 46 8 6 20 9 27 6 20 -7 398 91 417 108 9 8 27 15 39 15 32 0 215 63 224 78 4 6 17 12 27 12 10 0 22 5 25 10 3 6 16 10 28 10 12 0 45 13 74 29 28 16 67 31 86 35 19 4 38 13 41 21 3 8 17 15 31 15 14 0 33 9 42 20 10 11 23 20 30 20 17 0 91 38 213 108 308 179 526 338 774 568 173 161 356 350 376 390 8 16 32 44 54 63 63 56 326 422 326 454 0 8 7 20 15 27 17 14 145 226 145 240 0 6 11 27 23 48 35 55 137 272 137 291 0 10 4 21 9 26 14 14 71 157 71 177 0 9 5 20 10 23 5 3 10 17 10 31 0 23 3 33 28 81 7 13 12 32 12 42 0 11 5 23 10 26 5 3 10 15 10 26 0 10 4 27 9 37 16 31 51 158 51 184 0 14 7 39 15 54 8 16 15 40 15 54 0 14 11 72 25 130 14 58 25 126 25 151 l0 47 -106 93 c-244 216 -261 228 -279 200 -3 -6 -25 -23 -48 -39 -64 -43 -214 -171 -221 -187 -3 -8 -10 -15 -16 -15 -5 0 -19 -8 -30 -17 -10 -10 -46 -40 -80 -68 -33 -28 -60 -58 -60 -68 0 -35 -68 -294 -110 -416 -42 -125 -61 -174 -86 -223 -8 -14 -14 -34 -14 -43 0 -9 -8 -29 -19 -43 -10 -15 -22 -38 -26 -52 -4 -14 -16 -37 -26 -52 -11 -14 -19 -33 -19 -42 0 -16 -6 -26 -58 -103 -12 -18 -22 -36 -22 -41 0 -6 -16 -33 -35 -61 -20 -28 -40 -62 -46 -74 -17 -35 -44 -82 -57 -98 -23 -28 -59 -75 -108 -143 -27 -38 -62 -88 -79 -110 -57 -80 -365 -399 -440 -457 -27 -21 -88 -70 -135 -108 -83 -69 -274 -202 -338 -235 -17 -9 -50 -29 -74 -45 -42 -28 -364 -191 -443 -224 -121 -51 -337 -121 -440 -144 -38 -8 -79 -20 -90 -26 -11 -6 -29 -11 -40 -12 -74 -6 -143 -19 -162 -31 -13 -8 -49 -14 -85 -14 -72 0 -226 -18 -249 -30 -30 -15 -515 -5 -669 14 -215 26 -504 83 -609 121 -24 8 -54 15 -67 15 -12 0 -26 4 -29 10 -3 5 -25 14 -48 20 -40 11 -71 22 -204 73 -32 12 -125 55 -208 96 -82 40 -159 77 -170 83 -11 5 -38 20 -60 33 -22 14 -51 30 -65 37 -14 6 -43 26 -65 43 -22 17 -58 42 -80 55 -22 13 -51 32 -65 42 -14 10 -54 40 -90 65 -36 26 -83 62 -105 80 -22 18 -56 45 -75 60 -56 43 -411 404 -435 443 -12 19 -33 46 -47 60 -34 35 -228 314 -228 329 0 4 -13 26 -29 48 -16 22 -37 55 -46 74 -10 19 -24 38 -31 42 -8 4 -14 16 -14 26 0 10 -9 30 -20 44 -11 14 -20 31 -20 38 0 13 -61 148 -100 221 -11 20 -20 42 -20 48 0 5 -9 29 -19 53 -31 67 -91 253 -117 362 -14 55 -29 109 -33 120 -5 11 -9 36 -10 55 -1 19 -6 39 -11 44 -6 6 -10 24 -10 42 0 17 -9 85 -21 150 -21 124 -38 479 -39 816 l0 166 -37 41 c-20 23 -42 41 -49 41 -7 0 -17 6 -21 14 -16 27 -280 256 -295 256 -2 0 -17 -9 -34 -19z"/>
<path d="M20857 5923 c-12 -3 -15 -11 -11 -29 3 -13 70 -153 149 -312 78 -158 238 -480 354 -717 117 -236 221 -446 232 -465 10 -19 38 -73 60 -120 91 -187 210 -427 228 -460 10 -19 27 -53 37 -75 36 -82 103 -216 123 -244 12 -16 21 -34 21 -41 0 -11 247 -516 269 -550 5 -8 21 -40 35 -70 13 -30 115 -237 225 -460 194 -392 231 -477 231 -536 0 -226 -218 -576 -425 -682 -22 -11 -69 -28 -105 -37 -36 -10 -69 -21 -75 -25 -14 -11 -276 -3 -365 10 -41 7 -102 15 -135 20 -98 14 -269 67 -357 111 -32 16 -64 29 -72 29 -22 0 -46 -29 -46 -55 0 -13 -6 -28 -13 -32 -8 -4 -21 -33 -31 -63 -9 -30 -23 -68 -31 -85 -34 -72 -73 -163 -85 -198 -7 -22 -18 -51 -26 -65 -8 -15 -14 -32 -14 -37 0 -6 -9 -28 -20 -50 -23 -45 -26 -78 -7 -92 6 -6 39 -20 72 -32 33 -13 64 -26 70 -31 15 -12 276 -96 375 -121 47 -11 103 -25 125 -31 173 -45 577 -49 745 -8 151 37 375 128 395 160 3 6 21 17 38 25 62 28 97 55 220 168 49 45 100 100 113 123 14 23 36 49 49 58 23 15 107 131 184 256 38 62 241 464 241 478 0 5 11 34 25 64 14 30 38 92 55 138 17 46 37 91 45 100 8 9 15 21 15 26 0 15 68 173 85 197 8 12 15 31 15 42 0 12 12 46 28 76 15 30 37 81 50 114 13 33 28 68 33 77 5 10 9 22 9 28 0 6 11 27 23 48 13 20 26 46 30 57 8 30 65 167 78 189 16 28 89 209 89 221 0 7 11 34 25 61 14 27 25 54 25 60 0 5 5 15 11 21 13 13 79 163 79 180 0 7 9 27 20 45 11 18 20 41 20 51 0 17 14 48 36 77 6 8 19 38 29 65 10 28 37 91 60 140 23 50 50 113 60 140 10 28 35 87 57 133 21 45 38 91 38 102 0 11 9 34 20 52 11 18 20 39 20 46 0 8 8 26 19 40 10 15 38 74 63 132 44 102 130 309 151 360 5 14 18 41 28 61 11 20 19 46 19 57 0 11 6 25 14 32 8 6 27 44 41 83 15 40 40 99 55 132 45 94 70 156 70 170 0 7 22 57 49 111 27 54 72 155 101 224 28 69 58 141 67 160 8 19 24 59 34 89 18 51 18 55 2 73 l-17 19 -418 -3 c-457 -3 -438 -1 -438 -61 0 -16 -9 -40 -20 -54 -11 -14 -20 -33 -20 -42 0 -10 -4 -21 -8 -27 -5 -5 -15 -25 -22 -44 -7 -19 -30 -69 -51 -112 -22 -42 -39 -85 -39 -95 0 -10 -5 -24 -12 -31 -17 -17 -58 -134 -51 -145 3 -5 -6 -21 -20 -35 -13 -15 -30 -44 -37 -65 -7 -22 -18 -51 -26 -65 -8 -15 -14 -34 -14 -42 0 -8 -8 -28 -18 -45 -10 -16 -37 -79 -61 -140 -23 -60 -47 -117 -52 -125 -11 -17 -17 -32 -54 -120 -15 -36 -36 -83 -45 -105 -10 -22 -27 -62 -38 -90 -11 -27 -41 -102 -67 -165 -26 -63 -55 -135 -65 -160 -10 -25 -30 -69 -45 -98 -14 -30 -28 -67 -32 -83 -3 -16 -12 -34 -19 -40 -8 -6 -14 -17 -14 -23 0 -6 -11 -33 -25 -61 -13 -27 -25 -55 -25 -61 0 -12 -60 -150 -84 -194 -7 -14 -24 -54 -36 -90 -12 -36 -32 -85 -44 -110 -12 -25 -31 -70 -41 -100 -11 -30 -23 -59 -27 -64 -4 -6 -8 -18 -8 -28 0 -10 -7 -21 -15 -24 -8 -4 -15 -13 -15 -21 0 -8 -11 -34 -25 -58 -35 -59 -89 -82 -155 -64 -25 7 -53 19 -64 28 -10 9 -40 61 -66 116 -65 136 -134 276 -148 300 -6 11 -31 63 -56 115 -40 88 -90 190 -427 877 -65 133 -121 254 -125 268 -3 14 -10 28 -16 31 -5 3 -40 72 -79 152 -38 81 -74 154 -79 162 -6 8 -19 33 -29 55 -105 226 -290 597 -307 616 -8 8 -14 24 -14 35 0 21 -32 78 -63 112 l-20 22 -426 -1 c-234 -1 -434 -3 -444 -6z"/>
<path d="M7045 5580 c-33 -33 -62 -60 -66 -60 -4 0 -19 -11 -35 -25 -16 -13 -65 -54 -109 -90 -126 -104 -125 -102 -125 -281 0 -113 -5 -177 -20 -249 -11 -53 -20 -110 -20 -126 0 -52 -82 -327 -126 -427 -53 -118 -157 -319 -185 -357 -143 -196 -195 -262 -269 -338 -180 -187 -379 -331 -644 -467 -73 -37 -148 -70 -168 -74 -20 -3 -41 -13 -47 -20 -6 -7 -33 -16 -59 -20 -26 -3 -57 -13 -69 -21 -11 -8 -23 -12 -25 -9 -6 5 -121 -20 -139 -31 -6 -5 -30 -10 -53 -12 -23 -1 -86 -9 -141 -15 -130 -17 -390 -16 -535 0 -145 17 -361 67 -490 114 -99 36 -298 132 -376 181 -28 18 -65 41 -83 52 -18 11 -49 32 -70 47 -20 15 -61 44 -91 65 -63 43 -298 276 -350 347 -19 27 -50 65 -68 86 -17 20 -32 40 -32 44 0 3 -20 35 -45 70 -58 84 -176 320 -210 421 -14 43 -40 114 -57 157 -28 72 -33 78 -57 76 -18 -2 -29 3 -35 17 -5 11 -23 31 -40 43 -17 12 -59 44 -94 70 -35 26 -71 52 -80 57 -59 36 -99 65 -116 84 -11 11 -25 21 -33 21 -19 0 -179 -150 -317 -299 l-59 -64 6 -56 c3 -31 12 -78 21 -106 8 -27 27 -90 40 -139 14 -49 33 -97 41 -106 8 -9 12 -20 9 -23 -6 -6 65 -175 116 -277 57 -114 124 -235 131 -238 5 -2 18 -24 31 -49 12 -24 32 -54 43 -66 11 -12 29 -39 40 -61 11 -21 39 -58 63 -83 23 -24 42 -46 42 -49 0 -25 258 -298 404 -429 142 -126 376 -281 616 -408 30 -16 60 -32 65 -37 6 -4 34 -15 64 -25 30 -10 80 -30 110 -46 31 -15 74 -30 96 -34 22 -4 47 -13 55 -20 8 -8 29 -16 45 -20 17 -3 62 -15 100 -26 379 -109 749 -140 1170 -100 276 27 783 163 835 226 7 8 25 15 40 15 44 0 341 157 498 263 206 139 453 357 578 508 30 36 54 69 54 72 0 4 22 30 49 58 52 55 167 218 243 348 62 103 228 455 228 481 0 6 7 24 15 38 14 26 54 163 59 205 2 12 8 34 14 49 6 15 14 51 18 80 4 29 10 58 14 63 36 46 92 689 64 738 -11 19 -131 126 -199 177 -27 21 -81 67 -120 103 -38 37 -77 67 -85 67 -9 0 -42 -27 -75 -60z"/>
</g>
</g>
</svg>
