<?xml version="1.0" standalone="no"?>
<!DOCTYPE svg PUBLIC "-//W3C//DTD SVG 1.1//EN"
 "http://www.w3.org/Graphics/SVG/1.1/DTD/svg11.dtd">
<!-- Created with svg_stack (http://github.com/astraw/svg_stack) -->
<svg xmlns:sodipodi="http://sodipodi.sourceforge.net/DTD/sodipodi-0.dtd" xmlns="http://www.w3.org/2000/svg" version="1.1" width="682.0" height="432.0">
  <defs/>
  <g id="id0:id0" transform="matrix(1.25,0,0,1.25,0.0,0.0)"><g transform="translate(0.000000,345.600000) scale(0.040000,-0.040000)" fill="#ffffff" stroke="none">
<path d="M518 8580 c-36 -33 -70 -60 -75 -60 -17 -1 -65 -51 -78 -83 -8 -19 -21 -39 -29 -47 -9 -7 -16 -18 -16 -25 0 -7 -8 -23 -18 -36 -11 -13 -22 -46 -25 -73 -4 -27 -13 -56 -20 -64 -42 -51 -41 64 -41 -3592 1 -2587 4 -3485 12 -3545 7 -44 21 -101 32 -127 11 -26 20 -59 20 -73 0 -17 15 -45 40 -75 22 -26 40 -53 40 -59 0 -18 119 -138 153 -154 18 -9 58 -38 89 -65 48 -42 65 -51 110 -57 29 -4 67 -14 83 -23 28 -16 349 -17 4330 -20 3002 -1 4308 1 4325 8 14 6 33 29 44 53 10 23 32 63 47 88 28 44 88 160 109 209 6 14 24 45 40 70 16 25 34 54 39 65 5 11 23 45 41 75 18 30 55 98 81 151 27 53 56 102 64 109 8 7 15 18 15 24 0 6 15 34 33 61 17 28 56 98 85 157 29 59 59 112 67 118 8 6 37 57 66 113 28 56 63 122 76 147 14 25 40 75 59 111 18 36 40 72 49 79 8 7 15 16 15 21 0 4 16 35 35 68 19 32 35 65 35 72 0 7 6 20 14 28 8 9 29 45 46 81 18 36 39 72 46 80 7 8 28 44 47 80 19 36 46 85 59 110 48 86 68 125 68 133 0 5 11 22 25 39 14 16 25 35 25 43 0 7 7 18 15 25 8 7 33 51 56 99 23 47 47 93 54 101 7 8 25 40 41 70 15 30 33 62 40 70 16 21 87 157 104 200 7 19 26 51 42 72 16 20 35 51 44 70 8 18 33 65 55 103 21 39 55 102 75 140 19 39 48 90 64 115 56 88 108 179 116 202 6 21 25 55 91 166 12 21 35 63 52 94 16 31 35 65 40 75 78 144 89 204 46 268 -14 20 -28 50 -32 66 -3 15 -11 30 -19 33 -8 3 -14 14 -14 24 0 11 -9 31 -20 45 -11 14 -20 31 -20 39 0 7 -16 38 -35 67 -20 30 -58 97 -86 150 -28 53 -56 101 -61 108 -10 12 -15 21 -88 158 -23 44 -53 94 -66 112 -13 17 -24 36 -24 41 0 6 -14 36 -30 68 -30 59 -40 76 -71 124 -9 14 -46 82 -82 153 -59 114 -103 188 -158 268 -10 15 -21 38 -24 52 -4 14 -13 28 -20 30 -7 3 -15 22 -19 41 -4 20 -11 36 -15 36 -5 0 -28 38 -51 85 -23 47 -59 111 -79 143 -20 31 -43 73 -51 92 -8 19 -20 39 -27 43 -7 4 -13 16 -13 26 0 10 -7 24 -15 31 -8 6 -17 22 -21 33 -3 12 -12 29 -19 37 -7 8 -28 44 -46 80 -18 36 -38 69 -46 73 -7 4 -13 16 -13 26 0 10 -9 30 -20 44 -11 14 -20 32 -20 40 0 8 -8 25 -17 38 -28 38 -42 62 -53 89 -6 14 -15 34 -22 45 -6 11 -27 48 -45 83 -19 34 -47 83 -63 110 -16 26 -36 61 -45 77 -8 17 -33 62 -54 100 -21 39 -62 115 -90 170 -64 125 -85 162 -104 183 -8 9 -38 62 -67 117 -28 55 -58 107 -66 116 -8 8 -14 21 -14 27 0 14 -38 80 -67 115 -13 16 -23 36 -24 45 0 9 -11 35 -24 57 -13 22 -32 56 -42 75 -10 19 -21 36 -25 38 -7 3 -40 71 -51 105 l-6 17 -4473 0 -4473 0 -67 -60z m1661 -2204 c35 -19 77 -72 121 -157 19 -37 62 -107 96 -156 53 -77 106 -163 154 -251 8 -15 45 -72 81 -127 87 -133 106 -164 123 -201 8 -17 22 -36 30 -44 9 -7 16 -19 16 -26 0 -12 51 -94 119 -190 29 -41 42 -64 81 -141 12 -22 30 -49 41 -59 10 -9 19 -22 19 -28 0 -6 23 -43 50 -81 28 -38 50 -77 50 -86 0 -9 9 -24 20 -34 11 -10 20 -22 20 -27 0 -5 22 -42 49 -83 28 -41 66 -104 86 -139 20 -35 42 -70 50 -76 8 -7 15 -17 15 -22 0 -5 30 -53 68 -108 37 -55 74 -112 82 -128 8 -15 23 -38 33 -52 9 -13 17 -31 17 -38 0 -8 9 -26 21 -40 27 -36 112 -170 132 -208 9 -17 23 -36 31 -43 9 -8 16 -20 16 -28 0 -48 100 -116 121 -82 5 8 9 603 9 1322 0 882 3 1315 10 1328 10 18 24 19 275 19 l264 0 11 -19 c7 -14 9 -590 8 -1818 l-3 -1798 -28 -13 c-22 -11 -89 -14 -285 -13 -141 0 -265 0 -274 1 -24 0 -76 47 -93 84 -9 17 -38 67 -65 111 -27 44 -55 91 -62 105 -7 14 -31 52 -53 84 -55 81 -86 131 -122 196 -16 30 -44 76 -61 101 -18 26 -32 51 -32 57 0 5 -7 16 -16 23 -23 19 -77 104 -123 194 -23 44 -22 42 -103 168 -32 48 -58 92 -58 97 0 6 -5 10 -11 10 -5 0 -17 15 -25 33 -26 53 -49 94 -96 165 -91 137 -108 166 -108 177 0 7 -9 20 -20 30 -11 10 -20 22 -20 27 0 9 -112 181 -135 208 -8 8 -17 29 -21 45 -4 17 -16 36 -26 43 -10 7 -18 18 -18 23 0 5 -22 42 -49 82 -26 40 -62 98 -79 129 -17 32 -39 70 -49 85 -11 16 -24 37 -30 48 -46 78 -68 113 -83 130 -10 11 -30 43 -45 70 -15 28 -35 59 -45 70 -9 11 -20 32 -24 46 -6 28 -29 39 -83 39 -24 0 -34 -5 -35 -17 -2 -10 -3 -121 -3 -248 -2 -1861 -6 -2382 -18 -2399 -12 -17 -34 -18 -263 -17 l-249 1 -22 25 -23 26 0 1758 c0 967 3 1773 6 1790 12 57 28 60 332 61 219 0 279 -3 301 -14z m3603 -8 c20 -35 19 -3598 -1 -3621 -12 -15 -44 -17 -275 -17 l-263 0 -24 26 -24 26 0 1778 0 1778 24 26 24 26 263 0 263 0 13 -22z m1275 0 l23 -21 0 -691 0 -690 22 -23 21 -23 824 0 824 0 24 25 25 24 0 685 0 684 31 26 31 26 259 0 260 0 15 -35 c21 -51 17 -3583 -5 -3608 -12 -15 -44 -17 -273 -17 l-259 0 -29 22 -30 22 0 780 c0 577 -3 788 -12 812 -10 29 -18 34 -52 39 -23 3 -401 5 -842 3 -661 -2 -804 -5 -817 -17 -16 -12 -17 -82 -17 -819 0 -735 -1 -807 -17 -824 -15 -16 -37 -18 -263 -18 -227 0 -250 2 -271 19 -37 30 -34 -182 -28 1958 3 1213 7 1645 15 1653 7 7 35 13 63 14 28 1 54 5 58 9 3 4 94 7 202 7 l195 0 23 -22z"/>
<path d="M10040 8632 c0 -4 4 -12 9 -17 16 -16 71 -124 71 -139 0 -7 7 -19 15 -26 7 -6 25 -33 38 -58 65 -127 110 -209 123 -223 8 -8 14 -19 14 -24 0 -16 82 -167 116 -215 19 -26 34 -54 34 -62 0 -8 7 -23 15 -34 8 -10 24 -37 36 -59 31 -61 54 -102 83 -145 14 -22 26 -45 26 -51 0 -7 11 -27 25 -45 14 -18 29 -43 35 -56 5 -13 14 -30 19 -38 6 -8 20 -37 33 -65 12 -27 32 -63 44 -80 11 -16 24 -38 27 -48 4 -10 27 -51 52 -92 25 -41 45 -79 45 -85 0 -6 11 -28 25 -48 14 -20 25 -40 25 -45 0 -5 11 -23 25 -41 13 -18 31 -51 39 -73 8 -23 30 -63 48 -89 19 -27 56 -94 83 -149 27 -55 59 -114 72 -131 13 -17 39 -64 59 -105 20 -41 44 -83 54 -94 10 -11 21 -31 25 -45 4 -14 16 -36 26 -49 11 -13 19 -27 19 -32 0 -4 23 -47 51 -96 28 -48 66 -119 84 -158 18 -38 48 -92 67 -120 31 -46 78 -136 78 -151 0 -3 8 -18 19 -32 19 -27 77 -133 114 -207 11 -22 26 -47 33 -55 7 -8 27 -42 45 -75 18 -33 45 -80 60 -105 16 -25 37 -61 47 -80 10 -19 43 -80 72 -135 29 -55 66 -122 81 -150 15 -27 42 -78 59 -112 18 -35 36 -65 41 -69 20 -12 8 -74 -26 -134 -19 -34 -35 -64 -35 -66 0 -3 -26 -51 -59 -107 -32 -56 -66 -120 -75 -141 -9 -22 -28 -54 -41 -72 -14 -18 -25 -35 -25 -39 0 -3 -26 -52 -58 -108 -32 -56 -73 -131 -92 -167 -18 -36 -63 -119 -100 -186 -37 -66 -71 -131 -75 -145 -4 -13 -23 -42 -41 -65 -19 -23 -34 -44 -34 -48 0 -4 -15 -34 -34 -65 -19 -32 -37 -69 -41 -82 -4 -13 -18 -37 -30 -54 -12 -16 -32 -52 -46 -80 -26 -53 -78 -146 -116 -207 -13 -21 -23 -42 -23 -47 0 -10 -80 -150 -144 -253 -20 -32 -36 -62 -36 -68 0 -15 -48 -99 -71 -125 -9 -11 -51 -85 -91 -165 -106 -206 -156 -300 -181 -334 -21 -29 -60 -101 -128 -236 -18 -36 -42 -78 -55 -95 -12 -16 -37 -57 -54 -90 -18 -33 -49 -89 -68 -125 -20 -36 -44 -83 -55 -105 -11 -22 -29 -53 -41 -70 -12 -16 -33 -52 -45 -80 -12 -27 -27 -57 -32 -65 -5 -8 -19 -34 -30 -57 -11 -23 -24 -45 -29 -48 -5 -3 -24 -36 -44 -73 -70 -136 -141 -262 -179 -315 -10 -14 -9 -19 2 -26 8 -5 20 -7 28 -4 7 3 20 2 29 -1 15 -6 15 -8 -1 -26 l-17 -19 38 -16 c34 -14 82 -16 354 -13 277 3 319 5 347 20 18 10 46 18 63 18 18 0 43 9 57 20 14 11 33 20 43 20 9 0 25 9 35 20 10 11 26 20 35 20 10 0 29 9 43 20 14 11 32 20 41 20 9 0 36 18 60 40 24 22 48 40 55 40 19 0 90 70 93 93 2 15 12 23 32 27 23 4 32 12 38 36 4 17 17 39 28 49 11 10 20 26 20 35 0 9 11 31 25 50 14 19 25 39 25 46 0 7 16 31 35 54 19 23 35 49 35 57 0 8 9 26 20 40 11 14 20 33 20 43 0 9 9 25 20 35 11 10 20 26 20 35 0 10 9 29 20 43 11 14 20 29 20 35 0 5 16 30 35 55 19 25 35 52 35 59 0 8 11 29 25 48 14 19 25 42 25 52 0 10 7 21 15 24 20 8 65 85 65 111 0 11 11 35 25 54 14 19 33 52 44 74 10 22 30 51 45 64 14 13 32 48 41 77 8 28 31 71 50 94 19 23 35 47 35 53 0 16 40 98 62 126 10 13 18 31 18 41 0 9 9 25 20 35 11 10 20 26 20 35 0 9 9 25 20 35 11 10 40 59 65 110 25 51 52 98 60 105 8 7 15 22 15 35 0 12 9 30 20 40 11 10 20 26 20 35 0 10 8 28 19 41 10 13 22 35 26 49 4 14 21 40 36 58 16 18 29 39 29 46 0 7 9 25 20 39 11 14 20 31 20 39 0 8 11 29 25 48 14 19 25 41 25 50 0 9 9 25 20 35 11 10 20 26 20 35 0 10 8 28 18 41 10 13 24 38 31 56 7 17 23 41 37 54 13 12 24 30 24 40 0 10 11 31 25 47 14 17 25 37 25 45 0 8 9 26 20 40 11 14 20 32 20 40 0 8 8 25 19 38 10 13 21 34 25 46 4 12 20 38 36 58 17 21 30 44 30 51 0 7 18 34 40 59 22 25 40 54 40 64 0 10 7 24 15 31 8 6 21 36 30 66 8 30 29 69 45 88 17 18 30 40 30 48 0 8 11 29 25 48 14 19 25 41 25 50 0 9 9 25 20 35 11 10 20 26 20 35 0 9 11 31 25 50 14 19 25 40 25 47 0 7 14 28 30 46 17 19 30 42 30 52 0 9 11 30 25 47 14 16 25 37 25 45 0 9 6 24 14 32 7 9 16 34 20 57 5 33 2 45 -14 59 -11 10 -20 26 -20 37 0 10 -16 35 -35 57 -19 21 -38 52 -41 69 -4 17 -15 39 -25 48 -11 9 -19 25 -19 34 0 9 -9 25 -20 35 -11 10 -20 28 -20 40 0 12 -9 30 -20 40 -11 10 -20 26 -20 35 0 10 -8 28 -19 41 -10 13 -21 34 -25 46 -4 13 -23 41 -42 64 -19 22 -34 49 -34 59 0 10 -7 23 -15 30 -8 7 -19 29 -25 50 -6 21 -17 41 -25 44 -8 3 -15 14 -15 24 0 11 -8 30 -19 43 -10 13 -21 34 -25 46 -4 13 -23 41 -42 64 -19 22 -34 48 -34 56 0 8 -9 26 -20 40 -11 14 -20 33 -20 43 0 9 -9 25 -20 35 -11 10 -20 28 -20 40 0 12 -9 30 -19 39 -11 10 -22 29 -26 44 -3 14 -22 43 -41 64 -19 21 -34 45 -34 54 0 9 -9 27 -20 41 -11 14 -20 33 -20 43 0 9 -9 25 -20 35 -11 10 -20 28 -20 40 0 12 -9 30 -20 40 -11 10 -20 26 -20 35 0 10 -8 28 -19 41 -10 13 -21 34 -25 46 -4 13 -23 41 -42 64 -19 22 -34 49 -34 58 0 10 -9 26 -20 36 -11 10 -20 28 -20 40 0 12 -9 30 -20 40 -11 10 -20 25 -20 34 0 9 -18 40 -40 70 -22 29 -40 57 -40 62 0 6 -9 22 -20 37 -11 15 -22 45 -24 66 -3 27 -16 50 -40 75 -20 20 -36 44 -36 53 0 9 -18 38 -40 63 -22 25 -40 53 -40 62 0 8 -9 26 -20 40 -11 14 -20 33 -20 43 0 9 -9 25 -20 35 -11 10 -20 28 -20 40 0 12 -9 30 -20 40 -11 10 -20 28 -20 40 0 13 -7 28 -16 35 -8 8 -22 29 -29 48 -8 18 -28 51 -45 72 -16 21 -30 47 -30 59 0 11 -9 25 -20 31 -11 6 -20 21 -20 34 0 13 -9 31 -20 41 -11 10 -20 26 -20 35 0 10 -8 28 -18 41 -10 13 -34 56 -52 94 -18 39 -45 84 -60 102 -16 18 -31 50 -35 73 -5 27 -19 56 -41 80 -19 21 -34 44 -34 52 0 9 -8 26 -18 39 -10 13 -35 58 -54 99 -30 64 -55 96 -161 203 -83 84 -141 134 -169 146 -24 11 -58 33 -76 50 l-33 31 -505 0 c-277 0 -504 -4 -504 -8z"/>
</g>
</g>
  <g id="id1:id1" transform="matrix(1.25,0,0,1.25,0.0,0.0)"><g transform="translate(0.000000,345.600000) scale(0.040000,-0.040000)" fill="#000000" stroke="none">
<path d="M9521 8633 c0 -5 11 -26 24 -48 13 -22 31 -55 39 -73 9 -19 29 -50 44 -70 16 -21 32 -54 36 -75 4 -20 19 -52 35 -70 15 -17 44 -66 65 -107 75 -149 128 -245 146 -265 10 -11 44 -72 76 -135 32 -63 70 -131 86 -151 15 -20 28 -43 28 -52 0 -8 8 -25 18 -38 10 -13 34 -55 52 -92 19 -38 45 -88 57 -112 12 -24 27 -46 32 -50 6 -3 11 -14 11 -24 0 -10 8 -25 18 -34 9 -9 25 -33 36 -54 10 -21 23 -47 29 -58 6 -11 37 -72 70 -135 81 -155 89 -169 121 -217 32 -48 47 -76 101 -183 21 -41 48 -87 60 -102 13 -15 40 -60 59 -100 20 -40 40 -80 45 -88 5 -8 18 -33 28 -55 37 -78 77 -151 102 -184 27 -35 32 -44 120 -219 29 -59 62 -116 71 -127 10 -11 30 -42 45 -70 14 -27 30 -57 34 -65 5 -8 24 -44 41 -80 18 -36 39 -72 46 -81 8 -8 14 -22 14 -31 0 -8 15 -35 33 -59 18 -24 48 -75 67 -112 95 -188 117 -227 136 -249 12 -13 36 -54 54 -93 18 -38 42 -82 52 -97 10 -14 18 -37 18 -51 0 -14 11 -38 24 -54 47 -57 55 -98 29 -148 -6 -11 -16 -31 -22 -45 -6 -14 -15 -32 -20 -40 -5 -8 -14 -26 -20 -40 -6 -14 -15 -32 -19 -40 -25 -44 -43 -79 -60 -115 -11 -22 -30 -54 -43 -70 -13 -17 -35 -52 -48 -80 -13 -27 -28 -57 -33 -65 -4 -8 -17 -33 -29 -55 -35 -69 -55 -103 -81 -137 -21 -28 -46 -75 -116 -217 -7 -14 -17 -33 -23 -41 -5 -8 -18 -33 -28 -55 -10 -22 -29 -54 -42 -70 -14 -17 -30 -41 -37 -55 -6 -14 -16 -32 -21 -40 -5 -8 -24 -46 -43 -83 -39 -80 -59 -116 -81 -151 -10 -14 -17 -30 -17 -37 0 -6 -13 -28 -29 -48 -16 -20 -36 -52 -45 -71 -8 -19 -19 -42 -24 -50 -23 -40 -43 -78 -58 -110 -9 -19 -29 -50 -45 -68 -16 -18 -29 -41 -29 -52 0 -10 -5 -22 -11 -26 -6 -3 -19 -25 -30 -48 -10 -22 -23 -48 -29 -56 -5 -8 -15 -26 -20 -40 -19 -46 -69 -132 -89 -154 -12 -12 -21 -30 -21 -39 0 -9 -4 -19 -10 -22 -5 -3 -28 -44 -50 -90 -22 -46 -44 -86 -49 -89 -5 -3 -12 -18 -16 -33 -4 -16 -22 -47 -41 -70 -19 -23 -34 -47 -34 -53 0 -7 -9 -23 -20 -37 -11 -14 -20 -34 -20 -44 0 -10 -4 -20 -9 -23 -13 -8 -71 -113 -71 -129 0 -7 -11 -28 -25 -47 -14 -19 -25 -41 -25 -50 0 -9 -12 -27 -26 -41 -14 -13 -43 -60 -65 -104 -22 -44 -43 -87 -48 -95 -5 -8 -14 -26 -21 -40 -21 -45 -47 -89 -73 -123 -14 -18 -32 -49 -41 -68 -9 -19 -19 -41 -24 -49 -15 -25 -38 -71 -78 -150 -20 -41 -47 -86 -59 -100 -26 -29 -48 -69 -85 -152 -5 -13 -14 -30 -19 -38 -5 -8 -14 -26 -20 -40 -7 -14 -22 -45 -35 -70 -13 -25 -22 -48 -20 -51 6 -11 -24 -30 -51 -33 -33 -4 -38 -10 -27 -33 5 -10 14 -31 19 -48 6 -22 16 -32 38 -36 17 -4 141 -7 276 -8 244 -1 308 6 359 39 13 8 12 11 -4 23 -13 10 -15 16 -8 21 23 14 11 32 -34 54 -39 19 -44 26 -38 45 8 29 41 82 59 97 8 7 15 22 15 35 0 12 9 30 20 40 11 10 20 25 20 32 0 8 9 26 20 40 11 14 20 32 20 40 0 8 11 28 25 45 14 16 25 37 25 45 0 9 15 34 33 57 19 23 37 58 41 79 4 22 22 54 42 76 19 21 34 47 34 58 0 11 9 28 19 37 11 10 23 31 26 46 3 16 12 34 20 40 7 6 16 23 20 37 3 15 15 38 26 51 10 14 19 30 19 38 0 7 15 32 33 56 43 56 73 107 82 138 4 14 21 42 37 62 15 20 35 57 42 82 8 26 28 62 45 81 17 20 31 42 31 49 0 7 8 24 19 37 10 13 22 35 26 49 4 14 23 44 41 67 19 23 34 50 34 61 0 10 9 27 19 36 10 10 22 34 26 54 4 20 13 44 21 53 9 9 19 29 23 45 4 16 20 35 37 44 17 10 30 26 32 41 2 13 10 31 18 40 8 8 20 37 28 64 8 26 29 65 45 86 17 21 31 44 31 52 0 8 9 22 20 32 11 10 20 23 20 29 0 6 11 28 25 48 14 20 25 45 25 54 0 9 16 36 35 60 19 23 35 49 35 57 0 7 9 22 20 32 11 10 20 27 20 37 0 11 9 31 20 45 11 14 20 32 20 40 0 9 18 38 40 65 22 28 40 58 40 67 0 25 65 149 93 180 14 14 41 60 60 101 19 42 47 90 61 107 14 17 26 40 26 50 0 11 9 28 20 38 11 10 20 25 20 32 0 8 9 26 20 40 11 14 20 33 20 43 0 9 9 25 20 35 11 10 20 26 20 35 0 10 8 28 18 41 10 13 35 58 55 100 20 41 48 86 62 99 14 13 25 34 25 46 0 13 5 26 11 30 6 3 19 25 30 48 28 59 94 180 113 207 9 13 16 29 16 37 0 7 10 26 21 41 28 38 28 102 0 137 -12 15 -21 34 -21 43 0 10 -11 32 -25 51 -14 19 -25 38 -25 43 0 5 -9 20 -20 34 -11 14 -20 32 -20 40 0 8 -9 26 -20 40 -11 14 -20 33 -20 43 0 9 -9 25 -20 35 -11 10 -20 28 -20 40 0 12 -9 30 -20 40 -11 10 -20 25 -20 33 0 9 -9 26 -21 38 -20 21 -64 97 -94 161 -8 17 -26 44 -40 59 -14 15 -28 39 -32 53 -3 14 -14 35 -23 46 -10 11 -21 31 -25 45 -4 14 -16 36 -26 49 -11 13 -19 31 -19 41 0 9 -9 25 -20 35 -11 10 -20 28 -20 40 0 12 -9 30 -20 40 -11 10 -20 28 -20 41 0 13 -9 28 -19 34 -11 5 -50 71 -86 145 -37 74 -73 139 -81 146 -8 6 -14 19 -14 29 0 9 -9 29 -20 43 -11 14 -20 34 -20 46 0 11 -9 25 -20 31 -11 6 -20 20 -20 31 0 11 -18 42 -40 70 -22 28 -40 59 -40 69 0 10 -6 23 -14 29 -8 7 -18 26 -21 42 -4 16 -15 34 -25 39 -18 9 -92 153 -104 200 -3 14 -28 51 -56 83 -34 40 -50 67 -50 86 0 17 -13 45 -31 67 -17 22 -39 58 -49 80 -10 23 -23 45 -29 48 -6 4 -11 17 -11 28 0 12 -11 36 -25 54 -14 18 -25 39 -25 47 0 8 -9 22 -20 32 -11 10 -20 26 -20 36 0 10 -8 26 -19 36 -26 25 -61 93 -61 119 0 11 -9 29 -20 39 -11 10 -20 27 -20 37 0 11 -16 39 -36 61 -19 23 -38 54 -41 69 -3 15 -14 35 -24 44 -11 9 -19 25 -19 34 0 9 -8 25 -19 34 -10 9 -38 56 -62 104 -24 48 -58 105 -76 128 -18 23 -33 47 -33 53 0 7 -8 25 -19 39 -10 15 -22 43 -26 62 -4 19 -18 47 -30 61 -12 15 -41 65 -64 112 -23 47 -49 91 -57 98 -8 6 -14 22 -14 35 0 13 -9 28 -20 34 -13 7 -20 21 -20 40 0 19 -7 33 -20 40 -11 6 -20 21 -20 33 0 12 -12 34 -25 50 l-24 27 -261 0 c-143 0 -260 -3 -259 -7z"/>
<path d="M1855 6400 c-204 -4 -266 -8 -287 -20 l-28 -15 0 -1802 0 -1803 39 -25 39 -26 232 3 232 3 24 28 24 28 0 1310 c0 1448 -6 1332 63 1312 23 -6 33 -16 35 -33 2 -14 17 -40 34 -59 16 -18 35 -45 41 -60 6 -14 26 -44 44 -65 18 -22 33 -45 33 -52 0 -7 11 -26 25 -42 14 -17 25 -39 25 -49 0 -11 11 -30 24 -42 13 -13 41 -57 62 -99 21 -43 56 -98 76 -123 21 -25 38 -52 38 -61 0 -8 9 -23 20 -33 11 -10 20 -27 20 -37 0 -11 22 -45 48 -76 52 -62 112 -156 112 -176 0 -7 9 -21 20 -31 10 -9 31 -40 46 -69 14 -28 32 -58 40 -67 8 -8 14 -21 14 -28 0 -7 18 -33 40 -58 22 -25 40 -53 40 -63 0 -9 9 -25 20 -35 11 -10 20 -27 20 -37 0 -10 23 -46 50 -79 28 -33 56 -75 64 -92 7 -18 20 -38 29 -46 10 -7 17 -21 17 -31 0 -9 9 -25 20 -35 11 -10 20 -28 20 -40 0 -12 9 -30 20 -40 10 -9 29 -35 40 -58 12 -22 39 -61 61 -86 21 -26 39 -53 39 -60 0 -7 16 -31 34 -53 19 -22 38 -53 41 -69 4 -16 11 -31 16 -35 5 -3 15 -20 23 -37 7 -18 30 -52 50 -75 20 -24 36 -48 36 -54 0 -5 9 -21 20 -35 11 -14 20 -32 20 -40 0 -8 16 -33 35 -56 19 -22 35 -46 35 -52 0 -7 16 -33 36 -59 19 -25 40 -60 46 -76 7 -21 24 -37 60 -55 l49 -25 243 1 c229 1 246 2 287 22 l44 22 3 1755 c2 965 0 1778 -3 1806 -11 92 3 87 -288 87 l-256 0 -25 -28 -26 -28 0 -1309 c0 -1178 -2 -1309 -16 -1315 -19 -7 -84 53 -84 79 0 10 -18 41 -40 69 -22 28 -40 55 -40 60 0 5 -18 32 -40 60 -22 28 -40 59 -40 70 0 10 -9 23 -20 29 -13 7 -20 21 -20 40 0 19 -7 33 -20 40 -11 6 -20 20 -20 32 0 11 -21 43 -46 70 -25 27 -54 68 -65 92 -10 24 -26 49 -34 56 -8 7 -15 19 -15 27 0 7 -18 36 -40 64 -22 28 -40 56 -40 63 0 7 -8 20 -18 30 -11 9 -31 41 -46 71 -16 30 -34 59 -42 66 -8 6 -14 22 -14 35 0 13 -9 28 -20 34 -11 6 -20 21 -20 33 0 12 -18 40 -40 63 -21 22 -51 63 -64 91 -14 28 -33 56 -41 63 -8 7 -15 23 -15 36 0 13 -9 28 -20 34 -11 6 -20 20 -20 31 0 12 -23 47 -50 79 -28 32 -57 73 -64 92 -8 19 -22 40 -30 48 -9 7 -16 23 -16 36 0 13 -9 28 -20 34 -11 6 -20 20 -20 31 0 11 -18 42 -40 70 -22 28 -40 55 -40 61 0 6 -18 32 -40 58 -22 26 -40 55 -40 64 0 9 -9 24 -20 33 -11 10 -20 26 -20 36 0 9 -18 40 -40 68 -22 28 -40 55 -40 60 0 5 -18 32 -40 60 -22 28 -40 55 -40 60 0 5 -18 32 -40 61 -22 29 -40 61 -40 70 0 9 -5 20 -11 24 -6 3 -19 25 -29 48 -23 53 -110 139 -147 146 -15 3 -145 3 -288 0z"/>
<path d="M6750 6403 c-63 -2 -119 -8 -124 -13 -6 -6 -31 -10 -57 -10 -27 0 -51 -6 -58 -13 -8 -10 -12 -471 -16 -1668 -2 -910 -5 -1692 -5 -1739 -1 -47 2 -111 5 -142 6 -50 11 -61 38 -80 l32 -23 235 0 235 -1 27 26 28 25 0 800 c1 555 4 803 12 812 8 10 173 13 844 13 l834 0 16 -25 c15 -23 16 -73 15 -493 -1 -257 1 -614 5 -794 6 -287 9 -327 23 -332 9 -4 27 -13 41 -21 21 -12 67 -14 274 -11 136 3 249 6 250 8 1 2 12 24 24 49 l22 46 0 1744 0 1744 -20 30 c-11 17 -20 37 -20 46 0 26 -64 31 -305 23 -272 -8 -280 -11 -290 -107 -4 -34 -5 -342 -2 -684 l4 -621 -19 -31 -20 -31 -822 0 c-694 0 -825 2 -842 14 l-19 14 -5 700 -5 700 -25 20 c-30 23 -126 31 -310 25z"/>
<path d="M5212 6371 l-32 -30 0 -1781 0 -1781 31 -29 c29 -26 40 -29 133 -35 56 -4 172 -5 258 -3 l157 3 25 24 26 24 0 1793 0 1793 -27 26 -28 25 -255 0 -256 0 -32 -29z"/>
</g>
</g>
</svg>
