<?xml version="1.0" standalone="no"?>
<!DOCTYPE svg PUBLIC "-//W3C//DTD SVG 1.1//EN"
 "http://www.w3.org/Graphics/SVG/1.1/DTD/svg11.dtd">
<!-- Created with svg_stack (http://github.com/astraw/svg_stack) -->
<svg xmlns:sodipodi="http://sodipodi.sourceforge.net/DTD/sodipodi-0.dtd" xmlns="http://www.w3.org/2000/svg" version="1.1" width="342.0" height="340.0">
  <defs/>
  <g id="id0:id0" transform="matrix(1.25,0,0,1.25,0.0,0.0)"><g transform="translate(0.000000,272.000000) scale(0.040000,-0.040000)" fill="#781010" stroke="none">
<path d="M3603 6744 c-8 -21 15 -35 47 -27 14 3 27 8 29 10 8 6 -13 20 -42 27 -20 5 -29 2 -34 -10z"/>
<path d="M3493 6663 c-19 -3 -23 -11 -23 -39 0 -26 -5 -36 -22 -43 -110 -43 -163 -70 -177 -90 l-16 -24 35 8 c19 4 49 8 67 10 17 1 39 8 48 15 12 10 21 10 38 1 15 -8 38 -8 77 -2 47 8 57 7 68 -7 11 -15 9 -20 -13 -39 -27 -24 -32 -24 -195 -28 -88 -1 -117 -14 -122 -52 -3 -25 -9 -29 -51 -37 -44 -9 -49 -7 -75 17 -45 43 -59 32 -53 -41 1 -16 -6 -25 -24 -32 -15 -6 -25 -16 -22 -23 6 -18 36 -21 55 -4 23 20 119 29 166 16 l38 -11 32 35 c42 46 88 68 147 71 27 1 55 8 61 14 7 7 40 12 74 12 76 0 103 19 118 81 10 40 13 43 46 44 33 0 35 2 35 35 0 45 -28 60 -117 60 -59 0 -68 3 -85 25 -19 26 -65 38 -110 28z"/>
<path d="M3003 6558 c-6 -7 -10 -38 -9 -68 l1 -55 65 -7 c72 -7 136 6 145 30 9 23 -1 27 -77 29 l-71 2 -18 40 c-20 45 -22 47 -36 29z"/>
<path d="M2835 6423 c-11 -3 -24 -9 -29 -14 -6 -5 -18 -9 -28 -9 -10 0 -18 -4 -18 -10 0 -5 9 -10 19 -10 11 0 23 5 26 10 3 6 14 10 24 10 10 0 32 7 47 15 l29 15 -25 -1 c-14 -1 -34 -3 -45 -6z"/>
<path d="M3375 6224 c-8 -12 -32 -16 -102 -19 -51 -2 -102 -9 -113 -15 -11 -6 -50 -20 -87 -31 -45 -14 -82 -34 -112 -60 -24 -21 -61 -44 -82 -49 -24 -7 -40 -18 -44 -31 -4 -13 -29 -30 -63 -46 -32 -13 -82 -35 -112 -48 -30 -13 -78 -31 -107 -40 -28 -9 -63 -25 -77 -36 -13 -10 -33 -19 -44 -19 -35 0 -230 -86 -333 -147 -33 -19 -70 -33 -90 -33 -27 0 -43 -11 -97 -65 -35 -36 -68 -65 -74 -65 -6 0 -27 -15 -48 -32 -20 -18 -51 -45 -68 -59 l-31 -27 -107 2 -106 1 -30 -37 c-35 -44 -33 -68 5 -86 37 -18 38 -68 1 -103 -19 -17 -24 -31 -20 -50 4 -21 -7 -36 -74 -97 -43 -40 -83 -72 -88 -72 -13 0 -62 -65 -62 -83 0 -7 -11 -24 -25 -37 -14 -13 -25 -31 -25 -40 0 -9 -23 -38 -51 -65 l-52 -49 -73 1 c-87 1 -103 -10 -84 -58 16 -38 1 -60 -26 -38 -14 11 -18 11 -30 -6 -8 -10 -14 -38 -14 -61 0 -29 -8 -55 -24 -78 -21 -31 -39 -83 -106 -296 -16 -54 -40 -74 -61 -53 -8 8 25 135 50 188 5 11 19 52 32 90 13 39 29 77 36 86 8 9 11 23 7 32 -4 10 4 29 20 48 14 17 26 39 26 49 0 10 10 27 23 37 19 15 23 27 23 76 l0 57 -36 0 c-63 1 -125 74 -100 120 6 11 9 29 5 39 -5 16 -10 17 -58 6 -48 -11 -52 -14 -49 -38 2 -18 -4 -31 -18 -39 -12 -8 -20 -23 -20 -39 0 -15 -7 -32 -15 -39 -8 -7 -15 -25 -15 -40 0 -15 -6 -33 -14 -40 -8 -6 -25 -42 -37 -78 -12 -37 -32 -93 -45 -124 -13 -32 -24 -74 -24 -95 0 -21 -9 -51 -20 -68 -11 -16 -20 -38 -20 -47 0 -9 -9 -32 -19 -50 -10 -18 -24 -58 -31 -88 -19 -89 -31 -133 -45 -165 -6 -16 -17 -42 -23 -57 -8 -19 -19 -28 -35 -28 -39 0 -46 -17 -40 -92 6 -65 5 -69 -16 -75 -20 -5 -21 -12 -23 -122 -1 -64 -4 -134 -5 -156 -2 -22 -4 -150 -4 -285 0 -274 14 -401 55 -485 19 -38 24 -60 19 -91 -3 -26 -1 -44 6 -48 6 -4 11 -16 11 -26 0 -25 53 -186 74 -225 9 -16 16 -35 16 -42 0 -6 12 -25 26 -42 14 -17 23 -35 19 -41 -16 -27 203 -419 301 -539 15 -18 40 -52 54 -75 58 -91 502 -529 600 -591 39 -24 110 -99 110 -115 0 -19 74 -92 114 -112 23 -11 50 -28 61 -38 11 -10 99 -71 195 -135 96 -64 184 -125 195 -135 11 -10 31 -21 45 -25 14 -3 40 -13 58 -21 64 -29 146 -45 231 -43 93 1 182 21 201 44 10 11 38 15 125 14 121 -1 149 7 211 61 18 15 50 38 72 50 28 16 46 35 56 60 8 21 33 58 54 83 51 59 88 136 103 218 10 54 9 72 -4 117 -9 28 -27 62 -41 75 -14 12 -37 47 -53 77 -39 78 -114 165 -210 243 -93 77 -101 80 -220 103 -48 9 -101 24 -118 34 -24 14 -53 18 -149 19 l-119 1 -50 31 c-36 22 -58 29 -77 25 -21 -4 -34 2 -56 25 -24 25 -35 29 -81 29 -35 0 -75 9 -113 25 -33 14 -77 25 -99 25 -37 0 -42 3 -61 40 -14 28 -27 40 -42 40 -32 0 -175 152 -205 218 -33 70 -28 86 24 90 l42 3 -6 33 c-10 65 27 56 117 -28 41 -38 71 -56 115 -70 33 -10 87 -31 119 -47 105 -51 88 -10 -29 70 -48 32 -55 71 -15 81 20 5 24 11 22 30 -5 33 -87 123 -126 136 -27 9 -32 17 -39 60 -5 27 -15 53 -23 57 -8 4 -14 20 -14 36 0 36 -56 91 -93 91 -22 0 -33 9 -55 46 -15 26 -37 62 -49 80 -37 57 -80 176 -85 237 -4 54 -3 59 19 68 27 10 30 39 6 75 -11 17 -18 54 -21 107 -2 45 -9 91 -16 102 -6 11 -12 72 -13 135 -4 210 -16 326 -36 348 -17 18 -18 34 -14 144 4 130 29 241 60 276 10 11 17 35 17 57 0 55 33 103 76 111 39 7 53 27 35 48 -14 17 -5 80 13 94 16 13 94 24 100 13 3 -4 -2 -35 -10 -67 -65 -240 -76 -293 -65 -312 7 -13 12 -10 30 19 11 19 21 44 21 56 0 12 5 25 10 28 15 10 56 95 65 135 4 19 18 56 31 82 13 26 24 52 24 58 0 18 41 103 65 135 13 16 30 47 38 67 11 25 24 39 42 44 14 3 42 27 63 53 20 25 67 75 103 111 210 205 280 270 292 270 8 0 22 9 32 20 10 11 28 20 39 20 12 0 37 13 56 30 19 16 47 29 61 30 15 0 32 6 38 14 7 8 38 26 69 41 31 14 64 31 72 36 25 15 101 50 155 69 28 10 91 36 140 58 102 45 183 69 272 82 34 5 90 16 125 25 89 24 510 17 577 -8 24 -9 63 -17 88 -17 65 0 174 -30 206 -57 19 -15 41 -23 65 -23 44 0 202 -62 257 -102 111 -79 185 -128 194 -128 33 0 329 -287 361 -350 11 -21 38 -59 60 -85 47 -54 55 -69 64 -114 3 -19 13 -42 20 -50 23 -26 93 -173 106 -221 6 -25 25 -78 41 -118 32 -78 99 -306 120 -408 18 -87 13 -94 -64 -94 l-64 0 2 -95 c2 -58 8 -101 15 -110 21 -25 24 -471 4 -560 -8 -39 -20 -108 -25 -155 -5 -47 -16 -102 -24 -123 -8 -20 -15 -58 -15 -83 0 -31 -7 -54 -20 -71 -11 -14 -20 -33 -20 -41 0 -19 -19 -81 -31 -102 -5 -8 -27 -51 -49 -95 -22 -44 -51 -98 -64 -120 -13 -22 -33 -58 -44 -80 -11 -22 -33 -57 -51 -79 -17 -21 -31 -43 -31 -48 0 -9 -79 -118 -128 -178 -16 -19 -32 -45 -36 -56 -4 -12 -15 -29 -26 -39 -11 -10 -20 -30 -20 -45 0 -29 -52 -75 -75 -67 -7 3 -46 -28 -90 -74 -72 -74 -77 -81 -71 -113 8 -41 -5 -53 -68 -65 -33 -6 -59 -19 -82 -42 -18 -18 -43 -33 -54 -34 -12 -1 -38 -18 -58 -38 -21 -21 -48 -37 -60 -37 -12 0 -29 -11 -38 -25 -9 -14 -26 -25 -39 -25 -13 0 -39 -18 -66 -48 -24 -26 -65 -66 -91 -88 l-48 -41 33 -34 c22 -24 41 -34 62 -34 28 0 30 -2 33 -44 l3 -43 34 5 c30 5 36 2 47 -21 11 -23 19 -27 54 -26 23 1 45 3 50 7 5 3 36 4 69 3 54 -1 60 -4 63 -24 5 -32 -13 -50 -80 -82 -31 -15 -84 -52 -118 -80 -62 -55 -77 -90 -39 -90 12 0 39 -19 63 -45 47 -49 79 -57 96 -25 8 15 21 20 51 20 22 0 57 9 77 19 20 11 54 28 76 38 21 10 42 29 47 42 8 18 13 21 21 13 20 -20 44 -14 57 14 8 18 17 24 27 20 18 -7 84 46 96 76 6 16 11 17 27 6 17 -10 24 -9 43 9 34 30 63 43 100 43 38 0 52 8 61 33 6 15 15 16 64 11 78 -8 83 -10 83 -37 0 -15 -15 -38 -42 -63 -60 -56 -300 -211 -348 -225 -22 -7 -51 -22 -63 -34 -21 -20 -50 -38 -202 -120 -38 -21 -79 -44 -90 -52 -11 -7 -30 -13 -42 -13 -13 0 -33 -11 -45 -25 -13 -15 -32 -25 -47 -25 -16 0 -31 -8 -39 -21 -9 -13 -19 -18 -32 -14 -12 4 -27 -3 -43 -21 -16 -16 -31 -25 -41 -21 -17 7 -49 -20 -41 -34 9 -14 62 -11 68 4 3 7 24 14 48 16 24 1 48 6 54 11 5 4 33 10 60 13 95 10 155 26 248 66 52 22 123 49 159 61 36 12 74 30 83 41 10 10 25 19 34 19 9 0 25 6 36 14 11 7 42 16 68 18 40 5 57 13 90 46 23 22 54 44 68 47 27 7 51 28 94 81 14 18 38 34 55 38 45 9 135 71 183 127 30 35 52 51 77 56 23 4 50 22 80 52 25 26 69 68 98 94 28 27 52 54 52 61 0 19 64 103 132 171 66 67 241 306 253 345 4 14 15 34 25 45 47 53 103 168 108 218 4 42 12 60 42 93 20 22 45 62 55 90 9 27 28 74 41 105 13 31 24 65 24 75 0 11 9 33 20 49 16 24 20 47 20 115 0 66 5 94 20 123 13 24 20 56 20 92 0 30 6 69 14 87 17 39 66 216 66 238 0 9 9 24 21 33 19 17 20 27 18 190 -2 154 -1 172 14 175 24 5 21 39 -3 45 -18 5 -20 11 -14 44 4 27 0 51 -12 79 -14 30 -20 75 -24 194 -4 85 -13 184 -20 220 -8 36 -14 90 -14 120 -1 51 1 55 24 59 14 1 28 8 32 15 14 21 8 55 -12 66 -13 7 -20 21 -20 40 0 20 -7 33 -21 41 -19 10 -21 17 -16 65 l6 54 -34 0 c-41 0 -42 1 -90 150 -48 148 -63 183 -153 370 -100 207 -166 325 -213 382 -21 26 -39 49 -39 53 0 3 -26 45 -59 93 -56 83 -164 207 -244 281 -21 19 -44 49 -52 68 -11 25 -20 33 -40 33 -18 0 -29 8 -37 25 -11 25 -26 32 -83 37 -21 2 -36 12 -50 35 -11 18 -25 32 -31 33 -6 0 -21 11 -34 25 -13 14 -34 25 -47 25 -12 0 -28 9 -35 20 -10 16 -24 20 -64 20 -45 0 -54 4 -69 26 -9 14 -33 33 -53 43 -20 9 -50 25 -65 35 -22 15 -39 18 -87 13 -52 -4 -62 -3 -71 14 -12 23 -61 25 -80 3 -10 -12 -10 -19 -1 -32 7 -10 15 -25 18 -34 7 -20 20 -23 29 -8 10 16 36 -10 30 -29 -6 -18 5 -26 114 -82 42 -22 81 -46 87 -54 9 -12 18 -13 37 -6 29 11 42 4 26 -15 -7 -9 12 -34 75 -96 47 -46 90 -98 97 -115 6 -18 18 -35 27 -38 29 -9 131 -113 138 -140 9 -35 -1 -55 -28 -55 -16 0 -47 25 -98 79 -41 43 -93 88 -115 99 -22 11 -70 44 -107 74 -37 29 -93 66 -125 83 -32 16 -70 38 -85 47 -14 10 -32 18 -40 18 -8 0 -29 16 -48 35 -19 19 -38 35 -43 35 -9 0 -211 95 -278 131 -20 10 -43 19 -50 19 -8 0 -43 14 -77 30 -35 17 -74 30 -86 30 -12 0 -31 7 -44 15 -12 9 -36 17 -54 19 -58 7 -152 27 -187 42 -18 8 -44 14 -58 14 -13 0 -49 9 -81 19 -34 12 -115 24 -202 30 -176 14 -281 31 -287 48 -7 18 -36 16 -48 -3z m-568 -389 c12 -22 23 -43 23 -47 0 -13 -91 -68 -113 -68 -14 0 -42 -19 -71 -49 -56 -57 -55 -81 4 -51 22 11 50 20 62 20 13 0 33 7 44 15 25 17 34 11 34 -22 0 -14 -7 -26 -17 -29 -31 -9 -47 -20 -51 -34 -3 -9 4 -11 29 -7 19 4 61 8 94 9 50 3 60 0 63 -15 2 -12 -7 -22 -32 -32 -19 -8 -37 -19 -41 -25 -3 -5 -36 -26 -73 -47 -37 -20 -71 -43 -75 -50 -5 -8 -16 -11 -26 -8 -11 3 -25 -3 -36 -15 -10 -11 -24 -20 -30 -20 -7 0 -24 -9 -38 -20 -36 -28 -94 -27 -122 4 -16 17 -29 22 -48 19 -21 -4 -26 -11 -29 -42 -3 -34 -5 -36 -40 -39 -27 -2 -38 -8 -39 -20 -2 -25 -4 -35 -13 -54 -12 -27 -174 -157 -204 -164 -47 -10 -52 -13 -61 -36 -5 -13 -21 -34 -36 -48 -15 -14 -38 -41 -50 -61 -13 -20 -51 -68 -85 -107 -53 -62 -64 -70 -81 -62 -10 6 -19 15 -19 20 0 14 49 84 66 93 8 4 14 17 14 28 0 11 10 30 23 42 12 12 39 43 60 69 22 28 51 51 71 58 30 9 35 17 41 52 8 46 59 128 81 128 8 0 14 7 14 15 0 20 -16 19 -24 -2 -5 -12 -9 -14 -18 -5 -16 16 -10 103 8 123 20 22 17 46 -6 52 -37 10 -24 48 34 105 30 28 60 52 66 52 14 0 71 40 88 63 7 9 22 17 33 17 12 0 32 9 46 20 14 11 33 20 41 20 8 0 30 12 49 26 18 14 75 46 126 71 50 25 105 54 121 66 29 20 79 36 106 33 8 0 25 -19 37 -41z m2491 -84 c42 -35 51 -54 32 -66 -11 -7 -131 96 -124 106 8 13 50 -5 92 -40z m285 -403 c9 -7 25 -34 36 -61 11 -26 28 -50 36 -53 23 -9 59 -84 47 -96 -14 -14 -65 26 -90 70 -11 21 -34 50 -51 66 -52 50 -33 115 22 74z m-3839 -686 c8 -14 -46 -74 -81 -89 -40 -16 -61 -8 -40 15 9 10 17 28 19 42 2 16 12 27 28 31 36 10 68 10 74 1z m3809 -1296 c19 -20 23 -35 22 -86 -1 -66 -10 -80 -56 -80 -39 0 -54 25 -52 84 0 28 -3 59 -8 69 -14 25 -3 37 37 37 24 0 42 -8 57 -24z m-10 -225 c23 -9 25 -14 20 -53 -3 -24 -10 -51 -15 -60 -10 -21 -39 -23 -56 -6 -24 24 -9 128 18 128 5 0 20 -4 33 -9z m-4208 -855 c25 -45 43 -66 58 -68 16 -2 21 -9 19 -24 -1 -12 4 -27 13 -34 23 -19 9 -29 -38 -23 -49 6 -59 14 -76 68 -7 22 -24 54 -37 72 -34 45 -31 73 7 73 12 0 31 -23 54 -64z m3085 -1391 c-1 -13 -48 -26 -55 -15 -7 11 25 31 43 27 7 -1 13 -6 12 -12z"/>
<path d="M2485 5558 c-38 -45 -45 -59 -43 -88 l3 -35 45 1 c25 1 58 7 73 13 16 6 32 11 36 11 11 0 39 32 43 49 2 10 -8 14 -37 15 -37 1 -40 3 -42 31 0 17 -2 36 -2 43 -2 26 -31 10 -76 -40z"/>
<path d="M1957 6013 c-37 -25 -65 -48 -62 -51 11 -11 145 71 145 88 0 16 -12 11 -83 -37z"/>
<path d="M1840 5936 c-134 -71 -177 -102 -196 -138 -8 -15 -29 -35 -47 -44 -17 -8 -72 -57 -122 -107 -49 -51 -116 -115 -149 -144 -58 -51 -67 -75 -30 -81 14 -2 51 29 124 103 58 59 134 130 169 158 35 29 81 74 103 102 41 51 126 121 166 136 12 5 22 13 22 19 0 13 -10 13 -40 -4z"/>
<path d="M1830 5715 c-13 -14 -21 -28 -17 -31 7 -8 67 34 67 47 0 17 -27 9 -50 -16z"/>
<path d="M1241 5681 c-13 -3 -38 -23 -54 -44 l-30 -37 18 -40 c26 -57 51 -54 93 13 36 59 44 118 15 116 -10 -1 -29 -4 -42 -8z"/>
<path d="M1733 5633 c-14 -5 -18 -33 -5 -33 4 0 13 9 20 20 12 20 8 23 -15 13z"/>
<path d="M1052 5128 c-13 -13 -16 -38 -6 -38 8 0 33 32 34 43 0 11 -15 8 -28 -5z"/>
<path d="M3345 5110 c-3 -5 1 -10 10 -10 9 0 13 5 10 10 -3 6 -8 10 -10 10 -2 0 -7 -4 -10 -10z"/>
<path d="M3100 5070 c0 -5 5 -10 10 -10 6 0 10 5 10 10 0 6 -4 10 -10 10 -5 0 -10 -4 -10 -10z"/>
<path d="M3760 5070 c0 -5 14 -10 31 -10 17 0 28 4 24 10 -3 6 -17 10 -31 10 -13 0 -24 -4 -24 -10z"/>
<path d="M2740 4950 c0 -5 5 -10 10 -10 6 0 10 5 10 10 0 6 -4 10 -10 10 -5 0 -10 -4 -10 -10z"/>
<path d="M3840 4550 c0 -5 5 -10 10 -10 6 0 10 5 10 10 0 6 -4 10 -10 10 -5 0 -10 -4 -10 -10z"/>
<path d="M3720 4530 c0 -5 5 -10 10 -10 6 0 10 5 10 10 0 6 -4 10 -10 10 -5 0 -10 -4 -10 -10z"/>
<path d="M3545 4520 c3 -5 8 -10 11 -10 2 0 4 5 4 10 0 6 -5 10 -11 10 -5 0 -7 -4 -4 -10z"/>
<path d="M2160 4510 c0 -5 5 -10 10 -10 6 0 10 5 10 10 0 6 -4 10 -10 10 -5 0 -10 -4 -10 -10z"/>
<path d="M3740 4470 c0 -5 5 -10 10 -10 6 0 10 5 10 10 0 6 -4 10 -10 10 -5 0 -10 -4 -10 -10z"/>
<path d="M3275 4450 c3 -5 10 -10 16 -10 5 0 9 5 9 10 0 6 -7 10 -16 10 -8 0 -12 -4 -9 -10z"/>
<path d="M3580 4430 c0 -11 5 -20 10 -20 6 0 10 9 10 20 0 11 -4 20 -10 20 -5 0 -10 -9 -10 -20z"/>
<path d="M3685 4430 c-3 -5 -1 -10 4 -10 6 0 11 5 11 10 0 6 -2 10 -4 10 -3 0 -8 -4 -11 -10z"/>
<path d="M2950 4410 c0 -5 11 -10 24 -10 14 0 28 5 31 10 4 6 -7 10 -24 10 -17 0 -31 -4 -31 -10z"/>
<path d="M3070 4410 c0 -5 11 -10 25 -10 14 0 25 5 25 10 0 6 -11 10 -25 10 -14 0 -25 -4 -25 -10z"/>
<path d="M3260 4350 c0 -5 5 -10 10 -10 6 0 10 5 10 10 0 6 -4 10 -10 10 -5 0 -10 -4 -10 -10z"/>
<path d="M3020 4310 c0 -5 5 -10 10 -10 6 0 10 5 10 10 0 6 -4 10 -10 10 -5 0 -10 -4 -10 -10z"/>
<path d="M2000 4290 c0 -5 5 -10 10 -10 6 0 10 5 10 10 0 6 -4 10 -10 10 -5 0 -10 -4 -10 -10z"/>
<path d="M3200 4285 c0 -8 5 -15 10 -15 6 0 10 7 10 15 0 8 -4 15 -10 15 -5 0 -10 -7 -10 -15z"/>
<path d="M1966 4231 c-4 -7 -5 -15 -2 -18 9 -9 19 4 14 18 -4 11 -6 11 -12 0z"/>
<path d="M2945 4170 c-4 -6 10 -10 34 -10 22 0 43 5 46 10 4 6 -10 10 -34 10 -22 0 -43 -4 -46 -10z"/>
<path d="M3300 4150 c0 -5 5 -10 10 -10 6 0 10 5 10 10 0 6 -4 10 -10 10 -5 0 -10 -4 -10 -10z"/>
<path d="M3580 4084 c0 -8 5 -12 10 -9 6 3 10 10 10 16 0 5 -4 9 -10 9 -5 0 -10 -7 -10 -16z"/>
<path d="M3780 4064 c0 -8 5 -12 10 -9 6 3 10 10 10 16 0 5 -4 9 -10 9 -5 0 -10 -7 -10 -16z"/>
<path d="M1507 4063 c-2 -5 -8 -26 -11 -48 -7 -35 -6 -38 7 -25 19 19 30 67 18 75 -5 3 -12 2 -14 -2z"/>
<path d="M1880 4050 c0 -5 5 -10 10 -10 6 0 10 5 10 10 0 6 -4 10 -10 10 -5 0 -10 -4 -10 -10z"/>
<path d="M3729 4004 c-12 -14 -11 -16 5 -13 11 2 21 10 24 17 5 17 -13 15 -29 -4z"/>
<path d="M1460 3935 c0 -8 5 -15 10 -15 6 0 10 7 10 15 0 8 -4 15 -10 15 -5 0 -10 -7 -10 -15z"/>
<path d="M3540 3905 c0 -8 5 -15 10 -15 6 0 10 7 10 15 0 8 -4 15 -10 15 -5 0 -10 -7 -10 -15z"/>
<path d="M2940 3876 c0 -36 17 -41 18 -6 0 17 -4 30 -9 30 -5 0 -9 -11 -9 -24z"/>
<path d="M3440 3880 c0 -11 5 -20 10 -20 6 0 10 9 10 20 0 11 -4 20 -10 20 -5 0 -10 -9 -10 -20z"/>
<path d="M5060 3885 c0 -8 5 -15 10 -15 6 0 10 7 10 15 0 8 -4 15 -10 15 -5 0 -10 -7 -10 -15z"/>
<path d="M3780 3850 c0 -5 5 -10 10 -10 6 0 10 5 10 10 0 6 -4 10 -10 10 -5 0 -10 -4 -10 -10z"/>
<path d="M3385 3830 c-3 -5 -2 -10 4 -10 5 0 13 5 16 10 3 6 2 10 -4 10 -5 0 -13 -4 -16 -10z"/>
<path d="M1800 3805 c0 -8 5 -15 10 -15 6 0 10 7 10 15 0 8 -4 15 -10 15 -5 0 -10 -7 -10 -15z"/>
<path d="M3280 3790 c0 -5 14 -10 30 -10 17 0 30 5 30 10 0 6 -13 10 -30 10 -16 0 -30 -4 -30 -10z"/>
<path d="M3100 3739 c0 -11 5 -17 10 -14 6 3 10 13 10 21 0 8 -4 14 -10 14 -5 0 -10 -9 -10 -21z"/>
<path d="M3160 3700 c0 -27 5 -50 10 -50 6 0 10 23 10 50 0 28 -4 50 -10 50 -5 0 -10 -22 -10 -50z"/>
<path d="M3705 3737 c-4 -10 -5 -21 -1 -24 10 -10 18 4 13 24 l-4 18 -8 -18z"/>
<path d="M1760 3565 c0 -25 5 -45 10 -45 6 0 10 20 10 45 0 25 -4 45 -10 45 -5 0 -10 -20 -10 -45z"/>
<path d="M3155 3589 c-4 -6 -5 -13 -2 -16 7 -7 27 6 27 18 0 12 -17 12 -25 -2z"/>
<path d="M3380 3571 c0 -13 29 -35 37 -28 7 8 -15 37 -28 37 -5 0 -9 -4 -9 -9z"/>
<path d="M3350 3510 c0 -5 7 -10 15 -10 8 0 15 5 15 10 0 6 -7 10 -15 10 -8 0 -15 -4 -15 -10z"/>
<path d="M1760 3270 c0 -22 5 -40 10 -40 6 0 10 18 10 40 0 22 -4 40 -10 40 -5 0 -10 -18 -10 -40z"/>
<path d="M1800 3020 c0 -5 5 -10 10 -10 6 0 10 5 10 10 0 6 -4 10 -10 10 -5 0 -10 -4 -10 -10z"/>
<path d="M3150 3010 c0 -5 5 -10 10 -10 6 0 10 5 10 10 0 6 -4 10 -10 10 -5 0 -10 -4 -10 -10z"/>
<path d="M5060 2959 c0 -5 5 -7 10 -4 6 3 10 8 10 11 0 2 -4 4 -10 4 -5 0 -10 -5 -10 -11z"/>
<path d="M2860 2810 c0 -5 5 -10 10 -10 6 0 10 5 10 10 0 6 -4 10 -10 10 -5 0 -10 -4 -10 -10z"/>
<path d="M2820 2770 c0 -5 5 -10 10 -10 6 0 10 5 10 10 0 6 -4 10 -10 10 -5 0 -10 -4 -10 -10z"/>
<path d="M4320 2356 c0 -14 5 -28 10 -31 6 -4 10 7 10 24 0 17 -4 31 -10 31 -5 0 -10 -11 -10 -24z"/>
<path d="M4700 2289 c0 -5 5 -7 10 -4 6 3 10 8 10 11 0 2 -4 4 -10 4 -5 0 -10 -5 -10 -11z"/>
<path d="M4660 2249 c0 -5 5 -7 10 -4 6 3 10 8 10 11 0 2 -4 4 -10 4 -5 0 -10 -5 -10 -11z"/>
<path d="M4620 2209 c0 -5 5 -7 10 -4 6 3 10 8 10 11 0 2 -4 4 -10 4 -5 0 -10 -5 -10 -11z"/>
<path d="M4580 2169 c0 -5 5 -7 10 -4 6 3 10 8 10 11 0 2 -4 4 -10 4 -5 0 -10 -5 -10 -11z"/>
<path d="M2640 1970 c0 -5 5 -10 11 -10 5 0 7 5 4 10 -3 6 -8 10 -11 10 -2 0 -4 -4 -4 -10z"/>
<path d="M3840 650 c0 -5 5 -10 10 -10 6 0 10 5 10 10 0 6 -4 10 -10 10 -5 0 -10 -4 -10 -10z"/>
<path d="M4075 523 c-18 -14 -18 -15 -2 -9 10 3 23 6 28 6 5 0 9 5 9 10 0 14 -12 12 -35 -7z"/>
</g>
</g>
  <g id="id1:id1" transform="matrix(1.25,0,0,1.25,0.0,0.0)"><g transform="translate(0.000000,272.000000) scale(0.040000,-0.040000)" fill="#080808" stroke="none">
<path d="M3606 6744 c-3 -9 -6 -17 -6 -18 0 -2 17 -3 37 -2 27 1 39 6 41 19 3 13 -4 17 -31 17 -23 0 -37 -6 -41 -16z"/>
<path d="M3020 6540 c0 -11 5 -20 10 -20 6 0 10 9 10 20 0 11 -4 20 -10 20 -5 0 -10 -9 -10 -20z"/>
<path d="M3305 6490 c3 -5 13 -10 21 -10 8 0 14 5 14 10 0 6 -9 10 -21 10 -11 0 -17 -4 -14 -10z"/>
<path d="M3480 6430 c0 -5 18 -10 40 -10 22 0 40 5 40 10 0 6 -18 10 -40 10 -22 0 -40 -4 -40 -10z"/>
<path d="M3362 6383 c2 -12 14 -19 36 -21 35 -4 43 12 13 28 -30 16 -53 12 -49 -7z"/>
<path d="M3440 6370 c0 -5 16 -10 35 -10 19 0 35 5 35 10 0 6 -16 10 -35 10 -19 0 -35 -4 -35 -10z"/>
<path d="M3277 6346 c-6 -16 2 -56 12 -56 17 1 53 42 47 55 -7 19 -52 20 -59 1z"/>
<path d="M3146 6311 c-7 -11 46 -31 80 -31 25 0 33 18 12 25 -36 11 -87 14 -92 6z"/>
<path d="M3030 6265 c-10 -12 -9 -16 5 -21 19 -8 40 9 31 25 -10 15 -21 14 -36 -4z"/>
<path d="M3386 6225 c-4 -12 -1 -16 11 -13 18 3 21 20 5 26 -5 1 -12 -4 -16 -13z"/>
<path d="M2120 6099 c0 -5 5 -7 10 -4 6 3 10 8 10 11 0 2 -4 4 -10 4 -5 0 -10 -5 -10 -11z"/>
<path d="M4842 6057 c-12 -13 -22 -29 -22 -35 0 -7 26 -28 58 -48 31 -21 70 -46 87 -58 36 -24 121 -66 135 -66 18 0 11 26 -12 47 -13 12 -42 24 -66 28 -47 8 -66 31 -56 69 5 20 0 27 -24 40 -16 8 -32 22 -35 31 -9 22 -40 18 -65 -8z"/>
<path d="M3660 6031 c-24 -7 -23 -8 15 -19 22 -7 56 -12 76 -12 20 0 56 -9 80 -20 34 -15 66 -20 141 -20 87 0 98 -2 108 -20 13 -24 40 -27 40 -4 0 32 -51 59 -125 66 -38 3 -117 13 -175 22 -117 17 -125 17 -160 7z"/>
<path d="M4238 5903 c3 -18 11 -23 33 -23 18 0 34 -8 41 -20 9 -14 24 -20 50 -20 21 0 38 4 38 8 0 15 -24 32 -45 32 -12 0 -30 9 -39 19 -10 10 -32 21 -50 23 -29 3 -32 1 -28 -19z"/>
<path d="M2870 5865 c-16 -20 -6 -45 19 -45 11 0 23 -4 26 -10 8 -13 42 -13 50 0 8 13 -48 70 -68 70 -8 0 -20 -7 -27 -15z"/>
<path d="M1727 5863 c-10 -9 -9 -23 2 -23 5 0 11 7 15 15 5 15 -5 20 -17 8z"/>
<path d="M5152 5848 c-23 -23 -12 -46 32 -72 24 -14 54 -41 65 -60 35 -57 113 -75 119 -28 4 28 -78 108 -123 120 -16 4 -34 18 -40 30 -11 24 -34 29 -53 10z"/>
<path d="M2800 5840 c0 -5 5 -10 10 -10 6 0 10 5 10 10 0 6 -4 10 -10 10 -5 0 -10 -4 -10 -10z"/>
<path d="M1680 5820 c0 -10 -8 -24 -17 -29 -15 -9 -15 -10 -2 -11 8 0 20 5 27 12 15 15 16 48 2 48 -5 0 -10 -9 -10 -20z"/>
<path d="M2420 5830 c0 -5 5 -10 10 -10 6 0 10 5 10 10 0 6 -4 10 -10 10 -5 0 -10 -4 -10 -10z"/>
<path d="M4560 5783 c0 -23 99 -58 115 -42 16 16 -44 59 -82 59 -25 0 -33 -4 -33 -17z"/>
<path d="M2468 5768 c9 -9 15 -9 24 0 9 9 7 12 -12 12 -19 0 -21 -3 -12 -12z"/>
<path d="M2520 5770 c0 -5 5 -10 10 -10 6 0 10 5 10 10 0 6 -4 10 -10 10 -5 0 -10 -4 -10 -10z"/>
<path d="M2700 5705 c0 -8 9 -15 20 -15 11 0 20 7 20 15 0 8 -9 15 -20 15 -11 0 -20 -7 -20 -15z"/>
<path d="M3357 5713 c-17 -17 -5 -33 24 -33 24 0 30 3 25 16 -3 9 -6 18 -6 20 0 7 -36 5 -43 -3z"/>
<path d="M2350 5690 c0 -5 11 -10 25 -10 14 0 25 5 25 10 0 6 -11 10 -25 10 -14 0 -25 -4 -25 -10z"/>
<path d="M3195 5670 c-3 -6 5 -10 19 -10 14 0 28 5 31 10 3 6 -5 10 -19 10 -14 0 -28 -4 -31 -10z"/>
<path d="M1473 5630 c-35 -32 -42 -50 -19 -50 15 0 66 55 66 71 0 16 -14 10 -47 -21z"/>
<path d="M2270 5650 c0 -5 9 -10 20 -10 11 0 20 5 20 10 0 6 -9 10 -20 10 -11 0 -20 -4 -20 -10z"/>
<path d="M2680 5650 c0 -5 5 -10 10 -10 6 0 10 5 10 10 0 6 -4 10 -10 10 -5 0 -10 -4 -10 -10z"/>
<path d="M4830 5637 c0 -17 53 -65 84 -77 12 -4 53 -31 91 -60 39 -28 78 -56 88 -62 56 -30 -51 80 -129 133 -12 7 -37 26 -55 40 -44 34 -79 46 -79 26z"/>
<path d="M2620 5630 c0 -5 5 -10 10 -10 6 0 10 5 10 10 0 6 -4 10 -10 10 -5 0 -10 -4 -10 -10z"/>
<path d="M3055 5635 c-5 -2 -22 -6 -37 -9 -39 -9 -35 -26 5 -26 30 1 67 19 67 34 0 6 -17 7 -35 1z"/>
<path d="M2172 5588 c-17 -17 -15 -28 7 -28 16 0 31 18 31 36 0 9 -27 3 -38 -8z"/>
<path d="M2536 5574 c-3 -8 -10 -12 -16 -9 -6 3 -14 -3 -18 -15 -4 -12 -19 -27 -32 -33 -29 -15 -37 -48 -16 -66 19 -16 112 -11 109 6 -2 7 6 17 17 23 26 14 25 28 -2 32 -20 3 -23 8 -20 41 4 37 -11 51 -22 21z"/>
<path d="M1360 5510 c0 -5 5 -10 10 -10 6 0 10 5 10 10 0 6 -4 10 -10 10 -5 0 -10 -4 -10 -10z"/>
<path d="M2860 5510 c0 -5 5 -10 10 -10 6 0 10 5 10 10 0 6 -4 10 -10 10 -5 0 -10 -4 -10 -10z"/>
<path d="M1255 5424 c-51 -56 -68 -89 -43 -82 22 5 120 116 113 127 -10 17 -17 13 -70 -45z"/>
<path d="M2810 5465 c-14 -17 -5 -36 15 -28 16 6 21 43 6 43 -5 0 -14 -7 -21 -15z"/>
<path d="M2013 5428 c-28 -35 -26 -91 3 -67 8 6 23 9 34 6 31 -8 32 7 1 42 -22 24 -30 29 -38 19z"/>
<path d="M2720 5425 c-7 -8 -20 -15 -29 -15 -27 0 -41 -15 -34 -38 3 -12 9 -22 15 -22 13 0 87 78 80 84 -9 10 -19 7 -32 -9z"/>
<path d="M5360 5430 c0 -5 5 -10 10 -10 6 0 10 5 10 10 0 6 -4 10 -10 10 -5 0 -10 -4 -10 -10z"/>
<path d="M5520 5397 c0 -12 -9 -30 -20 -40 -27 -22 -25 -29 10 -55 32 -24 37 -23 18 7 -13 22 3 51 28 51 19 0 17 10 -5 38 -24 28 -31 28 -31 -1z"/>
<path d="M1507 5393 c-4 -3 -7 -15 -7 -26 0 -10 -9 -21 -19 -24 -33 -9 -35 -36 -4 -60 22 -18 25 -25 15 -35 -14 -14 -16 -48 -3 -48 5 0 14 14 21 30 10 23 10 33 0 45 -9 11 -8 19 4 36 15 22 99 69 124 69 6 0 12 5 12 10 0 11 -133 14 -143 3z"/>
<path d="M5400 5390 c0 -5 5 -10 10 -10 6 0 10 5 10 10 0 6 -4 10 -10 10 -5 0 -10 -4 -10 -10z"/>
<path d="M2378 5348 c-9 -7 -18 -24 -20 -38 -2 -21 -9 -26 -40 -28 -44 -4 -50 -17 -13 -26 25 -6 67 11 107 43 14 11 21 11 33 1 8 -7 15 -19 15 -26 0 -17 22 -18 38 -2 20 20 13 35 -19 42 -19 4 -33 13 -36 26 -6 23 -40 27 -65 8z"/>
<path d="M2586 5351 c-6 -10 16 -21 41 -21 15 0 9 15 -5 15 -4 0 -12 4 -19 8 -6 4 -14 3 -17 -2z"/>
<path d="M5293 5283 c-7 -3 -13 -13 -13 -24 0 -23 35 -26 43 -5 7 17 -13 35 -30 29z"/>
<path d="M4882 5248 c2 -23 10 -36 28 -45 14 -7 45 -30 70 -52 46 -43 52 -46 64 -34 7 7 -142 163 -157 163 -5 0 -7 -15 -5 -32z"/>
<path d="M2030 5228 c0 -29 17 -41 39 -29 32 17 27 41 -9 41 -17 0 -30 -5 -30 -12z"/>
<path d="M3225 5185 c-199 -37 -422 -110 -570 -185 -476 -243 -806 -658 -936 -1180 -16 -63 -36 -127 -44 -142 -43 -75 -39 -490 5 -550 11 -15 20 -34 20 -43 0 -20 44 -186 68 -255 106 -305 313 -596 572 -805 422 -340 997 -472 1510 -345 607 150 1085 586 1282 1170 68 200 71 228 69 571 l-1 307 -29 113 c-149 593 -604 1077 -1186 1262 -132 42 -265 75 -348 86 -104 15 -325 12 -412 -4z m485 -113 c83 -12 237 -50 272 -68 15 -8 34 -14 43 -14 22 0 196 -83 280 -133 159 -95 316 -226 415 -347 234 -286 343 -536 396 -910 25 -173 8 -393 -47 -607 -91 -356 -300 -673 -592 -900 -90 -70 -114 -86 -125 -79 -5 3 -7 67 -4 146 9 254 -51 431 -208 618 -110 130 -268 228 -442 274 -111 30 -308 31 -418 4 -438 -111 -722 -527 -660 -968 16 -111 16 -112 -2 -116 -23 -4 -174 101 -280 195 -273 243 -468 585 -534 933 -78 416 7 863 231 1215 103 161 285 357 425 456 67 47 215 139 225 139 3 0 42 17 88 39 73 34 156 63 297 100 25 7 83 17 130 22 46 5 87 12 90 15 7 8 343 -3 420 -14z"/>
<path d="M3144 4548 c16 -59 17 -94 4 -104 -27 -22 -102 -35 -137 -25 -37 11 -71 0 -71 -24 0 -45 107 -118 168 -113 35 3 37 1 37 -26 0 -27 -6 -32 -55 -52 -30 -13 -74 -23 -98 -24 -51 0 -59 -14 -38 -65 9 -21 16 -54 16 -74 1 -54 30 -106 59 -106 21 0 27 7 36 46 17 64 18 65 77 72 29 3 58 7 65 9 6 1 12 -1 13 -6 1 -6 -26 -27 -61 -48 -35 -21 -65 -43 -67 -48 -2 -5 6 -23 18 -40 38 -53 4 -65 -80 -29 -54 23 -94 20 -105 -8 -9 -25 57 -81 104 -88 49 -8 65 -18 69 -44 4 -26 -13 -50 -45 -62 -33 -12 -28 -40 15 -87 43 -47 71 -53 102 -22 19 19 20 28 14 95 -9 96 -2 105 80 105 33 0 71 6 82 13 12 6 40 22 63 35 76 41 64 80 -17 56 -61 -19 -166 -18 -182 1 -19 23 -3 50 61 100 73 57 135 137 144 185 10 54 -17 73 -113 80 -58 4 -78 9 -80 20 -4 21 39 60 118 108 69 42 87 75 55 102 -14 12 -27 10 -87 -11 l-70 -24 -14 19 c-8 11 -14 29 -14 41 0 30 -28 65 -52 65 -16 0 -19 -4 -14 -22z m152 -383 c7 -16 -27 -80 -42 -80 -5 0 -10 10 -12 22 -5 34 -28 35 -97 1 -60 -30 -66 -31 -81 -16 -15 15 -14 17 8 32 26 17 158 55 196 55 12 1 25 -6 28 -14z"/>
<path d="M3552 4561 c-11 -6 -8 -26 13 -99 22 -77 26 -108 24 -209 -1 -65 -7 -143 -14 -173 -7 -30 -17 -80 -20 -110 -14 -107 -82 -270 -159 -379 -65 -92 -34 -112 50 -31 62 59 173 200 202 255 29 56 110 141 122 129 6 -6 11 -41 11 -78 1 -51 -3 -72 -16 -86 -10 -11 -23 -20 -29 -20 -6 0 -19 -7 -29 -14 l-18 -14 19 -39 c11 -21 32 -49 46 -62 l26 -25 35 17 c76 36 85 87 73 460 -11 370 -16 443 -37 468 -23 29 -68 21 -146 -26 l-58 -35 -37 40 c-41 44 -39 43 -58 31z m237 -104 c7 -9 8 -44 3 -108 -7 -89 -8 -94 -34 -106 -42 -21 -78 -2 -78 39 0 18 -3 50 -6 70 -6 35 -3 41 37 78 47 43 60 47 78 27z m-9 -303 c12 -32 3 -89 -16 -105 -8 -6 -14 -17 -14 -25 0 -17 -37 -37 -56 -30 -13 5 -14 20 -8 88 3 46 8 86 11 91 2 4 20 7 39 7 28 0 36 -5 44 -26z"/>
<path d="M5716 5122 c-10 -17 7 -52 25 -52 22 0 24 18 5 43 -15 19 -22 21 -30 9z"/>
<path d="M1672 5057 c-31 -32 -43 -67 -23 -67 16 0 71 64 71 83 0 25 -12 21 -48 -16z"/>
<path d="M1416 5071 c-4 -5 -2 -12 3 -15 5 -4 12 -2 15 3 4 5 2 12 -3 15 -5 4 -12 2 -15 -3z"/>
<path d="M1972 5068 c-16 -16 -15 -28 3 -28 9 0 18 -7 21 -15 4 -8 12 -15 19 -15 26 0 25 19 0 44 -30 30 -28 29 -43 14z"/>
<path d="M1895 5019 c-11 -17 1 -21 15 -4 8 9 8 15 2 15 -6 0 -14 -5 -17 -11z"/>
<path d="M1328 4969 c-27 -28 -48 -58 -48 -68 0 -9 -16 -35 -36 -57 -20 -21 -41 -53 -45 -69 -5 -17 -28 -53 -53 -80 -36 -41 -49 -50 -77 -50 -27 0 -34 -4 -34 -20 0 -12 9 -21 25 -25 29 -7 29 -23 -1 -87 -25 -56 -27 -168 -3 -159 9 3 18 6 20 6 2 0 4 22 4 49 0 33 6 56 20 74 11 14 20 31 20 39 1 7 14 29 30 48 17 19 30 44 30 56 0 23 22 74 65 154 14 25 25 50 25 56 0 6 11 21 25 34 14 13 25 31 25 40 0 9 4 20 9 26 10 9 52 84 48 84 -1 0 -23 -23 -49 -51z"/>
<path d="M5160 4982 c0 -24 8 -32 26 -25 22 8 17 43 -6 43 -13 0 -20 -7 -20 -18z"/>
<path d="M700 4861 c0 -17 5 -33 10 -36 6 -4 10 8 10 29 0 20 -4 36 -10 36 -5 0 -10 -13 -10 -29z"/>
<path d="M1888 4858 c-66 -71 -93 -138 -54 -138 7 0 37 26 67 59 44 46 54 62 48 79 -13 35 -28 35 -61 0z"/>
<path d="M1773 4863 c-15 -5 -17 -23 -4 -23 5 0 11 7 15 15 3 8 4 15 3 14 -1 0 -8 -3 -14 -6z"/>
<path d="M725 4790 c3 -5 10 -10 16 -10 5 0 9 5 9 10 0 6 -7 10 -16 10 -8 0 -12 -4 -9 -10z"/>
<path d="M760 4740 c0 -5 5 -10 10 -10 6 0 10 5 10 10 0 6 -4 10 -10 10 -5 0 -10 -4 -10 -10z"/>
<path d="M1777 4671 c-3 -14 -1 -18 9 -14 16 6 18 19 5 27 -5 3 -11 -3 -14 -13z"/>
<path d="M953 4667 c-38 -13 -41 -22 -13 -37 16 -9 20 -21 20 -66 0 -61 10 -66 43 -22 l19 26 -17 26 c-17 25 -17 28 0 46 17 19 13 41 -8 39 -7 -1 -27 -7 -44 -12z"/>
<path d="M1720 4610 c0 -11 5 -20 10 -20 6 0 10 9 10 20 0 11 -4 20 -10 20 -5 0 -10 -9 -10 -20z"/>
<path d="M1587 4524 l-18 -36 18 -14 c25 -19 33 -17 33 5 0 11 5 23 10 26 6 3 10 17 10 31 0 37 -32 30 -53 -12z"/>
<path d="M1490 4490 c0 -5 5 -10 10 -10 6 0 10 5 10 10 0 6 -4 10 -10 10 -5 0 -10 -4 -10 -10z"/>
<path d="M5170 4470 c0 -5 5 -10 11 -10 5 0 7 5 4 10 -3 6 -8 10 -11 10 -2 0 -4 -4 -4 -10z"/>
<path d="M1618 4418 c-21 -31 -23 -54 -7 -64 18 -11 31 12 27 52 l-3 38 -17 -26z"/>
<path d="M1447 4363 c-12 -11 -7 -43 6 -43 23 0 38 22 26 37 -13 14 -22 16 -32 6z"/>
<path d="M5245 4291 c-3 -5 -1 -12 5 -16 5 -3 10 1 10 9 0 18 -6 21 -15 7z"/>
<path d="M6480 4262 c0 -9 9 -23 20 -30 16 -10 20 -23 20 -65 0 -51 22 -130 42 -154 6 -7 26 -13 44 -13 32 0 34 2 34 35 0 24 -6 37 -20 45 -14 7 -20 21 -20 43 0 22 -7 36 -21 45 -18 11 -21 20 -16 53 5 36 3 41 -20 50 -38 14 -63 11 -63 -9z"/>
<path d="M620 4150 c0 -5 5 -10 10 -10 6 0 10 5 10 10 0 6 -4 10 -10 10 -5 0 -10 -4 -10 -10z"/>
<path d="M1525 4147 c-4 -10 -5 -21 -1 -24 10 -10 18 4 13 24 l-4 18 -8 -18z"/>
<path d="M1470 3955 c-7 -9 -8 -15 -2 -15 5 0 12 7 16 15 3 8 4 15 2 15 -2 0 -9 -7 -16 -15z"/>
<path d="M200 3771 c0 -29 -6 -44 -20 -54 -20 -14 -21 -23 -19 -172 2 -120 6 -158 16 -162 25 -10 43 18 42 66 -1 94 8 278 14 288 7 12 -14 73 -25 73 -4 0 -8 -18 -8 -39z"/>
<path d="M5400 3774 c0 -19 4 -25 15 -20 8 3 22 9 30 12 11 5 19 -3 28 -25 17 -46 42 -37 43 17 l1 42 -59 0 -58 0 0 -26z"/>
<path d="M1220 3749 c0 -15 39 -69 51 -69 5 0 9 11 9 25 0 16 -6 25 -15 25 -9 0 -18 7 -21 15 -7 17 -24 20 -24 4z"/>
<path d="M5487 3513 c-4 -3 -7 -21 -7 -40 0 -26 4 -33 20 -33 15 0 20 7 20 29 0 29 -21 57 -33 44z"/>
<path d="M6653 3273 c-21 -7 -15 -33 7 -33 11 0 20 6 20 14 0 18 -11 25 -27 19z"/>
<path d="M1296 3238 c-9 -36 -7 -48 9 -48 16 0 35 30 35 54 0 25 -37 19 -44 -6z"/>
<path d="M5453 3203 c-7 -15 -13 -31 -13 -35 0 -13 85 -9 98 4 19 19 14 28 -18 28 -18 0 -33 6 -36 15 -9 22 -17 18 -31 -12z"/>
<path d="M200 3159 c0 -43 3 -50 18 -47 22 4 30 77 10 89 -24 16 -28 9 -28 -42z"/>
<path d="M5460 3085 c0 -14 5 -25 10 -25 6 0 10 11 10 25 0 14 -4 25 -10 25 -5 0 -10 -11 -10 -25z"/>
<path d="M1340 3017 c0 -62 2 -66 35 -59 20 3 25 10 25 36 0 36 -24 76 -46 76 -10 0 -14 -14 -14 -53z"/>
<path d="M196 3028 c-9 -36 -7 -107 4 -128 6 -12 16 -17 26 -13 22 8 16 156 -7 161 -10 2 -19 -6 -23 -20z"/>
<path d="M802 2933 c4 -56 23 -68 32 -20 8 41 -1 67 -21 67 -11 0 -13 -11 -11 -47z"/>
<path d="M247 2832 c-5 -7 -17 -10 -28 -7 -17 6 -19 1 -19 -34 0 -23 5 -50 10 -61 6 -11 15 -29 20 -40 6 -11 10 -29 10 -39 0 -11 5 -23 10 -26 14 -9 13 48 -2 63 -9 9 -9 17 1 35 14 26 12 131 -2 109z"/>
<path d="M5432 2783 c2 -11 14 -19 32 -21 23 -3 28 0 22 13 -3 9 -6 19 -6 21 0 2 -12 4 -26 4 -19 0 -25 -5 -22 -17z"/>
<path d="M5392 2610 c-17 -16 -35 -30 -41 -30 -14 0 -14 -17 -1 -25 18 -11 10 -52 -15 -79 -20 -22 -23 -31 -15 -51 6 -17 17 -25 33 -25 31 0 47 18 47 55 0 16 9 41 20 55 21 26 29 130 11 130 -5 0 -23 -13 -39 -30z"/>
<path d="M252 2580 c-19 -31 -15 -74 11 -98 30 -29 52 -30 37 -2 -6 11 -8 36 -4 55 4 22 2 41 -6 50 -16 20 -23 19 -38 -5z"/>
<path d="M283 2385 c-8 -22 6 -33 17 -15 13 20 12 30 0 30 -6 0 -13 -7 -17 -15z"/>
<path d="M1240 2381 c0 -15 6 -21 21 -21 14 0 19 5 17 17 -5 26 -38 29 -38 4z"/>
<path d="M1652 2391 c2 -7 7 -12 11 -12 12 1 9 15 -3 20 -7 2 -11 -2 -8 -8z"/>
<path d="M1580 2311 c0 -13 125 -141 138 -141 17 0 22 29 10 55 -6 14 -36 41 -67 60 -56 35 -81 43 -81 26z"/>
<path d="M5195 2180 c-21 -22 -32 -27 -41 -19 -7 6 -19 7 -25 3 -9 -5 -5 -10 10 -16 18 -6 21 -11 12 -21 -15 -19 7 -89 28 -85 9 2 17 16 19 33 2 16 12 41 23 56 19 27 26 79 11 79 -5 0 -21 -13 -37 -30z"/>
<path d="M1800 2175 c0 -8 5 -15 10 -15 6 0 10 7 10 15 0 8 -4 15 -10 15 -5 0 -10 -7 -10 -15z"/>
<path d="M1497 2127 c-3 -9 -16 -12 -37 -9 -29 4 -31 2 -26 -16 4 -11 2 -23 -4 -27 -13 -8 -13 -45 -1 -45 5 0 11 12 13 28 3 25 6 27 41 24 34 -3 37 -1 37 22 0 28 -15 43 -23 23z"/>
<path d="M5092 2089 c2 -6 8 -10 13 -10 5 0 11 4 13 10 2 6 -4 11 -13 11 -9 0 -15 -5 -13 -11z"/>
<path d="M1830 2025 c-11 -13 -10 -14 4 -9 9 3 16 10 16 15 0 13 -6 11 -20 -6z"/>
<path d="M1863 1988 c2 -7 12 -13 22 -13 10 0 20 6 23 13 2 7 -6 12 -23 12 -17 0 -25 -5 -22 -12z"/>
<path d="M5017 1974 c-8 -8 1 -24 14 -24 5 0 9 7 9 15 0 15 -12 20 -23 9z"/>
<path d="M5072 1939 c-10 -15 -21 -19 -45 -17 -19 2 -32 -2 -32 -9 0 -22 -46 -73 -66 -73 -12 0 -19 -5 -16 -12 2 -7 -13 -33 -35 -57 -21 -24 -38 -52 -38 -61 0 -10 -10 -24 -22 -32 -35 -23 -98 -91 -98 -105 0 -7 5 -13 12 -13 21 0 385 379 374 390 -14 14 -20 13 -34 -11z"/>
<path d="M1930 1632 c0 -5 12 -15 28 -22 15 -8 37 -22 48 -33 12 -10 30 -17 40 -15 12 2 23 -5 29 -19 12 -29 45 -31 45 -3 0 11 -7 20 -15 20 -9 0 -18 8 -22 18 -15 43 -45 62 -100 62 -29 0 -53 -4 -53 -8z"/>
<path d="M4828 1483 c-29 -15 -38 -43 -14 -43 12 0 52 48 44 54 -2 1 -15 -4 -30 -11z"/>
<path d="M5773 1483 c-7 -3 -13 -10 -13 -17 0 -7 -9 -21 -20 -31 -11 -10 -20 -31 -20 -47 0 -21 5 -28 20 -28 11 0 20 6 20 13 0 8 9 22 20 32 11 10 20 31 20 46 0 30 -8 39 -27 32z"/>
<path d="M4671 1403 c-8 -3 -31 -23 -51 -44 -20 -22 -44 -39 -53 -39 -9 0 -23 -13 -32 -30 -20 -38 -19 -40 8 -37 28 3 25 -27 -6 -60 -28 -31 -17 -38 17 -12 26 20 64 20 51 -1 -3 -5 -1 -10 4 -10 15 0 14 11 -4 48 -15 28 -14 33 4 68 11 21 34 50 51 65 16 15 30 35 30 43 0 9 -1 16 -2 15 -2 0 -9 -3 -17 -6z"/>
<path d="M4485 1382 c3 -11 -3 -29 -15 -45 -25 -31 -25 -37 -2 -37 32 1 50 24 49 63 -1 29 -5 37 -20 37 -13 0 -17 -5 -12 -18z"/>
<path d="M2840 1361 c0 -5 5 -13 10 -16 6 -3 10 -2 10 4 0 5 -4 13 -10 16 -5 3 -10 2 -10 -4z"/>
<path d="M4320 1227 c0 -8 -9 -22 -21 -33 -16 -15 -24 -16 -39 -6 -38 23 -73 14 -124 -32 -27 -24 -46 -48 -42 -54 3 -5 -4 -17 -17 -26 -60 -42 -60 -42 -43 -69 14 -20 24 -24 66 -23 l50 1 22 45 c16 30 30 46 45 48 14 2 36 22 54 48 17 26 45 50 65 59 25 10 35 20 32 32 -4 22 -48 31 -48 10z"/>
<path d="M4435 1220 c-4 -11 -19 -28 -33 -37 -15 -9 -51 -40 -79 -70 -29 -29 -61 -53 -71 -53 -21 0 -38 -17 -71 -73 -29 -48 -20 -59 19 -22 22 21 42 29 70 31 30 1 45 9 65 32 14 17 36 34 48 38 23 7 87 51 99 69 4 5 -2 17 -14 26 l-21 17 21 11 c12 6 22 21 22 31 0 28 -46 27 -55 0z"/>
<path d="M4760 1220 c0 -13 7 -20 20 -20 13 0 20 7 20 20 0 13 -7 20 -20 20 -13 0 -20 -7 -20 -20z"/>
<path d="M5471 1130 c-37 -42 -70 -70 -82 -70 -11 0 -23 -8 -26 -17 -4 -10 -18 -31 -31 -48 -23 -28 -23 -30 -6 -34 12 -2 37 17 74 55 30 33 79 81 108 107 50 46 66 77 39 77 -7 0 -41 -31 -76 -70z"/>
<path d="M4640 1140 c0 -13 7 -20 20 -20 13 0 20 7 20 20 0 13 -7 20 -20 20 -13 0 -20 -7 -20 -20z"/>
<path d="M4890 1122 c-23 -10 -123 -86 -139 -105 -7 -10 -21 -17 -31 -17 -9 0 -25 -9 -35 -20 -10 -11 -25 -20 -34 -20 -9 0 -40 -18 -69 -41 -41 -31 -61 -39 -85 -37 -25 2 -33 8 -35 27 -2 14 3 30 12 36 20 15 10 55 -14 55 -21 0 -33 -23 -18 -38 14 -14 1 -32 -23 -32 -11 0 -34 -7 -51 -16 -27 -14 -33 -14 -42 -3 -14 18 -120 19 -138 1 -10 -10 -10 -17 0 -32 6 -11 12 -29 12 -40 0 -21 27 -26 65 -11 11 5 29 5 40 1 13 -5 33 -1 55 10 31 16 37 16 57 3 13 -9 23 -24 23 -34 0 -25 13 -24 48 6 17 14 41 25 56 25 16 0 44 16 76 45 28 25 68 54 89 65 22 11 60 38 86 60 25 22 50 40 55 40 15 0 70 51 70 66 0 15 -7 16 -30 6z"/>
<path d="M4520 1060 c0 -13 7 -20 20 -20 13 0 20 7 20 20 0 13 -7 20 -20 20 -13 0 -20 -7 -20 -20z"/>
<path d="M4627 1053 c-4 -3 -7 -15 -7 -25 l0 -19 30 18 c17 9 30 21 30 25 0 10 -44 11 -53 1z"/>
<path d="M4352 978 c-18 -18 -15 -28 8 -28 13 0 20 7 20 20 0 23 -10 26 -28 8z"/>
<path d="M4123 915 c-3 -9 -3 -18 0 -21 9 -9 27 6 27 22 0 19 -19 18 -27 -1z"/>
<path d="M5100 870 c0 -5 5 -10 10 -10 6 0 10 5 10 10 0 6 -4 10 -10 10 -5 0 -10 -4 -10 -10z"/>
<path d="M5020 825 c0 -8 5 -15 10 -15 6 0 10 7 10 15 0 8 -4 15 -10 15 -5 0 -10 -7 -10 -15z"/>
<path d="M4756 745 c-6 -16 2 -45 13 -45 13 0 31 24 31 42 0 22 -35 25 -44 3z"/>
<path d="M4325 705 c-16 -7 -41 -25 -55 -40 l-25 -26 23 -18 c21 -15 22 -19 9 -30 -12 -10 -19 -10 -35 0 -18 11 -30 8 -86 -21 -60 -30 -82 -50 -56 -50 16 0 64 23 86 42 l20 18 39 -40 c46 -47 72 -50 114 -14 17 14 35 23 40 19 6 -3 28 0 51 7 31 10 40 17 38 33 -2 14 2 19 12 16 48 -12 59 -11 86 12 16 13 52 35 81 48 47 22 71 45 59 57 -11 10 -57 -10 -100 -43 -32 -24 -57 -35 -80 -35 -19 0 -38 -5 -41 -10 -4 -6 -11 -8 -16 -4 -5 3 -7 9 -4 14 9 15 -7 40 -25 40 -10 0 -21 -7 -24 -15 -3 -9 -31 -27 -62 -41 -74 -33 -89 -19 -37 33 22 22 37 45 35 51 -4 14 -8 14 -47 -3z"/>
<path d="M3857 674 c-14 -14 -7 -35 11 -32 9 2 17 10 17 17 0 16 -18 25 -28 15z"/>
<path d="M4920 495 c-21 -22 -21 -25 -6 -31 10 -4 22 -2 29 5 6 6 21 11 34 11 16 0 23 6 23 20 0 30 -50 27 -80 -5z"/>
<path d="M4020 500 c0 -5 6 -10 14 -10 8 0 18 5 21 10 3 6 -3 10 -14 10 -12 0 -21 -4 -21 -10z"/>
<path d="M4725 450 c-3 -5 -1 -10 4 -10 6 0 11 5 11 10 0 6 -2 10 -4 10 -3 0 -8 -4 -11 -10z"/>
<path d="M4760 420 c-14 -11 -32 -17 -41 -14 -21 6 -79 -51 -79 -77 0 -17 4 -19 23 -13 12 4 28 15 35 25 14 21 42 25 58 9 13 -13 64 7 64 25 0 7 7 18 15 25 45 38 -27 57 -75 20z"/>
<path d="M5020 430 c0 -5 5 -10 10 -10 6 0 10 5 10 10 0 6 -4 10 -10 10 -5 0 -10 -4 -10 -10z"/>
<path d="M4520 330 c0 -5 4 -10 9 -10 6 0 13 5 16 10 3 6 -1 10 -9 10 -9 0 -16 -4 -16 -10z"/>
<path d="M4556 304 c-8 -20 -8 -19 22 -28 19 -6 22 -4 22 18 0 19 -5 26 -19 26 -10 0 -22 -7 -25 -16z"/>
<path d="M4300 230 c0 -5 5 -10 10 -10 6 0 10 5 10 10 0 6 -4 10 -10 10 -5 0 -10 -4 -10 -10z"/>
<path d="M4250 190 c0 -5 7 -10 15 -10 8 0 15 5 15 10 0 6 -7 10 -15 10 -8 0 -15 -4 -15 -10z"/>
<path d="M4116 144 c-8 -21 13 -28 40 -13 13 7 24 15 24 19 0 13 -59 7 -64 -6z"/>
</g>
</g>
</svg>
