<?xml version="1.0" standalone="no"?>
<!DOCTYPE svg PUBLIC "-//W3C//DTD SVG 1.1//EN"
 "http://www.w3.org/Graphics/SVG/1.1/DTD/svg11.dtd">
<!-- Created with svg_stack (http://github.com/astraw/svg_stack) -->
<svg xmlns:sodipodi="http://sodipodi.sourceforge.net/DTD/sodipodi-0.dtd" xmlns="http://www.w3.org/2000/svg" version="1.1" width="504.0" height="322.0">
  <defs/>
  <g id="id0:id0" transform="matrix(1.25,0,0,1.25,0.0,0.0)"><g transform="translate(0.000000,257.600000) scale(0.040000,-0.040000)" fill="#005799" stroke="none">
<path d="M3687 5894 c-289 -35 -495 -108 -943 -334 -119 -61 -223 -110 -230 -110 -12 0 -112 110 -160 176 -49 67 -37 -25 18 -144 16 -35 27 -69 25 -77 -6 -15 -129 -57 -252 -87 -363 -87 -692 -4 -928 235 -38 38 -71 66 -74 63 -17 -16 76 -167 150 -244 89 -92 186 -151 322 -197 67 -22 104 -27 225 -32 213 -8 397 23 584 98 l77 31 62 -59 c146 -140 302 -209 524 -233 119 -13 290 -5 511 26 269 36 566 36 732 -1 166 -37 306 -100 455 -205 116 -82 348 -315 447 -450 42 -58 88 -119 102 -136 14 -18 26 -39 26 -48 0 -9 7 -16 15 -16 19 0 19 5 1 38 -7 15 -30 63 -51 107 -198 428 -548 798 -876 925 -137 53 -329 82 -539 81 -132 -1 -205 -9 -425 -50 -239 -45 -385 -56 -542 -42 -87 8 -114 15 -177 46 -40 20 -84 47 -96 60 l-22 24 71 35 c39 20 97 50 128 67 460 249 722 328 1087 329 257 0 475 -52 700 -169 120 -61 300 -180 298 -196 -2 -17 -69 -25 -217 -26 -155 -2 -254 15 -337 57 -49 25 -138 109 -138 131 0 7 -4 13 -10 13 -26 0 2 -85 51 -157 39 -56 100 -97 192 -127 92 -31 150 -37 442 -40 248 -3 306 -11 421 -62 82 -36 177 -106 223 -163 50 -64 106 -174 98 -194 -5 -14 -11 -14 -56 3 -78 28 -115 55 -187 135 -108 121 -196 173 -368 215 -105 26 -161 23 -251 -14 -88 -35 -84 -52 12 -58 95 -7 179 -39 268 -103 103 -73 237 -231 299 -352 157 -308 557 -593 833 -593 91 0 129 16 183 77 27 31 43 61 51 99 7 30 16 57 19 59 13 8 131 -37 219 -82 199 -103 297 -192 444 -403 156 -224 281 -334 491 -435 50 -24 147 -70 216 -103 106 -50 138 -71 211 -138 47 -43 100 -96 118 -116 l32 -37 -44 -45 c-69 -73 -125 -61 -166 34 -16 37 -27 50 -43 50 -19 0 -20 -4 -14 -41 4 -22 30 -85 59 -140 l52 -101 0 -126 0 -127 -37 -75 c-53 -109 -102 -159 -228 -234 -120 -72 -203 -101 -251 -91 -17 4 -77 30 -132 59 -92 46 -108 51 -179 55 -70 3 -85 0 -133 -24 -80 -41 -120 -86 -120 -136 0 -31 6 -46 24 -60 41 -33 93 -20 172 43 62 50 94 53 198 18 140 -46 220 -40 376 30 35 16 67 25 69 21 3 -5 -8 -49 -24 -100 -72 -221 -135 -286 -314 -326 -65 -15 -107 -17 -235 -11 -86 3 -180 9 -210 12 -42 5 -53 4 -49 -6 5 -16 9 -18 113 -66 174 -80 336 -102 467 -65 186 53 290 204 348 506 9 45 26 81 69 145 72 108 94 153 126 265 14 49 32 99 41 110 8 11 24 35 36 53 l21 33 46 -44 c80 -78 118 -92 251 -92 l115 0 86 42 c135 66 239 182 298 330 18 46 41 180 41 238 0 37 -25 59 -66 60 -45 0 -45 -1 -15 100 35 117 23 176 -31 161 -13 -3 -39 -29 -58 -57 -36 -53 -90 -105 -133 -128 -21 -11 -29 -9 -70 19 -77 52 -151 125 -175 173 -55 110 -81 321 -47 386 32 62 263 241 368 285 43 17 269 51 291 43 10 -4 15 -34 18 -109 5 -105 17 -148 43 -148 27 0 64 54 110 159 68 157 64 152 121 171 99 32 176 91 198 154 4 11 9 43 12 73 3 41 13 64 38 98 42 54 97 194 103 260 5 44 2 55 -21 82 -31 36 -167 109 -346 183 -69 29 -152 66 -185 82 -83 42 -245 159 -334 241 -181 168 -250 210 -428 263 -233 68 -509 109 -841 124 -192 8 -528 0 -578 -15 -13 -4 -63 7 -125 28 -196 66 -344 97 -466 97 -81 0 -113 -25 -142 -112 -12 -34 -21 -70 -21 -80 0 -25 -27 -34 -48 -16 -36 31 -221 137 -259 148 -55 17 -78 2 -111 -68 -21 -46 -27 -78 -32 -162 l-5 -105 -60 -7 c-33 -3 -157 -11 -275 -17 -118 -6 -238 -14 -266 -17 l-51 -5 -54 43 c-125 101 -391 251 -527 299 -121 43 -227 70 -325 84 -125 18 -391 18 -540 -1z m4001 -214 c208 -15 513 -56 602 -81 82 -22 202 -79 276 -130 27 -18 99 -82 161 -141 162 -155 225 -194 526 -322 315 -134 376 -168 356 -193 -6 -7 -17 -13 -24 -13 -7 0 -32 -18 -57 -40 -30 -26 -59 -42 -85 -46 -54 -8 -144 19 -187 56 -39 35 -66 39 -66 10 0 -23 57 -67 121 -94 168 -70 206 -97 216 -159 4 -30 0 -44 -22 -74 -37 -50 -59 -68 -125 -102 -84 -44 -147 -59 -365 -91 -110 -16 -222 -37 -250 -47 -143 -48 -422 -260 -453 -343 -29 -77 -20 -357 14 -462 20 -60 86 -151 171 -234 119 -116 199 -154 353 -171 33 -3 63 -10 66 -14 9 -15 -26 -114 -59 -169 -66 -110 -170 -161 -342 -167 -100 -4 -114 -2 -155 19 -25 13 -59 42 -77 65 l-32 43 20 56 c11 32 21 88 22 125 l2 68 -35 36 c-68 71 -194 150 -435 274 -100 51 -136 76 -219 154 -111 103 -278 286 -271 297 3 4 41 -1 85 -12 99 -23 265 -22 265 2 0 10 -20 18 -65 26 -86 16 -108 23 -220 76 -115 54 -244 148 -301 220 -89 112 -142 275 -155 481 -6 88 -9 98 -28 102 -12 2 -52 9 -91 16 -99 17 -227 55 -288 86 -79 40 -116 72 -148 129 -25 44 -38 56 -89 78 -33 15 -60 31 -60 36 0 4 8 22 18 40 l17 31 -20 15 c-11 8 -32 18 -48 21 -37 8 -40 15 -22 65 26 74 22 85 -37 102 -29 9 -58 19 -64 23 -21 15 -116 144 -130 178 -20 50 -18 118 5 146 l20 24 163 -82 c112 -57 182 -86 223 -93 72 -12 426 -42 432 -36 5 5 -63 38 -142 68 -33 13 -58 28 -56 33 8 23 356 101 506 114 146 12 415 13 583 1z m-1798 -297 c21 -26 29 -44 25 -58 -3 -11 -9 -37 -12 -58 l-6 -38 54 3 c44 2 53 0 50 -12 -2 -8 -6 -42 -8 -76 -6 -67 7 -104 35 -104 24 0 42 -19 42 -45 0 -29 28 -65 51 -65 11 0 57 -36 105 -80 126 -119 265 -180 410 -180 51 0 76 -4 78 -12 2 -7 11 -49 21 -93 20 -93 73 -265 87 -282 12 -15 -9 -28 -25 -15 -7 5 -82 40 -167 76 -85 37 -170 74 -187 81 -20 9 -51 40 -80 82 -60 84 -160 205 -293 353 -126 141 -134 159 -125 262 8 99 -1 100 -89 14 l-66 -65 -19 45 c-32 71 -120 156 -201 193 -39 18 -68 36 -66 40 3 4 49 16 103 25 54 10 127 23 163 30 36 8 70 14 77 15 6 0 26 -16 43 -36z m-320 -687 c36 -13 119 -34 185 -46 336 -59 476 -123 505 -232 23 -82 -7 -141 -92 -184 -61 -31 -82 -27 -68 12 18 45 -12 124 -66 178 -64 64 -147 107 -306 160 -76 25 -150 52 -165 60 -40 20 -105 85 -97 97 4 6 12 5 22 -4 10 -9 46 -27 82 -41z"/>
<path d="M8247 5463 c-4 -3 9 -24 27 -47 19 -22 41 -59 50 -80 21 -50 9 -64 -60 -77 -26 -5 -84 -27 -129 -50 -45 -22 -101 -43 -124 -46 -30 -4 -41 -10 -41 -23 0 -20 81 -40 166 -40 l52 0 27 46 c20 34 39 51 72 66 65 29 78 19 48 -34 -50 -87 -29 -108 109 -108 106 0 250 -37 375 -96 107 -50 113 -71 16 -53 -87 16 -132 1 -196 -64 -109 -110 -353 -456 -335 -474 3 -3 87 71 188 164 176 163 289 258 335 282 29 15 103 14 172 -3 79 -20 140 -26 147 -15 7 11 -40 57 -144 140 -131 105 -280 182 -408 210 -83 17 -86 20 -132 97 -59 100 -193 227 -215 205z"/>
<path d="M1726 5018 c37 -119 144 -288 247 -390 135 -135 262 -195 436 -205 221 -12 356 27 646 187 312 173 511 230 801 230 195 0 175 26 -42 54 -188 25 -369 18 -659 -24 -405 -60 -431 -62 -510 -56 -44 3 -114 15 -155 26 -89 25 -231 94 -273 132 -32 31 -63 38 -53 12 3 -8 23 -41 43 -72 58 -88 135 -157 232 -205 47 -24 85 -48 84 -53 -1 -5 -31 -13 -65 -17 -93 -12 -228 7 -308 44 -109 51 -252 166 -351 285 -63 75 -86 92 -73 52z"/>
<path d="M3855 4720 c-104 -10 -251 -36 -345 -61 -187 -50 -331 -122 -670 -331 -129 -80 -264 -161 -301 -181 -152 -85 -313 -133 -420 -125 -73 5 -79 -11 -14 -42 148 -72 397 -37 677 93 54 25 99 43 102 39 7 -12 -272 -265 -357 -323 -201 -138 -404 -185 -673 -155 -140 15 -274 40 -306 57 -22 11 -38 12 -38 2 0 -16 68 -50 190 -97 304 -117 496 -133 740 -59 329 98 674 377 1004 810 72 96 142 139 253 158 58 9 138 -28 203 -95 33 -34 57 -50 74 -50 38 0 92 37 131 90 45 61 90 100 117 100 35 0 138 -70 227 -155 60 -56 101 -86 136 -99 205 -75 312 -160 575 -456 144 -162 216 -224 370 -320 94 -59 164 -120 187 -164 22 -42 11 -123 -24 -188 -44 -83 -151 -184 -237 -223 -132 -61 -202 -76 -414 -86 -208 -9 -295 -29 -361 -80 -42 -33 -35 -52 24 -67 63 -16 146 -4 270 38 188 64 247 69 328 28 120 -60 65 -203 -111 -292 -172 -86 -336 -88 -581 -8 -67 21 -96 38 -141 78 -32 28 -85 68 -119 89 -34 20 -59 40 -56 44 4 3 38 13 78 21 93 21 100 40 14 40 -108 0 -325 43 -456 91 -156 57 -227 107 -393 278 -117 120 -201 186 -285 223 -88 39 -304 23 -452 -34 -42 -16 -12 -23 93 -20 183 6 286 -33 390 -146 152 -165 231 -231 364 -304 47 -26 70 -44 64 -50 -20 -20 -239 -31 -386 -19 -301 23 -466 97 -702 315 -130 120 -218 178 -332 219 -82 29 -95 31 -232 32 -157 0 -187 -6 -320 -68 -36 -16 -99 -45 -140 -64 -161 -75 -256 -94 -369 -73 -88 16 -154 52 -221 119 -53 54 -130 181 -130 215 0 17 -26 33 -36 23 -14 -14 28 -235 56 -295 83 -178 265 -272 500 -259 116 6 174 22 354 93 180 72 270 95 376 96 210 1 334 -51 555 -237 96 -81 198 -150 283 -195 102 -53 75 -67 -128 -69 -209 -2 -448 50 -628 136 -40 19 -78 33 -84 31 -6 -2 11 -25 38 -50 152 -143 308 -231 467 -264 72 -15 244 -20 325 -9 41 6 274 57 458 100 90 21 297 45 394 45 108 0 238 -21 341 -55 130 -44 268 -147 315 -237 21 -41 2 -42 -62 -3 -77 47 -198 92 -308 117 -125 27 -404 22 -546 -11 -130 -30 -213 -54 -300 -86 -41 -14 -138 -40 -215 -57 -125 -28 -158 -31 -305 -31 -177 0 -259 12 -400 60 -160 54 -276 123 -470 278 -153 121 -215 161 -300 191 -180 63 -443 80 -678 44 -81 -12 -157 -26 -170 -31 -44 -17 -10 -29 81 -29 226 0 464 -56 601 -142 80 -50 170 -125 316 -263 136 -129 236 -207 322 -251 63 -32 155 -66 197 -73 19 -3 34 -10 35 -16 3 -33 -329 -30 -456 3 -100 27 -203 73 -303 134 -90 56 -217 160 -258 213 -29 36 -47 45 -47 22 0 -26 101 -165 184 -254 98 -104 201 -185 308 -242 216 -117 541 -179 799 -152 188 19 324 64 634 209 190 88 283 125 410 163 125 37 317 69 415 69 95 0 321 -32 425 -60 180 -48 360 -120 353 -141 -7 -20 -87 -39 -238 -55 -162 -18 -277 -12 -496 27 -166 29 -398 24 -494 -10 -99 -35 -193 -94 -336 -212 -162 -133 -208 -162 -289 -184 -104 -28 -174 -17 -311 50 -132 64 -203 85 -294 85 -115 0 -282 -58 -294 -103 -5 -21 -7 -21 -111 7 -74 20 -156 20 -222 1 -57 -17 -133 -68 -133 -90 0 -19 9 -19 53 0 50 21 152 19 218 -4 111 -38 175 -78 399 -252 360 -278 681 -426 1090 -501 178 -32 506 -32 690 1 228 40 386 88 753 224 81 30 149 51 152 47 3 -5 -19 -23 -47 -41 -71 -43 -197 -139 -282 -213 -121 -106 -330 -346 -302 -346 2 0 42 30 88 67 200 160 424 284 613 342 104 31 145 39 335 66 119 17 212 43 267 75 43 25 48 14 14 -29 -74 -92 -71 -91 -168 -91 -195 -1 -406 -74 -581 -202 -61 -45 -202 -177 -202 -190 0 -12 38 -9 46 3 9 15 157 84 247 116 80 28 288 45 301 25 5 -8 -125 -111 -201 -158 -37 -24 -2 -25 98 -4 117 25 261 73 301 101 32 23 61 24 153 4 136 -29 275 -13 432 49 113 45 183 89 270 170 80 74 137 151 172 230 37 85 23 89 -52 13 -72 -71 -185 -145 -271 -176 -65 -23 -85 -26 -223 -26 -103 0 -156 4 -164 12 -12 12 40 82 173 234 56 65 225 213 338 296 142 106 334 203 440 223 30 6 55 12 58 14 11 12 -13 26 -43 26 -50 0 -221 -36 -304 -65 -92 -31 -257 -118 -373 -195 -48 -33 -90 -55 -93 -50 -3 5 10 47 29 93 41 99 75 252 59 268 -8 8 -20 -2 -41 -33 -35 -52 -138 -149 -193 -184 -59 -37 -166 -69 -362 -109 -97 -20 -230 -54 -295 -76 -108 -38 -344 -148 -402 -189 -35 -24 -150 -78 -217 -101 -142 -48 -454 -88 -693 -89 -104 0 -241 23 -305 50 -16 7 -38 14 -48 15 -22 2 -42 21 -30 28 4 2 19 0 33 -5 30 -13 33 -13 185 -23 249 -16 478 21 663 106 106 49 254 139 249 152 -2 6 -30 16 -63 23 -32 7 -93 24 -134 40 -121 44 -209 64 -310 70 -117 7 -199 -8 -342 -66 -159 -65 -206 -79 -305 -91 -147 -18 -285 7 -403 74 -23 13 -41 28 -40 33 1 5 7 7 13 5 7 -3 68 -6 137 -8 137 -4 199 9 375 76 253 98 552 114 925 51 96 -17 251 -42 344 -56 l168 -25 192 11 c197 10 247 19 352 62 158 64 271 150 348 266 65 100 86 146 171 382 91 251 137 351 204 440 62 82 132 135 223 169 90 33 98 49 26 53 -131 7 -230 -27 -323 -114 -76 -70 -136 -171 -229 -379 -95 -214 -146 -315 -202 -402 -93 -143 -235 -264 -359 -305 -84 -28 -291 -57 -300 -42 -3 4 19 20 48 35 205 108 265 174 413 464 66 129 91 167 153 233 40 43 84 81 96 84 28 7 41 32 21 40 -19 7 -170 -70 -236 -121 -30 -24 -95 -80 -145 -125 -176 -162 -314 -280 -391 -336 -187 -134 -407 -204 -641 -204 -112 0 -271 26 -508 85 -250 61 -280 66 -394 67 -56 0 -104 4 -107 9 -6 10 89 59 161 84 89 30 252 23 441 -20 366 -83 514 -84 761 -5 328 105 497 255 919 815 158 209 223 283 309 352 129 103 286 152 439 138 123 -11 141 -11 145 0 5 12 -7 18 -99 46 -63 20 -95 24 -205 23 -123 0 -136 -2 -239 -37 -61 -21 -124 -47 -142 -58 -55 -34 -51 -3 12 89 74 108 225 261 282 286 23 11 42 23 42 27 0 4 -26 13 -57 19 -215 43 -351 106 -522 244 -66 53 -214 222 -206 235 2 4 53 -5 112 -21 59 -16 153 -32 208 -36 109 -9 312 3 332 20 24 19 2 28 -71 28 -143 0 -310 42 -451 113 -75 37 -148 87 -293 196 -288 218 -352 260 -507 332 -271 126 -567 182 -830 159z m-1624 -3146 c125 -37 213 -104 258 -197 36 -73 57 -147 48 -170 -5 -14 -12 -13 -54 7 -26 13 -97 60 -156 105 -152 114 -265 191 -314 213 -24 10 -43 21 -43 24 0 3 15 11 33 19 43 19 161 19 228 -1z"/>
<path d="M1155 4689 c-177 -16 -357 -110 -520 -273 -44 -44 -74 -81 -68 -83 13 -5 57 21 85 49 29 29 223 119 300 139 94 24 182 24 287 -1 111 -27 216 -81 370 -189 250 -176 355 -217 529 -209 71 4 119 12 181 33 84 29 231 115 231 135 0 8 -22 9 -72 3 -40 -4 -122 -7 -183 -7 -176 1 -274 38 -516 196 -278 182 -410 226 -624 207z"/>
<path d="M4183 4448 c-29 -32 -45 -67 -39 -83 3 -8 31 -16 73 -20 91 -10 214 -31 237 -40 32 -14 14 28 -22 50 -18 11 -55 34 -81 52 -51 33 -115 63 -135 63 -7 0 -22 -10 -33 -22z"/>
<path d="M3608 4362 c-40 -16 -86 -73 -108 -134 -35 -96 -58 -138 -107 -196 -67 -78 -159 -145 -273 -197 -59 -27 -80 -39 -80 -47 0 -12 28 -10 35 2 3 6 19 10 34 10 42 0 149 43 285 115 126 67 210 95 283 95 32 0 43 4 43 15 0 8 -5 15 -10 15 -22 0 -100 83 -109 116 -13 48 5 109 42 140 26 22 36 24 71 18 52 -8 129 -46 232 -112 l81 -52 102 0 c155 0 355 -46 483 -111 98 -49 349 -227 457 -323 52 -46 91 -72 91 -60 0 16 -232 293 -277 330 -109 92 -258 173 -383 207 -91 25 -237 46 -380 56 -120 8 -191 22 -255 51 -129 58 -162 70 -199 69 -22 0 -49 -3 -58 -7z"/>
<path d="M1248 4179 c-77 -18 -239 -81 -353 -137 -105 -51 -222 -84 -322 -89 -112 -7 -188 7 -303 53 -47 19 -89 36 -95 37 -25 5 -5 -27 50 -84 118 -123 211 -160 400 -161 155 -1 228 17 499 121 160 61 283 75 399 45 80 -20 112 -38 232 -124 155 -111 183 -123 295 -127 70 -3 112 1 160 14 74 21 87 44 30 54 -82 15 -158 65 -315 208 -71 65 -123 103 -180 131 -152 75 -339 98 -497 59z"/>
<path d="M6695 3869 c-95 -22 -129 -56 -46 -44 77 11 156 -16 209 -71 23 -25 40 -49 38 -53 -3 -5 -41 -10 -83 -13 -66 -4 -90 -10 -149 -42 -124 -65 -272 -202 -246 -228 8 -8 52 -2 148 18 l137 29 14 40 c16 49 55 85 92 85 40 0 44 -9 16 -42 -43 -51 -31 -77 42 -91 17 -3 73 -22 124 -42 58 -23 157 -49 265 -70 197 -38 244 -58 326 -139 31 -31 60 -56 63 -56 17 0 -57 113 -110 165 -95 96 -199 135 -359 134 -60 0 -83 4 -97 17 -27 24 -59 95 -59 130 0 97 -64 226 -131 263 -40 23 -121 27 -194 10z"/>
<path d="M4465 3800 c-11 -5 -39 -9 -62 -9 -24 -1 -73 -13 -110 -27 -38 -14 -88 -32 -113 -38 -49 -14 -61 -39 -20 -45 14 -2 63 2 110 9 75 11 88 16 111 43 32 38 58 32 51 -12 -5 -35 1 -39 118 -66 73 -17 415 -148 434 -166 14 -13 48 -11 44 3 -2 6 -12 15 -21 20 -9 4 -25 13 -34 18 -27 15 -261 129 -319 155 -60 26 -67 36 -68 84 l-1 36 -50 2 c-27 1 -59 -2 -70 -7z"/>
<path d="M3008 3580 c-144 -30 -348 -107 -348 -131 0 -12 33 -11 67 2 48 19 204 39 305 39 281 0 441 -66 617 -256 165 -179 275 -248 466 -294 88 -22 155 -26 155 -10 0 6 -17 18 -37 27 -50 23 -206 130 -267 184 -27 24 -96 98 -154 164 -103 119 -216 221 -277 250 -105 49 -356 61 -527 25z"/>
<path d="M5340 3515 c0 -3 34 -39 76 -79 44 -43 74 -78 70 -85 -9 -14 -73 -15 -81 -1 -3 6 -17 10 -31 10 -36 0 -30 -26 14 -54 61 -38 76 -60 69 -102 -9 -53 -33 -83 -84 -106 -50 -22 -173 -58 -200 -58 -30 0 -50 -17 -36 -31 9 -9 36 -8 120 5 121 20 202 51 251 99 41 39 92 136 92 175 0 44 -39 92 -115 144 -39 26 -82 56 -97 67 -25 20 -48 27 -48 16z"/>
<path d="M7262 3168 c-93 -11 -257 -66 -419 -141 -13 -6 -23 -14 -23 -19 0 -12 32 -10 76 6 69 24 222 47 317 48 168 2 345 -61 465 -166 63 -56 122 -80 144 -58 17 17 -50 130 -117 198 -70 71 -161 119 -250 134 -68 11 -91 11 -193 -2z"/>
<path d="M7285 2975 c-33 -7 -83 -24 -112 -37 -70 -33 -213 -121 -213 -132 0 -12 50 -2 170 34 192 57 266 51 451 -35 108 -51 119 -53 119 -25 0 11 -4 20 -9 20 -5 0 -41 29 -81 65 -119 107 -207 137 -325 110z"/>
<path d="M5237 2715 c-15 -8 -47 -30 -71 -49 -53 -44 -135 -81 -211 -95 -32 -6 -141 -11 -242 -11 -237 0 -243 -19 -18 -56 157 -26 321 -29 391 -9 116 33 234 127 234 185 0 48 -32 62 -83 35z"/>
</g>
</g>
</svg>
