<?xml version="1.0" standalone="no"?>
<!DOCTYPE svg PUBLIC "-//W3C//DTD SVG 1.1//EN"
 "http://www.w3.org/Graphics/SVG/1.1/DTD/svg11.dtd">
<!-- Created with svg_stack (http://github.com/astraw/svg_stack) -->
<svg xmlns:sodipodi="http://sodipodi.sourceforge.net/DTD/sodipodi-0.dtd" xmlns="http://www.w3.org/2000/svg" version="1.1" width="288.0" height="288.0">
  <defs/>
  <g id="id0:id0" transform="matrix(1.25,0,0,1.25,0.0,0.0)"><g transform="translate(0.000000,230.400000) scale(0.040000,-0.040000)" fill="#000000" stroke="none">
<path d="M4600 4510 c-103 -11 -232 -51 -380 -117 -154 -69 -202 -74 -276 -27 -221 137 -730 185 -1084 102 -228 -54 -414 -191 -569 -422 -282 -418 -383 -916 -281 -1378 13 -57 14 -80 6 -87 -11 -8 -106 -40 -231 -77 -45 -14 -95 -18 -197 -19 l-136 0 -59 29 c-40 21 -90 62 -159 132 -131 134 -201 171 -417 223 -74 17 -214 14 -303 -9 -195 -48 -296 -152 -328 -338 -44 -249 99 -521 364 -698 173 -115 377 -184 546 -184 119 0 370 49 532 104 189 64 306 138 444 278 53 54 101 98 107 98 6 0 28 -24 50 -53 50 -69 119 -129 178 -157 53 -25 168 -49 263 -54 36 -3 83 -7 105 -11 25 -3 69 1 120 14 l79 19 28 -23 c45 -38 132 -47 268 -29 135 18 401 12 540 -13 47 -8 123 -15 170 -16 75 0 95 4 176 36 50 21 98 37 107 37 8 0 43 -14 78 -31 57 -28 66 -30 100 -20 41 13 47 18 68 71 23 59 24 106 5 162 -22 62 -95 143 -138 154 -17 4 -50 21 -74 38 -40 29 -51 31 -143 34 -120 5 -213 -19 -282 -72 l-45 -34 -136 1 c-204 3 -206 -7 32 229 212 210 240 248 282 383 27 84 40 101 67 86 24 -12 138 -37 213 -46 30 -3 107 -27 170 -52 l115 -46 120 -2 c66 -1 145 -7 175 -13 130 -26 216 -9 260 50 20 28 22 35 11 65 -10 26 -10 42 -1 68 10 30 9 40 -7 68 -11 17 -28 34 -39 36 -10 2 -36 19 -57 37 -41 37 -64 41 -148 23 -37 -8 -64 -22 -94 -50 -23 -22 -45 -39 -48 -39 -10 0 -75 123 -88 168 -7 26 -9 46 -3 52 5 4 70 21 144 35 254 51 317 72 428 147 42 29 106 80 141 115 35 35 72 63 82 63 34 0 96 31 107 53 6 12 14 37 17 54 5 24 18 40 48 60 45 30 82 92 93 156 4 22 15 42 25 48 15 7 19 21 19 59 0 35 -4 50 -13 50 -20 0 -51 38 -80 95 -53 105 -142 201 -227 244 -34 18 -390 110 -500 130 -81 14 -254 20 -340 11z m335 -97 c107 -31 156 -42 273 -58 128 -18 209 -54 291 -130 54 -50 111 -128 111 -152 0 -7 -17 -21 -39 -32 -48 -25 -91 -75 -91 -106 0 -32 46 -68 70 -55 21 11 24 8 34 -32 10 -44 -7 -73 -53 -87 -57 -16 -107 -1 -166 51 -55 48 -78 44 -83 -14 -3 -30 2 -39 32 -62 23 -17 36 -35 36 -50 0 -55 -111 -175 -223 -241 -61 -35 -148 -63 -247 -80 -47 -7 -125 -23 -173 -34 -48 -12 -92 -21 -97 -21 -5 0 -20 18 -32 40 -13 22 -31 40 -40 40 -15 0 -18 -9 -18 -52 0 -70 52 -264 92 -345 33 -67 63 -95 124 -117 44 -15 64 -40 47 -57 -16 -16 -157 -12 -226 6 -109 28 -414 137 -467 167 -65 36 -125 91 -147 133 -39 74 -34 316 8 378 30 44 48 57 80 57 25 0 45 21 32 34 -4 3 -26 6 -50 6 -75 0 -159 -58 -180 -125 -14 -45 -48 -44 -135 5 -40 23 -107 66 -148 96 -41 30 -105 75 -141 99 -37 24 -70 48 -74 55 -4 6 -43 29 -87 51 -45 21 -87 44 -94 50 -17 14 -44 5 -44 -14 0 -8 9 -18 20 -23 10 -5 56 -41 102 -80 46 -40 132 -113 191 -163 233 -199 331 -385 344 -656 7 -134 -11 -224 -64 -335 -49 -101 -191 -244 -313 -314 -47 -27 -130 -77 -186 -111 -65 -41 -135 -75 -200 -96 -91 -31 -109 -33 -229 -33 -178 -1 -218 15 -335 133 -95 95 -127 145 -193 301 -102 242 -122 354 -120 664 3 312 91 605 258 856 188 283 496 433 875 426 184 -4 288 -28 535 -126 181 -71 217 -91 286 -155 30 -29 79 -65 107 -79 45 -23 53 -24 58 -11 4 9 -2 26 -14 38 -35 38 -62 104 -62 151 0 38 5 48 35 75 19 17 72 48 118 70 74 35 113 47 267 80 75 16 265 8 345 -16z m569 -751 c7 -12 -23 -52 -39 -52 -26 0 -29 23 -5 42 24 20 36 22 44 10z m-530 -661 c11 -13 15 -27 11 -44 l-7 -26 34 5 c24 4 38 1 47 -10 17 -20 7 -46 -18 -46 -32 0 -35 -31 -4 -57 l28 -23 -19 -15 c-22 -16 -102 -20 -125 -6 -15 10 -59 115 -68 162 -4 23 1 30 39 53 52 31 60 32 82 7z m-4109 -407 c85 -21 133 -53 255 -169 93 -88 116 -105 171 -124 75 -25 184 -28 274 -7 33 8 62 13 64 10 2 -2 10 1 18 7 7 6 13 9 13 5 0 -3 0 -9 0 -13 0 -5 -3 -8 -7 -9 -5 0 -30 -11 -58 -23 -80 -36 -153 -51 -250 -52 -114 -2 -164 17 -300 113 -134 95 -203 129 -274 135 -79 7 -153 -17 -187 -62 -40 -53 -60 -156 -45 -232 2 -9 0 -13 -6 -13 -5 0 -8 3 -8 8 -1 4 -7 18 -14 31 -7 13 -15 59 -18 102 -11 155 59 260 200 300 64 18 70 17 172 -7z m3320 -419 c0 -5 -24 -12 -52 -15 -57 -5 -93 -28 -93 -60 0 -25 2 -25 48 -1 32 16 85 28 146 34 28 3 31 -21 4 -32 -13 -5 -44 -13 -70 -16 -55 -7 -99 -37 -82 -55 9 -9 27 -8 74 4 120 31 166 20 238 -58 48 -52 48 -85 0 -39 -26 25 -36 28 -92 27 -34 -1 -80 -10 -101 -19 -22 -9 -76 -28 -120 -41 -96 -30 -146 -26 -244 18 -53 23 -70 27 -88 19 -26 -12 -93 -6 -169 15 -69 20 -242 21 -276 3 -14 -8 -41 -23 -59 -33 -35 -20 -85 -24 -101 -8 -14 14 16 66 55 96 19 15 37 26 40 26 3 0 29 14 57 30 58 34 69 36 130 14 31 -11 78 -16 154 -16 147 1 254 -19 284 -54 32 -36 48 -25 56 39 9 66 23 81 108 113 64 24 153 29 153 9z m160 -66 c3 -4 1 -10 -5 -14 -13 -8 -52 13 -45 25 6 9 43 2 50 -11z"/>
<path d="M4522 4315 c-29 -22 -52 -67 -52 -105 0 -107 152 -267 204 -214 15 15 15 18 1 40 -13 21 -13 24 2 32 12 7 14 18 10 41 -5 26 -2 34 19 48 14 9 30 27 35 40 7 20 15 23 46 21 32 -3 38 0 38 17 0 16 -18 27 -84 54 -101 40 -185 50 -219 26z m153 -75 c15 -6 23 -15 20 -21 -4 -6 -13 -8 -21 -5 -7 3 -26 -5 -41 -18 l-26 -23 16 -41 c23 -57 5 -62 -27 -8 -31 54 -32 66 -5 100 22 28 42 32 84 16z"/>
<path d="M5198 4250 c-50 -9 -76 -34 -92 -89 -11 -39 -11 -52 1 -89 19 -54 45 -72 104 -72 59 0 103 33 120 90 10 33 9 44 -14 94 -18 38 -34 59 -52 66 -15 6 -27 9 -28 9 -1 -1 -19 -5 -39 -9z m15 -66 c8 -9 -45 -74 -55 -68 -10 6 -1 42 14 62 11 13 31 16 41 6z"/>
</g>
</g>
</svg>
