<?xml version="1.0" standalone="no"?>
<!DOCTYPE svg PUBLIC "-//W3C//DTD SVG 1.1//EN"
 "http://www.w3.org/Graphics/SVG/1.1/DTD/svg11.dtd">
<!-- Created with svg_stack (http://github.com/astraw/svg_stack) -->
<svg xmlns:sodipodi="http://sodipodi.sourceforge.net/DTD/sodipodi-0.dtd" xmlns="http://www.w3.org/2000/svg" version="1.1" width="288.0" height="288.0">
  <defs/>
  <g id="id0:id0" transform="matrix(1.25,0,0,1.25,0.0,0.0)"><g transform="translate(0.000000,230.400000) scale(0.040000,-0.040000)" fill="#000000" stroke="none">
<path d="M1895 4314 c-177 -39 -231 -61 -390 -156 -407 -242 -426 -258 -620 -502 -124 -156 -178 -233 -277 -400 -22 -37 -33 -46 -55 -47 -108 -3 -229 -114 -300 -274 -48 -111 -59 -183 -52 -345 7 -163 20 -205 98 -320 45 -66 64 -106 85 -180 38 -132 54 -169 95 -212 42 -46 59 -47 95 -9 27 28 30 29 52 15 27 -18 84 -15 95 6 5 8 14 28 19 44 10 26 12 27 33 14 23 -16 33 -29 106 -150 54 -88 142 -198 203 -255 42 -38 70 -57 196 -137 l43 -27 -25 -30 c-14 -16 -40 -60 -58 -97 -26 -56 -33 -82 -36 -155 -5 -104 8 -161 50 -212 30 -36 105 -76 168 -90 66 -14 209 -13 327 2 145 20 176 14 254 -50 108 -87 130 -100 185 -105 43 -4 58 0 85 19 23 16 44 22 71 20 33 -2 43 3 70 33 l31 35 41 -29 c22 -17 45 -30 50 -30 25 0 67 47 75 82 26 113 -73 251 -237 333 -29 14 -50 30 -47 35 3 5 137 9 298 9 270 0 349 5 482 30 28 5 88 15 135 21 49 7 108 22 140 38 30 14 96 40 145 58 50 18 117 42 150 54 90 33 162 18 232 -48 17 -15 36 -47 42 -70 22 -78 56 -86 154 -34 l48 26 26 -33 c36 -45 66 -55 109 -35 25 12 37 25 41 46 8 38 16 41 53 21 l31 -18 20 24 c24 29 24 57 0 97 -24 40 -70 68 -146 89 -72 21 -107 51 -130 113 -10 26 -24 55 -33 64 -20 23 -11 41 40 79 24 18 58 52 76 76 36 48 56 52 142 32 132 -31 213 -37 325 -23 212 27 323 67 439 158 49 39 89 116 80 154 -20 84 -74 122 -174 122 -57 0 -62 2 -78 30 -22 39 -37 43 -74 24 -28 -15 -31 -14 -52 4 -11 11 -33 23 -48 28 -42 13 -35 26 23 41 39 10 61 11 82 3 59 -20 83 -13 124 36 35 41 41 45 71 39 18 -3 39 -8 47 -11 7 -3 28 8 46 24 31 27 39 29 86 25 84 -9 136 4 180 42 65 55 87 121 100 295 11 137 6 179 -28 248 -66 135 -173 153 -391 67 -98 -39 -121 -41 -228 -21 -91 18 -190 22 -290 12 -121 -12 -173 22 -219 144 -33 86 -62 131 -109 167 -107 81 -259 73 -375 -20 -57 -46 -83 -51 -159 -28 -74 23 -191 28 -297 12 -40 -6 -78 -8 -83 -5 -20 13 -146 -27 -171 -54 -27 -30 -158 -220 -201 -294 -18 -31 -35 -48 -47 -48 -11 0 -28 -5 -38 -12 -15 -9 -28 -9 -58 1 -98 32 -180 52 -267 66 -52 8 -109 22 -128 29 -46 20 -112 92 -132 146 -10 25 -27 56 -39 69 -24 25 -127 81 -151 81 -29 0 -56 36 -72 98 -20 83 -14 104 41 136 93 55 164 64 440 60 781 -13 1084 -18 1200 -17 209 2 381 49 457 126 39 38 55 82 38 102 -14 17 -98 25 -129 13 -51 -19 -184 -38 -197 -28 -6 6 -56 15 -110 20 -109 11 -134 15 -276 53 -154 41 -311 97 -608 217 -45 18 -111 43 -212 79 -85 29 -220 70 -268 80 -205 42 -253 48 -390 49 -80 0 -154 -2 -165 -4z m350 -88 c210 -19 400 -57 535 -107 95 -35 320 -123 357 -140 190 -86 475 -162 678 -180 212 -20 236 -20 282 -9 71 16 78 16 78 0 0 -9 -17 -21 -40 -28 -131 -43 -139 -44 -605 -53 -250 -5 -485 -11 -522 -15 -76 -6 -244 15 -348 46 -172 50 -249 62 -359 58 -119 -5 -175 -22 -282 -87 -127 -76 -181 -194 -158 -343 32 -206 192 -381 399 -437 41 -11 122 -23 180 -26 204 -12 284 -26 317 -56 12 -12 30 -46 38 -76 15 -50 15 -59 0 -109 -9 -31 -24 -102 -35 -158 -16 -86 -17 -115 -8 -172 14 -92 15 -96 34 -92 31 6 47 75 46 188 -3 215 83 387 222 445 31 13 42 26 62 73 93 213 143 286 218 317 17 7 79 21 137 31 l106 18 46 -18 c45 -17 75 -45 127 -120 31 -44 98 -92 112 -78 6 6 -2 28 -22 60 -17 29 -28 57 -24 63 9 15 64 5 144 -26 35 -14 70 -23 77 -20 17 6 16 40 -2 75 -8 16 -12 37 -8 47 25 72 111 86 185 30 48 -37 103 -116 135 -195 27 -66 14 -76 -51 -38 -64 37 -133 36 -189 -3 -61 -42 -110 -90 -141 -138 -23 -34 -26 -45 -16 -62 6 -12 15 -21 19 -21 5 0 34 24 64 54 61 59 143 110 195 121 25 5 46 1 85 -18 78 -37 114 -40 218 -17 51 11 119 20 151 20 79 0 200 -26 272 -58 32 -14 67 -25 78 -25 10 1 51 18 92 37 164 79 266 73 324 -18 56 -90 67 -189 33 -296 -32 -99 -72 -136 -179 -170 -37 -12 -51 -12 -90 0 -114 32 -142 25 -288 -71 l-91 -60 -66 -1 c-59 -1 -73 3 -114 30 -27 17 -84 51 -129 76 -77 44 -85 46 -158 46 -90 0 -138 -17 -260 -93 -133 -82 -205 -109 -325 -117 -195 -14 -293 41 -344 194 -9 27 -14 52 -12 56 10 17 -8 40 -31 40 -26 0 -26 2 -28 -72 -6 -160 100 -320 259 -394 162 -75 269 -74 504 5 143 48 208 44 359 -25 90 -41 216 -74 286 -74 34 0 79 12 148 40 113 45 163 50 202 19 29 -23 33 -47 12 -87 -37 -70 -126 -124 -266 -162 -75 -20 -105 -23 -265 -21 -99 1 -207 6 -240 11 -65 10 -196 0 -335 -25 -125 -22 -220 -29 -260 -18 -48 12 -82 6 -78 -15 5 -26 87 -42 216 -43 62 -1 114 -5 117 -9 7 -11 -46 -57 -100 -86 -47 -25 -59 -27 -195 -29 -163 -3 -220 -11 -220 -30 0 -14 11 -19 67 -30 46 -9 50 -22 17 -57 -96 -100 -292 -157 -571 -165 -150 -5 -183 -3 -260 15 -48 11 -119 25 -158 32 -88 14 -152 54 -256 162 -97 99 -134 106 -89 18 27 -53 26 -118 -3 -161 -31 -47 -94 -76 -211 -95 -82 -14 -110 -15 -165 -5 -80 14 -230 0 -270 -25 -35 -22 -71 -56 -71 -66 0 -13 33 -10 55 5 53 36 180 40 219 8 23 -20 193 -99 235 -111 23 -6 80 -15 126 -21 102 -11 160 -30 219 -69 96 -65 170 -188 131 -220 -12 -10 -19 -6 -41 17 -14 15 -31 40 -36 56 -14 40 -35 33 -60 -20 -33 -68 -48 -73 -96 -35 -22 18 -47 32 -56 32 -17 0 -36 -29 -36 -57 0 -11 -6 -28 -14 -38 -13 -17 -18 -12 -79 71 -98 134 -125 142 -327 100 l-115 -25 -70 30 c-38 16 -76 29 -83 29 -7 0 -30 -11 -50 -25 -49 -33 -83 -32 -126 5 -47 41 -68 106 -56 169 38 203 188 352 457 457 55 21 92 41 90 47 -8 24 -192 6 -286 -27 -25 -9 -76 -16 -120 -16 -99 0 -158 28 -250 119 -204 202 -309 450 -351 831 -13 111 -34 180 -57 180 -7 0 -30 -18 -50 -41 -20 -22 -49 -47 -64 -55 -37 -19 -100 -18 -143 2 -46 22 -66 13 -66 -30 0 -43 46 -86 93 -86 78 0 167 -49 154 -84 -4 -9 -43 -33 -87 -53 -107 -48 -108 -67 -3 -79 84 -10 106 -27 122 -95 5 -19 10 -41 12 -49 3 -9 -4 -15 -20 -16 -25 -1 -41 -19 -41 -46 0 -27 -18 -31 -46 -9 -15 12 -37 21 -50 21 -29 0 -64 -33 -64 -59 0 -11 -5 -23 -10 -26 -15 -9 -47 71 -55 140 -7 63 -35 142 -64 184 -39 56 -89 159 -104 217 -19 67 -14 116 21 214 11 30 31 93 46 140 30 101 62 151 119 187 50 31 133 36 182 10 51 -26 97 -82 110 -134 18 -71 41 -69 49 6 8 71 3 94 -41 186 -44 92 -43 113 9 172 55 62 137 175 173 236 33 57 51 53 25 -6 -10 -23 -29 -89 -41 -147 -40 -192 -21 -493 40 -648 68 -171 153 -302 265 -409 71 -68 100 -87 231 -152 134 -67 193 -86 211 -68 13 13 -6 37 -33 42 -117 25 -374 235 -484 397 -96 140 -163 314 -177 458 -11 115 -3 179 54 419 72 299 152 429 355 573 136 97 323 175 471 197 40 6 100 15 133 21 52 8 129 6 250 -4z m-134 -947 c58 -29 98 -68 125 -121 61 -120 -17 -143 -130 -38 -95 88 -129 156 -88 179 19 11 40 7 93 -20z m3044 -809 c10 -16 -16 -43 -28 -31 -11 11 -2 41 12 41 5 0 13 -5 16 -10z m-750 -19 c3 -5 1 -13 -5 -16 -15 -9 -43 3 -35 15 8 13 32 13 40 1z m-138 -75 c-8 -20 -36 -21 -43 -1 -4 8 0 22 7 31 11 13 14 13 27 0 8 -8 12 -22 9 -30z m323 9 c10 -12 9 -16 -4 -21 -18 -7 -49 13 -40 27 8 14 30 11 44 -6z m386 4 c9 -16 -12 -33 -31 -25 -14 5 -15 9 -5 21 15 18 26 19 36 4z m-583 -65 c38 -25 41 -44 8 -44 -10 0 -26 -9 -36 -20 -22 -24 -36 -25 -76 -5 l-29 16 31 39 c38 47 51 49 102 14z m-206 1 c3 -9 19 -23 35 -31 16 -9 27 -18 23 -22 -15 -15 -125 -34 -187 -33 -71 2 -67 4 -121 -61 l-22 -27 -55 11 c-94 18 -187 47 -200 63 -14 17 -14 17 58 15 29 -1 74 3 100 9 26 5 83 14 128 20 54 6 100 20 140 39 68 34 92 38 101 17z m497 -16 c-3 -5 -10 -7 -15 -3 -5 3 -7 10 -3 15 3 5 10 7 15 3 5 -3 7 -10 3 -15z m-75 -88 c30 -14 13 -26 -39 -29 -51 -3 -57 -1 -82 29 -15 18 -25 36 -22 40 4 6 100 -21 143 -40z m-184 -11 c-5 -8 -11 -8 -17 -2 -6 6 -7 16 -3 22 5 8 11 8 17 2 6 -6 7 -16 3 -22z m-391 -41 c-3 -5 -10 -7 -15 -3 -5 3 -7 10 -3 15 3 5 10 7 15 3 5 -3 7 -10 3 -15z m676 -34 c0 -19 -20 -29 -32 -17 -8 8 -7 16 2 26 14 17 30 12 30 -9z m-636 -584 c45 -38 61 -132 26 -151 -44 -24 -15 -50 35 -31 22 9 163 -15 182 -31 7 -6 13 -8 13 -4 0 4 14 -1 30 -9 17 -9 28 -20 25 -25 -9 -15 -26 -12 -47 6 -24 23 -44 6 -52 -45 -11 -74 -53 -76 -83 -3 -14 34 -23 38 -54 21 -11 -6 -44 -17 -72 -24 -53 -14 -77 -7 -77 20 0 6 -22 37 -48 67 -57 64 -85 140 -61 163 25 25 131 73 148 68 9 -3 24 -13 35 -22z"/>
<path d="M3430 3162 c-47 -23 -75 -69 -90 -146 -12 -62 -8 -92 10 -81 5 3 24 39 44 80 38 79 51 91 115 101 46 7 64 24 55 48 -8 22 -88 21 -134 -2z"/>
<path d="M3512 3055 c-56 -25 -79 -120 -36 -156 22 -18 17 -27 -30 -48 -24 -10 -49 -28 -55 -39 -15 -29 -14 -35 7 -27 9 4 82 10 162 14 136 6 145 7 145 26 0 14 -14 26 -45 41 -49 23 -50 26 -31 66 21 42 7 93 -33 117 -39 25 -41 25 -84 6z"/>
<path d="M5326 2818 c-22 -31 -21 -33 19 -57 22 -13 35 -28 35 -41 0 -29 30 -38 46 -15 22 30 16 62 -17 100 -36 40 -61 44 -83 13z"/>
<path d="M4905 2735 c-30 -29 -32 -54 -5 -83 25 -26 49 -28 56 -4 3 9 14 33 24 53 14 27 16 39 7 48 -19 19 -56 13 -82 -14z"/>
<path d="M3337 1984 c-13 -14 -7 -26 46 -81 81 -86 212 -142 248 -106 21 21 1 39 -57 52 -79 17 -130 44 -185 97 -25 24 -48 41 -52 38z"/>
</g>
</g>
</svg>
