<?xml version="1.0" standalone="no"?>
<!DOCTYPE svg PUBLIC "-//W3C//DTD SVG 1.1//EN"
 "http://www.w3.org/Graphics/SVG/1.1/DTD/svg11.dtd">
<!-- Created with svg_stack (http://github.com/astraw/svg_stack) -->
<svg xmlns:sodipodi="http://sodipodi.sourceforge.net/DTD/sodipodi-0.dtd" xmlns="http://www.w3.org/2000/svg" version="1.1" width="542.0" height="512.0">
  <defs/>
  <g id="id0:id0" transform="matrix(1.25,0,0,1.25,0.0,0.0)"><g transform="translate(0.000000,409.600000) scale(0.040000,-0.040000)" fill="#ffffff" stroke="none">
<path d="M0 5120 l0 -5120 5420 0 5420 0 0 5120 0 5120 -5420 0 -5420 0 0 -5120z m5770 4879 c175 -11 420 -40 590 -70 106 -18 154 -28 355 -74 320 -72 737 -218 1082 -379 313 -145 707 -378 938 -555 33 -25 78 -58 100 -73 70 -48 347 -283 491 -418 111 -103 378 -390 418 -448 l29 -43 -21 -21 c-19 -19 -24 -20 -46 -9 -13 8 -60 57 -104 110 -139 167 -483 497 -695 665 -160 127 -176 139 -407 297 -201 138 -600 362 -798 448 -189 82 -319 134 -427 171 -234 80 -280 94 -495 150 -47 13 -105 29 -130 36 -25 7 -65 16 -90 20 -42 5 -140 24 -321 59 -41 8 -129 20 -195 25 -65 5 -177 16 -249 25 -177 20 -686 20 -890 -1 -82 -8 -193 -19 -245 -24 -215 -22 -753 -134 -888 -184 -20 -8 -111 -38 -202 -67 -91 -28 -208 -70 -260 -91 -52 -22 -153 -64 -225 -93 -151 -62 -566 -271 -615 -310 -8 -6 -55 -36 -105 -65 -105 -62 -241 -154 -375 -253 -91 -67 -146 -112 -319 -256 -116 -97 -430 -400 -458 -443 -27 -41 -61 -50 -83 -23 -22 27 -1 63 93 161 98 104 372 356 478 440 196 158 241 192 350 267 196 134 187 128 474 298 131 77 438 226 604 294 86 35 179 72 206 84 68 27 411 135 510 160 81 20 236 57 355 85 84 20 225 45 320 57 41 5 127 15 190 23 105 14 337 32 500 40 95 5 382 -3 560 -15z m-3849 -2962 c19 -13 86 -60 149 -104 63 -43 160 -110 215 -148 55 -38 130 -89 166 -114 37 -25 121 -83 188 -129 67 -45 154 -105 194 -133 39 -27 122 -84 182 -125 61 -41 151 -103 200 -137 50 -35 140 -97 200 -138 210 -144 240 -165 305 -211 83 -58 197 -137 280 -194 207 -143 258 -178 391 -271 168 -117 175 -124 159 -152 -15 -30 -48 -19 -145 48 -44 30 -210 145 -370 256 -159 110 -323 223 -363 250 -39 28 -123 85 -185 128 -61 43 -137 94 -167 115 -30 20 -149 102 -265 182 -246 170 -308 213 -380 260 -29 19 -111 75 -182 123 -70 48 -189 130 -263 180 -74 51 -190 131 -258 177 -132 90 -149 108 -132 140 14 26 39 25 81 -3z m6859 -102 c29 -35 -1 -64 -255 -245 -88 -63 -223 -160 -300 -216 -77 -57 -176 -128 -220 -160 -44 -31 -107 -77 -140 -101 -77 -57 -279 -204 -469 -341 -81 -59 -180 -131 -220 -160 -39 -29 -82 -60 -96 -70 -24 -16 -127 -91 -290 -210 -41 -31 -95 -70 -120 -88 -25 -18 -97 -71 -160 -118 -130 -96 -160 -111 -186 -91 -28 20 -6 55 73 113 150 111 216 159 393 287 102 73 201 145 220 160 19 14 82 60 140 102 220 159 266 193 300 218 42 32 255 187 495 360 64 46 239 174 318 233 40 29 83 60 97 70 14 9 81 58 150 108 239 174 246 178 270 149z m-7672 -571 c51 -28 615 -364 672 -399 19 -12 62 -38 95 -57 56 -33 1510 -901 1640 -980 33 -20 104 -63 159 -95 383 -226 623 -373 640 -391 14 -16 15 -24 6 -41 -19 -36 -43 -27 -208 73 -48 29 -108 64 -132 78 -39 22 -149 87 -630 374 -58 35 -141 84 -185 109 -44 26 -93 56 -110 66 -37 24 -934 563 -1185 712 -102 61 -207 125 -235 142 -43 27 -80 49 -208 122 -140 80 -413 252 -420 264 -15 25 -1 49 28 49 15 0 47 -12 73 -26z m8520 -166 c7 -7 12 -19 12 -28 0 -30 -5 -33 -355 -230 -66 -37 -136 -76 -155 -87 -19 -11 -165 -93 -325 -183 -159 -89 -396 -222 -525 -295 -129 -72 -266 -149 -305 -170 -38 -21 -115 -64 -170 -95 -55 -31 -131 -74 -170 -95 -94 -50 -370 -205 -700 -391 -148 -83 -299 -166 -333 -183 l-64 -32 -19 17 c-25 22 -24 36 4 61 12 11 155 93 317 183 162 90 372 207 465 260 94 53 199 113 235 132 109 60 158 87 350 196 102 58 210 118 240 135 30 16 118 64 195 107 77 43 241 134 365 203 124 69 275 153 335 187 263 149 540 303 559 310 29 12 30 12 44 -2z m-9176 -597 c68 -32 276 -134 463 -226 187 -92 419 -205 515 -252 96 -47 272 -133 390 -191 118 -57 278 -135 355 -172 77 -37 253 -123 390 -190 138 -67 311 -152 385 -187 227 -110 400 -193 515 -248 357 -171 482 -234 494 -249 21 -26 2 -51 -37 -50 -32 2 -40 6 -337 149 -99 48 -238 116 -310 150 -71 35 -319 156 -550 270 -231 114 -505 249 -610 300 -104 51 -282 137 -395 192 -113 55 -257 125 -320 156 -63 30 -200 96 -305 147 -104 51 -244 118 -310 150 -510 245 -495 237 -495 264 0 20 19 43 37 46 1 0 58 -26 125 -59z m10066 -184 c8 -39 -12 -50 -213 -127 -60 -23 -130 -50 -155 -60 -25 -10 -72 -28 -105 -40 -33 -12 -80 -30 -105 -40 -68 -27 -118 -46 -195 -75 -38 -14 -90 -34 -115 -44 -25 -10 -72 -28 -105 -40 -33 -12 -79 -31 -103 -42 -23 -10 -47 -19 -53 -19 -6 0 -25 -6 -42 -14 -18 -8 -63 -26 -102 -41 -38 -14 -90 -35 -115 -45 -25 -10 -94 -37 -155 -60 -60 -23 -148 -57 -195 -75 -47 -19 -115 -45 -152 -59 -38 -14 -96 -37 -130 -50 -35 -14 -128 -50 -208 -81 -80 -31 -190 -73 -245 -95 -173 -67 -976 -377 -1090 -420 -231 -88 -257 -93 -279 -58 -18 29 9 45 190 114 93 36 214 82 269 104 55 21 150 57 210 80 61 23 162 62 225 87 63 25 156 61 205 80 50 19 158 61 240 93 269 105 587 228 790 305 66 25 136 52 155 60 19 7 85 33 145 55 61 23 148 57 195 75 47 19 114 45 150 58 36 14 115 44 175 67 61 23 137 53 170 65 57 22 113 44 350 135 129 49 306 117 325 124 30 10 65 1 68 -17z m-4979 -97 c107 -34 181 -79 261 -160 124 -123 184 -263 184 -430 1 -179 -66 -342 -188 -457 -129 -123 -271 -178 -456 -176 -287 3 -505 160 -597 432 -22 64 -26 94 -26 191 0 97 4 128 27 196 71 220 274 390 511 428 63 10 220 -3 284 -24z m-155 -1682 c15 -23 25 -61 66 -253 23 -105 48 -222 80 -365 11 -47 28 -130 40 -185 21 -101 40 -195 79 -380 11 -55 30 -143 41 -195 21 -103 48 -235 80 -387 12 -54 29 -136 40 -183 10 -47 28 -129 39 -183 58 -276 207 -969 241 -1117 33 -148 34 -159 15 -180 l-18 -20 -734 0 c-487 0 -741 3 -754 10 -29 16 -29 15 45 355 15 66 33 152 41 190 8 39 39 183 69 320 81 365 98 443 155 710 25 113 44 199 97 430 20 88 42 187 50 220 12 56 22 102 75 338 11 50 27 124 35 162 8 39 21 95 29 125 7 30 23 100 35 155 25 116 55 252 76 345 16 66 37 110 54 110 5 0 16 -10 24 -22z m-829 -63 l25 -24 0 -661 c0 -437 -4 -668 -10 -681 -6 -10 -18 -19 -26 -19 -22 0 -155 53 -459 185 -55 23 -158 67 -230 98 -116 49 -397 167 -695 294 -58 25 -118 50 -135 58 -80 34 -242 103 -460 195 -294 125 -610 258 -730 309 -133 56 -283 119 -340 143 -126 51 -135 57 -135 82 0 14 8 30 18 35 11 7 539 10 1585 11 l1568 0 24 -25z m4813 -7 c6 -6 12 -17 12 -26 0 -17 -28 -52 -42 -52 -8 0 -168 -66 -508 -210 -173 -73 -452 -190 -670 -282 -52 -22 -171 -73 -265 -113 -93 -40 -298 -128 -455 -195 -157 -66 -325 -138 -375 -160 -49 -21 -155 -66 -235 -100 -80 -34 -185 -79 -235 -100 -386 -165 -399 -170 -420 -150 -12 13 -15 106 -15 683 -1 733 -3 711 57 719 68 10 3139 -5 3151 -14z"/>
</g>
</g>
  <g id="id1:id1" transform="matrix(1.25,0,0,1.25,0.0,0.0)"><g transform="translate(0.000000,409.600000) scale(0.040000,-0.040000)" fill="#fef100" stroke="none">
<path d="M5175 10029 c-298 -13 -569 -42 -830 -88 -181 -32 -545 -122 -720 -178 -207 -66 -280 -93 -430 -154 -82 -33 -163 -66 -179 -73 -66 -25 -460 -228 -576 -296 -296 -172 -580 -376 -854 -610 -146 -125 -471 -449 -481 -478 -9 -30 17 -70 52 -78 22 -6 30 -2 47 20 69 93 412 418 591 561 405 324 846 595 1246 763 329 139 357 149 759 277 106 34 303 82 455 111 260 49 292 54 400 64 61 6 139 16 175 22 36 5 243 12 461 15 326 4 418 2 520 -11 68 -9 178 -20 245 -26 66 -5 150 -16 185 -23 35 -8 123 -25 194 -37 195 -34 493 -113 740 -195 209 -70 247 -84 340 -125 22 -9 72 -30 110 -45 39 -15 156 -70 260 -123 492 -248 944 -564 1334 -933 199 -187 284 -275 389 -401 75 -91 104 -114 125 -102 20 11 57 47 57 55 0 31 -302 361 -480 524 -276 253 -578 491 -797 629 -43 27 -107 68 -143 91 -75 49 -359 208 -440 247 -133 64 -335 154 -450 200 -134 53 -457 161 -605 201 -528 144 -1188 220 -1700 196z"/>
<path d="M1826 7049 l-18 -31 19 -26 c10 -14 75 -63 143 -110 153 -104 350 -238 450 -307 41 -28 147 -101 235 -161 88 -60 192 -130 230 -157 39 -26 102 -69 140 -95 39 -26 106 -73 150 -103 96 -68 269 -186 385 -266 47 -32 144 -99 217 -150 72 -50 189 -131 260 -179 70 -48 155 -106 188 -129 226 -158 270 -185 302 -185 27 0 34 5 39 26 4 14 3 34 -2 44 -7 14 -1068 758 -1379 966 -27 19 -78 53 -112 76 -34 24 -119 83 -190 131 -70 49 -186 129 -258 178 -115 80 -180 124 -304 208 -19 13 -125 86 -235 162 -110 77 -209 139 -221 139 -13 0 -28 -12 -39 -31z"/>
<path d="M8732 6960 c-12 -5 -85 -56 -162 -112 -78 -57 -151 -110 -163 -118 -13 -8 -57 -40 -98 -70 -41 -30 -117 -85 -169 -124 -52 -38 -114 -83 -138 -100 -181 -133 -331 -242 -421 -306 -34 -25 -97 -70 -139 -101 -42 -31 -142 -104 -222 -162 -80 -59 -176 -129 -215 -157 -38 -28 -122 -88 -185 -134 -63 -47 -133 -97 -154 -113 -22 -15 -67 -48 -100 -73 -34 -25 -87 -63 -118 -84 -32 -22 -81 -60 -110 -87 l-53 -47 15 -29 c11 -19 25 -29 45 -31 25 -2 69 26 270 172 132 97 298 218 368 268 70 51 149 109 175 128 26 19 93 67 147 107 55 40 174 127 265 193 91 67 176 129 190 138 32 21 339 243 405 293 55 41 205 149 452 325 170 122 206 161 184 203 -8 15 -36 34 -44 30 -1 0 -12 -4 -25 -9z"/>
<path d="M990 6391 c-21 -40 -12 -60 43 -95 28 -19 187 -114 352 -211 165 -98 419 -250 565 -338 572 -345 902 -544 1055 -635 88 -52 347 -206 575 -342 632 -375 692 -410 715 -410 12 0 28 12 38 30 15 25 16 33 5 51 -7 11 -247 161 -533 331 -286 171 -531 318 -545 327 -38 24 -207 125 -280 167 -36 20 -87 51 -115 69 -27 17 -183 111 -345 207 -162 97 -407 243 -545 325 -137 82 -385 229 -550 327 -165 98 -314 187 -331 197 -42 25 -90 25 -104 0z"/>
<path d="M9570 6213 c-8 -4 -82 -44 -165 -91 -285 -161 -561 -315 -795 -445 -129 -71 -309 -171 -400 -222 -91 -51 -196 -109 -235 -130 -38 -21 -82 -46 -97 -57 -14 -10 -28 -18 -31 -18 -3 0 -104 -56 -224 -123 -120 -68 -249 -141 -288 -162 -38 -21 -167 -93 -285 -160 -208 -118 -246 -139 -432 -239 -77 -42 -138 -93 -138 -115 0 -15 42 -51 60 -51 23 0 62 19 250 125 241 136 481 270 555 310 39 21 132 74 208 117 76 43 140 78 142 78 3 0 104 56 225 125 121 69 223 125 226 125 4 0 15 6 23 14 9 7 52 32 96 56 44 23 130 71 191 105 60 35 150 85 200 113 127 71 157 87 369 208 105 59 240 135 300 169 61 34 128 73 150 85 22 13 60 34 85 48 80 43 100 61 100 91 0 15 -5 32 -12 39 -12 12 -52 15 -78 5z"/>
<path d="M284 5645 c-30 -46 -8 -69 119 -129 131 -62 288 -138 552 -266 105 -51 240 -116 300 -145 61 -29 205 -99 320 -155 116 -56 287 -140 380 -185 94 -46 323 -158 510 -250 545 -268 884 -434 970 -475 44 -21 159 -76 255 -122 96 -47 192 -91 213 -99 35 -12 39 -12 63 12 23 23 24 28 12 53 -9 22 -41 42 -148 93 -257 124 -405 195 -505 243 -115 55 -339 163 -640 310 -212 103 -411 200 -727 354 -95 46 -285 139 -423 206 -137 67 -326 160 -420 205 -93 46 -304 149 -468 229 -165 80 -310 146 -323 146 -14 0 -30 -10 -40 -25z"/>
<path d="M10415 5439 c-27 -11 -90 -35 -140 -54 -49 -19 -137 -53 -195 -75 -58 -23 -123 -48 -145 -55 -22 -8 -98 -37 -170 -65 -204 -80 -362 -140 -369 -140 -3 0 -25 -9 -49 -19 -23 -10 -91 -38 -152 -61 -119 -45 -163 -62 -595 -229 -381 -147 -682 -263 -810 -313 -58 -22 -125 -48 -150 -58 -45 -17 -409 -157 -650 -250 -69 -27 -163 -63 -210 -81 -135 -51 -165 -79 -135 -125 19 -30 52 -31 125 -3 30 11 96 35 145 53 50 19 131 50 180 69 81 32 315 122 735 284 199 76 220 84 345 133 61 23 130 50 155 60 46 18 119 46 425 165 94 36 206 79 250 96 44 16 89 34 100 39 11 5 52 21 90 35 39 14 90 34 115 44 25 11 95 38 155 61 61 22 130 49 155 60 41 16 133 51 325 124 39 14 129 49 200 77 72 28 171 65 220 83 134 50 159 66 163 106 3 24 -2 38 -14 47 -23 17 -39 16 -99 -8z"/>
<path d="M5255 5361 c-262 -43 -474 -230 -541 -478 -18 -70 -20 -239 -3 -308 44 -181 173 -346 336 -428 270 -137 636 -62 812 167 130 169 178 393 122 576 -68 221 -220 377 -435 445 -84 27 -214 38 -291 26z"/>
<path d="M5315 3640 c-8 -16 -26 -80 -40 -142 -13 -62 -33 -155 -44 -205 -12 -51 -30 -133 -41 -183 -11 -49 -29 -130 -40 -180 -11 -49 -29 -130 -40 -180 -11 -49 -29 -132 -41 -182 -11 -51 -26 -120 -34 -153 -7 -33 -20 -89 -28 -125 -9 -36 -25 -107 -36 -157 -50 -224 -62 -278 -80 -360 -11 -49 -24 -113 -31 -143 -6 -30 -20 -95 -31 -145 -11 -49 -29 -130 -39 -180 -19 -91 -42 -196 -81 -367 -11 -51 -29 -133 -39 -183 -11 -49 -29 -133 -40 -185 -79 -357 -79 -357 -36 -385 20 -14 112 -15 764 -13 690 3 742 4 759 20 22 23 20 76 -6 188 -11 47 -39 171 -61 275 -23 105 -50 228 -60 275 -11 47 -29 130 -40 185 -12 55 -30 143 -41 195 -11 52 -29 133 -39 180 -23 105 -76 354 -120 570 -11 52 -30 140 -41 195 -12 55 -29 141 -40 190 -10 50 -27 133 -38 185 -12 52 -30 140 -41 195 -12 55 -29 138 -40 185 -10 47 -28 126 -39 175 -11 50 -30 137 -42 195 -34 164 -60 260 -76 276 -25 24 -61 17 -78 -16z"/>
<path d="M1378 3609 c-25 -14 -40 -46 -33 -70 8 -23 41 -41 195 -104 63 -25 201 -83 305 -127 378 -160 662 -281 760 -323 55 -23 219 -93 365 -155 146 -62 373 -159 505 -215 132 -56 281 -119 330 -140 164 -68 230 -96 250 -105 11 -5 70 -30 130 -55 61 -25 151 -64 200 -85 145 -62 163 -66 189 -41 l21 22 3 652 c2 458 0 663 -8 690 -21 72 96 67 -1637 67 -1033 -1 -1564 -4 -1575 -11z"/>
<path d="M6183 3588 c-12 -6 -27 -24 -32 -41 -15 -42 -15 -1313 0 -1355 6 -17 19 -34 29 -37 19 -6 136 36 305 110 55 24 150 64 210 90 61 26 124 52 140 60 17 7 59 25 95 40 36 15 79 33 95 40 43 19 1259 537 1395 595 63 26 187 78 275 115 88 36 192 80 230 97 39 17 106 45 150 64 44 18 118 49 165 68 46 20 89 36 94 36 17 0 66 53 66 70 0 9 -10 26 -23 38 l-23 22 -1575 -1 c-1088 0 -1581 -4 -1596 -11z"/>
</g>
</g>
</svg>
