<?xml version="1.0" standalone="no"?>
<!DOCTYPE svg PUBLIC "-//W3C//DTD SVG 1.1//EN"
 "http://www.w3.org/Graphics/SVG/1.1/DTD/svg11.dtd">
<!-- Created with svg_stack (http://github.com/astraw/svg_stack) -->
<svg xmlns:sodipodi="http://sodipodi.sourceforge.net/DTD/sodipodi-0.dtd" xmlns="http://www.w3.org/2000/svg" version="1.1" width="1136.0" height="1158.0">
  <defs/>
  <g id="id0:id0" transform="matrix(1.25,0,0,1.25,0.0,0.0)"><g transform="translate(0.000000,926.400000) scale(0.040000,-0.040000)" fill="#800000" stroke="none">
<path d="M10597 22790 c-23 -18 -40 -20 -220 -20 -179 0 -196 -2 -220 -20 -22 -18 -40 -20 -160 -20 -119 0 -137 -2 -160 -20 -21 -17 -41 -20 -141 -21 -98 -1 -119 -4 -140 -20 -19 -15 -40 -19 -99 -19 -59 0 -79 -4 -99 -20 -21 -16 -43 -20 -123 -21 -81 -2 -100 -5 -114 -21 -12 -14 -29 -18 -77 -18 -46 0 -68 -5 -87 -20 -18 -14 -40 -20 -80 -20 -39 0 -61 -6 -79 -20 -20 -15 -45 -20 -107 -23 -65 -3 -84 -8 -95 -22 -10 -14 -24 -18 -53 -17 -27 2 -48 -4 -65 -18 -19 -15 -41 -20 -82 -20 -44 0 -59 -4 -76 -22 -15 -16 -30 -21 -58 -20 -26 2 -47 -4 -65 -18 -19 -15 -41 -21 -81 -21 -44 -1 -61 -6 -81 -25 -21 -19 -33 -23 -59 -19 -25 5 -37 1 -60 -20 -22 -20 -34 -24 -60 -20 -25 5 -37 1 -60 -20 -22 -20 -34 -24 -60 -20 -25 5 -37 1 -60 -20 -22 -21 -34 -24 -61 -19 -27 5 -37 2 -51 -15 -10 -12 -30 -21 -44 -21 -15 0 -37 -11 -50 -25 -19 -20 -30 -24 -56 -19 -25 5 -36 1 -50 -15 -10 -12 -30 -21 -44 -21 -15 0 -36 -11 -49 -24 -18 -19 -30 -23 -56 -19 -26 4 -37 1 -51 -16 -10 -11 -30 -21 -45 -21 -14 0 -34 -9 -44 -20 -10 -11 -28 -20 -40 -20 -12 0 -32 -11 -45 -25 -19 -20 -30 -24 -56 -19 -25 5 -36 1 -50 -15 -10 -12 -30 -21 -45 -21 -14 0 -34 -9 -44 -20 -10 -11 -28 -20 -40 -20 -12 0 -30 -9 -40 -20 -10 -11 -28 -20 -40 -20 -12 0 -30 -9 -40 -20 -10 -11 -26 -20 -35 -20 -10 0 -29 -9 -43 -20 -14 -11 -32 -20 -40 -20 -8 0 -26 -9 -40 -20 -14 -11 -32 -20 -40 -20 -8 0 -26 -9 -40 -20 -14 -11 -32 -20 -40 -20 -8 0 -26 -9 -40 -20 -14 -11 -32 -20 -40 -20 -9 0 -28 -11 -44 -24 -15 -12 -34 -21 -41 -18 -7 2 -24 -6 -38 -19 -13 -12 -33 -23 -44 -24 -11 -1 -28 -9 -38 -18 -10 -9 -28 -17 -40 -17 -12 0 -26 -9 -32 -20 -6 -11 -21 -20 -33 -20 -13 0 -44 -19 -72 -44 -27 -25 -53 -42 -58 -39 -5 3 -22 -4 -38 -16 -15 -11 -37 -21 -48 -21 -11 0 -25 -9 -31 -20 -6 -11 -21 -20 -33 -20 -13 0 -43 -19 -70 -45 -26 -24 -53 -42 -60 -39 -7 2 -34 -16 -61 -40 -27 -24 -55 -42 -62 -39 -7 2 -21 -5 -31 -16 -9 -12 -27 -21 -39 -21 -13 0 -39 -17 -61 -41 -22 -22 -50 -42 -64 -43 -15 -2 -41 -19 -60 -40 -19 -20 -45 -39 -59 -41 -14 -1 -53 -30 -88 -63 -35 -33 -70 -58 -77 -56 -7 3 -30 -13 -52 -36 -21 -23 -50 -43 -63 -44 -14 -2 -51 -29 -83 -60 -33 -31 -66 -56 -75 -56 -10 0 -55 -36 -101 -80 -47 -44 -92 -80 -101 -80 -10 0 -44 -27 -76 -60 -33 -33 -68 -60 -79 -60 -12 0 -78 -57 -164 -140 -79 -77 -151 -140 -161 -140 -23 0 -970 -946 -970 -969 0 -9 -54 -74 -120 -143 -66 -69 -120 -132 -120 -139 0 -6 -36 -51 -80 -100 -44 -48 -80 -94 -80 -101 0 -8 -27 -44 -60 -79 -33 -35 -60 -71 -60 -80 0 -9 -36 -54 -80 -100 -44 -46 -80 -93 -80 -103 0 -11 -18 -37 -40 -58 -22 -22 -40 -49 -40 -60 0 -12 -18 -39 -40 -60 -22 -22 -40 -47 -40 -56 0 -8 -18 -37 -40 -63 -22 -26 -40 -54 -40 -61 0 -8 -18 -34 -40 -58 -22 -24 -40 -51 -40 -60 0 -9 -18 -36 -40 -60 -22 -24 -40 -53 -40 -64 0 -10 -18 -37 -40 -58 -23 -23 -40 -49 -40 -62 0 -12 -9 -29 -20 -39 -11 -9 -20 -25 -20 -35 0 -10 -18 -38 -40 -62 -22 -24 -40 -54 -40 -65 0 -11 -9 -28 -20 -38 -11 -9 -20 -27 -20 -40 0 -12 -9 -30 -20 -40 -11 -9 -20 -24 -20 -33 0 -9 -9 -27 -20 -41 -11 -14 -20 -33 -20 -42 0 -9 -18 -37 -40 -61 -22 -24 -40 -54 -40 -65 0 -11 -9 -28 -20 -38 -11 -9 -20 -27 -20 -40 0 -12 -9 -30 -20 -40 -11 -9 -20 -27 -20 -40 0 -12 -9 -30 -20 -40 -11 -9 -20 -27 -20 -40 0 -12 -9 -30 -20 -40 -11 -9 -20 -27 -20 -40 0 -12 -9 -30 -20 -40 -11 -9 -20 -27 -20 -40 0 -12 -9 -30 -20 -40 -11 -9 -20 -27 -20 -40 0 -12 -9 -30 -20 -40 -11 -9 -20 -27 -20 -40 0 -12 -9 -30 -20 -39 -13 -12 -19 -29 -18 -52 1 -21 -7 -44 -20 -61 -12 -15 -22 -34 -22 -42 0 -8 -9 -26 -20 -40 -11 -14 -20 -35 -20 -47 0 -12 -9 -29 -20 -39 -11 -9 -20 -27 -20 -40 0 -12 -9 -31 -21 -41 -16 -13 -20 -25 -16 -46 4 -20 -1 -37 -19 -61 -13 -18 -24 -42 -24 -54 0 -11 -9 -29 -21 -39 -16 -13 -20 -25 -15 -48 5 -23 0 -37 -19 -59 -16 -20 -24 -41 -23 -63 1 -21 -7 -44 -20 -61 -12 -15 -22 -37 -22 -49 0 -12 -9 -30 -21 -40 -17 -14 -20 -24 -15 -51 5 -27 2 -39 -19 -61 -21 -23 -25 -35 -20 -60 4 -26 0 -38 -20 -60 -21 -22 -25 -35 -21 -57 5 -22 0 -37 -20 -60 -20 -23 -24 -38 -20 -60 5 -22 0 -36 -19 -59 -20 -24 -25 -40 -25 -85 0 -40 -5 -62 -20 -81 -13 -15 -20 -38 -18 -57 1 -20 -6 -42 -20 -60 -17 -21 -22 -41 -22 -82 0 -40 -6 -62 -20 -80 -14 -19 -20 -41 -20 -80 0 -40 -6 -62 -20 -80 -14 -19 -20 -41 -20 -80 0 -40 -6 -62 -20 -80 -14 -19 -20 -41 -20 -80 0 -40 -6 -62 -20 -80 -16 -21 -20 -41 -20 -100 0 -60 -4 -80 -20 -100 -16 -21 -20 -41 -20 -100 0 -60 -4 -80 -20 -100 -17 -22 -20 -41 -20 -140 0 -100 -3 -118 -20 -140 -17 -22 -20 -41 -20 -140 0 -100 -3 -118 -20 -140 -18 -23 -20 -41 -20 -160 0 -120 -2 -138 -20 -160 -19 -24 -20 -41 -20 -260 0 -220 -1 -236 -20 -260 l-20 -26 0 -497 0 -497 20 -26 c19 -24 20 -40 20 -320 0 -279 1 -296 20 -320 18 -23 20 -40 20 -180 0 -139 2 -157 20 -180 17 -22 20 -40 20 -140 0 -99 3 -118 20 -140 17 -21 20 -40 20 -120 0 -79 3 -98 20 -120 16 -20 20 -40 20 -100 0 -59 4 -79 20 -100 16 -20 20 -40 20 -100 0 -59 4 -79 20 -100 14 -18 20 -40 20 -80 0 -39 6 -61 20 -80 16 -20 20 -42 22 -101 1 -65 5 -80 24 -101 18 -20 22 -32 17 -56 -4 -22 0 -38 16 -59 15 -21 21 -44 21 -83 0 -39 6 -61 20 -80 11 -14 20 -40 20 -60 0 -19 9 -45 20 -60 14 -18 20 -40 20 -80 0 -43 5 -59 24 -80 19 -21 24 -34 19 -60 -4 -26 1 -40 20 -63 18 -21 23 -37 20 -60 -4 -22 2 -38 21 -61 20 -24 25 -38 20 -60 -4 -22 0 -37 20 -60 20 -24 25 -38 20 -61 -5 -23 -1 -35 15 -48 12 -10 21 -28 21 -40 0 -12 9 -33 20 -47 11 -14 20 -40 20 -60 0 -23 9 -46 25 -65 19 -23 24 -37 19 -60 -5 -23 -1 -35 15 -48 12 -10 21 -30 21 -44 0 -15 11 -37 25 -50 20 -19 24 -30 19 -56 -5 -25 -1 -36 15 -50 12 -10 21 -30 21 -45 0 -14 9 -34 20 -44 11 -10 20 -26 20 -36 0 -10 11 -31 25 -47 19 -23 24 -37 19 -60 -5 -23 -1 -35 15 -48 12 -11 21 -30 21 -46 0 -17 7 -31 20 -38 13 -7 20 -21 20 -39 0 -15 9 -36 20 -46 11 -10 20 -28 20 -40 0 -12 9 -30 20 -40 11 -10 20 -28 20 -40 0 -12 9 -30 20 -40 11 -10 20 -26 20 -35 0 -10 9 -29 20 -43 11 -14 20 -32 20 -40 0 -8 9 -26 20 -40 11 -14 20 -32 20 -40 0 -8 9 -26 20 -40 11 -14 20 -34 20 -45 0 -10 9 -27 20 -37 11 -10 20 -28 20 -40 0 -12 9 -30 20 -40 11 -10 20 -25 20 -34 0 -9 18 -37 40 -61 22 -24 40 -52 40 -61 0 -9 9 -28 20 -42 11 -14 20 -32 20 -40 0 -8 9 -26 20 -40 11 -14 20 -31 20 -39 0 -8 18 -34 40 -58 22 -24 40 -52 40 -61 0 -9 9 -28 20 -42 11 -14 20 -32 20 -39 0 -8 18 -33 40 -56 22 -22 40 -49 40 -59 0 -10 18 -39 40 -63 22 -24 40 -52 40 -62 0 -10 9 -26 20 -35 11 -10 20 -28 20 -40 0 -13 16 -37 40 -59 22 -21 40 -47 40 -58 0 -12 26 -49 60 -84 33 -35 60 -72 60 -82 0 -11 18 -36 40 -56 22 -21 40 -47 40 -58 0 -12 33 -56 80 -105 44 -47 80 -92 80 -100 0 -9 27 -45 60 -79 33 -35 60 -71 60 -80 0 -10 36 -55 80 -100 44 -46 80 -91 80 -100 0 -10 54 -73 120 -142 66 -68 120 -132 120 -141 0 -23 987 -1009 1009 -1009 10 0 74 -54 142 -120 68 -66 131 -120 141 -120 9 0 54 -36 100 -80 46 -44 92 -80 103 -80 11 0 46 -27 79 -60 32 -33 66 -60 75 -60 9 0 45 -27 80 -60 36 -33 74 -60 85 -60 12 0 46 -25 80 -60 36 -38 67 -60 81 -60 13 0 37 -17 59 -40 21 -22 46 -40 58 -40 12 0 39 -18 60 -40 23 -23 49 -40 62 -40 14 0 38 -16 60 -40 22 -24 46 -40 60 -40 14 0 37 -16 60 -40 22 -24 46 -40 59 -40 12 0 30 -9 40 -20 9 -11 25 -20 35 -20 10 0 38 -18 62 -40 24 -22 54 -40 65 -40 11 0 28 -9 38 -20 9 -11 27 -20 38 -20 13 0 39 -18 61 -40 24 -25 49 -40 63 -40 14 0 29 -9 35 -20 7 -13 21 -20 38 -20 15 0 35 -9 45 -20 9 -11 24 -20 33 -20 9 0 27 -9 41 -20 14 -11 32 -20 40 -20 8 0 26 -9 40 -20 14 -11 32 -20 40 -20 8 0 26 -9 40 -20 14 -11 33 -20 42 -20 9 0 37 -18 61 -40 24 -22 54 -40 67 -40 12 0 27 -9 34 -21 7 -15 18 -20 34 -16 17 3 31 -4 45 -20 18 -20 28 -24 54 -19 26 5 37 1 56 -19 13 -14 32 -25 43 -25 10 0 30 -9 44 -20 14 -11 36 -20 49 -20 13 0 28 -9 34 -20 7 -13 21 -20 40 -20 19 0 33 -7 40 -20 7 -13 21 -20 38 -20 16 0 35 -9 46 -21 14 -17 25 -20 51 -16 26 4 38 0 56 -19 13 -13 34 -24 49 -24 14 0 34 -10 44 -21 14 -17 25 -20 51 -16 26 4 38 0 56 -19 13 -13 34 -24 49 -24 14 0 34 -10 44 -21 14 -17 25 -20 51 -16 26 4 38 0 56 -19 13 -13 34 -24 49 -24 14 0 34 -10 44 -21 14 -17 25 -20 52 -16 27 5 40 1 60 -18 20 -18 37 -24 66 -23 28 1 44 -5 59 -20 14 -16 30 -21 60 -20 29 1 45 -4 60 -20 14 -16 32 -22 62 -22 30 0 48 -6 60 -20 13 -16 29 -20 73 -20 41 0 63 -5 81 -20 15 -11 41 -20 60 -20 20 0 46 -9 60 -20 16 -13 41 -20 67 -20 29 0 47 -6 59 -20 13 -16 29 -20 80 -20 50 0 66 -4 80 -20 13 -16 29 -20 80 -20 50 0 66 -4 80 -20 13 -16 29 -20 80 -20 50 0 66 -4 80 -20 14 -17 29 -20 100 -20 70 0 85 -3 100 -20 14 -17 29 -20 100 -20 70 0 85 -3 100 -20 15 -17 29 -20 113 -20 81 0 100 -3 121 -20 22 -17 41 -20 127 -20 89 0 104 -2 119 -20 15 -18 29 -20 153 -20 121 0 139 -2 161 -20 23 -18 41 -20 200 -20 160 0 177 -2 200 -20 l26 -20 857 0 857 0 26 20 c23 18 40 20 200 20 159 0 177 2 200 20 22 18 40 20 160 20 119 0 137 2 160 20 21 17 40 20 120 20 79 0 98 3 120 20 21 17 40 20 121 20 84 0 98 3 113 20 15 17 30 20 99 20 66 0 86 4 107 20 20 16 40 20 101 20 64 0 79 3 93 20 14 16 30 20 80 20 51 0 67 4 80 20 14 16 30 20 80 20 51 0 67 4 80 20 14 16 30 20 80 20 51 0 67 4 80 20 12 14 30 20 59 20 26 0 51 7 67 20 18 15 40 20 81 20 44 0 59 4 76 22 15 17 30 21 60 20 29 -2 44 2 57 18 12 14 30 20 60 20 31 0 48 6 63 22 15 16 30 21 59 20 30 -2 45 3 60 20 16 16 31 21 59 20 29 -2 45 4 65 22 21 20 34 24 61 19 27 -4 38 -1 52 16 10 11 28 21 40 21 12 0 34 10 49 22 18 14 40 21 61 20 23 -2 39 4 51 18 10 11 27 20 39 20 13 0 35 11 51 24 21 17 36 22 60 19 23 -4 36 0 49 16 10 12 28 21 40 21 13 0 35 11 51 24 21 17 36 22 60 19 24 -4 36 0 53 20 13 15 29 23 40 20 11 -3 26 4 36 16 10 12 29 21 41 21 13 0 31 9 40 20 10 11 28 20 40 20 13 0 31 9 40 20 10 11 28 20 40 20 13 0 31 9 40 20 10 11 27 20 39 20 12 0 34 10 49 22 18 14 40 21 61 20 25 -2 39 4 55 22 13 14 28 22 39 19 11 -3 26 4 36 16 10 12 28 21 39 21 11 0 41 18 65 40 24 22 52 40 62 40 10 0 26 9 35 20 10 11 28 20 40 20 13 0 31 9 40 20 10 11 28 20 40 20 13 0 32 11 44 24 13 15 28 22 39 19 11 -3 26 4 36 16 10 12 28 21 40 21 12 0 42 18 65 40 24 22 51 40 61 40 10 0 26 9 35 20 10 11 28 20 41 20 14 0 38 16 61 40 21 22 47 40 58 40 11 0 39 18 64 40 24 22 52 40 62 40 9 0 25 9 34 20 10 11 28 20 41 20 14 0 38 16 61 40 22 23 47 40 60 40 12 0 38 17 60 40 21 22 47 40 57 40 11 0 49 27 84 60 35 33 72 60 83 60 10 0 35 18 56 40 21 22 47 40 58 40 11 0 49 27 84 60 35 33 71 60 81 60 9 0 43 27 76 60 33 34 68 60 79 60 12 0 54 33 101 80 44 44 89 80 99 80 10 0 74 54 143 120 68 66 132 120 142 120 24 0 1048 1023 1048 1048 0 10 45 65 100 122 55 56 100 111 100 120 0 10 36 55 80 100 44 45 80 90 80 100 0 10 36 55 80 100 44 45 80 91 80 102 0 10 18 36 40 57 22 21 40 47 40 58 0 11 27 49 60 84 39 40 58 69 55 79 -3 11 9 28 35 49 22 17 43 44 46 59 4 15 24 46 45 69 22 24 39 50 39 59 0 9 18 36 40 60 22 24 40 53 40 64 0 12 18 38 40 59 24 23 40 47 40 61 0 15 15 36 40 57 30 26 40 42 40 63 0 19 7 33 20 40 11 6 20 21 20 33 0 14 17 39 40 62 22 22 40 49 40 60 0 12 9 30 21 41 13 12 19 27 16 41 -3 16 3 27 19 38 14 9 24 25 24 39 0 12 9 31 20 41 11 10 20 28 20 40 0 11 18 39 41 60 30 30 39 46 36 63 -3 18 2 26 20 35 20 9 24 17 20 40 -3 23 1 31 20 40 20 9 24 16 19 39 -5 24 -1 31 20 40 21 10 25 17 20 40 -5 24 -1 31 20 40 21 10 25 17 20 40 -5 24 -1 31 20 40 21 10 25 17 20 40 -5 24 -1 31 20 40 21 10 25 17 20 40 -5 24 -1 31 20 40 21 10 25 17 20 39 -4 22 0 31 21 44 22 15 24 22 19 54 -5 32 -2 42 20 62 18 17 23 30 19 46 -4 18 0 26 21 35 21 10 25 17 20 39 -4 22 0 31 21 44 22 15 24 22 19 55 -5 33 -3 41 20 59 21 16 25 26 20 46 -5 21 -2 27 20 37 21 10 25 17 20 40 -4 22 0 31 20 45 23 15 26 21 20 59 -5 37 -2 44 21 59 23 15 25 22 20 60 -6 39 -4 45 20 60 22 15 25 22 20 56 -4 33 -1 42 20 59 19 15 24 26 19 43 -4 18 1 30 20 46 23 20 25 28 20 61 -5 33 -3 40 20 55 24 15 26 22 21 60 -6 39 -4 45 20 60 23 15 25 22 20 60 -6 38 -4 45 18 59 22 15 25 23 25 80 0 51 4 66 21 82 17 15 20 27 15 61 -5 36 -2 43 19 57 22 15 25 23 25 80 0 51 4 66 21 82 17 15 20 28 18 76 -2 48 1 62 20 82 20 21 22 33 19 85 -3 54 0 62 20 76 20 15 22 24 22 99 0 71 3 86 21 102 17 16 20 28 17 81 -3 56 0 64 20 79 22 15 23 22 21 115 -1 90 0 102 20 123 20 21 22 33 20 120 -1 87 0 99 20 120 20 22 22 33 20 140 -1 108 0 119 20 140 21 22 22 32 20 180 -1 147 0 159 20 180 l21 22 0 321 0 320 20 18 20 18 0 422 0 422 -20 26 c-19 24 -20 40 -20 280 0 239 -1 256 -20 280 -18 23 -20 40 -20 180 0 139 -2 157 -20 180 -17 22 -20 40 -20 140 0 99 -3 118 -20 140 -17 21 -20 40 -20 120 0 79 -3 98 -20 120 -17 21 -20 40 -20 120 0 79 -3 98 -20 120 -16 20 -20 41 -21 102 -1 63 -4 80 -20 93 -15 13 -19 30 -19 83 0 53 -4 69 -20 84 -16 14 -20 31 -20 75 0 42 -5 64 -20 83 -14 18 -20 40 -20 80 0 39 -6 61 -20 80 -15 18 -20 40 -20 81 0 43 -5 59 -21 75 -15 14 -22 33 -23 64 -1 27 -8 53 -19 64 -12 14 -17 36 -17 75 0 45 -5 60 -25 82 -21 22 -24 34 -19 61 4 26 1 37 -16 53 -16 15 -23 33 -24 66 -1 31 -7 50 -20 59 -13 9 -19 27 -20 60 -1 32 -7 50 -20 60 -13 9 -19 27 -20 59 -1 28 -8 54 -19 65 -9 11 -17 26 -17 34 0 8 -11 30 -24 48 -18 24 -23 41 -20 61 5 20 0 33 -16 48 -16 15 -23 33 -24 65 -1 27 -8 53 -19 64 -9 11 -17 26 -17 34 0 8 -11 30 -25 49 -17 23 -23 41 -18 57 4 17 -1 34 -16 53 -11 16 -21 36 -21 45 0 8 -9 23 -20 32 -11 10 -20 27 -20 39 0 12 -9 33 -20 47 -11 14 -20 32 -20 40 0 8 -9 26 -20 40 -11 14 -20 40 -20 60 0 19 -9 45 -20 60 -11 14 -20 32 -20 41 0 9 -9 24 -20 33 -11 10 -20 28 -20 40 0 13 -9 31 -20 40 -11 10 -20 28 -20 40 0 13 -9 31 -20 40 -11 10 -20 28 -20 40 0 13 -9 31 -20 40 -11 10 -20 28 -20 40 0 13 -9 31 -20 40 -11 10 -20 28 -20 40 0 13 -9 31 -20 40 -11 10 -20 28 -20 40 0 13 -9 31 -20 40 -11 10 -20 27 -20 39 0 12 -9 33 -20 47 -11 14 -20 32 -20 40 0 9 -18 33 -40 55 -22 21 -40 48 -40 59 0 11 -9 32 -20 46 -11 14 -20 32 -20 40 0 8 -9 26 -20 40 -11 14 -20 32 -20 40 0 9 -18 33 -40 55 -22 21 -40 48 -40 59 0 11 -9 32 -20 46 -11 14 -20 32 -20 40 0 9 -18 33 -40 55 -22 21 -40 48 -40 60 0 11 -18 38 -40 60 -22 21 -40 48 -40 60 0 11 -18 38 -40 60 -22 21 -40 48 -40 60 0 11 -18 38 -40 60 -22 21 -40 48 -40 60 0 12 -19 39 -45 63 -29 27 -43 48 -40 59 3 10 -16 38 -55 79 -33 35 -60 72 -60 82 0 10 -18 35 -40 55 -22 21 -40 47 -40 58 0 13 -32 54 -80 104 -44 45 -80 91 -80 101 0 10 -36 53 -80 97 -46 45 -80 87 -80 99 0 12 -49 69 -119 142 -66 67 -121 131 -123 142 -4 31 -987 1011 -1013 1011 -12 0 -66 46 -139 120 -75 75 -127 120 -140 120 -13 0 -53 32 -100 80 -48 49 -87 80 -100 80 -12 0 -45 25 -80 60 -35 36 -67 60 -80 60 -12 0 -45 25 -80 60 -35 36 -67 60 -80 60 -12 0 -45 25 -80 60 -33 34 -67 60 -79 60 -11 0 -38 18 -59 40 -22 22 -49 40 -60 40 -12 0 -39 18 -60 40 -22 22 -49 40 -60 40 -12 0 -39 18 -60 40 -23 23 -49 40 -62 40 -12 0 -29 9 -39 20 -9 11 -25 20 -35 20 -10 0 -38 18 -62 40 -24 22 -53 40 -64 40 -10 0 -37 18 -58 40 -22 22 -47 40 -57 40 -10 0 -26 9 -36 20 -10 11 -27 20 -37 20 -11 0 -31 9 -45 20 -14 11 -33 20 -42 20 -9 0 -37 18 -61 40 -24 22 -52 40 -61 40 -9 0 -24 9 -34 20 -10 11 -28 20 -40 20 -12 0 -30 9 -40 20 -10 11 -28 20 -40 20 -12 0 -30 9 -40 20 -10 11 -28 20 -40 20 -12 0 -30 9 -40 20 -10 11 -28 20 -40 20 -12 0 -30 9 -40 20 -10 11 -28 20 -40 20 -12 0 -30 9 -40 20 -10 11 -28 20 -40 20 -12 0 -30 9 -40 20 -10 11 -28 20 -40 20 -12 0 -30 9 -40 20 -10 11 -28 20 -40 20 -12 0 -30 9 -40 20 -10 11 -28 20 -40 20 -12 0 -30 9 -40 20 -10 11 -28 20 -40 20 -12 0 -30 9 -40 20 -10 11 -28 20 -40 20 -12 0 -30 9 -40 20 -10 11 -30 20 -44 20 -15 0 -35 9 -45 21 -14 16 -25 20 -50 15 -26 -5 -37 -1 -56 19 -13 14 -35 25 -50 25 -14 0 -34 9 -44 21 -14 16 -25 20 -50 15 -26 -5 -37 -1 -56 19 -13 14 -35 25 -50 25 -14 0 -34 9 -44 21 -13 16 -25 20 -48 15 -23 -5 -37 0 -61 20 -24 20 -38 25 -63 21 -25 -4 -37 0 -55 19 -13 13 -34 24 -49 24 -14 0 -34 9 -44 21 -14 17 -24 20 -51 15 -27 -5 -39 -2 -61 19 -23 21 -35 25 -60 20 -26 -4 -38 0 -60 20 -23 21 -35 25 -60 20 -26 -4 -38 0 -60 20 -22 20 -37 25 -81 25 -39 0 -62 6 -83 21 -19 15 -37 20 -56 16 -21 -4 -36 2 -57 19 -23 19 -40 24 -83 24 -40 0 -62 6 -84 21 -21 16 -37 20 -59 16 -24 -5 -36 -1 -57 18 -23 21 -37 25 -90 25 -49 0 -65 4 -73 17 -7 13 -27 18 -91 20 -64 3 -88 8 -108 23 -18 15 -40 20 -86 20 -47 0 -65 4 -77 18 -13 15 -33 19 -113 20 -81 2 -103 6 -123 22 -21 16 -41 20 -100 20 -57 0 -80 4 -98 18 -19 15 -44 19 -140 21 -98 1 -122 5 -142 21 -20 16 -43 18 -159 19 -118 1 -140 4 -161 21 -22 17 -43 19 -220 20 -179 0 -198 2 -221 20 l-25 20 -777 0 -777 0 -26 -20z m1041 -262 c7 -7 33 -15 60 -18 l47 -5 5 -166 c4 -137 8 -170 22 -185 14 -17 17 -52 18 -293 1 -247 -1 -275 -17 -293 -9 -11 -20 -40 -23 -65 -4 -41 -8 -48 -34 -54 -17 -5 -34 -15 -38 -24 -7 -12 -32 -15 -132 -15 -108 0 -126 -2 -149 -20 l-25 -20 -355 0 -354 0 -17 19 c-10 11 -30 21 -44 23 -19 2 -28 11 -33 32 -5 17 -15 34 -24 38 -12 8 -15 34 -15 152 0 128 -2 146 -20 168 -18 24 -20 43 -20 364 l-1 339 128 0 128 0 5 -428 5 -429 33 -29 32 -29 344 0 c275 0 346 3 355 13 7 10 12 152 13 463 l3 449 26 -3 c14 -2 31 4 39 12 15 19 22 20 38 4z m1050 -127 c34 -38 62 -75 62 -83 0 -7 45 -60 100 -117 55 -57 100 -111 100 -120 0 -9 54 -72 120 -140 66 -68 120 -131 120 -140 0 -9 43 -60 95 -113 141 -145 165 -137 165 55 0 101 2 116 20 132 18 16 20 31 20 120 0 90 2 104 21 121 18 16 20 29 18 104 l-2 85 63 3 c51 2 67 -1 84 -17 11 -10 32 -21 46 -23 23 -3 25 -8 28 -61 2 -46 -1 -63 -17 -84 -18 -22 -21 -40 -21 -120 0 -80 -3 -99 -20 -120 -17 -22 -20 -41 -20 -140 0 -100 -3 -118 -20 -140 -17 -22 -20 -41 -20 -121 0 -77 -3 -99 -17 -115 -13 -14 -19 -42 -23 -105 l-5 -87 -64 -3 c-54 -3 -67 0 -83 17 -10 12 -26 21 -35 21 -22 0 -73 49 -73 70 0 10 -45 61 -100 115 -64 64 -100 106 -100 120 0 14 -42 63 -120 141 -76 75 -120 127 -120 140 0 13 -39 59 -105 125 -72 71 -103 109 -100 120 7 20 -20 49 -43 49 -38 0 -43 -15 -49 -141 -4 -100 -9 -129 -24 -148 -16 -19 -19 -41 -19 -118 0 -80 -3 -99 -20 -120 -16 -20 -20 -41 -20 -100 0 -60 -4 -79 -22 -103 l-22 -30 -20 19 c-16 15 -39 21 -86 23 l-65 3 -5 78 c-5 72 -3 80 18 99 20 20 22 30 22 143 0 109 2 124 20 140 18 16 20 31 20 120 0 90 2 104 21 121 18 16 20 28 18 101 -3 76 -1 85 19 99 19 13 22 23 21 97 0 45 0 85 0 90 1 4 40 7 89 7 l87 0 63 -69z m-2818 -103 c4 -63 10 -91 23 -105 13 -15 17 -37 17 -95 0 -60 4 -80 20 -101 16 -20 20 -40 20 -100 0 -59 4 -79 20 -100 17 -21 20 -40 20 -120 0 -79 3 -98 20 -120 16 -20 20 -40 20 -99 l0 -74 -43 -49 c-40 -45 -47 -49 -84 -47 -27 2 -47 -4 -66 -18 -20 -16 -42 -21 -103 -22 -57 -1 -82 -6 -100 -20 -17 -14 -42 -19 -100 -20 -56 -1 -82 -6 -99 -19 -19 -16 -45 -18 -179 -20 l-156 -1 -25 24 c-14 12 -25 33 -25 44 0 12 -9 33 -20 47 -14 18 -20 40 -20 80 0 38 -6 62 -19 78 -10 14 -20 47 -23 77 -5 47 -2 57 21 83 14 16 35 29 47 29 12 0 33 9 48 21 18 14 37 19 63 17 32 -2 39 -7 41 -28 2 -14 12 -34 23 -46 15 -16 19 -37 21 -98 l1 -77 35 -35 c39 -39 47 -41 62 -14 10 18 21 20 109 20 83 0 102 3 124 20 20 16 40 20 104 20 48 0 84 5 91 12 7 7 12 43 12 94 0 66 -4 86 -20 107 -16 20 -20 40 -20 100 0 59 -4 79 -20 100 -17 21 -20 40 -20 120 0 79 -3 98 -20 120 -16 20 -20 40 -20 100 0 66 -3 79 -26 106 -27 32 -26 39 10 79 20 21 28 22 126 20 l105 -3 5 -87z m4648 -245 c6 -11 28 -19 58 -22 l49 -6 3 -38 c2 -27 -2 -45 -15 -59 -11 -12 -18 -37 -19 -65 -1 -31 -8 -50 -23 -64 -16 -16 -21 -32 -21 -75 0 -41 -5 -63 -20 -82 -12 -15 -20 -38 -18 -56 1 -20 -7 -43 -21 -63 -16 -22 -22 -39 -18 -56 5 -16 -1 -34 -18 -57 -19 -26 -25 -46 -25 -88 0 -39 -6 -61 -20 -79 -11 -15 -20 -41 -20 -60 0 -20 -9 -46 -20 -61 -13 -16 -20 -38 -18 -58 1 -23 -5 -41 -20 -57 -12 -13 -22 -31 -22 -40 0 -23 -16 -29 -30 -12 -9 10 -32 15 -74 15 -54 0 -65 4 -94 29 -39 36 -40 53 -6 76 23 15 25 22 23 74 -2 48 2 64 20 87 18 23 21 37 17 65 -5 32 -2 39 19 53 22 15 25 23 25 80 0 51 4 66 21 82 16 15 20 27 16 56 -4 30 0 41 20 60 21 20 24 29 19 65 -5 36 -2 43 21 58 23 15 25 22 20 60 -6 39 -4 45 20 60 23 15 25 21 19 61 -5 41 -4 46 20 56 18 9 25 19 23 37 0 14 -1 29 0 34 1 4 23 7 51 7 36 0 52 -5 58 -17z m-7079 -319 c18 -15 31 -35 31 -49 0 -12 9 -34 20 -48 11 -14 20 -32 20 -40 0 -8 9 -26 20 -40 11 -14 20 -32 20 -40 0 -8 9 -26 20 -40 11 -14 20 -31 20 -39 0 -8 11 -29 24 -47 18 -24 23 -41 19 -61 -4 -21 0 -33 16 -46 12 -11 21 -30 21 -46 0 -17 7 -31 20 -38 13 -7 20 -21 20 -40 0 -19 7 -33 20 -40 13 -7 20 -21 20 -40 0 -19 7 -33 20 -40 13 -7 20 -21 20 -39 0 -15 9 -36 20 -46 11 -10 20 -28 20 -40 0 -12 9 -30 20 -40 11 -10 20 -28 20 -40 0 -12 9 -30 20 -40 l20 -18 -23 -23 c-12 -13 -34 -24 -48 -24 -17 0 -32 -9 -42 -24 -12 -17 -22 -22 -41 -19 -18 4 -27 -1 -36 -16 -13 -26 -30 -19 -30 13 0 13 -9 31 -20 41 -11 10 -20 26 -20 37 0 10 -9 26 -20 35 -11 10 -20 28 -20 40 0 13 -9 31 -20 40 -11 10 -20 27 -20 39 0 12 -9 33 -20 47 -11 14 -20 32 -20 40 0 20 -70 87 -91 87 -9 0 -24 -9 -34 -20 -10 -11 -29 -20 -42 -20 -13 0 -31 -9 -40 -20 -10 -11 -30 -20 -45 -20 -17 0 -31 -7 -38 -20 -7 -13 -21 -20 -39 -20 -15 0 -36 -9 -46 -20 -10 -11 -28 -20 -40 -20 -12 0 -30 -9 -40 -20 -10 -11 -28 -20 -40 -20 -12 0 -30 -9 -40 -20 -10 -11 -28 -20 -40 -20 -12 0 -30 -9 -40 -20 -10 -11 -28 -20 -40 -20 -12 0 -30 -9 -40 -20 -10 -11 -26 -20 -36 -20 -40 0 -49 -11 -49 -60 0 -34 6 -55 22 -75 14 -18 21 -40 20 -60 -2 -19 5 -42 18 -57 11 -15 20 -35 20 -47 0 -11 9 -25 20 -31 11 -6 20 -21 20 -35 0 -13 12 -37 26 -54 15 -18 22 -36 18 -43 -19 -35 -50 -58 -75 -58 -18 0 -32 -7 -39 -21 -9 -16 -19 -20 -58 -17 -42 3 -46 6 -54 34 -4 17 -15 37 -23 44 -8 7 -15 21 -15 31 0 11 -9 27 -20 36 -11 10 -20 27 -20 39 0 12 -9 33 -20 47 -11 14 -20 32 -20 40 0 8 -9 26 -20 40 -11 14 -20 32 -20 40 0 8 -9 26 -20 40 -11 14 -20 31 -20 39 0 8 -11 29 -25 48 -17 23 -23 41 -18 57 4 17 -1 34 -16 53 -11 16 -21 36 -21 45 0 8 -9 23 -20 32 -11 10 -20 28 -20 40 0 13 -9 31 -20 40 -11 10 -20 27 -20 39 0 12 -9 33 -20 47 -11 14 -20 32 -20 40 0 9 -12 29 -26 46 -15 18 -22 36 -18 43 19 32 51 58 71 58 12 0 31 9 41 21 15 16 29 20 63 17 39 -3 44 -6 47 -29 2 -15 12 -35 23 -45 10 -9 19 -27 19 -39 0 -12 9 -30 20 -40 11 -10 20 -26 20 -35 0 -10 9 -29 20 -43 11 -14 20 -33 20 -42 0 -21 68 -85 90 -85 9 0 27 11 39 24 14 14 30 22 41 19 11 -3 27 4 40 20 13 15 29 23 40 20 11 -3 27 4 40 20 13 15 29 23 40 20 11 -3 26 4 36 16 10 12 29 21 41 21 13 0 31 9 40 20 10 11 28 20 40 20 13 0 31 9 40 20 10 11 28 20 40 20 13 0 31 9 40 20 10 11 28 20 40 20 13 0 31 9 40 20 11 12 30 20 49 20 36 0 44 13 44 69 0 23 -8 48 -20 64 -11 14 -20 40 -20 60 0 19 -9 45 -20 60 -11 14 -20 32 -20 41 0 9 -9 24 -20 33 -11 10 -20 29 -20 44 0 18 -9 32 -25 43 -32 21 -24 37 14 30 22 -5 31 -1 44 19 11 16 23 24 35 21 10 -3 29 5 45 20 35 32 38 32 76 0z m8004 -4 c12 -15 28 -20 52 -18 24 1 41 -5 58 -20 13 -12 31 -22 41 -22 10 0 29 -9 43 -20 14 -11 33 -20 43 -20 9 0 25 -9 35 -20 10 -11 31 -20 46 -20 18 0 32 -7 39 -20 7 -13 21 -20 40 -20 20 0 33 -7 41 -21 7 -15 18 -20 34 -16 17 3 31 -4 45 -21 17 -19 28 -23 52 -18 23 5 37 0 60 -19 16 -14 36 -25 45 -25 8 0 26 -9 40 -20 14 -11 32 -20 40 -20 8 0 26 -9 40 -20 14 -11 34 -20 43 -20 10 0 48 -28 85 -63 l68 -62 -2 -99 c-2 -81 -6 -104 -22 -124 -10 -14 -19 -34 -19 -46 0 -12 -9 -29 -20 -39 -11 -9 -20 -27 -20 -40 0 -12 -9 -30 -20 -40 -13 -11 -20 -29 -20 -53 0 -21 -8 -47 -20 -61 -11 -14 -20 -32 -20 -40 0 -8 -9 -26 -20 -40 -11 -14 -20 -32 -20 -40 0 -8 -9 -26 -20 -40 -11 -14 -20 -32 -20 -40 0 -8 -9 -26 -20 -40 -11 -14 -20 -33 -20 -42 0 -10 -16 -35 -36 -57 -20 -21 -40 -50 -44 -64 l-6 -25 -120 -3 c-110 -2 -122 -1 -139 18 -10 11 -28 20 -40 20 -12 0 -30 9 -40 20 -10 11 -28 20 -40 20 -12 0 -30 9 -40 20 -10 11 -28 20 -40 20 -12 0 -30 9 -40 20 -10 11 -28 20 -40 20 -12 0 -30 9 -40 20 -10 11 -30 20 -44 20 -15 0 -35 9 -45 21 -14 16 -25 20 -50 15 -26 -5 -37 -1 -56 19 -13 14 -33 25 -45 25 -12 0 -30 9 -40 20 -10 11 -28 20 -40 20 -12 0 -30 9 -40 20 -10 11 -27 20 -37 20 -11 0 -31 9 -45 20 -14 11 -35 20 -47 20 -12 0 -46 26 -82 63 l-62 62 -5 62 c-5 58 -3 63 20 78 19 13 23 22 19 40 -4 17 0 27 20 40 23 15 25 22 20 54 -5 32 -2 42 20 62 14 13 23 31 21 41 -3 9 6 27 20 40 17 15 23 30 20 46 -3 18 2 26 20 35 20 9 24 16 19 39 -5 24 -1 31 20 40 21 10 25 17 20 40 -5 24 -1 31 20 40 21 10 25 17 20 40 -5 24 -1 31 20 40 21 10 25 18 22 40 -3 21 1 32 18 43 12 8 24 27 26 42 2 20 10 29 32 34 17 5 34 15 38 24 7 11 26 15 76 15 56 0 71 -4 85 -20z m-3726 -840 c24 -19 41 -20 320 -20 280 0 296 -1 320 -20 22 -17 41 -20 140 -20 100 0 118 -3 140 -20 23 -18 41 -20 160 -20 120 0 138 -2 160 -20 21 -16 41 -20 100 -20 60 0 80 -4 100 -20 21 -16 41 -20 100 -20 60 0 80 -4 100 -20 19 -15 41 -20 87 -20 49 0 65 -4 79 -20 13 -16 29 -20 80 -20 50 0 66 -4 80 -20 13 -16 29 -20 73 -20 41 0 63 -5 81 -20 19 -14 41 -20 80 -20 40 0 62 -6 80 -20 15 -11 41 -20 60 -20 20 0 46 -9 60 -20 16 -13 41 -20 67 -20 29 0 47 -6 59 -20 12 -14 29 -20 60 -20 30 0 48 -6 60 -20 12 -14 28 -19 57 -18 30 1 46 -4 61 -21 14 -15 30 -21 54 -19 24 1 42 -5 58 -20 13 -12 34 -22 48 -22 13 0 32 -9 42 -20 12 -14 28 -19 57 -18 30 1 46 -4 62 -21 16 -18 28 -22 53 -18 26 4 38 0 56 -19 13 -14 34 -24 50 -24 18 0 32 -7 39 -20 7 -13 21 -20 38 -20 16 0 35 -9 46 -21 14 -16 25 -20 50 -15 26 5 37 1 56 -19 13 -14 32 -25 43 -25 10 0 30 -9 44 -20 14 -11 32 -20 40 -20 8 0 26 -9 40 -20 14 -11 36 -20 49 -20 13 0 28 -9 34 -20 7 -13 21 -20 38 -20 15 0 35 -9 45 -20 9 -11 27 -20 40 -20 12 0 30 -9 40 -20 9 -11 24 -20 33 -20 9 0 27 -9 41 -20 14 -11 32 -20 40 -20 8 0 26 -9 40 -20 14 -11 33 -20 42 -20 9 0 37 -18 61 -40 24 -22 54 -40 67 -40 12 0 27 -9 34 -21 7 -14 17 -19 30 -16 12 3 30 -4 46 -19 14 -13 33 -24 42 -24 9 0 37 -18 61 -40 24 -22 54 -40 65 -40 13 0 38 -17 59 -40 22 -24 46 -40 59 -40 12 0 30 -9 40 -20 9 -11 25 -20 35 -20 10 0 38 -18 62 -40 24 -22 53 -40 64 -40 10 0 37 -18 58 -40 22 -22 48 -40 58 -40 10 0 47 -27 82 -60 34 -33 72 -60 82 -60 11 0 37 -18 58 -40 22 -22 47 -40 57 -40 10 0 46 -27 82 -60 35 -33 71 -60 79 -60 9 0 63 -45 120 -100 58 -55 112 -100 121 -100 9 0 81 -63 160 -140 79 -77 151 -140 161 -140 21 0 588 -567 588 -589 0 -9 54 -71 120 -139 66 -67 120 -130 120 -140 0 -9 45 -64 100 -121 55 -57 100 -111 100 -121 0 -10 27 -44 60 -76 36 -34 60 -66 60 -78 0 -12 26 -49 60 -84 33 -35 60 -72 60 -82 0 -11 18 -36 40 -56 22 -21 40 -47 40 -58 0 -12 26 -49 60 -84 33 -35 60 -72 60 -82 0 -9 9 -29 20 -43 11 -14 20 -32 20 -39 0 -8 18 -33 40 -56 22 -22 40 -49 40 -59 0 -10 18 -39 40 -63 22 -24 40 -52 40 -61 0 -9 9 -28 20 -42 11 -14 20 -31 20 -39 0 -8 18 -34 40 -58 22 -24 40 -52 40 -61 0 -9 9 -28 20 -42 11 -14 20 -32 20 -40 0 -8 9 -26 20 -40 11 -14 20 -34 20 -45 0 -10 9 -27 20 -37 11 -10 20 -28 20 -40 0 -12 9 -30 20 -40 11 -10 20 -25 20 -34 0 -9 18 -37 40 -61 22 -24 40 -51 40 -60 0 -9 11 -31 24 -49 18 -24 23 -41 19 -61 -4 -21 0 -33 16 -46 12 -11 21 -30 21 -46 0 -17 7 -31 20 -38 13 -7 20 -21 20 -39 0 -15 9 -36 20 -46 11 -10 20 -26 20 -35 0 -10 9 -29 20 -43 11 -14 20 -32 20 -40 0 -8 9 -26 20 -40 11 -14 20 -32 20 -40 0 -8 9 -26 20 -40 11 -14 20 -40 20 -60 0 -23 9 -46 25 -65 19 -23 24 -37 19 -60 -5 -23 -1 -35 15 -48 12 -10 21 -28 21 -40 0 -12 9 -33 20 -47 11 -14 20 -40 20 -60 0 -23 9 -46 25 -65 19 -22 24 -37 19 -59 -4 -22 0 -35 21 -57 21 -22 24 -34 20 -60 -5 -26 -1 -39 18 -62 18 -22 24 -37 20 -58 -4 -19 1 -37 16 -56 12 -17 21 -44 21 -63 0 -19 9 -46 20 -60 11 -14 20 -40 20 -60 0 -19 9 -45 20 -60 14 -18 20 -40 20 -80 0 -39 6 -61 20 -80 14 -18 20 -40 20 -80 0 -39 6 -61 20 -80 16 -20 21 -42 22 -102 1 -64 5 -80 25 -101 19 -21 23 -36 23 -88 0 -44 5 -67 15 -76 11 -10 15 -35 15 -110 0 -82 3 -101 20 -123 16 -20 20 -40 20 -100 0 -59 4 -79 20 -100 18 -22 20 -40 20 -160 0 -119 2 -137 20 -160 18 -23 20 -40 20 -180 0 -139 2 -157 20 -180 l20 -25 0 -712 0 -712 -20 -25 c-18 -23 -20 -41 -20 -200 0 -160 -2 -177 -20 -200 -17 -22 -20 -41 -20 -143 0 -104 -2 -119 -20 -135 -17 -16 -20 -31 -20 -117 0 -85 -3 -104 -20 -125 -16 -21 -20 -41 -20 -110 0 -65 -3 -85 -15 -89 -12 -5 -15 -24 -15 -83 0 -67 -3 -82 -25 -111 -19 -26 -25 -46 -25 -88 0 -39 -6 -61 -20 -79 -14 -19 -20 -41 -20 -80 0 -40 -6 -62 -20 -80 -14 -19 -20 -41 -20 -80 0 -40 -6 -62 -20 -80 -11 -14 -20 -41 -20 -60 0 -19 -9 -46 -21 -63 -15 -19 -20 -36 -16 -53 5 -17 -1 -34 -19 -58 -19 -26 -24 -41 -19 -66 4 -25 0 -37 -20 -59 -21 -23 -25 -35 -20 -60 4 -26 0 -38 -20 -60 -21 -22 -25 -35 -21 -57 5 -22 0 -37 -20 -60 -19 -22 -24 -38 -20 -58 3 -18 -2 -36 -20 -60 -13 -18 -24 -42 -24 -54 0 -11 -9 -29 -21 -39 -16 -13 -20 -25 -15 -48 5 -23 0 -37 -19 -60 -14 -16 -25 -39 -25 -52 0 -12 -9 -29 -20 -38 -13 -12 -19 -29 -18 -52 1 -21 -7 -44 -20 -61 -12 -15 -22 -37 -22 -49 0 -12 -9 -29 -20 -39 -11 -9 -20 -27 -20 -40 0 -12 -9 -30 -20 -40 -11 -9 -20 -27 -20 -40 0 -12 -9 -30 -20 -40 -13 -11 -20 -29 -20 -53 0 -21 -8 -47 -20 -61 -11 -14 -20 -32 -20 -40 0 -8 -9 -26 -20 -40 -11 -14 -20 -32 -20 -40 0 -8 -9 -26 -20 -40 -11 -14 -20 -32 -20 -40 0 -8 -9 -26 -20 -40 -11 -14 -20 -33 -20 -42 0 -9 -18 -37 -40 -61 -22 -24 -40 -54 -40 -65 0 -11 -9 -28 -20 -38 -11 -9 -20 -27 -20 -40 0 -12 -9 -30 -20 -40 -11 -9 -20 -24 -20 -33 0 -9 -9 -27 -20 -41 -11 -14 -20 -33 -20 -42 0 -9 -18 -37 -40 -61 -22 -24 -40 -51 -40 -60 0 -9 -18 -36 -40 -60 -22 -24 -40 -54 -40 -65 0 -11 -9 -28 -20 -38 -11 -9 -20 -25 -20 -35 0 -10 -18 -38 -40 -62 -22 -24 -40 -51 -40 -60 0 -9 -18 -36 -40 -60 -22 -24 -40 -52 -40 -61 0 -10 -27 -46 -60 -81 -33 -34 -60 -72 -60 -83 -1 -11 -19 -38 -40 -60 -22 -22 -40 -46 -40 -55 0 -8 -27 -44 -60 -80 -33 -36 -60 -71 -60 -79 0 -8 -35 -53 -79 -100 -43 -48 -80 -94 -82 -104 -2 -9 -75 -91 -161 -181 -87 -91 -158 -171 -158 -178 0 -20 -648 -668 -668 -668 -10 0 -73 -54 -141 -120 -68 -66 -131 -120 -140 -120 -9 0 -54 -36 -99 -80 -46 -44 -91 -80 -100 -80 -10 0 -48 -29 -85 -64 -38 -36 -74 -63 -80 -60 -7 2 -43 -25 -80 -60 -38 -36 -75 -62 -82 -60 -7 3 -30 -13 -52 -36 -22 -23 -50 -43 -64 -44 -15 -2 -41 -19 -60 -40 -19 -21 -45 -38 -60 -40 -15 -2 -41 -19 -60 -40 -19 -21 -45 -38 -60 -40 -15 -2 -41 -19 -60 -40 -19 -20 -45 -39 -59 -40 -14 -2 -43 -19 -64 -40 -22 -20 -47 -36 -57 -36 -9 0 -29 -10 -44 -22 -16 -12 -35 -23 -44 -23 -9 -1 -34 -18 -55 -38 -22 -21 -47 -37 -57 -37 -9 0 -29 -10 -44 -22 -16 -12 -36 -23 -46 -23 -10 -1 -27 -9 -37 -18 -10 -9 -25 -17 -34 -17 -8 0 -27 -9 -41 -20 -14 -11 -32 -20 -41 -20 -9 0 -24 -9 -33 -20 -10 -11 -30 -20 -45 -20 -17 0 -31 -7 -38 -20 -7 -13 -21 -20 -40 -20 -19 0 -33 -7 -40 -20 -7 -13 -21 -20 -40 -20 -19 0 -33 -7 -40 -20 -7 -13 -21 -20 -40 -20 -19 0 -33 -7 -40 -20 -7 -13 -21 -20 -39 -20 -15 0 -36 -9 -46 -20 -10 -11 -28 -20 -40 -20 -12 0 -30 -9 -40 -20 -10 -11 -27 -20 -38 -20 -10 0 -32 -11 -48 -25 -22 -18 -37 -23 -59 -19 -21 5 -33 1 -46 -15 -10 -12 -30 -21 -44 -21 -15 0 -36 -11 -49 -24 -18 -19 -30 -23 -56 -19 -26 4 -37 1 -51 -16 -10 -11 -30 -21 -44 -21 -15 0 -36 -11 -49 -24 -18 -19 -30 -23 -55 -19 -24 4 -37 -1 -59 -21 -23 -22 -35 -25 -62 -20 -27 5 -37 2 -51 -15 -10 -12 -30 -21 -43 -21 -14 0 -34 -9 -46 -20 -17 -16 -36 -21 -78 -21 -45 -1 -62 -6 -82 -24 -19 -18 -32 -23 -57 -18 -26 4 -39 -1 -61 -21 -22 -20 -34 -24 -58 -19 -22 4 -38 0 -59 -16 -21 -15 -45 -21 -86 -22 -46 -1 -60 -6 -77 -25 -16 -19 -31 -24 -68 -24 -29 0 -51 -6 -59 -15 -9 -11 -33 -15 -90 -15 -62 0 -82 -4 -103 -20 -18 -15 -40 -20 -83 -20 -44 0 -63 -5 -79 -20 -18 -17 -36 -21 -99 -22 -59 0 -82 -5 -100 -19 -19 -15 -41 -19 -99 -19 -59 0 -79 -4 -100 -20 -22 -17 -40 -20 -140 -20 -99 0 -118 -3 -140 -20 -22 -18 -40 -20 -160 -20 -119 0 -137 -2 -160 -20 -24 -19 -40 -20 -320 -20 -279 0 -296 -1 -320 -20 l-25 -20 -372 0 c-353 0 -373 1 -397 19 -22 18 -42 20 -260 21 -219 0 -237 2 -261 20 -22 18 -40 20 -159 20 -118 0 -138 2 -159 19 -20 16 -42 19 -120 20 -78 1 -101 5 -120 20 -20 16 -42 19 -120 20 -80 1 -100 5 -121 21 -20 15 -41 20 -89 20 -53 0 -65 3 -74 20 -9 17 -21 20 -91 20 -66 0 -86 4 -106 20 -19 15 -41 20 -83 20 -39 0 -62 5 -70 15 -8 9 -30 15 -59 15 -38 0 -52 5 -70 26 -19 22 -29 25 -75 23 -43 -2 -59 2 -82 20 -21 17 -36 21 -60 16 -26 -4 -38 0 -60 20 -23 21 -35 25 -60 20 -26 -4 -38 0 -60 20 -23 21 -35 25 -60 20 -26 -4 -38 0 -60 20 -23 21 -35 25 -60 20 -26 -4 -38 0 -60 20 -23 21 -35 25 -60 20 -26 -4 -38 0 -60 20 -22 21 -35 25 -59 21 -25 -5 -36 -1 -55 19 -13 14 -35 25 -50 25 -14 0 -34 9 -44 21 -14 16 -25 20 -50 15 -26 -5 -37 -1 -56 19 -13 14 -33 25 -45 25 -12 0 -30 9 -40 20 -10 11 -30 20 -44 20 -15 0 -35 9 -45 21 -14 16 -25 20 -50 15 -26 -5 -37 -1 -56 19 -13 14 -33 25 -45 25 -12 0 -30 9 -40 20 -10 11 -28 20 -40 20 -12 0 -30 9 -40 20 -10 11 -28 20 -40 20 -12 0 -30 9 -40 20 -10 11 -28 20 -40 20 -12 0 -30 9 -40 20 -10 11 -28 20 -40 20 -12 0 -30 9 -40 20 -10 11 -28 20 -40 20 -12 0 -30 9 -40 20 -10 11 -28 20 -40 20 -12 0 -30 9 -40 20 -10 11 -27 20 -37 20 -11 0 -31 9 -45 20 -14 11 -33 20 -42 20 -9 0 -37 18 -61 40 -24 22 -54 40 -65 40 -11 0 -28 9 -38 20 -9 11 -27 20 -38 20 -13 0 -39 18 -61 40 -23 23 -49 40 -62 40 -12 0 -29 9 -39 20 -9 11 -27 20 -38 20 -13 0 -39 18 -61 40 -22 22 -49 40 -60 40 -12 0 -39 18 -60 40 -22 22 -49 40 -60 40 -12 0 -39 18 -60 40 -22 22 -49 40 -60 40 -12 0 -39 18 -60 40 -22 22 -49 40 -61 40 -14 0 -45 24 -81 60 -35 36 -67 60 -80 60 -12 0 -45 25 -80 60 -35 36 -67 60 -80 60 -13 0 -51 30 -100 80 -44 45 -88 80 -98 80 -12 0 -78 57 -161 140 -84 82 -150 140 -161 140 -27 0 -626 600 -626 626 0 13 -52 73 -140 159 -89 88 -140 147 -140 160 0 12 -40 60 -100 122 -55 56 -100 110 -100 120 0 10 -27 47 -60 81 -33 35 -60 72 -60 82 0 11 -18 36 -40 56 -24 22 -40 46 -40 60 0 13 -17 39 -40 62 -22 21 -40 48 -40 60 0 11 -18 38 -40 60 -22 21 -40 48 -40 60 0 12 -25 44 -60 78 -38 36 -60 66 -60 79 0 12 -9 34 -20 48 -11 14 -20 32 -20 40 0 9 -18 33 -40 55 -22 21 -40 48 -40 59 0 11 -9 32 -20 46 -11 14 -20 32 -20 40 0 9 -18 33 -40 55 -22 21 -40 48 -40 59 0 11 -9 32 -20 46 -11 14 -20 32 -20 41 0 9 -9 24 -20 33 -11 10 -20 28 -20 40 0 13 -9 31 -20 40 -11 10 -20 27 -20 39 0 12 -9 33 -20 47 -11 14 -20 31 -20 39 0 8 -18 34 -40 58 -22 24 -40 52 -40 61 0 9 -9 28 -20 42 -11 14 -20 32 -20 40 0 8 -9 26 -20 40 -11 14 -20 32 -20 40 0 8 -9 26 -20 40 -11 14 -20 40 -20 60 0 19 -9 45 -20 60 -11 14 -20 32 -20 40 0 8 -9 26 -20 40 -11 14 -20 31 -20 39 0 8 -11 29 -25 48 -17 23 -23 41 -18 57 4 17 -1 34 -16 53 -11 16 -21 36 -21 44 0 8 -10 24 -21 35 -15 14 -22 33 -23 64 -1 27 -8 53 -19 64 -9 11 -17 26 -17 34 0 8 -11 30 -24 48 -17 23 -23 42 -20 60 4 18 -3 36 -20 60 -18 24 -24 41 -19 58 4 17 -1 34 -16 53 -11 16 -21 36 -21 43 0 8 -9 26 -20 40 -15 18 -20 40 -20 81 0 43 -5 59 -21 75 -15 14 -22 33 -23 64 -1 27 -8 53 -19 64 -12 14 -17 36 -17 75 0 45 -5 60 -25 82 -20 22 -24 34 -20 60 5 23 1 38 -14 58 -15 19 -21 41 -21 81 0 39 -6 61 -20 80 -14 18 -20 40 -20 80 0 39 -6 61 -20 80 -16 20 -20 41 -21 101 -1 58 -5 81 -20 100 -15 19 -19 41 -19 99 0 59 -4 79 -20 100 -17 21 -20 40 -20 120 0 79 -3 98 -20 120 -17 22 -20 40 -20 140 0 99 -3 118 -20 140 -18 23 -20 40 -20 200 0 159 -2 177 -20 200 l-20 25 0 695 0 694 20 18 c19 17 20 31 20 220 0 189 1 203 20 220 18 16 20 31 20 140 0 110 2 124 21 140 18 17 20 30 18 118 -1 88 1 100 20 121 18 19 21 34 21 103 0 67 3 83 20 98 17 15 20 31 20 100 0 70 3 85 21 101 17 16 20 28 17 81 -2 56 0 65 20 78 19 14 22 25 22 76 0 45 5 67 21 89 17 22 20 36 15 63 -6 30 -3 37 20 52 24 15 26 21 22 80 -2 57 0 67 21 86 19 18 22 28 17 59 -5 33 -3 40 20 55 24 15 26 22 21 60 -6 39 -4 45 20 60 23 15 25 22 20 60 -6 39 -4 45 20 60 23 15 25 22 20 60 -6 39 -4 45 20 60 23 15 25 22 20 60 -6 39 -4 45 20 60 22 15 25 22 20 55 -4 32 -1 43 20 61 17 17 22 30 18 46 -4 18 0 26 21 35 21 10 25 17 20 39 -4 22 0 31 21 44 22 15 24 22 19 54 -5 32 -2 42 20 62 18 17 23 30 19 46 -4 18 0 26 21 35 21 10 25 17 20 40 -5 24 -1 31 20 40 21 10 25 17 20 40 -5 24 -1 31 20 40 21 10 25 17 20 39 -4 22 0 31 21 44 22 15 24 22 19 54 -5 32 -2 42 19 61 14 13 25 33 25 45 0 12 9 30 20 40 11 10 20 27 20 37 0 11 9 31 20 45 11 14 20 33 20 42 0 9 18 35 41 56 29 29 39 46 36 62 -3 16 3 27 20 39 19 12 24 22 20 40 -3 19 2 29 19 41 13 8 24 25 24 37 0 12 17 39 40 61 28 27 40 48 40 67 0 17 7 31 20 38 11 6 20 20 20 32 0 11 18 40 40 64 22 24 40 53 40 64 0 12 18 38 40 59 24 23 40 47 40 61 0 15 15 36 40 57 28 25 40 42 40 62 0 14 9 34 20 44 11 9 20 25 20 35 0 10 27 47 60 81 33 35 60 71 60 80 0 10 27 46 60 80 33 35 60 72 60 83 0 11 27 46 60 79 33 32 60 67 60 78 0 10 36 56 80 101 44 45 80 90 80 100 0 10 63 82 140 160 77 79 140 151 140 160 0 24 565 590 589 590 10 0 79 61 159 140 86 86 148 140 160 140 12 0 54 34 100 80 44 45 88 80 98 80 11 0 57 36 103 80 46 44 91 80 100 80 9 0 46 27 81 60 35 33 72 60 80 60 9 0 36 18 61 40 24 22 52 40 61 40 9 0 34 18 56 40 21 22 48 40 60 40 11 0 38 18 60 40 21 22 48 40 59 40 11 0 39 18 64 40 24 22 52 40 62 40 9 0 25 9 34 20 10 11 28 20 41 20 14 0 38 16 61 40 21 23 47 40 60 40 11 0 29 9 38 20 10 11 28 20 40 20 13 0 31 9 40 20 10 11 27 20 39 20 12 0 42 18 65 40 24 22 51 40 61 40 10 0 26 9 35 20 10 11 28 20 40 20 13 0 31 9 40 20 10 11 28 20 40 20 13 0 31 9 40 20 10 11 28 20 40 20 13 0 31 9 40 20 10 11 28 20 40 20 13 0 31 9 40 20 10 11 28 20 40 20 13 0 31 9 40 20 10 11 28 20 40 20 13 0 31 9 40 20 10 11 27 20 39 20 12 0 34 10 49 22 18 14 40 21 61 20 25 -2 39 4 55 22 13 14 28 22 39 19 11 -3 26 4 36 16 10 12 28 21 40 21 12 0 33 9 47 20 14 11 40 20 60 20 22 0 43 8 60 24 21 20 34 24 61 19 27 -4 38 -1 52 16 10 11 29 21 41 21 13 0 31 9 40 20 12 14 30 20 60 20 31 0 48 6 63 22 15 16 30 21 59 20 30 -2 45 3 60 20 16 16 31 21 60 20 30 -2 45 3 60 20 16 17 31 21 61 20 29 -2 44 2 57 18 12 14 30 20 59 20 26 0 51 7 67 20 18 15 40 20 81 20 44 0 60 4 73 20 14 16 30 20 80 20 51 0 67 4 80 20 14 16 30 20 80 20 51 0 67 4 80 20 14 16 30 20 79 20 46 0 68 5 87 20 20 16 40 20 100 20 59 0 79 4 100 20 21 17 40 20 121 20 84 0 98 3 113 20 15 18 30 20 119 20 86 0 105 3 127 20 22 18 40 20 165 20 126 0 141 2 157 20 l18 20 257 0 c242 0 259 1 281 20 23 18 41 19 357 20 l334 0 25 -20z m5403 -40 c7 -13 21 -20 39 -20 20 0 39 -12 65 -40 21 -22 46 -40 58 -40 12 0 39 -18 60 -40 22 -22 48 -40 58 -40 10 0 47 -27 82 -60 34 -33 72 -60 82 -60 11 0 37 -18 58 -40 22 -22 47 -40 57 -40 10 0 46 -27 82 -60 35 -33 71 -60 79 -60 9 0 47 -28 84 -63 l69 -62 -2 -85 c-2 -69 -6 -88 -22 -103 -10 -10 -19 -28 -19 -40 -1 -12 -19 -40 -40 -62 -22 -22 -40 -47 -40 -56 0 -9 -36 -55 -81 -103 l-81 -86 -60 0 c-45 0 -66 5 -85 20 -14 11 -35 20 -46 20 -12 0 -40 19 -63 41 -35 34 -47 40 -68 35 -30 -7 -34 -31 -9 -58 12 -14 16 -35 14 -91 -2 -62 1 -77 21 -102 14 -18 21 -39 20 -60 -2 -19 4 -41 17 -57 15 -19 21 -41 21 -81 0 -40 5 -61 21 -81 12 -15 18 -34 15 -43 -6 -14 -8 -14 -24 1 -10 9 -29 16 -43 16 -16 0 -43 20 -83 60 -35 36 -67 60 -80 60 -11 0 -31 11 -43 24 -20 20 -23 36 -25 105 -1 63 -5 88 -20 106 -14 18 -18 41 -19 99 -1 58 -5 81 -20 100 -13 17 -19 40 -19 79 0 39 -6 61 -20 80 -11 14 -20 32 -20 40 0 24 -112 129 -133 123 -12 -3 -22 3 -29 20 -6 13 -16 24 -23 24 -15 0 -75 -74 -75 -92 0 -8 -27 -43 -60 -78 -33 -35 -60 -70 -60 -78 0 -7 -10 -26 -22 -42 -19 -26 -28 -30 -68 -30 -44 0 -50 4 -109 65 l-63 64 41 39 c23 21 41 47 41 57 0 10 18 37 40 61 22 24 40 52 40 62 0 10 27 47 60 81 33 35 60 72 60 82 0 11 18 37 40 58 22 21 40 47 40 58 0 10 27 48 60 82 33 35 60 72 60 82 0 11 18 37 40 58 22 21 40 47 40 57 0 19 77 114 92 114 4 0 12 -9 18 -20z m-11442 -115 c4 -9 21 -19 38 -24 20 -5 30 -15 32 -32 2 -13 12 -33 22 -44 l19 -20 -83 -83 c-45 -45 -86 -79 -89 -75 -4 3 -7 19 -7 34 0 30 -15 39 -68 39 -32 0 -47 -10 -105 -64 -38 -36 -75 -62 -82 -60 -7 3 -30 -13 -52 -36 -21 -23 -50 -43 -63 -44 -15 -2 -48 -26 -80 -59 -31 -32 -64 -57 -75 -57 -27 0 -175 -142 -175 -167 0 -11 9 -32 20 -46 11 -14 20 -32 20 -41 0 -8 18 -32 40 -52 23 -22 40 -46 40 -59 0 -14 22 -45 60 -81 33 -33 60 -68 60 -79 0 -11 27 -49 60 -83 33 -35 60 -72 60 -82 0 -46 57 -65 87 -30 10 11 27 20 39 20 14 0 45 23 82 60 34 35 68 60 80 60 11 0 45 25 80 60 32 33 68 60 78 60 11 0 49 27 84 60 35 33 72 60 82 60 9 0 33 14 53 31 29 26 35 38 35 73 0 38 -6 48 -75 118 l-74 78 -37 -40 c-21 -22 -47 -40 -58 -40 -12 0 -51 -28 -89 -64 -45 -42 -74 -63 -84 -59 -10 4 -23 -3 -34 -18 l-18 -24 -50 52 c-28 29 -51 58 -51 65 0 18 140 148 159 148 9 0 46 27 81 60 35 33 72 60 81 60 10 0 35 18 57 40 21 22 48 40 59 40 11 0 32 11 47 25 15 14 31 25 35 25 19 0 71 -56 71 -75 0 -11 27 -49 60 -83 33 -35 60 -71 60 -81 0 -9 18 -37 40 -61 22 -24 40 -52 40 -61 0 -9 9 -28 20 -42 12 -15 20 -40 20 -64 0 -26 -6 -44 -20 -56 -11 -9 -20 -25 -20 -35 0 -22 -53 -75 -78 -77 -9 -1 -42 -27 -71 -58 -35 -37 -62 -57 -77 -57 -14 0 -43 -21 -80 -60 -34 -35 -66 -60 -78 -60 -12 0 -51 -28 -89 -64 -38 -36 -75 -62 -82 -60 -7 3 -30 -13 -52 -36 -21 -23 -50 -43 -63 -44 -14 -2 -43 -21 -66 -44 -30 -30 -46 -40 -61 -36 -15 4 -25 0 -32 -15 -11 -19 -21 -21 -98 -21 l-86 0 -43 44 c-24 24 -44 53 -44 64 0 12 -25 44 -60 78 -38 37 -60 66 -60 80 0 14 -22 43 -60 80 -38 37 -60 66 -60 80 0 14 -22 43 -60 80 -38 36 -60 66 -60 79 0 12 -9 34 -20 48 -11 14 -20 32 -20 41 0 9 -9 24 -20 33 -16 14 -20 30 -20 79 l0 61 63 66 c37 39 72 67 83 67 11 0 48 27 83 60 35 33 72 60 83 60 10 0 36 18 57 40 21 22 47 40 59 40 11 0 45 25 80 60 32 33 68 60 78 60 11 0 49 27 84 60 35 33 72 60 82 60 9 0 34 18 55 40 l38 40 87 0 c68 0 89 -3 96 -15z m-1461 -1257 c69 -68 241 -243 384 -389 l259 -267 -14 -28 c-8 -16 -17 -37 -20 -46 -3 -10 -14 -18 -25 -18 -11 0 -38 -19 -61 -42 l-41 -42 -389 390 c-215 214 -390 395 -390 401 0 15 146 163 161 163 7 0 68 -55 136 -122z m-667 -493 c40 -40 44 -49 42 -87 -3 -38 -10 -51 -62 -103 -33 -33 -60 -68 -60 -77 0 -9 -36 -55 -80 -101 -44 -47 -80 -91 -80 -99 0 -8 -36 -53 -80 -99 -44 -46 -80 -90 -80 -97 0 -8 -9 -25 -20 -39 -36 -46 -21 -133 22 -133 12 0 43 -18 69 -40 26 -22 54 -40 62 -40 22 0 87 66 87 88 0 10 43 63 96 118 54 54 100 110 104 124 5 21 13 26 49 28 39 3 46 -1 88 -42 l46 -46 -62 -63 c-33 -34 -61 -70 -61 -79 0 -10 -36 -55 -80 -100 -44 -46 -80 -91 -80 -100 0 -10 -9 -23 -20 -30 -11 -7 -20 -16 -20 -20 0 -13 155 -158 169 -158 8 0 25 -9 37 -21 l22 -21 36 37 c20 20 36 44 36 54 0 9 45 64 100 121 57 58 100 111 100 122 0 11 35 54 80 99 44 44 80 87 80 97 0 20 132 162 150 162 17 0 120 -103 120 -119 0 -7 -20 -34 -45 -59 -25 -25 -45 -53 -45 -63 0 -10 -36 -56 -80 -101 -44 -46 -80 -91 -80 -100 0 -9 -36 -55 -80 -101 -44 -47 -80 -92 -80 -100 0 -8 -45 -62 -100 -119 -55 -56 -100 -110 -100 -118 -1 -8 -21 -36 -45 -63 l-44 -47 -15 21 c-10 16 -21 20 -38 16 -19 -5 -35 6 -87 58 -38 40 -72 65 -85 65 -13 0 -51 30 -100 80 -44 44 -88 80 -98 80 -10 0 -65 45 -121 100 -56 55 -110 100 -121 100 -21 0 -183 154 -192 182 -4 14 7 31 40 62 26 24 46 51 46 63 0 12 33 54 80 103 44 45 80 90 80 100 0 10 36 55 80 100 44 45 80 90 80 99 0 9 45 64 100 121 58 59 100 111 100 123 0 17 75 106 90 107 3 0 26 -20 50 -45z m-193 -1751 c15 5 28 -2 50 -27 40 -46 35 -90 -18 -148 -21 -24 -39 -53 -39 -64 0 -11 -9 -28 -20 -38 -11 -9 -20 -27 -20 -40 0 -12 -9 -30 -20 -40 -11 -9 -20 -25 -20 -35 0 -10 -18 -38 -40 -62 -22 -24 -40 -54 -40 -65 0 -11 -9 -28 -20 -38 -11 -9 -20 -25 -20 -35 0 -10 -18 -38 -40 -62 -22 -24 -40 -54 -40 -65 0 -11 -9 -28 -20 -38 -11 -9 -20 -27 -20 -38 0 -13 -18 -39 -40 -61 -23 -23 -40 -49 -40 -62 0 -19 -51 -76 -69 -76 -3 0 -28 20 -56 45 -27 25 -57 45 -66 45 -9 0 -24 9 -34 20 -10 11 -27 20 -37 20 -11 0 -31 9 -45 20 -14 11 -35 20 -46 20 -11 0 -38 18 -59 40 -22 22 -47 40 -57 40 -10 0 -26 9 -36 20 -10 11 -27 20 -37 20 -11 0 -31 9 -45 20 -14 11 -33 20 -42 20 -9 0 -37 18 -61 40 -24 22 -54 40 -65 40 -11 0 -28 9 -38 20 -9 11 -27 20 -39 20 -14 0 -37 15 -56 36 -18 20 -45 39 -60 43 -22 6 -28 15 -34 47 -6 34 -3 42 18 59 13 12 24 32 24 46 0 15 12 35 31 52 38 33 40 33 69 2 13 -14 32 -25 43 -25 10 0 30 -9 44 -20 14 -11 33 -20 42 -20 9 0 37 -18 61 -40 24 -22 54 -40 65 -40 11 0 28 -9 38 -20 9 -11 25 -20 35 -20 10 0 38 -18 62 -40 24 -22 54 -40 65 -40 11 0 28 -9 38 -20 9 -11 24 -20 33 -20 9 0 27 -9 41 -20 14 -11 32 -20 40 -20 8 0 26 -9 40 -20 14 -11 34 -20 44 -20 10 0 23 -9 29 -20 14 -27 23 -25 65 12 27 23 36 38 32 55 -3 16 3 27 19 38 14 9 24 25 24 39 0 12 9 31 20 41 11 10 20 28 20 40 0 11 18 38 40 60 28 27 40 48 40 67 0 17 7 31 20 38 11 6 20 21 20 33 0 14 17 39 40 62 28 27 40 48 40 67 0 17 7 31 20 38 11 6 20 20 20 32 0 12 12 35 27 50 l27 29 17 -22 c11 -15 22 -19 36 -15z m-613 -1292 c3 -5 -4 -16 -16 -26 -15 -13 -19 -25 -14 -46 3 -20 -1 -36 -15 -54 -12 -15 -24 -39 -28 -54 -5 -19 -15 -28 -33 -30 -14 -2 -34 -12 -44 -23 -15 -16 -31 -19 -119 -19 -109 0 -125 -6 -125 -50 0 -14 -9 -34 -21 -44 -17 -14 -20 -24 -15 -51 5 -27 2 -39 -19 -61 -17 -18 -25 -38 -25 -61 0 -20 -9 -46 -20 -60 -11 -14 -20 -35 -20 -47 0 -12 -9 -29 -20 -39 -13 -11 -20 -29 -20 -53 0 -21 -8 -47 -20 -61 -11 -14 -20 -33 -20 -41 0 -9 -7 -24 -16 -33 -9 -10 -18 -38 -20 -61 -4 -41 0 -47 56 -107 33 -36 60 -73 60 -82 0 -10 10 -27 22 -39 27 -25 26 -81 -2 -118 -11 -13 -20 -34 -20 -46 0 -11 -12 -32 -26 -45 l-25 -25 -24 30 c-14 16 -24 36 -25 45 0 9 -36 52 -80 95 -51 49 -80 86 -80 99 0 14 -35 57 -100 121 -64 63 -100 107 -100 120 0 14 -30 51 -80 100 -49 47 -80 86 -80 98 0 13 -39 60 -99 122 l-99 102 -4 78 c-3 73 -2 81 21 100 16 14 22 26 17 40 -4 13 3 27 23 47 l29 27 100 0 c84 0 103 3 125 20 22 17 40 20 141 20 104 0 118 2 133 20 16 18 30 20 140 20 111 0 125 2 140 20 16 18 30 20 139 20 106 0 125 2 145 20 19 15 39 19 101 20 42 0 79 -4 82 -8z m-1467 -1372 c21 -16 41 -20 100 -20 60 0 80 -4 101 -20 17 -14 38 -20 64 -18 34 2 44 -4 84 -43 l45 -45 1 -147 c1 -177 8 -191 64 -128 23 25 46 41 60 41 14 0 45 23 82 60 34 33 69 60 80 60 11 0 49 29 86 65 57 57 69 64 86 55 27 -15 29 -114 3 -143 -12 -12 -20 -42 -23 -85 -5 -61 -7 -66 -31 -73 -15 -3 -42 -23 -60 -43 -19 -21 -45 -39 -59 -41 -14 -1 -53 -30 -88 -63 -35 -33 -69 -59 -76 -56 -6 2 -33 -16 -60 -40 -27 -24 -55 -42 -61 -40 -15 6 -85 -63 -85 -83 0 -8 -9 -26 -20 -40 -16 -21 -20 -41 -20 -107 0 -51 5 -87 12 -94 7 -7 33 -12 60 -12 37 0 50 -4 58 -20 9 -18 21 -20 94 -20 69 0 86 -3 100 -19 10 -11 30 -21 44 -23 33 -4 40 -32 15 -60 -12 -14 -20 -41 -23 -87 l-5 -66 -44 -3 c-32 -2 -48 1 -61 15 -14 15 -33 20 -94 21 -58 1 -83 6 -100 20 -18 14 -43 19 -100 20 -61 1 -83 6 -103 22 -20 15 -41 20 -89 20 -49 0 -65 4 -73 17 -7 13 -27 18 -91 20 -64 3 -88 8 -108 23 -18 15 -40 20 -82 20 -44 0 -61 5 -74 19 -10 11 -30 21 -45 23 -22 3 -26 8 -29 42 -3 28 2 44 18 61 19 21 21 33 19 104 -3 75 -2 82 19 97 21 15 23 23 21 95 -2 69 1 83 20 102 18 20 21 35 21 104 0 67 3 83 20 98 16 14 20 31 20 80 0 49 4 66 20 80 16 14 20 31 20 80 l0 61 62 67 62 67 59 0 c44 0 65 -5 84 -20z m17668 -9345 l49 -44 -42 -41 c-23 -23 -42 -50 -42 -60 0 -9 -7 -23 -15 -30 -12 -10 -20 -7 -46 14 -17 14 -39 26 -49 26 -22 0 -90 -66 -90 -87 0 -9 -72 -89 -160 -180 -113 -115 -160 -170 -160 -186 0 -26 145 -170 164 -164 6 2 11 17 12 33 0 24 38 67 225 257 150 151 231 227 245 227 12 0 33 11 48 25 15 14 30 25 33 25 3 0 18 -11 35 -25 16 -14 40 -25 52 -25 15 0 55 -34 124 -105 l102 -105 0 -83 0 -83 -40 -39 c-22 -21 -40 -46 -40 -54 0 -22 -451 -471 -473 -471 -9 0 -25 -9 -34 -20 -13 -15 -30 -20 -65 -20 -37 0 -50 4 -58 20 -6 11 -21 20 -33 20 -12 1 -35 11 -51 24 l-29 24 42 39 c22 22 41 49 41 59 0 44 36 50 73 12 10 -10 26 -18 36 -18 22 0 371 345 371 367 0 9 18 35 40 59 22 24 40 52 40 61 0 10 -34 53 -75 96 l-74 77 -73 -76 c-40 -41 -75 -83 -76 -92 -5 -25 -294 -312 -314 -312 -9 0 -27 -10 -40 -23 -13 -12 -35 -33 -50 -46 l-27 -24 -31 27 c-17 14 -41 26 -53 26 -14 0 -57 36 -123 103 l-101 102 -6 62 c-4 56 -3 63 19 82 13 11 24 30 24 41 0 12 98 118 264 285 l263 265 60 0 c56 0 61 -2 108 -45z m-1115 -970 c14 -14 35 -25 50 -25 27 0 70 -45 70 -74 0 -8 27 -40 60 -72 45 -43 60 -64 60 -85 0 -18 7 -32 20 -39 16 -8 20 -21 20 -58 0 -35 -5 -52 -20 -65 -11 -9 -20 -25 -20 -35 0 -24 -54 -75 -81 -77 -39 -3 -55 -66 -21 -84 9 -5 113 -10 231 -10 118 -1 218 -4 223 -7 5 -3 -23 -37 -62 -74 -64 -62 -74 -68 -104 -63 -25 4 -39 -1 -64 -22 l-32 -27 -30 25 -30 26 -203 1 -203 0 -23 -24 c-13 -14 -29 -22 -36 -20 -16 6 -85 -63 -85 -85 0 -10 18 -37 40 -62 22 -24 40 -51 40 -59 0 -8 25 -42 55 -75 30 -32 55 -62 55 -67 0 -12 -125 -138 -137 -138 -21 0 -73 54 -73 76 0 14 -29 50 -80 100 -53 51 -80 85 -80 100 0 14 -22 43 -60 80 -38 37 -60 66 -60 80 0 14 -22 43 -60 80 -38 36 -60 66 -60 79 0 14 -23 45 -59 81 -60 59 -66 74 -29 74 12 0 50 31 97 80 45 47 85 80 97 80 11 0 56 35 103 80 46 44 91 80 101 80 10 0 45 27 78 60 34 35 68 60 80 60 11 0 38 18 60 40 21 22 48 40 60 40 11 0 34 11 49 25 35 30 34 30 63 0z m-1109 -807 c24 -27 29 -40 27 -73 -3 -34 -7 -40 -28 -43 -14 -2 -35 -13 -48 -25 -12 -11 -31 -21 -42 -22 -11 -1 -26 -9 -33 -19 -7 -10 -24 -19 -37 -20 -14 -2 -45 -21 -69 -44 -24 -22 -49 -38 -56 -36 -6 3 -24 -6 -40 -18 -16 -13 -37 -21 -46 -20 -10 2 -23 -6 -29 -17 -6 -12 -21 -21 -33 -21 -13 0 -43 -18 -67 -40 -24 -22 -52 -40 -61 -40 -22 0 -49 -27 -49 -49 0 -9 18 -37 40 -61 22 -24 40 -52 40 -61 0 -23 27 -49 51 -49 10 0 27 9 36 20 10 11 28 20 40 20 13 0 31 9 40 20 10 11 27 20 38 20 11 0 41 18 65 40 24 22 52 40 61 40 9 0 28 11 43 25 22 20 31 23 47 15 10 -6 19 -19 19 -30 0 -10 11 -31 24 -47 28 -33 20 -63 -18 -63 -13 0 -31 -9 -41 -20 -10 -11 -25 -20 -34 -20 -9 0 -37 -18 -61 -40 -24 -22 -51 -40 -60 -40 -8 0 -27 -8 -40 -17 -14 -10 -38 -22 -55 -28 -38 -13 -44 -47 -16 -86 12 -15 21 -35 21 -42 0 -8 9 -26 20 -40 11 -14 20 -34 20 -45 0 -11 7 -25 15 -32 13 -11 20 -9 38 9 13 11 30 21 39 21 8 0 27 9 41 20 14 11 32 20 41 20 9 0 24 9 33 20 10 11 28 20 40 20 13 0 31 9 40 20 10 11 28 20 40 20 13 0 37 16 59 40 22 23 46 40 59 40 12 0 34 9 48 20 14 11 32 20 41 20 9 0 24 9 33 20 10 11 27 20 39 20 11 0 33 11 48 25 35 32 41 31 76 -6 46 -51 46 -119 -1 -119 -10 0 -40 -20 -65 -45 -26 -24 -51 -42 -56 -39 -6 4 -23 -3 -39 -15 -15 -11 -35 -21 -44 -21 -8 0 -23 -9 -32 -20 -10 -11 -27 -20 -38 -20 -12 0 -43 -20 -70 -44 -27 -25 -53 -42 -58 -39 -5 3 -22 -4 -38 -16 -15 -11 -37 -21 -48 -21 -11 0 -25 -9 -31 -20 -6 -11 -21 -20 -33 -20 -13 0 -44 -19 -72 -44 -27 -25 -53 -42 -58 -39 -5 3 -22 -4 -38 -16 -21 -16 -41 -21 -66 -19 -31 3 -38 8 -44 32 -5 17 -15 34 -24 38 -8 5 -15 19 -15 32 0 13 -9 35 -20 49 -11 14 -20 32 -20 40 0 9 -18 33 -40 55 -22 21 -40 48 -40 59 0 11 -9 32 -20 46 -11 14 -20 32 -20 41 0 9 -11 26 -25 38 -15 13 -23 28 -20 38 3 10 -10 31 -35 55 -22 22 -40 49 -40 61 0 12 -9 33 -20 47 -11 14 -20 32 -20 41 0 8 -9 24 -21 34 -16 16 -20 29 -17 67 3 45 5 48 30 49 18 1 39 14 60 39 20 22 43 37 56 37 12 0 30 9 39 20 10 11 27 20 38 20 11 0 41 18 65 40 24 22 52 40 62 40 10 0 26 9 35 20 10 11 28 20 40 20 13 0 31 9 40 20 10 11 27 20 38 20 11 0 41 18 65 40 24 22 52 40 62 40 10 0 26 9 35 20 10 11 27 20 39 20 11 0 33 11 48 25 35 32 41 32 77 -7z m-1799 -875 c17 -16 28 -37 28 -53 0 -15 9 -35 20 -45 11 -10 20 -26 20 -35 0 -10 10 -30 22 -45 14 -18 21 -40 20 -60 -2 -19 5 -42 18 -57 11 -15 20 -33 20 -41 0 -9 11 -29 25 -45 19 -23 24 -37 19 -60 -5 -23 -1 -35 15 -48 12 -10 21 -30 21 -45 0 -14 9 -34 20 -44 11 -10 20 -28 20 -40 0 -35 20 -45 87 -45 51 0 67 4 80 20 10 11 27 20 39 20 12 0 33 9 47 20 14 12 40 20 61 20 24 0 42 7 53 20 10 11 27 20 39 20 12 0 34 10 49 22 18 14 40 21 61 20 23 -2 39 4 51 18 10 11 28 20 40 20 12 0 31 10 43 22 l20 22 25 -24 c17 -16 25 -34 25 -57 0 -22 5 -33 14 -33 46 0 -2 -69 -48 -70 -11 0 -30 -10 -43 -22 -16 -15 -34 -21 -57 -20 -20 2 -42 -5 -58 -18 -15 -11 -35 -20 -45 -20 -11 0 -30 -11 -42 -24 -18 -19 -30 -23 -56 -19 -26 4 -37 1 -51 -16 -10 -11 -30 -21 -44 -21 -15 0 -37 -11 -50 -25 -19 -20 -30 -24 -56 -19 -25 5 -36 1 -50 -15 -10 -12 -30 -21 -44 -21 -15 0 -37 -11 -50 -25 -19 -20 -30 -24 -56 -19 -25 5 -36 1 -50 -15 -21 -24 -34 -19 -34 13 0 13 -9 31 -20 41 -11 10 -20 26 -20 37 0 10 -9 26 -20 35 -11 10 -20 27 -20 38 0 12 -11 36 -25 55 -17 23 -23 41 -18 57 4 17 -1 34 -16 53 -11 16 -21 35 -21 43 0 7 -11 28 -25 47 -17 23 -23 41 -18 57 4 17 -1 34 -16 53 -11 16 -21 35 -21 43 0 7 -11 28 -24 46 -18 24 -23 41 -19 61 4 21 -1 34 -18 51 -13 13 -22 33 -21 44 2 12 -6 29 -17 39 l-21 19 23 23 c12 13 32 24 44 24 12 0 35 11 50 25 35 31 41 31 75 -2z m-1174 -373 c2 -14 13 -35 25 -48 15 -16 21 -33 19 -55 -2 -21 4 -42 17 -59 15 -19 21 -41 21 -81 0 -39 6 -61 20 -80 14 -18 20 -40 20 -80 0 -41 5 -61 22 -82 15 -19 21 -39 19 -60 -1 -22 5 -41 23 -62 20 -24 24 -37 20 -64 -4 -25 -1 -39 10 -48 14 -12 20 -11 39 8 18 16 36 21 79 21 40 0 62 5 81 20 18 15 40 20 81 20 44 0 60 4 73 20 14 16 30 20 80 20 50 0 66 4 81 20 17 18 29 21 103 18 l84 -3 0 -65 0 -65 -67 -5 c-51 -4 -71 -10 -81 -25 -11 -14 -25 -18 -54 -17 -27 2 -48 -4 -65 -18 -19 -14 -41 -20 -81 -20 -39 0 -61 -6 -80 -20 -18 -14 -40 -20 -80 -20 -39 0 -61 -6 -80 -20 -18 -15 -40 -20 -81 -20 -44 0 -60 -4 -73 -20 -26 -30 -101 -28 -130 4 -19 19 -23 35 -23 84 0 44 -5 66 -20 85 -14 18 -20 40 -20 80 0 39 -6 61 -20 80 -14 18 -20 40 -20 80 0 44 -5 59 -25 81 -20 22 -24 34 -20 60 5 23 1 38 -14 58 -15 19 -21 41 -21 81 0 38 -6 61 -19 79 -20 25 -30 85 -18 105 4 7 22 9 45 6 28 -4 43 0 62 16 33 27 64 23 68 -9z m-713 -146 c16 -17 30 -24 41 -20 11 4 27 -3 46 -21 26 -25 28 -32 28 -109 0 -66 4 -86 20 -107 18 -22 20 -40 20 -160 0 -119 2 -137 20 -160 17 -22 20 -40 20 -136 0 -99 -2 -115 -22 -141 -12 -17 -31 -30 -44 -30 -12 0 -33 -9 -47 -20 -21 -17 -40 -20 -120 -20 -79 0 -98 -3 -119 -20 -23 -17 -42 -20 -181 -21 -137 0 -159 -3 -180 -19 -21 -17 -44 -19 -201 -20 l-177 -2 -26 26 c-20 20 -26 36 -25 65 1 25 -5 47 -18 64 -18 22 -20 41 -20 160 0 120 -2 137 -20 160 -19 24 -20 38 -18 203 l3 178 29 7 c17 5 34 15 38 24 6 10 24 15 52 15 28 0 52 7 69 20 22 18 40 20 160 20 119 0 137 2 160 20 23 18 40 20 200 20 156 0 177 2 198 19 21 16 36 22 82 30 4 0 19 -11 32 -25z m-1600 -124 c10 -11 31 -20 46 -20 20 0 38 -12 68 -46 l41 -47 0 -115 c0 -96 -3 -119 -17 -135 -12 -12 -20 -42 -23 -85 -5 -62 -7 -66 -34 -73 -15 -4 -36 -15 -45 -23 -11 -10 -44 -16 -97 -19 -44 -2 -85 -7 -92 -11 -31 -19 -2 -86 37 -86 22 0 278 -245 264 -253 -5 -3 -63 -7 -128 -8 l-118 -1 -181 181 -180 181 -61 0 c-48 0 -64 4 -78 20 -20 24 -50 26 -71 4 -13 -12 -16 -41 -16 -152 l0 -138 -27 -29 -28 -30 -80 5 -80 5 -3 219 -2 219 20 22 c20 21 21 33 20 221 0 109 -1 202 0 207 0 4 191 7 423 7 l424 0 18 -20z"/>
<path d="M15400 21515 c-6 -8 -10 -20 -7 -27 2 -7 -7 -26 -19 -41 -13 -16 -24 -38 -24 -51 0 -12 -9 -29 -20 -39 -11 -9 -20 -27 -20 -40 0 -12 -9 -30 -20 -40 -11 -9 -20 -27 -20 -40 0 -12 -9 -30 -20 -40 -11 -9 -20 -27 -20 -40 0 -12 -9 -30 -20 -40 -13 -11 -20 -29 -20 -53 0 -21 -8 -47 -20 -61 -11 -14 -20 -33 -20 -41 0 -9 -10 -26 -22 -39 l-22 -23 29 -30 c16 -17 41 -34 55 -37 14 -3 36 -14 49 -25 13 -10 30 -18 38 -18 8 0 26 -9 40 -20 14 -11 32 -20 40 -20 8 0 26 -9 40 -20 14 -11 36 -20 49 -20 13 0 28 -9 34 -20 7 -13 21 -20 40 -20 19 0 33 -7 40 -20 7 -13 21 -20 38 -20 15 0 35 -9 45 -20 12 -14 28 -20 51 -18 21 1 43 -6 61 -20 15 -12 34 -22 42 -22 8 0 26 -9 40 -20 46 -36 101 -21 89 24 -5 22 -2 28 20 38 21 10 25 17 20 39 -4 22 0 31 21 44 22 15 24 22 19 54 -5 32 -2 42 19 61 14 13 25 33 25 45 0 12 9 30 20 40 11 10 20 28 20 40 0 12 9 30 21 41 14 12 18 25 14 41 -4 18 0 26 20 35 20 9 25 18 23 39 -2 19 5 33 21 46 l24 19 -39 37 c-22 20 -46 37 -55 37 -9 0 -24 9 -34 20 -10 11 -30 20 -44 20 -15 0 -35 9 -45 21 -14 16 -25 20 -50 15 -26 -5 -37 -1 -56 19 -13 14 -33 25 -45 25 -12 0 -30 9 -40 20 -10 11 -28 20 -40 20 -12 0 -30 9 -40 20 -10 11 -28 20 -40 20 -12 0 -30 9 -40 20 -10 11 -30 20 -44 20 -15 0 -35 9 -45 21 -14 16 -25 20 -50 15 -26 -5 -37 -1 -56 19 -27 29 -33 30 -50 10z"/>
<path d="M8396 19828 c-3 -13 -6 -81 -6 -151 0 -114 -2 -132 -20 -154 -18 -23 -20 -41 -20 -180 0 -140 -2 -157 -20 -180 -18 -23 -20 -41 -20 -200 0 -160 -2 -177 -20 -200 -18 -23 -20 -41 -20 -185 l0 -159 -51 -49 c-29 -27 -56 -47 -61 -44 -6 4 -23 -3 -39 -15 -15 -11 -35 -21 -42 -21 -8 0 -26 -9 -40 -20 -14 -11 -32 -20 -41 -20 -9 0 -24 -9 -33 -20 -10 -11 -30 -20 -45 -20 -17 0 -31 -7 -38 -20 -6 -11 -21 -20 -33 -20 -13 0 -44 -19 -72 -44 -27 -25 -53 -42 -58 -39 -5 3 -22 -4 -38 -16 -15 -11 -35 -21 -42 -21 -8 0 -26 -9 -40 -20 -14 -11 -32 -20 -41 -20 -9 0 -24 -9 -33 -20 -10 -11 -30 -20 -45 -20 -17 0 -31 -7 -38 -20 -6 -11 -21 -20 -33 -20 -13 0 -44 -19 -72 -44 -27 -25 -53 -42 -58 -39 -5 3 -22 -4 -38 -16 -15 -11 -37 -21 -48 -21 -11 0 -25 -9 -31 -20 -6 -11 -21 -20 -33 -20 -13 0 -44 -19 -72 -44 -27 -25 -52 -43 -57 -40 -16 10 -48 -17 -48 -41 0 -34 26 -55 69 -55 25 0 44 -7 56 -20 10 -11 28 -20 40 -20 12 0 30 -9 40 -20 10 -11 31 -20 46 -20 18 0 32 -7 39 -20 7 -13 21 -20 40 -20 20 0 33 -7 41 -21 7 -15 18 -20 34 -16 17 3 31 -4 45 -21 18 -19 28 -23 55 -19 26 4 38 0 56 -19 13 -14 34 -24 50 -24 18 0 32 -7 39 -20 7 -13 21 -20 38 -20 16 0 35 -9 46 -21 14 -17 25 -20 51 -16 26 4 38 0 56 -19 12 -13 32 -24 44 -24 12 0 30 -9 40 -20 10 -11 31 -20 46 -20 18 0 32 -7 39 -20 7 -13 21 -20 38 -20 16 0 35 -9 46 -21 14 -17 25 -20 51 -16 26 4 38 0 56 -19 12 -13 32 -24 45 -24 12 0 27 -7 34 -15 7 -8 27 -19 44 -23 l31 -8 5 -66 c3 -43 11 -73 23 -85 13 -15 17 -37 17 -95 0 -60 4 -80 20 -101 16 -20 20 -40 20 -100 0 -59 4 -79 20 -100 17 -21 20 -40 20 -120 0 -79 3 -98 20 -120 16 -20 20 -40 20 -100 0 -59 4 -79 20 -100 16 -20 20 -40 20 -100 0 -59 4 -79 20 -100 16 -20 20 -42 22 -122 2 -87 4 -100 27 -130 14 -19 31 -34 38 -35 7 0 34 24 60 52 26 29 112 117 191 196 79 81 142 152 142 162 0 10 78 97 180 201 99 100 180 189 180 198 0 9 55 74 123 144 l122 127 139 0 c123 0 141 -2 163 -20 23 -18 41 -20 160 -20 120 0 138 -2 160 -20 22 -17 41 -20 140 -20 100 0 118 -3 140 -20 23 -18 41 -20 160 -20 120 0 138 -2 160 -20 22 -17 41 -20 144 -20 115 0 149 4 149 20 0 4 -10 20 -22 35 -12 16 -23 37 -23 48 -1 11 -9 24 -18 29 -10 5 -17 19 -17 31 0 13 -18 43 -40 67 -22 24 -40 52 -40 61 0 9 -9 28 -20 42 -11 14 -20 32 -20 40 0 8 -9 26 -20 40 -11 14 -20 31 -20 39 0 8 -18 34 -40 58 -22 24 -40 52 -40 61 0 9 -9 28 -20 42 -11 14 -20 32 -20 40 0 8 -9 26 -20 40 -11 14 -20 32 -20 40 0 9 -18 33 -40 55 -22 21 -40 48 -40 59 0 11 -9 32 -20 46 -11 14 -20 32 -20 40 0 8 -9 26 -20 40 -11 14 -20 32 -20 40 0 9 -18 33 -40 55 -22 21 -40 48 -40 59 0 11 -9 32 -20 46 -11 14 -20 32 -20 40 0 9 -18 33 -41 55 l-40 40 22 15 c16 12 20 22 15 41 -5 22 -2 28 20 38 21 10 25 17 20 40 -5 24 -1 31 20 40 21 10 25 17 20 40 -5 24 -1 31 20 40 21 10 25 17 20 39 -4 22 0 31 21 44 22 15 24 22 19 54 -5 32 -2 42 19 61 14 13 25 33 25 45 0 12 9 30 20 40 11 10 20 28 20 40 0 12 9 30 21 41 14 12 18 25 14 41 -4 18 0 26 21 35 21 10 25 17 20 40 -5 24 -1 31 20 40 21 10 25 17 20 40 -5 24 -1 31 20 40 21 10 25 17 20 40 -5 24 -1 31 20 40 21 10 25 17 20 39 -4 22 0 31 21 44 22 15 24 22 19 54 -5 32 -2 42 19 61 14 13 25 33 25 45 0 12 9 30 20 40 11 10 20 30 20 44 0 15 9 34 20 44 21 18 25 43 11 65 -13 22 -100 22 -121 0 -13 -15 -33 -19 -99 -20 -63 -1 -89 -6 -106 -20 -16 -13 -45 -19 -105 -21 -64 -3 -85 -8 -92 -21 -7 -12 -24 -16 -72 -16 -48 0 -69 -5 -89 -20 -20 -16 -42 -21 -103 -22 -56 -1 -82 -6 -99 -20 -16 -13 -45 -19 -105 -21 -64 -3 -85 -8 -92 -21 -7 -12 -24 -16 -72 -16 -48 0 -69 -5 -89 -20 -20 -16 -43 -21 -106 -23 -67 -2 -83 -6 -95 -22 l-15 -20 -240 240 c-143 143 -250 241 -263 243 -13 3 -128 109 -283 263 l-260 259 -46 0 c-40 0 -48 -3 -53 -22z"/>
<path d="M16278 16990 c-15 -11 -41 -20 -61 -20 -23 0 -46 -9 -64 -24 -20 -17 -36 -22 -58 -19 -23 3 -37 -2 -59 -22 -22 -21 -34 -24 -61 -19 -27 5 -37 2 -51 -15 -10 -12 -30 -21 -44 -21 -15 0 -36 -11 -49 -24 -18 -19 -30 -23 -55 -19 -24 4 -39 -1 -62 -20 -21 -18 -37 -23 -59 -20 -23 3 -37 -2 -59 -22 -22 -21 -34 -24 -61 -19 -27 5 -37 2 -51 -15 -10 -12 -30 -21 -44 -21 -15 0 -36 -11 -49 -24 -18 -19 -30 -23 -55 -19 -25 4 -39 -1 -63 -21 -24 -20 -38 -25 -61 -20 -23 5 -35 1 -48 -15 -10 -12 -30 -21 -45 -21 -14 0 -34 -9 -44 -20 -12 -13 -31 -20 -56 -20 -25 0 -47 -8 -66 -24 -20 -17 -36 -22 -59 -19 -22 4 -38 -2 -61 -21 -24 -20 -38 -25 -61 -20 -23 5 -35 1 -48 -15 -10 -12 -30 -21 -45 -21 -14 0 -34 -9 -44 -20 -12 -13 -31 -20 -56 -20 -25 0 -47 -8 -66 -24 -20 -17 -36 -22 -59 -19 -22 4 -38 -2 -61 -21 -24 -20 -38 -25 -61 -20 -23 5 -35 1 -48 -15 -10 -12 -30 -21 -45 -21 -14 0 -34 -9 -44 -20 -12 -13 -31 -20 -56 -20 -25 0 -47 -8 -66 -24 -20 -17 -36 -22 -59 -19 -22 4 -38 -2 -61 -21 -24 -20 -38 -25 -61 -20 -23 5 -35 1 -48 -15 -10 -12 -30 -21 -45 -21 -14 0 -34 -9 -44 -20 -12 -13 -31 -20 -56 -20 -25 0 -47 -8 -66 -24 -20 -17 -36 -22 -59 -19 -22 4 -38 -2 -61 -21 -24 -20 -38 -25 -61 -20 -23 5 -35 1 -48 -15 -10 -12 -30 -21 -45 -21 -14 0 -34 -9 -44 -20 -12 -13 -31 -20 -56 -20 -25 0 -47 -8 -66 -24 -20 -17 -36 -22 -59 -19 -22 4 -38 -2 -60 -20 -21 -18 -37 -23 -59 -20 -23 3 -37 -2 -59 -22 -22 -21 -34 -24 -61 -19 -27 5 -37 2 -51 -15 -10 -12 -30 -21 -44 -21 -15 0 -36 -11 -49 -24 -18 -19 -30 -23 -55 -19 -24 4 -39 -1 -62 -20 -22 -18 -37 -23 -61 -20 -23 4 -36 0 -49 -16 -10 -12 -30 -21 -45 -21 -14 0 -34 -9 -44 -20 -12 -13 -31 -20 -56 -20 -25 0 -47 -8 -66 -24 -20 -17 -36 -22 -59 -19 -22 4 -38 -2 -61 -21 -24 -20 -38 -25 -61 -20 -23 5 -35 1 -48 -15 -10 -12 -30 -21 -45 -21 -14 0 -34 -9 -44 -20 -12 -13 -31 -20 -56 -20 -25 0 -47 -8 -66 -24 -20 -17 -36 -22 -59 -19 -24 4 -37 -1 -53 -18 -16 -18 -30 -22 -64 -20 -54 2 -65 -10 -63 -69 1 -33 9 -53 24 -68 18 -18 21 -30 16 -57 -5 -27 -2 -37 15 -51 12 -10 21 -28 21 -40 0 -12 9 -33 20 -47 11 -14 20 -40 20 -60 0 -19 9 -45 20 -60 11 -14 20 -40 20 -60 0 -23 9 -46 24 -64 17 -20 22 -36 19 -59 -4 -22 2 -38 21 -61 20 -24 25 -38 20 -61 -5 -23 -1 -35 15 -48 12 -10 21 -28 21 -40 0 -12 9 -33 20 -47 11 -14 20 -40 20 -60 0 -23 9 -46 24 -64 17 -20 22 -36 19 -59 -4 -22 2 -38 21 -61 20 -24 25 -38 20 -61 -5 -23 -1 -35 15 -48 12 -10 21 -28 21 -40 0 -12 9 -33 20 -47 11 -14 20 -40 20 -60 0 -23 9 -46 24 -64 17 -20 22 -36 19 -59 -4 -23 2 -38 21 -62 20 -23 25 -37 20 -56 -4 -18 0 -35 12 -54 11 -15 21 -40 24 -56 7 -39 24 -43 52 -11 19 22 28 25 60 20 30 -5 40 -3 55 14 9 12 27 21 39 21 12 0 33 9 47 20 14 11 40 20 61 20 23 0 42 7 56 22 15 16 30 21 58 20 29 -2 45 4 65 22 21 20 34 24 61 19 27 -4 38 -1 52 16 10 11 28 21 40 21 12 0 33 9 47 20 14 11 40 20 61 20 23 0 42 7 56 22 15 16 30 21 58 20 29 -2 45 4 65 22 21 20 34 24 61 19 27 -4 38 -1 52 16 10 11 28 21 40 21 12 0 33 9 47 20 14 11 40 20 61 20 23 0 42 7 56 22 15 16 30 21 58 20 29 -2 45 4 65 22 21 20 34 24 61 19 27 -4 38 -1 52 16 10 11 28 21 40 21 12 0 33 9 47 20 14 11 40 20 61 20 23 0 42 7 56 22 15 16 30 21 58 20 29 -2 45 4 65 22 21 20 34 24 61 19 27 -4 38 -1 52 16 10 11 28 21 40 21 12 0 33 9 47 20 14 11 40 20 60 20 20 0 46 9 62 22 19 14 39 21 60 20 22 -2 39 4 58 22 21 20 34 24 61 19 27 -4 38 -1 52 16 10 11 28 21 40 21 12 0 33 9 47 20 14 11 40 20 60 20 20 0 46 9 62 22 19 14 39 21 60 20 22 -2 39 4 58 22 21 19 34 24 59 19 26 -4 39 1 60 20 22 21 35 25 62 20 27 -4 38 -1 52 16 10 11 28 21 40 21 12 0 33 9 47 20 14 11 40 20 61 20 23 0 42 7 56 22 15 16 30 21 58 20 29 -2 45 4 65 22 21 19 34 24 59 19 26 -4 39 1 60 20 22 21 35 25 62 20 27 -4 38 -1 52 16 10 11 28 21 40 21 12 0 33 9 47 20 14 11 40 20 60 20 20 0 46 9 61 21 18 14 37 19 63 17 31 -3 38 -8 44 -32 4 -15 16 -37 25 -48 11 -12 17 -32 16 -52 -2 -24 5 -43 23 -64 19 -23 24 -37 19 -60 -5 -23 -1 -35 15 -48 12 -10 21 -28 21 -40 0 -12 9 -33 20 -47 11 -14 20 -40 20 -60 0 -23 9 -46 24 -64 17 -20 22 -36 19 -59 -4 -22 2 -38 21 -61 20 -24 25 -38 20 -61 -5 -23 -1 -35 15 -48 12 -10 21 -28 21 -40 0 -12 9 -33 20 -47 11 -14 20 -40 20 -60 0 -23 9 -46 24 -64 17 -20 22 -36 19 -59 -4 -22 2 -38 21 -61 20 -23 25 -38 20 -60 -4 -22 0 -35 21 -57 21 -23 24 -34 19 -62 -5 -26 -2 -40 11 -54 l18 -19 -26 -10 c-15 -6 -36 -20 -47 -31 -16 -16 -28 -19 -55 -14 -27 5 -37 2 -51 -15 -10 -12 -30 -21 -45 -21 -14 0 -34 -9 -44 -20 -12 -13 -31 -20 -56 -20 -25 0 -47 -8 -66 -24 -20 -17 -36 -22 -58 -19 -23 3 -37 -2 -59 -22 -22 -21 -34 -24 -61 -19 -27 5 -37 2 -51 -15 -10 -12 -30 -21 -45 -21 -14 0 -34 -9 -44 -20 -12 -13 -31 -20 -56 -20 -25 0 -47 -8 -66 -24 -20 -17 -36 -22 -58 -19 -23 3 -37 -2 -59 -22 -22 -21 -34 -24 -61 -19 -27 5 -37 2 -51 -15 -10 -12 -30 -21 -45 -21 -14 0 -34 -9 -44 -20 -12 -13 -31 -20 -56 -20 -25 0 -47 -8 -66 -24 -20 -17 -36 -22 -58 -19 -23 3 -37 -2 -59 -22 -22 -21 -34 -24 -61 -19 -27 5 -37 2 -51 -15 -10 -12 -30 -21 -45 -21 -14 0 -34 -9 -44 -20 -12 -13 -31 -20 -55 -20 -22 0 -48 -8 -63 -20 -14 -11 -40 -20 -60 -20 -19 0 -45 -9 -60 -20 -14 -11 -40 -20 -60 -20 -20 0 -46 -9 -61 -21 -18 -14 -37 -19 -63 -17 l-38 3 -5 46 c-3 25 -15 58 -28 73 -15 20 -20 36 -16 53 5 17 0 34 -15 53 -11 16 -21 35 -21 43 0 7 -11 28 -24 46 -17 23 -23 42 -20 60 4 18 -3 36 -20 60 -18 24 -23 41 -20 61 5 20 0 33 -16 48 -16 15 -23 33 -24 65 -1 27 -8 53 -19 64 -9 11 -17 26 -17 34 0 8 -11 30 -24 48 -18 23 -23 42 -20 60 4 19 -1 34 -20 54 -20 21 -24 34 -19 60 9 60 -40 86 -90 47 -14 -11 -40 -20 -60 -20 -19 0 -45 -9 -60 -20 -14 -11 -40 -20 -60 -20 -19 0 -45 -9 -60 -20 -14 -11 -40 -20 -60 -20 -23 0 -46 -9 -64 -24 -20 -17 -36 -22 -59 -19 -22 4 -38 -2 -60 -20 -22 -18 -37 -23 -61 -20 -23 4 -36 0 -49 -16 -10 -12 -30 -21 -45 -21 -14 0 -34 -9 -44 -20 -12 -13 -31 -20 -56 -20 -25 0 -47 -8 -66 -24 -20 -17 -36 -22 -59 -19 -22 4 -38 -2 -60 -20 -22 -18 -37 -23 -61 -20 -23 4 -36 0 -49 -16 -10 -12 -30 -21 -45 -21 -14 0 -34 -9 -44 -20 -12 -13 -31 -20 -56 -20 -25 0 -47 -8 -66 -24 -20 -17 -36 -22 -59 -19 -22 4 -38 -2 -61 -21 -24 -20 -38 -25 -61 -20 -23 5 -35 1 -48 -15 -10 -12 -30 -21 -45 -21 -14 0 -34 -9 -43 -19 -10 -11 -32 -21 -50 -23 l-31 -3 -3 -49 c-2 -38 2 -56 17 -77 12 -16 21 -44 21 -63 0 -22 9 -45 24 -63 17 -20 22 -36 19 -59 -4 -22 2 -38 21 -61 20 -24 25 -38 20 -61 -5 -23 -1 -35 15 -48 12 -10 21 -28 21 -40 0 -12 9 -33 20 -47 11 -14 20 -40 20 -60 0 -23 9 -46 24 -64 17 -20 22 -36 19 -59 -4 -22 2 -38 21 -61 20 -24 25 -38 20 -61 -5 -23 -1 -35 15 -48 12 -10 21 -28 21 -40 0 -12 9 -33 20 -47 11 -14 20 -40 20 -60 0 -23 9 -46 24 -64 17 -20 22 -36 19 -59 -4 -22 2 -38 21 -61 20 -24 25 -38 20 -61 -5 -23 -1 -35 15 -48 12 -10 21 -28 21 -40 0 -12 9 -33 20 -47 11 -14 20 -40 20 -60 0 -19 9 -45 20 -60 11 -14 20 -40 20 -60 0 -23 9 -46 25 -65 19 -23 24 -37 19 -60 -5 -23 -1 -35 15 -48 12 -10 21 -28 21 -40 0 -12 9 -33 20 -47 11 -14 20 -40 20 -60 0 -19 9 -45 20 -60 11 -14 20 -40 20 -60 0 -23 9 -46 25 -65 19 -23 24 -37 19 -60 -5 -23 -1 -35 15 -48 12 -10 21 -28 21 -40 0 -12 9 -33 20 -47 11 -14 20 -40 20 -60 0 -19 9 -45 20 -60 11 -14 20 -40 20 -60 0 -23 9 -46 25 -65 19 -23 24 -37 19 -60 -5 -23 -1 -35 15 -48 12 -10 21 -28 21 -40 0 -12 9 -33 20 -47 11 -14 20 -40 20 -60 0 -19 9 -45 20 -60 11 -14 20 -40 20 -60 0 -23 9 -46 24 -64 17 -20 22 -36 19 -58 -3 -23 2 -37 22 -59 21 -22 24 -34 19 -61 -5 -27 -2 -37 15 -51 12 -10 21 -28 21 -40 0 -12 10 -34 22 -49 14 -18 21 -40 20 -60 -2 -23 5 -42 23 -63 19 -23 24 -37 19 -60 -5 -23 -1 -35 15 -48 12 -10 21 -28 21 -40 0 -12 9 -33 20 -47 11 -14 20 -40 20 -60 0 -19 9 -45 20 -60 11 -14 20 -40 20 -60 0 -23 9 -46 25 -65 19 -23 24 -37 19 -60 -5 -23 -1 -35 15 -48 12 -10 21 -28 21 -40 0 -12 9 -33 20 -47 11 -14 20 -40 20 -60 0 -23 9 -46 24 -64 17 -20 22 -36 19 -59 -4 -22 2 -38 21 -61 20 -24 25 -38 20 -61 -5 -23 -1 -35 15 -48 12 -10 21 -28 21 -40 0 -13 11 -35 24 -51 17 -21 23 -36 19 -57 -4 -19 1 -37 16 -56 11 -16 21 -36 21 -43 0 -8 9 -26 20 -40 11 -14 20 -34 20 -44 0 -30 20 -43 66 -43 30 0 48 7 67 24 21 20 34 24 61 19 27 -4 38 -1 52 16 10 11 28 21 40 21 12 0 33 9 47 20 14 11 40 20 60 20 20 0 46 9 62 22 19 14 39 21 60 20 22 -2 39 4 58 22 21 20 34 24 61 19 27 -4 38 -1 52 16 10 11 28 21 40 21 12 0 33 9 47 20 14 11 40 20 60 20 20 0 46 9 62 22 19 14 39 21 60 20 22 -2 39 4 58 22 21 20 34 24 61 19 27 -4 38 -1 52 16 10 11 28 21 40 21 12 0 33 9 47 20 14 11 40 20 60 20 20 0 46 9 62 22 19 14 39 21 60 20 22 -2 39 4 58 22 21 20 34 24 61 19 28 -4 38 -1 56 20 13 15 29 23 40 20 11 -3 26 4 36 16 10 12 28 21 40 21 29 0 54 10 54 21 0 5 -11 19 -26 31 -21 19 -24 28 -19 59 5 30 2 41 -15 57 -16 15 -23 34 -24 66 -1 31 -7 50 -20 59 -13 9 -19 27 -20 59 -1 28 -8 54 -19 65 -9 11 -17 26 -17 34 0 8 -11 30 -24 48 -17 23 -23 42 -20 60 4 18 -3 36 -20 60 -18 24 -23 41 -20 61 5 20 0 33 -16 48 -16 15 -23 33 -24 65 -1 27 -8 53 -19 64 -9 11 -17 26 -17 35 0 8 -9 27 -20 41 -11 14 -20 40 -20 59 0 20 -10 47 -24 67 -18 24 -23 41 -20 61 5 20 0 33 -16 48 -16 15 -23 33 -24 65 -1 27 -8 53 -19 64 -9 11 -17 26 -17 35 0 8 -9 27 -20 41 -11 14 -20 40 -20 59 0 20 -10 47 -24 67 -17 23 -23 42 -20 60 4 18 -3 36 -20 60 -18 24 -23 41 -20 61 5 20 0 33 -16 48 -16 15 -23 33 -24 64 -1 30 -8 50 -24 66 -18 18 -21 30 -16 56 4 27 1 38 -16 54 -17 16 -21 29 -18 67 3 45 5 48 30 49 15 1 37 11 50 23 17 15 32 19 55 16 24 -4 36 0 49 16 10 12 28 21 40 21 12 0 33 9 47 20 14 11 40 20 60 20 20 0 46 9 62 22 19 14 39 21 60 20 22 -2 39 4 58 22 21 20 34 24 61 19 27 -4 38 -1 52 16 10 11 28 21 40 21 12 0 33 9 47 20 20 16 40 20 99 20 l74 0 65 -60 c35 -33 71 -60 80 -60 8 0 44 -27 80 -60 35 -33 71 -60 80 -60 8 0 44 -27 80 -60 35 -33 71 -60 79 -60 8 0 44 -27 80 -60 36 -33 72 -60 80 -60 8 0 44 -27 80 -60 36 -33 72 -60 81 -60 8 0 53 -36 100 -80 49 -47 93 -80 105 -80 12 0 44 -25 78 -60 35 -37 66 -60 79 -60 13 0 45 -24 81 -60 35 -36 67 -60 80 -60 12 0 45 -25 80 -60 35 -36 67 -60 80 -60 12 0 45 -25 80 -60 35 -36 67 -60 80 -60 12 0 45 -25 80 -60 35 -36 67 -60 80 -60 12 0 45 -25 80 -60 36 -38 67 -60 81 -60 13 0 37 -17 59 -41 l38 -40 22 20 c14 13 36 21 58 21 23 0 44 8 61 24 21 20 34 24 61 19 27 -4 38 -1 52 16 10 11 28 21 40 21 12 0 33 9 47 20 14 11 40 20 60 20 20 0 46 9 62 22 19 15 39 21 61 19 23 -2 38 4 53 20 16 17 31 22 59 21 29 -2 45 4 65 22 21 20 34 24 61 19 27 -4 38 -1 52 16 10 11 28 21 40 21 12 0 33 9 47 20 14 11 40 20 61 20 23 0 42 7 56 22 15 16 30 21 58 20 29 -2 45 4 65 22 21 20 34 24 61 19 27 -4 38 -1 52 16 10 11 28 21 40 21 12 0 33 9 47 20 14 11 40 20 61 20 23 0 42 7 56 22 15 16 30 21 58 20 29 -2 45 4 65 22 21 20 34 24 61 19 27 -4 38 -1 52 16 10 11 28 21 40 21 12 0 33 9 47 20 14 11 40 20 60 20 23 0 43 8 62 26 23 21 35 25 62 21 36 -6 63 0 63 13 0 16 -154 160 -171 160 -10 0 -46 27 -81 60 -34 33 -71 60 -80 60 -10 0 -55 36 -100 80 -47 45 -92 80 -103 80 -11 0 -46 27 -79 60 -35 36 -67 60 -80 60 -12 0 -45 25 -80 60 -35 36 -67 60 -80 60 -12 0 -45 25 -80 60 -35 36 -67 60 -80 60 -12 0 -45 25 -80 60 -35 36 -67 60 -80 60 -12 0 -45 25 -80 60 -35 36 -67 60 -80 60 -12 0 -45 25 -80 60 -32 33 -67 60 -77 60 -10 0 -56 36 -101 80 -47 45 -92 80 -103 80 -11 0 -46 27 -79 60 -35 36 -67 60 -80 60 -12 0 -43 23 -76 57 -30 31 -66 59 -80 63 -39 10 -35 51 6 62 17 4 37 15 44 23 7 8 21 15 30 15 24 0 250 224 250 247 0 11 18 37 41 58 29 29 39 46 36 62 -3 16 3 27 21 39 21 14 23 21 18 53 -5 32 -2 42 20 62 22 21 25 30 20 66 -5 36 -2 43 19 57 l25 16 0 163 0 163 -24 33 c-18 24 -23 41 -20 61 5 20 0 33 -16 48 -16 15 -23 33 -24 66 -1 31 -7 50 -20 59 -13 9 -19 27 -20 59 -1 28 -8 54 -19 65 -9 11 -17 26 -17 34 0 8 -11 30 -24 48 -17 23 -23 42 -20 60 4 18 -3 36 -20 60 -18 24 -23 41 -20 61 5 20 0 33 -16 48 -16 15 -23 33 -24 65 -1 27 -8 53 -19 64 -9 11 -17 26 -17 35 0 8 -9 27 -20 41 -11 14 -20 40 -20 59 0 20 -10 47 -24 67 -18 24 -23 41 -20 61 5 20 0 33 -16 48 -16 15 -23 33 -24 65 -1 27 -8 53 -19 64 -9 11 -17 26 -17 35 0 8 -9 27 -20 41 -11 14 -20 40 -20 59 0 20 -10 47 -24 67 -18 24 -23 41 -20 61 5 20 0 33 -16 48 -16 15 -23 33 -24 66 -1 31 -7 50 -20 59 -13 9 -19 27 -20 59 -1 28 -8 54 -19 65 -9 11 -17 26 -17 34 0 8 -11 30 -24 48 -18 24 -23 41 -20 61 5 20 0 33 -16 48 -16 15 -23 33 -24 66 -1 31 -7 50 -20 59 -13 9 -19 27 -20 59 -1 28 -8 54 -19 65 -9 11 -17 26 -17 34 0 8 -11 30 -24 48 -18 24 -23 41 -20 61 5 20 0 33 -16 48 -16 15 -23 33 -24 65 -1 27 -8 53 -19 64 -9 11 -17 26 -17 35 0 8 -9 27 -20 41 -11 14 -20 40 -20 59 0 20 -10 47 -24 67 -18 24 -23 41 -20 61 5 20 0 33 -16 48 -16 15 -23 33 -24 65 -1 27 -8 53 -19 64 -9 11 -17 26 -17 34 0 8 -11 30 -25 49 -17 23 -23 41 -18 57 4 17 -1 34 -16 53 -11 16 -21 36 -21 43 0 8 -9 26 -20 40 -11 14 -20 32 -20 40 0 20 -110 127 -131 127 -9 0 -46 27 -81 60 -34 33 -70 60 -79 60 -9 0 -24 9 -34 20 -10 11 -28 20 -40 20 -12 0 -30 9 -40 20 -10 11 -30 20 -44 20 -15 0 -35 9 -45 21 -13 16 -25 20 -48 15 -23 -5 -37 0 -61 20 -23 19 -39 25 -61 21 -22 -3 -39 2 -58 19 -26 21 -36 23 -186 23 -145 1 -161 0 -184 -19z"/>
<path d="M10911 15826 c-18 -19 -30 -23 -55 -19 -25 4 -39 -1 -63 -21 -23 -20 -38 -25 -60 -20 -22 4 -35 0 -57 -21 -22 -21 -34 -24 -61 -19 -27 5 -37 2 -51 -15 -10 -12 -30 -21 -45 -21 -14 0 -34 -9 -44 -20 -12 -13 -31 -20 -56 -20 -25 0 -47 -8 -66 -24 -20 -17 -36 -22 -58 -19 -23 3 -37 -2 -59 -22 -22 -21 -34 -24 -61 -19 -27 5 -37 2 -51 -15 -10 -12 -30 -21 -45 -21 -14 0 -34 -9 -44 -20 -12 -13 -31 -20 -56 -20 -25 0 -47 -8 -66 -24 -20 -17 -36 -22 -58 -19 -23 3 -37 -2 -59 -22 -22 -21 -34 -24 -61 -19 -27 5 -37 2 -51 -15 -10 -12 -30 -21 -45 -21 -14 0 -34 -9 -44 -20 -12 -13 -31 -20 -56 -20 -25 0 -47 -8 -66 -24 -20 -17 -36 -22 -58 -19 -23 3 -37 -2 -59 -22 -22 -21 -34 -24 -61 -19 -27 5 -37 2 -51 -15 -10 -12 -30 -21 -44 -21 -15 0 -36 -11 -49 -24 -18 -19 -30 -23 -55 -19 -25 4 -38 -2 -71 -31 l-39 -35 22 -24 c14 -15 22 -36 22 -59 0 -24 8 -46 25 -66 19 -23 24 -37 19 -60 -5 -23 -1 -35 15 -48 12 -10 21 -28 21 -40 0 -12 9 -33 20 -47 11 -14 20 -40 20 -60 0 -19 9 -45 20 -60 11 -14 20 -40 20 -60 0 -23 9 -46 24 -64 17 -20 22 -36 19 -59 -4 -22 2 -38 21 -61 20 -24 25 -38 20 -61 -5 -23 -1 -35 15 -48 12 -10 21 -28 21 -40 0 -12 9 -33 20 -47 11 -14 20 -40 20 -60 0 -23 9 -46 24 -64 17 -20 22 -36 19 -59 -4 -22 2 -38 21 -61 20 -24 25 -38 20 -61 -5 -23 -1 -35 15 -48 12 -10 21 -28 21 -40 0 -12 9 -33 20 -47 11 -14 20 -40 20 -60 0 -23 9 -46 24 -64 17 -20 22 -36 19 -59 -4 -22 2 -38 21 -61 20 -24 25 -38 20 -61 -5 -23 -1 -35 15 -48 12 -10 21 -28 21 -40 0 -12 9 -33 20 -47 11 -14 20 -40 20 -60 0 -23 9 -46 24 -64 17 -20 22 -36 19 -59 -4 -22 2 -38 21 -61 20 -24 25 -38 20 -61 -5 -23 -1 -35 15 -48 12 -10 21 -28 21 -40 0 -12 9 -33 20 -47 11 -14 20 -40 20 -60 0 -23 9 -46 24 -64 17 -20 22 -36 19 -59 -4 -22 2 -38 21 -61 20 -24 25 -38 20 -61 -5 -23 -1 -35 15 -48 12 -10 21 -28 21 -40 0 -12 9 -33 20 -47 11 -14 20 -40 20 -60 0 -23 9 -46 24 -64 17 -20 22 -36 19 -59 -4 -22 2 -38 21 -61 20 -24 25 -38 20 -61 -5 -23 -1 -35 15 -48 12 -10 21 -28 21 -40 0 -12 9 -33 20 -47 11 -14 20 -40 20 -60 0 -23 9 -46 24 -64 17 -20 22 -36 19 -59 -4 -22 2 -38 21 -61 20 -24 25 -38 20 -61 -5 -23 -1 -35 15 -48 12 -10 21 -28 21 -40 0 -12 9 -33 20 -47 11 -14 20 -40 20 -60 0 -23 9 -46 24 -64 17 -20 22 -36 19 -59 -4 -22 2 -38 21 -61 20 -24 25 -38 20 -61 -5 -23 -1 -35 15 -48 12 -10 21 -28 21 -40 0 -12 9 -33 20 -47 11 -14 20 -40 20 -60 0 -23 9 -46 24 -64 17 -20 22 -36 19 -59 -4 -22 2 -38 21 -61 20 -24 25 -38 20 -61 -5 -23 -1 -35 15 -48 12 -10 21 -28 21 -40 0 -12 9 -33 20 -47 11 -14 20 -40 20 -60 0 -19 9 -45 20 -60 11 -14 20 -40 20 -60 0 -23 9 -46 25 -65 19 -22 24 -37 19 -59 -4 -22 0 -35 21 -57 21 -22 24 -34 19 -61 -5 -27 -2 -37 15 -51 12 -10 21 -28 21 -40 0 -13 11 -35 24 -51 17 -20 22 -36 19 -59 -4 -22 2 -38 20 -60 18 -21 23 -37 20 -59 -3 -23 2 -37 22 -59 21 -22 24 -34 19 -61 -5 -27 -2 -37 15 -51 12 -10 21 -28 21 -40 0 -12 10 -34 22 -49 14 -18 21 -40 20 -60 -2 -22 5 -42 21 -61 18 -21 23 -37 20 -59 -3 -23 2 -37 22 -59 21 -22 24 -34 19 -61 -5 -27 -2 -37 15 -51 12 -10 21 -28 21 -40 0 -12 9 -33 20 -47 11 -14 20 -40 20 -60 0 -23 9 -46 24 -64 17 -20 22 -36 19 -58 -3 -23 2 -37 22 -59 21 -22 24 -34 19 -61 -5 -27 -2 -37 15 -51 12 -10 21 -28 21 -40 0 -12 9 -33 20 -47 11 -14 20 -40 20 -60 0 -23 9 -46 24 -64 17 -20 22 -36 19 -59 -4 -22 2 -38 21 -61 20 -24 25 -38 20 -61 -5 -23 -1 -35 15 -48 12 -10 21 -28 21 -40 0 -12 9 -33 20 -47 11 -14 20 -40 20 -60 0 -23 9 -46 24 -64 17 -20 22 -36 19 -59 -4 -22 2 -38 21 -61 20 -24 25 -38 20 -61 -5 -23 -1 -35 15 -48 12 -10 21 -28 21 -40 0 -12 9 -33 20 -47 11 -14 20 -40 20 -60 0 -23 9 -46 24 -64 17 -20 22 -36 19 -59 -4 -22 2 -38 21 -61 20 -23 25 -38 20 -60 -4 -22 0 -35 21 -57 20 -22 24 -34 20 -60 -5 -25 -1 -37 17 -57 21 -22 23 -32 18 -85 -5 -55 -7 -59 -31 -62 -15 -2 -35 -12 -45 -23 -11 -12 -30 -19 -55 -19 -25 0 -47 -8 -66 -24 -21 -17 -36 -22 -60 -19 -23 4 -36 0 -49 -16 -10 -12 -30 -21 -45 -21 -14 0 -34 -9 -44 -20 -12 -13 -31 -20 -56 -20 -25 0 -47 -8 -66 -24 -20 -17 -36 -22 -58 -19 -23 3 -37 -2 -59 -22 -22 -21 -34 -24 -61 -19 -27 5 -37 2 -51 -15 -10 -12 -30 -21 -45 -21 -14 0 -34 -9 -44 -20 -12 -13 -31 -20 -56 -20 -25 0 -47 -8 -66 -24 -20 -17 -36 -22 -58 -19 -23 3 -37 -2 -59 -22 -22 -21 -34 -24 -61 -19 -27 5 -37 2 -51 -15 -10 -12 -30 -21 -45 -21 -14 0 -34 -9 -44 -20 -12 -13 -31 -20 -56 -20 -25 0 -47 -8 -66 -24 -20 -17 -36 -22 -58 -19 -23 3 -37 -2 -59 -22 -22 -21 -34 -24 -61 -19 -27 5 -37 2 -51 -15 -10 -12 -30 -21 -45 -21 -14 0 -34 -9 -44 -20 -12 -13 -31 -20 -56 -20 -25 0 -47 -8 -66 -24 -20 -17 -36 -22 -58 -19 -23 3 -37 -2 -59 -22 -22 -21 -34 -24 -61 -19 -27 5 -37 2 -51 -15 -10 -12 -30 -21 -45 -21 -14 0 -34 -9 -44 -20 -12 -13 -31 -20 -56 -20 -25 0 -47 -8 -67 -25 -23 -19 -37 -24 -59 -19 -51 10 -83 -44 -47 -80 8 -9 23 -16 33 -16 10 0 46 -27 82 -60 35 -33 71 -60 80 -60 8 0 44 -27 80 -60 35 -33 71 -60 81 -60 9 0 45 -27 80 -60 34 -33 72 -60 83 -60 11 0 46 -27 79 -60 36 -38 67 -60 81 -60 13 0 37 -17 59 -40 20 -22 45 -40 56 -40 10 0 47 -27 82 -60 34 -33 72 -60 83 -60 11 0 46 -27 79 -60 36 -38 67 -60 81 -60 13 0 37 -17 59 -40 20 -22 45 -40 56 -40 10 0 47 -27 82 -60 35 -34 72 -60 84 -60 11 0 37 -18 58 -40 20 -22 45 -40 56 -40 10 0 47 -27 82 -60 34 -33 72 -60 83 -60 11 0 46 -27 79 -60 36 -38 67 -60 81 -60 13 0 37 -17 59 -40 20 -22 45 -40 54 -40 10 0 38 -18 62 -40 41 -37 49 -40 101 -40 41 0 63 5 82 20 14 11 40 20 60 20 20 0 46 9 62 22 19 15 39 21 61 19 23 -2 38 4 53 20 16 17 31 22 59 21 29 -2 45 4 65 22 21 20 34 24 61 19 27 -4 38 -1 52 16 10 11 28 21 40 21 12 0 33 9 47 20 14 11 40 20 61 20 23 0 42 7 56 22 15 16 30 21 58 20 29 -2 45 4 65 22 21 20 34 24 61 19 27 -4 38 -1 52 16 10 11 28 21 40 21 12 0 33 9 47 20 14 11 40 20 60 20 22 0 43 8 60 24 21 20 34 24 61 19 27 -4 38 -1 52 16 10 11 28 21 40 21 12 0 33 9 47 20 14 11 40 20 61 20 23 0 42 7 56 22 15 16 30 21 58 20 29 -2 45 4 65 22 21 20 34 24 61 19 27 -4 38 -1 52 16 10 11 28 21 40 21 12 0 33 9 47 20 14 11 40 20 60 20 22 0 43 8 60 24 21 20 34 24 61 19 27 -4 38 -1 52 16 10 11 29 21 41 21 13 0 31 9 40 20 10 11 28 20 40 20 13 0 31 9 40 20 10 11 27 20 39 20 12 0 42 18 65 40 24 22 51 40 60 40 24 0 129 106 129 130 0 12 18 38 40 59 22 21 40 46 40 56 0 10 19 38 41 62 36 39 41 50 36 78 -4 26 0 38 19 56 17 16 23 30 20 45 -4 16 1 26 19 38 22 15 25 23 25 80 0 50 4 67 20 81 19 17 20 31 20 200 0 173 -1 184 -22 210 -14 18 -21 40 -20 60 2 19 -5 42 -18 57 -11 15 -20 41 -20 61 0 19 -9 45 -20 60 -11 14 -20 40 -20 59 0 20 -10 47 -24 67 -17 23 -23 42 -20 60 4 18 -3 36 -20 60 -18 24 -23 41 -20 61 5 20 0 33 -16 48 -16 15 -23 33 -24 65 -1 27 -8 53 -19 64 -9 11 -17 26 -17 35 0 8 -10 28 -22 43 -14 18 -21 40 -20 59 2 20 -6 44 -22 65 -18 24 -23 41 -20 61 5 20 0 33 -16 48 -16 15 -23 33 -24 65 -1 27 -8 53 -19 64 -9 11 -17 26 -17 35 0 8 -9 27 -20 41 -11 14 -20 40 -20 59 0 20 -10 47 -24 67 -18 24 -23 41 -20 61 5 20 0 33 -16 48 -16 15 -23 33 -24 65 -1 27 -8 53 -19 64 -9 11 -17 26 -17 35 0 8 -9 27 -20 41 -11 14 -20 40 -20 59 0 20 -10 47 -24 67 -18 24 -23 41 -20 61 5 20 0 33 -16 48 -16 15 -23 33 -24 65 -1 27 -8 53 -19 64 -9 11 -17 26 -17 35 0 8 -9 27 -20 41 -11 14 -20 40 -20 59 0 20 -10 47 -24 67 -18 24 -23 41 -20 61 5 20 0 33 -16 48 -16 15 -23 33 -24 65 -1 27 -8 53 -19 64 -9 11 -17 26 -17 35 0 8 -9 27 -20 41 -11 14 -20 40 -20 59 0 20 -10 47 -24 67 -18 24 -23 41 -20 61 5 20 0 33 -16 48 -16 15 -23 33 -24 65 -1 27 -8 53 -19 64 -9 11 -17 26 -17 35 0 8 -9 27 -20 41 -11 14 -20 40 -20 59 0 20 -10 47 -24 67 -18 24 -23 41 -20 61 5 20 0 33 -16 48 -16 15 -23 33 -24 66 -1 31 -7 50 -20 59 -13 9 -19 27 -20 59 -1 28 -8 54 -19 65 -9 11 -17 26 -17 34 0 8 -11 30 -24 48 -18 24 -23 41 -20 61 5 20 0 33 -16 48 -16 15 -23 33 -24 66 -1 31 -7 50 -20 59 -13 9 -19 27 -20 59 -1 28 -8 54 -19 65 -9 11 -17 26 -17 34 0 8 -11 30 -24 48 -17 23 -23 42 -20 60 4 18 -3 36 -20 60 -18 24 -23 41 -20 61 5 20 0 33 -16 48 -16 15 -23 33 -24 65 -1 27 -8 53 -19 64 -9 11 -17 26 -17 34 0 8 -11 30 -24 48 -17 23 -23 42 -20 60 4 18 -3 36 -20 60 -18 24 -23 41 -20 61 5 20 0 33 -16 48 -16 15 -23 33 -24 65 -1 27 -8 53 -19 64 -9 11 -17 26 -17 34 0 8 -11 30 -24 48 -17 23 -23 42 -20 60 4 18 -3 36 -20 60 -18 24 -23 41 -20 61 5 20 0 33 -16 48 -16 15 -23 33 -24 65 -1 27 -8 53 -19 64 -9 11 -17 26 -17 34 0 8 -11 30 -24 48 -17 23 -23 42 -20 60 4 18 -3 36 -20 60 -18 24 -23 41 -20 61 5 20 0 33 -16 48 -16 15 -23 33 -24 65 -1 27 -8 53 -19 64 -9 11 -17 26 -17 34 0 8 -11 30 -24 48 -17 23 -23 42 -20 60 4 18 -3 36 -20 60 -18 24 -23 41 -20 61 5 20 0 33 -16 48 -16 15 -23 33 -24 65 -1 27 -8 53 -19 64 -9 11 -17 26 -17 34 0 8 -11 30 -24 48 -17 23 -23 42 -20 60 4 18 -3 36 -20 60 -18 24 -23 41 -20 61 5 20 0 33 -16 48 -16 15 -23 33 -24 65 -1 27 -8 53 -19 64 -9 11 -17 26 -17 34 0 8 -11 30 -24 48 -17 23 -23 42 -20 60 4 18 -3 36 -20 60 -18 24 -23 41 -20 61 5 20 0 33 -16 48 -16 15 -23 33 -24 65 -1 27 -8 53 -19 64 -9 11 -17 26 -17 34 0 8 -11 30 -24 48 -17 23 -23 42 -20 60 4 18 -3 36 -20 60 -18 24 -23 41 -20 61 5 20 0 33 -16 48 -16 15 -23 33 -24 65 -1 27 -8 53 -19 64 -9 11 -17 26 -17 34 0 8 -11 30 -24 48 -17 23 -23 42 -20 60 4 18 -3 36 -20 60 -18 24 -23 41 -20 61 5 20 0 33 -16 48 -16 15 -23 33 -24 65 -1 27 -8 53 -19 64 -9 11 -17 26 -17 34 0 8 -11 30 -24 48 -17 23 -23 42 -20 60 4 18 -3 36 -20 60 -18 24 -23 41 -20 61 5 20 0 33 -16 48 -16 15 -23 33 -24 65 -1 27 -8 53 -19 64 -9 11 -17 26 -17 34 0 8 -11 30 -24 48 -17 23 -23 42 -20 60 4 18 -3 36 -20 60 -18 24 -23 41 -20 61 5 20 0 33 -16 48 -16 15 -23 33 -24 65 -1 27 -8 53 -19 64 -9 11 -17 26 -17 34 0 8 -11 30 -24 48 -18 24 -23 41 -20 61 9 43 -16 60 -90 60 -53 0 -66 -4 -85 -24z"/>
<path d="M8792 14265 c-22 -19 -37 -24 -59 -19 -22 4 -35 0 -57 -21 -22 -21 -34 -24 -61 -19 -27 5 -37 2 -51 -15 -10 -12 -30 -21 -43 -21 -14 0 -35 -10 -48 -22 -16 -15 -34 -21 -57 -20 -23 2 -43 -5 -62 -21 -21 -18 -37 -23 -59 -20 -23 3 -37 -2 -59 -22 -22 -21 -34 -24 -61 -19 -27 5 -37 2 -51 -15 -10 -12 -30 -21 -45 -21 -14 0 -34 -9 -44 -20 -12 -13 -31 -20 -56 -20 -25 0 -47 -8 -66 -24 -20 -17 -36 -22 -58 -19 -23 3 -37 -2 -59 -22 -22 -21 -34 -24 -61 -19 -27 5 -37 2 -51 -15 -10 -12 -30 -21 -45 -21 -14 0 -34 -9 -44 -20 -12 -13 -31 -20 -56 -20 -25 0 -47 -8 -66 -24 -20 -17 -36 -22 -58 -19 -23 3 -37 -2 -59 -22 -22 -21 -34 -24 -61 -19 -27 5 -37 2 -51 -15 -10 -12 -30 -21 -45 -21 -14 0 -34 -9 -44 -20 -12 -13 -31 -20 -56 -20 -25 0 -47 -8 -66 -24 -20 -17 -36 -22 -59 -19 -22 4 -38 -2 -61 -21 -24 -20 -38 -25 -61 -20 -23 5 -35 1 -48 -15 -10 -12 -30 -21 -45 -21 -14 0 -34 -9 -44 -20 -12 -13 -31 -20 -56 -20 -25 0 -47 -8 -66 -24 -20 -17 -36 -22 -59 -19 -22 4 -38 -2 -61 -21 -24 -20 -38 -25 -61 -20 -23 5 -35 1 -48 -15 -10 -12 -30 -21 -45 -21 -14 0 -34 -9 -44 -20 -12 -13 -31 -20 -56 -20 -25 0 -47 -8 -66 -24 -20 -17 -36 -22 -59 -19 -22 4 -38 -2 -61 -21 -24 -20 -38 -25 -61 -20 -23 5 -35 1 -48 -15 -10 -12 -30 -21 -45 -21 -14 0 -34 -9 -44 -20 -12 -13 -31 -20 -56 -20 -25 0 -47 -8 -66 -24 -20 -17 -36 -22 -59 -19 -22 4 -38 -2 -61 -21 -24 -20 -38 -25 -61 -20 -23 5 -35 1 -48 -15 -10 -12 -30 -21 -45 -21 -14 0 -34 -9 -44 -20 -12 -13 -31 -20 -56 -20 -25 0 -47 -8 -66 -24 -20 -17 -36 -22 -59 -19 -22 4 -38 -2 -61 -21 -23 -20 -38 -25 -60 -20 -22 4 -35 0 -57 -21 -22 -21 -34 -24 -61 -19 -27 5 -37 2 -51 -15 -10 -12 -30 -21 -44 -21 -15 0 -36 -11 -49 -24 -18 -19 -30 -23 -55 -19 -25 4 -39 -1 -63 -21 -24 -20 -38 -25 -61 -20 -23 5 -35 1 -48 -15 -10 -12 -30 -21 -44 -21 -15 0 -36 -11 -49 -24 -18 -19 -30 -23 -55 -19 -25 4 -39 -1 -63 -21 -24 -20 -38 -25 -61 -20 -23 5 -35 1 -48 -15 -10 -12 -29 -21 -41 -21 -27 0 -293 -259 -293 -286 0 -9 -9 -27 -20 -41 -11 -14 -20 -32 -20 -40 0 -8 -9 -26 -20 -40 -11 -14 -20 -32 -20 -40 0 -8 -9 -26 -20 -40 -11 -14 -20 -32 -20 -40 0 -8 -9 -26 -20 -40 -11 -15 -20 -41 -20 -60 0 -20 -9 -46 -20 -60 -14 -19 -20 -41 -20 -80 0 -40 -6 -62 -20 -80 -17 -22 -20 -41 -20 -123 0 -90 2 -99 25 -124 21 -22 24 -34 19 -61 -5 -27 -2 -37 15 -51 12 -10 21 -28 21 -40 0 -12 9 -33 20 -47 11 -14 20 -40 20 -60 0 -19 9 -45 20 -60 11 -14 20 -40 20 -60 0 -23 9 -46 24 -64 17 -20 22 -36 19 -59 -4 -22 2 -38 21 -61 20 -23 25 -38 20 -60 -4 -22 0 -35 21 -57 21 -22 24 -34 19 -61 -5 -27 -2 -37 15 -51 12 -10 21 -28 21 -40 0 -12 9 -33 20 -47 11 -14 20 -40 20 -60 0 -23 9 -46 24 -64 17 -20 22 -36 19 -59 -4 -22 2 -38 21 -61 20 -23 25 -38 20 -60 -4 -22 0 -35 21 -57 21 -22 24 -34 19 -61 -5 -27 -2 -37 15 -51 12 -10 21 -30 21 -44 0 -15 11 -36 24 -49 19 -18 23 -30 19 -55 -4 -25 1 -39 21 -63 20 -23 25 -38 20 -60 -4 -22 0 -35 21 -57 21 -22 24 -34 19 -61 -5 -27 -2 -37 15 -51 12 -10 21 -30 21 -44 0 -15 11 -36 24 -49 19 -18 23 -30 19 -55 -4 -25 1 -39 21 -63 20 -23 25 -38 20 -60 -4 -22 0 -35 21 -57 21 -22 24 -34 19 -61 -5 -27 -2 -37 15 -51 12 -10 21 -30 21 -44 0 -15 11 -36 24 -49 19 -18 23 -30 19 -55 -4 -25 1 -39 21 -63 20 -24 25 -38 20 -61 -5 -23 -1 -35 15 -48 12 -10 21 -28 21 -40 0 -12 9 -33 20 -47 11 -14 20 -40 20 -60 0 -23 9 -46 25 -65 19 -23 24 -37 19 -60 -5 -23 -1 -35 15 -48 12 -10 21 -28 21 -40 0 -12 9 -33 20 -47 11 -14 20 -40 20 -60 0 -23 9 -46 25 -65 19 -23 24 -37 19 -60 -5 -23 -1 -35 15 -48 12 -10 21 -30 21 -45 0 -14 9 -34 20 -44 11 -10 20 -25 20 -35 0 -24 230 -250 255 -250 11 0 28 -9 38 -20 9 -11 25 -20 35 -20 10 0 38 -18 62 -41 38 -34 50 -40 78 -35 25 4 38 -1 59 -20 21 -19 37 -24 80 -24 40 0 62 -6 80 -20 22 -17 41 -20 143 -20 102 0 121 3 143 20 24 19 77 27 90 14 3 -4 0 -16 -8 -28 -7 -12 -14 -52 -14 -95 -1 -57 -6 -79 -21 -99 -16 -20 -20 -40 -20 -99 0 -60 -4 -80 -20 -100 -14 -19 -20 -41 -20 -80 0 -40 -6 -62 -20 -80 -16 -21 -20 -41 -20 -100 0 -60 -4 -80 -20 -100 -14 -19 -20 -41 -20 -80 0 -40 -6 -62 -20 -80 -14 -19 -20 -41 -20 -80 0 -40 -6 -62 -20 -80 -16 -21 -20 -41 -20 -100 0 -60 -4 -80 -20 -100 -14 -19 -20 -41 -20 -80 0 -40 -6 -62 -20 -80 -16 -21 -20 -41 -20 -100 0 -60 -4 -80 -20 -100 -14 -19 -20 -41 -20 -80 0 -40 -6 -62 -20 -80 -14 -19 -20 -41 -20 -80 0 -40 -6 -62 -20 -80 -16 -21 -20 -41 -20 -100 0 -60 -4 -80 -20 -100 -15 -19 -20 -41 -20 -81 0 -38 -5 -61 -17 -74 -23 -26 -27 -142 -6 -163 20 -21 50 -19 70 5 10 11 27 20 39 20 12 0 33 9 47 20 14 11 40 20 60 20 20 0 46 9 62 22 19 14 39 21 60 20 22 -2 39 4 58 22 21 20 34 24 61 19 27 -4 38 -1 52 16 10 11 28 21 40 21 12 0 33 9 47 20 14 11 40 20 60 20 20 0 46 9 62 22 19 14 39 21 60 20 22 -2 39 4 58 22 21 20 34 24 61 19 27 -4 38 -1 52 16 10 11 28 21 40 21 12 0 33 9 47 20 14 11 40 20 60 20 20 0 46 9 62 22 19 14 39 21 60 20 22 -2 39 4 58 22 21 20 34 24 61 19 27 -4 38 -1 52 16 10 11 28 21 40 21 12 0 33 9 47 20 14 11 40 20 60 20 20 0 46 9 62 22 19 14 39 21 60 20 22 -2 39 4 58 22 21 20 34 24 61 19 27 -4 38 -1 52 16 10 11 28 21 40 21 12 0 33 9 47 20 14 11 32 20 41 20 8 0 31 14 51 31 33 29 35 35 35 93 0 51 4 66 21 82 17 16 20 28 17 81 -2 56 0 65 20 78 20 15 22 24 22 99 0 70 3 86 20 101 16 14 20 31 20 80 0 50 4 66 21 81 17 16 20 28 17 81 -3 56 0 64 20 79 21 15 23 23 20 80 -2 57 0 65 20 79 20 15 22 24 22 99 0 71 3 86 21 102 17 16 20 28 17 81 -3 56 0 64 20 79 21 15 23 23 20 80 -2 57 0 65 20 79 20 15 22 24 22 99 0 71 3 86 21 102 17 16 20 28 17 81 -3 56 0 64 20 79 21 15 23 23 20 80 -2 57 0 65 20 79 20 15 22 24 22 99 0 70 3 86 20 101 16 14 20 31 20 77 0 44 5 66 21 88 16 20 20 37 16 58 -6 31 7 52 34 52 9 0 28 9 42 20 14 11 40 20 60 20 22 0 43 8 60 24 21 20 34 24 61 19 27 -4 38 -1 52 16 10 11 28 21 40 21 12 0 33 9 47 20 14 11 40 20 60 20 22 0 43 8 60 24 21 19 34 24 59 19 26 -4 39 1 60 20 22 21 35 25 61 20 27 -4 39 0 54 16 18 19 29 22 84 19 l64 -3 5 -47 c4 -28 14 -57 27 -70 15 -17 19 -32 16 -55 -4 -24 0 -36 16 -49 12 -10 21 -28 21 -40 0 -12 9 -33 20 -47 11 -14 20 -40 20 -60 0 -23 9 -46 24 -64 17 -20 22 -36 19 -59 -4 -22 2 -38 21 -61 20 -24 25 -38 20 -61 -5 -23 -1 -35 15 -48 12 -10 21 -28 21 -40 0 -12 9 -33 20 -47 11 -14 20 -40 20 -60 0 -23 9 -46 24 -64 17 -20 22 -36 19 -59 -4 -22 2 -38 21 -61 20 -24 25 -38 20 -61 -5 -23 -1 -35 15 -48 12 -10 21 -28 21 -40 0 -12 9 -33 20 -47 11 -14 20 -40 20 -60 0 -23 9 -46 24 -64 17 -20 22 -36 19 -59 -4 -22 2 -38 21 -61 20 -24 25 -38 20 -61 -5 -23 -1 -35 15 -48 12 -10 21 -28 21 -40 0 -12 9 -33 20 -47 11 -14 20 -40 20 -60 0 -23 9 -46 25 -65 19 -23 24 -37 19 -60 -5 -23 -1 -35 15 -48 12 -10 21 -29 21 -42 0 -14 14 -38 34 -58 43 -43 99 -47 139 -10 21 20 34 24 61 19 27 -4 38 -1 52 16 10 11 28 21 40 21 12 0 33 9 47 20 14 11 40 20 60 20 20 0 46 9 62 22 19 15 39 21 61 19 23 -2 38 4 53 20 16 17 31 22 59 21 29 -2 45 4 65 22 21 20 34 24 61 19 27 -4 38 -1 52 16 10 11 28 21 40 21 12 0 33 9 47 20 14 11 40 20 61 20 23 0 42 7 56 22 15 16 30 21 58 20 29 -2 45 4 65 22 21 20 34 24 61 19 27 -4 38 -1 52 16 10 11 28 21 40 21 12 0 33 9 47 20 14 11 40 20 61 20 23 0 42 7 56 22 15 16 30 21 58 20 29 -2 45 4 66 23 22 20 35 24 59 20 26 -4 39 1 72 29 l40 35 -23 24 c-12 13 -22 30 -22 39 0 8 -9 27 -20 41 -11 14 -20 40 -20 59 0 20 -10 47 -24 67 -18 24 -23 41 -20 61 5 20 0 33 -16 48 -16 15 -23 33 -24 66 -1 31 -7 50 -20 59 -13 9 -19 27 -20 59 -1 28 -8 54 -19 65 -9 11 -17 26 -17 34 0 8 -11 30 -24 48 -17 23 -23 42 -20 60 4 18 -3 36 -20 60 -18 24 -23 41 -20 61 5 20 0 33 -16 48 -16 15 -23 33 -24 65 -1 27 -8 53 -19 64 -9 11 -17 26 -17 34 0 8 -11 30 -24 48 -17 23 -23 42 -20 60 4 18 -3 36 -20 60 -18 24 -23 41 -20 61 5 20 0 33 -16 48 -16 15 -23 33 -24 65 -1 27 -8 53 -19 64 -9 11 -17 26 -17 34 0 8 -11 30 -24 48 -17 23 -23 42 -20 60 4 18 -3 36 -20 60 -18 24 -23 41 -20 61 5 20 0 33 -16 48 -16 15 -23 33 -24 65 -1 27 -8 53 -19 64 -9 11 -17 26 -17 34 0 8 -11 30 -24 48 -17 23 -23 42 -20 60 4 18 -3 36 -20 60 -18 24 -23 41 -20 61 5 20 0 33 -16 48 -16 15 -23 33 -24 65 -1 27 -8 53 -19 64 -9 11 -17 26 -17 35 0 8 -10 28 -22 43 -14 18 -21 40 -20 59 2 20 -6 44 -22 65 -18 24 -23 41 -20 61 5 20 0 33 -16 48 -16 15 -23 33 -24 65 -1 27 -8 53 -19 64 -9 11 -17 26 -17 35 0 8 -9 27 -20 41 -11 14 -20 40 -20 59 0 20 -10 47 -24 67 -18 24 -23 41 -20 61 5 20 0 33 -16 48 -16 15 -23 33 -24 65 -1 27 -8 53 -19 64 -9 11 -17 26 -17 35 0 8 -9 27 -20 41 -11 14 -20 40 -20 59 0 20 -10 47 -24 67 -18 24 -23 41 -20 61 5 20 0 33 -16 48 -16 15 -23 33 -24 65 -1 27 -8 53 -19 64 -9 11 -17 26 -17 35 0 8 -9 27 -20 41 -11 14 -20 40 -20 59 0 20 -10 47 -24 67 -18 24 -23 41 -20 61 5 20 0 33 -16 48 -16 15 -23 33 -24 65 -1 27 -8 53 -19 64 -9 11 -17 26 -17 35 0 8 -9 27 -20 41 -11 14 -20 40 -20 59 0 20 -10 47 -24 67 -18 24 -23 41 -20 61 5 20 0 33 -16 48 -16 15 -23 33 -24 65 -1 27 -8 53 -19 64 -9 11 -17 26 -17 34 0 8 -11 30 -24 48 -18 24 -23 41 -20 61 5 22 -1 34 -33 63 -45 44 -61 45 -97 12 -22 -21 -34 -24 -61 -19 -27 5 -37 2 -51 -15 -10 -12 -30 -21 -45 -21 -14 0 -34 -9 -44 -20 -12 -13 -31 -20 -56 -20 -25 0 -47 -8 -66 -24 -20 -17 -36 -22 -58 -19 -23 3 -37 -2 -59 -22 -22 -21 -34 -24 -61 -19 -27 5 -37 2 -51 -15 -10 -12 -30 -21 -45 -21 -14 0 -34 -9 -44 -20 -12 -13 -31 -20 -56 -20 -25 0 -47 -8 -66 -24 -20 -17 -36 -22 -58 -19 -23 3 -37 -2 -59 -22 -22 -21 -34 -24 -61 -19 -27 5 -37 2 -51 -15 -10 -12 -30 -21 -45 -21 -14 0 -34 -9 -44 -20 -12 -13 -31 -20 -56 -20 -25 0 -47 -8 -66 -24 -20 -17 -36 -22 -59 -19 -22 4 -38 -2 -61 -21 -24 -20 -38 -25 -61 -20 -23 5 -35 1 -48 -15 -10 -12 -29 -21 -42 -21 -13 0 -37 -11 -54 -25 -21 -18 -37 -23 -53 -19 -30 7 -65 -3 -65 -20 0 -7 11 -23 24 -35 19 -18 23 -30 19 -55 -4 -24 1 -39 20 -62 18 -21 23 -37 20 -60 -4 -22 2 -38 21 -61 20 -24 25 -38 20 -61 -5 -23 -1 -35 15 -48 12 -10 21 -28 21 -40 0 -12 9 -33 20 -47 11 -14 20 -40 20 -60 0 -23 9 -46 24 -64 17 -20 22 -36 19 -59 -4 -22 2 -38 21 -61 20 -23 25 -38 20 -60 -4 -22 0 -35 21 -57 21 -22 24 -34 20 -60 -5 -26 -1 -39 20 -64 15 -18 23 -37 19 -44 -19 -34 -50 -58 -74 -58 -15 0 -36 -10 -49 -24 -18 -19 -30 -23 -55 -19 -24 4 -37 -1 -59 -21 -23 -22 -35 -25 -62 -20 -27 5 -37 2 -51 -15 -10 -12 -30 -21 -44 -21 -15 0 -36 -11 -49 -24 -18 -19 -30 -23 -55 -19 -24 4 -39 -1 -62 -20 -21 -18 -37 -23 -59 -20 -23 3 -37 -2 -59 -22 -22 -21 -34 -24 -61 -19 -27 5 -37 2 -51 -15 -10 -12 -30 -21 -43 -21 -14 0 -35 -10 -48 -22 -16 -15 -34 -21 -57 -20 -23 2 -43 -5 -62 -21 -21 -18 -37 -23 -59 -20 -23 3 -37 -2 -59 -22 -22 -21 -34 -24 -61 -19 -27 5 -37 2 -51 -15 -10 -12 -30 -21 -45 -21 -14 0 -34 -9 -44 -20 -12 -13 -31 -20 -55 -20 -23 0 -48 -8 -65 -22 -19 -15 -39 -21 -60 -19 -22 1 -41 -5 -61 -22 -21 -18 -37 -23 -59 -20 -23 3 -37 -2 -59 -22 -22 -20 -34 -24 -60 -20 -25 5 -37 1 -60 -20 -22 -21 -34 -24 -61 -19 -27 5 -37 2 -51 -15 -14 -16 -30 -21 -64 -21 -39 0 -50 5 -73 31 -22 26 -26 38 -21 64 4 26 1 37 -16 53 -16 15 -23 33 -24 65 -1 27 -8 53 -19 64 -9 11 -17 26 -17 34 0 8 -11 30 -24 48 -17 23 -23 42 -20 60 4 18 -3 36 -20 60 -18 24 -23 41 -20 61 5 20 0 33 -16 48 -16 15 -23 33 -24 65 -1 27 -8 53 -19 64 -9 11 -17 26 -17 34 0 8 -11 30 -24 48 -17 23 -23 42 -20 60 4 18 -3 36 -20 60 -18 24 -23 41 -20 61 5 20 0 33 -16 48 -16 15 -23 33 -24 66 -1 31 -7 50 -20 59 -13 9 -19 27 -20 60 -1 32 -8 53 -24 70 -39 41 -24 62 40 58 27 -1 42 4 55 19 10 11 27 20 39 20 12 0 33 9 47 20 14 11 40 20 61 20 23 0 42 7 56 22 15 16 30 21 58 20 29 -2 45 4 65 22 21 20 34 24 61 19 27 -4 38 -1 52 16 10 11 28 21 40 21 12 0 33 9 47 20 14 11 40 20 60 20 22 0 43 8 60 24 21 20 34 24 61 19 27 -4 38 -1 52 16 10 11 28 21 40 21 12 0 33 9 47 20 14 11 40 20 60 20 20 0 46 9 62 22 19 14 39 21 60 20 22 -2 39 4 58 22 21 20 34 24 61 19 27 -4 38 -1 52 16 10 11 28 21 40 21 12 0 33 9 47 20 14 11 40 20 60 20 20 0 46 9 62 22 19 14 39 21 60 20 22 -2 39 4 58 22 21 20 34 24 61 19 27 -4 38 -1 52 16 10 11 28 21 40 21 12 0 33 9 47 20 14 11 40 20 60 20 19 0 45 9 60 20 14 11 40 20 61 20 23 0 42 7 56 22 15 16 30 21 58 20 29 -2 45 4 65 22 21 20 34 24 61 19 27 -4 38 -1 52 16 10 11 28 21 40 21 12 0 33 9 47 20 14 11 40 20 60 20 22 0 43 8 60 24 21 19 34 24 59 19 26 -4 39 1 60 20 22 21 35 25 62 20 27 -4 38 -1 52 16 10 11 28 21 40 21 12 0 33 9 47 20 14 11 40 20 60 20 22 0 43 8 60 24 21 19 34 24 59 19 26 -4 39 1 60 20 22 21 35 25 62 20 27 -4 38 -1 52 16 10 11 28 21 40 21 12 0 33 9 47 20 14 11 40 20 61 20 23 0 42 7 56 22 15 16 30 21 58 20 29 -2 45 4 65 22 21 20 34 24 61 19 27 -4 38 -1 52 16 10 11 28 21 39 21 12 0 38 15 59 33 l37 34 -25 30 c-20 24 -25 38 -20 61 5 22 1 34 -16 50 -16 15 -23 33 -24 65 -1 27 -8 53 -19 64 -9 11 -17 26 -17 35 0 8 -9 27 -20 41 -11 14 -20 40 -20 59 0 20 -10 47 -24 67 -18 24 -23 41 -20 61 5 20 0 33 -16 48 -16 15 -23 33 -24 66 -1 31 -7 50 -20 59 -13 9 -19 27 -20 59 -1 28 -8 54 -19 65 -9 11 -17 26 -17 34 0 8 -11 30 -24 48 -17 23 -23 42 -20 60 4 18 -3 36 -20 60 -18 24 -23 41 -20 61 5 20 0 33 -16 48 -16 15 -23 33 -24 65 -1 27 -8 53 -19 64 -9 11 -17 26 -17 34 0 8 -11 30 -24 48 -18 24 -23 41 -20 61 5 20 0 33 -16 48 -16 15 -23 33 -24 65 -1 27 -8 53 -19 64 -9 11 -17 28 -17 39 0 33 -21 44 -86 44 -52 0 -67 -4 -92 -25z"/>
<path d="M17148 20534 c-21 -19 -38 -43 -38 -53 0 -9 -18 -37 -40 -61 -54 -60 -55 -103 -4 -154 20 -20 45 -36 57 -36 11 0 38 -18 59 -40 22 -22 48 -40 58 -40 10 0 47 -27 82 -60 35 -34 72 -60 84 -60 11 0 37 -18 58 -40 l37 -40 59 0 c52 0 64 4 95 31 20 18 35 40 35 53 0 13 9 31 20 41 14 13 20 31 20 62 0 41 -4 47 -77 118 -44 43 -86 75 -98 75 -11 0 -46 26 -79 60 -33 34 -67 60 -79 60 -11 0 -38 18 -59 40 -23 23 -49 40 -62 40 -13 0 -31 9 -41 20 -26 28 -45 25 -87 -16z"/>
<path d="M1914 15628 c-18 -15 -42 -18 -137 -18 -120 0 -147 -9 -147 -47 0 -8 36 -54 80 -101 44 -48 80 -94 80 -103 0 -21 150 -169 172 -169 31 0 51 30 44 71 -5 32 -2 39 20 54 23 15 26 22 21 55 -4 32 -1 43 20 61 16 16 22 30 19 45 -4 16 1 26 18 37 20 13 24 24 24 67 0 27 -5 54 -12 58 -6 4 -49 7 -95 7 -66 0 -89 -4 -107 -17z"/>
<path d="M1184 14296 c-31 -31 -34 -40 -34 -91 0 -42 -5 -64 -20 -82 -14 -19 -20 -41 -20 -80 0 -40 -6 -62 -20 -80 -16 -21 -20 -41 -20 -100 0 -58 -4 -80 -19 -99 -23 -29 -27 -107 -6 -124 9 -8 28 -10 46 -6 24 5 38 0 61 -19 26 -22 39 -25 113 -25 97 0 111 9 101 69 -5 34 -3 41 19 55 23 15 25 22 25 100 0 70 3 86 20 101 17 15 20 31 20 100 0 68 3 85 19 99 16 14 20 31 20 80 -1 87 -5 96 -42 96 -19 0 -39 8 -48 18 -12 15 -32 19 -98 20 l-83 2 -34 -34z"/>
<path d="M17661 4008 c-20 -22 -48 -41 -61 -43 -14 -2 -59 -36 -104 -79 -44 -42 -87 -76 -95 -76 -9 0 -42 -25 -75 -55 l-58 -55 41 -41 c22 -23 41 -49 41 -59 0 -10 16 -34 36 -54 29 -29 44 -36 74 -36 33 0 46 8 98 60 34 34 68 60 80 60 12 0 52 32 100 80 57 58 86 80 104 80 38 0 46 18 44 90 l-2 65 -50 49 c-42 43 -55 50 -92 51 -38 2 -48 -2 -81 -37z"/>
<path d="M12875 1910 c-16 -18 -32 -20 -155 -20 -122 0 -140 -2 -163 -20 -22 -18 -40 -20 -162 -20 l-137 0 -34 -34 c-41 -41 -47 -97 -14 -139 18 -22 20 -40 20 -160 0 -119 2 -137 20 -160 15 -19 20 -40 20 -84 0 -33 5 -64 12 -71 19 -19 92 -15 121 8 23 18 40 20 180 20 138 0 157 2 179 20 21 16 44 20 134 22 l109 3 3 190 c2 173 1 192 -17 215 -14 19 -20 47 -22 107 -3 63 -8 86 -24 103 -33 37 -50 42 -70 20z"/>
<path d="M10762 1798 c-18 -18 -16 -262 2 -277 9 -8 99 -11 307 -9 l294 3 3 134 c2 85 -1 138 -8 146 -15 18 -580 21 -598 3z"/>
</g>
</g>
</svg>
