<?xml version="1.0" standalone="no"?>
<!DOCTYPE svg PUBLIC "-//W3C//DTD SVG 1.1//EN"
 "http://www.w3.org/Graphics/SVG/1.1/DTD/svg11.dtd">
<!-- Created with svg_stack (http://github.com/astraw/svg_stack) -->
<svg xmlns:sodipodi="http://sodipodi.sourceforge.net/DTD/sodipodi-0.dtd" xmlns="http://www.w3.org/2000/svg" version="1.1" width="1440.0" height="1148.0">
  <defs/>
  <g id="id0:id0" transform="matrix(1.25,0,0,1.25,0.0,0.0)"><g transform="translate(0.000000,918.400000) scale(0.040000,-0.040000)" fill="#ffffff" stroke="none">
<path d="M0 11480 l0 -11480 14400 0 14400 0 0 11480 0 11480 -14400 0 -14400 0 0 -11480z m3345 6820 l0 -2125 -293 0 -293 0 1 2124 c0 1168 2 2126 4 2130 2 3 134 4 293 1 l288 -5 0 -2125z m7958 2126 c16 -13 18 -33 18 -220 0 -114 -3 -211 -6 -216 -4 -6 -195 -10 -514 -10 l-508 0 -21 -23 c-13 -14 -21 -35 -20 -52 0 -17 0 -315 -1 -664 -1 -349 1 -636 4 -639 2 -3 170 -6 371 -8 202 -2 371 -7 376 -12 5 -5 7 -103 6 -218 l-3 -209 -364 -3 c-249 -1 -369 -6 -378 -13 -11 -9 -13 -145 -13 -744 0 -683 1 -734 18 -754 l17 -21 518 -3 518 -2 0 -220 1 -220 -834 0 -833 0 -3 2108 c-1 1438 1 2114 8 2128 l11 19 787 3 c433 1 796 3 807 4 11 1 28 -4 38 -11z m3534 1 c2 -3 4 -103 4 -223 l1 -219 -521 -3 c-459 -2 -521 -4 -521 -17 0 -9 -6 -18 -14 -21 -12 -5 -14 -100 -15 -627 0 -446 3 -625 11 -634 8 -10 8 -17 0 -25 -15 -15 -16 -45 -2 -53 5 -3 173 -8 372 -11 199 -2 366 -8 370 -12 5 -5 7 -103 6 -218 l-3 -209 -368 -5 c-312 -4 -369 -7 -377 -20 -6 -9 -10 -379 -10 -979 1 -530 -3 -968 -8 -973 -4 -4 -139 -7 -298 -6 l-289 3 -3 2102 c-1 1323 2 2111 8 2127 8 23 15 25 72 28 95 4 1580 -1 1585 -5z m6628 -2123 l0 -2129 -220 0 -220 0 3 21 c2 12 -9 48 -24 79 -16 32 -38 86 -50 119 -84 237 -104 287 -127 333 -15 28 -31 73 -37 98 -6 26 -20 66 -31 89 -11 22 -34 82 -50 131 -17 50 -37 97 -44 105 -7 8 -16 31 -20 50 -9 44 -50 136 -65 145 -5 3 -8 10 -5 15 6 9 -29 114 -48 144 -7 12 -19 41 -26 66 -7 25 -21 63 -31 85 -10 22 -21 54 -25 72 -3 17 -13 37 -21 44 -8 6 -14 21 -14 33 0 12 -9 39 -20 61 -11 22 -20 48 -20 60 0 11 -9 34 -20 50 -11 17 -20 37 -20 45 0 8 -9 32 -20 53 -11 20 -20 44 -20 53 0 9 -6 28 -14 42 -8 15 -26 61 -41 102 -48 133 -88 235 -97 244 -4 6 -8 19 -8 31 0 12 -4 25 -8 31 -13 14 -52 115 -52 134 0 9 -8 24 -18 34 -11 9 -25 41 -32 71 -15 64 -32 84 -55 65 -13 -11 -15 -182 -15 -1353 0 -738 -4 -1345 -8 -1349 -5 -5 -139 -7 -298 -6 l-289 3 0 2125 0 2125 219 3 c140 1 223 -1 231 -8 7 -6 15 -27 19 -48 3 -20 16 -57 29 -82 14 -25 32 -69 42 -99 10 -30 26 -68 35 -85 10 -17 28 -62 40 -100 13 -39 31 -84 40 -100 10 -17 30 -67 45 -111 15 -44 32 -89 39 -100 7 -11 25 -56 41 -100 16 -44 35 -89 42 -101 7 -11 24 -52 37 -90 13 -38 37 -98 54 -134 16 -36 33 -81 37 -100 4 -19 14 -46 23 -60 17 -26 34 -67 57 -136 7 -22 29 -74 49 -115 20 -41 36 -84 36 -96 0 -12 16 -52 35 -87 19 -36 35 -70 35 -76 0 -6 10 -32 22 -58 11 -26 39 -92 60 -147 22 -55 57 -145 80 -200 22 -55 46 -118 55 -140 8 -21 20 -51 27 -65 7 -14 23 -45 35 -70 28 -57 49 -85 57 -77 4 4 2 12 -4 19 -7 9 -8 35 -2 83 5 39 9 612 9 1275 l0 1205 283 5 c156 3 288 5 293 4 7 0 10 -718 10 -2130z m3760 1900 l0 -226 -522 1 c-420 1 -523 -2 -523 -12 0 -7 -5 -18 -11 -24 -12 -12 -15 -1330 -4 -1342 4 -3 173 -6 375 -6 249 0 372 -3 380 -11 7 -7 10 -81 8 -220 l-3 -209 -375 -2 c-351 -2 -375 -3 -381 -20 -4 -10 -8 -306 -8 -658 -1 -352 -4 -675 -8 -717 -4 -53 -2 -82 6 -91 6 -8 9 -21 6 -29 -6 -16 20 -32 35 -23 15 9 1013 6 1022 -3 5 -5 7 -105 6 -223 l-3 -214 -825 0 -825 0 -3 2120 c-1 1166 0 2125 2 2130 2 7 285 9 827 8 l824 -3 0 -226z m-18385 198 c154 -37 264 -70 317 -94 61 -29 223 -137 223 -150 0 -4 7 -16 15 -25 113 -130 185 -310 231 -572 13 -72 14 -258 12 -1260 l-4 -1176 -22 -55 c-12 -30 -22 -71 -22 -92 0 -20 -4 -40 -10 -43 -5 -3 -10 -19 -10 -35 0 -15 -13 -57 -30 -92 -16 -34 -30 -68 -30 -73 0 -16 -31 -72 -82 -150 -53 -80 -186 -214 -238 -241 -19 -9 -46 -26 -60 -36 -33 -24 -205 -84 -295 -103 -152 -31 -270 -36 -808 -33 l-537 3 0 2119 c0 1165 3 2122 6 2128 4 6 236 8 633 5 587 -4 631 -6 711 -25z m10377 -12 c2 -43 2 -4144 0 -4185 l-2 -30 -300 0 -300 0 -2 2102 c-2 1333 1 2112 7 2128 l10 25 292 -2 293 -3 2 -35z m8938 -10 c3 -5 1 -19 -5 -30 -10 -19 -17 -21 -78 -14 -105 10 -101 20 -104 -297 l-3 -264 -35 0 -35 0 -3 264 c-1 175 -6 269 -13 278 -8 9 -37 13 -90 13 -66 0 -80 3 -88 18 -20 38 3 42 230 42 132 0 220 -4 224 -10z m203 -2 c5 -7 18 -40 27 -73 10 -33 23 -71 30 -85 17 -33 42 -99 50 -130 4 -14 18 -62 32 -108 28 -92 50 -105 67 -42 12 46 70 220 97 290 11 30 23 64 27 75 3 11 13 34 22 50 15 27 22 30 65 30 l48 0 4 -150 c2 -82 7 -157 10 -165 6 -16 8 -43 14 -200 l4 -95 -35 0 c-33 0 -35 2 -37 35 -1 19 -5 118 -9 220 -3 102 -11 193 -16 202 -14 28 -35 10 -48 -40 -6 -26 -26 -85 -44 -132 -19 -47 -44 -119 -57 -160 -29 -93 -53 -130 -84 -130 -29 0 -37 13 -65 115 -12 44 -28 90 -36 102 -8 12 -14 34 -14 48 0 14 -4 33 -9 43 -5 9 -20 46 -34 82 -43 112 -52 97 -62 -100 -4 -74 -10 -169 -14 -210 l-6 -75 -30 0 -30 0 0 50 c1 28 6 108 13 178 7 70 12 183 12 251 0 67 3 126 7 129 11 12 90 7 101 -5z m-14408 -5378 c10 -30 54 -127 98 -216 44 -88 85 -179 91 -201 6 -23 27 -67 46 -99 19 -32 39 -73 44 -91 5 -18 19 -46 30 -62 12 -16 21 -32 21 -35 0 -4 15 -39 33 -79 19 -40 46 -102 61 -139 15 -37 34 -72 42 -79 8 -6 14 -17 14 -23 0 -7 18 -50 41 -97 23 -46 48 -102 55 -124 8 -21 28 -60 44 -85 17 -26 30 -53 30 -61 0 -14 60 -147 146 -324 24 -49 47 -103 50 -118 4 -16 17 -35 30 -43 12 -9 21 -21 18 -28 -3 -7 11 -43 30 -82 18 -38 37 -80 41 -94 4 -14 23 -50 41 -81 19 -31 34 -60 34 -65 0 -4 23 -58 51 -119 29 -60 71 -153 96 -205 24 -52 55 -117 69 -143 13 -26 35 -77 49 -112 13 -36 35 -84 49 -108 14 -23 32 -61 40 -82 7 -22 30 -69 50 -103 20 -35 36 -69 36 -74 0 -6 26 -65 59 -132 111 -229 142 -296 156 -335 8 -22 27 -66 44 -98 46 -88 117 -243 130 -285 7 -20 23 -54 37 -74 14 -20 28 -49 31 -66 6 -32 33 -51 57 -42 9 3 16 7 16 8 0 14 55 144 73 172 14 22 33 62 43 89 9 28 23 57 30 65 7 8 22 41 34 74 13 32 33 75 46 94 13 19 24 45 24 57 0 12 7 28 15 35 8 7 15 18 15 25 0 7 11 29 25 49 14 20 25 45 25 56 0 10 5 22 10 25 6 3 10 14 10 24 0 10 20 53 45 97 25 43 45 82 45 86 0 5 27 65 60 133 33 68 60 126 60 129 0 8 154 337 186 398 8 14 14 33 14 40 0 8 9 23 20 33 11 10 20 23 20 29 1 6 9 29 20 51 11 22 19 45 20 51 0 6 9 23 20 37 11 14 27 44 35 66 8 23 48 112 88 199 41 86 86 182 100 214 14 31 30 59 36 62 6 4 15 26 22 49 6 23 28 78 49 122 21 44 47 100 59 125 11 25 25 52 31 60 21 32 110 229 110 243 0 8 9 26 20 40 25 31 60 112 60 137 0 11 13 34 29 52 16 19 37 59 46 90 9 31 27 73 41 93 13 20 24 40 24 45 0 4 6 21 14 37 113 233 266 560 266 571 0 5 9 20 19 34 11 13 27 48 37 78 9 30 23 62 31 70 12 13 155 15 1171 15 l1157 0 3 -6253 2 -6253 -17 -7 c-23 -9 -2273 -9 -2296 0 l-17 7 0 3413 c0 1877 0 3446 0 3486 0 63 -2 72 -18 72 -14 0 -23 -15 -36 -57 -10 -31 -27 -68 -37 -82 -10 -14 -26 -48 -35 -76 -9 -27 -27 -65 -40 -85 -13 -19 -24 -42 -24 -52 0 -9 -4 -20 -10 -23 -5 -3 -10 -13 -10 -21 0 -8 -11 -32 -25 -54 -14 -22 -34 -64 -45 -93 -11 -29 -31 -68 -44 -86 -14 -19 -28 -47 -32 -64 -3 -17 -25 -68 -48 -112 -44 -87 -95 -199 -117 -255 -7 -19 -28 -61 -45 -92 -18 -31 -36 -67 -39 -80 -4 -13 -39 -87 -76 -165 -38 -78 -69 -148 -69 -156 0 -8 -6 -20 -13 -26 -8 -6 -19 -28 -25 -50 -7 -21 -19 -44 -27 -51 -8 -7 -15 -21 -15 -31 0 -17 -16 -51 -60 -124 -10 -16 -28 -59 -41 -95 -12 -36 -28 -72 -35 -80 -16 -19 -64 -125 -64 -141 0 -7 -6 -20 -14 -28 -8 -9 -24 -41 -37 -71 -13 -30 -33 -71 -45 -90 -12 -19 -25 -50 -29 -68 -4 -18 -22 -58 -41 -89 -19 -31 -34 -61 -34 -66 0 -5 -27 -66 -61 -135 -65 -136 -85 -179 -120 -257 -12 -27 -26 -57 -31 -65 -18 -32 -68 -148 -68 -158 0 -4 -9 -15 -20 -25 -11 -9 -20 -26 -20 -36 0 -11 -18 -53 -40 -93 -21 -40 -46 -93 -54 -116 -9 -24 -35 -85 -60 -135 -24 -51 -81 -168 -125 -260 -45 -92 -81 -172 -81 -178 0 -6 -9 -22 -20 -36 -11 -14 -20 -34 -20 -45 0 -26 -50 -119 -61 -113 -5 3 -18 27 -29 53 -11 25 -27 53 -34 62 -7 8 -23 43 -36 78 -12 34 -31 73 -41 86 -10 12 -29 55 -43 96 -14 40 -32 80 -40 89 -19 23 -56 102 -56 122 0 9 -8 27 -19 40 -10 13 -22 35 -26 49 -4 14 -14 34 -21 45 -8 11 -14 27 -14 36 0 9 -8 27 -19 40 -10 13 -22 35 -26 49 -4 14 -43 97 -85 185 -42 88 -87 185 -100 215 -14 30 -32 66 -41 80 -9 14 -22 43 -29 65 -7 22 -32 78 -56 126 -24 47 -44 93 -44 102 0 9 -10 25 -21 36 -12 11 -33 53 -46 93 -14 40 -33 84 -43 98 -9 14 -27 50 -39 80 -13 30 -29 62 -37 71 -8 8 -14 22 -14 29 0 7 -18 50 -39 94 -67 138 -161 345 -161 354 0 4 -11 23 -24 40 -13 18 -31 58 -41 90 -10 31 -26 68 -36 82 -10 14 -30 57 -45 95 -15 39 -35 79 -44 90 -9 11 -27 47 -40 80 -13 33 -38 89 -56 125 -17 36 -35 75 -38 87 -4 11 -13 27 -21 33 -8 7 -15 19 -15 27 0 20 -56 139 -69 147 -6 4 -11 16 -11 26 0 11 -20 58 -45 106 -25 47 -45 90 -45 95 0 16 -41 102 -56 120 -8 9 -19 29 -24 45 -22 70 -43 120 -55 134 -8 9 -26 47 -40 85 -15 39 -37 81 -49 95 -20 22 -30 46 -51 127 -6 21 -33 39 -44 27 -3 -3 -7 -1574 -9 -3492 -1 -2395 -5 -3489 -13 -3497 -12 -12 -2242 -15 -2271 -3 l-18 7 0 6249 c0 3437 3 6252 7 6255 3 4 526 6 1161 4 l1154 -2 18 -55z m13424 52 c6 -11 10 -2291 4 -2297 -3 -3 -831 -5 -1841 -5 l-1837 0 -2 -1377 c-2 -1100 0 -1383 10 -1400 l12 -23 1573 -2 1572 -3 3 -1144 c1 -630 -2 -1149 -6 -1153 -5 -5 -717 -8 -1584 -8 -1256 0 -1577 -2 -1579 -12 -2 -7 -2 -634 1 -1393 l5 -1380 1855 -5 1855 -5 5 -50 c3 -27 3 -545 0 -1150 l-5 -1100 -40 -7 c-49 -8 -5774 -8 -5898 1 l-88 6 1 6245 c0 3434 3 6247 8 6251 4 4 16 9 27 12 36 8 5944 7 5949 -1z m-19930 -71 c3 -4 34 -11 68 -14 35 -2 75 -10 91 -16 24 -9 27 -16 27 -54 0 -23 -6 -51 -14 -62 -12 -18 -30 -75 -86 -280 -44 -162 -60 -262 -64 -399 -3 -81 -9 -143 -15 -149 -6 -6 -11 -24 -11 -39 0 -25 4 -28 30 -28 24 0 30 4 28 18 -2 12 5 18 22 21 14 1 37 12 51 22 15 10 31 19 37 19 5 0 27 13 49 29 22 16 50 32 64 36 13 4 31 13 39 20 28 23 267 142 321 160 30 10 61 24 70 31 8 8 22 14 29 14 8 0 32 9 54 19 23 10 52 21 66 24 14 3 43 11 65 17 168 48 284 61 495 57 285 -7 321 -18 286 -88 -29 -57 -76 -202 -76 -234 0 -17 -5 -36 -11 -42 -17 -17 -48 -163 -60 -278 -5 -55 -17 -154 -27 -220 -19 -135 -21 -353 -4 -510 6 -55 18 -176 26 -270 9 -93 20 -190 25 -215 6 -25 10 -60 11 -78 0 -19 6 -48 14 -65 8 -18 19 -66 25 -107 15 -96 39 -205 56 -250 7 -19 26 -89 41 -155 15 -66 36 -133 46 -150 10 -16 18 -42 18 -56 0 -23 48 -177 69 -224 5 -11 19 -54 31 -95 12 -41 32 -100 45 -130 13 -30 31 -80 40 -110 9 -30 25 -73 35 -95 10 -22 40 -94 66 -160 26 -66 52 -133 59 -150 7 -16 27 -66 45 -110 17 -44 54 -127 82 -185 27 -58 60 -127 73 -155 13 -27 53 -111 89 -186 36 -75 66 -139 66 -143 0 -5 22 -45 49 -91 27 -46 54 -99 61 -119 6 -19 22 -51 35 -71 14 -19 36 -59 50 -88 14 -28 35 -70 47 -92 12 -22 39 -71 60 -110 21 -38 50 -88 63 -110 13 -22 41 -71 60 -110 51 -98 60 -112 78 -133 10 -10 17 -22 17 -27 0 -4 11 -23 25 -41 14 -18 25 -37 25 -42 0 -6 7 -12 15 -16 8 -3 12 -11 10 -18 -3 -7 14 -43 37 -80 24 -37 59 -93 78 -124 19 -32 53 -86 75 -120 22 -34 56 -87 75 -118 76 -124 270 -415 280 -421 20 -12 0 -24 -25 -15 -14 5 -25 7 -25 5 0 -3 -18 13 -40 35 -21 21 -57 48 -80 60 -22 11 -40 24 -40 28 0 5 -19 19 -42 32 -24 13 -61 38 -84 57 -23 18 -45 33 -49 33 -4 0 -28 16 -52 36 -57 47 -130 96 -165 112 -16 6 -28 17 -28 24 -1 12 -158 138 -184 147 -6 2 -25 16 -43 30 -17 14 -61 49 -98 76 -37 28 -86 66 -109 85 -24 19 -64 51 -91 70 -26 19 -65 49 -85 65 -21 17 -63 49 -94 73 -31 23 -56 47 -56 51 0 5 -21 23 -47 39 -27 16 -80 58 -119 93 -40 35 -94 82 -120 104 -26 22 -71 60 -100 85 -28 25 -88 77 -134 115 -45 39 -118 104 -163 145 -72 66 -117 100 -131 100 -3 0 -6 -15 -8 -32 -3 -28 -6 -33 -26 -30 l-24 4 23 -31 c13 -17 30 -31 38 -31 20 0 100 -86 117 -126 7 -17 20 -36 28 -44 9 -7 16 -22 16 -34 0 -13 11 -33 24 -45 25 -24 25 -42 -1 -72 -11 -14 -11 -18 0 -28 11 -9 17 -8 27 4 17 21 32 8 18 -15 -15 -24 -3 -38 21 -23 21 13 41 0 41 -27 0 -8 16 -35 35 -59 19 -24 35 -50 35 -57 0 -7 12 -26 26 -43 27 -33 63 -92 93 -156 10 -22 28 -48 39 -58 11 -10 26 -33 33 -50 7 -18 26 -47 43 -64 16 -18 28 -33 25 -34 -62 -11 -126 11 -174 61 -28 29 -75 41 -75 19 0 -17 29 -65 95 -159 34 -47 87 -125 119 -175 32 -49 67 -101 77 -115 10 -14 26 -41 34 -60 9 -19 24 -44 35 -55 10 -11 33 -51 50 -90 18 -38 41 -79 51 -90 10 -11 25 -41 34 -65 9 -25 27 -62 40 -82 14 -21 25 -40 25 -44 0 -3 18 -43 39 -87 64 -134 151 -370 151 -409 0 -8 8 -26 19 -39 10 -13 21 -44 25 -69 4 -25 12 -57 20 -71 7 -14 13 -39 14 -55 0 -16 9 -54 20 -84 19 -54 30 -104 37 -165 3 -40 23 -177 35 -246 6 -30 10 -83 10 -117 0 -33 5 -64 10 -67 13 -8 13 -257 1 -305 -5 -19 -12 -66 -15 -105 -8 -91 -20 -172 -40 -270 -36 -168 -49 -253 -53 -330 -2 -44 -10 -94 -18 -112 -8 -17 -15 -43 -15 -58 0 -26 -56 -251 -67 -268 -3 -5 -5 -24 -5 -43 0 -19 -4 -37 -9 -40 -5 -3 -9 -13 -9 -23 0 -9 -9 -36 -20 -59 -11 -22 -20 -52 -20 -65 0 -12 -4 -27 -8 -33 -5 -5 -15 -29 -22 -54 -8 -25 -22 -56 -32 -69 -10 -13 -18 -31 -18 -39 0 -21 -203 -424 -245 -487 -83 -124 -209 -304 -241 -345 -55 -70 -175 -210 -214 -249 -111 -112 -344 -328 -368 -340 -15 -8 -52 -35 -82 -61 -81 -69 -234 -175 -340 -237 -152 -88 -149 -87 -245 -87 l-90 -1 -3 23 c-2 13 7 35 22 53 15 17 24 34 22 37 -2 4 11 27 30 52 18 25 49 79 70 120 20 41 45 87 55 101 10 14 43 77 75 140 31 63 65 125 74 139 10 14 23 45 30 70 7 25 23 68 37 96 30 65 65 157 115 309 22 66 46 134 54 150 8 17 16 46 20 65 8 51 43 205 64 280 10 36 21 99 24 140 4 41 12 129 18 195 12 123 15 497 5 595 -3 30 -11 111 -17 180 -6 69 -15 139 -21 155 -13 37 -52 190 -68 265 -11 53 -35 99 -46 89 -3 -3 -7 -21 -9 -40 -3 -19 -5 -34 -6 -34 -1 0 -4 -20 -6 -45 -2 -25 -8 -58 -14 -73 -5 -15 -12 -62 -16 -105 -4 -43 -15 -92 -25 -112 -11 -19 -19 -43 -19 -53 0 -10 -6 -30 -14 -45 -7 -15 -16 -51 -19 -81 -4 -29 -11 -58 -16 -65 -8 -9 -53 -123 -107 -271 -27 -72 -156 -323 -175 -341 -10 -9 -19 -27 -19 -39 0 -12 -14 -39 -30 -60 -16 -21 -30 -41 -30 -45 0 -5 -20 -35 -45 -68 -25 -33 -45 -64 -45 -70 0 -6 -12 -25 -27 -43 -16 -18 -37 -47 -48 -65 -11 -18 -48 -66 -81 -107 -34 -41 -67 -84 -73 -95 -7 -12 -18 -22 -26 -22 -8 0 -26 -17 -39 -37 -51 -81 -529 -513 -566 -513 -5 0 -35 -22 -67 -48 -89 -74 -243 -166 -256 -153 -16 16 -27 13 -27 -7 0 -11 -8 -26 -17 -34 -34 -31 -332 -177 -339 -167 -8 14 13 62 53 122 18 27 33 55 33 63 0 8 11 19 25 24 18 7 25 17 25 36 0 28 73 134 92 134 6 0 7 7 4 15 -3 9 1 18 9 21 8 4 15 12 15 19 0 19 38 101 69 148 15 23 40 71 56 107 15 36 36 76 46 89 11 13 19 34 19 48 0 13 6 26 14 29 8 3 17 22 21 42 4 20 13 44 20 52 7 8 18 34 24 56 16 59 50 134 61 134 6 0 10 8 10 18 0 23 36 162 56 216 20 52 45 135 49 161 1 11 9 36 18 56 8 20 13 48 10 62 -3 14 2 41 12 59 9 18 21 71 25 118 16 149 29 250 34 259 3 4 8 111 11 237 4 129 10 230 16 232 15 6 11 99 -5 105 -9 4 -16 32 -21 89 -4 46 -12 94 -17 108 -6 14 -11 64 -13 112 -2 47 -8 95 -13 105 -6 11 -8 38 -5 62 4 32 3 41 -8 39 -10 -2 -13 6 -11 30 1 17 -2 32 -8 32 -15 0 -30 37 -40 97 -5 31 -16 63 -23 72 -8 9 -17 35 -20 59 -3 24 -12 51 -21 61 -9 10 -16 28 -16 42 0 13 -9 38 -19 55 -10 17 -22 45 -25 62 -4 17 -14 36 -22 43 -8 6 -14 24 -14 39 0 16 -10 41 -23 57 -53 63 -85 171 -57 188 6 3 10 10 10 16 0 11 -37 12 -44 1 -3 -5 -18 -7 -33 -5 -15 3 -84 -5 -153 -16 -69 -12 -139 -21 -156 -21 -17 0 -53 -7 -80 -16 -43 -14 -161 -30 -360 -50 -75 -8 -255 20 -299 45 -16 10 -56 29 -87 41 -72 29 -162 115 -218 207 -22 38 -44 75 -50 83 -36 59 -70 187 -70 263 0 39 -12 47 -39 23 -16 -13 -155 -36 -219 -36 -19 0 -65 -9 -103 -21 -38 -12 -79 -19 -91 -16 -12 3 -30 1 -41 -4 -29 -16 -221 -39 -322 -39 -155 0 -251 24 -375 92 -8 4 -24 12 -35 17 -28 13 -116 106 -156 166 -36 54 -79 134 -79 150 -1 6 -9 28 -20 50 -11 22 -19 60 -20 85 0 25 -6 54 -14 65 -18 27 -26 102 -28 269 -1 126 1 140 18 153 18 13 18 15 2 24 -11 6 -18 22 -18 39 0 16 -6 32 -12 36 -7 5 -49 7 -93 5 -44 -1 -93 3 -110 9 -39 15 -75 49 -75 71 0 9 -7 22 -16 30 -14 12 -14 14 2 26 16 12 16 14 2 26 -24 19 -36 67 -25 107 5 19 8 56 7 83 0 26 6 59 14 75 9 15 22 44 30 64 17 44 97 168 121 188 9 7 23 27 31 43 15 28 14 31 -8 56 -40 43 -114 172 -133 230 -16 50 -16 55 -1 66 20 15 21 41 1 49 -26 10 -20 111 10 162 23 39 28 43 88 53 35 6 91 11 124 11 44 0 67 5 83 18 32 26 22 55 -42 123 -67 72 -118 142 -118 161 0 8 -9 27 -20 41 -11 14 -20 33 -20 42 0 9 -7 30 -16 47 -24 46 -25 242 -1 283 9 17 17 35 17 41 0 14 83 101 131 136 19 15 64 38 100 52 35 13 98 45 139 70 41 25 95 57 120 72 25 15 56 35 70 46 14 10 43 31 65 46 43 29 94 81 152 152 34 43 97 167 110 219 3 13 12 36 19 50 19 37 17 98 -6 167 -11 32 -20 74 -20 92 0 19 -7 59 -16 89 -22 75 -16 369 8 424 9 20 14 47 11 61 -2 13 5 52 16 86 12 34 21 75 21 92 0 17 9 48 19 68 11 20 30 64 42 97 12 33 27 65 33 70 20 19 36 54 30 69 -3 8 -1 17 4 20 6 3 24 35 41 71 17 36 38 65 45 65 8 0 16 16 20 38 3 20 23 60 45 89 22 29 48 67 57 85 9 18 31 49 48 69 17 20 45 56 61 80 60 86 163 199 368 404 226 225 371 354 400 355 9 0 17 4 17 9 0 15 187 158 292 225 51 32 106 68 122 79 47 32 398 204 441 216 22 6 58 20 80 31 21 11 49 20 60 20 12 0 30 7 41 15 10 8 33 15 51 15 18 0 57 9 88 21 31 12 66 18 78 15 11 -3 27 0 35 7 33 27 382 52 396 28z"/>
<path d="M6110 19958 l-25 -23 5 -1655 5 -1655 262 0 c192 1 266 4 275 13 7 7 26 12 43 12 48 0 97 18 125 45 14 14 46 46 73 71 26 25 47 49 47 53 0 5 9 16 20 26 11 10 20 22 20 28 0 5 11 30 23 56 23 44 32 96 45 236 3 33 6 546 6 1140 1 1074 -3 1221 -34 1326 -6 20 -17 42 -25 49 -8 7 -12 16 -10 21 24 37 -124 196 -213 230 -76 29 -230 45 -442 47 l-175 2 -25 -22z"/>
<path d="M4810 13385 c-7 -9 -10 -18 -7 -22 8 -7 37 15 37 28 0 14 -16 11 -30 -6z"/>
<path d="M4760 13330 c0 -5 5 -10 10 -10 6 0 10 5 10 10 0 6 -4 10 -10 10 -5 0 -10 -4 -10 -10z"/>
<path d="M3640 12552 c0 -48 7 -114 15 -145 8 -32 15 -78 15 -103 0 -24 7 -60 15 -79 7 -19 17 -63 20 -98 7 -69 36 -185 66 -262 10 -28 19 -57 19 -64 0 -20 49 -160 65 -185 7 -12 16 -36 20 -54 4 -18 19 -54 33 -80 37 -66 51 -109 39 -121 -5 -5 -6 -14 -3 -19 6 -9 63 -42 73 -42 8 0 -10 108 -25 150 -14 37 -17 85 -17 265 l1 220 27 57 c31 66 32 76 11 106 -12 18 -25 22 -68 22 l-54 0 -34 58 c-18 31 -40 73 -48 92 -7 19 -28 67 -45 105 -41 89 -85 206 -85 226 0 16 -19 39 -32 39 -4 0 -8 -40 -8 -88z"/>
<path d="M5180 11967 c0 -23 17 -47 32 -47 13 0 9 33 -6 53 -18 23 -26 21 -26 -6z"/>
<path d="M5200 11660 c0 -11 5 -20 10 -20 6 0 10 9 10 20 0 11 -4 20 -10 20 -5 0 -10 -9 -10 -20z"/>
<path d="M5220 11610 c0 -5 5 -10 10 -10 6 0 10 5 10 10 0 6 -4 10 -10 10 -5 0 -10 -4 -10 -10z"/>
<path d="M3080 10070 c0 -5 5 -10 10 -10 6 0 10 5 10 10 0 6 -4 10 -10 10 -5 0 -10 -4 -10 -10z"/>
<path d="M3160 9831 c0 -13 29 -35 37 -28 7 8 -15 37 -28 37 -5 0 -9 -4 -9 -9z"/>
<path d="M7180 8810 c0 -5 5 -10 10 -10 6 0 10 5 10 10 0 6 -4 10 -10 10 -5 0 -10 -4 -10 -10z"/>
<path d="M3240 8210 c0 -5 5 -10 10 -10 6 0 10 5 10 10 0 6 -4 10 -10 10 -5 0 -10 -4 -10 -10z"/>
<path d="M3240 8130 c0 -5 5 -10 10 -10 6 0 10 5 10 10 0 6 -4 10 -10 10 -5 0 -10 -4 -10 -10z"/>
<path d="M3260 7770 c0 -5 5 -10 10 -10 6 0 10 5 10 10 0 6 -4 10 -10 10 -5 0 -10 -4 -10 -10z"/>
</g>
</g>
  <g id="id1:id1" transform="matrix(1.25,0,0,1.25,0.0,0.0)"><g transform="translate(0.000000,918.400000) scale(0.040000,-0.040000)" fill="#b6b6b6" stroke="none">
<path d="M11240 20450 c0 -5 5 -10 10 -10 6 0 10 5 10 10 0 6 -4 10 -10 10 -5 0 -10 -4 -10 -10z"/>
<path d="M14824 20439 c-3 -6 1 -18 10 -27 15 -15 18 -15 26 -2 5 9 5 19 -2 27 -13 16 -25 17 -34 2z"/>
<path d="M23620 20430 c0 -5 5 -10 10 -10 6 0 10 5 10 10 0 6 -4 10 -10 10 -5 0 -10 -4 -10 -10z"/>
<path d="M25220 20425 c0 -8 5 -15 10 -15 6 0 10 7 10 15 0 8 -4 15 -10 15 -5 0 -10 -7 -10 -15z"/>
<path d="M11320 20410 c0 -5 9 -10 20 -10 11 0 20 5 20 10 0 6 -9 10 -20 10 -11 0 -20 -4 -20 -10z"/>
<path d="M26140 20390 c0 -5 5 -10 10 -10 6 0 10 5 10 10 0 6 -4 10 -10 10 -5 0 -10 -4 -10 -10z"/>
<path d="M25705 20340 c-13 -22 10 -30 85 -30 65 0 81 -3 89 -17 9 -16 12 -16 20 -3 7 11 4 21 -11 37 -19 20 -31 23 -99 23 -43 0 -81 -4 -84 -10z"/>
<path d="M25970 20340 c-11 -7 -11 -11 -1 -24 17 -20 27 -20 34 -2 8 19 -15 37 -33 26z"/>
<path d="M26083 20338 c-8 -15 5 -23 39 -23 23 0 33 5 33 15 0 10 -10 15 -33 15 -19 0 -36 -3 -39 -7z"/>
<path d="M16600 20290 c0 -5 5 -10 10 -10 6 0 10 5 10 10 0 6 -4 10 -10 10 -5 0 -10 -4 -10 -10z"/>
<path d="M26724 20265 c-6 -15 11 -45 26 -45 10 0 18 31 13 48 -6 17 -32 15 -39 -3z"/>
<path d="M26820 20270 c0 -5 5 -10 10 -10 6 0 10 5 10 10 0 6 -4 10 -10 10 -5 0 -10 -4 -10 -10z"/>
<path d="M16600 20250 c0 -5 5 -10 10 -10 6 0 10 5 10 10 0 6 -4 10 -10 10 -5 0 -10 -4 -10 -10z"/>
<path d="M25880 20200 c0 -22 5 -40 10 -40 6 0 10 18 10 40 0 22 -4 40 -10 40 -5 0 -10 -18 -10 -40z"/>
<path d="M25880 20130 c0 -5 5 -10 10 -10 6 0 10 5 10 10 0 6 -4 10 -10 10 -5 0 -10 -4 -10 -10z"/>
<path d="M19920 20110 c0 -5 5 -10 10 -10 6 0 10 5 10 10 0 6 -4 10 -10 10 -5 0 -10 -4 -10 -10z"/>
<path d="M16600 20090 c0 -5 5 -10 10 -10 6 0 10 5 10 10 0 6 -4 10 -10 10 -5 0 -10 -4 -10 -10z"/>
<path d="M26834 20059 c-10 -17 13 -36 27 -22 12 12 4 33 -11 33 -5 0 -12 -5 -16 -11z"/>
<path d="M14840 20010 c0 -5 5 -10 10 -10 6 0 10 5 10 10 0 6 -4 10 -10 10 -5 0 -10 -4 -10 -10z"/>
<path d="M26760 19990 c0 -16 5 -30 10 -30 6 0 10 14 10 30 0 17 -4 30 -10 30 -5 0 -10 -13 -10 -30z"/>
<path d="M24156 19964 c-3 -8 -1 -16 3 -18 9 -6 61 16 61 25 0 12 -59 5 -64 -7z"/>
<path d="M25120 19970 c0 -5 9 -10 20 -10 11 0 20 5 20 10 0 6 -9 10 -20 10 -11 0 -20 -4 -20 -10z"/>
<path d="M6100 19950 c0 -5 5 -10 10 -10 6 0 10 5 10 10 0 6 -4 10 -10 10 -5 0 -10 -4 -10 -10z"/>
<path d="M10260 19950 c0 -5 5 -10 10 -10 6 0 10 5 10 10 0 6 -4 10 -10 10 -5 0 -10 -4 -10 -10z"/>
<path d="M13776 19952 c-2 -4 0 -14 5 -22 8 -13 10 -13 18 0 10 15 6 30 -9 30 -5 0 -11 -4 -14 -8z"/>
<path d="M6960 19690 c0 -5 5 -10 10 -10 6 0 10 5 10 10 0 6 -4 10 -10 10 -5 0 -10 -4 -10 -10z"/>
<path d="M20240 19310 c0 -5 5 -10 10 -10 6 0 10 5 10 10 0 6 -4 10 -10 10 -5 0 -10 -4 -10 -10z"/>
<path d="M20340 19090 c0 -5 5 -10 10 -10 6 0 10 5 10 10 0 6 -4 10 -10 10 -5 0 -10 -4 -10 -10z"/>
<path d="M19960 18935 c-15 -18 -10 -45 13 -59 23 -14 35 4 29 44 -5 32 -22 39 -42 15z"/>
<path d="M20015 18781 c-7 -12 12 -24 25 -16 11 7 4 25 -10 25 -5 0 -11 -4 -15 -9z"/>
<path d="M20060 18690 c0 -5 5 -10 10 -10 6 0 10 5 10 10 0 6 -4 10 -10 10 -5 0 -10 -4 -10 -10z"/>
<path d="M13774 18679 c-10 -17 13 -36 27 -22 12 12 4 33 -11 33 -5 0 -12 -5 -16 -11z"/>
<path d="M20520 18630 c0 -5 5 -10 10 -10 6 0 10 5 10 10 0 6 -4 10 -10 10 -5 0 -10 -4 -10 -10z"/>
<path d="M20100 18590 c0 -5 5 -10 10 -10 6 0 10 5 10 10 0 6 -4 10 -10 10 -5 0 -10 -4 -10 -10z"/>
<path d="M24920 18590 c0 -5 5 -10 10 -10 6 0 10 5 10 10 0 6 -4 10 -10 10 -5 0 -10 -4 -10 -10z"/>
<path d="M11000 18530 c0 -5 5 -10 10 -10 6 0 10 5 10 10 0 6 -4 10 -10 10 -5 0 -10 -4 -10 -10z"/>
<path d="M20120 18530 c0 -5 5 -10 10 -10 6 0 10 5 10 10 0 6 -4 10 -10 10 -5 0 -10 -4 -10 -10z"/>
<path d="M24920 18530 c0 -5 5 -10 10 -10 6 0 10 5 10 10 0 6 -4 10 -10 10 -5 0 -10 -4 -10 -10z"/>
<path d="M24160 18130 c0 -5 5 -10 10 -10 6 0 10 5 10 10 0 6 -4 10 -10 10 -5 0 -10 -4 -10 -10z"/>
<path d="M20280 18100 c0 -11 5 -20 10 -20 6 0 10 9 10 20 0 11 -4 20 -10 20 -5 0 -10 -9 -10 -20z"/>
<path d="M24160 18090 c0 -5 5 -10 10 -10 6 0 10 5 10 10 0 6 -4 10 -10 10 -5 0 -10 -4 -10 -10z"/>
<path d="M20800 17970 c0 -5 5 -10 10 -10 6 0 10 5 10 10 0 6 -4 10 -10 10 -5 0 -10 -4 -10 -10z"/>
<path d="M20860 17970 c0 -5 5 -10 10 -10 6 0 10 5 10 10 0 6 -4 10 -10 10 -5 0 -10 -4 -10 -10z"/>
<path d="M20842 17917 c-19 -20 -20 -26 -9 -50 6 -15 16 -25 21 -24 18 6 29 34 21 53 -4 11 -7 25 -6 32 3 17 -3 15 -27 -11z"/>
<path d="M20354 17909 c-10 -17 13 -36 27 -22 12 12 4 33 -11 33 -5 0 -12 -5 -16 -11z"/>
<path d="M20400 17790 c0 -5 5 -10 10 -10 6 0 10 5 10 10 0 6 -4 10 -10 10 -5 0 -10 -4 -10 -10z"/>
<path d="M20437 17705 c-7 -16 8 -29 23 -20 10 6 2 35 -10 35 -4 0 -10 -7 -13 -15z"/>
<path d="M20480 17590 c0 -5 5 -10 10 -10 6 0 10 5 10 10 0 6 -4 10 -10 10 -5 0 -10 -4 -10 -10z"/>
<path d="M20500 17530 c0 -5 5 -10 10 -10 6 0 10 5 10 10 0 6 -4 10 -10 10 -5 0 -10 -4 -10 -10z"/>
<path d="M20560 17350 c0 -5 5 -10 10 -10 6 0 10 5 10 10 0 6 -4 10 -10 10 -5 0 -10 -4 -10 -10z"/>
<path d="M7560 16870 c0 -5 5 -10 10 -10 6 0 10 5 10 10 0 6 -4 10 -10 10 -5 0 -10 -4 -10 -10z"/>
<path d="M6830 16745 c-18 -19 -31 -38 -27 -41 8 -9 75 47 76 64 1 20 -13 14 -49 -23z"/>
<path d="M7494 16719 c-10 -17 13 -36 27 -22 12 12 4 33 -11 33 -5 0 -12 -5 -16 -11z"/>
<path d="M6635 16660 c-4 -6 -3 -16 3 -22 6 -6 12 -6 17 2 4 6 3 16 -3 22 -6 6 -12 6 -17 -2z"/>
<path d="M24156 16662 c-7 -11 31 -48 41 -38 4 3 -2 16 -14 27 -11 12 -23 17 -27 11z"/>
<path d="M10257 16645 c-7 -16 8 -29 23 -20 10 6 2 35 -10 35 -4 0 -10 -7 -13 -15z"/>
<path d="M6174 16639 c-10 -17 13 -36 27 -22 12 12 4 33 -11 33 -5 0 -12 -5 -16 -11z"/>
<path d="M24254 16639 c-10 -17 13 -36 27 -22 12 12 4 33 -11 33 -5 0 -12 -5 -16 -11z"/>
<path d="M16600 16290 c0 -5 5 -10 10 -10 6 0 10 5 10 10 0 6 -4 10 -10 10 -5 0 -10 -4 -10 -10z"/>
<path d="M13780 16250 c0 -5 5 -10 10 -10 6 0 10 5 10 10 0 6 -4 10 -10 10 -5 0 -10 -4 -10 -10z"/>
<path d="M16597 16245 c-7 -16 8 -29 23 -20 10 6 2 35 -10 35 -4 0 -10 -7 -13 -15z"/>
<path d="M17220 16250 c0 -5 5 -10 10 -10 6 0 10 5 10 10 0 6 -4 10 -10 10 -5 0 -10 -4 -10 -10z"/>
<path d="M2734 16227 c-9 -25 0 -62 16 -62 10 0 15 10 15 34 0 36 -21 54 -31 28z"/>
<path d="M5480 16230 c0 -5 5 -10 10 -10 6 0 10 5 10 10 0 6 -4 10 -10 10 -5 0 -10 -4 -10 -10z"/>
<path d="M5460 16190 c0 -5 5 -10 10 -10 6 0 10 5 10 10 0 6 -4 10 -10 10 -5 0 -10 -4 -10 -10z"/>
<path d="M6760 16190 c0 -5 5 -10 10 -10 6 0 10 5 10 10 0 6 -4 10 -10 10 -5 0 -10 -4 -10 -10z"/>
<path d="M16600 16190 c0 -5 5 -10 10 -10 6 0 10 5 10 10 0 6 -4 10 -10 10 -5 0 -10 -4 -10 -10z"/>
<path d="M21020 16176 c0 -9 7 -16 16 -16 17 0 14 22 -4 28 -7 2 -12 -3 -12 -12z"/>
<path d="M5155 12027 c-6 -24 9 -235 21 -297 3 -19 14 -43 22 -53 13 -14 14 -22 5 -36 -9 -14 -8 -30 3 -67 8 -27 20 -74 25 -104 13 -71 85 -301 114 -365 13 -27 30 -70 38 -95 29 -86 200 -419 240 -469 13 -15 23 -32 56 -92 13 -24 30 -48 36 -54 7 -5 34 -41 61 -80 26 -38 51 -72 54 -75 4 -3 44 -52 90 -110 46 -58 115 -139 153 -180 38 -41 72 -78 76 -82 3 -5 164 -164 357 -355 360 -357 419 -419 633 -681 68 -84 128 -152 133 -152 12 0 10 14 -3 27 -7 7 -9 19 -5 29 5 14 14 9 55 -29 34 -32 60 -47 87 -52 22 -3 52 -8 67 -10 41 -7 45 19 10 63 -17 21 -39 55 -51 77 -11 22 -29 49 -41 59 -12 11 -21 27 -21 37 0 10 -5 21 -10 24 -6 4 -20 25 -32 48 -11 23 -34 58 -49 77 -16 19 -29 39 -29 46 0 6 -16 33 -35 60 -19 27 -35 54 -35 60 0 7 -21 34 -46 60 -29 31 -44 55 -41 66 3 10 -4 30 -16 45 -23 28 -46 68 -71 121 -8 17 -20 32 -26 32 -6 0 -15 11 -20 25 -5 14 -20 30 -32 36 -28 12 -66 34 -74 42 -3 3 -1 13 5 24 5 10 12 27 16 37 l6 19 20 -21 c11 -12 24 -22 28 -22 5 0 28 -18 52 -40 24 -22 47 -40 51 -40 20 0 3 21 -54 71 -77 66 -517 499 -516 508 2 18 -3 30 -14 33 -21 5 -308 315 -308 332 0 9 -7 16 -15 16 -8 0 -27 19 -41 43 -15 23 -53 72 -86 108 -32 36 -58 69 -58 74 0 4 -22 33 -48 64 -27 31 -57 70 -67 86 -11 17 -40 58 -66 91 -26 34 -56 79 -67 101 -11 22 -28 45 -36 52 -9 8 -16 17 -16 22 0 5 -22 41 -49 81 -27 40 -66 100 -85 133 -54 91 -221 430 -256 519 -32 82 -64 136 -80 136 -6 0 -12 -10 -15 -23z m59 -89 c-3 -5 -12 -4 -20 3 -7 6 -11 15 -8 21 3 5 12 4 20 -3 7 -6 11 -15 8 -21z"/>
<path d="M7200 11770 c0 -5 5 -10 10 -10 6 0 10 5 10 10 0 6 -4 10 -10 10 -5 0 -10 -4 -10 -10z"/>
<path d="M7220 11730 c0 -5 5 -10 10 -10 6 0 10 5 10 10 0 6 -4 10 -10 10 -5 0 -10 -4 -10 -10z"/>
<path d="M7400 11210 c0 -5 5 -10 10 -10 6 0 10 5 10 10 0 6 -4 10 -10 10 -5 0 -10 -4 -10 -10z"/>
<path d="M7574 10739 c-10 -17 13 -36 27 -22 12 12 4 33 -11 33 -5 0 -12 -5 -16 -11z"/>
<path d="M7760 10310 c0 -5 5 -10 10 -10 6 0 10 5 10 10 0 6 -4 10 -10 10 -5 0 -10 -4 -10 -10z"/>
<path d="M8080 9670 c0 -5 5 -10 10 -10 6 0 10 5 10 10 0 6 -4 10 -10 10 -5 0 -10 -4 -10 -10z"/>
<path d="M8120 9590 c0 -5 5 -10 10 -10 6 0 10 5 10 10 0 6 -4 10 -10 10 -5 0 -10 -4 -10 -10z"/>
<path d="M7060 9550 c0 -5 5 -10 10 -10 6 0 10 5 10 10 0 6 -4 10 -10 10 -5 0 -10 -4 -10 -10z"/>
<path d="M8160 9530 c0 -5 5 -10 10 -10 6 0 10 5 10 10 0 6 -4 10 -10 10 -5 0 -10 -4 -10 -10z"/>
<path d="M8320 9230 c0 -5 5 -10 10 -10 6 0 10 5 10 10 0 6 -4 10 -10 10 -5 0 -10 -4 -10 -10z"/>
<path d="M8360 9150 c0 -5 5 -10 10 -10 6 0 10 5 10 10 0 6 -4 10 -10 10 -5 0 -10 -4 -10 -10z"/>
<path d="M7580 9090 c0 -5 5 -10 10 -10 6 0 10 5 10 10 0 6 -4 10 -10 10 -5 0 -10 -4 -10 -10z"/>
<path d="M8400 9090 c0 -5 5 -10 10 -10 6 0 10 5 10 10 0 6 -4 10 -10 10 -5 0 -10 -4 -10 -10z"/>
<path d="M8440 9030 c0 -5 5 -10 10 -10 6 0 10 5 10 10 0 6 -4 10 -10 10 -5 0 -10 -4 -10 -10z"/>
<path d="M8480 8950 c0 -5 5 -10 10 -10 6 0 10 5 10 10 0 6 -4 10 -10 10 -5 0 -10 -4 -10 -10z"/>
<path d="M8520 8910 c0 -5 5 -10 10 -10 6 0 10 5 10 10 0 6 -4 10 -10 10 -5 0 -10 -4 -10 -10z"/>
<path d="M8634 8699 c-10 -17 13 -36 27 -22 12 12 4 33 -11 33 -5 0 -12 -5 -16 -11z"/>
<path d="M7520 8590 c0 -5 5 -10 10 -10 6 0 10 5 10 10 0 6 -4 10 -10 10 -5 0 -10 -4 -10 -10z"/>
<path d="M8220 8590 c0 -5 5 -10 10 -10 6 0 10 5 10 10 0 6 -4 10 -10 10 -5 0 -10 -4 -10 -10z"/>
<path d="M7560 8550 c0 -5 5 -10 10 -10 6 0 10 5 10 10 0 6 -4 10 -10 10 -5 0 -10 -4 -10 -10z"/>
<path d="M8440 8431 c0 -13 29 -35 37 -28 7 8 -15 37 -28 37 -5 0 -9 -4 -9 -9z"/>
<path d="M8800 8430 c0 -5 5 -10 10 -10 6 0 10 5 10 10 0 6 -4 10 -10 10 -5 0 -10 -4 -10 -10z"/>
<path d="M8500 8390 c0 -5 5 -10 10 -10 6 0 10 5 10 10 0 6 -4 10 -10 10 -5 0 -10 -4 -10 -10z"/>
<path d="M8600 8311 c0 -5 7 -11 14 -14 10 -4 13 -1 9 9 -6 15 -23 19 -23 5z"/>
<path d="M8660 8270 c0 -5 5 -10 10 -10 6 0 10 5 10 10 0 6 -4 10 -10 10 -5 0 -10 -4 -10 -10z"/>
<path d="M8860 8130 c0 -5 5 -10 10 -10 6 0 10 5 10 10 0 6 -4 10 -10 10 -5 0 -10 -4 -10 -10z"/>
<path d="M9000 8025 c0 -8 5 -15 10 -15 6 0 10 7 10 15 0 8 -4 15 -10 15 -5 0 -10 -7 -10 -15z"/>
<path d="M9070 8024 c-11 -13 -9 -19 13 -42 20 -20 29 -24 38 -15 14 14 -5 44 -24 40 -7 -1 -11 6 -9 16 4 21 -2 22 -18 1z"/>
<path d="M7720 7950 c0 -5 5 -10 10 -10 6 0 10 5 10 10 0 6 -4 10 -10 10 -5 0 -10 -4 -10 -10z"/>
<path d="M7880 7650 c0 -5 5 -10 10 -10 6 0 10 5 10 10 0 6 -4 10 -10 10 -5 0 -10 -4 -10 -10z"/>
<path d="M7880 7610 c0 -5 5 -10 10 -10 6 0 10 5 10 10 0 6 -4 10 -10 10 -5 0 -10 -4 -10 -10z"/>
<path d="M8020 7250 c0 -5 5 -10 10 -10 6 0 10 5 10 10 0 6 -4 10 -10 10 -5 0 -10 -4 -10 -10z"/>
<path d="M8054 7119 c-10 -17 13 -36 27 -22 12 12 4 33 -11 33 -5 0 -12 -5 -16 -11z"/>
<path d="M8080 6990 c0 -5 5 -10 10 -10 6 0 10 5 10 10 0 6 -4 10 -10 10 -5 0 -10 -4 -10 -10z"/>
<path d="M8120 6850 c0 -5 5 -10 10 -10 6 0 10 5 10 10 0 6 -4 10 -10 10 -5 0 -10 -4 -10 -10z"/>
<path d="M8180 6390 c0 -5 5 -10 10 -10 6 0 10 5 10 10 0 6 -4 10 -10 10 -5 0 -10 -4 -10 -10z"/>
<path d="M8160 5930 c0 -5 5 -10 10 -10 6 0 10 5 10 10 0 6 -4 10 -10 10 -5 0 -10 -4 -10 -10z"/>
<path d="M8054 5329 c-10 -17 13 -36 27 -22 12 12 4 33 -11 33 -5 0 -12 -5 -16 -11z"/>
<path d="M7954 4899 c-10 -17 13 -36 27 -22 12 12 4 33 -11 33 -5 0 -12 -5 -16 -11z"/>
<path d="M7940 4830 c0 -5 5 -10 10 -10 6 0 10 5 10 10 0 6 -4 10 -10 10 -5 0 -10 -4 -10 -10z"/>
<path d="M7920 4790 c0 -5 5 -10 10 -10 6 0 10 5 10 10 0 6 -4 10 -10 10 -5 0 -10 -4 -10 -10z"/>
<path d="M7900 4710 c0 -5 5 -10 10 -10 6 0 10 5 10 10 0 6 -4 10 -10 10 -5 0 -10 -4 -10 -10z"/>
</g>
</g>
  <g id="id2:id2" transform="matrix(1.25,0,0,1.25,0.0,0.0)"><g transform="translate(0.000000,918.400000) scale(0.040000,-0.040000)" fill="#636363" stroke="none">
<path d="M3340 20450 c0 -5 5 -10 10 -10 6 0 10 5 10 10 0 6 -4 10 -10 10 -5 0 -10 -4 -10 -10z"/>
<path d="M21440 20450 c0 -5 5 -10 10 -10 6 0 10 5 10 10 0 6 -4 10 -10 10 -5 0 -10 -4 -10 -10z"/>
<path d="M5486 20441 c-4 -7 -5 -15 -2 -18 9 -9 19 4 14 18 -4 11 -6 11 -12 0z"/>
<path d="M9640 20430 c0 -5 5 -10 10 -10 6 0 10 5 10 10 0 6 -4 10 -10 10 -5 0 -10 -4 -10 -10z"/>
<path d="M19360 20430 c0 -5 5 -10 10 -10 6 0 10 5 10 10 0 6 -4 10 -10 10 -5 0 -10 -4 -10 -10z"/>
<path d="M19780 20430 c0 -5 5 -10 10 -10 6 0 10 5 10 10 0 6 -4 10 -10 10 -5 0 -10 -4 -10 -10z"/>
<path d="M20880 20430 c0 -5 5 -10 10 -10 6 0 10 5 10 10 0 6 -4 10 -10 10 -5 0 -10 -4 -10 -10z"/>
<path d="M17220 20400 c0 -11 5 -20 10 -20 6 0 10 9 10 20 0 11 -4 20 -10 20 -5 0 -10 -9 -10 -20z"/>
<path d="M19820 20390 c0 -5 5 -10 10 -10 6 0 10 5 10 10 0 6 -4 10 -10 10 -5 0 -10 -4 -10 -10z"/>
<path d="M9640 20370 c0 -5 5 -10 10 -10 6 0 10 5 10 10 0 6 -4 10 -10 10 -5 0 -10 -4 -10 -10z"/>
<path d="M13160 20370 c0 -5 5 -10 10 -10 6 0 10 5 10 10 0 6 -4 10 -10 10 -5 0 -10 -4 -10 -10z"/>
<path d="M16600 20370 c0 -5 5 -10 10 -10 6 0 10 5 10 10 0 6 -4 10 -10 10 -5 0 -10 -4 -10 -10z"/>
<path d="M26160 20370 c0 -5 5 -10 10 -10 6 0 10 5 10 10 0 6 -4 10 -10 10 -5 0 -10 -4 -10 -10z"/>
<path d="M26820 20370 c0 -5 5 -10 10 -10 6 0 10 5 10 10 0 6 -4 10 -10 10 -5 0 -10 -4 -10 -10z"/>
<path d="M26237 20345 c-7 -16 8 -29 23 -20 10 6 2 35 -10 35 -4 0 -10 -7 -13 -15z"/>
<path d="M26810 20340 c-11 -7 -11 -11 -1 -24 18 -22 31 -20 31 3 0 24 -12 32 -30 21z"/>
<path d="M26680 20330 c0 -5 5 -10 10 -10 6 0 10 5 10 10 0 6 -4 10 -10 10 -5 0 -10 -4 -10 -10z"/>
<path d="M7200 20290 c0 -5 5 -10 10 -10 6 0 10 5 10 10 0 6 -4 10 -10 10 -5 0 -10 -4 -10 -10z"/>
<path d="M13160 20290 c0 -5 5 -10 10 -10 6 0 10 5 10 10 0 6 -4 10 -10 10 -5 0 -10 -4 -10 -10z"/>
<path d="M13160 20250 c0 -5 5 -10 10 -10 6 0 10 5 10 10 0 6 -4 10 -10 10 -5 0 -10 -4 -10 -10z"/>
<path d="M26640 20250 c0 -5 5 -10 10 -10 6 0 10 5 10 10 0 6 -4 10 -10 10 -5 0 -10 -4 -10 -10z"/>
<path d="M26312 20238 c-14 -14 -16 -38 -3 -38 5 0 14 7 21 15 17 20 0 41 -18 23z"/>
<path d="M26420 20215 c0 -8 5 -15 10 -15 6 0 10 7 10 15 0 8 -4 15 -10 15 -5 0 -10 -7 -10 -15z"/>
<path d="M7320 20210 c0 -5 5 -10 10 -10 6 0 10 5 10 10 0 6 -4 10 -10 10 -5 0 -10 -4 -10 -10z"/>
<path d="M13160 20210 c0 -5 5 -10 10 -10 6 0 10 5 10 10 0 6 -4 10 -10 10 -5 0 -10 -4 -10 -10z"/>
<path d="M26340 20190 c0 -5 5 -10 10 -10 6 0 10 5 10 10 0 6 -4 10 -10 10 -5 0 -10 -4 -10 -10z"/>
<path d="M7360 20170 c0 -5 5 -10 10 -10 6 0 10 5 10 10 0 6 -4 10 -10 10 -5 0 -10 -4 -10 -10z"/>
<path d="M13160 20170 c0 -5 5 -10 10 -10 6 0 10 5 10 10 0 6 -4 10 -10 10 -5 0 -10 -4 -10 -10z"/>
<path d="M26620 20170 c0 -5 5 -10 10 -10 6 0 10 5 10 10 0 6 -4 10 -10 10 -5 0 -10 -4 -10 -10z"/>
<path d="M26440 20150 c0 -5 5 -10 10 -10 6 0 10 5 10 10 0 6 -4 10 -10 10 -5 0 -10 -4 -10 -10z"/>
<path d="M7396 20132 c-2 -4 0 -14 5 -22 8 -13 10 -13 18 0 10 15 6 30 -9 30 -5 0 -11 -4 -14 -8z"/>
<path d="M13160 20130 c0 -5 5 -10 10 -10 6 0 10 5 10 10 0 6 -4 10 -10 10 -5 0 -10 -4 -10 -10z"/>
<path d="M26376 20102 c-3 -6 -1 -14 5 -17 15 -10 25 3 12 16 -7 7 -13 7 -17 1z"/>
<path d="M13160 20090 c0 -5 5 -10 10 -10 6 0 10 5 10 10 0 6 -4 10 -10 10 -5 0 -10 -4 -10 -10z"/>
<path d="M25880 20090 c0 -5 5 -10 10 -10 6 0 10 5 10 10 0 6 -4 10 -10 10 -5 0 -10 -4 -10 -10z"/>
<path d="M26300 20070 c0 -5 5 -10 10 -10 6 0 10 5 10 10 0 6 -4 10 -10 10 -5 0 -10 -4 -10 -10z"/>
<path d="M13160 20050 c0 -5 5 -10 10 -10 6 0 10 5 10 10 0 6 -4 10 -10 10 -5 0 -10 -4 -10 -10z"/>
<path d="M16600 20050 c0 -5 5 -10 10 -10 6 0 10 5 10 10 0 6 -4 10 -10 10 -5 0 -10 -4 -10 -10z"/>
<path d="M25880 20050 c0 -5 5 -10 10 -10 6 0 10 5 10 10 0 6 -4 10 -10 10 -5 0 -10 -4 -10 -10z"/>
<path d="M26300 20030 c0 -5 5 -10 10 -10 6 0 10 5 10 10 0 6 -4 10 -10 10 -5 0 -10 -4 -10 -10z"/>
<path d="M11320 20010 c0 -5 5 -10 10 -10 6 0 10 5 10 10 0 6 -4 10 -10 10 -5 0 -10 -4 -10 -10z"/>
<path d="M13160 20010 c0 -5 5 -10 10 -10 6 0 10 5 10 10 0 6 -4 10 -10 10 -5 0 -10 -4 -10 -10z"/>
<path d="M16600 20010 c0 -5 5 -10 10 -10 6 0 10 5 10 10 0 6 -4 10 -10 10 -5 0 -10 -4 -10 -10z"/>
<path d="M25880 20010 c0 -5 5 -10 10 -10 6 0 10 5 10 10 0 6 -4 10 -10 10 -5 0 -10 -4 -10 -10z"/>
<path d="M26395 20011 c-7 -12 12 -24 25 -16 11 7 4 25 -10 25 -5 0 -11 -4 -15 -9z"/>
<path d="M25215 19981 c-7 -12 12 -24 25 -16 11 7 4 25 -10 25 -5 0 -11 -4 -15 -9z"/>
<path d="M13160 19970 c0 -5 5 -10 10 -10 6 0 10 5 10 10 0 6 -4 10 -10 10 -5 0 -10 -4 -10 -10z"/>
<path d="M16600 19970 c0 -5 5 -10 10 -10 6 0 10 5 10 10 0 6 -4 10 -10 10 -5 0 -10 -4 -10 -10z"/>
<path d="M25880 19970 c0 -5 5 -10 10 -10 6 0 10 5 10 10 0 6 -4 10 -10 10 -5 0 -10 -4 -10 -10z"/>
<path d="M13160 19930 c0 -5 5 -10 10 -10 6 0 10 5 10 10 0 6 -4 10 -10 10 -5 0 -10 -4 -10 -10z"/>
<path d="M16600 19930 c0 -5 5 -10 10 -10 6 0 10 5 10 10 0 6 -4 10 -10 10 -5 0 -10 -4 -10 -10z"/>
<path d="M25880 19930 c0 -5 5 -10 10 -10 6 0 10 5 10 10 0 6 -4 10 -10 10 -5 0 -10 -4 -10 -10z"/>
<path d="M26527 19913 c-6 -32 2 -46 20 -35 20 12 21 56 2 60 -11 2 -18 -6 -22 -25z"/>
<path d="M20000 19910 c0 -5 5 -10 10 -10 6 0 10 5 10 10 0 6 -4 10 -10 10 -5 0 -10 -4 -10 -10z"/>
<path d="M26440 19910 c0 -5 5 -10 10 -10 6 0 10 5 10 10 0 6 -4 10 -10 10 -5 0 -10 -4 -10 -10z"/>
<path d="M13160 19890 c0 -5 5 -10 10 -10 6 0 10 5 10 10 0 6 -4 10 -10 10 -5 0 -10 -4 -10 -10z"/>
<path d="M16600 19890 c0 -5 5 -10 10 -10 6 0 10 5 10 10 0 6 -4 10 -10 10 -5 0 -10 -4 -10 -10z"/>
<path d="M25880 19890 c0 -5 5 -10 10 -10 6 0 10 5 10 10 0 6 -4 10 -10 10 -5 0 -10 -4 -10 -10z"/>
<path d="M13160 19850 c0 -5 5 -10 10 -10 6 0 10 5 10 10 0 6 -4 10 -10 10 -5 0 -10 -4 -10 -10z"/>
<path d="M16600 19850 c0 -5 5 -10 10 -10 6 0 10 5 10 10 0 6 -4 10 -10 10 -5 0 -10 -4 -10 -10z"/>
<path d="M26575 19841 c-7 -12 12 -24 25 -16 11 7 4 25 -10 25 -5 0 -11 -4 -15 -9z"/>
<path d="M25875 19830 c-3 -5 -1 -20 6 -32 l12 -22 9 23 c12 33 -10 58 -27 31z"/>
<path d="M25960 19830 c0 -5 5 -10 10 -10 6 0 10 5 10 10 0 6 -4 10 -10 10 -5 0 -10 -4 -10 -10z"/>
<path d="M26280 19830 c0 -5 5 -10 10 -10 6 0 10 5 10 10 0 6 -4 10 -10 10 -5 0 -10 -4 -10 -10z"/>
<path d="M26456 19832 c-2 -4 0 -14 5 -22 8 -13 10 -13 18 0 10 15 6 30 -9 30 -5 0 -11 -4 -14 -8z"/>
<path d="M13160 19810 c0 -5 5 -10 10 -10 6 0 10 5 10 10 0 6 -4 10 -10 10 -5 0 -10 -4 -10 -10z"/>
<path d="M16600 19810 c0 -5 5 -10 10 -10 6 0 10 5 10 10 0 6 -4 10 -10 10 -5 0 -10 -4 -10 -10z"/>
<path d="M26773 19783 c-20 -7 -15 -23 7 -23 11 0 20 4 20 9 0 13 -12 19 -27 14z"/>
<path d="M13160 19770 c0 -5 5 -10 10 -10 6 0 10 5 10 10 0 6 -4 10 -10 10 -5 0 -10 -4 -10 -10z"/>
<path d="M16600 19770 c0 -5 5 -10 10 -10 6 0 10 5 10 10 0 6 -4 10 -10 10 -5 0 -10 -4 -10 -10z"/>
<path d="M26200 19770 c0 -5 9 -10 20 -10 11 0 20 5 20 10 0 6 -9 10 -20 10 -11 0 -20 -4 -20 -10z"/>
<path d="M26540 19770 c0 -5 5 -10 10 -10 6 0 10 5 10 10 0 6 -4 10 -10 10 -5 0 -10 -4 -10 -10z"/>
<path d="M26840 19770 c0 -5 5 -10 10 -10 6 0 10 5 10 10 0 6 -4 10 -10 10 -5 0 -10 -4 -10 -10z"/>
<path d="M13160 19730 c0 -5 5 -10 10 -10 6 0 10 5 10 10 0 6 -4 10 -10 10 -5 0 -10 -4 -10 -10z"/>
<path d="M16600 19730 c0 -5 5 -10 10 -10 6 0 10 5 10 10 0 6 -4 10 -10 10 -5 0 -10 -4 -10 -10z"/>
<path d="M13160 19690 c0 -5 5 -10 10 -10 6 0 10 5 10 10 0 6 -4 10 -10 10 -5 0 -10 -4 -10 -10z"/>
<path d="M16600 19690 c0 -5 5 -10 10 -10 6 0 10 5 10 10 0 6 -4 10 -10 10 -5 0 -10 -4 -10 -10z"/>
<path d="M13160 19650 c0 -5 5 -10 10 -10 6 0 10 5 10 10 0 6 -4 10 -10 10 -5 0 -10 -4 -10 -10z"/>
<path d="M16600 19650 c0 -5 5 -10 10 -10 6 0 10 5 10 10 0 6 -4 10 -10 10 -5 0 -10 -4 -10 -10z"/>
<path d="M13160 19610 c0 -5 5 -10 10 -10 6 0 10 5 10 10 0 6 -4 10 -10 10 -5 0 -10 -4 -10 -10z"/>
<path d="M16600 19610 c0 -5 5 -10 10 -10 6 0 10 5 10 10 0 6 -4 10 -10 10 -5 0 -10 -4 -10 -10z"/>
<path d="M13160 19570 c0 -5 5 -10 10 -10 6 0 10 5 10 10 0 6 -4 10 -10 10 -5 0 -10 -4 -10 -10z"/>
<path d="M16600 19570 c0 -5 5 -10 10 -10 6 0 10 5 10 10 0 6 -4 10 -10 10 -5 0 -10 -4 -10 -10z"/>
<path d="M13160 19530 c0 -5 5 -10 10 -10 6 0 10 5 10 10 0 6 -4 10 -10 10 -5 0 -10 -4 -10 -10z"/>
<path d="M16600 19530 c0 -5 5 -10 10 -10 6 0 10 5 10 10 0 6 -4 10 -10 10 -5 0 -10 -4 -10 -10z"/>
<path d="M13160 19490 c0 -5 5 -10 10 -10 6 0 10 5 10 10 0 6 -4 10 -10 10 -5 0 -10 -4 -10 -10z"/>
<path d="M16600 19490 c0 -5 5 -10 10 -10 6 0 10 5 10 10 0 6 -4 10 -10 10 -5 0 -10 -4 -10 -10z"/>
<path d="M13160 19450 c0 -5 5 -10 10 -10 6 0 10 5 10 10 0 6 -4 10 -10 10 -5 0 -10 -4 -10 -10z"/>
<path d="M16600 19450 c0 -5 5 -10 10 -10 6 0 10 5 10 10 0 6 -4 10 -10 10 -5 0 -10 -4 -10 -10z"/>
<path d="M13160 19410 c0 -5 5 -10 10 -10 6 0 10 5 10 10 0 6 -4 10 -10 10 -5 0 -10 -4 -10 -10z"/>
<path d="M16600 19410 c0 -5 5 -10 10 -10 6 0 10 5 10 10 0 6 -4 10 -10 10 -5 0 -10 -4 -10 -10z"/>
<path d="M13160 19370 c0 -5 5 -10 10 -10 6 0 10 5 10 10 0 6 -4 10 -10 10 -5 0 -10 -4 -10 -10z"/>
<path d="M16600 19370 c0 -5 5 -10 10 -10 6 0 10 5 10 10 0 6 -4 10 -10 10 -5 0 -10 -4 -10 -10z"/>
<path d="M13160 19330 c0 -5 5 -10 10 -10 6 0 10 5 10 10 0 6 -4 10 -10 10 -5 0 -10 -4 -10 -10z"/>
<path d="M16600 19330 c0 -5 5 -10 10 -10 6 0 10 5 10 10 0 6 -4 10 -10 10 -5 0 -10 -4 -10 -10z"/>
<path d="M13160 19290 c0 -5 5 -10 10 -10 6 0 10 5 10 10 0 6 -4 10 -10 10 -5 0 -10 -4 -10 -10z"/>
<path d="M16600 19290 c0 -5 5 -10 10 -10 6 0 10 5 10 10 0 6 -4 10 -10 10 -5 0 -10 -4 -10 -10z"/>
<path d="M13160 19250 c0 -5 5 -10 10 -10 6 0 10 5 10 10 0 6 -4 10 -10 10 -5 0 -10 -4 -10 -10z"/>
<path d="M16600 19250 c0 -5 5 -10 10 -10 6 0 10 5 10 10 0 6 -4 10 -10 10 -5 0 -10 -4 -10 -10z"/>
<path d="M13160 19210 c0 -5 5 -10 10 -10 6 0 10 5 10 10 0 6 -4 10 -10 10 -5 0 -10 -4 -10 -10z"/>
<path d="M16600 19210 c0 -5 5 -10 10 -10 6 0 10 5 10 10 0 6 -4 10 -10 10 -5 0 -10 -4 -10 -10z"/>
<path d="M13160 19170 c0 -5 5 -10 10 -10 6 0 10 5 10 10 0 6 -4 10 -10 10 -5 0 -10 -4 -10 -10z"/>
<path d="M16600 19170 c0 -5 5 -10 10 -10 6 0 10 5 10 10 0 6 -4 10 -10 10 -5 0 -10 -4 -10 -10z"/>
<path d="M13160 19130 c0 -5 5 -10 10 -10 6 0 10 5 10 10 0 6 -4 10 -10 10 -5 0 -10 -4 -10 -10z"/>
<path d="M16600 19130 c0 -5 5 -10 10 -10 6 0 10 5 10 10 0 6 -4 10 -10 10 -5 0 -10 -4 -10 -10z"/>
<path d="M13160 19090 c0 -5 5 -10 10 -10 6 0 10 5 10 10 0 6 -4 10 -10 10 -5 0 -10 -4 -10 -10z"/>
<path d="M16600 19090 c0 -5 5 -10 10 -10 6 0 10 5 10 10 0 6 -4 10 -10 10 -5 0 -10 -4 -10 -10z"/>
<path d="M13160 19050 c0 -5 5 -10 10 -10 6 0 10 5 10 10 0 6 -4 10 -10 10 -5 0 -10 -4 -10 -10z"/>
<path d="M16600 19050 c0 -5 5 -10 10 -10 6 0 10 5 10 10 0 6 -4 10 -10 10 -5 0 -10 -4 -10 -10z"/>
<path d="M13160 19010 c0 -5 5 -10 10 -10 6 0 10 5 10 10 0 6 -4 10 -10 10 -5 0 -10 -4 -10 -10z"/>
<path d="M16600 19010 c0 -5 5 -10 10 -10 6 0 10 5 10 10 0 6 -4 10 -10 10 -5 0 -10 -4 -10 -10z"/>
<path d="M13160 18970 c0 -5 5 -10 10 -10 6 0 10 5 10 10 0 6 -4 10 -10 10 -5 0 -10 -4 -10 -10z"/>
<path d="M16600 18970 c0 -5 5 -10 10 -10 6 0 10 5 10 10 0 6 -4 10 -10 10 -5 0 -10 -4 -10 -10z"/>
<path d="M13160 18930 c0 -5 5 -10 10 -10 6 0 10 5 10 10 0 6 -4 10 -10 10 -5 0 -10 -4 -10 -10z"/>
<path d="M16600 18930 c0 -5 5 -10 10 -10 6 0 10 5 10 10 0 6 -4 10 -10 10 -5 0 -10 -4 -10 -10z"/>
<path d="M13160 18890 c0 -5 5 -10 10 -10 6 0 10 5 10 10 0 6 -4 10 -10 10 -5 0 -10 -4 -10 -10z"/>
<path d="M16600 18890 c0 -5 5 -10 10 -10 6 0 10 5 10 10 0 6 -4 10 -10 10 -5 0 -10 -4 -10 -10z"/>
<path d="M13160 18850 c0 -5 5 -10 10 -10 6 0 10 5 10 10 0 6 -4 10 -10 10 -5 0 -10 -4 -10 -10z"/>
<path d="M16600 18850 c0 -5 5 -10 10 -10 6 0 10 5 10 10 0 6 -4 10 -10 10 -5 0 -10 -4 -10 -10z"/>
<path d="M20440 18830 c0 -5 5 -10 10 -10 6 0 10 5 10 10 0 6 -4 10 -10 10 -5 0 -10 -4 -10 -10z"/>
<path d="M13160 18810 c0 -5 5 -10 10 -10 6 0 10 5 10 10 0 6 -4 10 -10 10 -5 0 -10 -4 -10 -10z"/>
<path d="M16600 18810 c0 -5 5 -10 10 -10 6 0 10 5 10 10 0 6 -4 10 -10 10 -5 0 -10 -4 -10 -10z"/>
<path d="M20000 18810 c0 -5 5 -10 10 -10 6 0 10 5 10 10 0 6 -4 10 -10 10 -5 0 -10 -4 -10 -10z"/>
<path d="M20460 18790 c0 -5 5 -10 10 -10 6 0 10 5 10 10 0 6 -4 10 -10 10 -5 0 -10 -4 -10 -10z"/>
<path d="M13160 18770 c0 -5 5 -10 10 -10 6 0 10 5 10 10 0 6 -4 10 -10 10 -5 0 -10 -4 -10 -10z"/>
<path d="M16600 18770 c0 -5 5 -10 10 -10 6 0 10 5 10 10 0 6 -4 10 -10 10 -5 0 -10 -4 -10 -10z"/>
<path d="M20040 18750 c0 -5 5 -10 10 -10 6 0 10 5 10 10 0 6 -4 10 -10 10 -5 0 -10 -4 -10 -10z"/>
<path d="M13160 18730 c0 -5 5 -10 10 -10 6 0 10 5 10 10 0 6 -4 10 -10 10 -5 0 -10 -4 -10 -10z"/>
<path d="M16600 18730 c0 -5 5 -10 10 -10 6 0 10 5 10 10 0 6 -4 10 -10 10 -5 0 -10 -4 -10 -10z"/>
<path d="M13160 18690 c0 -5 5 -10 10 -10 6 0 10 5 10 10 0 6 -4 10 -10 10 -5 0 -10 -4 -10 -10z"/>
<path d="M16600 18690 c0 -5 5 -10 10 -10 6 0 10 5 10 10 0 6 -4 10 -10 10 -5 0 -10 -4 -10 -10z"/>
<path d="M13160 18650 c0 -5 5 -10 10 -10 6 0 10 5 10 10 0 6 -4 10 -10 10 -5 0 -10 -4 -10 -10z"/>
<path d="M16600 18650 c0 -5 5 -10 10 -10 6 0 10 5 10 10 0 6 -4 10 -10 10 -5 0 -10 -4 -10 -10z"/>
<path d="M13160 18610 c0 -5 5 -10 10 -10 6 0 10 5 10 10 0 6 -4 10 -10 10 -5 0 -10 -4 -10 -10z"/>
<path d="M16600 18610 c0 -5 5 -10 10 -10 6 0 10 5 10 10 0 6 -4 10 -10 10 -5 0 -10 -4 -10 -10z"/>
<path d="M13160 18570 c0 -5 5 -10 10 -10 6 0 10 5 10 10 0 6 -4 10 -10 10 -5 0 -10 -4 -10 -10z"/>
<path d="M16600 18570 c0 -5 5 -10 10 -10 6 0 10 5 10 10 0 6 -4 10 -10 10 -5 0 -10 -4 -10 -10z"/>
<path d="M13160 18530 c0 -5 5 -10 10 -10 6 0 10 5 10 10 0 6 -4 10 -10 10 -5 0 -10 -4 -10 -10z"/>
<path d="M16600 18530 c0 -5 5 -10 10 -10 6 0 10 5 10 10 0 6 -4 10 -10 10 -5 0 -10 -4 -10 -10z"/>
<path d="M20560 18530 c0 -5 5 -10 10 -10 6 0 10 5 10 10 0 6 -4 10 -10 10 -5 0 -10 -4 -10 -10z"/>
<path d="M13160 18490 c0 -5 5 -10 10 -10 6 0 10 5 10 10 0 6 -4 10 -10 10 -5 0 -10 -4 -10 -10z"/>
<path d="M16600 18490 c0 -5 5 -10 10 -10 6 0 10 5 10 10 0 6 -4 10 -10 10 -5 0 -10 -4 -10 -10z"/>
<path d="M13160 18450 c0 -5 5 -10 10 -10 6 0 10 5 10 10 0 6 -4 10 -10 10 -5 0 -10 -4 -10 -10z"/>
<path d="M16600 18450 c0 -5 5 -10 10 -10 6 0 10 5 10 10 0 6 -4 10 -10 10 -5 0 -10 -4 -10 -10z"/>
<path d="M13160 18410 c0 -5 5 -10 10 -10 6 0 10 5 10 10 0 6 -4 10 -10 10 -5 0 -10 -4 -10 -10z"/>
<path d="M16600 18410 c0 -5 5 -10 10 -10 6 0 10 5 10 10 0 6 -4 10 -10 10 -5 0 -10 -4 -10 -10z"/>
<path d="M13160 18370 c0 -5 5 -10 10 -10 6 0 10 5 10 10 0 6 -4 10 -10 10 -5 0 -10 -4 -10 -10z"/>
<path d="M16600 18370 c0 -5 5 -10 10 -10 6 0 10 5 10 10 0 6 -4 10 -10 10 -5 0 -10 -4 -10 -10z"/>
<path d="M13160 18330 c0 -5 5 -10 10 -10 6 0 10 5 10 10 0 6 -4 10 -10 10 -5 0 -10 -4 -10 -10z"/>
<path d="M16600 18330 c0 -5 5 -10 10 -10 6 0 10 5 10 10 0 6 -4 10 -10 10 -5 0 -10 -4 -10 -10z"/>
<path d="M13160 18290 c0 -5 5 -10 10 -10 6 0 10 5 10 10 0 6 -4 10 -10 10 -5 0 -10 -4 -10 -10z"/>
<path d="M16600 18290 c0 -5 5 -10 10 -10 6 0 10 5 10 10 0 6 -4 10 -10 10 -5 0 -10 -4 -10 -10z"/>
<path d="M13160 18250 c0 -5 5 -10 10 -10 6 0 10 5 10 10 0 6 -4 10 -10 10 -5 0 -10 -4 -10 -10z"/>
<path d="M16600 18250 c0 -5 5 -10 10 -10 6 0 10 5 10 10 0 6 -4 10 -10 10 -5 0 -10 -4 -10 -10z"/>
<path d="M13160 18210 c0 -5 5 -10 10 -10 6 0 10 5 10 10 0 6 -4 10 -10 10 -5 0 -10 -4 -10 -10z"/>
<path d="M16600 18210 c0 -5 5 -10 10 -10 6 0 10 5 10 10 0 6 -4 10 -10 10 -5 0 -10 -4 -10 -10z"/>
<path d="M13160 18170 c0 -5 5 -10 10 -10 6 0 10 5 10 10 0 6 -4 10 -10 10 -5 0 -10 -4 -10 -10z"/>
<path d="M16600 18170 c0 -5 5 -10 10 -10 6 0 10 5 10 10 0 6 -4 10 -10 10 -5 0 -10 -4 -10 -10z"/>
<path d="M13160 18130 c0 -5 5 -10 10 -10 6 0 10 5 10 10 0 6 -4 10 -10 10 -5 0 -10 -4 -10 -10z"/>
<path d="M16600 18130 c0 -5 5 -10 10 -10 6 0 10 5 10 10 0 6 -4 10 -10 10 -5 0 -10 -4 -10 -10z"/>
<path d="M13160 18090 c0 -5 5 -10 10 -10 6 0 10 5 10 10 0 6 -4 10 -10 10 -5 0 -10 -4 -10 -10z"/>
<path d="M16600 18090 c0 -5 5 -10 10 -10 6 0 10 5 10 10 0 6 -4 10 -10 10 -5 0 -10 -4 -10 -10z"/>
<path d="M13160 18050 c0 -5 5 -10 10 -10 6 0 10 5 10 10 0 6 -4 10 -10 10 -5 0 -10 -4 -10 -10z"/>
<path d="M16600 18050 c0 -5 5 -10 10 -10 6 0 10 5 10 10 0 6 -4 10 -10 10 -5 0 -10 -4 -10 -10z"/>
<path d="M13160 18010 c0 -5 5 -10 10 -10 6 0 10 5 10 10 0 6 -4 10 -10 10 -5 0 -10 -4 -10 -10z"/>
<path d="M16600 18010 c0 -5 5 -10 10 -10 6 0 10 5 10 10 0 6 -4 10 -10 10 -5 0 -10 -4 -10 -10z"/>
<path d="M13160 17970 c0 -5 5 -10 10 -10 6 0 10 5 10 10 0 6 -4 10 -10 10 -5 0 -10 -4 -10 -10z"/>
<path d="M16600 17970 c0 -5 5 -10 10 -10 6 0 10 5 10 10 0 6 -4 10 -10 10 -5 0 -10 -4 -10 -10z"/>
<path d="M13160 17930 c0 -5 5 -10 10 -10 6 0 10 5 10 10 0 6 -4 10 -10 10 -5 0 -10 -4 -10 -10z"/>
<path d="M16600 17930 c0 -5 5 -10 10 -10 6 0 10 5 10 10 0 6 -4 10 -10 10 -5 0 -10 -4 -10 -10z"/>
<path d="M13160 17890 c0 -5 5 -10 10 -10 6 0 10 5 10 10 0 6 -4 10 -10 10 -5 0 -10 -4 -10 -10z"/>
<path d="M16600 17890 c0 -5 5 -10 10 -10 6 0 10 5 10 10 0 6 -4 10 -10 10 -5 0 -10 -4 -10 -10z"/>
<path d="M13160 17850 c0 -5 5 -10 10 -10 6 0 10 5 10 10 0 6 -4 10 -10 10 -5 0 -10 -4 -10 -10z"/>
<path d="M16600 17850 c0 -5 5 -10 10 -10 6 0 10 5 10 10 0 6 -4 10 -10 10 -5 0 -10 -4 -10 -10z"/>
<path d="M13160 17810 c0 -5 5 -10 10 -10 6 0 10 5 10 10 0 6 -4 10 -10 10 -5 0 -10 -4 -10 -10z"/>
<path d="M16600 17810 c0 -5 5 -10 10 -10 6 0 10 5 10 10 0 6 -4 10 -10 10 -5 0 -10 -4 -10 -10z"/>
<path d="M13160 17770 c0 -5 5 -10 10 -10 6 0 10 5 10 10 0 6 -4 10 -10 10 -5 0 -10 -4 -10 -10z"/>
<path d="M16600 17770 c0 -5 5 -10 10 -10 6 0 10 5 10 10 0 6 -4 10 -10 10 -5 0 -10 -4 -10 -10z"/>
<path d="M13160 17730 c0 -5 5 -10 10 -10 6 0 10 5 10 10 0 6 -4 10 -10 10 -5 0 -10 -4 -10 -10z"/>
<path d="M16600 17730 c0 -5 5 -10 10 -10 6 0 10 5 10 10 0 6 -4 10 -10 10 -5 0 -10 -4 -10 -10z"/>
<path d="M13160 17690 c0 -5 5 -10 10 -10 6 0 10 5 10 10 0 6 -4 10 -10 10 -5 0 -10 -4 -10 -10z"/>
<path d="M16600 17690 c0 -5 5 -10 10 -10 6 0 10 5 10 10 0 6 -4 10 -10 10 -5 0 -10 -4 -10 -10z"/>
<path d="M13160 17650 c0 -5 5 -10 10 -10 6 0 10 5 10 10 0 6 -4 10 -10 10 -5 0 -10 -4 -10 -10z"/>
<path d="M16600 17650 c0 -5 5 -10 10 -10 6 0 10 5 10 10 0 6 -4 10 -10 10 -5 0 -10 -4 -10 -10z"/>
<path d="M13160 17610 c0 -5 5 -10 10 -10 6 0 10 5 10 10 0 6 -4 10 -10 10 -5 0 -10 -4 -10 -10z"/>
<path d="M16600 17610 c0 -5 5 -10 10 -10 6 0 10 5 10 10 0 6 -4 10 -10 10 -5 0 -10 -4 -10 -10z"/>
<path d="M13160 17570 c0 -5 5 -10 10 -10 6 0 10 5 10 10 0 6 -4 10 -10 10 -5 0 -10 -4 -10 -10z"/>
<path d="M16600 17570 c0 -5 5 -10 10 -10 6 0 10 5 10 10 0 6 -4 10 -10 10 -5 0 -10 -4 -10 -10z"/>
<path d="M13160 17530 c0 -5 5 -10 10 -10 6 0 10 5 10 10 0 6 -4 10 -10 10 -5 0 -10 -4 -10 -10z"/>
<path d="M16600 17530 c0 -5 5 -10 10 -10 6 0 10 5 10 10 0 6 -4 10 -10 10 -5 0 -10 -4 -10 -10z"/>
<path d="M13160 17490 c0 -5 5 -10 10 -10 6 0 10 5 10 10 0 6 -4 10 -10 10 -5 0 -10 -4 -10 -10z"/>
<path d="M16600 17490 c0 -5 5 -10 10 -10 6 0 10 5 10 10 0 6 -4 10 -10 10 -5 0 -10 -4 -10 -10z"/>
<path d="M13160 17450 c0 -5 5 -10 10 -10 6 0 10 5 10 10 0 6 -4 10 -10 10 -5 0 -10 -4 -10 -10z"/>
<path d="M16600 17450 c0 -5 5 -10 10 -10 6 0 10 5 10 10 0 6 -4 10 -10 10 -5 0 -10 -4 -10 -10z"/>
<path d="M13160 17410 c0 -5 5 -10 10 -10 6 0 10 5 10 10 0 6 -4 10 -10 10 -5 0 -10 -4 -10 -10z"/>
<path d="M16600 17410 c0 -5 5 -10 10 -10 6 0 10 5 10 10 0 6 -4 10 -10 10 -5 0 -10 -4 -10 -10z"/>
<path d="M13160 17370 c0 -5 5 -10 10 -10 6 0 10 5 10 10 0 6 -4 10 -10 10 -5 0 -10 -4 -10 -10z"/>
<path d="M16600 17370 c0 -5 5 -10 10 -10 6 0 10 5 10 10 0 6 -4 10 -10 10 -5 0 -10 -4 -10 -10z"/>
<path d="M13160 17330 c0 -5 5 -10 10 -10 6 0 10 5 10 10 0 6 -4 10 -10 10 -5 0 -10 -4 -10 -10z"/>
<path d="M16600 17330 c0 -5 5 -10 10 -10 6 0 10 5 10 10 0 6 -4 10 -10 10 -5 0 -10 -4 -10 -10z"/>
<path d="M13160 17290 c0 -5 5 -10 10 -10 6 0 10 5 10 10 0 6 -4 10 -10 10 -5 0 -10 -4 -10 -10z"/>
<path d="M16600 17290 c0 -5 5 -10 10 -10 6 0 10 5 10 10 0 6 -4 10 -10 10 -5 0 -10 -4 -10 -10z"/>
<path d="M13160 17250 c0 -5 5 -10 10 -10 6 0 10 5 10 10 0 6 -4 10 -10 10 -5 0 -10 -4 -10 -10z"/>
<path d="M16600 17250 c0 -5 5 -10 10 -10 6 0 10 5 10 10 0 6 -4 10 -10 10 -5 0 -10 -4 -10 -10z"/>
<path d="M13160 17210 c0 -5 5 -10 10 -10 6 0 10 5 10 10 0 6 -4 10 -10 10 -5 0 -10 -4 -10 -10z"/>
<path d="M16600 17210 c0 -5 5 -10 10 -10 6 0 10 5 10 10 0 6 -4 10 -10 10 -5 0 -10 -4 -10 -10z"/>
<path d="M7000 17170 c0 -5 5 -10 10 -10 6 0 10 5 10 10 0 6 -4 10 -10 10 -5 0 -10 -4 -10 -10z"/>
<path d="M13160 17170 c0 -5 5 -10 10 -10 6 0 10 5 10 10 0 6 -4 10 -10 10 -5 0 -10 -4 -10 -10z"/>
<path d="M16600 17170 c0 -5 5 -10 10 -10 6 0 10 5 10 10 0 6 -4 10 -10 10 -5 0 -10 -4 -10 -10z"/>
<path d="M13160 17130 c0 -5 5 -10 10 -10 6 0 10 5 10 10 0 6 -4 10 -10 10 -5 0 -10 -4 -10 -10z"/>
<path d="M16600 17130 c0 -5 5 -10 10 -10 6 0 10 5 10 10 0 6 -4 10 -10 10 -5 0 -10 -4 -10 -10z"/>
<path d="M7620 17110 c0 -5 5 -10 10 -10 6 0 10 5 10 10 0 6 -4 10 -10 10 -5 0 -10 -4 -10 -10z"/>
<path d="M13160 17090 c0 -5 5 -10 10 -10 6 0 10 5 10 10 0 6 -4 10 -10 10 -5 0 -10 -4 -10 -10z"/>
<path d="M16600 17090 c0 -5 5 -10 10 -10 6 0 10 5 10 10 0 6 -4 10 -10 10 -5 0 -10 -4 -10 -10z"/>
<path d="M7600 17050 c0 -5 5 -10 10 -10 6 0 10 5 10 10 0 6 -4 10 -10 10 -5 0 -10 -4 -10 -10z"/>
<path d="M13160 17050 c0 -5 5 -10 10 -10 6 0 10 5 10 10 0 6 -4 10 -10 10 -5 0 -10 -4 -10 -10z"/>
<path d="M16600 17050 c0 -5 5 -10 10 -10 6 0 10 5 10 10 0 6 -4 10 -10 10 -5 0 -10 -4 -10 -10z"/>
<path d="M13160 17010 c0 -5 5 -10 10 -10 6 0 10 5 10 10 0 6 -4 10 -10 10 -5 0 -10 -4 -10 -10z"/>
<path d="M16600 17010 c0 -5 5 -10 10 -10 6 0 10 5 10 10 0 6 -4 10 -10 10 -5 0 -10 -4 -10 -10z"/>
<path d="M13160 16970 c0 -5 5 -10 10 -10 6 0 10 5 10 10 0 6 -4 10 -10 10 -5 0 -10 -4 -10 -10z"/>
<path d="M16600 16970 c0 -5 5 -10 10 -10 6 0 10 5 10 10 0 6 -4 10 -10 10 -5 0 -10 -4 -10 -10z"/>
<path d="M6980 16955 c0 -8 5 -15 10 -15 6 0 10 7 10 15 0 8 -4 15 -10 15 -5 0 -10 -7 -10 -15z"/>
<path d="M7575 16951 c-7 -12 12 -24 25 -16 11 7 4 25 -10 25 -5 0 -11 -4 -15 -9z"/>
<path d="M13160 16930 c0 -5 5 -10 10 -10 6 0 10 5 10 10 0 6 -4 10 -10 10 -5 0 -10 -4 -10 -10z"/>
<path d="M16600 16930 c0 -5 5 -10 10 -10 6 0 10 5 10 10 0 6 -4 10 -10 10 -5 0 -10 -4 -10 -10z"/>
<path d="M13160 16890 c0 -5 5 -10 10 -10 6 0 10 5 10 10 0 6 -4 10 -10 10 -5 0 -10 -4 -10 -10z"/>
<path d="M16600 16890 c0 -5 5 -10 10 -10 6 0 10 5 10 10 0 6 -4 10 -10 10 -5 0 -10 -4 -10 -10z"/>
<path d="M13160 16850 c0 -5 5 -10 10 -10 6 0 10 5 10 10 0 6 -4 10 -10 10 -5 0 -10 -4 -10 -10z"/>
<path d="M16600 16850 c0 -5 5 -10 10 -10 6 0 10 5 10 10 0 6 -4 10 -10 10 -5 0 -10 -4 -10 -10z"/>
<path d="M13160 16810 c0 -5 5 -10 10 -10 6 0 10 5 10 10 0 6 -4 10 -10 10 -5 0 -10 -4 -10 -10z"/>
<path d="M16600 16810 c0 -5 5 -10 10 -10 6 0 10 5 10 10 0 6 -4 10 -10 10 -5 0 -10 -4 -10 -10z"/>
<path d="M13160 16770 c0 -5 5 -10 10 -10 6 0 10 5 10 10 0 6 -4 10 -10 10 -5 0 -10 -4 -10 -10z"/>
<path d="M16600 16770 c0 -5 5 -10 10 -10 6 0 10 5 10 10 0 6 -4 10 -10 10 -5 0 -10 -4 -10 -10z"/>
<path d="M13160 16730 c0 -5 5 -10 10 -10 6 0 10 5 10 10 0 6 -4 10 -10 10 -5 0 -10 -4 -10 -10z"/>
<path d="M16600 16730 c0 -5 5 -10 10 -10 6 0 10 5 10 10 0 6 -4 10 -10 10 -5 0 -10 -4 -10 -10z"/>
<path d="M13160 16690 c0 -5 5 -10 10 -10 6 0 10 5 10 10 0 6 -4 10 -10 10 -5 0 -10 -4 -10 -10z"/>
<path d="M16600 16690 c0 -5 5 -10 10 -10 6 0 10 5 10 10 0 6 -4 10 -10 10 -5 0 -10 -4 -10 -10z"/>
<path d="M13160 16650 c0 -5 5 -10 10 -10 6 0 10 5 10 10 0 6 -4 10 -10 10 -5 0 -10 -4 -10 -10z"/>
<path d="M16600 16650 c0 -5 5 -10 10 -10 6 0 10 5 10 10 0 6 -4 10 -10 10 -5 0 -10 -4 -10 -10z"/>
<path d="M25183 16643 c-25 -5 -32 -23 -9 -23 8 0 20 -2 28 -5 7 -3 20 0 28 5 13 9 13 11 0 20 -8 5 -17 9 -20 8 -3 0 -15 -3 -27 -5z"/>
<path d="M11320 16610 c0 -5 5 -10 10 -10 6 0 10 5 10 10 0 6 -4 10 -10 10 -5 0 -10 -4 -10 -10z"/>
<path d="M13160 16610 c0 -5 5 -10 10 -10 6 0 10 5 10 10 0 6 -4 10 -10 10 -5 0 -10 -4 -10 -10z"/>
<path d="M13160 16570 c0 -5 5 -10 10 -10 6 0 10 5 10 10 0 6 -4 10 -10 10 -5 0 -10 -4 -10 -10z"/>
<path d="M13160 16530 c0 -5 5 -10 10 -10 6 0 10 5 10 10 0 6 -4 10 -10 10 -5 0 -10 -4 -10 -10z"/>
<path d="M13160 16490 c0 -5 5 -10 10 -10 6 0 10 5 10 10 0 6 -4 10 -10 10 -5 0 -10 -4 -10 -10z"/>
<path d="M16600 16490 c0 -5 5 -10 10 -10 6 0 10 5 10 10 0 6 -4 10 -10 10 -5 0 -10 -4 -10 -10z"/>
<path d="M13160 16450 c0 -5 5 -10 10 -10 6 0 10 5 10 10 0 6 -4 10 -10 10 -5 0 -10 -4 -10 -10z"/>
<path d="M13160 16410 c0 -5 5 -10 10 -10 6 0 10 5 10 10 0 6 -4 10 -10 10 -5 0 -10 -4 -10 -10z"/>
<path d="M16600 16410 c0 -5 5 -10 10 -10 6 0 10 5 10 10 0 6 -4 10 -10 10 -5 0 -10 -4 -10 -10z"/>
<path d="M13160 16370 c0 -5 5 -10 10 -10 6 0 10 5 10 10 0 6 -4 10 -10 10 -5 0 -10 -4 -10 -10z"/>
<path d="M13154 16326 c-8 -22 3 -49 19 -43 6 2 12 14 12 27 0 27 -22 39 -31 16z"/>
<path d="M9637 16246 c-9 -23 4 -86 17 -86 10 0 14 54 7 93 -2 12 -19 8 -24 -7z"/>
<path d="M13155 16248 c-10 -25 2 -83 17 -86 11 -2 15 8 14 44 -1 46 -20 71 -31 42z"/>
<path d="M11320 16190 c0 -5 5 -10 10 -10 6 0 10 5 10 10 0 6 -4 10 -10 10 -5 0 -10 -4 -10 -10z"/>
<path d="M19940 16170 c0 -5 5 -10 10 -10 6 0 10 5 10 10 0 6 -4 10 -10 10 -5 0 -10 -4 -10 -10z"/>
<path d="M18210 15070 c0 -5 11 -10 25 -10 14 0 25 5 25 10 0 6 -11 10 -25 10 -14 0 -25 -4 -25 -10z"/>
<path d="M11920 15050 c0 -5 5 -10 10 -10 6 0 10 5 10 10 0 6 -4 10 -10 10 -5 0 -10 -4 -10 -10z"/>
<path d="M5142 14995 c-67 -9 -97 -18 -106 -30 -9 -13 -15 -15 -20 -7 -10 16 -36 15 -71 -4 -16 -9 -52 -20 -80 -24 -56 -9 -96 -22 -170 -55 -27 -12 -66 -26 -85 -30 -36 -8 -387 -179 -437 -213 -15 -10 -63 -41 -106 -68 -42 -27 -125 -85 -184 -129 -58 -44 -134 -101 -169 -126 -77 -56 -124 -97 -278 -248 -306 -298 -482 -498 -590 -670 -15 -25 -41 -62 -56 -81 -15 -19 -31 -46 -35 -60 -4 -14 -13 -32 -20 -40 -19 -23 -95 -168 -95 -181 0 -7 -8 -22 -18 -33 -10 -12 -31 -57 -47 -101 -16 -44 -37 -96 -47 -115 -10 -19 -18 -49 -18 -67 0 -18 -9 -60 -21 -92 -17 -50 -18 -63 -7 -80 10 -17 9 -23 -5 -39 -25 -28 -37 -109 -37 -257 0 -88 5 -148 15 -181 8 -27 15 -65 15 -85 0 -20 9 -62 20 -95 20 -61 27 -159 11 -168 -5 -3 -14 -26 -20 -51 -6 -26 -20 -63 -31 -83 -11 -20 -20 -40 -20 -45 0 -25 -145 -190 -211 -240 -49 -37 -157 -107 -214 -138 -22 -12 -44 -28 -48 -36 -5 -7 -12 -11 -18 -8 -5 4 -21 -3 -35 -14 -15 -12 -32 -21 -39 -21 -46 0 -187 -94 -239 -158 -23 -29 -61 -119 -70 -167 -14 -73 22 -263 58 -305 8 -8 16 -28 20 -44 8 -31 25 -55 119 -162 31 -36 57 -71 57 -78 0 -25 -26 -36 -85 -37 -33 -1 -89 -6 -124 -13 -56 -10 -68 -16 -95 -49 l-31 -39 0 -121 0 -122 37 -75 c20 -41 57 -105 82 -142 l45 -68 -23 -27 c-36 -43 -136 -195 -136 -207 0 -6 -12 -33 -25 -61 -27 -55 -31 -85 -13 -103 9 -9 8 -16 -4 -29 -20 -23 -32 -89 -18 -98 5 -3 10 -23 10 -43 0 -21 7 -47 15 -59 8 -12 12 -28 9 -36 -7 -20 31 -55 86 -79 35 -15 63 -19 125 -16 l80 3 5 -242 c5 -210 8 -244 23 -261 11 -11 17 -35 17 -63 0 -24 9 -63 19 -85 10 -23 22 -55 26 -72 3 -17 13 -36 21 -43 8 -6 14 -18 14 -25 0 -7 22 -45 49 -84 54 -78 154 -171 204 -190 18 -6 39 -16 47 -21 79 -49 242 -76 386 -65 179 14 230 22 261 40 23 14 35 17 45 9 9 -8 36 -5 93 8 44 10 127 23 185 30 95 10 109 15 139 41 24 22 30 33 22 41 -7 7 -11 85 -11 238 0 169 -3 229 -12 237 -7 5 -64 10 -127 11 -63 1 -120 6 -127 11 -6 6 -14 28 -18 49 -3 21 -13 44 -21 51 -25 21 -20 169 9 260 25 76 85 190 144 269 46 63 45 118 -3 162 -19 17 -39 46 -45 64 -6 19 -17 38 -24 45 -8 6 -17 27 -21 47 -4 20 -13 46 -21 57 -9 13 -14 47 -14 97 0 69 3 80 31 118 39 54 72 67 187 74 52 3 100 11 108 18 8 7 14 30 14 59 0 45 -3 50 -36 71 -42 25 -144 159 -144 187 0 11 -8 30 -19 43 -10 14 -20 49 -24 81 -3 32 -13 68 -21 80 -22 31 -20 76 8 153 46 126 107 190 236 244 41 18 82 36 90 41 13 9 102 58 181 100 62 34 119 80 219 180 95 94 109 113 139 185 18 44 40 93 48 109 10 18 15 54 15 100 0 117 -1 131 -16 151 l-14 20 -19 -24 c-13 -16 -24 -21 -33 -16 -10 6 -9 11 5 21 l19 14 -22 23 c-12 13 -19 26 -16 30 6 6 -11 49 -76 192 -25 54 -50 131 -59 180 -4 22 -15 54 -24 72 -9 18 -17 41 -17 51 0 10 -8 43 -19 73 -10 30 -21 88 -25 129 -4 41 -14 86 -22 102 -8 15 -14 50 -14 78 0 29 -7 76 -16 106 -16 55 -16 129 0 129 5 0 16 -20 24 -45 8 -25 25 -67 38 -95 133 -291 129 -285 206 -285 33 0 58 -6 69 -16 25 -23 39 -9 39 39 0 24 6 51 14 62 7 11 19 36 24 55 23 75 48 136 65 160 9 13 17 32 17 41 0 9 21 54 48 99 26 45 62 110 80 143 18 34 44 73 56 87 13 14 33 43 46 65 13 22 35 54 49 70 15 17 42 53 61 80 19 28 49 66 67 85 18 19 73 80 121 135 111 125 307 317 432 423 52 45 115 98 140 120 25 21 66 53 92 70 25 18 59 45 75 61 16 16 40 31 54 33 31 4 36 32 10 55 l-21 17 5 156 c5 152 20 248 65 410 10 36 28 101 40 145 12 44 30 98 40 120 10 22 20 59 23 83 6 50 1 54 -88 70 -33 6 -76 14 -95 18 -68 12 -236 12 -328 -1z"/>
<path d="M25380 14860 c0 -11 5 -20 10 -20 6 0 10 9 10 20 0 11 -4 20 -10 20 -5 0 -10 -9 -10 -20z"/>
<path d="M25375 14808 c-3 -7 -4 -420 -3 -918 3 -797 5 -905 18 -905 13 0 15 108 15 914 0 722 -3 915 -12 918 -7 3 -15 -1 -18 -9z"/>
<path d="M12080 14710 c0 -5 5 -10 10 -10 6 0 10 5 10 10 0 6 -4 10 -10 10 -5 0 -10 -4 -10 -10z"/>
<path d="M6500 14410 c0 -5 5 -10 10 -10 6 0 10 5 10 10 0 6 -4 10 -10 10 -5 0 -10 -4 -10 -10z"/>
<path d="M7080 14410 c0 -5 5 -10 10 -10 6 0 10 5 10 10 0 6 -4 10 -10 10 -5 0 -10 -4 -10 -10z"/>
<path d="M7140 14411 c0 -13 29 -35 37 -28 7 8 -15 37 -28 37 -5 0 -9 -4 -9 -9z"/>
<path d="M6344 14379 c-10 -17 13 -36 27 -22 12 12 4 33 -11 33 -5 0 -12 -5 -16 -11z"/>
<path d="M6260 14350 c0 -5 5 -10 10 -10 6 0 10 5 10 10 0 6 -4 10 -10 10 -5 0 -10 -4 -10 -10z"/>
<path d="M15580 14330 c0 -5 5 -10 10 -10 6 0 10 5 10 10 0 6 -4 10 -10 10 -5 0 -10 -4 -10 -10z"/>
<path d="M6140 14310 c0 -5 5 -10 10 -10 6 0 10 5 10 10 0 6 -4 10 -10 10 -5 0 -10 -4 -10 -10z"/>
<path d="M15560 14270 c0 -5 5 -10 10 -10 6 0 10 5 10 10 0 6 -4 10 -10 10 -5 0 -10 -4 -10 -10z"/>
<path d="M7100 14230 c0 -5 5 -10 10 -10 6 0 10 5 10 10 0 6 -4 10 -10 10 -5 0 -10 -4 -10 -10z"/>
<path d="M15500 14150 c0 -5 5 -10 10 -10 6 0 10 5 10 10 0 6 -4 10 -10 10 -5 0 -10 -4 -10 -10z"/>
<path d="M7060 14065 c0 -8 5 -15 10 -15 6 0 10 7 10 15 0 8 -4 15 -10 15 -5 0 -10 -7 -10 -15z"/>
<path d="M15440 14030 c0 -5 5 -10 10 -10 6 0 10 5 10 10 0 6 -4 10 -10 10 -5 0 -10 -4 -10 -10z"/>
<path d="M7040 14010 c0 -5 5 -10 10 -10 6 0 10 5 10 10 0 6 -4 10 -10 10 -5 0 -10 -4 -10 -10z"/>
<path d="M15420 13990 c0 -5 5 -10 10 -10 6 0 10 5 10 10 0 6 -4 10 -10 10 -5 0 -10 -4 -10 -10z"/>
<path d="M15400 13910 c0 -5 5 -10 10 -10 6 0 10 5 10 10 0 6 -4 10 -10 10 -5 0 -10 -4 -10 -10z"/>
<path d="M15340 13810 c0 -5 5 -10 10 -10 6 0 10 5 10 10 0 6 -4 10 -10 10 -5 0 -10 -4 -10 -10z"/>
<path d="M12560 13690 c0 -5 5 -10 10 -10 6 0 10 5 10 10 0 6 -4 10 -10 10 -5 0 -10 -4 -10 -10z"/>
<path d="M15180 13470 c0 -5 5 -10 10 -10 6 0 10 5 10 10 0 6 -4 10 -10 10 -5 0 -10 -4 -10 -10z"/>
<path d="M6960 13450 c0 -5 5 -10 10 -10 6 0 10 5 10 10 0 6 -4 10 -10 10 -5 0 -10 -4 -10 -10z"/>
<path d="M12720 13330 c0 -5 5 -10 10 -10 6 0 10 5 10 10 0 6 -4 10 -10 10 -5 0 -10 -4 -10 -10z"/>
<path d="M12840 13110 c0 -5 5 -10 10 -10 6 0 10 5 10 10 0 6 -4 10 -10 10 -5 0 -10 -4 -10 -10z"/>
<path d="M12840 13070 c0 -5 5 -10 10 -10 6 0 10 5 10 10 0 6 -4 10 -10 10 -5 0 -10 -4 -10 -10z"/>
<path d="M12880 12990 c0 -5 5 -10 10 -10 6 0 10 5 10 10 0 6 -4 10 -10 10 -5 0 -10 -4 -10 -10z"/>
<path d="M6980 12950 c0 -5 5 -10 10 -10 6 0 10 5 10 10 0 6 -4 10 -10 10 -5 0 -10 -4 -10 -10z"/>
<path d="M25380 12930 c0 -5 5 -10 10 -10 6 0 10 5 10 10 0 6 -4 10 -10 10 -5 0 -10 -4 -10 -10z"/>
<path d="M25374 12889 c-10 -17 13 -36 27 -22 12 12 4 33 -11 33 -5 0 -12 -5 -16 -11z"/>
<path d="M7000 12770 c0 -5 5 -10 10 -10 6 0 10 5 10 10 0 6 -4 10 -10 10 -5 0 -10 -4 -10 -10z"/>
<path d="M25370 12745 c-7 -9 -10 -18 -7 -22 8 -7 37 15 37 28 0 14 -16 11 -30 -6z"/>
<path d="M14760 12550 c0 -5 5 -10 10 -10 6 0 10 5 10 10 0 6 -4 10 -10 10 -5 0 -10 -4 -10 -10z"/>
<path d="M13120 12470 c0 -5 5 -10 10 -10 6 0 10 5 10 10 0 6 -4 10 -10 10 -5 0 -10 -4 -10 -10z"/>
<path d="M14680 12390 c0 -5 5 -10 10 -10 6 0 10 5 10 10 0 6 -4 10 -10 10 -5 0 -10 -4 -10 -10z"/>
<path d="M13280 12130 c0 -5 5 -10 10 -10 6 0 10 5 10 10 0 6 -4 10 -10 10 -5 0 -10 -4 -10 -10z"/>
<path d="M7140 12030 c0 -5 5 -10 10 -10 6 0 10 5 10 10 0 6 -4 10 -10 10 -5 0 -10 -4 -10 -10z"/>
<path d="M3970 12005 c-7 -9 -10 -18 -7 -22 8 -7 37 15 37 28 0 14 -16 11 -30 -6z"/>
<path d="M14440 11870 c0 -5 5 -10 10 -10 6 0 10 5 10 10 0 6 -4 10 -10 10 -5 0 -10 -4 -10 -10z"/>
<path d="M13420 11850 c0 -5 5 -10 10 -10 6 0 10 5 10 10 0 6 -4 10 -10 10 -5 0 -10 -4 -10 -10z"/>
<path d="M13440 11790 c0 -5 5 -10 10 -10 6 0 10 5 10 10 0 6 -4 10 -10 10 -5 0 -10 -4 -10 -10z"/>
<path d="M13520 11630 c0 -5 5 -10 10 -10 6 0 10 5 10 10 0 6 -4 10 -10 10 -5 0 -10 -4 -10 -10z"/>
<path d="M3960 11615 c0 -8 5 -15 10 -15 6 0 10 7 10 15 0 8 -4 15 -10 15 -5 0 -10 -7 -10 -15z"/>
<path d="M14300 11590 c0 -5 5 -10 10 -10 6 0 10 5 10 10 0 6 -4 10 -10 10 -5 0 -10 -4 -10 -10z"/>
<path d="M14275 11531 c-7 -12 12 -24 25 -16 11 7 4 25 -10 25 -5 0 -11 -4 -15 -9z"/>
<path d="M3960 11510 c0 -5 5 -10 10 -10 6 0 10 5 10 10 0 6 -4 10 -10 10 -5 0 -10 -4 -10 -10z"/>
<path d="M3980 11440 c0 -11 4 -20 9 -20 11 0 22 26 14 34 -12 12 -23 5 -23 -14z"/>
<path d="M14200 11370 c0 -5 5 -10 10 -10 6 0 10 5 10 10 0 6 -4 10 -10 10 -5 0 -10 -4 -10 -10z"/>
<path d="M13840 10930 c0 -5 5 -10 10 -10 6 0 10 5 10 10 0 6 -4 10 -10 10 -5 0 -10 -4 -10 -10z"/>
<path d="M13980 10885 c0 -8 5 -15 10 -15 6 0 10 7 10 15 0 8 -4 15 -10 15 -5 0 -10 -7 -10 -15z"/>
<path d="M13940 10810 c0 -5 5 -10 10 -10 6 0 10 5 10 10 0 6 -4 10 -10 10 -5 0 -10 -4 -10 -10z"/>
<path d="M21700 10030 c0 -5 5 -10 10 -10 6 0 10 5 10 10 0 6 -4 10 -10 10 -5 0 -10 -4 -10 -10z"/>
<path d="M21692 9979 c2 -7 10 -15 17 -17 8 -3 12 1 9 9 -2 7 -10 15 -17 17 -8 3 -12 -1 -9 -9z"/>
<path d="M24860 9850 c0 -5 5 -10 10 -10 6 0 10 5 10 10 0 6 -4 10 -10 10 -5 0 -10 -4 -10 -10z"/>
<path d="M11925 9541 c-8 -15 3 -31 21 -31 9 0 14 7 12 17 -4 20 -24 28 -33 14z"/>
<path d="M15919 9538 c-9 -47 -7 -67 6 -62 8 4 15 15 15 25 0 10 0 22 1 26 0 7 -20 18 -22 11z"/>
<path d="M11960 9470 c0 -5 5 -10 10 -10 6 0 10 5 10 10 0 6 -4 10 -10 10 -5 0 -10 -4 -10 -10z"/>
<path d="M11920 9455 c0 -8 5 -15 10 -15 6 0 10 7 10 15 0 8 -4 15 -10 15 -5 0 -10 -7 -10 -15z"/>
<path d="M11975 9420 c-8 -13 13 -40 31 -40 17 0 17 10 0 33 -15 20 -22 21 -31 7z"/>
<path d="M15860 9390 c0 -5 5 -10 10 -10 6 0 10 5 10 10 0 6 -4 10 -10 10 -5 0 -10 -4 -10 -10z"/>
<path d="M12060 9230 c0 -5 5 -10 10 -10 6 0 10 5 10 10 0 6 -4 10 -10 10 -5 0 -10 -4 -10 -10z"/>
<path d="M15733 9133 c-7 -15 -11 -29 -8 -32 7 -6 34 31 35 47 0 21 -14 13 -27 -15z"/>
<path d="M12120 9130 c0 -5 5 -10 10 -10 6 0 10 5 10 10 0 6 -4 10 -10 10 -5 0 -10 -4 -10 -10z"/>
<path d="M12160 9030 c0 -5 5 -10 10 -10 6 0 10 5 10 10 0 6 -4 10 -10 10 -5 0 -10 -4 -10 -10z"/>
<path d="M15660 8970 c0 -5 5 -10 10 -10 6 0 10 5 10 10 0 6 -4 10 -10 10 -5 0 -10 -4 -10 -10z"/>
<path d="M15610 8885 c-7 -9 -10 -18 -7 -22 8 -7 37 15 37 28 0 14 -16 11 -30 -6z"/>
<path d="M12280 8770 c0 -5 5 -10 10 -10 6 0 10 5 10 10 0 6 -4 10 -10 10 -5 0 -10 -4 -10 -10z"/>
<path d="M12360 8590 c0 -5 5 -10 10 -10 6 0 10 5 10 10 0 6 -4 10 -10 10 -5 0 -10 -4 -10 -10z"/>
<path d="M12400 8510 c0 -5 5 -10 10 -10 6 0 10 5 10 10 0 6 -4 10 -10 10 -5 0 -10 -4 -10 -10z"/>
<path d="M15420 8470 c0 -5 5 -10 10 -10 6 0 10 5 10 10 0 6 -4 10 -10 10 -5 0 -10 -4 -10 -10z"/>
<path d="M15400 8430 c0 -5 5 -10 10 -10 6 0 10 5 10 10 0 6 -4 10 -10 10 -5 0 -10 -4 -10 -10z"/>
<path d="M15300 8210 c0 -5 5 -10 10 -10 6 0 10 5 10 10 0 6 -4 10 -10 10 -5 0 -10 -4 -10 -10z"/>
<path d="M12560 8190 c0 -5 5 -10 10 -10 6 0 10 5 10 10 0 6 -4 10 -10 10 -5 0 -10 -4 -10 -10z"/>
<path d="M15220 8030 c0 -5 5 -10 10 -10 6 0 10 5 10 10 0 6 -4 10 -10 10 -5 0 -10 -4 -10 -10z"/>
<path d="M15180 7950 c0 -5 5 -10 10 -10 6 0 10 5 10 10 0 6 -4 10 -10 10 -5 0 -10 -4 -10 -10z"/>
<path d="M15130 7865 c-7 -9 -10 -18 -7 -22 8 -7 37 15 37 28 0 14 -16 11 -30 -6z"/>
<path d="M15096 7792 c-2 -4 0 -14 5 -22 8 -13 10 -13 18 0 10 15 6 30 -9 30 -5 0 -11 -4 -14 -8z"/>
<path d="M24856 7624 c-4 -10 -1 -14 6 -12 15 5 23 28 10 28 -5 0 -13 -7 -16 -16z"/>
<path d="M14980 7530 c0 -5 5 -10 10 -10 6 0 10 5 10 10 0 6 -4 10 -10 10 -5 0 -10 -4 -10 -10z"/>
<path d="M14900 7345 c0 -8 5 -15 10 -15 6 0 10 7 10 15 0 8 -4 15 -10 15 -5 0 -10 -7 -10 -15z"/>
<path d="M12960 7310 c0 -5 5 -10 10 -10 6 0 10 5 10 10 0 6 -4 10 -10 10 -5 0 -10 -4 -10 -10z"/>
<path d="M14860 7265 c0 -8 5 -15 10 -15 6 0 10 7 10 15 0 8 -4 15 -10 15 -5 0 -10 -7 -10 -15z"/>
<path d="M5113 7230 c-12 -5 -81 -12 -155 -15 -99 -5 -137 -11 -150 -22 -18 -17 -15 -35 6 -31 6 2 13 -1 14 -7 1 -5 -2 -10 -7 -10 -19 0 -24 -16 -9 -28 9 -6 19 -28 22 -47 3 -20 22 -59 41 -89 19 -29 35 -61 35 -71 0 -10 18 -53 40 -96 22 -43 40 -90 40 -105 0 -14 8 -37 19 -50 10 -13 21 -43 24 -67 3 -24 12 -51 21 -61 9 -10 16 -29 16 -43 0 -35 31 -121 46 -131 11 -6 11 -12 2 -27 -14 -22 4 -87 34 -125 13 -17 15 -26 7 -31 -13 -7 -3 -147 12 -176 5 -10 14 -115 20 -235 12 -234 2 -486 -26 -678 -8 -55 -14 -118 -15 -140 0 -22 -6 -52 -14 -66 -21 -41 -28 -80 -16 -94 8 -10 5 -24 -15 -55 -14 -22 -24 -44 -21 -48 5 -9 -13 -74 -54 -196 -16 -49 -33 -106 -36 -125 -4 -20 -12 -43 -19 -51 -8 -8 -17 -28 -21 -45 -4 -16 -15 -46 -26 -65 -10 -19 -18 -44 -18 -56 0 -12 -6 -27 -14 -33 -8 -7 -17 -24 -21 -39 -4 -15 -13 -34 -21 -43 -8 -9 -18 -34 -21 -55 -3 -22 -11 -46 -18 -54 -7 -8 -29 -46 -48 -85 -58 -120 -125 -245 -147 -275 -11 -15 -20 -33 -20 -38 0 -6 -18 -32 -40 -57 -22 -25 -40 -54 -40 -64 0 -10 -9 -26 -21 -37 -11 -10 -26 -32 -34 -49 -7 -16 -35 -60 -63 -98 -54 -70 -57 -91 -16 -101 19 -5 62 13 182 75 86 45 171 91 187 103 17 12 50 32 75 45 52 28 211 133 257 170 18 14 50 40 73 56 23 17 65 50 94 75 28 25 78 65 110 90 32 25 117 105 190 179 177 181 204 210 256 276 25 32 55 68 67 81 13 14 28 34 34 46 7 12 33 49 58 83 45 59 58 79 102 160 11 22 33 52 47 67 14 15 26 36 27 47 1 11 6 25 12 33 19 22 131 246 159 317 14 36 30 71 34 76 4 6 13 26 18 45 18 61 52 151 67 174 7 11 16 46 20 76 4 30 14 67 21 82 8 15 14 37 14 50 0 13 9 37 20 53 12 18 20 47 20 75 1 25 7 85 14 134 8 50 12 95 10 101 -3 6 8 23 25 37 26 24 28 31 24 75 -3 26 -11 58 -19 70 -8 12 -14 32 -14 44 0 13 -9 41 -19 63 -11 23 -29 67 -41 98 -12 32 -26 60 -31 63 -5 4 -9 19 -9 36 0 19 -7 33 -21 41 -11 7 -42 56 -68 108 -48 96 -130 230 -174 285 -13 17 -30 41 -37 55 -54 102 -203 226 -350 290 -101 44 -123 50 -210 60 -41 5 -102 13 -135 19 -71 13 -331 13 -362 1z"/>
<path d="M14760 7070 c0 -5 5 -10 10 -10 6 0 10 5 10 10 0 6 -4 10 -10 10 -5 0 -10 -4 -10 -10z"/>
<path d="M13110 6980 c0 -13 28 -25 38 -16 3 4 0 11 -8 16 -20 13 -30 12 -30 0z"/>
<path d="M13156 6912 c-2 -4 0 -14 5 -22 8 -13 10 -13 18 0 10 15 6 30 -9 30 -5 0 -11 -4 -14 -8z"/>
<path d="M14540 6590 c0 -5 5 -10 10 -10 6 0 10 5 10 10 0 6 -4 10 -10 10 -5 0 -10 -4 -10 -10z"/>
<path d="M14495 6511 c-7 -12 12 -24 25 -16 11 7 4 25 -10 25 -5 0 -11 -4 -15 -9z"/>
<path d="M14460 6430 c0 -5 5 -10 10 -10 6 0 10 5 10 10 0 6 -4 10 -10 10 -5 0 -10 -4 -10 -10z"/>
<path d="M14410 6325 c-7 -9 -10 -18 -7 -22 8 -7 37 15 37 28 0 14 -16 11 -30 -6z"/>
<path d="M14380 6250 c0 -5 5 -10 10 -10 6 0 10 5 10 10 0 6 -4 10 -10 10 -5 0 -10 -4 -10 -10z"/>
<path d="M14220 5910 c0 -5 5 -10 10 -10 6 0 10 5 10 10 0 6 -4 10 -10 10 -5 0 -10 -4 -10 -10z"/>
<path d="M6595 5900 c-3 -6 1 -13 10 -16 19 -8 30 0 20 15 -8 14 -22 14 -30 1z"/>
<path d="M13640 5870 c0 -5 5 -10 10 -10 6 0 10 5 10 10 0 6 -4 10 -10 10 -5 0 -10 -4 -10 -10z"/>
<path d="M6620 5795 c0 -8 5 -15 10 -15 6 0 10 7 10 15 0 8 -4 15 -10 15 -5 0 -10 -7 -10 -15z"/>
<path d="M14120 5710 c0 -5 5 -10 10 -10 6 0 10 5 10 10 0 6 -4 10 -10 10 -5 0 -10 -4 -10 -10z"/>
<path d="M13720 5690 c0 -5 5 -10 10 -10 6 0 10 5 10 10 0 6 -4 10 -10 10 -5 0 -10 -4 -10 -10z"/>
<path d="M13740 5630 c0 -5 5 -10 10 -10 6 0 10 5 10 10 0 6 -4 10 -10 10 -5 0 -10 -4 -10 -10z"/>
<path d="M14020 5490 c0 -5 5 -10 10 -10 6 0 10 5 10 10 0 6 -4 10 -10 10 -5 0 -10 -4 -10 -10z"/>
<path d="M13977 5413 c-12 -21 -18 -73 -8 -73 14 0 43 58 36 70 -7 12 -22 13 -28 3z"/>
<path d="M13900 5310 c0 -5 5 -10 10 -10 6 0 10 5 10 10 0 6 -4 10 -10 10 -5 0 -10 -4 -10 -10z"/>
<path d="M13940 5310 c0 -5 5 -10 10 -10 6 0 10 5 10 10 0 6 -4 10 -10 10 -5 0 -10 -4 -10 -10z"/>
<path d="M13920 5270 c0 -5 5 -10 10 -10 6 0 10 5 10 10 0 6 -4 10 -10 10 -5 0 -10 -4 -10 -10z"/>
<path d="M21700 4890 c0 -5 5 -10 10 -10 6 0 10 5 10 10 0 6 -4 10 -10 10 -5 0 -10 -4 -10 -10z"/>
<path d="M6700 4810 c0 -5 5 -10 10 -10 6 0 10 5 10 10 0 6 -4 10 -10 10 -5 0 -10 -4 -10 -10z"/>
<path d="M25414 4747 c-11 -29 0 -102 16 -102 19 0 22 106 3 112 -7 3 -16 -2 -19 -10z"/>
<path d="M7877 4665 c-7 -16 8 -29 23 -20 10 6 2 35 -10 35 -4 0 -10 -7 -13 -15z"/>
<path d="M7860 4585 c0 -8 5 -15 10 -15 6 0 10 7 10 15 0 8 -4 15 -10 15 -5 0 -10 -7 -10 -15z"/>
<path d="M7813 4493 c-7 -15 -11 -29 -8 -32 7 -6 34 31 35 47 0 21 -14 13 -27 -15z"/>
<path d="M25420 4450 c0 -5 5 -10 10 -10 6 0 10 5 10 10 0 6 -4 10 -10 10 -5 0 -10 -4 -10 -10z"/>
<path d="M7620 4090 c0 -5 5 -10 10 -10 6 0 10 5 10 10 0 6 -4 10 -10 10 -5 0 -10 -4 -10 -10z"/>
<path d="M6460 3705 c0 -8 5 -15 10 -15 6 0 10 7 10 15 0 8 -4 15 -10 15 -5 0 -10 -7 -10 -15z"/>
<path d="M6376 3522 c-2 -4 0 -14 5 -22 8 -13 10 -13 18 0 10 15 6 30 -9 30 -5 0 -11 -4 -14 -8z"/>
<path d="M7095 3440 c-4 -6 -3 -16 3 -22 6 -6 12 -6 17 2 4 6 3 16 -3 22 -6 6 -12 6 -17 -2z"/>
<path d="M6480 2910 c0 -5 5 -10 10 -10 6 0 10 5 10 10 0 6 -4 10 -10 10 -5 0 -10 -4 -10 -10z"/>
<path d="M6040 2850 c0 -5 5 -10 10 -10 6 0 10 5 10 10 0 6 -4 10 -10 10 -5 0 -10 -4 -10 -10z"/>
<path d="M6400 2850 c0 -5 5 -10 10 -10 6 0 10 5 10 10 0 6 -4 10 -10 10 -5 0 -10 -4 -10 -10z"/>
<path d="M6005 2740 c-7 -11 12 -40 25 -40 4 0 10 7 14 15 6 18 -29 41 -39 25z"/>
<path d="M6060 2730 c0 -5 5 -10 10 -10 6 0 10 5 10 10 0 6 -4 10 -10 10 -5 0 -10 -4 -10 -10z"/>
<path d="M25420 2730 c0 -5 5 -10 10 -10 6 0 10 5 10 10 0 6 -4 10 -10 10 -5 0 -10 -4 -10 -10z"/>
<path d="M9600 2540 c0 -19 11 -26 23 -14 8 8 -3 34 -14 34 -5 0 -9 -9 -9 -20z"/>
<path d="M9663 2542 c-13 -2 -23 -7 -23 -12 0 -12 50 -19 56 -8 9 14 -8 25 -33 20z"/>
<path d="M9724 2539 c-3 -6 -2 -15 3 -20 5 -5 423 -8 1039 -7 907 3 1029 5 1029 18 0 13 -122 15 -1032 18 -737 1 -1034 -1 -1039 -9z"/>
<path d="M15940 2535 c0 -9 5 -15 11 -13 6 2 11 8 11 13 0 5 -5 11 -11 13 -6 2 -11 -4 -11 -13z"/>
<path d="M16008 2543 c-38 -6 -35 -20 5 -26 17 -3 507 -4 1087 -4 930 2 1055 4 1055 17 0 13 -125 15 -1060 16 -583 0 -1072 -1 -1087 -3z"/>
<path d="M19448 2543 c-38 -6 -35 -20 5 -26 17 -3 228 -4 467 -4 379 2 435 4 435 17 0 13 -56 15 -440 16 -242 0 -452 -1 -467 -3z"/>
<path d="M20564 2539 c-3 -6 -2 -15 3 -20 5 -5 955 -8 2379 -7 2098 3 2369 5 2369 18 0 13 -271 15 -2372 18 -1702 1 -2374 -1 -2379 -9z"/>
<path d="M11900 2530 c0 -5 5 -10 10 -10 6 0 10 5 10 10 0 6 -4 10 -10 10 -5 0 -10 -4 -10 -10z"/>
<path d="M18260 2530 c0 -5 5 -10 10 -10 6 0 10 5 10 10 0 6 -4 10 -10 10 -5 0 -10 -4 -10 -10z"/>
<path d="M20420 2530 c0 -5 5 -10 10 -10 6 0 10 5 10 10 0 6 -4 10 -10 10 -5 0 -10 -4 -10 -10z"/>
<path d="M20520 2530 c0 -5 5 -10 10 -10 6 0 10 5 10 10 0 6 -4 10 -10 10 -5 0 -10 -4 -10 -10z"/>
<path d="M25340 2530 c0 -5 5 -10 10 -10 6 0 10 5 10 10 0 6 -4 10 -10 10 -5 0 -10 -4 -10 -10z"/>
<path d="M25380 2530 c0 -5 5 -10 10 -10 6 0 10 5 10 10 0 6 -4 10 -10 10 -5 0 -10 -4 -10 -10z"/>
</g>
</g>
  <g id="id3:id3" transform="matrix(1.25,0,0,1.25,0.0,0.0)"><g transform="translate(0.000000,918.400000) scale(0.040000,-0.040000)" fill="#000000" stroke="none">
<path d="M2756 20438 c-13 -20 -15 -281 -13 -2139 2 -1777 4 -2119 16 -2132 12 -15 46 -17 300 -17 210 0 290 3 299 12 18 18 17 4261 -1 4276 -8 7 -110 11 -291 12 -153 0 -282 3 -287 6 -4 2 -15 -6 -23 -18z"/>
<path d="M10474 20453 l-801 -3 -19 -21 -19 -21 3 -2077 c1 -1142 2 -2095 3 -2119 0 -30 6 -45 19 -52 20 -11 1636 -15 1663 -4 12 4 15 40 16 210 1 112 -1 220 -5 240 l-7 36 -526 -3 -526 -3 0 744 0 745 364 3 c249 1 369 6 378 13 18 16 19 439 1 457 -9 9 -103 12 -363 12 -265 0 -355 3 -368 13 -16 11 -17 60 -15 672 l3 660 530 5 530 5 3 232 3 232 -30 15 c-16 9 -31 15 -33 14 -2 -2 -363 -4 -804 -5z"/>
<path d="M23557 20438 c-12 -42 -8 -4247 3 -4269 l11 -19 827 0 c631 0 831 3 840 12 19 19 17 428 -2 454 l-14 19 -524 2 -523 2 0 746 0 746 382 -1 c358 -1 382 0 387 17 8 31 5 429 -5 444 -7 11 -77 15 -386 19 l-378 5 0 670 0 670 519 3 c466 2 522 4 538 19 16 15 18 36 18 219 0 111 -4 214 -10 229 l-10 25 -812 0 c-447 0 -823 3 -834 6 -16 4 -23 0 -27 -18z"/>
<path d="M5493 20431 l-23 -19 0 -2125 0 -2126 43 -6 c77 -12 1167 0 1222 13 28 6 82 18 120 26 239 48 457 182 563 346 19 30 45 67 58 82 12 15 25 41 29 58 4 16 20 57 36 91 17 34 35 87 40 118 6 31 15 64 20 73 5 10 9 34 9 53 0 19 4 43 9 53 36 72 35 60 39 1227 4 1167 1 1297 -35 1367 -7 15 -13 37 -13 50 0 75 -109 324 -166 379 -19 18 -34 40 -35 48 0 24 -165 151 -194 151 -8 0 -17 5 -20 10 -12 19 -80 47 -190 78 -246 68 -212 66 -880 69 l-610 3 -22 -19z m1114 -486 c117 -16 161 -32 209 -75 19 -16 38 -30 42 -30 13 0 82 -98 82 -116 0 -10 6 -25 14 -33 25 -30 44 -115 56 -251 17 -201 7 -2282 -11 -2403 -8 -48 -19 -91 -25 -95 -6 -4 -15 -18 -19 -32 -14 -45 -103 -171 -130 -185 -11 -6 -31 -18 -45 -27 -56 -38 -194 -55 -477 -60 -107 -1 -177 2 -183 8 -11 11 -15 3287 -5 3305 10 15 378 10 492 -6z"/>
<path d="M13177 20439 l-18 -10 1 -2122 c1 -1929 3 -2123 17 -2139 15 -16 41 -18 302 -18 157 0 292 4 298 8 10 6 13 219 15 988 l3 979 364 3 c249 1 369 6 378 13 18 16 19 439 1 457 -9 9 -101 12 -354 12 -201 0 -353 4 -369 10 l-25 10 2 662 3 663 532 3 532 2 1 216 c0 119 3 220 5 225 3 4 -7 17 -21 28 l-27 21 -811 0 c-540 -1 -817 -4 -829 -11z"/>
<path d="M16604 18308 c0 -1496 3 -2145 10 -2150 6 -4 142 -8 303 -8 251 0 294 2 307 16 14 14 15 227 13 2133 -2 1778 -4 2121 -16 2134 -12 15 -47 17 -315 17 l-302 0 0 -2142z"/>
<path d="M19360 20441 l-25 -7 0 -2128 c0 -1170 3 -2133 7 -2139 5 -9 92 -13 297 -15 l290 -3 21 21 20 20 0 1324 c0 837 4 1327 10 1331 11 7 42 -51 71 -136 12 -35 29 -80 39 -99 10 -19 27 -62 38 -95 46 -137 115 -323 136 -365 13 -25 29 -67 36 -95 7 -27 23 -68 36 -90 12 -22 25 -51 29 -65 7 -27 78 -215 101 -268 8 -18 14 -38 14 -45 0 -7 6 -23 13 -37 8 -14 26 -61 42 -105 15 -44 40 -107 55 -140 15 -33 32 -82 39 -110 7 -27 18 -56 24 -64 12 -14 29 -56 53 -131 8 -25 25 -69 39 -98 14 -29 25 -60 25 -68 0 -9 20 -62 44 -118 24 -55 51 -123 59 -151 8 -27 25 -72 37 -100 12 -27 29 -72 37 -99 8 -26 24 -66 36 -89 11 -22 23 -56 26 -76 5 -26 12 -37 31 -42 46 -13 425 -10 438 3 9 9 12 497 12 2134 0 1167 -3 2129 -6 2138 -5 14 -40 16 -293 15 -157 -1 -296 -4 -309 -7 l-22 -7 -3 -1258 c-1 -793 -6 -1258 -12 -1260 -5 -1 -22 30 -38 68 -16 39 -42 99 -57 135 -16 36 -34 83 -40 105 -7 22 -25 66 -41 98 -15 32 -37 86 -49 122 -12 35 -27 68 -34 74 -8 7 -16 26 -20 43 -4 18 -16 53 -27 78 -30 67 -49 111 -78 183 -5 12 -12 31 -14 42 -8 30 -45 123 -100 245 -13 30 -27 68 -31 84 -4 16 -20 57 -35 90 -16 34 -41 95 -55 136 -15 41 -31 79 -36 85 -5 6 -23 51 -41 100 -17 50 -37 97 -44 105 -7 8 -16 30 -20 49 -6 30 -41 111 -64 151 -4 8 -19 48 -32 89 -12 40 -30 83 -39 95 -9 11 -21 42 -28 67 -6 26 -27 81 -47 122 -20 42 -39 92 -42 112 -4 27 -13 39 -30 46 -28 10 -405 11 -443 0z"/>
<path d="M25704 20403 c-26 -5 -37 -36 -20 -57 8 -11 35 -16 101 -18 l90 -3 1 -40 c1 -22 2 -149 4 -283 l2 -242 22 -5 c11 -3 35 -2 51 3 l30 8 3 265 c1 145 5 270 7 277 3 8 25 12 64 12 79 0 111 15 111 50 0 20 -6 29 -22 34 -25 6 -410 6 -444 -1z"/>
<path d="M26263 20403 c-26 -5 -37 -31 -22 -50 9 -10 9 -20 1 -36 -6 -12 -14 -98 -17 -192 -3 -93 -10 -197 -16 -230 -5 -33 -9 -72 -9 -87 0 -37 35 -60 75 -49 26 7 30 12 32 47 1 21 4 83 7 136 6 123 16 207 26 213 12 7 50 -62 50 -91 0 -13 4 -32 9 -42 6 -9 20 -51 32 -92 12 -41 25 -79 30 -84 5 -6 9 -22 9 -37 0 -30 23 -59 45 -59 30 0 66 25 71 49 3 14 11 37 19 51 7 14 22 52 34 85 57 168 87 243 96 246 11 4 22 -118 26 -288 2 -128 7 -138 71 -136 22 1 42 4 44 5 2 2 -1 62 -7 133 -6 72 -14 189 -18 261 -4 83 -12 138 -20 148 -7 9 -9 21 -5 28 5 7 9 25 10 40 1 25 -2 28 -43 34 -56 8 -90 -7 -99 -43 -3 -15 -17 -51 -29 -78 -13 -28 -26 -64 -30 -80 -4 -17 -13 -43 -20 -60 -8 -16 -24 -57 -36 -90 -37 -103 -40 -108 -48 -99 -5 5 -19 41 -31 79 -20 64 -39 113 -60 156 -5 9 -18 53 -31 99 -12 46 -30 91 -41 102 -17 17 -53 21 -105 11z"/>
<path d="M9599 15052 c-5 -13 -9 -2691 -9 -6256 0 -4970 3 -6236 13 -6249 11 -16 91 -17 1155 -18 869 0 1147 3 1158 12 12 10 14 481 14 3475 0 1951 4 3465 9 3468 10 6 83 -132 113 -214 11 -30 28 -64 37 -75 25 -31 41 -63 41 -83 0 -10 17 -52 39 -93 21 -41 44 -92 51 -114 7 -22 27 -65 45 -95 19 -30 37 -68 41 -85 4 -16 22 -56 40 -88 19 -32 34 -60 34 -63 0 -5 7 -21 94 -210 25 -55 46 -103 46 -107 0 -4 13 -28 29 -54 16 -27 39 -73 51 -103 11 -30 34 -82 50 -115 63 -134 130 -276 175 -375 26 -58 71 -154 100 -215 128 -265 145 -302 159 -342 8 -23 31 -65 50 -93 20 -29 36 -61 36 -72 0 -10 18 -54 39 -96 22 -42 42 -88 46 -102 4 -14 18 -43 31 -66 13 -23 32 -63 43 -90 10 -27 51 -117 91 -199 39 -83 85 -179 102 -215 70 -149 83 -177 105 -212 13 -21 23 -48 23 -61 0 -13 16 -47 35 -77 19 -30 42 -80 51 -110 10 -30 25 -64 35 -75 10 -12 27 -46 38 -76 10 -31 37 -88 60 -128 23 -40 41 -79 41 -87 0 -28 35 -14 48 19 26 62 31 73 106 226 42 85 74 157 71 159 -3 3 1 12 9 21 22 25 75 135 82 170 4 17 13 36 20 42 8 6 14 16 14 21 0 6 9 22 19 37 11 15 23 40 27 57 4 16 23 63 44 104 20 41 42 95 50 120 7 25 24 55 37 68 12 12 25 35 29 50 5 23 53 131 99 222 30 58 45 89 83 170 22 47 65 137 95 200 30 63 60 132 66 152 7 20 18 42 26 48 8 6 19 28 25 48 7 20 43 100 80 177 38 77 78 165 90 195 12 30 35 76 51 101 16 25 29 57 29 72 0 14 5 29 10 32 5 3 10 14 10 24 0 10 14 35 30 56 17 21 30 43 30 50 0 12 24 67 40 95 6 8 16 29 23 45 26 56 100 210 134 277 19 37 33 69 33 70 -2 6 12 43 25 68 69 130 152 312 160 350 4 19 20 50 36 68 16 18 29 40 29 50 0 9 14 41 30 71 17 30 30 60 30 67 0 7 12 35 27 61 54 98 60 109 83 168 30 74 71 138 82 127 4 -4 7 -1561 6 -3460 l-3 -3451 20 -5 c11 -3 537 -6 1168 -6 886 -1 1151 1 1162 10 13 11 15 794 15 6249 0 3430 -3 6246 -6 6259 l-6 22 -1173 0 c-1009 0 -1174 -2 -1185 -14 -6 -8 -20 -42 -30 -75 -10 -33 -27 -72 -39 -87 -12 -15 -21 -33 -21 -41 0 -7 -26 -66 -59 -131 -32 -64 -78 -162 -101 -217 -24 -55 -49 -107 -56 -115 -8 -9 -21 -40 -31 -70 -9 -30 -29 -74 -45 -97 -15 -23 -28 -51 -28 -62 0 -11 -4 -23 -10 -26 -5 -3 -14 -24 -20 -46 -6 -22 -20 -49 -31 -60 -10 -10 -19 -23 -19 -28 0 -5 -7 -22 -15 -37 -8 -16 -15 -36 -15 -45 0 -8 -11 -30 -25 -49 -14 -19 -25 -40 -25 -47 0 -7 -9 -27 -20 -45 -11 -18 -20 -39 -20 -46 0 -8 -8 -26 -18 -40 -10 -15 -29 -52 -41 -82 -13 -30 -32 -67 -42 -82 -11 -14 -19 -33 -19 -41 0 -8 -16 -43 -35 -76 -19 -34 -46 -94 -60 -134 -15 -39 -32 -79 -39 -87 -13 -16 -56 -102 -56 -113 0 -3 -36 -81 -80 -173 -44 -91 -80 -171 -80 -178 0 -7 -11 -27 -25 -46 -13 -18 -32 -56 -41 -84 -9 -28 -29 -69 -44 -91 -16 -23 -32 -59 -36 -80 -4 -22 -17 -53 -29 -70 -13 -16 -41 -70 -63 -120 -22 -49 -68 -150 -101 -224 -34 -74 -61 -138 -61 -144 0 -6 -7 -19 -17 -29 -9 -10 -29 -50 -45 -89 -16 -39 -37 -83 -48 -97 -11 -13 -20 -35 -20 -48 0 -12 -4 -26 -10 -29 -5 -3 -10 -15 -10 -26 0 -12 -13 -39 -29 -62 -16 -23 -35 -60 -42 -82 -8 -22 -22 -53 -31 -70 -10 -16 -30 -55 -44 -85 -30 -65 -64 -138 -132 -280 -28 -58 -56 -118 -61 -133 -14 -35 -33 -31 -46 11 -6 17 -20 41 -32 54 -12 13 -27 46 -34 73 -6 28 -27 75 -44 106 -18 31 -36 67 -40 80 -3 13 -26 65 -50 114 -37 75 -78 166 -144 315 -6 14 -15 32 -21 40 -6 8 -24 44 -40 80 -17 36 -34 72 -39 80 -6 8 -16 31 -23 50 -7 19 -27 62 -44 95 -17 33 -36 77 -43 97 -7 20 -22 52 -34 70 -13 18 -33 62 -46 98 -12 36 -30 76 -40 90 -9 14 -28 54 -41 89 -13 35 -31 71 -39 80 -9 9 -22 34 -30 56 -19 61 -118 275 -161 350 -9 17 -22 47 -29 67 -7 20 -19 42 -27 48 -7 7 -14 20 -14 29 0 9 -8 27 -17 41 -9 13 -18 32 -18 42 -1 10 -11 32 -23 48 -12 16 -22 33 -22 39 0 18 -42 106 -60 126 -10 11 -24 40 -30 65 -7 25 -29 79 -50 120 -21 41 -43 93 -50 115 -7 22 -20 49 -30 60 -10 11 -30 52 -45 90 -15 39 -43 100 -61 137 -19 37 -34 73 -34 79 0 6 -11 24 -25 41 -14 16 -25 36 -25 44 0 8 -22 61 -49 117 -26 56 -52 113 -56 127 -4 14 -15 34 -25 45 -10 11 -21 34 -25 52 -3 17 -24 61 -46 97 -21 36 -39 71 -39 79 0 18 -38 107 -55 127 -7 8 -24 44 -38 80 -14 36 -40 90 -56 120 -17 30 -38 76 -46 102 -9 25 -22 51 -29 57 -9 7 -373 11 -1171 13 l-1157 3 -9 -23z"/>
<path d="M22370 15070 c-1647 -3 -2996 -6 -2997 -8 -9 -8 -2 -12522 7 -12527 12 -8 6039 -7 6051 1 13 7 10 2293 -2 2316 -9 17 -111 18 -1860 20 l-1850 3 1 1364 c0 750 3 1367 6 1372 3 5 667 9 1567 9 l1562 0 18 21 c17 21 17 84 17 1165 -1 875 -4 1145 -13 1151 -7 5 -720 10 -1585 13 l-1573 5 1 1369 c0 753 3 1373 6 1377 3 5 810 9 1829 9 1227 0 1826 3 1830 10 4 6 6 528 7 1162 0 946 -3 1153 -14 1162 -9 8 -809 10 -3008 6z"/>
<path d="M5020 14950 c0 -5 5 -10 10 -10 6 0 10 5 10 10 0 6 -4 10 -10 10 -5 0 -10 -4 -10 -10z"/>
<path d="M5620 14930 c0 -5 5 -10 10 -10 6 0 10 5 10 10 0 6 -4 10 -10 10 -5 0 -10 -4 -10 -10z"/>
<path d="M6596 14440 c-26 -5 -55 -12 -65 -16 -9 -4 -38 -9 -66 -11 -29 -2 -61 -12 -77 -23 -15 -11 -43 -20 -62 -20 -19 0 -37 -4 -40 -9 -3 -4 -23 -11 -43 -14 -21 -4 -55 -16 -75 -26 -20 -11 -63 -29 -95 -40 -32 -11 -127 -56 -212 -101 -84 -44 -157 -80 -161 -80 -4 0 -24 -13 -45 -30 -21 -16 -43 -30 -50 -30 -7 0 -24 -9 -38 -20 -14 -11 -37 -20 -50 -20 -19 0 -26 -6 -29 -22 -2 -17 -9 -22 -25 -21 -17 2 -22 -3 -25 -24 -2 -18 -18 -38 -48 -61 -146 -109 -410 -334 -495 -423 -21 -22 -49 -45 -62 -50 -13 -5 -28 -20 -33 -34 -5 -14 -16 -25 -25 -25 -8 0 -15 -6 -15 -12 0 -7 -48 -67 -105 -133 -119 -135 -203 -241 -255 -319 -19 -29 -54 -81 -77 -114 -24 -34 -43 -65 -43 -69 0 -5 -12 -26 -26 -47 -48 -70 -104 -175 -104 -194 0 -11 -9 -31 -20 -45 -11 -14 -20 -32 -20 -41 0 -9 -9 -34 -20 -56 -11 -22 -20 -47 -20 -57 0 -10 -9 -31 -20 -48 -11 -16 -20 -44 -20 -62 0 -33 -14 -51 -25 -33 -3 5 -33 10 -66 10 -51 0 -59 -3 -59 -18 0 -11 9 -27 20 -37 11 -10 20 -22 20 -28 0 -5 10 -22 21 -39 20 -28 21 -37 14 -171 -7 -144 6 -332 26 -373 6 -11 9 -36 7 -55 -2 -27 -8 -35 -26 -37 -32 -5 -23 -22 24 -48 l39 -22 1 -79 c0 -46 -5 -84 -12 -93 -6 -8 -15 -25 -19 -38 -29 -97 -76 -171 -168 -264 -52 -54 -100 -98 -106 -98 -6 0 -25 -13 -43 -29 -18 -16 -49 -36 -68 -45 -19 -9 -69 -37 -110 -61 -41 -25 -82 -47 -90 -50 -8 -4 -32 -15 -52 -25 -20 -11 -43 -20 -50 -20 -19 0 -100 -60 -136 -101 -18 -20 -46 -70 -64 -110 -26 -61 -31 -87 -31 -143 1 -52 5 -71 17 -78 11 -6 16 -24 16 -57 0 -32 6 -56 19 -72 10 -13 21 -42 25 -64 6 -33 23 -55 92 -122 73 -72 84 -87 84 -117 0 -19 -5 -38 -11 -42 -6 -3 -55 -10 -108 -14 -118 -9 -164 -33 -199 -102 -29 -60 -31 -157 -2 -211 11 -20 20 -48 20 -61 0 -13 8 -34 18 -47 9 -13 26 -41 36 -61 10 -21 30 -45 42 -53 33 -21 34 -102 3 -131 -12 -10 -30 -36 -40 -56 -10 -20 -33 -57 -50 -82 -77 -115 -115 -336 -70 -410 10 -17 22 -50 26 -73 8 -50 16 -53 139 -53 78 0 91 -3 112 -22 28 -27 31 -53 7 -67 -17 -9 -17 -11 0 -23 17 -13 18 -29 15 -186 -2 -139 0 -173 11 -177 11 -4 10 -9 -4 -25 -17 -19 -17 -21 -2 -38 9 -10 24 -52 33 -93 17 -74 51 -154 102 -240 70 -118 143 -187 242 -228 30 -13 69 -31 85 -41 17 -9 66 -23 110 -29 44 -7 93 -14 109 -17 45 -7 332 25 416 46 41 10 113 23 160 29 47 6 124 16 172 23 93 13 113 8 113 -29 0 -9 6 -18 13 -20 8 -3 12 5 12 24 1 58 23 70 155 84 184 18 388 22 479 9 45 -7 104 -14 131 -16 104 -10 248 -68 364 -148 88 -61 119 -90 159 -154 17 -26 44 -67 61 -92 17 -25 51 -74 75 -110 25 -36 67 -110 95 -166 28 -55 59 -109 71 -119 11 -10 20 -28 20 -40 0 -12 8 -33 18 -46 10 -13 26 -49 36 -79 11 -30 25 -64 33 -75 7 -11 13 -30 13 -43 0 -13 6 -38 14 -55 14 -33 32 -127 41 -210 2 -27 8 -53 12 -60 4 -6 8 -20 9 -32 5 -35 22 -109 33 -140 11 -33 29 -173 38 -300 7 -97 8 -507 1 -590 -15 -192 -32 -318 -49 -375 -10 -36 -19 -76 -19 -88 0 -13 -4 -31 -9 -41 -5 -9 -16 -55 -24 -102 -9 -46 -22 -97 -31 -114 -9 -16 -16 -34 -16 -40 0 -5 -13 -50 -29 -100 -50 -153 -52 -158 -105 -277 -15 -31 -26 -63 -26 -70 0 -8 -4 -18 -9 -24 -5 -5 -14 -26 -21 -47 -6 -20 -27 -63 -46 -94 -19 -31 -34 -61 -34 -66 0 -4 -23 -50 -51 -100 -29 -51 -68 -123 -89 -162 -20 -38 -51 -92 -68 -119 -18 -27 -35 -59 -38 -70 -4 -12 -20 -36 -36 -54 -16 -19 -27 -39 -25 -45 2 -6 21 -15 43 -20 21 -4 55 -13 75 -19 28 -8 48 -7 87 4 51 16 203 100 223 124 6 8 15 14 20 14 13 0 205 132 259 178 25 21 64 51 88 66 39 25 245 215 368 339 35 36 166 188 232 269 60 74 185 258 228 334 20 35 40 66 44 69 13 8 178 344 186 378 3 16 19 53 35 84 16 31 29 61 29 67 0 6 14 46 30 88 17 42 37 103 46 135 9 32 25 90 35 128 44 155 72 292 89 435 5 36 15 103 24 150 8 47 19 111 25 143 5 31 13 61 16 67 3 5 10 46 16 92 5 46 15 121 21 168 23 172 2 541 -43 745 -6 28 -15 77 -19 110 -5 33 -16 83 -25 110 -16 49 -22 72 -46 170 -6 28 -20 70 -29 95 -10 25 -35 97 -55 160 -20 63 -47 137 -61 163 -13 27 -24 57 -24 66 0 10 -8 29 -18 42 -10 13 -26 44 -36 69 -28 69 -34 81 -66 134 -17 27 -28 56 -25 65 3 11 -5 27 -21 42 -14 13 -41 56 -59 94 -19 39 -46 85 -60 104 -14 19 -25 38 -25 43 0 12 -178 276 -248 368 -44 57 -65 94 -65 112 0 30 -7 34 -24 17 -7 -7 -17 -2 -32 19 -11 17 -21 35 -21 41 0 6 -4 11 -10 11 -5 0 -44 42 -86 93 -124 149 -132 159 -192 224 -67 73 -461 471 -652 658 -123 121 -202 206 -315 345 -91 112 -121 149 -145 185 -14 20 -37 52 -52 70 -16 18 -28 36 -28 40 0 4 -24 44 -54 89 -69 105 -81 125 -163 286 -39 74 -78 160 -88 190 -10 30 -28 78 -40 105 -46 101 -125 375 -139 480 -1 12 -5 25 -8 30 -3 6 -9 39 -13 75 -4 36 -11 70 -15 75 -12 16 -19 174 -8 181 14 9 54 -42 74 -96 10 -25 25 -56 34 -70 10 -14 21 -35 25 -48 10 -33 130 -266 170 -332 19 -30 43 -72 55 -93 12 -21 35 -57 53 -80 18 -24 48 -71 67 -106 19 -34 52 -83 73 -109 22 -25 50 -64 65 -86 14 -23 47 -67 74 -99 26 -32 48 -62 48 -66 0 -5 30 -42 68 -83 37 -41 74 -88 82 -104 8 -16 55 -70 103 -121 49 -50 98 -104 110 -120 12 -16 52 -59 90 -97 37 -38 67 -72 67 -76 0 -4 99 -107 221 -229 173 -174 218 -225 210 -235 -7 -9 -8 -22 -3 -37 5 -13 7 -29 5 -36 -5 -13 35 -38 45 -29 3 3 -4 16 -16 29 -21 23 -29 66 -15 81 4 4 46 -31 93 -77 151 -149 495 -452 615 -542 15 -11 49 -38 75 -60 162 -136 211 -176 265 -214 33 -23 85 -62 115 -87 30 -24 75 -58 100 -76 25 -17 78 -56 119 -87 126 -96 254 -190 296 -219 22 -14 69 -50 105 -78 36 -28 105 -77 154 -109 49 -32 118 -80 152 -107 35 -26 69 -48 75 -48 7 0 21 -7 31 -17 17 -15 18 -15 17 8 -1 28 1 26 -154 254 -66 98 -131 198 -145 224 -14 26 -55 92 -91 147 -37 54 -79 122 -94 149 -16 28 -43 73 -62 102 -18 28 -33 54 -33 57 0 4 -16 29 -35 56 -19 27 -35 53 -35 57 0 5 -18 35 -40 68 -22 33 -40 65 -40 71 0 6 -8 22 -19 35 -10 13 -22 35 -26 49 -4 14 -15 36 -25 50 -9 14 -39 66 -65 115 -26 50 -52 96 -58 104 -14 16 -34 51 -42 71 -10 23 -24 51 -45 90 -11 19 -27 55 -36 80 -10 25 -23 52 -30 60 -20 24 -247 488 -274 560 -8 19 -26 58 -41 85 -16 28 -39 80 -53 116 -14 36 -34 83 -45 103 -12 20 -21 44 -21 54 0 9 -16 53 -36 97 -20 44 -40 95 -46 114 -5 19 -25 68 -44 107 -19 40 -34 80 -34 87 0 8 -13 46 -30 85 -16 38 -40 107 -54 153 -13 46 -31 100 -39 119 -9 19 -27 78 -42 130 -14 52 -30 102 -34 110 -5 9 -20 63 -35 120 -32 129 -46 179 -56 205 -14 33 -49 206 -56 270 -4 33 -12 69 -19 80 -6 11 -15 52 -19 90 -4 39 -11 86 -16 105 -6 19 -15 98 -20 175 -6 77 -16 187 -22 245 -15 146 -15 409 0 505 7 44 15 107 17 140 9 134 46 340 69 390 8 17 19 57 26 90 7 33 25 88 41 123 16 35 29 71 29 81 0 25 -39 57 -80 66 -51 11 -437 15 -494 5z m-1401 -2460 c-5 -8 -11 -8 -17 -2 -6 6 -7 16 -3 22 5 8 11 8 17 2 6 -6 7 -16 3 -22z"/>
<path d="M3740 14310 c0 -5 5 -10 10 -10 6 0 10 5 10 10 0 6 -4 10 -10 10 -5 0 -10 -4 -10 -10z"/>
<path d="M2740 13190 c0 -5 5 -10 10 -10 6 0 10 5 10 10 0 6 -4 10 -10 10 -5 0 -10 -4 -10 -10z"/>
<path d="M2640 13010 c0 -5 5 -10 10 -10 6 0 10 5 10 10 0 6 -4 10 -10 10 -5 0 -10 -4 -10 -10z"/>
<path d="M2620 12970 c0 -5 5 -10 10 -10 6 0 10 5 10 10 0 6 -4 10 -10 10 -5 0 -10 -4 -10 -10z"/>
<path d="M2480 12520 c0 -11 5 -20 10 -20 6 0 10 9 10 20 0 11 -4 20 -10 20 -5 0 -10 -9 -10 -20z"/>
<path d="M3860 11610 c0 -5 5 -10 10 -10 6 0 10 5 10 10 0 6 -4 10 -10 10 -5 0 -10 -4 -10 -10z"/>
<path d="M3936 11424 c-9 -22 -8 -24 9 -24 8 0 15 9 15 20 0 24 -15 27 -24 4z"/>
<path d="M1940 11110 c0 -5 5 -10 10 -10 6 0 10 5 10 10 0 6 -4 10 -10 10 -5 0 -10 -4 -10 -10z"/>
<path d="M1500 9860 c0 -11 5 -20 10 -20 6 0 10 9 10 20 0 11 -4 20 -10 20 -5 0 -10 -9 -10 -20z"/>
<path d="M1440 9080 c0 -11 5 -20 10 -20 6 0 10 9 10 20 0 11 -4 20 -10 20 -5 0 -10 -9 -10 -20z"/>
<path d="M1460 8910 c0 -5 5 -10 10 -10 6 0 10 5 10 10 0 6 -4 10 -10 10 -5 0 -10 -4 -10 -10z"/>
<path d="M1780 8670 c0 -5 5 -10 10 -10 6 0 10 5 10 10 0 6 -4 10 -10 10 -5 0 -10 -4 -10 -10z"/>
<path d="M7426 8651 c-3 -5 16 -25 42 -44 l49 -35 12 20 c15 23 -1 48 -30 48 -10 0 -21 5 -24 10 -8 12 -42 13 -49 1z"/>
<path d="M2820 7650 c0 -5 9 -10 20 -10 11 0 20 5 20 10 0 6 -9 10 -20 10 -11 0 -20 -4 -20 -10z"/>
<path d="M5120 6360 c0 -11 5 -20 10 -20 6 0 10 9 10 20 0 11 -4 20 -10 20 -5 0 -10 -9 -10 -20z"/>
<path d="M5140 6290 c0 -16 5 -30 10 -30 6 0 10 14 10 30 0 17 -4 30 -10 30 -5 0 -10 -13 -10 -30z"/>
<path d="M5160 6190 c0 -5 5 -10 10 -10 6 0 10 5 10 10 0 6 -4 10 -10 10 -5 0 -10 -4 -10 -10z"/>
<path d="M6540 5890 c0 -5 5 -10 10 -10 6 0 10 5 10 10 0 6 -4 10 -10 10 -5 0 -10 -4 -10 -10z"/>
<path d="M6540 5836 c0 -14 5 -28 10 -31 6 -4 10 7 10 24 0 17 -4 31 -10 31 -5 0 -10 -11 -10 -24z"/>
<path d="M5220 5750 c0 -27 5 -50 10 -50 6 0 10 23 10 50 0 28 -4 50 -10 50 -5 0 -10 -22 -10 -50z"/>
<path d="M5120 4770 c0 -5 5 -10 10 -10 6 0 10 5 10 10 0 6 -4 10 -10 10 -5 0 -10 -4 -10 -10z"/>
<path d="M4980 4290 c0 -5 5 -10 10 -10 6 0 10 5 10 10 0 6 -4 10 -10 10 -5 0 -10 -4 -10 -10z"/>
<path d="M4860 4010 c0 -5 5 -10 10 -10 6 0 10 5 10 10 0 6 -4 10 -10 10 -5 0 -10 -4 -10 -10z"/>
<path d="M4640 3570 c0 -5 5 -10 10 -10 6 0 10 5 10 10 0 6 -4 10 -10 10 -5 0 -10 -4 -10 -10z"/>
<path d="M4620 3530 c0 -5 5 -10 10 -10 6 0 10 5 10 10 0 6 -4 10 -10 10 -5 0 -10 -4 -10 -10z"/>
<path d="M4760 3340 c0 -11 5 -20 10 -20 6 0 10 9 10 20 0 11 -4 20 -10 20 -5 0 -10 -9 -10 -20z"/>
<path d="M4380 3150 c0 -5 5 -10 10 -10 6 0 10 5 10 10 0 6 -4 10 -10 10 -5 0 -10 -4 -10 -10z"/>
<path d="M5940 2650 c0 -5 7 -10 15 -10 8 0 15 5 15 10 0 6 -7 10 -15 10 -8 0 -15 -4 -15 -10z"/>
</g>
</g>
</svg>
