<?xml version="1.0" standalone="no"?>
<!DOCTYPE svg PUBLIC "-//W3C//DTD SVG 1.1//EN"
 "http://www.w3.org/Graphics/SVG/1.1/DTD/svg11.dtd">
<!-- Created with svg_stack (http://github.com/astraw/svg_stack) -->
<svg xmlns:sodipodi="http://sodipodi.sourceforge.net/DTD/sodipodi-0.dtd" xmlns="http://www.w3.org/2000/svg" version="1.1" width="580.0" height="1400.0">
  <defs/>
  <g id="id0:id0" transform="matrix(1.25,0,0,1.25,0.0,0.0)"><g transform="translate(0.000000,1120.000000) scale(0.040000,-0.040000)" fill="#000000" stroke="none">
<path d="M4666 27991 c-3 -4 -32 -11 -65 -14 -128 -14 -433 -115 -636 -212 -570 -271 -945 -674 -1156 -1241 -64 -174 -86 -267 -124 -519 -32 -218 -35 -558 -6 -751 10 -66 21 -126 25 -133 15 -24 90 -63 179 -93 201 -67 443 -30 719 108 48 24 108 64 133 88 40 38 45 46 36 68 -18 48 -34 231 -27 318 31 403 182 696 483 935 145 115 286 192 503 273 98 37 143 45 250 46 115 1 184 -11 335 -57 186 -56 302 -111 810 -379 99 -53 227 -117 285 -143 379 -170 890 -269 1305 -251 186 8 394 37 428 59 21 14 27 31 42 129 10 66 18 171 18 253 1 126 -3 154 -33 275 -18 74 -38 141 -44 147 -9 10 -27 10 -86 -3 -131 -28 -434 -4 -675 53 -446 105 -689 214 -1250 563 -402 250 -549 329 -735 395 -122 43 -205 66 -263 72 -32 3 -60 10 -63 14 -3 5 -90 9 -194 9 -104 0 -191 -4 -194 -9z"/>
<path d="M9560 27420 c-179 -34 -473 -144 -486 -183 -3 -10 7 -42 25 -77 43 -83 78 -179 96 -265 12 -59 15 -149 15 -430 0 -304 2 -356 15 -361 13 -5 178 49 750 246 99 35 200 68 225 75 25 7 110 33 190 58 154 47 330 92 495 126 55 11 179 36 275 56 161 33 203 43 328 75 23 6 58 25 77 41 29 26 35 38 35 73 0 82 -82 119 -480 216 -395 96 -471 117 -675 187 -361 123 -430 144 -545 163 -137 24 -213 24 -340 0z"/>
<path d="M8675 27178 c-44 -4 -135 -15 -201 -23 -67 -8 -142 -15 -167 -15 -65 0 -72 -13 -48 -101 41 -160 71 -387 71 -543 0 -67 -9 -217 -20 -335 -22 -228 -21 -237 25 -227 11 3 49 10 85 15 36 6 106 18 155 26 50 8 146 20 215 26 70 6 135 17 147 25 48 30 103 297 103 496 0 190 -53 431 -134 611 l-26 57 -62 -1 c-35 -1 -99 -6 -143 -11z"/>
<path d="M4620 26100 c-18 -11 -16 -13 160 -124 595 -373 1153 -812 1601 -1258 354 -353 642 -730 811 -1063 105 -206 187 -441 225 -645 24 -132 24 -450 0 -610 -30 -191 -91 -429 -147 -570 -10 -25 -31 -76 -45 -115 -37 -97 -154 -333 -216 -435 -28 -47 -60 -100 -71 -119 -67 -117 -248 -361 -407 -551 -213 -254 -601 -626 -857 -823 l-69 -54 1 -44 c1 -24 18 -120 38 -214 20 -93 59 -285 87 -425 107 -547 107 -550 126 -550 9 0 73 25 142 56 340 152 673 336 1013 561 552 365 971 745 1357 1233 165 209 386 598 488 860 92 234 151 469 195 765 19 130 16 636 -5 775 -23 158 -66 376 -88 455 -62 220 -91 304 -155 453 -276 648 -763 1187 -1456 1610 -421 257 -1057 514 -1588 643 -352 85 -633 136 -980 178 -52 7 -106 14 -120 16 -14 3 -32 1 -40 -5z"/>
<path d="M3934 25139 c-73 -58 -263 -178 -363 -229 -99 -49 -203 -78 -341 -94 -115 -14 -144 -14 -243 -1 -145 19 -214 38 -309 85 -43 21 -80 35 -83 31 -2 -5 0 -55 6 -112 44 -467 54 -548 68 -562 17 -17 378 -22 501 -7 333 41 782 273 925 479 l28 42 -42 142 c-24 78 -50 167 -59 197 -10 32 -23 56 -33 58 -8 1 -33 -11 -55 -29z"/>
<path d="M4042 24452 c-133 -139 -315 -259 -497 -327 -127 -48 -379 -96 -582 -111 -50 -4 -97 -10 -103 -14 -9 -6 2 -73 40 -261 29 -140 61 -297 71 -349 10 -52 34 -171 54 -265 20 -93 49 -233 65 -310 134 -648 185 -897 205 -1000 13 -66 35 -174 49 -240 29 -132 73 -343 106 -505 11 -58 26 -117 31 -132 9 -22 4 -46 -29 -140 -62 -176 -76 -263 -76 -483 0 -189 12 -305 60 -575 8 -47 19 -111 24 -142 5 -31 13 -81 19 -110 6 -29 20 -107 31 -173 26 -163 59 -346 66 -367 4 -15 43 -224 47 -257 1 -8 -18 -28 -41 -44 -57 -39 -82 -80 -82 -138 0 -84 61 -144 159 -156 28 -3 55 -11 60 -17 7 -9 45 -227 112 -651 6 -38 14 -90 19 -115 5 -25 14 -79 20 -120 7 -41 18 -109 26 -150 7 -41 16 -97 20 -125 3 -27 13 -88 21 -135 35 -202 66 -389 98 -585 l33 -210 -1 -265 c-1 -276 6 -353 45 -485 25 -86 113 -271 163 -343 39 -57 37 -49 95 -362 35 -184 59 -309 124 -640 50 -253 154 -790 176 -905 23 -127 94 -494 121 -627 16 -81 29 -154 29 -162 0 -8 -32 -36 -71 -62 -128 -86 -187 -177 -159 -244 29 -69 133 -129 261 -149 35 -6 66 -14 71 -19 4 -4 12 -30 18 -57 5 -28 12 -60 16 -71 5 -17 -3 -27 -45 -52 -122 -76 -191 -164 -191 -247 0 -45 4 -55 32 -82 47 -45 81 -56 187 -57 84 -1 95 -4 102 -21 9 -20 112 -485 214 -960 14 -66 48 -219 75 -340 27 -121 66 -294 86 -385 19 -91 42 -194 50 -230 8 -36 25 -117 39 -180 13 -63 33 -158 45 -210 11 -52 34 -156 50 -230 16 -74 40 -184 54 -245 25 -107 54 -236 117 -528 17 -78 42 -194 55 -257 14 -63 36 -164 49 -225 13 -60 37 -171 55 -245 17 -74 42 -187 55 -250 14 -63 36 -167 50 -230 14 -63 37 -167 50 -230 22 -108 91 -422 134 -610 35 -152 79 -352 110 -500 17 -80 36 -163 41 -185 5 -22 21 -94 35 -160 14 -66 36 -169 49 -230 14 -60 38 -171 55 -245 16 -74 47 -216 70 -315 22 -99 43 -198 46 -220 4 -22 13 -62 20 -90 7 -27 18 -76 25 -107 l13 -57 -52 -58 c-73 -82 -113 -169 -119 -261 -4 -61 0 -87 23 -158 70 -216 212 -340 403 -352 64 -4 82 -2 82 8 0 12 -36 190 -100 495 -26 126 -70 327 -134 625 -30 140 -63 291 -72 335 -9 44 -20 98 -25 120 -4 22 -28 137 -53 255 -25 118 -55 260 -67 315 -32 145 -33 139 26 146 28 4 57 10 66 14 10 3 20 1 24 -5 6 -9 83 -380 144 -690 11 -52 39 -196 64 -320 25 -124 47 -236 50 -250 12 -65 121 -594 152 -745 20 -93 41 -197 47 -230 6 -33 14 -64 18 -68 4 -5 56 -1 116 8 115 18 149 22 384 54 80 11 152 22 161 26 26 10 40 -19 55 -122 8 -54 21 -132 28 -173 8 -41 22 -124 32 -185 9 -60 20 -122 25 -137 9 -31 -2 -44 -53 -59 -86 -26 -438 -122 -478 -131 -76 -16 -89 -26 -95 -77 -12 -92 -57 -285 -87 -370 -52 -149 -114 -258 -193 -337 -88 -89 -146 -118 -235 -118 -74 0 -143 30 -209 89 -21 19 -43 35 -48 35 -5 0 -77 -74 -161 -164 -173 -187 -409 -408 -518 -482 -144 -100 -417 -227 -661 -309 -59 -20 -83 -33 -83 -44 0 -28 68 -119 149 -200 123 -123 284 -223 481 -298 83 -32 275 -80 352 -89 32 -4 61 -11 64 -15 7 -12 721 -12 728 0 3 5 32 12 63 15 65 8 180 28 328 57 527 106 911 497 1128 1149 55 165 68 213 106 390 69 323 98 769 70 1098 l-11 132 26 31 c31 37 31 28 6 147 -49 239 -132 633 -165 782 -14 63 -34 158 -45 210 -11 52 -35 172 -55 265 -20 94 -47 224 -60 290 -13 66 -36 174 -50 240 -15 66 -39 181 -55 255 -16 74 -40 189 -55 255 -14 66 -39 188 -56 270 -38 191 -110 535 -154 735 -19 85 -46 211 -60 280 -14 69 -49 233 -76 365 -27 132 -58 281 -68 330 -44 209 -82 387 -106 495 -14 63 -39 180 -55 260 -16 80 -41 199 -55 265 -14 66 -36 174 -50 240 -24 118 -43 211 -105 495 -38 175 -66 309 -131 625 -67 324 -103 497 -134 640 -68 315 -127 596 -199 950 -9 44 -25 121 -36 170 -87 406 -131 611 -144 675 -8 41 -27 129 -41 195 -14 66 -39 188 -56 270 -17 83 -39 188 -49 235 -10 47 -30 141 -44 210 -15 69 -41 188 -57 265 -32 146 -116 551 -149 715 -11 52 -35 167 -54 255 -33 156 -82 383 -131 615 -14 63 -34 160 -45 215 -10 55 -30 152 -44 215 -13 63 -38 180 -55 260 -16 80 -39 188 -51 240 -19 87 -151 719 -221 1055 -16 77 -38 183 -49 235 -29 130 -69 319 -129 610 -75 365 -148 710 -181 860 -21 95 -61 286 -105 500 -50 242 -126 602 -160 760 -35 162 -122 578 -150 715 -20 97 -90 431 -115 545 -11 52 -34 158 -50 235 -16 77 -41 194 -55 260 -14 66 -35 167 -46 225 -11 58 -26 132 -34 165 -8 33 -21 96 -30 140 -20 100 -66 313 -100 470 -29 131 -61 285 -135 645 -43 211 -131 625 -181 850 -10 47 -30 148 -44 225 -42 223 -41 222 -113 147z m-113 -3621 c88 -33 133 -82 172 -187 30 -80 30 -192 -1 -256 -12 -26 -39 -65 -60 -87 -46 -47 -161 -105 -252 -127 -50 -12 -68 -21 -68 -33 0 -9 18 -107 41 -216 23 -110 49 -245 59 -300 11 -55 26 -134 35 -175 9 -41 20 -95 25 -120 4 -25 33 -169 65 -320 31 -151 57 -282 58 -290 1 -10 -17 -18 -68 -27 -83 -16 -90 -11 -100 70 -6 50 -27 183 -80 512 -13 83 -40 256 -61 385 -48 310 -46 301 -103 357 l-49 48 -8 90 c-15 150 -10 379 10 495 23 132 35 156 84 169 20 5 55 14 77 19 68 17 170 14 224 -7z m438 -1383 c6 -7 20 -60 32 -118 48 -236 185 -816 240 -1015 10 -38 34 -124 51 -190 46 -169 114 -374 144 -434 32 -61 56 -77 96 -61 41 17 65 47 100 124 l30 69 61 -6 c84 -9 152 -42 199 -94 36 -42 80 -134 80 -169 0 -8 13 -68 29 -132 39 -157 46 -208 31 -227 -9 -11 -34 -15 -89 -15 -83 -1 -96 -5 -250 -76 -85 -38 -117 -48 -176 -52 -89 -6 -165 15 -226 61 -75 58 -101 121 -153 370 -13 62 -40 182 -60 267 -19 85 -51 229 -71 320 -19 91 -42 192 -50 225 -8 33 -24 105 -35 160 -11 55 -45 208 -75 340 -119 520 -145 640 -141 652 7 18 219 18 233 1z m-311 -1009 c7 -12 43 -182 74 -350 11 -58 31 -157 44 -220 14 -63 48 -229 76 -369 28 -140 60 -295 70 -345 60 -283 152 -767 147 -778 -6 -16 -141 -51 -163 -43 -8 3 -14 14 -14 25 0 10 -9 65 -20 122 -90 470 -118 621 -130 694 -6 39 -17 102 -25 140 -19 91 -41 212 -66 355 -11 63 -26 149 -34 190 -77 384 -105 554 -96 563 5 5 30 12 57 16 70 12 72 12 80 0z m1172 -1722 c63 -67 27 -200 -105 -396 -65 -96 -123 -219 -129 -276 -5 -45 20 -225 56 -395 5 -25 19 -97 30 -160 12 -63 30 -158 41 -210 28 -142 52 -265 114 -585 31 -159 75 -378 97 -485 22 -107 48 -238 59 -290 47 -240 88 -432 93 -437 11 -11 -16 -33 -40 -33 -29 0 -29 1 -58 102 -50 174 -85 304 -94 343 -5 22 -20 76 -32 120 -12 44 -49 181 -82 305 -92 346 -102 383 -152 565 -25 94 -56 206 -67 250 -12 44 -32 118 -45 165 -12 47 -35 130 -49 185 -15 55 -40 145 -55 200 -35 122 -69 248 -115 425 -20 74 -47 176 -60 225 -14 50 -25 97 -25 106 0 36 363 256 474 288 61 18 121 13 144 -12z m-705 -585 c3 -4 35 -156 71 -337 36 -182 73 -363 81 -404 9 -41 14 -76 12 -78 -3 -2 -61 -5 -131 -8 l-127 -4 -25 41 c-15 23 -40 71 -56 107 -83 181 -103 288 -83 427 24 157 63 233 131 254 37 11 121 12 127 2z m240 -1177 c15 -71 62 -308 107 -525 44 -217 85 -420 90 -450 10 -55 41 -207 145 -715 31 -148 64 -315 75 -370 10 -55 58 -291 105 -525 48 -234 95 -468 105 -520 10 -52 39 -194 64 -315 71 -352 128 -634 142 -710 7 -38 29 -146 49 -240 20 -93 56 -271 80 -395 25 -124 59 -295 76 -380 121 -601 116 -571 98 -581 -25 -13 -85 -11 -97 4 -5 6 -13 35 -16 62 -4 28 -16 86 -26 130 -10 44 -51 226 -90 405 -39 179 -75 343 -80 365 -14 64 -78 365 -88 420 -6 28 -24 111 -40 185 -68 300 -229 1040 -275 1265 -16 76 -85 387 -148 670 -23 99 -49 223 -60 275 -10 52 -30 147 -44 210 -13 63 -38 176 -54 250 -25 119 -94 431 -136 620 -8 36 -28 128 -44 205 -80 376 -143 664 -152 698 -11 42 -6 57 20 57 9 0 48 11 87 24 38 13 72 21 75 17 4 -3 18 -64 32 -136z m1830 -5453 c85 -42 155 -112 197 -199 59 -120 52 -296 -16 -405 -85 -134 -198 -198 -352 -199 -72 0 -91 4 -151 31 -70 33 -189 138 -177 158 3 5 34 17 68 27 82 23 193 76 240 115 20 16 42 46 48 65 16 48 -10 91 -73 123 -40 21 -65 25 -182 30 -75 3 -138 9 -141 13 -10 17 60 131 105 171 44 39 119 82 171 99 14 5 63 7 110 6 74 -2 94 -6 153 -35z m-604 -651 c8 -14 63 -277 114 -541 7 -40 104 -510 137 -670 17 -80 39 -190 50 -245 11 -55 26 -134 35 -175 8 -41 27 -131 41 -200 14 -69 29 -149 35 -177 21 -118 29 -162 49 -253 11 -52 34 -160 50 -240 16 -80 50 -246 75 -369 26 -123 43 -227 38 -231 -4 -4 -34 -15 -66 -24 -62 -18 -87 -11 -87 23 0 9 -9 57 -19 106 -11 50 -31 144 -45 210 -81 388 -100 478 -226 1055 -16 74 -43 203 -59 285 -17 83 -42 204 -56 270 -15 66 -37 174 -51 240 -13 66 -44 210 -69 320 -83 372 -127 587 -120 593 5 5 109 32 157 41 4 0 12 -7 17 -18z m1305 -2761 c329 -113 369 -595 63 -770 -28 -16 -84 -37 -123 -46 -67 -16 -76 -16 -140 0 -38 10 -90 29 -115 43 -58 31 -147 119 -134 132 6 5 35 16 65 26 159 50 260 125 260 193 0 36 -28 80 -63 99 -26 15 -57 18 -179 18 -80 0 -150 3 -153 7 -9 9 46 128 81 173 36 48 113 103 176 125 72 26 187 26 262 0z m203 -4811 c136 -66 198 -273 129 -427 -36 -78 -86 -124 -185 -170 -95 -44 -161 -62 -229 -62 -194 0 -285 195 -186 399 50 100 208 243 302 271 51 16 124 11 169 -11z"/>
<path d="M3400 18028 c-446 -308 -787 -602 -1123 -966 -447 -483 -777 -935 -1104 -1512 -239 -419 -554 -1096 -705 -1515 -115 -318 -248 -736 -302 -950 -76 -301 -146 -636 -146 -695 0 -16 -4 -32 -10 -35 -5 -3 -10 -28 -10 -55 0 -42 4 -51 29 -69 38 -28 68 -27 76 2 4 12 13 36 20 52 6 17 21 55 32 85 30 82 153 389 174 435 10 22 43 101 74 175 67 159 47 115 238 520 420 893 885 1641 1356 2185 448 516 1041 1163 1420 1547 186 190 223 231 218 250 -4 20 -79 284 -141 498 -13 46 -27 76 -36 77 -8 1 -35 -12 -60 -29z"/>
<path d="M5813 17950 c-13 -5 -23 -13 -23 -17 0 -29 108 -738 141 -930 8 -46 31 -99 86 -199 144 -264 281 -413 381 -414 43 0 110 48 125 91 10 30 -24 60 -128 110 -76 36 -113 60 -139 91 -42 48 -50 84 -44 180 5 66 13 86 112 282 115 228 140 304 126 387 -18 100 -44 154 -112 226 -95 99 -206 152 -393 184 -60 10 -110 19 -110 18 0 0 -10 -4 -22 -9z"/>
<path d="M8950 15393 c-190 -22 -283 -38 -383 -67 -65 -19 -125 -40 -133 -47 -30 -24 -14 -36 69 -48 84 -12 118 -21 292 -73 197 -59 459 -174 614 -271 217 -135 447 -347 569 -525 155 -227 311 -619 388 -978 15 -65 28 -132 31 -149 43 -281 46 -313 46 -590 0 -238 -4 -303 -22 -430 -63 -424 -167 -758 -352 -1126 -123 -246 -323 -546 -527 -789 -268 -320 -684 -754 -972 -1011 -299 -269 -662 -516 -859 -586 -30 -11 -33 -15 -28 -45 4 -30 81 -371 232 -1038 25 -109 24 -109 146 -65 99 35 281 106 399 156 58 24 353 173 430 217 672 380 1224 867 1633 1440 196 274 440 737 591 1122 21 52 42 106 48 120 64 155 213 660 246 835 30 157 52 287 61 365 6 47 16 128 23 180 17 131 17 646 0 775 -47 358 -75 484 -156 728 -146 435 -364 786 -691 1112 -186 186 -316 296 -488 409 -315 208 -606 322 -916 361 -143 17 -245 24 -291 18z"/>
<path d="M8025 15087 c-16 -7 -45 -19 -64 -26 -245 -99 -518 -278 -693 -455 -262 -264 -373 -557 -339 -897 27 -265 159 -560 333 -744 174 -185 365 -265 623 -264 119 0 142 3 285 32 149 30 461 162 467 197 2 10 -25 28 -78 53 -315 149 -578 411 -711 708 -82 184 -119 398 -99 567 16 125 40 249 57 289 8 17 14 37 14 45 0 46 149 337 232 452 38 53 30 66 -27 43z"/>
<path d="M1138 13973 c-48 -64 -154 -230 -210 -328 -25 -44 -62 -109 -83 -145 -80 -138 -273 -535 -357 -735 -67 -158 -193 -533 -266 -790 -39 -138 -53 -191 -93 -370 -51 -224 -49 -210 -34 -308 17 -111 43 -249 55 -297 6 -19 19 -75 31 -125 28 -124 95 -346 161 -535 16 -47 34 -101 40 -120 14 -47 107 -292 156 -410 206 -497 404 -886 570 -1125 150 -214 430 -519 632 -685 392 -325 901 -609 1345 -751 l89 -29 36 23 c50 33 205 111 270 137 30 12 78 31 105 42 47 18 227 76 325 103 110 31 244 48 412 52 168 5 182 4 266 -20 159 -46 304 -141 407 -267 61 -74 141 -208 175 -292 13 -31 28 -59 34 -61 13 -4 415 11 494 19 46 5 52 8 52 28 0 22 -40 263 -80 481 -11 61 -34 189 -51 285 -17 96 -42 238 -55 315 -14 77 -28 163 -33 192 -11 77 -20 83 -115 83 -44 0 -121 4 -171 10 -49 5 -135 15 -190 21 -509 57 -1070 197 -1471 367 -504 215 -877 472 -1279 883 -272 278 -513 601 -674 904 -149 278 -323 875 -386 1325 -9 63 -20 142 -26 175 -5 33 -21 179 -34 325 -22 236 -25 315 -25 729 0 389 3 500 20 680 11 119 23 226 25 239 9 39 -28 26 -67 -25z"/>
<path d="M7205 11796 c-53 -20 -115 -89 -140 -157 -31 -84 -27 -312 9 -475 25 -118 79 -311 90 -321 2 -3 33 2 68 10 62 16 188 33 321 44 45 4 71 11 74 20 3 7 -42 84 -99 171 -57 86 -108 163 -112 170 -4 6 0 57 10 112 23 142 17 278 -16 345 -14 27 -37 58 -51 68 -35 25 -104 31 -154 13z"/>
<path d="M3995 7295 c-285 -73 -551 -225 -850 -486 -182 -158 -475 -474 -475 -511 0 -17 25 -6 113 49 323 200 703 383 937 452 328 96 508 70 581 -84 26 -54 29 -70 29 -166 0 -223 -70 -453 -209 -688 -91 -154 -267 -341 -465 -494 -20 -15 -36 -32 -36 -37 0 -11 173 76 249 126 273 180 429 295 576 424 193 171 274 269 353 425 86 171 107 257 106 440 -1 116 -5 150 -22 197 -63 174 -207 293 -427 353 -124 34 -326 34 -460 0z"/>
<path d="M3175 7071 c-168 -50 -564 -230 -746 -341 -535 -326 -836 -590 -1029 -905 -217 -353 -272 -790 -128 -1011 80 -121 214 -211 381 -254 151 -38 474 -36 618 5 118 34 195 58 209 66 8 5 51 25 95 45 162 72 395 235 592 413 135 121 373 385 373 413 0 23 -10 21 -120 -27 -186 -81 -582 -198 -755 -225 -98 -14 -260 -18 -336 -7 -137 20 -219 113 -219 249 0 383 351 896 989 1448 131 114 168 151 144 149 -4 0 -35 -8 -68 -18z"/>
<path d="M4806 6034 c-395 -463 -1040 -977 -1666 -1329 -120 -68 -454 -232 -523 -257 -33 -12 -61 -27 -64 -34 -2 -6 63 -95 145 -196 132 -164 253 -316 405 -511 118 -152 402 -534 484 -652 200 -288 409 -636 776 -1290 99 -176 186 -327 193 -335 23 -24 238 -14 534 26 295 40 467 113 723 306 99 75 278 250 301 296 16 32 16 39 1 125 -46 254 -77 416 -86 452 -5 22 -20 96 -34 165 -13 69 -35 175 -48 235 -67 298 -129 574 -137 605 -5 19 -28 112 -51 205 -47 198 -154 570 -205 717 -20 57 -42 121 -49 143 -7 22 -33 90 -58 150 -41 100 -78 184 -200 450 -44 96 -205 414 -282 555 -25 47 -60 113 -77 148 -18 34 -36 62 -42 62 -5 0 -23 -16 -40 -36z"/>
<path d="M7540 3053 c-81 -14 -289 -81 -386 -124 -136 -61 -442 -108 -769 -118 l-190 -6 2 -75 c4 -149 77 -435 133 -523 16 -25 42 -51 64 -61 34 -16 40 -16 103 0 56 13 282 116 318 144 22 17 285 148 375 187 150 64 334 118 523 152 58 11 97 26 97 39 0 4 -6 36 -14 72 -8 36 -25 117 -37 180 -12 63 -26 121 -32 128 -9 12 -128 15 -187 5z"/>
<path d="M6142 1956 c-64 -84 -148 -171 -257 -265 -201 -175 -358 -270 -542 -332 -162 -54 -417 -99 -560 -99 -52 0 -73 -4 -73 -12 0 -7 30 -62 66 -123 36 -60 100 -170 141 -243 42 -74 82 -136 89 -139 36 -14 441 118 617 201 265 125 537 364 721 635 31 45 56 87 56 94 0 22 -195 337 -209 337 -5 0 -27 -24 -49 -54z"/>
</g>
</g>
</svg>
