<?xml version="1.0" standalone="no"?>
<!DOCTYPE svg PUBLIC "-//W3C//DTD SVG 1.1//EN"
 "http://www.w3.org/Graphics/SVG/1.1/DTD/svg11.dtd">
<!-- Created with svg_stack (http://github.com/astraw/svg_stack) -->
<svg xmlns:sodipodi="http://sodipodi.sourceforge.net/DTD/sodipodi-0.dtd" xmlns="http://www.w3.org/2000/svg" version="1.1" width="712.0" height="960.0">
  <defs/>
  <g id="id0:id0" transform="matrix(1.25,0,0,1.25,0.0,0.0)"><g transform="translate(0.000000,768.000000) scale(0.040000,-0.040000)" fill="#000000" stroke="none">
<path d="M0 16640 l0 -2560 464 0 c359 0 466 3 473 13 6 6 11 71 12 142 1 72 6 134 11 139 5 4 19 -9 33 -31 63 -99 234 -236 362 -290 247 -103 535 -100 820 8 214 82 437 272 590 504 84 128 109 175 163 305 137 332 187 753 132 1115 -29 188 -58 295 -133 500 -24 68 -133 263 -190 343 -261 367 -689 579 -1083 535 -244 -28 -442 -120 -626 -291 -36 -34 -68 -59 -72 -55 -3 3 -6 496 -6 1095 l0 1088 -475 0 -475 0 0 -2560z m1602 -281 c296 -46 494 -331 488 -704 -3 -230 -69 -404 -202 -531 -209 -201 -552 -203 -762 -5 -81 77 -131 157 -167 270 -26 80 -32 118 -36 228 -7 156 6 253 49 365 75 197 228 337 406 373 85 17 136 18 224 4z"/>
<path d="M3912 19089 c-139 -18 -296 -145 -370 -299 -59 -122 -75 -194 -75 -330 0 -134 17 -210 71 -318 73 -146 179 -246 312 -293 88 -32 218 -31 305 1 165 62 292 209 351 406 37 125 37 281 1 404 -61 202 -185 349 -348 411 -56 21 -161 29 -247 18z"/>
<path d="M6115 17361 c-278 -37 -509 -154 -720 -365 -229 -230 -387 -539 -459 -902 -35 -178 -41 -242 -41 -444 0 -208 8 -296 41 -450 130 -610 480 -1018 981 -1145 86 -22 121 -25 283 -26 160 0 195 2 260 21 195 55 310 123 477 284 60 57 74 66 79 52 9 -22 9 -267 1 -326 -19 -143 -31 -198 -57 -276 -36 -107 -75 -168 -148 -235 -95 -87 -202 -122 -366 -120 -205 1 -343 80 -419 238 -26 55 -36 68 -54 67 -13 0 -251 -1 -529 -2 l-507 -2 7 -62 c20 -177 114 -407 231 -563 88 -118 103 -134 215 -224 224 -181 461 -288 768 -347 327 -62 748 -15 1029 116 310 144 529 399 656 765 53 155 79 268 117 522 21 138 24 378 25 1813 l0 1495 -468 5 c-258 3 -473 2 -479 -1 -6 -4 -11 -58 -12 -123 -1 -64 -7 -121 -12 -126 -7 -7 -35 17 -83 70 -103 114 -205 189 -315 231 -142 54 -352 79 -501 60z m532 -996 c179 -57 320 -218 379 -430 25 -92 33 -322 13 -420 -31 -157 -80 -257 -178 -358 -93 -96 -199 -144 -341 -154 -179 -12 -316 33 -429 141 -129 123 -191 268 -206 478 -26 348 130 643 387 737 75 28 82 29 195 30 83 1 116 -4 180 -24z"/>
<path d="M3530 17246 c-16 -16 -13 -3139 2 -3154 17 -17 919 -17 936 0 16 16 18 3143 2 3153 -17 11 -930 11 -940 1z"/>
<path d="M1375 12575 c-131 -17 -222 -45 -338 -101 -288 -142 -542 -446 -646 -775 -57 -180 -73 -331 -80 -749 l-6 -375 -40 -1 c-22 0 -91 -1 -152 -2 l-113 -2 0 -470 0 -469 153 -3 152 -3 5 -1095 c3 -602 8 -1100 13 -1107 5 -9 126 -12 467 -13 l459 -1 11 20 c7 14 10 355 10 1108 l-1 1088 323 6 c178 3 324 6 326 7 1 1 2 209 2 461 0 332 -3 462 -11 467 -7 4 -147 6 -313 5 -165 -1 -307 2 -314 7 -10 7 -12 72 -12 283 0 441 19 554 110 653 50 54 108 76 199 76 85 -1 136 -13 235 -56 43 -19 85 -33 93 -30 11 4 13 93 13 486 l0 480 -37 23 c-121 76 -317 108 -508 82z"/>
<path d="M8338 12585 c-2 -2 -30 -7 -62 -10 -360 -35 -714 -302 -906 -685 -62 -124 -88 -199 -116 -334 -29 -144 -34 -216 -41 -636 -3 -211 -9 -330 -16 -338 -8 -10 -45 -13 -152 -11 -78 1 -147 -1 -154 -5 -17 -11 -16 -912 2 -923 6 -4 81 -10 165 -13 l153 -5 -1 -1092 c0 -990 1 -1093 16 -1107 14 -15 65 -16 470 -16 l455 1 10 25 c6 16 9 437 9 1107 l0 1082 312 6 c172 3 314 6 316 7 1 1 2 209 2 461 0 307 -3 462 -10 466 -6 4 -147 7 -313 8 l-302 2 0 345 c1 303 3 354 19 420 46 183 126 250 295 250 77 -1 139 -17 258 -70 29 -13 56 -21 59 -17 5 5 9 869 5 964 -2 25 -138 84 -241 104 -58 11 -225 21 -232 14z"/>
<path d="M10255 12575 c-414 -57 -763 -347 -953 -792 -28 -66 -67 -226 -80 -328 -6 -44 -11 -87 -12 -95 -1 -8 -5 -188 -9 -400 l-6 -385 -154 0 c-144 0 -155 -1 -162 -20 -4 -11 -8 -219 -8 -461 -1 -354 2 -444 12 -452 8 -7 73 -13 163 -14 l149 -3 5 -1095 c3 -602 8 -1100 13 -1107 11 -18 922 -19 934 -1 4 7 10 506 13 1108 l5 1095 320 5 c176 3 321 7 323 8 1 1 2 150 2 331 0 211 4 332 10 336 6 3 13 -2 16 -12 4 -10 40 -87 80 -171 41 -84 74 -155 74 -158 0 -3 20 -47 44 -97 100 -208 186 -389 186 -393 0 -2 20 -45 44 -96 82 -174 128 -273 193 -413 113 -243 120 -258 173 -370 29 -60 95 -202 147 -315 52 -113 117 -252 145 -310 l50 -105 -17 -50 c-10 -27 -31 -79 -47 -115 -17 -36 -38 -83 -48 -105 -10 -22 -30 -67 -45 -100 -16 -33 -47 -103 -70 -155 -71 -162 -335 -752 -366 -817 -16 -34 -29 -64 -29 -67 0 -3 -23 -54 -51 -113 -28 -59 -59 -128 -69 -153 -10 -25 -45 -105 -79 -178 -34 -73 -61 -139 -61 -146 0 -8 7 -17 16 -20 9 -3 241 -6 517 -6 379 1 506 4 518 13 8 7 102 208 209 447 106 239 205 462 221 495 15 33 53 119 84 190 31 72 67 153 80 180 13 28 47 104 76 170 28 66 72 163 96 215 25 52 54 117 65 145 11 27 23 54 28 60 4 5 11 21 15 35 4 14 24 59 43 100 19 41 54 118 77 170 101 229 160 362 202 455 25 55 71 159 103 230 86 196 429 963 455 1020 13 28 47 104 76 170 28 66 64 145 79 177 16 31 31 67 35 80 4 12 27 64 50 113 22 50 50 110 60 135 10 25 25 52 32 61 7 8 13 28 13 42 l0 27 -527 2 c-340 2 -530 -1 -539 -7 -6 -5 -25 -41 -42 -80 -143 -338 -386 -908 -437 -1025 -34 -80 -75 -176 -90 -214 -15 -38 -31 -77 -35 -85 -5 -9 -22 -47 -40 -85 -18 -42 -34 -66 -40 -60 -5 5 -45 92 -90 194 -45 102 -94 214 -110 250 -16 36 -59 135 -96 220 -100 234 -234 541 -249 575 -14 30 -77 174 -110 253 -10 23 -24 47 -30 52 -8 7 -292 11 -826 13 l-814 2 1 375 c1 353 2 378 21 431 61 164 138 216 307 206 90 -5 183 -35 266 -84 16 -9 33 -13 37 -9 9 9 17 929 8 963 -8 35 -151 97 -265 115 -101 16 -187 17 -285 3z"/>
<path d="M2218 12523 c-17 -4 -18 -134 -18 -2539 0 -1701 3 -2542 10 -2554 l10 -19 466 0 465 0 9 25 c6 16 10 953 10 2548 0 2022 -3 2526 -13 2534 -12 11 -902 15 -939 5z"/>
<path d="M4193 10573 l-453 -3 -5 -23 c-6 -25 1 -1905 8 -2045 10 -203 81 -466 164 -612 78 -136 167 -240 268 -315 170 -125 344 -194 610 -242 144 -26 575 -26 725 0 248 43 441 119 600 237 186 139 318 347 386 608 21 80 35 170 54 337 8 67 9 2040 1 2048 -9 9 -926 11 -942 2 -5 -4 -9 -349 -9 -863 0 -867 -6 -1056 -36 -1160 -57 -198 -146 -281 -339 -314 -68 -12 -93 -12 -159 -1 -228 39 -325 160 -362 452 -12 94 -14 283 -13 1000 1 911 1 907 -36 898 -5 -1 -214 -3 -462 -4z"/>
<path d="M2156 7129 c-3 -17 -6 -512 -6 -1099 0 -586 -3 -1069 -6 -1073 -3 -3 -31 21 -62 54 -190 206 -530 329 -820 298 -382 -41 -682 -226 -911 -563 -39 -58 -71 -108 -71 -111 0 -4 -8 -19 -18 -33 -28 -41 -98 -207 -137 -326 -34 -103 -48 -170 -81 -371 -18 -107 -21 -426 -5 -530 66 -434 181 -712 412 -999 175 -218 468 -390 729 -428 243 -35 432 -7 627 91 130 65 267 183 312 269 23 43 31 10 31 -122 0 -89 4 -136 12 -144 9 -9 123 -12 454 -12 243 0 456 3 473 6 l31 6 0 2547 c0 1968 -3 2550 -12 2559 -9 9 -129 12 -479 12 l-466 0 -7 -31z m-466 -2819 c126 -16 217 -66 315 -171 115 -123 176 -294 181 -504 5 -220 -60 -409 -186 -540 -117 -120 -227 -165 -400 -165 -174 1 -272 41 -389 158 -135 135 -195 298 -195 527 0 236 61 402 199 541 88 89 156 128 253 146 32 6 73 14 92 18 19 4 42 6 50 3 8 -2 44 -8 80 -13z"/>
<path d="M4990 5310 c-19 -4 -38 -6 -43 -3 -4 2 -58 -3 -120 -12 -503 -73 -914 -358 -1145 -795 -84 -158 -151 -360 -173 -520 -6 -41 -14 -91 -17 -110 -12 -65 -7 -472 6 -550 37 -224 85 -377 173 -554 195 -390 545 -670 979 -780 160 -40 241 -50 435 -50 272 -1 483 48 723 167 429 212 722 611 821 1117 65 335 50 667 -46 990 -88 296 -278 584 -497 755 -244 189 -492 293 -801 334 -121 16 -256 21 -295 11z m264 -1020 c74 -25 105 -43 164 -92 98 -82 166 -191 206 -328 25 -87 46 -269 36 -315 -5 -22 -14 -74 -21 -115 -40 -248 -199 -439 -414 -495 -76 -19 -224 -19 -300 0 -187 48 -325 185 -397 395 l-32 95 -1 175 c0 201 14 270 81 400 78 151 241 276 390 300 80 12 224 2 288 -20z"/>
<path d="M8175 5314 c-218 -28 -318 -55 -450 -121 -289 -145 -508 -385 -661 -725 -89 -197 -140 -390 -170 -643 -15 -132 -16 -322 -1 -440 3 -22 8 -65 12 -95 20 -160 78 -372 141 -511 90 -199 169 -315 309 -455 204 -205 431 -312 725 -342 116 -12 123 -12 230 0 232 26 415 114 595 289 51 49 96 86 99 81 9 -15 7 -243 -4 -357 -12 -121 -47 -260 -88 -345 -16 -33 -55 -84 -97 -126 -55 -56 -84 -76 -137 -97 -177 -70 -338 -65 -489 15 -76 40 -124 92 -168 180 -25 50 -42 73 -54 72 -9 0 -244 -1 -521 -2 -425 -2 -505 -4 -509 -16 -8 -21 19 -180 44 -255 70 -211 205 -418 363 -553 79 -68 232 -172 316 -213 30 -15 66 -33 80 -40 50 -26 267 -94 370 -115 191 -41 485 -43 690 -5 666 121 1018 542 1143 1363 l20 137 4 1594 c3 1146 1 1597 -7 1606 -9 11 -100 14 -454 15 -250 0 -454 -3 -467 -9 l-25 -9 -2 -123 c-2 -68 -7 -128 -11 -132 -5 -5 -29 18 -54 50 -107 137 -230 223 -404 282 -34 12 -73 21 -87 21 -14 0 -35 4 -48 9 -27 10 -189 20 -233 15z m403 -984 c110 -26 174 -60 250 -134 95 -90 150 -186 193 -336 21 -72 18 -369 -4 -450 -89 -322 -342 -497 -653 -450 -263 39 -449 256 -483 563 -6 48 -12 91 -15 95 -6 11 21 204 40 277 48 189 197 361 359 415 129 43 198 47 313 20z"/>
<path d="M2770 1256 c-198 -44 -305 -194 -271 -380 23 -124 92 -189 295 -278 186 -81 231 -125 229 -224 -3 -123 -106 -206 -227 -183 -25 5 -57 16 -72 25 -37 25 -73 87 -81 139 -5 42 -7 45 -37 45 -27 0 -56 -6 -143 -25 -32 -7 -36 -34 -13 -100 39 -114 106 -195 204 -249 45 -24 57 -26 175 -26 117 0 129 2 179 27 192 97 272 321 185 515 -45 102 -142 173 -333 244 -154 58 -202 131 -144 220 27 40 84 64 155 64 l62 0 55 -55 c31 -30 59 -55 63 -55 18 0 139 87 139 100 -1 25 -68 108 -118 144 -50 37 -146 67 -209 65 -21 -1 -63 -6 -93 -13z"/>
<path d="M4139 1266 c-3 -3 -36 -10 -74 -16 -101 -16 -232 -87 -315 -170 -112 -111 -190 -300 -190 -457 0 -86 33 -212 78 -298 66 -125 213 -254 334 -294 21 -7 40 -17 43 -22 8 -12 348 -12 361 0 5 5 33 16 61 26 92 29 96 35 96 160 0 73 -3 110 -11 113 -6 2 -28 -10 -49 -26 -59 -47 -131 -79 -210 -95 -68 -14 -79 -14 -149 4 -141 35 -243 118 -307 248 l-32 66 0 120 c1 163 19 211 124 316 63 62 88 81 147 103 64 25 80 28 170 24 115 -5 188 -29 251 -83 23 -19 46 -35 52 -35 13 0 16 218 3 236 -11 16 -139 62 -206 74 -61 10 -169 14 -177 6z"/>
<path d="M203 1239 c-10 -10 -13 -142 -13 -588 0 -317 3 -593 6 -613 l7 -38 87 0 87 0 11 25 c8 17 12 100 12 245 0 121 4 221 9 224 8 5 242 -318 305 -419 10 -16 25 -34 32 -38 8 -4 14 -15 14 -22 0 -12 21 -15 115 -15 l115 0 -6 28 c-8 33 -7 32 -159 239 -99 135 -168 231 -179 251 -5 8 3 16 20 22 209 80 290 351 163 544 -77 115 -186 155 -444 163 -133 4 -173 2 -182 -8z m403 -220 c62 -29 84 -68 84 -145 0 -77 -26 -119 -93 -153 -55 -27 -179 -41 -192 -22 -7 12 -7 339 0 351 8 13 157 -9 201 -31z"/>
<path d="M1378 1243 c-17 -4 -18 -41 -18 -598 0 -430 3 -601 12 -620 l11 -25 317 0 c282 0 319 2 331 16 18 22 25 159 10 178 -9 11 -60 14 -234 15 -122 1 -225 5 -229 9 -4 4 -8 88 -8 187 l-2 180 234 6 c128 3 234 6 236 7 7 6 0 162 -8 167 -6 4 -110 7 -233 8 l-222 2 0 139 0 138 228 -1 228 0 9 25 c14 37 12 150 -2 162 -13 10 -624 15 -660 5z"/>
<path d="M4960 1240 l-25 -6 -3 -409 c-2 -294 0 -427 9 -470 30 -145 116 -262 239 -323 l65 -32 147 0 c84 0 149 4 153 10 3 5 23 14 44 20 53 14 159 114 193 181 59 118 61 137 66 592 2 292 0 422 -7 431 -12 14 -121 20 -173 10 l-28 -6 0 -387 c0 -237 -4 -410 -11 -446 -25 -138 -88 -202 -210 -215 -131 -14 -211 32 -261 150 l-23 55 -3 415 c-2 247 -7 419 -13 426 -10 12 -116 15 -159 4z"/>
<path d="M6242 1241 c-11 -7 -14 -117 -13 -600 0 -325 4 -603 7 -616 l6 -25 323 0 c235 0 326 3 331 12 13 21 14 177 1 185 -7 4 -115 10 -240 13 l-229 5 0 185 0 185 224 5 c122 3 228 8 234 12 12 8 13 153 1 164 -4 4 -101 6 -216 5 -119 -1 -218 2 -228 7 -16 9 -18 22 -13 138 l5 129 227 3 c264 3 249 -4 245 113 l-2 74 -30 6 c-45 10 -618 10 -633 0z"/>
</g>
</g>
</svg>
