<?xml version="1.0" standalone="no"?>
<!DOCTYPE svg PUBLIC "-//W3C//DTD SVG 1.1//EN"
 "http://www.w3.org/Graphics/SVG/1.1/DTD/svg11.dtd">
<!-- Created with svg_stack (http://github.com/astraw/svg_stack) -->
<svg xmlns:sodipodi="http://sodipodi.sourceforge.net/DTD/sodipodi-0.dtd" xmlns="http://www.w3.org/2000/svg" version="1.1" width="2140.0" height="1680.0">
  <defs/>
  <g id="id0:id0" transform="matrix(1.25,0,0,1.25,0.0,0.0)"><g transform="translate(0.000000,1344.000000) scale(0.040000,-0.040000)" fill="#000000" stroke="none">
<path d="M2138 31654 c-21 -19 -38 -40 -38 -46 0 -5 -9 -21 -20 -35 -11 -14 -20 -35 -20 -47 1 -39 39 -107 94 -164 30 -31 71 -88 91 -127 21 -38 54 -90 75 -115 43 -53 105 -148 114 -177 4 -11 28 -45 54 -76 26 -30 63 -84 82 -118 19 -35 49 -79 66 -99 17 -19 44 -57 59 -85 32 -56 81 -130 106 -160 9 -11 31 -47 49 -79 17 -33 42 -73 55 -90 59 -78 97 -136 125 -189 17 -32 53 -86 81 -120 28 -34 64 -89 81 -122 17 -33 50 -82 74 -109 23 -27 55 -72 70 -100 15 -28 49 -82 76 -121 27 -38 66 -96 86 -127 20 -31 60 -91 87 -133 28 -42 86 -131 129 -198 142 -219 151 -231 187 -277 20 -25 51 -73 69 -107 18 -34 48 -80 66 -102 19 -22 49 -64 67 -95 17 -30 95 -149 172 -264 140 -210 168 -254 194 -301 7 -15 28 -44 46 -66 17 -22 47 -67 65 -101 17 -33 56 -91 86 -128 30 -37 54 -71 54 -76 0 -12 43 -78 115 -177 33 -45 74 -104 90 -132 17 -28 84 -131 151 -228 66 -98 131 -199 143 -225 13 -25 41 -68 62 -95 21 -26 48 -65 60 -87 11 -21 51 -80 88 -130 36 -50 72 -104 79 -121 8 -16 42 -68 76 -115 35 -47 73 -104 85 -125 22 -41 42 -70 106 -160 20 -27 52 -77 71 -110 20 -33 53 -82 74 -110 21 -27 45 -64 53 -81 9 -17 43 -67 75 -111 33 -44 69 -100 81 -124 12 -24 44 -73 72 -109 28 -36 60 -82 71 -104 11 -21 50 -80 88 -131 38 -51 78 -112 90 -136 13 -24 36 -61 53 -83 55 -69 76 -100 117 -173 23 -40 46 -75 51 -79 11 -6 70 -99 86 -134 6 -14 33 -55 59 -92 27 -37 62 -88 78 -113 15 -25 47 -71 71 -103 23 -31 66 -95 94 -142 29 -47 81 -125 116 -175 36 -49 65 -94 65 -98 0 -5 28 -46 62 -90 33 -45 70 -102 81 -127 11 -25 36 -65 56 -90 20 -25 54 -74 76 -110 21 -36 56 -88 77 -116 21 -29 60 -86 86 -127 90 -143 167 -260 231 -346 35 -47 73 -106 85 -131 11 -25 47 -78 79 -119 32 -40 69 -96 83 -125 14 -28 45 -76 69 -106 23 -30 48 -66 55 -80 13 -23 58 -94 140 -216 19 -28 49 -74 67 -100 17 -27 44 -65 58 -84 14 -19 51 -75 82 -125 30 -49 65 -101 78 -115 13 -14 44 -60 69 -103 25 -43 64 -101 87 -129 22 -29 54 -79 71 -112 17 -34 44 -78 59 -98 16 -20 53 -73 82 -117 28 -45 62 -96 74 -113 12 -18 44 -66 70 -107 26 -40 63 -94 80 -120 68 -96 133 -194 133 -200 1 -3 21 -31 45 -61 25 -30 54 -75 65 -99 12 -24 52 -85 89 -135 38 -50 78 -111 88 -136 11 -25 50 -87 87 -138 36 -51 70 -102 75 -115 5 -12 39 -62 76 -111 37 -50 76 -108 87 -130 11 -21 38 -62 60 -90 23 -28 47 -64 54 -81 7 -16 43 -70 79 -120 37 -49 72 -101 78 -115 7 -14 36 -58 65 -98 30 -40 72 -106 94 -145 22 -40 64 -103 93 -142 29 -38 70 -101 90 -140 20 -38 52 -86 70 -105 18 -19 42 -53 54 -75 11 -22 39 -65 61 -95 22 -30 48 -68 57 -83 10 -16 50 -76 88 -134 39 -58 88 -134 110 -168 57 -89 96 -145 123 -179 13 -16 37 -55 53 -88 16 -32 51 -85 77 -117 26 -33 60 -85 76 -117 16 -33 51 -84 78 -114 26 -30 64 -86 84 -124 19 -38 48 -85 64 -103 17 -18 39 -50 50 -71 11 -20 35 -57 53 -82 49 -68 108 -155 167 -250 29 -47 66 -101 82 -120 15 -19 28 -39 28 -45 0 -13 70 -116 111 -163 17 -20 42 -59 54 -87 13 -28 44 -77 70 -109 27 -32 60 -79 74 -105 14 -26 50 -80 79 -121 29 -41 114 -167 187 -280 74 -113 146 -221 160 -241 14 -19 37 -57 49 -85 13 -27 47 -78 76 -113 29 -35 58 -78 66 -95 13 -31 22 -44 100 -147 22 -30 55 -81 73 -114 19 -33 46 -76 62 -96 45 -57 231 -335 262 -391 15 -28 41 -69 57 -92 16 -22 42 -63 57 -89 16 -26 60 -92 99 -146 40 -54 75 -108 79 -120 3 -12 28 -48 53 -80 26 -32 63 -86 82 -120 19 -34 66 -103 103 -154 38 -50 77 -108 88 -128 10 -20 45 -74 78 -120 33 -46 68 -100 78 -119 10 -19 43 -71 74 -115 30 -44 61 -94 68 -112 7 -18 20 -38 29 -45 8 -7 41 -53 73 -103 68 -106 109 -165 166 -243 24 -31 43 -62 43 -68 0 -6 37 -63 83 -127 45 -64 97 -140 115 -169 18 -29 51 -78 72 -108 22 -30 40 -59 40 -65 0 -5 18 -35 40 -65 49 -68 45 -62 209 -308 75 -112 158 -236 184 -275 27 -40 56 -85 64 -101 8 -16 35 -54 61 -85 25 -31 58 -83 73 -116 15 -33 39 -71 54 -85 14 -13 36 -40 47 -60 32 -54 61 -100 104 -163 21 -32 62 -93 89 -136 94 -148 214 -326 253 -376 22 -27 52 -74 67 -104 15 -30 49 -81 76 -114 27 -32 63 -86 80 -119 17 -33 50 -84 73 -113 24 -29 57 -80 74 -112 16 -33 66 -110 111 -171 44 -62 90 -129 101 -150 12 -20 36 -58 53 -84 18 -25 50 -75 72 -109 21 -35 53 -79 71 -99 17 -19 48 -66 69 -105 21 -38 56 -90 78 -115 22 -25 46 -60 54 -79 18 -41 59 -108 89 -141 12 -14 52 -74 88 -135 37 -60 75 -119 84 -130 10 -11 38 -51 62 -90 23 -38 56 -88 71 -110 54 -75 121 -178 127 -194 3 -9 24 -38 47 -66 23 -27 51 -70 63 -95 12 -25 46 -76 75 -115 29 -38 71 -101 92 -139 21 -38 51 -84 66 -101 15 -17 51 -71 79 -120 28 -49 80 -128 114 -175 35 -47 71 -101 81 -120 10 -19 33 -53 50 -75 18 -22 43 -58 54 -80 12 -22 42 -67 66 -100 25 -33 58 -82 74 -110 32 -54 79 -123 125 -183 15 -20 39 -57 52 -82 23 -43 61 -100 123 -185 16 -22 41 -65 57 -95 15 -30 49 -81 74 -112 25 -31 62 -87 84 -124 21 -37 56 -90 78 -118 22 -28 77 -109 124 -181 93 -144 154 -235 199 -298 17 -23 48 -73 70 -112 21 -38 56 -92 78 -120 22 -27 46 -63 54 -80 19 -41 59 -102 113 -172 25 -32 56 -78 69 -103 13 -25 37 -63 55 -84 17 -22 42 -59 56 -82 14 -23 88 -135 165 -249 134 -197 183 -273 221 -340 9 -16 32 -47 50 -67 19 -21 47 -66 62 -101 16 -35 37 -67 46 -70 9 -4 16 -12 16 -18 0 -6 13 -27 30 -45 16 -19 40 -54 51 -77 12 -23 54 -88 93 -144 123 -177 228 -339 276 -426 11 -21 31 -42 42 -46 12 -4 27 -23 33 -42 l12 -34 63 0 64 0 9 35 c5 19 14 42 21 50 7 8 29 45 49 82 20 36 54 88 76 115 21 27 46 64 56 83 9 18 45 74 80 124 34 50 83 126 108 168 26 43 65 101 87 130 22 29 54 80 71 113 18 33 44 74 59 90 14 17 48 65 74 107 26 43 63 96 82 120 20 23 46 63 60 89 13 27 52 86 86 132 35 47 76 106 91 133 36 64 64 105 105 156 19 23 47 69 64 102 17 34 49 86 72 116 23 30 54 78 70 105 16 28 50 77 76 110 25 33 58 83 73 110 15 28 52 83 82 124 30 41 55 78 55 84 0 6 19 35 42 66 71 93 85 113 122 176 19 33 58 92 85 130 28 39 69 104 92 145 23 41 61 98 84 125 24 28 59 82 80 120 20 39 47 81 59 95 13 14 33 43 46 65 13 22 42 65 64 95 36 49 113 165 231 349 22 34 73 108 113 164 41 56 84 125 96 152 13 28 45 79 72 115 27 35 60 83 74 106 37 60 80 124 116 169 17 22 43 63 58 90 14 28 66 107 114 176 48 69 106 153 130 187 23 34 46 72 52 86 5 13 37 62 71 108 34 46 68 98 76 117 8 19 41 69 74 113 32 43 68 95 78 116 11 20 45 73 76 117 86 124 240 357 255 385 7 14 30 46 51 72 22 26 62 87 90 135 28 48 63 102 79 118 15 17 44 62 64 100 20 39 57 98 84 132 49 64 208 302 251 376 14 23 47 71 73 107 26 36 60 87 75 113 16 27 45 69 65 95 20 25 58 83 83 128 26 46 53 88 61 95 8 6 40 55 71 108 31 53 84 132 116 176 33 44 70 100 83 125 14 25 45 72 69 105 24 33 57 82 72 108 15 26 53 83 84 125 31 43 66 97 78 120 12 24 37 60 55 80 19 20 56 75 84 122 28 47 65 105 84 130 18 25 47 68 63 97 17 29 66 105 111 170 45 65 89 133 98 151 9 18 32 50 50 70 18 20 50 68 71 105 20 38 54 89 74 115 20 26 56 79 81 117 25 39 64 96 87 129 24 32 43 62 43 66 0 5 21 39 47 77 26 37 74 110 108 160 33 51 70 107 82 125 12 18 38 56 57 84 19 28 47 73 62 100 15 27 45 69 66 94 22 24 56 74 76 110 19 36 56 91 80 122 24 31 63 88 86 127 22 38 66 107 96 153 31 45 69 104 85 129 107 167 174 267 201 298 17 20 46 63 64 96 37 67 72 117 108 157 13 14 34 47 46 72 11 25 49 85 84 133 87 121 203 299 248 379 21 37 50 81 65 98 14 17 48 67 75 111 26 44 68 104 91 133 24 29 43 58 43 64 0 13 61 103 121 181 21 26 41 57 45 69 7 22 53 91 109 163 18 22 46 67 64 100 18 33 59 96 91 140 31 44 67 100 80 124 12 25 43 73 69 107 25 34 57 81 71 104 14 24 41 63 62 88 20 24 49 67 64 96 15 28 51 83 79 121 29 39 62 89 74 113 12 24 36 63 54 86 86 116 126 175 146 216 12 25 42 70 67 100 24 30 57 80 73 110 16 30 52 86 80 123 28 38 60 85 70 105 11 21 38 62 61 92 23 30 59 84 81 120 22 36 60 92 84 125 24 33 60 87 79 120 20 33 51 83 71 110 49 69 75 109 120 185 21 36 55 85 76 110 20 25 46 65 58 90 12 25 38 68 58 95 21 28 97 140 170 250 73 110 142 214 153 230 12 17 49 73 83 125 35 52 77 115 96 140 18 25 43 65 55 91 12 25 47 79 78 120 30 41 67 97 82 124 16 27 37 61 48 75 51 66 101 138 118 170 10 19 37 62 59 95 23 33 66 96 96 140 29 44 74 109 99 145 25 36 46 70 46 76 0 7 26 45 57 85 31 41 68 97 82 124 29 56 71 120 114 170 15 18 34 50 43 70 8 21 36 66 62 100 26 34 62 85 80 111 18 27 61 92 97 144 36 52 74 113 86 135 12 22 40 65 63 95 23 30 59 84 81 120 21 36 56 86 78 112 21 26 52 76 69 110 16 34 44 79 61 99 18 21 57 77 87 126 30 48 72 113 95 143 22 30 54 77 70 103 17 26 44 69 62 95 89 130 122 180 136 207 8 17 25 39 37 50 12 11 47 62 77 115 31 52 71 113 90 134 18 22 33 44 33 50 0 12 71 123 120 188 19 25 49 69 65 98 17 28 60 93 97 143 37 51 77 111 88 133 11 23 42 69 69 102 27 33 62 86 77 117 16 31 46 77 67 103 21 25 47 62 58 82 10 19 41 67 69 105 27 39 60 88 71 110 12 22 49 80 83 129 34 48 82 122 108 165 25 42 64 98 85 124 21 27 54 77 73 112 19 35 51 83 70 106 33 42 178 254 210 308 29 48 169 266 188 291 11 14 27 41 37 60 9 19 27 46 40 60 12 14 48 68 80 120 31 52 69 109 84 125 32 35 71 95 95 145 9 20 34 58 57 85 22 27 59 80 81 119 23 38 60 95 83 126 23 30 59 84 81 120 21 36 52 83 67 105 44 62 167 249 219 332 26 41 67 100 90 131 24 31 52 75 64 98 20 42 65 106 115 167 15 18 36 50 48 72 11 22 48 78 80 125 33 47 72 105 86 130 14 25 38 63 53 86 15 22 46 70 69 105 23 35 63 95 90 132 26 38 57 85 67 105 11 21 42 66 68 102 27 36 61 84 76 108 46 73 120 185 154 234 18 26 51 76 73 110 21 35 58 88 81 118 23 30 51 77 63 104 12 27 36 68 55 90 18 23 43 59 55 81 12 22 41 67 66 100 25 33 61 87 82 120 21 33 65 99 98 148 33 48 80 119 105 158 25 39 61 91 82 116 20 25 44 62 55 82 24 48 110 178 123 186 5 3 23 32 39 65 16 32 52 87 79 123 28 35 62 87 76 114 13 28 36 63 49 79 13 16 43 61 67 99 23 39 57 88 74 109 16 22 37 51 46 66 40 69 99 158 142 214 26 33 61 86 77 117 17 31 56 92 89 135 32 44 68 99 80 124 12 25 41 70 64 100 23 30 54 77 70 104 30 51 144 206 195 265 20 23 40 35 68 40 l40 6 3 52 c3 48 1 53 -35 87 -31 29 -45 36 -80 36 -32 0 -46 5 -55 20 l-13 20 -18910 0 -18910 0 -37 -36z m3366 -372 c16 -15 54 -17 374 -14 212 2 361 7 368 13 17 14 414 13 428 -1 15 -15 3438 -14 3453 1 7 7 30 14 52 16 35 3 47 -1 82 -29 39 -31 89 -102 89 -126 0 -6 15 -44 34 -84 46 -96 63 -145 90 -253 13 -50 41 -123 64 -165 22 -41 52 -106 67 -144 23 -64 25 -81 23 -195 l-3 -126 -94 2 c-52 2 -120 7 -150 13 -31 6 -101 15 -156 20 -55 6 -131 19 -170 29 -38 11 -83 23 -99 26 -16 3 -42 19 -58 36 l-30 29 -121 0 c-68 0 -160 7 -207 16 -47 8 -119 19 -160 24 -41 5 -95 14 -120 20 -25 7 -62 14 -83 17 -23 3 -41 13 -48 24 -7 15 -21 19 -59 19 -38 0 -52 5 -63 20 -13 19 -30 21 -224 30 -181 8 -224 13 -328 40 -65 16 -134 30 -152 30 -24 0 -37 7 -49 25 -13 20 -21 23 -45 18 -25 -5 -31 -2 -36 16 -4 14 -13 21 -32 21 -170 3 -422 22 -501 39 -159 35 -174 39 -192 61 -9 11 -28 20 -42 20 -15 0 -30 8 -36 20 -10 18 -21 20 -123 20 -140 0 -332 17 -412 35 -33 8 -74 15 -91 15 -17 0 -37 7 -44 15 -7 8 -27 15 -46 15 -23 0 -37 6 -44 20 -7 13 -21 20 -40 20 -19 0 -34 8 -45 23 l-15 22 -218 1 c-168 1 -228 5 -267 18 -27 8 -76 18 -107 22 -32 4 -63 13 -69 20 -7 9 -33 14 -72 14 -47 0 -65 4 -82 20 -19 18 -42 22 -151 30 -149 10 -273 25 -394 47 -47 9 -105 19 -130 22 l-45 6 0 45 0 45 32 3 c17 2 36 9 42 16 9 10 60 14 224 14 183 0 215 -2 231 -16z m11089 -1 c7 -5 165 -11 382 -13 339 -3 372 -2 396 14 22 16 52 18 250 17 172 -1 227 -4 239 -14 8 -7 31 -15 50 -17 l35 -3 0 -45 0 -45 -40 -7 c-22 -3 -67 -14 -100 -22 -33 -9 -82 -16 -110 -16 -27 0 -86 -7 -130 -15 -44 -9 -125 -18 -180 -21 -66 -5 -106 -12 -117 -21 -10 -9 -45 -17 -85 -19 -37 -3 -74 -11 -83 -18 -8 -7 -24 -13 -35 -14 -26 -1 -135 -19 -205 -33 -30 -6 -151 -12 -267 -13 l-213 -1 -43 -43 c-37 -36 -49 -42 -86 -42 -23 0 -51 -5 -62 -11 -57 -30 -383 -69 -584 -69 l-151 0 -38 -39 c-33 -33 -46 -40 -90 -44 -28 -2 -95 -16 -148 -30 -110 -29 -277 -47 -450 -47 -102 0 -120 -2 -135 -19 -12 -13 -32 -19 -63 -18 -34 0 -47 -5 -58 -22 -9 -13 -25 -21 -43 -21 -16 0 -37 -4 -47 -10 -43 -25 -245 -52 -447 -61 -194 -8 -211 -10 -224 -29 -10 -15 -25 -20 -57 -20 -32 0 -49 -6 -61 -20 -10 -11 -29 -20 -43 -20 -14 0 -43 -7 -65 -14 -22 -8 -71 -17 -110 -21 -38 -4 -106 -13 -150 -20 -44 -8 -149 -17 -233 -21 -133 -6 -154 -9 -162 -25 -7 -13 -21 -18 -50 -17 -23 0 -52 -7 -67 -18 -16 -10 -35 -17 -43 -16 -9 1 -41 -6 -73 -17 -49 -17 -292 -48 -322 -41 -5 1 -60 4 -122 7 -105 4 -112 3 -123 -16 -9 -19 -20 -21 -92 -21 l-81 0 -43 -40 c-24 -22 -52 -40 -61 -40 -10 0 -38 -8 -63 -17 -34 -12 -93 -17 -237 -21 -246 -6 -255 -4 -287 55 -14 25 -26 57 -26 71 0 13 -9 43 -19 66 -40 84 -111 255 -111 268 0 18 -45 160 -58 183 -39 71 -89 198 -102 260 -6 28 -22 68 -35 90 -77 126 -91 182 -53 209 20 14 298 16 2748 16 2126 1 2729 3 2741 13 19 15 324 13 342 -2z m7717 0 c22 -14 64 -16 375 -13 203 2 355 8 362 14 16 13 333 12 346 -1 16 -16 6159 -15 6174 0 14 14 131 21 139 8 3 -5 20 -16 39 -23 24 -10 35 -23 40 -46 8 -36 -1 -94 -20 -130 -7 -14 -22 -45 -33 -70 -11 -25 -36 -81 -55 -125 -19 -44 -50 -123 -67 -175 -18 -52 -41 -112 -51 -132 -11 -21 -19 -43 -19 -50 0 -7 -16 -44 -36 -83 -19 -38 -39 -88 -44 -110 -5 -22 -25 -86 -46 -143 -33 -93 -41 -106 -87 -145 l-51 -42 -113 -3 -113 -4 -28 -28 c-35 -34 -103 -50 -220 -50 -117 0 -184 18 -192 51 l-6 24 -92 3 c-77 2 -93 6 -102 21 -9 17 -28 19 -242 23 -179 4 -245 9 -283 21 -27 9 -59 17 -71 17 -11 0 -29 9 -39 20 -10 11 -31 20 -46 20 -16 0 -34 8 -41 19 -13 18 -33 21 -209 30 -106 5 -207 14 -222 20 -16 6 -56 11 -90 11 -35 0 -87 7 -117 15 -30 9 -73 18 -95 22 -22 3 -51 14 -64 24 -15 12 -40 19 -67 19 -31 0 -47 5 -56 19 -11 15 -29 21 -76 24 -38 3 -70 11 -81 21 -22 20 -118 22 -146 3 -17 -12 -42 -11 -155 4 -74 10 -155 23 -180 29 -25 7 -69 17 -98 24 -29 6 -57 18 -62 26 -6 9 -21 14 -39 12 -22 -3 -33 2 -41 17 -10 19 -20 21 -108 21 -143 1 -394 26 -497 51 -49 12 -109 24 -133 26 -30 4 -47 12 -58 28 -11 16 -21 21 -41 17 -19 -3 -30 1 -42 17 -16 20 -28 22 -241 31 -187 8 -243 14 -330 35 -58 15 -121 29 -140 32 -22 3 -50 19 -75 43 l-40 38 -220 6 c-121 3 -247 10 -280 15 -109 18 -184 36 -197 49 -7 7 -39 12 -78 12 l-66 0 -38 39 -38 39 -226 5 c-159 3 -244 9 -282 20 -30 8 -80 18 -110 22 -30 4 -65 13 -77 21 -12 8 -60 17 -108 20 -52 4 -89 12 -96 20 -7 9 -34 14 -74 14 -34 0 -114 9 -176 20 -63 11 -134 20 -159 20 -25 0 -76 7 -115 16 -38 9 -97 19 -130 22 l-60 7 0 45 0 45 52 3 c29 2 57 9 63 17 19 23 505 20 540 -4z m8160 4 c11 -13 204 -15 1629 -15 1134 0 1620 3 1628 11 13 13 250 14 266 1 7 -6 167 -11 388 -13 338 -4 379 -2 395 12 16 14 49 17 229 17 159 0 214 -3 225 -13 8 -7 29 -15 45 -17 28 -3 30 -5 30 -48 l0 -45 -40 -7 c-22 -3 -78 -13 -125 -21 -123 -22 -301 -45 -405 -53 -59 -4 -96 -11 -107 -21 -10 -9 -32 -17 -50 -18 -18 -1 -49 -9 -68 -18 -19 -9 -66 -20 -105 -26 -38 -5 -101 -17 -140 -25 -48 -11 -124 -16 -241 -16 l-171 0 -43 -40 c-34 -31 -51 -40 -79 -40 -20 0 -48 -6 -62 -14 -14 -7 -52 -17 -84 -21 -32 -4 -70 -12 -84 -17 -14 -6 -129 -14 -255 -19 l-229 -7 -41 -41 c-33 -32 -49 -41 -77 -41 -19 0 -39 -4 -45 -9 -5 -4 -49 -18 -99 -31 -67 -16 -139 -24 -279 -30 -170 -8 -190 -11 -210 -29 -18 -17 -35 -21 -84 -21 -51 0 -63 -3 -72 -20 -6 -12 -21 -20 -36 -20 -14 0 -38 -6 -52 -14 -55 -30 -170 -48 -356 -56 -173 -8 -189 -11 -203 -29 -10 -15 -25 -21 -54 -21 -27 0 -45 -6 -56 -20 -10 -11 -28 -20 -40 -20 -13 0 -56 -9 -96 -20 -39 -10 -115 -25 -167 -33 -80 -12 -99 -12 -117 -1 -32 20 -122 18 -144 -2 -10 -9 -36 -17 -58 -18 -27 -2 -49 -10 -65 -25 -16 -15 -31 -21 -43 -17 -13 4 -26 -1 -38 -14 -10 -11 -26 -20 -36 -20 -11 0 -62 -11 -115 -25 -53 -14 -122 -25 -153 -25 -54 0 -203 -33 -286 -64 -59 -22 -128 -20 -149 3 -30 33 -4 150 47 215 29 37 87 187 87 225 0 9 7 26 15 37 8 10 15 26 15 34 0 9 9 34 20 55 47 90 100 219 100 241 0 26 39 135 73 202 13 25 47 64 82 93 56 45 64 48 116 49 38 0 61 -5 69 -15z m-11429 -34 c87 -18 277 -38 306 -33 7 2 25 -4 40 -11 16 -8 48 -18 73 -22 32 -5 54 -17 80 -44 l35 -36 140 3 c116 2 154 -1 220 -18 45 -12 130 -23 195 -27 72 -3 123 -11 137 -19 13 -8 44 -17 69 -21 25 -3 48 -12 51 -19 3 -9 23 -14 57 -15 60 0 184 -20 316 -49 52 -11 160 -27 240 -35 159 -15 216 -29 231 -57 6 -11 21 -18 39 -18 19 0 33 -7 40 -20 13 -25 42 -26 63 -2 16 17 22 18 100 5 45 -8 109 -18 142 -23 33 -5 85 -14 115 -20 30 -6 102 -15 160 -20 58 -5 119 -16 135 -24 17 -8 39 -16 50 -18 11 -2 25 -14 30 -26 8 -18 16 -22 36 -18 19 3 32 -1 44 -14 17 -18 32 -20 174 -20 117 0 200 -6 331 -26 229 -33 214 -30 255 -66 l36 -31 151 -4 c113 -2 158 -7 175 -18 12 -8 39 -15 60 -15 21 0 85 -7 143 -16 58 -8 137 -19 177 -24 116 -14 151 -28 203 -76 50 -47 96 -58 120 -29 15 18 123 20 185 4 22 -6 135 -25 252 -42 117 -18 218 -38 225 -45 6 -6 24 -12 40 -12 17 0 31 -7 38 -20 13 -24 37 -26 60 -5 15 13 25 14 61 4 24 -6 76 -16 114 -23 39 -6 80 -17 92 -24 12 -7 80 -17 150 -22 70 -6 144 -15 163 -20 19 -5 61 -12 93 -15 47 -5 66 -13 95 -39 l37 -33 166 -6 c118 -3 174 -9 195 -20 16 -8 85 -19 156 -26 69 -6 138 -15 153 -21 14 -5 42 -10 60 -10 24 0 38 -6 45 -20 7 -13 21 -20 39 -20 19 0 34 -8 44 -22 l14 -23 189 -1 c152 0 208 -4 289 -21 129 -28 343 -63 376 -63 38 0 49 -18 49 -80 0 -61 -11 -80 -47 -80 -12 0 -58 -10 -100 -21 -67 -19 -94 -21 -188 -15 -141 8 -310 -9 -347 -35 -15 -10 -38 -19 -50 -19 -13 0 -29 -9 -36 -20 -7 -11 -22 -20 -35 -20 -12 0 -32 -6 -43 -14 -11 -8 -67 -20 -125 -26 -57 -7 -137 -18 -178 -26 -40 -8 -135 -14 -210 -14 l-137 0 -33 -34 c-43 -45 -165 -86 -254 -86 -34 0 -80 -5 -102 -11 -22 -6 -123 -14 -225 -18 l-185 -8 -41 -41 c-27 -27 -51 -42 -66 -42 -14 0 -39 -7 -56 -16 -18 -8 -82 -20 -144 -25 -62 -6 -142 -14 -178 -18 -49 -6 -70 -4 -85 6 -25 17 -65 17 -90 -1 -11 -7 -48 -16 -82 -20 -51 -6 -67 -12 -98 -41 -20 -19 -45 -35 -54 -35 -10 0 -35 -7 -56 -16 -37 -15 -160 -34 -345 -53 -82 -8 -97 -7 -113 7 -17 15 -21 15 -50 0 -18 -9 -59 -20 -92 -23 -40 -5 -67 -14 -82 -27 -12 -11 -29 -18 -37 -15 -9 4 -22 -3 -31 -16 -29 -41 -134 -59 -375 -64 -180 -4 -218 -7 -233 -21 -10 -9 -33 -17 -51 -18 -23 0 -49 -13 -82 -41 -44 -36 -58 -42 -134 -53 -47 -6 -128 -16 -182 -20 -58 -5 -109 -16 -130 -26 -26 -14 -61 -18 -173 -20 l-140 -2 -36 -34 c-41 -39 -78 -47 -307 -73 -68 -8 -130 -19 -137 -25 -8 -7 -52 -15 -97 -20 -73 -6 -85 -5 -104 11 -32 29 -75 24 -110 -12 -57 -61 -94 -77 -205 -89 -161 -17 -292 -41 -316 -56 -31 -19 -122 -19 -129 1 -5 11 -22 15 -63 15 -53 0 -60 -3 -92 -36 -54 -57 -108 -77 -229 -82 -58 -2 -114 -9 -125 -15 -11 -6 -23 -10 -27 -9 -4 1 -52 -10 -108 -24 -93 -23 -103 -24 -119 -10 -27 24 -276 23 -303 -1 -23 -21 -118 -19 -163 3 -16 8 -68 20 -115 26 -47 5 -93 14 -102 19 -9 5 -53 9 -97 9 -96 0 -211 33 -219 62 -5 20 -5 20 -157 24 -118 4 -139 7 -157 21 -23 19 -160 46 -223 45 -77 -2 -204 16 -230 32 -11 7 -32 16 -46 19 -15 4 -41 23 -58 42 -34 40 -81 47 -113 18 -25 -23 -144 -18 -212 8 -28 12 -94 24 -151 29 -161 15 -235 29 -262 50 -14 11 -34 20 -45 20 -10 0 -21 7 -24 15 -4 8 -12 15 -20 15 -8 0 -19 9 -26 20 -12 19 -24 20 -188 20 -183 1 -327 11 -444 32 -52 10 -72 18 -83 35 -11 17 -21 21 -38 17 -22 -5 -39 8 -40 31 0 6 -16 9 -34 7 -24 -2 -40 4 -53 18 -23 24 -65 26 -97 4 -28 -20 -135 -14 -193 10 -25 11 -69 16 -133 16 -62 0 -108 5 -132 15 -19 8 -44 15 -54 15 -11 0 -25 11 -31 26 -9 19 -18 25 -35 21 -16 -3 -28 2 -39 17 -14 20 -24 21 -177 23 -113 1 -179 6 -217 17 -30 9 -80 16 -110 16 -141 1 -282 38 -334 89 -27 26 -44 33 -92 38 -32 3 -67 12 -76 21 -15 13 -40 14 -152 9 -247 -11 -466 29 -523 97 l-26 31 -161 1 c-89 1 -181 7 -206 13 -25 6 -92 15 -150 20 -124 11 -199 37 -250 87 l-36 34 -154 0 c-84 0 -181 4 -214 10 -34 5 -124 17 -201 26 -77 9 -149 23 -160 30 -11 8 -30 14 -42 14 -13 0 -28 9 -35 20 -8 13 -24 20 -44 20 -21 0 -36 7 -45 20 -13 19 -29 21 -244 30 -227 9 -403 34 -428 59 -6 6 -26 11 -45 11 -25 0 -35 5 -39 20 -3 11 -8 20 -12 21 -3 0 -71 4 -151 9 -176 10 -448 46 -467 61 -7 6 -13 22 -13 36 0 35 38 47 235 76 147 22 172 23 186 11 25 -22 86 -18 100 7 8 17 17 20 40 15 25 -5 31 -2 39 19 8 22 16 25 57 25 27 0 64 4 83 10 19 5 82 14 140 20 57 6 113 16 123 22 10 5 70 12 133 15 99 5 114 4 120 -11 9 -23 51 -20 65 5 8 17 17 20 40 15 25 -5 31 -2 39 19 8 20 16 25 44 25 21 0 36 6 40 15 3 9 18 15 38 15 18 0 65 7 103 15 39 9 117 19 175 24 58 5 119 16 135 25 20 10 65 16 133 18 90 2 105 0 113 -15 13 -23 46 -22 59 3 7 13 21 20 41 20 17 0 32 6 36 15 15 40 89 59 363 90 74 9 147 22 161 30 19 11 70 16 184 18 142 3 158 5 173 23 35 42 110 59 392 90 80 9 157 23 172 31 19 9 75 16 168 20 77 3 140 10 140 14 0 16 51 42 98 51 26 4 83 13 127 18 44 6 127 17 185 25 58 8 168 15 246 15 128 0 143 2 159 20 12 13 25 18 41 14 19 -5 26 -1 34 20 7 19 17 26 35 26 14 0 36 6 48 14 12 7 60 16 107 19 47 3 171 22 277 41 126 24 222 36 280 36 105 0 130 6 136 31 4 14 14 19 39 19 19 0 38 4 44 10 5 5 74 16 154 25 80 8 195 25 255 36 200 37 279 49 327 49 37 0 50 4 58 20 7 14 21 20 43 20 18 0 38 5 43 10 6 6 77 16 160 24 82 8 183 22 224 31 53 11 115 15 210 13 l135 -3 36 36 c27 26 51 38 95 48 109 23 219 40 264 41 25 1 83 9 130 20 116 25 289 26 411 1z m-17896 -121 c28 -6 77 -15 110 -21 33 -5 84 -16 114 -25 30 -8 95 -18 145 -21 61 -4 103 -12 129 -26 21 -11 48 -17 63 -14 17 3 28 -1 34 -13 7 -14 29 -19 102 -25 51 -3 113 -11 138 -16 198 -42 261 -53 375 -63 77 -7 145 -19 167 -29 21 -9 47 -17 59 -17 11 0 33 -6 47 -14 15 -8 74 -21 132 -30 58 -8 159 -24 225 -36 66 -11 168 -27 226 -34 114 -16 171 -34 186 -61 8 -13 33 -17 136 -22 88 -4 130 -10 138 -20 7 -8 32 -13 63 -13 28 0 89 -7 136 -16 92 -17 91 -17 230 -35 81 -11 99 -17 122 -39 25 -26 33 -27 148 -33 91 -4 126 -9 139 -21 10 -10 35 -16 62 -16 45 0 199 -19 324 -40 39 -6 84 -14 102 -16 21 -3 52 -23 87 -54 57 -53 87 -61 122 -35 26 20 167 21 183 1 7 -8 44 -16 99 -21 103 -8 346 -48 384 -64 15 -5 33 -19 40 -31 11 -18 23 -20 112 -20 102 0 222 -16 242 -31 6 -5 71 -15 145 -24 74 -8 151 -19 172 -25 22 -6 45 -9 52 -6 7 2 21 -4 31 -15 9 -10 29 -19 44 -19 17 0 33 -8 42 -22 14 -21 24 -22 189 -28 96 -4 186 -12 201 -18 15 -6 67 -16 115 -22 49 -6 102 -15 118 -20 17 -6 50 -11 74 -13 28 -2 48 -9 57 -22 9 -11 27 -19 47 -19 24 -1 33 -6 35 -21 3 -19 9 -20 115 -17 72 2 145 -3 202 -13 50 -9 137 -22 195 -29 132 -17 199 -36 211 -58 6 -11 21 -18 39 -18 19 0 34 -7 42 -20 12 -18 24 -20 132 -20 125 0 271 -15 319 -33 48 -17 76 -46 91 -95 20 -64 93 -241 110 -266 7 -12 17 -37 21 -56 18 -90 51 -184 100 -286 29 -61 56 -126 60 -145 14 -68 76 -245 94 -270 17 -22 36 -78 117 -334 9 -27 26 -66 39 -85 24 -36 105 -268 105 -300 0 -9 15 -48 34 -86 42 -84 82 -187 91 -234 4 -19 13 -48 20 -65 7 -16 25 -59 40 -95 14 -36 30 -72 35 -81 15 -28 60 -165 60 -183 0 -9 18 -54 40 -98 22 -45 40 -86 40 -92 0 -5 11 -32 24 -61 14 -28 42 -110 62 -181 21 -73 46 -140 59 -154 42 -49 68 -118 62 -167 -2 -25 -11 -52 -19 -60 -21 -21 -81 -32 -166 -33 -60 0 -75 -3 -89 -20 -14 -16 -30 -20 -75 -20 -31 0 -69 -5 -85 -12 -32 -13 -114 -34 -192 -49 -44 -8 -57 -7 -71 6 -26 23 -122 20 -145 -5 -10 -11 -28 -20 -41 -20 -13 0 -28 -9 -34 -20 -8 -15 -21 -20 -53 -20 -23 0 -53 -7 -65 -16 -13 -9 -51 -18 -85 -20 -33 -3 -81 -12 -106 -21 -36 -13 -88 -18 -238 -20 l-192 -2 -37 -41 c-25 -28 -45 -40 -63 -40 -15 0 -35 -6 -46 -14 -12 -8 -62 -17 -120 -21 -62 -4 -109 -13 -125 -23 -18 -11 -61 -16 -175 -19 -120 -4 -155 -8 -175 -22 -15 -10 -47 -18 -79 -19 -44 -2 -60 -8 -88 -32 -18 -17 -36 -30 -39 -30 -34 0 -201 -24 -209 -29 -24 -19 -80 -25 -237 -26 -158 0 -168 -1 -191 -23 -15 -14 -36 -22 -59 -22 -22 0 -41 -7 -53 -20 -10 -11 -30 -20 -45 -20 -15 0 -34 -8 -44 -19 -14 -15 -31 -18 -120 -17 -98 2 -106 3 -142 31 -54 41 -2467 2451 -2584 2580 -84 94 -642 659 -796 806 -33 31 -75 74 -94 95 -19 22 -62 64 -95 95 -33 30 -145 140 -248 245 -103 104 -195 196 -203 204 -44 42 -150 149 -178 179 -17 19 -55 57 -84 85 -29 28 -142 140 -250 250 -108 109 -244 244 -301 300 -58 55 -182 178 -277 271 -94 94 -212 208 -262 256 -72 67 -92 93 -97 121 -4 20 -4 42 0 49 8 12 77 8 170 -11z m36069 0 c5 -5 0 -29 -10 -55 -14 -34 -48 -74 -124 -147 -58 -55 -118 -114 -135 -131 -111 -115 -445 -455 -674 -687 -149 -151 -271 -278 -271 -284 0 -5 -39 -49 -87 -98 -223 -225 -390 -397 -533 -548 -85 -90 -180 -186 -210 -214 -30 -28 -75 -73 -100 -101 -78 -88 -305 -321 -341 -352 -8 -7 -70 -71 -139 -144 -69 -73 -241 -250 -383 -393 -141 -144 -267 -276 -278 -295 -22 -36 -244 -264 -282 -290 -13 -9 -63 -61 -112 -116 -96 -109 -231 -251 -284 -299 -18 -17 -41 -40 -50 -50 -24 -29 -337 -352 -501 -518 -80 -80 -183 -188 -230 -238 -178 -192 -375 -382 -422 -406 l-48 -24 -52 18 c-42 15 -53 23 -52 39 0 14 -4 19 -14 15 -8 -3 -22 5 -33 19 l-18 24 -183 0 c-151 1 -189 4 -216 17 -21 11 -72 20 -135 24 -59 3 -111 12 -124 20 -12 8 -33 14 -46 14 -16 0 -37 14 -60 39 l-35 38 -213 5 c-182 4 -218 7 -241 22 -19 13 -54 18 -129 22 -69 2 -107 8 -118 18 -9 8 -29 16 -46 18 -22 2 -31 9 -33 26 -3 20 -7 22 -37 16 -27 -5 -35 -2 -44 15 -14 25 -38 27 -63 5 -24 -23 -159 -19 -231 5 -29 10 -72 22 -95 26 -23 4 -44 11 -48 16 -3 5 -36 9 -73 9 -115 0 -157 9 -199 45 l-38 33 -159 7 c-107 4 -184 13 -233 26 -40 10 -83 19 -95 19 -13 0 -32 7 -43 15 -13 10 -46 14 -107 15 -78 0 -89 2 -94 19 -4 14 -18 20 -65 25 -34 3 -80 6 -103 6 -27 0 -54 8 -76 23 -31 21 -34 28 -37 79 -3 49 2 67 37 135 22 43 43 89 46 103 4 14 15 34 25 45 20 23 36 66 55 145 22 94 75 228 105 265 17 22 36 71 56 149 19 78 60 179 93 234 17 27 31 56 31 64 0 30 71 234 109 312 21 45 45 101 54 126 40 121 88 240 116 290 17 30 31 65 31 78 0 12 11 49 25 82 14 33 25 68 25 78 0 10 9 35 20 57 11 22 20 44 20 51 0 6 9 19 20 29 11 10 20 25 20 33 0 7 6 26 14 40 8 15 29 77 46 137 18 61 47 138 66 173 19 34 34 69 34 78 0 8 6 25 14 37 8 12 26 64 41 115 54 188 121 286 211 311 22 6 102 11 179 11 158 0 181 4 188 31 4 13 14 19 36 19 20 0 34 7 41 19 7 14 24 21 62 24 61 6 253 43 277 53 9 4 96 10 193 13 l178 6 16 24 c12 16 22 21 39 17 17 -4 27 0 39 19 10 15 22 22 31 19 8 -3 38 1 67 10 29 9 96 23 148 31 52 8 115 19 140 24 72 16 175 14 190 -4 18 -21 47 -19 60 5 9 16 19 20 48 18 20 -2 37 2 37 7 1 23 18 36 41 31 17 -5 26 -1 34 14 6 12 21 20 36 20 15 0 52 6 83 14 31 7 103 19 161 26 58 7 115 19 128 27 16 10 67 16 163 20 122 5 141 8 150 25 6 10 21 18 36 18 15 0 34 6 42 14 17 15 75 25 296 52 78 10 136 22 146 31 12 10 56 16 158 20 l141 6 34 32 c28 26 46 33 107 42 273 41 351 53 360 59 6 3 76 9 155 13 133 7 146 9 160 29 20 29 66 52 101 52 15 0 64 7 108 15 227 42 341 59 453 64 103 5 125 9 133 24 16 28 59 44 154 56 100 14 100 14 240 42 219 44 214 43 233 25 32 -28 73 -20 117 24 30 29 48 39 72 40 17 0 34 4 37 9 3 5 50 14 103 20 124 15 311 49 341 61 13 6 67 15 120 21 56 6 104 17 113 25 8 8 29 14 45 14 16 0 46 8 66 18 22 11 61 20 97 21 34 1 82 6 109 12 26 5 88 17 137 25 50 8 99 19 110 24 60 27 175 32 199 10z m-35270 -1562 c205 -211 370 -382 439 -456 27 -29 53 -52 57 -52 5 0 39 -37 76 -82 80 -98 3253 -3270 3336 -3335 56 -44 95 -92 119 -146 11 -24 10 -30 -10 -51 -19 -20 -35 -24 -114 -29 -51 -4 -117 -14 -147 -22 -71 -20 -154 -20 -170 0 -16 19 -44 19 -60 0 -7 -9 -22 -14 -34 -13 -48 5 -145 -14 -162 -33 -9 -10 -29 -19 -44 -19 -15 0 -35 -8 -44 -19 -13 -14 -32 -19 -78 -20 -39 -1 -68 -7 -78 -16 -9 -8 -25 -15 -36 -15 -10 0 -49 -9 -86 -19 -189 -54 -212 -45 -328 129 -14 21 -37 53 -51 72 -15 18 -39 58 -55 88 -15 30 -46 75 -67 100 -36 41 -80 108 -116 178 -8 15 -36 53 -63 85 -26 32 -48 64 -48 70 0 7 -25 46 -55 87 -30 41 -62 90 -71 109 -8 18 -46 77 -82 130 -37 53 -80 119 -96 146 -16 28 -52 82 -81 120 -51 69 -135 200 -135 211 0 3 -20 29 -45 56 -25 28 -59 79 -76 115 -17 36 -46 82 -64 102 -18 20 -49 63 -69 96 -20 33 -61 94 -91 135 -29 41 -54 80 -54 85 -1 6 -36 61 -78 123 -43 62 -89 131 -103 154 -14 22 -53 79 -87 125 -35 45 -63 88 -63 94 0 14 -41 83 -52 87 -14 6 -95 125 -110 162 -8 19 -35 59 -60 88 -26 29 -61 81 -78 115 -18 34 -41 71 -51 82 -15 18 -109 159 -157 238 -9 15 -34 51 -56 80 -21 29 -45 68 -53 87 -8 19 -23 44 -33 55 -27 30 -85 112 -125 179 -20 33 -56 82 -80 109 -24 28 -59 78 -76 111 -18 34 -49 81 -70 106 -20 25 -60 83 -87 128 -28 45 -65 99 -83 119 -37 43 -73 118 -65 139 3 8 19 14 39 14 30 0 50 -17 211 -182z m7711 -40 c17 -9 74 -18 134 -22 64 -4 112 -13 125 -22 11 -8 38 -14 59 -14 33 0 46 -7 79 -40 l40 -40 137 0 c75 0 179 -7 231 -15 52 -9 133 -21 180 -27 47 -6 92 -17 101 -25 8 -7 26 -13 38 -13 13 0 34 -9 48 -20 17 -13 41 -20 70 -20 36 0 46 -4 50 -19 7 -26 83 -36 212 -28 64 4 121 1 171 -9 41 -8 113 -20 160 -26 47 -6 92 -17 101 -24 8 -8 37 -14 63 -14 40 0 48 -3 55 -23 8 -19 15 -23 39 -19 23 3 33 -1 41 -16 10 -18 24 -20 203 -25 155 -4 208 -9 268 -26 41 -11 103 -21 137 -21 56 0 65 -3 98 -35 31 -29 47 -35 98 -41 34 -4 71 -13 82 -20 25 -18 65 -18 90 0 21 14 100 6 275 -30 41 -8 107 -20 147 -27 40 -7 78 -18 85 -24 6 -7 24 -13 38 -13 15 0 35 -9 45 -20 12 -13 31 -20 55 -20 24 0 43 -7 55 -20 16 -17 31 -20 112 -20 52 0 103 4 113 10 12 6 42 5 91 -5 41 -7 93 -15 116 -18 23 -2 48 -9 55 -15 7 -6 58 -14 113 -17 107 -8 158 -28 168 -66 4 -16 11 -18 32 -13 19 5 31 1 45 -13 17 -19 35 -21 232 -25 180 -4 218 -7 238 -21 15 -10 44 -17 75 -17 87 -1 137 -16 166 -48 l26 -29 164 -6 c90 -3 182 -11 204 -18 37 -10 172 -36 318 -60 33 -5 62 -7 67 -4 4 2 15 -4 25 -15 10 -11 28 -20 41 -20 13 0 30 -10 39 -22 l15 -23 184 -5 c114 -3 188 -9 197 -16 16 -14 74 -24 139 -25 25 -1 55 -8 67 -15 12 -8 42 -14 66 -14 36 0 48 -5 61 -24 11 -18 21 -23 37 -19 15 4 27 -1 38 -16 l17 -22 189 -3 c155 -2 196 -5 222 -19 34 -18 156 -40 213 -38 49 2 183 -29 196 -45 17 -21 129 -37 379 -54 77 -5 185 -20 240 -32 l100 -23 3 -28 c4 -35 -13 -57 -44 -57 -13 0 -33 -4 -46 -9 -13 -5 -63 -15 -113 -22 -49 -6 -130 -25 -180 -41 -68 -22 -123 -32 -225 -39 -96 -7 -142 -15 -160 -27 -20 -13 -60 -17 -205 -22 l-179 -5 -6 -24 c-3 -13 -12 -28 -20 -32 -40 -20 -136 -40 -240 -49 -63 -5 -135 -17 -160 -26 -30 -11 -92 -18 -183 -22 l-137 -5 -34 -32 c-39 -36 -129 -59 -276 -70 -47 -3 -123 -15 -170 -27 -54 -13 -128 -21 -202 -23 l-118 -4 -35 -34 c-38 -37 -77 -47 -189 -47 -34 0 -70 -6 -81 -13 -11 -7 -33 -14 -50 -15 -28 -2 -87 -13 -180 -33 -22 -4 -91 -8 -152 -9 l-113 0 -16 -25 c-9 -14 -21 -25 -27 -25 -6 0 -18 -7 -28 -16 -14 -12 -46 -17 -131 -21 -64 -2 -126 -10 -143 -17 -37 -17 -214 -54 -272 -58 -28 -1 -48 3 -61 15 -25 23 -54 21 -70 -4 -9 -13 -19 -18 -32 -14 -13 4 -24 -2 -36 -20 -9 -14 -21 -25 -27 -25 -6 0 -18 -7 -27 -15 -10 -9 -57 -17 -140 -24 -119 -9 -270 -37 -298 -54 -7 -5 -37 -10 -67 -12 -41 -2 -57 0 -63 11 -6 11 -24 14 -73 12 l-64 -3 -5 -29 c-4 -24 -12 -32 -40 -39 -19 -5 -42 -14 -50 -21 -9 -8 -49 -14 -100 -15 -100 -2 -127 -6 -240 -33 -65 -16 -107 -20 -180 -16 -52 2 -115 1 -140 -2 -40 -4 -45 -8 -50 -34 -4 -24 -12 -32 -39 -38 -18 -5 -43 -15 -55 -22 -11 -7 -53 -14 -91 -15 -75 -2 -136 -11 -250 -35 -45 -9 -117 -14 -202 -13 l-132 2 -43 -42 c-35 -35 -51 -43 -80 -43 -20 0 -49 -5 -65 -12 -15 -6 -31 -11 -35 -10 -19 4 -156 -20 -197 -35 -36 -12 -89 -16 -242 -17 -173 -1 -199 -3 -216 -18 -11 -10 -24 -18 -29 -18 -5 0 -15 -9 -22 -21 -10 -16 -21 -20 -59 -17 l-47 3 -33 55 c-18 30 -40 75 -49 100 -16 43 -33 85 -68 162 -9 20 -16 42 -16 48 0 37 -83 264 -105 290 -7 8 -18 31 -24 50 -5 19 -24 73 -40 120 -17 47 -31 91 -31 98 0 22 -52 146 -65 157 -7 6 -16 24 -20 40 -3 17 -13 44 -20 60 -18 42 -45 126 -45 142 0 20 -61 175 -76 193 -6 8 -17 31 -22 50 -22 74 -69 202 -117 315 -23 55 -52 134 -64 175 -13 41 -29 90 -37 108 -8 18 -14 37 -14 43 0 5 -16 45 -36 87 -35 74 -55 130 -105 292 -13 41 -30 86 -40 100 -9 14 -20 36 -24 50 -4 14 -13 34 -19 45 -7 11 -28 63 -46 115 -18 52 -39 111 -46 130 -17 45 -18 112 -1 129 17 18 191 10 232 -11z m19466 1 c17 -17 20 -29 15 -61 -6 -39 -52 -138 -86 -188 -17 -25 -25 -47 -81 -215 -16 -49 -45 -122 -64 -160 -18 -39 -37 -84 -41 -100 -4 -17 -10 -34 -14 -40 -4 -5 -20 -46 -35 -90 -15 -44 -42 -111 -60 -150 -18 -38 -56 -140 -85 -225 -29 -85 -58 -162 -65 -170 -19 -22 -42 -80 -85 -211 -35 -106 -53 -151 -125 -304 -13 -27 -31 -81 -41 -120 -9 -38 -40 -119 -69 -180 -53 -111 -95 -222 -95 -250 0 -8 -13 -44 -30 -78 -16 -35 -30 -67 -30 -70 0 -3 -16 -39 -35 -80 -19 -41 -35 -82 -35 -92 0 -29 -48 -153 -72 -185 l-22 -30 -87 0 c-64 0 -90 4 -99 15 -6 8 -9 18 -6 23 3 5 -5 8 -17 8 -15 -1 -23 6 -25 21 l-3 22 -162 -2 c-132 -1 -171 2 -212 17 -31 11 -100 20 -183 25 -77 5 -138 13 -144 19 -7 7 -20 12 -29 12 -9 0 -33 18 -53 40 l-36 40 -137 0 c-127 1 -172 6 -318 40 -22 5 -75 9 -118 10 -45 0 -93 6 -114 15 -19 8 -42 15 -51 15 -9 0 -25 9 -37 20 -17 16 -44 21 -158 29 -75 6 -145 14 -154 19 -10 6 -38 13 -63 17 -24 4 -54 14 -65 21 -14 9 -71 16 -168 20 -104 5 -150 11 -158 21 -6 7 -20 13 -31 13 -11 0 -42 18 -68 40 -41 34 -54 40 -96 40 -28 0 -54 -6 -64 -15 -14 -12 -28 -13 -76 -6 -67 10 -188 38 -222 52 -13 5 -58 9 -101 9 -132 0 -169 9 -209 49 l-36 35 -155 7 c-90 4 -179 14 -211 23 -30 9 -66 16 -80 16 -14 0 -34 6 -45 14 -13 9 -62 15 -141 18 -113 5 -124 7 -158 33 -20 15 -34 31 -31 35 3 4 -59 10 -138 13 -107 3 -168 11 -247 31 -58 14 -132 26 -165 26 -82 0 -224 29 -257 52 -16 11 -28 28 -28 39 0 18 -9 19 -165 19 -134 0 -170 3 -190 16 -16 10 -67 19 -162 25 -76 6 -169 19 -208 28 -64 17 -70 21 -75 47 l-5 29 -181 6 c-148 4 -187 8 -208 22 -20 13 -57 19 -153 23 -135 6 -268 34 -290 62 -9 11 -46 17 -140 23 -71 4 -153 15 -183 23 -30 9 -65 16 -78 16 -28 0 -51 43 -36 68 20 31 148 54 329 59 112 3 177 9 190 17 11 7 46 16 78 20 39 5 64 14 75 27 14 16 30 19 98 19 50 0 93 5 111 14 74 36 214 59 380 62 154 2 166 4 180 23 8 12 25 21 38 21 14 0 29 9 35 20 8 15 21 20 56 20 25 0 55 5 67 12 12 6 29 12 37 13 79 8 142 19 180 32 31 11 92 16 200 18 l155 3 43 40 c40 37 49 41 110 45 89 7 190 24 283 48 94 24 197 26 205 4 9 -21 48 -19 69 5 12 13 25 17 44 14 21 -4 37 3 75 34 42 35 55 40 117 46 38 3 77 10 87 15 9 5 60 16 112 24 52 9 119 21 149 27 45 10 56 9 70 -4 13 -12 39 -16 93 -16 63 0 78 3 94 21 12 14 25 18 41 14 18 -4 25 0 33 20 7 19 17 25 38 25 15 0 34 6 40 13 7 6 45 17 85 24 40 6 128 23 196 37 87 18 129 23 141 16 10 -6 61 -10 113 -10 81 0 96 3 112 20 12 13 31 20 55 20 24 0 43 7 55 20 10 11 30 20 45 20 15 0 35 9 44 19 10 11 23 18 30 15 7 -3 33 0 57 6 125 32 184 39 320 40 118 0 148 3 152 14 4 10 29 17 77 22 54 5 73 11 81 25 6 12 21 19 39 19 19 0 33 7 40 19 7 14 24 20 67 24 69 5 298 43 310 50 5 3 72 10 148 16 121 10 142 14 154 31 9 13 25 20 46 20 18 0 38 7 45 15 8 9 30 15 59 15 25 1 66 6 91 11 117 27 217 38 350 38 l146 1 39 40 c29 29 48 39 71 40 17 0 37 7 44 15 7 9 18 14 25 12 6 -3 49 2 96 9 222 38 273 44 394 44 l131 0 39 40 c36 36 44 40 91 40 31 0 56 5 63 13 6 8 28 15 48 16 21 0 88 12 148 25 144 31 198 33 226 5z m7187 -15 c6 -46 -15 -97 -69 -170 -28 -38 -60 -87 -71 -109 -11 -22 -54 -84 -95 -138 -41 -54 -80 -111 -86 -125 -7 -15 -37 -59 -67 -97 -63 -80 -73 -95 -100 -150 -25 -48 -75 -119 -112 -159 -16 -16 -39 -53 -53 -82 -14 -30 -39 -69 -54 -87 -16 -18 -53 -71 -81 -117 -29 -47 -63 -96 -75 -110 -13 -14 -48 -68 -78 -120 -30 -52 -65 -106 -78 -120 -13 -14 -31 -39 -39 -55 -26 -50 -111 -178 -141 -210 -15 -16 -44 -61 -64 -100 -20 -38 -58 -97 -84 -130 -27 -33 -63 -87 -82 -120 -18 -33 -52 -82 -74 -108 -23 -27 -59 -81 -80 -120 -21 -40 -53 -90 -72 -111 -18 -22 -33 -44 -33 -50 0 -10 -54 -92 -110 -168 -19 -25 -55 -81 -80 -123 -25 -42 -63 -99 -86 -126 -23 -27 -50 -66 -60 -87 -34 -66 -68 -116 -114 -168 -25 -28 -51 -68 -59 -90 -17 -48 -63 -116 -95 -141 -13 -10 -32 -39 -44 -63 -11 -25 -45 -81 -76 -125 -30 -44 -72 -113 -92 -152 -23 -43 -62 -96 -96 -130 l-58 -57 -69 -4 c-61 -4 -70 -2 -84 18 l-15 22 -168 2 c-130 2 -178 6 -207 19 -21 9 -67 20 -103 23 -35 4 -69 13 -75 20 -8 10 -36 14 -93 14 -44 0 -108 4 -140 10 -92 15 -132 68 -96 127 20 34 82 89 108 97 11 4 48 41 83 84 35 42 133 147 218 232 84 85 242 247 351 360 109 113 275 283 369 378 94 96 171 177 171 180 0 8 96 109 125 133 11 9 97 96 190 193 94 98 269 277 390 399 120 122 251 258 289 302 38 44 135 146 215 226 80 81 182 186 226 234 151 164 300 320 328 344 16 13 108 112 206 220 220 242 364 391 378 391 6 0 16 7 23 15 18 22 34 13 38 -21z m-16708 -1855 c47 -5 105 -17 130 -25 27 -9 74 -14 121 -13 66 2 81 -1 104 -20 15 -11 35 -21 45 -21 24 0 32 -11 19 -27 -14 -16 2 -18 18 -2 8 8 16 4 28 -15 20 -30 50 -34 64 -9 8 15 23 17 102 14 57 -2 100 -8 113 -16 27 -18 179 -44 318 -54 108 -9 153 -26 176 -67 5 -9 27 -18 50 -21 23 -3 47 -12 53 -19 15 -19 123 -18 152 0 25 15 93 9 187 -19 30 -8 89 -17 130 -19 137 -7 206 -25 247 -65 l37 -36 161 -6 c100 -4 180 -13 215 -23 30 -9 75 -16 101 -16 27 0 51 -6 58 -14 8 -10 43 -15 114 -18 87 -3 107 -7 135 -26 17 -13 32 -30 32 -38 0 -18 -2 -18 170 -18 114 -1 151 -5 175 -17 21 -12 76 -20 181 -27 102 -7 161 -15 182 -26 17 -9 40 -16 50 -16 23 0 38 -16 44 -45 3 -19 13 -20 188 -25 158 -5 194 -9 245 -28 45 -17 81 -22 152 -22 99 0 173 -18 209 -51 16 -15 36 -19 100 -19 43 0 110 -5 148 -10 69 -10 202 -46 221 -60 6 -4 75 -10 154 -14 151 -7 190 -18 223 -60 16 -19 29 -21 175 -27 87 -3 172 -11 188 -18 29 -11 157 -31 325 -52 89 -11 110 -23 110 -64 0 -12 -11 -32 -24 -44 l-24 -23 -317 -1 c-298 -2 -317 -1 -330 17 l-14 18 -5431 0 -5432 -1 -27 -18 c-23 -16 -51 -18 -279 -16 l-254 1 -24 23 c-19 18 -24 32 -22 59 l3 35 75 8 c41 4 89 12 105 18 17 6 48 12 70 15 22 3 69 12 105 20 36 9 115 17 175 19 147 4 207 14 223 37 27 37 72 51 192 56 82 3 122 10 140 21 20 13 55 16 195 16 l171 0 35 35 c52 51 133 77 262 84 75 4 118 11 140 23 27 15 53 18 167 15 155 -3 220 3 220 22 0 26 81 68 165 86 22 5 74 9 115 10 47 0 96 8 130 20 67 24 152 26 170 5 16 -19 84 -20 99 -1 6 7 30 16 54 18 31 4 53 16 85 46 24 22 55 42 70 46 82 17 97 18 133 6 34 -12 41 -11 57 3 10 10 32 17 48 17 16 0 56 9 89 19 60 19 149 19 161 0 9 -15 91 -10 104 6 7 8 27 15 46 15 25 0 45 11 84 45 l51 45 102 0 c59 0 108 5 114 11 5 5 28 12 49 15 21 2 71 13 109 24 44 12 121 22 205 26 l135 7 42 38 43 39 72 0 c79 0 299 40 321 58 7 6 78 13 170 16 l156 5 35 34 c36 36 79 47 196 47 32 0 64 6 76 14 12 8 50 17 85 19 35 2 71 4 79 5 9 1 54 -3 100 -9z m8845 -1645 c33 -9 83 -22 111 -28 28 -6 58 -17 66 -23 9 -8 72 -16 164 -22 183 -11 280 -36 320 -84 l27 -32 171 -1 c132 -1 181 -5 215 -18 24 -9 68 -16 98 -16 55 0 191 -23 230 -40 12 -5 24 -18 28 -30 5 -17 12 -20 30 -16 15 4 28 -1 40 -14 16 -18 31 -20 159 -20 131 0 190 -7 241 -30 11 -5 77 -11 147 -14 99 -4 138 -9 174 -25 26 -12 55 -21 64 -21 10 0 32 -17 50 -37 l33 -37 201 -7 c110 -5 224 -12 251 -18 28 -5 74 -10 103 -10 62 -1 102 -19 122 -56 13 -24 11 -35 -18 -123 -18 -53 -43 -115 -57 -137 -13 -22 -41 -72 -61 -112 -29 -58 -66 -103 -183 -222 -80 -82 -193 -198 -249 -258 -57 -59 -192 -198 -300 -309 -109 -110 -291 -299 -407 -419 -240 -250 -255 -265 -266 -265 -4 0 -24 -24 -45 -52 -20 -29 -159 -175 -308 -325 -148 -150 -278 -287 -288 -306 -9 -19 -40 -54 -68 -78 -29 -24 -61 -54 -73 -67 -12 -13 -53 -55 -92 -93 -38 -39 -77 -78 -85 -86 -159 -170 -339 -358 -457 -476 -81 -81 -188 -191 -238 -244 -49 -53 -117 -123 -150 -154 -68 -66 -62 -59 -196 -199 -56 -58 -131 -139 -168 -180 -37 -41 -154 -163 -262 -270 -107 -107 -214 -221 -238 -252 -24 -32 -51 -60 -60 -63 -10 -3 -35 -27 -57 -53 -21 -27 -64 -70 -94 -97 -57 -50 -104 -98 -230 -237 -41 -46 -190 -200 -330 -343 -506 -514 -667 -681 -705 -730 -57 -72 -233 -257 -265 -278 -24 -15 -29 -16 -40 -2 -22 27 -7 127 28 177 16 24 35 61 42 83 7 22 28 76 46 120 18 44 36 91 40 105 4 14 14 36 23 50 32 50 53 101 96 240 26 84 51 145 88 219 20 40 37 83 37 95 0 12 5 27 10 32 6 6 19 44 31 85 11 41 34 98 50 128 16 30 29 62 29 72 0 9 6 22 14 28 14 12 46 101 66 185 6 27 35 99 64 160 29 61 63 143 76 181 12 39 26 81 30 95 13 41 69 172 89 210 10 19 28 69 40 110 20 66 41 118 73 184 11 20 26 63 81 218 18 53 39 103 44 110 6 7 16 31 22 53 6 22 17 49 24 60 16 24 43 98 52 142 3 18 22 69 42 115 19 46 37 92 40 103 3 11 11 27 18 35 19 22 53 108 64 160 6 25 24 79 41 120 16 41 30 80 30 86 0 6 9 23 20 37 12 15 43 93 71 174 27 81 54 152 58 158 5 5 12 21 16 35 4 14 15 36 25 50 9 14 27 59 39 100 13 41 31 97 42 124 10 27 19 57 19 67 0 10 4 21 10 24 12 8 53 95 73 155 40 125 82 233 118 307 21 44 39 87 39 94 0 26 84 255 101 274 9 11 36 79 60 150 59 181 81 236 101 264 10 13 18 29 18 35 0 7 6 18 12 24 13 13 38 91 62 192 15 63 36 112 66 155 11 17 20 36 20 44 0 8 7 22 16 32 9 10 20 32 24 51 5 18 18 67 28 108 11 41 36 107 56 147 20 39 36 76 36 82 0 7 6 22 14 34 8 12 19 40 25 62 26 103 48 150 99 212 78 94 127 110 247 77z m-17408 -12 c17 -9 1706 -12 8245 -12 7109 1 8226 3 8248 15 39 22 122 19 154 -6 23 -18 26 -28 26 -76 l0 -56 -60 -63 c-33 -34 -60 -69 -60 -77 0 -17 -54 -104 -96 -155 -15 -18 -40 -57 -55 -85 -16 -29 -37 -68 -48 -87 -10 -19 -30 -47 -44 -62 -41 -44 -68 -87 -78 -123 -5 -19 -30 -58 -55 -87 -44 -51 -64 -83 -99 -156 -9 -19 -34 -57 -56 -85 -22 -28 -50 -69 -61 -91 -11 -23 -54 -91 -94 -153 -41 -61 -74 -114 -74 -117 0 -13 -88 -146 -122 -183 -21 -24 -38 -50 -38 -59 0 -9 -9 -27 -20 -41 -11 -14 -20 -32 -20 -39 0 -8 -15 -31 -33 -51 -18 -21 -58 -78 -87 -128 -30 -49 -69 -109 -87 -132 -18 -23 -33 -46 -33 -52 0 -10 -25 -51 -80 -131 -83 -121 -102 -150 -134 -211 -19 -36 -50 -85 -68 -110 -19 -24 -52 -77 -73 -117 -22 -41 -56 -92 -75 -115 -19 -22 -57 -79 -85 -127 -27 -49 -77 -128 -110 -178 -33 -50 -72 -110 -87 -134 -45 -71 -52 -81 -85 -127 -18 -24 -33 -48 -33 -53 0 -12 -65 -116 -102 -165 -16 -20 -28 -40 -28 -45 0 -6 -17 -35 -38 -66 -73 -108 -91 -135 -166 -259 -16 -26 -44 -66 -61 -88 -18 -22 -47 -69 -66 -105 -18 -36 -56 -96 -84 -135 -29 -38 -62 -92 -75 -118 -12 -27 -33 -60 -46 -74 -13 -14 -24 -30 -24 -36 0 -5 -18 -32 -40 -59 -22 -28 -40 -56 -40 -63 0 -13 -50 -96 -87 -145 -11 -14 -30 -43 -43 -65 -13 -22 -34 -53 -47 -68 -13 -16 -23 -36 -23 -46 0 -9 -14 -30 -31 -47 -16 -16 -46 -60 -65 -99 -20 -38 -55 -95 -79 -125 -23 -31 -59 -87 -80 -125 -20 -39 -55 -95 -78 -125 -47 -61 -117 -174 -145 -235 -11 -22 -27 -47 -36 -55 -27 -22 -74 -94 -82 -124 -4 -16 -21 -47 -39 -71 -56 -73 -125 -182 -125 -197 0 -8 -14 -27 -31 -44 -17 -16 -51 -67 -77 -114 -25 -47 -60 -103 -77 -125 -34 -43 -51 -70 -115 -183 -23 -40 -64 -101 -91 -134 -27 -34 -49 -69 -49 -79 0 -23 -35 -78 -89 -142 -24 -28 -54 -74 -67 -102 -12 -29 -45 -82 -73 -119 -28 -37 -51 -71 -51 -76 0 -9 -131 -211 -174 -269 -14 -19 -26 -40 -26 -47 0 -8 -26 -53 -58 -101 -32 -49 -81 -122 -107 -163 -27 -41 -64 -93 -82 -114 -18 -22 -33 -46 -33 -54 0 -17 -69 -131 -113 -188 -18 -23 -45 -65 -62 -94 -16 -28 -55 -91 -86 -138 -31 -48 -64 -102 -74 -121 -9 -19 -34 -56 -54 -82 -20 -26 -49 -70 -66 -99 -16 -28 -49 -79 -73 -113 -23 -34 -52 -82 -63 -107 -12 -25 -34 -63 -50 -85 -61 -84 -99 -143 -145 -225 -26 -47 -64 -105 -85 -130 -20 -25 -54 -76 -75 -115 -21 -38 -56 -92 -79 -120 -44 -55 -95 -137 -95 -155 0 -6 -18 -33 -40 -61 -22 -28 -40 -54 -40 -59 0 -7 -33 -61 -90 -145 -49 -72 -110 -168 -110 -172 0 -10 -88 -142 -115 -174 -18 -19 -48 -69 -67 -110 -20 -41 -48 -85 -63 -99 -15 -14 -45 -61 -67 -105 -22 -44 -51 -93 -64 -108 -13 -16 -24 -34 -24 -41 0 -7 -12 -23 -26 -37 -14 -13 -37 -46 -51 -73 -23 -46 -38 -69 -123 -196 -94 -139 -172 -263 -205 -325 -21 -38 -48 -81 -60 -95 -13 -14 -32 -43 -44 -65 -35 -64 -83 -138 -123 -187 -21 -25 -38 -49 -38 -55 0 -5 -11 -24 -25 -43 -14 -19 -25 -40 -25 -48 0 -7 -34 -59 -77 -115 -42 -56 -79 -111 -82 -122 -9 -28 -40 -79 -83 -138 -21 -29 -38 -55 -38 -60 0 -9 -130 -217 -161 -257 -11 -14 -28 -43 -38 -65 -10 -22 -33 -53 -50 -69 -17 -17 -31 -36 -31 -44 0 -7 -15 -34 -32 -60 -18 -26 -40 -60 -49 -77 -9 -16 -22 -42 -30 -56 -23 -42 -106 -129 -122 -129 -24 0 -88 81 -126 156 -19 38 -42 78 -52 89 -19 22 -59 89 -84 142 -8 17 -32 52 -52 76 -21 25 -56 76 -78 113 -22 37 -57 89 -77 115 -21 27 -38 54 -38 60 0 13 -87 147 -106 164 -7 6 -37 55 -69 110 -31 54 -72 116 -91 137 -19 21 -34 44 -34 51 0 7 -13 28 -30 47 -16 19 -29 41 -30 49 0 14 -65 116 -127 199 -18 24 -33 48 -33 54 0 6 -20 37 -44 69 -25 33 -56 83 -70 112 -14 30 -32 60 -41 67 -20 17 -109 149 -130 192 -16 33 -57 96 -116 176 -18 23 -39 56 -48 72 -43 77 -57 99 -102 158 -27 35 -49 71 -49 81 0 21 -49 99 -80 126 -12 11 -31 38 -41 60 -27 57 -56 101 -111 171 -26 34 -48 67 -48 73 0 6 -42 75 -94 154 -51 78 -100 156 -109 173 -9 17 -23 37 -32 44 -23 19 -83 114 -90 143 -4 13 -27 48 -51 78 -41 49 -65 86 -103 158 -17 33 -77 123 -119 180 -18 24 -39 58 -47 75 -22 46 -74 128 -99 156 -28 31 -96 144 -96 159 0 6 -17 30 -38 54 -34 37 -76 102 -120 183 -7 13 -25 37 -39 52 -14 15 -32 42 -40 60 -13 31 -82 139 -122 192 -38 50 -81 121 -81 134 0 7 -15 30 -33 52 -50 60 -127 178 -127 193 0 8 -26 48 -57 90 -32 41 -71 98 -88 127 -16 28 -54 85 -82 125 -29 41 -53 82 -53 91 0 9 -10 29 -23 45 -30 37 -118 167 -136 201 -7 15 -21 36 -31 47 -9 11 -19 27 -22 35 -3 8 -29 46 -57 84 -28 38 -51 74 -51 80 0 22 -43 92 -80 131 -21 22 -54 72 -74 110 -19 39 -53 91 -75 117 -22 25 -45 56 -50 69 -5 13 -51 88 -102 166 -52 78 -114 176 -139 218 -25 42 -52 84 -61 93 -9 9 -27 37 -39 62 -13 25 -37 63 -54 85 -64 83 -77 101 -101 153 -13 29 -52 89 -85 133 -33 44 -60 84 -60 90 0 11 -78 131 -115 176 -15 18 -35 50 -46 72 -10 22 -23 43 -29 46 -5 3 -10 15 -10 25 0 11 -20 41 -43 68 -44 50 -117 161 -117 180 0 5 -17 31 -38 58 -21 27 -50 75 -66 106 -16 32 -45 77 -65 100 -38 45 -111 159 -111 175 0 5 -19 35 -42 66 -83 109 -108 147 -118 172 -6 14 -23 43 -38 63 -100 132 -122 164 -122 179 0 18 -34 72 -87 139 -18 23 -33 48 -33 56 0 8 -14 33 -31 54 -17 22 -39 55 -49 74 -10 19 -28 44 -40 55 -13 11 -31 38 -41 60 -25 52 -52 95 -109 175 -26 36 -59 86 -73 112 -15 25 -43 68 -64 95 -20 26 -54 81 -75 122 -21 41 -56 93 -78 117 -22 24 -40 49 -40 55 0 13 -27 58 -127 209 -40 61 -73 113 -73 117 0 5 -27 46 -59 93 -33 47 -83 123 -112 170 -29 47 -67 105 -86 129 -18 24 -33 49 -33 55 -1 6 -25 45 -55 86 -30 41 -83 123 -118 181 -36 58 -80 126 -98 152 -42 57 -89 132 -89 142 0 5 -12 23 -26 42 -55 72 -124 179 -124 192 0 7 -24 45 -54 85 -29 39 -68 96 -86 126 -18 30 -41 64 -50 75 -18 21 -64 96 -89 143 -8 15 -28 45 -45 66 -40 51 -92 132 -111 174 -17 37 -68 111 -127 185 -21 27 -38 56 -38 65 0 22 -47 101 -85 142 -18 19 -54 73 -80 120 -27 47 -72 112 -102 145 l-54 59 3 75 3 75 30 6 c17 4 38 11 47 16 24 13 79 11 105 -4z m-727 -154 c17 -12 30 -28 30 -36 0 -8 20 -56 44 -106 63 -131 71 -151 101 -251 41 -138 66 -203 81 -216 8 -6 14 -21 14 -33 0 -12 7 -31 15 -43 9 -12 27 -64 41 -115 14 -51 31 -106 39 -121 23 -44 103 -249 111 -282 13 -61 46 -150 60 -166 8 -8 14 -21 14 -28 0 -7 18 -50 40 -96 22 -46 40 -89 40 -97 0 -48 87 -279 110 -293 5 -3 12 -20 16 -38 3 -17 12 -45 19 -62 7 -16 26 -73 41 -125 29 -101 59 -175 79 -200 7 -8 17 -33 23 -55 23 -86 86 -263 114 -325 27 -59 85 -217 110 -299 5 -18 22 -59 38 -90 27 -54 90 -231 90 -253 0 -6 29 -77 64 -157 63 -145 88 -214 102 -281 3 -19 30 -86 59 -150 29 -63 74 -182 100 -265 26 -82 53 -157 60 -165 18 -21 46 -92 95 -245 23 -71 51 -145 62 -163 20 -33 83 -208 97 -272 5 -19 24 -69 44 -110 19 -41 54 -129 76 -195 23 -66 51 -142 63 -170 11 -27 31 -77 45 -110 13 -33 30 -71 38 -85 7 -14 16 -43 20 -65 10 -59 35 -137 53 -165 9 -14 22 -38 28 -55 7 -16 27 -68 46 -115 19 -47 38 -101 41 -120 4 -19 32 -84 63 -145 51 -103 55 -116 52 -170 -2 -44 -7 -60 -18 -62 -17 -3 -178 152 -368 352 -155 164 -73 82 -700 708 -299 298 -577 578 -619 622 -41 44 -199 204 -352 357 -152 152 -283 284 -291 293 -8 10 -37 38 -64 64 -70 65 -115 110 -157 156 -20 22 -65 68 -100 102 -88 85 -108 105 -133 131 -11 13 -43 44 -71 70 -27 26 -63 62 -80 80 -16 19 -45 48 -64 65 -19 18 -98 96 -175 174 -78 79 -151 153 -164 165 -49 49 -153 153 -160 160 -4 4 -97 98 -207 208 -110 110 -211 211 -225 225 -41 41 -754 752 -769 767 -8 7 -59 58 -113 112 -54 55 -109 107 -122 115 -13 9 -41 37 -62 62 -51 60 -58 68 -127 130 -32 29 -66 65 -74 80 -9 15 -27 33 -39 40 -13 6 -34 28 -47 48 -32 46 -354 373 -476 481 -51 46 -99 97 -106 114 -12 27 -10 33 13 62 28 35 22 34 237 63 43 6 89 18 101 26 13 9 72 19 141 26 64 6 122 13 127 16 5 4 94 10 197 14 l187 7 42 41 c23 23 48 41 55 41 6 0 27 7 45 17 22 10 72 19 139 23 59 3 112 9 119 14 8 4 101 12 207 16 l193 8 36 40 c20 22 49 42 64 45 15 3 59 13 97 21 132 28 320 50 465 56 l145 5 36 34 c46 43 135 68 274 77 55 4 105 10 110 14 6 4 39 13 75 19 36 7 94 21 130 31 89 25 134 25 170 -2z m22029 -566 c9 -12 30 -22 51 -24 30 -3 36 -7 40 -33 l5 -30 62 -3 c53 -2 63 0 72 17 9 17 19 19 73 14 35 -2 83 -14 107 -25 29 -14 78 -23 145 -29 131 -11 265 -32 293 -47 12 -7 36 -12 53 -12 17 0 46 -6 64 -14 79 -33 47 -159 -64 -256 -16 -14 -48 -61 -71 -105 -23 -44 -51 -91 -64 -105 -32 -37 -113 -157 -130 -193 -8 -18 -33 -54 -55 -82 -22 -27 -50 -70 -62 -94 -12 -25 -40 -67 -63 -95 -22 -28 -58 -81 -78 -118 -20 -37 -58 -91 -83 -120 -26 -29 -53 -68 -60 -86 -19 -44 -74 -128 -117 -179 -19 -23 -54 -77 -77 -119 -23 -42 -61 -100 -84 -128 -23 -28 -53 -76 -68 -106 -15 -31 -43 -73 -61 -95 -19 -22 -53 -71 -77 -110 -24 -38 -62 -95 -86 -126 -24 -31 -49 -70 -56 -85 -7 -16 -39 -66 -73 -111 -33 -46 -71 -102 -85 -126 -57 -100 -86 -143 -110 -168 -14 -14 -45 -65 -68 -113 -24 -48 -58 -101 -76 -119 -17 -18 -54 -69 -81 -115 -28 -46 -64 -100 -81 -120 -17 -20 -39 -53 -49 -72 -10 -19 -43 -73 -75 -120 -31 -47 -83 -123 -114 -170 -31 -47 -69 -102 -84 -122 -15 -20 -47 -72 -72 -114 -25 -42 -59 -93 -76 -113 -17 -20 -48 -69 -70 -110 -21 -40 -60 -98 -86 -128 -27 -30 -48 -62 -49 -71 0 -9 -17 -40 -37 -69 -142 -200 -187 -265 -258 -378 -31 -49 -68 -103 -81 -120 -40 -49 -70 -96 -107 -166 -19 -36 -57 -92 -85 -125 -27 -32 -53 -69 -56 -83 -7 -29 -54 -100 -104 -157 -20 -23 -43 -54 -51 -70 -20 -40 -99 -162 -110 -169 -4 -3 -20 -28 -34 -56 -15 -28 -51 -85 -80 -127 -113 -165 -224 -334 -232 -357 -9 -22 -61 -99 -110 -160 -18 -22 -38 -56 -46 -75 -8 -19 -37 -66 -64 -103 -27 -37 -67 -103 -90 -145 -32 -61 -48 -81 -77 -95 -55 -27 -68 -18 -61 40 7 56 62 191 110 270 18 31 38 72 45 92 21 69 83 216 105 251 12 19 41 85 64 145 22 61 66 159 97 219 31 60 59 123 64 140 17 68 58 167 100 242 24 44 58 120 75 169 17 50 49 126 71 170 23 44 44 91 48 105 15 53 75 199 95 233 28 47 90 197 90 217 0 8 27 69 61 135 33 66 74 161 91 210 29 89 78 196 103 225 7 8 25 53 40 100 32 95 81 206 95 215 6 4 10 15 10 27 0 11 9 31 20 45 11 14 20 34 20 44 0 10 4 20 9 23 5 3 14 30 21 58 12 54 32 104 61 148 9 14 20 36 24 50 4 14 13 32 20 40 8 8 28 58 46 110 18 52 48 120 66 150 18 31 47 94 64 141 16 46 38 107 48 134 10 28 32 73 50 101 17 28 42 86 56 129 36 111 94 246 114 270 18 21 45 81 56 125 15 56 80 207 103 239 14 18 35 66 48 105 28 90 59 163 123 298 28 59 51 115 51 125 0 14 51 130 91 206 5 9 13 25 18 35 4 9 15 31 23 47 8 17 18 45 21 62 6 29 61 151 145 322 15 30 50 74 78 100 29 25 69 68 89 95 21 28 108 119 194 204 l156 154 64 -5 c49 -4 68 -10 80 -25z m-26147 -231 c10 -11 36 -23 63 -27 26 -3 49 -12 51 -19 3 -7 19 -15 36 -19 18 -3 32 -14 35 -25 3 -11 13 -21 24 -24 11 -3 19 -14 19 -25 0 -26 48 -173 63 -192 7 -8 25 -42 41 -75 16 -33 33 -68 38 -78 15 -31 46 -121 53 -154 3 -18 14 -42 24 -55 10 -13 30 -50 45 -83 15 -33 32 -69 38 -79 6 -11 24 -58 39 -105 16 -47 44 -110 62 -141 19 -30 46 -89 61 -130 16 -41 34 -91 41 -110 8 -19 16 -48 20 -64 3 -16 21 -50 38 -75 31 -44 47 -82 106 -241 31 -85 56 -136 71 -145 5 -3 16 -27 24 -53 28 -89 97 -253 132 -312 11 -19 31 -69 44 -110 13 -41 49 -125 81 -186 31 -61 71 -153 89 -205 17 -52 39 -108 48 -125 54 -101 102 -208 123 -273 12 -40 33 -88 45 -106 31 -46 88 -177 113 -260 12 -38 41 -105 65 -150 45 -81 89 -186 101 -239 3 -17 14 -41 24 -55 9 -14 28 -48 41 -76 13 -27 27 -58 32 -67 4 -10 22 -60 38 -112 17 -53 35 -98 39 -101 5 -2 23 -35 40 -72 18 -38 36 -75 41 -84 5 -9 20 -51 35 -93 15 -42 46 -114 70 -160 24 -46 56 -116 69 -157 49 -143 56 -158 91 -214 20 -30 52 -101 71 -158 20 -56 57 -142 83 -192 26 -49 56 -115 66 -145 10 -30 47 -116 82 -190 36 -74 71 -153 79 -175 29 -82 79 -191 105 -230 37 -56 81 -189 77 -233 -3 -34 -6 -37 -36 -40 -44 -4 -57 8 -99 96 -19 41 -50 90 -67 111 -18 20 -39 47 -46 61 -17 34 -99 158 -127 194 -13 15 -30 42 -39 60 -25 52 -47 90 -82 136 -56 77 -100 146 -115 182 -8 19 -28 50 -44 69 -16 19 -55 77 -86 130 -32 53 -67 105 -78 115 -12 11 -30 35 -40 54 -27 49 -39 67 -84 128 -22 29 -53 78 -70 107 -16 30 -46 75 -65 101 -47 62 -125 180 -150 226 -11 21 -33 52 -49 70 -16 19 -48 69 -70 113 -23 44 -61 103 -84 130 -47 55 -107 146 -107 162 0 5 -16 28 -35 50 -19 23 -53 74 -76 115 -23 40 -51 84 -64 98 -28 31 -256 373 -280 420 -10 19 -38 58 -62 85 -24 28 -61 86 -82 130 -22 44 -54 94 -71 110 -18 17 -49 64 -71 106 -21 42 -61 103 -89 134 -27 32 -50 62 -50 66 0 11 -107 176 -119 183 -5 3 -28 39 -50 79 -23 39 -57 92 -76 117 -57 73 -106 150 -110 171 -2 11 -26 46 -53 77 -26 31 -61 84 -77 117 -16 32 -45 78 -66 100 -21 22 -65 88 -100 145 -34 58 -73 119 -86 135 -13 17 -52 73 -85 125 -34 52 -71 106 -83 120 -12 14 -41 59 -65 100 -25 41 -62 97 -83 125 -21 27 -48 67 -58 90 -11 22 -44 73 -74 113 -29 40 -72 106 -93 145 -22 40 -50 81 -62 92 -12 11 -49 66 -83 123 -33 57 -77 122 -97 145 -20 23 -48 63 -63 89 -15 26 -55 84 -88 128 -98 130 -77 165 109 180 62 5 116 11 121 15 5 3 83 9 173 15 l164 9 35 33 c40 38 66 44 334 88 39 6 99 17 135 25 88 17 83 17 102 -4z m1218 -982 c129 -133 696 -703 1260 -1268 564 -564 1079 -1084 1145 -1154 66 -71 365 -372 664 -670 298 -298 589 -589 645 -645 55 -57 148 -150 205 -205 57 -56 474 -471 925 -922 714 -713 936 -942 936 -969 0 -3 15 -39 34 -78 33 -71 68 -173 81 -233 7 -32 41 -111 58 -133 14 -18 43 -98 78 -222 17 -58 37 -115 45 -127 8 -12 14 -29 14 -36 0 -8 8 -25 18 -38 22 -30 52 -107 87 -229 15 -52 34 -107 41 -122 8 -15 14 -36 14 -47 0 -11 8 -27 18 -37 16 -16 36 -65 67 -164 40 -133 71 -212 95 -250 8 -14 26 -59 39 -100 14 -41 35 -103 48 -137 13 -34 23 -66 23 -72 0 -6 15 -41 34 -79 19 -37 53 -128 76 -202 23 -74 48 -145 56 -156 32 -53 144 -373 144 -415 0 -6 9 -18 19 -27 21 -18 95 -212 106 -277 4 -22 27 -81 51 -132 44 -91 104 -250 104 -274 0 -6 16 -51 36 -98 74 -175 83 -198 109 -286 14 -49 31 -99 37 -109 6 -11 14 -31 18 -45 5 -14 24 -63 43 -109 20 -46 38 -97 42 -115 7 -35 26 -88 56 -153 10 -23 19 -44 19 -48 0 -4 16 -40 35 -81 31 -67 67 -180 82 -260 3 -16 11 -37 18 -45 34 -41 145 -328 145 -377 0 -7 17 -49 39 -91 39 -79 65 -146 82 -217 6 -22 15 -48 20 -58 5 -9 16 -39 25 -65 9 -26 31 -78 49 -117 19 -38 43 -106 55 -150 12 -44 28 -93 35 -110 7 -16 33 -77 58 -135 25 -58 57 -141 71 -185 35 -113 62 -189 74 -211 29 -52 46 -98 73 -189 29 -102 37 -120 96 -237 68 -135 147 -398 125 -420 -29 -29 -152 53 -189 127 -9 16 -35 48 -58 70 -24 22 -118 121 -211 220 -92 99 -194 207 -227 240 -33 33 -72 78 -88 101 -15 23 -51 58 -78 80 -28 21 -51 42 -51 46 0 7 -49 62 -254 279 -44 48 -112 122 -151 165 -38 42 -92 100 -119 127 -26 27 -92 97 -145 156 -53 58 -130 140 -171 182 -41 42 -106 112 -145 155 -70 78 -160 174 -356 378 -59 61 -143 152 -189 201 -144 158 -252 273 -376 403 -231 241 -255 267 -287 308 -18 23 -46 51 -64 63 -18 11 -51 44 -74 73 -23 29 -105 120 -183 201 -77 82 -145 156 -150 164 -4 8 -26 31 -49 51 -22 21 -64 67 -94 104 -29 37 -104 119 -166 182 -102 104 -266 276 -392 413 -27 30 -122 129 -209 221 -214 223 -336 354 -422 449 -39 43 -167 178 -285 301 -118 123 -223 236 -234 251 -11 15 -46 59 -78 97 -57 67 -68 87 -107 204 -22 64 -56 136 -69 144 -10 7 -86 195 -97 241 -8 35 -50 121 -62 129 -5 3 -21 38 -36 78 -15 40 -34 87 -41 103 -8 17 -17 41 -20 55 -4 14 -31 73 -61 133 -30 59 -54 113 -54 120 0 14 -87 216 -100 232 -7 9 -18 36 -82 205 -11 30 -30 71 -42 90 -12 19 -32 60 -45 90 -13 30 -29 64 -36 76 -8 12 -17 39 -20 60 -6 34 -38 110 -64 154 -26 42 -91 189 -96 219 -9 45 -41 116 -60 131 -8 7 -15 18 -15 25 0 6 -13 38 -29 71 -16 32 -44 102 -61 154 -17 52 -39 106 -49 120 -26 36 -61 107 -61 122 0 8 -9 31 -20 53 -11 22 -20 44 -20 50 0 6 -29 71 -65 145 -36 74 -65 140 -65 147 0 16 -18 56 -91 210 -33 67 -59 129 -59 137 0 24 -52 145 -102 236 -25 47 -51 105 -58 130 -16 62 -49 145 -85 210 -36 65 -85 173 -85 187 0 18 -59 150 -107 238 -9 17 -27 59 -39 95 -29 87 -84 209 -106 239 -10 13 -18 30 -18 37 0 23 -90 237 -120 284 -16 25 -34 65 -40 90 -7 25 -17 51 -22 58 -6 7 -15 33 -19 59 -5 25 -16 54 -24 63 -8 9 -15 24 -15 33 0 8 -11 29 -25 45 -14 17 -25 36 -25 44 0 8 -4 18 -9 24 -9 9 -54 121 -66 164 -8 28 -45 105 -80 165 -12 22 -42 98 -65 169 -24 70 -53 140 -65 155 -31 37 -51 82 -90 197 -19 56 -59 149 -89 208 -31 58 -56 114 -56 125 0 18 -46 122 -116 264 -19 37 -34 74 -34 81 0 11 -72 157 -149 301 -21 38 -30 143 -14 158 19 20 58 -13 273 -234z m4108 54 c17 -16 52 -66 78 -113 25 -47 58 -101 73 -120 15 -19 42 -62 61 -95 19 -33 64 -105 101 -160 37 -56 74 -117 82 -136 8 -20 28 -51 45 -70 16 -19 50 -72 76 -117 25 -46 67 -111 92 -145 26 -34 52 -75 59 -92 7 -16 23 -42 34 -57 38 -48 92 -132 116 -178 13 -25 33 -54 45 -65 12 -11 31 -38 42 -60 12 -22 32 -53 45 -69 14 -17 35 -53 48 -81 12 -29 45 -80 73 -115 28 -34 68 -95 88 -134 21 -39 41 -73 46 -74 13 -6 62 -79 103 -157 21 -39 51 -85 66 -103 16 -18 36 -47 45 -65 9 -17 55 -89 101 -159 46 -70 88 -140 94 -154 5 -15 21 -41 35 -58 51 -63 112 -152 118 -174 4 -12 39 -63 77 -114 38 -50 69 -98 69 -107 0 -18 31 -66 101 -156 26 -34 66 -96 89 -140 22 -44 51 -90 62 -102 22 -23 73 -102 108 -165 11 -21 33 -52 49 -70 16 -18 43 -62 61 -97 18 -35 52 -87 76 -117 24 -30 44 -59 44 -65 0 -14 43 -85 90 -147 48 -64 102 -149 121 -192 9 -20 29 -50 44 -66 33 -37 91 -127 114 -179 10 -22 41 -67 68 -100 28 -33 64 -90 82 -127 17 -36 47 -85 67 -109 19 -23 47 -63 61 -88 15 -25 34 -55 44 -66 9 -11 26 -38 37 -61 11 -22 28 -46 37 -54 9 -7 29 -38 44 -69 15 -31 53 -90 84 -131 51 -67 107 -164 107 -184 0 -5 18 -28 40 -53 21 -25 58 -79 81 -122 23 -42 55 -91 70 -108 16 -18 54 -77 86 -130 31 -54 75 -123 97 -154 38 -52 67 -97 123 -192 12 -21 38 -57 58 -79 19 -23 40 -57 46 -77 7 -20 21 -48 33 -63 40 -50 81 -109 96 -137 39 -73 56 -100 97 -150 24 -29 59 -87 79 -128 20 -40 57 -98 82 -127 26 -30 62 -85 81 -122 19 -38 49 -85 66 -104 18 -19 52 -71 75 -115 23 -44 56 -99 73 -122 18 -23 46 -65 62 -93 17 -28 46 -72 66 -98 40 -53 109 -165 109 -178 0 -5 20 -34 45 -64 25 -30 45 -58 45 -61 0 -3 14 -24 31 -45 17 -22 41 -62 54 -90 13 -29 44 -77 69 -108 26 -32 63 -90 82 -129 20 -40 51 -88 69 -108 18 -20 52 -70 75 -110 23 -41 61 -103 85 -139 23 -36 69 -105 101 -155 31 -49 65 -99 75 -110 9 -11 34 -51 54 -90 20 -38 59 -99 86 -135 28 -36 61 -86 74 -111 13 -25 35 -59 48 -75 38 -47 91 -125 116 -174 13 -25 37 -63 55 -85 17 -22 48 -65 67 -95 20 -30 66 -101 104 -158 51 -78 68 -113 69 -140 1 -31 -3 -38 -21 -40 -17 -3 -88 64 -330 309 -169 172 -876 882 -1571 1578 -1086 1088 -1344 1349 -1432 1445 -8 9 -89 91 -180 181 -91 91 -173 173 -182 182 -85 88 -231 234 -267 267 -24 23 -104 102 -178 176 -280 283 -257 252 -309 410 -14 41 -40 107 -58 145 -19 39 -48 113 -64 165 -46 141 -60 178 -94 250 -18 36 -39 92 -49 125 -9 33 -24 83 -32 112 -8 29 -32 87 -52 130 -54 114 -60 130 -85 223 -21 81 -30 107 -48 140 -34 59 -86 197 -107 280 -9 36 -44 126 -77 200 -33 74 -73 182 -89 240 -17 58 -36 117 -44 132 -8 14 -15 33 -15 42 0 8 -8 23 -19 33 -18 18 -42 79 -66 168 -24 89 -76 228 -95 253 -11 13 -23 40 -26 60 -9 49 -75 231 -114 317 -36 80 -110 297 -110 324 0 10 -9 30 -20 43 -32 41 -91 193 -110 286 -5 24 -28 80 -49 125 -47 95 -106 255 -116 311 -3 21 -15 55 -26 75 -10 20 -19 42 -19 50 0 8 -6 22 -14 30 -14 16 -76 179 -116 306 -12 39 -29 81 -38 95 -18 27 -31 57 -57 135 -52 149 -90 248 -124 315 -20 41 -49 118 -65 170 -15 52 -36 121 -47 154 -10 32 -16 62 -13 67 12 19 70 9 102 -18z m15426 -258 c-1 -60 -11 -91 -43 -127 -16 -18 -32 -49 -36 -68 -4 -19 -13 -48 -20 -65 -7 -16 -24 -66 -38 -110 -14 -44 -50 -133 -81 -197 -31 -65 -56 -122 -56 -128 0 -31 -82 -236 -137 -345 -14 -27 -29 -66 -34 -85 -11 -50 -42 -134 -79 -215 -34 -74 -39 -89 -89 -230 -18 -49 -41 -108 -51 -130 -27 -58 -140 -355 -140 -369 0 -5 -18 -45 -39 -90 -22 -44 -51 -117 -65 -161 -40 -125 -68 -196 -104 -258 -18 -32 -39 -86 -48 -120 -23 -95 -65 -206 -102 -271 -18 -33 -45 -103 -59 -155 -14 -53 -52 -150 -84 -217 -33 -66 -59 -128 -59 -137 0 -27 -49 -167 -82 -232 -34 -69 -46 -101 -92 -240 -19 -55 -48 -130 -66 -165 -18 -36 -53 -123 -77 -195 -52 -153 -83 -234 -98 -255 -16 -21 -48 -109 -85 -227 -17 -57 -35 -105 -40 -108 -4 -3 -11 -17 -15 -32 -3 -15 -12 -34 -18 -41 -18 -22 -57 -124 -63 -167 -7 -42 -70 -201 -103 -257 -11 -18 -31 -71 -45 -118 -34 -117 -51 -156 -99 -220 -42 -56 -404 -435 -692 -725 -87 -88 -197 -203 -244 -255 -46 -52 -137 -146 -200 -208 -138 -135 -120 -116 -225 -226 -48 -49 -86 -93 -86 -98 0 -5 -116 -127 -258 -271 -143 -144 -302 -309 -354 -367 -52 -58 -142 -150 -199 -205 -57 -55 -155 -154 -218 -220 -118 -125 -383 -397 -767 -787 -123 -125 -237 -247 -254 -270 -33 -45 -362 -394 -541 -573 -11 -11 -35 -40 -53 -65 -25 -36 -39 -46 -65 -48 -19 -2 -38 1 -42 5 -15 15 17 89 59 141 39 47 52 68 93 151 12 24 38 62 59 85 20 23 54 74 75 113 20 40 54 92 74 115 21 24 40 50 43 59 9 24 94 156 138 214 21 28 52 77 70 109 44 83 93 158 114 175 10 8 34 47 53 85 19 39 50 89 67 111 18 22 50 72 71 110 21 39 55 93 76 120 20 28 61 91 90 142 30 50 75 122 100 160 25 37 61 94 79 126 19 32 46 71 61 86 33 37 65 89 73 121 3 14 33 63 66 109 34 46 69 100 79 120 11 20 54 87 96 150 42 63 81 125 85 137 5 13 39 64 76 115 36 51 72 106 79 124 8 17 34 58 58 91 25 32 52 77 61 98 15 37 48 86 105 158 24 30 68 105 96 164 8 18 36 59 63 92 27 34 63 90 81 126 18 35 55 90 82 122 26 31 55 78 64 103 8 25 28 61 43 81 30 37 91 130 126 191 25 43 121 191 193 297 29 42 70 112 92 155 22 43 60 102 84 130 24 29 57 79 73 112 29 59 67 116 110 165 12 14 43 66 69 117 26 51 64 111 84 135 21 24 55 74 76 112 21 38 53 88 70 111 18 23 44 66 59 95 15 30 49 84 75 120 26 36 65 97 86 135 21 39 54 90 74 115 20 24 52 74 71 110 56 103 73 131 103 165 15 18 48 70 73 116 25 46 61 102 79 124 18 22 44 63 58 90 14 28 47 80 74 116 27 36 69 101 93 145 24 43 58 98 75 121 36 51 98 149 115 183 7 14 23 36 35 50 13 14 40 57 61 95 20 39 51 90 68 114 82 115 116 167 116 174 0 5 14 28 30 52 17 24 30 47 30 50 0 4 15 25 33 48 18 23 53 76 77 117 24 41 70 112 102 159 32 47 58 90 58 97 0 7 17 34 38 61 21 26 58 84 82 128 24 44 60 99 79 121 20 23 50 68 66 100 17 32 53 90 82 130 48 66 78 116 134 219 12 22 41 61 65 88 23 26 46 62 50 80 3 17 22 55 40 82 169 254 218 332 252 400 17 33 42 71 56 84 14 14 26 29 26 34 0 5 13 26 28 46 16 20 46 70 66 111 45 90 70 118 105 122 19 2 27 9 29 28 10 94 33 134 75 128 19 -3 22 -9 21 -43z m3902 -9 c8 -22 -26 -113 -79 -208 -27 -48 -64 -130 -82 -181 -18 -50 -55 -136 -83 -189 -27 -53 -62 -131 -76 -174 -15 -42 -39 -97 -53 -121 -14 -24 -35 -71 -48 -106 -60 -164 -96 -250 -114 -275 -23 -33 -62 -126 -103 -246 -16 -49 -37 -101 -47 -115 -48 -73 -50 -79 -102 -223 -23 -64 -55 -139 -73 -165 -17 -26 -44 -88 -60 -138 -36 -110 -77 -204 -116 -265 -16 -25 -41 -83 -55 -130 -15 -47 -51 -133 -81 -193 -30 -59 -54 -113 -54 -120 0 -18 -52 -142 -100 -237 -23 -47 -51 -112 -62 -145 -11 -33 -49 -121 -85 -195 -36 -74 -70 -152 -74 -173 -11 -46 -86 -214 -108 -243 -9 -12 -25 -48 -35 -80 -32 -100 -78 -214 -100 -247 -20 -30 -74 -159 -91 -217 -7 -23 -93 -210 -116 -253 -5 -10 -24 -57 -41 -105 -17 -48 -36 -94 -43 -102 -16 -20 -65 -129 -65 -145 0 -11 -19 -60 -56 -142 -8 -17 -14 -37 -14 -44 0 -6 -10 -26 -23 -43 -28 -38 -51 -86 -70 -146 -37 -115 -79 -216 -102 -251 -25 -36 -85 -170 -85 -191 0 -15 -58 -144 -89 -196 -15 -26 -40 -86 -55 -135 -26 -84 -55 -149 -89 -198 -10 -13 -17 -30 -17 -38 0 -8 -6 -22 -13 -30 -8 -9 -26 -54 -41 -100 -16 -45 -55 -139 -87 -208 -33 -68 -59 -128 -59 -133 0 -6 -34 -84 -75 -175 -41 -91 -78 -177 -81 -193 -9 -34 -56 -105 -89 -130 -14 -11 -45 -47 -71 -81 -25 -33 -64 -76 -86 -95 -22 -19 -61 -59 -85 -88 -86 -100 -358 -393 -469 -503 -38 -38 -106 -112 -149 -162 -43 -51 -86 -95 -95 -98 -8 -3 -24 -20 -34 -37 -10 -18 -53 -69 -96 -113 -166 -171 -240 -252 -268 -290 -16 -22 -51 -60 -78 -85 -27 -25 -85 -86 -129 -135 -44 -50 -117 -128 -162 -175 -163 -169 -292 -306 -324 -345 -61 -72 -442 -475 -450 -475 -4 0 -24 -24 -45 -52 -21 -29 -75 -91 -120 -138 -45 -47 -157 -166 -248 -265 -92 -99 -216 -232 -276 -296 -60 -63 -129 -141 -153 -172 -25 -32 -63 -71 -86 -87 -22 -17 -41 -35 -41 -40 0 -6 -105 -121 -232 -257 -227 -240 -314 -334 -482 -517 -44 -49 -137 -148 -206 -220 -244 -256 -597 -641 -690 -751 -118 -141 -154 -179 -187 -202 -48 -33 -63 -25 -63 34 1 82 20 141 97 300 30 62 70 161 88 220 33 106 60 169 88 202 12 15 26 55 76 224 12 38 27 81 35 95 7 15 19 38 25 52 6 14 15 32 21 40 21 33 60 128 60 147 0 26 36 135 68 203 61 133 80 180 106 260 27 87 47 136 99 249 16 36 36 85 43 110 7 25 20 64 28 86 8 22 15 47 16 56 0 9 9 24 20 34 11 10 20 23 20 29 0 6 15 49 34 96 39 98 75 204 83 240 3 14 11 32 18 40 22 27 65 128 65 152 0 13 4 28 9 34 5 5 16 32 25 59 28 93 47 140 82 207 19 37 48 109 64 160 47 150 62 190 96 248 17 30 44 100 59 155 25 93 39 128 115 290 32 67 70 185 70 215 0 10 4 21 8 24 22 14 142 312 142 354 0 7 22 57 48 110 27 53 66 149 87 212 33 102 53 150 100 240 17 33 55 151 55 170 0 9 16 54 36 100 20 47 38 94 41 105 3 11 11 25 19 31 15 12 38 72 64 172 11 40 33 101 50 136 16 35 30 70 30 77 0 7 6 20 14 28 17 18 42 84 61 156 13 53 28 89 80 195 17 36 44 106 59 155 15 50 54 151 86 225 32 74 61 153 65 175 19 113 132 259 451 580 104 105 263 269 354 365 91 96 208 218 260 271 52 52 138 143 192 200 66 72 106 107 130 114 24 7 34 17 36 35 5 33 89 119 127 128 22 6 31 15 33 33 2 13 35 56 76 99 40 41 87 94 105 117 17 23 47 51 65 63 19 11 39 33 45 49 14 33 88 106 116 115 11 3 33 26 48 50 26 42 85 102 119 122 8 5 28 27 44 49 32 45 282 304 406 421 18 17 74 75 123 129 50 54 182 191 295 305 113 114 239 245 281 291 94 104 151 162 209 216 25 23 95 95 155 159 61 65 193 202 295 305 189 192 341 351 427 449 27 30 107 111 178 179 72 69 132 130 134 135 4 14 90 103 361 376 117 118 229 235 248 260 19 25 61 72 93 105 31 33 119 123 194 201 75 77 147 157 161 177 21 31 31 37 60 37 20 0 37 -6 40 -14z m-16754 -6483 c24 -31 55 -68 71 -82 15 -14 50 -51 79 -81 29 -30 652 -654 1384 -1387 733 -733 1385 -1389 1449 -1458 111 -121 1125 -1136 1696 -1698 152 -150 281 -283 288 -296 9 -15 11 -39 6 -68 -6 -39 -15 -54 -72 -107 -36 -33 -138 -135 -227 -226 -88 -91 -199 -204 -246 -251 -47 -48 -182 -186 -300 -309 -118 -122 -285 -292 -370 -378 -85 -86 -170 -175 -189 -197 -18 -22 -173 -182 -343 -355 -171 -173 -328 -337 -348 -365 -21 -27 -58 -71 -82 -97 -42 -45 -48 -48 -95 -48 -35 0 -54 5 -65 18 -31 36 -60 98 -90 191 -64 199 -70 217 -84 238 -8 12 -14 30 -14 39 0 9 -9 31 -19 48 -10 17 -33 78 -50 136 -40 138 -59 192 -77 211 -8 8 -14 20 -14 26 0 6 -13 39 -29 74 -16 35 -36 95 -46 134 -9 38 -23 79 -31 90 -8 10 -14 30 -14 42 0 13 -14 48 -31 78 -34 61 -72 159 -95 250 -9 33 -38 106 -65 162 -27 56 -49 110 -49 120 0 10 -9 37 -20 60 -10 24 -23 67 -29 95 -12 64 -34 120 -55 138 -9 7 -16 20 -16 29 0 9 -7 29 -15 45 -18 35 -60 156 -70 206 -4 19 -21 62 -37 95 -44 91 -86 199 -104 268 -8 34 -24 80 -34 102 -45 95 -100 231 -100 245 0 19 -50 171 -60 185 -19 24 -98 214 -104 250 -11 63 -51 175 -85 240 -30 58 -81 192 -81 214 0 19 -72 195 -86 212 -8 9 -23 45 -33 80 -56 191 -85 274 -116 330 -19 33 -35 65 -35 70 0 33 -73 238 -141 394 -19 45 -59 176 -59 195 0 7 -18 49 -39 94 -66 138 -78 168 -107 271 -15 55 -46 141 -70 192 -39 82 -107 272 -135 377 -6 23 -19 50 -29 61 -10 11 -37 79 -60 150 -55 170 -90 263 -106 275 -6 6 -24 50 -39 98 -14 48 -33 102 -41 120 -8 18 -14 42 -14 54 0 12 -20 63 -44 112 -24 50 -53 111 -64 136 -25 54 -63 191 -56 202 3 4 29 8 59 8 l54 0 43 -57z m10210 -322 c-2 -39 -12 -70 -35 -110 -41 -69 -100 -207 -122 -283 -9 -31 -41 -105 -70 -165 -30 -59 -55 -113 -55 -120 0 -20 -57 -186 -83 -243 -61 -133 -75 -169 -96 -240 -12 -41 -38 -109 -58 -150 -36 -76 -105 -269 -118 -327 -3 -18 -11 -35 -16 -39 -22 -13 -87 -176 -109 -272 -10 -41 -77 -189 -98 -215 -5 -6 -24 -64 -42 -127 -29 -101 -84 -247 -111 -290 -26 -42 -51 -105 -60 -154 -9 -49 -64 -185 -104 -256 -19 -36 -44 -105 -60 -170 -13 -52 -37 -112 -98 -241 -15 -31 -27 -61 -27 -67 0 -15 -37 -128 -55 -167 -8 -16 -32 -68 -53 -115 -22 -47 -42 -99 -45 -117 -3 -17 -24 -77 -47 -133 -22 -56 -40 -108 -40 -115 0 -7 -7 -18 -15 -25 -17 -14 -55 -95 -55 -116 0 -36 -85 -258 -119 -314 -13 -21 -45 -111 -71 -200 -12 -41 -41 -115 -65 -165 -40 -84 -115 -289 -115 -315 0 -7 -8 -24 -18 -38 -24 -35 -92 -205 -122 -307 -13 -44 -31 -89 -40 -100 -22 -27 -51 -93 -61 -135 -11 -50 -74 -226 -103 -285 -42 -88 -53 -117 -96 -245 -23 -69 -50 -138 -60 -155 -9 -16 -21 -43 -24 -60 -4 -16 -18 -47 -32 -67 -21 -32 -30 -38 -60 -38 -40 0 -42 2 -186 160 -69 76 -138 146 -293 296 -27 27 -60 60 -72 74 -19 23 -579 583 -612 613 -7 6 -46 45 -86 85 -271 273 -535 533 -589 581 -69 60 -106 118 -106 167 0 31 11 46 101 132 56 53 185 187 288 297 102 110 218 230 258 265 39 36 71 68 72 73 2 11 509 536 643 665 32 30 72 76 89 103 17 27 35 49 40 49 11 0 344 334 389 392 35 43 372 391 562 577 42 42 79 86 82 98 4 11 21 32 39 46 44 34 274 264 294 294 9 13 29 31 44 39 16 8 38 32 48 53 11 21 46 61 78 89 64 57 60 52 139 139 31 34 65 65 75 68 10 3 33 27 52 53 18 26 162 178 318 337 157 160 354 363 439 453 84 90 170 178 190 195 20 18 61 64 92 102 31 39 79 93 108 120 28 28 58 63 66 78 16 30 47 47 79 44 18 -2 20 -8 17 -56z m-12354 -2641 c54 -54 149 -156 212 -226 63 -70 195 -213 294 -318 98 -105 190 -207 204 -226 25 -34 165 -181 379 -400 57 -58 103 -110 103 -115 0 -6 25 -30 55 -55 31 -25 70 -67 87 -93 17 -27 55 -66 84 -87 31 -24 64 -60 82 -92 17 -29 44 -61 61 -71 31 -18 237 -240 328 -352 26 -33 59 -69 73 -79 14 -11 48 -44 75 -74 28 -29 86 -90 130 -136 44 -45 120 -124 168 -176 142 -154 253 -272 454 -486 103 -110 231 -247 283 -304 52 -57 174 -186 270 -286 96 -99 209 -218 250 -264 41 -45 111 -119 155 -164 118 -120 239 -262 245 -287 3 -12 22 -31 42 -41 21 -11 80 -68 133 -126 53 -59 132 -143 174 -187 91 -94 131 -146 131 -172 0 -41 -49 -105 -184 -238 -78 -77 -156 -160 -174 -183 -17 -24 -48 -56 -70 -71 -21 -16 -52 -46 -69 -67 -17 -22 -80 -90 -141 -152 l-110 -112 -47 0 c-63 0 -78 10 -110 73 -15 30 -45 78 -66 106 -22 29 -58 86 -79 127 -21 41 -59 98 -84 127 -25 28 -62 83 -82 122 -21 38 -54 89 -76 113 -21 23 -44 54 -50 70 -17 38 -182 287 -260 391 -18 24 -36 52 -40 63 -10 24 -83 132 -125 184 -18 23 -33 45 -33 51 0 5 -11 24 -25 43 -14 19 -25 40 -25 48 0 8 -19 38 -43 66 -24 28 -63 87 -87 131 -24 44 -60 98 -80 120 -20 22 -56 74 -80 115 -24 41 -59 95 -77 120 -19 25 -65 92 -103 150 -38 58 -77 116 -87 130 -47 70 -73 112 -73 121 0 6 -18 32 -41 57 -23 26 -57 78 -76 117 -20 38 -58 95 -85 125 -27 30 -63 84 -80 120 -17 36 -49 85 -71 110 -22 25 -44 56 -50 70 -6 14 -21 39 -32 55 -12 17 -27 43 -35 58 -8 15 -30 47 -49 69 -38 44 -64 83 -105 160 -14 25 -43 67 -66 93 -22 25 -40 50 -40 56 0 8 -63 104 -114 172 -13 18 -35 55 -49 84 -14 28 -48 80 -75 115 -27 34 -57 79 -67 98 -10 19 -43 70 -74 113 -101 141 -132 188 -137 214 -1 7 -20 34 -43 59 -22 25 -55 71 -73 101 -57 96 -72 119 -101 153 -15 18 -36 49 -46 69 -21 39 -72 117 -114 173 -15 19 -27 40 -27 46 0 6 -22 37 -48 69 -27 32 -84 112 -127 178 -44 66 -103 153 -132 194 -29 41 -53 79 -53 85 0 6 -21 36 -46 66 -52 62 -74 106 -74 148 0 68 28 57 138 -58z m14394 16 c-3 -41 -50 -119 -77 -130 -9 -3 -24 -25 -35 -48 -20 -46 -44 -82 -129 -199 -29 -41 -66 -98 -83 -126 -16 -29 -49 -74 -73 -100 -23 -27 -56 -75 -73 -108 -17 -33 -51 -84 -77 -114 -25 -30 -57 -75 -70 -100 -13 -25 -47 -77 -74 -116 -27 -38 -66 -98 -86 -133 -20 -35 -58 -92 -83 -127 -26 -35 -67 -96 -92 -136 -25 -40 -60 -91 -79 -113 -18 -23 -38 -52 -44 -66 -18 -41 -77 -133 -106 -165 -15 -16 -47 -65 -72 -109 -24 -43 -65 -103 -91 -132 -25 -29 -50 -64 -54 -76 -4 -13 -49 -87 -100 -165 -52 -78 -98 -152 -103 -165 -5 -13 -17 -30 -26 -38 -23 -19 -72 -91 -108 -159 -16 -31 -47 -76 -68 -100 -22 -24 -39 -48 -39 -54 0 -13 -62 -105 -111 -167 -20 -25 -46 -65 -57 -90 -12 -25 -47 -78 -78 -119 -31 -41 -79 -113 -106 -160 -27 -47 -63 -100 -78 -116 -16 -17 -45 -62 -63 -100 -19 -39 -50 -89 -70 -113 -19 -23 -48 -62 -64 -87 -15 -25 -52 -78 -80 -118 -29 -40 -63 -92 -76 -117 -25 -49 -57 -98 -97 -145 -14 -17 -50 -71 -80 -120 -29 -50 -70 -110 -91 -133 -21 -24 -54 -77 -74 -117 -20 -40 -56 -96 -81 -125 -25 -29 -58 -78 -74 -109 -16 -31 -47 -78 -69 -106 -23 -27 -48 -64 -55 -81 -15 -31 -148 -236 -188 -288 l-21 -28 -70 4 -69 4 -55 59 c-92 101 -272 282 -441 447 -136 131 -162 161 -162 185 0 30 8 39 250 298 206 220 312 335 366 398 32 37 61 67 65 67 3 0 41 40 84 90 42 49 85 92 95 95 11 3 22 14 25 25 3 10 62 76 131 147 70 70 145 154 169 185 24 32 69 84 101 117 33 32 111 114 174 182 63 67 136 143 161 168 26 25 51 53 55 63 5 9 97 108 205 220 108 111 215 226 237 255 23 28 62 68 87 90 25 21 54 50 63 64 9 15 95 110 190 210 95 101 209 224 255 273 45 49 117 124 160 167 42 43 77 82 77 86 0 4 18 25 39 47 179 185 174 181 209 177 7 -1 12 9 12 22 0 14 7 30 16 38 8 7 22 26 31 43 17 33 54 75 257 289 72 76 135 146 140 155 5 9 44 53 86 97 169 174 410 436 410 445 0 16 63 51 85 48 17 -3 19 -9 17 -42z m-6299 -3029 c325 -325 621 -626 656 -667 36 -41 228 -238 427 -437 388 -387 396 -397 372 -466 -7 -18 -24 -52 -38 -77 -15 -25 -31 -58 -35 -75 -3 -16 -12 -37 -20 -45 -7 -8 -25 -53 -40 -100 -14 -47 -35 -103 -46 -126 -10 -23 -19 -45 -19 -49 0 -4 -13 -35 -30 -69 -16 -35 -47 -115 -69 -179 -22 -64 -53 -144 -70 -179 -39 -81 -71 -164 -71 -186 0 -25 -87 -236 -99 -240 -5 -2 -21 -42 -36 -90 -14 -48 -33 -109 -42 -137 -22 -69 -73 -187 -88 -205 -8 -8 -25 -53 -39 -100 -33 -109 -55 -168 -96 -255 -18 -38 -36 -83 -40 -100 -15 -55 -88 -239 -124 -315 -20 -41 -36 -81 -36 -88 0 -8 -6 -28 -14 -45 -8 -18 -28 -71 -45 -119 -17 -48 -37 -98 -45 -110 -8 -13 -30 -68 -49 -123 -78 -229 -90 -258 -112 -292 -22 -31 -95 -240 -95 -270 0 -12 -31 -81 -51 -113 -23 -37 -82 -191 -100 -260 -6 -24 -28 -81 -49 -125 -45 -94 -95 -222 -110 -283 -6 -24 -24 -69 -40 -100 -15 -32 -33 -73 -39 -93 -6 -20 -20 -53 -31 -74 -11 -22 -20 -47 -20 -57 0 -22 -31 -102 -74 -193 -19 -38 -53 -126 -76 -195 -40 -118 -59 -166 -116 -285 -13 -27 -33 -86 -44 -130 -12 -43 -37 -111 -56 -149 -19 -38 -34 -74 -34 -80 0 -5 -6 -17 -14 -25 -16 -18 -56 -155 -56 -192 0 -13 -11 -48 -25 -77 l-25 -53 -41 3 c-40 3 -44 6 -76 63 -41 74 -39 68 -56 135 -37 139 -63 213 -112 312 -19 38 -35 75 -35 82 0 16 -48 173 -68 221 -9 22 -27 55 -39 74 -13 19 -23 40 -23 48 0 8 -6 29 -14 46 -8 18 -24 62 -35 100 -55 177 -64 204 -79 227 -18 27 -78 175 -93 230 -32 113 -54 177 -66 191 -20 24 -113 288 -113 321 0 5 -17 44 -38 86 -21 42 -46 100 -55 127 -53 163 -100 294 -116 320 -17 29 -42 101 -77 215 -9 30 -34 93 -56 140 -42 90 -72 174 -108 305 -12 44 -30 92 -40 106 -25 35 -92 206 -119 303 -12 43 -35 107 -51 141 -40 86 -86 204 -94 241 -4 18 -27 81 -52 140 -59 140 -68 167 -89 239 -24 83 -57 165 -109 272 -14 29 -28 70 -32 90 -9 54 -50 173 -63 186 -6 6 -11 20 -11 30 0 10 -8 31 -19 45 -21 31 -71 153 -71 175 0 16 -34 119 -54 162 -7 17 -34 73 -60 125 -39 81 -46 104 -46 155 0 76 15 104 95 185 74 74 176 177 208 210 12 12 67 68 122 123 55 56 134 140 176 187 42 47 92 96 110 109 19 13 52 48 74 78 22 31 56 63 77 74 21 11 50 38 64 61 30 47 151 180 297 325 66 67 341 350 419 432 7 7 96 97 198 200 102 103 245 252 318 332 249 269 219 245 315 248 l47 1 593 -593z m1853 -1873 c6 -8 16 -14 22 -14 6 0 35 -28 64 -62 54 -62 325 -335 507 -510 l101 -97 0 -54 c0 -57 -24 -102 -85 -157 -15 -14 -36 -45 -47 -70 -11 -25 -43 -76 -72 -115 -56 -75 -350 -511 -403 -598 -17 -29 -48 -72 -68 -97 -19 -25 -52 -77 -71 -116 -20 -39 -63 -105 -95 -145 -32 -41 -68 -94 -80 -118 -21 -46 -56 -97 -95 -141 -12 -14 -35 -48 -51 -76 -37 -68 -99 -159 -140 -208 -18 -22 -33 -45 -33 -51 0 -6 -30 -53 -66 -105 -36 -51 -69 -103 -74 -115 -5 -12 -29 -48 -54 -78 -25 -31 -64 -91 -86 -133 -22 -43 -60 -100 -84 -128 -24 -28 -57 -78 -75 -111 -32 -62 -82 -138 -124 -190 -14 -16 -38 -53 -54 -80 -17 -28 -52 -80 -79 -115 -27 -35 -60 -85 -74 -111 -24 -45 -75 -126 -198 -311 -29 -43 -64 -102 -78 -131 -26 -50 -54 -88 -120 -166 -18 -20 -39 -53 -48 -74 -14 -35 -19 -38 -48 -35 l-33 3 2 51 c2 46 31 121 62 158 5 6 21 54 36 106 15 52 31 100 35 105 4 6 20 39 35 75 14 36 37 85 49 110 13 25 44 106 69 180 43 127 72 195 96 224 6 6 31 75 56 152 25 76 60 171 79 210 19 39 56 133 81 209 26 77 55 151 64 165 22 32 61 124 61 144 0 9 9 33 20 53 11 21 20 49 20 63 0 14 6 34 14 45 7 11 16 34 20 50 4 17 14 37 21 45 15 17 31 59 81 215 19 61 51 138 69 173 19 34 35 69 35 78 0 8 7 25 16 39 8 13 28 69 44 124 16 55 36 114 44 130 9 17 16 36 16 44 0 8 9 22 20 32 11 10 20 23 20 29 0 7 9 29 20 51 11 22 20 48 20 60 1 11 7 31 15 45 8 14 14 33 15 43 0 18 76 204 106 262 9 17 25 64 36 105 11 41 37 112 59 157 44 94 65 147 84 218 22 79 43 132 96 240 31 62 53 123 59 161 6 34 18 81 29 105 10 24 21 52 25 63 5 16 13 17 54 11 26 -3 52 -13 58 -21z m-5277 -433 c26 -26 44 -63 63 -131 52 -177 73 -237 104 -292 19 -33 39 -77 44 -97 65 -243 72 -266 95 -291 20 -22 70 -152 101 -261 15 -52 45 -134 68 -184 24 -49 53 -124 65 -165 13 -41 34 -100 46 -130 13 -30 26 -66 30 -80 4 -14 20 -52 36 -85 15 -33 40 -105 54 -160 15 -55 32 -106 38 -113 18 -23 95 -200 101 -234 14 -72 52 -179 102 -283 29 -61 57 -131 63 -155 18 -81 62 -204 90 -255 28 -48 101 -258 101 -287 0 -13 41 -99 65 -138 5 -8 24 -58 42 -110 70 -208 83 -243 101 -274 11 -18 25 -50 32 -72 7 -21 18 -48 25 -60 21 -33 55 -156 57 -210 l3 -49 -40 2 c-48 3 -63 18 -110 108 -21 39 -56 95 -80 125 -23 30 -56 83 -74 117 -17 34 -44 77 -59 95 -16 18 -54 76 -86 128 -32 52 -75 120 -96 150 -22 30 -47 70 -56 89 -20 41 -72 120 -194 296 -49 72 -99 150 -111 175 -11 25 -35 61 -54 80 -18 19 -56 73 -84 120 -28 47 -66 102 -85 123 -18 21 -55 77 -81 125 -27 48 -63 105 -82 128 -18 23 -33 44 -33 47 0 3 -16 29 -36 58 -20 30 -45 73 -54 95 -10 23 -28 48 -39 56 -23 17 -68 80 -82 116 -10 25 -48 80 -85 122 -12 14 -34 50 -50 80 -15 30 -50 81 -76 114 -27 32 -61 83 -75 113 -15 30 -45 75 -67 100 -43 49 -93 126 -138 213 -16 30 -37 62 -47 70 -20 17 -101 142 -101 156 0 5 -25 38 -55 72 -46 54 -55 69 -55 102 0 40 -2 37 116 175 46 53 258 269 301 307 41 35 95 95 190 212 40 48 59 58 121 65 6 0 21 -8 31 -18z"/>
</g>
</g>
</svg>
