<?xml version="1.0" standalone="no"?>
<!DOCTYPE svg PUBLIC "-//W3C//DTD SVG 1.1//EN"
 "http://www.w3.org/Graphics/SVG/1.1/DTD/svg11.dtd">
<!-- Created with svg_stack (http://github.com/astraw/svg_stack) -->
<svg xmlns:sodipodi="http://sodipodi.sourceforge.net/DTD/sodipodi-0.dtd" xmlns="http://www.w3.org/2000/svg" version="1.1" width="1600.0" height="1346.0">
  <defs/>
  <g id="id0:id0" transform="matrix(1.25,0,0,1.25,0.0,0.0)"><g transform="translate(0.000000,1076.800000) scale(0.040000,-0.040000)" fill="#000000" stroke="none">
<path d="M17855 26911 c-6 -6 -91 -15 -190 -21 -99 -6 -214 -17 -255 -25 -41 -8 -122 -19 -180 -25 -58 -5 -134 -16 -170 -24 -36 -9 -80 -16 -98 -16 -19 0 -57 -7 -85 -15 -29 -8 -83 -19 -122 -24 -72 -10 -163 -31 -248 -58 -27 -8 -70 -18 -95 -23 -59 -10 -168 -37 -250 -61 -34 -11 -72 -19 -84 -19 -22 0 -92 -21 -238 -72 -47 -16 -105 -36 -130 -43 -25 -8 -67 -22 -95 -31 -27 -10 -72 -25 -100 -35 -27 -9 -66 -22 -85 -29 -19 -7 -55 -18 -80 -25 -25 -7 -63 -21 -85 -30 -22 -10 -60 -27 -85 -38 -25 -11 -63 -28 -85 -38 -22 -9 -62 -27 -90 -40 -27 -12 -69 -30 -92 -40 -24 -11 -62 -27 -85 -38 -24 -10 -59 -25 -78 -34 -143 -62 -186 -84 -345 -174 -94 -53 -116 -65 -165 -91 -54 -29 -231 -128 -275 -155 -11 -7 -36 -24 -55 -38 -19 -14 -116 -81 -215 -148 -253 -170 -402 -285 -601 -463 -29 -26 -81 -69 -116 -96 -35 -28 -122 -112 -193 -189 -72 -76 -175 -185 -230 -243 -89 -93 -173 -196 -285 -348 -84 -115 -144 -184 -186 -212 -25 -16 -50 -30 -55 -30 -6 0 -22 -9 -36 -20 -14 -11 -34 -20 -44 -20 -10 0 -20 -4 -23 -9 -3 -5 -59 -36 -123 -69 -65 -33 -170 -87 -233 -120 -63 -33 -165 -86 -227 -117 -62 -31 -117 -63 -124 -71 -6 -8 -20 -14 -30 -14 -10 0 -20 -4 -23 -9 -4 -5 -54 -37 -114 -71 -59 -33 -114 -65 -122 -70 -8 -5 -69 -40 -134 -77 -65 -37 -140 -80 -165 -95 -25 -14 -68 -38 -96 -53 -27 -15 -61 -36 -74 -46 -13 -11 -27 -19 -31 -19 -4 0 -50 -28 -103 -62 -52 -35 -114 -75 -138 -90 -58 -36 -74 -47 -139 -89 -67 -44 -113 -73 -210 -134 -41 -26 -94 -60 -117 -76 -23 -16 -44 -29 -48 -29 -4 0 -32 -20 -63 -43 -31 -24 -75 -56 -97 -70 -22 -15 -71 -50 -110 -78 -38 -28 -101 -73 -140 -100 -38 -27 -101 -71 -140 -99 -38 -28 -101 -72 -140 -100 -38 -27 -115 -85 -170 -129 -95 -76 -165 -131 -366 -289 -166 -129 -290 -234 -391 -329 -57 -53 -155 -139 -218 -191 -124 -103 -809 -786 -918 -916 -37 -44 -103 -119 -147 -169 -44 -49 -107 -122 -140 -162 -33 -40 -82 -100 -110 -132 -48 -58 -85 -107 -202 -267 -29 -39 -79 -107 -112 -151 -109 -144 -185 -256 -251 -370 -9 -16 -58 -94 -109 -173 -50 -79 -91 -146 -91 -148 0 -3 -13 -25 -29 -48 -39 -56 -368 -712 -377 -751 -4 -16 -11 -35 -15 -41 -5 -6 -16 -31 -23 -55 -23 -69 -45 -131 -60 -164 -8 -16 -24 -57 -36 -90 -12 -33 -30 -80 -40 -105 -24 -58 -53 -152 -80 -260 -11 -47 -30 -115 -40 -151 -11 -36 -20 -72 -20 -80 0 -8 -8 -43 -19 -79 -39 -130 -61 -228 -61 -276 -1 -27 -7 -83 -15 -124 -8 -41 -19 -122 -25 -179 -6 -57 -17 -133 -25 -168 -21 -90 -21 -710 -1 -851 8 -53 18 -137 21 -187 4 -49 13 -115 20 -145 7 -30 16 -80 20 -111 4 -37 13 -63 26 -75 10 -9 19 -22 19 -27 0 -5 15 -28 33 -51 18 -23 54 -70 79 -106 56 -79 133 -155 171 -170 33 -12 117 -1 234 31 39 10 85 19 101 19 16 0 49 7 73 15 24 9 69 20 99 24 30 5 84 16 120 24 36 9 110 26 165 37 55 12 118 26 140 31 22 5 65 14 95 20 30 6 87 19 127 30 39 10 84 19 100 19 15 0 57 9 91 20 35 11 76 20 90 20 15 0 56 9 90 20 35 11 79 20 97 20 18 0 52 7 76 15 24 9 69 20 99 24 30 5 87 16 125 25 39 10 113 26 165 37 52 11 113 25 135 30 22 5 65 14 95 20 30 6 89 20 131 30 41 10 87 19 101 19 14 0 45 7 69 15 24 9 69 20 99 24 30 5 87 16 125 25 134 32 240 55 270 59 17 3 59 12 95 20 36 9 110 26 165 37 55 12 118 26 140 31 22 5 65 14 95 20 30 6 78 17 105 25 28 7 79 18 115 23 36 5 78 14 94 20 16 7 54 16 85 20 31 5 88 16 126 25 134 32 240 55 270 59 17 3 59 12 95 20 102 25 242 56 275 60 17 3 59 12 95 20 36 9 110 26 165 38 55 11 127 28 160 36 33 8 83 18 110 23 28 4 79 15 115 23 103 25 242 56 275 60 17 3 59 12 95 20 36 9 110 26 165 37 55 12 118 26 140 31 22 5 74 16 115 24 42 7 88 19 104 24 15 6 31 9 35 6 9 -5 -1 -80 -18 -141 -6 -22 -11 -57 -11 -78 0 -68 -47 -185 -97 -241 -56 -63 -205 -199 -303 -277 -105 -83 -457 -448 -577 -598 -55 -69 -131 -170 -168 -225 -38 -55 -83 -120 -100 -145 -27 -39 -71 -117 -160 -282 -47 -87 -77 -150 -120 -253 -25 -60 -52 -123 -60 -138 -8 -16 -15 -33 -15 -38 0 -5 -29 -69 -64 -142 -60 -125 -75 -173 -111 -346 -19 -94 -19 -266 0 -356 8 -39 15 -88 15 -111 0 -22 9 -72 20 -110 76 -258 89 -299 121 -370 11 -23 19 -46 19 -52 0 -6 9 -31 20 -54 19 -42 51 -114 105 -233 15 -33 38 -85 52 -115 48 -105 66 -145 83 -185 10 -22 24 -56 33 -75 115 -258 181 -410 188 -435 4 -16 20 -61 34 -100 27 -70 32 -87 65 -225 48 -195 60 -366 36 -480 -9 -41 -16 -88 -16 -104 0 -16 -8 -47 -19 -70 -10 -23 -31 -72 -46 -110 -14 -39 -39 -86 -54 -105 -16 -20 -45 -63 -66 -95 l-37 -59 -102 7 c-57 3 -143 13 -192 21 -108 18 -747 21 -804 5 -19 -6 -73 -17 -120 -25 -114 -19 -301 -73 -356 -103 -10 -6 -53 -26 -94 -46 -173 -81 -289 -165 -446 -321 -118 -116 -267 -301 -314 -387 -8 -16 -45 -79 -81 -141 -36 -61 -78 -141 -94 -177 -15 -36 -41 -92 -57 -125 -34 -71 -69 -161 -127 -325 -20 -57 -68 -208 -96 -305 -15 -49 -35 -112 -44 -140 l-18 -50 -104 -5 c-57 -3 -115 -11 -129 -17 -14 -5 -47 -14 -74 -17 -66 -10 -195 -68 -303 -135 -152 -96 -279 -221 -403 -401 -32 -47 -76 -110 -98 -140 -21 -31 -45 -68 -53 -83 -24 -46 -128 -247 -158 -306 -16 -31 -41 -85 -55 -121 -15 -36 -31 -72 -36 -81 -5 -9 -23 -54 -41 -100 -18 -46 -36 -88 -40 -94 -4 -5 -19 -41 -33 -80 -15 -38 -35 -90 -45 -115 -11 -25 -37 -93 -59 -153 -23 -59 -59 -154 -82 -210 -22 -57 -40 -107 -40 -111 0 -4 -6 -22 -14 -39 -24 -53 -66 -163 -66 -173 0 -5 -8 -25 -18 -44 -11 -19 -22 -53 -25 -76 -4 -22 -13 -63 -21 -90 -13 -47 -35 -130 -75 -294 -11 -41 -28 -111 -39 -155 -11 -44 -29 -116 -40 -160 -11 -44 -29 -116 -40 -160 -41 -165 -64 -251 -78 -295 -21 -65 -53 -179 -64 -225 -5 -22 -23 -78 -40 -125 -17 -47 -35 -99 -39 -115 -4 -17 -13 -41 -20 -53 -7 -13 -18 -42 -26 -65 -8 -23 -23 -67 -33 -97 -27 -74 -209 -437 -241 -479 -14 -19 -35 -49 -46 -67 -140 -233 -324 -443 -738 -844 -107 -103 -122 -114 -165 -121 -26 -4 -76 -15 -112 -24 -69 -18 -183 -46 -265 -66 -27 -6 -77 -17 -110 -24 -33 -7 -87 -20 -120 -29 -32 -9 -74 -16 -91 -16 -18 0 -45 -5 -61 -11 -15 -6 -71 -17 -123 -24 -52 -7 -129 -20 -170 -28 -281 -56 -847 -75 -1000 -34 -30 8 -82 18 -115 22 -33 4 -69 12 -79 17 -11 6 -42 16 -70 23 -68 17 -113 33 -158 56 -20 10 -41 19 -46 19 -12 0 -128 55 -177 85 -22 13 -53 31 -70 41 -69 39 -208 144 -320 242 -192 166 -349 350 -600 699 -38 53 -90 117 -115 142 l-45 46 -3 -44 c-2 -25 2 -54 8 -65 11 -21 40 -122 64 -226 7 -30 21 -77 30 -103 9 -26 16 -57 16 -68 0 -11 5 -29 11 -40 5 -11 17 -48 24 -82 8 -34 21 -84 30 -112 9 -27 25 -81 37 -120 11 -38 24 -83 30 -100 5 -16 14 -46 20 -65 23 -82 51 -168 68 -210 10 -25 30 -74 44 -110 99 -254 308 -538 467 -634 35 -21 89 -55 119 -75 30 -20 64 -41 75 -47 150 -82 268 -142 340 -174 22 -9 56 -24 75 -32 222 -96 476 -168 684 -194 60 -7 114 -18 120 -24 6 -6 121 -10 331 -10 257 1 324 3 338 15 10 7 53 16 95 20 43 3 111 14 152 25 215 53 252 64 275 77 11 6 36 16 55 21 19 6 64 22 100 35 36 14 81 31 100 37 19 7 53 21 76 31 23 11 46 19 52 19 7 0 35 13 64 28 29 16 103 55 163 87 61 33 128 69 150 82 22 12 54 29 70 37 17 7 93 58 170 111 77 54 160 112 185 128 86 58 186 135 275 213 50 44 124 106 165 139 98 77 555 534 650 650 41 50 113 133 160 186 47 53 128 151 180 218 52 67 120 153 150 190 50 62 149 199 175 240 6 9 22 32 38 52 70 92 447 663 447 677 0 5 9 17 20 27 11 10 20 22 20 27 0 5 17 40 39 76 38 66 87 154 123 222 10 19 23 42 28 50 5 8 33 57 61 108 28 51 55 95 60 98 5 3 9 13 9 23 0 10 7 24 16 31 8 8 21 27 29 44 8 17 41 81 74 141 34 61 95 178 137 260 42 83 107 202 145 265 37 63 73 125 78 138 10 21 48 74 164 224 55 73 240 245 297 278 81 46 130 70 145 70 8 0 32 9 52 20 21 11 51 20 68 20 16 0 55 7 85 15 128 34 415 6 655 -65 67 -20 131 -42 149 -52 10 -5 39 -16 65 -23 25 -7 78 -25 116 -40 132 -50 160 -55 254 -45 90 10 194 38 271 73 25 11 65 29 90 40 25 11 52 24 60 29 8 4 26 14 40 20 35 17 202 129 280 188 36 27 89 65 117 85 29 20 106 84 170 143 65 59 142 127 171 151 82 67 473 488 585 630 38 47 81 100 97 116 16 17 44 62 64 101 20 40 43 74 51 78 49 18 299 27 460 17 311 -21 395 -30 448 -44 28 -8 76 -17 105 -20 29 -4 76 -13 105 -21 79 -22 166 -45 227 -60 30 -8 71 -19 90 -26 19 -7 59 -21 88 -31 144 -50 162 -58 347 -144 44 -20 105 -48 135 -62 88 -40 212 -102 255 -128 105 -63 164 -98 205 -125 25 -16 74 -46 109 -67 35 -21 78 -46 95 -57 30 -17 79 -53 211 -152 106 -79 186 -138 250 -184 63 -45 138 -107 324 -269 53 -46 114 -97 136 -113 37 -27 401 -365 490 -453 51 -52 208 -231 271 -310 26 -33 82 -98 124 -145 41 -47 101 -116 132 -155 81 -100 655 -675 767 -770 52 -44 145 -125 205 -181 194 -176 526 -418 755 -550 57 -32 119 -69 139 -80 39 -23 86 -46 217 -109 75 -36 121 -55 220 -89 22 -8 76 -28 120 -45 44 -17 89 -31 100 -31 11 0 49 -9 85 -19 36 -11 119 -30 185 -43 108 -21 148 -23 395 -22 295 0 333 5 554 68 86 25 77 15 120 136 9 25 23 57 31 72 8 14 15 32 15 40 0 8 9 31 20 53 11 22 20 43 20 49 0 5 8 27 19 50 10 23 28 68 40 101 12 33 31 79 42 103 10 23 19 48 19 54 0 11 13 43 61 144 10 23 19 47 19 54 0 7 8 31 19 54 50 112 61 138 61 149 0 7 9 29 20 50 11 20 20 45 20 55 0 10 4 22 9 27 5 6 26 48 46 95 20 47 42 97 50 112 8 14 15 33 15 41 0 8 9 26 20 40 11 14 20 33 20 44 0 10 9 29 20 43 11 14 20 33 20 42 0 9 5 20 11 24 6 3 19 25 30 48 11 22 39 77 63 121 23 44 56 105 72 135 46 86 233 362 348 515 76 102 375 401 486 486 47 37 122 90 168 119 45 29 82 59 82 66 0 16 -45 48 -174 124 -32 19 -73 44 -92 55 -67 40 -168 101 -200 120 -18 11 -63 38 -100 60 -37 22 -82 49 -100 60 -18 11 -61 37 -96 58 -86 51 -95 57 -155 95 l-53 33 -2 57 c-3 91 -1 98 36 151 20 28 36 53 36 55 0 3 26 44 58 93 32 48 77 117 99 153 23 36 51 79 63 95 11 17 38 57 58 90 21 33 56 87 78 120 21 33 44 67 49 76 6 8 24 37 40 63 79 124 196 304 215 331 12 17 41 62 65 100 78 124 126 185 146 185 11 0 36 -7 57 -16 20 -9 57 -22 82 -29 72 -21 144 -46 161 -55 9 -5 36 -14 60 -20 24 -6 58 -17 74 -24 33 -15 106 -40 175 -60 25 -8 61 -19 80 -26 124 -44 126 -44 345 -109 39 -11 86 -23 105 -27 19 -3 47 -13 62 -20 15 -8 37 -14 50 -14 12 0 52 -9 88 -19 36 -11 92 -24 125 -30 33 -6 78 -15 100 -20 93 -23 245 -50 310 -55 39 -4 95 -13 125 -21 30 -8 93 -15 140 -15 47 0 148 -7 225 -15 164 -18 549 -20 710 -4 61 5 207 14 325 18 331 13 372 31 671 306 214 197 250 233 336 340 87 109 123 162 123 179 0 7 8 24 18 37 30 41 63 160 75 273 10 87 9 131 -1 215 -12 99 -23 146 -72 311 -11 36 -29 99 -41 140 -12 41 -29 102 -39 135 -10 33 -28 94 -40 135 -50 174 -62 217 -72 245 -11 33 -41 140 -62 220 -7 28 -21 72 -30 100 l-17 50 20 15 c11 8 42 28 68 44 110 67 324 205 353 227 14 11 35 24 48 29 30 13 28 24 -13 78 -20 26 -62 83 -95 127 -93 126 -170 229 -237 315 -36 47 -60 87 -57 95 3 8 25 27 48 42 47 32 149 108 267 201 44 34 83 62 88 62 28 0 13 46 -48 155 -66 117 -82 149 -121 250 -23 61 -48 124 -56 140 -8 17 -19 53 -24 80 -5 28 -17 79 -26 115 -15 56 -18 110 -17 390 0 179 5 345 10 370 l8 45 50 8 c28 4 68 12 90 18 22 5 65 14 95 20 30 6 73 15 95 20 22 5 65 14 95 20 30 6 73 15 95 20 22 5 67 14 100 20 33 6 83 17 111 25 28 7 73 17 100 20 27 3 78 15 113 25 35 10 78 19 97 19 18 0 57 9 86 20 48 18 60 30 130 124 42 57 83 120 91 139 8 19 20 38 26 41 6 4 11 15 11 24 0 9 9 28 20 42 11 14 20 37 20 52 0 14 9 55 20 90 15 48 20 91 20 182 0 131 -4 143 -82 237 -21 26 -38 50 -38 54 0 5 -15 26 -34 49 -18 23 -50 66 -70 96 -20 30 -59 87 -87 125 -28 39 -73 102 -100 140 -27 39 -72 102 -100 140 -28 39 -72 102 -99 140 -27 39 -83 117 -125 175 -89 124 -195 273 -322 453 -26 38 -69 97 -95 132 -27 36 -48 67 -48 71 0 4 -15 25 -34 48 -18 23 -50 66 -70 96 -20 30 -61 89 -91 130 -30 41 -75 104 -100 140 -25 36 -68 97 -96 135 -28 39 -69 97 -91 130 -23 33 -56 78 -74 100 -17 22 -39 55 -48 73 -15 29 -15 35 -1 61 8 17 19 33 25 36 6 4 17 21 25 38 9 18 34 62 58 99 101 161 137 221 137 228 0 4 9 15 20 25 11 10 20 23 20 29 0 5 12 27 26 48 24 35 25 41 16 90 -6 29 -22 91 -37 138 -15 47 -33 108 -40 135 -8 28 -20 70 -28 95 -8 25 -24 79 -36 120 -12 41 -27 89 -32 105 -6 17 -18 57 -26 90 -8 33 -19 64 -24 70 -5 5 -9 17 -9 26 0 10 -12 55 -26 101 -14 46 -34 115 -46 153 -11 39 -24 84 -30 100 -6 17 -16 53 -23 80 -7 28 -21 73 -29 100 -9 28 -26 82 -37 120 -12 39 -25 84 -31 100 -5 17 -16 53 -23 80 -15 56 -45 134 -69 180 -9 17 -16 35 -16 42 0 6 -6 24 -14 40 -8 15 -26 53 -39 83 -13 30 -35 77 -47 104 l-23 49 19 14 c10 8 42 20 69 27 28 7 70 19 95 25 25 7 65 17 90 23 25 5 74 18 110 28 95 26 149 40 200 51 25 6 74 19 110 29 36 10 88 24 115 31 98 23 131 32 195 49 62 17 114 30 205 53 22 5 69 17 105 27 101 27 151 40 200 52 25 5 74 18 110 28 61 17 111 29 205 53 22 5 69 17 105 27 62 17 114 30 205 53 22 5 69 17 105 27 62 17 114 30 205 53 22 5 69 17 105 27 109 30 152 41 215 55 33 8 87 21 120 30 61 17 163 44 245 65 25 6 70 17 100 24 30 7 80 20 110 29 67 19 128 34 200 52 96 23 184 46 231 61 25 8 67 19 95 24 52 9 127 29 234 61 36 11 73 19 83 19 10 0 46 9 80 19 64 20 113 33 207 55 30 7 80 20 110 29 30 8 78 21 105 27 115 29 133 33 195 50 101 27 151 40 200 52 25 5 74 18 110 28 94 26 149 40 200 52 25 5 74 18 110 28 65 18 130 34 205 52 22 6 67 18 100 29 33 11 68 19 78 19 17 0 96 57 180 130 22 19 48 54 58 77 10 24 23 43 29 43 6 0 10 68 10 199 0 159 -3 201 -14 210 -8 7 -17 31 -21 54 -4 23 -13 51 -20 63 -7 11 -18 36 -23 55 -6 19 -23 66 -37 104 -34 92 -63 170 -80 220 -7 22 -34 78 -59 125 -25 47 -51 96 -57 110 -6 14 -15 32 -20 40 -4 8 -41 80 -81 160 -40 80 -122 218 -183 308 -60 89 -117 173 -125 186 -85 134 -232 324 -340 442 -32 34 -93 106 -137 160 -44 55 -137 152 -207 217 -236 221 -411 379 -466 421 -30 22 -89 68 -131 101 -236 188 -305 240 -400 300 -9 5 -29 19 -45 29 -16 11 -58 38 -94 61 -36 23 -123 80 -195 127 -141 92 -277 171 -312 182 -11 4 -27 13 -33 21 -7 8 -20 15 -30 15 -9 0 -25 9 -34 19 -10 11 -31 23 -47 26 -16 4 -31 10 -34 15 -3 5 -36 24 -73 43 -37 19 -85 45 -107 57 -61 35 -144 76 -210 106 -33 14 -78 35 -101 45 -22 11 -45 19 -51 19 -6 0 -16 7 -23 15 -7 8 -23 15 -35 15 -12 0 -34 9 -48 20 -14 11 -30 20 -36 20 -9 0 -108 44 -226 100 -22 10 -62 27 -90 38 -27 11 -75 29 -105 41 -31 11 -59 21 -63 21 -4 0 -24 7 -45 17 -20 9 -55 22 -77 29 -68 21 -129 44 -155 58 -14 8 -41 17 -60 21 -19 4 -44 14 -55 21 -11 8 -27 14 -37 14 -10 0 -37 9 -60 19 -24 11 -77 29 -118 41 -41 12 -95 29 -120 37 -44 14 -66 20 -215 62 -38 10 -83 24 -100 30 -16 6 -70 22 -120 36 -49 14 -103 30 -120 36 -35 13 -163 44 -255 63 -65 14 -157 35 -260 61 -120 30 -198 48 -265 60 -38 7 -81 18 -95 23 -14 5 -54 12 -90 16 -36 4 -90 13 -120 21 -30 7 -80 16 -110 19 -30 4 -86 13 -125 21 -101 20 -250 45 -328 55 -37 5 -103 16 -145 24 -42 8 -121 17 -174 20 -54 4 -130 13 -170 20 -40 8 -116 17 -168 21 -52 3 -131 12 -175 20 -44 7 -136 16 -205 20 -69 3 -190 12 -270 20 -80 8 -219 17 -310 20 -91 3 -199 10 -240 16 -41 5 -370 12 -730 15 l-655 5 -50 24 c-27 12 -71 32 -96 44 -25 12 -50 21 -56 21 -6 0 -16 7 -23 15 -7 8 -20 15 -29 15 -9 0 -29 7 -46 16 -16 9 -48 22 -70 29 -106 36 -159 56 -169 64 -6 5 -27 12 -46 16 -19 4 -44 14 -55 21 -11 8 -29 14 -40 14 -11 1 -38 8 -60 16 -22 8 -62 21 -90 29 -27 7 -63 17 -80 23 -98 33 -165 51 -205 57 -25 4 -53 11 -62 16 -10 6 -44 14 -75 20 -32 5 -78 16 -103 24 -44 13 -148 34 -305 60 -44 8 -96 18 -115 23 -19 6 -73 13 -120 16 -47 4 -114 13 -150 21 -36 8 -144 19 -240 25 -96 6 -179 15 -185 21 -12 12 -1098 12 -1110 0z"/>
</g>
</g>
</svg>
