<?xml version="1.0" standalone="no"?>
<!DOCTYPE svg PUBLIC "-//W3C//DTD SVG 1.1//EN"
 "http://www.w3.org/Graphics/SVG/1.1/DTD/svg11.dtd">
<!-- Created with svg_stack (http://github.com/astraw/svg_stack) -->
<svg xmlns:sodipodi="http://sodipodi.sourceforge.net/DTD/sodipodi-0.dtd" xmlns="http://www.w3.org/2000/svg" version="1.1" width="2000.0" height="524.0">
  <defs/>
  <g id="id0:id0" transform="matrix(1.25,0,0,1.25,0.0,0.0)"><g transform="translate(0.000000,419.200000) scale(0.040000,-0.040000)" fill="#ffffff" stroke="none">
<path d="M22522 8198 c-17 -17 -18 -5418 0 -5436 9 -9 101 -12 354 -12 188 0 349 3 358 6 15 6 16 254 16 2719 0 2158 -3 2715 -12 2723 -20 16 -700 16 -716 0z"/>
<path d="M11802 6550 c-14 -15 -37 -19 -125 -22 -86 -4 -110 -8 -120 -21 -9 -13 -28 -18 -74 -18 -51 -1 -67 -5 -89 -25 -20 -19 -32 -23 -58 -19 -25 5 -37 1 -60 -20 -22 -21 -34 -24 -61 -19 -27 5 -37 2 -51 -15 -11 -12 -30 -21 -46 -21 -17 0 -31 -7 -38 -20 -7 -13 -21 -20 -40 -20 -19 0 -33 -7 -40 -20 -6 -11 -21 -20 -34 -20 -13 0 -38 -14 -57 -32 -30 -29 -33 -38 -35 -95 -2 -54 2 -66 22 -89 19 -20 23 -32 19 -58 -5 -25 -1 -37 20 -60 20 -22 24 -34 20 -60 -5 -23 -1 -38 14 -58 12 -14 21 -37 21 -51 0 -29 16 -37 71 -37 33 0 46 6 78 40 21 22 47 40 58 40 11 0 32 11 46 24 21 19 34 24 59 19 26 -4 39 1 60 20 22 20 35 25 60 20 26 -4 39 1 60 20 22 21 35 25 62 20 27 -4 38 -1 52 16 17 20 28 21 161 21 131 0 145 2 160 20 13 15 30 20 65 20 37 0 50 -4 58 -20 10 -18 21 -20 140 -20 121 0 130 -1 141 -21 8 -15 18 -20 35 -16 19 3 29 -2 41 -20 12 -18 22 -23 39 -19 18 5 28 0 40 -20 12 -18 23 -24 38 -20 27 7 116 -78 116 -111 0 -13 16 -37 40 -59 26 -24 40 -46 40 -62 0 -14 11 -35 25 -48 22 -20 25 -30 19 -58 -5 -28 -2 -38 15 -52 19 -17 21 -29 21 -161 0 -78 -4 -144 -8 -147 -5 -3 -62 -6 -127 -8 -96 -2 -122 -6 -134 -20 -14 -14 -43 -17 -220 -19 -186 -2 -205 -4 -221 -22 -15 -15 -34 -19 -104 -21 -68 -1 -88 -5 -98 -19 -10 -13 -29 -18 -76 -18 -49 -1 -67 -6 -81 -20 -14 -15 -32 -20 -80 -20 -49 -1 -67 -6 -79 -20 -9 -10 -27 -19 -41 -19 -13 0 -34 -11 -47 -25 -20 -22 -30 -25 -58 -19 -28 5 -38 2 -52 -15 -11 -12 -30 -21 -46 -21 -17 0 -31 -7 -38 -20 -6 -11 -21 -20 -35 -20 -15 0 -38 -15 -63 -41 -21 -23 -49 -42 -61 -43 -30 -1 -331 -303 -331 -331 0 -12 -17 -36 -40 -56 -26 -23 -40 -42 -40 -59 0 -14 -9 -34 -21 -44 -17 -14 -20 -24 -15 -51 5 -27 2 -38 -17 -59 -21 -22 -24 -36 -26 -108 -1 -66 -5 -85 -20 -99 -18 -17 -19 -34 -19 -179 0 -146 1 -162 19 -179 16 -14 19 -32 20 -100 1 -68 4 -86 20 -99 10 -9 19 -29 19 -44 0 -17 7 -31 20 -38 13 -7 20 -21 20 -40 0 -19 7 -33 20 -40 12 -6 20 -21 20 -35 0 -15 15 -38 40 -61 23 -21 40 -46 40 -59 0 -29 146 -175 175 -175 13 0 38 -17 59 -40 23 -25 46 -40 61 -40 14 0 29 -9 36 -21 7 -15 18 -20 34 -16 17 3 31 -4 45 -21 18 -20 28 -23 57 -19 28 5 39 2 58 -18 20 -23 30 -25 106 -25 72 0 87 -3 102 -20 15 -18 29 -20 177 -20 148 0 162 2 177 20 15 18 30 20 119 20 93 0 103 2 127 24 21 20 34 24 61 19 28 -4 38 -1 56 20 13 15 29 23 40 20 11 -3 27 4 40 20 13 15 29 23 40 20 11 -3 27 4 40 20 13 15 29 23 40 20 11 -3 26 4 36 16 10 12 29 21 41 21 15 0 65 43 161 141 77 77 143 136 146 131 3 -6 7 -45 7 -87 1 -63 4 -80 20 -93 16 -14 19 -31 19 -122 0 -69 4 -110 12 -118 9 -9 92 -12 314 -12 166 0 309 3 318 6 13 5 16 23 16 95 0 77 -3 92 -20 106 l-20 17 0 1123 0 1123 -20 17 c-18 16 -20 30 -20 140 0 111 -2 125 -20 140 -16 14 -20 30 -20 79 0 51 -4 65 -25 88 -20 22 -24 34 -20 60 5 23 1 38 -14 58 -12 14 -21 33 -21 42 0 9 -9 24 -20 33 -11 10 -20 27 -20 39 0 12 -9 33 -20 47 -11 14 -20 32 -20 40 0 9 -18 33 -40 55 -22 21 -40 48 -40 59 0 27 -147 173 -175 173 -13 0 -38 17 -59 40 -20 22 -45 40 -55 40 -10 0 -26 9 -36 20 -10 11 -28 20 -40 20 -12 0 -30 9 -40 20 -10 11 -30 20 -44 20 -15 0 -35 9 -45 21 -14 17 -24 20 -51 15 -27 -5 -38 -2 -59 17 -22 21 -35 23 -127 25 -87 2 -106 5 -121 22 -17 18 -34 19 -278 18 -239 0 -262 -2 -278 -18z m1026 -2249 l2 -324 -20 -19 c-16 -15 -20 -32 -20 -83 0 -54 -3 -66 -20 -75 -13 -7 -20 -21 -20 -38 0 -15 -9 -35 -20 -45 -11 -9 -20 -27 -20 -38 0 -13 -18 -39 -40 -61 -24 -23 -40 -49 -40 -62 0 -28 -92 -118 -112 -111 -8 3 -34 -14 -59 -39 -34 -33 -51 -43 -67 -40 -14 4 -24 -1 -31 -15 -8 -14 -21 -21 -41 -21 -19 0 -33 -7 -40 -20 -7 -13 -21 -20 -39 -20 -17 0 -34 -8 -42 -20 -13 -19 -26 -20 -253 -21 l-238 0 -22 20 c-12 12 -34 21 -49 21 -16 0 -30 8 -37 20 -7 12 -21 20 -37 20 -34 0 -113 74 -113 106 0 13 -17 39 -41 62 -36 34 -41 45 -43 85 -1 30 -7 51 -18 59 -15 11 -17 37 -19 196 l-2 183 23 16 c16 11 20 22 16 39 -5 19 -1 27 20 36 21 10 25 17 20 39 -4 22 0 31 20 44 19 12 24 23 20 38 -4 17 6 33 43 70 28 26 58 47 70 47 13 0 39 18 62 42 25 26 49 42 65 43 14 0 30 8 35 18 6 9 20 17 33 17 13 0 35 11 49 24 21 20 34 24 61 19 27 -4 38 -1 52 16 15 17 30 21 81 21 51 0 67 4 80 20 15 17 30 20 100 20 71 0 86 3 100 20 l18 20 265 -2 265 -3 3 -324z"/>
<path d="M16042 6550 c-14 -15 -37 -19 -123 -22 -93 -4 -108 -7 -128 -27 -17 -17 -29 -20 -54 -16 -26 5 -38 1 -61 -20 -22 -21 -34 -24 -61 -19 -26 4 -37 1 -53 -16 -11 -12 -31 -23 -44 -24 -14 -2 -40 -20 -59 -40 -19 -21 -45 -38 -60 -40 -15 -2 -41 -19 -61 -41 -19 -21 -44 -38 -56 -39 -28 -1 -212 -182 -212 -208 0 -19 -85 -110 -94 -100 -3 3 -6 77 -6 164 0 146 -2 160 -20 175 -17 15 -20 30 -20 104 0 57 -4 90 -12 97 -8 6 -125 11 -314 11 -265 2 -304 0 -318 -14 -22 -22 -20 -52 4 -72 l20 -17 0 -2546 c0 -1967 3 -2549 12 -2558 9 -9 101 -12 354 -12 188 0 349 3 358 6 14 6 16 97 16 934 0 511 4 931 8 934 4 2 52 -40 107 -95 64 -64 106 -99 120 -99 13 0 38 -17 59 -40 23 -25 46 -40 61 -40 14 0 29 -9 36 -21 8 -15 18 -20 35 -16 19 3 29 -2 41 -20 12 -18 23 -23 40 -20 18 3 29 -2 40 -19 14 -21 23 -24 82 -24 54 0 70 -4 84 -20 14 -17 29 -20 100 -20 70 0 85 -3 100 -20 16 -19 29 -20 197 -20 168 0 181 1 197 20 15 17 30 20 100 20 71 0 86 3 100 20 14 16 30 20 80 20 54 0 66 3 84 24 13 14 28 22 39 19 11 -3 27 4 40 20 13 15 29 23 40 20 11 -3 27 4 40 20 13 15 29 23 40 20 11 -3 26 4 36 16 10 12 29 21 42 21 14 0 38 16 61 40 21 22 47 40 58 40 28 0 373 343 373 372 0 12 16 35 40 55 26 22 40 43 40 58 0 13 10 31 21 39 16 11 20 21 15 40 -5 22 -2 28 20 38 21 10 25 17 20 39 -4 20 1 32 21 49 22 19 24 27 19 60 -5 33 -3 40 20 55 24 15 26 22 21 60 -6 38 -4 45 19 60 24 15 25 21 22 81 -2 56 0 65 19 79 21 14 22 23 20 101 -2 78 0 86 20 100 l23 14 0 365 0 364 -20 19 c-17 16 -20 32 -21 101 -1 68 -4 86 -20 99 -15 13 -19 30 -19 78 0 51 -4 65 -25 88 -20 22 -24 34 -20 60 5 23 1 38 -14 58 -12 14 -21 33 -21 41 0 8 -11 26 -25 41 -21 22 -24 34 -19 61 5 29 1 37 -35 70 -24 23 -41 47 -41 60 0 12 -9 34 -20 48 -11 14 -20 32 -20 40 0 8 -27 41 -60 73 -37 35 -60 66 -60 79 0 29 -146 175 -175 175 -13 0 -44 23 -79 60 -37 38 -66 60 -80 60 -14 0 -38 16 -60 40 -22 24 -46 40 -59 40 -12 0 -31 9 -41 21 -14 17 -24 20 -51 15 -27 -5 -39 -2 -61 19 -23 21 -35 25 -60 20 -25 -4 -38 0 -58 18 -21 20 -36 23 -107 25 -67 1 -86 5 -100 21 -17 18 -33 19 -219 19 -181 0 -203 -2 -218 -18z m121 -580 c14 -17 29 -20 102 -20 75 0 85 -2 96 -21 8 -15 18 -20 35 -16 19 3 29 -2 41 -20 12 -18 22 -23 39 -19 18 5 27 0 40 -19 11 -17 25 -25 44 -25 18 0 38 -12 64 -40 21 -23 46 -40 59 -40 28 0 107 -78 107 -106 0 -14 22 -44 60 -80 45 -43 60 -64 60 -85 0 -18 7 -32 20 -39 13 -7 20 -21 20 -40 0 -19 7 -33 20 -40 12 -6 20 -21 20 -37 0 -15 11 -36 25 -49 22 -20 25 -30 20 -58 -5 -26 -2 -38 14 -53 18 -17 21 -32 22 -102 1 -68 4 -86 20 -99 18 -16 19 -34 19 -342 l0 -326 -20 -17 c-16 -13 -20 -29 -20 -80 0 -51 -4 -66 -21 -81 -17 -14 -20 -24 -15 -51 5 -27 2 -39 -19 -61 -21 -23 -25 -35 -20 -60 4 -26 0 -38 -20 -60 -14 -15 -25 -37 -25 -48 0 -12 -9 -29 -20 -39 -11 -9 -20 -27 -20 -40 0 -16 -20 -43 -60 -81 -39 -37 -60 -66 -60 -81 0 -27 -92 -117 -112 -110 -8 3 -34 -14 -59 -39 -34 -33 -51 -43 -67 -40 -14 4 -24 -1 -31 -15 -8 -14 -21 -21 -41 -21 -19 0 -33 -7 -40 -20 -7 -13 -21 -20 -39 -20 -17 0 -34 -8 -42 -20 -12 -16 -28 -20 -103 -23 -69 -3 -90 -8 -98 -20 -7 -14 -27 -17 -116 -17 -95 0 -110 2 -125 20 -13 16 -29 20 -80 20 -51 0 -66 4 -81 21 -14 17 -24 20 -52 15 -28 -6 -38 -3 -58 19 -13 14 -34 25 -49 25 -16 0 -31 8 -37 20 -7 12 -21 20 -38 20 -21 0 -56 30 -169 142 -97 97 -143 150 -143 165 0 12 -17 38 -41 61 -36 33 -41 45 -43 84 -1 28 -8 54 -19 65 -9 11 -17 27 -17 36 0 9 -9 25 -20 35 l-20 18 0 543 -1 543 21 15 c19 13 21 23 18 79 -3 57 0 65 20 80 18 12 22 22 18 40 -5 19 -1 27 20 36 21 10 25 17 20 39 -4 22 0 31 20 44 19 12 24 22 20 38 -4 17 9 35 59 84 40 38 65 71 65 84 0 28 48 78 70 72 11 -3 38 17 79 58 41 42 70 63 87 64 14 0 30 8 35 18 6 9 20 17 33 17 13 0 35 11 49 24 21 20 34 24 61 19 27 -4 38 -1 52 16 16 18 29 21 101 21 71 0 86 3 100 20 14 16 30 20 83 20 53 0 69 -4 83 -20z"/>
<path d="M20122 6549 c-14 -14 -37 -18 -123 -21 -93 -4 -108 -7 -128 -27 -17 -17 -29 -20 -56 -15 -27 5 -37 2 -51 -15 -11 -12 -30 -21 -46 -21 -17 0 -31 -7 -38 -20 -7 -13 -21 -20 -40 -20 -19 0 -33 -7 -40 -20 -7 -13 -21 -20 -40 -20 -19 0 -33 -7 -40 -20 -6 -11 -21 -20 -33 -20 -16 0 -52 -28 -109 -85 -61 -62 -90 -84 -102 -79 -23 9 -46 -14 -46 -45 0 -21 -20 -46 -84 -109 -46 -44 -86 -78 -90 -75 -3 4 -6 124 -6 268 0 198 -3 265 -12 273 -19 15 -616 16 -634 1 -12 -10 -14 -86 -14 -476 l1 -464 20 -17 19 -16 0 -2106 c0 -1625 3 -2109 12 -2118 9 -9 97 -12 334 -12 177 0 329 3 338 6 14 6 16 99 16 954 0 522 4 951 8 954 5 3 29 -15 53 -40 33 -34 44 -53 44 -77 0 -30 3 -32 36 -35 30 -2 47 -14 94 -63 36 -38 65 -59 79 -59 14 0 38 -16 60 -40 22 -24 46 -40 59 -40 12 0 31 -10 41 -21 14 -17 25 -20 52 -16 27 5 40 1 62 -20 21 -20 34 -24 60 -19 27 4 38 0 57 -19 21 -23 29 -25 126 -25 93 0 107 -2 122 -20 16 -19 28 -21 178 -19 150 1 163 3 183 23 19 19 30 20 116 17 90 -3 97 -1 122 23 22 19 35 24 60 19 26 -4 39 1 60 20 22 21 35 25 62 20 27 -4 38 -1 52 16 10 11 29 21 41 21 13 0 31 9 40 20 10 11 28 20 41 20 14 0 38 16 61 40 21 22 47 40 58 40 13 0 53 32 101 80 49 50 87 80 100 80 32 0 92 57 92 87 0 19 21 47 80 104 45 44 80 86 80 97 0 10 9 27 20 37 12 11 20 28 18 40 -2 14 12 35 41 63 41 39 43 44 37 82 -6 37 -4 41 20 52 21 10 25 17 20 39 -4 20 1 32 21 49 22 19 24 27 19 60 -5 33 -3 40 20 55 24 15 26 22 21 60 -6 38 -4 45 18 59 24 16 25 21 23 101 -2 78 -1 86 20 101 l22 15 0 444 0 444 -20 19 c-17 16 -20 32 -21 100 -1 71 -4 84 -25 107 -20 21 -23 33 -18 60 4 26 1 37 -16 53 -16 15 -23 33 -24 65 -1 27 -8 53 -19 64 -9 11 -17 27 -17 36 0 10 -9 25 -20 34 -11 10 -20 28 -20 40 0 13 -9 31 -20 40 -11 10 -20 27 -20 39 0 12 -9 33 -20 47 -11 14 -20 32 -20 40 0 9 -18 33 -40 55 -22 21 -40 48 -40 58 0 28 -268 294 -295 294 -13 0 -44 24 -79 60 -32 33 -66 60 -75 60 -10 0 -26 9 -36 20 -10 11 -30 20 -44 20 -15 0 -35 9 -45 21 -14 17 -24 20 -51 15 -27 -5 -39 -2 -61 19 -23 21 -35 25 -60 20 -25 -4 -38 0 -58 18 -21 20 -36 23 -107 25 -68 1 -86 5 -101 21 -17 19 -31 20 -219 19 -179 -1 -203 -3 -217 -19z m121 -579 c14 -17 29 -20 100 -20 71 0 87 -3 102 -20 13 -14 31 -20 61 -20 33 0 46 -5 54 -20 7 -13 21 -20 39 -20 20 0 39 -12 65 -40 21 -23 46 -40 59 -40 30 0 227 -196 227 -227 0 -13 16 -37 40 -59 28 -26 40 -45 40 -65 0 -18 7 -32 20 -39 12 -6 20 -21 20 -37 0 -15 11 -36 25 -49 22 -20 25 -30 19 -58 -5 -28 -2 -38 15 -52 17 -15 21 -30 21 -81 0 -49 4 -66 20 -80 17 -17 19 -34 21 -162 1 -127 4 -145 20 -159 16 -14 19 -31 19 -102 0 -71 -3 -88 -19 -102 -16 -14 -19 -32 -20 -159 -2 -130 -4 -145 -22 -162 -16 -15 -19 -27 -15 -52 5 -27 2 -39 -19 -61 -21 -23 -25 -35 -20 -60 4 -26 0 -38 -20 -60 -21 -23 -25 -35 -20 -60 4 -26 0 -38 -20 -60 -14 -15 -25 -36 -25 -47 0 -11 -18 -38 -40 -59 -23 -22 -40 -49 -40 -61 0 -30 -197 -227 -226 -227 -11 0 -41 -20 -66 -44 -33 -33 -50 -43 -66 -40 -14 4 -24 -1 -31 -15 -9 -16 -21 -21 -53 -21 -29 0 -49 -7 -64 -21 -19 -18 -36 -21 -109 -23 -70 -2 -89 -5 -96 -19 -15 -26 -178 -25 -200 1 -12 15 -32 19 -99 20 -70 1 -86 5 -103 23 -15 16 -27 19 -52 15 -27 -5 -39 -2 -61 19 -15 14 -37 25 -49 25 -13 0 -37 17 -59 40 -21 23 -46 40 -59 40 -30 0 -227 196 -227 227 0 13 -16 37 -40 59 -25 23 -40 46 -40 61 0 13 -9 31 -20 40 -11 10 -20 28 -20 40 0 13 -9 31 -20 40 -16 14 -20 30 -20 80 0 49 -4 66 -20 81 l-19 18 -1 483 -1 483 21 15 c19 13 21 23 18 79 -3 57 0 65 20 80 17 12 22 23 18 39 -4 15 2 28 20 44 22 19 25 29 21 59 -6 32 -2 39 38 77 28 26 45 50 45 64 0 32 238 271 269 271 12 0 38 17 60 40 21 22 47 40 58 40 11 0 32 11 46 24 21 20 34 24 61 19 27 -4 38 -1 52 16 16 18 29 21 101 21 71 0 86 3 100 20 14 16 30 20 83 20 53 0 69 -4 83 -20z"/>
<path d="M25322 6550 c-14 -15 -37 -19 -123 -22 -93 -4 -108 -7 -128 -27 -17 -17 -29 -20 -56 -15 -27 5 -37 2 -51 -15 -11 -12 -30 -21 -46 -21 -17 0 -31 -7 -38 -20 -7 -13 -21 -20 -40 -20 -19 0 -33 -7 -40 -20 -7 -13 -21 -20 -40 -20 -19 0 -33 -7 -40 -20 -6 -11 -21 -20 -35 -20 -15 0 -38 -15 -63 -41 -21 -23 -49 -42 -61 -43 -30 -1 -371 -343 -371 -371 0 -12 -17 -36 -40 -56 -28 -24 -40 -42 -40 -61 0 -17 -8 -31 -20 -38 -13 -7 -20 -21 -20 -40 0 -19 -7 -33 -20 -40 -13 -7 -20 -21 -20 -38 0 -15 -9 -35 -20 -45 -11 -9 -20 -27 -20 -40 0 -12 -9 -31 -21 -41 -17 -14 -20 -24 -15 -51 5 -27 2 -39 -19 -61 -21 -23 -25 -37 -25 -88 0 -49 -4 -65 -20 -79 -16 -13 -20 -29 -20 -80 0 -50 -4 -66 -20 -79 l-19 -17 0 -441 0 -440 19 -18 c17 -15 20 -33 21 -100 1 -71 4 -84 25 -107 20 -22 23 -33 18 -60 -5 -27 -2 -37 15 -51 12 -10 21 -29 21 -43 0 -13 11 -34 25 -47 22 -20 25 -30 19 -58 -5 -28 -2 -38 15 -52 12 -10 21 -29 21 -41 0 -13 16 -37 40 -59 24 -23 40 -46 40 -60 0 -14 16 -38 40 -60 23 -21 40 -46 40 -59 0 -29 226 -255 255 -255 13 0 44 -24 79 -60 39 -40 66 -60 82 -60 13 0 28 -9 35 -21 8 -15 18 -20 35 -16 19 3 29 -2 41 -20 12 -18 22 -23 39 -19 18 5 28 0 40 -20 13 -18 24 -24 40 -21 16 3 30 -4 44 -21 18 -20 28 -23 57 -19 28 5 39 2 58 -18 19 -22 31 -25 86 -25 52 0 68 -4 82 -20 15 -18 29 -20 120 -20 90 0 105 -2 120 -20 16 -19 29 -20 257 -20 228 0 241 1 257 20 16 18 30 20 160 20 131 0 145 2 160 20 15 17 30 20 100 20 71 0 86 3 100 20 14 16 30 20 79 20 51 0 65 4 87 24 21 19 34 24 59 19 26 -4 39 1 60 20 22 21 35 25 61 20 28 -4 40 0 70 26 l36 32 -3 70 c-2 55 -6 73 -19 81 -13 7 -17 23 -17 74 0 52 -4 67 -20 81 -16 14 -20 30 -20 80 0 58 -2 64 -37 97 -45 43 -56 44 -95 11 -24 -20 -37 -24 -62 -20 -25 5 -37 1 -60 -20 -22 -21 -34 -24 -61 -19 -26 5 -37 1 -54 -17 -17 -19 -30 -22 -81 -21 -48 1 -64 -3 -79 -19 -17 -18 -32 -20 -161 -21 -125 -1 -145 -4 -159 -20 -14 -16 -33 -18 -181 -18 -147 0 -167 2 -181 18 -13 15 -33 19 -119 20 -91 2 -106 5 -123 23 -15 16 -27 19 -52 15 -27 -5 -39 -2 -61 19 -23 21 -35 25 -60 20 -26 -4 -38 0 -60 20 -15 14 -37 25 -49 25 -13 0 -37 17 -59 40 -22 24 -46 40 -59 40 -30 0 -187 157 -187 187 0 13 -17 38 -40 59 -25 23 -40 46 -40 61 0 13 -9 31 -20 40 -11 10 -20 28 -20 40 0 13 -9 31 -20 40 -11 10 -20 28 -20 40 0 13 -9 31 -20 40 -16 14 -20 30 -20 80 0 49 -4 66 -19 80 -17 16 -20 34 -22 142 -2 104 -6 127 -20 140 -10 8 -16 18 -13 23 3 4 581 8 1284 8 703 0 1285 3 1294 6 14 5 16 48 16 375 l0 369 -20 17 c-16 14 -20 30 -20 80 0 51 -4 67 -20 80 -16 14 -20 30 -20 79 0 46 -5 68 -20 87 -11 14 -20 32 -20 40 0 8 -11 26 -25 41 -20 22 -24 34 -20 60 5 23 1 38 -14 58 -12 14 -21 33 -21 41 0 9 -18 33 -40 55 -22 21 -40 48 -40 60 0 11 -18 38 -40 60 -22 21 -40 48 -40 58 0 28 -228 254 -255 254 -13 0 -38 17 -59 40 -20 22 -45 40 -55 40 -10 0 -26 9 -36 20 -10 11 -28 20 -40 20 -12 0 -30 9 -40 20 -10 11 -30 20 -44 20 -15 0 -34 9 -44 20 -13 16 -29 20 -80 20 -48 0 -66 4 -78 18 -12 15 -32 19 -99 20 -68 1 -87 5 -101 21 -17 18 -33 20 -239 19 -200 0 -223 -2 -238 -18z m358 -540 c9 -17 21 -20 80 -20 60 0 71 -3 81 -21 8 -15 18 -20 35 -16 19 3 29 -2 41 -20 11 -17 22 -23 37 -19 31 8 276 -237 276 -276 0 -17 7 -31 20 -38 13 -7 20 -21 20 -40 0 -19 7 -33 20 -40 13 -7 20 -21 20 -40 0 -19 7 -33 20 -40 17 -9 20 -21 20 -75 0 -52 4 -68 20 -83 19 -18 20 -29 18 -143 l-3 -124 -925 0 -925 0 -7 60 c-6 56 -4 62 19 84 21 20 24 30 19 61 -5 33 -3 40 20 55 24 15 26 21 20 61 -5 41 -4 46 20 56 21 10 25 17 20 39 -4 21 0 31 20 44 17 11 24 24 22 39 -2 16 10 35 40 63 25 24 42 49 42 63 0 30 198 230 228 230 12 0 41 20 66 44 39 40 48 44 78 40 26 -5 39 -1 60 19 22 21 35 25 62 20 27 -4 38 -1 52 16 17 20 28 21 186 21 157 0 168 -1 178 -20z"/>
<path d="M28560 6548 c-15 -16 -33 -20 -102 -22 -72 -2 -87 -5 -106 -24 -18 -18 -30 -21 -55 -17 -26 5 -38 1 -61 -20 -22 -21 -34 -24 -61 -19 -26 4 -37 1 -53 -16 -11 -12 -31 -23 -44 -24 -14 -2 -40 -20 -60 -41 -19 -21 -44 -38 -56 -39 -32 -2 -292 -262 -292 -293 0 -12 -9 -27 -20 -33 -13 -7 -20 -21 -20 -38 0 -15 -9 -35 -20 -45 -11 -9 -20 -27 -20 -40 0 -12 -9 -31 -21 -41 -17 -14 -20 -24 -15 -51 5 -27 2 -38 -18 -60 l-25 -27 0 -218 0 -218 25 -27 c20 -22 23 -33 18 -60 -5 -27 -2 -37 15 -51 12 -11 21 -30 21 -46 0 -17 7 -31 20 -38 11 -6 20 -21 20 -33 0 -32 339 -371 375 -375 14 -2 30 -12 35 -23 7 -12 21 -19 39 -19 20 0 39 -12 65 -40 22 -24 46 -40 59 -40 12 0 31 -10 41 -21 14 -17 25 -20 53 -16 29 5 39 2 59 -20 15 -16 30 -24 43 -20 13 3 27 -4 41 -20 18 -21 28 -24 57 -20 29 5 39 2 59 -20 16 -17 30 -24 44 -20 15 4 25 -2 37 -20 12 -18 22 -23 39 -19 18 5 28 0 40 -20 13 -19 23 -24 40 -20 18 5 27 0 40 -19 11 -17 25 -25 44 -25 18 0 38 -12 64 -40 21 -23 46 -40 59 -40 32 0 107 -78 107 -112 0 -17 7 -31 20 -38 13 -7 20 -21 20 -40 0 -19 7 -33 20 -40 19 -10 20 -21 20 -160 0 -139 -1 -150 -20 -160 -13 -7 -20 -21 -20 -38 0 -15 -9 -35 -20 -45 -11 -9 -20 -27 -20 -39 0 -30 -77 -108 -107 -108 -13 0 -31 -9 -40 -20 -10 -11 -28 -20 -42 -20 -13 0 -34 -11 -47 -25 -20 -22 -30 -25 -58 -20 -27 5 -38 2 -54 -15 l-20 -21 -243 1 c-228 1 -244 2 -261 20 -15 16 -32 20 -81 20 -51 0 -66 4 -81 21 -14 17 -24 20 -52 15 -28 -6 -38 -3 -58 19 -13 14 -34 25 -47 25 -14 0 -33 9 -43 21 -14 17 -24 20 -51 15 -27 -5 -39 -2 -61 19 -15 14 -37 25 -48 25 -12 0 -29 9 -39 20 -36 43 -78 20 -83 -45 -3 -33 -10 -55 -25 -68 -16 -15 -19 -27 -15 -52 5 -27 2 -39 -19 -61 -21 -23 -25 -35 -20 -60 4 -26 0 -38 -20 -60 -20 -22 -25 -36 -21 -56 4 -20 -2 -35 -21 -58 l-26 -32 38 -34 c25 -22 45 -32 56 -29 12 4 24 -3 35 -20 13 -20 24 -25 41 -22 18 3 29 -2 40 -20 12 -18 23 -23 40 -20 18 3 29 -2 40 -19 14 -21 23 -24 82 -24 55 0 70 -4 85 -21 14 -17 25 -20 52 -16 27 5 40 1 61 -19 24 -23 32 -24 147 -24 109 0 123 -2 139 -20 16 -19 29 -20 217 -20 188 0 201 1 217 20 15 18 30 20 120 20 91 0 105 2 120 20 14 16 30 20 79 20 51 0 65 4 87 24 21 20 34 24 61 19 27 -4 38 -1 52 16 10 11 29 21 41 21 13 0 31 9 40 20 10 11 28 20 40 20 15 0 44 21 81 60 33 33 67 60 78 60 29 0 174 142 174 171 0 13 15 35 40 56 25 22 40 43 40 57 0 13 9 31 21 42 13 12 18 26 15 40 -4 16 1 26 20 39 24 15 26 21 22 81 -2 57 0 65 20 79 l22 16 0 243 0 243 -25 27 c-20 22 -24 34 -20 60 5 25 1 37 -20 60 -21 22 -24 34 -19 61 5 29 1 37 -35 70 -23 22 -41 47 -41 60 0 29 -226 255 -255 255 -13 0 -38 17 -59 40 -22 24 -46 40 -60 40 -14 0 -37 16 -60 40 -20 22 -45 40 -55 40 -10 0 -26 9 -36 20 -10 11 -30 20 -44 20 -15 0 -35 9 -45 21 -14 17 -24 20 -52 15 -28 -6 -38 -3 -58 19 -13 14 -34 25 -47 25 -14 0 -33 9 -43 21 -14 17 -24 20 -52 15 -28 -6 -38 -3 -58 19 -13 14 -32 25 -43 25 -11 0 -28 9 -38 20 -10 11 -28 20 -40 20 -12 0 -30 9 -40 20 -10 11 -31 20 -46 20 -18 0 -32 7 -39 20 -7 13 -21 20 -38 20 -21 0 -50 22 -130 103 -67 67 -102 110 -102 124 0 12 -9 30 -19 40 -17 16 -20 34 -22 141 l-2 123 22 16 c16 11 21 22 17 38 -4 17 1 27 20 40 17 11 24 24 22 39 -4 29 39 76 70 76 13 0 38 16 61 40 21 23 47 40 60 40 11 0 29 9 38 20 15 18 30 20 119 20 95 0 105 2 132 25 17 14 32 25 35 25 3 0 18 -11 33 -25 l27 -25 121 0 c111 0 123 -2 140 -21 14 -17 25 -20 53 -16 29 5 39 2 59 -20 16 -17 30 -24 44 -20 15 4 25 -2 37 -20 12 -18 23 -23 40 -20 18 3 29 -2 40 -19 10 -15 25 -24 42 -24 15 0 34 -9 44 -20 30 -36 93 -17 83 25 -4 17 0 27 20 40 24 15 26 22 21 60 -6 39 -4 45 20 60 23 15 25 22 20 60 -6 39 -4 45 20 60 23 15 25 22 20 60 -5 36 -3 45 18 63 14 12 25 30 25 39 0 24 -67 93 -89 93 -10 0 -26 9 -36 20 -10 11 -30 20 -44 20 -15 0 -35 9 -45 21 -14 17 -24 20 -51 15 -27 -5 -39 -2 -61 19 -23 21 -35 25 -60 20 -25 -4 -38 0 -58 18 -22 21 -35 23 -127 25 -87 2 -106 5 -121 22 -16 17 -34 19 -238 18 -207 0 -223 -2 -240 -20z"/>
</g>
</g>
  <g id="id1:id1" transform="matrix(1.25,0,0,1.25,0.0,0.0)"><g transform="translate(0.000000,419.200000) scale(0.040000,-0.040000)" fill="#0086c4" stroke="none">
<path d="M4380 9145 c-259 -34 -464 -110 -690 -253 -80 -51 -133 -96 -223 -187 -140 -143 -227 -261 -301 -410 -274 -547 -207 -1197 172 -1679 56 -73 1802 -1829 1836 -1848 16 -9 58 30 322 293 167 167 304 308 304 314 0 5 -404 415 -899 910 -935 937 -932 933 -979 1065 -75 206 -49 438 69 620 76 118 195 211 339 266 71 27 84 28 230 28 143 1 161 -1 228 -26 200 -72 346 -217 418 -415 27 -73 29 -88 29 -228 0 -163 -9 -204 -67 -319 -44 -88 -99 -154 -272 -326 -86 -85 -155 -162 -154 -170 0 -8 138 -150 305 -315 l303 -300 186 185 c183 183 276 290 347 403 102 160 182 366 219 562 32 166 29 406 -6 576 -105 515 -435 924 -914 1137 -233 103 -554 150 -802 117z"/>
<path d="M1335 6136 c-503 -75 -949 -395 -1174 -843 -54 -108 -128 -327 -137 -403 -4 -33 -11 -63 -15 -66 -12 -7 -12 -459 0 -482 5 -9 14 -46 21 -81 31 -171 121 -381 238 -556 92 -137 294 -340 417 -416 324 -203 629 -283 986 -259 307 21 577 122 834 313 50 37 410 389 963 941 486 484 892 893 902 907 l19 26 -300 299 c-164 164 -304 301 -310 303 -6 2 -412 -397 -903 -887 -956 -954 -941 -941 -1092 -991 -141 -47 -271 -50 -415 -10 -237 66 -422 260 -475 497 -25 113 -15 292 21 392 77 210 226 352 443 423 98 32 307 31 407 0 131 -42 204 -95 409 -297 104 -102 192 -186 195 -186 4 0 140 134 304 298 200 201 297 304 296 317 -2 28 -417 428 -510 492 -175 120 -384 209 -594 253 -129 27 -400 35 -530 16z"/>
<path d="M7327 6134 c-217 -32 -481 -138 -667 -270 -77 -54 -268 -239 -1007 -978 -502 -501 -913 -915 -913 -920 0 -12 578 -599 599 -610 11 -5 272 250 900 877 487 486 906 898 931 914 223 149 490 165 721 41 137 -73 230 -171 294 -312 57 -125 75 -257 55 -391 -25 -162 -93 -290 -216 -404 -128 -118 -281 -175 -464 -175 -114 0 -193 19 -309 75 -79 37 -98 53 -281 234 -108 107 -203 195 -210 195 -20 0 -610 -591 -610 -610 0 -17 310 -328 411 -412 148 -123 327 -223 506 -281 149 -49 236 -67 379 -77 799 -56 1488 466 1655 1255 33 159 34 442 1 598 -69 320 -198 565 -423 801 -128 134 -249 221 -434 311 -273 133 -606 184 -918 139z"/>
<path d="M3627 4112 c-163 -163 -297 -304 -297 -312 0 -8 305 -319 678 -690 374 -371 778 -777 899 -901 203 -207 223 -232 262 -310 62 -127 74 -189 68 -344 -8 -202 -57 -316 -197 -455 -127 -127 -257 -185 -441 -197 -388 -25 -720 287 -719 676 0 121 22 211 77 321 45 89 59 107 242 293 l195 197 -300 304 c-164 167 -306 304 -315 304 -8 1 -105 -89 -216 -200 -294 -298 -390 -441 -482 -715 -184 -551 -52 -1157 344 -1572 227 -237 487 -384 808 -455 107 -24 137 -27 327 -27 171 0 227 4 307 21 462 96 848 380 1070 788 205 375 245 830 108 1240 -20 59 -57 150 -83 202 -110 220 -91 200 -1087 1201 -506 509 -927 927 -935 927 -8 1 -149 -132 -313 -296z"/>
</g>
</g>
</svg>
