<?xml version="1.0" standalone="no"?>
<!DOCTYPE svg PUBLIC "-//W3C//DTD SVG 1.1//EN"
 "http://www.w3.org/Graphics/SVG/1.1/DTD/svg11.dtd">
<!-- Created with svg_stack (http://github.com/astraw/svg_stack) -->
<svg xmlns:sodipodi="http://sodipodi.sourceforge.net/DTD/sodipodi-0.dtd" xmlns="http://www.w3.org/2000/svg" version="1.1" width="192.0" height="404.0">
  <defs/>
  <g id="id0:id0" transform="matrix(1.25,0,0,1.25,0.0,0.0)"><g transform="translate(0.000000,323.200000) scale(0.040000,-0.040000)" fill="#ffffff" stroke="none">
<path d="M0 4040 l0 -4040 1920 0 1920 0 0 4040 0 4040 -1920 0 -1920 0 0 -4040z m1993 4005 c67 -9 129 -18 137 -22 14 -5 53 -14 143 -31 23 -5 52 -13 63 -20 12 -6 39 -16 60 -21 97 -25 144 -49 191 -97 81 -85 338 -495 450 -719 27 -55 55 -109 61 -120 21 -38 92 -195 92 -205 0 -5 9 -29 19 -52 11 -24 29 -77 42 -118 12 -41 28 -94 35 -117 39 -123 52 -293 31 -403 -53 -275 -228 -808 -401 -1225 -25 -60 -46 -113 -46 -117 0 -4 -12 -33 -26 -65 -14 -32 -32 -71 -39 -88 -178 -401 -377 -806 -410 -831 -25 -19 -17 -55 28 -124 23 -36 47 -74 54 -85 34 -56 74 -122 86 -139 6 -11 44 -68 82 -127 39 -60 91 -141 117 -181 26 -40 81 -120 122 -178 42 -58 88 -123 102 -145 54 -82 171 -231 418 -537 32 -40 140 -154 238 -252 l180 -180 -7 -30 c-11 -50 -21 -257 -24 -480 -1 -115 -4 -213 -7 -218 -3 -5 -10 -132 -15 -281 -21 -601 -30 -740 -50 -753 -5 -3 -35 32 -68 78 -78 107 -140 192 -183 248 -41 53 -236 313 -258 343 -8 12 -56 78 -107 147 -170 232 -223 305 -316 432 -50 70 -112 155 -137 189 -123 169 -481 700 -601 891 -92 147 -144 230 -164 262 -35 56 -132 219 -157 266 -58 105 -71 126 -84 141 -8 8 -14 20 -14 26 0 6 -7 16 -15 23 -8 7 -15 20 -15 30 0 10 -7 23 -16 30 -8 8 -21 28 -28 45 -8 17 -26 51 -42 76 -15 24 -50 89 -78 144 -27 55 -53 103 -59 106 -5 4 -17 24 -27 45 -10 22 -19 31 -19 22 -1 -21 75 -172 94 -188 8 -7 15 -20 15 -29 0 -9 9 -27 20 -41 11 -14 20 -32 20 -41 0 -9 9 -24 20 -34 11 -10 20 -28 20 -40 0 -13 7 -28 15 -35 8 -7 21 -25 30 -41 8 -16 22 -42 30 -58 9 -16 22 -34 30 -41 8 -7 15 -20 15 -30 0 -9 9 -25 20 -35 11 -10 20 -24 20 -30 0 -7 9 -24 20 -38 11 -14 20 -32 20 -40 0 -7 9 -22 20 -32 11 -10 20 -23 20 -29 0 -6 9 -22 20 -36 39 -49 26 -88 -77 -242 -14 -20 -32 -50 -41 -65 -50 -86 -111 -182 -176 -279 -52 -76 -272 -408 -281 -422 -24 -40 -114 -172 -151 -222 -22 -30 -65 -91 -96 -135 -52 -76 -263 -373 -380 -533 -54 -75 -214 -292 -369 -502 -47 -63 -97 -133 -111 -155 -48 -76 -84 -84 -74 -16 3 20 11 441 17 936 l12 900 216 220 c119 121 230 238 246 260 16 22 57 72 90 110 34 39 94 115 135 170 40 55 85 116 100 135 15 19 73 105 129 190 57 85 115 173 130 195 15 22 53 84 85 138 32 54 74 119 92 143 39 51 41 62 14 97 -11 14 -20 30 -20 35 0 5 -22 54 -49 108 -111 226 -231 481 -231 492 0 4 -9 25 -19 47 -32 65 -109 251 -141 340 -29 78 -35 95 -49 125 -16 36 -96 265 -137 395 -20 61 -40 118 -45 127 -5 10 -9 29 -9 42 0 14 -4 27 -9 30 -5 3 -11 18 -14 33 -9 45 -24 103 -47 183 -12 41 -26 93 -30 115 -11 49 -25 107 -40 160 -20 76 -44 202 -60 328 -12 85 7 308 30 362 4 11 18 54 31 95 57 186 214 526 359 775 12 22 34 60 47 85 14 25 42 61 63 81 21 19 52 64 69 98 44 92 38 87 176 146 56 24 212 75 229 75 9 0 38 7 64 15 109 35 348 43 535 20z"/>
<path d="M2536 7578 c-18 -160 -19 -171 -9 -165 17 11 41 227 26 227 -6 0 -13 -28 -17 -62z"/>
<path d="M937 7385 c3 -99 10 -184 15 -190 6 -7 7 38 3 129 -12 220 -24 262 -18 61z"/>
<path d="M2507 7393 c-4 -3 -7 -33 -7 -65 0 -33 -5 -79 -11 -102 -6 -24 -9 -54 -7 -67 l4 -24 11 26 c11 25 29 239 21 239 -3 0 -8 -3 -11 -7z"/>
<path d="M960 7130 c0 -42 15 -118 30 -155 4 -11 11 -29 15 -40 5 -14 9 -16 12 -7 3 8 1 24 -5 35 -6 12 -13 45 -17 72 -14 109 -17 125 -26 131 -5 3 -9 -13 -9 -36z"/>
<path d="M1620 7120 c-73 -13 -199 -58 -286 -103 -82 -42 -248 -150 -259 -167 -11 -18 -35 -11 -45 13 -7 16 -8 9 -4 -28 7 -61 46 -210 86 -330 17 -49 34 -105 39 -122 22 -79 29 -103 62 -193 19 -52 49 -133 66 -180 18 -47 40 -104 51 -127 11 -24 20 -50 20 -59 0 -9 9 -33 19 -53 10 -20 29 -61 41 -91 88 -218 106 -261 184 -421 25 -53 46 -99 46 -102 0 -16 175 -376 191 -391 5 -6 9 -20 9 -31 0 -12 9 -30 20 -40 11 -10 20 -25 20 -34 0 -9 9 -27 20 -41 11 -14 20 -32 20 -41 0 -9 9 -28 20 -42 11 -14 20 -31 20 -39 0 -8 4 -18 9 -24 9 -8 36 -55 60 -103 6 -11 16 -31 22 -42 6 -12 19 -37 30 -55 10 -19 28 -49 38 -68 20 -35 37 -67 54 -100 9 -19 30 -56 69 -123 12 -21 27 -50 35 -64 7 -15 20 -32 28 -39 8 -7 15 -18 15 -25 0 -7 7 -18 15 -25 8 -7 15 -10 15 -7 0 7 -44 90 -75 142 -13 22 -27 47 -30 55 -4 8 -11 23 -17 34 -28 53 -51 92 -58 101 -4 6 -22 37 -39 70 -18 33 -49 92 -70 130 -20 39 -42 79 -48 90 -5 11 -17 34 -26 50 -10 17 -29 55 -43 85 -14 30 -31 64 -37 75 -46 82 -69 133 -69 154 0 15 11 55 25 91 58 149 77 200 107 290 18 52 38 109 45 125 15 33 45 126 65 195 7 25 25 81 40 125 15 44 33 100 40 125 7 25 21 71 32 102 10 32 18 67 18 78 0 11 4 28 9 38 14 28 31 87 31 108 0 11 4 24 10 30 5 5 16 39 24 74 8 36 24 103 36 150 34 135 40 162 47 205 3 22 9 45 13 50 5 6 13 46 20 90 7 44 16 88 21 97 5 10 12 41 15 71 7 62 10 59 -106 111 -47 21 -107 48 -135 61 -203 91 -404 124 -575 95z"/>
<path d="M2469 7125 c-21 -39 -31 -96 -22 -131 l9 -39 13 76 c12 70 12 117 0 94z"/>
</g>
</g>
  <g id="id1:id1" transform="matrix(1.25,0,0,1.25,0.0,0.0)"><g transform="translate(0.000000,323.200000) scale(0.040000,-0.040000)" fill="#0000bf" stroke="none">
<path d="M1605 8070 c-3 -5 -31 -10 -61 -10 -30 0 -71 -7 -91 -15 -19 -8 -44 -15 -54 -15 -32 0 -252 -76 -320 -110 -68 -35 -119 -81 -119 -110 0 -9 -9 -25 -20 -35 -11 -10 -20 -22 -20 -27 0 -5 -17 -35 -38 -66 -21 -31 -43 -68 -50 -82 -7 -14 -25 -46 -41 -71 -15 -25 -51 -89 -79 -142 -29 -53 -56 -105 -61 -114 -30 -53 -128 -273 -166 -368 -67 -172 -93 -265 -111 -398 -17 -123 -12 -218 16 -352 5 -22 14 -65 20 -95 16 -82 29 -137 51 -220 11 -41 24 -91 28 -110 27 -106 115 -406 122 -414 5 -6 9 -19 9 -31 0 -11 14 -56 30 -100 17 -43 40 -108 52 -144 19 -62 74 -210 103 -276 7 -16 19 -48 26 -70 6 -22 24 -65 39 -95 15 -30 39 -86 53 -125 14 -38 46 -114 71 -167 25 -54 46 -100 46 -102 0 -3 45 -96 100 -209 55 -112 100 -210 100 -219 0 -8 9 -23 20 -33 25 -23 25 -46 0 -78 -11 -14 -20 -29 -20 -33 0 -7 -51 -97 -102 -179 -34 -56 -226 -350 -260 -398 -55 -79 -199 -271 -219 -292 -11 -11 -38 -45 -62 -76 -89 -117 -317 -363 -462 -497 -113 -106 -103 -27 -111 -820 -4 -381 -11 -695 -15 -698 -11 -7 -12 -574 -1 -574 4 0 16 15 27 33 18 31 104 150 182 251 21 28 46 63 55 78 10 15 57 80 105 144 49 64 104 138 123 165 19 27 69 95 110 151 41 57 86 119 100 139 32 48 116 165 180 254 28 39 71 99 95 135 25 36 86 124 136 195 147 212 210 305 274 405 52 81 165 255 191 294 22 33 27 41 73 116 18 30 48 78 66 105 17 28 47 74 65 103 24 38 36 50 45 42 6 -5 40 -56 75 -112 35 -57 76 -121 90 -142 14 -21 29 -46 35 -55 64 -102 258 -397 332 -506 27 -38 82 -119 123 -180 96 -140 119 -173 150 -212 14 -17 39 -51 56 -75 52 -73 165 -229 228 -315 34 -45 83 -112 110 -150 83 -115 135 -186 171 -233 19 -25 53 -72 76 -105 23 -33 55 -74 71 -91 16 -17 48 -58 71 -92 23 -34 76 -106 117 -159 41 -54 81 -109 89 -123 8 -14 31 -48 53 -76 21 -28 38 -58 38 -67 0 -28 28 -19 34 10 3 16 10 163 16 328 6 165 15 392 21 505 6 113 13 315 15 450 3 135 7 251 9 258 3 7 9 10 15 7 7 -4 10 48 10 149 0 86 -4 156 -9 156 -12 0 -236 213 -316 302 -118 130 -196 220 -239 279 -22 31 -62 83 -88 115 -77 96 -114 145 -162 214 -25 36 -68 97 -95 135 -109 154 -331 489 -331 500 0 5 -8 18 -18 29 -20 22 -102 154 -102 162 0 3 -19 33 -42 66 l-42 60 15 26 c8 15 28 52 43 82 16 30 35 66 42 80 18 32 184 371 184 375 0 2 29 65 65 140 36 75 65 138 65 141 0 3 11 29 24 57 13 29 42 102 65 162 24 61 58 142 77 181 19 39 34 75 34 79 0 5 24 74 54 154 65 174 156 447 156 467 0 8 5 22 10 32 6 9 22 60 36 112 14 52 30 111 35 130 42 147 51 335 24 480 -27 145 -145 468 -219 600 -8 14 -31 59 -51 100 -33 66 -99 184 -175 313 -14 24 -40 68 -58 99 -18 31 -40 62 -47 68 -8 7 -15 16 -15 21 0 5 -33 57 -72 115 -40 58 -80 118 -89 132 -10 17 -30 30 -55 37 -21 5 -48 15 -59 21 -11 6 -45 17 -75 24 -30 7 -62 17 -70 21 -31 17 -236 61 -307 66 -40 3 -76 10 -79 14 -7 13 -341 11 -349 -1z m369 -989 c49 -11 93 -24 99 -30 6 -6 17 -11 24 -11 7 0 36 -11 65 -24 29 -13 80 -35 113 -48 86 -35 145 -75 145 -98 0 -10 -5 -29 -10 -42 -6 -13 -17 -63 -24 -113 -12 -75 -47 -226 -96 -415 -5 -19 -14 -57 -20 -85 -7 -27 -18 -66 -25 -85 -7 -19 -18 -55 -24 -80 -39 -148 -52 -194 -76 -275 -15 -49 -35 -110 -45 -135 -9 -25 -34 -103 -55 -175 -21 -71 -41 -135 -46 -141 -4 -5 -24 -55 -42 -110 -96 -276 -133 -368 -147 -359 -9 5 -150 288 -150 300 0 3 -20 47 -44 98 -42 88 -97 212 -136 307 -10 25 -36 88 -59 140 -22 52 -47 113 -55 135 -8 22 -31 85 -51 139 -19 55 -40 105 -45 110 -4 6 -14 34 -21 61 -7 28 -22 73 -34 100 -12 28 -30 82 -40 120 -9 39 -21 75 -25 80 -4 6 -11 26 -15 45 -4 19 -22 80 -40 135 -18 55 -36 119 -40 141 l-6 42 43 29 c24 16 72 50 108 75 134 94 296 164 435 188 74 13 238 4 339 -19z"/>
</g>
</g>
</svg>
