<?xml version="1.0" standalone="no"?>
<!DOCTYPE svg PUBLIC "-//W3C//DTD SVG 1.1//EN"
 "http://www.w3.org/Graphics/SVG/1.1/DTD/svg11.dtd">
<!-- Created with svg_stack (http://github.com/astraw/svg_stack) -->
<svg xmlns:sodipodi="http://sodipodi.sourceforge.net/DTD/sodipodi-0.dtd" xmlns="http://www.w3.org/2000/svg" version="1.1" width="3684.0" height="2546.0">
  <defs/>
  <g id="id0:id0" transform="matrix(1.25,0,0,1.25,0.0,0.0)"><g transform="translate(0.000000,2036.800000) scale(0.040000,-0.040000)" fill="#ffffff" stroke="none">
<path d="M28365 43147 c-3 -6 -4 -3416 -2 -7577 2 -7045 4 -7578 20 -7760 17 -193 48 -459 68 -575 5 -33 14 -87 19 -120 9 -54 24 -130 74 -360 13 -61 43 -175 91 -350 7 -28 39 -127 71 -220 191 -573 435 -1052 792 -1562 91 -130 309 -395 452 -549 299 -323 725 -683 1080 -915 25 -16 54 -35 64 -41 149 -97 428 -259 551 -320 39 -19 86 -44 105 -55 95 -53 409 -194 600 -269 63 -25 126 -50 140 -56 14 -6 75 -28 135 -50 61 -22 135 -48 165 -59 30 -11 84 -28 120 -39 36 -10 117 -34 180 -54 147 -47 409 -117 560 -151 36 -8 106 -24 155 -35 147 -33 517 -103 690 -130 33 -5 89 -14 125 -19 302 -48 718 -89 1230 -123 265 -18 1496 -18 1750 0 470 33 886 76 1175 122 33 5 105 17 160 25 312 50 792 155 1095 240 52 15 124 35 160 44 283 78 741 247 1085 401 231 103 596 293 773 402 542 336 888 610 1289 1022 589 605 1012 1280 1307 2086 78 214 172 528 212 710 38 174 55 260 69 350 8 52 19 115 25 140 13 61 46 358 62 555 10 125 13 719 13 2685 l0 2525 -2514 3 c-1800 1 -2518 -1 -2527 -9 -11 -9 -14 -430 -17 -2317 -3 -1683 -7 -2339 -16 -2427 -16 -164 -51 -437 -57 -447 -3 -4 -12 -45 -20 -92 -19 -113 -87 -356 -135 -491 -54 -149 -203 -448 -284 -569 -186 -280 -465 -549 -730 -707 -422 -252 -913 -395 -1500 -439 -176 -13 -651 -13 -810 0 -545 44 -992 164 -1364 367 -128 70 -307 196 -421 296 -105 93 -254 253 -313 337 -123 175 -228 355 -278 475 -154 369 -231 659 -279 1048 -41 334 -41 380 -38 3997 l3 3495 5650 5 c3108 3 5651 6 5653 8 1 1 2 694 2 1541 0 1280 -2 1540 -14 1550 -9 8 -1503 12 -5652 13 l-5639 3 -5 2225 -5 2225 -2673 3 c-2138 2 -2674 0 -2677 -11z"/>
</g>
</g>
  <g id="id1:id1" transform="matrix(1.25,0,0,1.25,0.0,0.0)"><g transform="translate(0.000000,2036.800000) scale(0.040000,-0.040000)" fill="#dc2283" stroke="none">
<path d="M36230 49443 c-523 -13 -1310 -76 -1745 -139 -55 -8 -136 -19 -180 -24 -104 -14 -258 -38 -315 -49 -25 -5 -81 -15 -125 -21 -44 -6 -98 -15 -120 -20 -22 -6 -69 -15 -105 -20 -83 -14 -443 -86 -523 -105 -34 -8 -125 -28 -202 -46 -136 -31 -317 -76 -500 -124 -49 -13 -124 -33 -165 -44 -281 -74 -783 -231 -1115 -349 -219 -78 -274 -98 -370 -136 -49 -20 -94 -36 -98 -36 -4 0 -27 -9 -50 -19 -23 -10 -107 -45 -187 -76 -80 -32 -200 -82 -266 -111 -67 -30 -124 -54 -128 -54 -3 0 -81 -34 -173 -76 -454 -205 -830 -394 -1283 -644 -155 -86 -184 -102 -240 -135 -571 -337 -939 -576 -1403 -910 -198 -142 -305 -222 -412 -305 -120 -93 -161 -125 -274 -216 -68 -54 -138 -110 -155 -124 -34 -26 -82 -67 -261 -219 -597 -509 -1286 -1196 -1811 -1806 -198 -230 -317 -376 -564 -690 -58 -75 -276 -366 -300 -402 -8 -12 -47 -66 -86 -120 -86 -118 -127 -177 -174 -247 -19 -29 -74 -111 -121 -182 -123 -184 -163 -244 -174 -263 -5 -9 -44 -70 -85 -136 -41 -66 -79 -128 -85 -137 -5 -9 -32 -54 -60 -100 -27 -46 -52 -87 -54 -93 -2 -5 -9 -17 -16 -25 -12 -15 -236 -404 -267 -465 -9 -16 -33 -62 -54 -101 -150 -275 -345 -664 -472 -940 -25 -54 -233 -529 -254 -579 -12 -27 -27 -63 -34 -80 -7 -16 -24 -61 -39 -100 -15 -38 -34 -85 -42 -103 -27 -61 -135 -349 -205 -547 -97 -275 -197 -581 -257 -790 -23 -77 -47 -160 -55 -185 -8 -25 -27 -90 -41 -145 -15 -55 -38 -138 -51 -185 -13 -47 -40 -155 -59 -240 -20 -85 -45 -189 -55 -230 -10 -41 -28 -118 -40 -170 -12 -52 -25 -113 -30 -135 -14 -59 -81 -392 -90 -450 -5 -27 -15 -88 -24 -135 -173 -939 -268 -2109 -253 -3130 11 -689 55 -1350 127 -1885 12 -82 23 -171 25 -196 2 -25 14 -106 25 -180 12 -74 26 -163 31 -199 5 -36 15 -101 23 -145 9 -44 25 -132 36 -195 36 -198 99 -508 141 -690 22 -96 46 -202 54 -235 116 -515 347 -1273 580 -1900 21 -55 43 -116 50 -135 8 -19 53 -132 100 -250 48 -118 94 -233 102 -255 8 -21 20 -51 28 -65 7 -14 32 -70 56 -125 23 -55 56 -131 74 -170 17 -38 56 -124 86 -190 92 -205 470 -954 500 -991 5 -6 24 -39 42 -75 29 -53 67 -122 171 -304 12 -20 99 -166 116 -195 6 -8 33 -54 62 -102 273 -451 582 -906 913 -1346 217 -289 403 -522 619 -775 313 -367 541 -613 935 -1008 461 -460 778 -749 1252 -1139 192 -159 424 -337 744 -573 321 -237 885 -610 1227 -812 9 -5 54 -32 100 -60 93 -55 84 -50 228 -132 58 -33 121 -69 140 -80 19 -11 73 -40 120 -65 47 -25 132 -71 190 -103 309 -169 964 -480 1305 -620 44 -18 114 -47 155 -64 903 -377 1921 -689 2940 -902 52 -11 127 -26 165 -34 167 -36 638 -114 920 -154 1093 -155 2307 -199 3435 -125 225 14 309 21 600 50 757 73 1711 240 2390 419 396 104 471 125 825 229 176 52 813 269 880 300 16 7 48 19 70 26 47 15 427 164 565 222 487 205 1179 538 1595 768 510 282 1075 632 1480 916 278 196 577 413 650 474 24 19 62 50 86 68 173 131 507 405 721 591 283 247 455 410 852 807 431 431 497 501 772 815 228 261 531 629 659 800 11 15 61 80 110 145 50 65 102 137 118 159 15 22 39 56 55 76 39 52 259 363 297 421 6 8 23 35 40 59 16 24 34 51 40 61 5 9 25 37 43 63 17 25 32 49 32 52 0 4 6 14 14 22 17 18 133 201 274 431 103 169 98 159 201 340 39 69 76 132 81 140 92 148 459 857 602 1165 67 143 197 439 257 585 29 69 58 139 65 155 14 32 74 182 150 377 25 64 54 143 65 175 11 32 34 96 52 143 68 188 242 721 288 885 10 39 42 149 69 245 84 291 241 950 297 1245 8 44 19 103 25 130 6 28 15 75 20 105 87 507 103 614 155 1045 24 198 58 556 70 730 28 433 36 620 41 1020 6 434 -4 901 -26 1215 -4 63 -11 162 -14 220 -9 152 -45 537 -63 665 -8 61 -15 121 -14 135 0 21 -38 293 -84 605 -17 114 -39 244 -71 415 -15 74 -32 169 -40 210 -13 73 -45 225 -79 380 -55 252 -174 724 -231 920 -13 47 -32 110 -40 140 -9 30 -24 82 -34 115 -10 33 -26 88 -36 123 -9 34 -21 65 -25 68 -5 3 -9 13 -9 23 0 51 -196 613 -394 1129 -82 212 -289 691 -401 927 -177 374 -466 938 -542 1057 -12 21 -23 40 -23 42 0 6 -177 310 -281 484 -75 124 -155 253 -175 279 -13 17 -24 35 -24 38 0 7 -351 533 -390 585 -10 14 -58 81 -106 150 -498 708 -1098 1414 -1784 2101 -512 512 -917 876 -1405 1263 -82 66 -168 134 -190 151 -86 68 -406 306 -530 392 -71 50 -141 100 -155 110 -38 29 -399 273 -404 273 -2 0 -40 25 -85 55 -45 30 -85 55 -90 55 -4 0 -16 9 -26 20 -10 11 -22 20 -26 20 -4 0 -64 36 -134 80 -70 44 -128 80 -130 80 -2 0 -41 23 -87 51 -46 29 -99 61 -118 71 -19 11 -39 24 -45 28 -5 4 -37 22 -70 40 -33 18 -78 43 -100 56 -341 194 -881 471 -1245 638 -434 199 -812 354 -1375 561 -132 49 -584 198 -710 235 -55 16 -147 43 -205 59 -58 17 -143 42 -190 56 -192 56 -532 142 -770 195 -52 12 -131 30 -175 40 -44 11 -100 22 -125 25 -25 4 -60 11 -78 17 -18 5 -67 16 -110 23 -42 8 -115 21 -162 30 -1119 212 -2364 309 -3550 278z m-2532 -8524 c2 -1846 4 -2218 16 -2228 9 -8 1509 -12 5652 -13 l5639 -3 0 -1530 0 -1530 -5650 -5 c-3107 -3 -5651 -6 -5653 -8 -1 -1 -1 -1628 1 -3614 3 -3262 5 -3627 20 -3753 63 -547 162 -916 343 -1280 78 -156 85 -169 149 -264 28 -41 55 -82 60 -91 74 -120 368 -417 510 -514 168 -116 477 -286 517 -286 8 0 32 -9 53 -20 76 -39 356 -121 550 -160 90 -18 144 -26 405 -61 123 -16 706 -23 882 -10 159 12 467 51 548 71 338 79 478 123 675 210 125 55 148 67 305 158 284 166 592 468 779 765 34 53 97 170 140 259 180 374 276 744 329 1273 13 139 16 463 21 2460 l6 2300 2505 0 2505 0 3 -2395 c4 -2837 4 -2834 -93 -3450 -51 -324 -171 -785 -280 -1075 -15 -38 -33 -88 -40 -110 -13 -38 -31 -83 -105 -259 -54 -128 -203 -424 -289 -575 -72 -126 -118 -200 -230 -371 -44 -67 -264 -361 -323 -431 -223 -267 -519 -565 -764 -770 -134 -112 -191 -157 -399 -310 -325 -239 -830 -524 -1270 -717 -251 -110 -303 -130 -590 -234 -291 -105 -752 -235 -1105 -312 -618 -133 -1076 -197 -1825 -252 -289 -21 -1274 -30 -1630 -15 -902 39 -1623 133 -2425 316 -125 29 -449 117 -590 160 -47 15 -105 33 -130 40 -25 8 -79 25 -120 40 -41 14 -100 35 -130 45 -75 26 -122 43 -210 79 -41 17 -78 31 -82 31 -8 0 -258 105 -348 147 -131 60 -394 192 -500 252 -63 35 -135 75 -160 89 -175 98 -496 314 -679 456 -56 45 -116 90 -131 102 -56 40 -317 273 -426 380 -674 664 -1176 1500 -1462 2439 -141 461 -223 914 -274 1515 -9 113 -13 1826 -15 7700 -2 4155 -1 7561 2 7567 3 11 535 13 2657 11 l2653 -3 3 -2216z"/>
<path d="M607 9673 c-4 -3 -7 -1124 -7 -2489 0 -2704 -3 -2570 56 -2829 96 -428 317 -790 646 -1056 424 -344 974 -530 1713 -579 600 -40 1208 39 1665 215 171 66 420 195 476 246 11 10 24 19 28 19 17 0 206 163 298 256 278 283 438 602 525 1049 14 68 17 215 20 986 l4 906 -23 7 c-30 8 -1586 8 -1615 0 l-23 -6 0 -733 c0 -861 -5 -942 -76 -1138 -104 -292 -298 -450 -654 -534 -60 -14 -119 -17 -290 -17 -186 0 -227 3 -305 22 -360 88 -550 273 -645 627 -39 145 -41 229 -38 1420 l3 1150 1827 3 1828 2 5 23 c3 12 4 243 3 512 l-3 490 -1830 5 -1830 5 -5 720 -5 720 -871 3 c-479 1 -874 -1 -877 -5z"/>
<path d="M9225 8360 c-480 -35 -911 -119 -1225 -240 -30 -12 -72 -28 -92 -35 -76 -28 -267 -131 -378 -203 -122 -80 -289 -232 -384 -352 -126 -157 -221 -353 -284 -590 -40 -149 -73 -440 -52 -465 11 -13 122 -15 831 -15 l818 0 11 43 c48 191 84 270 176 394 122 163 349 281 637 332 142 25 366 35 542 22 420 -29 662 -107 821 -267 62 -62 74 -80 93 -142 44 -135 15 -321 -62 -409 -146 -166 -413 -242 -1140 -323 -324 -36 -708 -85 -829 -105 -49 -8 -130 -22 -180 -30 -717 -118 -1213 -315 -1506 -599 -240 -231 -373 -519 -422 -911 -15 -118 -12 -412 5 -511 72 -411 310 -729 706 -942 382 -205 980 -316 1614 -298 639 17 1169 148 1602 395 55 31 209 135 253 170 31 24 50 12 50 -33 1 -76 80 -373 104 -388 6 -4 379 -8 828 -8 l818 0 5 22 c3 13 4 846 2 1853 -4 1943 -2 1865 -53 2110 -60 287 -163 523 -317 724 -87 113 -292 302 -398 366 -382 230 -767 347 -1374 417 -151 17 -256 21 -645 23 -256 2 -514 0 -575 -5z m1573 -3011 c2 -46 -1 -196 -7 -334 -8 -222 -12 -260 -35 -338 -50 -171 -136 -309 -280 -453 -139 -139 -248 -214 -420 -294 -296 -136 -674 -200 -1001 -171 -376 34 -584 159 -657 396 -29 92 -31 270 -4 360 24 82 79 181 129 233 167 173 489 296 997 382 69 11 150 25 180 30 30 5 100 17 155 25 426 66 719 142 865 224 30 17 60 29 65 27 6 -1 11 -40 13 -87z"/>
<path d="M15885 8364 c-16 -2 -73 -9 -125 -15 -526 -59 -1065 -276 -1480 -597 -104 -81 -307 -277 -406 -393 -141 -166 -290 -406 -384 -617 -101 -230 -157 -426 -210 -737 -32 -191 -37 -565 -10 -820 68 -641 315 -1200 705 -1591 357 -359 793 -582 1370 -703 536 -112 1239 -106 1690 14 429 114 743 294 925 530 23 30 46 52 51 49 5 -3 9 -202 9 -449 0 -350 -3 -458 -15 -512 -102 -483 -553 -819 -1250 -929 -132 -21 -521 -30 -663 -15 -250 26 -466 85 -643 175 -337 173 -516 433 -531 776 l-3 55 -821 3 c-741 2 -823 1 -835 -14 -18 -22 3 -271 36 -418 65 -282 151 -469 341 -736 14 -19 66 -80 117 -134 328 -355 746 -602 1302 -771 471 -142 957 -203 1534 -192 514 10 889 65 1321 193 63 19 138 43 165 53 191 74 244 96 355 148 304 144 548 319 775 554 107 111 275 321 275 343 0 2 21 38 46 81 141 233 241 558 274 884 11 111 15 5587 4 5629 l-6 22 -873 0 c-481 0 -880 -3 -889 -6 -14 -5 -16 -41 -16 -294 0 -159 -4 -291 -8 -294 -5 -3 -55 42 -113 100 -257 260 -504 410 -849 517 -283 87 -439 108 -825 112 -170 2 -323 1 -340 -1z m858 -1254 c548 -35 911 -246 1122 -653 127 -245 183 -482 206 -862 31 -517 -92 -909 -380 -1208 -274 -285 -654 -437 -1096 -437 -236 0 -451 44 -651 131 -412 180 -697 547 -801 1029 -31 146 -43 477 -23 677 30 319 118 592 254 793 58 86 185 218 267 277 57 42 186 112 275 150 117 49 377 99 559 106 39 2 79 4 90 5 11 1 91 -3 178 -8z"/>
<path d="M23100 8364 c-227 -27 -387 -55 -560 -101 -371 -97 -734 -275 -1040 -511 -102 -78 -339 -309 -420 -408 -142 -174 -295 -424 -375 -614 -15 -36 -33 -78 -40 -95 -69 -159 -149 -478 -168 -670 -8 -77 -16 -153 -18 -170 -10 -83 -1 -484 14 -625 15 -139 23 -189 58 -358 56 -274 212 -648 363 -871 39 -57 78 -113 86 -126 8 -12 39 -51 69 -86 363 -429 852 -704 1480 -834 316 -65 482 -80 876 -79 321 0 395 6 641 48 298 51 624 174 829 312 98 65 238 193 290 264 20 28 41 48 46 44 13 -8 12 -866 -2 -940 -25 -143 -83 -274 -177 -399 -113 -151 -252 -261 -461 -365 -46 -23 -100 -48 -120 -55 -20 -8 -61 -23 -91 -35 -72 -27 -225 -64 -380 -92 -111 -20 -158 -23 -420 -23 -267 0 -307 2 -423 23 -482 89 -801 294 -944 607 -44 96 -64 174 -70 280 -3 50 -11 93 -17 97 -6 4 -376 8 -822 8 -715 0 -813 -2 -824 -15 -18 -22 -5 -204 25 -370 40 -213 131 -454 234 -615 9 -14 21 -32 26 -41 67 -108 145 -202 268 -327 56 -57 111 -111 123 -120 12 -9 52 -42 90 -73 127 -103 360 -246 519 -320 106 -49 321 -136 385 -156 277 -87 411 -119 675 -164 469 -79 1030 -92 1510 -34 246 30 358 50 595 105 279 65 655 212 889 345 159 92 163 95 203 126 20 16 40 29 43 29 3 0 45 30 93 67 112 88 306 276 389 378 275 338 437 748 473 1197 7 91 10 993 8 2878 l-3 2745 -870 3 c-478 1 -880 0 -892 -3 l-23 -5 0 -294 c0 -161 -2 -295 -6 -298 -3 -3 -49 39 -102 94 -89 92 -211 199 -272 241 -14 9 -44 30 -68 47 -126 89 -313 176 -507 237 -297 93 -446 114 -840 118 -170 2 -326 1 -345 -1z m855 -1254 c559 -35 925 -250 1137 -666 123 -240 183 -511 203 -909 39 -789 -371 -1365 -1100 -1544 -244 -60 -578 -53 -831 17 -320 89 -593 285 -783 562 -74 108 -171 336 -204 480 -32 137 -38 182 -45 312 -23 399 37 776 164 1043 153 323 409 539 759 640 147 42 251 56 530 73 11 1 88 -3 170 -8z"/>
</g>
</g>
  <g id="id2:id2" transform="matrix(1.25,0,0,1.25,0.0,0.0)"><g transform="translate(0.000000,2036.800000) scale(0.040000,-0.040000)" fill="#231f20" stroke="none">
<path d="M20440 36620 c0 -5 5 -10 10 -10 6 0 10 5 10 10 0 6 -4 10 -10 10 -5 0 -10 -4 -10 -10z"/>
<path d="M20460 28930 c0 -27 5 -50 10 -50 6 0 9 22 8 50 -1 28 -6 50 -10 50 -4 0 -8 -22 -8 -50z"/>
<path d="M60241 10316 c-8 -9 -10 -156 -9 -527 l3 -514 460 -3 c253 -1 470 0 483 3 l22 5 0 519 0 519 -22 6 c-13 3 -226 6 -474 6 -369 0 -454 -2 -463 -14z"/>
<path d="M39630 8453 c-515 -23 -983 -168 -1369 -426 -305 -204 -508 -564 -581 -1033 -19 -123 -30 -326 -19 -341 16 -19 852 -19 866 0 5 6 17 57 27 112 52 297 143 481 309 628 112 99 228 159 407 210 176 51 523 70 780 43 559 -60 854 -251 951 -616 20 -72 23 -110 23 -250 0 -144 -3 -174 -23 -240 -30 -96 -44 -124 -97 -186 -48 -57 -147 -114 -237 -138 -32 -8 -333 -49 -670 -91 -1033 -128 -1119 -141 -1297 -189 -252 -67 -449 -153 -647 -282 -466 -303 -682 -721 -682 -1319 -1 -410 114 -739 358 -1024 276 -324 639 -518 1079 -576 157 -21 474 -19 652 4 318 42 626 143 902 297 237 132 385 241 564 417 67 65 124 115 127 110 2 -4 14 -48 26 -98 43 -188 94 -302 185 -417 60 -75 129 -129 229 -178 112 -55 216 -79 372 -86 218 -10 407 12 613 72 l82 25 0 339 0 339 -19 6 c-10 3 -48 1 -82 -4 -125 -20 -256 -24 -319 -11 -85 18 -119 44 -155 115 l-30 60 -6 1715 c-4 1192 -9 1733 -17 1775 -14 73 -54 224 -77 285 -85 229 -277 450 -516 594 -115 70 -326 167 -426 197 -35 11 -93 28 -130 39 -207 63 -488 105 -792 120 -189 9 -219 10 -361 3z m1365 -3289 c0 -392 -2 -459 -18 -531 -56 -262 -172 -473 -356 -645 -105 -99 -206 -165 -386 -253 -292 -142 -522 -201 -830 -212 -182 -6 -284 3 -409 37 -319 88 -565 325 -622 600 -25 117 -15 359 19 466 85 273 268 443 597 554 164 55 331 88 660 129 80 11 240 31 355 45 400 51 749 140 915 233 30 17 60 30 65 28 6 -1 10 -160 10 -451z"/>
<path d="M51230 8453 c-537 -24 -1063 -195 -1422 -463 -142 -107 -292 -295 -376 -472 -103 -218 -167 -505 -175 -788 l-2 -85 437 -3 438 -2 5 27 c3 16 10 48 15 73 5 25 11 63 15 85 3 22 17 81 32 130 141 495 546 723 1243 701 360 -11 576 -57 793 -168 190 -97 312 -250 368 -463 32 -119 32 -366 0 -483 -48 -172 -160 -281 -336 -327 -30 -7 -277 -41 -548 -75 -1168 -146 -1236 -155 -1442 -210 -261 -69 -545 -205 -735 -353 -85 -66 -221 -198 -274 -267 -154 -198 -253 -458 -287 -749 -15 -131 -7 -437 14 -551 34 -182 123 -406 216 -543 243 -360 583 -597 1001 -695 179 -42 229 -47 505 -47 289 0 395 11 600 60 101 24 281 81 345 108 19 8 73 31 119 51 104 45 304 158 414 233 131 90 214 159 339 281 77 76 119 110 122 101 2 -8 19 -70 36 -139 88 -350 270 -542 585 -615 96 -22 305 -30 455 -16 130 11 359 61 398 87 l22 14 0 334 0 334 -24 6 c-13 3 -46 2 -73 -3 -100 -19 -250 -24 -314 -11 -84 18 -118 44 -154 115 l-30 60 -6 1710 c-4 1134 -10 1729 -17 1765 -67 354 -187 576 -413 765 -245 205 -643 371 -1049 436 -197 32 -583 62 -725 57 -27 -1 -79 -3 -115 -5z m1367 -3304 l-4 -454 -26 -101 c-77 -300 -200 -494 -427 -673 -255 -202 -635 -351 -995 -391 -118 -13 -318 -13 -408 1 -76 11 -215 46 -232 58 -5 4 -32 16 -58 25 -56 21 -178 99 -254 163 -48 41 -132 152 -165 218 -59 117 -85 295 -68 458 44 423 300 663 835 783 146 33 298 55 730 108 485 60 763 128 1000 244 33 17 64 26 68 22 5 -4 7 -212 4 -461z"/>
<path d="M31360 8443 c-391 -22 -763 -167 -1048 -405 -98 -82 -269 -252 -358 -356 -34 -40 -66 -74 -71 -75 -4 -1 -10 158 -13 353 l-5 355 -454 3 c-357 2 -456 0 -463 -10 -4 -7 -8 -1221 -8 -2698 0 -2076 3 -2689 12 -2698 17 -17 899 -17 916 0 9 9 12 352 12 1483 0 854 4 1541 10 1640 27 461 132 819 309 1053 126 166 380 351 593 432 291 111 681 104 918 -15 230 -116 339 -288 398 -630 13 -79 16 -331 19 -2019 3 -1376 7 -1933 15 -1943 16 -19 930 -19 947 0 7 10 11 506 14 1743 l3 1729 21 110 c76 402 197 624 448 819 251 196 555 289 890 273 271 -13 513 -109 661 -263 93 -97 162 -270 184 -461 6 -56 10 -787 10 -2019 0 -1752 1 -1932 16 -1938 9 -3 224 -6 479 -6 383 0 465 2 474 14 15 18 9 3941 -7 4031 -5 33 -15 94 -21 135 -59 393 -202 698 -437 933 -292 292 -687 429 -1239 429 -658 1 -1160 -230 -1563 -720 l-85 -104 -23 29 c-13 15 -26 37 -30 48 -17 50 -157 239 -241 326 -248 256 -564 387 -1010 419 -134 10 -157 10 -273 3z"/>
<path d="M65045 8440 c-285 -20 -545 -86 -786 -198 -133 -61 -298 -168 -444 -287 -67 -55 -308 -294 -329 -327 -10 -15 -22 -25 -27 -22 -5 3 -9 158 -9 347 0 188 -4 347 -8 354 -6 9 -112 13 -441 13 -238 1 -436 -2 -440 -5 -8 -8 -14 -5338 -6 -5382 l6 -33 458 0 c366 0 461 3 469 13 8 9 12 488 15 1643 3 1458 5 1642 20 1754 46 338 116 508 315 757 205 257 472 425 781 494 120 27 335 43 488 36 476 -21 764 -255 897 -727 8 -30 24 -118 35 -195 l21 -140 0 -1805 c0 -1391 3 -1809 12 -1818 9 -9 128 -12 474 -12 385 0 463 2 473 14 17 20 9 3708 -7 3876 -49 489 -153 808 -346 1060 -294 385 -728 573 -1366 594 -80 2 -194 1 -255 -4z"/>
<path d="M70430 8440 c-585 -39 -1058 -230 -1461 -592 -512 -459 -816 -1091 -906 -1883 -21 -188 -24 -690 -5 -875 59 -578 214 -1019 495 -1415 96 -135 388 -426 522 -521 325 -231 593 -344 984 -415 146 -27 547 -38 736 -20 454 43 851 172 1155 376 152 102 223 161 356 297 274 279 507 680 602 1038 30 110 37 171 20 181 -7 5 -211 9 -454 9 -506 0 -456 11 -494 -107 -25 -80 -123 -285 -167 -349 -15 -23 -41 -61 -57 -85 -16 -24 -77 -92 -135 -151 -112 -111 -258 -216 -368 -264 -32 -14 -67 -30 -78 -35 -98 -43 -253 -82 -407 -99 -150 -18 -453 -8 -576 19 -427 91 -699 303 -897 700 -52 105 -112 248 -125 301 -4 19 -22 87 -38 152 -32 120 -69 383 -74 523 l-3 80 1980 5 c1089 3 1982 6 1984 8 6 3 -9 557 -19 677 -5 61 -12 142 -14 180 -20 271 -105 648 -203 895 -31 79 -125 265 -159 315 -13 20 -24 38 -24 42 0 11 -95 140 -166 224 -68 80 -163 171 -279 266 -132 108 -442 283 -625 352 -47 17 -94 36 -105 41 -19 9 -96 30 -254 71 -189 49 -511 74 -741 59z m409 -835 c215 -31 440 -116 589 -222 290 -206 483 -545 571 -1000 26 -132 45 -289 38 -308 -6 -13 -166 -15 -1480 -15 -811 0 -1476 2 -1478 5 -17 17 32 341 73 475 148 489 520 882 968 1022 181 57 492 75 719 43z"/>
<path d="M45115 8410 c-49 -5 -108 -14 -130 -19 -22 -6 -67 -15 -99 -22 -304 -58 -632 -228 -912 -473 -435 -379 -706 -868 -833 -1501 -135 -677 -100 -1529 88 -2110 46 -143 135 -344 198 -450 152 -252 363 -464 643 -647 266 -174 522 -272 860 -330 165 -28 545 -30 745 -4 371 48 641 153 879 340 109 85 302 288 361 379 35 55 38 22 27 -310 -17 -463 -45 -715 -107 -942 -117 -431 -371 -700 -795 -840 -185 -60 -388 -84 -685 -78 -212 4 -255 7 -367 31 -272 57 -474 170 -604 335 -78 99 -184 350 -184 436 0 12 -8 29 -18 38 -17 15 -65 17 -479 17 l-461 0 -6 -27 c-13 -59 31 -293 86 -455 134 -405 362 -663 773 -879 114 -60 279 -128 375 -155 30 -8 87 -24 125 -35 426 -117 1090 -123 1573 -14 198 45 416 124 580 210 369 195 676 526 848 915 95 214 172 498 213 790 46 320 44 225 48 3014 3 2145 2 2631 -9 2637 -22 14 -842 11 -856 -3 -9 -9 -12 -90 -12 -303 0 -161 -3 -295 -7 -298 -3 -4 -70 60 -149 141 -130 136 -315 295 -384 332 -15 8 -66 36 -112 61 -179 100 -365 160 -653 210 -76 13 -458 19 -560 9z m700 -849 c270 -55 499 -182 696 -388 329 -341 485 -884 466 -1616 -8 -312 -28 -463 -94 -722 -90 -357 -292 -713 -505 -894 -240 -204 -488 -302 -840 -332 -449 -38 -815 97 -1082 400 -157 179 -284 434 -344 696 -61 262 -76 419 -76 770 0 451 39 765 133 1085 29 97 47 143 105 266 212 445 565 699 1051 754 120 14 379 4 490 -19z"/>
<path d="M54855 8298 c-3 -13 -4 -201 -3 -418 l3 -395 1475 -3 c811 -1 1478 -6 1483 -11 4 -4 -14 -32 -41 -62 -26 -30 -86 -100 -133 -157 -79 -96 -127 -154 -374 -450 -362 -433 -458 -548 -735 -877 -124 -147 -263 -313 -310 -370 -210 -255 -258 -311 -302 -361 -25 -29 -80 -94 -122 -146 -42 -51 -120 -145 -174 -209 -53 -64 -198 -237 -322 -385 -124 -148 -330 -394 -458 -547 l-232 -278 0 -353 c0 -260 3 -355 12 -364 9 -9 532 -12 2294 -12 2072 0 2282 1 2288 16 3 9 6 190 6 404 0 214 -3 395 -6 404 -6 15 -159 16 -1633 16 -895 0 -1630 3 -1634 6 -8 9 114 164 278 354 22 26 68 80 102 121 34 41 104 124 155 185 51 62 145 174 208 250 63 76 133 158 156 183 22 25 77 91 122 146 45 55 127 154 183 220 55 66 142 170 192 231 51 60 148 177 217 259 69 81 161 192 205 245 44 53 114 136 155 185 41 48 86 102 100 119 13 17 63 77 110 132 47 56 137 164 200 240 63 76 133 159 156 184 22 25 77 90 122 145 45 55 126 152 180 216 53 64 150 181 215 259 l117 143 -2 376 -3 376 -2122 3 -2123 2 -5 -22z"/>
<path d="M60236 8278 c-8 -30 -8 -5342 0 -5362 5 -14 57 -16 473 -16 350 0 470 3 479 12 9 9 12 619 12 2684 0 1470 -3 2679 -6 2688 -5 14 -57 16 -479 16 l-473 0 -6 -22z"/>
</g>
</g>
</svg>
