<?xml version="1.0" standalone="no"?>
<!DOCTYPE svg PUBLIC "-//W3C//DTD SVG 1.1//EN"
 "http://www.w3.org/Graphics/SVG/1.1/DTD/svg11.dtd">
<!-- Created with svg_stack (http://github.com/astraw/svg_stack) -->
<svg xmlns:sodipodi="http://sodipodi.sourceforge.net/DTD/sodipodi-0.dtd" xmlns="http://www.w3.org/2000/svg" version="1.1" width="1440.0" height="1018.0">
  <defs/>
  <g id="id0:id0" transform="matrix(1.25,0,0,1.25,0.0,0.0)"><g transform="translate(0.000000,814.400000) scale(0.040000,-0.040000)" fill="#000101" stroke="none">
<path d="M22170 18771 c-13 -26 -14 -8767 -1 -8776 12 -7 3770 -7 3782 1 13 7 12 1321 -1 1329 -5 3 -551 6 -1212 5 -662 0 -1209 4 -1216 8 -10 7 -12 250 -12 1183 l0 1174 37 7 c21 4 420 7 887 7 467 0 851 3 853 5 6 6 5 1327 0 1333 -3 2 -398 4 -878 3 -481 0 -880 4 -887 8 -9 7 -12 255 -12 1188 l0 1179 1222 5 c673 3 1224 6 1226 8 1 1 2 301 2 666 0 543 -2 666 -13 675 -10 8 -525 11 -1890 11 l-1876 0 -11 -19z"/>
<path d="M2169 18766 c-5 -6 -9 -1637 -9 -4387 0 -3490 3 -4378 13 -4385 7 -5 794 -7 1812 -4 l1800 5 3 651 c2 538 0 653 -11 663 -10 8 -325 12 -1141 13 l-1126 3 0 3718 c0 2969 -2 3719 -12 3722 -26 10 -1319 10 -1329 1z"/>
<path d="M14652 18764 c-10 -7 -13 -18 -8 -30 7 -19 49 -249 66 -364 6 -36 12 -71 15 -78 2 -7 14 -69 25 -139 12 -70 23 -130 26 -135 3 -4 9 -35 13 -70 8 -59 23 -143 86 -493 14 -77 30 -169 36 -205 5 -36 14 -81 18 -100 5 -19 15 -69 21 -110 6 -41 17 -106 25 -145 8 -38 23 -124 35 -190 11 -66 27 -156 35 -200 8 -44 26 -145 40 -225 14 -80 34 -192 45 -250 11 -58 22 -123 25 -145 4 -22 13 -71 20 -110 8 -38 23 -124 35 -190 11 -66 29 -167 40 -225 19 -104 40 -225 80 -450 11 -63 29 -162 40 -220 10 -58 28 -159 40 -225 11 -66 29 -167 40 -225 19 -104 40 -225 80 -450 11 -63 29 -162 40 -220 17 -94 34 -191 85 -480 9 -47 20 -107 25 -135 13 -68 49 -272 65 -373 8 -46 20 -118 29 -160 14 -73 47 -254 82 -457 8 -49 19 -108 24 -131 5 -23 19 -95 30 -160 11 -65 31 -182 45 -259 14 -77 30 -169 35 -205 6 -36 12 -71 15 -78 2 -7 14 -69 25 -139 12 -70 23 -130 26 -135 3 -4 9 -35 13 -70 8 -59 24 -152 86 -493 14 -77 31 -171 37 -210 5 -38 16 -76 22 -82 9 -10 210 -13 906 -13 492 0 903 0 912 0 21 0 29 28 63 220 31 173 46 259 80 445 14 77 32 176 40 220 8 44 26 143 40 220 14 77 32 176 40 220 8 44 26 143 40 220 14 77 32 176 40 220 8 44 26 143 40 220 14 77 32 176 40 220 14 77 51 277 80 435 7 41 18 104 24 140 13 74 56 310 71 385 11 56 51 273 81 440 11 61 29 157 39 215 11 58 29 157 40 220 12 63 30 162 40 220 11 58 29 157 40 220 12 63 30 162 40 220 11 58 29 157 40 220 12 63 30 162 40 220 11 58 29 157 40 220 12 63 30 162 40 220 11 58 29 157 40 220 12 63 30 162 40 220 11 58 29 157 40 220 12 63 30 162 40 220 11 58 29 157 40 220 12 63 30 162 40 220 11 58 29 157 40 220 12 63 30 162 40 220 11 58 29 157 40 220 12 63 30 162 40 220 11 58 29 157 40 220 12 63 30 162 40 220 11 58 28 155 39 215 11 61 29 157 40 215 10 58 16 111 12 118 -6 11 -136 13 -687 13 -373 -1 -687 -1 -696 -1 -12 0 -19 -11 -23 -37 -3 -21 -10 -60 -15 -88 -5 -27 -13 -79 -19 -115 -6 -36 -20 -119 -31 -185 -11 -66 -31 -194 -45 -285 -14 -91 -29 -185 -35 -210 -5 -25 -14 -79 -20 -120 -6 -41 -17 -111 -25 -155 -7 -44 -23 -143 -35 -220 -11 -77 -25 -162 -30 -190 -5 -27 -13 -79 -19 -115 -6 -36 -20 -119 -31 -185 -11 -66 -31 -194 -45 -285 -14 -91 -29 -185 -35 -210 -5 -25 -14 -79 -20 -120 -6 -41 -17 -111 -25 -155 -7 -44 -23 -143 -35 -220 -11 -77 -25 -162 -30 -190 -5 -27 -13 -79 -19 -115 -6 -36 -20 -119 -31 -185 -11 -66 -31 -194 -45 -285 -14 -91 -29 -185 -35 -210 -5 -25 -14 -79 -20 -120 -6 -41 -17 -111 -25 -155 -7 -44 -23 -143 -35 -220 -11 -77 -25 -162 -30 -190 -5 -27 -13 -79 -19 -115 -6 -36 -20 -119 -31 -185 -11 -66 -31 -194 -45 -285 -14 -91 -29 -185 -35 -210 -5 -25 -14 -79 -20 -120 -6 -41 -17 -111 -25 -155 -7 -44 -23 -143 -35 -220 -11 -77 -25 -162 -30 -190 -25 -144 -90 -538 -97 -593 -3 -23 -10 -45 -14 -48 -14 -8 -25 31 -48 181 -12 77 -26 160 -31 185 -5 25 -21 122 -36 215 -14 94 -33 208 -41 255 -8 47 -18 112 -23 145 -10 66 -49 312 -81 505 -11 69 -26 166 -34 217 -7 51 -18 116 -24 145 -6 29 -15 85 -21 123 -5 39 -14 97 -20 130 -6 33 -17 103 -25 155 -14 96 -41 261 -76 470 -10 63 -23 147 -29 185 -6 39 -19 124 -30 190 -11 66 -24 145 -29 175 -17 102 -30 185 -41 255 -6 39 -20 124 -30 190 -51 315 -60 367 -75 465 -9 58 -21 130 -26 160 -5 30 -13 82 -18 115 -6 33 -15 89 -21 125 -7 36 -18 106 -25 155 -8 50 -24 149 -35 220 -46 281 -59 365 -80 500 -11 77 -23 147 -26 155 -3 8 -9 44 -14 80 -9 64 -40 259 -81 510 -11 69 -26 168 -34 220 -17 114 -43 251 -49 257 -2 2 -313 5 -691 6 -490 1 -692 -1 -703 -9z"/>
<path d="M12934 18290 l-410 -5 -77 -38 c-42 -21 -114 -65 -159 -99 -198 -147 -300 -198 -473 -237 -90 -20 -117 -25 -335 -61 -188 -31 -256 -50 -348 -98 -162 -85 -177 -91 -250 -110 -65 -18 -78 -18 -137 -6 -76 16 -130 41 -202 95 -119 89 -221 153 -273 171 -69 24 -153 26 -205 5 -22 -8 -78 -29 -124 -46 -46 -17 -102 -44 -124 -59 -64 -43 -114 -144 -136 -275 -5 -34 -11 -41 -45 -52 -89 -31 -134 -109 -162 -287 -9 -57 -19 -109 -23 -116 -3 -7 -51 -33 -106 -57 -155 -70 -252 -141 -415 -305 -125 -126 -153 -149 -205 -170 -94 -37 -142 -75 -191 -151 -25 -38 -48 -69 -51 -69 -3 0 -25 10 -47 23 -23 13 -75 34 -116 47 -105 32 -101 29 -141 111 -75 154 -191 204 -319 139 -58 -29 -154 -131 -275 -290 -76 -100 -117 -146 -140 -156 -58 -24 -306 -56 -491 -63 -169 -7 -184 -9 -236 -34 -103 -51 -172 -153 -171 -257 1 -59 10 -86 48 -138 35 -48 70 -207 70 -320 l0 -93 -66 -22 c-78 -26 -137 -65 -184 -120 -40 -46 -79 -127 -89 -182 -9 -49 -33 -89 -81 -135 -33 -32 -42 -35 -118 -42 -153 -12 -265 -34 -430 -83 l-57 -17 -48 31 c-81 53 -144 81 -226 101 -116 29 -180 27 -254 -11 -78 -39 -108 -85 -128 -201 -13 -73 -13 -88 2 -138 22 -75 86 -169 196 -285 80 -85 263 -253 354 -325 17 -14 84 -68 150 -121 138 -110 302 -232 503 -374 299 -210 441 -330 441 -371 0 -23 105 -224 158 -302 177 -259 313 -401 682 -712 395 -332 657 -561 822 -716 109 -103 167 -135 250 -142 71 -5 136 22 224 96 l61 51 104 -38 c91 -33 190 -73 349 -141 25 -10 78 -33 118 -50 350 -149 567 -205 693 -181 83 17 128 40 200 107 46 42 66 54 91 54 18 0 98 -23 178 -51 146 -51 273 -79 365 -79 l50 -1 61 -73 c116 -138 187 -178 378 -216 32 -7 88 -25 125 -42 99 -45 189 -78 255 -93 130 -31 352 39 516 162 80 60 130 146 130 224 0 93 -66 194 -185 284 -41 31 -75 58 -75 59 0 38 -38 196 -65 269 -19 54 -35 114 -35 133 0 19 -5 44 -11 55 -7 15 -7 35 1 72 27 122 29 124 92 179 100 87 123 115 167 204 79 162 101 302 62 404 -11 28 -42 75 -71 106 -54 60 -90 121 -90 153 0 20 21 39 90 81 43 26 83 82 101 142 6 18 10 111 9 205 -1 165 6 213 30 213 32 0 127 48 168 85 105 95 133 242 77 410 l-26 80 6 215 7 215 -27 80 -27 80 8 185 c10 212 10 304 -1 590 -5 134 -4 231 3 280 10 69 54 241 102 401 40 133 152 334 372 669 63 96 127 206 143 245 25 63 27 78 22 160 -5 99 -21 152 -77 266 -24 50 -45 114 -60 185 -12 60 -33 136 -47 168 l-24 59 44 46 c25 25 64 75 87 111 42 65 170 320 170 338 0 5 -8 11 -17 13 -10 2 -203 2 -429 -1z m-191 -257 c4 -3 0 -17 -9 -31 -9 -13 -18 -50 -21 -81 -7 -71 16 -120 93 -204 58 -62 86 -131 103 -252 11 -69 14 -79 72 -200 34 -71 43 -104 47 -159 5 -82 10 -73 -168 -342 -257 -388 -318 -520 -424 -909 -46 -169 -54 -249 -47 -480 6 -215 6 -371 2 -660 -3 -183 -2 -206 18 -267 20 -62 21 -85 19 -290 l-2 -223 27 -83 c48 -148 33 -182 -89 -202 -69 -11 -108 -39 -139 -100 -40 -78 -57 -184 -54 -341 2 -139 -4 -169 -35 -169 -7 0 -31 -16 -54 -36 -150 -128 -139 -347 27 -536 50 -57 53 -94 14 -199 -27 -73 -53 -106 -144 -180 -49 -40 -111 -138 -133 -209 -48 -158 -41 -291 25 -487 28 -83 42 -145 48 -210 10 -110 26 -137 135 -218 39 -29 84 -66 99 -83 l28 -29 -33 -28 c-43 -37 -137 -80 -219 -102 l-66 -17 -59 21 c-32 11 -111 42 -174 68 -63 26 -146 53 -185 60 -38 6 -83 19 -100 28 -33 17 -119 103 -179 180 -58 73 -98 89 -215 86 -108 -2 -146 5 -288 56 -276 99 -394 89 -537 -44 -28 -26 -58 -50 -66 -53 -25 -9 -131 9 -221 38 -129 40 -444 166 -614 244 -153 70 -345 130 -415 130 -53 0 -131 -37 -198 -95 -30 -25 -56 -45 -58 -45 -3 0 -77 65 -164 144 -88 79 -186 166 -217 192 -32 27 -96 83 -143 124 -47 42 -112 98 -146 126 -34 27 -112 93 -175 147 -63 53 -150 128 -194 165 -309 262 -535 540 -646 796 -21 48 -55 109 -76 134 -39 47 -169 161 -245 215 -174 121 -458 325 -534 383 -374 285 -719 604 -773 714 -40 82 62 80 195 -5 130 -83 203 -92 366 -45 146 41 243 60 318 60 136 0 233 41 326 136 49 51 109 161 124 229 19 86 72 135 145 135 144 0 227 138 211 353 -11 157 -63 382 -102 445 -8 12 -12 27 -9 32 3 6 41 10 83 10 144 0 439 35 572 67 36 9 91 29 122 44 51 26 69 44 177 186 65 87 133 171 150 187 l31 29 30 -66 c37 -82 69 -107 185 -142 100 -30 192 -75 225 -110 19 -20 72 -148 132 -317 11 -32 24 -58 28 -58 10 0 39 89 80 245 69 263 114 346 208 376 66 21 165 96 237 179 165 190 399 340 532 340 60 0 88 19 89 60 1 35 18 191 32 284 l7 49 48 12 c102 26 146 91 152 225 5 112 21 137 105 165 36 11 75 27 87 35 19 12 27 11 65 -5 50 -22 108 -60 195 -127 148 -114 324 -168 482 -147 112 14 242 63 351 131 52 33 146 63 240 77 496 75 686 136 882 284 83 62 146 105 199 136 46 26 64 31 125 31 39 0 74 -3 77 -7z"/>
<path d="M5623 8436 c-56 -26 -147 -92 -191 -140 -46 -50 -93 -142 -162 -321 -23 -60 -46 -118 -51 -127 -19 -37 15 -64 76 -59 40 2 63 27 152 159 42 62 80 109 84 105 20 -20 59 -260 126 -763 l25 -195 2 -730 c2 -492 6 -740 13 -762 9 -26 8 -38 -7 -65 -24 -45 -34 -94 -20 -103 6 -3 39 -8 73 -9 40 -2 97 -15 154 -35 70 -25 103 -31 148 -29 74 4 89 23 110 138 9 47 25 130 37 185 14 64 22 143 23 220 2 106 6 129 30 185 15 36 33 90 41 120 20 81 37 328 31 439 -3 53 -8 177 -10 276 -3 99 -8 209 -12 245 -5 54 -1 87 25 194 63 260 132 439 223 578 57 87 151 179 166 162 18 -21 33 -133 47 -344 8 -124 15 -234 15 -245 0 -11 6 -74 14 -140 8 -66 15 -149 15 -185 0 -36 8 -96 17 -134 14 -61 15 -83 5 -176 -24 -216 -12 -359 48 -580 85 -313 168 -483 278 -568 61 -47 258 -153 296 -159 48 -8 150 22 203 58 93 65 158 172 218 365 38 121 37 141 -5 164 -29 15 -37 12 -45 -17 -25 -103 -119 -292 -183 -371 -38 -47 -110 -89 -136 -79 -9 4 -24 21 -34 38 -9 17 -31 49 -49 70 l-32 39 16 37 c15 38 15 49 -17 231 -5 29 -6 90 -3 135 8 113 6 151 -16 236 -13 54 -16 83 -10 105 10 34 27 146 37 241 3 33 4 224 2 425 -2 317 -5 372 -20 416 -10 28 -24 78 -30 110 -18 87 -52 146 -116 200 -50 43 -64 65 -120 180 -70 146 -101 180 -196 215 l-52 19 -90 -16 c-123 -22 -161 -44 -213 -123 -23 -36 -56 -78 -72 -95 -44 -46 -113 -169 -150 -268 -38 -103 -73 -171 -86 -170 -6 0 -20 38 -32 84 -12 46 -31 115 -42 153 -12 39 -31 103 -42 143 -44 164 -120 265 -239 321 -68 31 -215 41 -267 17z"/>
<path d="M13965 7676 c-66 -30 -150 -141 -186 -248 -25 -75 -30 -250 -10 -338 14 -58 45 -120 66 -132 19 -11 -51 -221 -129 -387 -35 -75 -68 -149 -71 -163 -15 -59 46 -38 89 30 46 74 114 209 151 302 20 52 41 99 45 103 4 5 27 -5 50 -22 23 -16 64 -37 91 -46 27 -9 51 -20 54 -25 3 -5 -1 -42 -9 -82 -33 -164 -39 -231 -39 -393 1 -179 7 -222 49 -310 33 -69 78 -121 148 -169 82 -57 122 -68 182 -52 92 24 268 161 341 264 26 37 67 90 90 117 64 73 140 233 156 325 7 41 11 83 9 93 -7 33 -32 17 -57 -35 -37 -78 -190 -315 -265 -409 -108 -137 -292 -282 -335 -265 -21 8 -18 33 5 46 42 23 64 106 39 151 -8 16 -7 30 5 60 11 27 16 72 16 139 l0 99 40 46 c21 25 58 85 81 133 22 48 47 94 54 102 17 21 55 138 55 172 0 15 -9 52 -20 82 -30 78 -96 137 -189 167 l-72 23 -52 -18 c-29 -10 -80 -36 -115 -58 -45 -30 -77 -42 -113 -46 l-49 -5 -25 56 -24 56 26 58 c67 150 109 319 98 393 -3 25 -10 68 -13 95 -9 63 -16 74 -58 91 -41 17 -70 17 -109 0z m69 -287 c-3 -5 -10 -7 -15 -3 -5 3 -7 10 -3 15 3 5 10 7 15 3 5 -3 7 -10 3 -15z m-10 -50 c-3 -5 -10 -7 -15 -3 -5 3 -7 10 -3 15 3 5 10 7 15 3 5 -3 7 -10 3 -15z"/>
<path d="M8665 7533 c-29 -5 -166 -44 -193 -54 -50 -19 -52 -105 -4 -157 21 -22 46 -34 102 -47 140 -32 199 -22 274 48 31 30 36 41 36 79 0 61 -25 91 -92 111 -69 20 -98 25 -123 20z"/>
<path d="M10364 7369 c-94 -36 -279 -217 -341 -334 -14 -28 -33 -61 -43 -75 -34 -50 -90 -219 -125 -375 -29 -127 -25 -313 9 -444 33 -128 54 -170 120 -239 97 -103 217 -176 306 -186 30 -4 78 -9 105 -12 120 -15 174 5 270 97 54 51 68 72 86 127 15 45 36 81 64 112 60 64 220 294 273 391 39 72 65 154 57 179 -3 11 -18 23 -32 26 -35 9 -64 -23 -101 -113 -25 -59 -137 -241 -246 -399 -103 -151 -134 -189 -186 -232 -120 -97 -256 -110 -344 -33 -71 62 -109 299 -71 445 8 31 48 121 89 199 40 78 84 176 96 217 24 82 126 340 140 354 4 4 13 -1 19 -13 9 -16 21 -21 54 -21 73 0 109 54 71 108 -8 12 -22 47 -29 77 -25 94 -50 133 -93 144 -79 20 -97 20 -148 0z"/>
<path d="M12445 7215 c-42 -15 -68 -40 -97 -94 -9 -17 -21 -31 -25 -31 -5 0 -33 16 -63 36 -74 49 -112 53 -191 19 -131 -55 -155 -71 -249 -165 -81 -81 -102 -109 -143 -192 -87 -175 -159 -418 -158 -533 0 -143 86 -300 193 -356 66 -34 118 -40 198 -23 77 16 112 35 153 83 22 27 103 185 148 289 10 24 23 40 29 37 5 -3 10 -41 10 -83 0 -110 24 -213 72 -304 67 -129 144 -173 254 -144 57 15 140 60 199 108 32 27 47 48 187 263 91 139 205 366 215 428 5 32 3 37 -15 37 -36 0 -61 -34 -143 -195 -44 -88 -102 -189 -128 -225 -27 -36 -51 -73 -54 -83 -25 -71 -171 -230 -222 -243 -22 -5 -33 -1 -61 27 l-34 34 39 52 c22 29 49 83 61 120 12 37 33 86 46 109 44 74 87 264 103 449 24 276 24 277 6 365 -11 50 -28 98 -41 116 -31 42 -110 91 -159 99 -22 3 -51 8 -65 10 -14 3 -43 -2 -65 -10z m-265 -250 c19 -19 41 -35 50 -35 32 0 40 -23 40 -116 0 -142 -22 -225 -94 -344 -8 -14 -35 -68 -59 -120 -25 -52 -59 -124 -75 -160 -34 -72 -113 -167 -166 -200 -56 -34 -109 -10 -162 72 -47 73 -49 112 -15 239 69 258 168 486 256 592 96 116 162 137 225 72z"/>
<path d="M16360 7217 c-30 -11 -70 -52 -106 -113 -10 -16 -15 -17 -30 -7 -98 64 -125 75 -170 68 -25 -3 -83 -24 -130 -46 -131 -60 -264 -195 -338 -344 -48 -97 -121 -314 -142 -424 -15 -80 -16 -100 -4 -159 15 -77 58 -173 102 -226 34 -41 112 -85 173 -97 73 -15 210 26 251 74 23 28 165 305 178 350 13 43 26 -1 26 -91 0 -179 48 -315 141 -403 38 -37 58 -47 94 -52 105 -15 273 78 353 193 141 205 235 368 308 533 39 90 43 117 15 117 -22 0 -81 -46 -81 -63 0 -21 -132 -272 -175 -332 -23 -33 -67 -100 -98 -150 -73 -119 -163 -205 -213 -205 -23 0 -64 42 -64 65 0 7 16 36 35 65 19 28 41 73 49 100 8 26 30 81 50 121 59 124 88 266 117 586 11 119 10 140 -6 210 -22 97 -52 151 -103 187 -63 43 -172 64 -232 43z m-260 -252 c19 -19 41 -35 51 -35 35 0 42 -25 36 -143 -7 -128 -25 -198 -72 -277 -17 -30 -65 -127 -106 -215 -70 -152 -78 -164 -155 -244 -78 -79 -84 -83 -116 -78 -50 10 -122 92 -138 157 -14 57 -10 81 29 219 30 102 121 352 148 405 29 57 102 152 152 199 44 41 56 47 94 47 36 0 48 -6 77 -35z"/>
<path d="M18073 7222 c-28 -9 -176 -143 -217 -197 -17 -23 -56 -75 -87 -116 -74 -97 -107 -166 -159 -324 -55 -169 -62 -261 -31 -390 25 -100 34 -119 114 -227 77 -104 169 -159 316 -188 57 -12 110 -19 118 -16 7 3 22 20 33 38 24 42 109 113 120 102 11 -11 14 -176 5 -259 -13 -123 -10 -117 -99 -193 -47 -39 -125 -118 -174 -175 -111 -130 -135 -185 -130 -297 3 -70 7 -80 50 -146 59 -89 93 -118 158 -134 101 -24 171 16 212 121 18 47 36 71 80 110 65 56 68 65 93 234 9 61 18 117 21 126 2 9 9 52 14 95 16 141 31 174 106 235 164 134 271 228 287 252 9 15 36 48 60 75 166 193 317 386 317 408 0 7 -8 18 -18 23 -31 17 -77 -14 -150 -102 -85 -101 -329 -355 -383 -397 -20 -17 -40 -27 -42 -23 -3 5 5 44 18 88 66 237 88 362 75 439 -8 52 -6 78 21 200 33 150 34 197 4 259 -30 63 -158 181 -230 211 -32 14 -48 15 -91 6 -81 -17 -84 -22 -101 -151 -8 -63 -21 -144 -29 -181 -8 -36 -11 -73 -8 -82 3 -9 -1 -71 -10 -139 -9 -67 -20 -158 -25 -203 -13 -122 -51 -193 -156 -293 -93 -87 -144 -112 -193 -95 l-27 9 -3 136 -3 137 56 167 c30 93 71 198 91 234 84 152 164 314 164 332 0 11 5 29 11 40 8 16 16 18 45 13 42 -8 64 8 64 47 0 37 -85 149 -131 171 -39 19 -124 30 -156 20z m177 -1948 c-6 -14 -10 -60 -10 -102 -1 -109 -24 -277 -44 -307 -14 -21 -24 -25 -65 -25 -56 0 -86 19 -131 85 -21 31 -30 56 -30 83 l0 40 137 131 c75 71 140 128 145 125 4 -3 3 -16 -2 -30z"/>
<path d="M19838 7216 c-59 -13 -88 -30 -88 -51 0 -7 -34 -58 -75 -113 -41 -55 -75 -108 -75 -116 0 -34 76 -7 138 47 44 40 47 21 47 -306 0 -166 -2 -329 -4 -362 -2 -33 -1 -116 2 -184 5 -106 10 -132 32 -177 36 -74 87 -114 144 -114 68 0 181 65 282 164 79 76 89 91 157 230 44 88 77 145 83 139 5 -5 11 -54 14 -109 8 -167 50 -297 117 -365 56 -57 149 -129 175 -135 29 -8 106 30 135 66 11 13 30 31 42 40 39 26 153 158 160 184 3 14 23 54 43 88 59 100 114 228 123 288 5 30 22 104 39 165 22 79 27 113 19 122 -23 28 -33 10 -64 -107 -22 -85 -146 -340 -221 -455 -33 -49 -84 -117 -115 -150 -48 -51 -57 -57 -64 -42 -4 10 0 44 9 74 11 40 12 64 6 89 -7 22 -6 47 0 72 6 20 11 51 11 67 -1 548 -3 589 -39 671 -22 50 -58 85 -129 126 -46 26 -60 30 -98 24 -59 -8 -75 -17 -109 -65 -25 -37 -29 -53 -36 -159 -9 -140 -40 -244 -133 -454 -48 -109 -198 -334 -215 -324 -4 3 -2 45 5 93 20 143 24 408 8 531 -8 59 -16 148 -17 197 -3 102 -24 160 -82 231 -34 41 -94 78 -145 88 -14 2 -50 -1 -82 -8z"/>
<path d="M22703 7211 c-30 -14 -51 -34 -74 -70 -17 -28 -35 -51 -40 -51 -5 0 -32 17 -61 38 -47 33 -59 37 -109 36 -31 -1 -69 -8 -85 -17 -16 -9 -55 -28 -86 -41 -41 -18 -84 -50 -151 -115 -84 -81 -98 -100 -148 -203 -67 -135 -146 -368 -157 -461 -22 -177 62 -365 189 -429 110 -56 273 -30 343 53 27 31 125 222 159 307 10 24 22 40 27 37 6 -3 10 -49 10 -102 0 -100 15 -177 51 -259 85 -192 201 -234 377 -137 86 47 124 82 178 166 26 40 71 109 101 155 69 107 223 416 223 449 0 23 -3 25 -32 19 -17 -3 -32 -7 -34 -9 -1 -1 -36 -72 -79 -157 -42 -85 -101 -187 -131 -226 -30 -39 -54 -74 -54 -77 0 -3 -17 -34 -37 -69 -44 -76 -135 -173 -184 -199 l-36 -18 -32 33 c-17 17 -31 37 -31 44 0 6 18 35 39 64 22 29 43 69 46 90 4 21 22 66 40 101 33 64 78 207 89 287 4 25 11 72 16 105 5 33 14 126 21 206 10 129 9 156 -5 229 -22 106 -33 128 -92 173 -75 58 -183 79 -251 48z m-258 -240 c16 -16 46 -38 65 -49 32 -17 35 -23 36 -68 1 -27 -5 -92 -13 -144 -12 -86 -22 -112 -108 -286 -52 -106 -99 -204 -105 -219 -16 -41 -68 -115 -118 -167 -48 -50 -98 -74 -131 -63 -36 11 -99 91 -117 149 l-18 56 24 93 c24 97 73 238 135 397 44 110 117 222 188 286 41 37 56 44 90 44 32 0 48 -7 72 -29z"/>
<path d="M8516 7090 c-23 -4 -49 -18 -62 -33 -29 -34 -68 -215 -78 -362 -3 -38 -10 -110 -15 -160 -13 -118 1 -372 28 -487 55 -239 175 -318 401 -265 70 17 79 22 143 85 93 91 161 192 239 352 133 272 149 320 109 320 -14 0 -33 -27 -71 -102 -29 -57 -60 -114 -69 -128 -10 -14 -28 -47 -42 -73 -55 -109 -212 -292 -281 -328 -40 -20 -58 -12 -29 13 14 12 20 37 25 108 4 51 14 131 22 179 30 168 41 442 24 576 -15 121 -19 131 -70 199 -32 42 -53 58 -103 79 -74 31 -118 38 -171 27z"/>
<path d="M15455 3843 c-40 -6 -52 -18 -61 -56 -3 -18 -19 -48 -34 -67 -15 -19 -72 -102 -125 -185 -130 -199 -241 -348 -309 -415 -31 -30 -56 -60 -56 -67 0 -7 14 -20 31 -29 25 -12 37 -13 58 -5 28 12 218 202 334 334 38 42 72 75 77 72 4 -2 2 -31 -6 -62 -7 -32 -15 -143 -17 -248 -3 -104 -10 -210 -17 -235 -11 -46 -9 -564 4 -660 3 -25 8 -154 12 -286 5 -194 3 -243 -7 -250 -13 -8 -49 -15 -168 -34 -65 -10 -131 -47 -131 -73 0 -7 15 -22 33 -33 30 -20 49 -22 302 -28 149 -4 288 -11 310 -16 51 -12 268 -12 320 0 25 6 57 5 88 -2 37 -7 66 -7 111 2 77 16 104 33 122 76 45 107 -112 163 -417 151 -116 -5 -150 -3 -158 7 -9 10 -7 38 5 107 13 78 14 106 4 166 -14 88 -13 487 1 627 6 56 12 157 13 226 1 71 8 134 14 147 15 27 16 186 1 233 -5 19 -12 107 -14 195 -5 186 -16 233 -74 309 -64 85 -137 115 -246 99z"/>
<path d="M11315 3799 c-163 -49 -213 -81 -241 -155 -15 -39 -15 -46 0 -98 18 -60 44 -86 89 -86 37 0 43 19 28 97 -10 57 -10 68 4 83 26 29 246 50 349 33 49 -8 79 -51 72 -103 -15 -116 -37 -232 -54 -281 -45 -128 -121 -258 -201 -344 -41 -44 -321 -453 -321 -469 0 -9 -63 -104 -114 -171 -57 -75 -158 -296 -226 -493 -35 -99 -46 -266 -20 -297 19 -23 72 -45 124 -52 101 -15 472 -6 720 17 130 11 173 20 286 56 41 13 117 35 169 48 116 30 150 62 121 116 -16 30 -68 39 -177 29 -95 -8 -136 -15 -313 -58 -94 -23 -211 -43 -250 -43 -26 -1 -247 -26 -290 -34 -47 -8 -180 -12 -184 -5 -8 12 101 222 131 254 46 49 102 138 114 179 12 47 68 95 175 152 65 35 88 54 142 121 35 44 112 135 171 203 187 218 210 246 242 307 18 33 45 80 62 103 58 87 116 227 133 324 9 51 21 102 27 113 6 11 10 52 10 90 0 133 -78 252 -209 322 -83 44 -124 53 -265 58 -46 2 -111 6 -144 9 -48 4 -79 -1 -160 -25z"/>
<path d="M13403 3811 c-69 -24 -124 -61 -164 -111 -19 -23 -58 -69 -87 -103 -205 -239 -332 -575 -396 -1052 -17 -128 -11 -332 15 -455 24 -115 75 -258 113 -315 70 -106 214 -252 291 -297 39 -22 79 -49 90 -59 40 -36 135 -71 202 -75 35 -2 74 -9 85 -15 31 -17 70 -5 204 62 124 61 158 89 237 193 16 20 45 44 65 54 50 24 76 67 91 153 8 41 27 114 43 163 17 52 31 116 33 155 2 37 10 85 20 106 26 63 36 120 45 275 4 80 14 160 20 178 9 24 10 40 2 57 -8 17 -7 34 4 64 16 46 13 213 -4 234 -5 7 -12 31 -15 55 -5 44 -46 132 -77 167 -10 11 -25 35 -34 52 -26 51 -243 260 -277 267 -33 6 -69 -5 -88 -28 -7 -9 -19 -16 -26 -16 -22 0 -26 -30 -8 -63 9 -18 39 -65 67 -106 149 -215 167 -252 222 -482 13 -55 14 -264 2 -285 -4 -5 -9 -66 -12 -134 -6 -127 -16 -182 -56 -325 -78 -280 -96 -322 -186 -441 -113 -150 -199 -195 -307 -161 -52 17 -77 34 -204 138 -118 97 -138 125 -178 251 -41 127 -61 299 -52 428 13 171 82 383 199 610 117 229 157 286 312 443 110 111 147 155 155 184 41 146 -44 243 -219 250 -53 2 -90 -3 -127 -16z"/>
<path d="M17889 3725 c-12 -12 -382 -66 -489 -71 -36 -2 -186 -6 -335 -10 -296 -7 -317 -11 -359 -68 -13 -17 -29 -48 -36 -69 l-12 -37 70 -68 c50 -49 74 -80 87 -117 52 -147 108 -219 170 -219 72 0 101 70 55 133 -37 53 -131 244 -122 252 6 6 78 17 312 50 47 6 110 9 140 7 30 -3 115 0 188 5 90 6 137 6 144 -1 7 -7 4 -29 -7 -69 -23 -79 -111 -314 -146 -390 -16 -35 -43 -93 -60 -130 -17 -37 -39 -88 -49 -113 -10 -25 -37 -78 -60 -119 -23 -41 -50 -98 -60 -126 -10 -28 -23 -60 -28 -71 -24 -44 -63 -136 -86 -205 -14 -41 -46 -123 -71 -184 -81 -191 -179 -515 -190 -625 -3 -36 -13 -98 -22 -138 -14 -63 -20 -75 -45 -88 -51 -26 -33 -47 52 -61 41 -7 98 -24 126 -37 71 -35 131 -47 160 -34 33 15 70 96 93 203 11 50 43 151 71 225 28 74 73 196 100 271 27 75 70 181 96 235 58 124 89 198 120 294 14 41 43 103 64 138 62 99 176 369 251 596 39 115 83 237 99 270 29 61 60 187 60 248 0 47 -27 93 -66 111 -24 12 -61 17 -123 17 -48 0 -90 -2 -92 -5z"/>
<path d="M4328 2783 c-39 -45 -27 -104 25 -123 21 -7 807 -10 2519 -10 2335 0 2492 1 2519 17 45 27 49 72 11 116 -14 16 -148 17 -2537 17 -2389 0 -2523 -1 -2537 -17z"/>
<path d="M19435 2773 c-33 -36 -32 -58 4 -94 l29 -29 2495 0 c1819 0 2503 3 2526 11 51 18 67 78 31 117 l-21 22 -2519 0 -2519 0 -26 -27z"/>
</g>
</g>
</svg>
