<?xml version="1.0" standalone="no"?>
<!DOCTYPE svg PUBLIC "-//W3C//DTD SVG 1.1//EN"
 "http://www.w3.org/Graphics/SVG/1.1/DTD/svg11.dtd">
<!-- Created with svg_stack (http://github.com/astraw/svg_stack) -->
<svg xmlns:sodipodi="http://sodipodi.sourceforge.net/DTD/sodipodi-0.dtd" xmlns="http://www.w3.org/2000/svg" version="1.1" width="838.0" height="482.0">
  <defs/>
  <g id="id0:id0" transform="matrix(1.25,0,0,1.25,0.0,0.0)"><g transform="translate(0.000000,385.600000) scale(0.040000,-0.040000)" fill="#ffffff" stroke="none">
<path d="M0 4820 l0 -4820 8380 0 8380 0 0 4820 0 4820 -8380 0 -8380 0 0 -4820z m8792 4260 c10 -51 16 -61 39 -69 22 -8 26 -14 22 -33 -3 -13 -10 -28 -15 -34 -11 -14 -14 -137 -4 -153 4 -6 13 -10 19 -9 26 5 54 -22 60 -57 3 -19 15 -47 27 -62 19 -24 19 -28 5 -42 -12 -12 -17 -12 -27 -3 -21 21 -47 13 -63 -18 -21 -41 -19 -52 15 -85 20 -19 27 -32 20 -39 -6 -6 -16 -4 -28 7 -17 16 -20 16 -40 -6 -31 -33 -28 -88 7 -164 32 -67 52 -83 103 -83 57 0 142 93 166 181 8 30 6 39 -14 64 -22 28 -22 30 -6 48 24 27 24 75 0 88 -11 6 -26 8 -33 5 -25 -9 -25 7 0 36 14 16 25 38 25 48 0 25 28 40 62 33 32 -6 48 18 28 43 -10 11 -10 18 -2 26 7 7 12 32 12 56 0 31 7 53 23 72 12 16 30 40 40 55 23 32 37 24 37 -22 0 -23 8 -45 20 -58 l20 -22 -20 -18 c-11 -10 -20 -28 -20 -40 0 -13 -6 -28 -14 -34 -27 -22 -26 -62 3 -88 17 -17 25 -33 23 -49 -2 -13 3 -38 12 -54 13 -28 13 -31 -3 -40 -12 -6 -22 -5 -29 2 -13 13 -36 -2 -53 -35 -8 -14 -7 -23 6 -37 18 -20 13 -40 -11 -40 -31 0 -54 -38 -54 -89 0 -28 5 -53 10 -56 6 -4 8 -15 5 -24 -7 -24 29 -54 66 -54 21 0 41 11 69 38 29 28 43 36 51 28 8 -8 -5 -27 -44 -68 -43 -46 -63 -59 -89 -60 -18 -2 -222 -3 -454 -4 -289 -2 -435 1 -466 9 -63 16 -136 94 -103 110 6 3 14 -5 20 -17 17 -39 94 -45 129 -10 45 45 41 207 -5 207 -9 0 -22 -7 -29 -15 -7 -8 -16 -13 -20 -10 -11 7 -1 42 16 56 8 6 14 22 14 34 0 29 -47 41 -72 18 -25 -23 -47 -10 -40 24 2 15 9 34 14 40 6 7 10 28 10 48 0 31 4 37 34 50 36 15 43 29 19 39 -8 3 -12 12 -9 21 4 8 0 23 -7 32 -8 9 -22 32 -31 52 l-17 36 21 16 c17 13 20 23 14 52 -7 38 8 82 25 72 5 -4 9 -17 9 -29 0 -13 7 -29 15 -36 8 -7 15 -19 15 -26 0 -8 6 -14 14 -14 7 0 19 -7 26 -15 10 -12 10 -18 0 -30 -22 -26 -5 -84 38 -129 21 -23 51 -58 67 -80 l28 -38 -32 -25 c-34 -27 -40 -57 -16 -83 14 -15 13 -20 -10 -44 -22 -24 -24 -31 -16 -67 5 -22 16 -46 24 -52 7 -7 24 -29 37 -51 45 -75 128 -99 176 -51 33 33 74 122 74 160 -1 36 -31 75 -59 75 -29 0 -37 21 -15 39 33 27 37 51 13 78 -25 25 -49 29 -67 11 -8 -8 -15 -8 -26 1 -17 15 -11 40 16 62 11 8 23 31 27 50 6 31 11 34 46 39 37 5 40 7 43 40 4 38 -25 157 -39 166 -15 9 1 24 26 24 25 0 40 26 30 53 -4 8 -2 18 4 21 6 4 8 13 4 22 -6 16 25 56 38 48 5 -2 14 -31 21 -64z m766 -316 c-32 -48 -40 -49 -44 -9 -2 19 3 28 21 35 13 5 26 14 30 20 3 5 10 8 15 5 5 -3 -5 -26 -22 -51z m-1553 -25 c-10 -15 -22 -10 -39 16 -25 38 -8 54 21 21 13 -15 21 -32 18 -37z m63 -111 c4 -4 25 -22 47 -41 34 -30 37 -37 26 -51 -7 -9 -20 -16 -27 -16 -19 0 -18 -16 1 -24 8 -3 15 -13 15 -23 0 -10 9 -29 20 -43 13 -18 16 -28 8 -37 -7 -9 -7 -17 1 -27 7 -8 8 -17 3 -20 -6 -3 -15 1 -22 9 -7 8 -9 15 -5 15 5 0 2 8 -6 18 -23 29 -39 61 -39 79 0 10 -8 32 -18 48 -11 17 -22 47 -26 67 -3 20 -14 39 -23 42 -9 4 -13 9 -10 13 4 3 2 13 -3 23 -16 30 4 33 28 3 12 -15 26 -31 30 -35z m1432 -3 c11 -13 9 -20 -9 -38 -11 -13 -21 -31 -21 -40 0 -10 -7 -20 -15 -23 -8 -4 -15 -11 -15 -18 0 -6 -9 -22 -19 -35 -10 -14 -17 -30 -14 -37 5 -15 -13 -28 -27 -19 -8 5 -7 12 2 22 14 17 12 61 -4 81 -8 9 -5 19 11 35 11 13 21 29 21 35 0 11 56 52 71 52 4 0 12 -7 19 -15z m-1895 -905 c5 -4 46 -10 90 -13 44 -3 103 -10 130 -16 28 -7 65 -15 83 -18 18 -3 35 -9 38 -14 3 -5 16 -9 29 -9 13 0 27 -4 30 -10 3 -5 22 -10 42 -10 20 0 68 -16 111 -37 43 -20 79 -38 82 -38 27 -8 100 -54 220 -141 44 -31 180 -166 180 -177 0 -5 17 -28 38 -52 60 -68 192 -317 192 -362 0 -8 7 -27 15 -41 52 -93 82 -246 115 -592 18 -175 23 -419 11 -461 -6 -20 -16 -92 -21 -160 -6 -68 -13 -144 -15 -169 -7 -77 -55 -255 -80 -296 -7 -11 -22 -49 -33 -85 -11 -36 -37 -95 -59 -133 -21 -37 -48 -87 -61 -109 -13 -23 -34 -54 -49 -69 -14 -15 -35 -42 -47 -61 -20 -32 -82 -91 -193 -184 -61 -50 -202 -136 -263 -158 -57 -21 -90 -35 -112 -46 -10 -5 -29 -9 -42 -9 -14 0 -28 -4 -31 -10 -3 -5 -17 -10 -30 -10 -13 0 -27 -4 -30 -10 -3 -6 -28 -10 -55 -10 -27 0 -51 -4 -54 -9 -3 -5 -30 -9 -60 -10 -30 0 -63 -5 -73 -10 -25 -14 -595 -33 -607 -21 -6 6 -39 10 -75 10 -37 0 -84 5 -106 10 -22 6 -70 10 -107 11 -37 0 -70 4 -73 9 -4 6 -18 10 -32 10 -27 0 -84 16 -115 31 -10 5 -26 9 -37 9 -10 0 -30 9 -44 20 -14 11 -36 20 -49 20 -32 0 -133 51 -191 98 -16 12 -35 22 -42 22 -24 0 -275 222 -275 243 0 6 -20 34 -43 63 -39 46 -58 79 -106 184 -7 14 -29 59 -51 100 -21 41 -39 84 -39 94 -1 20 -12 60 -38 136 -51 149 -79 509 -68 894 4 141 13 272 21 320 9 44 18 101 21 126 2 25 13 68 23 95 10 28 30 88 44 135 15 47 34 94 42 104 7 11 14 27 14 37 0 9 7 22 15 29 19 15 45 68 45 90 0 9 11 27 25 40 14 13 25 28 25 33 0 13 42 65 125 154 94 100 234 204 364 268 120 59 164 75 209 75 17 0 34 5 37 10 3 6 17 10 30 10 13 0 27 5 30 10 3 6 26 10 50 10 24 0 47 5 50 10 3 6 17 10 30 10 13 0 26 4 29 8 2 4 44 8 92 10 48 1 92 6 97 11 12 12 567 13 582 1z m3241 -61 c3 -5 56 -9 119 -9 65 0 116 -4 120 -10 3 -5 44 -10 90 -10 46 0 87 -4 90 -10 3 -5 26 -10 50 -10 24 0 47 -4 50 -10 3 -5 26 -10 50 -10 24 0 47 -4 50 -10 3 -5 17 -10 30 -10 13 0 26 -4 29 -9 3 -5 20 -11 38 -14 90 -16 104 -19 123 -27 73 -30 129 -50 140 -50 7 0 18 -6 24 -14 6 -7 33 -21 59 -31 155 -59 209 -96 198 -138 -3 -13 -6 -80 -7 -148 -1 -70 -8 -144 -15 -169 -10 -31 -14 -107 -14 -247 0 -118 -4 -204 -10 -208 -5 -3 -17 -1 -27 4 -21 12 -513 36 -736 36 l-159 0 -19 24 c-10 13 -19 32 -19 43 0 22 -25 75 -48 101 -9 10 -35 27 -57 38 -22 11 -51 27 -65 34 -27 16 -120 20 -148 7 -9 -5 -42 -21 -73 -36 -108 -52 -122 -163 -28 -228 22 -16 45 -28 51 -28 6 0 48 -17 92 -38 45 -21 101 -45 126 -52 25 -7 49 -17 54 -22 6 -4 15 -8 22 -8 6 0 27 -6 45 -14 19 -8 39 -15 44 -16 6 -1 17 -7 25 -14 20 -16 55 -32 110 -50 63 -20 305 -142 321 -162 7 -9 22 -20 34 -25 42 -20 66 -37 118 -85 30 -27 65 -58 78 -70 35 -31 112 -124 136 -164 105 -179 122 -228 134 -395 12 -162 12 -154 0 -350 -9 -147 -22 -216 -54 -285 -92 -207 -102 -223 -204 -330 -57 -59 -122 -117 -149 -132 -106 -58 -211 -107 -254 -118 -25 -7 -53 -16 -62 -21 -10 -5 -29 -9 -42 -9 -14 0 -27 -4 -30 -9 -3 -4 -31 -11 -63 -15 -32 -3 -80 -11 -108 -16 -84 -17 -523 -23 -710 -10 -93 7 -189 11 -212 11 -23 -1 -44 3 -48 9 -3 5 -30 10 -60 10 -30 0 -57 5 -60 10 -3 6 -21 10 -40 10 -19 0 -37 5 -40 10 -3 6 -26 10 -50 10 -24 0 -47 5 -50 10 -3 6 -24 10 -45 10 -21 0 -42 5 -45 10 -3 6 -29 10 -56 10 -30 0 -67 8 -91 20 -23 11 -52 20 -65 20 -12 0 -38 9 -58 20 -20 11 -49 20 -66 20 -16 0 -49 9 -71 20 -23 11 -48 20 -56 20 -8 0 -25 9 -39 20 -14 11 -33 20 -43 20 -25 0 -55 37 -43 52 5 7 11 85 12 173 2 88 5 163 7 166 2 4 6 64 9 135 10 204 23 367 32 373 10 8 292 -4 423 -18 52 -5 196 -13 320 -16 124 -4 228 -9 231 -11 4 -2 9 -24 12 -50 8 -70 54 -153 102 -180 22 -13 54 -23 72 -24 17 0 35 -4 38 -10 8 -13 149 -13 173 -1 9 5 34 17 54 25 48 21 73 72 72 144 -1 46 -6 58 -35 88 -18 19 -51 44 -74 55 -22 11 -73 38 -114 60 -41 21 -78 39 -82 39 -10 0 -207 90 -239 109 -8 5 -26 13 -40 19 -80 32 -107 44 -120 52 -8 6 -24 14 -35 19 -12 5 -27 16 -34 25 -7 9 -27 16 -44 16 -19 0 -48 14 -81 38 -28 21 -63 43 -79 50 -40 17 -234 180 -290 244 -45 51 -59 71 -87 123 -6 11 -19 34 -30 50 -36 54 -60 116 -63 160 -1 24 -6 47 -10 51 -4 4 -7 39 -7 79 0 39 -5 76 -11 82 -7 7 -9 43 -5 104 3 52 8 141 11 199 3 58 10 116 14 130 5 14 14 45 21 70 11 38 48 123 79 180 4 8 16 32 26 52 21 43 151 188 169 188 7 0 22 10 34 23 12 13 42 33 66 45 24 12 49 29 56 37 7 8 21 15 31 15 18 0 38 7 116 41 24 11 49 19 57 19 8 0 18 5 21 10 3 6 25 10 49 10 23 0 46 3 49 7 4 3 33 7 64 8 32 2 99 8 148 15 50 6 128 14 175 16 47 3 90 6 95 8 22 8 326 3 331 -5z m-6441 -119 c3 -5 30 -10 60 -10 30 0 57 -4 60 -10 3 -5 26 -10 50 -10 24 0 47 -4 50 -10 3 -5 17 -10 30 -10 13 0 26 -4 29 -9 3 -5 18 -12 33 -16 16 -3 35 -12 43 -20 8 -7 33 -19 55 -26 49 -17 83 -40 143 -99 85 -83 128 -135 142 -170 7 -19 24 -53 36 -75 64 -112 91 -394 57 -580 -9 -49 -18 -70 -89 -210 -39 -78 -138 -185 -220 -240 -28 -19 -56 -41 -64 -50 -13 -15 -45 -32 -110 -55 -19 -7 -48 -25 -63 -39 -16 -14 -37 -25 -47 -23 -11 2 -23 -6 -30 -17 -13 -26 0 -29 135 -35 138 -5 188 -17 322 -77 24 -10 49 -19 56 -19 7 0 24 -11 37 -25 13 -14 29 -25 35 -25 14 0 128 -117 159 -162 46 -70 78 -131 92 -180 22 -72 32 -211 29 -373 -4 -177 -23 -256 -82 -343 -23 -36 -43 -68 -43 -72 0 -25 -172 -190 -198 -190 -5 0 -17 -9 -27 -20 -20 -23 -232 -130 -257 -130 -9 0 -19 -4 -22 -9 -3 -5 -23 -11 -43 -15 -21 -3 -56 -8 -78 -11 -22 -4 -49 -10 -60 -15 -46 -19 -63 -24 -120 -31 -93 -11 -149 -20 -165 -26 -8 -3 -67 -7 -131 -8 -64 -1 -122 -6 -128 -10 -7 -4 -64 -8 -127 -10 -63 -2 -120 -7 -127 -13 -6 -5 -50 -10 -97 -10 -102 -1 -291 -22 -304 -34 -6 -4 -46 -8 -90 -8 -45 0 -124 -5 -176 -11 -115 -13 -145 -15 -424 -34 -120 -8 -224 -19 -230 -24 -6 -5 -63 -11 -126 -15 -63 -3 -135 -7 -160 -9 l-45 -2 -6 85 c-3 47 -10 99 -16 116 -6 18 -14 81 -18 140 -3 60 -11 133 -16 162 -6 29 -12 84 -14 122 -2 38 -6 74 -9 79 -3 5 1 14 8 20 8 7 17 8 19 4 3 -5 18 -8 34 -7 15 1 63 2 106 3 58 1 77 4 74 14 -2 6 4 27 15 45 l20 32 -16 63 c-9 34 -20 132 -26 217 -6 85 -15 198 -21 250 -5 52 -14 158 -19 235 -5 77 -14 176 -20 220 -5 44 -14 141 -19 215 -6 74 -14 155 -20 180 -6 25 -15 122 -21 215 -20 309 -26 338 -67 320 -10 -5 -60 -9 -112 -10 -126 -1 -122 -8 -142 255 -13 176 -26 305 -37 357 -10 44 -6 90 8 98 5 3 49 9 99 14 50 6 95 12 100 15 4 3 69 8 142 10 74 3 204 12 289 20 85 9 231 22 323 30 93 8 174 19 180 24 7 5 71 12 142 16 176 9 210 12 224 21 7 4 72 8 144 10 145 2 357 21 369 33 12 12 526 14 533 2z m9422 -104 c22 -2 46 1 52 7 8 8 14 8 23 -1 8 -8 46 -12 104 -12 51 0 96 -4 99 -10 3 -5 39 -10 80 -10 41 0 77 -4 80 -10 3 -5 35 -10 70 -10 35 0 67 -4 70 -10 3 -5 19 -10 36 -10 16 0 37 -4 47 -9 9 -5 37 -15 62 -21 95 -26 116 -33 132 -41 10 -5 31 -9 47 -9 17 0 33 -4 36 -10 3 -5 16 -10 29 -10 12 0 26 -4 31 -8 6 -5 37 -19 70 -32 33 -13 64 -27 70 -32 5 -4 14 -8 21 -8 15 0 72 -26 109 -50 17 -11 39 -24 50 -29 12 -5 27 -16 34 -25 7 -9 21 -16 30 -16 9 0 27 -7 39 -16 l23 -16 -6 -131 c-4 -73 -11 -145 -15 -162 -5 -16 -14 -97 -20 -180 -6 -82 -15 -166 -21 -185 -6 -19 -14 -60 -18 -90 -6 -48 -9 -55 -26 -51 -11 2 -65 6 -120 10 -55 3 -106 10 -113 15 -7 4 -62 9 -122 11 -59 1 -113 6 -119 9 -9 6 -270 26 -391 30 l-45 1 -5 50 c-7 71 -54 127 -145 171 -122 59 -225 45 -322 -45 -27 -25 -33 -37 -33 -72 0 -36 6 -47 38 -78 22 -20 61 -47 88 -60 27 -14 56 -30 64 -36 8 -7 31 -17 50 -25 83 -30 360 -160 460 -215 14 -7 43 -21 65 -31 22 -9 68 -36 103 -60 35 -24 65 -44 69 -44 23 0 212 -178 265 -250 23 -30 53 -68 68 -85 14 -16 33 -50 40 -75 7 -25 20 -56 29 -70 63 -100 84 -292 62 -560 -11 -129 -29 -208 -62 -272 -10 -20 -19 -46 -19 -57 0 -58 -113 -243 -199 -324 -28 -27 -51 -53 -51 -57 0 -5 -26 -23 -57 -42 -32 -18 -65 -37 -74 -43 -80 -50 -215 -105 -255 -105 -11 0 -24 -3 -28 -7 -13 -14 -82 -33 -118 -33 -20 0 -39 -4 -42 -9 -14 -21 -778 -21 -792 0 -3 5 -37 9 -76 9 -67 0 -119 10 -160 31 -10 5 -40 9 -67 9 -28 0 -53 4 -56 10 -3 6 -19 10 -34 10 -16 0 -41 6 -57 14 -16 9 -39 12 -56 9 -28 -5 -93 8 -130 28 -10 5 -27 9 -38 9 -12 0 -40 9 -62 20 -23 11 -48 20 -57 20 -17 0 -78 18 -103 31 -10 5 -27 9 -37 9 -11 0 -23 5 -26 10 -3 6 -16 10 -28 11 -12 0 -35 9 -52 20 -49 31 -106 55 -151 64 -39 7 -80 48 -68 67 5 7 12 58 16 113 4 55 11 127 17 160 6 33 16 134 21 225 6 91 14 206 18 255 l7 90 79 3 c46 2 84 -2 90 -8 6 -6 59 -10 126 -10 74 0 120 -4 127 -11 8 -8 61 -13 145 -14 73 -1 140 -4 148 -7 16 -7 108 -17 209 -24 63 -4 96 -18 85 -35 -3 -5 -2 -39 2 -76 6 -56 12 -72 42 -105 19 -21 46 -41 61 -45 14 -3 31 -10 38 -15 18 -15 214 -22 243 -9 117 52 151 135 91 217 -45 62 -69 80 -213 158 -26 14 -49 30 -53 36 -3 5 -13 10 -20 10 -16 0 -95 37 -170 80 -27 16 -61 34 -76 40 -14 6 -39 18 -56 28 -18 9 -74 39 -125 65 -51 27 -109 61 -128 76 -19 15 -51 34 -70 43 -19 9 -55 37 -80 62 -24 25 -49 46 -56 46 -16 0 -176 169 -194 206 -8 16 -20 36 -27 44 -20 25 -79 152 -90 195 -29 108 -33 149 -33 323 0 131 5 209 16 262 8 41 19 94 23 117 4 23 13 48 19 55 6 8 18 36 27 63 23 70 42 110 60 125 8 7 15 17 15 22 0 23 145 188 165 188 6 0 24 14 40 30 16 17 34 30 41 30 6 0 17 7 24 15 7 8 30 18 51 21 21 4 46 15 55 25 9 11 25 19 34 19 9 0 35 9 58 20 22 11 52 20 66 20 14 0 27 4 30 8 2 4 30 9 61 10 31 1 64 7 73 12 16 9 461 29 527 23 17 -1 49 -4 72 -7z m-4827 -3586 c608 -10 1023 -24 1245 -40 72 -6 236 -17 365 -25 679 -42 1043 -70 1200 -91 58 -8 175 -21 260 -29 180 -17 512 -50 650 -65 52 -6 149 -19 215 -30 113 -18 418 -56 512 -63 24 -2 45 -6 48 -9 7 -7 -28 -169 -61 -283 -14 -49 -41 -155 -59 -235 -18 -80 -49 -203 -68 -275 -19 -71 -45 -179 -57 -240 -12 -60 -28 -123 -36 -140 -15 -32 -40 -131 -74 -290 -12 -55 -26 -105 -31 -111 -6 -7 -25 -8 -57 -3 -150 26 -331 51 -507 69 -110 12 -265 30 -345 40 -358 46 -482 58 -985 95 -110 8 -234 20 -275 25 -68 10 -243 22 -700 49 -91 6 -246 13 -345 16 -99 3 -290 10 -425 15 -277 11 -772 16 -786 8 -12 -7 -54 -3 -79 6 -11 4 -26 10 -34 12 -10 3 -1 18 29 49 24 25 49 45 55 45 20 0 175 177 175 200 0 7 13 29 29 49 24 31 65 108 95 181 4 8 20 35 36 60 16 25 43 72 59 106 17 33 39 68 51 79 11 10 20 23 20 30 0 6 11 22 25 35 14 13 25 33 25 46 0 12 7 27 15 34 8 6 26 32 40 56 25 42 26 47 11 69 -14 20 -21 23 -48 18 -38 -7 -107 -53 -108 -70 0 -17 -297 -313 -314 -313 -7 0 -38 -20 -68 -45 -30 -25 -58 -45 -62 -45 -4 0 -32 -16 -61 -36 -65 -43 -98 -43 -103 0 -2 16 1 33 7 39 6 6 11 17 11 25 0 14 100 136 223 273 92 103 102 122 80 160 -20 33 -36 36 -84 12 -73 -36 -259 -256 -294 -348 -6 -16 -21 -50 -33 -74 -12 -25 -22 -57 -22 -71 0 -31 21 -80 34 -80 6 0 22 -12 37 -26 l26 -25 37 20 c20 12 45 21 54 21 10 0 23 5 29 11 13 13 47 33 81 48 12 6 25 19 29 28 10 31 35 53 58 53 12 0 34 14 50 30 16 17 33 30 39 30 6 0 27 16 47 36 21 20 42 33 48 30 21 -13 11 -55 -34 -143 -25 -48 -45 -95 -45 -103 0 -9 -16 -40 -36 -70 -20 -30 -40 -65 -45 -77 -5 -13 -13 -23 -19 -23 -6 0 -10 -7 -8 -15 6 -30 -136 -181 -182 -192 -14 -3 -31 -10 -37 -15 -7 -6 -20 -8 -29 -4 -8 3 -24 1 -36 -5 -15 -8 -24 -7 -37 5 -10 9 -22 16 -27 16 -6 0 -23 14 -39 30 -41 42 -59 40 -52 -7 5 -26 20 -51 50 -81 l44 -43 35 16 c32 16 37 16 67 1 17 -9 29 -21 26 -26 -3 -6 -45 -9 -93 -9 -417 5 -1820 -34 -2167 -61 -66 -5 -174 -12 -240 -15 -66 -3 -203 -15 -305 -25 -102 -11 -252 -24 -335 -30 -272 -18 -518 -40 -645 -55 -69 -9 -195 -24 -280 -35 -85 -11 -243 -29 -350 -40 -107 -12 -251 -30 -320 -41 -265 -41 -250 -41 -250 -7 0 25 -47 219 -70 293 -11 33 -31 116 -46 185 -14 69 -43 186 -64 260 -21 74 -49 187 -63 250 -14 63 -41 174 -60 245 -56 210 -77 313 -63 323 6 5 40 10 75 11 35 1 67 3 70 6 4 2 88 13 186 25 99 11 187 23 195 25 36 11 245 37 485 61 389 37 523 51 710 73 214 24 444 42 1155 86 129 9 294 20 365 25 215 16 663 31 1150 39 691 12 800 12 1435 1z m-5896 -949 c3 -4 7 -23 8 -42 1 -19 6 -37 12 -41 16 -11 36 -92 26 -102 -6 -6 -10 -19 -10 -29 0 -16 3 -17 14 -8 9 8 16 8 20 2 4 -5 2 -12 -4 -16 -5 -3 -10 -17 -10 -31 0 -15 4 -23 10 -19 14 9 40 -56 40 -98 0 -35 12 -79 36 -134 8 -17 14 -39 14 -50 0 -10 7 -29 16 -41 11 -16 14 -36 10 -71 -4 -36 -2 -52 9 -61 8 -7 12 -17 9 -22 -3 -5 6 -47 21 -94 15 -47 25 -96 23 -109 -3 -13 -1 -26 5 -28 14 -4 46 -106 36 -113 -11 -6 -12 -44 -1 -45 39 -3 126 -7 277 -14 99 -4 185 -12 191 -16 6 -5 101 -11 210 -14 110 -2 219 -9 244 -15 25 -7 83 -13 130 -15 47 -2 126 -9 175 -15 50 -6 113 -12 140 -14 28 -2 55 -5 60 -6 6 -2 18 0 28 5 12 5 24 2 36 -9 14 -13 52 -19 172 -26 187 -11 368 -27 385 -34 8 -3 16 -1 19 4 7 12 67 -20 62 -33 -2 -7 -14 -13 -28 -15 -13 -2 -34 -8 -46 -14 -16 -8 -30 -8 -53 2 -24 10 -40 10 -68 2 -20 -6 -95 -16 -167 -23 -71 -7 -135 -16 -141 -21 -7 -5 -17 -2 -25 8 -10 12 -23 14 -58 9 -25 -4 -52 -11 -58 -17 -7 -6 -66 -12 -130 -14 -65 -1 -164 -12 -220 -23 -56 -11 -135 -23 -175 -27 -40 -3 -77 -10 -83 -14 -13 -11 -213 -30 -298 -28 -39 0 -73 -4 -80 -11 -6 -6 -29 -11 -51 -11 -42 0 -157 -17 -301 -44 -44 -9 -94 -15 -111 -16 -18 0 -45 -7 -60 -15 -16 -8 -45 -15 -64 -16 -19 0 -53 -4 -75 -8 -23 -4 -47 -3 -57 3 -12 7 -37 5 -85 -7 -37 -9 -95 -21 -128 -27 -33 -6 -73 -15 -90 -20 -16 -5 -68 -14 -115 -21 -47 -7 -90 -16 -96 -21 -7 -5 -65 -13 -130 -18 -66 -5 -148 -16 -184 -25 -36 -9 -76 -18 -90 -21 -14 -3 -34 -9 -45 -14 -11 -5 -51 -14 -90 -21 -38 -6 -75 -16 -82 -21 -6 -5 -51 -11 -100 -13 -95 -5 -188 -24 -190 -40 -2 -16 -19 -17 -32 -1 -10 12 -7 24 14 63 15 26 32 54 37 60 6 7 8 20 4 28 -3 9 1 18 10 22 8 3 13 12 10 20 -3 7 1 16 9 19 8 4 15 18 15 33 0 15 7 37 17 50 27 39 63 115 63 133 0 10 14 44 31 75 18 32 42 77 54 100 12 22 26 58 30 80 3 21 15 47 24 58 21 23 56 87 71 128 5 15 16 27 25 27 8 0 15 9 15 19 0 19 -18 31 -48 31 -9 0 -35 18 -57 40 -21 23 -45 38 -51 36 -17 -7 -38 20 -28 36 6 11 5 11 -8 0 -13 -10 -24 -6 -68 30 -57 46 -61 49 -102 68 -14 7 -53 34 -85 61 -32 27 -67 49 -79 49 -12 0 -41 16 -65 35 -24 19 -49 35 -56 35 -7 0 -16 6 -20 14 -4 7 -24 21 -43 31 -19 10 -49 29 -66 41 -17 13 -36 24 -43 24 -6 0 -36 16 -67 37 -38 25 -52 39 -44 47 7 7 16 7 30 -2 11 -7 20 -8 20 -3 0 12 -28 23 -75 28 -43 5 -68 19 -44 27 35 11 99 19 155 20 33 1 67 6 75 13 8 6 43 15 79 19 36 4 76 11 90 17 38 15 160 37 204 37 24 0 43 6 51 16 9 13 33 18 101 20 82 4 273 35 319 54 31 12 137 30 177 30 21 0 41 7 51 18 13 14 32 17 104 16 78 -1 262 25 401 56 23 6 55 10 72 10 16 0 32 5 35 10 8 12 42 13 49 1z m10631 -36 c55 -8 141 -20 190 -26 50 -6 115 -17 145 -24 45 -11 257 -48 465 -80 125 -19 216 -36 240 -45 14 -5 106 -23 205 -39 225 -38 410 -77 458 -97 l37 -15 -20 -15 c-11 -9 -63 -42 -115 -75 -200 -126 -345 -220 -635 -411 -140 -92 -194 -144 -171 -162 8 -6 26 -40 41 -76 15 -36 44 -99 66 -140 54 -105 146 -303 174 -375 12 -33 39 -91 58 -130 47 -94 66 -142 60 -148 -7 -8 -59 1 -253 44 -96 21 -220 45 -275 54 -152 24 -200 32 -330 59 -66 14 -169 33 -230 41 -151 22 -351 54 -404 66 -49 11 -345 54 -436 64 -101 11 -347 46 -393 56 -38 8 -161 23 -547 64 -315 33 -424 46 -485 56 -36 5 -128 15 -205 22 -145 12 -186 30 -80 35 33 1 70 7 82 13 12 7 28 9 36 6 14 -5 48 -2 237 24 41 6 111 12 155 14 44 3 123 9 175 15 53 6 181 17 285 25 105 8 255 22 335 30 135 14 186 18 380 30 297 17 291 17 300 39 29 75 144 546 135 554 -3 3 1 12 8 21 16 19 56 160 92 321 26 117 50 194 69 218 5 8 18 11 30 7 12 -3 66 -13 121 -20z m-8140 -1314 c7 -12 -12 -24 -25 -16 -11 7 -4 25 10 25 5 0 11 -4 15 -9z"/>
<path d="M7265 6940 c-3 -5 -21 -10 -39 -10 -45 0 -148 -68 -171 -111 -58 -116 -56 -102 -55 -523 0 -214 5 -396 10 -405 4 -9 10 -180 12 -381 l3 -365 21 -30 c12 -16 24 -40 28 -52 9 -29 69 -81 104 -89 15 -4 35 -12 44 -18 10 -7 50 -11 100 -10 69 2 91 7 130 29 69 38 121 111 144 200 12 49 16 625 5 665 -7 21 -13 200 -15 440 -3 223 -8 423 -12 445 -12 70 -139 205 -193 205 -11 0 -23 5 -26 10 -3 6 -24 10 -45 10 -21 0 -42 -4 -45 -10z"/>
<path d="M3660 6793 c-14 -3 -29 -9 -34 -14 -6 -5 -39 -9 -75 -9 -37 0 -72 -4 -80 -9 -12 -8 -13 -37 -3 -195 6 -102 16 -194 21 -205 6 -11 11 -42 11 -70 0 -28 5 -96 12 -152 l11 -101 46 6 c25 3 83 9 128 13 51 3 87 11 94 19 6 8 21 14 33 14 29 0 88 63 121 128 27 55 29 98 11 227 -4 22 -11 77 -17 122 l-11 82 -61 60 c-33 34 -68 61 -77 61 -9 0 -25 7 -36 15 -19 14 -45 16 -94 8z"/>
<path d="M3771 5558 c-51 -4 -98 -11 -105 -16 -6 -5 -33 -13 -60 -17 l-48 -7 5 -36 c3 -20 11 -91 17 -157 6 -66 16 -151 22 -190 5 -38 14 -113 18 -165 14 -180 26 -216 62 -194 7 4 58 10 113 12 89 4 108 8 172 38 l72 35 34 67 c37 75 39 106 18 317 -17 163 -31 216 -66 245 -25 21 -107 60 -125 60 -9 0 -20 4 -25 8 -6 4 -52 5 -104 0z"/>
<path d="M6476 3599 c-22 -16 -50 -49 -64 -72 -13 -23 -32 -51 -41 -62 -21 -23 -61 -94 -81 -145 -19 -46 -56 -100 -81 -118 -15 -11 -23 -11 -34 -2 -8 7 -29 12 -47 13 -46 1 -211 -24 -223 -33 -13 -11 -82 -16 -91 -8 -4 4 1 24 11 45 10 21 19 49 20 64 3 33 -29 72 -52 65 -33 -11 -112 -97 -129 -142 -19 -50 -56 -74 -112 -74 -45 0 -112 -51 -112 -86 0 -13 6 -24 13 -24 7 0 19 -6 26 -12 6 -7 24 -13 39 -13 19 0 26 -4 23 -15 -2 -8 -6 -32 -9 -52 -2 -21 -10 -42 -18 -49 -8 -6 -14 -20 -14 -30 0 -10 -4 -21 -10 -24 -5 -3 -10 -13 -10 -21 0 -8 -10 -34 -21 -57 -22 -43 -33 -159 -22 -220 6 -33 50 -79 95 -102 27 -13 41 -14 88 -5 64 13 112 33 130 55 7 8 18 15 25 15 7 0 18 7 25 15 7 8 31 24 54 34 22 10 49 28 60 39 20 24 36 21 36 -7 0 -28 24 -71 40 -71 19 0 76 69 95 114 8 19 19 38 25 41 6 4 21 27 34 53 13 26 39 61 56 77 18 17 36 39 41 50 17 36 35 64 54 85 14 16 16 23 7 32 -9 9 -18 6 -36 -11 -26 -24 -56 -23 -56 2 0 8 7 20 15 27 8 7 15 18 15 25 0 7 7 18 15 25 8 7 15 24 15 38 0 15 16 44 38 71 21 25 51 71 66 101 15 30 38 66 50 80 49 54 86 124 86 160 0 15 9 35 20 45 23 20 28 83 8 103 -16 16 -17 16 -62 -19z m-280 -460 c3 -5 -9 -35 -27 -66 -59 -105 -78 -148 -79 -174 0 -15 -6 -32 -13 -38 -8 -6 -25 -32 -38 -58 -14 -27 -72 -97 -135 -160 l-111 -113 -44 0 c-46 -1 -133 -20 -145 -33 -15 -14 -41 -6 -66 21 -33 35 -36 98 -8 144 11 18 20 39 20 45 0 7 14 41 30 75 17 34 30 67 30 74 0 13 65 140 82 162 6 6 23 12 38 12 16 0 45 8 67 19 56 27 105 41 146 41 20 0 39 5 42 10 3 6 19 10 34 10 16 0 34 6 41 14 17 22 124 33 136 15z"/>
<path d="M7831 3513 c-23 -9 -181 -173 -181 -187 0 -15 -95 -116 -109 -116 -5 0 -30 -26 -57 -57 -27 -32 -92 -101 -145 -154 -85 -86 -148 -160 -141 -166 12 -13 -86 -93 -174 -141 -30 -17 -31 -42 -1 -44 50 -3 66 6 153 93 63 62 95 88 106 84 18 -7 98 -117 98 -134 0 -6 5 -11 12 -11 6 0 27 -12 46 -27 30 -22 44 -26 93 -24 61 2 147 40 183 80 10 11 38 23 62 27 24 3 44 10 44 15 0 5 -3 9 -8 9 -4 0 -22 13 -40 29 -34 32 -35 47 -10 133 9 32 8 41 -6 57 -14 16 -15 20 -2 30 25 21 56 118 56 176 0 30 5 57 10 60 6 3 10 19 10 35 0 17 15 54 35 84 40 63 43 93 14 130 -21 27 -24 28 -48 19z m-109 -333 c-3 -109 -12 -169 -31 -215 -5 -11 -14 -45 -20 -75 -6 -30 -22 -69 -35 -85 -22 -28 -29 -30 -97 -32 l-73 -2 -38 38 c-35 35 -38 43 -38 93 0 42 5 59 20 73 11 10 20 23 20 30 0 7 9 20 20 30 11 10 20 23 20 30 0 7 9 20 20 30 11 10 20 23 20 30 0 14 69 80 93 88 9 4 22 18 27 32 5 14 16 25 24 25 7 0 19 7 26 15 7 9 20 14 29 13 14 -3 16 -20 13 -118z"/>
<path d="M7170 3487 c-25 -9 -36 -19 -38 -36 -6 -37 8 -91 22 -91 7 0 21 -9 31 -20 10 -11 21 -20 24 -20 3 0 23 16 44 35 43 40 48 72 15 109 -30 32 -55 38 -98 23z"/>
<path d="M10927 3446 c-30 -27 -67 -97 -67 -124 0 -11 -7 -25 -15 -32 -8 -7 -15 -16 -15 -21 0 -5 -22 -38 -50 -73 -27 -35 -50 -70 -50 -78 0 -19 -32 -48 -53 -48 -10 0 -84 -67 -166 -150 -114 -115 -155 -150 -174 -150 -14 0 -29 -4 -32 -10 -11 -18 -71 -11 -90 10 -15 17 -16 23 -5 51 7 17 23 45 35 63 12 18 25 43 28 57 3 13 19 38 36 56 28 31 66 81 86 114 22 36 50 75 67 95 15 17 17 26 9 48 -10 25 -57 53 -69 41 -9 -9 -41 26 -36 39 9 23 -41 57 -92 62 -43 4 -60 -2 -168 -56 -111 -54 -130 -68 -232 -167 -61 -59 -126 -130 -145 -158 -18 -27 -54 -71 -79 -97 -25 -25 -58 -60 -73 -77 -16 -17 -36 -31 -46 -31 -10 0 -24 -7 -31 -15 -16 -19 -68 -45 -91 -45 -10 0 -21 -4 -24 -10 -3 -5 -27 -10 -53 -9 -26 0 -56 -1 -66 -3 -13 -2 -24 5 -31 19 -7 13 -20 32 -30 43 l-18 20 18 40 c25 55 48 74 83 67 42 -9 101 8 131 37 15 14 33 26 40 26 27 0 98 40 130 74 19 20 40 36 46 36 17 0 49 39 69 83 16 36 16 40 2 56 -15 16 -15 19 -1 31 22 19 19 33 -18 68 -44 43 -79 42 -181 -7 -80 -39 -205 -136 -218 -170 -3 -10 -17 -25 -31 -33 -13 -9 -32 -33 -41 -52 -9 -20 -21 -36 -25 -36 -4 0 -13 -12 -20 -27 -7 -16 -23 -44 -36 -63 -17 -25 -24 -52 -26 -92 -2 -32 0 -61 4 -65 4 -3 7 -14 7 -23 0 -25 70 -85 120 -103 25 -9 58 -13 75 -10 39 7 135 53 157 75 9 9 37 26 61 37 49 22 69 42 65 62 -4 19 51 25 56 7 2 -7 7 -25 10 -41 9 -39 72 -105 110 -115 39 -11 92 -4 107 14 6 8 17 14 23 14 7 0 27 16 46 35 19 19 39 35 45 35 17 0 55 44 55 63 0 22 11 26 38 16 12 -5 22 -17 22 -28 0 -31 35 -104 61 -127 36 -32 77 -36 129 -12 25 12 49 28 53 35 4 7 14 13 20 13 7 0 46 34 87 76 41 42 85 80 98 85 12 5 26 19 31 31 10 25 50 65 94 91 15 10 27 23 27 30 0 16 61 77 77 77 6 0 14 8 17 18 13 35 37 72 48 72 5 0 20 -9 32 -20 11 -10 32 -28 46 -39 l25 -19 -26 -29 c-39 -43 -65 -85 -73 -118 -4 -16 -13 -43 -20 -60 -34 -78 -39 -112 -27 -177 13 -64 49 -118 79 -118 8 0 26 -7 42 -16 34 -20 89 -13 115 16 13 14 31 20 59 20 38 0 47 6 111 70 46 46 75 68 86 65 16 -5 41 17 52 48 4 9 12 17 20 17 15 0 44 31 65 69 21 37 -1 51 -33 21 -14 -13 -25 -28 -25 -34 0 -14 -45 -56 -59 -56 -6 0 -31 -18 -55 -40 -24 -22 -47 -40 -52 -40 -5 0 -20 -9 -34 -20 -14 -11 -34 -20 -46 -20 -11 0 -29 -7 -40 -15 -10 -8 -26 -15 -34 -15 -8 0 -28 -7 -44 -15 -20 -11 -33 -12 -40 -5 -5 5 -20 10 -31 10 -38 0 -55 31 -55 99 0 54 4 68 36 114 19 28 77 97 128 152 86 92 126 148 126 174 0 6 -11 18 -25 27 -26 17 -32 16 -110 -16 -11 -5 -40 -8 -65 -7 -59 3 -63 23 -13 79 65 74 78 112 47 142 -22 23 -57 20 -87 -8z m-663 -165 c3 -5 22 -8 41 -6 19 2 37 0 39 -4 5 -7 -55 -98 -72 -111 -4 -3 -27 -31 -51 -63 -25 -32 -67 -85 -95 -116 -28 -32 -73 -84 -100 -115 -27 -31 -55 -56 -61 -56 -7 0 -20 -9 -30 -20 -10 -11 -29 -20 -43 -20 -14 0 -45 -10 -70 -21 -50 -25 -63 -18 -69 34 -3 34 18 100 37 112 5 3 19 25 29 48 26 56 230 247 292 274 58 25 73 33 104 52 35 23 42 24 49 12z m-588 -23 c10 -10 -28 -81 -58 -110 -64 -61 -192 -138 -228 -138 -10 0 -21 -4 -25 -9 -5 -10 -51 -9 -60 1 -3 3 1 11 10 18 8 7 15 23 15 36 0 16 8 28 23 33 12 5 51 38 85 74 43 44 77 69 105 77 23 8 46 17 52 22 10 9 71 5 81 -4z"/>
<path d="M7049 3262 c-9 -9 -29 -29 -45 -44 -42 -39 -63 -65 -87 -106 -11 -20 -26 -44 -33 -52 -7 -8 -20 -40 -30 -70 -9 -30 -25 -64 -34 -75 -28 -32 -70 -103 -70 -119 0 -8 7 -16 15 -20 9 -3 15 -18 15 -35 0 -16 5 -33 11 -36 6 -4 8 -14 5 -22 -7 -18 22 -83 37 -83 6 0 19 -8 30 -17 22 -21 77 -26 77 -8 0 6 9 20 20 30 11 10 20 24 20 32 0 16 -22 17 -38 1 -9 -9 -20 -4 -47 22 -41 40 -42 50 -10 110 13 25 29 56 36 70 6 14 15 33 20 42 5 10 9 24 9 31 0 8 21 41 48 75 67 86 103 147 115 195 9 37 8 42 -11 55 -12 8 -22 21 -22 28 0 18 -11 16 -31 -4z"/>
<path d="M6648 3252 c-14 -9 -48 -30 -75 -46 -76 -45 -121 -93 -115 -122 5 -27 12 -30 30 -12 9 9 15 9 24 0 12 -12 -9 -63 -58 -142 -29 -46 -48 -165 -38 -233 4 -28 7 -55 6 -59 -4 -15 47 -58 96 -84 23 -12 60 5 64 29 2 14 11 23 26 25 12 2 33 19 45 37 13 19 35 44 50 55 29 23 36 50 12 50 -8 0 -32 -15 -52 -34 -42 -37 -93 -66 -117 -66 -9 0 -23 11 -31 24 -22 33 -10 101 26 147 16 20 29 43 29 51 0 7 8 25 17 38 10 14 31 50 47 80 39 74 48 90 69 122 26 38 29 77 10 121 -18 41 -26 43 -65 19z"/>
<path d="M8090 3046 c-6 -19 -22 -42 -36 -50 -13 -9 -24 -21 -24 -26 0 -21 28 -8 64 29 29 30 36 44 31 60 -9 31 -22 26 -35 -13z"/>
<path d="M6373 3043 c-3 -10 -13 -26 -21 -36 -17 -19 -3 -45 16 -33 16 10 42 67 36 77 -9 15 -24 10 -31 -8z"/>
<path d="M7976 2917 c-38 -40 -95 -79 -106 -72 -12 8 -61 -25 -55 -35 3 -5 20 -16 37 -25 l32 -15 73 72 c67 67 84 97 58 104 -5 1 -23 -12 -39 -29z"/>
<path d="M11920 2890 c0 -5 5 -10 10 -10 6 0 10 5 10 10 0 6 -4 10 -10 10 -5 0 -10 -4 -10 -10z"/>
<path d="M11920 2810 c0 -5 5 -10 10 -10 6 0 10 5 10 10 0 6 -4 10 -10 10 -5 0 -10 -4 -10 -10z"/>
<path d="M3222 2350 c0 -14 2 -19 5 -12 2 6 2 18 0 25 -3 6 -5 1 -5 -13z"/>
</g>
</g>
  <g id="id1:id1" transform="matrix(1.25,0,0,1.25,0.0,0.0)"><g transform="translate(0.000000,385.600000) scale(0.040000,-0.040000)" fill="#f4f2ec" stroke="none">
<path d="M8737 9173 c-9 -9 12 -33 29 -33 17 0 18 12 2 28 -14 14 -22 15 -31 5z"/>
<path d="M8716 9122 c-3 -6 -1 -14 5 -17 15 -10 25 3 12 16 -7 7 -13 7 -17 1z"/>
<path d="M9255 9050 c-25 -27 -10 -39 16 -13 12 11 17 23 11 27 -5 3 -17 -3 -27 -14z"/>
<path d="M8276 9032 c-2 -4 0 -14 5 -22 8 -13 10 -13 18 0 10 15 6 30 -9 30 -5 0 -11 -4 -14 -8z"/>
<path d="M8810 9020 c-13 -9 -13 -11 0 -20 20 -14 45 -8 45 10 0 18 -25 24 -45 10z"/>
<path d="M8634 9009 c-10 -17 13 -36 27 -22 12 12 4 33 -11 33 -5 0 -12 -5 -16 -11z"/>
<path d="M8234 8989 c-10 -17 13 -36 27 -22 12 12 4 33 -11 33 -5 0 -12 -5 -16 -11z"/>
<path d="M8295 8951 c-7 -12 12 -24 25 -16 11 7 4 25 -10 25 -5 0 -11 -4 -15 -9z"/>
<path d="M8840 8950 c0 -5 5 -10 10 -10 6 0 10 5 10 10 0 6 -4 10 -10 10 -5 0 -10 -4 -10 -10z"/>
<path d="M9260 8950 c0 -5 5 -10 10 -10 6 0 10 5 10 10 0 6 -4 10 -10 10 -5 0 -10 -4 -10 -10z"/>
<path d="M8194 8919 c-7 -12 15 -31 28 -23 9 6 -1 34 -12 34 -5 0 -12 -5 -16 -11z"/>
<path d="M8354 8899 c-10 -17 13 -36 27 -22 12 12 4 33 -11 33 -5 0 -12 -5 -16 -11z"/>
<path d="M9295 8890 c-25 -27 -10 -39 16 -13 12 11 17 23 11 27 -5 3 -17 -3 -27 -14z"/>
<path d="M8820 8875 c0 -8 5 -15 10 -15 6 0 10 7 10 15 0 8 -4 15 -10 15 -5 0 -10 -7 -10 -15z"/>
<path d="M8210 8851 c0 -18 18 -21 30 -6 10 13 9 15 -9 15 -11 0 -21 -4 -21 -9z"/>
<path d="M9579 8856 c-3 -13 -6 -22 -14 -39 -10 -23 2 -34 23 -21 19 12 22 56 4 62 -6 2 -13 1 -13 -2z"/>
<path d="M7936 8832 c-2 -4 0 -14 5 -22 8 -13 10 -13 18 0 10 15 6 30 -9 30 -5 0 -11 -4 -14 -8z"/>
<path d="M8815 8830 c-9 -15 5 -52 18 -47 15 5 15 49 0 54 -6 2 -14 -1 -18 -7z"/>
<path d="M8241 8816 c-9 -10 -9 -16 -1 -21 17 -10 37 12 24 25 -8 8 -15 6 -23 -4z"/>
<path d="M8700 8810 c0 -5 5 -10 10 -10 6 0 10 5 10 10 0 6 -4 10 -10 10 -5 0 -10 -4 -10 -10z"/>
<path d="M9150 8805 c-10 -12 -10 -19 -1 -28 9 -9 14 -9 21 3 22 34 4 54 -20 25z"/>
<path d="M9260 8810 c0 -5 5 -10 10 -10 6 0 10 5 10 10 0 6 -4 10 -10 10 -5 0 -10 -4 -10 -10z"/>
<path d="M8860 8790 c0 -5 5 -10 10 -10 6 0 10 5 10 10 0 6 -4 10 -10 10 -5 0 -10 -4 -10 -10z"/>
<path d="M9494 8789 c-10 -17 13 -36 27 -22 12 12 4 33 -11 33 -5 0 -12 -5 -16 -11z"/>
<path d="M8901 8776 c-9 -10 -9 -16 -1 -21 17 -10 37 12 24 25 -8 8 -15 6 -23 -4z"/>
<path d="M7935 8771 c-7 -12 12 -24 25 -16 11 7 4 25 -10 25 -5 0 -11 -4 -15 -9z"/>
<path d="M8354 8769 c-10 -17 23 -43 56 -45 17 -1 30 2 30 7 0 5 -6 9 -13 9 -8 0 -22 9 -32 20 -20 23 -31 25 -41 9z"/>
<path d="M8000 8750 c0 -5 5 -10 10 -10 6 0 10 5 10 10 0 6 -4 10 -10 10 -5 0 -10 -4 -10 -10z"/>
<path d="M8260 8750 c0 -5 5 -10 10 -10 6 0 10 5 10 10 0 6 -4 10 -10 10 -5 0 -10 -4 -10 -10z"/>
<path d="M9100 8750 c0 -5 5 -10 10 -10 6 0 10 5 10 10 0 6 -4 10 -10 10 -5 0 -10 -4 -10 -10z"/>
<path d="M9540 8750 c0 -5 5 -10 10 -10 6 0 10 5 10 10 0 6 -4 10 -10 10 -5 0 -10 -4 -10 -10z"/>
<path d="M9503 8701 c-2 -43 17 -60 38 -35 9 11 8 18 -5 32 -9 10 -16 24 -16 30 0 7 -4 12 -8 12 -4 0 -8 -18 -9 -39z"/>
<path d="M8214 8709 c-10 -17 13 -36 27 -22 12 12 4 33 -11 33 -5 0 -12 -5 -16 -11z"/>
<path d="M9054 8709 c-10 -17 13 -36 27 -22 12 12 4 33 -11 33 -5 0 -12 -5 -16 -11z"/>
<path d="M8460 8690 c0 -5 5 -10 10 -10 6 0 10 5 10 10 0 6 -4 10 -10 10 -5 0 -10 -4 -10 -10z"/>
<path d="M8019 8683 c-1 -5 -1 -12 0 -17 1 -4 -4 -14 -10 -22 -18 -22 -5 -26 30 -8 l32 16 -17 19 c-18 20 -33 25 -35 12z"/>
<path d="M8555 8671 c-7 -12 12 -24 25 -16 11 7 4 25 -10 25 -5 0 -11 -4 -15 -9z"/>
<path d="M8220 8626 c0 -7 -6 -19 -14 -26 -8 -6 -12 -18 -9 -26 3 -8 -5 -26 -17 -39 -23 -24 -21 -50 1 -28 6 6 18 9 26 6 8 -3 24 4 37 16 15 14 29 19 41 15 12 -5 16 -3 13 7 -2 7 -19 14 -38 14 -27 1 -34 5 -35 23 -1 13 2 25 7 28 11 7 10 24 -2 24 -5 0 -10 -6 -10 -14z"/>
<path d="M8496 8631 c-4 -5 -19 -12 -35 -16 -16 -3 -37 -15 -47 -26 -16 -18 -16 -21 -2 -35 16 -16 43 -11 33 5 -7 13 35 46 59 46 11 0 21 6 21 14 0 17 -21 26 -29 12z"/>
<path d="M8581 8616 c-9 -10 -9 -16 -1 -21 17 -10 37 12 24 25 -8 8 -15 6 -23 -4z"/>
<path d="M8921 8616 c-7 -8 -8 -17 -3 -20 6 -3 15 1 21 8 7 8 8 17 3 20 -6 3 -15 -1 -21 -8z"/>
<path d="M9004 8619 c-3 -6 -2 -15 4 -21 13 -13 32 -2 32 18 0 16 -26 19 -36 3z"/>
<path d="M9400 8614 c-9 -10 -10 -18 -2 -26 12 -12 32 -2 32 17 0 21 -16 26 -30 9z"/>
<path d="M8094 8609 c-8 -13 52 -76 62 -66 4 4 0 15 -8 24 -8 10 -18 26 -21 36 -7 19 -22 22 -33 6z"/>
<path d="M8664 8608 c3 -7 9 -21 12 -30 4 -10 10 -18 15 -18 13 0 11 34 -3 48 -16 16 -31 15 -24 0z"/>
<path d="M8832 8608 c-23 -23 -14 -45 18 -45 35 0 33 -2 18 32 -13 28 -19 30 -36 13z"/>
<path d="M9490 8605 c-7 -9 -10 -18 -7 -22 8 -7 37 15 37 28 0 14 -16 11 -30 -6z"/>
<path d="M9075 8581 c-7 -12 12 -24 25 -16 11 7 4 25 -10 25 -5 0 -11 -4 -15 -9z"/>
<path d="M8035 8570 c-10 -16 16 -43 28 -31 11 11 2 41 -12 41 -5 0 -13 -5 -16 -10z"/>
<path d="M9300 8570 c0 -5 5 -10 10 -10 6 0 10 5 10 10 0 6 -4 10 -10 10 -5 0 -10 -4 -10 -10z"/>
<path d="M9210 8545 c-7 -9 -10 -18 -7 -22 8 -7 37 15 37 28 0 14 -16 11 -30 -6z"/>
<path d="M9260 8550 c0 -5 5 -10 10 -10 6 0 10 5 10 10 0 6 -4 10 -10 10 -5 0 -10 -4 -10 -10z"/>
<path d="M8640 8530 c0 -5 5 -10 10 -10 6 0 10 5 10 10 0 6 -4 10 -10 10 -5 0 -10 -4 -10 -10z"/>
<path d="M9300 8530 c0 -5 5 -10 10 -10 6 0 10 5 10 10 0 6 -4 10 -10 10 -5 0 -10 -4 -10 -10z"/>
<path d="M9360 8531 c0 -6 5 -13 11 -17 6 -3 9 -15 6 -25 -7 -26 11 -35 31 -15 15 14 14 18 -8 41 -24 26 -40 32 -40 16z"/>
<path d="M9460 8530 c0 -5 5 -10 10 -10 6 0 10 5 10 10 0 6 -4 10 -10 10 -5 0 -10 -4 -10 -10z"/>
<path d="M8280 8510 c0 -5 5 -10 10 -10 6 0 10 5 10 10 0 6 -4 10 -10 10 -5 0 -10 -4 -10 -10z"/>
<path d="M8460 8511 c0 -13 29 -35 37 -28 7 8 -15 37 -28 37 -5 0 -9 -4 -9 -9z"/>
<path d="M8086 8481 c-14 -25 -14 -30 -1 -41 8 -7 13 -16 10 -20 -3 -4 2 -13 10 -20 8 -7 13 -16 10 -20 -3 -4 2 -13 10 -20 8 -7 13 -16 10 -20 -3 -5 -1 -12 5 -15 6 -4 8 -16 4 -27 -4 -15 -2 -19 7 -15 8 2 24 -5 37 -16 15 -14 26 -17 32 -11 7 7 4 16 -10 29 -11 10 -20 27 -20 38 0 11 -7 29 -17 39 -15 17 -15 19 0 36 22 24 9 37 -14 16 -16 -14 -18 -13 -33 7 -18 26 -11 46 10 28 21 -17 28 -5 13 23 -24 46 -43 48 -63 9z"/>
<path d="M8634 8489 c-9 -10 -15 -21 -12 -24 6 -6 58 18 58 26 0 17 -30 16 -46 -2z"/>
<path d="M8857 8486 c-9 -23 19 -41 38 -26 12 10 13 16 4 26 -15 18 -35 18 -42 0z"/>
<path d="M9442 8491 c2 -7 7 -12 11 -12 12 1 9 15 -3 20 -7 2 -11 -2 -8 -8z"/>
<path d="M8415 8480 c-8 -13 4 -32 16 -25 12 8 12 35 0 35 -6 0 -13 -4 -16 -10z"/>
<path d="M9074 8479 c-7 -12 15 -31 28 -23 9 6 -1 34 -12 34 -5 0 -12 -5 -16 -11z"/>
<path d="M8272 8453 c-17 -38 1 -54 30 -26 18 18 19 24 8 37 -17 22 -23 20 -38 -11z"/>
<path d="M8696 8471 c-3 -5 1 -11 9 -15 15 -6 29 7 18 18 -9 9 -21 8 -27 -3z"/>
<path d="M8800 8470 c0 -5 9 -10 20 -10 11 0 20 5 20 10 0 6 -9 10 -20 10 -11 0 -20 -4 -20 -10z"/>
<path d="M9220 8470 c0 -5 5 -10 10 -10 6 0 10 5 10 10 0 6 -4 10 -10 10 -5 0 -10 -4 -10 -10z"/>
<path d="M9165 8447 c-10 -8 -15 -19 -11 -26 6 -9 13 -8 27 5 33 30 20 47 -16 21z"/>
<path d="M9355 8440 c-4 -6 -3 -16 3 -22 6 -6 12 -6 17 2 4 6 3 16 -3 22 -6 6 -12 6 -17 -2z"/>
<path d="M8360 8430 c0 -5 5 -10 10 -10 6 0 10 5 10 10 0 6 -4 10 -10 10 -5 0 -10 -4 -10 -10z"/>
<path d="M9400 8430 c0 -5 5 -10 10 -10 6 0 10 5 10 10 0 6 -4 10 -10 10 -5 0 -10 -4 -10 -10z"/>
<path d="M9387 8382 c-10 -10 -14 -22 -10 -25 7 -8 43 21 43 35 0 14 -16 9 -33 -10z"/>
<path d="M8356 8352 c-2 -4 0 -14 5 -22 8 -13 10 -13 18 0 10 15 6 30 -9 30 -5 0 -11 -4 -14 -8z"/>
<path d="M9355 8310 c-4 -6 -10 -8 -14 -6 -14 9 -66 -53 -55 -64 7 -7 16 -4 28 9 10 11 24 17 31 15 14 -6 47 34 39 48 -7 11 -21 10 -29 -2z"/>
<path d="M9154 8299 c-10 -17 13 -36 27 -22 12 12 4 33 -11 33 -5 0 -12 -5 -16 -11z"/>
<path d="M9000 8270 c0 -5 5 -10 10 -10 6 0 10 5 10 10 0 6 -4 10 -10 10 -5 0 -10 -4 -10 -10z"/>
<path d="M8280 8230 c0 -5 7 -10 15 -10 8 0 15 5 15 10 0 6 -7 10 -15 10 -8 0 -15 -4 -15 -10z"/>
<path d="M9240 8230 c0 -5 5 -10 10 -10 6 0 10 5 10 10 0 6 -4 10 -10 10 -5 0 -10 -4 -10 -10z"/>
<path d="M9320 8210 c0 -5 5 -10 10 -10 6 0 10 5 10 10 0 6 -4 10 -10 10 -5 0 -10 -4 -10 -10z"/>
<path d="M9234 8169 c-10 -17 13 -36 27 -22 12 12 4 33 -11 33 -5 0 -12 -5 -16 -11z"/>
<path d="M8460 8150 c0 -5 5 -10 10 -10 6 0 10 5 10 10 0 6 -4 10 -10 10 -5 0 -10 -4 -10 -10z"/>
<path d="M8820 8150 c0 -5 5 -10 10 -10 6 0 10 5 10 10 0 6 -4 10 -10 10 -5 0 -10 -4 -10 -10z"/>
<path d="M7105 7740 c-9 -15 4 -30 20 -23 8 3 15 9 15 13 0 12 -29 20 -35 10z"/>
<path d="M7545 7740 c-4 -7 -3 -16 3 -22 14 -14 47 -6 47 12 0 18 -40 26 -50 10z"/>
<path d="M7020 7730 c0 -5 9 -10 20 -10 11 0 20 5 20 10 0 6 -9 10 -20 10 -11 0 -20 -4 -20 -10z"/>
<path d="M6842 7718 c-7 -7 -22 -13 -34 -13 -25 0 -36 -22 -16 -30 20 -8 90 23 86 37 -6 17 -22 20 -36 6z"/>
<path d="M7718 7723 c-10 -2 -18 -8 -18 -13 0 -11 83 -32 135 -35 22 -1 62 -12 90 -24 27 -12 57 -20 65 -18 9 2 25 -2 35 -9 10 -8 30 -14 43 -14 40 0 275 -123 332 -174 14 -12 50 -41 80 -64 94 -70 232 -246 302 -384 25 -48 99 -227 119 -288 17 -54 66 -327 74 -423 4 -42 10 -79 14 -81 3 -3 5 -125 3 -273 -2 -262 -12 -371 -46 -553 -9 -47 -21 -110 -27 -140 -6 -30 -18 -71 -26 -90 -36 -80 -43 -98 -69 -170 -15 -41 -47 -103 -71 -137 -23 -35 -43 -65 -43 -68 0 -10 -77 -107 -122 -156 -124 -134 -329 -270 -470 -313 -58 -18 -84 -37 -74 -55 7 -11 48 3 76 25 8 6 21 9 28 7 7 -3 20 1 29 8 9 8 21 14 27 14 21 2 65 24 107 55 23 16 46 30 51 30 5 0 43 27 83 60 40 33 78 60 84 60 6 0 11 7 11 15 0 9 8 18 18 22 22 8 102 84 102 98 0 6 23 38 50 72 28 34 50 70 50 81 0 10 9 27 20 37 29 26 76 117 96 183 9 31 27 76 40 100 13 23 24 51 24 60 0 10 4 22 9 28 5 5 11 27 14 49 3 22 11 68 19 102 8 35 16 114 17 175 2 89 6 117 19 132 15 16 17 49 20 250 2 222 0 239 -28 297 -5 9 -8 59 -8 111 0 53 -3 102 -8 109 -4 8 -7 27 -6 44 2 16 -4 53 -12 80 -9 28 -16 60 -16 73 0 13 -9 42 -20 64 -11 23 -20 50 -20 61 0 10 -9 31 -20 47 -11 15 -17 30 -14 32 3 3 -3 23 -12 44 -9 22 -20 48 -24 59 -19 50 -48 105 -72 132 -8 10 -22 34 -31 53 -8 19 -27 46 -41 59 -14 14 -26 29 -26 34 0 17 -122 157 -137 157 -3 0 -25 17 -49 38 -97 84 -240 179 -252 167 -3 -3 -14 2 -24 12 -10 9 -18 13 -18 9 0 -4 -16 5 -35 19 -19 15 -38 24 -43 21 -6 -3 -16 1 -23 10 -9 12 -23 14 -50 10 -27 -4 -40 -2 -50 10 -7 8 -21 13 -30 11 -10 -3 -23 1 -29 8 -6 8 -18 11 -25 9 -7 -3 -25 2 -39 11 -17 11 -36 15 -55 12 -19 -4 -33 -1 -41 8 -12 15 -29 17 -62 8z"/>
<path d="M6681 7676 c-7 -8 -20 -12 -30 -9 -9 2 -23 -2 -30 -10 -8 -10 -24 -13 -49 -10 -26 4 -42 0 -50 -10 -7 -9 -21 -13 -33 -10 -12 4 -25 0 -30 -8 -4 -8 -12 -14 -16 -14 -17 -1 -181 -86 -193 -100 -7 -8 -17 -15 -22 -15 -15 0 -62 -38 -156 -126 -48 -44 -91 -83 -97 -85 -5 -2 -23 -24 -40 -49 -16 -25 -41 -59 -55 -77 -60 -76 -70 -92 -70 -107 0 -18 -16 -49 -41 -81 -8 -11 -25 -45 -38 -75 -13 -30 -27 -63 -32 -72 -5 -10 -9 -25 -9 -33 0 -8 -4 -23 -9 -33 -40 -82 -80 -296 -91 -492 -10 -170 -13 -474 -5 -482 3 -2 7 -67 10 -144 2 -76 8 -164 14 -194 22 -130 31 -172 45 -202 8 -18 17 -46 21 -63 3 -16 9 -46 14 -65 4 -19 33 -87 63 -150 30 -63 61 -126 67 -140 23 -48 39 -72 75 -109 20 -20 36 -41 36 -47 0 -6 16 -25 35 -44 19 -19 35 -40 35 -47 0 -7 17 -23 38 -37 20 -13 46 -33 56 -45 11 -11 24 -21 31 -21 6 0 24 -14 41 -31 16 -17 43 -38 59 -46 17 -9 50 -28 75 -44 25 -16 50 -29 55 -30 6 0 17 -6 25 -13 29 -23 69 -39 85 -32 26 10 13 27 -33 43 -23 7 -86 41 -140 75 -203 127 -350 288 -463 508 -73 141 -158 404 -181 560 -5 36 -12 232 -15 435 -6 394 0 494 40 660 28 122 99 333 128 386 14 24 33 62 43 84 33 68 145 217 214 284 92 87 159 136 286 210 112 64 174 91 213 91 12 0 32 4 45 9 13 5 49 17 81 26 58 17 70 28 41 39 -23 9 -30 8 -43 -8z"/>
<path d="M10703 7683 c-36 -7 -27 -21 18 -28 42 -7 67 4 55 24 -7 11 -31 12 -73 4z"/>
<path d="M10804 7679 c-10 -17 13 -36 27 -22 12 12 4 33 -11 33 -5 0 -12 -5 -16 -11z"/>
<path d="M10340 7670 c0 -5 5 -10 10 -10 6 0 10 5 10 10 0 6 -4 10 -10 10 -5 0 -10 -4 -10 -10z"/>
<path d="M10600 7670 c0 -5 5 -10 10 -10 6 0 10 5 10 10 0 6 -4 10 -10 10 -5 0 -10 -4 -10 -10z"/>
<path d="M10965 7660 c-13 -21 11 -31 61 -28 36 2 49 7 49 18 0 19 -99 27 -110 10z"/>
<path d="M10920 7650 c0 -5 5 -10 10 -10 6 0 10 5 10 10 0 6 -4 10 -10 10 -5 0 -10 -4 -10 -10z"/>
<path d="M10040 7635 c-9 -11 -23 -13 -49 -9 -27 4 -41 2 -50 -10 -7 -9 -17 -13 -23 -10 -10 6 -74 -21 -83 -35 -3 -5 -14 -7 -24 -4 -10 3 -22 0 -25 -6 -4 -6 -18 -11 -30 -11 -13 0 -29 -6 -35 -14 -7 -8 -31 -24 -54 -36 -23 -12 -53 -32 -67 -44 -14 -12 -42 -31 -62 -41 -21 -11 -38 -23 -38 -28 0 -5 -27 -37 -60 -71 -33 -35 -60 -67 -60 -73 0 -6 -7 -16 -15 -23 -8 -7 -15 -23 -15 -36 0 -12 -5 -26 -10 -29 -14 -9 -57 -94 -74 -147 -43 -133 -61 -408 -38 -593 6 -44 13 -102 16 -129 6 -46 28 -104 58 -151 7 -11 25 -39 41 -63 15 -24 27 -49 27 -57 0 -37 356 -352 385 -341 7 2 26 -9 41 -25 35 -36 85 -62 112 -57 11 2 29 -6 41 -16 22 -20 50 -38 91 -57 73 -35 112 -49 119 -45 5 3 16 -2 24 -12 9 -10 45 -31 79 -46 35 -16 82 -38 105 -49 23 -10 46 -16 51 -13 6 3 14 1 17 -4 7 -11 45 -29 56 -26 3 0 14 -6 24 -14 19 -16 49 -34 80 -49 11 -5 38 -25 60 -45 l40 -36 0 -64 c0 -60 -3 -68 -33 -99 -19 -19 -42 -33 -55 -33 -13 1 -22 -5 -22 -14 0 -22 51 -15 91 12 46 32 74 86 74 143 l0 47 -67 64 c-38 36 -79 67 -91 71 -21 5 -197 87 -244 113 -10 6 -23 10 -30 10 -11 0 -272 124 -328 156 -14 8 -61 32 -105 53 -44 22 -100 55 -125 75 -25 20 -50 36 -56 36 -6 0 -36 22 -67 49 -32 28 -73 62 -92 76 -46 36 -136 148 -171 214 -16 29 -35 65 -43 80 -39 70 -75 284 -73 426 3 215 36 383 106 527 41 85 166 258 186 258 4 0 31 19 61 41 48 37 225 129 247 129 4 0 27 9 50 20 22 11 50 20 62 20 26 0 85 24 94 38 10 17 -11 23 -24 7z"/>
<path d="M11143 7643 c-55 -11 -2 -33 79 -33 32 0 39 3 36 18 -2 13 -14 17 -48 18 -25 1 -55 0 -67 -3z"/>
<path d="M11298 7623 c-28 -7 -21 -21 13 -28 33 -7 56 5 45 24 -7 11 -27 12 -58 4z"/>
<path d="M11413 7603 c-25 -10 -12 -21 42 -39 58 -18 72 -15 61 12 -4 10 -13 14 -26 11 -10 -3 -24 1 -31 9 -12 14 -24 16 -46 7z"/>
<path d="M4364 7559 c-10 -17 13 -36 27 -22 12 12 4 33 -11 33 -5 0 -12 -5 -16 -11z"/>
<path d="M11553 7563 c-26 -10 -12 -21 45 -38 31 -10 83 -26 115 -37 32 -11 61 -17 64 -14 3 2 22 -6 43 -19 21 -13 40 -22 42 -19 3 2 11 -2 18 -11 7 -8 17 -15 22 -15 15 0 149 -67 168 -85 15 -13 17 -27 13 -73 -2 -31 -7 -119 -11 -195 -7 -143 -2 -161 30 -96 13 27 16 66 17 183 1 81 3 152 6 156 13 21 -161 140 -185 125 -5 -3 -11 -1 -15 5 -8 12 -96 54 -111 51 -6 -1 -17 6 -24 14 -7 8 -21 15 -31 15 -10 0 -21 5 -24 10 -3 6 -17 10 -30 10 -13 0 -27 5 -30 11 -4 6 -19 9 -33 8 -15 -2 -37 2 -49 9 -12 7 -23 12 -25 11 -2 0 -9 -3 -15 -6z"/>
<path d="M3880 7550 c0 -5 5 -10 10 -10 6 0 10 5 10 10 0 6 -4 10 -10 10 -5 0 -10 -4 -10 -10z"/>
<path d="M4290 7550 c0 -5 11 -10 25 -10 14 0 25 5 25 10 0 6 -11 10 -25 10 -14 0 -25 -4 -25 -10z"/>
<path d="M4448 7543 c-30 -8 -20 -22 20 -28 63 -11 136 -27 165 -38 15 -5 30 -7 34 -4 3 4 18 -2 33 -13 15 -11 62 -36 105 -56 130 -60 257 -198 327 -359 52 -117 71 -377 41 -550 -17 -97 -99 -241 -192 -338 -75 -77 -194 -171 -231 -182 -23 -7 -85 -36 -120 -56 -8 -5 -26 -14 -40 -20 -49 -22 -55 -26 -55 -44 0 -25 19 -29 40 -8 10 10 28 16 40 15 14 -2 27 5 37 20 8 13 33 29 54 37 21 7 45 18 53 24 7 6 20 12 28 13 8 1 41 25 73 53 32 28 62 51 67 51 16 0 171 165 178 190 5 14 18 41 30 60 40 66 69 135 71 175 1 22 7 54 14 70 13 32 8 264 -6 286 -4 7 -8 39 -9 71 -2 33 -8 65 -14 71 -6 6 -11 19 -11 29 0 20 -16 52 -41 83 -9 11 -22 44 -29 73 -7 31 -17 52 -26 52 -7 0 -17 6 -21 14 -4 8 -47 50 -95 94 -79 72 -172 131 -185 118 -3 -3 -20 6 -38 19 -17 14 -35 22 -38 18 -4 -3 -16 2 -27 12 -10 9 -26 15 -34 12 -8 -3 -20 1 -27 10 -9 11 -23 13 -50 9 -26 -4 -40 -2 -49 9 -12 15 -37 17 -72 8z"/>
<path d="M3367 7524 c-14 -14 -7 -35 11 -32 9 2 17 10 17 17 0 16 -18 25 -28 15z"/>
<path d="M3280 7490 c0 -5 5 -10 10 -10 6 0 10 5 10 10 0 6 -4 10 -10 10 -5 0 -10 -4 -10 -10z"/>
<path d="M3004 7479 c-11 -19 12 -31 45 -24 36 8 40 20 9 29 -33 8 -46 7 -54 -5z"/>
<path d="M13714 7459 c-10 -17 13 -36 27 -22 12 12 4 33 -11 33 -5 0 -12 -5 -16 -11z"/>
<path d="M13880 7450 c0 -5 5 -10 10 -10 6 0 10 5 10 10 0 6 -4 10 -10 10 -5 0 -10 -4 -10 -10z"/>
<path d="M13225 7440 c-3 -5 -3 -14 0 -20 8 -13 75 -13 95 0 13 9 13 11 0 20 -20 13 -87 13 -95 0z"/>
<path d="M13998 7443 c-29 -7 -21 -22 16 -28 47 -9 81 -3 81 15 0 15 -60 24 -97 13z"/>
<path d="M2700 7430 c0 -5 5 -10 10 -10 6 0 10 5 10 10 0 6 -4 10 -10 10 -5 0 -10 -4 -10 -10z"/>
<path d="M14188 7423 c-55 -8 -26 -21 100 -42 165 -29 187 -30 187 -11 0 10 -10 15 -31 15 -17 0 -38 6 -46 13 -11 9 -32 10 -70 6 -43 -5 -56 -3 -67 10 -13 16 -21 17 -73 9z"/>
<path d="M13094 7409 c-2 -4 -13 -5 -24 -2 -21 5 -84 -20 -95 -38 -4 -5 -14 -7 -24 -4 -11 3 -26 -4 -41 -20 -16 -17 -30 -23 -44 -19 -14 3 -32 -3 -48 -15 -14 -12 -30 -21 -35 -21 -5 0 -22 -13 -38 -30 -16 -16 -34 -30 -40 -30 -14 0 -155 -142 -155 -156 0 -6 -9 -19 -20 -29 -11 -10 -20 -24 -20 -30 0 -7 -7 -18 -15 -25 -16 -13 -65 -112 -65 -131 0 -5 -8 -24 -17 -42 -66 -127 -88 -640 -32 -749 5 -10 9 -23 9 -29 0 -15 69 -158 80 -164 4 -3 18 -24 30 -47 12 -24 32 -54 44 -68 13 -14 26 -33 29 -43 4 -9 18 -22 32 -27 14 -5 33 -23 43 -39 9 -17 26 -34 37 -39 11 -5 33 -20 49 -33 87 -73 104 -86 131 -99 17 -8 44 -26 61 -40 16 -14 69 -45 117 -68 47 -24 90 -48 94 -55 8 -13 66 -38 95 -41 10 -1 25 -9 35 -18 31 -27 196 -109 209 -104 7 3 20 -4 30 -15 10 -12 37 -29 61 -40 23 -10 44 -23 48 -29 3 -5 25 -18 49 -28 58 -26 106 -96 106 -157 0 -35 -6 -49 -32 -75 -17 -18 -42 -36 -55 -41 -24 -9 -30 -24 -14 -33 27 -17 141 73 141 111 0 7 5 21 11 31 17 27 -14 86 -79 147 -45 43 -97 75 -247 150 -104 53 -197 100 -205 105 -8 5 -37 20 -65 33 -246 121 -499 299 -621 439 -96 109 -185 291 -200 404 -11 94 -10 339 3 449 9 78 17 113 53 210 86 234 205 374 400 473 109 56 160 76 223 87 20 4 40 11 43 16 3 5 16 9 30 9 13 0 24 4 24 9 0 11 -79 11 -86 0z"/>
<path d="M2060 7390 c0 -5 5 -10 10 -10 6 0 10 5 10 10 0 6 -4 10 -10 10 -5 0 -10 -4 -10 -10z"/>
<path d="M1843 7358 c-16 -21 -21 -66 -12 -106 12 -47 27 -188 39 -362 11 -161 17 -198 36 -227 8 -13 12 -23 8 -23 -4 0 -1 -6 5 -14 6 -7 22 -11 36 -8 31 5 31 5 0 36 -22 22 -25 33 -25 103 0 43 -7 128 -16 188 -9 61 -20 166 -25 235 -9 149 -12 167 -26 181 -7 7 -13 6 -20 -3z"/>
<path d="M14513 7363 c-40 -16 -3 -32 187 -81 41 -11 93 -27 114 -36 22 -9 41 -14 44 -12 2 3 21 -6 41 -19 21 -12 60 -30 87 -40 27 -9 66 -27 86 -41 21 -13 40 -24 43 -24 3 0 24 -12 48 -27 23 -15 51 -32 62 -38 17 -9 20 -21 19 -70 -1 -119 -23 -365 -44 -501 -10 -64 -4 -154 11 -154 5 0 9 8 9 18 0 10 5 23 10 28 7 7 11 65 12 143 0 72 4 134 9 137 5 3 9 15 9 28 0 12 4 26 9 32 5 5 10 83 12 174 l4 164 -33 22 c-18 13 -39 21 -46 18 -6 -2 -23 7 -35 20 -13 14 -27 23 -31 21 -4 -3 -15 4 -25 15 -10 11 -24 20 -30 20 -7 0 -18 7 -25 15 -7 9 -15 13 -18 10 -3 -3 -13 2 -23 11 -10 9 -25 14 -33 11 -8 -3 -20 1 -27 9 -6 8 -14 12 -17 9 -3 -3 -14 2 -24 12 -10 9 -18 13 -18 9 0 -3 -11 1 -25 10 -13 8 -28 13 -33 10 -6 -3 -15 1 -22 9 -7 9 -21 13 -30 10 -9 -3 -23 2 -30 10 -9 11 -22 14 -38 10 -16 -4 -31 0 -43 11 -10 9 -25 14 -33 11 -8 -3 -20 0 -26 8 -6 7 -23 15 -38 17 -15 3 -34 8 -42 11 -8 3 -21 3 -27 0z"/>
<path d="M7185 6938 c-11 -7 -26 -13 -33 -14 -7 -1 -33 -19 -58 -39 -54 -44 -97 -131 -95 -188 1 -21 -4 -53 -10 -72 -10 -27 -10 -39 0 -58 10 -18 11 -157 8 -633 -6 -715 1 -803 69 -895 49 -67 161 -119 152 -71 -2 9 -14 18 -28 20 -25 4 -110 77 -110 97 0 5 -9 21 -20 35 -22 29 -28 118 -8 138 9 9 9 15 0 24 -9 9 -12 94 -13 312 -1 166 -4 427 -8 581 -3 154 -3 291 0 305 6 25 4 33 -19 77 -16 30 -15 50 3 60 8 5 19 38 26 83 13 87 25 113 71 156 42 40 75 57 113 58 20 1 30 6 30 16 0 19 -43 24 -70 8z"/>
<path d="M7365 6940 c-10 -16 6 -32 26 -27 12 3 38 -16 86 -64 l68 -68 11 -68 c7 -41 12 -224 13 -457 1 -222 6 -397 12 -407 13 -24 12 -646 -1 -654 -5 -3 -10 -19 -10 -34 0 -16 -6 -41 -14 -55 -21 -42 -82 -105 -110 -116 -28 -10 -34 -28 -12 -36 22 -8 91 40 130 92 72 94 70 68 58 915 l-10 756 -33 67 c-36 72 -88 123 -153 150 -45 19 -53 19 -61 6z"/>
<path d="M12060 6828 c-1 -2 -3 -68 -6 -148 -3 -80 -10 -150 -15 -157 -18 -21 12 -26 33 -6 18 19 19 29 12 166 -4 81 -11 147 -15 147 -5 0 -9 -1 -9 -2z"/>
<path d="M10695 6780 c-64 -36 -84 -64 -91 -125 -5 -42 -2 -55 18 -84 25 -35 44 -48 123 -82 28 -11 62 -27 77 -35 25 -14 67 -30 243 -94 28 -10 70 -29 95 -43 42 -22 91 -40 115 -42 6 0 25 -11 43 -24 18 -13 36 -20 39 -17 4 3 13 0 22 -8 9 -8 45 -29 81 -47 220 -111 401 -283 508 -481 54 -100 65 -137 84 -265 6 -40 14 -73 18 -73 12 0 20 101 11 145 -4 22 -15 57 -24 79 -10 21 -17 46 -17 56 0 10 -7 23 -16 30 -8 8 -29 41 -45 74 -17 34 -46 77 -65 96 -19 20 -34 40 -34 46 0 13 -103 114 -116 114 -5 0 -30 21 -54 46 -41 41 -88 74 -107 75 -5 0 -21 13 -38 29 -16 15 -77 51 -135 80 -58 28 -117 58 -133 66 -15 8 -31 13 -36 10 -5 -3 -14 1 -21 9 -7 9 -20 15 -29 13 -9 -1 -31 8 -49 20 -17 13 -36 21 -41 17 -5 -3 -12 -1 -16 5 -9 14 -75 41 -85 35 -5 -3 -11 -1 -15 5 -10 16 -77 41 -93 35 -7 -3 -28 5 -45 18 -18 13 -45 29 -62 36 -16 7 -38 17 -48 23 -10 5 -23 6 -28 2 -6 -3 -28 11 -50 32 -33 32 -39 44 -39 80 0 64 22 96 82 120 29 12 53 28 53 35 0 23 -28 19 -80 -11z"/>
<path d="M10944 6799 c-9 -15 15 -38 60 -59 42 -19 76 -68 76 -110 0 -28 21 -70 35 -70 7 0 18 -7 25 -15 16 -19 55 -16 55 5 0 9 -12 17 -30 20 -28 5 -30 9 -35 55 -9 80 -28 104 -122 154 -34 17 -60 26 -64 20z"/>
<path d="M3740 6793 c0 -17 39 -46 53 -40 9 3 35 -16 65 -46 l51 -52 11 -95 c6 -52 15 -114 20 -138 14 -58 12 -139 -2 -181 -21 -58 -72 -126 -99 -129 -26 -4 -59 -29 -59 -45 0 -17 56 1 101 32 102 68 118 122 100 336 -7 86 -18 171 -24 190 -21 60 -71 120 -119 143 -58 27 -98 37 -98 25z"/>
<path d="M3568 6783 c-35 -5 -37 -22 -3 -24 14 -1 31 -2 38 -3 14 -1 17 27 2 29 -5 1 -22 0 -37 -2z"/>
<path d="M3434 6746 c-3 -14 -1 -64 5 -113 6 -48 13 -110 16 -137 3 -27 10 -55 16 -62 7 -9 8 -32 4 -64 -4 -28 -2 -88 4 -133 5 -45 12 -106 15 -136 5 -61 10 -69 31 -51 17 14 20 46 5 55 -6 4 -10 62 -10 141 0 74 -4 143 -10 154 -5 11 -14 29 -20 40 -5 11 -10 90 -10 175 l0 155 -20 0 c-12 0 -22 -9 -26 -24z"/>
<path d="M2044 6639 c-10 -17 13 -36 27 -22 12 12 4 33 -11 33 -5 0 -12 -5 -16 -11z"/>
<path d="M2104 6639 c-10 -17 13 -36 27 -22 12 12 4 33 -11 33 -5 0 -12 -5 -16 -11z"/>
<path d="M2173 6642 c-7 -5 -6 -43 2 -122 7 -63 16 -172 20 -241 3 -69 11 -143 16 -165 5 -21 14 -97 20 -169 5 -71 14 -168 20 -215 5 -47 14 -148 19 -225 5 -77 14 -183 19 -235 6 -52 16 -165 21 -250 6 -85 18 -185 26 -222 15 -61 15 -70 0 -99 -17 -35 -14 -43 21 -53 18 -6 24 -2 29 18 3 14 3 47 0 73 -3 27 -10 104 -15 173 -6 69 -15 159 -21 200 -5 41 -15 136 -20 210 -27 362 -42 534 -60 685 -5 44 -14 134 -19 200 -6 66 -17 174 -26 240 -8 66 -15 136 -15 156 0 36 -16 54 -37 41z"/>
<path d="M13825 6551 c-71 -44 -107 -117 -85 -170 7 -18 21 -42 31 -55 21 -27 326 -180 346 -174 5 1 20 -6 35 -16 15 -10 33 -19 40 -20 7 -1 34 -14 59 -29 25 -15 49 -27 53 -27 14 0 101 -42 119 -58 9 -8 17 -11 17 -7 0 4 8 2 18 -6 9 -8 31 -21 47 -29 62 -29 223 -141 302 -210 107 -94 181 -192 247 -326 80 -164 100 -305 78 -549 -8 -82 -14 -168 -16 -190 -1 -22 -9 -56 -18 -75 -30 -65 -48 -108 -48 -118 0 -19 -66 -148 -100 -196 -84 -119 -248 -253 -360 -295 -19 -7 -44 -17 -55 -21 -11 -4 -36 -14 -55 -21 -45 -16 -57 -26 -44 -39 16 -16 143 30 209 75 17 11 52 30 79 43 50 23 236 194 236 217 0 7 9 20 20 30 11 10 20 24 20 30 0 7 7 18 15 25 28 23 78 146 70 171 -4 12 1 22 15 29 13 7 20 21 20 41 0 17 9 43 19 58 15 21 21 53 27 146 19 305 12 436 -27 519 -11 22 -19 50 -19 63 0 12 -9 27 -20 33 -14 7 -19 17 -15 29 3 10 -1 24 -10 31 -8 7 -15 21 -15 31 0 10 -21 46 -47 80 -27 33 -55 71 -63 82 -8 12 -31 35 -50 52 -19 16 -64 57 -100 91 -61 57 -107 90 -121 87 -3 -1 -19 11 -34 27 -16 17 -33 30 -38 30 -5 0 -22 11 -39 25 -16 14 -38 25 -48 25 -10 0 -21 4 -24 9 -3 5 -18 12 -32 15 -15 4 -42 18 -60 32 -18 14 -37 23 -42 20 -6 -3 -15 1 -22 9 -7 8 -16 13 -20 10 -5 -3 -12 0 -15 5 -6 9 -43 29 -65 35 -3 0 -43 19 -90 42 -119 58 -163 76 -180 76 -8 0 -23 7 -33 15 -18 16 -49 35 -82 51 -38 17 -88 79 -90 110 -2 25 5 38 39 68 23 21 51 43 61 49 11 6 15 15 11 22 -10 16 -16 15 -51 -7z"/>
<path d="M14067 6563 c-14 -14 -6 -23 39 -43 25 -12 64 -40 85 -63 34 -37 39 -48 39 -93 0 -59 15 -77 56 -72 37 4 42 25 10 38 -21 8 -26 16 -26 44 0 74 -37 123 -127 169 -55 28 -66 31 -76 20z"/>
<path d="M11220 6550 c0 -5 5 -10 10 -10 6 0 10 5 10 10 0 6 -4 10 -10 10 -5 0 -10 -4 -10 -10z"/>
<path d="M11260 6550 c0 -5 5 -10 10 -10 6 0 10 5 10 10 0 6 -4 10 -10 10 -5 0 -10 -4 -10 -10z"/>
<path d="M11340 6550 c0 -5 5 -10 10 -10 6 0 10 5 10 10 0 6 -4 10 -10 10 -5 0 -10 -4 -10 -10z"/>
<path d="M15180 6277 c0 -13 -5 -28 -12 -35 -9 -9 -9 -15 0 -24 19 -19 39 6 34 47 -5 39 -22 49 -22 12z"/>
<path d="M14700 6270 c0 -5 5 -10 10 -10 6 0 10 5 10 10 0 6 -4 10 -10 10 -5 0 -10 -4 -10 -10z"/>
<path d="M14780 6270 c0 -5 5 -10 10 -10 6 0 10 5 10 10 0 6 -4 10 -10 10 -5 0 -10 -4 -10 -10z"/>
<path d="M14965 6260 c-15 -24 17 -38 45 -20 13 9 13 11 0 20 -19 13 -37 13 -45 0z"/>
<path d="M4750 5840 c-8 -5 -11 -12 -8 -16 9 -8 82 -25 125 -29 18 -1 38 -6 45 -11 17 -12 48 -26 123 -55 33 -12 87 -45 120 -72 159 -130 242 -281 260 -472 3 -38 11 -75 17 -82 12 -15 11 -172 -1 -188 -5 -5 -12 -32 -16 -60 -9 -66 -30 -148 -46 -177 -13 -25 -87 -133 -128 -187 -48 -63 -185 -158 -351 -241 -44 -22 -124 -46 -212 -65 -35 -7 -36 -23 -3 -31 17 -4 32 -1 43 9 11 10 27 14 40 10 14 -3 30 1 42 12 10 9 24 14 30 10 6 -4 20 1 31 11 10 9 19 13 19 9 0 -4 8 -1 18 8 9 8 22 16 27 17 18 3 80 33 98 48 9 8 17 12 17 9 0 -4 13 1 28 11 108 66 258 214 251 248 -1 3 16 25 38 48 21 22 46 57 55 76 21 46 37 136 31 182 -4 27 1 45 16 67 26 36 30 131 6 151 -8 7 -12 16 -9 21 3 5 2 15 -3 22 -4 6 -9 47 -9 90 -1 44 -7 84 -13 90 -6 6 -11 21 -11 33 0 26 -26 90 -39 99 -6 3 -20 26 -32 50 -12 25 -33 55 -46 67 -13 12 -23 26 -23 33 0 6 -13 19 -30 28 -16 10 -30 25 -30 33 0 8 -6 14 -14 14 -8 0 -23 10 -33 23 -10 12 -29 28 -43 35 -14 7 -41 22 -60 32 -19 11 -40 17 -47 15 -6 -2 -17 3 -23 11 -7 8 -21 14 -31 14 -10 0 -21 5 -24 10 -4 6 -11 8 -16 4 -6 -3 -19 2 -29 11 -10 9 -29 15 -42 14 -13 -2 -33 2 -45 9 -26 14 -43 15 -63 2z"/>
<path d="M3885 5560 c-9 -14 3 -30 24 -30 10 0 39 -11 65 -24 49 -25 76 -61 76 -101 0 -12 4 -35 9 -51 12 -36 23 -180 24 -294 0 -62 -4 -94 -17 -120 -22 -42 -65 -90 -82 -90 -6 0 -17 -7 -24 -15 -7 -8 -16 -13 -20 -10 -11 7 -23 -12 -15 -25 7 -12 85 21 132 57 56 43 73 95 73 227 0 102 -21 288 -37 333 -17 48 -68 102 -118 127 -58 28 -80 32 -90 16z"/>
<path d="M3556 5534 c-11 -10 -14 -23 -10 -33 4 -9 11 -70 15 -136 5 -66 13 -142 20 -170 6 -27 12 -88 13 -135 4 -170 18 -280 36 -290 15 -8 19 -4 23 18 3 15 1 34 -3 43 -5 9 -10 74 -11 144 -1 71 -5 137 -10 147 -5 10 -13 26 -18 37 -6 10 -11 92 -12 182 l-2 164 29 5 c17 3 29 12 29 20 0 23 -78 26 -99 4z"/>
<path d="M9206 5281 c-18 -20 -27 -110 -41 -400 -3 -74 -8 -138 -10 -141 -2 -4 -5 -76 -6 -161 -1 -85 -5 -159 -10 -164 -14 -19 2 -31 98 -80 29 -15 57 -24 62 -21 5 4 12 2 16 -4 11 -19 79 -41 107 -36 15 3 30 1 33 -4 18 -29 105 -47 105 -21 0 9 -57 33 -120 51 -86 25 -132 40 -161 56 -16 8 -33 13 -38 10 -4 -3 -18 6 -31 19 l-23 25 8 137 c4 76 11 228 16 338 8 191 21 365 30 394 6 22 -16 23 -35 2z"/>
<path d="M12066 5275 c9 -36 9 -65 0 -102 -9 -40 4 -43 22 -6 15 34 16 105 0 121 -19 19 -29 14 -22 -13z"/>
<path d="M9485 5280 c-4 -7 -3 -16 3 -22 14 -14 47 -6 47 12 0 18 -40 26 -50 10z"/>
<path d="M9680 5250 c0 -5 5 -10 10 -10 6 0 10 5 10 10 0 6 -4 10 -10 10 -5 0 -10 -4 -10 -10z"/>
<path d="M9960 5250 c0 -5 5 -10 10 -10 6 0 10 5 10 10 0 6 -4 10 -10 10 -5 0 -10 -4 -10 -10z"/>
<path d="M10138 5243 c-44 -5 -52 -23 -10 -23 43 0 59 -19 64 -77 9 -96 110 -197 193 -190 48 3 39 31 -12 35 -51 4 -133 69 -133 107 0 13 -4 27 -10 30 -5 3 -10 25 -10 49 0 29 -6 48 -18 59 -10 10 -20 16 -23 15 -2 -1 -21 -3 -41 -5z"/>
<path d="M12369 5126 c-3 -3 -29 -7 -59 -8 l-55 -4 -13 -214 c-6 -118 -20 -269 -29 -335 -9 -66 -19 -158 -23 -205 -3 -47 -9 -92 -13 -100 -9 -19 -1 -29 50 -64 27 -18 50 -26 63 -23 11 3 22 2 25 -2 8 -14 156 -84 162 -77 4 3 14 -1 24 -10 10 -9 25 -14 33 -11 8 3 20 -1 27 -9 7 -9 21 -13 30 -11 10 3 24 -2 31 -10 8 -9 22 -13 40 -9 15 3 30 1 33 -4 18 -29 105 -47 105 -21 0 9 -66 41 -85 41 -9 0 -23 4 -33 9 -9 5 -37 15 -62 21 -97 27 -176 55 -200 70 -14 9 -41 23 -60 30 -77 30 -140 61 -140 70 0 5 5 21 10 36 6 15 15 90 21 168 14 189 26 347 37 490 5 65 9 126 8 135 -1 13 11 16 69 16 56 0 70 3 70 15 0 14 -54 27 -66 16z"/>
<path d="M12059 5083 c0 -42 -17 -172 -28 -225 -6 -26 -34 -100 -64 -165 -57 -128 -134 -233 -227 -313 -109 -92 -313 -192 -441 -214 -39 -7 -65 -28 -54 -46 4 -7 13 -6 28 2 12 7 28 11 35 9 8 -1 22 5 32 14 9 8 24 13 33 9 8 -3 26 0 39 7 13 7 26 12 31 11 8 -2 144 67 192 98 17 11 44 26 60 34 33 16 138 116 201 192 47 57 155 271 166 329 22 118 25 156 20 218 -5 65 -21 94 -23 40z"/>
<path d="M12588 5103 c-45 -7 -32 -21 27 -28 60 -8 89 -2 83 18 -5 12 -62 18 -110 10z"/>
<path d="M12520 5090 c0 -5 5 -10 10 -10 6 0 10 5 10 10 0 6 -4 10 -10 10 -5 0 -10 -4 -10 -10z"/>
<path d="M12905 5080 c-12 -19 7 -31 44 -29 20 2 42 0 49 -5 21 -12 13 5 -10 25 -25 20 -73 25 -83 9z"/>
<path d="M13044 5059 c-10 -17 13 -36 27 -22 12 12 4 33 -11 33 -5 0 -12 -5 -16 -11z"/>
<path d="M13180 5050 c0 -5 5 -10 10 -10 6 0 10 5 10 10 0 6 -4 10 -10 10 -5 0 -10 -4 -10 -10z"/>
<path d="M13262 5023 c1 -10 -1 -24 -5 -30 -5 -7 -3 -41 4 -75 11 -55 19 -69 63 -113 40 -39 63 -53 104 -64 37 -9 57 -10 64 -3 17 17 -2 34 -33 28 -15 -3 -31 -1 -34 4 -4 6 -21 16 -39 24 -54 23 -80 69 -83 149 -2 64 -13 97 -35 97 -5 0 -8 -8 -6 -17z"/>
<path d="M7285 4960 c-4 -7 -3 -16 3 -22 14 -14 47 -6 47 12 0 18 -40 26 -50 10z"/>
<path d="M3745 4800 c-15 -24 17 -38 45 -20 13 9 13 11 0 20 -19 13 -37 13 -45 0z"/>
<path d="M3680 4790 c0 -5 5 -10 10 -10 6 0 10 5 10 10 0 6 -4 10 -10 10 -5 0 -10 -4 -10 -10z"/>
<path d="M2090 4645 c-10 -12 -6 -178 5 -195 4 -6 12 -81 19 -168 7 -86 19 -170 26 -187 7 -17 11 -64 10 -106 -1 -53 3 -79 12 -87 28 -23 35 1 27 93 -23 270 -30 346 -40 405 -5 36 -13 102 -16 147 -4 70 -3 84 11 89 9 3 16 9 16 13 0 12 -60 9 -70 -4z"/>
<path d="M6504 4278 c-10 -15 36 -52 49 -39 11 11 2 27 -23 41 -13 7 -21 7 -26 -2z"/>
<path d="M6585 4240 c-13 -21 15 -34 89 -43 25 -3 33 21 9 29 -10 3 -26 10 -35 15 -23 12 -55 12 -63 -1z"/>
<path d="M7933 4234 c-18 -8 -33 -18 -33 -23 0 -18 21 -23 37 -10 8 7 25 13 37 14 24 0 29 29 6 32 -8 1 -30 -5 -47 -13z"/>
<path d="M9587 4243 c-14 -13 -6 -23 30 -38 37 -16 83 -13 83 4 0 5 -22 16 -49 25 -57 18 -56 18 -64 9z"/>
<path d="M6730 4205 c0 -19 26 -37 47 -33 30 6 20 32 -14 39 -23 5 -33 3 -33 -6z"/>
<path d="M7804 4199 c-10 -17 13 -36 27 -22 12 12 4 33 -11 33 -5 0 -12 -5 -16 -11z"/>
<path d="M9744 4199 c-10 -18 11 -31 40 -23 32 8 34 20 4 28 -32 8 -36 8 -44 -5z"/>
<path d="M6944 4179 c-9 -15 5 -27 26 -22 11 3 20 9 20 13 0 12 -39 19 -46 9z"/>
<path d="M7618 4183 c-29 -7 -21 -22 17 -29 41 -7 68 1 63 19 -5 13 -50 19 -80 10z"/>
<path d="M9845 4180 c-17 -27 20 -39 58 -18 l22 11 -20 8 c-29 11 -53 11 -60 -1z"/>
<path d="M4548 4153 c-21 -9 -38 -19 -38 -24 0 -13 38 -20 57 -10 10 5 26 12 36 15 21 7 18 30 -4 33 -8 1 -31 -6 -51 -14z"/>
<path d="M7105 4160 c-12 -19 10 -32 51 -28 27 2 39 8 39 18 0 19 -79 27 -90 10z"/>
<path d="M9945 4160 c-11 -18 6 -31 35 -28 15 1 35 -3 44 -11 17 -14 66 -8 66 9 0 5 -12 12 -27 16 -16 3 -38 10 -51 15 -30 12 -59 12 -67 -1z"/>
<path d="M4378 4123 c-25 -6 -22 -20 4 -27 25 -6 44 7 34 23 -7 11 -10 12 -38 4z"/>
<path d="M10145 4120 c-11 -17 7 -30 33 -24 21 6 31 24 13 24 -5 0 -16 3 -24 6 -8 3 -18 0 -22 -6z"/>
<path d="M11110 4120 c-13 -9 -13 -11 0 -20 9 -6 18 -6 24 0 15 15 -6 31 -24 20z"/>
<path d="M10220 4110 c0 -5 5 -10 10 -10 6 0 10 5 10 10 0 6 -4 10 -10 10 -5 0 -10 -4 -10 -10z"/>
<path d="M4285 4100 c-4 -7 -3 -16 3 -22 14 -14 47 -6 47 12 0 18 -40 26 -50 10z"/>
<path d="M10920 4090 c0 -5 5 -10 10 -10 6 0 10 5 10 10 0 6 -4 10 -10 10 -5 0 -10 -4 -10 -10z"/>
<path d="M4044 4079 c-10 -17 13 -36 27 -22 12 12 4 33 -11 33 -5 0 -12 -5 -16 -11z"/>
<path d="M3765 4060 c-4 -7 -3 -16 3 -22 14 -14 47 -6 47 12 0 18 -40 26 -50 10z"/>
<path d="M3680 4050 c0 -5 14 -10 30 -10 17 0 30 5 30 10 0 6 -13 10 -30 10 -16 0 -30 -4 -30 -10z"/>
<path d="M3490 4040 c-13 -9 -13 -11 0 -20 18 -11 39 5 24 20 -6 6 -15 6 -24 0z"/>
<path d="M3365 4020 c-4 -7 -3 -16 3 -22 14 -14 47 -6 47 12 0 18 -40 26 -50 10z"/>
<path d="M12825 4000 c-9 -15 5 -31 24 -28 10 2 25 -3 34 -10 21 -18 72 -12 72 8 0 10 -12 16 -35 18 -19 2 -39 8 -44 13 -13 12 -43 12 -51 -1z"/>
<path d="M3054 3986 c-10 -8 -16 -17 -13 -20 7 -7 59 16 59 27 0 12 -25 8 -46 -7z"/>
<path d="M2818 3983 c-48 -5 -50 -23 -3 -24 19 -1 41 -2 48 -3 14 -1 17 27 2 29 -5 1 -27 0 -47 -2z"/>
<path d="M13025 3960 c-11 -18 6 -32 32 -25 17 4 32 0 43 -10 12 -11 26 -14 39 -10 29 9 26 24 -6 31 -16 3 -41 10 -57 15 -37 11 -43 11 -51 -1z"/>
<path d="M2428 3943 c-29 -7 -20 -22 18 -29 37 -7 62 6 50 25 -7 11 -36 13 -68 4z"/>
<path d="M2235 3910 c-25 -27 -10 -39 16 -13 12 11 17 23 11 27 -5 3 -17 -3 -27 -14z"/>
<path d="M13225 3920 c-10 -15 5 -32 22 -25 9 3 24 -2 34 -11 17 -16 39 -12 39 6 0 9 -63 40 -81 40 -4 0 -11 -4 -14 -10z"/>
<path d="M14333 3912 c-24 -9 -43 -19 -43 -23 0 -12 42 -18 59 -9 9 5 24 11 34 14 19 6 19 28 1 32 -5 1 -28 -6 -51 -14z"/>
<path d="M13464 3879 c-10 -16 5 -26 31 -21 14 2 25 8 25 12 0 11 -50 19 -56 9z"/>
<path d="M14204 3879 c-10 -17 13 -36 27 -22 12 12 4 33 -11 33 -5 0 -12 -5 -16 -11z"/>
<path d="M14140 3870 c0 -5 9 -10 20 -10 11 0 20 5 20 10 0 6 -9 10 -20 10 -11 0 -20 -4 -20 -10z"/>
<path d="M6340 3810 c0 -5 5 -10 10 -10 6 0 10 5 10 10 0 6 -4 10 -10 10 -5 0 -10 -4 -10 -10z"/>
<path d="M4760 3690 c0 -5 9 -10 20 -10 11 0 20 5 20 10 0 6 -9 10 -20 10 -11 0 -20 -4 -20 -10z"/>
<path d="M6489 3625 c-13 -13 -29 -25 -35 -25 -11 0 -74 -73 -74 -85 0 -4 -15 -27 -32 -53 -18 -26 -54 -87 -79 -137 l-47 -90 -38 -5 c-45 -6 -55 -26 -20 -39 32 -13 84 11 96 45 5 13 16 24 25 24 9 0 15 9 15 24 0 31 42 121 70 151 24 25 42 54 60 93 5 13 18 26 28 29 10 2 22 14 27 26 15 34 39 27 43 -13 3 -23 -2 -38 -14 -47 -9 -7 -18 -29 -21 -50 -4 -44 -26 -95 -48 -113 -8 -7 -15 -18 -15 -24 0 -7 -12 -23 -26 -37 -14 -13 -36 -47 -49 -76 -13 -28 -30 -55 -37 -60 -23 -14 -68 -88 -68 -111 0 -11 -13 -40 -29 -64 -16 -24 -31 -53 -35 -64 -6 -19 -3 -21 26 -20 18 0 34 -3 36 -9 1 -5 -4 -10 -10 -10 -7 0 -13 -9 -14 -20 -1 -11 -2 -26 -3 -33 0 -7 -18 -31 -40 -55 -21 -23 -48 -61 -60 -84 -11 -23 -25 -44 -31 -48 -5 -3 -19 -25 -29 -48 -11 -23 -31 -53 -44 -65 l-25 -24 -11 20 c-6 12 -11 29 -11 40 0 11 -6 25 -14 31 -32 27 -25 50 38 118 65 73 111 154 121 217 4 26 12 40 26 43 10 3 19 13 19 22 0 9 9 27 20 41 11 14 20 34 20 46 0 11 5 25 12 32 10 10 8 17 -9 34 l-22 22 -6 -20 c-4 -10 -11 -27 -16 -36 -5 -10 -9 -23 -9 -30 0 -6 -20 -50 -44 -97 -24 -48 -54 -110 -65 -139 -12 -30 -43 -79 -69 -109 -65 -76 -197 -181 -244 -193 -45 -13 -48 -22 -12 -39 l27 -12 -28 -29 c-15 -16 -37 -28 -48 -27 -24 2 -35 -21 -13 -29 15 -6 154 60 208 97 35 25 40 24 71 -11 49 -54 113 -31 154 55 7 17 27 50 43 75 16 25 33 52 37 60 25 56 288 344 304 334 5 -3 -5 -33 -22 -66 -51 -100 -63 -158 -60 -279 1 -24 11 -49 32 -75 39 -49 56 -59 75 -43 14 11 11 17 -22 45 -36 29 -38 35 -36 79 1 27 -3 54 -9 62 -8 9 -8 20 0 40 6 16 12 44 14 63 6 51 16 71 56 113 26 28 36 47 38 77 2 28 -1 40 -11 40 -7 0 -20 8 -29 18 -16 17 -16 20 6 39 12 11 36 27 52 36 17 8 39 25 50 37 11 12 31 26 44 32 16 6 21 12 14 19 -14 14 -102 -35 -170 -93 -30 -27 -58 -48 -63 -48 -4 0 -32 -20 -61 -45 -68 -58 -87 -46 -39 25 15 22 43 69 84 145 6 11 25 38 41 60 17 22 50 81 74 130 24 50 47 98 52 107 14 28 11 44 -18 77 -33 37 -44 38 -74 6z m-625 -1066 c-3 -5 -10 -7 -15 -3 -5 3 -7 10 -3 15 3 5 10 7 15 3 5 -3 7 -10 3 -15z"/>
<path d="M3965 3620 c-9 -15 4 -30 20 -23 8 3 15 9 15 13 0 12 -29 20 -35 10z"/>
<path d="M3700 3570 c0 -5 5 -10 10 -10 6 0 10 5 10 10 0 6 -4 10 -10 10 -5 0 -10 -4 -10 -10z"/>
<path d="M7613 3325 c-113 -115 -219 -229 -235 -253 -16 -23 -47 -54 -69 -67 -21 -14 -39 -33 -39 -42 0 -9 -58 -74 -129 -143 -106 -105 -136 -129 -174 -140 -51 -14 -77 -9 -77 15 0 9 13 44 29 78 15 34 33 75 40 90 6 16 35 65 65 110 138 213 147 228 141 247 -4 11 -11 20 -18 20 -6 0 -21 10 -34 22 -17 16 -26 19 -34 11 -6 -6 -18 -9 -25 -6 -24 9 -127 -80 -140 -120 -3 -11 -18 -38 -34 -60 -15 -23 -37 -69 -49 -102 -43 -118 -241 -334 -283 -309 -14 9 -2 87 20 132 43 86 100 190 127 232 41 63 75 138 75 164 0 23 -37 66 -57 66 -16 0 -25 -31 -14 -44 23 -27 6 -89 -49 -181 -17 -27 -39 -68 -50 -91 -10 -22 -26 -47 -35 -54 -8 -7 -15 -21 -15 -32 0 -11 -13 -36 -30 -55 -28 -32 -36 -63 -31 -118 4 -42 68 -83 86 -55 4 6 10 8 14 5 5 -2 18 7 31 20 13 13 27 22 32 19 5 -4 0 -17 -13 -30 -12 -13 -25 -21 -29 -19 -4 2 -17 -7 -30 -20 -19 -20 -21 -27 -10 -40 7 -8 17 -15 22 -15 6 0 43 32 83 71 l73 70 23 -47 c24 -48 86 -107 101 -98 14 9 -2 47 -34 80 -25 27 -28 35 -19 52 15 28 15 27 -24 71 l-35 38 15 30 c8 16 24 38 35 48 12 11 27 33 35 49 30 67 45 108 40 116 -2 4 7 18 21 31 15 13 30 34 35 47 5 12 15 22 24 22 8 0 15 9 15 19 0 21 49 85 58 77 3 -3 11 -1 19 6 20 16 63 -26 45 -44 -7 -7 -12 -19 -12 -28 0 -22 -26 -75 -45 -90 -8 -7 -15 -16 -15 -21 0 -12 -55 -92 -79 -113 -12 -11 -21 -27 -21 -36 0 -10 -21 -59 -46 -109 l-46 -92 21 -23 c12 -12 19 -25 16 -28 -9 -9 22 -29 52 -33 15 -2 30 -4 32 -4 10 -2 -34 -41 -46 -41 -7 0 -13 -4 -13 -10 0 -12 17 -13 24 -1 3 5 14 7 25 4 38 -10 131 48 228 141 53 50 99 91 103 91 9 0 80 -103 80 -116 0 -5 18 -21 40 -35 31 -21 44 -24 52 -16 9 9 5 20 -19 44 -16 18 -33 41 -36 51 -4 9 -17 21 -31 27 -28 10 -41 27 -41 55 0 14 -6 19 -20 18 -11 -1 -31 7 -45 17 l-25 20 43 39 c23 22 42 44 42 48 0 16 158 165 164 155 3 -5 -3 -17 -14 -27 -11 -10 -20 -23 -20 -30 0 -7 -9 -20 -20 -30 -11 -10 -20 -23 -20 -30 0 -7 -9 -20 -20 -30 -26 -23 -27 -91 -2 -134 9 -17 20 -31 24 -31 3 0 20 -12 37 -26 31 -26 61 -29 68 -7 2 6 -12 19 -32 29 -46 22 -69 65 -63 119 6 50 56 119 188 258 90 94 119 113 100 61 -6 -14 -10 -56 -10 -93 0 -37 -6 -88 -13 -112 -8 -24 -12 -50 -10 -56 8 -22 -61 -176 -79 -181 -10 -2 -18 -10 -18 -18 0 -61 112 42 114 106 1 8 8 15 16 15 11 0 15 -11 15 -37 0 -26 8 -45 28 -66 28 -29 27 -42 -3 -42 -9 0 -27 -12 -41 -26 -13 -15 -43 -35 -66 -46 -24 -10 -43 -23 -43 -29 0 -23 33 -18 86 13 30 18 64 38 75 44 10 6 27 19 38 28 12 11 21 14 26 7 18 -30 182 88 263 189 84 105 89 143 21 146 -25 1 -36 -7 -73 -55 -61 -77 -124 -135 -171 -157 -22 -10 -45 -25 -51 -33 -7 -8 -18 -12 -29 -8 -12 5 -14 11 -8 20 11 13 21 60 34 157 34 260 41 293 83 356 52 78 56 111 17 148 -22 22 -34 27 -42 19 -8 -8 -8 -17 0 -31 16 -30 12 -73 -9 -107 -38 -60 -50 -89 -50 -115 0 -15 -3 -30 -7 -33 -3 -4 -8 -19 -9 -34 -12 -120 -24 -160 -45 -147 -12 7 -11 61 1 69 6 3 10 39 10 79 0 63 -3 75 -24 95 -13 12 -29 21 -37 19 -7 -2 -15 5 -17 15 -2 11 16 35 53 69 31 28 61 62 66 75 5 14 13 22 18 18 15 -9 25 15 11 28 -9 9 -60 -37 -217 -198z m-79 -156 c-3 -5 -10 -7 -15 -3 -5 3 -7 10 -3 15 3 5 10 7 15 3 5 -3 7 -10 3 -15z m460 -280 c-9 -10 -21 -16 -26 -13 -5 3 -2 14 8 25 9 10 21 16 26 13 5 -3 2 -14 -8 -25z m-116 -61 c8 -8 15 -8 25 0 21 18 29 1 10 -20 -19 -22 -46 -23 -63 -3 -21 25 4 47 28 23z m-654 -29 c-3 -5 -10 -7 -15 -3 -5 3 -7 10 -3 15 3 5 10 7 15 3 5 -3 7 -10 3 -15z m-100 -96 c-17 -27 -75 -56 -87 -44 -12 12 18 51 38 51 7 0 18 7 25 15 18 22 39 2 24 -22z"/>
<path d="M13485 3520 c-4 -6 -3 -16 3 -22 6 -6 12 -6 17 2 4 6 3 16 -3 22 -6 6 -12 6 -17 -2z"/>
<path d="M3180 3510 c0 -5 5 -10 10 -10 6 0 10 5 10 10 0 6 -4 10 -10 10 -5 0 -10 -4 -10 -10z"/>
<path d="M13440 3510 c0 -5 5 -10 10 -10 6 0 10 5 10 10 0 6 -4 10 -10 10 -5 0 -10 -4 -10 -10z"/>
<path d="M7143 3490 c-27 -16 -33 -26 -32 -52 2 -56 14 -82 47 -101 43 -25 50 -16 23 28 -27 47 -27 88 1 107 12 8 18 19 14 26 -10 16 -16 15 -53 -8z"/>
<path d="M7225 3499 c-4 -5 5 -21 19 -34 34 -31 34 -71 0 -106 -34 -36 -23 -55 18 -32 34 20 68 68 68 97 0 21 -64 86 -85 86 -8 0 -17 -5 -20 -11z"/>
<path d="M10911 3461 c-14 -15 -45 -66 -68 -112 -45 -92 -155 -236 -197 -258 -14 -8 -26 -18 -26 -23 0 -4 -60 -67 -132 -139 -126 -125 -203 -180 -229 -163 -34 21 18 143 115 269 101 131 134 183 135 212 1 23 -41 63 -67 63 -8 0 -37 23 -64 50 -28 28 -55 49 -61 47 -22 -7 -18 -27 7 -37 26 -10 36 -43 16 -55 -6 -4 -8 -11 -5 -16 4 -5 -27 -52 -67 -106 -159 -210 -229 -291 -309 -357 -48 -39 -68 -61 -61 -68 7 -7 20 -3 41 13 22 16 34 20 42 12 16 -16 -98 -107 -135 -108 -25 0 -33 -23 -11 -31 22 -9 108 38 180 97 11 9 32 24 47 34 l27 17 17 -41 c18 -45 89 -113 114 -109 24 5 18 33 -8 36 -13 2 -26 11 -29 20 -16 50 -29 71 -46 76 -14 3 -16 10 -11 30 7 30 -10 56 -37 56 -10 0 -20 3 -23 8 -2 4 38 55 90 112 52 58 98 115 104 128 5 12 16 22 25 22 8 0 15 9 15 20 0 10 13 34 29 52 16 18 30 42 32 52 6 29 52 29 80 0 21 -22 21 -25 6 -42 -10 -10 -17 -24 -17 -30 0 -7 -13 -26 -30 -44 -16 -17 -30 -38 -30 -46 0 -8 -17 -34 -37 -58 -59 -67 -83 -101 -83 -118 0 -8 -13 -34 -29 -58 -43 -64 -45 -81 -17 -107 14 -13 29 -20 35 -17 6 4 19 3 28 -3 13 -7 23 -5 36 6 13 13 20 14 29 5 9 -9 6 -18 -12 -37 -13 -14 -29 -25 -36 -25 -18 0 -28 -20 -16 -32 16 -16 97 25 174 88 37 31 148 139 246 239 l177 183 28 -14 c33 -18 33 -19 4 -58 -71 -96 -96 -169 -102 -299 -4 -80 -2 -105 12 -127 19 -32 112 -85 126 -71 14 14 -1 31 -39 47 -22 9 -34 21 -34 34 0 10 -3 21 -8 24 -12 7 -15 143 -3 151 6 3 11 26 11 51 0 49 27 114 78 188 l34 48 -32 29 c-17 16 -33 29 -36 29 -12 0 -64 45 -64 55 0 7 9 20 20 30 12 10 18 25 16 32 -7 18 33 103 48 103 8 0 17 7 20 16 10 25 60 14 64 -14 5 -31 -24 -89 -46 -96 -23 -8 -55 -67 -47 -89 9 -21 44 -32 58 -18 7 7 6 15 -3 26 -11 14 -7 22 28 58 35 36 72 107 72 138 0 25 -42 49 -86 49 -38 0 -51 -5 -73 -29z m-257 -452 c-20 -21 -41 -36 -47 -32 -5 3 8 23 29 44 20 21 41 36 47 32 5 -3 -8 -23 -29 -44z m-162 -162 c-74 -74 -104 -98 -117 -93 -14 5 -15 9 -5 21 7 8 18 15 24 15 6 0 49 38 95 84 47 47 89 82 94 79 5 -3 -36 -51 -91 -106z m-468 -48 c-3 -5 -10 -7 -15 -3 -5 3 -7 10 -3 15 3 5 10 7 15 3 5 -3 7 -10 3 -15z"/>
<path d="M10180 3393 c-73 -25 -211 -105 -269 -157 -83 -73 -175 -173 -220 -239 -18 -26 -74 -82 -124 -124 -89 -73 -150 -108 -212 -122 -17 -4 -30 -13 -30 -21 0 -20 39 -24 54 -6 7 8 19 12 27 9 8 -3 21 0 28 6 9 7 17 8 20 3 7 -12 -11 -28 -57 -47 -20 -8 -37 -20 -37 -25 0 -16 30 -24 43 -11 6 6 18 11 27 11 9 0 25 9 35 20 10 11 24 20 30 20 7 0 38 18 70 39 l58 39 52 -57 c62 -66 100 -90 117 -73 8 8 8 15 -1 26 -11 13 -9 20 7 41 l20 26 -24 24 -25 25 37 71 c40 77 127 177 209 241 78 60 182 128 214 139 30 10 47 34 32 43 -11 7 -79 -12 -86 -24 -4 -6 -25 -19 -49 -30 -23 -10 -49 -26 -56 -35 -7 -8 -18 -15 -24 -15 -7 0 -23 -12 -37 -26 -13 -14 -34 -30 -47 -35 -12 -5 -26 -19 -31 -31 -5 -13 -32 -45 -61 -73 -28 -27 -60 -69 -71 -92 -10 -23 -24 -45 -30 -48 -17 -11 -32 -57 -33 -100 -1 -55 -30 -56 -34 -2 -3 31 -10 42 -42 62 l-39 25 59 60 c33 32 60 64 60 69 0 5 14 23 30 41 17 18 30 35 30 40 0 5 53 57 132 128 4 4 20 22 34 40 15 18 29 30 32 27 3 -3 14 2 24 12 10 9 18 12 18 8 0 -4 8 -1 18 8 9 8 19 16 22 16 14 0 59 21 65 31 3 5 10 8 15 5 4 -3 13 2 20 10 7 8 19 15 26 15 8 0 14 5 14 10 0 11 -15 12 -40 3z m-596 -594 c-3 -5 -10 -7 -15 -3 -5 3 -7 10 -3 15 3 5 10 7 15 3 5 -3 7 -10 3 -15z m-75 -35 c-6 -7 -15 -11 -21 -8 -5 3 -4 12 3 20 6 7 15 11 21 8 5 -3 4 -12 -3 -20z"/>
<path d="M10260 3390 c0 -5 5 -10 10 -10 6 0 10 5 10 10 0 6 -4 10 -10 10 -5 0 -10 -4 -10 -10z"/>
<path d="M5762 3356 c-25 -13 -70 -67 -91 -108 -28 -55 -70 -96 -106 -102 -41 -8 -45 -21 -9 -30 18 -5 32 -2 45 10 11 9 19 13 19 9 0 -18 44 33 66 78 13 26 31 47 39 47 8 0 15 5 15 12 0 7 14 27 32 45 35 36 29 60 -10 39z"/>
<path d="M9530 3349 c-19 -10 -42 -19 -50 -19 -34 -3 -176 -115 -233 -184 -67 -80 -68 -37 -2 60 28 41 31 71 11 99 -19 26 -51 13 -36 -15 8 -15 5 -30 -14 -68 -13 -27 -32 -54 -40 -61 -9 -8 -16 -23 -16 -34 0 -11 -9 -30 -19 -41 -34 -37 -69 -89 -100 -152 -17 -34 -38 -67 -46 -74 -8 -7 -15 -18 -15 -25 0 -6 -9 -20 -20 -30 -11 -10 -20 -25 -20 -34 0 -26 -68 -156 -95 -181 -14 -13 -25 -33 -25 -45 0 -12 -24 -45 -60 -80 -33 -33 -60 -65 -60 -73 0 -7 -8 -16 -17 -19 -16 -6 -46 -27 -91 -64 -10 -8 -10 -14 -2 -24 9 -11 20 -9 61 12 90 45 237 242 334 448 21 44 48 93 61 108 13 15 28 43 33 62 11 42 49 97 61 90 5 -3 -2 -27 -15 -54 -33 -65 -42 -148 -21 -189 24 -46 84 -101 124 -112 20 -5 38 -7 41 -5 5 6 -67 75 -79 75 -23 0 -40 41 -40 96 0 33 -5 65 -12 72 -9 9 -7 16 7 32 10 11 24 20 31 20 7 0 10 8 7 18 -2 10 7 29 21 45 14 15 29 39 32 52 8 31 181 203 226 224 19 9 42 22 52 30 9 7 16 10 16 6 0 -5 9 0 20 10 11 10 20 14 20 10 0 -5 5 -4 12 3 22 22 -6 29 -42 11z m-376 -330 c-3 -5 -10 -7 -15 -3 -5 3 -7 10 -3 15 3 5 10 7 15 3 5 -3 7 -10 3 -15z"/>
<path d="M9657 3354 c-4 -4 -4 -18 -1 -30 4 -13 3 -31 0 -40 -5 -13 -9 -14 -21 -4 -10 8 -20 9 -27 3 -7 -5 -31 -15 -53 -22 -22 -8 -61 -33 -87 -57 -26 -24 -51 -44 -56 -44 -5 0 -14 -11 -20 -25 -6 -14 -18 -25 -25 -25 -19 0 -60 -46 -54 -62 2 -7 -5 -23 -16 -35 -16 -18 -18 -25 -8 -37 14 -17 7 -36 -13 -36 -17 0 -82 -70 -92 -100 -10 -33 -7 -47 17 -71 11 -11 24 -31 29 -45 8 -20 14 -24 33 -19 40 13 43 24 13 48 -25 20 -28 29 -28 77 1 50 4 58 34 83 18 15 34 33 34 40 1 7 2 16 3 21 0 5 8 2 17 -5 14 -11 18 -10 31 6 8 11 19 19 25 17 6 -2 19 5 29 14 11 9 19 13 19 9 0 -4 9 0 21 11 12 10 22 18 23 16 2 -5 47 15 70 30 34 23 126 111 121 116 -8 8 17 32 27 26 5 -3 3 -13 -6 -22 -8 -10 -15 -21 -16 -27 -6 -30 -21 -55 -33 -55 -7 0 -28 -16 -47 -35 -37 -39 -124 -87 -144 -79 -15 6 -71 -52 -58 -60 6 -4 13 -2 17 4 3 5 17 10 31 10 56 0 225 114 273 184 34 49 48 124 32 164 -16 39 -76 74 -94 56z m-32 -144 c-12 -38 -72 -96 -143 -139 -38 -23 -74 -41 -80 -41 -7 0 -23 -7 -36 -16 -54 -35 -30 8 48 89 54 56 103 95 142 115 62 32 81 29 69 -8z"/>
<path d="M5827 3343 c-2 -5 -3 -28 -2 -53 1 -28 -5 -58 -17 -78 -28 -51 -17 -71 35 -65 56 7 68 20 39 41 l-23 18 18 46 c14 39 15 49 3 63 -18 21 -48 37 -53 28z"/>
<path d="M8670 3316 c-58 -33 -258 -291 -297 -384 -8 -19 -16 -68 -17 -108 -3 -67 -1 -76 21 -98 46 -46 77 -52 152 -27 84 28 108 42 227 138 142 115 142 115 149 104 3 -6 -4 -29 -16 -53 -12 -23 -36 -76 -54 -118 -51 -120 -152 -266 -235 -342 -40 -37 -76 -65 -80 -63 -3 2 -12 0 -20 -5 -12 -8 -13 -11 -2 -22 11 -11 15 -10 23 5 6 9 20 17 33 17 12 0 33 11 46 25 13 14 29 25 35 25 20 0 101 97 129 154 15 30 33 59 41 66 8 7 15 18 15 25 0 6 9 20 20 30 11 10 20 28 20 39 1 28 33 98 54 115 9 8 23 29 31 48 8 18 19 33 24 33 18 0 13 77 -5 84 -9 3 -19 4 -24 1 -4 -3 -13 2 -20 10 -10 12 -7 20 14 45 14 17 39 42 56 56 16 14 30 32 30 40 0 8 11 19 25 24 13 5 31 22 39 37 20 39 56 71 85 75 29 4 39 25 17 34 -31 12 -77 -19 -135 -90 -134 -163 -521 -470 -553 -438 -19 19 42 107 184 267 123 140 158 187 158 214 0 4 -9 17 -21 30 -16 17 -24 20 -35 10 -10 -8 -11 -16 -4 -29 16 -30 -18 -83 -137 -209 -40 -43 -73 -82 -73 -87 0 -5 -22 -32 -50 -59 -30 -30 -50 -58 -50 -72 0 -12 -4 -25 -10 -28 -21 -13 -11 -64 16 -81 l25 -17 -20 -20 c-16 -17 -23 -18 -35 -8 -38 32 -63 139 -36 156 6 3 10 21 10 39 0 44 19 97 40 116 10 8 29 33 42 55 14 22 33 46 42 54 9 7 16 19 16 25 0 15 110 124 140 139 13 7 22 17 22 22 -1 16 -25 16 -52 1z m224 -307 c-3 -5 -10 -7 -15 -3 -5 3 -7 10 -3 15 3 5 10 7 15 3 5 -3 7 -10 3 -15z m-100 -100 c-9 -10 -21 -16 -26 -13 -5 3 -2 14 8 25 9 10 21 16 26 13 5 -3 2 -14 -8 -25z m-149 -90 c10 -15 -26 -50 -45 -44 -10 3 -23 -1 -30 -10 -7 -8 -17 -12 -22 -9 -5 3 -2 14 8 25 9 10 20 16 24 14 4 -2 15 4 25 15 20 23 31 25 40 9z"/>
<path d="M11070 3270 c-14 -11 -33 -20 -42 -20 -22 0 -33 -19 -19 -33 7 -7 16 -6 30 7 11 10 25 15 31 11 6 -4 17 -1 25 5 8 6 22 10 32 8 22 -4 27 -62 7 -79 -8 -6 -14 -18 -14 -25 0 -7 -12 -22 -27 -31 -33 -22 -73 -61 -73 -72 0 -4 -14 -20 -31 -37 -28 -26 -51 -57 -101 -133 -10 -16 -17 -48 -17 -82 -1 -50 2 -58 33 -88 40 -38 58 -26 27 18 -26 36 -26 43 -3 106 28 74 52 109 149 213 145 156 156 180 108 227 -30 31 -80 33 -115 5z"/>
<path d="M6071 3177 c-11 -29 -30 -44 -60 -49 -14 -1 -26 -9 -29 -15 -6 -21 26 -27 71 -13 96 28 105 39 64 78 -29 28 -35 27 -46 -1z"/>
<path d="M11040 3180 c0 -5 5 -10 10 -10 6 0 10 5 10 10 0 6 -4 10 -10 10 -5 0 -10 -4 -10 -10z"/>
<path d="M5455 3107 c-25 -21 -27 -27 -20 -64 6 -40 26 -60 47 -47 5 3 7 12 4 19 -2 7 1 18 7 24 8 8 8 14 -1 23 -9 9 -8 16 3 28 13 15 14 19 1 29 -11 9 -20 7 -41 -12z"/>
<path d="M5881 3096 c-7 -8 -19 -12 -27 -9 -8 3 -24 -3 -34 -12 -11 -10 -20 -14 -20 -10 0 5 -5 4 -12 -3 -19 -19 4 -37 28 -23 11 6 46 17 79 24 39 9 60 19 60 28 0 20 -58 24 -74 5z"/>
<path d="M5688 3023 c-28 -30 -98 -156 -98 -177 0 -15 -41 -99 -59 -120 -7 -8 -10 -20 -7 -25 4 -5 -2 -25 -13 -43 -29 -52 -23 -119 13 -157 31 -32 59 -40 72 -19 4 6 -4 20 -19 33 -43 34 -35 110 27 248 14 32 26 63 26 69 0 22 72 154 96 176 25 22 25 42 0 42 -7 0 -24 -12 -38 -27z"/>
<path d="M5518 3013 c0 -5 -2 -19 -4 -33 -4 -36 -39 -150 -63 -205 -11 -26 -19 -51 -16 -55 3 -4 -2 -24 -10 -44 -19 -46 -19 -111 1 -169 17 -49 66 -100 92 -95 25 5 25 27 0 37 -40 15 -57 43 -63 106 -3 33 -8 74 -11 91 -5 26 -1 35 26 58 25 20 31 32 26 50 -4 16 1 29 19 46 21 19 25 33 25 77 0 40 5 58 21 74 l21 21 -23 24 c-23 24 -38 30 -41 17z"/>
<path d="M11377 2936 c-96 -100 -236 -190 -382 -246 -21 -8 -25 -14 -17 -22 8 -8 15 -8 24 -1 11 9 46 11 67 4 2 0 -4 -10 -13 -20 -42 -46 18 -45 110 2 27 14 56 33 64 42 7 9 27 22 45 29 38 16 202 169 210 197 8 24 -20 59 -47 59 -10 0 -37 -20 -61 -44z m-43 -117 c-3 -5 -10 -7 -15 -3 -5 3 -7 10 -3 15 3 5 10 7 15 3 5 -3 7 -10 3 -15z m-145 -115 c-35 -36 -47 -42 -68 -37 -40 9 -44 14 -25 34 9 10 21 16 26 13 10 -7 74 21 83 36 4 6 11 7 17 4 5 -4 -9 -25 -33 -50z"/>
<path d="M4533 2951 c-36 -23 -73 -87 -73 -126 0 -63 57 -133 121 -148 32 -8 123 35 145 69 20 29 22 100 6 139 -32 73 -134 107 -199 66z"/>
<path d="M12000 2963 c-54 -21 -92 -89 -86 -155 5 -56 18 -77 63 -106 53 -35 99 -33 155 7 40 29 48 40 54 77 9 65 -2 106 -41 144 -27 26 -44 33 -82 36 -26 2 -55 1 -63 -3z"/>
<path d="M3060 2910 c0 -5 5 -10 10 -10 6 0 10 5 10 10 0 6 -4 10 -10 10 -5 0 -10 -4 -10 -10z"/>
<path d="M13594 2899 c-10 -17 13 -36 27 -22 12 12 4 33 -11 33 -5 0 -12 -5 -16 -11z"/>
<path d="M3100 2850 c0 -5 5 -10 10 -10 6 0 10 5 10 10 0 6 -4 10 -10 10 -5 0 -10 -4 -10 -10z"/>
<path d="M2455 2830 c-25 -27 -10 -39 16 -13 12 11 17 23 11 27 -5 3 -17 -3 -27 -14z"/>
<path d="M2100 2770 c0 -5 5 -10 10 -10 6 0 10 5 10 10 0 6 -4 10 -10 10 -5 0 -10 -4 -10 -10z"/>
<path d="M2220 2770 c0 -5 7 -10 15 -10 8 0 15 5 15 10 0 6 -7 10 -15 10 -8 0 -15 -4 -15 -10z"/>
<path d="M3140 2746 c0 -8 5 -18 10 -21 6 -3 10 -19 10 -36 0 -16 5 -29 10 -29 14 0 13 41 -2 73 -14 29 -28 36 -28 13z"/>
<path d="M1460 2650 c0 -5 5 -10 10 -10 6 0 10 5 10 10 0 6 -4 10 -10 10 -5 0 -10 -4 -10 -10z"/>
<path d="M1500 2650 c0 -5 5 -10 10 -10 6 0 10 5 10 10 0 6 -4 10 -10 10 -5 0 -10 -4 -10 -10z"/>
<path d="M3180 2606 c0 -38 18 -96 30 -96 15 0 18 39 4 51 -8 6 -14 27 -14 45 0 19 -4 34 -10 34 -5 0 -10 -15 -10 -34z"/>
<path d="M10980 2630 c0 -5 5 -10 10 -10 6 0 10 5 10 10 0 6 -4 10 -10 10 -5 0 -10 -4 -10 -10z"/>
<path d="M1304 2619 c-10 -17 13 -36 27 -22 12 12 4 33 -11 33 -5 0 -12 -5 -16 -11z"/>
<path d="M1140 2570 c0 -5 9 -10 20 -10 11 0 20 5 20 10 0 6 -9 10 -20 10 -11 0 -20 -4 -20 -10z"/>
<path d="M1100 2550 c0 -5 5 -10 10 -10 6 0 10 5 10 10 0 6 -4 10 -10 10 -5 0 -10 -4 -10 -10z"/>
<path d="M1200 2550 c0 -5 5 -10 10 -10 6 0 10 5 10 10 0 6 -4 10 -10 10 -5 0 -10 -4 -10 -10z"/>
<path d="M15480 2541 c0 -21 26 -36 36 -20 6 11 -13 39 -27 39 -5 0 -9 -9 -9 -19z"/>
<path d="M5630 2510 c0 -5 7 -10 15 -10 8 0 15 5 15 10 0 6 -7 10 -15 10 -8 0 -15 -4 -15 -10z"/>
<path d="M1200 2490 c0 -5 5 -10 10 -10 6 0 10 5 10 10 0 6 -4 10 -10 10 -5 0 -10 -4 -10 -10z"/>
<path d="M1280 2461 c0 -19 26 -48 35 -39 6 6 -18 58 -27 58 -5 0 -8 -8 -8 -19z"/>
<path d="M8287 2463 c-28 -51 6 -132 75 -179 55 -37 152 -54 176 -31 12 13 8 19 -30 44 -23 16 -43 35 -43 43 0 8 -11 20 -25 27 -14 7 -32 20 -40 30 -21 26 -85 73 -98 73 -6 0 -13 -3 -15 -7z m118 -119 c29 -27 31 -37 10 -54 -13 -11 -17 -8 -28 19 -7 20 -16 30 -26 26 -20 -8 -44 15 -31 30 14 17 43 9 75 -21z"/>
<path d="M3240 2380 c0 -11 5 -20 10 -20 6 0 10 9 10 20 0 11 -4 20 -10 20 -5 0 -10 -9 -10 -20z"/>
<path d="M13214 2359 c-10 -17 13 -36 27 -22 12 12 4 33 -11 33 -5 0 -12 -5 -16 -11z"/>
<path d="M13394 2339 c-10 -17 13 -36 27 -22 12 12 4 33 -11 33 -5 0 -12 -5 -16 -11z"/>
<path d="M1480 2330 c0 -5 5 -10 10 -10 6 0 10 5 10 10 0 6 -4 10 -10 10 -5 0 -10 -4 -10 -10z"/>
<path d="M1560 2298 c0 -14 50 -41 59 -32 7 6 -36 44 -50 44 -5 0 -9 -6 -9 -12z"/>
<path d="M3263 2259 c5 -37 30 -79 48 -79 12 0 -3 84 -19 103 -25 28 -35 20 -29 -24z"/>
<path d="M8620 2230 c0 -5 5 -10 10 -10 6 0 10 5 10 10 0 6 -4 10 -10 10 -5 0 -10 -4 -10 -10z"/>
<path d="M8660 2230 c0 -5 5 -10 10 -10 6 0 10 5 10 10 0 6 -4 10 -10 10 -5 0 -10 -4 -10 -10z"/>
<path d="M3300 2150 c0 -5 5 -10 10 -10 6 0 10 5 10 10 0 6 -4 10 -10 10 -5 0 -10 -4 -10 -10z"/>
<path d="M1920 2050 c0 -5 5 -10 10 -10 6 0 10 5 10 10 0 6 -4 10 -10 10 -5 0 -10 -4 -10 -10z"/>
<path d="M1960 2010 c0 -5 5 -10 10 -10 6 0 10 5 10 10 0 6 -4 10 -10 10 -5 0 -10 -4 -10 -10z"/>
<path d="M2060 1930 c0 -5 5 -10 10 -10 6 0 10 5 10 10 0 6 -4 10 -10 10 -5 0 -10 -4 -10 -10z"/>
<path d="M14530 1920 c-13 -8 -13 -11 2 -27 14 -13 20 -15 30 -5 17 17 -11 45 -32 32z"/>
<path d="M3350 1905 c-7 -9 -10 -18 -7 -22 8 -7 37 15 37 28 0 14 -16 11 -30 -6z"/>
<path d="M3540 1910 c0 -5 5 -10 10 -10 6 0 10 5 10 10 0 6 -4 10 -10 10 -5 0 -10 -4 -10 -10z"/>
<path d="M2100 1870 c0 -5 5 -10 10 -10 6 0 10 5 10 10 0 6 -4 10 -10 10 -5 0 -10 -4 -10 -10z"/>
<path d="M3380 1811 c0 -13 29 -35 37 -28 7 8 -15 37 -28 37 -5 0 -9 -4 -9 -9z"/>
<path d="M3420 1750 c0 -5 5 -10 10 -10 6 0 10 5 10 10 0 6 -4 10 -10 10 -5 0 -10 -4 -10 -10z"/>
<path d="M3460 1750 c0 -5 5 -10 10 -10 6 0 10 5 10 10 0 6 -4 10 -10 10 -5 0 -10 -4 -10 -10z"/>
<path d="M12800 1730 c0 -5 5 -10 10 -10 6 0 10 5 10 10 0 6 -4 10 -10 10 -5 0 -10 -4 -10 -10z"/>
<path d="M12960 1730 c0 -5 5 -10 10 -10 6 0 10 5 10 10 0 6 -4 10 -10 10 -5 0 -10 -4 -10 -10z"/>
<path d="M13020 1730 c0 -5 5 -10 10 -10 6 0 10 5 10 10 0 6 -4 10 -10 10 -5 0 -10 -4 -10 -10z"/>
<path d="M2000 1710 c0 -5 5 -10 10 -10 6 0 10 5 10 10 0 6 -4 10 -10 10 -5 0 -10 -4 -10 -10z"/>
<path d="M12484 1699 c-10 -17 13 -36 27 -22 12 12 4 33 -11 33 -5 0 -12 -5 -16 -11z"/>
<path d="M2000 1650 c0 -5 5 -10 10 -10 6 0 10 5 10 10 0 6 -4 10 -10 10 -5 0 -10 -4 -10 -10z"/>
<path d="M4760 1650 c0 -5 5 -10 10 -10 6 0 10 5 10 10 0 6 -4 10 -10 10 -5 0 -10 -4 -10 -10z"/>
<path d="M4840 1650 c0 -5 9 -10 20 -10 11 0 20 5 20 10 0 6 -9 10 -20 10 -11 0 -20 -4 -20 -10z"/>
<path d="M4900 1650 c0 -5 5 -10 10 -10 6 0 10 5 10 10 0 6 -4 10 -10 10 -5 0 -10 -4 -10 -10z"/>
<path d="M4940 1650 c0 -5 5 -10 10 -10 6 0 10 5 10 10 0 6 -4 10 -10 10 -5 0 -10 -4 -10 -10z"/>
<path d="M4980 1650 c0 -5 5 -10 10 -10 6 0 10 5 10 10 0 6 -4 10 -10 10 -5 0 -10 -4 -10 -10z"/>
<path d="M11744 1639 c-10 -17 13 -36 27 -22 12 12 4 33 -11 33 -5 0 -12 -5 -16 -11z"/>
<path d="M1960 1630 c0 -5 5 -10 10 -10 6 0 10 5 10 10 0 6 -4 10 -10 10 -5 0 -10 -4 -10 -10z"/>
<path d="M11600 1610 c0 -5 9 -10 20 -10 11 0 20 5 20 10 0 6 -9 10 -20 10 -11 0 -20 -4 -20 -10z"/>
<path d="M11384 1599 c-10 -17 13 -36 27 -22 12 12 4 33 -11 33 -5 0 -12 -5 -16 -11z"/>
<path d="M5460 1590 c0 -5 5 -10 10 -10 6 0 10 5 10 10 0 6 -4 10 -10 10 -5 0 -10 -4 -10 -10z"/>
<path d="M11460 1590 c0 -5 5 -10 10 -10 6 0 10 5 10 10 0 6 -4 10 -10 10 -5 0 -10 -4 -10 -10z"/>
<path d="M11246 1581 c-14 -21 6 -33 46 -28 41 6 56 13 45 23 -12 12 -85 16 -91 5z"/>
<path d="M5640 1549 c0 -5 5 -9 12 -9 6 0 20 -8 30 -17 14 -13 21 -14 30 -5 9 9 9 15 0 24 -15 15 -72 20 -72 7z"/>
<path d="M11120 1551 c0 -16 25 -28 55 -26 40 3 39 3 25 20 -13 16 -80 21 -80 6z"/>
<path d="M5580 1537 c0 -19 10 -27 26 -20 21 8 17 33 -6 33 -11 0 -20 -6 -20 -13z"/>
<path d="M5380 1532 c0 -5 9 -17 20 -27 l20 -18 20 18 c29 27 25 35 -20 35 -22 0 -40 -4 -40 -8z"/>
<path d="M4780 1470 c0 -5 5 -10 10 -10 6 0 10 5 10 10 0 6 -4 10 -10 10 -5 0 -10 -4 -10 -10z"/>
<path d="M4980 1470 c0 -5 9 -10 20 -10 11 0 20 5 20 10 0 6 -9 10 -20 10 -11 0 -20 -4 -20 -10z"/>
<path d="M4224 1399 c-10 -17 13 -36 27 -22 12 12 4 33 -11 33 -5 0 -12 -5 -16 -11z"/>
<path d="M4170 1390 c0 -5 5 -10 10 -10 6 0 10 5 10 10 0 6 -4 10 -10 10 -5 0 -10 -4 -10 -10z"/>
<path d="M1820 1330 c0 -5 5 -10 10 -10 6 0 10 5 10 10 0 6 -4 10 -10 10 -5 0 -10 -4 -10 -10z"/>
<path d="M1795 1300 c-10 -17 12 -37 25 -24 8 8 6 15 -4 23 -10 9 -16 9 -21 1z"/>
<path d="M3330 1270 c0 -5 11 -10 25 -10 14 0 25 5 25 10 0 6 -11 10 -25 10 -14 0 -25 -4 -25 -10z"/>
<path d="M3160 1230 c0 -5 5 -10 10 -10 6 0 10 5 10 10 0 6 -4 10 -10 10 -5 0 -10 -4 -10 -10z"/>
<path d="M1756 1191 c-21 -23 -20 -28 4 -41 16 -9 18 -8 14 5 -4 8 -1 22 5 29 18 21 -4 28 -23 7z"/>
<path d="M2580 1171 c0 -14 64 -41 74 -31 10 10 -2 32 -14 25 -5 -3 -11 -1 -15 5 -8 12 -45 13 -45 1z"/>
<path d="M2170 1070 c0 -5 7 -10 15 -10 8 0 15 5 15 10 0 6 -7 10 -15 10 -8 0 -15 -4 -15 -10z"/>
<path d="M1940 1052 c0 -12 40 -31 70 -34 17 -2 25 2 25 12 0 9 -9 15 -22 15 -11 0 -25 3 -29 8 -10 10 -44 9 -44 -1z"/>
<path d="M1700 1030 c0 -5 5 -10 10 -10 6 0 10 5 10 10 0 6 -4 10 -10 10 -5 0 -10 -4 -10 -10z"/>
<path d="M14935 1020 c-7 -12 2 -30 16 -30 5 0 9 9 9 20 0 21 -15 27 -25 10z"/>
<path d="M1824 999 c-10 -17 13 -36 27 -22 12 12 4 33 -11 33 -5 0 -12 -5 -16 -11z"/>
<path d="M1664 979 c-10 -17 13 -36 27 -22 12 12 4 33 -11 33 -5 0 -12 -5 -16 -11z"/>
<path d="M1724 979 c-10 -17 13 -36 27 -22 12 12 4 33 -11 33 -5 0 -12 -5 -16 -11z"/>
</g>
</g>
  <g id="id2:id2" transform="matrix(1.25,0,0,1.25,0.0,0.0)"><g transform="translate(0.000000,385.600000) scale(0.040000,-0.040000)" fill="#010101" stroke="none">
<path d="M8726 9118 c-8 -29 -17 -62 -18 -73 -2 -12 -12 -21 -25 -23 -35 -5 -47 -27 -29 -54 18 -28 49 -155 41 -168 -4 -6 -19 -10 -36 -10 -34 0 -71 -33 -63 -55 4 -9 -6 -33 -21 -55 -38 -55 -31 -76 25 -72 28 2 53 -2 65 -11 l19 -15 -37 -41 c-20 -23 -37 -45 -37 -50 0 -13 34 -23 54 -15 46 18 60 -59 25 -136 -30 -66 -56 -90 -98 -90 -46 1 -68 19 -120 100 -51 79 -51 110 -3 124 17 5 32 12 32 16 0 4 -18 21 -41 39 l-40 33 17 19 c9 10 30 19 45 19 41 0 45 17 12 58 -16 20 -36 49 -46 65 -10 15 -26 27 -36 27 -35 0 -44 25 -39 110 l5 79 -25 3 c-26 3 -28 5 -58 75 -30 68 -54 50 -54 -41 0 -27 -7 -47 -22 -63 -19 -20 -20 -25 -6 -40 15 -18 37 -63 57 -116 10 -25 8 -29 -13 -37 -30 -11 -41 -27 -42 -65 -1 -16 -5 -51 -9 -77 -6 -40 -5 -48 8 -48 9 0 19 5 22 10 8 13 52 13 60 -1 4 -5 -1 -26 -10 -46 -20 -42 -11 -57 37 -57 l33 -1 3 -50 c7 -100 -27 -153 -89 -140 -38 9 -89 51 -89 75 0 10 -5 22 -11 26 -7 4 -8 20 -4 41 5 30 2 40 -22 65 l-28 30 23 18 c12 10 22 23 22 30 0 19 -63 96 -93 113 -30 18 -57 71 -57 112 0 27 -73 116 -85 104 -10 -10 28 -115 79 -218 25 -52 46 -100 46 -107 0 -8 25 -63 55 -122 30 -60 55 -114 55 -121 0 -30 44 -93 82 -117 l42 -27 468 0 c530 0 523 -1 575 77 39 59 69 117 77 151 4 16 27 70 51 120 24 49 55 121 69 158 14 38 42 98 61 134 20 36 33 68 31 71 -6 5 -35 -13 -80 -50 -22 -19 -29 -34 -32 -72 -5 -60 -17 -82 -47 -90 -14 -3 -40 -29 -62 -61 l-38 -55 22 -24 23 -25 -21 -27 c-17 -22 -21 -36 -16 -64 5 -30 1 -42 -31 -83 -26 -33 -48 -51 -76 -59 -35 -10 -41 -9 -61 11 -19 18 -22 33 -22 94 l0 72 33 3 c41 4 48 21 27 62 -25 49 -14 64 42 55 l46 -7 -8 39 c-4 21 -8 55 -9 76 -1 28 -8 43 -30 60 l-28 23 31 73 c35 83 37 94 16 111 -11 9 -14 23 -9 46 8 42 -4 94 -21 94 -8 0 -21 -15 -30 -34 -9 -19 -31 -52 -50 -73 -31 -37 -34 -44 -34 -113 0 -40 -4 -77 -8 -81 -4 -4 -21 -9 -38 -11 -21 -2 -31 -9 -33 -23 -2 -11 -17 -37 -34 -58 -35 -44 -32 -62 11 -70 44 -9 51 -35 18 -63 -34 -29 -34 -48 -1 -63 22 -10 25 -15 19 -44 -9 -43 -52 -116 -88 -149 -40 -38 -97 -39 -126 -2 -31 40 -53 106 -49 155 l3 44 37 0 c20 0 39 3 43 7 4 4 -9 28 -30 55 -34 45 -35 48 -18 61 10 8 37 12 63 10 40 -3 45 -1 48 20 2 12 -6 34 -17 48 -12 15 -21 36 -21 48 0 36 -28 66 -61 66 -16 0 -32 6 -35 13 -3 8 2 45 11 83 30 128 29 122 5 126 -18 2 -26 14 -37 58 -28 111 -62 129 -87 48z"/>
<path d="M7130 7743 c-175 -12 -315 -35 -420 -68 -25 -8 -90 -26 -145 -40 -164 -43 -368 -164 -529 -314 -56 -52 -216 -270 -216 -294 0 -3 -13 -28 -28 -54 -31 -53 -99 -238 -131 -353 -39 -145 -53 -282 -58 -590 -9 -523 37 -793 193 -1115 85 -178 200 -324 349 -444 177 -143 397 -242 630 -285 176 -32 277 -40 520 -40 386 0 573 30 835 131 139 54 260 128 387 238 145 124 296 344 348 505 10 30 26 71 36 91 24 48 44 129 75 305 23 130 27 185 31 431 5 284 -2 420 -33 603 -20 118 -53 258 -71 300 -8 19 -28 71 -44 114 -34 92 -121 251 -181 328 -106 137 -244 255 -413 353 -106 61 -259 113 -470 159 -163 36 -463 54 -665 39z m279 -828 c65 -23 110 -63 143 -129 l31 -61 7 -170 c4 -93 8 -442 8 -775 2 -689 5 -667 -77 -750 -52 -54 -102 -70 -220 -70 -172 0 -245 65 -270 242 -9 64 -19 664 -22 1308 l-1 205 27 57 c31 67 93 126 151 144 55 17 174 17 223 -1z"/>
<path d="M10259 7660 c-188 -23 -314 -48 -361 -71 -21 -11 -42 -19 -48 -19 -26 0 -201 -91 -256 -132 -92 -71 -188 -178 -226 -253 -18 -37 -41 -81 -50 -98 -51 -97 -94 -388 -83 -567 16 -268 84 -438 240 -602 68 -71 178 -164 223 -188 16 -9 43 -28 60 -42 17 -14 120 -69 229 -123 109 -54 228 -113 264 -131 37 -19 72 -34 78 -34 6 0 70 -28 143 -62 134 -64 204 -110 234 -157 37 -55 7 -163 -52 -190 -60 -27 -164 -34 -258 -18 -76 13 -94 21 -122 48 -38 37 -63 94 -68 157 -2 24 -8 48 -13 53 -5 5 -117 14 -249 19 -131 6 -293 15 -359 20 -246 21 -349 23 -367 9 -14 -12 -18 -55 -28 -319 -6 -168 -15 -361 -19 -430 -9 -143 -7 -149 69 -182 46 -21 264 -96 355 -123 50 -15 194 -47 295 -66 30 -5 96 -19 145 -29 180 -39 305 -51 563 -56 323 -7 539 12 682 60 25 8 82 26 128 41 98 30 274 127 346 191 53 46 128 132 170 195 37 54 114 238 130 310 42 184 45 488 6 648 -37 153 -153 339 -290 467 -111 104 -389 273 -517 315 -21 6 -74 29 -118 49 -44 21 -120 52 -169 69 -49 18 -126 49 -170 70 -45 21 -90 41 -102 45 -11 3 -32 18 -45 32 -32 34 -34 121 -3 155 91 103 357 87 436 -26 19 -28 27 -53 28 -81 0 -23 6 -46 13 -52 21 -17 922 -61 938 -45 4 4 13 118 19 253 6 135 15 313 20 395 8 134 7 152 -8 169 -19 20 -253 136 -336 165 -29 10 -98 31 -152 46 -55 14 -118 33 -140 41 -72 26 -205 45 -499 74 -246 25 -503 24 -706 0z"/>
<path d="M3965 7559 c-38 -4 -131 -12 -205 -18 -74 -6 -211 -18 -305 -26 -93 -9 -222 -20 -285 -25 -63 -4 -169 -15 -235 -23 -148 -19 -418 -43 -630 -57 -88 -6 -194 -15 -235 -20 -41 -5 -103 -12 -136 -16 -34 -3 -67 -9 -73 -13 -12 -8 14 -335 55 -698 6 -51 20 -57 94 -43 75 14 170 13 175 -2 2 -7 8 -71 14 -143 12 -154 36 -401 56 -575 14 -118 31 -319 55 -630 5 -74 17 -198 25 -275 30 -282 32 -310 22 -322 -6 -8 -37 -13 -86 -13 -71 -1 -156 -12 -166 -22 -5 -5 21 -297 34 -383 5 -33 15 -123 21 -200 7 -77 16 -145 20 -150 9 -11 45 -9 250 15 92 11 309 29 650 55 118 9 262 23 320 31 113 16 158 20 580 53 320 25 491 46 575 71 33 10 83 23 110 30 139 32 179 46 280 97 114 57 235 141 294 203 18 19 62 79 97 132 75 113 100 193 110 353 8 119 -17 340 -47 421 -40 107 -155 252 -259 329 -95 70 -303 138 -460 151 -44 4 -83 10 -85 14 -8 13 29 37 116 75 240 104 453 363 490 598 15 99 6 330 -16 418 -18 70 -82 205 -123 259 -58 78 -169 177 -228 204 -32 15 -80 39 -106 52 -153 78 -512 122 -763 93z m-140 -810 c102 -51 142 -184 134 -437 -4 -100 -6 -112 -31 -144 -45 -60 -87 -79 -191 -89 -50 -4 -117 -11 -148 -15 -36 -4 -59 -3 -63 4 -3 6 -13 77 -22 159 -8 81 -24 228 -35 327 -11 98 -17 181 -14 185 11 11 218 39 270 37 29 -1 71 -13 100 -27z m160 -1235 c67 -39 89 -93 109 -267 27 -228 18 -308 -40 -368 -48 -50 -185 -80 -374 -83 l-45 -1 -12 145 c-7 80 -20 208 -29 285 -28 238 -31 280 -25 287 10 11 252 37 312 34 40 -3 71 -12 104 -32z"/>
<path d="M13395 7451 c-247 -25 -356 -52 -515 -129 -111 -54 -175 -99 -246 -173 -103 -109 -141 -174 -201 -338 -43 -118 -63 -256 -63 -431 0 -204 18 -305 75 -425 55 -115 104 -182 207 -281 183 -177 274 -233 839 -521 190 -96 257 -145 289 -208 16 -34 18 -47 9 -77 -14 -52 -51 -92 -97 -106 -52 -16 -183 -15 -253 2 -109 26 -149 77 -154 192 -2 42 -6 78 -9 81 -3 4 -54 10 -113 14 -60 4 -146 13 -193 18 -118 15 -529 45 -620 45 l-75 1 -2 -55 c-1 -50 -11 -168 -43 -536 -6 -67 -17 -157 -24 -199 l-14 -78 25 -23 c14 -13 46 -31 71 -40 26 -9 83 -34 127 -55 44 -21 134 -53 200 -72 66 -19 134 -42 150 -51 17 -9 38 -16 47 -16 9 0 43 -6 75 -14 32 -8 117 -26 188 -41 72 -14 166 -35 210 -45 44 -10 114 -21 155 -24 596 -41 774 -27 1078 84 262 95 480 310 557 550 10 30 23 66 30 80 27 53 56 270 56 419 1 153 -24 315 -55 363 -8 13 -23 43 -32 68 -34 86 -126 213 -218 300 -58 56 -111 98 -219 175 -65 47 -420 227 -567 288 -139 57 -267 125 -289 153 -28 36 -29 112 -1 146 35 45 78 58 190 58 88 0 109 -3 158 -26 95 -43 100 -50 128 -200 3 -19 14 -21 161 -33 318 -25 507 -42 572 -51 94 -13 190 -15 201 -4 5 5 12 43 15 84 3 41 12 125 21 185 8 61 21 191 29 290 9 99 18 194 21 210 l5 30 -123 72 c-149 86 -323 160 -478 203 -63 17 -133 37 -155 45 -165 54 -495 94 -825 100 -124 2 -261 0 -305 -4z"/>
<path d="M7750 3869 c-586 -8 -1085 -23 -1300 -39 -69 -6 -233 -17 -365 -25 -792 -48 -1086 -71 -1295 -100 -58 -8 -157 -19 -220 -25 -358 -30 -734 -71 -865 -95 -44 -8 -123 -19 -175 -25 -88 -9 -170 -19 -313 -36 -37 -4 -61 -12 -64 -21 -8 -21 21 -162 69 -338 22 -82 53 -208 68 -280 16 -71 44 -184 63 -250 19 -66 45 -169 57 -229 12 -60 28 -127 36 -150 16 -44 58 -215 70 -281 13 -75 17 -78 92 -70 37 4 103 13 147 21 44 8 202 27 350 44 149 16 320 36 380 45 282 38 430 53 930 90 110 8 261 22 335 30 435 48 1701 95 2574 96 835 0 2159 -49 2586 -96 74 -8 223 -22 330 -30 107 -7 258 -19 335 -25 147 -12 582 -58 601 -65 6 -2 139 -17 295 -34 156 -17 340 -40 409 -51 69 -11 151 -22 182 -26 l58 -6 11 28 c6 16 22 79 35 139 13 61 32 142 42 180 55 200 71 265 82 320 6 33 27 114 45 180 18 66 43 167 55 225 12 58 37 157 55 220 50 171 77 301 65 315 -5 6 -56 17 -112 24 -57 7 -134 16 -173 21 -38 5 -101 12 -140 16 -38 3 -99 12 -135 19 -36 7 -110 18 -165 24 -55 6 -136 16 -180 21 -76 10 -199 22 -560 55 -88 9 -185 20 -215 25 -103 18 -547 52 -1250 95 -129 8 -298 19 -375 25 -252 18 -642 30 -1186 35 -293 3 -572 7 -619 8 -47 2 -339 0 -650 -4z m-1199 -270 c23 -44 -35 -162 -218 -445 -18 -29 -37 -64 -43 -78 -5 -15 -26 -51 -45 -81 -61 -95 -46 -99 50 -14 38 34 92 79 119 101 28 21 67 54 88 72 45 40 156 96 191 96 17 0 32 -9 42 -24 20 -31 14 -46 -90 -226 -87 -152 -119 -218 -129 -273 -15 -81 18 -98 95 -48 82 53 205 209 243 309 14 37 50 103 79 147 42 64 62 85 100 104 l47 23 35 -26 35 -27 -27 -42 c-14 -23 -32 -51 -40 -62 -115 -168 -201 -331 -210 -395 -4 -28 0 -40 19 -57 l23 -21 62 28 c48 22 88 54 181 147 65 65 122 128 126 140 4 12 22 31 40 43 19 11 41 32 51 46 19 29 140 159 318 342 l119 122 44 0 c38 0 46 -4 54 -25 11 -30 6 -46 -37 -108 -40 -59 -47 -84 -72 -257 -11 -74 -27 -173 -36 -219 -21 -100 -13 -111 50 -79 22 11 54 27 70 36 39 19 83 61 153 145 56 67 78 80 88 52 9 -21 -74 -131 -142 -191 -68 -58 -95 -74 -182 -104 -34 -13 -79 -36 -99 -51 -40 -33 -82 -46 -169 -55 -50 -5 -67 -3 -102 15 -44 23 -58 39 -100 122 -15 29 -33 55 -40 57 -7 2 -50 -33 -95 -78 -45 -45 -100 -95 -123 -111 -52 -35 -139 -69 -180 -69 -60 0 -118 72 -116 142 1 21 -2 38 -7 38 -5 0 -21 -17 -36 -37 -31 -42 -38 -48 -114 -110 -46 -37 -59 -43 -100 -43 -39 0 -52 5 -76 30 -25 26 -29 39 -33 108 -5 95 12 161 69 268 36 69 49 114 32 114 -14 0 -136 -113 -217 -200 -79 -84 -168 -211 -228 -322 -36 -68 -55 -82 -92 -68 -20 7 -26 17 -26 39 0 16 -4 33 -10 36 -5 3 -36 -11 -67 -31 -136 -87 -207 -113 -315 -114 -39 0 -54 5 -80 29 l-33 29 -3 94 -4 93 48 135 c26 74 47 149 48 165 1 28 -2 30 -39 35 -35 4 -40 8 -43 33 -4 33 22 67 51 67 10 0 43 7 73 16 50 14 58 20 82 66 42 77 90 137 116 144 14 3 38 -2 56 -11 30 -15 32 -20 26 -53 -3 -20 -15 -49 -27 -65 -14 -20 -18 -32 -11 -39 12 -12 390 28 408 43 6 5 34 53 61 106 95 183 189 303 239 303 7 0 18 -10 25 -21z m730 -135 c46 -41 3 -124 -64 -124 -20 0 -46 9 -61 21 -23 18 -27 28 -24 62 2 32 9 44 28 55 32 16 96 9 121 -14z m3748 -8 c22 -27 2 -84 -50 -140 -54 -59 -58 -70 -30 -86 31 -16 62 -12 118 16 58 30 95 27 113 -6 17 -32 5 -53 -97 -162 -112 -121 -166 -199 -188 -274 -17 -59 -14 -73 28 -113 33 -30 63 -26 174 21 81 35 185 107 283 194 48 44 80 52 80 22 0 -21 -141 -150 -225 -206 -86 -57 -210 -102 -283 -102 -54 0 -114 30 -130 65 -21 45 -15 165 12 244 27 79 63 146 95 175 30 27 26 39 -20 69 -52 34 -61 34 -83 -4 -27 -45 -370 -388 -438 -438 -70 -51 -142 -70 -188 -51 -42 17 -80 75 -80 121 0 20 -7 42 -15 49 -11 10 -20 5 -46 -25 -45 -50 -145 -126 -188 -141 -20 -7 -50 -13 -67 -14 -60 0 -144 81 -144 141 0 16 -2 29 -5 29 -3 0 -31 -19 -62 -43 -141 -104 -204 -131 -311 -131 -65 1 -76 4 -109 30 -20 17 -46 47 -57 68 -18 35 -18 44 -7 100 24 115 112 241 257 367 47 41 85 64 141 84 143 52 215 32 221 -60 5 -72 -19 -115 -101 -180 -39 -31 -86 -64 -106 -74 -61 -31 -187 -71 -223 -71 -56 0 -71 -19 -76 -93 -4 -61 -2 -68 23 -93 24 -24 32 -26 81 -21 30 3 78 17 107 30 82 39 236 174 295 261 29 41 96 115 150 166 80 75 115 100 201 142 80 40 118 53 162 56 82 6 105 -2 134 -48 16 -26 33 -40 46 -40 33 0 59 -19 59 -44 0 -21 -121 -207 -170 -261 -30 -33 -90 -162 -90 -193 0 -16 9 -37 19 -46 l20 -18 53 25 c39 18 85 57 174 148 67 68 134 136 150 151 16 16 45 43 64 61 61 58 120 140 161 225 49 102 76 132 122 132 19 0 40 -6 46 -14z m-2220 -168 c12 -31 3 -45 -92 -151 -137 -150 -219 -250 -233 -284 -16 -38 -18 -79 -4 -88 43 -26 460 298 586 456 42 53 63 71 95 81 83 24 102 -29 42 -121 -87 -133 -121 -189 -176 -290 -31 -58 -67 -126 -78 -151 -24 -51 -73 -134 -135 -230 -45 -70 -151 -178 -199 -202 -49 -25 -169 -42 -208 -29 -55 18 -107 84 -107 135 0 39 14 38 56 -5 76 -78 131 -88 207 -38 53 35 151 138 174 184 9 17 32 55 53 85 20 30 51 91 70 135 19 44 40 89 46 100 20 32 46 114 39 125 -7 11 -52 -19 -126 -85 -96 -84 -178 -145 -220 -163 -137 -61 -154 -63 -202 -18 -41 38 -38 116 8 212 19 40 46 85 58 101 13 15 42 55 64 88 42 61 121 143 158 163 11 6 42 12 68 12 40 0 49 -3 56 -22z m-4122 -372 c35 -31 37 -38 37 -91 0 -55 -2 -60 -38 -91 -55 -48 -97 -53 -145 -20 -62 43 -77 104 -45 172 20 43 56 63 112 64 34 0 49 -6 79 -34z m7448 0 c57 -61 52 -143 -12 -192 -47 -36 -96 -38 -141 -5 -38 26 -52 56 -52 107 0 75 49 124 124 124 43 0 53 -4 81 -34z"/>
<path d="M7614 3208 c-128 -133 -212 -241 -220 -285 -15 -78 65 -163 154 -163 48 0 87 28 108 78 55 132 94 462 54 462 -4 0 -47 -42 -96 -92z"/>
<path d="M6135 3153 c-16 -9 -46 -20 -65 -24 -158 -33 -340 -87 -363 -107 -26 -23 -72 -106 -102 -187 -15 -38 -37 -97 -50 -130 -13 -33 -26 -86 -30 -117 l-7 -57 33 -21 c66 -41 183 -2 319 108 98 78 162 161 210 270 21 48 57 124 80 170 53 106 46 134 -25 95z"/>
<path d="M10177 3247 c-151 -81 -339 -257 -395 -369 -35 -70 -36 -94 -4 -131 18 -20 65 -17 108 6 53 28 202 179 307 310 182 228 182 227 104 227 -30 0 -64 -12 -120 -43z"/>
<path d="M9564 3247 c-33 -18 -79 -48 -103 -67 -57 -46 -161 -167 -161 -187 0 -37 149 24 255 105 51 38 118 135 113 162 -5 25 -40 21 -104 -13z"/>
<path d="M3020 2914 c-36 -7 -126 -20 -200 -29 -74 -8 -160 -20 -190 -25 -119 -20 -168 -29 -230 -44 -36 -8 -108 -20 -160 -26 -119 -15 -391 -65 -490 -90 -41 -11 -109 -24 -150 -30 -189 -26 -229 -33 -291 -51 -36 -10 -76 -19 -87 -19 -30 0 -132 -40 -132 -51 0 -6 17 -17 37 -26 21 -8 58 -29 82 -47 25 -17 68 -44 97 -61 50 -29 84 -51 262 -166 48 -31 130 -84 182 -118 52 -33 127 -83 165 -110 39 -26 81 -54 95 -61 41 -21 70 -52 70 -77 0 -13 -24 -69 -53 -126 -30 -56 -60 -119 -67 -141 -7 -21 -29 -68 -50 -105 -20 -36 -45 -88 -55 -116 -9 -27 -39 -93 -65 -145 -26 -52 -55 -120 -65 -150 -10 -30 -27 -66 -37 -81 -11 -15 -16 -32 -12 -42 5 -15 14 -17 53 -12 98 14 244 43 446 90 33 8 87 17 120 21 70 7 231 36 360 63 120 26 256 49 335 56 60 6 112 14 390 65 117 21 298 46 405 55 39 3 126 15 195 25 289 44 415 60 585 76 334 30 368 33 464 48 53 8 153 19 222 25 69 7 141 16 160 21 19 6 87 10 151 10 119 0 218 14 218 31 0 5 -25 9 -56 9 -30 0 -117 9 -192 20 -344 50 -570 77 -767 90 -88 6 -243 19 -345 30 -362 38 -508 50 -744 62 -272 13 -253 6 -282 114 -9 32 -23 79 -30 104 -14 47 -25 87 -73 280 -16 63 -40 156 -54 205 -13 50 -28 108 -31 130 -8 42 -32 132 -68 250 -19 63 -33 86 -48 84 -3 -1 -34 -7 -70 -15z"/>
<path d="M13538 2813 c-15 -48 -39 -140 -53 -203 -14 -63 -39 -158 -55 -210 -16 -52 -43 -153 -60 -225 -17 -71 -48 -193 -69 -270 l-38 -140 -54 -7 c-30 -3 -171 -14 -314 -23 -143 -8 -287 -20 -320 -25 -33 -5 -125 -14 -205 -20 -394 -27 -793 -68 -1023 -104 -51 -8 -131 -18 -179 -21 -49 -4 -88 -11 -88 -14 0 -11 139 -30 265 -36 61 -4 137 -10 170 -15 66 -11 485 -58 840 -95 127 -14 248 -29 270 -34 41 -10 161 -27 435 -61 212 -27 278 -37 395 -60 55 -11 191 -33 303 -50 112 -16 269 -43 350 -59 81 -17 206 -40 277 -51 72 -12 209 -38 305 -60 96 -21 193 -40 215 -42 l40 -3 -1 33 c-1 18 -27 85 -58 150 -31 65 -56 121 -56 126 0 5 -18 45 -39 90 -106 220 -221 467 -221 473 0 3 -7 14 -15 23 -13 15 -13 19 9 39 13 12 53 41 88 64 36 23 91 60 124 81 194 128 347 228 402 262 34 21 99 63 145 92 45 29 106 66 135 83 28 17 52 36 52 42 0 22 -301 91 -587 136 -73 12 -143 25 -157 30 -22 9 -164 34 -521 91 -71 11 -143 25 -160 30 -26 8 -296 46 -465 65 l-55 7 -27 -89z"/>
</g>
</g>
</svg>
