<?xml version="1.0" standalone="no"?>
<!DOCTYPE svg PUBLIC "-//W3C//DTD SVG 1.1//EN"
 "http://www.w3.org/Graphics/SVG/1.1/DTD/svg11.dtd">
<!-- Created with svg_stack (http://github.com/astraw/svg_stack) -->
<svg xmlns:sodipodi="http://sodipodi.sourceforge.net/DTD/sodipodi-0.dtd" xmlns="http://www.w3.org/2000/svg" version="1.1" width="4136.0" height="2506.0">
  <defs/>
  <g id="id0:id0" transform="matrix(1.25,0,0,1.25,0.0,0.0)"><g transform="translate(0.000000,2004.800000) scale(0.040000,-0.040000)" fill="#000000" stroke="none">
<path d="M5292 49738 c3 -423 3 -422 67 -465 18 -13 48 -26 65 -31 17 -5 228 -6 469 -3 288 4 441 3 445 -4 10 -14 14 -6534 5 -6633 l-8 -82 -3167 0 -3168 0 0 -765 0 -765 3138 -2 c1725 -1 3153 -2 3172 -2 l35 -1 0 -14010 c0 -8049 -4 -14040 -9 -14081 -11 -88 7 -195 38 -230 11 -13 68 -44 126 -68 139 -58 310 -132 445 -194 61 -27 200 -89 310 -137 110 -48 237 -105 283 -126 46 -22 89 -39 96 -39 36 0 36 0 36 -1029 0 -1038 1 -1058 39 -1130 7 -13 32 -32 56 -42 l43 -19 724 0 723 1 6 -23 c4 -13 7 -1815 8 -4005 1 -2393 5 -3991 10 -4006 46 -121 318 -134 386 -17 l20 35 5 4005 5 4005 725 5 c685 5 727 6 769 24 51 22 77 69 86 157 4 30 7 495 8 1034 l2 979 25 13 c54 28 263 124 430 198 96 43 180 81 185 85 6 4 39 20 75 35 36 15 95 42 132 60 36 18 77 36 90 40 13 4 57 24 99 45 42 21 100 45 130 55 92 30 105 40 129 100 21 52 22 66 17 177 -4 66 -7 6414 -7 14107 l0 13986 37 7 c21 4 1457 7 3191 7 2765 1 3156 3 3181 16 17 8 39 34 52 62 l24 48 0 630 c0 592 -1 633 -19 679 -16 41 -26 52 -65 70 l-46 21 -3175 5 -3175 5 0 3355 0 3355 470 0 c420 1 473 3 501 18 43 23 84 73 85 105 1 26 0 708 -1 745 l0 17 -4180 0 -4181 0 3 -382z m7933 8 l0 -78 -385 3 c-212 2 -457 4 -545 4 -163 -1 -5355 -1 -5655 0 -91 0 -335 -2 -544 -3 l-378 -3 0 73 0 73 33 6 c19 4 1708 6 3754 5 l3720 -1 0 -79z m-1227 -3860 c1 -1843 -2 -3354 -6 -3358 -4 -4 -1144 -8 -2532 -8 l-2525 0 -3 3347 c-1 1842 0 3354 3 3361 3 10 515 12 2532 10 l2528 -3 3 -3349z m6507 -4131 l0 -190 -9025 0 -9025 0 -3 180 c-1 98 0 185 2 192 4 11 1683 13 9028 11 l9023 -3 0 -190z m-6517 -773 c10 -7 12 -2802 12 -13967 0 -7678 -4 -13963 -8 -13967 -4 -4 -1144 -8 -2532 -8 l-2525 0 0 880 0 880 1258 0 c940 0 1269 3 1298 12 57 16 84 47 104 113 15 54 15 61 0 101 -17 46 -75 104 -103 104 -9 0 -588 1 -1287 3 l-1270 2 0 905 0 905 1265 2 c696 1 1279 5 1297 8 39 7 88 61 102 112 8 28 7 49 -5 89 -17 61 -52 100 -103 114 -36 11 -2509 11 -2541 0 -13 -4 -15 106 -15 955 0 849 2 959 15 955 8 -3 569 -6 1245 -8 884 -2 1245 0 1282 8 60 13 91 43 118 115 17 43 17 47 0 90 -24 65 -58 100 -107 114 -32 9 -355 11 -1283 9 -682 -2 -1247 -5 -1255 -8 -13 -4 -15 104 -15 940 0 836 2 944 15 940 8 -3 569 -6 1245 -8 884 -2 1245 0 1282 8 60 13 91 43 118 115 17 43 17 47 0 90 -24 65 -58 100 -107 114 -32 9 -355 11 -1283 9 -682 -2 -1247 -5 -1255 -8 -13 -4 -15 102 -15 920 l0 925 1275 0 c1454 0 1318 -9 1365 91 24 52 26 60 15 102 -19 76 -36 99 -87 119 l-48 18 -1245 0 c-685 0 -1252 -2 -1260 -5 -13 -4 -15 108 -15 975 l0 980 1275 0 c921 1 1282 4 1301 12 35 15 76 66 88 110 8 28 7 50 -5 91 -18 62 -50 97 -103 112 -36 11 -2509 11 -2541 0 -13 -4 -15 100 -15 898 l0 903 1270 -1 1270 0 45 22 c112 57 118 229 10 293 l-35 20 -1280 2 -1280 3 0 950 0 951 1270 -1 1270 0 45 22 c53 27 79 68 86 135 7 62 -25 128 -76 158 l-35 20 -1280 2 -1280 3 0 930 0 931 1270 -1 1270 0 45 22 c112 57 118 229 10 293 l-35 20 -1280 2 -1280 3 0 915 0 915 1240 0 1239 0 62 20 c35 12 68 28 75 36 6 8 17 39 25 70 11 47 10 62 -3 102 -20 59 -47 90 -87 97 -17 3 -598 7 -1291 8 l-1260 2 -3 3035 c-1 1669 0 3041 3 3047 3 10 530 13 2522 13 1385 0 2524 -4 2531 -8z m-604 -28382 c8 -8 -47 -36 -244 -126 l-85 -39 -1562 -3 -1562 -2 -53 20 c-104 40 -301 135 -299 145 1 9 3571 25 3731 16 36 -2 69 -7 74 -11z m-542 -608 c4 -4 8 -384 8 -845 l0 -837 -1377 0 -1378 -1 0 833 c0 458 3 840 6 848 6 13 166 15 1370 12 750 -1 1367 -6 1371 -10z"/>
<path d="M9965 36480 c-27 -10 -38 -26 -58 -80 -38 -108 -41 -150 -18 -241 12 -46 30 -101 40 -121 l18 -37 -27 -58 c-15 -32 -33 -85 -40 -119 -11 -55 -10 -70 10 -145 12 -46 29 -100 38 -119 33 -70 142 -159 226 -185 33 -10 4 -24 -92 -45 -205 -43 -293 -118 -336 -286 -13 -50 -13 -68 -2 -119 7 -33 22 -81 33 -107 26 -56 101 -131 166 -164 26 -14 45 -29 42 -34 -3 -6 -32 -10 -63 -10 -124 0 -199 -77 -188 -190 6 -54 70 -203 105 -244 24 -28 86 -56 123 -56 74 0 151 55 160 115 l3 20 235 3 c273 4 279 5 323 91 33 66 34 112 5 171 -30 58 -72 82 -159 88 -38 2 -72 8 -75 13 -2 5 19 20 48 35 28 14 76 51 105 80 41 43 57 68 73 122 27 85 27 139 0 225 -15 49 -34 82 -63 114 -46 50 -155 110 -232 128 -27 6 -49 16 -48 21 2 5 35 17 74 27 39 10 88 29 107 42 20 14 42 25 48 25 13 0 54 42 54 56 0 6 11 25 24 43 13 18 34 73 47 123 l22 91 -22 94 c-13 51 -31 103 -42 117 -23 30 -23 32 0 62 10 13 29 65 41 115 l23 92 -18 75 c-33 142 -56 172 -134 180 -66 6 -93 -2 -136 -40 -49 -42 -68 -90 -55 -137 14 -49 13 -97 -2 -108 -40 -32 -133 -19 -147 19 -4 11 -2 43 5 69 20 76 -14 146 -88 185 -29 15 -120 18 -153 4z m385 -660 c14 -22 12 -86 -2 -98 -25 -20 -75 -23 -112 -8 -41 17 -48 43 -26 100 7 19 15 22 70 21 42 -1 64 -5 70 -15z m-136 -471 c-3 -5 -10 -7 -15 -3 -5 3 -7 10 -3 15 3 5 10 7 15 3 5 -3 7 -10 3 -15z m81 -379 c0 -12 -18 -16 -91 -18 -92 -3 -151 9 -139 28 4 7 49 10 118 8 92 -2 112 -6 112 -18z"/>
<path d="M7590 34434 c-107 -35 -117 -45 -141 -137 -10 -43 -9 -51 16 -102 17 -35 37 -61 55 -70 25 -13 159 -15 984 -15 525 -1 967 2 983 6 58 14 86 65 85 159 -1 74 -21 108 -84 139 l-52 26 -915 -1 c-504 0 -923 -3 -931 -5z"/>
<path d="M8465 34010 c-750 -4 -935 -8 -953 -18 -13 -8 -35 -38 -49 -69 -23 -50 -24 -58 -13 -101 21 -76 36 -98 82 -118 l43 -19 927 -3 927 -2 55 24 c67 30 89 66 89 146 -1 109 -38 152 -138 162 -22 2 -458 1 -970 -2z"/>
<path d="M7559 33594 c-83 -26 -127 -94 -115 -178 11 -74 37 -102 112 -125 l66 -21 897 0 c604 0 909 4 934 11 162 45 162 273 0 318 -25 7 -339 11 -943 10 -752 -1 -913 -3 -951 -15z"/>
<path d="M7514 33151 c-19 -12 -39 -38 -53 -71 -21 -48 -22 -57 -10 -99 20 -75 35 -97 81 -117 l43 -19 927 -3 927 -2 55 24 c39 17 59 34 72 58 21 41 22 130 0 181 -29 70 25 67 -1048 67 l-963 0 -31 -19z"/>
<path d="M7543 32249 c-54 -26 -64 -35 -73 -67 -27 -98 4 -199 69 -223 18 -7 1115 -12 1923 -9 51 0 90 35 111 102 15 47 15 59 2 107 -17 65 -25 74 -93 100 l-53 21 -912 0 -912 -1 -62 -30z"/>
<path d="M8468 31850 l-938 -5 -24 -25 c-39 -40 -56 -114 -41 -178 15 -63 23 -72 92 -100 l52 -22 907 0 907 0 58 21 c70 26 76 32 95 101 12 47 12 59 -2 103 -26 81 -51 99 -149 108 -11 1 -442 0 -957 -3z"/>
<path d="M7543 31409 c-54 -26 -64 -35 -73 -67 -27 -99 3 -197 70 -225 26 -11 1805 -20 1909 -9 69 7 102 34 124 104 15 47 15 59 2 106 -18 68 -24 75 -94 101 l-58 21 -909 0 -909 -1 -62 -30z"/>
<path d="M7576 30995 c-84 -30 -120 -77 -120 -155 0 -81 46 -136 133 -160 23 -6 365 -10 941 -10 l905 0 50 24 c61 28 79 48 96 104 10 34 10 50 0 85 -16 51 -34 73 -86 101 l-40 21 -920 2 c-772 2 -926 0 -959 -12z"/>
<path d="M10305 30616 c-27 -7 -73 -25 -101 -40 l-51 -27 -52 17 c-72 23 -165 15 -224 -19 -86 -51 -136 -130 -158 -252 -11 -58 -10 -70 11 -132 29 -89 66 -147 115 -181 90 -64 189 -81 272 -47 l42 17 76 -38 c95 -47 162 -50 245 -12 108 49 163 126 195 272 l17 78 -22 87 c-12 47 -32 102 -44 121 -13 19 -30 47 -39 61 -18 29 -113 83 -167 94 -19 3 -42 8 -50 10 -8 2 -37 -3 -65 -9z"/>
<path d="M7543 30049 c-54 -26 -64 -35 -73 -67 -27 -98 4 -199 68 -223 17 -7 1487 -14 1924 -9 51 0 90 36 111 102 15 47 15 59 2 107 -17 65 -25 74 -93 100 l-53 21 -912 0 -912 -1 -62 -30z"/>
<path d="M7535 29641 c-58 -24 -89 -114 -70 -199 15 -63 23 -72 92 -100 l52 -22 907 0 907 0 58 21 c71 26 78 34 94 104 16 66 -1 138 -41 176 l-26 24 -976 2 c-537 1 -986 -2 -997 -6z"/>
<path d="M7543 29209 c-54 -26 -64 -35 -73 -67 -27 -99 3 -197 70 -225 26 -11 1805 -20 1909 -9 69 7 102 34 124 104 15 47 15 59 2 106 -18 68 -24 75 -94 101 l-58 21 -909 0 -909 -1 -62 -30z"/>
<path d="M7576 28795 c-84 -30 -120 -77 -120 -155 0 -81 46 -136 133 -160 23 -6 365 -10 941 -10 l905 0 50 24 c61 28 79 48 96 104 10 34 10 50 0 85 -16 51 -34 73 -86 101 l-40 21 -920 2 c-772 2 -926 0 -959 -12z"/>
<path d="M7543 27809 c-54 -26 -64 -35 -73 -67 -27 -98 4 -199 69 -223 18 -7 1115 -12 1923 -9 51 0 90 35 111 102 15 47 15 59 2 107 -17 65 -25 74 -93 100 l-53 21 -912 0 -912 -1 -62 -30z"/>
<path d="M8468 27410 l-938 -5 -24 -25 c-39 -40 -56 -114 -41 -178 15 -63 23 -72 92 -100 l52 -22 907 0 907 0 58 21 c70 26 76 32 95 101 12 47 12 59 -2 103 -26 81 -51 99 -149 108 -11 1 -442 0 -957 -3z"/>
<path d="M7543 26969 c-54 -26 -64 -35 -73 -67 -27 -99 3 -197 70 -225 26 -11 1805 -20 1909 -9 69 7 102 34 124 104 15 47 15 59 2 106 -18 68 -24 75 -94 101 l-58 21 -909 0 -909 -1 -62 -30z"/>
<path d="M7590 26561 c-39 -12 -84 -37 -102 -57 -28 -32 -40 -98 -27 -146 14 -55 33 -75 94 -104 l50 -24 915 0 915 0 45 21 c64 29 87 54 100 110 20 81 -8 141 -85 183 l-40 21 -920 2 c-506 1 -931 -2 -945 -6z"/>
<path d="M10205 26287 c-50 -17 -112 -56 -152 -96 l-31 -31 -16 24 c-15 24 -91 56 -133 56 -43 0 -111 -42 -129 -79 -29 -61 -29 -112 1 -222 55 -198 167 -309 365 -359 129 -32 158 -33 255 -11 175 42 262 124 304 288 19 75 20 87 7 140 -31 134 -96 220 -203 270 -69 32 -202 42 -268 20z m150 -347 c9 -15 -44 -45 -57 -32 -17 17 -1 42 26 42 14 0 27 -4 31 -10z"/>
<path d="M7567 25695 c-65 -18 -84 -37 -98 -101 -14 -63 0 -151 29 -177 9 -8 44 -22 77 -31 85 -22 1797 -24 1889 -2 72 17 92 36 110 104 11 44 11 60 0 104 -18 66 -37 85 -105 103 -77 21 -1828 20 -1902 0z"/>
<path d="M7555 25266 c-61 -29 -80 -49 -94 -103 -9 -32 -9 -54 0 -85 14 -55 33 -75 94 -104 l50 -24 915 0 915 0 50 24 c61 28 79 48 96 104 10 34 10 50 0 85 -16 51 -34 73 -86 101 l-40 21 -925 3 -925 2 -50 -24z"/>
<path d="M7562 24851 c-30 -9 -62 -26 -72 -38 -39 -48 -33 -199 8 -236 9 -9 44 -22 77 -31 52 -13 179 -15 945 -16 770 0 893 2 945 15 74 19 91 36 109 103 11 44 11 60 0 104 -8 29 -22 60 -32 70 -46 46 -74 47 -1029 47 -803 -1 -904 -3 -951 -18z"/>
<path d="M7550 24415 c-65 -27 -80 -46 -87 -118 -9 -86 22 -158 76 -178 18 -8 796 -11 1923 -9 51 0 90 35 111 102 15 47 15 59 2 107 -17 65 -25 74 -93 100 l-53 21 -912 -1 -912 -1 -55 -23z"/>
<path d="M7568 23416 c-72 -15 -81 -24 -107 -96 l-22 -60 22 -61 c12 -33 32 -67 43 -74 50 -32 127 -34 1012 -35 943 0 980 2 1025 47 11 10 25 42 33 71 11 44 11 60 0 104 -8 29 -22 61 -32 71 -46 46 -71 47 -1022 46 -663 0 -910 -4 -952 -13z"/>
<path d="M7575 22999 c-66 -22 -95 -43 -115 -84 -23 -47 -25 -73 -9 -129 14 -52 48 -80 117 -100 52 -14 157 -16 963 -16 l904 0 50 24 c61 28 79 48 96 104 10 34 10 50 0 85 -16 51 -34 73 -86 101 l-40 21 -925 2 c-581 1 -936 -2 -955 -8z"/>
<path d="M7567 22576 c-68 -15 -77 -23 -106 -98 l-23 -56 23 -62 c12 -34 32 -68 43 -75 52 -32 125 -35 1014 -35 768 0 896 2 947 15 74 19 91 36 109 103 11 44 11 60 0 104 -18 67 -36 84 -105 102 -77 20 -1811 22 -1902 2z"/>
<path d="M7590 22154 c-107 -35 -117 -45 -141 -137 -10 -43 -9 -51 16 -102 47 -97 -38 -89 1000 -91 501 -1 938 0 973 3 80 7 112 31 135 105 15 47 15 59 2 107 -17 65 -25 74 -93 100 l-53 21 -912 -1 c-502 0 -919 -3 -927 -5z"/>
<path d="M10245 21858 c-23 -11 -48 -33 -57 -49 l-17 -29 -123 0 c-231 -1 -256 -8 -305 -79 -32 -47 -38 -100 -18 -167 18 -64 38 -85 141 -158 95 -68 155 -111 254 -185 46 -35 99 -70 117 -77 45 -19 121 -17 163 4 52 25 80 108 78 222 l-2 85 54 8 c73 10 111 34 138 87 27 53 28 101 3 155 -34 75 -102 112 -179 99 -29 -6 -33 -3 -47 28 -14 36 -33 47 -110 67 -49 13 -42 14 -90 -11z"/>
<path d="M7535 21241 c-32 -13 -52 -42 -68 -96 -11 -41 -12 -59 -2 -103 15 -63 23 -72 92 -101 l53 -21 927 2 928 3 43 19 c46 20 64 46 82 118 11 42 9 50 -15 102 -17 36 -37 62 -55 71 -25 13 -160 15 -997 14 -532 0 -977 -4 -988 -8z"/>
<path d="M7543 20809 c-54 -26 -64 -35 -73 -67 -27 -98 4 -199 69 -223 13 -6 433 -9 987 -10 840 0 968 2 993 16 19 9 39 34 56 71 24 52 26 60 15 102 -18 72 -36 98 -82 118 l-43 19 -930 2 -930 3 -62 -31z"/>
<path d="M7535 20401 c-32 -13 -52 -42 -68 -96 -11 -41 -12 -59 -2 -103 15 -63 23 -72 92 -101 l53 -21 927 2 928 3 43 19 c46 20 64 46 82 118 11 42 9 50 -15 102 -17 36 -37 62 -55 71 -25 13 -160 15 -997 14 -532 0 -977 -4 -988 -8z"/>
<path d="M7565 19974 c-63 -17 -91 -48 -100 -114 -8 -59 9 -141 33 -163 9 -9 44 -22 78 -31 52 -14 176 -16 946 -16 889 0 962 2 1014 35 11 7 31 41 43 74 l22 61 -22 61 c-25 69 -42 82 -117 98 -84 17 -1831 13 -1897 -5z"/>
<path d="M7535 19041 c-32 -13 -52 -42 -68 -96 -11 -41 -12 -59 -2 -103 15 -63 23 -72 92 -101 l53 -21 927 2 928 3 43 19 c46 20 64 46 82 118 11 42 9 50 -15 102 -17 36 -37 62 -55 71 -25 13 -160 15 -997 14 -532 0 -977 -4 -988 -8z"/>
<path d="M7543 18609 c-54 -26 -64 -35 -73 -67 -27 -98 4 -199 69 -223 13 -6 433 -9 987 -10 840 0 968 2 993 16 19 9 39 34 56 71 24 52 26 60 15 102 -18 72 -36 98 -82 118 l-43 19 -930 2 -930 3 -62 -31z"/>
<path d="M7535 18201 c-32 -13 -52 -42 -68 -96 -11 -41 -12 -59 -2 -103 15 -63 23 -72 92 -101 l53 -21 927 2 928 3 43 19 c46 20 64 46 82 118 11 42 9 50 -15 102 -17 36 -37 62 -55 71 -25 13 -160 15 -997 14 -532 0 -977 -4 -988 -8z"/>
<path d="M7565 17774 c-63 -17 -91 -48 -100 -114 -8 -59 9 -141 33 -163 9 -9 44 -22 78 -31 52 -14 176 -16 946 -16 889 0 962 2 1014 35 11 7 31 41 43 74 l22 61 -22 61 c-25 69 -42 82 -117 98 -84 17 -1831 13 -1897 -5z"/>
<path d="M10485 17434 c-67 -24 -83 -36 -101 -73 -28 -61 -32 -63 -68 -36 -45 34 -164 83 -227 93 -112 17 -248 -36 -305 -120 -17 -25 -40 -82 -53 -129 l-23 -85 21 -89 c38 -157 95 -225 190 -225 84 0 171 65 171 127 0 13 -11 52 -25 89 -26 70 -26 84 6 84 36 0 103 -52 235 -182 89 -87 142 -132 165 -138 87 -25 152 0 191 72 l23 43 0 235 c0 271 -4 287 -85 328 -51 25 -60 26 -115 6z"/>
<path d="M7581 16808 c-66 -8 -94 -33 -114 -103 -11 -41 -12 -59 -2 -103 15 -63 23 -72 92 -101 l53 -21 927 2 928 3 43 19 c46 20 64 46 82 118 11 42 9 50 -15 102 -17 37 -37 62 -56 72 -26 13 -149 15 -957 17 -510 1 -951 -1 -981 -5z"/>
<path d="M7543 16369 c-54 -26 -64 -35 -73 -67 -27 -98 4 -199 69 -223 13 -6 433 -9 987 -10 840 0 968 2 993 16 19 9 39 34 56 71 24 52 26 60 15 102 -18 72 -36 98 -82 118 l-43 19 -930 2 -930 3 -62 -31z"/>
<path d="M7535 15961 c-32 -13 -52 -42 -68 -96 -11 -41 -12 -59 -2 -103 15 -63 23 -72 92 -101 l53 -21 927 2 928 3 43 19 c46 20 64 46 82 118 11 42 9 50 -15 102 -17 36 -37 62 -55 71 -25 13 -160 15 -997 14 -532 0 -977 -4 -988 -8z"/>
<path d="M7565 15534 c-63 -17 -91 -48 -100 -114 -8 -59 9 -141 33 -163 9 -8 42 -22 72 -30 48 -14 170 -16 940 -17 888 0 975 2 1026 35 11 7 31 41 43 74 l22 61 -22 61 c-25 69 -42 82 -117 98 -84 17 -1831 13 -1897 -5z"/>
<path d="M7590 14681 c-39 -12 -83 -37 -102 -57 -28 -32 -40 -98 -27 -146 14 -55 33 -75 94 -104 l50 -24 909 0 c830 0 914 1 963 17 30 9 65 27 78 39 23 21 45 79 45 121 0 36 -37 111 -61 124 -72 38 -97 39 -1024 38 -495 0 -911 -4 -925 -8z"/>
<path d="M7562 14251 c-30 -9 -62 -26 -72 -38 -39 -48 -33 -199 8 -236 9 -9 44 -22 77 -31 52 -13 180 -15 940 -16 882 0 971 3 1021 35 11 7 31 41 43 74 l22 61 -22 61 c-12 33 -32 67 -43 74 -51 32 -126 34 -1022 34 -805 -1 -905 -3 -952 -18z"/>
<path d="M7555 13826 c-61 -29 -80 -49 -94 -103 -9 -32 -9 -54 0 -85 13 -52 31 -73 84 -102 l40 -21 910 -3 c820 -3 916 -1 972 14 34 9 73 26 87 39 24 22 46 80 46 122 0 36 -37 111 -61 124 -71 38 -97 39 -1029 39 l-905 0 -50 -24z"/>
<path d="M7535 13401 c-32 -13 -52 -42 -68 -96 -11 -41 -12 -60 -2 -102 15 -67 24 -76 93 -102 l57 -21 925 2 925 3 43 19 c46 20 64 46 82 118 11 42 9 50 -15 102 -17 36 -37 62 -55 71 -25 13 -160 15 -997 14 -532 0 -977 -4 -988 -8z"/>
<path d="M73685 42319 c-190 -44 -318 -144 -380 -297 -61 -150 -54 -282 22 -433 36 -73 55 -98 102 -137 32 -26 72 -55 89 -64 l31 -17 3 -533 3 -533 22 -42 c12 -22 37 -53 55 -67 36 -28 39 -26 -64 -55 -81 -23 -195 -88 -236 -135 -79 -91 -132 -230 -132 -350 0 -142 90 -321 199 -394 93 -63 211 -102 306 -102 50 0 168 31 220 58 59 30 136 94 160 132 l25 40 2079 0 2079 0 23 -37 c63 -105 148 -174 266 -220 56 -21 84 -26 163 -26 62 0 111 6 139 16 25 9 50 13 57 9 17 -9 1017 -984 1064 -1037 140 -157 222 -200 303 -159 42 22 166 138 802 749 127 122 325 312 441 423 l211 201 46 -47 46 -47 -14 -49 c-33 -109 -5 -279 63 -379 17 -25 28 -48 25 -50 -3 -3 -24 3 -48 13 -64 27 -161 50 -214 50 -114 0 -290 -77 -365 -161 -55 -60 -114 -189 -127 -279 -9 -61 -8 -88 4 -145 l16 -70 -20 -17 c-10 -9 -160 -152 -333 -318 l-315 -302 -141 0 -141 0 -37 62 c-43 73 -143 162 -218 196 -29 12 -86 30 -128 38 -69 15 -84 15 -149 1 -39 -8 -74 -15 -77 -15 -2 0 -299 295 -660 655 -360 359 -668 660 -685 667 -24 11 -465 14 -2298 16 -2460 2 -2338 5 -2396 -50 -51 -47 -51 -41 -51 -735 0 -532 3 -656 14 -695 22 -71 32 -84 78 -104 39 -17 78 -19 430 -22 l388 -3 17 -37 c28 -60 133 -158 206 -193 99 -46 206 -65 283 -50 74 15 77 14 183 -72 40 -33 90 -66 110 -73 29 -11 278 -13 1238 -14 l1202 0 17 -32 c9 -18 45 -60 79 -94 72 -71 166 -115 282 -133 192 -29 414 87 506 265 24 47 57 168 57 211 0 127 -66 288 -152 373 -55 54 -161 111 -238 129 -64 15 -176 13 -239 -4 -66 -17 -80 -11 -47 21 44 45 103 173 120 261 14 77 14 88 -4 172 -20 95 -31 122 -81 196 -86 127 -288 226 -432 211 -271 -28 -468 -238 -470 -501 0 -49 6 -96 15 -122 l15 -42 -241 -241 -241 -241 -239 -1 c-132 0 -242 4 -247 9 -14 14 94 113 123 113 13 0 45 -7 72 -15 88 -27 194 -13 309 40 159 72 268 234 284 421 11 128 -71 329 -165 402 -141 109 -326 152 -464 107 -67 -22 -169 -77 -214 -117 -48 -42 -111 -152 -134 -234 -24 -81 -25 -192 -5 -249 l15 -40 -32 -29 c-18 -15 -74 -63 -124 -105 -50 -42 -146 -125 -213 -184 -139 -124 -173 -141 -221 -107 -33 23 -36 30 -19 47 23 23 40 154 29 225 -35 229 -181 384 -408 433 -77 17 -87 17 -164 1 -44 -9 -109 -29 -142 -46 -78 -38 -169 -118 -206 -183 l-28 -50 -236 1 -237 1 0 373 0 373 38 7 c54 10 4078 7 4094 -3 8 -4 283 -277 612 -606 418 -419 595 -602 591 -613 -3 -8 -12 -48 -20 -89 -11 -63 -11 -87 1 -155 38 -217 187 -367 410 -413 71 -14 84 -14 163 2 131 26 256 98 307 177 16 25 35 53 40 62 8 12 31 16 100 17 l89 2 8 -29 c4 -16 8 -842 7 -1835 0 -1289 3 -1814 11 -1835 6 -16 39 -58 74 -94 84 -87 185 -205 225 -261 l32 -45 -1 -1115 c0 -985 1 -1120 15 -1167 15 -49 31 -68 198 -230 100 -97 271 -264 380 -371 l197 -195 0 -53 c0 -62 -14 -76 -33 -31 -36 84 -184 186 -316 218 -196 47 -438 -58 -533 -230 -13 -24 -29 -53 -36 -67 -14 -25 -32 -22 -32 6 0 23 -51 99 -100 150 -64 66 -118 100 -204 127 -148 47 -274 32 -417 -52 -87 -50 -101 -65 -159 -157 -94 -151 -101 -315 -20 -494 35 -76 130 -175 195 -203 l43 -19 -1 -353 c-1 -194 -6 -359 -11 -367 -6 -10 -60 38 -211 189 l-203 203 0 76 c0 118 -41 234 -120 339 -21 28 -93 81 -171 127 -27 16 -157 45 -203 45 -52 0 -177 -31 -230 -57 -90 -45 -190 -144 -217 -216 -9 -22 -14 -24 -63 -19 -67 6 -79 16 -40 36 139 72 218 171 266 335 43 147 -15 355 -131 467 -88 86 -230 145 -349 146 -165 0 -343 -94 -418 -221 l-32 -56 -1782 -3 -1782 -2 -19 32 c-82 140 -198 216 -374 247 -151 27 -358 -62 -453 -195 -60 -84 -84 -150 -94 -256 -10 -104 4 -179 52 -275 42 -86 94 -142 175 -191 239 -144 555 -69 690 163 l29 50 1735 3 c954 2 1753 0 1777 -3 34 -5 45 -12 58 -38 40 -76 123 -155 216 -203 18 -9 27 -19 21 -25 -5 -5 -657 -9 -1596 -9 l-1587 0 -52 -24 c-44 -19 -113 -84 -392 -365 l-339 -341 -61 29 c-169 80 -317 79 -477 -5 -207 -109 -308 -376 -225 -597 38 -102 72 -153 142 -211 82 -71 198 -117 304 -123 154 -9 324 71 415 194 55 75 97 180 98 249 l1 52 347 353 346 354 1793 5 1792 5 19 -38 c25 -49 124 -147 182 -181 64 -38 170 -66 247 -66 66 0 178 26 218 51 l22 14 1306 -1305 c718 -718 1310 -1313 1315 -1322 7 -12 5 -26 -5 -45 -7 -16 -21 -64 -30 -109 -15 -73 -15 -87 -1 -155 20 -95 73 -204 128 -262 l43 -46 -3 -88 c-5 -96 -8 -113 -21 -113 -5 0 -60 51 -123 113 -63 62 -303 292 -534 512 -231 220 -483 461 -560 535 -77 74 -235 224 -350 334 -116 109 -257 244 -315 300 -665 641 -1193 1141 -1214 1150 -11 4 -112 9 -224 10 l-203 1 -2 205 c-3 251 -9 273 -82 310 l-50 25 -1385 2 -1385 3 -55 -28 c-33 -17 -60 -38 -68 -55 -9 -19 -14 -90 -15 -244 l-2 -218 -130 -1 c-71 -1 -142 -7 -156 -12 -22 -9 -233 -229 -365 -382 -22 -26 -62 -69 -90 -96 -52 -53 -319 -343 -394 -428 -25 -29 -88 -97 -141 -151 -53 -55 -113 -119 -133 -142 l-38 -43 -31 17 c-19 9 -67 18 -118 21 -151 8 -276 -43 -390 -159 -146 -149 -176 -364 -79 -566 42 -86 115 -163 190 -201 l35 -17 3 -160 c2 -96 -2 -183 -9 -216 -13 -67 3 -188 29 -218 10 -10 41 -28 71 -40 l54 -21 371 0 c330 0 375 2 408 18 20 9 70 53 109 97 87 96 551 584 606 638 l39 38 30 -16 c62 -32 225 -14 339 39 77 35 175 137 218 226 52 108 66 204 44 305 -38 170 -122 284 -265 357 -56 28 -173 58 -228 58 -65 0 -175 -31 -247 -70 -184 -100 -287 -345 -232 -550 8 -30 15 -58 15 -62 0 -4 -24 -31 -52 -61 -47 -47 -156 -161 -479 -499 l-84 -88 -154 -2 -155 -3 -2 102 c-2 105 9 143 41 143 8 0 50 35 93 78 69 68 82 87 109 157 38 99 49 190 33 284 l-12 70 239 258 c131 141 326 351 433 466 107 115 236 254 285 309 l90 99 49 -3 49 -3 3 -118 c4 -144 14 -166 88 -201 l55 -26 1363 0 1364 0 63 21 c36 12 68 30 76 43 21 34 37 132 33 210 l-3 71 132 3 c120 2 134 1 150 -17 10 -10 145 -142 300 -291 156 -150 280 -276 277 -281 -3 -5 -29 5 -57 21 -58 32 -190 70 -248 70 -68 0 -206 -48 -282 -98 -56 -36 -83 -64 -123 -122 l-52 -75 -473 -5 c-395 -4 -477 -3 -491 9 -10 8 -31 37 -47 65 -60 104 -179 182 -328 213 -78 16 -88 16 -164 0 -96 -20 -208 -74 -262 -125 -114 -109 -188 -341 -147 -458 l10 -30 -272 -270 c-150 -149 -519 -514 -821 -810 l-547 -539 -377 -5 c-244 -3 -380 -1 -388 5 -6 6 -24 30 -40 54 -37 54 -120 127 -181 158 -60 31 -182 63 -237 63 -109 0 -287 -79 -360 -159 -49 -54 -106 -169 -122 -248 -18 -85 -6 -207 29 -292 26 -64 88 -150 134 -187 83 -66 220 -114 323 -114 173 0 349 101 433 250 l24 42 441 -1 441 -2 46 20 c35 16 205 179 767 734 397 393 781 771 852 840 l131 125 89 -25 c104 -28 145 -26 269 11 100 31 197 102 256 190 l38 56 493 0 492 0 16 -23 c48 -73 68 -96 115 -134 68 -55 144 -88 247 -109 l85 -16 99 26 c55 15 114 35 132 46 l33 19 63 -62 c69 -68 147 -142 437 -415 107 -101 227 -214 265 -251 119 -116 1108 -1052 1420 -1345 104 -98 276 -261 380 -361 105 -100 222 -211 262 -246 l72 -64 -2 -415 -2 -414 -60 -32 c-33 -18 -67 -33 -75 -33 -15 -1 -3411 3387 -3419 3410 -2 6 -31 24 -65 40 l-61 29 -515 0 c-379 -1 -522 -4 -542 -13 -15 -7 -100 -82 -190 -168 -90 -86 -266 -253 -393 -372 -126 -118 -265 -248 -307 -288 -42 -41 -149 -141 -238 -223 -208 -194 -216 -207 -186 -307 16 -51 97 -165 124 -173 9 -3 964 -953 2122 -2111 1158 -1158 2126 -2119 2151 -2135 l46 -30 944 0 944 0 50 24 c108 50 107 46 103 576 -4 511 -2 500 -88 542 l-55 28 -696 0 -696 0 -279 288 c-154 158 -628 647 -1055 1087 -1693 1747 -1869 1929 -1869 1941 0 6 61 69 136 139 l135 128 1262 -1259 c694 -692 1261 -1263 1260 -1269 -1 -5 -8 -41 -17 -80 -20 -88 -20 -118 0 -201 57 -246 264 -401 519 -389 167 8 332 113 407 260 30 57 58 167 58 225 0 33 4 61 8 64 5 3 47 -34 95 -82 l86 -87 20 -94 c27 -125 68 -201 149 -278 73 -70 162 -111 283 -132 78 -13 167 1 259 42 68 31 160 99 178 132 7 14 17 25 22 25 6 0 10 111 10 294 l0 294 -66 65 -65 65 1 480 c1 502 -3 549 -43 610 -20 30 -239 240 -976 936 -163 154 -384 363 -491 465 -107 102 -231 219 -275 261 -44 41 -210 199 -370 350 -159 152 -369 350 -465 440 -96 91 -244 231 -329 312 l-154 147 -2 53 c-5 109 -71 271 -134 332 -17 16 -28 33 -25 38 4 5 54 -37 113 -94 235 -227 1176 -1127 1660 -1588 219 -207 885 -848 916 -881 43 -44 208 -51 296 -12 80 36 83 51 89 437 4 279 7 330 20 336 8 5 51 25 95 46 54 25 100 57 143 97 l62 60 0 284 c0 161 -4 283 -9 283 -5 0 -18 15 -29 34 -61 103 -281 197 -426 181 l-62 -6 -432 433 -432 433 0 1102 0 1103 50 37 c27 20 66 61 86 90 20 29 40 50 45 47 5 -3 9 -300 9 -683 0 -583 2 -685 15 -730 14 -46 34 -71 178 -217 l162 -166 6 -136 c7 -141 8 -148 69 -263 28 -53 102 -123 168 -159 149 -81 287 -90 437 -31 44 18 91 43 105 55 14 13 33 26 43 29 16 6 17 33 17 377 0 231 -4 370 -10 370 -5 0 -25 13 -43 30 -19 16 -44 33 -56 38 l-21 8 0 1149 0 1149 35 28 c19 16 48 49 65 74 l30 45 0 264 0 264 -24 36 c-59 86 -179 158 -318 191 l-76 17 -84 -17 c-100 -22 -148 -41 -215 -90 -161 -116 -241 -337 -189 -521 49 -171 161 -296 313 -349 l33 -11 0 -1100 c0 -604 -4 -1103 -8 -1107 -7 -7 -174 164 -195 199 -4 6 -7 460 -7 1007 l0 995 -30 48 c-16 26 -167 182 -335 346 -168 164 -305 306 -305 315 0 14 828 858 866 884 6 4 56 -4 110 -18 91 -24 104 -25 169 -14 96 17 189 53 247 97 l48 37 0 367 c0 340 -1 367 -17 373 -10 3 -38 21 -63 39 l-45 34 -5 2249 -5 2249 31 40 c17 22 47 66 67 98 l37 57 0 182 0 181 -30 64 c-96 203 -374 310 -604 233 -37 -12 -87 -37 -110 -55 -24 -18 -52 -38 -63 -43 -11 -6 -42 -44 -70 -85 -96 -142 -116 -296 -59 -457 34 -96 34 -96 16 -91 -117 30 -163 34 -237 18 -74 -16 -194 -70 -245 -111 -45 -36 -108 -122 -132 -183 -52 -127 -54 -237 -10 -375 l15 -47 -183 -179 c-101 -99 -186 -178 -190 -175 -5 2 -8 248 -7 546 l1 542 240 230 c132 127 278 265 324 309 l85 78 58 -16 c76 -21 162 -20 247 3 108 29 158 56 225 124 75 75 125 172 144 281 16 95 0 196 -50 303 -18 39 -31 73 -29 76 2 2 36 -7 76 -21 191 -64 377 -21 525 121 l63 60 0 284 0 284 -63 63 c-76 77 -180 130 -285 148 -63 11 -85 10 -154 -4 l-81 -17 -54 47 c-29 26 -95 87 -146 135 -99 95 -148 127 -197 127 -78 0 -115 -32 -840 -730 -124 -119 -326 -313 -450 -432 l-225 -215 -512 506 -512 506 15 65 c13 58 13 74 -2 152 -24 131 -114 279 -192 319 -15 8 -38 22 -52 31 -74 52 -236 78 -345 56 -138 -29 -257 -114 -334 -240 l-23 -38 -2044 0 -2044 0 -29 59 c-54 107 -89 149 -164 198 -63 41 -96 57 -161 78 -12 3 -16 9 -10 15 6 6 983 10 2609 10 l2600 1 59 -63 c89 -94 818 -849 913 -944 79 -81 143 -124 181 -124 11 0 41 9 68 21 41 17 179 151 810 781 l760 759 54 -3 55 -3 26 -50 c30 -56 100 -122 178 -166 60 -34 184 -69 245 -69 72 0 207 43 261 84 28 20 58 39 68 42 16 6 17 33 17 373 l0 366 -42 30 c-68 49 -129 76 -202 91 -38 8 -77 19 -88 25 -20 11 -16 29 7 29 23 0 109 44 163 83 52 38 114 114 126 154 4 11 13 27 21 33 23 19 22 380 -2 418 -82 134 -116 169 -214 226 -52 29 -184 66 -239 66 -52 0 -195 -43 -255 -76 -62 -35 -133 -105 -166 -164 l-24 -45 -355 -5 c-260 -4 -361 -8 -377 -18 -12 -7 -108 -100 -214 -207 -105 -107 -196 -192 -200 -189 -5 3 -6 10 -3 16 13 21 33 134 34 188 0 163 -108 347 -253 428 -29 16 -90 39 -137 52 -99 26 -148 23 -267 -15 -145 -47 -245 -141 -302 -285 -37 -93 -46 -175 -31 -260 7 -36 13 -72 13 -81 1 -9 -96 -112 -225 -238 l-226 -221 -382 2 c-209 0 -382 4 -384 7 -2 3 25 32 60 64 l64 59 49 -13 c72 -18 199 9 299 64 136 76 215 189 245 353 13 68 13 90 1 158 -38 218 -190 369 -414 413 -74 15 -87 15 -156 0 -73 -16 -193 -70 -244 -109 -14 -11 -46 -47 -73 -81 -95 -122 -125 -298 -77 -447 l23 -71 -184 -187 c-101 -103 -197 -193 -212 -200 -36 -16 -720 -13 -736 3 -6 6 8 29 40 64 l49 54 68 -13 c60 -11 78 -10 148 5 186 43 315 145 375 299 29 74 32 91 32 191 -1 128 -18 189 -81 282 -76 112 -183 180 -329 210 -64 13 -88 14 -141 4 -243 -45 -396 -198 -433 -431 -12 -78 1 -191 28 -244 l15 -29 -209 -203 -208 -203 -430 1 c-236 0 -434 3 -439 5 -11 7 115 133 134 133 8 0 47 -7 87 -17 l72 -16 83 18 c176 39 288 123 358 268 69 140 73 273 15 420 -44 109 -153 220 -255 258 -110 41 -185 53 -261 40 -292 -48 -473 -291 -428 -576 5 -33 11 -67 12 -76 1 -10 -87 -107 -216 -238 l-218 -220 -517 2 -517 2 0 80 1 80 44 25 c117 64 212 210 231 357 36 270 -130 501 -398 558 -76 16 -110 17 -168 4z m8111 -713 c7 -3 24 -27 38 -54 49 -96 172 -178 325 -215 49 -12 89 -26 89 -32 0 -5 -19 -16 -43 -22 -51 -15 -186 -102 -209 -135 -10 -12 -30 -44 -46 -69 l-28 -47 -89 -4 c-48 -2 -100 -1 -114 3 -53 14 -97 -22 -374 -301 -148 -149 -472 -470 -718 -713 l-448 -441 -27 35 c-14 19 -90 100 -169 180 -79 80 -140 148 -137 152 4 4 29 7 55 7 72 0 196 43 267 93 111 77 194 219 208 356 8 68 -11 194 -33 232 l-17 28 320 326 c175 179 385 394 465 478 l147 152 262 -2 c145 -1 269 -4 276 -7z m-1588 -454 c-128 -131 -218 -216 -227 -214 -53 11 -162 9 -209 -3 -162 -42 -274 -132 -337 -267 -35 -76 -60 -186 -50 -218 13 -41 -16 -27 -72 35 -33 35 -80 76 -104 90 l-44 25 -2590 0 -2590 0 -6 87 c-4 49 -5 91 -2 96 2 4 1220 7 2706 7 l2702 1 55 18 c36 13 63 30 80 52 14 17 52 57 85 87 33 31 141 136 240 234 168 168 181 178 205 169 72 -28 145 -33 226 -16 43 10 90 23 104 30 14 7 28 11 33 8 4 -2 -88 -102 -205 -221z m2146 167 c-3 -5 -10 -7 -15 -3 -5 3 -7 10 -3 15 3 5 10 7 15 3 5 -3 7 -10 3 -15z m-4620 -3669 c-15 -15 -41 -53 -58 -84 l-31 -57 -210 -1 c-115 0 -210 2 -210 4 0 3 35 43 79 88 l79 83 71 -14 c83 -15 159 -14 236 4 30 8 58 12 63 10 4 -3 -5 -17 -19 -33z m4427 -781 c-1 -41 -5 -77 -8 -82 -7 -12 -23 3 -23 22 0 9 -11 46 -25 80 -13 35 -22 67 -20 72 3 4 22 2 43 -5 l37 -13 -4 -74z m-3 -2284 l-3 -2030 -42 -23 c-68 -37 -144 -122 -187 -207 l-39 -79 -6 -135 -6 -136 -351 -348 c-192 -191 -353 -344 -357 -341 -4 4 -7 85 -7 180 l0 173 43 35 c23 19 61 50 84 68 23 18 77 61 120 96 43 35 154 124 246 199 92 74 175 149 185 167 15 28 17 85 19 649 l2 618 50 45 c28 25 51 52 51 59 0 7 9 24 20 38 11 14 32 56 47 94 35 93 37 236 4 333 -70 202 -259 335 -474 332 -233 -3 -423 -153 -481 -383 -28 -112 -2 -271 62 -378 56 -92 102 -130 230 -191 l62 -30 0 -494 0 -494 -31 -24 c-17 -13 -54 -43 -82 -68 -87 -76 -137 -111 -147 -105 -6 4 -10 170 -10 458 0 529 9 482 -124 634 -48 54 -118 134 -156 178 l-70 80 0 330 0 330 289 289 289 289 59 -16 c153 -43 344 9 462 126 102 100 143 201 144 352 1 159 -46 272 -154 369 -65 59 -124 91 -213 116 -126 35 -235 21 -369 -47 -79 -40 -178 -146 -210 -225 -46 -116 -56 -238 -26 -334 l9 -30 -135 -135 c-74 -75 -137 -133 -140 -131 -3 3 -5 157 -5 342 l0 336 365 353 366 353 50 -13 c43 -11 62 -10 137 5 169 35 311 146 370 289 18 42 32 84 32 95 0 23 11 35 22 24 4 -4 7 -921 6 -2037z m-1526 -5272 c30 -68 121 -158 195 -195 43 -21 68 -40 74 -57 12 -31 7 -1661 -5 -1680 -6 -10 -80 58 -287 265 l-279 279 0 587 0 587 63 45 c86 62 158 153 182 231 l6 20 16 -20 c8 -11 24 -39 35 -62z m-2627 -1493 l0 -235 -1095 0 -1095 0 -3 225 c-1 123 0 230 3 237 3 11 218 13 1097 11 l1093 -3 0 -235z m1756 -3736 c783 -783 1422 -1424 1419 -1425 -3 -1 -32 -2 -65 -4 -33 -1 -85 -6 -115 -9 l-55 -7 -1365 1366 c-751 752 -1377 1373 -1392 1381 -78 41 -135 5 -395 -243 -418 -400 -470 -454 -482 -498 -10 -40 -4 -94 16 -129 9 -17 484 -510 1098 -1141 177 -181 465 -478 640 -660 176 -181 464 -478 640 -660 177 -181 503 -518 725 -747 329 -340 411 -420 450 -437 l47 -20 609 -1 c334 0 612 -4 616 -8 9 -9 13 -287 4 -300 -4 -7 -271 -10 -729 -11 l-722 -1 -2035 2035 -2035 2035 160 154 c88 84 275 260 415 390 140 131 283 267 318 302 l62 64 373 -1 373 0 1425 -1425z"/>
<path d="M27978 38996 c-56 -20 -85 -42 -105 -79 -16 -29 -18 -70 -20 -407 l-2 -375 -5773 -2 c-3175 -1 -5787 -5 -5804 -8 -73 -13 -104 -97 -104 -284 0 -182 14 -221 95 -265 l40 -21 5773 -5 5774 -5 -1 -225 0 -225 -5773 -5 -5773 -5 -44 -25 c-74 -41 -85 -72 -89 -237 -5 -205 24 -294 102 -308 17 -3 1260 -7 2763 -8 1855 -1 2735 -5 2742 -12 7 -7 -535 -556 -1720 -1740 -1794 -1794 -1779 -1779 -1779 -1855 0 -11 9 -37 19 -58 11 -21 564 -581 1274 -1291 l1255 -1254 -18 -26 c-9 -14 -43 -69 -75 -121 -32 -52 -68 -111 -80 -130 -31 -49 -157 -269 -207 -360 -284 -516 -519 -1031 -730 -1595 -156 -420 -350 -1092 -460 -1600 l-13 -60 -1625 -5 c-1522 -5 -1627 -6 -1660 -22 -42 -21 -59 -46 -76 -113 -20 -75 -20 -5176 0 -5250 20 -75 33 -95 79 -116 l42 -19 1725 0 1725 0 7 -33 c13 -61 137 -455 199 -630 60 -171 97 -268 159 -422 18 -44 42 -107 55 -140 76 -203 503 -1100 548 -1154 7 -7 23 -35 37 -62 27 -52 97 -174 160 -279 21 -36 54 -92 73 -125 20 -33 47 -78 62 -99 l27 -39 -1240 -1241 c-817 -818 -1243 -1252 -1252 -1274 -10 -27 -11 -44 -1 -90 l13 -57 1739 -1740 c1187 -1188 1735 -1743 1728 -1750 -7 -7 -888 -11 -2725 -13 -2352 -2 -2720 -4 -2750 -17 -56 -23 -66 -62 -68 -250 -1 -88 2 -176 7 -195 10 -40 39 -75 82 -98 28 -16 454 -17 5783 -22 l5754 -5 -1 -225 0 -225 -5761 -2 c-5041 -3 -5765 -5 -5796 -18 -56 -23 -66 -62 -68 -250 -1 -88 2 -176 7 -195 10 -40 39 -75 82 -98 28 -16 454 -17 5784 -22 l5753 -5 -1 -332 c-2 -277 1 -342 14 -395 9 -35 23 -70 31 -79 9 -9 44 -24 79 -33 57 -14 312 -16 2647 -16 1841 0 2594 3 2623 11 49 13 71 32 99 84 l21 40 2 360 3 360 19082 5 c17733 5 19085 6 19113 22 44 24 76 62 84 100 5 19 7 106 6 194 -3 187 -14 226 -69 249 -31 13 -2378 15 -19123 18 l-19088 2 -5 223 c-3 123 -3 226 -1 228 2 2 8586 4 19075 4 l19071 0 40 19 c51 24 85 60 94 103 15 64 5 349 -12 391 -30 69 21 66 -1023 70 -803 3 -959 6 -1074 21 -186 23 -372 69 -487 122 -17 8 -34 14 -38 14 -12 0 -188 90 -243 124 -131 82 -302 254 -363 365 -54 100 -70 168 -75 328 -16 471 -123 860 -347 1264 -142 256 -422 580 -624 722 -45 32 -85 62 -88 67 -3 4 -5 4179 -5 9277 l0 9268 43 30 c169 116 393 321 495 453 79 101 202 275 202 286 0 6 9 19 19 30 40 43 185 353 240 514 31 90 89 316 107 414 30 167 35 200 39 296 15 350 20 377 87 502 31 57 69 103 158 192 65 64 133 124 151 134 19 9 49 28 66 42 39 29 164 93 248 127 194 78 401 128 595 145 63 6 167 15 230 22 98 10 489 15 1512 18 91 0 128 86 128 297 0 176 -14 213 -95 257 l-40 21 -19040 5 -19040 5 -5 223 c-3 123 -3 226 -1 228 2 2 8568 4 19035 4 l19031 0 50 24 c92 43 105 77 105 266 0 191 -29 272 -104 285 -17 3 -8599 7 -19071 8 l-19040 2 -5 380 c-5 359 -6 382 -25 415 -12 19 -36 43 -55 55 l-35 20 -2620 2 c-2168 2 -2626 0 -2657 -11z m4812 -2301 l5 -1730 23 -47 c25 -51 60 -71 147 -83 28 -4 84 -15 125 -25 41 -10 125 -31 185 -45 105 -25 433 -116 560 -155 155 -48 445 -143 485 -159 25 -10 71 -28 103 -40 31 -11 83 -31 115 -42 31 -12 75 -29 97 -39 22 -10 67 -27 100 -40 33 -12 74 -28 90 -35 17 -8 64 -28 105 -45 199 -83 246 -106 600 -282 269 -135 356 -180 476 -247 47 -26 482 -286 504 -301 14 -10 54 -36 90 -59 154 -97 540 -372 683 -485 34 -26 73 -53 87 -60 18 -8 507 -12 1818 -16 l1792 -5 1 -2170 0 -2170 -2629 -3 -2628 -2 -24 32 c-85 118 -396 436 -605 620 -168 149 -404 342 -499 408 -27 19 -67 48 -90 64 -107 76 -288 196 -356 235 -41 25 -84 52 -95 61 -11 9 -60 39 -110 65 -49 27 -108 59 -130 71 -48 27 -393 198 -450 224 -22 9 -75 34 -118 54 -42 20 -82 36 -88 36 -7 0 -53 18 -103 39 -50 21 -111 45 -136 53 -150 49 -370 122 -400 133 -19 8 -51 17 -70 20 -19 4 -66 15 -105 25 -215 59 -459 113 -590 130 -38 5 -92 14 -120 20 -67 14 -164 27 -255 35 -41 4 -88 8 -105 10 -152 20 -288 25 -650 24 -611 0 -845 -23 -1400 -134 -190 -39 -215 -44 -232 -53 -10 -5 -40 -13 -68 -17 -27 -4 -65 -13 -85 -20 -19 -7 -69 -23 -110 -35 -198 -56 -565 -186 -732 -259 -64 -28 -120 -51 -123 -51 -14 0 -509 -252 -593 -301 -458 -272 -821 -533 -1150 -828 -91 -82 -478 -465 -512 -507 -14 -17 -65 -78 -115 -134 -49 -57 -108 -126 -130 -155 -132 -170 -166 -215 -218 -289 -100 -139 -251 -368 -292 -441 -21 -38 -48 -83 -60 -100 -77 -106 -376 -723 -455 -940 -10 -27 -28 -75 -40 -105 -39 -103 -146 -435 -174 -540 -16 -58 -34 -121 -42 -140 -8 -19 -18 -66 -24 -104 -6 -38 -13 -73 -16 -77 -5 -9 -30 -130 -65 -324 -11 -60 -29 -177 -39 -260 -11 -82 -25 -188 -32 -235 -17 -118 -17 -1202 0 -1315 7 -44 21 -150 32 -235 24 -194 72 -463 105 -591 8 -30 15 -65 15 -77 0 -11 11 -56 24 -99 13 -43 34 -114 46 -158 64 -232 172 -543 278 -795 87 -208 329 -695 386 -774 12 -16 44 -69 71 -117 64 -113 276 -427 364 -539 23 -30 70 -91 104 -135 234 -306 699 -775 1036 -1046 130 -105 396 -302 477 -354 37 -24 102 -67 161 -107 23 -15 45 -28 51 -28 5 0 27 -12 48 -28 53 -37 144 -92 152 -92 4 0 25 -12 46 -26 41 -28 547 -284 561 -284 5 0 27 -9 49 -19 83 -39 186 -81 359 -146 174 -65 220 -80 397 -130 47 -13 112 -32 145 -43 87 -29 219 -60 400 -96 44 -9 100 -21 125 -27 111 -26 383 -64 720 -100 113 -11 936 -11 1075 1 246 21 534 60 696 96 37 8 77 14 89 14 13 0 59 9 104 21 94 24 201 51 318 80 97 24 673 214 768 253 64 27 126 54 269 118 79 35 346 168 421 210 25 13 86 46 135 73 50 26 99 56 110 65 11 9 54 36 95 60 159 94 411 269 606 423 l124 97 2867 -2 2868 -3 0 -2170 0 -2170 -2240 -5 -2240 -5 -30 -18 c-140 -84 -198 -116 -320 -178 -77 -39 -144 -75 -150 -79 -19 -15 -120 -67 -144 -75 -13 -4 -96 -42 -185 -85 -450 -218 -1031 -443 -1456 -566 -85 -24 -166 -48 -180 -53 -31 -12 -139 -42 -248 -69 -45 -12 -117 -30 -160 -41 -143 -37 -247 -59 -297 -66 -79 -9 -123 -33 -148 -79 l-22 -41 -5 -1670 -5 -1670 -2180 0 -2180 0 -3 1668 c-2 1410 -4 1674 -16 1702 -18 42 -89 81 -167 91 -30 4 -65 12 -79 19 -14 7 -46 15 -71 19 -58 9 -393 92 -417 104 -9 5 -44 14 -77 21 -33 6 -121 32 -195 57 -74 25 -152 49 -172 55 -42 10 -150 46 -253 84 -38 14 -115 41 -170 60 -55 18 -126 45 -158 59 -31 14 -81 34 -110 44 -58 21 -190 75 -252 102 -22 10 -83 37 -135 60 -52 23 -113 50 -135 60 -90 41 -575 283 -640 319 -38 22 -117 65 -175 96 -58 32 -112 63 -120 69 -8 7 -26 17 -40 24 -14 6 -56 32 -95 57 -38 25 -77 48 -85 52 -8 3 -38 21 -67 39 -71 45 -124 58 -171 43 -29 -9 -296 -271 -1277 -1250 l-1240 -1239 -1538 1538 c-845 845 -1537 1542 -1537 1547 0 6 174 183 388 394 1267 1255 2034 2027 2048 2060 27 64 8 104 -223 453 -12 18 -41 67 -64 108 -23 41 -52 89 -64 105 -12 17 -44 70 -71 118 -27 48 -61 109 -76 135 -53 94 -67 121 -199 382 -152 301 -211 425 -234 490 -9 25 -29 68 -44 95 -16 28 -34 67 -39 86 -6 19 -31 84 -57 144 -49 115 -57 135 -150 385 -72 195 -170 489 -200 600 -12 47 -30 110 -39 140 -10 30 -28 96 -41 145 -13 50 -30 113 -38 141 -15 59 -68 132 -100 139 -12 3 -776 7 -1697 8 l-1675 2 0 2185 0 2185 1584 2 c1086 2 1595 6 1617 13 52 17 85 84 104 209 6 36 19 111 31 166 11 55 29 143 40 195 11 52 26 120 34 150 20 75 45 174 60 240 26 110 74 287 99 363 14 43 26 84 26 92 0 20 126 397 195 585 95 255 101 270 154 395 28 65 51 124 51 131 0 6 14 37 30 68 17 31 40 80 51 109 56 145 364 759 459 917 27 45 75 130 91 162 10 20 23 39 28 42 5 4 32 49 60 101 28 51 56 97 61 100 6 4 20 25 32 48 11 23 29 53 40 67 50 66 191 288 205 321 13 35 13 43 -4 94 l-18 56 -1230 1229 -1230 1230 1542 1542 1543 1543 1277 -1277 c1361 -1359 1308 -1310 1381 -1288 34 10 101 46 200 108 286 177 853 470 1197 618 431 186 544 229 910 351 454 152 420 142 795 236 263 66 307 77 376 92 90 20 143 50 160 90 12 29 14 296 14 1763 0 951 3 1732 7 1736 3 3 985 5 2182 4 l2176 -3 5 -1730z m-4939 -774 c-1 -321 -2 -586 -5 -588 -2 -2 -102 -31 -223 -63 -121 -32 -295 -82 -389 -111 -93 -28 -196 -60 -229 -70 -54 -16 -108 -35 -400 -139 -98 -35 -410 -158 -435 -171 -8 -4 -46 -20 -83 -34 -37 -14 -107 -44 -155 -66 -48 -23 -105 -49 -127 -59 -22 -10 -69 -31 -105 -48 -36 -16 -92 -42 -125 -56 -62 -28 -422 -215 -510 -265 -27 -16 -86 -48 -130 -71 -44 -23 -87 -49 -96 -56 -8 -8 -20 -14 -25 -14 -14 0 -2393 2383 -2388 2392 3 4 1224 7 2715 5 l2710 -2 0 -584z m17984 562 c307 -42 549 -130 783 -285 108 -72 266 -234 320 -330 77 -136 91 -192 97 -384 12 -410 109 -800 292 -1169 58 -118 72 -141 160 -276 l23 -35 -2 -9589 -3 -9589 -55 -39 c-100 -70 -280 -236 -382 -352 -198 -226 -346 -471 -463 -765 -86 -216 -166 -559 -180 -770 -2 -41 -9 -140 -14 -220 -7 -116 -14 -158 -34 -211 -45 -118 -144 -238 -292 -353 -159 -124 -271 -181 -495 -256 -199 -66 -308 -87 -585 -112 -151 -14 -11613 -24 -11627 -10 -4 4 -8 241 -8 527 l-1 520 38 12 c21 6 126 35 233 64 236 62 575 167 805 247 257 90 602 224 677 263 20 10 41 19 46 19 6 0 49 18 96 40 47 22 88 40 90 40 14 0 615 295 731 359 28 15 89 48 136 74 l86 47 2392 0 c1436 0 2399 3 2409 9 31 17 50 45 66 100 14 49 16 302 16 2646 0 1916 -3 2601 -11 2626 -15 44 -35 66 -84 93 l-40 21 -3175 0 -3175 0 -55 -28 c-30 -16 -75 -48 -100 -71 -65 -62 -316 -254 -460 -352 -25 -17 -81 -55 -125 -85 -44 -30 -118 -76 -165 -103 -47 -27 -92 -55 -100 -62 -18 -15 -556 -287 -647 -327 -436 -192 -880 -322 -1453 -426 -100 -18 -402 -52 -530 -59 -160 -10 -767 -9 -930 1 -131 8 -156 10 -230 21 -19 3 -93 13 -165 21 -71 9 -152 20 -180 25 -27 6 -108 22 -180 36 -134 26 -358 80 -480 115 -144 42 -459 150 -567 195 -32 13 -86 36 -120 50 -35 14 -76 32 -93 39 -190 88 -293 137 -305 145 -8 6 -46 26 -85 46 -38 19 -91 48 -116 62 -26 15 -71 40 -100 56 -29 15 -64 36 -79 45 -14 10 -52 35 -85 56 -33 21 -77 50 -98 64 -21 14 -55 37 -77 51 -100 64 -290 205 -456 338 -266 214 -641 593 -922 932 -37 45 -187 243 -215 285 -49 73 -181 272 -202 305 -102 161 -115 184 -251 450 -381 740 -600 1533 -654 2365 -13 205 -13 656 0 861 40 621 195 1294 433 1879 79 196 288 624 358 735 8 14 33 54 54 90 59 100 122 197 261 400 296 433 847 1007 1273 1327 31 23 83 62 116 87 73 55 179 131 241 171 25 17 71 47 103 67 52 34 115 71 286 170 85 49 435 227 490 250 22 9 90 37 150 63 404 171 831 296 1280 376 149 26 487 68 615 77 128 9 832 8 950 0 520 -38 1062 -152 1562 -329 167 -59 402 -153 423 -169 6 -4 26 -13 46 -19 56 -18 513 -256 637 -331 41 -25 89 -54 107 -65 31 -18 51 -31 158 -104 21 -14 55 -37 76 -51 104 -67 361 -266 485 -374 38 -34 94 -83 125 -110 97 -85 393 -381 481 -482 47 -53 110 -125 141 -159 31 -34 62 -72 68 -83 6 -12 33 -34 59 -49 l47 -28 2930 -3 c2114 -2 2943 0 2975 8 81 20 111 40 131 87 l19 45 0 2612 0 2612 -26 52 c-45 91 160 83 -2017 82 l-1932 0 -84 62 c-137 102 -505 354 -679 464 -29 19 -76 49 -105 67 -50 33 -91 57 -296 179 -262 155 -700 380 -1036 533 -27 12 -81 37 -118 54 -37 17 -70 31 -73 31 -3 0 -30 11 -60 25 -30 14 -57 25 -60 25 -3 0 -24 8 -47 19 -23 10 -73 31 -112 45 -38 15 -83 33 -100 41 -28 12 -60 24 -245 92 -78 28 -634 209 -705 229 -27 8 -88 25 -135 38 -47 13 -141 39 -210 57 -69 18 -131 37 -137 42 -10 7 -13 137 -13 587 0 317 3 580 7 583 3 4 2772 6 6152 4 l6146 -3 160 -21z m5693 14 c9 -7 -4 -28 -50 -80 -135 -154 -171 -205 -246 -362 -92 -189 -114 -302 -127 -645 -6 -170 -41 -365 -97 -540 -40 -126 -141 -351 -188 -420 -10 -14 -38 -59 -64 -100 -97 -155 -324 -389 -487 -500 -171 -118 -412 -222 -569 -248 -36 -6 -92 -16 -125 -21 -140 -23 -409 -5 -584 40 -78 20 -181 56 -261 91 -201 90 -402 235 -564 408 -148 158 -228 273 -325 465 -144 286 -226 627 -222 929 3 213 -73 487 -182 656 -79 123 -140 205 -199 266 -32 33 -55 63 -52 67 10 10 4326 4 4342 -6z m10682 4 c19 -5 114 -15 210 -21 292 -20 498 -73 740 -192 239 -118 440 -298 528 -474 51 -101 64 -163 73 -339 4 -93 10 -188 12 -210 3 -22 10 -78 15 -125 33 -263 157 -653 284 -890 53 -98 56 -103 126 -207 23 -34 42 -65 42 -68 0 -11 122 -164 206 -259 116 -129 328 -312 414 -356 l30 -16 0 -8604 c0 -4732 -4 -8608 -9 -8613 -7 -7 -84 81 -141 163 -13 19 -43 58 -65 87 -22 28 -69 90 -105 138 -36 48 -86 112 -111 143 -25 32 -57 73 -70 93 -13 20 -67 92 -119 159 -52 68 -117 153 -145 191 -42 56 -321 426 -454 601 -20 26 -63 83 -96 128 -33 44 -83 108 -111 143 -28 34 -63 80 -78 102 -26 40 -76 107 -181 240 -50 64 -87 113 -185 245 -52 71 -299 397 -345 457 -22 28 -67 88 -100 133 -33 44 -83 109 -111 143 -27 34 -59 76 -69 92 -11 17 -38 53 -60 80 -23 28 -55 69 -71 92 -16 23 -69 95 -119 159 -49 64 -112 147 -140 184 -73 99 -283 377 -330 437 -22 28 -67 88 -100 132 -33 45 -78 104 -100 132 -22 28 -53 69 -70 93 -16 23 -48 65 -71 92 -23 27 -52 65 -65 85 -13 20 -67 92 -119 159 -52 68 -117 153 -145 191 -42 56 -321 426 -454 601 -20 26 -63 83 -96 128 -33 44 -83 108 -111 143 -28 34 -63 80 -78 102 -26 40 -76 107 -181 240 -50 64 -87 113 -185 245 -52 71 -299 397 -345 457 -22 28 -67 88 -100 133 -33 44 -83 109 -111 143 -27 34 -59 76 -69 92 -11 17 -38 53 -60 80 -23 28 -55 69 -71 92 -16 23 -69 95 -119 159 -49 64 -112 147 -140 184 -27 37 -111 147 -185 245 -74 97 -149 196 -165 219 -17 23 -55 74 -85 113 -30 40 -84 111 -120 158 -36 48 -86 112 -111 143 -25 32 -57 73 -70 93 -13 20 -67 92 -119 159 -52 68 -117 153 -145 191 -27 37 -117 156 -200 264 -82 108 -157 206 -165 218 -8 12 -40 54 -70 94 -30 39 -82 108 -115 153 -33 44 -83 108 -111 143 -28 34 -63 80 -78 102 -26 40 -76 107 -181 240 -30 39 -76 99 -103 134 -97 131 -120 162 -252 337 -74 98 -153 202 -175 231 -22 28 -67 88 -100 133 -33 44 -83 109 -111 144 -28 34 -63 80 -78 102 -26 39 -79 109 -181 239 -30 39 -76 99 -103 134 -95 130 -150 202 -282 376 -74 97 -149 196 -165 219 -17 23 -56 76 -88 117 -31 41 -85 111 -119 157 -35 45 -84 108 -109 140 -25 31 -57 73 -70 93 -13 20 -67 92 -119 159 -52 68 -117 154 -145 191 -27 37 -77 102 -110 145 -33 42 -82 107 -110 145 -48 65 -75 100 -210 279 -33 43 -87 115 -120 160 -33 44 -83 108 -111 143 -28 34 -63 80 -78 102 -26 40 -76 107 -181 240 -30 39 -76 99 -103 134 -97 131 -120 162 -252 337 -74 98 -153 202 -175 231 -22 28 -67 88 -100 133 -33 44 -83 109 -111 144 -28 34 -63 80 -78 102 -26 39 -79 109 -181 239 -30 39 -76 99 -103 134 -95 130 -150 202 -282 376 -74 97 -149 196 -165 219 -17 23 -56 76 -88 117 -31 41 -85 111 -119 157 -35 45 -84 108 -109 140 -25 31 -59 76 -75 99 -16 23 -69 95 -119 159 -49 64 -112 147 -140 185 -66 90 -246 327 -313 412 -61 77 -62 90 -13 161 87 126 210 423 276 661 62 227 93 428 101 663 3 92 10 187 15 211 13 60 50 139 98 208 39 57 180 199 255 258 152 118 423 235 668 289 115 26 364 54 518 59 236 8 8929 6 8960 -2z m6084 2 c3 -4 -33 -48 -81 -98 -117 -122 -180 -210 -253 -356 -63 -125 -120 -351 -120 -478 0 -126 -19 -349 -40 -457 -22 -118 -70 -290 -107 -384 -28 -70 -139 -292 -175 -351 -116 -187 -333 -419 -504 -541 -150 -107 -403 -222 -565 -257 -199 -44 -487 -41 -693 6 -142 32 -337 109 -446 175 -340 208 -560 446 -738 797 -148 291 -222 592 -222 906 0 232 -93 567 -194 700 -13 17 -30 44 -39 60 -20 40 -107 147 -170 212 -53 55 -53 58 8 66 53 7 4332 7 4339 0z m-17384 -2914 c0 -5 21 -36 48 -68 26 -32 62 -77 79 -102 18 -24 62 -82 97 -129 36 -47 86 -114 113 -150 26 -36 64 -85 84 -110 20 -25 50 -63 65 -86 16 -22 53 -72 81 -110 120 -159 180 -237 219 -287 23 -28 57 -73 75 -99 19 -26 75 -99 124 -164 50 -64 113 -147 140 -184 28 -37 77 -102 110 -145 33 -43 83 -108 110 -145 112 -151 152 -204 191 -253 23 -29 55 -70 70 -93 39 -54 145 -195 187 -247 19 -23 48 -60 63 -83 16 -22 72 -96 124 -164 52 -67 111 -144 130 -170 90 -122 138 -186 170 -225 19 -23 58 -72 85 -110 91 -125 199 -267 307 -408 29 -38 57 -76 62 -85 5 -10 23 -33 41 -52 18 -19 50 -60 71 -91 46 -65 121 -165 199 -264 71 -90 137 -178 177 -235 17 -25 45 -61 62 -81 17 -19 54 -66 81 -104 86 -118 195 -263 307 -408 29 -38 57 -76 62 -85 5 -10 30 -42 56 -72 26 -30 55 -68 66 -85 10 -16 35 -50 55 -75 20 -25 52 -66 70 -92 19 -26 75 -99 124 -164 50 -64 113 -147 140 -184 28 -37 77 -102 110 -145 33 -43 83 -108 110 -145 71 -95 148 -197 192 -253 21 -27 52 -68 68 -91 41 -57 146 -197 188 -249 19 -23 48 -60 63 -83 16 -22 72 -96 124 -164 52 -67 111 -144 130 -170 19 -27 69 -92 110 -145 82 -107 163 -215 236 -315 27 -36 65 -85 85 -110 20 -25 50 -63 65 -86 48 -68 130 -176 166 -218 18 -21 51 -64 73 -96 47 -67 123 -168 200 -265 71 -90 137 -178 177 -235 17 -25 45 -61 62 -81 17 -19 54 -66 81 -104 86 -118 195 -263 307 -408 29 -38 57 -76 62 -85 5 -10 30 -42 56 -72 26 -30 55 -68 66 -85 10 -16 35 -50 55 -75 20 -25 52 -66 70 -92 19 -26 75 -99 124 -164 50 -64 113 -147 140 -184 28 -37 77 -102 110 -145 33 -43 83 -108 110 -145 71 -95 148 -197 192 -253 21 -27 52 -68 68 -91 41 -57 146 -197 188 -249 19 -23 48 -60 63 -83 16 -22 72 -96 124 -164 52 -67 111 -144 130 -170 19 -27 69 -92 110 -145 82 -107 163 -215 236 -315 27 -36 65 -85 85 -110 20 -25 50 -63 65 -86 48 -68 130 -176 166 -218 18 -21 51 -64 73 -96 47 -67 123 -168 200 -265 71 -90 137 -178 177 -235 17 -25 45 -61 62 -81 17 -19 54 -66 81 -104 86 -118 195 -263 307 -408 29 -38 57 -76 62 -85 5 -10 30 -42 56 -72 26 -30 58 -71 71 -91 27 -41 102 -141 184 -244 58 -73 126 -164 185 -245 19 -26 69 -92 110 -145 41 -54 98 -128 125 -165 57 -77 131 -175 207 -273 29 -38 57 -76 62 -84 5 -9 37 -52 72 -97 121 -154 139 -178 169 -220 17 -24 73 -98 125 -166 52 -67 111 -144 130 -170 19 -27 69 -92 110 -145 41 -54 98 -128 125 -165 102 -138 151 -203 191 -253 23 -29 55 -70 70 -93 49 -69 131 -177 166 -218 18 -21 51 -64 73 -96 47 -67 123 -168 200 -265 71 -90 137 -178 177 -235 17 -25 45 -61 62 -81 17 -19 54 -66 81 -104 86 -118 195 -263 307 -408 29 -38 57 -76 62 -85 5 -10 30 -42 56 -72 26 -30 58 -71 71 -91 27 -41 102 -141 184 -244 54 -69 101 -131 200 -265 28 -37 77 -102 110 -145 33 -43 83 -108 110 -145 28 -37 74 -98 103 -135 28 -37 52 -76 53 -86 0 -11 0 -65 1 -121 l0 -102 -33 -29 c-19 -16 -46 -35 -61 -43 -81 -43 -428 -329 -428 -353 0 -4 -23 -32 -51 -62 -28 -30 -82 -95 -120 -145 -93 -124 -92 -123 -121 -75 -12 22 -56 82 -95 133 -40 51 -93 120 -118 153 -25 33 -70 92 -100 130 -30 39 -80 104 -111 145 -30 41 -108 144 -172 228 -65 85 -131 173 -147 196 -48 66 -140 185 -191 249 -26 32 -61 78 -78 102 -17 24 -71 97 -121 161 -49 64 -106 138 -125 164 -19 26 -82 109 -140 184 -58 76 -114 150 -125 166 -38 54 -120 161 -171 224 -28 34 -62 78 -75 98 -13 19 -67 91 -119 158 -52 68 -117 153 -145 190 -43 59 -197 262 -334 442 -124 163 -173 226 -233 305 -37 49 -90 117 -117 153 -28 36 -76 99 -107 140 -30 41 -108 144 -172 228 -65 85 -133 175 -152 202 -19 26 -68 90 -107 141 -40 52 -93 121 -118 154 -25 33 -70 92 -100 130 -30 39 -76 99 -103 134 -93 126 -118 160 -207 276 -49 64 -104 136 -120 159 -50 69 -141 187 -192 250 -26 32 -59 75 -73 96 -14 21 -68 93 -120 160 -52 67 -111 144 -130 170 -19 27 -82 110 -140 185 -58 75 -114 149 -125 165 -37 52 -119 161 -171 224 -28 34 -63 80 -78 102 -29 44 -103 141 -170 224 -25 30 -66 85 -93 121 -41 57 -160 215 -332 441 -22 29 -69 90 -103 136 -35 45 -87 112 -116 148 -29 37 -58 76 -64 88 -6 11 -31 44 -54 71 -24 28 -65 80 -91 117 -26 36 -109 146 -183 243 -74 97 -149 196 -165 219 -47 64 -139 184 -191 249 -26 32 -61 78 -78 102 -17 24 -71 97 -121 161 -49 64 -106 138 -125 164 -60 81 -182 243 -225 297 -22 28 -67 88 -100 133 -33 44 -83 109 -111 144 -28 34 -62 78 -75 98 -13 19 -67 91 -119 158 -52 67 -111 144 -130 170 -19 27 -82 110 -140 185 -58 75 -112 146 -120 158 -8 12 -41 56 -72 97 -32 41 -86 112 -120 158 -35 45 -87 112 -116 148 -29 37 -58 76 -64 88 -6 11 -31 44 -54 71 -24 28 -65 80 -91 116 -26 37 -109 146 -183 244 -74 97 -151 198 -170 225 -19 26 -68 90 -107 141 -40 52 -93 121 -118 154 -25 33 -70 92 -100 130 -30 39 -80 104 -111 145 -30 41 -108 144 -172 228 -65 85 -131 173 -147 196 -48 66 -140 185 -191 249 -26 32 -61 78 -78 102 -17 24 -71 97 -121 161 -49 64 -106 138 -125 164 -19 26 -82 109 -140 184 -58 76 -114 150 -125 166 -38 54 -120 161 -171 224 -28 34 -62 78 -75 98 -13 19 -67 91 -119 158 -52 68 -117 153 -145 190 -43 59 -197 262 -334 442 -22 29 -69 90 -103 136 -35 45 -87 112 -116 148 -29 37 -58 76 -64 88 -6 11 -31 44 -54 71 -24 28 -65 80 -91 117 -26 37 -109 146 -183 243 -74 97 -151 198 -170 224 -19 27 -68 91 -107 142 -40 52 -93 121 -118 154 -25 33 -70 92 -100 130 -30 39 -76 99 -103 134 -93 126 -118 160 -207 276 -49 64 -104 136 -120 159 -50 69 -141 187 -192 250 -26 32 -59 75 -73 96 -14 21 -68 93 -120 160 -52 67 -111 144 -130 170 -19 27 -82 110 -140 185 -58 75 -114 149 -125 165 -37 52 -119 161 -171 224 -28 34 -63 80 -78 102 -29 44 -103 141 -170 224 -25 30 -66 85 -93 122 -26 36 -89 120 -139 185 -148 194 -145 188 -142 279 l3 78 165 56 c171 57 348 140 467 216 104 66 253 178 319 238 55 50 74 59 74 35z m-2495 -369 c254 -123 442 -178 748 -219 l127 -16 0 -8925 c0 -4909 0 -8926 0 -8926 0 -1 -26 5 -57 12 -193 46 -307 59 -513 58 -207 -1 -351 -18 -495 -58 -27 -8 -66 -16 -85 -18 l-35 -3 -7 105 c-9 141 -5 18142 4 18156 5 8 35 -6 90 -43 46 -30 146 -85 223 -123z m17134 -179 c20 -6 63 -17 96 -25 34 -9 130 -25 215 -37 242 -33 483 -19 748 44 47 12 64 13 68 4 2 -7 3 -4051 2 -8987 -3 -7971 -5 -8975 -18 -8973 -8 1 -69 16 -134 32 -207 53 -365 71 -581 67 -140 -2 -222 -9 -313 -25 -68 -12 -130 -20 -138 -17 -12 5 -14 1270 -14 8959 0 4925 3 8957 7 8960 9 9 19 9 62 -2z m-15557 -1278 c37 -49 85 -110 106 -138 22 -27 51 -66 64 -87 14 -20 45 -60 70 -90 24 -29 58 -72 74 -94 16 -23 63 -86 104 -139 41 -54 98 -128 125 -165 57 -77 131 -175 207 -273 29 -38 57 -76 62 -85 5 -10 22 -31 38 -48 16 -17 50 -60 76 -97 26 -36 88 -118 137 -183 111 -144 156 -203 220 -290 28 -37 69 -90 91 -118 23 -28 55 -69 70 -92 39 -55 120 -164 169 -225 22 -28 56 -72 75 -98 19 -26 78 -103 130 -171 52 -67 109 -142 126 -167 18 -24 41 -54 53 -67 11 -12 42 -52 68 -88 67 -92 140 -188 197 -260 26 -34 56 -74 65 -88 14 -22 59 -81 180 -235 21 -27 50 -66 63 -87 14 -20 45 -60 70 -90 24 -29 65 -82 91 -118 26 -36 72 -96 102 -135 30 -38 76 -99 102 -135 26 -36 64 -85 84 -110 20 -25 50 -63 65 -86 16 -22 61 -83 101 -135 40 -52 93 -121 117 -154 25 -33 70 -91 101 -130 30 -38 73 -95 96 -125 23 -30 66 -88 97 -129 32 -40 80 -104 107 -141 59 -80 134 -179 207 -273 29 -38 57 -76 62 -85 5 -10 22 -31 38 -48 16 -17 50 -60 76 -97 26 -36 88 -118 137 -183 50 -64 104 -136 121 -161 18 -24 41 -54 53 -67 11 -12 42 -52 68 -88 67 -92 140 -188 197 -260 26 -34 55 -74 64 -88 9 -14 37 -50 63 -80 25 -30 57 -71 70 -91 13 -20 67 -92 119 -159 52 -68 118 -153 145 -190 28 -37 77 -102 110 -145 33 -43 83 -108 110 -145 83 -112 256 -338 329 -432 26 -34 55 -74 64 -88 9 -14 37 -50 63 -80 25 -30 60 -75 77 -100 18 -25 63 -85 102 -135 38 -49 91 -119 117 -155 26 -36 64 -85 84 -110 20 -25 50 -63 65 -86 16 -22 61 -83 101 -135 40 -52 93 -121 117 -154 25 -33 70 -91 101 -130 30 -38 76 -99 102 -134 27 -35 66 -87 88 -116 22 -29 63 -84 90 -121 28 -37 69 -90 91 -118 23 -28 55 -69 70 -92 49 -69 131 -177 166 -218 18 -21 51 -64 73 -96 22 -31 83 -112 135 -180 52 -67 109 -142 126 -167 18 -24 41 -54 53 -67 11 -12 42 -52 68 -88 67 -92 140 -188 197 -260 26 -34 55 -74 64 -88 9 -14 37 -50 63 -80 25 -30 57 -71 70 -91 30 -46 115 -158 173 -229 25 -30 66 -85 93 -121 26 -37 75 -101 108 -144 33 -43 83 -108 110 -145 83 -112 256 -338 329 -432 26 -34 55 -74 64 -88 9 -14 37 -50 63 -80 25 -30 59 -74 75 -96 16 -23 63 -86 104 -139 41 -54 98 -128 125 -165 57 -77 131 -175 207 -273 29 -38 57 -76 62 -85 5 -10 22 -31 38 -48 16 -17 50 -60 76 -97 26 -36 88 -118 137 -183 111 -144 156 -203 220 -290 28 -37 69 -90 91 -118 23 -28 55 -69 70 -92 52 -73 128 -174 180 -237 28 -34 62 -78 75 -98 13 -20 67 -92 119 -159 52 -67 109 -142 126 -167 18 -24 41 -54 53 -67 11 -12 42 -52 68 -88 67 -92 140 -188 197 -260 26 -34 56 -74 65 -88 9 -14 43 -60 76 -102 112 -143 170 -220 179 -236 6 -10 33 -45 60 -78 28 -34 70 -88 94 -120 23 -33 67 -90 97 -129 30 -38 76 -99 102 -135 26 -36 64 -85 84 -110 20 -25 50 -63 65 -86 16 -22 61 -83 101 -135 40 -52 93 -121 117 -154 25 -33 70 -91 101 -130 30 -38 73 -95 96 -125 23 -30 66 -88 97 -129 32 -40 80 -104 107 -141 59 -80 134 -179 207 -273 29 -38 57 -76 62 -85 5 -10 22 -31 38 -48 16 -17 50 -60 76 -97 26 -36 88 -118 137 -183 50 -64 104 -136 121 -161 18 -24 41 -54 53 -67 11 -12 42 -52 68 -88 67 -92 140 -188 197 -260 26 -34 55 -74 64 -88 9 -14 37 -50 63 -80 25 -30 57 -71 70 -91 13 -20 67 -91 119 -159 52 -67 103 -135 114 -152 l19 -29 -26 -82 c-71 -225 -115 -481 -127 -746 -10 -211 -13 -227 -79 -349 -43 -80 -201 -239 -307 -311 -87 -59 -233 -135 -348 -181 -122 -48 -366 -106 -531 -126 l-150 -19 -4775 -3 c-4293 -3 -4797 -1 -4990 13 -238 18 -305 26 -430 55 -176 40 -363 117 -526 214 -131 78 -332 281 -379 381 -63 133 -67 152 -75 335 -16 341 -74 638 -176 902 -35 89 -97 231 -114 258 -5 8 -26 47 -46 85 -49 95 -191 305 -259 385 -139 160 -172 194 -282 287 -103 87 -204 160 -295 217 l-28 16 0 8499 c0 4674 3 8501 7 8505 5 4 15 -2 23 -13 8 -12 45 -60 82 -108z m-1032 -17157 c190 -27 320 -70 507 -166 141 -72 208 -112 248 -149 17 -15 48 -40 70 -56 101 -73 313 -314 407 -462 56 -89 122 -220 152 -303 15 -41 34 -88 41 -105 19 -44 73 -269 85 -355 6 -41 15 -158 20 -260 5 -102 14 -211 19 -242 12 -72 48 -202 68 -248 83 -188 173 -329 284 -442 42 -43 74 -80 71 -83 -10 -10 -4310 -5 -4337 5 l-27 10 76 82 c154 165 266 366 318 566 25 98 31 148 39 307 10 225 22 324 54 461 69 291 195 560 364 779 117 151 365 381 469 434 22 11 43 25 47 30 10 17 197 102 301 137 85 28 176 48 364 77 51 8 258 -2 360 -17z m17195 -28 c243 -35 368 -73 560 -169 158 -78 240 -133 369 -246 292 -257 486 -565 595 -948 36 -124 69 -369 70 -518 2 -206 42 -372 131 -552 71 -142 126 -222 224 -327 40 -43 71 -80 68 -83 -7 -6 -4337 -6 -4344 0 -3 3 29 40 69 83 71 73 162 192 196 257 117 219 158 369 162 600 3 165 15 278 46 429 33 165 108 377 176 502 15 29 39 71 52 95 42 78 139 212 218 303 87 100 254 252 323 293 25 15 62 40 83 55 49 34 198 107 302 146 74 28 204 59 335 80 77 12 281 13 365 0z m-41308 -589 c59 -33 137 -77 173 -96 36 -20 104 -58 152 -84 151 -84 391 -201 683 -334 28 -13 80 -37 118 -54 37 -17 70 -31 73 -31 3 0 20 -7 37 -15 18 -8 118 -49 222 -90 163 -66 240 -94 465 -175 205 -73 563 -185 755 -235 232 -61 318 -85 322 -88 2 -3 4 -240 4 -528 l-1 -524 -2706 -2 c-1488 -2 -2709 -1 -2713 2 -6 3 2297 2315 2306 2315 0 0 50 -27 110 -61z"/>
<path d="M49310 35853 c-162 -15 -365 -93 -500 -193 -208 -155 -346 -385 -401 -672 -61 -318 52 -679 289 -921 146 -149 341 -246 568 -282 104 -17 115 -17 244 1 129 18 214 44 321 98 288 146 488 433 545 783 38 241 -16 480 -173 753 -33 57 -217 240 -264 263 -20 9 -42 23 -48 31 -28 33 -248 112 -366 130 -50 8 -168 13 -215 9z m230 -613 c129 -66 223 -181 250 -309 7 -30 10 -98 8 -150 -3 -82 -8 -106 -35 -164 -41 -87 -128 -179 -208 -220 -55 -28 -69 -31 -160 -31 -89 -1 -107 2 -160 27 -105 49 -196 154 -233 267 -31 96 -36 164 -19 246 37 172 145 298 302 351 62 20 200 11 255 -17z"/>
<path d="M65930 35816 c-119 -27 -187 -52 -279 -102 -324 -177 -531 -536 -531 -919 0 -244 92 -497 249 -688 54 -66 184 -181 219 -194 9 -4 31 -17 48 -30 43 -32 140 -70 254 -100 257 -66 477 -29 760 130 67 37 239 207 268 264 12 23 27 45 33 49 15 9 80 151 107 234 53 162 69 314 47 455 -33 208 -81 337 -182 488 -72 107 -149 185 -248 252 -237 159 -500 216 -745 161z m359 -606 c75 -40 163 -132 196 -205 21 -45 47 -158 48 -205 0 -8 -5 -48 -12 -88 -20 -124 -86 -232 -184 -303 -74 -53 -136 -73 -227 -73 -64 0 -85 5 -140 31 -82 40 -138 88 -189 162 -59 87 -74 149 -69 290 3 101 7 124 31 175 47 101 164 213 250 240 36 11 80 15 143 12 80 -3 98 -7 153 -36z"/>
<path d="M48538 14410 c-107 -22 -143 -34 -233 -75 -284 -129 -489 -399 -560 -735 -28 -134 -30 -233 -6 -356 38 -200 97 -339 205 -485 150 -202 384 -335 658 -377 93 -13 123 -14 208 -4 54 7 131 22 171 33 151 42 342 154 445 261 186 192 303 496 291 758 -13 287 -111 515 -305 713 -42 44 -94 87 -114 98 -20 10 -40 23 -43 29 -10 16 -142 80 -219 106 -162 56 -337 67 -498 34z m355 -599 c65 -34 171 -146 205 -218 25 -54 27 -67 27 -188 l0 -130 -33 -70 c-43 -90 -117 -167 -202 -208 -60 -29 -73 -32 -165 -32 -135 0 -178 17 -273 109 -79 76 -104 117 -128 211 -56 211 41 428 231 522 l70 34 110 -3 c93 -3 117 -7 158 -27z"/>
<path d="M65790 14380 c-164 -37 -276 -87 -405 -180 -92 -67 -121 -96 -197 -200 -86 -117 -131 -211 -175 -369 -23 -85 -26 -114 -26 -251 0 -138 3 -166 27 -255 40 -146 97 -268 170 -369 41 -56 162 -178 191 -194 17 -8 46 -28 65 -43 57 -46 200 -107 316 -136 180 -44 395 -31 559 33 372 146 607 458 655 870 30 268 -88 606 -284 813 -37 39 -179 151 -191 151 -3 0 -22 11 -43 25 -55 36 -152 72 -270 100 -125 30 -276 32 -392 5z m251 -574 c120 -9 236 -100 306 -236 l38 -75 0 -115 0 -115 -36 -76 c-69 -143 -188 -230 -347 -253 -52 -8 -148 15 -215 52 -74 40 -157 135 -190 218 -27 66 -29 78 -25 185 3 103 6 120 34 179 35 74 97 148 151 181 57 35 154 67 193 63 19 -2 60 -5 91 -8z"/>
<path d="M73577 37116 c-47 -17 -64 -32 -84 -70 -13 -26 -15 -114 -15 -707 l0 -678 23 -42 c41 -73 65 -84 177 -81 53 1 1169 5 2479 7 l2382 5 219 -233 c120 -127 269 -287 330 -353 l112 -122 -2 -1982 -3 -1982 -63 -25 c-87 -35 -179 -125 -224 -219 l-33 -69 -2024 -5 -2024 -5 -167 180 c-92 99 -222 241 -289 315 l-122 135 6 50 c3 28 9 70 13 95 9 55 -16 181 -51 261 -32 71 -114 161 -186 202 l-56 33 0 979 0 978 49 31 c87 56 149 121 185 192 60 121 73 220 46 347 -21 100 -61 173 -134 246 -74 74 -155 115 -270 137 -68 13 -84 13 -161 -2 -203 -39 -347 -170 -399 -361 -25 -94 -27 -154 -6 -234 34 -132 92 -219 201 -303 l64 -49 0 -983 0 -983 -42 -28 c-62 -41 -139 -122 -170 -179 -33 -62 -68 -185 -68 -242 0 -114 72 -283 154 -361 118 -111 297 -163 446 -130 25 5 50 11 56 12 6 1 53 -45 105 -103 52 -57 153 -167 224 -245 72 -77 175 -191 229 -252 60 -68 116 -123 143 -138 l45 -25 2132 1 2131 0 12 -24 c7 -13 33 -42 57 -63 144 -127 325 -167 502 -110 88 28 141 62 211 134 85 88 139 235 131 355 -10 146 -92 311 -188 375 -19 13 -35 30 -34 38 0 8 1 239 2 515 l2 501 32 26 c18 15 88 80 155 146 l122 119 43 -18 c64 -26 215 -24 292 3 66 24 184 92 212 123 86 95 154 301 133 400 -25 115 -33 139 -70 206 -47 86 -102 137 -202 187 -94 48 -196 64 -302 48 -83 -13 -125 -30 -206 -83 -69 -46 -107 -89 -154 -173 -20 -37 -41 -64 -46 -60 -5 3 -9 449 -9 1094 l0 1088 -20 46 c-21 49 -82 117 -548 614 -180 191 -300 311 -326 325 l-41 22 -2393 5 -2393 5 0 360 0 360 38 7 c21 4 109 7 195 6 l158 -1 62 -75 c35 -41 72 -87 82 -101 11 -14 36 -44 56 -66 20 -22 47 -55 59 -73 13 -18 41 -42 64 -55 l42 -22 2190 -3 2190 -2 72 -72 c40 -40 73 -79 73 -88 0 -8 -9 -44 -20 -78 -65 -207 43 -467 235 -564 132 -67 248 -83 365 -49 97 27 159 62 226 128 76 73 125 168 144 276 29 171 -38 349 -177 464 -59 49 -89 65 -177 92 -71 22 -214 29 -231 12 -6 -6 -65 43 -155 130 -80 77 -160 147 -178 155 -28 12 -317 14 -2211 14 l-2178 0 -54 62 c-30 34 -61 72 -69 84 -39 58 -176 202 -213 224 l-42 25 -420 2 c-334 2 -428 0 -458 -11z"/>
<path d="M74605 35180 c-22 -11 -46 -30 -54 -42 -41 -66 -41 -46 -41 -1858 0 -1176 3 -1748 11 -1775 19 -74 32 -97 68 -120 20 -12 68 -49 108 -81 70 -58 139 -112 308 -244 46 -36 99 -78 118 -93 74 -59 -16 -56 1918 -57 977 -1 1789 2 1805 6 16 4 35 12 43 18 43 34 42 -20 42 1883 l-1 1806 -31 49 c-17 26 -34 48 -38 48 -5 0 -55 42 -112 93 -57 51 -138 120 -179 153 -41 34 -109 93 -150 131 -41 39 -89 77 -107 87 -29 15 -181 16 -1850 16 l-1818 -1 -40 -19z m3613 -472 c40 -35 123 -106 183 -158 l109 -95 -2 -1560 -3 -1560 -1579 -3 -1578 -2 -32 26 c-47 38 -183 144 -235 183 -25 19 -69 54 -98 78 l-52 45 2 1546 c1 851 5 1552 9 1557 4 7 547 9 1604 8 l1598 -3 74 -62z"/>
<path d="M75501 34528 c-58 -10 -81 -25 -97 -65 -23 -53 -21 -2620 1 -2663 9 -18 35 -38 69 -54 l55 -26 1243 0 1244 0 63 21 c36 12 68 30 75 43 34 53 36 118 36 1360 0 1114 -2 1237 -16 1282 -21 61 -48 92 -88 99 -45 9 -2537 11 -2585 3z m2274 -1403 l0 -990 -985 0 -985 0 -3 980 c-1 539 0 986 3 993 3 10 206 12 987 10 l983 -3 0 -990z"/>
<path d="M76750 33850 c-524 -4 -618 -7 -638 -20 -50 -33 -52 -65 -52 -714 0 -694 -5 -654 90 -693 l55 -22 595 -1 596 0 44 23 c78 39 75 7 78 687 l2 606 -27 54 c-28 54 -52 74 -103 81 -14 2 -302 2 -640 -1z m355 -730 l0 -305 -315 0 -315 0 -3 295 c-1 162 0 301 3 308 3 10 71 12 317 10 l313 -3 0 -305z"/>
<path d="M75825 23891 c-84 -17 -197 -71 -249 -119 -16 -15 -48 -57 -72 -94 l-44 -67 -882 3 c-486 2 -914 6 -953 9 -124 9 -176 -16 -214 -102 l-20 -47 -2 -649 c-2 -577 0 -654 14 -688 30 -71 -27 -67 1072 -67 l986 -1 27 -47 c39 -68 138 -163 202 -193 144 -69 310 -75 426 -14 16 8 35 15 42 15 14 0 3526 -3491 3585 -3564 20 -24 52 -48 74 -56 32 -12 221 -16 1158 -20 l1120 -5 -3 -50 c-2 -37 -9 -55 -25 -68 -12 -10 -47 -38 -78 -62 -32 -25 -75 -72 -97 -105 l-41 -60 -1008 0 c-923 0 -1009 1 -1018 16 -32 53 -103 128 -148 158 -168 112 -353 119 -530 23 l-57 -32 -1018 1015 c-2168 2163 -2558 2549 -2591 2565 -24 12 -47 16 -78 11 -24 -3 -294 -6 -601 -7 l-557 0 -31 58 c-18 32 -39 72 -48 89 -20 37 -80 96 -121 117 -98 53 -139 68 -208 79 -88 13 -196 1 -262 -29 -69 -32 -151 -82 -172 -105 -37 -41 -104 -162 -120 -217 -78 -268 88 -553 362 -622 28 -7 54 -16 59 -20 5 -5 -15 -19 -45 -32 -105 -47 -109 -69 -109 -587 0 -248 4 -430 10 -451 14 -51 50 -101 85 -119 21 -10 56 -14 115 -12 47 1 275 5 507 8 l421 5 154 -148 c84 -82 252 -242 373 -357 121 -115 326 -311 455 -435 129 -124 280 -269 335 -321 114 -108 294 -280 442 -422 l101 -96 -1 -175 0 -175 -1284 -1284 c-705 -705 -1283 -1281 -1284 -1278 0 3 -3 164 -5 358 l-4 352 48 54 c26 30 72 84 102 122 30 37 78 92 105 123 28 31 68 79 90 106 22 28 73 89 115 136 41 48 100 117 130 155 30 37 75 91 100 118 25 28 66 76 90 106 24 30 78 94 120 141 41 48 100 117 130 155 30 37 78 93 105 124 28 30 78 89 112 130 166 202 254 305 267 312 8 4 36 4 62 -1 86 -16 246 24 324 80 199 144 272 373 189 594 -45 122 -104 190 -214 251 -136 74 -273 88 -413 43 -29 -10 -38 -8 -75 18 -22 15 -68 53 -100 83 -33 30 -88 77 -123 105 -34 27 -142 118 -239 200 -97 83 -191 161 -209 175 -55 43 -149 122 -196 165 -25 23 -69 57 -99 75 l-53 34 -292 -3 c-198 -2 -299 -6 -316 -14 -62 -30 -95 -124 -86 -247 3 -47 6 -420 6 -830 l1 -745 -20 -5 c-38 -9 -131 -90 -170 -148 -41 -62 -74 -144 -91 -234 -9 -48 -8 -69 9 -142 11 -47 27 -101 35 -120 36 -86 139 -193 231 -239 47 -23 177 -57 221 -57 57 0 179 36 252 75 34 18 64 30 67 26 2 -5 -20 -37 -51 -72 -30 -35 -90 -107 -133 -159 -43 -52 -105 -125 -137 -162 -32 -37 -81 -95 -109 -129 -27 -34 -77 -92 -110 -129 -101 -112 -95 -63 -95 -830 0 -681 2 -719 39 -789 18 -33 84 -58 174 -65 66 -5 84 -3 115 13 57 30 3047 3026 3069 3076 16 35 18 78 21 342 2 199 0 316 -8 345 -13 50 -9 46 -670 677 -228 217 -476 454 -550 526 -74 72 -234 225 -355 340 -121 115 -278 266 -350 336 -71 69 -141 132 -155 140 -20 11 -112 15 -463 19 l-439 5 -3 120 c-2 66 0 137 3 158 l7 37 354 1 355 1 8 -21 c4 -12 26 -48 48 -81 52 -76 153 -144 264 -177 91 -27 149 -29 229 -8 32 8 64 15 72 15 7 0 66 -55 132 -122 286 -295 934 -960 1114 -1143 361 -367 803 -824 812 -840 5 -10 5 -27 -2 -43 -36 -87 -31 -236 10 -332 l21 -49 -43 -49 c-67 -75 -462 -498 -623 -667 -79 -82 -207 -220 -286 -305 -78 -85 -212 -229 -299 -320 -86 -91 -222 -235 -300 -320 -79 -85 -207 -222 -285 -305 -79 -82 -214 -226 -300 -320 -87 -93 -224 -240 -305 -325 -245 -258 -415 -440 -441 -474 -14 -18 -56 -64 -95 -102 -38 -38 -135 -139 -215 -224 -334 -358 -319 -344 -346 -331 -40 18 -160 13 -234 -9 -95 -28 -151 -63 -229 -139 -76 -75 -113 -151 -132 -271 -24 -157 38 -332 154 -433 34 -30 77 -62 95 -71 l32 -17 0 -272 c0 -151 5 -288 10 -308 14 -51 51 -101 85 -118 39 -19 166 -25 230 -10 l50 11 2062 2061 2061 2060 74 -12 c55 -9 92 -9 142 -1 77 12 91 8 75 -22 -8 -15 -9 -49 -4 -107 4 -47 8 -98 9 -113 1 -24 -291 -320 -2169 -2198 -1193 -1193 -2173 -2170 -2178 -2170 -4 0 -20 6 -35 14 -43 22 -149 46 -204 46 -172 0 -353 -109 -433 -260 -151 -289 -6 -636 302 -719 101 -27 165 -27 267 1 171 47 300 177 347 351 6 22 11 78 12 124 l2 83 2199 2199 c1907 1907 2202 2198 2220 2191 12 -4 51 -13 89 -19 77 -13 185 2 270 38 94 40 193 134 240 226 27 55 57 171 57 225 0 119 -67 276 -154 362 -97 96 -273 155 -403 137 -36 -5 -68 -7 -72 -4 -5 2 -8 46 -8 97 0 158 -60 292 -176 389 -73 61 -91 71 -186 99 -61 19 -88 22 -160 17 -246 -15 -422 -176 -465 -423 -13 -71 -5 -157 20 -238 5 -15 -359 -383 -1752 -1777 -967 -967 -1761 -1756 -1765 -1754 -4 3 4 33 16 67 12 35 26 94 30 131 7 75 -8 194 -30 224 -12 16 -8 24 38 73 29 30 214 228 412 440 198 211 462 493 586 625 124 132 319 341 434 465 115 124 253 270 305 325 53 55 159 168 235 250 134 144 269 289 792 845 131 140 270 289 309 330 38 41 145 156 239 255 l170 180 100 1 c113 2 189 25 286 87 72 46 106 86 151 177 49 99 71 209 56 287 -14 77 -46 172 -69 205 -11 15 -16 29 -11 32 5 3 151 -138 325 -312 299 -300 317 -320 317 -354 0 -82 64 -220 139 -301 35 -38 152 -101 225 -122 87 -25 185 -22 282 9 118 38 222 122 284 229 l27 48 1004 0 1004 0 7 -28 c11 -42 139 -169 200 -198 63 -31 146 -56 207 -62 110 -13 297 62 389 155 l52 53 0 293 0 293 -49 51 c-26 27 -71 62 -100 76 l-51 26 0 208 0 207 -24 52 c-16 35 -35 57 -56 68 -42 22 -156 33 -200 21 -22 -6 -443 -11 -1130 -12 l-1095 -2 -440 437 c-242 240 -852 845 -1355 1346 -503 500 -1115 1108 -1358 1350 l-443 440 -3 90 c-6 167 -74 299 -203 396 -90 68 -173 94 -298 93 -120 -1 -187 -22 -287 -90 -48 -32 -80 -65 -114 -115 l-48 -69 -825 2 -825 3 -1 345 0 345 828 3 c781 2 828 1 834 -15 22 -57 105 -145 185 -196 117 -74 288 -90 421 -41 23 9 50 17 59 17 11 1 697 -677 1823 -1803 1475 -1474 1805 -1809 1800 -1825 -35 -117 -27 -264 19 -365 79 -176 264 -296 451 -294 161 2 304 74 406 206 l55 73 520 3 c285 2 547 0 582 -3 58 -6 63 -9 76 -38 22 -52 116 -142 187 -178 35 -18 98 -42 139 -54 68 -19 82 -20 145 -9 135 24 235 74 321 162 l54 54 0 274 0 273 -26 38 c-60 89 -186 163 -320 189 -65 12 -84 12 -156 -2 -119 -22 -196 -62 -274 -142 -36 -37 -74 -84 -85 -105 l-19 -37 -572 2 -571 3 -33 50 c-18 28 -47 67 -65 88 -46 54 -177 122 -273 141 -72 15 -86 15 -164 0 l-85 -16 -1833 1833 -1832 1832 1 96 c1 138 -40 248 -135 355 -48 54 -179 121 -278 141 -87 17 -73 18 -175 -4z m-901 -2739 c3 -5 -24 -27 -59 -50 -63 -42 -74 -53 -139 -142 l-33 -45 -429 5 c-280 3 -428 8 -425 15 2 6 36 21 75 35 91 33 173 86 222 144 l38 46 373 0 c204 0 374 -4 377 -8z m3220 -2824 c-3 -4 -17 1 -32 12 -57 41 -162 72 -252 73 -47 1 -101 -2 -121 -6 l-37 -7 -618 632 c-651 667 -1335 1368 -1416 1454 l-49 50 16 59 c19 73 19 125 2 193 -8 28 -11 54 -8 57 7 8 2521 -2507 2515 -2517z m-3876 570 c61 -54 211 -179 332 -279 38 -31 102 -85 142 -121 40 -35 93 -79 118 -98 25 -19 84 -69 131 -111 48 -42 97 -82 109 -89 14 -8 19 -17 15 -28 -4 -9 -11 -42 -16 -72 -10 -60 10 -200 36 -250 l14 -27 -52 -64 c-28 -35 -85 -103 -126 -150 -42 -48 -101 -117 -131 -155 -30 -37 -76 -91 -101 -118 -25 -28 -74 -87 -108 -131 -35 -44 -71 -87 -80 -95 -10 -8 -40 -42 -67 -75 -105 -129 -157 -185 -165 -179 -5 3 -3 17 5 32 18 36 46 165 46 212 0 21 -11 77 -25 125 -42 145 -122 245 -248 312 -17 9 -18 48 -17 702 0 381 3 697 6 702 3 5 31 9 63 9 l58 0 61 -52z m46 -2069 c-3 -5 -10 -7 -15 -3 -5 3 -7 10 -3 15 3 5 10 7 15 3 5 -3 7 -10 3 -15z m-310 -3830 c-9 -10 -21 -16 -26 -13 -5 3 -2 14 8 25 9 10 21 16 26 13 5 -3 2 -14 -8 -25z"/>
<path d="M80468 17051 c-49 -14 -150 -108 -492 -458 -213 -219 -614 -627 -890 -908 -276 -280 -735 -748 -1020 -1040 -285 -291 -636 -649 -780 -795 -144 -146 -604 -614 -1021 -1040 -417 -426 -988 -1009 -1269 -1295 -281 -286 -562 -573 -625 -637 l-115 -118 -408 0 c-381 0 -411 -1 -446 -19 -44 -23 -67 -46 -82 -86 -16 -39 -15 -769 0 -825 11 -41 50 -94 81 -111 12 -6 251 -10 676 -10 l658 1 47 32 c25 18 1438 1430 3139 3138 l3093 3105 691 5 690 5 58 23 c101 41 105 62 109 532 l3 375 -25 44 c-14 25 -40 54 -59 65 l-34 19 -983 1 c-541 1 -990 -1 -996 -3z m1666 -531 l0 -105 -625 -2 c-343 -1 -637 -4 -654 -7 -33 -7 -374 -347 -4125 -4114 l-2154 -2162 -421 2 -420 3 0 99 0 99 322 -2 c299 -2 325 -1 365 17 56 25 42 11 649 632 287 294 645 659 794 810 149 151 606 617 1015 1035 409 418 868 886 1020 1040 152 154 824 839 1494 1523 l1218 1242 761 -2 761 -3 0 -105z"/>
<path d="M82310 15860 c-14 -4 -38 -8 -53 -9 -15 -1 -64 -15 -108 -32 -66 -26 -91 -42 -147 -97 -46 -46 -79 -90 -103 -140 l-37 -74 -369 1 c-203 0 -377 3 -385 6 -45 18 -110 -43 -1180 -1105 -1481 -1470 -4719 -4682 -4909 -4868 l-155 -153 -659 1 c-587 0 -664 -1 -709 -16 -58 -19 -84 -38 -98 -74 -14 -34 -10 -941 4 -997 9 -36 33 -65 168 -195 87 -84 357 -349 601 -588 244 -240 471 -455 503 -479 41 -31 71 -45 100 -48 23 -2 545 -5 1160 -6 l1119 -2 12 -40 c15 -52 86 -174 117 -200 32 -29 107 -79 143 -97 41 -21 164 -48 217 -48 52 0 165 31 231 63 l47 24 186 -188 c162 -163 192 -189 230 -198 32 -8 56 -8 88 0 39 10 193 161 1871 1839 l1827 1828 64 -13 c130 -27 277 1 382 73 29 20 78 65 107 99 45 53 60 80 85 159 36 113 38 178 9 287 -42 156 -166 288 -317 338 -238 79 -521 -38 -610 -252 -16 -41 -36 -102 -42 -136 -12 -59 -11 -85 6 -207 l7 -48 -1714 -1714 c-943 -943 -1717 -1714 -1721 -1714 -4 0 -59 50 -122 111 l-116 111 0 42 c-1 57 -41 195 -75 253 -111 189 -346 284 -557 224 -79 -23 -190 -86 -237 -135 l-35 -36 -1120 0 -1121 0 -360 352 c-198 193 -441 431 -540 528 l-180 178 -3 198 c-1 110 1 221 5 247 l8 48 580 -1 c689 0 642 -8 759 117 41 43 229 231 418 419 188 187 882 875 1541 1529 658 653 1197 1191 1197 1195 0 5 13 16 29 27 16 10 586 571 1267 1248 682 676 1320 1309 1419 1407 l180 178 359 0 358 1 16 -23 c8 -13 31 -40 50 -60 26 -27 32 -39 21 -42 -8 -3 -75 -6 -149 -9 -112 -3 -144 -7 -185 -26 -42 -18 -444 -415 -2660 -2631 l-2610 -2610 -60 0 c-65 0 -171 -27 -241 -60 -62 -31 -164 -134 -201 -205 -17 -33 -39 -99 -49 -147 l-18 -88 18 -87 c24 -115 65 -193 145 -271 74 -73 107 -92 212 -121 93 -26 163 -26 254 -2 186 51 298 161 356 351 28 94 23 203 -15 305 -15 39 -28 73 -29 77 -1 4 1141 1150 2538 2548 l2540 2540 145 -2 145 -3 5 -843 c3 -557 2 -846 -5 -852 -5 -4 -192 -8 -415 -9 l-405 -2 -57 65 c-89 99 -253 176 -376 176 -102 0 -272 -68 -345 -138 -79 -76 -142 -211 -155 -329 l-7 -63 -1394 -1394 -1393 -1394 -112 1 c-131 0 -204 -20 -296 -83 -75 -51 -123 -108 -165 -195 -44 -90 -55 -144 -49 -230 7 -91 18 -136 57 -215 61 -125 205 -234 343 -259 128 -23 263 6 383 84 70 45 78 54 126 127 85 131 108 344 49 463 l-15 29 453 453 c249 249 456 449 460 445 5 -5 9 -154 9 -332 l1 -323 -20 -19 c-16 -16 -24 -18 -40 -9 -32 17 -150 13 -222 -8 -192 -54 -306 -170 -360 -363 -24 -87 -25 -140 -4 -222 38 -150 129 -272 244 -330 151 -76 278 -84 425 -27 164 64 271 195 310 382 16 76 11 131 -20 235 -17 56 -10 73 38 102 27 16 39 33 56 83 l21 63 0 610 0 611 666 666 666 666 52 -28 c28 -16 85 -36 126 -45 41 -10 79 -21 84 -25 5 -4 -8 -16 -28 -25 -28 -14 -43 -32 -66 -79 l-29 -60 8 -490 c5 -269 9 -624 11 -789 l2 -298 -177 -179 c-97 -98 -198 -197 -223 -221 -70 -62 -1913 -1872 -1968 -1930 -43 -47 -110 -108 -118 -108 -4 0 -95 82 -202 183 -108 100 -236 218 -284 263 -49 44 -140 129 -203 188 -102 95 -121 108 -172 121 -49 13 -199 15 -1036 15 -538 -1 -983 2 -989 5 -6 4 -21 28 -35 55 -58 114 -253 220 -405 220 -135 -1 -286 -65 -372 -159 -61 -67 -100 -146 -124 -249 -15 -67 -15 -87 -4 -152 25 -153 91 -264 203 -344 156 -112 357 -123 535 -32 58 30 134 104 179 174 l34 52 937 0 937 0 175 -161 c96 -89 236 -218 310 -288 74 -70 164 -154 200 -187 36 -32 81 -79 101 -105 94 -117 191 -162 276 -126 25 10 905 864 1743 1693 129 127 423 416 653 640 296 290 424 422 439 452 l21 44 -4 716 -4 717 345 0 344 0 46 -68 c63 -95 136 -149 265 -196 145 -54 360 -7 485 105 l40 36 0 329 0 329 -45 44 c-89 88 -256 143 -382 125 -91 -13 -158 -35 -218 -74 -78 -51 -152 -131 -165 -178 l-5 -18 -435 1 c-239 0 -439 5 -443 9 -12 12 0 31 19 31 24 0 115 50 172 94 56 44 92 90 132 171 l25 50 540 5 c485 4 543 7 571 22 42 23 84 74 86 104 1 13 4 36 6 52 3 15 7 515 9 1112 4 1111 3 1138 -33 1197 -13 21 -12 24 18 39 18 9 59 37 90 63 l58 46 0 331 0 331 -32 35 c-41 43 -118 90 -183 111 -41 13 -167 40 -169 36 -1 -1 -12 -5 -26 -9z"/>
<path d="M81959 9520 c-65 -11 -177 -60 -230 -100 -98 -74 -168 -199 -190 -336 -9 -64 -10 -91 0 -129 l12 -49 -1385 -1385 c-1306 -1306 -1386 -1384 -1408 -1374 -73 36 -215 17 -338 -45 -203 -101 -311 -337 -254 -556 50 -193 188 -327 383 -370 94 -21 116 -20 209 4 157 40 266 123 330 251 l17 34 891 1 c491 1 907 4 925 8 41 7 102 61 123 107 9 19 28 55 43 81 29 49 138 244 161 288 7 14 25 46 40 72 50 87 120 213 149 266 15 29 39 73 53 97 14 24 47 83 73 130 l48 85 41 0 c55 0 150 26 225 61 182 85 297 308 263 509 -18 112 -41 162 -119 267 -41 55 -135 111 -240 143 -212 66 -475 -46 -569 -243 -66 -137 -77 -237 -41 -367 11 -41 31 -91 45 -111 22 -32 23 -39 12 -70 -6 -19 -24 -54 -38 -79 -15 -25 -54 -94 -86 -154 -32 -60 -66 -121 -74 -135 -9 -14 -36 -62 -60 -106 -25 -44 -52 -93 -62 -110 -9 -16 -27 -50 -41 -75 -13 -25 -49 -88 -79 -140 l-54 -95 -780 -3 c-428 -1 -784 0 -790 2 -6 2 590 606 1325 1340 1232 1233 1338 1336 1358 1327 37 -17 151 -41 191 -41 54 1 170 34 238 68 61 31 174 138 174 165 0 8 7 20 15 27 28 23 67 169 66 250 -1 178 -107 351 -266 433 -92 48 -223 72 -306 57z"/>
<path d="M72930 8376 c-218 -55 -346 -189 -382 -403 -29 -171 31 -339 162 -453 93 -81 241 -135 352 -128 l57 3 583 -582 c401 -400 594 -585 618 -595 29 -11 231 -12 1145 -8 l1110 5 144 -135 c79 -74 222 -209 319 -300 96 -91 177 -170 179 -175 2 -6 -61 -71 -139 -144 -79 -74 -231 -218 -338 -321 -107 -103 -258 -246 -335 -319 l-140 -131 -717 0 -718 0 -19 38 c-71 136 -254 242 -415 242 -88 0 -179 -25 -262 -71 -125 -69 -193 -164 -235 -332 l-21 -87 16 -82 c9 -46 28 -105 42 -133 20 -40 23 -51 12 -60 -7 -6 -132 -132 -278 -281 -146 -148 -506 -515 -801 -814 -294 -300 -578 -591 -630 -647 l-94 -101 -2552 -1 c-1404 -1 -2556 -2 -2560 -3 -12 -4 -25 269 -16 324 l8 48 1939 0 1939 0 27 -47 c67 -117 181 -195 339 -233 l91 -22 91 22 c190 46 307 141 370 302 28 72 32 95 33 178 0 53 -6 112 -13 133 l-13 38 645 652 c355 359 829 834 1054 1056 l408 405 869 -2 869 -2 74 -70 c40 -39 78 -70 83 -70 6 0 23 -9 38 -20 35 -25 171 -60 236 -60 163 0 353 112 430 255 36 65 66 177 66 242 0 54 -32 187 -56 234 -27 53 -97 131 -157 174 -144 105 -342 120 -515 38 -77 -36 -178 -140 -222 -226 l-35 -68 -914 1 -914 0 -41 -20 c-27 -12 -145 -125 -336 -317 -752 -761 -1886 -1893 -1895 -1893 -5 0 -32 7 -59 15 -67 21 -126 19 -215 -6 -134 -37 -242 -114 -305 -216 l-26 -43 -2096 0 -2095 0 -38 -19 c-49 -25 -56 -35 -75 -102 -15 -50 -16 -115 -14 -515 l3 -459 21 -40 c27 -49 49 -69 93 -84 25 -8 750 -11 2785 -11 3053 0 2834 -5 2891 66 17 20 386 400 820 843 435 443 858 876 940 961 148 153 189 183 232 173 29 -7 156 21 216 46 75 32 153 99 208 179 l50 72 762 0 c419 0 774 0 789 0 20 0 56 25 131 88 56 49 115 104 131 123 16 19 39 41 51 49 13 8 110 99 216 201 107 103 277 265 379 360 455 428 460 433 460 502 0 85 -8 95 -480 538 -173 162 -359 337 -413 388 -54 51 -113 99 -132 107 -29 12 -207 14 -1152 14 l-1118 0 -500 500 -499 499 26 78 c38 114 44 191 19 284 -56 216 -169 327 -386 378 -102 25 -97 25 -205 -3z"/>
<path d="M71893 7710 c-86 -23 -147 -56 -225 -122 -89 -77 -158 -232 -158 -360 l0 -56 -142 -137 c-138 -132 -212 -222 -224 -272 -15 -56 25 -117 156 -238 52 -48 163 -151 245 -229 83 -79 182 -171 220 -207 39 -35 70 -66 70 -69 -1 -3 -244 -247 -541 -543 l-541 -539 -38 26 c-56 38 -185 76 -258 76 -169 0 -357 -103 -423 -232 l-24 -48 -1551 -2 c-853 -2 -1553 0 -1555 3 -2 4 -6 101 -9 216 -4 178 -3 212 11 231 8 12 21 22 27 22 7 0 45 29 84 65 49 45 80 83 98 120 l25 55 1726 0 1725 0 48 21 c61 26 86 52 100 106 8 29 11 206 11 550 l-1 507 21 8 c35 13 127 96 166 150 174 243 90 596 -176 733 -59 31 -163 55 -233 55 -158 0 -356 -108 -411 -224 -9 -19 -20 -38 -25 -40 -5 -3 -32 32 -60 78 -53 87 -87 121 -163 167 -220 133 -524 74 -663 -130 -137 -200 -128 -433 23 -618 34 -42 110 -103 145 -116 15 -6 18 -16 15 -59 l-3 -53 -1238 -5 c-792 -3 -1241 -2 -1245 5 -3 5 -7 29 -8 53 l-2 44 46 26 c85 50 172 147 201 224 l7 19 402 0 c222 0 407 -3 413 -6 5 -4 21 -29 35 -57 59 -116 200 -213 350 -241 69 -13 92 -13 155 -2 190 33 331 148 392 320 40 112 45 191 18 288 -30 109 -60 164 -127 231 -66 66 -115 96 -199 125 -205 68 -444 -11 -566 -186 l-30 -43 -434 0 -434 0 -34 53 c-78 121 -235 199 -402 199 -222 0 -405 -132 -472 -340 -69 -215 6 -434 195 -569 l65 -46 -6 -170 c-8 -256 6 -310 94 -340 50 -17 47 -29 -11 -44 -65 -16 -129 -53 -201 -115 -68 -58 -133 -173 -154 -275 -39 -188 66 -424 230 -516 l40 -23 1 -369 c0 -204 3 -386 7 -406 9 -45 38 -72 102 -93 45 -15 196 -16 1733 -16 926 0 1687 -2 1693 -5 5 -4 20 -27 33 -53 70 -136 278 -242 448 -229 238 18 423 186 462 420 l12 68 665 667 c366 367 673 678 683 692 9 14 28 40 41 59 29 39 33 102 11 155 -9 22 -103 116 -266 267 -139 129 -286 266 -326 304 l-73 70 23 29 24 29 54 -25 c29 -13 89 -32 133 -42 76 -17 86 -17 160 -2 43 9 103 28 133 41 30 14 57 25 60 25 15 0 712 -707 712 -722 0 -15 -463 -492 -1614 -1661 l-451 -457 -1889 0 -1889 0 -38 61 c-21 34 -54 78 -74 99 -52 53 -176 115 -268 133 -69 14 -87 14 -155 1 -167 -31 -283 -112 -365 -254 -117 -204 -53 -499 138 -635 168 -120 347 -133 532 -39 102 52 124 70 169 141 19 28 38 54 43 58 5 3 894 5 1975 5 1646 0 1972 2 1999 14 18 7 82 64 143 127 121 126 948 969 1752 1786 384 391 526 541 533 565 13 48 11 95 -7 133 -11 24 -826 848 -1006 1018 -12 12 -16 25 -12 41 7 28 -18 158 -41 213 -70 169 -235 281 -440 298 -42 4 -82 -1 -132 -15z m-1798 -847 c46 -84 115 -157 178 -189 l47 -24 -2 -378 -3 -377 -1592 -3 -1592 -2 -39 57 c-61 90 -153 160 -245 188 -21 6 -39 15 -40 21 -1 5 541 11 1438 14 1589 6 1476 0 1522 69 37 55 45 105 47 290 l1 175 53 32 c69 41 107 77 149 142 18 28 35 52 37 52 3 0 21 -30 41 -67z"/>
<path d="M33590 6810 c-247 -24 -471 -111 -645 -251 -79 -64 -193 -200 -241 -289 -111 -203 -180 -466 -193 -730 l-6 -125 -140 -5 c-148 -6 -178 -14 -221 -62 -34 -37 -38 -61 -37 -284 2 -313 3 -315 253 -318 l145 -1 5 -1200 5 -1200 20 -35 c12 -19 36 -43 55 -55 32 -19 54 -20 300 -23 l265 -3 45 23 c26 14 53 37 65 58 l20 35 5 1200 5 1200 298 2 c340 3 341 3 378 80 22 45 24 62 27 243 3 177 1 200 -17 242 -35 83 -67 91 -406 97 l-280 6 2 105 c7 322 94 508 273 581 25 10 76 14 175 14 120 -1 149 -4 205 -24 152 -54 218 -16 249 144 16 77 49 265 56 312 8 53 -18 138 -48 158 -48 31 -277 90 -387 100 -130 11 -156 12 -230 5z"/>
<path d="M16657 6756 c-51 -19 -73 -40 -92 -90 -14 -37 -15 -262 -13 -2181 l3 -2140 20 -35 c12 -19 36 -43 55 -55 32 -18 55 -20 294 -23 221 -3 266 -1 302 13 52 20 104 76 105 113 0 15 1 425 2 912 2 633 6 906 14 960 34 207 224 425 433 496 84 28 294 27 374 -3 167 -60 283 -221 322 -444 26 -148 26 -149 30 -1049 2 -470 6 -869 9 -887 7 -39 61 -88 112 -102 22 -6 143 -11 283 -11 l246 0 44 23 c26 13 53 36 65 57 l20 35 3 945 c2 786 0 963 -12 1050 -31 218 -70 350 -152 514 -87 172 -212 317 -349 404 -22 14 -59 38 -83 53 -51 33 -179 80 -300 111 -73 19 -113 23 -252 23 -172 0 -234 -9 -380 -57 -131 -43 -309 -138 -381 -205 -21 -19 -29 -22 -35 -11 -5 7 -10 337 -11 733 -1 396 -4 734 -8 752 -7 39 -61 88 -112 102 -58 17 -509 13 -556 -3z"/>
<path d="M26577 6756 c-51 -19 -73 -40 -92 -90 -14 -37 -15 -262 -13 -2181 l3 -2140 20 -35 c12 -19 36 -43 55 -55 32 -18 55 -20 294 -23 221 -3 266 -1 302 13 53 20 104 76 104 113 5 801 -2 4296 -9 4314 -13 34 -64 75 -109 88 -57 16 -508 12 -555 -4z"/>
<path d="M12015 6563 c-332 -43 -612 -155 -826 -331 -187 -154 -311 -354 -375 -604 -24 -92 -27 -121 -26 -278 l0 -175 35 -120 c60 -203 148 -350 301 -499 55 -54 114 -105 131 -113 16 -9 48 -30 70 -48 22 -18 52 -39 67 -46 14 -8 74 -40 133 -73 115 -63 204 -102 389 -172 119 -45 301 -130 386 -181 60 -36 196 -168 225 -218 56 -96 75 -221 56 -358 -28 -204 -190 -366 -430 -428 -57 -16 -117 -21 -241 -24 -310 -6 -554 54 -840 210 -36 19 -74 35 -86 35 -29 0 -111 -29 -123 -44 -12 -15 -126 -361 -147 -449 -28 -112 5 -161 164 -240 193 -96 465 -172 752 -208 99 -13 485 -6 545 10 22 6 77 17 122 26 325 62 628 235 815 465 168 209 257 461 264 745 3 170 -8 265 -47 397 -90 302 -254 497 -599 713 -91 57 -278 146 -430 205 -30 11 -69 27 -87 35 -17 8 -34 15 -39 15 -17 0 -274 126 -334 165 -113 71 -216 185 -247 272 -23 66 -23 240 0 306 40 112 135 208 263 264 98 44 162 53 360 53 240 0 395 -33 587 -124 97 -46 143 -53 191 -31 53 25 75 72 150 311 69 220 76 262 52 319 -17 41 -24 45 -162 89 -195 62 -392 105 -584 126 -75 9 -378 10 -435 3z"/>
<path d="M35588 6527 c-44 -11 -84 -51 -103 -101 -14 -37 -15 -261 -13 -2061 l3 -2020 20 -35 c12 -19 36 -43 55 -55 l35 -20 1140 -3 c1267 -3 1192 -7 1255 64 34 39 32 25 35 279 2 205 -5 257 -38 293 -55 60 -8 57 -902 62 l-820 5 -3 540 c-2 297 0 564 5 593 l8 53 695 -1 694 0 63 21 c38 12 69 30 77 42 26 41 36 127 36 301 0 223 -10 254 -95 300 l-40 21 -720 5 -720 5 0 505 0 505 780 5 780 5 35 20 c69 41 75 64 78 301 2 140 -1 226 -8 255 -15 56 -76 119 -116 119 -681 5 -2193 3 -2216 -3z"/>
<path d="M45343 6516 c-79 -19 -180 -76 -228 -127 -168 -180 -165 -469 7 -642 66 -66 135 -101 244 -122 65 -12 84 -12 156 1 150 28 260 107 326 232 47 88 63 220 39 318 -24 95 -51 146 -114 214 -105 114 -274 163 -430 126z"/>
<path d="M58103 6516 c-79 -19 -180 -76 -228 -127 -168 -180 -165 -469 7 -642 66 -66 135 -101 244 -122 65 -12 84 -12 156 1 150 28 260 107 326 232 47 88 63 220 39 318 -24 95 -51 146 -114 214 -105 114 -274 163 -430 126z"/>
<path d="M21155 5450 c-368 -25 -731 -178 -984 -414 -59 -56 -191 -220 -226 -281 -176 -310 -242 -546 -252 -900 -4 -148 -2 -215 11 -305 61 -417 222 -739 491 -984 44 -40 91 -79 105 -86 14 -7 41 -25 60 -40 53 -42 205 -119 305 -155 413 -150 884 -122 1280 76 141 71 185 100 303 196 103 85 228 227 283 323 72 123 136 261 167 360 148 462 117 986 -83 1400 -135 279 -329 481 -610 635 -152 83 -412 158 -591 170 -49 3 -102 7 -119 9 -16 2 -80 0 -140 -4z m310 -690 c190 -63 346 -226 434 -452 41 -105 52 -146 76 -279 17 -102 12 -359 -9 -464 -74 -353 -267 -599 -551 -696 -59 -21 -306 -18 -365 3 -97 35 -160 70 -225 126 -246 206 -360 540 -325 950 13 145 20 182 62 307 36 108 56 148 118 241 84 123 208 219 341 262 86 28 104 30 249 28 100 -2 139 -7 195 -26z"/>
<path d="M24435 5450 c-324 -22 -652 -146 -890 -336 -101 -80 -144 -125 -232 -234 -153 -192 -262 -450 -319 -753 -25 -131 -30 -438 -10 -577 61 -417 222 -739 491 -984 44 -40 91 -79 105 -86 14 -7 41 -26 60 -40 54 -43 204 -119 304 -155 416 -150 885 -122 1281 76 141 71 185 100 303 196 103 85 228 227 283 323 72 123 136 261 167 360 148 462 117 986 -83 1400 -135 279 -329 481 -610 635 -152 83 -412 158 -591 170 -49 3 -102 7 -119 9 -16 2 -80 0 -140 -4z m310 -690 c190 -63 346 -226 434 -452 41 -105 52 -146 76 -279 17 -102 12 -359 -9 -464 -74 -353 -267 -599 -551 -696 -59 -21 -306 -18 -365 3 -97 35 -160 70 -225 126 -248 208 -363 549 -325 958 12 136 21 175 62 299 36 108 56 148 118 241 84 123 208 219 341 262 86 28 104 30 249 28 100 -2 139 -7 195 -26z"/>
<path d="M30395 5450 c-324 -22 -652 -146 -890 -336 -101 -80 -144 -125 -232 -234 -153 -192 -262 -450 -319 -753 -25 -131 -30 -438 -10 -577 61 -417 222 -739 491 -984 44 -40 91 -79 105 -86 14 -7 41 -26 60 -40 54 -43 204 -119 304 -155 416 -150 885 -122 1281 76 141 71 185 100 303 196 103 85 228 227 283 323 72 123 136 261 167 360 148 462 117 986 -83 1400 -135 279 -329 481 -610 635 -152 83 -412 158 -591 170 -49 3 -102 7 -119 9 -16 2 -80 0 -140 -4z m310 -690 c190 -63 346 -226 434 -452 41 -105 52 -146 76 -279 17 -102 12 -359 -9 -464 -74 -353 -267 -599 -551 -696 -59 -21 -306 -18 -365 3 -97 35 -160 70 -225 126 -248 208 -363 549 -325 958 12 136 21 175 62 299 36 108 56 148 118 241 84 123 208 219 341 262 86 28 104 30 249 28 100 -2 139 -7 195 -26z"/>
<path d="M15140 5444 c-92 -12 -266 -50 -370 -81 -118 -36 -320 -125 -374 -167 -17 -12 -43 -29 -57 -37 -63 -33 -224 -179 -297 -268 -181 -224 -268 -403 -336 -691 -33 -142 -42 -245 -40 -437 2 -208 9 -266 49 -426 55 -223 119 -364 251 -557 148 -215 412 -406 689 -498 364 -121 758 -125 1183 -12 116 31 249 80 290 106 22 15 75 111 67 123 -2 4 -10 40 -19 81 -67 321 -81 366 -130 407 -39 32 -85 28 -211 -20 -173 -66 -256 -80 -480 -81 -234 -1 -274 7 -433 84 -88 43 -116 62 -200 144 -141 137 -209 266 -251 473 -16 80 -19 128 -16 258 5 201 31 310 109 470 48 97 65 121 148 205 150 151 299 220 518 240 220 19 442 -12 609 -85 91 -40 117 -43 171 -15 63 32 60 25 155 343 41 138 42 149 14 211 -25 56 -71 88 -184 127 -219 74 -377 101 -620 104 -110 2 -216 1 -235 -1z"/>
<path d="M39835 5440 c-228 -36 -454 -131 -619 -260 -28 -21 -53 -37 -58 -34 -4 3 -10 21 -13 42 -18 117 -26 141 -60 171 -51 44 -90 51 -305 51 -262 0 -322 -16 -360 -95 -17 -36 -18 -49 -8 -140 7 -64 12 -586 15 -1445 2 -895 7 -1358 14 -1384 13 -50 55 -91 105 -105 23 -7 138 -11 284 -11 216 0 250 3 285 19 50 22 95 74 96 109 0 15 0 401 -1 857 -1 993 1 1027 86 1195 74 146 211 267 362 320 57 19 79 21 205 18 l142 -3 69 -34 c37 -18 86 -49 107 -68 93 -84 158 -223 178 -380 6 -46 16 -118 21 -160 6 -47 10 -407 10 -914 -1 -509 3 -845 9 -861 13 -34 64 -75 109 -88 21 -5 144 -10 282 -10 l246 0 44 23 c26 13 53 36 65 57 l20 35 0 995 0 995 -27 126 c-54 245 -128 419 -247 575 -114 150 -312 288 -506 353 -161 53 -397 75 -550 51z"/>
<path d="M42825 5443 c-53 -7 -208 -43 -275 -65 -109 -35 -262 -114 -382 -196 -233 -159 -461 -497 -547 -812 -60 -219 -72 -312 -73 -556 0 -126 3 -255 7 -285 8 -64 49 -244 71 -314 43 -135 125 -313 174 -375 15 -19 35 -49 43 -67 9 -17 41 -57 72 -89 30 -32 55 -61 55 -65 0 -4 35 -36 78 -71 254 -211 502 -306 823 -315 143 -5 168 -3 284 22 70 15 157 37 194 50 83 28 217 90 225 104 4 5 29 22 56 37 27 15 51 33 54 41 15 38 21 -5 14 -96 -25 -345 -165 -562 -429 -667 -102 -40 -195 -54 -367 -54 -296 1 -474 40 -712 160 -55 28 -113 50 -129 50 -40 0 -97 -26 -116 -52 -22 -32 -145 -409 -145 -446 0 -38 31 -111 56 -134 36 -31 170 -96 269 -130 87 -30 239 -69 385 -99 137 -27 458 -38 590 -19 315 45 461 87 668 193 160 82 284 177 368 283 18 21 43 53 56 69 22 27 42 60 91 150 81 147 139 342 179 600 24 161 27 307 33 1730 2 583 8 1103 13 1155 7 82 6 101 -9 137 -32 76 -97 93 -359 93 -214 0 -254 -7 -304 -51 -37 -32 -61 -103 -51 -149 7 -31 -9 -49 -22 -26 -12 20 -157 112 -238 151 -150 72 -361 116 -549 114 -67 -1 -134 -4 -151 -6z m380 -668 c106 -27 220 -91 290 -164 180 -187 215 -312 214 -754 -1 -381 -28 -533 -122 -677 -55 -83 -160 -180 -242 -222 -123 -64 -321 -85 -460 -49 -99 26 -154 53 -226 108 -148 112 -249 282 -300 506 -16 70 -22 134 -24 267 -3 154 -1 191 21 303 24 122 81 295 108 327 7 8 25 35 39 59 62 108 221 235 343 275 116 38 259 46 359 21z"/>
<path d="M47875 5440 c-228 -36 -454 -131 -619 -260 -28 -21 -53 -37 -58 -34 -4 3 -10 21 -13 42 -18 117 -26 141 -60 171 -51 44 -90 51 -305 51 -262 0 -322 -16 -360 -95 -17 -36 -18 -49 -8 -140 7 -64 12 -586 15 -1445 2 -895 7 -1358 14 -1384 13 -50 55 -91 105 -105 23 -7 138 -11 284 -11 216 0 250 3 285 19 50 22 95 74 96 109 0 15 0 401 -1 857 -1 993 1 1027 86 1195 74 146 211 267 362 320 57 19 79 21 205 18 l142 -3 69 -34 c37 -18 86 -49 107 -68 93 -84 158 -223 178 -380 6 -46 16 -118 21 -160 6 -47 10 -407 10 -914 -1 -509 3 -845 9 -861 13 -34 64 -75 109 -88 21 -5 144 -10 282 -10 l246 0 44 23 c26 13 53 36 65 57 l20 35 0 995 0 995 -27 126 c-38 172 -69 264 -134 393 -158 313 -419 504 -787 575 -112 22 -281 26 -382 11z"/>
<path d="M50857 5429 c-355 -62 -656 -239 -863 -507 -62 -81 -100 -138 -120 -182 -9 -19 -23 -42 -31 -52 -27 -30 -115 -262 -148 -388 -43 -165 -65 -345 -65 -530 0 -164 4 -202 35 -375 46 -251 191 -568 325 -707 19 -20 58 -60 85 -88 153 -158 394 -289 645 -349 232 -56 234 -56 485 -56 257 0 356 11 585 62 203 46 342 93 412 140 37 24 45 36 57 84 l14 56 -47 183 c-26 101 -53 195 -61 211 -10 19 -31 34 -70 48 -69 26 -81 26 -136 2 -66 -29 -244 -78 -334 -92 -44 -6 -170 -14 -280 -18 -161 -5 -219 -3 -298 10 -182 31 -296 88 -424 212 -87 84 -140 169 -182 292 -21 61 -42 184 -34 198 2 4 424 7 936 7 l932 0 50 24 c66 31 81 50 100 125 13 50 16 99 12 244 -4 182 -7 213 -25 317 -36 199 -142 488 -216 584 -12 17 -30 45 -39 61 -40 75 -228 258 -318 309 -195 112 -303 149 -534 186 -94 16 -333 10 -448 -11z m324 -629 c146 -18 247 -78 349 -206 45 -56 63 -90 89 -168 17 -53 33 -119 34 -146 l2 -50 -612 0 c-337 0 -613 2 -614 5 -2 16 17 79 44 144 27 68 78 150 144 238 30 39 149 121 221 151 51 22 222 53 252 46 9 -2 50 -8 91 -14z"/>
<path d="M53857 5429 c-355 -62 -656 -239 -863 -507 -62 -81 -100 -138 -120 -182 -9 -19 -23 -42 -31 -52 -27 -30 -115 -262 -148 -388 -43 -165 -65 -345 -65 -530 0 -164 4 -202 35 -375 46 -251 191 -568 325 -707 19 -20 58 -60 85 -88 153 -158 394 -289 645 -349 232 -56 234 -56 485 -56 257 0 356 11 585 62 203 46 342 93 412 140 37 24 45 36 57 84 l14 56 -47 183 c-26 101 -53 195 -61 211 -10 19 -31 34 -70 48 -69 26 -81 26 -136 2 -66 -29 -244 -78 -334 -92 -44 -6 -170 -14 -280 -18 -161 -5 -219 -3 -298 10 -182 31 -296 88 -424 212 -87 84 -140 169 -182 292 -21 61 -42 184 -34 198 2 4 424 7 936 7 l932 0 50 24 c66 31 81 50 100 125 13 50 16 99 12 244 -4 182 -7 213 -25 317 -36 199 -142 488 -216 584 -12 17 -30 45 -39 61 -40 75 -228 258 -318 309 -195 112 -303 149 -534 186 -94 16 -333 10 -448 -11z m324 -629 c146 -18 247 -78 349 -206 45 -56 63 -90 89 -168 17 -53 33 -119 34 -146 l2 -50 -612 0 c-337 0 -613 2 -614 5 -2 16 17 79 44 144 27 68 78 150 144 238 30 39 149 121 221 151 51 22 222 53 252 46 9 -2 50 -8 91 -14z"/>
<path d="M57060 5430 c-194 -51 -331 -127 -477 -263 -37 -35 -37 -35 -51 70 -11 81 -35 123 -85 151 -27 14 -66 18 -237 20 -282 5 -351 -12 -389 -93 -17 -36 -18 -51 -9 -160 6 -70 12 -667 14 -1445 3 -882 8 -1338 15 -1364 13 -50 55 -91 105 -105 23 -7 138 -11 284 -11 216 0 250 3 285 19 50 22 95 74 96 109 0 15 2 383 3 817 2 435 6 817 9 849 18 197 68 332 169 457 139 174 261 217 573 206 23 -1 57 7 80 19 35 18 43 29 63 85 21 60 22 77 19 294 -3 276 -10 304 -86 338 -68 31 -276 34 -381 7z"/>
<path d="M60635 5440 c-228 -36 -454 -131 -619 -260 -28 -21 -53 -37 -58 -34 -4 3 -10 21 -13 42 -18 117 -26 141 -60 171 -51 44 -90 51 -305 51 -262 0 -322 -16 -360 -95 -17 -36 -18 -49 -8 -140 7 -64 12 -586 15 -1445 2 -895 7 -1358 14 -1384 13 -50 55 -91 105 -105 23 -7 138 -11 284 -11 216 0 250 3 285 19 50 22 95 74 96 109 0 15 0 401 -1 857 -1 993 1 1027 86 1195 74 146 211 267 362 320 57 19 79 21 205 18 l142 -3 69 -34 c37 -18 86 -49 107 -68 93 -84 158 -223 178 -380 6 -46 16 -118 21 -160 6 -47 10 -407 10 -914 -1 -509 3 -845 9 -861 13 -34 64 -75 109 -88 21 -5 144 -10 282 -10 l246 0 44 23 c26 13 53 36 65 57 l20 35 0 995 0 995 -27 126 c-38 172 -69 264 -134 393 -158 314 -419 504 -787 575 -112 22 -281 26 -382 11z"/>
<path d="M63625 5443 c-53 -7 -208 -43 -275 -65 -109 -35 -262 -114 -382 -196 -233 -159 -461 -497 -547 -812 -60 -219 -72 -312 -73 -556 0 -126 3 -255 7 -285 8 -64 49 -244 71 -314 43 -135 125 -313 174 -375 15 -19 35 -49 43 -67 9 -17 41 -57 72 -89 30 -32 55 -61 55 -65 0 -4 35 -36 78 -71 254 -211 502 -306 823 -315 143 -5 168 -3 284 22 70 15 157 37 194 50 83 28 217 90 225 104 4 5 29 22 56 37 27 15 51 33 54 41 15 38 21 -5 14 -96 -25 -345 -165 -562 -429 -667 -102 -40 -195 -54 -367 -54 -296 1 -474 40 -712 160 -55 28 -113 50 -129 50 -40 0 -97 -26 -116 -52 -22 -32 -145 -409 -145 -446 0 -38 31 -111 56 -134 36 -31 170 -96 269 -130 87 -30 239 -69 385 -99 137 -27 458 -38 590 -19 315 45 461 87 668 193 160 82 284 177 368 283 18 21 43 53 56 69 22 27 42 60 91 150 81 147 139 342 179 600 24 161 27 307 33 1730 2 583 8 1103 13 1155 7 82 6 101 -9 137 -32 76 -97 93 -359 93 -214 0 -254 -7 -304 -51 -37 -32 -61 -103 -51 -149 7 -31 -9 -49 -22 -26 -12 20 -157 112 -238 151 -150 72 -361 116 -549 114 -67 -1 -134 -4 -151 -6z m380 -668 c106 -27 220 -91 290 -164 180 -187 215 -312 214 -754 -1 -381 -28 -533 -122 -677 -55 -83 -160 -180 -242 -222 -123 -64 -321 -85 -460 -49 -99 26 -154 53 -226 108 -148 112 -249 282 -300 506 -16 70 -22 134 -24 267 -3 154 -1 191 21 303 24 122 81 295 108 327 7 8 25 35 39 59 62 108 221 235 343 275 116 38 259 46 359 21z"/>
<path d="M45177 5396 c-51 -19 -73 -40 -92 -90 -14 -37 -15 -197 -13 -1501 l3 -1460 20 -35 c12 -19 36 -43 55 -55 32 -18 55 -20 294 -23 221 -3 266 -1 302 13 53 20 104 76 104 113 5 563 -2 2935 -9 2954 -13 34 -64 75 -109 88 -57 16 -508 12 -555 -4z"/>
<path d="M57937 5396 c-51 -19 -73 -40 -92 -90 -14 -37 -15 -197 -13 -1501 l3 -1460 20 -35 c12 -19 36 -43 55 -55 32 -18 55 -20 294 -23 221 -3 266 -1 302 13 53 20 104 76 104 113 5 563 -2 2935 -9 2954 -13 34 -64 75 -109 88 -57 16 -508 12 -555 -4z"/>
<path d="M80207 5389 c-135 -38 -258 -135 -311 -244 l-27 -55 -1003 -2 -1003 -3 -46 -30 c-44 -29 -121 -97 -392 -351 -66 -61 -197 -181 -291 -267 -251 -228 -259 -240 -252 -373 5 -93 37 -163 85 -183 15 -6 102 -13 192 -16 147 -4 212 -15 170 -29 -8 -2 -32 -10 -54 -17 -129 -39 -239 -126 -297 -237 l-28 -51 -869 -1 -869 0 -23 32 c-90 130 -192 198 -348 234 -62 14 -86 15 -143 5 -300 -49 -476 -300 -425 -600 l8 -45 -733 -733 -732 -732 -866 -3 c-793 -3 -868 -4 -901 -20 -23 -11 -138 -124 -309 -305 -149 -158 -357 -377 -462 -485 l-190 -197 -110 -3 -109 -3 -15 30 c-56 116 -171 203 -318 242 -101 26 -144 28 -201 8 l-40 -15 -139 143 c-76 78 -211 219 -299 312 -104 111 -174 177 -201 190 l-41 20 -769 3 -769 2 -55 51 c-69 63 -155 104 -261 126 -77 15 -87 15 -164 -2 -228 -51 -370 -201 -407 -431 -24 -149 52 -341 178 -450 l36 -31 -33 -19 c-70 -41 -151 -179 -177 -303 -41 -196 76 -438 252 -522 l61 -29 191 0 c118 0 193 4 197 10 4 6 22 17 40 25 19 7 66 46 105 84 l71 71 249 0 249 0 30 -43 c31 -45 84 -86 161 -124 42 -21 58 -23 233 -23 l189 0 70 47 c71 48 145 127 177 192 10 20 28 77 40 126 22 97 20 142 -13 251 -52 170 -181 288 -365 335 -100 25 -132 24 -235 -6 -157 -45 -257 -128 -327 -270 l-30 -62 -187 1 -187 1 -32 63 c-36 73 -73 124 -122 169 l-35 32 60 63 c55 59 90 118 128 210 l15 37 639 0 639 1 231 -238 c127 -130 240 -249 251 -263 l20 -26 -21 -64 c-59 -185 19 -416 181 -532 92 -66 96 -67 302 -67 103 0 190 4 193 9 3 5 18 12 32 15 54 14 177 134 210 204 l11 24 184 -1 c156 -1 189 2 219 17 20 9 114 100 210 202 96 101 236 248 310 325 74 77 200 210 280 295 79 85 156 161 170 167 19 10 159 12 578 12 304 -1 554 -4 557 -8 2 -4 -88 -99 -200 -211 l-203 -203 -46 5 c-99 12 -255 -36 -340 -103 -111 -88 -184 -226 -194 -365 -7 -111 33 -244 98 -326 17 -20 30 -42 30 -47 0 -8 115 -11 364 -11 l364 0 27 31 c63 76 115 226 115 336 0 48 -21 133 -47 196 l-17 38 1121 1121 1120 1120 96 -23 96 -23 83 19 c161 36 281 119 346 240 l27 50 878 3 878 2 17 -32 c23 -43 110 -137 144 -154 l28 -15 0 -653 c0 -511 -3 -656 -12 -663 -14 -10 -270 -113 -282 -113 -4 0 -26 -8 -49 -19 -23 -10 -73 -30 -112 -45 -38 -15 -79 -31 -90 -36 -11 -5 -56 -23 -100 -40 -44 -17 -89 -35 -100 -40 -20 -8 -132 -54 -230 -92 -101 -40 -186 -65 -190 -57 -3 4 18 36 47 70 29 34 67 79 83 100 17 20 56 66 88 101 79 86 269 305 341 392 32 39 83 97 112 129 61 66 69 92 68 217 -1 109 -16 139 -86 174 l-52 26 -301 0 -302 0 -48 61 c-63 80 -153 145 -235 169 -290 85 -569 -66 -640 -346 -25 -100 -25 -150 1 -244 11 -41 22 -84 25 -95 4 -16 -97 -122 -485 -509 l-489 -489 -29 12 c-41 17 -183 51 -213 51 -51 0 -162 -30 -224 -59 -148 -71 -262 -239 -271 -400 -6 -108 11 -185 62 -283 49 -95 102 -150 197 -201 l49 -27 186 0 187 0 56 30 c92 50 141 101 192 198 49 96 66 169 60 261 l-3 56 540 541 541 541 96 0 c124 1 203 25 294 91 70 51 120 107 157 179 24 47 24 48 52 32 l20 -10 -20 -27 c-28 -40 -374 -447 -481 -567 -30 -33 -84 -96 -120 -140 -36 -43 -93 -108 -126 -144 -34 -36 -97 -108 -140 -159 -44 -52 -92 -109 -108 -127 -16 -19 -37 -58 -47 -87 -15 -46 -16 -56 -3 -86 24 -59 103 -136 181 -176 46 -23 63 -21 155 23 46 22 155 67 243 101 88 34 180 70 205 80 49 20 363 144 550 216 63 25 131 52 150 61 19 8 69 28 110 43 41 15 91 35 110 43 19 9 107 44 195 78 88 34 202 79 253 100 51 22 97 39 102 39 5 0 29 9 52 19 24 11 75 32 113 46 82 31 100 46 126 99 l19 40 -1 735 -1 736 47 26 c148 83 236 204 271 375 14 69 14 81 -1 152 -47 214 -177 357 -367 406 -27 7 -49 16 -49 22 0 5 33 12 73 16 118 11 2087 8 2094 -3 3 -5 0 -17 -7 -26 -7 -8 -18 -23 -24 -33 -46 -80 -79 -134 -139 -228 l-27 -43 -612 3 c-520 2 -617 0 -642 -12 -20 -10 -40 -34 -58 -70 l-27 -56 7 -223 c7 -194 6 -224 -7 -229 -25 -9 -145 -89 -161 -109 -9 -10 -32 -46 -52 -79 -93 -156 -104 -290 -38 -464 45 -120 172 -234 308 -276 151 -47 309 -22 439 71 106 76 170 179 200 320 18 87 7 171 -38 288 -26 67 -41 91 -95 144 -36 35 -78 70 -94 79 l-30 15 3 87 3 87 545 5 545 5 35 21 c19 11 48 43 65 72 16 28 44 71 60 96 17 25 53 82 80 126 28 45 73 117 100 160 28 44 65 104 83 134 18 30 62 98 97 151 70 106 81 145 72 246 -6 71 -31 116 -77 144 l-35 20 -1253 5 c-688 3 -1252 9 -1253 13 -1 9 120 123 303 288 l87 79 940 0 941 0 11 -23 c48 -90 160 -177 276 -213 90 -28 153 -30 253 -9 213 45 349 195 390 430 11 63 10 78 -10 155 -23 89 -72 188 -121 244 -42 49 -155 112 -240 136 -90 25 -163 25 -252 -1z"/>
</g>
</g>
</svg>
