<?xml version="1.0" standalone="no"?>
<!DOCTYPE svg PUBLIC "-//W3C//DTD SVG 1.1//EN"
 "http://www.w3.org/Graphics/SVG/1.1/DTD/svg11.dtd">
<!-- Created with svg_stack (http://github.com/astraw/svg_stack) -->
<svg xmlns:sodipodi="http://sodipodi.sourceforge.net/DTD/sodipodi-0.dtd" xmlns="http://www.w3.org/2000/svg" version="1.1" width="3000.0" height="2098.0">
  <defs/>
  <g id="id0:id0" transform="matrix(1.25,0,0,1.25,0.0,0.0)"><g transform="translate(0.000000,1678.400000) scale(0.040000,-0.040000)" fill="#fffffe" stroke="none">
<path d="M21710 37960 c-389 -36 -711 -183 -978 -448 -123 -122 -154 -165 -317 -434 -50 -84 -175 -396 -199 -499 -14 -60 -30 -138 -62 -304 -24 -120 -33 -229 -40 -468 -11 -386 8 -593 92 -997 27 -127 154 -453 219 -560 32 -52 79 -131 106 -176 48 -81 169 -223 270 -320 53 -50 184 -154 194 -154 2 0 33 -17 67 -38 131 -79 329 -148 513 -177 136 -22 402 -25 535 -6 461 65 831 302 1117 712 127 183 235 430 309 708 113 425 126 1019 33 1516 -21 116 -48 239 -60 275 -42 131 -120 346 -137 380 -91 174 -190 340 -249 417 -56 73 -201 218 -283 284 -108 86 -291 177 -458 228 -176 53 -469 80 -672 61z m311 -987 c136 -74 221 -241 263 -518 55 -357 58 -1124 6 -1481 -54 -371 -118 -522 -255 -604 l-59 -35 -106 0 c-95 0 -110 3 -156 27 -82 43 -156 145 -198 273 -85 262 -121 1048 -72 1575 43 452 126 678 281 764 81 44 214 44 296 -1z"/>
<path d="M16572 37888 c-5 -7 -13 -67 -17 -133 -3 -66 -11 -163 -16 -215 -5 -52 -16 -187 -24 -300 -14 -210 -33 -454 -60 -780 -9 -102 -20 -248 -25 -325 -5 -77 -16 -228 -25 -335 -36 -452 -36 -453 -23 -467 7 -6 67 -19 133 -28 184 -24 502 -69 775 -109 61 -9 101 -10 113 -4 9 5 36 32 58 61 131 165 378 241 606 187 106 -25 184 -67 261 -143 65 -63 93 -111 121 -201 39 -127 22 -316 -39 -434 -34 -66 -124 -156 -189 -191 -100 -53 -152 -64 -296 -65 -207 0 -320 40 -435 154 -71 70 -126 164 -155 262 -9 31 -21 58 -28 61 -7 3 -38 1 -68 -4 -54 -9 -221 -29 -564 -70 -93 -11 -199 -24 -235 -29 -36 -5 -111 -14 -168 -21 -73 -8 -105 -16 -109 -26 -3 -8 1 -40 10 -71 9 -31 28 -100 43 -152 15 -52 56 -154 92 -226 175 -354 470 -616 874 -776 302 -120 607 -162 973 -133 110 9 232 24 270 34 39 10 112 29 163 41 87 21 387 145 422 175 8 7 40 30 70 51 193 135 226 163 300 248 125 143 166 202 230 331 69 141 91 206 127 375 23 108 26 148 26 300 -1 293 -49 518 -155 719 -81 153 -80 152 -178 264 -247 284 -609 466 -986 497 -73 6 -176 8 -230 5 -192 -12 -444 -88 -592 -178 -35 -21 -70 -36 -78 -33 -9 4 -14 22 -14 54 0 57 39 501 45 519 3 10 203 13 932 15 l928 3 7 50 c4 28 16 142 28 255 11 113 27 261 35 330 32 275 47 441 41 455 -5 13 -194 15 -1484 15 -1172 0 -1482 -3 -1490 -12z"/>
<path d="M19505 28424 c-36 -9 -65 -27 -65 -42 0 -8 11 -27 25 -44 14 -16 25 -37 25 -47 0 -9 14 -39 31 -66 17 -28 38 -68 46 -89 19 -57 28 -202 14 -252 -14 -52 -100 -148 -127 -142 -22 4 -66 80 -89 154 -9 28 -25 60 -36 70 l-20 18 -58 -58 c-33 -33 -67 -75 -78 -95 -10 -20 -30 -49 -44 -66 -15 -16 -36 -60 -48 -97 -12 -36 -29 -72 -38 -79 -19 -16 -32 -49 -44 -113 -12 -64 -74 -176 -98 -176 -9 0 -27 13 -38 28 -13 18 -41 35 -76 47 -97 33 -107 5 -107 -285 0 -243 -26 -483 -59 -548 -21 -41 -58 -62 -108 -62 -43 0 -60 -18 -116 -122 -58 -110 -83 -198 -94 -338 -7 -104 38 -395 72 -459 13 -26 34 -72 45 -104 12 -31 32 -70 44 -85 13 -15 30 -40 39 -57 18 -33 76 -94 156 -165 185 -163 206 -193 141 -207 -19 -3 -41 -19 -56 -39 -29 -37 -67 -131 -59 -144 8 -13 -43 -49 -80 -56 -48 -9 -171 -139 -224 -237 -35 -65 -43 -89 -47 -155 -4 -42 -1 -119 5 -171 10 -81 16 -99 41 -128 17 -19 30 -40 30 -47 0 -38 119 -148 222 -205 21 -12 42 -30 48 -41 6 -10 12 -77 14 -147 6 -161 14 -211 37 -223 9 -6 46 -16 81 -25 41 -9 68 -22 78 -35 8 -12 37 -47 63 -80 27 -34 54 -80 62 -108 8 -27 22 -55 30 -62 22 -18 33 -64 49 -197 10 -81 23 -137 37 -165 29 -56 35 -163 38 -624 1 -247 -2 -380 -9 -399 l-11 -28 -32 32 c-18 18 -69 67 -114 109 -45 43 -89 84 -97 92 -225 233 -648 655 -668 666 -16 8 -28 19 -28 25 0 5 -79 89 -175 185 -96 96 -175 178 -175 183 0 4 -11 13 -25 19 -14 7 -35 27 -46 46 -11 20 -29 38 -40 41 -10 3 -27 20 -36 36 -10 16 -32 39 -50 49 -18 11 -33 26 -33 35 0 8 -18 26 -39 39 -22 14 -42 34 -46 45 -3 11 -21 29 -41 40 -19 11 -39 32 -46 46 -6 14 -15 25 -19 25 -11 0 -159 147 -159 159 0 5 -15 19 -33 30 -18 11 -39 31 -46 44 -7 13 -26 32 -42 41 -17 10 -35 29 -42 43 -6 13 -23 31 -38 39 -15 8 -35 26 -44 42 -9 15 -30 35 -46 44 -16 10 -34 29 -39 43 -5 14 -21 30 -35 35 -14 5 -35 25 -46 44 -11 19 -31 37 -45 40 -16 4 -30 19 -39 40 -9 22 -23 36 -40 40 -17 4 -31 18 -40 41 -8 18 -24 36 -35 40 -12 4 -32 24 -46 46 -13 21 -28 39 -33 39 -5 0 -36 27 -68 59 -100 103 -379 384 -429 433 -12 11 -33 32 -47 45 -43 42 -93 92 -120 121 -78 83 -1241 1232 -1261 1245 -14 10 -26 24 -26 32 0 8 -18 26 -40 40 -22 14 -40 32 -40 41 0 8 -16 22 -36 30 -23 10 -39 25 -45 44 -6 16 -25 37 -42 48 -26 15 -38 34 -60 98 -60 174 -120 241 -245 281 l-53 17 -35 -19 c-21 -11 -38 -15 -43 -9 -19 20 -69 187 -91 300 -12 65 -29 135 -38 154 -26 53 -80 78 -198 90 -169 18 -237 30 -294 55 -30 13 -86 31 -125 40 -38 9 -87 28 -107 42 -21 14 -68 34 -104 44 -41 11 -75 28 -90 44 -18 19 -33 25 -67 25 -23 0 -48 -5 -55 -12 -16 -16 -15 -49 3 -72 8 -11 15 -28 15 -38 0 -9 20 -56 45 -103 25 -47 51 -112 60 -143 8 -31 23 -74 34 -94 10 -21 26 -68 36 -105 9 -38 28 -106 41 -153 13 -47 31 -134 40 -193 26 -160 52 -179 264 -196 75 -6 156 -17 179 -24 40 -11 45 -17 58 -57 7 -25 11 -62 8 -83 -10 -68 10 -112 85 -187 39 -39 78 -70 88 -70 20 0 62 -27 62 -40 0 -5 -15 -25 -32 -43 -95 -98 -269 -285 -287 -309 -12 -15 -30 -30 -41 -33 -11 -4 -20 -11 -20 -18 0 -6 -78 -90 -173 -187 -204 -206 -410 -419 -487 -503 -30 -34 -89 -95 -130 -136 -42 -42 -186 -191 -320 -331 -135 -140 -267 -278 -295 -306 -143 -146 -385 -397 -495 -515 -69 -73 -144 -151 -167 -174 -24 -22 -43 -46 -43 -53 0 -6 -13 -18 -30 -27 -16 -8 -37 -29 -45 -45 -8 -16 -29 -37 -45 -45 -17 -9 -30 -20 -30 -25 0 -6 -57 -68 -127 -138 -101 -101 -336 -344 -481 -497 -10 -11 -26 -27 -35 -35 -9 -8 -74 -75 -144 -149 -70 -74 -164 -170 -208 -214 -44 -44 -84 -89 -90 -101 -6 -11 -23 -27 -38 -34 -15 -7 -34 -26 -42 -42 -9 -16 -28 -36 -44 -44 -16 -9 -32 -27 -35 -41 -4 -16 -20 -32 -41 -42 -19 -9 -35 -21 -35 -26 0 -5 -19 -29 -42 -53 -24 -24 -51 -52 -60 -61 -9 -10 -45 -47 -80 -82 -35 -36 -84 -86 -110 -112 -59 -61 -93 -144 -72 -174 8 -11 21 -32 29 -48 9 -15 46 -56 83 -92 37 -35 74 -71 82 -79 8 -9 129 -129 269 -268 140 -139 275 -275 300 -303 25 -27 59 -61 74 -75 16 -14 52 -49 80 -79 29 -29 179 -180 335 -335 263 -262 319 -317 360 -356 9 -8 61 -62 116 -119 84 -86 446 -449 501 -501 9 -8 44 -45 79 -82 35 -38 69 -68 75 -68 7 0 21 -16 33 -35 11 -20 33 -42 49 -51 16 -8 29 -19 29 -24 0 -12 218 -230 230 -230 5 0 21 -18 34 -39 14 -22 34 -42 45 -46 11 -3 29 -22 40 -41 11 -19 32 -39 46 -44 14 -5 30 -22 36 -37 5 -16 23 -36 40 -46 17 -9 33 -26 36 -38 3 -11 23 -29 44 -40 23 -11 41 -29 45 -43 3 -13 20 -30 39 -39 22 -10 37 -26 41 -42 4 -17 18 -31 40 -40 19 -8 34 -19 34 -24 0 -6 96 -107 214 -224 118 -118 219 -224 225 -236 7 -11 18 -21 25 -21 15 0 56 -42 56 -57 0 -6 16 -20 35 -32 19 -11 39 -31 44 -45 6 -13 23 -28 41 -34 21 -8 35 -23 45 -47 9 -19 22 -35 29 -35 8 0 26 -15 40 -32 14 -18 30 -36 34 -40 4 -4 103 -102 221 -218 l213 -210 47 0 47 0 115 118 c63 64 195 202 294 306 99 104 200 210 225 236 345 353 473 486 570 589 63 67 126 133 140 147 14 13 28 27 32 31 27 30 276 288 383 398 72 73 204 210 295 305 152 159 310 321 494 511 40 41 79 85 85 97 7 13 23 27 37 32 14 6 31 25 39 44 9 20 26 38 45 46 18 8 33 22 36 37 4 16 19 30 40 39 22 9 36 23 40 39 3 14 19 32 35 41 16 8 36 28 44 44 9 17 19 30 24 30 12 0 44 32 186 184 100 108 346 363 396 412 19 19 72 72 126 127 148 150 183 188 183 196 0 5 18 23 39 41 22 17 43 40 46 51 4 10 20 26 36 34 16 9 35 28 43 43 8 16 26 33 40 40 15 6 31 23 36 37 5 14 25 34 43 45 19 11 39 31 45 44 6 13 24 32 41 42 16 9 34 28 40 40 5 13 24 30 40 39 17 8 35 24 41 35 14 26 42 25 67 -2 11 -13 35 -31 52 -41 18 -9 35 -26 38 -37 3 -10 21 -29 40 -40 19 -11 37 -30 40 -41 3 -11 22 -29 43 -39 23 -12 40 -29 44 -44 3 -14 15 -28 26 -31 11 -3 32 -23 48 -43 15 -20 31 -39 36 -41 17 -7 226 -220 226 -231 0 -5 13 -16 29 -24 43 -23 54 -64 57 -216 3 -155 -12 -234 -48 -262 -13 -10 -27 -23 -33 -29 -5 -5 -140 -141 -300 -300 -159 -159 -294 -294 -300 -300 -9 -9 -409 -417 -446 -455 -55 -55 -102 -102 -161 -162 -451 -449 -888 -886 -1460 -1459 -391 -392 -714 -713 -718 -713 -4 0 -12 -11 -18 -25 -7 -14 -28 -35 -47 -46 -19 -12 -35 -25 -35 -31 0 -13 -725 -738 -738 -738 -5 0 -13 -11 -16 -24 -3 -13 -18 -32 -33 -41 -16 -10 -53 -45 -83 -79 -30 -33 -66 -69 -79 -80 -13 -12 -33 -32 -45 -45 -12 -13 -28 -30 -36 -38 -98 -94 -155 -151 -205 -207 -33 -36 -66 -66 -72 -66 -7 0 -20 -12 -30 -27 -15 -24 -62 -72 -158 -160 -11 -11 -45 -46 -76 -79 -30 -33 -64 -67 -75 -75 -10 -7 -56 -55 -102 -105 -78 -86 -85 -98 -118 -194 -37 -107 -39 -164 -9 -200 7 -8 18 -32 26 -52 8 -23 35 -57 73 -90 l60 -53 107 0 c96 0 110 2 136 22 15 13 46 32 68 44 22 12 59 40 82 63 23 22 54 52 68 66 40 40 82 82 120 121 11 11 49 49 85 85 36 35 73 72 82 82 48 47 147 147 164 164 10 11 46 45 79 76 34 31 64 65 68 74 3 9 24 28 46 42 22 14 42 34 46 46 3 11 20 27 36 35 16 9 36 29 44 45 9 17 20 30 26 30 5 0 41 32 78 71 91 94 75 78 249 249 83 82 152 154 152 159 0 6 18 22 39 35 22 14 42 34 46 46 3 11 19 27 35 35 15 8 37 30 48 50 12 19 26 35 32 35 10 0 455 441 1520 1506 278 278 512 512 521 521 9 8 28 27 43 42 23 23 43 43 85 85 7 8 25 25 40 40 53 53 72 71 85 86 8 8 25 25 37 38 13 13 31 30 39 38 8 8 106 105 218 215 111 110 202 204 202 210 0 5 12 15 26 21 14 7 32 24 40 40 8 15 28 35 44 43 16 8 37 29 45 45 8 16 28 36 44 45 16 8 32 23 36 34 3 10 23 30 45 44 21 15 41 35 45 47 3 11 20 27 36 35 16 9 35 28 44 44 8 16 24 33 35 36 12 4 32 24 46 46 17 27 31 39 48 39 13 0 29 7 36 15 7 9 17 12 21 8 17 -17 21 -382 34 -2793 11 -2022 19 -2431 55 -2605 27 -132 26 -129 71 -181 21 -25 39 -52 39 -59 0 -8 18 -26 40 -40 23 -14 43 -32 47 -40 3 -8 56 -40 119 -71 l114 -57 115 5 c98 4 119 7 144 26 17 12 54 32 83 46 29 13 67 38 83 56 17 17 43 38 58 47 18 9 38 34 52 64 13 28 32 60 43 72 35 37 43 100 52 407 5 162 11 345 14 405 23 433 44 1870 48 3251 3 1039 10 1440 25 1455 17 17 49 -9 228 -187 83 -82 163 -157 177 -166 15 -10 29 -26 33 -37 3 -11 21 -29 41 -40 19 -11 39 -31 45 -45 6 -13 22 -29 35 -35 13 -5 33 -25 45 -43 13 -18 55 -62 95 -98 40 -36 75 -72 79 -81 3 -9 23 -28 45 -42 21 -15 41 -35 45 -47 3 -11 20 -27 36 -35 16 -9 35 -29 44 -45 8 -16 27 -35 42 -42 15 -7 33 -24 40 -38 6 -14 25 -32 40 -41 15 -8 34 -27 41 -42 7 -15 27 -34 43 -43 16 -8 34 -26 39 -39 5 -14 25 -31 43 -39 22 -9 37 -23 41 -39 3 -14 21 -34 41 -46 19 -11 40 -31 46 -44 6 -13 24 -31 40 -41 16 -9 29 -21 29 -26 0 -5 30 -38 67 -72 116 -109 293 -289 293 -297 0 -5 16 -18 35 -30 20 -11 39 -30 43 -41 4 -11 23 -28 42 -38 22 -10 36 -26 38 -40 2 -14 17 -29 42 -42 24 -12 40 -29 44 -45 4 -15 17 -30 32 -35 13 -5 34 -26 45 -45 12 -19 25 -35 29 -35 6 0 1145 -1125 1250 -1235 8 -8 159 -159 335 -335 176 -176 329 -328 340 -340 11 -11 46 -46 78 -79 32 -33 67 -63 77 -66 11 -4 27 -22 35 -41 8 -19 25 -38 39 -44 14 -5 32 -23 41 -39 8 -17 29 -38 45 -46 16 -8 37 -29 45 -45 8 -16 28 -36 44 -45 16 -8 32 -24 36 -34 3 -11 22 -30 41 -41 18 -12 34 -26 34 -31 0 -13 137 -149 149 -149 6 0 17 -13 26 -30 8 -16 29 -37 46 -45 16 -9 34 -27 39 -40 5 -14 25 -31 45 -39 21 -9 39 -26 45 -41 6 -16 25 -32 53 -44 23 -10 49 -26 57 -36 36 -43 141 -57 249 -34 38 8 56 18 75 44 14 19 35 36 45 40 35 11 56 88 55 200 -1 122 -16 179 -59 225 -19 19 -56 59 -83 89 -27 29 -56 60 -64 69 -9 8 -27 26 -41 39 -13 14 -31 32 -40 40 -8 9 -26 27 -41 42 -33 34 -66 66 -89 88 -112 108 -617 624 -617 631 0 5 -11 14 -25 20 -14 7 -34 25 -43 41 -9 17 -27 35 -40 40 -12 6 -32 27 -43 46 -12 19 -25 35 -30 35 -4 0 -154 147 -331 326 -178 179 -415 417 -527 527 -166 165 -386 385 -427 428 -12 13 -62 61 -81 79 -9 8 -28 26 -41 40 -203 209 -484 489 -504 502 -15 10 -29 26 -33 37 -3 11 -21 29 -40 41 -19 12 -37 29 -40 39 -3 10 -22 26 -42 37 -21 11 -40 30 -43 42 -3 12 -19 31 -37 42 -18 10 -39 32 -47 49 -9 16 -25 32 -36 36 -11 4 -28 19 -38 33 -21 34 -471 482 -483 482 -4 0 -15 13 -23 29 -9 16 -31 38 -51 49 -19 12 -35 28 -35 37 0 8 -18 26 -40 40 -22 14 -40 30 -40 35 0 13 -297 310 -310 310 -6 0 -18 16 -27 35 -10 21 -27 38 -40 41 -14 4 -32 22 -43 44 -13 25 -28 40 -42 42 -14 2 -30 16 -40 37 -10 19 -30 40 -47 47 -19 8 -33 23 -37 39 -4 17 -18 31 -41 40 -22 9 -37 25 -44 44 -6 17 -18 33 -27 36 -10 3 -46 37 -82 76 -36 39 -92 96 -124 127 -114 108 -196 193 -196 201 0 5 -16 18 -35 30 -19 11 -40 31 -46 43 -6 13 -25 32 -42 43 -21 13 -35 33 -43 60 -8 29 -16 40 -30 40 -18 0 -19 10 -22 130 -2 119 -1 131 17 146 11 9 24 35 31 57 6 23 19 46 30 52 10 6 43 36 72 67 70 76 92 98 368 367 221 215 279 280 300 333 5 12 21 30 36 39 14 10 244 235 510 500 266 266 489 486 497 491 7 4 20 21 30 36 10 15 29 33 41 39 13 5 29 21 35 34 6 14 27 34 46 45 19 12 35 26 35 33 0 16 42 56 58 56 7 0 12 5 12 10 0 14 577 590 590 590 6 0 10 5 10 11 0 6 111 122 248 258 136 135 255 259 265 274 9 15 24 27 33 27 8 0 24 15 35 34 11 19 36 44 55 55 19 11 34 27 34 36 0 9 16 25 35 37 20 11 42 33 51 49 8 16 19 29 25 29 13 0 644 631 652 653 4 10 14 20 24 24 9 4 253 243 541 531 289 288 541 533 561 545 20 11 63 24 95 28 47 6 66 13 90 38 17 17 45 44 61 60 83 82 90 97 91 193 0 66 4 92 16 104 21 21 77 32 221 44 134 11 213 39 244 86 9 14 23 83 34 169 13 95 29 173 48 223 15 42 31 95 35 117 4 22 21 72 38 110 16 39 37 93 45 120 8 28 26 66 39 87 27 38 56 142 47 165 -7 19 -48 34 -70 26 -10 -4 -28 -14 -41 -24 -13 -10 -49 -25 -80 -34 -31 -9 -78 -27 -104 -41 -94 -50 -344 -122 -463 -134 -60 -6 -138 -18 -173 -26 -77 -20 -97 -45 -118 -145 -8 -40 -23 -104 -34 -143 -10 -39 -22 -91 -25 -116 -8 -49 -28 -94 -47 -106 -7 -5 -43 -7 -80 -5 -59 2 -75 -1 -125 -28 -80 -43 -152 -139 -162 -216 -11 -81 38 -29 -851 -905 -293 -289 -540 -533 -549 -544 -53 -61 -139 -146 -148 -146 -6 0 -20 -15 -31 -34 -11 -19 -34 -42 -50 -50 -16 -8 -32 -24 -35 -35 -3 -11 -21 -30 -41 -42 -20 -11 -36 -25 -36 -30 0 -11 -560 -569 -571 -569 -5 0 -14 -11 -19 -25 -5 -14 -26 -35 -45 -46 -19 -12 -35 -25 -35 -30 0 -5 -33 -41 -72 -79 -88 -85 -28 -25 -411 -410 -178 -179 -368 -368 -423 -421 -54 -53 -205 -204 -335 -335 -131 -132 -436 -437 -679 -679 -396 -393 -444 -437 -455 -422 -10 14 -12 101 -9 400 6 601 9 650 44 725 18 39 33 93 40 145 8 65 21 103 61 184 28 57 63 112 77 124 15 11 32 30 39 42 8 16 32 28 89 43 l79 21 12 52 c6 29 12 108 14 174 3 137 10 156 67 187 123 69 195 142 256 263 35 68 45 99 50 158 9 100 -6 215 -33 243 -11 12 -27 41 -35 64 -9 24 -31 57 -49 75 -19 18 -36 37 -38 42 -2 6 -19 21 -36 34 -18 12 -33 29 -33 36 0 8 -12 17 -27 20 -65 13 -94 38 -114 95 -11 30 -22 82 -26 115 l-6 61 41 49 c23 28 50 59 62 70 11 11 35 34 53 51 18 17 50 43 73 57 62 38 248 227 264 267 7 19 26 49 41 67 15 17 32 54 38 81 5 27 22 85 37 128 25 72 28 93 28 230 l1 150 -31 60 c-17 32 -37 77 -44 99 -7 22 -23 47 -35 57 -33 26 -47 88 -44 201 8 305 14 292 -114 284 -77 -5 -93 -9 -129 -36 -45 -33 -101 -41 -130 -18 -26 20 -43 106 -43 213 l0 100 48 96 c40 79 48 103 42 128 -11 51 -41 63 -128 51 -41 -6 -86 -15 -100 -20 -49 -19 -158 -98 -248 -181 -50 -46 -94 -78 -100 -74 -7 4 -9 28 -5 68 20 209 19 235 -23 526 -5 36 -10 45 -25 45 -16 0 -23 14 -38 75 -13 52 -27 83 -47 105 -16 16 -36 47 -44 67 -9 20 -25 41 -36 48 -12 6 -30 28 -41 50 -11 21 -28 41 -39 45 -11 3 -29 21 -40 40 -11 19 -27 35 -35 35 -8 0 -27 15 -43 34 -15 19 -48 42 -73 51 -25 10 -58 31 -73 46 -15 16 -36 29 -46 29 -33 0 -116 33 -141 55 -22 20 -39 24 -140 28 -63 3 -124 3 -135 1z m-5362 -5515 c43 -43 92 -88 107 -99 16 -11 32 -29 35 -40 4 -11 20 -27 36 -36 16 -8 35 -26 41 -39 6 -14 27 -34 46 -45 19 -11 36 -30 39 -41 3 -11 22 -29 43 -39 24 -12 40 -29 44 -45 4 -15 17 -30 32 -35 13 -5 34 -25 45 -44 11 -19 29 -38 40 -41 11 -4 31 -24 45 -46 13 -21 31 -39 39 -39 8 0 27 -18 41 -40 14 -22 34 -42 44 -45 10 -3 25 -16 34 -29 19 -30 201 -211 239 -238 15 -10 27 -26 27 -34 0 -7 18 -25 39 -38 22 -14 42 -34 46 -45 3 -11 21 -29 39 -40 18 -11 38 -32 44 -46 6 -14 23 -31 38 -37 14 -7 32 -24 40 -40 8 -15 28 -35 44 -43 17 -9 30 -19 30 -24 0 -4 39 -48 87 -96 77 -78 86 -92 85 -123 -2 -41 -23 -78 -51 -87 -11 -3 -29 -21 -40 -41 -11 -19 -32 -39 -46 -46 -14 -6 -25 -16 -25 -23 0 -6 -19 -30 -42 -52 -24 -23 -50 -49 -58 -58 -8 -9 -28 -28 -45 -44 -16 -15 -104 -105 -195 -201 -91 -95 -218 -227 -283 -293 -64 -65 -122 -127 -128 -139 -6 -11 -26 -26 -45 -34 -19 -8 -32 -18 -30 -23 8 -12 -31 -59 -54 -66 -11 -4 -20 -12 -20 -18 0 -16 -523 -547 -538 -547 -10 0 -293 270 -362 345 -8 9 -36 38 -61 63 -26 26 -49 55 -52 64 -3 9 -16 18 -29 20 -15 2 -29 16 -41 41 -11 22 -26 37 -36 37 -21 0 -48 27 -53 55 -2 11 -14 22 -28 25 -15 3 -32 19 -42 40 -10 19 -31 39 -48 46 -16 7 -30 17 -30 22 0 5 -157 167 -350 360 -192 194 -350 356 -350 361 0 5 -9 13 -21 16 -11 4 -29 20 -39 37 -10 16 -32 38 -49 49 -27 16 -31 24 -31 62 0 49 21 84 52 89 14 2 24 11 26 23 2 11 25 41 50 67 26 25 54 53 62 62 8 9 27 28 42 43 27 27 64 65 81 83 8 8 67 67 87 87 4 4 31 33 59 63 27 30 57 62 66 70 9 8 26 26 38 38 40 43 276 286 299 310 13 12 30 29 38 38 8 9 31 32 50 52 20 20 44 49 53 64 10 15 27 30 40 33 12 4 29 21 37 38 8 18 26 37 38 43 13 7 32 26 43 43 10 17 30 36 44 41 14 5 25 15 25 21 0 7 37 48 82 93 46 44 109 110 141 145 32 35 79 79 104 97 l47 33 35 -31 c20 -17 71 -66 114 -109z"/>
<path d="M25640 23106 c-22 -8 -75 -54 -140 -120 -252 -260 -329 -336 -338 -336 -5 0 -12 -9 -15 -19 -3 -11 -19 -29 -37 -40 -18 -10 -37 -30 -44 -43 -6 -12 -25 -32 -42 -43 -17 -11 -35 -29 -40 -40 -5 -11 -23 -29 -39 -40 -17 -10 -40 -33 -50 -50 -11 -16 -30 -34 -43 -40 -12 -5 -22 -14 -22 -18 0 -7 -262 -277 -370 -382 -17 -16 -57 -57 -80 -80 -8 -8 -81 -79 -161 -158 -80 -78 -150 -150 -155 -159 -5 -9 -24 -27 -43 -40 -40 -27 -52 -61 -44 -128 5 -41 10 -49 37 -61 17 -8 40 -28 51 -46 11 -17 30 -36 43 -42 12 -6 31 -25 41 -42 10 -17 33 -39 50 -50 17 -10 33 -29 36 -42 4 -14 21 -31 41 -40 19 -9 34 -21 34 -27 0 -10 70 -88 117 -130 9 -8 23 -23 32 -33 9 -10 58 -60 109 -111 50 -52 92 -98 92 -103 0 -4 14 -16 30 -25 17 -9 34 -28 40 -42 5 -14 23 -32 40 -41 17 -9 36 -29 41 -45 7 -18 21 -32 40 -39 20 -7 33 -21 40 -41 8 -20 23 -35 45 -45 23 -9 34 -21 34 -34 0 -13 15 -30 40 -46 22 -14 40 -30 40 -35 0 -6 37 -48 83 -94 45 -47 142 -147 215 -223 73 -76 137 -142 142 -146 24 -24 70 -71 84 -88 13 -15 30 -19 86 -19 l70 0 25 40 c14 22 30 40 35 40 6 0 40 30 75 68 35 37 70 73 77 80 7 7 274 272 593 588 319 316 585 580 590 585 6 6 24 24 40 39 17 16 36 35 42 42 7 7 49 51 94 97 89 93 91 102 43 172 -13 19 -24 40 -24 47 0 6 -13 18 -30 27 -16 8 -37 29 -45 45 -8 16 -28 36 -44 45 -16 8 -33 24 -36 35 -4 12 -24 32 -46 46 -21 13 -39 31 -39 38 0 8 -18 28 -39 46 -22 17 -43 40 -46 50 -3 11 -18 25 -33 32 -14 7 -31 22 -37 34 -6 11 -44 55 -85 96 -41 42 -115 118 -165 169 -49 52 -201 209 -336 349 -135 140 -286 297 -335 349 -119 126 -251 253 -278 268 -27 15 -42 15 -86 -1z"/>
<path d="M19612 10647 c-9 -10 -341 -1071 -449 -1432 -34 -116 -135 -442 -143 -465 -5 -14 -23 -72 -40 -130 -17 -58 -47 -154 -66 -215 -53 -168 -69 -221 -104 -335 -85 -279 -103 -338 -115 -375 -8 -22 -27 -85 -44 -140 -17 -55 -64 -208 -105 -340 -41 -132 -79 -256 -84 -275 -6 -19 -56 -181 -112 -360 -122 -390 -119 -377 -89 -385 13 -3 265 -4 559 -3 l535 3 17 50 c9 28 67 217 128 420 62 204 115 377 120 385 6 13 84 15 588 18 l581 2 15 -22 c11 -18 164 -538 232 -792 8 -28 19 -53 26 -58 20 -12 1365 -10 1389 2 14 8 17 15 10 28 -5 9 -41 118 -79 242 -65 208 -153 486 -304 965 -33 105 -68 217 -78 250 -10 33 -44 141 -75 240 -31 99 -94 299 -140 445 -122 390 -235 751 -300 955 -31 99 -65 207 -75 240 -21 69 -151 483 -247 785 -35 113 -69 223 -74 245 -5 22 -17 46 -26 53 -25 18 -1436 18 -1451 -1z m633 -1467 c22 -73 42 -146 86 -307 11 -43 30 -107 40 -143 19 -63 55 -193 140 -503 27 -100 37 -152 31 -160 -8 -9 -93 -11 -339 -7 l-328 5 3 30 c3 32 20 94 113 425 31 113 78 282 104 375 25 94 52 190 60 215 7 25 16 57 19 72 11 49 26 80 37 76 6 -2 21 -37 34 -78z"/>
</g>
</g>
  <g id="id1:id1" transform="matrix(1.25,0,0,1.25,0.0,0.0)"><g transform="translate(0.000000,1678.400000) scale(0.040000,-0.040000)" fill="#f44702" stroke="none">
<path d="M0 33912 c0 -4054 4 -6782 9 -6787 6 -6 12 -2555 16 -6315 7 -6868 21 -15346 32 -18693 l6 -2117 12582 0 c10051 0 12584 3 12593 13 10 9 478 12 2270 12 1800 0 2256 -3 2254 -12 -1 -7 5 -13 14 -13 8 0 13 4 9 9 -3 5 -1 12 4 15 5 3 2530 6 5612 6 9479 1 24254 23 24268 36 2 2 -4 14 -15 25 -21 25 -661 626 -939 883 -66 61 -176 165 -245 231 -69 66 -186 176 -260 245 -222 206 -288 267 -454 425 -233 220 -309 291 -427 401 -300 279 -708 662 -814 765 -66 63 -217 205 -335 314 -118 109 -264 246 -325 305 -60 58 -171 161 -245 230 -204 189 -349 325 -496 465 -52 49 -377 353 -795 745 -156 146 -345 324 -419 395 -74 72 -227 215 -340 319 -113 104 -277 257 -364 340 -151 143 -215 203 -401 376 -44 41 -159 150 -255 241 -96 92 -257 242 -356 335 -342 318 -759 709 -879 824 -66 63 -181 171 -255 240 -224 208 -288 268 -454 425 -233 220 -309 291 -427 401 -302 281 -708 662 -814 765 -66 63 -214 202 -330 309 -115 107 -262 244 -325 305 -63 60 -176 166 -250 235 -169 158 -470 438 -491 459 -18 18 -233 220 -390 367 -333 310 -709 663 -809 760 -63 61 -216 205 -340 319 -124 115 -273 254 -331 309 -58 56 -166 157 -240 226 -265 247 -305 285 -405 380 -139 132 -368 347 -496 466 -279 260 -685 641 -798 749 -69 66 -186 176 -260 245 -223 207 -288 268 -454 425 -152 143 -221 208 -401 375 -44 41 -159 150 -255 241 -96 91 -264 249 -372 350 -108 101 -322 301 -475 443 -153 143 -330 309 -393 370 -63 61 -176 168 -250 236 -74 69 -178 166 -230 215 -52 50 -160 151 -239 225 -80 74 -181 169 -225 211 -45 42 -129 121 -187 175 -300 279 -708 662 -814 765 -66 63 -217 205 -335 314 -118 109 -264 246 -325 305 -60 58 -171 161 -245 230 -289 268 -459 428 -563 530 l-79 76 158 145 c86 79 201 185 255 234 54 50 178 164 275 255 98 91 215 199 261 240 45 41 162 149 259 240 98 91 217 201 265 245 48 44 168 154 265 245 98 91 217 201 265 245 49 44 166 152 261 241 238 221 370 343 642 594 470 432 713 657 806 745 52 50 169 158 260 240 90 83 210 193 265 245 55 52 176 165 270 250 93 85 217 200 275 255 58 55 175 163 260 240 85 77 200 183 255 235 55 53 176 165 270 250 93 85 213 196 265 245 52 50 169 158 260 240 90 83 210 193 265 245 55 52 176 165 270 250 93 85 217 200 275 255 58 55 175 163 260 240 85 77 200 183 255 235 55 53 176 165 270 250 93 85 213 196 265 245 52 50 169 158 260 240 90 83 210 193 265 245 55 52 176 165 270 250 93 85 217 200 275 255 58 55 175 163 260 240 85 77 200 183 255 235 55 53 176 165 270 250 93 85 213 196 265 245 52 50 169 158 260 240 90 83 210 193 265 245 55 52 176 165 270 250 93 85 217 200 275 255 58 55 175 163 260 240 85 77 200 183 255 235 55 53 176 165 270 250 93 85 213 196 265 245 52 50 169 158 260 240 90 83 210 193 265 245 55 52 176 165 270 250 93 85 217 200 275 255 58 55 177 165 265 245 88 80 202 186 255 235 52 50 171 160 265 245 93 85 213 196 265 245 52 50 169 158 260 240 90 83 210 193 265 245 55 52 176 165 270 250 93 85 217 200 275 255 58 55 177 165 265 245 88 80 202 186 255 235 52 50 171 160 265 245 93 85 213 196 265 245 52 50 169 158 260 240 90 83 210 193 265 245 55 52 176 165 270 250 93 85 217 200 275 255 58 55 177 165 265 245 88 80 202 186 255 235 52 50 171 160 265 245 93 85 213 196 265 245 52 50 169 158 260 240 90 83 210 193 265 245 55 52 176 165 270 250 93 85 217 200 275 255 58 55 177 165 265 245 88 80 202 186 255 235 52 50 171 160 265 245 93 85 213 196 265 245 52 50 169 158 260 240 90 83 210 193 265 245 55 52 176 165 270 250 93 85 225 208 295 274 69 65 140 127 158 138 51 32 41 44 -40 51 -40 4 -13540 7 -30000 7 l-29928 0 0 -6778z m22190 4013 c183 -33 366 -97 505 -177 139 -81 310 -234 421 -377 55 -71 250 -414 270 -476 9 -27 40 -117 69 -200 181 -514 210 -1331 65 -1890 -30 -119 -98 -316 -131 -385 -16 -33 -29 -63 -29 -65 0 -3 -23 -47 -52 -98 -280 -503 -693 -795 -1216 -861 -506 -64 -977 76 -1300 388 -90 86 -196 214 -245 296 -153 252 -168 281 -234 460 -38 102 -77 219 -86 260 -48 218 -78 408 -87 560 -5 91 -12 198 -15 239 -3 40 2 186 11 324 13 219 21 280 60 474 38 191 53 248 110 395 83 217 92 234 242 468 97 150 192 253 345 371 225 175 479 273 807 313 82 10 399 -2 490 -19z m-2657 -70 c-15 -131 -47 -432 -58 -550 -8 -82 -19 -177 -25 -210 -5 -33 -12 -107 -16 -165 -4 -58 -11 -110 -16 -117 -8 -10 -220 -12 -931 -12 -663 0 -922 -3 -927 -11 -4 -6 -13 -75 -19 -153 -42 -481 -42 -497 -3 -470 186 129 441 214 677 228 136 7 351 -8 435 -31 148 -42 219 -68 329 -124 341 -171 598 -467 697 -803 46 -156 63 -264 70 -457 5 -131 3 -174 -15 -282 -29 -173 -62 -282 -125 -413 -76 -159 -171 -289 -303 -416 -86 -83 -307 -237 -398 -278 -38 -18 -83 -38 -100 -46 -16 -8 -50 -23 -75 -34 -25 -11 -119 -38 -210 -61 -155 -38 -199 -44 -478 -66 -97 -8 -374 11 -477 33 -38 8 -101 21 -140 28 -38 8 -137 40 -220 72 -409 156 -720 430 -887 783 -33 69 -70 161 -82 205 -43 151 -58 214 -52 223 3 5 40 12 83 16 78 6 393 43 598 70 61 8 139 18 175 21 36 4 107 13 159 21 52 7 97 11 102 9 4 -3 11 -19 14 -36 10 -46 51 -133 91 -196 91 -142 235 -223 434 -244 210 -21 362 24 487 144 73 69 101 114 134 212 20 59 24 89 23 195 -1 112 -3 132 -27 189 -36 86 -81 154 -132 199 -113 99 -292 159 -442 148 -170 -13 -350 -99 -428 -206 -20 -28 -45 -54 -54 -59 -16 -9 -130 0 -188 14 -21 5 -104 17 -458 65 -77 11 -187 26 -244 34 -57 8 -107 18 -112 23 -9 9 2 214 26 483 8 91 19 239 25 330 5 91 12 179 15 195 3 17 12 131 20 255 8 124 20 268 25 320 5 52 14 169 20 260 5 91 14 208 20 260 5 52 14 167 20 254 6 88 13 163 16 168 3 4 668 7 1477 6 l1472 -3 -2 -20z m249 -9565 c20 -11 45 -24 55 -29 10 -6 43 -20 73 -31 30 -11 78 -37 106 -58 74 -55 208 -192 229 -232 9 -19 30 -45 46 -58 16 -13 29 -32 29 -41 0 -27 36 -105 58 -124 35 -32 47 -147 45 -450 -2 -258 -1 -283 18 -333 11 -30 23 -54 26 -54 3 0 14 11 24 25 11 13 25 22 32 19 7 -2 29 13 49 33 20 21 48 49 61 63 47 49 179 165 200 177 26 15 113 17 122 3 3 -5 -3 -22 -14 -37 -31 -45 -45 -126 -38 -230 7 -107 27 -155 90 -220 38 -40 45 -43 93 -43 29 0 55 -4 59 -10 3 -5 22 2 42 16 30 20 47 24 88 22 l50 -3 1 -115 c0 -138 9 -193 34 -215 11 -10 29 -47 41 -84 12 -36 32 -75 44 -87 36 -33 49 -150 37 -324 -8 -108 -13 -133 -39 -185 -16 -33 -36 -86 -43 -119 -10 -44 -21 -63 -43 -80 -16 -11 -33 -31 -38 -43 -4 -12 -26 -34 -49 -48 -22 -14 -40 -32 -40 -40 0 -8 -15 -22 -32 -31 -68 -35 -250 -202 -301 -277 -21 -31 -41 -74 -46 -101 -8 -42 -6 -56 15 -100 13 -28 24 -58 24 -66 0 -38 23 -92 41 -98 57 -21 210 -160 265 -239 l39 -57 0 -156 0 -157 -30 -37 c-79 -98 -142 -156 -186 -171 -25 -9 -63 -33 -83 -54 l-38 -39 -10 -153 -9 -154 -42 -38 c-23 -21 -65 -49 -92 -62 -79 -38 -153 -137 -185 -249 -10 -35 -30 -90 -44 -123 -14 -32 -30 -92 -36 -132 -6 -43 -20 -90 -33 -110 l-22 -36 -6 -450 c-10 -630 -4 -716 49 -744 14 -7 21 -5 29 8 6 9 30 23 53 31 23 8 56 28 74 44 18 17 58 54 88 82 31 28 61 61 67 73 7 12 30 33 51 46 22 14 40 32 40 39 0 8 16 24 35 36 20 12 42 35 50 51 9 16 20 29 25 29 5 0 38 30 74 66 35 37 70 73 78 82 42 41 157 156 169 168 21 20 87 87 128 128 9 10 29 29 44 44 16 15 55 54 87 87 32 33 68 69 79 80 12 11 49 49 83 84 35 36 74 74 87 85 13 12 128 126 255 255 127 128 287 288 355 355 316 309 1261 1258 1261 1266 0 5 14 17 30 25 17 9 36 27 42 41 6 13 26 34 44 45 18 11 36 29 39 40 4 10 24 28 46 39 21 11 39 25 39 32 0 6 33 42 73 80 39 37 75 72 79 76 101 107 491 492 498 492 6 0 17 15 25 34 8 19 23 37 34 41 11 3 31 22 46 41 15 19 38 39 51 44 14 6 27 18 31 27 4 10 36 46 72 80 79 75 68 64 211 207 63 64 141 141 173 173 182 182 196 201 212 306 5 30 16 45 57 78 l51 40 71 0 c100 -1 106 0 106 19 0 20 24 43 33 33 4 -3 7 1 7 9 0 9 14 28 31 42 36 31 44 57 59 195 11 102 31 162 68 204 22 24 85 40 167 42 51 0 83 7 117 24 27 12 92 29 145 38 69 10 119 25 170 50 129 62 190 54 144 -20 -11 -18 -26 -57 -32 -86 -6 -29 -24 -81 -39 -115 -16 -35 -36 -103 -44 -152 -9 -49 -24 -120 -35 -159 -11 -38 -25 -98 -31 -132 -7 -34 -20 -68 -29 -76 -9 -7 -72 -21 -141 -30 -107 -14 -137 -23 -207 -57 -45 -22 -86 -40 -92 -40 -27 0 -42 -50 -42 -135 -1 -67 -5 -94 -20 -119 -21 -36 -77 -70 -130 -80 -55 -10 -131 -91 -154 -165 -7 -22 -5 -23 20 -17 40 10 62 -1 94 -47 16 -23 72 -87 126 -142 54 -55 105 -109 114 -120 9 -11 28 -29 42 -40 14 -11 59 -56 99 -100 99 -109 390 -411 588 -612 89 -91 162 -168 162 -171 0 -6 28 -35 130 -133 19 -19 109 -112 200 -208 91 -95 219 -228 285 -296 66 -67 215 -220 330 -340 116 -120 227 -234 248 -253 20 -19 37 -41 37 -49 0 -8 15 -23 34 -34 19 -11 39 -33 44 -49 6 -15 23 -34 39 -42 15 -7 34 -26 41 -41 8 -16 24 -32 37 -37 14 -5 35 -25 47 -44 13 -19 33 -40 46 -45 12 -6 22 -15 22 -21 0 -6 37 -48 83 -94 45 -45 120 -125 167 -176 47 -52 98 -106 113 -120 67 -59 224 -216 244 -243 18 -24 199 -218 256 -274 72 -72 217 -217 252 -253 26 -26 46 -47 72 -73 14 -13 33 -32 42 -42 9 -9 76 -76 149 -149 72 -73 132 -139 132 -148 0 -8 12 -25 26 -39 15 -13 33 -39 40 -57 l14 -32 -52 -68 c-57 -74 -637 -653 -744 -743 -10 -9 -55 -55 -99 -103 -44 -48 -127 -133 -185 -189 -57 -56 -205 -202 -327 -324 -122 -123 -227 -223 -233 -223 -5 0 -10 -5 -10 -12 0 -16 -51 -68 -67 -68 -7 0 -13 -9 -13 -20 0 -11 -17 -31 -44 -49 -24 -17 -46 -37 -49 -46 -4 -8 -19 -23 -35 -32 -15 -10 -69 -63 -118 -118 -109 -119 -436 -447 -481 -482 -18 -14 -33 -31 -33 -38 0 -6 -17 -28 -37 -48 -21 -20 -45 -44 -54 -54 -8 -10 -26 -28 -40 -39 -13 -12 -34 -33 -46 -45 -11 -13 -43 -44 -70 -68 -26 -24 -76 -71 -110 -105 -34 -34 -97 -95 -139 -136 -42 -41 -115 -115 -163 -164 -299 -307 -1156 -1160 -1192 -1185 -23 -17 -48 -31 -55 -31 -32 0 -213 167 -214 197 -1 13 -106 120 -200 203 -47 41 -101 92 -120 114 -42 46 -107 111 -146 147 -16 14 -48 48 -72 75 -75 87 -121 136 -285 305 -89 92 -218 227 -287 299 -69 73 -258 269 -421 434 -163 166 -319 326 -345 357 -27 31 -100 105 -163 165 -63 60 -164 165 -224 234 -116 131 -305 326 -568 586 -86 85 -162 168 -169 184 -7 16 -20 32 -29 35 -9 3 -79 71 -156 151 -77 80 -196 203 -265 273 -69 70 -152 158 -185 194 -33 37 -68 70 -78 73 -10 3 -27 19 -37 36 -10 17 -29 35 -42 42 -12 6 -30 25 -38 43 -8 17 -25 36 -37 42 -12 6 -30 22 -40 38 -35 53 -186 193 -209 193 -23 0 -37 32 -35 80 2 58 -8 68 -39 35 -13 -14 -31 -25 -40 -25 -9 0 -22 -12 -28 -26 -7 -14 -17 -22 -23 -18 -8 5 -132 -111 -306 -289 -10 -10 -29 -28 -42 -40 -20 -19 -244 -243 -340 -342 -26 -26 -31 -42 -41 -120 -12 -99 -8 -373 6 -396 12 -19 36 -44 330 -341 140 -142 254 -262 254 -268 0 -5 5 -10 10 -10 6 0 82 -73 170 -162 88 -90 165 -167 171 -173 6 -5 23 -23 39 -39 37 -37 53 -53 83 -83 13 -14 32 -33 40 -42 8 -9 25 -26 38 -38 13 -13 34 -32 45 -44 29 -29 72 -71 91 -89 9 -8 25 -24 36 -35 32 -33 550 -551 1232 -1232 354 -354 648 -643 653 -643 6 0 19 -16 31 -35 11 -20 30 -39 42 -43 12 -5 29 -24 38 -42 10 -21 26 -36 40 -40 14 -3 32 -19 41 -35 9 -17 28 -36 42 -43 14 -7 31 -26 37 -42 7 -20 21 -34 41 -41 18 -7 36 -23 45 -43 8 -17 25 -36 37 -41 13 -6 29 -22 36 -37 7 -15 27 -36 45 -47 18 -11 39 -32 47 -45 7 -14 21 -28 31 -31 9 -3 24 -16 32 -28 21 -32 287 -299 324 -325 17 -12 35 -31 38 -42 3 -10 22 -28 41 -40 20 -11 38 -29 41 -40 3 -10 20 -26 38 -34 20 -10 37 -28 44 -46 6 -17 21 -34 36 -40 14 -5 35 -25 46 -44 11 -19 29 -38 40 -41 11 -4 27 -19 37 -33 9 -15 53 -64 97 -109 44 -45 87 -89 95 -97 8 -9 47 -47 85 -85 39 -38 75 -74 80 -79 6 -6 24 -24 42 -42 17 -17 36 -36 41 -42 6 -5 24 -23 40 -40 40 -40 55 -56 85 -85 13 -14 32 -33 40 -42 8 -9 25 -26 38 -38 120 -114 279 -284 279 -298 0 -7 14 -41 31 -76 35 -69 35 -115 1 -153 -11 -12 -27 -35 -36 -53 -21 -43 -74 -57 -180 -50 -75 5 -81 7 -112 41 -18 20 -38 36 -44 36 -13 0 -363 344 -962 945 -219 220 -402 403 -406 407 -4 4 -87 86 -185 182 -98 97 -187 180 -197 186 -10 6 -25 22 -32 37 -7 15 -24 33 -36 39 -13 7 -32 26 -43 43 -10 17 -30 36 -44 41 -13 5 -31 23 -40 39 -8 17 -28 37 -44 45 -16 9 -32 27 -35 41 -4 17 -17 30 -36 36 -16 6 -38 26 -49 45 -11 19 -31 38 -44 43 -13 5 -30 23 -37 40 -7 17 -17 31 -22 31 -5 0 -32 21 -58 48 -27 26 -57 55 -67 64 -10 10 -87 87 -172 173 -85 85 -158 155 -162 155 -5 0 -20 18 -33 39 -14 22 -34 42 -46 46 -11 3 -27 19 -35 35 -8 16 -27 35 -42 42 -15 7 -33 24 -40 38 -6 14 -25 32 -40 41 -15 8 -34 27 -41 41 -7 15 -28 35 -47 47 -19 11 -35 27 -35 36 0 8 -18 26 -40 40 -22 14 -40 30 -40 35 0 5 -127 135 -282 289 -156 154 -290 286 -298 295 -8 8 -111 111 -228 228 -118 117 -273 273 -345 347 -73 74 -143 143 -156 155 -13 12 -52 50 -87 86 -63 66 -209 210 -366 363 l-88 85 -45 -21 c-32 -15 -47 -29 -51 -47 -10 -45 -13 -50 -27 -44 -11 4 -16 -15 -22 -93 -9 -116 -20 -912 -25 -1738 -1 -324 -3 -639 -4 -700 -1 -60 -4 -441 -6 -845 -2 -404 -9 -910 -16 -1125 -23 -688 -30 -802 -55 -930 -17 -85 -25 -104 -50 -129 -17 -15 -34 -39 -40 -52 -5 -14 -17 -27 -26 -30 -35 -10 -98 -44 -126 -66 -24 -19 -43 -23 -131 -26 -120 -5 -201 9 -234 41 -13 12 -42 29 -65 38 -25 10 -47 27 -55 42 -7 14 -26 36 -42 47 -17 12 -30 31 -30 43 0 12 -14 49 -31 82 l-31 60 -8 365 c-4 201 -11 784 -14 1295 -7 1009 -13 1644 -21 2020 -3 132 -7 366 -10 520 -3 154 -12 483 -21 730 -13 392 -18 455 -34 490 -25 57 -53 80 -79 66 -11 -6 -28 -11 -39 -11 -10 0 -46 -28 -78 -62 -33 -35 -118 -120 -189 -189 -72 -70 -158 -155 -193 -190 -85 -87 -68 -70 -341 -341 -134 -134 -251 -252 -260 -262 -43 -51 -141 -146 -151 -146 -6 0 -16 -14 -22 -30 -5 -17 -23 -37 -39 -45 -16 -9 -35 -28 -44 -44 -8 -16 -28 -34 -45 -39 -16 -6 -30 -16 -30 -22 0 -6 -33 -42 -72 -80 -90 -86 -44 -40 -411 -410 -172 -173 -324 -323 -339 -333 -16 -9 -28 -22 -28 -28 0 -6 -30 -40 -67 -75 -38 -36 -75 -72 -83 -81 -23 -25 -414 -413 -1175 -1168 -385 -381 -706 -700 -713 -707 -7 -7 -41 -42 -76 -78 -35 -36 -129 -130 -210 -209 -81 -79 -154 -154 -163 -167 -8 -13 -23 -26 -33 -29 -11 -3 -28 -21 -39 -39 -11 -18 -32 -38 -46 -46 -14 -7 -34 -28 -45 -47 -10 -18 -27 -33 -36 -33 -9 0 -31 -16 -49 -36 -37 -41 -79 -53 -173 -54 -65 0 -132 20 -132 41 0 6 -13 27 -30 46 -27 30 -30 40 -30 101 0 47 5 75 18 93 9 15 29 45 44 67 34 50 550 572 566 572 7 0 12 6 12 14 0 8 17 29 38 48 22 18 47 45 57 61 9 15 27 30 39 33 12 3 31 23 44 44 12 22 28 40 35 41 7 0 39 29 72 65 51 55 101 106 202 207 49 48 160 158 173 172 8 8 47 46 85 85 39 38 76 75 83 82 7 7 41 43 76 81 35 37 69 67 75 67 6 0 17 13 26 29 8 17 31 42 50 56 19 15 37 35 40 46 4 11 20 26 36 34 16 9 36 29 44 45 8 16 28 36 44 45 16 8 33 24 36 35 4 12 24 32 46 46 21 13 39 31 39 39 0 9 16 25 35 37 20 11 42 33 51 49 8 16 19 29 24 29 5 0 117 109 249 243 132 133 246 248 253 255 7 6 43 40 79 75 36 34 68 70 72 80 4 9 18 22 32 27 14 5 35 25 46 44 11 19 29 38 40 41 10 4 26 20 34 36 9 16 29 36 45 44 17 9 30 20 30 24 0 5 439 447 976 983 537 535 1022 1020 1077 1077 56 58 113 115 126 127 13 12 31 29 40 37 9 8 26 25 38 38 12 13 30 32 40 42 10 10 56 56 102 103 l84 86 10 116 c6 67 7 164 2 227 l-7 110 -32 30 c-17 16 -39 43 -49 58 -10 15 -29 33 -43 39 -14 7 -34 29 -45 50 -11 21 -26 38 -35 38 -8 0 -24 15 -35 34 -11 19 -34 40 -50 47 -19 7 -35 24 -41 41 -6 16 -21 34 -34 39 -14 5 -34 24 -45 43 -11 19 -31 37 -44 40 -13 3 -30 16 -36 28 -7 12 -56 65 -111 118 -140 137 -199 164 -256 120 -131 -101 -159 -126 -175 -150 -10 -16 -27 -32 -37 -35 -10 -3 -28 -22 -39 -41 -11 -19 -32 -39 -46 -44 -14 -5 -25 -14 -25 -20 0 -6 -36 -48 -80 -93 -44 -45 -157 -163 -252 -261 -213 -220 -402 -416 -422 -436 -15 -14 -80 -81 -176 -180 -25 -26 -139 -145 -255 -265 -257 -266 -479 -495 -605 -625 -52 -53 -129 -134 -170 -179 -102 -112 -223 -239 -328 -343 -31 -32 -131 -135 -222 -229 -91 -95 -205 -214 -255 -265 -186 -192 -492 -509 -535 -556 -25 -26 -56 -59 -70 -73 -100 -101 -127 -131 -143 -157 -10 -16 -24 -28 -33 -28 -8 0 -24 -16 -35 -35 -11 -19 -29 -37 -40 -40 -11 -4 -27 -18 -37 -33 -29 -45 -367 -379 -390 -386 -32 -11 -45 0 -225 178 -86 86 -162 156 -167 156 -5 0 -16 13 -25 30 -8 16 -28 36 -44 44 -16 9 -31 26 -35 39 -3 15 -18 30 -37 37 -19 8 -37 26 -45 46 -8 20 -24 36 -42 42 -17 6 -34 22 -41 40 -8 19 -24 35 -42 41 -16 5 -29 15 -29 22 0 8 -2481 2502 -2587 2600 -6 6 -25 24 -41 41 -17 16 -36 35 -42 41 -7 7 -31 31 -54 53 -22 23 -51 47 -63 53 -13 6 -23 17 -23 23 0 6 -99 109 -220 229 -121 120 -220 222 -220 227 0 5 -11 14 -25 20 -14 7 -35 27 -46 46 -11 19 -31 37 -44 40 -14 4 -32 20 -40 36 -8 16 -29 37 -45 45 -16 8 -32 26 -36 40 -3 13 -21 33 -40 44 -19 11 -39 31 -45 43 -5 13 -23 31 -40 40 -16 10 -32 24 -34 33 -9 29 -15 40 -29 60 -26 35 11 95 137 220 62 61 120 123 129 137 10 15 26 29 37 33 11 3 29 21 40 40 11 18 33 41 50 50 17 8 31 21 31 27 0 17 41 58 57 58 8 0 17 8 20 18 4 9 43 55 87 101 45 45 117 120 161 166 44 45 170 176 280 291 231 241 379 394 485 503 41 43 161 167 265 275 105 109 224 233 265 275 64 66 278 291 440 462 65 70 81 86 91 96 38 36 371 379 479 492 147 154 372 389 392 408 87 85 221 228 241 257 10 14 24 26 31 26 8 0 23 16 35 35 11 19 32 40 46 47 14 6 28 22 31 35 4 13 23 37 45 53 21 17 41 40 44 50 3 11 21 27 40 36 19 9 36 25 39 39 4 14 16 30 28 36 24 13 184 174 234 236 16 21 38 55 48 76 15 34 16 43 4 80 l-13 42 -65 17 c-103 26 -117 34 -140 79 -18 34 -21 52 -15 98 11 100 -29 151 -168 214 -67 30 -147 47 -228 47 -39 0 -63 5 -78 18 -36 31 -78 157 -96 289 -11 90 -23 139 -45 185 -16 35 -34 86 -41 113 -6 28 -25 77 -42 111 -40 80 -34 98 30 88 60 -9 89 -19 133 -49 25 -17 65 -27 144 -38 79 -11 117 -22 139 -37 23 -18 52 -24 146 -32 124 -10 161 -24 161 -61 0 -12 14 -69 31 -127 17 -58 37 -126 45 -152 8 -26 14 -55 14 -66 0 -25 56 -102 74 -102 8 0 23 -11 33 -25 l18 -25 48 16 c71 24 109 14 164 -42 38 -40 48 -59 61 -113 8 -36 20 -78 28 -92 7 -15 70 -82 140 -150 70 -68 234 -231 365 -361 131 -131 243 -238 249 -238 6 0 20 -16 31 -35 12 -19 33 -41 47 -47 15 -7 33 -26 40 -41 7 -15 26 -34 42 -42 16 -8 35 -25 41 -36 6 -12 40 -49 76 -83 111 -103 169 -162 191 -194 13 -17 31 -34 42 -37 11 -4 27 -20 35 -36 9 -16 31 -35 50 -43 19 -8 35 -21 35 -27 0 -17 40 -59 57 -59 7 0 19 -16 27 -35 10 -22 24 -37 40 -41 14 -3 34 -21 45 -40 11 -19 31 -38 45 -43 13 -6 28 -23 34 -40 7 -18 22 -35 37 -41 14 -5 35 -25 46 -44 11 -19 28 -36 39 -39 11 -3 29 -21 41 -41 11 -20 25 -36 31 -36 10 0 111 -99 138 -135 8 -12 49 -52 90 -90 41 -38 80 -79 87 -91 7 -12 28 -31 48 -43 19 -11 35 -27 35 -36 0 -8 18 -26 40 -40 22 -14 40 -32 40 -40 0 -9 15 -25 34 -36 19 -11 44 -36 55 -55 11 -19 27 -34 36 -34 9 0 25 -16 37 -36 11 -19 32 -40 45 -45 13 -5 33 -25 44 -44 12 -19 27 -35 35 -35 8 0 22 -13 32 -28 9 -16 92 -102 185 -192 92 -90 167 -170 167 -177 0 -7 18 -22 40 -33 22 -11 40 -24 40 -29 0 -6 851 -859 1024 -1026 12 -12 49 -50 83 -85 35 -36 73 -75 85 -86 13 -12 46 -47 73 -78 28 -31 65 -65 83 -76 17 -10 32 -24 32 -30 0 -6 28 -38 63 -71 34 -33 101 -98 148 -146 47 -47 95 -87 105 -88 29 -2 44 -14 44 -36 0 -10 6 -19 13 -19 7 0 20 -9 30 -20 9 -11 25 -20 36 -20 11 0 25 -2 33 -5 16 -6 46 46 61 107 13 52 10 577 -4 787 -5 80 -20 199 -33 265 -13 67 -27 150 -30 185 -4 44 -15 79 -35 115 -17 28 -37 84 -45 124 -12 58 -22 79 -46 102 -16 15 -30 35 -30 44 0 27 -79 104 -134 130 -28 13 -64 35 -81 49 l-29 25 -7 138 c-4 77 -11 150 -15 164 -11 40 -65 90 -124 117 -53 24 -127 90 -163 146 -22 35 -43 111 -52 193 -7 59 8 159 35 229 12 32 119 155 134 155 6 0 34 17 61 38 28 20 62 45 76 54 27 17 41 45 55 113 l9 40 75 20 75 21 -4 62 -3 63 -112 110 c-62 60 -125 118 -140 128 -15 10 -44 39 -64 64 -70 87 -74 94 -140 223 -11 22 -36 110 -54 195 -27 125 -33 176 -33 269 1 104 4 124 34 210 18 52 40 103 48 112 14 16 17 16 40 1 18 -12 27 -13 36 -4 6 6 24 11 40 11 63 0 86 32 111 155 9 44 27 130 41 190 18 87 25 155 30 322 7 213 14 247 45 228 6 -4 47 -8 90 -10 l79 -2 15 41 c9 22 20 59 25 81 6 22 22 56 36 75 13 18 27 50 31 69 17 109 29 143 50 158 13 8 28 29 34 48 6 18 32 51 60 74 l50 42 10 -28 c24 -66 44 -102 59 -109 16 -7 99 -8 138 -2 23 3 123 100 123 119 0 6 14 27 30 46 33 37 33 39 30 171 -2 78 -7 104 -30 156 -15 34 -31 82 -35 108 -6 39 -4 48 12 57 24 14 98 4 145 -19z m1272 -17658 c5 -8 96 -294 180 -562 24 -80 84 -269 131 -420 87 -277 180 -573 325 -1035 43 -137 106 -338 140 -445 34 -107 70 -222 80 -255 10 -33 45 -145 78 -250 33 -104 99 -314 147 -465 89 -283 214 -682 267 -850 17 -52 31 -104 32 -115 l1 -20 -685 0 -684 0 -17 60 c-70 263 -225 783 -235 794 -11 13 -102 14 -606 12 -326 -1 -596 -5 -600 -9 -4 -4 -11 -25 -17 -47 -5 -22 -36 -128 -69 -235 -33 -107 -85 -277 -116 -378 -30 -100 -58 -187 -61 -192 -8 -13 -1072 -14 -1080 0 -3 5 8 53 25 107 17 54 40 125 50 158 10 33 175 566 365 1185 190 619 355 1152 365 1185 19 61 69 222 142 460 22 72 45 148 53 170 7 22 25 81 40 130 15 50 47 155 72 235 90 290 101 327 128 415 15 50 33 108 40 130 8 22 26 81 41 130 15 50 31 96 37 103 7 9 163 12 718 12 389 0 710 -4 713 -8z"/>
<path d="M21789 37015 c-226 -57 -330 -321 -374 -948 -19 -274 -19 -467 0 -777 27 -449 50 -589 122 -750 54 -120 164 -212 269 -225 152 -19 274 33 352 149 73 108 108 227 146 493 74 509 47 1440 -50 1726 -49 143 -145 267 -244 314 -59 29 -150 36 -221 18z"/>
<path d="M23867 24113 c-15 -8 -32 -25 -37 -37 -4 -12 -15 -28 -24 -35 -18 -15 -21 -31 -6 -31 5 0 19 18 30 40 11 22 26 40 34 40 7 0 21 9 31 20 21 23 12 24 -28 3z"/>
<path d="M23218 23456 c-10 -7 -15 -15 -12 -18 7 -8 44 3 44 13 0 15 -15 17 -32 5z"/>
<path d="M14140 22941 c0 -5 5 -13 10 -16 6 -3 10 -2 10 4 0 5 -4 13 -10 16 -5 3 -10 2 -10 -4z"/>
<path d="M14300 22781 c0 -5 5 -13 10 -16 6 -3 10 -2 10 4 0 5 -4 13 -10 16 -5 3 -10 2 -10 -4z"/>
<path d="M14381 22714 c1 -21 16 -47 21 -38 4 5 0 18 -8 29 -8 10 -14 15 -13 9z"/>
<path d="M14465 22600 c-3 -5 1 -10 9 -10 9 0 16 5 16 10 0 6 -4 10 -9 10 -6 0 -13 -4 -16 -10z"/>
<path d="M14543 22536 c1 -16 9 -32 17 -34 12 -4 13 -2 4 9 -7 8 -14 23 -17 34 -4 13 -5 9 -4 -9z"/>
<path d="M14622 22448 c2 -14 11 -22 26 -23 l22 -2 -22 24 c-27 29 -30 29 -26 1z"/>
<path d="M13350 22439 c0 -5 5 -7 10 -4 6 3 10 8 10 11 0 2 -4 4 -10 4 -5 0 -10 -5 -10 -11z"/>
<path d="M24925 22400 c-3 -5 1 -10 9 -10 9 0 16 5 16 10 0 6 -4 10 -9 10 -6 0 -13 -4 -16 -10z"/>
<path d="M14700 22379 c0 -22 13 -34 39 -37 14 -1 23 -1 20 0 -2 2 -16 14 -31 27 -20 17 -28 20 -28 10z"/>
<path d="M24850 22308 l-12 -23 18 17 c10 10 15 20 12 24 -4 3 -12 -5 -18 -18z"/>
<path d="M14780 22298 c0 -20 13 -33 33 -35 17 -1 16 1 -4 23 -26 27 -29 29 -29 12z"/>
<path d="M15225 21840 c-3 -5 -1 -10 4 -10 6 0 11 5 11 10 0 6 -2 10 -4 10 -3 0 -8 -4 -11 -10z"/>
<path d="M27285 21480 c3 -5 8 -10 11 -10 2 0 4 5 4 10 0 6 -5 10 -11 10 -5 0 -7 -4 -4 -10z"/>
<path d="M24180 21166 c0 -9 5 -16 10 -16 6 0 10 4 10 9 0 6 -4 13 -10 16 -5 3 -10 -1 -10 -9z"/>
<path d="M24500 20841 c0 -6 4 -13 10 -16 6 -3 7 1 4 9 -7 18 -14 21 -14 7z"/>
<path d="M24580 20761 c0 -5 5 -13 10 -16 6 -3 10 -2 10 4 0 5 -4 13 -10 16 -5 3 -10 2 -10 -4z"/>
<path d="M24661 20674 c0 -11 3 -14 6 -6 3 7 2 16 -1 19 -3 4 -6 -2 -5 -13z"/>
<path d="M24740 20583 c0 -23 5 -33 15 -33 18 0 18 1 0 36 l-15 29 0 -32z"/>
<path d="M24820 20493 c0 -12 5 -25 11 -28 17 -11 18 -2 4 25 l-14 25 -1 -22z"/>
<path d="M24900 20413 c0 -12 5 -25 11 -28 16 -11 17 -2 2 25 l-13 25 0 -22z"/>
<path d="M25061 20254 c0 -11 3 -14 6 -6 3 7 2 16 -1 19 -3 4 -6 -2 -5 -13z"/>
<path d="M25221 20098 c-1 -19 32 -58 49 -58 6 0 2 8 -7 18 -10 10 -23 27 -30 38 -11 17 -12 17 -12 2z"/>
<path d="M25335 19960 c3 -5 10 -10 16 -10 5 0 9 5 9 10 0 6 -7 10 -16 10 -8 0 -12 -4 -9 -10z"/>
<path d="M20183 9263 c-12 -32 -54 -175 -93 -318 -81 -295 -133 -480 -159 -575 -10 -36 -31 -110 -46 -165 -15 -55 -31 -108 -36 -117 -5 -9 -6 -24 -3 -32 6 -15 45 -16 363 -14 l356 3 -2 33 c-1 32 -30 146 -78 307 -13 44 -35 125 -50 180 -15 55 -36 129 -46 165 -19 68 -81 289 -124 445 -13 50 -27 102 -30 118 -9 43 -29 32 -52 -30z"/>
</g>
</g>
  <g id="id2:id2" transform="matrix(1.25,0,0,1.25,0.0,0.0)"><g transform="translate(0.000000,1678.400000) scale(0.040000,-0.040000)" fill="#d40229" stroke="none">
<path d="M59920 40670 c0 -5 11 -10 25 -10 14 0 25 5 25 10 0 6 -11 10 -25 10 -14 0 -25 -4 -25 -10z"/>
<path d="M19637 28464 c-4 -4 -4 -11 -1 -15 7 -12 94 -12 94 0 0 16 -79 29 -93 15z"/>
<path d="M19748 28414 c-9 -9 30 -44 48 -44 8 0 24 -5 34 -10 23 -13 72 -2 67 14 -9 28 -129 61 -149 40z"/>
<path d="M19978 28323 c7 -3 16 -2 19 1 4 3 -2 6 -13 5 -11 0 -14 -3 -6 -6z"/>
<path d="M20036 28303 c-9 -22 10 -41 25 -26 13 13 5 43 -10 43 -5 0 -12 -8 -15 -17z"/>
<path d="M20086 28246 c10 -8 19 -20 19 -28 0 -7 17 -21 38 -31 20 -11 44 -31 52 -47 8 -15 27 -32 43 -38 20 -7 32 -19 36 -39 8 -28 33 -63 46 -63 5 0 11 7 14 16 7 19 -21 64 -40 64 -8 0 -19 12 -24 26 -12 31 -116 133 -148 145 -13 5 -31 9 -40 9 -13 0 -13 -2 4 -14z"/>
<path d="M19536 28130 c-3 -19 -7 -68 -9 -108 -4 -64 -8 -77 -33 -103 -21 -22 -37 -29 -65 -29 -20 0 -42 -7 -49 -15 -7 -8 -15 -53 -17 -99 l-6 -85 39 -16 c60 -25 84 -17 113 37 14 25 41 70 59 100 18 29 35 64 38 78 3 14 10 35 16 47 9 18 8 27 -4 40 -18 20 -48 104 -48 131 0 10 -6 27 -14 37 -13 19 -15 18 -20 -15z"/>
<path d="M20350 27963 c0 -34 36 -114 59 -129 13 -10 20 -22 17 -32 -7 -20 3 -36 27 -45 9 -4 20 -20 23 -37 4 -16 11 -30 16 -30 6 0 7 11 3 28 -3 15 -9 45 -11 67 -10 90 -14 103 -31 101 -11 -1 -21 10 -28 30 -5 17 -16 38 -24 47 -18 23 -51 22 -51 0z"/>
<path d="M19120 27830 c-7 -25 -23 -49 -44 -65 -30 -23 -34 -31 -38 -88 -6 -72 -3 -81 21 -68 18 10 41 71 41 109 0 11 13 30 29 41 44 32 51 110 9 111 -4 0 -12 -18 -18 -40z"/>
<path d="M20523 27433 c3 -124 0 -222 -9 -287 -16 -122 -11 -156 22 -156 16 0 28 10 40 33 41 81 141 218 167 230 15 6 27 18 27 26 0 10 -6 10 -26 -4 l-27 -17 -48 23 c-57 26 -78 60 -85 134 -2 28 -8 61 -13 75 -5 14 -15 49 -21 78 -23 102 -32 57 -27 -135z"/>
<path d="M18996 27524 c-3 -8 -10 -13 -15 -9 -6 3 -18 -11 -27 -31 -11 -23 -29 -41 -50 -50 -40 -17 -54 -41 -53 -91 1 -68 20 -106 59 -116 19 -5 45 -18 56 -29 17 -15 24 -17 30 -6 8 13 18 348 10 348 -2 0 -7 -7 -10 -16z"/>
<path d="M26597 27446 c-26 -5 -46 -14 -45 -18 2 -5 7 -9 11 -9 4 1 19 1 35 1 31 0 56 13 51 26 -2 5 -25 5 -52 0z"/>
<path d="M13081 27413 c0 -5 16 -21 34 -36 41 -34 171 -60 185 -37 13 21 1 37 -30 38 -15 0 -46 10 -69 21 -38 20 -122 29 -120 14z"/>
<path d="M26440 27400 c-84 -6 -130 -23 -130 -47 0 -13 23 -15 139 -18 31 0 55 7 82 24 66 43 48 51 -91 41z"/>
<path d="M20873 27363 c-20 -7 -15 -23 6 -23 26 0 51 10 51 21 0 9 -36 11 -57 2z"/>
<path d="M12817 27293 c-6 -32 7 -53 34 -53 27 0 30 13 9 48 -24 39 -36 40 -43 5z"/>
<path d="M26252 27308 c-6 -6 -52 -13 -107 -14 -53 -2 -106 -9 -118 -16 -21 -12 -19 -13 23 -19 95 -15 149 -11 184 16 18 14 38 25 44 25 7 0 12 5 12 10 0 14 -23 13 -38 -2z"/>
<path d="M13403 27287 c-8 -13 17 -27 52 -28 17 0 39 -2 50 -5 57 -12 213 -16 219 -5 5 7 -6 11 -36 11 -24 0 -59 5 -78 10 -52 16 -200 28 -207 17z"/>
<path d="M26768 27238 c-34 -52 -32 -98 3 -98 24 0 39 30 39 79 0 47 -19 55 -42 19z"/>
<path d="M21040 27141 l-25 -20 3 -176 c2 -97 7 -187 12 -200 11 -30 28 -39 45 -25 8 7 15 7 19 1 8 -13 63 15 76 39 14 26 4 44 -30 57 -21 8 -31 21 -39 51 -10 36 -14 136 -9 222 2 38 -7 70 -19 70 -4 0 -19 -9 -33 -19z"/>
<path d="M12930 27111 c0 -12 20 -71 36 -108 8 -17 14 -39 14 -50 0 -10 5 -25 10 -33 9 -13 11 -13 19 0 12 18 2 100 -14 120 -7 8 -20 30 -29 48 -15 30 -36 43 -36 23z"/>
<path d="M26685 27079 c-41 -49 -33 -169 11 -169 18 0 32 48 37 122 5 79 -9 93 -48 47z"/>
<path d="M13899 27078 c-1 -13 -1 -70 0 -128 2 -91 5 -107 22 -119 10 -7 19 -24 19 -38 0 -33 21 -115 33 -130 14 -19 52 -16 72 7 34 37 -5 150 -52 150 -17 0 -33 42 -26 69 5 19 -4 70 -29 169 -11 45 -37 58 -39 20z"/>
<path d="M25760 27090 c0 -5 5 -10 10 -10 6 0 10 5 10 10 0 6 -4 10 -10 10 -5 0 -10 -4 -10 -10z"/>
<path d="M25761 27038 c-18 -46 -22 -53 -36 -78 -8 -14 -15 -41 -15 -60 0 -40 -29 -94 -59 -110 -12 -6 -21 -17 -21 -26 0 -8 -7 -17 -15 -20 -20 -8 -19 -47 3 -67 25 -23 86 -32 100 -14 6 7 15 60 18 117 6 89 10 107 29 124 18 17 22 34 24 83 2 64 -12 90 -28 51z"/>
<path d="M18626 26971 c-14 -16 -16 -39 -14 -172 l3 -154 -27 -53 c-29 -55 -36 -96 -18 -107 5 -3 14 -20 19 -38 23 -76 40 -112 53 -112 10 0 13 26 15 115 0 63 5 211 9 328 6 185 5 212 -8 212 -8 0 -23 -8 -32 -19z"/>
<path d="M21275 26860 c-14 -22 13 -35 47 -22 17 6 35 9 39 6 5 -3 9 0 9 5 0 6 -6 11 -14 11 -7 0 -27 3 -44 6 -18 4 -32 1 -37 -6z"/>
<path d="M26587 26733 c-9 -16 -7 -149 2 -163 19 -28 33 5 38 89 l6 81 -21 0 c-11 0 -23 -3 -25 -7z"/>
<path d="M14186 26711 c-6 -9 48 -51 66 -51 15 0 20 23 7 35 -19 19 -65 29 -73 16z"/>
<path d="M25438 26699 c-10 -5 -18 -14 -18 -19 0 -14 34 -12 48 2 26 26 5 38 -30 17z"/>
<path d="M21431 26629 c-21 -35 -16 -195 8 -252 15 -35 26 -47 42 -47 l22 0 -7 133 c-4 72 -9 144 -12 160 -7 33 -34 36 -53 6z"/>
<path d="M14390 26460 c-14 -11 -31 -20 -37 -20 -19 0 -16 -10 12 -36 14 -13 25 -34 25 -47 0 -28 23 -52 44 -44 17 7 36 -11 36 -33 0 -9 17 -25 37 -36 21 -11 40 -29 41 -39 5 -28 32 -55 53 -55 18 0 32 -15 35 -38 4 -21 24 -41 46 -44 12 -2 25 -11 29 -20 5 -10 13 -26 18 -35 4 -10 21 -20 37 -23 21 -4 33 -14 43 -37 11 -24 21 -33 38 -33 18 0 28 -9 39 -35 9 -23 27 -41 54 -55 56 -28 52 -6 -7 45 -64 55 -112 107 -119 128 -3 9 -9 17 -13 17 -5 0 -20 18 -35 40 -14 22 -33 40 -41 40 -7 0 -24 18 -36 40 -13 22 -26 40 -30 40 -4 0 -50 42 -102 93 -80 78 -95 98 -100 131 -4 22 -14 48 -24 57 l-18 18 -25 -19z"/>
<path d="M25240 26451 c-5 -11 -10 -31 -10 -44 0 -31 -71 -119 -116 -143 -19 -10 -34 -26 -34 -35 0 -10 -16 -27 -36 -39 -19 -13 -39 -33 -44 -46 -6 -14 -21 -26 -37 -30 -49 -10 -52 -12 -46 -33 4 -15 -5 -26 -35 -45 -25 -15 -42 -34 -44 -48 -2 -14 -17 -30 -40 -43 -20 -11 -39 -27 -41 -37 -3 -10 -20 -26 -38 -37 -19 -11 -40 -34 -47 -51 -8 -17 -27 -37 -43 -46 -16 -8 -40 -31 -53 -52 -13 -20 -33 -45 -44 -56 -12 -10 -19 -22 -17 -26 11 -17 62 16 105 66 25 29 66 69 92 88 26 19 65 60 88 91 23 31 60 69 82 85 23 17 62 53 87 82 25 28 57 61 70 72 61 53 151 146 151 155 0 6 17 19 37 28 64 31 105 117 71 151 -18 18 -46 14 -58 -7z"/>
<path d="M26300 26399 c-19 -4 -48 -11 -65 -15 -16 -4 -34 -10 -40 -14 -5 -4 -35 -7 -65 -7 -72 0 -116 -22 -122 -62 -5 -37 1 -48 37 -67 36 -19 48 -18 41 4 -4 12 4 28 24 47 l31 29 139 -3 c121 -2 141 0 146 14 4 8 -1 24 -10 34 -9 10 -13 21 -9 25 11 11 -18 26 -47 25 -14 -1 -41 -5 -60 -10z"/>
<path d="M13354 26370 c-5 -5 -24 -12 -43 -17 -19 -5 -36 -14 -38 -20 -5 -15 47 -23 162 -23 87 0 104 -3 119 -19 9 -10 14 -25 10 -35 -7 -18 16 -106 28 -106 16 0 40 167 27 192 -5 9 -21 19 -36 22 -51 10 -220 15 -229 6z"/>
<path d="M18285 26253 c-4 -10 -10 -110 -14 -223 -5 -183 -4 -208 12 -237 11 -21 17 -55 17 -93 0 -33 4 -60 10 -60 9 0 15 40 12 85 -6 95 -1 406 7 428 16 40 3 117 -19 117 -10 0 -21 -8 -25 -17z"/>
<path d="M21525 26238 c4 -18 8 -40 9 -48 4 -30 17 -42 32 -29 7 6 11 16 7 23 -4 6 -6 21 -4 34 3 27 -15 52 -36 52 -12 0 -14 -7 -8 -32z"/>
<path d="M26016 26084 c-9 -24 -7 -34 8 -34 16 0 29 27 20 41 -8 14 -21 11 -28 -7z"/>
<path d="M21596 26061 c-3 -5 -7 -77 -10 -160 -3 -146 -9 -182 -22 -147 -11 28 -22 18 -34 -33 -15 -66 -9 -186 11 -186 14 0 53 151 42 168 -2 4 7 24 22 43 23 30 26 44 27 112 1 132 -17 234 -36 203z"/>
<path d="M13747 25935 c-22 -27 -29 -48 -31 -86 -2 -58 6 -78 26 -63 7 6 46 35 86 64 83 63 93 91 41 109 -60 21 -91 14 -122 -24z"/>
<path d="M25669 25943 c-18 -16 -46 -32 -63 -38 -17 -5 -35 -19 -41 -30 -25 -48 -49 -75 -66 -75 -11 0 -19 -6 -19 -14 0 -8 -15 -25 -32 -37 -32 -22 -128 -118 -128 -128 0 -9 -171 -171 -180 -171 -5 0 -12 -9 -15 -21 -4 -11 -22 -27 -41 -36 -19 -9 -34 -20 -34 -25 0 -4 -97 -105 -215 -224 -118 -118 -215 -219 -215 -224 0 -4 -16 -17 -35 -29 -19 -11 -40 -32 -45 -45 -5 -14 -19 -30 -31 -36 -16 -9 -1373 -1362 -2119 -2114 -8 -9 -26 -27 -40 -41 -14 -13 -33 -33 -43 -42 -9 -10 -27 -28 -40 -40 -12 -13 -29 -29 -37 -38 -8 -8 -26 -26 -40 -40 -14 -13 -32 -31 -40 -40 -8 -8 -62 -61 -120 -117 -58 -56 -110 -111 -115 -123 -6 -11 -24 -29 -41 -40 -16 -10 -39 -33 -49 -49 -11 -17 -31 -36 -44 -42 -13 -7 -33 -26 -43 -43 -11 -17 -24 -31 -30 -31 -5 0 -27 -20 -50 -45 -22 -24 -49 -47 -58 -50 -10 -3 -23 -19 -30 -36 -7 -16 -26 -37 -42 -45 -16 -8 -33 -26 -38 -40 -5 -13 -26 -32 -45 -41 -20 -10 -38 -27 -41 -39 -3 -13 -23 -34 -44 -49 -21 -15 -41 -33 -44 -41 -3 -8 -21 -24 -41 -35 -19 -12 -35 -27 -35 -34 0 -8 -15 -25 -32 -40 -29 -23 -31 -27 -16 -35 16 -10 15 -13 -7 -47 -14 -20 -25 -42 -25 -50 0 -23 -53 -93 -119 -158 -135 -132 -140 -140 -96 -151 31 -8 53 9 57 44 2 23 7 27 29 24 36 -4 61 23 57 62 -3 29 -1 31 30 32 37 1 48 9 54 39 3 18 10 20 58 16 l55 -3 65 -68 c36 -38 83 -89 105 -114 82 -93 133 -144 152 -150 22 -7 97 -91 135 -151 14 -22 58 -71 98 -110 112 -107 137 -132 246 -245 55 -58 129 -132 165 -166 35 -33 87 -88 114 -122 50 -62 194 -212 296 -308 30 -28 76 -75 103 -105 27 -30 112 -121 190 -203 127 -135 237 -247 577 -593 59 -59 114 -120 124 -135 9 -16 23 -28 30 -28 8 0 24 -15 36 -32 13 -18 59 -69 103 -113 45 -44 128 -131 186 -194 58 -62 139 -148 180 -190 41 -43 179 -183 305 -313 127 -129 255 -265 285 -301 30 -37 59 -67 64 -67 6 0 38 -30 73 -68 35 -37 69 -74 77 -82 45 -46 317 -318 350 -349 21 -20 49 -54 62 -76 31 -53 70 -90 116 -110 21 -8 45 -27 54 -41 15 -22 22 -25 53 -19 47 9 96 39 127 80 14 18 36 36 49 39 14 4 25 11 25 16 0 8 76 93 125 140 23 22 264 258 396 387 63 62 188 187 278 278 90 91 169 165 175 165 6 0 20 15 30 34 10 19 35 48 55 64 20 16 66 60 103 98 37 38 80 83 97 99 69 69 138 138 163 163 15 15 51 52 80 82 29 30 111 111 182 180 71 69 169 166 217 215 277 282 326 334 342 359 10 15 25 30 34 33 8 3 118 110 244 237 126 127 239 240 251 251 12 11 46 47 77 80 31 33 85 87 119 120 72 67 251 247 298 297 16 18 55 56 85 85 30 29 79 79 109 113 30 33 67 67 83 75 15 9 27 21 27 28 0 7 35 43 78 81 42 38 84 80 93 94 9 13 28 32 41 41 13 9 95 90 183 181 87 91 169 172 181 180 34 23 114 110 114 124 0 7 11 23 25 36 20 19 25 33 25 71 0 42 -5 54 -42 96 -22 26 -47 53 -54 58 -7 6 -17 20 -21 32 -8 22 -232 255 -719 747 -133 134 -245 253 -248 264 -4 12 -22 30 -41 42 -19 12 -37 30 -40 40 -4 11 -10 20 -14 20 -10 0 -71 59 -106 103 -16 21 -41 48 -55 60 -14 12 -38 37 -55 56 -56 63 -385 391 -392 391 -15 0 -114 114 -128 146 -8 19 -18 34 -23 34 -12 0 -116 99 -128 121 -15 28 -163 189 -232 252 -7 7 -39 39 -70 72 -31 33 -69 68 -84 78 -16 10 -28 24 -28 32 0 8 -13 21 -30 30 -16 8 -38 28 -47 43 -23 36 -129 142 -142 142 -6 0 -17 12 -25 28 -18 33 -273 295 -304 311 -12 6 -29 27 -37 46 -8 20 -25 39 -38 44 -13 5 -31 21 -41 36 -9 14 -28 30 -42 35 -13 5 -27 18 -30 27 -12 38 -29 66 -43 71 -21 8 -121 107 -121 120 0 6 -24 32 -52 59 -102 94 -208 202 -208 212 0 5 -14 18 -31 28 -17 10 -37 33 -46 51 -8 17 -21 32 -28 32 -7 0 -27 18 -45 39 -17 22 -40 43 -51 46 -10 4 -26 20 -35 37 -18 36 -98 114 -136 134 -16 8 -28 22 -28 30 0 9 -17 33 -37 54 -21 21 -51 53 -67 69 -16 17 -33 31 -37 31 -17 0 -44 67 -49 124 l-5 59 -50 13 c-27 7 -73 13 -102 14 -42 0 -57 -5 -84 -27z m46 -2923 c8 -16 29 -37 45 -45 16 -8 36 -28 44 -44 9 -16 24 -31 36 -34 11 -3 28 -19 37 -36 10 -17 29 -36 42 -43 13 -7 35 -30 48 -50 13 -21 29 -38 37 -38 17 0 43 -30 48 -55 2 -11 14 -22 28 -25 15 -3 32 -19 42 -40 10 -18 29 -39 44 -45 14 -6 34 -26 43 -45 10 -23 24 -36 39 -38 13 -2 26 -11 29 -20 6 -15 81 -106 115 -140 91 -88 122 -119 173 -177 33 -37 71 -76 84 -88 13 -12 31 -30 40 -40 9 -10 27 -28 40 -40 13 -12 30 -29 38 -38 8 -9 27 -29 42 -43 14 -15 33 -33 41 -42 8 -8 51 -52 95 -97 44 -45 91 -97 103 -114 13 -18 30 -33 37 -33 8 0 21 -14 30 -30 9 -17 33 -41 55 -55 25 -16 40 -33 40 -45 0 -11 6 -20 14 -20 24 0 56 -50 56 -87 0 -27 -6 -37 -30 -51 -17 -9 -32 -24 -35 -33 -3 -9 -21 -30 -40 -48 -19 -17 -35 -38 -35 -46 0 -9 -20 -25 -45 -37 -25 -12 -44 -27 -42 -33 3 -15 -82 -98 -134 -130 -21 -14 -39 -30 -39 -35 0 -20 -82 -113 -113 -129 -18 -9 -38 -28 -45 -43 -7 -14 -28 -35 -47 -47 -19 -11 -35 -26 -35 -34 0 -7 -20 -28 -45 -45 -26 -18 -44 -36 -41 -41 3 -5 -4 -15 -17 -24 -12 -8 -81 -73 -152 -144 -72 -71 -140 -135 -153 -142 -12 -6 -22 -16 -22 -21 0 -12 -429 -443 -504 -507 -57 -49 -73 -53 -86 -19 -5 13 -17 30 -28 37 -10 8 -94 93 -187 189 -92 96 -258 269 -369 383 -110 114 -237 245 -281 291 -44 45 -175 181 -292 302 -116 120 -240 249 -275 286 -35 37 -76 73 -92 82 -18 9 -34 29 -41 49 l-12 35 52 53 c29 30 58 59 64 66 7 6 32 31 55 55 23 24 55 51 69 61 15 10 25 22 22 28 -4 5 2 12 12 16 26 9 63 44 63 60 0 8 8 16 18 20 25 9 72 55 66 65 -3 4 3 11 13 15 26 9 63 44 63 59 0 8 13 20 29 28 38 20 120 103 132 133 5 13 13 22 18 21 9 -3 40 24 93 81 13 13 52 51 87 85 36 34 72 70 80 80 9 10 66 68 126 127 61 60 117 115 125 124 8 9 26 26 39 38 13 12 29 29 37 37 104 110 380 378 391 380 1 0 9 -13 18 -30z"/>
<path d="M14990 25794 c0 -3 20 -26 45 -51 24 -25 47 -54 50 -64 3 -10 22 -27 41 -38 42 -25 44 -25 44 -6 0 14 -34 55 -45 55 -5 0 -39 29 -102 88 -24 22 -33 27 -33 16z"/>
<path d="M13657 25748 c-15 -11 -27 -25 -27 -31 0 -7 -16 -25 -35 -40 -33 -26 -48 -67 -24 -67 14 0 129 122 129 137 0 21 -15 22 -43 1z"/>
<path d="M13513 25592 c-27 -3 -33 -8 -33 -26 0 -27 -23 -50 -42 -43 -27 9 -49 -13 -46 -46 3 -30 1 -32 -32 -35 -43 -4 -59 -17 -53 -41 5 -21 -185 -228 -323 -351 -21 -19 -57 -55 -80 -80 -22 -25 -66 -67 -98 -95 -31 -27 -63 -62 -72 -78 -8 -15 -32 -39 -54 -53 -22 -15 -40 -32 -40 -38 0 -14 -243 -266 -288 -300 -29 -21 -68 -72 -108 -138 -6 -10 -25 -29 -41 -41 -41 -30 -532 -525 -580 -584 -21 -26 -90 -98 -153 -160 -190 -186 -350 -348 -350 -355 0 -3 -61 -68 -136 -145 -75 -76 -157 -163 -183 -193 -26 -30 -77 -84 -114 -119 -68 -65 -75 -90 -23 -77 16 4 33 20 46 45 11 22 29 42 40 46 11 4 27 19 34 34 8 14 26 33 40 41 14 7 26 18 26 23 0 7 74 82 158 160 30 27 122 133 122 139 0 4 16 14 35 23 24 9 39 24 46 44 6 17 26 39 45 50 19 11 34 27 34 35 0 8 18 25 40 37 32 18 40 28 40 51 0 21 6 31 25 38 14 5 35 26 46 45 12 20 29 35 40 35 10 0 19 5 19 10 0 6 17 27 38 48 20 20 45 50 55 65 10 15 28 32 40 37 23 9 107 94 107 108 0 5 19 24 42 43 24 19 56 49 73 68 16 19 98 104 180 188 83 85 202 208 265 274 63 67 171 178 239 247 68 70 131 136 140 147 9 12 43 45 75 74 33 30 80 80 106 112 26 32 77 89 113 126 37 37 122 124 190 193 67 69 133 134 147 146 14 12 50 48 80 81 30 33 64 66 75 74 26 18 87 97 83 107 -2 4 -18 6 -35 4z"/>
<path d="M15190 25586 c0 -7 11 -21 25 -30 15 -10 25 -26 25 -39 0 -17 10 -28 38 -40 21 -9 44 -17 50 -17 23 0 12 38 -15 55 -16 10 -43 33 -61 52 -34 34 -62 43 -62 19z"/>
<path d="M24432 25578 c-18 -18 -15 -28 8 -28 10 0 24 9 30 20 9 17 8 20 -8 20 -10 0 -23 -5 -30 -12z"/>
<path d="M24341 25516 c-14 -6 -21 -18 -21 -37 0 -23 -7 -32 -34 -43 -19 -8 -37 -24 -41 -37 -4 -12 -26 -39 -48 -61 -22 -21 -38 -40 -35 -44 17 -16 178 113 178 143 0 7 18 22 41 33 26 14 39 27 37 37 -3 19 -45 23 -77 9z"/>
<path d="M21446 25448 c-18 -25 -21 -42 -7 -33 5 3 13 0 17 -6 9 -15 24 8 24 39 0 28 -14 28 -34 0z"/>
<path d="M15344 25435 c-5 -11 4 -25 24 -43 16 -15 34 -35 39 -45 10 -20 87 -59 97 -49 15 14 4 42 -21 54 -16 7 -29 23 -31 35 -4 28 -30 49 -70 58 -25 5 -33 3 -38 -10z"/>
<path d="M21363 25365 c-3 -9 -3 -18 0 -22 10 -10 37 6 37 22 0 20 -29 20 -37 0z"/>
<path d="M18456 25330 c9 -16 17 -30 20 -30 2 0 4 14 4 30 0 23 -5 30 -19 30 -18 0 -19 -2 -5 -30z"/>
<path d="M15520 25266 c0 -9 5 -16 10 -16 6 0 16 -12 22 -27 16 -39 38 -63 56 -63 9 0 26 -10 39 -22 l23 -21 0 31 c0 24 -4 32 -18 32 -24 0 -42 19 -42 46 0 32 -28 58 -46 43 -11 -9 -18 -8 -29 1 -12 10 -15 10 -15 -4z"/>
<path d="M24115 25258 c-16 -12 -47 -43 -69 -68 -22 -25 -60 -64 -83 -87 -41 -40 -53 -63 -35 -63 5 0 17 9 28 21 45 48 79 79 87 79 22 0 117 124 104 136 -2 2 -17 -6 -32 -18z"/>
<path d="M21222 25218 c-7 -7 -31 -19 -55 -28 -30 -11 -42 -21 -42 -35 0 -14 7 -20 23 -20 16 0 34 15 59 48 34 45 40 60 15 35z"/>
<path d="M18620 25156 c0 -7 9 -16 20 -19 11 -3 20 -9 18 -14 -4 -14 24 -87 41 -108 10 -11 25 -32 34 -47 13 -21 25 -28 48 -28 21 0 40 -9 59 -30 36 -39 90 -43 90 -7 0 27 -71 116 -108 136 -15 8 -40 27 -56 42 -17 16 -38 29 -49 29 -10 0 -31 14 -45 30 -28 32 -52 39 -52 16z"/>
<path d="M21071 25110 c-36 -8 -51 -24 -51 -53 0 -10 -15 -24 -35 -34 -34 -16 -42 -31 -46 -78 -3 -46 2 -64 26 -79 14 -9 24 -13 23 -9 -1 4 4 37 12 72 12 52 21 68 48 89 29 22 81 104 64 101 -4 -1 -22 -5 -41 -9z"/>
<path d="M15720 25075 c0 -23 29 -75 42 -75 6 0 21 -11 34 -25 30 -33 46 -32 42 2 -2 20 -10 29 -28 33 -16 3 -32 19 -43 43 -19 37 -47 50 -47 22z"/>
<path d="M23855 24996 c-16 -13 -26 -28 -22 -32 11 -12 61 18 65 39 5 23 -8 21 -43 -7z"/>
<path d="M23779 24925 c-31 -17 -45 -45 -27 -56 17 -11 68 28 68 52 0 22 -6 23 -41 4z"/>
<path d="M15874 24915 c-5 -12 6 -29 35 -55 22 -21 41 -42 41 -47 0 -10 43 -33 60 -33 14 0 12 44 -2 58 -7 7 -22 12 -34 12 -16 0 -28 11 -41 38 -19 40 -49 54 -59 27z"/>
<path d="M23677 24832 c-23 -25 -21 -42 4 -42 32 0 59 19 59 40 0 26 -41 27 -63 2z"/>
<path d="M20961 24778 c-12 -27 -11 -32 6 -50 13 -12 34 -19 61 -20 33 0 48 -8 82 -39 39 -36 70 -43 70 -14 0 18 -31 43 -59 47 -19 2 -25 9 -26 31 -1 37 -32 64 -81 70 -37 4 -41 2 -53 -25z"/>
<path d="M18650 24793 c-40 -11 -100 -49 -100 -64 0 -21 20 -29 76 -29 53 0 91 29 75 59 -14 26 -34 39 -51 34z"/>
<path d="M16034 24748 c-5 -16 -2 -25 12 -33 11 -5 37 -29 59 -52 40 -42 75 -56 75 -30 0 18 -11 30 -48 56 -18 12 -30 26 -28 30 9 13 -24 51 -44 51 -10 0 -22 -10 -26 -22z"/>
<path d="M23581 24744 c-12 -15 -21 -31 -21 -35 0 -15 49 -10 75 7 31 20 32 40 3 48 -34 9 -35 8 -57 -20z"/>
<path d="M18492 24664 c-27 -18 -29 -34 -4 -34 21 0 62 27 62 41 0 14 -33 11 -58 -7z"/>
<path d="M23503 24658 c-11 -13 -23 -31 -26 -40 -4 -10 -13 -18 -20 -18 -13 0 -137 -114 -137 -125 0 -3 -77 -83 -170 -178 -94 -94 -166 -173 -160 -175 23 -8 57 8 68 32 6 13 24 32 41 42 17 10 31 22 31 27 0 10 211 223 227 228 22 7 143 129 143 144 0 8 15 22 33 31 17 9 35 22 39 27 21 33 -40 37 -69 5z"/>
<path d="M16200 24583 c0 -9 15 -31 33 -49 17 -18 40 -41 50 -52 10 -11 27 -22 38 -25 15 -4 19 0 19 21 0 21 -8 30 -31 41 -17 7 -33 21 -35 30 -11 34 -21 44 -47 47 -19 2 -27 -2 -27 -13z"/>
<path d="M21210 24586 c0 -18 17 -29 30 -21 8 5 7 11 -1 21 -15 18 -29 18 -29 0z"/>
<path d="M21290 24490 c0 -5 7 -10 16 -10 8 0 12 5 9 10 -3 6 -10 10 -16 10 -5 0 -9 -4 -9 -10z"/>
<path d="M16360 24425 c0 -4 35 -42 78 -84 l77 -76 3 28 c4 35 -10 53 -49 61 -22 4 -33 14 -40 36 -6 16 -17 30 -24 30 -7 0 -20 3 -29 6 -9 3 -16 3 -16 -1z"/>
<path d="M18312 24348 c-18 -33 -22 -230 -5 -235 17 -6 24 48 21 161 -3 89 -4 97 -16 74z"/>
<path d="M21356 24324 c-8 -20 -8 -212 0 -241 9 -34 32 -28 42 11 12 40 3 216 -11 234 -13 16 -24 15 -31 -4z"/>
<path d="M16551 24261 c-22 -14 0 -56 39 -76 16 -8 30 -22 30 -30 0 -22 48 -51 62 -37 20 20 1 57 -34 67 -25 8 -33 16 -34 34 -1 14 -10 30 -20 38 -21 15 -24 16 -43 4z"/>
<path d="M16707 24083 c-8 -13 12 -53 25 -53 29 0 41 16 29 39 -11 20 -45 29 -54 14z"/>
<path d="M22878 24035 c-29 -31 -59 -67 -65 -80 -7 -13 -22 -26 -32 -30 -22 -7 -38 -42 -24 -56 9 -9 63 35 63 51 0 5 18 21 40 35 22 14 40 32 40 40 0 8 18 26 41 40 42 27 47 48 11 53 -15 2 -36 -13 -74 -53z"/>
<path d="M21300 24016 c-7 -9 -9 -23 -6 -32 4 -9 1 -23 -5 -31 -15 -18 -9 -24 19 -16 17 4 22 13 22 37 0 44 -13 62 -30 42z"/>
<path d="M16786 23993 c9 -36 19 -47 38 -40 25 10 19 42 -9 55 -35 16 -36 16 -29 -15z"/>
<path d="M16870 23904 c0 -29 5 -36 35 -48 20 -9 39 -26 44 -39 9 -22 29 -37 52 -37 17 0 9 27 -14 51 -13 13 -36 40 -51 60 -14 20 -36 39 -46 42 -17 4 -20 0 -20 -29z"/>
<path d="M21200 23905 c-16 -19 -6 -45 19 -45 19 0 31 18 31 46 0 19 -34 18 -50 -1z"/>
<path d="M18420 23902 c0 -12 34 -42 48 -42 16 0 15 23 0 38 -14 14 -48 16 -48 4z"/>
<path d="M22698 23839 c-26 -19 -38 -49 -20 -49 5 0 20 13 35 28 43 45 33 57 -15 21z"/>
<path d="M18595 23760 c-4 -6 -4 -14 -1 -17 3 -3 1 -14 -4 -23 -13 -24 23 -70 55 -70 47 0 71 54 42 93 -15 22 -82 34 -92 17z"/>
<path d="M22630 23762 c-31 -11 -100 -70 -166 -143 -37 -41 -126 -132 -198 -202 -72 -70 -135 -133 -141 -139 -5 -6 -104 -103 -219 -217 -115 -113 -219 -217 -230 -230 -67 -78 -192 -195 -210 -196 -16 -1 -22 -9 -24 -33 -3 -24 -12 -36 -41 -52 -20 -12 -41 -31 -46 -43 -7 -15 -22 -24 -45 -27 -31 -4 -35 -9 -38 -37 -2 -23 -13 -38 -37 -55 -19 -12 -35 -27 -35 -32 0 -5 -19 -27 -42 -50 -24 -23 -61 -62 -83 -87 -22 -25 -77 -79 -123 -120 -46 -41 -92 -89 -103 -106 -12 -18 -26 -33 -34 -33 -12 0 -49 -46 -50 -62 0 -3 -24 -23 -54 -43 l-54 -37 -56 28 -56 29 1 242 c0 163 4 246 12 255 22 27 38 383 19 407 -9 10 -7 16 7 27 17 12 16 13 -9 10 -15 -2 -33 -12 -39 -22 -8 -13 -12 -168 -13 -509 -1 -276 -7 -505 -12 -525 -5 -19 -15 -56 -22 -82 -6 -26 -18 -53 -25 -59 -11 -9 -9 -15 11 -31 l25 -19 34 23 c19 13 51 49 72 79 20 29 49 68 65 84 16 17 29 36 29 43 0 6 16 22 35 34 19 13 35 31 35 41 0 10 10 21 23 26 12 5 31 19 42 31 11 12 31 31 44 43 40 38 132 131 155 158 12 14 85 82 163 152 78 70 172 161 209 204 100 116 206 224 446 459 57 55 115 114 129 130 14 16 37 39 50 51 13 12 32 30 42 40 81 82 115 113 125 113 6 0 18 13 27 30 8 16 27 37 41 47 14 9 30 27 35 40 5 13 24 32 42 43 18 11 43 33 55 50 13 16 27 30 33 30 5 0 39 30 74 68 35 37 75 78 88 92 28 30 61 79 56 84 -2 2 -11 1 -19 -2z"/>
<path d="M17044 23748 c-4 -6 5 -22 21 -36 29 -24 43 -18 32 13 -9 21 -44 37 -53 23z"/>
<path d="M20973 23752 c-34 -22 -36 -105 -2 -123 26 -13 76 22 95 67 24 56 20 64 -33 64 -27 0 -53 -4 -60 -8z"/>
<path d="M17116 23684 c-8 -22 15 -63 45 -77 13 -7 30 -25 37 -41 8 -15 27 -33 43 -40 15 -6 39 -27 51 -46 13 -19 32 -36 42 -38 16 -3 18 0 12 25 -4 15 -11 29 -16 31 -25 9 -60 46 -60 63 0 11 -16 30 -40 45 -22 15 -40 32 -40 40 0 13 -46 54 -60 54 -4 0 -11 -7 -14 -16z"/>
<path d="M17386 23411 c-10 -16 5 -41 34 -56 16 -8 30 -25 33 -42 4 -19 18 -34 44 -48 23 -12 39 -28 41 -42 2 -12 13 -25 25 -29 27 -8 67 -43 67 -60 0 -13 57 -40 66 -31 9 9 -15 45 -45 66 -15 11 -34 34 -40 50 -7 16 -21 31 -32 34 -10 3 -28 20 -39 39 -11 19 -36 42 -55 51 -19 9 -35 23 -35 31 0 8 -10 22 -22 30 -26 18 -35 20 -42 7z"/>
<path d="M18780 23315 c0 -8 7 -15 15 -15 17 0 48 -44 50 -71 1 -11 17 -34 37 -52 19 -18 40 -49 47 -69 14 -44 55 -75 76 -58 27 22 -3 175 -36 185 -12 4 -27 22 -35 41 -18 42 -40 54 -103 54 -39 0 -51 -4 -51 -15z"/>
<path d="M20756 23285 c-15 -19 -33 -35 -41 -35 -14 0 -20 -13 -30 -71 -5 -25 -2 -39 8 -47 12 -10 22 -4 58 32 24 24 61 64 82 90 21 25 45 46 53 46 8 0 12 5 9 10 -3 6 -30 10 -59 10 -49 0 -56 -3 -80 -35z"/>
<path d="M13972 23110 c-12 -5 -28 -7 -35 -4 -7 2 -36 -19 -65 -48 -28 -29 -59 -60 -69 -69 -10 -8 -39 -38 -64 -65 -25 -27 -63 -66 -85 -86 -21 -20 -75 -75 -119 -123 -44 -48 -90 -96 -102 -108 -13 -12 -29 -29 -38 -37 -36 -36 -276 -284 -460 -476 -110 -115 -217 -225 -237 -245 -21 -20 -38 -38 -38 -40 0 -3 -81 -87 -180 -187 l-180 -181 -6 -56 c-6 -61 5 -85 37 -85 11 0 26 -15 38 -38 11 -21 31 -43 46 -50 14 -7 31 -25 36 -41 6 -18 22 -34 40 -42 17 -6 38 -24 47 -38 14 -24 46 -59 95 -108 10 -10 37 -36 59 -58 22 -22 44 -39 48 -38 5 2 19 -14 31 -35 13 -20 28 -39 34 -41 5 -2 43 -38 83 -80 40 -42 97 -101 127 -132 30 -31 66 -64 80 -73 14 -9 30 -28 35 -42 5 -13 14 -24 20 -24 14 0 135 -121 143 -143 4 -9 18 -22 32 -27 14 -5 33 -23 43 -39 9 -17 27 -35 40 -40 12 -6 32 -27 43 -46 12 -19 25 -35 30 -35 8 0 310 -300 384 -382 43 -47 124 -93 138 -79 6 6 28 11 48 11 20 0 42 7 49 15 7 8 18 15 24 15 6 0 16 10 21 22 6 13 24 32 42 43 18 11 32 25 33 31 0 9 19 30 112 119 11 11 28 28 37 38 9 10 35 37 57 60 23 23 47 52 53 64 6 13 22 25 35 29 13 3 30 20 39 40 9 19 27 38 40 43 13 5 30 23 37 41 8 19 25 36 45 44 21 9 35 23 39 40 3 14 19 32 36 41 16 8 37 29 45 45 9 17 19 30 24 30 10 0 22 11 226 224 94 98 241 251 328 339 88 89 163 170 168 179 5 9 22 25 38 34 16 9 39 37 51 61 19 39 30 48 52 44 9 -1 21 78 16 115 -1 16 -8 28 -15 27 -12 -3 -63 59 -63 76 0 13 -99 113 -125 126 -11 6 -26 24 -33 41 -8 16 -27 36 -43 43 -16 7 -36 26 -44 41 -8 16 -24 31 -35 35 -11 4 -28 18 -38 33 -9 14 -148 157 -308 317 -160 159 -294 298 -297 308 -4 9 -12 17 -20 17 -16 0 -51 37 -60 63 -4 9 -12 17 -20 17 -16 0 -51 37 -60 63 -4 9 -11 17 -17 17 -6 0 -93 82 -194 183 -254 251 -260 257 -282 261 -10 3 -26 7 -34 10 -8 2 -25 1 -38 -4z"/>
<path d="M40960 23090 c0 -5 5 -10 10 -10 6 0 10 5 10 10 0 6 -4 10 -10 10 -5 0 -10 -4 -10 -10z"/>
<path d="M17713 23073 c-7 -17 29 -53 53 -53 20 0 17 27 -6 50 -24 24 -39 25 -47 3z"/>
<path d="M20615 23038 c-16 -72 -23 -116 -22 -138 2 -23 7 -26 37 -21 32 5 40 173 8 179 -11 2 -19 -5 -23 -20z"/>
<path d="M19020 23010 c0 -17 9 -47 20 -67 16 -30 20 -57 20 -125 0 -49 4 -88 9 -88 16 0 24 87 18 184 -5 79 -9 92 -29 108 -32 24 -38 23 -38 -12z"/>
<path d="M17795 23000 c-11 -18 4 -47 31 -58 32 -15 43 7 20 43 -17 26 -40 33 -51 15z"/>
<path d="M17870 22912 c0 -26 27 -60 52 -64 14 -2 25 -15 33 -38 7 -22 21 -38 40 -46 16 -6 35 -26 44 -45 10 -21 25 -35 39 -37 19 -3 38 -22 41 -44 5 -26 16 -38 35 -38 26 0 46 -18 46 -40 0 -21 28 -47 55 -52 11 -2 21 -13 23 -25 4 -25 29 -50 57 -54 11 -2 26 -19 34 -37 9 -19 22 -32 32 -32 10 0 26 -12 36 -26 10 -14 26 -33 36 -42 10 -10 58 -57 108 -105 49 -49 96 -87 105 -85 12 2 10 9 -8 35 -13 18 -29 33 -36 33 -7 0 -17 11 -22 24 -5 13 -14 27 -19 31 -6 3 -11 12 -11 20 0 18 -43 65 -59 65 -7 0 -44 33 -83 73 -38 39 -74 77 -80 82 -5 6 -35 37 -66 70 -84 88 -161 165 -166 165 -9 0 -114 107 -131 133 -9 15 -23 27 -30 27 -7 0 -25 16 -39 35 -29 38 -66 47 -66 17z"/>
<path d="M20600 22850 c0 -5 5 -10 10 -10 6 0 10 5 10 10 0 6 -4 10 -10 10 -5 0 -10 -4 -10 -10z"/>
<path d="M19124 22690 c-19 -7 -22 -18 -26 -96 -3 -49 -1 -125 4 -169 4 -44 12 -129 18 -190 5 -60 13 -124 18 -141 11 -35 -2 -108 -34 -204 -22 -64 -48 -75 -95 -41 -15 12 -35 21 -43 21 -8 0 -28 14 -44 30 -17 17 -32 30 -35 30 -2 0 -1 -17 2 -37 5 -27 14 -41 36 -53 17 -9 32 -25 34 -36 4 -26 21 -44 48 -55 16 -6 23 -17 23 -34 0 -19 9 -31 34 -46 20 -12 36 -30 40 -47 11 -51 22 -59 53 -42 l28 16 -3 64 c-1 36 -6 280 -10 542 -4 295 -11 481 -17 486 -6 6 -19 6 -31 2z"/>
<path d="M10570 22550 c-22 -22 -19 -40 6 -40 19 0 56 38 49 50 -10 16 -34 11 -55 -10z"/>
<path d="M10492 22474 c-23 -16 -27 -31 -13 -53 13 -20 63 15 59 42 -4 27 -18 31 -46 11z"/>
<path d="M10413 22385 c-12 -9 -20 -22 -17 -29 4 -10 -10 -21 -40 -35 -31 -13 -46 -26 -46 -38 0 -11 -16 -34 -35 -53 -19 -19 -35 -43 -35 -54 0 -19 35 10 125 104 11 11 37 37 58 57 53 52 46 87 -10 48z"/>
<path d="M10171 22141 c-23 -23 -28 -61 -8 -61 21 1 47 26 49 50 4 31 -16 36 -41 11z"/>
<path d="M18720 22080 c0 -22 31 -70 45 -70 8 0 23 -17 32 -37 12 -25 26 -39 41 -41 28 -4 29 18 2 43 -11 10 -20 27 -20 38 0 16 -2 17 -16 7 -13 -11 -16 -10 -20 6 -7 22 -64 71 -64 54z"/>
<path d="M10087 22052 c-23 -25 -22 -52 2 -52 23 0 44 24 39 46 -4 25 -22 27 -41 6z"/>
<path d="M10013 21970 c-21 -8 -40 -46 -29 -57 20 -21 86 32 71 57 -7 12 -13 12 -42 0z"/>
<path d="M9905 21854 c-9 -14 -15 -28 -12 -30 8 -9 77 30 77 43 0 24 -47 14 -65 -13z"/>
<path d="M9826 21783 c-14 -15 -26 -32 -26 -37 0 -12 -87 -87 -129 -111 -30 -18 -36 -26 -36 -55 0 -21 -5 -35 -12 -35 -12 0 -18 -12 -9 -17 8 -6 97 65 121 96 13 18 36 38 49 46 14 7 29 25 34 40 6 15 23 32 40 39 17 7 33 20 37 28 6 19 6 19 -22 27 -16 5 -28 0 -47 -21z"/>
<path d="M18421 21355 c-48 -56 -63 -89 -47 -110 l13 -18 47 18 48 18 42 -21 c22 -11 49 -23 59 -26 10 -3 16 -10 12 -16 -10 -15 24 -70 43 -70 50 0 57 60 10 81 -18 8 -38 24 -44 37 -6 12 -23 37 -38 55 -15 18 -36 44 -47 60 -28 37 -60 35 -98 -8z"/>
<path d="M9553 21194 c-8 -21 18 -45 58 -53 26 -5 35 -13 41 -38 5 -19 16 -33 30 -37 40 -10 48 -7 48 22 0 20 -8 31 -33 43 -17 9 -37 26 -44 39 -6 12 -17 27 -25 31 -22 14 -68 10 -75 -7z"/>
<path d="M18286 21192 c-15 -18 -15 -20 2 -35 24 -22 29 -21 42 4 9 15 8 24 -1 35 -15 18 -22 18 -43 -4z"/>
<path d="M18210 21115 c-6 -8 -10 -22 -8 -32 5 -28 35 -27 54 2 15 23 15 28 3 36 -20 13 -35 11 -49 -6z"/>
<path d="M18694 21119 c-9 -16 41 -63 59 -56 23 9 9 47 -20 58 -30 11 -30 11 -39 -2z"/>
<path d="M20880 21051 c-16 -4 -31 -21 -43 -44 -9 -20 -23 -37 -31 -37 -18 0 -49 -37 -41 -49 11 -19 35 -12 44 12 12 31 30 45 65 49 16 1 30 10 32 18 1 8 5 22 9 31 8 21 -3 28 -35 20z"/>
<path d="M9746 21041 c-7 -11 113 -141 131 -141 7 0 13 11 13 26 0 19 -8 28 -35 40 -23 9 -35 21 -35 33 0 37 -58 69 -74 42z"/>
<path d="M18773 21043 c-28 -5 -28 -7 -1 -43 13 -18 31 -30 44 -30 24 0 80 -58 117 -121 11 -20 33 -43 49 -52 15 -9 33 -27 39 -40 6 -13 23 -31 38 -40 23 -13 31 -30 46 -94 22 -92 29 -103 52 -80 19 19 25 149 8 166 -6 6 -26 12 -44 14 -28 2 -35 7 -38 27 -6 41 -11 48 -35 52 -16 2 -26 13 -34 37 -8 26 -20 38 -44 46 -21 7 -36 21 -45 42 -10 23 -21 32 -42 35 -24 2 -28 8 -31 36 -3 24 -10 35 -28 43 -14 5 -26 8 -27 8 -1 -1 -12 -4 -24 -6z"/>
<path d="M18124 21015 c-7 -30 -1 -40 21 -32 20 8 20 57 0 57 -8 0 -17 -11 -21 -25z"/>
<path d="M18045 20946 c-17 -26 -11 -56 11 -56 18 0 39 44 31 64 -9 23 -24 20 -42 -8z"/>
<path d="M9920 20867 c0 -9 11 -28 24 -44 13 -15 31 -43 40 -60 9 -18 30 -40 46 -48 17 -9 30 -24 30 -35 0 -26 27 -50 56 -50 18 0 28 -9 41 -37 12 -24 27 -39 43 -43 19 -4 26 -13 28 -35 2 -17 8 -36 14 -42 11 -14 98 -18 98 -5 0 12 -84 92 -98 92 -6 0 -18 13 -27 30 -20 38 -112 130 -130 130 -8 0 -24 18 -35 40 -12 23 -32 45 -45 50 -13 5 -29 21 -37 37 -14 30 -48 44 -48 20z"/>
<path d="M17967 20862 c-38 -42 -11 -77 29 -37 21 21 23 29 14 40 -16 19 -23 19 -43 -3z"/>
<path d="M20700 20865 c-19 -22 -7 -41 13 -21 18 19 22 36 8 36 -5 0 -14 -7 -21 -15z"/>
<path d="M17889 20787 c-8 -7 -19 -28 -25 -47 -5 -19 -16 -35 -24 -36 -36 -2 -41 -5 -49 -26 -21 -57 32 -68 55 -12 9 22 20 34 28 31 22 -9 59 32 52 57 -3 11 -6 27 -6 34 0 15 -10 15 -31 -1z"/>
<path d="M20595 20776 c-17 -13 -40 -26 -52 -30 -30 -10 -63 -82 -63 -139 0 -26 3 -47 6 -47 3 0 26 20 50 45 30 30 44 53 44 71 0 15 13 41 30 61 17 18 30 38 30 43 0 19 -17 18 -45 -4z"/>
<path d="M17728 20609 c-18 -10 -25 -39 -10 -39 5 0 17 6 28 14 24 18 8 40 -18 25z"/>
<path d="M17620 20495 c0 -30 11 -32 33 -7 23 25 21 32 -8 32 -20 0 -25 -5 -25 -25z"/>
<path d="M10355 20420 c3 -5 8 -10 11 -10 2 0 4 5 4 10 0 6 -5 10 -11 10 -5 0 -7 -4 -4 -10z"/>
<path d="M17550 20419 c0 -5 5 -7 10 -4 6 3 10 8 10 11 0 2 -4 4 -10 4 -5 0 -10 -5 -10 -11z"/>
<path d="M19125 20363 c-4 -16 -15 -46 -25 -68 -10 -22 -23 -52 -29 -67 -6 -16 -15 -28 -20 -28 -5 0 -18 -16 -30 -35 -11 -20 -29 -38 -38 -42 -10 -3 -38 -27 -63 -52 -25 -25 -71 -69 -102 -97 -32 -28 -58 -56 -58 -62 0 -6 -41 -51 -91 -99 -72 -69 -682 -680 -816 -817 -15 -16 -161 -160 -323 -322 -162 -161 -344 -345 -405 -409 -60 -64 -122 -122 -137 -131 -16 -8 -28 -21 -28 -28 0 -7 -18 -26 -40 -41 -22 -15 -40 -34 -40 -41 0 -8 -18 -26 -40 -40 -22 -15 -40 -32 -40 -40 0 -7 -16 -22 -35 -34 -19 -12 -35 -26 -35 -31 0 -6 -31 -43 -70 -84 -38 -41 -70 -78 -70 -84 0 -26 23 -18 57 21 21 24 58 61 83 83 25 22 83 79 131 127 47 49 90 88 95 88 6 0 41 36 79 80 38 44 74 80 80 80 6 0 25 19 42 43 44 59 111 127 127 127 8 0 34 28 60 63 25 34 69 78 96 97 27 19 50 38 50 43 0 8 52 60 236 237 66 63 123 123 127 133 4 11 15 21 25 23 9 3 25 18 34 33 9 16 29 35 44 42 16 8 39 30 52 49 13 19 28 37 33 38 9 4 90 85 171 171 20 22 41 49 48 60 6 12 17 21 24 21 15 0 56 42 56 57 0 6 18 23 40 38 22 15 40 33 40 41 0 7 16 22 35 34 20 12 42 34 49 49 8 15 26 33 41 41 15 8 33 27 41 43 8 15 26 33 40 39 14 7 34 29 45 49 10 21 27 40 37 43 11 4 24 18 30 31 7 14 26 32 44 41 18 8 46 33 61 55 16 21 34 39 40 39 7 0 23 16 36 35 13 19 35 41 50 48 14 7 33 27 41 45 9 18 31 40 50 50 26 12 35 24 35 42 0 20 6 25 29 27 16 1 36 9 44 17 22 22 22 89 0 125 -25 38 -36 39 -43 4z"/>
<path d="M20466 20365 c-21 -31 -20 -38 4 -60 10 -9 24 -32 30 -50 10 -30 28 -45 73 -59 10 -3 16 -9 13 -14 -7 -12 5 -26 47 -51 22 -13 37 -30 37 -42 0 -10 13 -25 30 -34 16 -8 56 -42 87 -75 85 -87 82 -85 153 -147 36 -32 67 -64 70 -73 10 -30 25 -45 55 -55 22 -8 31 -18 33 -38 3 -26 33 -53 45 -40 11 11 37 -19 37 -42 0 -29 24 -48 50 -40 27 9 25 32 -6 58 -14 12 -34 30 -43 40 -9 10 -33 34 -53 54 -21 20 -38 44 -38 54 0 13 -13 22 -41 30 -22 7 -45 22 -51 33 -5 12 -23 32 -38 46 -16 14 -37 40 -47 59 -12 22 -31 39 -53 46 -18 6 -36 20 -40 31 -5 10 -20 30 -35 44 -15 14 -31 35 -36 47 -4 12 -24 29 -44 39 -20 9 -41 27 -45 40 -5 12 -23 33 -39 45 -17 13 -31 27 -31 32 0 5 -20 32 -45 59 -25 28 -45 56 -45 63 0 25 -18 25 -34 0z"/>
<path d="M10432 20348 c-18 -18 -15 -38 6 -38 9 0 27 -3 40 -6 19 -5 22 -2 22 20 0 16 -6 26 -14 26 -8 0 -20 2 -28 5 -7 3 -19 0 -26 -7z"/>
<path d="M17462 20328 c2 -13 8 -23 13 -23 6 0 11 10 13 23 2 15 -2 22 -13 22 -11 0 -15 -7 -13 -22z"/>
<path d="M10506 20271 c-3 -4 3 -16 14 -26 l20 -18 0 26 c0 26 -22 38 -34 18z"/>
<path d="M17387 20273 c-4 -3 -7 -21 -7 -40 0 -30 2 -33 19 -24 25 14 34 40 20 57 -13 15 -22 17 -32 7z"/>
<path d="M17307 20183 c-11 -10 -8 -63 3 -63 14 0 43 48 35 60 -7 11 -28 13 -38 3z"/>
<path d="M10610 20174 c0 -15 82 -102 100 -107 30 -8 25 6 -26 62 -40 44 -74 65 -74 45z"/>
<path d="M17247 20112 c-21 -3 -32 -12 -42 -36 -14 -32 -43 -64 -53 -57 -3 1 -16 -15 -29 -38 l-23 -41 20 0 c27 0 134 92 149 129 17 39 12 47 -22 43z"/>
<path d="M10768 20005 c5 -31 74 -98 101 -100 l21 -2 -17 20 c-10 10 -17 21 -16 23 6 14 -13 43 -33 53 -13 6 -24 15 -24 21 0 5 -8 10 -19 10 -14 0 -17 -6 -13 -25z"/>
<path d="M17057 19923 c-10 -9 -9 -53 1 -53 14 0 32 23 32 42 0 18 -20 25 -33 11z"/>
<path d="M16983 19843 c-18 -6 -17 -63 1 -63 16 0 26 28 17 51 -3 9 -12 14 -18 12z"/>
<path d="M10950 19835 c0 -19 36 -65 48 -60 8 3 18 5 23 5 5 0 9 11 9 25 0 17 -6 25 -17 25 -10 0 -28 3 -40 6 -13 4 -23 3 -23 -1z"/>
<path d="M16886 19765 c-8 -8 -17 -24 -21 -34 -3 -11 -21 -29 -40 -40 -26 -15 -35 -27 -35 -46 0 -30 25 -44 49 -26 9 6 30 20 46 31 17 11 39 38 49 60 l19 40 -19 15 c-24 18 -29 18 -48 0z"/>
<path d="M11032 19749 c2 -7 10 -15 17 -17 8 -3 12 1 9 9 -2 7 -10 15 -17 17 -8 3 -12 -1 -9 -9z"/>
<path d="M11092 19678 c-20 -20 -14 -37 19 -53 17 -9 37 -31 44 -49 15 -36 37 -50 66 -41 14 5 22 -1 31 -22 6 -15 12 -31 12 -35 1 -4 22 -21 49 -38 26 -18 47 -38 47 -46 0 -8 8 -18 18 -21 23 -9 62 -45 62 -59 0 -16 57 -54 80 -54 19 0 21 4 15 33 -9 40 -17 48 -57 61 -23 8 -34 18 -36 34 -2 16 -15 28 -37 37 -25 11 -34 22 -39 50 -5 27 -13 36 -34 41 -38 9 -52 23 -52 50 0 20 -5 24 -29 24 -33 0 -44 12 -46 47 0 12 -5 27 -10 32 -17 15 -90 22 -103 9z"/>
<path d="M16727 19594 c-10 -11 -9 -54 2 -54 15 0 42 31 38 44 -4 13 -30 20 -40 10z"/>
<path d="M21272 19503 c2 -22 9 -29 31 -31 26 -3 28 -2 18 17 -7 11 -21 25 -32 32 -19 10 -20 8 -17 -18z"/>
<path d="M16662 19513 c-7 -3 -17 -16 -22 -29 -5 -13 -27 -32 -48 -43 -25 -13 -42 -30 -46 -45 -3 -13 -21 -34 -40 -45 -22 -14 -36 -31 -40 -53 -3 -17 -4 -33 -2 -35 11 -11 53 12 68 38 10 16 31 37 48 47 16 9 30 22 30 29 0 6 18 34 40 62 22 28 40 55 40 60 0 13 -12 19 -28 14z"/>
<path d="M20460 19450 c0 -10 -8 -23 -17 -28 -15 -9 -17 -70 -19 -743 -4 -1000 -14 -2109 -20 -2194 -3 -38 -6 -117 -8 -175 -7 -207 -17 -406 -24 -478 -7 -58 -7 -830 -2 -1632 1 -63 -2 -166 -6 -227 l-6 -113 21 0 c13 0 25 9 30 23 10 26 22 563 35 1587 3 253 7 328 21 380 10 39 14 80 11 105 -3 22 -7 109 -8 193 -1 84 -4 155 -7 157 -13 7 -12 136 0 151 15 19 16 109 1 127 -16 19 -18 163 -2 182 17 20 18 45 25 730 3 297 8 662 9 810 4 286 -8 626 -22 652 -5 8 -13 13 -18 11 -10 -3 -18 137 -9 160 4 12 9 12 17 4 9 -9 16 -2 29 27 14 32 23 40 54 45 27 5 42 3 54 -8 20 -18 31 -12 31 16 0 11 -11 23 -25 28 -14 5 -25 15 -25 22 0 22 -40 91 -71 123 -17 19 -29 42 -29 58 0 15 -4 27 -10 27 -5 0 -10 -9 -10 -20z"/>
<path d="M21346 19433 c9 -39 21 -51 52 -55 20 -2 28 -9 30 -28 5 -31 19 -50 49 -61 12 -4 29 -24 37 -44 12 -27 23 -37 47 -42 22 -4 34 -14 41 -35 6 -17 20 -31 34 -34 27 -7 44 -31 44 -63 0 -11 9 -25 20 -31 11 -6 20 -8 20 -5 0 15 40 -18 52 -43 9 -18 22 -28 41 -30 15 -2 27 1 27 7 0 11 -50 69 -105 123 -16 16 -60 59 -97 96 -38 37 -75 74 -84 82 -8 8 -50 49 -92 91 -42 42 -87 81 -100 88 l-23 12 7 -28z"/>
<path d="M19194 19405 c-9 -20 -29 -42 -44 -50 -15 -8 -33 -28 -40 -45 -7 -17 -25 -37 -40 -45 -26 -13 -42 -54 -33 -82 4 -11 40 -6 59 8 5 5 23 5 40 0 26 -7 31 -14 44 -72 14 -58 17 -64 40 -64 l25 0 3 193 2 192 -19 0 c-13 0 -26 -12 -37 -35z"/>
<path d="M11560 19232 c0 -4 5 -13 12 -20 18 -18 28 -15 28 8 0 13 -7 20 -20 20 -11 0 -20 -4 -20 -8z"/>
<path d="M18974 19172 c-17 -11 -27 -69 -14 -77 16 -10 49 24 52 55 3 25 -17 37 -38 22z"/>
<path d="M11647 19139 c22 -22 43 -19 43 7 0 9 -11 14 -32 14 l-32 0 21 -21z"/>
<path d="M20670 19155 c0 -15 113 -135 127 -135 10 0 13 6 9 16 -3 9 -6 20 -6 25 0 4 -15 12 -32 17 -26 6 -36 16 -44 43 -8 22 -19 35 -33 37 -11 2 -21 0 -21 -3z"/>
<path d="M16289 19114 c-13 -14 -33 -30 -45 -34 -25 -10 -50 -80 -28 -80 29 0 124 103 124 135 0 14 -29 2 -51 -21z"/>
<path d="M18876 19075 c-19 -20 -20 -26 -3 -48 10 -15 15 -16 29 -5 24 18 28 61 7 66 -9 1 -24 -4 -33 -13z"/>
<path d="M11805 18970 c20 -40 60 -40 60 0 0 22 -5 25 -38 28 l-38 3 16 -31z"/>
<path d="M18787 18986 c-8 -21 2 -46 18 -46 18 0 47 30 42 44 -6 18 -54 19 -60 2z"/>
<path d="M20820 18996 c0 -15 43 -47 57 -42 27 11 10 41 -25 44 -17 2 -32 1 -32 -2z"/>
<path d="M16144 18973 c-11 -37 -22 -48 -52 -57 -23 -7 -33 -18 -38 -39 -4 -20 -16 -33 -40 -43 -19 -8 -34 -20 -34 -27 0 -19 -43 -57 -63 -57 -9 0 -17 -6 -17 -14 0 -8 -27 -45 -60 -83 -67 -77 -78 -105 -29 -76 17 10 35 28 39 40 5 12 18 24 29 28 23 7 111 96 125 125 5 11 26 31 47 46 22 15 39 31 39 37 0 5 15 24 33 42 17 18 40 46 50 64 l18 31 -21 0 c-11 0 -23 -8 -26 -17z"/>
<path d="M19220 18980 c0 -5 5 -10 10 -10 6 0 10 5 10 10 0 6 -4 10 -10 10 -5 0 -10 -4 -10 -10z"/>
<path d="M21850 18917 c0 -29 18 -47 46 -47 34 0 38 17 10 45 -32 32 -56 33 -56 2z"/>
<path d="M11865 18919 c-4 -6 2 -17 12 -24 11 -8 35 -38 54 -68 19 -31 47 -62 64 -70 17 -8 43 -20 59 -28 16 -8 44 -34 63 -59 41 -54 93 -91 93 -66 0 33 -23 65 -49 68 -18 2 -32 14 -45 39 -11 20 -28 40 -40 45 -11 5 -25 25 -31 44 -9 27 -20 38 -46 46 -22 8 -35 19 -37 33 -6 39 -80 69 -97 40z"/>
<path d="M18710 18905 c-22 -27 12 -49 38 -23 8 8 9 15 1 25 -15 17 -24 16 -39 -2z"/>
<path d="M20930 18906 c0 -2 7 -6 15 -10 8 -3 15 -1 15 4 0 6 -7 10 -15 10 -8 0 -15 -2 -15 -4z"/>
<path d="M21938 18854 c-14 -14 7 -53 35 -65 19 -9 34 -24 37 -39 4 -16 20 -32 44 -45 21 -11 42 -30 47 -42 4 -12 22 -29 38 -38 17 -8 38 -29 46 -46 9 -16 27 -34 41 -39 33 -13 34 -13 34 6 0 19 -38 74 -50 74 -8 0 -48 38 -137 132 -66 70 -124 114 -135 102z"/>
<path d="M20997 18834 c-4 -4 2 -14 14 -22 15 -10 24 -11 32 -3 6 6 9 12 6 15 -10 9 -46 16 -52 10z"/>
<path d="M18620 18811 c0 -29 14 -33 38 -10 29 26 28 29 -8 29 -23 0 -30 -5 -30 -19z"/>
<path d="M19224 18778 c-10 -17 -6 -126 6 -146 7 -12 9 8 10 71 0 87 -2 98 -16 75z"/>
<path d="M18563 18752 c-18 -3 -23 -10 -23 -33 0 -35 9 -36 33 -3 22 30 19 40 -10 36z"/>
<path d="M18458 18648 c-8 -13 -18 -32 -24 -43 -6 -11 -20 -20 -30 -20 -10 0 -20 -8 -22 -18 -5 -23 5 -22 51 6 20 12 46 39 57 60 l20 37 -20 0 c-11 0 -25 -10 -32 -22z"/>
<path d="M19224 18374 c13 -393 23 -434 22 -85 -1 261 -3 315 -15 319 -12 4 -13 -30 -7 -234z"/>
<path d="M12230 18566 c0 -13 31 -46 43 -46 18 0 4 36 -18 47 -20 9 -25 8 -25 -1z"/>
<path d="M21270 18565 c-10 -12 -1 -25 50 -75 65 -62 88 -73 85 -42 -2 29 -16 44 -36 39 -19 -5 -49 30 -49 57 0 24 -35 39 -50 21z"/>
<path d="M15668 18479 c-48 -49 -89 -97 -93 -108 -9 -30 12 -34 31 -6 9 14 27 28 40 31 13 3 33 21 44 38 11 18 30 37 43 43 26 12 43 55 30 77 -6 9 -33 -12 -95 -75z"/>
<path d="M22276 18521 c-11 -17 15 -68 39 -79 15 -7 25 -20 25 -32 0 -26 37 -63 56 -56 10 4 20 -5 30 -30 8 -19 22 -37 32 -40 36 -11 47 -22 52 -50 4 -22 13 -32 40 -40 23 -8 37 -19 40 -35 3 -13 15 -29 27 -34 35 -18 53 -36 53 -55 0 -26 27 -44 72 -49 4 -1 14 -17 23 -37 12 -30 18 -34 37 -28 13 3 24 8 26 9 9 8 -55 109 -86 135 -21 17 -62 52 -92 77 -30 26 -65 64 -78 85 -13 21 -27 38 -31 38 -5 0 -40 36 -77 80 -38 44 -74 80 -81 80 -7 0 -30 16 -50 35 -39 37 -48 41 -57 26z"/>
<path d="M12313 18493 c-22 -8 -14 -31 16 -52 38 -27 41 -26 41 7 0 42 -23 59 -57 45z"/>
<path d="M18300 18470 c0 -11 5 -20 10 -20 6 0 10 9 10 20 0 11 -4 20 -10 20 -5 0 -10 -9 -10 -20z"/>
<path d="M12386 18403 c-8 -9 34 -53 51 -53 13 0 19 49 6 51 -5 0 -17 2 -29 4 -12 3 -24 2 -28 -2z"/>
<path d="M21427 18403 c-7 -7 31 -53 44 -53 13 0 19 33 8 46 -12 15 -41 19 -52 7z"/>
<path d="M18220 18390 c0 -5 5 -10 10 -10 6 0 10 5 10 10 0 6 -4 10 -10 10 -5 0 -10 -4 -10 -10z"/>
<path d="M12450 18322 c0 -4 30 -39 66 -77 36 -39 73 -80 81 -93 9 -13 37 -37 62 -54 25 -17 62 -48 81 -70 l35 -39 -1 43 -1 43 -34 5 c-31 5 -34 8 -37 42 -3 32 -8 39 -30 44 -48 10 -52 13 -52 37 0 29 -16 44 -50 49 -18 2 -26 10 -28 28 -2 14 -9 31 -14 38 -11 13 -78 17 -78 4z"/>
<path d="M18125 18314 c-16 -17 -16 -18 1 -31 34 -24 54 -6 31 27 -14 20 -15 20 -32 4z"/>
<path d="M21534 18278 c90 -104 108 -115 114 -65 3 23 -1 27 -20 27 -34 0 -62 24 -63 52 0 19 -6 24 -34 26 l-35 4 38 -44z"/>
<path d="M15500 18297 c0 -18 -39 -53 -67 -62 -14 -3 -23 -14 -23 -25 0 -11 -12 -28 -27 -37 -37 -24 -203 -191 -203 -205 0 -5 -24 -33 -52 -60 -135 -128 -175 -175 -160 -190 9 -9 19 -5 39 14 16 15 40 31 54 37 15 5 35 27 48 52 13 25 89 107 177 193 85 83 154 155 154 161 0 5 18 26 40 46 27 25 40 45 40 63 0 14 -4 26 -10 26 -5 0 -10 -6 -10 -13z"/>
<path d="M18048 18249 c-33 -19 -17 -59 22 -59 18 0 32 40 19 56 -13 16 -18 17 -41 3z"/>
<path d="M17962 18164 c-25 -17 -29 -46 -8 -63 18 -15 41 -5 55 26 9 19 9 29 0 39 -15 18 -20 18 -47 -2z"/>
<path d="M21660 18154 c0 -8 120 -124 129 -124 12 0 22 29 15 41 -3 5 -16 9 -30 9 -25 0 -28 4 -38 53 -6 23 -11 27 -41 27 -19 0 -35 -2 -35 -6z"/>
<path d="M17885 18080 c-19 -21 -14 -50 9 -50 17 0 21 5 30 43 8 33 -12 37 -39 7z"/>
<path d="M12790 17992 c0 -5 15 -26 34 -46 37 -38 81 -60 99 -49 6 4 -4 12 -24 18 -28 10 -35 18 -39 46 -4 30 -9 34 -37 37 -18 2 -33 -1 -33 -6z"/>
<path d="M17795 17980 c-11 -17 5 -32 21 -19 8 6 14 15 14 20 0 12 -27 11 -35 -1z"/>
<path d="M19242 17935 c0 -16 2 -22 5 -12 2 9 2 23 0 30 -3 6 -5 -1 -5 -18z"/>
<path d="M22844 17924 c6 -33 24 -54 45 -54 22 0 41 -19 41 -42 0 -10 15 -27 32 -38 18 -11 42 -36 54 -57 12 -22 31 -40 45 -43 13 -3 34 -21 47 -40 13 -19 34 -41 48 -48 13 -7 24 -21 24 -30 0 -27 22 -51 49 -55 24 -4 34 -15 44 -48 3 -9 21 -23 40 -33 26 -12 37 -24 39 -44 2 -21 11 -30 38 -38 21 -7 36 -19 39 -30 5 -27 30 -52 55 -56 14 -2 22 -11 24 -28 5 -34 30 -60 55 -57 16 1 26 -8 39 -35 12 -25 25 -38 37 -38 22 0 34 -14 38 -44 4 -25 33 -57 48 -54 7 2 24 -12 39 -29 15 -18 34 -33 42 -33 9 0 24 -20 35 -45 12 -26 30 -49 47 -57 14 -7 36 -28 47 -45 11 -18 25 -32 31 -33 13 0 49 -39 57 -63 4 -10 26 -27 51 -37 45 -21 70 -42 60 -53 -4 -3 9 -15 27 -26 19 -12 34 -29 34 -38 0 -11 16 -27 40 -39 47 -24 125 -97 125 -117 0 -18 32 -47 52 -47 9 0 21 -7 28 -15 18 -22 32 -18 25 6 -6 18 -54 69 -137 145 -13 12 -31 33 -41 48 -11 15 -30 31 -43 36 -13 5 -24 16 -24 23 0 8 -16 25 -35 38 -20 13 -45 39 -56 58 -11 18 -28 35 -39 38 -11 3 -28 20 -39 39 -13 21 -28 34 -41 34 -14 0 -27 13 -42 45 -13 27 -29 45 -39 45 -9 0 -27 16 -38 36 -12 20 -31 38 -42 41 -11 3 -29 23 -39 44 -11 20 -28 40 -39 44 -11 3 -29 21 -40 40 -12 21 -28 35 -39 35 -11 0 -30 17 -46 40 -14 22 -31 40 -36 40 -5 0 -23 20 -40 45 -17 25 -37 45 -44 45 -8 0 -21 10 -29 23 -20 29 -123 137 -131 137 -10 0 -306 300 -306 310 0 6 -5 10 -10 10 -11 0 -51 34 -134 118 -59 58 -79 65 -72 26z"/>
<path d="M17730 17905 c-10 -12 -10 -15 4 -15 9 0 16 7 16 15 0 8 -2 15 -4 15 -2 0 -9 -7 -16 -15z"/>
<path d="M19241 17785 c-1 -49 -5 -101 -7 -115 -2 -14 -6 -106 -9 -205 -2 -99 -9 -247 -15 -330 -18 -237 -19 -248 -19 -885 0 -859 7 -1428 18 -1475 6 -22 11 -56 12 -75 1 -27 3 -23 9 20 14 100 21 466 24 1280 2 762 -6 1979 -13 1785z"/>
<path d="M12960 17836 c0 -2 10 -23 22 -45 14 -26 29 -41 41 -41 14 0 17 5 11 23 -3 12 -7 22 -8 22 0 0 -16 10 -33 23 -18 12 -33 21 -33 18z"/>
<path d="M17621 17798 c-5 -14 -5 -24 1 -27 11 -4 38 31 32 41 -9 15 -25 8 -33 -14z"/>
<path d="M13070 17715 c0 -10 69 -110 93 -135 13 -14 34 -40 46 -57 12 -18 28 -33 34 -33 7 0 25 -16 40 -35 15 -19 35 -35 43 -35 8 0 34 -20 56 -45 23 -25 44 -45 47 -45 13 0 30 40 25 55 -3 8 -20 19 -38 23 -24 6 -32 15 -36 38 -4 21 -15 34 -42 47 -24 12 -38 26 -38 38 0 11 -17 30 -40 45 -22 14 -42 34 -45 44 -3 10 -24 25 -46 34 -24 10 -43 26 -49 41 -6 15 -17 25 -30 25 -11 0 -20 -2 -20 -5z"/>
<path d="M22120 17712 c0 -5 9 -17 20 -27 l21 -19 -9 24 c-9 24 -32 40 -32 22z"/>
<path d="M14891 17645 c-20 -34 -18 -42 6 -27 12 7 29 62 20 62 -3 0 -14 -16 -26 -35z"/>
<path d="M22195 17640 c-8 -13 24 -60 41 -60 21 0 17 48 -5 60 -24 12 -28 13 -36 0z"/>
<path d="M16516 17632 c-4 -7 -11 -10 -16 -7 -13 8 -110 -89 -110 -110 0 -12 5 -15 18 -10 9 4 25 10 35 12 9 3 17 8 17 12 0 4 16 26 36 49 20 23 34 47 32 54 -3 9 -6 9 -12 0z"/>
<path d="M17447 17634 c-14 -14 -7 -35 11 -32 9 2 17 10 17 17 0 16 -18 25 -28 15z"/>
<path d="M14807 17570 l-18 -29 20 -10 c20 -11 31 2 31 39 0 31 -15 31 -33 0z"/>
<path d="M17371 17557 c-12 -15 -5 -27 16 -27 7 0 13 9 13 20 0 23 -13 26 -29 7z"/>
<path d="M22280 17554 c0 -13 21 -44 30 -44 6 0 10 11 10 25 0 18 -5 25 -20 25 -11 0 -20 -3 -20 -6z"/>
<path d="M14710 17485 l-23 -25 18 -20 c23 -26 40 -25 59 1 11 17 12 27 4 45 -14 31 -29 30 -58 -1z"/>
<path d="M16343 17474 c-17 -7 -41 -27 -53 -44 -12 -16 -27 -30 -34 -30 -15 0 -56 -42 -56 -57 0 -6 -16 -20 -35 -32 -20 -11 -38 -29 -42 -38 -3 -10 -24 -34 -45 -54 -21 -20 -38 -44 -38 -53 0 -14 5 -13 33 8 19 15 37 26 40 26 13 0 106 100 109 117 2 10 8 18 13 19 17 1 65 27 65 34 0 4 18 26 41 49 49 51 50 74 2 55z"/>
<path d="M17278 17479 c-10 -5 -18 -15 -18 -22 0 -7 -16 -25 -35 -40 -19 -15 -35 -34 -35 -41 0 -15 53 -33 57 -19 11 32 46 73 62 73 19 0 31 25 24 48 -5 14 -31 15 -55 1z"/>
<path d="M22345 17480 c-9 -14 52 -94 87 -114 38 -23 60 -21 56 7 -2 15 -14 25 -38 33 -29 9 -36 17 -38 42 -2 21 -10 32 -25 36 -30 8 -35 8 -42 -4z"/>
<path d="M14645 17408 c-16 -24 -7 -35 20 -24 16 6 21 46 6 46 -6 0 -17 -10 -26 -22z"/>
<path d="M14564 17326 c-15 -12 -17 -19 -8 -32 17 -28 33 -28 40 1 9 35 -6 49 -32 31z"/>
<path d="M13460 17312 c0 -30 30 -63 53 -60 17 2 21 9 19 28 -4 43 -10 50 -42 50 -22 0 -30 -5 -30 -18z"/>
<path d="M17104 17308 c-36 -29 -79 -78 -79 -92 0 -22 38 -17 65 9 16 15 39 33 52 39 15 7 23 20 23 36 0 33 -24 36 -61 8z"/>
<path d="M22510 17308 c1 -22 24 -53 66 -91 50 -45 64 -46 64 -7 0 24 -5 30 -22 32 -13 0 -30 1 -38 2 -11 1 -14 11 -12 39 l4 37 -31 0 c-18 0 -31 -5 -31 -12z"/>
<path d="M14482 17238 c-18 -18 -15 -27 7 -21 22 6 37 33 18 33 -7 0 -18 -5 -25 -12z"/>
<path d="M13560 17215 c13 -14 27 -25 32 -25 4 0 8 11 8 25 0 21 -5 25 -32 25 l-31 0 23 -25z"/>
<path d="M14410 17155 c-7 -9 -10 -18 -7 -21 10 -11 37 5 37 21 0 19 -14 19 -30 0z"/>
<path d="M16960 17145 c-13 -14 -29 -25 -35 -25 -19 0 -42 -32 -50 -68 l-7 -34 23 12 c34 19 109 102 109 122 0 25 -12 23 -40 -7z"/>
<path d="M13623 17138 c4 -13 7 -26 7 -30 0 -4 18 -17 40 -28 25 -13 40 -27 40 -39 0 -10 15 -34 33 -54 17 -20 40 -48 50 -62 15 -21 25 -26 55 -23 31 2 36 7 34 23 -4 26 -60 78 -77 71 -9 -3 -24 12 -40 40 -14 24 -32 44 -40 44 -8 0 -23 17 -32 38 -14 28 -25 38 -47 40 -26 3 -28 1 -23 -20z"/>
<path d="M22670 17149 c0 -29 34 -78 61 -88 16 -5 29 -16 29 -24 0 -8 11 -17 25 -19 14 -3 25 -4 25 -3 0 16 -35 64 -50 68 -11 3 -25 18 -32 34 -7 15 -17 31 -23 35 -15 11 -35 9 -35 -3z"/>
<path d="M15943 17082 c-33 -31 -66 -67 -72 -79 -7 -13 -20 -23 -31 -23 -18 0 -60 -48 -60 -69 0 -6 -13 -20 -30 -33 -29 -21 -41 -58 -19 -58 5 0 39 30 75 68 35 37 91 94 124 127 33 33 60 65 60 71 0 6 7 17 15 24 16 13 20 30 8 30 -5 -1 -36 -27 -70 -58z"/>
<path d="M14272 17011 c-39 -38 -72 -73 -72 -78 0 -6 9 -13 20 -16 21 -6 60 37 60 67 0 8 6 19 13 23 19 13 61 62 56 67 -2 3 -37 -26 -77 -63z"/>
<path d="M16805 16980 c-10 -11 -29 -20 -42 -20 -12 0 -23 -4 -23 -8 0 -5 -20 -30 -45 -56 -25 -27 -45 -52 -45 -57 0 -5 -19 -17 -41 -26 -30 -12 -45 -25 -56 -51 -8 -19 -23 -37 -34 -39 -11 -3 -27 -19 -35 -35 -8 -16 -31 -36 -50 -45 -19 -10 -37 -26 -40 -38 -3 -11 -30 -42 -61 -70 -85 -77 -153 -148 -153 -160 0 -5 -29 -34 -65 -64 -59 -48 -85 -84 -72 -98 17 -16 117 62 117 92 0 8 17 25 38 38 20 14 56 44 79 68 110 115 147 151 247 244 59 55 115 108 124 118 10 10 38 42 64 70 26 29 65 72 87 97 23 24 41 48 41 52 0 14 -16 9 -35 -12z"/>
<path d="M22857 16953 c-3 -5 -1 -18 4 -31 7 -17 15 -22 39 -20 36 3 37 8 7 36 -24 23 -42 28 -50 15z"/>
<path d="M22930 16874 c0 -20 24 -44 46 -44 l24 0 -16 25 c-14 22 -54 36 -54 19z"/>
<path d="M23013 16803 c-17 -6 -16 -38 1 -52 14 -12 76 -4 76 10 0 14 -39 49 -52 48 -7 0 -19 -3 -25 -6z"/>
<path d="M15635 16790 c-4 -6 -5 -23 -3 -38 3 -25 0 -27 -27 -24 -41 4 -70 -18 -61 -46 10 -29 51 -29 74 0 9 12 32 36 50 53 41 40 42 65 3 65 -17 0 -33 -5 -36 -10z"/>
<path d="M23090 16711 c0 -15 29 -41 46 -41 10 0 14 8 12 23 -2 16 -11 23 -30 25 -16 2 -28 -1 -28 -7z"/>
<path d="M15490 16620 c-11 -11 -20 -24 -20 -29 0 -4 -18 -20 -40 -35 -45 -30 -51 -46 -17 -46 26 0 127 93 127 116 0 20 -27 17 -50 -6z"/>
<path d="M23220 16605 c13 -14 27 -25 32 -25 4 0 2 11 -4 25 -6 15 -20 25 -31 25 l-20 0 23 -25z"/>
<path d="M23280 16551 c0 -11 26 -22 34 -14 3 3 3 10 0 14 -7 12 -34 11 -34 0z"/>
<path d="M23360 16472 c0 -4 11 -19 25 -32 14 -13 24 -28 23 -34 -2 -6 19 -33 46 -61 31 -31 47 -42 43 -30 -3 11 -8 34 -12 51 -4 22 -15 35 -38 45 -19 9 -34 24 -37 39 -4 16 -14 26 -28 28 -12 2 -22 -1 -22 -6z"/>
<path d="M15304 16432 c-12 -9 -24 -25 -27 -34 -4 -10 -12 -18 -20 -18 -13 0 -57 -51 -57 -66 0 -4 9 1 20 11 11 10 20 15 20 11 0 -4 14 6 30 22 17 17 30 34 30 38 0 4 10 18 22 31 25 27 13 31 -18 5z"/>
<path d="M23515 16311 c-3 -5 -1 -12 5 -16 5 -3 10 -14 10 -23 0 -9 12 -28 26 -43 15 -15 32 -38 38 -50 6 -13 22 -26 36 -29 17 -4 28 -16 36 -40 11 -34 21 -43 57 -54 9 -3 21 -16 27 -30 11 -30 24 -38 70 -46 21 -3 35 -11 36 -20 1 -26 15 -49 35 -55 10 -4 26 -22 35 -41 19 -41 54 -48 54 -10 0 13 -6 29 -14 36 -8 6 -16 21 -18 33 -2 14 -13 24 -35 29 -36 9 -97 77 -114 127 -7 19 -18 31 -28 31 -28 0 -111 71 -129 109 -10 20 -27 41 -40 47 -13 6 -32 21 -43 33 -21 23 -35 26 -44 12z"/>
<path d="M24480 16303 c0 -6 7 -17 16 -24 9 -8 25 -33 35 -57 10 -24 23 -41 27 -38 5 3 19 -6 30 -19 27 -30 52 -32 52 -4 0 31 -20 61 -36 55 -9 -4 -24 9 -42 34 -15 22 -34 39 -42 40 -9 0 -21 5 -28 12 -8 8 -12 8 -12 1z"/>
<path d="M15143 16283 c-16 -10 -23 -25 -23 -47 l1 -31 35 38 c19 21 32 42 29 47 -8 13 -16 12 -42 -7z"/>
<path d="M15064 16189 l-29 -32 25 6 c14 4 28 7 31 7 11 0 18 26 10 38 -5 8 -17 2 -37 -19z"/>
<path d="M15985 16167 c-4 -11 -27 -27 -51 -37 -27 -12 -49 -30 -59 -50 -9 -17 -27 -35 -40 -40 -13 -5 -29 -21 -37 -36 -8 -18 -25 -31 -45 -36 -25 -7 -34 -16 -41 -40 -5 -20 -19 -38 -37 -48 -16 -9 -32 -27 -35 -40 -4 -16 -17 -27 -40 -35 -25 -8 -40 -22 -53 -48 -9 -20 -23 -37 -31 -37 -17 0 -46 -32 -46 -53 0 -8 -13 -25 -30 -37 -16 -12 -30 -30 -30 -41 0 -32 32 -19 59 24 13 20 30 37 36 37 6 0 22 11 35 25 13 14 29 25 36 25 18 0 59 44 101 108 19 29 44 57 56 61 27 11 100 80 116 109 6 12 27 30 47 40 19 10 41 27 47 39 43 73 58 106 54 116 -3 7 -8 5 -12 -6z"/>
<path d="M14977 16110 c-17 -14 -23 -26 -20 -40 l5 -20 29 21 c29 20 37 43 20 53 -5 3 -20 -3 -34 -14z"/>
<path d="M24667 16110 c-6 -24 10 -46 46 -59 15 -6 27 -18 27 -28 0 -29 16 -45 44 -45 15 0 30 2 33 5 12 13 -20 67 -43 73 -13 3 -35 21 -49 40 -29 38 -50 43 -58 14z"/>
<path d="M14901 16018 c-5 -13 -7 -25 -5 -27 6 -6 54 29 54 39 0 20 -41 10 -49 -12z"/>
<path d="M24829 15948 c-10 -18 -8 -24 11 -40 25 -20 46 -23 55 -8 8 13 -11 47 -35 60 -16 8 -21 6 -31 -12z"/>
<path d="M14801 15938 c-12 -32 3 -45 34 -28 34 18 34 50 0 50 -17 0 -28 -7 -34 -22z"/>
<path d="M14720 15865 c-15 -18 -6 -45 15 -45 20 0 57 38 50 50 -9 15 -51 12 -65 -5z"/>
<path d="M24904 15865 c-8 -19 13 -45 36 -45 26 0 30 10 13 36 -17 27 -41 31 -49 9z"/>
<path d="M14640 15785 c-13 -16 -10 -50 5 -50 22 0 57 34 52 49 -8 20 -41 21 -57 1z"/>
<path d="M24996 15784 c-8 -21 -8 -20 10 -38 19 -19 54 -21 54 -3 0 13 -40 57 -52 57 -3 0 -9 -7 -12 -16z"/>
<path d="M24075 15760 c-8 -13 32 -60 51 -60 10 0 10 7 -1 33 -14 33 -38 46 -50 27z"/>
<path d="M14573 15708 c-17 -22 -23 -47 -12 -54 16 -9 59 24 59 46 0 23 -32 28 -47 8z"/>
<path d="M25070 15705 c-17 -20 3 -45 36 -45 29 0 31 20 6 43 -23 21 -26 21 -42 2z"/>
<path d="M24183 15642 c20 -21 37 -41 37 -46 0 -4 9 -20 19 -35 13 -18 18 -36 14 -52 l-5 -24 14 19 15 19 77 -74 c42 -41 89 -85 106 -99 16 -13 30 -31 30 -41 0 -20 147 -162 155 -149 3 6 10 10 15 10 14 0 65 -83 62 -101 -4 -22 28 -47 105 -84 17 -8 34 -19 38 -25 14 -23 27 -9 21 22 -7 37 -16 48 -42 52 -20 3 -30 18 -38 58 -5 21 -13 27 -38 30 -26 2 -33 9 -43 38 -9 27 -18 36 -39 38 -28 3 -30 6 -40 54 -5 22 -14 29 -42 34 -28 5 -39 14 -50 40 -10 24 -21 34 -41 36 -20 2 -29 11 -38 37 -8 25 -19 37 -39 42 -32 9 -66 36 -66 54 0 6 -12 17 -26 23 -14 7 -23 16 -20 21 3 5 -1 14 -9 21 -8 7 -15 18 -15 25 0 7 -22 27 -50 44 -27 17 -50 35 -50 41 0 5 -12 10 -27 10 l-27 0 37 -38z"/>
<path d="M14493 15622 c-17 -11 -28 -62 -13 -62 14 0 49 40 50 58 0 13 -19 16 -37 4z"/>
<path d="M25165 15621 c-8 -14 1 -28 25 -41 29 -15 32 4 6 29 -15 15 -26 19 -31 12z"/>
<path d="M25240 15536 c0 -20 35 -56 55 -56 14 0 2 39 -18 58 -30 28 -37 28 -37 -2z"/>
<path d="M14416 15527 c-10 -7 -17 -21 -15 -31 3 -15 9 -13 33 13 31 32 18 44 -18 18z"/>
<path d="M15243 15450 c-17 -7 -23 -18 -23 -40 0 -34 0 -34 33 -19 27 12 50 45 42 59 -7 12 -22 12 -52 0z"/>
<path d="M14307 15432 c-22 -25 -21 -42 2 -42 19 0 55 43 44 54 -11 11 -30 6 -46 -12z"/>
<path d="M25347 15434 c-11 -11 5 -34 25 -34 14 0 18 5 14 16 -3 9 -6 18 -6 20 0 6 -26 5 -33 -2z"/>
<path d="M14226 15357 c-14 -14 -26 -31 -26 -37 0 -17 36 -11 61 9 22 18 23 21 7 37 -15 16 -18 15 -42 -9z"/>
<path d="M15147 15353 c-10 -9 -9 -43 1 -43 12 0 32 23 32 37 0 14 -22 18 -33 6z"/>
<path d="M25423 15344 c-8 -21 13 -42 28 -27 13 13 5 43 -11 43 -6 0 -13 -7 -17 -16z"/>
<path d="M14127 15262 c-24 -25 -26 -30 -12 -36 25 -9 70 16 70 39 0 30 -28 29 -58 -3z"/>
<path d="M15063 15283 c-19 -7 -16 -62 4 -70 23 -9 81 56 62 68 -15 9 -46 10 -66 2z"/>
<path d="M25500 15260 c0 -23 22 -35 45 -26 13 4 14 10 5 26 -14 27 -50 27 -50 0z"/>
<path d="M14052 15191 c-21 -18 -22 -51 -1 -51 17 0 62 47 55 58 -10 17 -27 14 -54 -7z"/>
<path d="M14983 15188 c-4 -7 -12 -22 -18 -32 -5 -10 -17 -22 -25 -26 -46 -21 -55 -30 -60 -56 -4 -23 -11 -30 -33 -32 -46 -6 -75 -72 -31 -72 17 0 84 60 155 140 43 47 51 66 35 79 -11 9 -16 9 -23 -1z"/>
<path d="M25591 15186 c-14 -17 -7 -36 14 -36 22 0 29 20 13 36 -13 13 -16 13 -27 0z"/>
<path d="M13977 15110 c-17 -14 -23 -26 -20 -40 l5 -20 29 17 c30 18 43 39 33 54 -8 14 -19 11 -47 -11z"/>
<path d="M25672 15107 c-13 -15 -5 -30 24 -45 34 -18 48 0 24 31 -24 30 -33 33 -48 14z"/>
<path d="M13896 15025 c-14 -11 -17 -18 -9 -26 14 -14 53 5 53 26 0 19 -19 19 -44 0z"/>
<path d="M25746 15024 c-9 -22 11 -44 40 -44 29 0 31 20 6 43 -23 21 -38 21 -46 1z"/>
<path d="M14726 14938 c-24 -34 -20 -58 8 -58 31 0 63 45 45 66 -17 20 -35 17 -53 -8z"/>
<path d="M25833 14934 c-7 -19 37 -68 50 -55 10 10 -18 71 -34 71 -5 0 -12 -7 -16 -16z"/>
<path d="M24911 14926 c-9 -11 -4 -21 29 -48 22 -19 40 -40 40 -45 0 -6 7 -16 15 -23 12 -10 13 -16 4 -26 -9 -11 -7 -20 5 -39 9 -14 22 -26 29 -26 23 -2 32 -4 57 -13 27 -10 90 -57 90 -68 0 -12 63 -98 72 -98 4 0 33 -24 64 -52 31 -29 69 -65 85 -80 31 -29 54 -34 79 -18 23 14 -15 48 -59 52 -34 3 -36 5 -34 34 3 35 -10 50 -47 56 -18 2 -26 10 -28 28 -5 34 -20 50 -46 50 -27 0 -46 18 -46 42 0 11 -15 25 -37 35 -29 14 -39 25 -41 46 -2 18 -13 32 -33 42 -16 9 -32 15 -36 14 -4 -1 -15 11 -24 27 -8 16 -26 30 -38 32 -16 3 -28 17 -41 48 -20 45 -39 55 -59 30z"/>
<path d="M13807 14903 c-10 -9 -9 -23 2 -23 5 0 11 7 15 15 5 15 -5 20 -17 8z"/>
<path d="M13767 14863 c-4 -3 -7 -14 -7 -23 0 -10 -10 -29 -21 -44 -13 -16 -18 -31 -13 -36 11 -11 49 43 58 83 6 25 -2 35 -17 20z"/>
<path d="M14654 14862 c-6 -4 -15 -25 -20 -47 -9 -37 -12 -40 -41 -37 -25 3 -33 -1 -38 -18 -5 -15 -1 -26 12 -35 16 -13 20 -11 41 13 12 15 28 26 35 24 17 -3 52 71 44 92 -7 17 -16 20 -33 8z"/>
<path d="M25903 14833 c3 -10 8 -35 12 -56 5 -29 10 -37 23 -35 33 7 5 108 -30 108 -5 0 -7 -8 -5 -17z"/>
<path d="M14472 14678 c-21 -21 -15 -40 11 -33 30 10 41 21 33 34 -9 14 -29 14 -44 -1z"/>
<path d="M14385 14603 c-11 -10 -14 -24 -10 -40 6 -24 3 -26 -47 -37 -21 -5 -28 -12 -28 -30 0 -13 7 -29 15 -36 12 -10 20 -7 42 17 16 16 45 39 66 52 20 12 37 29 37 37 0 8 7 17 15 20 31 12 14 30 -30 32 -29 1 -49 -4 -60 -15z"/>
<path d="M19293 14583 c1 -43 -7 -188 -25 -470 -10 -163 -9 -194 3 -209 8 -9 14 -35 14 -58 0 -29 4 -42 16 -44 25 -5 31 89 19 310 -5 106 -9 225 -8 263 4 117 -2 245 -10 245 -5 0 -9 -17 -9 -37z"/>
<path d="M25937 14523 c-12 -11 -8 -23 8 -23 8 0 15 7 15 15 0 16 -12 20 -23 8z"/>
<path d="M14220 14443 c-24 -9 -50 -35 -44 -44 3 -5 21 -9 40 -9 27 0 37 5 43 23 11 29 -5 42 -39 30z"/>
<path d="M13804 14425 c-8 -20 13 -45 37 -45 21 0 24 12 9 41 -13 23 -38 25 -46 4z"/>
<path d="M25843 14427 c-27 -12 -29 -25 -7 -34 19 -7 37 9 32 30 -2 11 -8 12 -25 4z"/>
<path d="M20276 13780 c-26 -40 -27 -66 -1 -56 7 2 18 -1 24 -7 18 -18 32 10 29 57 -4 53 -20 55 -52 6z"/>
<path d="M19360 13751 c0 -5 7 -14 16 -22 13 -10 17 -10 24 1 5 8 6 18 4 22 -7 11 -44 10 -44 -1z"/>
<path d="M20212 13698 c-18 -18 -15 -40 6 -36 9 2 18 13 20 26 4 24 -7 29 -26 10z"/>
<path d="M19440 13671 c0 -14 28 -33 40 -26 20 12 10 35 -15 35 -14 0 -25 -4 -25 -9z"/>
<path d="M19596 13575 c-10 -26 -8 -30 24 -48 19 -11 38 -15 55 -11 l26 6 -22 24 c-12 13 -30 24 -39 24 -9 0 -21 5 -27 11 -7 7 -12 6 -17 -6z"/>
<path d="M20030 13565 c-10 -12 -9 -16 4 -21 16 -6 46 11 46 27 0 15 -37 10 -50 -6z"/>
<path d="M19740 13516 c0 -2 9 -6 20 -9 11 -3 20 -1 20 4 0 5 -9 9 -20 9 -11 0 -20 -2 -20 -4z"/>
</g>
</g>
</svg>
