<?xml version="1.0" standalone="no"?>
<!DOCTYPE svg PUBLIC "-//W3C//DTD SVG 1.1//EN"
 "http://www.w3.org/Graphics/SVG/1.1/DTD/svg11.dtd">
<!-- Created with svg_stack (http://github.com/astraw/svg_stack) -->
<svg xmlns:sodipodi="http://sodipodi.sourceforge.net/DTD/sodipodi-0.dtd" xmlns="http://www.w3.org/2000/svg" version="1.1" width="1950.0" height="626.0">
  <defs/>
  <g id="id0:id0" transform="matrix(1.25,0,0,1.25,0.0,0.0)"><g transform="translate(0.000000,500.800000) scale(0.040000,-0.040000)" fill="#ffffff" stroke="none">
<path d="M16180 12512 c0 -20 86 -32 226 -32 150 0 347 -12 504 -30 47 -5 155 -12 240 -15 85 -3 272 -11 415 -18 574 -27 1928 -7 2595 39 124 9 324 18 445 20 247 5 278 8 295 29 11 13 -270 15 -2354 15 -1301 0 -2366 -4 -2366 -8z"/>
<path d="M16085 12230 c-30 -49 -47 -594 -25 -830 5 -58 11 -134 14 -169 2 -39 9 -67 17 -72 8 -5 91 -9 184 -9 94 -1 204 -5 245 -10 188 -22 258 -32 300 -45 25 -7 62 -16 83 -20 65 -11 140 -56 213 -129 96 -97 119 -157 119 -311 l0 -110 -51 -6 c-29 -4 -56 -9 -61 -12 -5 -3 -107 -10 -228 -16 -121 -6 -247 -16 -280 -21 -33 -6 -118 -17 -190 -25 -127 -14 -270 -36 -370 -56 -27 -6 -81 -16 -120 -23 -126 -24 -454 -107 -540 -137 -16 -6 -52 -17 -80 -24 -27 -7 -67 -20 -87 -29 -21 -9 -48 -16 -61 -16 -14 0 -30 -6 -36 -14 -6 -7 -26 -16 -43 -20 -51 -10 -309 -112 -348 -137 -8 -5 -24 -12 -35 -16 -29 -9 -356 -173 -385 -193 -14 -10 -47 -30 -74 -46 -85 -50 -100 -59 -145 -89 -24 -17 -51 -34 -60 -40 -58 -35 -201 -145 -386 -296 -60 -49 -178 -163 -295 -285 -176 -184 -370 -444 -503 -675 -64 -113 -217 -437 -217 -463 0 -4 -7 -22 -14 -39 -21 -44 -55 -144 -67 -192 -5 -22 -16 -56 -23 -75 -24 -60 -78 -297 -101 -445 -8 -49 -19 -112 -25 -140 -5 -27 -12 -90 -15 -140 -2 -49 -9 -151 -16 -225 -6 -75 -9 -191 -6 -260 12 -240 28 -445 42 -515 7 -38 16 -97 20 -130 3 -33 10 -74 16 -91 5 -17 16 -64 23 -105 33 -177 118 -459 198 -649 22 -52 42 -104 45 -115 3 -11 11 -27 18 -35 7 -8 16 -26 20 -40 4 -14 13 -32 20 -40 7 -8 16 -26 20 -40 4 -14 13 -32 20 -40 7 -8 16 -26 20 -40 4 -13 15 -36 25 -50 16 -23 56 -90 91 -150 8 -13 31 -48 52 -77 20 -29 37 -54 37 -57 0 -9 135 -184 211 -272 125 -145 402 -407 544 -515 204 -154 216 -162 290 -208 39 -24 81 -51 95 -61 121 -82 564 -310 601 -310 7 0 20 -6 28 -13 9 -8 54 -28 101 -46 47 -17 94 -36 105 -40 51 -21 137 -52 215 -76 47 -15 103 -33 125 -40 22 -7 57 -16 79 -20 21 -3 52 -12 70 -20 43 -18 185 -52 361 -85 33 -7 101 -20 150 -30 198 -41 697 -94 980 -104 149 -6 293 -22 308 -36 7 -6 -13 -101 -47 -225 -8 -27 -17 -66 -21 -85 -12 -60 -47 -173 -66 -212 -30 -59 -110 -131 -185 -167 -38 -18 -77 -37 -87 -42 -16 -9 -105 -30 -212 -51 -27 -5 -185 -9 -351 -8 -165 1 -313 -2 -327 -5 l-27 -7 0 -524 0 -524 26 -10 c16 -7 92 -7 217 0 106 6 316 15 467 20 151 6 358 15 460 20 102 6 302 15 445 20 143 6 370 15 505 20 275 11 1049 5 1210 -10 58 -5 173 -10 255 -10 160 0 469 -13 730 -29 88 -6 303 -16 477 -22 253 -9 321 -9 333 1 13 11 15 82 15 531 0 286 -1 520 -2 521 -2 1 -165 4 -363 8 -249 4 -375 10 -410 19 -125 33 -221 65 -236 77 -8 8 -20 14 -26 14 -18 0 -101 71 -126 108 -28 41 -52 99 -72 180 -7 29 -18 59 -24 66 -5 6 -13 32 -17 56 -4 25 -10 50 -14 55 -4 6 -19 52 -34 104 -19 67 -23 97 -16 106 14 17 59 23 315 40 239 16 631 52 643 59 4 2 50 9 102 15 52 6 127 18 165 26 76 16 192 39 295 60 36 7 92 20 125 29 32 9 66 16 75 16 8 0 27 6 41 14 14 7 43 16 65 20 42 8 82 20 294 91 174 58 233 79 245 87 6 3 52 22 103 42 51 20 101 41 110 45 9 5 28 14 42 20 14 6 32 15 40 20 8 5 78 40 154 77 303 149 541 304 810 528 114 95 426 412 512 521 111 140 220 292 258 360 9 17 25 44 36 60 54 85 180 334 219 434 18 46 36 91 41 100 13 24 76 213 103 311 43 150 103 434 112 525 3 33 13 112 22 175 24 165 24 734 1 870 -9 52 -19 122 -23 155 -17 170 -94 496 -172 730 -65 197 -79 233 -90 247 -6 7 -14 25 -18 40 -9 36 -111 244 -171 350 -56 98 -215 336 -286 428 -121 157 -433 475 -557 568 -19 15 -70 54 -112 87 -41 33 -100 77 -130 97 -30 21 -76 53 -104 72 -46 33 -134 87 -209 129 -17 10 -49 28 -71 41 -83 49 -321 165 -465 228 -25 11 -57 26 -72 34 -14 8 -32 14 -39 14 -7 0 -31 8 -53 18 -62 28 -147 60 -181 68 -16 4 -39 13 -50 20 -11 8 -29 14 -40 14 -11 1 -38 8 -60 16 -46 17 -115 38 -200 59 -33 9 -82 22 -110 30 -253 72 -740 151 -1085 175 -80 6 -210 15 -290 21 -80 6 -180 13 -223 16 -42 3 -80 9 -82 13 -3 4 1 23 9 41 8 19 17 58 21 88 10 74 46 169 86 227 105 154 257 218 559 234 453 25 528 32 540 50 8 13 -4 1058 -13 1066 -4 4 -121 0 -260 -9 -138 -9 -344 -19 -457 -22 -113 -4 -288 -13 -390 -20 -520 -40 -2189 -40 -2699 0 -103 8 -280 17 -396 20 -115 3 -250 8 -300 11 -49 3 -119 7 -155 9 -36 1 -110 6 -166 10 -77 6 -103 5 -109 -5z m4045 -3044 c223 -45 394 -91 485 -131 17 -7 59 -25 95 -40 36 -14 72 -30 80 -36 8 -5 25 -13 38 -19 23 -10 166 -93 206 -120 237 -157 440 -360 596 -595 43 -65 170 -308 170 -325 0 -7 6 -21 13 -29 14 -16 20 -32 88 -235 38 -115 81 -280 94 -361 4 -22 13 -65 20 -95 8 -30 17 -89 20 -130 4 -41 13 -117 21 -169 11 -70 14 -192 14 -483 0 -214 -2 -399 -5 -411 -3 -12 -14 -85 -25 -162 -20 -152 -48 -298 -61 -330 -5 -11 -18 -51 -28 -90 -50 -184 -101 -319 -187 -490 -120 -241 -237 -406 -423 -598 -101 -104 -326 -297 -347 -297 -2 0 -26 -15 -52 -32 -55 -38 -83 -55 -130 -79 -18 -10 -38 -22 -45 -27 -7 -5 -23 -13 -37 -17 -14 -4 -32 -13 -40 -19 -8 -7 -49 -25 -90 -40 -41 -15 -88 -34 -105 -42 -16 -7 -43 -16 -60 -19 -16 -4 -46 -12 -65 -20 -118 -45 -336 -77 -490 -73 l-105 3 -3 2755 c-1 1515 0 2761 3 2769 5 12 30 13 143 8 75 -4 171 -13 212 -21z m-2825 -10 l35 -15 0 -2765 c0 -1521 -3 -2767 -7 -2769 -5 -2 -35 0 -68 4 -33 5 -112 16 -175 24 -232 30 -252 34 -450 92 -74 22 -172 56 -235 82 -118 49 -330 167 -396 220 -21 17 -41 31 -46 31 -26 0 -358 331 -401 400 -9 14 -35 50 -59 81 -24 30 -43 59 -43 64 0 4 -11 23 -25 41 -14 18 -29 43 -35 56 -5 13 -14 30 -20 38 -5 8 -14 26 -20 40 -5 14 -14 32 -20 40 -5 8 -14 26 -20 40 -5 14 -14 32 -19 40 -5 8 -21 49 -36 90 -15 41 -32 84 -38 95 -6 11 -16 43 -23 70 -7 28 -25 91 -39 140 -14 50 -31 124 -39 165 -8 41 -19 98 -25 125 -40 193 -80 596 -81 820 -1 305 52 718 125 980 32 116 108 342 123 371 6 10 35 68 64 128 79 162 80 165 200 344 37 54 135 171 217 255 166 173 410 358 581 441 30 15 62 31 70 35 81 43 131 62 285 111 281 88 531 123 620 86z"/>
<path d="M31570 11983 c-357 -14 -717 -46 -900 -78 -47 -8 -120 -19 -163 -25 -43 -5 -87 -14 -97 -20 -10 -5 -31 -10 -47 -10 -15 0 -57 -7 -93 -16 -36 -8 -92 -21 -125 -28 -214 -48 -647 -179 -751 -227 -22 -10 -49 -19 -60 -19 -11 0 -28 -6 -39 -13 -11 -7 -54 -25 -95 -41 -41 -15 -88 -33 -105 -41 -118 -54 -143 -65 -150 -65 -16 0 -468 -231 -602 -308 -521 -298 -1014 -694 -1385 -1110 -179 -200 -399 -485 -473 -610 -5 -9 -26 -41 -46 -72 -89 -136 -236 -413 -298 -560 -18 -41 -37 -83 -42 -94 -6 -10 -18 -37 -26 -60 -8 -22 -26 -70 -40 -106 -13 -36 -30 -85 -37 -110 -8 -25 -19 -58 -24 -75 -41 -113 -97 -339 -127 -515 -8 -47 -22 -121 -29 -165 -55 -304 -54 -987 0 -1315 34 -201 66 -365 88 -445 9 -32 16 -66 16 -75 0 -8 6 -27 14 -41 7 -14 16 -43 20 -65 4 -21 30 -104 58 -184 27 -80 55 -164 62 -187 6 -24 17 -48 24 -55 7 -7 12 -18 12 -24 0 -14 52 -146 74 -189 9 -17 16 -35 16 -41 0 -6 7 -17 15 -24 8 -7 15 -18 15 -26 0 -15 79 -178 146 -299 24 -44 54 -100 68 -125 13 -25 36 -60 50 -79 14 -19 26 -38 26 -42 0 -6 60 -97 160 -244 217 -320 544 -686 948 -1064 151 -141 328 -305 394 -365 l119 -109 -18 -18 c-10 -9 -58 -29 -108 -45 -84 -26 -101 -28 -243 -27 -84 1 -201 9 -260 17 -59 9 -136 20 -172 25 -116 16 -244 43 -277 57 -17 8 -42 14 -55 14 -12 1 -48 9 -78 20 -30 11 -61 19 -69 20 -8 0 -33 8 -55 18 -23 10 -68 29 -101 42 -196 75 -386 202 -537 359 -159 164 -214 250 -383 599 -57 118 -66 124 -154 98 -31 -10 -82 -24 -114 -31 -32 -7 -63 -18 -70 -23 -7 -5 -28 -13 -47 -17 -34 -7 -146 -38 -245 -68 -27 -8 -84 -25 -125 -37 -41 -11 -102 -29 -135 -39 -33 -11 -78 -24 -100 -30 -22 -6 -49 -16 -59 -24 l-18 -13 21 -39 c12 -22 21 -45 21 -50 0 -6 9 -30 20 -53 11 -22 20 -47 20 -55 0 -8 7 -20 15 -27 8 -7 15 -19 15 -26 0 -15 45 -137 62 -168 5 -10 18 -42 28 -70 36 -103 88 -242 104 -278 9 -21 16 -46 16 -55 0 -10 6 -28 14 -39 8 -11 17 -38 21 -60 4 -21 13 -49 21 -61 8 -12 14 -29 14 -38 0 -8 9 -41 19 -72 66 -201 170 -612 225 -888 8 -38 19 -81 24 -95 5 -14 12 -47 16 -75 4 -27 13 -72 21 -100 13 -49 34 -143 60 -275 7 -36 25 -119 40 -185 15 -66 33 -149 40 -185 43 -209 64 -293 76 -302 16 -10 109 -3 194 17 66 15 212 41 345 60 82 12 214 33 350 56 36 6 112 17 170 24 119 15 303 39 466 61 61 8 171 19 245 24 74 5 166 14 205 19 38 6 137 13 220 16 82 3 235 10 339 16 241 13 751 13 943 0 81 -6 219 -13 307 -16 87 -3 209 -12 270 -19 60 -8 155 -17 210 -21 55 -4 123 -11 150 -16 28 -5 93 -14 145 -19 93 -9 181 -23 370 -56 52 -9 116 -18 141 -21 l46 -5 39 67 c22 37 48 83 59 101 11 18 38 63 60 100 22 37 49 82 60 100 11 18 38 63 60 100 22 37 49 82 60 100 11 18 38 63 60 100 22 37 49 82 60 100 78 129 88 154 65 154 -5 0 -41 20 -80 45 -39 25 -72 45 -75 45 -3 0 -27 15 -53 33 -26 18 -54 36 -62 40 -8 4 -33 21 -55 38 -22 16 -56 40 -76 53 -20 13 -65 48 -100 78 -35 29 -82 67 -104 83 -60 45 -346 327 -412 407 -32 39 -86 104 -121 145 -60 72 -176 224 -235 308 -29 42 -203 306 -224 340 -49 80 -124 207 -151 255 -46 84 -250 492 -281 560 -18 41 -40 89 -48 105 -8 17 -30 71 -50 120 -19 50 -39 95 -43 100 -4 6 -13 26 -19 45 -19 66 -47 139 -58 152 -5 7 -15 31 -21 53 -6 22 -32 99 -57 170 -25 72 -52 157 -61 190 -9 33 -19 65 -24 70 -4 6 -12 30 -18 55 -21 94 -55 215 -62 225 -4 6 -10 30 -14 55 -4 25 -13 68 -21 95 -14 49 -40 165 -71 315 -8 41 -21 116 -28 167 -8 50 -16 95 -19 100 -3 5 -11 58 -17 119 -6 60 -15 123 -20 139 -9 27 -26 206 -50 520 -11 140 -11 438 0 580 15 204 40 456 45 465 2 4 9 41 15 81 13 100 48 292 65 359 8 30 26 105 41 165 30 126 137 454 162 501 6 10 23 46 37 79 38 87 105 217 121 236 8 8 14 20 14 26 0 18 137 223 239 358 89 117 312 344 426 432 192 150 400 274 585 348 36 15 79 33 95 40 17 8 41 16 55 20 14 3 41 12 60 20 150 58 477 127 690 146 199 18 506 22 675 10 143 -11 204 -18 430 -52 32 -5 82 -16 110 -24 27 -8 102 -29 165 -46 63 -18 122 -35 130 -40 8 -4 49 -19 90 -34 41 -15 82 -31 90 -36 8 -5 24 -12 35 -16 22 -7 277 -135 310 -156 277 -171 509 -361 672 -550 117 -136 170 -200 197 -240 13 -17 47 -68 78 -112 30 -44 63 -93 72 -110 9 -16 25 -43 36 -60 11 -16 24 -39 30 -50 6 -11 24 -42 40 -70 16 -27 34 -61 40 -75 5 -14 15 -32 20 -40 6 -8 15 -26 20 -40 6 -14 15 -32 20 -40 6 -8 13 -22 16 -30 14 -35 57 -138 75 -177 10 -24 19 -46 19 -51 0 -4 9 -25 20 -47 11 -22 20 -49 20 -60 0 -11 6 -30 14 -41 8 -11 17 -38 21 -60 4 -21 13 -48 20 -59 6 -11 15 -38 19 -60 4 -22 13 -58 21 -80 45 -134 126 -560 145 -765 6 -58 15 -143 20 -190 28 -235 22 -850 -10 -1085 -5 -38 -14 -113 -19 -165 -16 -145 -34 -255 -87 -515 -8 -44 -20 -100 -24 -125 -5 -25 -16 -70 -24 -100 -29 -110 -48 -186 -61 -240 -7 -30 -25 -93 -40 -140 -14 -47 -32 -107 -39 -135 -8 -27 -19 -66 -26 -85 -37 -105 -51 -146 -69 -195 -44 -121 -63 -172 -83 -220 -11 -27 -29 -72 -40 -100 -11 -27 -28 -68 -38 -90 -10 -22 -31 -67 -46 -100 -56 -124 -147 -310 -191 -389 -25 -44 -61 -110 -81 -146 -46 -85 -171 -285 -240 -385 -30 -44 -72 -105 -93 -135 -202 -292 -540 -656 -820 -882 -186 -150 -455 -329 -628 -417 -25 -13 -54 -59 -47 -73 11 -19 55 -96 101 -172 22 -37 49 -82 60 -100 29 -49 96 -162 122 -204 12 -20 32 -55 44 -77 12 -22 35 -59 50 -82 16 -23 29 -45 29 -49 0 -4 6 -15 14 -23 7 -9 28 -44 46 -79 18 -34 42 -69 53 -77 25 -17 73 -19 135 -4 24 5 101 16 170 24 166 19 391 50 468 64 33 6 114 16 180 21 65 5 151 14 189 19 39 6 135 13 215 16 80 3 232 10 339 16 216 11 578 10 801 -2 80 -4 231 -10 335 -14 105 -3 231 -10 280 -15 50 -6 153 -15 229 -20 77 -6 169 -15 205 -21 36 -5 113 -14 171 -20 57 -5 129 -14 160 -19 30 -5 111 -17 180 -25 69 -9 141 -20 160 -24 19 -5 67 -12 105 -16 39 -3 95 -12 125 -20 30 -7 87 -16 125 -20 39 -4 93 -13 120 -20 28 -7 82 -16 120 -20 39 -3 86 -10 105 -15 58 -15 168 -29 188 -23 14 3 21 19 29 66 10 57 22 114 58 257 7 30 22 96 33 145 59 268 74 335 87 380 7 28 16 70 20 95 3 25 12 65 20 90 7 25 25 99 39 165 15 66 34 145 42 175 8 30 19 75 23 100 12 61 39 174 57 235 8 28 21 77 29 110 20 78 27 100 64 225 73 240 88 286 106 325 8 17 18 46 24 65 5 19 22 67 36 105 14 39 32 88 40 110 40 115 54 154 63 171 5 10 19 44 29 74 39 106 77 205 95 248 25 57 17 79 -35 93 -71 19 -180 50 -227 65 -55 18 -181 53 -235 65 -22 5 -53 16 -70 23 -29 13 -115 37 -202 56 -24 5 -55 16 -70 24 -16 8 -54 17 -85 21 l-57 7 -14 -33 c-25 -60 -88 -194 -98 -209 -5 -8 -12 -22 -15 -30 -13 -33 -27 -59 -77 -141 -149 -243 -336 -428 -570 -563 -54 -31 -100 -56 -103 -56 -4 0 -29 -11 -56 -25 -63 -32 -308 -115 -338 -115 -12 0 -31 -5 -43 -12 -32 -18 -196 -48 -452 -83 -122 -17 -686 -45 -698 -35 -13 11 183 229 319 356 223 207 432 414 557 554 66 74 123 137 126 140 15 13 142 162 192 225 119 150 248 326 330 450 131 199 154 234 195 309 22 38 58 103 82 145 44 79 150 293 196 396 15 33 34 74 41 90 27 58 55 128 55 138 0 5 9 28 19 51 19 40 37 93 66 186 7 25 18 59 24 75 102 293 184 724 211 1110 11 160 11 491 0 645 -16 216 -57 493 -95 640 -8 30 -19 79 -25 109 -6 30 -14 59 -19 65 -5 6 -12 29 -16 51 -12 67 -104 343 -140 420 -7 17 -17 41 -20 54 -17 56 -147 327 -224 461 -208 367 -399 627 -702 960 -271 297 -651 613 -1005 835 -52 33 -122 77 -156 98 -33 22 -74 45 -91 53 -18 8 -50 26 -72 39 -22 13 -51 29 -65 34 -14 6 -32 16 -40 21 -8 6 -26 15 -40 20 -14 6 -32 14 -40 19 -8 6 -40 22 -70 36 -30 15 -78 37 -105 51 -28 13 -54 24 -59 24 -5 0 -17 6 -25 13 -9 8 -54 28 -101 46 -47 18 -89 37 -94 42 -6 5 -17 9 -25 9 -9 0 -29 7 -46 16 -16 8 -52 23 -80 33 -27 10 -102 37 -165 60 -63 23 -129 46 -146 50 -17 5 -51 15 -75 24 -39 14 -120 38 -274 83 -75 21 -172 45 -245 60 -36 7 -76 17 -90 22 -14 5 -47 12 -75 16 -27 3 -79 13 -115 21 -98 22 -241 45 -380 60 -69 8 -152 19 -185 24 -118 21 -751 43 -965 34z"/>
<path d="M6768 11753 l-1038 -3 -19 -38 c-23 -46 -151 -366 -151 -378 0 -5 -7 -22 -16 -39 -8 -16 -27 -59 -40 -95 -14 -36 -36 -90 -49 -120 -13 -30 -27 -67 -30 -83 -4 -15 -11 -30 -16 -33 -5 -3 -9 -12 -9 -21 0 -9 -9 -35 -19 -57 -11 -23 -34 -78 -50 -123 -17 -45 -34 -90 -40 -100 -5 -10 -14 -31 -20 -48 -19 -59 -132 -343 -172 -433 -10 -23 -19 -48 -19 -55 0 -6 -7 -25 -16 -42 -9 -16 -22 -51 -30 -77 -8 -26 -19 -50 -24 -53 -6 -3 -10 -14 -10 -23 0 -9 -6 -29 -14 -43 -7 -15 -21 -50 -31 -78 -9 -28 -21 -53 -26 -56 -5 -4 -9 -14 -9 -23 0 -9 -6 -29 -14 -43 -7 -15 -21 -50 -31 -78 -9 -28 -21 -53 -26 -56 -5 -4 -9 -13 -9 -22 0 -8 -6 -29 -14 -46 -8 -18 -40 -97 -71 -177 -31 -80 -61 -149 -66 -154 -5 -6 -9 -17 -9 -25 0 -9 -6 -28 -14 -42 -7 -15 -21 -50 -31 -78 -9 -28 -21 -53 -26 -56 -5 -4 -9 -14 -9 -23 0 -9 -7 -30 -16 -47 -9 -16 -22 -46 -29 -65 -7 -19 -22 -57 -33 -85 -11 -27 -34 -86 -51 -130 -18 -44 -38 -94 -45 -110 -8 -17 -26 -62 -40 -100 -15 -39 -35 -88 -45 -110 -11 -22 -34 -78 -51 -125 -18 -47 -35 -89 -40 -95 -4 -5 -11 -21 -15 -35 -7 -23 -13 -40 -45 -115 -7 -16 -37 -91 -66 -165 -30 -74 -61 -148 -68 -165 -8 -16 -24 -55 -36 -85 -12 -30 -30 -73 -40 -95 -10 -22 -32 -78 -50 -123 -17 -46 -35 -91 -40 -100 -6 -10 -30 -69 -55 -132 -25 -63 -52 -128 -59 -145 -8 -16 -24 -55 -36 -85 -12 -30 -33 -78 -46 -106 -13 -28 -24 -54 -24 -58 0 -5 -6 -22 -14 -39 -7 -18 -26 -61 -40 -97 -15 -36 -33 -78 -41 -95 -7 -16 -23 -55 -35 -85 -12 -30 -33 -77 -45 -105 -13 -27 -27 -62 -30 -78 -4 -15 -11 -30 -16 -33 -5 -3 -9 -12 -9 -20 0 -13 -35 -99 -60 -145 -4 -8 -20 -47 -34 -85 -15 -38 -35 -87 -46 -109 -10 -22 -37 -85 -60 -140 -23 -55 -52 -123 -66 -151 -13 -28 -24 -54 -24 -58 0 -5 -6 -22 -14 -39 -43 -100 -109 -255 -145 -342 -23 -55 -45 -107 -50 -116 -5 -8 -21 -47 -36 -85 -29 -71 -70 -167 -85 -195 -4 -8 -20 -47 -35 -85 -15 -38 -43 -103 -62 -144 -20 -41 -44 -97 -55 -125 -11 -27 -42 -102 -70 -165 -59 -135 -74 -170 -100 -230 -10 -25 -27 -63 -38 -85 -10 -22 -39 -89 -65 -150 -25 -60 -61 -141 -80 -180 -18 -38 -46 -99 -60 -135 -28 -66 -77 -175 -120 -265 -31 -66 -97 -207 -128 -275 -47 -105 -138 -295 -147 -310 -6 -8 -13 -22 -16 -30 -9 -24 -23 -54 -33 -70 -5 -8 -31 -60 -57 -115 -27 -55 -56 -111 -65 -125 -9 -14 -40 -63 -70 -109 -111 -175 -316 -345 -489 -407 -152 -54 -252 -74 -380 -74 -47 0 -161 -5 -253 -12 -136 -10 -170 -15 -177 -28 -5 -9 -14 -128 -21 -265 -10 -202 -10 -294 1 -480 7 -126 14 -251 15 -278 1 -26 5 -50 9 -54 3 -4 61 -2 129 5 67 6 208 16 312 22 105 5 258 14 340 20 380 25 804 32 1600 26 451 -3 888 -10 970 -15 83 -5 260 -14 395 -20 135 -6 319 -16 410 -23 91 -7 181 -12 200 -13 l35 0 0 545 0 545 -240 6 c-249 6 -389 20 -464 45 -25 7 -54 14 -65 14 -12 0 -43 11 -71 25 -27 13 -54 25 -60 25 -15 1 -79 61 -99 93 -22 36 -54 127 -68 192 -13 62 -4 223 16 289 8 27 18 74 22 105 4 31 11 67 16 81 5 14 16 54 23 90 7 36 18 79 24 95 6 17 43 127 82 245 101 303 108 322 118 334 4 6 11 26 15 44 3 19 12 48 19 65 8 18 24 58 35 90 12 31 30 81 42 110 11 29 20 56 20 60 0 4 7 24 17 45 9 20 22 55 29 77 7 22 24 72 39 110 14 39 32 88 40 110 7 22 25 72 40 110 14 39 31 85 36 102 16 52 70 116 121 141 39 20 70 25 200 32 212 12 3048 10 3167 -2 55 -5 110 -17 132 -28 43 -23 86 -71 96 -108 3 -15 12 -36 19 -47 7 -11 16 -39 20 -63 4 -23 10 -45 15 -48 5 -3 13 -24 19 -47 6 -23 17 -58 25 -77 14 -36 36 -101 60 -180 23 -73 46 -143 60 -180 7 -19 25 -75 40 -125 15 -49 33 -101 40 -115 7 -14 17 -43 21 -65 4 -22 13 -49 20 -60 7 -11 16 -38 20 -59 4 -22 13 -51 20 -65 8 -14 17 -42 20 -61 4 -19 10 -39 14 -45 5 -5 13 -30 19 -55 7 -25 18 -61 26 -80 13 -35 50 -149 138 -430 74 -240 86 -347 53 -492 -26 -116 -71 -174 -171 -222 -5 -3 -48 -14 -95 -25 -61 -14 -141 -21 -280 -25 -369 -12 -564 -27 -577 -44 -10 -12 -13 -133 -13 -528 0 -460 2 -514 16 -529 9 -9 22 -14 29 -11 7 2 152 9 322 15 169 6 421 16 558 22 814 35 2457 35 3350 0 770 -31 845 -30 845 2 3 173 -1 1031 -5 1037 -3 4 -98 11 -212 15 -289 9 -457 22 -495 38 -18 8 -49 17 -69 21 -21 3 -42 13 -49 21 -7 8 -17 15 -23 15 -24 0 -120 75 -181 142 -87 93 -128 164 -243 418 -14 30 -36 78 -49 107 -13 28 -24 56 -24 62 0 6 -10 32 -21 58 -34 76 -45 103 -74 183 -15 41 -31 82 -36 90 -10 17 -10 17 -46 115 -14 39 -34 88 -44 111 -11 22 -19 44 -19 49 0 10 -75 205 -96 250 -8 17 -18 44 -24 60 -18 58 -46 130 -55 145 -5 8 -22 50 -37 94 -15 43 -37 98 -48 121 -11 23 -20 45 -20 50 0 8 -71 196 -94 250 -8 17 -26 64 -41 105 -15 41 -36 93 -46 116 -11 22 -19 44 -19 49 0 8 -71 196 -94 250 -8 17 -26 64 -41 105 -55 152 -68 186 -86 226 -11 23 -19 45 -19 50 0 10 -38 110 -52 138 -6 10 -18 42 -28 70 -39 116 -83 233 -101 272 -11 22 -19 44 -19 49 0 5 -9 33 -20 62 -12 29 -30 79 -42 110 -12 32 -30 76 -40 99 -10 22 -18 44 -18 49 0 5 -9 33 -20 62 -12 29 -30 79 -42 110 -12 32 -30 76 -40 99 -10 22 -18 48 -18 57 0 9 -9 34 -20 54 -11 21 -20 42 -20 48 0 6 -18 58 -40 115 -22 58 -40 112 -40 121 0 9 -6 22 -14 28 -7 6 -16 26 -20 44 -3 17 -15 55 -25 82 -11 28 -29 77 -41 110 -12 33 -28 71 -35 85 -7 14 -16 41 -20 60 -4 19 -13 44 -19 55 -7 11 -16 34 -20 50 -4 17 -16 54 -27 82 -20 54 -44 120 -80 220 -12 32 -27 72 -35 88 -7 17 -17 46 -23 65 -5 19 -28 85 -50 145 -22 61 -48 133 -57 160 -10 28 -26 68 -36 91 -10 22 -18 48 -18 57 0 9 -9 34 -20 54 -11 21 -20 44 -20 53 0 8 -9 37 -20 65 -10 27 -38 104 -61 170 -22 66 -47 131 -54 145 -7 14 -16 41 -20 60 -4 19 -13 46 -21 60 -7 14 -18 41 -23 60 -6 19 -19 60 -30 90 -10 30 -37 107 -60 170 -22 63 -61 174 -86 245 -26 72 -53 151 -60 176 -7 26 -18 55 -23 65 -6 11 -17 39 -25 64 -8 25 -40 119 -71 210 -32 91 -73 212 -92 270 -20 58 -39 114 -45 125 -13 28 -48 130 -65 189 -7 26 -18 53 -23 60 -5 6 -12 29 -16 51 -4 22 -13 51 -20 65 -8 14 -20 45 -28 70 -7 25 -51 153 -96 285 -45 132 -96 281 -113 330 -16 50 -36 104 -44 122 -8 17 -17 46 -20 65 -4 18 -12 40 -20 48 -7 8 -15 33 -19 55 -4 22 -13 49 -20 61 -8 12 -17 39 -20 60 -4 21 -13 48 -20 59 -6 11 -15 34 -19 50 -4 17 -15 53 -26 80 -10 28 -31 85 -46 129 -27 76 -56 119 -78 114 -6 -2 -478 -4 -1048 -5z m-474 -2715 c15 -40 36 -94 47 -120 10 -26 19 -55 19 -65 0 -10 6 -27 14 -38 7 -11 16 -33 20 -50 4 -16 16 -54 27 -82 11 -29 29 -79 41 -110 11 -32 27 -72 35 -90 7 -17 16 -46 19 -65 4 -18 12 -40 20 -48 7 -8 16 -33 19 -55 4 -22 14 -51 21 -65 7 -14 30 -72 49 -130 20 -58 49 -145 66 -195 17 -49 37 -104 45 -122 8 -17 17 -46 21 -65 3 -18 12 -42 19 -53 7 -11 16 -38 20 -60 3 -22 12 -47 19 -55 8 -8 16 -33 20 -55 4 -22 13 -49 20 -60 7 -11 16 -36 20 -55 4 -19 13 -48 20 -65 13 -30 34 -90 60 -175 8 -25 32 -97 54 -160 78 -222 253 -735 265 -775 7 -22 18 -53 25 -70 7 -16 15 -43 18 -60 4 -16 12 -39 19 -50 7 -11 16 -38 20 -60 3 -22 11 -46 17 -54 13 -15 47 -134 50 -170 2 -21 -4 -26 -33 -32 -19 -4 -580 -8 -1247 -9 -1356 -1 -1242 -8 -1205 72 11 24 30 72 42 108 13 36 31 83 40 105 26 58 176 443 190 487 6 21 15 40 19 43 5 2 14 25 21 50 7 25 17 48 21 51 5 3 9 12 9 21 0 9 9 35 19 57 11 23 34 78 50 123 17 45 34 90 39 100 6 10 22 52 37 93 15 41 31 83 37 93 5 10 22 55 39 100 16 45 36 96 43 112 8 17 37 91 66 165 28 74 55 144 60 155 30 67 50 119 50 126 0 5 11 32 24 61 14 29 28 66 31 81 4 15 11 30 16 33 5 3 9 12 9 21 0 9 8 35 19 57 10 23 33 79 50 125 18 46 36 91 41 100 4 9 20 50 35 91 15 41 32 83 37 94 5 10 25 61 44 112 18 51 38 101 43 111 5 10 30 74 56 143 26 69 56 143 66 166 10 23 19 44 19 46 0 16 42 98 49 94 4 -3 20 -38 35 -78z"/>
</g>
</g>
  <g id="id1:id1" transform="matrix(1.25,0,0,1.25,0.0,0.0)"><g transform="translate(0.000000,500.800000) scale(0.040000,-0.040000)" fill="#000000" stroke="none">
<path d="M15764 12163 c5 -197 10 -565 12 -818 4 -418 6 -460 21 -469 9 -5 132 -13 272 -18 526 -17 653 -25 703 -45 53 -21 61 -37 21 -41 -15 -1 -125 -14 -243 -27 -315 -37 -471 -61 -710 -110 -196 -41 -224 -48 -470 -116 -41 -11 -154 -47 -250 -79 -245 -82 -243 -82 -260 -91 -19 -11 -31 -16 -110 -46 -63 -24 -140 -58 -170 -75 -8 -4 -22 -11 -30 -14 -20 -9 -294 -145 -328 -164 -132 -74 -170 -96 -192 -111 -14 -9 -70 -47 -125 -83 -212 -138 -389 -280 -570 -456 -232 -225 -338 -344 -481 -540 -47 -64 -174 -249 -174 -254 0 -1 -23 -41 -51 -87 -28 -46 -60 -102 -70 -124 -10 -22 -23 -47 -29 -55 -5 -8 -14 -26 -20 -40 -5 -14 -14 -32 -18 -40 -25 -45 -47 -93 -79 -175 -19 -49 -38 -94 -41 -100 -13 -20 -72 -192 -106 -310 -112 -382 -177 -844 -176 -1251 1 -165 30 -534 55 -689 27 -165 83 -424 115 -530 43 -144 110 -342 124 -370 9 -16 16 -36 16 -42 0 -7 10 -34 21 -60 43 -97 62 -138 70 -153 5 -8 14 -26 19 -40 6 -14 15 -32 20 -40 6 -8 15 -26 20 -40 6 -14 14 -32 19 -40 6 -8 26 -46 46 -83 46 -89 158 -262 276 -427 153 -213 488 -547 749 -746 120 -92 424 -294 500 -332 14 -7 43 -24 65 -37 49 -29 375 -193 430 -217 22 -9 60 -25 85 -36 104 -46 143 -62 153 -62 6 0 29 -9 51 -19 51 -24 371 -130 451 -150 22 -6 76 -20 120 -31 110 -30 231 -57 352 -79 56 -11 110 -22 120 -25 68 -21 561 -80 873 -104 l95 -7 -2 -48 c-3 -100 -66 -148 -246 -187 l-102 -23 -426 7 c-349 5 -429 4 -438 -7 -17 -21 -16 -1637 1 -1649 13 -9 201 -4 478 13 85 5 254 14 375 19 121 6 326 17 455 25 466 29 1200 39 1949 27 383 -7 818 -19 966 -27 149 -8 376 -19 505 -25 129 -6 294 -15 365 -20 159 -11 572 -13 578 -2 15 24 11 1599 -4 1624 -7 10 -98 14 -466 19 -486 6 -516 9 -655 60 -42 16 -63 30 -81 57 -29 44 -41 116 -22 132 12 10 91 20 440 56 82 8 159 17 170 20 11 2 70 11 130 19 191 26 312 49 623 120 35 8 84 21 110 29 26 8 83 24 127 36 71 20 232 72 395 129 30 11 69 27 85 35 17 9 35 16 41 16 6 0 33 9 60 21 103 44 140 61 154 70 8 5 23 12 34 16 10 3 81 38 159 77 77 39 151 77 166 84 14 7 33 17 41 22 8 5 44 25 79 45 293 166 677 459 897 686 237 246 481 569 615 814 23 44 56 103 71 130 15 28 31 57 34 65 4 8 23 49 42 90 19 41 47 109 64 150 16 41 33 83 38 92 19 34 133 398 149 478 50 239 71 349 80 425 6 50 16 122 22 160 20 114 17 836 -3 955 -9 52 -19 124 -23 160 -4 36 -11 85 -17 110 -5 25 -18 90 -29 145 -17 95 -38 183 -72 320 -18 68 -95 305 -125 380 -11 28 -29 76 -41 107 -27 71 -181 380 -213 428 -12 20 -31 51 -41 70 -24 47 -174 265 -266 387 -99 130 -464 494 -619 617 -125 99 -312 235 -373 271 -18 11 -43 27 -55 35 -24 17 -139 86 -182 110 -15 8 -56 32 -92 52 -112 62 -371 188 -387 188 -4 0 -25 9 -47 19 -75 35 -138 61 -149 61 -6 0 -29 9 -51 19 -132 61 -568 191 -846 251 -30 6 -84 18 -120 26 -187 41 -614 98 -828 110 -67 4 -125 11 -128 15 -2 5 15 18 38 30 50 26 159 33 641 44 161 3 307 8 325 11 l32 5 0 824 0 825 -218 0 c-137 0 -222 -4 -228 -10 -7 -7 -129 -14 -310 -20 -164 -5 -342 -14 -394 -19 -52 -5 -207 -12 -345 -16 -234 -5 -584 -20 -755 -30 -84 -6 -1267 -6 -1345 -1 -27 2 -156 9 -285 15 -435 21 -605 32 -670 41 -36 4 -171 11 -300 15 -129 4 -239 11 -244 16 -6 5 -113 9 -239 9 l-230 0 7 -357z m596 47 c58 -6 242 -14 410 -20 168 -5 395 -16 505 -24 382 -28 1218 -41 1828 -27 303 7 638 19 743 27 106 8 286 17 400 20 115 2 308 12 429 20 121 9 246 14 278 12 l58 -3 0 -518 c1 -285 -1 -520 -3 -523 -2 -2 -56 -8 -119 -14 -110 -9 -178 -13 -436 -25 -191 -9 -353 -61 -455 -145 -78 -64 -146 -200 -174 -345 -9 -44 -18 -92 -21 -107 -4 -22 -1 -28 18 -32 29 -5 429 -33 589 -41 63 -3 140 -10 170 -15 30 -5 102 -14 160 -20 58 -5 146 -17 195 -26 190 -33 361 -66 395 -76 19 -6 64 -17 100 -23 36 -7 79 -17 95 -23 17 -6 77 -23 135 -38 58 -15 114 -32 125 -37 10 -6 40 -16 65 -23 111 -32 156 -48 405 -149 120 -48 514 -243 545 -269 8 -7 23 -16 33 -19 10 -4 44 -23 75 -44 31 -20 73 -46 92 -58 19 -13 53 -34 75 -49 45 -28 140 -98 266 -195 121 -93 445 -416 558 -556 100 -125 233 -313 279 -396 15 -27 39 -70 54 -96 29 -51 121 -236 144 -290 8 -18 20 -48 28 -65 109 -244 235 -717 267 -993 4 -38 15 -126 24 -195 14 -103 16 -181 11 -445 -3 -176 -10 -347 -16 -380 -6 -33 -14 -98 -19 -145 -13 -120 -58 -346 -103 -510 -27 -99 -108 -342 -118 -355 -4 -5 -13 -28 -20 -50 -47 -148 -203 -438 -363 -675 -157 -233 -535 -635 -751 -800 -209 -159 -378 -274 -502 -341 -32 -17 -66 -37 -74 -43 -14 -10 -229 -118 -290 -145 -14 -6 -32 -15 -40 -19 -39 -22 -212 -95 -360 -150 -68 -26 -409 -135 -470 -151 -25 -6 -96 -25 -159 -41 -62 -17 -123 -30 -135 -30 -12 0 -42 -7 -67 -15 -24 -8 -71 -19 -104 -24 -33 -4 -98 -15 -145 -24 -134 -25 -217 -37 -325 -48 -55 -5 -161 -16 -235 -25 -74 -8 -218 -19 -320 -24 -214 -10 -326 -26 -334 -47 -6 -14 28 -141 60 -226 8 -20 14 -48 14 -60 0 -12 6 -31 14 -42 7 -11 18 -40 24 -65 46 -197 132 -289 337 -359 144 -48 203 -55 558 -61 l338 -5 -1 -505 c0 -277 -4 -508 -9 -513 -4 -4 -23 -9 -42 -9 -64 -3 -714 23 -834 32 -66 5 -284 15 -485 20 -201 6 -428 15 -505 20 -147 9 -1270 6 -1390 -4 -38 -3 -205 -10 -371 -16 -165 -5 -358 -14 -430 -20 -71 -5 -221 -12 -334 -15 -113 -3 -312 -11 -443 -17 -155 -7 -241 -8 -248 -1 -6 6 -10 200 -10 519 l0 509 338 5 c300 5 349 8 434 28 136 31 213 65 307 134 92 68 120 128 191 403 11 44 23 96 26 115 4 19 13 54 21 77 7 23 11 48 8 56 -8 22 -111 38 -319 47 -218 10 -472 32 -660 57 -66 8 -151 19 -190 24 -38 4 -99 15 -135 23 -36 9 -92 20 -125 25 -33 5 -78 14 -100 19 -107 27 -185 45 -230 54 -27 5 -62 16 -77 24 -15 8 -37 14 -49 14 -32 0 -312 93 -484 160 -44 17 -89 34 -100 37 -11 4 -31 14 -44 25 -13 10 -31 18 -39 18 -18 0 -313 143 -392 190 -30 18 -75 44 -100 58 -75 41 -237 146 -341 222 -206 149 -290 221 -484 415 -115 116 -244 255 -285 309 -118 155 -249 353 -306 464 -19 37 -39 74 -43 82 -5 8 -14 26 -20 40 -6 14 -15 32 -19 40 -9 15 -29 57 -70 150 -11 25 -23 56 -27 70 -4 14 -11 30 -15 35 -14 19 -140 409 -140 433 0 7 -9 45 -19 85 -29 108 -53 223 -62 302 -5 39 -13 90 -19 115 -16 74 -35 382 -35 585 0 223 19 505 40 590 8 33 14 75 15 94 0 19 10 75 21 125 50 217 72 303 84 331 6 17 15 47 19 67 4 20 13 50 21 65 8 15 15 34 15 41 0 7 9 34 19 60 11 26 32 79 46 117 68 177 215 450 343 640 223 329 556 672 885 913 131 96 332 227 437 285 102 57 343 177 355 177 6 0 22 8 35 18 14 9 39 22 55 28 17 7 77 31 135 54 58 23 125 47 150 54 25 8 61 20 80 28 19 9 69 26 110 38 41 12 89 28 105 35 17 7 46 16 65 19 19 4 64 16 100 26 156 45 386 100 420 100 15 0 46 7 71 15 24 8 78 19 119 24 41 5 120 16 175 25 214 33 356 48 544 57 186 9 355 28 379 43 18 11 26 132 13 208 -24 147 -126 277 -263 340 -117 53 -412 98 -698 107 l-195 6 -6 85 c-4 47 -12 155 -19 240 -18 215 -3 616 25 708 5 15 112 16 265 2z"/>
<path d="M19760 9211 c-14 -27 -14 -5515 0 -5541 19 -36 269 -24 460 21 140 33 232 60 278 80 23 10 47 19 53 19 24 0 258 115 344 168 305 190 533 411 733 708 77 115 113 180 203 369 31 65 93 234 118 320 13 44 30 100 38 125 8 25 19 72 24 105 5 33 15 83 23 110 8 28 17 79 20 115 4 36 14 108 22 161 13 79 15 166 11 500 -3 247 -9 421 -15 449 -7 25 -16 90 -21 145 -11 104 -24 177 -67 357 -30 129 -125 422 -153 476 -5 9 -32 64 -61 122 -28 58 -62 123 -75 145 -14 22 -32 54 -41 70 -79 140 -326 409 -490 533 -130 97 -320 208 -449 262 -11 5 -46 20 -79 34 -32 14 -66 26 -75 26 -9 0 -34 9 -56 20 -22 11 -47 20 -57 20 -10 0 -51 9 -91 20 -178 48 -384 79 -524 80 -51 0 -64 -3 -73 -19z m394 -317 c130 -29 240 -64 420 -130 96 -36 265 -131 398 -223 125 -88 348 -329 428 -464 49 -82 100 -178 130 -242 17 -38 38 -83 45 -100 22 -47 94 -270 110 -338 44 -193 63 -297 75 -414 6 -56 15 -127 20 -157 15 -93 22 -512 11 -661 -17 -249 -51 -453 -110 -670 -22 -79 -87 -267 -106 -305 -7 -14 -32 -65 -56 -115 -78 -160 -143 -262 -260 -405 -159 -195 -327 -340 -554 -477 -48 -29 -137 -73 -147 -73 -6 0 -19 -6 -27 -14 -9 -8 -32 -19 -51 -24 -19 -6 -66 -22 -105 -37 -92 -33 -304 -87 -316 -80 -10 7 -13 4928 -2 4938 9 10 16 9 97 -9z"/>
<path d="M17015 9189 c-220 -46 -371 -88 -452 -125 -17 -8 -36 -14 -43 -14 -7 0 -29 -8 -49 -19 -20 -10 -65 -33 -101 -50 -36 -18 -74 -37 -85 -44 -11 -6 -36 -21 -55 -32 -75 -45 -228 -151 -279 -194 -574 -481 -871 -1119 -936 -2011 -19 -257 -19 -297 0 -555 25 -329 77 -635 156 -910 19 -66 28 -92 80 -232 28 -76 118 -261 130 -269 5 -3 9 -12 9 -21 0 -9 8 -25 17 -35 9 -10 30 -40 47 -67 76 -121 154 -216 282 -345 215 -215 437 -363 689 -460 39 -15 79 -31 90 -37 48 -23 287 -85 420 -109 103 -18 312 -47 395 -53 l25 -2 3 2776 c2 2634 1 2777 -15 2791 -49 42 -177 49 -328 17z m35 -2779 c0 -1356 -3 -2465 -7 -2465 -25 1 -120 19 -193 37 -368 88 -660 250 -913 504 -144 144 -239 276 -325 449 -75 152 -85 174 -141 345 -131 400 -186 936 -150 1476 20 309 77 561 201 889 28 72 144 285 209 383 143 213 343 419 524 539 55 36 111 74 125 83 14 10 37 21 50 25 14 4 32 13 40 20 8 7 26 16 40 20 14 4 32 13 40 20 16 13 207 82 305 111 88 25 126 32 163 31 l32 -2 0 -2465z"/>
<path d="M31490 12264 c-25 -2 -133 -8 -240 -14 -238 -13 -635 -61 -835 -102 -27 -6 -90 -18 -140 -29 -152 -30 -226 -47 -330 -74 -55 -15 -122 -33 -150 -40 -220 -57 -606 -190 -835 -286 -276 -117 -613 -282 -760 -373 -40 -25 -54 -33 -130 -77 -179 -104 -490 -328 -741 -534 -144 -117 -578 -546 -669 -659 -30 -37 -80 -98 -111 -135 -117 -140 -306 -410 -422 -603 -71 -117 -199 -369 -252 -493 -25 -60 -53 -123 -60 -140 -61 -130 -192 -561 -219 -720 -4 -22 -13 -69 -21 -105 -93 -434 -105 -1112 -30 -1630 40 -272 108 -587 159 -735 8 -22 26 -80 42 -130 16 -49 34 -101 41 -115 7 -14 13 -33 13 -42 0 -10 9 -37 20 -60 10 -24 31 -74 46 -113 14 -38 32 -81 39 -95 19 -39 43 -93 55 -120 5 -14 14 -32 19 -40 5 -8 33 -62 61 -120 28 -58 59 -118 67 -135 9 -16 20 -37 24 -45 15 -30 113 -196 130 -220 9 -14 40 -63 69 -110 29 -47 66 -103 82 -125 16 -22 63 -87 104 -145 193 -268 433 -548 710 -828 142 -144 206 -216 196 -219 -27 -11 -417 82 -542 128 -378 141 -592 336 -766 699 -41 85 -84 172 -94 192 -11 20 -20 43 -20 51 0 8 -6 20 -14 26 -8 7 -18 26 -22 43 -3 18 -27 52 -55 80 l-48 48 -68 0 c-38 0 -84 -5 -103 -11 -19 -5 -118 -34 -220 -63 -102 -30 -207 -61 -235 -69 -27 -8 -86 -25 -130 -37 -44 -13 -107 -31 -140 -41 -33 -9 -94 -27 -135 -39 -41 -12 -102 -30 -135 -39 -33 -10 -96 -28 -140 -41 -118 -34 -189 -60 -197 -73 -4 -7 -5 -21 -2 -32 8 -28 83 -223 100 -260 20 -44 160 -395 201 -505 74 -196 85 -229 133 -375 28 -82 55 -163 61 -180 6 -16 19 -59 29 -95 10 -36 28 -99 40 -140 31 -111 58 -210 91 -345 16 -66 34 -138 40 -160 6 -22 19 -80 30 -130 11 -49 30 -130 41 -180 11 -49 26 -122 33 -162 8 -39 18 -88 24 -110 10 -37 27 -120 56 -273 14 -73 29 -148 60 -300 9 -41 22 -106 30 -145 8 -38 24 -125 37 -192 l23 -123 155 0 c86 0 160 4 165 9 13 12 211 55 350 76 61 9 162 25 225 35 526 84 672 105 1030 144 363 40 550 52 1100 71 171 6 669 -7 960 -25 161 -10 577 -48 600 -55 8 -2 62 -9 120 -15 58 -6 143 -17 190 -25 198 -33 411 -58 490 -59 77 -1 89 2 126 27 40 27 78 76 140 180 51 85 73 121 89 150 9 16 75 126 146 244 71 118 129 217 129 219 0 1 27 46 60 98 33 53 60 98 60 101 0 2 20 36 45 75 25 39 45 72 45 75 0 2 14 27 30 55 20 33 27 56 22 66 -11 20 -167 118 -325 204 -15 8 -63 37 -105 65 -442 286 -795 641 -1149 1158 -105 154 -142 211 -205 317 -29 50 -62 105 -73 124 -91 154 -244 457 -335 661 -10 22 -30 66 -44 97 -14 31 -26 60 -26 63 0 3 -8 25 -19 48 -10 23 -28 67 -39 97 -12 30 -33 85 -47 122 -33 86 -150 440 -176 533 -51 180 -61 215 -79 288 -46 182 -61 246 -75 321 -8 44 -19 94 -24 110 -5 17 -12 54 -16 81 -3 28 -13 84 -21 125 -61 321 -99 857 -83 1188 19 385 59 693 130 1002 42 181 152 520 199 608 4 9 32 66 60 125 68 144 162 301 256 428 99 135 368 402 494 491 448 317 992 478 1609 478 258 0 565 -32 746 -77 33 -8 78 -19 100 -23 37 -8 113 -32 245 -79 92 -32 315 -139 409 -196 402 -242 734 -578 972 -983 30 -51 60 -105 67 -120 7 -15 17 -34 23 -42 5 -8 14 -26 20 -40 6 -14 15 -32 20 -40 5 -8 12 -22 15 -30 36 -86 99 -231 110 -256 9 -17 19 -46 24 -65 5 -19 23 -72 39 -119 17 -47 35 -101 40 -120 5 -19 21 -80 36 -135 53 -194 106 -480 124 -670 6 -60 15 -159 21 -220 15 -143 15 -668 0 -815 -38 -390 -56 -526 -99 -745 -33 -168 -61 -296 -66 -305 -3 -5 -12 -39 -20 -77 -8 -37 -24 -102 -36 -143 -12 -41 -29 -104 -39 -140 -21 -75 -129 -400 -159 -478 -12 -28 -30 -76 -42 -105 -11 -28 -27 -68 -34 -87 -163 -418 -474 -963 -765 -1341 -280 -365 -584 -655 -915 -876 -71 -48 -276 -173 -282 -173 -2 0 -22 -11 -44 -26 -22 -14 -55 -33 -72 -43 -101 -57 -214 -126 -229 -139 -26 -22 -22 -53 12 -108 17 -27 62 -103 101 -169 38 -66 74 -127 79 -135 15 -26 111 -184 120 -200 12 -18 78 -128 105 -175 11 -18 47 -79 80 -134 33 -56 67 -114 75 -129 90 -164 121 -202 194 -240 46 -24 60 -27 156 -26 58 1 146 8 195 17 50 9 119 19 155 22 36 4 155 20 265 36 557 82 1073 115 1600 105 370 -7 683 -21 895 -41 85 -8 205 -19 265 -24 220 -20 627 -69 790 -96 50 -8 127 -20 173 -25 46 -6 89 -13 95 -16 7 -2 53 -11 102 -19 216 -34 497 -93 509 -105 6 -6 72 -10 147 -10 l138 0 11 58 c6 31 17 86 25 122 8 36 19 90 24 120 6 30 22 109 36 175 14 66 32 152 40 190 7 39 25 124 40 190 14 66 32 152 40 190 7 39 16 77 19 85 4 8 13 49 20 90 8 41 23 116 35 165 11 50 27 124 35 165 9 41 20 91 26 110 5 19 23 94 40 165 33 143 44 186 91 350 47 166 65 223 94 305 14 41 30 92 36 114 5 21 16 48 24 60 8 11 15 28 15 36 0 9 18 61 40 116 22 54 40 103 40 108 0 5 9 27 19 50 11 23 29 68 42 101 12 33 30 78 39 100 36 81 59 141 66 165 3 14 12 32 19 40 7 8 16 29 20 47 3 17 13 37 21 44 11 9 14 42 14 153 l0 141 -113 28 c-150 38 -277 72 -362 97 -38 12 -101 30 -140 40 -38 10 -133 38 -210 61 -77 23 -160 47 -185 54 -25 7 -100 29 -167 49 -153 45 -232 48 -282 12 -28 -21 -101 -117 -101 -133 0 -3 -9 -24 -19 -47 -11 -23 -43 -95 -72 -160 -69 -155 -144 -280 -233 -385 -109 -129 -278 -263 -411 -325 -151 -71 -186 -86 -200 -86 -9 0 -26 -5 -38 -11 -25 -14 -134 -43 -262 -70 -178 -38 -226 -44 -233 -26 -2 4 82 97 186 205 267 278 455 497 643 747 96 129 211 300 350 522 56 90 201 357 254 468 77 164 85 181 85 192 0 6 7 16 15 23 8 7 15 20 15 29 0 9 7 30 16 46 9 17 20 41 24 55 5 14 23 61 40 105 42 109 113 323 140 420 12 44 28 101 36 128 8 26 21 78 28 115 8 37 21 101 29 142 30 143 47 246 69 415 20 153 22 213 22 585 l0 415 -27 200 c-15 110 -30 207 -33 215 -3 8 -14 60 -24 115 -30 156 -82 363 -100 400 -5 11 -14 38 -19 60 -11 45 -36 123 -56 175 -8 19 -26 67 -40 105 -93 247 -252 564 -401 800 -24 39 -52 83 -62 99 -20 33 -85 125 -174 246 -213 289 -572 670 -853 904 -232 193 -378 301 -574 424 -24 15 -76 48 -116 74 -40 25 -94 58 -121 72 -27 15 -69 38 -94 52 -39 23 -127 67 -390 199 -36 17 -76 36 -90 40 -14 4 -31 12 -39 18 -7 6 -27 17 -45 23 -17 6 -83 33 -146 59 -63 25 -133 53 -155 60 -22 8 -71 26 -110 40 -61 23 -247 84 -400 132 -140 43 -401 106 -590 143 -55 10 -122 23 -150 29 -178 37 -499 76 -785 96 -208 15 -748 27 -840 19z m690 -305 c118 -6 271 -18 340 -26 69 -8 163 -19 210 -24 47 -4 108 -13 135 -19 28 -6 79 -14 115 -19 36 -4 101 -16 145 -25 229 -50 280 -61 400 -92 72 -18 141 -36 155 -40 44 -11 314 -95 340 -105 13 -6 63 -23 110 -39 47 -16 99 -35 115 -44 17 -9 36 -16 42 -16 7 0 32 -9 55 -19 24 -11 72 -31 108 -46 36 -14 74 -30 85 -35 11 -4 45 -19 75 -33 30 -14 96 -44 145 -67 50 -23 97 -45 105 -51 8 -5 26 -14 40 -20 14 -6 32 -15 40 -20 8 -5 33 -18 55 -29 22 -11 48 -24 58 -30 9 -5 25 -15 35 -20 9 -6 28 -16 42 -22 28 -14 130 -75 207 -125 28 -18 56 -33 61 -33 5 0 17 -9 27 -20 9 -10 36 -29 59 -41 22 -11 52 -31 66 -43 14 -12 43 -34 65 -48 230 -146 676 -553 901 -821 163 -195 309 -385 361 -471 10 -15 28 -42 40 -60 26 -37 90 -141 170 -278 36 -62 169 -336 203 -418 12 -30 30 -73 40 -95 18 -41 80 -217 119 -336 11 -36 21 -75 21 -88 0 -12 6 -34 14 -49 8 -16 20 -57 26 -92 6 -36 15 -71 20 -80 5 -9 13 -47 19 -85 5 -39 17 -106 25 -150 42 -226 51 -351 51 -735 0 -393 -6 -471 -56 -780 -54 -330 -150 -672 -277 -985 -24 -60 -50 -125 -56 -143 -7 -18 -18 -38 -24 -44 -7 -7 -12 -16 -12 -22 0 -36 -261 -533 -351 -666 -9 -14 -55 -84 -103 -156 -270 -413 -644 -845 -1111 -1284 -190 -179 -401 -399 -429 -447 -5 -9 -4 -19 2 -25 14 -14 564 8 687 27 50 8 124 17 165 21 41 3 95 12 121 20 25 8 74 18 110 23 35 5 87 17 114 25 28 9 105 34 172 56 469 152 803 447 1022 904 24 49 54 115 68 145 36 80 36 80 91 69 26 -5 56 -14 67 -19 11 -5 45 -16 75 -24 70 -17 186 -50 225 -63 17 -6 66 -20 110 -32 79 -22 134 -38 270 -78 39 -11 90 -27 115 -34 55 -16 56 -28 10 -143 -17 -44 -35 -91 -40 -105 -4 -14 -20 -56 -35 -95 -53 -138 -115 -307 -156 -425 -6 -19 -20 -55 -29 -80 -17 -42 -77 -232 -120 -375 -10 -33 -26 -85 -35 -115 -10 -30 -23 -80 -30 -110 -8 -30 -19 -75 -25 -100 -16 -61 -43 -175 -69 -287 -53 -232 -65 -282 -82 -345 -11 -36 -19 -76 -19 -89 0 -12 -8 -55 -18 -93 -11 -39 -29 -116 -41 -171 -13 -55 -31 -136 -41 -180 -10 -44 -28 -123 -40 -175 -11 -52 -30 -131 -40 -175 -11 -44 -21 -93 -22 -110 -3 -25 -8 -30 -34 -33 -17 -2 -64 4 -105 13 -41 9 -112 21 -157 26 -46 5 -110 16 -142 24 -32 8 -72 15 -90 15 -17 0 -75 9 -128 19 -53 11 -129 22 -168 26 -39 3 -95 12 -125 20 -30 8 -73 15 -95 15 -23 0 -93 9 -155 19 -63 11 -150 22 -194 26 -44 3 -120 12 -170 20 -49 7 -144 16 -210 20 -66 3 -172 12 -235 20 -63 7 -223 17 -355 20 -132 4 -265 9 -295 11 -266 17 -1121 -4 -1310 -31 -52 -8 -138 -17 -190 -21 -52 -3 -135 -13 -185 -21 -49 -8 -124 -19 -165 -23 -71 -7 -184 -23 -415 -56 -108 -15 -155 -17 -179 -8 -9 3 -35 40 -58 81 -24 41 -52 90 -63 108 -11 19 -38 63 -60 100 -22 37 -49 82 -60 100 -42 70 -101 168 -120 201 -11 19 -41 70 -67 114 -27 44 -48 83 -48 88 0 5 -9 17 -20 27 -31 28 -25 59 18 87 52 36 162 98 171 98 4 0 16 9 26 20 10 11 22 20 27 20 11 0 176 112 279 190 187 141 290 230 440 379 455 455 860 1066 1153 1741 91 209 100 232 167 418 11 28 28 76 38 105 33 89 127 406 159 532 11 44 29 116 40 160 31 123 61 265 68 320 4 28 10 60 15 72 5 13 13 62 19 110 6 49 17 122 25 163 8 41 24 170 36 285 19 191 21 249 16 635 -3 234 -10 450 -16 480 -6 30 -15 105 -20 165 -15 169 -56 393 -113 620 -17 66 -37 146 -44 178 -7 32 -17 63 -22 70 -6 7 -13 30 -17 52 -4 22 -16 57 -26 77 -11 21 -19 44 -19 52 0 9 -9 35 -19 58 -11 24 -31 72 -46 108 -15 36 -32 79 -40 95 -7 17 -18 41 -24 55 -6 14 -15 32 -20 40 -5 8 -14 26 -20 40 -6 14 -15 32 -20 40 -5 8 -14 26 -20 40 -6 14 -15 33 -21 43 -5 9 -14 25 -19 35 -5 9 -31 53 -58 97 -63 105 -65 108 -84 136 -9 13 -29 42 -43 64 -231 352 -587 688 -955 901 -116 66 -326 168 -426 204 -33 13 -76 28 -95 35 -55 21 -197 61 -295 84 -186 43 -317 61 -569 77 -243 16 -273 16 -505 0 -394 -27 -629 -77 -989 -210 -24 -9 -76 -31 -115 -50 -40 -18 -79 -36 -87 -40 -8 -3 -37 -19 -65 -35 -27 -17 -66 -39 -85 -49 -63 -36 -234 -154 -310 -216 -138 -112 -338 -322 -457 -481 -127 -170 -353 -565 -353 -617 0 -9 -6 -21 -14 -27 -7 -6 -19 -33 -26 -59 -7 -26 -16 -51 -20 -57 -4 -5 -22 -57 -39 -115 -18 -58 -39 -120 -47 -138 -8 -18 -14 -40 -14 -49 0 -9 -8 -46 -18 -82 -70 -247 -131 -613 -158 -941 -43 -511 -3 -1098 117 -1715 26 -134 57 -281 70 -330 6 -22 15 -62 20 -90 6 -27 15 -63 21 -80 10 -32 37 -126 58 -210 7 -27 18 -66 25 -85 7 -19 36 -105 64 -190 76 -234 83 -253 97 -285 7 -16 25 -61 39 -100 15 -38 44 -111 66 -161 21 -50 39 -98 39 -106 0 -9 9 -27 20 -41 11 -14 20 -30 20 -36 0 -26 287 -596 365 -727 26 -43 96 -161 115 -194 30 -53 76 -123 100 -155 14 -18 37 -52 53 -76 139 -220 414 -555 628 -765 195 -191 400 -354 609 -486 30 -19 69 -43 85 -54 17 -10 35 -21 40 -24 6 -3 27 -16 47 -29 l37 -23 -17 -26 c-10 -15 -23 -36 -29 -47 -33 -57 -132 -222 -188 -315 -55 -92 -135 -224 -200 -334 -11 -19 -37 -64 -58 -100 l-38 -67 -37 6 c-20 4 -68 13 -107 20 -38 8 -104 19 -145 24 -41 6 -106 15 -145 20 -206 31 -313 43 -435 52 -74 5 -160 14 -190 20 -30 6 -147 14 -260 19 -113 5 -277 13 -365 17 -368 18 -1185 0 -1450 -33 -66 -8 -176 -19 -245 -24 -134 -9 -322 -31 -485 -55 -55 -8 -143 -19 -195 -25 -52 -5 -109 -14 -127 -19 -18 -5 -63 -12 -100 -16 -37 -3 -112 -15 -165 -26 -53 -10 -111 -19 -128 -19 -18 0 -58 -6 -89 -14 -31 -8 -96 -19 -144 -26 -48 -6 -99 -15 -113 -20 -44 -17 -162 -24 -178 -11 -7 6 -17 37 -21 69 -3 31 -13 81 -22 110 -8 30 -18 77 -23 105 -4 29 -14 79 -23 112 -8 33 -24 107 -37 165 -12 58 -28 130 -36 160 -7 30 -18 82 -23 115 -6 33 -17 89 -26 125 -8 36 -25 108 -36 160 -11 52 -25 113 -30 135 -6 22 -16 69 -23 105 -8 36 -20 90 -28 120 -9 30 -25 100 -38 155 -13 55 -31 127 -40 160 -10 33 -27 96 -40 140 -12 44 -31 104 -41 133 -10 30 -19 64 -19 76 0 12 -6 31 -14 42 -8 11 -18 38 -22 60 -4 21 -15 55 -25 74 -11 19 -19 43 -19 53 0 10 -9 35 -20 57 -11 22 -20 45 -20 51 0 13 -39 117 -66 176 -8 17 -14 36 -14 42 0 6 -9 30 -19 53 -11 24 -29 70 -41 103 -12 33 -30 78 -40 100 -10 22 -27 61 -39 88 -11 26 -21 55 -21 65 0 10 -7 28 -16 40 l-15 22 43 20 c24 11 49 20 57 20 8 0 42 9 75 19 34 10 95 28 136 40 41 12 102 30 135 40 33 10 96 28 140 40 44 12 94 27 110 33 17 5 59 18 95 28 36 10 89 26 119 34 43 12 57 13 69 4 8 -7 39 -64 69 -128 72 -151 164 -319 219 -400 25 -36 98 -118 162 -183 108 -108 147 -139 327 -253 40 -25 112 -62 155 -79 111 -43 152 -59 220 -82 41 -14 100 -31 130 -39 30 -7 73 -18 95 -23 202 -52 502 -91 688 -91 127 0 148 3 238 31 54 17 109 39 121 49 l23 20 -60 57 c-34 32 -148 139 -255 238 -394 367 -498 467 -620 601 -69 76 -148 163 -176 193 -189 208 -493 636 -629 886 -78 143 -175 336 -175 348 0 7 -8 24 -17 37 -10 14 -23 39 -29 55 -18 47 -75 187 -90 220 -15 34 -24 60 -94 267 -28 81 -50 156 -50 168 0 11 -6 33 -14 48 -8 15 -19 50 -24 77 -5 28 -17 79 -26 115 -34 142 -56 247 -56 272 0 15 -7 60 -15 100 -9 40 -20 129 -25 198 -34 477 -34 466 -21 648 8 97 17 224 21 282 10 148 34 293 89 550 53 243 175 597 296 855 48 102 184 352 235 430 21 33 53 83 70 110 39 63 75 115 164 235 311 421 805 900 1210 1175 139 94 233 157 261 174 17 10 57 35 90 56 119 74 222 130 470 260 39 20 162 77 275 126 211 93 233 102 335 139 33 12 75 28 92 36 41 17 272 93 373 123 190 56 279 79 360 96 36 7 92 20 125 29 32 9 74 16 92 16 18 0 50 7 70 15 21 8 72 19 113 24 41 5 120 16 175 24 212 33 368 49 570 58 116 5 217 11 225 13 35 8 481 5 680 -5z"/>
<path d="M6681 12040 l-1155 -5 -9 -35 c-5 -19 -15 -42 -23 -51 -8 -8 -14 -21 -14 -27 0 -6 -7 -26 -15 -44 -24 -56 -105 -264 -105 -273 0 -4 -9 -26 -19 -49 -11 -23 -31 -70 -44 -106 -14 -36 -50 -129 -81 -207 -31 -78 -56 -145 -56 -149 0 -4 -9 -25 -19 -48 -10 -23 -51 -122 -90 -221 -109 -279 -141 -359 -151 -377 -6 -10 -16 -35 -24 -55 -22 -61 -165 -415 -181 -448 -8 -16 -26 -61 -40 -100 -14 -38 -30 -77 -34 -86 -5 -8 -21 -47 -36 -85 -14 -38 -33 -84 -41 -102 -8 -19 -30 -74 -50 -124 -19 -49 -39 -97 -44 -106 -5 -9 -23 -53 -40 -97 -82 -207 -141 -353 -154 -380 -8 -16 -26 -61 -41 -100 -14 -38 -30 -77 -34 -86 -5 -8 -21 -47 -36 -85 -14 -38 -33 -84 -41 -102 -8 -19 -30 -74 -50 -124 -19 -49 -39 -97 -44 -106 -5 -9 -23 -53 -40 -97 -61 -153 -141 -350 -154 -380 -44 -96 -56 -127 -56 -138 0 -6 -7 -25 -16 -42 -8 -16 -26 -59 -40 -95 -14 -36 -33 -83 -43 -105 -11 -22 -34 -76 -51 -120 -83 -208 -142 -353 -154 -380 -44 -96 -56 -127 -56 -138 0 -6 -7 -25 -16 -42 -9 -16 -31 -70 -51 -120 -19 -49 -38 -94 -41 -100 -4 -5 -12 -23 -18 -40 -28 -75 -165 -412 -174 -427 -5 -9 -25 -58 -45 -108 -20 -50 -40 -99 -44 -108 -5 -9 -18 -39 -29 -67 -31 -77 -57 -142 -101 -245 -23 -52 -41 -99 -41 -103 0 -4 -15 -40 -34 -80 -18 -40 -37 -83 -41 -97 -4 -14 -15 -43 -25 -65 -11 -22 -37 -85 -60 -140 -23 -55 -49 -116 -58 -135 -9 -19 -21 -48 -28 -65 -36 -93 -89 -218 -113 -270 -16 -33 -41 -91 -56 -130 -15 -38 -43 -102 -61 -142 -18 -40 -45 -100 -60 -135 -24 -58 -54 -126 -90 -203 -7 -16 -28 -64 -45 -105 -17 -41 -46 -106 -64 -145 -47 -101 -77 -167 -128 -281 -84 -186 -108 -239 -118 -254 -5 -8 -12 -22 -15 -30 -33 -78 -325 -673 -411 -835 -32 -60 -72 -130 -90 -155 -34 -51 -167 -180 -184 -180 -6 0 -22 -9 -36 -20 -14 -11 -33 -20 -41 -20 -9 0 -23 -6 -31 -14 -9 -8 -54 -24 -101 -36 -76 -20 -123 -23 -425 -30 -187 -5 -382 -9 -432 -9 l-93 -1 0 -842 0 -841 218 7 c119 3 309 13 422 20 113 8 273 17 355 21 83 3 265 13 405 23 205 13 396 17 980 16 399 -1 840 -6 980 -13 140 -6 404 -18 585 -26 182 -8 402 -20 490 -25 259 -17 495 -17 533 -1 l32 13 0 814 c0 639 -3 815 -12 821 -7 4 -164 9 -348 10 -361 2 -503 13 -608 47 -62 20 -68 24 -81 61 -26 73 -19 185 22 360 20 88 43 183 51 210 8 28 26 93 41 145 14 52 32 111 40 130 7 19 43 121 80 225 37 105 73 204 81 222 8 17 14 37 14 45 0 7 7 27 16 43 9 17 22 48 29 70 7 22 25 72 40 110 14 39 31 86 37 105 5 19 16 46 23 60 8 14 28 66 46 115 17 50 38 108 46 130 8 22 20 45 26 52 30 29 309 34 1745 31 l1434 -3 21 -25 c14 -16 109 -287 261 -745 285 -863 257 -776 296 -910 18 -60 38 -128 45 -150 39 -114 42 -224 7 -263 -28 -32 -111 -42 -462 -52 -184 -6 -404 -13 -488 -16 l-153 -6 -10 -25 c-13 -34 -12 -1564 1 -1598 l10 -27 53 6 c28 3 356 13 727 21 371 8 725 17 785 19 310 13 1622 17 2145 7 857 -16 1838 -40 1890 -46 82 -9 75 -81 75 815 -1 746 -2 801 -18 818 -16 15 -56 18 -435 23 -366 4 -422 7 -462 23 -25 9 -54 20 -65 23 -63 19 -193 145 -231 224 -19 38 -73 157 -135 294 -18 40 -37 85 -79 185 -12 30 -31 73 -41 96 -11 23 -19 47 -19 53 0 7 -9 33 -19 59 -21 51 -83 210 -198 512 -14 36 -44 115 -68 175 -69 180 -128 333 -178 465 -11 30 -29 73 -39 96 -10 22 -18 44 -18 49 0 5 -18 54 -40 109 -21 56 -58 151 -80 211 -23 61 -50 128 -61 151 -10 23 -19 47 -19 55 -1 8 -9 32 -20 54 -11 22 -19 44 -20 49 0 5 -20 59 -44 120 -24 61 -60 156 -81 211 -21 55 -56 147 -78 205 -21 58 -50 134 -64 170 -13 36 -30 81 -38 100 -7 19 -23 62 -35 95 -12 33 -30 78 -41 101 -10 23 -19 47 -19 53 0 7 -9 33 -19 59 -11 26 -29 74 -41 107 -12 33 -31 78 -41 101 -11 23 -19 47 -19 55 0 8 -7 27 -15 42 -8 15 -19 42 -24 60 -5 18 -20 61 -34 97 -13 36 -50 135 -82 220 -32 85 -69 184 -82 220 -14 36 -31 85 -39 110 -8 25 -18 54 -24 65 -5 11 -23 58 -39 105 -17 47 -42 117 -56 155 -15 39 -35 95 -45 125 -10 30 -34 98 -54 150 -19 52 -43 118 -52 145 -9 28 -25 68 -35 91 -11 23 -19 45 -19 50 0 5 -18 59 -39 119 -22 61 -60 169 -85 240 -26 72 -51 138 -56 147 -5 10 -14 34 -19 55 -9 36 -41 125 -141 403 -23 63 -48 138 -57 165 -8 28 -18 55 -23 60 -4 6 -12 28 -18 50 -6 22 -31 99 -57 170 -25 72 -64 182 -86 245 -22 63 -49 140 -60 170 -11 30 -26 75 -34 100 -8 25 -26 77 -40 115 -15 39 -33 90 -41 115 -7 25 -34 104 -59 175 -25 72 -61 175 -80 230 -56 165 -205 596 -227 655 -11 30 -26 75 -34 100 -7 25 -42 128 -77 230 -35 102 -97 284 -139 406 -42 121 -87 239 -101 261 -41 66 -101 99 -183 104 -38 3 -588 2 -1223 -1z m1163 -320 c13 -13 65 -152 101 -270 23 -77 47 -143 66 -186 11 -23 19 -52 19 -65 0 -14 6 -33 14 -44 7 -11 20 -42 29 -70 9 -27 34 -102 56 -165 121 -349 204 -590 215 -630 7 -25 18 -55 24 -67 6 -11 16 -38 21 -59 5 -22 22 -70 36 -109 15 -38 35 -95 45 -125 10 -30 36 -107 59 -170 22 -63 67 -194 101 -290 34 -96 68 -195 75 -220 20 -63 54 -161 65 -185 5 -11 25 -67 45 -125 20 -58 64 -181 97 -275 33 -93 66 -192 74 -219 7 -26 18 -53 22 -60 5 -6 16 -33 25 -61 8 -27 34 -102 57 -165 23 -63 48 -135 56 -160 8 -25 18 -54 23 -65 11 -24 38 -104 56 -165 7 -25 20 -58 28 -75 8 -16 20 -46 27 -65 6 -19 29 -84 52 -145 22 -60 45 -130 53 -155 7 -25 20 -58 29 -75 9 -16 16 -36 16 -43 0 -8 7 -28 14 -45 16 -34 38 -97 87 -242 17 -49 34 -94 38 -100 5 -5 15 -32 24 -60 8 -27 25 -75 37 -105 33 -83 60 -160 74 -210 7 -25 18 -54 24 -65 7 -11 18 -38 26 -60 12 -35 52 -146 116 -320 10 -27 30 -81 45 -120 15 -38 31 -81 35 -95 10 -27 41 -111 85 -225 15 -38 31 -81 35 -95 5 -14 21 -56 36 -95 14 -38 34 -92 44 -120 10 -27 28 -75 40 -105 12 -30 28 -75 36 -100 8 -25 21 -58 28 -75 8 -16 24 -57 36 -90 12 -33 28 -76 36 -95 61 -157 104 -272 104 -281 0 -6 7 -23 15 -37 8 -15 21 -45 29 -67 8 -22 24 -65 36 -95 12 -30 28 -75 35 -100 7 -25 20 -58 28 -75 9 -16 26 -57 38 -90 20 -57 33 -89 78 -202 76 -192 141 -363 141 -374 0 -5 9 -27 19 -47 11 -20 30 -64 41 -97 12 -33 30 -80 40 -105 10 -25 31 -76 45 -115 14 -38 30 -79 35 -90 5 -11 16 -38 24 -60 8 -22 24 -65 36 -95 12 -30 28 -75 36 -99 8 -24 18 -49 24 -56 6 -7 16 -32 24 -56 8 -24 23 -66 34 -94 87 -220 87 -221 136 -325 8 -19 40 -87 69 -150 63 -136 80 -166 129 -233 102 -139 221 -226 378 -277 53 -17 108 -22 300 -31 129 -5 276 -13 325 -17 l90 -7 2 -507 c2 -471 1 -508 -15 -517 -19 -10 -478 0 -967 21 -411 18 -2706 18 -3065 0 -140 -6 -417 -17 -615 -23 -198 -6 -373 -12 -390 -13 l-30 -1 -3 514 c-1 283 1 518 6 523 11 11 249 27 512 34 306 8 432 35 524 113 57 48 106 197 106 321 0 81 -29 225 -69 350 -17 52 -52 160 -77 240 -26 80 -55 167 -65 194 -11 27 -19 55 -19 63 0 8 -8 35 -19 61 -10 26 -28 81 -41 122 -13 41 -31 98 -40 125 -26 74 -36 105 -92 275 -46 141 -61 184 -98 290 -7 19 -18 55 -26 80 -18 60 -43 135 -66 192 -10 26 -18 55 -18 65 0 10 -9 35 -20 56 -11 20 -20 44 -20 52 0 9 -18 35 -41 59 -77 84 -7 79 -1119 86 -542 4 -1300 4 -1685 0 -657 -6 -703 -8 -749 -26 -61 -24 -131 -100 -147 -157 -6 -23 -14 -46 -19 -52 -4 -5 -14 -32 -23 -60 -8 -27 -34 -102 -57 -165 -23 -63 -49 -133 -57 -155 -7 -22 -20 -54 -28 -72 -8 -17 -15 -37 -15 -45 0 -7 -7 -26 -15 -41 -8 -15 -19 -42 -24 -60 -5 -18 -21 -63 -36 -102 -15 -38 -33 -90 -41 -115 -8 -25 -18 -54 -24 -65 -5 -11 -18 -45 -28 -75 -10 -30 -48 -143 -85 -250 -36 -107 -70 -211 -75 -230 -6 -19 -15 -48 -20 -65 -6 -16 -20 -73 -31 -125 -11 -52 -30 -138 -42 -190 -31 -134 -31 -293 0 -376 43 -114 73 -165 119 -200 25 -19 52 -34 60 -34 9 0 23 -6 31 -14 23 -20 169 -56 296 -73 61 -8 209 -17 330 -21 l220 -7 0 -525 0 -525 -60 0 c-33 0 -136 6 -230 13 -93 7 -278 17 -410 22 -132 6 -328 15 -435 21 -257 15 -1945 15 -2180 0 -96 -6 -283 -16 -415 -22 -132 -6 -328 -19 -435 -29 -107 -10 -198 -16 -201 -14 -21 13 -32 862 -12 999 l8 60 45 7 c25 3 152 11 283 17 186 8 256 15 315 31 172 47 249 83 387 181 182 130 270 253 469 653 80 162 146 296 146 299 0 4 53 118 135 292 49 103 105 226 105 229 0 4 53 123 90 201 69 147 90 194 90 199 0 4 10 28 21 54 39 86 57 126 109 247 28 66 58 135 66 152 34 79 45 104 89 208 26 61 55 128 65 150 10 22 37 85 60 140 23 55 50 118 60 140 11 22 38 85 60 140 23 55 50 118 60 140 10 22 37 85 60 140 23 55 47 114 55 130 7 17 25 59 40 95 15 36 35 83 45 105 10 22 30 69 45 105 14 36 30 74 35 85 17 39 68 161 104 250 21 50 45 108 56 130 10 22 28 65 40 95 12 30 30 73 41 95 10 22 30 71 45 110 27 70 45 116 70 170 7 17 25 59 39 95 14 36 34 83 45 105 18 38 68 161 95 235 8 19 20 49 29 65 9 17 16 34 16 38 0 5 6 23 14 40 30 66 58 134 82 197 14 36 31 79 39 95 16 34 39 89 66 158 49 121 59 148 93 232 20 50 41 99 46 110 10 21 58 140 109 270 18 44 38 94 46 110 8 17 28 66 45 110 17 44 37 94 45 110 8 17 26 61 41 100 14 38 32 83 40 100 12 27 47 115 94 235 47 120 82 208 94 235 8 17 26 62 40 100 15 39 33 84 40 100 8 17 26 62 40 100 15 39 33 84 40 100 8 17 26 62 40 100 15 39 33 84 41 100 8 17 26 62 40 100 14 39 32 84 39 100 8 17 25 61 40 98 14 37 38 97 52 134 15 37 32 81 40 98 7 16 25 62 39 100 14 39 32 84 40 100 7 17 24 57 36 90 12 33 30 78 39 100 10 22 27 67 40 100 12 33 30 80 40 105 10 25 40 99 65 165 26 66 53 134 61 152 8 17 14 37 14 45 0 7 9 27 20 43 11 17 20 37 20 45 0 8 9 33 20 55 11 22 19 46 20 53 0 8 7 26 15 40 8 15 26 59 41 97 36 95 55 137 70 155 11 13 140 15 1053 15 912 0 1042 -2 1055 -15z"/>
<path d="M6244 9144 c-4 -10 -27 -64 -51 -119 -23 -55 -43 -104 -43 -110 -1 -5 -9 -28 -20 -50 -11 -22 -19 -46 -20 -52 0 -7 -9 -32 -19 -55 -31 -71 -57 -135 -121 -303 -34 -88 -68 -173 -75 -190 -8 -16 -26 -61 -40 -100 -14 -38 -35 -88 -46 -111 -10 -23 -19 -44 -19 -47 0 -7 -84 -225 -104 -272 -8 -16 -26 -61 -40 -100 -15 -38 -34 -84 -42 -102 -8 -17 -14 -36 -14 -42 0 -6 -9 -30 -19 -53 -28 -63 -56 -134 -86 -213 -14 -38 -30 -79 -35 -90 -5 -11 -21 -51 -35 -90 -14 -38 -32 -83 -40 -100 -8 -16 -26 -61 -40 -100 -14 -38 -35 -88 -46 -111 -10 -23 -19 -45 -19 -50 0 -6 -16 -48 -36 -94 -20 -47 -40 -99 -45 -117 -5 -18 -16 -45 -24 -60 -8 -15 -15 -32 -15 -36 0 -5 -6 -23 -14 -40 -8 -18 -26 -63 -41 -102 -14 -38 -35 -90 -45 -115 -10 -25 -40 -99 -65 -165 -25 -66 -50 -129 -55 -140 -6 -11 -17 -39 -25 -63 -13 -39 -13 -43 2 -49 9 -3 579 -3 1267 0 1054 6 1253 9 1264 21 12 12 11 23 -7 77 -11 35 -21 72 -21 84 0 11 -7 30 -15 41 -8 12 -19 39 -24 60 -5 22 -24 77 -41 124 -17 47 -35 99 -40 115 -8 29 -180 533 -261 765 -22 63 -46 135 -54 160 -27 87 -47 145 -66 192 -10 26 -19 55 -19 65 0 10 -6 28 -14 39 -8 11 -18 38 -22 60 -4 21 -15 55 -25 74 -11 19 -19 43 -19 53 0 10 -7 32 -16 49 -9 17 -22 51 -29 77 -7 25 -22 71 -33 101 -59 160 -146 411 -158 454 -7 26 -18 53 -22 60 -5 6 -16 34 -25 61 -8 28 -27 82 -42 120 -14 39 -31 86 -37 105 -5 19 -13 40 -18 45 -4 6 -12 28 -18 50 -6 22 -23 72 -37 110 -32 84 -57 153 -80 220 -10 28 -24 56 -31 64 -11 13 -14 12 -20 -5z m31 -911 c3 -19 14 -54 24 -77 10 -22 24 -57 30 -76 7 -19 31 -84 53 -145 22 -60 46 -129 53 -152 8 -23 19 -52 26 -65 7 -12 16 -36 20 -53 4 -16 29 -88 54 -160 26 -71 53 -148 60 -170 8 -22 53 -152 100 -290 48 -137 93 -270 101 -295 7 -25 21 -67 30 -95 10 -27 25 -72 35 -100 9 -27 22 -66 29 -85 7 -19 18 -55 26 -80 8 -25 38 -117 68 -205 36 -108 50 -164 44 -172 -7 -9 -206 -12 -849 -13 -745 0 -840 1 -845 15 -4 8 -1 22 6 30 7 9 27 57 45 108 18 52 37 102 43 113 5 10 29 69 51 129 23 61 49 126 58 145 8 19 28 71 45 115 16 44 63 164 104 267 41 103 74 190 74 194 0 4 9 25 19 48 11 23 31 73 46 111 14 39 32 84 39 100 11 25 61 151 203 515 14 36 29 74 34 85 44 107 109 279 109 289 0 7 5 17 12 24 17 17 44 -11 53 -55z"/>
</g>
</g>
</svg>
