<?xml version="1.0" standalone="no"?>
<!DOCTYPE svg PUBLIC "-//W3C//DTD SVG 1.1//EN"
 "http://www.w3.org/Graphics/SVG/1.1/DTD/svg11.dtd">
<!-- Created with svg_stack (http://github.com/astraw/svg_stack) -->
<svg xmlns:sodipodi="http://sodipodi.sourceforge.net/DTD/sodipodi-0.dtd" xmlns="http://www.w3.org/2000/svg" version="1.1" width="13158.0" height="2400.0">
  <defs/>
  <g id="id0:id0" transform="matrix(1.25,0,0,1.25,0.0,0.0)"><g transform="translate(0.000000,1920.000000) scale(0.040000,-0.040000)" fill="#ff0000" stroke="none">
<path d="M18665 47991 c-6 -6 -82 -11 -170 -11 -166 -2 -653 -26 -692 -35 -13 -3 -71 -8 -130 -11 -60 -2 -180 -12 -268 -20 -88 -8 -185 -17 -215 -19 -115 -8 -207 -17 -265 -25 -33 -5 -94 -12 -135 -15 -41 -3 -127 -13 -190 -21 -63 -8 -167 -21 -230 -29 -399 -49 -1043 -145 -1175 -174 -22 -5 -74 -15 -115 -21 -41 -6 -106 -17 -145 -25 -38 -8 -122 -24 -185 -36 -63 -11 -180 -34 -260 -51 -80 -17 -197 -41 -260 -54 -63 -13 -142 -30 -175 -38 -33 -7 -94 -21 -135 -30 -305 -68 -988 -247 -1280 -336 -52 -16 -171 -52 -265 -80 -353 -106 -1134 -378 -1360 -474 -60 -25 -158 -64 -290 -116 -227 -89 -632 -270 -961 -429 -974 -470 -1774 -949 -2584 -1550 -928 -688 -1779 -1502 -2471 -2366 -784 -976 -1410 -2040 -1909 -3240 -182 -438 -396 -1061 -530 -1540 -23 -82 -50 -179 -60 -215 -18 -62 -119 -476 -154 -628 -26 -112 -102 -491 -126 -627 -12 -66 -28 -154 -36 -195 -8 -41 -19 -104 -24 -140 -4 -36 -20 -144 -35 -240 -48 -316 -118 -909 -131 -1117 -7 -117 -9 -139 -23 -308 -7 -71 -14 -193 -17 -270 -12 -312 -14 -363 -20 -431 -4 -45 -3 -74 4 -78 10 -6 11912 -9 11918 -3 2 1 6 70 10 152 11 268 37 544 64 690 5 28 19 102 31 165 55 297 162 651 290 965 36 87 200 416 262 525 339 596 863 1172 1470 1618 748 549 1718 957 2665 1123 28 5 78 14 110 19 183 33 264 42 547 64 121 9 270 21 330 27 106 10 675 7 795 -5 30 -2 125 -8 210 -11 425 -18 806 -59 1122 -120 339 -66 441 -89 659 -151 811 -229 1439 -580 1930 -1080 372 -380 612 -768 788 -1279 91 -264 140 -473 188 -805 23 -162 26 -218 27 -450 0 -146 -3 -283 -6 -305 -4 -22 -14 -89 -22 -150 -86 -619 -291 -1142 -621 -1583 -102 -138 -358 -399 -502 -513 -512 -406 -1116 -663 -2008 -853 -38 -9 -97 -20 -130 -25 -33 -6 -87 -15 -120 -21 -33 -6 -108 -17 -168 -25 -59 -8 -111 -16 -115 -19 -4 -2 -86 -12 -182 -21 -96 -8 -182 -18 -190 -21 -8 -3 -121 -12 -250 -20 -129 -8 -260 -18 -290 -21 -30 -3 -1110 -8 -2400 -12 -1290 -3 -2351 -10 -2357 -14 -19 -12 -19 -8250 0 -8265 9 -8 606 -12 2017 -16 1103 -2 2030 -7 2060 -10 139 -13 173 -17 290 -30 69 -8 168 -21 220 -30 52 -9 122 -21 155 -27 33 -5 80 -14 105 -19 25 -6 90 -20 145 -31 696 -149 1392 -438 1946 -810 369 -247 740 -591 985 -914 166 -219 350 -533 446 -760 92 -217 222 -652 243 -810 4 -27 11 -66 16 -85 7 -31 27 -202 47 -410 13 -139 6 -714 -11 -900 -48 -509 -120 -866 -254 -1260 -435 -1277 -1416 -2207 -2815 -2671 -261 -86 -527 -155 -783 -203 -77 -14 -162 -30 -190 -36 -151 -28 -374 -55 -740 -87 -163 -14 -761 -8 -940 9 -93 10 -203 20 -244 23 -41 3 -84 8 -95 10 -12 3 -75 12 -141 20 -259 30 -715 119 -960 186 -244 66 -514 153 -715 228 -88 33 -102 39 -285 117 -115 49 -549 266 -575 288 -8 7 -64 41 -125 76 -60 34 -121 71 -135 82 -14 10 -70 48 -125 85 -563 375 -1121 939 -1520 1535 -52 79 -102 153 -111 166 -37 55 -167 278 -242 417 -312 580 -576 1316 -745 2080 -57 255 -98 487 -137 765 -23 158 -25 174 -34 270 -4 36 -12 103 -17 150 -13 108 -15 127 -23 230 -28 374 -40 599 -42 806 -2 135 -8 254 -14 269 -9 24 -14 27 -41 21 -18 -3 -2796 -6 -6175 -6 l-6144 0 0 -504 c0 -326 4 -507 10 -511 6 -3 10 -40 10 -81 0 -125 30 -586 41 -636 6 -26 9 -51 6 -55 -7 -11 20 -353 32 -418 5 -27 10 -77 11 -110 0 -33 8 -109 16 -170 8 -60 19 -159 24 -220 6 -60 13 -123 16 -138 7 -35 11 -65 19 -142 3 -33 10 -86 16 -118 6 -32 16 -107 24 -165 16 -123 55 -373 85 -547 11 -66 25 -147 31 -180 12 -75 54 -297 73 -390 8 -38 31 -149 51 -245 43 -208 83 -384 156 -687 102 -425 294 -1081 452 -1548 72 -211 202 -568 242 -666 15 -35 38 -95 52 -134 26 -71 47 -122 180 -435 428 -1004 964 -1981 1546 -2815 174 -249 391 -540 567 -758 74 -93 146 -183 160 -200 77 -99 398 -465 560 -640 304 -328 905 -908 1116 -1079 23 -18 132 -109 243 -201 220 -184 229 -191 506 -401 321 -242 771 -553 1056 -730 105 -65 532 -321 559 -334 14 -7 72 -40 130 -72 288 -164 807 -427 1185 -602 202 -93 720 -313 870 -368 28 -10 97 -37 155 -60 411 -161 1316 -462 1625 -540 17 -4 147 -39 290 -78 143 -39 316 -84 385 -101 265 -64 379 -91 495 -116 66 -14 149 -32 184 -41 35 -8 100 -22 145 -30 45 -9 122 -24 171 -34 173 -35 241 -48 415 -80 96 -18 200 -36 230 -41 30 -4 82 -13 115 -19 33 -6 85 -15 115 -19 30 -5 147 -23 260 -41 234 -36 454 -66 585 -80 50 -6 113 -14 140 -20 44 -8 244 -31 315 -35 14 -1 41 -5 60 -8 19 -4 91 -12 160 -18 165 -14 181 -16 280 -28 47 -6 130 -13 185 -17 138 -8 175 -11 290 -23 55 -5 159 -13 230 -17 72 -3 148 -8 170 -9 131 -11 392 -26 530 -31 88 -3 214 -7 280 -10 535 -22 790 -25 1765 -20 591 4 1147 11 1235 16 88 6 219 12 290 14 193 6 538 26 555 33 8 3 67 7 130 9 63 2 189 11 280 20 91 8 199 17 240 20 41 3 136 12 210 21 74 8 164 17 200 19 36 3 99 9 140 15 41 5 91 11 110 13 201 19 277 28 290 31 9 3 85 14 170 24 303 39 737 103 955 141 33 6 87 15 120 20 33 5 123 21 200 35 77 14 176 32 220 40 73 13 330 64 580 115 55 11 127 27 160 35 33 8 103 24 155 35 52 12 136 31 185 42 112 26 642 159 750 188 44 12 97 26 118 31 20 5 77 21 125 35 48 14 112 33 142 41 30 8 107 30 170 49 63 19 153 46 200 60 47 14 256 81 465 150 394 129 823 282 1075 384 30 13 82 33 115 45 33 13 125 50 205 83 80 33 188 78 240 100 306 126 756 338 1190 559 1625 826 3013 1846 4132 3036 311 332 652 743 915 1103 208 285 512 750 639 979 6 11 37 67 69 125 32 58 69 125 83 150 32 59 212 420 267 535 45 96 221 511 280 659 12 31 18 37 28 27 9 -9 13 -875 15 -4043 1 -2217 4 -4033 5 -4035 2 -2 2685 -3 5962 -3 4777 0 5960 2 5967 12 4 7 8 6000 8 13317 0 8565 3 13308 10 13315 6 6 11 4 14 -5 9 -23 63 -228 86 -324 11 -49 50 -208 86 -352 35 -145 93 -381 128 -525 36 -145 99 -402 141 -573 84 -343 173 -704 264 -1075 97 -395 187 -764 267 -1090 41 -168 102 -413 134 -545 235 -958 317 -1293 390 -1590 73 -297 155 -632 390 -1590 32 -132 93 -377 134 -545 41 -168 105 -426 141 -575 36 -148 95 -387 130 -530 35 -143 93 -379 129 -525 36 -146 96 -393 135 -550 38 -157 97 -395 130 -530 33 -135 91 -373 130 -530 38 -157 100 -406 136 -555 61 -251 103 -420 270 -1100 35 -143 93 -380 129 -528 112 -455 194 -790 267 -1087 39 -157 97 -395 130 -530 33 -135 91 -371 129 -525 38 -154 96 -390 129 -525 33 -135 94 -382 135 -550 41 -168 102 -417 136 -555 63 -258 140 -572 261 -1065 175 -713 212 -861 269 -1095 58 -236 86 -351 259 -1057 39 -159 103 -417 142 -575 171 -700 201 -822 258 -1053 97 -395 187 -764 267 -1090 41 -168 102 -413 134 -545 32 -132 88 -359 124 -505 117 -479 196 -801 271 -1105 41 -165 104 -421 140 -570 127 -522 137 -560 144 -567 11 -12 10664 -10 10671 2 7 12 95 366 446 1790 261 1057 400 1622 514 2083 84 341 170 691 346 1407 72 294 130 525 359 1455 58 237 140 567 181 735 41 168 113 458 159 645 46 187 123 498 170 690 47 193 129 523 181 735 96 385 178 719 339 1375 85 345 161 654 370 1500 58 237 140 567 181 735 41 168 113 458 159 645 46 187 123 498 170 690 47 193 129 523 181 735 96 385 178 719 339 1375 85 345 161 654 370 1500 58 237 140 567 181 735 41 168 113 458 159 645 46 187 123 498 170 690 47 193 129 523 181 735 91 368 161 651 334 1355 105 426 245 995 375 1520 58 237 140 567 181 735 41 168 113 458 159 645 46 187 120 489 165 670 45 182 104 420 132 530 28 110 54 214 57 230 4 17 11 30 16 30 7 0 11 -4829 13 -13323 l2 -13322 26 -10 c35 -14 12103 -14 12138 0 l26 9 0 21299 c0 16541 -3 21301 -12 21310 -9 9 -2027 12 -9000 12 l-8987 0 -10 -17 c-8 -17 -43 -155 -207 -823 -36 -146 -101 -409 -144 -585 -104 -423 -227 -923 -300 -1220 -32 -132 -95 -386 -139 -565 -44 -179 -117 -473 -161 -655 -45 -181 -110 -447 -145 -590 -35 -143 -96 -388 -134 -545 -38 -157 -106 -431 -150 -610 -82 -334 -140 -571 -445 -1810 -41 -168 -109 -444 -151 -615 -99 -403 -197 -802 -295 -1200 -44 -176 -113 -459 -155 -630 -42 -170 -105 -427 -140 -570 -62 -254 -149 -608 -301 -1225 -41 -168 -104 -422 -139 -565 -35 -143 -98 -397 -139 -565 -41 -168 -114 -462 -161 -655 -47 -192 -115 -467 -150 -610 -35 -143 -96 -388 -134 -545 -82 -336 -191 -779 -297 -1207 -177 -722 -329 -1338 -440 -1793 -36 -146 -101 -409 -144 -585 -44 -176 -113 -459 -155 -630 -145 -593 -207 -842 -285 -1160 -44 -176 -116 -468 -160 -650 -45 -181 -110 -447 -145 -590 -35 -143 -96 -388 -134 -545 -98 -398 -219 -891 -306 -1245 -41 -165 -104 -421 -140 -570 -70 -286 -216 -880 -266 -1079 -29 -118 -45 -155 -60 -139 -7 8 -39 136 -234 928 -47 193 -124 503 -170 690 -46 187 -124 504 -174 705 -123 499 -256 1039 -356 1445 -46 187 -123 498 -170 690 -118 478 -249 1009 -355 1440 -49 198 -128 518 -175 710 -47 193 -126 512 -175 710 -49 198 -128 518 -175 710 -47 193 -129 523 -181 735 -52 212 -131 531 -175 710 -81 329 -184 744 -348 1410 -49 201 -129 523 -176 715 -47 193 -127 514 -176 715 -50 201 -128 518 -174 705 -46 187 -127 516 -180 730 -116 470 -234 949 -350 1420 -232 942 -327 1326 -531 2155 -105 426 -207 837 -343 1393 -117 471 -248 1002 -360 1460 -50 199 -126 511 -171 692 -45 182 -122 494 -171 695 -50 201 -128 518 -174 705 -46 187 -127 516 -180 730 -53 215 -134 543 -180 730 -220 893 -258 1041 -267 1052 -15 19 -17723 19 -17735 0 -4 -6 -10 -2032 -13 -4502 -3 -2988 -8 -4488 -15 -4485 -5 3 -34 84 -63 180 -140 467 -312 952 -457 1290 -20 47 -42 101 -49 120 -69 184 -388 839 -560 1147 -55 101 -108 195 -116 210 -162 293 -497 800 -754 1142 -39 52 -80 106 -90 120 -11 14 -54 69 -95 121 -620 782 -1348 1495 -2132 2088 -106 80 -350 261 -389 287 -74 51 -574 383 -612 407 -276 170 -580 347 -768 446 -47 24 -103 55 -125 67 -48 27 -589 297 -695 347 -158 75 -231 108 -235 108 -2 0 -66 28 -142 61 -212 95 -803 333 -958 388 -33 11 -91 32 -130 46 -104 39 -737 250 -835 279 -47 14 -159 47 -250 75 -320 96 -857 239 -1105 296 -33 7 -141 32 -240 55 -99 22 -220 49 -270 60 -221 46 -547 112 -620 125 -44 8 -143 26 -220 40 -77 14 -167 30 -200 35 -33 5 -87 14 -120 20 -33 6 -87 15 -120 20 -33 5 -87 14 -120 20 -33 6 -107 17 -165 26 -58 8 -166 24 -240 34 -282 41 -636 87 -725 94 -22 2 -51 6 -65 10 -14 3 -81 11 -150 17 -153 15 -163 16 -275 29 -49 5 -117 12 -150 14 -33 2 -127 11 -210 20 -82 8 -195 18 -250 20 -56 3 -107 7 -115 10 -16 5 -272 24 -420 31 -47 2 -179 11 -295 19 -115 9 -349 19 -520 22 -170 3 -314 10 -319 15 -14 12 -2169 12 -2181 0z m18605 -20521 c0 -3080 -4 -5158 -9 -5163 -6 -6 -13 -2 -19 9 -6 11 -22 42 -37 69 -15 28 -53 100 -85 160 -343 657 -704 1224 -1155 1814 -522 683 -1192 1350 -1845 1837 -161 120 -227 167 -351 249 -75 49 -156 102 -180 116 -24 15 -77 48 -117 73 -41 25 -77 46 -82 46 -4 0 -18 8 -31 18 -30 24 -188 111 -349 192 -106 54 -340 159 -445 200 -72 28 -90 45 -58 56 37 13 721 356 823 412 143 79 154 86 337 196 348 209 781 526 1099 805 157 137 472 454 610 612 475 546 835 1096 1199 1834 226 459 444 980 620 1485 50 144 55 154 65 144 7 -7 10 -1867 10 -5164z"/>
</g>
</g>
  <g id="id1:id1" transform="matrix(1.25,0,0,1.25,0.0,0.0)"><g transform="translate(0.000000,1920.000000) scale(0.040000,-0.040000)" fill="#000000" stroke="none">
<path d="M127690 47329 c-451 -29 -905 -235 -1228 -558 -485 -485 -681 -1195 -513 -1853 117 -459 423 -876 831 -1133 304 -192 624 -290 985 -302 106 -3 198 -1 245 6 41 7 104 16 140 21 197 28 452 123 667 248 416 243 747 687 862 1157 46 191 54 250 56 425 4 262 -20 432 -92 659 -48 153 -172 400 -269 536 -201 283 -502 523 -809 645 -44 17 -93 37 -110 44 -94 41 -356 94 -495 102 -52 3 -108 6 -125 7 -16 2 -82 0 -145 -4z"/>
<path d="M104765 47040 c-106 -10 -192 -18 -255 -24 -25 -3 -72 -8 -105 -11 -33 -3 -98 -13 -145 -21 -47 -8 -114 -19 -150 -25 -224 -37 -335 -62 -645 -144 -90 -24 -354 -109 -494 -159 -223 -81 -650 -281 -901 -423 -465 -263 -951 -647 -1313 -1038 -365 -394 -627 -775 -858 -1250 -254 -523 -382 -975 -460 -1630 -13 -108 -13 -829 0 -935 41 -336 50 -392 92 -585 256 -1175 948 -2145 2015 -2823 168 -107 247 -151 504 -281 295 -149 640 -289 940 -380 74 -22 156 -48 182 -56 141 -46 469 -121 983 -224 193 -39 564 -114 825 -167 261 -53 504 -102 540 -109 115 -22 233 -46 300 -60 36 -8 90 -19 120 -24 731 -133 1281 -392 1650 -777 241 -251 385 -522 455 -860 25 -114 28 -151 28 -324 0 -220 -11 -323 -53 -491 -176 -699 -745 -1209 -1585 -1422 -181 -46 -225 -55 -490 -93 -116 -17 -391 -25 -665 -19 -173 3 -331 8 -350 10 -456 51 -828 141 -1163 279 -549 228 -982 570 -1358 1073 -82 111 -235 377 -297 518 -118 269 -197 515 -247 775 -14 74 -30 155 -35 180 -5 25 -14 92 -19 148 -5 57 -12 106 -14 108 -3 3 -47 -6 -98 -20 -52 -14 -128 -35 -169 -46 -71 -18 -1195 -316 -1365 -361 -44 -12 -109 -29 -145 -39 -110 -30 -211 -57 -300 -80 -151 -40 -228 -60 -302 -80 -165 -44 -534 -142 -548 -145 -8 -2 -27 -6 -42 -9 -34 -8 -42 -41 -29 -126 44 -291 50 -319 113 -585 82 -344 178 -627 331 -975 50 -115 232 -474 258 -512 10 -14 19 -29 19 -31 0 -13 173 -283 264 -412 368 -524 812 -972 1338 -1349 137 -98 324 -218 463 -298 60 -35 117 -67 127 -73 9 -5 94 -50 190 -98 402 -206 904 -393 1343 -501 309 -77 350 -86 371 -86 11 0 46 -7 79 -15 66 -18 72 -19 410 -69 132 -19 272 -37 310 -40 39 -3 144 -12 233 -20 201 -19 1177 -23 1367 -6 264 24 600 66 715 90 25 6 117 24 205 41 88 17 212 45 275 61 63 16 133 34 155 39 70 17 361 108 457 144 193 71 284 106 313 120 17 8 77 35 135 61 1242 553 2194 1490 2702 2659 190 438 305 860 370 1355 20 156 23 216 23 545 -1 248 -5 398 -14 455 -7 47 -14 105 -17 130 -6 70 -14 128 -30 215 -91 501 -204 842 -426 1285 -389 778 -1013 1439 -1828 1934 -199 122 -440 247 -715 371 -371 168 -936 349 -1385 444 -58 12 -136 29 -175 37 -75 16 -442 87 -565 109 -41 7 -122 23 -180 34 -58 12 -132 26 -165 31 -33 6 -91 17 -130 25 -38 9 -176 35 -305 60 -129 24 -262 49 -295 56 -33 6 -91 17 -130 24 -38 7 -106 20 -150 28 -44 9 -174 35 -290 57 -289 56 -425 90 -598 150 -515 178 -904 485 -1124 888 -52 94 -127 294 -152 405 -76 332 -60 692 46 1005 139 416 434 787 841 1061 89 60 207 128 272 157 19 9 62 29 95 45 220 106 568 200 865 235 327 38 493 38 865 -1 538 -55 995 -218 1420 -505 224 -152 513 -447 671 -685 215 -323 346 -629 435 -1015 13 -52 23 -96 25 -98 4 -6 288 80 1339 403 177 54 239 73 360 109 50 15 146 44 215 66 69 22 310 96 535 165 226 69 420 129 433 135 29 12 28 34 -4 173 -142 624 -412 1246 -773 1782 -387 575 -871 1044 -1484 1437 -184 118 -540 303 -767 398 -154 65 -369 147 -432 165 -25 7 -51 16 -58 20 -6 4 -50 18 -98 31 -48 13 -109 31 -137 39 -166 48 -550 135 -690 155 -33 5 -87 14 -120 20 -124 23 -387 56 -515 65 -41 3 -115 10 -165 15 -114 13 -980 21 -1100 10z"/>
<path d="M118498 41985 c-3 -4 -93 -11 -200 -15 -106 -5 -242 -16 -303 -25 -447 -64 -458 -66 -790 -147 -632 -154 -1246 -422 -1795 -783 -655 -431 -1214 -994 -1645 -1655 -261 -400 -502 -898 -655 -1355 -157 -467 -240 -855 -310 -1450 -34 -287 -34 -1018 0 -1325 18 -155 21 -184 36 -290 43 -314 98 -568 190 -885 254 -878 708 -1694 1310 -2349 489 -534 1045 -952 1701 -1280 364 -182 635 -287 1058 -411 266 -78 696 -163 960 -191 39 -4 84 -9 100 -11 17 -2 59 -5 95 -8 35 -2 71 -7 79 -10 27 -11 955 -6 1076 5 663 62 1239 203 1800 438 177 74 488 233 655 333 436 264 832 584 1150 933 323 354 529 645 780 1101 103 187 242 512 320 749 100 302 99 297 93 312 -6 15 -2704 917 -2730 912 -13 -2 -32 -42 -69 -148 -104 -300 -264 -587 -459 -825 -110 -134 -338 -353 -463 -445 -167 -123 -410 -258 -562 -312 -281 -101 -408 -134 -630 -164 -63 -9 -128 -18 -145 -21 -59 -10 -531 -13 -580 -4 -27 6 -95 15 -150 21 -384 45 -786 187 -1130 399 -243 149 -551 428 -719 649 -401 529 -627 1188 -660 1927 -2 44 -7 115 -11 158 -5 47 -3 130 3 205 7 70 19 213 27 317 9 105 20 208 25 230 5 22 21 101 35 175 73 372 225 761 415 1062 469 741 1219 1195 2105 1274 88 8 221 14 295 14 124 0 458 -22 505 -34 11 -2 49 -10 85 -17 206 -37 434 -111 617 -199 219 -104 412 -239 592 -414 211 -205 372 -422 506 -678 66 -127 170 -377 200 -483 26 -89 33 -105 49 -105 24 0 2760 922 2774 934 10 10 4 40 -27 152 -180 634 -511 1270 -933 1789 -309 379 -630 675 -1063 981 -38 27 -84 58 -102 69 -125 77 -276 167 -318 190 -79 44 -359 185 -367 185 -5 0 -36 13 -70 29 -224 105 -569 224 -853 296 -198 50 -280 67 -545 115 -85 15 -435 58 -530 66 -198 15 -812 29 -822 19z"/>
<path d="M137118 41980 c-15 -4 -73 -8 -130 -9 -57 0 -157 -7 -223 -16 -66 -9 -156 -20 -200 -26 -44 -5 -111 -16 -150 -24 -38 -8 -92 -19 -120 -24 -598 -109 -1278 -378 -1840 -725 -587 -363 -1114 -844 -1528 -1394 -80 -106 -220 -306 -253 -362 -12 -19 -58 -95 -102 -169 -89 -147 -273 -504 -347 -676 -160 -369 -262 -688 -370 -1148 -18 -80 -60 -311 -69 -382 -4 -27 -11 -70 -16 -95 -11 -50 -34 -249 -50 -435 -24 -263 -10 -1209 20 -1335 4 -19 8 -57 9 -85 3 -123 87 -608 149 -860 123 -499 311 -997 532 -1410 154 -288 386 -649 535 -830 196 -238 261 -312 410 -464 149 -152 284 -276 460 -425 143 -120 472 -350 662 -462 432 -256 909 -462 1378 -597 132 -38 387 -102 450 -112 22 -4 65 -13 95 -20 67 -17 304 -54 420 -66 47 -5 101 -11 120 -14 170 -21 274 -25 685 -25 259 -1 513 4 565 9 52 6 140 15 195 21 375 40 844 142 1210 265 1188 397 2140 1151 2762 2190 53 89 77 130 137 240 61 112 175 368 249 560 38 98 117 337 117 353 0 11 -54 30 -235 82 -60 18 -130 39 -155 47 -25 8 -90 27 -145 43 -55 16 -320 95 -590 175 -269 80 -537 159 -595 176 -58 17 -131 40 -164 51 -32 10 -97 30 -145 43 -47 13 -192 56 -321 94 -129 39 -241 69 -250 66 -8 -3 -33 -49 -54 -103 -41 -102 -139 -308 -180 -379 -130 -221 -246 -373 -411 -538 -405 -405 -933 -639 -1580 -700 -284 -27 -742 -14 -935 25 -458 94 -776 219 -1112 436 -297 192 -571 458 -770 749 -109 160 -218 363 -270 505 -100 273 -137 417 -164 640 -17 145 -18 199 -1 205 6 3 1850 6 4096 8 l4084 2 12 36 c7 20 15 92 19 160 3 68 10 176 16 239 35 407 14 1143 -45 1590 -33 241 -60 416 -80 500 -8 36 -19 93 -25 128 -24 138 -125 508 -200 735 -266 796 -692 1502 -1234 2042 -114 114 -340 310 -462 402 -188 141 -272 201 -346 243 -16 8 -61 35 -100 60 -80 49 -78 48 -193 110 -202 109 -394 197 -600 275 -55 21 -127 48 -160 61 -33 12 -98 34 -145 48 -47 13 -130 38 -185 54 -419 125 -1012 220 -1475 238 -241 9 -637 12 -662 4z m677 -2555 c464 -52 870 -188 1188 -399 312 -208 570 -499 726 -821 29 -61 59 -121 66 -135 17 -34 99 -289 118 -370 42 -174 78 -473 60 -491 -5 -5 -1102 -9 -2548 -9 -2066 0 -2540 2 -2546 13 -13 23 26 264 67 409 117 421 330 784 637 1088 198 197 438 370 647 466 30 14 63 29 72 34 28 16 189 77 273 104 191 62 358 94 645 120 53 5 537 -3 595 -9z"/>
<path d="M163325 41980 c-22 -4 -87 -8 -145 -9 -58 0 -143 -6 -190 -11 -47 -6 -103 -12 -125 -14 -93 -10 -223 -27 -270 -36 -27 -6 -102 -19 -165 -30 -386 -69 -959 -242 -1255 -380 -22 -10 -105 -49 -185 -85 -443 -204 -871 -478 -1270 -814 -704 -592 -1279 -1394 -1628 -2271 -103 -258 -141 -370 -236 -705 -34 -118 -90 -369 -112 -495 -8 -47 -19 -110 -24 -140 -11 -59 -57 -422 -58 -455 0 -11 -3 -49 -6 -85 -33 -353 -34 -744 -2 -1115 2 -22 9 -101 15 -175 7 -74 16 -151 21 -170 5 -19 12 -62 15 -95 25 -238 119 -639 245 -1050 37 -119 174 -469 237 -605 230 -494 510 -944 807 -1299 39 -47 95 -114 125 -150 77 -94 438 -452 556 -552 333 -282 632 -492 980 -686 115 -64 385 -199 495 -247 47 -21 99 -44 115 -52 53 -25 261 -102 397 -148 315 -106 661 -192 948 -236 69 -11 150 -24 180 -30 30 -6 82 -13 115 -16 33 -3 76 -7 95 -9 162 -20 305 -25 700 -25 393 -1 482 2 655 20 616 64 1167 201 1692 419 113 47 456 215 576 283 88 49 265 164 494 319 235 160 657 550 885 819 339 400 615 839 814 1295 111 255 260 688 248 720 -3 8 -549 195 -1347 461 -738 246 -1350 451 -1359 455 -22 12 -43 -9 -58 -58 -122 -379 -318 -724 -573 -1011 -219 -246 -512 -467 -786 -594 -47 -22 -95 -44 -105 -50 -31 -16 -233 -84 -331 -111 -167 -46 -209 -54 -490 -92 -262 -35 -678 -10 -1000 60 -149 32 -465 137 -553 184 -9 5 -39 20 -67 32 -27 12 -86 43 -130 67 -764 429 -1277 1188 -1439 2127 -38 218 -40 240 -54 528 -49 979 197 1827 710 2442 162 195 375 388 558 507 167 108 187 120 315 183 387 190 748 276 1215 292 169 6 450 -8 563 -27 230 -39 234 -40 447 -107 135 -42 174 -58 335 -139 468 -234 837 -623 1092 -1151 72 -148 90 -193 149 -363 25 -74 51 -138 57 -142 6 -4 20 -2 31 5 12 6 260 91 551 188 292 98 805 270 1140 383 336 113 707 237 825 276 118 39 220 78 227 86 13 18 -9 109 -78 321 -351 1081 -1054 2005 -2012 2646 -427 285 -1023 556 -1510 686 -199 53 -341 88 -387 96 -25 4 -70 13 -100 20 -78 20 -375 65 -520 80 -25 3 -89 9 -143 15 -194 20 -839 35 -912 20z"/>
<path d="M175690 41980 c-25 -5 -85 -9 -135 -10 -78 -1 -144 -7 -280 -25 -16 -2 -68 -8 -115 -14 -47 -6 -95 -13 -108 -16 -13 -3 -62 -12 -110 -20 -48 -8 -105 -19 -127 -25 -22 -5 -98 -23 -170 -41 -306 -73 -637 -184 -900 -302 -151 -68 -506 -250 -620 -318 -817 -488 -1470 -1143 -1975 -1979 -87 -144 -315 -596 -375 -745 -69 -168 -77 -190 -140 -375 -71 -205 -135 -423 -166 -557 -57 -254 -101 -490 -120 -640 -6 -48 -12 -99 -14 -113 -19 -126 -25 -188 -29 -265 -3 -49 -10 -146 -15 -215 -6 -69 -10 -249 -10 -400 0 -151 4 -331 10 -400 5 -69 12 -165 15 -215 4 -90 10 -141 38 -370 16 -126 19 -146 67 -399 146 -786 445 -1536 874 -2191 303 -464 655 -858 1100 -1231 33 -27 72 -59 86 -70 14 -10 77 -58 140 -105 385 -291 851 -548 1346 -742 118 -47 436 -155 498 -170 11 -3 79 -20 150 -40 237 -63 395 -96 650 -136 114 -17 168 -24 300 -37 17 -2 71 -8 120 -14 120 -13 981 -14 1120 0 565 54 1026 151 1486 314 272 96 386 144 622 262 804 404 1438 962 1925 1692 246 369 439 764 583 1192 27 79 49 152 49 162 0 19 -61 41 -343 122 -84 25 -228 67 -322 95 -93 28 -262 79 -375 112 -113 33 -254 76 -315 94 -60 18 -211 63 -335 100 -424 125 -635 188 -778 232 -62 18 -121 32 -130 28 -10 -3 -29 -37 -46 -83 -66 -180 -220 -468 -343 -640 -193 -271 -461 -512 -758 -680 -223 -126 -540 -236 -815 -282 -221 -37 -370 -49 -635 -50 -375 -1 -649 39 -965 142 -449 146 -795 352 -1124 668 -321 309 -540 655 -680 1073 -64 192 -115 447 -119 599 l-2 98 4085 0 c3338 0 4089 2 4104 13 57 42 83 1269 35 1697 -5 52 -11 104 -11 115 -1 11 -9 88 -19 170 -120 1006 -408 1866 -870 2600 -417 662 -1000 1220 -1674 1601 -150 85 -421 219 -545 270 -36 14 -92 37 -125 50 -301 123 -783 255 -1170 320 -44 7 -107 18 -140 24 -71 12 -362 46 -489 56 -213 16 -800 26 -866 14z m685 -2555 c28 -2 79 -8 115 -15 36 -6 96 -15 133 -20 38 -5 72 -12 76 -14 4 -3 48 -14 97 -25 189 -41 468 -148 636 -243 305 -172 563 -416 750 -709 194 -304 322 -694 354 -1079 2 -30 7 -65 9 -76 3 -12 -1 -27 -9 -33 -9 -8 -694 -10 -2552 -9 l-2539 3 3 75 c8 234 149 660 308 930 190 322 458 605 775 818 341 229 788 374 1249 406 57 4 506 -3 595 -9z"/>
<path d="M151455 41929 c-346 -6 -396 -10 -680 -60 -203 -36 -531 -119 -645 -164 -19 -8 -89 -35 -155 -60 -136 -53 -161 -64 -336 -150 -399 -197 -761 -468 -1036 -776 -106 -119 -293 -364 -318 -417 -9 -18 -20 -30 -26 -27 -5 4 -9 263 -9 663 0 361 -3 667 -6 680 l-6 22 -1503 0 c-1246 0 -1504 -2 -1514 -13 -8 -10 -11 -1542 -11 -5740 0 -5197 1 -5727 16 -5741 14 -14 168 -16 1559 -16 l1544 0 11 19 c7 14 10 1096 10 3423 0 3644 -1 3515 49 3763 100 494 288 868 595 1184 185 190 440 364 638 436 357 131 537 160 926 151 130 -3 253 -7 272 -10 572 -78 982 -293 1290 -678 240 -299 384 -679 450 -1188 l20 -155 0 -3447 c0 -2181 4 -3456 10 -3472 l9 -26 1545 0 1545 0 11 20 c11 21 9 7599 -2 7675 -3 22 -9 81 -12 130 -4 50 -10 122 -15 160 -5 39 -16 125 -25 191 -39 306 -134 706 -243 1024 -126 367 -335 776 -547 1069 -448 620 -1026 1047 -1761 1301 -159 55 -438 127 -595 154 -52 10 -115 21 -140 26 -41 8 -105 16 -200 26 -293 30 -307 30 -715 23z"/>
<path d="M126276 41631 c-4 -5 -6 -2591 -6 -5747 0 -4569 3 -5739 13 -5746 6 -4 704 -8 1549 -8 l1537 0 11 19 c16 30 14 11463 -2 11479 -15 15 -3093 18 -3102 3z"/>
<path d="M185385 34224 c-440 -63 -773 -205 -1103 -469 -438 -352 -734 -913 -779 -1475 -43 -536 114 -1063 445 -1490 92 -118 279 -302 398 -391 327 -245 710 -392 1109 -424 22 -2 72 -6 110 -10 121 -13 384 16 585 64 287 68 617 232 861 429 149 120 354 353 456 517 224 363 336 779 320 1190 -7 182 -19 280 -51 416 -126 528 -442 983 -901 1293 -283 192 -613 311 -978 353 -115 13 -374 11 -472 -3z"/>
<path d="M152020 21627 c-3 -3 -47 -8 -99 -12 -162 -11 -416 -78 -581 -152 -654 -294 -1091 -916 -1148 -1633 -14 -187 -6 -337 29 -508 106 -521 408 -958 859 -1245 439 -279 972 -370 1475 -251 172 41 266 74 415 148 264 131 474 299 648 519 109 138 164 226 240 387 195 410 232 859 111 1315 -161 603 -581 1075 -1159 1302 -130 52 -365 110 -480 119 -117 9 -305 16 -310 11z"/>
<path d="M229820 21619 c-25 -4 -83 -12 -130 -18 -366 -42 -772 -246 -1059 -532 -472 -468 -676 -1150 -536 -1787 59 -267 166 -498 335 -727 319 -430 829 -720 1355 -771 372 -36 714 27 1050 191 388 190 685 488 875 877 155 316 211 612 186 988 -20 307 -135 648 -308 915 -311 483 -835 803 -1408 861 -94 10 -313 12 -360 3z"/>
<path d="M239659 21506 c-3 -3 -57 -8 -120 -11 -249 -12 -582 -64 -844 -130 -1026 -261 -1819 -835 -2342 -1695 -67 -109 -207 -383 -247 -480 -127 -313 -213 -593 -265 -865 -12 -60 -26 -130 -31 -155 -5 -25 -15 -85 -21 -135 -6 -49 -12 -101 -14 -115 -33 -216 -37 -330 -41 -1190 l-4 -795 -944 -5 c-519 -3 -947 -8 -951 -11 -9 -10 -6 -2662 3 -2671 4 -4 431 -9 947 -10 l940 -3 5 -4397 c3 -2418 8 -4399 11 -4402 3 -3 709 -6 1569 -6 1268 -1 1565 2 1571 12 5 7 9 1986 9 4396 0 2411 3 4388 6 4393 3 5 532 9 1283 9 980 0 1280 3 1289 12 9 9 12 320 12 1340 0 730 -1 1329 -2 1330 -2 1 -583 5 -1293 8 l-1290 5 -3 715 c-3 742 0 811 40 995 41 191 120 380 216 515 64 91 210 238 301 303 153 110 376 204 591 248 157 31 301 41 575 37 291 -5 461 -22 675 -70 74 -17 146 -31 160 -32 l25 -1 0 1310 0 1310 -50 25 c-133 67 -531 149 -950 195 -128 15 -805 32 -816 21z"/>
<path d="M144270 21340 c-13 -8 -15 -959 -18 -8437 -1 -4635 0 -8438 3 -8451 l5 -22 1563 2 1562 3 3 8444 c1 6189 -1 8448 -9 8457 -9 11 -276 14 -1553 14 -958 0 -1547 -4 -1556 -10z"/>
<path d="M177732 21338 c-9 -9 -12 -752 -12 -3234 0 -2026 -4 -3225 -10 -3229 -5 -3 -32 28 -59 69 -260 385 -710 725 -1246 939 -266 107 -641 210 -900 247 -33 5 -103 16 -155 24 -88 14 -180 24 -290 32 -25 1 -103 8 -175 14 -148 13 -786 6 -900 -10 -38 -6 -97 -12 -130 -15 -84 -7 -305 -42 -460 -72 -766 -149 -1498 -474 -2126 -945 -552 -415 -1028 -948 -1396 -1563 -166 -278 -338 -632 -459 -945 -45 -116 -152 -438 -180 -540 -92 -337 -135 -547 -198 -965 -63 -420 -80 -1155 -36 -1585 16 -162 40 -362 51 -425 6 -33 14 -89 19 -125 5 -36 26 -146 45 -245 173 -858 506 -1654 970 -2315 448 -639 997 -1154 1640 -1539 169 -102 561 -295 745 -368 189 -76 443 -161 610 -205 154 -41 400 -94 495 -108 33 -5 103 -15 155 -23 126 -20 252 -35 378 -47 112 -11 786 -15 867 -6 347 39 451 57 710 118 661 157 1265 481 1694 909 153 154 362 418 392 496 18 47 29 11 29 -95 0 -59 5 -161 11 -227 5 -66 12 -163 15 -215 2 -52 9 -131 15 -175 5 -44 16 -134 24 -200 20 -167 47 -314 59 -328 9 -9 356 -11 1496 -7 l1485 5 -2 20 c-2 11 -5 49 -8 85 -3 36 -10 124 -16 195 -6 72 -13 157 -14 190 -2 33 -6 98 -9 145 -3 47 -10 211 -16 365 -6 154 -15 333 -21 397 -6 64 -10 179 -8 255 5 302 -4 15200 -10 15228 l-6 30 -1526 2 c-1171 2 -1528 0 -1537 -9z m-2582 -7939 c204 -12 231 -14 300 -27 30 -6 82 -16 115 -22 655 -126 1231 -496 1620 -1042 321 -449 517 -1022 570 -1663 28 -339 15 -844 -30 -1130 -54 -346 -156 -693 -286 -973 -22 -46 -39 -86 -39 -88 0 -3 -30 -58 -66 -122 -453 -797 -1170 -1275 -2048 -1367 -293 -30 -659 -15 -921 39 -129 26 -318 77 -375 100 -19 8 -71 29 -114 46 -44 18 -87 36 -95 40 -9 5 -50 24 -91 44 -160 76 -371 216 -517 344 -420 367 -699 813 -876 1397 -64 212 -104 407 -138 680 -18 146 -19 168 -23 500 -3 294 -1 353 20 535 34 309 83 537 169 795 159 478 362 812 695 1145 167 167 285 262 462 373 163 101 434 227 588 271 123 36 254 68 330 82 158 28 205 34 355 40 83 4 159 11 170 15 11 5 29 6 40 3 11 -3 94 -10 185 -15z"/>
<path d="M104667 20968 c-12 -26 -375 -965 -497 -1288 -16 -41 -42 -109 -58 -150 -16 -41 -62 -160 -102 -265 -40 -104 -81 -212 -92 -240 -10 -27 -29 -77 -42 -110 -13 -33 -49 -127 -81 -210 -79 -206 -91 -237 -130 -340 -19 -49 -47 -124 -63 -165 -16 -41 -49 -129 -74 -195 -25 -66 -62 -160 -81 -210 -19 -49 -117 -304 -217 -565 -199 -519 -239 -625 -275 -715 -13 -33 -49 -127 -81 -210 -123 -323 -143 -375 -199 -520 -32 -82 -66 -172 -77 -200 -11 -27 -28 -72 -38 -100 -10 -27 -39 -102 -63 -165 -24 -63 -64 -169 -89 -235 -56 -146 -134 -347 -153 -395 -8 -19 -85 -219 -171 -445 -86 -225 -176 -462 -201 -525 -24 -63 -76 -198 -115 -300 -39 -102 -83 -216 -98 -255 -15 -38 -60 -155 -100 -260 -40 -104 -81 -212 -92 -240 -11 -27 -28 -72 -38 -100 -10 -27 -48 -126 -85 -220 -36 -93 -73 -190 -82 -215 -15 -44 -110 -291 -138 -360 -8 -19 -130 -336 -271 -705 -276 -722 -313 -818 -349 -910 -13 -33 -49 -127 -81 -210 -31 -82 -65 -172 -76 -200 -10 -27 -29 -77 -42 -110 -13 -33 -49 -127 -81 -210 -79 -206 -91 -237 -130 -340 -19 -49 -47 -124 -63 -165 -16 -41 -49 -129 -74 -195 -25 -66 -62 -160 -81 -210 -30 -77 -329 -857 -433 -1130 -19 -49 -39 -101 -45 -114 -5 -13 -30 -78 -55 -145 -25 -66 -70 -182 -98 -256 -73 -188 -160 -414 -241 -625 -12 -33 -37 -98 -55 -145 -18 -47 -43 -112 -56 -145 -27 -71 -146 -380 -184 -480 -15 -38 -54 -142 -88 -230 -33 -88 -115 -302 -181 -475 -118 -306 -129 -340 -113 -340 1282 -3 3408 2 3413 7 7 7 538 1454 621 1693 16 47 35 99 43 115 7 17 167 455 355 975 189 520 347 953 352 963 8 16 178 17 3358 17 2273 0 3351 -3 3355 -10 4 -6 22 -54 42 -108 53 -145 94 -259 163 -447 34 -93 70 -192 80 -220 33 -96 130 -360 139 -380 5 -11 24 -60 41 -110 18 -49 52 -144 75 -210 24 -66 60 -165 81 -220 20 -55 45 -122 54 -150 10 -27 37 -102 60 -165 24 -63 49 -133 57 -155 8 -22 44 -121 80 -220 119 -326 134 -369 154 -425 11 -30 35 -95 54 -145 18 -49 70 -191 115 -315 45 -124 102 -281 127 -350 25 -69 49 -128 52 -133 5 -5 2907 -11 3499 -7 20 0 14 40 -19 120 -16 41 -73 190 -126 330 -53 140 -115 305 -138 365 -23 61 -86 225 -139 365 -89 234 -121 319 -220 575 -19 50 -71 187 -116 305 -99 262 -159 420 -216 565 -23 61 -73 191 -110 290 -37 99 -80 214 -96 255 -16 41 -33 86 -38 100 -5 14 -24 66 -43 115 -62 160 -218 569 -237 620 -10 28 -28 75 -40 105 -12 30 -34 89 -50 130 -15 41 -69 183 -120 315 -50 132 -100 263 -110 290 -10 28 -28 75 -40 105 -12 30 -34 89 -49 130 -16 41 -79 208 -141 370 -62 162 -123 322 -135 355 -34 90 -230 605 -275 720 -21 55 -93 244 -160 420 -66 176 -138 365 -160 420 -51 134 -243 636 -350 920 -48 127 -120 316 -160 420 -40 105 -110 289 -156 410 -46 121 -120 315 -164 430 -44 116 -124 325 -177 465 -53 140 -115 305 -138 365 -23 61 -86 225 -139 365 -89 234 -121 319 -220 575 -19 50 -71 187 -116 305 -79 209 -130 345 -206 540 -44 114 -188 495 -214 565 -10 28 -28 75 -40 105 -12 30 -34 89 -50 130 -15 41 -69 183 -120 315 -50 132 -100 263 -110 290 -10 28 -28 75 -40 105 -12 30 -34 89 -50 130 -15 41 -69 183 -120 315 -50 132 -100 263 -110 290 -10 28 -28 75 -40 105 -12 30 -34 89 -49 130 -16 41 -79 208 -141 370 -62 162 -123 322 -135 355 -32 85 -228 601 -274 720 -22 55 -70 181 -107 280 -37 99 -74 186 -83 193 -12 9 -402 12 -1877 12 l-1862 0 -15 -32z m1833 -3639 c0 -6 11 -38 24 -72 13 -34 48 -127 76 -207 29 -80 65 -179 80 -220 15 -41 55 -151 90 -245 34 -93 78 -213 97 -265 20 -52 43 -117 53 -145 25 -73 206 -566 219 -595 5 -14 33 -90 62 -170 28 -80 64 -179 79 -220 15 -41 55 -151 90 -245 34 -93 78 -213 97 -265 20 -52 43 -117 53 -145 25 -73 206 -566 219 -595 5 -14 33 -90 62 -170 28 -80 64 -179 79 -220 15 -41 55 -151 90 -245 34 -93 78 -213 97 -265 20 -52 43 -117 53 -145 25 -73 206 -566 219 -595 5 -14 33 -90 62 -170 28 -80 64 -179 79 -220 120 -329 157 -431 197 -540 24 -69 51 -138 59 -153 8 -16 12 -33 8 -38 -8 -13 -4521 -12 -4529 2 -4 5 0 18 9 28 9 10 16 22 16 27 0 6 39 115 86 244 47 129 120 327 161 440 41 113 91 248 110 300 19 52 54 149 78 215 23 66 145 399 270 740 125 341 256 701 292 800 35 99 70 196 78 215 8 19 28 71 43 115 30 82 551 1506 604 1650 16 44 49 134 73 200 188 522 428 1171 437 1182 11 14 28 8 28 -8z"/>
<path d="M215716 20991 c-6 -10 -9 -16552 -3 -16558 2 -2 2388 -3 5302 -3 4249 0 5300 2 5307 12 13 21 10 3059 -3 3075 -9 10 -647 13 -3677 13 -2016 0 -3670 4 -3674 8 -4 4 -8 3030 -8 6723 0 5214 -3 6718 -12 6727 -15 15 -3223 18 -3232 3z"/>
<path d="M259663 20988 c-11 -15 -18 -267 -8 -298 l6 -20 232 -1 c128 -1 242 -4 255 -7 l23 -7 -1 -647 c0 -582 1 -648 16 -662 13 -14 40 -16 165 -15 134 0 150 2 159 19 6 12 10 254 10 658 0 510 3 642 13 650 8 7 96 11 250 11 130 0 241 3 247 6 15 9 13 298 -2 313 -18 18 -1351 17 -1365 0z"/>
<path d="M261316 20969 c-10 -51 -7 -1585 3 -1612 l10 -24 150 -1 c105 0 153 3 158 11 5 7 10 234 13 505 3 317 9 492 15 493 10 2 95 -184 134 -291 11 -30 56 -143 99 -250 44 -107 103 -251 131 -319 28 -68 55 -129 61 -135 6 -9 52 -13 138 -15 148 -2 159 3 185 79 8 25 34 90 57 145 47 112 122 295 215 525 34 85 74 182 89 214 48 108 51 87 54 -457 3 -359 7 -494 15 -499 14 -9 227 -10 280 -2 l37 7 0 822 0 823 -22 6 c-13 3 -112 6 -220 6 -185 0 -199 -1 -218 -20 -11 -11 -20 -24 -20 -30 0 -5 -75 -198 -166 -427 -91 -230 -186 -470 -211 -533 -50 -128 -68 -155 -79 -124 -4 10 -31 78 -60 149 -29 72 -91 227 -139 345 -47 118 -97 240 -110 270 -13 30 -45 109 -71 175 -25 66 -56 137 -67 158 l-21 37 -217 0 -216 0 -7 -31z"/>
<path d="M190202 19357 c-8 -10 -12 -272 -13 -923 -1 -919 -1 -930 -38 -1159 -12 -82 -56 -231 -97 -338 -205 -533 -637 -877 -1219 -973 -55 -9 -113 -18 -130 -21 -16 -2 -214 -7 -440 -9 -259 -4 -415 -10 -422 -16 -20 -16 -19 -2741 0 -2757 10 -8 301 -12 1038 -13 l1024 -3 6 -2845 6 -2845 26 -190 c38 -275 50 -342 95 -521 50 -199 72 -268 128 -411 24 -61 44 -114 44 -118 0 -12 145 -299 191 -377 244 -420 597 -780 1010 -1030 313 -190 659 -333 1016 -419 156 -38 354 -75 453 -85 25 -2 59 -7 75 -9 142 -20 257 -25 640 -25 243 -1 485 4 540 10 231 24 287 32 430 55 236 40 345 67 584 143 80 25 153 54 163 64 l18 18 0 1274 c-1 1395 3 1311 -57 1288 -78 -31 -453 -69 -778 -78 -488 -15 -803 46 -1030 199 -271 183 -406 470 -443 942 -4 50 -7 1186 -7 2525 l0 2435 1144 3 c825 1 1148 5 1158 13 19 17 20 2741 0 2757 -9 8 -345 11 -1151 12 -626 0 -1142 3 -1147 5 -4 3 -8 773 -8 1712 0 938 -3 1708 -6 1712 -4 3 -633 7 -1400 9 -1153 2 -1394 0 -1403 -11z"/>
<path d="M161437 16273 c-4 -3 -33 -7 -65 -8 -276 -10 -680 -77 -1037 -172 -194 -51 -518 -162 -710 -243 -1038 -438 -1909 -1165 -2527 -2110 -215 -329 -430 -743 -565 -1090 -211 -543 -348 -1128 -413 -1760 -37 -370 -32 -1193 10 -1450 5 -30 12 -86 15 -125 12 -145 56 -400 116 -675 240 -1105 774 -2103 1534 -2866 322 -323 733 -646 1068 -840 37 -21 96 -56 130 -76 78 -46 466 -243 527 -268 25 -10 101 -41 170 -70 298 -125 856 -287 1165 -340 163 -28 453 -69 513 -74 37 -2 117 -10 177 -17 150 -17 833 -17 985 -1 63 7 149 15 190 18 41 3 104 10 140 15 36 5 108 16 160 23 192 28 465 84 640 132 52 14 104 28 115 31 66 17 298 92 400 130 798 294 1508 776 2055 1393 229 259 459 588 634 909 58 107 106 196 106 198 0 2 15 36 34 76 105 225 250 612 258 692 3 33 -2 36 -192 90 -52 15 -121 36 -154 47 -32 10 -97 30 -145 43 -47 13 -306 90 -576 170 -269 80 -537 159 -595 176 -58 17 -131 40 -164 51 -32 10 -97 30 -145 43 -47 13 -205 60 -351 104 -202 61 -268 77 -276 68 -6 -7 -23 -43 -39 -82 -108 -270 -243 -511 -391 -702 -95 -122 -280 -310 -401 -407 -475 -380 -1122 -567 -1878 -541 -232 8 -287 12 -345 24 -25 6 -65 13 -90 16 -200 29 -565 142 -760 236 -24 12 -63 30 -85 40 -126 59 -358 208 -500 322 -293 234 -561 563 -726 888 -77 153 -161 386 -205 569 -25 102 -56 295 -55 335 0 11 -4 34 -9 50 -5 17 -6 46 -2 64 7 30 12 35 37 36 17 1 1860 2 4096 3 3863 2 4067 3 4074 20 6 16 30 317 33 407 0 22 6 123 12 225 12 180 8 681 -6 800 -3 30 -6 69 -7 85 -5 275 -77 807 -158 1170 -116 524 -256 932 -470 1370 -184 377 -352 647 -593 950 -372 468 -833 863 -1351 1156 -66 37 -133 76 -150 85 -51 30 -123 64 -340 164 -233 108 -607 232 -930 309 -298 70 -333 77 -570 111 -38 6 -115 17 -171 25 -55 9 -163 20 -240 25 -76 5 -188 14 -249 19 -125 11 -748 14 -758 4z m757 -2559 c93 -8 172 -17 176 -19 4 -2 38 -9 76 -15 38 -6 122 -24 186 -40 598 -152 1065 -480 1371 -963 21 -31 37 -60 37 -64 0 -3 14 -28 31 -56 65 -106 164 -360 208 -538 35 -141 67 -348 66 -439 l0 -85 -2545 0 -2545 0 1 70 c1 147 81 456 172 669 194 455 557 874 978 1129 300 182 598 286 979 344 92 13 591 34 625 26 8 -2 91 -11 184 -19z"/>
<path d="M202520 16276 c-5 -4 -119 -14 -245 -21 -72 -4 -352 -39 -440 -55 -27 -4 -81 -14 -120 -20 -384 -63 -1011 -250 -1330 -395 -16 -8 -95 -44 -175 -80 -708 -323 -1391 -836 -1899 -1426 -519 -602 -896 -1272 -1145 -2037 -66 -203 -154 -530 -176 -652 -6 -36 -17 -94 -25 -130 -37 -173 -89 -570 -100 -763 -26 -457 -26 -598 0 -1034 15 -252 85 -724 151 -1008 62 -267 153 -568 234 -775 23 -58 49 -127 59 -155 21 -56 140 -325 176 -398 36 -71 136 -258 157 -292 10 -16 23 -41 30 -55 74 -148 354 -556 511 -744 37 -44 94 -112 125 -151 74 -92 329 -352 463 -474 234 -213 414 -352 689 -535 760 -506 1585 -813 2535 -945 83 -11 179 -23 215 -25 36 -3 115 -10 175 -17 176 -20 830 -17 1045 4 650 64 1140 173 1675 373 215 79 311 121 560 244 442 217 820 467 1215 804 122 104 493 473 565 562 28 34 86 106 131 160 190 232 403 547 561 829 81 146 274 552 313 660 10 28 39 104 65 170 117 304 244 778 301 1125 29 177 74 539 78 635 20 379 26 565 21 600 -3 22 -7 114 -9 205 -8 295 -32 523 -95 905 -28 163 -80 409 -110 515 -11 36 -31 110 -46 165 -70 252 -198 593 -326 870 -321 689 -738 1268 -1284 1782 -187 177 -314 281 -595 487 -159 117 -456 300 -629 387 -42 21 -87 45 -101 52 -40 23 -236 117 -243 117 -4 0 -35 13 -69 29 -35 16 -117 50 -183 76 -66 25 -140 54 -165 64 -119 49 -457 149 -640 191 -226 52 -264 59 -490 100 -96 17 -362 50 -450 56 -47 3 -116 8 -155 11 -95 7 -800 15 -805 9z m760 -2871 c348 -50 607 -128 895 -270 259 -128 498 -298 700 -500 149 -148 248 -267 358 -433 359 -537 544 -1209 553 -2002 2 -129 -1 -264 -6 -300 -5 -36 -17 -138 -25 -228 -66 -673 -302 -1272 -683 -1739 -110 -134 -331 -349 -460 -446 -316 -238 -671 -402 -1062 -491 -295 -68 -615 -88 -975 -61 -77 6 -251 35 -360 61 -314 73 -610 196 -865 357 -692 439 -1155 1166 -1309 2055 -33 189 -30 165 -58 462 -4 41 -8 181 -8 310 0 526 82 1000 251 1445 227 596 648 1100 1184 1418 110 65 298 157 385 188 289 103 411 134 675 173 226 34 576 34 810 1z"/>
<path d="M247455 16270 c-38 -5 -122 -13 -185 -19 -613 -57 -1298 -255 -1872 -541 -1337 -668 -2314 -1774 -2843 -3220 -204 -559 -344 -1261 -372 -1865 -18 -392 -4 -918 31 -1200 2 -16 9 -76 15 -132 7 -56 16 -128 22 -160 6 -32 14 -85 18 -118 11 -76 36 -208 67 -350 22 -102 38 -167 93 -378 12 -43 52 -172 90 -285 217 -652 519 -1219 918 -1726 162 -206 163 -208 301 -359 286 -315 745 -699 1082 -906 228 -140 302 -182 485 -276 134 -69 417 -196 555 -250 19 -7 58 -22 85 -33 199 -80 750 -231 990 -272 171 -29 450 -69 516 -73 41 -3 121 -11 179 -18 142 -17 824 -18 980 -1 63 7 149 15 190 18 41 3 104 10 140 15 36 5 110 16 165 24 166 24 463 83 595 118 445 119 726 225 1125 425 1144 572 2018 1565 2448 2782 57 162 84 256 76 265 -3 2 -113 36 -245 75 -383 113 -674 199 -739 219 -33 11 -130 40 -215 65 -85 25 -290 86 -455 135 -165 49 -410 122 -545 161 -135 40 -278 83 -319 96 -41 13 -77 21 -81 19 -4 -3 -22 -42 -41 -87 -200 -505 -503 -908 -889 -1184 -92 -66 -294 -184 -369 -216 -25 -11 -60 -26 -76 -33 -177 -80 -441 -149 -740 -196 -118 -18 -185 -22 -435 -23 -258 -1 -329 2 -475 19 -428 51 -922 236 -1280 478 -434 295 -792 722 -980 1171 -48 116 -123 347 -149 461 -16 72 -48 268 -48 295 0 8 -4 42 -9 74 -6 41 -5 64 2 73 9 10 748 13 4102 13 2250 0 4095 4 4099 8 9 9 25 169 32 327 3 55 10 170 15 255 13 202 13 615 0 805 -6 83 -12 188 -15 235 -2 47 -9 128 -14 180 -6 52 -13 115 -15 140 -23 218 -73 526 -121 740 -156 696 -381 1276 -704 1815 -465 774 -1147 1405 -1950 1805 -134 67 -292 139 -370 170 -30 11 -64 25 -75 31 -11 5 -72 28 -135 50 -323 114 -660 204 -955 254 -49 8 -124 22 -165 30 -41 8 -102 17 -135 21 -67 7 -86 9 -202 24 -46 5 -122 13 -170 16 -49 3 -119 8 -158 11 -120 9 -796 11 -870 3z m819 -2556 c93 -8 172 -17 176 -19 4 -2 38 -9 76 -15 192 -30 464 -116 662 -211 367 -175 671 -442 886 -777 25 -40 46 -74 46 -77 0 -2 14 -28 31 -57 138 -234 265 -681 271 -959 l3 -104 -2545 0 -2545 0 1 70 c2 203 135 627 274 875 170 304 404 578 660 775 334 257 784 440 1220 496 85 11 572 29 600 22 8 -2 91 -11 184 -19z"/>
<path d="M122725 16180 c-22 -4 -83 -8 -137 -8 -53 0 -116 -3 -140 -6 -368 -49 -434 -60 -603 -97 -673 -149 -1234 -404 -1715 -779 -234 -183 -429 -386 -580 -604 -40 -59 -75 -105 -77 -103 -2 2 -5 303 -6 668 l-2 663 -25 7 c-14 4 -691 7 -1505 8 -1139 1 -1484 -2 -1493 -11 -9 -9 -12 -1796 -12 -7965 l0 -7953 1570 0 1570 0 0 2739 c0 1507 4 2742 8 2745 5 3 24 -16 44 -42 85 -114 285 -307 474 -458 224 -178 616 -396 929 -516 263 -102 699 -221 886 -243 30 -4 68 -11 84 -16 17 -4 80 -14 140 -20 61 -6 124 -13 140 -15 98 -14 182 -18 470 -23 357 -7 532 0 775 28 341 41 522 76 891 175 98 26 280 87 399 133 63 25 134 52 158 60 59 22 479 229 582 289 116 66 364 231 485 322 512 385 930 844 1292 1417 171 270 407 747 508 1025 14 41 35 95 45 120 82 205 209 667 270 985 16 88 35 183 40 210 6 28 17 102 25 165 8 63 19 147 24 185 5 39 12 102 15 140 2 39 10 113 16 165 24 212 30 650 15 1044 -9 216 -68 789 -94 906 -6 25 -13 68 -17 95 -34 260 -211 920 -331 1230 -374 970 -901 1712 -1629 2295 -450 359 -1075 676 -1644 834 -420 116 -802 180 -1215 202 -169 9 -592 12 -630 4z m-131 -2800 c33 -5 120 -17 191 -26 908 -114 1662 -665 2078 -1517 21 -44 47 -102 58 -130 12 -29 30 -74 41 -102 83 -209 159 -495 193 -724 9 -58 18 -107 19 -110 5 -7 13 -106 26 -316 38 -615 -41 -1196 -231 -1704 -255 -680 -715 -1205 -1329 -1517 -230 -117 -467 -193 -785 -252 -185 -34 -658 -41 -869 -12 -387 53 -748 179 -1067 373 -191 116 -326 222 -495 391 -151 151 -248 270 -367 452 -155 237 -249 434 -347 734 -103 312 -158 597 -180 935 -67 1053 188 1948 741 2590 235 274 505 485 832 650 78 39 171 82 207 94 170 60 210 74 280 92 148 39 297 68 415 79 66 7 134 16 150 20 43 12 367 12 439 0z"/>
<path d="M136610 16180 c-25 -5 -88 -9 -140 -10 -52 -1 -129 -5 -170 -10 -41 -5 -96 -12 -122 -14 -244 -26 -628 -111 -910 -202 -751 -242 -1406 -682 -1788 -1201 -57 -78 -108 -140 -112 -137 -4 3 -8 299 -8 658 l0 653 -46 7 c-59 8 -2941 8 -2971 0 l-23 -6 0 -7959 0 -7959 1565 0 1565 0 1 2573 c1 2888 1 2883 15 2897 8 8 32 -14 82 -72 96 -114 266 -277 392 -377 111 -89 332 -240 415 -285 28 -15 73 -40 100 -57 28 -16 59 -33 70 -38 11 -5 68 -32 127 -60 463 -220 1029 -366 1628 -421 179 -17 827 -13 995 5 77 9 165 18 195 21 77 7 341 51 452 75 534 114 923 259 1465 546 65 34 214 126 333 206 529 354 1026 855 1390 1402 136 204 130 196 232 375 85 150 116 210 223 435 185 389 357 914 455 1390 70 343 99 537 140 965 15 146 14 1094 0 1245 -6 61 -13 137 -15 170 -6 93 -35 336 -45 375 -4 19 -11 64 -15 100 -3 36 -10 81 -15 100 -5 19 -14 69 -21 110 -25 164 -112 532 -170 725 -114 378 -225 659 -394 1000 -438 882 -1028 1542 -1830 2047 -148 93 -452 248 -650 331 -295 125 -651 231 -970 291 -77 15 -160 31 -185 36 -25 5 -70 12 -100 15 -30 4 -98 12 -150 20 -184 27 -286 32 -685 39 -143 2 -280 1 -305 -4z m-85 -2804 c335 -40 517 -81 760 -173 563 -212 1048 -627 1359 -1163 48 -83 164 -324 199 -415 248 -642 320 -1411 202 -2163 -205 -1298 -1031 -2225 -2190 -2457 -448 -89 -971 -72 -1380 47 -302 87 -576 219 -835 401 -36 25 -115 88 -176 140 -571 491 -918 1183 -1026 2047 -20 152 -22 223 -22 540 0 315 3 388 21 530 85 650 284 1164 627 1620 84 111 350 384 451 463 418 325 877 511 1415 572 80 9 147 19 150 22 6 5 386 -4 445 -11z"/>
<path d="M150578 15923 l-18 -4 0 -5739 c0 -3442 4 -5741 9 -5744 5 -4 706 -6 1557 -6 1247 -1 1549 2 1556 12 4 7 8 2590 8 5739 0 4739 -2 5728 -13 5738 -10 7 -447 10 -1548 10 -844 -1 -1542 -3 -1551 -6z"/>
<path d="M228442 15922 c-10 -7 -12 -1142 -12 -5747 0 -3156 2 -5740 3 -5742 6 -6 3108 -3 3118 3 5 3 9 2283 9 5743 l0 5738 -46 7 c-69 9 -3057 7 -3072 -2z"/>
<path d="M257300 8524 c-109 -14 -357 -68 -430 -94 -198 -71 -332 -134 -479 -225 -340 -212 -605 -506 -786 -876 -122 -250 -191 -494 -213 -759 -11 -123 -7 -339 8 -431 47 -302 94 -457 207 -683 307 -616 861 -1036 1531 -1161 132 -24 165 -26 390 -26 136 0 270 5 297 10 28 5 79 14 115 21 106 18 269 66 375 111 55 22 116 47 135 54 102 38 342 194 488 317 477 405 756 1026 739 1650 -3 95 -7 189 -10 208 -3 19 -10 67 -16 105 -49 322 -195 654 -418 953 -121 161 -358 377 -548 498 -220 140 -510 254 -746 294 -35 6 -84 15 -109 21 -46 10 -467 21 -530 13z"/>
</g>
</g>
</svg>
