<?xml version="1.0" standalone="no"?>
<!DOCTYPE svg PUBLIC "-//W3C//DTD SVG 1.1//EN"
 "http://www.w3.org/Graphics/SVG/1.1/DTD/svg11.dtd">
<!-- Created with svg_stack (http://github.com/astraw/svg_stack) -->
<svg xmlns:sodipodi="http://sodipodi.sourceforge.net/DTD/sodipodi-0.dtd" xmlns="http://www.w3.org/2000/svg" version="1.1" width="600.0" height="716.0">
  <defs/>
  <g id="id0:id0" transform="matrix(1.25,0,0,1.25,0.0,0.0)"><g transform="translate(0.000000,572.800000) scale(0.040000,-0.040000)" fill="#ffffff" stroke="none">
<path d="M0 7160 l0 -7160 6000 0 6000 0 0 7160 0 7160 -6000 0 -6000 0 0 -7160z m6295 6420 c17 -5 77 -11 133 -15 57 -4 119 -13 138 -21 18 -8 50 -14 71 -14 21 -1 56 -9 78 -20 22 -11 49 -20 60 -20 11 0 38 -9 60 -20 22 -11 48 -19 58 -20 11 0 30 -9 44 -20 14 -11 31 -20 37 -20 6 0 20 -9 29 -21 10 -11 24 -19 31 -16 6 3 36 -17 66 -44 30 -27 68 -55 85 -63 46 -22 387 -370 380 -388 -4 -10 10 -30 38 -54 24 -22 54 -60 66 -86 12 -26 30 -52 41 -58 11 -6 20 -20 20 -32 0 -12 18 -43 40 -69 22 -26 40 -54 40 -62 0 -8 7 -20 16 -27 8 -8 22 -27 29 -44 8 -17 19 -38 24 -46 5 -8 22 -40 37 -70 15 -30 35 -60 44 -67 11 -8 16 -21 13 -36 -3 -17 2 -28 20 -39 18 -13 23 -23 20 -45 -3 -20 2 -34 16 -47 12 -11 21 -27 21 -36 0 -10 9 -29 20 -43 11 -14 20 -32 20 -40 0 -8 9 -26 20 -40 11 -14 20 -36 20 -50 0 -13 9 -32 20 -42 11 -10 20 -30 20 -45 0 -15 9 -35 20 -45 11 -10 20 -28 20 -40 0 -12 9 -30 20 -40 11 -10 20 -26 20 -36 0 -10 11 -39 25 -65 14 -26 25 -53 25 -59 0 -7 6 -18 14 -24 8 -7 17 -30 21 -51 4 -21 13 -44 21 -51 8 -6 14 -20 14 -30 0 -10 11 -39 25 -65 14 -26 25 -53 25 -59 0 -7 7 -18 15 -25 8 -7 15 -29 15 -49 0 -20 10 -53 24 -75 13 -21 21 -47 19 -57 -3 -10 6 -38 19 -61 13 -24 23 -51 20 -61 -2 -10 7 -37 21 -60 13 -23 22 -48 20 -54 -3 -7 5 -38 16 -68 12 -31 21 -68 21 -83 0 -16 5 -33 11 -39 41 -41 57 -416 27 -668 -9 -77 -21 -153 -27 -168 -6 -16 -11 -57 -11 -91 0 -35 -8 -87 -19 -117 -10 -31 -22 -84 -26 -119 -4 -36 -14 -82 -21 -104 -8 -21 -14 -59 -14 -85 0 -25 -9 -66 -20 -90 -11 -24 -20 -58 -20 -76 0 -17 -9 -58 -20 -90 -11 -32 -20 -68 -20 -79 0 -12 -9 -45 -20 -74 -11 -29 -20 -67 -20 -85 0 -17 -9 -47 -20 -65 -11 -18 -20 -44 -20 -58 0 -14 -10 -47 -21 -74 -12 -27 -19 -57 -15 -66 3 -8 -5 -35 -19 -58 -14 -24 -24 -54 -23 -67 1 -13 -8 -42 -20 -64 -12 -22 -22 -54 -22 -71 0 -19 -8 -38 -21 -50 -14 -12 -19 -26 -16 -44 3 -15 -4 -41 -20 -68 -15 -25 -23 -51 -20 -63 3 -12 -2 -28 -13 -39 -10 -10 -21 -33 -25 -51 -4 -19 -16 -49 -26 -67 -10 -18 -19 -46 -19 -61 0 -16 -9 -36 -21 -47 -15 -13 -19 -26 -15 -46 4 -21 0 -32 -19 -46 -18 -14 -25 -30 -25 -54 0 -23 -7 -42 -21 -54 -15 -13 -19 -26 -15 -46 4 -21 0 -32 -19 -46 -17 -13 -25 -30 -25 -49 0 -17 -9 -38 -20 -48 -11 -10 -20 -30 -20 -45 0 -15 -9 -39 -21 -54 -12 -16 -19 -35 -16 -46 3 -13 -3 -26 -19 -39 -15 -12 -24 -29 -24 -46 0 -15 -9 -38 -20 -52 -11 -14 -20 -33 -20 -43 0 -9 -9 -25 -20 -35 -11 -10 -20 -30 -20 -45 0 -15 -6 -33 -14 -39 -8 -7 -18 -25 -21 -41 -4 -16 -16 -41 -27 -55 -14 -18 -18 -34 -14 -51 5 -20 2 -26 -20 -34 -21 -8 -25 -15 -21 -36 3 -19 -2 -29 -20 -41 -18 -12 -23 -23 -20 -40 3 -18 -2 -29 -20 -40 -18 -12 -23 -23 -20 -40 3 -18 -2 -29 -20 -40 -18 -12 -23 -23 -20 -40 3 -18 -2 -29 -19 -40 -16 -10 -24 -25 -24 -43 0 -15 -8 -34 -18 -43 -10 -9 -28 -38 -41 -64 -12 -27 -26 -55 -31 -63 -6 -8 -16 -28 -23 -45 -8 -16 -21 -36 -30 -44 -10 -7 -17 -23 -17 -35 0 -12 -9 -29 -21 -39 -12 -11 -18 -25 -14 -36 4 -13 -3 -24 -21 -36 -20 -13 -25 -23 -21 -42 3 -19 -1 -26 -19 -33 -14 -6 -24 -18 -24 -29 0 -11 -9 -25 -20 -31 -13 -7 -20 -21 -20 -39 0 -16 -6 -34 -14 -40 -8 -7 -18 -25 -21 -41 -3 -15 -15 -36 -26 -46 -11 -10 -31 -41 -45 -68 -14 -28 -34 -60 -45 -72 -10 -11 -19 -28 -19 -38 0 -9 -18 -36 -40 -58 -22 -24 -40 -52 -40 -64 0 -13 -8 -29 -19 -36 -10 -7 -30 -36 -44 -64 -14 -27 -33 -56 -41 -63 -9 -8 -16 -21 -16 -31 0 -9 -8 -24 -18 -33 -10 -9 -29 -38 -42 -64 -13 -27 -40 -70 -60 -98 -20 -27 -49 -72 -65 -100 -16 -27 -36 -59 -45 -70 -10 -11 -26 -36 -36 -55 -10 -19 -38 -58 -61 -88 -24 -29 -43 -57 -43 -63 0 -5 -18 -32 -40 -60 -22 -28 -40 -55 -40 -60 0 -5 -22 -37 -48 -72 -27 -34 -57 -76 -68 -93 -36 -59 -115 -175 -159 -237 -25 -33 -45 -67 -45 -75 0 -8 -14 -34 -31 -59 -16 -25 -28 -51 -26 -57 3 -7 -17 -36 -44 -66 -26 -29 -45 -58 -42 -63 3 -5 -25 -40 -62 -77 -41 -41 -65 -73 -60 -80 4 -7 -18 -37 -54 -75 -34 -35 -61 -72 -61 -82 0 -10 -20 -40 -45 -68 -24 -27 -42 -51 -40 -53 5 -6 -47 -72 -90 -116 -17 -17 -37 -44 -45 -61 -7 -16 -45 -62 -83 -101 -38 -39 -67 -78 -65 -86 2 -8 -25 -46 -59 -83 -35 -38 -63 -75 -63 -81 0 -7 -43 -59 -95 -115 -52 -55 -95 -107 -95 -115 0 -7 -42 -57 -94 -111 -51 -54 -100 -114 -108 -134 -9 -21 -62 -79 -132 -145 -64 -60 -139 -140 -166 -179 -45 -64 -681 -714 -1072 -1095 l-147 -143 -52 6 c-28 4 -59 13 -69 22 -13 11 -41 15 -119 15 -82 0 -109 4 -141 20 -21 11 -41 24 -45 30 -3 5 -14 10 -24 10 -10 0 -28 11 -41 25 -13 14 -33 25 -45 25 -11 0 -28 9 -38 21 -11 12 -25 18 -36 14 -13 -4 -24 3 -36 21 -12 19 -23 25 -41 21 -17 -3 -28 3 -40 20 -11 18 -22 24 -40 20 -17 -3 -28 3 -40 20 -11 18 -22 24 -40 20 -17 -3 -28 3 -40 20 -11 18 -22 24 -40 20 -17 -3 -28 3 -40 20 -11 18 -22 24 -40 20 -17 -3 -28 3 -40 20 -12 20 -22 24 -45 21 -22 -4 -33 1 -44 19 -10 15 -25 23 -44 23 -16 0 -34 7 -41 15 -7 8 -20 15 -30 15 -9 0 -34 12 -55 26 -21 14 -46 23 -56 21 -10 -3 -27 5 -41 20 -16 17 -29 22 -45 18 -16 -4 -25 1 -33 14 -6 12 -26 23 -48 27 -20 3 -52 15 -70 26 -18 11 -39 18 -46 15 -8 -3 -22 3 -31 13 -10 11 -34 22 -54 26 -20 3 -49 15 -64 26 -16 11 -37 18 -49 15 -11 -3 -34 5 -56 19 -20 14 -45 24 -57 23 -11 -2 -36 7 -55 19 -19 12 -44 22 -55 22 -11 0 -33 7 -49 15 -16 8 -43 18 -60 21 -17 3 -51 14 -76 25 -26 12 -54 18 -69 14 -14 -4 -30 0 -40 9 -9 8 -34 22 -55 31 l-38 16 7 37 c9 49 11 51 60 73 26 12 71 49 114 95 70 75 121 116 159 128 11 4 65 53 120 110 107 110 165 159 197 170 11 3 108 94 214 202 115 116 209 203 231 213 43 19 1380 1351 1380 1374 0 19 78 104 258 283 93 92 141 146 137 155 -4 10 45 66 141 161 80 81 143 152 139 158 -3 5 42 59 100 119 58 60 105 115 103 123 -4 18 11 36 114 136 50 48 88 93 88 104 0 10 36 56 80 102 44 46 80 89 80 97 0 17 61 92 109 135 19 17 35 41 36 53 1 12 31 52 70 91 51 52 66 73 58 81 -8 8 5 27 53 71 39 37 64 68 64 81 0 13 27 49 67 89 48 48 64 71 57 78 -8 8 6 28 47 70 35 34 59 67 59 79 0 12 20 42 46 67 28 29 43 52 40 61 -4 10 12 31 45 61 34 30 49 51 46 63 -3 11 16 39 54 79 33 35 56 67 53 75 -3 8 15 33 41 59 32 30 46 50 41 61 -4 10 10 31 40 61 27 27 43 52 40 60 -3 9 11 31 34 54 24 24 40 50 40 63 0 14 12 32 31 46 18 14 28 28 25 37 -3 8 1 17 9 20 8 4 15 11 15 17 0 6 14 26 32 44 23 24 29 36 21 44 -8 8 1 23 33 56 31 31 43 50 39 62 -4 13 3 24 20 35 14 9 25 23 25 30 0 18 51 96 62 96 4 0 8 10 8 23 0 13 11 34 25 47 14 13 25 29 25 36 0 16 51 94 62 94 4 0 8 10 8 23 0 13 11 34 25 47 15 14 24 33 23 44 -2 15 3 21 17 21 14 0 21 8 23 25 2 14 16 35 30 47 21 16 24 24 15 33 -9 9 -1 23 33 57 30 30 43 50 39 62 -3 11 5 25 26 40 18 14 28 28 25 37 -3 8 1 17 9 20 8 4 15 12 15 20 0 7 11 25 25 40 15 16 23 34 20 44 -4 11 3 23 20 34 17 12 25 24 23 39 -2 16 2 22 17 22 14 0 21 8 23 25 2 14 11 31 19 37 9 7 17 22 18 33 1 11 12 31 24 44 15 15 21 31 17 41 -4 12 0 19 14 22 11 3 20 11 20 18 0 8 11 27 25 43 14 17 25 40 25 52 0 13 8 24 19 27 24 6 35 31 21 48 -8 9 -3 17 16 30 20 13 24 22 20 40 -5 18 -1 27 13 35 19 10 34 32 64 95 8 17 21 36 30 44 10 7 17 24 17 37 0 13 7 27 17 32 9 5 17 19 18 31 1 11 12 32 24 45 16 17 21 31 16 45 -5 17 -1 23 21 31 23 9 26 14 20 41 -5 25 -2 31 20 40 23 8 26 14 20 40 -5 25 -2 31 20 39 20 8 25 16 22 37 -2 22 1 28 17 28 15 0 21 8 23 30 2 17 10 37 17 45 7 8 16 26 20 40 4 14 16 35 27 47 14 15 19 31 16 48 -4 20 0 30 19 42 20 13 24 22 19 45 -5 24 -2 30 20 39 22 8 26 14 21 38 -5 24 -1 32 18 45 18 12 25 25 25 50 0 18 7 39 15 46 8 7 15 18 15 25 0 6 11 33 25 60 14 26 23 55 20 65 -3 9 1 23 9 29 8 7 22 36 32 64 9 29 23 59 30 68 8 8 14 29 14 45 0 16 9 44 20 62 11 18 20 45 20 60 0 15 10 47 21 71 12 28 18 55 14 71 -4 17 -1 31 8 38 7 7 20 30 27 52 12 36 11 42 -5 60 -14 16 -17 30 -12 71 4 33 1 70 -10 107 -8 32 -18 82 -22 112 -4 30 -14 69 -23 85 -8 17 -21 41 -27 55 -44 94 -103 180 -141 207 -11 8 -20 19 -20 26 0 14 -100 117 -115 117 -5 0 -41 27 -80 60 -38 33 -77 60 -86 60 -9 0 -24 9 -34 20 -10 11 -26 20 -35 20 -9 0 -25 9 -35 20 -10 11 -30 20 -45 20 -15 0 -35 9 -45 20 -12 13 -31 20 -56 20 -24 0 -41 6 -47 16 -6 10 -30 18 -68 23 -32 4 -72 14 -89 23 -17 8 -72 18 -123 22 -51 4 -104 11 -118 16 -40 16 -320 12 -389 -5 -33 -8 -89 -14 -125 -15 -46 0 -77 -6 -103 -20 -20 -11 -56 -20 -79 -20 -26 0 -55 -8 -73 -20 -16 -11 -46 -20 -66 -20 -23 0 -42 -7 -54 -20 -10 -11 -29 -20 -42 -20 -14 0 -36 -9 -50 -20 -14 -11 -36 -20 -48 -20 -12 0 -30 -9 -40 -20 -10 -11 -27 -20 -37 -20 -11 0 -31 -9 -45 -20 -14 -11 -31 -20 -38 -20 -7 0 -15 -7 -19 -15 -3 -8 -12 -15 -19 -15 -8 0 -21 -7 -28 -16 -7 -9 -38 -32 -68 -51 -78 -50 -165 -136 -228 -225 -30 -43 -59 -80 -64 -83 -5 -4 -9 -14 -9 -24 0 -10 -9 -26 -20 -36 -11 -10 -20 -27 -20 -37 0 -11 -9 -31 -20 -45 -12 -16 -20 -41 -20 -65 0 -21 -9 -58 -20 -80 -12 -24 -20 -62 -20 -90 0 -34 -5 -50 -15 -54 -21 -8 -19 -38 5 -59 12 -11 20 -31 20 -52 0 -18 10 -55 22 -81 13 -26 21 -55 20 -65 -2 -10 7 -37 21 -60 13 -23 22 -50 19 -60 -2 -10 7 -37 20 -60 14 -23 23 -50 20 -59 -2 -10 6 -31 17 -47 12 -16 21 -42 21 -59 0 -16 6 -35 14 -41 7 -6 19 -31 26 -56 7 -25 19 -50 26 -56 8 -6 14 -26 14 -44 0 -19 8 -39 20 -50 11 -10 20 -26 20 -36 0 -10 11 -39 25 -65 14 -26 25 -53 25 -59 0 -7 7 -18 15 -25 8 -7 15 -25 15 -40 0 -15 9 -35 20 -45 11 -10 20 -26 20 -35 0 -10 9 -29 20 -43 11 -14 20 -36 20 -50 0 -13 9 -32 20 -42 11 -10 20 -28 20 -40 0 -12 9 -30 20 -40 11 -10 20 -26 20 -35 0 -9 9 -25 20 -35 11 -10 20 -28 20 -40 0 -12 9 -30 20 -40 11 -10 20 -24 20 -30 0 -7 9 -23 19 -37 11 -13 23 -36 26 -51 4 -14 13 -28 21 -31 8 -3 14 -14 14 -25 0 -11 9 -29 20 -39 12 -11 18 -26 14 -35 -3 -10 4 -21 20 -32 14 -10 26 -26 26 -37 0 -18 26 -57 65 -99 8 -9 15 -25 15 -36 0 -11 9 -28 20 -38 11 -10 20 -26 20 -35 0 -15 18 -41 65 -91 8 -9 15 -23 15 -31 0 -13 19 -40 65 -89 8 -9 15 -22 15 -31 0 -8 20 -37 44 -63 24 -27 42 -55 39 -61 -3 -7 15 -34 38 -59 24 -26 43 -55 44 -66 1 -11 19 -38 40 -59 21 -22 39 -49 40 -60 1 -12 18 -38 38 -58 21 -21 37 -45 37 -54 0 -9 7 -24 16 -33 26 -25 54 -86 54 -115 0 -51 -25 -107 -62 -139 -24 -21 -38 -42 -38 -57 0 -16 -16 -40 -45 -68 -33 -31 -44 -48 -39 -60 5 -13 -5 -29 -36 -58 -24 -23 -44 -52 -46 -65 -1 -14 -21 -43 -43 -65 -23 -22 -41 -49 -41 -60 0 -12 -18 -39 -40 -60 -22 -22 -40 -47 -40 -56 0 -9 -18 -37 -40 -61 -22 -25 -40 -52 -40 -60 0 -9 -18 -36 -40 -60 -22 -25 -40 -52 -40 -61 0 -9 -18 -34 -41 -55 -22 -22 -49 -58 -59 -80 -10 -22 -28 -49 -40 -60 -12 -11 -30 -38 -40 -60 -10 -22 -28 -49 -40 -60 -12 -11 -30 -38 -40 -60 -10 -22 -30 -51 -44 -65 -15 -13 -24 -30 -21 -37 2 -8 -2 -16 -10 -19 -8 -4 -15 -11 -15 -17 0 -6 -14 -26 -32 -44 -24 -25 -29 -36 -21 -44 9 -9 0 -23 -33 -57 -28 -27 -43 -50 -39 -59 3 -9 -11 -31 -37 -56 -23 -22 -42 -48 -43 -56 -1 -18 -6 -21 -37 -21 -28 0 -151 151 -142 174 3 9 -5 21 -20 31 -15 10 -26 27 -26 40 0 12 -9 30 -20 40 -11 10 -20 24 -20 30 0 7 -9 24 -20 38 -11 14 -20 32 -20 40 0 8 -9 26 -20 40 -11 14 -20 32 -20 40 0 8 -9 26 -20 40 -11 14 -20 32 -20 40 0 8 -9 26 -20 40 -11 14 -20 36 -20 50 0 13 -9 32 -20 42 -11 10 -20 26 -20 36 0 10 -11 31 -24 47 -16 18 -23 36 -20 49 4 15 -1 26 -20 38 -19 12 -25 23 -21 36 4 11 -2 31 -14 48 -12 16 -21 38 -21 49 0 10 -9 31 -20 45 -11 14 -20 37 -20 51 0 16 -9 31 -23 41 -18 11 -23 22 -19 44 3 23 -2 33 -22 46 -22 15 -25 23 -21 49 5 24 2 36 -14 50 -12 11 -21 29 -21 42 0 12 -11 36 -25 52 -16 19 -23 36 -19 47 4 10 -2 28 -15 45 -11 16 -21 40 -21 54 0 13 -11 38 -24 54 -17 19 -23 36 -19 50 3 13 -3 31 -16 48 -12 15 -21 37 -21 50 0 12 -11 36 -25 52 -19 22 -24 37 -19 59 4 21 0 33 -15 47 -12 11 -21 29 -21 42 0 12 -11 36 -24 52 -17 19 -23 36 -19 50 3 13 -3 31 -16 48 -12 15 -21 37 -21 50 0 12 -11 36 -25 52 -19 22 -24 37 -19 59 4 21 0 33 -15 47 -13 12 -21 31 -21 50 0 17 -9 45 -20 61 -11 17 -20 42 -20 56 0 30 -25 95 -40 104 -6 4 -7 22 -4 44 4 28 1 46 -15 72 -13 21 -21 51 -21 80 0 25 -11 77 -24 115 -13 40 -21 83 -19 101 3 18 -1 41 -10 54 -9 13 -19 51 -22 84 -4 33 -13 74 -20 91 -7 17 -16 64 -20 105 -4 41 -12 85 -17 99 -35 91 -35 634 1 699 7 13 11 37 8 54 -2 17 6 63 19 102 12 38 26 97 29 130 4 33 14 72 21 86 7 15 13 42 12 60 0 19 9 55 21 81 11 26 21 63 21 84 0 20 9 52 21 71 12 18 19 42 16 52 -2 11 6 38 19 61 13 23 24 54 24 69 0 14 9 41 20 59 11 18 20 45 20 60 0 15 9 42 21 61 11 18 19 44 17 56 -2 14 7 34 21 49 17 18 22 32 17 49 -4 17 0 29 13 41 10 9 21 34 25 55 3 21 15 50 27 65 14 18 19 35 15 50 -4 18 0 28 19 40 18 12 25 25 25 50 0 18 6 39 14 45 8 7 18 25 21 41 3 16 13 34 21 41 8 6 14 17 14 24 0 6 11 34 26 60 14 26 23 54 20 61 -3 8 6 21 20 30 18 12 24 24 22 43 -2 20 1 26 17 26 14 0 20 8 22 28 1 15 11 39 22 54 12 14 21 31 21 36 0 6 12 21 28 33 21 17 24 25 15 34 -9 9 -1 23 34 57 24 25 42 50 40 57 -3 7 15 34 39 61 25 27 42 55 40 62 -3 8 15 33 40 58 32 30 45 49 40 61 -4 11 7 27 35 53 23 20 43 47 44 59 1 13 30 52 70 92 45 45 66 73 62 84 -7 16 106 126 129 126 7 0 43 29 79 65 37 36 71 62 76 59 5 -3 32 14 60 37 28 24 60 44 71 44 11 1 25 9 30 18 5 10 19 17 32 17 13 0 31 9 41 20 10 11 31 20 46 20 19 0 34 8 45 25 14 21 22 24 48 20 24 -5 36 -2 50 14 13 14 31 21 55 21 20 0 53 11 76 24 28 17 48 23 72 19 20 -3 39 0 49 7 14 13 129 31 309 49 91 10 345 4 390 -9z m1209 -7502 c9 -12 16 -30 16 -39 0 -9 9 -24 20 -34 11 -10 20 -23 20 -29 0 -12 51 -89 63 -94 4 -2 17 -23 29 -45 11 -23 35 -59 52 -79 18 -20 38 -50 46 -65 8 -15 33 -50 56 -78 22 -27 47 -61 54 -75 7 -14 37 -53 66 -87 30 -33 54 -65 54 -70 0 -6 30 -43 66 -84 36 -41 77 -92 91 -114 15 -22 57 -74 95 -116 37 -42 68 -81 68 -87 0 -5 43 -57 96 -114 52 -56 103 -117 112 -134 9 -18 64 -82 122 -144 58 -61 112 -125 121 -141 9 -16 63 -79 120 -140 57 -61 121 -135 142 -163 22 -28 94 -109 160 -180 67 -71 133 -145 147 -166 21 -31 236 -266 316 -344 11 -12 38 -43 59 -71 31 -41 300 -331 381 -410 11 -11 38 -42 59 -70 36 -47 370 -399 502 -529 34 -34 69 -74 77 -91 9 -16 114 -129 234 -250 121 -121 225 -230 231 -242 16 -31 14 -108 -3 -122 -8 -6 -38 -14 -67 -18 -30 -3 -71 -14 -91 -24 -21 -11 -48 -19 -60 -19 -13 0 -40 -9 -61 -20 -20 -11 -47 -20 -59 -20 -13 0 -37 -8 -53 -18 -17 -11 -47 -22 -67 -26 -20 -3 -41 -13 -48 -21 -7 -8 -22 -15 -35 -15 -12 0 -30 -9 -40 -20 -10 -11 -28 -20 -39 -20 -26 0 -40 -9 -54 -36 -8 -15 -18 -20 -39 -17 -20 3 -34 -2 -47 -16 -11 -12 -24 -21 -30 -21 -14 0 -340 -163 -362 -180 -9 -8 -26 -15 -37 -17 -12 -2 -28 -12 -36 -23 -7 -11 -21 -20 -31 -20 -9 0 -29 -9 -43 -20 -14 -11 -32 -20 -40 -20 -8 0 -20 -6 -26 -14 -15 -18 -87 -56 -105 -56 -7 0 -21 -9 -31 -20 -10 -11 -23 -20 -29 -20 -5 0 -36 -18 -67 -40 -32 -22 -62 -40 -68 -40 -6 0 -28 -15 -48 -34 -21 -18 -51 -40 -68 -49 -16 -8 -55 -38 -87 -66 -63 -57 -101 -65 -145 -31 -14 11 -36 20 -50 20 -13 0 -26 7 -29 15 -3 8 -21 17 -40 21 -29 5 -70 34 -49 34 5 0 0 9 -10 20 -10 11 -21 20 -26 20 -12 0 -114 99 -332 320 -111 112 -221 223 -244 246 -23 23 -47 53 -55 67 -7 14 -67 82 -133 150 -145 151 -185 196 -185 208 0 5 -39 51 -86 101 -47 51 -97 110 -110 130 -13 21 -61 77 -105 125 -44 49 -89 104 -99 123 -11 19 -47 64 -80 100 -33 36 -68 79 -77 95 -9 17 -40 57 -70 90 -30 33 -63 76 -73 95 -10 19 -39 58 -65 85 -25 28 -53 64 -62 80 -9 17 -40 58 -70 93 -29 35 -53 67 -53 72 0 5 -25 38 -55 74 -30 35 -55 69 -55 74 0 6 -25 39 -55 75 -30 35 -55 69 -55 76 0 6 -17 30 -39 54 -21 23 -46 58 -56 77 -10 19 -38 58 -61 86 -24 28 -44 56 -44 62 0 6 -20 36 -45 66 -25 31 -45 60 -45 65 0 5 -18 32 -40 60 -22 28 -40 55 -40 60 0 5 -18 32 -40 60 -22 28 -40 53 -40 56 0 3 -15 27 -34 54 -48 68 -49 96 -3 155 20 27 37 53 37 58 0 5 15 29 34 52 19 23 40 53 45 66 6 14 27 45 45 70 19 25 35 49 35 54 1 5 12 24 26 42 14 18 25 36 25 40 0 3 16 29 36 57 20 28 37 56 38 63 1 7 9 21 17 31 27 33 69 99 69 109 0 6 9 19 20 29 11 10 20 25 20 32 0 8 9 26 20 40 11 14 20 31 20 38 0 7 7 18 15 25 8 7 26 37 41 69 14 31 33 63 41 73 8 9 15 23 17 30 1 8 12 27 24 42 12 16 22 34 22 41 0 6 9 20 20 30 11 10 20 26 20 35 0 9 9 25 20 35 11 10 20 23 20 28 0 16 49 115 60 122 6 3 10 14 10 24 0 10 9 30 20 44 11 14 20 31 20 38 0 7 10 23 22 36 12 12 22 31 23 41 0 11 11 31 23 47 12 15 22 34 22 42 0 8 9 26 20 40 11 14 20 32 20 40 0 8 9 26 20 40 11 14 20 32 20 40 0 8 9 26 20 40 11 14 20 33 20 41 0 9 8 24 17 34 9 10 17 28 19 41 1 12 3 23 3 25 1 1 12 2 25 2 14 0 32 -10 40 -22z"/>
</g>
</g>
  <g id="id1:id1" transform="matrix(1.25,0,0,1.25,0.0,0.0)"><g transform="translate(0.000000,572.800000) scale(0.040000,-0.040000)" fill="#d4af37" stroke="none">
<path d="M5910 13609 c-41 -4 -104 -13 -140 -19 -36 -6 -83 -11 -104 -11 -22 1 -51 -6 -64 -15 -16 -11 -36 -14 -59 -11 -26 5 -42 1 -63 -15 -15 -11 -50 -23 -76 -25 -29 -3 -58 -14 -71 -25 -15 -14 -30 -19 -46 -14 -18 4 -30 -1 -47 -19 -15 -16 -34 -25 -55 -25 -19 0 -39 -8 -50 -20 -10 -11 -28 -20 -40 -20 -13 0 -28 -7 -35 -15 -7 -8 -18 -15 -24 -15 -7 0 -23 -11 -36 -25 -16 -17 -30 -23 -42 -19 -14 4 -31 -8 -63 -44 -26 -28 -56 -52 -72 -55 -18 -4 -70 -47 -143 -119 -117 -116 -150 -156 -150 -182 0 -8 -21 -32 -46 -55 -34 -30 -44 -45 -40 -59 5 -15 -5 -30 -40 -61 -32 -28 -44 -46 -40 -57 4 -10 -7 -31 -29 -57 -19 -22 -35 -47 -35 -55 0 -8 -18 -34 -40 -59 -22 -25 -40 -54 -40 -64 0 -10 -11 -26 -23 -36 -23 -17 -41 -49 -83 -138 -11 -22 -32 -54 -47 -72 -16 -18 -25 -37 -22 -44 4 -6 -5 -23 -20 -39 -15 -16 -24 -33 -20 -39 7 -12 -77 -193 -104 -224 -8 -10 -14 -31 -13 -46 1 -18 -6 -35 -23 -51 -18 -17 -23 -30 -19 -46 4 -15 -1 -32 -15 -50 -12 -15 -21 -37 -21 -50 0 -12 -11 -35 -24 -51 -16 -19 -23 -37 -19 -54 3 -17 -2 -31 -16 -43 -13 -12 -21 -31 -21 -52 0 -19 -9 -48 -20 -66 -11 -18 -20 -45 -20 -60 0 -15 -9 -42 -20 -60 -11 -18 -20 -45 -20 -60 0 -15 -9 -42 -20 -60 -11 -18 -20 -46 -20 -63 0 -16 -9 -43 -20 -60 -11 -17 -20 -47 -20 -70 0 -22 -9 -60 -20 -84 -11 -24 -20 -59 -20 -78 0 -19 -5 -44 -12 -56 -7 -12 -13 -35 -15 -52 -4 -51 -21 -128 -37 -175 -9 -25 -16 -64 -16 -88 0 -24 -5 -53 -11 -64 -21 -39 -40 -452 -22 -481 3 -5 5 -36 4 -68 -1 -32 5 -87 13 -121 8 -35 17 -92 21 -128 4 -36 12 -76 18 -90 10 -24 24 -94 31 -153 1 -15 8 -33 14 -39 7 -7 12 -32 12 -58 0 -25 9 -69 20 -98 11 -29 20 -75 20 -103 0 -34 8 -65 24 -96 20 -36 22 -50 14 -68 -8 -18 -6 -29 11 -52 12 -16 25 -51 29 -79 5 -28 16 -61 25 -75 9 -13 17 -40 17 -60 0 -24 7 -42 21 -55 14 -12 18 -25 14 -42 -4 -16 2 -32 20 -53 14 -17 25 -43 25 -58 0 -16 9 -36 21 -47 14 -12 19 -26 16 -43 -4 -17 3 -35 19 -54 13 -16 24 -41 24 -56 0 -15 9 -36 21 -47 14 -12 18 -25 14 -42 -4 -16 2 -32 20 -53 14 -17 25 -43 25 -58 0 -16 9 -36 21 -47 15 -13 19 -26 15 -45 -4 -20 2 -34 19 -54 14 -14 25 -36 25 -48 0 -12 9 -37 20 -55 12 -19 18 -42 15 -51 -3 -11 5 -28 20 -45 14 -15 25 -39 25 -55 0 -15 9 -36 20 -46 15 -14 19 -26 15 -46 -5 -22 0 -33 23 -53 21 -20 28 -33 24 -54 -2 -19 3 -33 17 -46 12 -11 21 -29 21 -42 0 -13 4 -26 10 -29 17 -11 70 -133 64 -148 -3 -10 5 -25 20 -38 17 -15 24 -29 21 -40 -4 -12 3 -26 19 -40 18 -15 26 -33 26 -54 0 -19 8 -39 20 -50 11 -10 20 -27 20 -37 0 -11 9 -31 20 -45 11 -14 20 -32 20 -40 0 -8 9 -26 20 -40 11 -14 20 -32 20 -40 0 -8 9 -26 20 -40 11 -14 20 -32 20 -40 0 -8 9 -26 20 -40 11 -14 20 -33 20 -43 0 -9 9 -25 19 -34 11 -10 21 -32 23 -50 2 -19 9 -31 18 -31 10 0 14 -8 12 -22 -2 -14 4 -26 18 -33 11 -6 30 -32 42 -58 33 -72 64 -97 121 -98 67 -1 74 -13 32 -54 -19 -19 -35 -44 -35 -56 0 -14 -24 -45 -67 -85 -71 -67 -103 -108 -103 -132 0 -8 -23 -35 -50 -60 -31 -29 -53 -58 -56 -76 -4 -20 -29 -52 -74 -93 -61 -57 -112 -128 -93 -128 5 0 -29 -36 -74 -80 -58 -56 -83 -87 -83 -104 0 -17 -26 -48 -90 -108 -49 -47 -99 -101 -110 -121 -12 -19 -28 -38 -36 -41 -9 -3 -14 -12 -11 -20 4 -9 -30 -49 -86 -104 -105 -102 -161 -168 -153 -181 3 -4 -45 -58 -107 -119 -134 -133 -212 -220 -212 -239 0 -8 -86 -99 -190 -203 -240 -237 -410 -418 -410 -436 0 -20 -566 -584 -586 -584 -9 0 -52 -37 -95 -82 -112 -115 -124 -127 -143 -133 -9 -3 -99 -91 -200 -195 -100 -105 -190 -190 -199 -190 -20 -1 -62 -34 -62 -49 0 -5 -19 -22 -42 -35 -24 -14 -87 -73 -141 -131 -54 -58 -106 -105 -115 -105 -25 0 -99 -63 -207 -177 -53 -57 -101 -101 -105 -98 -15 9 -65 -28 -120 -88 -47 -52 -53 -63 -57 -112 l-4 -55 35 0 c22 0 45 -9 63 -24 21 -17 36 -23 57 -19 16 3 46 -2 74 -14 56 -24 134 -51 180 -63 19 -5 44 -17 55 -28 16 -14 31 -18 53 -15 23 4 38 -2 61 -21 18 -15 38 -24 47 -20 8 3 31 -3 49 -15 19 -12 45 -21 59 -21 13 0 35 -11 48 -25 15 -16 30 -23 42 -19 10 3 33 -4 52 -15 18 -12 44 -21 58 -21 13 0 35 -11 48 -25 14 -15 30 -23 40 -20 10 3 25 -5 39 -20 14 -17 28 -24 40 -20 17 5 135 -47 146 -66 4 -5 19 -9 35 -9 19 0 33 -7 40 -20 7 -14 21 -20 44 -20 22 0 40 -8 56 -25 14 -15 30 -23 40 -20 10 3 25 -5 39 -20 14 -17 28 -24 40 -20 11 3 25 -4 40 -20 14 -17 28 -24 40 -20 11 3 25 -4 40 -20 14 -17 28 -24 40 -20 11 3 25 -4 40 -20 14 -17 28 -24 40 -20 11 3 25 -4 39 -20 12 -14 28 -25 36 -25 7 0 19 -7 26 -15 7 -8 25 -15 41 -15 18 0 32 -7 39 -20 6 -11 17 -20 25 -20 8 0 43 -15 77 -33 60 -32 68 -34 158 -33 80 1 101 -2 135 -20 27 -15 55 -21 85 -20 39 2 51 8 87 45 38 39 42 41 52 24 10 -16 24 -4 134 111 135 143 533 541 764 764 132 127 146 144 129 153 -17 10 -11 18 55 85 40 41 78 74 84 74 15 0 175 175 175 192 0 7 45 56 100 109 74 71 100 102 100 121 0 18 19 42 65 86 72 67 135 145 135 166 0 7 25 36 55 64 34 32 58 63 61 81 4 19 34 56 85 105 54 53 79 84 79 100 0 15 19 41 55 74 35 32 58 63 61 82 4 18 27 48 60 80 34 31 57 61 60 80 4 18 27 48 60 80 34 31 57 61 61 80 3 19 24 47 55 75 37 33 49 50 45 65 -3 14 9 31 44 64 26 24 51 57 55 73 3 15 24 46 45 68 26 27 39 49 38 65 -1 14 6 39 15 55 9 17 16 35 16 42 0 6 15 31 33 55 18 24 77 109 131 190 54 81 109 159 122 173 13 15 30 41 38 58 7 18 28 47 45 66 17 19 31 40 31 47 0 6 19 37 43 67 23 31 60 85 82 121 22 37 66 103 97 149 32 45 67 101 79 125 12 24 32 50 45 59 13 8 24 24 24 34 0 26 49 95 66 91 19 -4 29 25 15 42 -15 18 -3 27 20 13 26 -16 34 -2 22 38 -12 38 -2 55 22 35 18 -15 31 6 15 25 -15 18 2 45 27 45 11 0 14 7 10 27 -4 21 2 36 26 63 17 19 37 34 45 32 11 -3 13 3 9 26 -5 22 -1 34 14 48 11 9 34 46 51 82 17 35 43 71 56 80 17 11 22 22 19 39 -3 18 2 29 20 40 18 12 23 22 19 39 -4 15 0 27 12 36 18 12 46 60 71 118 6 14 15 32 20 40 5 8 27 54 50 101 22 47 52 95 66 108 18 15 24 28 20 41 -4 13 2 24 20 36 20 13 25 23 21 40 -5 18 0 28 20 40 19 13 24 23 20 40 -5 18 0 28 20 40 19 13 24 23 20 40 -5 18 0 27 19 40 21 14 25 22 20 46 -6 24 -3 30 13 35 22 5 36 29 26 45 -6 10 51 133 66 143 6 4 10 14 10 24 0 10 9 30 20 44 11 14 20 37 20 51 0 14 11 37 25 52 15 16 23 34 20 44 -3 10 5 25 20 38 18 16 24 28 20 45 -4 15 1 32 14 49 12 14 21 35 21 46 0 10 9 27 20 37 12 11 20 31 20 50 0 21 8 38 25 53 19 17 23 28 19 49 -4 21 0 34 15 47 13 12 21 31 21 51 0 21 8 38 25 53 19 17 23 28 19 49 -4 21 0 34 15 47 13 12 21 31 21 52 0 19 9 48 20 66 11 18 20 43 20 54 0 12 9 33 21 48 11 14 22 44 23 66 2 24 12 50 24 63 14 15 19 30 15 47 -3 18 2 31 16 44 15 13 21 31 21 60 0 23 8 55 18 71 10 17 21 50 25 73 3 24 12 51 21 61 9 10 16 33 16 52 0 19 9 54 20 78 11 24 20 54 20 67 0 13 9 38 20 56 11 18 20 51 20 73 0 22 9 60 20 84 11 24 20 56 20 72 0 16 9 52 20 81 11 29 20 68 20 86 0 18 7 49 17 70 9 20 19 64 23 97 10 78 37 215 57 285 9 30 19 93 23 140 4 47 13 101 19 120 6 19 10 49 10 65 0 17 5 75 12 130 25 195 9 545 -27 602 -8 12 -14 33 -14 45 0 13 -9 47 -21 77 -11 30 -18 64 -15 75 3 13 -3 29 -16 43 -14 15 -22 37 -23 63 0 23 -9 47 -20 60 -11 12 -19 37 -20 60 0 23 -9 47 -19 59 -12 13 -21 42 -24 73 -2 29 -10 60 -16 68 -25 31 -68 129 -61 139 3 6 -5 25 -19 42 -15 17 -26 43 -26 59 0 16 -4 31 -9 35 -19 11 -71 129 -66 146 4 12 -3 26 -20 40 -16 15 -23 29 -20 40 4 12 -3 26 -19 40 -18 16 -26 33 -26 55 0 23 -6 37 -20 44 -13 7 -20 21 -20 40 0 16 -4 31 -9 35 -12 7 -71 124 -71 140 0 7 -9 20 -21 31 -14 13 -19 26 -15 44 5 30 -2 44 -28 53 -13 5 -17 14 -12 31 4 16 -1 29 -17 44 -13 12 -43 61 -66 110 -24 48 -47 94 -52 102 -5 8 -13 24 -18 35 -5 11 -18 29 -30 39 -14 13 -19 26 -15 42 5 19 1 26 -20 34 -14 5 -26 17 -26 25 0 29 -39 92 -60 98 -11 3 -20 13 -20 22 0 31 -32 78 -95 137 -35 33 -67 69 -71 80 -7 24 -210 228 -226 228 -6 0 -37 25 -69 55 -32 30 -64 55 -72 55 -8 0 -37 18 -63 40 -27 23 -60 43 -74 47 -14 3 -36 12 -48 20 -13 8 -45 20 -70 28 -50 14 -87 26 -167 56 -28 11 -65 19 -83 19 -18 0 -49 7 -68 15 -20 8 -50 15 -68 14 -17 0 -71 5 -121 11 -228 27 -340 32 -465 19z m422 -1653 c29 -7 78 -12 108 -11 43 3 66 -2 102 -21 26 -13 65 -24 86 -24 28 0 45 -7 61 -24 20 -21 27 -23 47 -14 21 10 28 8 50 -13 16 -15 38 -24 57 -24 24 0 35 -6 42 -23 6 -15 16 -21 27 -19 9 3 25 -4 35 -15 10 -11 28 -24 40 -29 15 -6 20 -14 16 -28 -7 -26 5 -27 23 -3 13 15 20 11 81 -54 38 -40 80 -86 95 -103 15 -17 32 -31 36 -31 19 0 119 -107 141 -150 12 -25 29 -56 36 -70 38 -70 55 -114 55 -142 0 -17 9 -61 20 -98 15 -51 19 -86 16 -141 -4 -58 -2 -75 10 -84 14 -10 14 -15 1 -47 -8 -19 -20 -39 -26 -42 -6 -4 -8 -20 -5 -35 4 -18 -2 -46 -15 -76 -12 -26 -21 -58 -21 -71 0 -13 -9 -38 -20 -56 -11 -18 -20 -44 -20 -58 0 -14 -11 -47 -25 -74 -14 -27 -25 -57 -25 -66 0 -9 -9 -25 -20 -35 -12 -10 -18 -25 -15 -33 6 -15 -36 -111 -66 -150 -10 -12 -15 -31 -12 -43 4 -14 -2 -29 -21 -45 -20 -19 -25 -31 -20 -49 5 -19 1 -27 -12 -32 -26 -9 -34 -24 -28 -49 4 -15 -2 -26 -20 -38 -21 -13 -25 -22 -20 -42 4 -15 1 -31 -8 -42 -8 -9 -25 -39 -38 -66 -13 -27 -36 -64 -52 -81 -15 -18 -26 -39 -23 -47 3 -8 -6 -24 -20 -36 -19 -17 -24 -28 -19 -47 5 -19 1 -27 -12 -32 -25 -9 -35 -24 -29 -44 3 -8 -6 -25 -20 -38 -17 -14 -24 -28 -20 -40 3 -11 -3 -25 -16 -37 -12 -10 -25 -28 -30 -39 -5 -11 -13 -27 -18 -35 -5 -8 -14 -26 -20 -40 -6 -14 -15 -32 -20 -40 -5 -8 -18 -35 -29 -60 -12 -25 -33 -57 -47 -70 -16 -15 -23 -30 -20 -41 4 -10 -2 -23 -12 -31 -29 -22 -63 -75 -63 -100 0 -13 -9 -31 -20 -41 -11 -9 -20 -23 -20 -30 0 -8 -11 -24 -25 -37 -14 -13 -23 -30 -20 -38 3 -8 -9 -30 -26 -50 -17 -19 -37 -49 -44 -66 -8 -17 -23 -40 -35 -51 -11 -10 -18 -25 -15 -33 3 -8 -9 -30 -26 -50 -17 -19 -37 -49 -44 -66 -8 -17 -23 -40 -35 -51 -11 -10 -18 -25 -15 -33 3 -7 -11 -32 -30 -55 -19 -22 -35 -47 -35 -54 0 -8 -10 -24 -22 -37 -36 -36 -68 -84 -68 -100 0 -9 -12 -23 -26 -32 -19 -13 -24 -23 -20 -40 5 -17 -1 -28 -21 -44 -38 -29 -49 -21 -45 34 4 44 -6 78 -39 136 -5 8 -13 24 -18 35 -5 11 -18 29 -30 39 -14 13 -19 26 -15 38 4 14 -7 30 -40 60 -35 30 -45 45 -40 60 4 14 -6 29 -40 60 -35 30 -45 45 -40 60 4 15 -5 28 -36 56 -24 20 -49 52 -57 71 -9 20 -31 53 -49 74 -19 20 -34 44 -34 51 0 8 -18 36 -40 61 -22 25 -40 52 -40 59 0 7 -16 31 -35 53 -19 23 -33 47 -30 55 3 8 -6 25 -20 38 -14 13 -25 29 -25 35 0 7 -9 20 -20 30 -11 10 -20 29 -20 42 0 25 -33 79 -63 101 -11 9 -16 21 -12 32 4 12 -1 23 -15 33 -22 15 -70 99 -70 122 0 8 -9 19 -20 25 -13 7 -20 21 -20 39 0 16 -7 34 -15 41 -8 7 -15 18 -15 24 0 7 -11 23 -25 36 -16 15 -23 30 -20 41 4 12 -3 26 -20 41 -14 12 -23 28 -20 36 3 8 -6 27 -20 44 -14 16 -25 42 -25 58 0 19 -7 33 -20 40 -13 7 -20 21 -20 40 0 16 -4 31 -9 35 -19 11 -71 129 -66 146 4 12 -3 26 -19 40 -18 16 -26 33 -26 55 0 18 -4 36 -10 39 -17 11 -70 132 -70 162 0 18 -9 38 -21 49 -14 13 -19 26 -16 44 4 17 -2 32 -16 48 -13 14 -21 37 -22 62 0 23 -9 47 -20 60 -11 12 -19 37 -20 58 -1 20 -11 53 -23 72 -12 19 -22 51 -22 70 0 19 -9 50 -21 69 -19 31 -19 34 -3 52 12 13 15 28 10 51 -4 24 1 48 19 86 14 30 25 72 25 94 0 32 4 41 21 45 17 5 20 11 15 34 -4 23 -1 32 19 45 16 10 25 26 25 41 0 18 15 40 50 72 108 98 229 223 235 240 7 24 85 76 108 72 9 -1 17 4 17 12 0 23 29 42 42 29 21 -21 39 -14 36 14 -2 22 1 27 19 29 13 1 31 9 41 18 10 9 25 17 32 17 8 0 31 12 51 26 31 21 41 24 58 14 24 -12 41 -6 41 15 0 18 28 34 51 28 9 -3 38 7 63 22 34 20 53 25 75 20 20 -4 41 0 67 14 27 15 58 21 99 21 33 0 83 7 110 14 69 20 365 21 437 2z m-317 -4127 c-15 -28 -47 -39 -59 -20 -8 12 53 63 65 55 5 -3 2 -18 -6 -35z m-51 -78 c3 -4 -4 -17 -15 -27 -12 -11 -25 -30 -30 -43 l-10 -24 -19 18 -20 18 33 33 c32 34 51 42 61 25z m-80 -120 c3 -4 -6 -19 -19 -31 -16 -15 -23 -30 -20 -41 4 -10 -2 -23 -12 -31 -23 -17 -53 -63 -53 -82 0 -8 -10 -23 -22 -33 -31 -25 -68 -79 -68 -97 0 -9 -12 -23 -26 -32 -19 -13 -24 -23 -20 -40 5 -18 -4 -31 -41 -64 -39 -34 -45 -44 -36 -59 9 -14 4 -23 -28 -50 -24 -20 -39 -41 -39 -55 0 -12 -17 -38 -40 -61 -23 -22 -40 -49 -40 -61 0 -14 -19 -39 -51 -68 -38 -34 -49 -50 -44 -65 4 -14 -5 -28 -37 -55 -23 -20 -51 -56 -63 -79 -11 -24 -35 -61 -53 -82 -17 -22 -32 -47 -32 -56 0 -10 -22 -37 -48 -61 -27 -23 -51 -51 -55 -60 -7 -20 -32 -24 -43 -6 -4 6 3 20 17 32 14 12 34 39 44 61 11 22 34 54 51 72 17 17 35 44 38 59 4 16 23 43 42 62 18 18 37 45 40 60 4 15 21 41 39 59 18 17 36 44 39 59 4 16 22 43 40 60 19 18 37 45 40 60 4 16 23 45 42 66 19 21 34 45 34 53 0 9 12 28 26 42 15 15 37 48 51 74 13 27 29 52 36 56 17 11 47 59 47 77 0 8 10 23 23 33 25 21 57 67 57 84 0 6 18 31 40 56 22 25 40 53 40 61 0 19 69 92 86 92 7 0 15 -4 18 -9z m-884 -1306 c11 -13 9 -20 -11 -41 -29 -32 -76 -57 -83 -45 -3 4 6 19 20 32 15 13 30 34 35 47 10 26 22 28 39 7z m-706 -4536 c-15 -15 -31 -26 -36 -23 -5 4 3 19 18 35 15 15 31 26 36 23 5 -4 -3 -19 -18 -35z m-900 -900 c-3 -5 -10 -7 -15 -3 -5 3 -7 10 -3 15 3 5 10 7 15 3 5 -3 7 -10 3 -15z m-35 -35 c-6 -7 -15 -11 -21 -8 -5 3 -4 12 3 20 6 7 15 11 21 8 5 -3 4 -12 -3 -20z"/>
<path d="M7422 6107 c-6 -7 -9 -23 -5 -36 4 -17 1 -23 -16 -28 -16 -4 -21 -13 -21 -39 0 -27 -5 -36 -23 -43 -20 -8 -23 -15 -19 -41 4 -26 1 -32 -17 -37 -16 -4 -21 -13 -21 -40 0 -26 -5 -36 -20 -40 -15 -4 -20 -14 -20 -40 0 -26 -5 -36 -20 -40 -20 -5 -24 -13 -21 -45 1 -9 -7 -23 -18 -30 -12 -7 -21 -23 -21 -35 0 -13 -9 -32 -20 -43 -11 -11 -20 -30 -20 -42 0 -14 -20 -40 -51 -70 -42 -40 -49 -51 -39 -63 16 -19 8 -40 -16 -40 -15 0 -19 -6 -16 -33 2 -27 -2 -34 -24 -42 -21 -8 -25 -15 -20 -35 4 -17 0 -28 -15 -39 -12 -8 -23 -27 -25 -43 -1 -18 -17 -41 -44 -65 -34 -30 -40 -41 -34 -62 5 -22 2 -27 -21 -36 -22 -8 -26 -15 -21 -33 4 -17 -5 -32 -46 -69 -43 -40 -49 -49 -39 -62 17 -20 9 -41 -15 -41 -14 0 -19 -7 -19 -29 0 -21 -12 -39 -48 -71 -30 -26 -44 -45 -38 -49 19 -12 12 -36 -14 -46 -20 -8 -24 -14 -20 -33 5 -20 -2 -32 -40 -65 -35 -31 -45 -46 -41 -60 5 -15 -5 -30 -40 -60 -34 -31 -44 -46 -40 -60 5 -15 -5 -30 -40 -60 -33 -30 -44 -46 -40 -60 4 -12 -2 -26 -17 -41 -32 -29 -29 -97 4 -121 16 -13 20 -23 14 -39 -5 -18 2 -30 39 -63 35 -30 45 -45 40 -60 -4 -14 6 -29 40 -59 36 -32 45 -46 40 -63 -4 -17 4 -29 41 -56 39 -29 45 -38 40 -60 -5 -22 1 -31 40 -60 38 -29 45 -39 40 -58 -5 -20 5 -34 59 -84 52 -48 65 -65 60 -82 -4 -17 5 -29 40 -56 47 -35 54 -48 35 -67 -12 -12 5 -31 84 -91 43 -33 47 -39 41 -69 -5 -26 -3 -33 10 -33 9 0 19 -6 22 -14 3 -7 25 -28 50 -46 39 -30 44 -37 39 -64 -5 -28 0 -35 60 -81 66 -50 74 -62 54 -82 -8 -8 -2 -19 22 -40 18 -15 59 -52 91 -82 50 -47 56 -57 51 -82 -4 -21 -2 -29 8 -29 8 0 27 -14 43 -31 16 -17 40 -38 53 -46 20 -13 22 -21 17 -49 -3 -19 -2 -34 2 -34 5 0 28 -18 51 -39 23 -21 45 -40 50 -42 5 -2 29 -27 55 -55 34 -36 46 -56 42 -70 -4 -16 13 -37 78 -95 70 -62 83 -78 81 -101 -3 -28 22 -56 132 -149 86 -74 154 -153 149 -175 -4 -16 17 -42 100 -120 58 -54 256 -249 440 -432 256 -254 340 -332 358 -332 14 0 33 -9 43 -20 10 -11 30 -20 44 -20 15 0 34 -9 44 -20 30 -36 78 -27 144 28 32 26 83 65 115 85 31 21 62 44 68 52 7 8 18 15 24 15 7 0 36 17 64 37 74 54 117 80 144 88 13 3 33 11 45 17 16 8 26 8 36 0 10 -9 23 0 56 39 31 37 48 48 61 44 13 -4 24 2 36 20 12 19 23 25 38 21 25 -6 40 2 49 28 5 14 13 17 32 12 19 -5 31 0 52 23 39 43 239 142 269 135 19 -5 26 -1 34 21 9 23 14 26 39 20 26 -5 32 -2 46 24 9 18 23 31 34 31 10 0 30 9 44 20 14 11 34 20 45 20 10 0 31 9 45 20 14 11 36 20 49 20 12 0 37 9 53 20 17 11 39 20 50 20 12 0 38 9 60 20 22 11 48 20 59 20 11 0 38 9 60 19 23 11 67 22 99 26 83 10 101 30 94 107 -3 32 -11 65 -17 73 -9 11 -9 19 -2 28 9 10 -42 65 -221 240 -494 484 -547 538 -541 561 4 17 -19 45 -113 136 -65 63 -151 144 -191 180 -111 99 -186 188 -173 204 9 11 -19 42 -131 149 -79 74 -153 144 -164 154 -12 10 -43 42 -69 70 -37 42 -45 56 -36 66 9 11 -13 36 -104 123 -63 60 -119 110 -124 112 -4 1 -39 36 -76 78 -52 58 -65 78 -56 88 9 11 -8 31 -81 97 -154 140 -209 200 -196 216 9 11 -5 28 -63 83 -168 157 -190 182 -177 197 9 12 -2 27 -59 81 -39 37 -87 81 -106 98 -64 56 -90 93 -78 108 11 13 -3 28 -129 138 -36 31 -41 40 -31 52 17 20 14 24 -82 108 -108 95 -132 124 -118 142 9 10 2 21 -33 47 -68 53 -101 96 -86 114 9 11 7 18 -11 32 -13 10 -45 39 -73 64 -42 39 -48 49 -38 62 10 12 6 19 -25 43 -67 51 -103 96 -97 121 4 14 2 23 -5 23 -21 0 -81 74 -75 92 3 11 -4 23 -21 34 -20 13 -25 23 -21 43 5 22 -3 33 -50 74 -56 47 -92 58 -112 34z"/>
</g>
</g>
</svg>
