<?xml version="1.0" standalone="no"?>
<!DOCTYPE svg PUBLIC "-//W3C//DTD SVG 1.1//EN"
 "http://www.w3.org/Graphics/SVG/1.1/DTD/svg11.dtd">
<!-- Created with svg_stack (http://github.com/astraw/svg_stack) -->
<svg xmlns:sodipodi="http://sodipodi.sourceforge.net/DTD/sodipodi-0.dtd" xmlns="http://www.w3.org/2000/svg" version="1.1" width="914.0" height="608.0">
  <defs/>
  <g id="id0:id0" transform="matrix(1.25,0,0,1.25,0.0,0.0)"><g transform="translate(0.000000,486.400000) scale(0.040000,-0.040000)" fill="#ffffff" stroke="none">
<path d="M0 6080 l0 -6080 9140 0 9140 0 0 6080 0 6080 -9140 0 -9140 0 0 -6080z m6465 3414 l0 -169 -30 -3 c-16 -2 -35 -8 -41 -12 -5 -5 -44 -14 -85 -20 -40 -6 -94 -17 -119 -24 -25 -8 -76 -19 -115 -26 -38 -6 -83 -16 -100 -20 -16 -5 -91 -21 -165 -36 -74 -14 -155 -32 -180 -39 -25 -8 -72 -17 -105 -20 -33 -4 -72 -13 -87 -21 -15 -8 -44 -14 -65 -14 -21 0 -69 -9 -108 -19 -38 -11 -119 -29 -180 -41 -60 -12 -137 -29 -170 -37 -33 -9 -76 -18 -95 -20 -19 -2 -82 -15 -140 -28 -58 -13 -132 -29 -165 -36 -33 -7 -63 -18 -67 -23 -5 -6 -5 -135 -2 -286 5 -250 7 -275 22 -273 37 4 201 33 267 47 158 34 333 65 375 68 l45 3 3 -518 c1 -346 -1 -524 -8 -537 -8 -15 -21 -20 -52 -20 -23 0 -76 -9 -117 -19 -42 -11 -103 -24 -136 -30 -136 -25 -265 -52 -465 -96 -36 -8 -96 -19 -134 -25 -38 -6 -73 -13 -76 -15 -8 -5 -194 -44 -245 -52 -38 -5 -200 -40 -285 -60 -61 -14 -179 -34 -225 -37 l-20 -1 0 510 0 510 50 24 c46 22 73 30 195 61 25 6 75 20 111 31 36 10 77 19 91 19 15 0 55 9 90 20 34 11 78 20 96 20 72 0 70 -9 65 267 -2 136 -6 263 -9 282 l-5 34 -91 -7 c-50 -3 -114 -12 -142 -20 -71 -20 -175 -47 -216 -56 -19 -4 -73 -22 -120 -40 -47 -17 -98 -35 -115 -39 -16 -5 -48 -17 -70 -28 -22 -11 -107 -54 -190 -95 -497 -248 -934 -694 -1185 -1208 -85 -173 -159 -392 -191 -560 -5 -30 -19 -93 -29 -140 -37 -164 -34 -533 5 -626 8 -20 15 -48 15 -63 0 -56 58 -208 156 -406 64 -131 213 -370 329 -527 36 -50 31 -76 -8 -40 -12 10 -60 43 -107 73 -163 103 -276 194 -420 338 -165 166 -237 264 -340 468 -90 177 -127 298 -161 528 -18 122 -20 169 -15 365 3 124 8 239 10 255 3 17 10 64 16 105 12 94 38 214 55 260 8 19 19 57 25 85 6 27 15 54 19 60 4 5 16 35 25 65 27 86 149 322 231 445 227 345 518 629 905 881 47 31 117 71 157 90 40 19 75 39 78 43 3 5 19 12 35 16 17 4 31 7 32 8 1 1 5 139 8 307 l5 305 1830 5 c1007 3 1835 5 1840 4 6 0 10 -64 10 -170z m2530 -485 c44 -6 105 -14 135 -19 102 -15 319 -81 350 -106 8 -6 26 -15 40 -19 14 -4 32 -13 40 -20 8 -7 26 -16 40 -20 36 -11 166 -113 225 -176 57 -60 135 -161 135 -174 0 -5 6 -16 14 -24 7 -9 19 -32 25 -51 21 -58 60 -204 57 -207 -2 -2 -108 -4 -236 -4 l-233 0 -24 23 c-13 12 -33 42 -44 67 -26 60 -160 188 -235 225 -32 16 -75 38 -95 48 -20 10 -48 18 -62 18 -13 0 -44 8 -68 17 -37 14 -80 17 -259 17 -202 0 -221 -1 -310 -26 -118 -33 -181 -56 -200 -73 -8 -7 -26 -16 -40 -20 -45 -14 -99 -54 -172 -128 -65 -65 -148 -177 -148 -199 0 -5 -13 -36 -29 -71 -47 -101 -64 -187 -68 -342 -4 -136 0 -166 37 -313 5 -23 14 -50 18 -60 76 -158 90 -180 172 -262 47 -47 106 -99 130 -116 163 -112 362 -160 630 -152 194 7 320 33 450 96 73 35 112 64 190 142 71 70 154 212 148 253 l-3 22 -425 5 -425 5 -5 183 c-3 128 -2 187 6 193 7 5 278 8 665 7 l654 -3 0 -645 0 -645 -139 -3 c-147 -3 -166 2 -166 43 0 12 -8 33 -18 46 -11 13 -22 39 -25 57 -7 35 -42 92 -57 92 -5 0 -21 -11 -37 -24 -15 -13 -64 -42 -108 -66 -44 -24 -89 -49 -100 -56 -11 -8 -26 -14 -34 -14 -7 0 -32 -8 -55 -19 -52 -24 -145 -51 -210 -61 -28 -5 -80 -14 -116 -22 -135 -27 -572 -8 -690 32 -14 5 -72 22 -130 40 -58 17 -112 35 -120 41 -8 5 -48 25 -88 44 -111 54 -221 135 -316 236 -80 84 -102 114 -178 247 -31 53 -30 51 -52 113 -59 165 -85 335 -86 543 0 152 14 278 41 357 10 31 19 68 19 83 0 16 9 39 20 53 11 14 20 35 20 45 0 11 9 31 20 45 11 14 20 36 20 48 0 12 6 28 14 34 8 7 24 31 36 54 12 23 32 54 44 69 11 14 35 45 51 68 29 41 131 136 210 196 63 49 230 129 345 167 89 29 212 55 335 70 66 8 395 5 470 -4z m2045 -537 c0 -359 3 -481 12 -490 9 -9 209 -12 840 -12 455 0 829 1 830 3 1 1 5 223 8 492 l5 490 230 0 230 0 0 -1235 0 -1235 -223 -5 c-153 -3 -227 -2 -233 6 -4 6 -10 245 -11 531 -2 287 -6 524 -9 527 -9 9 -1662 7 -1671 -2 -4 -4 -9 -244 -10 -532 l-3 -525 -235 0 -235 0 0 1235 0 1235 220 5 c121 3 228 1 238 -3 16 -7 17 -40 17 -485z m5252 481 c2 -5 1 -96 -2 -203 l-5 -195 -544 -3 c-382 -1 -548 -6 -558 -13 -11 -9 -13 -189 -13 -1024 0 -847 -2 -1014 -14 -1024 -9 -8 -80 -11 -235 -9 l-221 3 0 995 c0 665 -3 1007 -11 1033 l-10 37 -546 0 c-300 0 -548 2 -551 5 -3 3 -5 94 -4 203 1 108 2 198 2 200 0 6 2709 1 2712 -5z m-9824 -2539 l-3 -2289 -1840 0 -1840 0 0 270 0 270 28 3 c15 2 53 -5 85 -14 31 -10 84 -21 117 -25 33 -4 101 -13 150 -19 105 -14 389 -8 480 10 143 29 223 48 370 90 68 20 151 53 166 66 8 8 23 14 31 14 9 0 45 16 80 35 34 19 79 42 98 51 108 50 460 310 596 441 107 103 163 151 168 146 3 -4 6 -111 6 -240 l0 -233 36 0 c21 0 76 9 123 20 206 47 267 60 287 60 26 0 124 30 141 43 10 7 13 372 15 1741 l3 1731 80 17 c44 9 111 22 150 28 38 6 92 17 119 25 27 8 66 15 85 15 20 0 59 7 86 16 57 18 166 33 178 24 4 -3 6 -1036 5 -2296z m-3657 241 c4 -512 10 -949 14 -972 8 -51 -6 -49 201 -29 82 8 190 18 240 22 51 3 98 10 105 15 11 7 15 83 19 391 l5 383 45 6 c56 8 181 34 281 60 42 10 87 19 101 19 13 0 58 9 99 19 41 10 97 22 124 26 28 3 75 12 105 20 30 7 107 23 170 35 63 12 155 30 203 41 49 10 99 19 113 19 13 0 57 9 96 20 40 11 84 20 98 20 14 0 63 9 110 20 123 28 201 40 212 34 6 -4 7 -45 3 -103 -11 -145 -85 -354 -192 -539 -100 -173 -282 -415 -395 -523 -90 -88 -287 -215 -403 -261 -27 -11 -57 -25 -65 -32 -8 -8 -26 -16 -40 -19 -14 -3 -70 -20 -125 -40 -229 -79 -247 -82 -490 -82 -206 1 -226 3 -315 27 -52 15 -113 34 -135 43 -129 53 -270 141 -331 207 -101 109 -221 300 -272 433 -13 33 -31 78 -41 100 -10 22 -28 81 -40 130 -29 127 -30 373 -1 513 33 157 56 234 118 397 32 86 123 264 171 337 58 89 166 200 190 196 15 -3 17 -88 22 -933z m5194 -1155 c3 -5 6 -199 5 -431 0 -392 1 -422 17 -435 15 -11 90 -14 388 -13 l370 0 0 -48 0 -48 -445 0 -445 0 -3 480 c-1 264 0 486 3 493 5 14 101 17 110 2z m1375 -480 c0 -266 -4 -488 -9 -493 -4 -4 -30 -7 -57 -5 l-49 3 -3 480 c-1 264 0 486 3 493 3 9 22 12 60 10 l56 -3 -1 -485z m769 446 c11 -24 30 -67 44 -97 14 -30 39 -88 57 -129 46 -110 70 -162 85 -190 7 -14 24 -55 38 -90 13 -36 40 -99 60 -140 20 -42 40 -88 46 -103 13 -33 36 -27 46 11 4 15 12 34 19 42 7 8 25 49 41 90 15 41 43 107 61 145 18 39 55 124 84 190 96 222 120 274 139 298 11 13 30 17 92 17 43 0 81 -4 84 -10 11 -18 5 -953 -6 -967 -15 -17 -63 -17 -78 1 -9 11 -11 120 -9 420 3 370 2 406 -13 406 -9 0 -19 -8 -23 -17 -3 -10 -19 -42 -35 -71 -16 -29 -33 -63 -37 -75 -8 -27 -54 -136 -99 -232 -18 -38 -42 -95 -55 -125 -13 -30 -31 -73 -41 -95 -66 -145 -79 -173 -88 -198 -10 -26 -14 -28 -58 -25 l-48 3 -26 52 c-15 29 -29 60 -32 70 -4 10 -11 25 -16 33 -6 8 -29 60 -51 115 -38 92 -79 186 -101 227 -4 9 -34 77 -64 150 -31 73 -63 140 -71 149 -8 8 -14 21 -14 27 0 7 -2 12 -4 12 -2 0 -10 2 -18 5 -11 4 -12 -67 -10 -406 2 -305 0 -414 -9 -425 -14 -17 -61 -18 -77 -2 -9 9 -12 131 -12 488 0 262 3 480 7 483 3 4 44 7 90 7 l84 0 18 -44z m1576 34 c12 -19 5 -953 -7 -967 -7 -9 -26 -13 -52 -11 l-41 3 -5 485 c-3 267 -4 488 -2 493 5 11 100 9 107 -3z m1380 -40 l0 -45 -235 -5 -235 -5 -5 -440 -5 -440 -50 0 -50 0 -3 438 c-1 240 -3 438 -5 439 -1 1 -108 4 -237 7 l-235 6 -2 35 c-1 19 0 41 2 48 4 10 115 12 532 10 l528 -3 0 -45z m1200 0 l0 -45 -372 -5 c-246 -3 -376 -9 -383 -16 -7 -7 -10 -63 -8 -160 l3 -149 320 -5 320 -5 3 -27 c4 -32 -15 -71 -29 -62 -5 3 -141 5 -301 4 -262 -1 -293 -2 -304 -18 -18 -24 -19 -311 -1 -335 11 -15 49 -17 392 -19 l380 -3 3 -36 c2 -22 -2 -40 -11 -47 -11 -9 -127 -12 -448 -10 l-434 3 -3 480 c-1 264 0 486 3 493 3 10 96 12 437 10 l433 -3 0 -45z m1165 30 c229 -62 350 -223 350 -464 -1 -205 -84 -356 -240 -435 -117 -59 -219 -72 -543 -69 l-232 3 -3 480 c-1 264 0 486 3 493 3 9 72 12 297 12 263 0 301 -2 368 -20z m-12433 -2250 c51 -31 92 -130 54 -130 -5 0 -19 20 -31 45 -26 54 -68 80 -117 72 -42 -7 -89 -40 -108 -76 -22 -44 -46 -160 -36 -179 4 -9 11 -37 15 -61 13 -83 70 -133 153 -133 53 0 76 18 104 80 22 47 39 47 39 0 0 -22 -11 -41 -38 -69 l-38 -38 -70 0 c-57 0 -75 4 -104 24 -56 39 -82 86 -90 163 -8 73 5 199 23 221 6 7 16 23 22 34 29 60 157 87 222 47z m738 -6 c24 -14 53 -41 64 -60 30 -50 43 -153 32 -241 -10 -79 -27 -109 -88 -155 -32 -24 -46 -28 -106 -28 l-70 0 -47 48 c-30 29 -52 62 -59 87 -13 49 -14 92 -2 100 13 8 27 -21 36 -75 6 -34 18 -55 50 -87 39 -40 46 -43 95 -43 63 0 101 24 133 83 30 57 32 212 3 270 -38 77 -122 114 -188 83 -48 -23 -77 -66 -96 -142 -25 -96 -52 -87 -37 11 7 52 47 115 95 150 48 35 124 35 185 -1z m589 4 c22 -21 54 -77 158 -277 21 -41 38 -80 38 -87 0 -17 26 -18 37 -1 4 6 10 93 13 192 7 268 24 232 28 -59 3 -335 3 -336 -141 -76 -10 19 -23 40 -27 45 -5 6 -23 37 -41 70 -42 78 -78 125 -95 125 -11 0 -14 -40 -16 -207 -3 -177 -5 -208 -18 -208 -13 0 -15 34 -18 239 -2 167 1 243 9 252 17 20 45 17 73 -8z m899 8 c41 -17 76 -55 79 -86 4 -34 -23 -33 -39 1 -19 39 -48 60 -90 65 -55 7 -105 -22 -117 -70 -14 -53 12 -82 104 -119 132 -52 168 -96 155 -184 -4 -27 -12 -54 -17 -61 -34 -40 -178 -57 -227 -26 -36 23 -61 55 -61 81 0 38 18 35 44 -6 21 -32 36 -43 77 -55 45 -14 54 -14 90 1 47 18 73 61 64 103 -7 31 -66 90 -89 90 -30 0 -125 43 -155 70 -27 26 -31 35 -31 83 0 58 23 101 64 117 33 14 113 11 149 -4z m867 -173 c0 -222 -12 -273 -72 -304 -40 -20 -85 -23 -80 -4 1 6 19 16 40 24 63 23 72 57 72 269 0 172 6 212 32 196 4 -3 8 -84 8 -181z m1324 167 c15 -15 -34 -32 -72 -25 -24 4 -43 1 -56 -8 -17 -12 -19 -34 -24 -236 -5 -206 -10 -247 -32 -225 -5 5 -10 107 -11 227 -3 192 -5 219 -20 233 -12 11 -27 14 -46 10 -33 -7 -82 4 -83 19 -1 21 321 25 344 5z m936 5 c15 -8 35 -27 43 -42 26 -51 108 -198 132 -238 13 -22 24 -47 25 -56 0 -27 27 -44 45 -29 12 10 15 44 15 185 0 136 3 175 14 184 8 7 17 8 20 3 11 -18 8 -494 -3 -505 -16 -16 -57 27 -92 96 -16 31 -44 81 -63 110 -18 28 -36 59 -39 67 -4 8 -16 29 -27 45 -11 17 -30 50 -42 75 -13 25 -24 47 -25 49 -1 2 -9 -2 -18 -9 -12 -10 -15 -49 -17 -219 -2 -129 -7 -206 -13 -206 -10 0 -20 467 -11 492 7 17 21 16 56 -2z m977 -7 c56 -28 94 -91 70 -116 -14 -13 -17 -11 -30 14 -8 16 -29 43 -47 59 -26 25 -39 30 -81 29 -93 -1 -149 -87 -149 -225 0 -73 19 -140 48 -172 31 -33 113 -60 145 -48 37 15 84 73 91 113 6 31 3 39 -14 48 -12 6 -40 10 -63 8 -36 -3 -42 0 -42 16 0 17 8 19 76 19 42 0 81 -3 88 -7 14 -9 15 -180 1 -206 -9 -16 -14 -18 -35 -8 -17 8 -32 8 -52 0 -15 -5 -58 -11 -95 -11 l-68 -1 -41 37 c-64 58 -73 83 -74 203 0 128 5 149 53 202 64 71 138 86 219 46z m1292 6 c11 -4 12 -7 2 -17 -8 -8 -46 -10 -120 -8 -101 2 -110 1 -120 -18 -16 -28 -14 -146 2 -159 7 -6 46 -12 87 -14 41 -2 75 -7 75 -13 0 -6 -35 -11 -80 -13 -48 -2 -82 -8 -87 -15 -9 -14 -10 -152 -2 -185 l7 -23 121 2 c111 2 121 1 121 -15 0 -17 -12 -18 -145 -18 l-145 0 -3 243 c-1 134 -1 248 2 254 3 10 255 9 285 -1z m1441 -4 c50 -25 90 -94 68 -116 -12 -12 -18 -8 -44 28 -17 24 -46 52 -66 62 -32 17 -41 18 -77 7 -74 -22 -112 -86 -119 -201 -2 -41 1 -94 7 -117 13 -48 60 -99 109 -120 44 -18 31 -37 -20 -30 -81 11 -128 92 -135 235 -7 131 33 223 112 258 45 20 120 17 165 -6z m2765 -6 c0 -18 -8 -19 -105 -15 -129 4 -132 2 -136 -104 -4 -86 -7 -83 106 -87 92 -4 77 -22 -22 -28 l-83 -5 0 -85 c-1 -128 1 -130 135 -130 60 0 111 -4 114 -9 13 -21 -27 -26 -149 -21 l-130 5 -5 245 c-3 135 -4 247 -3 250 0 3 63 4 140 4 128 -1 138 -3 138 -20z m551 16 l94 0 38 -34 c35 -32 37 -38 37 -95 0 -52 -4 -63 -29 -90 -17 -17 -36 -31 -43 -31 -7 0 -13 -9 -13 -20 0 -22 43 -114 65 -140 17 -20 36 -89 26 -95 -14 -8 -37 25 -90 130 -29 54 -56 102 -62 106 -16 9 -113 -2 -121 -15 -4 -6 -8 -54 -8 -107 0 -68 -4 -100 -13 -108 -8 -6 -17 -8 -20 -4 -4 3 -7 115 -7 248 0 245 4 273 38 260 8 -3 56 -5 108 -5z m803 -1 c43 -15 88 -84 70 -106 -11 -13 -18 -8 -53 32 -39 44 -44 46 -95 47 -49 1 -57 -2 -82 -30 -16 -18 -29 -40 -29 -50 0 -43 67 -94 167 -126 72 -24 113 -71 113 -132 0 -91 -45 -130 -157 -133 -68 -2 -120 19 -138 56 -6 12 -17 28 -24 36 -7 9 -10 21 -6 27 12 19 33 10 55 -25 27 -44 66 -65 126 -67 41 -2 50 1 75 30 40 44 40 93 0 133 -16 16 -38 29 -48 29 -10 0 -27 6 -38 14 -11 7 -38 19 -60 26 -22 7 -52 24 -67 38 -24 22 -28 34 -28 78 0 71 14 102 52 119 40 17 123 19 167 4z m-10419 -187 c0 -214 10 -248 80 -276 31 -12 40 -20 32 -28 -18 -18 -76 0 -108 33 l-29 30 -3 201 c-3 202 -1 234 18 223 6 -4 10 -75 10 -183z m800 -41 c0 -165 3 -221 13 -229 7 -6 53 -10 111 -9 54 1 100 -2 103 -6 13 -21 -23 -29 -133 -30 l-119 0 -3 239 c-2 241 0 270 18 259 6 -4 10 -89 10 -224z m1275 -22 c0 -210 -2 -244 -15 -244 -13 0 -15 34 -18 235 -1 129 0 241 3 248 3 8 11 12 18 9 9 -3 12 -61 12 -248z m3290 190 c17 -31 50 -89 75 -130 24 -41 55 -96 68 -124 25 -52 49 -85 63 -85 5 0 10 89 11 198 3 167 5 197 18 197 13 0 15 -35 18 -243 2 -212 0 -243 -13 -248 -22 -9 -49 19 -81 84 -15 32 -37 71 -49 87 -12 17 -44 71 -70 120 -62 115 -96 166 -107 163 -6 -2 -10 -98 -11 -226 -1 -142 -6 -221 -12 -219 -10 2 -19 448 -10 475 3 8 17 12 37 10 29 -3 37 -11 63 -59z m1493 -180 c1 -128 0 -240 -3 -247 -4 -11 -8 -12 -20 -2 -13 10 -15 51 -15 245 0 127 3 235 7 239 23 23 28 -13 31 -235z m571 151 c63 -112 82 -145 120 -205 17 -27 37 -62 43 -77 14 -31 38 -37 39 -10 0 9 1 97 2 194 1 111 6 178 12 178 10 0 19 -461 10 -488 -10 -27 -65 34 -100 111 -8 18 -29 57 -47 87 -18 31 -46 79 -63 108 -56 99 -85 142 -95 142 -6 0 -10 -76 -10 -218 0 -120 -3 -222 -7 -225 -3 -4 -12 -2 -20 4 -10 9 -13 62 -13 244 0 127 3 235 7 239 4 4 23 6 41 4 31 -3 38 -10 81 -88z m956 81 c11 -18 -18 -23 -125 -22 -126 2 -120 7 -120 -109 l0 -79 85 -3 c111 -4 111 -22 0 -26 l-86 -3 3 -107 3 -107 120 -5 c168 -7 152 -25 -22 -25 l-138 0 -3 235 c-1 129 0 240 2 247 6 16 271 19 281 4z m-1997 -370 c3 -115 -6 -152 -27 -112 -14 25 -34 27 -51 6 -14 -16 -75 -21 -85 -6 -3 6 12 18 32 27 55 25 72 42 83 86 16 59 2 76 -65 80 -77 4 -69 22 12 29 106 9 98 19 101 -110z"/>
<path d="M14917 5403 c-9 -8 -9 -746 -1 -767 5 -14 33 -16 208 -16 228 0 314 12 392 56 71 40 76 45 105 84 71 95 97 219 74 348 -22 126 -62 187 -157 241 -98 56 -131 61 -384 61 -127 0 -234 -3 -237 -7z"/>
<path d="M15320 3201 c-5 -11 -10 -53 -10 -94 0 -84 12 -104 56 -93 15 4 32 2 40 -5 10 -8 18 -8 27 -1 6 5 27 13 44 17 74 15 99 111 44 166 -28 27 -34 29 -110 29 -69 0 -82 -3 -91 -19z"/>
</g>
</g>
  <g id="id1:id1" transform="matrix(1.25,0,0,1.25,0.0,0.0)"><g transform="translate(0.000000,486.400000) scale(0.040000,-0.040000)" fill="#d7c500" stroke="none">
<path d="M2767 9673 c-4 -3 -7 -143 -7 -310 0 -280 -1 -304 -17 -309 -10 -3 -26 -9 -35 -14 -173 -92 -195 -106 -404 -244 -32 -21 -80 -57 -107 -80 -388 -324 -623 -608 -794 -961 -16 -33 -35 -69 -41 -80 -6 -11 -21 -47 -33 -80 -12 -33 -30 -81 -40 -107 -11 -26 -19 -57 -19 -70 0 -13 -7 -33 -15 -44 -16 -24 -41 -130 -60 -259 -7 -49 -14 -92 -15 -95 -6 -10 -9 -81 -16 -282 -8 -273 6 -389 86 -693 4 -16 13 -43 19 -60 19 -47 139 -283 164 -319 12 -19 39 -60 61 -92 50 -76 352 -378 435 -435 332 -228 361 -244 361 -203 0 15 -12 34 -82 128 -21 28 -38 55 -38 60 0 6 -8 19 -19 30 -56 63 -181 271 -267 446 -45 94 -102 253 -113 320 -4 25 -16 72 -26 105 -27 86 -28 494 -2 571 10 27 21 79 26 115 29 212 127 483 272 749 56 102 54 99 183 270 122 162 192 244 278 326 88 84 235 205 307 254 29 19 73 51 99 70 116 85 458 250 602 291 19 5 51 16 70 23 100 38 376 98 435 94 l50 -3 8 -254 c4 -140 6 -260 3 -267 -3 -8 -20 -14 -40 -14 -19 0 -63 -9 -98 -20 -34 -11 -74 -20 -87 -20 -14 0 -54 -9 -90 -19 -70 -21 -173 -47 -231 -60 -19 -5 -62 -21 -95 -37 l-60 -29 0 -530 c0 -465 2 -530 15 -528 22 2 123 22 225 44 296 63 425 89 485 99 25 4 101 20 170 34 69 14 168 35 220 45 52 11 108 24 123 30 16 6 42 11 59 11 16 0 67 9 112 20 129 31 236 52 305 60 67 8 77 16 86 65 3 17 5 255 3 531 -3 551 -2 539 -61 523 -36 -10 -224 -47 -307 -61 -30 -5 -82 -15 -115 -23 -62 -14 -219 -40 -222 -37 -1 1 -4 118 -8 260 -5 205 -3 261 7 269 7 6 33 14 58 18 25 3 92 17 150 30 58 13 130 28 160 34 30 6 107 22 170 36 63 14 141 30 173 36 33 5 78 16 100 24 23 8 61 15 85 15 24 0 55 6 71 14 15 8 56 19 92 24 35 6 116 22 179 36 107 24 137 30 275 58 28 5 66 13 85 18 99 23 285 62 365 77 51 9 55 22 55 194 0 87 -3 164 -6 173 -6 15 -179 16 -1858 16 -1019 0 -1856 -3 -1859 -7z"/>
<path d="M6400 8730 c-30 -5 -81 -15 -113 -24 -32 -9 -69 -16 -84 -16 -14 0 -62 -9 -107 -19 -44 -11 -136 -30 -204 -43 -67 -12 -128 -26 -135 -30 -9 -6 -13 -397 -17 -1740 l-5 -1733 -55 -17 c-30 -9 -93 -24 -140 -33 -172 -34 -216 -43 -271 -56 -93 -21 -89 -32 -89 224 0 186 -3 227 -15 237 -12 10 -38 -10 -153 -117 -181 -168 -461 -378 -619 -464 -127 -70 -168 -89 -187 -89 -11 0 -29 -8 -40 -19 -40 -35 -351 -124 -531 -152 -184 -29 -543 -15 -705 26 -50 13 -154 35 -166 35 -2 0 -3 -134 -2 -297 l3 -298 1850 -3 c1730 -2 1851 -1 1863 15 9 13 12 490 12 2304 0 1258 -3 2294 -6 2303 -3 9 -11 15 -18 15 -6 -1 -36 -5 -66 -9z"/>
<path d="M2775 7601 c-45 -21 -125 -101 -178 -178 -42 -60 -152 -273 -183 -353 -138 -353 -178 -665 -120 -921 13 -58 30 -119 38 -135 9 -16 18 -41 22 -56 8 -36 85 -196 97 -204 5 -3 19 -24 31 -47 31 -63 131 -196 185 -248 113 -109 276 -194 483 -250 77 -21 106 -23 300 -23 181 -1 224 2 275 18 33 10 87 25 119 33 33 7 65 17 70 22 6 5 27 12 46 16 19 4 51 14 70 23 351 151 515 266 691 484 258 321 437 686 453 923 8 116 -2 135 -61 117 -22 -7 -53 -12 -68 -12 -15 0 -64 -9 -109 -19 -105 -25 -237 -51 -306 -61 -30 -4 -84 -14 -120 -23 -36 -8 -117 -25 -180 -37 -135 -25 -279 -54 -370 -75 -36 -8 -83 -17 -105 -20 -22 -3 -76 -14 -120 -25 -110 -26 -230 -50 -293 -59 -28 -4 -56 -11 -62 -17 -6 -6 -11 -157 -12 -389 l-3 -380 -254 -23 c-188 -18 -256 -21 -265 -12 -8 8 -12 278 -16 975 -3 530 -7 966 -10 969 -3 2 -23 -3 -45 -13z"/>
</g>
</g>
  <g id="id2:id2" transform="matrix(1.25,0,0,1.25,0.0,0.0)"><g transform="translate(0.000000,486.400000) scale(0.040000,-0.040000)" fill="#40647a" stroke="none">
<path d="M8555 9029 c-4 -6 -5 -13 -2 -16 7 -7 27 6 27 18 0 12 -17 12 -25 -2z"/>
<path d="M8920 9030 c0 -5 7 -10 15 -10 8 0 15 5 15 10 0 6 -7 10 -15 10 -8 0 -15 -4 -15 -10z"/>
<path d="M8454 9019 c-10 -17 13 -36 27 -22 12 12 4 33 -11 33 -5 0 -12 -5 -16 -11z"/>
<path d="M9040 9010 c0 -5 5 -10 10 -10 6 0 10 5 10 10 0 6 -4 10 -10 10 -5 0 -10 -4 -10 -10z"/>
<path d="M9164 8999 c-10 -17 13 -36 27 -22 12 12 4 33 -11 33 -5 0 -12 -5 -16 -11z"/>
<path d="M8290 8990 c0 -5 7 -10 15 -10 8 0 15 5 15 10 0 6 -7 10 -15 10 -8 0 -15 -4 -15 -10z"/>
<path d="M9225 8980 c-15 -24 17 -38 45 -20 13 9 13 11 0 20 -19 13 -37 13 -45 0z"/>
<path d="M10984 8979 c-10 -17 13 -36 27 -22 12 12 4 33 -11 33 -5 0 -12 -5 -16 -11z"/>
<path d="M10580 8970 c0 -5 5 -10 10 -10 6 0 10 5 10 10 0 6 -4 10 -10 10 -5 0 -10 -4 -10 -10z"/>
<path d="M13160 8970 c0 -5 5 -10 10 -10 6 0 10 5 10 10 0 6 -4 10 -10 10 -5 0 -10 -4 -10 -10z"/>
<path d="M13563 8965 c-3 -9 -3 -19 1 -22 7 -7 36 16 36 28 0 15 -30 10 -37 -6z"/>
<path d="M13620 8970 c0 -5 5 -10 10 -10 6 0 10 5 10 10 0 6 -4 10 -10 10 -5 0 -10 -4 -10 -10z"/>
<path d="M16240 8970 c0 -5 5 -10 10 -10 6 0 10 5 10 10 0 6 -4 10 -10 10 -5 0 -10 -4 -10 -10z"/>
<path d="M16280 8950 c0 -11 5 -20 10 -20 6 0 10 9 10 20 0 11 -4 20 -10 20 -5 0 -10 -9 -10 -20z"/>
<path d="M8160 8950 c0 -5 5 -10 10 -10 6 0 10 5 10 10 0 6 -4 10 -10 10 -5 0 -10 -4 -10 -10z"/>
<path d="M9320 8950 c0 -5 5 -10 10 -10 6 0 10 5 10 10 0 6 -4 10 -10 10 -5 0 -10 -4 -10 -10z"/>
<path d="M8060 8910 c0 -5 5 -10 10 -10 6 0 10 5 10 10 0 6 -4 10 -10 10 -5 0 -10 -4 -10 -10z"/>
<path d="M8020 8890 c0 -5 5 -10 10 -10 6 0 10 5 10 10 0 6 -4 10 -10 10 -5 0 -10 -4 -10 -10z"/>
<path d="M9460 8890 c0 -5 7 -10 15 -10 8 0 15 5 15 10 0 6 -7 10 -15 10 -8 0 -15 -4 -15 -10z"/>
<path d="M11040 8830 c0 -40 4 -70 10 -70 6 0 10 30 10 70 0 40 -4 70 -10 70 -6 0 -10 -30 -10 -70z"/>
<path d="M13200 8890 c0 -5 5 -10 10 -10 6 0 10 5 10 10 0 6 -4 10 -10 10 -5 0 -10 -4 -10 -10z"/>
<path d="M7940 8850 c0 -5 5 -10 10 -10 6 0 10 5 10 10 0 6 -4 10 -10 10 -5 0 -10 -4 -10 -10z"/>
<path d="M9540 8850 c0 -5 9 -10 20 -10 11 0 20 5 20 10 0 6 -9 10 -20 10 -11 0 -20 -4 -20 -10z"/>
<path d="M7890 8825 c-7 -9 -27 -22 -44 -31 -42 -20 -71 -43 -64 -49 12 -12 138 67 138 87 0 13 -16 9 -30 -7z"/>
<path d="M9620 8810 c0 -5 5 -10 10 -10 6 0 10 5 10 10 0 6 -4 10 -10 10 -5 0 -10 -4 -10 -10z"/>
<path d="M9660 8790 c0 -5 5 -10 10 -10 6 0 10 5 10 10 0 6 -4 10 -10 10 -5 0 -10 -4 -10 -10z"/>
<path d="M11040 8730 c0 -5 5 -10 10 -10 6 0 10 5 10 10 0 6 -4 10 -10 10 -5 0 -10 -4 -10 -10z"/>
<path d="M11040 8690 c0 -5 5 -10 10 -10 6 0 10 5 10 10 0 6 -4 10 -10 10 -5 0 -10 -4 -10 -10z"/>
<path d="M7675 8650 c-21 -22 -35 -43 -32 -47 4 -4 26 11 48 34 23 22 37 43 32 46 -5 4 -27 -12 -48 -33z"/>
<path d="M11040 8650 c0 -5 5 -10 10 -10 6 0 10 5 10 10 0 6 -4 10 -10 10 -5 0 -10 -4 -10 -10z"/>
<path d="M13553 8624 c-7 -18 9 -51 23 -46 14 3 11 55 -3 59 -7 3 -16 -3 -20 -13z"/>
<path d="M11040 8610 c0 -5 5 -10 10 -10 6 0 10 5 10 10 0 6 -4 10 -10 10 -5 0 -10 -4 -10 -10z"/>
<path d="M9070 8580 c-13 -9 -13 -11 0 -20 13 -8 47 -5 59 6 14 13 -41 25 -59 14z"/>
<path d="M7600 8570 c0 -5 5 -10 10 -10 6 0 10 5 10 10 0 6 -4 10 -10 10 -5 0 -10 -4 -10 -10z"/>
<path d="M8460 8570 c0 -5 5 -10 10 -10 6 0 10 5 10 10 0 6 -4 10 -10 10 -5 0 -10 -4 -10 -10z"/>
<path d="M9900 8571 c0 -6 4 -12 10 -16 5 -3 7 -12 3 -20 -3 -10 2 -15 16 -15 26 0 26 8 2 38 -20 23 -31 28 -31 13z"/>
<path d="M11040 8570 c0 -5 5 -10 10 -10 6 0 10 5 10 10 0 6 -4 10 -10 10 -5 0 -10 -4 -10 -10z"/>
<path d="M8385 8560 c-7 -11 2 -30 13 -30 4 0 14 5 22 10 13 9 13 11 0 20 -19 12 -27 12 -35 0z"/>
<path d="M16284 8556 c-8 -22 3 -33 18 -18 9 9 9 15 0 24 -9 9 -13 7 -18 -6z"/>
<path d="M9204 8539 c-10 -17 13 -36 27 -22 12 12 4 33 -11 33 -5 0 -12 -5 -16 -11z"/>
<path d="M13580 8535 c0 -8 5 -15 10 -15 6 0 10 7 10 15 0 8 -4 15 -10 15 -5 0 -10 -7 -10 -15z"/>
<path d="M8340 8530 c0 -5 5 -10 10 -10 6 0 10 5 10 10 0 6 -4 10 -10 10 -5 0 -10 -4 -10 -10z"/>
<path d="M11040 8530 c0 -5 5 -10 10 -10 6 0 10 5 10 10 0 6 -4 10 -10 10 -5 0 -10 -4 -10 -10z"/>
<path d="M14674 8509 c-10 -17 13 -36 27 -22 12 12 4 33 -11 33 -5 0 -12 -5 -16 -11z"/>
<path d="M8260 8490 c0 -5 7 -10 15 -10 8 0 15 5 15 10 0 6 -7 10 -15 10 -8 0 -15 -4 -15 -10z"/>
<path d="M9280 8490 c0 -5 9 -10 20 -10 11 0 20 5 20 10 0 6 -9 10 -20 10 -11 0 -20 -4 -20 -10z"/>
<path d="M11040 8490 c0 -5 5 -10 10 -10 6 0 10 5 10 10 0 6 -4 10 -10 10 -5 0 -10 -4 -10 -10z"/>
<path d="M9960 8470 c0 -5 5 -10 10 -10 6 0 10 5 10 10 0 6 -4 10 -10 10 -5 0 -10 -4 -10 -10z"/>
<path d="M9345 8450 c-3 -5 -1 -10 6 -10 7 0 37 -25 66 -56 30 -31 58 -52 64 -48 7 4 -11 29 -47 65 -57 58 -77 69 -89 49z"/>
<path d="M11040 8450 c0 -5 5 -10 10 -10 6 0 10 5 10 10 0 6 -4 10 -10 10 -5 0 -10 -4 -10 -10z"/>
<path d="M9980 8430 c0 -5 5 -10 10 -10 6 0 10 5 10 10 0 6 -4 10 -10 10 -5 0 -10 -4 -10 -10z"/>
<path d="M11040 8410 c0 -5 5 -10 10 -10 6 0 10 5 10 10 0 6 -4 10 -10 10 -5 0 -10 -4 -10 -10z"/>
<path d="M7492 8389 c-7 -12 -11 -23 -8 -26 8 -9 36 17 36 33 0 20 -13 17 -28 -7z"/>
<path d="M11040 8370 c0 -5 5 -10 10 -10 6 0 10 5 10 10 0 6 -4 10 -10 10 -5 0 -10 -4 -10 -10z"/>
<path d="M8060 8350 c0 -5 5 -10 10 -10 6 0 10 5 10 10 0 6 -4 10 -10 10 -5 0 -10 -4 -10 -10z"/>
<path d="M11040 8330 c0 -5 5 -10 10 -10 6 0 10 5 10 10 0 6 -4 10 -10 10 -5 0 -10 -4 -10 -10z"/>
<path d="M8015 8301 c-6 -11 9 -23 19 -14 9 9 7 23 -3 23 -6 0 -12 -4 -16 -9z"/>
<path d="M11040 8290 c0 -5 5 -10 10 -10 6 0 10 5 10 10 0 6 -4 10 -10 10 -5 0 -10 -4 -10 -10z"/>
<path d="M11040 8250 c0 -5 5 -10 10 -10 6 0 10 5 10 10 0 6 -4 10 -10 10 -5 0 -10 -4 -10 -10z"/>
<path d="M7396 8205 c-6 -17 2 -45 14 -45 12 0 20 28 14 45 -4 8 -10 15 -14 15 -4 0 -10 -7 -14 -15z"/>
<path d="M7960 8210 c0 -5 5 -10 10 -10 6 0 10 5 10 10 0 6 -4 10 -10 10 -5 0 -10 -4 -10 -10z"/>
<path d="M11040 8210 c0 -5 5 -10 10 -10 6 0 10 5 10 10 0 6 -4 10 -10 10 -5 0 -10 -4 -10 -10z"/>
<path d="M11040 8170 c0 -5 5 -10 10 -10 6 0 10 5 10 10 0 6 -4 10 -10 10 -5 0 -10 -4 -10 -10z"/>
<path d="M7915 8150 c-3 -5 -3 -10 0 -10 4 0 -3 -12 -14 -26 -23 -30 -28 -58 -8 -52 15 6 57 79 51 90 -7 11 -22 10 -29 -2z"/>
<path d="M11040 8110 c0 -16 5 -30 10 -30 6 0 10 14 10 30 0 17 -4 30 -10 30 -5 0 -10 -13 -10 -30z"/>
<path d="M7357 8053 c-7 -39 6 -64 23 -47 10 10 2 84 -10 84 -4 0 -10 -17 -13 -37z"/>
<path d="M7856 7998 c-21 -74 -24 -92 -19 -104 6 -17 22 -18 24 -1 1 6 3 19 4 27 0 8 7 28 13 43 12 29 9 47 -9 47 -5 0 -11 -6 -13 -12z"/>
<path d="M11042 7988 c6 -16 36 -34 44 -25 9 9 -15 37 -33 37 -8 0 -13 -5 -11 -12z"/>
<path d="M12700 7990 c0 -5 5 -10 10 -10 6 0 10 5 10 10 0 6 -4 10 -10 10 -5 0 -10 -4 -10 -10z"/>
<path d="M7340 7930 c0 -5 5 -10 10 -10 6 0 10 5 10 10 0 6 -4 10 -10 10 -5 0 -10 -4 -10 -10z"/>
<path d="M7334 7889 c-10 -17 13 -36 27 -22 12 12 4 33 -11 33 -5 0 -12 -5 -16 -11z"/>
<path d="M8760 7750 c0 -5 5 -10 10 -10 6 0 10 5 10 10 0 6 -4 10 -10 10 -5 0 -10 -4 -10 -10z"/>
<path d="M10080 7670 c0 -16 5 -30 10 -30 6 0 10 14 10 30 0 17 -4 30 -10 30 -5 0 -10 -13 -10 -30z"/>
<path d="M10080 7610 c0 -5 5 -10 10 -10 6 0 10 5 10 10 0 6 -4 10 -10 10 -5 0 -10 -4 -10 -10z"/>
<path d="M7840 7570 c0 -5 5 -10 10 -10 6 0 10 5 10 10 0 6 -4 10 -10 10 -5 0 -10 -4 -10 -10z"/>
<path d="M10080 7570 c0 -5 5 -10 10 -10 6 0 10 5 10 10 0 6 -4 10 -10 10 -5 0 -10 -4 -10 -10z"/>
<path d="M10080 7530 c0 -5 5 -10 10 -10 6 0 10 5 10 10 0 6 -4 10 -10 10 -5 0 -10 -4 -10 -10z"/>
<path d="M11040 7530 c0 -5 5 -10 10 -10 6 0 10 5 10 10 0 6 -4 10 -10 10 -5 0 -10 -4 -10 -10z"/>
<path d="M7840 7510 c0 -5 5 -10 10 -10 6 0 10 5 10 10 0 6 -4 10 -10 10 -5 0 -10 -4 -10 -10z"/>
<path d="M10080 7490 c0 -5 5 -10 10 -10 6 0 10 5 10 10 0 6 -4 10 -10 10 -5 0 -10 -4 -10 -10z"/>
<path d="M7860 7450 c0 -5 5 -10 10 -10 6 0 10 5 10 10 0 6 -4 10 -10 10 -5 0 -10 -4 -10 -10z"/>
<path d="M10080 7450 c0 -5 5 -10 10 -10 6 0 10 5 10 10 0 6 -4 10 -10 10 -5 0 -10 -4 -10 -10z"/>
<path d="M10080 7410 c0 -5 5 -10 10 -10 6 0 10 5 10 10 0 6 -4 10 -10 10 -5 0 -10 -4 -10 -10z"/>
<path d="M7354 7389 c-10 -17 13 -36 27 -22 12 12 4 33 -11 33 -5 0 -12 -5 -16 -11z"/>
<path d="M7880 7380 c0 -11 5 -20 10 -20 6 0 10 9 10 20 0 11 -4 20 -10 20 -5 0 -10 -9 -10 -20z"/>
<path d="M10080 7370 c0 -5 5 -10 10 -10 6 0 10 5 10 10 0 6 -4 10 -10 10 -5 0 -10 -4 -10 -10z"/>
<path d="M9600 7355 c-7 -8 -9 -22 -6 -31 5 -13 9 -14 21 -4 17 14 20 36 6 44 -5 3 -14 -1 -21 -9z"/>
<path d="M10080 7330 c0 -5 5 -10 10 -10 6 0 10 5 10 10 0 6 -4 10 -10 10 -5 0 -10 -4 -10 -10z"/>
<path d="M10080 7290 c0 -5 5 -10 10 -10 6 0 10 5 10 10 0 6 -4 10 -10 10 -5 0 -10 -4 -10 -10z"/>
<path d="M7940 7251 c0 -13 29 -35 37 -28 7 8 -15 37 -28 37 -5 0 -9 -4 -9 -9z"/>
<path d="M10080 7250 c0 -5 5 -10 10 -10 6 0 10 5 10 10 0 6 -4 10 -10 10 -5 0 -10 -4 -10 -10z"/>
<path d="M9540 7210 c0 -5 5 -10 10 -10 6 0 10 5 10 10 0 6 -4 10 -10 10 -5 0 -10 -4 -10 -10z"/>
<path d="M10080 7210 c0 -5 5 -10 10 -10 6 0 10 5 10 10 0 6 -4 10 -10 10 -5 0 -10 -4 -10 -10z"/>
<path d="M11040 7210 c0 -5 5 -10 10 -10 6 0 10 5 10 10 0 6 -4 10 -10 10 -5 0 -10 -4 -10 -10z"/>
<path d="M9510 7165 c-7 -9 -10 -18 -7 -22 8 -7 37 15 37 28 0 14 -16 11 -30 -6z"/>
<path d="M10080 7170 c0 -5 5 -10 10 -10 6 0 10 5 10 10 0 6 -4 10 -10 10 -5 0 -10 -4 -10 -10z"/>
<path d="M11040 7170 c0 -5 5 -10 10 -10 6 0 10 5 10 10 0 6 -4 10 -10 10 -5 0 -10 -4 -10 -10z"/>
<path d="M7436 7141 c-3 -5 1 -14 8 -20 16 -13 32 2 21 19 -8 12 -22 13 -29 1z"/>
<path d="M10080 7130 c0 -5 5 -10 10 -10 6 0 10 5 10 10 0 6 -4 10 -10 10 -5 0 -10 -4 -10 -10z"/>
<path d="M11040 7130 c0 -5 5 -10 10 -10 6 0 10 5 10 10 0 6 -4 10 -10 10 -5 0 -10 -4 -10 -10z"/>
<path d="M9460 7090 c0 -5 5 -10 10 -10 6 0 10 5 10 10 0 6 -4 10 -10 10 -5 0 -10 -4 -10 -10z"/>
<path d="M10080 7090 c0 -5 5 -10 10 -10 6 0 10 5 10 10 0 6 -4 10 -10 10 -5 0 -10 -4 -10 -10z"/>
<path d="M11040 7090 c0 -5 5 -10 10 -10 6 0 10 5 10 10 0 6 -4 10 -10 10 -5 0 -10 -4 -10 -10z"/>
<path d="M8120 7050 c0 -5 5 -10 10 -10 6 0 10 5 10 10 0 6 -4 10 -10 10 -5 0 -10 -4 -10 -10z"/>
<path d="M9405 7044 c-11 -8 -27 -19 -35 -24 -8 -5 -12 -11 -9 -15 9 -8 71 27 77 43 5 16 -9 15 -33 -4z"/>
<path d="M10080 7050 c0 -5 5 -10 10 -10 6 0 10 5 10 10 0 6 -4 10 -10 10 -5 0 -10 -4 -10 -10z"/>
<path d="M11040 7050 c0 -5 5 -10 10 -10 6 0 10 5 10 10 0 6 -4 10 -10 10 -5 0 -10 -4 -10 -10z"/>
<path d="M8162 7016 c1 -10 8 -17 13 -17 15 1 12 24 -3 29 -9 3 -13 -2 -10 -12z"/>
<path d="M10080 7010 c0 -5 5 -10 10 -10 6 0 10 5 10 10 0 6 -4 10 -10 10 -5 0 -10 -4 -10 -10z"/>
<path d="M11040 7010 c0 -5 5 -10 10 -10 6 0 10 5 10 10 0 6 -4 10 -10 10 -5 0 -10 -4 -10 -10z"/>
<path d="M10080 6970 c0 -5 5 -10 10 -10 6 0 10 5 10 10 0 6 -4 10 -10 10 -5 0 -10 -4 -10 -10z"/>
<path d="M11040 6970 c0 -5 5 -10 10 -10 6 0 10 5 10 10 0 6 -4 10 -10 10 -5 0 -10 -4 -10 -10z"/>
<path d="M7540 6950 c0 -5 5 -10 10 -10 6 0 10 5 10 10 0 6 -4 10 -10 10 -5 0 -10 -4 -10 -10z"/>
<path d="M8280 6950 c0 -5 5 -10 10 -10 6 0 10 5 10 10 0 6 -4 10 -10 10 -5 0 -10 -4 -10 -10z"/>
<path d="M9247 6942 c-10 -10 -14 -22 -10 -25 7 -8 43 21 43 35 0 14 -16 9 -33 -10z"/>
<path d="M10080 6930 c0 -5 5 -10 10 -10 6 0 10 5 10 10 0 6 -4 10 -10 10 -5 0 -10 -4 -10 -10z"/>
<path d="M11040 6930 c0 -5 5 -10 10 -10 6 0 10 5 10 10 0 6 -4 10 -10 10 -5 0 -10 -4 -10 -10z"/>
<path d="M10080 6890 c0 -5 5 -10 10 -10 6 0 10 5 10 10 0 6 -4 10 -10 10 -5 0 -10 -4 -10 -10z"/>
<path d="M11040 6890 c0 -5 5 -10 10 -10 6 0 10 5 10 10 0 6 -4 10 -10 10 -5 0 -10 -4 -10 -10z"/>
<path d="M9040 6870 c0 -5 5 -10 10 -10 6 0 10 5 10 10 0 6 -4 10 -10 10 -5 0 -10 -4 -10 -10z"/>
<path d="M8590 6860 c-13 -9 -13 -11 0 -20 18 -11 39 5 24 20 -6 6 -15 6 -24 0z"/>
<path d="M8840 6850 c0 -5 9 -10 20 -10 11 0 20 5 20 10 0 6 -9 10 -20 10 -11 0 -20 -4 -20 -10z"/>
<path d="M10080 6850 c0 -5 5 -10 10 -10 6 0 10 5 10 10 0 6 -4 10 -10 10 -5 0 -10 -4 -10 -10z"/>
<path d="M11040 6850 c0 -5 5 -10 10 -10 6 0 10 5 10 10 0 6 -4 10 -10 10 -5 0 -10 -4 -10 -10z"/>
<path d="M10080 6810 c0 -5 5 -10 10 -10 6 0 10 5 10 10 0 6 -4 10 -10 10 -5 0 -10 -4 -10 -10z"/>
<path d="M11040 6810 c0 -5 5 -10 10 -10 6 0 10 5 10 10 0 6 -4 10 -10 10 -5 0 -10 -4 -10 -10z"/>
<path d="M10080 6770 c0 -5 5 -10 10 -10 6 0 10 5 10 10 0 6 -4 10 -10 10 -5 0 -10 -4 -10 -10z"/>
<path d="M11040 6770 c0 -5 5 -10 10 -10 6 0 10 5 10 10 0 6 -4 10 -10 10 -5 0 -10 -4 -10 -10z"/>
<path d="M10080 6730 c0 -5 5 -10 10 -10 6 0 10 5 10 10 0 6 -4 10 -10 10 -5 0 -10 -4 -10 -10z"/>
<path d="M11040 6730 c0 -5 5 -10 10 -10 6 0 10 5 10 10 0 6 -4 10 -10 10 -5 0 -10 -4 -10 -10z"/>
<path d="M7760 6710 c0 -5 5 -10 10 -10 6 0 10 5 10 10 0 6 -4 10 -10 10 -5 0 -10 -4 -10 -10z"/>
<path d="M11040 6690 c0 -5 5 -10 10 -10 6 0 10 5 10 10 0 6 -4 10 -10 10 -5 0 -10 -4 -10 -10z"/>
<path d="M7820 6670 c0 -5 5 -10 10 -10 6 0 10 5 10 10 0 6 -4 10 -10 10 -5 0 -10 -4 -10 -10z"/>
<path d="M9670 6672 c0 -10 41 -35 47 -28 9 8 -17 36 -33 36 -8 0 -14 -3 -14 -8z"/>
<path d="M9585 6636 c-16 -13 -27 -28 -22 -32 4 -4 17 2 30 14 13 12 31 22 40 22 9 0 17 5 17 10 0 18 -34 10 -65 -14z"/>
<path d="M7875 6640 c-4 -6 1 -18 11 -25 36 -27 48 -11 15 19 -13 12 -21 14 -26 6z"/>
<path d="M7940 6590 c0 -5 5 -10 10 -10 6 0 10 5 10 10 0 6 -4 10 -10 10 -5 0 -10 -4 -10 -10z"/>
<path d="M9725 6580 c-4 -6 -3 -16 3 -22 6 -6 12 -6 17 2 4 6 3 16 -3 22 -6 6 -12 6 -17 -2z"/>
<path d="M9420 6554 c-7 -8 -19 -14 -26 -14 -17 0 -18 -17 -2 -22 13 -5 68 23 68 33 0 15 -29 17 -40 3z"/>
<path d="M10540 6550 c0 -5 5 -10 10 -10 6 0 10 5 10 10 0 6 -4 10 -10 10 -5 0 -10 -4 -10 -10z"/>
<path d="M15160 6550 c0 -5 5 -10 10 -10 6 0 10 5 10 10 0 6 -4 10 -10 10 -5 0 -10 -4 -10 -10z"/>
<path d="M8060 6530 c0 -5 5 -10 10 -10 6 0 10 5 10 10 0 6 -4 10 -10 10 -5 0 -10 -4 -10 -10z"/>
<path d="M9313 6510 c-24 -10 -30 -25 -14 -34 5 -3 14 1 21 9 7 8 19 15 26 15 8 0 14 5 14 10 0 12 -17 12 -47 0z"/>
<path d="M10540 6510 c0 -5 5 -10 10 -10 6 0 10 5 10 10 0 6 -4 10 -10 10 -5 0 -10 -4 -10 -10z"/>
<path d="M8200 6490 c0 -5 5 -10 10 -10 6 0 10 5 10 10 0 6 -4 10 -10 10 -5 0 -10 -4 -10 -10z"/>
<path d="M10077 6485 c-7 -16 8 -29 23 -20 10 6 2 35 -10 35 -4 0 -10 -7 -13 -15z"/>
<path d="M14677 6493 c-9 -9 12 -33 29 -33 17 0 18 12 2 28 -14 14 -22 15 -31 5z"/>
<path d="M12730 6480 c-13 -9 -13 -11 0 -20 18 -12 21 -12 39 -1 15 10 7 31 -12 31 -7 0 -19 -5 -27 -10z"/>
<path d="M9220 6470 c0 -5 7 -10 15 -10 8 0 15 5 15 10 0 6 -7 10 -15 10 -8 0 -15 -4 -15 -10z"/>
<path d="M10960 6470 c0 -5 5 -10 10 -10 6 0 10 5 10 10 0 6 -4 10 -10 10 -5 0 -10 -4 -10 -10z"/>
<path d="M14740 6470 c0 -5 5 -10 10 -10 6 0 10 5 10 10 0 6 -4 10 -10 10 -5 0 -10 -4 -10 -10z"/>
<path d="M15120 6470 c0 -5 5 -10 10 -10 6 0 10 5 10 10 0 6 -4 10 -10 10 -5 0 -10 -4 -10 -10z"/>
<path d="M8324 6459 c-10 -17 13 -36 27 -22 12 12 4 33 -11 33 -5 0 -12 -5 -16 -11z"/>
<path d="M9180 6450 c0 -5 5 -10 10 -10 6 0 10 5 10 10 0 6 -4 10 -10 10 -5 0 -10 -4 -10 -10z"/>
<path d="M9780 6450 c0 -5 5 -10 10 -10 6 0 10 5 10 10 0 6 -4 10 -10 10 -5 0 -10 -4 -10 -10z"/>
<path d="M8845 6420 c-4 -7 -3 -16 3 -22 14 -14 47 -6 47 12 0 18 -40 26 -50 10z"/>
<path d="M8520 6410 c0 -5 5 -10 10 -10 6 0 10 5 10 10 0 6 -4 10 -10 10 -5 0 -10 -4 -10 -10z"/>
<path d="M8920 6410 c0 -5 5 -10 10 -10 6 0 10 5 10 10 0 6 -4 10 -10 10 -5 0 -10 -4 -10 -10z"/>
<path d="M4286 3265 c-14 -13 -26 -32 -26 -42 -4 -166 3 -450 10 -457 6 -6 10 -18 10 -28 0 -30 34 -21 49 12 9 21 13 71 12 164 -1 77 3 145 9 162 l11 29 29 -35 c16 -19 33 -44 36 -55 4 -11 24 -46 45 -77 22 -31 39 -63 39 -70 0 -7 9 -24 20 -38 11 -14 20 -29 20 -35 1 -16 58 -75 72 -75 32 0 40 57 39 283 -2 185 -5 223 -17 230 -9 5 -13 16 -9 28 5 14 2 19 -13 19 -26 0 -32 -25 -32 -130 0 -130 9 -191 29 -188 14 3 16 -11 19 -88 2 -70 -1 -94 -12 -103 -12 -10 -19 -7 -38 19 -24 34 -26 45 -5 45 26 0 19 51 -13 85 -16 18 -33 44 -36 59 -4 14 -17 40 -29 56 -12 17 -42 68 -65 115 -45 87 -55 100 -101 125 -25 13 -29 13 -53 -10z m37 -44 c-2 -10 -5 -117 -6 -237 -2 -187 -4 -219 -17 -219 -13 0 -15 33 -18 224 -2 197 0 226 14 242 20 22 34 17 27 -10z m101 -93 c8 -15 11 -30 7 -33 -12 -7 -74 62 -67 73 3 6 2 13 -4 17 -6 4 -7 11 -4 17 8 12 45 -28 68 -74z m58 -98 c5 -14 9 -27 9 -30 0 -3 6 -12 13 -20 12 -14 21 -33 25 -55 2 -5 9 -17 17 -27 9 -9 11 -19 6 -22 -5 -3 -15 1 -22 9 -7 8 -10 15 -6 15 3 0 -10 23 -29 50 -19 28 -32 50 -28 50 4 0 -5 13 -20 28 -21 21 -24 31 -15 40 15 15 36 -1 50 -38z"/>
<path d="M5760 3265 c-5 -14 -10 -117 -10 -227 l0 -201 27 -36 c14 -20 28 -38 30 -40 2 -2 5 -2 8 1 4 3 -3 22 -14 41 -17 31 -18 37 -6 47 12 10 16 8 21 -6 4 -11 18 -31 31 -45 23 -26 24 -28 6 -37 -28 -16 -11 -24 60 -27 64 -3 91 4 85 21 -2 5 1 9 7 9 5 0 9 -5 7 -12 -4 -20 14 -23 45 -8 37 19 77 61 69 73 -3 6 0 22 8 37 10 19 14 76 15 214 l2 187 -21 19 -22 19 -19 -24 c-18 -23 -19 -41 -18 -212 1 -176 0 -188 -20 -217 -12 -16 -32 -33 -44 -37 -12 -4 -27 -14 -33 -23 -11 -14 -18 -12 -66 12 -81 41 -82 45 -86 252 -3 121 -8 182 -16 187 -6 4 -11 17 -11 29 0 32 -23 35 -35 4z m360 -399 c0 -8 -7 -19 -15 -26 -12 -10 -16 -9 -21 4 -7 18 13 49 27 40 5 -3 9 -11 9 -18z m-51 -82 c-12 -13 -26 -21 -31 -18 -5 4 0 17 13 30 12 13 26 21 31 18 5 -4 0 -17 -13 -30z"/>
<path d="M6560 3265 c-14 -38 -13 -522 1 -531 18 -11 269 -8 280 3 14 14 0 61 -19 68 -10 2 -57 4 -107 2 l-90 -2 -3 210 c-2 152 -6 211 -15 217 -6 4 -12 17 -12 29 0 32 -23 35 -35 4z"/>
<path d="M8330 3270 l-20 -20 0 -251 c0 -150 4 -258 10 -269 13 -25 44 -15 37 12 -3 11 0 22 9 25 11 4 14 34 14 148 0 79 5 156 11 172 l11 28 23 -29 c13 -17 34 -50 47 -75 12 -26 34 -64 48 -86 14 -22 37 -62 50 -88 13 -27 41 -67 63 -89 36 -37 40 -39 57 -23 17 15 18 38 19 274 l1 258 -21 19 -21 19 -19 -24 c-16 -20 -19 -40 -19 -150 0 -155 7 -202 28 -199 11 2 18 -9 24 -36 9 -41 -5 -72 -26 -59 -6 4 -5 -1 3 -11 11 -13 12 -19 2 -29 -10 -9 -20 -4 -46 28 -18 21 -32 42 -29 46 2 4 -3 12 -11 19 -8 7 -12 16 -9 22 3 5 12 4 20 -3 7 -6 11 -15 8 -20 -6 -10 43 -35 51 -27 10 10 -6 36 -26 41 -12 3 -17 11 -13 20 5 13 -41 102 -71 137 -7 8 -16 26 -20 39 -4 14 -22 46 -40 71 -18 26 -35 55 -37 66 -2 10 -22 29 -45 42 l-42 23 -21 -21z m34 -31 c-3 -5 -10 -7 -15 -3 -5 3 -7 10 -3 15 3 5 10 7 15 3 5 -3 7 -10 3 -15z m66 -63 c-13 -13 -35 7 -25 24 5 8 11 8 21 -1 10 -8 12 -15 4 -23z m37 -48 c37 -57 73 -128 65 -128 -3 0 7 -13 22 -28 23 -25 25 -30 12 -42 -13 -10 -17 -8 -25 12 -5 13 -16 30 -25 37 -9 7 -14 17 -11 21 3 4 -2 13 -10 20 -8 7 -13 16 -10 20 3 4 -2 13 -10 20 -8 7 -15 17 -15 23 0 6 -10 21 -21 33 -12 13 -19 30 -16 38 9 23 14 20 44 -26z"/>
<path d="M2880 3262 c-20 -9 -45 -24 -56 -32 -25 -19 -74 -113 -74 -142 0 -29 13 -50 28 -46 6 2 17 -6 25 -17 l15 -20 7 40 c13 78 39 129 76 147 52 26 83 22 118 -13 17 -17 31 -36 31 -42 1 -7 10 -23 21 -37 l21 -25 19 24 c25 31 24 51 -7 96 -31 47 -65 76 -81 70 -7 -2 -15 0 -18 5 -10 16 -87 11 -125 -8z m54 -11 c7 -11 -20 -34 -32 -27 -14 8 -82 -70 -82 -93 0 -24 -18 -37 -32 -23 -10 10 2 38 32 76 8 10 14 20 13 22 -2 2 0 4 5 5 4 0 14 7 23 15 9 8 18 12 21 9 3 -3 11 1 18 10 14 17 26 19 34 6z m86 -6 c7 -8 16 -13 20 -10 4 2 15 -4 25 -15 10 -11 14 -20 10 -20 -4 0 0 -9 9 -19 10 -11 15 -25 11 -30 -10 -16 -25 -13 -32 7 -8 24 -44 62 -59 62 -15 0 -36 25 -27 33 11 11 30 8 43 -8z"/>
<path d="M3590 3253 c-46 -30 -87 -77 -108 -126 -15 -35 -16 -203 0 -248 15 -45 61 -103 102 -128 35 -22 100 -28 126 -11 15 9 7 25 -13 25 -7 0 -11 8 -9 16 2 12 -8 18 -36 23 -43 6 -76 37 -86 79 -8 32 -21 35 -29 7 -6 -24 -25 -26 -34 -3 -4 11 3 23 20 37 33 26 33 30 5 56 l-22 20 23 21 c12 12 20 28 17 36 -3 8 1 24 9 36 8 12 15 29 15 37 0 26 51 65 110 83 23 7 91 -43 115 -83 16 -28 20 -54 21 -132 1 -72 -2 -101 -12 -109 -8 -6 -14 -17 -14 -23 0 -18 -54 -66 -74 -66 -22 0 -16 -22 7 -26 23 -3 97 67 97 93 0 26 10 35 26 22 10 -8 9 -15 -1 -37 -19 -37 -81 -96 -93 -88 -15 9 -26 -14 -14 -26 7 -7 21 -2 43 13 66 47 114 125 104 169 -5 21 -12 30 -23 28 -14 -3 -17 7 -17 62 0 55 3 65 17 62 58 -9 3 122 -72 172 -66 44 -139 47 -200 9z m63 -8 c1 -6 -12 -16 -28 -24 -17 -7 -40 -22 -51 -33 -12 -11 -24 -15 -28 -10 -9 16 74 83 97 78 5 -1 9 -6 10 -11z m87 0 c7 -8 16 -13 20 -10 3 2 24 -14 45 -35 22 -22 35 -40 30 -40 -4 0 0 -9 10 -20 13 -15 15 -24 8 -31 -15 -15 -35 -1 -31 21 4 24 -69 100 -88 93 -17 -6 -46 15 -38 28 8 14 30 11 44 -6z m-205 -135 c3 -39 -12 -48 -26 -16 -9 20 -9 29 1 41 16 19 22 13 25 -25z m61 -311 c17 -18 22 -29 14 -34 -22 -13 -100 82 -82 99 4 4 15 -3 25 -16 9 -13 29 -35 43 -49z"/>
<path d="M5120 3272 c-27 -12 -55 -36 -73 -62 -23 -33 -23 -128 1 -156 19 -23 72 -59 87 -59 6 -1 20 -7 33 -13 12 -7 26 -11 31 -8 5 3 14 -1 21 -9 7 -8 21 -15 30 -15 10 0 30 -15 44 -32 20 -25 26 -29 26 -15 0 26 -18 57 -34 57 -8 0 -19 6 -26 14 -6 8 -17 13 -25 10 -20 -8 -27 12 -10 26 13 10 19 9 35 -5 11 -10 20 -14 20 -10 0 15 50 -38 65 -69 8 -16 15 -40 15 -53 0 -12 5 -23 10 -23 15 0 12 53 -6 88 -16 32 -70 79 -114 99 -14 6 -44 19 -67 28 -55 23 -75 46 -71 81 3 27 33 49 92 68 11 4 16 12 12 21 -7 20 12 29 30 15 10 -9 11 -16 4 -25 -7 -9 -3 -21 14 -41 14 -16 33 -40 44 -53 16 -20 21 -22 40 -12 29 16 28 37 -5 80 -36 47 -65 71 -80 66 -7 -2 -15 0 -18 5 -7 11 -102 12 -125 2z m54 -21 c11 -17 -32 -37 -69 -32 -13 2 36 40 52 41 6 0 14 -4 17 -9z m136 -26 c6 -8 9 -18 6 -23 -3 -6 1 -15 9 -22 8 -7 12 -16 9 -22 -3 -5 -12 -4 -20 3 -7 6 -12 15 -9 19 3 4 -7 15 -20 24 -14 9 -23 21 -20 26 9 15 31 12 45 -5z m-214 -51 c-5 -13 -10 -14 -18 -6 -6 6 -8 18 -4 28 5 13 10 14 18 6 6 -6 8 -18 4 -28z m4 -84 c0 -22 -18 -36 -30 -24 -11 12 7 57 20 49 5 -3 10 -15 10 -25z m64 -49 c9 -8 16 -10 16 -6 0 4 7 2 15 -5 18 -15 12 -28 -12 -26 -26 2 -85 35 -79 45 7 11 42 7 60 -8z"/>
<path d="M7172 3270 c-77 -5 -101 -14 -102 -41 0 -12 57 -33 105 -38 l50 -6 5 -216 c5 -223 10 -249 49 -249 38 0 46 36 51 255 l5 210 57 5 c67 6 100 29 82 58 -9 14 -31 18 -115 22 -57 3 -141 3 -187 0z m115 -388 c-2 -95 -21 -99 -24 -5 -2 75 2 97 16 88 6 -3 9 -40 8 -83z"/>
<path d="M7833 3253 c-16 -34 -18 -478 -3 -488 6 -3 10 -15 10 -26 0 -30 33 -23 48 11 18 40 17 462 -1 503 -15 34 -38 35 -54 0z m42 -254 c0 -201 -2 -234 -15 -234 -13 0 -15 33 -18 225 -1 123 0 231 3 238 3 8 11 12 18 9 9 -3 12 -59 12 -238z"/>
<path d="M9236 3273 c-3 -4 -13 -8 -21 -9 -23 -3 -70 -40 -97 -76 -36 -49 -48 -92 -48 -180 0 -121 14 -162 76 -224 l54 -54 82 4 c46 2 91 7 101 11 13 5 26 0 43 -16 l26 -24 19 24 c16 20 19 40 19 136 0 144 -1 145 -120 145 -71 0 -89 -3 -94 -16 -20 -51 8 -78 67 -65 44 10 47 8 47 -39 0 -27 -7 -43 -27 -62 -40 -36 -54 -38 -114 -21 -61 17 -79 34 -79 74 0 15 -4 31 -10 34 -5 3 -10 42 -10 85 0 43 5 82 10 85 6 3 10 19 10 34 0 35 32 65 90 84 l45 15 30 -22 c17 -12 39 -41 50 -64 21 -46 42 -53 68 -24 20 22 21 35 5 65 -24 42 -53 69 -95 88 -41 19 -113 26 -127 12z m28 -22 c8 -13 -21 -34 -38 -28 -7 3 -28 -10 -47 -29 -18 -19 -29 -34 -25 -34 5 0 3 -7 -4 -15 -7 -8 -17 -12 -22 -9 -5 3 -2 14 8 25 9 10 13 19 9 19 -5 0 4 13 20 30 15 16 31 27 35 25 4 -3 13 2 20 10 14 17 36 20 44 6z m76 -6 c7 -9 15 -13 18 -10 3 3 12 -1 21 -9 9 -8 21 -15 26 -15 6 -1 11 -9 11 -19 1 -9 2 -20 3 -24 2 -14 1 -18 -4 -18 -3 0 -4 2 -2 4 4 9 -66 75 -75 70 -12 -8 -39 16 -32 27 8 13 20 11 34 -6z m-212 -162 c-16 -15 -18 -15 -24 0 -3 9 -3 25 0 34 6 15 8 15 24 0 15 -16 15 -18 0 -34z m12 -177 c0 -8 -7 -19 -15 -26 -12 -10 -16 -9 -21 4 -7 18 13 49 27 40 5 -3 9 -11 9 -18z m58 -104 c18 -12 20 -17 11 -29 -10 -12 -17 -9 -40 13 -16 15 -26 31 -23 36 5 8 10 7 52 -20z m181 -28 c-6 -7 -15 -11 -21 -8 -5 3 -4 12 3 20 6 7 15 11 21 8 5 -3 4 -12 -3 -20z"/>
<path d="M10363 3269 c-17 -17 -19 -524 -2 -535 15 -9 304 -8 319 1 14 8 4 56 -13 67 -7 4 -60 8 -119 8 -128 0 -131 3 -120 101 l7 64 78 3 c64 2 78 6 73 17 -3 8 3 19 12 25 26 15 1 26 -48 22 -31 -3 -40 -8 -38 -21 2 -12 -5 -16 -32 -16 -24 0 -34 4 -32 14 1 7 -3 19 -9 27 -13 16 -17 112 -6 132 6 8 40 12 111 12 88 0 107 3 127 19 20 16 22 23 13 38 -10 16 -27 18 -130 19 -66 0 -132 4 -149 8 -20 5 -34 3 -42 -5z m53 -55 c-5 -13 -10 -14 -18 -6 -6 6 -8 18 -4 28 5 13 10 14 18 6 6 -6 8 -18 4 -28z m4 -208 c-13 -13 -35 7 -25 24 5 8 11 8 21 -1 10 -8 12 -15 4 -23z m-6 -237 c-3 -5 -10 -7 -15 -3 -5 3 -7 10 -3 15 3 5 10 7 15 3 5 -3 7 -10 3 -15z"/>
<path d="M11965 3269 c-4 -6 -13 -8 -21 -5 -7 3 -26 -6 -41 -19 -28 -25 -18 -34 17 -15 33 18 30 -5 -5 -39 l-34 -32 -11 21 c-6 11 -15 18 -21 15 -14 -9 -40 -77 -35 -92 3 -7 1 -15 -4 -18 -16 -10 -12 -177 5 -199 8 -11 15 -29 15 -40 1 -21 52 -86 68 -86 4 0 13 -5 20 -12 14 -14 180 -20 188 -7 9 15 44 10 50 -6 6 -15 44 -21 44 -7 6 96 3 266 -5 272 -6 5 -50 6 -99 2 -67 -5 -91 -11 -99 -24 -19 -29 9 -48 68 -48 72 0 84 -16 51 -69 -14 -22 -36 -45 -48 -52 -13 -6 -30 -20 -39 -32 -17 -21 -42 -16 -33 8 4 9 -3 16 -19 20 -13 4 -40 25 -59 48 l-34 42 2 108 c2 99 5 111 29 143 28 36 72 64 103 64 27 0 69 -35 98 -81 27 -43 43 -48 68 -20 12 13 15 27 10 47 -9 35 -90 118 -109 110 -8 -3 -17 -1 -20 4 -8 14 -92 13 -100 -1z m19 -18 c3 -5 -1 -14 -8 -20 -16 -13 -32 2 -21 19 8 12 22 13 29 1z m80 -12 c-3 -5 -10 -7 -15 -3 -5 3 -7 10 -3 15 3 5 10 7 15 3 5 -3 7 -10 3 -15z m82 -54 c23 -29 34 -49 28 -55 -11 -11 -86 79 -78 92 8 13 11 11 50 -37z m-271 -55 c8 -13 -14 -42 -25 -35 -7 4 -7 23 -1 43 2 6 21 1 26 -8z m-16 -150 c-3 -87 -6 -95 -25 -79 -15 12 -21 169 -7 183 19 18 34 -32 32 -104z m318 -16 c9 -23 -11 -38 -26 -20 -13 16 -7 36 10 36 5 0 12 -7 16 -16z m3 -124 c0 -60 -10 -80 -28 -57 -11 14 -11 96 1 115 16 24 27 0 27 -58z m-306 29 c-3 -5 -10 -7 -15 -3 -5 3 -7 10 -3 15 3 5 10 7 15 3 5 -3 7 -10 3 -15z m40 -80 c-9 -15 -23 -10 -34 11 -17 32 0 47 22 21 10 -13 15 -27 12 -32z m201 2 c7 -12 -12 -24 -25 -16 -11 7 -4 25 10 25 5 0 11 -4 15 -9z m-171 -22 c-3 -5 -10 -7 -15 -3 -5 3 -7 10 -3 15 3 5 10 7 15 3 5 -3 7 -10 3 -15z"/>
<path d="M14837 3274 c-3 -3 -63 -6 -134 -7 l-128 -2 -1 -110 c-2 -122 2 -141 21 -125 20 16 42 -15 25 -35 -7 -9 -19 -14 -26 -11 -15 6 -27 -105 -22 -194 l3 -55 140 -5 c77 -3 145 -4 152 -2 21 6 42 47 32 63 -6 11 -36 14 -126 15 l-118 2 -5 82 c-3 45 -3 84 -1 86 2 2 32 4 67 4 44 0 63 4 67 14 4 9 14 12 26 9 15 -4 21 -1 21 10 0 27 -31 35 -106 30 -40 -3 -74 -2 -77 4 -3 5 -3 40 1 77 l7 69 103 -2 c111 -2 132 5 132 45 0 27 -37 54 -53 38z"/>
<path d="M16065 3267 c-58 -35 -76 -50 -71 -63 3 -7 1 -16 -4 -19 -14 -9 -12 -86 2 -116 13 -28 74 -74 98 -74 9 -1 32 -11 52 -23 19 -12 42 -22 50 -22 19 0 68 -52 68 -72 0 -9 7 -18 15 -22 20 -7 19 -36 -1 -64 -18 -26 -15 -35 10 -26 27 10 46 59 46 116 0 50 -3 56 -45 96 -25 24 -51 45 -58 46 -6 1 -22 7 -34 14 -12 7 -29 12 -38 12 -9 0 -36 16 -59 35 -24 19 -46 35 -50 35 -4 0 -4 -15 -1 -34 4 -19 2 -36 -3 -40 -16 -10 -42 52 -42 100 0 38 5 47 42 78 23 20 46 35 51 33 16 -5 12 -22 -8 -31 -22 -10 -49 -56 -39 -65 4 -3 9 0 11 7 7 18 57 42 88 42 18 0 41 -15 76 -52 52 -54 67 -57 93 -16 15 24 -32 88 -84 116 -47 25 -131 29 -165 9z m175 -47 c23 -23 38 -46 34 -52 -5 -7 -14 -3 -28 14 -12 14 -33 33 -48 43 -15 9 -25 21 -22 26 10 16 24 9 64 -31z m-97 -195 c10 -7 25 -11 33 -8 7 3 26 -4 41 -14 15 -11 35 -22 45 -26 17 -6 34 -60 23 -77 -10 -16 -25 -1 -25 25 0 25 -59 70 -83 62 -6 -2 -31 7 -54 20 -24 13 -43 21 -43 18 0 -4 -5 -3 -10 0 -6 4 -8 10 -5 15 7 11 53 3 78 -15z"/>
<path d="M15257 3263 c-13 -12 -7 -24 19 -33 29 -11 30 -47 1 -42 -15 3 -17 -7 -17 -74 0 -63 3 -75 15 -70 22 8 37 -28 27 -66 -6 -23 -14 -32 -25 -30 -15 2 -17 -8 -17 -82 0 -46 -2 -91 -5 -99 -3 -7 3 -25 14 -38 l21 -24 20 25 c18 22 19 35 14 121 -4 74 -2 99 7 105 17 10 90 5 105 -7 6 -5 32 -51 57 -102 25 -50 57 -103 71 -116 24 -23 28 -24 43 -9 10 11 13 23 8 35 -5 10 -7 24 -6 31 1 7 -6 25 -17 40 -10 15 -26 43 -36 62 -9 19 -22 42 -28 51 -14 20 -4 49 20 55 9 3 27 20 40 39 43 67 22 167 -45 210 -21 14 -54 18 -153 21 -70 2 -130 1 -133 -3z m321 -93 c-5 -22 -32 -18 -36 5 -2 11 -10 27 -18 36 -8 9 -11 19 -7 22 10 11 64 -45 61 -63z m-57 -3 c10 -11 14 -27 11 -35 -3 -8 5 -22 18 -32 17 -13 21 -22 15 -36 -5 -11 -8 -22 -7 -25 1 -4 -8 -15 -19 -25 -13 -12 -23 -14 -30 -7 -7 7 -2 15 16 27 21 14 24 20 14 32 -10 12 -14 13 -28 0 -9 -7 -27 -17 -41 -21 -14 -4 -30 -12 -37 -17 -7 -5 -18 -6 -25 -1 -7 4 -29 8 -48 8 l-35 0 0 75 0 75 50 6 c74 8 127 0 146 -24z m-46 -157 c11 -17 -5 -32 -21 -19 -7 6 -11 15 -8 20 7 12 21 11 29 -1z m60 -123 c26 -52 20 -87 -7 -45 -8 13 -15 26 -14 29 1 4 -6 15 -14 25 -24 31 -39 61 -33 68 11 10 42 -25 68 -77z m40 -95 c-2 -9 -4 -19 -4 -21 -1 -2 -8 2 -16 9 -12 10 -13 16 -4 26 14 17 28 9 24 -14z"/>
<path d="M3880 3005 c0 -19 4 -35 9 -35 13 0 18 20 13 47 -7 36 -22 27 -22 -12z"/>
<path d="M2740 3005 c0 -8 5 -15 10 -15 6 0 10 7 10 15 0 8 -4 15 -10 15 -5 0 -10 -7 -10 -15z"/>
<path d="M2796 2973 c-4 -4 -15 -8 -24 -8 -13 0 -18 -10 -20 -40 -3 -48 38 -118 96 -163 34 -26 44 -28 116 -27 l78 1 45 44 44 45 -5 50 c-3 28 -5 51 -6 53 -1 10 -40 -1 -40 -13 0 -22 -61 -104 -82 -111 -10 -3 -17 -13 -16 -22 2 -11 -4 -17 -17 -17 -13 0 -19 6 -17 17 2 11 -7 18 -27 23 -32 7 -65 39 -76 73 -9 30 -25 28 -25 -3 0 -15 15 -41 35 -64 20 -22 32 -42 27 -45 -14 -8 -102 94 -102 119 0 3 12 17 26 30 18 17 24 30 19 44 -7 22 -16 26 -29 14z m274 -187 c-42 -43 -59 -23 -23 28 25 35 28 36 40 20 12 -16 9 -22 -17 -48z"/>
<path d="M5036 2895 c-4 -10 2 -19 17 -24 12 -5 29 -22 37 -37 8 -16 23 -35 33 -43 13 -9 16 -16 8 -24 -12 -12 -71 37 -71 60 0 7 -7 13 -15 13 -18 0 -18 -2 -4 -32 18 -40 87 -77 137 -73 24 2 46 6 49 8 11 12 -31 56 -57 62 -29 6 -90 71 -90 94 0 17 -37 13 -44 -4z"/>
<path d="M15996 2895 c-10 -8 -23 -16 -28 -17 -5 -2 2 -27 17 -56 36 -71 83 -94 181 -89 62 4 69 6 67 25 -1 11 4 26 12 32 16 13 21 50 7 50 -4 0 -13 -9 -20 -20 -7 -11 -19 -20 -28 -20 -8 0 -14 -7 -12 -16 4 -25 -22 -29 -29 -5 -3 14 -13 21 -28 21 -32 0 -82 45 -90 80 -7 33 -20 37 -49 15z m32 -47 c-2 -4 12 -22 30 -41 34 -35 33 -60 -1 -30 -10 10 -21 17 -23 16 -2 -2 -3 -1 -1 1 1 2 -6 13 -16 24 -11 12 -16 26 -12 32 7 12 29 10 23 -2z"/>
<path d="M5290 2830 c-6 -11 -22 -23 -35 -26 -30 -7 -32 -20 -6 -27 20 -5 71 38 71 61 0 19 -18 14 -30 -8z"/>
<path d="M5343 2818 c-4 -7 -8 -16 -8 -20 0 -5 -4 -8 -10 -9 -5 0 -18 -8 -27 -16 -10 -9 -18 -13 -18 -8 0 4 -7 2 -15 -5 -25 -21 -2 -32 31 -16 34 17 74 53 74 66 0 15 -18 21 -27 8z"/>
</g>
</g>
  <g id="id3:id3" transform="matrix(1.25,0,0,1.25,0.0,0.0)"><g transform="translate(0.000000,486.400000) scale(0.040000,-0.040000)" fill="#00324d" stroke="none">
<path d="M8540 9033 c-24 -3 -49 -8 -55 -13 -6 -5 -21 -7 -32 -4 -39 10 -274 -52 -377 -100 -117 -54 -137 -64 -164 -89 -10 -10 -23 -17 -29 -17 -6 0 -17 -7 -24 -16 -7 -9 -22 -20 -34 -25 -57 -27 -105 -64 -105 -83 0 -6 -31 -42 -70 -79 -78 -77 -128 -145 -137 -188 -3 -15 -14 -36 -24 -45 -11 -9 -19 -25 -19 -34 0 -10 -6 -23 -14 -29 -8 -7 -22 -38 -31 -69 -10 -31 -26 -81 -36 -110 -11 -29 -19 -66 -19 -83 0 -17 -5 -39 -11 -50 -5 -11 -11 -47 -11 -80 0 -33 -5 -62 -9 -65 -22 -13 -3 -400 22 -446 5 -10 9 -30 9 -45 0 -33 48 -193 63 -211 6 -8 18 -35 27 -61 27 -74 131 -219 222 -307 75 -73 182 -154 203 -154 5 0 17 -7 27 -17 20 -18 50 -36 88 -54 14 -6 53 -24 87 -40 34 -16 66 -29 72 -29 6 0 31 -7 57 -16 25 -8 67 -19 93 -24 25 -5 71 -15 101 -24 66 -19 390 -42 417 -30 10 4 59 9 108 10 50 1 103 7 118 13 16 6 44 11 63 11 19 0 54 9 76 20 23 11 50 20 59 20 10 0 31 5 46 11 75 31 112 49 118 59 3 5 17 10 31 10 27 0 104 41 124 65 7 8 20 15 30 15 10 0 20 6 23 14 8 19 56 29 73 15 8 -6 11 -15 8 -20 -3 -5 1 -22 9 -38 8 -15 22 -56 32 -89 14 -45 24 -62 36 -62 10 0 21 -4 24 -10 7 -12 264 -14 281 -2 8 5 11 197 10 660 -1 563 -4 654 -16 662 -17 11 -1229 14 -1303 4 -25 -4 -47 -12 -49 -18 -2 -6 -2 -95 0 -197 l3 -186 25 -12 c18 -8 145 -11 437 -11 227 0 416 0 420 0 4 0 -3 -15 -16 -32 -27 -36 -67 -115 -67 -133 0 -15 -145 -165 -159 -165 -11 0 -56 -28 -94 -59 -22 -18 -120 -46 -252 -72 -114 -22 -409 -29 -458 -10 -16 6 -39 11 -52 11 -36 0 -205 58 -250 86 -22 13 -53 30 -70 38 -42 20 -235 223 -235 248 0 11 -9 31 -20 45 -11 14 -20 34 -20 43 0 10 -7 23 -15 30 -8 7 -15 23 -15 36 0 12 -5 26 -11 29 -6 4 -8 14 -5 22 4 9 1 22 -6 30 -18 22 -24 378 -8 452 7 31 16 61 21 67 6 7 11 25 13 42 5 35 48 117 110 208 28 40 143 150 191 181 54 36 150 83 168 83 8 0 17 6 20 14 3 7 27 16 54 19 26 4 84 13 128 21 161 30 490 15 589 -27 21 -10 46 -17 55 -18 9 0 36 -14 61 -30 25 -16 61 -36 80 -45 48 -22 118 -92 125 -126 4 -15 10 -30 15 -33 5 -3 18 -25 29 -49 39 -80 29 -77 300 -77 133 0 246 3 251 6 30 19 -76 296 -140 367 -17 18 -30 38 -30 44 0 18 -182 187 -225 209 -22 10 -48 27 -58 37 -10 10 -26 18 -36 18 -10 0 -24 7 -31 15 -7 8 -27 17 -46 21 -19 3 -38 12 -42 18 -9 15 -90 46 -119 46 -12 0 -25 5 -28 10 -3 6 -24 10 -45 10 -21 0 -42 5 -45 10 -3 6 -19 10 -34 10 -15 0 -31 4 -36 9 -6 5 -35 12 -65 15 -30 2 -86 9 -125 15 -67 10 -331 12 -425 4z"/>
<path d="M10583 8973 c-12 -2 -26 -10 -33 -17 -7 -10 -10 -360 -8 -1238 3 -1035 5 -1228 17 -1242 13 -15 39 -17 242 -15 192 1 231 4 241 17 10 12 13 129 14 534 l1 518 819 0 c486 0 822 -4 827 -9 6 -6 10 -223 11 -520 1 -404 4 -513 14 -523 10 -10 70 -14 233 -16 199 -4 222 -2 240 14 l19 17 0 1233 c0 961 -3 1234 -13 1242 -7 5 -109 10 -244 11 -215 2 -232 1 -241 -16 -6 -11 -9 -203 -8 -468 1 -247 -1 -463 -4 -478 l-5 -28 -809 1 c-591 0 -812 -3 -822 -11 -8 -6 -15 -10 -15 -8 -1 2 -2 225 -3 494 -1 270 -5 495 -8 501 -7 10 -420 17 -465 7z"/>
<path d="M13581 8956 l-22 -23 3 -202 2 -201 553 0 c344 0 554 -4 558 -10 3 -5 5 -461 5 -1013 l0 -1003 22 -22 23 -21 215 0 c179 1 218 3 232 16 16 15 17 83 18 1025 0 556 3 1014 6 1019 3 5 241 9 540 9 l536 0 19 23 c16 20 18 41 19 202 0 147 -3 185 -15 203 l-16 22 -1338 0 -1338 0 -22 -24z"/>
<path d="M7883 5523 c-17 -6 -19 -973 -3 -1004 l11 -19 449 0 449 0 11 19 c12 23 13 91 1 109 -6 10 -88 14 -387 15 l-379 2 -3 430 c-2 487 4 456 -86 454 -28 0 -57 -3 -63 -6z"/>
<path d="M9258 5523 c-17 -4 -18 -37 -18 -503 0 -386 3 -500 13 -507 9 -8 105 -11 140 -4 4 0 7 228 7 505 0 450 -2 505 -16 510 -17 7 -99 6 -126 -1z"/>
<path d="M9953 5523 c-12 -2 -23 -10 -25 -16 -1 -7 -2 -231 0 -498 l2 -487 30 -12 c32 -13 83 -6 99 14 7 8 12 144 13 392 2 242 7 378 13 377 5 0 29 -48 53 -105 23 -56 53 -125 66 -153 13 -27 39 -84 58 -125 19 -41 50 -113 68 -160 19 -47 40 -92 47 -101 7 -8 13 -20 13 -25 0 -5 12 -35 27 -66 l28 -58 51 0 c37 0 56 5 67 18 10 10 17 22 17 25 0 6 25 63 85 192 13 28 35 79 49 115 14 36 39 93 56 128 27 56 79 176 124 285 9 21 20 36 26 32 6 -4 10 -139 10 -389 l0 -383 25 -11 c33 -15 57 -15 90 0 l25 11 0 473 c0 260 2 478 5 486 12 31 -13 43 -100 47 -98 4 -129 -9 -140 -58 -3 -16 -13 -35 -21 -42 -8 -6 -14 -16 -14 -22 0 -6 -8 -29 -19 -51 -10 -23 -33 -77 -51 -120 -18 -44 -36 -87 -41 -95 -28 -52 -139 -310 -139 -326 -1 -20 -48 -68 -59 -60 -12 7 -91 170 -91 186 0 4 -18 47 -41 96 -65 140 -66 142 -120 268 -28 66 -55 124 -60 130 -5 5 -9 17 -9 27 0 11 -11 30 -25 43 -21 22 -32 25 -97 24 -40 -1 -83 -4 -95 -6z"/>
<path d="M11617 5523 c-16 -4 -17 -35 -15 -511 l3 -507 44 -3 c24 -2 57 2 72 9 l29 11 0 498 0 498 -22 6 c-26 6 -84 6 -111 -1z"/>
<path d="M12038 5519 c-22 -12 -26 -103 -5 -116 6 -4 115 -10 240 -13 l228 -5 -1 -424 c-1 -484 -5 -461 81 -461 27 0 51 5 56 13 4 6 10 206 13 442 l5 430 224 3 c145 1 229 6 238 13 16 14 17 101 1 117 -16 16 -1054 17 -1080 1z"/>
<path d="M13432 5517 l-24 -12 1 -489 c1 -339 5 -494 12 -503 9 -10 100 -13 454 -13 l444 0 19 25 c11 14 19 33 17 43 -2 9 -6 29 -10 44 l-5 28 -388 2 -387 3 -3 149 c-2 103 1 153 9 163 10 11 63 14 310 13 164 -1 302 1 308 4 15 10 24 83 11 105 l-11 21 -312 2 -312 3 0 140 0 140 369 3 c252 1 373 6 383 13 16 14 17 101 1 117 -17 17 -853 17 -886 -1z"/>
<path d="M14798 5519 c-17 -9 -18 -44 -18 -498 l0 -488 20 -18 c18 -16 41 -17 312 -13 268 5 299 7 363 28 245 78 364 242 365 501 0 190 -98 360 -252 437 -108 53 -178 62 -487 62 -176 0 -293 -5 -303 -11z m652 -150 c143 -47 207 -122 228 -269 27 -184 -40 -346 -170 -409 -90 -44 -149 -52 -374 -49 l-199 3 -3 360 c-1 198 0 366 3 372 3 10 58 13 228 13 199 0 231 -2 287 -21z"/>
<path d="M11372 3255 c-8 -16 -12 -86 -12 -185 0 -89 -4 -161 -9 -165 -6 -3 -19 15 -30 40 -11 25 -52 101 -91 168 -39 67 -75 129 -79 137 -6 10 -24 15 -57 15 l-49 0 -3 -253 c-3 -280 3 -311 48 -282 12 7 16 46 20 207 3 117 9 198 15 198 5 0 36 -48 70 -106 33 -58 72 -126 86 -150 15 -24 37 -64 50 -89 13 -24 36 -51 51 -59 25 -15 28 -14 42 4 23 30 23 490 0 523 -20 29 -38 28 -52 -3z"/>
<path d="M12612 3255 c-8 -17 -12 -104 -12 -259 0 -219 1 -235 20 -257 l20 -24 20 24 c19 22 20 38 20 260 0 198 -3 240 -16 259 -20 29 -38 28 -52 -3z"/>
<path d="M13420 3254 c-6 -14 -10 -94 -10 -179 0 -156 -9 -193 -33 -138 -7 15 -21 41 -31 56 -11 16 -26 41 -35 57 -128 234 -121 225 -192 218 l-34 -3 -3 -250 c-3 -259 2 -295 38 -295 32 0 40 45 40 230 0 104 4 181 10 185 5 3 23 -21 39 -54 17 -33 35 -62 41 -66 5 -3 20 -27 33 -53 74 -148 139 -242 168 -242 3 0 11 11 17 25 18 39 16 494 -2 518 -19 24 -35 21 -46 -9z"/>
<path d="M2867 3242 c-87 -49 -126 -172 -102 -317 10 -59 29 -95 75 -140 l41 -40 79 0 79 0 34 33 c37 36 57 109 34 124 -16 10 -25 1 -43 -40 -25 -60 -41 -72 -100 -72 -64 0 -99 12 -114 40 -36 66 -51 212 -29 267 41 101 42 101 101 121 53 19 105 -8 135 -68 12 -25 28 -45 35 -45 19 0 22 42 4 79 -41 86 -137 110 -229 58z"/>
<path d="M3615 3258 c-33 -18 -76 -60 -101 -100 -22 -34 -24 -48 -24 -158 0 -110 2 -124 24 -158 45 -70 79 -94 138 -97 29 -1 58 -4 63 -5 19 -6 60 18 96 57 45 47 53 63 69 139 18 88 5 165 -40 241 -43 72 -163 116 -225 81z m105 -45 c25 -9 52 -23 62 -30 49 -42 64 -221 27 -312 -26 -61 -59 -81 -133 -81 -44 0 -54 4 -88 37 -29 28 -38 45 -38 69 0 18 -4 36 -10 39 -5 3 -10 33 -10 65 0 32 5 62 10 65 6 3 10 19 10 34 0 45 26 84 72 107 54 27 45 27 98 7z"/>
<path d="M4292 3247 l-22 -23 0 -226 c0 -125 3 -233 6 -242 8 -22 31 -20 44 3 6 12 10 96 10 205 0 102 4 187 9 190 12 8 48 -33 65 -75 8 -20 22 -41 30 -49 9 -7 16 -16 16 -21 0 -5 17 -37 38 -71 21 -35 46 -79 55 -98 34 -67 54 -95 70 -98 33 -6 37 32 35 275 -3 204 -5 238 -18 238 -12 0 -16 -25 -22 -140 -8 -155 -18 -225 -33 -227 -5 0 -28 36 -51 80 -22 44 -46 87 -52 95 -7 8 -32 52 -55 98 -24 46 -48 84 -55 84 -6 0 -17 6 -23 13 -18 17 -22 16 -47 -11z"/>
<path d="M5120 3255 c-7 -8 -18 -15 -26 -15 -26 0 -44 -43 -44 -105 0 -56 3 -64 33 -92 17 -17 50 -37 72 -44 22 -7 44 -17 50 -21 5 -4 19 -8 30 -8 12 0 34 -13 49 -29 22 -23 29 -40 29 -71 0 -63 -22 -80 -102 -80 -57 0 -68 3 -93 27 -15 15 -28 32 -28 39 0 6 -7 17 -16 24 -12 11 -18 11 -30 -2 -14 -14 -14 -19 -1 -44 30 -57 69 -84 130 -89 31 -3 60 -6 64 -7 22 -6 103 44 117 73 28 55 21 103 -20 149 -20 22 -51 46 -68 54 -17 7 -58 25 -91 39 -49 21 -61 32 -71 60 -11 30 -10 39 7 66 10 17 26 31 34 31 8 0 24 6 35 12 15 10 22 10 32 0 6 -6 20 -12 30 -12 9 0 32 -18 49 -40 35 -44 44 -48 53 -25 11 30 -34 90 -83 111 -45 19 -125 18 -141 -1z"/>
<path d="M8341 3256 c-8 -9 -11 -87 -9 -262 3 -214 5 -249 18 -249 13 0 16 33 20 215 3 118 9 214 13 213 12 -3 54 -68 99 -153 22 -41 45 -82 52 -90 7 -8 25 -41 41 -73 16 -31 44 -71 62 -89 27 -26 35 -29 48 -18 13 10 15 47 15 236 0 219 -7 280 -33 272 -9 -3 -13 -51 -17 -171 -4 -139 -8 -169 -22 -184 -17 -16 -18 -15 -33 19 -8 20 -19 39 -24 43 -5 3 -22 31 -37 63 -15 31 -39 75 -53 97 -14 22 -34 58 -46 80 -11 22 -25 40 -32 40 -7 0 -18 6 -24 13 -16 15 -24 15 -38 -2z"/>
<path d="M9213 3256 c-35 -19 -62 -47 -94 -94 l-29 -43 0 -115 c0 -130 11 -163 74 -223 33 -32 42 -35 103 -37 52 -2 77 2 107 17 l40 21 16 -23 c11 -14 22 -19 30 -14 10 6 11 35 8 117 -3 60 -8 111 -11 114 -10 10 -142 15 -156 6 -29 -20 -4 -40 49 -40 28 0 56 -4 60 -8 12 -12 -5 -81 -25 -104 -9 -10 -32 -26 -50 -34 -70 -34 -175 23 -190 103 -9 47 -9 157 1 201 10 52 55 103 103 118 52 15 89 0 143 -61 28 -33 39 -39 49 -30 9 9 8 20 -3 50 -28 70 -158 116 -225 79z"/>
<path d="M10382 3258 c-18 -18 -17 -501 1 -517 8 -6 17 -8 20 -4 8 8 221 8 234 0 6 -4 19 3 29 14 29 32 4 39 -124 38 -62 -1 -115 1 -118 4 -3 3 -6 47 -7 99 l-2 93 85 3 c47 2 89 7 94 12 14 14 -13 40 -43 40 -14 0 -51 1 -81 3 l-55 2 2 74 c1 41 7 79 12 84 6 6 40 9 75 8 95 -3 156 8 156 28 0 14 -16 16 -117 19 -65 2 -125 5 -133 7 -9 3 -21 0 -28 -7z"/>
<path d="M11935 3253 c-49 -25 -81 -61 -95 -106 -8 -23 -17 -46 -22 -51 -4 -6 -8 -46 -8 -90 0 -62 5 -92 21 -126 12 -25 27 -56 33 -69 23 -49 60 -66 146 -65 55 0 86 6 104 17 l25 17 15 -22 c13 -18 17 -19 31 -8 14 12 16 30 12 116 -2 56 -8 107 -11 113 -10 16 -151 14 -164 -2 -19 -23 2 -35 58 -34 l55 2 -3 -55 c-3 -46 -8 -59 -30 -77 -31 -26 -113 -31 -157 -11 -73 33 -102 228 -51 334 29 59 38 68 91 81 49 12 95 -4 122 -42 50 -71 50 -71 68 -54 16 15 15 19 -8 55 -42 67 -87 94 -154 94 -27 -1 -61 -8 -78 -17z"/>
<path d="M13885 3257 c-3 -7 -4 -127 -3 -267 l3 -255 149 -3 c157 -3 180 3 174 42 -3 20 -11 21 -123 26 l-120 5 0 90 0 90 65 1 c80 0 110 10 110 34 0 16 -11 19 -77 25 -110 9 -104 5 -101 82 l3 68 117 3 c124 3 140 10 118 53 -10 17 -23 19 -161 19 -111 0 -151 -3 -154 -13z"/>
<path d="M16060 3255 c-7 -8 -19 -15 -26 -15 -8 0 -14 -6 -14 -14 0 -7 -7 -19 -15 -26 -21 -17 -20 -108 1 -138 17 -24 139 -86 191 -97 45 -9 57 -29 57 -93 -2 -71 -16 -82 -104 -82 -52 0 -71 4 -83 18 -10 10 -17 23 -17 29 0 13 -33 43 -48 43 -17 0 -15 -31 4 -69 23 -47 83 -71 168 -66 61 3 71 6 102 36 31 30 34 38 34 95 0 47 -5 67 -21 88 -22 28 -88 66 -114 66 -21 0 -75 28 -102 53 -16 14 -23 32 -23 57 0 51 32 80 90 80 39 0 50 -5 92 -47 43 -42 50 -46 63 -32 14 14 13 19 -15 54 -48 60 -76 75 -146 75 -43 0 -65 -5 -74 -15z"/>
<path d="M5777 3254 c-4 -4 -7 -99 -7 -211 0 -215 4 -236 49 -277 32 -29 181 -32 237 -4 68 34 77 63 79 268 2 185 -3 225 -26 225 -11 0 -15 -34 -20 -185 -3 -102 -10 -201 -15 -220 -13 -46 -47 -62 -135 -62 -118 -1 -128 20 -131 276 -3 178 -8 212 -31 190z"/>
<path d="M6577 3254 c-4 -4 -7 -119 -7 -254 0 -250 4 -282 37 -262 14 9 176 7 190 -1 6 -4 19 3 29 14 28 31 4 40 -111 38 l-100 -2 -5 233 c-5 220 -10 257 -33 234z"/>
<path d="M7130 3252 c-14 -5 -25 -14 -25 -22 0 -10 16 -14 63 -15 34 -1 67 -6 73 -12 8 -8 11 -71 10 -202 -2 -219 3 -261 30 -261 28 0 33 50 26 267 -3 110 -1 195 4 198 5 3 39 8 76 11 74 5 82 9 64 27 -14 14 -279 21 -321 9z"/>
<path d="M7836 3244 c-10 -26 -7 -478 4 -494 7 -12 13 -12 27 -4 16 10 18 33 21 240 1 126 0 239 -3 252 -6 26 -40 30 -49 6z"/>
<path d="M14591 3246 c-9 -10 -12 -80 -12 -250 0 -130 3 -241 6 -247 10 -15 273 -9 286 7 22 27 -3 34 -115 34 -79 0 -116 4 -123 13 -5 6 -6 50 -3 97 l5 85 79 5 c51 3 81 10 84 17 6 20 -47 35 -108 31 l-54 -3 -8 46 c-5 26 -5 64 0 85 l8 39 114 5 c107 5 115 6 115 25 0 19 -8 20 -131 23 -105 2 -133 0 -143 -12z"/>
<path d="M15271 3247 c-8 -10 -12 -56 -13 -139 -1 -271 2 -334 16 -354 10 -13 18 -16 25 -8 16 15 29 328 18 439 -2 18 5 20 85 23 93 3 128 -7 128 -36 0 -10 4 -22 10 -28 10 -10 -7 -72 -28 -97 -8 -9 -39 -18 -77 -22 -42 -5 -66 -12 -69 -22 -5 -11 2 -14 31 -11 l38 3 53 -105 c56 -112 95 -161 112 -144 7 7 -5 39 -36 99 -25 50 -50 97 -56 106 -9 13 -3 24 35 61 l47 45 0 64 c0 61 -2 67 -36 100 l-35 34 -118 3 c-95 3 -120 1 -130 -11z"/>
</g>
</g>
</svg>
