<?xml version="1.0" standalone="no"?>
<!DOCTYPE svg PUBLIC "-//W3C//DTD SVG 1.1//EN"
 "http://www.w3.org/Graphics/SVG/1.1/DTD/svg11.dtd">
<!-- Created with svg_stack (http://github.com/astraw/svg_stack) -->
<svg xmlns:sodipodi="http://sodipodi.sourceforge.net/DTD/sodipodi-0.dtd" xmlns="http://www.w3.org/2000/svg" version="1.1" width="512.0" height="512.0">
  <defs/>
  <g id="id0:id0" transform="matrix(1.25,0,0,1.25,0.0,0.0)"><g transform="translate(0.000000,409.600000) scale(0.040000,-0.040000)" fill="#fefefe" stroke="none">
<path d="M6960 9685 c-147 -40 -193 -62 -281 -133 -125 -101 -205 -207 -295 -390 -72 -146 -119 -252 -150 -335 -8 -21 -25 -60 -38 -85 -13 -26 -26 -60 -30 -77 -4 -16 -21 -61 -38 -100 -17 -38 -48 -119 -69 -180 -21 -60 -50 -141 -64 -180 -15 -38 -32 -90 -39 -115 -7 -25 -18 -54 -24 -65 -7 -11 -32 -85 -57 -165 -26 -80 -52 -163 -60 -185 -7 -22 -34 -107 -60 -190 -26 -82 -55 -175 -64 -205 -10 -30 -28 -93 -41 -140 -13 -47 -28 -98 -35 -115 -7 -16 -16 -44 -20 -62 -7 -37 -33 -51 -185 -103 -255 -87 -393 -137 -445 -161 -22 -10 -53 -21 -70 -24 -36 -8 -54 -15 -125 -49 -30 -14 -61 -26 -68 -26 -7 0 -32 -8 -55 -19 -23 -10 -69 -28 -102 -41 -33 -13 -80 -32 -105 -43 -25 -10 -54 -23 -65 -27 -11 -5 -51 -21 -90 -35 -38 -15 -101 -42 -140 -60 -119 -56 -235 -99 -245 -89 -11 12 5 98 40 209 16 50 47 153 70 230 38 127 136 433 175 545 8 25 45 133 81 240 35 107 70 203 75 214 6 10 18 42 26 70 8 28 19 56 23 61 4 6 22 52 39 103 17 51 36 101 41 110 5 9 21 49 36 87 14 39 43 112 65 163 21 51 39 97 39 103 0 5 9 27 20 47 20 38 87 201 97 237 4 11 14 31 25 44 10 13 18 29 18 36 0 14 88 214 103 233 13 17 -6 38 -46 51 -54 18 -246 41 -336 41 -107 0 -257 -23 -336 -50 -176 -63 -305 -163 -408 -317 -76 -114 -217 -389 -217 -424 0 -4 -13 -36 -29 -71 -16 -35 -38 -90 -51 -123 -12 -33 -28 -73 -35 -90 -15 -33 -69 -176 -90 -240 -7 -22 -29 -85 -49 -140 -39 -109 -101 -292 -133 -395 -21 -65 -84 -270 -128 -410 -13 -41 -26 -86 -28 -100 -13 -59 -29 -116 -42 -145 -7 -16 -20 -57 -28 -90 -20 -78 -83 -312 -106 -395 -11 -36 -21 -76 -24 -90 -9 -43 -37 -152 -57 -220 -11 -36 -20 -75 -20 -86 0 -33 -20 -49 -140 -114 -63 -33 -122 -65 -130 -70 -8 -6 -26 -15 -40 -20 -35 -15 -182 -94 -342 -184 -43 -24 -237 -138 -288 -168 -60 -36 -402 -266 -461 -311 -123 -91 -143 -108 -163 -136 -12 -16 -37 -49 -57 -73 -42 -49 -108 -177 -135 -258 -38 -116 -13 -346 43 -398 l24 -22 32 24 c18 13 75 47 127 76 52 28 129 72 170 96 41 24 104 59 140 78 36 19 85 45 110 59 125 72 250 139 490 265 280 147 381 195 389 186 8 -8 -1 -71 -29 -204 -6 -30 -15 -77 -20 -105 -4 -27 -20 -115 -35 -195 -14 -80 -30 -172 -35 -205 -5 -33 -14 -87 -20 -120 -13 -64 -21 -119 -69 -485 -56 -425 -88 -872 -78 -1095 5 -111 10 -141 35 -207 42 -110 72 -156 146 -225 113 -107 215 -143 401 -143 114 0 264 22 291 42 7 5 15 48 18 96 18 232 64 672 96 912 24 176 61 442 74 530 42 275 49 319 56 365 4 28 11 68 14 90 4 22 13 72 21 110 7 39 18 102 25 140 16 99 38 215 60 320 10 50 21 104 23 120 5 32 31 161 48 235 6 25 26 119 46 210 19 91 38 181 43 200 5 19 14 64 21 98 18 89 19 89 399 247 74 31 160 67 190 80 30 13 91 38 135 56 44 17 125 49 180 71 55 22 143 56 195 74 52 19 104 39 115 45 20 12 290 109 380 137 28 8 60 21 72 30 24 15 59 9 48 -9 -4 -6 -14 -40 -22 -77 -16 -70 -29 -124 -62 -257 -11 -44 -27 -109 -36 -145 -9 -36 -20 -81 -25 -100 -5 -19 -21 -84 -35 -145 -14 -60 -37 -155 -50 -210 -21 -86 -37 -156 -85 -375 -4 -19 -22 -98 -39 -175 -17 -77 -38 -174 -46 -215 -9 -41 -25 -115 -35 -165 -10 -49 -21 -103 -24 -120 -3 -16 -19 -97 -36 -180 -17 -82 -36 -175 -41 -205 -5 -30 -13 -77 -19 -105 -20 -106 -52 -282 -60 -330 -4 -27 -13 -79 -20 -115 -6 -36 -16 -94 -21 -130 -10 -61 -18 -111 -40 -240 -5 -30 -11 -71 -14 -90 -2 -19 -11 -82 -20 -140 -8 -58 -17 -127 -20 -155 -2 -27 -14 -124 -25 -215 -31 -262 -50 -519 -53 -730 -2 -200 9 -282 49 -358 8 -15 14 -32 14 -39 0 -6 30 -43 68 -80 88 -91 184 -137 337 -163 138 -23 475 0 501 34 7 10 15 52 19 94 11 130 65 619 70 634 2 7 9 63 15 123 6 61 15 139 20 175 5 36 19 135 30 220 30 215 58 413 71 490 6 36 12 79 13 95 5 51 88 542 111 660 8 39 17 88 21 110 3 22 10 63 14 90 4 28 18 100 30 160 12 61 25 130 30 155 5 25 14 68 19 95 6 28 18 90 26 139 9 49 18 92 20 97 3 4 14 54 25 111 34 178 51 262 60 298 11 43 25 108 41 180 6 30 15 65 20 78 5 13 9 37 9 53 0 17 4 38 9 47 5 9 11 33 14 52 2 19 12 62 20 95 9 33 35 137 57 230 22 94 45 186 50 205 6 19 17 62 24 95 33 144 139 546 167 631 10 34 19 69 19 78 0 33 33 117 49 125 9 5 41 14 71 21 30 7 75 19 100 27 25 8 65 18 90 23 25 4 72 15 105 24 98 25 317 77 365 86 25 5 81 17 125 26 112 23 260 53 325 64 30 5 84 16 120 24 36 8 92 17 125 21 33 4 78 11 100 17 22 6 83 16 135 24 135 18 378 51 425 58 22 3 76 10 120 16 44 5 121 14 170 20 295 36 722 70 1203 96 l122 6 0 440 0 440 -72 -6 c-40 -3 -149 -11 -243 -16 -93 -6 -244 -17 -335 -25 -91 -8 -219 -20 -285 -25 -66 -6 -142 -15 -170 -20 -27 -5 -149 -21 -270 -35 -285 -35 -270 -33 -345 -45 -36 -6 -110 -17 -165 -25 -147 -22 -165 -25 -220 -36 -62 -12 -313 -58 -380 -70 -27 -5 -70 -13 -95 -19 -25 -6 -67 -14 -95 -19 -83 -15 -329 -69 -520 -116 -243 -59 -231 -58 -227 -15 1 19 8 51 16 70 8 19 45 130 82 245 36 116 70 215 74 220 5 6 13 30 19 55 7 25 16 54 21 65 5 11 18 47 30 80 11 33 41 121 66 195 25 74 52 147 61 163 8 16 21 48 28 71 32 95 65 186 88 237 14 30 35 86 48 124 13 39 28 77 35 85 6 8 19 40 29 70 10 30 30 82 45 115 15 33 39 92 54 130 15 39 34 86 43 105 28 62 50 114 74 170 13 30 29 62 36 71 22 27 14 43 -30 63 -132 58 -516 75 -677 31z"/>
<path d="M6266 2162 c-3 -3 -62 -4 -131 -3 -87 1 -125 -1 -125 -9 0 -6 16 -26 35 -44 l35 -33 0 -71 c0 -81 15 -101 61 -79 22 11 25 20 29 89 3 43 10 82 17 89 23 23 33 -3 33 -91 0 -96 11 -114 54 -87 18 12 24 12 42 1 17 -12 23 -12 39 0 16 12 23 12 43 -2 39 -26 52 3 52 115 0 80 -3 96 -20 113 -11 11 -23 20 -28 20 -17 0 -51 -31 -54 -50 -5 -32 -21 -28 -30 6 -7 29 -38 50 -52 36z"/>
</g>
</g>
  <g id="id1:id1" transform="matrix(1.25,0,0,1.25,0.0,0.0)"><g transform="translate(0.000000,409.600000) scale(0.040000,-0.040000)" fill="#231f20" stroke="none">
<path d="M0 5120 l0 -5120 5120 0 5120 0 0 3466 0 3465 -117 -6 c-278 -15 -605 -37 -698 -46 -55 -6 -107 -11 -115 -10 -38 0 -571 -58 -635 -69 -46 -8 -259 -37 -330 -45 -73 -8 -247 -35 -255 -40 -4 -3 -43 -10 -86 -15 -85 -12 -178 -29 -454 -86 -96 -20 -197 -40 -225 -45 -68 -12 -103 -20 -305 -69 -96 -23 -191 -46 -210 -50 -134 -30 -275 -71 -291 -85 -17 -16 -24 -37 -59 -170 -7 -27 -19 -72 -27 -100 -12 -44 -52 -195 -114 -435 -32 -121 -58 -230 -75 -305 -8 -38 -19 -79 -23 -90 -5 -11 -14 -47 -21 -80 -6 -33 -16 -73 -21 -90 -24 -82 -54 -216 -65 -290 -3 -22 -9 -49 -14 -60 -4 -11 -14 -49 -20 -85 -7 -36 -19 -90 -27 -120 -8 -30 -18 -77 -23 -105 -4 -27 -24 -126 -45 -220 -20 -93 -42 -204 -50 -245 -8 -41 -33 -167 -55 -280 -40 -199 -54 -271 -70 -375 -4 -27 -19 -117 -34 -200 -50 -275 -88 -499 -101 -600 -8 -55 -21 -154 -29 -220 -9 -66 -21 -140 -26 -165 -6 -25 -17 -101 -25 -170 -8 -69 -19 -159 -26 -200 -6 -41 -15 -109 -20 -150 -4 -41 -10 -93 -13 -115 -36 -306 -54 -471 -66 -614 -6 -63 -15 -120 -20 -127 -31 -36 -459 -44 -570 -10 -130 40 -212 92 -270 171 -88 119 -106 231 -89 568 17 352 20 384 80 842 41 320 48 363 69 490 6 33 15 87 20 120 6 33 15 87 20 120 6 33 15 85 19 115 13 83 67 374 96 515 8 39 17 86 20 105 6 37 33 167 65 315 10 50 21 104 23 120 3 17 23 113 47 215 23 102 50 223 60 270 39 179 60 272 110 480 29 118 56 231 60 250 11 50 77 312 100 397 11 39 20 80 20 90 0 11 5 24 11 30 18 18 3 43 -25 43 -14 0 -40 -6 -58 -14 -18 -8 -114 -42 -213 -76 -99 -34 -198 -70 -220 -80 -22 -9 -62 -25 -90 -35 -27 -9 -75 -28 -105 -41 -30 -12 -134 -54 -230 -92 -96 -39 -231 -94 -300 -122 -69 -29 -156 -65 -195 -80 -38 -15 -105 -44 -147 -64 -42 -20 -81 -36 -85 -36 -4 0 -22 -13 -39 -29 -24 -23 -33 -41 -38 -81 -4 -28 -11 -59 -15 -68 -5 -10 -16 -55 -25 -102 -30 -149 -45 -223 -65 -315 -11 -49 -29 -132 -41 -182 -11 -51 -20 -101 -20 -110 0 -10 -9 -56 -19 -103 -23 -103 -37 -177 -56 -295 -13 -78 -27 -154 -50 -270 -4 -16 -10 -57 -15 -90 -15 -101 -40 -265 -55 -365 -9 -52 -24 -165 -35 -250 -10 -85 -24 -177 -29 -205 -6 -27 -15 -102 -21 -165 -6 -63 -13 -122 -15 -130 -6 -22 -52 -462 -65 -625 -6 -77 -14 -143 -18 -147 -21 -20 -153 -38 -280 -38 -119 0 -146 4 -205 24 -169 60 -274 174 -333 361 -17 52 -19 91 -18 300 0 134 8 333 18 450 23 280 92 820 136 1070 12 66 25 147 30 180 5 33 16 96 25 140 9 44 20 103 24 130 5 28 16 86 25 130 34 170 38 194 33 209 -6 14 -128 -43 -367 -172 -30 -17 -98 -52 -150 -78 -82 -41 -242 -128 -385 -210 -22 -12 -71 -39 -110 -59 -38 -19 -88 -47 -110 -60 -22 -13 -51 -29 -65 -35 -14 -6 -32 -17 -40 -25 -8 -7 -44 -28 -80 -46 -36 -17 -89 -48 -118 -67 -29 -19 -59 -32 -68 -28 -21 8 -42 64 -55 148 -14 89 -14 87 -1 173 8 50 27 102 71 190 52 103 72 133 141 203 44 45 97 93 117 107 21 14 52 35 69 47 94 68 422 283 502 329 52 30 110 64 130 76 20 12 53 30 72 40 19 11 69 39 110 62 41 24 89 49 105 57 17 7 37 18 45 24 8 5 26 15 40 20 14 6 48 23 75 38 28 16 95 52 150 81 105 56 145 89 145 122 0 17 12 66 56 224 8 28 18 70 23 95 6 25 28 113 51 195 22 83 49 182 59 220 11 39 30 104 44 145 13 41 30 100 37 130 7 30 19 73 26 95 7 22 34 108 59 190 86 276 156 492 210 640 70 193 97 270 107 305 5 19 14 40 19 46 5 7 23 49 40 95 17 46 41 107 54 135 14 28 32 73 41 100 27 80 136 293 198 386 134 203 329 325 569 358 98 13 289 13 354 1 137 -27 158 -32 170 -43 8 -6 10 -15 4 -22 -12 -16 -101 -223 -101 -236 0 -7 -9 -23 -20 -37 -11 -14 -20 -31 -20 -39 0 -7 -8 -27 -17 -46 -37 -73 -41 -85 -53 -128 -6 -25 -18 -52 -25 -60 -6 -8 -27 -55 -44 -105 -18 -49 -36 -94 -40 -100 -5 -5 -23 -50 -40 -100 -18 -49 -36 -94 -40 -100 -5 -5 -21 -46 -35 -90 -26 -79 -68 -191 -86 -230 -19 -40 -261 -764 -305 -910 -56 -186 -64 -213 -98 -325 -31 -102 -67 -242 -67 -262 0 -12 35 -9 47 3 6 6 66 33 134 60 67 27 127 54 133 58 6 5 29 16 51 24 46 17 210 83 240 97 11 5 74 30 140 55 66 25 145 57 175 69 30 13 80 32 110 41 30 10 69 23 85 30 69 31 424 157 505 180 14 4 46 16 71 27 l47 19 25 82 c14 45 35 116 47 157 12 41 47 154 77 250 30 96 75 240 100 320 25 80 51 159 58 175 7 17 16 46 20 65 4 19 11 40 16 45 4 6 26 62 47 125 93 270 167 468 232 620 15 36 44 106 65 155 20 50 72 162 115 250 90 184 167 289 276 376 89 72 125 90 258 128 103 29 119 31 279 31 257 0 473 -42 438 -84 -6 -7 -24 -47 -42 -91 -17 -43 -35 -86 -39 -94 -14 -27 -46 -102 -75 -176 -15 -38 -35 -86 -45 -105 -10 -19 -28 -66 -40 -105 -13 -38 -28 -77 -35 -85 -7 -8 -25 -51 -39 -95 -15 -44 -40 -108 -56 -143 -17 -34 -30 -69 -30 -77 0 -8 -11 -39 -24 -69 -13 -29 -27 -69 -31 -87 -4 -19 -13 -41 -20 -49 -7 -8 -15 -24 -18 -35 -3 -11 -38 -112 -77 -225 -39 -113 -76 -223 -82 -245 -6 -22 -14 -44 -19 -50 -4 -5 -30 -82 -59 -170 -28 -88 -58 -176 -65 -195 -8 -19 -17 -51 -21 -70 -3 -19 -10 -40 -15 -45 -4 -6 -13 -31 -18 -56 -6 -25 -13 -54 -17 -64 -9 -23 0 -21 271 45 110 26 227 53 260 60 33 6 98 20 145 30 47 10 135 28 195 40 61 12 130 26 155 32 25 5 83 16 130 24 47 8 108 19 135 24 51 10 95 18 270 44 55 9 129 21 165 27 36 6 79 12 95 14 17 2 118 14 225 28 198 26 212 28 380 46 138 15 404 40 480 46 132 9 535 35 543 35 4 0 7 556 7 1235 l0 1235 -5120 0 -5120 0 0 -5120z m6193 -2984 c1 -5 -12 -14 -30 -20 -25 -9 -30 -14 -23 -26 5 -8 10 -40 10 -71 0 -42 -5 -60 -19 -73 -26 -23 -31 -11 -34 79 -3 65 -6 78 -25 91 -12 8 -20 19 -17 24 7 11 134 7 138 -4z m112 -31 c7 -22 22 -59 35 -83 19 -36 21 -47 11 -68 -15 -35 -31 -21 -31 27 0 33 -3 40 -17 37 -12 -2 -19 -14 -21 -33 -4 -35 -22 -59 -34 -47 -14 14 -12 180 2 197 21 25 42 13 55 -30z m120 -62 c0 -111 -11 -131 -33 -61 -8 24 -18 51 -23 60 -22 43 0 111 34 106 l22 -3 0 -102z"/>
</g>
</g>
</svg>
