<?xml version="1.0" standalone="no"?>
<!DOCTYPE svg PUBLIC "-//W3C//DTD SVG 1.1//EN"
 "http://www.w3.org/Graphics/SVG/1.1/DTD/svg11.dtd">
<!-- Created with svg_stack (http://github.com/astraw/svg_stack) -->
<svg xmlns:sodipodi="http://sodipodi.sourceforge.net/DTD/sodipodi-0.dtd" xmlns="http://www.w3.org/2000/svg" version="1.1" width="1744.0" height="480.0">
  <defs/>
  <g id="id0:id0" transform="matrix(1.25,0,0,1.25,0.0,0.0)"><g transform="translate(0.000000,384.000000) scale(0.040000,-0.040000)" fill="#fdfdfd" stroke="none">
<path d="M0 9288 l0 -311 1213 5 c1269 6 2234 -3 2327 -21 30 -5 87 -15 125 -21 126 -20 302 -63 410 -100 133 -46 375 -159 414 -194 9 -7 34 -23 57 -34 84 -42 245 -176 402 -333 94 -94 165 -174 169 -189 3 -14 27 -48 53 -76 26 -27 55 -65 65 -83 9 -18 32 -55 51 -80 76 -108 195 -373 272 -611 51 -157 62 -200 83 -315 82 -448 91 -814 29 -1185 -10 -58 -77 -309 -105 -395 -46 -141 -219 -490 -283 -571 -12 -16 -49 -65 -82 -109 -124 -168 -172 -224 -297 -345 -70 -69 -173 -160 -228 -202 -55 -43 -120 -93 -145 -113 -25 -19 -60 -42 -79 -51 -19 -9 -49 -26 -65 -39 -17 -13 -65 -40 -106 -61 -41 -20 -88 -47 -105 -59 -16 -12 -41 -26 -55 -30 -14 -4 -54 -21 -90 -38 -36 -16 -116 -47 -178 -68 -110 -37 -182 -72 -182 -89 0 -4 10 -14 23 -23 20 -14 57 -58 187 -227 27 -36 89 -116 137 -178 49 -63 102 -133 118 -156 17 -24 56 -75 88 -114 117 -147 165 -209 225 -292 57 -79 96 -128 234 -299 30 -38 51 -74 52 -90 1 -19 6 -26 19 -25 10 1 25 -10 35 -25 9 -14 37 -51 62 -82 25 -31 66 -85 92 -120 26 -35 79 -104 118 -154 39 -49 86 -110 103 -134 18 -24 57 -75 87 -112 30 -38 75 -96 100 -129 25 -34 59 -79 75 -100 17 -22 77 -101 135 -176 58 -76 134 -175 170 -221 36 -46 92 -121 126 -166 33 -45 67 -82 75 -82 12 0 14 587 17 4147 l2 4147 19 11 c14 7 668 9 2068 8 l2048 -3 0 -715 0 -715 -1215 -2 -1215 -3 -3 -945 c-2 -753 0 -945 10 -945 7 0 560 -1 1228 -3 l1215 -2 3 -337 2 -337 -32 -44 c-18 -24 -67 -89 -108 -146 -41 -56 -93 -127 -115 -157 -22 -29 -62 -85 -90 -124 -27 -39 -68 -95 -91 -123 -22 -29 -54 -73 -72 -98 -26 -39 -38 -47 -72 -53 -22 -3 -453 -6 -958 -6 l-917 1 0 -1068 0 -1068 135 -3 c74 -1 141 -4 149 -7 16 -6 9 -18 -106 -173 -46 -62 -93 -129 -104 -150 -12 -20 -32 -50 -46 -67 -23 -28 -64 -86 -158 -220 -22 -31 -60 -86 -85 -121 -25 -35 -72 -103 -105 -150 -33 -47 -80 -113 -105 -146 -66 -88 -101 -137 -246 -348 -32 -47 -80 -113 -107 -148 l-49 -62 -1368 0 -1368 0 -76 95 c-42 53 -76 99 -76 104 0 4 -10 16 -21 27 -12 10 -65 73 -118 138 -53 65 -113 140 -134 165 -21 25 -70 89 -109 141 -40 52 -91 115 -114 140 -22 25 -54 65 -71 90 -17 25 -48 61 -68 80 -20 19 -50 54 -67 78 -27 39 -295 379 -348 442 -56 67 -221 271 -274 339 -32 42 -90 114 -130 160 -78 93 -127 156 -196 251 -25 34 -67 86 -94 116 -27 30 -76 89 -110 133 -34 43 -96 121 -138 172 -68 82 -112 137 -207 259 -13 17 -29 29 -35 27 -8 -3 -12 -398 -16 -1478 l-5 -1474 -842 -3 -843 -2 0 -245 0 -245 3428 0 3428 0 42 62 c23 35 65 97 93 138 28 41 70 100 92 130 23 30 62 84 87 121 79 117 138 202 204 294 36 50 99 140 140 200 42 61 116 166 165 235 102 142 110 154 189 269 31 45 77 111 102 145 25 33 54 75 65 92 11 18 34 50 50 72 17 22 38 53 48 68 9 16 40 61 67 99 28 39 67 95 87 125 20 30 51 72 70 93 18 20 33 44 33 52 0 8 15 32 33 52 29 33 119 161 224 320 17 26 44 63 59 81 14 18 51 69 81 114 30 45 78 113 107 152 30 39 60 85 69 101 9 17 36 52 61 80 25 27 46 55 46 63 0 7 19 39 43 70 24 31 69 95 101 142 32 47 80 117 107 155 28 39 84 120 126 180 42 61 92 130 113 155 20 25 45 61 55 80 10 19 34 55 55 80 20 25 67 91 106 148 38 56 90 133 117 170 58 82 114 162 190 273 32 46 78 111 102 144 25 33 59 80 75 105 32 49 145 212 228 328 29 40 59 86 67 101 7 15 21 34 30 41 15 12 79 104 129 184 11 17 38 56 61 86 22 30 53 73 67 95 15 22 48 69 73 105 25 36 70 101 101 145 30 44 75 107 99 140 25 33 57 80 72 105 15 25 48 70 73 100 25 30 52 66 58 80 7 14 35 57 62 95 28 39 63 88 78 110 46 68 228 326 289 410 32 44 82 116 111 160 30 44 68 96 86 115 18 19 36 42 39 51 5 16 69 113 148 224 28 39 70 100 95 137 24 37 48 69 53 72 7 5 99 137 218 313 18 27 51 74 75 107 24 32 70 98 103 146 33 48 97 139 141 201 45 63 105 150 135 194 29 44 73 107 98 140 26 34 51 68 56 77 6 9 37 55 70 103 33 48 76 110 95 139 19 28 60 85 90 126 31 41 68 95 84 120 16 25 46 66 67 91 21 25 43 58 48 73 l11 26 -6785 0 -6785 0 0 -312z"/>
<path d="M15266 9566 c-14 -19 -26 -37 -26 -40 0 -6 -147 -215 -271 -386 -22 -30 -49 -70 -62 -87 -12 -18 -47 -68 -76 -110 -30 -43 -72 -103 -93 -133 -21 -30 -66 -93 -99 -140 -33 -47 -92 -132 -131 -190 -39 -58 -79 -114 -88 -125 -9 -11 -39 -51 -65 -90 -27 -38 -71 -101 -97 -140 -27 -38 -69 -97 -93 -130 -25 -33 -53 -73 -63 -89 -9 -16 -38 -56 -63 -90 -25 -34 -57 -79 -72 -101 -14 -22 -45 -68 -69 -101 -24 -34 -76 -110 -117 -170 -41 -60 -91 -129 -111 -154 -20 -25 -47 -63 -60 -85 -13 -22 -32 -51 -42 -65 -113 -150 -158 -213 -158 -220 0 -5 -21 -32 -46 -62 -25 -29 -55 -69 -66 -88 -10 -19 -42 -66 -69 -105 -27 -38 -66 -95 -86 -125 -20 -30 -73 -104 -118 -165 -45 -60 -94 -128 -108 -150 -15 -22 -42 -61 -60 -86 -17 -25 -59 -86 -92 -135 -85 -124 -119 -173 -155 -219 -31 -40 -76 -105 -127 -182 -15 -24 -50 -74 -78 -112 -27 -38 -66 -92 -85 -120 -74 -107 -160 -227 -182 -255 -13 -16 -36 -50 -53 -76 -16 -26 -58 -87 -92 -136 -60 -85 -73 -102 -121 -169 -47 -65 -149 -209 -182 -260 -19 -29 -54 -79 -78 -111 -23 -33 -62 -88 -87 -124 -24 -36 -66 -96 -94 -135 -28 -38 -71 -99 -96 -135 -24 -36 -87 -126 -140 -200 -52 -74 -115 -164 -140 -200 -24 -36 -61 -85 -80 -110 -20 -25 -43 -58 -52 -75 -24 -45 -75 -105 -89 -105 -14 0 -27 -28 -18 -42 3 -5 -5 -22 -19 -36 -13 -15 -35 -43 -48 -63 -50 -75 -119 -176 -148 -214 -27 -36 -62 -86 -205 -293 -24 -35 -54 -74 -67 -88 -13 -14 -35 -44 -49 -68 -27 -47 -121 -183 -194 -281 -25 -33 -57 -80 -73 -105 -15 -25 -41 -63 -58 -85 -17 -22 -39 -51 -48 -65 -10 -14 -44 -63 -77 -110 -33 -47 -85 -121 -115 -165 -30 -44 -73 -105 -95 -135 -22 -30 -52 -74 -67 -98 -16 -24 -41 -61 -58 -82 -27 -35 -55 -75 -158 -221 -17 -26 -45 -64 -60 -85 -16 -22 -75 -106 -132 -189 -57 -82 -132 -190 -167 -238 -109 -154 -246 -349 -304 -435 -31 -46 -69 -97 -85 -113 -16 -16 -29 -39 -29 -49 l0 -20 13160 0 13160 0 0 4800 0 4800 -9794 0 -9794 0 -26 -34z m7349 -4816 l0 -4255 -820 0 -820 0 -2 2105 c-2 1158 1 2337 5 2620 4 283 6 521 4 528 -11 32 -48 4 -103 -78 -31 -47 -77 -104 -102 -128 -27 -25 -44 -48 -41 -56 3 -8 -14 -39 -38 -68 -24 -30 -61 -80 -83 -111 -22 -31 -62 -87 -90 -123 -27 -36 -61 -83 -75 -104 -27 -40 -48 -69 -185 -255 -49 -67 -117 -160 -150 -206 -33 -46 -94 -129 -135 -184 -41 -55 -88 -118 -103 -140 -15 -22 -46 -65 -67 -95 -22 -30 -56 -80 -76 -110 -20 -30 -49 -68 -64 -85 -15 -16 -46 -57 -69 -90 -47 -68 -120 -169 -204 -282 -123 -167 -143 -194 -187 -258 -25 -36 -58 -83 -75 -104 -16 -22 -55 -74 -85 -116 -59 -82 -201 -277 -244 -335 -15 -19 -56 -75 -91 -125 -36 -49 -86 -116 -111 -148 -25 -32 -55 -74 -66 -95 -12 -20 -31 -48 -44 -62 -12 -14 -42 -52 -66 -86 -45 -64 -103 -145 -176 -245 -24 -32 -50 -59 -58 -59 -13 0 -18 -11 -15 -37 1 -7 -18 -37 -41 -67 -24 -30 -60 -78 -81 -108 -21 -29 -69 -96 -107 -148 -38 -52 -89 -122 -113 -155 -24 -33 -84 -114 -133 -181 -49 -67 -116 -159 -149 -205 -33 -46 -94 -129 -135 -184 -41 -55 -88 -118 -103 -140 -15 -22 -42 -60 -59 -85 -17 -25 -52 -70 -78 -100 -26 -31 -49 -65 -51 -75 l-4 -20 -615 0 -615 0 -5 2635 c-3 1449 -9 2640 -13 2647 -9 15 -37 6 -37 -12 0 -8 -11 -27 -25 -43 -26 -31 -76 -102 -216 -306 -44 -65 -126 -180 -180 -255 -146 -201 -230 -319 -364 -511 -25 -36 -68 -96 -96 -135 -27 -38 -72 -101 -99 -140 -28 -38 -73 -101 -101 -140 -27 -38 -70 -99 -95 -135 -105 -153 -137 -199 -185 -265 -62 -87 -132 -186 -205 -290 -53 -75 -131 -182 -181 -250 -12 -16 -27 -39 -33 -50 -5 -11 -34 -54 -65 -95 -30 -41 -75 -104 -100 -140 -24 -36 -69 -99 -99 -140 -30 -41 -85 -119 -122 -173 -37 -54 -89 -126 -117 -160 -27 -34 -56 -75 -65 -92 -24 -48 -81 -117 -105 -130 -15 -7 -21 -18 -19 -33 2 -14 -8 -36 -25 -56 -15 -18 -50 -65 -78 -105 -27 -39 -88 -124 -134 -189 -46 -64 -99 -139 -117 -167 -19 -27 -54 -77 -78 -110 -25 -33 -66 -91 -93 -130 -26 -38 -62 -87 -80 -108 -18 -20 -33 -43 -33 -50 0 -6 -22 -40 -48 -74 -54 -71 -82 -111 -224 -313 -56 -80 -142 -200 -192 -268 -50 -68 -100 -140 -112 -160 -11 -20 -31 -43 -45 -49 -32 -17 -1844 -19 -1854 -3 -4 6 8 28 27 50 31 37 87 114 161 222 18 26 52 75 76 110 25 35 67 95 93 133 122 176 142 204 189 270 27 39 72 102 100 140 27 39 76 108 109 155 34 47 76 108 95 135 20 28 58 82 85 120 27 39 70 99 94 135 25 36 68 97 95 135 28 39 71 99 96 135 25 36 66 95 93 132 26 37 61 86 77 110 17 24 54 74 83 113 30 38 62 86 73 106 10 20 39 55 64 77 32 28 43 45 39 56 -4 11 3 27 18 44 14 15 40 50 58 77 52 78 107 156 139 200 50 66 84 114 121 170 70 105 116 169 151 209 20 23 40 52 44 66 4 14 22 41 39 60 31 35 112 150 152 216 11 18 30 44 41 56 11 13 37 48 57 78 54 82 96 141 146 208 25 33 53 72 62 88 26 44 109 157 145 197 17 20 35 46 39 59 4 13 21 41 39 63 18 22 39 51 46 65 15 28 61 92 124 173 23 29 52 70 65 92 24 39 151 222 207 299 15 21 44 62 63 91 19 29 55 79 80 111 25 33 71 97 103 144 31 47 79 117 107 155 27 39 66 95 87 125 20 30 53 76 75 101 21 26 38 52 38 57 0 6 17 31 38 56 36 43 98 130 172 241 44 66 89 131 185 265 104 146 125 175 165 235 40 59 83 120 153 212 26 35 47 67 47 70 0 3 25 40 55 82 52 71 199 279 283 399 20 29 57 79 80 110 24 31 51 70 59 86 8 16 39 58 69 93 30 35 54 67 54 72 0 5 25 45 55 88 31 43 76 107 100 143 25 36 52 76 62 90 9 14 39 53 65 88 27 34 61 82 76 105 15 23 56 83 92 132 64 89 92 128 181 261 26 38 58 79 71 92 l24 22 605 -2 604 -3 5 -2664 c4 -2053 8 -2665 17 -2668 12 -4 106 115 136 172 8 17 29 43 46 59 17 17 31 35 31 42 0 7 17 34 38 61 22 27 52 69 67 93 16 25 50 70 77 99 26 30 48 61 48 68 0 7 13 27 29 45 15 18 45 58 65 88 35 53 62 92 191 269 33 46 69 96 80 111 11 16 39 55 63 87 23 32 78 108 122 168 45 61 105 146 136 190 69 102 138 197 189 263 22 28 50 66 62 84 63 95 83 124 135 195 32 43 69 94 83 113 14 19 54 74 88 123 34 48 77 106 94 130 18 23 45 60 59 82 29 44 77 109 145 198 24 32 60 82 79 112 19 29 55 80 80 113 25 33 61 83 80 111 94 138 227 323 277 386 22 29 54 72 69 96 15 24 61 89 103 144 41 55 84 116 95 135 12 19 55 79 96 134 41 54 90 122 109 150 18 28 58 79 87 113 30 33 54 67 54 73 0 13 60 100 118 172 18 23 40 55 49 72 9 17 31 49 49 71 32 40 65 85 149 205 95 137 226 317 268 370 24 30 50 66 57 80 7 14 26 40 43 58 l31 32 636 -2 635 -3 0 -4255z m11640 4212 c143 -39 265 -105 349 -187 47 -47 126 -153 126 -170 0 -7 8 -23 19 -36 10 -13 25 -46 34 -74 40 -121 47 -167 47 -308 0 -163 -21 -254 -88 -387 -46 -91 -160 -216 -252 -274 -75 -48 -91 -55 -197 -93 -73 -25 -89 -27 -248 -27 -161 -1 -175 1 -260 28 -109 35 -154 57 -220 106 -66 50 -179 167 -197 205 -8 17 -20 39 -26 50 -7 11 -16 31 -22 45 -5 14 -14 32 -19 40 -5 8 -19 50 -31 92 -19 68 -21 96 -17 220 6 185 24 267 82 385 26 53 62 100 126 168 80 83 103 100 197 149 76 38 131 59 187 70 44 8 89 17 100 20 42 11 242 -4 310 -22z m-9708 -4 c13 -12 23 -28 23 -35 0 -8 25 -43 55 -78 30 -36 55 -69 55 -75 0 -5 22 -38 49 -73 28 -36 83 -113 123 -171 40 -59 94 -137 121 -174 26 -37 67 -97 91 -133 25 -37 49 -70 55 -74 6 -3 20 -23 31 -43 12 -20 47 -75 80 -122 33 -47 80 -114 105 -150 24 -36 68 -96 96 -135 28 -38 70 -99 93 -135 24 -36 50 -71 59 -79 10 -7 17 -21 17 -31 0 -10 19 -42 43 -70 57 -71 123 -159 143 -194 9 -16 41 -63 73 -105 64 -86 69 -93 133 -189 25 -38 51 -73 57 -76 6 -4 20 -25 32 -47 11 -22 29 -49 39 -59 11 -11 20 -29 20 -41 0 -11 14 -32 31 -46 17 -15 52 -58 78 -97 80 -120 143 -210 164 -233 11 -12 34 -45 51 -72 17 -27 58 -87 91 -133 79 -110 127 -179 181 -258 24 -36 63 -92 86 -126 24 -33 68 -96 98 -139 89 -127 132 -188 194 -282 33 -48 69 -98 80 -111 20 -23 62 -82 241 -342 47 -69 129 -186 181 -260 115 -164 179 -258 219 -319 17 -26 51 -76 77 -111 26 -36 60 -82 75 -102 15 -21 32 -38 39 -38 10 0 94 113 191 257 18 26 50 71 71 98 22 28 46 64 55 80 8 17 29 43 45 59 17 15 36 42 43 60 7 17 37 60 66 95 29 36 53 70 53 77 0 7 -10 25 -23 41 -13 15 -36 48 -51 73 -15 25 -48 75 -74 112 -48 68 -211 305 -247 359 -11 16 -56 79 -100 140 -44 60 -96 134 -115 163 -33 51 -108 160 -236 348 -31 45 -70 98 -85 116 -16 18 -29 39 -29 47 0 8 -13 29 -28 47 -28 34 -90 123 -128 184 -11 19 -29 44 -40 56 -12 13 -40 52 -64 88 -25 36 -65 95 -90 131 -25 37 -89 131 -143 210 -54 79 -120 173 -147 209 -27 36 -57 79 -66 95 -9 17 -34 53 -55 81 -22 28 -39 56 -39 63 0 6 -17 30 -39 54 -21 23 -46 56 -54 73 -9 18 -29 46 -44 64 -15 19 -37 48 -48 66 -21 34 -55 85 -244 359 -183 267 -197 286 -270 390 -39 55 -78 114 -87 130 -9 17 -31 48 -49 70 -18 22 -35 51 -40 64 -4 13 -22 40 -40 60 -58 66 -246 342 -239 353 3 4 435 6 961 5 l956 -2 33 -45 c18 -25 47 -67 64 -95 17 -27 54 -81 81 -120 27 -38 70 -99 95 -135 25 -36 67 -95 92 -132 26 -36 70 -98 97 -137 28 -40 61 -89 75 -110 81 -125 141 -211 151 -216 5 -4 48 -64 95 -133 47 -70 109 -161 139 -202 30 -41 62 -88 71 -105 9 -16 34 -51 55 -77 22 -26 39 -51 39 -57 0 -6 14 -26 30 -44 17 -19 30 -40 30 -47 0 -6 20 -35 43 -63 24 -29 65 -83 91 -122 62 -93 80 -120 151 -219 33 -47 76 -108 95 -136 19 -28 51 -73 70 -98 20 -26 48 -67 63 -92 16 -25 53 -79 83 -120 30 -41 61 -89 69 -107 8 -17 19 -34 24 -37 5 -3 39 -49 76 -101 37 -52 71 -95 75 -95 4 0 25 28 48 63 22 34 61 91 87 127 25 36 62 90 83 120 20 30 55 78 77 106 22 29 48 65 57 80 10 16 42 63 72 104 50 68 90 124 195 276 20 28 63 89 95 135 33 46 74 105 91 130 61 88 228 324 269 379 37 49 82 114 191 275 18 28 47 66 63 85 16 19 68 92 116 162 58 85 91 125 101 122 10 -4 12 0 8 16 -4 13 2 29 14 43 11 12 48 63 82 112 34 50 86 124 116 165 30 41 75 104 100 140 46 67 104 150 129 185 l14 20 853 3 c470 1 860 0 867 -3 16 -6 -8 -52 -77 -150 -28 -38 -63 -90 -78 -113 -15 -24 -47 -66 -70 -93 -24 -27 -43 -55 -43 -61 0 -7 -20 -37 -44 -67 -24 -31 -75 -103 -114 -161 -136 -201 -215 -315 -232 -335 -10 -11 -42 -55 -72 -99 -71 -105 -122 -178 -188 -271 -75 -105 -124 -177 -194 -281 -32 -49 -70 -97 -82 -107 -13 -10 -24 -26 -24 -36 0 -9 -17 -38 -37 -63 -21 -26 -57 -76 -81 -110 -24 -35 -64 -93 -90 -130 -64 -92 -155 -224 -192 -278 -17 -25 -70 -99 -117 -165 -47 -66 -105 -149 -129 -185 -23 -36 -56 -78 -73 -94 -17 -17 -31 -39 -31 -51 0 -12 -10 -30 -21 -41 -12 -10 -41 -48 -65 -84 -79 -119 -125 -185 -155 -222 -16 -20 -29 -40 -29 -43 0 -4 -15 -25 -34 -48 -18 -23 -39 -53 -46 -67 -7 -13 -45 -67 -84 -119 -39 -52 -84 -116 -101 -141 -45 -70 -103 -155 -170 -249 -123 -173 -164 -237 -165 -256 0 -11 23 -51 50 -90 28 -38 71 -99 95 -135 25 -36 87 -126 140 -200 52 -74 107 -155 122 -180 15 -25 42 -62 60 -83 18 -20 33 -42 33 -49 0 -6 8 -21 19 -32 18 -21 68 -89 139 -195 21 -29 46 -66 57 -81 35 -48 119 -171 151 -222 17 -27 40 -59 51 -71 11 -12 30 -40 42 -62 13 -22 34 -53 48 -70 26 -32 81 -111 110 -159 10 -15 37 -53 61 -84 23 -30 42 -60 42 -65 0 -5 14 -26 31 -46 33 -38 211 -291 242 -345 11 -17 40 -59 65 -93 26 -34 62 -83 80 -110 18 -26 48 -70 67 -98 20 -27 43 -63 53 -79 9 -16 29 -44 45 -61 15 -18 27 -44 27 -59 0 -14 6 -26 13 -26 15 0 59 -53 120 -145 25 -38 71 -104 101 -145 30 -41 67 -95 82 -120 15 -25 41 -61 58 -81 29 -34 43 -55 119 -178 16 -25 39 -57 52 -71 12 -14 30 -39 38 -56 9 -17 31 -49 49 -72 18 -22 45 -60 60 -84 16 -24 42 -61 58 -83 17 -22 50 -69 75 -105 24 -36 58 -83 74 -105 17 -22 39 -56 50 -75 10 -19 33 -52 50 -74 17 -21 31 -43 31 -49 0 -6 18 -32 40 -59 23 -26 47 -63 55 -83 9 -19 26 -42 40 -51 14 -9 22 -20 19 -25 -3 -5 -425 -9 -990 -9 l-985 0 -20 23 c-32 35 -149 203 -291 416 -31 47 -66 97 -76 111 -11 14 -41 57 -68 95 -26 39 -60 88 -76 110 -50 71 -162 237 -191 284 -16 25 -39 57 -51 71 -13 14 -38 48 -56 75 -56 84 -134 197 -265 385 -22 32 -79 116 -127 186 -49 71 -131 190 -183 264 -53 74 -103 147 -113 163 -9 15 -50 74 -90 130 -41 56 -76 109 -80 117 -3 8 -24 40 -46 70 -23 30 -58 80 -78 110 -20 30 -59 87 -87 125 -28 39 -58 84 -67 100 -46 81 -104 130 -104 88 0 -10 -24 -50 -53 -90 -86 -119 -110 -153 -154 -217 -23 -34 -59 -83 -80 -110 -21 -27 -45 -61 -53 -76 -18 -33 -64 -98 -107 -151 -18 -23 -33 -45 -33 -50 0 -12 67 -118 95 -149 12 -14 34 -45 49 -70 24 -41 70 -107 198 -284 24 -32 48 -68 55 -80 7 -11 28 -43 48 -71 19 -27 46 -66 60 -85 13 -19 53 -75 87 -124 35 -48 81 -114 103 -146 22 -32 60 -87 84 -122 24 -35 66 -95 92 -135 27 -39 53 -74 59 -78 6 -3 19 -23 31 -43 11 -20 44 -71 74 -112 30 -41 71 -101 92 -134 21 -32 56 -81 78 -110 22 -28 69 -94 104 -146 35 -52 72 -104 81 -115 48 -56 148 -216 137 -221 -7 -2 -433 -3 -947 -2 l-934 3 -12 23 c-6 12 -20 33 -32 45 -33 36 -292 427 -292 441 0 8 -7 19 -16 27 -17 14 -165 226 -199 284 -11 19 -27 35 -36 35 -10 0 -42 -38 -76 -87 -78 -115 -146 -214 -200 -288 -23 -33 -55 -78 -70 -100 -15 -22 -51 -73 -80 -112 -29 -40 -53 -76 -53 -79 0 -8 -76 -115 -114 -160 l-28 -34 -892 0 c-491 0 -896 3 -899 7 -4 4 3 18 17 32 13 14 61 81 107 149 93 136 155 224 274 391 44 61 124 173 177 249 54 75 113 160 133 187 20 28 58 82 85 120 26 39 74 106 105 150 105 149 150 212 200 284 28 40 72 102 99 139 27 37 76 105 108 152 32 47 85 123 119 170 81 115 99 143 99 159 0 15 -125 207 -141 217 -6 3 -7 14 -4 25 5 13 -5 30 -36 59 l-42 40 -1074 0 c-590 0 -1074 -1 -1075 -2 -2 -2 -5 -570 -8 -1263 l-5 -1260 -760 0 -760 0 -3 4229 c-1 3118 1 4232 9 4242 9 12 129 14 672 14 l661 0 23 -22z m-14459 -7914 l-3 -549 -439 -3 c-258 -1 -444 2 -449 7 -6 6 -1 13 12 20 11 6 27 26 36 44 9 19 47 71 85 116 39 45 70 86 70 90 0 5 37 53 83 108 45 56 108 134 139 174 32 41 73 94 93 119 19 25 61 79 92 120 32 41 86 108 120 149 35 41 63 80 63 86 0 20 81 88 91 78 5 -5 8 -241 7 -559z"/>
<path d="M33905 8795 c-27 -6 -87 -31 -132 -54 -132 -67 -231 -196 -282 -367 -35 -119 -26 -315 21 -434 46 -118 161 -251 263 -302 328 -166 694 -8 811 350 20 63 24 94 24 199 0 136 -18 210 -79 331 -64 126 -215 243 -357 277 -71 17 -201 17 -269 0z m330 -200 c56 -20 117 -72 140 -121 9 -20 15 -61 15 -110 0 -65 -4 -84 -25 -121 -25 -42 -79 -79 -128 -89 -41 -7 -41 -21 -2 -96 21 -40 46 -82 55 -93 10 -11 30 -47 45 -80 15 -33 37 -70 48 -82 27 -30 14 -35 -103 -31 l-93 3 -39 75 c-22 41 -60 110 -84 154 -24 43 -44 85 -44 92 0 27 -76 46 -107 26 -8 -5 -13 -60 -15 -177 l-3 -170 -80 0 -80 0 -3 410 c-1 225 0 416 3 424 8 21 432 10 500 -14z"/>
<path d="M33899 8463 c-3 -84 4 -179 14 -185 7 -4 62 -8 124 -8 l111 0 26 31 c32 38 41 71 29 112 -14 49 -49 61 -185 65 -109 3 -118 2 -119 -15z"/>
<path d="M24716 5958 c-8 -30 -8 -1502 0 -1522 6 -14 64 -16 560 -16 492 0 555 2 561 16 3 8 -4 25 -16 38 -11 12 -21 26 -21 30 0 5 -22 36 -49 70 -27 34 -72 95 -100 136 -29 41 -72 102 -96 135 -25 33 -60 83 -78 110 -19 28 -70 97 -113 155 -44 58 -94 128 -112 157 -18 28 -40 57 -49 64 -8 7 -31 38 -50 69 -20 30 -47 69 -60 85 -54 68 -125 170 -133 191 -5 13 -26 41 -46 64 -34 37 -79 98 -149 203 -29 43 -40 46 -49 15z"/>
<path d="M2245 7559 c-82 -5 -240 -13 -350 -17 l-200 -7 -3 -1315 c-1 -723 0 -1324 3 -1336 l5 -21 672 2 673 2 100 28 c100 27 271 105 354 161 24 16 54 36 67 45 75 50 239 227 309 333 158 241 235 496 235 786 0 215 -47 409 -147 611 -34 69 -69 132 -78 139 -9 8 -25 31 -36 53 -26 50 -151 181 -260 272 -78 65 -242 160 -309 180 -14 4 -43 15 -65 25 -22 10 -83 29 -135 41 -88 22 -118 24 -390 25 -162 1 -362 -2 -445 -7z"/>
</g>
</g>
  <g id="id1:id1" transform="matrix(1.25,0,0,1.25,0.0,0.0)"><g transform="translate(0.000000,384.000000) scale(0.040000,-0.040000)" fill="#242021" stroke="none">
<path d="M13540 9583 c0 -10 -25 -49 -55 -87 -30 -38 -55 -72 -55 -75 0 -4 -17 -29 -37 -57 -67 -90 -107 -146 -143 -199 -46 -68 -119 -174 -178 -256 -26 -36 -85 -122 -131 -190 -46 -68 -105 -152 -130 -186 -25 -33 -61 -83 -79 -110 -18 -26 -69 -100 -114 -163 -44 -63 -104 -149 -132 -190 -66 -95 -194 -278 -269 -382 -21 -29 -58 -82 -83 -118 -24 -36 -67 -96 -95 -135 -58 -82 -109 -154 -201 -291 -38 -54 -97 -139 -133 -189 -36 -49 -74 -103 -86 -120 -11 -16 -53 -76 -92 -132 -40 -56 -92 -131 -117 -168 -46 -68 -90 -126 -134 -181 -15 -18 -26 -37 -26 -43 0 -5 -13 -25 -29 -43 -15 -18 -36 -46 -45 -63 -10 -16 -42 -64 -72 -105 -30 -41 -66 -94 -81 -118 -28 -43 -112 -161 -155 -216 -13 -17 -36 -51 -53 -77 -57 -89 -110 -164 -146 -209 -20 -25 -42 -56 -49 -70 -7 -14 -24 -38 -37 -55 -14 -16 -76 -104 -138 -195 -62 -91 -125 -181 -139 -200 -15 -19 -41 -57 -59 -85 -18 -27 -77 -113 -132 -190 -126 -177 -164 -232 -226 -324 -28 -41 -59 -86 -70 -100 -78 -102 -139 -186 -139 -193 0 -5 -18 -31 -40 -59 -22 -28 -40 -54 -40 -59 0 -4 -37 -58 -82 -119 -46 -61 -95 -130 -110 -153 -41 -65 -283 -408 -313 -445 -14 -18 -45 -60 -69 -95 -49 -73 -147 -215 -188 -273 -16 -22 -51 -74 -79 -115 -28 -41 -60 -85 -72 -98 -11 -12 -30 -37 -41 -56 -12 -18 -43 -66 -71 -106 -27 -39 -63 -93 -80 -119 -16 -26 -51 -73 -77 -105 -27 -32 -48 -62 -48 -66 0 -5 -21 -38 -47 -73 -57 -76 -191 -267 -248 -351 -22 -33 -53 -79 -70 -102 -37 -52 -120 -172 -166 -240 -20 -27 -46 -66 -60 -85 -14 -19 -74 -104 -134 -189 -60 -85 -130 -184 -157 -219 -26 -35 -48 -69 -48 -76 0 -6 -9 -20 -20 -30 -10 -9 -45 -55 -77 -102 -32 -47 -71 -104 -88 -127 -16 -24 -57 -83 -90 -132 -32 -49 -82 -118 -110 -154 -28 -36 -63 -85 -78 -110 -15 -25 -52 -79 -82 -120 -30 -41 -55 -78 -55 -82 0 -5 390 -8 868 -8 l867 0 15 29 c8 16 39 62 67 103 29 40 86 120 127 178 79 111 117 164 190 270 25 36 66 94 91 130 44 62 153 218 184 264 8 11 39 53 68 92 29 39 53 73 53 77 0 4 32 51 72 105 40 53 95 130 123 171 27 40 64 92 80 116 17 23 53 75 81 116 77 112 186 267 216 308 15 20 61 86 103 146 42 61 101 144 131 185 29 41 69 98 89 125 20 28 49 70 65 95 16 25 48 70 70 100 22 30 71 100 108 156 37 55 73 107 80 115 48 58 70 89 169 239 19 30 49 70 66 87 17 18 42 53 56 77 31 52 119 181 197 286 30 41 72 100 93 130 20 30 59 87 86 125 27 39 66 95 87 125 21 30 63 89 93 130 30 41 79 111 109 155 30 44 81 117 113 162 32 45 66 94 75 110 10 15 43 62 73 103 30 41 68 95 84 120 16 25 40 58 53 74 24 31 85 118 169 241 27 39 65 93 86 122 66 91 186 261 240 341 29 42 70 100 92 127 21 28 49 68 61 90 12 22 32 51 45 65 12 14 33 41 46 61 13 20 50 74 82 120 31 46 67 99 80 116 12 18 42 62 67 97 25 35 63 90 85 122 22 31 59 82 83 111 24 30 56 74 70 97 48 77 109 165 137 198 27 33 72 97 122 177 16 24 64 91 107 150 43 58 95 131 114 161 19 30 49 73 67 95 17 22 62 85 100 140 38 55 88 127 112 160 23 33 59 85 79 115 20 30 51 73 69 96 19 22 42 54 52 71 10 16 43 65 73 108 30 42 73 103 95 134 22 32 65 93 95 136 30 43 80 114 111 159 30 44 72 104 92 131 21 28 57 79 82 115 24 36 71 103 104 150 33 47 76 108 95 135 19 28 53 75 75 105 22 30 65 92 95 136 54 79 194 276 255 361 17 23 31 45 31 48 0 3 -398 5 -885 5 -836 0 -885 -1 -885 -17z"/>
<path d="M21299 8987 c-20 -23 -42 -53 -49 -67 -7 -14 -34 -50 -59 -82 -25 -31 -80 -104 -121 -163 -105 -149 -156 -219 -225 -314 -33 -45 -74 -103 -92 -129 -53 -77 -135 -189 -185 -253 -27 -33 -48 -65 -48 -71 0 -6 -17 -31 -38 -57 -21 -25 -55 -71 -76 -101 -20 -30 -57 -82 -81 -115 -25 -33 -74 -103 -110 -155 -37 -52 -82 -115 -101 -140 -19 -25 -51 -70 -71 -100 -20 -30 -69 -97 -107 -148 -39 -52 -86 -115 -104 -140 -87 -126 -131 -187 -172 -241 -25 -32 -53 -72 -62 -87 -17 -28 -83 -121 -203 -284 -33 -45 -69 -96 -79 -114 -11 -17 -42 -61 -70 -98 -58 -76 -100 -134 -191 -263 -35 -49 -74 -103 -87 -119 -24 -29 -88 -121 -136 -191 -24 -36 -123 -173 -171 -235 -10 -14 -49 -70 -86 -124 -37 -54 -97 -139 -133 -187 -37 -48 -96 -129 -132 -180 -36 -51 -88 -124 -117 -163 -28 -39 -69 -96 -90 -126 -20 -30 -54 -75 -74 -100 -20 -25 -42 -56 -49 -70 -16 -31 -66 -94 -104 -132 -16 -16 -26 -31 -23 -35 4 -3 -13 -31 -37 -62 -23 -31 -50 -67 -59 -81 -10 -14 -34 -50 -54 -80 -21 -30 -56 -78 -78 -107 -22 -28 -51 -68 -65 -88 -47 -69 -73 -96 -81 -88 -5 5 -10 1198 -11 2653 l-3 2645 -614 3 c-542 2 -617 0 -638 -13 -13 -9 -44 -46 -68 -83 -80 -121 -167 -246 -220 -317 -29 -38 -60 -83 -71 -100 -10 -16 -57 -82 -105 -145 -47 -64 -92 -127 -99 -140 -7 -14 -29 -46 -49 -72 -20 -26 -45 -60 -56 -77 -68 -100 -103 -150 -127 -179 -15 -18 -37 -49 -48 -70 -12 -20 -34 -55 -51 -77 -38 -51 -61 -83 -128 -181 -30 -44 -78 -109 -105 -146 -52 -68 -150 -208 -196 -278 -14 -21 -54 -79 -90 -129 -36 -51 -83 -117 -105 -149 -23 -31 -60 -84 -84 -117 -23 -33 -62 -89 -87 -125 -24 -36 -69 -99 -99 -140 -31 -41 -63 -88 -73 -104 -9 -15 -26 -41 -37 -56 -11 -16 -40 -57 -64 -92 -24 -35 -58 -78 -74 -97 -16 -19 -35 -49 -43 -66 -7 -17 -20 -37 -29 -45 -8 -7 -36 -42 -61 -79 -25 -36 -67 -97 -95 -136 -27 -38 -77 -110 -111 -160 -33 -49 -68 -99 -78 -110 -10 -11 -46 -62 -81 -113 -35 -51 -84 -122 -109 -157 -71 -101 -121 -172 -195 -280 -38 -55 -87 -124 -109 -153 -40 -53 -103 -142 -151 -214 -14 -20 -34 -42 -45 -48 -11 -6 -20 -20 -20 -32 0 -21 -26 -61 -102 -156 -21 -26 -38 -51 -38 -57 0 -5 -15 -29 -33 -52 -17 -23 -43 -58 -57 -78 -14 -19 -43 -60 -65 -90 -22 -31 -61 -86 -88 -123 -26 -37 -58 -83 -72 -102 -14 -19 -44 -64 -68 -100 -24 -36 -60 -85 -80 -108 -21 -24 -37 -48 -37 -54 0 -6 -12 -25 -27 -43 -16 -18 -54 -71 -86 -117 -31 -45 -69 -99 -82 -118 -14 -19 -33 -48 -44 -65 -19 -30 -29 -43 -74 -100 -13 -16 -41 -57 -63 -90 -92 -137 -109 -162 -140 -197 -18 -20 -42 -54 -54 -75 -11 -21 -50 -78 -85 -128 -36 -49 -81 -112 -100 -140 -20 -27 -58 -81 -86 -120 -28 -38 -70 -99 -95 -135 -24 -36 -67 -96 -94 -135 -28 -38 -71 -100 -95 -136 -24 -36 -51 -71 -59 -78 -9 -8 -30 -36 -46 -65 -17 -28 -55 -85 -85 -126 -30 -41 -80 -111 -110 -155 -31 -44 -79 -111 -106 -150 -27 -38 -65 -92 -84 -120 -19 -27 -57 -81 -85 -120 -27 -38 -76 -108 -108 -155 -32 -47 -80 -114 -106 -150 -26 -36 -67 -94 -91 -130 -76 -112 -104 -151 -140 -195 -40 -50 -40 -49 -19 -69 14 -14 111 -16 925 -16 994 0 966 -2 991 57 7 15 49 78 93 138 45 61 104 144 132 185 28 41 70 101 94 133 24 31 73 100 109 153 36 53 86 122 113 154 26 32 47 64 47 72 0 8 9 23 21 34 12 10 41 50 65 87 25 38 75 110 113 160 37 51 76 106 87 122 10 17 50 73 89 125 38 52 84 116 100 141 64 99 120 176 162 221 23 26 43 53 43 60 0 8 17 37 38 66 96 133 400 563 499 705 27 38 62 85 79 105 17 21 37 48 44 62 7 14 38 60 69 103 31 44 89 125 128 180 40 56 88 125 107 152 19 28 57 82 85 120 28 39 71 99 96 135 24 36 66 97 94 135 28 39 75 106 105 150 30 44 85 121 121 170 80 109 103 142 158 221 23 34 76 108 117 165 41 57 86 120 100 141 14 20 50 72 81 115 108 151 219 309 299 423 44 63 108 154 142 202 33 48 65 85 69 82 5 -3 9 -1171 9 -2628 0 -2026 3 -2625 12 -2634 9 -9 161 -12 624 -12 544 0 614 2 628 16 9 8 16 19 16 24 0 8 83 125 160 225 35 46 175 237 300 409 47 65 133 184 192 265 163 221 228 311 288 396 30 43 71 97 91 119 20 23 44 56 53 74 10 19 45 70 79 115 33 45 79 107 101 137 22 30 58 80 81 110 23 30 48 67 56 81 13 23 59 87 309 423 66 89 178 242 248 339 123 173 199 277 297 409 50 66 97 130 105 142 58 85 140 198 170 236 20 25 59 79 88 120 89 128 97 139 242 335 41 56 113 155 160 219 47 65 124 171 171 235 47 64 98 136 114 161 16 25 36 52 45 60 9 8 61 78 115 155 54 77 115 159 134 181 20 23 48 61 63 85 52 83 125 181 134 180 5 -1 8 -1078 5 -2611 -2 -2058 -1 -2613 9 -2625 11 -13 119 -15 830 -15 450 0 825 3 834 6 15 6 16 391 16 4264 0 2342 -3 4266 -6 4274 -6 15 -70 16 -653 16 l-647 -1 -35 -42z"/>
<path d="M903 9003 l-903 -3 0 -4265 0 -4265 836 0 c557 0 842 3 855 10 l19 11 0 1454 c0 800 4 1456 9 1459 4 3 41 -37 82 -90 41 -52 84 -106 96 -120 25 -27 123 -146 163 -197 13 -18 46 -58 72 -90 27 -32 48 -65 48 -73 0 -8 7 -14 15 -14 8 0 22 -12 32 -27 10 -16 78 -103 153 -196 74 -92 150 -186 168 -210 18 -23 56 -71 85 -106 28 -35 80 -100 115 -145 35 -44 80 -99 101 -121 21 -22 42 -47 47 -56 5 -9 41 -57 81 -105 121 -150 182 -227 225 -284 38 -50 100 -125 209 -253 23 -26 69 -84 103 -129 91 -120 106 -139 168 -214 110 -134 154 -189 177 -222 20 -29 169 -211 216 -264 14 -17 93 -18 1383 -18 1080 0 1371 3 1383 13 22 17 106 128 166 218 71 106 99 145 294 415 47 66 110 155 140 199 30 44 82 117 114 163 33 46 74 104 92 130 17 26 44 62 60 81 15 19 37 50 49 70 32 56 194 275 210 284 8 4 14 14 14 21 0 26 -47 36 -175 38 l-130 3 0 1045 0 1045 949 5 948 5 15 20 c18 26 141 194 193 265 23 30 62 84 87 120 26 36 79 108 118 160 39 52 88 119 108 149 l37 53 0 323 c0 186 -4 335 -10 349 l-9 26 -1218 2 -1218 3 0 920 0 920 1215 5 1215 5 0 735 0 735 -2079 3 c-1144 1 -2084 -2 -2088 -6 -5 -5 -8 -1869 -8 -4144 0 -2275 -4 -4139 -8 -4142 -5 -3 -34 30 -65 72 -32 42 -85 111 -118 152 -33 41 -112 143 -174 225 -63 83 -132 173 -154 200 -23 28 -57 74 -76 103 -20 28 -56 74 -80 102 -24 27 -49 60 -56 72 -7 13 -33 48 -58 78 -26 30 -58 73 -72 95 -15 22 -46 63 -71 90 -24 28 -63 77 -85 110 -22 33 -51 69 -63 80 -12 11 -31 38 -42 60 -11 22 -37 58 -58 80 -40 42 -91 106 -284 360 -62 83 -137 179 -165 215 -28 36 -78 101 -112 145 -144 192 -197 260 -237 309 -24 28 -58 71 -75 96 -46 68 -140 183 -159 198 -38 28 -18 41 142 95 116 40 287 112 310 131 8 7 58 34 110 60 52 26 104 56 115 66 11 10 33 23 48 29 38 15 289 207 401 307 121 108 211 207 348 385 83 108 99 131 176 264 184 316 293 634 341 996 23 174 28 469 11 632 -5 51 -11 112 -14 137 -4 41 -19 134 -47 280 -40 212 -143 514 -248 730 -62 125 -168 299 -209 343 -14 15 -20 30 -16 41 5 12 0 19 -15 23 -12 3 -28 17 -35 32 -17 33 -155 182 -261 282 -88 83 -268 220 -330 251 -22 11 -47 26 -55 33 -8 7 -51 32 -95 55 -220 115 -454 191 -720 236 -49 8 -115 19 -145 25 -62 12 -977 29 -1430 26 -162 -1 -701 -3 -1197 -4z m2165 -1479 c64 -14 122 -30 127 -34 6 -4 28 -13 50 -20 88 -28 243 -115 332 -187 100 -80 239 -223 256 -263 6 -14 23 -41 38 -60 26 -35 36 -53 99 -180 130 -266 155 -584 73 -942 -10 -43 -24 -83 -31 -90 -6 -6 -12 -20 -12 -31 0 -22 -103 -227 -134 -265 -12 -15 -40 -53 -61 -86 -42 -62 -228 -246 -249 -246 -7 0 -21 -9 -31 -20 -21 -23 -122 -83 -220 -130 -70 -33 -176 -65 -270 -79 -27 -4 -336 -7 -685 -7 l-635 1 0 1315 0 1315 180 7 c99 4 245 12 325 16 80 5 277 10 438 11 l293 1 117 -26z"/>
<path d="M33901 8995 c-314 -57 -554 -263 -634 -545 -41 -146 -51 -336 -22 -440 8 -30 20 -76 26 -102 6 -26 17 -52 25 -59 8 -6 14 -19 14 -29 0 -9 8 -28 18 -41 10 -13 23 -36 29 -51 20 -45 138 -161 218 -216 54 -36 111 -63 189 -89 l111 -37 165 0 c154 0 171 1 250 27 211 69 370 195 457 361 79 151 94 208 100 381 5 155 0 199 -39 325 -112 357 -515 586 -907 515z m293 -223 c112 -27 263 -148 318 -257 63 -124 78 -186 78 -327 0 -104 -4 -142 -21 -196 -12 -37 -27 -74 -35 -82 -7 -8 -15 -26 -19 -40 -4 -14 -24 -45 -45 -69 l-39 -45 -9 25 c-5 13 -19 33 -31 43 -11 11 -21 24 -21 30 0 7 -26 54 -58 107 -65 106 -88 156 -78 167 4 4 31 14 59 23 49 14 54 19 85 79 28 55 32 73 32 138 0 87 -22 141 -79 195 -62 59 -153 76 -412 76 -171 1 -198 -1 -203 -15 -3 -9 -6 -203 -6 -433 0 -311 3 -420 12 -429 16 -16 159 -16 181 1 14 10 17 36 19 177 l3 165 33 3 c24 2 34 -1 38 -15 3 -10 10 -25 15 -33 4 -8 25 -44 45 -80 20 -36 49 -85 63 -110 14 -25 31 -58 37 -74 14 -39 44 -47 162 -45 51 1 95 -1 98 -4 9 -8 -78 -73 -141 -104 -92 -46 -176 -59 -294 -46 -136 15 -226 57 -318 150 -124 124 -173 250 -173 451 0 129 11 177 70 298 65 131 195 239 338 279 55 15 223 13 296 -3z m-73 -317 c24 -9 50 -23 57 -32 19 -26 14 -75 -12 -106 l-22 -28 -110 3 -109 3 0 80 0 80 75 6 c41 3 76 6 76 7 1 1 21 -5 45 -13z"/>
<path d="M23172 8988 c-9 -9 -12 -969 -12 -4259 l0 -4247 23 -6 c12 -3 360 -6 773 -6 618 0 754 2 763 13 8 10 12 360 13 1263 l3 1249 1067 3 1067 2 26 -52 c14 -29 34 -60 44 -68 26 -22 131 -185 131 -203 0 -8 -15 -35 -33 -59 -18 -24 -44 -61 -57 -83 -14 -22 -45 -68 -70 -101 -25 -34 -62 -86 -82 -115 -21 -30 -52 -74 -70 -98 -18 -24 -49 -68 -68 -97 -32 -48 -114 -164 -158 -224 -11 -14 -31 -43 -45 -65 -15 -22 -51 -74 -81 -115 -30 -41 -75 -104 -100 -140 -25 -36 -83 -117 -128 -180 -46 -64 -91 -127 -100 -140 -63 -92 -224 -321 -313 -445 -38 -52 -56 -78 -129 -185 -25 -36 -56 -76 -70 -89 -36 -33 -34 -57 5 -65 17 -3 427 -6 909 -6 l878 0 29 24 c16 13 35 37 43 53 8 15 31 49 50 75 19 26 44 62 56 80 11 18 49 74 84 123 35 50 82 116 104 149 23 32 61 87 86 122 25 35 71 102 104 149 45 66 61 83 71 75 7 -6 60 -82 117 -168 57 -86 112 -168 121 -182 9 -14 65 -96 124 -183 60 -87 117 -173 128 -192 12 -19 28 -42 37 -52 8 -10 19 -28 22 -39 5 -15 18 -23 44 -28 49 -8 1816 -8 1865 0 44 8 47 24 11 68 -31 39 -88 118 -187 264 -42 62 -99 141 -126 175 -27 35 -56 77 -64 93 -9 17 -32 50 -51 73 -20 24 -36 49 -36 57 0 8 -15 31 -34 52 -19 21 -51 62 -72 92 -78 114 -137 199 -214 310 -44 63 -112 160 -150 215 -38 55 -85 123 -105 150 -19 28 -65 93 -101 145 -36 52 -87 124 -113 160 -46 64 -146 207 -224 324 -26 39 -37 63 -31 71 5 7 27 39 48 71 22 32 52 73 67 89 15 17 40 51 56 76 37 62 97 150 153 226 25 34 69 95 99 137 61 85 61 85 112 3 18 -29 41 -62 52 -74 11 -12 34 -44 51 -71 69 -108 96 -148 118 -176 13 -17 37 -51 53 -77 17 -26 55 -82 85 -124 30 -43 74 -106 97 -139 23 -34 82 -119 132 -191 49 -71 128 -187 175 -256 47 -69 92 -132 101 -139 8 -7 15 -17 15 -22 0 -5 33 -55 73 -111 40 -56 91 -129 113 -162 22 -33 62 -91 89 -130 61 -87 121 -174 231 -335 47 -69 114 -165 150 -215 35 -49 68 -99 73 -111 5 -11 20 -33 33 -50 22 -27 68 -93 127 -183 13 -20 52 -74 86 -121 34 -47 70 -99 79 -117 11 -23 27 -35 54 -43 54 -16 1986 -10 2003 7 8 8 3 18 -20 39 -17 15 -31 31 -31 36 0 5 -17 31 -37 58 -20 27 -38 55 -39 62 -1 7 -17 30 -35 50 -19 20 -45 55 -59 78 -14 23 -35 54 -46 68 -12 15 -61 86 -109 157 -49 72 -99 144 -112 160 -13 17 -39 53 -58 80 -19 28 -53 77 -76 110 -23 33 -83 120 -133 194 -112 165 -105 154 -195 281 -108 151 -172 246 -202 297 -15 25 -38 58 -51 72 -13 14 -44 55 -69 90 -24 36 -83 121 -131 190 -48 70 -121 176 -163 236 -42 61 -105 151 -141 200 -35 50 -72 103 -82 119 -9 15 -38 58 -64 95 -26 36 -64 89 -83 116 -67 94 -106 150 -123 178 -9 16 -35 52 -57 82 -22 29 -48 66 -57 81 -17 28 -44 68 -233 337 -50 71 -99 143 -110 161 -11 18 -35 53 -53 77 -66 88 -140 195 -156 224 -9 17 -37 57 -62 90 -25 33 -61 85 -81 115 -20 30 -63 90 -95 133 -56 76 -74 126 -48 142 9 5 105 141 234 329 27 39 66 93 87 120 22 27 39 53 39 57 0 5 33 54 73 108 39 54 80 112 90 127 23 39 58 89 104 148 21 28 52 71 68 96 82 128 110 168 143 203 20 20 45 55 57 76 27 51 83 136 165 246 36 50 110 154 162 232 53 78 114 165 135 195 47 66 95 136 152 219 24 35 57 79 73 97 15 18 28 38 28 44 0 5 12 25 28 43 26 31 56 73 130 182 57 83 79 116 137 198 31 44 102 146 158 226 104 150 252 360 322 459 38 54 81 116 150 215 67 99 110 159 140 199 55 73 165 240 183 279 6 12 -1730 9 -1765 -3 -19 -7 -38 -26 -53 -53 -13 -23 -38 -60 -55 -82 -18 -22 -44 -58 -58 -80 -15 -22 -51 -74 -81 -115 -30 -41 -83 -115 -117 -165 -34 -49 -79 -113 -100 -141 -20 -28 -72 -102 -115 -165 -43 -63 -96 -137 -118 -165 -23 -28 -49 -64 -58 -80 -10 -16 -40 -60 -68 -99 -28 -38 -72 -101 -98 -138 -26 -37 -67 -96 -92 -132 -25 -35 -65 -92 -89 -127 -24 -35 -54 -74 -66 -88 -12 -14 -35 -45 -49 -70 -15 -25 -51 -77 -79 -117 -29 -40 -88 -123 -131 -185 -44 -62 -118 -167 -165 -233 -47 -65 -95 -133 -106 -151 -11 -17 -40 -59 -65 -92 -25 -33 -61 -83 -80 -111 -19 -28 -53 -76 -75 -106 -22 -30 -53 -73 -69 -96 l-29 -41 -19 23 c-30 38 -121 172 -136 199 -7 14 -22 34 -32 45 -10 11 -35 45 -56 75 -70 104 -133 195 -165 240 -18 25 -60 85 -93 134 -34 49 -78 112 -98 140 -68 95 -153 218 -181 265 -16 25 -41 60 -57 76 -15 17 -33 41 -40 55 -7 14 -28 43 -45 65 -18 22 -40 54 -49 70 -9 17 -41 64 -70 105 -30 41 -93 131 -140 200 -47 69 -101 148 -121 175 -19 28 -43 61 -52 75 -9 14 -25 34 -35 46 -10 12 -33 44 -51 72 -34 55 -175 260 -262 382 -30 41 -104 148 -165 238 l-111 162 -980 0 c-579 0 -979 -4 -979 -9 0 -8 97 -156 205 -311 25 -36 45 -70 45 -76 0 -6 12 -25 28 -41 50 -56 89 -108 107 -143 9 -19 25 -44 35 -55 10 -11 38 -49 62 -85 40 -59 114 -166 192 -279 118 -169 277 -402 300 -439 12 -18 37 -54 56 -80 20 -26 44 -60 54 -77 10 -16 29 -41 42 -55 12 -14 33 -44 46 -66 13 -23 36 -59 51 -80 54 -75 304 -435 392 -564 24 -36 73 -108 109 -160 37 -52 82 -117 101 -145 19 -27 57 -81 85 -120 27 -38 55 -81 61 -95 5 -14 21 -36 33 -50 13 -14 45 -56 71 -95 27 -38 86 -126 133 -195 47 -69 99 -145 115 -170 17 -25 54 -76 82 -115 65 -88 175 -247 196 -285 16 -29 35 -56 128 -180 26 -36 56 -79 65 -95 15 -27 57 -91 103 -155 36 -49 35 -55 -28 -137 -32 -42 -59 -81 -59 -86 0 -4 -18 -32 -40 -60 -70 -90 -150 -200 -150 -207 0 -4 -24 -39 -52 -78 -29 -39 -73 -98 -97 -132 l-44 -61 -26 33 c-56 71 -194 269 -234 336 -16 26 -38 57 -49 69 -24 26 -265 371 -313 448 -11 17 -35 52 -53 76 -57 77 -138 191 -219 308 -43 62 -93 134 -111 160 -18 25 -52 75 -77 111 -24 36 -71 103 -105 150 -33 47 -76 108 -94 135 -38 55 -112 161 -196 280 -30 43 -73 104 -95 136 -22 31 -65 92 -95 134 -30 43 -68 98 -85 124 -16 26 -42 62 -57 80 -16 18 -28 38 -28 45 0 7 -20 36 -45 65 -25 29 -45 56 -45 61 0 4 -20 32 -43 62 -24 29 -51 67 -61 83 -18 33 -58 89 -127 180 -25 33 -54 74 -65 92 -42 69 -113 169 -132 186 -12 11 -18 26 -15 38 4 12 0 19 -9 19 -13 0 -41 36 -103 135 -11 18 -38 56 -61 86 -55 73 -124 170 -235 333 -30 43 -73 106 -96 140 -23 33 -62 90 -87 126 -24 36 -67 97 -95 135 -28 39 -70 99 -95 135 -25 36 -63 90 -85 120 -22 30 -53 75 -70 100 -86 131 -139 206 -163 231 l-26 29 -674 0 c-511 0 -677 -3 -686 -12z m1667 -3178 c21 -31 46 -62 55 -69 9 -7 13 -17 10 -23 -3 -5 5 -19 18 -32 12 -13 46 -55 73 -95 28 -39 65 -90 83 -114 18 -23 40 -55 50 -71 9 -16 37 -54 62 -85 25 -31 56 -73 68 -94 12 -21 46 -69 76 -106 30 -38 80 -105 111 -151 30 -45 75 -107 98 -137 48 -64 57 -77 111 -159 21 -32 51 -72 66 -89 45 -51 100 -134 91 -139 -5 -3 -249 -6 -542 -6 l-534 -1 -3 733 c-1 403 0 739 3 747 7 17 42 -21 104 -109z"/>
<path d="M10056 1636 c-3 -13 -17 -31 -31 -40 -14 -9 -37 -36 -52 -59 -31 -49 -154 -211 -233 -306 -31 -36 -67 -82 -80 -101 -14 -19 -70 -91 -125 -159 -55 -69 -120 -152 -145 -186 -78 -108 -167 -219 -198 -250 -61 -60 -63 -60 439 -63 333 -2 454 0 465 9 12 10 14 103 14 579 0 313 -3 575 -6 584 -9 25 -41 19 -48 -8z"/>
</g>
</g>
</svg>
