<?xml version="1.0" standalone="no"?>
<!DOCTYPE svg PUBLIC "-//W3C//DTD SVG 1.1//EN"
 "http://www.w3.org/Graphics/SVG/1.1/DTD/svg11.dtd">
<!-- Created with svg_stack (http://github.com/astraw/svg_stack) -->
<svg xmlns:sodipodi="http://sodipodi.sourceforge.net/DTD/sodipodi-0.dtd" xmlns="http://www.w3.org/2000/svg" version="1.1" width="1730.0" height="722.0">
  <defs/>
  <g id="id0:id0" transform="matrix(1.25,0,0,1.25,0.0,0.0)"><g transform="translate(0.000000,577.600000) scale(0.040000,-0.040000)" fill="#ffffff" stroke="none">
<path d="M0 8530 l0 -5910 439 0 c395 0 448 -2 518 -19 173 -41 298 -133 362 -264 27 -55 34 -84 40 -164 4 -54 4 -108 -1 -121 -4 -13 -8 -34 -8 -48 0 -45 -55 -148 -112 -209 -63 -67 -150 -118 -273 -160 -73 -24 -92 -26 -250 -26 -94 0 -183 5 -198 10 -35 13 -57 5 -57 -23 0 -11 -1 -155 0 -318 0 -373 4 -417 47 -445 19 -13 48 -17 112 -18 l86 0 0 -35 0 -35 -310 0 -310 0 0 35 0 35 70 3 c38 2 75 8 82 14 10 8 13 172 13 828 l0 818 -26 31 -26 31 -99 0 -99 0 0 -1270 0 -1270 3230 0 3230 0 0 28 c0 26 8 33 73 67 39 21 95 55 122 77 51 40 154 160 181 210 8 15 25 44 39 64 35 52 165 310 165 328 0 8 -7 27 -15 43 -8 15 -51 114 -95 218 -45 105 -90 208 -100 230 -10 22 -30 69 -45 105 -35 85 -53 127 -76 172 -11 20 -19 42 -19 48 0 6 -17 48 -39 93 -21 45 -42 93 -46 107 -4 14 -13 32 -20 40 -7 8 -16 25 -19 37 -10 30 -53 56 -106 63 l-45 5 0 33 0 33 260 0 260 -1 9 -19 c19 -42 3 -51 -93 -51 -50 0 -93 -5 -96 -10 -6 -10 17 -75 81 -230 20 -47 54 -128 76 -180 22 -52 48 -112 59 -132 10 -20 19 -42 19 -48 0 -6 12 -37 26 -68 14 -31 33 -73 41 -92 9 -19 23 -51 33 -70 10 -19 21 -50 25 -68 10 -47 38 -42 60 10 11 24 24 57 30 73 6 17 28 65 48 109 20 43 37 82 37 86 0 8 45 114 61 144 6 10 17 37 24 60 7 22 25 73 39 111 27 74 51 164 61 231 9 62 -8 74 -104 74 -88 0 -111 13 -91 49 l11 21 229 0 229 0 11 -21 c18 -32 -4 -49 -61 -49 -39 0 -53 -5 -73 -27 -14 -14 -27 -38 -31 -52 -3 -14 -24 -69 -46 -121 -22 -52 -59 -138 -80 -190 -22 -52 -49 -113 -60 -136 -10 -23 -19 -45 -19 -50 0 -7 -72 -179 -135 -319 -7 -16 -34 -79 -60 -140 -56 -131 -98 -225 -159 -358 -25 -54 -46 -101 -46 -105 0 -16 -178 -368 -191 -378 -8 -6 -36 -14 -64 -18 -27 -3 -56 -13 -64 -21 -14 -13 1587 -15 13957 -15 l13972 0 0 370 0 370 -271 0 c-167 0 -278 4 -290 10 -50 27 1 78 66 66 20 -4 41 1 63 14 l32 20 -1 382 c0 211 -4 403 -9 428 -19 102 -32 135 -67 174 -46 51 -48 53 -121 71 -55 14 -67 14 -127 0 -36 -8 -77 -15 -89 -15 -13 0 -35 -9 -49 -20 -14 -11 -30 -20 -37 -20 -19 0 -180 -112 -192 -133 -11 -22 -12 -126 -2 -556 l7 -284 27 -30 c25 -29 31 -30 109 -32 92 -2 110 -11 93 -49 l-11 -25 -278 2 -278 2 0 35 0 35 68 1 c48 0 72 5 78 15 5 8 8 224 7 514 -3 467 -4 502 -22 535 -10 19 -21 37 -23 40 -3 3 -46 7 -96 10 l-92 5 -3 24 c-5 30 10 44 45 46 46 2 215 25 259 35 22 5 54 6 70 1 l29 -8 1 -84 c1 -109 2 -119 13 -119 4 0 41 25 82 55 93 68 216 130 295 148 87 19 247 8 306 -23 61 -31 113 -85 140 -144 l23 -51 6 -425 c6 -381 13 -488 34 -541 9 -24 67 -37 139 -32 l66 6 0 6808 0 6809 -3666 0 -3665 0 7 -22 c4 -13 13 -32 20 -43 8 -11 14 -25 14 -32 0 -11 61 -165 95 -238 8 -16 26 -61 40 -100 14 -38 34 -88 45 -110 10 -22 23 -57 30 -77 6 -21 16 -40 21 -43 5 -4 9 -16 9 -28 0 -12 7 -31 15 -41 8 -11 21 -43 30 -72 8 -29 20 -56 25 -59 6 -3 10 -16 10 -29 0 -12 5 -27 10 -32 6 -6 19 -33 29 -60 23 -61 158 -392 201 -494 17 -41 35 -86 40 -100 5 -14 20 -54 35 -90 15 -36 35 -85 45 -110 64 -162 83 -209 100 -245 10 -22 21 -51 25 -65 4 -14 14 -34 21 -45 8 -11 14 -29 14 -40 0 -11 7 -29 15 -39 8 -11 21 -43 30 -72 8 -29 20 -56 25 -59 6 -3 10 -16 10 -29 0 -12 5 -27 10 -32 6 -6 19 -33 29 -60 28 -73 104 -261 134 -329 14 -33 38 -91 52 -130 15 -38 33 -83 40 -100 8 -16 32 -77 55 -135 23 -58 48 -118 55 -135 8 -16 25 -61 40 -100 14 -38 34 -87 45 -107 11 -20 20 -43 20 -50 0 -7 9 -30 20 -51 11 -20 20 -45 20 -54 0 -10 7 -27 15 -37 8 -11 21 -43 30 -72 8 -29 20 -56 25 -59 6 -3 10 -16 10 -29 0 -12 5 -27 10 -32 6 -6 19 -33 29 -60 28 -73 104 -261 134 -329 14 -33 38 -91 52 -130 15 -38 33 -83 40 -100 8 -16 32 -77 55 -135 23 -58 48 -118 55 -135 8 -16 26 -61 40 -100 14 -38 35 -88 45 -110 11 -22 24 -57 30 -77 6 -21 16 -40 21 -43 5 -4 9 -16 9 -28 0 -12 7 -31 15 -41 8 -11 21 -43 30 -72 8 -29 20 -56 25 -59 6 -3 10 -16 10 -29 0 -12 5 -27 10 -32 6 -6 19 -33 29 -60 28 -72 104 -261 134 -329 23 -55 62 -149 107 -265 59 -150 83 -208 95 -235 8 -16 26 -61 40 -100 15 -38 35 -86 46 -106 10 -20 19 -43 19 -51 0 -7 9 -31 20 -53 11 -22 20 -45 20 -52 0 -7 9 -27 20 -45 11 -18 20 -40 20 -48 0 -8 7 -28 16 -45 9 -16 21 -46 29 -65 30 -82 149 -377 180 -445 12 -27 38 -92 95 -235 69 -175 83 -208 95 -235 8 -16 26 -61 40 -100 15 -38 35 -86 46 -106 10 -20 19 -43 19 -51 0 -7 9 -31 20 -53 11 -22 20 -45 20 -52 0 -7 9 -27 20 -45 11 -18 20 -40 20 -48 0 -8 7 -28 16 -45 9 -16 21 -46 29 -65 15 -42 132 -333 167 -416 14 -33 30 -72 35 -89 12 -35 145 -369 173 -435 11 -25 48 -115 84 -200 35 -85 81 -188 100 -227 20 -40 36 -79 36 -87 0 -8 4 -17 8 -20 4 -2 23 -35 41 -73 18 -37 38 -77 44 -88 6 -11 34 -60 62 -110 184 -325 413 -607 646 -795 95 -77 176 -132 343 -234 17 -11 25 -21 19 -27 -12 -12 -3379 -7 -3376 5 0 5 34 27 75 49 288 154 402 259 457 415 16 47 21 86 21 162 0 54 -4 109 -9 122 -5 13 -15 50 -21 83 -20 100 -113 381 -190 575 -58 145 -89 229 -102 270 -6 19 -17 44 -24 55 -8 11 -14 26 -14 35 0 8 -7 29 -16 45 -9 17 -21 46 -29 65 -19 52 -139 349 -168 416 -23 54 -62 149 -107 264 -59 150 -83 208 -95 235 -8 17 -29 68 -46 115 -18 47 -39 94 -46 105 -7 11 -13 26 -13 35 0 8 -9 32 -20 53 -11 20 -20 43 -20 49 0 7 -7 26 -15 42 -9 16 -36 81 -61 145 -26 64 -63 157 -84 206 -36 84 -79 190 -120 295 -53 134 -83 209 -100 245 -10 22 -23 56 -29 75 -6 19 -20 50 -31 68 l-20 32 -2007 0 c-1574 0 -2013 -3 -2032 -13 -17 -9 -35 -45 -72 -142 -27 -71 -58 -150 -69 -175 -10 -25 -31 -76 -45 -115 -39 -106 -55 -146 -76 -191 -10 -23 -19 -48 -19 -55 0 -8 -6 -23 -14 -34 -7 -11 -17 -31 -21 -45 -4 -14 -58 -155 -121 -315 -142 -360 -185 -471 -219 -560 -14 -38 -35 -88 -46 -111 -10 -23 -19 -48 -19 -55 0 -8 -6 -23 -14 -34 -7 -11 -17 -31 -21 -45 -8 -30 -124 -328 -136 -352 -11 -22 -75 -187 -104 -268 -13 -36 -35 -96 -50 -135 -47 -125 -155 -458 -155 -479 0 -12 -8 -41 -17 -66 -20 -56 -45 -231 -46 -330 -4 -286 147 -501 454 -647 46 -22 101 -47 122 -56 21 -10 37 -23 34 -30 -3 -9 -332 -13 -1527 -14 -839 -2 -1528 1 -1533 6 -5 5 37 36 95 72 190 116 403 288 509 410 123 142 266 334 323 434 10 17 30 53 47 80 16 28 69 129 117 225 75 148 120 249 258 578 16 39 18 75 4 70 -6 -2 -77 -68 -158 -148 -169 -167 -235 -227 -358 -327 -200 -161 -549 -399 -738 -503 -35 -19 -103 -57 -151 -84 -92 -51 -280 -146 -289 -146 -3 0 -40 -16 -83 -36 -183 -85 -252 -114 -266 -114 -6 0 -25 -7 -42 -16 -16 -8 -55 -24 -85 -35 -143 -50 -443 -148 -515 -168 -44 -13 -105 -30 -135 -39 -30 -9 -73 -19 -95 -23 -22 -4 -65 -14 -95 -22 -73 -20 -192 -47 -260 -58 -30 -5 -77 -14 -105 -19 -27 -6 -79 -15 -115 -20 -36 -5 -87 -14 -115 -20 -27 -6 -93 -15 -145 -20 -52 -5 -108 -12 -125 -14 -104 -17 -399 -42 -630 -54 -175 -9 -4398 -13 -4407 -4 -5 5 11 22 34 39 126 91 310 283 380 396 18 29 39 62 45 73 40 61 91 168 114 239 6 17 17 42 25 57 8 14 14 35 14 46 0 11 7 39 16 63 9 24 19 67 24 94 4 28 14 86 23 130 41 209 42 274 44 3053 l3 2672 -19 0 c-11 0 -21 -9 -24 -23 -14 -53 -150 -272 -273 -437 -144 -193 -418 -467 -624 -622 -133 -100 -344 -235 -455 -293 -38 -19 -77 -39 -85 -44 -19 -10 -55 -29 -77 -39 -10 -5 -29 -15 -43 -22 -45 -23 -54 -28 -120 -55 -36 -14 -77 -33 -92 -41 -14 -8 -32 -14 -40 -14 -7 0 -24 -6 -38 -13 -26 -13 -275 -95 -390 -127 -152 -44 -366 -88 -485 -101 -49 -5 -103 -14 -120 -20 -55 -20 -550 -33 -800 -22 -294 13 -454 38 -675 103 -36 11 -76 22 -90 26 -51 14 -171 74 -166 82 5 9 61 21 116 27 72 6 223 29 285 42 39 8 93 18 120 22 91 14 429 107 525 145 19 8 69 26 110 42 41 15 84 34 95 41 11 7 25 13 33 13 15 0 265 121 352 171 172 97 418 275 561 405 293 267 529 623 643 969 91 278 115 437 115 745 0 154 -11 355 -21 380 -3 8 -11 49 -18 90 -20 130 -84 355 -115 404 -7 12 -15 33 -19 48 -6 27 -110 216 -150 272 -125 178 -283 337 -450 451 -111 76 -209 127 -421 221 -29 12 -104 38 -248 83 -37 11 -78 21 -92 21 -13 0 -44 7 -69 15 -25 9 -75 20 -113 25 -37 6 -90 14 -118 20 -198 39 -1000 36 -1290 -5 -22 -3 -74 -8 -115 -11 -41 -2 -91 -9 -110 -14 -33 -8 -104 -21 -193 -35 l-37 -6 5 -4007 c2 -2204 7 -4063 10 -4132 11 -245 23 -386 34 -426 6 -22 15 -67 19 -100 27 -181 113 -407 216 -564 132 -203 267 -333 514 -494 39 -26 70 -52 66 -57 -3 -5 -1124 -9 -2769 -9 l-2765 0 -14 23 c-8 12 -57 130 -109 262 -89 224 -130 325 -177 435 -10 25 -31 77 -45 115 -14 39 -32 84 -40 100 -7 17 -32 77 -55 135 -23 58 -48 119 -55 135 -8 17 -26 62 -40 100 -14 39 -32 84 -40 100 -8 17 -29 68 -46 115 -18 47 -39 94 -46 105 -7 11 -13 26 -13 35 0 8 -9 32 -20 53 -11 20 -20 43 -20 50 0 7 -9 29 -20 50 -11 20 -20 43 -20 50 0 7 -9 29 -20 50 -11 20 -20 43 -20 49 0 7 -7 26 -15 42 -8 15 -63 148 -121 295 -58 146 -114 284 -124 306 -11 22 -31 72 -45 110 -14 39 -32 84 -40 100 -8 17 -26 62 -40 100 -14 39 -33 85 -41 103 -8 17 -20 47 -28 65 -8 17 -27 64 -41 102 -14 39 -32 84 -40 100 -8 17 -26 62 -40 100 -14 39 -32 84 -40 100 -42 93 -65 149 -65 159 0 6 -9 28 -20 49 -11 20 -20 43 -20 50 0 7 -9 29 -20 50 -11 20 -20 42 -20 48 0 7 -8 30 -19 53 -30 66 -59 139 -67 166 -3 14 -12 32 -19 40 -7 8 -15 26 -18 40 -5 22 -71 189 -182 455 -21 50 -43 106 -51 125 -7 19 -27 69 -44 110 -17 41 -35 86 -40 100 -4 14 -22 59 -40 100 -17 41 -35 87 -39 101 -5 14 -13 34 -19 45 -6 10 -23 51 -37 89 -14 39 -32 84 -40 100 -8 17 -25 62 -40 100 -14 39 -34 87 -45 107 -11 20 -20 43 -20 50 0 7 -9 30 -20 51 -11 20 -20 43 -20 50 0 7 -9 29 -20 50 -11 20 -20 43 -20 50 0 7 -9 29 -20 50 -11 20 -20 43 -20 49 0 7 -7 27 -16 43 -9 17 -21 46 -29 65 -7 19 -65 166 -130 325 -65 160 -126 313 -137 340 -10 28 -25 64 -33 80 -8 17 -26 61 -41 100 -14 38 -32 83 -39 100 -8 16 -32 77 -55 135 -23 58 -48 119 -55 135 -8 17 -26 62 -40 100 -14 39 -32 84 -40 100 -8 17 -29 68 -46 115 -18 47 -39 94 -46 105 -7 11 -13 26 -13 35 0 8 -6 27 -14 42 -8 14 -19 43 -26 65 -7 21 -19 47 -26 58 -8 11 -14 26 -14 35 0 8 -9 32 -20 53 -11 20 -20 43 -20 49 0 7 -7 27 -16 43 -9 17 -21 46 -29 65 -20 54 -180 451 -208 517 -14 32 -37 90 -52 128 -14 39 -30 78 -36 88 -21 38 -60 158 -54 167 4 7 342 10 956 10 1051 0 974 -5 951 63 -6 18 -31 91 -56 162 -26 72 -60 171 -76 220 -17 50 -35 99 -40 110 -5 11 -25 67 -44 125 -60 180 -106 314 -116 335 -5 11 -23 61 -40 110 -16 50 -50 149 -76 220 -25 72 -54 155 -64 185 -10 30 -39 114 -64 185 -26 72 -65 185 -88 253 l-41 122 -629 0 -628 0 0 -5910z m33193 -3846 c40 -9 110 -35 157 -57 114 -55 229 -168 282 -278 64 -131 78 -190 78 -324 0 -100 -4 -133 -25 -198 -42 -132 -88 -208 -180 -295 -110 -104 -197 -147 -353 -173 l-115 -20 -86 16 c-150 29 -238 68 -344 153 -39 31 -117 123 -117 138 0 4 -8 17 -18 28 -46 53 -110 295 -99 372 7 44 21 120 35 179 21 91 97 213 185 294 108 100 190 141 352 175 49 10 182 5 248 -10z m-25082 -2780 c6 -889 9 -970 38 -1046 12 -31 46 -42 141 -42 l65 -1 0 -35 0 -35 -272 -3 -272 -2 -17 25 c-23 36 -7 49 62 51 34 1 61 7 70 16 13 12 15 137 14 884 0 486 -5 887 -10 909 -13 57 -30 65 -132 65 -73 0 -90 3 -95 16 -14 38 9 50 137 69 162 25 226 38 238 49 25 26 27 -38 33 -920z m13387 914 c9 -9 12 -233 12 -948 0 -825 2 -942 16 -983 8 -25 22 -51 30 -58 8 -7 48 -12 94 -13 90 -1 110 -12 92 -50 l-11 -25 -278 2 -278 2 0 35 0 35 65 0 c36 0 71 4 78 8 9 6 12 197 12 897 0 514 -4 899 -9 913 -19 50 -36 57 -132 57 -72 0 -91 3 -96 16 -7 20 14 67 27 59 13 -8 207 22 290 45 36 10 67 18 71 19 3 1 10 -4 17 -11z m1887 -138 l26 -10 -32 -45 -32 -44 22 -68 c11 -38 21 -76 21 -85 0 -10 6 -32 14 -50 14 -32 70 -202 106 -323 10 -33 46 -139 80 -235 34 -96 68 -195 75 -220 22 -70 165 -460 186 -506 10 -22 19 -44 19 -49 0 -4 20 -50 45 -101 49 -101 66 -116 141 -128 32 -6 45 -3 58 9 19 20 19 22 1 110 -13 62 -13 71 0 85 22 21 46 3 66 -50 21 -56 95 -111 187 -140 37 -11 81 -25 98 -30 52 -17 137 -11 210 14 97 33 155 74 188 136 25 46 28 60 24 125 l-3 73 -47 43 c-49 46 -119 76 -273 118 -225 62 -297 97 -357 176 -64 85 -69 236 -12 339 51 92 194 192 299 210 56 10 237 8 319 -4 93 -13 129 -35 138 -86 11 -64 9 -162 -4 -170 -7 -4 -27 11 -51 40 -57 67 -130 112 -197 121 -92 13 -112 13 -188 2 -117 -16 -209 -94 -228 -194 -4 -23 1 -47 19 -86 22 -48 33 -59 88 -90 58 -32 211 -84 299 -102 76 -16 202 -79 259 -131 130 -117 124 -353 -14 -487 -87 -85 -294 -156 -455 -156 -68 -1 -121 7 -278 39 -29 6 -187 12 -360 13 l-307 2 0 35 0 35 84 3 c94 3 115 13 108 51 -8 39 -157 465 -190 544 l-16 37 -344 0 c-271 0 -347 -3 -355 -13 -6 -7 -29 -62 -51 -123 -21 -60 -43 -120 -49 -134 -9 -23 -39 -129 -59 -210 -14 -54 -4 -129 18 -140 10 -6 64 -11 121 -13 l103 -2 0 -35 0 -35 -290 0 -290 0 0 35 c0 29 3 35 20 33 11 -1 44 5 73 13 41 12 56 22 64 42 5 15 16 41 23 57 8 17 44 102 80 190 36 88 74 178 85 201 11 23 20 47 20 53 0 7 9 29 19 49 21 39 49 107 181 422 107 256 129 309 145 345 7 17 31 73 53 125 85 202 135 316 148 338 10 15 24 22 47 22 17 0 39 5 47 10 19 12 23 12 55 0z m-7601 -76 c274 -48 505 -210 610 -429 58 -119 67 -146 92 -265 34 -165 32 -241 -16 -465 -12 -60 -46 -159 -71 -207 -78 -154 -233 -317 -366 -382 -207 -103 -254 -109 -802 -110 -412 -1 -445 0 -455 17 -21 33 4 52 75 55 35 2 74 10 87 18 l22 14 0 737 c0 445 -4 759 -10 792 -5 31 -12 73 -15 94 -9 56 -39 71 -139 70 -83 -1 -106 7 -106 36 0 39 9 40 513 41 409 0 506 -2 581 -16z m-3176 -36 c49 -53 47 -116 -5 -170 -75 -79 -211 21 -168 125 20 48 50 67 105 67 35 0 52 -5 68 -22z m16320 0 c49 -53 47 -116 -5 -170 -75 -79 -211 21 -168 125 20 48 50 67 105 67 35 0 52 -5 68 -22z m2554 -5 c23 -22 28 -35 28 -77 0 -43 -5 -55 -32 -83 -54 -56 -134 -39 -173 37 -22 42 -19 62 15 108 l30 42 52 0 c43 0 57 -5 80 -27z m-11943 -425 c1 -85 5 -124 14 -130 6 -5 77 -8 157 -7 128 1 145 -1 148 -16 2 -9 -4 -25 -14 -36 -15 -17 -32 -19 -148 -19 -72 0 -137 -4 -144 -9 -11 -7 -13 -92 -12 -447 1 -241 4 -466 8 -499 11 -87 45 -129 126 -153 l62 -19 85 18 c46 9 92 20 101 24 24 10 55 -39 38 -60 -7 -8 -22 -15 -34 -15 -12 0 -31 -7 -44 -15 -32 -23 -199 -65 -259 -65 -59 0 -146 30 -181 63 -13 12 -34 40 -45 62 l-22 40 -5 535 -5 535 -63 3 c-102 5 -100 10 71 212 49 58 100 116 115 129 40 36 49 13 51 -131z m11141 13 c0 -85 4 -131 12 -139 8 -8 57 -12 155 -12 124 0 144 -2 150 -16 3 -9 2 -24 -4 -33 -8 -13 -33 -16 -139 -18 -71 -2 -139 -5 -152 -8 l-22 -5 2 -478 3 -477 25 -50 c44 -89 134 -125 245 -99 33 8 75 19 94 25 27 9 36 8 49 -5 22 -22 2 -66 -31 -66 -14 0 -35 -8 -48 -18 -42 -32 -201 -66 -275 -59 -108 10 -194 75 -215 163 -5 22 -9 269 -9 550 l0 512 -23 6 c-12 3 -44 6 -70 6 -70 0 -69 17 5 105 34 42 91 110 125 152 59 73 99 107 115 97 5 -3 8 -63 8 -133z m-28580 -118 c62 -10 133 -54 205 -127 65 -66 165 -213 165 -243 0 -17 -58 -53 -85 -53 -20 0 -108 -27 -200 -61 -28 -11 -58 -19 -68 -19 -10 0 -46 -9 -80 -20 -34 -10 -96 -28 -137 -39 -41 -11 -109 -29 -150 -40 -41 -11 -91 -22 -110 -23 -33 -3 -35 -5 -38 -43 -8 -89 49 -265 116 -362 49 -70 102 -110 198 -149 62 -25 74 -26 193 -22 l126 4 78 38 c43 20 93 51 112 68 l35 30 27 -18 27 -17 -66 -62 c-165 -153 -429 -222 -628 -163 -222 65 -338 217 -385 505 l-19 112 19 123 c20 136 65 269 115 347 46 73 158 174 226 205 45 21 83 29 159 35 55 5 107 6 115 4 8 -3 31 -7 50 -10z m808 5 c8 -8 12 -46 12 -104 0 -51 3 -95 8 -98 4 -2 56 28 116 69 147 99 215 125 341 134 219 15 324 -44 383 -217 l22 -62 0 -411 c0 -349 2 -418 16 -459 9 -27 22 -54 29 -60 9 -7 77 -12 181 -14 138 -1 170 1 186 14 l19 15 -1 470 c0 259 -4 497 -9 529 -11 78 -23 86 -133 86 -95 0 -111 9 -91 52 6 15 20 21 53 24 25 2 59 6 75 8 36 6 197 25 240 29 l30 2 3 -103 c3 -119 13 -133 65 -85 48 44 133 98 218 138 66 31 89 37 190 44 64 5 121 5 131 0 9 -5 27 -9 40 -9 40 -1 121 -53 158 -102 71 -95 74 -119 80 -615 l5 -443 27 -27 c25 -24 36 -28 100 -29 40 -1 84 -5 97 -9 l24 -8 -8 64 c-4 35 -8 87 -9 114 -1 43 2 50 18 50 13 0 28 -16 43 -45 43 -81 95 -119 227 -162 141 -46 288 -26 390 54 105 82 137 202 76 284 -53 73 -115 104 -310 154 -191 50 -296 100 -345 164 -40 52 -68 150 -61 208 13 94 45 158 112 226 112 112 212 141 442 130 121 -7 153 -12 197 -32 l53 -24 4 -98 c3 -55 2 -103 -2 -108 -12 -13 -35 5 -69 51 -33 46 -102 87 -182 107 -34 9 -78 11 -149 5 -102 -8 -140 -22 -207 -76 -27 -22 -73 -109 -73 -137 1 -31 34 -100 61 -125 28 -26 133 -77 186 -90 236 -59 366 -114 434 -182 63 -63 79 -107 79 -222 0 -108 -16 -158 -72 -229 -47 -58 -169 -132 -243 -148 -22 -5 -74 -16 -115 -25 -79 -18 -197 -16 -295 4 -27 5 -71 14 -97 19 -27 5 -56 16 -66 25 -15 13 -21 14 -31 4 -9 -9 -83 -12 -294 -12 l-282 0 0 35 0 35 68 0 c49 0 70 4 77 15 6 9 10 189 10 436 0 396 -1 424 -20 480 -31 92 -67 128 -151 154 l-71 22 -99 -21 c-120 -25 -217 -73 -315 -155 l-46 -39 4 -381 c4 -332 7 -387 22 -431 10 -27 23 -56 30 -62 7 -8 45 -14 96 -15 l85 -3 0 -35 0 -35 -579 0 c-540 0 -580 1 -590 18 -21 33 4 52 70 52 33 1 65 4 72 8 9 6 12 109 12 455 l0 447 -29 61 c-36 76 -64 99 -150 118 -64 15 -74 14 -158 -4 -49 -11 -107 -27 -129 -37 -56 -26 -154 -90 -191 -126 l-33 -31 0 -347 c0 -327 4 -384 31 -491 11 -43 34 -52 139 -52 l65 -1 0 -35 0 -35 -269 -3 c-240 -2 -271 -1 -288 14 -10 10 -18 23 -18 31 0 19 49 36 86 30 21 -4 42 1 63 14 l32 19 -4 448 c-3 437 -13 586 -39 620 -7 8 -41 12 -105 12 -99 0 -116 8 -95 47 11 19 154 50 247 53 28 1 61 6 75 10 37 12 55 11 68 -2z m7467 -3 c77 -23 116 -53 145 -110 l25 -50 6 -420 c5 -400 9 -459 37 -511 16 -30 75 -80 122 -104 22 -11 40 -24 40 -28 0 -12 -73 -104 -92 -115 -12 -8 -28 -6 -60 8 -92 41 -179 134 -193 208 -5 23 -13 37 -22 37 -9 0 -46 -28 -82 -63 -115 -108 -294 -197 -397 -197 -64 0 -150 37 -187 81 -73 84 -88 216 -38 322 33 71 114 155 204 212 57 35 319 165 334 165 5 0 21 7 36 15 16 8 46 19 68 25 21 6 43 20 49 31 13 23 15 159 5 243 -6 49 -14 67 -44 98 -30 33 -47 41 -103 53 -47 10 -77 11 -100 4 -18 -5 -51 -9 -73 -9 -46 0 -128 -39 -162 -76 -17 -18 -23 -38 -23 -69 0 -92 -67 -185 -135 -185 -58 0 -77 58 -44 144 26 72 84 135 172 190 117 72 193 97 332 105 66 5 122 9 123 9 2 1 28 -5 57 -13z m1352 1 c82 -5 117 -21 180 -79 87 -80 87 -80 95 -437 9 -404 22 -639 36 -667 16 -29 43 -37 127 -37 l70 -1 0 -35 0 -35 -275 0 -275 0 0 35 0 35 67 3 c41 2 71 8 78 17 8 9 10 134 8 447 -3 381 -6 438 -21 478 -77 201 -345 203 -606 5 l-61 -46 0 -397 c0 -234 4 -412 10 -433 16 -58 37 -70 130 -73 92 -3 109 -13 92 -50 l-11 -24 -278 1 -278 2 0 35 0 35 65 0 c36 0 71 4 78 8 9 6 12 120 12 513 0 432 -2 510 -15 541 -9 21 -21 41 -28 45 -7 4 -52 8 -100 8 -70 0 -89 3 -94 16 -8 22 13 65 30 58 8 -3 52 2 98 10 46 9 129 17 184 18 l100 3 3 -95 c2 -52 7 -99 12 -104 5 -5 28 7 57 31 138 113 308 187 408 177 17 -2 62 -5 102 -8z m903 -531 c5 -486 8 -546 24 -603 11 -35 27 -67 36 -72 10 -5 52 -10 94 -12 93 -2 116 -14 98 -52 l-12 -26 -267 1 c-148 1 -279 4 -293 8 -18 5 -25 14 -25 31 0 28 41 44 96 35 26 -3 43 0 59 13 l21 17 -1 485 c-1 267 -5 505 -10 529 -11 62 -28 71 -132 71 -73 0 -90 3 -95 16 -10 27 11 48 53 56 134 23 311 46 334 44 13 -1 16 -71 20 -541z m4616 531 c147 -10 280 -121 395 -331 l30 -55 -46 -20 c-26 -11 -52 -20 -58 -20 -11 0 -46 -11 -172 -52 -16 -5 -63 -18 -103 -29 -40 -10 -81 -23 -91 -29 -11 -5 -30 -10 -42 -10 -12 0 -49 -9 -83 -20 -61 -19 -168 -48 -216 -57 -74 -13 -70 -9 -70 -66 0 -155 99 -364 207 -437 89 -61 159 -80 286 -80 99 1 120 4 184 29 39 16 99 47 131 69 l60 41 18 -20 18 -20 -39 -39 c-112 -115 -284 -187 -466 -197 -81 -5 -108 -2 -175 18 -105 31 -158 62 -225 131 -58 60 -139 201 -139 243 0 12 -7 40 -17 61 -20 48 -24 260 -6 344 7 30 16 75 22 100 24 111 109 260 190 332 59 53 164 108 206 108 17 0 36 4 43 9 8 5 33 7 55 5 23 -2 69 -5 103 -8z m862 -94 c3 -120 14 -133 65 -84 79 75 244 162 337 177 59 10 184 8 238 -3 64 -14 145 -73 175 -126 49 -88 56 -155 60 -606 2 -329 6 -419 17 -436 24 -39 60 -52 125 -47 67 6 89 -7 83 -49 l-3 -23 -280 0 -280 0 0 35 0 35 73 0 c53 1 76 5 82 15 6 9 10 194 10 430 l0 415 -24 66 c-36 103 -64 133 -147 159 -51 15 -83 19 -117 15 -127 -18 -272 -83 -365 -165 l-47 -42 3 -377 c3 -207 8 -394 12 -417 4 -23 17 -53 28 -68 20 -24 29 -26 107 -29 l85 -2 0 -35 0 -35 -279 0 c-255 0 -280 2 -290 18 -21 33 4 52 70 52 33 0 65 4 72 8 9 6 12 124 12 533 l0 525 -25 24 c-22 23 -32 25 -110 25 -70 0 -87 3 -92 16 -9 25 10 48 48 56 36 9 53 11 209 28 52 6 100 12 105 15 34 14 40 0 43 -103z m10842 -437 c5 -486 8 -546 24 -603 11 -35 27 -67 36 -72 10 -5 52 -10 94 -12 93 -2 116 -14 98 -52 l-12 -26 -281 2 c-256 3 -283 5 -293 21 -21 33 4 52 73 53 41 0 67 6 77 16 13 13 15 79 14 499 -1 266 -5 504 -10 528 -11 62 -28 71 -132 71 -73 0 -90 3 -95 16 -10 27 11 48 53 56 134 23 311 46 334 44 13 -1 16 -71 20 -541z m-15260 516 c48 -26 91 -75 107 -126 14 -42 18 -117 22 -475 l6 -425 31 -54 c26 -46 40 -59 98 -88 l67 -35 -44 -61 c-25 -34 -52 -63 -60 -65 -9 -2 -40 8 -69 21 -65 30 -147 115 -174 179 -23 57 -36 56 -104 -6 -135 -123 -303 -201 -414 -194 -126 8 -205 78 -231 201 -32 154 35 287 200 398 55 37 223 122 325 164 36 14 77 33 92 41 14 8 33 14 42 14 10 0 28 11 41 25 24 23 25 30 25 140 0 131 -9 163 -62 213 -51 49 -118 63 -227 47 -47 -6 -112 -24 -143 -38 -52 -23 -58 -29 -68 -69 -36 -139 -45 -162 -75 -194 -42 -44 -93 -47 -124 -7 -26 32 -21 75 17 146 61 114 238 229 397 258 65 12 297 5 325 -10z m7091 -8 c50 -31 67 -53 91 -114 20 -51 21 -77 27 -489 l6 -435 34 -49 c26 -37 48 -55 96 -78 l64 -29 -46 -65 c-24 -35 -51 -64 -59 -64 -9 0 -39 11 -68 24 -64 30 -147 112 -172 172 -23 55 -47 58 -93 10 -39 -40 -162 -126 -181 -126 -8 0 -23 -8 -34 -18 -32 -29 -137 -62 -194 -62 -58 0 -145 31 -180 63 -53 49 -67 94 -67 212 0 102 2 113 28 156 35 60 126 146 202 191 52 31 168 89 270 134 103 46 149 64 160 64 7 0 25 10 40 21 l27 22 -4 126 c-3 115 -6 129 -29 166 -39 60 -61 75 -127 89 -120 25 -312 -27 -347 -93 -9 -18 -13 -36 -10 -41 11 -17 -37 -140 -66 -171 -31 -33 -80 -39 -117 -13 -27 19 -29 57 -3 123 43 114 171 218 331 269 88 28 105 30 255 28 115 -1 134 -4 166 -23z m5094 -9 l60 -29 3 -45 c9 -145 8 -155 -15 -158 -16 -2 -26 5 -37 25 -35 67 -120 122 -214 138 -130 23 -231 7 -310 -48 -71 -50 -92 -87 -92 -163 0 -60 3 -67 37 -105 46 -51 84 -70 225 -115 324 -101 326 -102 403 -177 85 -83 110 -196 71 -327 -11 -36 -35 -83 -54 -107 -35 -43 -133 -123 -152 -123 -6 0 -28 -9 -48 -19 -54 -29 -211 -61 -294 -61 -110 0 -298 36 -323 61 -20 20 -38 116 -39 204 -1 64 1 70 19 70 14 0 23 -11 32 -37 13 -41 72 -99 131 -131 54 -29 199 -67 257 -67 86 0 192 41 260 102 43 37 63 73 74 135 12 62 -17 142 -65 178 -34 26 -168 85 -193 85 -14 0 -114 28 -201 57 -199 66 -280 157 -280 314 0 64 5 85 30 136 53 106 184 210 294 233 22 5 113 8 201 6 l160 -3 60 -29z m1099 8 c27 -12 52 -22 57 -22 19 0 102 -65 149 -118 58 -64 116 -170 131 -240 29 -133 33 -163 32 -238 -1 -124 -40 -270 -102 -384 -13 -25 -60 -80 -103 -123 -61 -59 -99 -87 -161 -117 -173 -82 -289 -98 -435 -59 -114 30 -177 65 -253 140 -90 89 -145 199 -167 338 -22 131 -21 149 7 326 31 191 170 374 356 465 111 54 143 60 305 56 113 -2 143 -6 184 -24z m1321 -5 c61 -28 175 -129 175 -155 0 -7 7 -26 15 -43 15 -28 14 -32 -6 -60 -50 -70 -123 -55 -185 38 -20 30 -40 70 -45 88 -6 19 -21 48 -35 65 l-26 30 -94 0 c-109 0 -161 -16 -258 -79 -87 -57 -136 -127 -182 -265 -33 -97 -35 -309 -3 -412 42 -135 101 -227 189 -293 90 -67 146 -85 285 -89 109 -3 126 -1 188 22 72 28 134 63 156 90 18 22 34 20 57 -5 l19 -21 -60 -54 c-33 -30 -85 -67 -115 -82 -30 -16 -64 -34 -75 -40 -11 -6 -58 -21 -105 -33 -181 -46 -409 1 -535 113 -45 39 -114 137 -143 203 -82 188 -84 438 -5 630 53 129 181 266 308 328 101 50 135 56 290 54 118 -3 136 -5 190 -30z m1733 3 c99 -56 111 -114 112 -540 0 -422 4 -470 41 -535 23 -42 39 -56 93 -83 l65 -33 -42 -62 c-23 -34 -50 -63 -59 -65 -60 -11 -206 109 -244 200 -23 57 -36 56 -104 -6 -135 -123 -303 -201 -414 -194 -126 8 -205 78 -231 201 -32 154 35 287 200 398 55 37 223 122 325 164 36 14 77 33 92 41 14 8 33 14 42 14 10 0 28 11 41 25 24 23 25 30 25 140 0 131 -9 163 -62 213 -69 66 -214 72 -357 14 -70 -29 -70 -29 -102 -150 -27 -103 -66 -152 -122 -152 -49 0 -80 38 -71 89 22 124 149 244 331 313 84 32 123 37 268 34 117 -1 134 -4 173 -26z m1482 -535 c5 -573 8 -615 46 -645 9 -8 48 -13 102 -14 l87 -1 0 -35 0 -35 -279 0 c-255 0 -280 2 -290 17 -21 34 4 53 70 53 32 0 65 4 72 8 9 6 12 124 12 531 l0 524 -19 23 c-17 21 -29 24 -118 29 l-98 5 0 29 0 30 75 13 c104 18 225 31 285 29 l50 -1 5 -560z m1180 535 c121 -51 218 -139 273 -245 59 -115 68 -150 76 -303 4 -81 4 -157 -1 -170 -4 -13 -8 -38 -8 -57 0 -47 -51 -175 -101 -251 -61 -94 -159 -178 -264 -227 -22 -11 -78 -30 -125 -44 -161 -48 -341 -16 -495 88 -76 52 -171 193 -196 292 -42 171 -49 262 -29 355 6 26 15 70 21 97 17 80 93 224 154 292 74 82 226 170 330 193 22 5 101 8 175 6 115 -2 143 -6 190 -26z m-23022 -55 c-3 -17 -13 -21 -67 -25 l-65 -5 -28 -48 c-15 -26 -31 -60 -34 -75 -4 -15 -15 -39 -25 -54 -11 -14 -19 -30 -19 -35 0 -7 -90 -219 -140 -328 -23 -51 -68 -158 -219 -520 -89 -214 -103 -220 -159 -65 -11 30 -47 125 -80 210 -33 85 -63 166 -67 180 -4 14 -11 30 -15 35 -4 6 -30 66 -58 135 -96 237 -139 339 -149 352 -6 7 -14 24 -18 38 -4 14 -13 32 -20 40 -7 8 -16 26 -20 40 -4 14 -21 42 -37 62 -27 34 -34 37 -86 40 -45 2 -57 7 -60 21 -9 45 6 47 274 47 l253 0 11 -21 c22 -40 7 -49 -83 -49 -46 0 -88 -5 -94 -11 -7 -7 -6 -23 4 -52 15 -44 72 -184 103 -252 19 -41 76 -177 124 -295 15 -36 34 -77 42 -92 8 -14 14 -35 14 -45 0 -10 5 -24 11 -30 6 -6 21 -39 34 -74 12 -35 26 -64 31 -66 12 -4 55 61 84 127 13 30 41 92 62 138 21 45 38 87 38 93 0 6 7 23 15 37 47 86 145 399 145 463 0 53 -12 59 -117 59 -100 0 -116 8 -94 49 l12 21 237 2 c254 3 267 1 260 -47z"/>
<path d="M32935 4581 c-130 -34 -227 -100 -311 -211 -80 -106 -106 -181 -112 -323 -4 -110 -2 -125 23 -200 54 -159 150 -269 303 -345 l76 -37 136 0 137 0 88 44 c135 67 208 148 278 311 28 66 38 206 22 322 -21 149 -151 324 -297 399 -100 51 -237 67 -343 40z m180 -187 c78 -9 147 -44 174 -87 31 -51 30 -171 -2 -218 -12 -19 -35 -40 -50 -47 -34 -16 -34 -25 2 -71 30 -39 42 -71 60 -166 7 -33 16 -78 22 -100 18 -71 19 -69 -41 -66 -30 1 -60 8 -66 14 -17 18 -44 106 -44 145 0 50 -43 118 -90 142 -47 24 -132 27 -150 5 -8 -10 -11 -56 -9 -154 2 -77 0 -143 -4 -147 -3 -4 -28 -7 -54 -8 l-48 -1 0 375 0 375 58 6 c32 4 60 9 62 11 6 6 101 2 180 -8z"/>
<path d="M32933 4292 c-16 -16 -18 -187 -3 -228 10 -24 14 -26 48 -19 20 4 46 8 57 9 44 5 91 18 106 29 22 17 49 71 49 100 0 39 -41 90 -85 106 -53 19 -154 20 -172 3z"/>
<path d="M23185 2320 c-14 -22 -25 -43 -25 -46 0 -7 -15 -42 -97 -234 -28 -63 -74 -176 -102 -250 -55 -141 -60 -152 -81 -187 -11 -18 -12 -24 -1 -37 12 -14 49 -16 285 -16 149 0 281 3 294 6 26 7 28 21 8 61 -8 15 -42 116 -76 223 -34 107 -82 254 -106 327 -24 72 -44 143 -44 156 0 42 -28 41 -55 -3z"/>
<path d="M15173 2515 l-23 -16 0 -767 c0 -422 5 -785 10 -806 5 -22 20 -51 34 -65 l26 -26 148 1 c369 0 508 34 689 166 80 58 165 193 204 323 23 76 49 340 38 391 -4 16 -7 56 -8 89 -2 77 -53 227 -112 330 -51 90 -164 210 -236 251 -26 15 -55 33 -63 39 -17 13 -126 54 -215 81 -86 27 -459 33 -492 9z"/>
<path d="M1828 1941 c-58 -33 -83 -55 -117 -106 -58 -87 -94 -185 -107 -299 -7 -57 5 -78 31 -56 8 6 47 20 87 30 71 18 110 28 323 86 55 15 119 31 143 35 24 5 48 11 53 14 49 31 -86 225 -210 302 -52 33 -140 30 -203 -6z"/>
<path d="M10310 1425 c-14 -8 -33 -14 -43 -15 -10 0 -35 -8 -55 -19 -20 -10 -59 -29 -87 -42 -75 -36 -191 -117 -218 -152 -103 -136 -98 -268 12 -338 56 -35 94 -36 182 -5 77 27 134 64 202 131 76 76 78 83 79 278 l1 172 -24 2 c-13 2 -35 -4 -49 -12z"/>
<path d="M17020 1945 c-89 -46 -155 -140 -206 -292 -25 -74 -32 -157 -14 -168 6 -4 32 0 58 8 26 9 82 25 125 36 42 12 110 30 150 40 39 11 99 27 132 36 33 10 80 20 105 24 78 12 85 26 47 101 -48 98 -112 169 -192 213 -63 36 -140 36 -205 2z"/>
<path d="M13577 1430 c-14 -11 -32 -20 -41 -20 -15 0 -62 -19 -156 -64 -114 -54 -207 -133 -246 -208 -20 -39 -24 -62 -24 -131 l0 -83 38 -36 c65 -64 116 -72 216 -36 102 37 176 91 248 181 l38 49 0 172 c0 171 -5 196 -36 196 -6 0 -23 -9 -37 -20z"/>
<path d="M20655 1430 c-16 -11 -37 -20 -45 -20 -8 0 -32 -9 -53 -20 -20 -11 -46 -20 -56 -20 -11 0 -23 -4 -26 -10 -3 -5 -29 -21 -58 -35 -83 -42 -153 -100 -193 -161 l-38 -57 -1 -87 c0 -82 2 -88 30 -122 33 -40 89 -68 137 -68 32 0 143 40 188 68 57 36 124 98 156 146 l34 51 0 165 c0 198 -7 215 -75 170z"/>
<path d="M26580 1941 c-121 -39 -191 -117 -247 -273 -24 -68 -26 -85 -27 -263 l-1 -190 29 -83 c38 -112 69 -165 136 -232 81 -81 157 -110 288 -110 114 0 156 16 238 86 49 42 69 72 119 189 17 38 45 233 45 300 -1 49 -6 85 -29 193 -18 87 -83 215 -142 277 -28 30 -57 55 -64 55 -7 0 -18 7 -25 15 -20 24 -136 55 -204 54 -33 0 -86 -8 -116 -18z"/>
<path d="M29897 1430 c-14 -11 -32 -20 -41 -20 -15 0 -62 -19 -156 -64 -114 -54 -207 -133 -246 -208 -20 -39 -24 -62 -24 -131 l0 -83 38 -36 c65 -64 116 -72 216 -36 102 37 176 91 248 181 l38 49 0 172 c0 171 -5 196 -36 196 -6 0 -23 -9 -37 -20z"/>
<path d="M32260 1932 c-126 -51 -201 -161 -240 -350 -11 -55 -20 -137 -20 -182 0 -88 32 -265 55 -311 8 -15 15 -34 15 -41 0 -21 97 -144 139 -177 77 -62 136 -81 244 -81 114 0 172 19 248 81 83 69 141 215 154 389 8 116 9 97 -3 205 -16 140 -77 287 -156 373 -99 109 -296 152 -436 94z"/>
<path d="M10403 14433 c15 -2 37 -2 50 0 12 2 0 4 -28 4 -27 0 -38 -2 -22 -4z"/>
<path d="M10514 14425 c12 -9 44 -16 78 -16 32 -1 70 -3 86 -4 84 -9 214 -25 262 -34 30 -6 78 -13 105 -16 60 -7 218 -41 295 -62 30 -8 73 -18 95 -22 69 -13 379 -109 455 -141 25 -10 72 -28 105 -41 33 -12 87 -34 120 -49 33 -15 92 -42 130 -59 39 -18 77 -36 85 -41 8 -5 56 -31 105 -58 292 -160 636 -434 798 -636 23 -29 66 -82 94 -118 72 -89 201 -287 230 -350 6 -16 19 -28 27 -28 13 0 14 24 10 168 -3 92 -7 190 -10 217 -19 205 -24 255 -34 295 -5 25 -13 61 -15 80 -24 154 -120 399 -211 536 -74 112 -250 264 -334 289 -14 4 -34 14 -45 21 -11 8 -29 14 -41 14 -24 0 -54 29 -54 53 0 16 -84 17 -1177 17 -1038 -1 -1176 -2 -1159 -15z"/>
<path d="M17540 14430 c47 -4 92 -10 100 -13 8 -4 62 -9 120 -12 237 -11 316 -18 327 -27 7 -6 20 -8 28 -4 8 3 39 1 68 -5 28 -6 90 -15 137 -20 47 -5 110 -14 140 -20 30 -5 82 -13 115 -18 33 -4 96 -16 140 -25 44 -10 123 -27 175 -38 152 -32 375 -88 475 -118 151 -45 550 -182 602 -205 17 -8 35 -15 41 -15 9 0 77 -30 209 -91 34 -16 65 -29 68 -29 13 0 306 -150 419 -215 128 -72 174 -101 332 -205 402 -265 794 -623 1111 -1015 134 -165 311 -425 378 -555 16 -30 35 -62 42 -70 14 -18 183 -353 183 -364 0 -4 16 -42 36 -84 20 -42 40 -88 45 -102 4 -14 22 -61 39 -105 118 -306 248 -797 280 -1060 4 -33 15 -105 23 -160 14 -90 30 -233 44 -415 3 -36 7 -188 10 -337 2 -150 8 -273 12 -273 15 0 39 35 46 65 8 36 46 135 57 151 5 6 17 35 27 65 22 62 47 126 86 219 15 36 30 76 35 90 5 14 23 59 40 100 18 41 36 86 40 100 5 14 23 59 40 100 18 41 36 86 40 100 5 14 23 59 40 100 18 41 36 86 40 100 5 14 23 59 40 100 18 41 36 86 40 100 5 14 23 59 40 100 18 41 36 86 40 100 5 14 23 59 40 100 18 41 36 86 40 100 5 14 23 59 40 100 18 41 36 86 40 100 5 14 23 59 40 100 18 41 36 86 40 100 5 14 23 59 40 100 18 41 36 86 40 100 5 14 23 59 40 100 18 41 36 86 40 100 5 14 23 59 40 100 18 41 36 86 40 100 5 14 23 59 40 100 18 41 36 86 40 100 5 14 23 59 40 100 18 41 36 86 40 100 5 14 23 59 40 100 18 41 36 86 40 100 5 14 23 59 40 100 18 41 36 86 40 100 5 14 23 59 40 100 18 41 36 86 40 100 5 14 23 59 40 100 18 41 36 86 40 100 5 14 23 59 40 100 18 41 36 86 41 100 4 14 20 57 34 95 60 162 125 371 125 402 0 12 7 52 16 89 22 97 20 222 -6 324 -12 47 -27 92 -33 100 -7 8 -23 37 -37 63 -39 76 -140 164 -259 225 -56 28 -110 52 -120 52 -24 0 -41 20 -41 47 l0 23 -3577 -2 c-1968 0 -3540 -4 -3493 -8z"/>
<path d="M3594 13235 c-4 -8 1 -30 10 -49 9 -19 16 -39 16 -46 0 -6 11 -44 24 -83 12 -40 42 -133 65 -207 24 -74 51 -159 62 -188 10 -30 19 -61 19 -70 0 -9 9 -39 19 -67 11 -27 38 -108 60 -180 92 -296 123 -393 142 -443 10 -30 19 -61 19 -70 0 -9 9 -39 19 -67 18 -47 38 -110 142 -440 22 -71 49 -154 60 -183 10 -30 19 -61 19 -70 0 -9 9 -39 19 -67 30 -77 101 -307 104 -335 l2 -25 -957 -3 -958 -2 0 -28 c0 -15 7 -36 15 -46 8 -11 15 -26 15 -34 0 -7 12 -39 26 -70 14 -31 33 -73 41 -92 9 -19 24 -52 34 -72 11 -20 19 -42 19 -48 0 -6 12 -37 26 -68 14 -31 33 -73 41 -92 9 -19 24 -52 34 -72 11 -20 19 -42 19 -48 0 -6 18 -49 40 -96 22 -47 40 -91 40 -97 0 -7 9 -25 20 -42 11 -16 20 -36 20 -43 0 -7 12 -39 26 -70 14 -31 33 -73 41 -92 9 -19 24 -52 34 -72 11 -20 19 -42 19 -48 0 -6 12 -37 26 -68 14 -31 33 -73 41 -92 9 -19 24 -52 34 -72 11 -20 19 -42 19 -48 0 -6 18 -49 40 -96 22 -47 40 -91 40 -97 0 -7 9 -25 20 -42 11 -16 20 -36 20 -43 0 -7 18 -51 40 -98 22 -47 40 -91 40 -97 0 -7 9 -25 20 -42 11 -16 20 -36 20 -43 0 -7 18 -51 40 -98 22 -47 40 -91 40 -97 0 -7 9 -25 20 -42 11 -16 20 -36 20 -43 0 -7 12 -39 26 -70 14 -31 33 -73 41 -92 9 -19 24 -52 34 -72 11 -20 19 -42 19 -48 0 -6 12 -37 26 -68 14 -31 33 -73 41 -92 9 -19 24 -52 34 -72 11 -20 19 -42 19 -48 0 -6 18 -49 40 -96 22 -47 40 -91 40 -97 0 -7 9 -25 20 -42 11 -16 20 -36 20 -43 0 -7 12 -39 26 -70 14 -31 33 -73 41 -92 9 -19 24 -52 34 -72 11 -20 19 -42 19 -48 0 -6 12 -37 26 -68 14 -31 33 -73 41 -92 9 -19 24 -52 34 -72 11 -20 19 -42 19 -48 0 -6 18 -49 40 -96 22 -47 40 -91 40 -97 0 -7 9 -25 20 -42 11 -16 20 -36 20 -43 0 -7 18 -51 40 -98 22 -47 40 -91 40 -97 0 -7 9 -25 20 -42 11 -16 20 -36 20 -43 0 -7 18 -51 40 -98 22 -47 40 -91 40 -97 0 -7 9 -25 20 -42 11 -16 20 -36 20 -43 0 -7 12 -39 26 -70 14 -31 33 -73 41 -92 9 -19 24 -52 34 -72 11 -20 19 -42 19 -48 0 -6 12 -37 26 -68 14 -31 33 -73 41 -92 9 -19 24 -52 34 -72 11 -20 19 -42 19 -48 0 -6 18 -49 40 -96 22 -47 40 -91 40 -97 0 -7 9 -25 20 -42 11 -16 20 -36 20 -43 0 -7 12 -39 26 -70 14 -31 33 -73 41 -92 9 -19 24 -52 34 -72 11 -20 19 -42 19 -48 0 -6 18 -49 40 -96 22 -47 40 -91 40 -98 0 -7 9 -25 21 -40 l20 -26 809 0 c474 0 811 4 814 9 4 5 6 1932 6 4282 0 3418 -2 4274 -12 4281 -7 4 -696 8 -1531 8 -1343 0 -1518 -2 -1523 -15z"/>
<path d="M16605 13220 c-11 -5 -78 -9 -150 -9 -71 -1 -173 -8 -225 -16 -52 -8 -124 -17 -160 -20 -57 -5 -113 -14 -365 -56 -74 -12 -124 -22 -245 -48 -52 -11 -107 -23 -122 -26 l-28 -5 0 -4180 0 -4180 25 -10 c31 -12 116 -28 205 -40 36 -5 90 -14 120 -20 30 -6 105 -15 165 -21 61 -5 133 -12 160 -15 143 -15 232 -18 590 -18 278 -1 412 3 465 12 61 11 255 29 355 33 11 1 34 5 50 10 17 5 68 13 115 19 47 5 105 14 130 19 25 5 63 12 85 15 213 34 552 127 845 232 234 84 294 109 505 214 552 273 1003 632 1353 1075 87 111 197 270 252 365 11 19 25 42 30 50 27 42 118 213 144 270 15 36 36 83 46 105 9 22 24 56 33 75 82 182 185 528 236 790 6 30 13 69 16 85 4 17 10 66 15 110 5 44 14 105 20 135 17 81 29 342 29 614 0 268 -14 691 -24 706 -4 6 -8 29 -11 53 -11 110 -25 227 -34 277 -5 30 -14 84 -20 120 -5 36 -16 90 -25 120 -8 30 -15 66 -15 78 0 13 -9 58 -21 100 -63 235 -88 322 -119 407 -10 28 -30 86 -46 130 -15 44 -34 89 -41 100 -7 11 -13 26 -13 35 0 21 -166 358 -230 467 -158 269 -344 506 -567 723 -142 139 -280 255 -392 330 -20 14 -60 42 -88 63 -28 20 -53 37 -56 37 -3 0 -27 14 -54 32 -26 18 -61 40 -78 48 -42 22 -77 43 -95 56 -8 7 -26 15 -40 19 -14 4 -32 13 -40 20 -8 7 -26 16 -40 20 -14 4 -32 13 -40 19 -8 7 -44 24 -80 40 -36 16 -83 37 -105 47 -22 10 -71 30 -110 44 -38 14 -86 32 -105 39 -83 32 -148 54 -190 65 -25 7 -83 24 -130 37 -47 14 -105 29 -130 34 -25 5 -58 14 -75 20 -16 7 -55 16 -85 21 -30 5 -75 13 -100 19 -25 6 -74 15 -110 20 -36 5 -90 14 -120 20 -30 6 -98 15 -150 21 -106 11 -123 13 -230 28 -42 5 -244 13 -450 16 -206 3 -384 8 -395 10 -11 2 -29 -1 -40 -5z"/>
<path d="M26120 12923 c-11 -35 -120 -320 -141 -368 -4 -11 -22 -58 -40 -105 -17 -47 -40 -103 -50 -126 -10 -23 -19 -45 -19 -49 0 -4 -36 -100 -81 -214 -44 -113 -87 -222 -94 -241 -8 -19 -26 -66 -40 -105 -14 -38 -35 -88 -46 -111 -10 -23 -19 -45 -19 -49 0 -10 -75 -201 -102 -261 -10 -22 -18 -46 -18 -52 0 -6 -9 -31 -19 -54 -11 -24 -30 -70 -42 -103 -12 -33 -30 -80 -40 -105 -10 -25 -50 -128 -90 -230 -39 -102 -83 -212 -96 -245 -14 -33 -28 -73 -33 -90 -4 -16 -15 -43 -24 -60 -9 -16 -16 -37 -16 -45 0 -9 -6 -24 -14 -35 -7 -11 -17 -31 -21 -45 -4 -14 -34 -95 -67 -180 -33 -85 -78 -202 -100 -260 -22 -58 -49 -123 -59 -146 -11 -23 -19 -45 -19 -50 0 -6 -16 -48 -36 -94 -20 -47 -39 -96 -44 -110 -4 -14 -29 -79 -55 -145 -25 -66 -55 -143 -65 -171 -10 -28 -24 -60 -30 -71 -7 -11 -10 -28 -7 -37 6 -15 129 -16 1554 -14 l1548 3 -2 25 c-2 14 -11 45 -22 70 -28 66 -98 251 -106 280 -4 14 -14 34 -21 45 -8 11 -14 27 -14 37 0 10 -9 35 -20 55 -11 21 -20 44 -20 52 0 7 -8 32 -19 55 -22 48 -96 240 -106 276 -4 14 -14 34 -21 45 -8 11 -14 26 -14 35 0 9 -16 54 -36 100 -19 47 -42 103 -49 125 -27 78 -46 130 -59 160 -8 17 -23 55 -34 85 -11 30 -35 91 -52 135 -39 97 -78 199 -90 240 -6 17 -16 44 -24 60 -8 17 -31 75 -51 130 -21 55 -48 124 -61 154 -13 29 -24 57 -24 62 0 7 -60 167 -105 279 -7 19 -26 67 -40 105 -15 39 -41 108 -60 155 -18 47 -45 117 -60 155 -14 39 -33 88 -42 110 -19 49 -29 76 -88 228 -25 65 -45 120 -45 123 0 3 -6 20 -14 37 -14 31 -42 101 -92 237 -14 36 -31 80 -39 98 -8 18 -15 38 -15 45 0 7 -8 28 -18 47 -11 19 -22 47 -26 62 -9 40 -46 98 -61 98 -7 0 -19 -17 -25 -37z"/>
<path d="M478 2518 c-16 -12 -17 -47 -18 -393 -1 -209 -1 -385 -1 -392 1 -7 20 -18 44 -24 23 -7 47 -16 52 -20 21 -14 144 -20 206 -10 199 34 301 96 369 223 31 57 35 73 38 160 4 87 1 105 -23 172 -48 132 -159 233 -295 269 -97 25 -346 36 -372 15z"/>
</g>
</g>
  <g id="id1:id1" transform="matrix(1.25,0,0,1.25,0.0,0.0)"><g transform="translate(0.000000,577.600000) scale(0.040000,-0.040000)" fill="#006b6e" stroke="none">
<path d="M1240 14429 c0 -6 5 -20 11 -32 7 -11 18 -42 25 -67 7 -25 22 -70 34 -100 12 -30 28 -75 36 -100 7 -25 27 -83 44 -130 18 -47 38 -105 45 -130 8 -25 26 -76 40 -115 15 -38 33 -90 40 -115 7 -25 25 -76 40 -115 14 -38 30 -83 34 -100 5 -16 15 -46 23 -65 21 -48 38 -96 53 -152 8 -25 19 -57 26 -69 6 -13 18 -44 25 -69 22 -77 45 -144 56 -165 6 -11 17 -40 24 -65 7 -25 24 -76 39 -115 14 -38 32 -90 39 -115 20 -63 45 -132 55 -150 5 -9 12 -30 15 -48 4 -17 8 -34 9 -37 1 -3 -426 -6 -949 -5 -843 0 -953 -1 -964 -15 -13 -16 4 -76 50 -180 10 -22 28 -67 40 -100 13 -33 28 -73 35 -90 22 -50 66 -157 85 -205 10 -25 27 -69 39 -97 11 -29 30 -74 40 -100 10 -27 31 -76 45 -109 14 -34 26 -68 26 -76 0 -8 5 -19 12 -26 12 -12 28 -52 55 -132 8 -25 19 -52 24 -60 5 -8 12 -22 15 -30 3 -8 13 -33 23 -55 10 -22 22 -56 26 -75 4 -19 13 -42 19 -50 7 -8 25 -49 40 -90 16 -41 31 -82 36 -90 4 -8 47 -114 95 -235 48 -121 95 -238 104 -260 10 -22 30 -74 46 -115 16 -41 35 -84 42 -95 7 -11 13 -26 13 -34 0 -7 18 -57 41 -110 40 -94 61 -145 98 -238 10 -27 29 -73 41 -103 12 -30 31 -77 42 -105 11 -27 28 -68 38 -90 10 -22 21 -53 25 -70 4 -16 12 -37 19 -45 7 -8 16 -24 19 -35 20 -65 56 -158 66 -168 6 -6 11 -15 11 -21 0 -11 46 -132 59 -156 5 -9 41 -99 81 -200 40 -102 78 -198 85 -215 45 -106 66 -156 85 -205 12 -30 27 -68 35 -85 7 -16 23 -57 35 -90 13 -33 30 -78 40 -100 17 -39 62 -149 101 -247 26 -65 55 -138 80 -200 12 -29 28 -73 37 -98 8 -25 20 -52 27 -60 7 -8 15 -24 18 -35 20 -65 56 -158 66 -168 6 -6 11 -17 11 -24 0 -8 8 -30 19 -51 10 -20 22 -53 26 -72 4 -19 12 -41 19 -49 6 -8 15 -27 21 -42 18 -51 127 -324 135 -340 4 -8 20 -47 35 -85 26 -69 64 -162 90 -219 7 -16 23 -57 35 -90 13 -33 30 -78 40 -100 10 -22 28 -67 40 -100 12 -33 30 -78 40 -100 10 -22 27 -64 39 -92 52 -130 64 -161 81 -203 20 -52 52 -130 79 -197 11 -27 23 -59 27 -73 3 -14 12 -32 19 -40 7 -8 15 -24 18 -35 17 -57 55 -156 64 -167 6 -7 13 -22 16 -33 17 -55 55 -156 64 -167 5 -7 65 -152 132 -323 68 -170 131 -328 141 -350 10 -22 28 -67 40 -100 13 -33 29 -73 36 -90 7 -16 29 -70 49 -120 35 -85 46 -114 95 -235 11 -28 29 -73 40 -100 11 -27 29 -71 39 -97 11 -27 29 -73 41 -103 11 -30 32 -65 46 -78 l25 -22 2732 1 c1503 0 2752 4 2777 7 31 5 46 12 48 25 2 9 -1 17 -6 17 -9 0 -63 35 -217 140 -77 53 -275 249 -323 320 -20 30 -44 64 -54 75 -23 28 -115 214 -139 283 -23 66 -58 194 -65 237 -3 17 -14 75 -24 130 -11 55 -21 150 -24 210 -3 61 -8 169 -11 240 -3 72 -7 1925 -8 4120 l-2 3989 45 8 c135 24 173 30 255 39 50 5 104 12 120 14 17 3 53 6 80 9 28 2 61 6 75 10 31 7 269 14 550 16 226 1 510 -13 595 -30 28 -5 70 -12 95 -15 96 -13 344 -74 405 -100 17 -7 46 -16 65 -20 19 -4 51 -16 70 -26 19 -11 41 -19 48 -19 8 0 25 -9 39 -20 14 -11 32 -20 40 -20 18 0 167 -80 258 -138 208 -135 430 -369 541 -572 72 -132 84 -156 84 -168 0 -7 9 -30 19 -50 42 -82 92 -253 111 -382 6 -41 16 -91 21 -110 18 -68 26 -403 14 -595 -7 -104 -38 -282 -66 -373 -10 -34 -19 -69 -19 -77 0 -8 -6 -29 -14 -47 -8 -18 -28 -69 -44 -113 -41 -106 -71 -173 -81 -179 -5 -3 -12 -17 -15 -30 -7 -27 -15 -41 -118 -201 -82 -128 -131 -188 -307 -380 -23 -26 -142 -131 -192 -170 -193 -152 -308 -231 -464 -318 -134 -74 -289 -150 -335 -162 -14 -4 -30 -11 -36 -16 -6 -5 -53 -24 -105 -43 -52 -19 -105 -39 -119 -44 -89 -36 -385 -115 -519 -138 -46 -8 -87 -17 -92 -19 -7 -5 -209 -33 -294 -41 -22 -2 -56 -6 -75 -9 -19 -3 -50 -8 -67 -11 -43 -6 -46 -41 -5 -49 25 -6 79 -27 157 -61 50 -22 241 -74 340 -94 169 -33 255 -43 465 -53 250 -11 745 2 805 22 17 6 68 15 115 20 150 17 429 80 610 138 25 8 65 20 90 28 102 32 146 47 172 61 14 8 32 14 40 14 7 0 27 7 43 16 17 8 66 29 110 47 44 17 86 35 92 40 7 5 41 22 75 38 35 17 70 34 78 39 8 6 25 14 37 20 34 14 292 170 340 205 23 16 55 39 72 50 105 70 312 246 431 367 204 208 326 364 474 611 47 78 61 95 72 86 20 -16 15 -5185 -4 -5414 -12 -138 -38 -302 -63 -400 -34 -131 -66 -230 -93 -280 -9 -16 -16 -35 -16 -41 0 -6 -6 -17 -14 -23 -8 -7 -17 -23 -20 -37 -4 -14 -22 -47 -41 -74 -19 -28 -35 -52 -35 -55 0 -36 -253 -299 -372 -388 -38 -28 -68 -56 -68 -63 0 -8 21 -15 53 -19 64 -7 4228 0 4382 8 61 3 157 10 215 15 58 6 161 13 230 17 69 3 139 10 155 15 17 5 77 14 135 20 58 6 130 15 160 20 30 6 87 15 125 20 39 6 90 15 115 20 25 6 70 14 100 20 182 31 521 116 710 177 25 8 62 19 84 24 21 5 47 14 58 20 11 6 41 17 66 24 87 25 274 93 285 104 6 6 17 11 24 11 14 0 139 47 163 61 8 5 26 14 40 20 88 36 378 179 465 229 39 21 80 44 92 49 37 17 295 173 339 206 23 16 54 37 70 47 38 21 302 217 388 288 122 99 169 141 310 277 81 79 142 131 147 126 6 -6 3 -26 -5 -49 -31 -84 -85 -207 -95 -217 -6 -6 -11 -16 -11 -23 0 -26 -180 -396 -239 -489 -17 -27 -36 -61 -43 -75 -22 -47 -161 -245 -222 -318 -34 -40 -82 -99 -107 -130 -95 -119 -366 -329 -581 -451 -70 -39 -74 -58 -15 -66 23 -3 722 -5 1554 -3 1594 3 1554 2 1527 46 -12 19 -31 29 -119 67 -33 15 -67 30 -75 36 -8 5 -26 15 -40 21 -85 41 -230 170 -286 253 -70 106 -107 314 -81 455 3 19 9 60 12 90 8 72 68 307 100 390 8 19 17 46 20 60 3 14 12 41 19 60 8 19 22 60 33 90 65 179 152 408 169 445 7 17 20 48 28 70 7 22 23 64 35 93 53 131 63 159 74 192 6 19 16 42 22 50 7 8 15 29 19 45 4 17 22 66 40 110 19 44 73 181 121 305 48 124 93 239 101 255 7 17 20 48 28 70 7 22 23 64 35 93 53 131 63 159 74 192 6 19 16 42 22 50 7 8 15 29 19 45 4 17 22 66 40 110 19 44 44 107 56 140 12 33 33 85 45 115 59 141 105 262 105 275 0 7 10 21 22 29 20 14 229 16 2025 16 l2003 0 20 -33 c11 -17 26 -50 32 -72 6 -22 15 -44 19 -50 4 -5 19 -41 33 -80 15 -38 36 -88 46 -110 11 -22 20 -44 20 -49 0 -5 8 -27 19 -50 10 -23 29 -68 41 -101 12 -33 30 -78 40 -100 10 -22 27 -62 38 -90 45 -113 65 -162 82 -200 9 -22 20 -54 24 -72 4 -17 14 -37 22 -44 8 -6 14 -18 14 -26 0 -7 8 -30 19 -51 10 -20 21 -52 25 -71 3 -19 12 -41 18 -49 7 -8 18 -28 24 -46 30 -82 117 -295 134 -331 11 -22 20 -44 20 -49 0 -5 8 -27 19 -50 10 -23 29 -68 41 -101 12 -33 30 -78 40 -100 10 -22 27 -62 38 -90 11 -27 29 -74 41 -102 11 -29 30 -77 42 -105 11 -29 29 -71 38 -93 40 -89 60 -141 66 -170 4 -16 12 -36 18 -43 10 -12 35 -76 57 -147 6 -16 16 -43 24 -60 8 -16 32 -77 53 -135 56 -150 64 -170 80 -220 8 -25 21 -61 28 -80 53 -139 87 -301 92 -434 4 -95 1 -117 -18 -170 -37 -100 -90 -165 -204 -250 -85 -64 -109 -78 -252 -151 -62 -32 -113 -63 -113 -70 0 -7 22 -15 56 -19 70 -8 3231 -8 3342 1 56 4 82 10 82 19 0 6 -26 27 -57 46 -32 18 -71 42 -88 53 -17 11 -46 29 -64 40 -32 19 -115 79 -196 140 -66 50 -223 205 -289 285 -80 97 -194 253 -259 355 -125 193 -306 566 -437 895 -54 137 -83 210 -102 255 -11 28 -29 73 -40 100 -11 28 -29 69 -39 93 -10 23 -19 48 -19 54 0 6 -8 29 -19 52 -10 23 -28 64 -39 91 -11 28 -29 74 -41 103 -11 28 -30 73 -40 100 -49 122 -73 179 -87 204 -8 14 -14 32 -14 40 0 8 -9 31 -20 53 -11 22 -20 44 -20 50 0 6 -9 27 -20 48 -11 20 -20 42 -20 49 0 6 -9 30 -19 52 -11 23 -59 138 -106 256 -47 118 -92 229 -99 245 -8 17 -24 57 -36 90 -13 33 -30 78 -40 100 -17 38 -36 86 -80 195 -11 28 -29 71 -39 98 -49 122 -73 179 -87 204 -8 14 -14 32 -14 40 0 8 -9 31 -20 53 -11 22 -20 44 -20 50 0 6 -9 27 -20 48 -11 20 -20 42 -20 49 0 6 -9 30 -19 52 -11 23 -59 138 -106 256 -47 118 -95 233 -106 256 -10 22 -19 45 -19 51 0 9 -18 56 -55 138 -7 17 -22 54 -34 83 -36 89 -60 150 -82 205 -11 28 -29 70 -39 92 -10 22 -22 51 -26 65 -3 14 -13 34 -20 45 -8 11 -14 26 -14 35 0 9 -9 33 -20 55 -11 22 -20 44 -20 50 0 6 -9 27 -20 48 -11 20 -20 43 -20 49 0 7 -7 26 -15 42 -8 16 -54 126 -101 245 -47 119 -94 234 -104 256 -10 22 -28 67 -40 100 -12 33 -30 78 -40 100 -10 22 -27 64 -39 93 -51 126 -64 160 -83 207 -11 28 -28 68 -37 90 -37 82 -60 141 -71 177 -6 21 -16 40 -21 43 -5 4 -9 14 -9 23 0 10 -9 34 -20 55 -11 20 -20 43 -20 49 0 7 -7 26 -15 41 -8 15 -55 130 -105 255 -50 125 -97 241 -104 257 -8 17 -24 57 -36 90 -13 33 -30 78 -40 100 -10 22 -27 63 -38 90 -11 28 -29 73 -40 100 -54 136 -65 163 -82 200 -10 22 -22 51 -26 65 -3 14 -13 34 -20 45 -8 11 -14 25 -14 33 0 7 -7 29 -17 50 -9 20 -22 51 -28 67 -7 17 -52 127 -100 245 -93 228 -120 297 -137 345 -6 17 -17 39 -25 50 -7 11 -13 26 -13 34 0 7 -18 57 -41 110 -39 92 -55 130 -99 241 -29 73 -61 149 -81 195 -9 22 -29 72 -43 110 -14 39 -33 83 -41 98 -8 16 -15 34 -15 40 0 7 -7 25 -16 42 -8 16 -49 115 -91 219 -41 104 -81 203 -88 220 -7 17 -23 56 -35 86 -12 30 -29 72 -38 92 l-17 37 -1347 1 -1348 0 0 -25 c0 -32 33 -65 66 -65 14 0 37 -9 51 -20 14 -11 32 -20 40 -20 14 0 30 -9 118 -66 73 -47 153 -138 170 -194 4 -14 13 -32 20 -40 12 -15 41 -132 45 -180 9 -133 -30 -376 -86 -520 -7 -19 -18 -51 -23 -70 -5 -19 -30 -89 -56 -155 -25 -66 -51 -136 -57 -155 -5 -19 -16 -46 -24 -60 -7 -14 -25 -56 -39 -95 -14 -38 -32 -83 -40 -100 -8 -16 -26 -61 -40 -100 -14 -38 -32 -83 -40 -100 -8 -16 -26 -61 -40 -100 -14 -38 -32 -83 -40 -100 -8 -16 -26 -61 -40 -100 -14 -38 -32 -83 -40 -100 -8 -16 -26 -61 -40 -100 -14 -38 -32 -83 -40 -100 -8 -16 -26 -61 -40 -100 -14 -38 -32 -83 -40 -100 -8 -16 -26 -61 -40 -100 -14 -38 -32 -83 -40 -100 -8 -16 -26 -61 -40 -100 -14 -38 -32 -83 -40 -100 -8 -16 -26 -61 -40 -100 -14 -38 -32 -83 -40 -100 -8 -16 -26 -61 -40 -100 -14 -38 -32 -83 -40 -100 -8 -16 -26 -61 -40 -100 -14 -38 -32 -83 -40 -100 -8 -16 -26 -61 -40 -100 -14 -38 -32 -83 -40 -100 -8 -16 -26 -61 -40 -100 -14 -38 -32 -83 -40 -100 -8 -16 -26 -61 -40 -100 -14 -38 -32 -83 -40 -100 -8 -16 -26 -61 -40 -100 -14 -38 -32 -83 -40 -100 -8 -16 -26 -61 -40 -100 -14 -38 -32 -83 -40 -100 -8 -16 -26 -61 -40 -100 -14 -38 -32 -83 -40 -100 -8 -16 -26 -61 -40 -100 -14 -38 -32 -83 -40 -100 -8 -16 -26 -61 -40 -100 -14 -38 -31 -81 -37 -95 -7 -14 -24 -54 -38 -90 -15 -36 -31 -64 -36 -63 -5 2 -12 105 -16 230 -3 126 -8 255 -11 288 -13 150 -30 309 -44 405 -8 58 -19 134 -23 170 -5 36 -14 85 -20 110 -5 25 -15 74 -20 110 -6 36 -17 88 -24 115 -20 71 -45 172 -57 225 -5 25 -15 63 -23 85 -7 22 -23 74 -36 115 -12 41 -28 90 -36 108 -8 18 -18 50 -23 70 -5 20 -18 60 -30 87 -11 28 -32 82 -47 120 -14 39 -39 99 -55 135 -34 75 -209 425 -224 449 -6 9 -23 39 -38 66 -73 133 -258 405 -374 548 -348 429 -767 804 -1202 1076 -47 29 -106 66 -131 82 -25 15 -61 37 -80 47 -49 25 -82 45 -100 58 -37 27 -323 166 -495 240 -16 7 -55 24 -86 38 -31 14 -60 26 -65 26 -5 0 -49 16 -99 36 -150 59 -243 92 -337 118 -25 8 -52 17 -58 21 -7 4 -44 16 -84 27 -39 10 -102 27 -141 38 -38 11 -97 26 -130 34 -33 8 -87 21 -120 29 -149 36 -376 83 -460 96 -143 22 -359 54 -450 67 -16 2 -97 9 -180 14 -82 6 -158 15 -167 20 -12 7 -885 10 -2484 10 l-2466 0 7 -27 c9 -38 21 -51 58 -59 29 -6 91 -33 127 -55 8 -5 32 -18 53 -29 80 -44 222 -195 276 -295 12 -22 25 -47 30 -55 71 -114 152 -414 173 -640 29 -311 33 -423 15 -438 -16 -14 -21 -8 -83 94 -74 124 -243 333 -369 459 -254 253 -566 463 -968 650 -54 25 -101 45 -104 45 -4 0 -54 19 -112 41 -159 62 -169 66 -266 94 -49 15 -118 35 -153 46 -34 10 -69 19 -77 19 -9 0 -48 9 -88 19 -102 28 -205 50 -289 62 -40 5 -95 14 -123 20 -27 5 -102 14 -165 20 -63 5 -123 14 -132 19 -26 14 -9398 14 -9398 -1z m5400 -5469 l0 -4265 -805 -3 -806 -2 -15 37 c-21 52 -37 90 -63 143 -11 25 -21 49 -21 53 0 5 -12 34 -26 65 -14 31 -31 71 -38 87 -7 17 -23 50 -35 75 -11 25 -21 49 -21 53 0 5 -12 34 -26 65 -14 31 -31 71 -38 87 -7 17 -23 50 -35 75 -11 25 -21 49 -21 53 0 5 -12 34 -26 65 -14 31 -31 71 -38 87 -7 17 -23 50 -35 75 -11 25 -21 49 -21 53 0 5 -12 34 -26 65 -14 31 -31 71 -38 87 -7 17 -23 50 -35 75 -11 25 -21 49 -21 53 0 5 -12 34 -26 65 -14 31 -31 71 -38 87 -7 17 -23 50 -35 75 -11 25 -21 49 -21 53 0 5 -12 34 -26 65 -14 31 -31 71 -38 87 -7 17 -23 50 -35 75 -11 25 -21 49 -21 53 0 5 -12 34 -26 65 -14 31 -31 71 -38 87 -7 17 -23 50 -35 75 -11 25 -21 49 -21 53 0 5 -12 34 -26 65 -14 31 -31 71 -38 87 -7 17 -23 50 -35 75 -11 25 -21 49 -21 53 0 5 -12 34 -26 65 -14 31 -31 71 -38 87 -7 17 -23 50 -35 75 -11 25 -21 49 -21 53 0 5 -12 34 -26 65 -14 31 -31 71 -38 87 -7 17 -23 50 -35 75 -11 25 -21 49 -21 53 0 5 -12 34 -26 65 -14 31 -31 71 -38 87 -7 17 -23 50 -35 75 -11 25 -21 49 -21 53 0 5 -12 34 -26 65 -14 31 -31 71 -38 87 -7 17 -23 50 -35 75 -11 25 -21 49 -21 53 0 5 -12 34 -26 65 -14 31 -31 71 -38 87 -7 17 -23 50 -35 75 -11 25 -21 49 -21 53 0 5 -12 34 -26 65 -14 31 -31 71 -38 87 -7 17 -23 50 -35 75 -11 25 -21 49 -21 53 0 5 -12 34 -26 65 -14 31 -31 71 -38 87 -7 17 -23 50 -35 75 -11 25 -21 49 -21 53 0 5 -12 34 -26 65 -14 31 -31 71 -38 87 -7 17 -23 50 -35 75 -11 25 -21 49 -21 53 0 5 -12 34 -26 65 -14 31 -31 71 -38 87 -7 17 -23 50 -35 75 -11 25 -21 49 -21 53 0 5 -12 34 -26 65 -14 31 -31 71 -38 87 -7 17 -23 50 -35 75 -11 25 -21 49 -21 53 0 5 -12 34 -26 65 -14 31 -31 71 -38 87 -7 17 -23 50 -35 75 -11 25 -21 49 -21 53 0 5 -12 34 -26 65 -14 31 -31 71 -38 87 -7 17 -22 50 -34 75 -11 25 -24 56 -27 70 -4 14 -14 35 -21 48 -12 18 -12 23 -2 27 7 3 441 6 963 8 l950 2 -3 39 c-2 21 -11 61 -21 90 -11 28 -31 92 -46 141 -14 50 -31 101 -37 115 -6 14 -16 48 -24 75 -13 50 -65 214 -85 270 -6 17 -19 59 -29 95 -10 36 -22 76 -28 90 -6 14 -22 66 -37 115 -14 50 -31 101 -37 115 -6 14 -16 48 -24 75 -13 50 -65 214 -85 270 -6 17 -19 59 -29 95 -10 36 -22 76 -28 90 -6 14 -22 66 -37 115 -14 50 -33 106 -40 125 -8 19 -17 51 -21 70 -4 19 -12 48 -20 65 -7 16 -22 64 -34 105 -12 41 -30 95 -40 120 -10 25 -21 63 -25 85 -4 21 -12 51 -20 65 -7 14 -18 50 -25 80 -7 30 -17 60 -22 67 -5 7 -7 17 -3 23 4 7 472 9 1516 8 l1509 -3 0 -4265z m10610 4234 c91 -2 176 -8 190 -11 14 -4 45 -8 70 -9 25 -2 61 -5 80 -8 19 -3 76 -9 125 -15 88 -9 280 -40 380 -60 28 -6 73 -14 100 -17 28 -4 55 -10 60 -14 6 -5 42 -15 80 -23 80 -18 176 -43 220 -58 17 -6 53 -17 80 -25 66 -17 143 -43 180 -59 17 -7 68 -28 114 -45 46 -17 91 -35 100 -40 9 -5 43 -21 76 -35 342 -151 685 -374 935 -608 253 -237 468 -498 620 -755 66 -111 247 -480 254 -516 4 -19 13 -39 21 -46 8 -7 15 -19 15 -27 0 -8 9 -35 19 -61 41 -101 66 -177 119 -367 46 -160 62 -226 62 -247 0 -13 7 -48 15 -78 9 -30 20 -86 25 -125 6 -38 15 -92 20 -120 9 -45 26 -183 34 -276 2 -20 6 -41 10 -48 10 -16 25 -422 26 -706 0 -281 -13 -570 -28 -630 -6 -22 -13 -71 -17 -110 -3 -38 -10 -86 -15 -105 -4 -19 -14 -66 -20 -105 -18 -109 -82 -373 -106 -435 -7 -19 -18 -51 -23 -70 -9 -33 -42 -127 -75 -215 -8 -22 -21 -53 -30 -70 -9 -16 -16 -34 -16 -38 0 -8 -42 -102 -84 -187 -39 -81 -124 -232 -153 -272 -18 -26 -33 -51 -33 -55 0 -8 -108 -168 -148 -219 -13 -16 -43 -56 -67 -88 -201 -268 -608 -633 -935 -839 -77 -49 -186 -114 -200 -121 -8 -3 -31 -16 -50 -28 -76 -46 -392 -198 -412 -198 -6 0 -27 -8 -47 -19 -35 -18 -71 -32 -221 -86 -41 -15 -91 -33 -110 -40 -19 -7 -78 -25 -130 -40 -52 -15 -115 -33 -140 -40 -144 -44 -475 -113 -680 -141 -58 -8 -118 -17 -135 -20 -16 -2 -77 -9 -135 -14 -58 -6 -125 -12 -150 -15 -204 -19 -324 -24 -585 -24 -165 0 -347 5 -405 10 -58 6 -125 12 -150 14 -183 15 -282 25 -325 35 -27 6 -81 15 -120 20 -38 5 -99 15 -135 22 l-65 13 0 4169 0 4168 100 24 c126 29 286 61 345 68 25 4 83 13 130 21 172 29 428 56 550 57 69 1 133 4 142 7 18 6 380 4 648 -5z m8936 -318 c6 -23 36 -103 64 -176 10 -25 28 -72 40 -105 13 -33 31 -78 41 -100 10 -23 21 -54 25 -70 4 -17 11 -35 15 -41 5 -6 15 -31 23 -55 8 -24 24 -69 36 -99 12 -30 32 -82 45 -115 41 -111 87 -230 99 -260 7 -16 23 -57 35 -90 13 -33 31 -80 41 -105 10 -25 39 -101 65 -170 26 -69 53 -138 60 -155 26 -62 55 -141 55 -149 0 -5 8 -27 19 -50 28 -62 98 -247 106 -281 4 -16 12 -36 18 -43 10 -12 35 -76 57 -147 6 -16 16 -43 24 -60 24 -50 94 -238 102 -270 4 -16 11 -36 17 -43 11 -13 38 -86 58 -152 6 -19 15 -40 21 -47 5 -7 16 -31 23 -55 22 -69 45 -131 59 -163 8 -16 24 -57 36 -90 12 -33 30 -79 41 -103 10 -23 19 -47 19 -53 0 -5 9 -29 19 -52 11 -24 23 -56 27 -72 4 -17 13 -39 20 -50 8 -11 14 -26 14 -34 0 -7 8 -32 19 -55 10 -23 28 -68 40 -101 12 -33 31 -79 42 -103 10 -23 19 -48 19 -55 0 -6 6 -23 13 -37 23 -44 36 -89 28 -95 -5 -2 -694 -5 -1532 -5 -1601 -1 -1564 -2 -1514 40 8 7 15 21 15 31 0 10 18 63 40 116 22 54 40 103 40 108 0 6 11 33 25 60 13 28 25 56 25 62 0 7 9 32 20 55 10 24 31 75 45 113 14 39 32 86 40 105 7 19 41 107 75 195 34 88 70 180 80 205 10 25 29 72 41 105 12 33 31 78 41 101 10 22 18 46 18 53 0 7 6 25 14 39 8 15 44 106 81 202 37 96 75 195 85 220 10 25 29 72 41 105 12 33 31 78 41 101 10 22 18 44 18 49 0 9 73 201 96 250 7 17 20 48 28 70 7 22 24 65 36 95 12 30 29 73 36 95 8 22 27 72 43 110 16 39 52 131 81 205 28 74 58 149 66 167 8 17 14 36 14 42 0 6 9 30 19 53 11 24 30 70 42 103 28 78 57 150 80 201 11 23 19 45 19 50 0 11 103 275 141 362 10 23 19 51 19 61 0 10 3 21 7 24 9 10 41 -21 49 -47z"/>
<path d="M32955 4713 c-87 -19 -150 -36 -182 -51 -196 -89 -335 -255 -392 -467 -29 -112 -33 -168 -17 -250 28 -149 50 -208 111 -310 98 -161 269 -264 510 -305 85 -14 270 22 369 72 100 50 230 173 282 264 66 118 87 195 92 337 4 118 2 135 -23 215 -81 257 -256 423 -507 483 -72 17 -192 23 -243 12z m206 -151 c89 -23 135 -46 210 -105 88 -71 168 -207 186 -316 14 -93 2 -272 -22 -321 -6 -14 -23 -47 -36 -75 -60 -124 -216 -240 -356 -263 -79 -14 -228 2 -288 30 -153 72 -250 181 -303 340 -33 99 -33 258 2 351 35 97 70 151 142 223 73 73 141 112 239 135 93 23 138 23 226 1z"/>
<path d="M32930 4420 c-8 -5 -38 -10 -65 -10 -28 0 -56 -5 -63 -12 -9 -9 -12 -105 -12 -373 0 -198 3 -370 6 -382 8 -28 18 -31 84 -24 l55 6 5 155 5 155 50 3 c97 5 144 -43 163 -168 5 -36 18 -83 28 -105 l19 -40 75 0 c83 0 85 3 62 70 -6 17 -17 67 -26 113 -15 78 -39 143 -68 185 -11 16 -9 21 15 39 45 33 67 87 67 168 0 42 -6 82 -14 98 -37 71 -114 108 -241 117 -49 3 -99 8 -110 10 -11 2 -27 0 -35 -5z m174 -147 c31 -7 66 -54 66 -91 0 -36 -28 -82 -57 -93 -24 -9 -46 -12 -143 -22 l-25 -2 0 105 0 105 45 6 c44 6 53 6 114 -8z"/>
<path d="M8045 2833 c-22 -8 -71 -19 -110 -24 -38 -6 -86 -12 -105 -15 -19 -2 -55 -6 -79 -7 -46 -3 -70 -28 -71 -74 0 -32 15 -37 125 -43 l99 -5 8 -35 c12 -57 11 -1771 -2 -1784 -5 -5 -26 -9 -46 -8 -20 2 -52 -2 -71 -9 -31 -10 -34 -14 -31 -47 5 -59 18 -62 316 -62 163 0 271 4 283 10 14 8 19 21 19 50 0 51 -17 60 -120 60 l-81 0 -16 38 c-25 57 -32 306 -32 1173 -1 784 -2 802 -35 798 -6 -1 -29 -8 -51 -16z"/>
<path d="M21440 2834 c-25 -8 -112 -24 -195 -35 -82 -12 -153 -24 -156 -28 -4 -3 -10 -20 -13 -37 -11 -52 10 -64 114 -64 83 0 91 -2 105 -24 14 -20 15 -127 15 -911 0 -488 -2 -891 -5 -895 -2 -4 -34 -5 -70 -3 -61 3 -66 2 -76 -21 -7 -14 -9 -40 -5 -59 l6 -34 287 -1 c191 -1 292 3 300 10 17 13 17 84 1 95 -7 4 -51 10 -98 13 l-85 5 -17 35 c-17 33 -18 100 -18 975 0 517 -3 950 -6 962 -8 28 -30 33 -84 17z"/>
<path d="M23330 2700 c-8 -5 -30 -10 -48 -10 -45 0 -66 -26 -106 -128 -18 -45 -38 -88 -44 -94 -7 -7 -12 -18 -12 -24 0 -12 -53 -151 -70 -183 -17 -32 -50 -107 -50 -114 0 -3 -38 -96 -85 -205 -47 -110 -85 -204 -85 -210 0 -5 -7 -15 -15 -22 -8 -7 -15 -19 -15 -27 0 -18 -33 -99 -104 -255 -14 -31 -26 -61 -26 -66 0 -5 -20 -53 -44 -108 -68 -156 -116 -272 -116 -282 0 -5 -6 -15 -14 -21 -8 -7 -17 -27 -20 -45 -4 -19 -12 -38 -19 -43 -19 -15 -96 -35 -107 -28 -5 3 -19 1 -30 -5 -24 -13 -28 -81 -7 -98 9 -8 107 -11 307 -9 l295 2 9 28 c6 17 6 37 0 55 l-9 27 -110 3 c-60 2 -113 6 -117 10 -11 11 -11 90 1 147 12 61 41 156 76 250 14 39 32 91 40 116 8 26 21 51 28 57 8 7 126 12 346 13 l334 1 14 -38 c8 -22 21 -57 28 -79 8 -22 26 -71 40 -110 14 -38 32 -90 40 -115 27 -86 47 -145 62 -182 22 -53 13 -68 -44 -70 -26 -1 -65 0 -85 1 -46 3 -63 -22 -53 -79 l6 -38 322 0 c214 0 337 -4 367 -12 153 -39 297 -48 400 -24 36 8 84 19 107 24 68 15 194 87 242 138 24 26 55 71 68 100 14 29 28 50 32 47 5 -2 11 -30 15 -62 18 -158 36 -209 80 -217 11 -3 57 -12 101 -21 44 -9 118 -19 165 -21 81 -5 103 -2 276 36 92 20 236 117 282 189 65 102 81 219 44 323 -50 140 -132 192 -452 288 -160 47 -244 92 -271 142 -6 11 -10 47 -10 80 0 53 4 65 28 90 86 91 189 120 342 97 89 -13 156 -51 197 -112 33 -49 43 -57 66 -57 36 0 51 30 43 89 -4 31 -8 76 -9 101 l-1 45 -56 28 c-66 33 -147 47 -280 47 -124 0 -200 -15 -274 -53 -73 -38 -159 -124 -200 -198 -28 -50 -30 -61 -29 -149 1 -109 19 -156 86 -221 46 -44 160 -102 243 -123 293 -75 359 -107 396 -194 17 -39 18 -53 9 -94 -5 -27 -17 -62 -25 -77 -35 -69 -183 -141 -288 -141 -64 0 -197 32 -252 62 -55 29 -115 88 -115 113 0 55 -67 88 -91 44 -18 -34 -27 -9 -19 51 4 30 4 63 -1 72 -5 9 -9 30 -9 45 0 53 -59 134 -135 185 -38 26 -88 53 -110 60 -22 6 -49 17 -60 24 -11 6 -38 15 -60 19 -88 15 -261 77 -316 113 -53 35 -77 99 -60 161 21 80 99 142 198 160 85 16 230 3 263 -23 8 -7 28 -18 43 -26 15 -7 44 -33 63 -57 40 -49 66 -66 88 -57 17 7 21 91 8 189 -6 44 -11 52 -45 71 -67 37 -330 58 -438 35 -71 -15 -172 -67 -226 -116 -27 -24 -64 -72 -83 -107 l-34 -63 -1 -105 c0 -98 2 -108 29 -155 52 -91 156 -156 301 -189 28 -6 55 -14 60 -17 6 -4 35 -12 65 -19 99 -22 171 -54 221 -98 l49 -44 0 -74 c0 -90 -23 -135 -95 -183 -106 -72 -216 -87 -352 -50 -129 35 -194 77 -223 143 -22 52 -52 80 -78 72 -27 -9 -44 -50 -32 -81 5 -13 11 -48 12 -77 l3 -53 -50 4 c-27 1 -57 7 -66 12 -17 9 -94 158 -105 205 -4 16 -13 40 -20 54 -7 14 -17 39 -23 55 -5 17 -19 55 -31 85 -12 30 -30 80 -41 110 -10 30 -30 87 -44 125 -15 39 -33 90 -40 115 -7 25 -25 77 -40 115 -14 39 -32 90 -40 115 -7 25 -25 77 -40 115 -14 39 -31 88 -36 110 -5 22 -16 56 -23 75 -34 84 -115 355 -132 440 -4 19 2 32 25 54 39 37 39 51 1 71 -34 17 -49 19 -70 5z m-94 -443 c3 -18 10 -36 14 -42 4 -5 10 -23 14 -40 4 -16 15 -52 26 -80 10 -27 31 -90 45 -140 15 -49 33 -106 39 -125 32 -88 48 -138 57 -175 6 -21 15 -45 20 -52 6 -7 8 -17 4 -23 -9 -14 -551 -14 -560 1 -4 5 -1 18 7 27 8 9 27 51 42 92 15 41 34 89 42 105 7 17 34 82 59 145 25 63 54 133 65 155 31 66 70 162 70 172 0 5 5 14 12 21 16 16 35 -1 44 -41z"/>
<path d="M0 2580 l0 -60 94 0 c75 0 98 -4 115 -17 l21 -18 -2 -820 -3 -820 -70 -5 c-39 -3 -76 -9 -83 -14 -16 -10 -16 -81 1 -94 15 -13 635 -13 643 -1 11 19 14 58 5 82 l-9 24 -92 2 c-50 0 -99 5 -109 11 -13 7 -20 26 -24 72 -8 80 -10 664 -3 677 4 5 21 5 43 0 21 -5 110 -9 197 -9 146 -1 167 2 245 26 47 15 91 31 97 36 6 4 33 19 59 33 169 90 259 248 255 450 -2 92 -14 147 -51 222 -57 116 -207 228 -337 253 -26 5 -60 13 -75 19 -19 7 -181 11 -473 11 l-444 0 0 -60z m824 -91 c209 -49 327 -196 327 -407 0 -148 -62 -256 -185 -325 -62 -34 -242 -72 -306 -63 -25 3 -58 8 -75 10 -16 2 -47 10 -69 18 l-38 13 1 379 c1 209 4 383 7 388 11 18 244 9 338 -13z"/>
<path d="M14698 2629 c-12 -7 -18 -22 -18 -49 0 -51 14 -58 123 -57 51 0 92 -4 98 -10 32 -32 38 -183 39 -919 0 -610 -2 -733 -14 -743 -7 -6 -41 -12 -74 -12 -34 -1 -69 -7 -78 -14 -22 -16 -21 -75 1 -91 27 -20 863 -13 980 8 372 67 641 323 731 693 50 205 53 342 10 515 -41 164 -86 256 -194 392 -34 43 -54 60 -160 141 -80 60 -208 110 -346 137 -101 19 -144 20 -595 20 -302 -1 -493 -5 -503 -11z m962 -143 c175 -44 287 -105 397 -218 182 -187 251 -444 214 -793 -9 -81 -40 -205 -62 -247 -35 -68 -113 -177 -141 -198 -117 -86 -209 -128 -328 -151 -95 -17 -301 -31 -408 -26 -96 3 -105 6 -130 31 l-27 26 -3 787 c-1 433 0 793 2 800 4 10 50 13 198 13 170 0 205 -3 288 -24z"/>
<path d="M12466 2589 c-15 -11 -36 -39 -47 -61 l-21 -41 17 -43 c19 -51 61 -84 113 -91 53 -7 101 28 124 90 l18 48 -21 45 c-13 26 -33 51 -50 59 -41 22 -101 19 -133 -6z"/>
<path d="M28783 2586 c-16 -14 -38 -43 -48 -66 l-19 -42 23 -44 c61 -114 189 -109 233 9 l18 48 -21 45 c-25 52 -60 74 -118 74 -27 0 -48 -7 -68 -24z"/>
<path d="M31345 2598 c-27 -16 -58 -56 -67 -87 -19 -64 49 -150 125 -158 40 -5 47 -2 85 34 40 38 42 43 42 97 0 53 -3 61 -34 92 -29 29 -40 34 -82 34 -27 0 -58 -6 -69 -12z"/>
<path d="M19438 2239 c-38 -41 -87 -97 -107 -124 -21 -28 -46 -57 -56 -65 -24 -20 -65 -86 -65 -104 0 -21 16 -28 79 -35 l56 -6 5 -525 5 -525 22 -40 c27 -50 65 -86 123 -116 58 -30 176 -32 265 -5 118 35 200 70 220 92 l20 23 33 -40 c43 -51 116 -88 189 -95 47 -5 73 -1 138 21 44 15 87 34 96 41 8 8 20 14 25 14 11 0 114 72 177 123 25 21 51 36 57 32 6 -3 19 -23 29 -43 44 -86 145 -167 231 -187 32 -7 36 -3 93 77 48 68 56 88 36 88 -6 0 -37 12 -69 26 -41 18 -66 37 -86 67 l-29 42 -5 430 -6 430 -26 68 c-31 81 -43 96 -105 128 -45 22 -58 24 -198 23 -136 0 -157 -3 -229 -27 -144 -49 -259 -134 -320 -236 -69 -116 -48 -211 49 -211 38 0 68 18 92 55 29 44 62 142 56 166 -6 22 47 79 74 79 10 0 30 8 43 17 20 15 47 18 147 18 115 0 123 -1 147 -24 54 -51 67 -97 64 -226 l-3 -118 -85 -34 c-110 -43 -122 -48 -272 -123 -262 -129 -354 -230 -365 -397 -3 -44 -1 -95 6 -118 14 -51 -2 -68 -23 -26 -19 35 -19 35 -49 19 -12 -7 -57 -20 -100 -29 -69 -13 -85 -14 -137 -1 -49 12 -63 20 -83 51 -13 20 -27 59 -30 86 -4 28 -7 248 -8 490 l-1 440 142 5 c134 5 143 6 161 29 21 26 25 66 8 77 -6 4 -76 6 -155 5 -111 -2 -145 1 -149 11 -3 7 -7 63 -9 123 -2 61 -5 115 -5 122 -1 7 -11 17 -22 24 -20 10 -29 4 -91 -62z m1270 -983 l2 -168 -22 -28 c-13 -16 -31 -40 -41 -54 -25 -36 -128 -104 -200 -132 -98 -39 -160 -30 -217 31 -23 24 -25 34 -25 113 1 76 4 92 27 128 39 60 116 125 199 165 117 58 162 77 196 84 17 3 37 13 44 21 28 34 34 7 37 -160z"/>
<path d="M30635 2290 c-16 -11 -52 -47 -80 -81 -27 -34 -75 -90 -105 -125 -132 -151 -131 -166 10 -176 l35 -3 2 -503 c2 -575 2 -579 75 -647 94 -88 174 -102 338 -60 57 15 114 33 125 40 11 7 32 15 47 19 20 5 30 15 36 39 18 67 -7 86 -85 64 -153 -46 -210 -41 -275 21 -56 53 -60 94 -56 597 l3 430 140 5 c77 3 145 9 152 13 17 11 28 76 15 89 -7 7 -67 12 -159 12 l-148 1 -3 129 c-2 117 -10 156 -31 156 -3 0 -19 -9 -36 -20z"/>
<path d="M4305 2059 c-74 -12 -234 -31 -280 -33 -31 -1 -42 -7 -52 -26 -35 -69 -7 -90 116 -90 51 0 82 -4 88 -12 20 -25 24 -119 24 -577 0 -316 -4 -468 -11 -475 -11 -11 -323 -11 -342 0 -29 18 -33 68 -38 499 l-5 440 -33 77 c-37 86 -79 130 -157 168 -41 20 -69 25 -163 28 -103 4 -121 2 -195 -22 -79 -26 -120 -48 -241 -129 -32 -20 -61 -35 -67 -32 -5 4 -9 44 -9 91 0 68 -3 86 -16 91 -16 6 -184 -9 -333 -31 l-85 -12 -9 -34 c-14 -54 14 -70 119 -70 51 0 86 -4 90 -11 19 -32 27 -183 31 -590 3 -377 1 -448 -11 -458 -7 -6 -41 -13 -74 -14 -33 -1 -67 -9 -76 -16 -22 -18 -20 -57 4 -81 l20 -20 272 1 c150 1 281 5 291 10 25 14 24 85 -2 99 -11 5 -56 10 -101 10 -74 0 -81 2 -89 23 -26 64 -32 176 -29 507 l3 345 75 52 c88 61 160 97 215 107 22 4 61 12 86 18 64 16 165 -12 207 -56 62 -66 63 -74 62 -553 0 -240 -3 -439 -5 -444 -3 -4 -27 -5 -54 -2 -67 8 -91 -7 -91 -57 0 -27 5 -42 18 -48 23 -13 1170 -13 1178 -1 11 18 13 72 4 89 -8 14 -24 18 -92 18 -52 1 -86 6 -94 14 -32 33 -37 95 -41 472 l-5 378 38 32 c92 76 204 130 317 152 l88 17 59 -18 c71 -21 110 -59 139 -133 l21 -53 0 -424 c0 -328 -3 -426 -12 -432 -7 -4 -41 -7 -74 -5 l-62 2 -6 -35 c-4 -18 -4 -45 -1 -58 l6 -24 267 -1 c147 0 283 2 302 6 21 5 51 3 75 -5 104 -32 223 -53 301 -53 52 0 101 8 252 40 73 16 193 90 246 152 68 79 81 118 81 248 0 107 -2 118 -27 162 -57 95 -190 175 -373 222 -227 59 -299 95 -335 166 -11 22 -20 51 -20 65 0 41 47 111 100 150 46 34 55 37 154 45 161 12 245 -15 323 -106 52 -59 66 -68 93 -54 16 8 17 19 13 93 -6 87 5 118 27 77 8 -16 21 -20 59 -20 37 0 52 -5 68 -22 23 -27 63 -95 63 -108 0 -5 18 -47 40 -94 22 -46 40 -87 40 -91 0 -3 12 -32 26 -63 14 -31 31 -70 38 -87 7 -16 23 -50 35 -75 11 -25 21 -49 21 -53 0 -8 13 -37 86 -195 19 -40 34 -76 34 -79 0 -4 8 -25 18 -47 11 -23 29 -66 41 -96 13 -30 29 -68 37 -83 8 -16 14 -35 14 -43 0 -22 -134 -289 -161 -321 -9 -10 -20 -29 -26 -43 -6 -14 -27 -45 -47 -70 -20 -25 -50 -62 -66 -82 -41 -50 -131 -116 -212 -156 -64 -31 -68 -35 -68 -67 l0 -35 143 0 c120 0 150 3 183 19 54 26 62 37 139 196 37 77 72 148 77 158 5 10 26 57 47 105 41 92 93 207 116 257 8 17 35 80 61 140 25 61 54 128 64 150 33 73 57 129 81 190 13 33 28 67 35 75 6 8 14 29 18 45 4 17 19 55 33 85 14 30 29 64 33 75 5 11 22 52 38 90 16 39 38 92 48 120 10 27 26 65 36 84 10 20 18 43 18 52 0 9 9 28 21 43 17 22 28 26 69 26 31 0 55 6 70 18 21 17 22 22 11 54 -7 20 -17 38 -24 40 -7 1 -120 1 -251 -2 l-240 -5 -9 -35 c-14 -53 14 -70 114 -70 59 0 81 -4 85 -14 3 -8 0 -42 -6 -77 -13 -74 -95 -324 -116 -353 -8 -11 -14 -27 -14 -34 0 -15 -158 -381 -171 -396 -7 -8 -39 55 -83 159 -7 17 -23 50 -35 75 -11 25 -21 49 -21 53 0 5 -12 34 -26 65 -34 75 -48 106 -75 172 -12 30 -30 73 -40 95 -44 100 -69 166 -69 181 0 10 -7 25 -16 35 -27 30 -8 39 80 39 97 0 111 9 100 65 -8 43 -25 53 -84 49 -25 -1 -143 -2 -262 -3 -178 -1 -218 -4 -218 -15 0 -7 -6 -19 -14 -25 -11 -10 -16 -9 -23 2 -15 26 -88 55 -167 66 -96 14 -247 14 -315 1 -59 -11 -155 -56 -205 -97 -78 -61 -138 -171 -152 -274 -7 -50 19 -145 57 -205 41 -68 168 -129 379 -184 233 -60 310 -119 310 -234 0 -99 -80 -187 -204 -225 -89 -27 -164 -27 -263 3 -122 37 -194 90 -226 168 -17 41 -46 55 -78 38 -20 -11 -21 -17 -14 -74 12 -100 11 -131 -2 -130 -7 1 -44 2 -81 3 -41 0 -76 7 -88 15 l-19 14 -6 449 -5 448 -23 60 c-37 96 -68 141 -123 176 -65 42 -133 59 -235 59 -147 0 -235 -32 -405 -146 -42 -29 -79 -50 -82 -47 -3 4 -6 44 -6 89 0 62 -4 87 -16 98 -17 17 -15 17 -89 5z"/>
<path d="M10205 2058 c-120 -7 -136 -10 -230 -45 -189 -72 -345 -254 -314 -366 38 -138 212 -41 226 127 3 34 10 66 15 73 16 21 118 63 152 63 17 0 49 5 70 10 57 13 142 -6 187 -41 31 -24 37 -37 44 -81 11 -82 6 -241 -8 -254 -7 -6 -50 -25 -96 -43 -46 -18 -91 -36 -100 -40 -9 -5 -63 -32 -121 -60 -166 -81 -200 -102 -266 -164 -42 -39 -73 -79 -95 -125 -31 -60 -34 -75 -34 -152 0 -69 5 -93 24 -130 48 -93 125 -146 226 -157 103 -10 285 73 422 195 62 54 74 61 79 45 20 -61 33 -84 81 -134 36 -38 74 -66 115 -84 56 -25 64 -27 87 -14 30 17 103 118 99 136 -2 7 -32 30 -67 51 -72 41 -97 70 -113 128 -7 24 -14 199 -17 464 l-6 425 -24 40 c-49 81 -72 98 -161 124 -44 13 -79 15 -175 9z m156 -811 l0 -169 -41 -47 c-84 -101 -195 -167 -299 -177 -51 -6 -60 -3 -99 26 -77 56 -92 134 -43 235 28 59 75 112 136 152 60 40 204 110 290 140 58 21 57 23 56 -160z"/>
<path d="M12545 2060 c-90 -15 -239 -33 -280 -34 -31 -1 -42 -7 -52 -26 -16 -32 -16 -67 0 -77 6 -4 57 -10 112 -13 l100 -5 7 -40 c8 -47 12 -1001 4 -1013 -5 -8 -131 -25 -166 -23 -8 1 -56 4 -107 7 -64 4 -96 11 -105 21 -15 18 -27 232 -36 658 l-7 310 -24 50 c-35 70 -81 117 -148 151 l-58 29 -135 0 c-126 0 -139 -2 -200 -28 -88 -39 -211 -111 -240 -142 -12 -13 -27 -22 -31 -19 -5 3 -9 38 -9 77 0 40 -3 83 -7 96 l-6 24 -91 -7 c-111 -7 -329 -36 -337 -45 -13 -12 -19 -66 -9 -81 7 -11 35 -16 107 -20 92 -5 98 -7 110 -30 10 -19 12 -140 10 -535 l-2 -510 -68 2 c-63 2 -68 1 -79 -21 -6 -14 -8 -40 -4 -58 l6 -34 287 -2 c195 -1 291 2 300 10 7 6 13 28 13 49 0 50 -18 59 -120 59 l-81 0 -14 33 c-16 39 -17 87 -16 512 l1 330 53 39 c94 71 185 113 283 131 86 16 94 16 150 0 85 -24 128 -69 149 -154 13 -56 15 -127 13 -476 l-3 -410 -65 -6 c-36 -3 -71 -9 -78 -13 -16 -10 -15 -81 1 -95 12 -9 128 -10 597 -3 8 1 145 -1 303 -4 177 -2 295 0 306 6 23 12 32 65 15 88 -10 13 -33 18 -105 22 l-93 5 -20 50 c-18 47 -20 86 -25 603 -5 476 -8 554 -21 562 -17 11 -15 11 -85 0z"/>
<path d="M17089 2059 c-7 -5 -27 -9 -43 -9 -45 0 -153 -59 -218 -118 -56 -52 -138 -171 -153 -222 -4 -14 -12 -30 -17 -37 -11 -14 -39 -124 -58 -227 -15 -80 -7 -249 14 -299 7 -18 16 -50 20 -71 21 -109 151 -282 251 -332 107 -55 164 -69 275 -69 102 0 159 11 277 52 86 30 283 175 283 208 0 16 -43 55 -60 55 -7 0 -31 -15 -54 -33 -102 -81 -182 -108 -325 -110 -94 0 -116 3 -179 27 -39 15 -75 32 -78 37 -3 6 -16 14 -29 19 -26 10 -88 91 -122 160 -31 63 -56 164 -57 234 l-1 59 75 19 c41 11 93 23 115 28 22 5 61 16 85 24 25 9 54 16 65 16 11 1 38 8 60 16 22 9 69 22 104 30 36 8 69 18 75 23 6 5 29 12 51 16 21 3 51 12 65 20 14 7 43 16 65 20 43 7 96 32 107 48 20 32 -141 264 -227 326 -66 49 -144 81 -208 87 -29 2 -72 6 -98 9 -25 2 -52 -1 -60 -6z m134 -135 c25 -14 68 -49 95 -79 50 -55 107 -158 98 -180 -2 -7 -22 -15 -43 -18 -21 -2 -83 -17 -138 -32 -91 -24 -151 -40 -285 -76 -25 -6 -64 -17 -87 -24 -23 -7 -44 -11 -47 -7 -12 12 -5 75 15 140 64 201 160 300 290 302 43 0 68 -6 102 -26z"/>
<path d="M18068 2065 c-3 -3 -49 -10 -104 -16 -257 -27 -260 -28 -273 -56 -29 -64 -6 -83 107 -83 64 0 82 -3 96 -18 15 -17 16 -65 14 -538 l-3 -519 -52 3 c-71 5 -93 -9 -93 -58 0 -27 5 -42 18 -48 25 -13 569 -14 577 -1 13 20 16 68 6 87 -9 17 -23 20 -98 21 -47 0 -91 5 -96 10 -23 23 -31 128 -34 480 l-3 374 42 36 c140 120 339 183 459 145 68 -21 94 -45 128 -114 l26 -55 3 -429 c2 -286 -1 -433 -8 -440 -5 -5 -31 -9 -58 -7 -26 1 -60 -2 -75 -8 -23 -9 -27 -16 -27 -50 0 -21 6 -43 13 -49 18 -16 561 -14 580 1 22 18 29 61 13 83 -12 16 -29 19 -97 21 -68 2 -86 6 -103 23 l-21 20 -6 443 c-6 476 -9 499 -63 591 -56 95 -134 136 -281 145 -158 10 -249 -19 -417 -131 -54 -36 -100 -63 -103 -60 -3 3 -5 43 -5 88 0 62 -4 87 -16 98 -15 16 -36 21 -46 11z"/>
<path d="M28865 2060 c-90 -15 -239 -33 -280 -34 -31 -1 -42 -7 -52 -26 -16 -32 -16 -67 0 -77 6 -4 57 -10 112 -13 l100 -5 7 -40 c11 -68 11 -1006 -1 -1018 -6 -6 -34 -9 -63 -8 -33 1 -60 -4 -72 -12 -24 -18 -26 -75 -3 -92 21 -15 559 -20 587 -5 22 12 31 65 14 88 -10 13 -33 18 -105 22 l-93 5 -20 50 c-18 47 -20 86 -25 603 -5 476 -8 554 -21 562 -17 11 -15 11 -85 0z"/>
<path d="M33416 2063 c-6 -6 -181 -29 -279 -37 -26 -2 -50 -6 -53 -9 -3 -2 -7 -21 -11 -41 -9 -57 5 -66 109 -66 l89 0 19 -42 c18 -41 20 -71 20 -529 0 -378 -3 -489 -12 -496 -7 -6 -39 -9 -71 -7 l-57 4 -11 -27 c-6 -15 -8 -42 -4 -59 l5 -31 288 -1 c186 0 291 3 299 10 7 6 13 28 13 49 0 51 -21 61 -117 57 -112 -4 -108 -12 -116 274 -4 128 -7 315 -7 415 l0 181 30 24 c73 57 89 68 98 68 5 0 15 6 21 14 7 8 24 17 39 21 15 4 34 12 42 19 8 7 55 21 103 31 77 16 96 16 145 5 46 -11 65 -22 102 -60 71 -74 73 -91 78 -561 4 -456 7 -434 -71 -431 -23 1 -57 -3 -75 -9 -30 -10 -33 -14 -30 -47 5 -59 17 -62 326 -62 l272 0 0 60 0 60 -86 -1 c-50 -1 -90 3 -97 10 -23 23 -30 130 -34 506 -2 215 -8 413 -13 440 -8 52 -63 156 -97 187 -10 9 -45 29 -78 45 -49 22 -78 28 -155 31 -52 2 -121 -1 -153 -7 -74 -14 -203 -77 -290 -142 -37 -28 -71 -49 -74 -45 -3 3 -7 44 -7 91 -1 47 -6 89 -12 94 -11 11 -80 21 -88 14z"/>
<path d="M1852 2050 c-96 -20 -210 -100 -285 -198 -40 -53 -97 -160 -97 -183 0 -5 -7 -23 -15 -38 -8 -16 -24 -90 -36 -165 l-22 -137 22 -125 c22 -126 31 -156 79 -252 80 -160 250 -266 449 -279 68 -5 100 -1 195 22 62 16 118 32 123 36 6 4 37 22 70 39 33 17 90 61 127 97 71 71 75 85 25 112 -22 12 -29 9 -93 -37 -101 -73 -173 -95 -309 -94 -142 1 -211 26 -308 112 -77 68 -146 238 -159 389 l-3 35 60 12 c71 15 90 20 340 89 33 9 79 20 102 25 24 5 55 16 70 23 16 8 45 17 67 21 21 4 52 13 70 21 17 8 47 16 66 19 47 8 100 42 100 63 0 10 -23 56 -50 103 -67 114 -174 223 -260 263 -58 28 -75 31 -175 33 -60 2 -129 -1 -153 -6z m157 -114 c7 -8 22 -17 36 -20 55 -14 200 -211 179 -244 -8 -12 -100 -40 -309 -92 -27 -7 -86 -23 -129 -36 -44 -13 -89 -24 -100 -24 -12 0 -32 -7 -44 -16 -21 -14 -27 -11 -22 11 1 6 6 34 11 64 15 93 37 154 77 216 72 110 136 153 228 154 42 1 65 -4 73 -13z"/>
<path d="M13350 2046 c-138 -34 -287 -117 -347 -193 -88 -110 -107 -196 -55 -246 32 -30 68 -34 111 -13 44 23 67 71 104 211 13 51 13 51 97 88 58 25 177 38 235 24 62 -15 70 -20 106 -69 l29 -41 0 -129 0 -129 -37 -15 c-21 -8 -45 -18 -54 -23 -8 -5 -47 -21 -85 -36 -330 -131 -507 -269 -544 -426 -25 -102 3 -232 63 -297 56 -61 182 -95 267 -72 57 15 182 73 218 100 189 145 187 145 216 76 28 -66 149 -164 224 -180 22 -5 33 -1 53 21 46 52 89 112 89 125 0 7 -30 27 -68 44 -51 23 -74 40 -97 74 l-30 43 -6 426 c-6 464 -10 496 -65 568 -45 59 -99 76 -244 80 -80 1 -145 -2 -180 -11z m278 -789 l2 -167 -40 -55 c-73 -99 -225 -185 -326 -185 -33 0 -53 8 -86 33 -37 28 -44 40 -50 82 -11 73 1 134 37 190 37 57 61 81 125 121 70 44 209 108 257 118 17 4 37 14 44 22 28 34 34 7 37 -159z"/>
<path d="M26606 2044 c-32 -8 -86 -27 -120 -43 -70 -34 -189 -124 -227 -173 -59 -76 -99 -139 -105 -165 -4 -15 -13 -40 -20 -54 -14 -29 -31 -113 -39 -193 -3 -27 -7 -58 -11 -68 -3 -10 -1 -42 5 -71 5 -28 15 -83 21 -121 18 -112 79 -228 164 -312 85 -83 157 -123 282 -154 69 -17 106 -21 164 -17 72 5 199 39 230 61 8 6 41 24 72 40 87 45 207 172 256 271 40 82 76 213 86 320 6 60 -8 162 -37 275 -51 199 -232 374 -422 409 -80 15 -227 12 -299 -5z m209 -119 c28 -9 62 -24 77 -35 15 -11 31 -20 37 -20 14 0 90 -90 114 -135 65 -124 92 -238 92 -385 -1 -106 -21 -254 -40 -285 -7 -11 -15 -34 -19 -52 -10 -43 -109 -149 -167 -179 -42 -21 -64 -25 -151 -26 -96 -1 -108 1 -168 29 -162 77 -255 244 -268 485 -19 341 78 557 271 604 72 17 162 17 222 -1z"/>
<path d="M27960 2053 c-39 -6 -142 -44 -170 -62 -14 -9 -38 -23 -53 -31 -37 -18 -149 -131 -187 -186 -112 -167 -150 -417 -94 -630 61 -238 183 -371 409 -450 72 -25 259 -25 340 -1 119 37 241 105 323 181 38 36 40 55 9 84 -31 29 -39 28 -94 -14 -27 -20 -61 -42 -78 -49 -110 -47 -115 -48 -223 -48 -90 -1 -120 3 -173 23 -146 54 -245 166 -299 341 -30 100 -30 323 1 416 25 73 68 153 102 192 87 94 257 155 376 134 46 -9 44 -6 102 -128 32 -66 61 -99 110 -124 47 -25 71 -21 113 18 40 37 50 67 31 94 -8 12 -15 29 -15 38 0 21 -119 138 -164 161 -63 32 -146 48 -246 47 -52 -1 -106 -4 -120 -6z"/>
<path d="M29670 2046 c-138 -34 -287 -117 -347 -193 -88 -110 -107 -196 -55 -246 32 -30 68 -34 111 -13 44 23 67 71 104 211 13 51 13 51 97 88 58 25 177 38 235 24 62 -15 70 -20 106 -69 l29 -41 0 -129 0 -129 -37 -15 c-21 -8 -45 -18 -54 -23 -8 -5 -47 -21 -85 -36 -330 -131 -507 -269 -544 -426 -25 -102 3 -232 63 -297 56 -61 182 -95 267 -72 57 15 182 73 218 100 189 145 187 145 216 76 28 -67 149 -164 226 -181 33 -7 37 -4 105 88 42 56 44 74 9 83 -50 13 -112 54 -136 92 -34 51 -38 103 -38 512 -1 304 -3 355 -20 418 -37 147 -95 184 -290 189 -80 1 -145 -2 -180 -11z m278 -789 l2 -167 -40 -55 c-73 -99 -225 -185 -326 -185 -33 0 -53 8 -86 33 -37 28 -44 40 -50 82 -11 73 1 134 37 190 37 57 61 81 125 121 70 44 209 108 257 118 17 4 37 14 44 22 28 34 34 7 37 -159z"/>
<path d="M31380 2053 c-161 -15 -286 -37 -297 -51 -20 -24 -16 -70 6 -82 11 -5 58 -10 104 -10 69 0 87 -3 101 -18 15 -17 16 -65 14 -538 l-3 -519 -62 0 c-67 0 -78 -6 -88 -47 -5 -19 -1 -32 12 -45 18 -18 37 -19 303 -19 l285 1 9 27 c6 18 6 38 0 55 l-9 28 -90 3 c-55 1 -94 7 -101 15 -31 34 -34 84 -34 621 0 298 -3 551 -6 564 -6 19 -12 22 -58 20 -28 0 -67 -3 -86 -5z"/>
<path d="M32320 2046 c-308 -70 -523 -362 -524 -711 -1 -312 149 -543 411 -632 99 -34 245 -38 338 -10 267 80 466 295 506 547 12 79 12 241 -1 332 -16 111 -72 225 -156 316 -72 79 -186 144 -278 161 -78 14 -226 13 -296 -3z m197 -122 c227 -66 350 -331 316 -679 -17 -174 -50 -263 -127 -343 -65 -69 -131 -94 -251 -95 -90 0 -106 3 -160 29 -128 61 -221 200 -256 383 -48 245 5 513 124 629 83 82 228 113 354 76z"/>
<path d="M8555 2020 l-260 -5 -9 -38 c-12 -49 -2 -58 73 -66 55 -5 62 -9 84 -42 14 -21 28 -48 32 -60 4 -13 13 -31 20 -39 7 -8 16 -26 20 -40 4 -14 13 -32 20 -40 7 -8 15 -24 18 -35 3 -11 27 -69 52 -130 58 -134 83 -196 103 -255 8 -25 20 -52 27 -60 6 -8 16 -31 22 -50 11 -33 21 -61 74 -192 12 -29 27 -71 35 -93 8 -22 18 -49 23 -60 5 -11 17 -42 26 -68 18 -50 52 -81 78 -72 14 6 39 51 73 130 30 71 64 154 85 210 13 33 27 66 33 73 5 7 17 34 26 60 27 74 86 210 97 224 6 7 14 24 18 38 8 32 76 191 126 298 22 45 39 88 40 95 0 6 13 32 28 57 l27 45 61 3 c37 2 66 8 73 17 15 18 2 83 -19 93 -9 4 -128 5 -265 2 l-250 -5 -9 -34 c-13 -53 6 -65 116 -71 l92 -5 3 -38 c2 -21 -6 -71 -18 -110 -42 -140 -103 -312 -116 -328 -8 -8 -14 -21 -14 -29 0 -14 -35 -98 -91 -217 -22 -46 -39 -86 -39 -91 0 -5 -9 -17 -19 -26 l-19 -18 -31 65 c-17 36 -31 69 -31 73 0 5 -7 22 -16 39 -8 16 -27 59 -41 95 -14 36 -33 83 -43 105 -10 22 -28 65 -40 95 -13 30 -31 73 -41 95 -57 127 -110 269 -105 281 4 10 24 14 68 14 79 0 106 7 113 30 10 30 -24 96 -45 88 -3 -2 -122 -5 -265 -8z"/>
</g>
</g>
</svg>
