<?xml version="1.0" standalone="no"?>
<!DOCTYPE svg PUBLIC "-//W3C//DTD SVG 1.1//EN"
 "http://www.w3.org/Graphics/SVG/1.1/DTD/svg11.dtd">
<!-- Created with svg_stack (http://github.com/astraw/svg_stack) -->
<svg xmlns:sodipodi="http://sodipodi.sourceforge.net/DTD/sodipodi-0.dtd" xmlns="http://www.w3.org/2000/svg" version="1.1" width="2400.0" height="1200.0">
  <defs/>
  <g id="id0:id0" transform="matrix(1.25,0,0,1.25,0.0,0.0)"><g transform="translate(0.000000,960.000000) scale(0.040000,-0.040000)" fill="#ffffff" stroke="none">
<path d="M0 12000 l0 -12000 24000 0 24000 0 0 12000 0 12000 -24000 0 -24000 0 0 -12000z m24058 11051 c58 -30 159 -76 257 -116 50 -21 99 -44 110 -51 11 -8 27 -14 36 -14 9 0 22 -6 28 -14 7 -8 27 -18 44 -22 18 -3 43 -15 56 -25 13 -11 29 -19 35 -19 15 0 282 -116 344 -150 9 -5 62 -28 117 -51 55 -22 107 -45 115 -50 8 -5 26 -14 40 -20 14 -7 58 -27 99 -46 40 -19 91 -41 113 -49 23 -8 68 -27 102 -43 124 -59 232 -108 286 -130 64 -27 104 -45 220 -100 47 -22 114 -52 150 -67 60 -24 103 -44 276 -125 34 -16 79 -35 102 -43 35 -13 154 -66 222 -101 14 -6 75 -33 135 -60 136 -58 168 -73 275 -123 47 -23 114 -52 150 -67 98 -40 131 -54 171 -76 20 -10 42 -19 49 -19 6 0 24 -8 38 -19 15 -10 78 -39 141 -64 62 -25 118 -50 124 -56 6 -6 16 -11 22 -11 6 0 27 -9 47 -20 20 -11 81 -38 135 -61 102 -42 140 -60 283 -127 47 -22 117 -53 155 -68 39 -14 79 -33 90 -40 11 -8 27 -14 36 -14 9 0 22 -6 28 -14 7 -8 27 -18 44 -22 18 -3 44 -15 59 -25 14 -11 29 -19 33 -19 9 0 307 -130 320 -140 6 -4 62 -29 125 -55 63 -26 122 -51 130 -56 8 -5 26 -14 40 -21 14 -6 66 -30 115 -54 50 -23 116 -52 149 -63 32 -12 68 -28 80 -36 11 -8 28 -15 37 -15 9 0 22 -6 28 -14 7 -8 27 -18 44 -22 18 -3 43 -15 56 -25 13 -11 28 -19 33 -19 6 0 24 -6 41 -14 18 -8 61 -26 97 -41 36 -15 115 -51 175 -80 61 -29 144 -65 185 -81 41 -15 86 -36 99 -46 13 -10 31 -18 40 -18 9 0 26 -6 37 -14 11 -8 64 -33 119 -56 101 -42 152 -65 280 -126 39 -18 104 -47 145 -64 41 -17 84 -35 95 -40 11 -5 31 -14 45 -20 14 -5 32 -14 40 -19 18 -11 94 -46 200 -91 41 -17 102 -44 135 -60 215 -99 283 -130 290 -130 4 0 37 -14 74 -31 36 -18 86 -41 111 -52 25 -11 52 -24 60 -29 25 -14 52 -26 122 -52 36 -14 79 -32 95 -40 66 -34 208 -99 353 -161 85 -37 160 -71 165 -75 6 -5 34 -18 64 -30 78 -31 122 -50 321 -143 41 -19 104 -47 140 -61 68 -28 91 -38 230 -104 47 -23 130 -60 185 -82 55 -23 145 -64 200 -90 123 -59 243 -110 260 -110 7 0 18 -6 24 -14 7 -8 24 -17 39 -21 15 -4 35 -14 46 -23 17 -16 251 -17 3307 -22 l3290 -5 -1 -967 c0 -769 2 -968 12 -975 7 -4 748 -10 1646 -13 l1632 -5 0 -6985 c0 -3841 -4 -6988 -8 -6992 -4 -4 -9170 -7 -20368 -6 l-20359 3 0 6990 0 6990 1629 3 c1180 1 1633 5 1642 13 12 9 14 183 16 978 l3 966 3280 5 c3016 5 3283 6 3315 21 19 9 46 22 60 28 14 6 32 15 40 19 32 18 201 94 270 122 47 19 207 92 250 115 14 7 66 29 115 49 50 21 131 56 180 80 50 24 135 62 190 86 125 53 137 58 155 68 8 5 38 19 65 31 28 12 67 31 87 42 20 10 41 19 47 19 5 0 47 18 93 39 46 22 95 43 110 46 15 4 32 13 39 21 6 8 19 14 28 14 9 0 26 7 38 15 13 9 66 34 120 56 54 22 139 60 188 84 50 24 119 55 155 70 58 24 118 51 260 116 94 43 127 58 175 77 62 24 95 39 115 50 8 5 35 18 60 29 25 11 70 32 100 46 30 14 78 35 107 46 28 11 89 38 135 59 120 57 183 86 268 121 82 35 107 46 130 59 8 5 38 19 65 31 28 13 68 31 90 42 71 33 137 59 150 59 7 0 23 8 36 19 13 10 38 22 56 25 17 4 37 14 44 22 6 8 17 14 23 14 7 0 48 17 91 39 44 21 91 42 105 46 14 4 77 32 140 62 63 30 153 70 200 89 47 20 126 55 175 78 121 58 253 116 262 116 7 0 161 72 226 105 16 8 59 27 95 41 70 26 97 38 122 52 8 5 35 18 60 30 25 11 70 31 100 45 30 14 100 45 155 68 55 23 107 48 116 55 8 8 21 14 28 14 7 0 49 17 94 38 45 21 105 48 132 59 66 27 97 41 115 51 8 5 38 19 65 31 28 12 63 29 78 37 16 8 59 26 95 40 70 26 97 38 122 52 15 9 31 16 170 80 36 16 88 38 115 47 28 10 57 24 65 31 8 6 26 15 40 19 14 4 57 23 95 42 39 19 108 50 155 69 47 20 126 54 175 78 132 63 278 126 291 126 6 0 22 8 35 19 13 10 38 22 56 25 17 4 37 14 44 22 6 8 19 14 28 14 9 0 30 9 46 20 17 11 35 20 42 20 6 0 49 18 95 39 45 22 95 43 110 46 15 4 32 13 39 21 6 8 19 14 28 14 9 0 25 6 36 14 11 7 65 32 120 56 95 39 151 65 290 131 33 15 89 40 125 54 36 14 103 44 150 66 171 83 256 119 275 119 7 0 23 8 36 19 13 10 38 22 56 25 17 4 37 14 44 22 6 8 19 14 28 14 9 0 26 6 37 14 11 8 62 31 112 51 51 21 95 41 98 46 3 5 13 9 23 9 10 0 30 9 44 20 14 11 31 20 39 20 7 0 27 7 43 16 17 9 77 36 135 61 58 24 141 61 185 82 103 49 264 118 292 126 11 3 27 12 33 20 16 20 34 19 78 -4z"/>
<path d="M23980 22315 c-6 -8 -22 -17 -33 -21 -35 -10 -153 -61 -267 -116 -171 -81 -182 -86 -260 -119 -41 -17 -120 -53 -175 -79 -55 -26 -145 -67 -200 -90 -114 -48 -134 -57 -155 -68 -8 -5 -35 -18 -60 -29 -25 -12 -63 -30 -85 -40 -22 -11 -85 -39 -140 -62 -120 -51 -136 -58 -155 -70 -8 -5 -42 -21 -75 -36 -33 -15 -71 -33 -85 -40 -14 -7 -70 -31 -125 -55 -115 -48 -134 -57 -155 -68 -8 -5 -35 -18 -60 -30 -152 -70 -221 -101 -265 -119 -69 -29 -97 -41 -115 -52 -8 -5 -42 -21 -75 -36 -33 -15 -71 -33 -85 -40 -14 -7 -70 -31 -125 -55 -115 -48 -134 -57 -155 -68 -8 -5 -35 -18 -60 -30 -140 -64 -182 -83 -244 -111 -38 -17 -74 -31 -81 -31 -7 0 -23 -8 -36 -19 -13 -10 -38 -22 -56 -25 -17 -4 -37 -14 -44 -22 -6 -8 -17 -14 -23 -14 -6 0 -23 -7 -39 -15 -15 -7 -76 -35 -135 -60 -137 -60 -144 -63 -162 -74 -25 -14 -157 -75 -275 -126 -135 -58 -146 -63 -165 -73 -8 -5 -35 -18 -60 -29 -25 -12 -63 -30 -85 -40 -22 -11 -85 -39 -140 -62 -116 -50 -135 -58 -155 -69 -8 -5 -35 -18 -60 -29 -25 -12 -63 -30 -85 -40 -22 -11 -78 -36 -125 -56 -112 -47 -152 -65 -170 -75 -8 -5 -35 -18 -60 -29 -25 -11 -70 -32 -100 -46 -74 -35 -210 -93 -237 -101 -11 -4 -27 -13 -33 -21 -7 -8 -23 -15 -35 -15 -12 0 -34 -9 -48 -20 -14 -11 -30 -20 -36 -20 -6 0 -32 -11 -58 -25 -27 -14 -86 -41 -133 -60 -93 -40 -117 -51 -140 -63 -8 -5 -37 -19 -65 -31 -27 -13 -72 -34 -100 -47 -102 -49 -208 -94 -220 -94 -7 0 -24 -9 -38 -20 -14 -11 -34 -20 -45 -20 -10 0 -31 -9 -45 -20 -14 -11 -31 -20 -39 -20 -7 0 -23 -7 -34 -15 -12 -8 -70 -35 -130 -60 -111 -47 -138 -58 -164 -73 -8 -5 -35 -18 -60 -29 -25 -11 -79 -37 -121 -57 -41 -20 -79 -36 -83 -36 -4 0 -31 -11 -59 -24 -29 -13 -63 -29 -77 -35 -14 -6 -32 -15 -40 -19 -8 -5 -35 -18 -60 -29 -25 -11 -74 -34 -110 -51 -36 -17 -96 -44 -135 -60 -92 -39 -117 -50 -135 -60 -8 -5 -35 -18 -60 -29 -25 -11 -70 -32 -100 -47 -110 -52 -213 -96 -225 -96 -7 0 -24 -9 -38 -20 -14 -11 -34 -20 -45 -20 -10 0 -31 -9 -45 -20 -14 -11 -31 -20 -39 -20 -7 0 -23 -7 -34 -15 -12 -8 -70 -35 -130 -60 -111 -47 -138 -58 -164 -73 -8 -5 -37 -19 -65 -31 -27 -12 -66 -31 -85 -41 -19 -10 -87 -39 -150 -65 -63 -26 -122 -53 -131 -61 -8 -8 -21 -14 -28 -14 -7 0 -29 -8 -49 -19 -75 -38 -149 -72 -247 -112 -55 -23 -107 -47 -116 -55 -8 -8 -21 -14 -28 -14 -7 0 -29 -8 -49 -19 -75 -38 -149 -72 -247 -112 -55 -23 -107 -47 -115 -54 -8 -7 -30 -16 -47 -20 -18 -3 -35 -11 -39 -16 -3 -5 -21 -16 -41 -24 -31 -13 -430 -15 -3253 -15 -2925 0 -3218 -1 -3224 -16 -3 -9 -6 -422 -6 -919 0 -514 -4 -906 -9 -909 -5 -3 -707 -6 -1560 -6 l-1551 0 -10 -20 c-14 -26 -14 -12934 0 -12961 l11 -19 19627 0 c17748 0 19630 1 19650 16 l22 15 0 6468 c0 6005 -1 6470 -17 6482 -13 12 -272 15 -1562 19 l-1546 5 -5 905 c-3 498 -9 913 -14 923 -8 16 -169 17 -3217 17 l-3210 0 -41 20 c-23 11 -45 20 -50 20 -4 0 -37 14 -71 30 -35 17 -69 30 -74 30 -6 0 -16 6 -22 14 -7 8 -24 17 -39 21 -15 3 -67 26 -117 50 -49 24 -128 60 -175 80 -47 20 -105 46 -130 58 -25 11 -65 30 -90 40 -25 11 -52 24 -60 29 -24 13 -50 25 -130 58 -41 17 -104 45 -140 62 -36 17 -85 40 -110 51 -53 24 -74 34 -97 47 -10 5 -52 23 -93 41 -41 17 -101 44 -133 60 -32 16 -64 29 -71 29 -7 0 -19 6 -25 14 -7 8 -27 18 -44 22 -18 3 -43 15 -56 25 -13 11 -28 19 -33 19 -10 0 -133 52 -228 97 -30 15 -75 35 -100 46 -25 11 -52 24 -60 29 -26 15 -53 26 -164 73 -60 25 -118 52 -130 60 -11 8 -28 15 -37 15 -9 0 -22 6 -28 14 -7 8 -27 18 -44 22 -18 3 -43 15 -56 25 -13 11 -28 19 -33 19 -15 0 -201 81 -301 132 -9 4 -84 38 -165 74 -81 36 -172 77 -202 92 -30 14 -75 34 -100 45 -25 11 -52 24 -60 29 -26 14 -52 26 -160 72 -58 24 -118 51 -135 59 -16 9 -52 26 -80 38 -27 12 -57 26 -65 31 -24 13 -50 25 -130 58 -41 17 -104 45 -140 62 -36 17 -85 40 -110 51 -25 11 -52 24 -60 29 -26 15 -53 26 -162 72 -59 25 -115 50 -125 55 -53 29 -208 101 -216 101 -5 0 -37 13 -71 29 -141 67 -196 91 -204 91 -5 0 -15 6 -21 14 -7 8 -27 18 -44 22 -18 3 -43 15 -56 25 -13 11 -29 19 -36 19 -7 0 -43 14 -81 31 -199 90 -283 129 -304 141 -21 11 -40 20 -155 68 -55 24 -111 48 -125 55 -84 43 -131 65 -141 65 -6 0 -22 9 -36 20 -14 11 -33 20 -41 20 -8 0 -38 11 -66 24 -28 13 -82 39 -121 56 -38 18 -111 52 -161 76 -51 24 -95 44 -99 44 -4 0 -40 16 -81 35 -41 19 -100 47 -132 61 -31 14 -93 43 -137 64 -44 21 -125 57 -180 81 -55 23 -116 50 -135 61 -19 10 -40 18 -46 18 -6 0 -17 6 -23 14 -7 8 -27 18 -44 22 -18 3 -43 15 -56 25 -13 11 -29 19 -36 19 -7 0 -43 14 -81 31 -38 17 -98 44 -134 60 -36 17 -73 34 -83 40 -10 5 -79 37 -155 70 -161 71 -238 107 -347 159 -44 21 -105 48 -135 60 -30 12 -73 30 -95 40 -221 105 -274 130 -280 130 -8 0 -71 29 -305 139 -58 27 -139 63 -180 81 -41 17 -93 40 -115 50 -214 103 -274 130 -280 130 -5 0 -31 11 -59 24 -28 13 -71 33 -96 44 -49 21 -140 66 -180 88 -32 18 -55 18 -70 -1z m75 -579 c11 -7 31 -17 45 -21 31 -9 115 -47 355 -160 150 -71 182 -85 189 -85 3 0 63 -27 131 -60 68 -33 130 -60 136 -60 6 0 22 -9 36 -20 14 -11 33 -20 42 -20 9 0 25 -6 36 -14 11 -7 31 -17 45 -21 14 -4 81 -34 149 -66 67 -33 128 -59 135 -59 7 0 16 -4 21 -9 6 -5 66 -34 135 -64 69 -30 139 -62 155 -70 59 -31 205 -97 212 -97 5 0 26 -9 48 -19 22 -11 65 -31 95 -45 86 -39 228 -105 307 -142 40 -19 76 -34 81 -34 4 0 39 -15 78 -34 67 -33 146 -70 286 -135 37 -17 71 -31 76 -31 4 0 39 -15 78 -34 106 -52 232 -110 304 -141 67 -28 93 -40 270 -123 58 -27 139 -64 180 -82 94 -40 160 -70 275 -125 138 -65 203 -95 210 -95 4 0 35 -13 69 -29 210 -99 258 -121 316 -146 67 -28 80 -34 283 -129 65 -31 124 -56 132 -56 7 0 18 -6 24 -14 7 -8 24 -17 38 -21 26 -6 67 -24 238 -105 171 -81 215 -100 225 -100 6 0 28 -9 48 -20 44 -23 252 -120 258 -120 4 0 85 -36 179 -81 153 -71 251 -116 320 -145 44 -19 98 -43 120 -54 141 -67 260 -122 325 -149 41 -18 93 -40 115 -51 139 -67 260 -122 325 -149 83 -35 86 -36 250 -114 63 -30 149 -69 190 -87 41 -17 93 -40 115 -50 121 -58 257 -120 261 -120 4 0 82 -35 179 -81 149 -69 266 -123 370 -169 66 -29 161 -72 210 -95 50 -24 128 -59 175 -79 47 -20 103 -45 125 -56 106 -51 257 -120 261 -120 7 0 92 -38 304 -138 152 -71 246 -112 257 -112 5 0 27 -11 47 -25 l37 -25 3030 -2 3030 -3 -1 -903 c0 -615 3 -909 10 -922 l11 -20 1552 0 1552 0 0 -5980 0 -5980 -19130 0 c-10521 0 -19133 4 -19137 8 -4 4 -7 2694 -6 5978 l3 5969 1563 3 c859 1 1563 3 1564 5 2 1 5 416 8 922 l5 920 3031 5 c2869 5 3033 6 3051 23 11 9 25 17 32 17 7 0 30 8 50 19 56 29 179 86 251 116 83 35 141 61 260 118 52 25 129 60 170 77 41 18 113 50 160 72 141 65 183 84 305 138 28 13 93 43 145 67 145 67 150 70 223 102 37 17 69 31 72 31 3 0 54 23 113 50 224 106 299 140 306 140 5 0 52 22 281 130 92 43 152 70 158 70 5 0 117 52 282 130 78 37 175 80 180 80 5 0 135 61 270 126 28 13 53 24 57 24 7 0 167 73 373 170 76 36 154 70 159 70 4 0 54 23 114 51 59 27 130 61 157 74 87 41 164 75 169 75 2 0 58 25 123 55 159 75 190 89 243 113 25 11 71 32 102 46 127 57 215 97 248 115 19 10 49 22 67 25 17 4 37 14 44 22 6 8 18 14 26 14 7 0 71 27 141 60 166 79 195 92 272 125 36 15 121 54 190 87 135 65 152 73 250 114 78 33 281 127 332 154 20 11 44 20 53 20 9 0 29 8 43 19 15 10 38 22 52 26 14 4 77 32 140 62 144 68 179 84 260 118 36 16 108 48 160 73 52 24 129 60 170 79 41 18 88 40 103 48 16 8 33 15 38 15 8 0 143 62 304 140 22 11 69 32 105 46 36 14 108 47 160 71 52 25 124 58 160 74 36 16 83 38 105 49 22 11 43 20 47 20 8 0 245 110 298 139 19 10 49 22 67 25 17 4 37 14 44 22 6 8 17 14 25 14 7 0 65 25 128 55 62 29 190 88 284 129 93 41 178 79 188 85 11 6 48 23 84 40 36 16 96 43 134 60 38 17 74 31 81 31 7 0 24 9 38 20 14 11 31 20 39 20 7 1 65 27 128 60 118 60 161 70 195 46z"/>
<path d="M9895 15270 l-725 -725 0 -2035 0 -2035 602 -602 603 -603 1145 0 1145 0 138 -139 137 -138 0 -839 0 -838 -178 -178 -178 -178 -259 0 -260 0 -182 183 -183 184 0 646 c0 469 -3 653 -12 672 l-11 25 -1276 -2 -1276 -3 -3 -1190 -2 -1190 727 -727 728 -728 1750 0 1750 0 722 723 723 722 0 2065 0 2065 -603 602 -602 603 -1145 0 -1145 0 -135 135 -135 135 -5 808 -5 807 185 188 184 187 226 0 225 0 183 -183 182 -182 2 -550 3 -550 1285 0 1285 0 3 1070 2 1070 -723 723 -722 722 -1723 3 -1722 2 -725 -725z"/>
<path d="M16690 15355 c-107 -19 -150 -31 -211 -61 -262 -131 -365 -345 -400 -829 -12 -172 -6 -593 11 -705 5 -36 12 -85 15 -110 11 -81 57 -233 93 -307 51 -105 148 -207 248 -260 174 -92 411 -116 679 -69 57 10 157 50 214 84 75 45 139 106 191 183 44 64 108 235 121 324 4 33 14 96 21 140 17 112 17 741 0 860 -27 189 -32 212 -62 300 -55 160 -142 278 -263 355 -44 28 -201 87 -237 89 -8 0 -40 5 -70 10 -78 13 -261 11 -350 -4z m306 -405 c47 -45 68 -93 91 -205 15 -79 18 -148 18 -555 0 -472 -5 -549 -40 -668 -17 -57 -62 -115 -106 -138 -15 -8 -55 -14 -89 -14 -51 0 -67 4 -96 27 -98 74 -124 243 -124 787 0 315 11 523 30 599 22 84 53 147 88 178 l35 31 78 -4 c73 -3 80 -5 115 -38z"/>
<path d="M18188 15319 c-17 -9 -18 -58 -18 -798 0 -483 4 -830 11 -897 11 -120 38 -225 75 -294 13 -25 24 -49 24 -53 0 -5 22 -34 49 -64 132 -147 291 -210 556 -220 136 -5 179 -1 350 35 84 18 245 116 290 176 58 77 112 193 136 293 l24 98 0 865 0 865 -258 3 c-166 1 -265 -1 -277 -8 l-20 -11 0 -865 c0 -912 0 -923 -46 -995 -48 -76 -149 -102 -239 -60 -50 23 -70 45 -92 101 -17 42 -18 113 -23 940 l-5 895 -260 2 c-164 2 -266 -1 -277 -8z"/>
<path d="M20068 15319 c-16 -9 -18 -31 -18 -219 0 -197 1 -210 19 -220 12 -6 106 -10 235 -10 123 0 217 -4 221 -9 3 -6 5 -415 5 -910 l0 -900 20 -11 c12 -7 110 -9 277 -8 l258 3 5 915 5 915 235 5 235 5 0 225 0 225 -740 2 c-490 2 -746 -1 -757 -8z"/>
<path d="M21995 15318 c-3 -7 -4 -524 -3 -1148 l3 -1135 258 -3 c165 -1 265 1 277 8 l20 11 2 482 3 482 205 0 205 0 3 -482 2 -482 20 -11 c12 -7 112 -9 277 -8 l258 3 0 1145 0 1145 -258 3 c-165 1 -265 -1 -277 -8 l-20 -11 -2 -407 -3 -407 -199 -3 c-110 -1 -203 1 -208 6 -5 5 -9 191 -8 414 l0 406 -22 6 c-13 3 -137 6 -276 6 -193 0 -254 -3 -257 -12z"/>
<path d="M16070 12461 c-12 -23 -14 -1589 -2 -1608 6 -10 149 -13 638 -15 l629 -3 5 -2995 c3 -1647 9 -3001 13 -3007 6 -10 192 -13 875 -13 477 0 873 4 879 8 10 7 13 623 15 3008 l3 2999 635 5 635 5 3 818 2 817 -2160 0 -2159 0 -11 -19z"/>
<path d="M22765 12468 c-1215 -6 -1708 -11 -1727 -19 l-28 -11 0 -3815 c0 -3123 2 -3815 13 -3819 21 -8 1740 12 1759 20 17 8 18 91 20 1490 l3 1481 150 0 150 0 7 -45 c3 -25 13 -65 22 -89 9 -24 16 -53 16 -65 0 -11 7 -41 16 -66 15 -42 23 -73 58 -222 8 -31 21 -76 29 -100 8 -24 19 -65 25 -93 5 -27 14 -63 20 -80 10 -29 37 -133 48 -185 3 -14 14 -54 24 -90 26 -94 40 -148 54 -210 13 -54 29 -112 67 -241 10 -36 19 -73 19 -82 0 -9 9 -45 19 -79 53 -175 61 -206 61 -226 0 -12 9 -44 20 -72 11 -28 20 -62 20 -75 0 -14 8 -51 19 -82 10 -32 28 -94 39 -138 11 -44 28 -107 37 -140 9 -33 20 -78 25 -100 4 -22 14 -60 23 -85 9 -25 17 -55 17 -68 0 -13 9 -51 20 -85 10 -34 29 -98 41 -142 13 -44 26 -88 31 -98 8 -16 61 -17 894 -17 767 0 885 2 890 15 6 16 -20 131 -42 184 -8 18 -14 43 -14 55 0 12 -9 49 -19 82 -18 54 -28 90 -77 259 -9 33 -22 85 -29 115 -7 30 -17 69 -23 85 -13 39 -48 158 -62 215 -7 25 -20 74 -30 110 -11 36 -24 85 -30 110 -7 25 -20 72 -31 105 -11 33 -19 67 -19 75 0 15 -27 111 -61 211 -11 31 -19 65 -19 75 0 10 -9 47 -20 82 -11 34 -29 90 -40 125 -11 34 -20 69 -20 77 0 8 -9 44 -19 80 -10 36 -29 101 -41 145 -12 44 -29 100 -37 125 -9 25 -19 63 -23 85 -5 22 -20 81 -35 130 -15 50 -32 108 -37 130 -5 22 -16 61 -25 87 -8 26 -21 73 -28 105 -24 102 -52 198 -63 220 -7 12 -12 43 -12 69 l0 47 375 375 375 376 0 1351 0 1350 -503 503 -502 502 -45 -2 c-25 -1 -810 -5 -1745 -10z m893 -1472 l122 -124 0 -732 0 -731 -119 -122 -120 -122 -368 0 -368 0 -3 965 c-1 531 0 971 3 978 3 9 86 12 368 12 l364 0 121 -124z"/>
<path d="M27135 12472 c-5 -4 -232 -230 -502 -503 l-493 -494 0 -2830 0 -2830 498 -498 498 -497 1222 2 1222 3 490 490 490 490 0 2840 0 2840 -498 497 -497 498 -1210 0 c-666 0 -1214 -4 -1220 -8z m1528 -1590 l127 -129 0 -2109 -1 -2109 -124 -125 -125 -125 -186 -3 -187 -3 -123 123 -124 124 0 2119 0 2119 123 123 123 123 185 0 185 0 127 -128z"/>
<path d="M31236 12458 c-8 -30 -8 -7602 0 -7622 6 -14 84 -16 785 -16 l779 0 5 23 c3 12 6 883 8 1935 1 1262 5 1912 12 1913 9 1 28 -46 75 -181 7 -19 18 -49 25 -66 7 -17 46 -126 85 -244 40 -117 79 -225 86 -239 8 -14 14 -34 14 -44 0 -10 9 -35 20 -57 11 -22 20 -47 20 -57 0 -10 7 -31 15 -46 8 -16 21 -50 29 -75 8 -26 43 -126 76 -222 34 -96 69 -197 77 -225 9 -27 22 -59 29 -70 8 -11 14 -29 14 -40 0 -11 8 -37 19 -58 10 -20 22 -54 26 -74 4 -21 10 -42 15 -48 4 -5 33 -84 63 -175 77 -228 77 -230 98 -278 11 -23 19 -50 19 -60 0 -9 6 -29 14 -44 8 -15 21 -52 30 -82 9 -30 21 -58 26 -61 6 -3 10 -18 10 -32 0 -14 8 -41 17 -60 16 -34 85 -228 103 -288 13 -46 49 -146 66 -182 7 -17 14 -39 14 -50 0 -10 8 -34 19 -53 10 -19 22 -51 26 -70 4 -19 12 -44 18 -55 6 -11 17 -38 23 -60 7 -22 40 -119 74 -215 34 -96 68 -195 76 -220 8 -24 24 -66 36 -92 l22 -48 742 0 c408 0 749 3 758 6 15 6 16 352 16 3830 l0 3824 -779 0 c-641 0 -781 -2 -790 -13 -8 -10 -12 -528 -13 -1908 -2 -1256 -6 -1893 -13 -1891 -5 1 -16 21 -24 45 -8 23 -23 60 -33 83 -10 22 -18 46 -18 53 0 7 -7 27 -15 44 -8 18 -21 50 -29 72 -8 22 -26 72 -41 110 -14 39 -30 84 -35 100 -15 50 -50 148 -65 180 -7 17 -17 44 -21 60 -4 17 -10 35 -14 40 -9 12 -87 235 -99 281 -5 18 -16 42 -25 55 -9 13 -16 33 -16 44 0 11 -7 34 -16 50 -9 17 -31 75 -49 130 -54 160 -57 168 -76 213 -11 23 -19 50 -19 60 0 9 -7 31 -16 47 -9 17 -22 48 -29 70 -8 22 -32 92 -55 155 -23 63 -48 136 -55 163 -8 26 -21 57 -29 69 -9 12 -16 32 -16 43 0 11 -7 33 -15 49 -15 28 -87 227 -106 293 -5 18 -16 45 -24 60 -8 15 -15 35 -15 43 0 8 -7 29 -16 45 -8 17 -28 68 -44 115 -45 133 -70 202 -86 237 -7 17 -14 39 -14 50 0 10 -7 32 -16 48 -9 17 -22 48 -29 70 -7 22 -25 72 -39 110 -15 39 -40 111 -56 160 -17 50 -36 101 -44 115 -8 14 -17 41 -21 60 -4 19 -13 44 -20 55 -7 11 -16 36 -20 55 -4 19 -13 45 -21 58 l-14 22 -744 0 -744 0 -6 -22z"/>
<path d="M37335 12472 c-5 -4 -229 -228 -497 -498 l-488 -489 0 -2840 0 -2840 493 -493 493 -492 1222 2 1222 3 495 495 495 495 0 1620 c0 891 -4 1626 -8 1633 -7 10 -246 12 -1163 10 l-1154 -3 0 -750 0 -750 270 -5 270 -5 3 -545 2 -545 -122 -122 -123 -122 -182 -2 c-106 0 -189 4 -200 10 -10 5 -67 60 -128 121 l-110 110 -3 2142 -2 2141 127 129 128 128 184 1 184 1 124 -124 123 -123 0 -377 c0 -207 3 -383 6 -392 6 -14 93 -16 884 -16 791 0 878 2 884 16 3 9 6 345 6 747 l0 732 -503 502 -502 503 -1210 0 c-666 0 -1214 -4 -1220 -8z"/>
</g>
</g>
  <g id="id1:id1" transform="matrix(1.25,0,0,1.25,0.0,0.0)"><g transform="translate(0.000000,960.000000) scale(0.040000,-0.040000)" fill="#00498e" stroke="none">
<path d="M23980 23070 c0 -5 5 -10 10 -10 6 0 10 5 10 10 0 6 -4 10 -10 10 -5 0 -10 -4 -10 -10z"/>
<path d="M24060 23050 c0 -5 5 -10 10 -10 6 0 10 5 10 10 0 6 -4 10 -10 10 -5 0 -10 -4 -10 -10z"/>
<path d="M24120 23030 c0 -5 5 -10 10 -10 6 0 10 5 10 10 0 6 -4 10 -10 10 -5 0 -10 -4 -10 -10z"/>
<path d="M24480 22870 c0 -5 5 -10 10 -10 6 0 10 5 10 10 0 6 -4 10 -10 10 -5 0 -10 -4 -10 -10z"/>
<path d="M23320 22770 c0 -5 5 -10 10 -10 6 0 10 5 10 10 0 6 -4 10 -10 10 -5 0 -10 -4 -10 -10z"/>
<path d="M23260 22750 c0 -5 5 -10 10 -10 6 0 10 5 10 10 0 6 -4 10 -10 10 -5 0 -10 -4 -10 -10z"/>
<path d="M23180 22710 c0 -5 5 -10 10 -10 6 0 10 5 10 10 0 6 -4 10 -10 10 -5 0 -10 -4 -10 -10z"/>
<path d="M24920 22670 c0 -5 5 -10 10 -10 6 0 10 5 10 10 0 6 -4 10 -10 10 -5 0 -10 -4 -10 -10z"/>
<path d="M22820 22550 c0 -5 5 -10 10 -10 6 0 10 5 10 10 0 6 -4 10 -10 10 -5 0 -10 -4 -10 -10z"/>
<path d="M22540 22430 c0 -5 5 -10 10 -10 6 0 10 5 10 10 0 6 -4 10 -10 10 -5 0 -10 -4 -10 -10z"/>
<path d="M25640 22350 c0 -5 5 -10 10 -10 6 0 10 5 10 10 0 6 -4 10 -10 10 -5 0 -10 -4 -10 -10z"/>
<path d="M24120 22270 c0 -5 5 -10 10 -10 6 0 10 5 10 10 0 6 -4 10 -10 10 -5 0 -10 -4 -10 -10z"/>
<path d="M22160 22250 c0 -5 5 -10 10 -10 6 0 10 5 10 10 0 6 -4 10 -10 10 -5 0 -10 -4 -10 -10z"/>
<path d="M23760 22210 c0 -5 5 -10 10 -10 6 0 10 5 10 10 0 6 -4 10 -10 10 -5 0 -10 -4 -10 -10z"/>
<path d="M24300 22190 c0 -5 5 -10 10 -10 6 0 10 5 10 10 0 6 -4 10 -10 10 -5 0 -10 -4 -10 -10z"/>
<path d="M26000 22190 c0 -5 5 -10 10 -10 6 0 10 5 10 10 0 6 -4 10 -10 10 -5 0 -10 -4 -10 -10z"/>
<path d="M23680 22170 c0 -5 5 -10 10 -10 6 0 10 5 10 10 0 6 -4 10 -10 10 -5 0 -10 -4 -10 -10z"/>
<path d="M23600 22130 c0 -5 5 -10 10 -10 6 0 10 5 10 10 0 6 -4 10 -10 10 -5 0 -10 -4 -10 -10z"/>
<path d="M24560 22070 c0 -5 5 -10 10 -10 6 0 10 5 10 10 0 6 -4 10 -10 10 -5 0 -10 -4 -10 -10z"/>
<path d="M23320 22010 c0 -5 5 -10 10 -10 6 0 10 5 10 10 0 6 -4 10 -10 10 -5 0 -10 -4 -10 -10z"/>
<path d="M24740 21990 c0 -5 5 -10 10 -10 6 0 10 5 10 10 0 6 -4 10 -10 10 -5 0 -10 -4 -10 -10z"/>
<path d="M23240 21970 c0 -5 5 -10 10 -10 6 0 10 5 10 10 0 6 -4 10 -10 10 -5 0 -10 -4 -10 -10z"/>
<path d="M23160 21930 c0 -5 5 -10 10 -10 6 0 10 5 10 10 0 6 -4 10 -10 10 -5 0 -10 -4 -10 -10z"/>
<path d="M21380 21910 c0 -5 5 -10 10 -10 6 0 10 5 10 10 0 6 -4 10 -10 10 -5 0 -10 -4 -10 -10z"/>
<path d="M21300 21870 c0 -5 5 -10 10 -10 6 0 10 5 10 10 0 6 -4 10 -10 10 -5 0 -10 -4 -10 -10z"/>
<path d="M25000 21870 c0 -5 5 -10 10 -10 6 0 10 5 10 10 0 6 -4 10 -10 10 -5 0 -10 -4 -10 -10z"/>
<path d="M22880 21810 c0 -5 5 -10 10 -10 6 0 10 5 10 10 0 6 -4 10 -10 10 -5 0 -10 -4 -10 -10z"/>
<path d="M22817 21786 c-4 -10 -1 -13 9 -9 15 6 19 23 5 23 -5 0 -11 -7 -14 -14z"/>
<path d="M25180 21790 c0 -5 5 -10 10 -10 6 0 10 5 10 10 0 6 -4 10 -10 10 -5 0 -10 -4 -10 -10z"/>
<path d="M23980 21763 c-13 -4 -156 -71 -285 -133 -22 -11 -69 -31 -103 -45 -55 -22 -146 -64 -337 -155 -22 -10 -74 -33 -115 -50 -41 -17 -102 -44 -135 -60 -156 -75 -235 -110 -258 -115 -15 -4 -31 -13 -38 -21 -6 -8 -18 -14 -26 -14 -13 0 -171 -70 -225 -100 -9 -5 -93 -43 -186 -84 -94 -41 -178 -79 -188 -85 -29 -16 -188 -88 -247 -112 -62 -25 -87 -36 -107 -47 -8 -5 -35 -18 -60 -29 -25 -12 -82 -39 -128 -62 -46 -23 -88 -41 -94 -41 -6 0 -29 -8 -52 -19 -23 -10 -52 -24 -66 -30 -14 -6 -32 -15 -40 -19 -8 -5 -35 -18 -60 -29 -25 -12 -83 -39 -130 -61 -47 -22 -114 -52 -150 -67 -36 -14 -96 -41 -135 -60 -137 -66 -245 -115 -250 -115 -4 0 -44 -18 -91 -40 -47 -22 -96 -43 -109 -46 -13 -3 -29 -12 -36 -20 -6 -8 -17 -14 -23 -14 -6 0 -24 -7 -40 -15 -16 -8 -101 -47 -190 -86 -89 -38 -172 -76 -186 -84 -66 -35 -93 -48 -205 -96 -66 -28 -151 -66 -190 -84 -173 -83 -244 -114 -268 -120 -15 -4 -31 -13 -38 -21 -6 -8 -18 -14 -27 -14 -8 0 -51 -17 -96 -39 -132 -63 -236 -111 -241 -111 -4 0 -43 -17 -220 -100 -83 -39 -165 -76 -265 -120 -117 -51 -260 -118 -290 -135 -14 -7 -59 -27 -100 -43 -41 -17 -103 -44 -137 -61 -34 -17 -73 -33 -87 -37 -14 -3 -30 -12 -37 -20 -6 -8 -18 -14 -25 -14 -8 0 -35 -11 -61 -25 -27 -14 -115 -55 -196 -91 -164 -72 -167 -73 -217 -98 -19 -10 -82 -38 -140 -63 -142 -61 -212 -92 -230 -104 -8 -5 -22 -12 -30 -16 -8 -3 -48 -21 -88 -40 -40 -18 -75 -33 -77 -33 -3 0 -48 -20 -100 -45 -53 -25 -107 -48 -120 -51 -13 -3 -29 -12 -36 -20 -6 -8 -17 -14 -23 -14 -6 0 -24 -7 -41 -16 -16 -9 -57 -27 -90 -41 -33 -14 -85 -36 -115 -50 -30 -14 -75 -34 -100 -45 -25 -11 -52 -24 -60 -29 -8 -5 -22 -12 -30 -15 -8 -3 -35 -16 -60 -28 -25 -13 -56 -27 -70 -31 -14 -4 -63 -26 -110 -48 -47 -21 -112 -52 -145 -67 -33 -15 -95 -44 -138 -64 -43 -20 -80 -36 -82 -36 -3 0 -40 -16 -82 -36 -43 -20 -112 -52 -153 -71 -41 -19 -88 -40 -105 -48 -16 -8 -68 -31 -115 -51 -74 -31 -156 -69 -315 -144 -52 -25 -236 -106 -303 -135 -30 -12 -59 -28 -65 -34 -6 -6 -20 -11 -30 -11 -10 0 -30 -9 -44 -20 l-26 -20 -3027 0 c-2525 0 -3029 -2 -3039 -13 -8 -10 -12 -272 -13 -923 l-3 -909 -1565 -5 -1565 -5 -5 -5985 c-3 -4117 -2 -5989 5 -5997 9 -10 3858 -13 19155 -13 10529 0 19146 3 19149 6 11 11 7 11987 -4 11991 -6 2 -708 4 -1560 6 l-1550 2 -3 914 c-2 717 -5 917 -15 923 -6 4 -1376 8 -3043 8 l-3031 0 -26 20 c-14 11 -28 20 -31 20 -6 0 -162 68 -232 101 -23 10 -46 19 -51 19 -6 0 -16 6 -22 14 -7 8 -26 18 -43 21 -17 4 -45 16 -63 26 -28 17 -67 35 -264 120 -25 11 -53 24 -61 29 -8 6 -22 13 -30 16 -42 18 -290 127 -325 144 -22 11 -51 24 -65 30 -14 5 -32 14 -40 19 -8 5 -35 18 -60 29 -51 23 -195 87 -285 127 -33 14 -78 35 -100 45 -123 59 -257 120 -261 120 -5 0 -131 56 -154 69 -9 5 -83 39 -165 75 -141 63 -180 80 -265 121 -19 9 -100 45 -180 81 -80 36 -170 76 -200 90 -30 14 -75 35 -100 47 -47 21 -68 31 -97 46 -10 5 -49 22 -88 39 -38 17 -100 44 -137 61 -37 17 -71 31 -76 31 -5 0 -15 6 -21 14 -7 8 -27 18 -44 22 -18 3 -44 15 -59 25 -14 11 -29 19 -33 19 -6 0 -72 29 -232 101 -23 10 -46 19 -51 19 -5 0 -15 6 -21 14 -7 8 -27 18 -44 22 -18 3 -37 10 -42 15 -10 7 -178 84 -285 130 -25 11 -52 24 -60 29 -8 6 -22 13 -30 16 -163 69 -383 168 -410 185 -8 5 -26 14 -40 19 -14 6 -38 17 -55 24 -16 8 -64 29 -105 46 -41 18 -102 45 -135 60 -33 15 -87 40 -120 55 -33 14 -67 30 -75 36 -8 5 -22 12 -30 15 -140 60 -243 106 -386 175 -45 21 -85 39 -90 39 -5 0 -27 8 -49 19 -22 10 -76 36 -120 56 -44 21 -96 45 -115 55 -19 9 -105 47 -190 84 -85 37 -162 71 -170 77 -8 5 -26 14 -40 19 -32 14 -110 51 -130 62 -19 10 -40 20 -120 53 -36 15 -97 42 -136 61 -39 19 -76 34 -82 34 -5 0 -15 6 -21 14 -7 8 -27 18 -44 22 -18 3 -43 15 -56 25 -13 11 -29 19 -36 19 -14 0 -337 144 -385 171 -19 11 -38 20 -120 54 -36 15 -97 42 -136 61 -39 19 -76 34 -82 34 -5 0 -15 6 -21 14 -7 8 -23 17 -36 20 -13 3 -62 24 -109 46 -47 22 -87 40 -90 40 -3 0 -40 16 -83 36 -170 79 -221 102 -293 134 -78 34 -105 46 -283 129 -60 28 -112 51 -116 51 -3 0 -22 8 -41 19 -19 10 -52 23 -72 30 -20 7 -42 19 -48 27 -7 7 -18 14 -26 14 -7 0 -66 25 -129 55 -64 30 -119 55 -121 55 -3 0 -31 12 -62 26 -31 14 -77 34 -102 45 -25 11 -52 24 -60 30 -8 5 -26 14 -40 19 -14 6 -33 14 -42 20 -41 24 -337 150 -349 149 -8 0 -21 -3 -29 -6z m-9202 -6506 l712 -712 -2 -1060 -3 -1060 -1265 0 -1265 0 -3 540 -2 540 -192 192 -193 193 -224 0 -225 0 -193 -193 -193 -192 0 -804 c0 -450 4 -810 9 -819 5 -9 71 -78 148 -154 l138 -138 1145 0 1145 0 593 -593 592 -592 0 -2065 0 -2065 -712 -712 -713 -713 -1750 0 -1750 0 -718 718 -717 718 2 1179 3 1180 1265 0 1265 0 3 -660 2 -660 190 -190 190 -190 262 -3 261 -3 189 188 188 189 0 839 0 840 -147 147 -148 148 -1145 0 -1145 0 -593 593 -592 592 0 2035 0 2035 712 712 713 713 1725 0 1725 0 713 -713z m2269 83 c203 -27 345 -104 447 -244 129 -175 176 -424 176 -914 -1 -357 -20 -540 -76 -717 -104 -327 -354 -473 -777 -452 -419 21 -618 204 -692 637 -39 230 -45 745 -10 999 46 335 161 533 365 628 134 62 372 88 567 63z m1663 -915 c5 -798 7 -885 22 -930 31 -89 114 -145 215 -145 53 0 119 37 151 86 47 72 46 59 52 989 l5 880 255 0 255 0 0 -845 c0 -787 -1 -851 -19 -940 -17 -87 -42 -162 -66 -200 -5 -8 -19 -33 -31 -54 -48 -89 -193 -188 -323 -221 -186 -46 -419 -46 -586 0 -133 36 -174 59 -260 145 -109 109 -161 232 -180 427 -11 111 -14 1676 -3 1687 4 3 119 5 257 4 l251 -3 5 -880z m2835 675 l0 -205 -226 -3 c-174 -2 -229 -5 -238 -16 -8 -9 -12 -277 -13 -917 l-3 -904 -255 0 -255 0 -2 904 c-1 498 -4 909 -6 915 -2 7 -83 13 -238 16 l-234 5 -3 195 c-1 107 0 200 2 207 4 11 148 13 738 11 l733 -3 0 -205z m982 -204 c1 -224 5 -411 8 -415 8 -8 402 -14 432 -6 l23 5 2 413 3 412 255 0 255 0 0 -1125 0 -1125 -255 0 -255 0 -2 480 c-1 263 -5 485 -7 492 -8 19 -456 19 -456 1 0 -7 -1 -229 -3 -493 l-2 -480 -255 0 -255 0 -3 1115 c-1 613 0 1121 3 1128 3 10 60 12 257 10 l253 -3 2 -409z m10196 -2445 c9 -9 54 -129 67 -179 4 -18 13 -38 18 -45 6 -7 26 -59 45 -117 48 -143 57 -168 78 -220 10 -25 21 -58 24 -75 4 -16 12 -37 19 -45 7 -8 16 -31 20 -50 3 -19 13 -48 20 -65 8 -16 21 -50 29 -75 32 -99 78 -226 91 -250 8 -14 17 -41 21 -60 4 -19 12 -44 18 -55 9 -16 70 -187 127 -355 7 -19 20 -53 31 -75 10 -22 22 -56 28 -75 5 -19 22 -66 36 -105 15 -38 30 -83 34 -100 4 -16 15 -43 23 -60 8 -16 18 -46 22 -66 4 -21 13 -42 21 -49 8 -7 15 -21 15 -32 0 -10 7 -35 17 -56 9 -20 22 -55 29 -77 30 -98 86 -252 99 -277 8 -14 15 -34 15 -45 0 -10 7 -31 15 -46 8 -16 39 -99 69 -185 30 -87 66 -186 81 -222 15 -36 33 -85 40 -110 7 -25 25 -76 40 -115 14 -38 30 -83 35 -100 9 -33 47 -129 63 -160 5 -11 16 -40 23 -65 18 -62 52 -159 70 -197 7 -17 14 -41 14 -53 0 -15 5 -20 18 -18 16 3 17 106 22 1943 l5 1940 765 0 765 0 0 -3805 0 -3805 -742 -3 -743 -2 -16 37 c-9 21 -22 58 -30 83 -12 40 -104 308 -156 450 -10 30 -26 78 -35 105 -9 28 -21 59 -28 70 -7 11 -16 38 -20 60 -4 22 -10 45 -15 50 -4 6 -40 107 -80 225 -40 118 -79 227 -86 242 -8 15 -14 34 -14 43 0 9 -9 35 -19 58 -11 24 -23 56 -27 72 -4 17 -12 39 -18 50 -6 11 -16 38 -22 60 -21 70 -173 504 -184 524 -5 11 -10 28 -10 38 -1 10 -9 36 -20 58 -11 22 -19 46 -20 54 0 8 -8 33 -19 55 -10 23 -25 61 -33 86 -28 83 -135 394 -157 455 -12 33 -26 74 -30 90 -4 17 -13 41 -20 54 -7 12 -21 48 -32 79 -11 31 -37 109 -58 172 -22 63 -58 167 -81 230 -23 63 -45 129 -49 145 -4 17 -25 73 -45 125 -21 52 -40 111 -42 130 -5 37 -28 69 -41 56 -5 -4 -9 -890 -11 -1969 -1 -1079 -4 -1968 -7 -1975 -3 -10 -162 -12 -767 -10 l-763 3 -3 3800 c-1 2090 0 3805 2 3810 4 12 1456 9 1469 -4z m-12348 -791 l0 -795 -621 -3 c-586 -2 -622 -3 -638 -20 -15 -17 -16 -249 -18 -3008 l-3 -2989 -865 0 -865 0 -5 3005 -5 3005 -635 5 -635 5 -3 785 c-1 432 0 791 3 798 3 10 438 12 2147 10 l2143 -3 0 -795z m4672 307 l493 -492 2 -1345 3 -1345 -377 -380 -378 -380 0 -40 c0 -22 9 -67 20 -100 25 -77 78 -265 101 -360 5 -22 21 -78 35 -125 14 -47 29 -103 35 -125 5 -22 19 -69 29 -105 11 -36 27 -92 36 -125 9 -33 25 -91 36 -130 10 -38 25 -95 33 -125 7 -30 18 -68 23 -85 34 -105 52 -166 52 -183 0 -10 8 -45 19 -78 39 -125 81 -271 106 -374 8 -30 23 -86 34 -125 12 -38 26 -90 32 -115 16 -62 47 -173 69 -245 20 -64 42 -144 65 -235 27 -108 60 -219 68 -226 4 -4 7 -20 7 -34 0 -15 7 -47 16 -71 26 -72 45 -162 36 -171 -4 -4 -399 -7 -877 -6 l-869 3 -13 45 c-32 105 -65 228 -72 265 -4 22 -15 65 -24 95 -9 30 -23 82 -31 115 -14 59 -35 137 -77 293 -12 42 -24 93 -28 112 -5 19 -15 60 -24 90 -28 95 -78 285 -101 380 -7 30 -26 100 -41 155 -15 55 -31 119 -36 142 -4 23 -15 58 -24 78 -8 21 -15 47 -15 58 0 12 -9 51 -19 87 -35 118 -53 185 -60 225 -5 22 -15 63 -23 90 -9 28 -25 88 -37 135 -20 79 -32 123 -76 285 -9 33 -23 88 -30 122 -8 34 -19 71 -24 82 -6 11 -11 34 -11 51 0 68 -4 70 -169 70 -130 0 -150 -2 -164 -18 -16 -17 -17 -138 -19 -1488 l-3 -1469 -37 -6 c-21 -3 -414 -8 -873 -10 l-835 -4 0 3795 c0 3050 3 3797 13 3807 10 10 363 14 1717 21 938 5 1725 9 1750 10 l45 2 492 -493z m5005 6 l488 -488 0 -2840 0 -2840 -483 -482 -482 -483 -1220 0 -1220 0 -488 488 -487 488 0 2829 0 2830 492 492 493 493 1210 0 1210 0 487 -487z m10205 -5 l493 -493 -2 -735 -3 -735 -865 0 -865 0 -5 382 -5 383 -130 130 -130 130 -185 0 -186 0 -137 -138 -137 -139 2 -2141 3 -2142 128 -127 127 -128 188 -5 187 -5 138 135 137 136 0 540 c0 426 -3 544 -13 558 -12 16 -37 18 -272 19 l-260 2 0 730 0 730 1140 0 1140 0 3 -1620 2 -1620 -488 -488 -487 -487 -1220 0 -1219 0 -483 482 -483 483 0 2840 0 2840 487 487 488 488 1210 0 1210 0 492 -492z"/>
<path d="M16795 15001 c-11 -5 -37 -27 -57 -49 -55 -61 -86 -169 -98 -344 -21 -305 -7 -944 22 -1038 31 -99 45 -129 83 -169 40 -42 46 -45 104 -49 43 -3 75 1 106 12 140 54 175 216 174 806 0 362 -10 539 -38 639 -25 90 -45 125 -94 165 -34 27 -47 31 -110 33 -40 2 -81 -1 -92 -6z"/>
<path d="M22797 11122 c-16 -17 -17 -100 -17 -984 l0 -965 19 -17 c17 -15 51 -17 380 -14 l362 3 129 131 130 131 0 734 0 734 -131 133 -131 132 -363 0 c-338 0 -363 -1 -378 -18z"/>
<path d="M28046 10913 c-67 -65 -128 -128 -134 -141 -9 -17 -12 -550 -12 -2135 l0 -2111 133 -133 133 -133 173 0 c106 0 181 4 194 11 12 6 79 68 150 137 l127 127 0 2109 0 2109 -127 131 c-71 72 -132 134 -138 138 -5 4 -92 8 -193 8 l-183 0 -123 -117z"/>
<path d="M22740 21750 c0 -5 5 -10 10 -10 6 0 10 5 10 10 0 6 -4 10 -10 10 -5 0 -10 -4 -10 -10z"/>
<path d="M25440 21670 c0 -5 5 -10 10 -10 6 0 10 5 10 10 0 6 -4 10 -10 10 -5 0 -10 -4 -10 -10z"/>
<path d="M27160 21670 c0 -5 5 -10 10 -10 6 0 10 5 10 10 0 6 -4 10 -10 10 -5 0 -10 -4 -10 -10z"/>
<path d="M22440 21610 c0 -5 5 -10 10 -10 6 0 10 5 10 10 0 6 -4 10 -10 10 -5 0 -10 -4 -10 -10z"/>
<path d="M22370 21585 c-7 -9 -10 -18 -7 -22 8 -7 37 15 37 28 0 14 -16 11 -30 -6z"/>
<path d="M25620 21590 c0 -5 5 -10 10 -10 6 0 10 5 10 10 0 6 -4 10 -10 10 -5 0 -10 -4 -10 -10z"/>
<path d="M20640 21570 c0 -5 5 -10 10 -10 6 0 10 5 10 10 0 6 -4 10 -10 10 -5 0 -10 -4 -10 -10z"/>
<path d="M20560 21530 c0 -5 5 -10 10 -10 6 0 10 5 10 10 0 6 -4 10 -10 10 -5 0 -10 -4 -10 -10z"/>
<path d="M25800 21510 c0 -5 5 -10 10 -10 6 0 10 5 10 10 0 6 -4 10 -10 10 -5 0 -10 -4 -10 -10z"/>
<path d="M25880 21470 c0 -5 5 -10 10 -10 6 0 10 5 10 10 0 6 -4 10 -10 10 -5 0 -10 -4 -10 -10z"/>
<path d="M22000 21410 c0 -5 5 -10 10 -10 6 0 10 5 10 10 0 6 -4 10 -10 10 -5 0 -10 -4 -10 -10z"/>
<path d="M20220 21390 c0 -5 5 -10 10 -10 6 0 10 5 10 10 0 6 -4 10 -10 10 -5 0 -10 -4 -10 -10z"/>
<path d="M21937 21386 c-4 -10 -1 -13 9 -9 15 6 19 23 5 23 -5 0 -11 -7 -14 -14z"/>
<path d="M20140 21350 c0 -5 5 -10 10 -10 6 0 10 5 10 10 0 6 -4 10 -10 10 -5 0 -10 -4 -10 -10z"/>
<path d="M26240 21310 c0 -5 5 -10 10 -10 6 0 10 5 10 10 0 6 -4 10 -10 10 -5 0 -10 -4 -10 -10z"/>
<path d="M27960 21310 c0 -5 5 -10 10 -10 6 0 10 5 10 10 0 6 -4 10 -10 10 -5 0 -10 -4 -10 -10z"/>
<path d="M26320 21270 c0 -5 5 -10 10 -10 6 0 10 5 10 10 0 6 -4 10 -10 10 -5 0 -10 -4 -10 -10z"/>
<path d="M21560 21210 c0 -5 5 -10 10 -10 6 0 10 5 10 10 0 6 -4 10 -10 10 -5 0 -10 -4 -10 -10z"/>
<path d="M19780 21190 c0 -5 5 -10 10 -10 6 0 10 5 10 10 0 6 -4 10 -10 10 -5 0 -10 -4 -10 -10z"/>
<path d="M21490 21185 c-7 -9 -10 -18 -7 -22 8 -7 37 15 37 28 0 14 -16 11 -30 -6z"/>
<path d="M28320 21150 c0 -5 5 -10 10 -10 6 0 10 5 10 10 0 6 -4 10 -10 10 -5 0 -10 -4 -10 -10z"/>
<path d="M26680 21110 c0 -5 5 -10 10 -10 6 0 10 5 10 10 0 6 -4 10 -10 10 -5 0 -10 -4 -10 -10z"/>
<path d="M19480 21050 c0 -5 5 -10 10 -10 6 0 10 5 10 10 0 6 -4 10 -10 10 -5 0 -10 -4 -10 -10z"/>
<path d="M19420 21030 c0 -5 5 -10 10 -10 6 0 10 5 10 10 0 6 -4 10 -10 10 -5 0 -10 -4 -10 -10z"/>
<path d="M21120 21010 c0 -5 5 -10 10 -10 6 0 10 5 10 10 0 6 -4 10 -10 10 -5 0 -10 -4 -10 -10z"/>
<path d="M21060 20990 c0 -5 5 -10 10 -10 6 0 10 5 10 10 0 6 -4 10 -10 10 -5 0 -10 -4 -10 -10z"/>
<path d="M28760 20950 c0 -5 5 -10 10 -10 6 0 10 5 10 10 0 6 -4 10 -10 10 -5 0 -10 -4 -10 -10z"/>
<path d="M27120 20910 c0 -5 5 -10 10 -10 6 0 10 5 10 10 0 6 -4 10 -10 10 -5 0 -10 -4 -10 -10z"/>
<path d="M19060 20870 c0 -5 5 -10 10 -10 6 0 10 5 10 10 0 6 -4 10 -10 10 -5 0 -10 -4 -10 -10z"/>
<path d="M18980 20830 c0 -5 5 -10 10 -10 6 0 10 5 10 10 0 6 -4 10 -10 10 -5 0 -10 -4 -10 -10z"/>
<path d="M20680 20810 c0 -5 5 -10 10 -10 6 0 10 5 10 10 0 6 -4 10 -10 10 -5 0 -10 -4 -10 -10z"/>
<path d="M29060 20810 c0 -5 5 -10 10 -10 6 0 10 5 10 10 0 6 -4 10 -10 10 -5 0 -10 -4 -10 -10z"/>
<path d="M18700 20710 c0 -5 5 -10 10 -10 6 0 10 5 10 10 0 6 -4 10 -10 10 -5 0 -10 -4 -10 -10z"/>
<path d="M27560 20710 c0 -5 5 -10 10 -10 6 0 10 5 10 10 0 6 -4 10 -10 10 -5 0 -10 -4 -10 -10z"/>
<path d="M27640 20670 c0 -5 5 -10 10 -10 6 0 10 5 10 10 0 6 -4 10 -10 10 -5 0 -10 -4 -10 -10z"/>
<path d="M29480 20630 c0 -5 5 -10 10 -10 6 0 10 5 10 10 0 6 -4 10 -10 10 -5 0 -10 -4 -10 -10z"/>
<path d="M20177 20586 c-4 -10 -1 -13 9 -9 15 6 19 23 5 23 -5 0 -11 -7 -14 -14z"/>
<path d="M27860 20570 c0 -5 5 -10 10 -10 6 0 10 5 10 10 0 6 -4 10 -10 10 -5 0 -10 -4 -10 -10z"/>
<path d="M18340 20550 c0 -5 5 -10 10 -10 6 0 10 5 10 10 0 6 -4 10 -10 10 -5 0 -10 -4 -10 -10z"/>
<path d="M28000 20510 c0 -5 5 -10 10 -10 6 0 10 5 10 10 0 6 -4 10 -10 10 -5 0 -10 -4 -10 -10z"/>
<path d="M28080 20470 c0 -5 5 -10 10 -10 6 0 10 5 10 10 0 6 -4 10 -10 10 -5 0 -10 -4 -10 -10z"/>
<path d="M29920 20430 c0 -5 5 -10 10 -10 6 0 10 5 10 10 0 6 -4 10 -10 10 -5 0 -10 -4 -10 -10z"/>
<path d="M19740 20390 c0 -5 5 -10 10 -10 6 0 10 5 10 10 0 6 -4 10 -10 10 -5 0 -10 -4 -10 -10z"/>
<path d="M17820 20310 c0 -5 5 -10 10 -10 6 0 10 5 10 10 0 6 -4 10 -10 10 -5 0 -10 -4 -10 -10z"/>
<path d="M28440 20310 c0 -5 5 -10 10 -10 6 0 10 5 10 10 0 6 -4 10 -10 10 -5 0 -10 -4 -10 -10z"/>
<path d="M30220 20290 c0 -5 5 -10 10 -10 6 0 10 5 10 10 0 6 -4 10 -10 10 -5 0 -10 -4 -10 -10z"/>
<path d="M28520 20270 c0 -5 5 -10 10 -10 6 0 10 5 10 10 0 6 -4 10 -10 10 -5 0 -10 -4 -10 -10z"/>
<path d="M19370 20225 c-7 -9 -10 -18 -7 -22 8 -7 37 15 37 28 0 14 -16 11 -30 -6z"/>
<path d="M19297 20186 c-4 -10 -1 -13 9 -9 7 3 14 9 14 14 0 14 -17 10 -23 -5z"/>
<path d="M17460 20150 c0 -5 5 -10 10 -10 6 0 10 5 10 10 0 6 -4 10 -10 10 -5 0 -10 -4 -10 -10z"/>
<path d="M19220 20150 c0 -5 5 -10 10 -10 6 0 10 5 10 10 0 6 -4 10 -10 10 -5 0 -10 -4 -10 -10z"/>
<path d="M28880 20110 c0 -5 5 -10 10 -10 6 0 10 5 10 10 0 6 -4 10 -10 10 -5 0 -10 -4 -10 -10z"/>
<path d="M30640 20110 c0 -5 5 -10 10 -10 6 0 10 5 10 10 0 6 -4 10 -10 10 -5 0 -10 -4 -10 -10z"/>
<path d="M28960 20070 c0 -5 5 -10 10 -10 6 0 10 5 10 10 0 6 -4 10 -10 10 -5 0 -10 -4 -10 -10z"/>
<path d="M18920 20010 c0 -5 5 -10 10 -10 6 0 10 5 10 10 0 6 -4 10 -10 10 -5 0 -10 -4 -10 -10z"/>
<path d="M17100 19990 c0 -5 5 -10 10 -10 6 0 10 5 10 10 0 6 -4 10 -10 10 -5 0 -10 -4 -10 -10z"/>
<path d="M18850 19985 c-7 -9 -10 -18 -7 -22 8 -7 37 15 37 28 0 14 -16 11 -30 -6z"/>
<path d="M29180 19970 c0 -5 5 -10 10 -10 6 0 10 5 10 10 0 6 -4 10 -10 10 -5 0 -10 -4 -10 -10z"/>
<path d="M31000 19950 c0 -5 5 -10 10 -10 6 0 10 5 10 10 0 6 -4 10 -10 10 -5 0 -10 -4 -10 -10z"/>
<path d="M29320 19910 c0 -5 5 -10 10 -10 6 0 10 5 10 10 0 6 -4 10 -10 10 -5 0 -10 -4 -10 -10z"/>
<path d="M29400 19870 c0 -5 5 -10 10 -10 6 0 10 5 10 10 0 6 -4 10 -10 10 -5 0 -10 -4 -10 -10z"/>
<path d="M29760 19710 c0 -5 5 -10 10 -10 6 0 10 5 10 10 0 6 -4 10 -10 10 -5 0 -10 -4 -10 -10z"/>
<path d="M16300 19630 c0 -5 5 -10 10 -10 6 0 10 5 10 10 0 6 -4 10 -10 10 -5 0 -10 -4 -10 -10z"/>
<path d="M17970 19585 c-7 -9 -10 -18 -7 -22 8 -7 37 15 37 28 0 14 -16 11 -30 -6z"/>
<path d="M31800 19590 c0 -5 5 -10 10 -10 6 0 10 5 10 10 0 6 -4 10 -10 10 -5 0 -10 -4 -10 -10z"/>
<path d="M16020 19510 c0 -5 5 -10 10 -10 6 0 10 5 10 10 0 6 -4 10 -10 10 -5 0 -10 -4 -10 -10z"/>
<path d="M30200 19510 c0 -5 5 -10 10 -10 6 0 10 5 10 10 0 6 -4 10 -10 10 -5 0 -10 -4 -10 -10z"/>
<path d="M15940 19470 c0 -5 5 -10 10 -10 6 0 10 5 10 10 0 6 -4 10 -10 10 -5 0 -10 -4 -10 -10z"/>
<path d="M17680 19450 c0 -5 5 -10 10 -10 6 0 10 5 10 10 0 6 -4 10 -10 10 -5 0 -10 -4 -10 -10z"/>
<path d="M32160 19430 c0 -5 5 -10 10 -10 6 0 10 5 10 10 0 6 -4 10 -10 10 -5 0 -10 -4 -10 -10z"/>
<path d="M30640 19310 c0 -5 5 -10 10 -10 6 0 10 5 10 10 0 6 -4 10 -10 10 -5 0 -10 -4 -10 -10z"/>
<path d="M32520 19270 c0 -5 5 -10 10 -10 6 0 10 5 10 10 0 6 -4 10 -10 10 -5 0 -10 -4 -10 -10z"/>
<path d="M17090 19185 c-7 -9 -10 -18 -7 -22 8 -7 37 15 37 28 0 14 -16 11 -30 -6z"/>
<path d="M15140 19110 c0 -5 5 -10 10 -10 6 0 10 5 10 10 0 6 -4 10 -10 10 -5 0 -10 -4 -10 -10z"/>
<path d="M31080 19110 c0 -5 5 -10 10 -10 6 0 10 5 10 10 0 6 -4 10 -10 10 -5 0 -10 -4 -10 -10z"/>
<path d="M32900 19090 c0 -5 5 -10 10 -10 6 0 10 5 10 10 0 6 -4 10 -10 10 -5 0 -10 -4 -10 -10z"/>
<path d="M14860 18990 c0 -5 5 -10 10 -10 6 0 10 5 10 10 0 6 -4 10 -10 10 -5 0 -10 -4 -10 -10z"/>
<path d="M16657 18986 c-4 -10 -1 -13 9 -9 15 6 19 23 5 23 -5 0 -11 -7 -14 -14z"/>
<path d="M33180 18970 c0 -5 5 -10 10 -10 6 0 10 5 10 10 0 6 -4 10 -10 10 -5 0 -10 -4 -10 -10z"/>
<path d="M14780 18950 c0 -5 5 -10 10 -10 6 0 10 5 10 10 0 6 -4 10 -10 10 -5 0 -10 -4 -10 -10z"/>
<path d="M31520 18910 c0 -5 5 -10 10 -10 6 0 10 5 10 10 0 6 -4 10 -10 10 -5 0 -10 -4 -10 -10z"/>
<path d="M33320 18910 c0 -5 5 -10 10 -10 6 0 10 5 10 10 0 6 -4 10 -10 10 -5 0 -10 -4 -10 -10z"/>
<path d="M16360 18850 c0 -5 5 -10 10 -10 6 0 10 5 10 10 0 6 -4 10 -10 10 -5 0 -10 -4 -10 -10z"/>
<path d="M16200 18770 c0 -5 5 -10 10 -10 6 0 10 5 10 10 0 6 -4 10 -10 10 -5 0 -10 -4 -10 -10z"/>
<path d="M33680 18750 c0 -5 5 -10 10 -10 6 0 10 5 10 10 0 6 -4 10 -10 10 -5 0 -10 -4 -10 -10z"/>
<path d="M31960 18710 c0 -5 5 -10 10 -10 6 0 10 5 10 10 0 6 -4 10 -10 10 -5 0 -10 -4 -10 -10z"/>
<path d="M15780 18590 c0 -5 5 -10 10 -10 6 0 10 5 10 10 0 6 -4 10 -10 10 -5 0 -10 -4 -10 -10z"/>
<path d="M32400 18510 c0 -5 5 -10 10 -10 6 0 10 5 10 10 0 6 -4 10 -10 10 -5 0 -10 -4 -10 -10z"/>
<path d="M13680 18450 c0 -5 5 -10 10 -10 6 0 10 5 10 10 0 6 -4 10 -10 10 -5 0 -10 -4 -10 -10z"/>
<path d="M13620 18430 c0 -5 5 -10 10 -10 6 0 10 5 10 10 0 6 -4 10 -10 10 -5 0 -10 -4 -10 -10z"/>
<path d="M15400 18410 c0 -5 5 -10 10 -10 6 0 10 5 10 10 0 6 -4 10 -10 10 -5 0 -10 -4 -10 -10z"/>
<path d="M15332 18380 c-12 -19 -11 -20 8 -8 20 13 27 28 12 28 -4 0 -13 -9 -20 -20z"/>
<path d="M13490 18370 c0 -5 7 -10 15 -10 8 0 15 5 15 10 0 6 -7 10 -15 10 -8 0 -15 -4 -15 -10z"/>
<path d="M41080 18350 c0 -5 5 -10 10 -10 6 0 10 5 10 10 0 6 -4 10 -10 10 -5 0 -10 -4 -10 -10z"/>
<path d="M32840 18310 c0 -5 5 -10 10 -10 6 0 10 5 10 10 0 6 -4 10 -10 10 -5 0 -10 -4 -10 -10z"/>
<path d="M15040 18250 c0 -5 5 -10 10 -10 6 0 10 5 10 10 0 6 -4 10 -10 10 -5 0 -10 -4 -10 -10z"/>
<path d="M14890 18185 c-7 -9 -10 -18 -7 -22 8 -7 37 15 37 28 0 14 -16 11 -30 -6z"/>
<path d="M14740 18110 c0 -5 5 -10 10 -10 6 0 10 5 10 10 0 6 -4 10 -10 10 -5 0 -10 -4 -10 -10z"/>
<path d="M33280 18110 c0 -5 5 -10 10 -10 6 0 10 5 10 10 0 6 -4 10 -10 10 -5 0 -10 -4 -10 -10z"/>
<path d="M14600 18050 c0 -5 5 -10 10 -10 6 0 10 5 10 10 0 6 -4 10 -10 10 -5 0 -10 -4 -10 -10z"/>
<path d="M14520 18010 c0 -5 5 -10 10 -10 6 0 10 5 10 10 0 6 -4 10 -10 10 -5 0 -10 -4 -10 -10z"/>
<path d="M14450 17985 c-7 -9 -10 -18 -7 -22 8 -7 37 15 37 28 0 14 -16 11 -30 -6z"/>
<path d="M14300 17910 c0 -5 5 -10 10 -10 6 0 10 5 10 10 0 6 -4 10 -10 10 -5 0 -10 -4 -10 -10z"/>
<path d="M33720 17910 c0 -5 5 -10 10 -10 6 0 10 5 10 10 0 6 -4 10 -10 10 -5 0 -10 -4 -10 -10z"/>
<path d="M14160 17850 c0 -5 5 -10 10 -10 6 0 10 5 10 10 0 6 -4 10 -10 10 -5 0 -10 -4 -10 -10z"/>
<path d="M14080 17810 c0 -5 5 -10 10 -10 6 0 10 5 10 10 0 6 -4 10 -10 10 -5 0 -10 -4 -10 -10z"/>
<path d="M14000 17770 c0 -5 5 -10 10 -10 6 0 10 5 10 10 0 6 -4 10 -10 10 -5 0 -10 -4 -10 -10z"/>
<path d="M40480 17750 c0 -5 5 -10 10 -10 6 0 10 5 10 10 0 6 -4 10 -10 10 -5 0 -10 -4 -10 -10z"/>
<path d="M44380 16380 c0 -11 5 -20 10 -20 6 0 10 9 10 20 0 11 -4 20 -10 20 -5 0 -10 -9 -10 -20z"/>
<path d="M3620 16375 c0 -8 5 -15 10 -15 6 0 10 7 10 15 0 8 -4 15 -10 15 -5 0 -10 -7 -10 -15z"/>
<path d="M4360 15890 c0 -5 5 -10 10 -10 6 0 10 5 10 10 0 6 -4 10 -10 10 -5 0 -10 -4 -10 -10z"/>
<path d="M4400 15890 c0 -5 9 -10 20 -10 11 0 20 5 20 10 0 6 -9 10 -20 10 -11 0 -20 -4 -20 -10z"/>
<path d="M7420 15890 c0 -5 5 -10 10 -10 6 0 10 5 10 10 0 6 -4 10 -10 10 -5 0 -10 -4 -10 -10z"/>
<path d="M40540 15890 c0 -5 5 -10 10 -10 6 0 10 5 10 10 0 6 -4 10 -10 10 -5 0 -10 -4 -10 -10z"/>
<path d="M4360 2910 c0 -5 7 -10 15 -10 8 0 15 5 15 10 0 6 -7 10 -15 10 -8 0 -15 -4 -15 -10z"/>
<path d="M44380 2440 c0 -11 5 -20 10 -20 6 0 10 9 10 20 0 11 -4 20 -10 20 -5 0 -10 -9 -10 -20z"/>
<path d="M3620 2430 c0 -5 5 -10 10 -10 6 0 10 5 10 10 0 6 -4 10 -10 10 -5 0 -10 -4 -10 -10z"/>
</g>
</g>
  <g id="id2:id2" transform="matrix(1.25,0,0,1.25,0.0,0.0)"><g transform="translate(0.000000,960.000000) scale(0.040000,-0.040000)" fill="#000000" stroke="none">
<path d="M23977 23070 c-14 -11 -31 -20 -38 -20 -8 0 -59 -20 -114 -44 -55 -24 -107 -46 -115 -50 -8 -3 -22 -10 -30 -15 -8 -5 -26 -14 -40 -20 -14 -6 -32 -15 -40 -20 -8 -5 -67 -30 -130 -56 -63 -26 -122 -54 -131 -61 -8 -8 -22 -14 -30 -14 -8 0 -27 -8 -44 -18 -16 -10 -84 -40 -150 -67 -66 -26 -127 -54 -136 -61 -8 -8 -20 -14 -25 -14 -6 0 -41 -15 -80 -34 -38 -19 -100 -46 -139 -61 -73 -27 -100 -39 -125 -53 -8 -5 -35 -18 -60 -30 -25 -11 -74 -34 -110 -50 -36 -17 -105 -47 -155 -67 -49 -20 -97 -43 -106 -51 -8 -8 -22 -14 -30 -14 -8 0 -30 -9 -50 -19 -19 -10 -73 -35 -119 -54 -47 -19 -128 -55 -180 -79 -52 -25 -140 -64 -195 -87 -130 -56 -137 -59 -155 -70 -22 -13 -189 -91 -195 -91 -12 0 -240 -102 -249 -111 -6 -5 -17 -9 -26 -9 -8 0 -27 -8 -40 -17 -14 -10 -79 -39 -145 -66 -65 -26 -127 -54 -135 -62 -9 -8 -23 -15 -31 -15 -8 0 -27 -9 -44 -20 -16 -11 -38 -20 -47 -20 -9 0 -32 -8 -50 -19 -18 -10 -60 -29 -93 -42 -33 -13 -72 -31 -87 -41 -14 -10 -31 -18 -36 -18 -6 0 -42 -15 -79 -34 -37 -19 -99 -46 -138 -61 -38 -15 -125 -53 -192 -86 -68 -32 -126 -59 -130 -59 -3 0 -25 -9 -47 -19 -23 -11 -70 -32 -106 -46 -36 -15 -71 -32 -79 -38 -7 -6 -27 -17 -45 -23 -17 -6 -69 -28 -116 -49 -47 -20 -107 -46 -135 -57 -27 -11 -57 -26 -66 -34 -8 -8 -21 -14 -28 -14 -7 0 -47 -17 -89 -38 -43 -22 -104 -49 -137 -61 -64 -24 -91 -35 -115 -49 -8 -5 -37 -19 -65 -32 -27 -12 -67 -31 -88 -42 -21 -11 -55 -25 -75 -33 -50 -17 -230 -98 -292 -130 -14 -7 -65 -29 -115 -50 -49 -20 -136 -59 -192 -86 -56 -27 -125 -58 -155 -69 -29 -11 -66 -27 -83 -34 -16 -8 -41 -19 -55 -25 -14 -6 -32 -15 -40 -20 -32 -19 -168 -80 -235 -105 -76 -29 -102 -41 -125 -55 -23 -14 -189 -91 -196 -91 -4 0 -43 -16 -88 -36 -79 -35 -106 -48 -286 -132 -47 -21 -113 -49 -147 -62 -35 -12 -68 -29 -74 -36 -6 -8 -18 -14 -26 -14 -9 0 -32 -8 -52 -19 -47 -24 -114 -54 -176 -79 -64 -26 -96 -40 -115 -51 -24 -14 -147 -71 -209 -96 -150 -61 -224 -94 -234 -104 -6 -6 -15 -11 -20 -11 -4 0 -36 -13 -70 -29 -34 -16 -102 -46 -152 -66 -49 -21 -97 -44 -106 -51 -8 -8 -21 -14 -27 -14 -7 0 -34 -11 -60 -24 -26 -13 -87 -41 -137 -61 -102 -42 -124 -51 -145 -64 -22 -13 -189 -91 -195 -91 -4 0 -57 -22 -120 -50 -124 -53 -131 -57 -190 -87 -22 -11 -89 -41 -150 -66 -60 -25 -137 -59 -170 -75 -33 -16 -134 -62 -225 -102 -91 -40 -172 -78 -180 -85 -8 -7 -24 -15 -35 -18 -38 -10 -137 -55 -148 -66 -8 -8 -883 -11 -3293 -11 -1805 0 -3290 -3 -3298 -6 -15 -6 -16 -97 -16 -978 l1 -971 -1636 -5 c-1439 -4 -1637 -7 -1645 -20 -6 -9 -10 -2607 -10 -6996 l0 -6981 18 -16 c17 -16 1462 -17 20388 -15 l20369 3 2 6995 c2 4404 -1 7001 -7 7010 -8 13 -206 16 -1645 20 l-1636 5 1 968 0 967 -26 10 c-16 7 -1180 10 -3287 10 l-3263 0 -59 31 c-33 17 -114 53 -180 81 -66 27 -131 56 -145 64 -14 8 -36 18 -50 24 -14 5 -32 14 -40 20 -8 5 -60 28 -115 50 -55 22 -125 52 -155 66 -30 14 -75 35 -100 47 -25 11 -52 24 -60 29 -19 11 -35 18 -145 63 -104 43 -193 83 -215 96 -16 9 -22 12 -130 59 -36 16 -95 42 -132 59 -37 17 -72 31 -79 31 -7 0 -20 6 -28 13 -9 8 -61 33 -116 56 -101 42 -179 78 -247 112 -20 11 -42 19 -48 19 -7 0 -23 9 -37 20 -14 11 -34 20 -44 20 -9 0 -30 6 -46 14 -15 8 -53 26 -83 39 -30 14 -98 45 -150 71 -52 25 -98 46 -102 46 -9 0 -299 129 -313 139 -5 5 -30 16 -55 25 -25 10 -70 29 -100 42 -30 14 -68 31 -85 39 -16 7 -64 28 -105 47 -41 19 -109 50 -150 67 -118 51 -129 57 -230 105 -52 25 -140 64 -195 86 -55 23 -142 62 -192 86 -51 24 -130 59 -176 78 -79 32 -140 61 -197 91 -14 7 -76 34 -139 59 -62 26 -150 64 -194 86 -45 22 -85 40 -90 40 -5 0 -20 9 -34 20 -14 11 -34 20 -44 20 -9 0 -30 6 -46 14 -15 8 -55 27 -88 41 -33 15 -78 35 -100 46 -195 91 -245 113 -275 124 -20 7 -53 22 -75 34 -22 11 -46 21 -53 21 -8 0 -26 8 -40 18 -15 10 -63 33 -107 51 -152 64 -240 104 -303 137 -34 19 -69 34 -76 34 -8 0 -27 6 -43 14 -15 8 -55 27 -88 42 -33 14 -96 44 -140 65 -44 21 -120 54 -170 75 -49 20 -137 59 -195 86 -58 28 -127 59 -155 70 -48 18 -171 75 -225 103 -14 7 -70 32 -125 55 -128 53 -281 123 -315 142 -22 12 -43 21 -155 68 -55 22 -145 63 -200 90 -55 26 -136 63 -180 80 -44 17 -91 38 -105 45 -48 25 -185 87 -265 120 -44 18 -93 39 -110 48 -70 36 -205 97 -269 122 -38 15 -77 31 -85 35 -68 35 -223 106 -306 141 -55 22 -111 47 -125 54 -41 21 -179 85 -185 85 -3 0 -24 9 -48 19 -23 11 -80 36 -127 56 -47 21 -89 41 -95 45 -17 12 -223 100 -235 100 -7 0 -23 9 -37 20 -14 11 -31 20 -39 20 -7 0 -48 18 -91 40 -43 22 -123 58 -178 80 -55 23 -116 50 -136 60 -20 11 -42 20 -49 20 -6 0 -23 9 -37 20 -14 11 -31 20 -38 20 -7 0 -24 -9 -38 -20z m80 -780 c14 -11 35 -20 45 -20 11 0 31 -9 45 -20 14 -11 32 -20 40 -20 8 0 26 -9 40 -20 14 -11 34 -20 45 -20 10 0 36 -9 56 -20 68 -36 211 -100 222 -100 7 0 23 -9 37 -20 14 -11 32 -20 40 -20 8 0 26 -9 40 -20 14 -11 34 -20 45 -20 10 0 36 -9 56 -20 69 -37 212 -100 227 -100 9 0 18 -6 21 -14 3 -8 20 -18 37 -22 18 -3 43 -15 56 -25 13 -11 32 -19 41 -19 10 0 49 -15 86 -34 38 -18 80 -37 94 -41 14 -4 32 -13 40 -20 8 -8 29 -17 45 -21 17 -4 41 -15 54 -26 13 -10 30 -18 38 -18 8 0 26 -9 40 -20 14 -11 34 -20 44 -20 18 0 62 -19 141 -61 20 -10 44 -19 53 -19 9 0 28 -9 42 -20 14 -11 33 -20 41 -20 9 0 23 -6 31 -14 9 -7 66 -34 126 -60 61 -26 128 -56 151 -67 23 -10 47 -19 54 -19 6 0 23 -9 37 -20 14 -11 33 -20 41 -20 9 0 23 -6 31 -14 9 -8 45 -26 81 -41 97 -40 151 -64 192 -85 20 -11 44 -20 53 -20 9 0 28 -9 42 -20 14 -11 33 -20 41 -20 9 0 23 -6 31 -14 9 -7 66 -34 126 -60 61 -25 127 -55 147 -66 20 -11 46 -20 57 -20 11 0 23 -5 26 -10 6 -9 55 -34 185 -92 25 -11 59 -26 75 -33 123 -56 145 -65 155 -65 7 0 23 -9 37 -20 14 -11 33 -20 41 -20 9 0 23 -6 31 -14 9 -7 66 -34 126 -60 61 -25 127 -55 147 -66 20 -11 44 -20 53 -20 9 0 28 -9 42 -20 14 -11 33 -20 41 -20 9 0 23 -6 31 -14 9 -7 66 -34 126 -60 61 -25 127 -55 147 -66 20 -11 44 -20 53 -20 9 0 28 -9 42 -20 14 -11 33 -20 41 -20 9 0 23 -6 31 -13 9 -8 66 -35 126 -61 61 -25 127 -55 147 -66 20 -11 44 -20 53 -20 9 0 28 -9 42 -20 14 -11 33 -20 41 -20 9 0 23 -6 31 -14 9 -7 61 -32 116 -55 55 -23 121 -53 148 -66 26 -14 54 -25 63 -25 9 0 27 -9 41 -20 14 -11 33 -20 41 -20 9 0 23 -6 31 -14 9 -8 52 -29 96 -46 44 -17 111 -47 149 -66 39 -19 78 -34 88 -34 10 0 21 -6 24 -14 3 -8 20 -18 37 -22 18 -3 39 -12 47 -19 8 -7 38 -22 65 -33 116 -46 197 -83 218 -97 12 -8 30 -15 40 -15 10 0 30 -9 44 -20 14 -11 33 -20 41 -20 9 0 23 -6 31 -14 9 -8 39 -23 66 -34 116 -46 197 -83 218 -97 12 -8 30 -15 40 -15 10 0 30 -9 44 -20 14 -11 33 -20 41 -20 9 0 23 -6 31 -14 9 -7 66 -35 126 -60 61 -26 128 -56 151 -66 23 -11 47 -20 54 -20 6 0 23 -9 37 -20 14 -11 33 -20 41 -20 9 0 23 -6 31 -14 9 -7 61 -32 116 -55 55 -22 121 -52 148 -66 26 -14 54 -25 63 -25 9 0 27 -9 41 -20 14 -11 34 -20 43 -20 10 0 23 -7 30 -14 6 -8 28 -20 48 -27 45 -15 173 -71 224 -99 20 -11 44 -20 53 -20 9 0 28 -9 42 -20 14 -11 32 -20 40 -20 8 0 27 -8 41 -18 15 -10 63 -33 107 -51 44 -18 107 -46 139 -62 32 -16 67 -29 77 -29 10 0 21 -4 24 -10 6 -9 167 -90 179 -90 8 0 133 -57 178 -80 20 -11 44 -20 53 -20 9 0 28 -9 42 -20 14 -11 34 -20 43 -20 10 0 23 -7 30 -14 6 -8 28 -20 48 -27 47 -16 154 -62 215 -94 26 -14 54 -25 63 -25 9 0 27 -9 41 -20 14 -11 34 -20 43 -20 10 0 23 -7 30 -15 7 -8 26 -19 44 -24 44 -13 215 -89 240 -107 11 -8 31 -14 44 -14 12 0 25 -6 28 -14 3 -8 20 -18 37 -22 18 -3 43 -15 56 -25 13 -11 29 -19 37 -19 7 0 35 -11 62 -25 28 -14 55 -25 61 -25 6 0 34 -11 63 -25 l52 -25 3200 0 c1759 0 3202 -2 3205 -6 3 -3 8 -418 11 -922 l5 -917 1549 -3 c851 -1 1554 -6 1562 -10 12 -7 14 -943 14 -6472 0 -3555 -4 -6468 -8 -6472 -4 -4 -8841 -8 -19637 -8 l-19630 0 -3 6476 -2 6476 17 4 c10 3 716 6 1568 7 l1550 2 5 920 5 920 3210 3 3210 2 105 51 c106 52 211 98 285 126 22 8 47 21 56 29 8 8 22 14 31 14 8 0 27 9 41 20 14 11 30 20 35 20 9 0 62 23 220 96 29 13 58 24 66 24 7 0 25 9 39 20 14 11 32 20 40 20 8 0 26 9 40 20 14 11 33 20 42 20 9 0 35 11 58 24 23 13 74 36 112 51 65 26 210 93 245 114 8 5 76 35 150 66 169 71 277 122 285 135 3 6 15 10 26 10 11 0 37 9 57 20 20 11 73 35 117 54 107 46 147 64 165 74 8 5 38 19 65 31 28 13 77 36 110 51 33 16 89 41 125 55 101 42 208 94 215 105 3 6 15 10 26 10 11 0 37 9 57 20 41 22 169 80 178 80 12 0 173 81 179 90 3 6 16 10 28 10 13 0 31 6 42 14 11 7 61 30 110 51 80 33 164 71 360 165 33 16 89 41 125 55 101 42 208 94 215 105 3 6 16 10 28 10 13 0 31 6 42 14 11 7 65 32 120 55 55 23 143 63 195 88 144 69 186 88 295 134 55 23 107 48 116 55 8 8 22 14 31 14 8 0 27 9 41 20 14 11 29 20 34 20 14 0 299 125 327 143 14 9 32 17 39 17 8 0 26 9 40 20 14 11 31 20 39 20 7 0 27 9 43 20 17 11 36 20 43 20 28 0 316 132 327 150 3 6 15 10 26 10 11 0 37 9 57 20 20 11 71 34 112 51 124 52 238 107 245 118 3 6 15 11 26 11 11 0 37 9 57 20 46 24 149 70 157 70 4 0 64 27 133 61 158 76 170 81 262 120 70 29 216 98 250 118 8 5 38 18 65 29 154 62 309 133 375 171 8 5 38 18 65 29 168 70 318 138 375 171 8 5 38 18 65 29 168 70 318 138 375 171 8 5 40 19 70 31 30 13 73 31 95 41 22 9 65 27 95 40 30 12 67 31 82 41 14 10 33 18 41 18 8 0 26 9 40 20 14 11 30 20 35 20 5 0 34 11 63 24 30 13 98 42 152 66 54 23 137 61 185 84 48 23 113 53 145 66 31 12 60 26 63 31 3 5 12 9 20 9 12 0 265 115 399 180 22 11 47 20 55 20 8 0 26 9 40 20 32 25 55 25 87 0z"/>
<path d="M19820 19870 c0 -5 5 -10 10 -10 6 0 10 5 10 10 0 6 -4 10 -10 10 -5 0 -10 -4 -10 -10z"/>
<path d="M32820 8680 c0 -16 5 -30 10 -30 6 0 10 14 10 30 0 17 -4 30 -10 30 -5 0 -10 -13 -10 -30z"/>
</g>
</g>
</svg>
