<?xml version="1.0" standalone="no"?>
<!DOCTYPE svg PUBLIC "-//W3C//DTD SVG 1.1//EN"
 "http://www.w3.org/Graphics/SVG/1.1/DTD/svg11.dtd">
<!-- Created with svg_stack (http://github.com/astraw/svg_stack) -->
<svg xmlns:sodipodi="http://sodipodi.sourceforge.net/DTD/sodipodi-0.dtd" xmlns="http://www.w3.org/2000/svg" version="1.1" width="1460.0" height="1564.0">
  <defs/>
  <g id="id0:id0" transform="matrix(1.25,0,0,1.25,0.0,0.0)"><g transform="translate(0.000000,1251.200000) scale(0.040000,-0.040000)" fill="#046a38" stroke="none">
<path d="M16073 31252 c-16 -17 -38 -60 -53 -103 -23 -69 -25 -87 -25 -259 1 -191 11 -271 58 -462 l22 -88 -19 -70 c-10 -40 -14 -79 -10 -92 4 -13 28 -49 53 -82 102 -129 109 -150 70 -200 -14 -18 -22 -43 -23 -74 -1 -59 18 -86 117 -162 39 -31 78 -67 85 -80 16 -31 10 -137 -12 -199 -18 -50 -21 -127 -5 -168 13 -36 88 -113 109 -113 28 0 213 -96 238 -123 21 -22 25 -41 36 -188 13 -174 26 -218 78 -266 26 -25 88 -53 115 -53 10 0 31 -7 46 -15 15 -8 45 -17 65 -20 20 -4 63 -15 95 -26 31 -10 63 -19 71 -19 7 0 29 -17 48 -38 32 -36 36 -46 42 -123 10 -113 33 -202 70 -267 27 -47 37 -57 76 -69 45 -14 187 -13 341 3 l65 6 35 -33 c33 -31 36 -40 42 -109 9 -105 50 -227 90 -268 l32 -34 160 7 c88 4 194 8 235 9 l75 1 17 -35 c12 -25 17 -62 18 -125 1 -96 19 -192 43 -229 11 -17 32 -26 85 -36 59 -11 94 -10 251 5 l182 18 22 -22 c20 -19 23 -35 28 -167 l5 -145 36 -35 c39 -40 60 -44 273 -64 233 -21 246 -24 274 -56 25 -27 45 -80 71 -184 6 -25 17 -70 25 -100 29 -116 72 -222 101 -245 33 -26 123 -50 254 -66 113 -15 151 -29 179 -67 19 -28 85 -229 101 -307 10 -53 62 -166 87 -188 11 -10 58 -34 104 -53 46 -19 93 -44 105 -55 30 -28 70 -141 83 -234 23 -161 39 -231 65 -280 54 -104 98 -168 167 -242 36 -39 73 -94 99 -148 43 -89 51 -124 84 -365 21 -161 84 -290 198 -409 72 -75 83 -94 98 -161 7 -30 27 -84 45 -120 17 -36 38 -87 45 -115 7 -27 32 -93 56 -147 23 -53 45 -111 49 -130 4 -18 24 -69 45 -114 20 -44 40 -98 44 -119 4 -20 22 -70 40 -109 18 -39 41 -100 50 -136 10 -36 28 -83 40 -105 12 -22 33 -74 45 -115 13 -41 29 -88 37 -105 37 -83 64 -156 64 -170 0 -9 14 -48 31 -88 17 -40 40 -100 50 -134 11 -35 33 -91 49 -125 17 -35 30 -71 30 -82 0 -10 18 -61 40 -112 22 -52 40 -100 40 -109 0 -8 18 -56 39 -107 22 -51 47 -120 57 -153 9 -33 27 -80 39 -105 12 -25 33 -79 46 -120 13 -41 28 -82 34 -90 14 -19 48 -110 65 -170 6 -25 27 -76 45 -115 18 -38 39 -90 45 -114 7 -25 31 -88 55 -140 23 -53 50 -121 60 -151 10 -30 35 -93 55 -140 20 -47 45 -110 55 -140 10 -30 42 -104 71 -164 30 -60 54 -116 54 -125 0 -19 39 -116 61 -151 37 -59 46 -78 68 -140 23 -62 89 -203 134 -285 95 -171 123 -219 162 -280 25 -38 50 -81 56 -95 12 -28 97 -150 152 -218 21 -26 59 -81 84 -122 25 -41 84 -123 129 -181 46 -58 98 -130 116 -160 37 -61 106 -152 159 -213 20 -23 44 -56 53 -75 10 -18 60 -95 112 -171 93 -138 110 -165 168 -270 16 -30 40 -70 52 -87 12 -18 39 -68 60 -110 20 -43 43 -90 51 -104 82 -165 190 -493 228 -694 16 -86 21 -115 45 -300 5 -44 19 -188 31 -320 11 -132 25 -287 30 -345 6 -58 11 -256 11 -440 1 -266 -2 -356 -16 -437 -9 -57 -16 -127 -16 -155 0 -152 70 -540 119 -654 34 -80 33 -94 -17 -214 -26 -61 -32 -88 -32 -149 0 -91 27 -186 74 -261 67 -107 124 -218 129 -251 2 -19 12 -74 21 -124 20 -117 20 -154 -3 -219 -36 -102 -46 -188 -32 -276 18 -121 48 -176 128 -239 80 -62 160 -98 303 -136 104 -27 133 -34 242 -53 31 -6 71 -18 88 -27 17 -9 40 -13 50 -10 46 15 263 -114 440 -261 94 -78 290 -279 323 -331 13 -21 51 -68 83 -105 69 -78 136 -181 189 -291 l38 -78 46 3 46 3 -3 -55 c-2 -30 -10 -80 -18 -110 -24 -84 -22 -304 4 -400 28 -106 39 -129 77 -176 32 -39 150 -134 220 -178 63 -40 182 -98 240 -117 33 -12 65 -24 70 -29 6 -4 39 -15 74 -24 190 -48 357 -18 392 71 4 12 23 30 41 39 18 9 54 32 80 50 27 18 61 35 76 39 55 12 94 125 43 125 -9 0 -26 6 -36 14 l-19 13 26 84 c40 129 71 503 49 589 -5 19 -12 78 -15 130 -3 52 -13 127 -22 165 -9 39 -20 95 -24 126 -8 59 -15 94 -56 264 -13 55 -28 125 -34 155 -18 94 -37 178 -44 189 -4 5 -15 54 -25 108 -23 121 -76 361 -95 428 -8 28 -18 68 -21 90 -4 22 -22 105 -40 185 -19 80 -39 172 -46 205 -22 112 -39 168 -59 202 -29 50 -58 291 -35 294 6 1 19 -27 30 -63 11 -35 30 -77 41 -93 18 -25 22 -45 23 -118 1 -49 6 -97 11 -107 5 -9 16 -48 25 -86 30 -131 29 -129 55 -129 22 0 28 8 47 65 12 36 22 74 22 85 0 11 9 49 20 85 22 74 53 214 76 340 32 178 54 317 60 375 3 33 13 89 20 125 8 36 19 128 25 205 5 77 15 205 21 284 10 123 9 161 -6 270 -22 168 -81 429 -124 546 -6 17 -21 64 -35 105 -13 41 -29 89 -35 105 -6 17 -33 95 -60 175 -27 80 -66 183 -85 230 -20 47 -36 92 -36 101 0 9 -14 46 -30 83 -17 37 -44 108 -61 157 -17 50 -39 105 -50 122 -10 18 -19 40 -19 51 0 21 -46 154 -59 171 -5 5 -14 35 -21 65 -7 30 -20 71 -28 90 -8 19 -27 88 -42 155 -15 66 -45 176 -65 245 -21 69 -42 143 -47 165 -11 44 -45 141 -57 165 -5 8 -24 16 -44 18 -31 3 -39 -2 -64 -35 -52 -69 -177 -194 -237 -236 -32 -23 -75 -56 -95 -73 -20 -17 -67 -43 -105 -58 -37 -15 -103 -43 -144 -62 -42 -19 -92 -39 -112 -44 -19 -4 -66 -18 -105 -30 -73 -22 -128 -30 -360 -55 -202 -21 -272 -20 -285 4 -15 29 -12 71 10 119 17 38 23 42 57 44 103 4 139 7 270 21 78 9 151 21 162 26 11 6 33 11 49 11 17 0 49 9 73 20 24 11 58 20 74 20 17 0 57 14 90 30 33 17 65 30 72 30 16 0 172 76 192 93 9 8 41 31 71 52 30 21 59 44 63 52 4 7 22 20 40 29 35 18 46 30 142 151 62 77 145 224 145 255 0 8 9 41 20 73 17 49 20 84 20 214 0 133 -4 169 -24 242 -13 47 -31 100 -40 117 -17 34 -89 92 -113 92 -7 0 -33 18 -57 40 -24 22 -46 40 -50 40 -13 0 -76 55 -76 65 0 6 -25 35 -55 65 -31 30 -75 84 -97 120 -23 36 -56 81 -73 100 -41 47 -135 213 -186 330 -23 52 -47 102 -54 110 -7 8 -15 39 -19 69 -4 30 -13 69 -21 87 -14 34 -13 146 2 153 9 3 42 -74 42 -102 1 -11 10 -30 21 -44 11 -14 20 -33 20 -42 0 -9 12 -34 27 -56 15 -22 41 -69 59 -105 17 -36 38 -71 46 -78 8 -6 30 -42 48 -78 19 -36 61 -96 95 -132 68 -76 115 -136 115 -150 0 -5 18 -22 41 -37 22 -16 44 -37 50 -46 9 -18 150 -141 218 -191 73 -53 199 -130 301 -184 58 -30 119 -65 135 -77 87 -64 154 -119 188 -156 21 -22 42 -41 46 -41 5 0 27 -24 49 -53 22 -30 91 -104 152 -166 144 -145 194 -171 323 -171 97 0 104 4 93 64 -5 24 -27 54 -74 102 -38 38 -82 94 -100 125 -17 30 -41 64 -53 75 -45 40 -104 186 -84 206 7 7 105 -12 140 -28 78 -34 227 -64 314 -64 121 0 141 8 141 58 0 29 -9 50 -34 82 -45 57 -147 143 -216 183 -30 17 -70 41 -89 54 -19 13 -42 23 -53 23 -16 0 -69 23 -140 61 -10 5 -29 9 -42 9 -61 0 -30 47 47 70 22 6 60 24 86 38 26 15 82 46 124 70 121 69 327 220 358 263 23 33 25 65 3 73 -15 6 -156 -5 -304 -24 -127 -17 -393 -31 -402 -22 -4 4 11 33 34 65 24 31 72 95 108 143 36 47 86 113 113 145 36 45 47 66 47 94 l0 35 -38 0 c-90 0 -236 -46 -291 -90 -19 -17 -44 -30 -54 -30 -11 0 -36 -13 -57 -30 -21 -16 -41 -30 -45 -30 -4 0 -30 -16 -56 -35 -27 -19 -53 -35 -58 -35 -5 0 -14 -7 -21 -14 -18 -22 -98 -59 -115 -52 -20 7 -56 68 -94 156 -55 127 -74 161 -146 265 -69 98 -171 205 -270 282 -82 64 -261 173 -285 173 -13 0 -38 9 -56 21 -65 40 -185 60 -364 61 -187 1 -279 -12 -356 -48 -103 -49 -124 -111 -124 -373 0 -102 7 -269 16 -371 8 -102 17 -266 20 -365 5 -165 4 -186 -17 -264 -29 -106 -44 -124 -102 -115 -52 9 -157 98 -214 182 -21 32 -49 71 -63 87 -32 39 -140 219 -140 234 0 7 -18 49 -40 94 -62 125 -68 254 -10 202 10 -9 22 -31 26 -49 9 -43 83 -172 164 -286 37 -52 77 -112 89 -132 38 -64 77 -89 130 -86 l46 3 3 44 c2 24 -8 114 -22 200 -45 284 -58 427 -59 641 -1 160 3 218 16 265 9 33 18 72 21 86 3 14 28 49 56 77 l51 52 127 0 c213 1 318 27 384 97 47 49 52 105 23 239 -14 64 -39 146 -55 184 -17 38 -30 77 -30 88 0 11 -25 75 -55 142 -30 67 -55 130 -55 140 0 11 -38 93 -84 184 -46 91 -87 178 -91 193 -3 16 -26 60 -49 98 -23 39 -59 104 -79 145 -20 41 -52 96 -71 122 -20 26 -44 62 -54 81 -10 19 -37 57 -60 85 -23 27 -42 54 -42 58 0 5 -34 45 -76 89 -42 44 -86 100 -97 125 -52 112 -333 332 -453 355 -49 9 -75 -11 -114 -84 -18 -33 -47 -77 -64 -98 -17 -21 -39 -50 -49 -65 -9 -15 -51 -63 -92 -107 -41 -44 -75 -85 -75 -91 0 -5 -14 -17 -31 -26 -17 -8 -50 -33 -73 -53 -125 -115 -393 -230 -541 -232 -77 -1 -203 12 -228 24 -18 8 -70 32 -117 52 -83 35 -261 147 -296 186 -9 10 -21 19 -27 19 -9 0 -177 158 -249 236 -21 22 -53 63 -71 91 -17 29 -57 82 -88 120 -67 82 -123 175 -154 259 -13 35 -51 121 -83 191 -112 240 -187 462 -165 484 8 8 30 -27 76 -118 86 -170 123 -238 163 -300 19 -28 34 -54 34 -58 0 -16 139 -213 169 -239 18 -17 45 -48 59 -71 45 -73 324 -351 421 -420 16 -11 54 -39 84 -62 68 -52 242 -136 316 -153 29 -7 95 -12 146 -12 79 0 105 5 172 30 43 17 90 33 105 36 15 3 55 28 90 54 35 27 104 79 153 115 50 37 93 71 96 75 4 4 26 25 48 47 23 22 68 65 99 95 31 31 81 73 110 94 28 21 52 41 52 46 0 5 28 31 63 58 43 34 75 52 105 57 l44 7 75 -78 c67 -71 90 -99 154 -195 96 -143 127 -184 155 -206 34 -25 99 -115 122 -165 6 -16 29 -47 50 -70 21 -24 45 -52 53 -64 15 -22 150 -142 211 -187 20 -15 48 -27 61 -27 53 0 58 42 19 172 -11 36 -23 95 -27 130 -6 55 -4 67 13 88 l20 24 49 -44 c91 -82 258 -230 298 -264 22 -18 84 -72 137 -120 89 -80 100 -87 149 -93 l52 -6 -5 49 c-8 79 -189 386 -307 520 -88 100 -81 131 25 126 38 -2 99 -10 136 -18 37 -7 73 -11 80 -9 8 3 43 1 78 -4 42 -6 69 -5 78 1 19 16 15 95 -5 113 -10 8 -43 37 -75 64 -77 67 -191 142 -265 176 -34 15 -69 35 -78 45 -16 17 -15 19 5 30 28 15 225 60 262 60 58 0 76 15 80 67 6 63 1 76 -27 69 -15 -4 -28 1 -40 14 -10 11 -24 20 -32 20 -7 0 -41 9 -75 21 -33 11 -79 24 -102 29 -111 23 -235 62 -316 101 -74 35 -103 56 -165 119 -41 43 -75 82 -75 87 0 5 -29 40 -65 77 -35 38 -82 98 -104 135 -21 36 -61 89 -88 116 -27 28 -63 73 -81 101 -44 69 -236 255 -293 282 -84 40 -195 21 -324 -57 -44 -26 -87 -50 -95 -53 -8 -3 -51 -32 -95 -65 -44 -32 -131 -90 -193 -128 -191 -118 -209 -130 -305 -204 -50 -39 -117 -88 -146 -108 l-55 -36 -35 44 c-20 24 -54 62 -77 84 -22 22 -51 56 -65 75 -23 35 -235 247 -327 327 -166 145 -427 303 -503 303 -10 0 -21 5 -24 10 -9 14 -171 13 -211 -2 -17 -6 -39 -8 -49 -5 -14 6 -8 15 34 56 57 55 99 77 175 93 48 10 59 9 106 -10 29 -12 68 -22 86 -22 18 0 36 -4 39 -10 3 -5 43 -32 88 -60 54 -33 92 -50 114 -50 l33 0 0 42 c0 55 -45 146 -110 223 -27 32 -50 63 -50 69 0 5 -11 23 -24 40 -12 17 -30 45 -39 62 -9 17 -43 58 -75 91 -32 33 -75 86 -94 119 -20 32 -50 69 -67 81 -16 13 -44 44 -62 70 -18 27 -60 78 -93 114 -34 37 -97 108 -141 158 -44 51 -107 120 -140 155 -33 35 -89 96 -125 136 -79 89 -450 476 -567 593 -5 4 -28 27 -53 52 -25 24 -55 54 -67 67 -120 124 -456 443 -683 647 -113 102 -221 199 -240 217 -72 67 -285 241 -350 286 -38 26 -76 58 -87 70 -10 13 -30 29 -44 37 -15 7 -49 32 -75 55 -27 23 -76 57 -109 75 -33 19 -82 48 -110 66 -161 104 -277 176 -297 185 -13 6 -43 26 -68 45 -25 18 -69 48 -97 65 -29 16 -53 35 -53 40 0 6 -6 10 -14 10 -11 0 -58 29 -181 114 -27 18 -299 196 -410 267 -49 32 -108 71 -129 86 -22 16 -72 51 -111 78 -40 28 -85 60 -101 73 -16 12 -71 51 -122 85 -147 99 -183 124 -252 178 -85 65 -176 132 -265 194 -87 60 -272 198 -335 250 -25 20 -74 59 -110 86 -150 113 -227 174 -265 206 -22 19 -92 77 -155 130 -63 52 -122 103 -131 112 -9 9 -40 34 -69 56 -30 22 -63 49 -74 61 -12 11 -84 79 -161 150 -244 227 -515 505 -558 572 -16 25 -55 76 -87 112 -32 36 -66 79 -76 97 -29 49 -95 164 -117 203 -10 19 -25 42 -32 50 -20 23 -55 117 -55 149 0 31 -34 81 -55 81 -7 0 -26 -13 -42 -28z m4908 -5492 c29 -15 41 -29 48 -57 24 -84 6 -101 -41 -41 -18 24 -57 65 -85 92 -39 35 -53 55 -53 75 0 44 10 43 53 -5 22 -25 57 -54 78 -64z m133 -241 c-3 -5 -10 -7 -15 -3 -5 3 -7 10 -3 15 3 5 10 7 15 3 5 -3 7 -10 3 -15z m146 -175 c19 -30 64 -101 100 -159 36 -58 84 -131 108 -162 23 -30 42 -60 42 -66 0 -5 17 -30 38 -55 40 -49 109 -163 223 -367 40 -71 87 -153 106 -181 18 -28 33 -54 33 -57 0 -5 28 -55 93 -162 9 -16 29 -55 43 -85 13 -30 37 -80 52 -110 70 -137 91 -179 121 -240 18 -36 43 -85 57 -110 109 -195 155 -284 175 -340 12 -36 31 -76 41 -89 10 -13 18 -33 18 -45 0 -12 4 -26 9 -32 17 -16 139 -263 156 -313 9 -27 47 -109 85 -184 37 -74 80 -167 95 -208 14 -40 46 -114 72 -163 25 -50 56 -112 69 -138 13 -27 24 -55 24 -64 0 -10 12 -42 26 -73 32 -68 77 -159 91 -186 17 -31 53 -122 53 -134 0 -10 42 -100 67 -146 22 -38 45 -91 73 -165 43 -117 60 -153 107 -237 13 -24 30 -63 37 -86 17 -55 116 -277 133 -298 8 -9 18 -29 23 -45 24 -80 55 -152 105 -249 30 -59 55 -113 55 -120 0 -21 109 -257 141 -305 9 -14 29 -56 44 -95 15 -38 31 -74 35 -80 4 -5 10 -23 14 -40 4 -16 50 -110 102 -208 52 -99 94 -182 94 -185 0 -18 136 -289 226 -452 54 -96 202 -350 212 -363 5 -7 26 -43 47 -81 20 -39 54 -95 75 -125 20 -31 49 -79 64 -106 14 -28 56 -83 91 -123 36 -40 72 -87 81 -105 23 -44 49 -78 115 -150 31 -34 63 -76 72 -92 8 -17 38 -51 66 -77 28 -26 56 -59 63 -73 6 -14 15 -25 19 -25 5 0 60 -46 123 -102 62 -57 130 -114 151 -128 20 -14 56 -40 81 -57 24 -18 48 -33 53 -33 5 0 21 -14 35 -31 49 -57 23 -144 -48 -166 -35 -11 -41 -9 -85 20 -26 18 -87 59 -135 91 -97 65 -355 304 -415 385 -21 28 -58 71 -82 94 -24 24 -62 70 -84 102 -22 32 -58 79 -81 104 -39 44 -156 222 -219 334 -16 29 -52 83 -78 120 -27 36 -58 84 -70 106 -12 21 -41 72 -64 112 -22 41 -60 114 -83 164 -23 49 -50 101 -60 115 -9 14 -35 59 -58 101 -56 105 -56 107 -96 175 -20 34 -48 93 -62 130 -24 66 -148 325 -161 337 -8 8 -49 108 -69 167 -9 25 -47 109 -85 187 -38 78 -69 145 -69 150 0 15 -82 197 -101 225 -11 14 -19 32 -19 40 -1 7 -9 31 -20 53 -11 22 -19 45 -20 50 0 15 -42 112 -77 180 -17 33 -36 81 -43 105 -7 25 -36 96 -66 158 -30 63 -57 126 -61 140 -6 25 -88 215 -101 237 -4 6 -18 44 -32 85 -14 41 -41 104 -60 140 -19 36 -46 101 -61 146 -15 44 -42 110 -59 145 -18 35 -46 101 -62 147 -15 46 -53 131 -82 190 -29 59 -57 123 -61 142 -4 19 -33 89 -65 155 -32 66 -66 145 -75 175 -10 30 -44 107 -75 170 -32 63 -66 140 -75 170 -16 51 -106 242 -125 265 -5 6 -18 39 -30 75 -12 36 -50 121 -85 190 -113 222 -133 263 -181 375 -27 61 -53 117 -59 125 -6 8 -28 49 -49 90 -21 41 -70 131 -108 198 -38 68 -79 149 -92 180 -12 32 -78 152 -146 267 -178 304 -230 393 -230 398 0 11 -78 128 -111 168 -41 49 -150 245 -141 254 8 7 100 -97 142 -161z m4840 -10868 c66 -100 397 -430 447 -446 24 -9 47 -9 84 -1 28 6 55 9 59 6 5 -3 0 -20 -10 -38 -26 -42 -25 -82 1 -104 11 -10 41 -38 67 -63 26 -25 62 -52 80 -59 30 -12 37 -11 93 14 75 33 91 23 49 -30 -22 -27 -30 -48 -30 -76 0 -34 9 -49 71 -119 39 -45 78 -80 88 -80 10 0 38 7 61 15 57 20 66 11 30 -33 -31 -38 -37 -73 -21 -114 64 -161 69 -168 122 -168 46 0 55 -11 29 -35 -13 -12 -20 -31 -20 -57 0 -51 52 -154 82 -164 30 -10 96 -6 120 7 11 6 27 8 36 4 13 -5 5 -16 -35 -54 -75 -70 -77 -94 -19 -210 56 -110 73 -122 146 -99 27 9 51 13 54 10 3 -3 -6 -21 -20 -40 -15 -19 -31 -52 -35 -74 -9 -36 -7 -42 27 -84 34 -41 40 -44 85 -44 26 0 59 4 72 9 37 14 39 4 10 -42 -32 -52 -33 -101 -2 -157 25 -44 62 -70 102 -70 36 0 38 -9 12 -49 -19 -27 -25 -49 -25 -93 0 -53 2 -57 34 -77 18 -12 40 -21 49 -21 35 0 24 -21 -29 -57 -66 -44 -90 -74 -98 -123 -8 -48 11 -73 54 -72 19 0 42 -4 52 -9 32 -17 3 -39 -51 -39 -28 0 -59 -8 -79 -20 -58 -36 -92 -148 -56 -184 11 -12 35 -16 84 -16 38 0 72 -5 75 -10 10 -16 -13 -38 -46 -45 -32 -7 -69 -48 -69 -75 0 -24 85 -116 113 -124 13 -3 47 0 75 8 29 7 54 11 56 8 3 -2 -6 -21 -19 -41 -30 -44 -32 -93 -5 -131 12 -17 16 -31 11 -35 -17 -10 -198 181 -221 233 -12 26 -29 56 -39 67 -29 32 -52 113 -58 200 -4 68 -1 91 20 155 52 153 67 193 79 207 7 8 12 49 12 96 1 75 -2 87 -33 142 -37 66 -137 195 -151 195 -10 0 -113 154 -171 257 -89 157 -162 303 -173 348 -4 17 -42 100 -85 185 -42 85 -87 178 -99 205 -43 97 -102 199 -136 234 -18 20 -46 56 -61 79 -14 24 -50 67 -78 95 -29 29 -66 68 -82 87 -17 19 -108 109 -203 200 -264 252 -423 433 -505 574 -34 57 -58 122 -49 130 7 8 10 5 72 -88z m-357 -1073 c139 -65 200 -155 216 -318 25 -245 33 -290 62 -358 30 -69 36 -102 20 -111 -5 -3 -13 0 -19 7 -15 17 -79 203 -87 251 -3 21 -15 55 -26 75 -10 20 -19 43 -19 53 0 45 -70 165 -132 227 -72 72 -116 91 -210 91 -74 0 -103 -14 -133 -66 -33 -56 -35 -155 -5 -214 24 -48 78 -127 91 -135 5 -4 28 -32 51 -63 23 -31 64 -80 92 -108 69 -69 109 -121 97 -128 -5 -3 -14 0 -20 8 -7 8 -23 17 -37 20 -25 7 -126 83 -237 180 -76 65 -152 179 -168 252 -25 111 32 258 128 331 83 64 208 66 336 6z m2283 -290 c10 -52 -11 -64 -30 -18 -17 41 -20 67 -9 79 11 11 32 -23 39 -61z m68 -2264 c-3 -5 -10 -7 -15 -3 -5 3 -7 10 -3 15 3 5 10 7 15 3 5 -3 7 -10 3 -15z m179 -28 c5 0 -8 -16 -28 -35 -37 -35 -45 -72 -22 -103 5 -7 7 -13 3 -13 -3 0 -9 0 -13 0 -5 0 -8 3 -8 8 -2 18 -45 89 -69 111 -14 13 -24 27 -22 30 4 5 132 7 159 2z m37 -351 c24 0 32 -11 18 -27 -14 -17 -13 -70 1 -87 8 -10 6 -18 -8 -30 l-19 -18 -22 49 c-20 45 -33 137 -21 149 3 3 12 -4 20 -15 7 -12 21 -21 31 -21z m64 19 c-3 -5 -10 -7 -15 -3 -5 3 -7 10 -3 15 3 5 10 7 15 3 5 -3 7 -10 3 -15z m-44 -294 c-10 -11 -20 -29 -22 -40 -2 -11 -8 -18 -13 -15 -11 5 -11 89 -1 117 6 15 10 13 31 -12 l23 -30 -18 -20z m-2 -198 c18 -31 18 -37 5 -67 -8 -19 -17 -30 -22 -24 -11 11 -22 110 -14 118 9 9 9 9 31 -27z m-14 -128 c-3 -5 -10 -7 -15 -3 -5 3 -7 10 -3 15 3 5 10 7 15 3 5 -3 7 -10 3 -15z m1 -47 c0 -4 9 -19 19 -34 18 -27 16 -58 -7 -86 -26 -33 -50 44 -27 88 7 13 7 21 0 25 -6 4 -8 11 -4 16 6 10 19 4 19 -9z"/>
<path d="M12502 30039 c-25 -9 -27 -18 -10 -53 15 -34 -12 -66 -56 -66 -17 0 -40 -7 -50 -15 -11 -8 -28 -12 -38 -9 -10 3 -33 -4 -52 -15 -18 -12 -40 -21 -48 -21 -9 0 -27 -9 -41 -20 -14 -11 -35 -20 -46 -20 -12 0 -29 -9 -38 -20 -10 -11 -27 -20 -39 -20 -12 0 -32 -8 -45 -19 -13 -10 -51 -33 -84 -50 -33 -18 -88 -54 -121 -81 -34 -28 -68 -50 -76 -50 -8 0 -41 -24 -74 -53 -32 -29 -84 -72 -114 -97 -30 -24 -95 -82 -145 -130 -102 -96 -492 -456 -619 -570 -46 -41 -156 -142 -245 -223 -88 -82 -165 -146 -171 -142 -5 3 -10 17 -10 31 0 22 -4 24 -44 24 -44 0 -85 -10 -144 -37 -18 -8 -36 -12 -41 -9 -5 3 -35 -4 -67 -15 -33 -12 -74 -23 -92 -26 -18 -3 -35 -9 -38 -14 -3 -5 -18 -9 -34 -9 -16 0 -43 -8 -62 -17 -18 -9 -45 -22 -60 -30 -14 -7 -34 -13 -43 -13 -9 0 -26 -5 -38 -12 -12 -6 -66 -27 -121 -45 -54 -18 -134 -49 -178 -68 -43 -19 -85 -35 -93 -35 -7 0 -26 -7 -42 -15 -15 -8 -102 -48 -193 -89 -91 -41 -205 -97 -255 -123 -49 -27 -97 -52 -106 -55 -9 -4 -43 -27 -75 -53 -33 -25 -79 -61 -104 -80 -87 -65 -261 -236 -389 -380 -34 -38 -91 -102 -127 -141 -36 -39 -76 -87 -89 -106 -13 -20 -31 -38 -39 -41 -8 -3 -46 -48 -84 -99 -38 -51 -84 -106 -102 -123 -17 -16 -52 -60 -76 -97 -25 -37 -60 -80 -79 -95 -18 -16 -51 -55 -73 -88 -22 -33 -59 -78 -82 -100 -23 -22 -56 -60 -72 -85 -35 -52 -107 -129 -228 -244 -46 -45 -125 -123 -175 -175 -49 -52 -125 -130 -168 -174 -79 -83 -91 -103 -85 -153 l3 -29 80 -11 c170 -24 203 -34 396 -123 25 -12 50 -21 57 -21 6 0 26 -13 44 -28 18 -15 51 -40 73 -54 162 -109 335 -288 485 -502 60 -85 132 -223 128 -243 -3 -18 -41 -31 -115 -40 -37 -4 -43 -2 -59 24 -172 282 -351 478 -597 655 -67 48 -246 138 -274 138 -12 0 -37 8 -55 19 -18 10 -80 28 -138 39 -112 23 -244 23 -330 2 -25 -6 -56 -12 -70 -15 -44 -7 -108 -33 -147 -59 -21 -15 -44 -26 -52 -26 -7 0 -31 -16 -52 -35 -22 -19 -46 -35 -54 -35 -19 0 -140 -113 -174 -164 -25 -37 -29 -53 -35 -156 -12 -181 -14 -198 -29 -222 -8 -13 -18 -39 -22 -58 -12 -58 -42 -142 -69 -190 -13 -25 -32 -65 -42 -90 -10 -25 -42 -87 -71 -139 -29 -51 -53 -96 -53 -98 0 -3 -22 -33 -48 -67 -27 -33 -58 -77 -70 -96 -46 -76 -228 -230 -254 -214 -4 3 12 29 35 59 62 79 102 137 114 167 7 14 28 47 47 73 20 26 36 53 36 60 0 7 16 37 35 67 20 29 38 64 42 78 3 14 14 34 24 45 10 11 21 40 25 65 4 25 20 72 37 105 28 57 49 126 84 275 29 126 35 198 39 480 4 256 8 298 30 409 23 111 33 147 72 256 27 73 45 134 54 180 5 28 14 64 19 81 20 68 0 202 -40 268 -43 69 -120 54 -141 -26 -25 -98 -28 -106 -131 -323 -15 -33 -44 -78 -63 -100 l-36 -40 -23 26 c-15 16 -28 51 -36 90 -7 35 -17 74 -22 87 -5 13 -9 34 -9 48 0 37 -71 210 -103 250 -21 28 -77 40 -106 25 -27 -15 -44 -49 -69 -146 -33 -123 -30 -363 7 -535 5 -25 7 -48 4 -53 -3 -4 -23 7 -46 26 -23 18 -63 46 -89 61 -25 15 -52 33 -58 41 -7 8 -21 15 -30 15 -10 0 -31 10 -47 23 -33 27 -137 78 -328 161 -33 14 -76 27 -95 28 l-35 3 0 -56 c0 -52 4 -61 40 -101 43 -48 104 -131 202 -276 34 -51 79 -113 99 -138 23 -28 34 -48 28 -54 -6 -6 -42 -6 -94 1 -47 5 -127 14 -178 19 -51 5 -97 12 -101 14 -5 3 -41 10 -81 17 -83 13 -90 9 -90 -54 0 -35 7 -46 87 -122 48 -46 107 -95 132 -108 25 -13 78 -41 116 -62 39 -20 88 -46 110 -56 22 -11 47 -24 55 -29 8 -6 36 -21 62 -35 61 -32 67 -53 30 -107 -16 -24 -38 -61 -50 -83 -11 -22 -30 -49 -42 -60 -22 -19 -110 -149 -110 -161 0 -3 -20 -53 -45 -110 -25 -56 -45 -114 -45 -127 0 -13 -9 -49 -19 -80 -11 -30 -17 -58 -14 -60 2 -3 -2 -54 -11 -114 -18 -131 -20 -212 -5 -267 6 -23 13 -62 15 -88 4 -58 42 -187 60 -209 8 -8 14 -22 14 -30 0 -38 110 -207 194 -297 63 -67 137 -112 183 -112 56 1 194 57 259 105 16 13 48 31 69 40 22 9 49 24 60 35 11 10 34 26 51 37 62 37 143 93 149 103 4 6 24 19 45 30 21 11 69 42 106 70 37 27 71 50 76 50 5 0 30 15 56 32 84 58 228 127 300 145 l71 17 27 -27 27 -27 -6 -78 c-7 -88 -16 -119 -63 -217 -18 -38 -36 -81 -39 -93 -10 -34 -99 -186 -148 -253 -23 -31 -57 -77 -75 -103 -17 -26 -40 -50 -50 -53 -9 -4 -30 -17 -46 -30 -42 -35 -53 -15 -23 44 14 27 33 55 42 63 9 8 28 34 41 59 14 25 38 69 54 96 16 28 30 62 30 76 0 15 7 33 16 40 9 8 35 52 58 99 41 84 51 146 33 194 -14 36 -137 -9 -187 -69 -8 -9 -46 -41 -85 -71 -38 -30 -101 -79 -140 -109 -62 -50 -114 -87 -195 -142 -78 -53 -140 -93 -143 -93 -2 0 -50 -25 -106 -55 -57 -30 -124 -60 -150 -66 -25 -6 -63 -18 -83 -26 -35 -15 -41 -15 -80 1 -82 34 -91 42 -145 130 -99 162 -140 213 -203 250 -78 46 -109 51 -171 31 -42 -14 -70 -36 -153 -119 -117 -118 -238 -257 -276 -318 -15 -24 -49 -68 -76 -98 -45 -50 -93 -114 -119 -158 -31 -53 -107 -166 -135 -200 -31 -39 -38 -50 -92 -150 -15 -28 -32 -54 -38 -57 -18 -11 -59 -82 -80 -138 -11 -28 -33 -72 -50 -97 -16 -25 -30 -54 -30 -65 0 -27 -63 -138 -75 -134 -14 6 -7 46 16 99 26 58 58 204 66 303 l6 77 -56 0 c-44 0 -57 -4 -61 -17 -17 -51 -165 -172 -230 -189 -38 -9 -40 9 -11 128 14 58 25 118 25 133 0 14 5 35 11 46 12 23 37 150 73 373 18 113 20 162 7 171 -14 8 -91 -6 -91 -16 0 -5 -15 -31 -33 -57 -18 -26 -51 -78 -72 -117 -22 -38 -45 -79 -52 -90 -13 -21 -23 -43 -78 -165 -84 -188 -95 -210 -104 -210 -10 0 -56 77 -66 113 -4 12 -33 76 -65 142 -32 66 -60 128 -63 138 -4 11 -17 17 -37 17 -71 0 -79 -17 -111 -239 -18 -119 -19 -153 -10 -199 13 -64 14 -139 3 -146 -20 -12 -87 54 -209 206 -49 60 -90 82 -118 64 -48 -32 -28 -177 74 -531 38 -132 25 -309 -33 -439 -13 -28 -31 -76 -41 -106 -10 -30 -35 -91 -57 -135 -22 -44 -49 -107 -60 -140 -11 -33 -35 -96 -53 -140 -79 -194 -111 -360 -86 -451 13 -49 118 -154 185 -185 22 -11 64 -33 91 -51 28 -17 93 -49 145 -71 52 -21 107 -48 122 -59 49 -34 373 -196 425 -211 26 -8 81 -31 121 -51 67 -35 86 -56 62 -71 -5 -3 -23 -47 -39 -98 -16 -51 -38 -112 -50 -137 -11 -25 -21 -62 -21 -83 0 -21 -7 -52 -17 -70 -15 -30 -25 -66 -53 -192 -6 -27 -18 -72 -25 -100 -22 -76 -34 -422 -19 -515 16 -96 56 -188 105 -243 30 -34 45 -58 39 -62 -34 -21 -180 50 -223 108 -23 30 -46 91 -62 162 -4 17 -8 89 -10 161 -1 73 -6 137 -9 143 -13 21 -37 11 -86 -35 -37 -35 -58 -67 -90 -139 -22 -52 -62 -134 -87 -182 -25 -49 -54 -115 -64 -148 -25 -88 -49 -148 -64 -165 -7 -8 -18 -40 -26 -70 -7 -30 -23 -76 -36 -102 -13 -26 -30 -71 -37 -100 -8 -29 -24 -80 -36 -113 -12 -33 -26 -78 -32 -100 -6 -22 -21 -65 -34 -95 -12 -30 -28 -77 -35 -105 -6 -27 -22 -75 -35 -105 -12 -30 -26 -73 -30 -95 -3 -22 -12 -51 -19 -65 -7 -14 -16 -43 -20 -65 -4 -22 -22 -87 -40 -145 -18 -58 -43 -141 -55 -185 -12 -44 -30 -103 -41 -130 -10 -28 -19 -63 -19 -77 0 -15 -9 -50 -20 -78 -11 -28 -20 -63 -20 -78 0 -15 -9 -47 -20 -71 -11 -24 -20 -56 -20 -72 0 -16 -7 -46 -16 -67 -8 -20 -19 -57 -24 -82 -4 -25 -20 -90 -35 -145 -28 -106 -55 -216 -85 -356 -10 -47 -26 -119 -35 -160 -9 -41 -21 -94 -27 -119 -6 -25 -14 -65 -18 -90 -5 -25 -22 -108 -38 -185 -16 -77 -35 -178 -42 -225 -6 -47 -16 -103 -20 -125 -5 -22 -12 -69 -15 -105 -4 -36 -10 -85 -15 -110 -21 -104 -30 -217 -36 -415 -7 -257 -11 -349 -24 -580 -5 -99 -12 -245 -15 -325 -3 -80 -9 -174 -15 -210 -5 -36 -12 -128 -15 -205 -3 -77 -10 -185 -15 -240 -29 -322 -42 -476 -45 -520 -2 -52 -16 -170 -37 -315 -6 -47 -13 -112 -15 -145 -4 -53 -22 -220 -38 -330 -3 -22 -10 -80 -16 -130 -6 -49 -17 -128 -24 -175 -8 -47 -19 -121 -26 -165 -6 -44 -15 -100 -19 -125 -4 -25 -13 -81 -19 -125 -13 -84 -61 -340 -87 -460 -9 -38 -20 -92 -26 -120 -5 -27 -18 -79 -28 -115 -10 -36 -18 -75 -18 -87 0 -12 -8 -42 -16 -67 -9 -26 -16 -57 -16 -69 0 -12 -10 -42 -22 -67 -11 -25 -24 -65 -29 -90 -4 -25 -26 -94 -47 -155 -22 -60 -45 -126 -52 -145 -7 -19 -21 -54 -31 -78 -11 -23 -19 -53 -19 -65 0 -12 -7 -33 -16 -46 -9 -13 -30 -49 -46 -80 -17 -31 -40 -72 -53 -91 -12 -19 -39 -66 -60 -104 -21 -39 -64 -96 -97 -128 -58 -58 -72 -90 -46 -116 17 -17 135 -14 183 4 22 9 54 18 70 21 17 3 37 11 45 18 8 7 38 24 66 38 27 14 56 33 63 41 8 9 19 16 25 16 7 0 32 17 56 37 24 20 56 44 71 53 15 8 80 63 144 123 65 59 129 110 143 113 60 12 114 37 128 59 15 23 48 105 65 161 15 50 42 68 114 72 56 4 67 8 95 37 27 28 34 45 41 102 18 142 25 166 56 194 31 27 82 48 168 68 75 18 107 37 140 84 l30 42 0 185 c0 128 4 192 12 206 14 25 70 74 83 74 17 0 141 91 191 140 29 29 59 98 59 137 0 14 -7 49 -14 77 -8 28 -24 92 -36 141 -12 50 -26 107 -32 128 -21 69 0 103 122 200 137 108 180 168 180 251 0 61 -22 110 -84 190 -17 22 -38 51 -46 66 -50 91 -80 151 -80 162 0 16 87 93 115 102 34 11 142 139 156 184 15 51 2 105 -36 150 -14 17 -25 36 -25 44 0 8 -10 23 -21 34 -12 10 -50 63 -86 116 -47 70 -63 102 -58 117 8 26 68 78 114 99 46 21 168 127 176 153 17 54 -41 188 -128 294 -50 61 -117 167 -117 184 0 24 31 50 115 99 125 72 165 116 165 180 0 49 -79 240 -175 425 -26 49 -2 99 95 200 46 49 97 96 112 105 15 9 30 23 33 32 3 9 27 39 54 67 82 86 85 158 15 311 -13 29 -24 57 -24 64 0 6 -7 16 -17 23 -10 8 -18 32 -21 69 -4 53 -2 61 33 112 21 30 51 66 67 79 64 54 195 206 222 258 l29 55 -11 84 c-19 132 -17 141 34 208 25 33 55 65 67 72 62 33 277 240 277 266 0 11 9 27 19 36 28 26 101 197 101 238 0 21 7 41 16 49 9 7 29 36 45 65 34 59 227 244 256 244 5 0 34 24 64 54 31 29 62 57 70 62 35 22 149 237 149 281 0 42 43 123 85 163 21 19 52 58 71 86 18 28 62 83 98 122 36 39 77 91 92 114 15 24 52 70 84 103 31 33 69 80 85 104 15 25 59 78 96 117 38 40 69 78 69 84 0 6 29 41 64 79 35 37 75 86 89 108 15 23 51 67 82 98 31 32 69 77 85 100 16 24 58 75 92 114 71 79 139 162 212 254 27 34 75 91 108 126 32 36 66 80 75 99 9 18 33 47 54 64 21 17 62 64 90 105 28 41 57 77 65 80 7 3 47 48 87 101 41 54 85 106 97 117 12 11 44 52 70 90 26 39 65 86 85 105 20 19 55 62 78 95 22 33 65 86 94 118 29 33 76 92 103 132 27 41 58 80 69 87 20 14 67 74 121 153 18 28 56 75 85 105 28 30 66 81 84 113 18 32 56 84 85 115 70 78 114 136 125 166 10 25 95 142 109 148 14 6 111 155 158 243 14 28 34 59 44 70 10 11 30 43 45 70 76 145 95 178 111 203 31 45 51 85 58 117 4 17 13 37 20 45 7 8 28 51 45 95 18 44 44 100 57 124 36 65 114 241 114 256 0 7 26 64 59 127 32 62 71 151 87 198 15 47 37 101 49 120 37 61 135 259 135 272 0 8 15 36 33 63 17 28 38 61 45 75 7 14 24 43 37 65 13 22 37 66 54 97 17 32 46 79 65 105 19 26 57 79 83 117 73 105 84 119 138 182 82 96 392 404 407 404 7 0 41 25 75 55 33 30 66 55 72 55 6 0 26 16 45 35 20 19 41 35 49 35 7 0 24 12 38 26 13 14 42 35 64 46 22 11 47 29 55 39 9 11 38 34 67 52 28 17 77 50 108 72 86 60 312 210 350 232 11 6 56 33 100 59 44 26 98 57 120 69 22 12 67 37 100 56 33 19 76 41 95 49 46 18 269 126 295 142 98 62 324 242 413 329 23 23 54 61 68 85 14 24 33 44 41 44 9 0 21 6 27 14 6 8 47 19 91 25 145 19 157 24 236 90 41 34 83 78 94 99 11 20 32 56 47 78 15 23 34 57 43 75 27 59 40 76 108 148 37 39 74 71 82 71 9 0 33 18 54 40 21 22 47 40 59 40 11 0 33 6 49 14 15 8 64 24 108 36 44 11 94 29 112 38 59 31 163 132 190 185 25 49 27 59 27 197 0 101 -4 152 -13 169 -8 14 -20 52 -27 85 -8 34 -25 90 -38 126 -13 36 -34 101 -45 145 -12 44 -26 95 -32 114 -31 96 -24 308 16 486 9 39 20 100 24 136 5 36 15 76 24 90 8 13 23 53 33 89 10 36 37 112 61 170 24 57 43 114 43 126 0 12 7 27 15 34 8 6 17 22 21 33 9 29 93 177 114 202 25 28 32 99 13 118 -19 19 -10 47 14 47 32 0 237 83 248 100 3 5 17 10 30 10 29 0 89 45 182 138 107 106 119 128 142 262 15 90 18 147 15 261 -2 81 -8 158 -14 173 -5 15 -10 45 -10 67 0 22 -7 56 -15 76 -8 19 -15 44 -15 54 0 25 -62 148 -94 185 -33 40 -120 86 -154 83 -15 -2 -40 4 -57 13 -64 33 -125 68 -149 84 -35 22 -87 33 -114 23z m121 -216 c10 -9 -43 -63 -61 -63 -8 0 -25 -9 -39 -20 -38 -30 -52 -11 -14 19 17 14 31 32 31 39 0 21 67 41 83 25z m-197 -114 c10 -16 -41 -63 -60 -56 -9 4 -13 13 -11 22 3 8 7 22 10 30 5 17 51 20 61 4z m-221 -138 c8 -13 -39 -66 -52 -58 -12 8 -23 54 -15 62 9 9 60 6 67 -4z m-188 -134 c14 -14 12 -17 -14 -31 l-30 -15 -32 33 c-17 18 -29 35 -26 38 10 9 86 -9 102 -25z m-62 -77 c3 -5 -13 -30 -36 -55 -23 -24 -47 -62 -54 -82 -11 -32 -18 -39 -44 -41 -21 -2 -39 -14 -57 -38 -29 -37 -47 -34 -60 9 -3 12 -16 30 -28 39 -29 23 -11 39 51 45 62 6 86 18 107 54 9 16 38 40 64 54 56 29 50 27 57 15z m-242 -408 c-3 -20 -14 -55 -24 -78 -10 -22 -21 -64 -25 -92 -3 -28 -13 -57 -20 -63 -8 -6 -14 -17 -14 -23 0 -17 -30 -57 -39 -51 -5 2 0 28 10 57 30 86 26 118 -21 163 -21 21 -37 42 -34 46 3 5 25 8 49 7 48 -2 80 18 96 60 13 35 28 17 22 -26z m-257 -277 c34 -26 55 -35 84 -35 21 0 41 -4 44 -8 8 -14 -67 -105 -109 -132 -22 -15 -60 -34 -85 -44 -25 -10 -54 -23 -65 -28 -11 -6 -35 -12 -55 -13 -19 -2 -64 -8 -100 -15 -36 -6 -81 -13 -100 -15 -57 -6 -106 -32 -140 -72 -42 -50 -125 -224 -140 -293 -7 -30 -16 -59 -20 -65 -4 -5 -32 -57 -62 -115 -31 -58 -71 -128 -89 -157 -19 -28 -52 -82 -74 -119 -22 -37 -58 -88 -81 -113 -22 -25 -77 -102 -122 -171 -45 -69 -105 -155 -133 -192 -29 -37 -68 -96 -87 -130 -32 -57 -111 -236 -132 -298 -24 -71 -42 -135 -65 -225 -14 -55 -34 -131 -45 -170 -11 -38 -29 -110 -40 -160 -12 -49 -37 -138 -56 -197 -19 -59 -34 -115 -34 -124 0 -9 -20 -58 -45 -110 -25 -51 -45 -98 -45 -105 0 -27 -108 -181 -122 -173 -4 3 10 37 31 77 21 40 45 95 54 122 38 126 66 222 70 245 3 14 14 61 26 105 28 107 27 165 -4 230 -13 29 -32 55 -40 59 -31 12 -3 26 51 26 47 0 56 3 63 23 18 45 34 132 35 185 0 49 -2 56 -29 76 -96 69 -97 91 -4 80 70 -8 93 6 104 62 3 20 15 50 26 67 12 21 19 50 19 85 0 47 -4 55 -36 86 -42 39 -33 52 26 36 22 -6 46 -7 54 -3 7 4 38 37 67 72 l54 65 -1 55 c0 31 -3 63 -5 71 -3 12 4 14 34 12 49 -4 80 16 118 76 42 67 40 107 -12 166 -32 36 -37 47 -26 52 9 3 24 1 34 -4 10 -6 40 -13 66 -17 58 -9 76 4 143 106 58 87 60 131 9 172 -48 38 -37 50 41 42 57 -7 65 -5 71 11 3 11 15 30 25 43 12 16 18 40 18 75 -1 42 -6 57 -30 85 -16 19 -27 38 -24 43 3 5 28 6 55 2 l49 -7 33 35 c51 54 70 135 42 174 -19 29 -11 34 51 34 43 0 58 5 93 33 36 28 41 36 38 67 -2 19 -6 42 -8 50 -6 21 36 15 71 -10 42 -30 81 -34 144 -16 l55 16 -5 33 c-4 17 -15 47 -26 66 -32 57 -5 56 47 -1 63 -68 80 -77 137 -78 58 0 105 26 113 62 6 26 -1 44 -46 115 -17 28 -19 53 -3 53 2 0 24 -16 50 -35z m-1088 -347 c19 -19 15 -26 -32 -47 -32 -14 -50 -30 -65 -58 -12 -24 -46 -59 -89 -91 -38 -28 -95 -83 -126 -122 -40 -49 -66 -73 -86 -77 -16 -3 -57 -29 -92 -59 -34 -29 -66 -50 -69 -46 -4 4 -5 22 -2 41 5 26 13 36 41 48 20 8 68 45 107 82 38 37 84 73 100 80 17 7 75 60 130 118 86 92 145 143 166 143 3 0 10 -5 17 -12z m855 -1964 c-11 -17 -19 -22 -26 -15 -7 7 -5 17 8 31 24 27 39 15 18 -16z m-60 -77 c-10 -12 -54 -60 -98 -107 -123 -129 -203 -235 -215 -283 -6 -23 -15 -55 -20 -71 -20 -59 -12 -149 18 -207 37 -74 81 -103 145 -95 57 6 148 56 177 96 24 34 80 156 80 176 0 8 14 39 30 68 17 30 33 74 36 97 5 41 38 134 55 153 18 20 19 -27 5 -150 -26 -220 -49 -307 -97 -380 -14 -22 -33 -51 -43 -66 -9 -16 -21 -28 -27 -28 -6 0 -23 -8 -37 -18 -74 -52 -207 -66 -287 -32 -73 31 -110 66 -148 138 -72 137 -64 281 21 415 21 31 130 117 242 189 14 9 56 44 93 77 38 34 73 59 78 55 6 -4 3 -15 -8 -27z m-3659 -2386 l38 -39 -12 -108 c-6 -60 -13 -140 -16 -179 -3 -38 -14 -97 -24 -130 -11 -33 -31 -114 -45 -180 -14 -65 -30 -124 -35 -130 -12 -14 -47 -123 -55 -170 -4 -22 -14 -48 -22 -57 -19 -21 -54 -103 -88 -206 -14 -40 -34 -86 -45 -102 -11 -16 -32 -53 -46 -82 -14 -29 -29 -60 -34 -68 -54 -88 -88 -152 -94 -176 -9 -35 -154 -288 -215 -374 -25 -35 -64 -96 -87 -135 -22 -38 -65 -108 -94 -155 -29 -47 -61 -99 -70 -116 -22 -41 -114 -169 -157 -217 -19 -21 -39 -50 -46 -65 -6 -15 -22 -40 -36 -57 -13 -16 -32 -47 -41 -67 -9 -21 -55 -84 -101 -139 -46 -56 -95 -121 -109 -145 -40 -67 -80 -124 -140 -196 -30 -36 -76 -99 -102 -140 -25 -40 -75 -107 -111 -148 -35 -41 -72 -91 -82 -110 -10 -19 -33 -53 -52 -75 -103 -123 -153 -187 -153 -195 0 -12 -56 -85 -125 -165 -29 -33 -59 -72 -66 -87 -15 -28 -108 -150 -172 -225 -20 -25 -45 -59 -53 -76 -9 -18 -37 -55 -63 -83 -47 -52 -136 -170 -159 -211 -7 -13 -32 -42 -55 -66 -23 -23 -65 -77 -92 -120 -28 -43 -75 -109 -105 -145 -76 -91 -150 -192 -150 -204 0 -5 -24 -35 -53 -66 -55 -58 -132 -163 -161 -220 -9 -18 -44 -65 -79 -104 -59 -70 -121 -157 -147 -207 -7 -13 -33 -50 -58 -83 -99 -126 -138 -181 -177 -244 -72 -118 -126 -198 -154 -229 -15 -16 -58 -77 -96 -135 -37 -58 -76 -117 -86 -131 -24 -36 -143 -237 -163 -276 -8 -17 -33 -52 -55 -76 -21 -25 -80 -119 -131 -209 -52 -90 -101 -174 -110 -188 -10 -14 -33 -54 -52 -90 -19 -36 -59 -105 -88 -155 -97 -164 -110 -190 -110 -217 0 -15 -5 -30 -10 -33 -6 -3 -19 -23 -29 -43 -10 -20 -41 -80 -69 -133 -27 -53 -53 -114 -57 -136 -3 -22 -14 -51 -23 -64 -9 -14 -32 -49 -51 -77 -39 -59 -61 -60 -31 -2 11 22 20 50 20 64 0 14 14 49 31 78 60 101 81 143 104 216 13 41 30 81 38 90 14 17 110 192 131 242 6 13 32 66 57 116 26 50 54 114 63 142 10 28 24 56 32 62 7 7 14 17 14 22 0 6 26 54 58 108 77 133 73 126 220 380 72 124 151 252 177 285 25 33 66 94 91 135 25 41 68 110 97 153 64 95 107 164 180 288 31 53 64 103 73 110 9 7 34 38 55 69 21 30 47 66 57 80 18 25 52 76 127 195 21 33 64 92 95 130 48 60 122 168 184 268 9 15 28 40 41 55 46 51 88 107 162 217 40 61 102 145 137 188 34 43 69 90 77 105 20 40 86 130 137 186 24 28 52 66 63 85 33 60 105 160 156 215 26 29 66 83 88 120 22 37 63 96 92 129 29 34 87 114 130 177 43 63 101 143 128 177 66 81 108 140 135 187 12 22 46 69 75 105 89 108 101 125 115 151 7 14 21 34 30 45 10 11 30 42 44 69 14 26 59 90 101 142 41 51 106 146 145 211 39 65 87 138 108 163 21 25 47 59 57 75 11 17 33 48 51 70 17 22 54 81 83 130 66 114 71 123 99 163 13 18 32 52 43 77 11 24 24 47 30 50 5 4 23 34 41 68 17 34 43 80 58 102 15 22 31 51 35 65 4 14 15 34 25 45 10 11 39 61 65 110 27 50 56 105 66 124 10 18 25 41 33 50 8 9 18 30 22 46 4 17 13 41 20 55 8 14 25 59 39 100 14 41 32 80 40 86 8 6 15 17 15 24 0 7 9 27 20 44 10 18 26 57 34 87 26 95 34 118 50 141 9 12 16 36 16 53 0 17 9 48 19 69 11 21 23 63 27 94 4 31 13 71 20 89 8 18 16 51 19 72 3 22 9 51 14 64 5 13 12 82 16 153 9 153 20 185 72 213 53 28 64 26 107 -18z m-4399 -2312 c-14 -41 -30 -96 -35 -124 -4 -27 -13 -62 -19 -77 -6 -15 -12 -96 -13 -180 -3 -131 0 -158 15 -185 l18 -33 77 -2 c42 -1 100 -2 127 -3 28 0 75 -5 105 -12 30 -7 82 -17 115 -22 128 -20 301 -84 435 -161 69 -39 118 -78 196 -156 57 -56 104 -110 104 -118 0 -17 35 -89 62 -126 19 -27 39 -144 43 -251 1 -36 5 -71 8 -76 4 -6 2 -25 -4 -44 -6 -19 -15 -81 -19 -139 -5 -58 -18 -143 -30 -190 -44 -175 -70 -263 -89 -294 -11 -17 -29 -56 -41 -86 -11 -30 -27 -69 -35 -87 -8 -17 -15 -38 -15 -46 0 -8 -11 -31 -25 -51 -14 -20 -32 -51 -41 -69 -9 -17 -34 -54 -55 -82 -92 -117 -110 -143 -138 -190 -17 -27 -53 -77 -81 -110 -27 -33 -77 -94 -109 -136 -66 -84 -118 -132 -132 -123 -11 6 34 91 87 167 19 26 34 50 34 53 0 3 8 18 19 32 24 35 115 192 179 312 28 52 59 127 69 165 10 39 27 84 39 101 11 18 28 58 37 90 10 33 26 86 37 119 11 33 20 69 20 80 1 11 8 38 16 60 24 64 46 238 51 408 5 165 -2 215 -48 336 -20 54 -101 166 -137 189 -15 9 -57 43 -95 74 -41 35 -77 58 -91 58 -13 0 -29 7 -36 15 -7 8 -18 15 -25 15 -14 0 -112 41 -166 70 -21 11 -57 22 -80 26 -24 4 -77 20 -117 35 -40 16 -86 29 -102 29 -16 0 -44 9 -62 19 -18 11 -60 27 -93 37 -137 39 -215 87 -215 132 0 33 77 261 99 292 10 14 22 37 26 50 4 14 13 32 19 40 12 15 49 104 61 150 4 14 19 44 33 68 38 66 48 38 17 -49z"/>
<path d="M12612 23318 c-16 -16 -15 -63 1 -75 6 -6 30 -15 52 -21 68 -19 147 -49 154 -60 3 -5 21 -13 39 -17 18 -3 37 -15 42 -25 6 -11 16 -17 23 -14 15 6 44 -6 102 -41 22 -14 52 -30 68 -36 15 -6 32 -20 38 -30 5 -10 17 -19 26 -19 9 0 37 -17 62 -39 26 -21 57 -42 71 -46 34 -10 570 -545 570 -569 0 -10 29 -50 65 -88 36 -39 62 -74 59 -79 -3 -5 15 -33 40 -63 25 -29 43 -56 40 -59 -3 -3 12 -28 35 -55 23 -26 41 -55 41 -63 0 -9 11 -26 25 -39 14 -13 25 -30 25 -38 0 -7 9 -25 20 -39 11 -14 20 -31 20 -38 0 -7 6 -18 14 -24 8 -7 17 -23 20 -37 4 -13 15 -33 26 -44 11 -11 20 -31 20 -45 0 -14 9 -34 20 -45 11 -11 20 -28 20 -39 0 -10 6 -24 14 -30 8 -7 18 -25 21 -41 3 -16 13 -31 21 -34 8 -3 14 -14 14 -24 0 -11 7 -25 15 -32 8 -7 29 -42 47 -79 18 -36 40 -77 50 -90 10 -13 18 -31 18 -41 0 -9 9 -25 20 -35 11 -10 20 -26 20 -35 0 -10 6 -23 14 -29 8 -7 18 -25 21 -41 3 -16 13 -31 21 -34 8 -3 14 -14 14 -24 0 -11 9 -31 20 -45 11 -14 20 -34 20 -46 0 -11 9 -25 19 -31 11 -5 24 -25 31 -44 6 -19 18 -40 26 -46 7 -7 14 -19 14 -27 0 -8 9 -26 20 -40 11 -14 20 -32 20 -39 0 -8 9 -23 20 -34 11 -11 20 -28 20 -39 0 -10 6 -24 14 -30 8 -7 18 -25 21 -41 3 -16 13 -31 21 -34 8 -3 14 -14 14 -25 0 -11 9 -29 21 -40 11 -10 22 -31 23 -46 2 -14 13 -33 25 -41 11 -8 21 -23 21 -33 0 -10 9 -30 20 -44 11 -14 20 -32 20 -40 0 -7 9 -22 20 -32 11 -10 20 -26 20 -37 0 -10 9 -27 20 -38 11 -11 20 -28 20 -39 0 -10 6 -24 14 -30 8 -7 18 -25 21 -41 3 -16 13 -31 21 -34 8 -3 14 -15 14 -26 0 -11 9 -28 20 -37 11 -10 20 -27 20 -38 0 -12 11 -32 25 -45 14 -13 25 -30 25 -38 0 -7 9 -25 20 -39 11 -14 20 -32 20 -40 0 -8 9 -26 20 -40 11 -14 20 -34 20 -43 0 -10 6 -20 14 -23 8 -3 17 -19 21 -35 3 -17 13 -33 21 -36 8 -3 14 -17 14 -31 0 -14 9 -33 20 -42 11 -10 20 -25 20 -34 0 -9 9 -24 20 -34 11 -10 20 -28 20 -40 0 -12 11 -32 25 -45 14 -13 25 -30 25 -38 0 -7 9 -25 20 -39 11 -14 20 -32 20 -39 0 -8 9 -23 20 -34 11 -11 20 -31 20 -44 0 -13 6 -26 14 -29 8 -3 17 -19 21 -35 3 -17 13 -33 21 -36 8 -3 14 -14 14 -24 0 -10 9 -27 20 -37 11 -10 20 -28 20 -41 0 -13 8 -31 18 -41 11 -10 33 -48 51 -85 17 -36 38 -72 46 -78 8 -7 15 -22 15 -35 0 -12 9 -30 20 -40 11 -10 20 -26 20 -35 0 -10 6 -23 14 -29 8 -7 18 -25 21 -41 3 -16 13 -31 21 -34 8 -3 14 -15 14 -26 0 -11 9 -28 20 -37 11 -10 20 -27 20 -39 0 -11 11 -33 25 -48 14 -15 25 -33 25 -40 0 -7 9 -25 20 -39 11 -14 20 -34 20 -46 0 -11 10 -25 21 -32 l22 -11 -29 -24 c-16 -13 -36 -23 -45 -24 -9 0 -28 -9 -42 -20 -14 -11 -32 -20 -40 -20 -7 0 -22 -9 -32 -20 -10 -11 -27 -22 -39 -26 -11 -4 -32 -15 -45 -25 -13 -11 -30 -19 -38 -19 -8 0 -26 -9 -40 -20 -14 -11 -32 -20 -39 -20 -8 0 -23 -9 -34 -20 -11 -11 -29 -20 -40 -20 -11 0 -29 -9 -40 -20 -11 -11 -29 -20 -39 -20 -10 0 -21 -7 -25 -15 -3 -8 -14 -15 -24 -15 -10 0 -27 -9 -37 -20 -10 -11 -28 -20 -40 -20 -12 0 -32 -11 -45 -25 -13 -14 -30 -25 -38 -25 -7 0 -25 -9 -39 -20 -14 -11 -34 -20 -43 -20 -10 0 -20 -6 -23 -14 -3 -8 -20 -17 -37 -21 -18 -4 -41 -16 -51 -26 -10 -10 -27 -19 -37 -19 -13 0 -24 -14 -35 -41 -9 -23 -14 -45 -12 -49 2 -4 33 -10 67 -14 35 -3 97 -13 138 -21 41 -7 113 -18 160 -24 47 -6 108 -15 135 -20 76 -15 251 -42 335 -51 41 -5 107 -15 145 -23 39 -9 106 -18 149 -22 44 -4 97 -13 119 -21 22 -8 60 -14 86 -14 25 0 93 -9 151 -19 110 -20 204 -35 330 -52 85 -11 139 -19 360 -55 85 -14 189 -29 230 -34 41 -5 104 -16 140 -24 36 -9 85 -16 109 -16 25 0 92 -9 150 -20 168 -31 300 -52 386 -61 44 -4 105 -13 135 -19 30 -5 89 -15 130 -20 41 -6 93 -15 115 -20 31 -8 49 -8 80 3 34 12 40 18 40 44 1 16 11 42 23 58 12 15 22 35 22 44 0 9 9 34 20 56 11 22 20 44 20 51 0 6 7 17 15 24 8 7 15 20 15 29 0 10 11 32 25 51 17 22 23 41 19 56 -5 19 -1 26 20 34 20 7 26 16 26 41 0 17 9 42 20 56 11 14 20 36 20 48 0 12 6 28 14 34 8 7 17 27 20 45 4 19 13 39 20 45 8 7 17 24 21 38 3 15 15 37 26 51 12 16 17 33 13 48 -5 19 -1 26 21 34 22 8 26 15 23 35 -4 16 3 36 18 57 13 17 24 42 24 54 0 12 6 27 14 33 8 7 17 27 20 45 4 19 13 39 20 45 8 7 17 24 21 39 4 15 14 35 22 44 9 10 17 30 19 45 1 15 12 34 25 43 14 12 19 23 15 36 -4 13 3 32 19 54 14 19 25 44 25 55 0 12 9 30 20 40 11 10 20 28 20 41 0 13 4 25 9 29 5 3 15 22 22 43 6 20 17 44 25 52 7 8 15 29 18 45 3 16 15 37 26 45 16 12 20 22 15 43 -6 23 -3 28 20 37 22 8 26 15 21 34 -4 15 2 34 19 56 14 19 25 43 25 54 0 12 7 30 15 40 8 11 15 27 15 37 0 9 9 27 19 41 11 13 23 38 27 54 4 16 15 37 26 47 11 11 17 26 13 37 -4 13 2 24 20 36 21 13 25 22 20 43 -4 20 0 33 20 51 15 14 25 34 25 51 0 18 7 32 20 39 12 7 20 21 20 38 0 15 7 36 15 46 8 11 15 27 15 36 0 9 11 31 25 50 14 20 23 41 20 51 -4 12 2 23 19 34 17 11 24 25 24 45 -1 15 9 40 21 55 11 15 21 37 21 49 0 12 9 29 20 39 11 9 20 25 20 35 0 10 9 35 20 57 11 22 20 44 20 51 0 6 7 17 15 24 8 7 15 22 15 34 0 13 11 33 26 46 17 17 23 31 19 47 -3 15 1 26 14 35 10 7 21 30 24 53 3 22 7 49 9 60 2 15 -2 19 -17 18 -54 -6 -92 -18 -114 -34 -13 -11 -32 -19 -41 -19 -10 0 -20 -7 -24 -15 -3 -8 -15 -15 -26 -15 -11 0 -28 -9 -37 -20 -10 -11 -27 -20 -39 -20 -11 0 -29 -9 -39 -20 -10 -11 -27 -22 -39 -26 -11 -4 -32 -15 -45 -25 -13 -11 -30 -19 -38 -19 -8 0 -26 -9 -40 -20 -14 -11 -32 -20 -39 -20 -8 0 -23 -9 -34 -20 -11 -11 -29 -20 -40 -20 -10 0 -24 -9 -30 -20 -8 -15 -17 -18 -39 -14 -21 4 -30 2 -35 -11 -6 -17 -8 -17 -26 0 -11 10 -20 26 -20 36 0 10 -8 25 -17 35 -17 16 -33 42 -65 104 -7 14 -18 29 -25 33 -7 4 -13 16 -13 26 0 10 -9 30 -20 44 -11 14 -20 32 -20 41 0 8 -9 20 -19 25 -10 6 -24 23 -30 38 -11 28 -21 47 -53 95 -10 15 -18 33 -18 41 0 7 -11 24 -25 37 -14 13 -25 29 -25 37 0 7 -9 22 -20 33 -11 11 -20 29 -20 39 0 10 -7 21 -15 25 -8 3 -15 14 -15 24 0 10 -11 29 -25 42 -14 13 -25 30 -25 38 0 7 -9 25 -20 39 -11 14 -20 31 -20 38 0 7 -7 15 -15 19 -8 3 -15 14 -15 24 0 10 -11 29 -25 42 -14 13 -25 31 -25 41 0 10 -5 21 -11 25 -6 3 -18 21 -26 38 -29 63 -46 91 -60 99 -7 4 -13 18 -13 29 0 12 -10 32 -21 44 -23 25 -39 50 -62 100 -8 17 -20 35 -26 38 -6 4 -11 15 -11 25 0 10 -11 28 -25 41 -14 13 -25 29 -25 37 0 7 -9 22 -20 33 -11 11 -20 29 -20 39 0 10 -7 21 -15 25 -8 3 -15 14 -15 24 0 10 -11 29 -25 42 -14 13 -25 31 -25 40 0 9 -9 25 -20 35 -11 10 -20 26 -20 35 0 10 -7 20 -15 24 -8 3 -15 14 -15 24 0 10 -11 29 -24 41 -13 12 -32 39 -42 59 -11 20 -32 52 -47 71 -16 18 -34 45 -40 60 -6 14 -22 38 -36 53 -40 41 -54 59 -75 98 -10 19 -45 64 -77 99 -33 35 -58 70 -57 77 5 22 -558 584 -586 584 -8 0 -19 6 -23 13 -4 7 -20 20 -34 29 -14 9 -40 31 -57 48 -18 17 -36 29 -42 25 -5 -3 -15 3 -22 15 -7 11 -20 20 -29 20 -9 0 -24 9 -34 20 -10 11 -26 20 -36 20 -10 0 -21 5 -25 11 -3 6 -25 19 -48 30 -22 10 -48 23 -56 28 -33 20 -126 61 -138 61 -7 0 -20 4 -30 10 -9 5 -51 21 -93 35 l-76 25 -2094 0 c-1616 0 -2098 -3 -2107 -12z"/>
<path d="M11830 23120 c-179 -23 -424 -84 -490 -122 -8 -4 -22 -11 -30 -14 -31 -13 -217 -107 -255 -130 -22 -13 -49 -28 -60 -33 -12 -5 -27 -16 -34 -25 -7 -9 -33 -25 -56 -37 -24 -12 -63 -40 -87 -63 -23 -23 -59 -51 -78 -61 -55 -30 -398 -374 -420 -420 -10 -22 -28 -48 -39 -57 -12 -10 -21 -27 -21 -38 0 -11 -7 -23 -15 -26 -8 -4 -15 -12 -15 -19 0 -7 -9 -24 -20 -38 -11 -14 -20 -32 -20 -41 0 -9 -11 -21 -25 -26 -18 -7 -25 -17 -25 -35 0 -14 -7 -28 -15 -31 -8 -4 -15 -14 -15 -24 0 -10 -12 -28 -26 -39 -19 -15 -24 -26 -19 -41 5 -16 2 -23 -14 -27 -12 -3 -22 -17 -26 -35 -4 -16 -13 -32 -21 -35 -8 -3 -14 -13 -14 -22 0 -10 -11 -28 -25 -41 -14 -13 -25 -30 -25 -38 0 -9 -6 -23 -14 -31 -8 -9 -26 -39 -40 -67 -15 -29 -36 -60 -46 -69 -11 -10 -20 -26 -20 -36 0 -10 -6 -22 -13 -26 -7 -4 -18 -19 -25 -33 -32 -62 -48 -88 -64 -104 -10 -10 -18 -26 -18 -36 0 -11 -6 -23 -13 -27 -7 -4 -18 -19 -25 -33 -32 -62 -48 -88 -64 -104 -10 -10 -18 -25 -18 -33 0 -9 -6 -23 -14 -32 -8 -9 -26 -29 -41 -44 -18 -20 -24 -35 -20 -49 5 -14 1 -21 -14 -25 -12 -3 -22 -17 -26 -35 -4 -16 -13 -32 -21 -35 -8 -3 -14 -13 -14 -22 0 -10 -12 -27 -26 -40 -14 -12 -23 -29 -20 -36 3 -8 -3 -20 -14 -28 -10 -7 -22 -25 -26 -41 -3 -15 -13 -30 -20 -33 -8 -3 -14 -13 -14 -22 0 -10 -11 -27 -25 -39 -14 -12 -25 -31 -25 -41 0 -11 -6 -24 -13 -28 -7 -4 -18 -19 -25 -33 -13 -28 -27 -51 -54 -92 -10 -15 -18 -42 -18 -60 0 -27 6 -38 31 -53 17 -11 43 -28 58 -37 14 -10 33 -21 41 -24 8 -4 27 -18 42 -32 15 -14 31 -23 34 -19 4 3 21 -4 38 -17 17 -13 49 -33 71 -44 22 -11 49 -29 59 -41 11 -12 25 -21 33 -21 7 0 36 -16 63 -35 27 -19 56 -35 63 -35 8 0 24 -11 37 -25 13 -14 28 -25 34 -25 6 0 35 -16 63 -35 29 -19 57 -35 62 -35 5 0 22 -10 38 -23 15 -13 44 -32 63 -43 19 -10 47 -29 62 -42 14 -14 31 -21 36 -18 6 4 13 2 17 -3 9 -16 95 -71 109 -71 7 0 23 -11 36 -25 13 -14 32 -25 42 -25 10 0 21 -7 24 -15 4 -8 12 -15 19 -15 7 0 24 -9 38 -20 14 -11 32 -20 40 -20 7 0 22 -10 33 -21 10 -12 28 -25 39 -31 38 -17 66 -35 90 -58 13 -12 28 -19 33 -16 6 3 24 -5 40 -19 16 -13 52 -36 80 -50 27 -14 52 -32 56 -40 3 -8 12 -15 21 -15 8 0 38 -16 65 -35 27 -19 56 -35 63 -35 8 0 24 -11 37 -25 13 -14 28 -25 34 -25 7 0 35 -16 65 -35 29 -19 57 -35 61 -35 5 0 21 -10 37 -22 34 -28 61 -45 88 -57 11 -5 29 -18 39 -30 11 -11 27 -21 37 -21 10 0 21 -5 25 -11 3 -6 21 -18 38 -26 50 -23 75 -39 100 -62 12 -11 28 -21 34 -21 7 0 35 -16 62 -35 27 -19 56 -35 63 -35 8 0 24 -11 37 -25 13 -14 29 -25 37 -25 7 0 36 -16 63 -35 27 -19 53 -35 56 -35 3 0 20 -10 37 -22 37 -27 64 -44 92 -56 11 -6 29 -19 39 -31 11 -11 28 -21 38 -21 10 0 21 -6 24 -14 3 -8 18 -18 34 -21 16 -3 34 -13 41 -21 6 -8 17 -14 23 -14 7 0 23 -11 36 -25 13 -14 29 -25 37 -25 7 0 36 -16 64 -36 58 -40 122 -66 144 -58 8 4 15 17 15 30 0 12 6 27 13 31 7 4 18 19 25 33 14 30 42 76 84 139 10 14 22 35 27 46 5 11 18 29 30 39 11 11 21 25 21 33 0 7 16 36 35 63 19 27 35 54 35 59 0 5 10 22 23 38 13 15 27 35 31 43 16 33 34 62 56 85 12 13 19 28 16 34 -4 5 2 16 13 23 11 8 23 26 27 42 3 15 13 30 20 33 8 3 14 13 14 22 0 10 11 28 25 41 14 13 25 29 25 37 0 7 16 36 35 63 19 27 35 54 35 59 0 5 10 22 23 38 27 34 44 61 56 88 5 11 18 29 30 39 11 11 21 26 21 34 0 9 6 23 14 31 8 9 26 39 40 67 15 29 36 60 46 69 11 10 20 24 20 32 0 7 16 36 35 63 19 27 35 54 35 59 0 5 10 22 23 38 13 15 27 35 31 43 16 33 34 62 56 85 12 13 19 28 16 34 -4 5 2 16 13 23 11 8 23 26 27 42 3 15 13 30 20 33 8 3 14 11 14 18 0 8 11 27 25 43 14 17 25 35 25 41 0 6 15 33 33 59 18 26 38 59 45 75 6 15 16 27 21 27 5 0 14 12 20 28 17 40 35 70 60 96 11 12 21 30 21 39 0 9 6 20 13 24 7 4 18 19 25 33 41 79 52 97 66 109 9 8 16 22 16 33 0 10 6 21 14 24 8 3 17 16 20 29 4 14 15 29 26 35 11 6 20 19 20 30 0 10 5 22 11 26 6 3 18 21 26 38 22 48 38 75 60 99 11 12 23 30 26 40 4 9 11 17 17 17 6 0 10 24 10 56 0 41 -5 63 -20 81 -11 14 -20 33 -20 42 0 10 -7 26 -15 37 -8 10 -15 29 -15 42 0 12 -9 30 -20 39 -11 10 -20 27 -20 39 0 12 -10 34 -22 49 -12 16 -22 42 -23 59 0 21 -5 31 -15 31 -9 0 -16 11 -18 26 -2 15 -12 35 -23 45 -10 9 -19 25 -19 36 0 10 -9 26 -20 35 -11 10 -20 28 -20 41 0 14 -11 33 -25 44 -14 11 -25 26 -25 34 0 8 -9 23 -20 34 -11 11 -20 29 -20 39 0 10 -7 21 -15 25 -8 3 -15 14 -15 24 0 10 -10 27 -21 38 -12 10 -25 28 -30 39 -13 30 -31 56 -63 94 -16 19 -35 48 -43 65 -7 17 -38 60 -68 96 -30 36 -55 70 -55 75 0 10 -252 269 -378 388 -39 37 -78 67 -87 67 -9 0 -18 7 -21 15 -4 8 -12 15 -18 15 -7 0 -23 11 -36 25 -13 14 -33 25 -45 25 -12 0 -30 9 -40 20 -10 11 -25 20 -34 20 -21 0 -80 30 -116 58 -15 12 -34 22 -42 22 -8 0 -26 9 -40 20 -14 11 -31 20 -37 20 -7 0 -29 9 -51 20 -22 11 -46 20 -55 20 -9 0 -21 5 -28 12 -21 21 -184 58 -392 88 -73 10 -168 11 -250 0z"/>
<path d="M10160 17609 c-58 -4 -139 -13 -180 -19 -41 -6 -122 -15 -180 -19 -112 -9 -311 -29 -610 -61 -102 -11 -234 -25 -293 -30 -60 -5 -112 -12 -116 -14 -4 -3 -83 -10 -176 -16 -92 -6 -191 -16 -219 -21 -28 -6 -105 -14 -171 -19 -66 -5 -154 -14 -195 -19 -41 -6 -149 -17 -239 -26 -90 -8 -167 -17 -171 -20 -4 -2 -81 -9 -171 -15 -90 -6 -186 -15 -214 -21 -27 -6 -104 -14 -170 -19 -66 -5 -176 -16 -245 -24 -69 -9 -131 -16 -137 -16 -21 0 -15 -48 10 -70 12 -12 36 -28 52 -36 17 -7 39 -19 50 -26 36 -22 67 -43 94 -60 14 -10 40 -24 56 -33 40 -21 61 -33 127 -77 31 -21 60 -38 65 -38 5 0 20 -11 33 -25 13 -14 31 -25 41 -25 10 0 21 -4 24 -10 3 -5 29 -21 58 -35 68 -34 77 -44 49 -51 -16 -5 -22 -14 -22 -33 0 -17 -10 -36 -25 -49 -14 -12 -25 -29 -25 -38 0 -9 -9 -27 -20 -41 -11 -14 -20 -31 -20 -38 0 -7 -6 -18 -14 -24 -8 -7 -18 -26 -21 -42 -4 -17 -13 -33 -20 -36 -8 -2 -17 -17 -20 -33 -3 -16 -13 -34 -21 -41 -8 -6 -14 -20 -14 -30 0 -10 -11 -26 -25 -35 -14 -9 -25 -25 -25 -36 0 -11 -9 -31 -20 -45 -11 -14 -20 -31 -20 -38 0 -7 -6 -18 -14 -24 -8 -7 -18 -26 -21 -42 -4 -17 -13 -33 -21 -36 -8 -3 -14 -13 -14 -23 0 -9 -8 -28 -19 -41 -10 -13 -21 -34 -25 -45 -4 -12 -15 -29 -26 -39 -11 -10 -20 -28 -20 -39 0 -12 -9 -29 -20 -39 -11 -9 -20 -26 -20 -37 0 -11 -6 -23 -14 -26 -8 -3 -18 -19 -21 -36 -4 -16 -13 -32 -21 -35 -8 -3 -14 -13 -14 -23 0 -9 -8 -28 -19 -41 -10 -13 -21 -34 -25 -45 -4 -12 -15 -29 -26 -39 -11 -10 -20 -25 -20 -32 0 -8 -9 -26 -20 -40 -11 -14 -20 -34 -20 -45 0 -10 -6 -21 -14 -24 -8 -3 -18 -19 -21 -36 -4 -16 -13 -32 -21 -35 -8 -3 -14 -13 -14 -23 0 -9 -8 -28 -18 -41 -10 -13 -23 -37 -30 -52 -6 -15 -19 -30 -27 -33 -8 -4 -15 -16 -15 -29 0 -12 -9 -30 -20 -40 -11 -10 -20 -28 -20 -41 0 -13 -9 -28 -20 -34 -11 -6 -17 -17 -14 -24 3 -8 -4 -24 -15 -35 -12 -12 -21 -27 -21 -35 0 -7 -9 -25 -20 -39 -11 -14 -20 -32 -20 -40 0 -8 -9 -26 -20 -40 -11 -14 -20 -32 -20 -40 0 -8 -9 -26 -20 -40 -11 -14 -23 -39 -26 -57 -4 -17 -15 -35 -26 -41 -15 -8 -18 -17 -13 -40 6 -24 3 -30 -17 -38 -16 -6 -23 -17 -24 -37 -1 -31 -44 -138 -63 -157 -6 -6 -11 -22 -11 -35 0 -14 -8 -43 -19 -66 -17 -38 -30 -73 -75 -201 -10 -27 -23 -76 -31 -108 -7 -33 -18 -64 -24 -70 -6 -6 -11 -22 -11 -35 0 -13 -9 -61 -19 -106 -11 -44 -25 -108 -31 -141 -7 -33 -16 -80 -21 -105 -31 -164 -28 -639 7 -761 8 -30 17 -73 21 -96 3 -24 12 -48 19 -54 8 -6 14 -19 14 -28 0 -9 10 -32 22 -51 40 -63 47 -75 61 -106 8 -17 20 -35 26 -38 6 -4 11 -15 11 -25 0 -10 11 -28 25 -41 14 -13 25 -29 25 -37 0 -7 16 -36 35 -63 19 -27 35 -56 35 -63 0 -8 11 -24 25 -37 14 -13 25 -31 25 -41 0 -10 5 -21 11 -25 6 -3 18 -21 26 -38 27 -58 46 -91 62 -111 10 -11 23 -31 29 -45 7 -14 21 -38 32 -55 11 -16 25 -42 31 -58 6 -15 20 -32 31 -38 12 -6 17 -17 13 -28 -3 -11 4 -26 20 -41 14 -13 25 -31 25 -40 0 -9 9 -25 20 -35 11 -10 20 -26 20 -35 0 -10 7 -20 15 -24 8 -3 15 -14 15 -24 0 -11 7 -26 17 -33 9 -8 22 -27 30 -44 8 -16 25 -48 38 -70 13 -22 31 -54 40 -72 9 -18 23 -37 30 -43 8 -6 11 -18 8 -26 -3 -8 6 -23 21 -35 14 -11 26 -27 26 -34 0 -15 55 -101 70 -110 5 -3 7 -11 4 -18 -2 -7 7 -24 21 -37 14 -13 25 -31 25 -40 0 -9 9 -25 20 -35 11 -10 20 -24 20 -32 0 -7 9 -22 21 -34 11 -11 18 -27 15 -35 -3 -8 1 -17 10 -21 8 -3 21 -20 30 -37 24 -52 48 -91 62 -99 6 -4 12 -17 12 -28 0 -11 11 -30 25 -43 16 -15 23 -30 19 -40 -4 -10 2 -23 15 -34 22 -17 38 -42 64 -98 8 -17 20 -35 26 -38 6 -4 11 -15 11 -25 0 -10 11 -28 25 -41 14 -13 25 -30 25 -38 0 -7 9 -25 20 -39 11 -14 20 -31 20 -38 0 -7 7 -15 15 -19 8 -3 15 -14 15 -24 0 -10 9 -27 20 -37 11 -10 22 -26 26 -37 3 -10 21 -42 40 -71 19 -28 34 -57 34 -64 0 -6 11 -24 24 -40 12 -15 21 -33 19 -39 -2 -5 8 -21 22 -34 14 -13 25 -32 25 -42 0 -10 4 -18 10 -18 5 0 16 -15 23 -32 8 -18 21 -39 30 -46 9 -8 14 -19 11 -26 -2 -6 7 -23 21 -36 14 -13 25 -29 25 -37 0 -7 16 -36 35 -63 19 -27 35 -56 35 -63 0 -8 11 -24 25 -37 14 -13 25 -30 25 -38 0 -8 16 -37 35 -63 19 -27 35 -56 35 -64 0 -8 11 -25 25 -37 15 -13 23 -28 20 -38 -3 -10 5 -26 20 -40 14 -13 25 -29 25 -37 0 -7 9 -22 20 -33 11 -11 20 -26 20 -32 0 -18 69 -61 86 -54 20 8 18 75 -3 117 -10 19 -21 61 -25 94 -4 33 -14 107 -22 165 -26 180 -21 299 27 621 8 53 19 104 24 115 6 10 13 45 17 77 3 32 13 71 20 86 8 15 17 45 21 66 4 22 13 50 21 62 8 12 14 33 14 46 0 12 9 40 20 62 11 22 20 48 20 60 0 11 9 34 19 51 10 17 22 45 25 62 4 17 14 36 22 43 8 6 14 22 14 34 0 13 12 37 26 54 17 21 23 37 19 51 -5 15 0 22 20 30 22 8 26 15 21 34 -4 15 2 34 19 56 14 19 25 39 25 45 0 7 9 20 20 30 12 11 18 25 15 36 -4 12 1 23 14 31 12 7 21 22 21 34 0 11 9 29 20 39 11 10 20 26 20 35 0 9 11 27 25 40 14 13 25 29 25 36 0 17 47 87 66 97 8 4 14 17 14 28 0 11 6 22 14 25 8 3 18 19 21 36 4 16 13 32 21 35 8 3 14 11 14 18 0 8 11 27 25 43 14 17 25 37 25 45 0 9 6 20 13 24 7 4 18 19 25 33 41 79 52 97 66 109 9 8 16 22 16 33 0 10 6 21 14 24 8 3 17 16 20 29 4 14 15 29 26 35 11 6 20 21 20 33 0 12 9 30 20 40 11 9 20 26 20 36 0 11 6 24 13 28 7 4 18 20 24 36 7 15 20 27 29 27 12 0 15 6 11 20 -4 14 1 25 14 33 10 6 19 20 19 29 0 10 9 27 20 38 11 11 20 26 20 33 0 8 11 24 25 37 14 13 23 30 21 37 -3 7 3 19 14 25 11 7 20 21 20 30 0 10 9 27 20 38 11 11 20 26 20 33 0 8 11 24 25 37 14 13 23 30 21 37 -3 7 3 18 14 26 10 7 22 25 26 41 3 15 13 30 20 33 8 3 14 13 14 22 0 10 11 28 25 41 14 13 25 31 25 41 0 10 6 22 13 26 7 4 18 19 25 33 41 79 52 97 66 109 9 8 16 20 16 27 0 8 15 36 34 62 18 27 36 57 40 69 4 11 15 28 26 38 11 10 20 26 20 36 0 10 6 22 13 26 7 4 18 19 25 33 14 30 43 77 84 139 10 14 21 33 24 41 4 8 18 27 32 42 13 14 21 31 18 37 -4 6 2 16 14 23 11 7 20 21 20 30 0 10 9 27 20 38 11 11 20 26 20 33 0 8 11 24 25 37 14 13 23 30 21 37 -3 7 3 19 14 25 11 7 20 21 20 30 0 10 9 27 20 38 11 11 20 26 20 33 0 8 11 24 25 37 14 13 25 32 25 42 0 10 6 21 14 24 8 3 18 19 21 36 4 16 13 32 21 35 8 3 14 13 14 22 0 10 11 28 25 41 14 13 25 31 25 41 0 10 6 22 13 26 7 4 18 19 25 33 41 79 52 97 66 109 9 8 16 22 16 32 0 10 6 22 13 26 7 4 18 19 25 33 32 62 48 88 65 104 9 10 17 26 17 36 0 11 6 23 13 27 7 4 18 19 25 33 13 27 25 47 57 95 27 41 42 66 54 92 15 33 26 35 64 9 19 -13 44 -27 55 -30 10 -4 27 -15 37 -26 10 -11 23 -20 29 -20 6 0 35 -16 65 -35 29 -19 56 -35 61 -35 4 0 14 -7 21 -16 8 -9 32 -25 55 -34 23 -10 57 -32 77 -50 20 -17 41 -29 46 -26 5 4 16 -2 23 -13 8 -11 26 -23 42 -27 15 -3 30 -13 33 -20 3 -8 13 -14 22 -14 10 0 28 -11 41 -25 13 -14 30 -23 37 -21 7 3 19 -3 25 -14 7 -11 18 -20 24 -20 6 0 23 -9 37 -20 14 -11 32 -20 39 -20 8 0 25 -11 38 -25 13 -14 28 -25 33 -25 6 0 39 -14 75 -31 72 -34 94 -29 74 16 -7 14 -12 40 -12 57 0 17 -6 36 -14 42 -7 6 -18 29 -24 51 -18 65 -49 146 -61 158 -6 6 -11 21 -11 33 0 13 -11 44 -25 70 -14 26 -25 54 -25 63 0 10 -4 21 -9 27 -11 11 -71 161 -71 176 0 6 -6 19 -14 27 -8 9 -19 32 -25 51 -21 72 -49 142 -60 153 -6 6 -11 22 -11 36 0 15 -12 44 -25 66 -14 22 -25 48 -25 58 0 10 -7 28 -15 41 -9 13 -17 41 -19 61 -2 22 -10 42 -20 47 -9 5 -16 17 -16 26 0 9 -7 31 -16 47 -8 17 -29 66 -46 110 -17 44 -39 98 -49 121 -11 22 -19 52 -19 66 0 14 -6 28 -14 31 -8 3 -17 21 -21 39 -4 18 -14 42 -21 53 -7 11 -16 39 -20 62 -3 23 -13 44 -20 47 -8 3 -14 14 -14 24 0 10 -9 35 -20 57 -11 22 -20 45 -20 53 0 7 -11 34 -25 60 -14 26 -25 54 -25 62 0 9 -6 25 -14 36 -8 11 -17 37 -20 59 -4 22 -13 43 -21 48 -8 4 -15 16 -15 25 0 10 -8 33 -19 52 -10 19 -21 53 -25 75 -5 22 -12 43 -18 46 -10 7 -40 81 -61 154 -6 22 -17 44 -24 48 -7 4 -13 16 -13 25 0 10 -9 36 -20 57 -11 22 -23 57 -26 77 -4 20 -13 39 -20 42 -8 3 -14 14 -14 24 0 10 -9 35 -20 57 -11 21 -23 55 -26 74 -4 20 -11 39 -17 42 -10 7 -40 85 -59 154 -6 22 -17 43 -23 47 -7 4 -16 24 -20 44 -3 20 -15 53 -25 72 -12 21 -17 45 -14 59 l6 23 -58 -1 c-33 -1 -106 -5 -164 -10z"/>
<path d="M21582 16590 c-6 -11 -18 -17 -25 -14 -7 2 -24 -7 -37 -21 -13 -14 -31 -25 -41 -25 -10 0 -21 -5 -25 -11 -3 -6 -21 -18 -38 -26 -63 -29 -91 -46 -99 -60 -4 -7 -18 -13 -31 -13 -12 0 -33 -11 -46 -25 -13 -14 -29 -25 -37 -25 -7 0 -22 -9 -33 -20 -11 -11 -29 -20 -39 -20 -10 0 -21 -7 -25 -15 -3 -8 -14 -15 -24 -15 -10 0 -29 -11 -42 -25 -13 -14 -31 -25 -41 -25 -10 0 -21 -5 -25 -11 -3 -6 -21 -18 -38 -26 -63 -29 -91 -46 -99 -60 -4 -7 -18 -13 -31 -13 -12 0 -33 -11 -46 -25 -13 -14 -29 -25 -37 -25 -7 0 -22 -9 -33 -20 -11 -11 -28 -20 -39 -20 -10 0 -24 -7 -31 -15 -7 -8 -17 -15 -22 -15 -5 0 -22 -9 -36 -21 -49 -37 -103 -69 -117 -69 -8 0 -24 -9 -35 -20 -11 -11 -28 -20 -38 -20 -9 0 -23 -9 -30 -20 -6 -11 -18 -17 -26 -14 -8 3 -24 -6 -37 -20 -13 -14 -31 -26 -40 -26 -10 0 -21 -5 -25 -11 -3 -6 -21 -18 -38 -26 -58 -27 -88 -45 -107 -64 -10 -10 -24 -19 -30 -19 -6 0 -22 -9 -36 -20 -14 -11 -32 -20 -39 -20 -8 0 -23 -9 -34 -20 -11 -11 -29 -20 -39 -20 -10 0 -21 -7 -25 -15 -3 -8 -14 -15 -24 -15 -10 0 -29 -11 -42 -25 -13 -14 -31 -25 -41 -25 -10 0 -21 -5 -25 -11 -3 -6 -21 -18 -38 -26 -46 -21 -74 -38 -94 -56 -10 -10 -28 -17 -39 -17 -11 0 -30 -11 -43 -25 -13 -14 -29 -25 -37 -25 -7 0 -22 -9 -33 -20 -11 -11 -29 -20 -39 -20 -10 0 -21 -7 -25 -15 -3 -8 -14 -15 -25 -15 -11 0 -27 -8 -37 -17 -16 -17 -45 -35 -104 -65 -14 -7 -36 -20 -49 -30 -13 -10 -32 -18 -41 -18 -10 0 -20 -7 -23 -15 -4 -8 -21 -21 -39 -29 -18 -9 -41 -20 -50 -26 -10 -5 -26 -15 -35 -20 -10 -6 -31 -17 -48 -26 -16 -8 -42 -22 -56 -32 -69 -45 -110 -70 -139 -84 -14 -7 -36 -20 -49 -30 -13 -10 -31 -18 -40 -18 -9 0 -22 -9 -29 -20 -6 -11 -18 -17 -25 -14 -7 2 -24 -7 -37 -21 -13 -14 -30 -25 -38 -25 -7 0 -25 -9 -39 -20 -14 -11 -34 -20 -44 -20 -11 0 -19 -4 -19 -10 0 -5 -15 -17 -32 -25 -78 -38 -78 -38 -78 -77 0 -21 4 -38 10 -38 5 0 16 -15 24 -34 8 -18 19 -37 25 -40 6 -4 11 -15 11 -25 0 -10 11 -28 25 -41 14 -13 25 -31 25 -40 0 -10 8 -28 18 -41 26 -36 40 -61 56 -95 8 -17 19 -35 25 -38 6 -4 11 -16 11 -27 0 -10 11 -29 25 -41 14 -12 25 -29 25 -38 0 -9 9 -25 20 -35 11 -10 20 -26 20 -35 0 -10 7 -20 15 -24 8 -3 15 -15 15 -26 0 -12 11 -31 25 -44 14 -13 23 -30 20 -38 -3 -8 6 -25 20 -38 14 -13 25 -29 25 -37 0 -7 16 -36 35 -63 19 -27 35 -57 35 -65 0 -8 11 -25 25 -37 15 -13 23 -28 20 -38 -3 -10 5 -26 20 -40 14 -13 25 -32 25 -42 0 -10 4 -18 10 -18 5 0 16 -15 24 -34 8 -18 19 -37 25 -40 6 -4 11 -16 11 -27 0 -10 11 -29 25 -41 14 -12 25 -28 25 -35 0 -8 8 -26 18 -41 28 -42 41 -65 55 -97 8 -16 21 -36 30 -43 9 -8 14 -19 11 -26 -2 -6 7 -23 21 -36 14 -13 25 -29 25 -37 0 -7 16 -36 35 -63 19 -27 35 -56 35 -64 0 -7 10 -26 22 -42 13 -15 22 -36 20 -45 -2 -9 9 -24 23 -33 14 -9 25 -25 25 -35 0 -10 6 -21 14 -24 8 -3 17 -19 21 -35 3 -17 13 -33 21 -36 8 -3 14 -14 14 -24 0 -11 7 -26 16 -33 9 -8 25 -32 35 -55 9 -23 22 -45 28 -48 6 -4 11 -16 11 -27 0 -10 5 -19 11 -19 5 0 16 -15 24 -34 8 -19 19 -37 25 -41 5 -3 10 -14 10 -24 0 -10 7 -25 17 -32 9 -8 22 -27 30 -44 8 -16 25 -48 38 -70 27 -45 45 -82 45 -95 0 -4 7 -10 15 -14 8 -3 15 -14 15 -24 0 -10 11 -29 25 -42 14 -13 25 -31 25 -40 0 -9 9 -25 20 -35 11 -10 20 -26 20 -35 0 -10 7 -23 15 -30 8 -7 15 -18 15 -25 0 -8 11 -26 24 -42 12 -15 21 -34 19 -41 -3 -7 7 -22 21 -33 14 -11 26 -28 26 -38 0 -36 135 -46 610 -46 365 0 454 3 555 18 217 32 359 58 425 78 36 10 78 19 92 19 15 0 29 4 32 9 3 5 30 15 58 22 29 6 62 18 73 25 11 7 37 16 59 20 21 4 47 15 57 25 11 11 28 19 39 19 11 0 29 9 40 20 11 11 31 20 45 20 14 0 25 5 25 10 0 6 12 15 27 21 15 5 33 19 40 29 8 11 20 20 27 20 8 0 16 7 20 15 3 8 14 15 24 15 10 0 27 10 38 21 10 12 28 25 39 31 37 17 61 33 111 74 27 22 62 49 79 60 41 26 199 185 202 202 1 8 14 29 30 46 34 37 67 84 76 109 4 11 16 21 28 24 16 5 19 11 14 35 -6 24 -3 30 14 35 12 3 22 8 22 12 1 3 3 18 5 34 1 15 12 39 23 54 12 14 21 38 21 52 0 15 5 32 12 39 13 13 44 122 57 205 5 31 15 74 23 95 18 52 19 631 0 683 -7 19 -16 64 -21 100 -13 99 -42 231 -56 259 -7 14 -16 45 -20 70 -4 25 -13 54 -20 65 -7 11 -16 35 -20 54 -4 18 -16 53 -27 78 -11 24 -17 50 -14 58 2 7 -4 15 -15 18 -11 3 -19 14 -19 26 0 12 -9 29 -20 38 -11 10 -20 27 -20 39 0 12 -11 29 -25 38 -14 9 -25 25 -25 35 0 10 -7 24 -15 31 -8 7 -15 18 -15 25 0 7 -9 24 -20 38 -11 14 -20 32 -20 39 0 8 -11 25 -25 38 -14 13 -25 29 -25 37 0 7 -9 22 -20 33 -11 11 -20 29 -20 39 0 10 -7 21 -15 25 -8 3 -15 14 -15 24 0 10 -11 29 -25 42 -14 13 -25 31 -25 41 0 10 -5 21 -11 25 -6 3 -18 21 -26 38 -30 65 -47 91 -65 104 -11 8 -17 21 -13 31 3 11 -4 26 -20 41 -14 13 -25 31 -25 41 0 9 -6 19 -14 22 -8 3 -17 19 -21 35 -3 17 -13 33 -21 36 -8 3 -14 14 -14 24 0 10 -11 29 -25 42 -14 13 -25 30 -25 38 0 7 -9 25 -20 39 -11 14 -20 31 -20 38 0 7 -7 15 -15 19 -8 3 -15 15 -15 26 0 11 -9 28 -20 37 -11 10 -20 28 -20 40 0 12 -9 27 -20 33 -11 6 -23 22 -26 37 -4 14 -15 34 -25 44 -11 11 -19 28 -19 38 0 10 -7 21 -15 25 -8 3 -15 14 -15 24 0 10 -11 29 -25 42 -14 13 -25 31 -25 41 0 10 -5 21 -11 25 -6 3 -18 21 -26 38 -21 46 -38 74 -56 94 -10 10 -17 28 -17 40 0 12 -11 29 -25 38 -14 9 -25 25 -25 35 0 11 -9 28 -20 39 -11 11 -20 27 -20 35 0 22 -48 65 -73 65 -12 0 -28 -9 -35 -20z"/>
<path d="M16350 12597 c0 -8 -9 -22 -21 -33 -12 -10 -27 -31 -35 -45 -22 -44 -125 -164 -147 -172 -15 -6 -17 -11 -9 -19 8 -8 -2 -27 -40 -72 -28 -34 -59 -64 -70 -69 -13 -5 -18 -13 -14 -23 7 -19 -75 -125 -106 -137 -15 -5 -18 -10 -9 -20 8 -10 -5 -30 -55 -85 -36 -39 -63 -76 -60 -80 3 -5 -24 -41 -60 -80 -36 -40 -63 -76 -60 -80 3 -5 -24 -41 -59 -79 -36 -39 -65 -77 -65 -85 0 -12 -44 -67 -99 -124 -12 -12 -21 -28 -21 -35 0 -13 -22 -41 -97 -124 -10 -11 -23 -31 -29 -45 -6 -14 -32 -48 -58 -75 -26 -28 -53 -63 -60 -80 -7 -16 -32 -50 -55 -75 -24 -25 -54 -63 -68 -85 -14 -22 -44 -62 -66 -89 -23 -26 -49 -64 -59 -83 -11 -20 -35 -52 -55 -72 -19 -20 -47 -54 -61 -76 -40 -64 -123 -159 -145 -168 -15 -6 -18 -10 -9 -19 9 -9 1 -24 -31 -62 -23 -28 -54 -69 -69 -92 -14 -23 -51 -68 -82 -101 -31 -34 -56 -67 -56 -75 0 -8 -27 -45 -61 -81 -33 -37 -58 -70 -55 -75 3 -5 -24 -41 -59 -79 -36 -39 -65 -79 -65 -87 0 -9 -7 -19 -15 -22 -9 -4 -15 -19 -15 -39 0 -20 6 -35 15 -39 8 -3 15 -10 15 -16 0 -5 27 -42 60 -82 33 -39 60 -76 60 -83 0 -6 18 -29 41 -50 22 -22 50 -58 61 -80 11 -22 43 -64 70 -92 27 -29 55 -67 63 -85 8 -18 39 -60 70 -93 30 -32 55 -65 55 -73 0 -8 27 -43 60 -79 33 -36 60 -74 60 -84 0 -10 6 -22 14 -26 26 -15 106 -117 102 -130 -3 -7 24 -41 59 -77 36 -35 65 -73 65 -83 0 -10 27 -47 61 -81 46 -48 59 -67 54 -82 -5 -14 -1 -22 13 -28 22 -8 93 -88 130 -146 14 -23 42 -61 64 -85 26 -30 36 -50 32 -63 -3 -12 1 -21 13 -26 24 -9 77 -68 134 -148 80 -112 133 -183 197 -261 34 -42 62 -81 62 -86 0 -5 27 -38 60 -74 33 -36 60 -73 60 -82 0 -9 20 -36 44 -61 24 -25 53 -62 64 -83 11 -21 41 -61 67 -89 26 -28 52 -63 58 -77 6 -14 37 -55 69 -90 32 -35 58 -71 58 -80 0 -22 109 -129 135 -133 l20 -3 3 403 c2 309 5 404 15 407 29 10 328 26 642 35 187 6 432 15 545 20 113 6 358 15 545 20 187 5 385 14 440 20 55 5 150 15 210 20 61 6 126 15 145 20 19 5 67 12 105 15 39 4 97 14 130 23 33 8 83 19 110 23 68 11 200 43 254 63 24 9 56 16 72 16 15 0 30 4 33 9 3 5 30 15 58 22 29 6 62 18 73 25 11 7 39 16 62 20 23 3 44 12 47 19 2 7 20 16 38 20 18 4 51 17 73 28 82 42 93 47 108 47 8 0 26 9 40 20 14 11 32 20 40 20 8 0 20 7 28 16 12 14 29 25 109 66 14 7 31 20 38 30 7 9 19 15 26 12 7 -3 21 6 30 20 9 15 25 26 36 26 11 0 20 7 20 15 0 9 7 18 15 21 8 3 31 21 51 40 21 18 40 31 44 29 10 -6 60 41 60 56 0 7 27 45 60 86 33 40 60 82 60 92 0 11 9 25 21 32 14 7 19 17 16 29 -5 19 8 37 28 40 6 0 9 15 7 31 -2 24 2 32 18 36 21 6 21 6 25 42 1 14 10 30 19 36 9 7 16 22 16 34 0 11 9 30 20 41 11 11 20 26 20 34 0 7 8 24 19 37 10 13 21 34 25 46 4 11 13 27 21 33 8 7 15 21 15 31 0 10 11 30 25 45 14 15 25 35 25 44 0 10 7 23 15 30 8 6 17 22 21 33 3 12 13 29 20 38 8 9 17 27 19 40 3 13 12 29 20 35 8 6 15 18 15 26 0 9 9 27 20 41 11 14 20 32 20 40 0 8 9 26 20 40 11 14 20 32 20 39 0 8 11 25 25 38 14 13 25 34 25 46 0 13 9 28 20 34 12 6 20 21 20 36 0 18 7 28 21 31 17 5 20 11 15 35 -4 22 -1 30 12 35 23 9 33 25 26 45 -3 11 3 22 15 30 12 7 21 20 21 29 0 9 9 28 20 42 11 14 20 32 20 40 0 8 8 25 18 38 10 13 31 51 47 84 16 33 37 68 47 78 10 10 18 26 18 36 0 10 9 26 20 36 11 10 20 26 20 35 0 10 6 23 14 29 8 7 18 26 21 42 4 17 13 33 21 36 8 3 14 16 14 29 0 13 9 33 20 44 11 11 20 26 20 34 0 7 8 24 19 37 10 13 21 34 25 45 4 12 15 29 26 39 11 10 20 28 20 40 0 12 9 30 20 40 11 10 20 25 20 32 0 8 9 26 20 40 11 14 20 31 20 38 0 7 7 18 15 25 8 7 15 21 15 31 0 11 9 28 20 39 11 11 20 28 20 38 0 11 9 27 20 37 11 10 20 26 20 35 0 10 8 28 19 41 10 13 21 34 25 45 4 12 15 29 26 39 11 10 20 28 20 41 0 13 9 28 20 34 11 6 20 21 20 34 0 13 9 31 20 41 11 10 20 29 20 42 0 13 6 26 14 29 8 3 18 19 21 36 4 16 13 32 21 35 8 3 14 16 14 29 0 13 9 33 20 44 11 11 20 26 20 34 0 7 9 25 20 39 11 14 20 32 20 39 0 8 11 25 25 38 14 13 25 34 25 46 0 13 9 28 20 34 11 6 20 21 20 34 0 13 9 31 20 41 11 10 20 28 20 41 0 13 9 28 21 34 12 7 18 18 15 26 -3 8 3 23 14 34 11 11 20 26 20 34 0 7 9 25 20 39 11 14 20 35 20 47 0 11 7 35 16 51 19 38 12 59 -18 59 -27 0 -50 -14 -136 -87 -35 -29 -69 -53 -75 -53 -7 0 -33 -20 -57 -45 -24 -25 -48 -45 -52 -45 -5 0 -27 -12 -49 -27 -61 -41 -111 -71 -139 -84 -14 -6 -32 -15 -40 -20 -8 -5 -26 -14 -40 -20 -14 -6 -32 -15 -40 -20 -8 -5 -22 -12 -30 -15 -8 -4 -38 -17 -67 -30 -28 -13 -62 -24 -74 -24 -12 0 -27 -6 -33 -14 -6 -7 -51 -25 -101 -40 -49 -15 -102 -32 -118 -38 -15 -6 -55 -16 -90 -24 -34 -7 -125 -27 -202 -44 -139 -30 -166 -34 -427 -64 -123 -14 -381 -16 -2298 -14 l-2161 3 1 598 0 597 -35 0 c-23 0 -35 -5 -35 -13z"/>
<path d="M9132 11533 c-7 -3 -26 -31 -42 -64 -17 -32 -37 -59 -45 -59 -8 0 -15 -7 -15 -15 0 -9 -12 -27 -26 -40 -14 -13 -23 -28 -20 -34 4 -5 -2 -16 -12 -23 -11 -7 -22 -23 -26 -36 -4 -12 -16 -27 -27 -33 -12 -6 -18 -17 -15 -24 3 -8 -3 -20 -12 -27 -10 -7 -23 -24 -30 -38 -7 -14 -20 -37 -30 -51 -47 -70 -69 -108 -86 -145 -8 -17 -19 -35 -25 -38 -6 -4 -11 -15 -11 -25 0 -10 -11 -28 -25 -41 -14 -13 -25 -30 -25 -38 0 -7 -9 -25 -20 -39 -11 -14 -20 -32 -20 -40 0 -8 -9 -26 -20 -40 -11 -14 -20 -35 -20 -47 0 -12 -9 -29 -20 -39 -11 -9 -20 -28 -20 -41 0 -14 -4 -27 -9 -31 -5 -3 -15 -22 -22 -43 -6 -20 -17 -44 -24 -52 -7 -8 -17 -33 -23 -55 -6 -22 -22 -71 -37 -110 -28 -76 -47 -134 -65 -205 -68 -264 -76 -346 -61 -664 14 -298 43 -455 113 -612 10 -22 18 -48 18 -57 0 -9 9 -26 20 -37 11 -11 20 -29 20 -39 0 -10 7 -21 15 -25 8 -3 15 -14 15 -24 0 -11 7 -25 15 -32 8 -7 29 -38 47 -69 51 -88 330 -361 454 -444 56 -37 105 -67 108 -67 4 0 19 -8 34 -18 77 -53 109 -72 121 -72 7 0 24 -9 38 -20 14 -11 35 -20 47 -20 11 0 30 -7 40 -15 11 -8 27 -15 37 -15 9 0 27 -8 40 -18 13 -11 39 -22 57 -25 19 -4 48 -13 65 -21 48 -21 127 -47 172 -56 22 -4 60 -15 84 -24 24 -9 55 -16 70 -16 14 0 51 -7 81 -16 44 -12 160 -17 570 -24 283 -5 783 -14 1110 -20 327 -5 606 -12 620 -14 14 -2 43 -1 65 3 l40 6 6 180 c3 99 11 484 17 855 7 371 17 927 22 1235 6 308 15 702 20 875 6 173 9 405 8 515 l-3 200 -45 7 c-25 4 -358 12 -740 18 -382 6 -724 13 -760 15 -189 12 -1787 36 -1808 28z"/>
<path d="M5508 7080 c-55 -9 -173 -70 -228 -117 -21 -18 -43 -33 -49 -33 -6 0 -11 -5 -11 -10 0 -6 -30 -41 -67 -79 -38 -38 -89 -94 -116 -123 -26 -29 -58 -64 -72 -78 -14 -14 -47 -46 -73 -72 -26 -26 -63 -58 -82 -72 -59 -41 -319 -166 -346 -166 -14 0 -42 -9 -62 -19 -41 -21 -84 -33 -217 -61 -49 -10 -106 -24 -125 -29 -19 -6 -55 -11 -80 -11 -25 0 -70 -7 -100 -16 -71 -20 -337 -30 -382 -15 -27 10 -34 8 -54 -10 -13 -12 -24 -33 -26 -47 -2 -14 -8 -27 -13 -29 -6 -2 -48 31 -95 72 -47 42 -105 87 -130 99 -25 13 -56 36 -69 50 -14 14 -32 26 -42 26 -9 0 -39 11 -66 26 -27 14 -84 31 -125 38 -42 7 -80 16 -86 20 -13 8 -109 -12 -144 -30 -14 -8 -34 -14 -43 -14 -21 0 -117 -54 -135 -75 -7 -9 -20 -13 -30 -10 -10 3 -26 -5 -40 -20 -13 -14 -29 -25 -37 -25 -19 0 -108 -67 -127 -95 -9 -14 -24 -25 -32 -25 -22 0 -142 -126 -182 -191 -18 -29 -37 -75 -43 -102 -5 -27 -11 -53 -15 -58 -3 -5 8 -39 25 -74 25 -55 28 -69 19 -95 -7 -21 -7 -39 0 -59 7 -21 7 -41 -1 -66 -9 -30 -7 -46 8 -93 10 -31 23 -61 28 -67 5 -6 23 6 48 35 l39 45 83 -85 c45 -47 105 -100 132 -117 28 -18 79 -52 114 -75 96 -64 175 -108 281 -157 14 -7 50 -25 80 -41 30 -16 66 -29 80 -29 14 -1 39 -10 55 -21 17 -11 40 -20 53 -20 12 0 33 -6 45 -14 12 -8 65 -26 117 -41 52 -15 118 -35 145 -45 98 -35 212 -71 312 -99 56 -16 106 -32 112 -35 5 -4 29 -10 53 -15 24 -5 121 -36 216 -69 96 -33 190 -63 210 -66 20 -4 57 -13 82 -21 25 -8 81 -26 125 -40 96 -31 132 -52 116 -68 -6 -6 -11 -25 -11 -41 0 -27 21 -52 153 -181 85 -82 189 -179 232 -215 43 -36 101 -85 129 -110 67 -60 144 -121 181 -145 17 -10 53 -40 80 -65 28 -25 79 -66 115 -90 36 -24 90 -62 120 -84 149 -110 304 -208 382 -241 35 -14 80 -35 100 -46 20 -10 45 -19 54 -19 10 0 25 -7 35 -16 10 -9 37 -18 61 -21 24 -3 50 -12 58 -19 15 -13 73 -28 205 -54 33 -7 95 -23 137 -37 47 -15 88 -23 103 -19 14 4 49 -2 83 -13 32 -11 94 -24 137 -30 44 -5 109 -17 145 -25 36 -9 83 -16 106 -16 22 0 60 -7 85 -15 24 -8 87 -19 139 -24 52 -5 120 -16 150 -25 30 -9 75 -16 101 -16 26 0 66 -7 89 -15 24 -8 82 -20 129 -25 47 -6 104 -17 126 -25 22 -8 52 -14 67 -15 15 0 39 -5 55 -11 50 -19 379 -106 563 -149 52 -12 111 -20 130 -18 l35 3 -1 57 c-1 32 -8 68 -16 80 -42 66 -92 327 -91 473 1 64 33 307 44 340 6 17 17 55 24 85 34 140 159 423 236 533 27 40 41 51 59 49 33 -3 74 -36 95 -76 16 -30 17 -39 7 -54 -47 -65 -212 -447 -212 -491 0 -11 -9 -49 -19 -83 -58 -190 -59 -536 -1 -723 63 -206 180 -382 307 -464 27 -16 66 -44 88 -61 75 -58 231 -114 345 -125 68 -6 78 -5 103 15 45 36 116 70 145 70 15 0 45 12 67 25 24 15 55 25 78 25 20 0 45 4 55 9 31 16 100 31 115 25 9 -3 64 2 124 11 172 26 543 6 636 -34 27 -12 54 -21 61 -21 16 0 154 -68 161 -79 12 -20 -15 -20 -61 1 -37 16 -71 22 -134 23 -47 1 -92 5 -99 9 -7 5 -31 3 -53 -5 -35 -11 -44 -11 -70 4 -28 16 -32 16 -58 0 -25 -15 -34 -15 -69 -3 -32 10 -46 10 -70 0 -18 -7 -45 -10 -66 -6 -34 7 -97 -7 -144 -30 -18 -9 -28 -10 -42 -1 -13 8 -24 8 -44 -1 -14 -7 -39 -12 -55 -12 -16 0 -31 -4 -34 -9 -3 -5 -27 -12 -53 -16 -27 -3 -72 -17 -102 -31 -29 -13 -61 -24 -70 -24 -41 0 -277 -118 -401 -200 -77 -50 -175 -102 -220 -115 -14 -4 -41 -16 -60 -26 -19 -11 -42 -19 -51 -19 -9 0 -42 -9 -75 -20 -32 -12 -84 -25 -114 -30 -276 -43 -444 -110 -503 -199 -36 -54 -53 -109 -41 -128 21 -33 40 -38 101 -24 137 31 175 36 368 47 100 5 113 4 134 -13 l24 -20 -32 -46 c-17 -26 -41 -52 -52 -58 -21 -11 -120 -111 -192 -194 -75 -86 -97 -164 -57 -200 40 -36 144 -16 302 59 42 20 80 36 85 36 6 0 18 9 27 19 10 11 28 22 41 25 14 4 29 15 35 26 6 11 25 27 43 36 18 9 36 23 40 30 4 8 22 21 39 30 18 9 40 26 50 38 9 11 18 17 19 11 0 -5 1 -120 0 -255 -1 -241 5 -344 31 -467 11 -55 15 -63 40 -68 42 -10 57 5 90 86 16 41 38 93 49 116 10 24 28 64 40 90 11 27 25 55 30 63 5 8 12 22 15 30 9 23 23 54 33 70 5 8 25 50 46 94 44 94 45 94 104 -54 24 -58 60 -141 81 -185 20 -44 41 -99 44 -122 9 -53 23 -64 69 -56 33 5 38 10 48 47 7 22 21 70 32 106 16 55 19 92 18 235 -1 94 -5 214 -9 268 -5 64 -4 101 3 106 20 17 106 29 139 20 29 -8 312 -15 429 -10 27 1 59 8 70 15 12 7 49 19 82 26 138 28 345 127 462 220 75 59 181 166 218 220 50 73 105 162 105 171 0 4 6 23 14 41 47 111 55 139 61 198 7 86 -3 116 -58 170 -67 65 -99 88 -180 128 -40 19 -85 46 -100 58 -16 13 -35 24 -44 24 -8 0 -26 9 -40 20 -14 11 -32 20 -39 20 -7 0 -68 28 -136 63 -68 35 -141 70 -163 80 -50 21 -158 79 -251 135 -88 53 -194 160 -194 195 0 34 60 83 124 102 27 8 54 19 60 23 28 23 396 33 611 17 75 -5 105 -12 120 -25 11 -10 29 -20 39 -22 29 -5 30 -25 3 -43 -23 -15 -28 -15 -64 0 -43 18 -243 20 -298 2 -16 -5 -78 -11 -137 -12 -66 -2 -127 -10 -158 -20 l-51 -17 3 -46 c3 -43 6 -47 48 -69 25 -12 72 -31 105 -42 67 -22 219 -82 280 -110 22 -11 74 -33 115 -51 41 -18 82 -36 90 -41 8 -5 26 -14 40 -20 14 -6 36 -18 50 -25 14 -8 50 -28 80 -44 97 -52 216 -143 267 -204 43 -50 52 -67 57 -113 6 -50 3 -59 -32 -121 -22 -37 -59 -107 -83 -157 -40 -83 -44 -97 -47 -183 l-4 -94 45 -43 c25 -23 64 -49 88 -58 92 -33 186 -58 239 -63 30 -4 78 -12 105 -20 28 -7 82 -16 120 -19 39 -4 87 -11 107 -16 54 -14 208 -30 318 -34 52 -2 138 -9 190 -14 80 -9 453 -8 655 2 36 1 50 -2 50 -11 0 -19 -74 -43 -108 -36 -19 4 -40 -2 -70 -19 -23 -14 -62 -28 -87 -32 -25 -4 -59 -16 -76 -26 -17 -10 -39 -19 -47 -19 -24 0 -32 -45 -14 -73 14 -21 100 -55 187 -73 54 -10 140 -63 140 -84 0 -24 -37 -50 -71 -50 -14 0 -34 -9 -43 -19 -13 -14 -26 -18 -49 -15 -24 4 -41 -1 -66 -20 -19 -14 -48 -26 -65 -26 -28 0 -120 -32 -181 -64 -17 -9 -39 -16 -50 -16 -10 0 -61 -16 -113 -36 -101 -40 -117 -57 -103 -111 7 -25 13 -29 57 -34 79 -10 372 -3 464 11 125 18 191 18 202 0 11 -17 -46 -112 -108 -182 -18 -21 -45 -60 -59 -88 -14 -27 -34 -56 -45 -62 -27 -17 -25 -59 3 -86 30 -28 52 -28 134 4 153 58 235 98 315 157 38 27 76 47 85 45 24 -5 22 -50 -5 -120 -25 -69 -51 -145 -62 -183 -4 -16 -11 -37 -14 -46 -7 -16 45 -79 65 -79 6 0 21 13 35 29 14 17 34 33 45 36 11 4 94 80 185 170 114 113 188 177 237 207 79 47 221 98 275 98 19 0 60 6 91 14 31 8 110 20 176 25 66 6 156 17 200 26 44 8 99 15 122 15 23 0 65 9 93 20 28 11 63 20 79 20 15 0 63 15 107 34 112 49 158 102 169 194 17 135 -4 819 -29 948 -8 43 -17 119 -19 167 l-3 88 27 15 c16 8 47 14 71 14 24 0 51 7 61 15 10 7 53 17 95 20 43 4 97 16 121 26 24 10 55 19 69 19 28 0 111 22 187 50 28 11 71 22 97 25 30 5 54 15 69 31 12 13 30 24 40 24 24 0 149 60 171 82 10 10 25 18 34 18 9 0 27 9 41 20 14 11 31 20 38 20 7 0 20 11 29 25 10 14 28 31 42 37 33 15 131 150 144 197 5 20 16 45 24 56 l15 20 15 -36 c28 -68 30 -131 6 -205 -19 -59 -32 -78 -84 -128 -33 -32 -72 -63 -86 -70 -60 -27 -149 -88 -155 -106 -10 -31 16 -75 45 -76 14 0 39 -4 55 -7 17 -4 66 -2 110 3 44 6 128 12 188 15 59 2 131 11 159 20 28 8 75 15 103 15 28 0 82 9 120 19 39 11 102 22 140 26 39 3 98 15 132 26 34 10 81 19 103 19 23 0 49 4 59 9 9 5 55 17 102 25 78 15 184 37 399 85 47 11 132 31 190 46 58 15 123 31 145 35 22 5 76 18 120 30 44 11 96 25 115 30 19 5 53 14 75 20 22 6 59 15 83 20 23 5 50 14 60 19 9 5 40 12 67 16 28 4 61 13 75 20 14 7 43 15 65 19 50 9 164 42 230 67 28 10 62 19 76 19 15 0 48 9 75 19 27 11 83 29 124 41 41 12 98 30 125 42 28 11 67 21 87 23 21 1 49 10 63 19 14 9 44 21 68 25 23 5 80 23 127 41 47 17 103 35 125 39 22 4 58 17 80 28 48 25 99 43 140 51 16 3 43 13 60 23 16 11 37 19 45 19 9 0 33 9 55 20 22 11 51 20 65 20 14 0 30 8 37 19 7 11 29 21 56 25 25 4 50 13 57 20 6 8 26 17 44 20 19 4 39 13 46 21 7 8 23 15 36 15 13 0 24 5 24 11 0 5 15 17 33 25 17 8 82 41 142 73 420 220 479 250 590 304 140 68 220 108 235 118 8 5 26 14 40 19 14 6 32 14 40 20 8 5 47 26 85 46 39 19 81 42 95 49 14 7 63 32 110 54 47 23 101 50 120 61 19 11 44 20 56 20 12 0 27 7 34 15 7 8 20 15 29 15 9 0 28 8 41 17 31 22 228 113 245 113 7 0 23 9 37 19 13 11 36 23 51 26 14 4 31 13 38 21 6 8 19 14 29 14 10 0 42 12 72 26 29 15 73 36 98 47 25 11 57 26 72 34 14 7 34 13 43 13 9 0 36 14 60 31 24 17 48 28 54 24 6 -3 23 3 37 14 15 12 34 21 42 21 14 0 94 34 154 66 15 8 51 23 80 33 29 10 73 28 98 39 65 31 314 131 390 157 36 13 99 37 140 55 41 17 88 33 103 36 16 2 38 11 50 19 12 8 29 15 39 15 10 0 37 8 60 19 52 22 125 48 192 67 28 8 54 18 60 24 5 5 22 10 37 10 14 0 52 11 83 25 31 14 69 25 84 25 15 0 47 9 71 20 24 11 55 20 70 20 14 0 38 6 52 14 14 7 57 19 95 25 38 7 85 18 104 26 19 7 60 16 90 20 30 4 60 11 65 15 14 10 80 21 145 25 30 1 82 10 115 19 84 23 464 24 545 2 84 -24 116 -21 124 9 15 61 -71 170 -201 254 -88 57 -284 142 -467 203 -150 50 -160 55 -184 91 -14 20 -36 40 -49 43 -24 6 -133 0 -221 -12 -37 -5 -47 -3 -69 17 -14 13 -31 36 -39 51 -20 38 -58 61 -102 60 -32 0 -163 -42 -228 -74 -32 -15 -95 22 -189 112 -64 62 -89 79 -120 84 -45 8 -140 -8 -164 -26 -9 -7 -38 -30 -64 -52 -26 -21 -65 -48 -85 -58 -20 -11 -48 -26 -62 -34 -35 -18 -115 1 -198 50 -35 20 -69 36 -76 36 -6 0 -21 7 -33 15 -30 21 -169 24 -205 5 -15 -8 -87 -74 -160 -147 -170 -167 -160 -164 -340 -93 -124 49 -139 53 -217 52 l-84 0 -32 -33 c-18 -19 -70 -107 -115 -196 -44 -90 -86 -163 -93 -163 -7 0 -24 -7 -39 -14 -26 -14 -29 -13 -38 5 -7 12 -21 19 -42 19 -17 0 -39 6 -47 14 -20 19 -153 50 -208 49 -73 -1 -102 -26 -157 -138 -144 -296 -143 -295 -172 -295 -13 0 -80 27 -147 60 -68 33 -144 63 -169 66 l-46 6 -49 -45 c-49 -46 -103 -140 -163 -285 -16 -41 -39 -87 -51 -103 -18 -26 -26 -29 -51 -23 -31 6 -122 51 -188 92 -26 16 -51 22 -95 22 l-61 0 -51 -52 c-28 -29 -79 -95 -114 -147 -35 -51 -71 -103 -79 -115 -54 -79 -69 -93 -98 -88 -17 2 -39 -1 -50 -7 -16 -8 -42 -4 -124 23 -56 19 -129 39 -160 45 -32 6 -83 16 -114 22 -86 17 -143 -1 -202 -63 -26 -27 -62 -73 -80 -101 -47 -75 -110 -136 -141 -137 -14 0 -44 -1 -66 -2 -22 -1 -60 7 -85 17 -25 9 -70 21 -100 25 -30 4 -99 18 -154 30 l-98 23 -61 -29 c-33 -16 -66 -39 -75 -52 -8 -12 -22 -22 -32 -22 -9 0 -30 -10 -44 -21 -24 -19 -36 -21 -101 -16 -40 3 -84 12 -97 20 -12 8 -35 17 -50 21 -15 3 -40 11 -55 18 -90 36 -163 58 -195 58 -20 0 -48 5 -62 11 -18 9 -36 9 -66 1 -23 -6 -53 -7 -69 -2 -18 5 -48 2 -82 -7 -49 -13 -169 -35 -194 -35 -5 0 -46 5 -90 12 -44 6 -97 14 -117 17 -20 3 -44 14 -54 24 -9 10 -27 19 -39 19 -12 0 -34 9 -48 20 -14 11 -33 20 -44 20 -10 0 -31 7 -46 15 -48 25 -167 56 -187 50 -11 -3 -61 -8 -112 -10 -52 -2 -129 -13 -173 -25 -76 -20 -81 -21 -108 -5 -18 11 -60 19 -110 22 -45 3 -104 12 -132 20 -27 8 -86 19 -130 23 -44 5 -107 13 -140 20 -81 15 -167 29 -240 40 -83 11 -235 38 -330 57 -44 8 -111 19 -150 24 -38 4 -97 14 -130 23 -33 8 -80 15 -105 16 -25 0 -78 9 -118 20 -39 11 -89 20 -109 20 -21 0 -74 9 -118 19 -44 10 -109 22 -145 25 -36 4 -90 13 -120 21 -30 7 -85 16 -122 19 -37 4 -84 13 -106 20 -21 8 -74 17 -118 21 -43 4 -104 13 -136 21 -31 8 -92 17 -135 20 -43 4 -89 12 -103 19 -14 7 -63 15 -110 19 -47 4 -112 13 -145 21 -33 8 -105 19 -159 25 -55 7 -109 16 -122 20 -12 5 -71 14 -131 20 -59 6 -135 18 -168 27 -33 9 -94 17 -135 18 -41 1 -100 8 -130 17 -31 9 -114 19 -185 23 -71 4 -143 14 -161 21 -20 8 -90 16 -173 19 -78 3 -151 9 -163 14 -45 17 -152 23 -425 24 -307 1 -511 -9 -588 -27 -27 -7 -99 -13 -160 -14 -60 -1 -166 -11 -233 -23 -68 -11 -136 -19 -150 -16 -31 6 -169 -10 -227 -26 -22 -6 -89 -12 -150 -13 -60 -1 -164 -7 -230 -13 -141 -12 -519 -8 -622 8 -39 6 -85 8 -102 5 -18 -4 -54 2 -95 16 -36 12 -96 23 -134 25 -37 1 -80 10 -97 19 -16 9 -39 16 -50 16 -11 0 -39 9 -62 20 -23 10 -64 22 -90 26 -26 3 -65 15 -85 25 -21 11 -45 19 -56 19 -10 0 -23 5 -29 11 -6 6 -26 14 -44 19 -53 14 -101 33 -140 58 -20 12 -45 22 -55 22 -10 0 -28 9 -40 21 -12 11 -28 21 -37 23 -8 1 -34 11 -58 23 -77 38 -241 114 -329 153 -110 50 -224 104 -280 136 -25 14 -63 34 -85 45 -22 11 -71 40 -110 64 -38 25 -95 58 -125 74 -71 39 -173 109 -296 203 -45 34 -317 168 -342 168 -6 0 -37 11 -69 24 -146 60 -199 75 -259 74 -75 0 -129 30 -177 99 -47 68 -112 125 -165 146 -129 49 -163 58 -198 48 -22 -6 -47 -6 -71 1 -26 7 -47 7 -73 -2 -28 -9 -42 -9 -58 -1 -11 6 -37 11 -57 11 -20 0 -45 5 -56 10 -10 6 -38 15 -61 20 -111 23 -158 51 -288 175 -90 85 -126 109 -211 134 -89 27 -117 30 -171 21z m1147 -591 c73 -37 106 -73 147 -159 27 -55 32 -76 31 -137 0 -66 -3 -77 -42 -142 -33 -56 -55 -80 -104 -112 -82 -55 -154 -79 -236 -79 -74 1 -88 6 -251 80 -161 74 -175 80 -199 80 -11 0 -43 9 -71 20 -28 11 -64 20 -81 20 -37 0 -95 28 -82 41 11 11 310 -44 326 -60 6 -6 26 -11 44 -11 18 0 50 -6 70 -14 94 -35 203 -37 313 -6 68 19 94 32 128 64 91 86 104 156 44 233 -57 71 -108 93 -221 93 -67 0 -98 -4 -116 -16 -17 -11 -29 -13 -42 -6 -19 10 -136 -10 -158 -28 -5 -4 -41 -11 -80 -15 -38 -3 -80 -13 -93 -21 -23 -15 -47 -10 -36 7 7 13 81 49 184 89 47 19 96 42 109 52 13 10 38 18 56 18 18 0 51 8 74 18 29 13 68 19 133 20 85 1 98 -1 153 -29z m-4400 -943 c33 -18 58 -36 55 -41 -3 -4 -24 -8 -48 -9 -38 -2 -46 2 -68 31 -22 30 -25 53 -6 53 4 0 34 -15 67 -34z m142 -88 c21 -12 52 -28 68 -36 17 -9 41 -24 54 -34 13 -10 36 -18 51 -18 23 0 69 -29 119 -75 2 -2 -14 -11 -35 -20 l-38 -16 -31 35 c-19 23 -51 43 -87 56 -32 12 -60 26 -63 31 -4 5 -14 9 -24 9 -18 0 -74 74 -63 84 8 8 7 8 49 -16z m454 -227 c28 -16 51 -20 106 -19 46 1 86 -4 110 -14 83 -34 121 -42 139 -28 15 13 77 15 96 4 19 -12 -15 -35 -44 -29 -22 5 -29 3 -34 -12 -16 -48 -37 -84 -47 -80 -6 2 -17 22 -26 45 -8 23 -20 42 -27 42 -6 0 -23 6 -36 13 -15 7 -70 14 -130 15 l-105 3 1 -33 c2 -51 -16 -45 -35 12 -11 35 -28 62 -53 82 -20 16 -34 33 -31 38 6 10 70 -12 116 -39z m954 27 c22 -6 53 -17 68 -25 23 -11 26 -17 17 -28 -6 -8 -21 -15 -33 -17 -14 -2 -33 -24 -57 -67 -20 -35 -40 -63 -45 -62 -6 0 -12 36 -15 80 -4 65 -9 84 -28 103 -36 39 -15 43 93 16z m-143 -4 c15 -10 -3 -24 -31 -24 -44 0 -93 -40 -112 -90 -21 -57 -36 -61 -54 -16 -18 43 -54 60 -107 52 -39 -6 -57 5 -35 22 11 9 24 12 127 31 25 5 63 15 85 24 37 14 104 15 127 1z m368 -121 c47 -49 104 -114 125 -146 45 -69 116 -127 156 -127 15 0 40 -5 54 -10 19 -7 53 -7 109 1 44 6 92 13 106 14 14 2 52 11 85 19 84 23 523 23 640 0 102 -19 433 -44 595 -44 199 0 379 26 545 80 33 11 78 24 100 29 112 27 193 51 219 64 16 9 34 13 40 11 7 -3 42 7 79 21 37 14 83 25 103 25 19 0 56 9 82 19 45 19 165 32 307 35 33 1 65 5 71 9 13 8 90 -21 80 -30 -3 -3 -35 -7 -71 -9 -68 -3 -216 -33 -315 -64 -30 -10 -109 -32 -175 -50 -66 -18 -130 -42 -141 -52 -12 -11 -34 -47 -49 -81 l-28 -61 -16 23 c-53 74 -56 76 -97 64 -22 -6 -70 -20 -108 -31 -37 -11 -75 -26 -83 -34 -8 -8 -18 -45 -24 -83 -5 -37 -12 -72 -15 -77 -9 -15 -26 6 -44 54 -21 57 -47 69 -135 62 -109 -9 -161 -29 -174 -66 -6 -17 -11 -41 -11 -53 0 -12 -3 -25 -7 -28 -11 -11 -33 14 -33 37 0 52 -71 79 -210 80 l-64 1 -24 -43 c-25 -45 -42 -47 -42 -4 0 55 -35 72 -143 72 l-83 0 -22 -44 c-12 -24 -22 -46 -22 -49 0 -3 -5 -18 -10 -32 -15 -39 -38 -16 -46 47 -9 69 -29 90 -95 99 -70 10 -181 11 -196 1 -6 -4 -14 -24 -18 -45 -4 -21 -15 -48 -25 -60 l-19 -22 -7 20 c-4 11 -15 39 -26 63 l-18 42 -74 0 c-85 0 -100 -11 -119 -86 -7 -26 -17 -49 -24 -51 -7 -3 -23 18 -37 46 -32 62 -48 71 -125 71 -53 0 -64 -3 -91 -30 -16 -16 -30 -34 -30 -39 0 -28 -21 -16 -41 24 -28 56 -72 85 -127 85 -34 0 -45 -5 -59 -26 -16 -25 -17 -25 -30 -8 -7 10 -13 40 -13 66 0 48 -25 114 -52 135 -43 34 -100 17 -113 -34 -8 -33 -24 -55 -35 -48 -9 6 4 74 25 128 21 53 20 58 -29 131 -41 61 -46 76 -23 76 5 0 49 -39 97 -87z m8110 -648 c272 -9 382 -15 470 -26 106 -12 172 -17 275 -19 39 -1 108 -8 155 -15 47 -8 146 -19 220 -25 74 -6 169 -15 210 -20 41 -6 120 -14 175 -19 130 -12 261 -30 305 -41 19 -5 64 -8 100 -8 38 1 84 -5 110 -15 46 -16 189 -31 272 -28 25 1 63 -5 83 -14 21 -8 63 -15 94 -15 31 0 112 -10 181 -21 69 -11 170 -24 225 -28 55 -3 109 -11 120 -17 19 -11 141 -24 265 -29 30 -1 69 -7 85 -14 17 -7 93 -17 170 -22 77 -5 165 -16 196 -24 31 -8 92 -15 135 -16 44 0 102 -5 129 -10 123 -24 233 -38 267 -32 21 3 67 -2 105 -11 83 -20 227 -36 268 -29 27 4 93 -3 245 -27 30 -5 132 -12 225 -15 94 -3 186 -10 205 -15 50 -13 327 -29 522 -30 91 0 192 -5 225 -10 76 -13 961 -13 999 0 16 5 124 11 239 14 122 4 236 12 273 20 58 13 88 8 60 -11 -31 -19 -186 -44 -343 -54 -308 -19 -448 -28 -600 -39 -205 -14 -988 -14 -1215 0 -102 6 -295 16 -430 20 -135 5 -288 14 -340 19 -52 6 -160 15 -240 21 -80 5 -188 15 -240 21 -201 23 -248 28 -325 29 -44 0 -107 7 -139 15 -33 8 -121 17 -195 20 -75 3 -170 12 -211 20 -123 22 -172 27 -237 26 -34 -1 -84 4 -110 10 -85 19 -235 37 -267 32 -17 -3 -56 0 -86 7 -95 20 -182 30 -286 34 -56 2 -110 8 -120 14 -21 10 -151 24 -254 27 -36 1 -110 10 -165 19 -55 10 -140 20 -190 22 -114 5 -142 8 -240 25 -44 7 -108 12 -142 11 -34 -2 -72 2 -83 8 -16 8 -30 8 -56 0 -29 -10 -43 -9 -72 3 -41 18 -274 40 -310 31 -13 -4 -41 -1 -62 6 -31 10 -45 10 -68 1 -23 -10 -36 -9 -68 3 -49 18 -308 36 -541 36 -13 0 -41 0 -63 0 -53 1 -94 0 -127 -1 -16 0 -46 0 -68 0 -22 0 -56 0 -75 0 -19 0 -48 0 -65 0 -16 0 -47 1 -67 1 -21 0 -50 0 -65 0 -84 1 -318 -8 -378 -14 -38 -4 -89 -14 -112 -22 -30 -11 -51 -13 -75 -6 -18 5 -42 5 -53 1 -11 -4 -40 -8 -65 -8 -25 -1 -65 -9 -90 -18 -25 -8 -76 -17 -114 -19 -52 -2 -77 -8 -98 -24 -21 -16 -37 -20 -58 -15 -20 4 -45 -1 -77 -15 -26 -12 -68 -25 -93 -30 -62 -12 -146 -44 -168 -63 -10 -10 -29 -17 -41 -17 -13 0 -34 -9 -48 -20 -14 -11 -34 -20 -44 -20 -10 0 -33 -9 -51 -20 -19 -11 -51 -20 -74 -20 -35 0 -47 6 -72 35 -26 29 -30 40 -25 72 7 43 19 63 39 63 8 0 24 11 36 25 12 14 28 25 36 25 8 0 52 18 98 40 47 22 91 40 99 40 8 0 29 9 47 20 18 11 45 20 60 20 15 0 42 6 60 14 67 29 176 59 258 71 47 7 111 20 143 29 32 9 77 16 100 16 23 0 78 7 122 16 79 15 195 23 407 27 59 2 111 6 115 11 7 7 333 3 673 -9z m-7454 -162 c26 -17 24 -35 -4 -26 -48 15 -82 35 -76 44 8 13 47 4 80 -18z m143 -27 c47 -22 18 -43 -43 -32 -42 8 -71 29 -62 45 8 13 65 6 105 -13z m193 -65 c28 -14 49 -30 47 -36 -2 -5 -8 -8 -14 -6 -5 3 -30 6 -55 9 -45 4 -106 45 -94 63 7 13 60 -1 116 -30z m112 -62 c-3 -5 -10 -7 -15 -3 -5 3 -7 10 -3 15 3 5 10 7 15 3 5 -3 7 -10 3 -15z m151 -59 c-4 -6 -18 -4 -36 5 -16 9 -27 20 -24 25 4 6 18 4 36 -5 16 -9 27 -20 24 -25z m10705 -610 c47 -6 130 -15 185 -20 55 -5 118 -15 140 -21 22 -7 63 -13 90 -14 75 -3 217 -47 201 -62 -3 -3 -49 -5 -103 -4 -158 3 -216 6 -243 14 -17 5 -36 3 -55 -7 -16 -8 -31 -14 -34 -13 -3 2 -18 9 -33 17 -24 11 -33 11 -66 -2 -26 -10 -46 -12 -63 -6 -13 5 -40 6 -59 2 -19 -4 -65 -8 -101 -9 -45 -1 -79 -8 -107 -23 -34 -18 -43 -19 -58 -7 -14 10 -24 10 -39 2 -11 -6 -54 -16 -95 -23 -84 -14 -153 -31 -189 -48 -13 -6 -34 -9 -46 -8 -12 2 -42 -8 -67 -21 -25 -13 -61 -27 -81 -30 -35 -5 -269 -117 -297 -142 -8 -7 -25 -16 -38 -20 -12 -3 -63 -47 -112 -97 -103 -105 -125 -148 -160 -325 -21 -103 -22 -121 -11 -223 6 -61 16 -122 21 -136 6 -14 10 -47 10 -74 0 -26 9 -76 19 -111 11 -35 22 -86 26 -112 3 -26 13 -63 21 -82 8 -19 14 -51 14 -72 0 -21 9 -72 20 -113 40 -148 21 -223 -57 -233 -21 -2 -63 -12 -93 -21 -30 -9 -77 -18 -105 -20 -238 -14 -297 -20 -342 -32 -33 -10 -62 -12 -82 -7 -36 9 -41 28 -7 28 12 0 30 6 38 13 10 8 26 10 43 6 15 -4 36 -2 48 3 26 12 71 27 153 54 69 21 209 96 266 141 35 27 37 32 31 71 -3 23 -14 55 -25 70 -27 37 -124 256 -138 309 -6 24 -18 62 -26 85 -25 77 -54 265 -54 354 0 162 68 412 125 459 9 7 28 37 42 67 19 38 36 58 61 70 18 9 40 27 49 39 8 13 24 24 35 24 11 0 27 9 36 20 16 19 50 38 164 96 26 14 50 29 53 34 3 6 18 10 32 10 15 0 34 6 42 13 15 13 130 51 236 77 28 7 61 18 75 25 14 6 59 13 100 14 41 1 78 5 83 8 5 3 55 12 111 19 106 13 274 11 416 -6z m-2105 -2099 c7 -12 -12 -24 -25 -16 -11 7 -4 25 10 25 5 0 11 -4 15 -9z m-61 -22 c-3 -5 -10 -7 -15 -3 -5 3 -7 10 -3 15 3 5 10 7 15 3 5 -3 7 -10 3 -15z"/>
</g>
</g>
</svg>
