<?xml version="1.0" standalone="no"?>
<!DOCTYPE svg PUBLIC "-//W3C//DTD SVG 1.1//EN"
 "http://www.w3.org/Graphics/SVG/1.1/DTD/svg11.dtd">
<!-- Created with svg_stack (http://github.com/astraw/svg_stack) -->
<svg xmlns:sodipodi="http://sodipodi.sourceforge.net/DTD/sodipodi-0.dtd" xmlns="http://www.w3.org/2000/svg" version="1.1" width="4166.0" height="4166.0">
  <defs/>
  <g id="id0:id0" transform="matrix(1.25,0,0,1.25,0.0,0.0)"><g transform="translate(0.000000,3332.800000) scale(0.040000,-0.040000)" fill="#c6b3e5" stroke="none">
<path d="M13038 77155 c-3 -3 -21 -6 -39 -7 -54 0 -189 -27 -259 -51 -236 -83 -438 -261 -549 -485 -28 -56 -51 -108 -51 -116 0 -7 -6 -29 -14 -47 -7 -19 -17 -61 -21 -94 -8 -64 -10 -74 -20 -145 -9 -59 27 -272 61 -365 33 -92 87 -188 139 -250 23 -27 6342 -6349 14041 -14048 l13998 -13998 -14000 -14002 c-7700 -7701 -14018 -14027 -14040 -14057 -71 -99 -94 -136 -94 -150 0 -7 -6 -21 -13 -29 -38 -46 -106 -358 -94 -433 3 -18 11 -71 17 -118 15 -108 55 -228 111 -327 67 -117 273 -325 361 -363 13 -6 30 -14 38 -19 84 -53 205 -90 342 -106 110 -13 140 -13 225 -1 163 23 332 91 452 182 25 19 6346 6335 14046 14034 8643 8643 14007 14000 14019 14000 11 0 5364 -5346 13989 -13971 7684 -7684 14004 -13998 14044 -14032 77 -65 125 -97 183 -123 19 -8 44 -19 55 -24 136 -62 315 -86 490 -64 257 32 499 175 658 388 90 119 177 331 177 430 0 23 5 57 11 76 14 49 -6 232 -39 340 -32 108 -89 224 -149 303 -25 34 -6342 6359 -14037 14054 -7695 7696 -13993 14000 -13995 14009 -2 11 4314 4333 13080 13098 7196 7194 13477 13472 13957 13951 480 478 900 900 933 937 51 56 149 191 149 203 0 3 11 28 24 57 32 73 63 195 76 303 17 143 -15 333 -80 479 -109 243 -319 438 -563 522 -240 83 -492 72 -732 -34 -33 -14 -82 -42 -110 -61 -27 -19 -63 -44 -80 -55 -16 -11 -6332 -6322 -14035 -14023 l-14005 -14003 -13970 13971 c-7684 7684 -14001 13996 -14040 14027 -96 79 -127 100 -196 133 -114 55 -235 89 -344 94 -22 2 -54 6 -70 9 -17 4 -33 5 -37 1z"/>
<path d="M34400 76230 c0 -5 18 -10 40 -10 22 0 40 5 40 10 0 6 -18 10 -40 10 -22 0 -40 -4 -40 -10z"/>
<path d="M44880 76230 c0 -5 5 -10 10 -10 6 0 10 5 10 10 0 6 -4 10 -10 10 -5 0 -10 -4 -10 -10z"/>
<path d="M47700 75950 c0 -5 5 -10 10 -10 6 0 10 5 10 10 0 6 -4 10 -10 10 -5 0 -10 -4 -10 -10z"/>
<path d="M37900 75649 c0 -5 5 -7 10 -4 6 3 10 8 10 11 0 2 -4 4 -10 4 -5 0 -10 -5 -10 -11z"/>
<path d="M44600 75570 c0 -5 5 -10 10 -10 6 0 10 5 10 10 0 6 -4 10 -10 10 -5 0 -10 -4 -10 -10z"/>
<path d="M38060 75290 c0 -5 5 -10 10 -10 6 0 10 5 10 10 0 6 -4 10 -10 10 -5 0 -10 -4 -10 -10z"/>
<path d="M38220 74930 c0 -5 5 -10 10 -10 6 0 10 5 10 10 0 6 -4 10 -10 10 -5 0 -10 -4 -10 -10z"/>
<path d="M47180 74750 c0 -5 5 -10 10 -10 6 0 10 5 10 10 0 6 -4 10 -10 10 -5 0 -10 -4 -10 -10z"/>
<path d="M44200 74650 c0 -5 5 -10 10 -10 6 0 10 5 10 10 0 6 -4 10 -10 10 -5 0 -10 -4 -10 -10z"/>
<path d="M38380 74570 c0 -5 5 -10 10 -10 6 0 10 5 10 10 0 6 -4 10 -10 10 -5 0 -10 -4 -10 -10z"/>
<path d="M38540 74210 c0 -5 5 -10 10 -10 6 0 10 5 10 10 0 6 -4 10 -10 10 -5 0 -10 -4 -10 -10z"/>
<path d="M46780 73830 c0 -5 5 -10 10 -10 6 0 10 5 10 10 0 6 -4 10 -10 10 -5 0 -10 -4 -10 -10z"/>
<path d="M38740 73770 c0 -5 5 -10 10 -10 6 0 10 5 10 10 0 6 -4 10 -10 10 -5 0 -10 -4 -10 -10z"/>
<path d="M43800 73730 c0 -5 5 -10 10 -10 6 0 10 5 10 10 0 6 -4 10 -10 10 -5 0 -10 -4 -10 -10z"/>
<path d="M38900 73409 c0 -5 5 -7 10 -4 6 3 10 8 10 11 0 2 -4 4 -10 4 -5 0 -10 -5 -10 -11z"/>
<path d="M39060 73050 c0 -5 5 -10 10 -10 6 0 10 5 10 10 0 6 -4 10 -10 10 -5 0 -10 -4 -10 -10z"/>
<path d="M46380 72910 c0 -5 5 -10 10 -10 6 0 10 5 10 10 0 6 -4 10 -10 10 -5 0 -10 -4 -10 -10z"/>
<path d="M43400 72810 c0 -5 5 -10 10 -10 6 0 10 5 10 10 0 6 -4 10 -10 10 -5 0 -10 -4 -10 -10z"/>
<path d="M39220 72690 c0 -5 5 -10 10 -10 6 0 10 5 10 10 0 6 -4 10 -10 10 -5 0 -10 -4 -10 -10z"/>
<path d="M39380 72330 c0 -5 5 -10 10 -10 6 0 10 5 10 10 0 6 -4 10 -10 10 -5 0 -10 -4 -10 -10z"/>
<path d="M43120 72170 c0 -5 5 -10 10 -10 6 0 10 5 10 10 0 6 -4 10 -10 10 -5 0 -10 -4 -10 -10z"/>
<path d="M45980 71990 c0 -5 5 -10 10 -10 6 0 10 5 10 10 0 6 -4 10 -10 10 -5 0 -10 -4 -10 -10z"/>
<path d="M39740 71529 c0 -5 5 -7 10 -4 6 3 10 8 10 11 0 2 -4 4 -10 4 -5 0 -10 -5 -10 -11z"/>
<path d="M42720 71250 c0 -5 5 -10 10 -10 6 0 10 5 10 10 0 6 -4 10 -10 10 -5 0 -10 -4 -10 -10z"/>
<path d="M45580 71070 c0 -5 5 -10 10 -10 6 0 10 5 10 10 0 6 -4 10 -10 10 -5 0 -10 -4 -10 -10z"/>
<path d="M40060 70810 c0 -5 5 -10 10 -10 6 0 10 5 10 10 0 6 -4 10 -10 10 -5 0 -10 -4 -10 -10z"/>
<path d="M45460 70790 c0 -5 5 -10 10 -10 6 0 10 5 10 10 0 6 -4 10 -10 10 -5 0 -10 -4 -10 -10z"/>
<path d="M40220 70450 c0 -5 5 -10 10 -10 6 0 10 5 10 10 0 6 -4 10 -10 10 -5 0 -10 -4 -10 -10z"/>
<path d="M45060 69870 c0 -5 5 -10 10 -10 6 0 10 5 10 10 0 6 -4 10 -10 10 -5 0 -10 -4 -10 -10z"/>
<path d="M44660 68950 c0 -5 5 -10 10 -10 6 0 10 5 10 10 0 6 -4 10 -10 10 -5 0 -10 -4 -10 -10z"/>
<path d="M40980 68350 c0 -11 5 -20 10 -20 6 0 10 9 10 20 0 11 -4 20 -10 20 -5 0 -10 -9 -10 -20z"/>
<path d="M44260 68030 c0 -5 5 -10 10 -10 6 0 10 5 10 10 0 6 -4 10 -10 10 -5 0 -10 -4 -10 -10z"/>
<path d="M43860 67110 c0 -5 5 -10 10 -10 6 0 10 5 10 10 0 6 -4 10 -10 10 -5 0 -10 -4 -10 -10z"/>
<path d="M43340 65910 c0 -5 5 -10 10 -10 6 0 10 5 10 10 0 6 -4 10 -10 10 -5 0 -10 -4 -10 -10z"/>
<path d="M42940 64990 c0 -5 5 -10 10 -10 6 0 10 5 10 10 0 6 -4 10 -10 10 -5 0 -10 -4 -10 -10z"/>
<path d="M42540 64070 c0 -5 5 -10 10 -10 6 0 10 5 10 10 0 6 -4 10 -10 10 -5 0 -10 -4 -10 -10z"/>
<path d="M42140 63150 c0 -5 5 -10 10 -10 6 0 10 5 10 10 0 6 -4 10 -10 10 -5 0 -10 -4 -10 -10z"/>
<path d="M41740 62230 c0 -5 5 -10 10 -10 6 0 10 5 10 10 0 6 -4 10 -10 10 -5 0 -10 -4 -10 -10z"/>
<path d="M40936 61804 c-9 -22 -8 -24 9 -24 8 0 15 6 15 14 0 22 -17 28 -24 10z"/>
<path d="M69420 57470 c0 -5 5 -10 10 -10 6 0 10 5 10 10 0 6 -4 10 -10 10 -5 0 -10 -4 -10 -10z"/>
<path d="M70080 57190 c0 -5 5 -10 10 -10 6 0 10 5 10 10 0 6 -4 10 -10 10 -5 0 -10 -4 -10 -10z"/>
<path d="M70160 57150 c0 -5 5 -10 10 -10 6 0 10 5 10 10 0 6 -4 10 -10 10 -5 0 -10 -4 -10 -10z"/>
<path d="M70240 57110 c0 -5 5 -10 10 -10 6 0 10 5 10 10 0 6 -4 10 -10 10 -5 0 -10 -4 -10 -10z"/>
<path d="M70320 57070 c0 -5 5 -10 10 -10 6 0 10 5 10 10 0 6 -4 10 -10 10 -5 0 -10 -4 -10 -10z"/>
<path d="M72380 55450 c0 -5 5 -10 10 -10 6 0 10 5 10 10 0 6 -4 10 -10 10 -5 0 -10 -4 -10 -10z"/>
<path d="M73020 54570 c0 -5 5 -10 10 -10 6 0 10 5 10 10 0 6 -4 10 -10 10 -5 0 -10 -4 -10 -10z"/>
<path d="M73140 54370 c0 -5 5 -10 10 -10 6 0 10 5 10 10 0 6 -4 10 -10 10 -5 0 -10 -4 -10 -10z"/>
<path d="M73180 54290 c0 -5 5 -10 10 -10 6 0 10 5 10 10 0 6 -4 10 -10 10 -5 0 -10 -4 -10 -10z"/>
<path d="M73460 53730 c0 -5 5 -10 10 -10 6 0 10 5 10 10 0 6 -4 10 -10 10 -5 0 -10 -4 -10 -10z"/>
<path d="M73220 47069 c0 -5 5 -7 10 -4 6 3 10 8 10 11 0 2 -4 4 -10 4 -5 0 -10 -5 -10 -11z"/>
<path d="M73100 46870 c0 -5 5 -10 10 -10 6 0 10 5 10 10 0 6 -4 10 -10 10 -5 0 -10 -4 -10 -10z"/>
<path d="M72980 46670 c0 -5 5 -10 10 -10 6 0 10 5 10 10 0 6 -4 10 -10 10 -5 0 -10 -4 -10 -10z"/>
<path d="M70360 44249 c0 -5 5 -7 10 -4 6 3 10 8 10 11 0 2 -4 4 -10 4 -5 0 -10 -5 -10 -11z"/>
<path d="M70120 44129 c0 -5 5 -7 10 -4 6 3 10 8 10 11 0 2 -4 4 -10 4 -5 0 -10 -5 -10 -11z"/>
<path d="M13660 43330 c0 -5 5 -10 10 -10 6 0 10 5 10 10 0 6 -4 10 -10 10 -5 0 -10 -4 -10 -10z"/>
<path d="M23200 43330 c0 -5 5 -10 10 -10 6 0 10 5 10 10 0 6 -4 10 -10 10 -5 0 -10 -4 -10 -10z"/>
<path d="M23260 43330 c0 -5 5 -10 10 -10 6 0 10 5 10 10 0 6 -4 10 -10 10 -5 0 -10 -4 -10 -10z"/>
<path d="M61900 43330 c0 -5 5 -10 10 -10 6 0 10 5 10 10 0 6 -4 10 -10 10 -5 0 -10 -4 -10 -10z"/>
<path d="M44240 31670 c0 -5 5 -10 10 -10 6 0 10 5 10 10 0 6 -4 10 -10 10 -5 0 -10 -4 -10 -10z"/>
<path d="M45540 30570 c0 -5 5 -10 10 -10 6 0 10 5 10 10 0 6 -4 10 -10 10 -5 0 -10 -4 -10 -10z"/>
<path d="M45780 30249 c0 -5 5 -7 10 -4 6 3 10 8 10 11 0 2 -4 4 -10 4 -5 0 -10 -5 -10 -11z"/>
<path d="M40950 29930 c0 -5 7 -10 15 -10 8 0 15 5 15 10 0 6 -7 10 -15 10 -8 0 -15 -4 -15 -10z"/>
<path d="M45980 29930 c0 -5 5 -10 10 -10 6 0 10 5 10 10 0 6 -4 10 -10 10 -5 0 -10 -4 -10 -10z"/>
<path d="M46020 29850 c0 -5 5 -10 10 -10 6 0 10 5 10 10 0 6 -4 10 -10 10 -5 0 -10 -4 -10 -10z"/>
<path d="M46060 29770 c0 -5 5 -10 10 -10 6 0 10 5 10 10 0 6 -4 10 -10 10 -5 0 -10 -4 -10 -10z"/>
<path d="M46100 29690 c0 -5 5 -10 10 -10 6 0 10 5 10 10 0 6 -4 10 -10 10 -5 0 -10 -4 -10 -10z"/>
<path d="M42180 29610 c0 -5 5 -10 10 -10 6 0 10 5 10 10 0 6 -4 10 -10 10 -5 0 -10 -4 -10 -10z"/>
<path d="M46140 29610 c0 -5 5 -10 10 -10 6 0 10 5 10 10 0 6 -4 10 -10 10 -5 0 -10 -4 -10 -10z"/>
<path d="M45900 24230 c0 -5 5 -10 10 -10 6 0 10 5 10 10 0 6 -4 10 -10 10 -5 0 -10 -4 -10 -10z"/>
<path d="M44160 22689 c0 -5 5 -7 10 -4 6 3 10 8 10 11 0 2 -4 4 -10 4 -5 0 -10 -5 -10 -11z"/>
<path d="M44080 22649 c0 -5 5 -7 10 -4 6 3 10 8 10 11 0 2 -4 4 -10 4 -5 0 -10 -5 -10 -11z"/>
<path d="M44000 22609 c0 -5 5 -7 10 -4 6 3 10 8 10 11 0 2 -4 4 -10 4 -5 0 -10 -5 -10 -11z"/>
<path d="M43940 22370 c0 -5 5 -10 10 -10 6 0 10 5 10 10 0 6 -4 10 -10 10 -5 0 -10 -4 -10 -10z"/>
<path d="M44020 22250 c0 -5 5 -10 10 -10 6 0 10 5 10 10 0 6 -4 10 -10 10 -5 0 -10 -4 -10 -10z"/>
<path d="M44100 22130 c0 -5 5 -10 10 -10 6 0 10 5 10 10 0 6 -4 10 -10 10 -5 0 -10 -4 -10 -10z"/>
<path d="M44260 21890 c0 -5 5 -10 10 -10 6 0 10 5 10 10 0 6 -4 10 -10 10 -5 0 -10 -4 -10 -10z"/>
<path d="M44340 21770 c0 -5 5 -10 10 -10 6 0 10 5 10 10 0 6 -4 10 -10 10 -5 0 -10 -4 -10 -10z"/>
<path d="M44420 21650 c0 -5 5 -10 10 -10 6 0 10 5 10 10 0 6 -4 10 -10 10 -5 0 -10 -4 -10 -10z"/>
<path d="M44500 21530 c0 -5 5 -10 10 -10 6 0 10 5 10 10 0 6 -4 10 -10 10 -5 0 -10 -4 -10 -10z"/>
<path d="M44580 21410 c0 -5 5 -10 10 -10 6 0 10 5 10 10 0 6 -4 10 -10 10 -5 0 -10 -4 -10 -10z"/>
<path d="M44660 21290 c0 -5 5 -10 10 -10 6 0 10 5 10 10 0 6 -4 10 -10 10 -5 0 -10 -4 -10 -10z"/>
<path d="M44740 21170 c0 -5 5 -10 10 -10 6 0 10 5 10 10 0 6 -4 10 -10 10 -5 0 -10 -4 -10 -10z"/>
<path d="M36100 17970 c0 -5 5 -10 10 -10 6 0 10 5 10 10 0 6 -4 10 -10 10 -5 0 -10 -4 -10 -10z"/>
<path d="M39000 17970 c0 -5 5 -10 10 -10 6 0 10 5 10 10 0 6 -4 10 -10 10 -5 0 -10 -4 -10 -10z"/>
<path d="M39060 17970 c0 -5 5 -10 10 -10 6 0 10 5 10 10 0 6 -4 10 -10 10 -5 0 -10 -4 -10 -10z"/>
<path d="M46830 17970 c0 -5 11 -10 25 -10 14 0 25 5 25 10 0 6 -11 10 -25 10 -14 0 -25 -4 -25 -10z"/>
<path d="M22760 10350 c0 -5 5 -10 10 -10 6 0 10 5 10 10 0 6 -4 10 -10 10 -5 0 -10 -4 -10 -10z"/>
<path d="M42520 10350 c0 -5 5 -10 10 -10 6 0 10 5 10 10 0 6 -4 10 -10 10 -5 0 -10 -4 -10 -10z"/>
<path d="M22900 10295 c0 -8 5 -15 10 -15 6 0 10 7 10 15 0 8 -4 15 -10 15 -5 0 -10 -7 -10 -15z"/>
<path d="M42660 10295 c0 -8 5 -15 10 -15 6 0 10 7 10 15 0 8 -4 15 -10 15 -5 0 -10 -7 -10 -15z"/>
<path d="M45900 10250 c0 -5 5 -10 10 -10 6 0 10 5 10 10 0 6 -4 10 -10 10 -5 0 -10 -4 -10 -10z"/>
<path d="M49940 10230 c0 -5 5 -10 10 -10 6 0 10 5 10 10 0 6 -4 10 -10 10 -5 0 -10 -4 -10 -10z"/>
<path d="M76115 10070 c-3 -5 -1 -10 4 -10 6 0 11 5 11 10 0 6 -2 10 -4 10 -3 0 -8 -4 -11 -10z"/>
<path d="M48680 10050 c0 -5 5 -10 10 -10 6 0 10 5 10 10 0 6 -4 10 -10 10 -5 0 -10 -4 -10 -10z"/>
<path d="M22600 9970 c0 -5 5 -10 10 -10 6 0 10 5 10 10 0 6 -4 10 -10 10 -5 0 -10 -4 -10 -10z"/>
<path d="M26820 9970 c0 -5 5 -10 10 -10 6 0 10 5 10 10 0 6 -4 10 -10 10 -5 0 -10 -4 -10 -10z"/>
<path d="M42360 9970 c0 -5 5 -10 10 -10 6 0 10 5 10 10 0 6 -4 10 -10 10 -5 0 -10 -4 -10 -10z"/>
<path d="M23100 9850 c0 -5 5 -10 10 -10 6 0 10 5 10 10 0 6 -4 10 -10 10 -5 0 -10 -4 -10 -10z"/>
<path d="M42860 9850 c0 -5 5 -10 10 -10 6 0 10 5 10 10 0 6 -4 10 -10 10 -5 0 -10 -4 -10 -10z"/>
<path d="M27220 9530 c0 -5 5 -10 10 -10 6 0 10 5 10 10 0 6 -4 10 -10 10 -5 0 -10 -4 -10 -10z"/>
<path d="M46220 9530 c0 -5 5 -10 10 -10 6 0 10 5 10 10 0 6 -4 10 -10 10 -5 0 -10 -4 -10 -10z"/>
<path d="M76900 9530 c0 -5 5 -10 10 -10 6 0 10 5 10 10 0 6 -4 10 -10 10 -5 0 -10 -4 -10 -10z"/>
<path d="M23300 9410 c0 -5 5 -10 10 -10 6 0 10 5 10 10 0 6 -4 10 -10 10 -5 0 -10 -4 -10 -10z"/>
<path d="M43060 9410 c0 -5 5 -10 10 -10 6 0 10 5 10 10 0 6 -4 10 -10 10 -5 0 -10 -4 -10 -10z"/>
<path d="M22320 9330 c0 -5 5 -10 10 -10 6 0 10 5 10 10 0 6 -4 10 -10 10 -5 0 -10 -4 -10 -10z"/>
<path d="M42080 9330 c0 -5 5 -10 10 -10 6 0 10 5 10 10 0 6 -4 10 -10 10 -5 0 -10 -4 -10 -10z"/>
<path d="M49540 9310 c0 -5 5 -10 10 -10 6 0 10 5 10 10 0 6 -4 10 -10 10 -5 0 -10 -4 -10 -10z"/>
<path d="M46380 9170 c0 -5 5 -10 10 -10 6 0 10 5 10 10 0 6 -4 10 -10 10 -5 0 -10 -4 -10 -10z"/>
<path d="M48280 9130 c0 -5 5 -10 10 -10 6 0 10 5 10 10 0 6 -4 10 -10 10 -5 0 -10 -4 -10 -10z"/>
<path d="M49420 9030 c0 -5 5 -10 10 -10 6 0 10 5 10 10 0 6 -4 10 -10 10 -5 0 -10 -4 -10 -10z"/>
<path d="M23500 8970 c0 -5 5 -10 10 -10 6 0 10 5 10 10 0 6 -4 10 -10 10 -5 0 -10 -4 -10 -10z"/>
<path d="M43260 8970 c0 -5 5 -10 10 -10 6 0 10 5 10 10 0 6 -4 10 -10 10 -5 0 -10 -4 -10 -10z"/>
<path d="M66500 8930 c0 -5 5 -10 10 -10 6 0 10 5 10 10 0 6 -4 10 -10 10 -5 0 -10 -4 -10 -10z"/>
<path d="M46540 8810 c0 -5 5 -10 10 -10 6 0 10 5 10 10 0 6 -4 10 -10 10 -5 0 -10 -4 -10 -10z"/>
<path d="M23700 8530 c0 -5 5 -10 10 -10 6 0 10 5 10 10 0 6 -4 10 -10 10 -5 0 -10 -4 -10 -10z"/>
<path d="M43460 8530 c0 -5 5 -10 10 -10 6 0 10 5 10 10 0 6 -4 10 -10 10 -5 0 -10 -4 -10 -10z"/>
<path d="M21920 8410 c0 -5 5 -10 10 -10 6 0 10 5 10 10 0 6 -4 10 -10 10 -5 0 -10 -4 -10 -10z"/>
<path d="M41680 8410 c0 -5 5 -10 10 -10 6 0 10 5 10 10 0 6 -4 10 -10 10 -5 0 -10 -4 -10 -10z"/>
<path d="M47880 8210 c0 -5 5 -10 10 -10 6 0 10 5 10 10 0 6 -4 10 -10 10 -5 0 -10 -4 -10 -10z"/>
<path d="M49020 8110 c0 -5 5 -10 10 -10 6 0 10 5 10 10 0 6 -4 10 -10 10 -5 0 -10 -4 -10 -10z"/>
<path d="M21640 7770 c0 -5 5 -10 10 -10 6 0 10 5 10 10 0 6 -4 10 -10 10 -5 0 -10 -4 -10 -10z"/>
<path d="M41400 7770 c0 -5 5 -10 10 -10 6 0 10 5 10 10 0 6 -4 10 -10 10 -5 0 -10 -4 -10 -10z"/>
<path d="M28860 7730 c0 -5 5 -10 10 -10 6 0 10 5 10 10 0 6 -4 10 -10 10 -5 0 -10 -4 -10 -10z"/>
<path d="M24260 7290 c0 -5 5 -10 10 -10 6 0 10 5 10 10 0 6 -4 10 -10 10 -5 0 -10 -4 -10 -10z"/>
<path d="M44020 7290 c0 -5 5 -10 10 -10 6 0 10 5 10 10 0 6 -4 10 -10 10 -5 0 -10 -4 -10 -10z"/>
<path d="M48620 7190 c0 -5 5 -10 10 -10 6 0 10 5 10 10 0 6 -4 10 -10 10 -5 0 -10 -4 -10 -10z"/>
<path d="M77180 7069 c0 -5 5 -7 10 -4 6 3 10 8 10 11 0 2 -4 4 -10 4 -5 0 -10 -5 -10 -11z"/>
<path d="M59580 6930 c0 -5 5 -10 10 -10 6 0 10 5 10 10 0 6 -4 10 -10 10 -5 0 -10 -4 -10 -10z"/>
<path d="M21240 6850 c0 -5 5 -10 10 -10 6 0 10 5 10 10 0 6 -4 10 -10 10 -5 0 -10 -4 -10 -10z"/>
<path d="M24460 6850 c0 -5 5 -10 10 -10 6 0 10 5 10 10 0 6 -4 10 -10 10 -5 0 -10 -4 -10 -10z"/>
<path d="M44220 6850 c0 -5 5 -10 10 -10 6 0 10 5 10 10 0 6 -4 10 -10 10 -5 0 -10 -4 -10 -10z"/>
<path d="M40930 6681 c0 -18 12 -41 21 -41 15 0 10 37 -6 44 -8 3 -15 1 -15 -3z"/>
<path d="M24660 6410 c0 -5 5 -10 10 -10 6 0 10 5 10 10 0 6 -4 10 -10 10 -5 0 -10 -4 -10 -10z"/>
<path d="M44420 6410 c0 -5 5 -10 10 -10 6 0 10 5 10 10 0 6 -4 10 -10 10 -5 0 -10 -4 -10 -10z"/>
<path d="M76440 6330 c0 -5 5 -10 10 -10 6 0 10 5 10 10 0 6 -4 10 -10 10 -5 0 -10 -4 -10 -10z"/>
<path d="M76345 6290 c3 -5 13 -10 21 -10 8 0 14 5 14 10 0 6 -9 10 -21 10 -11 0 -17 -4 -14 -10z"/>
<path d="M48220 6270 c0 -5 5 -10 10 -10 6 0 10 5 10 10 0 6 -4 10 -10 10 -5 0 -10 -4 -10 -10z"/>
<path d="M20960 6210 c0 -5 5 -10 10 -10 6 0 10 5 10 10 0 6 -4 10 -10 10 -5 0 -10 -4 -10 -10z"/>
<path d="M40720 6210 c0 -5 5 -10 10 -10 6 0 10 5 10 10 0 6 -4 10 -10 10 -5 0 -10 -4 -10 -10z"/>
<path d="M76340 6130 c0 -5 5 -10 10 -10 6 0 10 5 10 10 0 6 -4 10 -10 10 -5 0 -10 -4 -10 -10z"/>
<path d="M66660 6070 c0 -5 5 -10 10 -10 6 0 10 5 10 10 0 6 -4 10 -10 10 -5 0 -10 -4 -10 -10z"/>
<path d="M66620 5990 c0 -5 5 -10 10 -10 6 0 10 5 10 10 0 6 -4 10 -10 10 -5 0 -10 -4 -10 -10z"/>
<path d="M24860 5970 c0 -5 5 -10 10 -10 6 0 10 5 10 10 0 6 -4 10 -10 10 -5 0 -10 -4 -10 -10z"/>
<path d="M44620 5970 c0 -5 5 -10 10 -10 6 0 10 5 10 10 0 6 -4 10 -10 10 -5 0 -10 -4 -10 -10z"/>
<path d="M66580 5910 c0 -5 5 -10 10 -10 6 0 10 5 10 10 0 6 -4 10 -10 10 -5 0 -10 -4 -10 -10z"/>
<path d="M66540 5829 c0 -5 5 -7 10 -4 6 3 10 8 10 11 0 2 -4 4 -10 4 -5 0 -10 -5 -10 -11z"/>
<path d="M25060 5530 c0 -5 5 -10 10 -10 6 0 10 5 10 10 0 6 -4 10 -10 10 -5 0 -10 -4 -10 -10z"/>
<path d="M44820 5530 c0 -5 5 -10 10 -10 6 0 10 5 10 10 0 6 -4 10 -10 10 -5 0 -10 -4 -10 -10z"/>
<path d="M47820 5350 c0 -5 5 -10 10 -10 6 0 10 5 10 10 0 6 -4 10 -10 10 -5 0 -10 -4 -10 -10z"/>
<path d="M40320 5290 c0 -5 5 -10 10 -10 6 0 10 5 10 10 0 6 -4 10 -10 10 -5 0 -10 -4 -10 -10z"/>
<path d="M20440 5025 c0 -8 5 -15 10 -15 6 0 10 7 10 15 0 8 -4 15 -10 15 -5 0 -10 -7 -10 -15z"/>
<path d="M20460 4979 c0 -5 5 -7 10 -4 6 3 10 8 10 11 0 2 -4 4 -10 4 -5 0 -10 -5 -10 -11z"/>
<path d="M65560 4850 c0 -5 5 -10 10 -10 6 0 10 5 10 10 0 6 -4 10 -10 10 -5 0 -10 -4 -10 -10z"/>
<path d="M20280 4650 c0 -5 5 -10 10 -10 6 0 10 5 10 10 0 6 -4 10 -10 10 -5 0 -10 -4 -10 -10z"/>
<path d="M40040 4650 c0 -5 5 -10 10 -10 6 0 10 5 10 10 0 6 -4 10 -10 10 -5 0 -10 -4 -10 -10z"/>
<path d="M12840 4410 c0 -5 5 -10 10 -10 6 0 10 5 10 10 0 6 -4 10 -10 10 -5 0 -10 -4 -10 -10z"/>
<path d="M15500 4410 c0 -5 5 -10 10 -10 6 0 10 5 10 10 0 6 -4 10 -10 10 -5 0 -10 -4 -10 -10z"/>
<path d="M19440 4410 c0 -5 5 -10 10 -10 6 0 10 5 10 10 0 6 -4 10 -10 10 -5 0 -10 -4 -10 -10z"/>
<path d="M25520 4410 c0 -5 5 -10 11 -10 5 0 7 5 4 10 -3 6 -8 10 -11 10 -2 0 -4 -4 -4 -10z"/>
<path d="M26420 4410 c0 -5 5 -10 10 -10 6 0 10 5 10 10 0 6 -4 10 -10 10 -5 0 -10 -4 -10 -10z"/>
<path d="M27480 4410 c0 -5 5 -10 10 -10 6 0 10 5 10 10 0 6 -4 10 -10 10 -5 0 -10 -4 -10 -10z"/>
<path d="M31220 4410 c0 -5 5 -10 10 -10 6 0 10 5 10 10 0 6 -4 10 -10 10 -5 0 -10 -4 -10 -10z"/>
<path d="M32280 4410 c0 -5 5 -10 10 -10 6 0 10 5 10 10 0 6 -4 10 -10 10 -5 0 -10 -4 -10 -10z"/>
<path d="M35580 4410 c0 -5 5 -10 10 -10 6 0 10 5 10 10 0 6 -4 10 -10 10 -5 0 -10 -4 -10 -10z"/>
<path d="M39360 4410 c0 -5 5 -10 10 -10 6 0 10 5 10 10 0 6 -4 10 -10 10 -5 0 -10 -4 -10 -10z"/>
<path d="M45280 4410 c0 -5 5 -10 11 -10 5 0 7 5 4 10 -3 6 -8 10 -11 10 -2 0 -4 -4 -4 -10z"/>
<path d="M50820 4410 c0 -5 5 -10 10 -10 6 0 10 5 10 10 0 6 -4 10 -10 10 -5 0 -10 -4 -10 -10z"/>
<path d="M54760 4410 c0 -5 5 -10 10 -10 6 0 10 5 10 10 0 6 -4 10 -10 10 -5 0 -10 -4 -10 -10z"/>
<path d="M55980 4410 c0 -5 5 -10 10 -10 6 0 10 5 10 10 0 6 -4 10 -10 10 -5 0 -10 -4 -10 -10z"/>
<path d="M57000 4410 c0 -5 5 -10 10 -10 6 0 10 5 10 10 0 6 -4 10 -10 10 -5 0 -10 -4 -10 -10z"/>
<path d="M57060 4410 c0 -5 5 -10 10 -10 6 0 10 5 10 10 0 6 -4 10 -10 10 -5 0 -10 -4 -10 -10z"/>
<path d="M62060 4410 c0 -5 5 -10 10 -10 6 0 10 5 10 10 0 6 -4 10 -10 10 -5 0 -10 -4 -10 -10z"/>
<path d="M68020 4410 c0 -5 5 -10 10 -10 6 0 10 5 10 10 0 6 -4 10 -10 10 -5 0 -10 -4 -10 -10z"/>
<path d="M71960 4410 c0 -5 5 -10 10 -10 6 0 10 5 10 10 0 6 -4 10 -10 10 -5 0 -10 -4 -10 -10z"/>
<path d="M73180 4410 c0 -5 5 -10 10 -10 6 0 10 5 10 10 0 6 -4 10 -10 10 -5 0 -10 -4 -10 -10z"/>
<path d="M74280 4410 c0 -5 5 -10 10 -10 6 0 10 5 10 10 0 6 -4 10 -10 10 -5 0 -10 -4 -10 -10z"/>
<path d="M74340 4410 c0 -5 5 -10 10 -10 6 0 10 5 10 10 0 6 -4 10 -10 10 -5 0 -10 -4 -10 -10z"/>
<path d="M77440 4410 c0 -5 5 -10 10 -10 6 0 10 5 10 10 0 6 -4 10 -10 10 -5 0 -10 -4 -10 -10z"/>
</g>
</g>
  <g id="id1:id1" transform="matrix(1.25,0,0,1.25,0.0,0.0)"><g transform="translate(0.000000,3332.800000) scale(0.040000,-0.040000)" fill="#9c8bbc" stroke="none">
<path d="M12365 76850 c-3 -5 -1 -10 4 -10 6 0 11 5 11 10 0 6 -2 10 -4 10 -3 0 -8 -4 -11 -10z"/>
<path d="M12140 76490 c0 -5 5 -10 10 -10 6 0 10 5 10 10 0 6 -4 10 -10 10 -5 0 -10 -4 -10 -10z"/>
<path d="M34455 76241 c-31 -5 -41 -11 -43 -27 -2 -11 4 -27 13 -34 8 -7 15 -22 15 -34 0 -12 6 -30 13 -41 8 -11 41 -81 75 -155 33 -74 104 -232 157 -350 54 -118 149 -330 212 -470 63 -140 123 -273 133 -295 66 -143 140 -307 140 -310 0 -2 20 -45 44 -97 24 -51 114 -250 201 -443 86 -192 165 -368 175 -390 58 -124 140 -307 140 -310 0 -2 20 -45 44 -97 41 -88 91 -198 321 -708 83 -184 162 -358 260 -575 13 -27 76 -167 140 -310 257 -570 398 -882 420 -930 65 -143 232 -513 402 -890 74 -165 143 -318 153 -340 56 -121 140 -307 140 -310 0 -2 18 -41 39 -87 57 -120 416 -914 501 -1108 21 -47 53 -119 73 -160 35 -76 78 -169 291 -645 65 -143 149 -330 188 -415 39 -85 81 -177 93 -205 77 -170 208 -459 422 -935 63 -140 123 -273 133 -295 68 -147 140 -307 140 -310 0 -2 18 -41 39 -87 22 -46 124 -270 226 -498 103 -228 212 -468 241 -533 30 -65 54 -120 54 -122 0 -2 20 -45 44 -97 48 -103 188 -412 291 -643 37 -82 77 -172 90 -200 13 -27 58 -126 100 -220 43 -93 88 -192 100 -220 39 -86 125 -275 183 -405 31 -69 62 -132 69 -141 7 -8 13 -21 13 -27 0 -7 9 -31 19 -55 103 -228 124 -273 131 -281 7 -7 130 -10 306 -6 18 0 30 20 69 113 26 61 58 135 70 162 13 28 40 91 60 140 21 50 53 123 71 163 19 40 34 75 34 79 0 3 13 33 29 67 16 33 47 104 69 156 50 117 107 249 207 475 12 28 68 158 125 290 96 225 120 279 219 503 21 48 49 112 61 142 13 30 33 78 45 105 13 28 64 145 113 260 50 116 111 257 137 315 26 58 65 148 87 200 22 52 51 118 63 145 13 28 63 145 113 260 50 116 112 257 137 315 26 58 65 148 87 200 22 52 51 118 63 145 13 28 50 113 83 190 33 77 98 228 145 335 46 107 99 229 117 270 18 41 49 113 70 160 21 47 48 110 60 140 13 30 38 88 56 128 19 40 34 75 34 79 0 3 13 33 29 67 16 33 47 104 69 156 42 99 89 206 152 350 21 47 48 110 60 140 13 30 33 78 45 105 13 28 66 149 118 270 52 121 104 240 115 265 48 106 101 229 122 280 13 30 33 78 45 105 13 28 63 145 113 260 50 116 112 257 137 315 26 58 65 148 87 200 22 52 51 118 63 145 13 28 63 145 113 260 50 116 112 257 137 315 26 58 65 148 87 200 22 52 51 118 63 145 13 28 57 131 100 230 42 99 87 203 100 230 13 28 41 93 63 145 42 98 87 203 152 350 21 47 48 110 60 140 13 30 38 88 56 128 19 40 34 75 34 79 0 3 13 33 29 67 31 66 151 343 181 416 18 45 103 241 146 335 12 28 65 149 117 270 52 121 113 263 136 315 23 52 61 138 83 190 22 52 51 118 63 145 13 28 63 145 113 260 50 116 112 257 137 315 26 58 65 148 87 200 22 52 51 118 63 145 13 28 63 145 113 260 50 116 112 257 137 315 26 58 65 148 87 200 22 52 51 118 63 145 13 28 40 91 60 140 21 50 53 123 71 163 19 40 34 75 34 79 0 3 13 33 29 67 16 33 39 86 51 116 26 65 65 152 87 198 13 26 14 35 4 45 -9 9 -336 13 -1465 15 l-1452 3 -20 -23 c-11 -13 -32 -50 -46 -83 -22 -52 -77 -179 -138 -320 -10 -22 -24 -56 -33 -76 -9 -19 -38 -87 -66 -150 -81 -189 -216 -499 -251 -579 -18 -41 -42 -95 -52 -120 -11 -25 -26 -58 -34 -75 -7 -16 -45 -104 -85 -195 -39 -91 -86 -199 -104 -240 -18 -41 -61 -140 -95 -220 -81 -186 -99 -228 -116 -265 -47 -105 -210 -478 -224 -515 -9 -25 -29 -70 -42 -100 -14 -30 -38 -84 -53 -120 -38 -89 -64 -150 -81 -185 -39 -86 -209 -476 -224 -515 -9 -25 -29 -70 -42 -100 -14 -30 -72 -161 -128 -290 -56 -129 -131 -302 -167 -385 -36 -82 -73 -168 -83 -190 -10 -22 -24 -56 -33 -75 -8 -19 -61 -141 -117 -270 -56 -129 -131 -302 -167 -385 -107 -245 -124 -283 -158 -365 -15 -36 -33 -79 -40 -95 -7 -17 -25 -62 -39 -100 -15 -39 -36 -92 -48 -120 -11 -27 -29 -70 -39 -95 -10 -25 -46 -121 -79 -215 -34 -93 -70 -192 -80 -220 -99 -265 -278 -809 -414 -1255 -53 -173 -110 -358 -126 -410 -16 -52 -50 -167 -76 -255 -25 -88 -56 -193 -67 -233 -12 -41 -26 -72 -32 -71 -5 2 -54 149 -108 328 -54 180 -109 362 -122 406 -13 44 -38 121 -55 170 -17 50 -36 107 -41 128 -16 64 -205 648 -225 692 -7 17 -36 100 -64 185 -45 135 -103 296 -170 475 -117 313 -309 780 -415 1010 -20 44 -56 125 -80 180 -23 55 -60 138 -82 185 -22 47 -62 135 -88 195 -26 61 -63 144 -82 185 -45 98 -57 126 -108 240 -23 52 -51 115 -62 140 -11 25 -26 59 -33 75 -7 17 -37 84 -67 150 -30 66 -90 199 -133 295 -161 363 -204 459 -268 600 -36 80 -71 161 -79 180 -15 34 -31 71 -90 200 -17 36 -52 115 -78 175 -26 61 -63 144 -82 185 -45 98 -57 126 -108 240 -59 134 -84 189 -105 235 -26 55 -108 239 -190 425 -37 85 -83 187 -100 225 -18 39 -56 124 -85 190 -50 113 -201 453 -257 575 -14 30 -49 109 -78 175 -29 66 -65 147 -80 180 -15 33 -44 98 -65 145 -55 127 -56 128 -79 134 -28 8 -3130 5 -3181 -3z"/>
<path d="M71200 75795 c0 -8 5 -15 10 -15 6 0 10 7 10 15 0 8 -4 15 -10 15 -5 0 -10 -7 -10 -15z"/>
<path d="M71160 75721 c0 -6 5 -13 10 -16 6 -3 10 1 10 9 0 9 -4 16 -10 16 -5 0 -10 -4 -10 -9z"/>
<path d="M70935 75430 c-3 -5 -1 -10 4 -10 6 0 11 5 11 10 0 6 -2 10 -4 10 -3 0 -8 -4 -11 -10z"/>
<path d="M70895 75390 c-3 -5 -1 -10 4 -10 6 0 11 5 11 10 0 6 -2 10 -4 10 -3 0 -8 -4 -11 -10z"/>
<path d="M70855 75350 c-3 -5 -1 -10 4 -10 6 0 11 5 11 10 0 6 -2 10 -4 10 -3 0 -8 -4 -11 -10z"/>
<path d="M70815 75310 c-3 -5 -1 -10 4 -10 6 0 11 5 11 10 0 6 -2 10 -4 10 -3 0 -8 -4 -11 -10z"/>
<path d="M70775 75270 c-3 -5 -1 -10 4 -10 6 0 11 5 11 10 0 6 -2 10 -4 10 -3 0 -8 -4 -11 -10z"/>
<path d="M70735 75230 c-3 -5 -1 -10 4 -10 6 0 11 5 11 10 0 6 -2 10 -4 10 -3 0 -8 -4 -11 -10z"/>
<path d="M70695 75190 c-3 -5 -1 -10 4 -10 6 0 11 5 11 10 0 6 -2 10 -4 10 -3 0 -8 -4 -11 -10z"/>
<path d="M70655 75150 c-3 -5 -1 -10 4 -10 6 0 11 5 11 10 0 6 -2 10 -4 10 -3 0 -8 -4 -11 -10z"/>
<path d="M70615 75110 c-3 -5 -1 -10 4 -10 6 0 11 5 11 10 0 6 -2 10 -4 10 -3 0 -8 -4 -11 -10z"/>
<path d="M70575 75070 c-3 -5 -1 -10 4 -10 6 0 11 5 11 10 0 6 -2 10 -4 10 -3 0 -8 -4 -11 -10z"/>
<path d="M70535 75030 c-3 -5 -1 -10 4 -10 6 0 11 5 11 10 0 6 -2 10 -4 10 -3 0 -8 -4 -11 -10z"/>
<path d="M70495 74990 c-3 -5 -1 -10 4 -10 6 0 11 5 11 10 0 6 -2 10 -4 10 -3 0 -8 -4 -11 -10z"/>
<path d="M70455 74950 c-3 -5 -1 -10 4 -10 6 0 11 5 11 10 0 6 -2 10 -4 10 -3 0 -8 -4 -11 -10z"/>
<path d="M70415 74910 c-3 -5 -1 -10 4 -10 6 0 11 5 11 10 0 6 -2 10 -4 10 -3 0 -8 -4 -11 -10z"/>
<path d="M70375 74870 c-3 -5 -1 -10 4 -10 6 0 11 5 11 10 0 6 -2 10 -4 10 -3 0 -8 -4 -11 -10z"/>
<path d="M70335 74830 c-3 -5 -1 -10 4 -10 6 0 11 5 11 10 0 6 -2 10 -4 10 -3 0 -8 -4 -11 -10z"/>
<path d="M70295 74790 c-3 -5 -1 -10 4 -10 6 0 11 5 11 10 0 6 -2 10 -4 10 -3 0 -8 -4 -11 -10z"/>
<path d="M70255 74750 c-3 -5 -1 -10 4 -10 6 0 11 5 11 10 0 6 -2 10 -4 10 -3 0 -8 -4 -11 -10z"/>
<path d="M70215 74710 c-3 -5 -1 -10 4 -10 6 0 11 5 11 10 0 6 -2 10 -4 10 -3 0 -8 -4 -11 -10z"/>
<path d="M70175 74670 c-3 -5 -1 -10 4 -10 6 0 11 5 11 10 0 6 -2 10 -4 10 -3 0 -8 -4 -11 -10z"/>
<path d="M70135 74630 c-3 -5 -1 -10 4 -10 6 0 11 5 11 10 0 6 -2 10 -4 10 -3 0 -8 -4 -11 -10z"/>
<path d="M70095 74590 c-3 -5 -1 -10 4 -10 6 0 11 5 11 10 0 6 -2 10 -4 10 -3 0 -8 -4 -11 -10z"/>
<path d="M70055 74550 c-3 -5 -1 -10 4 -10 6 0 11 5 11 10 0 6 -2 10 -4 10 -3 0 -8 -4 -11 -10z"/>
<path d="M70015 74510 c-3 -5 -1 -10 4 -10 6 0 11 5 11 10 0 6 -2 10 -4 10 -3 0 -8 -4 -11 -10z"/>
<path d="M69975 74470 c-3 -5 -1 -10 4 -10 6 0 11 5 11 10 0 6 -2 10 -4 10 -3 0 -8 -4 -11 -10z"/>
<path d="M69935 74430 c-3 -5 -1 -10 4 -10 6 0 11 5 11 10 0 6 -2 10 -4 10 -3 0 -8 -4 -11 -10z"/>
<path d="M69895 74390 c-3 -5 -1 -10 4 -10 6 0 11 5 11 10 0 6 -2 10 -4 10 -3 0 -8 -4 -11 -10z"/>
<path d="M69855 74350 c-3 -5 -1 -10 4 -10 6 0 11 5 11 10 0 6 -2 10 -4 10 -3 0 -8 -4 -11 -10z"/>
<path d="M69815 74310 c-3 -5 -1 -10 4 -10 6 0 11 5 11 10 0 6 -2 10 -4 10 -3 0 -8 -4 -11 -10z"/>
<path d="M69775 74270 c-3 -5 -1 -10 4 -10 6 0 11 5 11 10 0 6 -2 10 -4 10 -3 0 -8 -4 -11 -10z"/>
<path d="M69735 74230 c-3 -5 -1 -10 4 -10 6 0 11 5 11 10 0 6 -2 10 -4 10 -3 0 -8 -4 -11 -10z"/>
<path d="M69695 74190 c-3 -5 -1 -10 4 -10 6 0 11 5 11 10 0 6 -2 10 -4 10 -3 0 -8 -4 -11 -10z"/>
<path d="M69655 74150 c-3 -5 -1 -10 4 -10 6 0 11 5 11 10 0 6 -2 10 -4 10 -3 0 -8 -4 -11 -10z"/>
<path d="M69615 74110 c-3 -5 -1 -10 4 -10 6 0 11 5 11 10 0 6 -2 10 -4 10 -3 0 -8 -4 -11 -10z"/>
<path d="M69575 74070 c-3 -5 -1 -10 4 -10 6 0 11 5 11 10 0 6 -2 10 -4 10 -3 0 -8 -4 -11 -10z"/>
<path d="M69535 74030 c-3 -5 -1 -10 4 -10 6 0 11 5 11 10 0 6 -2 10 -4 10 -3 0 -8 -4 -11 -10z"/>
<path d="M69495 73990 c-3 -5 -1 -10 4 -10 6 0 11 5 11 10 0 6 -2 10 -4 10 -3 0 -8 -4 -11 -10z"/>
<path d="M69455 73950 c-3 -5 -1 -10 4 -10 6 0 11 5 11 10 0 6 -2 10 -4 10 -3 0 -8 -4 -11 -10z"/>
<path d="M69415 73910 c-3 -5 -1 -10 4 -10 6 0 11 5 11 10 0 6 -2 10 -4 10 -3 0 -8 -4 -11 -10z"/>
<path d="M69375 73870 c-3 -5 -1 -10 4 -10 6 0 11 5 11 10 0 6 -2 10 -4 10 -3 0 -8 -4 -11 -10z"/>
<path d="M69335 73830 c-3 -5 -1 -10 4 -10 6 0 11 5 11 10 0 6 -2 10 -4 10 -3 0 -8 -4 -11 -10z"/>
<path d="M69297 73793 c-4 -3 -7 -11 -7 -17 0 -6 5 -5 12 2 6 6 9 14 7 17 -3 3 -9 2 -12 -2z"/>
<path d="M69255 73750 c-3 -5 -1 -10 4 -10 6 0 11 5 11 10 0 6 -2 10 -4 10 -3 0 -8 -4 -11 -10z"/>
<path d="M20480 70100 c0 -11 5 -20 10 -20 6 0 10 9 10 20 0 11 -4 20 -10 20 -5 0 -10 -9 -10 -20z"/>
<path d="M20439 67436 c14 -14 28 -26 33 -26 15 0 8 28 -9 34 -10 3 -25 9 -33 12 -8 4 -4 -5 9 -20z"/>
<path d="M61440 65955 c0 -8 4 -15 9 -15 5 0 11 7 15 15 3 9 0 15 -9 15 -8 0 -15 -7 -15 -15z"/>
<path d="M27720 62850 c0 -5 9 -10 20 -10 11 0 20 5 20 10 0 6 -9 10 -20 10 -11 0 -20 -4 -20 -10z"/>
<path d="M25040 62830 c0 -5 9 -10 20 -10 11 0 20 5 20 10 0 6 -9 10 -20 10 -11 0 -20 -4 -20 -10z"/>
<path d="M58320 62830 c0 -5 5 -10 10 -10 6 0 10 5 10 10 0 6 -4 10 -10 10 -5 0 -10 -4 -10 -10z"/>
<path d="M13618 57999 l-18 -10 0 -7329 c0 -5852 3 -7330 13 -7337 6 -4 2180 -9 4829 -10 4352 -3 4818 -1 4832 13 14 14 16 150 13 1327 -1 722 -6 1318 -10 1324 -7 10 -683 13 -3314 13 -1818 0 -3308 1 -3309 3 -2 2 -4 2700 -4 5995 0 5385 -2 5992 -16 6006 -13 14 -176 16 -1507 15 -993 0 -1498 -3 -1509 -10z"/>
<path d="M61858 57999 l-18 -10 0 -7329 c0 -5852 3 -7330 13 -7337 19 -13 4834 -15 5012 -3 83 6 161 11 175 12 23 1 149 11 305 24 204 16 680 90 935 145 517 111 998 255 1360 406 47 19 99 41 115 48 151 61 219 92 410 186 461 225 869 475 1214 743 56 45 116 90 132 102 55 40 284 239 422 368 179 167 382 386 587 633 189 230 460 622 601 870 11 18 29 50 41 71 58 100 253 494 310 627 140 324 164 387 259 683 103 322 217 788 244 997 4 28 11 66 16 85 4 19 13 78 19 130 6 52 15 118 21 145 8 43 24 201 34 340 2 22 8 96 14 165 13 140 18 715 8 975 -6 153 -16 266 -47 550 -19 172 -76 529 -110 685 -45 207 -82 358 -139 565 -30 107 -129 404 -180 537 -100 263 -307 711 -412 892 -19 32 -54 95 -78 140 -24 44 -54 95 -67 113 -13 17 -24 34 -24 37 0 3 -13 25 -29 48 -15 24 -50 77 -76 118 -342 530 -849 1095 -1351 1505 -322 263 -700 522 -1014 695 -63 34 -135 74 -160 88 -70 40 -134 72 -145 72 -5 0 -21 9 -35 20 -14 11 -31 20 -38 20 -7 0 -24 7 -38 17 -33 21 -324 151 -484 215 -553 223 -1250 413 -1800 493 -52 8 -124 18 -160 24 -93 14 -248 33 -297 36 -23 2 -46 6 -50 8 -5 3 -62 9 -128 13 -172 10 -204 13 -265 19 -183 18 -903 24 -2870 24 -1476 0 -2221 -3 -2232 -10z m4922 -2692 c25 -2 83 -9 130 -15 47 -7 123 -14 170 -17 46 -3 100 -9 120 -14 19 -5 58 -12 85 -15 273 -35 714 -148 1020 -261 55 -21 118 -44 140 -52 69 -25 405 -191 491 -243 46 -28 85 -50 88 -50 11 0 310 -210 396 -278 126 -101 467 -442 566 -567 390 -491 652 -1056 812 -1750 41 -174 93 -494 107 -650 8 -90 24 -287 32 -395 17 -222 8 -610 -22 -975 -8 -98 -40 -356 -54 -440 -5 -27 -14 -79 -20 -115 -16 -87 -58 -277 -82 -370 -42 -156 -49 -178 -92 -310 -176 -530 -424 -977 -753 -1360 -120 -140 -372 -382 -509 -491 -362 -288 -770 -505 -1247 -664 -377 -125 -681 -190 -1163 -249 -214 -26 -493 -34 -1295 -35 l-805 -2 -5 4661 c-3 2564 -3 4664 0 4667 5 5 1819 -4 1890 -10z"/>
<path d="M40960 49620 c0 -11 5 -20 10 -20 6 0 10 9 10 20 0 11 -4 20 -10 20 -5 0 -10 -9 -10 -20z"/>
<path d="M43095 47490 c3 -5 8 -10 11 -10 2 0 4 5 4 10 0 6 -5 10 -11 10 -5 0 -7 -4 -4 -10z"/>
<path d="M40960 45475 c0 -8 4 -15 9 -15 5 0 11 7 15 15 3 9 0 15 -9 15 -8 0 -15 -7 -15 -15z"/>
<path d="M48200 42370 c0 -5 9 -10 20 -10 11 0 20 5 20 10 0 6 -9 10 -20 10 -11 0 -20 -4 -20 -10z"/>
<path d="M37840 42350 c0 -5 5 -10 10 -10 6 0 10 5 10 10 0 6 -4 10 -10 10 -5 0 -10 -4 -10 -10z"/>
<path d="M45520 42350 c0 -5 9 -10 20 -10 11 0 20 5 20 10 0 6 -9 10 -20 10 -11 0 -20 -4 -20 -10z"/>
<path d="M36058 32640 l-18 -11 0 -7329 c0 -5852 3 -7330 13 -7337 6 -4 686 -9 1509 -10 1345 -3 1498 -1 1512 13 14 14 16 198 16 1816 0 991 2 1803 4 1805 2 2 264 4 582 4 562 -1 754 6 1009 33 28 3 75 8 105 10 30 3 79 10 109 14 49 9 56 7 74 -12 11 -11 184 -273 383 -581 200 -308 370 -569 378 -580 18 -28 865 -1327 996 -1530 56 -88 111 -172 121 -186 10 -15 124 -191 255 -390 130 -200 248 -376 262 -391 l25 -28 1704 0 c1724 0 1783 1 1783 34 0 5 -6 17 -14 25 -8 9 -134 196 -280 416 -146 220 -279 420 -296 445 -17 25 -336 504 -708 1065 -373 561 -817 1229 -988 1484 -170 255 -313 471 -319 479 -5 9 -99 150 -208 314 -109 165 -196 305 -194 312 3 8 74 48 159 89 548 270 955 554 1339 937 262 261 397 431 638 808 57 89 235 450 294 597 189 471 302 968 354 1550 24 279 24 933 -2 1150 -1 17 -6 73 -9 125 -3 52 -10 115 -15 140 -5 25 -15 88 -21 140 -14 122 -30 217 -41 254 -5 16 -9 40 -9 53 0 14 -9 64 -20 111 -12 48 -27 116 -35 152 -58 257 -216 724 -304 898 -5 9 -48 96 -95 192 -48 96 -94 189 -104 205 -9 17 -33 57 -51 90 -55 95 -177 280 -269 405 -260 352 -585 677 -945 944 -121 90 -381 266 -392 266 -4 0 -21 10 -38 23 -18 12 -41 27 -52 33 -11 6 -54 30 -95 53 -103 58 -456 231 -560 274 -242 101 -311 127 -507 192 -187 62 -477 145 -628 180 -38 9 -106 25 -150 35 -97 23 -231 50 -305 62 -30 4 -80 13 -110 18 -30 5 -91 14 -135 20 -44 5 -99 15 -123 21 -23 7 -45 9 -48 6 -3 -3 -17 -2 -30 3 -13 5 -56 12 -96 15 -84 7 -121 11 -226 24 -79 10 -185 19 -327 26 -44 3 -136 10 -205 16 -174 15 -4628 23 -4652 9z m4612 -2695 c30 -3 78 -7 105 -10 150 -13 257 -25 315 -35 36 -6 92 -15 125 -20 232 -31 584 -122 811 -211 282 -109 518 -247 721 -421 430 -370 691 -913 769 -1605 26 -234 27 -250 28 -543 1 -287 -1 -332 -28 -583 -29 -258 -85 -502 -168 -727 -109 -295 -265 -537 -485 -751 -110 -107 -278 -239 -366 -288 -21 -12 -69 -39 -108 -61 -287 -163 -772 -309 -1209 -366 -68 -8 -127 -17 -130 -19 -3 -2 -41 -6 -85 -10 -44 -3 -132 -10 -195 -16 -296 -25 -387 -27 -1103 -29 l-577 -1 0 2853 c0 1569 0 2855 0 2856 0 6 1520 -7 1580 -13z"/>
<path d="M61440 29140 c0 -11 5 -20 10 -20 6 0 10 9 10 20 0 11 -4 20 -10 20 -5 0 -10 -9 -10 -20z"/>
<path d="M61399 26476 c14 -14 28 -26 33 -26 15 0 8 28 -9 34 -10 3 -25 9 -33 12 -8 4 -4 -5 9 -20z"/>
<path d="M20480 24995 c0 -8 4 -15 9 -15 5 0 11 7 15 15 3 9 0 15 -9 15 -8 0 -15 -7 -15 -15z"/>
<path d="M68680 21890 c0 -5 9 -10 20 -10 11 0 20 5 20 10 0 6 -9 10 -20 10 -11 0 -20 -4 -20 -10z"/>
<path d="M17360 21870 c0 -5 5 -10 10 -10 6 0 10 5 10 10 0 6 -4 10 -10 10 -5 0 -10 -4 -10 -10z"/>
<path d="M66000 21870 c0 -5 9 -10 20 -10 11 0 20 5 20 10 0 6 -9 10 -20 10 -11 0 -20 -4 -20 -10z"/>
<path d="M71160 19370 c0 -5 5 -10 10 -10 6 0 10 5 10 10 0 6 -4 10 -10 10 -5 0 -10 -4 -10 -10z"/>
<path d="M71200 19290 c0 -5 5 -10 10 -10 6 0 10 5 10 10 0 6 -4 10 -10 10 -5 0 -10 -4 -10 -10z"/>
<path d="M71120 18390 c0 -5 5 -10 10 -10 6 0 10 5 10 10 0 6 -4 10 -10 10 -5 0 -10 -4 -10 -10z"/>
<path d="M70845 18110 c3 -5 8 -10 11 -10 2 0 4 5 4 10 0 6 -5 10 -11 10 -5 0 -7 -4 -4 -10z"/>
<path d="M69865 18070 c3 -5 8 -10 11 -10 2 0 4 5 4 10 0 6 -5 10 -11 10 -5 0 -7 -4 -4 -10z"/>
<path d="M26375 10367 c-13 -7 -15 -383 -15 -2983 0 -2824 1 -2975 18 -2982 22 -9 1132 -9 1154 0 17 7 18 80 13 1330 -2 728 -6 1361 -8 1408 -13 250 -16 419 -9 424 5 3 33 -29 62 -72 210 -303 402 -544 683 -858 116 -131 230 -259 253 -285 22 -25 101 -113 175 -195 74 -81 172 -191 219 -244 109 -124 327 -369 351 -395 14 -14 34 -20 83 -22 l64 -2 94 102 c52 56 186 205 299 331 112 126 267 299 343 385 534 597 629 710 814 963 131 178 137 186 178 250 20 32 41 55 46 52 5 -3 6 -61 2 -137 -4 -73 -8 -170 -10 -217 -2 -47 -7 -148 -11 -225 -13 -234 -15 -2577 -3 -2589 14 -14 1128 -20 1165 -6 l25 10 -2 2974 c-2 1636 -6 2977 -9 2981 -12 12 -82 13 -106 2 -13 -6 -92 -87 -176 -181 -84 -93 -195 -217 -247 -276 -152 -169 -619 -691 -1090 -1215 -162 -180 -317 -354 -345 -385 -27 -32 -129 -145 -225 -252 -96 -107 -309 -344 -473 -527 -164 -182 -304 -330 -310 -328 -7 2 -129 131 -271 288 -415 455 -1142 1253 -1256 1379 -57 63 -219 241 -360 395 -140 154 -367 404 -505 555 -137 151 -301 331 -364 400 -63 69 -120 131 -127 139 -13 15 -97 21 -119 8z"/>
<path d="M22772 10347 c-11 -12 -35 -56 -52 -97 -17 -41 -37 -88 -45 -105 -33 -71 -209 -474 -225 -515 -9 -25 -29 -70 -42 -100 -14 -30 -72 -161 -128 -290 -56 -129 -131 -302 -167 -385 -36 -82 -75 -170 -85 -195 -11 -25 -26 -58 -34 -75 -47 -105 -210 -478 -224 -515 -9 -25 -29 -70 -42 -100 -14 -30 -72 -161 -128 -290 -56 -129 -131 -302 -167 -385 -36 -82 -75 -170 -85 -195 -11 -25 -26 -58 -34 -75 -47 -105 -210 -478 -224 -515 -9 -25 -29 -70 -42 -100 -14 -30 -72 -161 -128 -290 -187 -430 -258 -593 -289 -662 -11 -24 -34 -77 -51 -118 -18 -41 -43 -97 -55 -125 -12 -27 -35 -79 -50 -115 -15 -36 -36 -81 -46 -101 -10 -20 -19 -41 -19 -47 0 -6 -15 -43 -34 -84 -70 -151 -196 -444 -196 -454 0 -7 28 -14 68 -17 96 -9 1095 -8 1108 1 6 4 35 63 64 132 55 133 127 303 182 435 l34 80 1185 5 c782 3 1188 2 1196 -5 6 -5 48 -98 92 -205 45 -107 92 -220 105 -250 13 -30 34 -81 47 -114 13 -32 33 -65 45 -73 31 -20 1260 -15 1273 5 5 9 1 28 -10 50 -20 38 -47 97 -159 347 -34 77 -80 178 -102 225 -59 128 -68 148 -109 241 -21 48 -57 129 -82 180 -24 52 -68 148 -97 214 -29 66 -74 165 -100 220 -26 55 -59 129 -75 165 -26 62 -45 104 -120 265 -18 39 -49 108 -70 155 -20 47 -52 117 -70 155 -18 39 -42 93 -55 120 -12 28 -33 74 -47 104 -14 29 -40 88 -58 130 -18 42 -52 117 -75 166 -23 50 -53 114 -67 144 -13 29 -40 88 -58 130 -18 42 -50 114 -72 161 -22 47 -68 148 -103 225 -34 77 -80 178 -102 225 -59 128 -68 148 -109 241 -21 48 -57 129 -82 180 -24 52 -68 148 -97 214 -29 66 -74 165 -100 220 -26 55 -59 129 -75 165 -26 62 -45 104 -120 265 -18 39 -49 108 -70 155 -20 47 -52 117 -70 155 -18 39 -42 93 -55 120 -12 28 -33 74 -47 104 -14 29 -40 88 -58 130 -42 98 -111 246 -135 293 -11 20 -20 43 -20 51 0 22 -21 34 -71 40 -39 5 -49 3 -67 -16z m88 -2382 c100 -337 212 -655 332 -945 128 -309 237 -571 258 -620 10 -25 32 -76 48 -115 16 -38 38 -92 50 -120 14 -33 17 -53 11 -60 -12 -12 -1453 -14 -1481 -3 -16 7 -15 12 8 65 44 102 50 117 139 333 26 63 69 167 95 230 27 63 72 171 100 240 28 69 59 141 67 160 48 109 156 425 243 713 38 126 72 233 76 238 10 18 19 -1 54 -116z"/>
<path d="M42532 10347 c-11 -12 -35 -56 -52 -97 -17 -41 -37 -88 -45 -105 -33 -71 -209 -474 -225 -515 -9 -25 -29 -70 -42 -100 -14 -30 -72 -161 -128 -290 -56 -129 -131 -302 -167 -385 -36 -82 -75 -170 -85 -195 -11 -25 -26 -58 -34 -75 -47 -105 -210 -478 -224 -515 -9 -25 -29 -70 -42 -100 -24 -51 -134 -303 -295 -675 -36 -82 -73 -168 -83 -190 -32 -69 -141 -318 -160 -365 -10 -25 -37 -85 -59 -133 -23 -49 -41 -93 -41 -97 0 -5 -15 -41 -34 -82 -19 -40 -80 -179 -136 -308 -56 -129 -131 -302 -167 -385 -36 -82 -75 -170 -85 -195 -11 -25 -26 -58 -34 -75 -47 -105 -210 -478 -224 -515 -9 -25 -29 -70 -42 -100 -70 -151 -188 -427 -188 -436 0 -7 30 -14 71 -18 83 -9 1094 -5 1107 3 5 3 33 62 62 131 55 133 127 303 182 435 l34 80 1185 5 c782 3 1188 2 1196 -5 6 -5 48 -98 92 -205 45 -107 92 -220 105 -250 13 -30 34 -81 47 -114 13 -32 33 -65 45 -73 31 -20 1260 -15 1273 5 5 9 1 28 -10 50 -20 38 -47 97 -159 347 -34 77 -80 178 -102 225 -59 128 -68 148 -109 241 -21 48 -57 129 -82 180 -24 52 -68 148 -97 214 -29 66 -74 165 -100 220 -26 55 -59 129 -75 165 -26 62 -45 104 -120 265 -18 39 -49 108 -70 155 -20 47 -52 117 -70 155 -18 39 -42 93 -55 120 -12 28 -33 74 -47 104 -14 29 -40 88 -58 130 -18 42 -52 117 -75 166 -23 50 -53 114 -67 144 -13 29 -40 88 -58 130 -18 42 -50 114 -72 161 -22 47 -68 148 -103 225 -34 77 -80 178 -102 225 -59 128 -68 148 -109 241 -21 48 -57 129 -82 180 -24 52 -68 148 -97 214 -29 66 -74 165 -100 220 -26 55 -59 129 -75 165 -26 62 -45 104 -120 265 -18 39 -49 108 -70 155 -38 85 -69 155 -130 285 -18 39 -55 122 -83 185 -61 141 -126 282 -152 332 -11 20 -20 43 -20 51 0 22 -21 34 -71 40 -39 5 -49 3 -67 -16z m88 -2382 c100 -337 212 -655 332 -945 128 -309 237 -571 258 -620 10 -25 32 -76 48 -115 16 -38 38 -92 50 -120 14 -33 17 -53 11 -60 -12 -12 -1453 -14 -1481 -3 -16 7 -15 12 8 65 44 102 50 117 139 333 26 63 69 167 95 230 27 63 72 171 100 240 28 69 59 141 67 160 48 109 156 425 243 713 38 126 72 233 76 238 10 18 19 -1 54 -116z"/>
<path d="M55938 10359 c-17 -9 -18 -162 -18 -2979 0 -2364 3 -2970 13 -2977 6 -4 263 -9 569 -10 491 -3 558 -1 572 13 14 13 16 153 16 1292 0 775 -5 1334 -11 1422 -10 138 -13 177 -23 280 -2 25 -7 92 -11 150 -3 57 -8 107 -10 111 -3 3 -7 35 -10 70 -3 35 -8 80 -11 100 -3 21 -2 39 3 42 4 3 37 -31 73 -75 132 -164 367 -436 460 -532 52 -54 342 -331 645 -615 302 -284 667 -626 810 -761 143 -135 298 -281 345 -324 47 -44 337 -316 645 -605 308 -290 584 -548 613 -575 49 -46 56 -49 112 -52 50 -3 61 -1 70 16 15 28 14 5938 -1 5957 -16 18 -1118 20 -1137 1 -15 -15 -16 -2641 -1 -2813 5 -60 11 -146 14 -190 5 -79 20 -257 35 -405 7 -73 -2 -113 -17 -74 -14 37 -297 380 -472 573 -47 52 -300 295 -561 540 -261 245 -592 556 -735 691 -143 135 -298 281 -345 324 -47 44 -335 314 -640 601 -305 286 -624 586 -709 665 l-154 144 -56 3 c-31 1 -64 -2 -73 -8z"/>
<path d="M9995 10310 c-6 -10 -8 -1070 -2 -1076 2 -3 378 -4 835 -5 457 0 834 -4 837 -8 2 -5 5 -1087 5 -2404 0 -2135 2 -2398 16 -2411 13 -14 87 -15 607 -13 326 1 598 6 604 10 10 6 13 514 13 2410 l0 2402 37 7 c21 4 398 7 837 7 640 0 801 3 808 13 13 20 10 1049 -4 1065 -8 11 -423 13 -2299 13 -1486 0 -2290 -3 -2294 -10z"/>
<path d="M15452 10308 c-18 -18 -17 -5893 1 -5905 16 -11 4005 -15 4024 -4 14 7 15 72 15 533 1 289 -3 531 -6 537 -5 8 -381 11 -1398 11 -841 0 -1394 3 -1397 9 -3 5 -4 191 -1 413 l5 403 1170 3 c644 1 1174 3 1179 5 9 3 12 1044 3 1053 -2 2 -531 4 -1176 4 l-1172 1 -7 22 c-4 12 -5 429 -2 927 l5 905 1330 3 c732 1 1334 3 1339 5 10 3 12 1059 2 1076 -11 17 -3897 16 -3914 -1z"/>
<path d="M35532 10308 c-18 -18 -18 -5893 1 -5905 18 -12 3850 -15 3882 -3 l25 10 0 522 c-1 363 -4 526 -12 535 -9 11 -248 13 -1331 13 -726 0 -1322 1 -1324 3 -2 2 -3 1070 -4 2373 0 1303 -3 2389 -7 2414 l-7 45 -605 3 c-463 2 -609 -1 -618 -10z"/>
<path d="M44613 10313 c-21 -3 -33 -10 -33 -19 0 -8 33 -88 74 -177 40 -89 113 -250 161 -357 75 -168 180 -400 260 -575 25 -55 102 -226 279 -620 65 -143 149 -330 188 -415 105 -231 111 -245 168 -370 28 -63 71 -158 95 -210 23 -52 116 -257 205 -455 89 -198 170 -378 180 -400 58 -126 140 -307 140 -310 0 -2 18 -41 39 -87 22 -46 124 -270 226 -498 103 -228 212 -468 241 -533 30 -65 54 -120 54 -122 0 -2 20 -45 44 -97 42 -89 245 -536 300 -663 15 -32 32 -63 39 -67 21 -14 114 -9 126 6 12 14 79 162 153 336 22 52 57 133 78 180 21 47 48 110 60 140 13 30 38 88 56 128 19 40 34 75 34 79 0 3 13 33 29 67 16 33 47 104 69 156 42 99 89 206 152 350 21 47 48 110 60 140 13 30 33 78 45 105 13 28 66 149 118 270 52 121 104 240 115 265 48 106 101 229 122 280 13 30 33 78 45 105 13 28 63 145 113 260 50 116 112 257 137 315 26 58 65 148 87 200 22 52 51 118 63 145 13 28 63 145 113 260 50 116 112 257 137 315 26 58 65 148 87 200 22 52 51 118 63 145 13 28 57 131 100 230 42 99 87 203 100 230 13 28 41 93 63 145 42 98 87 203 152 350 21 47 48 110 60 140 13 30 38 88 56 128 19 40 34 75 34 79 0 3 13 33 29 67 15 33 36 79 45 101 l18 39 -18 13 c-26 19 -1167 19 -1181 1 -5 -7 -20 -38 -32 -68 -22 -51 -134 -311 -288 -665 -36 -82 -73 -168 -83 -190 -10 -22 -24 -56 -33 -76 -9 -19 -38 -87 -66 -150 -81 -189 -216 -499 -251 -579 -18 -41 -41 -93 -50 -115 -10 -22 -24 -56 -33 -75 -40 -90 -133 -306 -179 -415 -28 -66 -56 -133 -63 -150 -48 -111 -177 -494 -259 -765 -77 -254 -81 -265 -97 -265 -15 0 -23 20 -74 190 -45 146 -222 678 -240 720 -7 17 -30 73 -50 125 -20 52 -47 118 -59 145 -13 28 -45 100 -71 160 -26 61 -62 140 -80 176 -17 36 -34 74 -38 85 -3 10 -32 78 -64 149 -33 72 -68 148 -77 170 -10 22 -26 58 -36 80 -26 56 -109 243 -190 425 -37 85 -85 191 -105 235 -20 44 -56 125 -80 180 -23 55 -60 138 -82 185 -22 47 -73 159 -113 250 -40 91 -77 169 -81 174 -5 6 -9 18 -9 27 0 10 -7 25 -16 33 -14 14 -83 16 -632 14 -339 0 -632 -3 -649 -5z"/>
<path d="M50772 10308 c-18 -18 -17 -5893 1 -5905 16 -11 4005 -15 4024 -4 14 7 15 72 15 533 1 289 -3 531 -6 537 -5 8 -381 11 -1398 11 -841 0 -1394 3 -1397 9 -3 5 -4 191 -1 413 l5 403 1170 3 c644 1 1174 3 1179 5 9 3 12 1044 3 1053 -2 2 -531 4 -1176 4 l-1172 1 -7 22 c-4 12 -5 429 -2 927 l5 905 1330 3 c732 1 1334 3 1339 5 10 3 12 1059 2 1076 -11 17 -3897 16 -3914 -1z"/>
<path d="M62012 10308 c-9 -9 -12 -654 -12 -2955 0 -2794 1 -2944 18 -2951 9 -4 499 -7 1087 -7 1074 0 1125 1 1295 35 25 5 88 16 140 25 465 79 925 278 1320 573 110 83 357 318 430 411 19 25 47 59 61 75 62 75 199 281 199 300 0 4 11 22 25 40 14 18 25 39 25 45 0 7 9 24 20 38 11 14 20 32 20 40 0 8 9 26 20 40 11 14 20 31 20 39 0 7 6 25 14 41 77 153 173 463 206 668 5 33 13 85 19 115 28 168 38 591 17 770 -2 19 -8 78 -15 130 -25 216 -98 517 -161 665 -5 11 -21 52 -36 90 -41 107 -160 340 -222 435 -287 436 -614 733 -1077 975 -218 115 -431 194 -722 270 -116 30 -248 52 -493 81 -119 15 -275 17 -1195 21 -770 3 -993 1 -1003 -9z m1983 -1091 c22 -3 87 -10 145 -17 250 -28 567 -131 745 -243 328 -205 552 -493 674 -867 29 -88 69 -265 82 -358 6 -42 13 -90 15 -107 10 -59 13 -461 4 -510 -5 -27 -14 -93 -21 -145 -33 -274 -139 -567 -278 -770 -182 -263 -406 -443 -711 -568 -93 -39 -297 -97 -370 -107 -30 -3 -71 -10 -90 -15 -19 -5 -66 -12 -105 -15 -93 -9 -818 -22 -828 -14 -8 6 -10 3726 -2 3739 6 9 667 6 740 -3z"/>
<path d="M67972 10308 c-18 -18 -17 -5893 1 -5905 16 -11 4005 -15 4024 -4 14 7 15 72 15 533 1 289 -3 531 -6 537 -5 8 -381 11 -1398 11 -841 0 -1394 3 -1397 9 -3 5 -4 191 -1 413 l5 403 1170 3 c644 1 1174 3 1179 5 9 3 12 1044 3 1053 -2 2 -531 4 -1176 4 l-1172 1 -7 22 c-4 12 -5 429 -2 927 l5 905 1330 3 c732 1 1334 3 1339 5 10 3 12 1059 2 1076 -11 17 -3897 16 -3914 -1z"/>
<path d="M73132 10308 c-18 -18 -17 -5893 1 -5905 6 -4 281 -9 609 -10 525 -3 598 -1 612 12 13 14 15 102 16 727 0 392 2 714 4 716 3 2 125 5 273 6 147 2 300 6 338 11 39 4 83 8 99 9 27 1 53 -36 507 -734 409 -628 483 -736 506 -741 37 -9 1283 -11 1351 -3 28 4 52 11 52 16 0 6 -9 22 -21 36 -11 15 -32 45 -46 67 -15 22 -251 378 -526 790 -275 413 -525 789 -557 837 l-58 87 36 23 c20 13 53 31 72 40 209 104 426 269 564 428 87 101 177 230 212 303 14 28 32 63 39 77 66 120 133 323 161 490 8 47 20 112 25 145 22 121 13 662 -11 755 -5 19 -16 76 -25 125 -16 84 -54 223 -90 325 -30 84 -153 329 -201 397 -251 364 -543 586 -1009 768 -64 25 -120 45 -126 45 -5 0 -45 11 -87 24 -115 35 -245 65 -355 81 -53 8 -101 17 -106 20 -5 3 -44 8 -88 11 -43 3 -94 7 -113 9 -202 20 -419 24 -1175 25 -665 0 -874 -3 -883 -12z m1938 -1100 c579 -61 888 -271 1020 -694 55 -178 72 -458 41 -675 -43 -298 -108 -438 -277 -600 -159 -152 -418 -250 -739 -278 -71 -7 -165 -17 -208 -22 -90 -12 -525 -10 -533 2 -6 11 -5 2269 1 2279 9 14 531 5 695 -12z"/>
</g>
</g>
</svg>
