<?xml version="1.0" standalone="no"?>
<!DOCTYPE svg PUBLIC "-//W3C//DTD SVG 1.1//EN"
 "http://www.w3.org/Graphics/SVG/1.1/DTD/svg11.dtd">
<!-- Created with svg_stack (http://github.com/astraw/svg_stack) -->
<svg xmlns:sodipodi="http://sodipodi.sourceforge.net/DTD/sodipodi-0.dtd" xmlns="http://www.w3.org/2000/svg" version="1.1" width="600.0" height="166.0">
  <defs/>
  <g id="id0:id0" transform="matrix(1.25,0,0,1.25,0.0,0.0)"><g transform="translate(0.000000,132.800000) scale(0.040000,-0.040000)" fill="#838589" stroke="none">
<path d="M1606 3311 c-3 -4 -40 -11 -83 -15 -148 -12 -188 -57 -188 -211 0 -96 19 -307 35 -390 6 -27 17 -90 25 -140 23 -142 44 -225 68 -269 19 -36 27 -41 57 -41 49 0 76 43 85 137 7 70 25 118 45 118 17 0 40 -58 50 -128 5 -38 12 -76 16 -85 15 -39 90 -61 113 -33 26 31 80 267 100 442 6 50 15 113 21 140 5 27 13 108 16 181 8 145 -3 199 -49 240 -24 22 -104 43 -167 43 -21 0 -42 5 -45 10 -8 12 -92 13 -99 1z"/>
<path d="M660 2939 c-69 -41 -237 -208 -273 -273 -65 -118 -28 -177 250 -393 246 -191 451 -323 503 -323 18 0 60 43 60 62 0 19 -34 84 -66 123 -42 53 -57 83 -50 102 9 23 51 8 119 -42 69 -53 114 -64 151 -40 34 22 33 49 -3 118 -41 77 -95 156 -244 355 -201 268 -261 327 -348 337 -37 5 -53 1 -99 -26z"/>
<path d="M7385 2761 c-292 -59 -524 -304 -555 -589 -32 -301 107 -561 375 -696 108 -54 201 -76 327 -76 133 0 229 24 342 83 77 41 216 157 216 181 0 21 -177 189 -190 181 -7 -4 -29 -26 -48 -47 -141 -156 -369 -187 -547 -73 -104 66 -168 158 -201 284 -25 98 0 209 72 316 45 68 90 107 172 146 171 82 356 49 498 -90 l62 -59 86 89 c47 49 86 96 86 103 0 28 -120 128 -215 179 -105 56 -160 70 -305 73 -74 1 -153 -1 -175 -5z"/>
<path d="M11065 2761 c-181 -31 -395 -186 -477 -346 -67 -130 -80 -184 -80 -330 0 -115 3 -139 27 -209 64 -184 176 -312 350 -400 195 -99 453 -103 638 -9 111 55 237 160 237 196 0 18 -154 187 -171 187 -4 0 -27 -21 -51 -46 -92 -99 -193 -145 -318 -147 -120 -1 -213 36 -304 122 -124 118 -172 286 -122 426 44 124 120 211 231 266 169 83 352 51 493 -85 l68 -65 87 88 c48 49 87 95 87 104 0 17 -77 90 -143 136 -63 43 -159 87 -232 106 -61 15 -242 19 -320 6z"/>
<path d="M4492 2738 c-17 -17 -17 -1289 0 -1306 18 -18 242 -17 257 1 7 9 12 86 13 213 l3 199 150 6 c173 7 225 21 315 81 67 44 104 89 153 183 l31 60 1 120 0 120 -32 68 c-63 132 -193 232 -334 256 -92 15 -541 15 -557 -1z m497 -213 c97 -34 161 -123 161 -225 0 -93 -60 -180 -152 -220 -40 -17 -65 -20 -141 -18 l-92 3 -3 225 c-1 123 0 230 2 237 7 19 172 17 225 -2z"/>
<path d="M5945 2723 c-14 -15 -25 -31 -25 -35 0 -3 -22 -53 -49 -110 -27 -56 -70 -148 -96 -203 -26 -55 -62 -131 -80 -170 -18 -38 -67 -141 -109 -228 -42 -87 -76 -160 -76 -162 0 -2 -38 -83 -85 -180 -47 -97 -85 -185 -85 -196 0 -18 8 -19 133 -19 91 0 138 4 149 13 9 6 30 44 47 84 17 40 41 92 54 115 l22 43 315 0 314 0 13 -25 c7 -14 34 -70 60 -125 l48 -100 138 -3 c114 -2 138 0 143 12 3 8 -10 48 -29 88 -128 267 -187 390 -187 393 0 1 -35 76 -78 166 -44 90 -90 189 -105 219 -100 213 -185 390 -202 418 l-19 32 -93 0 -92 0 -26 -27z m159 -465 c19 -40 48 -104 66 -143 17 -38 45 -96 61 -128 16 -33 27 -63 23 -68 -8 -13 -381 -12 -389 1 -4 6 15 54 41 108 26 53 69 143 95 200 26 56 53 102 58 102 6 0 26 -33 45 -72z"/>
<path d="M8291 2736 c-16 -19 -15 -1284 0 -1303 16 -18 242 -19 257 0 16 19 17 1284 1 1303 -16 20 -242 20 -258 0z"/>
<path d="M8882 2741 c-10 -6 -13 -136 -13 -655 0 -356 3 -651 6 -657 5 -7 241 -14 247 -6 1 1 5 130 8 287 l5 285 289 3 c198 1 294 6 303 14 10 8 13 35 11 107 l-3 96 -300 5 -300 5 0 140 0 140 305 6 c168 3 306 6 308 7 1 1 2 51 2 111 0 90 -3 110 -16 115 -24 9 -837 7 -852 -3z"/>
<path d="M9992 2742 c-10 -7 -12 -146 -10 -663 l3 -654 119 -3 c66 -1 123 1 128 6 12 12 10 1304 -1 1312 -15 9 -225 11 -239 2z"/>
<path d="M169 1976 c-108 -23 -135 -60 -145 -193 -3 -43 -11 -88 -17 -101 -8 -17 -8 -25 1 -34 7 -7 12 -36 12 -65 0 -142 42 -214 137 -233 118 -25 698 54 868 117 46 17 50 22 53 54 5 53 -29 78 -117 90 -68 8 -123 28 -136 48 -11 18 40 40 120 50 46 7 90 19 104 29 56 41 43 96 -30 124 -93 34 -335 77 -584 103 -77 8 -156 17 -175 19 -19 3 -60 -1 -91 -8z"/>
<path d="M2910 1970 c-306 -35 -560 -81 -635 -117 -58 -28 -60 -90 -3 -119 17 -9 63 -20 102 -26 39 -5 82 -16 94 -24 22 -15 23 -17 7 -34 -16 -18 -61 -30 -157 -45 -51 -8 -79 -33 -81 -74 -2 -29 3 -37 29 -53 97 -57 758 -154 881 -129 63 12 99 34 118 71 22 43 38 204 31 310 -9 127 -19 167 -52 201 -51 53 -128 62 -334 39z"/>
<path d="M1020 1320 c-112 -60 -421 -282 -571 -412 -47 -40 -76 -75 -100 -122 l-34 -65 27 -53 c61 -124 265 -314 348 -325 76 -10 142 29 232 137 176 213 332 430 399 557 43 82 42 105 -9 124 -39 15 -67 4 -151 -57 -41 -30 -82 -53 -90 -52 -30 6 -24 47 12 91 80 98 97 158 55 197 -12 11 -27 20 -32 20 -6 0 -45 -19 -86 -40z"/>
<path d="M2170 1340 c-38 -38 -27 -87 35 -167 57 -74 64 -93 42 -111 -16 -13 -41 -2 -109 50 -64 49 -109 63 -145 46 -68 -32 -27 -124 181 -403 267 -358 325 -415 424 -415 74 0 251 144 338 275 33 49 39 66 39 110 -1 87 -49 136 -383 394 -154 119 -353 241 -393 241 -5 0 -18 -9 -29 -20z"/>
<path d="M11804 1146 c-11 -8 -31 -35 -43 -60 -22 -42 -23 -49 -11 -92 10 -35 23 -53 53 -75 45 -33 110 -39 143 -14 10 8 27 15 37 15 14 0 17 9 17 50 0 28 -4 50 -9 50 -5 0 -30 -20 -54 -45 -25 -25 -50 -45 -57 -45 -25 0 -71 32 -85 60 -22 42 -19 63 15 95 33 32 33 32 31 -45 -2 -66 8 -85 38 -75 33 10 58 68 43 100 -12 27 -9 45 9 45 5 0 14 -11 19 -25 14 -36 50 -34 50 3 0 44 -45 72 -117 72 -34 0 -67 -6 -79 -14z"/>
<path d="M4499 1126 c-14 -15 -12 -499 3 -514 8 -8 52 -12 134 -12 138 0 192 16 252 73 57 55 76 101 76 192 1 68 -3 88 -26 131 -30 57 -74 99 -128 122 -40 17 -295 23 -311 8z m279 -113 c51 -38 67 -70 67 -136 0 -112 -51 -162 -170 -169 l-60 -3 -3 155 c-1 85 0 161 3 168 8 22 129 10 163 -15z"/>
<path d="M5118 1130 l-23 -6 -3 -248 c-2 -175 1 -253 9 -262 9 -11 49 -14 175 -14 l164 0 6 24 c3 13 4 37 2 52 l-3 29 -114 5 c-127 6 -133 9 -122 79 l6 36 105 3 c57 1 110 8 117 14 7 6 13 23 13 38 0 15 -6 32 -13 38 -7 6 -60 13 -117 14 l-104 3 -9 38 c-14 60 -3 66 126 69 l112 3 3 27 c7 59 -2 63 -161 63 -80 0 -156 -2 -169 -5z"/>
<path d="M5600 1131 l-25 -7 -3 -249 c-3 -278 -3 -275 65 -275 48 0 55 22 51 165 -2 81 1 128 8 135 11 11 62 -59 159 -219 22 -35 50 -67 63 -72 34 -13 78 -11 91 5 8 9 11 87 9 262 l-3 248 -35 8 c-69 14 -70 13 -70 -142 0 -76 -4 -141 -9 -144 -9 -6 -149 197 -173 249 -17 37 -71 52 -128 36z"/>
<path d="M6140 1126 c-14 -14 -12 -73 3 -83 6 -4 37 -10 67 -13 l55 -5 6 -210 c3 -116 6 -211 7 -212 7 -10 92 0 101 10 7 9 12 86 13 213 l3 199 65 5 65 5 3 39 c2 21 -1 43 -7 49 -14 14 -368 16 -381 3z"/>
<path d="M6761 1119 c-11 -12 -27 -36 -35 -53 -8 -17 -35 -76 -61 -131 -26 -55 -69 -146 -96 -202 -27 -56 -49 -109 -49 -117 0 -13 12 -16 55 -16 l55 0 31 55 31 55 106 0 c59 0 114 -5 122 -10 8 -5 24 -28 35 -52 l20 -43 52 -3 c76 -4 76 11 3 157 -33 66 -60 122 -60 125 0 2 -25 56 -55 120 -43 89 -62 119 -81 126 -37 15 -51 12 -73 -11z m83 -235 c14 -31 23 -60 20 -65 -6 -11 -111 -12 -117 -1 -7 12 53 133 63 127 5 -3 20 -31 34 -61z"/>
<path d="M7205 1123 c-12 -12 -15 -55 -15 -246 0 -128 3 -242 6 -255 l6 -22 177 2 176 3 0 55 0 55 -120 5 -120 5 -1 198 c-1 109 -3 199 -5 201 -2 2 -23 6 -47 9 -30 4 -47 1 -57 -10z"/>
<path d="M8006 1126 c-47 -21 -86 -82 -86 -133 0 -80 45 -133 148 -171 108 -41 132 -78 69 -108 l-34 -16 -64 26 -64 26 -34 -34 c-42 -43 -37 -57 31 -92 43 -22 67 -27 128 -28 64 0 81 3 116 26 57 37 74 67 74 134 0 55 -2 60 -43 99 -26 25 -66 49 -103 63 -105 38 -133 94 -57 115 23 7 40 4 73 -13 l43 -22 35 35 c42 42 38 58 -17 87 -47 23 -167 27 -215 6z"/>
<path d="M8417 1128 c-12 -8 -17 -483 -4 -510 7 -16 25 -18 173 -18 l164 0 11 27 c6 15 6 36 1 52 l-9 26 -103 3 c-58 1 -110 8 -117 14 -9 7 -13 28 -11 57 l3 46 113 5 c115 5 132 11 132 50 0 39 -17 45 -132 50 l-113 5 0 50 0 50 117 3 118 3 6 25 c4 14 2 35 -3 47 l-10 22 -162 0 c-90 0 -168 -3 -174 -7z"/>
<path d="M8895 1130 c-3 -5 -6 -122 -7 -260 -1 -280 -4 -270 68 -270 51 0 54 6 54 116 0 98 8 107 67 77 33 -16 40 -27 62 -93 15 -42 30 -81 34 -88 5 -7 29 -12 57 -12 59 0 66 14 41 72 -10 24 -21 56 -25 72 -4 16 -18 45 -32 65 l-25 36 26 22 c32 28 45 62 45 119 0 74 -41 124 -118 144 -49 12 -240 12 -247 0z m228 -107 c8 -10 18 -30 22 -44 9 -38 -43 -81 -94 -77 l-36 3 -3 54 c-2 29 -1 60 2 67 8 21 89 18 109 -3z"/>
<path d="M9360 1125 c-8 -10 -7 -22 6 -47 10 -18 25 -53 34 -78 41 -113 132 -345 146 -371 12 -24 21 -29 52 -29 51 0 68 15 91 80 24 66 36 98 96 255 83 215 83 213 -5 198 -60 -9 -47 12 -122 -197 -24 -65 -47 -119 -53 -120 -8 -1 -99 225 -112 282 -3 12 -10 25 -16 29 -21 13 -106 11 -117 -2z"/>
<path d="M9963 1123 c-4 -10 -6 -130 -3 -268 l5 -250 41 -3 c25 -2 45 2 52 11 13 16 18 495 5 507 -4 4 -27 11 -50 15 -34 5 -43 3 -50 -12z"/>
<path d="M10372 1128 c-48 -16 -127 -91 -153 -144 -48 -100 -21 -232 63 -310 108 -103 281 -107 386 -10 17 16 32 34 32 40 0 5 -12 23 -27 38 -29 31 -67 37 -77 13 -8 -22 -73 -47 -118 -47 -88 1 -160 72 -161 160 -2 149 174 215 291 108 l24 -21 35 38 c32 35 33 40 20 60 -8 12 -36 36 -62 52 -43 27 -58 30 -134 32 -47 1 -101 -3 -119 -9z"/>
<path d="M10809 1124 c-5 -7 -8 -119 -7 -265 l3 -254 175 0 175 0 0 50 0 50 -115 5 -115 5 0 55 0 55 105 5 c58 3 111 9 118 13 16 11 16 62 -1 75 -7 6 -60 13 -117 14 l-105 3 -6 40 c-4 22 -3 45 3 52 6 8 49 13 121 15 l112 3 3 34 c2 18 -2 39 -8 45 -15 15 -328 15 -341 0z"/>
<path d="M11355 1121 c-61 -38 -78 -65 -79 -130 -1 -55 2 -63 34 -96 19 -21 73 -56 120 -79 62 -30 86 -47 88 -62 7 -50 -65 -62 -144 -23 l-47 22 -34 -39 c-18 -21 -31 -43 -30 -49 2 -5 27 -23 57 -39 45 -25 66 -29 129 -30 62 -1 83 3 117 22 54 31 78 74 78 137 0 70 -34 114 -117 149 -121 52 -142 70 -121 104 21 32 58 37 103 13 47 -24 65 -19 100 25 26 33 19 48 -33 74 -57 27 -178 28 -221 1z"/>
<path d="M1482 1038 c-51 -65 -92 -264 -142 -694 -20 -177 -6 -272 47 -319 l28 -24 237 -1 236 0 36 41 c24 29 37 56 42 87 9 58 -1 230 -20 352 -8 52 -20 129 -25 170 -29 204 -68 355 -101 385 -16 15 -26 17 -47 9 -40 -14 -64 -54 -73 -125 -9 -72 -23 -113 -41 -125 -22 -13 -46 32 -53 102 -10 96 -44 154 -90 154 -13 0 -28 -6 -34 -12z"/>
</g>
</g>
  <g id="id1:id1" transform="matrix(1.25,0,0,1.25,0.0,0.0)"><g transform="translate(0.000000,132.800000) scale(0.040000,-0.040000)" fill="#28a8e0" stroke="none">
<path d="M2525 2948 c-58 -30 -85 -57 -209 -213 -128 -162 -192 -248 -265 -359 -101 -154 -115 -204 -62 -226 43 -17 79 -6 156 51 70 51 107 60 113 27 2 -10 -22 -52 -52 -94 -44 -60 -56 -84 -56 -114 0 -39 23 -70 54 -70 79 0 648 413 735 534 48 67 50 132 6 197 -44 65 -192 210 -256 252 -65 43 -104 46 -164 15z"/>
<path d="M10158 2723 c7 -3 16 -2 19 1 4 3 -2 6 -13 5 -11 0 -14 -3 -6 -6z"/>
<path d="M9720 2595 c0 -22 4 -34 10 -30 6 3 10 17 10 30 0 13 -4 27 -10 30 -6 4 -10 -8 -10 -30z"/>
<path d="M5401 2294 c0 -11 3 -14 6 -6 3 7 2 16 -1 19 -3 4 -6 -2 -5 -13z"/>
<path d="M1110 1330 c0 -5 5 -10 10 -10 6 0 10 5 10 10 0 6 -4 10 -10 10 -5 0 -10 -4 -10 -10z"/>
<path d="M11080 1120 l-45 -5 50 -7 c51 -6 66 -3 49 10 -5 4 -29 5 -54 2z"/>
<path d="M5358 1108 c9 -9 15 -9 24 0 9 9 7 12 -12 12 -19 0 -21 -3 -12 -12z"/>
<path d="M7200 1110 c0 -5 5 -10 10 -10 6 0 10 5 10 10 0 6 -4 10 -10 10 -5 0 -10 -4 -10 -10z"/>
<path d="M8645 1110 c3 -5 26 -10 50 -10 24 0 47 5 50 10 4 6 -15 10 -50 10 -35 0 -54 -4 -50 -10z"/>
<path d="M9740 1110 c0 -5 5 -10 11 -10 5 0 7 5 4 10 -3 6 -8 10 -11 10 -2 0 -4 -4 -4 -10z"/>
<path d="M11600 1080 c0 -5 5 -10 11 -10 5 0 7 5 4 10 -3 6 -8 10 -11 10 -2 0 -4 -4 -4 -10z"/>
<path d="M9200 640 c-8 -5 -11 -12 -7 -16 4 -4 13 -2 19 4 15 15 7 24 -12 12z"/>
<path d="M6285 630 c3 -5 8 -10 11 -10 2 0 4 5 4 10 0 6 -5 10 -11 10 -5 0 -7 -4 -4 -10z"/>
<path d="M1391 604 c0 -11 3 -14 6 -6 3 7 2 16 -1 19 -3 4 -6 -2 -5 -13z"/>
</g>
</g>
</svg>
