<?xml version="1.0" standalone="no"?>
<!DOCTYPE svg PUBLIC "-//W3C//DTD SVG 1.1//EN"
 "http://www.w3.org/Graphics/SVG/1.1/DTD/svg11.dtd">
<!-- Created with svg_stack (http://github.com/astraw/svg_stack) -->
<svg xmlns:sodipodi="http://sodipodi.sourceforge.net/DTD/sodipodi-0.dtd" xmlns="http://www.w3.org/2000/svg" version="1.1" width="348.0" height="354.0">
  <defs/>
  <g id="id0:id0" transform="matrix(1.25,0,0,1.25,0.0,0.0)"><g transform="translate(0.000000,283.200000) scale(0.040000,-0.040000)" fill="#ffffff" stroke="none">
<path d="M0 3540 l0 -3540 3480 0 3480 0 0 3540 0 3540 -3480 0 -3480 0 0 -3540z m2648 2470 c35 -33 68 -58 73 -55 12 8 -2 33 -40 69 -17 16 -28 33 -25 38 3 4 151 8 328 8 275 0 325 -2 336 -15 7 -8 18 -15 25 -15 7 0 18 7 25 15 10 13 53 15 270 15 217 0 260 -2 270 -15 7 -8 18 -15 25 -15 7 0 18 7 25 15 11 13 69 15 415 15 l403 0 58 -26 c33 -14 86 -38 119 -54 33 -16 71 -34 85 -40 14 -6 43 -21 65 -35 22 -13 56 -32 75 -42 39 -21 187 -112 240 -148 58 -39 100 -76 100 -88 0 -7 -11 -34 -25 -62 -13 -27 -25 -59 -25 -70 0 -12 -5 -26 -11 -32 -12 -12 -59 -121 -59 -138 0 -5 -11 -32 -25 -60 -13 -27 -25 -54 -25 -60 0 -5 -9 -28 -20 -50 -11 -22 -19 -49 -20 -59 0 -11 -6 -27 -13 -35 -7 -9 -26 -50 -41 -91 -16 -41 -36 -93 -46 -115 -9 -22 -27 -67 -40 -100 -12 -33 -30 -78 -40 -100 -36 -78 -49 -110 -56 -140 -4 -16 -15 -46 -25 -65 -10 -19 -28 -62 -40 -95 -12 -33 -30 -78 -40 -100 -29 -65 -46 -108 -54 -135 -4 -14 -15 -43 -25 -65 -34 -76 -60 -144 -60 -158 0 -8 -6 -20 -14 -26 -8 -7 -18 -27 -22 -44 -3 -18 -13 -41 -20 -52 -8 -11 -14 -26 -14 -33 0 -14 -31 -92 -71 -178 -10 -23 -19 -46 -19 -53 0 -6 -9 -28 -20 -48 -11 -21 -20 -43 -20 -50 0 -7 -9 -27 -20 -45 -11 -18 -20 -41 -20 -50 0 -10 -9 -37 -19 -60 -11 -24 -29 -64 -40 -89 -12 -25 -21 -52 -21 -60 0 -8 -7 -24 -15 -35 -13 -20 -23 -42 -60 -146 -9 -24 -22 -56 -29 -73 -7 -16 -23 -57 -36 -90 -12 -33 -28 -71 -36 -85 -7 -14 -19 -44 -27 -65 -13 -35 -60 -153 -118 -297 -10 -27 -27 -69 -38 -95 -82 -207 -127 -318 -152 -377 -17 -37 -48 -116 -71 -175 -60 -157 -67 -175 -173 -431 -94 -226 -120 -294 -163 -408 -26 -72 -38 -83 -53 -46 -6 16 -20 47 -30 70 -11 23 -19 45 -19 49 0 9 -47 120 -66 157 -8 14 -14 32 -14 38 0 11 -13 43 -65 165 -12 28 -30 72 -59 153 -7 18 -18 38 -24 44 -7 7 -12 21 -12 31 0 17 -11 46 -65 172 -12 28 -30 72 -59 153 -7 18 -18 38 -24 44 -7 7 -12 21 -12 31 0 18 -37 114 -62 161 -5 10 -18 42 -28 70 -35 100 -47 127 -58 138 -7 7 -12 21 -12 31 0 18 -37 114 -62 161 -5 10 -18 42 -28 70 -35 100 -47 127 -58 138 -7 7 -12 21 -12 33 0 11 -11 43 -25 70 -13 28 -25 58 -25 67 0 9 -4 20 -10 23 -5 3 -17 30 -25 59 -9 29 -22 61 -30 72 -8 10 -15 29 -15 40 0 12 -7 27 -15 34 -8 7 -15 21 -15 32 0 11 -11 44 -25 74 -14 30 -25 61 -25 69 0 7 -4 17 -10 20 -5 3 -17 30 -25 59 -9 29 -22 61 -30 72 -8 10 -15 29 -15 40 0 12 -7 27 -15 34 -8 7 -15 21 -15 32 0 11 -11 44 -25 74 -14 30 -25 61 -25 68 0 7 -6 19 -14 25 -8 7 -17 28 -21 49 -3 20 -15 52 -26 70 -10 18 -19 41 -19 51 0 10 -7 24 -15 31 -8 7 -15 22 -15 34 0 11 -12 44 -25 71 -14 28 -25 57 -25 66 0 9 -6 22 -14 28 -8 7 -17 28 -21 49 -3 20 -15 52 -26 70 -10 18 -19 41 -19 51 0 10 -7 24 -15 31 -8 7 -15 21 -15 32 0 17 -13 49 -65 163 -7 17 -21 54 -30 82 -9 29 -21 55 -26 58 -5 4 -9 15 -9 26 0 10 -9 36 -20 56 -11 21 -20 43 -20 50 0 6 -7 24 -15 40 -25 49 -52 116 -70 170 -9 29 -21 55 -26 58 -5 4 -9 15 -9 26 0 10 -9 36 -20 56 -11 21 -20 43 -20 50 0 6 -7 24 -15 40 -25 49 -52 116 -70 170 -9 29 -21 55 -26 58 -5 4 -9 15 -9 26 0 10 -9 36 -20 56 -11 21 -20 43 -20 50 0 7 -9 27 -20 45 -11 18 -20 40 -20 49 0 18 36 54 84 83 19 12 53 34 77 50 87 58 145 94 179 110 19 9 53 28 75 41 22 14 47 27 55 31 8 3 50 23 92 45 43 21 84 39 91 39 7 0 28 9 47 19 29 17 55 20 160 20 l125 1 63 -60z"/>
<path d="M4160 5987 c0 -14 20 -37 32 -37 4 0 8 11 8 25 0 18 -5 25 -20 25 -11 0 -20 -6 -20 -13z"/>
<path d="M2794 5904 c3 -9 6 -18 6 -20 0 -2 9 -4 20 -4 13 0 20 7 20 20 0 15 -7 20 -26 20 -20 0 -25 -4 -20 -16z"/>
<path d="M4187 5894 c-10 -14 -16 -32 -13 -40 5 -13 11 -12 35 8 17 13 30 31 30 41 1 26 -31 20 -52 -9z"/>
<path d="M3657 5879 c-16 -4 -35 -13 -42 -19 -9 -8 -29 -9 -54 -5 -34 6 -40 4 -46 -14 -10 -32 2 -41 53 -41 36 0 50 5 60 20 16 26 99 25 113 -2 6 -11 21 -18 38 -18 15 0 36 -9 46 -20 10 -11 24 -20 31 -20 7 0 18 -9 24 -20 10 -19 40 -28 40 -12 0 4 -16 25 -35 46 -25 28 -39 36 -54 31 -14 -4 -23 0 -31 15 -6 11 -21 20 -35 20 -13 0 -30 8 -37 18 -18 25 -37 30 -71 21z"/>
<path d="M2860 5873 c0 -13 13 -27 47 -50 56 -39 73 -21 28 30 -22 25 -75 39 -75 20z"/>
<path d="M4086 5872 c-8 -14 -10 -97 -2 -110 4 -7 14 -12 22 -12 12 0 14 12 12 62 -3 56 -17 84 -32 60z"/>
<path d="M4250 5830 c0 -5 5 -10 10 -10 6 0 10 5 10 10 0 6 -4 10 -10 10 -5 0 -10 -4 -10 -10z"/>
<path d="M3677 5799 c-25 -14 -4 -39 32 -39 20 0 49 -22 117 -88 50 -48 93 -92 95 -97 6 -15 69 -65 81 -65 21 0 -35 88 -58 89 -13 1 -54 44 -54 58 0 11 -115 103 -128 103 -5 0 -19 11 -32 25 -26 28 -28 28 -53 14z"/>
<path d="M3960 5705 c0 -15 38 -41 47 -32 3 3 2 15 -2 26 -7 24 -45 29 -45 6z"/>
<path d="M3080 5661 c0 -21 28 -37 42 -23 14 14 -2 42 -23 42 -12 0 -19 -7 -19 -19z"/>
<path d="M3122 5578 c2 -22 9 -34 21 -36 15 -3 18 2 15 30 -2 22 -9 34 -21 36 -15 3 -18 -2 -15 -30z"/>
<path d="M3772 5544 c2 -12 62 -42 86 -44 8 0 -1 20 -18 38 -25 26 -73 30 -68 6z"/>
<path d="M3910 5472 c0 -12 23 -32 37 -32 7 0 13 9 13 20 0 15 -7 20 -25 20 -14 0 -25 -4 -25 -8z"/>
<path d="M4000 5420 c0 -11 4 -20 9 -20 13 0 32 26 24 33 -13 14 -33 6 -33 -13z"/>
<path d="M3840 5335 c0 -52 2 -95 4 -95 2 0 11 -3 20 -6 14 -5 16 6 16 89 0 92 -5 107 -36 107 -2 0 -4 -43 -4 -95z"/>
<path d="M3133 5403 c-24 -9 -12 -73 13 -73 9 0 14 12 14 34 0 37 -7 46 -27 39z"/>
<path d="M3095 5291 c-6 -11 9 -23 19 -14 9 9 7 23 -3 23 -6 0 -12 -4 -16 -9z"/>
<path d="M3681 5236 c-16 -19 -9 -30 29 -46 23 -10 34 -10 43 -1 6 6 21 11 34 11 25 0 26 1 17 24 -7 18 -35 21 -51 5 -8 -8 -18 -6 -36 5 -21 15 -26 15 -36 2z"/>
<path d="M3120 5182 c0 -34 22 -48 41 -26 15 18 1 47 -25 52 -12 3 -16 -4 -16 -26z"/>
<path d="M3848 5203 c-22 -5 -23 -26 -3 -43 19 -16 35 -4 35 26 0 24 -2 25 -32 17z"/>
<path d="M3160 5105 c0 -28 25 -44 42 -27 7 7 6 17 -1 31 -16 30 -41 27 -41 -4z"/>
<path d="M3800 5114 c0 -21 66 -87 79 -79 14 8 2 34 -32 66 -34 33 -47 36 -47 13z"/>
<path d="M3200 5032 c0 -4 22 -30 49 -56 27 -27 52 -59 55 -72 8 -32 56 -35 56 -4 0 11 -6 20 -13 20 -7 0 -39 27 -72 60 -56 57 -75 70 -75 52z"/>
<path d="M3920 4945 c0 -8 13 -21 29 -30 l29 -15 -11 30 c-12 31 -47 42 -47 15z"/>
<path d="M3160 4823 c0 -16 4 -34 9 -42 14 -22 31 -3 31 35 0 27 -4 34 -20 34 -15 0 -20 -7 -20 -27z"/>
<path d="M3920 4821 c0 -18 6 -21 41 -21 33 0 40 3 37 18 -2 12 -14 18 -41 20 -32 3 -37 0 -37 -17z"/>
<path d="M3962 4723 c2 -27 8 -39 21 -41 13 -3 17 3 17 25 0 28 -15 53 -33 53 -4 0 -7 -17 -5 -37z"/>
<path d="M3200 4707 c0 -27 27 -44 44 -27 13 13 -4 44 -28 48 -11 3 -16 -4 -16 -21z"/>
<path d="M3235 4639 c-8 -12 75 -104 123 -136 35 -24 38 -23 21 10 -13 25 -120 136 -131 137 -4 0 -10 -5 -13 -11z"/>
<path d="M3894 4589 c-7 -12 13 -29 35 -29 8 0 23 -7 33 -17 28 -25 33 -8 7 26 -23 31 -61 41 -75 20z"/>
<path d="M3927 4514 c-4 -4 -7 -35 -7 -68 -1 -52 -5 -66 -28 -92 -15 -17 -39 -34 -54 -38 -16 -3 -28 -13 -28 -21 0 -20 44 -20 60 0 7 8 18 15 26 15 16 0 33 30 27 48 -3 8 4 16 16 19 20 5 22 11 19 71 -3 60 -14 83 -31 66z"/>
<path d="M3268 4483 c-22 -6 -23 -17 -2 -48 23 -35 41 -37 74 -6 24 22 28 30 18 38 -16 13 -67 22 -90 16z"/>
<path d="M3422 4459 c-39 -35 -36 -59 6 -59 31 0 57 33 50 65 -5 29 -20 27 -56 -6z"/>
<path d="M3646 4378 c-20 -28 -20 -33 0 -52 19 -20 34 -21 34 -2 0 7 7 19 15 26 8 7 15 21 15 31 0 27 -45 25 -64 -3z"/>
<path d="M3359 4313 c5 -10 25 -35 45 -55 20 -20 36 -42 36 -48 0 -5 9 -10 20 -10 35 0 22 25 -39 79 -63 54 -78 62 -62 34z"/>
<path d="M3717 4235 c-6 -14 56 -85 74 -85 19 0 8 39 -20 69 -32 34 -46 38 -54 16z"/>
<path d="M3293 4183 c-29 -10 -12 -51 45 -106 70 -68 111 -101 119 -94 7 8 -19 43 -82 108 -30 31 -55 63 -55 72 0 19 -10 26 -27 20z"/>
<path d="M3805 4129 c-5 -7 -21 -9 -46 -5 -39 6 -53 -2 -43 -27 7 -19 49 -38 60 -27 5 5 20 10 34 12 19 2 25 9 25 27 0 26 -19 39 -30 20z"/>
<path d="M3650 4055 c0 -15 38 -41 47 -32 7 8 -21 47 -34 47 -7 0 -13 -7 -13 -15z"/>
<path d="M3752 4019 c-12 -24 -19 -45 -17 -47 8 -9 64 20 70 36 3 9 -2 24 -13 35 l-19 19 -21 -43z"/>
<path d="M3650 3949 c-14 -25 2 -49 32 -49 11 0 29 -5 40 -11 39 -21 41 6 4 45 -40 41 -60 45 -76 15z"/>
<path d="M3525 3950 c-3 -6 1 -13 10 -16 19 -8 30 0 20 15 -8 14 -22 14 -30 1z"/>
<path d="M3577 3874 c-8 -8 1 -24 14 -24 5 0 9 7 9 15 0 15 -12 20 -23 9z"/>
<path d="M3682 3818 c2 -30 7 -43 18 -43 24 0 21 79 -3 83 -16 3 -18 -2 -15 -40z"/>
<path d="M3520 3775 c-11 -29 -4 -55 16 -55 19 0 36 37 29 60 -9 28 -34 25 -45 -5z"/>
<path d="M3653 3723 c-14 -5 -18 -79 -5 -87 22 -13 38 24 34 77 -2 17 -7 19 -29 10z"/>
<path d="M3611 3561 c-15 -9 -18 -62 -5 -82 10 -16 33 28 34 64 0 28 -6 32 -29 18z"/>
<path d="M3531 3501 c-14 -25 -13 -54 2 -113 18 -66 31 -78 59 -51 l22 22 -27 53 c-15 29 -27 63 -27 75 0 30 -17 38 -29 14z"/>
</g>
</g>
  <g id="id1:id1" transform="matrix(1.25,0,0,1.25,0.0,0.0)"><g transform="translate(0.000000,283.200000) scale(0.040000,-0.040000)" fill="#000dff" stroke="none">
<path d="M2300 6061 c-41 -16 -102 -42 -135 -58 -33 -17 -76 -38 -95 -47 -152 -69 -473 -280 -478 -314 -2 -11 6 -39 17 -61 12 -22 21 -51 21 -64 0 -13 9 -32 20 -42 11 -10 20 -28 20 -39 0 -12 7 -30 15 -40 8 -11 15 -26 15 -34 0 -8 20 -61 45 -118 25 -56 45 -114 45 -127 0 -13 9 -32 20 -42 11 -10 20 -28 20 -40 0 -11 4 -25 10 -31 5 -5 16 -30 24 -54 8 -25 30 -81 50 -125 20 -44 36 -92 36 -106 0 -14 9 -34 20 -44 11 -10 20 -28 20 -41 0 -13 4 -25 9 -28 5 -3 16 -29 25 -57 9 -27 30 -79 46 -113 15 -35 34 -83 40 -107 7 -24 16 -49 20 -54 5 -6 23 -47 40 -90 17 -44 40 -99 50 -121 11 -23 29 -70 40 -105 12 -35 34 -91 49 -124 16 -33 32 -71 36 -85 4 -14 17 -47 30 -75 12 -27 33 -79 45 -115 13 -36 35 -92 50 -125 15 -33 33 -78 40 -100 7 -22 16 -44 20 -50 4 -5 24 -53 43 -105 42 -110 101 -257 127 -315 9 -22 30 -74 44 -115 15 -41 31 -79 35 -85 4 -5 21 -46 36 -90 16 -44 32 -84 35 -90 4 -5 22 -48 39 -95 18 -47 39 -100 47 -117 8 -18 26 -63 40 -100 14 -38 35 -90 48 -118 13 -27 29 -68 36 -90 7 -22 21 -58 30 -80 26 -59 99 -240 127 -315 13 -36 28 -74 33 -85 19 -39 112 -271 132 -330 12 -33 24 -64 28 -70 6 -8 104 -251 123 -307 9 -26 47 -23 47 3 0 11 6 33 14 47 25 46 54 116 60 146 4 16 23 62 42 103 20 41 38 90 41 108 3 19 12 40 19 46 8 6 14 22 14 34 0 12 7 28 15 35 8 7 19 31 25 54 6 22 17 55 25 71 50 107 65 145 65 167 0 14 7 31 15 38 8 7 15 18 15 24 0 6 8 27 19 46 10 19 22 51 26 70 4 19 13 46 21 60 35 65 64 139 64 162 0 14 7 31 15 38 8 7 15 18 15 24 0 6 12 34 25 61 14 28 25 58 25 68 0 11 7 31 15 45 27 51 65 139 65 153 0 8 9 32 19 54 39 79 61 132 61 145 0 7 16 46 35 87 19 40 37 85 41 100 3 16 14 46 24 68 46 97 60 132 60 145 0 7 16 46 35 87 19 40 37 85 41 100 3 16 14 46 24 68 45 95 60 132 60 143 0 6 13 39 29 72 27 56 49 112 55 143 2 7 17 43 35 81 17 37 34 80 38 95 3 14 19 52 34 84 15 32 33 75 39 95 6 20 19 55 29 77 30 65 51 116 128 315 14 36 31 79 38 95 26 58 43 100 50 125 4 14 22 59 41 100 18 41 60 145 94 230 33 85 67 169 75 185 8 17 25 59 38 95 38 104 106 271 127 316 11 23 20 44 20 48 0 4 9 28 21 53 11 25 18 51 15 59 -6 16 -133 110 -201 149 -27 16 -64 38 -81 51 -26 19 -79 49 -179 101 -11 6 -63 31 -115 56 -181 87 -147 82 -507 82 -177 0 -325 -3 -329 -8 -4 -4 9 -24 29 -45 20 -21 37 -45 37 -53 0 -9 9 -24 20 -34 11 -10 20 -25 20 -33 0 -7 7 -26 16 -42 20 -32 12 -63 -13 -58 -14 3 -17 12 -15 36 l3 33 -58 -4 c-67 -4 -63 8 -45 -146 6 -52 9 -97 7 -101 -7 -11 -68 22 -123 64 -25 20 -53 36 -62 36 -10 0 -23 6 -29 14 -16 19 -189 103 -226 110 -16 3 -52 9 -80 14 -57 11 -65 9 -65 -19 0 -15 7 -19 33 -19 18 0 42 -6 53 -14 11 -8 37 -18 58 -22 56 -10 190 -114 202 -156 6 -20 17 -34 29 -36 27 -5 91 -68 110 -108 35 -73 8 -90 -63 -40 -27 20 -53 36 -57 36 -4 0 -30 16 -57 35 -45 33 -68 38 -68 14 0 -5 16 -24 36 -41 20 -18 40 -43 45 -56 13 -35 19 -261 7 -268 -5 -3 -19 3 -31 14 -27 26 -113 43 -103 21 3 -8 9 -22 12 -31 4 -10 13 -18 21 -18 25 0 136 -128 179 -205 9 -16 32 -49 51 -72 40 -50 35 -68 -14 -60 l-34 6 6 -32 c4 -18 16 -42 27 -54 11 -12 17 -27 13 -33 -4 -6 0 -22 9 -35 20 -31 21 -108 1 -125 -12 -10 -20 -7 -44 19 -30 32 -71 42 -71 17 0 -8 14 -28 30 -44 27 -28 30 -37 30 -95 0 -60 -2 -66 -38 -105 -28 -30 -47 -42 -67 -42 -32 0 -81 28 -113 64 -24 29 -50 34 -58 12 -7 -19 10 -50 66 -123 94 -120 109 -163 57 -163 -33 0 -38 -9 -21 -36 9 -12 14 -33 12 -46 -4 -28 -36 -36 -45 -11 -10 28 -64 75 -80 69 -23 -9 -14 -35 36 -100 55 -70 57 -95 4 -44 -24 23 -36 29 -44 21 -12 -12 1 -44 34 -80 17 -19 19 -30 13 -75 -4 -29 -11 -57 -15 -63 -5 -5 -12 -27 -15 -49 -4 -21 -13 -52 -21 -70 -7 -17 -19 -57 -25 -89 -8 -38 -18 -60 -28 -64 -10 -3 -25 -13 -34 -21 -16 -13 -18 -13 -24 3 -5 12 0 24 14 36 29 23 28 35 -5 51 l-28 13 -3 84 c-2 49 1 88 8 95 5 5 10 21 10 35 0 16 14 41 35 64 40 44 43 57 15 75 -13 8 -20 23 -20 43 0 29 -2 31 -31 27 -27 -4 -42 5 -130 84 -54 49 -99 91 -99 93 0 2 10 20 21 40 l21 36 59 -7 c74 -8 75 0 9 69 -67 69 -154 197 -142 209 9 9 48 -5 142 -51 54 -26 75 -14 40 24 -13 14 -28 25 -34 25 -18 0 -164 139 -172 163 -4 12 -18 39 -31 61 -14 22 -27 60 -30 90 -5 49 -3 54 22 74 19 15 42 22 71 22 23 0 46 5 49 10 4 6 -24 43 -62 83 -80 85 -153 219 -153 280 0 30 5 40 25 49 28 12 31 28 13 57 -9 15 -9 26 -1 44 15 33 -1 150 -26 192 -10 17 -21 42 -24 57 -8 31 -142 159 -192 183 -76 35 -158 95 -253 182 l-67 63 -105 -1 c-89 -1 -116 -5 -180 -28z m1290 -2701 c0 -4 -7 -13 -15 -20 -12 -10 -16 -9 -20 4 -3 9 -7 23 -10 32 -9 29 7 38 27 15 10 -13 18 -27 18 -31z"/>
<path d="M3395 6081 c-26 -4 -41 -12 -43 -23 -3 -14 12 -17 100 -23 156 -11 454 -3 470 13 9 9 9 15 0 25 -14 13 -451 21 -527 8z"/>
</g>
</g>
  <g id="id2:id2" transform="matrix(1.25,0,0,1.25,0.0,0.0)"><g transform="translate(0.000000,283.200000) scale(0.040000,-0.040000)" fill="#ff6600" stroke="none">
<path d="M2643 6082 c-6 -4 -15 -21 -19 -37 -6 -26 -5 -28 8 -18 16 14 36 -3 99 -89 38 -53 55 -64 75 -47 11 9 16 7 21 -8 11 -29 60 -83 74 -83 6 0 18 8 25 18 12 16 13 15 22 -8 11 -28 105 -121 139 -139 20 -10 21 -14 10 -32 -10 -18 -9 -23 13 -41 l25 -20 -3 -93 c-3 -59 0 -101 8 -115 8 -16 9 -25 1 -33 -7 -7 -12 -5 -17 6 -3 9 -15 17 -26 17 -18 0 -19 -4 -14 -32 4 -18 8 -53 9 -78 2 -38 6 -47 30 -58 22 -11 26 -17 17 -27 -16 -19 -3 -55 19 -55 27 0 33 -12 15 -31 -14 -15 -14 -18 2 -31 10 -7 39 -35 66 -61 41 -40 47 -51 37 -63 -8 -10 -21 -13 -36 -9 -39 9 -68 -34 -69 -108 -2 -79 3 -97 26 -97 25 0 34 -17 15 -28 -18 -9 -10 -42 10 -42 7 0 45 -35 85 -77 66 -69 72 -78 55 -87 -35 -21 -85 -68 -85 -81 0 -8 29 -39 65 -71 35 -31 62 -61 59 -65 -3 -5 -23 -14 -44 -20 -26 -8 -40 -18 -40 -29 0 -9 -3 -20 -7 -24 -18 -18 -12 -51 14 -72 25 -20 26 -23 11 -29 -10 -4 -18 -14 -18 -21 0 -23 30 -28 44 -9 12 17 17 13 62 -45 27 -35 59 -74 72 -86 12 -12 22 -26 22 -33 0 -6 8 -11 18 -11 35 0 43 -21 21 -52 -13 -18 -19 -39 -16 -54 5 -26 -7 -42 -18 -24 -3 5 -14 10 -23 10 -15 0 -17 -14 -15 -131 2 -136 11 -169 36 -134 20 27 29 3 14 -36 -8 -19 -13 -65 -13 -104 l1 -70 33 -3 c37 -4 53 19 34 49 -7 10 -12 26 -12 36 0 9 -8 25 -17 35 -26 29 -1 46 27 18 29 -29 55 -19 45 18 -18 70 -16 101 10 141 27 44 31 71 14 88 -7 7 -9 19 -5 28 5 14 9 15 21 5 28 -23 38 -1 31 72 -7 72 3 108 29 108 8 0 15 9 15 20 0 11 -6 20 -14 20 -22 0 -29 19 -15 36 8 10 21 13 41 9 32 -8 48 15 28 40 -15 18 -5 35 21 35 24 0 36 27 21 50 -6 10 -8 27 -5 38 3 14 -3 25 -22 38 -18 12 -23 20 -16 27 18 18 12 44 -11 60 l-23 15 20 7 c11 4 30 12 43 18 17 8 28 8 42 -1 30 -18 44 -15 67 17 19 25 21 37 16 103 -5 61 -2 80 12 101 14 22 20 25 37 16 37 -20 46 -6 41 68 -4 57 -9 71 -30 89 -19 16 -23 27 -18 43 5 16 -1 32 -19 56 -26 34 -20 59 9 35 22 -18 60 -8 63 16 2 15 -12 35 -49 67 -44 38 -50 48 -40 61 10 12 6 20 -25 48 -21 18 -54 47 -73 64 l-35 31 17 36 c9 19 24 37 32 41 17 6 21 51 5 61 -16 10 -12 162 5 195 20 39 31 38 75 -5 32 -32 40 -35 63 -26 23 9 27 16 27 50 0 37 -4 44 -56 83 -50 37 -54 43 -39 54 20 15 16 48 -6 52 -10 2 -19 -6 -22 -20 l-6 -22 -30 28 c-30 29 -32 46 -5 46 8 0 14 8 14 18 0 28 10 33 34 17 11 -8 28 -15 37 -15 9 0 24 -11 32 -23 9 -13 30 -30 49 -37 18 -7 40 -19 49 -27 34 -29 85 23 55 56 -9 10 -16 29 -16 42 0 14 -7 34 -15 45 -18 24 -19 45 -2 68 12 16 14 16 38 -3 14 -11 38 -23 53 -27 15 -3 30 -13 33 -20 3 -8 14 -14 24 -14 13 0 19 7 19 24 0 14 -5 28 -10 31 -6 3 -7 17 -4 30 4 18 0 27 -20 40 -19 13 -24 21 -16 30 14 17 2 45 -20 45 -26 0 -33 16 -18 40 11 17 9 24 -20 52 -30 31 -38 33 -112 36 -63 3 -86 0 -106 -13 -20 -13 -28 -14 -40 -4 -11 9 -18 8 -32 -5 -26 -23 -423 -24 -442 -1 -15 18 -43 19 -69 3 -14 -9 -23 -8 -42 5 -21 15 -62 17 -349 17 -179 0 -330 -4 -337 -8z m261 -233 c-3 -5 -10 -7 -15 -3 -5 3 -7 10 -3 15 3 5 10 7 15 3 5 -3 7 -10 3 -15z m800 0 c-3 -5 -10 -7 -15 -3 -5 3 -7 10 -3 15 3 5 10 7 15 3 5 -3 7 -10 3 -15z m480 0 c-3 -5 -10 -7 -15 -3 -5 3 -7 10 -3 15 3 5 10 7 15 3 5 -3 7 -10 3 -15z m-577 -15 c0 -5 -3 -8 -8 -7 -4 2 -20 -2 -33 -7 -26 -10 -43 1 -31 20 8 13 69 8 72 -6z m167 -25 c-3 -5 -10 -7 -15 -3 -5 3 -7 10 -3 15 3 5 10 7 15 3 5 -3 7 -10 3 -15z m-60 -30 c-3 -5 -10 -7 -15 -3 -5 3 -7 10 -3 15 3 5 10 7 15 3 5 -3 7 -10 3 -15z m150 -10 c-3 -5 -10 -7 -15 -3 -5 3 -7 10 -3 15 3 5 10 7 15 3 5 -3 7 -10 3 -15z m-60 -240 c-3 -5 -10 -7 -15 -3 -5 3 -7 10 -3 15 3 5 10 7 15 3 5 -3 7 -10 3 -15z m-9 -319 c4 -6 1 -17 -5 -25 -9 -11 -17 -12 -33 -3 l-21 11 19 13 c23 17 32 17 40 4z m-461 -311 c-3 -5 -10 -7 -15 -3 -5 3 -7 10 -3 15 3 5 10 7 15 3 5 -3 7 -10 3 -15z m590 -330 c-3 -5 -10 -7 -15 -3 -5 3 -7 10 -3 15 3 5 10 7 15 3 5 -3 7 -10 3 -15z m-469 -139 c-12 -14 -22 -17 -29 -10 -6 6 -3 16 9 30 12 14 22 17 29 10 6 -6 3 -16 -9 -30z m264 -81 c45 -56 28 -74 -28 -29 -33 27 -39 36 -30 51 14 27 22 24 58 -22z m195 -20 c-3 -5 -10 -7 -15 -3 -5 3 -7 10 -3 15 3 5 10 7 15 3 5 -3 7 -10 3 -15z m-160 -110 c-3 -5 -10 -7 -15 -3 -5 3 -7 10 -3 15 3 5 10 7 15 3 5 -3 7 -10 3 -15z m21 -118 c7 -12 -12 -24 -25 -16 -11 7 -4 25 10 25 5 0 11 -4 15 -9z m-231 -172 c-3 -5 -10 -7 -15 -3 -5 3 -7 10 -3 15 3 5 10 7 15 3 5 -3 7 -10 3 -15z m141 -9 c-5 -8 -11 -8 -17 -2 -6 6 -7 16 -3 22 5 8 11 8 17 2 6 -6 7 -16 3 -22z"/>
<path d="M2307 6073 c-14 -13 -7 -33 11 -33 19 0 42 18 42 32 0 10 -44 11 -53 1z"/>
<path d="M4760 6072 c0 -16 24 -32 48 -32 18 0 23 4 18 16 -3 9 -6 18 -6 20 0 2 -13 4 -30 4 -16 0 -30 -4 -30 -8z"/>
<path d="M2205 6030 c-4 -6 -23 -18 -42 -28 -42 -20 -44 -36 -7 -40 20 -3 33 5 55 30 15 18 28 36 29 41 0 11 -28 9 -35 -3z"/>
<path d="M4880 6032 c0 -5 13 -23 28 -40 23 -25 37 -32 65 -32 21 0 37 4 37 8 0 7 -114 72 -126 72 -2 0 -4 -4 -4 -8z"/>
<path d="M2040 5949 c0 -5 -16 -17 -35 -25 -41 -17 -47 -44 -9 -44 26 0 84 48 84 69 0 6 -9 11 -20 11 -11 0 -20 -5 -20 -11z"/>
<path d="M5041 5943 c40 -49 59 -63 83 -63 42 0 31 25 -25 54 -59 30 -77 33 -58 9z"/>
<path d="M1867 5853 c-37 -26 -49 -53 -24 -53 13 0 77 60 77 73 0 13 -15 7 -53 -20z"/>
<path d="M5230 5835 c19 -19 43 -35 54 -35 12 0 38 -18 59 -40 34 -37 77 -53 77 -30 0 11 -77 70 -91 70 -5 0 -29 16 -55 35 -25 19 -53 35 -62 35 -11 0 -6 -10 18 -35z"/>
<path d="M1742 5772 c-35 -30 -42 -52 -14 -52 15 0 72 59 72 74 0 14 -28 3 -58 -22z"/>
<path d="M1640 5700 c-6 -11 -17 -20 -25 -20 -28 0 -30 -62 -3 -117 19 -38 27 -26 25 38 -2 55 0 63 26 83 27 22 27 36 1 36 -7 0 -18 -9 -24 -20z"/>
<path d="M5440 5712 c0 -5 9 -17 20 -27 16 -14 20 -31 20 -80 0 -49 -4 -66 -20 -80 -11 -10 -20 -31 -20 -46 0 -18 -7 -32 -20 -39 -15 -8 -20 -21 -20 -50 0 -51 10 -50 33 3 10 23 25 55 33 70 8 16 14 38 14 49 0 11 8 32 19 46 10 15 22 42 26 61 6 30 4 37 -31 67 -38 34 -54 42 -54 26z"/>
<path d="M1660 5455 c0 -14 28 -84 51 -127 5 -10 9 -24 9 -31 0 -7 8 -28 18 -48 9 -19 23 -51 31 -72 20 -50 31 -47 31 8 0 34 -5 47 -20 55 -14 7 -20 21 -20 44 0 25 -5 35 -20 39 -17 4 -20 14 -20 54 0 43 -4 52 -30 71 -24 18 -30 20 -30 7z"/>
<path d="M5378 5319 c-11 -6 -18 -22 -18 -39 0 -19 -7 -33 -20 -40 -15 -8 -20 -21 -20 -50 0 -22 4 -40 9 -40 10 0 41 61 41 82 0 7 7 24 16 36 21 30 16 65 -8 51z"/>
<path d="M3880 5160 c-18 -11 -4 -40 20 -40 13 0 20 7 20 19 0 22 -21 33 -40 21z"/>
<path d="M5298 5119 c-11 -6 -18 -22 -18 -39 0 -19 -7 -33 -20 -40 -15 -8 -20 -21 -20 -50 0 -51 10 -50 33 3 11 23 26 56 34 73 19 41 15 67 -9 53z"/>
<path d="M1820 5055 c0 -14 28 -84 51 -127 5 -10 9 -24 9 -31 0 -7 8 -28 18 -48 9 -19 23 -51 31 -72 20 -50 31 -47 31 8 0 34 -5 47 -20 55 -14 7 -20 21 -20 44 0 25 -5 35 -20 39 -17 4 -20 14 -20 54 0 43 -4 52 -30 71 -24 18 -30 20 -30 7z"/>
<path d="M5218 4919 c-11 -6 -18 -22 -18 -39 0 -19 -7 -33 -20 -40 -15 -8 -20 -21 -20 -50 0 -22 4 -40 9 -40 10 0 41 61 41 82 0 7 7 24 16 36 21 30 16 65 -8 51z"/>
<path d="M5127 4713 c-4 -3 -7 -19 -7 -34 0 -18 -7 -32 -20 -39 -14 -8 -20 -21 -20 -45 0 -19 4 -35 8 -35 13 0 42 57 37 72 -3 8 3 23 15 33 23 20 27 55 7 55 -8 0 -17 -3 -20 -7z"/>
<path d="M1980 4650 c0 -10 32 -87 51 -122 5 -10 9 -24 9 -31 0 -7 8 -28 18 -48 9 -19 23 -51 31 -72 20 -50 31 -47 31 8 0 34 -5 47 -20 55 -13 7 -20 21 -20 40 0 19 -7 33 -20 40 -16 8 -20 21 -20 59 0 41 -4 51 -25 65 -28 19 -35 20 -35 6z"/>
<path d="M3270 4517 c-27 -14 -38 -43 -22 -59 7 -7 24 -4 51 8 43 20 46 30 15 50 -15 11 -24 11 -44 1z"/>
<path d="M5047 4513 c-4 -3 -7 -19 -7 -34 0 -18 -7 -32 -20 -39 -14 -8 -20 -21 -20 -45 0 -19 3 -35 6 -35 12 0 33 35 34 55 0 11 9 31 20 45 23 29 26 60 7 60 -8 0 -17 -3 -20 -7z"/>
<path d="M2124 4305 c-4 -9 -2 -21 5 -28 6 -6 11 -16 11 -23 0 -19 44 -114 53 -114 4 0 7 19 7 41 0 32 -6 47 -25 65 -14 13 -25 32 -25 43 0 26 -18 37 -26 16z"/>
<path d="M4967 4313 c-4 -3 -7 -19 -7 -34 0 -18 -7 -32 -20 -39 -14 -8 -20 -21 -20 -45 0 -19 4 -35 8 -35 13 0 42 57 37 72 -3 8 3 23 15 33 23 20 27 55 7 55 -8 0 -17 -3 -20 -7z"/>
<path d="M3240 4185 c0 -18 24 -30 39 -21 16 10 1 36 -20 36 -10 0 -19 -7 -19 -15z"/>
<path d="M2200 4103 c0 -10 8 -34 18 -54 9 -19 23 -51 31 -72 20 -50 31 -47 31 8 0 34 -5 47 -19 55 -12 6 -21 23 -23 42 -3 36 -38 55 -38 21z"/>
<path d="M4887 4113 c-4 -3 -7 -19 -7 -34 0 -18 -7 -32 -20 -39 -14 -8 -20 -21 -20 -45 0 -19 3 -35 6 -35 12 0 33 35 34 55 0 11 9 31 20 45 23 29 26 60 7 60 -8 0 -17 -3 -20 -7z"/>
<path d="M2285 3909 c-8 -11 -4 -22 33 -99 12 -25 22 -51 22 -57 0 -7 5 -13 10 -13 6 0 10 20 10 45 0 33 -5 47 -19 55 -11 5 -22 23 -26 40 -7 33 -20 46 -30 29z"/>
<path d="M4807 3913 c-10 -9 -9 -53 1 -53 14 0 32 23 32 42 0 18 -20 25 -33 11z"/>
<path d="M4767 3833 c-9 -8 -9 -73 -1 -73 13 0 33 35 34 58 0 21 -19 30 -33 15z"/>
<path d="M2360 3697 c0 -14 7 -30 15 -37 8 -7 15 -19 15 -27 0 -21 31 -83 41 -83 17 0 9 69 -10 87 -11 10 -21 31 -23 48 -4 38 -38 49 -38 12z"/>
<path d="M4727 3713 c-9 -8 -9 -48 0 -56 8 -9 32 24 33 46 0 17 -20 23 -33 10z"/>
<path d="M4687 3633 c-9 -8 -9 -73 -1 -73 13 0 33 35 34 58 0 21 -19 30 -33 15z"/>
<path d="M2440 3496 c0 -13 7 -29 15 -36 8 -6 13 -15 12 -19 -3 -11 37 -101 45 -101 4 0 8 20 8 45 0 34 -5 47 -20 55 -14 8 -20 21 -20 45 0 28 -4 35 -20 35 -14 0 -20 -7 -20 -24z"/>
<path d="M4647 3513 c-10 -9 -9 -53 1 -53 14 0 32 23 32 42 0 18 -20 25 -33 11z"/>
<path d="M4607 3433 c-10 -9 -9 -63 1 -63 15 0 32 24 32 47 0 22 -19 31 -33 16z"/>
<path d="M2520 3302 c0 -11 7 -33 15 -49 8 -15 22 -45 31 -65 9 -21 20 -38 25 -38 17 0 9 69 -10 87 -11 10 -21 31 -23 48 -4 35 -38 50 -38 17z"/>
<path d="M4567 3313 c-9 -8 -9 -48 0 -56 8 -9 32 24 33 46 0 17 -20 23 -33 10z"/>
<path d="M4527 3233 c-4 -3 -7 -22 -7 -41 l0 -35 20 18 c23 20 27 65 7 65 -8 0 -17 -3 -20 -7z"/>
<path d="M2600 3096 c0 -13 7 -29 15 -36 8 -7 15 -18 15 -26 0 -18 33 -83 43 -84 4 0 7 18 7 40 0 29 -5 42 -20 50 -14 8 -20 21 -20 45 0 28 -4 35 -20 35 -14 0 -20 -7 -20 -24z"/>
<path d="M4487 3113 c-10 -9 -9 -53 1 -53 14 0 32 23 32 42 0 18 -20 25 -33 11z"/>
<path d="M4447 3033 c-10 -9 -9 -63 1 -63 15 0 32 24 32 47 0 22 -19 31 -33 16z"/>
<path d="M2680 2902 c0 -11 7 -33 15 -49 8 -15 22 -45 31 -65 9 -21 20 -38 25 -38 17 0 9 69 -10 87 -11 10 -21 31 -23 48 -4 35 -38 50 -38 17z"/>
<path d="M4404 2895 c-4 -14 -4 -29 0 -32 9 -10 36 18 36 38 0 28 -29 23 -36 -6z"/>
<path d="M4367 2833 c-10 -9 -9 -63 1 -63 15 0 32 24 32 47 0 22 -19 31 -33 16z"/>
<path d="M2760 2696 c0 -13 7 -29 15 -36 8 -7 15 -18 15 -26 0 -18 33 -83 43 -84 4 0 7 18 7 40 0 29 -5 42 -20 50 -14 8 -20 21 -20 45 0 28 -4 35 -20 35 -14 0 -20 -7 -20 -24z"/>
<path d="M4324 2695 c-4 -14 -4 -29 0 -32 9 -10 36 18 36 38 0 28 -29 23 -36 -6z"/>
<path d="M4287 2633 c-10 -9 -9 -63 1 -63 15 0 32 24 32 47 0 22 -19 31 -33 16z"/>
<path d="M2840 2497 c0 -14 7 -30 15 -37 8 -7 15 -19 15 -27 0 -21 31 -83 41 -83 17 0 9 69 -10 87 -11 10 -21 31 -23 48 -4 38 -38 49 -38 12z"/>
<path d="M4252 2508 c-13 -13 -16 -48 -4 -48 14 0 32 23 32 42 0 21 -11 23 -28 6z"/>
<path d="M4206 2424 c-9 -22 -7 -54 2 -54 15 0 32 24 32 47 0 26 -25 31 -34 7z"/>
<path d="M2920 2296 c0 -13 7 -29 15 -36 8 -7 15 -18 15 -26 0 -18 33 -83 43 -84 4 0 7 18 7 40 0 29 -5 42 -20 50 -14 8 -20 21 -20 45 0 28 -4 35 -20 35 -14 0 -20 -7 -20 -24z"/>
<path d="M4172 2308 c-13 -13 -16 -48 -4 -48 14 0 32 23 32 42 0 21 -11 23 -28 6z"/>
<path d="M4126 2224 c-8 -21 -8 -54 0 -54 12 0 33 34 34 53 0 21 -26 23 -34 1z"/>
<path d="M3000 2103 c0 -11 7 -28 15 -39 8 -10 15 -25 15 -32 0 -21 31 -82 41 -82 17 0 9 69 -10 87 -11 10 -21 31 -23 48 -3 34 -38 50 -38 18z"/>
<path d="M4092 2108 c-13 -13 -16 -48 -4 -48 14 0 32 23 32 42 0 21 -11 23 -28 6z"/>
<path d="M4053 2033 c-13 -5 -19 -63 -7 -63 12 0 33 34 34 53 0 17 -5 19 -27 10z"/>
<path d="M3080 1896 c0 -13 6 -29 14 -35 7 -6 16 -24 20 -39 3 -15 15 -38 26 -52 l20 -25 0 42 c0 32 -5 45 -20 53 -14 8 -20 21 -20 45 0 28 -4 35 -20 35 -14 0 -20 -7 -20 -24z"/>
<path d="M4012 1908 c-13 -13 -16 -48 -4 -48 14 0 32 23 32 42 0 21 -11 23 -28 6z"/>
<path d="M3967 1833 c-9 -8 -9 -63 -1 -63 12 0 33 34 34 53 0 17 -20 23 -33 10z"/>
<path d="M3160 1703 c0 -11 7 -28 15 -39 8 -10 15 -25 15 -32 0 -21 31 -82 41 -82 17 0 9 69 -10 87 -11 10 -21 31 -23 48 -3 34 -38 50 -38 18z"/>
<path d="M3932 1708 c-14 -14 -16 -48 -2 -48 10 0 30 32 30 49 0 14 -13 14 -28 -1z"/>
<path d="M3893 1633 c-13 -5 -19 -63 -7 -63 12 0 33 34 34 53 0 17 -5 19 -27 10z"/>
<path d="M3240 1497 c0 -14 6 -30 14 -36 7 -6 16 -24 20 -39 3 -15 15 -38 26 -52 l20 -25 0 42 c0 32 -5 45 -19 53 -12 6 -21 23 -23 42 -4 41 -38 54 -38 15z"/>
<path d="M3852 1508 c-13 -13 -16 -48 -4 -48 14 0 32 23 32 42 0 21 -11 23 -28 6z"/>
<path d="M3807 1433 c-10 -9 -9 -53 1 -53 14 0 32 23 32 42 0 18 -20 25 -33 11z"/>
<path d="M3320 1303 c0 -10 7 -27 15 -37 8 -11 15 -26 15 -34 0 -21 31 -82 41 -82 17 0 9 69 -10 87 -11 10 -21 31 -23 48 -3 33 -38 50 -38 18z"/>
<path d="M3772 1308 c-13 -13 -17 -48 -6 -48 10 0 33 33 34 48 0 15 -12 16 -28 0z"/>
<path d="M3732 1228 c-12 -12 -17 -58 -6 -58 12 0 33 34 34 53 0 20 -11 22 -28 5z"/>
<path d="M3400 1097 c0 -14 6 -30 14 -36 7 -6 16 -24 20 -39 3 -15 15 -38 26 -52 l20 -25 0 42 c0 32 -5 45 -19 53 -12 6 -21 23 -23 42 -4 41 -38 54 -38 15z"/>
<path d="M3671 1078 c-27 -37 -43 -98 -25 -98 11 0 33 34 34 51 0 9 9 28 20 42 11 14 20 30 20 36 0 22 -19 10 -49 -31z"/>
<path d="M3480 903 c0 -10 9 -29 20 -43 11 -14 20 -33 20 -43 0 -59 51 -77 69 -26 16 46 15 47 -26 51 -35 3 -38 6 -43 38 -5 38 -40 58 -40 23z"/>
<path d="M3607 903 c-10 -10 -8 -33 3 -33 5 0 14 9 20 20 8 15 8 20 -3 20 -8 0 -17 -3 -20 -7z"/>
</g>
</g>
</svg>
