<?xml version="1.0" standalone="no"?>
<!DOCTYPE svg PUBLIC "-//W3C//DTD SVG 1.1//EN"
 "http://www.w3.org/Graphics/SVG/1.1/DTD/svg11.dtd">
<!-- Created with svg_stack (http://github.com/astraw/svg_stack) -->
<svg xmlns:sodipodi="http://sodipodi.sourceforge.net/DTD/sodipodi-0.dtd" xmlns="http://www.w3.org/2000/svg" version="1.1" width="320.0" height="144.0">
  <defs/>
  <g id="id0:id0" transform="matrix(1.25,0,0,1.25,0.0,0.0)"><g transform="translate(0.000000,115.200000) scale(0.040000,-0.040000)" fill="#00676f" stroke="none">
<path d="M17 1032 c-15 -16 -17 -45 -17 -249 0 -254 -1 -249 63 -260 62 -10 76 7 79 95 l3 77 181 5 c199 6 217 11 254 73 15 24 20 50 20 110 l0 78 -39 42 -40 42 -243 3 c-229 3 -245 2 -261 -16z m451 -104 c7 -7 12 -31 12 -55 0 -32 -5 -45 -19 -53 -29 -15 -308 -13 -317 2 -8 13 -6 97 2 110 9 14 309 9 322 -4z"/>
<path d="M866 1013 c-71 -111 -267 -467 -262 -478 3 -8 23 -13 55 -13 43 -1 54 3 68 24 10 14 28 38 40 53 l22 28 148 2 c84 1 160 -2 176 -8 15 -6 34 -26 44 -47 11 -24 28 -41 46 -47 37 -12 97 -1 97 19 0 15 -28 64 -43 75 -5 3 -19 29 -32 58 -13 28 -65 123 -115 211 l-92 160 -64 0 -64 0 -24 -37z m147 -183 c26 -45 45 -85 42 -88 -3 -3 -48 -8 -100 -10 -117 -4 -121 1 -67 89 21 35 41 72 45 82 12 31 30 14 80 -73z"/>
<path d="M1386 1041 c-4 -5 -7 -121 -7 -258 l-1 -248 41 -9 c72 -16 72 -18 69 268 l-3 251 -47 3 c-25 2 -49 -1 -52 -7z"/>
<path d="M1730 1041 c-81 -16 -104 -48 -121 -166 -16 -103 1 -233 35 -286 38 -56 72 -64 281 -64 164 0 184 2 227 22 31 14 52 32 64 55 22 42 32 181 14 203 -10 12 -43 15 -181 15 l-168 0 -6 -21 c-4 -11 -4 -36 0 -55 l6 -34 115 0 c94 0 116 -3 121 -15 3 -9 -3 -25 -12 -35 -17 -18 -32 -20 -180 -20 -123 0 -166 3 -180 14 -18 13 -20 27 -20 135 0 85 4 124 13 133 17 17 339 25 355 9 6 -6 16 -26 21 -43 10 -31 14 -33 60 -33 63 0 75 16 57 76 -16 53 -56 94 -107 108 -42 12 -337 13 -394 2z"/>
<path d="M2357 1043 c-13 -12 -8 -498 5 -511 16 -16 460 -17 489 -2 22 12 27 83 7 97 -7 4 -98 10 -203 13 l-190 5 0 45 0 45 188 3 187 2 6 24 c3 13 4 37 2 52 l-3 29 -179 3 c-116 2 -184 7 -193 14 -8 6 -13 25 -11 42 l3 31 190 3 c164 2 192 5 203 19 15 21 16 65 0 81 -13 13 -489 18 -501 5z"/>
<path d="M3252 1038 c-17 -17 -17 -489 0 -506 13 -13 76 -16 95 -4 8 5 13 43 15 107 l3 100 174 2 c95 1 175 4 177 6 3 3 7 20 10 38 9 61 3 63 -188 69 l-173 5 0 40 0 40 182 5 c100 3 184 8 187 11 9 9 10 74 2 87 -10 17 -467 17 -484 0z"/>
<path d="M3837 1044 c-13 -13 -8 -499 5 -512 17 -17 449 -17 466 0 10 10 18 93 10 100 -2 1 -86 4 -187 7 l-183 6 -2 200 -1 200 -50 3 c-28 2 -54 0 -58 -4z"/>
<path d="M4236 1041 c-3 -5 61 -74 142 -154 l147 -146 5 -103 5 -103 38 -9 c64 -16 72 -5 75 111 l3 99 144 144 c80 80 145 150 145 157 0 9 -21 13 -72 13 l-73 0 -103 -106 -103 -107 -108 107 -108 106 -66 0 c-36 0 -68 -4 -71 -9z"/>
<path d="M5007 1043 c-13 -12 -8 -498 5 -511 16 -16 80 -16 96 0 8 8 12 63 12 183 0 95 3 175 7 179 4 4 91 -77 194 -180 l188 -188 58 -4 c44 -3 62 0 71 11 9 11 12 78 10 263 l-3 249 -44 3 c-24 2 -48 -1 -54 -7 -7 -7 -10 -73 -8 -180 2 -122 -1 -171 -9 -176 -8 -5 -81 61 -199 179 l-186 186 -66 0 c-36 0 -69 -3 -72 -7z"/>
<path d="M5775 1028 c-3 -13 -4 -129 -3 -258 l3 -235 42 -9 c71 -15 73 -10 73 189 0 94 3 175 7 179 4 4 91 -77 194 -180 l188 -188 60 -4 61 -4 0 266 0 267 -42 -3 -43 -3 -3 -175 c-1 -98 -7 -179 -12 -184 -7 -7 -73 53 -198 177 l-187 187 -67 0 c-62 0 -68 -2 -73 -22z"/>
<path d="M43 403 c-23 -4 -30 -17 -15 -27 7 -4 6300 -11 6360 -7 6 1 12 10 12 21 l0 20 -3167 -1 c-1743 -1 -3178 -4 -3190 -6z"/>
<path d="M5660 60 c0 -5 5 -10 10 -10 6 0 10 5 10 10 0 6 -4 10 -10 10 -5 0 -10 -4 -10 -10z"/>
</g>
</g>
  <g id="id1:id1" transform="matrix(1.25,0,0,1.25,0.0,0.0)"><g transform="translate(0.000000,115.200000) scale(0.040000,-0.040000)" fill="#2c1a5d" stroke="none">
<path d="M2320 2856 c-22 -22 -296 -204 -700 -466 -69 -45 -289 -189 -490 -321 -201 -132 -456 -299 -568 -372 -111 -72 -273 -178 -358 -234 -86 -57 -160 -103 -165 -103 -5 0 -9 -4 -9 -10 0 -27 139 13 369 106 459 186 1181 590 1831 1025 49 32 92 59 96 59 4 0 30 -14 58 -32 28 -17 85 -52 126 -78 41 -26 208 -130 370 -232 587 -369 839 -528 1070 -673 603 -379 600 -377 615 -365 16 13 215 288 222 306 6 15 35 -3 -427 259 -212 120 -397 227 -412 237 l-28 19 -2 237 -3 237 -205 0 -205 0 -5 -115 c-3 -63 -9 -114 -13 -113 -8 1 -186 102 -817 461 -140 80 -269 156 -286 169 -17 12 -33 23 -35 23 -3 0 -16 -11 -29 -24z"/>
<path d="M1220 640 c0 -11 7 -20 15 -20 17 0 18 2 9 24 -9 23 -24 20 -24 -4z"/>
<path d="M1640 590 c0 -5 5 -10 10 -10 6 0 10 5 10 10 0 6 -4 10 -10 10 -5 0 -10 -4 -10 -10z"/>
<path d="M3250 251 c-5 -11 -10 -72 -10 -135 l0 -116 35 0 c28 0 35 4 35 19 0 31 19 35 32 7 8 -19 19 -26 40 -26 34 0 37 20 9 67 l-20 32 18 23 c29 37 34 64 17 97 -20 38 -24 40 -90 46 -47 5 -57 3 -66 -14z m96 -62 c10 -17 -13 -36 -27 -22 -12 12 -4 33 11 33 5 0 12 -5 16 -11z"/>
<path d="M3752 261 c-12 -7 -14 -37 -13 -163 l1 -98 80 0 c63 0 80 3 80 14 0 19 -16 28 -60 36 -26 4 -35 10 -35 24 0 15 11 22 45 30 34 8 45 16 45 30 0 14 -11 22 -43 30 -53 13 -57 29 -11 37 19 3 40 9 47 13 20 12 14 36 -11 45 -26 10 -110 11 -125 2z"/>
<path d="M4304 262 c-6 -4 -16 -16 -22 -28 -17 -32 -82 -208 -82 -221 0 -21 54 -15 68 7 9 15 23 20 57 20 34 0 47 -5 55 -20 7 -13 21 -20 40 -20 35 0 36 6 11 68 -10 26 -26 67 -35 92 -32 90 -62 123 -92 102z m36 -137 c0 -19 -20 -29 -32 -17 -8 8 -7 16 2 26 14 17 30 12 30 -9z"/>
<path d="M4777 263 c-3 -5 -8 -65 -12 -136 l-7 -127 71 0 c62 0 71 2 71 19 0 12 -11 21 -32 27 l-33 10 -5 94 c-3 52 -9 101 -13 108 -9 13 -33 16 -40 5z"/>
<path d="M5186 254 c-22 -21 -20 -26 14 -46 l30 -17 0 -96 0 -95 30 0 30 0 0 95 0 95 24 12 c32 14 39 33 20 53 -21 21 -127 21 -148 -1z"/>
<path d="M5702 250 c-75 -46 -95 -151 -41 -218 l24 -31 90 0 91 -1 27 42 c32 49 35 97 9 148 -37 74 -131 102 -200 60z m130 -68 c29 -30 31 -64 6 -102 -33 -49 -77 -53 -118 -11 -39 39 -39 74 0 113 26 25 36 29 63 24 18 -4 40 -14 49 -24z"/>
<path d="M6252 258 c-8 -8 -12 -56 -12 -135 l0 -123 29 0 c23 0 30 5 33 23 4 28 20 28 33 -1 7 -15 18 -22 37 -22 24 0 28 4 28 29 0 16 -6 31 -15 35 -8 3 -15 15 -15 26 0 11 7 23 15 26 11 5 15 22 15 63 0 53 -2 57 -30 69 -40 18 -105 23 -118 10z m84 -69 c10 -17 -13 -36 -27 -22 -12 12 -4 33 11 33 5 0 12 -5 16 -11z"/>
</g>
</g>
</svg>
