<?xml version="1.0" standalone="no"?>
<!DOCTYPE svg PUBLIC "-//W3C//DTD SVG 1.1//EN"
 "http://www.w3.org/Graphics/SVG/1.1/DTD/svg11.dtd">
<!-- Created with svg_stack (http://github.com/astraw/svg_stack) -->
<svg xmlns:sodipodi="http://sodipodi.sourceforge.net/DTD/sodipodi-0.dtd" xmlns="http://www.w3.org/2000/svg" version="1.1" width="590.0" height="592.0">
  <defs/>
  <g id="id0:id0" transform="matrix(1.25,0,0,1.25,0.0,0.0)"><g transform="translate(0.000000,473.600000) scale(0.040000,-0.040000)" fill="#ffffff" stroke="none">
<path d="M0 5920 l0 -5920 5900 0 5900 0 0 5920 0 5920 -5900 0 -5900 0 0 -5920z m4273 5845 c42 -29 42 -28 19 -75 l-17 -35 -195 -65 c-179 -61 -323 -115 -425 -160 -22 -10 -87 -39 -145 -64 -151 -65 -472 -230 -510 -261 -8 -7 -40 -26 -70 -41 -61 -32 -488 -315 -547 -363 -21 -17 -110 -88 -197 -158 -370 -294 -782 -720 -1084 -1121 -89 -117 -262 -368 -262 -378 0 -3 -17 -31 -38 -62 -34 -50 -105 -170 -180 -305 -77 -136 -211 -416 -249 -517 -13 -36 -30 -74 -37 -85 -8 -11 -27 -61 -44 -110 -85 -251 -109 -310 -129 -320 -12 -6 -28 -17 -37 -24 -13 -11 -19 -11 -31 -1 -8 7 -15 18 -15 25 0 7 -7 15 -15 19 -8 3 -15 13 -15 23 0 23 106 336 134 398 13 28 31 68 39 90 36 92 111 261 123 275 7 8 15 27 19 42 4 15 13 32 20 38 8 6 17 24 20 40 3 16 12 34 20 40 8 6 17 24 20 40 3 16 12 34 20 40 8 6 17 24 20 40 3 16 13 34 21 41 8 6 14 16 14 22 0 5 19 40 43 76 23 37 48 76 55 86 6 11 16 29 21 40 5 11 27 48 50 82 22 34 41 65 41 68 0 3 18 30 40 59 22 29 40 56 40 59 0 12 194 274 325 438 187 235 465 528 700 738 108 97 379 318 500 408 72 54 465 313 510 337 28 14 84 46 125 71 100 60 458 240 540 271 36 14 88 36 115 49 28 13 79 33 115 45 36 12 70 26 76 31 10 9 390 137 409 138 6 1 27 -10 48 -24z m3322 -1131 c39 -14 94 -34 123 -45 29 -10 89 -34 132 -54 44 -19 117 -51 163 -71 101 -44 159 -72 217 -105 25 -14 92 -52 150 -84 58 -32 130 -74 160 -93 392 -250 607 -420 904 -714 135 -134 186 -178 205 -178 24 0 415 100 511 130 14 5 42 11 63 14 42 5 49 -4 67 -89 22 -104 43 -205 55 -260 7 -33 22 -103 33 -155 35 -169 91 -423 112 -510 32 -137 26 -160 -42 -160 -41 0 -88 -18 -88 -33 0 -5 25 -60 55 -121 71 -144 130 -275 139 -306 4 -14 20 -56 36 -95 70 -173 180 -543 215 -720 7 -38 20 -106 29 -150 75 -366 103 -953 65 -1350 -16 -174 -61 -489 -78 -550 -5 -16 -14 -57 -21 -90 -21 -101 -57 -246 -85 -335 -15 -47 -32 -105 -39 -129 -10 -34 -20 -48 -44 -59 -25 -13 -34 -13 -47 -2 -19 16 -19 72 1 125 18 47 76 257 94 335 6 30 16 69 20 85 5 17 14 55 19 85 6 30 18 89 26 131 49 254 80 686 71 974 -9 252 -43 574 -76 725 -5 25 -16 79 -24 120 -49 245 -159 624 -217 746 -10 22 -19 44 -19 48 0 18 -108 261 -172 389 l-69 137 -33 0 c-18 0 -55 -6 -82 -14 -27 -8 -66 -17 -86 -20 -36 -7 -38 -9 -38 -44 0 -20 7 -71 15 -112 9 -41 20 -96 26 -123 8 -44 14 -74 39 -194 10 -51 35 -172 50 -238 5 -22 21 -96 35 -165 14 -69 34 -165 45 -215 10 -49 24 -117 31 -150 6 -33 15 -73 19 -90 5 -16 18 -82 30 -145 12 -63 25 -125 30 -137 11 -26 -2 -38 -45 -45 -16 -3 -91 -22 -165 -42 -156 -43 -389 -105 -440 -117 -19 -4 -51 -12 -70 -18 -93 -27 -164 -41 -170 -34 -4 4 -15 35 -25 68 -10 33 -35 112 -55 175 -21 63 -49 156 -64 205 -106 357 -350 1103 -366 1119 -10 10 -231 -62 -400 -130 -58 -23 -108 -40 -112 -38 -4 3 -19 44 -34 92 -15 48 -33 106 -40 129 -7 23 -25 84 -39 135 -15 51 -39 131 -54 178 -16 47 -38 121 -51 165 -12 44 -28 98 -35 120 -46 135 -85 269 -87 296 -3 37 -25 29 342 125 140 36 278 72 305 80 28 8 66 18 85 23 19 5 69 19 110 30 41 11 147 39 235 62 88 23 189 50 225 60 36 10 77 20 93 24 16 3 27 12 27 22 0 32 -470 472 -577 540 -15 9 -57 40 -93 69 -36 28 -86 64 -112 80 -25 16 -91 59 -145 95 -54 36 -116 76 -138 88 -68 37 -149 83 -175 99 -35 22 -266 135 -330 162 -30 13 -75 32 -100 43 -75 34 -172 72 -274 107 -33 11 -68 28 -78 37 -37 33 -15 82 37 82 11 1 52 -11 90 -25z m125 -2373 c418 -822 483 -948 608 -1176 27 -49 75 -139 106 -200 31 -60 75 -141 96 -180 22 -38 55 -99 75 -135 19 -36 42 -78 51 -95 9 -16 21 -37 25 -45 9 -16 50 -93 95 -180 16 -30 38 -67 48 -83 21 -31 12 -51 -27 -60 -137 -34 -197 -49 -282 -72 -55 -15 -143 -38 -195 -51 -52 -14 -111 -30 -130 -35 -19 -6 -51 -14 -70 -19 -44 -10 -248 -65 -278 -74 -16 -6 -24 -3 -29 11 -12 34 -108 173 -119 173 -30 0 -252 -263 -303 -358 -6 -12 -17 -19 -25 -16 -13 5 -122 134 -186 220 -29 39 -50 50 -62 32 -4 -7 -8 -68 -8 -136 0 -90 -3 -124 -12 -126 -96 -25 -312 -79 -343 -85 -23 -4 -45 -10 -51 -14 -6 -3 -43 -15 -83 -25 -51 -14 -73 -16 -76 -8 -2 6 -6 184 -9 396 -19 1162 -34 1501 -113 2407 -5 57 -3 73 8 77 8 2 68 18 134 36 66 17 152 40 190 50 67 19 288 77 460 121 133 34 148 38 210 58 33 11 65 19 70 17 6 -1 107 -192 225 -425z m-1831 -80 c-11 -115 -44 -597 -64 -926 -8 -132 -19 -305 -25 -385 -11 -161 -24 -522 -41 -1130 -7 -244 -15 -410 -21 -417 -6 -7 -23 -13 -39 -13 -15 0 -39 -4 -53 -10 -15 -5 -106 -30 -204 -56 -97 -25 -193 -51 -212 -56 -19 -6 -53 -12 -75 -15 -22 -3 -45 -9 -51 -14 -13 -11 -30 7 -59 62 -24 44 -74 134 -114 204 -16 28 -41 75 -57 105 -15 30 -50 95 -78 143 -49 85 -118 210 -151 272 -9 17 -36 64 -60 105 -25 41 -50 87 -57 102 -11 26 -35 44 -45 34 -2 -2 -11 -206 -19 -452 -8 -247 -18 -518 -22 -603 l-7 -155 -145 -37 c-80 -20 -217 -56 -305 -80 -217 -58 -209 -58 -257 21 -22 36 -50 83 -62 105 -12 22 -37 64 -56 94 -19 30 -48 78 -65 107 -42 73 -173 289 -255 419 -39 61 -74 120 -79 132 -6 12 -25 44 -44 70 -18 26 -48 74 -65 106 -34 62 -113 187 -143 227 -10 14 -26 39 -35 55 -17 31 -443 670 -505 758 -19 27 -50 73 -69 102 -19 30 -63 95 -98 145 -34 50 -60 95 -57 100 5 8 87 31 425 120 107 28 211 55 230 60 19 6 78 21 130 35 346 91 442 115 450 110 9 -6 63 -102 150 -270 32 -60 115 -209 185 -330 70 -121 136 -235 146 -253 9 -18 22 -38 27 -45 5 -7 22 -36 37 -65 30 -57 51 -74 66 -51 5 8 9 91 9 185 0 151 -2 174 -18 195 -10 13 -22 31 -25 39 -4 8 -20 38 -36 65 -17 28 -42 73 -57 100 -14 28 -32 57 -39 65 -7 8 -26 40 -42 70 -15 30 -41 74 -56 98 -16 24 -37 59 -48 78 -10 19 -29 51 -41 72 -49 85 -52 93 -36 108 7 7 34 18 58 23 25 6 95 23 155 39 61 17 164 44 230 61 66 18 172 46 235 63 260 69 414 108 432 108 10 0 21 -8 24 -17 3 -10 20 -49 39 -88 18 -38 54 -119 80 -180 25 -60 64 -146 85 -190 136 -287 200 -427 200 -440 0 -4 14 -29 32 -56 39 -61 64 -66 54 -11 -4 20 -11 228 -17 462 -5 234 -13 472 -18 530 -5 72 -4 109 3 116 10 10 98 35 371 105 137 35 224 59 250 69 11 4 23 5 27 1 3 -3 2 -48 -3 -100z m-4639 -676 l23 -24 -28 -83 c-31 -94 -85 -287 -85 -305 0 -16 35 -17 63 -1 68 38 322 108 502 138 57 9 301 30 357 30 34 0 49 -29 94 -185 20 -66 48 -158 64 -205 29 -88 92 -289 155 -495 20 -66 46 -146 57 -177 22 -65 18 -78 -20 -78 -59 0 -180 -19 -217 -35 -108 -44 -164 -169 -119 -258 27 -51 60 -90 156 -184 160 -156 231 -244 282 -348 58 -118 71 -177 70 -325 0 -100 -4 -125 -28 -195 -65 -184 -225 -358 -396 -430 -36 -15 -70 -31 -75 -35 -15 -12 -277 -76 -370 -90 -44 -7 -107 -10 -139 -8 l-60 3 -74 145 c-41 80 -83 161 -94 180 -10 19 -34 64 -53 99 -19 35 -42 72 -51 82 -23 25 -17 27 151 38 166 10 236 32 296 92 33 33 39 45 39 82 0 47 -22 116 -52 165 -38 61 -122 117 -354 231 -126 63 -241 125 -256 138 -42 40 -52 23 -45 -76 10 -129 42 -319 93 -551 35 -156 46 -194 119 -422 172 -532 408 -989 744 -1438 279 -374 662 -753 1026 -1016 384 -277 802 -499 1210 -645 149 -53 191 -99 120 -131 -21 -9 -37 -8 -83 6 -101 31 -475 184 -552 226 -8 5 -62 32 -120 61 -58 30 -112 59 -120 66 -9 7 -43 26 -75 44 -67 35 -111 63 -305 192 -405 270 -787 624 -1110 1031 -116 146 -191 251 -302 426 -147 231 -297 518 -393 755 -56 138 -190 536 -224 665 -66 257 -125 603 -138 812 l-6 97 -74 83 c-219 246 -297 590 -202 892 39 123 148 276 255 358 94 72 134 114 134 140 0 13 9 55 21 93 11 39 24 88 29 110 22 101 73 241 97 263 30 28 34 28 63 -3z m10507 -3300 c9 -25 11 -55 7 -80 -9 -54 -90 -301 -113 -345 -10 -19 -26 -60 -36 -90 -9 -30 -28 -77 -41 -105 -13 -27 -42 -93 -64 -145 -65 -150 -181 -376 -257 -502 -19 -32 -40 -68 -46 -80 -71 -130 -262 -418 -383 -578 -257 -341 -503 -615 -769 -859 -433 -398 -815 -672 -1333 -958 -87 -48 -88 -49 -122 -63 -14 -5 -32 -14 -40 -20 -8 -5 -26 -14 -40 -20 -14 -5 -32 -14 -40 -19 -26 -16 -142 -68 -225 -101 -44 -17 -98 -40 -120 -51 -41 -19 -60 -26 -220 -81 -49 -16 -94 -34 -99 -39 -17 -16 -74 -10 -110 12 l-35 20 16 37 c22 55 -11 39 312 153 47 16 90 34 95 38 6 5 58 27 116 50 187 75 583 282 790 415 25 16 65 41 90 57 129 82 454 319 569 417 227 191 554 509 748 727 133 150 455 569 480 625 4 8 23 38 42 65 47 66 59 85 70 112 6 12 26 43 45 70 19 27 40 60 46 73 6 14 21 43 34 65 13 22 46 83 75 135 28 52 56 102 61 110 6 8 15 26 21 40 6 14 15 32 20 40 10 16 12 21 66 145 20 44 46 103 58 130 12 28 34 82 50 120 15 39 33 84 40 100 7 17 37 100 65 185 63 185 72 205 108 224 39 22 53 16 69 -29z m-7592 -215 c0 -14 -6 -26 -12 -26 -24 -3 -28 -5 -56 -28 -37 -30 -28 -50 40 -82 40 -19 59 -35 71 -61 l17 -35 -22 -36 c-12 -22 -39 -47 -64 -60 -54 -29 -146 -49 -160 -35 -12 12 6 63 22 63 7 0 30 8 51 17 54 24 49 45 -21 87 -70 43 -90 79 -71 127 23 55 108 101 180 96 20 -2 25 -7 25 -27z m2826 -64 c41 -129 57 -140 97 -68 9 17 27 49 40 71 12 23 26 41 31 41 5 0 21 -20 35 -43 28 -49 79 -107 93 -107 5 0 22 40 37 90 36 113 44 120 102 92 50 -24 52 -31 24 -57 -11 -10 -20 -23 -20 -28 0 -9 -16 -45 -107 -235 -14 -29 -29 -55 -33 -57 -9 -6 -38 27 -87 98 -18 26 -39 47 -47 47 -12 0 -61 -54 -76 -85 -37 -73 -70 -99 -70 -56 0 10 -9 26 -20 36 -11 10 -20 25 -20 34 0 9 -6 25 -13 36 -7 11 -28 61 -47 110 -19 50 -40 100 -48 112 -13 20 -11 23 25 42 63 34 72 27 104 -73z m-2401 9 c10 -12 9 -20 -4 -39 -14 -22 -18 -23 -46 -13 -48 18 -54 3 -60 -141 l-5 -127 -50 0 -50 0 -5 127 c-3 70 -7 128 -10 131 -21 18 -45 24 -61 14 -24 -15 -49 -2 -49 26 0 13 3 27 7 30 3 4 77 7 163 7 128 0 160 -3 170 -15z m168 -89 c3 -94 4 -101 34 -138 26 -33 35 -38 57 -33 14 4 36 16 48 27 20 19 23 32 25 132 l3 111 54 0 54 0 -2 -95 c-4 -178 -53 -235 -202 -235 -68 0 -79 3 -113 28 -20 16 -42 41 -48 55 -11 30 -29 232 -21 245 3 4 28 7 56 5 l52 -3 3 -99z m644 74 c56 -24 77 -48 84 -92 6 -35 -20 -102 -48 -125 -57 -47 -250 -106 -292 -90 -14 5 -16 29 -16 165 0 87 3 162 8 167 14 15 217 -4 264 -25z m379 13 c20 -20 -8 -43 -50 -43 -44 0 -61 -14 -61 -50 0 -33 17 -50 50 -50 14 0 35 -6 45 -14 16 -12 17 -16 6 -30 -7 -9 -25 -16 -40 -16 -35 0 -54 -14 -49 -36 3 -16 13 -19 53 -19 l50 0 0 -30 0 -30 -105 0 -105 0 -3 155 c-1 85 0 160 3 168 7 18 188 13 206 -5z m532 10 c4 -3 0 -17 -8 -30 -9 -13 -14 -32 -11 -41 9 -26 -10 -217 -24 -242 l-12 -22 -19 21 c-11 12 -24 21 -30 21 -5 0 -22 8 -37 18 -177 121 -174 120 -182 14 l-5 -67 -45 0 -45 0 4 109 c2 61 7 121 11 136 4 14 4 35 -1 47 -4 12 -4 25 0 28 10 5 116 -52 158 -85 14 -11 30 -20 35 -20 6 0 21 -9 35 -20 31 -24 59 -26 67 -4 3 9 6 42 6 73 0 32 3 61 7 64 8 9 88 9 96 0z m395 -18 c1 -11 -4 -29 -12 -40 -12 -16 -17 -18 -27 -7 -15 14 -38 15 -59 2 -12 -7 -16 -38 -20 -137 l-5 -128 -50 0 -50 0 -5 125 c-3 69 -9 131 -13 138 -5 7 -25 11 -49 10 -48 -3 -71 19 -48 46 11 14 36 16 174 14 153 -3 161 -4 164 -23z m1074 6 c18 -17 -15 -41 -57 -41 -38 0 -55 -16 -55 -50 0 -33 17 -50 50 -50 14 0 35 -6 45 -14 16 -12 17 -16 6 -30 -7 -9 -25 -16 -40 -16 -35 0 -54 -14 -49 -36 3 -16 13 -19 53 -19 l50 0 0 -30 0 -30 -105 0 -105 0 -3 155 c-1 85 0 161 3 168 7 19 188 13 207 -7z m352 -3 c64 -33 71 -64 25 -110 -32 -33 -32 -58 1 -58 12 0 25 -10 32 -25 10 -22 8 -30 -9 -53 -24 -33 -111 -68 -133 -54 -10 6 -22 4 -37 -5 -13 -9 -40 -13 -70 -11 l-48 3 -3 155 c-1 85 0 161 3 169 5 11 24 13 112 7 58 -4 115 -12 127 -18z m326 2 c16 -30 4 -40 -45 -40 -75 0 -69 -32 14 -75 61 -30 85 -58 77 -88 -9 -37 -75 -83 -146 -101 -57 -15 -65 -15 -79 -1 -24 23 -2 48 49 57 81 14 80 41 -5 82 -99 49 -101 110 -5 159 66 33 124 36 140 7z m245 -150 l0 -165 -50 0 -50 0 -3 155 c-1 85 0 160 3 168 3 9 19 12 52 10 l48 -3 0 -165z m443 145 c1 -11 -4 -29 -12 -40 -12 -16 -17 -18 -27 -7 -7 6 -21 12 -30 12 -34 0 -44 -30 -49 -154 l-5 -121 -50 0 -50 0 -5 125 c-3 69 -9 131 -13 137 -5 8 -22 11 -51 7 -38 -6 -46 -4 -56 15 -9 17 -9 26 1 37 10 12 42 14 178 12 158 -3 166 -4 169 -23z m273 8 c20 -20 -8 -43 -50 -43 -44 0 -61 -14 -61 -50 0 -35 17 -50 56 -50 40 0 62 -23 44 -45 -7 -8 -24 -15 -39 -15 -35 0 -54 -14 -49 -36 3 -16 13 -19 53 -19 l50 0 0 -30 0 -30 -105 0 -105 0 -3 155 c-1 85 0 160 3 168 7 18 188 13 206 -5z m-5779 -670 c21 -32 83 -130 123 -194 6 -9 27 -40 47 -70 42 -59 40 -67 -23 -99 -40 -21 -50 -17 -63 28 -11 34 -34 40 -130 33 l-89 -6 -20 -37 c-10 -21 -24 -38 -31 -38 -7 0 -27 16 -46 35 -30 31 -32 36 -18 52 8 10 54 86 103 168 100 170 105 176 114 170 4 -2 19 -21 33 -42z m4995 31 c3 -8 0 -27 -6 -41 -10 -23 -16 -25 -50 -19 -60 9 -65 -3 -71 -183 l-5 -156 -50 0 -50 0 -2 150 c-4 203 -2 197 -63 189 -46 -6 -50 -5 -61 19 -25 54 -16 57 176 57 150 0 177 -2 182 -16z m-4497 -82 c65 -13 76 -20 106 -59 l27 -35 -12 -54 c-10 -44 -20 -60 -59 -92 -46 -39 -70 -48 -184 -73 -90 -19 -88 -23 -88 159 0 87 3 162 8 166 8 9 138 1 202 -12z m915 -136 c52 -78 95 -150 95 -159 0 -18 -66 -51 -82 -41 -5 3 -13 17 -18 30 -9 22 -14 24 -85 24 -79 0 -111 -10 -133 -41 -11 -16 -17 -17 -40 -7 -51 22 -54 28 -33 62 10 17 27 45 38 63 87 150 141 225 154 217 5 -3 52 -69 104 -148z m527 129 c-1 -11 -5 -76 -8 -144 -3 -69 -9 -132 -15 -142 -8 -16 -12 -16 -52 6 -24 14 -54 36 -67 50 -13 14 -28 25 -33 25 -5 0 -23 11 -39 25 -42 36 -56 21 -60 -63 l-3 -67 -39 -3 c-58 -5 -66 1 -56 40 5 18 11 89 14 156 2 68 7 126 9 129 7 6 168 -101 192 -127 22 -24 51 -26 59 -4 3 9 6 42 6 73 0 32 3 61 7 65 4 4 25 6 48 4 33 -3 40 -6 37 -23z m679 8 c20 -20 -8 -43 -50 -43 -44 0 -61 -14 -61 -50 0 -35 17 -50 56 -50 40 0 62 -23 44 -45 -7 -8 -24 -15 -39 -15 -35 0 -54 -14 -49 -36 3 -16 13 -19 53 -19 l50 0 0 -30 0 -30 -105 0 -105 0 -3 155 c-1 85 0 160 3 168 7 18 188 13 206 -5z m960 0 c20 -20 -8 -43 -50 -43 -44 0 -61 -14 -61 -50 0 -35 17 -50 56 -50 40 0 62 -23 44 -45 -7 -8 -24 -15 -39 -15 -35 0 -54 -14 -49 -36 3 -16 13 -19 53 -19 l50 0 0 -30 0 -30 -105 0 -105 0 -3 155 c-1 85 0 160 3 168 7 18 188 13 206 -5z m492 11 c3 -4 1 -16 -5 -27 -6 -12 -13 -75 -15 -140 -2 -66 -8 -128 -14 -138 l-10 -19 -42 26 c-23 15 -52 36 -64 47 -12 11 -31 25 -41 31 -11 6 -31 19 -46 30 -15 10 -30 15 -34 12 -4 -4 -9 -40 -12 -79 l-5 -72 -45 0 -45 0 1 35 c3 116 13 282 17 286 7 7 168 -99 192 -126 22 -24 51 -26 59 -4 3 9 6 42 6 73 0 32 3 61 7 64 8 9 88 9 96 1z m395 -19 c1 -11 -4 -29 -12 -40 -12 -16 -17 -18 -27 -7 -15 14 -38 15 -59 2 -12 -7 -16 -38 -20 -137 l-5 -128 -50 0 -50 0 -5 125 c-3 69 -9 131 -13 138 -5 7 -25 11 -49 10 -48 -3 -71 19 -48 46 11 14 36 16 174 14 153 -3 161 -4 164 -23z m833 8 c20 -20 -8 -43 -50 -43 -44 0 -61 -14 -61 -50 0 -33 17 -50 50 -50 14 0 35 -6 45 -14 16 -12 17 -16 6 -30 -7 -9 -25 -16 -40 -16 -35 0 -54 -14 -49 -36 3 -16 13 -19 53 -19 l50 0 0 -30 0 -30 -105 0 -105 0 -3 155 c-1 85 0 160 3 168 7 18 188 13 206 -5z m394 -137 c52 -78 95 -150 95 -159 0 -19 -64 -52 -80 -42 -6 4 -15 18 -20 31 -9 23 -14 24 -89 24 -74 0 -83 -2 -113 -28 -29 -25 -36 -27 -58 -18 -51 22 -52 25 -31 59 10 18 27 46 38 64 75 131 142 225 155 217 4 -3 51 -69 103 -148z m-4895 115 c11 -16 26 -42 33 -58 20 -45 58 -103 67 -103 5 0 29 43 54 95 24 52 50 95 56 95 14 0 90 -39 90 -46 0 -3 -13 -23 -30 -44 -16 -21 -30 -41 -30 -45 0 -12 -144 -225 -152 -225 -4 0 -15 12 -25 28 -9 15 -42 65 -72 112 -31 47 -60 94 -64 105 -4 11 -16 28 -25 38 -16 18 -15 20 18 48 44 36 54 36 80 0z m1492 24 c3 -3 3 -17 0 -31 -3 -19 -16 -31 -46 -44 -47 -20 -96 -71 -96 -100 0 -37 56 -72 120 -74 27 -1 37 -7 48 -29 21 -43 8 -50 -77 -44 -84 6 -161 35 -186 69 -41 60 -23 134 47 189 58 46 170 84 190 64z m628 -81 c15 -23 31 -52 35 -63 3 -12 13 -21 22 -21 18 0 29 12 84 95 22 33 46 60 52 60 12 0 21 -15 81 -145 62 -134 66 -148 52 -159 -7 -6 -27 -14 -44 -17 l-32 -6 -21 48 c-11 27 -23 64 -26 82 -3 17 -10 32 -15 32 -11 0 -49 -38 -98 -98 l-35 -43 -50 65 c-56 74 -85 85 -85 34 0 -18 -9 -52 -20 -76 l-19 -43 -38 7 c-21 4 -41 8 -44 10 -8 4 92 251 116 288 l18 27 19 -18 c11 -10 32 -36 48 -59z m3135 -29 c43 -78 48 -76 126 40 22 33 46 60 52 60 12 0 21 -15 81 -145 74 -162 74 -161 8 -175 l-32 -7 -21 49 c-11 26 -23 63 -26 81 -3 17 -10 32 -16 32 -9 0 -43 -36 -108 -113 l-24 -28 -50 65 c-27 36 -57 65 -65 63 -9 -1 -17 -19 -22 -44 -3 -23 -14 -56 -23 -73 -15 -29 -20 -31 -48 -26 -17 4 -35 10 -40 15 -12 12 62 207 105 279 l20 33 27 -25 c14 -14 40 -50 56 -81z"/>
<path d="M10130 9350 c0 -5 9 -10 19 -10 11 0 23 5 26 10 4 6 -5 10 -19 10 -14 0 -26 -4 -26 -10z"/>
<path d="M10220 9321 c0 -12 5 -21 10 -21 6 0 10 6 10 14 0 8 -4 18 -10 21 -5 3 -10 -3 -10 -14z"/>
<path d="M9985 9310 c3 -5 13 -10 21 -10 8 0 14 5 14 10 0 6 -9 10 -21 10 -11 0 -17 -4 -14 -10z"/>
<path d="M9825 9270 c-3 -5 3 -10 14 -10 12 0 21 5 21 10 0 6 -6 10 -14 10 -8 0 -18 -4 -21 -10z"/>
<path d="M9670 9230 c0 -5 6 -10 14 -10 8 0 18 5 21 10 3 6 -3 10 -14 10 -12 0 -21 -4 -21 -10z"/>
<path d="M10260 9141 c0 -16 5 -33 10 -36 6 -4 10 6 10 24 0 16 -4 33 -10 36 -6 4 -10 -6 -10 -24z"/>
<path d="M9380 9150 c0 -5 6 -10 14 -10 8 0 18 5 21 10 3 6 -3 10 -14 10 -12 0 -21 -4 -21 -10z"/>
<path d="M9230 9110 c0 -5 7 -10 15 -10 8 0 15 5 15 10 0 6 -7 10 -15 10 -8 0 -15 -4 -15 -10z"/>
<path d="M9075 9070 c-3 -5 1 -10 9 -10 9 0 16 5 16 10 0 6 -4 10 -9 10 -6 0 -13 -4 -16 -10z"/>
<path d="M8910 9030 c0 -5 9 -10 19 -10 11 0 23 5 26 10 4 6 -5 10 -19 10 -14 0 -26 -4 -26 -10z"/>
<path d="M8778 8988 c9 -9 15 -9 24 0 9 9 7 12 -12 12 -19 0 -21 -3 -12 -12z"/>
<path d="M10305 8959 c-4 -18 -3 -35 4 -42 8 -8 11 0 11 31 0 50 -6 54 -15 11z"/>
<path d="M8620 8950 c0 -5 6 -10 14 -10 8 0 18 5 21 10 3 6 -3 10 -14 10 -12 0 -21 -4 -21 -10z"/>
<path d="M8470 8910 c0 -5 7 -10 15 -10 8 0 15 5 15 10 0 6 -7 10 -15 10 -8 0 -15 -4 -15 -10z"/>
<path d="M8310 8870 c0 -5 9 -10 20 -10 11 0 20 5 20 10 0 6 -9 10 -20 10 -11 0 -20 -4 -20 -10z"/>
<path d="M8175 8830 c-3 -5 1 -10 9 -10 9 0 16 5 16 10 0 6 -4 10 -9 10 -6 0 -13 -4 -16 -10z"/>
<path d="M10340 8771 c0 -17 5 -33 10 -36 6 -4 10 8 10 29 0 20 -4 36 -10 36 -5 0 -10 -13 -10 -29z"/>
<path d="M8160 8706 c0 -8 5 -18 10 -21 6 -3 10 3 10 14 0 12 -4 21 -10 21 -5 0 -10 -6 -10 -14z"/>
<path d="M10380 8580 c0 -22 5 -40 10 -40 6 0 10 18 10 40 0 22 -4 40 -10 40 -5 0 -10 -18 -10 -40z"/>
<path d="M8200 8560 c0 -11 5 -20 10 -20 6 0 10 9 10 20 0 11 -4 20 -10 20 -5 0 -10 -9 -10 -20z"/>
<path d="M8240 8440 c0 -11 5 -20 10 -20 6 0 10 9 10 20 0 11 -4 20 -10 20 -5 0 -10 -9 -10 -20z"/>
<path d="M10421 8390 c0 -27 4 -50 9 -50 6 0 10 23 10 50 0 28 -4 50 -9 50 -4 0 -9 -22 -10 -50z"/>
<path d="M8280 8315 c0 -8 5 -15 10 -15 6 0 10 7 10 15 0 8 -4 15 -10 15 -5 0 -10 -7 -10 -15z"/>
<path d="M10170 8290 c0 -5 11 -10 24 -10 14 0 28 5 31 10 4 6 -7 10 -24 10 -17 0 -31 -4 -31 -10z"/>
<path d="M9990 8250 c0 -5 14 -10 30 -10 17 0 30 5 30 10 0 6 -13 10 -30 10 -16 0 -30 -4 -30 -10z"/>
<path d="M8320 8171 c0 -12 5 -21 10 -21 6 0 10 6 10 14 0 8 -4 18 -10 21 -5 3 -10 -3 -10 -14z"/>
<path d="M9940 8046 c0 -25 5 -46 10 -46 6 0 10 18 10 39 0 22 -4 43 -10 46 -6 4 -10 -12 -10 -39z"/>
<path d="M8360 8040 c0 -11 5 -20 10 -20 6 0 10 9 10 20 0 11 -4 20 -10 20 -5 0 -10 -9 -10 -20z"/>
<path d="M8940 7974 c0 -8 32 -33 43 -34 4 0 3 9 -3 20 -10 18 -40 29 -40 14z"/>
<path d="M8400 7920 c0 -11 5 -20 10 -20 6 0 10 9 10 20 0 11 -4 20 -10 20 -5 0 -10 -9 -10 -20z"/>
<path d="M8825 7930 c-3 -5 1 -10 9 -10 9 0 16 5 16 10 0 6 -4 10 -9 10 -6 0 -13 -4 -16 -10z"/>
<path d="M8670 7890 c0 -5 9 -10 21 -10 11 0 17 5 14 10 -3 6 -13 10 -21 10 -8 0 -14 -4 -14 -10z"/>
<path d="M9980 7845 c0 -25 5 -45 10 -45 6 0 10 20 10 45 0 25 -4 45 -10 45 -5 0 -10 -20 -10 -45z"/>
<path d="M8580 7850 c0 -5 5 -10 10 -10 6 0 10 5 10 10 0 6 -4 10 -10 10 -5 0 -10 -4 -10 -10z"/>
<path d="M9000 7840 c0 -11 5 -20 10 -20 6 0 10 9 10 20 0 11 -4 20 -10 20 -5 0 -10 -9 -10 -20z"/>
<path d="M9040 7720 c0 -11 5 -20 10 -20 6 0 10 9 10 20 0 11 -4 20 -10 20 -5 0 -10 -9 -10 -20z"/>
<path d="M10020 7656 c0 -19 5 -38 10 -41 6 -4 10 8 10 29 0 19 -4 38 -10 41 -6 4 -10 -8 -10 -29z"/>
<path d="M9080 7600 c0 -11 5 -20 10 -20 6 0 10 9 10 20 0 11 -4 20 -10 20 -5 0 -10 -9 -10 -20z"/>
<path d="M9120 7480 c0 -11 5 -20 10 -20 6 0 10 9 10 20 0 11 -4 20 -10 20 -5 0 -10 -9 -10 -20z"/>
<path d="M10060 7455 c0 -19 5 -35 10 -35 6 0 10 16 10 35 0 19 -4 35 -10 35 -5 0 -10 -16 -10 -35z"/>
<path d="M9160 7360 c0 -11 5 -20 10 -20 6 0 10 9 10 20 0 11 -4 20 -10 20 -5 0 -10 -9 -10 -20z"/>
<path d="M10100 7266 c0 -19 5 -38 10 -41 6 -4 10 10 10 34 0 23 -4 41 -10 41 -5 0 -10 -15 -10 -34z"/>
<path d="M9200 7235 c0 -8 5 -15 10 -15 6 0 10 7 10 15 0 8 -4 15 -10 15 -5 0 -10 -7 -10 -15z"/>
<path d="M10140 7081 c0 -22 5 -43 10 -46 6 -4 10 12 10 39 0 25 -4 46 -10 46 -5 0 -10 -18 -10 -39z"/>
<path d="M9240 7096 c0 -8 5 -18 10 -21 6 -3 10 3 10 14 0 12 -4 21 -10 21 -5 0 -10 -6 -10 -14z"/>
<path d="M9280 6971 c0 -11 5 -23 10 -26 6 -3 10 3 10 14 0 11 -4 23 -10 26 -5 3 -10 -3 -10 -14z"/>
<path d="M10180 6896 c0 -19 5 -38 10 -41 6 -4 10 8 10 29 0 19 -4 38 -10 41 -6 4 -10 -8 -10 -29z"/>
<path d="M9320 6840 c0 -11 5 -20 10 -20 6 0 10 9 10 20 0 11 -4 20 -10 20 -5 0 -10 -9 -10 -20z"/>
<path d="M9360 6720 c0 -11 5 -20 10 -20 6 0 10 9 10 20 0 11 -4 20 -10 20 -5 0 -10 -9 -10 -20z"/>
<path d="M10220 6695 c0 -19 5 -35 10 -35 6 0 10 16 10 35 0 19 -4 35 -10 35 -5 0 -10 -16 -10 -35z"/>
<path d="M9400 6596 c0 -8 5 -18 10 -21 6 -3 10 3 10 14 0 12 -4 21 -10 21 -5 0 -10 -6 -10 -14z"/>
<path d="M10020 6530 c0 -5 7 -10 15 -10 8 0 15 5 15 10 0 6 -7 10 -15 10 -8 0 -15 -4 -15 -10z"/>
<path d="M9855 6490 c-3 -5 3 -10 14 -10 12 0 21 5 21 10 0 6 -6 10 -14 10 -8 0 -18 -4 -21 -10z"/>
<path d="M9440 6445 c0 -14 5 -25 10 -25 6 0 10 11 10 25 0 14 -4 25 -10 25 -5 0 -10 -11 -10 -25z"/>
<path d="M9700 6450 c0 -5 7 -10 15 -10 8 0 15 5 15 10 0 6 -7 10 -15 10 -8 0 -15 -4 -15 -10z"/>
<path d="M9550 6410 c0 -5 7 -10 16 -10 8 0 12 5 9 10 -3 6 -10 10 -16 10 -5 0 -9 -4 -9 -10z"/>
<path d="M7360 8590 c0 -5 9 -10 19 -10 11 0 23 5 26 10 4 6 -5 10 -19 10 -14 0 -26 -4 -26 -10z"/>
<path d="M7220 8550 c0 -5 7 -10 15 -10 8 0 15 5 15 10 0 6 -7 10 -15 10 -8 0 -15 -4 -15 -10z"/>
<path d="M7060 8510 c0 -5 9 -10 20 -10 11 0 20 5 20 10 0 6 -9 10 -20 10 -11 0 -20 -4 -20 -10z"/>
<path d="M6915 8470 c-3 -5 1 -10 9 -10 9 0 16 5 16 10 0 6 -4 10 -9 10 -6 0 -13 -4 -16 -10z"/>
<path d="M6750 8430 c0 -5 9 -10 19 -10 11 0 23 5 26 10 4 6 -5 10 -19 10 -14 0 -26 -4 -26 -10z"/>
<path d="M6615 8390 c3 -5 12 -7 20 -3 21 7 19 13 -6 13 -11 0 -18 -4 -14 -10z"/>
<path d="M6480 8283 c0 -38 5 -75 10 -83 7 -10 10 11 10 68 0 48 -4 82 -10 82 -6 0 -10 -29 -10 -67z"/>
<path d="M6520 7921 c0 -25 6 -27 13 -6 4 8 2 17 -3 20 -6 4 -10 -3 -10 -14z"/>
<path d="M6520 7786 c0 -52 4 -98 10 -101 6 -4 10 28 10 89 0 52 -4 98 -10 101 -6 4 -10 -28 -10 -89z"/>
<path d="M7980 7580 c0 -5 5 -10 10 -10 6 0 10 5 10 10 0 6 -4 10 -10 10 -5 0 -10 -4 -10 -10z"/>
<path d="M8020 7510 c0 -5 5 -10 10 -10 6 0 10 5 10 10 0 6 -4 10 -10 10 -5 0 -10 -4 -10 -10z"/>
<path d="M8060 7430 c0 -5 5 -10 10 -10 6 0 10 5 10 10 0 6 -4 10 -10 10 -5 0 -10 -4 -10 -10z"/>
<path d="M8100 7350 c0 -5 5 -10 10 -10 6 0 10 5 10 10 0 6 -4 10 -10 10 -5 0 -10 -4 -10 -10z"/>
<path d="M6560 7131 c0 -140 4 -212 11 -217 8 -4 10 55 7 206 -1 116 -6 214 -10 216 -5 3 -8 -89 -8 -205z"/>
<path d="M8140 7275 c0 -8 5 -15 10 -15 6 0 10 7 10 15 0 8 -4 15 -10 15 -5 0 -10 -7 -10 -15z"/>
<path d="M7102 6935 c0 -16 2 -22 5 -12 2 9 2 23 0 30 -3 6 -5 -1 -5 -18z"/>
<path d="M7200 6951 c0 -5 7 -12 16 -15 14 -5 15 -4 4 9 -14 17 -20 19 -20 6z"/>
<path d="M7240 6912 c0 -10 22 -32 32 -32 15 0 8 15 -12 28 -11 7 -20 9 -20 4z"/>
<path d="M8340 6900 c0 -5 5 -10 11 -10 5 0 7 5 4 10 -3 6 -8 10 -11 10 -2 0 -4 -4 -4 -10z"/>
<path d="M7160 6857 c0 -7 -6 -83 -14 -168 -8 -85 -17 -211 -20 -281 -5 -119 -4 -128 12 -128 55 0 337 125 348 155 6 15 -117 202 -220 334 -36 46 -66 88 -66 93 0 4 -9 8 -20 8 -11 0 -20 -6 -20 -13z"/>
<path d="M8380 6830 c0 -5 5 -10 10 -10 6 0 10 5 10 10 0 6 -4 10 -10 10 -5 0 -10 -4 -10 -10z"/>
<path d="M7360 6750 c0 -5 5 -10 11 -10 5 0 7 5 4 10 -3 6 -8 10 -11 10 -2 0 -4 -4 -4 -10z"/>
<path d="M8420 6750 c0 -5 5 -10 10 -10 6 0 10 5 10 10 0 6 -4 10 -10 10 -5 0 -10 -4 -10 -10z"/>
<path d="M8460 6676 c0 -9 5 -16 10 -16 6 0 10 4 10 9 0 6 -4 13 -10 16 -5 3 -10 -1 -10 -9z"/>
<path d="M7060 6475 c0 -70 4 -115 10 -115 6 0 10 45 10 115 0 70 -4 115 -10 115 -6 0 -10 -45 -10 -115z"/>
<path d="M8660 6311 c0 -6 5 -13 10 -16 6 -3 10 1 10 9 0 9 -4 16 -10 16 -5 0 -10 -4 -10 -9z"/>
<path d="M7300 6270 c0 -5 6 -10 14 -10 8 0 18 5 21 10 3 6 -3 10 -14 10 -12 0 -21 -4 -21 -10z"/>
<path d="M8700 6240 c0 -5 5 -10 10 -10 6 0 10 5 10 10 0 6 -4 10 -10 10 -5 0 -10 -4 -10 -10z"/>
<path d="M7190 6230 c0 -5 7 -10 15 -10 8 0 15 5 15 10 0 6 -7 10 -15 10 -8 0 -15 -4 -15 -10z"/>
<path d="M8615 6130 c-4 -6 5 -10 19 -10 14 0 26 5 26 10 0 6 -9 10 -19 10 -11 0 -23 -4 -26 -10z"/>
<path d="M8450 6090 c0 -5 11 -10 25 -10 14 0 25 5 25 10 0 6 -11 10 -25 10 -14 0 -25 -4 -25 -10z"/>
<path d="M8295 6050 c-4 -6 5 -10 20 -10 15 0 24 4 20 10 -3 6 -12 10 -20 10 -8 0 -17 -4 -20 -10z"/>
<path d="M8140 6010 c0 -5 9 -10 21 -10 11 0 17 5 14 10 -3 6 -13 10 -21 10 -8 0 -14 -4 -14 -10z"/>
<path d="M6600 5961 c0 -25 6 -27 13 -6 4 8 2 17 -3 20 -6 4 -10 -3 -10 -14z"/>
<path d="M7990 5970 c0 -5 14 -10 30 -10 17 0 30 5 30 10 0 6 -13 10 -30 10 -16 0 -30 -4 -30 -10z"/>
<path d="M6600 5812 c0 -68 4 -121 8 -118 12 7 14 208 2 226 -7 10 -10 -24 -10 -108z"/>
<path d="M7240 5914 c0 -13 48 -59 55 -52 3 2 -9 17 -25 33 -17 16 -30 24 -30 19z"/>
<path d="M6940 5690 c0 -5 7 -10 15 -10 8 0 15 5 15 10 0 6 -7 10 -15 10 -8 0 -15 -4 -15 -10z"/>
<path d="M6780 5650 c0 -5 7 -10 15 -10 8 0 15 5 15 10 0 6 -7 10 -15 10 -8 0 -15 -4 -15 -10z"/>
<path d="M6655 5610 c-3 -5 3 -10 14 -10 12 0 21 5 21 10 0 6 -6 10 -14 10 -8 0 -18 -4 -21 -10z"/>
<path d="M5760 8190 c0 -5 14 -10 31 -10 17 0 28 4 24 10 -3 6 -17 10 -31 10 -13 0 -24 -4 -24 -10z"/>
<path d="M5620 8150 c0 -5 6 -10 14 -10 8 0 18 5 21 10 3 6 -3 10 -14 10 -12 0 -21 -4 -21 -10z"/>
<path d="M5820 8141 c0 -25 6 -27 13 -6 4 8 2 17 -3 20 -6 4 -10 -3 -10 -14z"/>
<path d="M5460 8110 c0 -5 9 -10 20 -10 11 0 20 5 20 10 0 6 -9 10 -20 10 -11 0 -20 -4 -20 -10z"/>
<path d="M5320 8070 c0 -5 5 -10 10 -10 6 0 10 5 10 10 0 6 -4 10 -10 10 -5 0 -10 -4 -10 -10z"/>
<path d="M4550 7870 c0 -5 9 -10 20 -10 11 0 20 5 20 10 0 6 -9 10 -20 10 -11 0 -20 -4 -20 -10z"/>
<path d="M4740 7870 c0 -5 5 -10 11 -10 5 0 7 5 4 10 -3 6 -8 10 -11 10 -2 0 -4 -4 -4 -10z"/>
<path d="M4400 7830 c0 -5 6 -10 14 -10 8 0 18 5 21 10 3 6 -3 10 -14 10 -12 0 -21 -4 -21 -10z"/>
<path d="M4780 7796 c0 -9 5 -16 10 -16 6 0 10 4 10 9 0 6 -4 13 -10 16 -5 3 -10 -1 -10 -9z"/>
<path d="M4265 7790 c4 -6 11 -8 16 -5 14 9 11 15 -7 15 -8 0 -12 -5 -9 -10z"/>
<path d="M4108 7748 c9 -9 15 -9 24 0 9 9 7 12 -12 12 -19 0 -21 -3 -12 -12z"/>
<path d="M5788 7734 c-5 -4 -8 -46 -8 -93 1 -63 3 -81 11 -69 11 20 8 174 -3 162z"/>
<path d="M3950 7710 c0 -5 7 -10 15 -10 8 0 15 5 15 10 0 6 -7 10 -15 10 -8 0 -15 -4 -15 -10z"/>
<path d="M5321 7348 c0 -194 4 -375 9 -403 4 -29 8 118 8 348 0 221 -4 400 -9 403 -5 3 -9 -144 -8 -348z"/>
<path d="M3790 7670 c0 -5 9 -10 19 -10 11 0 23 5 26 10 4 6 -5 10 -19 10 -14 0 -26 -4 -26 -10z"/>
<path d="M3350 7550 c0 -5 7 -10 15 -10 8 0 15 5 15 10 0 6 -7 10 -15 10 -8 0 -15 -4 -15 -10z"/>
<path d="M4900 7515 c0 -8 5 -15 10 -15 6 0 10 7 10 15 0 8 -4 15 -10 15 -5 0 -10 -7 -10 -15z"/>
<path d="M3190 7510 c0 -5 9 -10 20 -10 11 0 20 5 20 10 0 6 -9 10 -20 10 -11 0 -20 -4 -20 -10z"/>
<path d="M3035 7470 c-3 -5 3 -10 14 -10 11 0 23 5 26 10 3 6 -3 10 -14 10 -11 0 -23 -4 -26 -10z"/>
<path d="M4940 7435 c0 -8 5 -15 10 -15 6 0 10 7 10 15 0 8 -4 15 -10 15 -5 0 -10 -7 -10 -15z"/>
<path d="M2908 7433 c7 -3 16 -2 19 1 4 3 -2 6 -13 5 -11 0 -14 -3 -6 -6z"/>
<path d="M2745 7390 c3 -5 13 -10 21 -10 8 0 14 5 14 10 0 6 -9 10 -21 10 -11 0 -17 -4 -14 -10z"/>
<path d="M2590 7350 c0 -5 7 -10 15 -10 8 0 15 5 15 10 0 6 -7 10 -15 10 -8 0 -15 -4 -15 -10z"/>
<path d="M4980 7350 c0 -5 5 -10 10 -10 6 0 10 5 10 10 0 6 -4 10 -10 10 -5 0 -10 -4 -10 -10z"/>
<path d="M2430 7310 c0 -5 9 -10 19 -10 11 0 23 5 26 10 4 6 -5 10 -19 10 -14 0 -26 -4 -26 -10z"/>
<path d="M3540 7270 c0 -5 5 -10 10 -10 6 0 10 5 10 10 0 6 -4 10 -10 10 -5 0 -10 -4 -10 -10z"/>
<path d="M5020 7270 c0 -5 5 -10 10 -10 6 0 10 5 10 10 0 6 -4 10 -10 10 -5 0 -10 -4 -10 -10z"/>
<path d="M5745 7251 c-3 -5 -1 -12 5 -16 5 -3 10 1 10 9 0 18 -6 21 -15 7z"/>
<path d="M3580 7190 c0 -5 5 -10 10 -10 6 0 10 5 10 10 0 6 -4 10 -10 10 -5 0 -10 -4 -10 -10z"/>
<path d="M2360 7146 c0 -2 7 -7 16 -10 8 -3 12 -2 9 4 -6 10 -25 14 -25 6z"/>
<path d="M5748 7134 c-5 -4 -8 -48 -8 -98 0 -62 3 -87 10 -80 7 7 10 47 8 98 -2 48 -6 84 -10 80z"/>
<path d="M4040 7110 c0 -5 5 -10 11 -10 5 0 7 5 4 10 -3 6 -8 10 -11 10 -2 0 -4 -4 -4 -10z"/>
<path d="M2460 7013 c0 -13 29 -38 35 -31 3 3 -4 13 -15 23 -11 10 -20 13 -20 8z"/>
<path d="M3700 6980 c0 -5 5 -10 11 -10 5 0 7 5 4 10 -3 6 -8 10 -11 10 -2 0 -4 -4 -4 -10z"/>
<path d="M3740 6910 c0 -5 5 -10 11 -10 5 0 7 5 4 10 -3 6 -8 10 -11 10 -2 0 -4 -4 -4 -10z"/>
<path d="M5180 6909 c0 -5 5 -7 10 -4 6 3 10 8 10 11 0 2 -4 4 -10 4 -5 0 -10 -5 -10 -11z"/>
<path d="M2540 6893 c0 -13 29 -38 35 -31 3 3 -4 13 -15 23 -11 10 -20 13 -20 8z"/>
<path d="M5331 6874 c0 -11 3 -14 6 -6 3 7 2 16 -1 19 -3 4 -6 -2 -5 -13z"/>
<path d="M5220 6830 c0 -5 5 -10 10 -10 6 0 10 5 10 10 0 6 -4 10 -10 10 -5 0 -10 -4 -10 -10z"/>
<path d="M5330 6789 c0 -5 5 -7 10 -4 6 3 10 8 10 11 0 2 -4 4 -10 4 -5 0 -10 -5 -10 -11z"/>
<path d="M2632 6760 c7 -11 17 -20 22 -20 5 0 1 9 -9 20 -10 11 -20 20 -22 20 -2 0 2 -9 9 -20z"/>
<path d="M2716 6635 c4 -8 11 -15 16 -15 6 0 5 6 -2 15 -7 8 -14 15 -16 15 -2 0 -1 -7 2 -15z"/>
<path d="M5705 6531 c-3 -5 -1 -12 5 -16 5 -3 10 1 10 9 0 18 -6 21 -15 7z"/>
<path d="M2796 6515 c4 -8 11 -15 16 -15 6 0 5 6 -2 15 -7 8 -14 15 -16 15 -2 0 -1 -7 2 -15z"/>
<path d="M3980 6500 c0 -5 5 -10 11 -10 5 0 7 5 4 10 -3 6 -8 10 -11 10 -2 0 -4 -4 -4 -10z"/>
<path d="M5704 6459 c-3 -6 -1 -16 5 -22 8 -8 11 -5 11 11 0 24 -5 28 -16 11z"/>
<path d="M4420 6446 c0 -8 5 -18 10 -21 6 -3 10 3 10 14 0 12 -4 21 -10 21 -5 0 -10 -6 -10 -14z"/>
<path d="M4020 6436 c0 -9 5 -16 10 -16 6 0 10 4 10 9 0 6 -4 13 -10 16 -5 3 -10 -1 -10 -9z"/>
<path d="M2876 6395 c4 -8 11 -15 16 -15 6 0 5 6 -2 15 -7 8 -14 15 -16 15 -2 0 -1 -7 2 -15z"/>
<path d="M4420 6374 c0 -14 4 -23 10 -19 6 3 10 15 10 26 0 10 -4 19 -10 19 -5 0 -10 -12 -10 -26z"/>
<path d="M4070 6373 c0 -5 4 -15 10 -23 11 -18 25 -7 17 15 -6 15 -27 21 -27 8z"/>
<path d="M5707 6283 c-11 -11 -8 -323 3 -323 6 0 10 62 10 165 0 91 -1 165 -3 165 -2 0 -7 -3 -10 -7z"/>
<path d="M3157 5954 c3 -7 9 -14 14 -14 14 0 10 17 -5 23 -10 4 -13 1 -9 -9z"/>
<path d="M4725 5940 c3 -5 8 -10 11 -10 2 0 4 5 4 10 0 6 -5 10 -11 10 -5 0 -7 -4 -4 -10z"/>
<path d="M3280 5750 c0 -5 5 -10 11 -10 5 0 7 5 4 10 -3 6 -8 10 -11 10 -2 0 -4 -4 -4 -10z"/>
<path d="M4392 5670 c0 -19 2 -27 5 -17 2 9 2 25 0 35 -3 9 -5 1 -5 -18z"/>
<path d="M4388 5484 c-5 -4 -8 -82 -8 -173 0 -113 3 -162 10 -155 7 7 9 72 8 173 -2 90 -6 159 -10 155z"/>
<path d="M5495 5330 c-3 -5 3 -10 14 -10 12 0 21 5 21 10 0 6 -6 10 -14 10 -8 0 -18 -4 -21 -10z"/>
<path d="M5340 5290 c0 -5 7 -10 15 -10 8 0 15 5 15 10 0 6 -7 10 -15 10 -8 0 -15 -4 -15 -10z"/>
<path d="M5185 5250 c-3 -5 1 -10 9 -10 9 0 16 5 16 10 0 6 -4 10 -9 10 -6 0 -13 -4 -16 -10z"/>
<path d="M4280 5010 c-12 -8 -10 -10 8 -10 13 0 20 4 17 10 -7 12 -6 12 -25 0z"/>
<path d="M4135 4970 c-3 -5 3 -10 14 -10 12 0 21 5 21 10 0 6 -6 10 -14 10 -8 0 -18 -4 -21 -10z"/>
<path d="M3760 4950 c0 -5 5 -10 10 -10 6 0 10 5 10 10 0 6 -4 10 -10 10 -5 0 -10 -4 -10 -10z"/>
<path d="M3975 4930 c-3 -5 3 -10 14 -10 12 0 21 5 21 10 0 6 -6 10 -14 10 -8 0 -18 -4 -21 -10z"/>
<path d="M3820 4890 c0 -5 9 -10 21 -10 11 0 17 5 14 10 -3 6 -13 10 -21 10 -8 0 -14 -4 -14 -10z"/>
<path d="M1875 7190 c-4 -6 28 -10 89 -10 57 0 96 4 96 10 0 6 -36 10 -89 10 -50 0 -93 -4 -96 -10z"/>
<path d="M1600 7150 c0 -12 24 -12 60 0 21 7 19 8 -17 9 -24 1 -43 -3 -43 -9z"/>
<path d="M1465 7110 c4 -6 11 -8 16 -5 14 9 11 15 -7 15 -8 0 -12 -5 -9 -10z"/>
<path d="M2100 7080 c0 -11 5 -20 10 -20 6 0 10 9 10 20 0 11 -4 20 -10 20 -5 0 -10 -9 -10 -20z"/>
<path d="M1350 7070 c0 -5 5 -10 10 -10 6 0 10 5 10 10 0 6 -4 10 -10 10 -5 0 -10 -4 -10 -10z"/>
<path d="M2140 6955 c0 -8 5 -15 10 -15 6 0 10 7 10 15 0 8 -4 15 -10 15 -5 0 -10 -7 -10 -15z"/>
<path d="M2180 6826 c0 -8 5 -18 10 -21 6 -3 10 3 10 14 0 12 -4 21 -10 21 -5 0 -10 -6 -10 -14z"/>
<path d="M2225 6690 c-3 -5 -1 -10 4 -10 6 0 11 5 11 10 0 6 -2 10 -4 10 -3 0 -8 -4 -11 -10z"/>
<path d="M2260 6560 c0 -11 5 -20 10 -20 6 0 10 9 10 20 0 11 -4 20 -10 20 -5 0 -10 -9 -10 -20z"/>
<path d="M680 6444 c0 -14 4 -23 10 -19 6 3 10 15 10 26 0 10 -4 19 -10 19 -5 0 -10 -12 -10 -26z"/>
<path d="M2300 6440 c0 -11 5 -20 10 -20 6 0 10 9 10 20 0 11 -4 20 -10 20 -5 0 -10 -9 -10 -20z"/>
<path d="M2340 6321 c0 -6 5 -13 10 -16 6 -3 10 1 10 9 0 9 -4 16 -10 16 -5 0 -10 -4 -10 -9z"/>
<path d="M2375 6200 c-3 -5 -1 -10 4 -10 6 0 11 5 11 10 0 6 -2 10 -4 10 -3 0 -8 -4 -11 -10z"/>
<path d="M680 6146 c0 -20 5 -36 10 -36 6 0 10 13 10 29 0 17 -4 33 -10 36 -6 4 -10 -8 -10 -29z"/>
<path d="M2250 6170 c0 -5 20 -10 44 -10 25 0 48 5 51 10 4 6 -13 10 -44 10 -28 0 -51 -4 -51 -10z"/>
<path d="M2140 6129 c0 -5 5 -7 10 -4 6 3 10 8 10 11 0 2 -4 4 -10 4 -5 0 -10 -5 -10 -11z"/>
<path d="M2085 6090 c-3 -5 -1 -10 4 -10 6 0 11 5 11 10 0 6 -2 10 -4 10 -3 0 -8 -4 -11 -10z"/>
<path d="M2020 5970 c0 -5 5 -10 10 -10 6 0 10 5 10 10 0 6 -4 10 -10 10 -5 0 -10 -4 -10 -10z"/>
<path d="M800 5830 c0 -5 5 -10 11 -10 5 0 7 5 4 10 -3 6 -8 10 -11 10 -2 0 -4 -4 -4 -10z"/>
<path d="M2020 5830 c0 -5 5 -10 10 -10 6 0 10 5 10 10 0 6 -4 10 -10 10 -5 0 -10 -4 -10 -10z"/>
<path d="M2065 5730 c3 -5 8 -10 11 -10 2 0 4 5 4 10 0 6 -5 10 -11 10 -5 0 -7 -4 -4 -10z"/>
<path d="M1060 5573 c0 -5 11 -20 25 -33 14 -13 25 -19 25 -13 0 5 -11 20 -25 33 -14 13 -25 19 -25 13z"/>
<path d="M1560 5290 c0 -5 5 -10 10 -10 6 0 10 5 10 10 0 6 -4 10 -10 10 -5 0 -10 -4 -10 -10z"/>
<path d="M2500 5200 c0 -11 5 -20 10 -20 6 0 10 9 10 20 0 11 -4 20 -10 20 -5 0 -10 -9 -10 -20z"/>
<path d="M2540 4985 c0 -68 4 -104 10 -100 6 3 10 48 10 100 0 52 -4 97 -10 100 -6 4 -10 -32 -10 -100z"/>
<path d="M1800 4940 c0 -47 4 -80 10 -80 6 0 10 33 10 80 0 47 -4 80 -10 80 -6 0 -10 -33 -10 -80z"/>
<path d="M2500 4780 c0 -5 5 -10 10 -10 6 0 10 5 10 10 0 6 -4 10 -10 10 -5 0 -10 -4 -10 -10z"/>
<path d="M1540 4710 c0 -5 9 -10 20 -10 11 0 20 5 20 10 0 6 -9 10 -20 10 -11 0 -20 -4 -20 -10z"/>
<path d="M1370 4679 c0 -5 5 -7 10 -4 6 3 10 8 10 11 0 2 -4 4 -10 4 -5 0 -10 -5 -10 -11z"/>
<path d="M1400 4611 c0 -6 5 -13 10 -16 6 -3 10 1 10 9 0 9 -4 16 -10 16 -5 0 -10 -4 -10 -9z"/>
<path d="M2379 4573 c-13 -16 -12 -17 4 -4 9 7 17 15 17 17 0 8 -8 3 -21 -13z"/>
<path d="M1440 4540 c0 -5 5 -10 10 -10 6 0 10 5 10 10 0 6 -4 10 -10 10 -5 0 -10 -4 -10 -10z"/>
<path d="M2336 4534 c-5 -14 -4 -15 9 -4 17 14 19 20 6 20 -5 0 -12 -7 -15 -16z"/>
<path d="M2060 4370 c0 -5 7 -10 15 -10 8 0 15 5 15 10 0 6 -7 10 -15 10 -8 0 -15 -4 -15 -10z"/>
<path d="M1910 4330 c0 -5 14 -10 30 -10 17 0 30 5 30 10 0 6 -13 10 -30 10 -16 0 -30 -4 -30 -10z"/>
<path d="M1560 4290 c0 -5 5 -10 10 -10 6 0 10 5 10 10 0 6 -4 10 -10 10 -5 0 -10 -4 -10 -10z"/>
<path d="M1715 4290 c-4 -6 13 -10 44 -10 28 0 51 5 51 10 0 6 -20 10 -44 10 -25 0 -48 -4 -51 -10z"/>
<path d="M5245 3879 c-20 -31 -17 -199 3 -199 4 0 30 15 57 33 82 53 88 121 13 157 -47 23 -64 25 -73 9z"/>
<path d="M8006 3905 c-27 -28 -17 -105 14 -105 26 0 59 32 62 59 2 18 -5 29 -28 43 -29 17 -33 17 -48 3z"/>
<path d="M8001 3756 c-15 -18 -4 -103 14 -110 7 -2 25 9 41 25 l28 29 -17 35 c-18 37 -46 46 -66 21z"/>
<path d="M3584 3112 c-56 -47 -19 -102 50 -76 21 8 20 44 -3 72 -23 26 -21 26 -47 4z"/>
<path d="M4052 3161 c-27 -17 -28 -201 -1 -201 23 0 77 52 94 90 l18 41 -38 39 c-40 41 -51 46 -73 31z"/>
<path d="M4907 3045 l-16 -35 19 -10 c27 -15 70 -12 76 4 6 17 -34 76 -51 76 -6 0 -19 -16 -28 -35z"/>
<path d="M9192 3055 c-22 -49 -11 -65 44 -65 35 0 40 23 13 59 -28 38 -42 39 -57 6z"/>
</g>
</g>
  <g id="id1:id1" transform="matrix(1.25,0,0,1.25,0.0,0.0)"><g transform="translate(0.000000,473.600000) scale(0.040000,-0.040000)" fill="#ee2424" stroke="none">
<path d="M10140 9349 c-14 -4 -68 -20 -120 -33 -52 -14 -153 -40 -225 -60 -164 -44 -398 -105 -450 -117 -22 -5 -69 -18 -105 -28 -36 -10 -85 -24 -110 -30 -59 -15 -294 -77 -495 -131 -88 -23 -185 -48 -216 -55 -30 -7 -64 -17 -75 -23 -10 -5 -39 -13 -64 -17 -71 -11 -130 -40 -130 -64 0 -20 32 -133 85 -301 15 -47 31 -102 36 -124 5 -21 14 -47 20 -57 5 -10 13 -38 18 -61 5 -24 14 -56 20 -73 30 -83 101 -320 101 -337 0 -10 7 -21 15 -25 19 -7 97 14 145 38 19 10 73 29 120 43 47 14 99 29 115 35 111 38 130 41 142 25 11 -16 256 -753 266 -804 6 -27 30 -103 52 -160 7 -19 23 -69 35 -110 12 -41 36 -118 53 -170 16 -52 37 -124 47 -160 9 -36 22 -75 28 -87 7 -12 12 -31 12 -42 0 -27 40 -37 79 -21 16 6 55 18 87 25 85 20 210 52 274 70 30 8 63 15 73 15 10 0 28 6 40 13 12 8 68 25 125 38 90 21 104 27 109 47 3 13 1 33 -4 45 -6 12 -16 54 -22 92 -7 39 -17 86 -22 105 -15 55 -100 461 -106 505 -3 22 -12 60 -20 85 -8 24 -18 72 -23 105 -5 33 -33 177 -63 320 -30 143 -57 282 -59 308 -7 57 -7 57 128 82 49 9 99 21 112 26 12 5 66 14 120 19 53 6 108 13 121 16 l24 5 -6 67 c-3 37 -13 94 -22 127 -9 33 -23 94 -30 135 -8 41 -24 116 -35 165 -12 50 -30 135 -40 190 -11 55 -26 122 -35 149 -8 27 -15 68 -15 92 0 24 -5 46 -10 49 -6 4 -9 19 -8 33 3 24 0 27 -32 29 -19 1 -46 -3 -60 -8z"/>
<path d="M7419 8600 c-8 -5 -47 -16 -85 -24 -81 -18 -163 -40 -254 -65 -36 -10 -85 -24 -110 -30 -25 -7 -112 -30 -195 -52 -82 -21 -180 -46 -217 -55 l-68 -16 0 -39 c0 -62 30 -461 36 -470 5 -8 7 -47 24 -409 7 -129 13 -237 15 -241 5 -8 16 -447 20 -804 4 -389 16 -778 24 -788 4 -4 77 11 162 32 221 57 261 69 272 80 7 7 10 79 8 200 -1 104 1 191 6 194 10 6 178 -180 233 -256 19 -27 47 -55 61 -63 l27 -13 42 66 c70 108 274 304 300 288 12 -8 95 -133 112 -169 14 -31 45 -34 133 -10 84 22 317 82 400 103 39 10 79 22 90 28 11 6 45 13 75 17 30 4 69 13 85 20 17 8 49 19 73 26 61 16 60 20 -39 199 -14 25 -50 93 -79 151 -30 58 -59 112 -66 120 -8 9 -29 46 -48 83 -19 36 -59 111 -87 164 -29 54 -73 139 -99 188 -26 50 -64 119 -84 155 -21 36 -44 79 -52 95 -8 17 -70 138 -139 270 -68 132 -213 418 -322 637 -206 412 -208 415 -254 388z m-154 -1719 c28 -36 70 -90 93 -120 34 -42 139 -194 227 -327 8 -12 3 -21 -20 -39 -37 -31 -191 -106 -275 -136 -36 -12 -69 -25 -75 -29 -5 -4 -26 -10 -45 -14 -19 -3 -47 -12 -62 -20 -47 -25 -51 -8 -44 191 4 98 11 212 17 253 5 41 13 136 19 211 5 74 14 148 20 163 l10 28 43 -47 c23 -26 65 -78 92 -114z"/>
<path d="M5798 8194 c-4 -3 -32 -12 -65 -19 -53 -13 -102 -25 -278 -70 -33 -8 -71 -17 -85 -20 -14 -2 -36 -14 -49 -26 l-24 -22 7 -91 c3 -50 8 -230 11 -401 3 -170 8 -332 11 -360 10 -102 4 -400 -9 -412 -28 -27 -50 -19 -74 27 -29 57 -93 199 -93 206 0 3 -22 51 -49 108 -27 56 -74 156 -105 222 -31 65 -63 132 -71 147 -8 16 -15 33 -15 39 0 5 -23 58 -51 117 -66 138 -74 156 -99 215 l-20 49 -62 -7 c-34 -4 -70 -12 -80 -17 -16 -9 -263 -75 -388 -103 -30 -7 -77 -20 -105 -28 -51 -16 -77 -23 -217 -58 -101 -25 -148 -46 -148 -63 0 -8 9 -26 20 -39 11 -14 25 -36 30 -49 6 -13 19 -37 28 -54 18 -30 28 -47 87 -140 18 -27 38 -62 46 -76 8 -15 33 -60 57 -100 24 -41 47 -82 52 -91 6 -10 15 -26 20 -35 31 -55 32 -71 26 -373 -4 -168 -11 -309 -15 -313 -10 -10 -20 3 -58 73 -42 77 -131 228 -159 270 -13 19 -36 60 -51 90 -15 31 -37 69 -49 85 -32 47 -124 211 -124 222 0 6 -13 28 -30 51 -16 22 -36 56 -45 74 -9 18 -29 58 -46 88 -17 30 -48 89 -69 130 -54 106 -66 115 -132 100 -29 -6 -66 -16 -83 -22 -16 -5 -66 -18 -110 -29 -44 -10 -114 -28 -155 -40 -41 -11 -100 -26 -130 -33 -30 -7 -80 -20 -110 -29 -143 -42 -281 -78 -344 -91 -38 -8 -73 -19 -78 -24 -15 -15 -3 -41 63 -138 72 -106 583 -873 662 -994 31 -47 61 -96 67 -110 6 -14 24 -43 40 -65 17 -22 37 -53 45 -70 8 -16 37 -65 65 -108 27 -43 50 -80 50 -83 0 -2 25 -42 55 -89 31 -47 59 -93 62 -102 4 -10 24 -43 45 -75 21 -31 49 -77 61 -100 13 -24 40 -69 60 -100 21 -32 49 -79 62 -105 14 -26 31 -54 39 -63 7 -8 34 -53 61 -100 27 -47 50 -87 51 -88 2 -4 44 7 239 58 39 10 84 23 100 29 17 5 70 20 119 33 49 13 95 28 103 33 15 11 41 565 49 1045 4 257 12 345 29 345 5 0 14 -13 20 -30 5 -16 16 -34 23 -39 8 -4 21 -22 29 -40 8 -17 25 -49 38 -71 13 -22 38 -67 55 -100 18 -33 51 -94 76 -135 24 -41 60 -106 80 -145 47 -91 64 -121 95 -170 14 -22 36 -60 48 -85 19 -40 41 -81 120 -220 11 -19 25 -46 32 -60 6 -14 17 -36 23 -49 23 -50 43 -53 152 -25 54 14 131 34 169 44 39 10 97 26 130 35 33 10 77 21 98 25 21 4 44 13 50 19 8 8 13 70 14 184 5 363 24 964 33 1012 5 28 9 115 9 195 1 80 8 235 16 345 9 110 18 250 20 310 4 117 22 374 31 439 2 21 7 82 9 135 3 53 8 120 11 149 4 41 2 52 -9 52 -7 0 -16 -3 -19 -6z"/>
<path d="M1883 7184 c-72 -7 -158 -18 -190 -24 -32 -7 -80 -16 -107 -21 -80 -14 -295 -88 -395 -137 -201 -96 -360 -238 -446 -397 -70 -130 -94 -336 -56 -475 12 -41 21 -87 21 -101 0 -15 7 -32 15 -39 8 -7 15 -18 15 -24 0 -16 50 -113 92 -176 46 -71 143 -168 227 -227 36 -25 156 -92 266 -149 110 -56 229 -117 265 -136 137 -71 219 -196 221 -336 2 -102 -40 -153 -171 -207 -76 -31 -94 -35 -177 -35 l-93 0 6 -27 c4 -16 12 -35 19 -43 7 -8 19 -28 27 -45 9 -16 41 -79 72 -139 31 -60 56 -114 56 -121 0 -6 10 -21 23 -33 39 -37 89 -31 362 39 131 34 199 57 240 83 89 57 115 78 188 151 137 139 198 295 182 472 -16 180 -88 300 -318 533 -119 120 -159 168 -180 213 -51 109 -29 224 58 311 37 37 142 76 204 76 39 0 71 16 71 35 0 14 -27 102 -80 265 -35 106 -81 252 -110 350 -12 41 -27 91 -34 110 -31 86 -48 139 -61 190 -13 54 -35 81 -64 79 -9 -1 -75 -7 -148 -15z"/>
</g>
</g>
  <g id="id2:id2" transform="matrix(1.25,0,0,1.25,0.0,0.0)"><g transform="translate(0.000000,473.600000) scale(0.040000,-0.040000)" fill="#242122" stroke="none">
<path d="M4027 11745 c-104 -35 -208 -73 -231 -85 -23 -11 -47 -20 -53 -20 -11 0 -74 -26 -149 -61 -22 -10 -44 -19 -47 -19 -22 0 -374 -172 -522 -255 -218 -122 -263 -150 -435 -264 -151 -100 -256 -176 -504 -365 -188 -145 -664 -605 -836 -810 -170 -202 -353 -442 -466 -611 -77 -115 -300 -483 -313 -517 -5 -14 -14 -29 -20 -32 -5 -3 -12 -19 -16 -35 -3 -16 -12 -35 -20 -41 -8 -6 -17 -24 -20 -40 -3 -16 -12 -34 -20 -40 -7 -6 -16 -23 -20 -38 -4 -15 -12 -34 -20 -42 -7 -8 -16 -26 -20 -40 -4 -14 -13 -32 -19 -40 -7 -8 -37 -76 -66 -150 -29 -74 -57 -142 -62 -150 -16 -30 -138 -380 -138 -399 0 -16 60 -101 72 -101 6 0 30 12 54 28 30 19 47 38 54 62 6 19 16 44 21 55 5 11 15 40 23 65 65 210 254 639 387 878 296 528 613 953 1028 1375 355 361 705 642 1171 939 170 109 477 270 680 359 63 27 122 54 131 59 41 22 311 123 467 175 l174 57 19 45 c10 25 19 49 19 54 0 10 -90 69 -105 68 -5 0 -95 -29 -198 -64z"/>
<path d="M7468 10665 c-73 -40 -32 -109 87 -144 22 -7 49 -16 60 -21 11 -5 52 -21 90 -35 39 -15 91 -38 117 -51 26 -13 53 -24 59 -24 12 0 327 -153 379 -184 14 -8 70 -41 125 -72 133 -77 340 -214 481 -319 160 -120 509 -432 574 -515 l32 -40 -27 -10 c-25 -10 -266 -75 -460 -125 -49 -13 -97 -26 -105 -29 -8 -3 -44 -13 -80 -21 -36 -8 -96 -23 -135 -34 -165 -45 -278 -75 -400 -107 -216 -55 -220 -57 -218 -90 2 -26 32 -133 54 -189 10 -28 54 -168 74 -240 9 -33 37 -125 62 -205 41 -134 60 -196 82 -275 46 -165 79 -248 96 -241 5 3 51 21 100 41 50 20 104 42 120 49 17 7 71 26 120 41 50 15 105 34 123 41 26 11 34 11 37 1 31 -88 184 -554 215 -657 23 -74 46 -144 50 -155 10 -24 48 -147 84 -270 15 -49 44 -144 65 -210 21 -66 49 -154 61 -195 13 -41 27 -79 31 -84 8 -9 36 -3 169 34 146 42 613 164 690 182 58 13 76 29 62 55 -6 11 -22 75 -36 144 -14 68 -39 189 -56 269 -17 80 -37 179 -46 220 -8 41 -37 179 -64 305 -95 449 -133 646 -124 654 5 4 51 18 102 30 75 19 96 21 108 10 17 -14 125 -225 156 -304 10 -27 30 -72 43 -100 68 -145 206 -573 247 -765 6 -25 14 -63 19 -85 5 -22 13 -66 18 -97 5 -32 12 -61 15 -66 6 -10 42 -269 52 -367 29 -307 29 -761 -1 -985 -3 -25 -8 -65 -10 -90 -7 -75 -35 -272 -41 -282 -3 -5 -10 -34 -15 -66 -5 -31 -13 -75 -18 -97 -5 -22 -16 -69 -24 -105 -24 -106 -67 -260 -94 -339 -23 -64 -24 -78 -14 -113 7 -21 19 -42 28 -45 21 -8 84 26 93 52 38 99 114 375 140 510 6 33 16 78 20 100 18 82 39 202 45 260 4 33 10 85 15 115 42 262 42 918 0 1180 -5 30 -11 82 -15 115 -10 92 -64 377 -96 500 -35 137 -40 155 -101 340 -85 262 -126 365 -235 594 -40 84 -73 157 -73 162 0 14 46 29 85 29 59 0 76 35 55 110 -5 19 -19 80 -30 135 -20 93 -48 225 -70 320 -11 45 -42 187 -95 438 -45 211 -49 221 -74 207 -11 -5 -48 -17 -83 -25 -68 -15 -144 -35 -333 -85 -66 -18 -138 -36 -160 -40 l-40 -8 -190 186 c-289 284 -539 481 -887 701 -54 33 -100 61 -104 61 -4 0 -15 6 -23 14 -17 15 -117 69 -267 145 -100 50 -139 68 -234 107 -34 14 -72 31 -84 39 -11 7 -52 24 -91 36 -38 12 -86 30 -105 41 -19 10 -42 18 -51 18 -9 0 -33 7 -52 15 -44 18 -45 18 -79 0z m2747 -1361 c8 -20 15 -46 15 -58 0 -11 10 -57 21 -101 11 -44 27 -114 35 -155 7 -41 23 -115 34 -165 11 -49 29 -133 40 -185 11 -52 24 -111 30 -130 18 -66 27 -160 16 -169 -6 -5 -49 -13 -96 -19 -47 -6 -123 -20 -170 -32 -47 -11 -116 -27 -154 -34 -70 -14 -86 -25 -81 -55 2 -9 9 -50 15 -91 7 -41 19 -104 27 -139 8 -35 18 -85 23 -110 13 -75 40 -213 50 -251 9 -35 30 -137 56 -265 18 -91 47 -226 73 -342 12 -51 21 -102 21 -112 0 -11 4 -30 9 -43 5 -13 14 -54 21 -93 7 -38 17 -85 23 -103 15 -45 3 -54 -118 -87 -55 -14 -140 -37 -190 -51 -49 -13 -112 -29 -140 -35 -27 -5 -70 -16 -95 -24 -102 -31 -168 -47 -184 -44 -12 3 -24 24 -36 64 -10 33 -30 97 -44 143 -14 46 -26 89 -26 96 0 7 -9 35 -19 62 -10 27 -36 103 -56 169 -21 66 -43 134 -50 150 -7 17 -16 46 -20 65 -8 40 -22 86 -136 435 -101 312 -128 385 -143 391 -7 3 -26 -2 -42 -11 -16 -8 -35 -15 -42 -15 -22 0 -264 -80 -307 -100 -22 -11 -58 -21 -80 -23 l-40 -2 -14 45 c-8 25 -22 68 -31 95 -18 50 -78 244 -105 340 -8 28 -36 120 -63 205 -68 214 -78 258 -66 278 11 16 103 46 244 78 36 8 77 19 91 25 15 6 53 16 85 23 33 7 104 25 159 40 55 15 159 43 230 62 72 19 164 44 205 55 41 11 109 29 150 39 100 25 184 47 245 65 28 8 70 19 95 24 25 5 79 19 120 31 111 32 217 60 290 76 35 8 66 17 69 20 16 15 42 0 56 -32z"/>
<path d="M7430 8685 c-25 -7 -169 -45 -320 -85 -151 -39 -304 -80 -340 -90 -36 -10 -90 -24 -120 -31 -30 -7 -81 -21 -112 -31 -32 -10 -68 -18 -80 -18 -53 -1 -61 -26 -47 -155 6 -55 13 -140 15 -190 2 -49 7 -97 10 -105 3 -8 8 -55 10 -105 3 -49 7 -117 10 -150 3 -33 7 -80 8 -105 2 -25 7 -90 11 -145 4 -55 9 -179 11 -275 2 -96 7 -211 10 -255 3 -44 7 -163 9 -265 2 -102 7 -239 10 -305 4 -66 7 -287 8 -492 1 -255 5 -375 13 -383 8 -8 18 -8 35 -1 48 20 353 102 463 125 38 8 73 19 78 24 5 5 11 60 13 122 2 62 8 117 13 122 5 5 54 -46 116 -122 59 -71 111 -130 116 -130 5 0 43 50 86 112 74 107 219 272 235 266 10 -4 74 -95 99 -140 11 -21 27 -38 35 -38 13 0 118 26 320 80 39 11 113 30 165 44 52 14 138 37 190 51 52 14 127 32 165 42 116 27 178 49 189 65 7 12 3 25 -16 50 -14 18 -29 44 -33 58 -4 14 -13 32 -20 40 -7 8 -41 69 -75 135 -87 166 -108 206 -119 219 -5 6 -25 43 -45 81 -20 39 -41 77 -46 85 -4 8 -23 44 -41 80 -17 36 -45 88 -60 115 -105 185 -359 675 -676 1302 -228 452 -207 424 -293 398z m209 -448 c359 -709 407 -803 442 -867 53 -96 128 -235 172 -320 38 -74 61 -117 128 -238 63 -115 107 -196 149 -277 23 -44 61 -116 85 -160 86 -155 105 -194 97 -199 -16 -10 -137 -47 -195 -60 -34 -8 -75 -19 -92 -25 -16 -5 -59 -17 -95 -26 -36 -8 -99 -24 -140 -35 -174 -47 -313 -78 -326 -73 -7 3 -27 28 -44 57 -43 74 -83 127 -102 140 -13 8 -22 5 -41 -14 -13 -14 -49 -47 -81 -74 -51 -43 -172 -179 -218 -246 l-17 -25 -22 25 c-11 14 -53 65 -92 113 -40 49 -91 109 -114 134 -69 75 -67 103 11 124 46 13 154 53 203 75 17 8 38 14 46 14 9 0 18 4 21 9 3 4 38 25 78 45 40 20 84 45 98 56 29 23 36 8 -84 187 -80 119 -188 264 -282 377 -28 33 -57 71 -63 84 -6 12 -19 22 -27 22 -27 0 -42 -62 -49 -200 -4 -74 -11 -151 -16 -170 -16 -56 -32 -453 -20 -494 7 -28 6 -43 -6 -67 -13 -26 -14 -57 -8 -199 5 -112 3 -174 -4 -188 -6 -10 -30 -25 -53 -31 -236 -66 -342 -91 -350 -83 -9 9 -17 264 -23 772 -4 366 -16 726 -29 895 -3 39 -7 129 -10 200 -5 114 -16 271 -31 415 -9 95 -19 278 -20 355 l0 80 65 17 c97 24 364 95 450 119 41 11 109 29 150 39 103 26 158 40 205 55 22 7 49 12 59 11 15 -1 60 -81 195 -349z m-331 -1552 c37 -50 89 -123 116 -163 41 -62 46 -74 35 -88 -18 -22 -180 -99 -251 -119 -64 -18 -83 -13 -73 19 4 11 11 100 16 196 8 177 16 273 25 300 6 18 33 -11 132 -145z"/>
<path d="M5845 8290 c-16 -4 -66 -18 -110 -30 -44 -12 -165 -44 -270 -71 -232 -60 -260 -71 -250 -102 4 -12 8 -56 10 -97 2 -41 7 -118 10 -170 10 -159 12 -791 3 -796 -5 -3 -16 12 -24 33 -21 49 -56 126 -109 238 -100 209 -135 286 -180 390 -26 61 -65 147 -86 191 -22 45 -39 86 -39 91 0 25 -29 35 -72 25 -57 -13 -310 -79 -523 -137 -197 -53 -409 -109 -513 -134 -40 -10 -75 -21 -79 -24 -6 -6 38 -89 127 -237 32 -52 66 -111 77 -130 10 -19 41 -73 68 -119 28 -46 65 -111 83 -145 19 -33 41 -69 50 -80 15 -15 17 -42 16 -178 -1 -93 -5 -163 -11 -169 -7 -7 -21 6 -42 43 -17 29 -36 60 -41 68 -4 8 -30 53 -56 100 -26 47 -52 91 -58 99 -10 12 -29 46 -121 211 -20 36 -56 101 -80 145 -25 44 -48 87 -51 95 -15 33 -118 216 -131 231 -16 20 6 25 -583 -131 -85 -23 -186 -50 -225 -60 -489 -129 -465 -122 -465 -135 0 -5 57 -93 125 -195 359 -530 723 -1082 785 -1190 24 -41 59 -96 77 -122 18 -26 33 -50 33 -54 0 -3 24 -43 53 -90 28 -47 61 -100 72 -119 44 -75 101 -168 115 -190 8 -13 69 -114 135 -224 186 -312 196 -326 225 -325 14 1 86 18 160 38 74 20 213 56 309 81 96 25 179 49 185 55 10 10 12 34 20 420 8 323 26 706 35 749 5 20 74 -90 166 -264 14 -27 37 -68 50 -90 29 -49 87 -153 138 -249 21 -39 51 -93 67 -121 16 -27 43 -76 60 -107 16 -31 34 -59 39 -62 5 -4 12 -19 16 -34 3 -15 17 -39 30 -55 19 -21 29 -25 42 -18 10 5 47 16 83 24 36 9 144 37 240 62 96 26 206 55 243 64 37 10 72 22 78 28 6 6 12 66 14 134 10 330 14 475 19 729 5 232 13 416 31 680 2 25 8 140 14 255 5 116 13 237 17 270 8 64 10 96 18 275 3 63 11 169 17 235 12 124 13 144 25 308 7 108 9 105 -61 87z m-44 -260 c-1 -74 -6 -142 -11 -150 -4 -8 -13 -116 -19 -240 -14 -283 -18 -330 -31 -465 -6 -60 -15 -222 -20 -360 -6 -137 -14 -322 -19 -410 -5 -88 -12 -348 -17 -577 -6 -363 -9 -420 -23 -432 -9 -8 -50 -24 -91 -35 -41 -11 -88 -24 -105 -30 -16 -6 -59 -17 -95 -26 -36 -8 -94 -23 -130 -31 -112 -28 -121 -26 -152 31 -15 28 -32 61 -38 75 -5 14 -14 32 -20 40 -5 8 -17 29 -25 45 -9 17 -27 48 -40 70 -14 22 -36 63 -50 90 -14 28 -41 77 -60 110 -19 33 -42 74 -50 90 -9 17 -28 51 -43 77 -15 26 -40 71 -56 100 -15 29 -34 60 -41 68 -7 8 -16 26 -20 40 -4 14 -12 31 -18 38 -10 13 -22 34 -75 134 -19 34 -42 73 -53 86 -10 14 -19 30 -19 36 -1 6 -14 27 -30 46 -23 26 -33 31 -41 23 -9 -9 -9 -19 1 -42 7 -17 8 -35 3 -43 -4 -7 -11 -141 -15 -298 -4 -157 -11 -382 -17 -500 -5 -118 -12 -286 -14 -372 -3 -86 -8 -161 -11 -166 -6 -9 -92 -39 -181 -61 -22 -6 -74 -19 -115 -30 -222 -58 -234 -60 -247 -49 -11 9 -64 91 -98 151 -42 75 -326 542 -352 579 -18 26 -33 50 -33 54 0 3 -23 42 -51 87 -28 45 -56 91 -62 102 -6 11 -30 49 -53 85 -22 36 -62 99 -88 140 -25 41 -52 84 -59 94 -10 17 -550 826 -654 981 -18 28 -32 56 -31 64 2 8 42 23 98 38 52 13 118 31 145 38 123 34 214 57 266 70 31 7 72 18 90 24 40 13 280 76 360 95 31 7 60 16 66 19 17 11 60 -45 116 -153 30 -58 77 -144 106 -192 28 -48 56 -99 61 -113 6 -15 26 -51 45 -80 19 -28 35 -57 35 -62 0 -6 6 -15 13 -21 6 -6 27 -39 45 -74 37 -68 56 -102 117 -204 22 -36 46 -78 54 -93 7 -14 29 -49 47 -78 19 -28 34 -55 34 -60 0 -15 58 -73 73 -73 12 0 15 26 16 138 2 75 4 223 5 327 3 194 2 202 -37 267 -12 20 -36 61 -53 90 -38 66 -122 208 -149 253 -57 95 -85 146 -85 153 0 5 -9 17 -20 27 -26 24 -25 43 3 55 31 14 305 88 423 116 34 7 75 19 90 25 16 5 56 16 89 24 33 7 94 23 135 35 175 48 183 50 206 35 12 -8 24 -25 28 -39 4 -15 23 -61 42 -104 53 -112 68 -147 112 -247 22 -49 60 -133 85 -185 24 -52 47 -102 50 -110 4 -8 11 -22 16 -30 13 -20 57 -115 130 -280 55 -125 62 -135 89 -138 17 -2 38 5 51 15 l23 18 -11 475 c-6 261 -12 547 -13 635 l-3 159 25 13 c25 12 91 30 220 59 36 8 83 21 105 29 46 16 81 23 110 21 l19 -1 -3 -135z"/>
<path d="M1190 7533 c-14 -9 -28 -22 -32 -27 -9 -13 -78 -227 -89 -276 -4 -19 -16 -66 -27 -105 -10 -38 -22 -82 -26 -98 -4 -18 -28 -43 -76 -78 -176 -128 -315 -343 -334 -519 -16 -135 -9 -262 19 -375 44 -175 107 -292 227 -424 53 -58 58 -68 58 -110 0 -25 5 -77 10 -116 26 -204 42 -309 59 -395 10 -52 26 -133 36 -180 23 -119 65 -267 129 -460 69 -209 106 -312 116 -325 4 -5 20 -43 34 -84 15 -41 33 -86 41 -100 7 -14 44 -89 81 -166 37 -77 87 -171 110 -210 23 -38 51 -88 63 -110 26 -50 22 -43 158 -250 401 -609 973 -1150 1608 -1521 44 -26 91 -54 105 -63 59 -40 366 -192 465 -230 28 -11 120 -47 205 -80 189 -75 239 -79 269 -24 10 19 7 27 -19 57 -24 27 -49 40 -118 61 -48 15 -105 36 -127 47 -22 11 -76 33 -119 49 -43 16 -91 36 -105 43 -14 8 -93 47 -176 87 -442 214 -887 533 -1255 900 -397 395 -680 786 -929 1284 -117 234 -151 310 -207 470 -150 424 -231 747 -273 1100 -19 151 -18 182 4 152 6 -9 121 -71 256 -138 246 -123 326 -175 356 -233 56 -105 59 -191 7 -234 -67 -55 -133 -72 -304 -78 -154 -5 -181 -15 -143 -56 12 -13 36 -51 55 -86 18 -35 46 -86 61 -115 16 -29 49 -92 74 -142 24 -49 49 -97 54 -105 5 -8 14 -26 20 -40 15 -36 22 -38 112 -34 136 6 404 61 482 99 17 8 56 25 88 39 59 26 152 91 221 155 44 42 125 158 154 222 30 65 62 205 62 269 0 129 -59 308 -142 428 -17 24 -104 120 -195 213 -212 219 -227 251 -172 361 19 36 65 78 104 93 26 9 170 27 212 26 54 -2 60 30 22 124 -4 11 -14 40 -20 65 -7 25 -16 50 -19 55 -4 6 -10 24 -14 40 -12 51 -138 458 -152 490 -7 17 -17 49 -23 70 -14 55 -77 264 -90 298 -6 15 -17 30 -24 33 -12 4 -182 -7 -327 -21 -55 -6 -233 -40 -315 -61 -82 -22 -255 -82 -271 -94 -34 -29 -19 60 46 258 36 111 37 124 8 162 -25 35 -34 36 -68 13z m885 -408 c6 -27 19 -67 28 -87 9 -21 17 -45 17 -54 0 -9 6 -30 14 -47 8 -18 26 -75 41 -127 15 -52 33 -111 40 -130 8 -19 17 -46 20 -60 10 -40 96 -313 106 -335 5 -11 10 -36 11 -55 l3 -35 -50 -6 c-106 -14 -195 -55 -237 -112 -76 -101 -88 -190 -41 -293 21 -46 60 -93 183 -219 269 -275 330 -395 317 -627 -5 -93 -9 -108 -47 -185 -50 -100 -116 -182 -201 -249 -122 -96 -212 -133 -429 -179 -69 -14 -139 -30 -156 -34 -17 -5 -49 -5 -70 -2 -30 5 -42 13 -53 36 -8 17 -18 37 -23 45 -4 8 -13 26 -19 40 -6 14 -15 32 -20 40 -5 8 -14 26 -20 40 -6 14 -15 32 -20 40 -35 59 -69 132 -65 139 3 4 43 11 88 14 47 3 96 12 113 21 17 9 36 16 43 16 21 0 94 46 124 77 37 38 58 93 58 148 0 127 -96 276 -216 336 -37 18 -81 43 -99 55 -18 12 -44 25 -56 29 -13 4 -31 13 -39 20 -8 7 -26 16 -40 20 -14 4 -32 13 -40 20 -8 7 -26 16 -40 20 -14 4 -32 13 -40 20 -8 8 -27 16 -42 20 -15 4 -32 13 -39 21 -6 8 -17 14 -23 14 -7 0 -54 31 -104 68 -96 71 -159 138 -215 225 -54 87 -57 91 -68 117 -6 14 -17 39 -25 55 -22 47 -57 212 -61 292 -3 48 1 93 12 135 10 35 21 82 27 105 5 23 16 47 24 54 8 6 14 17 14 24 0 16 79 125 129 178 40 43 155 137 167 137 4 0 15 6 23 14 76 65 363 171 571 212 92 18 324 43 380 40 l35 -1 10 -50z"/>
<path d="M11678 4248 c-44 -25 -52 -41 -108 -213 -23 -71 -58 -170 -77 -220 -36 -95 -37 -97 -76 -185 -14 -30 -44 -98 -67 -150 -64 -147 -223 -451 -255 -490 -7 -8 -15 -24 -19 -36 -3 -11 -31 -58 -61 -103 -30 -46 -55 -86 -55 -90 0 -4 -17 -30 -37 -58 -21 -28 -46 -64 -55 -80 -46 -77 -261 -368 -357 -483 -166 -199 -469 -513 -671 -694 -290 -261 -686 -550 -983 -719 -18 -10 -66 -38 -107 -62 -131 -76 -411 -215 -525 -261 -60 -24 -118 -49 -128 -54 -15 -9 -117 -48 -237 -91 -161 -58 -169 -62 -180 -93 -7 -17 -16 -39 -21 -48 -14 -28 -12 -32 41 -57 58 -28 66 -27 220 29 63 23 135 49 160 57 25 9 50 19 55 23 6 4 55 26 110 48 100 40 307 134 335 152 8 6 26 15 40 20 14 6 32 14 40 19 8 6 42 24 75 42 33 17 67 37 75 44 8 7 24 15 35 19 11 3 44 22 73 41 30 19 55 35 57 35 7 0 176 107 290 183 749 503 1398 1176 1881 1947 128 206 319 566 395 745 23 55 45 105 49 110 4 6 21 49 38 97 17 48 36 95 42 105 6 10 33 85 59 166 27 82 54 154 60 160 14 14 15 97 1 97 -6 0 -16 12 -23 28 -21 48 -35 51 -89 20z"/>
<path d="M4066 4025 c-73 -26 -136 -92 -136 -141 0 -27 59 -91 109 -117 41 -22 32 -36 -32 -52 l-42 -10 -3 -54 -3 -54 59 5 c100 10 194 72 216 145 13 41 -20 89 -80 118 -65 32 -71 39 -43 59 17 11 27 12 42 4 27 -14 38 5 35 62 l-3 45 -40 2 c-22 2 -58 -4 -79 -12z"/>
<path d="M6910 4025 c-19 -8 -43 -17 -52 -21 -22 -8 -23 -37 -4 -67 8 -12 27 -58 42 -102 15 -44 33 -89 41 -100 7 -11 13 -27 13 -36 0 -9 8 -27 18 -40 11 -13 22 -36 26 -51 10 -44 37 -34 76 29 19 32 46 70 59 85 28 34 34 31 92 -53 39 -56 62 -74 78 -64 8 5 46 80 125 248 25 52 50 98 56 102 19 12 10 25 -37 56 -28 17 -58 29 -73 27 -21 -3 -28 -14 -52 -92 -15 -49 -32 -94 -37 -99 -5 -5 -27 19 -55 61 -25 39 -51 74 -57 77 -12 8 -49 -22 -49 -40 0 -7 -7 -19 -17 -26 -9 -8 -22 -29 -30 -47 -8 -18 -19 -32 -26 -29 -13 4 -55 118 -56 153 -1 22 -19 44 -35 43 -6 0 -27 -6 -46 -14z"/>
<path d="M8440 3970 c-8 -5 -30 -10 -48 -10 -40 0 -106 -32 -138 -67 -45 -48 -25 -97 57 -139 28 -14 49 -30 46 -37 -2 -6 -23 -16 -48 -20 -64 -13 -75 -38 -36 -81 l22 -25 69 19 c76 22 150 74 160 115 9 35 -16 70 -69 95 -43 21 -76 49 -59 51 5 1 23 0 40 -1 45 -2 58 18 42 69 -14 44 -15 46 -38 31z"/>
<path d="M4241 3957 c-16 -16 -14 -49 5 -75 13 -19 24 -23 57 -20 l42 3 3 -124 c1 -71 7 -130 14 -138 11 -13 76 -17 116 -7 l22 6 0 122 c0 133 6 152 46 134 20 -10 27 -7 45 16 11 14 24 24 29 21 4 -2 10 -40 12 -82 9 -143 54 -202 166 -218 77 -10 146 9 191 54 47 47 61 96 61 214 0 106 -1 107 -71 107 -75 0 -79 -6 -79 -130 l0 -109 -26 -20 c-36 -29 -49 -26 -73 13 -18 28 -21 50 -21 134 0 82 -3 101 -16 106 -29 11 -110 6 -129 -8 -16 -12 -22 -12 -41 0 -27 18 -335 19 -353 1z"/>
<path d="M5123 3964 c-20 -9 -18 -347 2 -364 24 -20 164 6 245 45 112 55 156 130 125 210 -14 39 -24 48 -80 74 -55 26 -79 31 -172 36 -59 3 -114 2 -120 -1z m192 -113 c33 -19 43 -57 26 -90 -12 -22 -69 -54 -82 -45 -10 6 -12 137 -2 147 10 10 25 7 58 -12z"/>
<path d="M5563 3964 c-20 -9 -18 -347 1 -363 16 -13 201 -12 229 1 23 12 22 59 -2 89 -14 17 -16 27 -8 40 5 9 7 27 4 41 -5 20 -16 27 -49 34 -39 8 -43 12 -43 39 l0 30 47 3 c34 2 51 8 58 22 12 23 4 46 -18 55 -23 9 -204 16 -219 9z"/>
<path d="M6203 3963 c-9 -3 -13 -28 -13 -77 0 -40 -3 -75 -6 -78 -5 -6 -29 7 -122 68 -26 17 -71 43 -100 59 -48 26 -54 27 -68 13 -13 -13 -14 -20 -4 -38 6 -12 8 -29 5 -38 -13 -32 -24 -256 -13 -269 13 -16 100 -17 116 -1 7 7 12 39 12 73 0 34 2 64 5 67 3 3 46 -21 95 -53 49 -33 93 -59 98 -59 5 0 17 -9 26 -19 10 -11 24 -17 31 -14 22 8 43 90 50 198 4 55 9 103 12 107 2 5 17 -5 33 -22 25 -26 31 -29 55 -20 15 6 31 8 36 4 5 -3 9 -60 9 -128 0 -81 4 -126 12 -134 7 -7 35 -12 63 -12 28 0 56 5 63 12 8 8 12 51 12 129 0 129 9 151 50 129 27 -15 56 8 65 51 12 56 0 60 -181 58 -119 0 -167 -4 -181 -14 -12 -9 -22 -10 -30 -3 -14 11 -110 19 -130 11z"/>
<path d="M7563 3964 c-20 -9 -18 -347 1 -363 16 -13 201 -12 229 1 26 13 22 64 -8 92 l-24 22 20 21 c18 17 19 23 8 41 -7 11 -30 24 -53 28 -37 8 -41 12 -41 39 0 28 2 30 45 33 24 2 50 8 57 14 20 16 15 46 -8 59 -23 12 -206 23 -226 13z"/>
<path d="M7883 3959 c-20 -21 -18 -342 2 -359 19 -16 136 -4 230 22 89 25 125 102 70 150 l-25 22 19 20 c33 36 36 65 9 93 -38 41 -68 51 -183 58 -84 5 -113 4 -122 -6z m172 -73 c17 -12 18 -17 7 -41 -22 -48 -67 -10 -48 41 7 18 17 18 41 0z m-7 -148 c18 -18 15 -46 -7 -57 -23 -13 -31 -5 -31 29 0 39 15 51 38 28z"/>
<path d="M8599 3960 c-15 -8 -17 -34 -18 -179 -2 -160 0 -171 18 -180 27 -15 104 -14 119 1 8 8 12 64 12 184 0 147 -2 173 -16 178 -24 9 -97 7 -115 -4z"/>
<path d="M8803 3959 c-32 -12 -34 -50 -5 -82 12 -13 27 -17 57 -15 l40 3 3 -125 c2 -103 5 -127 19 -137 21 -16 105 -17 121 -1 8 8 12 53 12 135 0 110 2 123 19 132 14 8 22 7 31 -4 20 -24 35 -18 53 21 10 19 22 32 27 29 6 -4 10 -67 10 -154 0 -113 3 -151 14 -160 20 -16 215 -11 233 7 20 20 16 47 -12 80 -22 26 -23 31 -10 42 18 15 19 44 3 58 -7 6 -29 14 -48 19 -30 8 -35 13 -35 39 0 27 3 29 45 32 49 3 71 22 63 52 -7 25 -19 29 -129 36 -89 7 -96 6 -118 -15 l-24 -23 -11 20 c-10 19 -21 20 -173 20 -90 0 -173 -4 -185 -9z"/>
<path d="M3581 3308 c-12 -12 -24 -31 -27 -42 -3 -12 -14 -30 -24 -41 -15 -18 -46 -70 -89 -150 -9 -17 -31 -52 -49 -78 -32 -48 -41 -77 -22 -77 5 0 25 -13 43 -30 19 -16 40 -30 46 -30 6 0 23 18 37 40 15 22 32 40 38 40 6 0 42 3 80 5 77 6 91 -1 101 -46 4 -17 12 -32 19 -35 16 -6 136 53 136 67 0 7 -26 51 -57 98 -63 96 -150 231 -176 274 -21 33 -30 34 -56 5z m53 -249 c-7 -13 -51 -11 -59 2 -4 5 1 19 11 30 l19 21 17 -22 c10 -12 15 -26 12 -31z"/>
<path d="M8272 3319 c-20 -8 -23 -15 -20 -56 l3 -48 60 -1 60 -1 3 -158 c1 -96 7 -164 13 -172 7 -8 33 -13 64 -13 31 0 57 5 64 13 6 8 12 76 13 173 l3 159 46 -3 c40 -3 49 0 63 20 22 31 21 75 -3 88 -24 13 -337 12 -369 -1z"/>
<path d="M3923 3243 c-10 -3 -13 -49 -13 -178 0 -206 0 -205 89 -187 31 7 66 12 77 12 34 0 107 40 151 82 53 52 73 119 49 167 -27 50 -79 83 -159 97 -72 13 -171 17 -194 7z m204 -189 c-20 -38 -53 -68 -66 -59 -15 9 -14 128 1 143 10 10 20 5 46 -21 l34 -34 -15 -29z"/>
<path d="M4395 3240 c-4 -6 -24 -22 -46 -36 -21 -13 -39 -28 -39 -33 0 -5 17 -36 38 -69 144 -234 169 -268 191 -261 9 4 151 214 151 225 0 4 16 28 35 54 19 26 35 52 35 58 0 13 -87 62 -111 62 -14 0 -31 -25 -65 -91 -26 -52 -49 -88 -54 -83 -5 5 -28 45 -51 89 -47 92 -68 112 -84 85z"/>
<path d="M4922 3238 c-7 -7 -12 -17 -12 -24 0 -6 -7 -18 -16 -25 -9 -7 -30 -37 -48 -67 -45 -76 -88 -146 -110 -176 -24 -34 -17 -49 36 -75 57 -27 60 -27 80 9 l17 30 81 0 80 0 10 -25 c5 -14 17 -28 25 -32 18 -6 84 24 101 46 10 12 13 11 23 -7 10 -18 20 -22 64 -22 29 0 58 5 65 12 7 7 12 37 12 68 0 31 3 59 6 63 7 7 72 -33 124 -75 19 -15 39 -28 44 -28 5 0 17 -7 27 -16 44 -39 56 -2 63 186 3 58 8 114 12 124 10 26 -20 46 -67 46 -65 0 -69 -5 -69 -80 0 -64 -10 -94 -25 -71 -13 22 -207 142 -220 137 -10 -4 -15 -21 -16 -53 -3 -128 -15 -247 -25 -250 -6 -2 -59 69 -118 157 -59 88 -113 160 -120 160 -7 0 -17 -5 -24 -12z m38 -203 c10 -12 9 -16 -5 -21 -19 -8 -40 9 -31 25 10 15 21 14 36 -4z"/>
<path d="M6043 3244 c-19 -9 -18 -347 1 -363 17 -15 212 -11 234 5 18 13 10 75 -13 94 -11 9 -11 16 -3 29 6 10 8 29 5 43 -5 20 -16 27 -49 34 -39 8 -43 12 -43 39 l0 30 47 3 c25 2 52 9 58 17 15 18 5 51 -18 60 -22 9 -203 16 -219 9z"/>
<path d="M6451 3177 c-43 -91 -111 -264 -111 -283 0 -8 8 -14 18 -14 9 0 30 -7 46 -15 44 -23 52 -19 71 43 25 80 33 88 61 61 13 -12 34 -37 46 -55 21 -31 58 -47 58 -25 0 17 92 123 100 114 4 -4 20 -41 35 -80 25 -67 44 -88 60 -64 3 5 18 12 34 16 16 3 35 13 42 21 13 16 13 16 -56 154 -18 36 -38 81 -44 100 -14 45 -54 95 -69 86 -6 -3 -24 -30 -41 -59 -16 -29 -41 -63 -55 -76 l-24 -23 -31 43 c-17 24 -37 51 -46 60 -8 9 -15 21 -15 27 0 12 -27 42 -38 42 -4 0 -22 -33 -41 -73z"/>
<path d="M7003 3244 c-20 -9 -18 -347 1 -363 16 -13 201 -12 229 1 23 12 22 59 -2 89 -14 17 -16 27 -8 40 5 9 7 27 4 41 -5 20 -16 27 -49 34 -39 8 -43 12 -43 39 l0 30 47 3 c25 2 52 9 58 17 15 18 5 51 -18 60 -22 9 -203 16 -219 9z"/>
<path d="M7603 3243 c-9 -3 -13 -27 -13 -72 0 -76 -6 -88 -31 -65 -9 8 -55 40 -101 70 -88 58 -136 68 -130 29 5 -26 4 -36 -7 -185 -6 -84 -6 -129 1 -137 13 -16 100 -17 116 -1 7 7 12 37 12 68 0 31 3 59 6 63 7 7 73 -33 118 -70 17 -14 39 -29 50 -34 12 -5 29 -14 38 -21 32 -23 41 5 50 144 5 73 11 139 13 146 4 10 14 5 34 -17 26 -27 32 -30 56 -21 15 6 31 8 36 4 5 -3 9 -60 9 -128 0 -81 4 -126 12 -134 7 -7 35 -12 63 -12 28 0 56 5 63 12 8 8 12 51 12 129 0 129 9 151 50 129 17 -9 25 -8 40 5 24 22 33 61 20 85 -10 19 -21 20 -175 19 -119 0 -168 -4 -182 -14 -12 -9 -22 -10 -30 -3 -14 11 -110 19 -130 11z"/>
<path d="M8723 3243 c-20 -7 -18 -346 1 -362 16 -13 201 -12 229 1 23 12 22 59 -2 89 -14 17 -16 27 -8 40 5 9 7 27 4 41 -5 20 -16 27 -49 34 -39 8 -43 12 -43 39 l0 30 47 3 c56 4 76 22 60 56 -8 18 -21 24 -64 29 -61 8 -157 8 -175 0z"/>
<path d="M9191 3218 c-12 -18 -39 -60 -61 -93 -128 -196 -140 -228 -92 -245 15 -6 38 -16 51 -23 20 -10 25 -9 29 2 13 39 41 51 117 51 72 0 76 -1 85 -25 13 -35 37 -41 72 -20 34 20 110 16 148 -7 18 -11 23 -10 36 7 8 11 20 39 26 62 17 70 30 72 80 9 38 -49 78 -73 78 -47 0 17 92 123 100 114 4 -4 20 -41 35 -80 25 -67 44 -88 60 -64 3 5 18 12 34 16 61 13 60 30 -10 166 -16 31 -36 75 -44 98 -16 48 -52 101 -66 101 -5 0 -22 -21 -37 -47 -31 -53 -80 -113 -93 -113 -4 0 -20 21 -36 48 -15 26 -32 50 -39 54 -6 4 -14 19 -18 32 -5 20 -34 44 -41 34 -12 -16 -76 -161 -101 -228 -17 -46 -36 -86 -41 -87 -5 -2 -58 69 -117 157 -59 88 -114 160 -121 160 -7 0 -23 -15 -34 -32z m49 -183 c10 -12 9 -16 -5 -21 -19 -8 -40 9 -31 25 10 15 21 14 36 -4z"/>
<path d="M5838 3222 c-101 -33 -200 -142 -185 -203 22 -81 101 -135 219 -146 99 -9 127 17 98 91 -8 23 -15 26 -55 26 -25 0 -59 7 -75 15 -60 31 -23 97 67 120 l48 12 2 39 c3 64 -29 76 -119 46z"/>
</g>
</g>
</svg>
