<?xml version="1.0" standalone="no"?>
<!DOCTYPE svg PUBLIC "-//W3C//DTD SVG 1.1//EN"
 "http://www.w3.org/Graphics/SVG/1.1/DTD/svg11.dtd">
<!-- Created with svg_stack (http://github.com/astraw/svg_stack) -->
<svg xmlns:sodipodi="http://sodipodi.sourceforge.net/DTD/sodipodi-0.dtd" xmlns="http://www.w3.org/2000/svg" version="1.1" width="2440.0" height="1114.0">
  <defs/>
  <g id="id0:id0" transform="matrix(1.25,0,0,1.25,0.0,0.0)"><g transform="translate(0.000000,891.200000) scale(0.040000,-0.040000)" fill="#ffffff" stroke="none">
<path d="M33135 19224 c-102 -25 -197 -36 -268 -30 l-69 6 -30 -32 -30 -32 -48 17 c-58 21 -83 21 -135 2 -22 -8 -58 -14 -81 -15 -28 0 -47 -6 -59 -20 -10 -11 -30 -20 -44 -20 -14 0 -53 -13 -86 -28 -33 -16 -73 -32 -89 -36 -16 -4 -56 -25 -90 -48 -33 -22 -70 -45 -81 -50 -20 -9 -99 -64 -211 -147 -32 -24 -209 -195 -391 -380 l-333 -336 0 -48 c0 -54 -7 -70 -61 -142 -71 -95 -192 -409 -244 -633 -25 -109 -75 -440 -75 -499 0 -42 -17 -51 -32 -16 -11 26 -13 21 -19 -57 -4 -47 -10 -182 -13 -300 -9 -276 -22 -471 -45 -640 -17 -123 -17 -139 -3 -175 11 -29 17 -99 22 -255 7 -206 12 -251 32 -277 6 -7 -2 -33 -22 -74 l-32 -63 15 -55 c38 -139 42 -211 33 -594 -7 -323 -6 -378 8 -450 22 -111 20 -140 -9 -183 -14 -20 -26 -46 -26 -58 -4 -53 5 -106 27 -170 20 -58 24 -89 24 -186 0 -86 -4 -125 -16 -148 -31 -64 -38 -144 -26 -293 7 -78 18 -151 25 -163 11 -19 16 -310 7 -421 -3 -39 18 -426 26 -488 4 -27 1 -74 -6 -110 -14 -64 -17 -725 -4 -852 4 -49 1 -74 -20 -135 -31 -90 -32 -111 -6 -135 18 -16 20 -31 20 -151 0 -93 6 -165 20 -236 11 -57 23 -164 26 -238 6 -124 5 -140 -17 -200 l-23 -65 -2 -675 -2 -675 29 -57 c35 -70 35 -75 4 -144 -33 -71 -32 -90 10 -213 37 -111 57 -204 57 -262 -1 -20 -10 -85 -22 -144 l-20 -108 15 -120 c9 -67 18 -124 21 -129 5 -7 15 -40 80 -257 38 -129 49 -230 34 -326 l-12 -80 37 -90 c78 -188 153 -321 270 -480 94 -129 193 -290 263 -430 44 -88 58 -106 118 -155 37 -30 93 -72 124 -93 30 -21 59 -45 63 -53 4 -8 13 -14 18 -14 6 0 34 -20 62 -44 29 -24 63 -49 77 -56 14 -7 48 -32 75 -55 43 -37 58 -43 107 -47 36 -3 65 -11 77 -22 13 -12 43 -20 86 -24 l66 -5 47 -52 c54 -60 89 -79 187 -99 43 -9 74 -21 82 -33 27 -36 384 -70 435 -41 13 7 54 13 93 13 39 1 117 5 175 9 85 7 109 13 128 30 l24 21 22 -27 c20 -26 28 -28 89 -28 46 0 76 -5 92 -16 20 -13 44 -16 115 -12 51 2 95 9 102 16 7 7 31 12 55 12 41 0 68 10 103 36 8 7 42 17 75 24 33 7 69 19 80 26 11 8 29 14 40 14 11 0 30 7 42 15 12 9 52 27 88 40 36 14 76 32 88 39 12 8 40 18 62 22 22 3 47 12 55 19 8 8 44 19 80 26 36 7 76 21 89 31 13 10 28 18 33 18 6 0 23 11 40 25 16 14 35 25 42 25 7 0 23 11 36 25 13 14 29 25 37 25 7 0 23 11 35 25 12 14 26 25 31 25 5 0 35 22 66 48 31 26 68 55 82 64 14 9 79 67 143 130 120 115 215 232 322 393 33 50 85 124 116 166 81 113 136 247 160 388 10 64 28 132 38 151 80 149 95 186 98 252 3 41 -2 92 -13 134 -23 90 -9 176 50 322 38 94 55 246 55 495 0 195 -3 233 -21 303 -22 83 -22 67 -1 359 10 124 9 883 -1 1030 -11 167 -14 260 -26 830 -6 275 -14 512 -17 527 -4 22 -19 34 -69 58 -34 16 -71 30 -81 30 -11 0 -32 8 -49 17 -22 12 -67 18 -171 22 -86 4 -147 11 -155 18 -9 7 -20 8 -28 3 -8 -4 -40 -5 -72 -3 -32 3 -84 1 -116 -5 -32 -6 -141 -12 -243 -13 -102 -1 -193 -6 -203 -11 -9 -5 -45 -11 -80 -13 -34 -2 -97 -7 -140 -10 -65 -5 -82 -4 -97 10 -21 19 -181 48 -225 40 -16 -2 -37 -1 -45 5 -9 5 -19 5 -26 -1 -7 -5 -36 -12 -65 -16 -30 -3 -60 -11 -68 -17 -7 -5 -41 -19 -75 -31 -34 -11 -82 -36 -106 -56 l-43 -36 12 -144 c7 -79 14 -171 17 -204 2 -33 6 -240 8 -460 5 -496 13 -705 31 -854 19 -148 19 -206 0 -311 -18 -96 -24 -252 -29 -715 -6 -494 -44 -743 -142 -938 -31 -60 -114 -144 -152 -153 -15 -4 -35 -14 -46 -23 -27 -24 -275 -24 -302 0 -11 9 -36 19 -57 22 -22 3 -49 16 -62 29 -13 13 -37 34 -55 47 -38 28 -101 120 -134 194 -48 109 -59 225 -38 400 7 59 13 178 13 265 1 142 -1 165 -25 241 -14 47 -26 97 -26 111 0 35 19 90 38 113 14 16 14 28 3 100 -27 166 -30 195 -36 357 -3 91 -13 217 -20 280 -16 126 -14 148 39 454 18 101 26 187 27 270 1 114 -1 128 -36 233 l-37 111 16 59 c9 32 21 76 27 99 11 36 9 50 -19 136 -29 85 -32 108 -32 213 0 81 6 142 19 199 30 126 53 335 41 376 -36 124 -42 213 -39 585 3 352 3 472 1 770 -1 153 -27 444 -47 541 -12 59 -12 79 0 139 20 101 24 138 30 254 4 58 8 109 11 113 12 19 -24 385 -76 793 -11 83 -23 188 -26 235 -6 79 -5 89 19 137 17 33 31 84 39 142 12 93 12 88 -23 449 -11 114 -4 149 46 252 36 72 31 122 -29 303 -25 76 -46 155 -46 177 0 25 15 71 39 125 48 103 62 186 58 355 l-2 125 33 67 c24 49 49 81 95 120 74 64 138 108 157 108 7 0 22 8 33 18 27 25 275 26 303 1 11 -9 30 -20 44 -24 45 -14 181 -163 245 -270 56 -94 59 -104 60 -165 0 -61 -11 -301 -21 -455 -16 -262 -24 -539 -24 -854 -1 -214 -5 -383 -11 -410 -12 -53 1 -172 33 -291 38 -146 34 -512 -9 -689 -10 -42 -16 -114 -16 -201 -1 -121 2 -144 28 -225 42 -135 34 -131 227 -133 90 -1 197 -4 238 -7 96 -7 977 -25 1135 -24 66 1 196 4 289 8 l170 6 17 30 c66 113 75 440 24 821 -31 226 -39 408 -26 593 10 153 10 188 -4 266 -34 197 -37 223 -32 300 3 44 10 92 16 107 16 42 42 263 44 368 1 82 -3 108 -30 190 -17 52 -36 124 -43 160 -15 80 -15 359 0 540 13 153 17 582 6 650 -13 78 -32 132 -91 255 -31 66 -92 200 -135 297 -86 192 -214 453 -277 562 -30 53 -47 71 -73 81 -157 57 -212 121 -252 297 -6 26 -21 56 -32 66 -22 19 -221 86 -291 98 -22 4 -49 13 -60 19 -11 7 -51 16 -90 19 -38 4 -76 13 -85 20 -8 8 -35 17 -60 21 -25 4 -95 31 -157 61 -62 30 -124 54 -139 54 -19 0 -37 -11 -59 -37 l-32 -37 -44 21 c-39 19 -106 68 -163 119 -11 10 -38 21 -60 25 -23 3 -49 10 -58 13 -12 6 -21 0 -33 -23 -19 -37 -25 -38 -55 -6 -13 14 -28 25 -33 25 -6 0 -19 8 -30 18 -16 15 -44 17 -201 19 -133 2 -197 -2 -241 -13z m1952 -3550 c8 -22 -13 -88 -37 -109 -18 -16 -20 -17 -26 -1 -5 13 -14 15 -34 11 -51 -11 -58 47 -13 97 21 24 101 25 110 2z m-227 -415 c0 -25 -19 -34 -37 -16 -12 12 -13 19 -3 36 9 18 14 20 26 10 8 -6 14 -20 14 -30z"/>
<path d="M41231 19168 c-9 -10 -81 -13 -289 -13 -246 0 -283 -2 -331 -19 -92 -32 -152 -72 -192 -127 -30 -43 -71 -271 -83 -469 -10 -155 -40 -263 -108 -382 l-38 -67 -1 -138 c0 -182 -15 -320 -53 -493 -8 -36 -24 -108 -35 -160 -34 -158 -89 -406 -126 -570 -99 -434 -164 -781 -165 -882 -1 -134 -12 -196 -50 -283 -52 -120 -84 -231 -115 -400 -14 -77 -30 -162 -35 -190 -5 -27 -21 -113 -35 -190 -14 -77 -42 -186 -61 -243 l-35 -103 22 -31 22 -30 -13 -106 c-7 -59 -24 -136 -37 -172 -71 -190 -113 -392 -163 -780 -22 -166 -99 -513 -118 -532 -10 -10 -57 47 -72 87 -20 53 0 244 36 344 l17 47 -27 76 c-45 132 -31 328 44 583 28 96 36 209 20 276 -7 30 -30 100 -52 157 -33 89 -38 113 -38 186 0 56 6 102 20 142 26 78 25 88 -12 141 l-31 46 18 221 c20 247 23 712 10 1348 -6 267 -5 429 5 596 14 249 8 342 -32 490 l-20 73 22 72 c28 91 37 261 21 377 -7 47 -15 114 -19 150 -11 116 -7 492 6 600 14 121 5 208 -31 280 -50 103 -187 118 -452 49 -93 -25 -174 -28 -230 -9 -76 25 -175 23 -352 -6 -208 -35 -419 -39 -553 -11 -202 42 -325 58 -390 50 -44 -5 -129 -40 -160 -66 -93 -75 -128 -317 -96 -665 9 -95 16 -239 16 -320 0 -210 18 -578 40 -851 l20 -234 -27 -76 -28 -76 2 -165 c0 -91 6 -205 12 -255 25 -200 33 -307 34 -460 2 -168 -5 -210 -55 -309 l-20 -39 20 -36 c42 -76 53 -174 40 -330 -11 -117 3 -289 28 -350 13 -33 13 -44 -1 -96 -8 -33 -15 -69 -15 -81 0 -12 -7 -39 -16 -60 -14 -33 -15 -48 -5 -99 17 -91 39 -357 52 -617 18 -369 4 -911 -31 -1203 -7 -52 -7 -82 0 -89 6 -6 10 -22 10 -37 0 -15 5 -40 12 -56 9 -20 14 -192 18 -613 l7 -585 22 -85 c22 -79 22 -91 11 -180 -6 -52 -14 -122 -16 -155 -2 -33 -9 -121 -15 -195 -18 -231 4 -732 42 -970 6 -36 13 -78 16 -95 3 -19 -8 -66 -28 -125 l-33 -95 0 -160 c0 -110 6 -210 21 -320 41 -293 46 -399 37 -705 -5 -157 -9 -415 -8 -575 0 -256 3 -306 24 -430 30 -177 29 -194 -6 -285 l-29 -75 0 -205 c1 -173 5 -232 28 -379 15 -96 30 -178 33 -183 4 -5 7 -68 8 -140 2 -117 0 -142 -28 -247 l-30 -116 -1 -390 c0 -369 1 -395 22 -476 45 -175 112 -273 221 -322 l60 -27 228 6 c320 8 1153 8 1369 0 l180 -8 45 31 c25 16 60 45 77 63 l33 34 -10 84 c-14 129 -32 558 -25 620 18 171 23 597 9 860 -11 230 -12 924 0 1505 17 862 12 1201 -19 1481 -15 136 -16 155 -2 195 9 25 19 75 23 110 4 35 13 81 20 103 19 53 17 80 -8 129 -28 55 -30 165 -4 342 18 129 18 155 1 420 -3 50 -14 150 -25 223 -11 74 -20 155 -19 180 2 69 23 177 34 176 9 -2 48 -71 114 -204 51 -103 77 -239 85 -450 5 -151 35 -251 102 -350 63 -92 77 -168 48 -250 -40 -110 1 -339 109 -621 14 -36 44 -129 66 -206 32 -110 41 -162 45 -244 3 -61 18 -164 36 -249 17 -80 37 -188 45 -240 19 -128 47 -236 107 -415 109 -327 182 -633 171 -723 -8 -75 14 -289 42 -387 25 -91 41 -137 75 -210 76 -162 102 -279 171 -770 11 -77 24 -169 29 -204 5 -35 14 -84 19 -110 5 -25 18 -93 29 -151 64 -330 172 -632 259 -726 l24 -27 72 7 c40 3 205 9 367 12 269 6 390 2 725 -22 215 -16 314 -19 600 -19 l320 0 29 80 c26 72 29 95 32 228 3 146 0 177 -40 362 -18 83 -59 218 -88 283 -52 121 -106 287 -127 397 -9 42 -75 341 -91 410 -33 140 -62 265 -85 365 -14 63 -35 151 -45 195 -55 228 -187 794 -201 863 -11 56 -29 210 -34 297 -8 138 -46 304 -89 383 -63 118 -129 371 -150 577 -8 83 -58 245 -104 340 -12 25 -24 82 -31 153 -8 77 -29 175 -66 310 -62 223 -74 288 -78 422 -2 72 -10 114 -31 175 -15 44 -31 96 -36 115 -4 19 -18 76 -30 125 -12 50 -30 133 -41 185 -51 252 -80 402 -113 585 -49 267 -119 563 -167 710 -17 49 -28 96 -25 105 34 110 57 197 66 250 17 96 56 224 89 294 44 92 45 100 16 134 -29 35 -31 61 -9 105 30 56 94 247 120 356 20 80 27 137 29 232 2 115 4 129 26 158 25 35 26 46 19 226 -4 85 -4 86 68 215 35 62 67 192 88 355 57 451 121 722 197 835 29 43 31 52 38 180 9 148 34 260 130 575 86 286 97 326 119 450 12 66 24 123 26 127 8 13 18 211 15 320 -2 89 2 124 24 205 14 54 37 115 50 135 21 32 25 49 25 118 0 116 11 155 87 315 8 17 21 41 28 55 10 16 15 57 15 120 1 125 13 187 100 515 32 122 43 183 46 259 4 89 7 102 31 130 35 42 83 151 83 189 0 67 -61 126 -165 160 -115 38 -270 45 -550 26 -88 -6 -187 -12 -220 -14 -33 -2 -118 -10 -190 -19 -90 -11 -147 -13 -190 -7 -67 10 -148 35 -182 57 -27 17 -45 18 -62 2z"/>
<path d="M45688 19159 c-9 -5 -59 -13 -110 -18 -51 -5 -112 -17 -136 -26 -35 -15 -50 -16 -80 -7 -156 47 -293 55 -365 23 -23 -10 -74 -30 -114 -44 -40 -15 -80 -30 -90 -36 -10 -5 -103 -39 -208 -75 -236 -83 -281 -112 -452 -288 -246 -255 -328 -334 -384 -366 -67 -38 -85 -57 -94 -100 -9 -42 -48 -88 -96 -112 -52 -27 -106 -76 -136 -124 -20 -30 -28 -64 -38 -148 -10 -93 -18 -119 -50 -181 -92 -175 -95 -181 -170 -417 -15 -47 -38 -105 -50 -130 -35 -70 -81 -234 -99 -350 -43 -284 -49 -482 -29 -930 6 -147 8 -323 3 -440 l-8 -195 33 -80 c18 -44 42 -109 54 -145 12 -36 40 -92 62 -126 l39 -60 -17 -42 c-14 -36 -14 -51 -5 -93 15 -62 15 -113 2 -159 -9 -29 -8 -37 7 -45 29 -17 64 -58 85 -99 l20 -39 -16 -50 c-9 -27 -16 -57 -16 -66 0 -9 22 -61 50 -116 34 -68 55 -126 66 -180 56 -294 97 -395 215 -532 64 -73 95 -127 135 -232 65 -172 121 -304 189 -438 85 -173 126 -308 144 -481 l10 -92 63 -74 c119 -138 150 -179 210 -276 59 -96 87 -186 122 -391 4 -22 26 -60 60 -100 29 -36 66 -85 81 -109 40 -63 118 -223 154 -315 18 -44 40 -98 51 -120 10 -22 35 -79 56 -128 20 -48 65 -135 99 -193 35 -58 66 -122 70 -142 10 -53 47 -113 128 -209 163 -193 184 -229 212 -366 3 -15 35 -62 71 -103 102 -117 212 -307 288 -499 51 -129 97 -240 116 -280 11 -22 28 -61 39 -86 23 -56 118 -203 157 -245 22 -23 41 -32 77 -37 34 -5 68 -21 122 -58 41 -28 75 -54 75 -59 0 -4 -7 -43 -16 -86 -28 -136 1 -295 82 -457 14 -26 36 -91 51 -145 22 -84 26 -114 24 -222 -1 -69 -3 -161 -4 -205 -1 -98 8 -187 23 -214 6 -11 11 -40 12 -64 2 -37 -6 -54 -57 -132 -73 -108 -210 -247 -289 -294 -200 -119 -490 -119 -656 -2 -93 66 -165 149 -277 321 -94 144 -104 159 -154 214 -26 28 -50 62 -54 75 -13 44 -61 364 -69 471 -21 248 -35 637 -50 1310 -4 164 -32 437 -48 457 -12 16 -86 36 -223 62 -177 33 -304 42 -606 42 -264 -1 -394 5 -638 28 -108 10 -121 5 -121 -43 -1 -50 -37 -116 -91 -166 l-50 -46 11 -69 c8 -52 8 -129 -1 -303 -12 -212 -11 -239 4 -297 22 -82 21 -96 -5 -141 -26 -44 -27 -91 -9 -274 26 -269 33 -384 35 -610 2 -218 4 -239 25 -295 13 -33 31 -69 41 -80 39 -45 44 -84 21 -175 -18 -73 -20 -107 -17 -245 3 -140 7 -174 35 -277 37 -138 71 -216 150 -346 71 -117 142 -246 158 -287 34 -87 45 -124 54 -169 31 -168 186 -339 450 -496 55 -33 130 -91 186 -143 99 -93 190 -147 249 -147 17 0 44 -6 60 -14 16 -8 40 -19 54 -25 14 -6 43 -22 65 -35 116 -72 301 -166 326 -166 5 0 59 -24 121 -54 62 -30 127 -58 143 -62 17 -4 39 -13 50 -20 26 -18 112 -18 165 1 59 21 84 19 138 -10 66 -35 96 -33 136 11 30 33 38 36 70 31 20 -3 51 -13 69 -22 65 -32 192 -46 321 -35 65 6 122 13 127 15 4 3 34 10 66 16 58 10 100 21 243 64 168 50 192 56 242 62 41 4 63 14 96 42 24 20 51 41 61 46 9 6 48 35 86 65 39 30 87 64 107 74 20 10 47 28 60 40 12 11 26 20 31 18 5 -1 25 10 45 26 20 15 51 36 67 47 49 30 175 157 175 175 0 10 7 23 15 30 8 7 15 20 15 30 0 36 61 140 82 140 5 0 33 18 62 40 29 22 57 40 63 40 19 0 100 80 117 115 9 19 21 35 25 35 11 0 33 49 26 60 -3 4 2 13 9 20 8 6 18 26 22 43 3 18 9 37 13 42 4 6 23 51 41 100 18 50 39 97 46 105 6 8 15 26 19 40 4 14 14 34 21 45 8 11 14 26 14 34 0 8 6 22 13 30 8 9 28 52 46 96 18 44 37 88 43 99 13 25 56 158 60 187 2 13 7 30 11 36 10 16 49 131 53 158 2 11 8 38 15 60 6 22 17 72 25 110 8 39 19 93 26 120 17 72 22 604 8 820 -6 99 -13 215 -15 258 -11 188 -70 581 -93 610 -5 6 -12 26 -15 42 -3 17 -12 55 -20 85 -30 106 -49 196 -57 263 -5 38 -13 83 -19 100 -6 18 -15 66 -20 107 -24 171 -120 440 -184 516 -15 18 -27 38 -27 46 0 8 -9 23 -20 33 -11 10 -20 25 -20 34 0 9 -7 29 -15 45 -9 17 -15 56 -15 98 0 67 -18 124 -65 208 -8 14 -27 50 -44 81 -16 30 -36 61 -45 68 -8 7 -13 18 -10 25 3 7 -7 29 -21 50 -14 20 -25 42 -25 48 0 7 -9 30 -19 52 -11 23 -25 52 -30 66 -6 14 -15 32 -19 40 -16 28 -36 65 -50 95 -8 17 -29 50 -46 75 -17 25 -37 56 -44 70 -6 14 -16 32 -22 40 -23 36 -49 111 -65 184 -9 44 -18 83 -21 88 -3 4 3 21 13 38 l17 30 -64 67 c-36 37 -70 71 -77 75 -6 5 -14 22 -18 38 -4 16 -10 32 -15 35 -5 3 -18 26 -30 50 -12 25 -49 73 -82 106 -53 54 -59 65 -55 92 8 58 -20 124 -76 181 -60 61 -97 151 -75 185 10 17 3 29 -53 93 -69 78 -169 204 -169 213 0 3 -15 27 -32 54 -18 27 -41 61 -50 77 -10 16 -22 36 -27 44 -5 8 -14 26 -20 40 -6 14 -15 32 -21 40 -5 8 -15 26 -20 40 -6 14 -20 41 -32 60 -12 19 -46 82 -76 140 -30 58 -60 108 -68 113 -7 4 -11 13 -8 20 2 7 -6 29 -19 48 -12 19 -26 43 -31 54 -4 11 -24 49 -45 85 -21 36 -58 99 -82 140 -80 137 -198 304 -279 395 -44 50 -82 95 -84 100 -3 6 -7 35 -11 66 -5 46 -15 68 -49 115 -40 54 -116 189 -116 205 0 4 -40 90 -89 191 -49 101 -96 207 -104 236 -9 29 -37 89 -62 134 l-46 82 -3 105 c-4 120 -14 150 -114 320 -69 118 -92 178 -92 239 0 26 -7 75 -16 107 -30 112 -34 130 -44 222 -9 74 -8 103 4 150 8 32 17 81 21 108 8 63 -16 222 -45 299 -26 69 -23 133 9 193 11 21 35 72 53 113 115 260 218 388 371 460 50 24 111 43 149 49 81 11 208 -2 282 -29 116 -44 251 -173 372 -356 29 -45 60 -87 69 -94 8 -7 15 -18 15 -25 0 -7 7 -26 15 -41 9 -17 15 -56 15 -92 l0 -63 55 -65 c30 -36 57 -75 60 -87 46 -216 52 -347 25 -571 -13 -106 -9 -210 14 -341 41 -228 40 -213 21 -325 -9 -58 -18 -116 -20 -130 -2 -14 -12 -52 -23 -85 -39 -120 -75 -268 -83 -350 -7 -65 1 -166 16 -201 8 -20 15 -44 15 -54 0 -26 33 -50 68 -50 17 0 57 -7 89 -16 238 -66 320 -70 414 -21 l64 34 105 -4 c150 -6 219 -15 375 -51 211 -49 288 -56 427 -36 153 21 212 55 236 134 10 35 25 183 36 370 2 25 8 86 15 136 7 50 13 124 14 165 1 41 5 79 9 84 3 6 11 97 18 203 14 212 7 802 -10 927 -6 39 -14 102 -19 140 -9 76 -33 186 -61 280 -11 35 -18 91 -18 135 0 69 -7 103 -48 240 -24 80 -63 183 -74 194 -5 5 -10 21 -10 34 0 12 -8 40 -19 60 -30 60 -59 125 -66 149 -3 11 -12 27 -20 33 -8 7 -15 22 -15 34 0 11 -8 35 -18 51 -35 59 -95 236 -107 315 -11 72 -40 109 -115 149 -41 22 -80 71 -80 101 0 11 -9 28 -20 37 -11 10 -20 25 -20 34 0 9 -9 28 -20 42 -11 14 -20 28 -20 32 0 17 -134 177 -187 222 -67 58 -241 183 -255 183 -5 0 -24 11 -41 24 -31 23 -101 63 -187 106 -11 6 -29 15 -40 20 -11 6 -29 15 -40 20 -11 6 -29 15 -40 20 -11 6 -28 14 -37 18 -10 5 -27 14 -38 20 -65 35 -100 44 -158 41 l-62 -3 -53 51 c-30 28 -69 59 -87 67 -41 20 -119 38 -160 38 -78 -1 -316 -23 -340 -32 -35 -13 -29 -15 -74 26 -30 26 -50 36 -83 39 -24 2 -51 -1 -60 -6z m657 -7169 c20 -60 13 -134 -17 -194 -18 -35 -22 -38 -51 -32 -18 4 -59 11 -92 15 -64 9 -135 34 -135 49 0 17 60 65 121 96 68 34 89 61 89 112 0 42 8 47 41 24 17 -13 34 -39 44 -70z m410 -2040 c-5 -8 -11 -8 -17 -2 -6 6 -7 16 -3 22 5 8 11 8 17 2 6 -6 7 -16 3 -22z"/>
<path d="M21225 19140 c-33 -5 -80 -16 -105 -25 -25 -9 -75 -27 -112 -39 l-67 -23 -23 33 c-19 29 -29 34 -61 34 -24 0 -49 -8 -64 -20 -14 -11 -32 -20 -40 -20 -11 0 -14 -8 -11 -30 7 -44 -9 -47 -49 -9 l-34 34 -217 -4 c-119 -3 -269 -5 -332 -5 l-115 -1 3 23 c2 13 -3 25 -13 28 -17 7 -167 -17 -294 -48 l-84 -20 -21 25 c-20 24 -28 26 -146 31 -69 3 -168 8 -220 12 -86 5 -103 3 -181 -23 l-86 -28 -64 28 -64 29 -65 -23 c-174 -60 -276 -122 -285 -172 -27 -153 -21 -332 16 -513 11 -54 24 -121 28 -149 5 -27 19 -90 31 -140 41 -167 48 -239 34 -367 -8 -75 -20 -133 -34 -165 -56 -124 -71 -199 -76 -383 -4 -140 -1 -207 15 -335 32 -252 34 -326 11 -405 -24 -81 -26 -235 -5 -380 23 -155 26 -188 28 -335 1 -122 -1 -148 -21 -202 -12 -34 -22 -69 -22 -76 0 -8 15 -26 34 -41 l34 -26 -20 -52 c-16 -40 -21 -78 -21 -158 -1 -121 9 -249 23 -286 16 -41 12 -67 -20 -117 -34 -55 -36 -81 -15 -227 8 -52 17 -115 20 -140 3 -25 12 -83 20 -130 20 -123 27 -245 17 -328 -7 -64 -5 -81 16 -145 l25 -72 -7 -190 c-3 -104 -11 -221 -17 -260 -6 -38 -12 -158 -12 -265 l-2 -195 24 -52 23 -53 -20 -44 c-12 -24 -26 -73 -32 -108 l-11 -65 30 -52 31 -52 -25 -102 c-47 -197 -52 -476 -10 -607 17 -54 19 -102 9 -190 -13 -110 -14 -436 -7 -1116 5 -359 5 -665 1 -680 -4 -16 -12 -87 -19 -159 -6 -71 -16 -141 -21 -153 -6 -19 -3 -30 16 -53 33 -38 75 -127 83 -171 3 -25 -4 -68 -25 -139 -66 -223 -79 -386 -42 -529 25 -98 27 -184 5 -266 -21 -81 -19 -103 15 -176 38 -79 38 -130 5 -293 -34 -163 -33 -180 9 -219 l34 -31 -5 -65 c-7 -109 -12 -156 -38 -395 -31 -281 -44 -735 -26 -950 11 -141 42 -339 59 -385 6 -17 5 -37 -4 -65 -57 -169 -80 -602 -44 -810 35 -203 35 -204 140 -265 137 -80 229 -94 360 -55 102 31 255 23 485 -25 276 -57 403 -62 580 -21 173 40 173 40 296 28 l120 -11 79 79 c69 69 83 88 107 154 l28 76 -1 195 c0 202 -29 530 -62 702 -5 25 -5 68 -1 95 35 202 36 285 26 1341 -4 401 -2 663 3 678 8 20 4 36 -16 77 -37 72 -44 162 -17 214 34 64 37 97 14 149 -23 51 -27 153 -10 254 5 30 12 89 15 132 6 67 4 82 -16 123 -19 40 -21 52 -12 88 25 101 35 188 28 249 -5 35 -9 89 -11 121 -4 76 -13 143 -31 242 -13 73 -28 206 -25 230 1 6 3 62 6 125 3 63 14 167 26 230 24 133 27 255 9 356 -11 62 -11 74 4 102 17 33 27 37 149 60 123 23 325 -50 461 -166 94 -81 283 -290 295 -327 33 -100 51 -571 31 -836 -15 -207 -16 -215 -35 -348 l-15 -105 26 -44 c53 -91 66 -181 48 -347 -37 -340 -36 -470 6 -583 18 -48 19 -55 5 -76 -8 -12 -22 -47 -31 -76 -14 -47 -14 -72 -4 -209 20 -258 26 -612 16 -1060 -6 -294 -6 -513 2 -715 7 -160 12 -316 12 -346 -1 -168 48 -358 143 -560 50 -107 81 -150 110 -150 12 0 44 -7 72 -15 82 -25 314 -65 405 -69 47 -3 135 -9 195 -14 61 -5 409 -11 775 -12 366 -2 740 -5 831 -7 l167 -4 21 22 c26 28 34 83 29 201 l-3 93 -45 57 c-25 32 -63 80 -85 109 -22 28 -72 80 -111 115 -63 57 -73 71 -87 121 -93 341 -113 434 -148 688 -37 277 -37 279 -42 895 -3 406 -6 500 -18 520 -11 19 -14 68 -13 220 l1 195 43 205 c38 181 44 221 44 340 1 74 -3 178 -7 230 -23 274 -34 482 -41 830 -5 268 -25 696 -33 724 -3 10 -5 46 -4 81 0 34 -6 84 -13 111 -8 27 -26 90 -40 139 -15 50 -40 150 -57 224 -56 242 -101 337 -181 377 -78 40 -128 75 -128 91 0 47 -100 163 -195 225 -33 21 -132 75 -220 120 -160 81 -233 125 -290 172 l-29 25 49 21 c28 11 63 27 78 35 16 8 34 15 40 15 18 0 174 94 252 152 117 87 256 251 320 379 23 44 70 128 125 219 154 256 223 436 239 618 6 59 8 197 6 307 -3 227 12 349 58 455 19 45 39 236 32 320 -2 36 -7 103 -10 150 -3 47 -10 119 -16 160 -29 208 -31 386 -6 525 13 69 18 138 16 220 -4 213 -3 308 5 400 7 79 6 98 -14 155 -12 35 -31 83 -41 105 -29 59 -37 209 -15 302 9 40 16 93 16 118 0 70 -38 231 -78 325 -33 80 -36 93 -38 205 -1 66 -6 134 -12 150 -25 75 -77 196 -143 327 -125 250 -180 386 -201 497 -12 66 -35 113 -97 201 -200 285 -397 499 -659 718 -79 66 -79 66 -165 81 -68 12 -144 48 -197 94 -38 32 -116 74 -220 118 -52 23 -65 24 -243 22 -195 -3 -260 6 -330 43 -18 9 -48 25 -68 36 -46 24 -88 29 -164 18z m514 -1154 c13 -15 -1 -66 -19 -66 -15 0 -43 48 -36 65 7 19 40 20 55 1z m-717 -950 c46 -4 187 -35 213 -47 11 -5 38 -15 61 -22 67 -22 169 -84 228 -138 96 -87 94 -84 111 -291 30 -378 37 -656 45 -1893 5 -791 12 -1282 18 -1301 9 -28 6 -38 -27 -86 -42 -62 -101 -204 -101 -242 0 -15 12 -47 27 -74 37 -66 29 -87 -75 -190 -71 -71 -104 -95 -177 -131 -50 -24 -99 -47 -110 -51 -128 -47 -302 -68 -445 -54 l-95 9 -12 49 c-14 57 -50 322 -60 441 -7 76 -9 598 -4 970 4 265 -7 843 -19 1025 -14 208 -14 177 4 370 9 90 14 171 11 178 -3 8 0 53 6 100 9 66 9 125 0 242 -14 182 -13 160 -5 325 12 208 10 410 -5 550 -17 163 -16 242 3 264 13 14 35 15 193 8 98 -4 194 -9 215 -11z m-1481 -8693 c8 -8 -1 -18 -33 -37 -25 -14 -52 -26 -60 -26 -8 0 -27 -10 -42 -21 -40 -32 -53 -12 -27 40 12 22 19 41 15 41 -4 0 -2 6 4 13 13 15 125 8 143 -10z m343 -1352 c11 -21 12 -31 3 -40 -13 -13 -53 -15 -61 -3 -5 8 29 72 39 72 2 0 11 -13 19 -29z m30 -92 c-3 -5 -10 -7 -15 -3 -5 3 -7 10 -3 15 3 5 10 7 15 3 5 -3 7 -10 3 -15z m2609 -626 c4 -3 0 -15 -10 -25 -28 -31 -73 -18 -59 17 5 15 57 21 69 8z m-2095 -1086 l15 -68 -24 -25 c-19 -21 -30 -25 -58 -20 -18 3 -44 12 -57 21 -21 14 -24 23 -24 84 0 37 3 71 7 75 4 4 34 6 67 4 l60 -3 14 -68z"/>
<path d="M26980 19104 c-145 -25 -291 -29 -346 -10 -68 23 -170 21 -217 -4 -20 -11 -42 -20 -48 -20 -6 0 -24 -11 -41 -25 -16 -14 -40 -25 -54 -25 -13 0 -24 -5 -24 -10 0 -6 -17 -18 -37 -27 -56 -24 -266 -123 -283 -134 -8 -5 -31 -16 -50 -24 -19 -9 -42 -20 -50 -25 -8 -5 -58 -31 -111 -58 -53 -27 -107 -57 -120 -66 -13 -9 -30 -16 -39 -16 -8 0 -21 -9 -27 -19 -7 -11 -25 -22 -42 -26 -16 -3 -32 -12 -34 -20 -3 -7 -21 -18 -40 -24 -27 -9 -40 -22 -57 -59 -44 -93 -89 -152 -143 -186 -29 -19 -59 -41 -66 -50 -7 -9 -19 -16 -26 -16 -34 0 -157 -214 -235 -410 -23 -58 -69 -158 -102 -222 l-59 -117 7 -63 c7 -77 -7 -114 -69 -184 -24 -27 -48 -57 -53 -66 -5 -9 -7 -61 -4 -115 5 -99 -15 -302 -38 -374 -21 -66 -60 -295 -67 -391 -4 -70 -2 -123 10 -194 18 -105 17 -254 -4 -394 -8 -53 -8 -98 -1 -155 16 -125 32 -157 97 -199 30 -20 61 -36 67 -36 20 0 36 -23 36 -52 0 -24 -11 -35 -70 -74 -56 -36 -75 -55 -96 -97 l-26 -51 15 -121 c19 -145 18 -786 -2 -1141 -11 -202 -10 -842 2 -1024 3 -36 10 -196 17 -357 l13 -292 -33 -50 c-36 -57 -36 -64 -5 -206 13 -59 18 -140 21 -305 3 -244 6 -268 35 -380 17 -64 19 -92 13 -185 -4 -60 -8 -143 -9 -185 -2 -41 -8 -167 -14 -280 -13 -257 -13 -814 1 -1200 5 -162 12 -389 14 -505 1 -115 8 -352 13 -525 13 -365 16 -971 5 -1047 -6 -45 -2 -62 29 -135 52 -123 65 -211 71 -508 l4 -185 32 -80 c18 -44 69 -152 113 -240 128 -255 132 -264 172 -385 l38 -115 72 -70 c40 -38 89 -99 110 -135 108 -188 323 -395 505 -488 14 -7 43 -24 65 -37 22 -14 51 -29 65 -35 14 -5 32 -15 40 -20 8 -6 26 -15 40 -21 102 -47 130 -58 165 -69 22 -7 46 -17 52 -22 7 -6 44 -19 83 -29 39 -10 80 -25 92 -34 13 -8 32 -15 43 -15 11 0 46 -25 78 -55 l58 -55 133 0 c107 0 136 -3 146 -15 7 -8 22 -15 33 -15 11 0 34 -4 51 -9 131 -41 181 -52 217 -49 l42 3 33 63 c37 70 100 141 113 126 4 -5 15 -29 24 -54 9 -25 25 -58 35 -75 l18 -29 85 2 c68 3 95 9 144 32 74 36 78 36 190 26 87 -7 204 4 243 23 31 15 119 41 140 41 11 0 25 6 31 14 7 8 27 18 44 21 18 4 52 17 77 29 25 13 59 26 75 30 17 4 37 13 45 21 8 7 51 21 95 30 125 27 166 44 227 94 31 25 73 57 93 71 20 14 49 36 64 50 16 14 78 70 140 125 367 328 617 739 746 1227 40 151 66 395 64 588 -1 134 2 172 15 203 48 109 66 217 77 447 5 124 7 241 4 260 -6 40 17 255 41 378 l16 82 -24 33 c-72 94 -92 207 -63 357 9 47 19 148 22 225 5 125 3 150 -17 230 -15 56 -23 118 -23 162 1 64 5 78 31 119 41 62 49 120 28 209 -35 149 -45 214 -36 242 5 15 16 71 26 125 19 105 14 141 -30 238 -18 38 -21 64 -20 170 0 95 5 135 17 164 23 53 47 204 47 296 0 54 -9 103 -30 175 -26 88 -31 121 -36 275 -6 169 3 298 36 515 19 120 21 342 6 585 -12 201 -26 910 -25 1295 0 114 -14 210 -46 322 -30 100 -28 119 15 207 18 37 32 85 36 123 7 64 -6 233 -32 423 -11 87 -41 361 -47 435 -1 11 2 52 6 90 4 39 15 137 23 220 20 177 15 256 -21 350 l-26 70 7 115 c16 241 6 409 -41 730 -8 58 -22 143 -30 190 -29 172 -55 349 -55 379 0 48 -16 78 -179 349 -173 286 -217 381 -271 589 -7 27 -21 50 -41 65 -17 13 -84 71 -148 131 -149 138 -159 147 -173 147 -7 0 -22 10 -34 21 -25 23 -60 30 -163 31 -70 1 -70 0 -129 -77 l-22 -30 -20 24 c-27 31 -25 52 10 141 16 41 29 88 30 103 0 33 -24 82 -46 95 -18 10 -117 -3 -151 -20 -19 -9 -32 -6 -81 25 -31 19 -70 39 -85 42 -15 4 -34 16 -42 28 -11 16 -26 20 -73 21 -32 1 -66 7 -74 14 -10 8 -60 14 -144 17 -164 5 -349 22 -392 36 -42 14 -72 6 -112 -27 l-31 -27 -55 38 -55 38 -92 3 c-50 1 -130 -4 -177 -12z m307 -2130 c17 -8 41 -14 54 -14 83 0 198 -91 253 -200 79 -155 104 -292 117 -625 11 -308 34 -547 60 -630 23 -73 24 -107 3 -146 -18 -35 -53 -190 -54 -235 0 -45 26 -126 56 -169 23 -35 25 -44 20 -109 -4 -39 -8 -107 -11 -151 -3 -44 -10 -123 -16 -176 -22 -195 3 -634 46 -799 21 -79 19 -109 -9 -171 -67 -148 -65 -275 10 -716 11 -64 15 -129 11 -215 -4 -109 -8 -132 -36 -200 l-31 -77 16 -67 c12 -55 16 -155 18 -553 2 -443 4 -498 24 -616 12 -72 31 -157 42 -190 30 -83 28 -115 -10 -177 -48 -78 -50 -114 -8 -179 50 -80 51 -83 18 -147 l-30 -57 15 -95 c26 -156 29 -228 12 -320 -9 -47 -18 -110 -22 -140 -3 -30 -13 -90 -21 -134 -18 -100 -18 -204 1 -281 19 -80 19 -137 -2 -201 -14 -47 -15 -74 -7 -211 6 -96 6 -182 1 -218 -11 -69 -3 -96 50 -186 l36 -59 -26 -138 c-14 -75 -28 -157 -31 -182 -11 -82 -20 -304 -16 -375 7 -128 -1 -430 -20 -715 -15 -220 -56 -359 -132 -446 -76 -87 -160 -111 -356 -101 -82 5 -132 12 -146 21 -12 8 -58 50 -103 94 -44 44 -98 92 -120 108 -56 41 -63 53 -63 106 0 39 -6 54 -32 85 -18 21 -41 44 -52 52 -16 12 -18 23 -12 85 3 40 0 141 -9 231 -8 88 -15 205 -15 260 0 94 4 120 41 241 14 48 8 68 -48 162 l-35 57 8 150 c4 83 8 184 10 225 2 41 7 143 11 225 10 187 10 1126 1 1375 -4 102 -10 268 -13 370 -3 102 -10 262 -16 355 -6 94 -12 195 -14 225 -1 30 -6 87 -10 125 -6 54 -3 85 10 135 63 236 57 438 -17 589 -28 58 -30 68 -19 95 50 124 55 157 54 336 0 106 -6 213 -15 270 -21 130 -22 314 -3 425 56 313 58 401 15 525 -36 102 -36 126 -9 239 19 74 22 113 21 281 0 133 -5 223 -17 285 -54 304 -66 422 -61 634 3 117 11 241 19 286 37 198 42 289 25 408 l-17 112 18 20 c10 11 21 31 24 44 6 24 -18 397 -29 458 -6 33 8 168 31 293 28 153 83 265 172 352 38 37 64 53 123 72 41 13 89 26 105 28 47 6 127 -3 162 -18z m-1998 -955 c-13 -25 -57 -45 -121 -54 -55 -8 -75 -1 -57 22 20 24 64 42 121 51 63 10 71 7 57 -19z m3240 -7148 c12 -22 3 -32 -56 -62 -39 -20 -73 -10 -34 10 12 7 21 20 21 29 0 40 51 57 69 23z m144 -1026 c-2 -30 -30 -68 -44 -59 -15 9 -10 56 8 76 22 25 38 17 36 -17z m860 -156 c-4 -29 -12 -53 -18 -53 -15 -1 -18 93 -4 110 21 26 31 0 22 -57z"/>
<path d="M24400 7733 c0 -66 11 -105 26 -90 4 3 9 40 12 82 l5 75 -22 0 c-19 0 -21 -5 -21 -67z"/>
</g>
</g>
  <g id="id1:id1" transform="matrix(1.25,0,0,1.25,0.0,0.0)"><g transform="translate(0.000000,891.200000) scale(0.040000,-0.040000)" fill="#dedede" stroke="none">
<path d="M12480 19204 c8 -4 22 -15 31 -26 8 -11 29 -20 45 -21 156 -6 2084 5 2084 12 0 21 -426 26 -1230 15 -392 -5 -803 5 -915 21 -16 3 -23 2 -15 -1z"/>
<path d="M8035 19180 c-3 -5 1 -10 9 -10 9 0 16 5 16 10 0 6 -4 10 -9 10 -6 0 -13 -4 -16 -10z"/>
<path d="M14800 19140 l0 -20 135 0 c74 0 135 4 135 8 0 4 -49 13 -108 20 -150 17 -162 16 -162 -8z"/>
<path d="M41200 19150 c0 -5 16 -10 35 -10 19 0 35 5 35 10 0 6 -16 10 -35 10 -19 0 -35 -4 -35 -10z"/>
<path d="M41300 19150 c0 -5 5 -10 10 -10 6 0 10 5 10 10 0 6 -4 10 -10 10 -5 0 -10 -4 -10 -10z"/>
<path d="M45660 19150 c0 -5 11 -10 25 -10 14 0 25 5 25 10 0 6 -11 10 -25 10 -14 0 -25 -4 -25 -10z"/>
<path d="M45740 19150 c0 -5 5 -10 10 -10 6 0 10 5 10 10 0 6 -4 10 -10 10 -5 0 -10 -4 -10 -10z"/>
<path d="M15120 19101 c0 -12 6 -21 15 -21 8 0 15 4 15 9 0 5 -7 14 -15 21 -13 10 -15 9 -15 -9z"/>
<path d="M19970 19110 c0 -5 7 -10 15 -10 8 0 15 5 15 10 0 6 -7 10 -15 10 -8 0 -15 -4 -15 -10z"/>
<path d="M20840 19110 c0 -5 7 -10 15 -10 8 0 15 5 15 10 0 6 -7 10 -15 10 -8 0 -15 -4 -15 -10z"/>
<path d="M37375 19110 c3 -5 10 -10 16 -10 5 0 9 5 9 10 0 6 -7 10 -16 10 -8 0 -12 -4 -9 -10z"/>
<path d="M38375 19110 c3 -5 10 -10 16 -10 5 0 9 5 9 10 0 6 -7 10 -16 10 -8 0 -12 -4 -9 -10z"/>
<path d="M46155 19110 c-3 -5 1 -10 9 -10 9 0 16 5 16 10 0 6 -4 10 -9 10 -6 0 -13 -4 -16 -10z"/>
<path d="M46280 19111 c0 -9 24 -21 41 -21 5 0 9 7 9 15 0 9 -9 15 -25 15 -14 0 -25 -4 -25 -9z"/>
<path d="M15514 19064 c3 -9 6 -18 6 -20 0 -2 14 -4 30 -4 17 0 30 4 30 8 0 16 -24 32 -48 32 -18 0 -23 -4 -18 -16z"/>
<path d="M12380 19049 c0 -5 5 -7 10 -4 6 3 10 8 10 11 0 2 -4 4 -10 4 -5 0 -10 -5 -10 -11z"/>
<path d="M15420 19050 c0 -5 5 -10 10 -10 6 0 10 5 10 10 0 6 -4 10 -10 10 -5 0 -10 -4 -10 -10z"/>
<path d="M15338 19028 c-53 -14 -47 -30 9 -26 36 2 49 7 51 21 4 19 -5 20 -60 5z"/>
<path d="M15197 18993 c-15 -15 -6 -33 17 -33 23 0 41 22 29 34 -8 8 -38 8 -46 -1z"/>
<path d="M15600 18970 c0 -5 18 -10 39 -10 22 0 43 5 46 10 4 6 -12 10 -39 10 -25 0 -46 -4 -46 -10z"/>
<path d="M15800 18940 c0 -18 7 -20 75 -20 64 0 76 -3 85 -20 8 -16 21 -20 60 -20 39 0 52 -4 60 -20 7 -13 21 -20 40 -20 19 0 33 -7 40 -20 7 -13 21 -20 40 -20 19 0 33 -7 40 -20 7 -12 21 -20 37 -20 24 0 25 2 13 14 -12 12 -78 49 -168 95 -30 15 -66 29 -107 42 -22 6 -49 15 -60 20 -30 11 -111 29 -134 29 -14 0 -21 -6 -21 -20z"/>
<path d="M46720 18950 c0 -5 5 -10 10 -10 6 0 10 5 10 10 0 6 -4 10 -10 10 -5 0 -10 -4 -10 -10z"/>
<path d="M46800 18910 c0 -5 5 -10 10 -10 6 0 10 5 10 10 0 6 -4 10 -10 10 -5 0 -10 -4 -10 -10z"/>
<path d="M46880 18870 c0 -5 5 -10 10 -10 6 0 10 5 10 10 0 6 -4 10 -10 10 -5 0 -10 -4 -10 -10z"/>
<path d="M46960 18830 c0 -5 5 -10 10 -10 6 0 10 5 10 10 0 6 -4 10 -10 10 -5 0 -10 -4 -10 -10z"/>
<path d="M16320 18744 c0 -15 61 -64 79 -64 32 0 25 16 -14 34 -19 9 -37 21 -40 26 -7 11 -25 14 -25 4z"/>
<path d="M47160 18710 c0 -5 5 -10 10 -10 6 0 10 5 10 10 0 6 -4 10 -10 10 -5 0 -10 -4 -10 -10z"/>
<path d="M16462 18632 c13 -16 39 -41 58 -56 54 -43 51 -9 -4 41 -56 50 -91 60 -54 15z"/>
<path d="M47280 18630 c0 -5 5 -10 10 -10 6 0 10 5 10 10 0 6 -4 10 -10 10 -5 0 -10 -4 -10 -10z"/>
<path d="M47500 18410 c0 -5 5 -10 10 -10 6 0 10 5 10 10 0 6 -4 10 -10 10 -5 0 -10 -4 -10 -10z"/>
<path d="M16740 18375 c0 -23 108 -141 118 -130 7 7 -70 104 -95 121 -13 8 -23 12 -23 9z"/>
<path d="M47620 18280 c0 -11 5 -20 10 -20 6 0 10 9 10 20 0 11 -4 20 -10 20 -5 0 -10 -9 -10 -20z"/>
<path d="M47660 18210 c0 -19 11 -26 23 -14 8 8 -3 34 -14 34 -5 0 -9 -9 -9 -20z"/>
<path d="M47697 18135 c-8 -18 11 -31 25 -17 11 11 3 32 -12 32 -4 0 -10 -7 -13 -15z"/>
<path d="M16965 18090 c3 -5 8 -10 11 -10 2 0 4 5 4 10 0 6 -5 10 -11 10 -5 0 -7 -4 -4 -10z"/>
<path d="M17040 17976 c0 -2 7 -9 15 -16 13 -11 14 -10 9 4 -5 14 -24 23 -24 12z"/>
<path d="M47900 17845 c0 -14 5 -25 10 -25 6 0 10 11 10 25 0 14 -4 25 -10 25 -5 0 -10 -11 -10 -25z"/>
<path d="M17160 17771 c0 -6 5 -13 10 -16 6 -3 10 1 10 9 0 9 -4 16 -10 16 -5 0 -10 -4 -10 -9z"/>
<path d="M47940 17710 c0 -5 5 -10 10 -10 6 0 10 5 10 10 0 6 -4 10 -10 10 -5 0 -10 -4 -10 -10z"/>
<path d="M17200 17696 c0 -9 7 -16 16 -16 9 0 14 5 12 12 -6 18 -28 21 -28 4z"/>
<path d="M47980 17620 c0 -11 5 -20 10 -20 6 0 10 9 10 20 0 11 -4 20 -10 20 -5 0 -10 -9 -10 -20z"/>
<path d="M48020 17530 c0 -11 5 -20 10 -20 6 0 10 9 10 20 0 11 -4 20 -10 20 -5 0 -10 -9 -10 -20z"/>
<path d="M12340 17530 c0 -5 5 -10 10 -10 6 0 10 5 10 10 0 6 -4 10 -10 10 -5 0 -10 -4 -10 -10z"/>
<path d="M48060 17450 c0 -5 5 -10 10 -10 6 0 10 5 10 10 0 6 -4 10 -10 10 -5 0 -10 -4 -10 -10z"/>
<path d="M17360 17376 c0 -8 5 -18 10 -21 6 -3 10 1 10 9 0 8 -4 18 -10 21 -5 3 -10 -1 -10 -9z"/>
<path d="M48100 17345 c0 -14 5 -25 10 -25 6 0 10 11 10 25 0 14 -4 25 -10 25 -5 0 -10 -11 -10 -25z"/>
<path d="M48140 17255 c0 -8 5 -15 10 -15 6 0 10 7 10 15 0 8 -4 15 -10 15 -5 0 -10 -7 -10 -15z"/>
<path d="M48180 17135 c0 -19 5 -35 10 -35 6 0 10 16 10 35 0 19 -4 35 -10 35 -5 0 -10 -16 -10 -35z"/>
<path d="M46200 17070 c0 -5 5 -10 10 -10 6 0 10 5 10 10 0 6 -4 10 -10 10 -5 0 -10 -4 -10 -10z"/>
<path d="M48220 17025 c0 -19 5 -35 10 -35 6 0 10 16 10 35 0 19 -4 35 -10 35 -5 0 -10 -16 -10 -35z"/>
<path d="M11510 16990 c0 -5 7 -10 15 -10 8 0 15 5 15 10 0 6 -7 10 -15 10 -8 0 -15 -4 -15 -10z"/>
<path d="M9155 16910 c-3 -5 -1 -10 4 -10 6 0 11 5 11 10 0 6 -2 10 -4 10 -3 0 -8 -4 -11 -10z"/>
<path d="M46400 16790 c0 -5 5 -10 10 -10 6 0 10 5 10 10 0 6 -4 10 -10 10 -5 0 -10 -4 -10 -10z"/>
<path d="M48260 16735 c0 -19 5 -35 10 -35 6 0 10 16 10 35 0 19 -4 35 -10 35 -5 0 -10 -16 -10 -35z"/>
<path d="M46460 16750 c0 -5 5 -10 10 -10 6 0 10 5 10 10 0 6 -4 10 -10 10 -5 0 -10 -4 -10 -10z"/>
<path d="M48300 16570 c0 -16 5 -30 10 -30 6 0 10 14 10 30 0 17 -4 30 -10 30 -5 0 -10 -13 -10 -30z"/>
<path d="M46560 16410 c0 -5 5 -10 10 -10 6 0 10 5 10 10 0 6 -4 10 -10 10 -5 0 -10 -4 -10 -10z"/>
<path d="M48340 16345 c0 -25 5 -45 10 -45 6 0 10 20 10 45 0 25 -4 45 -10 45 -5 0 -10 -20 -10 -45z"/>
<path d="M14480 16170 c0 -5 5 -10 10 -10 6 0 10 5 10 10 0 6 -4 10 -10 10 -5 0 -10 -4 -10 -10z"/>
<path d="M46600 15970 c0 -5 5 -10 10 -10 6 0 10 5 10 10 0 6 -4 10 -10 10 -5 0 -10 -4 -10 -10z"/>
<path d="M15553 15766 c-38 -37 -41 -46 -13 -46 12 0 20 7 20 16 0 9 9 18 20 21 11 3 20 14 20 24 0 25 -9 22 -47 -15z"/>
<path d="M48340 15110 c0 -5 5 -10 10 -10 6 0 10 5 10 10 0 6 -4 10 -10 10 -5 0 -10 -4 -10 -10z"/>
<path d="M46600 15050 c0 -5 5 -10 10 -10 6 0 10 5 10 10 0 6 -4 10 -10 10 -5 0 -10 -4 -10 -10z"/>
<path d="M46560 14955 c0 -8 5 -15 10 -15 6 0 10 7 10 15 0 8 -4 15 -10 15 -5 0 -10 -7 -10 -15z"/>
<path d="M46520 14770 c0 -5 5 -10 10 -10 6 0 10 5 10 10 0 6 -4 10 -10 10 -5 0 -10 -4 -10 -10z"/>
<path d="M48300 14670 c0 -5 5 -10 10 -10 6 0 10 5 10 10 0 6 -4 10 -10 10 -5 0 -10 -4 -10 -10z"/>
<path d="M46520 14390 c0 -5 9 -10 20 -10 11 0 20 5 20 10 0 6 -9 10 -20 10 -11 0 -20 -4 -20 -10z"/>
<path d="M14520 14370 c0 -5 5 -10 10 -10 6 0 10 5 10 10 0 6 -4 10 -10 10 -5 0 -10 -4 -10 -10z"/>
<path d="M15540 14370 c0 -5 5 -10 10 -10 6 0 10 5 10 10 0 6 -4 10 -10 10 -5 0 -10 -4 -10 -10z"/>
<path d="M46590 14330 c0 -5 11 -10 25 -10 14 0 25 5 25 10 0 6 -11 10 -25 10 -14 0 -25 -4 -25 -10z"/>
<path d="M47330 14330 c0 -5 7 -10 15 -10 8 0 15 5 15 10 0 6 -7 10 -15 10 -8 0 -15 -4 -15 -10z"/>
<path d="M46770 14290 c0 -5 7 -10 15 -10 8 0 15 5 15 10 0 6 -7 10 -15 10 -8 0 -15 -4 -15 -10z"/>
<path d="M47070 14290 c0 -5 7 -10 15 -10 8 0 15 5 15 10 0 6 -7 10 -15 10 -8 0 -15 -4 -15 -10z"/>
<path d="M47570 14290 c0 -5 7 -10 15 -10 8 0 15 5 15 10 0 6 -7 10 -15 10 -8 0 -15 -4 -15 -10z"/>
<path d="M47740 14250 c0 -5 5 -10 10 -10 6 0 10 5 10 10 0 6 -4 10 -10 10 -5 0 -10 -4 -10 -10z"/>
<path d="M43240 14150 c0 -5 5 -10 10 -10 6 0 10 5 10 10 0 6 -4 10 -10 10 -5 0 -10 -4 -10 -10z"/>
<path d="M17680 14050 c0 -5 5 -10 10 -10 6 0 10 5 10 10 0 6 -4 10 -10 10 -5 0 -10 -4 -10 -10z"/>
<path d="M45780 14050 c0 -5 5 -10 10 -10 6 0 10 5 10 10 0 6 -4 10 -10 10 -5 0 -10 -4 -10 -10z"/>
<path d="M14560 13890 c0 -5 5 -10 10 -10 6 0 10 5 10 10 0 6 -4 10 -10 10 -5 0 -10 -4 -10 -10z"/>
<path d="M17720 13490 c0 -5 5 -10 10 -10 6 0 10 5 10 10 0 6 -4 10 -10 10 -5 0 -10 -4 -10 -10z"/>
<path d="M12340 13250 c0 -5 5 -10 10 -10 6 0 10 5 10 10 0 6 -4 10 -10 10 -5 0 -10 -4 -10 -10z"/>
<path d="M46340 13130 c0 -11 5 -20 10 -20 6 0 10 9 10 20 0 11 -4 20 -10 20 -5 0 -10 -9 -10 -20z"/>
<path d="M8960 13090 c0 -5 5 -10 10 -10 6 0 10 5 10 10 0 6 -4 10 -10 10 -5 0 -10 -4 -10 -10z"/>
<path d="M46380 13050 c0 -13 5 -20 13 -17 6 2 12 10 12 17 0 7 -6 15 -12 18 -8 2 -13 -5 -13 -18z"/>
<path d="M9830 13049 c0 -5 5 -7 10 -4 6 3 10 8 10 11 0 2 -4 4 -10 4 -5 0 -10 -5 -10 -11z"/>
<path d="M46460 12920 c0 -5 5 -10 10 -10 6 0 10 5 10 10 0 6 -4 10 -10 10 -5 0 -10 -4 -10 -10z"/>
<path d="M46500 12840 c0 -11 5 -20 10 -20 6 0 10 9 10 20 0 11 -4 20 -10 20 -5 0 -10 -9 -10 -20z"/>
<path d="M46540 12760 c0 -11 5 -20 10 -20 6 0 10 9 10 20 0 11 -4 20 -10 20 -5 0 -10 -9 -10 -20z"/>
<path d="M18600 12735 c0 -8 5 -15 10 -15 6 0 10 7 10 15 0 8 -4 15 -10 15 -5 0 -10 -7 -10 -15z"/>
<path d="M46580 12685 c0 -14 5 -25 10 -25 6 0 10 11 10 25 0 14 -4 25 -10 25 -5 0 -10 -11 -10 -25z"/>
<path d="M46620 12610 c0 -11 5 -20 10 -20 6 0 10 9 10 20 0 11 -4 20 -10 20 -5 0 -10 -9 -10 -20z"/>
<path d="M11125 12490 c-3 -5 -1 -10 4 -10 6 0 11 5 11 10 0 6 -2 10 -4 10 -3 0 -8 -4 -11 -10z"/>
<path d="M46700 12485 c0 -8 5 -15 10 -15 6 0 10 7 10 15 0 8 -4 15 -10 15 -5 0 -10 -7 -10 -15z"/>
<path d="M46740 12410 c0 -11 5 -20 10 -20 6 0 10 9 10 20 0 11 -4 20 -10 20 -5 0 -10 -9 -10 -20z"/>
<path d="M18600 12410 c0 -5 5 -10 10 -10 6 0 10 5 10 10 0 6 -4 10 -10 10 -5 0 -10 -4 -10 -10z"/>
<path d="M14520 12370 c0 -5 5 -10 10 -10 6 0 10 5 10 10 0 6 -4 10 -10 10 -5 0 -10 -4 -10 -10z"/>
<path d="M46900 12205 c0 -8 5 -15 10 -15 6 0 10 7 10 15 0 8 -4 15 -10 15 -5 0 -10 -7 -10 -15z"/>
<path d="M46937 12127 c-3 -8 -1 -20 4 -28 8 -12 10 -12 19 1 5 8 8 19 7 24 -5 16 -24 18 -30 3z"/>
<path d="M17680 12050 c0 -5 5 -10 10 -10 6 0 10 5 10 10 0 6 -4 10 -10 10 -5 0 -10 -4 -10 -10z"/>
<path d="M46980 12005 c0 -8 5 -15 10 -15 6 0 10 7 10 15 0 8 -4 15 -10 15 -5 0 -10 -7 -10 -15z"/>
<path d="M44160 11990 c0 -5 5 -10 10 -10 6 0 10 5 10 10 0 6 -4 10 -10 10 -5 0 -10 -4 -10 -10z"/>
<path d="M46365 11910 c-3 -5 -1 -10 4 -10 6 0 11 5 11 10 0 6 -2 10 -4 10 -3 0 -8 -4 -11 -10z"/>
<path d="M17720 11890 c0 -5 5 -10 10 -10 6 0 10 5 10 10 0 6 -4 10 -10 10 -5 0 -10 -4 -10 -10z"/>
<path d="M12340 11770 c0 -5 5 -10 10 -10 6 0 10 5 10 10 0 6 -4 10 -10 10 -5 0 -10 -4 -10 -10z"/>
<path d="M47100 11750 c0 -16 5 -30 10 -30 6 0 10 14 10 30 0 17 -4 30 -10 30 -5 0 -10 -13 -10 -30z"/>
<path d="M47260 11530 c0 -11 5 -20 10 -20 6 0 10 9 10 20 0 11 -4 20 -10 20 -5 0 -10 -9 -10 -20z"/>
<path d="M47300 11450 c0 -11 5 -20 10 -20 6 0 10 9 10 20 0 11 -4 20 -10 20 -5 0 -10 -9 -10 -20z"/>
<path d="M47380 11330 c0 -5 5 -10 10 -10 6 0 10 5 10 10 0 6 -4 10 -10 10 -5 0 -10 -4 -10 -10z"/>
<path d="M47420 11290 c0 -5 5 -10 10 -10 6 0 10 5 10 10 0 6 -4 10 -10 10 -5 0 -10 -4 -10 -10z"/>
<path d="M47417 11253 c-8 -12 4 -63 14 -63 5 0 10 9 11 20 0 11 1 25 2 32 1 14 -20 22 -27 11z"/>
<path d="M23440 11070 c0 -5 5 -10 10 -10 6 0 10 5 10 10 0 6 -4 10 -10 10 -5 0 -10 -4 -10 -10z"/>
<path d="M44640 11070 c0 -5 5 -10 10 -10 6 0 10 5 10 10 0 6 -4 10 -10 10 -5 0 -10 -4 -10 -10z"/>
<path d="M47460 11045 c0 -14 5 -25 10 -25 6 0 10 11 10 25 0 14 -4 25 -10 25 -5 0 -10 -11 -10 -25z"/>
<path d="M47500 10965 c0 -8 5 -15 10 -15 6 0 10 7 10 15 0 8 -4 15 -10 15 -5 0 -10 -7 -10 -15z"/>
<path d="M47540 10885 c0 -8 5 -15 10 -15 6 0 10 7 10 15 0 8 -4 15 -10 15 -5 0 -10 -7 -10 -15z"/>
<path d="M9275 10830 c-3 -5 -1 -10 4 -10 6 0 11 5 11 10 0 6 -2 10 -4 10 -3 0 -8 -4 -11 -10z"/>
<path d="M47620 10760 c0 -11 5 -20 10 -20 6 0 10 9 10 20 0 11 -4 20 -10 20 -5 0 -10 -9 -10 -20z"/>
<path d="M47660 10680 c0 -11 5 -20 10 -20 6 0 10 9 10 20 0 11 -4 20 -10 20 -5 0 -10 -9 -10 -20z"/>
<path d="M20890 10610 c0 -5 7 -10 15 -10 8 0 15 5 15 10 0 6 -7 10 -15 10 -8 0 -15 -4 -15 -10z"/>
<path d="M47700 10610 c0 -5 5 -10 10 -10 6 0 10 5 10 10 0 6 -4 10 -10 10 -5 0 -10 -4 -10 -10z"/>
<path d="M47740 10500 c0 -11 5 -20 10 -20 6 0 10 9 10 20 0 11 -4 20 -10 20 -5 0 -10 -9 -10 -20z"/>
<path d="M47780 10410 c0 -11 5 -20 10 -20 6 0 10 9 10 20 0 11 -4 20 -10 20 -5 0 -10 -9 -10 -20z"/>
<path d="M47860 10280 c0 -11 5 -20 10 -20 6 0 10 9 10 20 0 11 -4 20 -10 20 -5 0 -10 -9 -10 -20z"/>
<path d="M47900 10205 c0 -14 5 -25 10 -25 6 0 10 11 10 25 0 14 -4 25 -10 25 -5 0 -10 -11 -10 -25z"/>
<path d="M47940 9975 c0 -19 5 -35 10 -35 6 0 10 16 10 35 0 19 -4 35 -10 35 -5 0 -10 -16 -10 -35z"/>
<path d="M14560 9976 c0 -9 5 -16 10 -16 6 0 10 4 10 9 0 6 -4 13 -10 16 -5 3 -10 -1 -10 -9z"/>
<path d="M47980 9885 c0 -8 5 -15 10 -15 6 0 10 7 10 15 0 8 -4 15 -10 15 -5 0 -10 -7 -10 -15z"/>
<path d="M48020 9810 c0 -11 5 -20 10 -20 6 0 10 9 10 20 0 11 -4 20 -10 20 -5 0 -10 -9 -10 -20z"/>
<path d="M48100 9680 c0 -11 5 -20 10 -20 6 0 10 9 10 20 0 11 -4 20 -10 20 -5 0 -10 -9 -10 -20z"/>
<path d="M48140 9570 c0 -16 5 -30 10 -30 6 0 10 14 10 30 0 17 -4 30 -10 30 -5 0 -10 -13 -10 -30z"/>
<path d="M48180 9460 c0 -16 5 -30 10 -30 6 0 10 14 10 30 0 17 -4 30 -10 30 -5 0 -10 -13 -10 -30z"/>
<path d="M48220 9255 c0 -19 5 -35 10 -35 6 0 10 16 10 35 0 19 -4 35 -10 35 -5 0 -10 -16 -10 -35z"/>
<path d="M48260 9015 c0 -19 5 -35 10 -35 6 0 10 16 10 35 0 19 -4 35 -10 35 -5 0 -10 -16 -10 -35z"/>
<path d="M48300 8850 c0 -16 5 -30 10 -30 6 0 10 14 10 30 0 17 -4 30 -10 30 -5 0 -10 -13 -10 -30z"/>
<path d="M48340 8695 c0 -19 5 -35 10 -35 6 0 10 16 10 35 0 19 -4 35 -10 35 -5 0 -10 -16 -10 -35z"/>
<path d="M45920 8630 c0 -5 5 -10 10 -10 6 0 10 5 10 10 0 6 -4 10 -10 10 -5 0 -10 -4 -10 -10z"/>
<path d="M48380 8550 c0 -5 5 -10 10 -10 6 0 10 5 10 10 0 6 -4 10 -10 10 -5 0 -10 -4 -10 -10z"/>
<path d="M19440 8270 c0 -5 5 -10 10 -10 6 0 10 5 10 10 0 6 -4 10 -10 10 -5 0 -10 -4 -10 -10z"/>
<path d="M2660 7930 c0 -5 5 -10 10 -10 6 0 10 5 10 10 0 6 -4 10 -10 10 -5 0 -10 -4 -10 -10z"/>
<path d="M20700 7890 c0 -5 5 -10 10 -10 6 0 10 5 10 10 0 6 -4 10 -10 10 -5 0 -10 -4 -10 -10z"/>
<path d="M21680 7775 c0 -8 5 -15 10 -15 6 0 10 7 10 15 0 8 -4 15 -10 15 -5 0 -10 -7 -10 -15z"/>
<path d="M46440 7330 c0 -5 5 -10 10 -10 6 0 10 5 10 10 0 6 -4 10 -10 10 -5 0 -10 -4 -10 -10z"/>
<path d="M15580 7170 c0 -5 5 -10 10 -10 6 0 10 5 10 10 0 6 -4 10 -10 10 -5 0 -10 -4 -10 -10z"/>
<path d="M8925 6931 c-3 -5 -1 -12 5 -16 5 -3 10 1 10 9 0 18 -6 21 -15 7z"/>
<path d="M15380 6929 c0 -5 5 -7 10 -4 6 3 10 8 10 11 0 2 -4 4 -10 4 -5 0 -10 -5 -10 -11z"/>
<path d="M15328 6903 c-27 -7 -22 -23 7 -23 16 0 25 6 25 15 0 15 -2 16 -32 8z"/>
<path d="M15238 6867 c-38 -15 -35 -27 7 -27 28 0 35 4 35 20 0 22 -3 23 -42 7z"/>
<path d="M15110 6830 c-8 -5 -32 -10 -52 -10 -21 0 -38 -4 -38 -10 0 -6 30 -10 70 -10 63 0 70 2 70 20 0 22 -24 27 -50 10z"/>
<path d="M14640 6780 l0 -20 177 2 c156 3 178 5 181 19 3 15 -16 17 -177 18 l-181 1 0 -20z"/>
<path d="M10115 6650 c3 -5 10 -10 16 -10 5 0 9 5 9 10 0 6 -7 10 -16 10 -8 0 -12 -4 -9 -10z"/>
<path d="M12380 6610 c0 -5 5 -10 10 -10 6 0 10 5 10 10 0 6 -4 10 -10 10 -5 0 -10 -4 -10 -10z"/>
<path d="M48260 6310 c0 -5 5 -10 10 -10 6 0 10 5 10 10 0 6 -4 10 -10 10 -5 0 -10 -4 -10 -10z"/>
<path d="M43360 6150 c0 -5 5 -10 10 -10 6 0 10 5 10 10 0 6 -4 10 -10 10 -5 0 -10 -4 -10 -10z"/>
<path d="M48140 6030 c0 -5 5 -10 10 -10 6 0 10 5 10 10 0 6 -4 10 -10 10 -5 0 -10 -4 -10 -10z"/>
<path d="M48100 5950 c0 -5 5 -10 10 -10 6 0 10 5 10 10 0 6 -4 10 -10 10 -5 0 -10 -4 -10 -10z"/>
<path d="M48020 5750 c0 -5 5 -10 10 -10 6 0 10 5 10 10 0 6 -4 10 -10 10 -5 0 -10 -4 -10 -10z"/>
<path d="M47980 5680 c-12 -7 -12 -12 -2 -22 9 -9 15 -9 24 0 16 16 -2 34 -22 22z"/>
<path d="M47935 5591 c-3 -5 -1 -12 5 -16 12 -7 30 2 30 16 0 12 -27 12 -35 0z"/>
<path d="M47800 5450 c0 -5 5 -10 10 -10 6 0 10 5 10 10 0 6 -4 10 -10 10 -5 0 -10 -4 -10 -10z"/>
<path d="M13755 5390 c-13 -20 6 -46 45 -63 57 -24 82 -23 78 6 -2 17 -11 23 -34 25 -18 2 -40 12 -50 23 -19 21 -30 24 -39 9z"/>
<path d="M47680 5370 c0 -5 5 -10 10 -10 6 0 10 5 10 10 0 6 -4 10 -10 10 -5 0 -10 -4 -10 -10z"/>
<path d="M47575 5191 c-7 -12 12 -24 25 -16 11 7 4 25 -10 25 -5 0 -11 -4 -15 -9z"/>
<path d="M20440 5136 c0 -8 5 -18 10 -21 6 -3 10 3 10 14 0 12 -4 21 -10 21 -5 0 -10 -6 -10 -14z"/>
<path d="M47360 4970 c0 -5 5 -10 10 -10 6 0 10 5 10 10 0 6 -4 10 -10 10 -5 0 -10 -4 -10 -10z"/>
<path d="M24300 4930 c0 -5 5 -10 10 -10 6 0 10 5 10 10 0 6 -4 10 -10 10 -5 0 -10 -4 -10 -10z"/>
<path d="M47273 4928 c2 -7 10 -13 17 -13 7 0 15 6 18 13 2 7 -5 12 -18 12 -13 0 -20 -5 -17 -12z"/>
<path d="M47160 4850 c0 -5 5 -10 10 -10 6 0 10 5 10 10 0 6 -4 10 -10 10 -5 0 -10 -4 -10 -10z"/>
<path d="M47000 4730 c0 -5 5 -10 10 -10 6 0 10 5 10 10 0 6 -4 10 -10 10 -5 0 -10 -4 -10 -10z"/>
<path d="M19380 4570 c0 -5 5 -10 11 -10 5 0 7 5 4 10 -3 6 -8 10 -11 10 -2 0 -4 -4 -4 -10z"/>
<path d="M22460 4570 c0 -5 5 -10 11 -10 5 0 7 5 4 10 -3 6 -8 10 -11 10 -2 0 -4 -4 -4 -10z"/>
<path d="M45140 4570 c0 -5 5 -10 10 -10 6 0 10 5 10 10 0 6 -4 10 -10 10 -5 0 -10 -4 -10 -10z"/>
<path d="M20462 4544 c2 -15 13 -20 52 -22 36 -2 47 0 44 10 -3 7 -16 14 -29 15 -13 1 -35 5 -48 9 -19 6 -22 4 -19 -12z"/>
<path d="M20203 4543 c-22 -8 -14 -23 11 -23 31 0 56 10 56 21 0 9 -46 11 -67 2z"/>
<path d="M24047 4539 c14 -14 323 -24 323 -11 0 13 -87 22 -219 22 -85 0 -112 -3 -104 -11z"/>
<path d="M45487 4543 c-15 -15 -5 -23 28 -23 39 0 47 14 13 24 -29 7 -33 7 -41 -1z"/>
<path d="M18890 4530 c0 -5 25 -10 55 -10 30 0 55 5 55 10 0 6 -25 10 -55 10 -30 0 -55 -4 -55 -10z"/>
<path d="M19535 4530 c3 -5 17 -10 31 -10 13 0 24 5 24 10 0 6 -14 10 -31 10 -17 0 -28 -4 -24 -10z"/>
<path d="M45220 4530 c0 -5 11 -10 25 -10 14 0 25 5 25 10 0 6 -11 10 -25 10 -14 0 -25 -4 -25 -10z"/>
<path d="M45715 4530 c-3 -5 1 -10 10 -10 9 0 13 5 10 10 -3 6 -8 10 -10 10 -2 0 -7 -4 -10 -10z"/>
<path d="M45850 4530 c0 -5 5 -10 10 -10 6 0 10 5 10 10 0 6 -4 10 -10 10 -5 0 -10 -4 -10 -10z"/>
<path d="M1477 3435 c-313 -52 -595 -236 -770 -502 -135 -207 -191 -397 -191 -653 0 -193 33 -352 103 -500 245 -513 797 -770 1352 -630 67 17 176 60 234 93 11 6 38 21 61 33 102 55 238 179 326 297 32 43 58 83 58 89 0 5 9 21 20 35 24 31 26 59 4 67 -31 12 -240 7 -255 -6 -8 -7 -28 -32 -44 -56 -62 -93 -225 -225 -341 -277 -148 -66 -360 -100 -472 -76 -169 37 -206 49 -304 98 -297 149 -488 472 -488 828 0 148 13 223 57 345 71 199 227 384 404 481 304 166 631 153 920 -37 70 -46 217 -193 243 -242 19 -38 36 -42 174 -42 144 0 145 3 46 153 -83 124 -152 198 -262 281 -204 154 -396 222 -657 231 -86 3 -160 -1 -218 -10z"/>
<path d="M5185 3435 c-305 -49 -576 -210 -759 -448 -150 -196 -250 -528 -232 -768 25 -328 144 -585 370 -796 83 -78 164 -132 286 -192 173 -85 312 -116 520 -116 181 1 267 18 463 93 106 41 266 150 358 243 82 82 193 240 232 329 64 146 101 331 101 500 -2 568 -375 1031 -924 1145 -110 23 -307 27 -415 10z m331 -235 c170 -35 242 -64 369 -150 122 -83 224 -206 298 -360 56 -119 78 -215 84 -375 5 -125 2 -152 -20 -253 -52 -228 -190 -437 -370 -561 -147 -101 -381 -168 -547 -157 -241 15 -461 115 -616 279 -169 178 -253 398 -254 662 0 315 130 577 376 761 115 85 190 116 371 154 116 24 189 24 309 0z"/>
<path d="M37345 3435 c-305 -49 -576 -210 -759 -448 -68 -89 -159 -276 -186 -382 -28 -106 -50 -255 -50 -333 0 -78 33 -271 65 -374 55 -182 204 -396 366 -526 89 -71 261 -166 364 -200 175 -59 445 -76 610 -38 392 88 662 286 845 620 62 113 127 403 100 446 -14 22 -1361 28 -1383 5 -11 -10 -15 -39 -14 -105 0 -77 3 -92 18 -100 11 -6 227 -10 543 -10 289 0 527 -4 530 -8 10 -16 -24 -105 -71 -191 -90 -163 -258 -305 -445 -377 -99 -38 -269 -74 -355 -74 -65 0 -239 33 -317 61 -271 95 -481 327 -558 618 -26 99 -36 326 -18 425 16 90 55 217 87 280 77 151 243 320 389 394 100 51 308 102 415 102 103 0 316 -52 412 -101 87 -45 232 -164 289 -236 22 -29 50 -55 61 -59 27 -8 262 -8 276 0 13 8 -61 128 -129 211 -158 191 -402 333 -670 390 -106 23 -305 28 -415 10z"/>
<path d="M46645 3439 c-72 -14 -164 -44 -209 -68 -57 -30 -150 -105 -190 -154 -73 -89 -136 -266 -136 -382 0 -148 63 -299 168 -403 88 -88 195 -142 432 -222 279 -93 388 -160 447 -274 21 -41 26 -69 31 -153 5 -96 3 -109 -23 -174 -29 -75 -106 -170 -170 -209 -98 -60 -260 -79 -370 -43 -122 39 -228 150 -265 276 -12 40 -27 90 -33 112 l-12 40 -108 3 c-137 3 -150 -3 -142 -66 42 -299 216 -505 495 -585 105 -29 304 -30 406 0 215 63 368 202 440 398 91 253 28 535 -154 680 -78 62 -240 143 -407 203 -197 71 -223 82 -288 120 -78 45 -122 85 -155 141 -25 43 -27 54 -27 161 0 99 3 122 23 167 43 94 157 185 262 208 93 21 219 7 293 -31 81 -42 149 -141 179 -261 6 -26 15 -51 18 -56 9 -11 223 -17 240 -7 13 8 12 20 -3 97 -21 100 -43 155 -91 227 -78 117 -188 194 -345 242 -59 18 -242 26 -306 13z"/>
<path d="M8113 3403 c-10 -4 -13 -238 -13 -1123 0 -1003 2 -1119 16 -1124 23 -9 1077 -7 1090 2 17 10 18 211 2 217 -7 3 -197 6 -423 8 l-410 2 -3 999 c-1 718 -5 1003 -13 1013 -8 9 -41 13 -123 12 -61 0 -117 -3 -123 -6z"/>
<path d="M10712 3402 c-10 -7 -12 -169 -10 -823 l3 -814 24 -94 c53 -213 154 -353 329 -459 201 -122 520 -132 717 -22 212 118 314 252 367 480 l22 95 4 809 c2 603 0 812 -9 822 -9 10 -40 14 -125 14 l-114 0 -5 -22 c-3 -13 -6 -392 -7 -843 l-3 -820 -28 -70 c-72 -180 -175 -267 -365 -306 -55 -12 -74 -11 -144 3 -184 38 -305 141 -370 314 l-23 59 -3 830 c-2 571 -6 833 -14 842 -12 15 -224 19 -246 5z"/>
<path d="M13872 3402 c-10 -7 -13 -234 -13 -1122 -1 -1005 0 -1114 15 -1122 8 -5 60 -7 113 -6 l98 3 3 945 c1 551 6 948 11 953 8 8 61 -88 61 -111 0 -4 7 -20 16 -37 8 -16 45 -97 80 -180 36 -82 76 -172 89 -200 12 -27 42 -95 65 -150 23 -55 52 -122 65 -150 13 -27 46 -104 75 -170 28 -66 55 -129 60 -140 5 -11 21 -49 36 -85 14 -36 30 -70 34 -75 5 -6 18 -35 30 -65 12 -30 30 -73 40 -95 32 -68 141 -317 162 -370 10 -27 27 -56 36 -63 17 -13 139 -17 158 -4 7 4 28 47 48 95 34 82 130 304 161 372 62 136 220 501 364 840 12 28 28 64 36 80 42 93 96 216 113 260 45 113 112 246 122 240 7 -4 10 -315 10 -945 l0 -940 23 -5 c12 -3 67 -5 122 -3 l100 3 3 1114 c1 815 -1 1117 -9 1127 -9 11 -49 14 -175 14 -186 0 -181 2 -214 -87 -21 -57 -63 -155 -113 -263 -14 -30 -46 -104 -72 -165 -26 -60 -57 -132 -70 -160 -30 -64 -195 -442 -228 -520 -14 -33 -44 -99 -66 -147 -23 -48 -41 -90 -41 -93 0 -4 -16 -41 -36 -83 -19 -42 -40 -86 -45 -97 -4 -11 -24 -55 -44 -99 -19 -43 -35 -84 -35 -90 0 -6 -9 -22 -20 -36 l-19 -25 -6 20 c-4 11 -17 43 -30 70 -13 28 -40 91 -61 140 -20 50 -40 95 -45 100 -6 9 -56 122 -323 735 -42 96 -92 208 -111 248 -19 39 -35 78 -35 85 0 7 -4 17 -9 22 -5 6 -36 74 -70 153 -34 78 -73 167 -86 197 -14 29 -25 59 -25 65 0 6 -12 15 -26 20 -30 12 -304 13 -322 2z"/>
<path d="M17915 3388 c-3 -12 -4 -520 -3 -1128 l3 -1105 405 0 405 0 80 23 c94 27 223 97 294 159 140 122 216 358 177 548 -36 180 -150 330 -308 408 -43 21 -78 40 -78 42 0 2 28 24 63 49 141 100 212 249 211 441 0 224 -92 388 -274 493 -136 79 -173 85 -597 90 l-372 4 -6 -24z m730 -230 c120 -36 182 -84 227 -176 28 -58 33 -80 36 -164 5 -122 -19 -212 -74 -277 -87 -101 -152 -119 -444 -123 l-215 -2 -3 369 c-1 204 0 376 3 383 7 18 402 10 470 -10z m148 -1002 c145 -61 224 -173 234 -335 9 -142 -33 -260 -116 -330 -108 -90 -182 -106 -496 -106 l-240 0 -5 398 c-3 219 -3 401 0 403 2 3 128 4 280 2 l275 -3 68 -29z"/>
<path d="M20915 3388 c-3 -13 -4 -520 -3 -1128 l3 -1105 125 0 125 0 3 1114 c1 815 -1 1117 -9 1127 -8 10 -42 14 -125 14 l-114 0 -5 -22z"/>
<path d="M23562 3401 c-7 -4 -43 -80 -79 -167 -36 -87 -92 -224 -125 -304 -33 -80 -73 -176 -88 -215 -30 -78 -50 -124 -86 -203 -13 -29 -24 -55 -24 -58 0 -8 -205 -498 -251 -599 -12 -27 -32 -77 -45 -110 -12 -33 -49 -125 -82 -205 -33 -80 -76 -185 -97 -235 -20 -49 -41 -94 -46 -99 -14 -15 -11 -43 7 -50 9 -3 64 -6 124 -6 123 0 140 8 163 75 37 106 194 484 214 518 l24 37 504 0 505 -1 26 -52 c15 -28 37 -78 50 -112 12 -33 44 -109 69 -170 25 -60 57 -139 71 -175 47 -123 37 -115 144 -118 116 -4 180 4 180 23 0 7 -7 26 -15 42 -18 34 -145 341 -210 508 -26 66 -54 134 -62 150 -8 17 -48 113 -90 215 -41 102 -86 210 -98 240 -12 30 -59 145 -104 255 -45 110 -92 225 -105 255 -14 30 -50 118 -82 195 -31 77 -69 169 -84 205 -15 36 -33 82 -40 103 -20 63 -29 67 -148 67 -59 0 -113 -4 -120 -9z m143 -379 c4 -15 22 -63 40 -107 19 -44 54 -132 78 -195 107 -276 258 -656 268 -673 5 -10 7 -22 4 -27 -7 -11 -837 -14 -847 -4 -4 3 0 18 7 32 8 15 48 117 90 227 42 110 90 232 105 270 16 39 61 153 101 255 39 102 77 199 84 215 7 17 16 38 19 49 6 18 7 18 25 2 11 -10 22 -30 26 -44z"/>
<path d="M28355 3388 c-3 -13 -4 -520 -3 -1128 l3 -1105 125 0 125 0 5 510 5 510 517 2 c284 2 519 -1 522 -6 3 -4 6 -234 6 -510 l1 -501 22 -5 c12 -3 72 -5 132 -3 l110 3 3 1114 c1 815 -1 1117 -9 1127 -8 10 -41 14 -119 14 -60 0 -115 -3 -124 -6 -14 -5 -16 -59 -16 -498 l1 -491 -523 0 -523 0 -3 484 c-1 337 -6 488 -13 498 -8 9 -42 13 -125 13 l-114 0 -5 -22z"/>
<path d="M31635 3388 c-3 -13 -4 -520 -3 -1128 l3 -1105 598 -3 c363 -1 605 2 616 7 15 9 17 23 15 111 -1 56 -4 104 -7 106 -2 2 -219 5 -483 7 l-479 2 0 395 0 395 479 2 c264 2 481 5 483 7 10 10 9 207 -1 214 -6 4 -225 9 -486 12 l-475 5 0 380 0 380 479 2 c264 2 481 5 483 7 3 2 5 51 6 107 l2 103 -25 7 c-14 4 -289 7 -612 8 l-588 1 -5 -22z"/>
<path d="M34515 3388 c-3 -13 -4 -520 -3 -1128 l3 -1105 125 0 125 0 3 1114 c1 815 -1 1117 -9 1127 -8 10 -42 14 -125 14 l-114 0 -5 -22z"/>
<path d="M40275 3388 c-3 -13 -4 -520 -3 -1128 l3 -1105 125 0 125 0 5 510 5 510 517 2 c285 1 520 -2 522 -6 3 -5 6 -234 6 -510 l1 -501 22 -5 c12 -3 72 -5 132 -3 l110 3 3 1114 c1 815 -1 1117 -9 1127 -8 10 -41 14 -119 14 -60 0 -115 -3 -124 -6 -14 -5 -16 -59 -16 -498 l1 -491 -523 0 -523 0 -3 484 c-1 337 -6 488 -13 498 -8 9 -42 13 -125 13 l-114 0 -5 -22z"/>
<path d="M43333 3403 c-15 -5 -18 -189 -4 -211 6 -11 66 -14 272 -15 l264 -2 5 -1010 5 -1010 110 -3 c61 -2 120 0 132 3 l22 5 1 1001 c0 551 3 1005 6 1010 3 5 123 8 266 8 247 -1 262 0 269 17 13 32 10 189 -3 202 -9 9 -171 12 -673 11 -363 0 -666 -3 -672 -6z"/>
</g>
</g>
  <g id="id2:id2" transform="matrix(1.25,0,0,1.25,0.0,0.0)"><g transform="translate(0.000000,891.200000) scale(0.040000,-0.040000)" fill="#b5121b" stroke="none">
<path d="M12413 19205 c-18 -12 -23 -26 -23 -58 0 -24 -9 -60 -20 -82 -11 -22 -20 -51 -20 -65 0 -14 -9 -42 -20 -63 -11 -20 -20 -52 -20 -71 0 -18 -9 -45 -20 -59 -19 -24 -20 -40 -20 -270 0 -231 1 -245 20 -262 16 -14 20 -31 20 -80 0 -49 4 -66 20 -80 l20 -18 0 -272 c0 -257 -1 -274 -20 -298 -19 -23 -20 -40 -20 -250 0 -211 1 -225 20 -242 l20 -18 0 -662 0 -662 20 -18 c18 -17 20 -31 20 -175 0 -144 -2 -158 -20 -175 -18 -16 -20 -31 -20 -140 0 -109 -2 -124 -20 -140 l-20 -18 0 -807 0 -807 20 -18 c15 -14 20 -31 20 -70 0 -37 -6 -60 -20 -78 -17 -21 -20 -40 -20 -120 0 -79 -3 -98 -20 -120 -19 -24 -20 -40 -20 -270 0 -231 1 -245 20 -262 18 -16 20 -31 20 -140 0 -109 2 -124 20 -140 19 -17 20 -31 20 -210 0 -177 -2 -194 -20 -218 l-20 -25 0 -505 0 -504 20 -18 20 -18 0 -357 0 -357 -20 -18 c-15 -13 -20 -31 -20 -65 0 -34 5 -52 20 -65 l20 -18 0 -1102 0 -1102 20 -18 c11 -10 20 -26 20 -35 0 -9 -9 -25 -20 -35 -18 -17 -20 -31 -20 -185 0 -154 2 -168 20 -185 19 -17 20 -31 20 -270 0 -237 -1 -254 -20 -278 l-20 -25 0 -345 0 -344 20 -18 20 -18 0 -602 0 -602 20 -18 c11 -10 20 -28 20 -41 0 -28 54 -84 82 -84 11 0 31 -9 45 -20 24 -19 41 -20 288 -20 l262 0 18 20 18 20 902 0 901 0 39 40 c44 45 64 49 90 20 17 -18 31 -20 165 -20 134 0 148 2 165 20 14 16 31 20 80 20 49 0 66 4 80 20 12 13 31 20 55 20 25 0 45 8 63 24 21 20 34 24 61 19 27 -4 38 -1 52 16 10 11 29 21 41 21 12 0 31 10 43 22 15 16 30 21 58 20 29 -2 45 4 65 22 21 20 34 24 61 19 27 -4 38 -1 52 16 10 11 29 21 41 21 13 0 32 11 44 24 13 14 28 22 39 19 12 -3 27 5 40 20 13 15 29 23 37 20 8 -3 27 4 43 16 16 11 38 21 50 21 11 0 36 18 56 40 22 25 45 40 59 40 29 0 85 55 85 83 0 30 167 197 197 197 14 0 37 16 59 40 26 29 44 40 65 40 16 0 29 6 30 13 0 6 38 46 84 87 66 59 83 80 81 98 -2 16 4 28 20 39 16 10 24 25 24 44 0 18 8 34 20 41 12 8 20 24 20 40 0 17 8 33 20 40 12 8 20 24 20 40 0 17 8 33 20 40 12 8 20 24 20 40 0 17 8 33 20 40 12 8 20 24 20 40 0 17 8 33 20 40 12 8 20 24 20 40 0 15 8 33 20 41 17 12 19 27 21 133 1 109 3 121 25 144 12 14 39 56 59 95 20 38 46 80 58 93 15 16 22 37 23 74 1 34 7 55 18 63 14 11 16 39 16 217 0 192 1 206 20 223 17 15 20 31 20 97 0 65 4 85 20 105 18 23 20 41 20 157 0 114 3 135 20 161 18 27 20 47 20 199 0 152 2 172 20 201 l20 33 -2 840 c-3 784 -4 841 -20 859 -17 18 -18 53 -18 435 l0 415 20 18 21 19 -3 592 c-3 547 -4 593 -20 611 -13 14 -18 36 -18 75 0 40 -5 62 -20 81 -11 14 -20 30 -20 36 0 6 9 16 20 23 17 11 20 24 20 79 0 54 4 69 21 85 l20 18 -3 187 c-3 161 -5 190 -20 206 -16 17 -18 42 -18 195 0 164 1 176 21 194 l20 18 -3 192 c-3 166 -5 195 -20 211 -16 18 -18 46 -18 275 l0 255 -20 18 c-17 15 -20 31 -20 95 0 65 3 80 20 95 l21 19 -4 205 c-2 160 -6 215 -19 246 -14 35 -16 109 -17 558 -2 471 -3 521 -19 545 -14 22 -18 57 -20 203 -3 160 -6 179 -23 195 -15 13 -19 31 -19 81 0 50 -4 67 -20 83 -16 16 -20 33 -20 95 0 55 -5 83 -17 102 -12 18 -18 54 -21 122 -3 61 -9 102 -18 111 -7 9 -16 36 -20 60 -4 25 -13 52 -20 60 -7 9 -16 43 -20 75 -3 33 -13 71 -22 85 -12 18 -17 59 -20 150 -4 97 -9 133 -23 160 -11 19 -19 43 -19 53 0 10 -9 30 -20 44 -11 14 -20 34 -20 44 0 11 -9 28 -20 39 -11 11 -20 31 -20 45 0 14 -4 25 -9 25 -9 0 -53 69 -94 150 -58 114 -234 378 -306 458 -31 35 -69 80 -84 100 -15 21 -69 79 -120 130 -307 311 -679 501 -983 502 -66 0 -78 7 -89 52 -5 19 -20 34 -51 49 -51 24 -83 20 -127 -17 -16 -13 -41 -24 -57 -24 -15 0 -44 -7 -63 -15 -20 -8 -47 -15 -61 -15 -23 0 -32 8 -99 93 -19 24 -34 30 -110 42 -260 42 -449 49 -1304 46 -734 -1 -1002 4 -1233 25 -51 4 -70 2 -87 -11z m2390 -2235 c13 -16 29 -20 80 -20 51 0 66 -4 81 -21 14 -17 25 -20 53 -16 28 5 39 2 58 -18 12 -14 34 -25 48 -25 16 0 36 -13 57 -36 18 -21 43 -38 57 -40 33 -3 73 -42 73 -70 0 -14 16 -38 40 -60 28 -26 40 -45 40 -65 0 -18 7 -32 20 -39 17 -9 20 -21 20 -75 0 -51 4 -68 20 -83 18 -17 19 -33 21 -260 l1 -242 44 -45 c24 -25 44 -53 44 -61 0 -9 -11 -30 -25 -46 l-25 -30 0 -210 c1 -194 3 -211 21 -226 18 -15 19 -31 19 -218 0 -188 -1 -202 -20 -219 -18 -16 -20 -31 -20 -144 l0 -125 37 -38 c35 -35 36 -38 20 -56 -9 -10 -17 -34 -17 -54 0 -20 -9 -46 -20 -61 -19 -24 -20 -39 -20 -227 1 -186 3 -203 21 -218 15 -13 19 -30 19 -86 0 -54 4 -72 18 -82 16 -12 14 -16 -20 -51 -36 -36 -38 -43 -38 -101 0 -48 4 -65 20 -80 18 -17 20 -32 20 -281 1 -247 2 -263 21 -279 18 -15 19 -31 19 -258 0 -229 -1 -242 -20 -259 -18 -16 -20 -30 -19 -123 1 -89 4 -106 20 -120 18 -16 19 -35 19 -378 l0 -361 -20 -18 c-19 -17 -20 -30 -19 -162 0 -128 3 -146 20 -161 17 -16 19 -34 20 -164 0 -131 3 -148 20 -164 17 -16 19 -32 19 -189 0 -159 -1 -173 -20 -190 -11 -10 -20 -31 -20 -46 0 -18 -8 -34 -20 -41 -18 -12 -20 -24 -20 -124 0 -100 2 -113 21 -130 l21 -19 -4 -271 c-4 -233 -7 -274 -21 -294 -24 -35 -23 -112 3 -135 14 -12 20 -31 20 -57 0 -25 8 -50 21 -66 20 -25 21 -35 14 -136 -5 -74 -12 -118 -23 -134 -14 -22 -16 -63 -16 -304 l1 -279 23 -24 c21 -22 22 -31 18 -119 -3 -71 -8 -100 -21 -114 -15 -17 -17 -59 -17 -473 l0 -454 -20 -25 c-11 -14 -20 -33 -20 -44 0 -22 -139 -168 -190 -200 -120 -76 -385 -130 -600 -124 l-105 3 -3 31 c-2 18 -12 40 -23 50 l-19 17 0 336 c0 292 -2 340 -16 359 -9 13 -18 49 -21 82 -5 52 -3 59 17 70 16 9 20 18 16 34 -4 16 1 29 14 41 24 21 25 43 5 69 -9 12 -15 42 -15 79 0 45 -4 63 -17 72 -17 13 -17 14 0 32 15 17 17 44 17 222 0 163 -3 208 -16 232 -8 17 -18 53 -21 82 -3 29 -13 60 -21 70 -10 11 -17 45 -20 95 -4 69 -2 79 17 96 19 17 21 30 21 121 0 89 2 104 20 120 19 17 20 31 20 204 0 161 -2 190 -17 211 -14 19 -19 51 -21 137 -4 105 -3 112 17 125 18 11 21 22 21 83 0 43 -5 78 -14 90 -7 11 -17 31 -21 45 -4 14 -16 36 -26 49 -27 33 -26 112 1 136 19 17 20 31 20 203 0 170 -2 187 -19 206 -18 19 -20 38 -22 219 l-1 198 21 15 21 15 0 648 0 648 -20 26 c-19 24 -20 40 -20 295 0 250 1 270 19 286 16 15 19 37 23 180 3 131 8 167 21 186 15 21 17 57 17 280 0 212 -3 260 -16 285 -12 23 -17 77 -21 245 -5 193 -7 217 -24 236 l-19 20 0 591 0 591 19 23 18 23 -18 40 c-26 57 -25 145 1 179 17 21 20 40 20 130 0 79 -4 108 -14 116 -8 7 -18 25 -21 41 -3 15 -15 45 -26 66 -12 25 -19 59 -19 98 0 42 -5 65 -17 79 -13 13 -19 41 -21 94 -4 66 -2 77 18 98 20 21 21 32 19 124 -3 94 -1 102 20 122 19 18 22 29 17 57 -5 31 -1 40 42 83 l47 48 85 1 c74 0 88 -3 103 -20z"/>
<path d="M7970 19173 c-36 -13 -69 -28 -74 -34 -16 -15 -243 -11 -321 6 -39 8 -119 18 -180 21 -60 4 -115 11 -121 15 -14 11 -167 6 -279 -10 -97 -14 -122 -27 -188 -96 -65 -68 -177 -250 -177 -289 0 -7 -7 -28 -17 -46 -9 -19 -18 -56 -21 -84 -2 -28 -8 -56 -13 -62 -11 -13 -11 -23 -11 -174 0 -158 0 -168 12 -175 5 -3 10 -24 10 -46 0 -22 11 -66 25 -99 30 -72 31 -95 5 -138 -11 -17 -23 -51 -26 -75 -4 -23 -12 -48 -18 -56 -15 -19 -14 -244 0 -262 6 -8 14 -53 18 -100 3 -48 13 -123 22 -169 13 -69 14 -149 10 -504 -2 -231 -7 -439 -10 -461 -3 -22 -11 -101 -17 -176 l-12 -136 28 -46 27 -47 -13 -113 c-15 -130 -22 -436 -10 -452 5 -5 11 -89 15 -185 4 -96 12 -227 18 -290 6 -63 11 -151 12 -195 0 -86 -29 -296 -46 -332 -6 -12 -7 -29 -3 -40 11 -22 36 -225 35 -275 0 -20 4 -39 10 -43 13 -8 14 -881 1 -890 -12 -7 -12 -263 0 -271 5 -3 9 -87 9 -186 0 -181 15 -354 31 -372 14 -15 10 -69 -7 -91 -14 -19 -37 -86 -39 -115 -1 -8 -5 -27 -9 -41 -6 -22 -1 -37 28 -78 31 -43 36 -59 36 -105 0 -30 -4 -57 -9 -60 -19 -12 -23 -105 -31 -721 -5 -352 -11 -660 -14 -685 -28 -219 -31 -859 -6 -975 6 -27 16 -88 21 -135 5 -47 16 -110 24 -140 27 -107 27 -659 -1 -980 -19 -230 -23 -310 -23 -497 -1 -206 11 -358 30 -377 5 -6 9 -26 9 -45 0 -20 5 -54 11 -76 12 -41 8 -73 -28 -262 -17 -88 -14 -312 5 -336 13 -17 26 -120 24 -207 0 -41 -1 -343 -2 -670 0 -605 -7 -779 -33 -883 l-14 -57 29 -38 c17 -20 38 -55 48 -78 10 -23 36 -60 57 -83 47 -48 71 -51 218 -24 111 20 121 20 425 -8 63 -5 221 -8 350 -6 l235 4 68 26 c37 15 74 27 81 27 7 0 33 -13 57 -30 57 -38 128 -41 191 -7 l43 22 420 0 420 0 44 24 c24 14 58 24 75 24 59 -1 151 -15 196 -31 37 -13 117 -16 445 -19 364 -4 406 -6 469 -25 84 -24 139 -20 224 16 l62 27 73 -15 c39 -8 86 -20 103 -26 41 -14 315 -7 374 9 105 30 196 90 245 160 26 39 28 48 27 136 0 66 -6 103 -17 125 -15 29 -15 36 -2 64 31 65 50 144 42 173 -5 15 -7 36 -6 46 1 10 -2 24 -7 30 -21 28 -20 623 2 822 21 186 25 241 26 317 0 48 -4 98 -10 112 -11 30 -84 86 -114 87 -22 0 -85 31 -129 62 l-25 18 -40 -21 c-74 -39 -384 -37 -612 4 -80 14 -86 14 -105 -3 -23 -21 -143 -45 -220 -44 -88 2 -259 25 -290 39 -62 29 -376 52 -470 35 -50 -10 -387 -35 -435 -33 -91 3 -175 24 -217 54 -45 33 -48 38 -58 127 -3 30 -13 70 -21 89 -8 19 -14 58 -14 86 0 28 -5 83 -11 121 -6 39 -11 82 -10 97 1 15 -3 29 -9 33 -14 9 -14 1157 0 1207 12 42 19 985 8 1058 -3 25 -11 96 -17 159 -6 62 -18 136 -26 164 -19 65 -19 116 0 137 25 28 47 129 42 195 -9 114 -26 230 -41 288 -10 34 -16 99 -16 159 l0 101 50 50 50 50 50 -5 c38 -4 58 -12 80 -33 24 -23 34 -26 57 -20 15 5 51 9 79 10 50 1 65 7 127 57 34 28 98 29 154 5 34 -15 114 -33 184 -41 14 -1 32 -7 40 -12 8 -5 267 -12 589 -15 316 -4 591 -10 610 -14 19 -3 60 -9 91 -12 l55 -5 27 41 c42 63 70 198 63 296 -3 44 -8 96 -11 115 -4 19 -9 106 -11 194 -4 128 -2 168 10 207 9 27 19 70 23 96 3 27 12 55 20 64 7 9 16 45 19 80 5 60 4 67 -30 122 -33 54 -35 61 -22 85 21 43 39 162 33 222 -10 110 -29 215 -43 231 -18 21 -18 26 6 56 11 14 20 35 20 45 0 11 9 59 21 106 11 47 18 95 15 108 -8 30 -160 170 -194 179 -15 4 -34 13 -42 20 -21 19 -134 56 -200 66 -30 4 -82 13 -115 19 -55 10 -284 8 -395 -3 -25 -3 -106 -10 -180 -16 -74 -6 -148 -14 -165 -18 -84 -19 -367 -27 -425 -13 -25 7 -142 15 -260 19 l-216 8 -47 27 c-70 41 -77 74 -78 365 0 130 -4 358 -9 506 -5 149 -9 405 -9 570 -1 263 3 376 23 765 2 47 11 135 19 195 13 96 13 115 1 150 -35 96 -60 401 -40 490 4 17 11 107 17 200 6 94 13 190 15 215 2 25 8 88 12 140 4 52 11 100 15 107 4 7 24 15 45 19 20 4 44 12 52 19 8 7 37 16 63 19 26 4 64 15 85 24 33 15 93 17 620 15 321 -1 591 -5 600 -9 33 -15 691 -25 757 -11 17 3 70 11 120 17 49 5 108 17 130 24 22 8 57 17 77 21 20 3 47 14 60 24 l23 19 7 584 c11 788 11 757 0 1073 -11 328 -21 425 -43 425 -5 0 -27 11 -47 25 -25 17 -50 25 -79 25 -23 0 -44 4 -47 9 -7 11 -176 9 -193 -2 -7 -4 -112 -9 -235 -10 l-223 -2 -45 23 c-25 13 -53 28 -63 33 -13 7 -23 7 -32 -1 -14 -12 -123 -33 -160 -31 -11 0 -58 5 -105 10 -47 5 -124 10 -172 10 -48 1 -90 6 -93 11 -3 6 -17 10 -30 10 -13 0 -27 -4 -30 -10 -3 -5 -30 -10 -58 -10 -29 0 -80 -10 -114 -22 l-62 -22 -20 18 c-19 17 -91 37 -131 37 -8 0 -71 -10 -140 -22 -118 -21 -161 -22 -733 -26 l-607 -3 -21 35 c-24 41 -32 41 -119 8z"/>
<path d="M1145 19172 c-53 -3 -151 -30 -197 -53 l-37 -19 -61 35 c-34 19 -68 35 -76 35 -8 0 -40 -13 -72 -29 -31 -15 -75 -34 -97 -41 -52 -16 -115 -53 -143 -83 -29 -31 -62 -178 -62 -277 0 -115 26 -271 69 -420 56 -191 71 -282 71 -429 -1 -141 -12 -200 -64 -347 -67 -189 -70 -366 -15 -784 l22 -165 -19 -55 c-16 -46 -19 -83 -18 -225 1 -95 6 -190 13 -215 6 -25 14 -117 18 -205 5 -142 4 -164 -12 -195 -18 -34 -45 -123 -45 -147 0 -7 16 -27 35 -44 46 -42 48 -54 29 -135 -23 -94 -23 -283 0 -393 l18 -83 -32 -72 -32 -71 5 -105 c4 -58 16 -148 28 -200 11 -52 25 -115 31 -140 5 -26 7 -111 3 -200 -6 -140 -4 -161 14 -214 18 -51 21 -83 21 -235 0 -97 -5 -205 -10 -241 -35 -238 -32 -437 11 -582 l19 -67 -20 -38 c-11 -22 -24 -74 -30 -117 -10 -83 -5 -107 32 -137 l19 -15 -20 -85 c-43 -177 -50 -480 -14 -628 13 -55 14 -84 3 -204 -8 -102 -10 -353 -5 -936 6 -706 5 -814 -10 -956 -9 -88 -21 -176 -27 -197 l-11 -36 47 -57 c25 -31 49 -68 52 -81 14 -56 -3 -208 -34 -299 -42 -124 -47 -195 -26 -335 22 -141 23 -291 4 -389 l-14 -73 26 -48 c36 -65 48 -200 25 -281 -9 -29 -21 -87 -27 -127 l-12 -73 47 -50 46 -49 -6 -103 c-10 -177 -26 -349 -40 -447 -31 -204 -39 -344 -38 -635 0 -301 10 -425 40 -537 17 -64 16 -77 -21 -253 -39 -182 -49 -320 -36 -498 6 -84 15 -165 19 -182 5 -16 15 -61 21 -98 l13 -69 61 -45 c71 -52 251 -143 283 -143 13 0 41 7 63 16 59 24 368 15 500 -15 169 -38 220 -43 369 -38 120 4 166 10 261 35 70 18 153 32 213 36 86 5 105 3 144 -15 l45 -20 26 17 c53 34 153 143 173 188 35 80 42 196 30 467 -11 246 -26 376 -58 500 -14 57 -15 77 -4 135 25 148 34 523 22 989 -13 523 -14 818 -2 963 l9 103 -27 47 c-34 60 -35 153 -3 222 27 57 27 79 0 132 -30 57 -36 175 -13 278 28 128 28 142 6 215 l-21 68 17 56 c22 74 22 290 -1 461 -9 69 -21 157 -26 195 -15 108 -12 378 5 472 22 129 30 320 15 396 -17 93 -5 115 80 144 143 49 334 16 459 -79 14 -10 56 -53 94 -96 38 -42 109 -118 158 -169 48 -50 95 -103 104 -117 32 -48 48 -239 49 -556 0 -283 -6 -386 -39 -624 l-14 -108 24 -49 c67 -131 71 -292 16 -642 -12 -76 -2 -179 25 -249 22 -57 21 -98 -5 -183 l-21 -70 -2 -660 c-2 -683 5 -905 43 -1338 32 -373 70 -610 120 -761 28 -83 74 -179 96 -198 20 -18 220 -69 358 -93 220 -36 301 -39 1085 -40 426 -1 832 -5 901 -9 l125 -8 31 26 c40 33 63 102 63 184 l0 64 -58 71 c-32 40 -69 88 -82 107 -12 19 -63 76 -111 125 l-89 90 -25 85 c-68 226 -119 475 -154 755 -37 293 -44 456 -37 876 6 349 5 403 -9 444 -12 35 -16 86 -16 203 0 158 5 194 61 462 29 139 34 350 21 890 -16 686 -50 1088 -127 1515 -34 184 -66 303 -113 420 -61 149 -65 153 -159 194 l-84 37 -29 61 c-16 34 -49 81 -72 105 -41 42 -161 138 -173 138 -3 0 -18 8 -32 19 -15 10 -90 51 -167 91 -151 78 -268 155 -262 173 4 12 0 10 133 75 100 49 116 59 230 137 139 95 396 376 477 522 7 12 29 51 49 87 91 159 166 380 193 561 4 28 8 181 10 340 2 258 5 301 24 390 13 55 29 119 37 143 19 58 18 345 -2 527 -19 173 -20 557 -3 726 7 68 13 241 14 384 l0 260 -32 65 c-31 60 -33 72 -33 165 0 55 5 118 11 140 29 100 5 262 -63 433 -25 63 -30 94 -38 215 -7 118 -13 156 -38 227 -39 112 -84 212 -154 340 -85 158 -117 244 -177 466 -33 123 -371 534 -636 773 -189 171 -204 181 -259 181 -59 0 -133 29 -188 72 -165 132 -297 176 -489 163 -125 -8 -264 14 -370 61 -69 30 -86 34 -166 34 -50 -1 -103 -7 -123 -15 -105 -41 -172 -65 -180 -65 -5 0 -16 15 -25 34 -15 31 -50 56 -80 56 -21 0 -100 -71 -100 -91 -1 -31 -9 -29 -50 6 l-39 35 -111 0 c-61 0 -161 -5 -221 -12 -60 -7 -158 -13 -219 -13 l-110 0 -1 24 c-1 13 -8 27 -15 32 -30 19 -126 8 -257 -28 l-133 -37 -24 30 -23 29 -158 10 c-88 6 -177 9 -199 7z m2555 -1177 c0 -32 -12 -37 -38 -19 -28 19 -28 32 1 43 28 11 37 6 37 -24z m492 -325 c-1 -19 -15 -87 -31 -150 -21 -88 -32 -116 -45 -118 -43 -9 -84 81 -53 116 29 33 77 129 77 154 0 31 8 40 35 36 16 -2 20 -9 17 -38z m559 -211 c19 -6 40 -13 48 -15 12 -4 12 -7 -1 -20 -14 -14 -22 -14 -54 -4 -46 15 -66 29 -58 41 7 12 24 11 65 -2z m-1829 -384 c248 -29 425 -93 550 -198 102 -87 107 -99 123 -289 42 -486 55 -990 44 -1648 -7 -434 2 -1246 17 -1492 l7 -107 -25 -33 c-13 -18 -46 -79 -72 -134 l-48 -102 17 -53 c10 -30 24 -66 32 -81 12 -25 11 -31 -13 -70 -104 -169 -333 -299 -574 -325 -101 -12 -310 -7 -323 6 -23 23 -68 451 -87 816 -27 540 -36 1755 -22 3072 6 524 9 604 22 618 34 33 174 41 352 20z m1744 -380 l19 -15 -35 -30 c-38 -33 -85 -50 -141 -50 -40 0 -55 12 -61 50 -3 22 2 26 57 42 76 21 136 22 161 3z m-3379 -37 c4 -7 6 -23 5 -35 -9 -68 89 -184 204 -239 l74 -35 0 -51 c0 -63 -20 -106 -81 -172 l-47 -51 -24 22 c-12 12 -36 25 -51 29 -42 10 -42 27 -3 79 28 36 36 56 36 88 0 68 -29 97 -166 166 -67 34 -134 71 -148 82 -32 25 -61 78 -49 90 30 30 234 52 250 27z m579 -43 c9 -14 17 -48 18 -77 l1 -53 -27 -3 c-41 -5 -62 34 -53 95 4 27 9 51 12 56 9 15 33 6 49 -18z m2926 -591 c4 -3 -3 -26 -14 -51 -11 -25 -21 -70 -23 -101 l-4 -57 -48 -9 c-26 -4 -64 -9 -82 -10 -41 -1 -48 15 -50 102 -1 42 3 54 17 58 9 3 51 21 92 40 73 33 101 40 112 28z m-3255 -819 c23 -14 43 -27 43 -29 0 -2 -7 -17 -15 -32 -8 -16 -15 -39 -15 -51 0 -34 -16 -36 -38 -6 -35 49 -52 143 -26 143 4 0 27 -11 51 -25z m-252 -256 c8 -12 -21 -93 -38 -107 -18 -16 -81 0 -85 21 -2 10 13 34 36 57 39 39 74 51 87 29z m3960 -1089 c6 -5 10 -44 10 -87 0 -85 -16 -110 -27 -42 -4 23 -16 52 -27 63 -25 28 -43 64 -37 75 6 9 66 2 81 -9z m-172 -356 c9 -10 -61 -77 -72 -69 -16 9 -41 61 -34 69 8 8 98 8 106 0z m-877 -758 c14 -38 -55 -106 -93 -92 -24 9 -15 63 13 85 31 24 72 28 80 7z m-2147 -751 c30 -8 61 -21 70 -30 15 -15 14 -18 -4 -31 -13 -10 -33 -14 -57 -11 -40 5 -141 65 -132 78 8 13 62 11 123 -6z m1953 -206 l20 -11 -42 -43 c-23 -24 -59 -51 -80 -60 -35 -16 -40 -16 -69 -1 -17 9 -31 21 -31 27 0 23 32 69 58 83 32 18 115 21 144 5z m-2452 -326 c0 -46 -96 -173 -119 -159 -20 13 -11 41 41 125 47 76 53 82 65 65 7 -10 13 -24 13 -31z m888 -378 c5 -69 -10 -79 -128 -83 -57 -3 -106 0 -111 5 -15 15 60 92 106 108 22 8 60 14 85 12 l45 -2 3 -40z m1580 -92 c-6 -31 -52 -53 -132 -63 -68 -9 -83 -8 -105 6 -23 16 -23 18 -7 30 10 7 50 18 89 24 40 6 83 17 97 25 29 16 63 3 58 -22z m-2525 6 c7 -11 5 -25 -4 -45 -13 -27 -19 -29 -73 -32 -32 -2 -64 2 -69 7 -16 16 18 48 58 55 18 4 39 13 45 22 15 17 29 14 43 -7z m2950 -208 l47 -20 0 -41 c0 -39 -2 -42 -44 -60 -25 -10 -76 -45 -115 -77 -70 -60 -135 -90 -156 -73 -20 17 -78 148 -72 164 4 9 18 16 34 16 43 0 128 26 156 46 13 11 29 32 35 48 13 33 32 33 115 -3z m-2753 -185 c0 -25 -7 -38 -26 -51 -24 -16 -27 -16 -45 1 -13 12 -19 28 -17 48 3 27 8 32 38 37 46 7 50 4 50 -35z m-254 -391 c4 -8 3 -22 0 -31 -6 -15 -9 -14 -31 6 -13 13 -22 27 -19 31 9 15 44 10 50 -6z m459 -344 c3 -5 1 -13 -5 -16 -15 -9 -43 3 -35 15 8 13 32 13 40 1z m-222 -171 c-2 -14 -6 -65 -9 -113 -7 -94 -19 -113 -52 -85 -20 16 -88 46 -117 50 -41 7 -30 96 16 129 33 23 112 49 144 46 15 -2 19 -8 18 -27z m3271 -129 c3 -5 -1 -25 -10 -46 -8 -20 -18 -66 -21 -101 -3 -36 -10 -67 -14 -70 -5 -3 -47 13 -94 35 l-85 40 0 43 c0 50 12 69 55 92 33 17 160 22 169 7z m97 -311 c42 -12 84 -52 76 -74 -4 -10 -19 -16 -37 -16 -17 0 -40 -4 -50 -10 -35 -19 -102 64 -86 106 6 17 9 16 97 -6z m-252 -218 c18 -9 41 -29 49 -44 l17 -28 -25 -25 c-33 -33 -127 -54 -164 -37 -22 10 -26 18 -26 57 0 82 70 119 149 77z m461 -267 c6 -8 14 -40 17 -72 4 -46 2 -61 -11 -72 -30 -25 -46 3 -46 79 0 80 12 99 40 65z m-838 -386 c-7 -63 -26 -160 -42 -219 -11 -36 -24 -113 -31 -172 -14 -124 -3 -217 37 -296 13 -26 24 -47 24 -48 0 -1 -25 -20 -57 -43 -82 -62 -121 -74 -158 -47 l-19 13 22 59 c26 73 38 125 58 259 9 62 35 163 65 252 27 81 49 159 49 173 -1 32 -20 57 -48 62 -43 6 -27 23 28 29 72 7 75 6 72 -22z m613 -37 c22 -6 68 -16 102 -23 35 -6 70 -17 79 -24 14 -10 13 -13 -10 -28 -25 -17 -29 -16 -84 1 -31 11 -91 36 -132 55 -41 20 -83 38 -94 42 -18 5 -18 6 -2 24 l18 19 41 -28 c23 -15 60 -33 82 -38z m-3525 24 c10 -13 -2 -22 -72 -56 -46 -23 -93 -53 -104 -67 -13 -15 -24 -21 -28 -14 -4 5 9 28 29 49 19 22 35 42 35 45 0 3 4 17 10 31 9 24 15 26 64 26 34 0 58 -5 66 -14z m3531 -402 c10 -12 7 -20 -13 -42 -14 -15 -39 -48 -57 -74 -31 -47 -60 -63 -98 -56 -15 3 -19 15 -21 69 -3 78 6 91 88 111 60 16 83 14 101 -8z m-426 -284 c8 -13 -20 -24 -41 -16 -20 8 -9 26 16 26 10 0 22 -5 25 -10z m627 -260 c11 -65 7 -70 -44 -56 -24 6 -63 22 -87 34 -52 28 -46 39 31 58 82 20 91 16 100 -36z m-727 -91 c8 -13 -23 -49 -42 -49 -23 0 -28 32 -8 46 23 17 41 18 50 3z m-2634 -346 c16 -50 1 -60 -50 -34 -22 12 -41 23 -41 26 0 2 10 20 21 40 20 34 22 35 40 19 10 -9 23 -32 30 -51z m-114 -671 c54 -21 98 -44 98 -51 0 -7 -22 -22 -50 -32 -55 -21 -207 -44 -230 -35 -11 4 -15 23 -15 79 0 41 3 77 8 81 13 14 90 -3 189 -42z m2723 -27 c18 -22 -4 -45 -44 -45 -44 0 -61 18 -39 42 20 22 66 24 83 3z m-3191 -176 c22 -36 37 -147 22 -162 -15 -15 -82 7 -108 35 -16 17 -22 38 -24 79 -1 30 1 61 5 67 4 7 25 12 47 12 33 0 42 -5 58 -31z m351 -249 c-11 -38 -49 -100 -60 -100 -14 0 -64 70 -56 77 12 12 111 59 118 56 3 -2 3 -17 -2 -33z m-8 -446 c9 -8 -13 -76 -35 -107 -15 -22 -26 -27 -51 -25 l-31 3 0 55 0 54 45 12 c54 14 65 16 72 8z m746 -156 c5 -7 13 -32 17 -56 6 -37 3 -49 -20 -83 -25 -38 -28 -40 -44 -25 -10 9 -21 16 -25 16 -4 0 -21 9 -37 21 -26 18 -29 26 -29 73 0 29 3 56 7 59 12 12 120 8 131 -5z"/>
</g>
</g>
</svg>
