<?xml version="1.0" standalone="no"?>
<!DOCTYPE svg PUBLIC "-//W3C//DTD SVG 1.1//EN"
 "http://www.w3.org/Graphics/SVG/1.1/DTD/svg11.dtd">
<!-- Created with svg_stack (http://github.com/astraw/svg_stack) -->
<svg xmlns:sodipodi="http://sodipodi.sourceforge.net/DTD/sodipodi-0.dtd" xmlns="http://www.w3.org/2000/svg" version="1.1" width="3160.0" height="1284.0">
  <defs/>
  <g id="id0:id0" transform="matrix(1.25,0,0,1.25,0.0,0.0)"><g transform="translate(0.000000,1027.200000) scale(0.040000,-0.040000)" fill="#ffffff" stroke="none">
<path d="M0 12840 l0 -12840 31600 0 31600 0 0 12840 0 12840 -31600 0 -31600 0 0 -12840z m11472 6748 c6 -13 33 -147 48 -238 4 -25 14 -81 23 -125 8 -44 25 -134 37 -200 12 -66 30 -163 40 -215 11 -52 29 -149 41 -215 11 -66 28 -156 36 -200 9 -44 19 -100 23 -125 4 -25 14 -81 23 -125 8 -44 25 -134 37 -200 12 -66 30 -163 40 -215 11 -52 29 -149 41 -215 11 -66 28 -156 36 -200 9 -44 19 -102 23 -130 4 -27 13 -69 20 -92 24 -79 148 -72 -1360 -73 -996 0 -1356 -3 -1381 -12 -62 -21 -110 -60 -137 -112 l-27 -51 0 -4195 0 -4195 28 -48 c31 -51 63 -80 117 -105 32 -16 156 -17 1400 -22 l1365 -5 -1 -20 c-1 -11 -11 -69 -23 -130 -12 -60 -31 -159 -42 -220 -56 -297 -110 -575 -135 -695 -7 -36 -24 -126 -38 -200 -14 -74 -30 -160 -36 -190 -6 -30 -19 -100 -29 -155 -11 -55 -24 -122 -29 -150 -6 -27 -21 -102 -32 -165 -12 -63 -30 -155 -40 -205 -10 -49 -28 -142 -40 -205 -12 -63 -27 -144 -34 -180 l-13 -65 -1614 -3 c-1043 -2 -1662 1 -1749 8 -243 18 -354 30 -425 45 -38 8 -95 17 -125 21 -30 4 -63 11 -72 16 -10 4 -41 13 -70 18 -65 12 -220 59 -232 71 -6 5 -16 9 -24 9 -13 0 -164 73 -250 120 -88 48 -257 204 -330 303 -79 107 -170 278 -211 397 -58 166 -95 309 -112 430 -6 41 -15 100 -20 130 -6 30 -14 120 -19 200 -10 179 -11 10600 0 10725 12 143 63 368 108 475 30 72 98 207 130 257 124 198 356 403 582 514 58 28 112 55 120 59 27 13 181 58 275 80 50 11 149 24 220 28 72 4 963 6 1980 5 1486 -2 1851 -5 1857 -15z m6530 -10 c4 -13 14 -59 22 -103 8 -44 20 -105 26 -135 5 -30 17 -98 25 -150 8 -52 22 -126 30 -165 18 -86 52 -274 60 -335 4 -25 13 -72 20 -105 7 -33 23 -116 35 -185 11 -69 25 -147 31 -175 5 -27 16 -89 24 -137 18 -112 42 -245 60 -328 8 -36 17 -85 20 -110 8 -58 42 -245 60 -335 8 -38 17 -88 20 -110 8 -55 43 -245 60 -330 7 -38 16 -88 20 -110 6 -40 34 -199 55 -305 5 -30 19 -107 30 -170 21 -125 35 -200 55 -300 8 -36 19 -99 25 -140 5 -41 17 -106 25 -145 16 -79 28 -142 56 -300 10 -60 28 -159 39 -220 12 -60 27 -150 35 -200 8 -49 19 -110 25 -135 6 -25 17 -85 25 -135 8 -49 24 -139 36 -200 11 -60 27 -146 34 -190 16 -102 42 -241 60 -330 8 -38 17 -88 20 -110 9 -57 43 -248 60 -330 8 -38 19 -104 25 -145 6 -41 17 -106 25 -145 23 -113 36 -183 55 -300 19 -114 32 -185 55 -295 8 -36 19 -101 25 -145 7 -44 18 -107 25 -140 7 -33 23 -116 35 -185 11 -69 25 -147 31 -175 5 -27 16 -89 24 -137 16 -103 41 -235 61 -333 7 -38 21 -110 29 -160 8 -49 24 -139 36 -200 11 -60 29 -159 39 -220 21 -123 34 -196 55 -300 7 -38 16 -88 20 -110 6 -46 39 -225 60 -335 20 -100 56 -302 66 -370 4 -30 12 -73 18 -95 6 -22 15 -74 21 -115 6 -41 17 -106 25 -145 22 -106 34 -170 50 -275 8 -52 22 -126 30 -165 8 -38 23 -122 34 -185 11 -63 25 -140 31 -170 6 -30 17 -94 25 -142 18 -112 42 -245 60 -328 8 -36 17 -85 20 -110 3 -25 15 -90 25 -145 26 -143 55 -302 79 -440 12 -66 28 -154 36 -195 9 -41 22 -113 30 -160 32 -187 37 -218 50 -280 8 -36 19 -99 25 -140 6 -41 17 -106 25 -145 21 -101 36 -182 46 -245 5 -30 18 -102 29 -160 10 -58 28 -159 39 -225 12 -66 26 -147 32 -180 6 -33 11 -73 12 -90 l2 -30 -1390 0 -1390 0 -12 70 c-7 39 -17 108 -23 155 -6 47 -17 121 -25 165 -8 45 -19 126 -25 180 -6 55 -15 114 -20 130 -5 17 -14 80 -20 140 -6 61 -15 124 -20 140 -5 17 -14 78 -20 136 -6 58 -14 120 -19 137 -5 17 -12 66 -16 109 -4 43 -16 120 -26 172 -10 51 -19 108 -19 125 0 18 -6 40 -13 49 -11 16 -76 17 -951 17 -517 0 -943 -3 -948 -8 -8 -8 -16 -57 -48 -282 -10 -74 -28 -200 -40 -280 -12 -80 -30 -206 -40 -280 -11 -74 -26 -178 -34 -230 -7 -52 -30 -214 -51 -360 -21 -146 -39 -271 -41 -277 -3 -10 -290 -13 -1394 -13 -1227 0 -1391 2 -1396 15 -4 8 1 45 10 83 9 37 23 108 31 157 18 107 30 175 55 310 19 98 29 156 51 285 6 36 20 104 30 151 11 48 19 102 19 120 0 19 9 67 20 108 11 41 20 88 20 105 0 17 6 55 14 83 8 29 17 76 20 105 6 50 16 104 66 358 11 58 20 116 20 130 0 13 9 63 19 110 21 92 58 294 65 350 2 19 11 69 19 110 30 149 50 256 57 310 4 30 14 89 22 130 9 41 26 131 38 200 12 69 28 157 36 195 8 39 21 111 29 160 17 106 29 174 55 310 19 99 30 160 51 285 6 36 20 105 30 153 10 49 19 103 19 120 0 18 9 65 20 106 11 41 20 86 20 101 0 14 9 66 20 116 11 49 20 102 20 119 0 16 9 68 19 115 21 92 58 294 65 350 2 19 11 71 20 115 9 44 24 116 32 160 9 44 20 107 24 140 4 33 14 94 23 135 31 150 50 256 57 310 4 30 14 89 22 130 9 41 26 131 38 200 12 69 28 157 36 195 8 39 21 111 29 160 17 106 29 174 55 310 19 99 30 160 51 285 6 36 20 105 30 153 10 49 19 103 19 121 0 18 6 55 14 82 8 27 19 81 25 119 5 39 17 102 25 140 9 39 16 83 16 100 0 16 9 68 19 115 21 91 58 292 65 350 5 40 29 169 53 280 9 41 19 102 23 135 7 56 14 96 57 310 9 44 19 105 23 135 4 30 14 89 23 130 8 41 24 131 36 200 13 69 29 157 37 195 8 39 21 111 29 160 31 187 38 222 56 306 10 48 19 102 19 120 0 19 9 67 20 108 11 41 20 84 20 95 0 12 9 73 21 136 41 224 58 316 79 420 11 58 20 116 20 130 0 13 9 63 19 110 21 92 58 294 65 350 2 19 11 69 19 110 30 148 50 256 57 310 7 51 15 96 57 305 8 44 19 105 23 135 4 30 14 89 23 130 8 41 25 131 37 200 12 69 30 170 40 225 11 55 23 125 29 155 37 221 60 332 71 344 6 8 454 10 1482 9 l1473 -2 7 -23z m9078 12 c126 -13 265 -46 445 -106 162 -54 314 -161 481 -337 213 -225 347 -544 397 -947 9 -72 12 -942 12 -3535 0 -1892 -3 -3516 -7 -3610 -5 -93 -12 -192 -18 -220 -6 -27 -17 -93 -24 -146 -37 -253 -148 -512 -300 -698 -92 -112 -231 -231 -356 -305 -91 -53 -245 -126 -267 -126 -11 0 -25 -6 -31 -12 -19 -20 -252 -79 -400 -103 -52 -8 -112 -21 -135 -27 -31 -9 -408 -13 -1417 -15 -916 -2 -1378 -7 -1385 -14 -7 -7 -12 -620 -15 -1852 l-5 -1842 -1370 0 -1370 0 0 6950 0 6950 2740 5 c2774 5 2873 5 3025 -10z m7910 5 c4 -3 10 -19 13 -37 2 -18 14 -67 25 -108 11 -41 39 -146 62 -234 23 -87 46 -170 51 -185 6 -14 14 -44 19 -66 4 -22 17 -74 28 -115 11 -41 39 -146 62 -234 23 -87 46 -170 51 -185 6 -14 14 -44 19 -66 4 -22 17 -74 28 -115 11 -41 39 -146 62 -234 23 -87 46 -170 51 -185 6 -14 14 -44 19 -66 4 -22 19 -83 33 -135 14 -52 37 -140 52 -195 14 -55 36 -138 50 -185 13 -47 31 -113 40 -146 10 -34 15 -67 11 -73 -5 -7 -278 -10 -916 -11 -645 0 -915 -3 -927 -11 l-18 -11 0 -5651 0 -5652 -1405 0 -1405 0 -3 5646 -2 5646 -18 17 c-17 15 -95 17 -933 19 l-914 2 3 30 c2 16 7 34 12 40 4 5 11 28 15 50 4 22 15 67 24 100 30 99 57 195 81 280 12 44 26 94 32 110 6 17 16 55 23 85 7 30 20 80 29 110 17 55 35 118 76 265 12 44 31 107 41 139 11 33 19 69 19 80 0 12 6 33 14 48 8 14 19 48 25 75 6 26 22 89 36 138 39 137 61 215 75 270 7 28 18 64 26 81 7 18 16 49 19 70 4 22 16 68 26 104 26 86 53 179 77 265 17 60 57 198 66 230 4 10 5129 10 5146 0z m6572 -17 c4 -13 14 -59 22 -103 8 -44 20 -105 26 -135 5 -30 17 -98 25 -150 8 -52 22 -126 30 -165 18 -86 52 -274 60 -335 4 -25 13 -72 20 -105 7 -33 23 -116 35 -185 11 -69 25 -147 31 -175 5 -27 16 -89 24 -137 18 -112 42 -245 60 -328 8 -36 17 -85 20 -110 8 -58 42 -245 60 -335 8 -38 17 -88 20 -110 8 -55 43 -245 60 -330 7 -38 16 -88 20 -110 6 -40 34 -199 55 -305 5 -30 19 -107 30 -170 21 -125 35 -200 55 -300 8 -36 19 -99 25 -140 5 -41 17 -106 25 -145 16 -79 28 -142 56 -300 10 -60 28 -159 39 -220 12 -60 27 -150 35 -200 8 -49 19 -110 25 -135 6 -25 17 -85 25 -135 8 -49 24 -139 36 -200 11 -60 27 -146 34 -190 16 -102 42 -241 60 -330 8 -38 17 -88 20 -110 9 -57 43 -248 60 -330 8 -38 19 -104 25 -145 6 -41 17 -106 25 -145 23 -113 36 -183 55 -300 19 -114 32 -185 55 -295 8 -36 19 -101 25 -145 7 -44 18 -107 25 -140 7 -33 23 -116 35 -185 11 -69 25 -147 31 -175 5 -27 16 -89 24 -137 16 -103 41 -235 61 -333 7 -38 21 -110 29 -160 8 -49 24 -139 36 -200 11 -60 29 -159 39 -220 21 -123 34 -196 55 -300 7 -38 16 -88 20 -110 6 -46 39 -225 60 -335 20 -100 56 -302 66 -370 4 -30 12 -73 18 -95 6 -22 15 -74 21 -115 6 -41 17 -106 25 -145 22 -106 34 -170 50 -275 8 -52 22 -126 30 -165 8 -38 23 -122 34 -185 11 -63 25 -140 31 -170 6 -30 17 -94 25 -142 18 -112 42 -245 60 -328 8 -36 17 -85 20 -110 3 -25 15 -90 25 -145 27 -149 56 -305 79 -440 12 -66 28 -151 36 -190 7 -38 16 -88 20 -110 6 -40 34 -199 55 -305 5 -30 19 -107 30 -170 21 -125 35 -200 55 -300 8 -36 19 -99 25 -140 5 -41 17 -106 25 -145 8 -38 23 -119 34 -180 11 -60 27 -152 36 -203 11 -57 14 -97 8 -103 -5 -5 -568 -8 -1393 -7 l-1385 3 -12 70 c-7 39 -17 108 -23 155 -6 47 -17 121 -25 165 -8 45 -19 126 -25 180 -6 55 -15 114 -20 130 -5 17 -14 80 -20 140 -6 61 -15 124 -20 140 -5 17 -14 78 -20 136 -6 58 -14 120 -19 137 -5 17 -12 66 -16 109 -4 43 -16 120 -26 172 -10 51 -19 108 -19 125 0 18 -6 40 -13 49 -11 16 -74 18 -951 17 -517 0 -943 -3 -948 -8 -8 -8 -16 -58 -48 -282 -10 -74 -28 -200 -40 -280 -12 -80 -30 -206 -40 -280 -11 -74 -26 -178 -34 -230 -7 -52 -30 -214 -51 -360 -21 -146 -39 -271 -41 -277 -3 -10 -290 -13 -1394 -13 -1227 0 -1391 2 -1396 15 -4 8 1 45 10 83 9 37 23 108 31 157 18 107 30 175 55 310 19 98 29 156 51 285 6 36 20 104 30 151 11 48 19 102 19 120 0 19 9 67 20 108 11 41 20 88 20 105 0 17 6 55 14 83 8 29 17 76 20 105 6 50 16 104 66 358 11 58 20 116 20 130 0 13 9 63 19 110 21 92 58 294 65 350 2 19 11 69 19 110 30 149 50 256 57 310 4 30 14 89 22 130 9 41 26 131 38 200 12 69 28 157 36 195 8 39 21 111 29 160 17 106 29 174 55 310 19 99 30 160 51 285 6 36 20 105 30 153 10 49 19 103 19 120 0 18 9 65 20 106 11 41 20 86 20 101 0 14 9 66 20 116 11 49 20 102 20 119 0 16 9 68 19 115 21 92 58 294 65 350 2 19 11 71 20 115 9 44 24 116 32 160 9 44 20 107 24 140 4 33 14 94 23 135 31 150 50 256 57 310 4 30 14 89 22 130 9 41 26 131 38 200 12 69 28 157 36 195 8 39 21 111 29 160 17 106 29 174 55 310 19 99 30 160 51 285 6 36 20 105 30 153 10 49 19 103 19 121 0 18 6 55 14 82 8 27 19 81 25 119 5 39 17 102 25 140 9 39 16 83 16 100 0 16 9 68 19 115 21 91 58 292 65 350 5 40 29 169 53 280 9 41 19 102 23 135 7 56 14 96 57 310 9 44 19 105 23 135 4 30 14 89 23 130 8 41 24 131 36 200 13 69 29 157 37 195 8 39 21 111 29 160 31 187 38 222 56 306 10 48 19 102 19 120 0 19 9 67 20 108 11 41 20 84 20 95 0 12 9 73 21 136 41 224 58 316 79 420 11 58 20 116 20 130 0 13 9 63 19 110 21 92 58 294 65 350 2 19 11 69 19 110 30 148 50 256 57 310 7 51 15 96 57 305 8 44 19 105 23 135 4 30 14 89 23 130 8 41 25 131 37 200 12 69 30 170 40 225 11 55 23 125 29 155 37 221 60 332 71 344 6 8 454 10 1482 9 l1473 -2 7 -23z m6068 16 c7 -7 9 -2473 8 -6955 l-3 -6944 -1380 0 -1380 0 0 6950 0 6950 1315 5 c1522 6 1428 6 1440 -6z m3800 -9 c8 -21 25 -86 45 -175 18 -78 42 -174 64 -255 11 -38 29 -108 41 -155 52 -208 62 -248 75 -296 8 -28 19 -71 24 -95 5 -24 36 -150 69 -279 34 -129 91 -352 127 -495 37 -143 73 -285 80 -315 7 -30 34 -136 60 -235 26 -99 52 -205 60 -235 12 -54 27 -112 65 -255 10 -38 28 -107 39 -153 43 -174 62 -249 76 -298 8 -28 19 -71 24 -95 5 -24 36 -150 69 -279 34 -129 99 -386 146 -570 47 -184 104 -407 126 -495 23 -88 48 -185 55 -215 7 -30 27 -109 45 -175 17 -66 43 -165 56 -220 35 -140 44 -167 57 -162 9 3 13 682 17 2735 l5 2732 1420 0 1420 0 0 -6952 0 -6953 -1414 -3 c-1037 -1 -1417 1 -1427 9 -8 6 -14 21 -14 33 0 11 -8 48 -19 81 -11 33 -23 78 -29 100 -24 99 -35 144 -49 195 -9 30 -21 80 -28 110 -7 30 -34 136 -60 235 -26 99 -51 196 -55 215 -4 19 -20 80 -35 135 -15 55 -33 125 -40 155 -7 30 -19 80 -28 110 -31 110 -49 176 -56 215 -4 22 -15 65 -24 95 -8 30 -25 93 -37 140 -12 47 -29 117 -39 155 -10 39 -28 108 -40 155 -12 47 -30 117 -40 155 -41 157 -62 239 -82 318 -31 122 -58 224 -80 298 -10 36 -19 74 -19 84 0 10 -9 48 -19 84 -11 36 -29 102 -39 146 -23 89 -55 214 -82 320 -10 39 -28 108 -40 155 -44 170 -61 236 -81 301 -10 36 -19 74 -19 85 0 10 -8 46 -19 79 -11 33 -23 78 -29 100 -24 99 -35 144 -49 195 -9 30 -21 80 -28 110 -7 30 -34 136 -60 235 -26 99 -51 196 -55 215 -4 19 -20 80 -35 135 -15 55 -33 125 -40 155 -7 30 -19 80 -28 110 -9 30 -23 84 -32 120 -33 127 -40 145 -55 145 -13 0 -16 -324 -20 -2840 l-5 -2840 -1275 0 -1275 0 0 6950 0 6950 1265 5 c696 3 1287 5 1314 5 40 0 50 -4 56 -20z"/>
<path d="M16570 14530 c0 -5 5 -10 10 -10 6 0 10 5 10 10 0 6 -4 10 -10 10 -5 0 -10 -4 -10 -10z"/>
<path d="M16505 14425 c-3 -8 -7 -22 -10 -30 -2 -8 -7 -52 -11 -97 -3 -46 -10 -105 -15 -133 -5 -27 -14 -86 -19 -130 -6 -44 -15 -118 -21 -165 -5 -47 -21 -166 -35 -265 -13 -99 -27 -202 -29 -230 -3 -27 -10 -81 -16 -120 -22 -155 -59 -433 -64 -483 -3 -29 -10 -83 -16 -120 -11 -73 -82 -599 -104 -777 -8 -60 -26 -195 -40 -300 -31 -225 -41 -301 -54 -415 -6 -47 -22 -168 -36 -270 -14 -102 -28 -212 -31 -245 -3 -33 -10 -87 -15 -120 -14 -81 -58 -407 -64 -471 -3 -29 -9 -80 -15 -115 -21 -133 -39 -293 -34 -298 7 -8 1232 -13 1262 -6 27 7 29 45 7 161 -8 44 -19 126 -25 184 -6 58 -15 130 -21 160 -5 30 -14 101 -19 157 -4 57 -13 117 -18 135 -5 18 -10 42 -10 53 -3 68 -23 244 -32 270 -5 16 -14 86 -20 155 -5 69 -14 141 -19 160 -6 19 -14 82 -20 140 -5 58 -16 152 -24 210 -8 58 -20 143 -27 190 -6 47 -13 96 -15 110 -3 14 -9 72 -14 130 -5 58 -14 124 -20 146 -6 23 -16 98 -21 168 -6 69 -15 137 -20 150 -5 13 -12 64 -15 113 -4 48 -13 124 -20 168 -8 44 -19 130 -25 190 -6 61 -18 142 -25 180 -8 39 -15 93 -15 120 -1 28 -8 91 -16 140 -8 50 -19 136 -24 192 -4 57 -13 117 -19 135 -6 18 -15 93 -21 166 -6 72 -15 143 -20 156 -5 13 -12 64 -15 113 -4 48 -16 139 -26 201 -10 63 -19 136 -19 164 0 27 -5 58 -10 69 -13 23 -39 25 -45 4z"/>
<path d="M24090 17169 c-13 -6 -26 -11 -27 -13 -2 -2 -3 -1224 -3 -2717 0 -2243 2 -2716 13 -2726 11 -11 145 -14 720 -13 665 0 779 4 825 29 31 17 60 56 81 109 l21 53 0 2545 0 2545 -30 59 c-34 68 -92 114 -164 130 -61 13 -1401 12 -1436 -1z"/>
<path d="M40130 14530 c0 -5 5 -10 10 -10 6 0 10 5 10 10 0 6 -4 10 -10 10 -5 0 -10 -4 -10 -10z"/>
<path d="M40065 14425 c-3 -8 -7 -22 -10 -30 -2 -8 -7 -52 -11 -97 -3 -46 -10 -105 -15 -133 -5 -27 -14 -86 -19 -130 -6 -44 -15 -118 -21 -165 -5 -47 -21 -166 -35 -265 -13 -99 -27 -202 -29 -230 -3 -27 -10 -81 -16 -120 -22 -155 -59 -433 -64 -483 -3 -29 -10 -83 -16 -120 -11 -73 -82 -599 -104 -777 -8 -60 -26 -195 -40 -300 -31 -225 -41 -301 -54 -415 -6 -47 -22 -168 -36 -270 -14 -102 -28 -212 -31 -245 -3 -33 -10 -87 -15 -120 -14 -81 -58 -407 -64 -471 -3 -29 -9 -80 -15 -115 -21 -133 -39 -293 -34 -298 7 -8 1232 -13 1262 -6 27 7 29 45 7 161 -8 44 -19 126 -25 184 -6 58 -15 130 -21 160 -5 30 -14 101 -19 157 -4 57 -13 117 -18 135 -5 18 -10 42 -10 53 -3 68 -23 244 -32 270 -5 16 -14 86 -20 155 -5 69 -14 141 -19 160 -6 19 -14 82 -20 140 -5 58 -16 152 -24 210 -8 58 -20 143 -27 190 -6 47 -13 96 -15 110 -3 14 -9 72 -14 130 -5 58 -14 124 -20 146 -6 23 -16 98 -21 168 -6 69 -15 137 -20 150 -5 13 -12 64 -15 113 -4 48 -13 124 -20 168 -8 44 -19 130 -25 190 -6 61 -18 142 -25 180 -8 39 -15 93 -15 120 -1 28 -8 91 -16 140 -8 50 -19 136 -24 192 -4 57 -13 117 -19 135 -6 18 -15 93 -21 166 -6 72 -15 143 -20 156 -5 13 -12 64 -15 113 -4 48 -16 139 -26 201 -10 63 -19 136 -19 164 0 27 -5 58 -10 69 -13 23 -39 25 -45 4z"/>
<path d="M52886 14073 c-11 -11 -6 -23 9 -23 8 0 15 4 15 9 0 13 -16 22 -24 14z"/>
<path d="M51290 11475 c0 -8 7 -15 15 -15 8 0 15 7 15 15 0 8 -7 15 -15 15 -8 0 -15 -7 -15 -15z"/>
<path d="M51400 11480 c0 -5 5 -10 10 -10 6 0 10 5 10 10 0 6 -4 10 -10 10 -5 0 -10 -4 -10 -10z"/>
</g>
</g>
  <g id="id1:id1" transform="matrix(1.25,0,0,1.25,0.0,0.0)"><g transform="translate(0.000000,1027.200000) scale(0.040000,-0.040000)" fill="#000000" stroke="none">
<path d="M29835 19613 c-13 -12 -22 -41 -85 -268 -41 -149 -64 -229 -100 -355 -10 -36 -49 -173 -85 -305 -37 -132 -82 -292 -100 -355 -18 -63 -54 -191 -80 -285 -25 -93 -50 -181 -55 -195 -5 -14 -23 -77 -40 -140 -18 -63 -65 -232 -105 -375 -87 -309 -84 -300 -75 -314 5 -9 243 -12 926 -14 l919 -2 3 -5658 2 -5658 26 -9 c36 -14 2799 -14 2825 0 l19 11 0 5648 c0 4784 2 5650 14 5660 10 8 255 11 922 11 794 -1 910 1 919 14 6 10 2 41 -14 98 -46 165 -82 301 -121 448 -28 109 -53 201 -85 320 -32 116 -46 170 -75 280 -28 109 -53 201 -85 320 -32 116 -46 170 -75 280 -28 109 -53 201 -85 320 -32 116 -46 170 -75 280 -41 157 -63 235 -70 243 -3 4 -1164 8 -2580 10 -1935 1 -2576 -1 -2585 -10z"/>
<path d="M54263 19622 c-783 -1 -1424 -3 -1425 -5 -2 -1 -5 -1206 -8 -2677 -3 -1774 -8 -2675 -15 -2674 -5 1 -20 41 -33 90 -57 218 -125 484 -137 534 -7 30 -34 136 -60 235 -26 99 -54 209 -61 244 -8 35 -16 67 -19 71 -3 4 -11 36 -19 71 -8 35 -35 145 -61 244 -26 99 -53 205 -60 235 -13 53 -105 415 -240 945 -37 143 -73 285 -80 315 -7 30 -34 136 -60 235 -26 99 -53 205 -60 235 -7 30 -43 172 -80 315 -37 143 -73 285 -80 315 -7 30 -49 197 -93 370 -45 173 -107 421 -140 550 -33 129 -67 261 -77 293 l-16 57 -1337 -2 -1337 -3 -3 -6963 -2 -6962 26 -10 c41 -16 2546 -13 2567 3 16 11 17 193 20 2797 1 1848 5 2785 12 2785 6 0 20 -38 31 -85 12 -47 45 -173 73 -280 28 -107 85 -325 125 -485 77 -300 163 -632 241 -935 25 -96 79 -308 121 -470 125 -487 151 -589 188 -730 79 -304 143 -553 275 -1070 33 -129 78 -305 100 -390 23 -85 77 -297 122 -470 44 -173 96 -376 116 -450 19 -74 38 -150 43 -168 4 -18 14 -39 20 -47 11 -13 193 -15 1424 -15 776 0 1421 3 1434 6 l22 6 0 6964 0 6963 -17 8 c-10 4 -658 7 -1440 5z"/>
<path d="M7540 19610 c-105 -10 -286 -59 -422 -112 -67 -26 -129 -58 -248 -128 -68 -41 -268 -211 -321 -273 -200 -238 -320 -513 -358 -822 -6 -49 -15 -108 -19 -130 -8 -46 -8 -10550 1 -10640 15 -155 28 -274 37 -325 5 -30 14 -84 20 -120 63 -375 257 -758 477 -941 139 -115 162 -131 288 -193 178 -86 377 -151 546 -177 31 -5 79 -13 105 -19 27 -6 130 -21 229 -33 l180 -21 1693 -3 c1187 -3 1698 0 1712 7 12 6 20 21 20 35 0 13 9 66 19 117 11 51 32 156 46 233 41 217 64 334 80 410 8 39 19 97 24 130 6 33 17 94 25 135 27 132 63 316 131 675 25 132 52 272 60 310 22 103 47 233 55 290 4 28 18 97 30 154 16 77 19 106 10 115 -8 8 -377 12 -1372 13 l-1362 3 -40 19 c-58 29 -81 50 -107 101 l-24 45 0 4190 0 4190 25 45 c29 51 87 94 147 109 30 8 455 11 1385 11 834 0 1345 3 1351 9 6 6 5 33 -3 73 -22 114 -49 261 -70 373 -11 61 -31 171 -45 245 -14 74 -32 173 -40 219 -8 46 -17 91 -20 101 -3 10 -12 58 -20 107 -8 48 -24 135 -35 193 -11 58 -29 155 -40 215 -11 61 -31 171 -45 245 -14 74 -32 173 -40 219 -8 46 -17 91 -20 101 -3 10 -12 58 -20 107 -8 48 -21 124 -30 168 -8 44 -20 107 -26 140 -7 33 -16 68 -21 78 -8 16 -110 17 -1946 15 -1065 0 -1966 -4 -2002 -8z"/>
<path d="M15010 19601 c-5 -11 -10 -31 -10 -45 0 -23 -28 -187 -65 -376 -8 -41 -26 -140 -40 -220 -14 -80 -32 -176 -40 -215 -7 -38 -16 -88 -20 -110 -3 -22 -14 -87 -25 -145 -11 -58 -26 -143 -34 -190 -9 -47 -26 -146 -40 -220 -14 -74 -34 -189 -46 -255 -12 -66 -30 -165 -40 -220 -10 -55 -28 -154 -40 -220 -12 -66 -30 -165 -40 -220 -10 -55 -28 -156 -40 -225 -12 -69 -28 -159 -36 -200 -7 -41 -25 -138 -39 -215 -14 -77 -32 -176 -40 -220 -8 -44 -26 -145 -40 -225 -14 -80 -32 -179 -40 -220 -8 -41 -26 -140 -40 -220 -14 -80 -32 -179 -40 -220 -9 -41 -22 -115 -31 -165 -29 -171 -53 -310 -74 -420 -12 -60 -30 -159 -40 -220 -11 -60 -29 -159 -40 -220 -12 -60 -27 -146 -35 -190 -14 -80 -48 -271 -86 -480 -11 -60 -26 -148 -34 -195 -8 -47 -19 -107 -25 -135 -5 -27 -21 -113 -35 -190 -14 -77 -32 -176 -40 -220 -8 -44 -26 -145 -40 -225 -14 -80 -32 -176 -40 -215 -7 -38 -16 -88 -20 -110 -7 -47 -40 -229 -61 -335 -8 -41 -21 -115 -30 -165 -29 -171 -53 -310 -74 -420 -12 -60 -30 -159 -40 -220 -11 -60 -29 -159 -40 -220 -12 -60 -27 -146 -35 -190 -13 -74 -35 -197 -86 -480 -11 -60 -28 -157 -39 -215 -10 -58 -28 -157 -40 -220 -12 -63 -27 -153 -35 -200 -8 -47 -18 -107 -24 -135 -6 -27 -22 -115 -36 -195 -14 -80 -32 -176 -40 -215 -7 -38 -16 -88 -20 -110 -3 -22 -14 -87 -25 -145 -28 -153 -57 -309 -80 -440 -11 -63 -34 -189 -51 -280 -17 -91 -39 -214 -49 -275 -11 -60 -29 -159 -40 -220 -21 -110 -30 -162 -70 -390 -11 -66 -27 -154 -35 -195 -8 -41 -23 -127 -35 -190 -11 -63 -27 -151 -35 -195 -8 -44 -26 -145 -40 -225 -14 -80 -32 -179 -40 -220 -8 -41 -26 -140 -40 -220 -14 -80 -32 -176 -40 -215 -7 -38 -16 -88 -20 -110 -3 -22 -8 -52 -11 -66 -3 -17 1 -32 11 -43 15 -15 137 -16 1403 -16 763 0 1392 4 1398 8 13 8 28 84 49 237 26 192 53 381 105 735 28 190 63 433 79 541 15 107 31 201 35 207 5 8 248 12 931 12 l924 0 11 -20 c6 -11 17 -70 25 -132 8 -62 17 -126 20 -142 3 -16 12 -77 20 -135 8 -58 24 -170 35 -248 11 -79 29 -207 41 -285 11 -79 29 -204 40 -278 10 -74 26 -184 34 -245 21 -162 36 -228 53 -243 24 -19 2770 -18 2797 1 23 17 22 20 -65 482 -17 94 -38 206 -45 250 -7 44 -25 143 -39 220 -15 77 -31 165 -35 195 -10 60 -43 240 -66 360 -8 41 -26 140 -40 220 -14 80 -32 179 -39 220 -8 41 -26 143 -41 225 -14 83 -32 182 -40 220 -7 39 -25 138 -40 220 -14 83 -30 170 -36 195 -5 25 -16 86 -24 135 -8 50 -24 140 -35 200 -11 61 -29 160 -40 220 -11 61 -28 157 -39 215 -11 58 -26 146 -35 195 -9 50 -23 126 -31 170 -15 83 -54 301 -80 440 -8 44 -26 145 -40 225 -14 80 -32 181 -40 225 -14 74 -45 246 -80 440 -8 44 -24 127 -35 185 -11 58 -24 132 -29 165 -5 33 -21 123 -36 200 -14 77 -32 176 -40 220 -24 140 -54 307 -75 420 -11 61 -29 160 -40 220 -11 61 -28 157 -39 215 -11 58 -26 146 -35 195 -9 50 -23 126 -31 170 -8 44 -26 145 -40 225 -14 80 -32 179 -40 220 -8 41 -26 140 -40 220 -14 80 -32 179 -39 220 -8 41 -26 143 -41 225 -14 83 -32 182 -40 220 -7 39 -25 138 -40 220 -14 83 -32 182 -40 220 -7 39 -19 102 -25 140 -7 39 -21 117 -31 175 -11 58 -28 155 -39 215 -11 61 -29 160 -40 220 -19 104 -32 174 -79 440 -11 61 -32 173 -46 250 -14 77 -30 165 -34 195 -5 30 -19 102 -30 159 -12 57 -21 113 -21 125 0 11 -7 50 -15 86 -8 36 -26 130 -40 210 -14 80 -32 179 -39 220 -8 41 -26 143 -41 225 -14 83 -32 182 -40 220 -7 39 -25 138 -40 220 -14 83 -32 182 -40 220 -7 39 -19 102 -25 140 -7 39 -21 117 -31 175 -11 58 -28 155 -39 215 -11 61 -29 160 -40 220 -11 61 -29 160 -40 220 -11 61 -28 157 -39 215 -10 58 -28 161 -40 230 -12 69 -26 135 -31 148 l-10 22 -1494 0 -1495 0 -11 -19z m1535 -5309 c6 -59 32 -255 61 -467 8 -66 20 -165 25 -220 5 -55 12 -111 16 -125 8 -30 9 -36 22 -175 6 -60 15 -126 20 -145 6 -19 13 -64 16 -100 4 -36 15 -130 25 -210 11 -80 29 -221 40 -315 12 -93 28 -217 36 -275 8 -58 19 -152 25 -210 5 -58 14 -118 19 -135 5 -16 14 -77 19 -135 6 -58 17 -154 25 -215 23 -168 55 -414 61 -475 3 -30 12 -95 20 -145 8 -49 19 -141 25 -203 6 -62 15 -124 20 -138 6 -14 10 -51 11 -82 0 -31 4 -79 9 -107 5 -27 14 -88 20 -135 6 -47 20 -148 30 -225 10 -77 24 -189 31 -250 6 -60 15 -118 20 -127 6 -10 5 -19 0 -23 -15 -9 -1234 -6 -1243 3 -5 5 -1 48 7 98 8 49 26 179 40 289 14 110 34 265 45 345 20 149 28 210 81 605 66 504 79 604 89 695 6 52 15 118 20 145 6 28 26 176 45 330 20 154 40 307 45 340 5 33 21 150 35 260 24 194 50 389 80 605 8 58 25 197 39 310 14 113 30 230 36 260 5 30 19 132 30 225 12 94 23 176 25 183 9 27 24 0 30 -56z"/>
<path d="M21287 19614 c-4 -4 -7 -3139 -7 -6966 l0 -6958 26 -10 c28 -11 2712 -14 2752 -4 l22 6 0 1843 c0 1546 2 1844 14 1854 10 8 373 11 1372 11 819 0 1373 4 1394 9 19 5 71 15 115 21 113 16 416 90 455 111 8 5 47 22 87 39 252 107 479 283 616 477 153 219 222 416 279 798 l22 140 3 3430 c4 3453 2 3732 -31 3905 -40 210 -69 308 -131 450 -94 213 -229 390 -405 533 -177 144 -316 205 -660 289 l-95 23 -2911 3 c-1600 1 -2913 -1 -2917 -4z m4247 -2463 c55 -13 107 -59 138 -121 l27 -55 1 -2529 c0 -2304 -1 -2534 -16 -2586 -22 -79 -65 -120 -136 -131 -61 -10 -1443 -14 -1458 -4 -16 10 -14 5407 2 5423 15 15 1379 17 1442 3z"/>
<path d="M38570 19601 c-5 -11 -10 -31 -10 -45 0 -23 -28 -187 -65 -376 -8 -41 -26 -140 -40 -220 -14 -80 -32 -176 -40 -215 -7 -38 -16 -88 -20 -110 -3 -22 -14 -87 -25 -145 -11 -58 -26 -143 -34 -190 -9 -47 -26 -146 -40 -220 -14 -74 -34 -189 -46 -255 -12 -66 -30 -165 -40 -220 -10 -55 -28 -154 -40 -220 -12 -66 -30 -165 -40 -220 -10 -55 -28 -156 -40 -225 -12 -69 -28 -159 -36 -200 -7 -41 -25 -138 -39 -215 -14 -77 -32 -176 -40 -220 -8 -44 -26 -145 -40 -225 -14 -80 -32 -179 -40 -220 -8 -41 -26 -140 -40 -220 -14 -80 -32 -179 -40 -220 -9 -41 -22 -115 -31 -165 -29 -171 -53 -310 -74 -420 -12 -60 -30 -159 -40 -220 -11 -60 -29 -159 -40 -220 -12 -60 -27 -146 -35 -190 -14 -80 -48 -271 -86 -480 -11 -60 -26 -148 -34 -195 -8 -47 -19 -107 -25 -135 -5 -27 -21 -113 -35 -190 -14 -77 -32 -176 -40 -220 -8 -44 -26 -145 -40 -225 -14 -80 -32 -176 -40 -215 -7 -38 -16 -88 -20 -110 -7 -47 -40 -229 -61 -335 -8 -41 -21 -115 -30 -165 -29 -171 -53 -310 -74 -420 -12 -60 -30 -159 -40 -220 -11 -60 -29 -159 -40 -220 -12 -60 -27 -146 -35 -190 -13 -74 -35 -197 -86 -480 -11 -60 -28 -157 -39 -215 -10 -58 -28 -157 -40 -220 -12 -63 -27 -153 -35 -200 -8 -47 -18 -107 -24 -135 -6 -27 -22 -115 -36 -195 -14 -80 -32 -176 -40 -215 -7 -38 -16 -88 -20 -110 -3 -22 -14 -87 -25 -145 -28 -153 -57 -309 -80 -440 -11 -63 -34 -189 -51 -280 -17 -91 -39 -214 -49 -275 -11 -60 -29 -159 -40 -220 -21 -110 -30 -162 -70 -390 -11 -66 -27 -154 -35 -195 -8 -41 -23 -127 -35 -190 -11 -63 -27 -151 -35 -195 -8 -44 -26 -145 -40 -225 -14 -80 -32 -179 -40 -220 -8 -41 -26 -140 -40 -220 -14 -80 -32 -176 -40 -215 -7 -38 -16 -88 -20 -110 -3 -22 -8 -52 -11 -66 -3 -17 1 -32 11 -43 15 -15 137 -16 1403 -16 763 0 1392 4 1398 8 13 8 28 84 49 237 26 192 53 381 105 735 28 190 63 433 79 541 15 107 31 201 35 207 5 9 241 12 931 12 l924 0 11 -20 c6 -11 17 -75 26 -142 8 -68 17 -131 20 -140 3 -9 11 -66 19 -125 8 -59 23 -172 35 -250 11 -79 29 -207 41 -285 11 -79 29 -204 40 -278 10 -74 26 -184 34 -245 21 -162 36 -228 53 -243 24 -19 2770 -18 2797 1 20 15 19 27 -25 262 -19 104 -32 173 -79 440 -11 61 -32 173 -46 250 -14 77 -30 165 -34 195 -10 59 -42 239 -66 360 -8 41 -26 140 -40 220 -14 80 -32 179 -39 220 -8 41 -26 143 -41 225 -14 83 -32 182 -40 220 -7 39 -25 138 -40 220 -14 83 -30 170 -36 195 -5 25 -16 86 -24 135 -8 50 -24 140 -35 200 -11 61 -29 160 -40 220 -11 61 -28 157 -39 215 -11 58 -26 146 -35 195 -9 50 -23 126 -31 170 -15 83 -54 301 -80 440 -8 44 -26 145 -40 225 -14 80 -32 181 -40 225 -14 74 -45 246 -80 440 -8 44 -24 127 -35 185 -11 58 -24 132 -29 165 -5 33 -21 123 -36 200 -14 77 -32 176 -40 220 -24 140 -54 307 -75 420 -11 61 -29 160 -40 220 -11 61 -28 157 -39 215 -11 58 -26 146 -35 195 -9 50 -23 126 -31 170 -8 44 -26 145 -40 225 -14 80 -32 179 -40 220 -8 41 -26 140 -40 220 -14 80 -32 179 -39 220 -8 41 -26 143 -41 225 -14 83 -32 182 -40 220 -7 39 -25 138 -40 220 -14 83 -32 182 -40 220 -7 39 -19 102 -25 140 -7 39 -21 117 -31 175 -11 58 -28 155 -39 215 -11 61 -29 160 -40 220 -19 104 -32 174 -79 440 -11 61 -32 173 -46 250 -14 77 -30 165 -34 195 -5 30 -19 102 -30 159 -12 57 -21 113 -21 125 0 11 -7 50 -15 86 -8 36 -26 130 -40 210 -14 80 -32 179 -39 220 -8 41 -26 143 -41 225 -14 83 -32 182 -40 220 -7 39 -25 138 -40 220 -14 83 -32 182 -40 220 -7 39 -19 102 -25 140 -7 39 -21 117 -31 175 -11 58 -28 155 -39 215 -11 61 -29 160 -40 220 -11 61 -29 160 -40 220 -11 61 -28 157 -39 215 -10 58 -28 161 -40 230 -12 69 -26 135 -31 148 l-10 22 -1494 0 -1495 0 -11 -19z m1535 -5309 c6 -59 32 -255 61 -467 8 -66 20 -165 25 -220 5 -55 12 -111 16 -125 8 -30 9 -36 22 -175 6 -60 15 -126 20 -145 6 -19 13 -64 16 -100 4 -36 15 -130 25 -210 11 -80 29 -221 40 -315 12 -93 28 -217 36 -275 8 -58 19 -152 25 -210 5 -58 14 -118 19 -135 5 -16 14 -77 19 -135 6 -58 17 -154 25 -215 23 -168 55 -414 61 -475 3 -30 12 -95 20 -145 8 -49 19 -141 25 -203 6 -62 15 -124 20 -138 6 -14 10 -51 11 -82 0 -31 4 -79 9 -107 5 -27 14 -88 20 -135 6 -47 20 -148 30 -225 10 -77 24 -189 31 -250 6 -60 15 -118 20 -127 6 -10 5 -19 0 -23 -15 -9 -1234 -6 -1243 3 -5 5 -1 48 7 98 8 49 26 179 40 289 14 110 34 265 45 345 20 149 28 210 81 605 66 504 79 604 89 695 6 52 15 118 20 145 6 28 26 176 45 330 20 154 40 307 45 340 5 33 21 150 35 260 24 194 50 389 80 605 8 58 25 197 39 310 14 113 30 230 36 260 5 30 19 132 30 225 12 94 23 176 25 183 9 27 24 0 30 -56z"/>
<path d="M44847 19613 c-4 -3 -7 -3138 -7 -6965 l0 -6958 26 -10 c36 -14 2749 -14 2775 0 l19 11 0 6949 c0 3821 -3 6955 -6 6964 -6 15 -139 16 -1403 16 -769 0 -1401 -3 -1404 -7z"/>
</g>
</g>
</svg>
