<?xml version="1.0" standalone="no"?>
<!DOCTYPE svg PUBLIC "-//W3C//DTD SVG 1.1//EN"
 "http://www.w3.org/Graphics/SVG/1.1/DTD/svg11.dtd">
<!-- Created with svg_stack (http://github.com/astraw/svg_stack) -->
<svg xmlns:sodipodi="http://sodipodi.sourceforge.net/DTD/sodipodi-0.dtd" xmlns="http://www.w3.org/2000/svg" version="1.1" width="2312.0" height="2020.0">
  <defs/>
  <g id="id0:id0" transform="matrix(1.25,0,0,1.25,0.0,0.0)"><g transform="translate(0.000000,1616.000000) scale(0.040000,-0.040000)" fill="#ffffff" stroke="none">
<path d="M0 20200 l0 -20200 23120 0 23120 0 0 20200 0 20200 -23120 0 -23120 0 0 -20200z m8557 17015 c12 -8 29 -15 38 -15 37 0 117 -34 131 -56 9 -12 25 -24 37 -26 12 -2 32 -19 45 -38 13 -19 31 -35 40 -35 9 0 26 -18 39 -40 13 -24 29 -39 38 -37 9 2 23 -14 37 -43 14 -28 29 -45 40 -45 10 0 29 -18 43 -40 14 -22 32 -40 40 -40 13 0 48 -45 58 -75 2 -6 10 -5 20 3 13 12 18 7 36 -34 12 -25 21 -50 21 -55 0 -14 12 -10 25 8 11 15 15 11 36 -35 18 -38 28 -50 40 -46 11 3 24 -7 38 -31 11 -19 32 -40 45 -45 14 -5 30 -19 36 -31 7 -11 50 -59 96 -105 46 -46 84 -87 84 -92 0 -6 11 -13 24 -16 13 -3 34 -22 46 -41 12 -19 28 -35 35 -35 7 0 25 -20 39 -44 15 -25 32 -43 42 -42 10 0 26 -18 41 -47 23 -43 27 -46 38 -30 13 17 14 16 23 -7 6 -14 25 -39 43 -56 28 -26 136 -133 258 -256 298 -301 391 -398 391 -406 0 -6 17 -21 37 -33 35 -22 129 -114 298 -293 44 -47 95 -94 113 -105 18 -11 36 -29 40 -40 4 -10 22 -31 40 -46 17 -15 32 -33 32 -41 0 -8 13 -22 29 -32 16 -10 42 -30 58 -45 15 -16 58 -57 96 -92 37 -35 67 -67 67 -71 0 -13 85 -99 110 -112 34 -18 60 -43 60 -57 0 -7 11 -20 25 -29 14 -10 31 -28 37 -41 6 -13 24 -29 40 -34 18 -7 34 -22 43 -45 10 -22 25 -37 45 -45 20 -6 34 -20 41 -39 5 -16 21 -35 33 -42 13 -7 34 -25 45 -41 12 -16 28 -29 37 -29 8 0 24 -16 36 -36 11 -19 32 -40 45 -45 13 -5 30 -23 37 -40 7 -16 27 -39 44 -49 18 -11 32 -26 32 -35 0 -8 18 -24 40 -35 26 -13 42 -29 46 -46 4 -16 18 -31 37 -39 20 -8 34 -24 41 -46 9 -27 17 -35 39 -37 22 -3 32 -12 44 -40 19 -47 20 -47 38 -32 13 11 18 6 36 -34 12 -29 30 -51 44 -56 13 -5 31 -23 39 -39 9 -17 25 -31 38 -33 14 -2 31 -17 43 -40 11 -21 29 -39 40 -40 11 -2 28 -19 40 -42 11 -21 30 -42 41 -47 12 -4 31 -23 42 -43 13 -23 29 -36 42 -36 13 0 26 -12 37 -37 12 -25 25 -38 38 -38 13 0 27 -13 40 -40 11 -22 21 -42 22 -44 2 -2 9 2 18 9 13 11 17 7 30 -23 8 -20 15 -41 15 -46 0 -17 20 -23 35 -11 12 10 18 3 37 -37 12 -26 24 -50 25 -52 1 -2 9 1 17 8 11 9 17 4 33 -26 11 -20 32 -44 47 -53 16 -8 36 -31 45 -50 10 -23 23 -35 36 -35 13 0 27 -13 40 -37 11 -20 29 -41 41 -47 12 -5 30 -23 40 -40 12 -21 24 -29 35 -26 11 4 23 -5 37 -30 13 -22 29 -35 41 -35 15 0 28 -15 46 -51 21 -41 29 -48 40 -39 12 10 18 3 37 -37 12 -26 24 -50 25 -52 2 -3 9 4 17 14 12 16 15 14 35 -29 15 -30 29 -46 41 -46 11 0 25 -15 37 -37 11 -25 26 -39 40 -41 15 -2 32 -20 49 -47 15 -26 31 -42 38 -39 8 3 22 -10 34 -30 13 -22 29 -36 41 -36 14 0 27 -14 43 -50 17 -38 27 -49 40 -44 13 4 23 -7 40 -43 16 -34 28 -47 41 -45 11 2 25 -10 38 -33 12 -19 27 -35 33 -35 7 0 27 -18 44 -39 17 -21 38 -38 46 -37 9 0 25 -19 38 -44 13 -25 29 -44 36 -42 7 1 22 -14 33 -33 12 -20 32 -38 46 -41 16 -4 30 -19 39 -39 9 -21 24 -37 44 -43 17 -6 34 -22 40 -36 5 -14 20 -32 34 -41 14 -9 34 -32 45 -51 13 -21 28 -34 41 -34 15 0 26 -11 35 -35 8 -19 25 -39 36 -46 12 -6 52 -42 88 -79 36 -37 74 -70 84 -73 10 -4 25 -23 33 -42 8 -20 22 -39 32 -42 9 -3 49 -39 87 -78 39 -39 78 -74 88 -78 9 -4 23 -19 29 -34 18 -42 42 -70 55 -66 7 3 19 -9 27 -25 9 -17 29 -35 46 -41 20 -7 34 -20 41 -41 6 -16 15 -30 20 -30 5 0 42 -33 82 -73 39 -41 83 -79 95 -86 13 -7 30 -28 38 -48 9 -19 23 -37 33 -40 10 -2 42 -31 71 -64 28 -33 70 -71 91 -85 22 -13 41 -35 45 -49 3 -14 19 -32 35 -41 16 -8 35 -27 43 -42 8 -15 26 -34 41 -42 15 -8 31 -22 36 -32 6 -10 28 -30 49 -43 22 -14 40 -31 40 -38 0 -16 51 -67 67 -67 6 0 28 -21 49 -47 36 -44 86 -95 209 -211 25 -24 52 -57 60 -72 8 -16 24 -32 36 -35 11 -4 28 -20 38 -36 24 -38 127 -128 168 -145 23 -10 31 -19 26 -30 -8 -21 36 -66 58 -59 13 4 24 -8 45 -55 21 -43 33 -58 45 -55 10 3 27 -11 49 -40 19 -25 44 -52 56 -60 12 -8 25 -24 29 -35 3 -11 12 -20 19 -20 17 0 52 -39 65 -72 7 -18 18 -28 30 -28 11 0 28 -12 38 -26 10 -14 35 -43 56 -64 20 -21 37 -43 37 -49 0 -6 6 -11 13 -11 8 0 24 -12 38 -26 13 -14 34 -30 47 -35 12 -5 32 -29 44 -54 14 -28 28 -44 37 -42 9 1 29 -18 46 -44 17 -25 36 -44 42 -42 5 2 21 -12 34 -32 13 -19 29 -35 35 -35 6 0 21 -11 34 -25 13 -14 32 -25 42 -25 10 0 21 -8 24 -17 15 -50 30 -68 59 -68 23 0 31 -5 36 -25 13 -57 33 -90 51 -84 13 4 23 -7 43 -45 16 -32 30 -48 38 -45 8 3 25 -12 41 -35 16 -22 33 -37 41 -35 7 3 24 -14 39 -41 21 -35 31 -44 40 -36 10 9 19 0 38 -36 14 -27 30 -47 37 -46 6 2 25 -16 42 -40 17 -23 37 -41 44 -39 8 1 21 -11 30 -28 9 -17 24 -30 34 -30 23 0 33 -13 55 -72 19 -51 33 -61 38 -28 5 31 22 25 29 -10 4 -18 12 -37 18 -43 6 -6 11 -19 11 -29 0 -10 5 -18 10 -18 6 0 10 6 10 14 0 23 19 29 26 9 13 -40 37 -93 44 -93 3 0 11 5 17 11 8 8 17 -2 33 -40 16 -35 28 -51 41 -51 10 0 29 -16 41 -35 13 -19 30 -35 40 -35 9 0 25 -15 36 -34 12 -20 30 -36 43 -38 15 -2 26 -13 32 -33 13 -40 26 -55 47 -55 11 0 29 -18 45 -45 14 -25 30 -43 35 -40 10 6 60 -55 60 -73 0 -17 17 -15 24 4 7 18 26 9 26 -13 0 -13 26 -79 37 -92 2 -3 9 4 17 14 13 18 15 17 29 -17 16 -37 32 -52 57 -53 8 0 20 -16 26 -35 7 -20 22 -40 36 -47 14 -7 38 -29 52 -48 15 -19 34 -35 42 -35 8 0 22 -16 30 -35 9 -22 23 -37 39 -41 16 -4 33 -21 46 -45 10 -22 26 -39 33 -39 8 0 29 -18 46 -40 17 -22 37 -40 44 -40 7 0 24 -17 38 -37 13 -21 30 -37 36 -36 7 2 23 -15 37 -36 13 -22 37 -46 52 -53 16 -8 29 -23 31 -36 2 -15 15 -28 34 -36 18 -8 36 -26 43 -44 9 -21 22 -32 45 -37 21 -5 34 -15 41 -32 10 -26 113 -133 129 -133 5 0 16 -13 25 -30 9 -17 31 -36 50 -44 23 -10 35 -22 35 -34 0 -11 25 -45 55 -77 30 -32 58 -68 61 -79 3 -12 14 -30 24 -41 10 -11 21 -46 25 -80 4 -33 14 -72 21 -88 8 -15 12 -32 9 -37 -3 -5 0 -28 6 -51 10 -31 10 -45 1 -59 -12 -20 -3 -62 13 -61 6 1 10 -948 10 -2561 0 -1926 -3 -2562 -11 -2561 -7 1 -15 -10 -19 -24 -5 -21 -1 -31 14 -42 l21 -16 0 -8035 0 -8036 -19 -15 c-12 -11 -20 -36 -25 -75 -14 -122 -65 -239 -135 -311 -25 -26 -54 -60 -63 -75 -14 -21 -28 -27 -70 -33 -86 -11 -130 -26 -117 -41 7 -9 6 -15 -3 -21 -16 -10 -7873 -16 -7936 -5 -38 6 -48 12 -50 30 -2 12 -4 22 -5 23 -1 0 -35 6 -76 12 l-75 12 -8 32 c-6 24 -16 34 -36 39 -38 9 -52 23 -52 50 0 26 -15 39 -45 39 -16 0 -22 11 -33 70 -7 39 -17 115 -22 170 -5 59 -9 3413 -10 8125 -1 4414 -3 8020 -6 8015 -2 -6 -5 -3617 -7 -8025 -1 -5335 -5 -8015 -12 -8015 -14 0 -19 16100 -4 16126 5 11 14 17 20 14 5 -4 8 235 7 642 l-3 648 -5 -625 c-3 -409 -8 -624 -15 -623 -6 2 -12 243 -15 687 l-5 683 -41 40 c-23 22 -50 54 -60 72 -10 17 -24 31 -30 31 -6 0 -18 7 -25 17 -8 9 -29 22 -46 30 -18 7 -33 20 -33 28 0 26 -41 84 -55 78 -10 -3 -24 11 -42 41 -16 25 -32 46 -37 46 -13 0 -78 59 -104 94 -12 17 -35 33 -49 36 -16 3 -29 13 -33 25 -7 26 -33 65 -42 65 -5 0 -40 34 -79 75 -39 41 -80 75 -89 75 -11 0 -26 15 -37 38 -12 24 -26 38 -41 40 -15 2 -29 16 -39 37 -10 20 -28 38 -44 44 -18 6 -31 19 -35 35 -6 27 -77 91 -128 116 -17 8 -33 26 -36 39 -3 14 -18 32 -34 40 -15 9 -33 28 -39 43 -7 15 -43 54 -82 88 -38 34 -75 72 -82 85 -7 12 -24 25 -37 29 -16 4 -32 20 -42 42 -9 20 -27 39 -39 44 -12 4 -29 20 -38 34 -22 33 -114 119 -138 128 -10 4 -19 12 -19 18 0 14 -85 99 -127 129 -18 12 -33 27 -33 33 0 6 -91 101 -202 213 -112 111 -238 239 -281 283 -42 45 -81 82 -86 82 -5 0 -38 30 -72 66 -150 157 -470 474 -479 474 -5 0 -22 19 -37 43 -16 23 -36 42 -45 42 -9 0 -29 18 -43 40 -36 54 -164 185 -192 195 -12 5 -31 27 -43 50 -13 26 -27 40 -40 40 -12 0 -30 16 -47 43 -16 23 -32 44 -38 46 -5 2 -23 19 -39 38 -16 18 -35 33 -42 33 -7 0 -21 16 -33 35 -11 19 -32 39 -45 45 -13 5 -30 21 -38 37 -7 15 -25 34 -41 41 -15 7 -32 23 -38 35 -10 18 -83 96 -182 194 -10 10 -36 35 -56 56 -21 20 -43 37 -49 37 -7 0 -23 18 -37 40 -16 26 -32 40 -42 38 -12 -2 -24 12 -40 45 -13 26 -29 47 -37 47 -8 0 -24 14 -36 31 -13 17 -33 34 -45 39 -13 5 -29 21 -37 37 -7 15 -24 30 -38 33 -16 4 -31 19 -43 43 -9 21 -28 42 -42 47 -14 5 -31 25 -39 45 -8 19 -25 39 -38 44 -13 5 -33 23 -46 40 -12 17 -32 31 -43 31 -11 0 -22 8 -25 18 -16 50 -28 63 -51 57 -17 -4 -25 -1 -29 12 -16 52 -38 83 -55 78 -14 -5 -22 5 -38 40 -11 26 -29 49 -40 52 -10 2 -28 18 -40 34 -12 16 -31 29 -42 29 -11 0 -22 8 -25 18 -11 34 -21 47 -48 60 -14 7 -33 28 -40 47 -9 22 -22 35 -37 37 -13 2 -28 12 -34 23 -24 47 -33 56 -51 59 -10 1 -26 18 -35 37 -10 20 -26 36 -40 39 -14 4 -31 20 -40 40 -12 25 -24 35 -40 35 -19 0 -29 11 -47 48 -18 39 -26 47 -42 42 -15 -5 -22 1 -34 30 -8 19 -23 38 -33 41 -37 11 -47 21 -55 52 -5 17 -17 33 -28 37 -11 3 -29 20 -41 36 -12 17 -32 34 -45 40 -14 5 -28 19 -33 32 -11 27 -29 44 -55 48 -12 3 -23 16 -28 34 -5 20 -31 51 -77 89 -38 33 -79 72 -91 88 -11 15 -30 28 -40 28 -14 0 -25 12 -36 39 -10 27 -23 41 -37 43 -12 2 -26 13 -32 24 -14 27 -193 207 -222 223 -13 6 -22 17 -20 23 1 6 -15 23 -37 38 -21 14 -44 41 -52 58 -7 18 -21 35 -31 39 -10 4 -51 39 -90 77 -96 93 -93 91 -165 168 -35 37 -75 71 -90 77 -16 6 -28 18 -28 26 0 9 -36 52 -80 96 -44 43 -80 83 -80 88 0 4 -18 15 -40 24 -24 9 -40 22 -40 32 0 16 -122 141 -194 198 -20 16 -35 32 -33 35 2 8 -113 131 -203 216 -36 33 -128 125 -206 203 -77 79 -148 143 -156 143 -9 0 -25 16 -37 35 -17 29 -26 35 -48 33 -23 -2 -28 1 -25 17 3 30 -36 87 -103 145 -33 28 -64 58 -68 66 -5 8 -19 19 -32 24 -14 5 -35 26 -49 47 -27 42 -190 203 -205 203 -6 0 -16 10 -22 23 -21 41 -41 58 -54 47 -9 -8 -19 2 -36 37 -16 33 -30 48 -43 48 -13 0 -27 14 -40 40 -13 25 -28 40 -40 40 -11 0 -25 14 -35 35 -9 19 -27 40 -39 46 -13 7 -32 26 -43 43 -10 17 -30 36 -43 41 -13 5 -30 21 -38 37 -7 15 -26 34 -41 41 -16 8 -32 24 -37 36 -10 26 -34 48 -49 44 -6 -2 -22 17 -35 42 -15 30 -29 45 -42 45 -15 0 -24 15 -41 65 -18 55 -25 65 -45 65 -53 0 -51 -88 -55 3150 -3 2668 -2 2996 12 3129 9 82 18 153 21 158 3 5 13 7 22 6 11 -2 21 10 31 38 17 44 109 144 133 144 8 0 25 11 38 25 13 14 29 25 36 25 7 0 25 5 41 12 15 6 66 19 113 27 76 14 380 16 2834 13 2413 -2 2753 -4 2773 -17z m-6079 -3531 c-2 -1997 -6 -3009 -13 -3009 -10 0 -20 5997 -10 6024 4 9 9 11 15 5 7 -7 9 -1088 8 -3020z m29827 -216 c22 -5 49 -19 61 -29 27 -25 93 -59 115 -59 10 0 28 -18 41 -42 13 -24 30 -43 38 -43 16 0 38 -54 39 -92 1 -35 12 -54 36 -63 18 -7 23 -19 28 -71 4 -34 7 -4757 7 -10495 0 -5738 3 -10440 6 -10449 4 -9 18 -21 32 -26 15 -6 1314 -10 3466 -10 1892 0 3505 -4 3582 -7 134 -7 144 -9 183 -36 22 -16 62 -32 88 -37 33 -6 55 -17 69 -35 12 -14 40 -38 63 -53 23 -15 52 -41 64 -58 12 -16 83 -86 157 -156 168 -157 374 -366 383 -390 4 -10 20 -23 36 -28 17 -6 39 -26 50 -44 11 -19 33 -41 50 -50 17 -8 31 -22 31 -30 0 -8 12 -20 27 -27 15 -7 34 -26 43 -43 9 -16 28 -36 43 -43 15 -7 34 -26 42 -42 8 -16 24 -32 35 -35 12 -4 31 -23 44 -44 13 -21 35 -45 49 -54 14 -9 28 -24 31 -34 3 -10 22 -28 41 -41 19 -12 35 -29 35 -37 0 -8 18 -26 39 -40 24 -14 41 -34 43 -47 2 -17 11 -24 33 -28 22 -4 35 -15 48 -42 12 -25 26 -38 38 -38 12 0 28 -14 41 -36 11 -19 32 -40 45 -45 13 -5 30 -24 38 -43 9 -21 23 -36 39 -40 14 -3 33 -20 41 -37 9 -16 27 -34 41 -39 14 -6 30 -23 36 -40 5 -17 23 -37 40 -46 16 -8 33 -26 38 -40 6 -14 25 -31 44 -39 21 -9 36 -23 40 -40 4 -16 19 -30 41 -39 27 -12 35 -21 35 -40 0 -22 5 -26 29 -26 34 0 51 -18 60 -63 6 -25 12 -32 31 -32 18 0 30 -11 47 -40 12 -22 30 -40 39 -40 10 0 26 -17 38 -40 14 -26 29 -41 44 -43 14 -2 27 -15 36 -37 10 -22 22 -35 38 -37 14 -2 29 -16 40 -37 10 -19 29 -40 43 -45 14 -6 33 -27 43 -46 11 -22 25 -36 40 -38 16 -2 28 -15 38 -37 9 -22 22 -35 36 -37 16 -2 29 -17 43 -45 14 -31 24 -42 39 -40 19 2 43 -31 59 -78 2 -6 11 -4 20 4 17 14 23 5 50 -71 3 -9 16 -18 29 -20 15 -2 29 -15 39 -38 10 -21 26 -37 40 -40 13 -3 33 -20 44 -38 11 -17 27 -31 36 -32 19 0 44 -27 53 -57 4 -12 17 -23 29 -25 14 -2 30 -18 43 -43 13 -26 27 -40 40 -40 13 0 26 -14 39 -42 15 -31 26 -42 43 -43 17 0 27 -10 38 -35 8 -21 25 -40 39 -45 14 -5 33 -25 42 -44 11 -24 22 -35 36 -33 20 2 31 -10 47 -55 6 -18 17 -28 30 -28 12 0 29 -14 42 -35 13 -18 33 -39 45 -44 12 -6 30 -22 39 -36 9 -14 32 -32 50 -40 22 -9 36 -23 40 -40 4 -15 17 -30 31 -36 15 -5 31 -25 41 -49 13 -30 22 -39 37 -38 14 2 26 -9 43 -39 15 -27 31 -43 43 -43 12 0 26 -14 38 -39 11 -21 27 -41 35 -44 8 -3 27 -24 41 -47 14 -22 30 -38 34 -35 12 7 25 -12 46 -70 10 -27 27 -60 38 -72 50 -55 49 -307 -1 -354 -12 -10 -29 -44 -38 -75 -13 -45 -21 -58 -44 -66 -18 -6 -32 -21 -39 -39 -5 -16 -24 -37 -40 -47 -17 -9 -31 -22 -31 -28 0 -15 -31 -41 -54 -45 -10 -3 -23 -18 -30 -38 -8 -25 -20 -36 -46 -45 -24 -8 -36 -19 -40 -36 -3 -14 -21 -35 -40 -48 -19 -13 -37 -29 -39 -35 -5 -16 -128 -137 -139 -137 -5 0 -14 -11 -20 -25 -6 -13 -24 -31 -40 -39 -15 -8 -33 -26 -40 -40 -6 -14 -27 -32 -47 -40 -24 -10 -35 -21 -35 -36 0 -12 -12 -28 -31 -39 -17 -11 -40 -33 -50 -50 -10 -17 -30 -36 -44 -41 -14 -5 -30 -21 -35 -34 -5 -13 -21 -30 -37 -38 -15 -7 -34 -26 -41 -41 -8 -16 -27 -37 -44 -47 -16 -10 -38 -32 -49 -49 -10 -17 -25 -31 -34 -31 -8 0 -26 -18 -40 -40 -13 -21 -34 -44 -45 -50 -11 -6 -26 -22 -33 -36 -7 -14 -24 -31 -37 -37 -13 -7 -31 -25 -40 -42 -11 -20 -25 -30 -40 -30 -12 0 -26 -7 -30 -15 -30 -65 -38 -75 -55 -75 -13 0 -26 -13 -37 -38 -10 -20 -24 -37 -32 -37 -16 0 -114 -93 -138 -132 -10 -14 -26 -29 -36 -32 -10 -4 -26 -22 -35 -41 -10 -21 -26 -37 -42 -41 -17 -4 -31 -18 -40 -40 -8 -19 -25 -38 -38 -43 -13 -5 -31 -21 -40 -34 -9 -14 -29 -32 -43 -39 -16 -8 -31 -27 -38 -48 -9 -27 -16 -35 -35 -35 -25 0 -34 -11 -51 -57 -7 -21 -16 -28 -34 -28 -16 0 -30 -8 -37 -22 -7 -12 -39 -47 -72 -78 -101 -93 -168 -164 -177 -188 -5 -12 -21 -27 -35 -32 -15 -6 -32 -24 -41 -45 -8 -19 -21 -35 -29 -35 -18 0 -129 -107 -138 -133 -4 -10 -20 -23 -36 -28 -17 -6 -34 -22 -41 -39 -7 -16 -27 -38 -46 -49 -19 -11 -39 -32 -44 -46 -5 -14 -15 -25 -21 -25 -6 0 -33 -21 -60 -47 -27 -27 -59 -57 -71 -69 -46 -42 -168 -176 -168 -184 0 -4 -16 -18 -36 -29 -20 -12 -38 -30 -41 -41 -3 -11 -20 -27 -38 -36 -18 -8 -38 -26 -46 -40 -7 -14 -21 -30 -31 -35 -10 -6 -30 -28 -43 -49 -14 -22 -33 -40 -43 -40 -25 0 -42 -19 -42 -47 0 -18 -9 -27 -39 -39 -27 -11 -43 -25 -50 -44 -6 -19 -19 -32 -35 -36 -14 -3 -42 -27 -63 -52 -42 -52 -160 -170 -246 -247 -31 -27 -56 -54 -57 -59 0 -14 -109 -116 -134 -126 -14 -5 -30 -22 -38 -37 -11 -23 -23 -30 -63 -37 -69 -12 -15464 -19 -15660 -7 -167 10 -183 14 -195 46 -5 13 -27 31 -50 41 -23 11 -50 32 -61 51 -11 18 -24 33 -29 33 -9 0 -84 123 -99 163 -12 31 -16 21665 -5 21753 4 27 16 60 26 74 24 32 62 86 89 128 11 17 25 32 30 32 7 0 170 160 230 227 10 10 42 42 73 72 31 29 56 57 56 61 0 5 16 18 35 30 20 12 42 37 50 56 10 24 25 38 46 46 17 6 38 23 48 38 9 15 59 66 111 112 99 89 121 111 218 218 32 36 107 112 166 170 269 262 334 328 345 348 6 12 20 22 30 22 12 0 29 17 45 45 15 25 33 45 41 45 8 0 26 18 39 39 14 22 34 42 45 46 11 3 30 19 41 36 12 16 28 29 36 29 8 0 14 4 14 10 0 5 41 51 90 101 50 50 90 95 90 100 0 6 16 17 35 25 22 9 37 23 41 38 7 30 39 60 53 51 6 -3 16 7 23 22 24 56 40 74 53 63 10 -8 19 0 37 32 18 32 30 42 45 41 15 -2 24 5 29 20 8 28 44 68 55 61 5 -2 20 13 34 36 15 24 33 40 45 40 13 0 25 14 39 45 11 25 27 45 35 45 9 0 27 18 41 40 16 25 33 40 45 40 11 0 20 6 20 14 0 22 41 68 57 62 8 -4 18 5 25 22 17 39 39 62 59 62 10 0 25 15 36 38 13 26 24 36 38 35 16 -2 26 9 40 40 16 32 26 42 44 42 18 0 26 7 32 28 10 37 27 57 50 57 10 0 24 12 31 27 7 15 26 34 42 41 15 8 34 29 42 48 10 24 21 34 37 34 17 0 28 11 42 42 13 27 28 45 43 48 12 3 30 20 40 40 11 22 24 35 37 35 13 0 26 13 38 38 9 20 22 38 27 38 6 1 16 2 23 3 6 0 20 17 29 36 12 24 26 37 45 40 21 4 31 14 39 40 9 26 18 36 39 40 20 4 30 14 39 39 11 33 22 44 59 55 9 3 17 13 17 22 0 24 29 54 51 54 12 0 24 13 33 34 9 22 22 36 37 38 12 2 26 11 30 21 5 9 13 25 17 34 5 9 16 20 25 25 9 4 25 12 35 17 9 4 18 18 20 30 2 15 16 28 38 37 21 9 36 23 40 39 4 17 19 31 40 40 20 8 38 25 44 40 5 14 21 30 35 35 15 6 32 25 41 45 8 20 25 40 38 45 13 4 32 24 44 43 12 21 30 37 44 39 15 2 24 11 26 26 2 13 19 33 43 47 21 14 39 30 39 37 0 19 32 48 51 48 12 0 26 14 36 37 12 24 27 39 43 43 16 4 31 19 43 43 9 20 22 37 28 37 13 0 178 165 201 202 10 14 26 29 37 33 11 3 29 22 40 41 11 19 31 38 45 43 13 5 33 23 45 40 12 16 30 33 40 36 11 3 24 19 29 34 6 18 24 35 48 47 25 12 41 28 44 44 3 14 15 29 25 35 11 6 94 86 185 178 91 92 175 177 188 189 13 13 99 100 192 193 92 94 177 179 189 190 12 11 53 50 91 88 38 37 77 67 85 67 9 0 20 12 26 28 10 26 203 222 219 222 5 0 20 20 34 45 15 25 31 45 37 45 12 0 99 88 114 115 5 11 24 27 41 35 17 8 41 30 53 48 12 17 27 32 35 32 8 0 22 12 31 28 10 15 45 53 79 85 33 32 65 62 69 67 31 31 70 70 78 77 5 4 19 20 30 36 11 15 28 27 37 27 11 0 25 17 37 43 14 28 26 42 40 42 11 0 24 10 30 21 18 36 36 54 55 54 11 0 23 15 33 40 11 29 21 40 36 40 13 0 30 14 46 40 14 22 33 40 43 40 9 0 26 16 37 38 12 22 29 38 42 40 15 2 26 14 33 38 11 32 41 60 53 48 3 -3 15 12 26 34 13 26 29 42 43 44 14 2 29 18 43 43 13 26 27 40 39 40 13 0 27 14 40 40 16 30 27 40 46 40 20 0 27 7 36 35 9 26 18 36 37 38 20 2 29 12 38 39 8 25 21 39 44 48 17 8 40 26 49 40 9 14 26 25 37 25 11 0 32 13 47 29 15 16 43 34 62 40 92 29 259 33 355 9z m9967 -29456 c9 -9 9 -18 -1 -38 -11 -25 -15 -26 -66 -21 -58 6 -81 -4 -87 -38 -2 -11 -14 -22 -28 -25 -46 -11 -50 -34 -50 -345 -1 -288 -8 -353 -37 -362 -32 -11 -38 39 -41 362 -2 205 -7 324 -14 332 -6 7 -18 13 -27 13 -9 0 -27 14 -41 31 -22 26 -34 31 -88 36 -63 6 -89 21 -79 47 8 21 42 23 310 21 165 -1 241 -5 249 -13z m398 -2 c5 -8 10 -24 10 -35 0 -11 5 -37 10 -57 9 -30 15 -37 32 -35 20 2 23 -5 34 -78 17 -117 26 -155 34 -155 4 0 10 9 13 21 9 35 27 11 27 -36 0 -47 19 -144 31 -160 8 -11 122 -5 134 6 3 4 11 40 19 81 10 59 20 85 49 122 29 38 37 59 42 111 5 43 13 69 26 81 10 9 19 25 19 35 0 9 9 37 19 62 l19 44 53 6 c37 5 57 3 66 -6 8 -9 12 -115 15 -392 3 -357 2 -383 -15 -409 -17 -26 -20 -27 -35 -13 -13 13 -17 54 -23 209 -5 142 -11 203 -23 230 -9 21 -16 40 -16 43 0 3 -3 5 -7 4 -5 -1 -7 -5 -6 -10 6 -19 -54 -104 -77 -109 -21 -5 -26 -16 -40 -90 -18 -97 -30 -123 -66 -146 -32 -21 -141 -20 -164 1 -22 20 -36 19 -44 -2 -12 -31 -25 1 -36 87 -16 138 -22 154 -53 160 -18 3 -33 17 -45 39 -38 71 -56 48 -71 -91 -6 -54 -11 -144 -12 -200 -1 -154 -14 -181 -57 -118 l-23 34 6 150 c3 83 7 254 10 380 2 129 9 234 14 240 15 18 119 15 131 -4z"/>
<path d="M14455 21980 c-11 -4 -32 -6 -47 -3 -57 11 -53 344 -53 -4618 0 -3932 2 -4580 14 -4602 11 -20 22 -27 45 -27 17 0 49 -6 71 -14 30 -10 121 -14 372 -15 l331 -2 58 30 c31 17 64 31 73 31 10 0 22 5 29 12 9 9 12 489 12 2098 0 1914 1 2087 16 2109 l17 23 91 -5 c291 -18 306 -22 306 -78 0 -32 23 -49 69 -49 16 0 32 -4 35 -8 3 -5 10 -100 16 -211 12 -203 28 -289 64 -330 11 -13 14 -226 20 -1216 3 -660 6 -1450 6 -1756 l0 -556 31 -46 30 -46 401 -1 400 0 34 35 c18 20 38 54 44 76 8 27 9 535 6 1687 -5 1805 -13 2320 -40 2417 -9 33 -21 62 -27 64 -30 10 -48 43 -53 98 -4 32 -12 96 -19 143 l-12 85 -34 11 c-18 6 -38 19 -44 29 -5 10 -10 76 -11 146 0 111 2 130 18 148 11 12 27 21 36 21 24 0 38 20 38 50 0 14 5 50 11 80 6 30 14 85 17 122 5 62 8 68 37 86 28 16 34 27 46 88 23 111 32 682 37 2284 l4 1475 -32 65 -33 65 -415 0 -415 0 -32 -60 -32 -60 0 -1583 c-1 -1255 -3 -1589 -13 -1607 -7 -12 -22 -38 -32 -56 -14 -25 -21 -67 -28 -154 -4 -66 -11 -167 -16 -225 l-7 -105 -40 -5 c-55 -8 -65 -16 -65 -54 0 -19 -6 -38 -13 -44 -7 -6 -96 -14 -203 -18 l-192 -7 -11 21 c-8 15 -11 551 -11 1937 0 1732 -2 1919 -16 1944 -14 24 -32 39 -99 78 -23 15 -756 18 -790 3z"/>
<path d="M26660 21881 c-118 -3 -220 -9 -226 -13 -7 -4 -15 -25 -20 -45 -8 -42 -18 -9045 -9 -9080 4 -15 20 -26 57 -39 29 -9 64 -24 78 -33 21 -14 74 -16 372 -19 l348 -3 10 25 c7 18 17 26 34 26 32 0 69 14 89 35 16 15 17 173 17 2084 l0 2068 19 18 c18 16 36 17 198 10 191 -8 218 -15 208 -59 -8 -31 8 -48 51 -55 48 -8 49 -10 64 -253 11 -177 22 -231 58 -272 16 -17 17 -161 22 -1776 l5 -1758 25 -27 c14 -15 24 -35 22 -46 l-3 -19 415 0 c370 0 415 2 409 15 -3 10 9 29 36 55 l42 38 -4 1714 c-6 1855 -13 2278 -42 2368 -10 30 -28 63 -41 73 -25 19 -30 38 -44 157 -18 149 -31 180 -75 180 -41 0 -47 21 -47 163 -1 142 9 182 41 172 43 -13 74 64 87 215 6 79 9 87 39 115 50 47 60 134 72 630 8 341 10 1284 4 1575 -11 542 -26 684 -81 758 -22 29 -33 87 -45 239 -8 90 -27 129 -67 135 -19 3 -26 16 -44 86 -22 88 -32 104 -63 107 -31 2 -51 25 -51 58 0 34 -23 56 -61 57 -30 0 -62 30 -54 51 9 24 -11 42 -56 50 -110 19 -125 22 -136 32 -7 5 -13 20 -13 32 0 39 -23 46 -177 57 -149 10 -169 16 -182 52 -16 43 -74 48 -586 50 -264 2 -577 0 -695 -3z m827 -976 c16 -11 61 -17 165 -22 179 -7 188 -10 188 -62 0 -34 3 -40 33 -51 64 -24 61 -17 69 -161 11 -204 23 -278 46 -295 11 -7 23 -31 26 -51 7 -40 26 -313 25 -348 -1 -11 -4 -319 -8 -685 -6 -661 -9 -720 -40 -720 -24 0 -50 -189 -51 -368 0 -86 -11 -112 -46 -112 -47 0 -65 -17 -58 -55 5 -26 2 -35 -13 -43 -10 -5 -100 -12 -200 -15 -165 -5 -183 -4 -197 12 -14 16 -16 155 -16 1472 l0 1454 20 33 c22 36 27 38 57 17z"/>
<path d="M27527 9640 c-14 -11 -33 -20 -42 -20 -30 0 -176 -93 -216 -137 -60 -65 -103 -162 -114 -258 -4 -27 -14 -72 -23 -100 -16 -46 -17 -168 -17 -1440 0 -1270 1 -1394 17 -1435 9 -25 19 -70 22 -100 15 -128 77 -245 156 -295 22 -14 47 -36 55 -49 24 -37 110 -74 185 -81 180 -15 243 -9 320 28 36 18 67 36 69 41 2 5 26 30 53 54 69 64 132 165 147 237 7 33 18 66 24 73 22 27 28 455 23 1687 -2 693 -5 1275 -5 1294 0 18 -6 43 -14 55 -7 11 -19 48 -26 81 -7 33 -20 72 -27 87 -28 55 -165 207 -187 208 -5 0 -22 9 -38 21 -16 11 -44 23 -62 26 -18 2 -44 13 -59 24 -40 28 -204 28 -241 -1z m176 -406 c28 -5 42 -14 52 -34 34 -65 36 -178 33 -1575 l-3 -1380 -21 -46 c-19 -40 -26 -47 -60 -52 -66 -11 -80 -8 -128 28 l-46 36 0 1474 c0 810 3 1481 6 1490 10 24 75 65 104 65 14 0 42 -3 63 -6z"/>
<path d="M31321 9646 c-7 -8 -27 -18 -44 -22 -60 -13 -142 -68 -220 -148 -42 -44 -80 -91 -84 -105 -3 -14 -12 -34 -21 -43 -8 -10 -18 -46 -22 -80 -4 -35 -16 -81 -26 -103 l-19 -40 -3 -1645 c-2 -1661 -2 -1699 32 -1701 6 0 29 -3 51 -5 22 -3 50 0 62 7 15 8 27 9 35 2 19 -14 135 -16 190 -2 44 10 49 14 59 52 8 29 9 462 3 1546 -4 828 -3 1577 1 1664 6 143 9 161 29 184 18 21 34 27 77 30 83 6 102 -8 115 -90 6 -38 16 -73 23 -80 8 -8 11 -443 11 -1649 l0 -1638 38 -19 c36 -19 40 -19 56 -3 12 13 21 14 34 6 25 -15 161 -17 178 -3 11 9 18 8 30 -1 13 -11 18 -10 36 7 l20 21 0 1648 c0 1101 -4 1669 -11 1709 -35 201 -61 270 -121 317 -17 13 -47 38 -68 57 -77 69 -134 101 -182 101 -26 0 -61 8 -83 20 -46 25 -158 28 -176 6z"/>
<path d="M33191 9640 c-13 -11 -31 -20 -40 -20 -9 0 -32 -11 -51 -25 -19 -14 -40 -25 -48 -25 -33 0 -182 -167 -182 -204 0 -8 -11 -27 -24 -43 -18 -22 -24 -45 -29 -102 -4 -50 -12 -80 -24 -93 l-18 -20 0 -1404 0 -1403 19 -14 c17 -12 21 -30 24 -111 3 -72 8 -96 18 -96 16 0 34 -31 34 -61 0 -49 134 -189 181 -189 10 0 27 -12 39 -27 20 -25 27 -27 80 -25 49 3 62 0 80 -18 l21 -21 267 1 267 2 23 21 22 20 0 898 0 898 -19 11 c-28 14 -323 13 -358 -2 -15 -7 -30 -13 -32 -15 -8 -6 -9 -81 -10 -735 l-2 -668 -25 -17 c-38 -24 -127 -5 -168 37 l-30 30 -7 127 c-10 172 -10 2679 0 2771 6 62 11 77 31 93 34 25 84 34 139 23 l46 -9 3 -40 c2 -26 10 -46 23 -56 18 -13 21 -31 26 -150 3 -73 10 -140 16 -146 15 -20 340 -18 357 2 18 22 9 305 -13 370 -9 28 -25 83 -37 124 -17 64 -28 83 -78 136 -31 33 -70 69 -87 80 -64 42 -131 75 -162 81 -18 3 -37 12 -44 20 -8 10 -37 14 -108 14 -80 -1 -100 -4 -120 -20z"/>
<path d="M38330 9610 c-230 -4 -282 -8 -319 -23 -24 -9 -58 -17 -76 -17 -17 0 -35 -3 -38 -7 -4 -3 -29 -14 -57 -24 -27 -9 -65 -33 -84 -51 -39 -38 -86 -103 -86 -119 0 -5 -9 -29 -20 -51 -11 -23 -20 -60 -20 -82 -1 -58 -18 -127 -38 -149 -16 -18 -17 -134 -20 -1649 -2 -1413 -1 -1634 12 -1653 17 -26 89 -40 117 -22 13 8 24 8 41 0 22 -10 170 -11 212 -1 47 11 46 -12 46 894 0 677 3 854 13 862 7 6 58 10 125 9 78 -1 116 3 124 11 16 16 25 389 10 404 -6 6 -64 9 -130 9 -88 -1 -122 2 -130 12 -8 9 -12 180 -13 573 -2 672 -8 640 121 670 43 10 128 14 285 14 l225 1 11 20 c6 13 9 78 7 179 -3 145 -5 161 -23 177 -18 17 -42 18 -295 13z"/>
<path d="M25300 9603 c-8 -3 -18 -11 -22 -17 -4 -6 -8 -437 -8 -957 0 -823 2 -950 15 -976 8 -17 19 -64 25 -104 13 -101 42 -181 89 -242 22 -29 50 -64 61 -79 12 -16 27 -28 33 -28 7 -1 29 -13 50 -28 l38 -27 -1 -671 c-1 -750 -7 -687 72 -715 29 -10 40 -10 51 0 9 7 18 8 21 3 8 -14 177 -14 193 -1 9 9 17 8 27 0 12 -10 20 -9 40 4 l26 17 0 678 c0 728 -3 691 52 704 34 8 129 102 174 173 19 28 38 54 44 58 5 3 10 20 10 37 0 36 19 107 34 127 8 10 12 319 14 1009 3 890 1 997 -13 1018 l-15 24 -170 0 c-124 0 -171 -3 -177 -12 -4 -7 -11 -431 -14 -943 -3 -526 -10 -953 -16 -982 -10 -56 -35 -93 -63 -93 -10 0 -23 -7 -30 -15 -18 -21 -50 -19 -76 6 -13 12 -34 27 -46 33 -21 10 -24 21 -29 101 -4 50 -7 489 -8 978 l-1 887 -20 20 c-18 18 -33 20 -182 19 -90 0 -170 -3 -178 -6z"/>
<path d="M29019 9593 c-12 -13 -14 -283 -14 -1672 0 -1554 1 -1659 18 -1700 9 -24 17 -63 17 -88 0 -47 35 -139 75 -198 13 -21 44 -49 67 -64 24 -15 50 -36 58 -46 8 -10 37 -36 63 -57 42 -33 56 -38 100 -38 29 -1 70 -4 92 -9 62 -12 225 6 255 28 14 10 35 21 48 25 13 4 22 15 22 27 0 11 10 23 23 28 28 11 150 128 167 160 7 14 19 52 27 85 7 34 19 79 24 101 8 28 13 556 16 1713 4 1519 3 1676 -12 1698 l-15 24 -175 0 -174 0 -13 -22 c-10 -19 -12 -338 -10 -1610 3 -1676 2 -1686 -42 -1792 -13 -30 -20 -35 -61 -42 -57 -8 -105 11 -132 53 l-18 27 -3 1673 -3 1672 -26 21 c-24 18 -40 20 -193 20 -144 0 -170 -2 -181 -17z"/>
<path d="M34646 9594 c-14 -14 -16 -177 -16 -1643 0 -895 4 -1631 9 -1636 10 -12 31 -139 31 -188 0 -20 6 -37 13 -40 8 -3 24 -33 37 -68 26 -73 101 -153 175 -188 25 -12 45 -27 45 -35 0 -16 21 -26 53 -26 11 0 29 -8 40 -18 17 -15 39 -17 196 -14 186 3 251 15 271 53 6 10 10 94 10 188 l0 171 -26 17 c-19 12 -52 17 -128 19 -199 5 -290 31 -310 89 -7 20 -12 585 -16 1673 -4 1445 -7 1644 -20 1652 -8 5 -90 10 -182 10 -138 0 -169 -3 -182 -16z"/>
<path d="M36351 9601 c-11 -7 -17 -38 -22 -103 -8 -118 -9 -3536 0 -3641 5 -59 11 -82 24 -92 19 -14 204 -19 324 -8 58 5 62 7 72 36 15 42 15 3734 0 3774 -5 15 -16 31 -22 35 -17 11 -359 9 -376 -1z"/>
<path d="M39910 9590 c-25 -11 -58 -19 -74 -19 -36 -1 -129 -44 -178 -83 -39 -31 -98 -110 -98 -132 0 -7 -11 -35 -25 -62 -14 -27 -25 -64 -25 -83 0 -19 -9 -87 -20 -153 l-21 -119 4 -1302 c3 -1147 5 -1310 19 -1367 8 -36 16 -87 16 -114 1 -30 7 -53 16 -60 8 -6 29 -45 47 -86 45 -102 56 -118 102 -143 74 -41 81 -46 98 -68 14 -18 28 -23 69 -24 40 -1 56 -6 67 -21 13 -17 27 -19 176 -19 310 0 399 6 430 28 l27 21 0 181 c0 143 -3 185 -15 202 l-15 21 -207 1 c-283 1 -385 18 -409 68 -5 10 -9 296 -9 637 l0 618 23 9 c13 5 69 9 125 9 56 0 109 5 117 10 12 8 16 43 18 197 1 106 -2 194 -7 202 -7 11 -33 14 -113 13 -56 -1 -115 1 -130 5 l-27 8 -6 410 c-3 226 -3 488 1 584 l7 174 26 29 c40 45 118 57 380 59 165 2 224 6 232 15 16 20 8 337 -10 357 -12 15 -44 17 -290 16 -244 -1 -281 -3 -321 -19z"/>
<path d="M42815 3390 c-3 -5 -1 -10 4 -10 6 0 11 5 11 10 0 6 -2 10 -4 10 -3 0 -8 -4 -11 -10z"/>
</g>
</g>
  <g id="id1:id1" transform="matrix(1.25,0,0,1.25,0.0,0.0)"><g transform="translate(0.000000,1616.000000) scale(0.040000,-0.040000)" fill="#161616" stroke="none">
<path d="M2935 37300 c-11 -4 -49 -11 -83 -15 -48 -5 -72 -14 -95 -34 -40 -34 -104 -71 -122 -71 -8 0 -21 -13 -29 -28 -8 -15 -26 -33 -40 -40 -23 -10 -33 -32 -62 -139 -2 -7 -12 -13 -22 -13 -50 0 -47 189 -47 -3224 0 -2530 3 -3197 12 -3219 10 -21 19 -27 35 -25 19 3 23 -3 29 -37 12 -63 38 -115 63 -125 12 -4 29 -22 35 -39 8 -18 22 -31 34 -33 12 -2 31 -17 42 -34 11 -17 29 -35 40 -40 11 -5 30 -25 43 -44 13 -19 34 -40 46 -47 13 -7 29 -25 35 -40 6 -15 26 -35 44 -43 19 -9 34 -25 37 -40 4 -15 15 -26 30 -30 16 -4 33 -21 46 -45 11 -22 27 -40 36 -40 21 0 48 -24 48 -44 0 -30 17 -46 33 -33 12 10 18 8 31 -13 9 -14 21 -37 26 -51 6 -14 15 -22 21 -19 14 9 46 -21 53 -50 3 -13 18 -27 34 -33 18 -6 34 -22 42 -41 7 -18 20 -31 30 -31 20 0 60 -44 60 -66 0 -7 10 -14 22 -16 15 -2 30 -17 43 -42 11 -21 25 -38 30 -38 22 0 48 -22 61 -54 10 -23 21 -34 35 -34 15 0 25 -11 36 -40 12 -29 22 -40 38 -40 25 0 45 -18 45 -40 0 -28 22 -42 35 -23 11 15 16 9 39 -40 19 -42 31 -57 46 -57 13 0 26 -13 40 -39 13 -26 28 -41 42 -43 14 -2 29 -15 38 -35 8 -18 22 -33 31 -33 18 0 59 -41 59 -58 0 -7 12 -17 26 -22 16 -6 32 -25 42 -50 13 -30 23 -40 40 -40 17 0 27 -10 42 -45 13 -30 24 -43 33 -39 8 3 26 -9 42 -28 15 -18 36 -36 46 -40 10 -4 26 -24 36 -45 12 -25 25 -38 38 -38 14 0 27 -14 43 -45 12 -25 29 -45 37 -45 7 0 47 -35 89 -77 41 -43 78 -78 82 -78 10 0 98 -92 120 -125 9 -14 22 -25 30 -25 8 0 26 -18 40 -40 14 -22 34 -42 44 -45 10 -3 26 -18 35 -33 19 -28 102 -109 131 -128 10 -6 26 -27 37 -47 10 -20 23 -37 29 -37 5 0 29 -19 53 -42 24 -24 66 -64 94 -90 27 -25 57 -60 66 -77 8 -17 22 -31 30 -31 8 0 27 -16 42 -35 15 -19 33 -35 40 -35 6 0 24 -17 40 -38 15 -21 60 -67 98 -104 85 -80 345 -340 435 -435 36 -37 77 -77 91 -88 14 -11 54 -51 88 -90 35 -38 69 -71 76 -73 7 -2 45 -39 83 -82 39 -44 92 -99 119 -122 101 -91 333 -331 333 -345 0 -8 14 -19 31 -25 21 -7 36 -22 45 -44 8 -19 21 -34 30 -34 20 0 124 -90 124 -107 0 -14 113 -133 126 -133 11 0 124 -119 124 -130 0 -6 18 -21 39 -34 22 -14 42 -34 45 -44 4 -10 18 -24 31 -30 14 -7 33 -27 42 -46 9 -21 28 -39 43 -44 15 -6 32 -23 39 -40 8 -19 22 -32 34 -34 13 -2 30 -18 42 -41 11 -21 30 -40 43 -43 12 -4 29 -19 37 -34 8 -15 30 -37 49 -48 20 -12 36 -30 38 -44 2 -15 11 -24 25 -26 24 -4 63 -46 63 -68 0 -8 9 -14 19 -14 19 0 61 -47 61 -69 0 -6 9 -11 19 -11 21 0 61 -44 61 -66 0 -8 8 -14 18 -14 22 0 47 -25 56 -57 4 -12 17 -23 29 -25 13 -2 30 -18 42 -40 11 -21 27 -38 36 -38 19 0 40 -24 57 -62 7 -18 19 -28 32 -28 13 0 26 -12 37 -34 9 -20 26 -37 40 -40 14 -4 30 -21 41 -44 9 -21 26 -38 37 -40 28 -6 55 -32 55 -54 0 -14 5 -18 19 -13 21 6 43 -22 55 -68 5 -21 11 -27 23 -23 20 8 41 -10 58 -51 9 -21 19 -31 28 -27 17 6 57 -40 57 -67 0 -13 7 -19 24 -19 16 0 31 -10 44 -31 10 -17 30 -36 43 -42 13 -7 31 -26 39 -44 8 -18 24 -33 35 -35 11 -2 30 -21 42 -43 13 -23 32 -42 45 -45 13 -3 29 -19 38 -37 8 -18 22 -33 31 -33 20 0 44 -27 58 -63 6 -16 16 -25 22 -22 10 7 49 -21 49 -36 0 -4 5 -20 10 -34 8 -22 13 -25 24 -16 11 9 18 6 35 -18 12 -16 21 -34 21 -40 0 -6 9 -11 19 -11 19 0 51 -36 64 -72 4 -10 13 -18 21 -18 14 0 123 -102 143 -132 4 -7 17 -18 27 -24 11 -6 28 -27 39 -47 11 -22 26 -37 37 -37 10 0 28 -15 39 -33 11 -19 31 -38 44 -44 13 -6 32 -27 41 -47 9 -20 21 -34 26 -31 14 9 60 -41 60 -65 0 -14 6 -20 24 -20 14 0 30 -10 39 -24 22 -33 137 -146 226 -223 41 -35 84 -79 95 -97 12 -19 69 -78 129 -132 59 -53 107 -100 107 -104 0 -13 290 -294 320 -310 17 -9 39 -30 50 -48 11 -17 36 -44 57 -59 21 -15 74 -66 118 -113 44 -46 182 -187 306 -312 166 -167 234 -241 253 -280 l26 -52 0 -8785 c0 -5756 4 -8807 10 -8846 22 -129 20 -126 56 -141 24 -10 34 -21 34 -37 0 -28 26 -67 46 -67 8 0 23 -13 32 -30 9 -16 31 -37 48 -45 17 -8 37 -21 44 -30 7 -8 17 -15 22 -15 6 0 24 -6 41 -14 45 -19 162 -48 232 -57 33 -5 1780 -8 3882 -9 3452 0 3830 2 3900 16 43 9 100 20 126 24 139 25 307 154 349 268 23 64 35 82 51 79 36 -7 36 -116 36 10949 1 6969 -3 10780 -9 10830 -12 99 -20 137 -28 130 -10 -11 -32 17 -42 55 -6 22 -24 53 -40 69 -17 17 -30 36 -30 43 0 13 -245 265 -340 351 -30 27 -91 89 -136 138 -44 49 -95 98 -113 109 -17 10 -35 27 -38 36 -6 14 -96 106 -215 219 -18 17 -93 92 -167 167 -74 76 -138 137 -142 137 -5 0 -15 13 -24 30 -8 16 -28 36 -44 45 -16 8 -33 24 -36 35 -4 12 -24 32 -46 46 -21 13 -39 30 -39 37 -1 6 -26 35 -57 62 -31 28 -67 61 -81 75 -112 118 -296 300 -303 300 -5 0 -18 18 -29 39 -12 25 -28 41 -41 43 -12 2 -26 11 -30 21 -5 9 -13 25 -18 35 -4 9 -19 19 -32 20 -32 5 -49 20 -49 44 0 11 -14 27 -35 39 -19 12 -35 25 -35 29 0 13 -113 126 -133 133 -9 4 -27 22 -38 41 -11 19 -29 38 -40 41 -10 4 -26 19 -34 34 -8 16 -26 36 -40 45 -14 9 -31 27 -36 40 -6 13 -25 29 -42 37 -17 8 -38 27 -47 44 -9 16 -27 32 -40 35 -15 3 -27 17 -33 35 -13 40 -26 55 -48 55 -10 0 -25 13 -34 30 -8 16 -29 37 -45 45 -17 9 -30 20 -30 26 0 12 -98 110 -125 124 -11 6 -27 26 -36 45 -10 21 -26 37 -40 40 -14 4 -31 20 -40 39 -9 19 -29 39 -46 46 -17 7 -35 26 -43 44 -7 19 -20 31 -31 31 -11 0 -29 17 -44 40 -14 22 -32 40 -40 40 -8 0 -24 18 -35 40 -12 23 -31 45 -44 49 -12 5 -30 21 -40 36 -9 14 -28 30 -42 35 -13 5 -34 26 -45 45 -12 19 -28 35 -35 35 -8 0 -21 15 -29 34 -15 36 -30 50 -55 51 -8 0 -24 18 -37 40 -15 28 -28 39 -41 37 -22 -3 -36 11 -49 53 -5 17 -17 30 -25 30 -22 0 -45 22 -52 49 -3 14 -16 26 -30 30 -13 3 -30 16 -39 29 -8 13 -56 63 -106 113 -50 49 -100 98 -112 109 -48 48 -119 128 -119 136 0 4 -10 9 -22 11 -16 2 -30 17 -43 45 -17 36 -24 42 -42 38 -18 -4 -26 2 -43 35 -11 22 -27 40 -35 40 -9 0 -24 14 -34 31 -10 17 -45 53 -76 79 -32 27 -65 60 -74 74 -9 13 -28 34 -42 45 -14 10 -38 38 -53 60 -16 23 -35 41 -42 41 -18 0 -174 156 -203 203 -13 21 -31 37 -41 37 -10 0 -28 16 -40 35 -12 19 -25 35 -29 35 -4 0 -119 113 -257 250 -250 252 -262 264 -312 310 -15 14 -63 63 -106 108 -43 46 -92 92 -107 103 -16 11 -29 26 -29 34 0 7 -19 28 -42 46 -42 32 -85 74 -179 175 -26 27 -59 60 -75 74 -16 14 -68 67 -115 118 -48 50 -91 92 -96 92 -13 0 -53 44 -53 58 0 6 -13 18 -30 27 -16 8 -37 28 -47 43 -18 29 -122 132 -133 132 -4 0 -35 33 -70 74 -35 41 -72 77 -82 79 -10 3 -23 18 -29 34 -6 18 -22 35 -42 44 -18 8 -38 26 -45 41 -7 16 -23 33 -35 39 -12 6 -36 25 -53 43 -17 17 -61 58 -97 90 -36 33 -68 69 -71 80 -3 12 -18 29 -33 38 -44 26 -183 158 -199 190 -8 15 -20 28 -28 28 -17 0 -43 30 -48 55 -2 12 -13 21 -28 23 -32 5 -60 30 -60 54 0 10 -8 21 -17 25 -25 8 -63 44 -63 59 0 6 -11 19 -25 28 -41 27 -165 149 -187 184 -11 18 -33 39 -48 47 -15 8 -38 30 -49 49 -12 18 -30 36 -41 39 -11 3 -29 21 -40 40 -11 19 -29 37 -40 40 -10 3 -27 22 -38 43 -10 22 -24 38 -31 36 -19 -4 -40 17 -56 55 -9 20 -19 32 -26 28 -11 -7 -59 32 -59 48 0 13 -82 86 -97 87 -6 0 -21 16 -33 36 -12 19 -33 42 -46 51 -13 8 -33 30 -45 49 -11 19 -29 34 -39 34 -10 0 -26 12 -36 28 -9 15 -50 59 -89 97 -39 39 -79 82 -88 97 -10 16 -23 25 -31 22 -9 -3 -22 9 -37 35 -12 23 -27 41 -33 41 -11 0 -59 46 -173 166 -32 33 -66 63 -75 66 -9 4 -24 23 -33 42 -10 21 -28 38 -45 45 -16 5 -33 19 -40 30 -15 28 -186 201 -198 201 -6 0 -21 19 -34 42 -13 23 -33 47 -45 53 -12 6 -50 40 -85 76 -35 36 -70 68 -78 71 -8 2 -24 22 -35 43 -12 24 -29 41 -44 45 -14 3 -32 19 -41 35 -9 17 -27 31 -39 33 -12 2 -26 14 -31 26 -10 27 -188 210 -213 219 -9 4 -20 15 -24 24 -3 10 -36 46 -72 80 -36 34 -73 69 -81 77 -60 61 -88 93 -93 109 -4 10 -22 24 -40 32 -18 7 -38 25 -45 39 -6 14 -24 32 -39 40 -16 8 -35 26 -43 41 -8 15 -25 31 -37 36 -12 4 -34 26 -48 49 -14 22 -52 61 -85 87 -33 25 -60 51 -60 57 0 6 -54 62 -120 125 -66 63 -120 120 -120 128 0 7 -12 21 -27 30 -34 22 -359 343 -364 360 -2 6 -19 22 -38 35 -19 13 -39 31 -45 42 -6 10 -33 39 -61 65 -27 25 -86 83 -130 128 -44 45 -96 89 -115 97 -19 8 -45 26 -57 40 -26 29 -29 30 -184 51 -102 13 -443 15 -2855 14 -1506 0 -2748 -4 -2759 -9z m12295 -15436 c7 -7 10 -591 10 -1922 0 -1623 2 -1918 14 -1954 8 -24 16 -54 18 -68 3 -21 10 -26 48 -32 114 -17 350 -3 358 21 14 41 73 69 190 88 25 4 33 11 37 32 3 14 10 40 16 56 6 17 13 41 16 55 3 14 22 41 43 60 l38 35 11 128 c7 85 11 695 11 1806 0 1407 2 1680 14 1690 9 8 129 10 422 9 l408 -3 9 -45 c4 -25 6 -742 3 -1595 -4 -1651 -7 -1757 -51 -1805 -10 -11 -16 -20 -12 -20 3 0 -1 -22 -8 -50 -13 -48 -29 -203 -40 -379 -3 -55 -10 -90 -20 -101 -8 -9 -15 -23 -15 -31 0 -9 -13 -25 -30 -37 -20 -15 -31 -34 -35 -59 -15 -99 -38 -153 -72 -174 -31 -19 -33 -24 -33 -74 0 -50 3 -56 35 -81 20 -15 35 -35 35 -48 0 -11 7 -30 15 -40 8 -11 15 -36 15 -56 0 -33 15 -61 82 -152 13 -18 20 -61 28 -188 15 -225 35 -354 59 -388 41 -57 44 -154 48 -1977 3 -1425 2 -1733 -9 -1748 -12 -17 -41 -18 -416 -18 -297 0 -407 3 -418 12 -12 10 -14 268 -14 1850 0 1180 -4 1884 -10 1966 l-11 128 -38 35 c-33 29 -42 47 -57 110 -22 90 -28 100 -63 100 -15 0 -44 9 -66 20 -22 11 -48 20 -58 20 -10 0 -30 13 -45 30 -20 21 -42 32 -81 40 -83 16 -230 12 -285 -6 -89 -30 -81 186 -84 -2189 -1 -1154 -6 -2102 -10 -2106 -4 -4 -172 -9 -374 -10 -345 -3 -368 -2 -388 16 l-20 18 0 4492 0 4493 21 26 c19 24 25 25 127 28 259 7 621 3 632 -8z"/>
<path d="M31956 33555 c-21 -7 -50 -25 -65 -39 -15 -14 -37 -26 -49 -26 -25 0 -49 -20 -191 -160 -53 -52 -101 -107 -108 -122 -7 -15 -22 -28 -35 -30 -12 -2 -34 -20 -49 -42 -14 -21 -38 -45 -53 -53 -15 -8 -31 -25 -36 -38 -5 -14 -25 -31 -44 -39 -19 -8 -40 -25 -47 -37 -13 -25 -209 -221 -276 -276 -24 -20 -43 -42 -43 -49 0 -7 -11 -20 -23 -29 -13 -8 -30 -27 -37 -41 -8 -14 -27 -32 -43 -40 -15 -8 -36 -29 -46 -45 -11 -17 -33 -39 -49 -49 -17 -10 -32 -29 -34 -42 -2 -17 -14 -26 -45 -36 -24 -8 -43 -18 -43 -24 0 -5 -19 -29 -42 -51 -24 -23 -67 -70 -97 -105 -30 -34 -60 -62 -67 -62 -8 0 -20 -13 -29 -30 -8 -16 -28 -36 -44 -45 -16 -8 -33 -28 -39 -44 -6 -16 -23 -35 -39 -43 -15 -7 -33 -25 -40 -39 -7 -15 -26 -32 -43 -39 -16 -7 -32 -21 -35 -31 -4 -11 -24 -31 -46 -45 -21 -13 -39 -29 -39 -35 0 -6 -71 -81 -157 -167 -87 -86 -163 -165 -168 -176 -6 -12 -22 -22 -37 -24 -21 -2 -30 -11 -38 -39 -9 -24 -21 -38 -41 -45 -16 -6 -36 -23 -44 -39 -9 -16 -25 -34 -37 -40 -30 -16 -113 -100 -121 -122 -4 -9 -22 -27 -42 -38 -19 -12 -35 -26 -35 -31 0 -11 -120 -133 -137 -139 -6 -2 -16 -17 -24 -34 -8 -16 -25 -32 -38 -35 -22 -5 -30 -15 -51 -60 -4 -8 -19 -16 -34 -18 -21 -3 -31 -12 -42 -38 -8 -19 -25 -39 -39 -44 -13 -5 -31 -23 -40 -40 -9 -17 -27 -35 -41 -40 -14 -6 -30 -23 -36 -40 -7 -20 -22 -35 -44 -45 -22 -9 -36 -23 -40 -40 -4 -15 -17 -30 -31 -36 -13 -5 -33 -24 -44 -43 -11 -19 -28 -36 -39 -39 -11 -3 -29 -21 -40 -40 -12 -19 -31 -38 -43 -41 -13 -3 -30 -20 -39 -40 -11 -22 -25 -36 -40 -38 -15 -2 -29 -16 -40 -38 -10 -19 -25 -35 -34 -35 -18 0 -54 -40 -54 -61 0 -8 -16 -20 -35 -28 -25 -11 -36 -23 -43 -48 -5 -21 -15 -34 -28 -37 -26 -4 -44 -21 -54 -47 -5 -12 -21 -28 -37 -36 -15 -7 -33 -25 -40 -40 -7 -14 -24 -29 -37 -32 -14 -3 -30 -20 -41 -41 -9 -20 -27 -40 -40 -45 -12 -5 -32 -22 -44 -39 -12 -16 -30 -33 -41 -36 -11 -4 -27 -20 -35 -36 -9 -16 -21 -29 -29 -29 -15 0 -50 -37 -59 -62 -4 -10 -13 -18 -20 -18 -19 0 -42 -28 -54 -65 -5 -17 -18 -32 -29 -34 -24 -4 -54 -30 -54 -47 0 -8 -17 -25 -39 -38 -22 -15 -41 -36 -45 -51 -4 -17 -17 -30 -37 -37 -16 -5 -36 -23 -45 -39 -8 -16 -19 -29 -25 -29 -8 0 -45 -32 -101 -88 -83 -84 -107 -110 -117 -129 -6 -13 -18 -23 -25 -23 -19 0 -107 -93 -126 -133 -9 -19 -25 -33 -40 -37 -16 -3 -32 -19 -43 -43 -11 -21 -26 -37 -36 -37 -16 0 -61 -39 -61 -53 0 -11 -88 -97 -99 -97 -5 0 -22 -16 -36 -35 -15 -19 -35 -37 -45 -40 -10 -3 -30 -26 -44 -50 -14 -24 -35 -46 -46 -50 -10 -3 -28 -21 -40 -39 -11 -19 -32 -37 -45 -40 -14 -4 -33 -19 -43 -35 -9 -15 -32 -40 -50 -55 -17 -15 -32 -34 -32 -42 0 -7 -10 -18 -22 -25 -21 -10 -42 -29 -126 -112 -58 -58 -79 -82 -91 -104 -6 -12 -20 -24 -30 -28 -10 -3 -26 -21 -36 -40 -9 -21 -23 -35 -34 -35 -19 0 -61 -39 -61 -57 0 -6 -16 -20 -35 -32 -19 -11 -40 -32 -45 -45 -5 -15 -24 -32 -44 -40 -19 -8 -37 -24 -41 -35 -4 -12 -24 -33 -46 -47 -21 -13 -39 -29 -39 -34 0 -6 -27 -36 -60 -68 -76 -73 -70 -67 -238 -237 -78 -80 -147 -145 -153 -145 -5 0 -17 -16 -25 -35 -11 -27 -22 -37 -45 -42 -19 -4 -35 -16 -45 -35 -8 -16 -26 -33 -40 -38 -14 -6 -31 -25 -40 -45 -8 -20 -26 -41 -40 -47 -13 -6 -27 -22 -30 -35 -4 -13 -19 -30 -34 -38 -16 -8 -38 -29 -50 -46 -12 -17 -33 -34 -46 -40 -14 -5 -29 -20 -34 -34 -5 -14 -26 -35 -45 -46 -19 -12 -35 -27 -35 -35 0 -7 -11 -21 -25 -31 -44 -31 -131 -117 -138 -135 -3 -10 -20 -23 -38 -31 -22 -9 -35 -23 -43 -47 -9 -28 -17 -36 -39 -38 -21 -3 -32 -12 -42 -36 -8 -18 -25 -38 -40 -44 -14 -7 -33 -28 -41 -47 -8 -19 -21 -35 -29 -35 -8 0 -26 -16 -41 -36 -16 -20 -38 -40 -51 -45 -12 -4 -29 -24 -37 -44 -10 -24 -21 -35 -36 -35 -13 0 -28 -13 -41 -35 -12 -19 -33 -41 -47 -47 -15 -7 -32 -25 -39 -40 -7 -14 -24 -29 -37 -32 -16 -4 -29 -19 -40 -47 -11 -27 -21 -39 -30 -36 -15 6 -46 -22 -46 -42 0 -6 -15 -27 -34 -45 -27 -27 -36 -48 -46 -102 -9 -48 -20 -74 -37 -90 -16 -15 -27 -40 -33 -76 -5 -31 -8 -4512 -7 -10828 2 -9121 4 -10779 16 -10800 7 -14 21 -34 31 -45 10 -11 25 -55 34 -97 14 -64 21 -77 38 -80 22 -3 30 -14 45 -63 6 -23 15 -30 33 -30 19 0 30 -10 45 -38 13 -25 27 -37 41 -37 12 0 38 -13 58 -29 21 -17 62 -35 94 -43 47 -11 1476 -13 7887 -13 l7830 0 70 29 c39 16 82 37 97 47 14 11 30 19 34 19 4 0 40 34 80 75 40 41 77 75 83 75 6 0 20 18 31 40 16 30 26 40 45 40 14 0 25 5 25 11 0 21 41 69 59 69 10 0 26 16 37 37 11 21 29 42 41 47 11 6 28 22 37 38 9 15 29 33 43 40 15 7 34 27 43 43 9 17 27 35 39 41 13 7 31 26 42 43 10 17 27 31 38 31 13 0 24 13 35 40 12 31 21 40 40 40 17 0 27 8 36 33 19 53 27 62 49 60 15 -2 22 5 29 28 6 24 16 34 41 43 33 11 44 22 55 59 3 10 15 17 29 17 17 0 29 10 43 37 11 21 30 42 42 48 12 5 29 24 37 41 9 19 27 36 44 42 16 6 35 23 43 38 7 15 27 35 43 44 19 11 32 27 35 46 4 22 11 28 27 27 25 -3 50 23 55 57 2 20 9 25 33 25 25 0 32 5 41 35 6 19 19 38 28 42 9 4 24 12 34 17 9 4 19 21 22 36 4 22 12 31 37 37 21 5 38 19 48 37 8 16 25 31 38 35 13 3 30 20 40 41 9 19 28 40 41 45 13 5 28 22 34 39 6 17 19 34 29 37 35 11 48 21 53 44 3 13 12 26 20 30 47 22 55 30 60 56 4 22 11 30 32 32 31 4 45 18 50 52 2 19 10 26 33 30 22 4 34 14 46 40 10 20 26 37 40 40 12 3 30 19 39 35 9 17 27 35 41 42 13 7 31 25 40 40 8 15 32 36 52 46 25 11 37 24 37 37 0 12 13 28 33 40 17 11 34 30 37 42 3 13 20 30 39 39 19 9 39 29 46 46 8 19 23 33 39 37 14 3 32 19 41 36 8 16 28 36 44 45 16 8 33 28 39 44 7 19 18 31 34 33 15 2 29 16 41 41 11 25 24 37 37 37 13 0 29 13 41 35 12 19 33 41 47 47 15 7 33 26 40 41 7 15 31 36 53 47 21 11 39 27 39 35 0 8 15 26 34 40 19 15 36 36 38 48 2 14 16 28 35 36 18 8 35 23 39 33 3 10 17 26 32 36 37 24 201 193 208 215 3 9 23 26 44 37 21 11 41 28 45 39 3 11 18 27 33 36 15 10 38 31 50 47 13 15 37 35 53 43 16 9 29 21 29 28 1 14 61 77 249 262 73 72 140 144 148 160 9 17 31 47 49 68 19 20 34 40 34 45 0 4 9 59 20 122 23 135 25 220 5 275 -8 22 -18 65 -22 94 -5 46 -12 61 -45 93 -21 20 -38 44 -38 52 0 9 -9 20 -20 26 -12 6 -25 22 -30 36 -5 13 -24 33 -41 43 -17 11 -36 30 -43 42 -6 13 -27 34 -46 47 -19 13 -37 28 -39 35 -6 16 -119 127 -130 127 -5 0 -18 16 -30 35 -11 19 -32 40 -46 45 -14 5 -28 18 -32 27 -4 10 -39 48 -77 85 -99 94 -97 92 -202 198 -51 52 -106 107 -121 121 -15 14 -83 84 -151 155 -188 197 -245 254 -255 254 -6 0 -21 12 -34 26 -13 14 -30 23 -38 21 -16 -7 -30 9 -38 43 -4 14 -30 48 -59 77 -29 28 -61 60 -70 70 -142 148 -228 233 -237 233 -5 0 -16 10 -22 23 -18 34 -125 137 -143 137 -9 0 -25 18 -36 40 -22 43 -29 47 -48 28 -9 -9 -13 -7 -17 8 -18 57 -36 84 -55 84 -13 0 -25 12 -34 35 -8 19 -27 40 -41 47 -14 6 -33 26 -41 44 -9 20 -27 37 -45 43 -16 5 -29 15 -29 21 0 14 -114 130 -129 130 -6 0 -21 16 -32 35 -12 19 -32 38 -46 41 -15 4 -30 20 -41 43 -11 23 -25 37 -40 39 -14 2 -27 14 -34 30 -25 64 -31 72 -49 67 -14 -5 -23 4 -39 34 -11 23 -27 41 -35 41 -7 0 -23 14 -35 31 -13 17 -33 34 -46 39 -13 5 -30 25 -38 44 -10 23 -22 35 -38 38 -15 2 -29 16 -41 41 -12 23 -26 37 -38 37 -11 0 -29 16 -44 40 -16 25 -33 40 -45 40 -14 0 -25 12 -36 40 -9 22 -21 41 -28 42 -6 0 -18 1 -26 2 -12 1 -36 36 -53 81 -2 6 -10 5 -20 -4 -15 -12 -18 -10 -27 15 -16 47 -26 58 -51 64 -16 4 -27 16 -33 39 -7 24 -19 37 -42 47 -18 8 -36 23 -39 35 -4 11 -20 29 -37 39 -17 10 -35 29 -42 41 -6 13 -23 29 -36 36 -14 7 -32 24 -40 39 -9 15 -23 31 -33 36 -9 4 -25 12 -34 16 -9 5 -21 23 -25 40 -6 24 -15 31 -36 34 -21 2 -30 11 -38 38 -8 24 -21 38 -41 47 -17 6 -33 21 -36 32 -3 11 -19 29 -37 39 -18 11 -40 34 -51 51 -11 18 -27 31 -39 31 -13 0 -25 10 -33 28 -15 34 -36 51 -64 52 -12 0 -37 13 -55 28 -18 16 -42 33 -53 38 -12 5 -1473 11 -3640 14 l-3620 5 -6 30 c-4 17 -7 4728 -8 10470 l-1 10441 -20 39 c-11 22 -27 43 -35 48 -9 5 -15 22 -15 42 0 48 -27 112 -50 118 -10 3 -25 21 -34 40 -8 20 -26 43 -41 53 -14 9 -32 29 -40 44 -11 21 -25 29 -80 40 -54 11 -68 18 -78 39 -16 33 -53 40 -232 40 -94 0 -153 -4 -179 -14z m-4141 -11794 c160 -5 292 -13 308 -19 19 -8 27 -19 27 -36 0 -35 15 -42 123 -56 54 -7 100 -18 101 -24 17 -64 22 -71 62 -81 51 -12 74 -31 74 -59 0 -28 18 -46 46 -46 27 0 54 -35 54 -70 0 -15 6 -35 14 -46 12 -15 18 -17 34 -8 37 23 49 1 57 -98 8 -103 17 -128 44 -128 10 0 24 -6 30 -13 6 -8 16 -83 21 -168 23 -337 24 -338 63 -416 l36 -71 8 -264 c4 -144 5 -578 2 -963 -6 -584 -10 -712 -23 -770 -8 -38 -25 -110 -36 -160 -11 -49 -28 -176 -38 -280 -19 -192 -36 -255 -67 -255 -22 0 -32 -28 -40 -115 -9 -98 -17 -117 -49 -109 -34 8 -56 -28 -56 -92 0 -38 5 -55 20 -69 16 -15 22 -16 35 -5 22 18 37 1 40 -47 3 -38 18 -139 31 -200 4 -23 12 -33 25 -33 36 0 46 -39 64 -250 18 -220 32 -308 53 -333 8 -9 18 -42 24 -74 16 -86 23 -3620 7 -3639 -9 -12 -82 -14 -415 -14 l-403 0 -11 19 c-7 13 -10 622 -11 1893 0 1030 -4 1906 -8 1947 -6 66 -11 77 -37 100 -21 18 -38 48 -54 96 -38 117 -36 115 -70 115 -17 0 -44 7 -61 16 -18 9 -39 12 -52 8 -17 -5 -29 3 -62 41 l-42 47 -136 6 c-123 4 -139 3 -157 -13 -11 -10 -20 -24 -20 -32 0 -7 -12 -37 -27 -66 l-28 -52 -3 -2041 -2 -2041 -21 -19 c-20 -18 -44 -19 -380 -22 l-359 -3 -25 25 -25 25 0 4464 1 4464 17 17 c15 13 51 16 223 18 500 7 814 7 1074 -1z m65 -12199 c143 -79 216 -182 253 -357 l21 -100 3 -1403 c3 -1190 1 -1412 -11 -1460 -8 -31 -17 -81 -21 -111 -15 -112 -106 -253 -189 -293 -23 -10 -57 -27 -76 -37 -85 -46 -111 -52 -216 -52 l-103 0 -78 41 c-163 87 -237 163 -271 280 -42 143 -47 325 -47 1615 0 1287 5 1474 46 1611 20 66 29 80 108 162 47 49 97 93 111 97 14 4 33 14 43 23 27 24 82 31 222 28 l130 -3 75 -41z m3760 14 c19 -13 49 -32 66 -42 40 -24 116 -108 139 -154 9 -19 26 -45 37 -57 11 -11 22 -41 24 -65 3 -23 12 -77 22 -118 16 -69 17 -203 17 -1710 l0 -1635 -175 0 -175 0 -5 1692 -5 1692 -30 31 c-16 16 -46 35 -67 40 -20 6 -41 18 -46 27 -8 14 -12 13 -31 -6 -11 -11 -26 -21 -32 -21 -23 0 -70 -44 -90 -83 -41 -85 -42 -125 -34 -1772 7 -1433 6 -1582 -9 -1594 -11 -10 -51 -12 -160 -9 -120 2 -148 6 -162 20 -13 13 -15 20 -6 31 8 10 12 399 12 1483 0 1419 8 1872 32 1917 5 10 16 42 25 70 25 86 110 193 181 228 26 13 55 30 65 38 29 24 87 30 232 25 124 -4 144 -8 175 -28z m1932 -30 c48 -31 97 -71 110 -89 12 -18 31 -38 41 -46 29 -21 64 -108 71 -181 4 -36 14 -83 21 -105 16 -47 28 -244 16 -263 -6 -9 -49 -13 -172 -13 l-164 -1 -10 165 -10 166 -33 34 c-22 23 -49 37 -81 45 -44 10 -54 9 -100 -13 -111 -54 -107 10 -103 -1515 3 -1020 6 -1287 18 -1380 8 -63 14 -120 14 -127 0 -7 14 -28 31 -47 35 -40 108 -66 188 -66 46 0 53 3 61 26 6 15 10 289 10 708 0 535 3 686 13 693 6 6 75 10 155 11 93 0 147 4 156 11 9 8 16 8 20 2 10 -15 7 -1754 -3 -1764 -4 -4 -147 -7 -317 -5 l-309 3 -98 39 c-85 33 -104 45 -146 93 -37 41 -53 69 -61 107 -7 28 -18 65 -26 81 -35 78 -37 134 -41 1465 -5 1458 -1 1599 44 1722 38 104 107 186 209 247 44 27 93 52 110 54 16 3 90 4 164 3 l135 -3 87 -57z m5056 -145 l-3 -156 -260 -5 c-174 -4 -270 -10 -290 -18 -39 -17 -85 -78 -85 -114 0 -16 -9 -55 -20 -87 -22 -67 -22 -60 -21 -649 l1 -423 25 -25 26 -25 126 2 c112 2 127 0 133 -15 9 -26 3 -277 -7 -286 -4 -4 -68 -10 -140 -12 -89 -2 -137 -8 -145 -16 -10 -10 -14 -199 -15 -890 -3 -826 -4 -877 -20 -884 -28 -11 -272 -9 -294 2 l-19 11 0 1477 c0 939 4 1552 11 1682 21 395 73 505 272 567 l82 26 302 1 c166 1 305 4 309 8 4 4 13 3 21 -4 11 -8 13 -45 11 -167z m-12985 -751 c2 -806 4 -903 20 -973 29 -132 65 -163 174 -151 l62 6 33 67 33 66 5 948 5 948 163 1 c96 1 167 -3 173 -9 15 -15 7 -1879 -8 -1918 -7 -16 -17 -66 -22 -110 -16 -125 -54 -187 -171 -281 -30 -24 -68 -55 -85 -69 l-30 -25 -5 -677 -5 -678 -158 -3 c-87 -1 -165 1 -173 6 -13 7 -15 87 -14 655 0 549 -2 652 -14 682 -8 19 -20 35 -26 35 -6 0 -37 25 -69 55 -32 30 -62 55 -67 55 -5 0 -28 23 -52 50 -31 36 -49 70 -62 117 -40 137 -45 275 -45 1213 l0 895 150 5 c91 3 157 1 168 -5 17 -9 18 -58 20 -905z m3716 906 c8 -10 11 -431 11 -1600 0 -1640 1 -1689 40 -1767 24 -46 35 -54 95 -69 46 -12 55 -11 98 8 26 12 47 27 47 35 0 7 11 24 25 37 l25 23 2 1670 3 1670 170 0 170 -1 3 -1618 c2 -1377 0 -1627 -12 -1674 -8 -31 -18 -85 -22 -120 -6 -54 -33 -130 -62 -176 -44 -69 -68 -98 -94 -112 -17 -10 -42 -26 -57 -38 -14 -12 -44 -27 -66 -34 -22 -7 -53 -19 -68 -27 -19 -9 -62 -14 -131 -14 -86 0 -110 3 -142 20 -21 12 -43 21 -49 21 -5 0 -35 17 -66 38 -71 47 -156 145 -170 195 -6 22 -20 57 -31 78 -38 74 -43 262 -43 1909 l0 1545 145 5 c80 3 150 7 156 8 6 1 17 -4 23 -12z m7346 -11 l20 -12 -5 -1839 c-3 -1186 -2 -1845 5 -1856 20 -37 -7 -43 -179 -43 -124 0 -167 3 -180 14 -11 9 -13 17 -6 26 14 17 14 3674 -1 3691 -18 22 12 29 151 34 145 6 164 5 195 -15z m3810 -142 l0 -158 -260 -5 c-234 -5 -264 -7 -299 -25 -53 -27 -75 -60 -86 -126 -5 -30 -13 -74 -19 -99 -13 -57 -14 -980 -1 -1034 4 -21 15 -43 22 -48 7 -5 71 -8 143 -7 l129 2 6 -24 c3 -13 3 -82 0 -154 l-5 -130 -142 -5 c-78 -3 -145 -9 -150 -13 -4 -5 -8 -270 -8 -590 0 -734 2 -746 123 -808 l47 -24 250 -2 250 -1 0 -179 0 -178 -341 0 c-300 0 -344 2 -360 16 -11 9 -41 27 -69 40 -98 47 -155 133 -204 310 -41 145 -46 304 -46 1514 0 1279 4 1386 57 1585 l31 115 74 70 c118 113 174 124 603 120 l255 -3 0 -159z m-5510 -1408 c0 -1267 3 -1577 14 -1651 7 -51 16 -96 20 -101 11 -17 96 -70 130 -81 19 -7 85 -12 146 -12 78 0 116 -4 123 -13 14 -17 19 -324 5 -338 -6 -6 -85 -9 -224 -7 l-214 3 -66 40 c-123 74 -163 110 -189 167 -72 163 -67 137 -85 395 -12 169 -15 483 -15 1679 0 809 3 1474 7 1478 4 3 84 5 177 4 l171 -3 0 -1560z"/>
<path d="M27395 21001 c-34 -15 -45 -36 -66 -118 -17 -70 -19 -119 -20 -508 -1 -236 -1 -446 -1 -465 -1 -19 0 -471 1 -1003 l1 -969 25 -30 c14 -16 25 -40 25 -52 0 -13 10 -31 21 -42 19 -17 35 -19 171 -16 l150 3 54 31 c30 16 54 33 54 38 0 15 55 44 94 50 37 5 40 8 51 52 6 25 19 58 28 72 9 14 17 31 17 38 0 7 14 25 32 40 l33 27 0 1249 0 1250 -22 31 c-13 16 -23 33 -23 37 0 4 -11 17 -24 29 -14 13 -27 40 -31 61 -12 73 -20 84 -65 84 -42 0 -62 19 -75 71 -6 24 -12 27 -68 33 -113 12 -342 16 -362 7z"/>
<path d="M27578 9239 c-36 -16 -50 -29 -57 -53 -34 -109 -35 -140 -35 -1381 -1 -1360 2 -1512 30 -1595 24 -70 74 -104 144 -96 71 7 95 23 121 79 l24 50 0 1451 0 1451 -19 38 c-24 49 -48 64 -111 72 -39 4 -61 1 -97 -16z"/>
<path d="M42590 4113 c-33 -3 -55 -13 -85 -39 -22 -19 -45 -39 -52 -44 -12 -10 -18 -230 -18 -667 0 -171 2 -205 16 -218 24 -25 134 -24 184 0 l40 20 8 80 c9 101 29 187 42 187 10 0 15 -15 36 -117 7 -33 16 -64 20 -69 14 -15 176 -22 257 -10 51 8 57 18 67 106 3 37 11 70 15 73 20 13 38 -44 43 -135 6 -111 12 -130 41 -130 12 0 31 -7 43 -15 22 -16 109 -16 145 0 31 13 41 69 35 198 -4 67 -9 221 -12 342 -9 340 -9 340 -60 394 l-44 46 -62 -3 c-58 -2 -65 -5 -92 -37 -16 -19 -34 -35 -42 -35 -17 0 -34 -50 -42 -124 -5 -46 -12 -65 -34 -87 -16 -16 -31 -42 -34 -57 -15 -71 -28 -112 -39 -121 -16 -13 -84 -17 -96 -5 -5 5 -14 43 -19 82 -10 80 -22 103 -54 99 -21 -2 -22 4 -30 98 -8 97 -17 125 -41 125 -7 0 -26 16 -43 35 -17 19 -35 34 -40 33 -4 -1 -28 -3 -53 -5z"/>
<path d="M41693 4099 c-44 -13 -63 -52 -63 -133 0 -85 9 -93 106 -95 42 -1 84 -6 93 -11 32 -17 41 -100 41 -394 0 -310 2 -318 60 -330 16 -3 44 -9 60 -12 18 -4 36 -1 44 6 11 8 20 8 35 1 17 -10 22 -7 36 18 12 25 15 81 16 333 0 167 3 321 7 343 l7 40 104 7 c65 4 109 12 116 20 7 7 15 38 19 68 6 64 -14 117 -54 137 -30 15 -575 17 -627 2z"/>
</g>
</g>
</svg>
