<?xml version="1.0" standalone="no"?>
<!DOCTYPE svg PUBLIC "-//W3C//DTD SVG 1.1//EN"
 "http://www.w3.org/Graphics/SVG/1.1/DTD/svg11.dtd">
<!-- Created with svg_stack (http://github.com/astraw/svg_stack) -->
<svg xmlns:sodipodi="http://sodipodi.sourceforge.net/DTD/sodipodi-0.dtd" xmlns="http://www.w3.org/2000/svg" version="1.1" width="1480.0" height="1480.0">
  <defs/>
  <g id="id0:id0" transform="matrix(1.25,0,0,1.25,0.0,0.0)"><g transform="translate(0.000000,1184.000000) scale(0.040000,-0.040000)" fill="#ffffff" stroke="none">
<path d="M19323 25318 c-6 -7 -10 -32 -9 -56 l1 -42 2955 -2955 2955 -2955 40 0 c23 0 46 5 53 12 19 19 17 5981 -1 5997 -21 17 -5981 16 -5994 -1z"/>
<path d="M4300 23582 c0 -1107 -3 -1731 -10 -1738 -5 -5 -10 -34 -11 -63 -2 -41 2 -56 14 -63 16 -8 17 -110 17 -1356 0 -1035 3 -1351 12 -1360 9 -9 800 -12 3497 -12 1918 0 3492 4 3499 8 13 9 12 452 -6 4582 l-7 1725 -3502 3 -3503 2 0 -1728z"/>
<path d="M18281 25236 c-8 -9 -11 -1021 -11 -3450 0 -1891 -3 -3442 -6 -3447 -3 -5 -2874 -9 -6988 -9 -5417 0 -6985 -3 -6994 -12 -17 -17 -17 -7019 0 -7036 9 -9 1577 -12 6994 -12 4114 0 6985 -4 6988 -9 3 -5 6 -1556 6 -3447 0 -2511 3 -3441 11 -3451 6 -7 31 -13 54 -13 l43 0 3436 3437 c2983 2983 3437 3440 3434 3462 -3 23 1 26 27 26 26 1 241 212 1761 1733 l1731 1732 -1 60 -1 60 -1735 1735 c-1153 1153 -1742 1735 -1755 1735 -28 0 -3505 3477 -3505 3505 0 13 -569 589 -1695 1715 l-1695 1695 -44 2 c-26 1 -49 -3 -55 -11z"/>
<path d="M4318 10606 c-19 -14 -19 22 -18 -4569 l0 -1737 3503 2 3502 3 5 1730 c3 952 4 2372 2 3158 l-3 1427 -3487 0 c-2858 -1 -3490 -3 -3504 -14z"/>
<path d="M22282 7317 c-2509 -2509 -2963 -2968 -2960 -2988 l3 -24 2987 -3 2988 -2 2 1752 c2 964 2 2310 0 2991 l-2 1237 -28 0 c-23 0 -490 -463 -2990 -2963z"/>
</g>
</g>
</svg>
