<?xml version="1.0" standalone="no"?>
<!DOCTYPE svg PUBLIC "-//W3C//DTD SVG 1.1//EN"
 "http://www.w3.org/Graphics/SVG/1.1/DTD/svg11.dtd">
<!-- Created with svg_stack (http://github.com/astraw/svg_stack) -->
<svg xmlns:sodipodi="http://sodipodi.sourceforge.net/DTD/sodipodi-0.dtd" xmlns="http://www.w3.org/2000/svg" version="1.1" width="2236.0" height="840.0">
  <defs/>
  <g id="id0:id0" transform="matrix(1.25,0,0,1.25,0.0,0.0)"><g transform="translate(0.000000,672.000000) scale(0.040000,-0.040000)" fill="#ffffff" stroke="none">
<path d="M0 12735 l0 -4065 6573 -2 6572 -3 0 -1025 0 -1025 -6572 -3 -6573 -2 0 -3305 0 -3305 22360 0 22360 0 0 8400 0 8400 -22360 0 -22360 0 0 -4065z m14215 -1215 c66 -6 143 -12 170 -14 28 -2 57 -6 65 -9 8 -3 56 -11 105 -17 195 -27 554 -128 750 -210 126 -54 325 -157 445 -232 169 -105 307 -215 461 -368 306 -303 475 -567 645 -1010 168 -436 303 -1058 330 -1515 6 -94 5 -671 0 -755 -11 -163 -69 -572 -95 -665 -6 -22 -22 -87 -36 -145 -47 -191 -81 -295 -172 -525 -59 -149 -178 -383 -246 -485 -65 -96 -207 -261 -337 -391 -551 -552 -1272 -884 -2225 -1024 -127 -18 -133 -19 -360 -34 -93 -7 -196 -16 -227 -22 -32 -5 -146 -9 -254 -9 -108 1 -198 0 -200 -3 -2 -2 -5 -339 -7 -748 -1 -409 -6 -750 -10 -756 -6 -10 -377 -12 -1765 -10 l-1757 2 0 1798 0 1798 2062 -1 2062 0 11 19 c7 13 10 479 10 1459 0 1199 -2 1441 -14 1451 -9 8 -562 11 -2072 11 l-2059 -1 0 1198 0 1198 265 2 c146 0 900 4 1677 8 777 4 1426 10 1443 14 49 10 1201 2 1335 -9z m16023 -2347 c2 -2213 3 -2333 20 -2333 9 0 26 17 38 38 12 20 52 89 91 152 38 63 130 216 203 340 73 124 179 302 235 395 106 177 249 418 466 785 70 118 135 225 146 238 l18 23 1305 -1 c744 0 1308 -4 1313 -9 5 -5 -3 -31 -21 -63 -16 -29 -51 -91 -77 -138 -26 -47 -51 -89 -55 -95 -4 -5 -20 -32 -35 -60 -49 -86 -97 -172 -257 -450 -316 -551 -431 -751 -683 -1190 -141 -247 -261 -454 -265 -460 -4 -5 -20 -32 -35 -60 -16 -27 -48 -85 -72 -128 -24 -43 -55 -96 -68 -117 -14 -22 -25 -42 -25 -45 0 -3 -10 -22 -23 -43 -68 -108 -97 -162 -97 -181 0 -19 19 -58 80 -166 12 -22 61 -110 107 -195 47 -85 93 -168 103 -185 10 -16 33 -59 52 -95 41 -76 68 -125 155 -277 34 -62 63 -114 63 -117 0 -3 36 -69 80 -145 44 -77 80 -142 80 -144 0 -3 36 -68 80 -146 44 -77 80 -143 80 -145 0 -2 25 -48 56 -102 31 -55 72 -128 91 -164 19 -36 68 -123 108 -195 40 -71 92 -166 115 -210 24 -44 46 -84 50 -90 4 -5 24 -40 44 -77 20 -38 52 -98 72 -135 20 -38 40 -72 44 -78 4 -5 23 -39 42 -75 63 -116 100 -184 138 -250 72 -126 102 -189 96 -199 -7 -11 -2546 -16 -2629 -5 l-48 7 -37 64 c-20 35 -44 76 -52 91 -8 15 -43 74 -77 132 -64 107 -82 139 -329 563 -162 277 -381 653 -509 872 -119 204 -146 245 -162 245 -11 0 -13 -175 -15 -987 l-3 -988 -1228 -3 c-676 -1 -1235 1 -1243 6 -12 7 -14 585 -14 4462 l0 4455 32 6 c18 4 578 6 1243 5 l1210 -1 3 -2332z m6582 -278 c331 -18 683 -69 950 -139 153 -40 350 -103 450 -144 228 -94 343 -149 477 -228 82 -49 242 -173 331 -258 62 -59 131 -152 174 -234 85 -163 143 -446 147 -717 2 -77 7 -216 11 -310 5 -93 8 -287 7 -430 -2 -287 -2 -938 1 -1194 1 -108 -2 -169 -10 -178 -15 -19 -2521 -19 -2536 0 -7 8 -10 319 -11 906 0 507 -3 897 -9 903 -4 4 -105 7 -223 6 l-214 -3 -3 -1109 c-1 -768 1 -1113 8 -1120 8 -8 478 -13 1506 -16 l1495 -5 -1 -1014 c0 -731 -3 -1018 -12 -1028 -9 -11 -173 -12 -967 -8 -526 3 -1401 7 -1946 10 -650 3 -1009 8 -1045 15 -262 52 -550 157 -748 274 -164 96 -194 117 -315 210 -242 188 -446 435 -563 682 -54 115 -111 282 -119 351 -26 232 -55 601 -71 908 -9 163 -9 1076 0 1210 4 55 11 159 16 230 6 72 12 164 14 205 4 81 45 438 70 610 31 212 102 401 227 603 176 283 464 542 764 687 170 82 452 161 845 235 202 38 640 87 775 86 39 0 88 4 110 9 36 8 205 6 415 -5z m-9778 -64 c160 -4 271 -10 277 -16 7 -7 11 -372 11 -1105 l1 -1095 -708 -5 c-390 -3 -714 -9 -720 -13 -10 -6 -13 -439 -13 -2004 0 -1468 -3 -2000 -12 -2010 -9 -11 -213 -13 -1237 -11 l-1226 3 -6 300 c-10 466 -9 4128 1 4420 9 274 15 312 72 455 91 227 306 468 588 657 253 169 563 302 798 342 170 29 205 34 512 67 19 2 118 6 220 10 102 3 187 8 189 10 7 6 961 3 1253 -5z m16403 -16 c230 -3 423 -9 427 -13 4 -4 7 -498 6 -1098 l-3 -1089 -715 -5 c-393 -3 -716 -6 -717 -8 -2 -1 -4 -908 -5 -2014 l-3 -2013 -1228 -2 c-676 -2 -1235 1 -1243 5 -22 12 -21 4810 1 4927 37 195 128 380 274 555 74 89 134 153 168 180 17 14 65 53 106 87 236 197 522 336 837 406 184 41 207 45 375 62 88 9 183 20 210 24 50 8 702 6 1510 -4z m-21975 -56 c222 -28 456 -122 655 -264 107 -76 298 -263 362 -354 168 -240 263 -481 309 -784 9 -56 18 -113 22 -127 8 -39 13 -4539 5 -4601 l-8 -54 -1460 2 c-1688 3 -3199 15 -3235 27 -14 5 -69 21 -123 38 -94 28 -309 116 -352 144 -11 7 -44 26 -72 41 -100 53 -239 158 -347 263 -261 253 -359 446 -467 923 -55 246 -66 678 -23 902 40 207 115 415 197 547 51 82 168 201 268 271 198 140 556 278 889 343 160 31 403 64 580 79 102 9 228 20 280 26 82 9 695 7 835 -3 l40 -3 5 -850 c3 -467 8 -855 12 -862 6 -8 71 -11 218 -12 l211 0 9 25 c12 31 13 2143 2 2162 -7 10 -277 12 -1349 12 -1050 0 -1343 3 -1351 13 -11 13 -12 2085 0 2102 9 14 3773 9 3888 -6z"/>
</g>
</g>
</svg>
