<?xml version="1.0" standalone="no"?>
<!DOCTYPE svg PUBLIC "-//W3C//DTD SVG 1.1//EN"
 "http://www.w3.org/Graphics/SVG/1.1/DTD/svg11.dtd">
<!-- Created with svg_stack (http://github.com/astraw/svg_stack) -->
<svg xmlns:sodipodi="http://sodipodi.sourceforge.net/DTD/sodipodi-0.dtd" xmlns="http://www.w3.org/2000/svg" version="1.1" width="398.0" height="378.0">
  <defs/>
  <g id="id0:id0" transform="matrix(1.25,0,0,1.25,0.0,0.0)"><g transform="translate(0.000000,302.400000) scale(0.040000,-0.040000)" fill="#ffffff" stroke="none">
<path d="M722 7473 c-111 -97 -322 -278 -417 -359 -166 -139 -275 -239 -275 -253 0 -26 61 -104 244 -312 179 -203 528 -501 846 -722 l95 -66 60 34 c105 61 221 113 280 125 49 10 64 9 123 -9 86 -26 198 -96 359 -225 87 -69 106 -99 93 -147 -15 -51 -22 -518 -11 -684 32 -475 77 -743 187 -1125 41 -144 96 -296 169 -465 30 -69 120 -246 179 -349 31 -54 56 -101 56 -105 0 -4 -77 -78 -171 -165 l-170 -158 -63 -5 -63 -5 -11 -60 c-8 -41 -20 -70 -42 -94 -16 -19 -30 -45 -30 -57 0 -30 -18 -47 -51 -47 -22 0 -156 -131 -795 -778 -1150 -1162 -1122 -1133 -1128 -1167 -4 -17 -11 -43 -17 -60 -41 -114 -31 -158 44 -194 41 -20 48 -21 69 -8 26 15 85 33 138 42 31 4 149 120 975 956 517 523 946 964 952 980 7 16 25 36 40 46 16 9 40 27 54 41 23 20 30 22 49 12 31 -17 85 -4 109 26 16 20 18 35 14 79 l-6 55 44 47 c24 27 87 95 142 153 l98 105 42 -46 c23 -25 74 -83 112 -128 92 -108 247 -251 414 -380 134 -104 482 -321 513 -321 32 0 300 157 440 257 213 153 441 367 608 570 41 50 78 89 83 86 4 -2 73 -79 152 -169 l145 -165 -2 -58 c-4 -70 10 -91 61 -91 43 0 109 -29 135 -59 11 -11 30 -21 42 -21 16 0 29 -10 41 -34 10 -18 441 -461 958 -985 824 -834 944 -952 975 -956 62 -10 115 -27 132 -42 16 -14 23 -13 75 13 50 25 59 34 67 67 8 30 5 47 -12 90 -12 29 -22 65 -22 82 0 33 92 -63 -1108 1152 -654 661 -790 794 -824 805 -33 11 -42 20 -53 51 -7 22 -23 49 -35 62 -14 15 -23 41 -27 80 l-6 57 -42 19 c-35 16 -47 17 -74 6 l-31 -12 -188 188 -187 187 29 53 c67 123 168 329 206 422 155 372 267 834 303 1245 8 85 16 171 18 190 6 57 3 648 -3 744 l-7 88 27 25 c98 92 270 213 377 264 90 44 159 45 259 4 69 -28 197 -97 228 -122 20 -18 26 -15 146 69 354 248 745 598 953 855 116 145 121 151 114 170 -3 10 -65 68 -137 128 -72 61 -154 131 -182 156 -92 83 -408 354 -438 376 -17 12 -37 19 -45 16 -20 -8 -234 -250 -368 -418 -201 -252 -383 -502 -585 -805 -61 -91 -130 -176 -245 -298 l-160 -171 -1786 0 -1786 -1 -161 170 c-135 142 -180 198 -280 347 -285 427 -632 877 -851 1106 -85 89 -77 89 -179 0z m161 -105 c59 -61 166 -187 262 -308 28 -34 66 -82 85 -106 38 -47 74 -94 147 -194 122 -165 166 -229 295 -420 123 -182 160 -228 336 -417 108 -116 201 -210 207 -209 5 1 12 13 15 26 3 15 16 27 30 31 14 4 798 7 1743 8 l1719 1 11 -30 c6 -17 15 -29 18 -28 21 8 411 432 435 474 61 104 283 419 471 669 205 272 461 571 475 557 8 -8 35 -271 43 -432 12 -213 14 -216 115 -201 100 15 358 50 445 60 39 5 74 5 78 1 31 -28 -430 -501 -688 -705 -111 -89 -230 -178 -320 -240 l-69 -48 -38 22 c-138 79 -276 131 -348 131 -44 0 -162 -40 -216 -73 -176 -108 -372 -260 -381 -295 -3 -12 0 -96 7 -185 18 -238 23 -463 11 -537 -5 -36 -17 -162 -25 -280 -9 -118 -17 -226 -20 -240 -2 -14 -9 -54 -14 -90 -15 -97 -51 -281 -61 -315 -6 -16 -19 -69 -30 -116 -25 -107 -116 -382 -170 -514 -259 -626 -703 -1153 -1261 -1493 -129 -78 -194 -112 -217 -112 -22 0 -276 151 -376 223 -569 410 -965 957 -1185 1637 -92 284 -166 614 -187 833 -3 26 -9 93 -15 150 -5 56 -13 134 -16 172 -9 92 -9 583 -1 660 21 189 21 204 1 226 -55 62 -285 228 -389 282 -125 65 -190 77 -286 53 -55 -15 -212 -86 -275 -126 -19 -12 -28 -8 -90 33 -292 195 -652 510 -873 764 -148 170 -156 182 -142 196 10 9 15 8 25 -5 9 -12 27 -18 52 -18 33 -1 123 -12 289 -35 250 -35 239 -34 252 -18 13 17 21 73 29 208 6 95 8 117 23 285 8 87 8 107 -5 121 -14 16 -10 29 10 29 6 0 37 -28 69 -62z m4549 -4783 c109 -107 206 -195 216 -195 10 0 28 7 41 16 32 23 48 5 31 -35 l-12 -31 42 -46 c27 -30 40 -52 37 -64 -3 -10 4 -32 14 -49 15 -25 26 -30 61 -33 l43 -3 815 -825 c1169 -1183 1055 -1064 1057 -1113 0 -23 4 -57 8 -74 10 -46 -18 -57 -49 -18 l-22 28 -37 -14 -38 -13 -612 618 c-337 339 -762 770 -946 956 l-334 339 13 30 c18 44 6 54 -51 47 l-49 -7 -54 51 -54 51 -26 -16 c-14 -10 -33 -14 -42 -11 -14 5 -13 10 6 41 12 20 18 40 14 47 -4 7 -53 64 -108 126 -203 228 -235 267 -235 285 -1 17 56 107 67 107 3 0 94 -88 204 -195z m-2632 103 c16 -22 30 -49 30 -58 0 -17 -130 -163 -261 -295 -32 -33 -59 -66 -59 -74 0 -8 10 -25 21 -37 23 -25 20 -54 -6 -54 -8 0 -20 9 -27 20 -19 29 -33 25 -89 -27 -45 -42 -55 -47 -99 -47 -57 -1 -67 -13 -44 -57 l15 -30 -644 -652 c-354 -359 -779 -789 -944 -956 l-299 -305 -33 13 c-29 13 -34 12 -55 -8 -24 -22 -61 -28 -71 -11 -4 6 1 23 10 37 12 18 15 37 11 63 l-6 37 937 949 937 949 39 1 c49 1 77 28 84 83 4 30 15 49 39 71 34 29 43 53 24 65 -13 8 -13 42 -1 49 5 4 23 -2 40 -11 l30 -18 33 31 c127 120 343 314 350 314 4 0 21 -19 38 -42z"/>
<path d="M3882 5403 c-44 -60 -88 -116 -99 -126 l-20 -17 -76 87 c-42 49 -84 99 -95 112 -10 14 -25 22 -33 19 -8 -3 -42 -61 -77 -129 -34 -68 -71 -135 -82 -149 l-19 -25 -113 113 c-62 61 -119 112 -125 112 -17 0 -21 -24 -28 -185 -4 -77 -9 -143 -11 -147 -4 -6 -193 92 -222 115 -7 5 -26 17 -43 26 -158 85 -199 107 -229 127 -36 25 -60 31 -60 15 0 -9 176 -184 191 -189 5 -2 16 1 24 8 20 17 91 -7 142 -47 32 -27 44 -45 53 -84 7 -27 9 -61 5 -76 -5 -23 2 -35 57 -90 75 -76 98 -81 98 -23 l0 41 45 19 c25 11 64 39 86 64 l40 44 59 -36 c62 -36 68 -52 21 -52 -67 0 -200 -96 -215 -155 -16 -61 29 -55 59 8 11 23 31 47 43 53 13 7 29 17 35 23 14 14 139 14 192 0 22 -6 63 -14 92 -19 29 -4 67 -15 84 -24 53 -26 92 -19 201 35 10 5 24 9 31 9 16 0 47 32 47 48 0 7 -12 4 -32 -7 -18 -10 -54 -24 -81 -31 -26 -7 -50 -17 -53 -21 -17 -29 -218 21 -282 69 -29 22 -31 26 -18 41 18 20 37 103 34 145 -3 27 0 30 47 42 34 9 58 23 75 44 l25 31 65 -6 c53 -5 72 -3 103 13 l37 20 11 -21 c16 -31 121 -137 135 -137 21 0 74 51 94 91 11 21 24 40 29 43 5 4 27 -5 47 -19 43 -29 74 -27 110 6 l20 19 32 -40 c33 -40 85 -63 133 -58 l24 3 0 -62 c0 -50 4 -67 21 -83 28 -28 91 -18 142 22 34 27 38 28 47 13 33 -57 56 -74 103 -77 l47 -3 -3 -27 c-3 -24 0 -28 20 -28 17 0 59 36 151 128 l127 129 -17 46 c-13 35 -23 47 -38 47 -11 0 -75 -31 -142 -69 -68 -38 -125 -66 -127 -63 -2 4 -7 75 -12 157 -4 83 -9 161 -10 175 -1 14 -3 31 -3 38 -2 26 -28 5 -128 -103 -158 -172 -180 -192 -197 -175 -13 14 -62 150 -86 239 -6 23 -14 41 -19 41 -9 0 -88 -83 -162 -168 l-46 -54 -35 44 c-19 24 -59 80 -88 126 -30 45 -59 82 -66 82 -7 0 -48 -48 -92 -107z"/>
<path d="M5254 5491 c-50 -23 -90 -72 -102 -126 -10 -48 0 -90 32 -129 l24 -29 84 88 c89 93 129 150 122 170 -6 13 -79 45 -104 45 -8 0 -34 -9 -56 -19z"/>
<path d="M3675 5143 c-64 -33 -145 -127 -145 -168 0 -26 16 -17 77 43 32 33 71 67 86 77 34 22 130 25 167 5 13 -7 74 -61 135 -119 136 -130 224 -181 314 -181 55 0 81 11 81 36 0 8 -19 10 -65 6 -58 -4 -71 -2 -128 26 -80 41 -141 91 -212 175 -72 85 -131 117 -219 117 -35 -1 -74 -7 -91 -17z"/>
<path d="M4189 5125 c-55 -15 -101 -38 -118 -59 -22 -27 11 -30 53 -5 31 18 53 22 122 22 l84 0 34 -34 c53 -54 66 -84 102 -234 8 -33 18 -69 23 -80 60 -136 79 -161 104 -136 8 8 5 19 -11 41 -23 30 -85 209 -98 279 -18 96 -103 194 -179 204 -22 3 -47 7 -55 10 -8 2 -36 -1 -61 -8z"/>
<path d="M3723 5063 c-7 -2 -13 -10 -13 -17 0 -17 -38 -48 -82 -69 -65 -29 -43 -77 36 -77 25 0 45 9 69 30 l34 30 18 -20 c10 -11 26 -20 37 -20 25 0 88 42 88 59 0 21 -31 40 -66 41 -16 0 -45 11 -64 25 -35 26 -37 27 -57 18z"/>
<path d="M2746 5018 c-23 -32 -20 -55 9 -74 54 -35 108 26 64 72 -28 30 -53 31 -73 2z"/>
<path d="M4245 5024 c-11 -8 -35 -14 -55 -13 -38 2 -80 -8 -80 -20 0 -18 63 -43 96 -38 29 5 37 2 55 -23 24 -32 49 -41 90 -33 38 7 37 29 -3 69 -18 18 -42 42 -52 53 -23 25 -25 25 -51 5z"/>
<path d="M5062 4800 c-128 -131 -144 -152 -149 -188 -5 -39 -4 -42 23 -53 16 -6 58 -14 94 -17 l65 -7 -3 -32 c-3 -26 4 -38 39 -72 39 -37 42 -43 31 -66 -19 -42 -14 -95 13 -141 l25 -43 -33 -23 c-52 -36 -107 -86 -107 -99 0 -24 62 -88 106 -108 26 -13 43 -27 40 -34 -17 -42 -28 -88 -22 -94 12 -13 206 97 206 117 0 4 -28 24 -62 43 -74 42 -148 94 -148 105 1 4 61 59 135 122 74 63 134 122 134 131 1 12 -14 20 -51 28 -87 19 -187 47 -194 54 -4 4 57 72 135 152 84 87 141 153 139 162 -2 10 -15 17 -33 18 -30 2 -129 19 -195 33 -32 7 -35 11 -34 43 0 18 4 53 9 77 6 33 5 42 -6 41 -8 -1 -78 -68 -157 -149z"/>
<path d="M4560 4913 c1 -26 21 -35 81 -36 56 0 71 -5 117 -35 56 -38 73 -37 52 3 -20 38 -102 71 -182 73 -38 2 -68 -1 -68 -5z"/>
<path d="M4582 4838 c-16 -16 -15 -70 1 -91 16 -21 106 -67 121 -61 6 2 22 25 36 50 l24 46 -19 14 c-10 8 -35 14 -55 14 -24 0 -43 7 -55 20 -21 23 -36 25 -53 8z"/>
<path d="M3380 4810 c-8 -5 -36 -10 -62 -10 -57 0 -79 -24 -71 -75 3 -19 0 -35 -6 -39 -15 -10 -14 -43 2 -49 19 -7 47 12 47 32 0 28 25 44 59 36 36 -8 71 22 71 59 0 14 5 28 10 31 6 3 10 10 10 16 0 12 -41 11 -60 -1z"/>
<path d="M2760 4791 c-14 -5 -61 -16 -105 -26 -91 -20 -165 -44 -165 -55 0 -3 61 -67 135 -140 107 -106 132 -137 123 -146 -7 -7 -67 -28 -133 -47 -65 -19 -120 -38 -122 -43 -1 -5 63 -61 143 -124 83 -65 143 -121 142 -129 -2 -7 -34 -30 -73 -50 -38 -20 -81 -44 -95 -54 -13 -9 -32 -17 -42 -17 -11 0 -18 -7 -18 -18 0 -13 29 -32 108 -69 60 -28 114 -58 121 -66 10 -13 1 -31 -49 -105 -33 -49 -58 -96 -55 -103 4 -11 124 -65 208 -93 9 -3 20 -12 23 -20 6 -15 1 -28 -62 -163 -24 -53 -30 -75 -21 -80 7 -5 59 -10 117 -13 l105 -5 -4 -92 c-3 -85 -2 -93 15 -93 11 0 31 12 47 25 51 46 25 143 -58 210 l-47 39 22 18 c28 22 66 164 49 184 -5 7 -29 16 -52 19 -23 4 -48 12 -54 17 -7 6 -22 8 -33 5 -24 -6 -33 6 -40 58 -4 34 -11 43 -41 57 l-35 18 10 61 c8 51 7 69 -8 112 l-18 51 18 11 c10 5 41 31 68 56 l50 46 -48 56 c-26 30 -60 60 -77 66 l-29 10 19 38 c30 60 32 76 12 108 l-19 30 34 35 c21 22 37 53 45 85 6 28 13 55 14 61 2 6 25 14 52 17 67 8 103 23 103 44 0 10 -46 64 -103 121 -106 105 -117 111 -177 93z"/>
<path d="M3460 4745 c-24 -54 -106 -145 -129 -145 -6 0 -11 -9 -11 -20 0 -36 35 -22 92 38 66 69 113 153 95 171 -17 17 -20 14 -47 -44z"/>
<path d="M4136 4778 c-3 -13 -7 -32 -8 -43 -2 -14 -14 -21 -41 -26 -20 -3 -40 -9 -44 -12 -13 -13 21 -37 52 -37 60 0 95 -19 112 -61 17 -42 24 -46 114 -52 42 -2 67 -11 103 -35 26 -18 53 -32 60 -32 6 0 27 16 46 35 l34 35 -49 50 c-27 28 -57 50 -67 50 -25 0 -32 18 -29 77 1 29 -1 53 -6 53 -20 0 -54 -34 -68 -66 l-15 -36 -47 40 c-41 34 -121 82 -137 82 -3 0 -8 -10 -10 -22z"/>
<path d="M3746 4770 c-27 -10 -59 -29 -73 -41 l-23 -23 -34 33 c-57 55 -92 15 -45 -49 28 -36 19 -60 -21 -60 -58 0 -170 -73 -170 -110 0 -17 35 -60 49 -60 5 0 25 11 45 25 71 48 96 56 169 56 79 0 97 9 97 48 0 15 6 35 13 45 16 22 82 37 124 30 25 -5 34 -2 39 11 8 21 -11 35 -47 35 -32 0 -50 20 -47 51 4 31 -15 33 -76 9z"/>
<path d="M3884 4589 c-7 -12 41 -73 71 -89 21 -11 30 -11 64 5 48 21 89 62 75 74 -12 12 -203 21 -210 10z"/>
<path d="M4810 4523 c0 -10 4 -25 10 -33 8 -12 10 -12 16 3 7 20 -1 47 -16 47 -5 0 -10 -8 -10 -17z"/>
<path d="M3023 4506 c-22 -13 -92 -77 -124 -114 -9 -11 -19 -48 -23 -84 -6 -56 -4 -72 20 -128 32 -75 43 -92 55 -84 14 8 11 47 -6 89 -9 20 -17 70 -19 110 l-3 74 43 45 c28 30 57 49 86 57 24 6 49 13 56 15 8 2 12 10 10 17 -6 16 -68 19 -95 3z"/>
<path d="M4920 4510 c0 -6 23 -34 51 -63 54 -56 99 -132 99 -169 0 -48 -73 -171 -138 -233 -35 -33 -73 -76 -83 -95 -11 -19 -35 -62 -54 -95 -28 -50 -34 -71 -35 -121 0 -44 4 -65 16 -75 24 -20 34 6 28 78 -5 53 -2 68 15 92 12 16 21 38 21 48 0 11 37 60 83 109 121 131 154 174 171 224 20 57 20 75 0 133 -12 35 -34 63 -86 112 -69 64 -88 75 -88 55z"/>
<path d="M4817 4447 c-3 -7 -1 -20 3 -28 7 -11 10 -10 16 4 4 10 2 23 -3 28 -7 7 -12 6 -16 -4z"/>
<path d="M3072 4428 c-7 -7 -12 -22 -12 -35 0 -14 -7 -26 -17 -29 -81 -26 -96 -46 -67 -89 11 -18 14 -35 10 -61 -13 -64 34 -87 74 -36 17 21 21 36 16 67 -5 37 -2 43 29 68 37 29 43 55 25 101 -10 28 -38 34 -58 14z"/>
<path d="M3168 4348 c-3 -50 -11 -95 -21 -113 -9 -16 -20 -39 -25 -50 -5 -11 -47 -58 -94 -105 -46 -47 -99 -107 -118 -135 -29 -43 -33 -59 -34 -110 0 -49 6 -72 34 -123 18 -34 36 -62 40 -62 3 0 26 -18 51 -40 46 -42 83 -53 77 -23 -2 10 -26 34 -53 55 -66 49 -105 121 -105 195 0 69 14 96 89 165 77 71 142 150 174 213 31 61 43 151 26 188 -23 50 -36 32 -41 -55z"/>
<path d="M4883 4423 c-21 -8 -15 -50 12 -81 29 -35 30 -40 9 -63 -14 -16 -14 -23 -2 -60 25 -75 67 -77 68 -3 0 17 7 37 15 44 24 20 17 50 -19 84 -18 17 -37 41 -40 53 -7 23 -24 33 -43 26z"/>
<path d="M4616 4341 l-38 -39 -2 -144 c-2 -204 -9 -220 -184 -400 l-136 -139 85 -85 c46 -47 93 -87 104 -90 29 -7 104 28 138 63 15 17 39 50 52 74 22 42 26 44 64 42 23 -1 41 2 41 6 0 18 -43 61 -60 61 -35 0 -31 19 14 75 25 30 48 68 52 83 3 15 10 37 15 50 12 31 11 58 -3 83 -11 17 -10 22 6 34 11 8 34 18 53 21 23 4 33 12 33 25 0 18 -14 23 -90 32 -16 1 -24 8 -22 17 2 8 5 29 7 45 1 17 6 37 9 46 4 8 0 43 -8 78 -25 109 -66 128 -130 62z"/>
<path d="M4766 4372 c-11 -18 51 -201 79 -232 19 -21 45 -27 45 -11 0 5 -11 23 -25 39 -14 17 -25 40 -25 51 0 12 -11 43 -25 69 -14 26 -25 57 -25 69 0 22 -14 31 -24 15z"/>
<path d="M3254 4268 c-25 -45 -29 -64 -29 -127 l0 -73 -45 -17 c-63 -23 -59 -44 12 -56 69 -12 75 -17 54 -47 -37 -52 -11 -195 46 -255 l21 -23 -20 -22 c-11 -13 -18 -29 -16 -35 7 -18 34 -16 48 4 18 25 43 9 65 -42 20 -48 69 -115 83 -115 14 0 127 112 127 126 0 8 -15 35 -34 61 -101 141 -171 358 -167 516 l2 59 -49 49 c-27 27 -54 49 -59 49 -5 0 -23 -24 -39 -52z"/>
<path d="M4235 4246 c-36 -30 -40 -38 -39 -77 1 -35 7 -47 30 -66 16 -13 36 -23 45 -23 8 0 30 -16 49 -35 l34 -35 -30 -42 c-27 -39 -34 -43 -77 -46 -39 -3 -47 -6 -47 -23 0 -15 7 -19 35 -19 60 0 107 31 134 89 22 47 23 52 8 75 -9 13 -41 38 -72 56 -71 41 -82 61 -58 103 22 38 47 45 73 22 14 -12 20 -13 26 -4 8 13 -38 59 -59 59 -7 0 -30 -15 -52 -34z"/>
<path d="M3642 4068 c3 -146 5 -173 18 -173 13 0 15 26 15 170 0 155 -2 170 -18 173 -16 3 -17 -8 -15 -170z"/>
<path d="M3816 4224 c-10 -25 -7 -307 3 -323 8 -13 12 -13 26 -1 14 11 16 29 13 94 l-3 81 90 0 90 0 5 -85 c4 -71 8 -85 23 -88 16 -3 17 8 15 160 -3 144 -5 163 -20 166 -14 3 -17 -6 -20 -50 l-3 -53 -78 -3 c-94 -3 -110 6 -101 54 9 47 -25 87 -40 48z"/>
<path d="M3080 3969 c0 -6 9 -24 21 -40 38 -53 58 -128 54 -204 -3 -72 -12 -123 -25 -140 -7 -9 -12 -35 -26 -158 -4 -28 -2 -53 5 -60 6 -8 15 -37 21 -65 12 -52 53 -102 85 -102 22 0 27 18 9 32 -46 38 -64 59 -64 78 0 12 -7 35 -16 51 -14 27 -14 35 0 77 8 26 20 76 26 110 6 35 15 75 21 89 5 13 10 61 11 106 1 68 -3 90 -21 127 -34 67 -101 133 -101 99z"/>
<path d="M5043 3933 c4 -27 11 -73 17 -103 8 -45 7 -63 -7 -100 -30 -82 -76 -113 -228 -154 -49 -13 -112 -34 -140 -45 -56 -25 -165 -126 -165 -153 0 -31 28 -19 77 33 48 51 100 83 163 99 36 8 61 17 164 54 70 25 135 80 170 142 38 68 35 102 -21 237 -22 52 -37 47 -30 -10z"/>
<path d="M4933 3924 c-22 -22 -24 -30 -18 -71 6 -43 5 -47 -30 -78 -32 -30 -36 -38 -33 -77 4 -63 34 -64 89 -4 23 25 50 48 60 51 22 7 24 39 5 74 -8 15 -11 41 -8 68 3 32 1 48 -9 54 -21 13 -28 11 -56 -17z"/>
<path d="M3003 3924 c-3 -8 -1 -26 5 -38 8 -19 6 -31 -14 -62 -30 -49 -30 -72 -2 -76 14 -2 36 -23 58 -55 59 -88 82 -59 34 43 -24 51 -25 57 -10 73 25 28 20 73 -12 104 -32 31 -50 34 -59 11z"/>
<path d="M5145 3683 c-9 -21 -17 -56 -18 -78 l-2 -40 -50 -3 c-27 -2 -54 -7 -59 -13 -6 -5 -20 -9 -33 -9 -12 0 -34 -5 -49 -12 -23 -11 -26 -16 -21 -52 3 -22 20 -60 37 -84 l32 -45 -51 -44 c-37 -33 -51 -52 -53 -76 -2 -24 -10 -35 -33 -45 -106 -45 -107 -55 -19 -143 38 -38 74 -69 81 -69 14 0 17 155 4 200 -5 16 -2 36 6 54 12 24 19 27 44 22 74 -14 157 -18 163 -7 4 6 -13 60 -37 119 -61 145 -61 143 -7 159 25 7 59 19 75 27 17 8 49 20 73 27 69 20 70 31 16 94 -57 65 -78 69 -99 18z"/>
<path d="M3232 3548 c3 -7 29 -25 59 -40 30 -15 70 -46 90 -68 39 -43 59 -51 59 -22 -1 22 -59 85 -110 117 -42 26 -105 35 -98 13z"/>
<path d="M3202 3478 c-17 -17 -15 -63 3 -78 9 -8 15 -29 15 -56 0 -77 58 -100 104 -42 l25 33 -18 20 c-10 11 -23 38 -29 60 -8 27 -21 46 -41 58 -34 20 -43 21 -59 5z"/>
<path d="M4853 3482 c-6 -4 -16 -33 -22 -64 -14 -76 -42 -130 -96 -180 -71 -67 -58 -91 20 -38 52 36 78 75 105 161 28 91 26 141 -7 121z"/>
<path d="M4746 3462 c-16 -10 -33 -32 -40 -52 -10 -31 -16 -36 -50 -40 -51 -7 -84 -46 -66 -80 9 -18 17 -21 38 -15 15 4 43 6 63 6 28 -1 38 4 49 23 7 14 10 32 7 40 -4 9 5 32 18 52 41 61 31 96 -19 66z"/>
<path d="M3703 3420 c-18 -16 -33 -33 -33 -38 0 -12 91 -98 120 -113 14 -7 59 -13 100 -13 l74 -1 6 -25 c10 -41 42 -32 60 17 8 23 18 44 21 48 4 3 36 1 73 -5 59 -9 72 -8 111 9 25 11 45 25 45 31 0 11 -103 111 -121 118 -4 2 -25 -15 -45 -38 -39 -43 -75 -62 -134 -73 -42 -8 -122 26 -186 79 -23 18 -46 34 -51 34 -4 0 -23 -14 -40 -30z"/>
<path d="M3637 3249 c-30 -8 -57 -26 -57 -39 0 -4 47 -7 104 -6 l105 0 48 -34 c26 -18 75 -62 108 -96 108 -112 185 -154 283 -154 60 0 74 4 108 28 55 40 137 139 130 157 -9 23 -18 18 -66 -40 -24 -30 -47 -55 -51 -55 -4 0 -20 -11 -36 -24 -42 -35 -140 -32 -205 7 -56 33 -78 64 -68 92 17 44 94 105 155 122 66 18 79 18 143 8 48 -9 56 5 17 31 -25 16 -93 16 -174 -2 -32 -6 -132 -74 -161 -108 -20 -25 -44 -19 -100 25 -93 73 -207 109 -283 88z"/>
<path d="M3485 3208 c-3 -8 9 -52 26 -98 37 -95 76 -142 141 -166 69 -25 84 -27 114 -11 16 8 45 18 64 21 54 11 88 26 95 43 9 25 0 26 -62 5 -122 -41 -142 -45 -155 -35 -7 6 -30 16 -50 22 -46 15 -73 51 -114 150 -30 74 -49 96 -59 69z"/>
<path d="M3623 3163 c-32 -6 -28 -30 8 -48 17 -9 35 -29 41 -45 12 -36 38 -45 84 -30 19 7 41 9 49 6 17 -6 75 12 75 24 0 11 -75 40 -105 40 -15 0 -31 11 -45 30 -22 30 -44 35 -107 23z"/>
<path d="M4282 3143 l-34 -26 -34 17 c-19 9 -41 16 -48 16 -15 0 -76 -65 -76 -80 0 -13 34 -30 61 -30 11 0 43 -8 68 -17 51 -18 87 -12 77 12 -3 10 6 20 27 31 41 21 77 54 77 70 0 17 -32 34 -62 34 -13 0 -38 -12 -56 -27z"/>
<path d="M3408 3102 c-27 -11 -128 -112 -128 -128 0 -17 5 -17 30 -4 12 6 21 6 25 1 8 -14 37 -334 36 -401 -1 -62 8 -84 31 -75 24 9 298 312 298 329 0 8 -21 33 -46 55 -43 37 -64 46 -134 53 -23 3 -25 6 -22 53 6 96 -29 142 -90 117z"/>
<path d="M4497 3073 c-13 -23 -17 -106 -7 -119 14 -16 9 -18 -52 -29 -35 -5 -64 -30 -94 -81 l-12 -19 -30 18 c-30 17 -82 23 -82 10 1 -21 37 -63 176 -207 83 -86 159 -156 168 -156 11 0 16 8 15 28 -1 36 9 134 31 297 5 39 9 93 9 121 l1 51 -50 47 c-48 45 -64 54 -73 39z"/>
<path d="M3933 2938 c-17 -18 -38 -48 -47 -65 -19 -39 -24 -39 -76 -13 -46 23 -63 25 -78 7 -8 -10 1 -44 34 -132 25 -66 49 -131 54 -145 4 -14 29 -81 55 -150 27 -69 58 -154 70 -190 12 -36 28 -66 36 -68 10 -2 24 27 47 95 18 54 32 105 32 113 1 8 7 23 15 33 7 11 17 37 21 60 3 23 12 51 19 62 7 11 16 36 20 55 3 19 12 49 20 65 22 50 50 150 47 168 -4 22 -20 22 -45 0 l-19 -18 -17 24 c-27 40 -125 131 -142 131 -8 0 -29 -15 -46 -32z"/>
</g>
</g>
  <g id="id1:id1" transform="matrix(1.25,0,0,1.25,0.0,0.0)"><g transform="translate(0.000000,302.400000) scale(0.040000,-0.040000)" fill="#8c1222" stroke="none">
<path d="M7106 7432 c-49 -54 -252 -291 -312 -364 -134 -164 -345 -453 -539 -738 -40 -58 -79 -118 -88 -135 -16 -31 -129 -156 -300 -333 -92 -95 -101 -102 -116 -88 -16 14 -200 16 -1773 16 -1516 0 -1757 -2 -1768 -14 -6 -8 -18 -12 -26 -9 -7 3 -90 87 -184 186 -150 159 -188 207 -312 392 -78 115 -154 228 -170 250 -65 89 -286 384 -328 436 -25 30 -74 91 -109 135 -96 120 -251 284 -268 284 -9 0 -61 -39 -117 -88 -55 -48 -123 -105 -151 -127 -27 -22 -90 -76 -140 -121 -49 -46 -113 -100 -141 -121 -28 -21 -66 -55 -83 -75 -18 -21 -39 -38 -46 -38 -16 0 -27 -28 -18 -43 14 -25 89 -115 148 -177 34 -36 66 -72 71 -80 11 -19 214 -213 309 -297 155 -136 211 -181 380 -306 72 -53 142 -105 157 -116 29 -23 53 -27 63 -11 11 17 195 106 257 124 31 9 76 16 100 16 121 0 303 -104 552 -317 l40 -33 -12 -153 c-15 -189 -15 -551 -1 -745 14 -189 62 -572 74 -592 3 -5 12 -44 20 -89 34 -178 100 -402 180 -611 31 -79 149 -346 160 -360 7 -8 19 -28 27 -45 158 -319 460 -688 773 -944 140 -114 491 -342 550 -357 27 -7 150 59 340 182 132 85 317 238 456 377 212 210 369 416 520 682 90 159 106 190 165 330 25 61 52 124 59 140 12 27 68 199 109 332 63 206 132 595 158 888 14 166 16 583 5 815 l-9 165 64 48 c34 26 95 73 133 103 144 112 297 184 390 184 66 0 188 -42 288 -100 48 -28 89 -50 92 -50 14 0 178 122 450 333 44 34 184 165 311 292 220 219 344 357 344 385 0 13 -69 77 -164 153 -34 27 -106 90 -161 141 -55 50 -116 103 -135 116 -39 26 -48 34 -140 118 -92 84 -103 88 -134 54z m154 -110 c25 -21 81 -67 125 -102 44 -36 96 -81 115 -100 19 -20 85 -75 145 -124 61 -48 112 -92 113 -97 7 -18 -66 -37 -223 -58 -88 -12 -193 -26 -234 -32 -50 -8 -76 -8 -83 -1 -6 6 -17 84 -24 174 -7 90 -17 217 -23 283 -5 66 -7 124 -4 128 3 5 15 0 27 -11 11 -12 41 -38 66 -60z m-6469 -33 c-1 -51 -6 -98 -9 -104 -4 -5 -7 -30 -7 -55 -1 -99 -18 -306 -27 -323 -7 -13 -17 -16 -41 -12 -18 2 -102 14 -187 25 -216 29 -281 40 -303 51 l-19 11 19 20 c10 11 52 48 93 81 41 33 102 86 135 117 33 31 105 92 160 137 55 44 116 97 135 117 19 19 39 34 45 32 5 -1 8 -42 6 -97z m3269 -1918 c60 -85 71 -107 62 -120 -7 -9 -19 -29 -28 -46 -21 -38 -74 -95 -90 -95 -18 0 -112 105 -120 134 -7 29 -31 34 -49 9 -11 -15 -35 -11 -35 6 0 9 121 174 153 209 11 12 24 19 27 15 4 -5 40 -55 80 -112z m1305 105 c19 -8 35 -19 35 -25 0 -14 -72 -101 -118 -143 -22 -20 -46 -47 -53 -59 l-12 -23 -28 34 c-44 52 -34 122 26 183 46 47 92 57 150 33z m-1691 -139 c42 -48 74 -92 71 -97 -3 -5 -28 -6 -55 -3 l-49 6 -21 -36 c-22 -37 -43 -47 -103 -47 l-39 0 7 -58 c5 -43 2 -69 -9 -95 -23 -57 -68 -50 -172 28 -9 6 -19 1 -36 -20 -38 -51 -71 -77 -118 -94 -35 -13 -46 -22 -48 -41 -7 -47 -20 -46 -72 5 -45 45 -49 52 -44 84 4 24 -1 54 -14 88 -11 29 -18 54 -15 57 6 5 91 -39 113 -59 26 -23 48 -18 54 13 3 15 8 87 12 160 4 73 11 135 15 138 5 3 60 -45 121 -106 l113 -112 17 22 c9 11 45 76 79 143 34 67 66 128 72 135 12 15 5 21 121 -111z m1122 -74 c5 -132 10 -183 19 -183 7 0 68 32 136 70 68 39 129 70 136 70 8 0 21 -16 30 -35 l17 -35 -122 -121 c-71 -71 -126 -118 -132 -114 -6 4 -9 13 -6 20 8 22 -18 35 -57 28 -43 -7 -60 5 -88 59 -11 21 -24 38 -29 38 -5 0 -24 -13 -42 -29 -21 -18 -50 -31 -80 -35 -59 -9 -65 1 -63 109 l1 80 76 80 c41 44 99 106 128 138 29 32 57 54 61 50 4 -4 11 -90 15 -190z m-428 164 c22 -26 94 -259 84 -269 -17 -17 -74 9 -105 47 -32 41 -40 42 -74 15 -31 -24 -51 -25 -81 -4 l-22 15 23 33 c27 41 149 176 158 176 4 0 11 -6 17 -13z m-1578 -219 c0 -5 -12 -13 -27 -19 -26 -10 -31 -7 -65 31 -21 23 -35 46 -32 51 6 10 124 -50 124 -63z m864 -119 c-3 -5 -10 -7 -15 -3 -5 3 -7 10 -3 15 3 5 10 7 15 3 5 -3 7 -10 3 -15z m131 -70 c11 -10 36 -19 55 -21 43 -4 46 -23 8 -51 l-28 -21 -23 22 c-30 28 -42 28 -79 -4 -23 -18 -40 -24 -66 -22 -51 4 -51 25 1 47 24 11 54 33 66 50 23 32 30 32 66 0z m-971 -21 c8 -14 7 -21 -6 -34 -30 -30 -75 9 -48 42 16 18 39 15 54 -8z m1503 -31 c44 -45 46 -57 8 -57 -24 0 -90 74 -80 90 11 19 30 10 72 -33z m-116 18 c0 -5 -7 -12 -16 -13 -23 -5 -47 6 -40 19 8 13 56 8 56 -6z m-720 -90 c0 -5 -7 -12 -16 -13 -23 -5 -47 6 -40 19 8 13 56 8 56 -6z m1714 -60 c-8 -62 -19 -56 140 -81 61 -9 114 -20 119 -25 10 -9 -271 -299 -289 -299 -25 0 -50 42 -50 84 l0 41 -75 6 c-156 11 -153 39 21 215 67 68 126 121 131 118 5 -3 6 -30 3 -59z m-558 -25 c14 -11 41 -20 59 -20 18 0 35 -4 39 -9 4 -8 -31 -81 -39 -81 -2 0 -23 10 -47 23 -51 27 -78 69 -59 93 16 18 17 18 47 -6z m-1235 -54 c-9 -20 -19 -25 -64 -28 -62 -5 -90 10 -68 36 7 9 29 16 49 17 20 0 45 4 56 9 28 11 41 -4 27 -34z m-479 -67 c89 -90 99 -102 85 -115 -8 -9 -35 -18 -59 -20 -86 -10 -89 -12 -89 -47 0 -59 -19 -106 -55 -133 -40 -31 -43 -44 -14 -70 26 -23 20 -62 -17 -116 -31 -44 -33 -44 -138 41 -38 31 -78 63 -89 72 -26 21 -16 36 36 50 150 41 201 62 194 82 -1 5 -61 67 -131 137 -71 70 -126 132 -123 137 4 6 50 20 104 33 54 12 116 28 138 35 22 8 44 14 48 14 5 1 54 -44 110 -100z m1322 41 c22 -15 49 -37 59 -49 27 -30 34 -27 56 25 24 54 40 50 40 -11 l0 -45 47 -22 c26 -13 56 -35 67 -51 l20 -27 -26 -26 -25 -26 -56 32 c-41 23 -75 33 -124 38 l-68 7 -18 38 c-12 26 -29 43 -53 53 -29 12 -33 18 -24 29 6 7 13 26 15 42 2 15 4 29 4 31 2 8 50 -13 86 -38z m-434 -8 c6 -29 4 -34 -27 -48 -37 -18 -60 -48 -66 -85 -3 -23 -8 -24 -83 -29 -59 -4 -90 -11 -115 -27 -81 -51 -91 -55 -106 -42 -23 19 -16 46 19 72 31 24 113 57 142 57 31 0 35 33 9 77 -30 52 -15 67 25 24 16 -17 34 -31 40 -31 6 0 25 13 43 29 39 34 55 40 88 38 19 -2 26 -9 31 -35z m249 -158 c20 -7 -24 -41 -63 -50 -23 -5 -35 0 -58 22 -15 15 -26 30 -24 34 4 7 120 2 145 -6z m-940 -195 c0 -20 -8 -34 -27 -46 -39 -25 -43 -32 -36 -78 4 -31 0 -46 -14 -64 -28 -34 -46 -19 -38 29 4 26 1 48 -10 70 -19 37 -9 57 33 62 20 2 32 13 46 41 14 30 21 36 32 26 8 -6 14 -24 14 -40z m1859 -74 c0 -5 -6 -19 -14 -29 -8 -11 -15 -28 -15 -37 0 -30 -19 -32 -30 -3 -8 21 -7 31 5 44 21 24 19 40 -11 71 -14 15 -23 32 -19 39 7 11 84 -66 84 -85z m371 70 c36 -10 69 -21 73 -25 8 -7 -115 -122 -164 -154 l-27 -17 -31 43 c-36 49 -42 117 -15 157 19 26 53 26 164 -4z m-629 -42 c13 -35 16 -116 5 -185 l-8 -57 28 -7 c46 -11 47 -15 12 -44 -29 -25 -32 -31 -20 -49 15 -26 15 -45 1 -90 -24 -75 -31 -87 -69 -130 -22 -25 -40 -47 -40 -50 0 -12 16 -28 35 -35 l20 -7 -21 -18 c-12 -9 -33 -39 -48 -66 -16 -28 -35 -58 -44 -69 -23 -26 -102 -58 -127 -52 -11 3 -54 39 -95 80 l-74 76 110 107 c185 181 209 231 209 434 l0 137 38 36 c32 30 42 34 58 25 11 -5 24 -22 30 -36z m-1356 -86 c9 -13 15 -43 15 -76 0 -166 75 -388 181 -534 l30 -42 -56 -54 -56 -54 -24 23 c-13 12 -37 51 -54 86 -17 35 -37 64 -45 64 -16 0 -55 48 -85 107 -26 52 -30 163 -6 183 18 15 20 46 3 57 -7 4 -31 10 -53 13 -47 6 -52 20 -11 31 40 11 45 22 39 89 -5 48 -1 67 21 115 l26 57 30 -22 c16 -11 36 -31 45 -43z m1822 -111 c-15 -12 -27 -29 -27 -39 0 -10 39 -42 101 -82 110 -72 112 -75 42 -111 -21 -10 -49 -27 -62 -37 -34 -24 -48 -7 -26 31 20 33 15 59 -12 68 -55 18 -71 28 -96 60 l-28 35 27 32 c33 40 86 77 98 69 5 -3 -3 -15 -17 -26z m-2346 -18 c8 -7 27 -29 41 -49 l27 -36 -37 -36 c-20 -20 -49 -40 -64 -46 -32 -12 -35 -29 -13 -71 10 -19 11 -31 4 -35 -5 -4 -58 17 -117 45 l-107 52 29 21 c31 23 82 52 154 86 32 15 42 26 42 44 0 37 15 46 41 25z m2142 -233 c-3 -19 0 -48 7 -64 l12 -30 -56 -56 c-30 -31 -60 -54 -66 -50 -5 3 -10 21 -10 40 0 27 6 37 36 54 l36 21 -7 51 c-6 40 -4 54 10 70 25 27 45 8 38 -36z m-1913 -8 c0 -11 -9 -40 -21 -64 -18 -37 -23 -41 -40 -32 -20 10 -19 14 13 61 11 16 18 36 17 45 -3 31 1 36 16 23 8 -7 15 -22 15 -33z m-269 -157 c-2 -32 1 -39 21 -45 42 -13 58 -35 58 -81 0 -52 -9 -59 -52 -40 -18 8 -53 22 -78 32 -25 10 -49 21 -53 25 -5 4 15 41 43 83 29 43 55 74 58 71 4 -3 5 -23 3 -45z m2461 -101 c-18 -18 -112 -48 -118 -38 -9 15 5 80 23 108 l15 23 44 -43 c24 -24 41 -46 36 -50z m-2253 -89 c45 -11 55 -23 42 -48 -6 -11 -11 -39 -11 -61 0 -31 -6 -44 -26 -60 -33 -26 -27 -62 12 -80 15 -6 24 -14 21 -18 -10 -9 -191 -3 -201 7 -5 5 -2 23 6 42 69 147 79 173 84 213 1 11 3 22 3 24 1 2 9 0 19 -4 9 -4 32 -11 51 -15z m2028 -80 c19 -47 39 -98 45 -115 6 -16 15 -36 21 -43 7 -9 7 -16 -1 -24 -14 -14 -134 -1 -158 17 -17 12 -16 14 19 31 36 17 49 45 27 59 -13 8 -56 83 -65 113 -5 19 -1 25 27 37 18 8 37 13 42 12 4 -2 24 -41 43 -87z m-1773 8 c7 -13 19 -41 26 -63 7 -22 16 -44 21 -49 14 -15 -10 -46 -35 -46 -34 0 -46 20 -39 64 5 30 1 41 -17 61 -19 20 -21 27 -10 40 18 21 37 19 54 -7z m1496 -28 c-13 -25 -27 -33 -35 -20 -8 13 24 52 36 44 5 -3 5 -14 -1 -24z m-967 -24 c62 -50 106 -70 167 -76 57 -5 70 -19 55 -58 -6 -16 -8 -16 -20 2 -12 16 -22 17 -83 11 -83 -8 -122 5 -183 64 l-42 40 24 25 c13 14 28 26 32 26 5 0 27 -15 50 -34z m422 -16 l49 -49 -36 -15 c-27 -12 -49 -13 -98 -6 -35 5 -67 13 -72 18 -4 4 11 23 36 42 25 18 47 39 50 46 9 22 19 17 71 -36z m515 -54 c0 -23 -22 -36 -42 -25 -14 8 -26 6 -44 -6 -28 -18 -44 -13 -44 15 0 24 15 33 65 40 41 6 65 -3 65 -24z m-1621 -176 l14 -43 -24 -18 c-13 -9 -27 -15 -31 -13 -10 6 -11 108 -1 118 14 13 28 -2 42 -44z m1789 -49 c5 -95 0 -99 -57 -51 -27 23 -52 49 -55 57 -8 21 10 41 48 52 55 17 61 12 64 -58z m-1182 21 c6 -12 19 -29 29 -36 23 -16 11 -36 -21 -36 -17 0 -27 8 -34 24 -5 14 -21 32 -34 42 -32 20 -24 36 17 32 21 -2 35 -11 43 -26z m649 17 c9 -13 -21 -46 -49 -55 -11 -3 -31 -18 -42 -33 l-22 -26 -36 18 c-20 9 -47 17 -60 17 -13 0 -29 6 -35 14 -9 11 -6 18 19 36 l31 22 40 -16 41 -16 30 25 c31 26 72 33 83 14z m-895 -68 c5 -11 10 -49 10 -84 0 -72 5 -77 68 -77 61 0 145 -69 126 -103 -4 -6 -24 -30 -44 -52 -21 -22 -66 -71 -101 -110 -36 -38 -77 -83 -91 -100 -17 -18 -31 -26 -36 -20 -5 6 -17 111 -27 235 -12 159 -21 230 -31 241 -13 14 -10 20 26 53 45 40 84 47 100 17z m1099 -61 l34 -29 -7 -112 c-4 -62 -11 -118 -17 -125 -6 -7 -8 -17 -5 -22 6 -10 -11 -177 -20 -202 -4 -12 -10 -10 -26 10 -11 14 -80 87 -154 163 -131 135 -159 180 -87 137 42 -25 67 -19 83 20 14 35 50 60 84 60 14 0 37 4 51 10 l26 10 -16 27 c-13 22 -14 34 -6 56 13 34 18 33 60 -3z m-530 -109 c31 -32 66 -72 77 -87 18 -23 24 -26 36 -16 23 19 27 5 13 -46 -19 -71 -171 -521 -178 -528 -3 -4 -11 6 -18 22 -6 16 -20 47 -30 70 -11 23 -19 45 -19 50 0 5 -14 43 -31 84 -16 41 -38 99 -49 130 -10 30 -28 80 -40 110 -52 132 -59 161 -43 167 8 3 35 -4 59 -16 25 -11 49 -21 54 -21 5 0 19 19 31 42 18 35 66 96 78 98 2 0 29 -27 60 -59z"/>
<path d="M5213 2803 c-7 -3 -13 -9 -13 -15 0 -5 -13 -29 -30 -53 -16 -24 -30 -52 -30 -62 0 -10 54 -79 120 -153 66 -74 145 -165 176 -202 l56 -68 -22 -37 -22 -37 19 -13 c10 -8 25 -12 33 -9 56 18 59 18 84 -7 49 -49 82 -67 122 -64 30 1 38 -1 35 -13 -2 -8 -4 -23 -5 -33 -1 -10 123 -142 304 -325 168 -170 487 -494 710 -720 622 -632 882 -892 891 -892 4 0 19 5 33 11 22 10 29 8 56 -15 25 -20 36 -24 50 -16 25 13 33 42 20 75 -6 15 -8 42 -4 60 6 31 0 39 -108 146 -62 63 -286 290 -498 504 -1325 1341 -1291 1307 -1322 1301 -38 -7 -68 22 -68 67 0 24 -9 42 -35 67 -34 35 -44 63 -25 75 17 11 11 40 -11 54 -19 11 -25 10 -50 -8 l-28 -21 -38 32 c-21 17 -117 109 -213 204 -96 94 -181 170 -187 167z"/>
<path d="M2720 2718 c-105 -93 -131 -117 -201 -182 -104 -98 -136 -126 -144 -126 -4 0 -18 9 -32 20 -35 27 -40 26 -53 -15 -8 -25 -8 -39 0 -55 10 -18 6 -27 -24 -61 -25 -26 -36 -49 -36 -69 0 -44 -31 -70 -73 -63 -31 5 -38 1 -83 -47 -55 -59 -1531 -1558 -1720 -1747 l-122 -121 5 -44 c4 -32 1 -47 -11 -57 -21 -18 -20 -34 2 -54 25 -23 61 -21 87 3 19 18 26 19 48 9 21 -9 29 -8 50 7 14 11 130 125 257 254 1272 1294 1604 1630 1612 1630 5 0 8 18 6 41 l-3 40 51 18 c31 10 64 31 85 54 39 42 48 45 72 17 20 -24 40 -25 61 -4 21 21 20 36 -5 68 l-21 27 58 64 c210 227 264 290 264 306 0 21 -69 119 -83 119 -6 0 -28 -15 -47 -32z"/>
</g>
</g>
</svg>
