<?xml version="1.0" standalone="no"?>
<!DOCTYPE svg PUBLIC "-//W3C//DTD SVG 1.1//EN"
 "http://www.w3.org/Graphics/SVG/1.1/DTD/svg11.dtd">
<!-- Created with svg_stack (http://github.com/astraw/svg_stack) -->
<svg xmlns:sodipodi="http://sodipodi.sourceforge.net/DTD/sodipodi-0.dtd" xmlns="http://www.w3.org/2000/svg" version="1.1" width="1380.0" height="400.0">
  <defs/>
  <g id="id0:id0" transform="matrix(1.25,0,0,1.25,0.0,0.0)"><g transform="translate(0.000000,320.000000) scale(0.040000,-0.040000)" fill="#ffffff" stroke="none">
<path d="M442 7678 c-17 -17 -18 -1498 0 -1516 9 -9 106 -12 374 -12 199 0 369 3 378 6 14 5 16 44 16 334 0 272 2 330 14 339 17 14 50 1 60 -24 3 -9 18 -15 34 -15 21 0 39 -11 66 -40 22 -24 46 -40 60 -40 14 0 37 -16 60 -40 22 -24 46 -40 59 -40 34 0 427 -396 427 -431 0 -49 0 -49 386 -49 199 0 369 3 378 6 14 6 16 82 16 759 0 590 -3 755 -12 763 -19 15 -696 16 -714 1 -11 -9 -14 -58 -14 -254 0 -133 -3 -245 -6 -248 -4 -4 -43 29 -87 73 -51 50 -89 80 -102 80 -13 0 -38 17 -59 40 -20 22 -45 40 -55 40 -10 0 -26 9 -36 20 -10 11 -28 20 -40 20 -12 0 -30 9 -40 20 -10 11 -30 20 -44 20 -15 0 -35 9 -45 21 -14 17 -24 20 -51 15 -27 -5 -39 -2 -61 19 -23 21 -35 25 -60 20 -25 -4 -38 0 -58 18 -21 20 -36 23 -107 25 -65 1 -86 5 -99 20 -14 15 -35 19 -121 20 -85 2 -106 6 -120 21 -15 16 -37 18 -201 20 -135 1 -186 -1 -196 -11z"/>
<path d="M2962 7678 c-17 -17 -18 -1498 0 -1516 9 -9 244 -12 994 -12 540 0 989 3 998 6 14 5 16 36 16 239 0 177 -3 235 -13 243 -9 7 -204 11 -612 12 -330 0 -603 4 -608 9 -5 5 -7 26 -5 47 l3 39 295 5 295 5 3 154 c1 92 -1 158 -8 165 -7 9 -86 13 -292 15 -156 1 -287 6 -291 10 -5 5 -7 26 -5 47 l3 39 615 5 c338 3 616 6 618 8 1 1 2 107 2 236 0 180 -3 236 -13 244 -20 17 -1978 17 -1995 0z"/>
<path d="M5166 7675 c-22 -22 -20 -52 4 -72 11 -10 20 -28 20 -42 0 -13 11 -34 25 -47 22 -20 25 -30 19 -58 -5 -28 -2 -38 15 -52 12 -11 21 -30 21 -46 0 -17 7 -31 20 -38 13 -7 20 -21 20 -40 0 -19 7 -33 20 -40 13 -7 20 -21 20 -40 0 -19 7 -33 20 -40 13 -7 20 -21 20 -40 0 -19 7 -33 20 -40 13 -7 20 -21 20 -40 0 -19 7 -33 20 -40 13 -7 20 -21 20 -40 0 -19 7 -33 20 -40 12 -6 20 -21 20 -37 0 -15 11 -36 25 -49 22 -20 25 -30 19 -58 -5 -28 -2 -38 15 -52 12 -11 21 -30 21 -46 0 -17 7 -31 20 -38 13 -7 20 -21 20 -40 0 -19 7 -33 20 -40 13 -7 20 -21 20 -40 0 -19 7 -33 20 -40 13 -7 20 -21 20 -40 0 -19 7 -33 20 -40 13 -7 20 -21 20 -40 0 -19 7 -33 20 -40 13 -7 20 -21 20 -39 0 -15 9 -36 20 -46 11 -10 20 -28 20 -40 0 -44 5 -45 387 -45 l362 0 36 31 c21 19 35 40 35 54 0 13 10 31 21 39 16 11 20 21 15 40 -5 22 -2 28 20 38 21 10 25 17 20 40 -5 24 -1 31 20 40 21 10 25 17 20 40 -5 24 -1 31 20 40 21 10 25 17 20 40 -5 24 -1 31 20 40 21 10 25 17 20 40 -4 22 0 31 20 45 24 15 26 21 20 60 -5 40 -3 45 20 55 21 10 25 17 20 40 -5 24 -1 31 20 40 21 10 25 17 20 40 -5 24 -1 31 20 40 21 10 25 17 20 40 -5 24 -1 31 20 40 21 10 25 17 20 40 -5 24 -1 31 20 40 21 10 25 17 20 40 -5 24 -1 31 20 40 21 10 25 17 20 40 -5 24 -1 31 20 40 21 10 25 17 20 40 -4 22 0 31 20 45 24 15 26 21 20 60 -5 40 -3 45 20 55 21 10 25 17 20 40 -5 24 -1 31 20 40 21 10 25 17 20 40 -4 22 0 31 19 44 27 18 33 39 13 46 -7 3 -193 6 -413 7 l-400 2 -37 -34 c-24 -22 -38 -44 -38 -59 0 -13 -9 -32 -21 -42 -17 -14 -20 -24 -15 -51 5 -27 2 -39 -19 -61 -14 -15 -25 -37 -25 -48 0 -12 -9 -29 -20 -39 -11 -9 -20 -27 -20 -40 0 -12 -9 -31 -21 -41 -17 -14 -20 -24 -15 -51 5 -26 1 -39 -20 -64 -28 -34 -44 -33 -44 3 0 13 -9 30 -21 38 -16 10 -22 25 -23 60 -1 28 -8 54 -19 65 -9 11 -17 27 -17 36 0 9 -10 25 -21 36 -15 14 -22 33 -23 64 -1 27 -8 53 -19 64 -9 11 -17 26 -17 35 0 8 -9 27 -20 41 -11 14 -20 34 -20 45 0 11 -6 24 -13 30 -8 7 -147 11 -414 12 -355 0 -403 -1 -417 -15z"/>
<path d="M7522 7678 c-17 -17 -18 -1498 0 -1516 9 -9 244 -12 994 -12 540 0 989 3 998 6 14 5 16 36 16 239 0 177 -3 235 -13 243 -9 7 -204 11 -612 12 -330 0 -603 4 -608 9 -5 5 -7 26 -5 47 l3 39 295 5 295 5 3 154 c1 92 -1 158 -8 165 -7 9 -86 13 -292 15 -156 1 -287 6 -291 10 -5 5 -7 26 -5 47 l3 39 615 5 c338 3 616 6 618 8 1 1 2 107 2 236 0 180 -3 236 -13 244 -20 17 -1978 17 -1995 0z"/>
<path d="M9722 7678 c-17 -17 -18 -1498 0 -1516 9 -9 101 -12 354 -12 188 0 349 3 358 6 14 5 16 30 16 174 0 93 4 171 8 174 5 3 16 -4 26 -15 11 -13 25 -19 37 -16 13 4 25 -3 36 -20 11 -17 22 -23 36 -19 14 3 33 -8 65 -40 25 -24 55 -44 66 -44 12 0 30 -10 40 -21 14 -17 25 -20 53 -16 29 5 39 2 59 -20 16 -17 30 -24 44 -20 15 4 25 -2 37 -20 12 -17 23 -23 39 -20 16 3 30 -4 44 -21 18 -20 28 -23 57 -19 28 5 39 2 58 -18 l22 -25 421 0 c231 0 427 3 436 6 14 5 16 36 16 239 0 174 -3 235 -12 243 -8 5 -91 10 -192 11 -99 1 -183 4 -188 7 -14 9 35 54 60 54 12 0 31 11 43 24 11 13 28 22 37 19 26 -6 216 182 209 207 -3 13 3 24 19 35 l24 15 0 124 c0 108 -2 126 -20 149 -11 14 -20 31 -20 39 0 20 -190 208 -210 208 -9 0 -25 9 -35 20 -10 11 -28 20 -40 20 -12 0 -30 9 -40 20 -10 11 -30 20 -44 20 -15 0 -34 9 -44 20 -13 16 -29 20 -80 20 -50 0 -66 4 -79 20 l-17 19 -843 1 c-651 0 -846 -2 -856 -12z m1438 -429 c9 -15 18 -19 34 -15 17 4 30 -2 51 -24 40 -42 38 -103 -5 -142 -18 -17 -36 -25 -48 -21 -14 3 -24 -2 -32 -16 l-11 -21 -347 2 -347 3 -5 123 c-3 68 -3 126 -1 128 2 2 161 4 352 4 l348 0 11 -21z"/>
<path d="M13122 7678 c-18 -18 -17 -461 1 -477 9 -7 114 -12 318 -13 l304 -3 3 -504 c1 -352 6 -508 13 -518 9 -10 80 -13 354 -13 189 0 351 3 359 6 15 6 16 58 16 518 l-1 511 318 5 c175 3 319 7 321 8 1 1 2 107 2 236 0 180 -3 236 -13 244 -20 17 -1978 17 -1995 0z"/>
<path d="M15322 7678 c-17 -17 -18 -1498 0 -1516 9 -9 239 -12 974 -12 529 0 969 3 978 6 14 5 16 36 16 239 0 177 -3 235 -13 243 -8 7 -199 11 -592 12 -319 0 -583 4 -588 9 -5 5 -7 26 -5 47 l3 39 295 5 295 5 3 154 c1 92 -1 158 -8 165 -7 9 -86 13 -292 15 -156 1 -287 6 -291 10 -5 5 -7 26 -5 47 l3 39 595 5 c327 3 596 6 598 8 1 1 2 107 2 236 0 180 -3 236 -13 244 -20 17 -1938 17 -1955 0z"/>
<path d="M17482 7678 c-17 -17 -18 -1498 0 -1516 9 -9 244 -12 994 -12 540 0 989 3 998 6 14 5 16 36 16 239 0 177 -3 235 -13 243 -9 7 -204 11 -611 12 -329 0 -603 3 -607 6 -5 3 -9 232 -9 508 0 391 -3 506 -12 514 -20 16 -740 16 -756 0z"/>
<path d="M19682 7678 c-17 -17 -18 -1498 0 -1516 9 -9 239 -12 974 -12 529 0 969 3 978 6 14 5 16 36 16 239 0 177 -3 235 -13 243 -9 7 -204 11 -611 12 -329 0 -603 3 -607 6 -5 3 -9 232 -9 508 0 391 -3 506 -12 514 -20 16 -700 16 -716 0z"/>
<path d="M22682 7678 c-17 -17 -18 -1498 0 -1516 9 -9 101 -12 354 -12 188 0 349 3 358 6 14 5 16 35 16 233 0 125 3 231 7 234 11 12 53 -35 53 -59 0 -16 31 -53 100 -120 67 -65 100 -104 100 -119 0 -25 145 -175 170 -175 25 0 170 147 170 172 0 15 32 54 100 119 69 68 100 105 100 121 0 24 42 72 54 61 3 -3 6 -106 6 -228 0 -158 3 -224 12 -233 9 -9 101 -12 354 -12 188 0 349 3 358 6 14 6 16 82 16 759 0 599 -3 755 -13 763 -8 7 -134 11 -373 11 l-361 0 -77 -76 c-47 -47 -76 -85 -76 -98 0 -14 -35 -56 -100 -120 -65 -63 -100 -105 -100 -119 0 -21 -52 -76 -71 -76 -21 0 -109 93 -109 115 0 15 -27 49 -80 101 -51 49 -80 86 -80 99 0 13 -29 50 -76 97 l-76 76 -362 1 c-275 1 -364 -1 -374 -11z"/>
<path d="M25202 7678 c-17 -17 -18 -1498 0 -1516 9 -9 244 -12 994 -12 540 0 989 3 998 6 14 5 16 36 16 239 0 177 -3 235 -13 243 -9 7 -204 11 -612 12 -330 0 -603 4 -608 9 -5 5 -7 26 -5 47 l3 39 295 5 295 5 3 154 c1 92 -1 158 -8 165 -7 9 -86 13 -292 15 -156 1 -287 6 -291 10 -5 5 -7 26 -5 47 l3 39 615 5 c338 3 616 6 618 8 1 1 2 107 2 236 0 180 -3 236 -13 244 -20 17 -1978 17 -1995 0z"/>
<path d="M13521 4589 c-14 -15 -32 -20 -79 -20 -50 -1 -66 -5 -88 -25 -20 -19 -32 -23 -58 -19 -25 5 -37 1 -60 -20 -22 -21 -34 -24 -61 -19 -27 5 -37 2 -51 -15 -10 -12 -28 -21 -40 -21 -13 0 -39 -17 -62 -41 -21 -23 -49 -42 -61 -43 -30 -1 -251 -223 -251 -251 0 -11 -9 -28 -20 -38 -11 -9 -20 -27 -20 -40 0 -12 -9 -30 -19 -39 -18 -15 -19 -32 -20 -217 0 -184 1 -202 18 -218 11 -10 21 -28 23 -41 5 -34 306 -332 335 -332 12 0 27 -9 34 -21 8 -15 18 -20 35 -16 19 3 29 -2 41 -20 12 -18 23 -23 39 -20 16 3 30 -4 44 -21 18 -20 28 -23 57 -19 28 5 39 2 58 -18 19 -22 31 -25 86 -25 52 0 68 -4 82 -20 l17 -20 340 0 340 0 17 20 c14 16 30 20 79 20 51 0 65 4 87 24 21 20 34 24 61 19 27 -4 38 -1 52 16 10 11 29 21 41 21 13 0 32 11 44 24 13 15 28 22 39 19 11 -3 26 4 36 16 10 12 29 21 42 21 14 0 38 16 61 40 21 22 47 40 57 40 26 0 174 142 174 167 0 11 9 28 21 39 13 12 18 26 15 39 -4 15 2 29 20 44 23 20 25 28 20 61 -5 33 -3 40 19 54 l25 17 -1 105 c-2 91 -5 108 -22 124 -13 13 -20 33 -21 63 -1 26 -8 53 -18 64 -9 10 -18 26 -19 36 -5 25 -309 327 -330 327 -9 0 -24 9 -34 20 -10 11 -28 20 -40 20 -12 0 -30 9 -40 20 -10 11 -30 20 -44 20 -15 0 -34 9 -44 20 -13 16 -29 20 -80 20 -50 0 -66 4 -80 20 -13 16 -29 20 -80 20 -50 0 -66 4 -79 19 l-17 20 -301 0 c-284 -1 -302 -2 -319 -20z m520 -540 c8 -15 18 -20 35 -16 19 3 29 -2 41 -20 12 -17 22 -23 37 -19 29 7 76 -39 76 -76 0 -17 7 -31 20 -38 17 -9 20 -21 20 -78 0 -55 -4 -71 -20 -85 -11 -9 -20 -27 -20 -39 0 -33 -77 -108 -111 -108 -16 0 -32 -8 -40 -20 -12 -17 -25 -21 -77 -21 -50 -1 -67 -5 -82 -22 -27 -28 -135 -26 -163 4 -15 16 -30 20 -79 18 l-60 -2 -40 41 c-22 23 -49 42 -60 42 -27 0 -68 40 -68 67 0 12 -8 30 -19 40 -13 12 -20 37 -23 78 l-5 60 87 88 c55 55 95 87 109 87 12 0 29 9 38 20 16 19 30 20 205 20 l187 0 12 -21z"/>
<path d="M5322 4558 c-18 -18 -17 -461 1 -477 9 -7 109 -12 298 -13 l284 -3 3 -504 c1 -352 6 -508 13 -518 9 -10 83 -13 374 -13 200 0 371 3 379 6 15 6 16 58 16 518 l-1 511 298 5 c164 3 299 7 301 8 1 1 2 107 2 236 0 180 -3 236 -13 244 -20 17 -1938 17 -1955 0z"/>
<path d="M7482 4558 c-17 -17 -18 -1498 0 -1516 9 -9 106 -12 374 -12 199 0 370 3 378 6 15 6 16 39 16 298 l-1 291 228 0 228 0 3 -284 c1 -189 6 -289 13 -298 9 -10 84 -13 374 -13 200 0 370 3 379 6 14 6 16 82 16 759 0 590 -3 755 -12 763 -9 7 -143 11 -379 11 -298 2 -368 -1 -377 -12 -8 -9 -13 -94 -14 -258 l-3 -244 -225 0 -225 0 -3 244 c-1 150 -6 249 -13 257 -15 18 -739 20 -757 2z"/>
<path d="M9682 4558 c-17 -17 -18 -1498 0 -1516 9 -9 239 -12 974 -12 529 0 969 3 978 6 14 5 16 36 16 239 0 177 -3 235 -13 243 -9 7 -204 11 -612 12 -330 0 -603 4 -608 9 -5 5 -7 26 -5 47 l3 39 315 5 315 5 3 154 c1 93 -1 158 -8 165 -7 9 -89 13 -312 15 -167 1 -307 6 -311 10 -5 5 -7 26 -5 47 l3 39 615 5 c338 3 616 6 618 8 1 1 2 107 2 236 0 180 -3 236 -13 244 -20 17 -1938 17 -1955 0z"/>
<path d="M15282 4558 c-17 -17 -18 -1498 0 -1516 9 -9 222 -12 895 -12 l883 0 17 20 c13 14 30 20 62 20 38 0 49 5 82 40 21 22 47 40 57 40 25 0 212 184 212 209 0 11 10 27 21 35 16 11 20 22 17 41 -4 21 0 29 19 38 20 9 24 16 19 38 -4 21 0 31 19 43 l25 16 0 205 0 204 -21 20 c-15 14 -22 33 -23 64 -1 27 -8 53 -19 64 -9 11 -17 27 -17 36 0 8 -18 33 -40 55 -22 21 -40 48 -40 59 0 27 -107 133 -135 133 -13 0 -37 17 -59 40 -22 24 -46 40 -59 40 -12 0 -31 9 -41 21 -14 17 -24 20 -51 15 -27 -5 -38 -2 -60 18 l-27 25 -862 1 c-665 0 -864 -2 -874 -12z m1432 -576 l79 -80 -2 -103 c-2 -88 -5 -106 -22 -122 -10 -10 -19 -28 -19 -42 0 -30 -52 -75 -79 -68 -13 3 -23 -2 -30 -16 l-12 -21 -304 0 c-167 0 -306 4 -309 9 -3 4 -6 125 -6 267 l-1 259 298 5 c164 3 305 2 313 -2 8 -4 50 -42 94 -86z"/>
<path d="M17802 4558 c-17 -17 -18 -1498 0 -1516 9 -9 221 -12 894 -12 l881 0 26 24 c21 20 34 24 61 19 27 -4 38 -1 52 16 10 11 28 21 40 21 27 0 294 262 294 289 0 10 9 26 21 37 13 12 18 26 15 40 -4 16 1 26 19 38 l25 16 0 245 0 244 -21 20 c-15 14 -22 33 -23 64 -1 27 -8 53 -19 64 -9 11 -17 26 -17 34 0 20 -230 249 -250 249 -10 0 -25 9 -35 20 -10 11 -30 20 -44 20 -15 0 -35 9 -45 21 -14 17 -24 20 -51 15 -27 -5 -38 -2 -60 18 l-27 25 -862 1 c-665 0 -864 -2 -874 -12z m1359 -509 c7 -15 17 -19 32 -15 30 7 77 -39 77 -76 0 -17 7 -31 20 -38 12 -7 20 -21 20 -37 0 -15 11 -39 26 -54 l27 -28 -27 -32 c-23 -27 -26 -38 -21 -67 6 -32 2 -38 -67 -106 l-73 -71 -300 5 -300 5 -5 263 c-3 145 -3 266 -1 268 2 2 134 4 292 4 l288 0 12 -21z"/>
<path d="M20842 4549 c-15 -15 -33 -20 -81 -20 -49 -1 -67 -6 -79 -20 -9 -10 -26 -19 -38 -19 -11 0 -41 -20 -65 -44 -36 -35 -50 -43 -71 -39 -20 4 -28 0 -32 -15 -4 -10 -24 -36 -46 -56 -24 -22 -40 -46 -40 -59 0 -12 -9 -30 -19 -39 -18 -15 -19 -31 -19 -177 l0 -161 59 -56 c32 -32 61 -65 64 -76 5 -13 16 -18 40 -18 25 0 38 -6 46 -21 8 -15 18 -20 35 -16 19 3 29 -2 41 -20 12 -18 23 -23 39 -20 16 3 30 -4 44 -21 18 -20 28 -23 57 -19 28 5 39 2 58 -18 19 -21 32 -25 81 -25 47 -1 65 -6 88 -24 15 -13 24 -26 19 -29 -6 -4 -154 -7 -329 -7 -206 -1 -323 -5 -331 -12 -18 -15 -19 -458 -1 -476 9 -9 190 -12 754 -12 l741 0 26 24 c21 20 34 24 61 19 27 -4 38 -1 52 16 10 11 28 21 40 21 32 0 258 225 251 250 -3 13 3 25 19 35 23 15 24 21 24 119 0 88 -3 107 -20 129 -11 14 -20 32 -20 39 0 20 -150 168 -170 168 -9 0 -25 9 -35 20 -10 11 -30 20 -44 20 -15 0 -35 9 -45 21 -14 17 -24 20 -51 15 -27 -5 -39 -2 -61 19 -23 21 -35 25 -61 20 -27 -5 -37 -1 -57 20 -20 22 -32 25 -87 25 -54 0 -67 4 -86 24 -12 13 -20 26 -16 30 3 3 167 6 364 6 196 0 364 3 373 6 14 5 16 36 16 239 0 181 -3 235 -13 244 -10 7 -224 11 -735 10 l-722 0 -18 -20z"/>
<path d="M8468 1296 c-17 -15 -34 -40 -37 -55 -6 -23 -13 -26 -54 -29 -55 -4 -71 -24 -61 -76 5 -29 2 -37 -20 -51 -48 -31 -29 -55 44 -55 20 0 42 -6 48 -12 11 -15 -2 -58 -17 -58 -6 0 -14 -15 -19 -32 -7 -30 -12 -33 -52 -36 -54 -4 -70 -16 -70 -51 0 -15 -9 -34 -20 -44 -43 -36 -14 -87 50 -87 46 0 56 -11 29 -33 -10 -9 -19 -25 -19 -34 0 -37 17 -47 82 -50 93 -3 98 -1 98 60 0 42 5 56 25 75 31 29 35 21 38 -68 2 -72 15 -84 48 -46 15 18 29 24 43 20 29 -7 89 55 84 87 -3 21 1 24 37 27 76 5 85 9 85 45 0 20 8 39 20 50 24 20 26 50 5 71 -12 11 -27 14 -59 10 -51 -7 -71 10 -32 27 17 8 26 21 28 43 3 28 7 31 38 34 72 5 80 10 80 47 0 22 6 37 17 44 10 5 18 22 19 38 l1 28 69 0 69 0 3 -44 c3 -34 -1 -48 -18 -63 -17 -16 -20 -27 -16 -53 5 -27 2 -39 -19 -61 -21 -23 -25 -37 -25 -88 0 -50 -4 -65 -21 -79 -17 -15 -19 -25 -14 -56 6 -34 3 -41 -21 -58 -18 -14 -25 -26 -21 -37 6 -15 25 -16 169 -14 l163 3 3 30 c2 17 13 40 24 52 16 17 19 30 15 59 -5 32 -2 41 20 61 22 21 24 30 19 63 -5 33 -3 40 20 55 24 15 26 21 22 81 -3 57 0 65 20 80 16 11 22 24 20 42 l-3 27 54 3 c74 4 87 -1 67 -30 -10 -14 -16 -44 -16 -83 0 -49 -4 -64 -21 -79 -16 -13 -20 -25 -15 -48 5 -23 0 -37 -19 -60 -22 -26 -25 -39 -25 -108 l0 -79 38 -35 c42 -41 61 -44 87 -16 17 18 33 20 274 22 l256 3 3 39 c2 28 9 40 23 43 14 4 19 14 19 37 0 31 40 82 54 69 3 -3 6 -43 6 -88 0 -50 5 -86 12 -93 9 -9 93 -12 317 -12 269 0 307 2 323 17 17 15 19 15 36 0 15 -14 41 -17 139 -17 138 0 153 3 153 34 0 31 10 39 29 22 13 -12 48 -15 171 -13 l155 2 5 30 c6 36 39 87 51 79 5 -3 9 -24 9 -48 0 -23 5 -47 12 -54 8 -8 53 -12 138 -12 114 0 129 2 145 20 l18 20 19 -20 18 -19 333 2 332 2 3 30 c2 16 12 40 23 53 10 14 19 31 19 39 0 19 41 73 52 67 13 -8 9 -36 -9 -56 -19 -22 -27 -106 -11 -125 8 -10 48 -13 153 -13 79 0 150 3 159 6 9 4 16 18 16 33 0 43 9 43 49 0 l38 -39 152 0 c128 0 153 2 158 16 3 8 -4 25 -17 39 -17 18 -22 36 -23 78 -1 51 1 56 41 94 23 22 42 49 42 60 0 11 9 28 21 39 15 13 20 28 18 56 -2 27 3 44 19 61 18 19 22 35 22 89 0 40 -5 70 -12 76 -8 6 -132 11 -339 11 -261 2 -328 -1 -337 -12 -6 -7 -10 -31 -9 -54 1 -31 -5 -47 -23 -66 -14 -14 -28 -23 -32 -21 -5 3 -8 34 -8 68 0 39 -5 68 -13 74 -8 7 -118 11 -314 11 l-302 0 -35 -35 c-30 -30 -36 -43 -36 -77 0 -31 -7 -48 -24 -64 -13 -12 -26 -20 -30 -16 -3 3 -6 43 -6 88 0 54 -4 86 -13 93 -8 7 -169 11 -479 12 l-467 1 -11 -22 -12 -21 -22 21 -21 20 -302 0 -302 0 -35 -35 c-30 -30 -36 -43 -36 -78 0 -32 -6 -48 -23 -64 -13 -12 -27 -19 -30 -15 -4 3 -7 43 -7 88 0 55 -4 86 -13 93 -8 7 -111 11 -300 11 l-287 -1 -11 -20 -11 -20 -21 20 -22 20 -307 1 c-256 0 -308 -2 -318 -14 -7 -8 -9 -22 -6 -32 5 -11 -4 -28 -26 -50 -25 -26 -40 -33 -69 -33 -46 0 -61 18 -31 38 23 15 28 47 13 71 -11 17 -139 24 -158 8 -7 -5 -13 -28 -13 -51 0 -50 -15 -69 -42 -55 -13 7 -18 21 -18 53 0 53 -12 64 -68 63 -34 -1 -51 -9 -74 -31z m1442 -159 c0 -31 -7 -48 -24 -64 -29 -27 -36 -21 -36 30 0 27 7 46 22 62 29 30 38 23 38 -28z m760 25 c-1 -9 -11 -30 -24 -46 -22 -26 -24 -27 -34 -10 -8 14 -4 25 16 50 27 34 42 36 42 6z m1034 7 c-3 -5 -10 -7 -15 -3 -5 3 -7 10 -3 15 3 5 10 7 15 3 5 -3 7 -10 3 -15z m726 -5 c0 -20 -41 -74 -52 -68 -14 9 -9 34 14 64 21 30 38 31 38 4z m760 11 c10 -12 7 -20 -14 -46 -14 -17 -26 -37 -26 -45 0 -20 -41 -74 -52 -68 -15 9 -8 40 12 59 14 13 20 31 20 60 0 23 3 45 7 48 11 12 40 8 53 -8z m-414 -86 c-22 -26 -26 -39 -22 -65 5 -26 1 -38 -22 -63 -15 -17 -31 -28 -35 -25 -14 15 -6 77 13 101 11 14 20 32 20 40 0 7 10 27 22 44 19 26 24 27 36 15 13 -13 11 -19 -12 -47z m-1111 11 c-5 -8 -11 -8 -17 -2 -6 6 -7 16 -3 22 5 8 11 8 17 2 6 -6 7 -16 3 -22z m-1396 -82 c-22 -22 -39 -49 -39 -61 0 -12 -11 -32 -23 -44 l-23 -22 -26 28 -26 27 39 32 c23 20 39 42 39 55 0 11 12 34 27 49 l27 28 22 -27 21 -27 -38 -38z m1045 71 c-3 -5 -10 -7 -15 -3 -5 3 -7 10 -3 15 3 5 10 7 15 3 5 -3 7 -10 3 -15z m716 -7 c-1 -9 -11 -30 -24 -46 -22 -26 -24 -27 -34 -10 -8 14 -4 25 16 50 27 34 42 36 42 6z m-3442 -108 c-2 -31 -7 -40 -24 -42 -11 -2 -26 4 -33 12 -10 12 -8 21 15 50 33 41 47 35 42 -20z m3046 35 c-3 -5 -10 -7 -15 -3 -5 3 -7 10 -3 15 3 5 10 7 15 3 5 -3 7 -10 3 -15z m-364 -50 c-6 -11 -15 -17 -21 -14 -5 4 -5 14 1 26 6 11 15 17 21 14 5 -4 5 -14 -1 -26z m720 -2 c-1 -7 -11 -25 -24 -41 -22 -27 -24 -27 -34 -10 -9 15 -6 24 15 46 25 27 43 29 43 5z m-1400 -38 c0 -16 -43 -69 -52 -63 -15 9 -9 37 13 61 21 21 39 23 39 2z m1760 0 c0 -16 -43 -69 -52 -63 -15 9 -9 37 13 61 21 21 39 23 39 2z m-2487 -16 c5 -10 -80 -93 -87 -85 -8 8 -7 77 1 85 9 9 81 9 86 0z m1727 -24 c-6 -11 -15 -17 -21 -14 -5 4 -5 14 1 26 6 11 15 17 21 14 5 -4 5 -14 -1 -26z m-360 -40 c-6 -11 -15 -17 -21 -14 -5 4 -5 14 1 26 6 11 15 17 21 14 5 -4 5 -14 -1 -26z m720 5 c0 -20 -41 -74 -52 -68 -14 9 -9 34 14 64 21 30 38 31 38 4z"/>
<path d="M13627 1297 c-23 -22 -37 -44 -37 -59 0 -13 -9 -31 -20 -41 -26 -22 -26 -61 2 -79 l21 -14 -61 -60 c-58 -57 -62 -63 -62 -106 0 -33 -5 -50 -16 -56 -11 -6 -17 -26 -20 -57 -3 -45 0 -51 34 -82 l36 -33 301 0 302 0 18 20 18 20 18 -19 c17 -19 35 -20 340 -21 l322 -1 37 40 c39 41 50 43 50 6 0 -44 8 -45 329 -45 l304 0 38 39 c40 43 49 43 49 0 0 -15 7 -29 16 -33 20 -8 288 -8 308 0 11 4 16 19 16 51 0 30 7 53 21 71 13 17 19 38 17 59 -2 22 4 39 21 57 17 18 22 33 20 60 -3 25 3 41 18 58 14 15 23 39 25 68 2 37 7 46 24 48 11 2 27 -4 34 -13 11 -13 9 -20 -11 -41 -17 -18 -24 -38 -25 -70 -1 -33 -8 -51 -24 -66 -17 -16 -20 -27 -16 -53 5 -27 2 -39 -18 -60 -20 -22 -24 -37 -25 -88 0 -34 5 -67 11 -74 7 -9 46 -13 136 -13 l125 0 39 41 c39 41 44 40 50 -11 3 -21 9 -25 40 -28 25 -2 41 -10 48 -23 10 -18 23 -19 255 -19 l243 0 42 42 41 42 40 -42 41 -42 281 0 281 0 58 59 c46 48 59 57 68 46 13 -16 -1 -49 -25 -59 -20 -7 -19 -32 1 -40 9 -3 53 -6 98 -6 70 0 84 -3 99 -21 14 -16 27 -19 70 -17 l52 3 3 33 c2 19 11 38 23 45 16 10 19 24 19 82 0 60 4 73 24 92 13 12 26 20 30 16 3 -3 6 -50 6 -104 l0 -97 36 -36 37 -37 111 3 111 3 5 75 c4 55 10 81 24 97 11 12 23 20 28 17 4 -3 8 -42 8 -88 0 -50 5 -87 12 -94 8 -8 67 -12 200 -12 166 0 188 -2 197 -17 7 -13 25 -18 75 -20 56 -2 70 1 84 17 9 11 27 20 40 20 14 0 39 15 59 35 32 32 35 39 29 74 -5 32 -2 41 19 59 14 12 25 26 25 32 0 13 -44 23 -69 15 -22 -7 -94 42 -85 57 3 4 34 8 69 8 l63 0 32 37 c28 31 31 41 26 73 -5 33 -2 40 19 54 l25 16 0 109 c0 76 -4 112 -13 119 -8 7 -110 11 -294 11 l-281 0 -56 -54 c-51 -48 -56 -56 -54 -94 1 -31 -4 -47 -20 -62 -16 -14 -21 -30 -20 -61 1 -30 -4 -45 -18 -55 -13 -9 -19 -27 -20 -58 -1 -32 -8 -52 -25 -69 -13 -13 -27 -22 -31 -20 -5 3 -8 41 -8 84 0 67 -3 82 -21 99 l-21 19 81 80 c47 46 81 88 81 99 0 11 9 28 20 38 36 32 25 45 -37 46 -32 1 -103 3 -158 5 l-99 3 -43 -46 c-44 -47 -46 -47 -43 -1 1 14 -3 28 -7 31 -5 3 -77 9 -159 12 -129 5 -153 4 -163 -9 -7 -9 -11 -22 -8 -31 7 -16 -45 -80 -56 -69 -4 4 -7 26 -7 49 0 24 -6 47 -12 53 -8 6 -65 10 -136 10 l-123 -1 -35 -33 c-28 -28 -34 -41 -34 -76 0 -32 -6 -49 -24 -65 -29 -28 -36 -21 -36 31 0 29 6 47 20 59 21 18 27 61 10 72 -6 4 -76 9 -155 12 -168 6 -175 4 -173 -63 2 -34 -3 -48 -21 -65 -18 -17 -22 -28 -17 -54 5 -27 2 -39 -19 -61 -21 -23 -25 -35 -20 -61 5 -26 0 -38 -22 -63 l-29 -32 -146 1 -147 2 -11 -22 c-15 -26 -26 -15 -33 34 -5 32 -2 40 20 54 22 15 25 22 19 59 -5 37 -2 44 21 59 23 15 25 22 20 60 -5 36 -3 45 18 63 26 22 31 47 16 70 -12 19 -295 29 -316 12 -9 -8 -14 -28 -13 -55 2 -33 -3 -48 -22 -68 -14 -14 -28 -23 -32 -21 -5 3 -8 34 -8 68 0 39 -5 68 -12 74 -8 6 -132 11 -339 11 -261 2 -328 -1 -337 -12 -6 -7 -10 -31 -9 -54 1 -31 -5 -47 -23 -66 -14 -14 -28 -23 -32 -21 -5 3 -8 34 -8 68 0 39 -5 68 -13 74 -8 7 -113 11 -294 11 l-281 0 -60 -59 c-33 -33 -62 -56 -66 -53 -3 3 -6 25 -6 48 0 24 -6 47 -12 53 -8 6 -126 11 -319 11 -258 2 -308 -1 -318 -13 -7 -8 -11 -20 -9 -28 3 -17 -42 -79 -54 -72 -4 3 -8 13 -8 24 0 10 -16 34 -35 53 l-35 35 -278 1 -277 2 -38 -34z m307 -116 c3 -4 -3 -16 -13 -25 -11 -10 -17 -25 -14 -35 6 -22 -11 -35 -34 -27 -14 6 -13 9 6 30 11 12 18 25 15 29 -4 3 -4 13 -1 22 7 16 32 20 41 6z m736 -44 c0 -31 -6 -48 -21 -61 -16 -13 -20 -25 -15 -46 4 -20 -1 -36 -17 -56 -12 -15 -24 -48 -27 -73 -4 -37 -9 -47 -26 -49 -11 -2 -27 4 -34 13 -11 13 -9 20 14 44 22 23 27 37 25 64 -3 26 3 42 19 60 16 16 22 36 22 66 0 31 6 50 22 66 29 30 38 23 38 -28z m720 27 c0 -20 -41 -74 -52 -68 -14 9 -9 34 14 64 21 30 38 31 38 4z m2560 -2 c-1 -9 -11 -30 -24 -46 -22 -26 -24 -27 -34 -10 -8 14 -4 25 16 50 27 34 42 36 42 6z m1120 -25 c0 -31 -7 -48 -24 -64 -29 -27 -36 -21 -36 30 0 27 7 46 22 62 29 30 38 23 38 -28z m-4800 -18 c-6 -11 -15 -17 -21 -14 -5 4 -5 14 1 26 6 11 15 17 21 14 5 -4 5 -14 -1 -26z m1480 3 c-1 -9 -11 -30 -24 -45 -20 -24 -24 -26 -35 -13 -10 12 -8 21 15 50 28 35 44 38 44 8z m760 0 c-1 -9 -11 -30 -24 -46 -22 -26 -24 -27 -34 -10 -8 14 -4 25 16 50 27 34 42 36 42 6z m1040 -67 c0 -31 -5 -47 -17 -54 -12 -6 -18 -23 -19 -56 -1 -33 -8 -52 -23 -66 -11 -11 -21 -28 -21 -39 0 -23 -15 -34 -37 -26 -14 6 -14 8 1 25 12 13 17 32 15 55 -3 26 3 42 20 60 16 17 22 34 20 58 -2 23 4 43 21 65 29 40 40 34 40 -22z m360 -11 c0 -20 -41 -74 -52 -68 -14 9 -9 34 14 64 21 30 38 31 38 4z m-3680 -45 c-6 -11 -15 -17 -21 -14 -5 4 -5 14 1 26 6 11 15 17 21 14 5 -4 5 -14 -1 -26z m1480 6 c0 -8 -11 -31 -25 -51 -16 -24 -23 -44 -19 -59 6 -25 -32 -89 -48 -79 -15 10 -8 49 13 67 29 26 18 42 -28 42 -22 0 -41 4 -42 8 -3 12 67 57 89 57 11 0 24 9 30 20 12 22 30 18 30 -5z m760 -8 c-1 -7 -11 -25 -24 -41 -22 -27 -24 -27 -34 -10 -9 15 -6 24 15 46 25 27 43 29 43 5z m-2616 -56 c3 -4 -3 -16 -13 -25 -11 -10 -17 -25 -14 -35 6 -22 -11 -35 -34 -27 -14 6 -13 9 6 30 11 12 18 25 15 29 -4 3 -4 13 -1 22 7 16 32 20 41 6z m1479 2 c4 -3 1 -13 -7 -22 -8 -9 -16 -27 -18 -41 -4 -29 -38 -39 -57 -16 -24 29 56 106 82 79z m-1139 -54 c-3 -5 -10 -7 -15 -3 -5 3 -7 10 -3 15 3 5 10 7 15 3 5 -3 7 -10 3 -15z m2236 -7 c-1 -9 -11 -30 -24 -46 -22 -26 -24 -27 -34 -10 -8 14 -4 25 16 50 27 34 42 36 42 6z m2595 19 c3 -6 -4 -15 -15 -21 -12 -7 -20 -21 -20 -38 0 -27 -41 -77 -54 -65 -16 16 -5 86 17 109 22 24 61 32 72 15z m-1155 -24 c-1 -7 -11 -25 -24 -41 -22 -27 -24 -27 -34 -10 -9 15 -6 24 15 46 25 27 43 29 43 5z m-1080 -43 c0 -17 -24 -29 -40 -19 -8 5 -6 13 6 26 18 20 34 17 34 -7z m-2636 -65 c-3 -5 -10 -7 -15 -3 -5 3 -7 10 -3 15 3 5 10 7 15 3 5 -3 7 -10 3 -15z"/>
</g>
</g>
</svg>
