<?xml version="1.0" standalone="no"?>
<!DOCTYPE svg PUBLIC "-//W3C//DTD SVG 1.1//EN"
 "http://www.w3.org/Graphics/SVG/1.1/DTD/svg11.dtd">
<!-- Created with svg_stack (http://github.com/astraw/svg_stack) -->
<svg xmlns:sodipodi="http://sodipodi.sourceforge.net/DTD/sodipodi-0.dtd" xmlns="http://www.w3.org/2000/svg" version="1.1" width="3600.0" height="1458.0">
  <defs/>
  <g id="id0:id0" transform="matrix(1.25,0,0,1.25,0.0,0.0)"><g transform="translate(0.000000,1166.400000) scale(0.040000,-0.040000)" fill="#ffffff" stroke="none">
<path d="M28105 29151 c-6 -5 -55 -11 -110 -12 -55 -1 -181 -8 -280 -16 -217 -17 -212 -17 -450 -31 -104 -7 -208 -15 -229 -18 -46 -7 -96 -11 -256 -19 -63 -3 -196 -13 -295 -22 -99 -8 -214 -17 -255 -19 -150 -6 -396 -25 -459 -35 -34 -5 -71 -7 -81 -4 -10 3 -35 -1 -55 -10 -32 -13 -36 -18 -30 -37 4 -13 8 -43 10 -68 11 -197 16 -283 26 -400 6 -74 12 -151 14 -170 2 -19 6 -84 9 -145 4 -60 14 -193 22 -295 9 -102 18 -223 20 -269 2 -46 9 -138 14 -205 17 -200 18 -207 24 -331 4 -66 11 -172 17 -235 5 -63 11 -133 13 -155 2 -22 7 -94 10 -160 4 -66 14 -199 22 -295 8 -96 17 -220 20 -275 2 -55 11 -181 20 -280 9 -99 18 -223 20 -275 2 -52 9 -144 14 -205 15 -151 17 -182 25 -320 3 -66 11 -172 16 -235 5 -63 11 -133 13 -155 2 -22 6 -92 10 -155 6 -98 16 -233 31 -405 2 -22 6 -87 9 -145 12 -220 27 -407 37 -463 5 -31 8 -61 5 -65 -6 -10 21 -401 34 -485 6 -38 9 -71 6 -75 -3 -6 8 -163 28 -412 2 -25 7 -94 10 -155 4 -60 11 -166 17 -235 14 -167 15 -187 23 -315 7 -109 24 -347 31 -415 2 -19 6 -84 9 -145 4 -60 14 -193 22 -295 9 -102 18 -223 20 -269 2 -46 9 -138 14 -205 17 -196 18 -206 24 -326 4 -63 11 -169 17 -235 14 -163 15 -184 23 -310 6 -104 24 -338 31 -415 2 -19 6 -84 9 -145 4 -60 14 -193 22 -295 9 -102 18 -228 20 -280 2 -52 9 -144 14 -205 15 -152 17 -183 24 -320 4 -66 11 -172 17 -235 5 -63 11 -133 13 -155 2 -22 7 -94 10 -160 4 -66 14 -199 22 -295 8 -96 17 -204 19 -239 16 -302 18 -322 33 -337 9 -10 24 -13 38 -10 13 4 77 9 141 12 65 3 170 9 233 15 157 14 189 16 310 23 89 5 281 19 410 31 19 2 85 6 145 9 61 4 193 14 295 22 102 9 223 18 269 20 46 2 138 9 205 14 183 16 202 17 326 24 63 4 171 11 239 16 68 6 132 10 142 10 48 0 49 17 13 420 -6 72 -8 100 -18 280 -4 69 -12 175 -18 235 -12 120 -13 137 -22 335 -4 74 -12 150 -17 168 -6 18 -9 39 -6 46 3 7 1 62 -5 122 -6 60 -10 120 -10 134 -1 14 -5 79 -10 145 -5 66 -11 140 -13 165 -2 25 -6 86 -10 135 -4 50 -8 101 -8 115 0 14 -6 106 -15 205 -8 99 -16 200 -17 225 -1 25 -6 108 -10 185 -4 77 -9 144 -12 148 -3 5 -7 47 -10 95 -2 48 -6 107 -8 132 -2 25 -6 104 -9 175 -4 72 -9 137 -12 145 -3 8 -8 67 -10 130 -3 63 -9 133 -13 155 -16 76 -13 610 4 740 33 263 82 439 173 625 208 428 550 670 1027 726 453 54 778 -41 1020 -298 68 -72 152 -192 198 -283 89 -179 173 -490 212 -785 19 -146 20 -156 35 -365 6 -88 15 -186 21 -218 5 -31 8 -61 5 -65 -6 -10 21 -401 34 -485 6 -38 9 -71 6 -75 -3 -6 8 -163 28 -412 2 -25 7 -94 10 -155 4 -60 11 -166 17 -235 15 -179 16 -193 23 -315 6 -105 24 -340 31 -415 2 -19 6 -87 9 -150 4 -63 14 -196 22 -295 9 -99 18 -218 20 -265 6 -146 25 -382 35 -448 5 -35 8 -66 5 -70 -2 -4 3 -88 11 -187 8 -99 14 -195 14 -213 -1 -27 4 -34 26 -43 16 -6 42 -7 58 -4 17 4 75 9 130 11 55 3 183 12 285 20 102 9 223 18 270 20 47 2 118 6 158 9 l72 7 0 86 c1 345 72 971 155 1362 63 296 72 334 158 645 29 104 147 459 184 555 69 180 143 361 173 425 10 22 51 110 90 195 84 183 76 166 175 350 133 247 329 563 423 678 22 28 54 52 90 68 l55 24 -8 93 c-8 101 -9 122 -19 307 -4 69 -10 141 -13 160 -4 19 -8 53 -9 75 -6 186 -64 540 -135 830 -33 134 -36 142 -80 275 -50 151 -64 189 -107 285 -178 400 -337 641 -597 900 -319 319 -656 514 -1095 633 -185 50 -211 55 -480 93 -88 12 -715 12 -815 -1 -476 -58 -776 -141 -1108 -306 -141 -70 -180 -93 -318 -186 -293 -197 -587 -498 -811 -831 -90 -133 -87 -139 -112 313 -4 69 -12 175 -18 235 -6 61 -12 130 -13 155 -10 209 -18 326 -22 333 -3 5 -7 47 -10 95 -2 48 -6 107 -8 132 -2 25 -6 104 -10 175 -3 72 -10 147 -16 168 -5 20 -7 42 -4 46 3 5 0 60 -6 123 -6 62 -11 124 -11 138 -1 14 -5 79 -10 145 -5 66 -11 140 -13 165 -2 25 -6 86 -10 135 -4 50 -8 101 -8 115 0 14 -6 106 -15 205 -8 99 -16 200 -17 225 -11 212 -17 310 -27 405 -12 121 -13 138 -22 335 -4 74 -9 142 -12 150 -3 8 -8 53 -10 100 -3 47 -7 105 -9 130 -2 25 -6 104 -10 175 -3 72 -10 147 -16 168 -5 20 -7 42 -4 46 3 5 0 60 -6 123 -6 62 -11 124 -12 138 0 14 -4 81 -10 150 -5 69 -11 143 -12 165 -2 22 -6 81 -10 130 -4 50 -8 101 -8 115 0 14 -7 106 -15 205 -8 99 -16 196 -17 215 -1 19 -3 43 -4 53 -1 15 -15 17 -149 17 -81 0 -152 -4 -157 -9z"/>
<path d="M51885 28028 c-3 -7 -11 -47 -19 -88 -15 -74 -66 -320 -111 -535 -68 -326 -137 -654 -160 -760 -14 -66 -32 -154 -40 -195 -7 -41 -20 -104 -29 -140 -8 -36 -24 -110 -36 -165 -11 -55 -27 -129 -35 -165 -7 -36 -16 -81 -20 -100 -3 -19 -14 -73 -25 -120 -10 -47 -23 -110 -30 -140 -6 -30 -22 -107 -36 -170 -13 -63 -38 -182 -55 -265 -17 -82 -41 -199 -54 -260 -98 -467 -138 -656 -160 -760 -14 -66 -32 -151 -40 -190 -8 -38 -26 -124 -40 -190 -38 -178 -66 -314 -76 -370 -5 -27 -18 -88 -29 -135 -10 -47 -24 -110 -30 -140 -6 -30 -22 -107 -36 -170 -13 -63 -38 -182 -55 -265 -53 -257 -137 -658 -188 -900 -31 -142 -71 -332 -92 -435 -21 -100 -51 -241 -74 -350 -7 -36 -16 -81 -20 -100 -3 -19 -14 -73 -25 -120 -10 -47 -24 -110 -30 -140 -6 -30 -22 -107 -36 -170 -13 -63 -38 -182 -55 -265 -53 -257 -137 -658 -188 -900 -31 -142 -71 -332 -92 -435 -21 -100 -51 -241 -74 -350 -7 -36 -16 -81 -20 -100 -3 -19 -14 -73 -25 -120 -10 -47 -24 -110 -30 -140 -6 -30 -22 -107 -36 -170 -13 -63 -38 -182 -55 -265 -16 -82 -34 -167 -40 -187 -5 -20 -15 -69 -23 -110 -12 -67 -98 -478 -131 -628 -17 -78 -70 -332 -126 -600 -11 -52 -26 -124 -34 -160 -7 -36 -16 -81 -20 -100 -3 -19 -14 -73 -25 -120 -63 -283 -63 -274 18 -283 26 -3 112 -19 192 -37 80 -17 186 -39 235 -50 100 -20 479 -100 595 -125 41 -9 100 -20 130 -26 30 -6 82 -16 115 -24 33 -8 170 -37 305 -65 135 -28 297 -62 360 -76 63 -13 147 -31 185 -39 73 -14 494 -104 531 -112 34 -8 21 -54 145 537 39 184 84 398 100 475 40 190 77 366 94 450 8 39 23 113 35 165 11 52 27 133 36 180 8 46 18 88 20 92 3 4 13 51 24 105 11 54 28 141 39 193 11 52 38 181 60 285 43 207 165 786 212 1010 40 190 77 366 94 450 8 39 23 113 35 165 11 52 27 133 36 180 8 46 17 87 20 91 3 6 34 151 69 329 26 131 94 452 100 470 3 10 12 51 19 91 13 70 99 487 131 629 20 93 58 274 105 500 22 107 47 227 55 265 9 39 22 104 31 145 9 41 27 127 40 190 13 63 31 147 38 185 28 138 95 457 101 475 3 10 12 51 19 91 13 70 99 487 131 629 24 112 136 643 190 905 9 44 27 132 41 195 13 63 31 147 39 185 25 124 93 446 119 570 15 66 37 174 51 240 13 66 38 185 55 265 17 80 51 240 75 355 24 116 62 298 85 405 22 107 43 209 46 225 3 17 14 68 24 115 11 47 29 130 40 185 11 55 36 174 55 264 25 117 32 168 24 177 -11 13 -34 19 -224 59 -60 13 -231 49 -380 80 -148 31 -319 67 -380 80 -60 13 -231 49 -380 80 -778 164 -1028 216 -1105 231 -41 8 -101 21 -132 29 -71 18 -137 19 -143 3z"/>
<path d="M47370 27324 c-401 -45 -656 -117 -960 -269 -249 -124 -448 -266 -658 -470 -206 -200 -337 -375 -445 -597 -148 -303 -219 -600 -297 -1233 -11 -93 -27 -219 -35 -280 -8 -60 -21 -167 -30 -237 -18 -148 -28 -183 -52 -174 -9 4 -75 13 -147 22 -72 8 -160 19 -196 24 -36 5 -108 14 -160 20 -52 5 -107 13 -122 16 -24 5 -30 1 -39 -23 -6 -15 -55 -381 -109 -813 -85 -681 -96 -788 -85 -806 12 -18 28 -23 97 -29 152 -14 161 -16 278 -34 36 -5 97 -13 135 -16 39 -4 85 -8 104 -10 58 -5 64 -20 52 -121 -14 -117 -47 -379 -72 -579 -11 -88 -29 -232 -40 -320 -11 -88 -29 -232 -40 -320 -11 -88 -29 -230 -39 -315 -11 -85 -29 -228 -40 -317 -11 -90 -29 -235 -40 -323 -11 -88 -29 -233 -41 -322 -31 -250 -58 -468 -79 -638 -11 -85 -29 -227 -40 -315 -11 -88 -26 -209 -34 -270 -9 -65 -11 -114 -6 -119 5 -5 434 -62 952 -127 519 -65 960 -120 980 -123 46 -7 79 19 77 62 -1 26 461 3727 478 3828 l9 49 54 -2 c57 -3 77 -5 195 -23 39 -5 97 -12 130 -15 67 -6 90 -9 190 -24 39 -6 97 -13 130 -16 67 -6 90 -9 190 -24 39 -6 97 -13 130 -16 64 -6 77 -8 195 -24 164 -24 149 -24 161 6 19 48 209 1595 198 1615 -9 17 -33 24 -124 34 -83 9 -117 13 -185 23 -36 5 -94 13 -130 17 -91 9 -103 11 -315 39 -104 14 -226 29 -270 34 -170 20 -330 43 -338 48 -4 2 -5 19 -3 36 5 31 12 85 55 432 11 88 30 237 41 330 40 319 96 534 170 661 48 80 154 185 220 217 99 48 170 60 320 54 134 -4 174 -11 300 -50 77 -23 262 -109 373 -173 43 -25 85 -43 92 -40 8 3 16 24 19 48 9 67 43 337 65 513 11 88 29 232 40 320 11 88 29 234 41 325 11 91 29 234 40 319 11 84 17 164 14 176 -7 26 -87 82 -199 139 -266 133 -543 194 -915 201 -113 2 -221 1 -240 -1z"/>
<path d="M57520 26359 c-330 -33 -598 -137 -854 -332 -288 -220 -496 -553 -573 -921 -22 -104 -25 -147 -26 -306 0 -199 3 -222 39 -378 149 -636 693 -1123 1339 -1199 277 -32 552 8 815 120 238 101 480 292 637 502 90 120 200 335 242 472 54 177 66 260 66 468 0 193 -10 263 -59 440 -32 115 -120 310 -191 420 -35 55 -140 190 -189 243 -41 45 -206 178 -281 228 -157 103 -369 186 -565 221 -172 30 -270 36 -400 22z"/>
<path d="M22635 25925 c-38 -7 -108 -20 -155 -29 -296 -54 -371 -67 -425 -76 -57 -10 -150 -27 -385 -70 -159 -29 -309 -56 -470 -84 -80 -14 -179 -33 -220 -41 -41 -8 -142 -26 -225 -40 -82 -14 -169 -30 -192 -35 -22 -5 -70 -14 -105 -20 -103 -16 -328 -57 -405 -75 -69 -16 -92 -33 -76 -58 6 -10 12 -39 47 -247 9 -52 23 -129 31 -170 13 -71 27 -148 75 -410 11 -63 27 -151 35 -195 9 -44 22 -118 30 -165 8 -47 22 -123 30 -170 8 -47 24 -134 35 -195 11 -60 26 -144 35 -185 8 -41 26 -142 41 -225 14 -82 33 -183 41 -223 13 -63 13 -76 2 -87 -8 -6 -61 -20 -119 -29 -58 -9 -123 -21 -145 -26 -22 -5 -107 -20 -190 -35 -255 -44 -409 -75 -418 -84 -4 -4 -3 -28 2 -52 14 -60 26 -124 61 -324 54 -304 75 -422 120 -665 10 -58 28 -157 40 -220 11 -63 29 -162 40 -220 43 -237 60 -332 84 -470 42 -234 60 -312 75 -318 12 -5 134 15 341 54 41 7 127 23 190 34 63 12 164 30 223 42 60 11 112 16 117 12 4 -5 24 -103 44 -219 21 -115 41 -228 46 -250 5 -22 21 -107 35 -190 14 -82 34 -197 45 -255 10 -58 28 -157 40 -220 11 -63 27 -151 35 -195 9 -44 22 -118 30 -165 8 -47 24 -134 35 -195 11 -60 29 -159 39 -220 33 -181 90 -497 100 -550 6 -27 24 -129 41 -225 16 -96 34 -197 40 -225 6 -27 24 -126 40 -220 60 -335 87 -487 120 -665 11 -58 22 -123 25 -145 4 -22 13 -71 20 -110 8 -38 25 -135 39 -215 14 -80 33 -179 41 -220 8 -41 26 -142 40 -225 15 -82 30 -170 35 -195 5 -25 23 -124 40 -220 17 -96 35 -195 40 -220 5 -25 12 -62 15 -84 l6 -39 47 7 c26 3 81 12 122 20 93 17 337 62 445 81 44 8 143 26 220 40 77 14 176 32 220 40 44 7 132 23 195 35 63 11 153 27 200 35 47 9 132 24 190 35 58 10 157 28 220 40 192 35 331 60 415 75 44 9 118 22 165 30 197 34 300 54 310 60 14 9 13 44 -5 139 -9 45 -20 108 -26 141 -6 33 -15 80 -20 105 -8 45 -40 222 -60 335 -6 33 -13 69 -15 80 -3 11 -9 47 -14 80 -5 33 -23 134 -40 225 -18 91 -36 188 -40 215 -7 54 -73 427 -90 510 -5 28 -14 73 -20 100 -5 28 -21 115 -34 195 -14 80 -32 181 -40 225 -9 44 -25 132 -36 195 -11 63 -25 142 -31 175 -6 33 -15 80 -20 105 -8 45 -40 222 -60 335 -6 33 -13 69 -15 80 -3 11 -9 47 -14 80 -5 33 -23 134 -40 225 -18 91 -36 190 -40 220 -5 30 -18 105 -30 165 -11 61 -30 164 -41 230 -12 66 -24 138 -29 160 -4 22 -21 119 -39 215 -17 96 -33 184 -35 195 -3 11 -9 47 -15 80 -52 296 -91 513 -106 585 -17 80 -13 85 75 99 78 12 276 47 345 61 28 5 115 21 195 35 261 46 535 96 684 125 60 11 136 23 168 27 36 4 62 11 65 20 5 12 -26 212 -47 308 -5 22 -13 67 -19 100 -29 164 -53 300 -71 395 -11 58 -29 157 -40 220 -38 217 -42 235 -51 280 -8 45 -40 222 -60 335 -6 33 -13 69 -15 80 -3 11 -9 47 -14 80 -5 33 -23 134 -41 225 -17 91 -34 183 -37 205 -2 22 -8 43 -13 46 -9 5 -50 -1 -294 -46 -77 -14 -169 -30 -205 -36 -36 -5 -81 -14 -100 -18 -19 -5 -69 -14 -110 -21 -41 -6 -106 -18 -145 -25 -38 -8 -135 -26 -215 -40 -80 -14 -179 -31 -220 -39 -210 -40 -243 -45 -250 -41 -9 6 -33 103 -51 210 -6 39 -16 90 -20 115 -5 25 -13 72 -18 105 -5 33 -24 134 -41 225 -18 91 -36 188 -40 215 -7 54 -73 427 -90 510 -5 28 -14 73 -20 100 -5 28 -21 115 -34 195 -14 80 -32 183 -41 230 -33 173 -44 237 -55 304 -12 76 -24 107 -43 105 -7 -1 -43 -7 -82 -14z"/>
<path d="M39755 24609 c-316 -6 -388 -12 -630 -55 -651 -114 -1241 -394 -1687 -798 -441 -400 -756 -985 -854 -1586 -31 -186 -33 -206 -41 -330 -40 -675 93 -1243 413 -1760 233 -378 586 -717 994 -955 36 -21 76 -46 90 -55 92 -61 437 -209 651 -280 201 -66 570 -149 739 -166 30 -3 71 -7 90 -9 227 -28 630 -35 840 -15 509 47 970 172 1376 373 98 48 116 59 249 138 448 270 822 673 1045 1125 147 298 218 528 275 889 24 150 27 199 27 415 1 308 -6 404 -43 604 -45 249 -104 447 -194 646 -60 136 -59 134 -145 280 -128 219 -297 431 -486 608 -131 121 -157 143 -319 260 -312 224 -713 416 -1075 513 -183 50 -270 71 -340 84 -164 29 -267 46 -310 50 -25 3 -85 9 -135 14 -147 15 -195 16 -530 10z m242 -1749 c38 -5 118 -16 178 -24 267 -36 491 -148 681 -340 210 -213 318 -453 345 -766 13 -147 13 -118 0 -259 -37 -386 -203 -696 -480 -894 -304 -219 -752 -286 -1176 -176 -223 58 -393 157 -551 320 -90 93 -144 170 -196 274 -97 196 -129 343 -129 591 1 293 68 528 215 749 183 274 477 460 801 504 44 6 107 15 140 20 85 12 96 12 172 1z"/>
<path d="M64150 24328 c-63 -4 -133 -12 -155 -17 -22 -5 -67 -12 -100 -16 -83 -9 -271 -49 -401 -84 -464 -127 -950 -374 -1329 -676 -232 -185 -490 -492 -658 -782 -15 -26 -42 -73 -60 -103 -48 -82 -186 -374 -261 -548 -68 -160 -526 -1324 -526 -1339 0 -4 -8 -18 -18 -30 l-17 -23 -130 51 c-71 29 -213 84 -315 124 -459 181 -452 179 -468 148 -6 -10 -110 -274 -232 -588 -122 -313 -256 -655 -297 -760 -41 -104 -108 -278 -150 -385 -42 -107 -93 -238 -114 -290 -43 -110 -43 -111 51 -148 30 -11 175 -68 323 -126 147 -58 270 -106 273 -106 3 0 46 -17 97 -39 51 -21 100 -41 109 -44 16 -6 17 -9 4 -39 -8 -18 -74 -186 -147 -373 -72 -187 -165 -425 -206 -530 -40 -104 -105 -269 -142 -365 -221 -564 -538 -1377 -566 -1450 -18 -47 -57 -148 -88 -225 -30 -77 -154 -394 -275 -705 -121 -311 -234 -599 -250 -640 -16 -41 -64 -163 -105 -270 -42 -107 -110 -280 -151 -385 -68 -173 -73 -192 -59 -207 9 -10 25 -20 37 -24 11 -4 84 -31 161 -61 77 -30 167 -65 200 -78 33 -13 146 -57 250 -98 228 -90 457 -179 620 -243 112 -43 333 -129 625 -244 69 -27 190 -74 270 -105 80 -31 154 -60 165 -65 48 -23 257 -100 270 -100 8 0 15 7 15 16 0 8 18 59 39 112 22 53 63 158 91 232 28 74 65 167 80 205 16 39 45 111 63 160 19 50 72 185 117 300 46 116 102 260 125 320 23 61 75 193 115 295 87 222 154 393 185 475 12 33 34 89 49 125 37 94 252 644 332 850 20 52 64 167 99 255 35 88 86 221 115 295 28 74 65 167 80 205 16 39 45 111 63 160 19 50 72 185 117 300 46 116 102 260 125 320 59 155 180 463 199 508 9 20 22 37 28 37 11 0 248 -89 293 -110 11 -5 85 -35 165 -65 273 -106 355 -138 565 -220 199 -78 368 -144 639 -250 65 -25 125 -45 133 -43 8 2 23 26 33 53 22 60 97 254 134 345 14 36 64 164 111 285 47 121 108 276 135 345 27 69 65 168 85 220 20 52 65 167 100 255 35 88 86 221 115 295 28 74 67 171 85 215 18 44 36 94 39 111 l7 31 -78 31 c-43 17 -132 51 -198 77 -66 25 -140 55 -165 65 -25 11 -110 45 -190 75 -179 69 -523 203 -775 302 -104 41 -230 91 -280 110 -49 19 -96 40 -102 47 -10 9 1 48 56 186 38 96 92 236 121 310 28 74 67 172 86 217 19 45 34 84 34 87 0 10 189 484 215 541 13 28 37 80 53 116 73 163 197 342 320 461 81 79 112 101 192 140 114 55 189 71 334 69 269 -4 564 -128 856 -358 41 -33 137 -119 212 -192 76 -73 143 -131 149 -129 10 3 21 29 94 218 21 52 75 192 121 310 152 387 202 514 239 610 20 52 65 167 100 255 35 88 86 221 115 295 28 74 67 171 85 215 18 44 44 112 58 150 32 89 55 145 68 168 15 27 -16 70 -129 178 -139 134 -310 263 -467 354 -68 40 -321 165 -332 165 -5 0 -47 16 -93 35 -155 65 -329 116 -633 186 -53 12 -207 35 -341 50 -111 12 -484 16 -636 7z"/>
<path d="M18120 22750 c-16 -10 -66 -26 -375 -120 -110 -33 -218 -67 -240 -74 -22 -8 -96 -31 -165 -51 -69 -20 -224 -67 -345 -105 -121 -37 -355 -109 -520 -160 -165 -51 -406 -125 -535 -165 -129 -40 -286 -87 -347 -106 -96 -28 -113 -36 -113 -54 0 -11 24 -99 54 -195 135 -442 140 -460 128 -472 -8 -8 -15 -8 -24 -1 -23 19 -162 92 -248 131 -170 77 -448 164 -610 192 -30 5 -94 16 -142 24 -48 9 -122 19 -165 22 -114 10 -544 10 -643 1 -905 -86 -1790 -508 -2400 -1143 -208 -217 -333 -379 -526 -684 -67 -107 -203 -379 -278 -556 -40 -98 -133 -379 -165 -504 -51 -200 -107 -510 -117 -655 -3 -44 -8 -111 -11 -150 -12 -157 -13 -398 -3 -520 6 -71 15 -182 20 -245 5 -63 14 -135 19 -160 5 -25 14 -79 21 -120 23 -152 87 -420 146 -610 99 -316 235 -626 398 -910 425 -737 1021 -1312 1741 -1677 450 -228 804 -334 1372 -409 76 -10 696 -5 773 6 41 6 89 13 105 15 382 46 815 176 1174 353 525 258 934 618 1193 1051 76 127 127 237 182 390 23 62 46 113 51 112 6 0 14 -16 18 -33 4 -18 14 -49 22 -68 7 -19 55 -172 105 -340 50 -168 95 -316 99 -330 4 -15 16 -26 29 -28 11 -2 366 103 789 233 1086 334 1328 408 1498 461 83 25 166 50 185 56 19 5 70 21 114 35 l78 25 -6 42 c-4 22 -15 68 -26 101 -19 58 -74 239 -147 475 -19 63 -48 156 -63 205 -16 50 -40 131 -55 180 -30 102 -49 163 -99 320 -19 61 -44 144 -56 185 -32 109 -99 328 -114 375 -8 22 -23 72 -35 110 -24 81 -157 515 -171 560 -6 17 -33 104 -61 195 -27 91 -54 179 -59 195 -5 17 -25 82 -45 145 -19 63 -55 183 -81 265 -25 83 -62 202 -81 265 -19 63 -48 156 -63 205 -16 50 -40 131 -55 180 -30 102 -49 163 -99 320 -19 61 -44 144 -56 185 -32 109 -99 328 -114 375 -8 22 -23 72 -35 110 -24 81 -157 515 -171 560 -6 17 -33 104 -61 195 -27 91 -54 179 -59 195 -5 17 -25 82 -45 145 -19 63 -55 183 -81 265 -25 83 -62 202 -81 265 -19 63 -48 156 -63 205 -16 50 -40 131 -55 180 -32 107 -52 173 -99 320 -19 61 -40 128 -45 151 -13 49 -40 77 -61 64z m-2705 -3341 c480 -96 866 -380 1133 -834 85 -145 171 -376 217 -585 49 -223 50 -564 3 -765 -68 -291 -193 -525 -393 -734 -140 -146 -254 -234 -430 -333 -165 -93 -429 -188 -632 -228 -60 -12 -128 -26 -153 -30 -25 -5 -151 -8 -280 -6 -256 3 -275 6 -490 73 -506 160 -901 589 -1081 1173 -58 187 -80 341 -79 565 0 307 49 527 173 770 241 473 710 802 1320 926 206 42 503 46 692 8z"/>
<path d="M55452 22238 c-6 -18 -49 -172 -97 -343 -48 -170 -95 -339 -106 -375 -67 -229 -108 -373 -125 -440 -4 -14 -39 -140 -79 -280 -81 -287 -177 -625 -290 -1025 -74 -264 -87 -309 -161 -565 -20 -69 -41 -143 -46 -165 -5 -22 -42 -155 -82 -295 -40 -140 -104 -363 -141 -495 -37 -132 -101 -357 -141 -500 -41 -143 -83 -294 -95 -335 -11 -41 -29 -102 -39 -135 -10 -33 -39 -136 -65 -230 -26 -93 -71 -253 -100 -355 -29 -102 -92 -324 -140 -495 -48 -170 -121 -427 -161 -570 -41 -143 -83 -294 -95 -335 -11 -41 -29 -102 -39 -135 -10 -33 -25 -87 -34 -120 -9 -33 -32 -116 -52 -185 -50 -172 -49 -166 -26 -179 12 -6 92 -31 179 -55 277 -77 416 -117 478 -136 33 -10 96 -28 140 -40 70 -19 155 -43 425 -120 36 -10 189 -53 340 -96 151 -42 334 -93 405 -114 72 -21 207 -59 300 -85 94 -26 214 -60 267 -77 102 -31 146 -33 159 -8 4 8 25 80 48 160 22 80 74 264 115 410 41 146 104 371 141 500 92 327 182 645 280 990 46 162 109 385 140 495 31 110 91 324 134 475 43 151 109 383 146 515 37 132 100 355 140 495 40 140 112 395 160 565 48 171 111 393 140 495 29 102 80 284 114 405 34 121 100 353 146 515 46 162 118 417 160 565 42 149 101 358 132 465 30 107 61 215 68 240 54 200 66 252 62 264 -3 7 -34 21 -69 30 -34 9 -92 25 -128 35 -36 10 -130 37 -210 59 -80 22 -158 45 -175 50 -16 6 -75 22 -130 37 -55 15 -118 33 -140 40 -22 7 -85 26 -140 40 -55 15 -185 52 -290 82 -104 30 -237 67 -295 83 -58 15 -143 39 -190 53 -47 14 -110 32 -140 40 -30 8 -93 26 -140 40 -86 25 -220 63 -275 77 -16 4 -101 29 -189 54 -87 25 -164 46 -171 46 -8 0 -18 -15 -23 -32z"/>
<path d="M6015 18323 c-507 -42 -986 -177 -1446 -408 -185 -92 -263 -137 -414 -239 -698 -471 -1155 -1148 -1253 -1856 -10 -68 -23 -125 -29 -127 -11 -4 -50 60 -173 282 -40 72 -110 198 -156 281 -46 84 -91 157 -99 164 -12 10 -74 -21 -342 -171 -180 -100 -346 -192 -368 -204 -22 -12 -58 -32 -80 -45 -57 -32 -211 -118 -270 -150 -27 -15 -68 -38 -90 -50 -88 -50 -1112 -621 -1235 -688 -45 -25 -56 -36 -58 -60 -2 -17 3 -34 12 -42 9 -7 16 -16 16 -21 0 -4 53 -104 118 -221 65 -117 126 -226 134 -243 8 -16 27 -50 41 -75 59 -107 385 -698 399 -725 8 -16 27 -50 41 -75 59 -106 393 -711 427 -775 21 -38 120 -218 220 -400 100 -181 199 -361 220 -400 21 -38 120 -218 220 -400 100 -181 199 -361 220 -400 21 -38 120 -218 220 -400 100 -181 199 -361 220 -400 21 -38 120 -218 220 -400 100 -181 199 -361 220 -400 21 -38 133 -242 249 -452 116 -211 211 -386 211 -389 0 -3 8 -18 19 -32 10 -15 39 -65 63 -112 25 -47 112 -206 195 -355 82 -148 156 -283 165 -300 8 -16 97 -178 198 -360 100 -181 199 -361 220 -400 21 -38 130 -236 242 -440 112 -203 220 -398 239 -432 19 -35 41 -63 49 -63 15 0 143 69 590 319 96 54 198 111 225 126 28 15 131 73 230 128 99 55 198 110 220 122 22 12 58 32 80 45 57 32 211 118 270 150 28 15 68 37 90 50 22 12 81 45 130 72 50 28 95 54 100 58 6 4 44 25 85 48 237 127 415 232 418 247 2 9 -1 21 -6 28 -8 9 -280 519 -354 662 -9 17 -99 185 -200 375 -102 190 -303 568 -447 840 -145 272 -270 505 -278 518 -20 32 -10 57 17 42 53 -28 440 -110 560 -119 8 -1 71 -6 140 -11 328 -27 822 43 1200 170 229 77 589 243 772 356 463 284 830 613 1116 996 65 88 233 339 243 363 2 6 30 57 61 115 228 422 362 849 435 1390 26 195 23 872 -4 955 -4 11 -8 36 -9 55 -3 62 -33 231 -79 449 -9 40 -29 119 -46 175 -17 55 -34 117 -39 137 -5 20 -24 74 -41 120 -17 46 -37 102 -44 124 -23 69 -90 225 -152 356 -359 752 -898 1387 -1548 1822 -111 74 -185 121 -220 141 -16 9 -50 28 -75 43 -60 34 -377 193 -386 193 -4 0 -26 9 -48 20 -49 23 -213 86 -276 105 -321 99 -445 129 -640 156 -41 5 -95 14 -120 19 -115 24 -575 38 -755 23z m265 -2761 c194 -49 365 -126 535 -240 154 -103 376 -329 488 -497 171 -258 295 -575 327 -835 13 -110 13 -343 -1 -450 -12 -102 -50 -247 -89 -344 -31 -79 -110 -233 -142 -280 -204 -296 -456 -512 -798 -685 -271 -136 -530 -206 -812 -218 -184 -8 -410 31 -597 104 -327 127 -621 374 -834 703 -68 106 -139 238 -167 310 -11 30 -25 64 -30 75 -27 58 -73 223 -97 350 -27 139 -23 475 6 615 100 476 389 866 851 1146 197 120 389 197 615 248 149 34 159 34 410 31 204 -4 228 -6 335 -33z"/>
<path d="M67071 17408 c-281 -18 -633 -90 -926 -190 -349 -119 -748 -333 -1049 -560 -592 -449 -1106 -1109 -1459 -1875 -192 -414 -347 -975 -373 -1343 -51 -753 58 -1340 371 -1985 414 -852 1192 -1630 2185 -2183 257 -144 539 -274 770 -357 58 -20 121 -43 140 -50 145 -54 449 -134 626 -165 228 -40 290 -48 429 -55 77 -4 151 -9 165 -11 41 -6 295 -6 331 0 19 3 95 8 169 11 74 3 180 15 235 25 55 11 127 25 160 31 33 6 108 24 167 40 520 140 970 390 1370 760 54 50 98 98 98 108 0 19 -202 146 -821 516 -94 56 -179 108 -631 382 -98 60 -255 155 -350 212 -95 57 -195 118 -223 136 -99 63 -259 155 -270 155 -6 0 -42 -15 -81 -34 -104 -51 -188 -82 -299 -111 -125 -33 -345 -45 -487 -25 -87 11 -312 76 -368 105 -14 8 -50 25 -81 39 -231 104 -568 353 -734 542 -200 227 -315 455 -356 704 -18 109 -12 379 12 500 42 211 163 520 268 682 l30 47 63 -39 c139 -86 186 -115 263 -160 44 -26 152 -91 240 -145 88 -54 203 -123 255 -155 285 -171 589 -355 620 -375 19 -12 72 -44 118 -71 45 -27 113 -68 150 -91 37 -23 101 -61 142 -86 41 -24 147 -88 235 -142 88 -54 203 -123 255 -155 285 -171 589 -355 620 -375 19 -12 72 -44 118 -71 45 -27 113 -68 150 -91 37 -23 101 -61 142 -86 41 -24 147 -88 235 -142 88 -54 203 -123 255 -155 285 -171 589 -355 620 -375 19 -12 72 -44 118 -71 130 -77 144 -86 197 -119 100 -64 208 -125 219 -125 10 0 140 211 259 420 81 142 240 466 312 635 122 287 264 757 295 976 6 41 15 78 20 83 14 14 13 1250 0 1274 -5 9 -16 55 -24 102 -73 415 -302 942 -593 1363 -233 336 -582 695 -968 996 -88 68 -450 316 -550 376 -28 17 -59 36 -70 42 -305 186 -718 375 -1065 490 -138 46 -166 54 -358 103 -140 36 -396 85 -502 95 -25 3 -87 9 -138 15 -114 13 -496 18 -651 8z m1274 -2125 c247 -48 513 -158 731 -304 148 -99 363 -314 456 -454 112 -170 188 -347 239 -560 30 -121 33 -445 5 -568 -23 -106 -54 -205 -66 -212 -6 -4 -22 2 -38 13 -15 11 -103 66 -197 122 -93 57 -275 166 -403 244 -128 77 -278 168 -333 201 -134 80 -436 263 -694 420 -528 321 -656 399 -805 488 -201 119 -250 151 -250 163 0 7 39 48 86 92 189 177 420 297 679 352 115 25 148 27 325 27 109 0 174 -6 265 -24z"/>
<path d="M70831 8559 c-13 -35 -38 -148 -61 -279 -12 -63 -27 -146 -35 -185 -8 -38 -35 -178 -60 -310 -25 -132 -50 -262 -56 -290 -12 -60 -39 -207 -39 -217 0 -5 36 -8 80 -8 l79 0 10 38 c6 20 11 46 11 57 0 11 7 52 16 90 14 66 46 234 80 423 17 96 35 154 48 154 8 -1 41 -69 136 -282 228 -512 236 -530 257 -530 6 0 16 15 22 33 8 29 73 175 144 327 14 30 50 111 80 180 93 211 129 282 140 271 8 -8 95 -430 117 -571 12 -79 38 -182 47 -191 4 -4 41 -5 81 -2 68 5 72 7 72 29 0 14 -4 32 -10 42 -5 9 -14 44 -18 77 -9 57 -34 185 -69 355 -8 41 -19 103 -24 138 -5 35 -11 67 -13 71 -3 5 -12 48 -20 97 -9 49 -22 121 -30 159 -8 39 -22 108 -32 155 -9 47 -20 107 -23 134 -3 27 -12 51 -19 54 -15 5 -40 -49 -225 -478 -185 -431 -214 -494 -226 -498 -12 -4 -37 44 -111 217 -32 75 -115 267 -184 428 -69 161 -126 296 -126 301 0 5 -7 15 -15 22 -12 10 -16 8 -24 -11z"/>
<path d="M69795 8472 c-3 -26 -2 -59 4 -74 l10 -26 133 0 133 1 5 -546 c3 -300 9 -549 13 -553 13 -13 136 -13 144 -1 5 7 10 257 13 557 l5 544 137 -3 c128 -3 137 -1 147 17 15 28 14 105 -1 120 -9 9 -106 12 -374 12 l-362 0 -7 -48z"/>
<path d="M18803 5017 c-12 -18 -15 -3760 -3 -3791 l10 -26 174 0 174 0 6 22 c8 31 5 3735 -3 3773 l-6 30 -173 2 c-121 1 -174 -2 -179 -10z"/>
<path d="M28236 5021 c-8 -12 -8 -3800 -1 -3812 10 -15 340 -11 353 4 7 8 12 240 14 697 l4 685 27 100 c15 55 41 128 58 162 39 77 119 155 196 191 51 23 73 27 188 30 151 4 217 -12 291 -74 60 -48 90 -104 119 -219 l25 -98 0 -718 c0 -442 4 -728 10 -743 l10 -26 174 0 175 0 6 33 c4 17 5 367 3 777 -4 796 -2 750 -54 955 -32 124 -119 275 -194 338 -65 55 -153 98 -254 124 -90 23 -115 25 -231 20 -114 -4 -140 -8 -215 -36 -105 -39 -173 -84 -261 -171 -37 -37 -70 -65 -73 -62 -3 3 -6 416 -6 917 0 718 -3 915 -12 923 -17 13 -344 16 -352 3z"/>
<path d="M33476 5021 c-8 -12 -8 -3800 -1 -3812 9 -14 338 -12 353 3 18 18 17 3791 0 3806 -17 13 -344 16 -352 3z"/>
<path d="M63676 5021 c-8 -12 -8 -3800 -1 -3812 9 -14 338 -12 353 3 18 18 17 3791 0 3806 -17 13 -344 16 -352 3z"/>
<path d="M11206 4445 c-74 -30 -99 -54 -136 -129 -41 -81 -41 -157 -1 -241 34 -72 58 -95 131 -129 65 -31 117 -33 184 -7 74 28 115 66 148 138 27 57 30 72 26 131 -9 121 -75 212 -179 246 -65 22 -104 20 -173 -9z"/>
<path d="M55480 4162 l-25 -8 -3 -374 c-2 -206 -6 -378 -11 -383 -4 -4 -46 -8 -95 -9 -72 -1 -89 -5 -97 -19 -13 -25 -12 -322 2 -336 7 -7 33 -9 67 -6 32 2 74 1 95 -4 l38 -8 -1 -894 c0 -654 3 -897 11 -907 16 -20 341 -20 358 -1 8 10 11 269 11 908 l0 894 37 7 c21 4 99 7 174 6 75 0 141 2 148 6 16 11 15 330 -1 344 -8 5 -84 10 -178 11 -91 1 -168 5 -172 9 -4 4 -8 175 -8 380 -1 275 -4 374 -13 379 -16 10 -305 14 -337 5z"/>
<path d="M25973 3533 c-3 -10 -56 -144 -116 -298 -60 -154 -129 -329 -152 -390 -120 -312 -319 -813 -332 -838 -8 -16 -19 -27 -24 -25 -6 2 -21 28 -33 58 -52 124 -131 315 -196 470 -37 91 -114 275 -170 410 -56 135 -110 265 -120 290 -10 25 -32 75 -48 111 l-30 67 -194 1 c-106 1 -199 -3 -206 -8 -11 -6 -2 -34 38 -127 60 -138 77 -177 233 -534 200 -461 228 -524 247 -565 10 -23 38 -88 63 -145 25 -58 78 -179 117 -270 130 -296 142 -324 170 -390 86 -201 127 -285 139 -285 7 0 24 29 38 65 14 36 38 97 54 135 15 39 48 122 72 185 25 63 88 225 142 360 88 223 233 593 287 730 24 64 38 84 49 73 4 -4 24 -51 44 -103 20 -52 49 -126 65 -165 16 -38 70 -176 121 -305 126 -324 316 -805 341 -865 12 -27 24 -63 27 -80 12 -54 35 -42 71 37 32 73 153 346 215 488 18 41 83 190 145 330 62 140 152 347 201 460 50 113 105 239 124 280 19 41 68 152 108 245 41 94 100 228 131 299 32 71 55 135 52 143 -5 11 -41 14 -201 12 l-196 -2 -15 -23 c-14 -20 -112 -250 -229 -534 -71 -173 -174 -422 -195 -470 -11 -25 -47 -110 -81 -190 -74 -176 -88 -202 -98 -196 -4 3 -29 61 -55 128 -27 68 -63 160 -82 205 -19 45 -34 84 -34 88 0 4 -15 43 -34 88 -19 45 -69 170 -111 277 -42 107 -110 278 -150 380 -41 102 -85 216 -100 255 -33 88 -66 155 -77 155 -5 0 -11 -8 -15 -17z"/>
<path d="M9540 3443 c-182 -30 -365 -164 -443 -323 -50 -103 -67 -177 -67 -290 0 -275 133 -442 465 -585 160 -69 299 -143 348 -186 76 -65 100 -117 105 -220 4 -77 1 -94 -20 -141 -47 -101 -117 -157 -228 -182 -174 -39 -335 54 -439 253 -23 44 -47 81 -52 81 -6 0 -47 -17 -92 -38 -45 -21 -112 -51 -149 -67 -71 -32 -83 -45 -69 -73 5 -9 23 -47 39 -84 72 -160 196 -290 347 -363 116 -57 199 -76 339 -77 201 -2 370 66 508 203 64 63 84 93 127 180 75 155 94 300 63 474 -25 146 -119 283 -255 375 -54 36 -280 150 -298 150 -6 0 -23 6 -37 14 -15 8 -54 27 -87 42 -161 72 -244 152 -253 244 -7 77 5 117 51 167 51 55 84 73 156 83 82 11 143 -14 213 -88 30 -32 63 -72 72 -90 9 -18 19 -32 23 -32 3 0 58 28 122 63 64 34 128 69 144 76 50 26 36 70 -67 209 -70 94 -208 184 -331 217 -54 14 -175 18 -235 8z"/>
<path d="M13161 3434 c-94 -25 -191 -83 -269 -161 -40 -39 -75 -66 -77 -60 -2 7 -7 48 -12 92 l-8 80 -175 0 -175 0 -6 -30 c-11 -51 -10 -2101 1 -2129 l10 -26 174 0 174 0 6 22 c3 13 6 295 6 628 0 333 5 653 10 712 24 253 115 427 255 489 38 17 75 23 156 27 98 4 109 2 155 -21 84 -43 142 -116 174 -220 36 -118 40 -189 40 -908 0 -535 3 -708 12 -717 8 -8 63 -12 180 -12 145 0 169 2 175 16 3 9 7 293 9 632 1 340 5 642 7 672 13 148 47 291 88 372 27 53 108 131 165 158 61 29 227 40 301 20 74 -21 137 -79 177 -162 34 -72 38 -92 66 -319 6 -51 10 -342 10 -728 0 -353 2 -646 5 -651 4 -6 79 -10 174 -10 131 0 171 3 180 14 8 10 10 196 7 707 -2 382 -5 712 -5 734 -2 68 -40 287 -62 350 -32 92 -97 210 -146 265 -106 118 -266 180 -466 180 -201 0 -408 -88 -519 -221 -24 -29 -54 -65 -68 -81 l-25 -30 -32 49 c-87 134 -245 238 -411 272 -73 15 -196 13 -261 -5z"/>
<path d="M16885 3425 c-170 -43 -296 -116 -419 -241 -42 -42 -76 -73 -77 -68 0 5 0 62 0 128 1 72 -3 123 -9 131 -13 16 -326 21 -350 5 -13 -8 -15 -209 -18 -1695 l-2 -1685 190 0 190 0 0 726 c0 399 2 730 6 735 3 6 40 -23 83 -63 119 -116 215 -174 356 -216 125 -37 287 -47 420 -28 101 16 267 80 357 139 254 168 406 426 468 797 32 194 1 486 -75 690 -47 127 -151 294 -244 394 -41 43 -154 129 -221 168 -173 99 -454 135 -655 83z m374 -375 c149 -53 281 -175 360 -334 60 -118 83 -223 87 -386 2 -114 -1 -151 -21 -235 -47 -201 -100 -303 -214 -415 -180 -177 -470 -222 -708 -109 -92 43 -223 174 -276 276 -72 137 -104 264 -113 436 -6 123 15 246 67 377 74 187 227 338 400 396 67 22 86 24 214 20 114 -3 152 -8 204 -26z"/>
<path d="M20705 3443 c-252 -35 -493 -185 -637 -397 -244 -357 -288 -921 -103 -1323 109 -237 303 -423 535 -512 131 -51 201 -63 365 -63 192 0 307 26 470 106 129 64 225 137 317 243 68 79 168 234 168 263 0 9 -27 32 -62 53 -35 21 -100 61 -146 89 -45 27 -88 48 -95 45 -7 -3 -30 -33 -50 -68 -113 -193 -287 -328 -462 -359 -253 -45 -489 54 -641 266 -73 103 -130 274 -122 369 l3 40 797 3 797 2 7 37 c4 20 4 86 1 147 -19 337 -162 667 -364 843 -170 147 -391 225 -632 222 -64 -1 -129 -4 -146 -6z m328 -386 c131 -48 234 -129 313 -249 44 -65 88 -172 96 -228 l3 -25 -590 -5 c-324 -3 -594 -2 -598 1 -14 11 42 165 84 230 84 129 220 236 357 280 88 28 252 26 335 -4z"/>
<path d="M31519 3440 c-179 -32 -356 -111 -494 -218 -102 -79 -119 -97 -199 -202 -270 -358 -315 -860 -114 -1265 75 -150 202 -303 338 -405 118 -89 336 -177 481 -195 228 -28 416 3 616 101 300 147 513 421 595 765 19 79 22 123 23 274 0 167 -2 188 -29 290 -69 261 -201 475 -386 623 -140 112 -260 172 -440 218 -74 19 -318 28 -391 14z m336 -375 c227 -59 413 -241 497 -486 29 -87 32 -106 36 -254 4 -192 -12 -274 -85 -424 -38 -80 -59 -108 -137 -186 -77 -79 -104 -99 -180 -135 -141 -66 -303 -87 -451 -57 -272 56 -495 293 -557 591 -37 181 -6 423 76 584 87 171 267 319 446 366 76 20 279 20 355 1z"/>
<path d="M35357 3439 c-32 -5 -106 -25 -165 -45 -125 -43 -268 -131 -347 -215 -207 -220 -325 -546 -326 -898 -1 -348 119 -661 332 -867 192 -185 407 -267 699 -266 369 1 669 168 876 489 60 92 72 125 52 142 -24 22 -202 131 -246 151 -42 19 -72 18 -72 -4 0 -23 -99 -162 -159 -223 -120 -123 -245 -182 -406 -191 -175 -9 -336 47 -459 160 -68 62 -139 160 -174 240 -28 65 -54 186 -50 239 l3 44 789 3 c602 2 793 5 804 14 20 17 11 240 -17 375 -111 546 -472 867 -968 862 -59 -1 -134 -5 -166 -10z m346 -382 c88 -32 146 -68 216 -133 93 -86 182 -244 193 -342 l3 -32 -595 0 -595 -1 3 23 c17 126 112 279 236 377 121 96 216 129 373 130 83 1 114 -3 166 -22z"/>
<path d="M37690 3444 c-245 -47 -442 -232 -494 -464 -18 -82 -14 -278 7 -336 62 -169 161 -265 387 -372 386 -182 436 -215 484 -315 38 -80 43 -142 17 -224 -50 -165 -216 -255 -395 -215 -119 27 -215 112 -282 251 -22 45 -43 81 -48 81 -12 0 -309 -130 -320 -141 -6 -5 -3 -21 6 -41 9 -18 24 -53 35 -78 46 -112 149 -239 253 -310 143 -98 255 -131 440 -132 108 0 136 4 206 26 122 39 209 91 294 176 168 167 243 418 194 650 -32 155 -102 261 -241 368 -49 37 -217 124 -346 177 -182 75 -293 151 -334 230 -20 38 -20 132 0 171 22 42 86 101 129 119 51 21 143 19 193 -4 44 -20 133 -109 159 -159 9 -18 20 -32 25 -32 5 0 62 29 127 65 66 36 125 69 133 73 8 5 20 17 28 28 11 18 8 29 -33 97 -80 135 -204 239 -344 289 -54 20 -223 33 -280 22z"/>
<path d="M39919 3436 c-175 -41 -326 -108 -456 -205 -243 -180 -411 -495 -444 -831 -33 -338 100 -709 339 -947 122 -120 290 -219 457 -266 125 -35 162 -40 310 -39 100 0 149 5 215 22 246 63 434 178 588 360 70 84 68 80 138 216 86 167 122 305 131 502 11 245 -62 509 -202 726 -49 76 -212 240 -294 296 -88 59 -211 115 -322 146 -78 21 -120 26 -249 29 -103 3 -174 -1 -211 -9z m366 -372 c123 -32 202 -79 306 -183 81 -82 103 -111 143 -191 67 -137 90 -236 90 -390 -1 -250 -85 -456 -250 -610 -115 -107 -247 -163 -419 -178 -88 -8 -122 -5 -241 24 -213 53 -411 251 -484 486 -43 140 -51 285 -24 447 30 183 146 375 288 481 81 59 192 109 276 123 67 11 259 6 315 -9z"/>
<path d="M42660 3444 c-110 -20 -226 -87 -317 -181 -34 -36 -64 -60 -67 -54 -4 6 -7 43 -7 83 0 40 -5 78 -10 84 -12 15 -327 19 -349 4 -13 -8 -15 -141 -18 -1081 -2 -789 1 -1075 9 -1085 16 -20 341 -20 358 -1 7 9 11 186 11 588 1 731 9 856 65 1005 50 133 139 229 242 260 25 8 87 14 138 14 78 0 99 -4 143 -26 90 -45 146 -132 185 -289 19 -75 20 -124 24 -798 2 -399 8 -730 13 -743 l10 -24 175 0 c96 0 176 1 177 3 1 1 5 328 8 727 l6 725 21 77 c45 160 117 264 218 316 43 22 66 26 165 30 106 3 119 2 171 -21 95 -43 157 -132 191 -277 7 -29 12 -309 15 -800 3 -513 8 -758 15 -767 14 -17 343 -19 354 -2 7 12 7 1390 -1 1518 -7 119 -48 279 -100 389 -36 76 -58 108 -113 161 -118 117 -224 160 -412 168 -145 6 -233 -11 -355 -70 -114 -55 -184 -112 -243 -193 l-47 -65 -20 24 c-11 14 -36 45 -55 70 -41 54 -139 136 -199 166 -83 43 -163 62 -271 66 -58 2 -116 1 -130 -1z"/>
<path d="M46170 3444 c-340 -66 -562 -230 -711 -527 -60 -118 -90 -207 -120 -358 -32 -157 -33 -406 -1 -554 94 -447 363 -742 762 -835 136 -32 348 -32 475 0 198 49 349 133 486 270 87 87 204 247 219 300 7 26 5 32 -19 49 -36 26 -264 161 -271 161 -13 -1 -29 -20 -72 -90 -95 -153 -228 -271 -358 -316 -84 -29 -232 -45 -292 -32 -97 22 -203 62 -257 96 -114 72 -217 202 -262 329 -25 69 -61 242 -53 254 3 5 360 9 793 9 664 0 790 2 807 14 16 12 19 26 18 83 -6 517 -233 921 -609 1080 -113 48 -203 65 -360 68 -82 2 -161 1 -175 -1z m311 -380 c124 -36 287 -170 356 -294 35 -62 76 -182 71 -205 -3 -14 -66 -16 -593 -15 l-590 0 2 28 c16 191 250 441 463 492 62 14 232 11 291 -6z"/>
<path d="M50918 3436 c-121 -28 -237 -93 -335 -189 -51 -50 -74 -66 -78 -56 -3 8 -8 55 -13 104 l-7 90 -170 2 c-146 1 -172 -1 -182 -15 -18 -23 -19 -2142 -1 -2160 8 -8 63 -12 180 -12 147 0 169 2 175 16 3 9 7 296 7 638 2 643 5 704 46 861 42 162 119 269 238 327 63 31 73 33 197 36 111 3 139 1 189 -17 141 -49 213 -159 236 -359 6 -51 10 -374 10 -781 0 -503 3 -697 11 -707 16 -20 341 -20 357 -1 8 9 11 228 12 723 0 657 -1 719 -20 839 -25 169 -52 261 -102 358 -74 142 -197 241 -356 288 -86 26 -310 34 -394 15z"/>
<path d="M53350 3444 c-244 -45 -458 -167 -588 -337 -152 -196 -237 -422 -262 -696 -16 -173 8 -370 66 -551 90 -275 270 -497 495 -610 140 -71 250 -100 391 -104 270 -8 500 81 665 257 33 36 64 63 67 60 3 -4 6 -53 6 -109 0 -56 4 -114 10 -128 l10 -26 174 0 174 0 6 23 c8 30 5 2094 -3 2132 l-6 30 -173 2 c-115 1 -174 -2 -179 -10 -3 -6 -8 -58 -10 -116 -3 -58 -7 -112 -9 -120 -3 -10 -24 4 -67 46 -104 102 -215 171 -346 216 -110 37 -124 39 -256 42 -77 2 -151 2 -165 -1z m365 -379 c107 -28 184 -74 271 -160 154 -153 221 -325 224 -580 3 -275 -76 -492 -236 -646 -96 -92 -186 -137 -321 -160 -100 -17 -139 -16 -233 3 -265 55 -445 256 -519 579 -29 125 -23 350 12 464 34 109 52 149 102 225 83 127 238 247 359 276 74 18 270 17 341 -1z"/>
<path d="M59890 3437 c-110 -33 -219 -111 -285 -206 -15 -22 -31 -38 -36 -35 -5 3 -9 43 -9 88 0 55 -4 87 -12 94 -8 6 -79 10 -183 9 l-170 -2 -5 -1078 c-3 -593 -1 -1085 3 -1093 11 -19 339 -21 355 -2 6 9 12 253 15 683 3 369 8 686 11 705 33 201 76 309 155 393 62 66 103 81 211 82 l95 0 56 -37 c65 -44 82 -47 96 -15 6 12 41 83 77 158 36 75 66 145 66 156 0 20 -64 57 -155 88 -66 23 -226 29 -285 12z"/>
<path d="M61590 3443 c-14 -2 -59 -13 -101 -24 -384 -96 -661 -433 -734 -894 -87 -541 144 -1075 552 -1279 135 -67 245 -96 384 -100 267 -8 485 75 666 252 34 33 64 58 67 55 3 -4 6 -50 6 -104 0 -54 4 -109 10 -123 l10 -26 174 0 174 0 6 23 c8 30 5 2094 -3 2132 l-6 30 -173 2 c-115 1 -174 -2 -179 -10 -3 -6 -8 -58 -10 -116 -3 -58 -6 -112 -9 -120 -3 -9 -27 8 -72 51 -69 66 -186 149 -257 182 -105 48 -206 69 -345 72 -74 1 -146 0 -160 -3z m365 -378 c110 -29 184 -73 275 -165 152 -151 218 -325 220 -580 2 -208 -46 -392 -140 -529 -43 -63 -147 -166 -201 -199 -71 -43 -217 -82 -324 -86 -61 -2 -194 29 -270 63 -229 104 -396 408 -395 721 1 165 19 262 75 394 74 174 267 348 425 382 81 18 264 17 335 -1z"/>
<path d="M11123 3377 c-12 -19 -15 -2120 -3 -2151 l10 -26 174 0 174 0 6 22 c8 31 5 2095 -3 2133 l-6 30 -173 2 c-121 1 -174 -2 -179 -10z"/>
<path d="M56716 3382 c-3 -5 -6 -346 -6 -758 l-1 -749 25 -108 c47 -195 133 -361 232 -444 95 -79 249 -147 382 -168 24 -4 110 -7 190 -7 117 0 165 4 232 21 334 84 510 310 565 726 20 150 22 1467 3 1483 -17 13 -328 15 -348 2 -13 -8 -15 -100 -18 -707 -1 -398 -7 -730 -12 -773 -25 -179 -99 -299 -218 -352 -92 -41 -239 -50 -362 -22 -152 35 -233 124 -281 309 -17 65 -19 126 -19 801 0 573 -3 734 -12 742 -16 12 -344 16 -352 4z"/>
<path d="M22840 1676 c-97 -27 -149 -75 -186 -171 -38 -100 7 -246 94 -310 137 -99 334 -38 381 118 6 20 16 53 22 72 12 40 3 77 -39 164 -30 62 -81 104 -155 126 -58 17 -57 17 -117 1z"/>
<path d="M48315 1680 c-129 -34 -205 -129 -207 -258 -4 -207 187 -336 366 -248 72 35 122 106 139 197 9 50 8 68 -7 116 -28 88 -56 125 -122 160 -65 34 -123 46 -169 33z"/>
<path d="M65213 1681 c-40 -10 -112 -52 -140 -83 -57 -61 -83 -168 -59 -248 55 -184 238 -262 386 -164 68 45 120 148 120 236 0 52 -36 140 -75 179 -60 63 -161 97 -232 80z"/>
</g>
</g>
  <g id="id1:id1" transform="matrix(1.25,0,0,1.25,0.0,0.0)"><g transform="translate(0.000000,1166.400000) scale(0.040000,-0.040000)" fill="#8dc63f" stroke="none">
<path d="M24700 23830 c0 -5 5 -10 10 -10 6 0 10 5 10 10 0 6 -4 10 -10 10 -5 0 -10 -4 -10 -10z"/>
<path d="M34265 22730 c3 -5 8 -10 11 -10 2 0 4 5 4 10 0 6 -5 10 -11 10 -5 0 -7 -4 -4 -10z"/>
<path d="M18305 22210 c3 -5 8 -10 11 -10 2 0 4 5 4 10 0 6 -5 10 -11 10 -5 0 -7 -4 -4 -10z"/>
<path d="M18465 21690 c3 -5 8 -10 11 -10 2 0 4 5 4 10 0 6 -5 10 -11 10 -5 0 -7 -4 -4 -10z"/>
<path d="M34476 21110 c-35 -11 -72 -32 -92 -51 -54 -52 -249 -347 -352 -529 -13 -25 -28 -49 -32 -55 -6 -8 -53 -96 -159 -300 -28 -54 -155 -320 -176 -370 -136 -321 -298 -764 -350 -960 -7 -27 -25 -90 -39 -140 -105 -368 -198 -855 -240 -1255 -37 -348 -41 -422 -41 -900 1 -426 3 -512 23 -710 12 -124 27 -252 32 -285 6 -33 17 -109 25 -170 91 -690 298 -1419 587 -2060 76 -167 260 -526 348 -675 676 -1155 1679 -2048 2780 -2475 237 -92 595 -192 805 -225 39 -6 97 -15 130 -21 188 -31 613 -44 869 -26 110 8 361 48 533 86 117 26 374 100 391 113 22 18 13 62 -51 254 -114 339 -226 605 -386 919 -320 625 -594 980 -1310 1695 -289 288 -648 628 -891 841 -53 46 -150 132 -217 192 -66 59 -139 122 -161 140 -22 17 -121 100 -218 182 -188 158 -230 193 -417 344 -64 52 -117 102 -117 111 0 9 9 25 21 35 l20 19 37 -19 c81 -42 646 -358 782 -437 1531 -891 2461 -1661 3118 -2582 282 -394 531 -864 704 -1326 94 -249 110 -298 118 -350 4 -30 19 -98 34 -150 94 -338 121 -850 64 -1220 -76 -496 -289 -1003 -604 -1435 -356 -491 -831 -909 -1479 -1304 -185 -113 -226 -146 -281 -231 -63 -98 -94 -198 -94 -305 0 -351 340 -607 702 -530 89 18 134 39 297 137 888 532 1589 1202 2033 1942 105 175 254 473 314 626 26 69 52 131 58 138 6 9 22 11 45 8 42 -7 328 8 531 28 457 43 1006 178 1496 367 230 89 334 135 604 269 165 82 229 116 245 131 18 18 64 8 150 -32 243 -112 491 -185 774 -229 108 -17 184 -21 380 -21 136 -1 284 4 331 11 386 52 714 165 1043 361 511 306 839 671 1027 1144 80 202 123 362 190 700 119 606 161 780 245 1010 119 323 293 606 540 877 101 112 279 278 379 353 22 17 60 46 85 65 25 20 91 65 146 101 380 250 792 417 1268 515 89 18 129 42 171 102 65 92 40 215 -61 299 -163 137 -504 331 -808 461 -233 99 -624 217 -891 268 -148 28 -469 74 -559 80 -49 3 -125 8 -167 11 -123 9 -694 9 -793 0 -49 -4 -126 -10 -170 -12 -72 -5 -186 -17 -402 -45 -78 -11 -311 -51 -433 -75 -313 -63 -760 -204 -1074 -339 -967 -417 -1741 -1042 -2274 -1836 -327 -489 -506 -969 -537 -1440 -11 -170 28 -437 99 -682 25 -85 27 -85 162 -43 604 189 1526 725 2519 1466 334 249 808 627 1047 836 59 51 115 93 126 93 23 0 42 -19 42 -43 0 -18 -86 -174 -158 -287 -318 -500 -600 -854 -1012 -1274 -485 -494 -1038 -921 -1665 -1287 -118 -68 -666 -346 -786 -397 -310 -134 -595 -226 -944 -305 -181 -42 -498 -82 -644 -82 -12 0 -14 53 -16 320 -1 331 -7 398 -57 690 -62 366 -197 784 -400 1237 l-21 48 119 122 c653 673 1024 1520 1018 2318 -2 203 -12 311 -48 515 -132 751 -656 1591 -1366 2191 -152 128 -416 319 -570 412 -514 309 -1043 534 -1970 838 -91 30 -178 59 -195 65 -16 5 -120 41 -230 79 -385 132 -514 181 -740 278 -139 60 -446 213 -475 236 -8 7 -49 34 -92 59 -462 284 -963 750 -1313 1222 -233 315 -448 682 -587 1005 -56 129 -74 176 -129 338 -44 133 -86 192 -151 215 -70 25 -100 26 -162 7z"/>
<path d="M18905 20250 c3 -5 8 -10 11 -10 2 0 4 5 4 10 0 6 -5 10 -11 10 -5 0 -7 -4 -4 -10z"/>
<path d="M19065 19730 c3 -5 8 -10 11 -10 2 0 4 5 4 10 0 6 -5 10 -11 10 -5 0 -7 -4 -4 -10z"/>
<path d="M19225 19210 c3 -5 8 -10 11 -10 2 0 4 5 4 10 0 6 -5 10 -11 10 -5 0 -7 -4 -4 -10z"/>
<path d="M19385 18690 c3 -5 8 -10 11 -10 2 0 4 5 4 10 0 6 -5 10 -11 10 -5 0 -7 -4 -4 -10z"/>
<path d="M19825 17250 c3 -5 8 -10 11 -10 2 0 4 5 4 10 0 6 -5 10 -11 10 -5 0 -7 -4 -4 -10z"/>
<path d="M19985 16730 c3 -5 8 -10 11 -10 2 0 4 5 4 10 0 6 -5 10 -11 10 -5 0 -7 -4 -4 -10z"/>
<path d="M20145 16210 c3 -5 8 -10 11 -10 2 0 4 5 4 10 0 6 -5 10 -11 10 -5 0 -7 -4 -4 -10z"/>
<path d="M20300 15690 c0 -5 5 -10 10 -10 6 0 10 5 10 10 0 6 -4 10 -10 10 -5 0 -10 -4 -10 -10z"/>
<path d="M71740 8500 c0 -5 5 -10 10 -10 6 0 10 5 10 10 0 6 -4 10 -10 10 -5 0 -10 -4 -10 -10z"/>
<path d="M71860 7860 c0 -5 5 -10 10 -10 6 0 10 5 10 10 0 6 -4 10 -10 10 -5 0 -10 -4 -10 -10z"/>
<path d="M26605 1110 c-3 -5 -1 -10 4 -10 6 0 11 5 11 10 0 6 -2 10 -4 10 -3 0 -8 -4 -11 -10z"/>
</g>
</g>
</svg>
