<?xml version="1.0" standalone="no"?>
<!DOCTYPE svg PUBLIC "-//W3C//DTD SVG 1.1//EN"
 "http://www.w3.org/Graphics/SVG/1.1/DTD/svg11.dtd">
<!-- Created with svg_stack (http://github.com/astraw/svg_stack) -->
<svg xmlns:sodipodi="http://sodipodi.sourceforge.net/DTD/sodipodi-0.dtd" xmlns="http://www.w3.org/2000/svg" version="1.1" width="1008.0" height="720.0">
  <defs/>
  <g id="id0:id0" transform="matrix(1.25,0,0,1.25,0.0,0.0)"><g transform="translate(0.000000,576.000000) scale(0.040000,-0.040000)" fill="#ffffff" stroke="none">
<path d="M2165 12581 c-163 -44 -304 -194 -359 -381 -87 -291 -66 -647 51 -871 47 -91 126 -168 219 -214 63 -31 89 -38 157 -42 147 -9 254 32 360 139 127 130 190 336 190 628 -1 131 -5 173 -27 270 -36 157 -86 259 -169 344 -91 93 -168 127 -297 132 -52 2 -108 0 -125 -5z m212 -193 c77 -36 134 -122 175 -265 20 -70 23 -100 22 -283 0 -190 -2 -212 -27 -304 -45 -168 -108 -248 -220 -281 l-58 -17 -69 21 c-59 18 -75 28 -118 77 -92 103 -128 268 -119 543 7 233 43 362 123 451 77 85 187 107 291 58z"/>
<path d="M4590 12576 c-145 -43 -241 -131 -315 -289 -66 -138 -103 -384 -85 -564 34 -334 127 -511 318 -606 l85 -42 111 0 111 0 78 39 c88 44 171 125 213 208 38 76 77 199 67 209 -14 14 -161 52 -176 46 -8 -3 -21 -36 -30 -73 -21 -81 -69 -165 -117 -204 -19 -15 -59 -34 -88 -43 -48 -14 -60 -14 -109 -1 -73 19 -83 25 -136 84 -84 93 -121 236 -122 470 0 257 41 417 137 526 57 65 145 91 230 69 87 -22 177 -136 194 -242 3 -23 15 -50 25 -59 17 -15 22 -15 56 -2 21 9 54 18 74 22 63 11 65 23 24 128 -61 157 -139 250 -254 304 -69 32 -217 43 -291 20z"/>
<path d="M8265 12572 c-177 -61 -304 -227 -357 -467 -32 -143 -32 -415 -1 -560 66 -300 245 -474 488 -475 217 0 383 139 462 390 43 135 57 258 50 440 -13 353 -141 587 -364 666 -84 29 -203 32 -278 6z m236 -183 c86 -43 163 -171 188 -313 14 -77 14 -395 0 -472 -14 -80 -47 -182 -74 -224 -20 -31 -98 -110 -110 -110 -2 0 -29 -7 -61 -15 -150 -39 -281 71 -328 275 -30 127 -41 290 -27 408 24 219 54 311 126 391 79 87 188 109 286 60z"/>
<path d="M11177 12566 c-188 -68 -312 -246 -362 -521 -17 -93 -20 -339 -4 -435 39 -246 149 -418 316 -498 l78 -37 105 0 c123 0 170 17 244 90 25 24 47 40 50 37 3 -3 6 -24 6 -47 0 -22 5 -46 12 -53 13 -13 53 -15 111 -6 l37 7 -2 351 -3 351 -214 3 c-149 2 -218 -1 -227 -9 -14 -12 -19 -94 -8 -136 l6 -23 123 0 c93 0 125 -3 134 -14 16 -20 -3 -170 -30 -230 -55 -126 -168 -174 -309 -133 -138 40 -217 204 -235 487 -17 269 52 518 169 612 96 77 252 64 320 -25 33 -44 74 -137 82 -188 4 -22 14 -43 22 -46 29 -12 172 31 172 51 0 6 -13 52 -29 102 -47 152 -123 244 -247 301 -46 21 -77 27 -153 30 -83 3 -105 0 -164 -21z"/>
<path d="M3037 12558 c-16 -12 -17 -65 -15 -733 l3 -720 66 -8 c41 -5 76 -4 93 3 l27 10 -4 563 c-3 309 -6 571 -8 582 -6 34 15 30 34 -6 16 -32 145 -301 247 -514 182 -383 285 -594 302 -617 17 -25 23 -27 81 -25 34 2 68 6 75 10 9 7 12 162 12 725 0 394 -4 722 -8 728 -11 16 -147 16 -161 0 -9 -11 -12 -133 -10 -463 1 -246 2 -463 3 -480 1 -34 -13 -46 -26 -22 -4 8 -38 82 -76 164 -60 129 -168 358 -304 645 -20 41 -39 85 -42 97 -4 12 -16 33 -27 47 l-20 26 -113 0 c-74 0 -118 -4 -129 -12z"/>
<path d="M5437 12559 c-16 -10 -17 -51 -17 -722 1 -392 5 -718 9 -725 6 -11 89 -13 405 -13 218 0 400 2 405 5 9 6 8 162 -1 172 -4 3 -138 5 -298 4 -211 0 -296 3 -306 11 -20 17 -20 452 1 469 9 7 80 10 218 9 113 0 210 2 216 6 6 3 11 40 11 86 0 66 -3 81 -17 86 -9 4 -112 7 -228 7 l-210 1 0 210 0 210 284 3 c189 1 289 6 298 13 16 14 18 131 3 160 l-11 19 -372 0 c-237 0 -378 -4 -390 -11z"/>
<path d="M6873 12554 c-3 -8 15 -56 40 -107 25 -51 105 -220 177 -376 73 -157 141 -298 151 -315 17 -29 19 -56 19 -343 0 -355 -11 -321 100 -321 110 -1 100 -35 100 325 l0 316 95 194 c52 106 95 195 95 198 0 5 81 176 162 342 22 45 37 86 34 91 -2 4 -46 9 -96 10 -83 1 -91 -1 -105 -21 -8 -12 -57 -121 -110 -242 -53 -121 -103 -236 -112 -255 -9 -19 -24 -55 -34 -80 -9 -25 -22 -45 -28 -45 -7 0 -30 45 -52 100 -36 90 -58 140 -147 339 -15 32 -43 91 -62 130 l-35 71 -93 1 c-73 2 -95 -1 -99 -12z"/>
<path d="M9152 12562 c-18 -12 -12 -1159 6 -1213 17 -51 83 -145 126 -180 137 -114 357 -130 533 -40 110 56 185 162 209 296 19 104 20 1118 1 1134 -18 15 -163 13 -176 -3 -6 -7 -11 -218 -13 -551 -5 -609 -5 -616 -74 -686 -49 -50 -95 -63 -203 -56 -91 5 -113 16 -163 78 -53 66 -58 118 -58 691 0 389 -3 519 -12 524 -18 11 -161 16 -176 6z"/>
<path d="M12052 12562 c-10 -7 -13 -156 -13 -732 0 -397 2 -725 5 -727 7 -7 794 -5 806 2 11 7 14 115 4 152 l-6 23 -302 2 -301 3 0 240 0 240 225 5 c124 3 225 7 225 8 0 1 0 38 0 82 l0 81 -25 6 c-14 4 -115 7 -225 7 l-200 1 0 210 0 210 279 3 c186 1 284 6 293 13 16 14 18 131 3 160 l-11 19 -372 0 c-205 0 -378 -4 -385 -8z"/>
<path d="M12998 12563 c-16 -4 -18 -17 -18 -94 l0 -89 183 -2 182 -3 3 -634 c1 -434 6 -637 13 -641 16 -10 168 -5 179 6 6 6 11 258 12 639 l3 630 180 5 180 5 3 78 c2 50 -1 84 -9 93 -10 12 -85 14 -453 13 -242 -1 -449 -3 -458 -6z"/>
<path d="M14662 12558 c-18 -18 -17 -1441 1 -1455 10 -9 84 -10 170 -4 16 1 17 43 17 724 0 549 -3 726 -12 735 -7 7 -42 12 -88 12 -46 0 -81 -5 -88 -12z"/>
<path d="M15052 12560 c-22 -9 -23 -14 -20 -92 l3 -83 180 -5 180 -5 2 -634 c1 -348 5 -636 8 -639 11 -12 175 -9 185 3 6 7 11 241 12 641 l3 629 180 5 180 5 3 80 c2 66 0 82 -14 92 -14 10 -115 13 -448 12 -237 0 -441 -4 -454 -9z"/>
<path d="M16016 11318 c-8 -30 -8 -182 0 -202 3 -9 16 -16 28 -16 33 0 46 -18 35 -47 -5 -13 -16 -57 -24 -96 -9 -40 -18 -84 -22 -99 -4 -23 -1 -29 21 -39 22 -10 29 -9 46 6 11 10 20 22 20 27 0 5 25 71 55 148 l56 139 -3 98 -3 98 -101 3 -101 3 -7 -23z"/>
<path d="M4102 10540 c-94 -20 -209 -107 -252 -189 -38 -75 -53 -149 -48 -240 7 -112 33 -181 97 -247 65 -68 129 -103 286 -159 208 -74 268 -133 268 -265 0 -82 -20 -127 -80 -180 -36 -31 -55 -40 -99 -46 -155 -19 -260 53 -311 213 -10 30 -23 58 -30 60 -7 3 -35 -1 -61 -10 -26 -8 -60 -18 -75 -21 -44 -10 -52 -42 -27 -106 49 -123 112 -201 211 -257 133 -76 361 -76 474 0 154 103 224 287 184 479 -22 101 -85 191 -174 247 -52 33 -195 94 -306 132 -100 34 -169 121 -169 212 0 124 89 211 215 211 107 0 179 -59 219 -181 10 -29 21 -55 26 -58 8 -5 138 26 158 38 18 12 15 33 -20 121 -26 66 -44 92 -93 141 -85 85 -133 106 -253 111 -53 2 -116 -1 -140 -6z"/>
<path d="M7002 10539 c-66 -16 -153 -72 -213 -137 -68 -73 -122 -179 -156 -307 -24 -93 -26 -115 -26 -305 0 -190 2 -212 26 -305 78 -293 241 -446 477 -448 194 -1 334 91 429 280 102 205 123 565 47 838 -43 156 -154 297 -281 356 -59 28 -80 33 -164 35 -53 2 -115 -2 -139 -7z m222 -190 c87 -43 140 -125 177 -270 31 -121 31 -422 0 -554 -28 -120 -71 -204 -128 -254 -55 -49 -108 -65 -188 -57 -102 11 -175 78 -227 212 -36 92 -49 190 -49 364 1 170 13 266 47 361 69 193 218 273 368 198z"/>
<path d="M1825 10518 c-3 -7 -4 -337 -3 -733 l3 -720 98 -3 97 -3 0 23 c3 416 -1 1432 -5 1439 -9 14 -185 12 -190 -3z"/>
<path d="M2210 10511 c-14 -27 -13 -134 3 -154 10 -14 37 -17 182 -19 l170 -3 5 -635 5 -635 100 0 100 0 0 635 0 635 183 3 183 2 -3 93 -3 92 -457 3 -457 2 -11 -19z"/>
<path d="M3336 10514 c-10 -27 -7 -194 5 -215 7 -14 16 -18 30 -14 37 12 36 -32 -7 -192 -15 -55 -12 -78 13 -87 25 -10 60 20 73 61 7 21 30 83 52 138 35 86 41 113 45 190 2 50 1 100 -2 113 l-5 22 -99 0 c-81 0 -100 -3 -105 -16z"/>
<path d="M5431 10516 c-8 -10 -11 -201 -11 -721 1 -388 4 -713 7 -721 4 -11 26 -14 94 -14 l89 0 0 591 c-1 325 2 594 4 597 3 3 27 -39 52 -94 25 -54 80 -169 121 -254 42 -85 104 -213 138 -285 34 -71 88 -184 120 -250 32 -66 75 -158 97 -205 22 -46 45 -88 51 -92 21 -13 157 -9 158 5 5 106 -3 1443 -9 1449 -5 5 -44 8 -88 6 l-79 -3 -1 -492 c0 -271 -3 -496 -7 -499 -4 -4 -9 2 -13 12 -9 26 -31 75 -104 229 -34 72 -120 255 -191 408 -72 153 -139 293 -151 312 l-20 35 -123 0 c-92 0 -125 -3 -134 -14z"/>
<path d="M7712 10518 c-16 -16 -16 -139 1 -161 10 -14 37 -17 182 -19 l170 -3 5 -635 5 -635 95 0 95 0 5 635 5 635 180 5 180 5 7 67 c5 39 4 78 -2 93 l-10 25 -453 0 c-339 0 -456 -3 -465 -12z"/>
<path d="M9244 10517 c-3 -8 -4 -49 -2 -93 l3 -79 180 -5 180 -5 5 -635 5 -635 95 0 95 0 5 635 5 635 180 5 180 5 3 84 c2 61 -1 87 -10 92 -7 5 -217 9 -466 9 -369 0 -454 -2 -458 -13z"/>
<path d="M10375 10518 c-3 -7 -4 -337 -3 -733 l3 -720 99 0 99 0 1 340 1 340 265 0 265 0 2 -325 c1 -179 3 -333 3 -343 0 -16 10 -17 98 -15 l97 3 0 730 0 730 -93 3 c-75 2 -93 0 -98 -12 -3 -9 -7 -145 -7 -303 l-2 -288 -265 0 -265 0 -1 291 c0 160 -4 296 -8 302 -10 17 -185 16 -191 0z"/>
<path d="M11873 10522 c-12 -7 -29 -65 -83 -277 -68 -265 -81 -315 -105 -395 -29 -102 -80 -293 -130 -485 -20 -77 -45 -171 -56 -209 -11 -37 -18 -75 -15 -82 7 -19 169 -20 183 -1 13 17 36 94 63 207 30 128 48 186 65 200 9 7 73 10 206 8 l192 -3 14 -45 c7 -25 22 -85 32 -135 26 -120 52 -217 64 -232 6 -9 40 -13 104 -13 l95 0 -5 38 c-5 33 -82 337 -182 717 -21 77 -48 183 -60 235 -58 236 -117 455 -127 467 -12 14 -233 19 -255 5z m152 -312 c35 -154 96 -417 111 -474 8 -32 11 -63 7 -67 -12 -12 -307 -13 -311 -1 -2 6 13 75 33 154 21 78 52 206 70 283 54 226 60 233 90 105z"/>
<path d="M12467 10523 c-4 -3 -7 -46 -7 -94 l0 -89 181 -2 181 -3 1 -635 2 -635 100 0 100 0 2 635 1 635 179 5 178 5 8 70 c5 43 4 79 -2 93 l-11 22 -453 0 c-250 0 -457 -3 -460 -7z"/>
<path d="M17643 6843 c-24 -9 -13 -23 17 -23 20 0 30 5 30 15 0 15 -22 19 -47 8z"/>
<path d="M10100 6830 c-15 -4 16 -8 83 -9 65 0 107 3 107 9 0 12 -152 12 -190 0z"/>
<path d="M10865 6830 c-4 -6 10 -10 35 -10 25 0 39 4 35 10 -3 6 -19 10 -35 10 -16 0 -32 -4 -35 -10z"/>
<path d="M11415 6830 c-14 -6 -4 -9 38 -9 36 -1 56 3 52 9 -7 12 -62 12 -90 0z"/>
<path d="M13150 6830 c0 -5 13 -10 29 -10 17 0 33 5 36 10 4 6 -8 10 -29 10 -20 0 -36 -4 -36 -10z"/>
<path d="M13525 6830 c-4 -6 7 -10 24 -10 17 0 31 5 31 10 0 6 -11 10 -24 10 -14 0 -28 -4 -31 -10z"/>
<path d="M14080 6830 c0 -5 5 -10 10 -10 6 0 10 5 10 10 0 6 -4 10 -10 10 -5 0 -10 -4 -10 -10z"/>
<path d="M14120 6830 c0 -6 37 -10 90 -10 53 0 90 4 90 10 0 6 -37 10 -90 10 -53 0 -90 -4 -90 -10z"/>
<path d="M16045 6830 c-4 -6 27 -10 84 -10 54 0 91 4 91 10 0 6 -35 10 -84 10 -47 0 -88 -4 -91 -10z"/>
<path d="M16755 6830 c-4 -6 30 -10 94 -10 61 0 101 4 101 10 0 6 -38 10 -94 10 -53 0 -98 -4 -101 -10z"/>
<path d="M17252 6833 c-23 -9 -1 -23 38 -23 44 0 70 8 70 21 0 9 -86 11 -108 2z"/>
<path d="M10880 6770 c0 -5 14 -10 30 -10 17 0 30 5 30 10 0 6 -13 10 -30 10 -16 0 -30 -4 -30 -10z"/>
<path d="M11430 6770 c0 -5 16 -10 35 -10 19 0 35 5 35 10 0 6 -16 10 -35 10 -19 0 -35 -4 -35 -10z"/>
</g>
</g>
  <g id="id1:id1" transform="matrix(1.25,0,0,1.25,0.0,0.0)"><g transform="translate(0.000000,576.000000) scale(0.040000,-0.040000)" fill="#f9ad8a" stroke="none">
<path d="M17118 11687 c-37 -32 -98 -135 -98 -165 0 -8 -9 -45 -20 -81 -25 -86 -46 -228 -68 -459 -29 -320 -19 -1059 18 -1257 5 -27 14 -79 21 -115 32 -173 167 -339 277 -340 58 0 132 61 196 162 40 64 122 232 132 272 13 53 35 37 48 -35 9 -51 90 -147 151 -178 40 -21 63 -26 120 -26 207 2 387 200 463 512 27 111 45 238 38 268 -9 36 -72 95 -101 95 -43 0 -61 -41 -100 -225 -15 -73 -25 -110 -58 -230 -11 -40 -36 -92 -73 -152 -22 -35 -96 -96 -130 -107 -26 -8 -68 23 -91 67 -17 33 -54 223 -45 232 3 3 28 2 57 -1 88 -11 162 43 210 151 72 164 79 504 12 627 -25 46 -32 49 -137 59 -47 5 -108 11 -137 15 -48 6 -55 4 -93 -26 -92 -73 -135 -221 -146 -500 l-7 -165 -28 -25 c-31 -27 -66 -112 -100 -235 -48 -180 -127 -335 -170 -335 -27 0 -68 69 -79 131 -15 96 -6 266 19 349 24 79 30 101 56 215 8 39 22 93 30 120 87 316 147 585 182 819 9 64 5 245 -7 320 -6 38 -20 82 -31 97 -40 56 -214 179 -253 179 -12 -1 -38 -15 -58 -33z m132 -440 c0 -73 -5 -172 -10 -222 -5 -49 -14 -137 -19 -195 -6 -58 -13 -116 -15 -130 -3 -14 -15 -90 -26 -169 -21 -145 -33 -187 -51 -176 -14 9 -11 229 5 395 8 80 17 186 21 235 17 238 55 418 85 400 6 -4 10 -65 10 -138z m642 -787 c5 -19 11 -93 14 -165 5 -106 4 -137 -9 -167 -21 -49 -48 -50 -76 -2 -14 23 -21 52 -21 87 0 60 25 222 40 262 14 37 42 29 52 -15z"/>
<path d="M16101 10379 c-45 -62 -51 -112 -51 -438 0 -164 -3 -300 -6 -303 -3 -4 -21 4 -40 17 -42 28 -54 25 -77 -18 -26 -49 -67 -169 -67 -195 0 -31 -57 -228 -77 -266 l-16 -30 -18 22 c-42 52 -36 208 18 472 16 77 26 162 27 221 1 109 -4 121 -82 166 -38 23 -46 24 -73 13 -92 -39 -160 -208 -243 -608 -11 -57 -26 -103 -31 -103 -14 1 -17 105 -7 251 10 142 3 167 -51 200 -47 29 -70 25 -115 -21 -71 -74 -105 -167 -175 -479 -26 -118 -46 -103 -42 30 3 66 13 134 30 196 14 53 25 110 25 127 0 45 -33 93 -79 117 -58 29 -97 26 -131 -10 -48 -52 -61 -109 -62 -290 -1 -88 -5 -163 -8 -165 -4 -3 -21 1 -38 7 -26 10 -34 9 -51 -6 -24 -22 -69 -134 -105 -263 -29 -104 -85 -231 -109 -252 -34 -28 -66 15 -82 110 -11 62 -8 329 5 413 5 39 11 124 12 189 l3 119 -28 24 c-72 62 -197 -14 -241 -146 -39 -115 -29 -369 24 -585 34 -141 71 -217 138 -282 73 -72 156 -77 244 -17 40 28 97 106 98 133 0 7 11 35 24 61 13 27 34 88 46 137 36 145 60 150 60 13 0 -136 42 -217 132 -255 21 -8 48 -15 60 -15 66 1 139 125 163 277 11 69 31 65 55 -12 16 -50 53 -91 98 -106 69 -23 138 14 184 97 25 47 68 188 68 225 0 40 22 27 47 -28 52 -114 120 -173 202 -173 114 0 199 113 268 359 14 51 21 -50 27 -384 4 -209 9 -389 11 -400 3 -11 9 -65 15 -120 19 -196 58 -265 150 -265 57 0 86 10 118 39 31 30 28 55 -19 148 -22 45 -45 106 -50 135 -11 59 -25 599 -16 622 5 13 14 11 52 -11 118 -65 252 -4 328 149 72 145 110 406 88 600 -14 117 -48 244 -78 289 -56 82 -133 139 -188 139 -63 0 -138 -60 -170 -136 -25 -61 -35 -30 -35 111 0 73 -3 141 -6 150 -9 22 -57 45 -93 45 -25 0 -37 -8 -60 -41z m388 -383 c71 -76 78 -376 14 -601 -14 -47 -28 -71 -70 -112 -61 -63 -87 -67 -138 -22 l-35 31 0 82 c0 80 10 163 29 236 5 19 19 76 31 125 40 163 72 241 112 269 29 21 30 20 57 -8z"/>
<path d="M14265 10147 c-89 -35 -179 -150 -179 -226 1 -122 115 -191 232 -141 76 33 142 134 142 218 -1 49 -32 116 -64 137 -33 22 -93 28 -131 12z"/>
<path d="M13688 9770 c-77 -14 -99 -60 -85 -179 8 -72 6 -181 -11 -531 -4 -85 -4 -163 0 -172 13 -27 55 -33 94 -15 l33 16 19 -27 c10 -15 26 -40 34 -57 8 -16 22 -43 31 -60 66 -128 97 -199 89 -207 -5 -5 -27 -3 -53 7 -24 8 -71 18 -104 21 -50 4 -66 2 -93 -15 -44 -28 -58 -66 -39 -107 12 -24 28 -35 73 -51 33 -12 97 -38 144 -58 47 -20 108 -44 137 -52 48 -14 54 -14 89 3 54 26 94 105 94 183 0 56 -47 210 -90 291 -67 129 -138 298 -155 370 -8 30 -21 82 -31 115 -12 44 -17 96 -17 190 0 118 3 136 28 199 l28 70 -34 28 c-18 15 -49 30 -69 34 -19 3 -44 7 -55 8 -11 2 -37 0 -57 -4z"/>
<path d="M10850 7490 c0 -5 25 -10 55 -10 30 0 55 5 55 10 0 6 -25 10 -55 10 -30 0 -55 -4 -55 -10z"/>
<path d="M11400 7490 c0 -6 27 -10 60 -10 33 0 60 4 60 10 0 6 -27 10 -60 10 -33 0 -60 -4 -60 -10z"/>
<path d="M15077 7489 c8 -8 19 -8 40 -1 l28 10 -39 1 c-29 1 -37 -2 -29 -10z"/>
<path d="M16770 7490 c0 -5 5 -10 10 -10 6 0 10 5 10 10 0 6 -4 10 -10 10 -5 0 -10 -4 -10 -10z"/>
<path d="M8800 7464 c0 -8 5 -12 10 -9 6 3 10 10 10 16 0 5 -4 9 -10 9 -5 0 -10 -7 -10 -16z"/>
<path d="M11000 7474 c0 -11 72 -75 78 -69 3 2 -1 12 -8 20 -18 22 -70 58 -70 49z"/>
<path d="M11345 7470 c-3 -5 -1 -10 4 -10 6 0 11 5 11 10 0 6 -2 10 -4 10 -3 0 -8 -4 -11 -10z"/>
<path d="M13220 7470 c0 -5 5 -10 10 -10 6 0 10 5 10 10 0 6 -4 10 -10 10 -5 0 -10 -4 -10 -10z"/>
<path d="M13585 7470 c3 -5 15 -10 26 -10 11 0 17 5 14 10 -3 6 -15 10 -26 10 -11 0 -17 -4 -14 -10z"/>
<path d="M14418 7458 c-1 -13 -3 -140 -4 -283 -3 -273 2 -368 17 -344 13 20 12 649 -1 649 -5 0 -11 -10 -12 -22z"/>
<path d="M14690 7470 c0 -5 7 -10 15 -10 8 0 15 5 15 10 0 6 -7 10 -15 10 -8 0 -15 -4 -15 -10z"/>
<path d="M15160 7471 c0 -6 5 -13 10 -16 6 -3 10 -15 10 -26 0 -10 5 -19 10 -19 6 0 10 8 10 18 -1 28 -40 71 -40 43z"/>
<path d="M16205 7463 c5 -10 8 -25 9 -34 1 -22 26 -12 26 10 0 18 -18 41 -33 41 -5 0 -6 -8 -2 -17z"/>
<path d="M16661 7433 c-23 -25 -40 -48 -38 -50 4 -3 97 86 97 93 0 15 -24 -3 -59 -43z"/>
<path d="M16860 7470 c0 -5 5 -10 10 -10 6 0 10 5 10 10 0 6 -4 10 -10 10 -5 0 -10 -4 -10 -10z"/>
<path d="M17670 7470 c0 -5 5 -10 10 -10 6 0 10 5 10 10 0 6 -4 10 -10 10 -5 0 -10 -4 -10 -10z"/>
<path d="M17783 7173 l2 -308 38 -3 c21 -2 37 1 37 7 0 6 -8 11 -18 11 -40 0 -42 13 -42 312 0 172 -4 288 -9 288 -6 0 -9 -122 -8 -307z"/>
<path d="M9940 7178 c0 -161 4 -298 8 -305 4 -6 7 126 7 293 0 167 -3 304 -7 304 -5 0 -8 -132 -8 -292z"/>
<path d="M10300 7440 c0 -18 4 -29 10 -25 6 3 10 15 10 25 0 10 -4 22 -10 25 -6 4 -10 -7 -10 -25z"/>
<path d="M12400 7454 c0 -8 5 -12 10 -9 6 3 10 10 10 16 0 5 -4 9 -10 9 -5 0 -10 -7 -10 -16z"/>
<path d="M12758 7444 c3 -17 8 -22 15 -15 11 11 3 41 -11 41 -5 0 -7 -12 -4 -26z"/>
<path d="M13920 7138 c0 -192 4 -339 10 -348 14 -22 366 -22 380 0 13 20 2 32 -20 20 -25 -13 -337 -13 -345 0 -4 6 -6 157 -5 335 0 219 -3 325 -10 325 -7 0 -10 -109 -10 -332z"/>
<path d="M14280 7445 c0 -14 5 -25 10 -25 6 0 10 11 10 25 0 14 -4 25 -10 25 -5 0 -10 -11 -10 -25z"/>
<path d="M15040 7460 c0 -5 5 -10 10 -10 6 0 10 5 10 10 0 6 -4 10 -10 10 -5 0 -10 -4 -10 -10z"/>
<path d="M15750 7455 c10 -13 10 -19 -5 -35 -14 -16 -31 -20 -79 -20 -34 0 -67 -4 -73 -8 -10 -6 -13 -81 -15 -297 l-3 -290 -37 -3 c-21 -2 -38 -7 -38 -13 0 -14 76 -11 89 4 7 9 12 109 13 298 l3 284 60 3 c48 3 65 8 87 29 22 21 25 28 15 44 -7 11 -16 19 -21 19 -4 0 -3 -7 4 -15z"/>
<path d="M18340 7434 c0 -21 4 -33 10 -29 6 3 10 19 10 36 0 16 -4 29 -10 29 -5 0 -10 -16 -10 -36z"/>
<path d="M18700 7363 c0 -60 5 -115 10 -123 7 -10 10 25 10 108 0 75 -4 122 -10 122 -6 0 -10 -42 -10 -107z"/>
<path d="M9420 7430 c0 -16 5 -30 10 -30 6 0 10 14 10 30 0 17 -4 30 -10 30 -5 0 -10 -13 -10 -30z"/>
<path d="M11940 7445 c0 -8 5 -15 10 -15 6 0 10 7 10 15 0 8 -4 15 -10 15 -5 0 -10 -7 -10 -15z"/>
<path d="M12140 7345 c0 -70 4 -115 10 -115 6 0 10 45 10 115 0 70 -4 115 -10 115 -6 0 -10 -45 -10 -115z"/>
<path d="M8795 7428 c11 -29 52 -48 103 -48 40 0 53 -4 65 -22 l16 -23 0 21 c1 33 -19 44 -83 44 -48 0 -64 4 -83 22 -18 16 -22 18 -18 6z"/>
<path d="M11800 7130 c0 -200 4 -310 10 -310 6 0 10 110 10 310 0 200 -4 310 -10 310 -6 0 -10 -110 -10 -310z"/>
<path d="M17600 7415 c0 -14 5 -25 10 -25 6 0 10 11 10 25 0 14 -4 25 -10 25 -5 0 -10 -11 -10 -25z"/>
<path d="M17960 7430 c0 -5 5 -10 10 -10 6 0 10 5 10 10 0 6 -4 10 -10 10 -5 0 -10 -4 -10 -10z"/>
<path d="M12401 7234 c1 -123 4 -186 9 -165 9 38 6 349 -4 358 -3 4 -6 -83 -5 -193z"/>
<path d="M12868 7410 c-10 -31 -10 -434 -1 -520 13 -126 18 -28 13 255 -3 160 -8 279 -12 265z"/>
<path d="M15027 7424 c-4 -4 -7 -14 -7 -23 0 -11 3 -12 11 -4 6 6 10 16 7 23 -2 6 -7 8 -11 4z"/>
<path d="M10860 7410 c0 -5 20 -10 44 -10 25 0 48 -4 51 -10 3 -5 11 -10 17 -10 6 0 3 9 -7 20 -13 14 -31 20 -62 20 -23 0 -43 -4 -43 -10z"/>
<path d="M11380 7381 c-25 -22 -42 -42 -39 -45 3 -4 23 10 43 29 54 50 97 49 154 -5 23 -23 42 -50 42 -60 0 -11 5 -20 10 -20 6 0 10 6 10 14 0 8 -4 18 -10 21 -5 3 -10 15 -10 25 0 27 -81 80 -122 80 -24 -1 -46 -11 -78 -39z"/>
<path d="M13210 7410 c-8 -6 -62 -10 -120 -10 -102 0 -130 -7 -130 -34 0 -6 5 -5 12 2 8 8 50 12 124 12 88 0 114 3 124 15 16 19 10 27 -10 15z"/>
<path d="M15330 7412 c0 -21 29 -32 82 -32 54 0 59 -2 69 -27 7 -16 13 -124 15 -252 2 -123 7 -227 10 -230 3 -3 4 107 2 245 -2 194 -6 255 -17 267 -9 12 -29 17 -68 17 -30 0 -63 5 -74 10 -10 6 -19 7 -19 2z"/>
<path d="M16770 7410 c0 -5 11 -10 25 -10 14 0 25 5 25 10 0 6 -11 10 -25 10 -14 0 -25 -4 -25 -10z"/>
<path d="M17243 7393 c-41 -38 -60 -87 -66 -163 l-5 -65 13 35 c8 19 14 49 14 67 1 17 6 35 11 38 6 3 10 14 10 24 0 24 51 71 77 71 27 0 83 -66 83 -97 0 -12 5 -25 10 -28 6 -4 10 -62 10 -140 0 -78 -4 -136 -10 -140 -5 -3 -10 -14 -10 -24 0 -21 -27 -78 -41 -87 -17 -10 -79 -7 -94 6 -20 17 -45 69 -45 94 0 12 -7 44 -14 71 l-15 50 6 -75 c10 -127 62 -192 141 -173 32 8 40 17 69 73 l33 65 0 133 c0 81 -4 141 -12 155 -23 46 -28 57 -28 70 0 22 -55 67 -82 67 -14 0 -39 -12 -55 -27z"/>
<path d="M9145 7401 l-80 -6 -5 -295 -5 -295 -37 -3 c-50 -4 -49 -22 0 -22 30 0 41 5 50 23 8 15 13 110 15 297 l2 275 67 3 c47 2 68 7 72 17 3 8 4 14 3 13 -1 -1 -38 -4 -82 -7z"/>
<path d="M16013 7402 c-45 -2 -63 -7 -67 -19 -8 -21 1 -30 16 -15 8 8 51 12 125 12 62 0 113 4 113 9 0 11 -97 17 -187 13z"/>
<path d="M10032 7388 c-8 -8 -12 -46 -12 -105 0 -75 3 -95 15 -100 22 -8 30 4 16 21 -8 9 -11 43 -9 93 l3 78 110 3 c154 4 161 22 9 22 -80 0 -124 -4 -132 -12z"/>
<path d="M12500 7384 c0 -9 5 -14 12 -12 18 6 21 28 4 28 -9 0 -16 -7 -16 -16z"/>
<path d="M12560 7390 c0 -6 35 -10 85 -10 50 0 85 4 85 10 0 6 -35 10 -85 10 -50 0 -85 -4 -85 -10z"/>
<path d="M13452 7367 c-13 -36 -16 -432 -3 -477 6 -22 13 -25 61 -28 69 -4 91 2 129 33 44 38 79 115 51 115 -5 0 -10 -7 -10 -17 0 -26 -50 -84 -86 -99 -41 -17 -96 -18 -112 -2 -17 17 -17 459 0 476 27 27 120 3 168 -43 17 -16 30 -35 30 -42 0 -7 5 -13 10 -13 14 0 11 21 -8 53 -15 25 -34 39 -94 69 -10 4 -42 8 -71 8 l-53 0 -12 -33z"/>
<path d="M14020 7390 c0 -6 48 -10 125 -10 77 0 125 4 125 10 0 6 -48 10 -125 10 -77 0 -125 -4 -125 -10z"/>
<path d="M14517 7382 c-14 -15 -16 -36 -14 -108 2 -84 3 -89 25 -92 23 -4 30 12 11 24 -7 4 -9 24 -6 53 3 25 1 54 -5 64 -18 34 16 57 82 57 51 0 62 -4 90 -30 33 -31 53 -32 34 -2 -21 33 -67 51 -135 51 -52 1 -69 -3 -82 -17z"/>
<path d="M16940 7390 c0 -5 5 -10 10 -10 6 0 10 5 10 10 0 6 -4 10 -10 10 -5 0 -10 -4 -10 -10z"/>
<path d="M18020 7390 c0 -6 33 -10 80 -10 47 0 80 4 80 10 0 6 -33 10 -80 10 -47 0 -80 -4 -80 -10z"/>
<path d="M18220 7391 c0 -5 6 -14 14 -20 16 -13 32 2 21 19 -8 12 -35 13 -35 1z"/>
<path d="M17120 7364 c0 -8 5 -12 10 -9 6 3 10 10 10 16 0 5 -4 9 -10 9 -5 0 -10 -7 -10 -16z"/>
<path d="M17640 7371 c0 -5 16 -11 35 -13 24 -3 35 0 35 9 0 8 -13 13 -35 13 -19 0 -35 -4 -35 -9z"/>
<path d="M18325 7370 c-3 -5 -1 -10 4 -10 6 0 11 5 11 10 0 6 -2 10 -4 10 -3 0 -8 -4 -11 -10z"/>
<path d="M10700 7360 c0 -5 5 -10 11 -10 5 0 7 5 4 10 -3 6 -8 10 -11 10 -2 0 -4 -4 -4 -10z"/>
<path d="M16600 7349 c0 -5 5 -7 10 -4 6 3 10 8 10 11 0 2 -4 4 -10 4 -5 0 -10 -5 -10 -11z"/>
<path d="M16962 7289 c0 -40 -5 -76 -12 -85 -7 -8 -10 -17 -6 -21 3 -4 13 2 21 13 16 21 21 149 6 158 -4 3 -8 -26 -9 -65z"/>
<path d="M17460 7351 c0 -5 5 -13 10 -16 6 -3 10 -2 10 4 0 5 -4 13 -10 16 -5 3 -10 2 -10 -4z"/>
<path d="M15000 7329 c0 -11 5 -17 10 -14 6 3 10 13 10 21 0 8 -4 14 -10 14 -5 0 -10 -9 -10 -21z"/>
<path d="M11100 7300 c0 -22 5 -40 10 -40 6 0 10 18 10 40 0 22 -4 40 -10 40 -5 0 -10 -18 -10 -40z"/>
<path d="M11240 7330 c0 -5 5 -10 10 -10 6 0 10 5 10 10 0 6 -4 10 -10 10 -5 0 -10 -4 -10 -10z"/>
<path d="M11660 7331 c0 -6 5 -13 10 -16 6 -3 10 1 10 9 0 9 -4 16 -10 16 -5 0 -10 -4 -10 -9z"/>
<path d="M11000 7327 c0 -13 33 -67 41 -67 10 0 -23 69 -33 70 -5 0 -8 -2 -8 -3z"/>
<path d="M15940 7300 c0 -16 5 -30 10 -30 6 0 10 14 10 30 0 17 -4 30 -10 30 -5 0 -10 -13 -10 -30z"/>
<path d="M17100 7315 c0 -8 5 -15 10 -15 6 0 10 7 10 15 0 8 -4 15 -10 15 -5 0 -10 -7 -10 -15z"/>
<path d="M17700 7126 c0 -131 4 -206 10 -206 6 0 10 73 10 199 0 123 -4 202 -10 206 -7 4 -10 -65 -10 -199z"/>
<path d="M10680 7299 c0 -11 5 -17 10 -14 6 3 10 13 10 21 0 8 -4 14 -10 14 -5 0 -10 -9 -10 -21z"/>
<path d="M10780 7310 c0 -5 5 -10 10 -10 6 0 10 5 10 10 0 6 -4 10 -10 10 -5 0 -10 -4 -10 -10z"/>
<path d="M14820 7285 c0 -19 5 -35 10 -35 6 0 10 16 10 35 0 19 -4 35 -10 35 -5 0 -10 -16 -10 -35z"/>
<path d="M15092 7300 c-6 -11 -12 -31 -12 -44 0 -14 -4 -28 -10 -31 -5 -3 -10 -19 -10 -36 0 -16 5 -29 10 -29 6 0 10 13 10 29 0 34 25 60 42 43 12 -12 30 -111 22 -124 -10 -17 -63 -8 -74 12 -15 27 -30 25 -30 -4 0 -28 16 -36 73 -36 75 0 77 8 44 130 -8 30 -17 67 -21 83 -8 32 -26 35 -44 7z"/>
<path d="M16875 7300 c-7 -21 0 -40 16 -40 5 0 9 14 9 30 0 34 -15 40 -25 10z"/>
<path d="M18300 7310 c0 -5 5 -10 10 -10 6 0 10 5 10 10 0 6 -4 10 -10 10 -5 0 -10 -4 -10 -10z"/>
<path d="M11315 7278 c-13 -58 -17 -260 -6 -271 6 -6 11 -19 11 -29 0 -10 5 -18 11 -18 8 0 9 11 4 33 -5 17 -8 82 -8 142 0 61 3 125 8 143 4 20 3 32 -3 32 -5 0 -13 -15 -17 -32z"/>
<path d="M12502 7290 c0 -14 2 -19 5 -12 2 6 2 18 0 25 -3 6 -5 1 -5 -13z"/>
<path d="M11680 7281 c0 -12 5 -21 10 -21 6 0 10 6 10 14 0 8 -4 18 -10 21 -5 3 -10 -3 -10 -14z"/>
<path d="M16590 7291 c0 -6 4 -13 10 -16 6 -3 7 1 4 9 -7 18 -14 21 -14 7z"/>
<path d="M17480 7129 c0 -111 3 -168 10 -164 6 4 10 72 10 171 0 103 -4 164 -10 164 -6 0 -10 -64 -10 -171z"/>
<path d="M11216 7248 c-13 -89 -2 -268 16 -268 7 0 8 22 3 63 -9 82 -9 142 0 200 5 30 4 47 -3 47 -5 0 -13 -19 -16 -42z"/>
<path d="M11900 7255 c0 -39 1 -40 33 -22 12 6 23 13 25 14 10 4 -26 43 -40 43 -14 0 -18 -8 -18 -35z"/>
<path d="M13363 7245 c0 -27 2 -38 4 -22 2 15 2 37 0 50 -2 12 -4 0 -4 -28z"/>
<path d="M18192 7248 c-7 -18 -18 -41 -23 -50 -12 -23 -12 -61 1 -53 6 3 10 15 10 26 0 10 5 28 10 39 6 11 15 29 20 40 12 24 12 30 2 30 -4 0 -13 -15 -20 -32z"/>
<path d="M10760 7255 c0 -8 5 -15 10 -15 6 0 10 7 10 15 0 8 -4 15 -10 15 -5 0 -10 -7 -10 -15z"/>
<path d="M13787 7263 c-10 -9 -7 -64 3 -88 6 -14 9 -4 9 38 1 58 0 62 -12 50z"/>
<path d="M15220 7250 c0 -11 5 -20 10 -20 6 0 10 9 10 20 0 11 -4 20 -10 20 -5 0 -10 -9 -10 -20z"/>
<path d="M18280 7255 c0 -8 5 -15 10 -15 6 0 10 7 10 15 0 8 -4 15 -10 15 -5 0 -10 -7 -10 -15z"/>
<path d="M14712 7231 c-12 -17 -29 -31 -37 -31 -8 0 -15 -4 -15 -10 0 -19 29 -10 55 16 14 14 25 33 23 41 -2 10 -10 5 -26 -16z"/>
<path d="M10671 7240 c-1 -8 -4 -26 -7 -40 -5 -19 -4 -22 5 -14 7 6 11 24 8 40 -2 16 -5 22 -6 14z"/>
<path d="M11596 7227 c-3 -12 -6 -51 -6 -87 0 -73 8 -112 21 -104 5 3 9 50 9 104 0 95 -11 135 -24 87z"/>
<path d="M14980 7240 c0 -5 5 -10 10 -10 6 0 10 5 10 10 0 6 -4 10 -10 10 -5 0 -10 -4 -10 -10z"/>
<path d="M16860 7230 c0 -5 5 -10 10 -10 6 0 10 5 10 10 0 6 -4 10 -10 10 -5 0 -10 -4 -10 -10z"/>
<path d="M15944 7219 c-9 -15 23 -46 34 -34 5 6 1 17 -9 27 -12 11 -21 14 -25 7z"/>
<path d="M9420 7205 c0 -18 24 -30 40 -20 8 5 5 11 -7 21 -24 18 -33 17 -33 -1z"/>
<path d="M9656 7204 c-17 -12 -17 -14 -4 -14 9 0 20 5 23 11 11 17 2 18 -19 3z"/>
<path d="M12960 7210 c0 -5 5 -10 10 -10 6 0 10 5 10 10 0 6 -4 10 -10 10 -5 0 -10 -4 -10 -10z"/>
<path d="M14018 7204 c9 -18 21 -21 74 -22 35 -1 72 1 83 5 l20 6 -20 7 c-11 4 -46 5 -77 2 -41 -3 -63 -1 -74 9 -16 13 -16 12 -6 -7z"/>
<path d="M10118 7203 c-36 -10 -16 -22 40 -25 l57 -3 3 -33 c2 -18 8 -30 13 -27 15 10 10 51 -8 68 -20 17 -78 28 -105 20z"/>
<path d="M12502 7198 c3 -7 13 -15 24 -17 16 -3 17 -1 5 13 -16 19 -34 21 -29 4z"/>
<path d="M12573 7203 c-46 -9 -21 -23 42 -23 37 0 65 4 65 10 0 6 -6 10 -14 10 -7 0 -26 2 -42 4 -16 2 -39 2 -51 -1z"/>
<path d="M13047 7203 c-48 -7 -18 -23 44 -23 59 0 79 12 37 24 -24 6 -34 6 -81 -1z"/>
<path d="M16032 7203 c-40 -8 -12 -23 44 -23 60 0 77 -16 56 -51 -17 -27 -15 -31 8 -17 25 16 26 50 1 72 -20 18 -71 27 -109 19z"/>
<path d="M9515 7190 c3 -5 26 -10 50 -10 24 0 47 5 50 10 4 6 -15 10 -50 10 -35 0 -54 -4 -50 -10z"/>
<path d="M12060 7190 c0 -5 5 -10 10 -10 6 0 10 5 10 10 0 6 -4 10 -10 10 -5 0 -10 -4 -10 -10z"/>
<path d="M13700 7135 c0 -49 3 -65 10 -55 5 8 10 33 10 55 0 22 -5 47 -10 55 -7 10 -10 -6 -10 -55z"/>
<path d="M14792 7180 c-7 -11 -9 -20 -4 -20 4 0 13 9 20 20 7 11 9 20 4 20 -4 0 -13 -9 -20 -20z"/>
<path d="M16840 7189 c0 -5 5 -7 10 -4 6 3 10 8 10 11 0 2 -4 4 -10 4 -5 0 -10 -5 -10 -11z"/>
<path d="M17080 7175 c0 -14 5 -25 10 -25 6 0 10 11 10 25 0 14 -4 25 -10 25 -5 0 -10 -11 -10 -25z"/>
<path d="M18260 7190 c0 -5 5 -10 10 -10 6 0 10 5 10 10 0 6 -4 10 -10 10 -5 0 -10 -4 -10 -10z"/>
<path d="M13362 7170 c0 -14 2 -19 5 -12 2 6 2 18 0 25 -3 6 -5 1 -5 -13z"/>
<path d="M11900 7010 c0 -107 4 -170 10 -170 6 0 10 63 10 170 0 107 -4 170 -10 170 -6 0 -10 -63 -10 -170z"/>
<path d="M14212 7155 c6 -14 13 -23 16 -21 7 7 -9 46 -18 46 -5 0 -4 -11 2 -25z"/>
<path d="M14960 7162 c0 -10 -5 -23 -11 -29 -6 -6 -9 -17 -7 -24 3 -8 12 1 21 20 20 39 21 51 7 51 -5 0 -10 -8 -10 -18z"/>
<path d="M13153 7133 c-7 -15 -10 -29 -7 -32 7 -8 34 29 34 46 0 22 -14 15 -27 -14z"/>
<path d="M10761 7115 c0 -35 1 -37 10 -17 6 15 5 30 -1 40 -7 13 -9 8 -9 -23z"/>
<path d="M11700 7135 c0 -8 5 -15 10 -15 6 0 10 7 10 15 0 8 -4 15 -10 15 -5 0 -10 -7 -10 -15z"/>
<path d="M18240 7135 c0 -8 5 -15 10 -15 6 0 10 7 10 15 0 8 -4 15 -10 15 -5 0 -10 -7 -10 -15z"/>
<path d="M13361 7090 c0 -35 3 -50 8 -40 5 8 5 33 1 55 l-8 40 -1 -55z"/>
<path d="M16890 7116 c-14 -12 -36 -35 -50 -51 l-25 -29 30 21 c35 25 80 71 74 77 -2 2 -15 -6 -29 -18z"/>
<path d="M12000 7115 c0 -8 5 -15 10 -15 6 0 10 7 10 15 0 8 -4 15 -10 15 -5 0 -10 -7 -10 -15z"/>
<path d="M14733 7123 c-15 -5 -18 -63 -4 -63 5 0 11 16 13 35 2 19 4 35 3 34 0 0 -6 -3 -12 -6z"/>
<path d="M18140 7109 c0 -5 5 -7 10 -4 6 3 10 8 10 11 0 2 -4 4 -10 4 -5 0 -10 -5 -10 -11z"/>
<path d="M12129 7103 c-11 -3 -15 -11 -12 -24 3 -10 8 -19 12 -19 12 0 31 23 31 37 0 13 -3 14 -31 6z"/>
<path d="M12506 7101 c-4 -7 -5 -15 -2 -18 9 -9 19 4 14 18 -4 11 -6 11 -12 0z"/>
<path d="M13786 7079 c-9 -46 -7 -79 4 -79 6 0 10 25 10 55 0 62 -5 70 -14 24z"/>
<path d="M17080 7081 c0 -17 5 -31 10 -31 6 0 10 11 10 24 0 14 -4 28 -10 31 -6 4 -10 -7 -10 -24z"/>
<path d="M9420 7085 c0 -8 5 -15 10 -15 6 0 10 7 10 15 0 8 -4 15 -10 15 -5 0 -10 -7 -10 -15z"/>
<path d="M9660 7090 c0 -5 5 -10 10 -10 6 0 10 5 10 10 0 6 -4 10 -10 10 -5 0 -10 -4 -10 -10z"/>
<path d="M10020 6980 l0 -120 134 0 c74 0 143 -3 153 -7 16 -6 16 -5 5 10 -12 13 -37 17 -140 19 l-127 3 0 108 c0 79 -3 107 -12 107 -10 0 -13 -31 -13 -120z"/>
<path d="M12965 7091 c-3 -5 -1 -12 5 -16 5 -3 10 1 10 9 0 18 -6 21 -15 7z"/>
<path d="M14585 7090 c-3 -5 3 -10 15 -10 12 0 18 5 15 10 -3 6 -10 10 -15 10 -5 0 -12 -4 -15 -10z"/>
<path d="M15940 7080 c0 -11 5 -20 10 -20 6 0 10 9 10 20 0 11 -4 20 -10 20 -5 0 -10 -9 -10 -20z"/>
<path d="M18225 7090 c-3 -5 -1 -10 4 -10 6 0 11 5 11 10 0 6 -2 10 -4 10 -3 0 -8 -4 -11 -10z"/>
<path d="M14509 7063 c-15 -40 -7 -215 10 -221 12 -4 13 13 8 99 -5 96 -4 106 15 127 l21 22 -22 0 c-14 0 -25 -9 -32 -27z"/>
<path d="M18111 7036 c-7 -13 -11 -32 -9 -42 l5 -19 7 20 c4 11 12 28 17 37 11 22 11 28 1 28 -5 0 -14 -11 -21 -24z"/>
<path d="M14640 7030 c0 -5 5 -10 10 -10 6 0 10 5 10 10 0 6 -4 10 -10 10 -5 0 -10 -4 -10 -10z"/>
<path d="M12401 6941 c0 -57 3 -91 8 -85 5 5 6 45 1 94 l-7 85 -2 -94z"/>
<path d="M15947 7023 c-11 -10 -8 -63 3 -63 6 0 10 16 10 35 0 36 -2 40 -13 28z"/>
<path d="M9420 7005 c0 -8 5 -15 10 -15 6 0 10 7 10 15 0 8 -4 15 -10 15 -5 0 -10 -7 -10 -15z"/>
<path d="M14740 7005 c0 -8 5 -15 10 -15 6 0 10 7 10 15 0 8 -4 15 -10 15 -5 0 -10 -7 -10 -15z"/>
<path d="M16670 7005 c-7 -9 -10 -18 -7 -21 3 -3 10 4 17 15 13 25 8 27 -10 6z"/>
<path d="M18200 7010 c0 -5 5 -10 10 -10 6 0 10 5 10 10 0 6 -4 10 -10 10 -5 0 -10 -4 -10 -10z"/>
<path d="M18705 7010 c-9 -14 -3 -180 7 -180 4 0 8 43 8 95 0 92 -2 106 -15 85z"/>
<path d="M11588 7004 c-5 -4 -8 -18 -8 -30 0 -13 -17 -41 -40 -65 l-39 -42 -48 6 c-36 4 -54 12 -75 36 -30 34 -38 38 -38 18 0 -7 12 -25 28 -39 51 -48 91 -59 135 -36 12 6 28 14 36 17 21 10 62 91 59 118 -2 14 -6 21 -10 17z"/>
<path d="M11680 6989 c0 -11 5 -17 10 -14 6 3 10 13 10 21 0 8 -4 14 -10 14 -5 0 -10 -9 -10 -21z"/>
<path d="M12501 6919 c0 -50 3 -89 6 -86 11 11 14 165 4 171 -7 4 -10 -26 -10 -85z"/>
<path d="M14920 6994 c0 -8 5 -12 10 -9 6 3 10 10 10 16 0 5 -4 9 -10 9 -5 0 -10 -7 -10 -16z"/>
<path d="M10678 6961 c2 -23 8 -41 13 -41 13 0 11 44 -4 64 -11 15 -12 12 -9 -23z"/>
<path d="M15020 6990 c0 -5 6 -10 14 -10 8 0 18 5 21 10 3 6 -3 10 -14 10 -12 0 -21 -4 -21 -10z"/>
<path d="M16755 6980 c-10 -11 -14 -20 -9 -20 5 0 15 9 22 20 7 11 11 20 9 20 -2 0 -12 -9 -22 -20z"/>
<path d="M18180 6970 c0 -5 5 -10 10 -10 6 0 10 5 10 10 0 6 -4 10 -10 10 -5 0 -10 -4 -10 -10z"/>
<path d="M15200 6946 c0 -14 5 -28 10 -31 6 -4 10 7 10 24 0 17 -4 31 -10 31 -5 0 -10 -11 -10 -24z"/>
<path d="M11665 6950 c-3 -5 -1 -10 4 -10 6 0 11 5 11 10 0 6 -2 10 -4 10 -3 0 -8 -4 -11 -10z"/>
<path d="M14900 6940 c0 -11 5 -20 10 -20 6 0 10 9 10 20 0 11 -4 20 -10 20 -5 0 -10 -9 -10 -20z"/>
<path d="M18080 6941 c0 -11 -4 -22 -9 -25 -5 -3 -11 -19 -13 -36 -4 -24 -2 -27 9 -19 7 7 13 22 13 35 0 12 5 26 10 29 6 3 10 13 10 21 0 8 -4 14 -10 14 -5 0 -10 -9 -10 -19z"/>
<path d="M11240 6935 c0 -8 5 -15 10 -15 6 0 10 7 10 15 0 8 -4 15 -10 15 -5 0 -10 -7 -10 -15z"/>
<path d="M15300 6935 c0 -8 5 -15 10 -15 6 0 10 7 10 15 0 8 -4 15 -10 15 -5 0 -10 -7 -10 -15z"/>
<path d="M17100 6942 c0 -15 25 -62 33 -62 10 0 9 18 -3 25 -5 3 -10 15 -10 26 0 10 -4 19 -10 19 -5 0 -10 -4 -10 -8z"/>
<path d="M11000 6930 c0 -5 5 -10 10 -10 6 0 10 5 10 10 0 6 -4 10 -10 10 -5 0 -10 -4 -10 -10z"/>
<path d="M11093 6905 c-6 -14 -8 -25 -4 -25 12 0 31 23 31 37 0 21 -14 15 -27 -12z"/>
<path d="M14680 6916 c0 -8 5 -18 10 -21 6 -3 10 3 10 14 0 12 -4 21 -10 21 -5 0 -10 -6 -10 -14z"/>
<path d="M17460 6915 c0 -8 5 -15 10 -15 6 0 10 7 10 15 0 8 -4 15 -10 15 -5 0 -10 -7 -10 -15z"/>
<path d="M18160 6915 c0 -8 5 -15 10 -15 6 0 10 7 10 15 0 8 -4 15 -10 15 -5 0 -10 -7 -10 -15z"/>
<path d="M14780 6900 c0 -11 5 -20 10 -20 6 0 10 9 10 20 0 11 -4 20 -10 20 -5 0 -10 -9 -10 -20z"/>
<path d="M14987 6913 c-11 -10 -8 -43 3 -43 6 0 10 11 10 25 0 26 -2 29 -13 18z"/>
<path d="M16696 6894 c-3 -9 -6 -20 -6 -24 0 -5 62 -10 139 -12 108 -2 137 0 134 10 -4 8 -37 12 -119 12 -93 0 -116 3 -120 15 -8 19 -20 19 -28 -1z"/>
<path d="M9680 6879 c0 -11 4 -18 10 -14 5 3 7 12 3 20 -7 21 -13 19 -13 -6z"/>
<path d="M10712 6880 c7 -11 16 -20 20 -20 5 0 3 9 -4 20 -7 11 -16 20 -20 20 -5 0 -3 -9 4 -20z"/>
<path d="M11260 6890 c0 -5 5 -10 10 -10 6 0 10 5 10 10 0 6 -4 10 -10 10 -5 0 -10 -4 -10 -10z"/>
<path d="M12962 6885 c3 -19 12 -20 132 -23 76 -1 135 -7 143 -14 18 -15 29 -2 13 17 -10 12 -38 15 -139 15 -88 0 -131 4 -140 13 -10 10 -12 8 -9 -8z"/>
<path d="M13360 6881 c0 -12 5 -21 10 -21 6 0 10 6 10 14 0 8 -4 18 -10 21 -5 3 -10 -3 -10 -14z"/>
<path d="M15942 6883 c3 -16 20 -19 150 -23 116 -4 144 -2 136 8 -7 8 -47 12 -134 12 -71 0 -125 4 -129 10 -10 17 -27 11 -23 -7z"/>
<path d="M16593 6873 c-17 -35 -16 -53 3 -78 13 -18 29 -20 157 -23 161 -4 220 5 225 32 3 15 0 17 -14 10 -11 -5 -95 -9 -189 -9 l-170 0 -3 29 c-2 16 1 33 7 39 13 13 14 27 4 27 -5 0 -14 -12 -20 -27z"/>
<path d="M17695 6890 c-3 -5 -17 -10 -29 -10 -13 0 -30 -8 -37 -17 -12 -15 -12 -16 4 -10 10 4 34 7 53 7 27 0 34 4 34 20 0 21 -15 27 -25 10z"/>
<path d="M14880 6870 c0 -11 5 -20 10 -20 6 0 10 9 10 20 0 11 -4 20 -10 20 -5 0 -10 -9 -10 -20z"/>
<path d="M15220 6876 c0 -8 5 -18 10 -21 6 -3 10 1 10 9 0 8 -4 18 -10 21 -5 3 -10 -1 -10 -9z"/>
<path d="M10840 6872 c0 -14 60 -34 78 -26 13 6 11 9 -13 12 -16 2 -34 8 -39 13 -12 11 -26 12 -26 1z"/>
<path d="M10955 6870 c-3 -5 -2 -10 4 -10 5 0 13 5 16 10 3 6 2 10 -4 10 -5 0 -13 -4 -16 -10z"/>
<path d="M14020 6871 c0 -6 60 -11 139 -13 111 -2 137 0 129 10 -13 15 -268 18 -268 3z"/>
<path d="M18140 6871 c0 -6 5 -13 10 -16 6 -3 10 1 10 9 0 9 -4 16 -10 16 -5 0 -10 -4 -10 -9z"/>
<path d="M13713 6863 c-15 -5 -17 -23 -4 -23 5 0 11 7 15 15 3 8 4 15 3 14 -1 0 -8 -3 -14 -6z"/>
<path d="M12120 6850 c0 -5 5 -10 10 -10 6 0 10 5 10 10 0 6 -4 10 -10 10 -5 0 -10 -4 -10 -10z"/>
<path d="M13241 6817 c-12 -15 -38 -17 -194 -17 -145 0 -179 -3 -169 -12 10 -10 61 -13 187 -13 179 0 200 4 193 40 -3 17 -4 17 -17 2z"/>
<path d="M10307 6813 c-6 -10 -55 -13 -190 -13 -145 0 -178 -2 -168 -12 9 -10 60 -13 186 -13 95 0 176 3 180 7 4 3 5 15 3 25 -2 13 -6 15 -11 6z"/>
<path d="M13635 6810 c-3 -5 -1 -10 4 -10 6 0 11 5 11 10 0 6 -2 10 -4 10 -3 0 -8 -4 -11 -10z"/>
<path d="M14495 6810 c-3 -5 -20 -10 -38 -10 -22 0 -28 -3 -20 -11 17 -17 77 -7 81 14 4 18 -13 24 -23 7z"/>
<path d="M15240 6811 c0 -17 32 -42 47 -37 8 3 23 6 34 6 10 0 19 5 19 10 0 6 -15 10 -34 10 -19 0 -38 5 -41 10 -8 13 -25 13 -25 1z"/>
<path d="M17863 6809 c-7 -7 -52 -10 -127 -7 -116 3 -140 -3 -88 -23 39 -16 221 -6 233 12 17 27 4 40 -18 18z"/>
<path d="M11868 6803 c-21 -2 -38 -9 -38 -14 0 -15 83 -6 88 9 2 6 0 11 -5 10 -4 -1 -25 -3 -45 -5z"/>
<path d="M13364 6801 c-11 -12 0 -19 40 -24 54 -8 206 3 206 14 0 8 -238 18 -246 10z"/>
<path d="M14737 6793 c6 -14 30 -20 61 -15 37 7 25 20 -22 23 -31 3 -42 0 -39 -8z"/>
<path d="M14923 6802 c-24 -2 -43 -7 -43 -13 0 -13 77 -11 85 2 9 14 7 14 -42 11z"/>
<path d="M16043 6803 c-174 -3 -228 -13 -145 -27 48 -8 256 -8 304 0 20 4 39 13 42 20 3 8 0 13 -7 12 -7 -2 -94 -4 -194 -5z"/>
<path d="M17303 6803 c-87 -4 -108 -16 -47 -28 46 -8 109 2 125 21 6 8 10 13 8 12 -2 -1 -41 -4 -86 -5z"/>
<path d="M9340 6790 c0 -5 18 -10 40 -10 22 0 40 5 40 10 0 6 -18 10 -40 10 -22 0 -40 -4 -40 -10z"/>
<path d="M9680 6790 c0 -5 18 -10 40 -10 22 0 40 5 40 10 0 6 -18 10 -40 10 -22 0 -40 -4 -40 -10z"/>
<path d="M10800 6790 c0 -6 40 -10 100 -10 60 0 100 4 100 10 0 6 -40 10 -100 10 -60 0 -100 -4 -100 -10z"/>
<path d="M11350 6790 c0 -6 42 -10 105 -10 63 0 105 4 105 10 0 6 -42 10 -105 10 -63 0 -105 -4 -105 -10z"/>
<path d="M12173 6786 c18 -14 67 -10 67 5 0 5 -19 9 -42 9 -38 -1 -41 -2 -25 -14z"/>
<path d="M12410 6790 c0 -5 18 -10 39 -10 22 0 43 5 46 10 4 6 -12 10 -39 10 -25 0 -46 -4 -46 -10z"/>
<path d="M18035 6790 c3 -5 24 -10 45 -10 21 0 42 5 45 10 4 6 -13 10 -45 10 -32 0 -49 -4 -45 -10z"/>
</g>
</g>
  <g id="id2:id2" transform="matrix(1.25,0,0,1.25,0.0,0.0)"><g transform="translate(0.000000,576.000000) scale(0.040000,-0.040000)" fill="#7ad0e2" stroke="none">
<path d="M369 14066 c-15 -16 -12 -7269 3 -7284 15 -15 8099 -18 8128 -2 16 8 18 24 19 123 1 79 -3 119 -12 132 l-14 18 -3916 -1 c-2154 -1 -3919 3 -3922 8 -7 11 -7 6709 0 6720 3 5 4039 8 9438 7 l9432 -2 2 -3355 c1 -2361 -2 -3359 -9 -3368 -9 -10 -92 -12 -405 -9 -369 3 -395 3 -404 -14 -5 -10 -9 -72 -9 -138 l0 -121 23 -5 c12 -3 258 -4 547 -3 l524 3 7 25 c9 32 10 7229 1 7253 l-7 17 -9708 3 c-6122 1 -9712 -2 -9718 -7z"/>
<path d="M892 13538 c-9 -9 -12 -725 -12 -3160 l0 -3147 19 -11 c14 -7 1215 -10 3805 -10 3427 0 3786 1 3800 16 22 21 23 235 2 253 -11 9 -896 12 -3670 12 -2795 1 -3658 4 -3665 13 -6 8 -9 1022 -8 2886 l2 2875 8893 0 8892 0 0 -2879 c0 -2108 -3 -2882 -11 -2887 -6 -4 -56 -4 -110 -2 -71 4 -103 2 -114 -7 -23 -19 -22 -265 1 -274 28 -11 484 -7 505 4 l19 11 0 3147 c0 2435 -3 3151 -12 3160 -18 18 -18318 18 -18336 0z"/>
<path d="M10836 7495 c-54 -19 -102 -69 -139 -145 l-32 -64 -3 -142 c-4 -159 8 -218 55 -281 64 -85 110 -107 209 -101 86 5 136 41 183 132 40 76 37 113 -12 130 -34 12 -53 -5 -95 -84 -24 -45 -36 -57 -65 -64 -60 -15 -98 2 -129 59 -26 47 -28 57 -28 185 0 153 16 217 66 257 59 47 116 24 155 -64 l28 -63 39 0 c70 0 80 38 32 123 -66 118 -157 160 -264 122z"/>
<path d="M11390 7499 c-105 -31 -190 -196 -190 -369 0 -72 26 -184 56 -242 24 -46 75 -98 112 -113 40 -17 129 -20 168 -5 94 36 157 141 173 287 22 200 -37 369 -151 429 -36 19 -125 26 -168 13z m116 -120 c19 -11 43 -34 54 -50 20 -27 21 -40 18 -203 l-3 -175 -35 -36 c-41 -43 -67 -51 -113 -36 -49 17 -76 60 -94 154 -13 70 -14 95 -3 172 14 106 20 120 68 162 43 38 63 40 108 12z"/>
<path d="M8813 7485 c-30 -21 -34 -51 -12 -79 17 -22 29 -26 87 -28 l67 -3 5 -293 c5 -317 4 -312 61 -312 56 0 58 10 61 321 l3 284 65 3 c52 2 69 7 83 23 22 28 22 54 -3 79 -19 19 -33 20 -208 20 -149 0 -192 -3 -209 -15z"/>
<path d="M9357 7493 c-10 -3 -22 -16 -28 -29 -5 -14 -9 -168 -9 -343 0 -295 1 -319 18 -334 22 -20 77 -22 89 -4 4 6 10 77 13 157 l5 145 110 0 110 0 5 -145 c3 -80 9 -151 13 -157 10 -16 69 -17 85 -1 9 9 12 101 12 353 l0 342 -25 11 c-66 30 -79 9 -85 -147 l-5 -126 -90 -5 c-49 -3 -100 -2 -112 2 l-23 8 0 124 c0 118 -1 126 -22 140 -23 16 -29 17 -61 9z"/>
<path d="M9951 7483 l-21 -18 0 -315 c0 -173 0 -323 0 -332 0 -43 23 -48 201 -48 156 0 171 2 189 20 25 25 25 41 2 70 -17 21 -27 23 -138 24 -65 1 -125 5 -131 9 -18 11 -18 171 0 185 7 6 49 12 92 14 72 3 81 5 91 27 34 68 -53 124 -140 91 -21 -8 -28 -6 -41 13 -18 26 -20 128 -3 145 8 8 50 12 123 12 128 1 148 9 143 61 -5 51 -30 59 -199 59 -125 0 -150 -3 -168 -17z"/>
<path d="M11843 7490 c-12 -5 -26 -18 -32 -29 -7 -13 -11 -131 -11 -335 l0 -316 20 -20 c22 -22 60 -26 92 -9 l20 11 -3 216 c-4 216 1 254 28 201 7 -13 27 -58 46 -99 19 -41 53 -116 76 -165 22 -50 41 -94 41 -99 0 -5 12 -24 26 -43 21 -28 32 -34 57 -31 54 5 57 20 57 360 0 173 -4 318 -10 332 -12 33 -52 43 -85 22 l-25 -16 0 -175 c0 -165 -6 -201 -27 -172 -13 17 -143 304 -143 316 0 17 -61 61 -83 60 -12 0 -32 -4 -44 -9z"/>
<path d="M12430 7489 c-13 -6 -28 -15 -32 -22 -10 -16 -10 -659 0 -675 5 -7 25 -15 44 -18 28 -5 40 -2 58 16 l22 22 -3 137 -4 136 85 5 c47 3 91 9 98 13 20 13 15 72 -9 93 -16 15 -36 19 -87 19 -37 0 -72 3 -78 7 -6 4 -10 38 -10 80 l1 73 118 5 c109 5 120 7 137 28 23 28 14 61 -21 79 -29 15 -282 17 -319 2z"/>
<path d="M12894 7490 c-12 -5 -25 -14 -29 -20 -3 -6 -6 -160 -6 -343 1 -298 3 -333 18 -344 12 -9 67 -13 188 -13 154 0 174 2 188 18 23 25 21 55 -4 78 -18 16 -37 18 -142 19 l-122 0 0 100 0 100 85 3 c46 2 90 8 97 14 24 19 16 74 -14 98 -24 19 -36 21 -78 16 -27 -4 -59 -7 -70 -9 -19 -2 -20 4 -20 83 l0 85 115 3 c130 3 150 12 150 69 0 27 -5 35 -26 43 -31 12 -301 12 -330 0z"/>
<path d="M13390 7494 c-39 -16 -40 -28 -40 -371 l0 -332 22 -12 c14 -7 58 -10 127 -7 89 4 114 9 157 31 70 36 108 85 139 179 33 105 33 190 -1 298 -30 95 -72 148 -148 187 -42 22 -68 27 -146 29 -52 2 -102 1 -110 -2z m168 -126 c105 -26 131 -71 131 -228 1 -125 -13 -174 -60 -217 -26 -24 -128 -47 -143 -33 -9 9 -9 467 0 482 7 11 17 10 72 -4z"/>
<path d="M13952 7493 c-13 -3 -27 -16 -33 -29 -5 -14 -9 -165 -9 -337 0 -267 2 -316 16 -335 l15 -22 178 0 c193 0 201 2 201 56 0 52 -19 59 -152 59 -146 0 -147 1 -141 108 3 39 6 78 8 85 3 8 29 12 85 12 67 0 83 3 100 20 28 28 25 54 -11 84 -28 24 -35 26 -98 20 -52 -5 -70 -3 -77 7 -13 22 -11 139 3 151 8 7 52 9 119 6 l106 -5 24 26 c27 29 26 66 -3 89 -16 12 -274 16 -331 5z"/>
<path d="M14440 7488 l-25 -14 -3 -333 c-2 -300 -1 -336 14 -353 20 -22 63 -24 90 -4 17 13 19 26 17 145 -2 119 0 132 17 141 51 27 84 -7 111 -116 7 -27 18 -58 24 -69 7 -11 16 -32 19 -48 14 -58 85 -89 117 -51 15 19 4 67 -40 179 -48 120 -49 127 -1 179 101 109 76 260 -55 329 -50 27 -244 36 -285 15z m247 -133 c53 -35 54 -98 2 -137 -28 -21 -133 -35 -143 -20 -3 5 -7 44 -10 86 -3 63 -1 78 13 86 22 14 108 4 138 -15z"/>
<path d="M15053 7488 c-21 -27 -75 -214 -119 -406 -8 -34 -25 -101 -39 -148 -39 -135 -31 -169 37 -162 37 3 50 22 68 103 25 108 17 99 100 106 41 4 79 2 85 -2 5 -5 15 -37 22 -70 19 -93 42 -133 78 -137 17 -2 38 3 49 11 17 12 17 18 6 73 -7 32 -22 97 -35 144 -12 47 -30 119 -40 160 -9 41 -23 93 -31 115 -7 22 -18 73 -25 112 -15 93 -33 113 -98 113 -27 0 -53 -6 -58 -12z m71 -260 c23 -86 24 -103 11 -117 -12 -12 -19 -12 -41 -3 -23 11 -25 16 -19 48 9 52 23 84 35 84 6 0 12 -6 14 -12z"/>
<path d="M15338 7488 c-23 -19 -29 -50 -15 -78 11 -22 20 -26 82 -30 l70 -5 3 -284 c3 -312 4 -321 62 -321 60 0 60 -3 62 315 l3 290 66 3 c55 2 70 7 89 27 20 21 22 28 12 50 -7 14 -23 30 -38 35 -39 15 -377 13 -396 -2z"/>
<path d="M15873 7490 l-23 -9 0 -344 c0 -253 3 -346 12 -355 8 -8 63 -12 183 -12 184 0 215 8 215 53 -1 53 -42 68 -169 61 -129 -8 -132 -5 -129 109 l3 92 88 5 c73 4 91 9 103 24 20 27 18 41 -10 73 -23 26 -29 28 -103 28 l-78 0 -3 72 c-4 91 3 96 131 91 83 -2 96 0 125 20 37 27 39 41 13 73 l-19 24 -159 2 c-87 1 -168 -2 -180 -7z"/>
<path d="M16715 7486 c-70 -31 -154 -172 -127 -213 4 -6 20 -17 36 -23 37 -14 49 -3 87 72 43 85 80 99 130 49 23 -23 29 -38 29 -71 0 -62 -21 -97 -114 -194 -143 -146 -214 -295 -157 -326 11 -6 92 -10 190 -10 141 0 172 3 185 16 33 33 10 92 -37 96 -12 0 -65 2 -117 2 -130 1 -130 9 0 139 56 56 115 121 131 144 37 53 49 141 26 194 -18 45 -71 106 -108 125 -35 17 -114 18 -154 0z"/>
<path d="M17215 7481 c-70 -43 -110 -113 -124 -214 -25 -177 -8 -325 46 -404 47 -70 92 -97 160 -97 75 0 127 38 173 128 l35 69 0 166 0 166 -28 60 c-33 70 -69 112 -114 131 -46 20 -112 17 -148 -5z m122 -114 c40 -36 58 -110 58 -242 0 -113 -2 -123 -30 -180 -28 -55 -33 -60 -66 -63 -71 -6 -103 70 -103 248 0 137 14 192 60 238 35 35 41 35 81 -1z"/>
<path d="M17683 7484 c-41 -15 -93 -55 -93 -72 0 -22 30 -45 66 -51 l39 -6 0 -229 0 -230 -29 -7 c-62 -17 -83 -62 -46 -99 18 -18 33 -20 128 -20 122 0 152 12 152 59 0 20 -7 31 -27 40 -16 8 -35 17 -43 21 -13 6 -15 51 -18 296 -2 257 -4 290 -19 302 -22 16 -57 14 -110 -4z"/>
<path d="M18003 7493 c-12 -2 -26 -17 -34 -35 -12 -29 -11 -32 16 -55 26 -23 35 -24 127 -22 59 2 102 -1 109 -8 7 -7 -3 -45 -35 -126 -25 -63 -46 -121 -46 -129 0 -8 -8 -30 -18 -49 -10 -19 -31 -73 -46 -120 -16 -46 -35 -93 -42 -104 -29 -41 -7 -75 50 -75 46 0 56 11 81 92 14 44 30 89 37 101 6 12 17 42 24 67 7 25 22 70 34 100 12 30 26 71 32 90 5 19 25 75 44 124 40 102 39 129 -7 145 -30 10 -278 13 -326 4z"/>
</g>
</g>
</svg>
