<?xml version="1.0" standalone="no"?>
<!DOCTYPE svg PUBLIC "-//W3C//DTD SVG 1.1//EN"
 "http://www.w3.org/Graphics/SVG/1.1/DTD/svg11.dtd">
<!-- Created with svg_stack (http://github.com/astraw/svg_stack) -->
<svg xmlns:sodipodi="http://sodipodi.sourceforge.net/DTD/sodipodi-0.dtd" xmlns="http://www.w3.org/2000/svg" version="1.1" width="474.0" height="96.0">
  <defs/>
  <g id="id0:id0" transform="matrix(1.25,0,0,1.25,0.0,0.0)"><g transform="translate(0.000000,76.800000) scale(0.040000,-0.040000)" fill="#b29b70" stroke="none">
<path d="M7545 1825 c-142 -32 -240 -83 -333 -174 -77 -76 -125 -158 -148 -257 -20 -87 -14 -146 26 -228 33 -71 77 -112 157 -148 67 -31 261 -38 360 -13 212 52 388 219 438 415 30 115 -2 237 -85 320 -79 79 -270 118 -415 85z m198 -49 c67 -24 100 -68 122 -161 20 -86 -18 -253 -85 -370 -44 -77 -146 -167 -221 -195 -72 -27 -162 -24 -225 8 -111 56 -126 259 -34 458 41 88 120 184 188 226 75 46 181 60 255 34z"/>
<path d="M85 1820 c-7 -12 -8 -1748 0 -1760 6 -10 1721 -15 1749 -4 15 6 16 85 16 890 l0 884 -880 0 c-519 0 -882 -4 -885 -10z m1670 -880 l0 -805 -795 -2 c-538 -2 -798 1 -805 8 -14 14 -17 1579 -3 1597 8 9 177 12 807 10 l796 -3 0 -805z"/>
<path d="M1650 1621 c-14 -5 -63 -19 -110 -31 -143 -38 -458 -201 -547 -283 -34 -30 -29 -54 16 -77 22 -11 42 -24 46 -30 13 -21 56 -9 106 29 103 78 293 166 456 211 43 12 84 27 91 32 16 13 16 130 0 146 -13 13 -22 14 -58 3z"/>
<path d="M196 1464 c-10 -27 -7 -71 7 -81 6 -5 44 -15 82 -22 215 -37 501 -169 690 -320 104 -82 221 -204 303 -313 39 -53 72 -98 72 -101 0 -3 17 -34 38 -68 45 -76 117 -237 132 -296 6 -23 17 -49 26 -58 25 -24 63 -30 82 -12 14 15 14 21 -2 74 -26 87 -101 265 -135 320 -16 26 -44 72 -61 102 -75 128 -267 337 -415 452 -186 144 -459 268 -703 319 -114 24 -108 24 -116 4z"/>
<path d="M1660 1379 c-14 -4 -61 -20 -105 -34 -44 -15 -90 -33 -102 -41 -12 -8 -27 -14 -33 -14 -12 0 -120 -60 -202 -113 -29 -18 -48 -38 -48 -49 0 -20 71 -103 103 -120 15 -8 26 -5 46 10 15 11 49 31 76 46 28 14 57 30 65 35 29 18 105 50 183 77 l77 27 0 81 c0 51 -5 87 -12 94 -13 13 -13 13 -48 1z"/>
<path d="M202 1238 c-7 -7 -12 -24 -12 -40 0 -35 24 -50 115 -73 124 -31 308 -111 415 -181 259 -168 470 -428 564 -695 19 -52 64 -82 95 -62 26 16 24 35 -15 134 -70 177 -180 346 -323 492 -194 200 -438 340 -715 412 -114 29 -108 29 -124 13z"/>
<path d="M1655 1100 c-11 -5 -51 -20 -88 -35 -87 -33 -211 -106 -215 -126 -3 -17 94 -149 110 -149 5 0 35 15 66 33 31 18 82 43 112 56 83 35 81 32 78 135 -3 83 -5 91 -23 93 -11 1 -29 -2 -40 -7z"/>
<path d="M197 973 c-4 -3 -7 -24 -7 -45 0 -43 -9 -37 130 -83 176 -59 310 -143 451 -284 98 -97 182 -213 225 -309 25 -56 58 -78 101 -67 33 8 29 35 -15 124 -164 324 -465 570 -802 656 -63 16 -74 17 -83 8z"/>
<path d="M1623 789 c-34 -18 -74 -45 -90 -61 -23 -24 -25 -32 -15 -46 6 -9 21 -35 33 -57 27 -50 48 -75 65 -75 7 0 34 14 59 32 l46 32 -3 101 c-4 118 -6 120 -95 74z"/>
<path d="M194 677 c-3 -8 -4 -28 -2 -43 2 -24 13 -34 58 -56 30 -15 61 -27 67 -27 7 -1 47 -22 90 -48 85 -52 225 -183 267 -250 34 -56 64 -75 104 -67 40 8 41 30 5 87 -82 125 -193 237 -303 304 -138 84 -273 132 -286 100z"/>
<path d="M1667 486 c-32 -30 -32 -32 -7 -87 11 -24 20 -56 20 -71 0 -30 10 -40 28 -29 16 10 12 203 -4 208 -6 2 -23 -8 -37 -21z"/>
<path d="M197 393 c-4 -3 -7 -22 -7 -40 0 -34 36 -83 61 -83 6 0 32 -17 58 -39 37 -31 56 -39 98 -43 69 -7 87 11 52 48 -49 52 -218 164 -248 164 -4 0 -11 -3 -14 -7z"/>
<path d="M8418 1667 c-29 -10 -69 -32 -89 -48 -43 -33 -52 -29 -43 19 l7 35 -39 -7 c-84 -15 -153 -32 -159 -38 -4 -4 2 -19 13 -33 l20 -26 -35 -132 c-73 -278 -94 -341 -120 -369 -15 -16 -33 -28 -40 -28 -7 0 -13 -6 -13 -14 0 -10 28 -13 135 -14 141 -1 152 3 118 40 -16 18 -16 24 0 96 80 362 177 504 332 484 57 -7 81 -26 95 -77 18 -63 8 -116 -66 -372 -24 -81 -63 -143 -90 -143 -8 0 -14 -7 -14 -15 0 -13 21 -15 130 -15 83 0 130 4 130 10 0 6 -7 21 -15 34 -14 21 -12 33 21 152 52 185 72 290 64 333 -17 97 -75 137 -207 143 -63 4 -93 0 -135 -15z"/>
<path d="M9215 1684 c-206 -26 -331 -105 -410 -260 -37 -74 -40 -84 -40 -164 0 -67 5 -93 22 -125 43 -81 107 -118 232 -134 88 -12 135 -3 233 42 71 32 156 105 182 155 8 16 22 32 31 35 8 4 15 13 15 22 0 20 -45 20 -62 -1 -113 -141 -209 -204 -313 -204 -84 0 -125 19 -154 71 -22 38 -23 50 -18 134 5 93 25 155 50 155 6 1 121 0 255 0 l242 -1 0 92 c0 82 -2 93 -22 110 -35 30 -89 56 -133 63 -70 13 -79 13 -110 10z m90 -74 c32 -30 50 -92 35 -120 -10 -19 -21 -20 -169 -20 -87 0 -160 3 -164 6 -20 20 96 150 140 157 64 11 133 1 158 -23z"/>
</g>
</g>
  <g id="id1:id1" transform="matrix(1.25,0,0,1.25,0.0,0.0)"><g transform="translate(0.000000,76.800000) scale(0.040000,-0.040000)" fill="#005941" stroke="none">
<path d="M4015 1912 c-6 -5 -29 -14 -52 -21 -49 -14 -53 -24 -18 -47 24 -15 25 -21 25 -108 0 -51 -3 -95 -6 -98 -3 -4 -28 6 -56 20 -42 22 -68 27 -148 30 -89 4 -103 2 -159 -23 -118 -53 -192 -168 -199 -309 -4 -68 0 -88 24 -149 32 -83 91 -148 162 -179 115 -52 299 -26 361 50 l30 36 11 -28 c5 -15 10 -31 10 -35 0 -5 7 -14 15 -21 19 -16 175 -25 175 -10 0 6 -12 29 -27 52 l-28 41 -5 401 -5 401 -50 3 c-28 2 -55 -1 -60 -6z m-138 -294 c32 -16 70 -75 87 -133 63 -214 -35 -434 -192 -435 -122 0 -202 116 -202 295 0 166 63 277 168 295 40 7 103 -3 139 -22z"/>
<path d="M3220 1903 c-8 -2 -26 -19 -39 -38 -21 -31 -22 -38 -11 -65 16 -38 42 -52 94 -52 51 1 66 20 66 84 0 35 -5 50 -17 56 -23 12 -74 20 -93 15z"/>
<path d="M44 1848 c-4 -6 -7 -1698 -4 -1806 0 -10 187 -12 918 -10 l917 3 3 903 c2 717 0 904 -10 907 -22 8 -1820 10 -1824 3z m1781 -47 c8 -13 8 -1708 0 -1721 -4 -7 -292 -10 -852 -10 -465 0 -848 -2 -851 -5 -3 -2 -11 0 -19 6 -11 9 -13 163 -13 862 0 587 4 854 11 863 8 10 182 13 864 14 548 0 856 -3 860 -9z"/>
<path d="M130 1750 c-9 -18 -6 -1599 3 -1620 6 -13 105 -15 812 -13 443 0 812 4 820 7 13 5 15 111 15 821 0 770 -1 815 -17 815 -10 0 -380 1 -821 2 -706 3 -805 1 -812 -12z m1565 -206 l0 -59 -135 -45 c-158 -54 -264 -104 -385 -185 -72 -48 -91 -56 -104 -46 -9 6 -31 21 -49 33 -19 12 -32 27 -30 36 4 21 152 122 259 177 91 46 238 106 304 124 75 19 120 29 130 27 6 -2 10 -29 10 -62z m-1353 -108 c270 -53 610 -236 821 -444 154 -150 290 -346 371 -529 63 -146 92 -241 77 -256 -9 -9 -18 -8 -38 3 -19 11 -30 30 -43 75 -9 33 -21 69 -27 80 -6 11 -23 49 -39 84 -111 248 -328 504 -570 673 -65 45 -247 143 -316 170 -118 45 -317 100 -331 91 -13 -8 -37 18 -37 42 0 29 10 37 37 30 12 -3 55 -12 95 -19z m1353 -78 c2 -7 5 -42 8 -77 3 -56 1 -64 -17 -71 -152 -58 -244 -100 -314 -141 -46 -28 -87 -49 -91 -47 -14 6 -91 96 -91 106 0 26 233 153 365 199 145 50 134 47 140 31z m-1355 -154 c58 -14 110 -29 115 -34 6 -4 21 -11 35 -15 40 -12 222 -101 263 -129 21 -14 40 -26 43 -26 3 0 46 -33 97 -73 127 -102 219 -203 326 -357 37 -54 124 -228 145 -293 15 -45 17 -60 7 -70 -20 -20 -63 12 -77 58 -16 55 -88 198 -137 270 -104 155 -267 318 -407 410 -97 63 -254 138 -355 170 -49 15 -108 33 -130 40 -44 14 -61 34 -52 59 8 20 3 21 127 -10z m1355 -200 l0 -79 -70 -35 c-38 -20 -89 -46 -112 -60 l-43 -24 -24 24 c-14 12 -38 41 -53 63 l-27 39 29 24 c58 47 261 138 290 130 6 -2 10 -37 10 -82z m-1339 -79 c261 -84 499 -275 653 -523 88 -141 108 -202 68 -202 -24 0 -64 38 -72 67 -13 53 -119 199 -214 297 -153 157 -333 265 -531 320 -45 12 -58 30 -46 61 6 17 38 13 142 -20z m1344 -219 l0 -83 -40 -32 c-22 -18 -45 -29 -50 -26 -6 4 -22 27 -35 53 -14 26 -31 55 -37 64 -11 15 -9 21 7 37 28 26 135 82 146 75 5 -3 9 -42 9 -88z m-1295 -104 c68 -37 108 -65 203 -141 39 -32 152 -171 152 -188 0 -3 10 -17 22 -30 26 -28 14 -46 -28 -41 -21 2 -36 15 -58 48 -54 81 -205 222 -291 272 -44 25 -91 49 -104 53 -69 21 -101 54 -87 90 7 19 90 -9 191 -63z m1295 -162 c0 -39 -17 -47 -31 -16 -9 20 -9 29 1 41 17 20 30 10 30 -25z m-1430 -90 c32 0 195 -124 184 -141 -2 -5 -26 -6 -52 -2 -34 4 -59 16 -92 43 -25 21 -55 39 -65 41 -23 5 -41 49 -31 74 6 16 8 17 24 1 10 -9 24 -16 32 -16z"/>
<path d="M4808 1837 c-8 -8 -34 -71 -57 -138 -69 -200 -142 -393 -151 -403 -5 -5 -20 16 -35 50 -54 122 -155 382 -155 399 0 9 9 30 21 46 27 38 21 40 -114 36 -60 -2 -110 0 -113 5 -3 4 -12 8 -20 8 -22 0 -16 -34 10 -59 23 -22 55 -96 142 -326 34 -91 86 -227 143 -378 13 -31 29 -64 37 -72 17 -17 40 -11 47 13 6 19 169 463 186 505 22 57 22 57 162 -293 50 -126 97 -231 106 -234 27 -11 24 -17 102 189 78 205 185 474 203 510 12 22 34 56 49 76 16 20 29 42 29 48 0 8 -31 11 -97 9 -54 -1 -106 2 -115 6 -31 14 -20 -13 18 -49 l36 -35 -7 -55 c-3 -30 -29 -115 -56 -190 -56 -155 -80 -208 -93 -207 -6 0 -60 118 -122 262 -62 145 -119 269 -127 277 -12 13 -16 13 -29 0z"/>
<path d="M2060 1828 c0 -6 11 -26 25 -44 33 -43 42 -142 34 -404 -6 -224 -11 -247 -69 -314 -18 -20 -30 -40 -26 -43 4 -4 61 -8 126 -9 131 -3 147 5 91 45 -57 41 -66 89 -66 346 0 142 4 229 10 229 15 -2 43 -60 232 -468 65 -143 78 -166 95 -166 9 0 71 124 220 444 46 98 88 177 93 175 6 -3 10 -103 10 -266 l0 -262 -32 -33 c-18 -19 -33 -36 -33 -39 0 -4 299 -13 360 -10 8 0 72 1 143 0 108 0 127 3 127 16 0 8 -4 15 -10 15 -5 0 -19 19 -32 43 l-21 42 -2 272 c0 150 -4 275 -7 279 -8 8 -178 -34 -193 -48 -6 -5 2 -18 22 -34 l32 -25 -2 -232 c-2 -205 -4 -236 -20 -260 -39 -60 -97 -53 -134 16 -16 29 -18 65 -18 350 l0 317 33 31 c20 19 30 35 24 41 -5 5 -56 7 -113 6 l-104 -3 -33 -65 c-26 -53 -100 -213 -219 -478 -8 -18 -20 -31 -26 -29 -13 4 -19 15 -167 317 -53 107 -105 210 -115 228 l-19 32 -108 0 c-75 0 -108 -4 -108 -12z"/>
<path d="M6882 1782 c-28 -50 -110 -127 -156 -146 -20 -8 -36 -19 -36 -24 0 -12 25 -22 55 -22 12 0 27 -6 32 -12 6 -8 11 -115 11 -260 1 -150 5 -255 12 -267 5 -11 25 -24 43 -30 36 -12 176 -11 184 2 2 4 -7 17 -21 28 -15 12 -36 40 -48 62 -20 39 -22 58 -23 250 -1 138 2 210 9 215 6 4 38 9 71 12 52 4 60 8 60 25 0 17 -10 21 -70 30 l-69 10 -3 69 c-4 109 -15 121 -51 58z"/>
<path d="M5493 1666 c-104 -39 -150 -83 -198 -189 -71 -155 5 -363 159 -436 75 -35 200 -54 261 -40 71 16 151 56 189 93 42 43 103 163 89 177 -19 19 -47 5 -56 -27 -15 -51 -79 -127 -137 -162 -52 -31 -60 -33 -132 -30 -66 3 -82 7 -119 33 -24 17 -55 53 -72 83 -27 49 -30 62 -31 155 l-1 102 268 3 c298 3 278 -3 255 74 -17 57 -87 131 -150 159 -81 35 -240 38 -325 5z m235 -43 c36 -27 61 -71 64 -113 l3 -35 -170 0 -170 0 3 25 c6 42 56 114 93 133 46 23 139 18 177 -10z"/>
<path d="M6208 1671 c-31 -10 -70 -29 -88 -41 -65 -46 -89 -154 -50 -229 35 -69 115 -103 288 -121 99 -11 145 -28 163 -61 24 -45 -13 -124 -71 -154 -46 -24 -213 -20 -270 6 -56 25 -78 45 -95 86 -20 48 -41 42 -55 -14 -22 -92 -21 -95 40 -114 30 -10 74 -18 97 -18 23 -1 65 -6 93 -13 90 -21 279 21 346 76 71 58 93 159 53 237 -30 59 -98 88 -237 100 -161 15 -222 44 -222 106 0 103 112 158 245 122 51 -14 103 -53 111 -84 11 -42 32 -38 54 12 11 26 19 54 18 63 -2 8 -21 24 -43 34 -59 30 -296 34 -377 7z"/>
<path d="M8510 1670 c0 -5 9 -10 20 -10 11 0 20 5 20 10 0 6 -9 10 -20 10 -11 0 -20 -4 -20 -10z"/>
<path d="M8130 1630 c0 -5 7 -10 15 -10 8 0 15 5 15 10 0 6 -7 10 -15 10 -8 0 -15 -4 -15 -10z"/>
<path d="M4610 949 c-87 -28 -91 -33 -52 -69 l33 -30 -3 -352 c-3 -311 -5 -357 -20 -384 -10 -17 -24 -34 -33 -37 -8 -4 -15 -13 -15 -22 0 -13 21 -15 145 -15 159 0 169 4 115 52 l-30 26 0 130 c0 151 7 167 62 135 24 -13 57 -59 118 -160 47 -78 94 -151 104 -162 17 -19 31 -21 133 -21 62 0 113 3 113 8 0 4 -26 31 -58 59 -36 31 -90 97 -136 166 -81 121 -124 160 -190 172 -20 4 -39 11 -41 16 -7 10 112 106 207 167 44 29 83 46 115 50 32 5 49 12 51 24 4 20 -34 24 -171 20 -105 -4 -126 -15 -93 -50 15 -17 13 -21 -22 -54 -61 -58 -179 -147 -186 -141 -3 4 -6 109 -6 234 0 125 -3 234 -6 243 -8 22 -54 20 -134 -5z"/>
<path d="M2036 872 c-3 -6 8 -24 25 -40 l30 -28 -1 -329 c-1 -360 -1 -359 -60 -390 -17 -9 -30 -22 -30 -30 0 -13 40 -15 285 -15 239 0 300 3 383 19 122 24 188 61 227 127 29 49 47 48 60 -4 22 -88 113 -140 250 -144 79 -2 97 1 147 24 31 14 64 38 73 52 17 25 39 28 30 3 -3 -7 4 -27 15 -44 l20 -33 75 0 c82 0 94 11 55 50 -19 19 -20 33 -20 241 l0 220 -26 55 c-48 103 -120 128 -341 122 -127 -3 -155 -7 -200 -27 -29 -13 -53 -27 -53 -32 0 -15 30 -122 36 -128 3 -3 16 8 29 24 67 84 82 99 112 111 17 8 61 14 96 15 118 3 176 -48 180 -158 l2 -58 -90 -7 c-206 -15 -295 -41 -355 -103 -18 -18 -35 -47 -39 -65 -8 -42 -23 -35 -42 24 -22 63 -70 111 -142 140 -32 13 -59 27 -60 31 -1 5 19 22 44 39 65 44 89 84 89 147 0 88 -52 137 -185 174 -47 13 -120 18 -336 22 -188 4 -278 2 -283 -5z m538 -77 c56 -28 79 -64 80 -124 1 -43 -3 -54 -32 -84 -45 -47 -125 -69 -245 -68 -50 0 -95 5 -100 10 -13 13 -9 262 5 278 7 9 43 12 132 10 98 -2 128 -6 160 -22z m-19 -340 c123 -32 171 -89 163 -195 -5 -71 -35 -115 -94 -141 -56 -24 -299 -27 -330 -5 -17 13 -20 32 -24 176 -3 96 -1 165 5 171 15 15 214 11 280 -6z m878 -118 c-1 -108 -28 -183 -78 -222 -28 -20 -45 -25 -96 -25 -58 0 -63 2 -100 39 l-39 39 0 64 c0 51 5 72 23 98 41 62 137 101 237 97 l55 -2 -2 -88z"/>
<path d="M4120 731 c-93 -7 -117 -16 -172 -69 -21 -20 -39 -32 -39 -27 -1 6 -2 26 -3 45 l-1 35 -40 -1 c-52 -1 -155 -31 -155 -46 0 -6 11 -21 25 -34 l25 -23 0 -239 c0 -227 -1 -241 -21 -266 -11 -14 -26 -26 -34 -26 -14 0 -27 -25 -18 -34 9 -9 291 -7 297 2 6 10 -4 24 -29 38 -31 17 -38 68 -33 254 4 152 8 182 27 226 31 71 75 110 132 118 76 11 130 -20 172 -99 21 -37 22 -54 22 -254 l0 -213 -32 -27 c-56 -46 -46 -51 102 -51 143 0 158 6 116 44 -17 16 -19 37 -24 229 -5 250 -15 295 -79 352 -68 62 -111 74 -238 66z"/>
<path d="M5296 712 c-3 -5 6 -20 19 -32 14 -13 25 -31 25 -40 0 -9 3 -20 6 -23 9 -9 46 12 39 22 -2 5 2 14 9 20 9 8 16 8 20 2 4 -5 2 -12 -4 -16 -5 -3 -10 -10 -10 -16 0 -15 22 -10 35 8 13 17 14 17 32 0 11 -9 22 -17 24 -17 7 0 5 77 -1 83 -11 10 -188 18 -194 9z"/>
</g>
</g>
</svg>
