<?xml version="1.0" standalone="no"?>
<!DOCTYPE svg PUBLIC "-//W3C//DTD SVG 1.1//EN"
 "http://www.w3.org/Graphics/SVG/1.1/DTD/svg11.dtd">
<!-- Created with svg_stack (http://github.com/astraw/svg_stack) -->
<svg xmlns:sodipodi="http://sodipodi.sourceforge.net/DTD/sodipodi-0.dtd" xmlns="http://www.w3.org/2000/svg" version="1.1" width="618.0" height="326.0">
  <defs/>
  <g id="id0:id0" transform="matrix(1.25,0,0,1.25,0.0,0.0)"><g transform="translate(0.000000,260.800000) scale(0.040000,-0.040000)" fill="#ffffff" stroke="none">
<path d="M0 4763 c0 -1168 3 -1754 10 -1747 7 7 11 608 12 1744 l3 1735 6168 0 c4927 0 6167 3 6167 13 0 9 -1243 12 -6180 12 l-6180 0 0 -1757z"/>
<path d="M407 6343 c-2 -5 -7 -21 -11 -38 -15 -61 -31 -75 -91 -75 -30 0 -57 -5 -61 -12 -7 -11 31 -51 71 -74 l19 -11 -17 -63 c-11 -37 -14 -67 -9 -72 5 -5 31 8 62 31 l52 40 50 -40 c59 -46 73 -49 64 -11 -4 15 -11 45 -16 67 l-9 40 46 42 c26 24 43 46 39 50 -4 4 -31 8 -61 9 -29 1 -58 5 -63 8 -6 3 -16 31 -22 61 -7 34 -17 55 -25 55 -8 0 -16 -3 -18 -7z"/>
<path d="M1233 6338 c-6 -7 -16 -31 -23 -53 -19 -59 -26 -65 -75 -58 -23 3 -50 1 -59 -4 -15 -8 -14 -13 12 -39 16 -16 39 -36 51 -44 l23 -15 -17 -45 c-28 -78 -29 -80 -10 -80 9 0 36 14 60 30 24 17 48 30 53 30 5 0 28 -13 50 -30 66 -48 74 -40 45 45 l-16 49 23 15 c36 26 70 63 70 78 0 11 -13 14 -55 12 -31 -2 -59 2 -64 7 -5 5 -16 31 -24 58 -15 53 -27 65 -44 44z"/>
<path d="M2037 6300 c-3 -28 -9 -55 -12 -60 -3 -6 -33 -10 -65 -10 -34 0 -62 -5 -66 -12 -5 -7 11 -28 41 -53 l48 -42 -12 -33 c-15 -44 -14 -90 2 -90 6 1 28 14 47 30 43 37 53 37 100 0 47 -37 76 -40 65 -7 -24 78 -28 106 -15 122 7 8 18 15 24 15 20 0 59 47 51 60 -5 8 -23 10 -52 6 -48 -6 -83 6 -83 30 0 25 -39 94 -54 94 -8 0 -15 -18 -19 -50z"/>
<path d="M2871 6308 c-10 -24 -21 -51 -24 -60 -5 -14 -18 -18 -59 -18 -71 0 -89 -12 -63 -40 10 -11 30 -26 44 -33 23 -11 26 -18 24 -61 -1 -27 -8 -55 -17 -65 -38 -42 2 -42 67 -1 26 17 52 30 56 30 5 0 29 -16 53 -36 40 -34 43 -35 46 -16 2 11 -1 43 -6 72 l-9 51 38 27 c70 49 63 72 -21 72 -32 0 -62 4 -65 10 -3 5 -9 32 -12 60 -7 63 -27 66 -52 8z"/>
<path d="M3684 6293 l-19 -58 -59 -5 c-33 -3 -61 -10 -63 -16 -4 -11 30 -49 67 -75 l23 -15 -16 -49 c-29 -85 -19 -95 47 -45 22 17 45 30 51 30 7 0 31 -13 53 -30 68 -49 85 -35 52 43 l-22 51 23 18 c66 49 79 61 79 75 0 13 -10 15 -60 10 -66 -6 -71 -3 -90 58 -26 82 -42 84 -66 8z"/>
<path d="M4527 6343 c-2 -5 -7 -21 -11 -38 -15 -61 -31 -75 -91 -75 -30 0 -57 -5 -61 -12 -7 -11 31 -51 71 -74 l19 -11 -17 -63 c-11 -37 -14 -67 -9 -72 5 -5 31 8 62 31 l52 40 50 -40 c59 -46 73 -49 64 -11 -4 15 -11 45 -16 67 l-9 40 46 41 c27 23 43 45 39 52 -4 6 -27 10 -55 9 -60 -3 -76 10 -91 73 -11 45 -31 64 -43 43z"/>
<path d="M8659 6023 l-3697 -3 -6 -23 c-9 -33 -7 -470 2 -485 7 -10 750 -13 3705 -15 l3697 -2 0 268 c0 147 -1 266 -2 265 -2 -2 -1666 -4 -3699 -5z"/>
<path d="M797 5950 c-3 -28 -9 -55 -12 -60 -3 -6 -35 -10 -71 -10 -54 0 -64 -3 -64 -17 0 -11 20 -29 50 -46 54 -30 57 -38 35 -77 -18 -31 -20 -90 -2 -90 6 0 31 16 55 35 l43 34 54 -35 c76 -48 89 -45 61 12 -37 74 -38 73 57 150 30 25 19 33 -50 36 l-68 3 -10 30 c-14 41 -45 85 -60 85 -7 0 -15 -20 -18 -50z"/>
<path d="M1623 5943 l-28 -58 -57 -3 c-72 -4 -74 -17 -12 -70 41 -34 45 -42 35 -60 -6 -11 -11 -31 -11 -44 0 -13 -5 -29 -12 -36 -8 -8 -8 -15 -2 -21 5 -6 24 1 49 20 69 49 75 50 119 13 47 -41 80 -46 67 -11 -4 12 -11 42 -15 67 l-7 46 46 34 c63 47 59 60 -19 60 -37 0 -68 5 -72 11 -4 6 -12 32 -18 57 -7 25 -17 47 -24 50 -6 2 -24 -23 -39 -55z"/>
<path d="M2450 5953 c-19 -68 -25 -73 -91 -73 -52 0 -59 -2 -59 -19 0 -11 8 -22 18 -26 9 -3 30 -16 46 -29 l29 -24 -18 -66 c-10 -37 -15 -69 -12 -72 5 -6 53 24 94 60 l23 19 40 -28 c22 -15 40 -32 40 -36 0 -5 9 -9 20 -9 19 0 20 4 14 38 -4 20 -11 45 -15 54 -16 31 -9 46 36 75 24 15 44 36 45 46 0 14 -9 17 -59 17 -66 0 -68 2 -91 70 -21 63 -44 64 -60 3z"/>
<path d="M3275 5953 c-10 -67 -17 -73 -91 -73 -36 0 -64 -4 -64 -10 0 -9 27 -36 80 -78 20 -16 22 -22 12 -34 -7 -8 -15 -36 -18 -62 -8 -58 7 -61 66 -11 25 21 47 32 54 27 6 -4 31 -20 54 -36 56 -38 68 -26 41 44 l-21 55 29 23 c15 13 38 33 51 43 35 30 27 38 -40 41 l-63 3 -27 58 c-34 71 -53 74 -63 10z"/>
<path d="M4111 5966 c-12 -18 -21 -40 -21 -48 0 -27 -24 -38 -81 -38 -63 0 -80 -11 -52 -34 87 -71 84 -67 77 -100 -3 -17 -13 -43 -22 -58 -9 -15 -13 -31 -9 -34 8 -8 48 10 86 38 34 25 48 23 98 -18 36 -29 47 -34 54 -23 9 16 3 51 -17 93 -8 16 -14 30 -14 32 0 2 21 18 48 35 84 58 82 67 -10 71 l-73 3 -9 58 c-11 66 -25 72 -55 23z"/>
<path d="M390 5603 c-15 -62 -25 -73 -69 -73 -91 0 -104 -24 -36 -64 50 -30 51 -31 30 -100 -8 -27 -15 -53 -15 -58 0 -14 41 2 76 28 40 31 53 30 99 -6 63 -50 80 -37 49 39 -21 53 -16 69 31 95 68 39 53 66 -36 66 -42 0 -51 9 -69 65 -12 37 -25 54 -41 55 -4 0 -12 -21 -19 -47z"/>
<path d="M1233 5638 c-4 -7 -15 -33 -24 -58 l-16 -45 -44 -3 c-59 -3 -89 -11 -89 -22 0 -5 21 -23 46 -41 42 -28 45 -34 40 -63 -18 -97 -19 -106 -4 -106 7 0 29 13 48 30 19 16 42 29 52 30 9 0 35 -16 58 -35 23 -19 46 -32 51 -29 15 9 10 64 -8 96 l-18 29 32 27 c17 15 42 35 55 44 20 15 21 19 8 28 -8 5 -38 10 -67 10 -57 0 -61 3 -77 68 -12 47 -28 62 -43 40z"/>
<path d="M2034 5593 l-9 -58 -61 -6 c-33 -3 -66 -9 -72 -13 -14 -9 -4 -36 14 -36 7 0 28 -13 45 -28 l31 -28 -16 -47 c-9 -26 -16 -54 -16 -62 0 -24 32 -17 70 15 19 17 40 30 47 30 6 0 32 -13 56 -30 69 -46 82 -38 52 33 -24 57 -19 74 25 99 39 23 56 45 44 57 -3 3 -31 8 -62 11 l-56 5 -25 50 c-24 47 -38 64 -52 65 -4 0 -11 -26 -15 -57z"/>
<path d="M2870 5607 c-10 -23 -21 -50 -24 -59 -4 -14 -17 -18 -58 -18 -29 0 -60 -5 -68 -10 -13 -9 -11 -14 10 -33 14 -12 37 -29 50 -38 l25 -16 -13 -44 c-31 -104 -28 -108 45 -59 24 17 50 30 57 30 7 0 30 -14 51 -30 21 -17 43 -29 49 -27 13 5 10 50 -6 90 -9 24 -8 31 12 52 12 13 32 26 45 29 21 5 41 33 31 43 -2 2 -30 7 -62 10 -33 3 -64 10 -71 15 -7 5 -15 29 -19 53 -9 60 -30 65 -54 12z"/>
<path d="M3691 5613 c-5 -21 -11 -47 -13 -58 -3 -17 -13 -21 -63 -25 -90 -8 -111 -29 -52 -53 17 -8 41 -24 51 -36 18 -20 18 -23 3 -58 -36 -84 -14 -106 52 -54 21 17 45 31 52 31 8 -1 30 -14 49 -30 59 -51 72 -36 48 56 l-13 46 27 22 c15 11 37 28 50 37 32 23 17 33 -55 39 l-61 5 -11 35 c-13 45 -33 80 -45 80 -5 0 -14 -17 -19 -37z"/>
<path d="M4512 5603 c-17 -62 -27 -73 -71 -73 -88 0 -106 -27 -41 -60 48 -25 55 -38 42 -82 -30 -99 -23 -109 44 -58 49 37 68 37 111 0 58 -51 78 -36 48 37 -24 56 -19 70 30 99 68 40 55 64 -36 64 -41 0 -49 8 -68 65 -12 36 -26 54 -41 55 -3 0 -12 -21 -18 -47z"/>
<path d="M1654 5302 c-6 -4 -18 -28 -28 -54 -22 -60 -37 -72 -85 -65 -21 2 -44 1 -51 -3 -21 -13 -6 -44 29 -61 49 -23 54 -40 32 -100 -30 -77 -13 -89 53 -39 48 36 60 37 102 5 47 -36 68 -34 60 8 -19 93 -19 94 9 113 78 55 79 74 4 74 -72 0 -86 11 -94 70 -7 52 -14 63 -31 52z"/>
<path d="M2468 5303 c-3 -4 -11 -28 -18 -53 -19 -64 -24 -67 -85 -67 -31 0 -58 -3 -61 -6 -11 -10 16 -45 51 -67 38 -24 44 -48 20 -90 -35 -61 -5 -83 54 -39 51 36 62 36 105 -1 53 -47 86 -21 51 40 -25 43 -19 68 23 94 40 25 68 53 60 61 -3 3 -34 6 -69 8 l-64 2 -21 60 c-20 55 -37 77 -46 58z"/>
<path d="M806 5283 c-2 -10 -7 -32 -11 -50 -9 -44 -26 -54 -84 -52 -28 2 -53 0 -56 -3 -11 -11 8 -37 47 -63 43 -29 42 -25 22 -122 -5 -28 -3 -33 13 -33 11 0 28 9 39 21 38 42 51 42 101 4 25 -19 49 -35 54 -35 19 0 20 26 3 77 l-19 55 25 19 c65 48 80 61 80 70 0 5 -29 9 -65 9 l-66 0 -26 60 c-25 60 -47 76 -57 43z"/>
<path d="M3275 5250 c-8 -60 -22 -70 -99 -70 -31 0 -56 -4 -56 -8 0 -13 23 -37 58 -61 35 -25 38 -39 20 -106 -7 -24 -9 -48 -5 -51 4 -4 26 6 50 23 23 16 47 33 54 36 6 4 32 -9 57 -28 26 -19 50 -35 55 -35 19 0 21 20 6 49 -8 17 -15 46 -15 65 0 31 4 38 35 50 67 28 54 81 -16 70 -42 -7 -79 14 -79 43 0 24 -30 73 -44 73 -9 0 -17 -18 -21 -50z"/>
<path d="M4098 5240 l-26 -59 -69 -3 -68 -3 31 -30 c17 -16 42 -37 55 -46 l24 -17 -13 -43 c-24 -82 -25 -89 -10 -89 8 0 32 13 54 30 48 36 64 37 102 5 17 -14 38 -25 47 -25 15 0 16 6 10 38 -4 20 -9 49 -12 63 -4 22 2 31 38 56 59 39 63 63 12 64 -104 2 -97 -1 -109 59 -14 75 -32 75 -66 0z"/>
<path d="M4960 5001 c-12 -23 -14 -470 -2 -489 7 -10 748 -13 3705 -15 l3697 -2 0 263 0 262 -3695 0 -3694 0 -11 -19z"/>
<path d="M1232 4947 c-6 -6 -14 -26 -17 -42 -15 -63 -30 -75 -95 -75 -85 0 -82 -12 24 -84 l20 -13 -22 -59 c-31 -85 -20 -94 53 -38 l47 36 54 -38 c30 -20 57 -34 61 -30 3 3 -1 33 -11 67 -17 62 -11 89 18 89 17 0 71 58 62 67 -4 4 -35 7 -68 8 l-62 0 -18 63 c-19 63 -27 72 -46 49z"/>
<path d="M3694 4933 c-3 -16 -11 -44 -18 -63 l-12 -35 -64 -1 c-51 0 -64 -4 -62 -15 3 -15 46 -57 77 -75 l18 -10 -16 -49 c-19 -55 -22 -85 -7 -85 5 0 30 16 56 35 42 33 47 34 72 21 15 -8 36 -23 46 -35 39 -42 64 -21 41 35 -25 60 -20 80 30 114 63 44 59 58 -17 62 -55 3 -64 6 -74 28 -52 113 -59 120 -70 73z"/>
<path d="M400 4924 c-6 -14 -10 -32 -10 -40 0 -8 -9 -23 -21 -35 -16 -16 -31 -20 -72 -18 -69 4 -72 -16 -12 -61 25 -18 45 -39 45 -45 0 -7 -7 -34 -15 -61 -8 -27 -15 -52 -15 -56 0 -18 31 -6 74 27 l46 35 46 -35 c25 -19 51 -35 58 -35 22 0 27 13 13 34 -8 12 -17 40 -20 63 -6 37 -4 44 15 54 34 17 68 51 68 66 0 9 -16 13 -55 13 -66 0 -89 18 -99 78 -7 48 -31 57 -46 16z"/>
<path d="M2038 4905 c-8 -66 -22 -78 -86 -73 -42 4 -55 1 -60 -10 -5 -15 31 -54 73 -78 17 -10 18 -15 7 -51 -15 -49 -16 -93 -2 -93 5 0 27 16 49 35 21 19 42 35 45 35 4 0 28 -16 53 -35 25 -19 52 -35 59 -35 16 0 19 31 5 46 -5 5 -12 28 -16 50 l-6 42 43 29 c66 44 63 61 -14 65 -59 3 -64 5 -76 33 -26 62 -38 80 -53 83 -12 2 -18 -8 -21 -43z"/>
<path d="M2864 4903 c-25 -68 -29 -72 -92 -75 -31 -2 -57 -8 -59 -15 -2 -6 17 -26 42 -43 l47 -32 -7 -47 c-4 -25 -13 -53 -21 -62 -8 -8 -14 -19 -14 -22 0 -20 77 10 100 38 20 24 54 18 85 -15 51 -53 64 -37 46 57 l-8 42 49 42 c27 22 47 46 45 53 -2 7 -24 10 -61 8 -33 -2 -62 1 -70 8 -8 6 -17 33 -21 61 -9 67 -36 68 -61 2z"/>
<path d="M4520 4924 c-6 -14 -10 -31 -10 -37 0 -7 -7 -23 -16 -36 -14 -20 -23 -22 -72 -19 -80 5 -78 -14 7 -80 l25 -19 -17 -62 c-9 -33 -17 -63 -17 -66 0 -15 34 -1 75 30 l46 35 46 -35 c25 -19 51 -35 58 -35 21 0 25 13 12 34 -8 12 -17 40 -20 63 -6 37 -4 44 15 54 34 17 68 51 68 66 0 9 -17 13 -59 13 -67 0 -75 6 -91 73 -14 52 -35 62 -50 21z"/>
<path d="M797 4550 c-3 -28 -9 -55 -12 -60 -3 -6 -35 -10 -71 -10 -54 0 -64 -3 -64 -17 0 -11 20 -29 50 -46 54 -30 57 -38 35 -77 -17 -29 -20 -90 -4 -90 5 0 31 16 56 35 25 19 51 32 57 28 6 -4 30 -20 52 -35 48 -32 69 -36 59 -10 -4 9 -14 37 -23 61 l-15 44 35 32 c19 18 40 34 46 36 6 2 12 11 14 19 2 12 -11 16 -62 20 -62 5 -66 7 -75 35 -14 41 -45 85 -60 85 -7 0 -15 -20 -18 -50z"/>
<path d="M1623 4543 l-28 -58 -57 -3 c-72 -4 -74 -17 -15 -66 l44 -36 -11 -42 c-6 -24 -15 -49 -19 -55 -8 -13 -1 -33 11 -33 4 0 32 16 61 35 l54 34 40 -34 c57 -49 70 -47 61 13 -3 26 -10 54 -15 64 -7 12 2 25 41 54 68 52 65 64 -14 64 -37 0 -68 5 -72 11 -4 6 -12 32 -18 57 -7 25 -17 47 -24 50 -6 2 -24 -23 -39 -55z"/>
<path d="M2450 4553 c-19 -68 -25 -73 -91 -73 -50 0 -59 -3 -59 -17 1 -10 21 -31 45 -46 45 -29 53 -44 36 -75 -14 -28 -24 -102 -13 -102 5 0 32 18 58 40 27 22 52 40 56 40 4 0 25 -16 47 -35 53 -48 74 -47 65 3 -4 20 -11 45 -15 54 -16 31 -9 46 36 75 24 15 44 36 45 46 0 14 -9 17 -59 17 -66 0 -68 2 -91 70 -21 63 -44 64 -60 3z"/>
<path d="M3287 4593 c-3 -5 -8 -26 -12 -48 -11 -59 -20 -65 -91 -65 -79 0 -82 -12 -14 -64 27 -21 47 -42 44 -48 -3 -5 -12 -34 -19 -64 -11 -50 -11 -54 5 -54 10 0 37 16 60 35 23 19 47 32 53 28 7 -3 31 -20 55 -36 56 -40 68 -28 41 43 l-21 55 29 23 c15 13 38 33 51 43 35 30 27 38 -44 41 l-65 3 -22 54 c-21 52 -39 72 -50 54z"/>
<path d="M4117 4577 c-9 -13 -22 -40 -31 -60 l-15 -37 -60 0 c-61 0 -82 -10 -59 -29 83 -67 89 -74 83 -100 -3 -14 -13 -39 -21 -55 -13 -28 -19 -56 -10 -56 2 0 28 16 57 35 30 19 59 35 66 35 7 0 32 -13 55 -30 55 -40 72 -40 63 3 -4 17 -13 45 -21 61 -8 16 -14 30 -14 31 0 2 25 22 56 45 31 23 52 46 47 51 -4 4 -37 9 -73 11 l-65 3 -9 58 c-10 62 -24 72 -49 34z"/>
<path d="M2047 4253 c-2 -4 -8 -28 -12 -53 -10 -61 -20 -70 -75 -70 -88 0 -103 -18 -42 -49 62 -32 68 -43 48 -102 -29 -91 -15 -102 54 -44 23 19 45 35 49 35 4 0 29 -16 55 -37 58 -45 77 -36 52 27 -24 61 -21 77 24 106 56 37 50 58 -19 64 l-53 5 -28 54 c-32 61 -45 77 -53 64z"/>
<path d="M392 4203 c-18 -64 -27 -73 -81 -73 -25 0 -53 -5 -61 -10 -16 -11 -2 -26 62 -71 l23 -16 -18 -55 c-9 -30 -17 -58 -17 -61 0 -14 29 -6 64 18 44 30 72 32 100 7 12 -10 33 -23 49 -30 33 -14 35 -2 12 55 -23 54 -19 70 24 97 70 45 63 66 -21 66 -51 0 -56 4 -78 70 -21 62 -42 63 -58 3z"/>
<path d="M1233 4238 c-6 -7 -18 -33 -26 -58 l-15 -45 -60 -5 c-91 -8 -92 -13 -7 -74 23 -15 26 -23 20 -50 -24 -119 -18 -128 54 -71 41 33 46 34 65 20 50 -37 82 -55 91 -52 13 5 7 44 -12 80 -19 38 -9 61 40 94 22 16 40 33 39 38 -1 6 -28 11 -59 13 -32 2 -62 7 -66 11 -4 4 -13 30 -20 56 -13 51 -27 64 -44 43z"/>
<path d="M2865 4203 c-25 -67 -30 -72 -88 -75 -65 -4 -74 -26 -22 -57 47 -27 52 -45 31 -104 -23 -65 -11 -75 45 -37 54 36 78 38 109 5 13 -14 32 -25 43 -25 17 0 18 5 13 43 -13 89 -13 89 29 118 57 39 52 53 -17 57 -31 2 -61 8 -66 15 -6 7 -14 32 -19 57 -12 63 -35 64 -58 3z"/>
<path d="M3689 4208 c-18 -70 -21 -73 -85 -78 -72 -6 -77 -22 -16 -63 45 -31 50 -43 28 -85 -18 -35 -24 -74 -11 -79 9 -3 41 15 91 52 20 15 24 14 68 -20 61 -46 70 -45 62 8 -15 96 -14 99 29 128 56 38 52 53 -15 56 -73 4 -74 4 -89 54 -24 80 -45 89 -62 27z"/>
<path d="M4512 4203 c-18 -64 -27 -73 -81 -73 -25 0 -53 -5 -61 -10 -16 -11 -2 -26 62 -71 l23 -16 -18 -55 c-9 -30 -17 -58 -17 -61 0 -15 38 -5 70 18 40 30 66 32 94 7 12 -10 33 -23 49 -30 33 -14 34 -7 11 59 -21 57 -16 71 36 104 61 38 51 51 -45 57 l-40 3 -22 55 c-28 71 -45 74 -61 13z"/>
<path d="M4960 4000 c-11 -20 -15 -457 -4 -484 6 -15 341 -16 3705 -16 l3699 0 0 260 0 260 -3695 0 -3694 0 -11 -20z"/>
<path d="M1653 3902 c-6 -4 -17 -27 -24 -51 -16 -53 -47 -76 -91 -67 -66 12 -79 -36 -19 -66 50 -25 54 -39 31 -100 -26 -69 -14 -79 48 -39 27 17 56 31 64 31 8 0 32 -13 53 -30 44 -35 60 -30 50 14 -19 96 -20 93 23 123 40 27 58 51 47 61 -3 3 -32 7 -66 8 -33 2 -64 6 -69 9 -5 3 -12 28 -16 56 -7 52 -13 62 -31 51z"/>
<path d="M4135 3902 c-6 -4 -23 -33 -38 -66 l-28 -59 -43 6 c-23 3 -52 4 -64 0 -30 -7 -14 -35 38 -68 46 -29 49 -48 21 -112 -17 -36 -17 -42 -4 -47 8 -4 33 7 56 24 50 37 67 37 105 5 17 -14 38 -25 47 -25 15 0 16 6 10 38 -4 20 -9 49 -12 64 -4 23 1 30 36 53 40 25 60 50 48 61 -3 3 -32 8 -64 11 -32 2 -62 8 -67 13 -4 4 -11 29 -13 54 -6 48 -12 59 -28 48z"/>
<path d="M807 3893 c-4 -3 -7 -18 -7 -32 0 -14 -6 -37 -13 -50 -11 -22 -19 -25 -72 -25 -53 -1 -60 -3 -60 -21 0 -12 17 -31 43 -48 47 -32 46 -27 26 -124 -8 -43 15 -44 63 -3 18 17 37 30 41 30 4 0 27 -16 51 -35 48 -38 50 -39 69 -26 12 7 11 13 -1 37 -8 16 -17 44 -20 62 -6 29 -3 34 31 56 44 28 68 54 58 64 -4 4 -35 6 -67 5 l-60 -3 -26 60 c-24 55 -39 70 -56 53z"/>
<path d="M2450 3853 c-18 -67 -26 -74 -71 -67 -21 4 -50 3 -64 0 -24 -6 -25 -8 -11 -27 8 -12 30 -32 50 -45 39 -27 45 -52 21 -94 -35 -61 -5 -83 54 -39 51 37 67 36 106 -1 50 -49 85 -21 50 40 -25 43 -19 68 23 94 42 26 68 54 59 63 -4 3 -35 6 -69 7 l-63 1 -20 58 c-25 73 -47 76 -65 10z"/>
<path d="M3275 3849 c-6 -42 -11 -52 -34 -60 -14 -6 -42 -8 -61 -5 -71 11 -76 -26 -8 -64 l40 -23 -6 -41 c-3 -22 -9 -56 -12 -73 -8 -42 2 -42 60 3 l47 36 40 -29 c22 -15 46 -32 54 -38 26 -18 39 9 21 43 -9 17 -16 46 -16 65 0 28 6 38 38 58 22 15 37 32 37 44 0 18 -6 20 -50 17 -59 -4 -75 9 -94 76 -8 30 -17 42 -30 42 -15 0 -21 -10 -26 -51z"/>
<path d="M1226 3531 c-9 -16 -16 -36 -16 -44 0 -7 -6 -21 -13 -32 -11 -15 -26 -18 -75 -16 -54 1 -62 -1 -62 -16 0 -10 19 -30 45 -46 25 -16 47 -33 51 -38 3 -5 -4 -35 -16 -66 -28 -75 -16 -84 50 -37 36 26 56 35 66 28 7 -5 31 -22 54 -38 22 -16 43 -26 47 -22 3 3 1 27 -6 54 -19 71 -18 85 4 96 39 20 75 54 75 70 0 13 -12 16 -64 16 -37 0 -68 5 -72 11 -4 6 -12 32 -18 57 -15 56 -30 63 -50 23z"/>
<path d="M2045 3547 c-3 -6 -9 -32 -13 -57 l-7 -45 -73 -3 c-39 -2 -72 -7 -72 -12 0 -9 28 -36 79 -77 22 -18 23 -23 13 -53 -15 -41 -16 -100 -2 -100 5 0 27 16 49 35 21 19 42 35 46 35 4 0 30 -16 56 -35 76 -54 78 -52 48 54 -12 42 -11 45 12 63 58 47 79 69 74 78 -4 6 -35 10 -71 10 -53 0 -66 3 -70 18 -25 77 -58 120 -69 89z"/>
<path d="M2888 3546 c-13 -13 -26 -41 -42 -88 -4 -13 -19 -18 -68 -20 -80 -4 -87 -22 -22 -63 l46 -29 -7 -45 c-4 -24 -14 -55 -22 -68 -27 -41 10 -40 67 1 27 20 53 36 56 36 3 0 24 -16 47 -35 22 -19 45 -35 50 -35 10 0 5 96 -6 120 -5 11 8 27 43 55 27 22 50 45 50 52 0 8 -23 13 -72 15 l-73 3 -10 52 c-12 61 -18 69 -37 49z"/>
<path d="M3690 3518 c-17 -70 -20 -73 -94 -76 -82 -4 -86 -18 -16 -68 28 -20 50 -39 50 -42 0 -4 -7 -25 -15 -47 -17 -48 -19 -85 -4 -85 6 0 30 16 53 35 24 19 47 35 51 35 4 0 29 -15 55 -34 58 -42 75 -34 54 26 -23 66 -19 82 31 114 27 17 45 35 45 47 0 16 -7 18 -58 16 -33 -1 -64 1 -70 5 -6 4 -17 26 -23 49 -21 78 -43 87 -59 25z"/>
<path d="M4534 3552 c-5 -4 -16 -29 -25 -57 l-15 -50 -67 -3 c-82 -4 -85 -15 -21 -70 l46 -39 -16 -62 c-9 -35 -16 -65 -16 -67 0 -12 48 11 78 37 39 35 53 36 78 8 44 -49 111 -61 81 -16 -8 12 -16 41 -19 64 l-6 43 49 36 c28 20 48 41 46 48 -2 6 -34 13 -72 16 l-69 5 -16 52 c-17 58 -21 65 -36 55z"/>
<path d="M405 3538 c-3 -7 -11 -31 -18 -53 l-14 -40 -66 -3 c-82 -4 -85 -15 -21 -70 l46 -39 -16 -63 c-9 -35 -14 -65 -12 -67 5 -6 53 21 89 49 30 24 27 25 91 -26 43 -34 78 -30 54 7 -8 12 -17 41 -20 64 l-6 43 49 36 c28 20 48 41 46 48 -2 6 -34 13 -73 16 l-69 5 -14 53 c-13 49 -36 69 -46 40z"/>
<path d="M2 2770 c0 -14 2 -19 5 -12 2 6 2 18 0 25 -3 6 -5 1 -5 -13z"/>
<path d="M0 2000 l0 -500 6180 0 6180 0 0 260 0 260 -6164 0 c-4159 0 -6167 3 -6171 10 -4 6 -6 114 -5 240 0 152 -3 230 -10 230 -7 0 -10 -163 -10 -500z"/>
<path d="M0 748 l0 -748 63 1 62 1 -42 11 c-23 7 -47 17 -53 23 -7 7 -9 87 -8 235 l3 224 6168 3 6167 2 0 260 0 260 -6167 0 c-3391 0 -6168 2 -6171 4 -2 3 -4 103 -3 223 1 130 -3 224 -9 233 -6 10 -10 -233 -10 -732z"/>
<path d="M12283 20 c-35 -14 -27 -20 27 -20 38 0 50 4 50 15 0 17 -41 19 -77 5z"/>
</g>
</g>
  <g id="id1:id1" transform="matrix(1.25,0,0,1.25,0.0,0.0)"><g transform="translate(0.000000,260.800000) scale(0.040000,-0.040000)" fill="#0721a9" stroke="none">
<path d="M0 6461 c0 -12 5 -21 10 -21 6 0 10 6 10 14 0 8 -4 18 -10 21 -5 3 -10 -3 -10 -14z"/>
<path d="M2040 6330 c0 -5 7 -10 15 -10 8 0 15 5 15 10 0 6 -7 10 -15 10 -8 0 -15 -4 -15 -10z"/>
<path d="M2890 6330 c0 -5 5 -10 10 -10 6 0 10 5 10 10 0 6 -4 10 -10 10 -5 0 -10 -4 -10 -10z"/>
<path d="M460 6230 c0 -5 5 -10 10 -10 6 0 10 5 10 10 0 6 -4 10 -10 10 -5 0 -10 -4 -10 -10z"/>
<path d="M2020 6230 c0 -5 5 -10 10 -10 6 0 10 5 10 10 0 6 -4 10 -10 10 -5 0 -10 -4 -10 -10z"/>
<path d="M2100 6230 c0 -5 5 -10 10 -10 6 0 10 5 10 10 0 6 -4 10 -10 10 -5 0 -10 -4 -10 -10z"/>
<path d="M3660 6230 c0 -5 5 -10 10 -10 6 0 10 5 10 10 0 6 -4 10 -10 10 -5 0 -10 -4 -10 -10z"/>
<path d="M4580 6230 c0 -5 5 -10 10 -10 6 0 10 5 10 10 0 6 -4 10 -10 10 -5 0 -10 -4 -10 -10z"/>
<path d="M3540 6215 c0 -8 5 -15 10 -15 6 0 10 7 10 15 0 8 -4 15 -10 15 -5 0 -10 -7 -10 -15z"/>
<path d="M1140 6150 c0 -5 5 -10 10 -10 6 0 10 5 10 10 0 6 -4 10 -10 10 -5 0 -10 -4 -10 -10z"/>
<path d="M1960 6150 c0 -5 5 -10 10 -10 6 0 10 5 10 10 0 6 -4 10 -10 10 -5 0 -10 -4 -10 -10z"/>
<path d="M3800 6150 c0 -5 5 -10 10 -10 6 0 10 5 10 10 0 6 -4 10 -10 10 -5 0 -10 -4 -10 -10z"/>
<path d="M1320 6110 c0 -16 5 -30 10 -30 6 0 10 14 10 30 0 17 -4 30 -10 30 -5 0 -10 -13 -10 -30z"/>
<path d="M500 6110 c0 -5 5 -10 10 -10 6 0 10 5 10 10 0 6 -4 10 -10 10 -5 0 -10 -4 -10 -10z"/>
<path d="M4620 6110 c0 -5 5 -10 10 -10 6 0 10 5 10 10 0 6 -4 10 -10 10 -5 0 -10 -4 -10 -10z"/>
<path d="M410 6072 c0 -10 41 -35 47 -28 9 8 -17 36 -33 36 -8 0 -14 -3 -14 -8z"/>
<path d="M1230 6070 c0 -5 7 -10 15 -10 8 0 15 5 15 10 0 6 -7 10 -15 10 -8 0 -15 -4 -15 -10z"/>
<path d="M2880 6070 c0 -5 5 -10 10 -10 6 0 10 5 10 10 0 6 -4 10 -10 10 -5 0 -10 -4 -10 -10z"/>
<path d="M4530 6070 c0 -5 7 -10 15 -10 8 0 15 5 15 10 0 6 -7 10 -15 10 -8 0 -15 -4 -15 -10z"/>
<path d="M2980 6060 c0 -5 5 -10 10 -10 6 0 10 5 10 10 0 6 -4 10 -10 10 -5 0 -10 -4 -10 -10z"/>
<path d="M2920 6051 c0 -5 7 -11 14 -14 10 -4 13 -1 9 9 -6 15 -23 19 -23 5z"/>
<path d="M3740 6050 c0 -5 5 -10 10 -10 6 0 10 5 10 10 0 6 -4 10 -10 10 -5 0 -10 -4 -10 -10z"/>
<path d="M1291 6034 c13 -16 29 -19 29 -5 0 5 -9 11 -21 14 -16 4 -18 3 -8 -9z"/>
<path d="M1125 6030 c3 -5 8 -10 11 -10 2 0 4 5 4 10 0 6 -5 10 -11 10 -5 0 -7 -4 -4 -10z"/>
<path d="M2775 6020 c-3 -5 -1 -10 4 -10 6 0 11 5 11 10 0 6 -2 10 -4 10 -3 0 -8 -4 -11 -10z"/>
<path d="M1660 5990 c0 -5 5 -10 10 -10 6 0 10 5 10 10 0 6 -4 10 -10 10 -5 0 -10 -4 -10 -10z"/>
<path d="M2480 5990 c0 -5 5 -10 10 -10 6 0 10 5 10 10 0 6 -4 10 -10 10 -5 0 -10 -4 -10 -10z"/>
<path d="M860 5905 c0 -8 5 -15 10 -15 6 0 10 7 10 15 0 8 -4 15 -10 15 -5 0 -10 -7 -10 -15z"/>
<path d="M4080 5900 c0 -5 5 -10 10 -10 6 0 10 5 10 10 0 6 -4 10 -10 10 -5 0 -10 -4 -10 -10z"/>
<path d="M1710 5870 c0 -5 14 -10 30 -10 17 0 30 5 30 10 0 6 -13 10 -30 10 -16 0 -30 -4 -30 -10z"/>
<path d="M2370 5870 c0 -5 9 -10 20 -10 11 0 20 5 20 10 0 6 -9 10 -20 10 -11 0 -20 -4 -20 -10z"/>
<path d="M4180 5870 c0 -5 5 -10 10 -10 6 0 10 5 10 10 0 6 -4 10 -10 10 -5 0 -10 -4 -10 -10z"/>
<path d="M2640 5849 c0 -5 5 -7 10 -4 6 3 10 8 10 11 0 2 -4 4 -10 4 -5 0 -10 -5 -10 -11z"/>
<path d="M710 5812 c0 -10 41 -35 47 -28 9 8 -17 36 -33 36 -8 0 -14 -3 -14 -8z"/>
<path d="M2360 5810 c0 -5 5 -10 10 -10 6 0 10 5 10 10 0 6 -4 10 -10 10 -5 0 -10 -4 -10 -10z"/>
<path d="M1560 5790 c0 -5 5 -10 10 -10 6 0 10 5 10 10 0 6 -4 10 -10 10 -5 0 -10 -4 -10 -10z"/>
<path d="M3380 5760 c0 -5 5 -10 10 -10 6 0 10 5 10 10 0 6 -4 10 -10 10 -5 0 -10 -4 -10 -10z"/>
<path d="M4200 5763 c1 -14 30 -47 36 -41 6 7 -17 48 -28 48 -5 0 -8 -3 -8 -7z"/>
<path d="M732 5748 c-14 -14 -16 -28 -3 -28 5 0 11 9 14 20 6 23 5 24 -11 8z"/>
<path d="M2560 5750 c0 -5 5 -10 10 -10 6 0 10 5 10 10 0 6 -4 10 -10 10 -5 0 -10 -4 -10 -10z"/>
<path d="M3200 5730 c0 -5 5 -10 10 -10 6 0 10 5 10 10 0 6 -4 10 -10 10 -5 0 -10 -4 -10 -10z"/>
<path d="M3320 5711 c0 -13 29 -35 37 -28 7 8 -15 37 -28 37 -5 0 -9 -4 -9 -9z"/>
<path d="M1760 5660 c0 -11 5 -20 10 -20 6 0 10 9 10 20 0 11 -4 20 -10 20 -5 0 -10 -9 -10 -20z"/>
<path d="M2365 5670 c3 -5 8 -10 11 -10 2 0 4 5 4 10 0 6 -5 10 -11 10 -5 0 -7 -4 -4 -10z"/>
<path d="M3180 5670 c0 -5 5 -10 10 -10 6 0 10 5 10 10 0 6 -4 10 -10 10 -5 0 -10 -4 -10 -10z"/>
<path d="M3400 5650 c0 -5 5 -10 10 -10 6 0 10 5 10 10 0 6 -4 10 -10 10 -5 0 -10 -4 -10 -10z"/>
<path d="M2050 5630 c0 -5 7 -10 15 -10 8 0 15 5 15 10 0 6 -7 10 -15 10 -8 0 -15 -4 -15 -10z"/>
<path d="M3680 5580 c0 -11 5 -20 10 -20 6 0 10 9 10 20 0 11 -4 20 -10 20 -5 0 -10 -9 -10 -20z"/>
<path d="M2100 5550 c0 -5 5 -10 10 -10 6 0 10 5 10 10 0 6 -4 10 -10 10 -5 0 -10 -4 -10 -10z"/>
<path d="M3740 5550 c0 -5 5 -10 10 -10 6 0 10 5 10 10 0 6 -4 10 -10 10 -5 0 -10 -4 -10 -10z"/>
<path d="M3545 5500 c3 -5 8 -10 11 -10 2 0 4 5 4 10 0 6 -5 10 -11 10 -5 0 -7 -4 -4 -10z"/>
<path d="M540 5470 c0 -5 5 -10 10 -10 6 0 10 5 10 10 0 6 -4 10 -10 10 -5 0 -10 -4 -10 -10z"/>
<path d="M1960 5450 c0 -5 5 -10 10 -10 6 0 10 5 10 10 0 6 -4 10 -10 10 -5 0 -10 -4 -10 -10z"/>
<path d="M2780 5451 c0 -5 7 -11 14 -14 10 -4 13 -1 9 9 -6 15 -23 19 -23 5z"/>
<path d="M500 5390 c0 -5 5 -10 10 -10 6 0 10 5 10 10 0 6 -4 10 -10 10 -5 0 -10 -4 -10 -10z"/>
<path d="M4620 5390 c0 -5 5 -10 10 -10 6 0 10 5 10 10 0 6 -4 10 -10 10 -5 0 -10 -4 -10 -10z"/>
<path d="M1340 5370 c0 -5 5 -10 10 -10 6 0 10 5 10 10 0 6 -4 10 -10 10 -5 0 -10 -4 -10 -10z"/>
<path d="M1960 5370 c0 -5 5 -10 10 -10 6 0 10 5 10 10 0 6 -4 10 -10 10 -5 0 -10 -4 -10 -10z"/>
<path d="M4530 5370 c0 -5 7 -10 15 -10 8 0 15 5 15 10 0 6 -7 10 -15 10 -8 0 -15 -4 -15 -10z"/>
<path d="M2920 5350 c0 -5 5 -10 10 -10 6 0 10 5 10 10 0 6 -4 10 -10 10 -5 0 -10 -4 -10 -10z"/>
<path d="M520 5315 c0 -8 5 -15 10 -15 6 0 10 7 10 15 0 8 -4 15 -10 15 -5 0 -10 -7 -10 -15z"/>
<path d="M4640 5320 c0 -5 5 -10 10 -10 6 0 10 5 10 10 0 6 -4 10 -10 10 -5 0 -10 -4 -10 -10z"/>
<path d="M1940 5310 c0 -5 5 -10 10 -10 6 0 10 5 10 10 0 6 -4 10 -10 10 -5 0 -10 -4 -10 -10z"/>
<path d="M2160 5310 c0 -5 5 -10 10 -10 6 0 10 5 10 10 0 6 -4 10 -10 10 -5 0 -10 -4 -10 -10z"/>
<path d="M2780 5310 c0 -5 5 -10 10 -10 6 0 10 5 10 10 0 6 -4 10 -10 10 -5 0 -10 -4 -10 -10z"/>
<path d="M2990 5310 c0 -5 5 -10 10 -10 6 0 10 5 10 10 0 6 -4 10 -10 10 -5 0 -10 -4 -10 -10z"/>
<path d="M4140 5290 c0 -5 5 -10 10 -10 6 0 10 5 10 10 0 6 -4 10 -10 10 -5 0 -10 -4 -10 -10z"/>
<path d="M800 5250 c0 -5 5 -10 10 -10 6 0 10 5 10 10 0 6 -4 10 -10 10 -5 0 -10 -4 -10 -10z"/>
<path d="M3340 5190 c0 -5 5 -10 10 -10 6 0 10 5 10 10 0 6 -4 10 -10 10 -5 0 -10 -4 -10 -10z"/>
<path d="M730 5170 c0 -5 7 -10 15 -10 8 0 15 5 15 10 0 6 -7 10 -15 10 -8 0 -15 -4 -15 -10z"/>
<path d="M1760 5170 c0 -5 9 -10 20 -10 11 0 20 5 20 10 0 6 -9 10 -20 10 -11 0 -20 -4 -20 -10z"/>
<path d="M2540 5170 c0 -5 5 -10 10 -10 6 0 10 5 10 10 0 6 -4 10 -10 10 -5 0 -10 -4 -10 -10z"/>
<path d="M3200 5170 c0 -5 7 -10 15 -10 8 0 15 5 15 10 0 6 -7 10 -15 10 -8 0 -15 -4 -15 -10z"/>
<path d="M4250 5170 c0 -5 7 -10 16 -10 8 0 12 5 9 10 -3 6 -10 10 -16 10 -5 0 -9 -4 -9 -10z"/>
<path d="M1540 5110 c0 -5 5 -10 10 -10 6 0 10 5 10 10 0 6 -4 10 -10 10 -5 0 -10 -4 -10 -10z"/>
<path d="M2580 5110 c0 -5 5 -10 10 -10 6 0 10 5 10 10 0 6 -4 10 -10 10 -5 0 -10 -4 -10 -10z"/>
<path d="M3400 5110 c0 -5 5 -10 10 -10 6 0 10 5 10 10 0 6 -4 10 -10 10 -5 0 -10 -4 -10 -10z"/>
<path d="M3380 5070 c0 -5 5 -10 10 -10 6 0 10 5 10 10 0 6 -4 10 -10 10 -5 0 -10 -4 -10 -10z"/>
<path d="M4200 5065 c0 -8 5 -15 10 -15 6 0 10 7 10 15 0 8 -4 15 -10 15 -5 0 -10 -7 -10 -15z"/>
<path d="M1740 5030 c0 -5 5 -10 10 -10 6 0 10 5 10 10 0 6 -4 10 -10 10 -5 0 -10 -4 -10 -10z"/>
<path d="M815 5020 c-3 -6 1 -7 9 -4 18 7 21 14 7 14 -6 0 -13 -4 -16 -10z"/>
<path d="M1670 5012 c0 -11 41 -34 48 -28 3 4 -3 13 -14 21 -21 16 -34 19 -34 7z"/>
<path d="M2500 5010 c0 -5 5 -10 10 -10 6 0 10 5 10 10 0 6 -4 10 -10 10 -5 0 -10 -4 -10 -10z"/>
<path d="M900 4970 c0 -5 5 -10 10 -10 6 0 10 5 10 10 0 6 -4 10 -10 10 -5 0 -10 -4 -10 -10z"/>
<path d="M4205 4970 c3 -5 10 -10 16 -10 5 0 9 5 9 10 0 6 -7 10 -16 10 -8 0 -12 -4 -9 -10z"/>
<path d="M2040 4940 c0 -13 5 -20 13 -17 6 2 12 10 12 17 0 7 -6 15 -12 18 -8 2 -13 -5 -13 -18z"/>
<path d="M3680 4885 c0 -8 5 -15 10 -15 6 0 10 7 10 15 0 8 -4 15 -10 15 -5 0 -10 -7 -10 -15z"/>
<path d="M3740 4870 c0 -5 5 -10 10 -10 6 0 10 5 10 10 0 6 -4 10 -10 10 -5 0 -10 -4 -10 -10z"/>
<path d="M257 4833 c-4 -3 -7 -11 -7 -17 0 -6 5 -5 12 2 6 6 9 14 7 17 -3 3 -9 2 -12 -2z"/>
<path d="M460 4830 c0 -5 5 -10 10 -10 6 0 10 5 10 10 0 6 -4 10 -10 10 -5 0 -10 -4 -10 -10z"/>
<path d="M1180 4830 c0 -5 5 -10 10 -10 6 0 10 5 10 10 0 6 -4 10 -10 10 -5 0 -10 -4 -10 -10z"/>
<path d="M2930 4830 c0 -5 7 -10 15 -10 8 0 15 5 15 10 0 6 -7 10 -15 10 -8 0 -15 -4 -15 -10z"/>
<path d="M3030 4830 c0 -5 5 -10 10 -10 6 0 10 5 10 10 0 6 -4 10 -10 10 -5 0 -10 -4 -10 -10z"/>
<path d="M4365 4829 c-4 -6 -5 -12 -2 -15 7 -7 37 7 37 17 0 13 -27 11 -35 -2z"/>
<path d="M4480 4830 c0 -5 5 -10 10 -10 6 0 10 5 10 10 0 6 -4 10 -10 10 -5 0 -10 -4 -10 -10z"/>
<path d="M4580 4830 c0 -5 5 -10 10 -10 6 0 10 5 10 10 0 6 -4 10 -10 10 -5 0 -10 -4 -10 -10z"/>
<path d="M3620 4750 c0 -5 5 -10 10 -10 6 0 10 5 10 10 0 6 -4 10 -10 10 -5 0 -10 -4 -10 -10z"/>
<path d="M1320 4725 c0 -14 5 -25 10 -25 6 0 10 11 10 25 0 14 -4 25 -10 25 -5 0 -10 -11 -10 -25z"/>
<path d="M1980 4725 c0 -8 5 -15 10 -15 6 0 10 7 10 15 0 8 -4 15 -10 15 -5 0 -10 -7 -10 -15z"/>
<path d="M500 4715 c0 -8 5 -15 10 -15 6 0 10 7 10 15 0 8 -4 15 -10 15 -5 0 -10 -7 -10 -15z"/>
<path d="M4620 4710 c0 -5 5 -10 10 -10 6 0 10 5 10 10 0 6 -4 10 -10 10 -5 0 -10 -4 -10 -10z"/>
<path d="M2980 4670 c0 -11 5 -20 10 -20 6 0 10 9 10 20 0 11 -4 20 -10 20 -5 0 -10 -9 -10 -20z"/>
<path d="M1210 4665 c-7 -9 -11 -18 -8 -20 6 -6 58 18 58 28 0 13 -37 7 -50 -8z"/>
<path d="M2040 4670 c0 -5 5 -10 10 -10 6 0 10 5 10 10 0 6 -4 10 -10 10 -5 0 -10 -4 -10 -10z"/>
<path d="M300 4626 c0 -8 7 -16 15 -20 17 -6 18 -4 9 18 -8 20 -24 21 -24 2z"/>
<path d="M1122 4621 c2 -7 7 -12 11 -12 12 1 9 15 -3 20 -7 2 -11 -2 -8 -8z"/>
<path d="M4430 4621 c0 -5 5 -13 10 -16 6 -3 10 -2 10 4 0 5 -4 13 -10 16 -5 3 -10 2 -10 -4z"/>
<path d="M800 4575 c0 -14 5 -25 10 -25 6 0 10 11 10 25 0 14 -4 25 -10 25 -5 0 -10 -11 -10 -25z"/>
<path d="M1660 4590 c0 -5 5 -10 10 -10 6 0 10 5 10 10 0 6 -4 10 -10 10 -5 0 -10 -4 -10 -10z"/>
<path d="M2480 4590 c0 -5 5 -10 10 -10 6 0 10 5 10 10 0 6 -4 10 -10 10 -5 0 -10 -4 -10 -10z"/>
<path d="M3280 4585 c0 -8 5 -15 10 -15 6 0 10 7 10 15 0 8 -4 15 -10 15 -5 0 -10 -7 -10 -15z"/>
<path d="M860 4505 c0 -8 5 -15 10 -15 6 0 10 7 10 15 0 8 -4 15 -10 15 -5 0 -10 -7 -10 -15z"/>
<path d="M4080 4490 c0 -5 5 -10 10 -10 6 0 10 5 10 10 0 6 -4 10 -10 10 -5 0 -10 -4 -10 -10z"/>
<path d="M730 4470 c0 -5 9 -10 20 -10 11 0 20 5 20 10 0 6 -9 10 -20 10 -11 0 -20 -4 -20 -10z"/>
<path d="M1710 4470 c0 -5 14 -10 30 -10 17 0 30 5 30 10 0 6 -13 10 -30 10 -16 0 -30 -4 -30 -10z"/>
<path d="M2370 4470 c0 -5 9 -10 20 -10 11 0 20 5 20 10 0 6 -9 10 -20 10 -11 0 -20 -4 -20 -10z"/>
<path d="M2640 4449 c0 -5 5 -7 10 -4 6 3 10 8 10 11 0 2 -4 4 -10 4 -5 0 -10 -5 -10 -11z"/>
<path d="M710 4410 c0 -5 4 -10 9 -10 5 0 18 -3 28 -6 16 -6 16 -5 -2 9 -23 19 -35 21 -35 7z"/>
<path d="M2360 4410 c0 -5 5 -10 10 -10 6 0 10 5 10 10 0 6 -4 10 -10 10 -5 0 -10 -4 -10 -10z"/>
<path d="M1560 4390 c0 -5 5 -10 10 -10 6 0 10 5 10 10 0 6 -4 10 -10 10 -5 0 -10 -4 -10 -10z"/>
<path d="M3380 4355 c0 -8 5 -15 10 -15 6 0 10 7 10 15 0 8 -4 15 -10 15 -5 0 -10 -7 -10 -15z"/>
<path d="M4200 4363 c1 -14 30 -47 36 -41 6 7 -17 48 -28 48 -5 0 -8 -3 -8 -7z"/>
<path d="M2560 4350 c0 -5 5 -10 10 -10 6 0 10 5 10 10 0 6 -4 10 -10 10 -5 0 -10 -4 -10 -10z"/>
<path d="M720 4330 c0 -5 5 -10 10 -10 6 0 10 5 10 10 0 6 -4 10 -10 10 -5 0 -10 -4 -10 -10z"/>
<path d="M3200 4330 c0 -5 5 -10 10 -10 6 0 10 5 10 10 0 6 -4 10 -10 10 -5 0 -10 -4 -10 -10z"/>
<path d="M3320 4311 c0 -13 29 -35 37 -28 7 8 -15 37 -28 37 -5 0 -9 -4 -9 -9z"/>
<path d="M2360 4281 c0 -6 5 -13 10 -16 6 -3 10 1 10 9 0 9 -4 16 -10 16 -5 0 -10 -4 -10 -9z"/>
<path d="M1760 4260 c0 -11 5 -20 10 -20 6 0 10 9 10 20 0 11 -4 20 -10 20 -5 0 -10 -9 -10 -20z"/>
<path d="M3180 4270 c0 -5 5 -10 10 -10 6 0 10 5 10 10 0 6 -4 10 -10 10 -5 0 -10 -4 -10 -10z"/>
<path d="M4210 4272 c0 -12 19 -26 26 -19 2 2 -2 10 -11 17 -9 8 -15 8 -15 2z"/>
<path d="M3700 4250 c0 -5 5 -10 10 -10 6 0 10 5 10 10 0 6 -4 10 -10 10 -5 0 -10 -4 -10 -10z"/>
<path d="M2050 4230 c0 -5 7 -10 15 -10 8 0 15 5 15 10 0 6 -7 10 -15 10 -8 0 -15 -4 -15 -10z"/>
<path d="M2840 4150 c0 -5 5 -10 10 -10 6 0 10 5 10 10 0 6 -4 10 -10 10 -5 0 -10 -4 -10 -10z"/>
<path d="M3740 4150 c0 -5 5 -10 10 -10 6 0 10 5 10 10 0 6 -4 10 -10 10 -5 0 -10 -4 -10 -10z"/>
<path d="M1940 4070 c0 -5 5 -10 10 -10 6 0 10 5 10 10 0 6 -4 10 -10 10 -5 0 -10 -4 -10 -10z"/>
<path d="M320 4050 c0 -5 5 -10 10 -10 6 0 10 5 10 10 0 6 -4 10 -10 10 -5 0 -10 -4 -10 -10z"/>
<path d="M1140 4050 c0 -5 5 -10 10 -10 6 0 10 5 10 10 0 6 -4 10 -10 10 -5 0 -10 -4 -10 -10z"/>
<path d="M4440 4050 c0 -5 5 -10 10 -10 6 0 10 5 10 10 0 6 -4 10 -10 10 -5 0 -10 -4 -10 -10z"/>
<path d="M4625 4050 c-3 -5 -1 -10 4 -10 6 0 11 5 11 10 0 6 -2 10 -4 10 -3 0 -8 -4 -11 -10z"/>
<path d="M2140 4030 c0 -5 5 -10 10 -10 6 0 10 5 10 10 0 6 -4 10 -10 10 -5 0 -10 -4 -10 -10z"/>
<path d="M500 3990 c0 -5 5 -10 10 -10 6 0 10 5 10 10 0 6 -4 10 -10 10 -5 0 -10 -4 -10 -10z"/>
<path d="M4620 3990 c0 -5 5 -10 10 -10 6 0 10 5 10 10 0 6 -4 10 -10 10 -5 0 -10 -4 -10 -10z"/>
<path d="M1340 3970 c0 -5 5 -10 10 -10 6 0 10 5 10 10 0 6 -4 10 -10 10 -5 0 -10 -4 -10 -10z"/>
<path d="M1960 3970 c0 -5 5 -10 10 -10 6 0 10 5 10 10 0 6 -4 10 -10 10 -5 0 -10 -4 -10 -10z"/>
<path d="M2980 3970 c0 -5 5 -10 10 -10 6 0 10 5 10 10 0 6 -4 10 -10 10 -5 0 -10 -4 -10 -10z"/>
<path d="M3600 3970 c0 -5 5 -10 10 -10 6 0 10 5 10 10 0 6 -4 10 -10 10 -5 0 -10 -4 -10 -10z"/>
<path d="M3715 3970 c3 -5 8 -10 11 -10 2 0 4 5 4 10 0 6 -5 10 -11 10 -5 0 -7 -4 -4 -10z"/>
<path d="M1120 3930 c0 -5 5 -10 10 -10 6 0 10 5 10 10 0 6 -4 10 -10 10 -5 0 -10 -4 -10 -10z"/>
<path d="M300 3915 c0 -8 5 -15 10 -15 6 0 10 7 10 15 0 8 -4 15 -10 15 -5 0 -10 -7 -10 -15z"/>
<path d="M4420 3915 c0 -8 5 -15 10 -15 6 0 10 7 10 15 0 8 -4 15 -10 15 -5 0 -10 -7 -10 -15z"/>
<path d="M520 3910 c0 -5 5 -10 10 -10 6 0 10 5 10 10 0 6 -4 10 -10 10 -5 0 -10 -4 -10 -10z"/>
<path d="M2780 3910 c0 -5 5 -10 10 -10 6 0 10 5 10 10 0 6 -4 10 -10 10 -5 0 -10 -4 -10 -10z"/>
<path d="M2980 3910 c0 -5 7 -10 15 -10 8 0 15 5 15 10 0 6 -7 10 -15 10 -8 0 -15 -4 -15 -10z"/>
<path d="M3800 3910 c0 -5 5 -10 10 -10 6 0 10 5 10 10 0 6 -4 10 -10 10 -5 0 -10 -4 -10 -10z"/>
<path d="M4640 3910 c0 -5 5 -10 10 -10 6 0 10 5 10 10 0 6 -4 10 -10 10 -5 0 -10 -4 -10 -10z"/>
<path d="M800 3850 c0 -5 5 -10 10 -10 6 0 10 5 10 10 0 6 -4 10 -10 10 -5 0 -10 -4 -10 -10z"/>
<path d="M780 3790 c0 -5 5 -10 10 -10 6 0 10 5 10 10 0 6 -4 10 -10 10 -5 0 -10 -4 -10 -10z"/>
<path d="M3340 3792 c0 -11 41 -34 48 -28 3 4 -3 13 -14 21 -21 16 -34 19 -34 7z"/>
<path d="M720 3710 c0 -5 5 -10 10 -10 6 0 10 5 10 10 0 6 -4 10 -10 10 -5 0 -10 -4 -10 -10z"/>
<path d="M4020 3710 c0 -5 5 -10 10 -10 6 0 10 5 10 10 0 6 -4 10 -10 10 -5 0 -10 -4 -10 -10z"/>
<path d="M3380 3670 c0 -5 5 -10 10 -10 6 0 10 5 10 10 0 6 -4 10 -10 10 -5 0 -10 -4 -10 -10z"/>
<path d="M4200 3665 c0 -8 5 -15 10 -15 6 0 10 7 10 15 0 8 -4 15 -10 15 -5 0 -10 -7 -10 -15z"/>
<path d="M1740 3630 c0 -5 5 -10 10 -10 6 0 10 5 10 10 0 6 -4 10 -10 10 -5 0 -10 -4 -10 -10z"/>
<path d="M815 3620 c-3 -6 1 -7 9 -4 18 7 21 14 7 14 -6 0 -13 -4 -16 -10z"/>
<path d="M1670 3612 c0 -10 41 -35 47 -28 9 8 -17 36 -33 36 -8 0 -14 -3 -14 -8z"/>
<path d="M2500 3610 c0 -5 5 -10 10 -10 6 0 10 5 10 10 0 6 -4 10 -10 10 -5 0 -10 -4 -10 -10z"/>
<path d="M4205 3570 c3 -5 10 -10 16 -10 5 0 9 5 9 10 0 6 -7 10 -16 10 -8 0 -12 -4 -9 -10z"/>
<path d="M2040 3545 c0 -8 5 -15 10 -15 6 0 10 7 10 15 0 8 -4 15 -10 15 -5 0 -10 -7 -10 -15z"/>
<path d="M4520 3546 c0 -8 5 -18 10 -21 6 -3 10 3 10 14 0 12 -4 21 -10 21 -5 0 -10 -6 -10 -14z"/>
<path d="M400 3541 c0 -6 5 -13 10 -16 6 -3 10 1 10 9 0 9 -4 16 -10 16 -5 0 -10 -4 -10 -9z"/>
<path d="M2080 3510 c0 -5 5 -10 10 -10 6 0 10 5 10 10 0 6 -4 10 -10 10 -5 0 -10 -4 -10 -10z"/>
<path d="M3680 3485 c0 -8 5 -15 10 -15 6 0 10 7 10 15 0 8 -4 15 -10 15 -5 0 -10 -7 -10 -15z"/>
<path d="M3740 3470 c0 -5 5 -10 10 -10 6 0 10 5 10 10 0 6 -4 10 -10 10 -5 0 -10 -4 -10 -10z"/>
<path d="M2936 3437 c3 -10 9 -15 12 -12 3 3 0 11 -7 18 -10 9 -11 8 -5 -6z"/>
<path d="M1110 3430 c0 -5 14 -10 30 -10 17 0 30 5 30 10 0 6 -13 10 -30 10 -16 0 -30 -4 -30 -10z"/>
<path d="M1300 3430 c0 -5 7 -10 15 -10 8 0 15 5 15 10 0 6 -7 10 -15 10 -8 0 -15 -4 -15 -10z"/>
<path d="M1420 3430 c0 -5 5 -10 10 -10 6 0 10 5 10 10 0 6 -4 10 -10 10 -5 0 -10 -4 -10 -10z"/>
<path d="M1970 3430 c0 -5 5 -10 10 -10 6 0 10 5 10 10 0 6 -4 10 -10 10 -5 0 -10 -4 -10 -10z"/>
<path d="M2730 3430 c-12 -8 -9 -10 13 -10 15 0 27 5 27 10 0 13 -20 13 -40 0z"/>
<path d="M3590 3430 c0 -5 14 -10 30 -10 17 0 30 5 30 10 0 6 -13 10 -30 10 -16 0 -30 -4 -30 -10z"/>
<path d="M3790 3430 c0 -5 5 -10 10 -10 6 0 10 5 10 10 0 6 -4 10 -10 10 -5 0 -10 -4 -10 -10z"/>
<path d="M4365 3420 c-3 -5 -1 -10 4 -10 6 0 11 5 11 10 0 6 -2 10 -4 10 -3 0 -8 -4 -11 -10z"/>
<path d="M1380 3390 c0 -5 5 -10 10 -10 6 0 10 5 10 10 0 6 -4 10 -10 10 -5 0 -10 -4 -10 -10z"/>
<path d="M2760 3370 c0 -5 5 -10 10 -10 6 0 10 5 10 10 0 6 -4 10 -10 10 -5 0 -10 -4 -10 -10z"/>
<path d="M3580 3370 c0 -5 5 -10 10 -10 6 0 10 5 10 10 0 6 -4 10 -10 10 -5 0 -10 -4 -10 -10z"/>
<path d="M1973 3313 c-15 -31 -16 -43 -5 -43 7 0 32 47 32 62 0 17 -16 6 -27 -19z"/>
<path d="M1320 3310 c0 -5 5 -10 10 -10 6 0 10 5 10 10 0 6 -4 10 -10 10 -5 0 -10 -4 -10 -10z"/>
<path d="M1220 3270 c0 -5 7 -10 15 -10 8 0 15 5 15 10 0 6 -7 10 -15 10 -8 0 -15 -4 -15 -10z"/>
<path d="M2860 3270 c0 -5 5 -10 10 -10 6 0 10 5 10 10 0 6 -4 10 -10 10 -5 0 -10 -4 -10 -10z"/>
<path d="M2100 3250 c0 -5 5 -10 10 -10 6 0 10 5 10 10 0 6 -4 10 -10 10 -5 0 -10 -4 -10 -10z"/>
<path d="M2160 3250 c0 -5 5 -10 10 -10 6 0 10 5 10 10 0 6 -4 10 -10 10 -5 0 -10 -4 -10 -10z"/>
<path d="M3600 3230 c0 -11 5 -20 10 -20 6 0 10 9 10 20 0 11 -4 20 -10 20 -5 0 -10 -9 -10 -20z"/>
<path d="M300 3225 c0 -8 5 -15 10 -15 6 0 10 7 10 15 0 8 -4 15 -10 15 -5 0 -10 -7 -10 -15z"/>
<path d="M1155 3230 c-3 -5 -13 -6 -22 -3 -10 4 -14 2 -12 -6 3 -7 7 -12 9 -11 34 7 50 14 50 21 0 12 -17 11 -25 -1z"/>
<path d="M4420 3225 c0 -8 5 -15 10 -15 6 0 10 7 10 15 0 8 -4 15 -10 15 -5 0 -10 -7 -10 -15z"/>
<path d="M1965 3221 c-3 -5 -1 -12 5 -16 5 -3 10 1 10 9 0 18 -6 21 -15 7z"/>
<path d="M0 2800 l0 -300 3038 0 c1670 0 3053 -3 3072 -6 65 -10 66 -9 60 271 l-5 250 -3075 5 -3075 5 3 38 c2 22 -1 37 -7 37 -8 0 -11 -92 -11 -300z"/>
<path d="M0 2450 c0 -5 5 -10 10 -10 6 0 10 5 10 10 0 6 -4 10 -10 10 -5 0 -10 -4 -10 -10z"/>
<path d="M0 2070 c0 -16 5 -30 10 -30 6 0 10 14 10 30 0 17 -4 30 -10 30 -5 0 -10 -13 -10 -30z"/>
<path d="M13 2003 c-10 -3 -13 -58 -13 -224 0 -156 3 -218 11 -213 7 4 10 72 8 213 -2 113 0 212 4 219 9 13 8 13 -10 5z"/>
<path d="M0 1468 c0 -16 5 -28 10 -28 13 0 13 20 0 40 -8 12 -10 9 -10 -12z"/>
<path d="M0 1370 c0 -5 5 -10 10 -10 6 0 10 5 10 10 0 6 -4 10 -10 10 -5 0 -10 -4 -10 -10z"/>
<path d="M0 1070 c0 -16 5 -30 10 -30 6 0 10 14 10 30 0 17 -4 30 -10 30 -5 0 -10 -13 -10 -30z"/>
<path d="M1 941 c-1 -27 2 -32 11 -23 8 8 8 17 0 34 -10 22 -11 21 -11 -11z"/>
<path d="M0 720 c0 -105 3 -159 10 -155 13 8 13 302 0 310 -7 4 -10 -50 -10 -155z"/>
<path d="M80 510 c0 -5 5 -10 10 -10 6 0 10 5 10 10 0 6 -4 10 -10 10 -5 0 -10 -4 -10 -10z"/>
<path d="M130 510 c0 -5 11 -10 25 -10 14 0 25 5 25 10 0 6 -11 10 -25 10 -14 0 -25 -4 -25 -10z"/>
<path d="M200 510 c0 -5 5 -10 10 -10 6 0 10 5 10 10 0 6 -4 10 -10 10 -5 0 -10 -4 -10 -10z"/>
<path d="M240 510 c0 -7 1997 -10 5970 -10 3973 0 5970 3 5970 10 0 7 -1997 10 -5970 10 -3973 0 -5970 -3 -5970 -10z"/>
<path d="M0 474 c0 -8 5 -12 10 -9 6 4 8 11 5 16 -9 14 -15 11 -15 -7z"/>
<path d="M0 370 c0 -5 5 -10 10 -10 6 0 10 5 10 10 0 6 -4 10 -10 10 -5 0 -10 -4 -10 -10z"/>
<path d="M0 110 c0 -16 4 -30 8 -30 5 0 9 14 9 30 0 17 -4 30 -9 30 -4 0 -8 -13 -8 -30z"/>
</g>
</g>
  <g id="id2:id2" transform="matrix(1.25,0,0,1.25,0.0,0.0)"><g transform="translate(0.000000,260.800000) scale(0.040000,-0.040000)" fill="#e30011" stroke="none">
<path d="M740 5870 c0 -5 7 -10 15 -10 8 0 15 5 15 10 0 6 -7 10 -15 10 -8 0 -15 -4 -15 -10z"/>
<path d="M6163 3003 c-14 -30 -4 -501 10 -505 7 -1 1401 -2 3100 0 l3087 2 0 260 0 260 -3095 0 c-2937 0 -3095 -1 -3102 -17z"/>
</g>
</g>
  <g id="id3:id3" transform="matrix(1.25,0,0,1.25,0.0,0.0)"><g transform="translate(0.000000,260.800000) scale(0.040000,-0.040000)" fill="#000000" stroke="none">
<path d="M0 3260 l0 -3260 6180 0 6180 0 0 266 c0 250 -1 266 -17 258 -22 -11 -12234 -16 -12283 -6 l-35 8 -3 226 c-2 181 0 227 11 237 11 8 1568 10 6171 9 l6156 -3 0 265 0 265 -6167 0 -6168 0 0 235 0 235 6168 0 6167 0 0 258 0 257 -3117 0 c-6610 0 -9202 5 -9213 16 -7 7 -11 90 -11 240 l0 229 6170 3 6171 2 0 263 0 262 -3692 0 -3693 0 0 235 0 235 3693 0 3692 0 0 267 0 266 -34 -9 c-20 -6 -1463 -8 -3692 -7 l-3659 3 0 240 0 240 3693 0 3692 0 0 269 c0 239 -2 267 -16 262 -8 -3 -1670 -6 -3692 -6 l-3677 0 0 240 0 240 3661 0 c2014 0 3676 -3 3693 -6 l31 -6 0 266 0 266 -6180 0 -6180 0 0 -3260z m1264 3015 c9 -47 30 -65 76 -65 51 0 59 -16 20 -38 -36 -20 -45 -47 -32 -96 13 -47 1 -53 -44 -22 -40 27 -47 26 -105 -15 -34 -24 -41 -16 -23 26 21 52 17 71 -21 101 -19 14 -32 30 -29 35 3 5 25 9 48 9 40 0 45 3 60 34 9 19 16 40 16 48 0 18 10 29 20 23 4 -3 11 -20 14 -40z m2471 5 c3 -16 15 -40 26 -54 16 -20 25 -24 53 -19 47 7 52 -10 11 -41 -39 -30 -44 -59 -20 -106 14 -27 5 -54 -10 -30 -4 6 -17 15 -28 21 -12 5 -29 14 -38 20 -12 9 -24 6 -57 -15 -47 -29 -60 -21 -37 24 20 40 14 59 -30 88 -43 27 -38 42 15 42 43 0 67 18 76 58 10 46 14 53 23 48 5 -4 12 -19 16 -36z m-1640 -23 c19 -39 23 -42 65 -45 61 -4 71 -17 27 -38 -44 -21 -49 -32 -38 -89 5 -25 5 -48 1 -50 -5 -3 -22 6 -38 20 -39 33 -62 32 -97 -5 -36 -37 -51 -26 -30 23 21 51 19 58 -25 91 -21 16 -37 33 -34 38 3 4 25 8 49 8 48 0 75 24 75 66 0 23 10 37 19 28 3 -3 15 -24 26 -47z m815 19 c0 -38 24 -59 74 -65 54 -7 60 -19 20 -42 -33 -18 -40 -42 -25 -96 14 -51 2 -59 -38 -23 -39 36 -48 37 -91 5 -41 -30 -51 -25 -38 21 14 52 4 77 -37 97 -44 21 -37 37 15 37 44 0 70 8 70 21 0 5 7 26 15 45 16 38 35 38 35 0z m-2470 -17 c7 -28 43 -49 87 -49 45 0 48 -15 8 -39 -38 -22 -44 -46 -26 -108 13 -44 1 -48 -40 -13 -19 16 -39 29 -45 30 -5 0 -28 -13 -51 -30 -22 -16 -42 -27 -45 -24 -3 2 1 22 8 44 17 49 4 84 -39 107 -37 19 -25 31 33 35 41 3 46 6 63 41 19 42 38 44 47 6z m4120 5 c0 -28 38 -54 79 -54 53 0 59 -14 16 -40 -38 -23 -43 -46 -26 -107 13 -44 1 -48 -40 -13 -19 16 -39 29 -45 30 -5 0 -28 -13 -51 -30 -22 -16 -42 -27 -45 -24 -3 2 1 23 9 45 17 52 11 73 -33 99 -41 26 -36 40 15 40 41 0 59 11 85 53 17 28 36 29 36 1z m-2890 -330 c0 -8 7 -26 16 -39 13 -19 25 -25 55 -25 51 0 58 -17 20 -52 -35 -33 -36 -38 -19 -85 18 -48 0 -61 -40 -29 -38 33 -59 33 -93 0 -45 -43 -55 -18 -24 58 5 12 -4 27 -31 52 -41 38 -40 39 28 51 31 5 39 11 44 33 10 40 24 63 35 57 5 -4 9 -13 9 -21z m834 -15 c9 -46 24 -59 66 -59 52 0 55 -9 13 -44 l-36 -32 13 -36 c7 -19 10 -43 7 -52 -6 -15 -11 -14 -40 8 -19 14 -40 26 -47 26 -7 0 -28 -12 -47 -26 -28 -21 -34 -23 -39 -9 -4 8 -1 28 6 44 13 33 6 71 -14 71 -7 0 -20 8 -30 19 -22 24 -6 38 48 43 34 3 41 7 49 33 20 62 40 67 51 14z m826 -4 c11 -25 23 -46 27 -46 4 -1 27 -2 51 -4 23 -1 44 -4 47 -7 3 -3 -13 -18 -35 -33 -44 -30 -44 -31 -30 -90 5 -22 6 -43 2 -47 -4 -4 -24 3 -44 17 -46 31 -53 31 -90 0 -16 -14 -34 -23 -39 -19 -13 8 -10 36 6 58 23 30 19 41 -25 71 -22 15 -37 31 -34 36 2 4 21 11 42 14 64 11 70 15 77 48 14 61 20 61 45 2z m-2468 -8 c19 -38 51 -54 88 -44 33 9 32 -10 -2 -38 -46 -39 -50 -48 -33 -94 7 -22 10 -43 6 -46 -5 -2 -25 6 -45 20 -47 32 -61 31 -92 -2 -19 -20 -27 -24 -36 -15 -9 9 -9 20 0 45 17 49 15 60 -20 82 -42 26 -39 38 12 47 51 9 70 23 70 53 0 48 28 44 52 -8z m3290 4 c10 -35 42 -53 86 -49 39 4 38 -19 -2 -43 -40 -23 -41 -28 -24 -75 6 -17 8 -39 5 -49 -6 -15 -10 -14 -38 9 -38 32 -49 32 -95 1 -46 -31 -58 -24 -39 22 21 51 18 65 -18 88 -43 27 -43 51 1 47 39 -4 58 9 77 56 17 40 36 38 47 -7z m-2887 -338 c10 -53 21 -63 70 -63 23 0 45 -3 48 -6 4 -4 -12 -23 -35 -43 l-41 -37 17 -36 c21 -43 13 -68 -13 -44 -10 9 -32 21 -49 27 -28 10 -35 8 -63 -16 -38 -31 -59 -21 -41 20 19 42 14 62 -22 92 -41 32 -38 43 14 43 42 0 70 20 70 51 0 27 19 61 29 54 5 -2 12 -22 16 -42z m820 17 c8 -16 15 -38 15 -48 0 -21 25 -32 77 -32 40 0 52 -17 21 -29 -13 -5 -31 -18 -41 -29 -18 -19 -18 -24 -4 -71 15 -53 9 -73 -14 -45 -20 24 -66 44 -86 37 -10 -3 -28 -15 -41 -26 -17 -16 -25 -18 -34 -9 -10 10 -8 19 5 41 24 41 21 52 -23 85 -21 16 -37 33 -34 38 3 4 23 8 45 8 47 0 79 27 79 68 0 25 7 42 16 42 2 0 10 -13 19 -30z m825 -7 c0 -38 37 -73 75 -73 47 0 50 -11 10 -45 l-36 -30 16 -48 c20 -60 11 -77 -24 -44 -41 38 -60 40 -103 12 -31 -21 -39 -23 -44 -11 -3 8 -1 23 5 35 19 34 12 59 -23 88 -40 31 -38 43 9 43 43 0 65 9 65 26 0 8 7 31 15 50 16 39 35 37 35 -3z m830 -18 c15 -48 24 -55 72 -55 50 0 54 -13 13 -44 -37 -28 -42 -49 -24 -90 7 -14 9 -32 5 -41 -5 -15 -11 -13 -41 14 -20 17 -42 31 -49 31 -7 0 -30 -13 -51 -30 -20 -16 -41 -27 -46 -24 -8 5 6 47 24 71 13 18 0 47 -33 72 -37 27 -31 41 19 41 40 0 61 14 61 41 0 30 20 73 29 63 5 -5 14 -27 21 -49z m-3298 -1 c10 -38 33 -54 79 -54 53 0 55 -13 8 -45 -28 -18 -39 -32 -36 -43 3 -9 10 -32 15 -49 14 -44 -1 -51 -43 -19 -41 32 -42 32 -88 1 -32 -23 -38 -24 -43 -10 -4 9 -2 27 5 41 18 40 13 52 -29 80 -46 30 -44 44 6 44 37 0 74 15 74 30 0 23 21 61 32 58 7 -3 15 -18 20 -34z m4118 5 c0 -30 36 -59 74 -59 49 0 52 -14 10 -47 l-36 -29 15 -44 c8 -25 12 -49 7 -54 -5 -4 -24 4 -44 19 -32 25 -39 26 -65 15 -16 -6 -37 -20 -47 -31 -27 -30 -33 -13 -16 41 l16 50 -40 34 c-42 37 -39 43 26 48 27 2 38 10 50 33 24 48 31 56 41 50 5 -4 9 -15 9 -26z m-1240 -327 c0 -9 9 -32 20 -50 19 -31 24 -33 65 -31 24 2 47 0 51 -3 3 -4 -13 -18 -35 -32 -44 -28 -52 -56 -31 -110 13 -36 -3 -41 -38 -11 -38 31 -55 31 -97 -1 -40 -30 -47 -23 -32 34 l11 42 -34 35 -33 34 27 11 c15 5 35 10 43 10 26 0 53 31 53 60 0 15 3 30 6 33 10 10 24 -2 24 -21z m-2460 -38 l19 -44 45 0 c58 0 65 -13 21 -39 -30 -17 -35 -26 -35 -56 0 -20 5 -45 10 -56 19 -35 -1 -41 -36 -9 -19 16 -43 30 -54 30 -11 0 -35 -14 -54 -30 -39 -35 -55 -25 -31 19 24 48 19 73 -21 100 -33 23 -35 26 -18 38 10 7 32 13 49 13 38 0 55 16 55 50 0 55 23 48 50 -16z m814 12 c7 -39 46 -59 95 -50 43 9 46 -11 6 -36 -41 -25 -52 -56 -36 -102 16 -44 0 -54 -37 -24 -38 33 -59 33 -93 0 -33 -31 -53 -25 -39 12 21 54 13 82 -31 110 -48 30 -44 39 12 35 42 -3 79 19 79 46 0 22 20 54 29 48 5 -2 12 -20 15 -39z m836 -13 l13 -43 43 0 c55 0 62 -13 24 -40 -38 -27 -47 -62 -25 -96 26 -40 4 -52 -38 -20 -42 32 -54 32 -97 1 -41 -30 -62 -19 -36 19 24 38 20 62 -19 92 -41 31 -37 44 14 44 41 0 54 10 66 50 10 32 26 53 35 43 4 -4 13 -27 20 -50z m1641 13 c13 -48 29 -59 76 -52 52 7 64 -8 24 -32 -46 -26 -55 -50 -37 -102 8 -24 13 -47 10 -52 -3 -5 -21 5 -40 22 -42 36 -55 37 -101 5 -36 -24 -63 -25 -45 -2 16 21 23 67 13 86 -6 10 -27 28 -47 40 -20 12 -34 25 -30 28 4 4 29 6 56 4 l50 -2 20 46 c22 51 40 55 51 11z m-2888 -335 c7 -33 43 -75 57 -66 4 3 21 0 37 -6 l28 -10 -35 -29 -34 -28 10 -51 c6 -28 9 -53 6 -55 -2 -2 -20 7 -39 20 -43 29 -43 29 -87 3 -43 -25 -59 -19 -46 17 19 50 12 72 -30 99 -48 31 -44 49 10 40 31 -5 42 -3 59 16 12 13 21 26 21 30 0 20 21 60 29 55 4 -3 11 -19 14 -35z m1647 6 c0 -37 27 -65 70 -72 49 -8 58 -20 28 -36 -32 -17 -49 -41 -42 -59 13 -32 23 -84 18 -92 -3 -5 -23 7 -45 27 l-40 36 -43 -30 c-24 -17 -46 -28 -49 -25 -3 3 -1 20 4 37 17 59 12 75 -31 102 -48 30 -44 47 10 39 30 -5 42 -2 59 15 12 12 21 28 21 37 0 23 20 55 31 49 5 -4 9 -16 9 -28z m830 -15 c15 -46 35 -62 76 -62 46 0 50 -15 9 -39 -37 -22 -45 -53 -24 -93 18 -33 -4 -44 -39 -19 -38 27 -51 26 -95 -4 -43 -29 -52 -20 -31 30 19 47 15 58 -36 90 -23 15 -39 29 -36 32 3 3 27 8 53 10 49 4 73 17 73 39 0 24 20 65 29 59 5 -3 15 -22 21 -43z m-1650 -2 c0 -25 47 -60 81 -60 42 0 43 -15 4 -39 -38 -22 -39 -26 -25 -85 12 -54 4 -61 -35 -32 -43 33 -57 33 -99 -4 -42 -38 -52 -26 -31 37 l16 48 -41 35 c-38 32 -46 56 -15 44 7 -3 31 0 54 6 32 8 42 16 47 38 11 53 13 55 29 42 8 -7 15 -21 15 -30z m2470 1 c0 -29 38 -55 83 -57 53 -2 58 -13 16 -36 -46 -24 -50 -37 -35 -96 8 -28 11 -53 8 -56 -3 -3 -22 10 -44 29 -36 33 -40 35 -66 21 -15 -8 -36 -23 -46 -35 -27 -30 -36 -17 -21 33 17 56 11 76 -28 101 -35 23 -37 41 -4 37 41 -5 67 8 92 49 26 40 45 44 45 10z m-4121 -4 c14 -35 39 -51 85 -53 53 -2 56 -14 12 -37 -30 -16 -36 -24 -36 -51 0 -17 4 -46 9 -63 13 -45 0 -48 -45 -9 -43 37 -56 36 -97 -6 -16 -15 -32 -26 -36 -23 -5 2 -3 26 4 52 15 59 11 73 -28 98 -31 20 -35 42 -7 38 8 -2 30 0 48 2 25 5 35 14 47 40 16 41 32 45 44 12z m421 -354 c0 -23 40 -53 69 -53 42 0 46 -15 11 -41 -32 -24 -38 -56 -20 -103 13 -36 -3 -41 -38 -11 -38 32 -67 32 -97 -1 -38 -41 -64 -5 -30 43 14 20 11 53 -5 53 -4 0 -20 10 -35 22 -26 20 -27 22 -9 35 10 7 32 13 49 13 39 0 55 16 55 55 0 18 3 35 7 39 8 8 42 -33 43 -51z m819 2 c19 -43 22 -45 60 -45 54 0 61 -17 23 -51 -34 -31 -39 -53 -20 -94 18 -40 -3 -52 -40 -21 -38 32 -56 33 -94 1 -46 -39 -54 -19 -23 57 5 12 -4 27 -31 52 -41 38 -40 39 28 51 31 5 39 11 44 33 7 30 22 62 29 62 2 0 13 -20 24 -45z m825 0 c8 -39 30 -55 75 -55 42 0 47 -15 11 -36 -37 -23 -43 -39 -29 -79 7 -18 9 -41 5 -50 -6 -17 -9 -16 -34 8 -35 34 -56 34 -99 1 -43 -33 -57 -24 -37 24 16 40 12 82 -10 82 -7 0 -20 8 -30 19 -22 24 -6 38 48 43 34 3 41 7 49 33 20 63 41 67 51 10z m826 -5 c0 -21 20 -40 41 -40 10 0 30 -5 46 -11 l28 -11 -34 -29 -35 -28 12 -48 c6 -26 7 -51 3 -56 -4 -4 -22 4 -41 18 -43 32 -61 31 -99 -1 -28 -23 -32 -24 -37 -9 -4 10 0 30 10 45 23 39 21 44 -24 75 -22 15 -37 31 -34 36 2 4 21 11 42 14 64 11 70 15 77 48 4 18 10 36 13 41 7 12 32 -23 32 -44z m822 1 c10 -35 42 -53 86 -49 39 4 37 -19 -3 -43 -28 -17 -36 -27 -32 -43 3 -12 10 -38 15 -58 5 -20 7 -39 4 -42 -2 -3 -22 8 -42 24 -45 36 -52 36 -90 8 -38 -28 -60 -14 -42 27 19 40 14 58 -21 80 -43 27 -43 51 1 47 39 -4 58 9 77 56 17 40 36 38 47 -7z m-2888 -336 c9 -45 30 -65 71 -65 44 0 52 -15 20 -36 -41 -27 -48 -49 -30 -89 21 -44 11 -64 -19 -36 -36 33 -67 35 -109 7 -30 -21 -39 -23 -43 -12 -3 8 -1 23 5 35 18 32 13 53 -21 88 -34 35 -31 39 27 45 29 3 38 14 64 81 14 35 27 28 35 -18z m833 -18 c7 -32 29 -47 72 -47 42 0 47 -16 11 -37 -39 -22 -45 -47 -26 -100 8 -22 12 -44 9 -47 -3 -3 -22 8 -41 25 -41 36 -81 35 -112 -3 -15 -18 -21 -20 -31 -11 -10 10 -8 21 6 54 l19 42 -37 31 c-42 35 -40 46 10 46 41 0 73 30 73 68 0 16 3 32 7 36 10 10 33 -23 40 -57z m813 26 c0 -38 37 -73 75 -73 47 0 49 -10 9 -44 l-36 -31 16 -40 c24 -57 14 -73 -25 -41 -40 34 -71 33 -112 -4 -41 -36 -51 -30 -32 17 24 57 19 79 -21 103 -41 26 -35 37 20 42 41 3 46 8 71 71 16 42 35 41 35 0z m830 -13 c20 -52 29 -60 71 -60 51 0 56 -14 14 -40 -27 -17 -35 -28 -35 -50 0 -16 4 -31 9 -34 12 -8 20 -55 11 -61 -4 -3 -14 2 -21 11 -21 26 -68 46 -92 38 -12 -3 -32 -15 -44 -27 -19 -17 -23 -18 -28 -4 -4 8 1 29 9 45 19 37 14 52 -25 81 -36 27 -30 41 20 41 40 0 61 14 61 41 0 29 20 73 29 63 4 -5 14 -25 21 -44z m825 0 c8 -36 39 -60 77 -60 40 0 41 -13 1 -44 -22 -18 -33 -34 -30 -45 3 -9 10 -31 15 -48 14 -43 1 -49 -36 -18 -37 31 -58 31 -103 0 -20 -13 -39 -22 -42 -19 -3 3 2 26 11 51 l17 45 -38 30 c-43 35 -40 48 12 48 41 0 54 10 66 50 17 56 39 60 50 10z m-4120 -9 c13 -38 30 -51 71 -51 46 0 48 -10 8 -44 l-36 -31 15 -45 c8 -25 13 -49 10 -53 -3 -4 -20 3 -38 17 -42 33 -66 33 -104 0 -42 -35 -54 -24 -33 32 l17 46 -38 30 c-42 34 -40 48 6 48 42 0 53 8 72 54 18 44 34 43 50 -3z m2878 -328 c10 -48 28 -63 79 -66 26 -2 50 -6 53 -9 3 -3 -13 -17 -35 -32 -45 -29 -50 -53 -26 -111 8 -18 12 -36 9 -39 -3 -3 -23 8 -43 24 -46 37 -64 37 -106 5 -39 -30 -47 -22 -32 28 15 48 1 79 -47 101 -20 10 -34 20 -31 24 4 3 30 7 59 9 57 3 87 26 87 67 0 45 24 44 33 -1z m-2464 -23 l17 -45 46 0 c25 0 49 -3 53 -6 3 -4 -10 -19 -29 -34 -30 -23 -36 -34 -36 -64 0 -20 4 -43 9 -51 18 -27 0 -30 -37 -5 -47 32 -64 31 -106 -5 -39 -35 -55 -25 -31 19 24 48 19 73 -21 100 -33 23 -35 26 -18 38 10 7 30 13 45 13 33 0 59 23 59 54 0 53 27 45 49 -14z m811 15 c0 -35 26 -55 70 -55 52 0 59 -16 21 -50 -34 -32 -37 -47 -17 -102 7 -21 11 -40 8 -42 -3 -3 -22 8 -42 24 -46 36 -62 37 -104 5 -37 -28 -49 -24 -35 12 20 53 12 81 -32 109 -22 14 -38 28 -34 32 3 4 28 7 53 7 l47 0 24 47 c24 49 41 55 41 13z m840 -22 l20 -45 44 6 c57 9 65 -5 21 -38 -43 -33 -53 -67 -30 -102 13 -20 14 -29 5 -38 -8 -8 -14 -7 -23 4 -7 8 -24 21 -39 29 -29 15 -47 10 -95 -24 -27 -21 -36 -6 -17 29 7 16 14 36 14 45 0 19 -32 52 -68 70 -34 18 -16 34 30 27 50 -8 75 6 83 46 14 62 24 60 55 -9z m1644 7 c10 -33 15 -35 60 -40 55 -6 70 -24 33 -41 -41 -19 -51 -48 -33 -99 19 -57 8 -69 -29 -30 -35 36 -55 38 -102 5 -36 -24 -63 -25 -45 -2 16 21 23 67 13 86 -6 10 -27 28 -46 40 -45 26 -37 45 16 36 46 -8 64 3 84 53 18 41 34 38 49 -8z m-2890 -325 c9 -47 30 -65 76 -65 53 0 58 -16 16 -41 -38 -22 -42 -36 -27 -101 11 -48 5 -53 -31 -23 -37 32 -63 31 -104 0 -40 -31 -48 -21 -30 38 15 52 12 62 -34 85 -46 24 -43 36 10 40 45 3 80 24 80 48 0 24 20 65 29 60 5 -3 12 -21 15 -41z m2476 -5 c20 -52 29 -60 71 -60 52 0 55 -13 12 -48 l-38 -30 12 -43 c6 -24 8 -47 4 -52 -4 -4 -24 4 -45 18 -20 14 -40 25 -45 25 -4 0 -26 -16 -48 -35 -22 -19 -43 -32 -46 -29 -2 3 4 28 15 56 10 28 17 55 15 61 -2 6 -21 21 -42 32 -21 11 -37 25 -37 30 1 6 24 12 52 15 49 5 69 19 70 47 0 6 5 24 10 39 12 31 21 25 40 -26z m-1650 -11 c0 -24 22 -39 67 -45 63 -9 67 -12 52 -30 -7 -9 -24 -20 -36 -25 -33 -12 -38 -32 -21 -84 9 -24 13 -46 11 -49 -6 -6 -47 16 -67 37 -24 24 -38 21 -75 -14 -43 -41 -57 -27 -36 35 17 49 10 76 -19 76 -11 0 -65 49 -55 50 2 1 28 3 58 6 64 5 81 17 81 54 0 14 3 30 7 34 10 9 33 -23 33 -45z m822 4 c9 -33 42 -53 88 -53 43 0 45 -15 5 -40 -37 -23 -41 -37 -26 -103 12 -50 -3 -57 -43 -18 -18 17 -35 31 -40 31 -4 0 -23 -12 -41 -26 -42 -32 -57 -25 -44 19 15 52 11 75 -13 83 -31 9 -72 50 -59 59 6 3 26 3 45 0 41 -8 76 1 76 20 0 27 20 67 32 63 7 -3 16 -18 20 -35z m-2474 -1 c5 -30 40 -52 84 -52 50 0 55 -14 14 -39 -40 -25 -50 -45 -36 -71 13 -25 13 -57 -1 -66 -6 -3 -23 6 -38 20 -34 33 -48 33 -83 -1 -35 -33 -55 -22 -38 22 16 42 5 70 -36 94 -47 28 -39 44 21 45 l50 1 18 38 c19 41 40 45 45 9z m4132 -19 c0 -18 33 -33 74 -33 48 0 53 -14 12 -39 -42 -27 -48 -40 -34 -85 17 -54 -2 -69 -40 -33 -15 15 -34 27 -42 27 -8 0 -27 -12 -42 -27 -34 -33 -55 -22 -38 21 17 47 12 63 -32 93 -23 15 -40 33 -37 38 2 6 24 9 49 8 45 -2 80 16 80 42 0 6 6 17 12 23 10 10 15 9 25 -5 7 -9 13 -23 13 -30z"/>
</g>
</g>
</svg>
