<?xml version="1.0" standalone="no"?>
<!DOCTYPE svg PUBLIC "-//W3C//DTD SVG 1.1//EN"
 "http://www.w3.org/Graphics/SVG/1.1/DTD/svg11.dtd">
<!-- Created with svg_stack (http://github.com/astraw/svg_stack) -->
<svg xmlns:sodipodi="http://sodipodi.sourceforge.net/DTD/sodipodi-0.dtd" xmlns="http://www.w3.org/2000/svg" version="1.1" width="1584.0" height="1224.0">
  <defs/>
  <g id="id0:id0" transform="matrix(1.25,0,0,1.25,0.0,0.0)"><g transform="translate(0.000000,979.200000) scale(0.040000,-0.040000)" fill="#ffffff" stroke="none">
<path d="M0 12240 l0 -12240 15840 0 15840 0 0 12240 0 12240 -15840 0 -15840 0 0 -12240z m18560 7053 c16 -7 32 -8 195 -21 61 -4 122 -13 136 -19 14 -6 60 -16 103 -23 43 -6 96 -18 118 -26 22 -8 59 -14 82 -14 23 0 46 -4 51 -9 6 -6 35 -17 65 -25 63 -16 186 -79 213 -107 10 -10 23 -19 30 -19 7 0 31 -18 52 -40 21 -22 47 -40 56 -40 16 0 80 -35 148 -79 100 -67 135 -90 176 -119 25 -17 59 -39 76 -47 16 -9 29 -22 29 -30 0 -8 13 -21 30 -27 72 -31 385 -359 489 -513 19 -28 42 -59 51 -70 10 -11 32 -47 50 -80 18 -33 43 -74 56 -92 13 -17 24 -39 24 -47 0 -9 18 -51 39 -93 64 -129 81 -167 81 -187 0 -10 9 -33 19 -50 11 -17 22 -53 26 -81 4 -27 13 -59 20 -70 6 -11 14 -45 18 -75 3 -30 12 -68 21 -85 10 -18 16 -55 16 -95 0 -36 7 -101 17 -145 19 -95 22 -416 4 -480 -6 -22 -16 -100 -21 -173 -6 -91 -14 -139 -25 -154 -8 -13 -15 -43 -15 -70 0 -26 -9 -70 -20 -98 -11 -28 -20 -67 -20 -86 0 -21 -9 -47 -20 -61 -12 -16 -20 -41 -20 -64 0 -21 -9 -53 -20 -71 -11 -18 -20 -47 -20 -64 0 -17 -7 -37 -15 -44 -8 -7 -15 -18 -15 -24 0 -7 -9 -29 -20 -51 -11 -21 -17 -41 -14 -44 3 -3 1886 -8 4185 -11 l4179 -5 0 -2379 c0 -1308 -3 -2382 -6 -2387 -3 -5 -2459 -9 -5987 -9 l-5982 0 -42 -42 c-23 -24 -61 -60 -85 -80 -24 -20 -77 -68 -118 -105 -82 -75 -294 -257 -407 -349 -39 -33 -111 -93 -159 -134 -106 -91 -146 -124 -266 -218 -51 -40 -123 -97 -159 -127 -37 -30 -93 -75 -125 -99 -33 -23 -68 -53 -78 -64 -11 -12 -25 -22 -32 -22 -7 0 -48 -30 -92 -67 -44 -38 -102 -84 -127 -103 -26 -19 -78 -61 -115 -93 -37 -31 -73 -57 -79 -57 -6 0 -32 -19 -60 -42 -27 -24 -119 -95 -206 -158 -86 -63 -207 -152 -268 -197 -62 -45 -132 -97 -157 -116 -25 -19 -56 -40 -70 -47 -14 -7 -42 -28 -63 -46 -20 -19 -44 -34 -52 -34 -9 0 -37 -19 -63 -43 -26 -24 -65 -54 -87 -67 -22 -13 -57 -39 -78 -57 -20 -18 -41 -33 -47 -33 -5 0 -33 -19 -62 -42 -30 -24 -69 -52 -88 -62 -19 -11 -46 -28 -60 -38 -14 -10 -70 -47 -125 -82 -176 -113 -249 -159 -293 -188 -24 -15 -49 -28 -56 -28 -7 0 -29 -12 -49 -27 -19 -16 -65 -46 -101 -68 -37 -22 -89 -55 -117 -73 -28 -17 -56 -32 -63 -32 -7 0 -21 -9 -31 -20 -10 -11 -27 -22 -38 -26 -11 -4 -44 -22 -73 -40 -29 -19 -59 -34 -67 -34 -7 0 -28 -11 -47 -25 -19 -14 -40 -25 -46 -25 -7 0 -32 -13 -56 -29 -24 -16 -59 -36 -78 -45 -19 -9 -71 -36 -115 -61 -44 -26 -105 -57 -135 -71 -30 -14 -62 -29 -70 -34 -56 -33 -300 -150 -312 -150 -8 0 -27 -9 -41 -20 -14 -11 -34 -20 -45 -20 -10 0 -27 -9 -37 -20 -10 -11 -30 -20 -45 -20 -15 0 -35 -9 -45 -20 -10 -11 -31 -20 -46 -20 -15 0 -30 -4 -34 -9 -9 -16 -127 -71 -150 -71 -12 0 -34 -9 -48 -20 -14 -11 -34 -20 -45 -20 -11 0 -25 -6 -31 -14 -6 -8 -32 -19 -58 -25 -25 -7 -55 -19 -67 -27 -11 -7 -30 -14 -41 -14 -11 0 -33 -9 -50 -20 -16 -11 -42 -20 -56 -20 -14 0 -34 -9 -44 -20 -10 -12 -31 -20 -48 -20 -17 0 -38 -7 -47 -15 -9 -8 -37 -19 -62 -23 -25 -5 -56 -16 -69 -25 -13 -10 -35 -17 -50 -17 -14 0 -34 -9 -44 -20 -13 -14 -31 -20 -60 -20 -27 0 -51 -7 -68 -20 -14 -11 -38 -20 -54 -20 -15 0 -41 -7 -58 -16 -16 -9 -52 -23 -80 -30 -82 -21 -178 -51 -208 -63 -16 -6 -43 -11 -61 -11 -20 0 -40 -8 -51 -20 -12 -14 -31 -20 -59 -20 -23 0 -54 -7 -71 -16 -16 -8 -55 -20 -85 -26 -30 -5 -67 -16 -82 -24 -15 -8 -41 -14 -57 -14 -17 0 -54 -9 -83 -20 -30 -11 -77 -20 -109 -20 -41 0 -63 -5 -82 -20 -16 -13 -41 -20 -69 -20 -23 -1 -68 -9 -98 -20 -30 -11 -73 -19 -96 -20 -22 0 -67 -9 -100 -20 -32 -11 -82 -20 -109 -20 -28 0 -76 -9 -108 -20 -31 -11 -82 -20 -114 -20 -32 0 -87 -9 -121 -20 -39 -12 -92 -20 -135 -20 -40 0 -115 -9 -167 -20 -57 -12 -135 -20 -195 -20 -59 0 -123 -7 -155 -16 -62 -17 -571 -37 -945 -37 -350 -1 -860 20 -935 37 -36 9 -106 15 -155 16 -51 0 -115 7 -145 16 -30 8 -95 19 -145 24 -49 4 -107 15 -127 24 -21 9 -59 16 -86 16 -27 0 -65 6 -84 14 -19 8 -59 18 -89 22 -30 3 -63 12 -75 19 -12 8 -39 17 -60 20 -21 4 -73 18 -114 31 -41 13 -85 26 -97 28 -12 3 -31 9 -42 15 -11 6 -28 11 -38 11 -10 0 -36 9 -58 19 -22 11 -67 30 -100 42 -33 12 -78 30 -101 40 -23 11 -47 19 -54 19 -6 0 -23 9 -37 20 -14 11 -36 20 -48 20 -12 0 -30 9 -40 20 -10 11 -28 20 -40 20 -12 0 -30 9 -40 20 -10 11 -26 20 -35 20 -10 0 -28 8 -41 19 -13 10 -46 30 -74 45 -65 35 -187 111 -253 158 -201 143 -298 224 -482 408 -139 139 -224 237 -300 349 -14 20 -40 55 -58 78 -17 22 -32 44 -32 48 0 4 -16 29 -35 56 -19 26 -41 63 -50 81 -8 18 -25 49 -37 68 -36 58 -118 224 -118 239 0 7 -8 30 -19 50 -21 41 -57 150 -65 200 -4 19 -12 42 -20 50 -7 9 -16 40 -19 70 -4 30 -13 61 -22 71 -8 9 -15 35 -15 57 0 22 -9 66 -20 98 -11 32 -20 76 -20 97 0 21 -7 55 -16 76 -8 20 -19 82 -24 137 -5 55 -15 123 -23 150 -43 146 -37 1190 7 1329 9 27 16 77 16 110 0 34 7 81 16 106 8 24 19 76 24 115 4 38 15 87 24 107 9 21 16 48 16 62 0 14 4 27 10 31 10 6 50 -65 50 -90 0 -9 9 -33 19 -53 11 -20 24 -48 30 -62 22 -48 131 -252 143 -268 12 -14 90 -135 126 -196 9 -16 33 -48 53 -70 19 -23 50 -61 69 -86 29 -38 154 -177 220 -245 29 -29 126 -116 200 -179 36 -30 77 -66 92 -79 15 -14 44 -35 64 -47 20 -13 75 -52 121 -87 47 -34 91 -63 97 -63 6 0 43 -21 81 -47 77 -51 186 -113 252 -143 24 -11 43 -23 43 -29 0 -5 12 -12 28 -16 15 -3 59 -21 97 -40 75 -35 153 -69 250 -106 33 -13 74 -32 90 -41 17 -10 41 -18 55 -18 14 0 35 -7 47 -15 25 -18 168 -65 196 -65 10 0 35 -9 57 -20 22 -11 52 -20 67 -20 15 0 42 -9 58 -20 17 -11 46 -20 66 -20 20 0 56 -9 80 -20 25 -11 66 -20 94 -20 33 0 60 -7 80 -20 19 -13 47 -20 76 -20 25 0 72 -9 104 -20 32 -11 79 -20 105 -20 26 0 50 -3 54 -7 14 -14 101 -32 156 -33 30 0 84 -9 120 -20 43 -13 95 -20 155 -20 50 -1 117 -8 150 -17 35 -9 130 -19 225 -24 91 -4 181 -10 200 -12 232 -28 795 -33 990 -9 47 6 184 16 305 21 152 7 234 15 264 25 28 10 79 16 140 16 59 0 129 8 181 20 47 11 110 20 140 20 30 0 84 9 120 20 36 11 88 20 116 20 28 0 71 7 95 16 24 8 82 20 129 26 47 5 103 16 125 24 22 7 58 14 81 14 22 0 67 9 100 20 32 11 73 20 89 20 17 0 59 9 93 20 35 11 85 20 110 20 30 0 58 7 77 20 17 11 44 20 61 20 17 0 51 7 75 16 24 9 72 19 107 24 35 5 71 15 81 24 10 9 35 16 58 16 23 0 60 9 84 20 24 11 62 20 84 20 22 0 55 9 73 20 18 11 44 20 58 20 13 0 42 9 64 20 22 11 55 20 75 20 19 0 52 9 72 20 21 11 48 20 60 20 13 0 46 9 75 20 29 11 64 20 78 20 14 0 39 9 55 20 17 11 44 20 61 20 17 0 43 9 57 20 14 11 37 20 51 20 14 0 45 9 68 19 24 10 61 23 83 29 66 17 227 73 270 93 22 10 45 19 50 19 20 0 170 51 192 65 12 8 32 15 44 15 12 0 36 8 53 19 17 10 63 28 101 41 39 12 87 31 107 41 20 11 45 19 55 19 10 0 28 7 39 15 12 8 39 21 60 29 87 32 243 95 307 125 38 17 76 31 85 31 10 0 28 9 42 20 14 11 34 20 45 20 11 0 34 9 50 20 17 11 40 20 51 20 12 0 33 9 47 20 14 11 30 20 37 20 6 0 28 9 48 20 38 20 259 123 402 189 14 6 32 15 40 21 8 5 26 14 40 20 14 5 32 14 40 20 8 5 26 14 40 20 14 5 32 14 40 19 8 5 26 14 40 20 14 6 32 15 40 20 8 6 27 16 41 23 15 7 75 37 135 67 60 29 150 78 201 107 51 30 96 54 101 54 5 0 22 10 37 22 36 28 94 58 124 64 14 3 28 7 33 10 7 5 11 31 6 36 -2 2 -1337 5 -2968 8 l-2965 5 -5 2378 c-3 1496 -1 2382 4 2388 6 5 1359 9 3635 9 1995 0 3637 3 3649 7 25 6 25 3 2 93 -36 141 -59 254 -70 346 -4 38 -14 88 -20 110 -7 21 -16 86 -20 144 -4 58 -15 152 -24 210 -22 149 -23 697 0 825 8 50 19 131 24 180 5 50 16 108 24 130 8 22 15 57 16 78 0 21 7 48 15 61 9 13 20 46 24 72 5 27 17 72 26 99 10 28 27 75 38 105 10 30 27 72 38 92 10 20 19 44 19 53 0 9 7 18 15 21 8 4 15 14 15 23 1 9 16 43 35 76 18 33 48 87 65 120 17 33 41 74 53 90 12 17 49 66 82 110 97 130 332 355 460 440 62 41 282 155 300 155 7 0 24 9 38 20 14 11 35 20 47 20 13 0 41 8 64 19 47 21 95 35 219 62 48 10 96 23 107 29 10 5 47 10 82 10 35 0 79 5 98 11 63 21 622 31 670 12z m-10761 -4377 l68 -35 23 -60 c19 -51 22 -75 18 -150 -3 -75 -9 -99 -36 -152 -50 -101 -262 -322 -357 -373 l-34 -19 -78 59 c-153 114 -292 270 -338 380 -17 41 -21 197 -6 237 16 40 73 99 116 118 79 36 209 16 260 -41 24 -27 47 -25 83 5 87 73 177 83 281 31z m12765 -5939 c15 -11 20 -35 27 -153 4 -76 10 -152 14 -169 3 -16 10 -52 15 -78 6 -26 10 -206 10 -400 0 -274 -4 -372 -16 -442 -9 -49 -19 -128 -24 -175 -4 -47 -13 -98 -19 -114 -6 -15 -16 -60 -21 -100 -10 -71 -65 -258 -101 -348 -10 -26 -19 -52 -19 -59 0 -6 -8 -30 -19 -53 -10 -23 -29 -66 -42 -96 -13 -30 -27 -60 -32 -67 -5 -7 -24 -43 -43 -80 -60 -117 -122 -217 -205 -328 -106 -143 -307 -363 -390 -426 -24 -19 -53 -42 -64 -52 -50 -45 -198 -157 -216 -162 -10 -4 -19 -10 -19 -15 0 -8 -21 -22 -80 -52 -14 -7 -36 -20 -49 -30 -13 -10 -31 -18 -39 -18 -9 0 -23 -6 -31 -14 -31 -27 -243 -136 -265 -136 -13 0 -29 -7 -36 -14 -6 -8 -34 -22 -61 -31 -27 -9 -51 -21 -54 -26 -4 -5 -18 -9 -33 -9 -15 0 -44 -9 -65 -20 -20 -11 -53 -20 -72 -20 -20 0 -41 -7 -52 -19 -11 -11 -40 -21 -72 -25 -30 -4 -66 -13 -80 -20 -14 -8 -51 -17 -82 -20 -31 -4 -65 -14 -75 -21 -11 -8 -41 -15 -69 -15 -27 0 -79 -9 -115 -20 -45 -14 -94 -20 -160 -20 -52 0 -111 -5 -130 -10 -19 -6 -112 -14 -205 -19 -239 -11 -304 1 -223 42 33 16 329 315 365 367 9 14 35 46 57 72 54 61 132 167 177 240 20 33 45 69 56 81 11 12 37 57 59 100 49 98 65 126 87 157 9 13 17 34 17 46 0 12 9 33 20 47 11 14 20 37 20 51 0 14 7 29 16 34 9 5 18 28 21 53 3 24 14 55 24 68 11 13 19 33 19 45 0 11 9 43 19 71 23 62 50 163 61 230 4 28 15 72 24 98 9 26 16 75 16 108 0 33 4 68 10 78 24 46 31 173 31 543 0 229 -5 406 -11 433 -6 25 -8 49 -6 53 2 4 0 27 -5 52 -5 25 -14 88 -19 140 -5 52 -14 115 -20 140 -6 25 -15 81 -20 125 -4 44 -15 102 -24 129 -9 27 -16 74 -16 105 0 31 -6 65 -14 76 -16 23 -29 89 -20 98 4 3 511 6 1128 7 922 0 1125 -2 1140 -13z"/>
<path d="M17906 18259 c-14 -17 -26 -36 -26 -42 0 -7 -18 -46 -39 -88 -21 -41 -42 -91 -46 -110 -4 -19 -16 -50 -26 -69 -11 -19 -19 -45 -19 -57 0 -13 -9 -40 -20 -60 -11 -21 -20 -46 -20 -55 0 -10 -9 -44 -19 -75 -11 -32 -23 -78 -26 -103 -4 -25 -12 -50 -17 -57 -8 -10 -22 -81 -33 -163 -2 -14 -8 -38 -14 -53 -6 -16 -11 -60 -11 -98 0 -38 -6 -84 -13 -102 -20 -48 -22 -89 -22 -472 0 -250 4 -366 13 -405 7 -30 17 -98 22 -150 4 -52 15 -113 24 -135 8 -22 15 -56 16 -76 0 -20 9 -62 20 -95 11 -32 20 -71 20 -86 0 -15 9 -51 20 -80 11 -29 20 -70 20 -90 0 -72 -53 -68 977 -66 l918 3 6 45 c3 25 13 59 22 75 9 17 17 40 17 51 0 12 6 27 14 33 8 7 19 35 25 62 6 28 18 63 26 79 8 16 15 40 15 55 0 14 9 42 20 62 11 21 20 54 20 73 0 20 7 46 16 58 9 13 20 58 26 100 5 42 14 82 20 89 6 7 14 45 20 85 12 99 13 100 26 125 7 12 12 48 12 80 1 32 7 87 15 123 17 75 39 415 39 605 -1 72 -4 213 -9 315 -7 167 -10 190 -33 239 -29 63 -112 150 -171 180 -22 12 -62 35 -88 51 -26 17 -57 30 -69 30 -12 0 -33 9 -47 20 -14 11 -35 20 -46 20 -12 0 -38 9 -58 20 -21 11 -47 20 -58 20 -11 0 -42 8 -70 17 -27 9 -77 19 -110 23 -33 5 -78 13 -100 20 -22 6 -83 15 -135 20 -52 4 -162 15 -245 24 -102 11 -250 16 -462 16 l-311 0 -26 -31z"/>
<path d="M11686 14176 c-97 -59 -115 -188 -38 -269 39 -41 75 -57 129 -57 72 0 121 32 158 102 l29 57 -12 48 c-15 57 -37 90 -82 121 -46 31 -131 31 -184 -2z"/>
<path d="M21035 14140 c-168 -36 -339 -113 -470 -210 -68 -52 -195 -183 -240 -250 -47 -70 -114 -211 -131 -275 -45 -173 -46 -180 -45 -360 0 -159 3 -191 25 -277 31 -121 64 -214 82 -229 8 -6 14 -18 14 -26 0 -47 218 -306 298 -354 20 -13 57 -38 81 -56 24 -18 50 -33 58 -33 8 0 27 -8 41 -18 35 -24 125 -55 237 -83 120 -29 432 -32 535 -4 36 9 85 20 110 24 25 4 59 15 75 23 17 9 57 29 90 44 131 63 364 243 380 294 5 17 -18 47 -126 158 -73 75 -136 138 -141 140 -4 2 -31 -19 -60 -46 -55 -51 -192 -152 -206 -152 -5 0 -17 -9 -26 -19 -10 -10 -34 -22 -54 -26 -20 -4 -48 -12 -62 -19 -14 -7 -72 -18 -130 -25 -209 -24 -395 26 -552 146 -32 24 -77 69 -101 101 -46 60 -107 175 -107 203 0 9 -7 34 -16 55 -11 25 -18 80 -22 149 -4 90 -1 127 17 205 12 52 27 103 33 114 60 110 80 139 137 199 135 142 310 217 501 216 115 0 160 -8 266 -46 108 -38 178 -82 285 -176 49 -43 93 -77 99 -75 10 3 290 277 290 283 0 14 -186 183 -227 206 -29 17 -55 34 -58 39 -9 15 -189 98 -270 123 -145 46 -219 57 -380 56 -99 -1 -177 -7 -230 -19z"/>
<path d="M12458 14138 c-1 -2 -5 -129 -8 -283 l-5 -280 -110 -2 c-162 -4 -155 0 -155 -83 0 -38 5 -80 11 -94 l12 -25 121 -3 121 -3 3 -681 2 -682 23 -6 c29 -8 171 -8 191 0 14 6 16 75 16 684 0 485 3 681 11 686 6 3 75 7 153 8 l141 1 3 84 c2 51 -1 88 -8 95 -6 6 -71 13 -156 16 l-146 5 -1 280 -2 280 -107 3 c-60 1 -109 1 -110 0z"/>
<path d="M13438 14136 c-1 -1 -5 -127 -8 -281 l-5 -280 -130 -6 c-71 -3 -131 -7 -132 -8 -8 -4 -1 -179 6 -187 6 -5 59 -7 126 -4 67 3 120 1 126 -4 5 -6 9 -271 9 -677 0 -367 3 -674 6 -683 5 -13 24 -16 104 -16 69 0 101 4 109 13 8 10 12 211 13 691 l3 678 147 -1 147 -2 10 38 c15 53 14 140 -1 150 -7 4 -80 10 -161 13 l-148 5 1 271 c0 222 -2 273 -13 283 -9 7 -50 11 -111 10 -53 -1 -97 -2 -98 -3z"/>
<path d="M9983 14103 c-10 -4 -13 -224 -13 -1053 l0 -1049 33 -6 c17 -3 70 -5 117 -3 l85 3 5 480 5 480 45 3 45 3 126 -158 c69 -87 161 -205 204 -263 44 -58 106 -139 140 -180 33 -41 74 -93 90 -114 17 -22 60 -79 96 -126 37 -48 72 -97 78 -109 11 -20 19 -21 136 -21 129 0 155 4 155 24 0 7 -29 51 -65 97 -36 46 -82 106 -103 133 -20 27 -55 70 -77 97 -22 26 -56 69 -75 95 -40 54 -193 253 -278 362 -128 165 -130 172 -39 172 158 0 355 70 447 160 57 56 109 131 128 185 82 233 37 471 -120 621 -35 34 -79 70 -98 82 -61 36 -181 69 -295 81 -107 11 -747 15 -772 4z m854 -252 c80 -29 118 -57 160 -114 50 -69 63 -108 63 -196 0 -107 -22 -163 -94 -233 -95 -93 -130 -101 -466 -108 -151 -3 -278 -4 -282 -2 -5 2 -8 153 -8 336 0 183 3 336 8 341 4 4 133 5 287 2 244 -5 287 -9 332 -26z"/>
<path d="M14865 13606 c-5 -2 -44 -11 -85 -20 -41 -9 -118 -38 -170 -64 -167 -83 -317 -256 -388 -447 -26 -70 -52 -217 -51 -295 0 -123 37 -281 88 -375 11 -22 21 -43 21 -47 0 -22 95 -140 165 -205 83 -78 193 -140 285 -163 115 -29 143 -32 270 -32 170 0 256 20 375 85 17 9 45 24 63 32 49 23 200 172 236 233 17 29 37 63 45 76 23 37 7 74 -42 97 -23 11 -55 27 -71 36 -32 17 -72 6 -83 -24 -4 -9 -29 -46 -55 -83 -79 -105 -186 -179 -318 -220 -130 -40 -362 -18 -439 42 -13 10 -28 18 -33 18 -33 0 -161 140 -202 220 -33 66 -67 190 -64 233 l3 42 674 3 c478 1 678 5 688 13 25 21 6 215 -31 315 -71 193 -213 355 -389 447 -50 26 -101 47 -113 47 -12 0 -39 7 -60 16 -27 11 -80 17 -174 20 -74 2 -139 2 -145 0z m290 -245 c130 -42 260 -132 300 -208 12 -24 27 -49 34 -56 18 -23 52 -130 43 -139 -4 -4 -251 -7 -548 -6 l-539 3 3 37 c8 86 141 266 228 309 24 11 46 24 49 29 5 7 44 21 145 50 52 14 215 4 285 -19z"/>
<path d="M16565 13591 c-71 -25 -92 -38 -159 -94 -58 -48 -92 -84 -95 -99 0 -5 -4 -9 -8 -10 -5 -2 -10 35 -11 82 -2 50 -8 88 -15 92 -7 4 -51 8 -99 8 -66 0 -90 -4 -102 -16 -14 -14 -16 -98 -16 -778 0 -642 2 -765 14 -775 9 -8 48 -11 112 -9 l99 3 6 435 c7 511 17 605 78 735 47 100 84 143 160 183 46 25 71 32 115 32 31 0 65 -5 76 -12 16 -10 23 -9 41 7 29 27 74 93 92 137 l15 37 -63 30 c-76 37 -160 41 -240 12z"/>
<path d="M22980 13590 c-30 -11 -62 -20 -70 -20 -18 -1 -110 -46 -165 -82 -75 -48 -198 -187 -237 -268 -66 -138 -78 -166 -78 -186 0 -10 -7 -53 -16 -94 -12 -57 -15 -105 -10 -200 11 -237 83 -409 238 -570 76 -79 236 -180 286 -180 11 0 37 -7 58 -17 56 -23 237 -23 329 1 76 19 115 38 214 100 59 37 64 39 76 22 8 -10 11 -32 8 -55 -5 -34 -2 -39 18 -44 40 -11 359 -8 380 3 l19 11 0 769 0 769 -19 11 c-21 11 -358 14 -385 4 -12 -5 -16 -20 -16 -59 0 -30 -5 -57 -11 -60 -6 -4 -31 11 -57 33 -26 21 -58 43 -72 47 -14 4 -32 13 -40 20 -8 7 -57 24 -108 39 -118 33 -257 36 -342 6z m333 -380 c67 -13 122 -45 185 -105 95 -89 138 -208 130 -353 -9 -149 -63 -256 -168 -336 -64 -49 -119 -67 -221 -73 -73 -5 -95 -2 -144 16 -118 44 -199 126 -249 252 -33 84 -36 213 -7 318 23 81 39 109 100 174 53 56 93 79 188 107 68 19 94 20 186 0z"/>
<path d="M24893 13597 c-17 -6 -35 -15 -39 -19 -4 -5 -15 -8 -24 -8 -23 0 -115 -70 -135 -103 -23 -38 -35 -25 -35 37 0 67 3 66 -191 66 -112 0 -149 -3 -158 -14 -16 -19 -15 -1534 1 -1553 8 -10 55 -13 197 -13 102 0 192 4 199 9 11 7 13 85 11 422 -3 460 2 563 34 662 17 55 30 77 69 113 l49 45 57 -7 c31 -3 63 -11 69 -16 16 -13 43 -3 43 14 0 7 11 34 25 60 14 26 25 56 25 68 0 11 9 37 20 57 11 21 20 45 20 53 0 9 7 25 15 36 23 30 18 41 -31 70 -54 32 -167 42 -221 21z"/>
<path d="M25920 13601 c-25 -4 -55 -12 -67 -19 -12 -7 -35 -12 -51 -12 -16 0 -41 -9 -55 -20 -14 -11 -32 -20 -40 -20 -8 0 -26 -9 -40 -20 -14 -11 -29 -20 -34 -20 -16 0 -103 -72 -161 -132 -85 -89 -121 -149 -172 -283 -39 -105 -52 -197 -47 -326 7 -136 18 -211 39 -259 9 -19 24 -56 33 -82 33 -95 209 -287 317 -347 191 -104 429 -133 679 -81 47 10 97 25 110 33 13 8 35 18 48 22 62 19 152 83 234 168 48 50 87 96 87 101 -1 10 -66 45 -180 97 -25 11 -69 33 -99 49 l-53 29 -37 -24 c-20 -13 -54 -37 -77 -53 -72 -51 -150 -72 -273 -72 -122 0 -191 19 -269 74 -55 39 -129 136 -138 181 -13 70 -58 65 605 65 l600 0 8 23 c4 12 6 76 5 142 -2 139 -27 235 -95 375 -35 70 -59 102 -142 186 -114 115 -190 158 -360 205 -77 21 -296 33 -375 20z m275 -365 c72 -20 122 -49 182 -106 56 -54 98 -121 83 -136 -5 -5 -173 -8 -385 -6 -336 2 -376 4 -382 19 -4 9 0 21 9 27 8 6 22 25 31 41 33 64 134 135 227 161 61 17 174 17 235 0z"/>
<path d="M27530 13603 c-147 -25 -308 -137 -360 -251 -12 -26 -27 -58 -35 -72 -7 -15 -13 -63 -14 -115 -2 -146 35 -229 151 -342 75 -73 131 -109 300 -192 191 -95 254 -172 198 -244 -31 -39 -99 -61 -161 -53 -67 9 -164 57 -228 113 -39 34 -57 44 -74 39 -22 -5 -171 -151 -214 -210 -13 -16 -23 -38 -23 -48 0 -9 31 -48 69 -85 75 -75 185 -137 301 -169 94 -27 269 -25 375 5 139 39 263 140 328 268 15 29 27 64 27 78 0 15 5 46 11 70 15 59 -9 202 -46 276 -31 61 -152 184 -202 205 -17 8 -35 18 -38 24 -4 6 -36 25 -73 43 -37 18 -78 40 -92 50 -13 9 -31 17 -40 17 -8 0 -26 9 -40 20 -14 11 -32 20 -41 20 -24 0 -89 65 -89 90 0 50 49 90 113 90 47 0 130 -38 205 -95 59 -44 64 -46 85 -32 31 21 237 228 237 238 0 12 -97 109 -140 141 -129 97 -335 147 -490 121z"/>
<path d="M11672 13558 c-9 -9 -12 -196 -12 -779 0 -644 2 -768 14 -778 9 -8 48 -11 112 -9 l99 3 3 774 c1 563 -1 777 -9 787 -15 18 -189 20 -207 2z"/>
</g>
</g>
  <g id="id1:id1" transform="matrix(1.25,0,0,1.25,0.0,0.0)"><g transform="translate(0.000000,979.200000) scale(0.040000,-0.040000)" fill="#eb93bd" stroke="none">
<path d="M19280 19170 c0 -5 7 -10 15 -10 8 0 15 5 15 10 0 6 -7 10 -15 10 -8 0 -15 -4 -15 -10z"/>
<path d="M19560 19032 c0 -4 17 -25 39 -46 35 -34 39 -42 38 -88 -1 -37 3 -52 16 -60 11 -6 17 -22 17 -47 0 -23 8 -48 20 -64 11 -14 20 -38 20 -54 0 -15 9 -41 20 -58 11 -17 20 -47 20 -70 0 -23 9 -53 20 -70 11 -16 20 -46 20 -65 0 -19 9 -59 20 -88 11 -29 20 -75 20 -102 0 -28 9 -76 20 -107 11 -32 20 -82 20 -113 0 -31 5 -61 11 -67 17 -17 1 -37 -17 -22 -21 18 -30 2 -11 -19 10 -10 17 -27 17 -36 0 -10 8 -30 19 -44 47 -69 45 -891 -3 -1147 -9 -44 -16 -103 -16 -131 0 -27 -6 -56 -12 -62 -7 -7 -14 -23 -15 -35 -7 -79 -21 -155 -31 -175 -7 -12 -16 -52 -19 -88 -3 -36 -14 -82 -25 -102 -10 -20 -18 -53 -18 -73 0 -20 -7 -42 -15 -49 -7 -6 -17 -33 -21 -58 -3 -26 -12 -57 -20 -69 -7 -12 -16 -41 -20 -65 -4 -24 -13 -50 -20 -58 -7 -8 -17 -34 -22 -57 -5 -22 -17 -51 -26 -64 -9 -13 -16 -37 -16 -53 0 -16 -6 -37 -13 -45 -16 -19 -67 -134 -67 -150 0 -6 -17 -48 -38 -94 -21 -45 -45 -98 -52 -117 -8 -19 -22 -48 -31 -65 -10 -16 -32 -59 -50 -95 -17 -36 -67 -129 -110 -208 -44 -79 -79 -145 -79 -147 0 -3 -25 -43 -55 -90 -30 -46 -55 -87 -55 -90 0 -2 -30 -50 -67 -106 -38 -56 -81 -123 -98 -149 -54 -83 -146 -207 -300 -405 -33 -42 -73 -94 -90 -115 -34 -44 -52 -66 -177 -213 -49 -56 -88 -107 -88 -114 0 -6 -13 -20 -30 -30 -16 -9 -30 -22 -30 -28 0 -5 -54 -64 -120 -130 -66 -65 -120 -125 -120 -132 0 -7 -14 -22 -30 -32 -17 -10 -120 -107 -230 -215 -109 -108 -201 -196 -205 -196 -4 0 -51 -42 -106 -92 -55 -51 -103 -93 -107 -93 -4 0 -27 -21 -51 -48 -24 -26 -49 -47 -56 -47 -7 0 -43 -27 -80 -61 -37 -33 -90 -76 -119 -94 -28 -18 -60 -43 -71 -55 -11 -12 -58 -50 -105 -83 -47 -33 -104 -77 -127 -96 -22 -20 -71 -56 -108 -81 -37 -25 -85 -60 -107 -77 -22 -18 -44 -33 -48 -33 -4 0 -27 -16 -51 -35 -23 -20 -67 -52 -98 -72 -31 -20 -84 -58 -118 -85 -35 -26 -65 -48 -68 -48 -4 0 -21 -11 -39 -25 -18 -14 -36 -25 -39 -25 -9 0 -125 -78 -131 -89 -3 -5 -29 -21 -58 -36 -29 -15 -64 -37 -78 -49 -14 -13 -58 -42 -99 -67 -80 -47 -210 -127 -282 -172 -115 -72 -334 -200 -358 -208 -14 -6 -35 -19 -46 -29 -11 -10 -49 -32 -85 -50 -36 -17 -72 -36 -80 -40 -8 -5 -35 -19 -60 -31 -25 -12 -58 -32 -75 -43 -33 -23 -78 -49 -113 -65 -12 -6 -47 -27 -77 -46 -31 -19 -64 -35 -74 -35 -10 0 -26 -9 -36 -20 -10 -11 -24 -20 -31 -20 -14 0 -122 -55 -139 -71 -5 -5 -16 -9 -25 -9 -9 0 -25 -9 -35 -20 -10 -11 -27 -20 -37 -20 -11 0 -31 -9 -45 -20 -14 -11 -33 -20 -42 -20 -9 0 -27 -9 -41 -20 -14 -11 -32 -20 -40 -20 -8 0 -26 -9 -40 -20 -14 -11 -32 -20 -41 -20 -9 0 -28 -9 -42 -20 -14 -11 -34 -20 -45 -20 -11 0 -25 -7 -32 -15 -6 -8 -22 -17 -33 -20 -21 -6 -180 -80 -239 -111 -14 -8 -33 -14 -41 -14 -8 0 -26 -9 -40 -20 -14 -11 -34 -20 -45 -20 -10 0 -31 -9 -45 -20 -14 -11 -36 -20 -50 -20 -13 0 -36 -9 -50 -20 -14 -11 -32 -20 -41 -20 -9 0 -53 -18 -98 -39 -46 -21 -117 -51 -158 -66 -41 -14 -85 -33 -97 -41 -12 -8 -30 -14 -40 -14 -10 0 -31 -9 -48 -20 -16 -11 -39 -20 -50 -20 -11 0 -30 -6 -41 -14 -11 -8 -62 -28 -113 -45 -50 -17 -102 -37 -114 -46 -12 -8 -33 -15 -48 -15 -14 0 -38 -9 -52 -20 -14 -11 -31 -20 -39 -20 -7 0 -38 -9 -68 -20 -30 -11 -61 -20 -69 -20 -7 0 -32 -8 -55 -19 -35 -16 -139 -53 -251 -89 -16 -6 -52 -18 -80 -27 -27 -9 -70 -20 -94 -24 -24 -5 -48 -16 -53 -25 -6 -10 -22 -16 -43 -16 -19 0 -49 -9 -67 -20 -18 -11 -45 -20 -60 -20 -14 0 -46 -8 -70 -18 -24 -11 -63 -22 -87 -26 -24 -4 -53 -13 -64 -21 -12 -8 -37 -15 -57 -15 -19 0 -55 -9 -79 -20 -24 -11 -55 -20 -70 -20 -14 0 -37 -9 -51 -20 -14 -11 -41 -20 -62 -20 -21 0 -60 -9 -88 -20 -28 -11 -70 -20 -94 -20 -28 0 -52 -7 -69 -20 -14 -11 -40 -20 -60 -20 -18 0 -60 -9 -93 -20 -32 -11 -75 -20 -95 -20 -21 0 -47 -9 -62 -20 -18 -14 -40 -20 -76 -20 -28 0 -77 -9 -108 -20 -32 -11 -73 -20 -93 -20 -19 0 -60 -9 -90 -20 -30 -11 -71 -20 -92 -20 -20 0 -63 -7 -95 -15 -32 -9 -94 -20 -137 -26 -43 -5 -95 -17 -114 -25 -19 -7 -56 -14 -83 -14 -26 0 -74 -7 -106 -16 -32 -9 -98 -20 -148 -25 -49 -4 -117 -15 -150 -23 -34 -9 -104 -15 -161 -16 -67 0 -116 -5 -145 -16 -31 -11 -106 -19 -249 -25 -284 -12 -390 -20 -396 -30 -10 -16 -655 -9 -819 8 -82 9 -217 17 -300 20 -82 2 -159 7 -170 13 -39 18 -127 30 -218 30 -61 0 -97 4 -105 12 -7 7 -23 14 -35 15 -115 10 -210 24 -252 37 -27 9 -68 16 -90 16 -22 0 -67 9 -99 20 -33 11 -79 20 -104 20 -28 0 -52 6 -64 16 -10 10 -45 20 -85 24 -38 4 -85 14 -105 23 -21 10 -52 17 -70 17 -19 0 -43 7 -55 15 -11 8 -39 17 -62 21 -23 4 -59 15 -79 25 -20 11 -45 19 -57 19 -11 0 -45 9 -75 20 -30 11 -61 20 -68 20 -8 0 -25 9 -39 20 -14 11 -39 20 -56 20 -17 0 -38 6 -46 13 -9 7 -43 23 -76 36 -106 41 -178 73 -259 112 -43 22 -86 39 -96 39 -9 0 -25 9 -35 20 -10 11 -25 20 -33 20 -7 0 -26 8 -40 19 -15 10 -52 31 -82 46 -30 15 -64 35 -75 44 -23 19 -140 91 -149 91 -3 0 -34 20 -68 46 -35 25 -93 65 -131 90 -37 25 -67 49 -67 54 0 5 -14 17 -32 26 -18 9 -50 34 -73 55 -22 21 -74 68 -115 105 -91 82 -247 249 -303 324 -23 30 -55 71 -72 91 -16 20 -39 51 -50 69 -11 19 -28 46 -37 60 -10 14 -25 39 -34 55 -9 17 -28 44 -41 61 -29 38 -153 280 -153 298 0 7 -8 24 -18 37 -10 13 -24 45 -32 72 -7 26 -16 50 -21 52 -4 3 -10 23 -14 44 -6 39 -29 70 -41 58 -4 -3 -8 -34 -9 -69 -1 -35 -12 -91 -24 -125 -11 -34 -21 -80 -21 -102 0 -22 -4 -42 -9 -45 -10 -7 -17 -50 -30 -181 -4 -49 -14 -103 -21 -120 -7 -18 -17 -121 -23 -250 -21 -437 -9 -961 24 -1076 10 -36 19 -90 19 -120 0 -30 7 -79 16 -109 9 -30 20 -84 24 -120 4 -36 14 -82 24 -104 9 -21 16 -60 16 -86 0 -32 6 -55 20 -73 12 -15 20 -40 20 -64 0 -21 9 -53 20 -71 11 -18 20 -40 20 -50 0 -27 48 -170 65 -195 8 -12 15 -30 15 -40 0 -11 8 -36 19 -56 10 -20 24 -47 30 -61 6 -14 15 -32 20 -40 5 -8 14 -26 20 -40 6 -14 22 -43 36 -65 13 -22 30 -51 37 -65 7 -14 27 -46 45 -71 18 -26 33 -52 33 -58 0 -6 18 -31 40 -55 22 -24 40 -48 40 -54 0 -11 111 -155 166 -214 19 -21 34 -42 34 -46 0 -11 338 -328 395 -371 105 -80 246 -181 251 -181 3 0 21 -12 41 -27 20 -15 73 -49 117 -74 45 -26 96 -56 114 -68 18 -12 39 -21 47 -21 7 0 27 -11 43 -25 17 -14 38 -25 47 -25 9 0 28 -9 42 -20 14 -11 33 -20 43 -20 10 0 29 -9 43 -20 14 -11 32 -20 41 -20 8 0 30 -9 48 -20 18 -11 42 -20 53 -20 11 0 37 -9 58 -20 20 -11 44 -20 53 -20 9 0 27 -9 41 -20 14 -11 40 -20 57 -20 17 0 40 -7 50 -15 11 -8 29 -15 40 -15 12 0 53 -12 91 -25 39 -14 80 -25 93 -25 12 0 40 -9 62 -20 22 -11 52 -20 68 -20 16 0 55 -9 88 -20 32 -11 81 -20 107 -20 26 0 64 -7 85 -16 20 -8 80 -19 132 -23 52 -5 109 -14 125 -21 17 -7 91 -16 165 -20 74 -5 155 -13 180 -20 56 -13 572 -32 900 -33 393 0 875 19 943 37 33 9 100 16 155 16 53 1 131 7 172 16 41 8 127 19 190 24 63 4 135 15 160 23 25 8 79 17 120 19 42 3 89 12 107 21 20 11 56 17 95 17 36 1 87 9 118 20 30 11 71 19 91 20 20 0 62 9 94 20 32 11 79 20 105 20 32 0 55 6 73 20 17 14 40 20 75 20 27 0 75 9 107 20 32 11 69 20 81 20 13 0 45 8 71 19 26 10 68 21 93 25 25 4 54 13 65 20 11 7 44 15 74 18 35 4 57 11 63 22 6 10 22 16 44 16 19 0 51 7 72 16 20 9 53 20 72 25 101 24 186 51 206 64 13 8 37 15 55 15 17 0 42 9 56 20 17 13 41 20 69 20 32 0 49 6 61 20 11 12 30 20 49 20 17 0 42 8 55 19 13 10 42 21 63 25 22 4 49 14 60 22 11 8 33 14 48 14 16 0 36 9 45 20 10 11 29 20 43 20 14 0 40 9 58 20 18 11 40 20 50 20 9 0 31 9 47 20 17 11 39 20 50 20 11 0 37 9 58 20 20 11 43 20 49 20 7 0 24 9 38 20 14 11 35 20 48 20 12 0 57 18 99 40 43 22 83 40 91 40 8 0 25 9 39 20 14 11 36 20 49 20 14 0 32 9 41 20 10 11 27 20 39 20 12 0 33 9 47 20 14 11 31 20 39 20 11 0 100 42 378 180 8 4 47 24 85 45 39 21 86 47 105 57 19 10 62 34 95 54 33 19 76 42 95 50 19 9 47 25 62 35 14 11 33 19 41 19 8 0 25 9 39 19 13 11 51 33 83 51 33 17 74 40 90 50 17 11 44 27 60 36 17 9 67 41 112 70 46 30 87 54 91 54 5 0 17 9 27 20 10 11 26 20 36 20 10 0 31 11 47 25 17 14 33 25 37 25 4 0 46 26 93 57 48 31 116 75 152 98 36 23 85 55 109 71 23 16 56 36 71 45 16 9 57 37 92 63 69 51 134 96 218 152 30 20 74 54 97 75 24 22 48 39 54 39 6 0 33 17 60 38 27 20 72 54 101 75 29 20 82 59 117 85 35 26 99 72 141 102 131 94 237 172 340 253 55 42 105 77 110 77 6 0 32 20 58 44 26 24 88 74 137 111 50 37 113 87 140 111 28 24 71 59 96 77 73 50 159 116 224 172 33 28 78 62 100 77 22 14 67 50 100 80 33 30 76 65 95 78 19 12 49 37 66 54 33 33 128 114 259 221 156 127 219 181 318 270 55 50 127 113 161 142 86 72 117 105 127 131 5 13 17 22 30 22 12 0 38 17 58 38 20 20 92 89 161 152 177 163 819 806 991 991 162 176 399 441 444 499 17 21 56 69 88 107 33 37 66 79 75 93 9 14 50 62 90 108 40 45 77 93 82 107 5 14 13 25 18 25 4 0 26 24 47 53 22 28 53 68 70 88 61 75 315 422 335 459 7 14 26 40 42 59 16 18 35 45 41 60 6 14 26 43 44 64 18 20 33 43 33 51 0 8 15 32 33 55 35 44 79 109 117 175 14 23 37 60 51 82 15 21 53 84 85 139 32 55 68 114 81 131 13 17 23 35 23 40 0 5 11 25 24 44 13 19 45 76 71 125 26 50 50 95 55 100 6 8 178 347 286 565 52 105 134 304 134 325 0 12 18 61 40 109 22 47 40 95 40 107 0 11 9 37 20 59 11 22 20 53 20 71 0 17 9 42 20 56 12 15 20 41 20 62 0 20 9 60 20 89 11 29 20 74 20 100 0 27 7 57 16 70 10 15 17 54 21 120 2 53 11 130 19 169 17 89 20 414 4 493 -6 30 -15 98 -19 150 -4 52 -15 112 -24 134 -9 21 -17 52 -17 68 0 41 -37 175 -61 220 -10 20 -19 47 -19 60 0 13 -6 33 -14 44 -8 11 -23 45 -34 75 -10 30 -31 72 -45 93 -15 21 -27 48 -27 60 0 12 -16 44 -36 71 -20 28 -47 73 -61 100 -14 28 -36 64 -50 80 -39 49 -146 184 -184 234 -53 67 -365 368 -402 387 -18 9 -66 41 -109 70 -42 30 -81 54 -86 54 -6 0 -25 13 -42 29 -34 31 -147 91 -171 91 -8 0 -33 18 -54 40 -38 39 -55 49 -55 32z"/>
<path d="M19040 18230 c0 -5 9 -10 20 -10 11 0 20 5 20 10 0 6 -9 10 -20 10 -11 0 -20 -4 -20 -10z"/>
<path d="M19120 18210 c0 -5 7 -10 15 -10 8 0 15 5 15 10 0 6 -7 10 -15 10 -8 0 -15 -4 -15 -10z"/>
<path d="M19249 18199 c-12 -8 -12 -10 1 -19 17 -11 32 -8 37 7 5 15 -21 23 -38 12z"/>
<path d="M19440 18130 c0 -5 5 -10 10 -10 6 0 10 5 10 10 0 6 -4 10 -10 10 -5 0 -10 -4 -10 -10z"/>
<path d="M19520 18111 c0 -13 29 -35 37 -28 7 8 -15 37 -28 37 -5 0 -9 -4 -9 -9z"/>
<path d="M19640 18050 c0 -5 5 -10 10 -10 6 0 10 5 10 10 0 6 -4 10 -10 10 -5 0 -10 -4 -10 -10z"/>
<path d="M19680 18031 c0 -13 29 -35 37 -28 7 8 -15 37 -28 37 -5 0 -9 -4 -9 -9z"/>
<path d="M19740 17990 c0 -5 5 -10 10 -10 6 0 10 5 10 10 0 6 -4 10 -10 10 -5 0 -10 -4 -10 -10z"/>
<path d="M29180 15450 c0 -5 5 -10 10 -10 6 0 10 5 10 10 0 6 -4 10 -10 10 -5 0 -10 -4 -10 -10z"/>
<path d="M7583 14838 c1 -14 -6 -26 -20 -33 -35 -18 -63 -47 -61 -61 2 -7 -1 -13 -7 -13 -5 -1 -10 4 -10 9 0 14 -55 41 -67 34 -5 -3 -17 1 -27 10 -10 9 -25 14 -33 11 -8 -3 -25 6 -38 20 -28 30 -36 31 -43 5 -3 -13 -14 -20 -30 -20 -31 0 -51 -23 -44 -51 3 -12 0 -22 -9 -26 -21 -8 -17 -57 6 -78 11 -10 20 -26 20 -35 0 -31 30 -79 45 -73 8 3 15 11 15 18 0 20 20 29 33 16 8 -8 4 -18 -13 -36 -22 -23 -22 -26 -6 -43 9 -11 14 -26 11 -33 -3 -9 11 -31 35 -54 22 -21 40 -44 40 -50 0 -16 58 -38 78 -29 29 12 57 9 57 -6 0 -44 84 2 106 58 5 12 15 22 24 22 8 0 16 10 17 23 2 41 3 44 16 60 18 22 52 28 59 11 3 -8 9 -14 14 -14 12 0 11 34 -1 46 -8 8 -4 24 11 52 20 36 21 45 10 66 -14 26 -8 48 12 41 7 -3 18 7 25 22 10 23 10 30 -3 42 -13 13 -17 13 -33 -2 -11 -11 -26 -15 -36 -11 -13 5 -17 2 -14 -12 2 -15 -3 -19 -26 -19 -37 0 -45 22 -13 34 14 6 28 14 31 19 7 12 -16 62 -30 62 -6 0 -19 9 -29 20 -10 11 -31 20 -46 20 -24 0 -28 -4 -26 -22z m71 -80 c-3 -5 -12 -4 -20 3 -7 6 -11 15 -8 21 3 5 12 4 20 -3 7 -6 11 -15 8 -21z m-40 -99 c-3 -5 -10 -7 -15 -3 -5 3 -7 10 -3 15 3 5 10 7 15 3 5 -3 7 -10 3 -15z m-70 -290 c-3 -5 -10 -7 -15 -3 -5 3 -7 10 -3 15 3 5 10 7 15 3 5 -3 7 -10 3 -15z"/>
<path d="M7240 14510 c0 -5 5 -10 10 -10 6 0 10 5 10 10 0 6 -4 10 -10 10 -5 0 -10 -4 -10 -10z"/>
<path d="M7680 14450 c0 -5 9 -10 20 -10 11 0 20 5 20 10 0 6 -9 10 -20 10 -11 0 -20 -4 -20 -10z"/>
<path d="M7472 14308 c-17 -17 -15 -28 7 -28 19 0 35 23 24 34 -9 9 -18 7 -31 -6z"/>
<path d="M18282 8989 c2 -6 7 -10 11 -10 4 1 477 1 1052 1 690 0 1045 3 1045 10 0 7 -359 10 -1056 10 -748 0 -1055 -3 -1052 -11z"/>
<path d="M20470 8990 c0 -5 7 -10 15 -10 8 0 15 5 15 10 0 6 -7 10 -15 10 -8 0 -15 -4 -15 -10z"/>
<path d="M20530 8991 c0 -5 10 -11 23 -13 18 -2 23 -10 25 -45 2 -24 7 -43 13 -43 13 0 11 84 -3 98 -14 14 -58 16 -58 3z"/>
<path d="M18280 8930 c0 -16 5 -30 10 -30 6 0 10 14 10 30 0 17 -4 30 -10 30 -5 0 -10 -13 -10 -30z"/>
<path d="M18320 8735 c0 -8 5 -15 10 -15 6 0 10 7 10 15 0 8 -4 15 -10 15 -5 0 -10 -7 -10 -15z"/>
<path d="M20600 8685 c0 -14 5 -25 10 -25 6 0 10 11 10 25 0 14 -4 25 -10 25 -5 0 -10 -11 -10 -25z"/>
<path d="M18340 8675 c0 -14 5 -25 10 -25 6 0 10 11 10 25 0 14 -4 25 -10 25 -5 0 -10 -11 -10 -25z"/>
<path d="M20620 8545 c0 -19 5 -35 10 -35 6 0 10 16 10 35 0 19 -4 35 -10 35 -5 0 -10 -16 -10 -35z"/>
<path d="M18360 8510 c0 -11 5 -20 10 -20 6 0 10 9 10 20 0 11 -4 20 -10 20 -5 0 -10 -9 -10 -20z"/>
<path d="M18370 8433 c0 -5 5 -15 10 -23 9 -13 11 -13 19 0 5 8 7 18 5 22 -6 10 -34 11 -34 1z"/>
<path d="M18400 8235 c0 -8 5 -15 10 -15 6 0 10 7 10 15 0 8 -4 15 -10 15 -5 0 -10 -7 -10 -15z"/>
<path d="M18419 8116 c-8 -9 3 -76 12 -76 5 0 9 14 9 30 0 17 0 33 1 37 1 9 -15 15 -22 9z"/>
<path d="M20620 7795 c0 -25 5 -45 10 -45 6 0 10 20 10 45 0 25 -4 45 -10 45 -5 0 -10 -20 -10 -45z"/>
<path d="M20596 7692 c-7 -11 4 -52 14 -52 10 0 21 41 14 52 -3 4 -9 8 -14 8 -5 0 -11 -4 -14 -8z"/>
<path d="M20580 7505 c0 -8 5 -15 10 -15 6 0 10 7 10 15 0 8 -4 15 -10 15 -5 0 -10 -7 -10 -15z"/>
<path d="M20560 7410 c0 -5 5 -10 10 -10 6 0 10 5 10 10 0 6 -4 10 -10 10 -5 0 -10 -4 -10 -10z"/>
<path d="M20515 7260 c-7 -12 5 -60 15 -60 8 0 20 34 20 58 0 14 -26 16 -35 2z"/>
<path d="M18418 7164 c-4 -34 4 -50 20 -40 10 6 3 76 -8 76 -4 0 -10 -16 -12 -36z"/>
<path d="M18400 7081 c0 -12 5 -21 10 -21 6 0 10 6 10 14 0 8 -4 18 -10 21 -5 3 -10 -3 -10 -14z"/>
<path d="M20480 7090 c0 -5 5 -10 10 -10 6 0 10 5 10 10 0 6 -4 10 -10 10 -5 0 -10 -4 -10 -10z"/>
<path d="M18380 6900 c0 -11 5 -20 10 -20 6 0 10 9 10 20 0 11 -4 20 -10 20 -5 0 -10 -9 -10 -20z"/>
<path d="M20372 6808 c-14 -14 -16 -48 -4 -48 8 0 32 43 32 55 0 9 -16 5 -28 -7z"/>
<path d="M18340 6740 c0 -11 5 -20 10 -20 6 0 10 9 10 20 0 11 -4 20 -10 20 -5 0 -10 -9 -10 -20z"/>
<path d="M20280 6630 c0 -5 5 -10 10 -10 6 0 10 5 10 10 0 6 -4 10 -10 10 -5 0 -10 -4 -10 -10z"/>
<path d="M20220 6510 c0 -5 5 -10 10 -10 6 0 10 5 10 10 0 6 -4 10 -10 10 -5 0 -10 -4 -10 -10z"/>
<path d="M18252 6468 c-16 -16 -15 -28 3 -28 8 0 15 2 15 4 0 2 3 11 6 20 7 19 -7 21 -24 4z"/>
<path d="M18200 6330 c0 -5 5 -10 10 -10 6 0 10 5 10 10 0 6 -4 10 -10 10 -5 0 -10 -4 -10 -10z"/>
<path d="M18177 6263 c-12 -11 -8 -23 8 -23 8 0 15 7 15 15 0 16 -12 20 -23 8z"/>
<path d="M18100 6095 c0 -8 5 -15 10 -15 6 0 10 7 10 15 0 8 -4 15 -10 15 -5 0 -10 -7 -10 -15z"/>
<path d="M18057 6023 c-12 -11 -8 -23 8 -23 8 0 15 7 15 15 0 16 -12 20 -23 8z"/>
<path d="M19792 5960 c-7 -11 -21 -20 -32 -20 -11 0 -20 -4 -20 -10 0 -17 24 -10 53 15 27 24 33 35 19 35 -4 0 -13 -9 -20 -20z"/>
<path d="M18020 5950 c0 -5 5 -10 10 -10 6 0 10 5 10 10 0 6 -4 10 -10 10 -5 0 -10 -4 -10 -10z"/>
<path d="M17980 5895 c0 -8 5 -15 10 -15 6 0 10 7 10 15 0 8 -4 15 -10 15 -5 0 -10 -7 -10 -15z"/>
<path d="M17930 5825 c-7 -9 -10 -18 -7 -22 8 -7 37 15 37 28 0 14 -16 11 -30 -6z"/>
<path d="M17880 5750 c0 -5 5 -10 10 -10 6 0 10 5 10 10 0 6 -4 10 -10 10 -5 0 -10 -4 -10 -10z"/>
<path d="M17820 5660 c0 -11 5 -20 10 -20 6 0 10 9 10 20 0 11 -4 20 -10 20 -5 0 -10 -9 -10 -20z"/>
<path d="M19420 5670 c0 -5 5 -10 10 -10 6 0 10 5 10 10 0 6 -4 10 -10 10 -5 0 -10 -4 -10 -10z"/>
<path d="M19380 5650 c0 -5 5 -10 10 -10 6 0 10 5 10 10 0 6 -4 10 -10 10 -5 0 -10 -4 -10 -10z"/>
<path d="M19220 5550 c0 -5 5 -10 10 -10 6 0 10 5 10 10 0 6 -4 10 -10 10 -5 0 -10 -4 -10 -10z"/>
<path d="M17610 5410 c0 -5 7 -10 15 -10 8 0 15 5 15 10 0 6 -7 10 -15 10 -8 0 -15 -4 -15 -10z"/>
<path d="M17580 5370 c0 -5 5 -10 10 -10 6 0 10 5 10 10 0 6 -4 10 -10 10 -5 0 -10 -4 -10 -10z"/>
<path d="M18820 5350 c0 -5 5 -10 10 -10 6 0 10 5 10 10 0 6 -4 10 -10 10 -5 0 -10 -4 -10 -10z"/>
<path d="M17537 5343 c-12 -11 -8 -23 8 -23 8 0 15 7 15 15 0 16 -12 20 -23 8z"/>
<path d="M18780 5330 c0 -5 5 -10 10 -10 6 0 10 5 10 10 0 6 -4 10 -10 10 -5 0 -10 -4 -10 -10z"/>
<path d="M18700 5310 c0 -5 5 -10 10 -10 6 0 10 5 10 10 0 6 -4 10 -10 10 -5 0 -10 -4 -10 -10z"/>
<path d="M17497 5303 c-12 -11 -8 -23 8 -23 8 0 15 7 15 15 0 16 -12 20 -23 8z"/>
<path d="M17457 5263 c-12 -11 -8 -23 8 -23 8 0 15 7 15 15 0 16 -12 20 -23 8z"/>
<path d="M18540 5250 c0 -5 5 -10 10 -10 6 0 10 5 10 10 0 6 -4 10 -10 10 -5 0 -10 -4 -10 -10z"/>
<path d="M18440 5230 c0 -5 7 -10 15 -10 8 0 15 5 15 10 0 6 -7 10 -15 10 -8 0 -15 -4 -15 -10z"/>
<path d="M18270 5190 c0 -5 11 -10 25 -10 14 0 25 5 25 10 0 6 -11 10 -25 10 -14 0 -25 -4 -25 -10z"/>
<path d="M17340 5155 c-13 -14 -20 -28 -17 -32 8 -7 57 35 57 49 0 15 -16 8 -40 -17z"/>
<path d="M18080 5150 c0 -5 9 -10 20 -10 11 0 20 5 20 10 0 6 -9 10 -20 10 -11 0 -20 -4 -20 -10z"/>
<path d="M18010 5130 c0 -5 7 -10 15 -10 8 0 15 5 15 10 0 6 -7 10 -15 10 -8 0 -15 -4 -15 -10z"/>
<path d="M17280 5100 c0 -11 5 -20 10 -20 6 0 10 9 10 20 0 11 -4 20 -10 20 -5 0 -10 -9 -10 -20z"/>
<path d="M17760 5110 c0 -5 9 -10 20 -10 11 0 20 5 20 10 0 6 -9 10 -20 10 -11 0 -20 -4 -20 -10z"/>
</g>
</g>
  <g id="id2:id2" transform="matrix(1.25,0,0,1.25,0.0,0.0)"><g transform="translate(0.000000,979.200000) scale(0.040000,-0.040000)" fill="#c07999" stroke="none">
<path d="M18239 19326 c-2 -2 -76 -6 -164 -9 -88 -3 -173 -10 -188 -16 -16 -6 -52 -11 -80 -11 -50 0 -230 -39 -244 -53 -3 -4 -21 -7 -39 -7 -18 0 -35 -4 -38 -9 -3 -4 -28 -11 -55 -15 -29 -4 -51 -12 -55 -21 -3 -9 -19 -15 -42 -15 -21 0 -46 -8 -61 -20 -14 -11 -35 -20 -47 -20 -12 0 -26 -4 -31 -9 -6 -6 -59 -35 -120 -66 -60 -30 -119 -64 -130 -75 -12 -11 -26 -20 -31 -20 -16 0 -164 -127 -272 -233 -147 -145 -317 -367 -329 -431 -3 -17 -17 -44 -30 -59 -21 -26 -27 -40 -25 -59 1 -3 -5 -12 -13 -18 -8 -7 -15 -21 -15 -31 0 -10 -6 -22 -13 -26 -14 -8 -67 -113 -67 -132 0 -5 -6 -22 -14 -38 -21 -40 -66 -188 -66 -216 0 -12 -9 -40 -20 -62 -11 -22 -20 -53 -20 -71 0 -17 -7 -49 -16 -69 -8 -21 -20 -81 -25 -134 -5 -53 -15 -136 -23 -186 -21 -127 -20 -638 0 -795 8 -63 19 -164 24 -225 4 -60 15 -136 24 -168 9 -32 16 -79 16 -105 0 -27 6 -54 13 -61 6 -6 13 -24 14 -39 4 -65 15 -139 23 -157 4 -11 16 -52 26 -92 14 -56 22 -73 38 -77 39 -11 1590 -6 1606 4 13 9 13 12 -2 21 -12 7 -18 22 -18 48 0 21 -3 41 -7 45 -14 13 -33 82 -33 118 0 20 -4 39 -9 42 -9 6 -13 26 -30 138 -6 37 -16 78 -23 90 -7 13 -16 64 -19 113 -4 50 -14 133 -23 185 -19 117 -23 696 -5 749 8 23 8 36 1 43 -7 7 -4 20 9 42 14 24 19 50 19 112 0 51 5 92 14 109 8 15 17 59 21 99 4 39 12 80 18 91 6 11 10 30 8 43 -1 13 2 28 7 35 5 7 12 26 15 42 10 49 43 157 60 197 10 21 17 44 17 53 0 9 9 33 19 53 11 21 23 56 26 77 4 22 13 47 19 55 7 8 23 40 36 70 33 74 68 130 81 130 6 0 9 7 6 15 -4 9 5 21 23 32 22 13 27 20 18 30 -8 10 -4 23 14 51 14 20 36 55 48 77 24 41 68 96 120 151 17 17 30 36 30 41 0 18 171 165 324 279 54 40 274 154 297 154 8 0 37 9 66 20 28 10 81 22 117 26 45 5 71 13 82 25 10 11 23 19 31 19 7 0 13 4 13 9 0 16 -30 21 -55 9 -22 -10 -28 -8 -46 10 -12 14 -30 22 -47 20 -15 -1 -37 4 -48 10 -12 6 -24 9 -27 5 -4 -3 -14 0 -22 7 -10 8 -63 17 -133 22 -146 11 -166 13 -179 21 -5 3 -76 6 -156 5 -81 -1 -150 1 -153 5 -8 8 -28 9 -35 3z"/>
<path d="M19220 19190 c0 -5 5 -10 10 -10 6 0 10 5 10 10 0 6 -4 10 -10 10 -5 0 -10 -4 -10 -10z"/>
<path d="M18600 18270 c0 -6 27 -10 60 -10 33 0 60 4 60 10 0 6 -27 10 -60 10 -33 0 -60 -4 -60 -10z"/>
<path d="M18830 18250 c0 -5 11 -10 25 -10 14 0 25 5 25 10 0 6 -11 10 -25 10 -14 0 -25 -4 -25 -10z"/>
<path d="M7240 14770 c0 -5 5 -10 10 -10 6 0 10 5 10 10 0 6 -4 10 -10 10 -5 0 -10 -4 -10 -10z"/>
<path d="M7280 14730 c0 -5 5 -10 10 -10 6 0 10 5 10 10 0 6 -4 10 -10 10 -5 0 -10 -4 -10 -10z"/>
<path d="M7400 14710 c0 -5 5 -10 10 -10 6 0 10 5 10 10 0 6 -4 10 -10 10 -5 0 -10 -4 -10 -10z"/>
<path d="M7583 14650 c0 -32 6 -37 25 -18 19 19 15 48 -6 48 -14 0 -19 -8 -19 -30z"/>
<path d="M7460 14630 c0 -5 5 -10 10 -10 6 0 10 5 10 10 0 6 -4 10 -10 10 -5 0 -10 -4 -10 -10z"/>
<path d="M7240 14610 c0 -5 5 -10 10 -10 6 0 10 5 10 10 0 6 -4 10 -10 10 -5 0 -10 -4 -10 -10z"/>
<path d="M7520 14380 c0 -13 7 -20 20 -20 23 0 26 10 8 28 -18 18 -28 15 -28 -8z"/>
<path d="M23620 12070 c0 -11 5 -20 10 -20 6 0 10 9 10 20 0 11 -4 20 -10 20 -5 0 -10 -9 -10 -20z"/>
<path d="M18292 8991 c-11 -6 -11 -19 -2 -62 6 -30 15 -79 20 -109 13 -92 22 -130 31 -136 5 -3 9 -29 9 -58 0 -60 19 -166 31 -180 5 -6 9 -45 9 -88 0 -43 4 -97 9 -120 27 -119 30 -159 33 -363 1 -121 6 -225 10 -230 4 -6 2 -31 -3 -55 -7 -33 -7 -50 2 -68 10 -18 10 -27 1 -42 -8 -13 -12 -72 -12 -178 0 -129 -3 -165 -17 -193 -10 -21 -18 -66 -21 -119 -3 -78 -9 -104 -33 -152 -5 -10 -9 -36 -9 -58 0 -22 -5 -50 -12 -63 -25 -49 -28 -58 -28 -82 0 -14 -7 -39 -15 -55 -9 -16 -18 -50 -21 -74 -4 -25 -15 -53 -25 -62 -11 -9 -19 -30 -19 -46 0 -17 -9 -41 -20 -55 -11 -14 -20 -37 -20 -50 0 -14 -9 -36 -20 -50 -11 -14 -20 -32 -20 -40 0 -8 -9 -26 -20 -40 -11 -14 -20 -32 -20 -40 0 -8 -9 -26 -20 -40 -11 -14 -20 -33 -20 -43 0 -9 -9 -25 -20 -35 -11 -10 -20 -24 -20 -31 0 -14 -38 -73 -64 -99 -9 -9 -16 -23 -16 -31 0 -14 -86 -126 -101 -132 -5 -2 -9 -10 -9 -18 0 -8 -19 -36 -43 -62 -24 -26 -74 -85 -112 -132 -126 -155 -312 -343 -361 -365 -39 -18 -59 -41 -44 -50 16 -10 469 5 476 16 3 5 50 9 104 9 99 0 197 14 214 31 6 5 42 9 80 9 53 0 79 5 104 20 19 12 50 20 77 20 26 0 59 8 80 20 20 11 52 20 73 20 20 0 52 9 70 20 18 11 48 20 66 20 18 0 45 9 59 20 14 11 38 20 54 20 15 0 43 9 61 20 18 11 41 20 51 20 10 0 30 9 44 20 14 11 35 20 47 20 12 0 41 14 65 30 24 17 48 30 54 30 13 0 141 68 162 86 8 8 21 14 28 14 7 0 53 27 103 60 49 33 92 60 95 60 3 0 30 20 59 45 28 25 56 45 61 45 4 0 13 10 18 23 6 12 20 23 33 25 12 2 62 41 111 88 49 46 94 84 100 84 6 0 11 4 11 8 0 5 38 51 85 102 47 51 85 102 85 112 0 10 11 23 24 28 14 5 44 37 68 71 78 113 138 204 138 213 0 4 11 21 25 38 14 16 25 38 25 48 0 10 4 21 10 25 13 8 70 122 70 141 0 9 8 28 18 42 10 15 24 43 31 62 20 52 41 103 51 122 5 10 7 24 4 32 -3 8 -1 17 5 21 6 3 11 16 11 29 0 12 3 26 8 30 4 4 7 11 8 14 0 4 6 20 12 35 7 16 12 45 12 64 0 20 8 45 17 55 10 11 18 41 20 76 3 31 8 66 13 77 16 37 30 125 30 191 0 35 4 72 10 82 41 73 40 911 -1 957 -5 5 -9 53 -9 107 0 53 -5 121 -11 150 -20 97 101 88 -1173 88 -616 0 -1127 -4 -1134 -9z"/>
</g>
</g>
  <g id="id3:id3" transform="matrix(1.25,0,0,1.25,0.0,0.0)"><g transform="translate(0.000000,979.200000) scale(0.040000,-0.040000)" fill="#905a74" stroke="none">
<path d="M17990 19310 c0 -5 7 -10 15 -10 8 0 15 5 15 10 0 6 -7 10 -15 10 -8 0 -15 -4 -15 -10z"/>
<path d="M18280 19310 c0 -5 9 -10 20 -10 11 0 20 5 20 10 0 6 -9 10 -20 10 -11 0 -20 -4 -20 -10z"/>
<path d="M18520 19310 c0 -5 5 -10 10 -10 6 0 10 5 10 10 0 6 -4 10 -10 10 -5 0 -10 -4 -10 -10z"/>
<path d="M18567 19304 c-13 -13 -7 -24 14 -24 11 0 19 5 17 12 -5 14 -22 21 -31 12z"/>
<path d="M18850 19250 c0 -5 11 -10 25 -10 14 0 25 5 25 10 0 6 -11 10 -25 10 -14 0 -25 -4 -25 -10z"/>
<path d="M17520 19230 c0 -5 9 -10 20 -10 11 0 20 5 20 10 0 6 -9 10 -20 10 -11 0 -20 -4 -20 -10z"/>
<path d="M19027 19229 c-10 -6 -31 -8 -46 -4 -16 3 -32 2 -35 -4 -6 -10 8 -15 57 -23 32 -5 23 -23 -13 -26 -79 -6 -390 -133 -427 -174 -10 -11 -34 -28 -54 -39 -42 -21 -134 -93 -232 -182 -69 -62 -184 -204 -243 -298 -18 -28 -43 -63 -58 -78 -14 -15 -26 -33 -26 -40 0 -7 -16 -32 -35 -55 -35 -43 -44 -66 -26 -66 5 0 11 7 13 16 3 16 39 17 408 15 222 -1 409 -6 415 -11 10 -8 83 -16 245 -26 47 -2 94 -9 105 -13 34 -16 112 -31 155 -31 22 0 51 -7 64 -15 12 -8 42 -19 67 -24 82 -17 164 -49 289 -112 100 -50 101 -50 169 -111 35 -32 67 -58 72 -58 14 0 21 41 11 68 -6 15 -13 56 -16 92 -2 36 -12 82 -20 102 -9 21 -16 58 -16 83 0 24 -9 68 -20 97 -11 29 -20 72 -20 94 0 26 -7 51 -20 67 -12 15 -20 40 -20 64 0 21 -9 55 -20 76 -11 20 -20 47 -20 59 0 13 -9 38 -20 56 -11 18 -20 45 -20 60 0 15 -9 41 -20 57 -11 17 -20 46 -20 66 0 31 -9 45 -70 105 -77 76 -212 154 -266 154 -17 0 -37 6 -43 14 -7 8 -20 15 -29 16 -81 4 -140 14 -157 26 -23 16 -34 17 -58 3z"/>
<path d="M17360 19170 c0 -5 5 -10 10 -10 6 0 10 5 10 10 0 6 -4 10 -10 10 -5 0 -10 -4 -10 -10z"/>
<path d="M16800 18855 c-13 -14 -20 -28 -17 -32 8 -7 57 35 57 49 0 15 -16 8 -40 -17z"/>
<path d="M16290 18265 c-7 -9 -10 -18 -7 -22 8 -7 37 15 37 28 0 14 -16 11 -30 -6z"/>
<path d="M16240 18170 c0 -5 5 -10 10 -10 6 0 10 5 10 10 0 6 -4 10 -10 10 -5 0 -10 -4 -10 -10z"/>
<path d="M16220 18110 c0 -5 5 -10 10 -10 6 0 10 5 10 10 0 6 -4 10 -10 10 -5 0 -10 -4 -10 -10z"/>
<path d="M17660 17580 c0 -11 5 -20 10 -20 6 0 10 9 10 20 0 11 -4 20 -10 20 -5 0 -10 -9 -10 -20z"/>
<path d="M17600 17385 c0 -8 5 -15 10 -15 6 0 10 7 10 15 0 8 -4 15 -10 15 -5 0 -10 -7 -10 -15z"/>
<path d="M17560 17090 c0 -5 5 -10 10 -10 6 0 10 5 10 10 0 6 -4 10 -10 10 -5 0 -10 -4 -10 -10z"/>
<path d="M7215 14956 c-64 -20 -119 -60 -153 -113 -30 -47 -32 -55 -32 -145 0 -110 9 -138 80 -242 65 -97 196 -221 352 -335 17 -13 24 -12 55 4 93 51 327 295 375 394 27 53 33 78 36 153 4 79 2 97 -22 156 l-27 67 -77 38 c-111 55 -177 51 -263 -14 -53 -41 -80 -45 -109 -15 -13 15 -30 26 -37 26 -8 0 -25 8 -40 17 -32 21 -85 24 -138 9z"/>
<path d="M13480 14130 c0 -5 5 -10 10 -10 6 0 10 5 10 10 0 6 -4 10 -10 10 -5 0 -10 -4 -10 -10z"/>
<path d="M13600 14130 c0 -5 5 -10 10 -10 6 0 10 5 10 10 0 6 -4 10 -10 10 -5 0 -10 -4 -10 -10z"/>
<path d="M11000 13730 c0 -5 5 -10 10 -10 6 0 10 5 10 10 0 6 -4 10 -10 10 -5 0 -10 -4 -10 -10z"/>
<path d="M12440 13630 c0 -5 5 -10 10 -10 6 0 10 5 10 10 0 6 -4 10 -10 10 -5 0 -10 -4 -10 -10z"/>
<path d="M22060 13610 c0 -5 5 -10 10 -10 6 0 10 5 10 10 0 6 -4 10 -10 10 -5 0 -10 -4 -10 -10z"/>
<path d="M12660 13580 c0 -11 5 -20 10 -20 6 0 10 9 10 20 0 11 -4 20 -10 20 -5 0 -10 -9 -10 -20z"/>
<path d="M12440 13570 c0 -5 5 -10 10 -10 6 0 10 5 10 10 0 6 -4 10 -10 10 -5 0 -10 -4 -10 -10z"/>
<path d="M13420 13570 c0 -5 5 -10 10 -10 6 0 10 5 10 10 0 6 -4 10 -10 10 -5 0 -10 -4 -10 -10z"/>
<path d="M24820 13570 c0 -5 9 -10 20 -10 11 0 20 5 20 10 0 6 -9 10 -20 10 -11 0 -20 -4 -20 -10z"/>
<path d="M25840 13570 c0 -5 5 -10 10 -10 6 0 10 5 10 10 0 6 -4 10 -10 10 -5 0 -10 -4 -10 -10z"/>
<path d="M27420 13570 c0 -5 5 -10 10 -10 6 0 10 5 10 10 0 6 -4 10 -10 10 -5 0 -10 -4 -10 -10z"/>
<path d="M11880 13550 c0 -5 5 -10 11 -10 5 0 7 5 4 10 -3 6 -8 10 -11 10 -2 0 -4 -4 -4 -10z"/>
<path d="M12960 13551 c0 -13 29 -35 37 -28 7 8 -15 37 -28 37 -5 0 -9 -4 -9 -9z"/>
<path d="M13957 13554 c-8 -8 3 -34 14 -34 5 0 9 9 9 20 0 19 -11 26 -23 14z"/>
<path d="M14643 13546 c-28 -13 -30 -26 -5 -26 19 0 42 18 42 32 0 10 -9 9 -37 -6z"/>
<path d="M16060 13550 c0 -5 5 -10 10 -10 6 0 10 5 10 10 0 6 -4 10 -10 10 -5 0 -10 -4 -10 -10z"/>
<path d="M24000 13551 c0 -13 29 -35 37 -28 7 8 -15 37 -28 37 -5 0 -9 -4 -9 -9z"/>
<path d="M25726 13545 c-23 -17 -13 -34 11 -19 19 12 29 34 16 34 -4 0 -17 -7 -27 -15z"/>
<path d="M26380 13550 c0 -5 5 -10 10 -10 6 0 10 5 10 10 0 6 -4 10 -10 10 -5 0 -10 -4 -10 -10z"/>
<path d="M22840 13530 c0 -5 5 -10 10 -10 6 0 10 5 10 10 0 6 -4 10 -10 10 -5 0 -10 -4 -10 -10z"/>
<path d="M24640 13530 c0 -5 5 -10 10 -10 6 0 10 5 10 10 0 6 -4 10 -10 10 -5 0 -10 -4 -10 -10z"/>
<path d="M14560 13490 c0 -5 5 -10 10 -10 6 0 10 5 10 10 0 6 -4 10 -10 10 -5 0 -10 -4 -10 -10z"/>
<path d="M22760 13490 c0 -5 5 -10 10 -10 6 0 10 5 10 10 0 6 -4 10 -10 10 -5 0 -10 -4 -10 -10z"/>
<path d="M25640 13490 c0 -5 5 -10 10 -10 6 0 10 5 10 10 0 6 -4 10 -10 10 -5 0 -10 -4 -10 -10z"/>
<path d="M20220 13470 c0 -5 5 -10 10 -10 6 0 10 5 10 10 0 6 -4 10 -10 10 -5 0 -10 -4 -10 -10z"/>
<path d="M21900 13470 c0 -5 5 -10 10 -10 6 0 10 5 10 10 0 6 -4 10 -10 10 -5 0 -10 -4 -10 -10z"/>
<path d="M16280 13440 c0 -11 5 -20 10 -20 6 0 10 9 10 20 0 11 -4 20 -10 20 -5 0 -10 -9 -10 -20z"/>
<path d="M13960 13420 c0 -11 5 -20 10 -20 6 0 10 9 10 20 0 11 -4 20 -10 20 -5 0 -10 -9 -10 -20z"/>
<path d="M25080 13390 c0 -5 5 -10 10 -10 6 0 10 5 10 10 0 6 -4 10 -10 10 -5 0 -10 -4 -10 -10z"/>
<path d="M12680 13370 c0 -5 5 -10 10 -10 6 0 10 5 10 10 0 6 -4 10 -10 10 -5 0 -10 -4 -10 -10z"/>
<path d="M13360 13370 c0 -5 5 -10 10 -10 6 0 10 5 10 10 0 6 -4 10 -10 10 -5 0 -10 -4 -10 -10z"/>
<path d="M16280 13370 c0 -5 5 -10 10 -10 6 0 10 5 10 10 0 6 -4 10 -10 10 -5 0 -10 -4 -10 -10z"/>
<path d="M16720 13370 c0 -5 5 -10 10 -10 6 0 10 5 10 10 0 6 -4 10 -10 10 -5 0 -10 -4 -10 -10z"/>
<path d="M20620 13350 c0 -5 5 -10 10 -10 6 0 10 5 10 10 0 6 -4 10 -10 10 -5 0 -10 -4 -10 -10z"/>
<path d="M28130 13325 c-7 -9 -10 -18 -7 -22 8 -7 37 15 37 28 0 14 -16 11 -30 -6z"/>
<path d="M15600 13310 c0 -5 5 -10 10 -10 6 0 10 5 10 10 0 6 -4 10 -10 10 -5 0 -10 -4 -10 -10z"/>
<path d="M25060 13310 c0 -5 5 -10 10 -10 6 0 10 5 10 10 0 6 -4 10 -10 10 -5 0 -10 -4 -10 -10z"/>
<path d="M14300 13230 c0 -5 5 -10 10 -10 6 0 10 5 10 10 0 6 -4 10 -10 10 -5 0 -10 -4 -10 -10z"/>
<path d="M24980 13230 c0 -5 5 -10 10 -10 6 0 10 5 10 10 0 6 -4 10 -10 10 -5 0 -10 -4 -10 -10z"/>
<path d="M25020 13230 c0 -5 5 -10 10 -10 6 0 10 5 10 10 0 6 -4 10 -10 10 -5 0 -10 -4 -10 -10z"/>
<path d="M27120 13210 c0 -5 5 -10 10 -10 6 0 10 5 10 10 0 6 -4 10 -10 10 -5 0 -10 -4 -10 -10z"/>
<path d="M10200 13190 c0 -5 9 -10 20 -10 11 0 20 5 20 10 0 6 -9 10 -20 10 -11 0 -20 -4 -20 -10z"/>
<path d="M10260 13190 c0 -5 5 -10 10 -10 6 0 10 5 10 10 0 6 -4 10 -10 10 -5 0 -10 -4 -10 -10z"/>
<path d="M15680 13170 c0 -5 5 -10 10 -10 6 0 10 5 10 10 0 6 -4 10 -10 10 -5 0 -10 -4 -10 -10z"/>
<path d="M14260 13150 c0 -5 5 -10 10 -10 6 0 10 5 10 10 0 6 -4 10 -10 10 -5 0 -10 -4 -10 -10z"/>
<path d="M25320 13150 c0 -5 5 -10 10 -10 6 0 10 5 10 10 0 6 -4 10 -10 10 -5 0 -10 -4 -10 -10z"/>
<path d="M27880 13110 c0 -5 7 -10 15 -10 8 0 15 5 15 10 0 6 -7 10 -15 10 -8 0 -15 -4 -15 -10z"/>
<path d="M23560 13030 c0 -5 5 -10 10 -10 6 0 10 5 10 10 0 6 -4 10 -10 10 -5 0 -10 -4 -10 -10z"/>
<path d="M25280 13030 c0 -5 5 -10 10 -10 6 0 10 5 10 10 0 6 -4 10 -10 10 -5 0 -10 -4 -10 -10z"/>
<path d="M25680 13030 c0 -5 5 -10 10 -10 6 0 10 5 10 10 0 6 -4 10 -10 10 -5 0 -10 -4 -10 -10z"/>
<path d="M14200 13010 c0 -5 5 -10 10 -10 6 0 10 5 10 10 0 6 -4 10 -10 10 -5 0 -10 -4 -10 -10z"/>
<path d="M24720 13010 c0 -5 5 -10 10 -10 6 0 10 5 10 10 0 6 -4 10 -10 10 -5 0 -10 -4 -10 -10z"/>
<path d="M26440 12970 c0 -5 5 -10 10 -10 6 0 10 5 10 10 0 6 -4 10 -10 10 -5 0 -10 -4 -10 -10z"/>
<path d="M10360 12890 c0 -5 5 -10 10 -10 6 0 10 5 10 10 0 6 -4 10 -10 10 -5 0 -10 -4 -10 -10z"/>
<path d="M26874 12829 c-10 -17 13 -36 27 -22 12 12 4 33 -11 33 -5 0 -12 -5 -16 -11z"/>
<path d="M15776 12798 c-9 -33 -8 -38 8 -38 17 0 25 18 18 43 -6 24 -18 21 -26 -5z"/>
<path d="M26880 12770 c0 -5 5 -10 10 -10 6 0 10 5 10 10 0 6 -4 10 -10 10 -5 0 -10 -4 -10 -10z"/>
<path d="M28080 12730 c0 -5 5 -10 10 -10 6 0 10 5 10 10 0 6 -4 10 -10 10 -5 0 -10 -4 -10 -10z"/>
<path d="M22800 12710 c0 -5 5 -10 10 -10 6 0 10 5 10 10 0 6 -4 10 -10 10 -5 0 -10 -4 -10 -10z"/>
<path d="M26880 12710 c0 -5 5 -10 10 -10 6 0 10 5 10 10 0 6 -4 10 -10 10 -5 0 -10 -4 -10 -10z"/>
<path d="M10520 12690 c0 -5 5 -10 10 -10 6 0 10 5 10 10 0 6 -4 10 -10 10 -5 0 -10 -4 -10 -10z"/>
<path d="M21880 12630 c0 -5 5 -10 10 -10 6 0 10 5 10 10 0 6 -4 10 -10 10 -5 0 -10 -4 -10 -10z"/>
<path d="M23580 12550 c0 -5 5 -10 10 -10 6 0 10 5 10 10 0 6 -4 10 -10 10 -5 0 -10 -4 -10 -10z"/>
<path d="M20260 12530 c0 -5 5 -10 10 -10 6 0 10 5 10 10 0 6 -4 10 -10 10 -5 0 -10 -4 -10 -10z"/>
<path d="M27300 12490 c0 -5 5 -10 10 -10 6 0 10 5 10 10 0 6 -4 10 -10 10 -5 0 -10 -4 -10 -10z"/>
<path d="M23500 12450 c0 -5 5 -10 10 -10 6 0 10 5 10 10 0 6 -4 10 -10 10 -5 0 -10 -4 -10 -10z"/>
<path d="M21580 12410 c0 -5 5 -10 10 -10 6 0 10 5 10 10 0 6 -4 10 -10 10 -5 0 -10 -4 -10 -10z"/>
<path d="M23000 12390 c0 -5 5 -10 10 -10 6 0 10 5 10 10 0 6 -4 10 -10 10 -5 0 -10 -4 -10 -10z"/>
<path d="M20362 12370 c2 -7 15 -20 29 -29 l24 -16 -16 24 c-17 27 -44 42 -37 21z"/>
<path d="M21480 12370 c0 -5 5 -10 10 -10 6 0 10 5 10 10 0 6 -4 10 -10 10 -5 0 -10 -4 -10 -10z"/>
<path d="M23400 12370 c0 -5 5 -10 10 -10 6 0 10 5 10 10 0 6 -4 10 -10 10 -5 0 -10 -4 -10 -10z"/>
<path d="M26300 12370 c0 -5 5 -10 10 -10 6 0 10 5 10 10 0 6 -4 10 -10 10 -5 0 -10 -4 -10 -10z"/>
<path d="M10800 12330 c0 -5 5 -10 10 -10 6 0 10 5 10 10 0 6 -4 10 -10 10 -5 0 -10 -4 -10 -10z"/>
<path d="M20440 12270 c0 -5 5 -10 10 -10 6 0 10 5 10 10 0 6 -4 10 -10 10 -5 0 -10 -4 -10 -10z"/>
<path d="M28140 12270 c0 -5 5 -10 10 -10 6 0 10 5 10 10 0 6 -4 10 -10 10 -5 0 -10 -4 -10 -10z"/>
<path d="M22060 12250 c0 -5 5 -10 10 -10 6 0 10 5 10 10 0 6 -4 10 -10 10 -5 0 -10 -4 -10 -10z"/>
<path d="M22020 12210 c0 -5 5 -10 10 -10 6 0 10 5 10 10 0 6 -4 10 -10 10 -5 0 -10 -4 -10 -10z"/>
<path d="M24300 12070 c0 -5 5 -10 10 -10 6 0 10 5 10 10 0 6 -4 10 -10 10 -5 0 -10 -4 -10 -10z"/>
<path d="M24016 12034 c-10 -25 -7 -34 9 -34 9 0 15 9 15 25 0 28 -15 34 -24 9z"/>
<path d="M16060 12030 c0 -5 5 -10 10 -10 6 0 10 5 10 10 0 6 -4 10 -10 10 -5 0 -10 -4 -10 -10z"/>
<path d="M21700 12030 c0 -5 5 -10 10 -10 6 0 10 5 10 10 0 6 -4 10 -10 10 -5 0 -10 -4 -10 -10z"/>
<path d="M23600 12030 c0 -5 5 -10 10 -10 6 0 10 5 10 10 0 6 -4 10 -10 10 -5 0 -10 -4 -10 -10z"/>
<path d="M12660 12010 c0 -5 5 -10 10 -10 6 0 10 5 10 10 0 6 -4 10 -10 10 -5 0 -10 -4 -10 -10z"/>
<path d="M21580 11990 c0 -5 5 -10 10 -10 6 0 10 5 10 10 0 6 -4 10 -10 10 -5 0 -10 -4 -10 -10z"/>
<path d="M18440 7630 c0 -5 5 -10 10 -10 6 0 10 5 10 10 0 6 -4 10 -10 10 -5 0 -10 -4 -10 -10z"/>
<path d="M18440 7500 c0 -11 5 -20 10 -20 6 0 10 9 10 20 0 11 -4 20 -10 20 -5 0 -10 -9 -10 -20z"/>
<path d="M20476 7168 c-7 -35 7 -59 24 -42 11 11 2 74 -10 74 -4 0 -10 -14 -14 -32z"/>
<path d="M20460 7030 c0 -5 5 -10 10 -10 6 0 10 5 10 10 0 6 -4 10 -10 10 -5 0 -10 -4 -10 -10z"/>
<path d="M20420 6905 c0 -8 5 -15 10 -15 6 0 10 7 10 15 0 8 -4 15 -10 15 -5 0 -10 -7 -10 -15z"/>
<path d="M18360 6855 c0 -8 5 -15 10 -15 6 0 10 7 10 15 0 8 -4 15 -10 15 -5 0 -10 -7 -10 -15z"/>
<path d="M18320 6690 c0 -5 5 -10 10 -10 6 0 10 5 10 10 0 6 -4 10 -10 10 -5 0 -10 -4 -10 -10z"/>
<path d="M20010 6225 c-7 -9 -10 -18 -7 -22 8 -7 37 15 37 28 0 14 -16 11 -30 -6z"/>
<path d="M19640 5850 c0 -5 5 -10 10 -10 6 0 10 5 10 10 0 6 -4 10 -10 10 -5 0 -10 -4 -10 -10z"/>
<path d="M19590 5805 c-7 -9 -10 -18 -7 -22 8 -7 37 15 37 28 0 14 -16 11 -30 -6z"/>
<path d="M17860 5710 c0 -5 5 -10 10 -10 6 0 10 5 10 10 0 6 -4 10 -10 10 -5 0 -10 -4 -10 -10z"/>
<path d="M19040 5450 c0 -5 5 -10 10 -10 6 0 10 5 10 10 0 6 -4 10 -10 10 -5 0 -10 -4 -10 -10z"/>
<path d="M17520 5090 c0 -6 35 -10 85 -10 50 0 85 4 85 10 0 6 -35 10 -85 10 -50 0 -85 -4 -85 -10z"/>
</g>
</g>
  <g id="id4:id4" transform="matrix(1.25,0,0,1.25,0.0,0.0)"><g transform="translate(0.000000,979.200000) scale(0.040000,-0.040000)" fill="#3a3a3c" stroke="none">
<path d="M16040 17650 c0 -5 5 -10 10 -10 6 0 10 5 10 10 0 6 -4 10 -10 10 -5 0 -10 -4 -10 -10z"/>
<path d="M8840 15481 l-25 -7 -3 -2396 -2 -2396 22 -6 c13 -3 1360 -6 2993 -6 2808 0 2972 1 2995 17 26 18 46 30 122 72 80 44 413 244 433 260 11 9 36 25 55 35 41 22 143 85 219 135 29 20 61 41 69 46 213 133 578 381 602 410 7 9 27 23 44 32 28 14 214 150 411 299 130 99 296 231 475 379 27 22 98 85 158 140 60 55 126 116 148 135 22 19 109 102 194 183 85 82 158 152 162 155 4 4 28 32 54 62 26 30 96 107 155 170 130 138 262 289 275 312 5 9 28 38 51 65 104 120 443 569 443 588 0 3 15 25 34 48 18 23 68 101 111 172 43 72 87 143 99 159 60 84 365 688 391 776 4 14 21 53 37 88 17 35 27 66 23 70 -9 9 -10713 12 -10745 3z m3027 -1322 c97 -60 90 -225 -12 -273 -56 -26 -145 -19 -181 15 -38 36 -54 72 -54 126 0 57 26 105 72 133 45 28 129 27 175 -1z m1762 -43 c8 -5 11 -87 11 -282 0 -151 1 -275 3 -275 1 -1 73 -4 161 -8 l159 -6 1 -68 c1 -39 -3 -72 -9 -77 -6 -5 -79 -11 -161 -12 l-149 -3 -5 -685 -5 -685 -90 0 -90 0 -5 675 c-3 371 -9 680 -13 687 -5 9 -44 12 -130 12 l-122 -1 0 78 0 79 123 5 c94 4 125 8 132 20 6 8 10 130 10 277 0 216 2 263 14 270 18 10 149 9 165 -1z m-969 -267 c4 -203 8 -270 19 -282 11 -14 38 -17 155 -19 l141 -3 -4 -70 c-1 -38 -5 -73 -8 -77 -2 -5 -64 -8 -138 -8 l-134 0 -16 -22 c-14 -20 -15 -98 -15 -688 l1 -665 -87 -3 c-48 -2 -91 1 -96 6 -5 5 -8 313 -8 684 0 632 -1 676 -17 682 -10 4 -64 6 -120 5 -130 -2 -135 2 -131 90 l3 66 120 5 c66 3 125 8 132 13 8 5 12 82 13 274 0 146 3 270 6 275 3 5 45 7 92 6 l87 -3 5 -266z m-1880 227 c181 -24 255 -54 355 -148 100 -94 155 -233 155 -391 0 -100 -36 -229 -84 -304 -92 -144 -300 -243 -507 -243 -48 0 -69 -7 -107 -36 -2 -1 4 -11 13 -21 9 -10 38 -45 63 -78 26 -34 75 -97 109 -140 34 -44 104 -136 157 -205 52 -69 114 -149 138 -178 74 -92 92 -115 138 -177 24 -33 57 -75 74 -93 21 -22 27 -35 20 -42 -7 -7 -57 -10 -129 -8 l-118 3 -16 26 c-9 15 -28 42 -43 60 -135 170 -227 287 -353 455 -49 65 -93 121 -98 122 -4 2 -21 25 -39 50 -17 26 -45 63 -62 83 -17 19 -47 55 -66 79 -70 86 -76 90 -123 90 -25 0 -49 -6 -56 -13 -7 -10 -12 -157 -13 -483 l-3 -469 -89 -3 c-49 -2 -93 1 -98 6 -9 9 -12 2048 -2 2063 9 15 664 10 784 -5z m4345 -496 c88 -15 138 -31 224 -74 78 -38 202 -134 244 -188 100 -128 177 -329 177 -464 0 -22 5 -45 11 -51 31 -31 -4 -33 -685 -33 -517 0 -685 -3 -694 -12 -19 -19 -14 -87 13 -173 62 -200 193 -344 365 -404 100 -35 252 -40 355 -11 146 41 264 120 345 230 25 33 53 72 63 86 19 25 51 32 62 13 4 -5 28 -20 53 -32 65 -31 66 -55 7 -143 -25 -38 -70 -93 -98 -123 -56 -57 -189 -151 -214 -151 -8 0 -27 -8 -41 -18 -86 -58 -375 -75 -546 -33 -215 53 -375 184 -485 395 -82 160 -104 321 -75 566 4 30 10 60 14 65 4 6 13 28 20 50 38 116 160 286 262 362 75 56 170 112 193 113 11 0 54 9 95 20 81 20 246 25 335 10z m1671 -16 c24 -14 44 -31 44 -36 0 -18 -58 -112 -83 -136 -21 -20 -25 -21 -37 -7 -21 26 -120 20 -177 -11 -91 -48 -140 -98 -184 -190 -68 -141 -79 -229 -87 -739 l-7 -430 -93 0 -93 0 1 760 c0 418 4 763 9 768 4 4 46 7 92 5 l84 -3 10 -80 c14 -110 31 -133 55 -74 19 44 141 143 214 173 88 36 190 36 252 0z m-4926 -779 c0 -417 -4 -763 -9 -768 -4 -4 -46 -7 -92 -5 l-84 3 -3 755 c-1 415 0 761 3 768 3 9 28 12 95 10 l91 -3 -1 -760z"/>
<path d="M10197 13879 c-4 -13 -7 -169 -7 -345 0 -287 2 -323 17 -335 24 -20 527 -20 598 0 113 32 200 101 245 195 53 111 38 262 -33 340 -12 14 -33 38 -46 56 -12 17 -41 40 -63 51 -88 45 -122 49 -419 56 l-286 6 -6 -24z"/>
<path d="M14860 13395 c-60 -14 -151 -54 -225 -100 -79 -48 -205 -233 -205 -300 0 -13 -4 -27 -10 -30 -5 -3 -10 -13 -10 -21 0 -12 80 -14 565 -14 510 0 565 2 573 16 11 20 -19 123 -48 164 -11 15 -20 32 -20 37 0 19 -74 95 -133 137 -58 41 -96 59 -205 100 -62 23 -203 29 -282 11z"/>
<path d="M20802 15478 c-7 -7 -12 -24 -12 -38 0 -14 -16 -64 -36 -110 -20 -47 -38 -94 -41 -105 -3 -11 -11 -27 -17 -35 -6 -8 -23 -39 -36 -69 -38 -82 -150 -314 -160 -331 -5 -8 -32 -60 -60 -114 -28 -55 -59 -111 -68 -125 -10 -14 -30 -51 -46 -81 -36 -71 -103 -193 -139 -250 -16 -25 -74 -119 -129 -210 -140 -231 -400 -619 -489 -731 -20 -24 -44 -58 -55 -76 -22 -37 -163 -223 -179 -238 -10 -9 -46 -56 -120 -154 -11 -15 -58 -74 -105 -131 -47 -57 -105 -128 -130 -159 -72 -91 -375 -436 -510 -581 -355 -383 -569 -599 -880 -892 -140 -132 -270 -257 -288 -277 -18 -20 -47 -43 -64 -51 -48 -23 -45 -37 9 -43 91 -11 11903 -8 11924 3 l19 11 0 2393 0 2394 -22 6 c-13 3 -1897 6 -4188 6 -3227 0 -4169 -3 -4178 -12z m698 -1354 c235 -50 463 -168 609 -317 l64 -66 -15 -23 c-19 -28 -234 -242 -249 -247 -6 -2 -34 20 -63 48 -96 95 -205 162 -339 209 l-102 36 -135 1 c-114 0 -146 -4 -206 -23 -136 -44 -218 -96 -314 -200 -79 -85 -105 -119 -115 -152 -4 -14 -13 -32 -21 -40 -7 -9 -25 -63 -40 -120 -23 -91 -26 -119 -21 -210 12 -272 155 -496 387 -608 97 -46 113 -51 228 -67 84 -12 124 -13 196 -4 50 6 100 14 111 19 11 5 38 14 59 21 87 26 218 111 307 197 32 30 61 53 66 51 15 -6 253 -255 253 -265 0 -16 -53 -84 -65 -84 -7 0 -15 -6 -18 -13 -6 -16 -207 -156 -272 -189 -92 -48 -141 -68 -163 -68 -12 0 -30 -4 -40 -9 -66 -35 -463 -49 -582 -21 -237 55 -387 133 -549 286 -45 42 -97 100 -115 128 -73 115 -86 136 -86 143 0 4 -9 25 -20 48 -60 123 -94 352 -83 555 17 306 168 599 398 770 140 103 314 181 480 214 101 20 361 20 455 0z m1830 -559 c36 -10 72 -23 80 -30 8 -7 26 -16 40 -20 14 -4 56 -32 93 -62 39 -31 73 -51 77 -47 5 5 10 38 12 74 l3 65 188 0 187 0 0 -765 0 -765 -192 0 -193 0 4 63 c4 72 -4 77 -64 37 -160 -109 -298 -152 -456 -141 -47 3 -105 12 -128 21 -24 8 -51 15 -61 15 -31 0 -170 83 -231 138 -129 117 -207 251 -250 432 -28 115 -12 419 26 505 70 160 101 211 182 296 57 60 102 97 139 115 30 15 57 30 59 34 3 5 27 13 53 19 26 5 65 17 87 25 56 21 257 16 345 -9z m1747 10 c62 -26 62 -27 33 -115 -15 -44 -30 -83 -33 -87 -4 -3 -7 -19 -7 -35 0 -16 -6 -31 -14 -34 -8 -3 -18 -19 -21 -36 -8 -35 -28 -45 -59 -29 -12 7 -43 13 -69 14 -42 2 -50 -2 -93 -43 -109 -107 -123 -210 -116 -885 l4 -310 -188 0 -188 0 -5 25 c-3 14 -4 358 -1 765 l5 740 160 0 160 0 -3 -67 c-2 -37 -1 -72 2 -77 9 -13 36 -2 36 14 0 19 102 118 141 136 88 42 191 51 256 24z m1208 -9 c28 -9 63 -16 78 -16 15 0 30 -7 33 -15 4 -8 10 -15 16 -15 5 0 39 -14 76 -32 95 -46 237 -189 288 -289 48 -96 94 -242 94 -301 0 -26 4 -49 9 -52 13 -9 6 -143 -8 -160 -12 -14 -86 -16 -615 -18 l-601 -3 -3 -36 c-7 -87 94 -217 216 -277 l77 -37 135 0 c127 0 139 2 200 29 36 15 81 41 101 57 58 46 83 54 121 39 18 -7 40 -19 48 -26 8 -7 47 -25 85 -41 39 -15 87 -39 108 -51 l37 -24 -45 -51 c-92 -103 -157 -149 -320 -223 -107 -48 -397 -65 -540 -30 -156 37 -264 92 -353 179 -106 103 -173 201 -197 287 -4 14 -13 34 -20 45 -28 45 -43 305 -24 425 15 100 12 86 32 131 8 19 19 48 23 65 23 93 221 317 323 366 25 12 57 30 70 40 13 10 40 18 60 18 21 0 41 4 47 9 32 33 352 37 449 7z m1461 15 c16 -5 54 -14 84 -21 30 -7 62 -18 70 -25 8 -7 31 -20 50 -29 43 -20 113 -77 161 -131 l36 -40 -124 -119 -123 -119 -28 28 c-59 59 -183 125 -236 125 -45 0 -114 -41 -126 -73 -5 -17 -10 -36 -10 -43 0 -33 58 -76 197 -146 82 -41 166 -87 187 -101 21 -15 43 -27 48 -27 5 0 41 -28 80 -62 125 -112 171 -249 146 -436 -8 -57 -18 -96 -25 -99 -7 -3 -13 -11 -13 -19 0 -23 -85 -127 -131 -160 -120 -85 -201 -108 -374 -108 -139 1 -187 11 -295 62 -104 49 -230 157 -230 197 0 18 192 230 218 240 9 3 27 -6 45 -25 31 -31 112 -90 125 -90 4 0 23 -8 42 -19 49 -26 129 -35 178 -20 60 18 107 70 107 119 0 35 -7 47 -55 94 -43 43 -87 71 -200 127 -234 116 -362 236 -399 374 -15 57 -17 211 -3 228 7 7 18 32 26 54 16 46 75 128 114 159 53 41 127 78 192 95 70 19 219 24 266 10z"/>
<path d="M23090 13217 c-80 -28 -111 -48 -169 -110 -87 -94 -114 -167 -117 -327 -2 -92 1 -113 23 -170 54 -137 144 -226 274 -271 86 -30 202 -23 280 15 73 37 119 69 119 83 0 6 13 20 29 29 40 24 95 132 110 215 24 142 10 221 -66 364 -28 54 -93 111 -168 149 -65 33 -86 38 -162 42 -73 3 -99 0 -153 -19z"/>
<path d="M25969 13255 c-123 -33 -212 -100 -269 -201 -25 -44 -29 -59 -19 -70 9 -12 77 -14 405 -14 l394 0 0 28 c0 34 -44 105 -96 153 -107 99 -278 142 -415 104z"/>
</g>
</g>
</svg>
