<?xml version="1.0" standalone="no"?>
<!DOCTYPE svg PUBLIC "-//W3C//DTD SVG 1.1//EN"
 "http://www.w3.org/Graphics/SVG/1.1/DTD/svg11.dtd">
<!-- Created with svg_stack (http://github.com/astraw/svg_stack) -->
<svg xmlns:sodipodi="http://sodipodi.sourceforge.net/DTD/sodipodi-0.dtd" xmlns="http://www.w3.org/2000/svg" version="1.1" width="4000.0" height="4000.0">
  <defs/>
  <g id="id0:id0" transform="matrix(1.25,0,0,1.25,0.0,0.0)"><g transform="translate(0.000000,3200.000000) scale(0.040000,-0.040000)" fill="#000000" stroke="none">
<path d="M39135 72199 c-366 -5 -675 -16 -1135 -39 -259 -13 -809 -49 -840 -55 -14 -2 -97 -9 -185 -15 -88 -6 -194 -15 -235 -20 -41 -5 -131 -14 -200 -20 -69 -5 -183 -17 -255 -25 -71 -8 -173 -19 -225 -25 -424 -48 -999 -125 -1305 -175 -49 -8 -164 -26 -255 -40 -91 -14 -201 -32 -245 -40 -44 -8 -154 -28 -245 -45 -305 -54 -444 -81 -715 -136 -399 -82 -468 -96 -790 -169 -155 -35 -883 -214 -1035 -255 -41 -12 -106 -29 -145 -39 -38 -11 -122 -34 -185 -51 -63 -18 -128 -36 -145 -40 -30 -8 -310 -89 -555 -161 -906 -268 -2146 -710 -3020 -1076 -85 -36 -180 -76 -210 -88 -51 -21 -221 -95 -615 -268 -88 -38 -207 -92 -263 -118 -57 -27 -105 -49 -107 -49 -2 0 -79 -36 -171 -80 -91 -44 -169 -80 -172 -80 -9 0 -899 -444 -1032 -515 -69 -37 -168 -90 -220 -117 -908 -481 -1836 -1034 -2735 -1632 -241 -161 -574 -388 -695 -476 -36 -25 -117 -83 -180 -128 -386 -274 -940 -690 -1255 -942 -38 -31 -117 -94 -175 -140 -195 -156 -556 -454 -725 -599 -232 -199 -464 -400 -576 -501 -64 -58 -156 -141 -205 -185 -645 -578 -1454 -1384 -2118 -2109 -247 -270 -290 -318 -477 -532 -777 -889 -1440 -1734 -2141 -2724 -521 -737 -1151 -1730 -1620 -2555 -141 -248 -200 -353 -363 -650 -316 -575 -751 -1461 -1065 -2165 -137 -307 -245 -559 -323 -750 -221 -540 -238 -583 -364 -910 -61 -157 -275 -746 -330 -905 -150 -438 -324 -978 -412 -1275 -107 -365 -143 -488 -186 -645 -14 -55 -33 -120 -40 -145 -7 -25 -23 -83 -35 -130 -13 -47 -31 -114 -41 -150 -16 -60 -139 -557 -209 -845 -25 -105 -72 -317 -155 -700 -53 -243 -120 -591 -185 -955 -17 -91 -37 -201 -45 -245 -8 -44 -26 -154 -40 -245 -14 -91 -32 -205 -40 -255 -35 -215 -123 -849 -145 -1045 -5 -47 -16 -146 -25 -220 -9 -74 -22 -191 -30 -260 -8 -69 -19 -183 -25 -255 -6 -71 -15 -164 -20 -205 -5 -41 -12 -115 -15 -165 -3 -49 -13 -162 -21 -250 -73 -805 -115 -2256 -93 -3260 12 -580 57 -1469 93 -1870 9 -88 18 -200 21 -250 3 -49 10 -124 15 -165 5 -41 14 -133 20 -205 5 -71 17 -184 25 -250 7 -66 19 -165 25 -220 25 -243 98 -807 134 -1045 70 -458 135 -851 181 -1100 8 -47 22 -123 31 -170 51 -285 179 -896 270 -1295 29 -126 193 -786 234 -945 87 -332 170 -625 305 -1080 151 -507 357 -1129 539 -1631 190 -525 315 -848 551 -1424 249 -608 582 -1334 937 -2045 199 -398 246 -488 461 -890 804 -1501 1892 -3164 2967 -4535 536 -683 1197 -1462 1679 -1980 47 -49 177 -189 290 -310 264 -283 1033 -1052 1316 -1316 121 -113 261 -243 310 -290 194 -180 714 -639 986 -869 68 -58 150 -128 183 -155 81 -69 275 -227 501 -409 1297 -1042 2706 -2000 4165 -2833 640 -366 968 -541 1657 -883 286 -143 523 -260 526 -260 3 0 66 -29 142 -65 75 -36 138 -65 140 -65 2 0 50 -22 107 -49 205 -96 900 -398 1188 -515 63 -26 147 -60 185 -76 98 -40 266 -107 355 -141 41 -15 111 -42 155 -59 563 -219 1507 -542 2130 -730 190 -58 604 -178 650 -190 17 -4 89 -24 160 -44 72 -20 166 -46 210 -58 44 -11 109 -29 145 -39 229 -63 1010 -250 1330 -318 52 -11 147 -32 210 -45 253 -55 906 -181 1115 -215 33 -5 141 -23 240 -40 99 -17 209 -35 245 -40 36 -6 142 -22 235 -36 270 -41 758 -107 915 -125 47 -5 141 -16 210 -24 241 -29 406 -46 530 -56 69 -6 159 -15 200 -20 41 -5 138 -14 215 -19 77 -6 226 -17 330 -25 342 -28 659 -46 952 -56 158 -6 385 -15 503 -21 281 -15 1678 -15 1965 0 121 6 346 16 500 21 360 12 1017 55 1395 91 744 70 1121 114 1755 204 819 117 1761 293 2630 491 128 30 791 193 906 224 246 65 279 74 414 111 242 67 288 80 350 99 33 10 125 37 205 60 322 93 976 302 1405 450 279 97 867 312 1025 375 19 8 154 61 300 119 146 57 337 135 425 171 88 37 185 77 215 89 30 13 143 61 250 109 107 47 267 117 355 155 88 38 209 93 269 121 59 28 110 51 111 51 2 0 59 26 126 59 68 32 156 73 194 91 112 52 937 463 1080 538 365 192 1027 556 1190 655 22 13 135 79 250 147 1289 755 2616 1673 3819 2641 126 101 243 195 260 209 42 34 388 323 456 381 1001 858 1815 1636 2710 2594 118 127 247 266 285 309 39 44 117 132 175 196 385 425 878 1015 1315 1571 1125 1434 2146 2992 3007 4589 19 36 53 99 76 140 166 306 551 1073 716 1430 66 140 135 289 154 330 192 413 576 1321 722 1710 16 41 49 129 75 195 275 713 574 1605 810 2410 49 166 89 306 98 340 2 11 19 72 37 135 77 275 278 1063 324 1270 8 36 24 107 35 158 82 360 177 819 236 1139 62 334 117 649 150 858 14 88 32 201 40 250 52 324 160 1152 180 1380 3 39 10 102 15 140 6 39 17 144 25 235 8 91 19 215 24 275 33 360 50 606 80 1135 41 712 59 1739 42 2380 -13 473 -37 1090 -51 1265 -5 72 -14 216 -20 320 -6 105 -15 231 -20 280 -5 50 -14 160 -20 245 -6 85 -15 189 -20 230 -5 41 -14 134 -20 205 -6 72 -15 162 -20 200 -5 39 -14 122 -20 185 -6 63 -17 167 -25 230 -8 63 -24 189 -35 280 -53 417 -89 666 -171 1170 -78 479 -180 1028 -265 1420 -48 225 -105 486 -119 545 -84 365 -265 1088 -320 1275 -8 25 -34 122 -60 215 -25 94 -55 197 -65 230 -10 33 -37 125 -60 205 -134 465 -375 1202 -560 1715 -210 581 -300 815 -575 1485 -112 274 -360 844 -454 1043 -28 59 -51 110 -51 112 0 2 -29 66 -66 142 -36 76 -91 192 -122 258 -150 316 -543 1091 -648 1279 -24 43 -44 80 -44 82 0 5 -224 408 -352 634 -287 506 -661 1124 -923 1525 -475 725 -680 1024 -1095 1590 -448 611 -741 987 -1244 1595 -193 232 -534 628 -721 836 -55 61 -134 149 -175 195 -553 619 -1579 1644 -2224 2224 -49 44 -139 125 -200 180 -61 55 -142 127 -181 160 -38 33 -111 96 -160 140 -550 486 -1549 1281 -2165 1723 -63 45 -151 108 -195 140 -44 32 -111 80 -150 107 -38 27 -106 74 -149 105 -660 463 -1497 1000 -2176 1395 -96 56 -191 111 -210 122 -75 44 -502 284 -596 336 -157 86 -381 205 -559 299 -160 84 -928 468 -1045 522 -47 22 -132 62 -190 89 -193 91 -373 173 -535 244 -88 39 -248 109 -355 156 -108 47 -256 111 -330 142 -74 31 -160 67 -190 80 -71 30 -403 162 -650 258 -769 298 -1597 581 -2440 832 -69 21 -138 41 -155 45 -16 4 -84 23 -150 43 -66 19 -165 47 -220 62 -55 14 -120 33 -145 40 -25 7 -83 23 -130 35 -47 12 -114 31 -150 41 -66 18 -692 173 -850 210 -47 11 -112 26 -145 34 -33 8 -100 23 -150 34 -49 11 -121 27 -160 35 -38 9 -155 34 -260 56 -178 37 -249 51 -595 116 -74 14 -179 34 -232 45 -97 19 -375 68 -538 94 -285 46 -358 57 -480 75 -403 60 -794 112 -1140 150 -52 6 -156 17 -230 26 -526 59 -1432 126 -1935 144 -154 5 -386 14 -515 20 -308 13 -1074 17 -1565 9z m1705 -975 c41 -2 172 -9 290 -14 1061 -52 1943 -130 2785 -246 310 -42 410 -57 520 -74 66 -11 181 -29 255 -40 128 -20 229 -37 485 -81 338 -59 926 -175 1215 -239 47 -11 139 -31 205 -46 263 -57 918 -216 1125 -274 36 -9 103 -28 150 -40 993 -265 2149 -644 3125 -1024 126 -50 265 -105 530 -213 88 -36 198 -80 244 -99 272 -110 947 -411 1270 -565 79 -38 145 -69 146 -69 2 0 149 -71 327 -158 405 -198 987 -502 1216 -634 46 -26 85 -48 87 -48 3 0 109 -59 237 -132 1818 -1026 3482 -2195 5043 -3543 629 -543 1116 -995 1725 -1605 651 -651 1110 -1149 1673 -1809 301 -354 431 -510 704 -851 340 -423 835 -1088 1183 -1587 285 -410 760 -1134 949 -1448 23 -38 67 -110 98 -160 30 -49 85 -142 122 -205 37 -63 121 -205 185 -314 65 -110 131 -225 148 -255 17 -31 57 -101 88 -156 414 -724 960 -1811 1297 -2585 47 -107 125 -285 173 -395 474 -1081 982 -2506 1335 -3750 87 -304 223 -819 279 -1055 14 -58 48 -199 76 -315 28 -115 55 -230 60 -255 5 -25 30 -139 55 -255 61 -282 162 -775 186 -907 10 -60 28 -159 39 -220 128 -706 245 -1527 315 -2218 8 -80 19 -181 25 -225 5 -44 14 -143 20 -220 6 -77 15 -180 20 -230 6 -49 17 -193 25 -320 8 -126 17 -246 20 -265 3 -19 12 -190 20 -380 9 -190 20 -433 25 -540 17 -332 23 -1521 11 -1945 -12 -408 -47 -1221 -56 -1290 -3 -22 -12 -146 -20 -275 -9 -129 -20 -271 -25 -315 -5 -44 -11 -118 -15 -165 -7 -95 -40 -430 -56 -560 -5 -47 -16 -143 -24 -215 -53 -512 -171 -1327 -276 -1905 -17 -91 -36 -201 -44 -245 -14 -81 -113 -572 -159 -785 -13 -63 -40 -189 -60 -280 -19 -91 -55 -250 -81 -355 -88 -363 -187 -760 -206 -830 -11 -38 -51 -182 -88 -320 -443 -1617 -1056 -3286 -1766 -4810 -224 -482 -508 -1057 -676 -1372 -45 -85 -105 -196 -162 -303 -613 -1150 -1436 -2458 -2225 -3540 -538 -736 -934 -1236 -1612 -2031 -544 -638 -1314 -1452 -2020 -2134 -321 -310 -973 -907 -1231 -1125 -42 -36 -173 -147 -290 -246 -1068 -907 -2222 -1755 -3439 -2526 -344 -218 -490 -307 -1000 -606 -232 -136 -816 -462 -1010 -564 -451 -238 -595 -311 -888 -455 -182 -90 -334 -163 -336 -163 -2 0 -68 -31 -147 -69 -293 -140 -905 -415 -1104 -495 -49 -20 -99 -41 -110 -46 -11 -5 -60 -26 -110 -46 -49 -20 -155 -63 -235 -96 -352 -144 -966 -379 -1275 -488 -66 -23 -167 -59 -225 -79 -191 -68 -860 -286 -1195 -389 -607 -188 -1582 -444 -2190 -576 -66 -15 -158 -35 -205 -46 -218 -48 -749 -156 -915 -185 -44 -8 -118 -21 -165 -30 -304 -56 -570 -99 -1050 -171 -622 -93 -1722 -213 -2190 -239 -58 -3 -163 -10 -235 -16 -290 -21 -895 -50 -1300 -60 -459 -12 -1663 -6 -2025 10 -324 15 -774 40 -900 51 -63 5 -167 12 -230 15 -63 4 -214 15 -335 26 -121 10 -249 21 -285 24 -230 20 -979 105 -1230 140 -58 9 -186 27 -285 40 -287 40 -823 126 -1065 171 -74 14 -173 32 -220 40 -101 18 -655 128 -755 150 -38 8 -108 24 -155 34 -47 11 -139 31 -205 46 -238 51 -726 170 -1010 244 -393 103 -626 168 -1075 300 -244 72 -738 230 -1015 324 -367 125 -749 259 -825 291 -19 8 -96 37 -170 64 -74 28 -182 69 -240 91 -58 23 -127 50 -155 60 -27 10 -99 38 -160 63 -239 97 -384 157 -480 197 -55 23 -116 47 -135 55 -38 14 -187 77 -235 100 -16 7 -163 72 -325 144 -162 71 -328 146 -368 165 -40 20 -75 36 -77 36 -3 0 -75 34 -161 75 -86 41 -158 75 -161 75 -2 0 -194 94 -426 210 -394 196 -526 263 -752 384 -49 27 -124 67 -165 88 -41 22 -129 71 -195 108 -66 37 -208 116 -315 175 -107 60 -226 127 -265 150 -38 23 -110 65 -160 94 -49 29 -117 69 -150 88 -308 183 -405 240 -432 258 -17 11 -58 36 -90 56 -460 282 -1216 783 -1630 1080 -34 24 -115 82 -180 128 -224 160 -552 405 -903 676 -321 247 -952 762 -1165 950 -44 39 -111 97 -149 129 -371 311 -1118 1007 -1642 1530 -505 505 -1181 1230 -1539 1650 -421 496 -555 655 -630 752 -22 28 -94 117 -160 199 -122 150 -146 180 -294 371 -685 883 -1224 1659 -1891 2724 -441 703 -992 1698 -1416 2558 -101 204 -184 374 -184 376 0 2 -31 68 -69 147 -95 199 -173 370 -274 599 -275 627 -282 644 -454 1070 -374 927 -697 1856 -977 2810 -78 265 -148 508 -183 640 -169 635 -264 1029 -413 1715 -28 132 -135 671 -159 810 -12 66 -28 154 -36 195 -15 78 -90 541 -124 765 -60 388 -114 804 -160 1225 -43 391 -51 469 -61 595 -6 72 -15 173 -20 225 -5 52 -17 201 -25 330 -8 129 -17 246 -20 260 -7 39 -46 904 -54 1210 -10 358 -10 1389 0 1740 8 304 46 1158 54 1205 2 17 11 136 20 265 8 129 20 276 25 325 5 50 14 151 20 225 6 74 17 198 25 275 75 688 97 865 165 1340 52 362 138 901 160 1000 5 22 19 96 31 165 26 146 137 713 173 880 429 2002 1057 3970 1843 5780 241 554 303 693 449 999 35 73 64 135 64 137 0 10 346 706 439 884 63 118 138 262 169 320 229 437 684 1230 989 1725 366 595 904 1396 1312 1955 292 400 655 875 820 1074 36 44 73 89 81 101 33 49 305 379 535 650 83 97 168 198 190 224 191 230 871 974 1166 1276 123 127 258 265 299 309 141 146 854 832 1100 1057 441 404 912 812 1302 1130 95 78 202 165 238 194 480 393 1192 924 1865 1390 689 477 1669 1088 2375 1480 107 59 245 136 305 170 108 61 161 90 360 196 235 125 423 221 792 404 215 107 394 195 397 195 3 0 49 22 103 48 138 68 382 180 703 322 378 168 463 204 1125 472 207 84 461 182 715 276 186 70 357 130 763 271 103 36 303 102 612 201 122 39 384 119 600 184 103 30 194 56 535 153 30 8 78 21 105 28 28 8 84 23 125 34 384 103 894 228 1205 295 66 15 158 35 205 46 149 33 269 58 500 104 210 42 285 56 633 120 438 81 1216 198 1702 256 575 68 1100 119 1490 145 710 46 1054 65 1422 75 282 8 1883 4 2043 -6z"/>
<path d="M43843 67694 c-5 -11 -8 -227 -8 -482 l0 -464 19 -14 c11 -8 34 -14 52 -14 79 0 995 -163 1329 -236 97 -21 180 -39 320 -69 309 -66 990 -232 1275 -311 244 -67 276 -76 335 -94 33 -10 94 -28 135 -40 41 -12 102 -30 135 -40 33 -10 94 -28 135 -40 431 -125 1337 -435 1850 -633 705 -273 1095 -441 1925 -827 289 -134 982 -487 1330 -677 1010 -552 1967 -1157 2905 -1836 421 -305 907 -679 1225 -942 763 -631 1259 -1077 1928 -1735 344 -337 947 -973 1187 -1250 41 -47 117 -133 170 -191 98 -108 176 -200 360 -419 1238 -1473 2312 -3072 3214 -4785 148 -281 411 -809 526 -1056 40 -85 98 -210 130 -279 178 -383 509 -1167 633 -1500 13 -36 59 -157 101 -270 433 -1144 793 -2354 1070 -3600 71 -323 158 -755 206 -1025 12 -66 27 -154 35 -195 14 -75 48 -284 84 -520 40 -258 96 -664 106 -770 3 -36 10 -90 15 -120 5 -30 14 -107 20 -170 6 -63 15 -146 20 -185 6 -38 17 -144 25 -235 8 -91 19 -217 25 -280 23 -265 41 -521 55 -775 8 -148 20 -364 26 -480 17 -287 18 -1933 1 -2220 -7 -115 -19 -334 -27 -485 -19 -355 -62 -902 -96 -1210 -6 -52 -17 -153 -24 -225 -49 -467 -160 -1243 -245 -1710 -11 -60 -29 -162 -41 -225 -47 -268 -154 -782 -234 -1125 -14 -60 -32 -139 -40 -175 -24 -109 -163 -655 -211 -830 -67 -242 -141 -503 -170 -600 -199 -659 -393 -1233 -600 -1780 -42 -113 -94 -250 -115 -305 -286 -762 -822 -1939 -1269 -2790 -364 -692 -820 -1475 -1188 -2040 -505 -774 -846 -1257 -1358 -1920 -329 -426 -777 -969 -1034 -1254 -53 -58 -129 -144 -169 -191 -391 -452 -1282 -1362 -1766 -1805 -77 -70 -196 -180 -265 -244 -140 -130 -410 -369 -536 -476 -408 -346 -437 -370 -819 -675 -121 -97 -276 -219 -345 -271 -69 -53 -172 -132 -230 -176 -620 -474 -1614 -1144 -2305 -1553 -77 -46 -184 -109 -237 -141 -218 -130 -749 -428 -927 -520 -56 -30 -86 -52 -93 -68 -11 -30 -6 -1046 5 -1057 5 -5 20 -1 35 8 15 8 56 31 92 49 63 32 271 142 415 219 436 232 1169 655 1567 906 853 536 1749 1162 2418 1689 607 478 999 808 1654 1394 465 415 1418 1369 1847 1847 398 444 561 631 863 995 234 283 267 322 461 570 1050 1339 1939 2705 2740 4214 128 242 426 835 522 1040 34 72 84 177 111 235 76 160 260 572 357 800 47 113 97 230 110 260 80 187 322 804 424 1085 353 968 647 1922 875 2845 66 268 130 541 156 665 11 50 28 132 40 183 11 50 29 134 40 185 64 289 137 680 219 1177 96 586 127 800 196 1385 61 517 124 1289 145 1780 5 121 15 335 21 475 16 334 16 1577 1 1865 -7 121 -17 337 -22 480 -11 287 -30 574 -75 1115 -54 646 -145 1354 -276 2135 -103 612 -150 859 -249 1305 -11 52 -29 136 -40 185 -48 229 -184 785 -262 1075 -28 102 -54 199 -58 215 -138 531 -494 1645 -700 2190 -10 28 -41 111 -69 185 -212 574 -530 1337 -794 1905 -35 77 -79 172 -97 210 -151 326 -555 1121 -758 1490 -977 1785 -2186 3516 -3484 4990 -374 425 -450 509 -680 754 -477 507 -1257 1274 -1621 1593 -46 40 -146 129 -223 198 -324 289 -672 585 -1010 857 -234 188 -267 214 -464 364 -47 36 -125 96 -175 134 -281 216 -757 560 -1127 814 -892 613 -1825 1174 -2851 1713 -135 70 -907 455 -1007 501 -30 14 -104 48 -163 76 -135 64 -701 316 -822 366 -49 21 -137 57 -195 80 -58 24 -195 80 -305 125 -110 45 -240 97 -290 116 -49 18 -142 53 -205 77 -686 261 -1408 506 -2015 682 -82 24 -188 55 -235 68 -89 26 -224 64 -275 77 -16 4 -113 30 -215 58 -470 127 -1159 288 -1675 391 -344 69 -927 171 -1345 235 -19 3 -45 8 -57 12 -17 5 -25 1 -30 -12z"/>
<path d="M26693 67443 c-10 -4 -13 -368 -13 -1773 l0 -1767 20 -202 c69 -685 273 -1159 661 -1536 363 -352 793 -544 1403 -627 231 -31 649 -31 886 0 269 35 440 76 685 162 92 33 331 152 420 211 400 262 691 649 853 1135 61 181 101 362 134 604 l22 155 3 1809 c3 1360 1 1812 -8 1822 -17 20 -1261 21 -1278 1 -7 -10 -11 -525 -13 -1828 l-3 -1814 -24 -115 c-62 -309 -171 -525 -344 -686 -160 -148 -323 -228 -577 -281 -132 -28 -470 -25 -605 4 -255 56 -438 154 -591 315 -176 186 -271 403 -327 753 l-21 130 -3 1759 c-1 967 -5 1762 -9 1765 -7 7 -1254 12 -1271 4z"/>
<path d="M37073 67440 l-23 -9 0 -2911 0 -2910 26 -10 c28 -11 1211 -14 1238 -4 15 6 16 176 16 1834 0 1006 4 1831 8 1834 9 5 46 -43 342 -434 86 -113 193 -254 239 -315 47 -60 141 -184 210 -275 68 -91 152 -201 186 -245 34 -44 119 -156 190 -250 71 -93 170 -224 220 -290 50 -66 178 -235 285 -375 106 -140 235 -309 285 -375 205 -269 591 -779 738 -973 48 -64 95 -123 104 -129 13 -10 138 -13 547 -13 292 0 537 4 544 8 10 7 12 596 12 2922 0 1602 -3 2916 -6 2919 -8 8 -1178 14 -1231 6 l-43 -6 0 -1769 c0 -1001 -4 -1771 -9 -1774 -5 -3 -52 52 -104 122 -53 70 -158 208 -233 307 -76 99 -200 263 -278 365 -148 196 -317 419 -504 665 -63 83 -172 227 -243 320 -71 94 -214 283 -319 420 -104 138 -268 354 -364 480 -96 127 -243 320 -326 430 -84 110 -190 251 -237 313 -47 62 -94 117 -104 122 -23 13 -1135 12 -1166 0z"/>
<path d="M25191 63937 c-6 -8 -75 -53 -153 -101 -490 -299 -1391 -904 -1708 -1146 -19 -15 -116 -86 -215 -159 -99 -72 -205 -150 -235 -174 -30 -23 -134 -102 -230 -176 -503 -386 -1079 -864 -1535 -1276 -56 -49 -141 -125 -190 -169 -453 -399 -1177 -1121 -1869 -1866 -128 -137 -538 -602 -627 -711 -30 -37 -133 -160 -229 -275 -156 -186 -339 -412 -557 -689 -112 -142 -272 -354 -415 -550 -72 -99 -162 -220 -198 -270 -58 -79 -177 -249 -435 -620 -467 -672 -1069 -1664 -1524 -2510 -157 -292 -510 -988 -623 -1230 -443 -944 -773 -1742 -1076 -2600 -148 -418 -185 -526 -265 -775 -129 -401 -295 -957 -357 -1195 -4 -16 -30 -113 -58 -215 -78 -290 -214 -846 -262 -1075 -11 -49 -28 -132 -40 -182 -11 -51 -29 -135 -40 -185 -37 -165 -136 -679 -180 -933 -11 -66 -27 -158 -35 -205 -63 -362 -156 -1033 -204 -1470 -50 -455 -63 -593 -91 -955 -30 -391 -41 -566 -50 -805 -6 -146 -15 -359 -20 -475 -14 -268 -19 -1190 -9 -1580 9 -382 35 -955 54 -1200 7 -104 17 -237 20 -295 3 -58 10 -141 15 -185 5 -44 14 -143 20 -220 10 -135 17 -202 61 -605 31 -279 81 -670 114 -890 8 -52 22 -142 30 -200 29 -203 95 -598 135 -810 94 -497 120 -626 245 -1190 69 -309 257 -1056 310 -1230 7 -25 28 -97 45 -160 248 -900 738 -2308 1075 -3090 13 -30 55 -129 93 -220 510 -1209 1197 -2538 1922 -3715 405 -656 764 -1189 1310 -1939 246 -338 682 -893 990 -1260 374 -447 362 -433 644 -751 182 -205 186 -209 563 -610 422 -449 1068 -1085 1483 -1461 302 -273 768 -678 970 -844 586 -480 864 -696 1387 -1078 890 -651 1716 -1186 2648 -1716 437 -249 519 -294 925 -506 224 -117 805 -406 1005 -500 39 -18 111 -52 160 -75 265 -125 792 -354 1125 -489 91 -37 213 -87 271 -112 59 -24 149 -60 200 -79 52 -19 148 -55 214 -80 381 -146 498 -188 960 -346 284 -97 372 -126 725 -236 262 -81 673 -201 835 -243 17 -4 113 -30 215 -58 243 -66 675 -172 960 -237 223 -51 286 -64 385 -85 55 -12 129 -28 165 -36 117 -26 569 -111 845 -160 453 -79 1223 -193 1490 -219 33 -3 134 -15 225 -25 140 -17 406 -44 622 -65 l57 -6 6 33 c3 18 5 235 3 481 -3 489 0 465 -62 465 -46 0 -319 22 -336 27 -8 2 -85 11 -170 20 -85 9 -243 27 -350 41 -107 14 -247 31 -310 39 -63 8 -158 21 -210 29 -52 8 -158 24 -235 36 -77 12 -180 28 -230 36 -49 9 -128 22 -175 29 -47 8 -134 23 -195 34 -60 10 -153 27 -205 36 -131 23 -493 96 -745 150 -115 25 -235 50 -265 56 -30 6 -77 16 -105 24 -27 7 -95 23 -150 35 -101 23 -611 150 -760 190 -44 12 -102 27 -130 35 -27 7 -117 32 -200 55 -82 24 -170 48 -195 55 -389 109 -1221 377 -1565 505 -27 10 -131 48 -230 84 -99 36 -234 86 -300 111 -66 25 -160 61 -210 79 -417 156 -1076 439 -1675 718 -987 461 -1967 995 -2900 1581 -870 546 -1811 1217 -2554 1822 -81 66 -174 140 -205 165 -348 270 -1119 959 -1671 1491 -229 221 -769 769 -911 924 -30 33 -118 128 -195 210 -77 83 -192 209 -255 281 -63 72 -154 175 -204 231 -120 133 -229 260 -413 483 -84 102 -170 205 -191 230 -38 46 -244 303 -336 420 -159 202 -374 486 -552 730 -111 153 -154 213 -367 515 -168 238 -624 934 -808 1234 -277 451 -623 1056 -828 1446 -35 66 -100 190 -145 275 -92 173 -349 694 -457 925 -168 361 -200 431 -288 630 -438 992 -894 2234 -1174 3195 -13 47 -36 126 -51 175 -90 309 -274 1009 -338 1290 -9 39 -30 131 -47 205 -17 74 -33 144 -35 155 -26 101 -150 712 -185 910 -11 61 -29 160 -40 220 -11 61 -27 151 -35 200 -7 50 -20 131 -29 180 -71 433 -149 1014 -195 1465 -41 393 -52 508 -61 636 -5 72 -16 223 -24 335 -87 1174 -88 2637 -1 3829 38 516 33 463 86 980 36 352 108 915 155 1205 8 50 20 133 28 185 14 94 77 460 116 679 42 230 125 638 180 881 10 47 31 137 45 200 14 63 33 147 42 185 27 118 172 696 193 770 11 39 40 142 64 230 198 725 486 1604 756 2310 33 88 76 201 95 250 31 85 160 407 238 595 199 481 461 1055 743 1625 87 176 188 376 224 445 37 69 97 184 135 255 152 290 463 842 662 1173 666 1111 1391 2144 2228 3176 163 201 490 586 615 725 53 58 129 144 170 191 149 172 533 583 834 892 649 668 1317 1287 2051 1903 314 263 786 637 1100 871 352 261 534 392 850 611 256 177 692 468 798 532 20 12 42 31 47 41 11 21 14 986 4 1064 -7 48 -29 62 -53 33z"/>
<path d="M27325 57440 c-9 -15 -7 -1152 3 -1162 4 -4 401 -9 882 -10 l875 -3 2 -2325 c2 -1278 4 -2329 6 -2335 5 -14 1279 -14 1284 0 2 6 4 1057 6 2335 l2 2325 885 5 c487 3 886 6 888 8 1 1 2 262 2 581 l0 578 -37 7 c-67 11 -4791 7 -4798 -4z"/>
<path d="M37153 57440 l-23 -9 0 -2911 0 -2910 27 -11 c18 -7 442 -9 1287 -6 l1261 3 155 21 c480 66 879 199 1255 421 715 421 1183 1082 1345 1902 66 335 66 838 0 1175 -157 796 -618 1459 -1300 1868 -394 236 -783 369 -1285 438 l-160 22 -1270 3 c-776 2 -1279 0 -1292 -6z m2617 -1197 c378 -77 654 -217 890 -453 355 -355 527 -855 490 -1422 -14 -226 -49 -381 -127 -576 -194 -484 -574 -822 -1078 -956 -220 -59 -248 -61 -905 -61 l-605 0 -3 1735 c-1 954 0 1741 3 1748 4 11 121 12 617 9 576 -3 619 -5 718 -24z"/>
<path d="M27793 48581 c-184 -50 -278 -139 -320 -304 l-22 -92 -1 -2906 c0 -1791 4 -2917 9 -2935 6 -16 15 -55 21 -86 15 -76 78 -161 158 -215 45 -30 86 -47 166 -66 l105 -27 591 0 591 0 102 26 c186 47 293 146 334 306 16 67 18 131 20 728 l2 655 418 6 c340 5 446 11 568 27 481 66 928 208 1210 385 316 198 538 406 728 683 30 45 65 99 76 120 12 21 35 64 52 94 46 83 119 256 141 335 166 582 176 970 41 1525 -67 276 -159 481 -329 735 -225 339 -581 625 -987 796 -91 39 -294 106 -372 124 -33 7 -112 25 -175 39 -63 15 -178 36 -255 48 l-140 21 -1315 3 -1315 3 -102 -28z m2697 -391 c139 -12 303 -36 385 -55 33 -8 76 -17 95 -21 100 -19 371 -123 491 -187 69 -37 200 -120 260 -164 136 -101 317 -292 415 -440 58 -87 166 -292 184 -348 5 -16 20 -61 34 -100 86 -235 132 -615 107 -885 -25 -266 -39 -347 -92 -517 -54 -170 -126 -318 -237 -488 -77 -116 -301 -348 -422 -437 -357 -261 -778 -406 -1335 -458 -55 -5 -355 -10 -667 -10 -448 0 -568 -3 -568 -12 0 -7 -1 -393 -3 -858 l-2 -845 -635 0 -635 0 -3 2905 c-1 1598 0 2911 3 2918 6 15 2444 18 2625 2z"/>
<path d="M29140 47030 c0 -5 0 -406 0 -890 0 -484 0 -885 0 -890 0 -8 190 -10 608 -8 l607 4 95 21 c234 54 417 164 538 323 49 65 92 131 92 143 0 7 7 23 16 36 32 44 65 191 71 311 14 288 -52 500 -209 666 -144 151 -304 230 -562 274 -110 18 -161 20 -687 20 -373 0 -569 -3 -569 -10z m1203 -410 c116 -17 218 -64 296 -136 104 -96 116 -130 116 -329 0 -152 -1 -163 -26 -215 -55 -117 -169 -217 -299 -262 l-65 -23 -408 0 -408 0 0 483 c1 265 1 484 1 487 0 9 725 5 793 -5z"/>
<path d="M37258 48581 c-185 -47 -269 -128 -314 -302 l-24 -91 0 -1762 0 -1761 20 -200 c28 -289 94 -606 178 -860 36 -107 54 -151 110 -275 34 -75 138 -257 202 -351 81 -120 219 -278 338 -386 104 -96 320 -255 417 -308 39 -21 81 -46 95 -55 40 -26 266 -126 365 -160 50 -17 160 -49 245 -70 399 -100 579 -123 955 -124 374 0 556 23 955 120 383 94 669 229 1000 475 184 135 433 421 559 639 24 41 51 86 60 100 64 96 180 380 235 578 49 171 101 427 128 622 l22 155 3 1805 4 1805 -22 90 c-20 82 -48 140 -101 206 -37 45 -120 89 -217 114 l-100 25 -610 0 -610 0 -100 -24 c-170 -42 -266 -131 -313 -292 l-22 -79 -6 -1830 c-6 -2044 -1 -1900 -77 -2083 -46 -113 -88 -175 -174 -258 -83 -80 -173 -131 -296 -166 -70 -21 -100 -23 -298 -23 -203 0 -226 2 -295 23 -129 41 -226 98 -310 182 -116 116 -176 245 -221 470 -11 51 -15 446 -19 1875 l-6 1810 -21 72 c-46 157 -151 254 -322 298 l-100 25 -603 -1 -603 -1 -107 -27z m1342 -2041 c0 -1650 2 -1799 35 -2030 43 -304 157 -554 333 -734 65 -67 207 -176 228 -176 3 0 18 -8 32 -18 27 -18 87 -42 197 -80 33 -12 116 -30 184 -42 271 -44 585 -14 811 80 25 10 52 21 60 24 108 40 323 223 406 346 96 141 164 319 207 543 l22 112 5 1815 5 1815 635 0 635 0 3 -1730 c3 -1911 3 -1926 -60 -2270 -89 -495 -300 -924 -607 -1238 -127 -131 -301 -264 -447 -342 -38 -20 -73 -41 -79 -46 -5 -5 -15 -9 -22 -9 -8 0 -26 -8 -40 -17 -15 -10 -43 -24 -63 -32 -51 -19 -123 -47 -140 -54 -71 -29 -253 -79 -385 -107 -351 -73 -840 -89 -1175 -39 -162 24 -207 31 -240 39 -19 5 -75 18 -125 30 -117 28 -277 82 -370 124 -91 42 -194 94 -223 114 -18 12 -35 22 -38 22 -5 0 -59 35 -167 109 -52 36 -229 195 -293 262 -269 290 -452 688 -539 1170 -50 275 -48 212 -52 2163 -2 1007 -1 1836 1 1843 4 11 124 13 636 11 l631 -3 -1 -1655z"/>
<path d="M47633 48581 c-184 -49 -278 -139 -320 -304 l-22 -92 -1 -2902 c0 -3067 -2 -2908 40 -3064 14 -50 99 -159 151 -193 24 -16 82 -40 129 -53 l85 -23 642 0 642 0 90 24 c104 28 165 67 216 136 50 69 64 103 86 201 18 85 19 130 19 782 l-1 692 194 3 194 2 103 -152 c57 -84 191 -283 298 -443 107 -159 224 -332 261 -384 36 -51 82 -117 101 -147 19 -30 71 -107 116 -171 44 -65 127 -187 183 -270 125 -185 160 -215 296 -249 l90 -24 757 0 757 0 90 24 c156 42 234 119 277 275 13 47 24 100 24 116 0 44 -45 203 -63 223 -8 9 -68 96 -133 192 -285 424 -364 540 -419 619 -74 103 -166 238 -393 576 -96 143 -183 271 -193 284 -15 18 -16 27 -8 37 6 8 15 14 20 14 22 0 306 226 394 315 149 148 297 352 383 527 81 166 117 267 167 471 58 238 77 398 77 647 1 243 -14 364 -77 625 -52 218 -78 294 -154 451 -123 251 -262 437 -475 632 -81 74 -253 201 -327 242 -15 8 -56 31 -91 51 -35 20 -101 53 -148 73 -47 21 -94 42 -105 47 -123 57 -501 150 -777 191 l-143 22 -1465 2 -1465 3 -102 -28z m3177 -409 c233 -34 404 -74 547 -129 38 -14 85 -31 106 -39 36 -14 175 -84 247 -125 61 -35 205 -142 275 -204 141 -125 274 -296 365 -470 42 -80 46 -91 94 -220 56 -153 99 -387 111 -610 14 -246 -30 -606 -97 -795 -86 -245 -144 -350 -293 -534 -138 -171 -329 -332 -531 -447 -64 -36 -234 -119 -245 -119 -17 0 -69 -30 -69 -40 0 -5 51 -84 113 -175 61 -91 119 -176 127 -189 17 -27 97 -143 290 -424 75 -109 161 -235 193 -282 31 -47 71 -104 87 -128 17 -23 30 -46 30 -49 0 -4 8 -16 18 -27 11 -12 63 -86 117 -166 54 -80 122 -179 150 -220 28 -41 96 -140 150 -220 53 -80 104 -153 112 -162 8 -9 12 -22 8 -27 -4 -8 -233 -11 -740 -11 l-734 0 -39 53 c-21 28 -107 153 -191 277 -84 124 -193 286 -244 360 -50 74 -131 194 -179 265 -48 72 -115 171 -149 220 -113 164 -340 499 -395 583 l-54 82 -505 0 c-397 0 -505 -3 -505 -12 0 -7 -1 -420 -3 -918 l-2 -905 -635 0 -635 0 -3 2905 c-1 1598 0 2911 3 2918 4 10 288 12 1482 9 l1478 -3 145 -22z"/>
<path d="M48980 47030 c0 -5 0 -379 0 -830 0 -451 0 -825 0 -830 0 -8 237 -10 758 -7 l757 3 90 21 c284 68 484 206 582 403 7 14 17 32 22 40 5 8 18 44 29 80 76 237 46 556 -70 747 -37 62 -176 200 -228 228 -160 83 -228 106 -394 135 -112 19 -160 20 -832 20 -469 0 -714 -3 -714 -10z m1576 -427 c236 -82 302 -182 292 -440 -3 -85 -9 -119 -27 -161 -38 -85 -134 -160 -268 -210 -44 -15 -100 -17 -606 -17 l-558 0 0 423 c0 232 1 425 1 428 0 3 249 4 553 2 l552 -4 61 -21z"/>
<path d="M29255 38364 c-195 -14 -540 -81 -754 -148 -211 -65 -446 -179 -595 -289 -25 -17 -79 -57 -121 -87 -89 -64 -302 -279 -360 -363 -22 -32 -59 -85 -82 -117 -24 -32 -43 -62 -43 -67 0 -6 -13 -28 -28 -49 -133 -184 -272 -718 -272 -1042 0 -227 70 -612 150 -818 98 -256 309 -538 528 -707 235 -181 409 -272 817 -426 112 -43 367 -118 630 -186 529 -137 804 -230 929 -314 51 -34 60 -50 52 -95 -8 -43 -37 -64 -136 -98 -60 -21 -82 -23 -305 -23 -368 0 -510 33 -830 190 -168 83 -446 258 -567 357 -85 70 -143 100 -238 124 -90 24 -89 24 -226 -12 -82 -22 -163 -83 -251 -190 -108 -132 -228 -278 -358 -434 -96 -115 -275 -335 -334 -411 -26 -34 -38 -65 -62 -164 l-19 -79 21 -88 c34 -146 107 -235 344 -418 263 -203 562 -383 830 -501 341 -149 818 -277 1240 -331 226 -29 622 -31 825 -5 312 41 665 133 887 231 105 47 237 115 282 145 14 10 42 29 63 42 226 149 356 269 505 469 185 249 273 440 348 754 51 212 68 346 69 536 1 205 -14 325 -69 555 -86 355 -200 560 -450 810 -148 149 -320 277 -492 368 -16 8 -55 29 -88 47 -33 17 -114 54 -180 81 -66 28 -133 57 -150 64 -102 47 -438 152 -755 235 -63 17 -135 37 -160 44 -25 7 -81 24 -125 36 -385 110 -599 192 -625 239 -22 41 -12 77 28 104 64 45 90 50 268 55 235 6 434 -27 589 -98 22 -10 90 -41 151 -68 148 -65 360 -182 503 -276 94 -62 136 -81 223 -101 l77 -18 82 18 c63 15 99 30 156 68 40 27 83 62 96 78 12 16 34 44 48 62 14 18 105 149 201 292 96 143 199 295 229 338 56 81 82 119 136 203 17 27 42 62 54 78 24 30 69 180 69 229 0 15 -10 67 -22 115 -29 117 -75 183 -182 259 -45 31 -95 69 -112 84 -55 46 -219 150 -372 236 -165 93 -203 112 -277 143 -38 16 -104 43 -145 60 -260 108 -661 209 -995 250 -156 19 -523 32 -650 24z m630 -428 c252 -32 548 -99 705 -160 19 -7 62 -23 95 -35 33 -12 78 -30 100 -40 122 -55 250 -118 324 -159 45 -26 95 -53 109 -61 45 -24 245 -163 315 -218 37 -30 67 -60 67 -69 0 -8 -15 -36 -34 -63 -19 -27 -83 -120 -142 -207 -60 -88 -141 -206 -181 -264 -39 -58 -111 -163 -159 -235 -90 -135 -130 -185 -148 -185 -6 0 -37 18 -69 40 -31 22 -61 40 -66 40 -5 0 -14 7 -21 15 -7 8 -24 21 -39 28 -24 13 -49 27 -138 79 -21 12 -72 39 -113 60 -41 21 -82 43 -90 48 -8 5 -37 19 -65 30 -27 12 -63 28 -80 35 -280 124 -496 174 -778 182 -314 10 -522 -51 -660 -194 -88 -90 -125 -172 -134 -293 -7 -96 22 -221 71 -300 68 -112 267 -228 526 -308 60 -18 99 -30 275 -82 33 -9 98 -27 145 -40 436 -115 644 -180 950 -295 99 -37 292 -131 383 -185 346 -206 565 -460 670 -773 62 -185 82 -326 81 -572 -1 -362 -80 -663 -237 -914 -119 -190 -245 -328 -411 -451 -108 -78 -144 -101 -293 -179 -132 -68 -358 -146 -543 -185 -490 -105 -1097 -79 -1638 69 -161 44 -375 119 -492 172 -19 9 -55 25 -80 36 -25 11 -54 25 -65 30 -11 6 -54 28 -95 49 -41 21 -93 50 -115 64 -22 13 -47 27 -55 31 -34 15 -272 182 -364 255 -149 119 -196 163 -196 187 0 12 24 50 53 84 90 108 219 263 417 502 105 127 208 250 229 275 l38 45 57 -45 c204 -160 463 -324 676 -427 254 -124 418 -173 700 -213 198 -28 480 -24 625 9 295 67 454 193 507 404 25 98 21 188 -12 296 -20 65 -31 82 -89 141 -36 37 -85 79 -109 94 -56 35 -191 103 -244 122 -242 90 -334 118 -643 199 -499 131 -640 174 -900 275 -537 209 -849 493 -1003 915 -102 279 -116 749 -32 1074 11 42 26 92 34 111 8 19 25 62 38 95 19 49 84 172 133 254 78 128 286 346 415 434 136 93 126 87 275 161 169 84 217 101 425 156 96 25 220 46 440 74 78 10 531 -3 655 -18z"/>
<path d="M36738 38261 c-185 -47 -269 -128 -314 -302 l-24 -91 0 -1762 0 -1761 20 -200 c28 -289 94 -606 178 -860 36 -107 54 -151 110 -275 34 -75 138 -257 202 -351 81 -120 219 -278 338 -386 104 -96 320 -255 417 -308 39 -21 81 -46 95 -55 40 -26 266 -126 365 -160 185 -65 516 -140 760 -172 231 -31 650 -31 885 0 283 37 624 117 830 194 235 88 482 227 705 397 166 126 417 417 534 621 24 41 51 86 60 100 64 96 180 380 235 578 49 171 101 427 128 622 l22 155 3 1805 4 1805 -22 90 c-20 82 -48 140 -101 206 -37 45 -120 89 -217 114 l-100 25 -611 0 -611 0 -99 -25 c-172 -43 -262 -127 -310 -287 l-25 -83 -5 -1830 c-6 -2044 -1 -1900 -77 -2083 -46 -113 -88 -175 -174 -258 -83 -80 -173 -131 -296 -166 -70 -21 -100 -23 -298 -23 -203 0 -226 2 -295 23 -129 41 -226 98 -310 182 -116 116 -176 245 -221 470 -11 51 -15 446 -19 1875 l-6 1810 -21 72 c-46 157 -151 254 -322 298 l-100 25 -603 -1 -603 -1 -107 -27z m1342 -2041 c0 -1650 2 -1799 35 -2030 43 -304 157 -554 333 -734 65 -67 207 -176 228 -176 3 0 18 -8 32 -18 27 -18 87 -42 197 -80 33 -12 116 -30 184 -42 271 -44 585 -14 811 80 25 10 52 21 60 24 72 26 215 133 303 225 164 171 252 365 314 686 16 83 18 237 23 1905 l5 1815 635 0 635 0 3 -1730 c3 -1911 3 -1926 -60 -2270 -112 -619 -427 -1155 -853 -1451 -17 -11 -53 -37 -81 -56 -51 -36 -156 -95 -241 -136 -10 -5 -27 -14 -38 -19 -69 -37 -252 -103 -395 -142 -392 -107 -950 -140 -1350 -80 -162 24 -207 31 -240 39 -19 5 -75 18 -125 30 -117 28 -277 82 -370 124 -91 42 -194 94 -223 114 -18 12 -35 22 -38 22 -5 0 -59 35 -167 109 -52 36 -229 195 -293 262 -269 290 -452 688 -539 1170 -50 275 -48 212 -52 2163 -2 1007 -1 1836 1 1843 4 11 124 13 636 11 l631 -3 -1 -1655z"/>
<path d="M47113 38261 c-184 -49 -278 -139 -320 -304 l-22 -92 -1 -2902 c0 -3067 -2 -2908 40 -3064 14 -50 99 -159 151 -193 24 -16 82 -40 129 -53 l85 -23 2222 0 2222 0 91 24 c148 40 231 120 282 271 l23 70 3 590 c4 683 2 709 -72 819 -55 81 -150 148 -253 178 l-78 22 -1378 6 -1378 5 0 185 0 185 1183 5 1183 6 70 20 c153 45 245 144 289 309 l26 97 0 555 0 554 -25 99 c-44 173 -130 265 -292 312 l-78 22 -1178 6 -1179 5 0 165 0 165 1379 5 1378 5 70 21 c149 44 228 134 270 304 l25 105 0 555 c0 499 -2 563 -19 635 -41 183 -140 281 -330 330 l-100 25 -2158 -1 -2158 -1 -102 -27z m4452 -961 l0 -575 -1557 -3 c-1236 -2 -1558 -5 -1558 -15 -2 -185 1 -1141 3 -1143 2 -2 620 -5 1373 -6 l1369 -3 0 -575 0 -575 -1372 -3 c-904 -1 -1373 -5 -1373 -12 0 -6 0 -271 0 -590 0 -319 0 -584 0 -590 0 -7 538 -11 1578 -12 l1577 -3 0 -575 0 -575 -2210 0 -2210 0 -3 2905 c-1 1598 0 2911 3 2918 3 10 447 12 2192 10 l2188 -3 0 -575z"/>
<path d="M39595 28881 c-570 -37 -1017 -226 -1427 -602 -126 -115 -329 -346 -483 -548 -34 -44 -45 -68 -39 -77 5 -7 97 -84 204 -170 107 -86 282 -227 389 -313 266 -214 288 -231 303 -230 7 0 38 30 68 66 174 210 400 432 537 526 84 58 225 122 323 148 119 31 335 38 451 14 380 -77 580 -326 581 -725 2 -464 -215 -757 -1093 -1475 -54 -44 -152 -125 -220 -180 -67 -55 -163 -134 -213 -175 -51 -41 -215 -176 -366 -300 -150 -124 -301 -247 -335 -275 -34 -27 -208 -171 -388 -318 l-327 -268 0 -508 0 -509 23 -6 c12 -3 981 -6 2153 -6 1693 0 2134 3 2142 13 7 8 10 198 10 555 0 467 -2 544 -15 557 -13 13 -168 15 -1248 15 -768 0 -1236 4 -1240 9 -3 6 4 15 16 22 12 6 101 73 198 148 97 75 266 206 376 291 273 210 281 216 525 411 118 95 255 206 304 248 48 42 120 103 159 135 112 94 315 302 406 416 293 365 423 697 450 1148 36 590 -120 1043 -484 1408 -242 242 -515 391 -897 489 -223 57 -562 84 -843 66z"/>
<path d="M49200 28880 c-284 -22 -535 -84 -778 -191 -370 -164 -686 -408 -939 -726 -458 -575 -701 -1358 -680 -2193 10 -407 59 -717 163 -1050 248 -787 709 -1347 1364 -1659 329 -156 660 -226 1065 -225 407 1 726 72 1064 236 670 326 1164 952 1397 1771 117 410 159 892 119 1377 -78 969 -526 1805 -1215 2267 -213 143 -508 272 -760 333 -224 53 -563 79 -800 60z m445 -1200 c44 -11 125 -43 180 -70 522 -254 835 -912 835 -1758 0 -518 -114 -979 -323 -1304 -116 -181 -303 -352 -480 -438 -156 -76 -246 -95 -452 -95 -185 0 -254 13 -402 73 -139 57 -308 183 -423 315 -298 344 -467 931 -447 1552 28 903 408 1570 977 1719 135 35 130 35 300 31 119 -2 174 -8 235 -25z"/>
<path d="M48205 18588 c-586 -67 -1128 -357 -1500 -803 -228 -274 -417 -646 -530 -1040 -80 -279 -126 -547 -156 -900 -17 -200 -20 -290 -15 -540 4 -259 25 -605 41 -671 2 -11 11 -67 20 -125 38 -253 125 -528 244 -775 213 -435 533 -754 966 -964 205 -99 390 -152 670 -191 216 -30 596 -33 790 -6 797 112 1386 520 1695 1172 71 151 119 308 153 500 29 164 31 535 4 700 -66 402 -225 722 -489 982 -255 252 -547 404 -953 497 -204 46 -341 60 -590 60 -267 0 -438 -23 -612 -79 -111 -37 -338 -143 -475 -222 -48 -28 -89 -48 -92 -45 -18 17 16 216 65 387 141 489 438 800 843 882 108 22 139 24 291 20 386 -10 712 -135 1062 -408 35 -27 65 -49 69 -49 10 0 42 44 202 280 253 371 320 470 398 584 41 60 74 117 74 126 0 10 -45 49 -112 98 -449 322 -846 480 -1330 532 -117 12 -620 11 -733 -2z m420 -3226 c95 -22 232 -74 300 -113 131 -75 253 -205 314 -334 66 -138 76 -187 75 -380 l-1 -170 -30 -93 c-42 -126 -101 -222 -197 -318 -124 -123 -247 -188 -449 -236 -80 -19 -120 -22 -307 -22 -189 0 -226 3 -305 22 -234 59 -399 156 -521 307 -125 155 -176 309 -175 533 0 250 60 401 221 563 133 134 246 194 449 239 125 27 137 28 346 25 149 -2 209 -7 280 -23z"/>
<path d="M39865 18554 c-27 -8 -111 -33 -185 -56 -74 -22 -155 -46 -180 -53 -25 -7 -115 -34 -200 -60 -154 -46 -237 -71 -420 -125 -52 -16 -171 -51 -265 -79 -249 -75 -296 -89 -335 -99 -47 -11 -48 -29 -6 -192 19 -74 76 -299 127 -500 50 -201 97 -370 103 -377 8 -8 63 2 221 41 498 124 712 176 745 178 l35 3 3 -2269 c1 -1657 5 -2273 13 -2283 9 -11 121 -13 620 -13 367 0 618 4 633 10 l26 9 0 2927 c0 2159 -3 2930 -11 2940 -17 21 -853 19 -924 -2z"/>
</g>
</g>
</svg>
