<?xml version="1.0" standalone="no"?>
<!DOCTYPE svg PUBLIC "-//W3C//DTD SVG 1.1//EN"
 "http://www.w3.org/Graphics/SVG/1.1/DTD/svg11.dtd">
<!-- Created with svg_stack (http://github.com/astraw/svg_stack) -->
<svg xmlns:sodipodi="http://sodipodi.sourceforge.net/DTD/sodipodi-0.dtd" xmlns="http://www.w3.org/2000/svg" version="1.1" width="2600.0" height="2600.0">
  <defs/>
  <g id="id0:id0" transform="matrix(1.25,0,0,1.25,0.0,0.0)"><g transform="translate(0.000000,2080.000000) scale(0.040000,-0.040000)" fill="#000000" stroke="none">
<path d="M14120 43729 c-17 -4 -32 -8 -34 -10 -6 -8 -925 -1009 -1041 -1134 -754 -814 -802 -867 -861 -956 -104 -157 -123 -206 -304 -799 -78 -256 -335 -1093 -570 -1860 -489 -1592 -480 -1562 -480 -1604 1 -34 23 -73 154 -265 51 -75 86 -137 83 -145 -5 -12 -33 -14 -171 -9 l-165 5 -24 -24 c-44 -44 -360 -1045 -432 -1368 -15 -67 -15 -75 -1 -86 21 -15 84 -4 226 39 64 19 134 37 155 38 l40 4 -1 -31 c-1 -17 -26 -93 -57 -170 -30 -76 -63 -161 -72 -189 -33 -96 -31 -102 103 -304 68 -102 124 -194 125 -205 2 -19 -5 -21 -83 -27 -47 -3 -95 -2 -108 3 -29 10 -303 11 -319 0 -11 -7 -29 -29 -207 -256 -55 -69 -105 -126 -111 -126 -6 0 -24 14 -40 30 -16 17 -32 30 -37 30 -14 0 -36 -59 -109 -295 -39 -126 -80 -242 -90 -257 -34 -47 -77 -65 -166 -71 -102 -6 -171 -37 -293 -130 -72 -55 -88 -63 -105 -54 -33 17 -119 103 -309 307 -290 313 -368 390 -390 390 -16 0 -27 -14 -44 -53 -12 -28 -22 -62 -22 -75 0 -12 48 -93 106 -180 128 -188 157 -239 144 -247 -5 -3 -119 -5 -252 -3 -153 2 -249 -1 -260 -7 -17 -10 -56 -59 -233 -283 -66 -86 -81 -100 -93 -89 -7 8 -40 106 -73 218 -33 112 -65 215 -72 227 -13 26 -34 39 -112 73 -27 12 -68 30 -90 40 -22 10 -82 34 -133 53 -51 19 -105 42 -119 52 l-27 17 39 34 c22 19 97 70 166 114 70 43 150 97 178 120 l51 41 -1 87 c-3 139 14 404 27 408 12 4 95 -58 273 -201 57 -46 117 -87 133 -90 42 -8 128 30 128 56 0 28 -39 75 -245 298 -99 108 -313 342 -475 520 -162 179 -347 381 -411 450 -63 69 -162 177 -220 241 -57 63 -261 288 -454 500 -192 211 -452 497 -577 634 -245 271 -300 317 -424 360 -127 44 -188 48 -629 41 -225 -3 -886 -6 -1467 -6 -915 -1 -1059 -3 -1072 -15 -26 -27 -139 -351 -261 -755 -121 -396 -139 -468 -127 -499 10 -26 140 -140 179 -157 52 -22 108 -16 242 25 192 60 240 71 267 61 13 -5 24 -11 24 -13 0 -13 -65 -190 -101 -277 -36 -86 -44 -116 -44 -167 l0 -62 101 -148 c120 -177 157 -240 146 -247 -16 -10 -416 -5 -454 5 -49 13 -64 4 -119 -68 -42 -56 -151 -192 -225 -281 -20 -23 -40 -40 -45 -36 -17 10 -38 74 -83 256 -25 99 -52 191 -61 205 -21 31 -76 57 -107 50 -14 -4 -29 -17 -35 -29 -12 -26 -306 -935 -569 -1756 l-176 -553 26 -37 c14 -20 90 -106 169 -191 79 -86 374 -410 657 -721 282 -311 575 -632 650 -715 75 -82 410 -451 745 -820 334 -368 712 -785 839 -924 583 -643 639 -700 741 -761 95 -56 243 -85 309 -60 29 11 35 28 40 128 2 41 8 78 13 83 12 12 77 -31 166 -107 100 -86 125 -103 180 -119 101 -30 323 -14 478 35 l64 20 25 -20 c67 -54 20 -50 683 -51 424 0 623 3 637 11 34 18 25 99 -25 204 -15 32 -26 38 -199 100 -101 36 -187 66 -192 66 -5 0 -27 12 -48 26 -35 24 -37 27 -22 43 9 9 100 72 203 141 172 114 189 128 201 165 9 25 16 115 19 248 4 137 10 213 18 224 11 14 18 12 66 -24 30 -22 101 -79 159 -128 58 -48 118 -95 134 -105 42 -27 103 -32 161 -15 268 83 376 108 388 88 4 -6 -32 -113 -78 -238 -47 -125 -85 -231 -85 -236 0 -6 61 -102 136 -214 83 -124 133 -209 128 -216 -5 -9 -62 -11 -238 -6 -127 3 -243 3 -257 0 -19 -3 -54 -40 -125 -131 -138 -175 -197 -245 -211 -249 -7 -3 -22 12 -34 31 -14 24 -28 36 -42 36 -28 0 -957 -927 -957 -955 0 -53 239 -321 418 -468 41 -33 81 -35 110 -4 34 37 40 72 43 266 3 215 7 251 25 258 9 3 86 -52 190 -137 175 -141 221 -173 235 -164 4 2 40 13 81 23 40 10 140 37 222 60 147 41 176 44 176 18 0 -7 -36 -110 -80 -230 -44 -119 -80 -224 -80 -233 0 -15 100 -175 226 -363 24 -35 41 -68 38 -73 -4 -6 -94 -7 -233 -3 -306 10 -327 4 -320 -96 2 -27 -1 -43 -11 -50 -9 -5 -476 -9 -1187 -9 l-1173 1 -76 -26 c-42 -14 -101 -42 -131 -61 -94 -63 -413 -409 -413 -448 0 -23 100 -139 243 -284 153 -154 202 -191 291 -222 l58 -20 1181 0 c832 -1 1185 -4 1194 -12 27 -22 14 -56 -44 -116 -569 -588 -933 -972 -955 -1008 -16 -24 -28 -51 -28 -60 0 -8 19 -37 43 -65 40 -47 71 -60 93 -40 5 4 68 34 139 66 72 32 189 86 260 121 193 92 516 244 521 244 2 0 61 27 130 60 264 127 531 253 589 277 33 14 65 29 70 33 6 4 143 69 305 145 162 76 350 164 417 196 68 32 221 104 340 160 120 56 270 126 333 156 63 30 212 100 330 155 118 56 267 126 330 156 179 85 472 222 475 222 2 0 68 31 147 69 190 92 529 251 534 251 2 0 59 27 126 59 219 105 361 172 483 228 66 30 165 77 220 103 229 110 485 229 555 260 41 18 80 36 85 40 6 4 143 69 305 145 162 76 349 163 415 195 66 31 215 101 330 155 116 54 264 124 330 155 66 32 219 104 340 160 121 57 265 124 320 150 208 100 487 230 490 230 2 0 68 31 147 69 193 93 529 251 534 251 2 0 61 27 130 60 264 127 531 253 589 277 33 14 65 29 70 33 6 4 143 69 305 145 162 76 350 164 417 196 68 32 221 104 340 160 120 56 270 126 333 156 63 30 212 100 330 155 118 56 267 126 330 156 179 85 472 222 475 222 2 0 68 31 147 69 190 92 529 251 534 251 2 0 59 27 126 59 171 82 321 153 473 223 72 33 171 79 220 103 271 130 527 250 580 272 33 14 65 28 70 33 6 4 143 69 305 145 162 76 351 165 420 197 69 33 217 103 330 155 113 53 259 122 325 153 66 32 219 104 340 160 121 57 284 134 363 171 79 38 146 69 149 69 4 0 36 15 72 34 36 19 111 54 167 79 55 25 156 72 225 105 186 90 510 242 515 242 2 0 55 24 117 54 222 107 559 266 563 266 2 0 55 24 117 54 222 107 559 266 563 266 2 0 55 24 117 54 61 29 121 56 132 60 11 3 38 21 60 40 l39 33 -28 43 c-16 24 -81 100 -145 170 -122 133 -274 300 -528 582 -83 92 -216 239 -295 326 -79 86 -323 355 -543 597 -822 906 -884 973 -907 981 -15 5 -93 -28 -308 -128 -47 -22 -96 -46 -110 -53 -14 -7 -128 -61 -255 -120 -318 -148 -342 -159 -495 -233 -74 -35 -187 -88 -250 -117 -63 -29 -160 -74 -215 -100 -212 -101 -304 -144 -425 -200 -69 -32 -170 -79 -225 -105 -181 -86 -318 -151 -450 -212 -134 -62 -190 -89 -430 -203 -77 -37 -185 -87 -240 -112 -102 -46 -290 -134 -335 -158 -14 -7 -128 -61 -255 -120 -126 -59 -266 -124 -310 -145 -254 -121 -331 -157 -435 -205 -144 -66 -257 -119 -430 -202 -147 -71 -183 -85 -206 -76 -8 3 -26 31 -41 62 -32 70 -70 151 -173 364 -44 93 -80 170 -80 173 0 3 -21 49 -47 102 -25 53 -62 131 -81 172 -19 41 -42 91 -52 110 -10 19 -48 100 -85 180 -37 80 -84 181 -105 225 -21 44 -55 116 -76 160 -20 44 -44 96 -54 115 -10 19 -45 94 -78 165 -59 130 -85 185 -182 390 -29 61 -76 162 -105 225 -29 63 -67 146 -84 183 -52 110 -60 101 204 225 88 41 214 101 280 132 66 32 219 104 340 160 121 57 274 129 340 160 66 32 219 104 340 160 121 57 274 129 340 160 66 32 219 104 340 160 121 57 274 129 340 160 66 32 219 104 340 160 121 56 275 129 342 161 67 32 220 104 340 160 120 56 263 123 318 150 260 123 366 173 434 201 78 33 141 80 141 105 0 19 0 19 -779 873 -359 392 -405 444 -612 670 -112 124 -297 326 -409 449 -113 124 -232 254 -264 290 -73 81 -80 85 -108 67 -13 -8 -77 -39 -143 -69 -66 -30 -165 -76 -220 -102 -55 -26 -197 -92 -315 -147 -221 -103 -314 -147 -480 -225 -52 -25 -160 -76 -240 -113 -135 -63 -186 -87 -445 -210 -55 -26 -156 -73 -225 -105 -69 -32 -184 -86 -257 -121 -72 -35 -225 -107 -340 -160 -114 -53 -264 -124 -333 -157 -287 -138 -380 -181 -480 -224 -58 -25 -109 -49 -114 -54 -30 -28 -58 16 -181 281 -43 91 -94 201 -115 245 -45 93 -104 220 -202 430 -39 83 -88 188 -110 235 -22 47 -56 119 -75 160 -20 41 -58 122 -86 180 -27 58 -62 132 -77 165 -15 33 -48 103 -72 155 -25 52 -58 122 -73 155 -15 33 -61 129 -101 213 -41 84 -74 156 -74 158 0 5 -79 174 -101 217 -5 9 -19 43 -31 74 l-21 56 19 15 c21 16 377 191 524 257 53 24 152 70 221 103 170 82 510 242 514 242 2 0 59 26 127 59 310 148 550 261 554 261 2 0 61 27 130 60 272 131 520 247 541 254 44 14 111 57 127 81 l16 25 -148 163 c-82 89 -156 168 -164 175 -12 9 -333 13 -1491 15 -812 1 -1490 -1 -1507 -4z m-1460 -2466 c217 -180 236 -193 278 -193 21 0 107 20 190 45 197 58 275 76 285 66 5 -5 -17 -77 -48 -162 -124 -334 -116 -307 -101 -344 8 -19 61 -103 118 -188 146 -220 150 -227 134 -233 -7 -3 -80 -2 -162 2 -82 4 -183 8 -224 9 -41 2 -85 6 -96 10 -24 8 -28 4 -234 -259 -63 -80 -118 -146 -122 -146 -17 0 -33 49 -89 270 -34 133 -58 210 -71 227 -5 6 -28 18 -51 26 -23 8 -78 28 -122 45 -44 16 -125 46 -180 66 -55 20 -104 41 -110 47 -12 13 32 52 130 116 39 25 114 75 168 110 73 47 102 72 112 97 9 22 17 106 22 252 5 121 12 225 17 232 11 18 45 -3 156 -95z m-244 -2335 c181 -148 204 -165 238 -174 27 -6 86 8 301 72 126 37 191 49 198 37 3 -5 -32 -110 -79 -233 -46 -123 -84 -233 -84 -244 0 -22 1 -23 147 -241 113 -169 123 -189 96 -203 -10 -6 -127 -11 -261 -11 -133 -1 -249 -4 -257 -7 -8 -3 -45 -47 -82 -97 -175 -233 -215 -279 -232 -261 -6 5 -24 62 -40 127 -56 214 -91 330 -103 344 -16 20 -55 39 -140 69 -110 39 -332 126 -341 134 -8 7 194 148 316 220 68 40 116 105 119 159 1 20 2 72 3 116 1 86 14 282 21 303 2 6 9 12 17 12 7 0 81 -55 163 -122z m1874 -1287 c91 -77 237 -193 264 -210 19 -12 37 -10 156 24 74 20 176 48 225 60 50 13 98 26 107 30 11 5 20 2 23 -7 7 -17 -34 -152 -71 -235 -34 -75 -84 -221 -84 -245 0 -9 61 -110 136 -222 76 -115 133 -210 129 -216 -7 -11 -127 -10 -417 6 -112 6 -89 20 -205 -128 -37 -47 -99 -125 -136 -172 -37 -47 -74 -86 -82 -86 -19 0 -31 24 -49 101 -9 35 -25 96 -36 134 -11 39 -29 106 -41 150 -22 84 -38 110 -73 121 -11 3 -48 16 -81 29 -33 13 -94 35 -135 50 -215 77 -224 83 -194 116 20 23 185 136 268 183 71 41 124 93 132 129 4 18 8 79 9 137 1 108 14 305 21 328 6 19 55 -9 134 -77z m-10378 -344 c133 -109 225 -180 253 -194 20 -11 55 -4 220 42 33 9 102 27 153 41 52 13 97 26 102 29 16 10 33 -25 26 -56 -3 -17 -36 -106 -73 -198 -51 -127 -67 -178 -68 -217 l0 -51 132 -196 c73 -108 129 -199 124 -202 -5 -3 -126 -5 -268 -4 l-258 1 -25 -33 c-36 -47 -271 -342 -280 -353 -21 -22 -65 101 -120 334 -26 107 -46 148 -87 172 -16 9 -94 40 -173 68 -147 52 -238 88 -254 102 -17 13 17 40 209 167 105 69 194 129 199 132 5 4 10 47 12 96 5 166 15 388 19 401 9 28 50 7 157 -81z m8156 -624 c42 -32 100 -76 127 -99 28 -22 81 -65 119 -94 l70 -53 45 10 c25 6 78 20 116 30 264 73 316 85 330 73 15 -12 -9 -86 -105 -330 -23 -58 -44 -115 -47 -127 -4 -17 28 -74 128 -225 73 -112 133 -212 133 -223 1 -18 -5 -19 -84 -18 -47 1 -106 4 -132 6 -155 15 -267 18 -287 7 -12 -6 -82 -86 -155 -178 -73 -92 -145 -178 -159 -191 l-26 -23 -14 34 c-8 19 -29 88 -47 154 -18 65 -45 162 -59 214 l-27 94 -229 88 c-126 48 -236 95 -244 103 -13 12 -12 15 5 21 10 4 29 16 41 27 12 11 44 34 72 51 27 17 95 60 150 95 56 35 113 78 126 95 30 40 34 68 44 301 6 173 12 215 27 215 3 0 40 -26 82 -57z m-6182 -742 c95 -77 183 -145 195 -152 26 -14 73 -5 254 48 175 52 245 67 257 55 9 -9 -54 -199 -114 -337 -56 -129 -47 -161 98 -372 45 -65 91 -137 103 -161 19 -38 20 -43 5 -49 -13 -5 -94 -3 -349 10 -11 0 -50 0 -87 -1 l-68 -2 -157 -196 -157 -197 -22 29 c-13 16 -28 47 -33 69 -33 144 -91 349 -105 370 -24 37 -52 52 -192 102 -190 67 -202 72 -246 94 l-40 21 26 27 c15 16 100 75 188 132 88 57 172 114 186 125 l26 22 2 103 c1 120 14 368 19 387 9 27 45 6 211 -127z m8124 -594 c36 -28 97 -78 135 -112 146 -128 167 -133 335 -80 219 69 302 87 317 72 11 -11 11 -20 -3 -58 -9 -24 -29 -78 -44 -119 -15 -41 -46 -126 -69 -189 l-41 -113 27 -47 c15 -25 60 -94 100 -152 85 -125 145 -228 138 -239 -5 -9 -209 -7 -370 4 -60 5 -120 4 -133 -1 -12 -5 -89 -91 -170 -193 -81 -101 -152 -185 -159 -188 -7 -2 -20 14 -29 35 -13 32 -87 291 -114 402 -5 19 -14 40 -22 47 -7 7 -112 50 -233 95 -121 45 -224 86 -230 91 -15 14 45 64 185 152 201 127 228 150 235 199 3 23 6 58 6 77 -1 84 10 376 15 389 5 16 25 4 124 -72z m-10420 -313 c41 -31 111 -87 155 -123 120 -101 153 -123 179 -123 21 0 269 65 410 108 98 30 98 12 1 -232 -69 -172 -82 -224 -71 -267 3 -14 53 -95 111 -180 58 -86 105 -159 105 -162 0 -4 9 -20 21 -36 l20 -29 -25 -12 c-19 -8 -53 -9 -124 -2 -53 5 -161 8 -239 6 l-141 -3 -119 -146 c-175 -216 -197 -242 -204 -238 -8 6 -51 139 -84 260 -15 55 -35 129 -46 165 l-18 65 -58 26 c-32 15 -112 45 -178 68 -137 48 -214 79 -234 97 -16 14 35 54 209 165 147 92 196 133 204 167 4 15 10 124 15 243 8 203 12 239 29 239 4 0 41 -25 82 -56z m8357 -780 c81 -66 153 -123 160 -127 16 -10 123 14 297 68 156 47 203 54 212 31 6 -16 -19 -89 -95 -278 -77 -191 -78 -187 64 -397 126 -185 142 -216 124 -237 -12 -15 -99 -13 -249 6 -47 5 -120 10 -162 10 -91 0 -96 -3 -190 -126 -116 -149 -210 -264 -218 -264 -20 0 -40 47 -73 165 -19 72 -40 155 -46 185 -23 112 -71 161 -191 195 -48 14 -129 44 -275 103 -62 24 -72 37 -43 53 14 8 110 71 215 140 133 88 192 133 197 150 4 13 11 127 16 252 5 125 12 232 15 237 9 15 84 -37 242 -166z m3988 -268 c33 -25 107 -84 165 -132 143 -117 148 -119 246 -90 44 13 124 36 179 51 55 15 122 34 148 42 51 16 77 12 77 -11 0 -8 -30 -90 -66 -183 -116 -297 -106 -266 -90 -304 8 -19 71 -119 140 -223 84 -126 123 -193 117 -199 -7 -7 -58 -7 -148 -1 -76 5 -193 8 -260 6 l-122 -3 -58 -73 c-32 -40 -101 -127 -153 -194 -52 -67 -98 -122 -103 -122 -4 0 -11 10 -16 23 -8 20 -86 296 -118 414 -12 49 -17 55 -66 80 -28 14 -133 54 -231 89 -98 35 -184 68 -189 73 -15 15 33 64 108 109 132 80 286 185 295 201 11 22 19 119 25 325 3 97 9 164 16 172 13 16 24 12 104 -50z m-10400 -295 c33 -25 104 -83 159 -128 127 -106 146 -110 306 -63 36 11 114 33 173 50 59 16 111 32 116 34 5 3 16 -3 25 -13 16 -18 15 -24 -18 -117 -19 -55 -51 -139 -72 -189 -29 -69 -38 -104 -38 -151 l-1 -61 123 -182 c67 -100 122 -189 122 -197 0 -8 -6 -17 -14 -20 -8 -3 -117 -1 -242 4 -126 5 -237 6 -248 2 -10 -3 -87 -91 -170 -196 -84 -104 -158 -189 -165 -189 -7 0 -19 18 -27 40 -19 55 -84 304 -84 324 0 9 -11 40 -25 68 -29 63 -55 81 -190 128 -229 79 -305 110 -305 125 0 5 95 73 210 150 116 78 211 144 212 148 6 31 10 85 17 273 4 118 11 221 15 228 9 14 25 5 121 -68z m4251 -448 c77 -62 148 -113 160 -113 11 0 40 6 65 14 24 8 82 24 129 36 47 12 110 30 140 40 30 10 75 20 100 22 42 3 45 1 48 -24 2 -14 -15 -71 -37 -125 -77 -188 -111 -285 -111 -314 0 -40 17 -71 125 -229 95 -139 139 -215 131 -228 -5 -9 -111 -6 -318 9 -185 12 -190 11 -256 -71 -24 -30 -73 -91 -108 -135 -35 -44 -84 -106 -110 -138 -25 -32 -50 -55 -54 -50 -11 10 -72 219 -99 338 -24 100 -56 157 -103 181 -17 9 -81 34 -142 55 -144 50 -225 81 -254 98 l-24 13 24 25 c12 14 84 66 158 114 74 49 158 105 186 124 l52 35 6 127 c4 71 9 182 12 248 3 66 10 126 16 133 12 14 55 -15 264 -185z m4042 -313 c52 -41 115 -92 140 -113 84 -68 94 -70 213 -38 97 27 313 87 351 98 27 8 32 -22 13 -79 -16 -51 -87 -237 -126 -330 -10 -26 -19 -59 -19 -74 0 -23 91 -171 252 -407 10 -15 16 -32 13 -37 -6 -9 -169 -7 -390 5 -72 4 -107 2 -125 -8 -14 -7 -58 -55 -98 -107 -40 -52 -107 -137 -149 -189 -86 -107 -90 -107 -119 -1 -9 30 -24 84 -34 120 -10 36 -31 112 -46 169 -27 96 -31 105 -65 127 -20 12 -97 43 -170 69 -139 48 -247 91 -263 106 -16 14 23 48 149 130 224 145 244 161 255 199 5 20 14 123 19 231 6 107 12 202 15 212 4 9 8 24 11 33 6 18 14 13 173 -116z m-10430 -273 c160 -128 213 -168 238 -177 31 -12 105 2 238 45 118 38 245 67 259 58 13 -8 4 -44 -42 -168 -23 -60 -57 -156 -77 -213 l-36 -103 118 -182 c65 -100 131 -199 147 -219 16 -21 25 -38 20 -39 -7 -1 -71 0 -323 6 -47 2 -109 6 -137 10 l-53 7 -32 -33 c-18 -19 -62 -71 -98 -116 -36 -44 -96 -120 -135 -168 l-70 -86 -17 21 c-22 28 -70 176 -98 305 -12 57 -31 115 -44 135 -33 50 -55 60 -434 195 -18 6 -37 16 -43 22 -11 11 70 72 273 204 125 81 138 92 147 126 5 21 11 131 13 244 4 235 9 251 60 221 16 -9 73 -52 126 -95z m4009 -254 c66 -50 174 -137 257 -205 49 -42 77 -58 98 -58 16 0 100 20 186 44 303 85 281 81 299 64 11 -12 12 -20 4 -34 -10 -16 -67 -162 -132 -339 -34 -93 -27 -127 59 -255 31 -47 62 -92 67 -101 6 -9 31 -47 57 -85 26 -38 48 -78 50 -88 3 -22 -12 -23 -332 -6 -122 6 -159 5 -176 -6 -12 -7 -82 -88 -157 -181 -156 -195 -170 -209 -184 -191 -14 19 -58 158 -88 283 -28 116 -60 193 -85 207 -38 19 -115 49 -235 91 -153 53 -202 73 -209 86 -8 13 42 50 229 173 88 57 167 113 175 123 17 21 18 31 28 295 7 185 12 220 32 220 5 0 30 -17 57 -37z m4199 -432 c32 -27 104 -86 159 -131 l99 -82 41 7 c35 5 152 37 300 80 131 39 203 43 176 11 -6 -7 -18 -38 -27 -67 -16 -52 -80 -220 -110 -286 -8 -17 -17 -51 -20 -75 -8 -55 1 -74 115 -238 48 -69 98 -144 111 -168 22 -39 23 -44 7 -59 -9 -9 -30 -16 -49 -15 -259 10 -321 13 -368 18 -72 8 -81 1 -225 -185 -62 -80 -129 -161 -149 -180 l-35 -34 -10 24 c-10 24 -31 98 -71 244 -41 148 -62 210 -79 227 -9 9 -79 40 -156 68 -77 28 -161 60 -187 71 -26 10 -53 19 -61 19 -8 0 -25 9 -38 20 l-24 20 35 29 c19 16 110 78 201 136 204 131 192 105 208 437 5 97 12 182 16 187 9 16 71 -19 141 -78z m4134 -358 c36 -29 97 -79 137 -112 82 -67 116 -77 188 -57 28 7 102 27 165 44 63 17 141 40 172 50 103 34 102 26 -28 -303 -26 -66 -49 -134 -51 -151 -5 -35 20 -82 132 -244 94 -136 136 -208 126 -215 -15 -8 -393 -4 -443 6 -26 4 -54 6 -61 3 -8 -3 -67 -73 -133 -156 -65 -84 -137 -172 -159 -196 -36 -41 -40 -42 -52 -25 -17 22 -45 110 -89 281 -18 73 -40 147 -48 166 -15 36 3 27 -266 126 -243 90 -237 85 -178 133 24 19 104 73 178 120 74 48 148 97 163 109 37 30 46 74 52 233 5 139 20 289 30 306 7 10 20 0 165 -118z m-10493 -220 c33 -27 114 -91 179 -144 65 -53 126 -98 135 -102 9 -3 49 4 90 15 287 78 395 105 402 101 22 -13 1 -77 -127 -402 -15 -36 -26 -72 -26 -80 0 -8 51 -92 114 -186 145 -218 159 -242 146 -250 -6 -4 -81 -6 -168 -5 -86 1 -200 1 -252 1 l-95 -1 -66 -83 c-36 -45 -106 -133 -155 -195 l-89 -113 -17 21 c-17 21 -34 73 -63 190 -9 36 -30 114 -47 173 l-31 109 -51 23 c-28 13 -85 36 -126 50 -64 23 -203 76 -277 106 -13 5 -23 12 -23 17 0 17 60 63 210 157 85 54 167 109 182 123 33 31 38 62 40 307 1 105 6 196 11 203 17 22 44 13 104 -35z m4252 -479 c135 -108 199 -153 210 -149 9 4 48 15 86 25 39 10 122 33 185 50 134 38 192 50 202 44 14 -9 9 -29 -42 -165 -94 -249 -103 -274 -106 -304 -5 -34 7 -53 160 -280 56 -83 96 -151 93 -160 -5 -11 -43 -14 -214 -15 -303 -2 -298 -2 -327 -29 -13 -13 -64 -75 -113 -139 -48 -64 -109 -138 -134 -166 l-46 -49 -16 24 c-9 13 -37 105 -62 204 -47 185 -71 252 -96 271 -14 11 -91 41 -289 113 -63 23 -126 51 -140 61 -24 18 -24 20 -8 36 10 10 95 70 189 134 95 64 181 127 190 141 18 24 32 147 45 394 6 104 9 115 26 115 7 0 100 -70 207 -156z m3981 -232 c19 -14 62 -49 95 -77 185 -159 224 -179 305 -155 29 9 139 40 363 102 56 16 62 3 38 -70 -18 -56 -37 -105 -122 -320 l-28 -73 16 -42 c9 -23 62 -109 118 -192 109 -160 139 -211 131 -224 -8 -12 -321 -3 -433 13 -40 6 -57 4 -77 -9 -15 -10 -86 -94 -159 -188 -72 -93 -139 -178 -148 -189 -13 -17 -17 -17 -27 -5 -18 21 -40 88 -73 222 -35 145 -67 246 -83 262 -6 7 -40 23 -76 36 -272 101 -376 141 -385 149 -12 11 44 61 135 120 181 117 227 147 246 166 30 28 43 109 53 324 5 103 12 192 16 198 7 12 26 2 95 -48z m-2069 -1087 c106 -85 200 -155 209 -155 9 0 36 6 61 14 24 8 89 27 144 41 55 15 120 33 145 41 82 25 129 28 136 11 3 -9 -31 -113 -75 -232 -45 -119 -81 -225 -81 -237 0 -11 51 -97 114 -192 123 -184 154 -244 133 -252 -18 -7 -91 -7 -157 0 -30 3 -120 8 -200 12 l-145 6 -47 -63 c-25 -35 -71 -95 -102 -134 -31 -38 -79 -98 -107 -132 -47 -59 -71 -74 -83 -55 -5 9 -77 262 -108 382 -20 79 -46 113 -97 125 -14 3 -64 21 -111 40 -47 18 -125 48 -175 66 -114 41 -125 51 -99 80 10 12 80 61 154 109 258 168 252 160 256 354 3 139 13 302 20 324 5 17 -8 26 215 -153z m-2189 -990 c206 -166 208 -167 289 -141 58 19 325 93 367 101 25 5 33 3 38 -10 7 -16 -39 -173 -61 -210 -14 -25 -49 -120 -74 -203 l-19 -62 85 -133 c172 -267 185 -289 174 -300 -8 -8 -72 -7 -223 1 -158 9 -224 9 -257 0 -44 -11 -62 -31 -332 -371 -32 -40 -35 -32 -145 370 -31 113 -23 105 -144 151 -30 11 -104 39 -165 62 -60 23 -130 51 -155 62 l-45 20 46 42 c26 22 110 81 189 130 78 50 150 101 161 114 32 41 41 98 48 307 6 177 12 225 26 225 2 0 91 -70 197 -155z"/>
<path d="M29325 31533 c-40 -9 -180 -56 -190 -64 -6 -4 -98 -49 -205 -99 -293 -138 -363 -171 -390 -185 -14 -7 -128 -61 -255 -120 -287 -133 -393 -183 -425 -200 -14 -7 -124 -59 -245 -115 -279 -130 -339 -158 -505 -237 -74 -36 -191 -91 -260 -123 -118 -54 -173 -80 -400 -187 -52 -25 -160 -76 -240 -113 -80 -37 -189 -89 -242 -114 -54 -25 -142 -67 -195 -92 -54 -25 -163 -77 -243 -114 -243 -114 -301 -141 -420 -197 -63 -30 -173 -82 -245 -115 -71 -34 -175 -82 -230 -108 -156 -75 -288 -136 -440 -207 -171 -79 -302 -141 -335 -158 -14 -7 -128 -61 -255 -120 -316 -147 -342 -159 -495 -232 -74 -36 -191 -91 -260 -123 -118 -54 -173 -80 -400 -187 -52 -25 -160 -76 -240 -113 -80 -37 -188 -88 -240 -113 -213 -100 -282 -133 -440 -207 -91 -42 -199 -93 -240 -113 -41 -19 -124 -58 -185 -87 -60 -28 -168 -79 -240 -112 -140 -65 -217 -102 -420 -198 -71 -35 -188 -89 -260 -122 -144 -66 -287 -133 -325 -153 -14 -7 -128 -61 -255 -120 -126 -59 -266 -124 -310 -145 -182 -87 -307 -146 -436 -205 -168 -78 -256 -120 -429 -202 -74 -36 -187 -89 -250 -118 -63 -29 -158 -73 -210 -98 -157 -74 -266 -126 -440 -207 -91 -42 -199 -93 -240 -113 -41 -19 -124 -58 -185 -87 -60 -28 -168 -79 -240 -112 -71 -34 -175 -82 -230 -108 -238 -113 -328 -156 -450 -212 -148 -68 -288 -134 -325 -153 -14 -7 -128 -61 -255 -120 -126 -59 -266 -124 -310 -145 -182 -87 -307 -146 -436 -205 -168 -78 -256 -120 -429 -202 -74 -36 -187 -89 -250 -118 -63 -29 -158 -73 -210 -98 -157 -74 -266 -126 -440 -207 -91 -42 -199 -93 -240 -113 -41 -19 -124 -58 -185 -87 -60 -28 -168 -79 -240 -112 -71 -34 -175 -82 -230 -108 -178 -85 -317 -151 -450 -212 -235 -109 -300 -140 -325 -153 -14 -7 -128 -61 -255 -120 -287 -133 -393 -183 -425 -200 -14 -7 -124 -59 -245 -115 -279 -130 -339 -158 -505 -237 -74 -36 -191 -91 -260 -123 -118 -54 -173 -80 -400 -187 -52 -25 -160 -76 -240 -113 -135 -63 -186 -87 -445 -210 -55 -26 -156 -73 -225 -105 -69 -32 -170 -79 -225 -105 -173 -83 -316 -150 -450 -212 -71 -34 -179 -84 -240 -113 -60 -29 -213 -101 -340 -160 -287 -133 -393 -183 -425 -200 -14 -7 -128 -61 -255 -120 -126 -59 -266 -124 -310 -145 -182 -87 -307 -146 -436 -205 -167 -77 -255 -119 -429 -202 -74 -36 -191 -91 -260 -123 -118 -54 -173 -80 -400 -187 -52 -25 -160 -76 -240 -113 -80 -37 -189 -89 -242 -114 -54 -25 -142 -67 -195 -92 -54 -25 -163 -77 -243 -114 -135 -63 -186 -87 -445 -210 -55 -26 -156 -73 -225 -105 -69 -32 -170 -79 -225 -105 -174 -83 -316 -150 -450 -212 -71 -34 -175 -82 -230 -108 -171 -82 -315 -150 -450 -212 -71 -34 -175 -82 -230 -108 -156 -75 -288 -136 -440 -207 -273 -126 -502 -238 -523 -256 -10 -8 -12 -24 -8 -55 3 -24 105 -352 227 -730 121 -378 302 -939 401 -1247 279 -869 287 -894 303 -926 9 -16 23 -29 31 -29 18 0 129 49 315 138 175 85 510 242 514 242 2 0 88 41 190 90 102 50 188 90 190 90 3 0 70 32 150 70 80 39 148 70 150 70 3 0 62 27 131 60 264 127 531 253 589 277 33 14 65 29 70 33 6 4 143 69 305 145 162 76 349 163 415 195 66 32 215 101 330 155 116 54 264 124 330 155 66 32 219 104 340 160 121 57 284 134 363 171 79 38 146 69 149 69 4 0 36 15 72 34 36 19 111 54 167 79 55 25 156 72 225 105 170 82 510 242 514 242 2 0 61 28 132 61 333 159 533 253 588 276 33 14 65 29 70 33 6 4 143 69 305 145 162 76 350 164 417 196 68 32 221 104 340 160 120 56 272 127 338 159 66 31 215 101 330 155 116 54 262 123 325 153 180 86 472 222 475 222 2 0 68 31 147 69 183 89 528 251 533 251 2 0 88 41 190 90 102 50 188 90 190 90 3 0 70 32 150 70 80 39 148 70 150 70 3 0 62 27 131 60 264 127 531 253 589 277 33 14 65 29 70 33 6 4 143 69 305 145 162 76 349 163 415 195 66 32 215 101 330 155 116 54 264 124 330 155 66 32 219 104 340 160 121 57 272 128 335 158 179 85 472 222 475 222 2 0 68 31 147 69 178 86 528 251 533 251 2 0 61 28 132 61 333 159 533 253 588 276 33 14 65 28 70 33 13 9 483 231 588 277 45 19 87 39 92 43 6 4 143 69 305 145 162 76 349 163 415 195 66 32 215 101 330 155 116 54 264 124 330 155 66 32 219 104 340 160 121 57 265 124 320 150 206 99 487 230 490 230 2 0 79 36 172 81 92 44 182 86 198 94 17 7 57 27 90 43 33 17 107 51 165 77 58 26 146 66 195 90 240 115 526 249 580 272 33 14 65 29 70 33 6 4 143 69 305 145 162 76 350 164 417 196 68 32 221 104 340 160 120 56 272 127 338 159 66 31 215 101 330 155 116 54 264 124 330 155 66 32 219 104 340 160 121 57 265 124 320 150 208 100 487 230 490 230 2 0 88 41 190 90 102 50 188 90 190 90 3 0 70 32 150 70 80 39 148 70 150 70 3 0 62 27 131 60 264 127 531 253 589 277 33 14 65 29 70 33 6 4 143 69 305 145 162 76 350 164 417 196 68 32 221 104 340 160 120 56 270 126 333 156 63 30 212 100 330 155 118 56 267 126 330 156 179 85 472 222 475 222 2 0 68 31 147 69 183 89 528 251 533 251 2 0 88 41 190 90 102 50 188 90 190 90 3 0 70 32 150 70 80 39 148 70 150 70 3 0 62 27 131 60 264 127 531 253 589 277 33 14 65 29 70 33 6 4 143 69 305 145 162 76 350 164 417 196 68 32 221 104 340 160 120 56 270 126 333 156 63 30 212 100 330 155 118 56 267 126 330 156 179 85 472 222 475 222 2 0 68 31 147 69 183 89 528 251 533 251 2 0 88 41 190 90 102 50 188 90 190 90 3 0 70 32 150 70 80 39 148 70 150 70 3 0 67 30 143 66 75 37 164 79 197 94 100 45 152 101 108 114 -34 9 -168 34 -188 35 -11 0 -63 5 -115 10 -52 6 -129 12 -170 15 -41 2 -145 11 -230 20 -85 9 -184 18 -220 20 -36 2 -128 11 -205 20 -123 13 -187 19 -360 32 -22 1 -78 7 -125 13 -47 5 -114 12 -150 15 -36 2 -105 9 -155 15 -49 6 -139 16 -200 21 -60 5 -173 16 -250 24 -77 8 -171 17 -210 20 -38 3 -128 12 -200 20 -71 8 -161 17 -200 20 -38 3 -128 12 -200 20 -71 8 -161 17 -200 20 -66 5 -138 13 -495 51 -80 9 -192 20 -250 25 -58 5 -168 16 -245 24 -77 9 -171 18 -210 21 -38 2 -128 11 -200 19 -71 8 -161 17 -200 20 -38 3 -131 12 -205 20 -74 9 -191 20 -260 26 -69 5 -181 17 -250 25 -122 14 -205 17 -245 8z"/>
<path d="M37490 28579 c-33 -19 -101 -50 -436 -207 -82 -38 -187 -88 -234 -110 -232 -109 -315 -149 -435 -204 -71 -34 -175 -82 -230 -108 -237 -113 -327 -155 -440 -207 -66 -31 -174 -81 -240 -113 -66 -32 -223 -106 -350 -165 -288 -134 -393 -183 -425 -200 -14 -7 -128 -61 -255 -120 -126 -59 -266 -124 -310 -145 -182 -87 -307 -146 -435 -205 -127 -59 -180 -84 -410 -192 -52 -25 -167 -79 -255 -120 -236 -111 -319 -150 -425 -200 -52 -25 -160 -76 -240 -113 -80 -37 -190 -89 -245 -115 -55 -26 -143 -68 -195 -92 -52 -25 -160 -76 -240 -113 -243 -114 -301 -141 -420 -197 -63 -30 -173 -82 -245 -115 -71 -34 -175 -82 -230 -109 -201 -95 -471 -222 -513 -240 -48 -21 -224 -104 -262 -124 -14 -7 -128 -61 -255 -120 -287 -133 -393 -183 -425 -200 -14 -7 -124 -59 -245 -115 -279 -130 -339 -158 -505 -237 -74 -36 -191 -91 -260 -123 -151 -69 -242 -112 -420 -197 -74 -36 -187 -89 -250 -118 -63 -29 -159 -73 -212 -99 -184 -87 -293 -138 -438 -206 -135 -63 -186 -87 -445 -210 -55 -26 -156 -73 -225 -105 -69 -32 -170 -79 -225 -105 -174 -83 -316 -150 -450 -212 -71 -34 -175 -82 -230 -108 -156 -75 -288 -136 -440 -207 -171 -79 -302 -141 -335 -158 -14 -7 -128 -61 -255 -120 -287 -133 -393 -183 -425 -200 -14 -7 -124 -59 -245 -115 -279 -130 -339 -158 -505 -237 -74 -36 -191 -91 -260 -123 -118 -54 -173 -80 -400 -187 -52 -25 -160 -76 -240 -113 -80 -37 -189 -89 -242 -114 -54 -25 -142 -67 -195 -92 -54 -25 -163 -77 -243 -114 -135 -63 -186 -87 -445 -210 -55 -26 -156 -73 -225 -105 -69 -32 -174 -81 -235 -110 -60 -29 -137 -65 -170 -80 -33 -16 -129 -61 -214 -102 -84 -40 -155 -73 -158 -73 -2 0 -54 -24 -116 -54 -142 -68 -275 -131 -452 -213 -171 -79 -302 -141 -335 -158 -14 -7 -128 -61 -255 -120 -287 -133 -393 -183 -425 -200 -14 -7 -124 -59 -245 -115 -279 -130 -339 -158 -505 -237 -74 -36 -191 -91 -260 -123 -118 -54 -173 -80 -400 -187 -52 -25 -160 -76 -240 -113 -80 -37 -189 -89 -242 -114 -54 -25 -142 -67 -195 -92 -54 -25 -163 -77 -243 -114 -135 -63 -186 -87 -445 -210 -55 -26 -156 -73 -225 -105 -69 -32 -170 -79 -225 -105 -174 -83 -316 -150 -450 -212 -71 -34 -175 -82 -230 -108 -156 -75 -288 -136 -440 -207 -171 -79 -302 -141 -335 -158 -14 -7 -128 -61 -255 -120 -288 -134 -349 -163 -505 -238 -69 -33 -181 -85 -250 -117 -146 -67 -234 -109 -420 -197 -74 -36 -191 -91 -260 -123 -118 -54 -173 -80 -400 -187 -52 -25 -160 -76 -240 -113 -80 -37 -189 -89 -242 -114 -54 -25 -142 -67 -195 -92 -54 -25 -163 -77 -243 -114 -317 -148 -367 -172 -415 -197 -27 -14 -56 -30 -62 -36 -31 -24 -43 18 503 -1757 348 -1132 370 -1199 391 -1207 7 -3 39 6 71 20 68 30 390 181 518 242 50 24 198 94 330 155 131 62 286 135 344 162 58 28 211 100 340 160 129 61 285 134 345 163 61 29 205 96 320 150 116 54 264 124 330 155 66 32 219 104 340 160 121 57 272 128 335 158 179 85 472 222 475 222 2 0 68 31 147 69 183 88 528 251 533 251 2 0 68 31 147 69 193 93 529 251 534 251 2 0 61 27 130 60 264 127 531 253 589 277 33 14 65 28 70 33 13 9 483 231 588 277 45 19 87 39 92 43 6 4 143 69 305 145 162 76 350 164 417 196 68 32 221 104 340 160 120 56 270 126 333 156 63 30 212 100 330 155 118 56 269 127 335 158 66 32 219 104 340 160 121 57 265 124 320 150 208 100 487 230 490 230 2 0 68 31 147 69 190 92 529 251 534 251 2 0 59 27 126 59 219 105 361 172 483 228 66 30 161 74 210 98 258 124 527 250 580 272 33 14 65 29 70 33 6 4 143 69 305 145 162 76 350 164 417 196 68 32 221 104 340 160 120 56 272 127 338 159 66 31 215 101 330 155 116 54 264 124 330 155 66 32 219 104 340 160 121 57 272 128 335 158 179 85 472 222 475 222 2 0 68 31 147 69 183 88 528 251 533 251 2 0 68 31 147 69 193 93 529 251 534 251 2 0 55 24 117 54 221 107 559 266 563 266 2 0 61 27 130 60 264 127 531 253 589 277 33 14 65 29 70 33 6 4 143 69 305 145 162 76 350 164 417 196 68 32 221 104 340 160 120 56 272 127 338 159 66 31 215 101 330 155 116 54 264 124 330 155 66 32 219 104 340 160 121 57 272 128 335 158 179 85 472 222 475 222 2 0 68 31 147 69 183 88 528 251 533 251 2 0 68 31 147 69 193 93 529 251 534 251 2 0 55 24 117 54 221 107 559 266 563 266 2 0 61 27 130 60 264 127 531 253 589 277 33 14 65 29 70 33 6 4 143 69 305 145 162 76 350 164 417 196 68 32 221 104 340 160 120 56 272 127 338 159 66 31 215 101 330 155 116 54 264 124 330 155 66 32 219 104 340 160 121 57 272 128 335 158 179 85 472 222 475 222 2 0 68 31 147 69 183 88 528 251 533 251 2 0 68 31 147 69 190 92 529 251 534 251 2 0 59 27 126 59 220 106 361 172 483 228 120 55 154 71 420 198 77 37 194 92 260 122 66 30 167 78 225 105 58 28 211 100 340 160 129 61 285 134 345 163 61 29 209 99 330 155 121 56 289 136 373 176 85 41 155 74 158 74 15 0 215 104 229 120 38 42 -17 65 -190 79 -77 6 -178 14 -225 17 -112 9 -128 10 -245 23 -55 6 -140 13 -190 16 -49 4 -110 8 -135 11 -25 2 -93 8 -153 14 -59 5 -144 12 -190 14 -45 2 -163 11 -262 20 -99 8 -235 17 -303 20 -67 3 -126 7 -130 9 -7 5 -334 25 -672 43 -41 2 -136 8 -210 14 -74 5 -205 12 -290 16 -179 8 -231 10 -470 24 -96 6 -254 13 -350 15 -183 6 -264 9 -595 25 -110 5 -294 11 -410 13 -166 4 -220 8 -259 22 -38 14 -82 50 -209 171 -175 167 -181 170 -247 133z"/>
<path d="M48585 27010 c-27 -4 -81 -23 -120 -42 -38 -20 -173 -84 -300 -143 -126 -59 -266 -124 -310 -145 -182 -87 -307 -146 -436 -205 -167 -77 -255 -119 -429 -202 -74 -36 -191 -91 -260 -123 -118 -54 -173 -80 -400 -187 -52 -25 -160 -76 -240 -113 -135 -63 -186 -87 -445 -210 -55 -26 -156 -73 -225 -105 -69 -32 -170 -79 -225 -105 -181 -86 -318 -151 -450 -212 -235 -109 -300 -140 -325 -153 -14 -7 -128 -61 -255 -120 -126 -59 -266 -124 -310 -145 -182 -87 -307 -146 -436 -205 -167 -77 -255 -119 -429 -202 -74 -36 -193 -92 -265 -125 -71 -33 -170 -79 -220 -103 -233 -112 -353 -168 -388 -181 -44 -16 -117 -72 -117 -91 0 -12 39 -18 110 -15 43 2 388 33 535 48 77 8 173 17 214 20 40 2 110 9 155 15 44 5 103 12 129 14 77 5 178 15 385 36 626 63 622 62 1132 130 211 28 308 41 695 93 61 9 139 20 175 26 36 5 115 17 175 26 61 9 151 22 200 29 50 7 140 21 200 29 106 16 237 37 340 56 28 5 84 14 125 20 41 6 93 15 115 20 22 5 83 16 135 25 52 8 124 22 160 29 36 8 115 24 175 36 145 28 279 56 390 81 317 71 790 190 1015 256 47 14 126 36 175 49 93 25 601 196 690 232 28 11 97 39 155 62 135 54 392 175 545 258 319 171 645 427 645 506 0 43 -285 263 -545 421 -88 53 -349 185 -460 232 -195 83 -255 108 -377 155 -205 77 -658 225 -708 230 -25 3 -67 2 -95 -2z"/>
<path d="M23295 15135 c-38 -18 -114 -54 -167 -79 -54 -25 -142 -67 -195 -92 -54 -25 -163 -77 -243 -114 -80 -37 -189 -89 -242 -114 -54 -25 -142 -67 -195 -92 -54 -25 -163 -77 -243 -114 -135 -63 -186 -87 -445 -210 -55 -26 -156 -73 -225 -105 -69 -32 -170 -79 -225 -105 -197 -94 -322 -153 -450 -212 -71 -33 -166 -77 -210 -98 -138 -67 -345 -165 -475 -225 -69 -32 -170 -79 -225 -105 -174 -83 -316 -150 -450 -212 -71 -34 -175 -82 -230 -108 -178 -85 -317 -151 -450 -212 -235 -109 -300 -140 -325 -153 -14 -7 -128 -61 -255 -120 -284 -132 -393 -183 -425 -200 -14 -7 -128 -61 -255 -120 -284 -132 -393 -183 -425 -200 -14 -7 -128 -61 -255 -120 -284 -132 -393 -183 -425 -200 -14 -7 -128 -61 -255 -120 -284 -132 -393 -183 -425 -200 -14 -7 -128 -61 -255 -120 -126 -59 -266 -124 -310 -145 -44 -21 -120 -57 -170 -80 -49 -23 -117 -55 -150 -70 -54 -26 -111 -53 -340 -160 -38 -18 -131 -62 -205 -97 -74 -36 -191 -91 -260 -123 -149 -68 -240 -111 -420 -197 -74 -36 -191 -91 -260 -123 -143 -66 -266 -123 -465 -218 -304 -145 -313 -151 -285 -196 8 -14 350 -390 760 -837 410 -446 756 -825 770 -841 l25 -29 1545 1 c888 0 1558 4 1576 9 78 22 103 44 305 266 90 99 233 257 319 350 85 94 179 197 209 230 79 87 539 593 647 710 86 95 198 218 774 850 135 148 319 350 410 450 341 374 869 953 970 1065 122 135 446 490 670 735 85 94 179 197 209 230 30 33 255 280 500 549 1412 1550 1296 1420 1287 1441 -9 25 -65 17 -141 -20z"/>
</g>
</g>
</svg>
