<?xml version="1.0" standalone="no"?>
<!DOCTYPE svg PUBLIC "-//W3C//DTD SVG 1.1//EN"
 "http://www.w3.org/Graphics/SVG/1.1/DTD/svg11.dtd">
<!-- Created with svg_stack (http://github.com/astraw/svg_stack) -->
<svg xmlns:sodipodi="http://sodipodi.sourceforge.net/DTD/sodipodi-0.dtd" xmlns="http://www.w3.org/2000/svg" version="1.1" width="1440.0" height="386.0">
  <defs/>
  <g id="id0:id0" transform="matrix(1.25,0,0,1.25,0.0,0.0)"><g transform="translate(0.000000,308.800000) scale(0.040000,-0.040000)" fill="#f68c29" stroke="none">
<path d="M5785 6920 l-1050 -5 -59 -29 c-73 -36 -103 -64 -716 -671 -267 -264 -574 -567 -682 -674 -223 -220 -254 -265 -268 -390 -13 -116 1 -4405 14 -4413 6 -4 2083 -8 4616 -8 4949 0 4647 -3 4750 50 30 15 174 151 425 398 608 600 1124 1123 1155 1171 64 97 60 -63 63 2308 1 1187 0 2178 -3 2203 -4 35 -10 47 -30 57 -20 10 -734 12 -3595 11 -1963 -2 -4042 -5 -4620 -8z m-420 -1659 c3 -5 5 -293 5 -640 0 -557 2 -632 16 -645 13 -14 72 -16 469 -16 308 0 456 3 460 11 4 5 6 286 6 622 -1 337 3 626 7 642 l8 30 320 0 319 0 0 -1435 0 -1435 -317 -3 c-294 -2 -318 -1 -326 15 -6 10 -10 216 -10 476 -1 251 -4 462 -7 467 -10 16 -920 13 -933 -3 -7 -8 -11 -169 -12 -477 0 -256 -4 -468 -8 -472 -5 -5 -154 -7 -333 -6 l-324 3 0 1430 c-1 787 1 1433 3 1438 5 11 650 9 657 -2z m4176 -5 c111 -27 184 -80 231 -168 l23 -43 0 -720 0 -720 -27 -51 c-46 -88 -147 -156 -250 -170 -28 -4 -48 -12 -48 -19 0 -6 142 -225 315 -485 174 -260 314 -477 313 -482 -2 -5 -7 -9 -11 -9 -4 1 -176 1 -382 1 l-375 0 -319 478 c-175 263 -326 485 -335 494 -13 14 -49 16 -250 17 -181 1 -236 -1 -243 -11 -4 -7 -10 -229 -13 -493 l-5 -480 -330 0 -330 0 0 1430 c-1 787 1 1433 3 1438 2 4 447 7 990 7 787 -1 998 -3 1043 -14z m2790 -286 l0 -295 -320 -3 c-251 -2 -321 -5 -330 -16 -8 -9 -12 -333 -13 -1137 l-3 -1124 -330 0 -330 0 -3 1124 c-1 804 -5 1128 -13 1137 -9 11 -79 14 -333 16 l-321 3 -3 285 c-1 157 0 290 3 297 3 11 204 13 1001 11 l996 -3 -1 -295z"/>
<path d="M8176 4638 c-9 -34 -7 -621 2 -636 7 -10 109 -12 478 -10 l469 3 3 310 c1 171 0 320 -3 333 l-5 22 -469 0 -469 0 -6 -22z"/>
</g>
</g>
  <g id="id1:id1" transform="matrix(1.25,0,0,1.25,0.0,0.0)"><g transform="translate(0.000000,308.800000) scale(0.040000,-0.040000)" fill="#ffffff" stroke="none">
<path d="M15365 5361 c-76 -19 -112 -54 -129 -124 -10 -41 10 -99 44 -132 l31 -30 172 -5 c200 -7 225 -16 270 -99 45 -83 48 -163 45 -1161 l-4 -915 -19 -54 c-10 -30 -35 -71 -55 -92 -45 -46 -99 -59 -259 -59 -129 0 -159 -10 -204 -72 -44 -59 -17 -162 51 -197 70 -36 133 -36 272 0 219 56 458 56 750 -1 177 -34 229 -34 286 1 61 37 83 133 44 196 -34 57 -67 67 -242 73 l-157 5 -30 29 c-72 69 -74 100 -91 1361 -13 886 -12 980 5 980 10 0 63 -156 184 -540 66 -210 151 -482 241 -765 32 -102 85 -270 118 -375 33 -104 85 -269 115 -365 31 -96 79 -249 107 -338 61 -195 84 -236 148 -265 70 -31 209 -31 275 1 89 44 98 63 217 442 34 107 68 213 76 235 7 22 145 450 305 950 159 501 298 934 308 963 46 143 52 45 46 -753 -3 -374 -9 -817 -14 -985 -9 -323 -16 -372 -66 -469 -42 -84 -71 -97 -250 -109 -88 -6 -141 -15 -163 -26 -47 -24 -72 -70 -72 -133 0 -72 38 -117 114 -134 56 -12 95 -9 271 26 187 36 508 30 789 -16 190 -31 259 -6 287 104 10 41 9 54 -6 93 -25 67 -62 80 -240 87 -158 7 -196 18 -243 71 -59 67 -57 33 -57 1121 0 1074 -1 1053 52 1115 50 60 86 70 244 70 123 0 148 3 185 20 48 24 69 63 68 126 -3 126 -124 179 -307 135 -212 -50 -400 -49 -637 4 -116 26 -171 15 -234 -49 -37 -37 -47 -58 -89 -186 -65 -201 -234 -741 -403 -1290 -52 -168 -119 -381 -149 -475 -43 -137 -91 -295 -142 -465 -7 -23 -27 9 -46 73 -9 28 -48 158 -87 287 -39 129 -82 271 -95 315 -29 96 -138 456 -164 540 -10 33 -30 98 -44 145 -26 84 -151 500 -186 615 -10 33 -31 103 -46 155 -64 225 -94 283 -169 323 -51 27 -166 28 -301 2 -129 -26 -352 -24 -515 4 -131 22 -156 24 -205 12z"/>
<path d="M20775 5356 c-83 -26 -145 -75 -178 -141 -14 -27 -87 -220 -227 -600 -452 -1222 -658 -1766 -684 -1805 -40 -60 -92 -80 -217 -80 -167 -1 -229 -43 -229 -157 0 -44 5 -58 31 -87 48 -56 101 -63 300 -41 90 11 255 20 366 23 172 3 225 0 345 -18 309 -48 436 1 413 159 -8 55 -47 94 -107 109 -24 6 -119 11 -213 12 -201 1 -230 10 -255 78 -18 53 -11 81 74 297 86 215 113 271 148 300 l30 25 470 0 470 0 27 -27 c29 -30 44 -64 146 -326 77 -199 90 -244 81 -280 -13 -54 -42 -61 -251 -67 -168 -5 -195 -8 -231 -27 -97 -51 -98 -198 -1 -250 40 -22 191 -22 431 2 203 19 445 19 611 -1 72 -8 175 -16 230 -17 90 -2 103 0 133 21 42 31 62 70 62 126 0 60 -16 92 -59 119 -32 20 -53 23 -201 27 -182 6 -203 12 -257 73 -49 56 -85 143 -271 652 -96 264 -186 509 -199 545 -14 36 -30 83 -37 105 -7 22 -36 103 -65 180 -60 161 -67 180 -151 410 -34 94 -70 193 -80 220 -10 28 -40 108 -66 178 -26 71 -60 146 -76 168 -65 90 -199 131 -313 95z m143 -601 c33 -104 90 -284 127 -400 36 -115 75 -235 85 -265 54 -158 101 -316 98 -334 l-3 -21 -385 0 -385 0 -3 22 c-3 19 176 579 330 1038 57 167 58 169 67 159 4 -5 35 -94 69 -199z"/>
<path d="M22560 5348 c-34 -17 -51 -35 -69 -71 l-24 -48 13 -220 c9 -173 9 -277 0 -494 -14 -304 -10 -341 40 -395 30 -32 100 -55 144 -46 49 10 93 47 118 100 21 45 23 63 23 200 0 83 -4 212 -9 287 -15 230 15 317 129 374 l60 30 158 3 c140 3 165 1 222 -18 50 -17 73 -31 100 -63 68 -79 66 -35 63 -1134 l-3 -989 -30 -60 c-24 -46 -41 -64 -75 -84 -41 -22 -59 -25 -205 -30 -133 -4 -166 -8 -189 -23 -53 -35 -71 -124 -40 -191 35 -72 149 -100 284 -71 166 36 324 55 464 55 137 0 164 -3 496 -62 139 -24 250 37 250 138 0 55 -20 95 -62 125 -29 21 -47 24 -188 29 -140 6 -161 9 -200 31 -50 27 -88 85 -101 153 -12 57 -11 1691 1 1860 14 208 48 275 159 317 51 19 72 20 226 17 149 -4 176 -7 220 -27 133 -60 163 -142 144 -401 -14 -204 -14 -389 0 -425 45 -111 204 -138 288 -49 43 46 48 91 34 272 -23 273 -23 324 -7 469 21 183 21 324 1 363 -8 16 -30 40 -48 55 -56 42 -122 49 -319 36 -396 -27 -501 -30 -1105 -31 -506 0 -646 3 -706 14 -41 8 -105 17 -143 21 -60 5 -75 3 -114 -17z"/>
<path d="M25298 5354 c-54 -16 -94 -59 -104 -109 -8 -46 0 -77 33 -116 43 -51 76 -59 231 -59 126 0 143 -2 183 -23 63 -33 97 -100 109 -214 12 -110 12 -1802 1 -1902 -6 -47 -19 -93 -37 -130 -43 -83 -80 -99 -254 -107 -161 -7 -190 -14 -229 -60 -55 -62 -53 -136 5 -190 54 -52 124 -62 244 -35 178 39 275 53 412 58 146 6 221 -2 428 -44 270 -55 370 -21 370 129 0 46 -5 62 -25 87 -35 40 -67 48 -226 55 -197 7 -237 29 -285 151 -18 47 -19 78 -19 515 l0 465 680 0 680 0 3 -430 c3 -468 -2 -524 -54 -607 -43 -68 -89 -84 -269 -93 -191 -10 -238 -39 -239 -146 0 -70 19 -105 71 -130 61 -30 128 -29 298 5 296 57 528 57 770 0 61 -15 142 -27 181 -27 61 -1 77 2 111 25 92 60 96 193 8 249 -12 7 -83 16 -180 21 -202 11 -234 24 -280 113 l-30 59 0 1016 0 1016 30 59 c44 87 85 105 247 111 67 3 142 7 165 10 119 14 153 181 52 254 -56 40 -127 46 -259 21 -302 -57 -497 -64 -720 -26 -242 42 -273 46 -321 40 -93 -13 -143 -65 -143 -149 1 -117 44 -142 260 -149 162 -6 207 -21 248 -85 49 -76 51 -93 51 -482 l0 -365 -680 0 -680 0 0 360 0 360 23 66 c22 65 53 104 102 130 16 9 82 15 188 19 l164 6 40 43 40 43 -4 65 c-4 61 -7 69 -38 94 -69 58 -143 60 -460 8 -221 -36 -429 -29 -682 22 -112 22 -146 23 -210 3z"/>
<path d="M400 5321 c-87 -27 -120 -68 -120 -150 0 -39 6 -56 26 -80 42 -50 59 -55 224 -61 170 -7 197 -15 244 -70 14 -17 33 -54 43 -83 16 -48 18 -129 21 -957 3 -991 0 -1070 -45 -1160 -43 -85 -77 -98 -282 -108 l-162 -9 -30 -30 c-69 -69 -51 -196 33 -236 60 -29 128 -31 235 -9 221 47 287 55 448 55 144 0 178 -3 350 -37 208 -41 259 -42 327 -4 83 47 91 191 12 243 -22 14 -60 20 -184 27 -223 14 -269 40 -307 179 -17 59 -18 134 -18 1009 l0 945 19 70 c40 144 78 167 297 175 l156 5 36 28 c43 32 61 83 53 141 -17 109 -116 142 -321 108 -361 -61 -496 -61 -853 -1 -120 20 -161 22 -202 10z"/>
</g>
</g>
</svg>
