<?xml version="1.0" standalone="no"?>
<!DOCTYPE svg PUBLIC "-//W3C//DTD SVG 1.1//EN"
 "http://www.w3.org/Graphics/SVG/1.1/DTD/svg11.dtd">
<!-- Created with svg_stack (http://github.com/astraw/svg_stack) -->
<svg xmlns:sodipodi="http://sodipodi.sourceforge.net/DTD/sodipodi-0.dtd" xmlns="http://www.w3.org/2000/svg" version="1.1" width="3184.0" height="3328.0">
  <defs/>
  <g id="id0:id0" transform="matrix(1.25,0,0,1.25,0.0,0.0)"><g transform="translate(0.000000,2662.400000) scale(0.040000,-0.040000)" fill="#023e69" stroke="none">
<path d="M33340 60479 c-1165 -56 -2335 -446 -3335 -1112 -422 -281 -765 -566 -1150 -958 -407 -414 -761 -868 -1075 -1379 -79 -128 -180 -300 -180 -305 0 -2 -16 -32 -36 -67 -59 -102 -257 -502 -322 -648 -402 -902 -665 -1856 -813 -2940 -18 -135 -24 -181 -49 -415 -12 -106 -34 -385 -51 -645 -20 -291 -17 -1120 5 -1360 38 -438 71 -671 142 -1019 180 -885 521 -1722 1020 -2511 713 -1125 1819 -2205 3324 -3245 47 -32 105 -73 130 -90 119 -83 396 -267 725 -480 28 -18 120 -76 205 -130 85 -53 171 -108 190 -120 76 -50 616 -381 855 -524 208 -125 694 -419 840 -508 77 -47 154 -93 170 -103 35 -20 315 -192 360 -221 104 -68 479 -304 525 -331 36 -21 89 -40 155 -54 55 -11 215 -46 355 -77 343 -75 578 -120 820 -158 36 -6 92 -15 125 -20 33 -5 96 -14 140 -19 44 -5 116 -14 160 -20 319 -42 795 -64 1073 -50 613 31 1015 111 1487 297 260 103 568 272 759 418 32 24 52 33 58 27 7 -7 -10 -96 -52 -269 -34 -142 -89 -366 -121 -498 -78 -325 -122 -505 -159 -660 -17 -71 -55 -229 -85 -350 -50 -209 -78 -326 -195 -810 -28 -115 -64 -264 -80 -330 -41 -169 -103 -427 -156 -650 -25 -104 -55 -221 -66 -258 l-19 -69 23 -28 c13 -16 70 -81 128 -146 426 -477 780 -920 1099 -1374 32 -45 224 -334 266 -400 226 -352 443 -782 510 -1008 25 -82 33 -74 81 68 88 263 283 625 545 1015 248 369 362 521 779 1039 192 239 578 676 915 1036 355 380 988 1004 1364 1345 135 122 342 307 431 385 47 41 116 102 154 135 38 33 87 76 110 95 24 19 135 112 247 206 407 340 735 597 1148 901 113 83 217 160 231 171 14 10 107 76 208 146 100 71 182 131 182 134 0 3 -7 13 -15 22 -14 16 -43 62 -217 348 -51 84 -105 172 -119 195 -22 36 -87 142 -245 400 -16 27 -77 128 -136 225 -59 98 -112 184 -117 192 -5 8 -70 114 -144 235 -73 121 -178 292 -232 380 -53 88 -136 223 -183 300 -47 77 -104 170 -126 207 -23 37 -83 136 -134 220 -51 84 -111 182 -134 218 -35 57 -97 158 -254 417 -75 123 -320 526 -478 785 -23 37 -78 127 -122 200 -45 73 -125 205 -179 293 -54 88 -117 190 -139 227 -34 56 -228 374 -301 494 -11 18 -55 90 -98 161 -43 70 -91 148 -106 173 -157 251 -270 444 -266 450 3 4 47 -2 97 -15 51 -13 188 -46 303 -74 116 -28 302 -73 415 -100 113 -27 282 -68 375 -90 94 -23 310 -75 480 -117 171 -41 366 -88 435 -105 139 -33 304 -74 610 -148 225 -55 311 -88 566 -220 341 -177 615 -375 872 -629 181 -179 340 -381 475 -604 124 -203 232 -462 296 -708 34 -128 72 -318 85 -420 73 -558 38 -1209 -109 -2015 -28 -152 -28 -155 -15 -155 10 0 159 90 290 175 19 13 217 136 440 275 223 139 411 258 419 265 8 8 15 33 16 57 2 24 10 117 19 208 23 228 32 718 17 955 -32 509 -130 958 -297 1368 -45 110 -196 420 -218 447 -7 8 -31 47 -53 85 -23 39 -73 115 -112 169 -65 92 -78 122 -48 111 7 -3 98 -25 202 -50 105 -25 289 -70 410 -100 121 -30 261 -63 310 -75 50 -12 189 -45 310 -75 121 -29 306 -74 410 -99 105 -25 276 -66 380 -91 105 -26 280 -68 390 -94 405 -98 585 -142 810 -196 127 -31 307 -74 400 -97 156 -37 319 -78 371 -93 26 -8 62 22 274 229 493 479 907 975 1255 1501 189 285 285 452 444 765 276 546 455 1045 606 1695 36 152 77 383 101 560 8 61 17 121 19 135 16 77 47 474 57 732 28 726 -45 1775 -172 2478 -33 185 -84 439 -119 595 -311 1392 -894 2642 -1696 3640 -515 642 -1090 1154 -1800 1605 -40 25 -191 112 -285 165 -640 357 -1333 602 -2100 745 -136 26 -320 50 -625 81 -167 17 -787 19 -792 2 -3 -8 5 -13 19 -13 29 0 161 -44 283 -95 327 -136 658 -344 940 -590 142 -123 202 -183 329 -325 290 -326 431 -522 749 -1045 60 -99 147 -241 192 -315 45 -74 158 -259 250 -410 92 -151 212 -347 266 -435 54 -88 115 -189 137 -225 35 -59 102 -168 350 -575 150 -246 165 -271 256 -422 49 -81 100 -163 113 -182 13 -18 23 -39 23 -46 0 -6 -42 -37 -92 -67 -51 -30 -172 -103 -268 -161 -96 -59 -184 -107 -195 -107 -11 0 -96 21 -190 45 -208 55 -620 157 -1065 265 -184 44 -398 96 -475 115 -373 90 -455 110 -722 169 -159 35 -391 85 -518 109 -207 41 -288 55 -492 87 -35 6 -91 14 -125 20 -486 77 -1157 105 -1578 67 -177 -16 -411 -48 -495 -66 -22 -5 -67 -15 -100 -22 -364 -74 -813 -248 -1120 -432 -117 -71 -270 -172 -303 -201 -38 -34 -45 -9 -23 80 11 43 38 153 60 244 22 91 53 221 70 290 17 69 46 190 65 270 85 353 109 455 146 605 21 88 52 216 69 285 17 69 57 235 89 370 76 313 138 570 202 835 136 563 266 1096 276 1133 10 36 -18 28 -175 -54 -337 -176 -642 -364 -969 -597 -96 -68 -113 -85 -121 -116 -5 -20 -23 -94 -40 -166 -17 -71 -58 -242 -92 -380 -33 -137 -74 -306 -90 -375 -17 -69 -48 -199 -70 -290 -38 -154 -68 -282 -183 -755 -25 -104 -71 -293 -101 -420 -31 -126 -72 -295 -91 -375 -36 -150 -79 -327 -188 -780 -36 -146 -74 -305 -86 -355 -33 -139 -157 -652 -279 -1155 -28 -113 -68 -281 -91 -375 -82 -342 -124 -516 -187 -775 -90 -372 -126 -519 -174 -720 -23 -96 -70 -294 -106 -440 -110 -455 -141 -582 -163 -675 -12 -49 -46 -191 -76 -315 -54 -221 -90 -371 -120 -500 -24 -100 -23 -98 -44 -70 -16 20 -110 172 -155 248 -17 30 -246 404 -285 467 -38 61 -343 560 -396 648 -16 26 -42 70 -59 98 -16 27 -78 127 -136 222 -100 163 -192 313 -387 632 -315 515 -475 847 -611 1265 -227 700 -238 1420 -31 2051 88 268 270 616 417 797 l35 42 -64 103 c-60 98 -285 437 -332 501 -20 27 -252 337 -311 415 -135 180 -438 524 -660 750 -509 518 -1013 922 -1600 1283 -695 426 -1496 746 -2270 906 -551 115 -1130 159 -1705 131z m1761 -1930 c58 -83 299 -490 299 -505 0 -10 -20 -92 -44 -183 -44 -164 -154 -603 -234 -936 -23 -93 -68 -280 -100 -415 -162 -671 -182 -752 -227 -960 -20 -91 -42 -196 -51 -234 -76 -349 -167 -898 -194 -1171 -6 -60 -15 -146 -20 -190 -5 -44 -15 -203 -22 -353 -34 -753 74 -1434 318 -2014 101 -240 198 -418 350 -640 51 -75 90 -138 87 -141 -3 -3 -16 -2 -30 4 -13 5 -74 20 -136 35 -62 14 -204 48 -317 75 -271 66 -441 107 -695 168 -233 57 -596 144 -810 196 -186 45 -585 142 -820 199 -104 25 -275 66 -380 91 -454 110 -607 147 -890 214 -165 40 -311 77 -324 84 -61 31 -344 759 -445 1149 -95 365 -121 561 -121 913 0 287 5 334 50 515 8 30 26 102 40 160 89 357 277 738 530 1075 339 451 797 844 1435 1232 63 39 196 120 295 180 99 61 302 184 450 275 267 163 513 313 775 473 383 234 597 364 705 430 66 40 203 125 305 188 102 63 189 114 194 113 6 -1 17 -13 27 -27z m1159 -1896 c43 -70 131 -213 194 -318 64 -104 163 -266 220 -360 99 -161 232 -379 443 -725 52 -85 142 -231 199 -325 57 -93 156 -255 220 -360 63 -104 162 -266 220 -360 57 -93 156 -255 220 -360 114 -187 192 -315 434 -710 142 -233 142 -232 282 -463 59 -98 112 -184 117 -192 6 -8 45 -73 88 -143 43 -70 96 -158 119 -195 23 -37 87 -141 142 -232 56 -91 137 -223 180 -295 44 -71 123 -202 177 -290 122 -198 168 -273 224 -367 66 -108 369 -604 409 -668 245 -395 460 -756 452 -764 -5 -5 -46 0 -102 14 -51 12 -212 51 -358 86 -484 118 -624 152 -760 184 -74 18 -254 61 -400 97 -428 104 -493 119 -735 178 -478 115 -570 138 -585 146 -8 5 -66 31 -128 59 -615 276 -1114 681 -1464 1190 -258 374 -401 762 -480 1295 -29 200 -37 798 -14 1065 17 198 39 395 56 500 6 36 19 121 30 190 27 170 56 320 112 590 11 52 24 115 29 140 5 25 16 72 24 105 7 33 26 112 40 175 30 128 79 333 161 670 49 202 70 286 121 500 17 71 22 84 30 76 3 -3 41 -63 83 -133z m11085 -1489 c116 -8 243 -20 283 -25 39 -5 107 -13 150 -19 255 -32 613 -97 1022 -186 139 -30 133 -29 620 -144 203 -49 693 -168 793 -193 49 -12 89 -26 89 -32 0 -5 -42 -35 -93 -67 -52 -32 -101 -63 -109 -68 -8 -5 -46 -28 -85 -51 -38 -23 -115 -70 -170 -104 -55 -34 -224 -137 -375 -230 -151 -92 -313 -191 -360 -220 -47 -29 -197 -121 -335 -205 -137 -83 -274 -167 -302 -186 -29 -19 -55 -34 -58 -34 -3 0 -29 -15 -58 -34 -44 -28 -616 -380 -669 -411 -43 -26 -140 -85 -488 -298 -206 -126 -391 -239 -410 -250 -19 -11 -57 -35 -85 -52 -45 -29 -380 -234 -447 -274 -54 -32 -297 -180 -493 -301 -110 -68 -263 -161 -340 -207 -77 -47 -153 -94 -170 -105 -16 -10 -169 -104 -340 -208 -170 -104 -335 -204 -365 -223 -30 -19 -201 -123 -380 -232 -179 -109 -341 -208 -360 -221 -19 -12 -87 -54 -150 -92 -63 -38 -187 -113 -275 -167 -88 -54 -187 -114 -220 -134 -33 -19 -71 -43 -84 -53 -13 -10 -27 -15 -31 -13 -5 3 0 38 11 78 10 39 39 158 64 262 25 105 61 253 80 330 32 130 52 216 135 560 17 72 51 213 76 315 25 102 58 239 74 305 16 66 56 233 90 370 33 138 83 347 111 465 56 236 71 278 169 485 251 530 598 965 1031 1292 638 482 1378 656 2454 577z m1190 -4118 c380 -54 637 -131 938 -282 330 -166 613 -379 942 -709 422 -421 780 -894 1280 -1688 78 -126 166 -270 465 -762 157 -258 290 -476 324 -530 18 -27 35 -57 39 -65 4 -8 63 -107 131 -219 69 -113 123 -208 120 -212 -2 -4 -28 -1 -57 7 -28 8 -149 37 -267 65 -118 28 -305 72 -415 99 -335 82 -562 137 -725 175 -85 21 -274 66 -420 102 -146 35 -319 77 -385 93 -126 31 -410 99 -730 176 -170 41 -296 72 -780 189 -77 19 -234 57 -350 84 -250 61 -616 149 -810 196 -77 19 -196 48 -265 64 -69 17 -219 53 -335 81 -115 28 -257 62 -315 76 -58 14 -177 43 -265 64 -88 22 -263 64 -390 95 -126 30 -313 75 -415 100 -326 78 -601 145 -745 180 -77 19 -206 50 -287 69 -82 20 -212 51 -290 70 -79 19 -199 48 -268 65 -69 16 -219 53 -335 81 -115 28 -268 64 -340 81 -161 38 -157 37 -151 47 4 7 135 91 198 127 20 12 325 197 573 349 94 58 240 147 325 199 185 113 504 307 725 442 863 529 911 557 1203 697 493 238 969 371 1467 412 105 8 504 -4 610 -18z m-16695 -491 c151 -37 340 -82 420 -101 80 -18 161 -38 180 -44 19 -6 85 -22 145 -36 61 -14 211 -50 335 -80 124 -30 311 -75 415 -100 105 -25 298 -72 430 -104 132 -32 278 -68 325 -79 132 -31 655 -157 855 -206 199 -49 471 -114 730 -176 94 -23 278 -67 410 -100 132 -32 287 -69 345 -83 58 -14 191 -46 295 -71 105 -25 282 -68 395 -96 516 -124 642 -155 885 -214 143 -34 395 -95 560 -135 165 -40 426 -103 580 -140 154 -37 366 -88 470 -114 105 -25 276 -66 380 -91 433 -105 566 -137 670 -162 162 -38 193 -47 195 -58 3 -10 -66 -55 -315 -206 -82 -50 -214 -130 -291 -177 -180 -110 -526 -322 -562 -343 -15 -9 -99 -61 -187 -114 -88 -54 -190 -117 -227 -139 -193 -117 -349 -213 -493 -301 -552 -340 -728 -438 -1005 -566 -389 -178 -765 -295 -1125 -348 -216 -32 -268 -35 -495 -36 -237 0 -292 4 -520 41 -280 45 -522 120 -766 239 -357 174 -652 393 -1004 745 -497 497 -936 1107 -1639 2275 -23 39 -68 113 -100 165 -140 227 -235 383 -306 500 -42 69 -108 177 -146 240 -162 265 -178 300 -131 286 10 -3 141 -35 292 -71z m10630 -3357 c34 -57 75 -125 92 -153 17 -27 104 -169 193 -315 89 -146 176 -287 193 -315 17 -27 66 -108 109 -178 43 -71 85 -141 94 -155 50 -81 265 -433 288 -470 14 -24 74 -122 132 -217 58 -95 109 -179 113 -187 3 -7 44 -74 90 -148 190 -304 294 -488 410 -725 420 -859 535 -1664 351 -2461 -63 -271 -170 -530 -328 -794 -296 -494 -816 -1014 -1512 -1511 -176 -126 -473 -329 -481 -329 -2 0 -26 -15 -52 -33 -82 -58 -736 -462 -1135 -703 -81 -48 -95 -57 -287 -176 -102 -62 -264 -160 -360 -217 -96 -57 -187 -112 -202 -122 -33 -23 -40 -14 -28 32 6 19 33 129 61 244 27 116 63 264 79 330 16 66 43 176 59 245 16 69 53 220 81 335 28 116 65 266 81 335 35 149 76 316 129 535 22 88 55 225 74 305 19 80 51 213 71 295 20 83 54 224 76 315 21 91 43 181 49 200 9 36 53 217 134 555 83 346 136 568 171 710 32 132 82 336 139 575 14 58 45 189 70 293 26 103 66 271 92 375 25 103 56 234 70 292 24 102 64 265 199 825 36 149 72 297 80 330 17 72 111 462 188 780 31 127 72 298 92 380 19 83 39 166 45 185 6 19 22 85 36 145 14 61 49 209 79 330 29 121 59 247 66 280 11 52 24 85 34 85 2 0 31 -46 65 -102z m-1220 -168 c-6 -19 -28 -109 -49 -200 -49 -206 -166 -688 -296 -1225 -13 -55 -38 -158 -55 -230 -17 -71 -49 -202 -70 -290 -21 -88 -53 -218 -70 -290 -174 -726 -155 -666 -290 -935 -299 -599 -662 -1021 -1165 -1357 -495 -331 -1075 -483 -1838 -483 -602 0 -1250 91 -2164 305 -35 8 -91 21 -125 29 -35 8 -184 44 -333 80 -553 135 -761 184 -783 188 -37 5 -27 21 35 58 32 20 146 89 253 155 107 65 220 134 250 152 46 29 188 115 667 407 26 17 116 71 198 122 83 50 242 148 355 216 113 69 275 168 360 220 443 271 622 380 790 483 102 62 268 163 370 225 102 62 209 128 238 146 29 19 55 34 58 34 2 0 17 9 32 19 25 18 288 179 802 491 389 237 593 361 655 400 33 20 155 95 270 165 116 70 237 144 270 165 220 135 585 358 975 595 179 108 336 205 350 214 14 10 32 20 40 24 8 4 71 42 140 85 69 43 128 76 132 73 4 -4 3 -22 -2 -41z"/>
<path d="M10380 60470 c0 -5 5 -10 10 -10 6 0 10 5 10 10 0 6 -4 10 -10 10 -5 0 -10 -4 -10 -10z"/>
<path d="M17280 60470 c0 -5 5 -10 10 -10 6 0 10 5 10 10 0 6 -4 10 -10 10 -5 0 -10 -4 -10 -10z"/>
<path d="M24320 60390 c0 -5 5 -10 10 -10 6 0 10 5 10 10 0 6 -4 10 -10 10 -5 0 -10 -4 -10 -10z"/>
<path d="M9640 60370 c0 -5 5 -10 10 -10 6 0 10 5 10 10 0 6 -4 10 -10 10 -5 0 -10 -4 -10 -10z"/>
<path d="M9680 60370 c0 -5 5 -10 10 -10 6 0 10 5 10 10 0 6 -4 10 -10 10 -5 0 -10 -4 -10 -10z"/>
<path d="M9540 60350 c0 -5 5 -10 10 -10 6 0 10 5 10 10 0 6 -4 10 -10 10 -5 0 -10 -4 -10 -10z"/>
<path d="M9340 60290 c0 -5 9 -10 20 -10 11 0 20 5 20 10 0 6 -9 10 -20 10 -11 0 -20 -4 -20 -10z"/>
<path d="M9240 60250 c0 -5 5 -10 10 -10 6 0 10 5 10 10 0 6 -4 10 -10 10 -5 0 -10 -4 -10 -10z"/>
<path d="M25040 60190 c0 -5 5 -10 10 -10 6 0 10 5 10 10 0 6 -4 10 -10 10 -5 0 -10 -4 -10 -10z"/>
<path d="M8960 60130 c0 -5 5 -10 10 -10 6 0 10 5 10 10 0 6 -4 10 -10 10 -5 0 -10 -4 -10 -10z"/>
<path d="M8680 59950 c0 -5 5 -10 10 -10 6 0 10 5 10 10 0 6 -4 10 -10 10 -5 0 -10 -4 -10 -10z"/>
<path d="M25640 59770 c0 -5 5 -10 10 -10 6 0 10 5 10 10 0 6 -4 10 -10 10 -5 0 -10 -4 -10 -10z"/>
<path d="M8100 59105 c0 -8 5 -15 10 -15 6 0 10 7 10 15 0 8 -4 15 -10 15 -5 0 -10 -7 -10 -15z"/>
<path d="M26060 59050 c0 -5 5 -10 10 -10 6 0 10 5 10 10 0 6 -4 10 -10 10 -5 0 -10 -4 -10 -10z"/>
<path d="M26140 58670 c0 -5 5 -10 10 -10 6 0 10 5 10 10 0 6 -4 10 -10 10 -5 0 -10 -4 -10 -10z"/>
<path d="M26160 58530 c0 -5 5 -10 10 -10 6 0 10 5 10 10 0 6 -4 10 -10 10 -5 0 -10 -4 -10 -10z"/>
<path d="M8000 58110 c0 -5 5 -10 10 -10 6 0 10 5 10 10 0 6 -4 10 -10 10 -5 0 -10 -4 -10 -10z"/>
<path d="M8060 57810 c0 -5 5 -10 10 -10 6 0 10 5 10 10 0 6 -4 10 -10 10 -5 0 -10 -4 -10 -10z"/>
<path d="M26040 57670 c0 -5 5 -10 10 -10 6 0 10 5 10 10 0 6 -4 10 -10 10 -5 0 -10 -4 -10 -10z"/>
<path d="M8180 57470 c0 -5 5 -10 10 -10 6 0 10 5 10 10 0 6 -4 10 -10 10 -5 0 -10 -4 -10 -10z"/>
<path d="M25640 56990 c0 -5 5 -10 10 -10 6 0 10 5 10 10 0 6 -4 10 -10 10 -5 0 -10 -4 -10 -10z"/>
<path d="M25600 56950 c0 -5 5 -10 10 -10 6 0 10 5 10 10 0 6 -4 10 -10 10 -5 0 -10 -4 -10 -10z"/>
<path d="M25560 56910 c0 -5 5 -10 10 -10 6 0 10 5 10 10 0 6 -4 10 -10 10 -5 0 -10 -4 -10 -10z"/>
<path d="M8700 56810 c0 -5 5 -10 10 -10 6 0 10 5 10 10 0 6 -4 10 -10 10 -5 0 -10 -4 -10 -10z"/>
<path d="M25440 56810 c0 -5 5 -10 10 -10 6 0 10 5 10 10 0 6 -4 10 -10 10 -5 0 -10 -4 -10 -10z"/>
<path d="M8780 56750 c0 -5 5 -10 10 -10 6 0 10 5 10 10 0 6 -4 10 -10 10 -5 0 -10 -4 -10 -10z"/>
<path d="M9060 56590 c0 -5 5 -10 10 -10 6 0 10 5 10 10 0 6 -4 10 -10 10 -5 0 -10 -4 -10 -10z"/>
<path d="M24980 56550 c0 -5 5 -10 10 -10 6 0 10 5 10 10 0 6 -4 10 -10 10 -5 0 -10 -4 -10 -10z"/>
<path d="M9420 56450 c0 -5 5 -10 10 -10 6 0 10 5 10 10 0 6 -4 10 -10 10 -5 0 -10 -4 -10 -10z"/>
<path d="M24640 56430 c0 -5 5 -10 10 -10 6 0 10 5 10 10 0 6 -4 10 -10 10 -5 0 -10 -4 -10 -10z"/>
<path d="M9680 56390 c0 -5 5 -10 10 -10 6 0 10 5 10 10 0 6 -4 10 -10 10 -5 0 -10 -4 -10 -10z"/>
<path d="M9920 56350 c0 -5 5 -10 10 -10 6 0 10 5 10 10 0 6 -4 10 -10 10 -5 0 -10 -4 -10 -10z"/>
<path d="M24140 56350 c0 -5 5 -10 10 -10 6 0 10 5 10 10 0 6 -4 10 -10 10 -5 0 -10 -4 -10 -10z"/>
<path d="M24220 56350 c0 -5 9 -10 20 -10 11 0 20 5 20 10 0 6 -9 10 -20 10 -11 0 -20 -4 -20 -10z"/>
<path d="M9970 56330 c0 -5 5 -10 10 -10 6 0 10 5 10 10 0 6 -4 10 -10 10 -5 0 -10 -4 -10 -10z"/>
<path d="M24180 56330 c0 -5 5 -10 10 -10 6 0 10 5 10 10 0 6 -4 10 -10 10 -5 0 -10 -4 -10 -10z"/>
<path d="M23480 56290 c0 -5 9 -10 20 -10 11 0 20 5 20 10 0 6 -9 10 -20 10 -11 0 -20 -4 -20 -10z"/>
<path d="M48485 42230 c-3 -5 -1 -10 4 -10 6 0 11 5 11 10 0 6 -2 10 -4 10 -3 0 -8 -4 -11 -10z"/>
<path d="M35340 41031 c0 -5 20 -24 44 -41 50 -34 75 -41 36 -9 -57 45 -80 60 -80 50z"/>
<path d="M35634 40821 c20 -22 26 -25 26 -13 0 4 -10 13 -22 21 l-23 14 19 -22z"/>
<path d="M14980 40010 c0 -5 5 -10 10 -10 6 0 10 5 10 10 0 6 -4 10 -10 10 -5 0 -10 -4 -10 -10z"/>
<path d="M14920 39970 c0 -5 5 -10 10 -10 6 0 10 5 10 10 0 6 -4 10 -10 10 -5 0 -10 -4 -10 -10z"/>
<path d="M19160 39970 c0 -5 5 -10 10 -10 6 0 10 5 10 10 0 6 -4 10 -10 10 -5 0 -10 -4 -10 -10z"/>
<path d="M10160 39950 c0 -5 5 -10 10 -10 6 0 10 5 10 10 0 6 -4 10 -10 10 -5 0 -10 -4 -10 -10z"/>
<path d="M10220 39950 c0 -5 5 -10 10 -10 6 0 10 5 10 10 0 6 -4 10 -10 10 -5 0 -10 -4 -10 -10z"/>
<path d="M23920 39950 c0 -5 5 -10 10 -10 6 0 10 5 10 10 0 6 -4 10 -10 10 -5 0 -10 -4 -10 -10z"/>
<path d="M23980 39950 c0 -5 5 -10 10 -10 6 0 10 5 10 10 0 6 -4 10 -10 10 -5 0 -10 -4 -10 -10z"/>
<path d="M10080 39930 c0 -5 5 -10 10 -10 6 0 10 5 10 10 0 6 -4 10 -10 10 -5 0 -10 -4 -10 -10z"/>
<path d="M24100 39930 c0 -5 5 -10 10 -10 6 0 10 5 10 10 0 6 -4 10 -10 10 -5 0 -10 -4 -10 -10z"/>
<path d="M9660 39870 c0 -5 5 -10 10 -10 6 0 10 5 10 10 0 6 -4 10 -10 10 -5 0 -10 -4 -10 -10z"/>
<path d="M24480 39870 c0 -5 5 -10 10 -10 6 0 10 5 10 10 0 6 -4 10 -10 10 -5 0 -10 -4 -10 -10z"/>
<path d="M9580 39850 c0 -5 5 -10 10 -10 6 0 10 5 10 10 0 6 -4 10 -10 10 -5 0 -10 -4 -10 -10z"/>
<path d="M9500 39830 c0 -5 5 -10 10 -10 6 0 10 5 10 10 0 6 -4 10 -10 10 -5 0 -10 -4 -10 -10z"/>
<path d="M9420 39810 c0 -5 5 -10 10 -10 6 0 10 5 10 10 0 6 -4 10 -10 10 -5 0 -10 -4 -10 -10z"/>
<path d="M24800 39790 c0 -5 5 -10 10 -10 6 0 10 5 10 10 0 6 -4 10 -10 10 -5 0 -10 -4 -10 -10z"/>
<path d="M24840 39770 c0 -5 5 -10 10 -10 6 0 10 5 10 10 0 6 -4 10 -10 10 -5 0 -10 -4 -10 -10z"/>
<path d="M36985 39770 c3 -5 8 -10 11 -10 2 0 4 5 4 10 0 6 -5 10 -11 10 -5 0 -7 -4 -4 -10z"/>
<path d="M37220 39578 c0 -3 14 -17 30 -33 17 -16 30 -24 30 -18 0 7 -13 21 -30 33 -16 12 -30 20 -30 18z"/>
<path d="M37560 39272 c0 -8 25 -33 63 -61 36 -28 15 7 -23 38 -22 17 -40 28 -40 23z"/>
<path d="M8260 38950 c0 -5 5 -10 10 -10 6 0 10 5 10 10 0 6 -4 10 -10 10 -5 0 -10 -4 -10 -10z"/>
<path d="M25937 38854 c6 -15 23 -19 23 -5 0 5 -7 11 -14 14 -10 4 -13 1 -9 -9z"/>
<path d="M25960 38790 c0 -5 5 -10 10 -10 6 0 10 5 10 10 0 6 -4 10 -10 10 -5 0 -10 -4 -10 -10z"/>
<path d="M38360 38505 c113 -113 209 -205 215 -205 5 0 -82 92 -195 205 -113 113 -209 205 -215 205 -5 0 82 -92 195 -205z"/>
<path d="M8060 38470 c0 -5 5 -10 10 -10 6 0 10 5 10 10 0 6 -4 10 -10 10 -5 0 -10 -4 -10 -10z"/>
<path d="M26120 38263 c1 -23 28 -59 37 -50 4 4 1 13 -5 19 -7 7 -12 20 -12 30 0 10 -4 18 -10 18 -5 0 -10 -8 -10 -17z"/>
<path d="M7980 38010 c0 -5 5 -10 10 -10 6 0 10 5 10 10 0 6 -4 10 -10 10 -5 0 -10 -4 -10 -10z"/>
<path d="M8000 37620 c0 -11 5 -20 10 -20 6 0 10 9 10 20 0 11 -4 20 -10 20 -5 0 -10 -9 -10 -20z"/>
<path d="M8040 37370 c0 -5 5 -10 10 -10 6 0 10 5 10 10 0 6 -4 10 -10 10 -5 0 -10 -4 -10 -10z"/>
<path d="M8140 37070 c0 -5 5 -10 10 -10 6 0 10 5 10 10 0 6 -4 10 -10 10 -5 0 -10 -4 -10 -10z"/>
<path d="M25730 36605 c-7 -9 -10 -18 -7 -22 8 -7 37 15 37 28 0 14 -16 11 -30 -6z"/>
<path d="M8740 36290 c0 -5 5 -10 10 -10 6 0 10 5 10 10 0 6 -4 10 -10 10 -5 0 -10 -4 -10 -10z"/>
<path d="M25180 36150 c0 -5 5 -10 10 -10 6 0 10 5 10 10 0 6 -4 10 -10 10 -5 0 -10 -4 -10 -10z"/>
<path d="M25100 36110 c0 -5 5 -10 10 -10 6 0 10 5 10 10 0 6 -4 10 -10 10 -5 0 -10 -4 -10 -10z"/>
<path d="M9060 36090 c0 -5 5 -10 10 -10 6 0 10 5 10 10 0 6 -4 10 -10 10 -5 0 -10 -4 -10 -10z"/>
<path d="M24900 36030 c0 -5 5 -10 10 -10 6 0 10 5 10 10 0 6 -4 10 -10 10 -5 0 -10 -4 -10 -10z"/>
<path d="M24780 35990 c0 -5 5 -10 10 -10 6 0 10 5 10 10 0 6 -4 10 -10 10 -5 0 -10 -4 -10 -10z"/>
<path d="M24680 35950 c0 -5 5 -10 10 -10 6 0 10 5 10 10 0 6 -4 10 -10 10 -5 0 -10 -4 -10 -10z"/>
<path d="M9640 35910 c0 -5 5 -10 10 -10 6 0 10 5 10 10 0 6 -4 10 -10 10 -5 0 -10 -4 -10 -10z"/>
<path d="M10360 35830 c0 -5 5 -10 10 -10 6 0 10 5 10 10 0 6 -4 10 -10 10 -5 0 -10 -4 -10 -10z"/>
<path d="M23780 35830 c0 -5 5 -10 10 -10 6 0 10 5 10 10 0 6 -4 10 -10 10 -5 0 -10 -4 -10 -10z"/>
<path d="M23820 35810 c0 -5 5 -10 10 -10 6 0 10 5 10 10 0 6 -4 10 -10 10 -5 0 -10 -4 -10 -10z"/>
<path d="M21200 30510 c0 -5 5 -10 10 -10 6 0 10 5 10 10 0 6 -4 10 -10 10 -5 0 -10 -4 -10 -10z"/>
<path d="M21250 30505 c-7 -9 -10 -18 -7 -22 8 -7 37 15 37 28 0 14 -16 11 -30 -6z"/>
<path d="M35580 30510 c0 -5 5 -10 10 -10 6 0 10 5 10 10 0 6 -4 10 -10 10 -5 0 -10 -4 -10 -10z"/>
<path d="M51840 30510 c0 -5 5 -10 10 -10 6 0 10 5 10 10 0 6 -4 10 -10 10 -5 0 -10 -4 -10 -10z"/>
<path d="M51900 30510 c0 -5 5 -10 10 -10 6 0 10 5 10 10 0 6 -4 10 -10 10 -5 0 -10 -4 -10 -10z"/>
<path d="M6860 30470 c0 -5 5 -10 10 -10 6 0 10 5 10 10 0 6 -4 10 -10 10 -5 0 -10 -4 -10 -10z"/>
<path d="M27800 30471 c0 -13 29 -35 37 -28 7 8 -15 37 -28 37 -5 0 -9 -4 -9 -9z"/>
<path d="M27860 30470 c0 -5 5 -10 10 -10 6 0 10 5 10 10 0 6 -4 10 -10 10 -5 0 -10 -4 -10 -10z"/>
<path d="M49000 30470 c0 -5 5 -10 10 -10 6 0 10 5 10 10 0 6 -4 10 -10 10 -5 0 -10 -4 -10 -10z"/>
<path d="M54400 30471 c0 -13 29 -35 37 -28 7 8 -15 37 -28 37 -5 0 -9 -4 -9 -9z"/>
<path d="M54460 30470 c0 -5 5 -10 10 -10 6 0 10 5 10 10 0 6 -4 10 -10 10 -5 0 -10 -4 -10 -10z"/>
<path d="M6610 30425 c-7 -9 -10 -18 -7 -22 8 -7 37 15 37 28 0 14 -16 11 -30 -6z"/>
<path d="M40720 30431 c0 -13 29 -35 37 -28 7 8 -15 37 -28 37 -5 0 -9 -4 -9 -9z"/>
<path d="M34840 30410 c0 -5 5 -10 10 -10 6 0 10 5 10 10 0 6 -4 10 -10 10 -5 0 -10 -4 -10 -10z"/>
<path d="M34880 30410 c0 -5 5 -10 10 -10 6 0 10 5 10 10 0 6 -4 10 -10 10 -5 0 -10 -4 -10 -10z"/>
<path d="M6440 30390 c0 -5 5 -10 10 -10 6 0 10 5 10 10 0 6 -4 10 -10 10 -5 0 -10 -4 -10 -10z"/>
<path d="M6360 30370 c0 -5 5 -10 10 -10 6 0 10 5 10 10 0 6 -4 10 -10 10 -5 0 -10 -4 -10 -10z"/>
<path d="M41080 30350 c0 -5 5 -10 10 -10 6 0 10 5 10 10 0 6 -4 10 -10 10 -5 0 -10 -4 -10 -10z"/>
<path d="M6240 30330 c0 -5 9 -10 20 -10 11 0 20 5 20 10 0 6 -9 10 -20 10 -11 0 -20 -4 -20 -10z"/>
<path d="M34540 30330 c0 -5 9 -10 20 -10 11 0 20 5 20 10 0 6 -9 10 -20 10 -11 0 -20 -4 -20 -10z"/>
<path d="M48420 30330 c0 -5 9 -10 20 -10 11 0 20 5 20 10 0 6 -9 10 -20 10 -11 0 -20 -4 -20 -10z"/>
<path d="M28600 30311 c0 -13 29 -35 37 -28 7 8 -15 37 -28 37 -5 0 -9 -4 -9 -9z"/>
<path d="M55200 30311 c0 -13 29 -35 37 -28 7 8 -15 37 -28 37 -5 0 -9 -4 -9 -9z"/>
<path d="M20120 30290 c0 -5 5 -10 10 -10 6 0 10 5 10 10 0 6 -4 10 -10 10 -5 0 -10 -4 -10 -10z"/>
<path d="M34440 30290 c0 -5 5 -10 10 -10 6 0 10 5 10 10 0 6 -4 10 -10 10 -5 0 -10 -4 -10 -10z"/>
<path d="M48280 30290 c0 -5 5 -10 10 -10 6 0 10 5 10 10 0 6 -4 10 -10 10 -5 0 -10 -4 -10 -10z"/>
<path d="M28737 30253 c6 -14 43 -18 43 -4 0 5 -11 11 -24 13 -17 4 -23 1 -19 -9z"/>
<path d="M55337 30253 c6 -14 43 -18 43 -4 0 5 -11 11 -24 13 -17 4 -23 1 -19 -9z"/>
<path d="M48180 30250 c0 -5 5 -10 10 -10 6 0 10 5 10 10 0 6 -4 10 -10 10 -5 0 -10 -4 -10 -10z"/>
<path d="M41440 30231 c0 -13 29 -35 37 -28 7 8 -15 37 -28 37 -5 0 -9 -4 -9 -9z"/>
<path d="M5960 30210 c0 -5 5 -10 10 -10 6 0 10 5 10 10 0 6 -4 10 -10 10 -5 0 -10 -4 -10 -10z"/>
<path d="M41520 30191 c0 -13 29 -35 37 -28 7 8 -15 37 -28 37 -5 0 -9 -4 -9 -9z"/>
<path d="M5880 30170 c0 -5 5 -10 10 -10 6 0 10 5 10 10 0 6 -4 10 -10 10 -5 0 -10 -4 -10 -10z"/>
<path d="M34160 30170 c0 -5 5 -10 10 -10 6 0 10 5 10 10 0 6 -4 10 -10 10 -5 0 -10 -4 -10 -10z"/>
<path d="M5620 30010 c0 -5 5 -10 10 -10 6 0 10 5 10 10 0 6 -4 10 -10 10 -5 0 -10 -4 -10 -10z"/>
<path d="M29220 29990 c0 -5 5 -10 10 -10 6 0 10 5 10 10 0 6 -4 10 -10 10 -5 0 -10 -4 -10 -10z"/>
<path d="M33880 29990 c0 -5 5 -10 10 -10 6 0 10 5 10 10 0 6 -4 10 -10 10 -5 0 -10 -4 -10 -10z"/>
<path d="M55820 29991 c0 -13 29 -35 37 -28 7 8 -15 37 -28 37 -5 0 -9 -4 -9 -9z"/>
<path d="M29480 29730 c0 -5 5 -10 10 -10 6 0 10 5 10 10 0 6 -4 10 -10 10 -5 0 -10 -4 -10 -10z"/>
<path d="M56080 29731 c0 -13 29 -35 37 -28 7 8 -15 37 -28 37 -5 0 -9 -4 -9 -9z"/>
<path d="M19200 29570 c0 -5 5 -10 10 -10 6 0 10 5 10 10 0 6 -4 10 -10 10 -5 0 -10 -4 -10 -10z"/>
<path d="M5180 29510 c0 -5 5 -10 10 -10 6 0 10 5 10 10 0 6 -4 10 -10 10 -5 0 -10 -4 -10 -10z"/>
<path d="M42297 29454 c6 -15 23 -19 23 -5 0 5 -7 11 -14 14 -10 4 -13 1 -9 -9z"/>
<path d="M56280 29448 c1 -16 28 -53 35 -47 6 7 -18 59 -27 59 -5 0 -8 -6 -8 -12z"/>
<path d="M47257 29426 c-4 -10 -1 -13 9 -9 7 3 14 9 14 14 0 14 -17 10 -23 -5z"/>
<path d="M29737 29334 c6 -15 23 -19 23 -5 0 5 -7 11 -14 14 -10 4 -13 1 -9 -9z"/>
<path d="M56340 29330 c0 -5 5 -10 10 -10 6 0 10 5 10 10 0 6 -4 10 -10 10 -5 0 -10 -4 -10 -10z"/>
<path d="M29760 29270 c0 -5 5 -10 10 -10 6 0 10 5 10 10 0 6 -4 10 -10 10 -5 0 -10 -4 -10 -10z"/>
<path d="M56360 29270 c0 -5 5 -10 10 -10 6 0 10 5 10 10 0 6 -4 10 -10 10 -5 0 -10 -4 -10 -10z"/>
<path d="M33340 29250 c0 -5 5 -10 10 -10 6 0 10 5 10 10 0 6 -4 10 -10 10 -5 0 -10 -4 -10 -10z"/>
<path d="M19020 29210 c0 -5 5 -10 10 -10 6 0 10 5 10 10 0 6 -4 10 -10 10 -5 0 -10 -4 -10 -10z"/>
<path d="M29800 29170 c0 -5 5 -10 10 -10 6 0 10 5 10 10 0 6 -4 10 -10 10 -5 0 -10 -4 -10 -10z"/>
<path d="M56400 29161 c0 -19 26 -48 35 -39 6 6 -18 58 -27 58 -5 0 -8 -8 -8 -19z"/>
<path d="M29820 29130 c0 -5 5 -10 10 -10 6 0 10 5 10 10 0 6 -4 10 -10 10 -5 0 -10 -4 -10 -10z"/>
<path d="M33300 29130 c0 -5 5 -10 10 -10 6 0 10 5 10 10 0 6 -4 10 -10 10 -5 0 -10 -4 -10 -10z"/>
<path d="M4980 29025 c0 -8 5 -15 10 -15 6 0 10 7 10 15 0 8 -4 15 -10 15 -5 0 -10 -7 -10 -15z"/>
<path d="M47100 29020 c0 -11 5 -20 10 -20 6 0 10 9 10 20 0 11 -4 20 -10 20 -5 0 -10 -9 -10 -20z"/>
<path d="M18900 28810 c0 -5 5 -10 10 -10 6 0 10 5 10 10 0 6 -4 10 -10 10 -5 0 -10 -4 -10 -10z"/>
<path d="M47060 28810 c0 -5 5 -10 10 -10 6 0 10 5 10 10 0 6 -4 10 -10 10 -5 0 -10 -4 -10 -10z"/>
<path d="M29900 28790 c0 -5 5 -10 10 -10 6 0 10 5 10 10 0 6 -4 10 -10 10 -5 0 -10 -4 -10 -10z"/>
<path d="M18900 28730 c0 -5 5 -10 10 -10 6 0 10 5 10 10 0 6 -4 10 -10 10 -5 0 -10 -4 -10 -10z"/>
<path d="M18900 28690 c0 -5 5 -10 10 -10 6 0 10 5 10 10 0 6 -4 10 -10 10 -5 0 -10 -4 -10 -10z"/>
<path d="M42540 28670 c0 -5 5 -10 10 -10 6 0 10 5 10 10 0 6 -4 10 -10 10 -5 0 -10 -4 -10 -10z"/>
<path d="M18880 28630 c0 -5 5 -10 10 -10 6 0 10 5 10 10 0 6 -4 10 -10 10 -5 0 -10 -4 -10 -10z"/>
<path d="M4900 28490 c0 -5 5 -10 10 -10 6 0 10 5 10 10 0 6 -4 10 -10 10 -5 0 -10 -4 -10 -10z"/>
<path d="M42540 28190 c0 -5 5 -10 10 -10 6 0 10 5 10 10 0 6 -4 10 -10 10 -5 0 -10 -4 -10 -10z"/>
<path d="M56520 28180 c0 -5 5 -10 10 -10 6 0 10 5 10 10 0 6 -4 10 -10 10 -5 0 -10 -4 -10 -10z"/>
<path d="M14000 28170 c0 -5 5 -10 10 -10 6 0 10 5 10 10 0 6 -4 10 -10 10 -5 0 -10 -4 -10 -10z"/>
<path d="M18900 28150 c0 -5 5 -10 10 -10 6 0 10 5 10 10 0 6 -4 10 -10 10 -5 0 -10 -4 -10 -10z"/>
<path d="M42520 28090 c0 -5 5 -10 10 -10 6 0 10 5 10 10 0 6 -4 10 -10 10 -5 0 -10 -4 -10 -10z"/>
<path d="M4940 27970 c0 -5 5 -10 10 -10 6 0 10 5 10 10 0 6 -4 10 -10 10 -5 0 -10 -4 -10 -10z"/>
<path d="M18940 27890 c0 -5 5 -10 10 -10 6 0 10 5 10 10 0 6 -4 10 -10 10 -5 0 -10 -4 -10 -10z"/>
<path d="M14280 27730 c0 -5 5 -10 10 -10 6 0 10 5 10 10 0 6 -4 10 -10 10 -5 0 -10 -4 -10 -10z"/>
<path d="M19020 27630 c0 -5 5 -10 10 -10 6 0 10 5 10 10 0 6 -4 10 -10 10 -5 0 -10 -4 -10 -10z"/>
<path d="M5140 27410 c0 -5 5 -10 10 -10 6 0 10 5 10 10 0 6 -4 10 -10 10 -5 0 -10 -4 -10 -10z"/>
<path d="M33460 27370 c0 -5 5 -10 10 -10 6 0 10 5 10 10 0 6 -4 10 -10 10 -5 0 -10 -4 -10 -10z"/>
<path d="M47300 27370 c0 -5 5 -10 10 -10 6 0 10 5 10 10 0 6 -4 10 -10 10 -5 0 -10 -4 -10 -10z"/>
<path d="M42180 27250 c0 -5 5 -10 10 -10 6 0 10 5 10 10 0 6 -4 10 -10 10 -5 0 -10 -4 -10 -10z"/>
<path d="M19240 27210 c0 -5 5 -10 10 -10 6 0 10 5 10 10 0 6 -4 10 -10 10 -5 0 -10 -4 -10 -10z"/>
<path d="M33560 27210 c0 -5 5 -10 10 -10 6 0 10 5 10 10 0 6 -4 10 -10 10 -5 0 -10 -4 -10 -10z"/>
<path d="M47400 27210 c0 -5 5 -10 10 -10 6 0 10 5 10 10 0 6 -4 10 -10 10 -5 0 -10 -4 -10 -10z"/>
<path d="M56000 27030 c0 -5 5 -10 10 -10 6 0 10 5 10 10 0 6 -4 10 -10 10 -5 0 -10 -4 -10 -10z"/>
<path d="M55960 26990 c0 -5 5 -10 10 -10 6 0 10 5 10 10 0 6 -4 10 -10 10 -5 0 -10 -4 -10 -10z"/>
<path d="M55920 26950 c0 -5 5 -10 10 -10 6 0 10 5 10 10 0 6 -4 10 -10 10 -5 0 -10 -4 -10 -10z"/>
<path d="M41800 26850 c0 -5 5 -10 10 -10 6 0 10 5 10 10 0 6 -4 10 -10 10 -5 0 -10 -4 -10 -10z"/>
<path d="M5660 26810 c0 -5 5 -10 10 -10 6 0 10 5 10 10 0 6 -4 10 -10 10 -5 0 -10 -4 -10 -10z"/>
<path d="M19700 26770 c0 -5 5 -10 10 -10 6 0 10 5 10 10 0 6 -4 10 -10 10 -5 0 -10 -4 -10 -10z"/>
<path d="M34020 26770 c0 -5 5 -10 10 -10 6 0 10 5 10 10 0 6 -4 10 -10 10 -5 0 -10 -4 -10 -10z"/>
<path d="M19812 26700 c7 -11 16 -20 20 -20 15 0 8 15 -12 28 -19 12 -20 11 -8 -8z"/>
<path d="M34140 26690 c0 -5 5 -10 10 -10 6 0 10 5 10 10 0 6 -4 10 -10 10 -5 0 -10 -4 -10 -10z"/>
<path d="M48070 26632 c0 -11 41 -34 48 -28 3 4 -3 13 -14 21 -21 16 -34 19 -34 7z"/>
<path d="M55340 26590 c0 -5 5 -10 10 -10 6 0 10 5 10 10 0 6 -4 10 -10 10 -5 0 -10 -4 -10 -10z"/>
<path d="M48220 26550 c0 -5 5 -10 10 -10 6 0 10 5 10 10 0 6 -4 10 -10 10 -5 0 -10 -4 -10 -10z"/>
<path d="M55240 26550 c0 -5 5 -10 10 -10 6 0 10 5 10 10 0 6 -4 10 -10 10 -5 0 -10 -4 -10 -10z"/>
<path d="M28580 26510 c0 -5 5 -10 10 -10 6 0 10 5 10 10 0 6 -4 10 -10 10 -5 0 -10 -4 -10 -10z"/>
<path d="M55120 26510 c0 -5 5 -10 10 -10 6 0 10 5 10 10 0 6 -4 10 -10 10 -5 0 -10 -4 -10 -10z"/>
<path d="M20400 26470 c0 -5 5 -10 10 -10 6 0 10 5 10 10 0 6 -4 10 -10 10 -5 0 -10 -4 -10 -10z"/>
<path d="M48380 26471 c0 -5 7 -11 14 -14 10 -4 13 -1 9 9 -6 15 -23 19 -23 5z"/>
<path d="M55000 26470 c0 -5 5 -10 10 -10 6 0 10 5 10 10 0 6 -4 10 -10 10 -5 0 -10 -4 -10 -10z"/>
<path d="M20560 26430 c0 -5 5 -10 10 -10 6 0 10 5 10 10 0 6 -4 10 -10 10 -5 0 -10 -4 -10 -10z"/>
<path d="M34840 26430 c0 -5 5 -10 10 -10 6 0 10 5 10 10 0 6 -4 10 -10 10 -5 0 -10 -4 -10 -10z"/>
<path d="M28100 26390 c0 -5 5 -10 10 -10 6 0 10 5 10 10 0 6 -4 10 -10 10 -5 0 -10 -4 -10 -10z"/>
<path d="M28160 26390 c0 -5 5 -10 10 -10 6 0 10 5 10 10 0 6 -4 10 -10 10 -5 0 -10 -4 -10 -10z"/>
<path d="M54580 26390 c0 -5 5 -10 10 -10 6 0 10 5 10 10 0 6 -4 10 -10 10 -5 0 -10 -4 -10 -10z"/>
<path d="M54620 26390 c0 -5 5 -10 10 -10 6 0 10 5 10 10 0 6 -4 10 -10 10 -5 0 -10 -4 -10 -10z"/>
<path d="M20910 26370 c0 -5 7 -10 15 -10 8 0 15 5 15 10 0 6 -7 10 -15 10 -8 0 -15 -4 -15 -10z"/>
<path d="M28000 26370 c0 -5 5 -10 10 -10 6 0 10 5 10 10 0 6 -4 10 -10 10 -5 0 -10 -4 -10 -10z"/>
<path d="M21520 26350 c0 -5 5 -10 10 -10 6 0 10 5 10 10 0 6 -4 10 -10 10 -5 0 -10 -4 -10 -10z"/>
<path d="M27500 26350 c0 -5 5 -10 10 -10 6 0 10 5 10 10 0 6 -4 10 -10 10 -5 0 -10 -4 -10 -10z"/>
<path d="M27760 26350 c0 -5 5 -10 10 -10 6 0 10 5 10 10 0 6 -4 10 -10 10 -5 0 -10 -4 -10 -10z"/>
<path d="M27820 26350 c0 -5 5 -10 10 -10 6 0 10 5 10 10 0 6 -4 10 -10 10 -5 0 -10 -4 -10 -10z"/>
<path d="M35720 26351 c0 -13 29 -35 37 -28 7 8 -15 37 -28 37 -5 0 -9 -4 -9 -9z"/>
<path d="M48660 26350 c0 -5 5 -10 10 -10 6 0 10 5 10 10 0 6 -4 10 -10 10 -5 0 -10 -4 -10 -10z"/>
<path d="M7560 26330 c0 -5 5 -10 10 -10 6 0 10 5 10 10 0 6 -4 10 -10 10 -5 0 -10 -4 -10 -10z"/>
<path d="M27540 26330 c0 -5 5 -10 10 -10 6 0 10 5 10 10 0 6 -4 10 -10 10 -5 0 -10 -4 -10 -10z"/>
<path d="M40920 26330 c0 -5 5 -10 10 -10 6 0 10 5 10 10 0 6 -4 10 -10 10 -5 0 -10 -4 -10 -10z"/>
<path d="M53880 26330 c0 -5 5 -10 10 -10 6 0 10 5 10 10 0 6 -4 10 -10 10 -5 0 -10 -4 -10 -10z"/>
<path d="M53940 26330 c0 -5 5 -10 10 -10 6 0 10 5 10 10 0 6 -4 10 -10 10 -5 0 -10 -4 -10 -10z"/>
<path d="M8340 26300 c0 -11 5 -20 10 -20 6 0 10 9 10 20 0 11 -4 20 -10 20 -5 0 -10 -9 -10 -20z"/>
<path d="M23180 26300 c0 -11 5 -20 10 -20 6 0 10 9 10 20 0 11 -4 20 -10 20 -5 0 -10 -9 -10 -20z"/>
<path d="M27360 26310 c0 -5 5 -10 10 -10 6 0 10 5 10 10 0 6 -4 10 -10 10 -5 0 -10 -4 -10 -10z"/>
<path d="M35860 26310 c0 -5 5 -10 10 -10 6 0 10 5 10 10 0 6 -4 10 -10 10 -5 0 -10 -4 -10 -10z"/>
<path d="M27360 26250 c0 -5 5 -10 10 -10 6 0 10 5 10 10 0 6 -4 10 -10 10 -5 0 -10 -4 -10 -10z"/>
<path d="M41120 26010 c0 -5 5 -10 10 -10 6 0 10 5 10 10 0 6 -4 10 -10 10 -5 0 -10 -4 -10 -10z"/>
<path d="M48260 25650 c0 -5 5 -10 10 -10 6 0 10 5 10 10 0 6 -4 10 -10 10 -5 0 -10 -4 -10 -10z"/>
<path d="M36325 25630 c3 -5 8 -10 11 -10 2 0 4 5 4 10 0 6 -5 10 -11 10 -5 0 -7 -4 -4 -10z"/>
<path d="M15680 25530 c0 -5 5 -10 10 -10 6 0 10 5 10 10 0 6 -4 10 -10 10 -5 0 -10 -4 -10 -10z"/>
<path d="M36440 25470 c0 -5 5 -10 10 -10 6 0 10 5 10 10 0 6 -4 10 -10 10 -5 0 -10 -4 -10 -10z"/>
<path d="M36460 25430 c0 -5 5 -10 10 -10 6 0 10 5 10 10 0 6 -4 10 -10 10 -5 0 -10 -4 -10 -10z"/>
<path d="M36540 25310 c0 -5 5 -10 10 -10 6 0 10 5 10 10 0 6 -4 10 -10 10 -5 0 -10 -4 -10 -10z"/>
<path d="M41880 24890 c0 -5 5 -10 10 -10 6 0 10 5 10 10 0 6 -4 10 -10 10 -5 0 -10 -4 -10 -10z"/>
<path d="M41960 24770 c0 -5 5 -10 10 -10 6 0 10 5 10 10 0 6 -4 10 -10 10 -5 0 -10 -4 -10 -10z"/>
<path d="M16320 24530 c0 -5 5 -10 10 -10 6 0 10 5 10 10 0 6 -4 10 -10 10 -5 0 -10 -4 -10 -10z"/>
<path d="M37140 24430 c0 -5 5 -10 10 -10 6 0 10 5 10 10 0 6 -4 10 -10 10 -5 0 -10 -4 -10 -10z"/>
<path d="M42200 24410 c0 -5 5 -10 10 -10 6 0 10 5 10 10 0 6 -4 10 -10 10 -5 0 -10 -4 -10 -10z"/>
<path d="M37220 24310 c0 -5 5 -10 10 -10 6 0 10 5 10 10 0 6 -4 10 -10 10 -5 0 -10 -4 -10 -10z"/>
<path d="M47280 24170 c0 -5 5 -10 10 -10 6 0 10 5 10 10 0 6 -4 10 -10 10 -5 0 -10 -4 -10 -10z"/>
<path d="M37560 23810 c0 -5 5 -10 10 -10 6 0 10 5 10 10 0 6 -4 10 -10 10 -5 0 -10 -4 -10 -10z"/>
<path d="M42640 23770 c0 -5 5 -10 10 -10 6 0 10 5 10 10 0 6 -4 10 -10 10 -5 0 -10 -4 -10 -10z"/>
<path d="M42720 23650 c0 -5 5 -10 10 -10 6 0 10 5 10 10 0 6 -4 10 -10 10 -5 0 -10 -4 -10 -10z"/>
<path d="M37720 23590 c0 -5 5 -10 10 -10 6 0 10 5 10 10 0 6 -4 10 -10 10 -5 0 -10 -4 -10 -10z"/>
<path d="M42800 23530 c0 -5 5 -10 10 -10 6 0 10 5 10 10 0 6 -4 10 -10 10 -5 0 -10 -4 -10 -10z"/>
<path d="M37820 23430 c0 -5 5 -10 10 -10 6 0 10 5 10 10 0 6 -4 10 -10 10 -5 0 -10 -4 -10 -10z"/>
<path d="M46400 22850 c0 -5 5 -10 10 -10 6 0 10 5 10 10 0 6 -4 10 -10 10 -5 0 -10 -4 -10 -10z"/>
<path d="M43400 22650 c0 -5 5 -10 10 -10 6 0 10 5 10 10 0 6 -4 10 -10 10 -5 0 -10 -4 -10 -10z"/>
<path d="M12527 22594 c-4 -4 -4 -10 -1 -15 6 -10 34 0 34 12 0 10 -24 12 -33 3z"/>
<path d="M43480 22530 c0 -5 5 -10 10 -10 6 0 10 5 10 10 0 6 -4 10 -10 10 -5 0 -10 -4 -10 -10z"/>
<path d="M38500 22430 c0 -5 5 -10 10 -10 6 0 10 5 10 10 0 6 -4 10 -10 10 -5 0 -10 -4 -10 -10z"/>
<path d="M12780 22190 c0 -5 5 -10 10 -10 6 0 10 5 10 10 0 6 -4 10 -10 10 -5 0 -10 -4 -10 -10z"/>
<path d="M12860 22070 c0 -5 5 -10 10 -10 6 0 10 5 10 10 0 6 -4 10 -10 10 -5 0 -10 -4 -10 -10z"/>
<path d="M38840 21930 c0 -5 5 -10 10 -10 6 0 10 5 10 10 0 6 -4 10 -10 10 -5 0 -10 -4 -10 -10z"/>
<path d="M39100 21550 c0 -5 5 -10 10 -10 6 0 10 5 10 10 0 6 -4 10 -10 10 -5 0 -10 -4 -10 -10z"/>
<path d="M44240 21410 c0 -5 5 -10 10 -10 6 0 10 5 10 10 0 6 -4 10 -10 10 -5 0 -10 -4 -10 -10z"/>
<path d="M18360 21330 c0 -5 5 -10 10 -10 6 0 10 5 10 10 0 6 -4 10 -10 10 -5 0 -10 -4 -10 -10z"/>
<path d="M18640 20890 c0 -5 5 -10 10 -10 6 0 10 5 10 10 0 6 -4 10 -10 10 -5 0 -10 -4 -10 -10z"/>
<path d="M13700 20750 c0 -5 5 -10 10 -10 6 0 10 5 10 10 0 6 -4 10 -10 10 -5 0 -10 -4 -10 -10z"/>
<path d="M13780 20630 c0 -5 5 -10 10 -10 6 0 10 5 10 10 0 6 -4 10 -10 10 -5 0 -10 -4 -10 -10z"/>
<path d="M44900 20590 c0 -5 5 -10 10 -10 6 0 10 5 10 10 0 6 -4 10 -10 10 -5 0 -10 -4 -10 -10z"/>
<path d="M13820 20570 c0 -5 5 -10 10 -10 6 0 10 5 10 10 0 6 -4 10 -10 10 -5 0 -10 -4 -10 -10z"/>
<path d="M39780 20550 c0 -5 5 -10 10 -10 6 0 10 5 10 10 0 6 -4 10 -10 10 -5 0 -10 -4 -10 -10z"/>
<path d="M44820 20550 c0 -5 5 -10 10 -10 6 0 10 5 10 10 0 6 -4 10 -10 10 -5 0 -10 -4 -10 -10z"/>
<path d="M44855 20531 c-6 -11 9 -23 19 -14 9 9 7 23 -3 23 -6 0 -12 -4 -16 -9z"/>
<path d="M40380 19670 c0 -5 5 -10 10 -10 6 0 10 5 10 10 0 6 -4 10 -10 10 -5 0 -10 -4 -10 -10z"/>
<path d="M14700 19190 c0 -5 5 -10 10 -10 6 0 10 5 10 10 0 6 -4 10 -10 10 -5 0 -10 -4 -10 -10z"/>
<path d="M14740 19130 c0 -5 5 -10 10 -10 6 0 10 5 10 10 0 6 -4 10 -10 10 -5 0 -10 -4 -10 -10z"/>
<path d="M40960 18830 c0 -5 5 -10 10 -10 6 0 10 5 10 10 0 6 -4 10 -10 10 -5 0 -10 -4 -10 -10z"/>
<path d="M41060 18670 c0 -5 5 -10 10 -10 6 0 10 5 10 10 0 6 -4 10 -10 10 -5 0 -10 -4 -10 -10z"/>
<path d="M20420 18090 c0 -5 5 -10 10 -10 6 0 10 5 10 10 0 6 -4 10 -10 10 -5 0 -10 -4 -10 -10z"/>
<path d="M41660 17790 c0 -5 5 -10 10 -10 6 0 10 5 10 10 0 6 -4 10 -10 10 -5 0 -10 -4 -10 -10z"/>
<path d="M15620 17750 c0 -5 5 -10 10 -10 6 0 10 5 10 10 0 6 -4 10 -10 10 -5 0 -10 -4 -10 -10z"/>
<path d="M15660 17690 c0 -5 5 -10 10 -10 6 0 10 5 10 10 0 6 -4 10 -10 10 -5 0 -10 -4 -10 -10z"/>
<path d="M20680 17690 c0 -5 5 -10 10 -10 6 0 10 5 10 10 0 6 -4 10 -10 10 -5 0 -10 -4 -10 -10z"/>
<path d="M41740 17670 c0 -5 5 -10 10 -10 6 0 10 5 10 10 0 6 -4 10 -10 10 -5 0 -10 -4 -10 -10z"/>
<path d="M42080 17170 c0 -5 5 -10 10 -10 6 0 10 5 10 10 0 6 -4 10 -10 10 -5 0 -10 -4 -10 -10z"/>
<path d="M42240 16950 c0 -5 5 -10 10 -10 6 0 10 5 10 10 0 6 -4 10 -10 10 -5 0 -10 -4 -10 -10z"/>
<path d="M42340 16790 c0 -5 5 -10 10 -10 6 0 10 5 10 10 0 6 -4 10 -10 10 -5 0 -10 -4 -10 -10z"/>
<path d="M16540 16310 c0 -5 5 -10 10 -10 6 0 10 5 10 10 0 6 -4 10 -10 10 -5 0 -10 -4 -10 -10z"/>
<path d="M16580 16250 c0 -5 5 -10 10 -10 6 0 10 5 10 10 0 6 -4 10 -10 10 -5 0 -10 -4 -10 -10z"/>
<path d="M42740 16210 c0 -5 5 -10 10 -10 6 0 10 5 10 10 0 6 -4 10 -10 10 -5 0 -10 -4 -10 -10z"/>
<path d="M22440 14930 c0 -5 5 -10 10 -10 6 0 10 5 10 10 0 6 -4 10 -10 10 -5 0 -10 -4 -10 -10z"/>
<path d="M17460 14870 c0 -5 5 -10 10 -10 6 0 10 5 10 10 0 6 -4 10 -10 10 -5 0 -10 -4 -10 -10z"/>
<path d="M17500 14810 c0 -5 5 -10 10 -10 6 0 10 5 10 10 0 6 -4 10 -10 10 -5 0 -10 -4 -10 -10z"/>
<path d="M17660 14550 c0 -5 5 -10 10 -10 6 0 10 5 10 10 0 6 -4 10 -10 10 -5 0 -10 -4 -10 -10z"/>
<path d="M22720 14490 c0 -5 5 -10 10 -10 6 0 10 5 10 10 0 6 -4 10 -10 10 -5 0 -10 -4 -10 -10z"/>
<path d="M23120 13850 c0 -5 5 -10 10 -10 6 0 10 5 10 10 0 6 -4 10 -10 10 -5 0 -10 -4 -10 -10z"/>
<path d="M23170 13825 c-7 -9 -10 -18 -7 -22 8 -7 37 15 37 28 0 14 -16 11 -30 -6z"/>
<path d="M18580 13110 c0 -5 5 -10 10 -10 6 0 10 5 10 10 0 6 -4 10 -10 10 -5 0 -10 -4 -10 -10z"/>
<path d="M19500 11670 c0 -5 5 -10 10 -10 6 0 10 5 10 10 0 6 -4 10 -10 10 -5 0 -10 -4 -10 -10z"/>
<path d="M19580 11550 c0 -5 5 -10 10 -10 6 0 10 5 10 10 0 6 -4 10 -10 10 -5 0 -10 -4 -10 -10z"/>
<path d="M42740 10050 c0 -5 5 -10 10 -10 6 0 10 5 10 10 0 6 -4 10 -10 10 -5 0 -10 -4 -10 -10z"/>
<path d="M46920 10030 c0 -5 5 -10 10 -10 6 0 10 5 10 10 0 6 -4 10 -10 10 -5 0 -10 -4 -10 -10z"/>
<path d="M12520 10010 c0 -5 9 -10 20 -10 11 0 20 5 20 10 0 6 -9 10 -20 10 -11 0 -20 -4 -20 -10z"/>
<path d="M42680 10010 c0 -5 5 -10 10 -10 6 0 10 5 10 10 0 6 -4 10 -10 10 -5 0 -10 -4 -10 -10z"/>
<path d="M7800 9990 c0 -5 5 -10 10 -10 6 0 10 5 10 10 0 6 -4 10 -10 10 -5 0 -10 -4 -10 -10z"/>
<path d="M7860 9990 c0 -5 5 -10 10 -10 6 0 10 5 10 10 0 6 -4 10 -10 10 -5 0 -10 -4 -10 -10z"/>
<path d="M14560 9990 c0 -5 5 -10 10 -10 6 0 10 5 10 10 0 6 -4 10 -10 10 -5 0 -10 -4 -10 -10z"/>
<path d="M14620 9990 c0 -5 5 -10 10 -10 6 0 10 5 10 10 0 6 -4 10 -10 10 -5 0 -10 -4 -10 -10z"/>
<path d="M50280 9990 c0 -5 5 -10 10 -10 6 0 10 5 10 10 0 6 -4 10 -10 10 -5 0 -10 -4 -10 -10z"/>
<path d="M50340 9990 c0 -5 5 -10 10 -10 6 0 10 5 10 10 0 6 -4 10 -10 10 -5 0 -10 -4 -10 -10z"/>
<path d="M50460 9970 c0 -5 5 -10 10 -10 6 0 10 5 10 10 0 6 -4 10 -10 10 -5 0 -10 -4 -10 -10z"/>
<path d="M7530 9945 c-7 -9 -10 -18 -7 -22 8 -7 37 15 37 28 0 14 -16 11 -30 -6z"/>
<path d="M14920 9951 c0 -13 29 -35 37 -28 7 8 -15 37 -28 37 -5 0 -9 -4 -9 -9z"/>
<path d="M50840 9910 c0 -5 5 -10 10 -10 6 0 10 5 10 10 0 6 -4 10 -10 10 -5 0 -10 -4 -10 -10z"/>
<path d="M7280 9890 c0 -5 5 -10 10 -10 6 0 10 5 10 10 0 6 -4 10 -10 10 -5 0 -10 -4 -10 -10z"/>
<path d="M38600 9850 c0 -5 5 -10 10 -10 6 0 10 5 10 10 0 6 -4 10 -10 10 -5 0 -10 -4 -10 -10z"/>
<path d="M15440 9831 c0 -13 29 -35 37 -28 7 8 -15 37 -28 37 -5 0 -9 -4 -9 -9z"/>
<path d="M51160 9830 c0 -5 5 -10 10 -10 6 0 10 5 10 10 0 6 -4 10 -10 10 -5 0 -10 -4 -10 -10z"/>
<path d="M7040 9810 c0 -5 5 -10 10 -10 6 0 10 5 10 10 0 6 -4 10 -10 10 -5 0 -10 -4 -10 -10z"/>
<path d="M15500 9810 c0 -5 5 -10 10 -10 6 0 10 5 10 10 0 6 -4 10 -10 10 -5 0 -10 -4 -10 -10z"/>
<path d="M51200 9810 c0 -5 5 -10 10 -10 6 0 10 5 10 10 0 6 -4 10 -10 10 -5 0 -10 -4 -10 -10z"/>
<path d="M15560 9793 c0 -15 23 -33 42 -33 23 0 23 16 1 24 -10 3 -24 9 -30 12 -7 3 -13 2 -13 -3z"/>
<path d="M38380 9770 c0 -5 9 -10 20 -10 11 0 20 5 20 10 0 6 -9 10 -20 10 -11 0 -20 -4 -20 -10z"/>
<path d="M38280 9730 c0 -5 5 -10 10 -10 6 0 10 5 10 10 0 6 -4 10 -10 10 -5 0 -10 -4 -10 -10z"/>
<path d="M16020 9550 c0 -5 5 -10 10 -10 6 0 10 5 10 10 0 6 -4 10 -10 10 -5 0 -10 -4 -10 -10z"/>
<path d="M52240 8990 c0 -5 5 -10 10 -10 6 0 10 5 10 10 0 6 -4 10 -10 10 -5 0 -10 -4 -10 -10z"/>
<path d="M52297 8894 c3 -7 9 -14 14 -14 14 0 10 17 -5 23 -10 4 -13 1 -9 -9z"/>
<path d="M52320 8830 c0 -5 5 -10 10 -10 6 0 10 5 10 10 0 6 -4 10 -10 10 -5 0 -10 -4 -10 -10z"/>
<path d="M16640 8751 c0 -13 29 -35 37 -28 7 8 -15 37 -28 37 -5 0 -9 -4 -9 -9z"/>
<path d="M21420 8670 c0 -5 5 -10 10 -10 6 0 10 5 10 10 0 6 -4 10 -10 10 -5 0 -10 -4 -10 -10z"/>
<path d="M5860 8610 c0 -16 5 -30 10 -30 6 0 10 14 10 30 0 17 -4 30 -10 30 -5 0 -10 -13 -10 -30z"/>
<path d="M16700 8610 c0 -5 5 -10 10 -10 6 0 10 5 10 10 0 6 -4 10 -10 10 -5 0 -10 -4 -10 -10z"/>
<path d="M21460 8610 c0 -5 5 -10 10 -10 6 0 10 5 10 10 0 6 -4 10 -10 10 -5 0 -10 -4 -10 -10z"/>
<path d="M5820 8465 c0 -8 5 -15 10 -15 6 0 10 7 10 15 0 8 -4 15 -10 15 -5 0 -10 -7 -10 -15z"/>
<path d="M16760 8370 c0 -5 5 -10 10 -10 6 0 10 5 10 10 0 6 -4 10 -10 10 -5 0 -10 -4 -10 -10z"/>
<path d="M16760 8330 c0 -5 5 -10 10 -10 6 0 10 5 10 10 0 6 -4 10 -10 10 -5 0 -10 -4 -10 -10z"/>
<path d="M52480 8290 c0 -5 5 -10 10 -10 6 0 10 5 10 10 0 6 -4 10 -10 10 -5 0 -10 -4 -10 -10z"/>
<path d="M5760 8190 c0 -5 5 -10 10 -10 6 0 10 5 10 10 0 6 -4 10 -10 10 -5 0 -10 -4 -10 -10z"/>
<path d="M16800 8130 c0 -5 5 -10 10 -10 6 0 10 5 10 10 0 6 -4 10 -10 10 -5 0 -10 -4 -10 -10z"/>
<path d="M37180 8090 c0 -5 5 -10 10 -10 6 0 10 5 10 10 0 6 -4 10 -10 10 -5 0 -10 -4 -10 -10z"/>
<path d="M5760 7730 c0 -5 5 -10 10 -10 6 0 10 5 10 10 0 6 -4 10 -10 10 -5 0 -10 -4 -10 -10z"/>
<path d="M16800 7700 c0 -5 5 -10 10 -10 6 0 10 5 10 10 0 6 -4 10 -10 10 -5 0 -10 -4 -10 -10z"/>
<path d="M5780 7630 c0 -5 5 -10 10 -10 6 0 10 5 10 10 0 6 -4 10 -10 10 -5 0 -10 -4 -10 -10z"/>
<path d="M5780 7570 c0 -5 5 -10 10 -10 6 0 10 5 10 10 0 6 -4 10 -10 10 -5 0 -10 -4 -10 -10z"/>
<path d="M37200 7570 c0 -5 5 -10 10 -10 6 0 10 5 10 10 0 6 -4 10 -10 10 -5 0 -10 -4 -10 -10z"/>
<path d="M16760 7450 c0 -5 5 -10 10 -10 6 0 10 5 10 10 0 6 -4 10 -10 10 -5 0 -10 -4 -10 -10z"/>
<path d="M22340 7230 c0 -5 5 -10 10 -10 6 0 10 5 10 10 0 6 -4 10 -10 10 -5 0 -10 -4 -10 -10z"/>
<path d="M16680 7180 c0 -11 5 -20 10 -20 6 0 10 9 10 20 0 11 -4 20 -10 20 -5 0 -10 -9 -10 -20z"/>
<path d="M22380 7170 c0 -5 5 -10 10 -10 6 0 10 5 10 10 0 6 -4 10 -10 10 -5 0 -10 -4 -10 -10z"/>
<path d="M37560 6690 c0 -5 5 -10 10 -10 6 0 10 5 10 10 0 6 -4 10 -10 10 -5 0 -10 -4 -10 -10z"/>
<path d="M52090 6645 c-7 -9 -10 -18 -7 -22 8 -7 37 15 37 28 0 14 -16 11 -30 -6z"/>
<path d="M37640 6590 c0 -5 5 -10 10 -10 6 0 10 5 10 10 0 6 -4 10 -10 10 -5 0 -10 -4 -10 -10z"/>
<path d="M6620 6250 c0 -5 5 -10 10 -10 6 0 10 5 10 10 0 6 -4 10 -10 10 -5 0 -10 -4 -10 -10z"/>
<path d="M51540 6190 c0 -5 5 -10 10 -10 6 0 10 5 10 10 0 6 -4 10 -10 10 -5 0 -10 -4 -10 -10z"/>
<path d="M51460 6150 c0 -5 5 -10 10 -10 6 0 10 5 10 10 0 6 -4 10 -10 10 -5 0 -10 -4 -10 -10z"/>
<path d="M15660 6110 c0 -5 5 -10 10 -10 6 0 10 5 10 10 0 6 -4 10 -10 10 -5 0 -10 -4 -10 -10z"/>
<path d="M38340 6090 c0 -5 5 -10 10 -10 6 0 10 5 10 10 0 6 -4 10 -10 10 -5 0 -10 -4 -10 -10z"/>
<path d="M51260 6070 c0 -5 5 -10 10 -10 6 0 10 5 10 10 0 6 -4 10 -10 10 -5 0 -10 -4 -10 -10z"/>
<path d="M15440 6030 c0 -5 5 -10 10 -10 6 0 10 5 10 10 0 6 -4 10 -10 10 -5 0 -10 -4 -10 -10z"/>
<path d="M51140 6030 c0 -5 5 -10 10 -10 6 0 10 5 10 10 0 6 -4 10 -10 10 -5 0 -10 -4 -10 -10z"/>
<path d="M15320 5990 c0 -5 5 -10 10 -10 6 0 10 5 10 10 0 6 -4 10 -10 10 -5 0 -10 -4 -10 -10z"/>
<path d="M51040 5990 c0 -5 5 -10 10 -10 6 0 10 5 10 10 0 6 -4 10 -10 10 -5 0 -10 -4 -10 -10z"/>
<path d="M14940 5910 c0 -5 5 -10 10 -10 6 0 10 5 10 10 0 6 -4 10 -10 10 -5 0 -10 -4 -10 -10z"/>
<path d="M14900 5890 c0 -5 5 -10 10 -10 6 0 10 5 10 10 0 6 -4 10 -10 10 -5 0 -10 -4 -10 -10z"/>
<path d="M14600 5870 c0 -5 5 -10 10 -10 6 0 10 5 10 10 0 6 -4 10 -10 10 -5 0 -10 -4 -10 -10z"/>
<path d="M50140 5870 c0 -5 5 -10 10 -10 6 0 10 5 10 10 0 6 -4 10 -10 10 -5 0 -10 -4 -10 -10z"/>
<path d="M27360 5855 c0 -8 5 -15 10 -15 6 0 10 7 10 15 0 8 -4 15 -10 15 -5 0 -10 -7 -10 -15z"/>
<path d="M8160 5850 c0 -5 5 -10 10 -10 6 0 10 5 10 10 0 6 -4 10 -10 10 -5 0 -10 -4 -10 -10z"/>
<path d="M14400 5850 c0 -5 5 -10 10 -10 6 0 10 5 10 10 0 6 -4 10 -10 10 -5 0 -10 -4 -10 -10z"/>
<path d="M39560 5850 c0 -5 5 -10 10 -10 6 0 10 5 10 10 0 6 -4 10 -10 10 -5 0 -10 -4 -10 -10z"/>
<path d="M50180 5850 c0 -5 5 -10 10 -10 6 0 10 5 10 10 0 6 -4 10 -10 10 -5 0 -10 -4 -10 -10z"/>
</g>
</g>
  <g id="id1:id1" transform="matrix(1.25,0,0,1.25,0.0,0.0)"><g transform="translate(0.000000,2662.400000) scale(0.040000,-0.040000)" fill="#ffffff" stroke="none">
<path d="M0 33280 l0 -33280 31840 0 31840 0 0 33280 0 33280 -31840 0 -31840 0 0 -33280z m17289 27185 c7 -3 1393 -7 3080 -10 1686 -2 3158 -6 3271 -9 212 -5 454 -23 480 -35 8 -4 40 -8 71 -9 32 -1 79 -7 105 -13 27 -5 85 -16 129 -24 170 -30 521 -130 550 -156 5 -5 15 -9 23 -9 20 0 279 -130 293 -147 6 -7 16 -13 22 -13 15 0 177 -124 217 -165 19 -21 47 -45 61 -54 15 -9 42 -35 60 -58 19 -23 59 -73 90 -110 120 -147 246 -372 307 -548 145 -423 146 -1002 1 -1437 -56 -170 -176 -395 -283 -532 -71 -92 -278 -294 -371 -363 -182 -136 -512 -282 -785 -346 -197 -46 -261 -58 -381 -73 -19 -2 -47 -6 -64 -9 -94 -14 -200 -26 -275 -29 -47 -3 -166 -9 -265 -15 -110 -6 -1003 -10 -2310 -11 -1171 0 -2136 -4 -2143 -8 -17 -11 -18 -16288 -1 -16308 9 -11 398 -14 2277 -14 2120 0 2444 -2 2482 -18 8 -3 31 -7 50 -8 137 -9 202 -16 254 -25 268 -48 266 -48 496 -107 41 -10 113 -33 160 -51 107 -40 400 -184 437 -215 15 -13 48 -36 73 -51 113 -71 399 -384 474 -520 9 -16 32 -55 51 -85 19 -30 34 -65 35 -76 0 -12 7 -27 15 -34 8 -7 15 -17 15 -22 0 -5 8 -28 19 -51 17 -37 45 -123 88 -270 14 -49 32 -156 36 -212 1 -16 6 -36 10 -42 4 -7 10 -106 13 -220 5 -181 -1 -299 -20 -403 -2 -14 -9 -57 -15 -97 -6 -40 -18 -96 -26 -125 -9 -29 -25 -82 -36 -118 -29 -95 -71 -203 -86 -221 -7 -8 -13 -22 -13 -29 0 -8 -11 -30 -23 -49 -13 -20 -43 -70 -67 -111 -24 -41 -53 -86 -65 -100 -12 -14 -37 -47 -56 -75 -52 -78 -213 -234 -334 -325 -60 -45 -119 -86 -131 -91 -12 -4 -25 -12 -28 -18 -6 -9 -156 -85 -256 -129 -160 -70 -439 -145 -679 -182 -68 -11 -131 -22 -140 -25 -9 -3 -84 -10 -166 -16 -83 -7 -170 -14 -195 -17 -60 -6 -13419 -6 -13495 1 -33 2 -120 10 -194 16 -74 6 -142 13 -152 16 -9 3 -73 14 -141 25 -185 29 -426 86 -449 106 -8 8 -29 14 -45 14 -16 0 -42 7 -59 16 -16 9 -43 20 -60 24 -40 11 -140 54 -157 67 -7 6 -24 14 -38 18 -14 4 -32 13 -40 19 -8 6 -35 22 -60 35 -100 52 -220 142 -329 246 -64 60 -125 122 -136 136 -11 15 -40 53 -65 85 -111 146 -256 409 -275 499 -4 17 -13 46 -20 65 -20 49 -51 184 -75 322 -34 196 -36 478 -5 673 3 17 9 63 14 103 6 40 14 87 20 105 5 17 19 66 31 107 41 140 127 335 201 455 103 165 331 410 489 524 234 168 630 322 975 377 50 8 104 19 120 24 46 13 233 33 305 32 19 -1 39 3 45 7 23 18 345 21 2505 21 1317 0 2261 4 2264 9 3 5 6 3676 6 8157 0 6520 -2 8149 -12 8156 -7 4 -967 8 -2133 8 -1309 1 -2193 5 -2310 11 -104 6 -228 12 -275 15 -75 3 -177 14 -275 29 -16 3 -66 9 -110 15 -126 16 -410 79 -475 105 -19 8 -51 19 -70 24 -59 16 -124 40 -152 56 -14 8 -32 15 -38 15 -36 0 -259 126 -427 241 -78 54 -355 355 -395 430 -8 13 -25 43 -40 65 -37 58 -128 239 -128 256 0 7 -6 22 -13 33 -16 23 -64 173 -73 225 -3 19 -10 46 -15 60 -9 24 -29 148 -33 200 -1 14 -6 32 -11 40 -5 8 -9 121 -9 260 0 205 4 266 22 373 22 127 55 273 71 312 5 11 14 40 22 65 17 60 110 258 162 345 23 39 69 106 101 150 76 101 274 305 346 356 30 21 74 52 98 69 23 16 46 30 51 30 5 0 14 7 21 15 13 15 126 75 143 75 6 0 18 6 26 14 9 8 34 21 56 29 22 8 65 25 95 36 186 74 394 128 616 161 67 9 127 21 133 24 6 4 70 12 143 17 73 6 162 13 198 16 36 3 139 8 230 12 190 7 6728 3 6749 -4z m16776 -5 c339 -22 734 -74 985 -131 654 -147 1169 -327 1700 -594 472 -238 959 -547 1320 -836 317 -255 493 -412 765 -684 377 -376 625 -668 1004 -1185 82 -111 323 -475 399 -600 l21 -36 -60 -83 c-213 -299 -373 -651 -453 -997 -188 -816 -55 -1652 407 -2554 44 -85 97 -186 120 -225 39 -69 298 -496 342 -565 18 -28 155 -252 264 -432 25 -41 85 -139 96 -157 6 -9 21 -34 34 -56 13 -22 32 -53 43 -70 10 -16 104 -169 208 -340 104 -170 204 -335 223 -365 18 -30 105 -172 192 -315 204 -335 225 -367 237 -363 11 4 20 35 88 318 23 96 66 276 96 400 30 124 75 308 99 410 115 474 147 608 190 785 26 105 62 255 81 335 19 80 48 200 64 268 17 67 43 177 60 245 35 147 99 411 145 602 44 181 107 443 150 620 19 77 52 214 74 305 22 91 52 215 66 275 15 61 44 184 66 275 39 160 70 290 144 595 19 80 51 209 69 288 19 78 53 219 76 312 23 94 54 224 70 290 42 174 144 594 190 785 22 91 64 269 95 395 31 127 76 313 100 415 25 102 72 295 104 430 90 370 131 540 142 590 6 24 15 50 21 58 22 26 337 242 526 361 294 185 657 380 674 363 5 -5 -18 -118 -57 -278 -36 -148 -87 -361 -115 -474 -27 -113 -63 -261 -79 -330 -28 -117 -67 -277 -207 -855 -30 -126 -73 -302 -94 -390 -125 -517 -156 -646 -215 -890 -36 -148 -72 -297 -80 -330 -46 -194 -136 -562 -139 -571 -2 -6 0 -17 4 -24 6 -10 34 5 114 63 469 340 1009 549 1696 656 171 27 520 51 733 51 159 0 581 -23 727 -40 47 -6 126 -14 175 -20 137 -15 542 -78 680 -105 39 -8 120 -23 180 -35 246 -48 660 -140 1030 -230 88 -21 201 -48 250 -60 185 -44 586 -141 1045 -254 102 -25 273 -69 380 -97 245 -65 252 -66 287 -41 15 11 116 72 223 137 255 154 300 184 299 198 0 7 -26 55 -59 107 -32 52 -101 165 -153 250 -51 85 -194 319 -317 520 -123 201 -247 406 -277 455 -30 50 -76 126 -104 170 -27 44 -84 137 -127 207 -91 151 -97 161 -239 393 -60 99 -187 308 -282 465 -381 626 -590 908 -911 1231 -305 307 -577 509 -920 683 -120 61 -316 146 -393 170 -11 3 -15 11 -11 17 9 15 539 6 694 -11 295 -32 466 -54 580 -76 877 -162 1618 -443 2348 -888 237 -144 327 -206 547 -370 517 -387 1025 -897 1423 -1426 56 -74 111 -148 123 -164 20 -26 249 -370 308 -463 78 -124 232 -403 346 -628 374 -739 657 -1573 834 -2460 37 -183 50 -254 101 -570 29 -175 82 -645 100 -880 29 -390 34 -549 35 -995 0 -543 -11 -743 -66 -1155 -151 -1148 -548 -2191 -1203 -3159 -129 -190 -113 -168 -236 -330 -58 -76 -114 -151 -125 -165 -97 -128 -277 -338 -496 -576 -149 -163 -530 -542 -572 -570 -21 -13 -36 -11 -183 25 -199 49 -644 157 -1239 300 -71 17 -220 53 -330 80 -110 26 -288 69 -395 95 -107 26 -305 74 -440 107 -135 32 -290 70 -345 83 -55 13 -174 42 -265 64 -91 22 -298 72 -460 111 -162 39 -323 78 -358 86 -96 24 -96 25 19 -138 386 -542 621 -1250 669 -2008 12 -204 13 -602 0 -815 -13 -214 -30 -395 -40 -422 -10 -23 -21 -31 -325 -221 -110 -69 -272 -170 -360 -225 -322 -203 -428 -266 -435 -262 -8 5 -6 20 16 135 46 245 93 582 121 865 25 252 25 807 0 1020 -61 512 -190 911 -414 1274 -289 469 -684 846 -1193 1138 -221 127 -472 242 -597 273 -43 10 -154 37 -248 60 -93 23 -244 59 -335 81 -91 22 -219 53 -285 69 -166 40 -586 141 -850 205 -121 30 -260 63 -310 75 -49 12 -172 41 -272 66 -501 122 -557 134 -566 125 -6 -6 5 -33 29 -71 22 -33 57 -91 80 -128 71 -116 258 -423 324 -532 36 -58 95 -154 132 -215 37 -60 108 -177 158 -260 115 -189 284 -467 319 -523 14 -23 65 -106 113 -185 47 -78 111 -182 142 -232 30 -49 89 -146 131 -215 42 -69 118 -195 171 -280 52 -85 122 -200 155 -255 33 -55 73 -120 88 -145 55 -88 232 -378 323 -528 51 -84 105 -172 119 -195 45 -72 224 -366 312 -512 47 -77 110 -180 141 -230 30 -49 75 -124 100 -165 25 -41 88 -145 140 -230 52 -85 137 -224 188 -308 51 -84 105 -172 119 -195 68 -111 240 -391 345 -566 l117 -194 -28 -21 c-16 -11 -86 -61 -156 -111 -238 -169 -334 -239 -544 -396 -244 -184 -331 -250 -436 -333 -43 -34 -128 -101 -190 -151 -150 -118 -549 -449 -723 -600 -798 -688 -1515 -1383 -2221 -2150 -105 -115 -165 -181 -365 -410 -138 -156 -281 -328 -466 -560 -599 -748 -1022 -1422 -1174 -1868 -14 -43 -31 -78 -36 -78 -5 1 -13 13 -18 29 -25 78 -85 222 -147 350 -313 653 -910 1492 -1696 2384 l-173 196 30 118 c31 125 107 438 160 659 17 72 49 204 71 295 22 91 53 219 69 285 16 66 47 194 69 285 22 91 54 224 71 295 32 134 89 369 140 580 16 66 72 296 123 510 52 215 122 503 156 642 33 139 61 257 61 263 0 20 -24 9 -94 -43 -323 -242 -780 -459 -1196 -568 -576 -151 -1190 -191 -1905 -124 -185 18 -390 41 -470 54 -33 6 -132 22 -220 36 -244 39 -597 109 -936 185 l-307 69 -123 80 c-68 44 -194 123 -279 176 -85 53 -220 137 -300 187 -128 79 -523 320 -612 372 -18 11 -94 57 -168 102 -74 45 -256 155 -405 244 -2095 1260 -3230 2085 -4201 3055 -951 951 -1617 1969 -2005 3067 -94 266 -206 655 -248 859 -5 24 -21 100 -35 169 -64 312 -105 619 -138 1035 -19 240 -16 1072 5 1400 17 248 46 575 67 753 23 191 29 240 39 302 5 36 15 99 21 140 80 550 236 1212 412 1750 327 1000 784 1886 1367 2650 269 352 679 794 996 1071 676 592 1422 1033 2237 1323 235 83 630 197 788 225 25 5 92 19 150 30 249 52 628 98 940 114 144 8 552 6 695 -3z m-24050 -29953 c116 -2 722 -4 1348 -5 l1138 -2 20 -22 c21 -22 159 -235 159 -244 0 -2 15 -26 33 -52 40 -60 53 -80 75 -115 9 -15 56 -90 105 -165 48 -75 110 -173 138 -217 28 -44 91 -143 140 -220 49 -77 113 -177 142 -223 28 -46 69 -106 90 -135 20 -28 37 -55 37 -60 0 -5 13 -27 29 -50 30 -43 94 -145 147 -230 16 -26 46 -71 67 -100 20 -28 37 -55 37 -60 0 -5 13 -27 29 -50 30 -44 96 -147 147 -230 16 -27 43 -68 61 -92 17 -24 39 -58 49 -77 9 -18 46 -78 82 -133 36 -55 81 -125 100 -155 19 -30 43 -66 53 -80 10 -14 29 -43 40 -65 12 -22 51 -85 87 -140 94 -144 136 -208 147 -226 6 -9 17 -27 26 -40 26 -39 153 -239 169 -268 13 -22 38 -60 85 -131 5 -9 19 -31 30 -48 11 -18 59 -95 108 -170 48 -75 110 -173 138 -217 28 -44 91 -143 140 -220 49 -77 113 -177 142 -223 57 -89 156 -245 230 -359 26 -40 47 -75 47 -79 0 -3 14 -22 30 -41 17 -18 30 -39 30 -46 0 -7 16 -32 35 -56 19 -24 35 -48 35 -53 0 -5 13 -28 29 -51 30 -43 94 -145 147 -230 16 -26 46 -71 67 -100 20 -28 37 -55 37 -59 0 -4 35 -61 78 -126 42 -65 93 -145 112 -176 19 -32 44 -70 56 -85 12 -14 29 -42 39 -61 10 -19 46 -78 80 -130 34 -52 80 -124 103 -160 22 -36 50 -78 62 -95 22 -32 165 -257 184 -290 6 -10 26 -41 44 -67 17 -26 32 -51 32 -54 0 -3 9 -18 21 -32 17 -23 148 -227 183 -286 6 -11 38 -61 71 -112 33 -51 98 -152 144 -226 47 -73 108 -169 136 -213 29 -44 70 -110 93 -147 23 -37 75 -118 115 -180 40 -62 87 -135 103 -161 16 -26 46 -71 67 -100 20 -28 37 -55 37 -60 0 -5 13 -27 29 -50 30 -43 94 -145 147 -230 16 -26 46 -71 67 -100 20 -28 37 -55 37 -59 0 -4 35 -61 78 -126 42 -65 93 -145 112 -176 19 -32 44 -70 56 -85 12 -14 29 -42 39 -61 10 -19 47 -80 83 -135 36 -55 81 -125 100 -155 19 -30 43 -66 53 -80 10 -14 29 -43 40 -65 12 -22 53 -86 90 -142 38 -56 69 -105 69 -108 0 -3 16 -28 35 -55 19 -27 35 -53 35 -56 0 -3 9 -18 21 -32 19 -26 159 -244 183 -287 10 -17 29 -47 81 -125 5 -9 19 -31 30 -48 11 -18 59 -95 108 -170 48 -75 110 -173 138 -217 28 -44 91 -143 140 -220 49 -77 113 -177 142 -223 28 -46 69 -106 90 -135 20 -28 37 -55 37 -60 0 -5 13 -27 29 -50 30 -43 94 -145 147 -230 16 -26 46 -71 67 -100 20 -28 37 -55 37 -59 0 -5 19 -36 42 -71 48 -73 91 -139 143 -222 20 -33 46 -71 56 -85 10 -14 26 -38 35 -55 9 -16 48 -79 87 -140 39 -60 86 -135 105 -165 19 -30 43 -66 53 -80 10 -14 29 -43 40 -65 12 -22 53 -86 90 -143 38 -56 69 -104 69 -107 0 -3 16 -28 35 -55 19 -27 35 -53 35 -56 0 -3 9 -18 21 -32 19 -26 159 -244 183 -287 10 -17 29 -47 81 -125 5 -9 19 -31 30 -48 11 -18 59 -95 108 -170 48 -75 110 -173 138 -217 28 -44 91 -143 140 -220 49 -77 113 -177 142 -223 28 -46 69 -106 90 -135 20 -28 37 -55 37 -60 0 -5 13 -27 29 -50 30 -43 94 -145 147 -230 16 -26 46 -71 67 -100 20 -28 37 -55 37 -60 0 -5 13 -27 29 -50 28 -41 45 -68 146 -227 26 -41 56 -86 66 -100 10 -14 29 -43 40 -65 12 -22 51 -85 87 -140 36 -55 81 -125 100 -155 19 -30 43 -66 53 -80 10 -14 29 -43 40 -65 12 -22 53 -86 90 -143 38 -56 69 -104 69 -107 0 -3 15 -27 33 -53 41 -61 54 -80 75 -115 106 -174 173 -267 192 -267 l20 0 0 6248 c0 3927 -4 6253 -10 6262 -8 13 -116 16 -832 21 -453 3 -877 8 -943 11 -210 9 -459 27 -505 38 -25 5 -85 15 -134 20 -49 6 -96 15 -105 19 -9 5 -39 11 -66 14 -79 9 -278 58 -296 73 -8 8 -29 14 -45 14 -16 0 -46 9 -67 20 -20 11 -44 20 -52 20 -34 0 -362 155 -400 189 -11 10 -42 31 -69 47 -55 31 -308 277 -382 371 -27 34 -67 90 -88 125 -22 35 -50 79 -63 99 -12 19 -23 41 -23 49 0 7 -6 21 -14 29 -17 19 -106 236 -106 258 0 8 -7 29 -14 46 -8 18 -22 64 -30 102 -8 39 -19 88 -25 110 -5 22 -12 74 -16 115 -4 41 -9 95 -12 120 -12 131 -14 335 -2 356 6 12 9 30 6 38 -7 19 20 253 32 281 5 11 15 49 21 84 6 35 27 109 46 165 37 104 152 352 185 396 11 14 47 63 82 110 73 101 225 260 322 339 196 159 477 296 765 373 275 73 611 126 840 132 30 1 61 5 69 10 25 16 5654 -4 6233 -22 163 -6 302 -14 310 -18 7 -5 27 -10 43 -10 64 -3 163 -16 240 -31 44 -8 112 -21 150 -29 137 -26 336 -79 377 -100 15 -8 35 -14 44 -14 33 0 422 -191 469 -230 16 -14 43 -34 59 -44 91 -57 379 -372 437 -476 8 -14 19 -32 25 -40 24 -32 104 -192 104 -207 0 -9 6 -24 14 -32 13 -15 43 -102 80 -231 15 -53 36 -155 57 -280 10 -59 13 -523 3 -605 -3 -27 -9 -59 -13 -70 -5 -11 -15 -60 -24 -110 -8 -49 -22 -115 -30 -145 -21 -79 -98 -282 -114 -301 -7 -8 -13 -22 -13 -31 0 -8 -8 -26 -18 -39 -10 -13 -40 -62 -66 -109 -27 -47 -61 -99 -75 -116 -14 -17 -60 -73 -101 -123 -41 -51 -102 -118 -135 -149 -66 -62 -229 -187 -285 -220 -100 -59 -222 -120 -353 -177 -60 -26 -319 -103 -373 -110 -27 -4 -53 -11 -59 -15 -5 -5 -44 -13 -85 -18 -41 -6 -118 -18 -170 -26 -100 -17 -224 -27 -400 -32 -136 -4 -219 -17 -231 -35 -5 -8 -9 -4116 -9 -10234 l0 -10220 -2062 0 -2062 0 -21 32 c-11 18 -33 54 -49 80 -16 26 -51 80 -78 120 -26 40 -48 74 -48 77 0 4 -47 78 -90 141 -22 32 -164 256 -184 289 -6 11 -38 61 -71 112 -33 51 -100 156 -150 233 -49 78 -107 167 -127 199 -20 31 -51 80 -68 107 -17 28 -41 64 -53 82 -12 18 -35 54 -51 80 -16 26 -51 80 -78 120 -26 40 -48 74 -48 77 0 4 -47 78 -90 141 -22 32 -164 256 -184 289 -6 11 -38 61 -71 112 -33 51 -100 156 -150 233 -49 78 -107 167 -127 199 -20 31 -51 80 -68 107 -17 28 -41 64 -53 82 -12 18 -35 54 -51 80 -16 26 -50 80 -76 118 -25 39 -50 77 -54 85 -3 8 -25 42 -47 75 -22 33 -47 73 -57 89 -9 15 -52 82 -94 147 -43 66 -78 121 -78 123 0 2 -28 47 -62 99 -35 52 -103 159 -153 238 -49 78 -109 172 -133 208 -24 36 -52 81 -62 101 -10 19 -27 44 -39 54 -12 11 -21 24 -21 30 0 6 -15 33 -33 61 -97 145 -134 201 -141 215 -3 8 -25 42 -47 75 -22 33 -47 73 -57 89 -9 15 -52 82 -94 147 -43 66 -78 121 -78 123 0 2 -28 47 -62 99 -56 85 -227 351 -253 394 -29 47 -117 181 -133 203 -11 14 -27 41 -37 60 -10 19 -26 46 -35 60 -44 64 -117 177 -124 190 -3 8 -25 42 -47 75 -22 33 -47 73 -57 88 -35 59 -77 124 -124 194 -26 40 -48 74 -48 77 0 2 -28 47 -62 99 -58 88 -223 344 -258 401 -71 116 -89 143 -117 181 -18 24 -41 61 -53 82 -11 21 -38 65 -60 98 -21 33 -53 83 -70 110 -17 28 -49 77 -71 110 -22 33 -47 73 -57 88 -35 59 -77 124 -124 194 -26 40 -48 74 -48 77 0 2 -28 47 -62 99 -58 88 -223 344 -258 401 -71 116 -89 143 -117 181 -18 24 -41 61 -53 82 -11 21 -38 65 -60 98 -21 33 -53 83 -70 110 -17 28 -49 77 -71 110 -22 33 -47 73 -57 88 -35 59 -77 124 -124 194 -26 40 -48 74 -48 76 0 2 -28 47 -62 99 -35 53 -103 160 -153 239 -49 78 -112 177 -140 220 -80 124 -197 309 -229 358 -55 88 -120 186 -138 211 -10 14 -28 43 -39 65 -12 22 -29 51 -39 65 -46 67 -120 180 -120 183 0 2 -28 47 -62 99 -35 53 -103 160 -153 239 -49 78 -112 177 -140 220 -80 124 -197 309 -229 358 -55 88 -120 186 -138 211 -10 14 -28 43 -39 65 -12 22 -29 51 -39 65 -50 72 -120 180 -120 184 0 4 -47 78 -90 141 -22 32 -164 256 -184 289 -6 11 -38 61 -71 112 -33 51 -100 156 -150 233 -49 78 -107 167 -127 199 -20 31 -51 80 -68 107 -17 28 -41 64 -53 82 -12 18 -35 54 -51 80 -16 26 -51 80 -78 120 -26 40 -48 74 -48 77 0 4 -47 78 -90 141 -22 32 -164 256 -184 289 -6 11 -38 61 -71 112 -33 51 -100 156 -150 233 -49 78 -107 167 -127 199 -20 31 -51 80 -68 107 -17 28 -41 64 -53 82 -12 18 -35 54 -51 80 -16 26 -50 80 -76 118 -25 39 -50 77 -54 85 -3 8 -25 42 -47 75 -22 33 -47 73 -57 89 -9 15 -52 82 -94 147 -43 66 -78 121 -78 123 0 2 -28 47 -62 99 -56 85 -227 351 -253 394 -29 47 -117 181 -133 203 -11 14 -27 41 -37 60 -10 19 -26 46 -35 60 -10 14 -39 59 -65 100 -27 41 -65 100 -86 131 -21 30 -41 67 -44 82 -9 33 -40 36 -49 5 -11 -42 -7 -12538 4 -12559 l11 -19 932 0 c519 -1 974 -5 1027 -11 52 -5 113 -11 135 -13 120 -13 147 -15 220 -21 44 -4 85 -11 90 -15 6 -4 37 -11 70 -14 88 -10 349 -73 440 -106 28 -10 63 -21 79 -25 85 -19 393 -175 508 -257 123 -88 316 -286 427 -439 64 -87 186 -323 223 -429 43 -123 88 -308 91 -375 1 -16 5 -34 8 -40 29 -46 26 -636 -3 -672 -5 -7 -7 -17 -4 -22 4 -5 2 -29 -4 -53 -28 -123 -64 -265 -71 -278 -4 -8 -13 -36 -19 -62 -7 -26 -19 -53 -26 -59 -8 -6 -14 -18 -14 -26 0 -18 -86 -192 -106 -214 -8 -8 -14 -20 -14 -25 -1 -9 -58 -89 -146 -205 -87 -115 -321 -321 -434 -385 -19 -10 -42 -24 -50 -30 -45 -36 -286 -143 -415 -185 -158 -52 -414 -110 -590 -134 -16 -2 -61 -9 -100 -14 -78 -11 -209 -22 -300 -25 -33 -1 -67 -5 -75 -9 -17 -8 -6225 -3 -6310 5 -30 3 -91 8 -135 12 -153 12 -191 17 -335 41 -164 28 -310 57 -325 66 -5 4 -27 9 -48 13 -100 18 -352 114 -497 188 -164 85 -289 180 -441 335 -167 171 -249 285 -344 478 -91 186 -168 443 -180 600 -2 17 -8 68 -14 115 -11 78 -10 357 1 465 11 99 30 222 38 240 5 11 11 37 15 57 9 54 55 200 71 223 8 11 14 26 14 33 0 23 99 218 152 299 151 233 391 473 595 596 91 55 336 170 428 202 111 37 245 73 345 91 47 9 94 20 105 25 11 4 70 14 130 20 61 6 126 13 145 15 143 17 235 23 368 24 137 1 153 3 162 20 13 25 14 16269 0 16290 -8 13 -69 16 -407 21 -557 8 -841 22 -1033 53 -14 2 -63 9 -110 15 -142 19 -420 85 -572 137 -182 62 -259 97 -437 199 -103 59 -341 263 -411 352 -92 117 -142 186 -175 243 -21 36 -49 81 -62 101 -13 19 -23 41 -23 49 0 7 -6 21 -14 29 -7 9 -18 30 -24 46 -6 17 -24 68 -42 115 -48 131 -86 297 -110 480 -13 98 -13 466 0 555 6 39 13 84 15 100 7 54 27 150 35 170 4 11 13 47 20 80 7 33 19 70 27 82 9 13 13 23 9 23 -6 0 23 77 59 154 13 28 26 58 29 66 13 33 114 199 154 251 15 20 40 54 56 75 61 80 293 300 378 357 47 31 90 57 94 57 4 0 15 6 23 14 23 21 162 88 276 135 140 56 366 123 465 137 25 4 50 10 55 14 11 9 165 32 204 31 13 -1 29 3 36 9 6 5 63 12 126 15 63 3 139 11 169 16 31 6 143 14 250 17 188 7 2176 5 2605 -1z m28490 -8 c1611 -12 1736 -14 1890 -34 66 -9 165 -20 220 -26 55 -5 109 -14 120 -19 11 -5 58 -14 104 -20 46 -6 91 -15 100 -20 9 -4 43 -14 76 -20 52 -10 161 -44 370 -116 28 -9 57 -23 66 -31 8 -7 22 -13 31 -13 8 0 27 -9 41 -20 14 -11 32 -20 40 -20 8 0 26 -9 40 -20 14 -11 28 -20 32 -20 13 0 138 -82 190 -124 160 -130 316 -294 380 -396 15 -25 36 -54 46 -65 22 -25 149 -278 149 -297 0 -8 4 -18 9 -23 24 -27 93 -288 112 -425 19 -136 20 -157 25 -320 9 -279 -29 -503 -136 -805 -12 -33 -28 -67 -36 -76 -8 -8 -14 -22 -14 -31 0 -8 -9 -27 -20 -41 -11 -14 -20 -31 -20 -38 0 -13 -3 -19 -113 -184 -143 -217 -438 -487 -727 -667 -162 -101 -492 -268 -531 -268 -25 0 -35 -54 -15 -83 8 -12 43 -63 78 -113 35 -50 71 -101 81 -115 10 -13 32 -46 50 -73 67 -104 123 -186 372 -551 49 -71 142 -209 207 -305 65 -96 126 -186 137 -200 10 -14 31 -45 47 -69 16 -24 45 -68 64 -97 19 -29 76 -113 126 -186 50 -73 147 -216 216 -318 157 -233 283 -418 307 -450 10 -14 31 -45 47 -69 16 -24 45 -68 64 -97 19 -29 85 -126 146 -216 61 -90 159 -235 219 -323 59 -88 144 -212 187 -275 43 -63 90 -131 103 -150 13 -19 38 -55 55 -80 17 -25 45 -67 63 -94 55 -85 99 -151 190 -283 115 -169 242 -356 357 -528 51 -77 113 -167 137 -200 24 -33 58 -82 76 -109 57 -88 100 -152 193 -288 50 -73 130 -191 179 -263 170 -252 208 -305 220 -305 7 0 131 179 277 398 1017 1526 1228 1844 1228 1851 0 5 12 24 28 44 15 19 39 54 54 78 16 24 46 71 68 104 22 33 52 80 68 104 15 24 38 58 52 76 14 18 37 52 52 76 16 24 46 71 68 104 22 33 52 80 68 104 15 24 38 58 52 76 14 18 37 52 52 76 16 24 46 71 68 104 22 33 52 80 68 104 15 24 38 58 52 76 14 18 37 52 52 76 16 24 45 69 65 100 21 31 51 76 67 100 16 24 238 359 494 744 256 385 570 858 699 1051 128 194 233 356 233 362 0 6 -24 18 -52 28 -29 9 -64 22 -78 29 -14 7 -54 25 -90 40 -136 57 -443 216 -477 248 -11 9 -22 17 -26 17 -3 0 -27 15 -52 33 -26 17 -57 39 -69 47 -160 110 -391 340 -487 485 -72 109 -149 241 -149 256 0 6 -9 27 -19 47 -41 80 -111 280 -111 318 0 13 -4 25 -8 28 -5 3 -14 45 -21 93 -7 48 -18 104 -25 123 -13 43 -16 575 -2 605 5 11 10 31 11 45 19 213 110 479 242 713 113 201 353 451 568 593 78 51 298 164 321 164 10 0 25 6 33 13 17 15 80 38 176 66 33 10 67 21 75 24 65 27 421 98 550 110 14 1 30 5 35 9 10 6 136 19 230 23 28 2 97 8 155 14 105 12 2383 16 2401 5 5 -3 444 -6 976 -8 955 -3 1559 -16 1585 -32 7 -5 27 -10 43 -10 64 -3 163 -16 240 -31 44 -8 112 -21 150 -29 137 -26 336 -79 377 -100 15 -8 35 -14 44 -14 21 0 58 -17 244 -109 228 -113 269 -141 439 -306 112 -109 232 -255 304 -370 40 -64 107 -197 107 -214 0 -8 6 -22 14 -30 7 -9 25 -56 40 -106 15 -49 34 -110 42 -135 13 -45 21 -86 49 -255 24 -145 21 -627 -5 -690 -4 -11 -14 -60 -23 -110 -8 -49 -22 -116 -31 -148 -24 -86 -97 -280 -113 -298 -7 -8 -13 -23 -13 -32 0 -8 -10 -28 -23 -44 -13 -15 -26 -36 -30 -45 -8 -22 -99 -158 -146 -218 -54 -70 -239 -256 -311 -314 -36 -29 -94 -72 -130 -95 -95 -63 -349 -184 -465 -221 -55 -18 -109 -36 -120 -40 -29 -12 -181 -50 -240 -60 -27 -5 -94 -18 -149 -30 -54 -11 -122 -21 -150 -22 -28 -1 -56 -5 -62 -10 -14 -10 -295 -29 -471 -32 -67 -1 -125 -5 -129 -9 -4 -4 -33 -7 -64 -7 -63 0 -73 -6 -116 -68 -53 -79 -98 -148 -131 -198 -18 -27 -45 -67 -61 -89 -16 -22 -37 -53 -46 -70 -9 -16 -30 -48 -47 -70 -16 -22 -95 -137 -174 -255 -80 -118 -210 -312 -290 -430 -475 -702 -461 -681 -542 -806 -18 -27 -46 -69 -63 -94 -17 -25 -42 -61 -55 -80 -34 -49 -252 -371 -446 -659 -90 -134 -219 -325 -287 -425 -68 -99 -136 -201 -152 -226 -27 -41 -43 -65 -115 -170 -14 -19 -38 -57 -55 -85 -17 -27 -45 -68 -61 -90 -16 -22 -95 -137 -174 -255 -80 -118 -210 -312 -290 -430 -80 -118 -212 -313 -293 -433 -144 -212 -184 -272 -249 -373 -18 -27 -46 -69 -63 -94 -17 -25 -42 -61 -55 -80 -29 -43 -301 -444 -479 -709 -72 -106 -186 -275 -254 -375 -68 -99 -136 -201 -152 -226 -27 -41 -43 -65 -115 -170 -14 -19 -38 -57 -55 -85 -17 -27 -45 -68 -61 -90 -16 -22 -95 -137 -174 -255 -80 -118 -210 -312 -290 -430 -80 -118 -212 -313 -293 -433 -144 -212 -184 -272 -249 -373 -18 -27 -46 -69 -63 -94 -17 -25 -42 -61 -55 -80 -34 -49 -252 -371 -446 -659 -310 -460 -404 -598 -429 -632 l-25 -34 -3 -3068 c-1 -1688 2 -3083 6 -3100 l8 -32 1670 -5 c1087 -3 1674 -8 1684 -15 8 -5 31 -11 50 -12 96 -4 200 -14 254 -24 268 -48 266 -48 496 -107 172 -44 530 -205 605 -272 11 -9 40 -30 65 -45 112 -69 389 -373 476 -522 71 -120 84 -145 84 -162 0 -10 7 -24 15 -31 8 -7 15 -17 15 -22 0 -5 8 -28 19 -51 17 -37 45 -123 88 -270 14 -49 32 -156 36 -212 1 -16 6 -36 10 -43 5 -7 11 -103 14 -215 4 -176 -2 -305 -21 -407 -2 -14 -10 -61 -16 -104 -6 -44 -15 -86 -19 -95 -5 -9 -14 -41 -21 -71 -16 -71 -89 -270 -107 -291 -7 -8 -13 -22 -13 -29 0 -8 -11 -30 -23 -49 -13 -20 -43 -70 -67 -111 -24 -41 -53 -86 -65 -100 -12 -14 -37 -47 -56 -75 -72 -108 -338 -348 -449 -406 -22 -12 -42 -25 -45 -29 -5 -8 -163 -87 -255 -128 -160 -70 -439 -145 -679 -182 -68 -11 -131 -22 -140 -25 -9 -3 -84 -10 -166 -16 -83 -7 -170 -14 -195 -17 -64 -6 -10602 -7 -10675 0 -33 3 -100 9 -150 13 -49 3 -117 11 -150 16 -33 6 -73 12 -90 14 -127 17 -190 27 -198 32 -6 3 -51 14 -101 24 -123 24 -195 43 -296 79 -47 17 -101 36 -120 41 -19 6 -42 17 -51 25 -8 8 -21 14 -27 14 -17 0 -182 84 -271 138 -110 66 -190 133 -327 273 -167 172 -254 302 -367 549 -47 102 -97 266 -123 402 -30 159 -34 204 -34 436 -1 236 5 341 20 377 4 11 13 59 20 108 7 48 16 90 21 93 5 3 9 14 9 25 0 56 119 342 197 474 62 104 156 219 288 351 152 154 250 228 400 308 39 21 77 42 85 46 38 22 231 100 248 100 7 0 26 7 43 15 16 9 48 20 72 24 23 5 96 23 162 40 149 39 241 55 521 91 214 27 418 31 1909 33 l1560 2 3 3104 2 3105 -18 20 c-11 12 -52 71 -92 131 -82 122 -202 298 -240 353 -28 40 -91 134 -117 175 -20 30 -111 162 -168 242 -19 28 -79 115 -132 195 -53 80 -119 177 -145 215 -86 125 -142 207 -178 261 -19 28 -75 110 -123 181 -48 70 -126 184 -172 253 -94 138 -242 355 -280 410 -42 61 -84 124 -108 160 -13 19 -54 80 -92 135 -111 162 -205 300 -316 464 -57 84 -115 169 -129 189 -14 19 -41 59 -60 88 -19 28 -73 108 -120 176 -47 69 -126 185 -176 259 -123 182 -250 369 -273 399 -10 14 -31 45 -47 69 -79 121 -150 225 -305 451 -36 52 -113 164 -170 249 -57 84 -115 169 -129 189 -14 19 -41 59 -60 88 -44 67 -225 331 -249 364 -10 14 -60 88 -112 165 -51 77 -115 172 -141 210 -94 137 -143 209 -178 261 -19 29 -75 110 -123 181 -48 70 -126 184 -172 253 -89 131 -196 288 -243 354 -31 45 -94 139 -119 179 -20 30 -111 162 -168 242 -19 28 -79 115 -132 195 -53 80 -119 177 -145 215 -86 125 -142 207 -178 261 -19 28 -75 110 -123 181 -48 70 -126 184 -172 253 -208 306 -256 377 -273 400 -18 23 -39 55 -102 151 -14 21 -51 75 -82 121 -32 46 -99 144 -149 218 -51 74 -137 202 -193 284 -56 81 -110 160 -121 176 -11 15 -29 40 -39 56 -11 16 -22 31 -24 34 -5 7 -123 18 -262 24 -386 17 -601 48 -930 135 -100 26 -191 55 -215 69 -11 6 -51 23 -90 39 -94 37 -248 121 -354 190 -115 76 -384 346 -462 463 -106 159 -109 166 -179 315 -34 74 -48 109 -75 200 -52 170 -57 189 -66 259 -5 39 -11 85 -14 101 -42 261 -25 581 46 875 11 47 24 94 29 105 5 11 16 45 25 75 34 124 183 392 293 530 64 80 255 271 312 311 30 21 74 52 98 69 23 16 46 30 51 30 5 0 14 7 21 15 13 15 126 75 143 75 6 0 18 6 26 14 9 8 34 21 56 29 22 8 65 25 95 37 175 69 407 129 616 160 67 10 127 21 133 24 6 4 70 12 143 17 73 6 162 13 198 16 250 20 480 20 2995 2z"/>
<path d="M35056 58591 c-3 -4 -74 -50 -158 -100 -84 -51 -182 -110 -218 -132 -36 -23 -128 -79 -205 -126 -180 -109 -517 -315 -840 -513 -33 -20 -256 -156 -495 -302 -239 -146 -507 -309 -595 -363 -88 -54 -205 -125 -260 -158 -258 -157 -556 -371 -760 -545 -128 -110 -410 -392 -502 -502 -139 -169 -265 -352 -368 -535 -177 -317 -270 -576 -357 -1000 -20 -99 -23 -138 -22 -390 0 -243 3 -299 23 -420 79 -490 200 -884 445 -1455 68 -156 105 -210 145 -210 18 0 204 -44 636 -150 110 -27 247 -60 305 -74 493 -118 724 -174 895 -216 110 -27 241 -58 290 -70 127 -30 413 -99 1195 -289 135 -33 306 -74 380 -91 74 -18 262 -64 418 -102 156 -38 286 -67 289 -65 7 8 -14 43 -71 122 -176 240 -339 551 -451 860 -115 318 -179 600 -227 1010 -30 255 -33 847 -5 1135 66 690 175 1276 438 2360 53 216 112 462 180 745 23 94 84 339 136 545 53 206 102 403 111 437 l16 62 -26 38 c-14 21 -72 115 -128 208 -57 94 -116 190 -131 215 -45 73 -69 94 -83 71z"/>
<path d="M36156 56811 c-3 -5 -28 -103 -55 -218 -27 -114 -92 -383 -144 -598 -53 -214 -105 -433 -117 -485 -12 -52 -28 -122 -36 -155 -118 -509 -213 -1090 -249 -1532 -19 -229 -19 -702 0 -893 72 -746 305 -1288 780 -1813 202 -224 515 -477 770 -622 28 -16 57 -34 65 -41 21 -17 322 -167 430 -213 49 -22 136 -51 192 -65 103 -25 320 -78 583 -141 77 -18 205 -49 285 -69 80 -19 213 -51 295 -71 343 -82 472 -114 970 -234 138 -34 351 -86 475 -116 235 -57 259 -58 230 -10 -8 14 -57 94 -109 177 -52 84 -135 221 -186 303 -285 468 -463 760 -510 835 -29 47 -128 209 -220 360 -92 151 -191 313 -220 360 -29 47 -128 209 -220 360 -92 151 -191 313 -220 360 -28 47 -127 209 -220 360 -92 151 -191 313 -220 360 -28 47 -128 209 -220 360 -92 151 -265 435 -384 630 -120 195 -289 472 -376 615 -87 143 -173 283 -190 310 -18 28 -56 91 -85 140 -30 50 -68 113 -85 140 -18 28 -79 127 -135 220 -57 94 -113 186 -125 205 -13 19 -73 118 -135 220 -62 102 -157 257 -211 345 -54 88 -117 192 -140 230 -143 236 -243 395 -250 395 -4 0 -10 -4 -13 -9z"/>
<path d="M46505 55190 c-38 -5 -117 -14 -175 -20 -58 -7 -123 -16 -145 -20 -22 -5 -69 -14 -105 -21 -455 -83 -867 -269 -1245 -564 -395 -307 -714 -710 -968 -1220 -117 -236 -137 -294 -208 -590 -57 -240 -127 -533 -199 -830 -16 -66 -61 -253 -100 -415 -39 -162 -91 -378 -116 -480 -25 -102 -56 -232 -70 -290 -14 -58 -54 -224 -90 -368 -35 -145 -64 -266 -64 -268 0 -15 47 4 120 51 47 29 148 92 225 138 77 47 169 103 205 125 36 23 119 73 185 113 66 40 143 87 170 104 49 32 524 322 660 404 39 23 145 88 236 144 92 56 240 147 330 201 90 55 187 114 214 131 28 18 174 108 325 200 151 92 313 191 360 220 47 29 209 128 360 220 151 92 313 191 360 220 101 62 549 336 670 410 138 83 728 443 820 501 47 29 258 158 470 287 212 129 410 251 440 270 30 19 138 85 240 147 102 62 257 157 345 211 402 246 468 286 509 309 80 46 98 75 54 84 -56 11 -406 94 -643 152 -931 226 -1402 325 -1835 383 -47 7 -98 14 -115 17 -16 3 -120 14 -230 26 -221 22 -859 34 -990 18z"/>
<path d="M47910 51080 c-646 -46 -1315 -286 -2045 -733 -77 -47 -207 -127 -290 -177 -82 -50 -190 -116 -240 -146 -49 -31 -142 -87 -205 -126 -63 -38 -187 -114 -275 -167 -250 -153 -550 -336 -780 -476 -115 -70 -237 -145 -270 -165 -33 -21 -127 -78 -210 -128 -82 -50 -161 -100 -175 -111 -38 -32 -67 -22 380 -129 91 -22 251 -60 355 -86 105 -25 276 -66 380 -91 105 -25 206 -49 225 -55 33 -9 169 -42 530 -128 437 -105 533 -128 775 -187 143 -35 298 -73 345 -84 127 -30 646 -155 880 -212 287 -70 542 -132 700 -169 151 -36 641 -155 825 -200 66 -16 197 -48 290 -70 238 -57 466 -112 775 -187 509 -123 586 -142 675 -163 50 -12 191 -46 315 -76 124 -30 272 -66 330 -80 58 -14 168 -40 245 -59 77 -19 217 -52 310 -75 94 -22 233 -56 310 -75 77 -19 208 -50 290 -70 83 -19 212 -51 289 -70 160 -40 156 -40 156 -19 0 14 -175 312 -362 616 -29 48 -80 131 -112 185 -33 54 -81 132 -107 173 -25 41 -93 152 -149 245 -410 677 -668 1080 -880 1370 -311 426 -528 684 -806 956 -446 436 -877 706 -1359 850 -328 99 -759 145 -1115 119z"/>
<path d="M31485 50650 c-6 -9 331 -578 449 -760 13 -19 76 -123 141 -230 65 -107 135 -222 155 -255 21 -33 104 -168 185 -300 199 -326 327 -527 474 -746 143 -212 138 -205 319 -449 599 -808 1192 -1325 1809 -1578 168 -69 298 -108 543 -162 274 -60 709 -71 1025 -26 339 48 578 110 911 236 389 148 637 283 1464 793 41 25 95 58 120 73 174 105 641 390 670 409 19 12 274 167 565 345 292 177 541 330 554 339 53 37 42 46 -104 80 -221 51 -473 111 -1055 252 -91 22 -230 56 -310 75 -80 19 -217 53 -305 74 -88 21 -293 71 -455 110 -162 39 -367 88 -455 110 -155 38 -356 86 -710 171 -193 47 -592 143 -800 194 -77 19 -196 48 -265 64 -179 43 -679 163 -895 216 -229 56 -616 149 -825 199 -216 52 -430 104 -680 165 -91 22 -298 72 -460 111 -162 39 -358 86 -435 105 -77 19 -225 54 -330 80 -224 54 -461 111 -825 199 -146 36 -305 74 -355 86 -49 11 -95 23 -102 25 -7 2 -15 0 -18 -5z"/>
<path d="M42375 47308 c-3 -13 -26 -108 -51 -213 -25 -104 -56 -237 -70 -295 -14 -58 -40 -168 -59 -245 -56 -230 -139 -576 -195 -805 -67 -279 -123 -511 -165 -685 -40 -162 -184 -760 -221 -915 -14 -58 -45 -186 -69 -285 -24 -99 -83 -342 -131 -540 -47 -198 -104 -432 -125 -520 -22 -88 -57 -234 -79 -325 -82 -344 -162 -672 -211 -870 -27 -113 -59 -241 -69 -285 -10 -44 -27 -118 -38 -165 -12 -47 -53 -218 -92 -380 -86 -356 -134 -553 -195 -805 -25 -104 -57 -237 -71 -295 -45 -185 -164 -679 -210 -870 -25 -102 -56 -232 -70 -290 -14 -58 -50 -206 -80 -329 -58 -237 -58 -261 -9 -231 193 116 454 275 589 358 94 58 184 112 200 122 17 10 100 60 183 111 84 52 298 183 475 292 178 109 371 228 429 265 1338 846 2076 1587 2402 2412 148 374 222 889 188 1315 -57 715 -303 1374 -821 2200 -20 33 -113 184 -205 335 -92 151 -191 313 -220 360 -29 47 -98 162 -155 255 -56 94 -113 186 -126 205 -12 19 -72 116 -132 215 -60 99 -154 254 -210 345 -55 91 -153 252 -218 358 -140 233 -157 252 -169 200z"/>
<path d="M41119 47017 c-73 -45 -170 -104 -214 -130 -44 -26 -152 -92 -240 -146 -191 -117 -599 -367 -815 -498 -259 -158 -296 -181 -545 -333 -132 -81 -280 -172 -330 -202 -565 -344 -699 -426 -755 -461 -36 -22 -139 -85 -230 -140 -91 -54 -192 -116 -225 -137 -33 -20 -184 -113 -335 -205 -151 -92 -313 -191 -360 -220 -47 -29 -150 -92 -230 -140 -172 -105 -571 -348 -795 -486 -88 -54 -227 -139 -310 -189 -82 -50 -244 -149 -360 -220 -115 -70 -241 -147 -280 -171 -38 -23 -137 -83 -220 -134 -208 -127 -777 -474 -853 -519 -42 -25 -62 -44 -60 -54 3 -17 5 -18 178 -58 103 -23 227 -53 765 -184 529 -129 899 -208 1262 -271 1150 -197 2024 -149 2693 148 321 143 626 356 896 627 203 204 340 376 498 629 80 128 206 369 271 517 43 98 57 149 145 515 17 72 49 202 70 290 92 382 133 549 166 690 20 83 43 175 51 205 8 30 23 93 33 140 10 47 32 139 49 205 30 119 69 281 157 650 25 105 54 223 65 263 22 85 23 102 6 102 -7 0 -74 -37 -148 -83z"/>
</g>
</g>
  <g id="id2:id2" transform="matrix(1.25,0,0,1.25,0.0,0.0)"><g transform="translate(0.000000,2662.400000) scale(0.040000,-0.040000)" fill="#000000" stroke="none">
<path d="M10721 60492 c-174 -1 -319 -6 -325 -12 -7 -5 -36 -8 -66 -8 -30 1 -73 -1 -95 -5 -22 -4 -86 -9 -143 -12 -57 -3 -113 -10 -125 -14 -12 -5 -71 -14 -132 -21 -60 -7 -120 -19 -132 -26 -12 -8 -35 -14 -51 -14 -15 0 -55 -7 -87 -16 -33 -9 -86 -22 -119 -29 -32 -7 -62 -19 -67 -26 -4 -7 -23 -14 -41 -14 -18 -1 -49 -9 -68 -17 -19 -9 -52 -21 -72 -28 -21 -6 -40 -16 -43 -21 -4 -5 -13 -9 -22 -9 -23 0 -146 -61 -156 -77 -4 -7 -18 -13 -29 -13 -12 0 -31 -9 -42 -19 -12 -11 -42 -32 -67 -48 -104 -63 -136 -90 -256 -206 -249 -242 -370 -431 -487 -762 -29 -81 -55 -184 -71 -285 -8 -52 -20 -119 -26 -148 -14 -68 -14 -500 0 -544 5 -18 17 -80 25 -138 16 -119 44 -239 74 -320 12 -30 28 -73 36 -95 41 -110 162 -329 220 -396 17 -20 55 -69 85 -108 161 -210 405 -387 736 -532 83 -37 420 -137 478 -143 18 -2 57 -11 88 -20 31 -9 88 -18 127 -20 38 -2 75 -6 81 -10 6 -4 21 -6 34 -5 12 2 31 -2 42 -8 11 -5 83 -14 160 -18 77 -4 217 -11 310 -17 100 -6 1058 -13 2330 -17 l2160 -6 3 -8131 c2 -6684 0 -8133 -11 -8142 -9 -8 -667 -12 -2273 -13 -2164 -3 -2367 -5 -2532 -28 -39 -5 -111 -12 -160 -15 -48 -4 -118 -13 -157 -21 -38 -8 -95 -19 -125 -25 -30 -6 -73 -15 -95 -21 -22 -5 -53 -11 -68 -14 -31 -5 -120 -31 -277 -83 -100 -32 -312 -130 -412 -189 -147 -87 -306 -224 -420 -361 -105 -125 -188 -239 -188 -257 0 -5 -6 -16 -14 -24 -52 -59 -184 -378 -199 -481 -2 -14 -9 -36 -15 -50 -33 -72 -66 -524 -50 -698 47 -520 212 -900 538 -1236 116 -120 234 -220 305 -260 17 -9 44 -25 60 -36 27 -17 170 -89 281 -141 22 -10 48 -19 57 -19 9 0 18 -4 21 -9 3 -4 27 -14 53 -20 27 -7 59 -18 73 -25 14 -7 54 -19 90 -26 36 -7 72 -17 81 -21 10 -5 37 -11 60 -13 24 -2 57 -9 74 -16 16 -6 59 -15 95 -20 36 -5 103 -15 150 -23 95 -17 362 -40 407 -36 15 2 38 -2 50 -9 31 -17 13354 -17 13386 0 12 6 42 11 67 10 115 -5 564 50 616 75 17 8 35 13 40 12 15 -4 95 12 153 32 30 11 64 19 75 19 12 0 32 6 46 13 14 8 41 17 59 20 18 4 47 13 64 21 18 7 65 26 106 42 41 15 84 36 96 46 13 10 32 18 43 18 10 0 27 9 37 20 10 11 25 20 34 20 14 0 28 8 122 71 117 77 156 111 277 236 74 76 141 147 150 158 112 134 211 304 276 475 20 52 41 105 46 116 4 12 12 43 15 70 4 27 12 55 18 62 10 13 39 174 38 216 0 11 5 28 11 39 15 29 12 551 -4 580 -12 23 -13 31 -21 145 -3 41 -13 84 -21 97 -9 14 -16 35 -16 49 0 50 -95 306 -119 320 -6 4 -9 12 -5 17 3 5 -2 22 -12 37 -10 15 -27 43 -37 62 -79 153 -171 274 -328 430 -102 101 -127 122 -249 211 -63 46 -324 177 -420 212 -36 13 -81 29 -100 36 -83 30 -278 79 -410 102 -30 6 -84 17 -120 25 -36 8 -101 16 -145 19 -44 3 -116 10 -160 16 -194 25 -399 27 -2539 28 -1612 1 -2264 5 -2273 13 -11 9 -13 1443 -11 8142 l3 8131 2155 6 c2098 7 2246 8 2531 29 74 6 162 10 195 10 35 0 68 6 79 14 10 7 27 11 37 8 10 -2 26 -1 35 4 10 4 47 8 82 10 35 1 93 9 130 18 36 9 113 27 171 41 153 37 272 74 385 119 82 33 308 150 370 192 101 68 135 97 257 217 174 172 313 370 393 557 15 36 33 79 41 95 38 88 85 269 114 445 19 115 22 169 21 370 -1 129 -6 248 -11 265 -5 16 -14 73 -20 125 -14 120 -46 237 -107 394 -117 304 -336 595 -588 785 -114 85 -132 96 -290 175 -152 76 -181 88 -295 126 -139 45 -182 58 -245 70 -33 6 -69 15 -80 20 -11 4 -56 13 -100 20 -44 6 -96 15 -115 20 -34 9 -206 31 -243 31 -10 0 -30 5 -44 10 -15 5 -144 12 -287 15 -144 3 -274 7 -290 9 -16 3 -1408 5 -3093 5 -1988 0 -3071 4 -3083 10 -17 9 -5694 20 -6559 12z"/>
<path d="M7450 30527 c-195 -9 -237 -12 -295 -20 -22 -4 -92 -9 -155 -13 -63 -3 -119 -9 -125 -13 -5 -5 -57 -14 -115 -20 -58 -7 -115 -19 -128 -27 -13 -9 -29 -13 -36 -11 -14 6 -100 -9 -131 -23 -11 -5 -45 -14 -75 -20 -30 -7 -71 -19 -90 -27 -19 -9 -51 -19 -70 -24 -138 -30 -442 -183 -575 -289 -27 -22 -73 -57 -101 -79 -28 -22 -86 -78 -130 -126 -81 -89 -234 -291 -234 -308 0 -6 -6 -18 -14 -26 -24 -28 -92 -163 -125 -251 -18 -47 -39 -96 -46 -111 -8 -14 -17 -50 -21 -80 -4 -29 -12 -65 -19 -79 -12 -26 -38 -160 -33 -176 1 -5 -4 -20 -11 -33 -11 -19 -14 -94 -14 -335 0 -265 2 -321 18 -381 9 -38 19 -90 21 -115 2 -25 8 -56 14 -70 5 -14 14 -45 20 -70 25 -101 110 -310 159 -390 5 -8 30 -50 55 -92 25 -43 73 -113 106 -155 77 -98 281 -306 329 -335 20 -12 54 -37 75 -55 22 -18 44 -33 48 -33 5 0 28 -13 51 -28 205 -139 674 -291 1022 -332 55 -6 111 -16 125 -20 14 -5 77 -12 140 -16 414 -22 534 -26 873 -32 l377 -7 0 -8133 c0 -4474 -2 -8138 -5 -8143 -3 -4 -18 -8 -33 -8 -149 -1 -411 -13 -427 -20 -11 -5 -83 -15 -160 -21 -88 -8 -149 -18 -163 -27 -13 -8 -30 -12 -37 -9 -18 6 -195 -30 -209 -44 -5 -5 -22 -10 -38 -10 -25 0 -66 -12 -228 -68 -125 -43 -410 -191 -441 -228 -7 -9 -31 -25 -53 -36 -48 -24 -294 -262 -372 -359 -78 -97 -157 -223 -219 -348 -30 -60 -55 -114 -55 -119 0 -5 -7 -23 -15 -38 -8 -16 -15 -40 -15 -53 0 -13 -9 -38 -19 -55 -11 -17 -22 -53 -26 -81 -3 -27 -13 -66 -21 -85 -35 -87 -72 -642 -44 -675 6 -7 10 -30 10 -51 0 -49 5 -98 12 -110 3 -5 6 -29 7 -54 1 -51 36 -196 76 -315 95 -281 258 -539 477 -751 83 -81 250 -214 269 -214 6 0 25 -11 42 -24 18 -13 93 -53 167 -89 214 -103 575 -212 765 -233 33 -3 89 -12 125 -19 36 -7 148 -18 250 -25 102 -6 201 -16 220 -21 34 -10 6120 -6 6296 3 44 3 86 8 91 11 6 4 68 9 138 12 70 3 136 11 148 17 12 7 32 11 44 9 13 -1 28 1 35 5 6 4 41 9 77 11 36 2 76 10 88 19 13 8 28 12 33 9 9 -5 226 49 325 81 469 153 793 392 1048 772 67 99 187 340 187 375 0 12 6 32 14 43 18 25 60 183 76 284 6 41 16 85 20 97 14 34 21 366 11 518 -5 77 -16 171 -25 210 -9 38 -16 85 -16 102 0 18 -6 50 -14 70 -7 21 -26 79 -41 128 -16 50 -33 99 -39 110 -5 11 -17 40 -26 65 -19 56 -125 243 -188 331 -192 271 -425 464 -729 605 -52 24 -101 44 -110 44 -9 0 -30 8 -47 19 -17 10 -49 22 -70 26 -21 3 -48 13 -60 20 -22 14 -99 36 -221 61 -38 9 -79 19 -90 24 -26 11 -166 30 -177 24 -4 -3 -18 2 -30 10 -22 14 -217 37 -305 36 -24 -1 -51 3 -60 9 -10 5 -139 12 -288 15 -260 5 -1679 8 -1720 3 l-20 -2 -3 6264 c-1 3803 2 6269 7 6274 6 6 17 -6 29 -29 11 -22 29 -48 41 -58 12 -11 21 -24 21 -29 0 -8 50 -89 126 -201 10 -16 23 -36 29 -45 5 -9 26 -41 47 -73 21 -31 38 -58 38 -61 0 -3 15 -27 33 -54 29 -45 78 -121 244 -381 149 -233 180 -281 225 -350 26 -41 48 -76 48 -79 0 -2 13 -23 28 -46 16 -23 44 -67 64 -97 83 -130 146 -227 164 -254 10 -16 23 -36 29 -45 8 -14 30 -47 93 -146 7 -11 20 -33 30 -48 9 -16 31 -50 48 -76 17 -26 98 -153 180 -282 82 -129 171 -269 199 -311 27 -43 70 -110 95 -150 25 -39 61 -97 81 -127 83 -130 134 -209 167 -261 19 -30 51 -80 71 -110 47 -71 58 -89 79 -123 9 -16 31 -50 48 -76 17 -26 98 -153 180 -282 82 -129 171 -269 199 -311 27 -43 70 -110 95 -150 25 -39 61 -97 81 -127 83 -130 134 -209 167 -261 19 -30 52 -80 73 -112 22 -31 39 -61 39 -66 0 -5 7 -15 15 -22 8 -6 30 -40 50 -73 20 -34 52 -88 73 -119 20 -31 82 -128 137 -215 55 -87 132 -206 170 -265 39 -59 90 -140 115 -180 25 -39 61 -97 81 -127 19 -31 53 -83 74 -116 21 -33 56 -86 77 -118 21 -32 38 -61 38 -63 0 -3 20 -34 45 -68 25 -35 45 -68 45 -74 0 -5 7 -15 15 -22 8 -6 30 -40 50 -73 20 -34 52 -88 73 -119 20 -31 82 -128 137 -215 55 -87 132 -206 170 -265 39 -59 90 -140 115 -180 25 -39 61 -97 81 -127 19 -31 53 -83 74 -116 21 -33 56 -86 77 -118 21 -32 38 -61 38 -63 0 -3 19 -33 43 -67 44 -65 57 -84 85 -130 22 -36 81 -129 118 -186 16 -24 38 -59 49 -77 30 -51 161 -256 240 -376 38 -60 93 -144 120 -188 57 -91 146 -230 217 -338 26 -41 48 -76 48 -79 0 -2 13 -23 28 -46 25 -36 86 -130 167 -257 13 -19 36 -55 51 -79 16 -24 38 -59 49 -77 30 -51 161 -256 240 -376 38 -60 93 -144 120 -188 57 -91 146 -230 217 -338 26 -41 48 -76 48 -79 0 -2 13 -23 28 -46 16 -23 44 -67 64 -97 83 -130 146 -227 164 -254 10 -16 23 -36 29 -45 5 -9 26 -41 47 -73 21 -31 38 -58 38 -61 0 -3 15 -27 33 -54 29 -45 78 -121 244 -381 149 -233 180 -281 225 -350 26 -41 48 -76 48 -79 0 -2 13 -23 28 -46 16 -23 44 -67 64 -97 19 -30 61 -95 93 -145 32 -49 69 -108 83 -130 14 -22 33 -51 44 -65 10 -14 29 -45 43 -70 14 -25 47 -77 73 -117 67 -102 243 -377 267 -416 22 -36 153 -240 196 -305 16 -24 29 -45 29 -48 0 -3 13 -24 28 -47 16 -23 44 -67 64 -97 19 -30 57 -89 83 -130 26 -41 64 -100 83 -130 19 -30 51 -80 71 -110 47 -71 58 -89 79 -123 9 -16 31 -50 48 -76 17 -26 98 -153 180 -282 82 -129 171 -269 199 -311 27 -43 70 -110 95 -150 25 -39 61 -97 81 -127 83 -130 134 -209 167 -261 19 -30 52 -80 73 -112 22 -31 39 -61 39 -66 0 -5 7 -15 15 -22 8 -6 30 -40 50 -73 20 -34 109 -177 200 -317 90 -140 199 -310 242 -378 43 -68 95 -149 115 -180 20 -31 46 -73 58 -92 11 -19 47 -75 80 -125 33 -49 67 -105 76 -123 9 -18 28 -41 42 -52 l25 -20 2046 0 c1622 0 2051 3 2064 13 16 11 17 637 20 10237 l2 10225 52 5 c29 3 57 10 62 15 6 6 48 8 103 4 51 -3 104 -1 117 3 14 5 74 11 135 14 132 6 223 19 242 34 7 7 17 9 23 6 24 -15 303 48 461 104 354 126 564 255 791 487 265 270 395 493 502 863 9 30 21 87 27 125 6 39 15 86 20 105 27 98 25 586 -3 730 -3 14 -10 56 -16 93 -6 37 -17 87 -25 110 -7 23 -26 83 -41 132 -16 50 -37 102 -46 116 -10 14 -15 29 -12 33 4 3 -3 20 -15 36 -12 16 -22 34 -22 41 0 25 -80 161 -159 269 -68 94 -287 318 -365 373 -32 23 -72 53 -88 66 -58 47 -316 181 -349 181 -11 0 -32 9 -46 20 -14 11 -41 22 -62 25 -20 4 -47 12 -61 19 -37 20 -252 79 -355 97 -27 5 -97 18 -155 29 -58 11 -144 22 -191 24 -47 2 -95 8 -106 14 -37 20 -208 23 -1768 28 -865 4 -1537 10 -1547 15 -9 5 -694 9 -1603 9 -1331 1 -1591 -2 -1609 -13 -12 -8 -36 -12 -56 -10 -45 6 -379 -23 -411 -35 -13 -5 -60 -13 -104 -17 -43 -4 -91 -11 -104 -17 -14 -5 -59 -16 -100 -23 -41 -8 -79 -19 -85 -25 -5 -5 -22 -10 -36 -10 -24 0 -101 -23 -262 -79 -227 -79 -520 -264 -685 -433 -75 -78 -202 -234 -216 -268 -6 -14 -21 -36 -33 -50 -66 -73 -201 -392 -246 -580 -31 -132 -61 -391 -61 -540 0 -121 3 -166 18 -290 2 -19 7 -64 10 -100 4 -36 12 -81 20 -100 7 -19 16 -57 20 -85 4 -27 12 -59 17 -70 6 -10 17 -40 24 -65 85 -304 322 -649 604 -880 36 -29 76 -57 90 -63 14 -6 36 -21 50 -33 27 -24 38 -30 221 -120 68 -34 142 -67 164 -74 22 -7 54 -19 70 -26 17 -7 44 -15 60 -19 17 -4 44 -13 60 -20 17 -7 48 -16 70 -20 22 -4 58 -13 80 -21 22 -8 59 -16 82 -17 23 -1 45 -6 49 -10 4 -4 20 -7 35 -7 16 0 38 -5 51 -10 25 -11 205 -35 383 -51 271 -24 554 -32 1313 -38 l812 -6 0 -6213 c0 -3418 -3 -6218 -6 -6223 -3 -6 0 -17 7 -25 8 -10 9 -18 2 -25 -10 -10 -43 36 -188 266 -33 53 -106 166 -162 252 -57 87 -103 163 -103 169 0 7 -4 16 -10 19 -10 6 -101 140 -111 165 -4 8 -41 66 -83 129 -42 62 -76 118 -76 124 0 6 -6 18 -14 26 -15 17 -93 135 -160 243 -61 97 -101 160 -122 192 -20 30 -66 101 -99 155 -11 17 -39 62 -63 99 -23 37 -57 91 -75 120 -17 29 -43 69 -57 87 -14 19 -47 71 -75 115 -27 45 -82 132 -121 193 -40 62 -103 161 -140 220 -38 59 -105 164 -149 233 -44 68 -107 167 -140 219 -33 53 -96 152 -140 220 -44 69 -107 168 -140 221 -33 52 -106 165 -162 251 -57 87 -103 163 -103 169 0 7 -4 16 -10 19 -10 6 -89 124 -119 177 -36 63 -76 126 -108 167 -18 24 -33 48 -33 53 0 4 -29 51 -65 104 -36 53 -65 98 -65 101 0 3 -25 45 -56 92 -31 47 -68 104 -82 126 -14 22 -33 51 -44 65 -10 14 -29 45 -43 70 -14 25 -36 59 -48 77 -12 17 -40 60 -61 95 -57 91 -100 159 -122 192 -19 28 -48 74 -109 171 -16 26 -62 97 -101 159 -40 61 -102 158 -138 216 -142 223 -214 336 -429 673 -45 70 -109 170 -142 223 -33 52 -106 166 -162 252 -57 86 -103 162 -103 169 0 6 -4 15 -10 18 -10 6 -101 140 -111 165 -4 8 -41 66 -83 129 -42 62 -76 120 -76 127 0 7 -4 16 -10 19 -10 6 -102 141 -109 160 -2 6 -28 48 -59 95 -30 47 -66 103 -80 125 -14 22 -33 51 -44 65 -10 14 -29 45 -43 70 -14 25 -36 59 -48 77 -12 17 -40 60 -61 95 -75 121 -109 173 -127 198 -11 14 -30 45 -44 70 -14 25 -36 59 -48 77 -12 17 -58 89 -102 158 -44 70 -111 176 -150 236 -38 60 -101 159 -140 220 -38 61 -101 160 -140 219 -38 60 -106 166 -150 235 -44 70 -107 169 -140 220 -33 52 -96 151 -140 221 -44 69 -117 182 -162 251 -45 68 -83 130 -86 136 -2 7 -39 63 -81 126 -42 62 -76 120 -76 127 0 7 -4 16 -10 19 -10 6 -102 141 -109 160 -2 6 -28 48 -59 95 -30 47 -65 101 -77 120 -12 19 -30 48 -41 64 -21 31 -67 104 -99 155 -11 17 -39 62 -63 99 -23 37 -57 91 -75 120 -17 30 -41 66 -53 80 -11 15 -29 42 -40 61 -10 19 -27 43 -36 53 -10 10 -18 23 -18 28 0 9 -31 60 -145 235 -57 88 -168 261 -240 376 -38 61 -101 160 -140 220 -100 156 -287 450 -430 674 -174 275 -198 311 -216 335 -11 14 -23 34 -28 45 -5 11 -43 71 -85 134 -42 62 -76 120 -76 127 0 7 -4 16 -10 19 -10 6 -101 140 -111 165 -4 8 -41 66 -83 129 -42 62 -76 119 -76 126 0 6 -9 20 -21 31 -12 10 -32 39 -45 64 -14 25 -35 59 -47 77 -12 17 -40 60 -61 95 -75 121 -109 173 -127 198 -11 14 -30 45 -44 70 -14 25 -36 59 -48 77 -12 17 -41 62 -64 100 -67 107 -110 175 -133 208 -11 17 -44 67 -73 113 -128 203 -197 311 -262 413 -38 60 -105 164 -148 232 -43 67 -106 166 -140 219 -34 54 -98 154 -142 224 -44 70 -93 144 -110 166 l-30 39 -1146 0 c-742 -1 -1155 2 -1175 9 -36 12 -2487 19 -2744 7z"/>
<path d="M35786 30532 c-99 -1 -185 -7 -191 -12 -6 -5 -35 -8 -65 -8 -30 1 -73 -1 -95 -5 -22 -4 -86 -9 -143 -12 -57 -3 -113 -10 -125 -14 -12 -5 -69 -14 -127 -20 -58 -7 -118 -18 -135 -25 -16 -8 -57 -18 -90 -24 -114 -20 -228 -51 -236 -63 -4 -8 -23 -14 -41 -14 -18 -1 -49 -9 -68 -17 -19 -9 -52 -21 -72 -28 -21 -6 -40 -16 -43 -21 -4 -5 -13 -9 -22 -9 -23 0 -146 -61 -156 -77 -4 -7 -18 -13 -29 -13 -12 0 -31 -9 -42 -19 -12 -11 -42 -32 -67 -48 -104 -63 -136 -90 -256 -206 -250 -243 -380 -449 -493 -777 -25 -73 -60 -228 -75 -329 -9 -57 -18 -108 -21 -113 -10 -16 -6 -498 4 -526 6 -15 16 -72 22 -127 7 -55 18 -112 26 -127 8 -15 14 -35 14 -46 0 -59 141 -410 186 -462 7 -9 24 -36 38 -61 41 -78 147 -216 251 -327 72 -77 230 -210 265 -224 14 -5 36 -20 50 -33 85 -80 486 -258 632 -281 24 -4 52 -13 63 -20 11 -7 40 -15 65 -17 25 -3 58 -10 75 -17 16 -6 81 -18 144 -26 63 -8 119 -18 123 -20 11 -7 211 -23 433 -34 257 -14 270 -16 300 -53 14 -18 68 -95 119 -172 168 -254 288 -429 317 -463 16 -18 29 -37 29 -42 0 -8 32 -56 93 -140 10 -14 44 -64 75 -111 63 -94 172 -255 307 -454 49 -71 125 -184 170 -250 44 -66 95 -140 113 -165 18 -25 59 -84 90 -131 64 -96 137 -204 267 -394 49 -71 122 -179 163 -240 40 -60 82 -119 93 -131 10 -11 19 -23 19 -27 0 -6 43 -70 185 -277 28 -41 114 -167 190 -280 135 -199 173 -255 340 -499 44 -65 116 -171 161 -237 44 -65 111 -164 149 -219 38 -55 116 -169 173 -254 57 -84 117 -172 133 -195 16 -22 42 -59 56 -81 46 -70 352 -520 605 -891 46 -66 119 -174 164 -240 44 -65 121 -177 169 -249 49 -71 130 -190 180 -263 49 -73 153 -226 231 -340 77 -114 179 -263 225 -332 47 -69 125 -183 175 -254 49 -70 98 -143 109 -161 11 -18 40 -61 65 -97 25 -35 72 -105 105 -154 34 -49 124 -181 200 -294 76 -113 162 -239 190 -280 27 -41 65 -95 83 -120 18 -25 59 -84 90 -131 64 -96 137 -204 267 -394 49 -71 122 -179 163 -240 40 -60 82 -119 93 -131 10 -11 19 -23 19 -27 0 -3 30 -50 67 -104 37 -54 109 -160 160 -235 198 -293 226 -334 244 -354 l19 -20 0 -3081 c0 -2503 -2 -3083 -13 -3091 -9 -8 -480 -12 -1567 -13 -855 -1 -1600 -5 -1655 -10 -349 -28 -650 -77 -855 -139 -36 -10 -99 -29 -140 -41 -41 -12 -84 -27 -95 -33 -11 -7 -39 -18 -61 -24 -23 -7 -47 -19 -54 -27 -7 -8 -21 -15 -32 -15 -28 0 -177 -82 -295 -163 -316 -216 -592 -585 -698 -932 -14 -50 -31 -103 -37 -120 -18 -53 -50 -227 -58 -320 -11 -120 -4 -580 9 -630 6 -22 15 -69 21 -104 16 -95 78 -297 117 -381 19 -41 53 -111 87 -177 35 -68 112 -181 176 -258 160 -194 282 -302 475 -422 45 -28 326 -163 340 -163 4 0 21 -6 38 -14 18 -8 57 -22 87 -31 185 -55 221 -64 280 -75 36 -6 76 -16 90 -21 14 -5 68 -14 120 -19 52 -6 109 -16 125 -21 17 -5 120 -17 230 -26 180 -14 717 -16 5463 -20 4020 -2 5268 0 5285 9 12 6 42 11 67 10 115 -5 564 50 616 75 17 8 35 13 40 12 15 -4 95 12 153 32 30 11 64 19 75 19 12 0 32 6 46 13 14 8 41 17 59 20 18 4 47 13 64 21 18 7 65 26 106 42 41 15 84 36 96 46 13 10 32 18 43 18 10 0 27 9 37 20 10 11 26 20 35 20 10 0 28 8 41 19 13 10 38 25 54 34 70 36 198 144 313 263 133 139 139 146 191 214 39 51 127 192 161 260 54 106 116 273 126 341 4 24 12 50 17 57 10 13 39 175 38 216 0 11 5 28 11 39 13 25 12 551 -1 576 -5 9 -15 64 -21 121 -6 58 -18 115 -26 127 -8 12 -14 33 -14 47 0 50 -95 306 -119 320 -6 4 -9 12 -5 17 3 5 -2 22 -12 37 -10 15 -27 43 -37 62 -79 153 -171 274 -328 430 -102 101 -127 122 -249 211 -63 46 -324 177 -420 212 -36 13 -81 29 -100 36 -83 30 -278 79 -410 102 -30 6 -84 17 -120 25 -36 8 -101 16 -145 19 -44 3 -116 10 -160 16 -189 24 -357 27 -1829 28 -996 1 -1556 6 -1568 12 l-18 10 2 3082 3 3082 143 210 c131 192 470 693 899 1328 93 137 173 256 179 265 6 10 41 62 78 117 36 55 82 123 101 150 20 28 156 229 303 447 147 219 338 502 425 630 87 128 169 251 184 273 33 51 142 213 509 755 161 239 369 547 461 683 93 137 173 256 179 265 6 10 41 62 78 117 36 55 82 123 101 150 20 28 156 229 303 447 147 219 338 502 425 630 87 128 169 251 184 273 33 51 142 213 509 755 161 239 369 547 461 683 93 137 173 256 179 265 6 10 41 62 78 117 36 55 80 120 98 145 17 25 115 169 216 320 102 151 237 352 301 445 63 94 169 251 236 350 66 99 137 203 158 232 l38 51 57 7 c31 4 113 8 182 10 69 2 141 6 160 9 19 3 96 8 169 11 74 4 143 11 154 16 10 6 25 8 34 5 8 -3 22 -2 31 3 9 5 49 12 87 15 39 3 99 13 135 21 181 42 312 75 320 80 6 3 31 12 57 20 230 65 490 199 673 344 153 122 376 384 461 542 8 15 25 46 38 70 91 167 177 462 201 689 10 104 4 586 -9 635 -6 22 -15 69 -21 105 -11 70 -43 187 -65 235 -7 17 -16 46 -19 66 -4 21 -15 48 -26 62 -11 14 -20 34 -20 45 0 11 -7 25 -15 32 -8 7 -15 20 -15 29 0 10 -11 32 -25 51 -14 19 -25 41 -25 50 0 9 -9 25 -20 35 -11 10 -20 24 -20 30 0 33 -186 252 -330 389 -88 83 -124 111 -254 194 -78 51 -263 142 -287 142 -11 0 -32 9 -46 20 -14 11 -41 22 -62 25 -20 4 -47 12 -61 19 -37 20 -252 79 -355 97 -27 5 -97 18 -155 29 -58 11 -144 22 -191 24 -47 2 -95 8 -106 14 -35 19 -189 22 -1393 28 -635 3 -1162 10 -1171 15 -26 13 -2283 13 -2342 -1 -27 -6 -63 -10 -80 -10 -18 0 -59 -2 -92 -5 -33 -3 -100 -8 -150 -11 -49 -3 -97 -10 -105 -14 -9 -5 -58 -13 -110 -19 -149 -17 -489 -93 -500 -111 -4 -7 -25 -13 -46 -14 -22 -2 -59 -12 -83 -24 -25 -12 -52 -22 -60 -22 -9 0 -31 -9 -49 -20 -18 -11 -39 -20 -48 -20 -21 0 -249 -120 -315 -165 -172 -119 -303 -240 -425 -393 -77 -95 -164 -230 -164 -253 0 -7 -9 -22 -19 -33 -34 -37 -137 -296 -145 -365 -3 -22 -11 -50 -19 -63 -8 -13 -20 -70 -27 -128 -6 -57 -16 -112 -21 -121 -9 -18 -15 -571 -6 -586 3 -5 13 -53 22 -108 17 -101 21 -116 71 -280 34 -113 129 -329 160 -365 7 -9 24 -36 38 -61 26 -49 88 -135 177 -245 95 -116 236 -238 429 -369 69 -47 130 -85 135 -85 6 0 33 -15 60 -33 28 -19 118 -66 200 -106 83 -40 157 -76 166 -81 33 -17 171 -70 184 -70 8 0 17 -5 20 -10 4 -6 -90 -155 -208 -333 -118 -177 -217 -330 -220 -339 -4 -10 -11 -18 -16 -18 -5 0 -14 -12 -20 -27 -6 -16 -19 -39 -30 -53 -39 -52 -877 -1311 -898 -1351 -12 -23 -31 -52 -41 -63 -16 -18 -829 -1241 -857 -1288 -6 -9 -230 -347 -499 -750 -752 -1128 -992 -1491 -999 -1510 -4 -10 -11 -18 -17 -18 -6 0 -15 -12 -21 -27 l-11 -28 -14 20 c-8 11 -27 38 -41 60 -77 118 -238 353 -257 376 -11 14 -33 46 -48 70 -31 49 -78 119 -153 229 -27 40 -66 97 -85 126 -58 88 -444 656 -515 757 -22 32 -56 82 -75 111 -19 29 -57 86 -85 126 -62 91 -112 164 -149 221 -15 24 -33 51 -40 60 -16 24 -136 199 -268 394 -63 94 -130 192 -149 218 -19 27 -50 73 -69 102 -19 29 -57 85 -85 125 -53 77 -102 149 -149 221 -15 24 -33 51 -40 60 -29 41 -203 299 -297 439 -57 85 -107 156 -110 158 -4 2 -27 35 -50 74 -24 38 -53 82 -65 97 -11 14 -31 44 -44 66 -13 22 -35 54 -49 71 -14 17 -38 51 -53 75 -32 50 -65 101 -198 296 -52 77 -140 207 -195 289 -54 82 -114 167 -132 188 -18 22 -33 43 -33 47 0 5 -15 29 -32 54 -18 26 -49 70 -68 99 -19 29 -57 86 -85 126 -27 40 -66 97 -85 125 -19 29 -71 106 -115 171 -95 142 -101 153 -77 161 49 16 287 131 377 181 165 92 306 184 398 259 32 27 73 58 90 71 57 41 188 165 245 233 148 173 217 273 296 427 59 117 73 151 116 287 48 155 58 198 65 265 3 36 11 94 17 130 17 92 14 391 -5 550 -16 128 -22 159 -69 325 -44 159 -110 302 -233 505 -11 18 -34 49 -51 69 -17 20 -35 44 -41 54 -5 10 -32 43 -59 74 -117 134 -245 244 -372 320 -42 25 -89 54 -104 65 -15 10 -36 18 -46 18 -10 0 -27 9 -37 20 -10 11 -27 20 -38 20 -11 0 -28 6 -36 14 -19 17 -114 54 -241 94 -158 50 -201 62 -232 62 -16 0 -39 6 -51 14 -25 15 -163 39 -177 31 -5 -3 -20 1 -32 9 -14 8 -77 19 -158 26 -74 6 -146 16 -160 20 -44 16 -222 20 -1345 25 -681 3 -1113 9 -1135 15 -33 10 -1706 19 -2144 12z"/>
</g>
</g>
</svg>
