<?xml version="1.0" standalone="no"?>
<!DOCTYPE svg PUBLIC "-//W3C//DTD SVG 1.1//EN"
 "http://www.w3.org/Graphics/SVG/1.1/DTD/svg11.dtd">
<!-- Created with svg_stack (http://github.com/astraw/svg_stack) -->
<svg xmlns:sodipodi="http://sodipodi.sourceforge.net/DTD/sodipodi-0.dtd" xmlns="http://www.w3.org/2000/svg" version="1.1" width="1000.0" height="1000.0">
  <defs/>
  <g id="id0:id0" transform="matrix(1.25,0,0,1.25,0.0,0.0)"><g transform="translate(0.000000,800.000000) scale(0.040000,-0.040000)" fill="#ffffff" stroke="none">
<path d="M7815 16623 c-301 -18 -494 -40 -770 -88 -87 -15 -118 -22 -290 -67 -94 -24 -363 -107 -385 -119 -8 -5 -46 -20 -85 -35 -81 -30 -111 -44 -255 -113 -320 -154 -546 -311 -840 -586 -72 -67 -256 -290 -336 -405 -196 -284 -356 -663 -429 -1017 -46 -220 -58 -350 -58 -608 -1 -388 39 -642 154 -990 64 -192 180 -432 287 -597 120 -184 388 -477 557 -610 136 -106 404 -278 496 -318 13 -5 31 -14 39 -19 47 -30 255 -113 415 -166 366 -123 777 -195 1215 -214 109 -5 203 -12 209 -15 8 -5 7 -15 -4 -34 -32 -57 -104 -266 -133 -386 -13 -55 -17 -117 -17 -271 0 -187 2 -207 28 -305 28 -108 33 -119 85 -230 62 -131 146 -246 280 -385 55 -57 98 -106 94 -109 -3 -3 -75 -6 -161 -6 -437 0 -1222 -72 -1566 -144 -44 -9 -114 -24 -155 -32 -80 -17 -346 -81 -445 -108 -90 -25 -386 -125 -415 -140 -14 -7 -43 -19 -65 -26 -45 -14 -155 -64 -259 -116 -37 -19 -73 -34 -79 -34 -6 0 -18 -6 -26 -14 -9 -7 -43 -28 -76 -46 -33 -17 -80 -45 -105 -61 -25 -16 -56 -34 -70 -41 -78 -39 -319 -229 -453 -358 -125 -119 -314 -351 -373 -459 -11 -18 -23 -41 -29 -50 -132 -214 -231 -484 -294 -801 -49 -242 -51 -624 -5 -849 20 -98 62 -251 76 -275 5 -11 18 -42 28 -70 16 -46 64 -149 107 -231 112 -212 348 -483 608 -698 55 -45 320 -227 331 -227 4 0 15 -6 23 -14 44 -40 426 -229 586 -290 39 -15 79 -31 90 -36 11 -5 40 -17 65 -25 25 -9 70 -25 100 -36 30 -11 78 -26 105 -34 28 -8 95 -27 150 -44 55 -16 159 -43 230 -61 72 -17 148 -35 170 -41 61 -15 224 -45 320 -59 33 -5 87 -14 120 -19 87 -15 385 -48 570 -63 206 -16 906 -16 1130 0 332 24 666 69 940 126 199 41 352 81 600 157 93 28 355 129 469 181 116 52 359 178 421 218 17 11 44 27 60 36 65 36 255 172 355 253 277 227 491 470 686 781 130 208 244 503 304 788 68 322 45 850 -51 1211 -26 97 -78 249 -98 289 -5 9 -21 47 -36 83 -29 73 -147 292 -175 324 -9 11 -27 38 -40 60 -13 22 -75 105 -138 185 -115 146 -427 464 -568 580 -37 30 -91 75 -119 100 -82 71 -462 358 -576 435 -24 16 -60 43 -80 60 -20 16 -53 41 -73 55 -42 28 -205 160 -314 253 -93 79 -314 305 -350 359 -148 221 -189 336 -180 506 5 92 51 250 89 304 11 14 19 29 19 33 0 21 160 216 254 310 107 106 318 284 419 354 27 18 70 52 96 75 26 22 82 70 124 106 164 139 404 401 502 548 14 20 32 48 42 62 65 95 112 173 118 192 4 13 13 30 20 38 6 8 25 42 40 75 15 33 31 67 35 76 59 121 130 356 167 549 28 148 25 633 -5 820 -20 129 -61 320 -82 385 -5 17 -16 50 -24 75 -37 115 -81 224 -130 325 -30 61 -57 117 -60 125 -25 63 -196 303 -302 424 -89 101 -277 269 -372 332 -29 19 -50 40 -47 45 4 5 195 9 473 9 271 0 473 4 482 10 8 5 44 38 80 73 209 205 727 705 740 713 8 5 31 26 50 47 29 31 32 39 20 47 -13 9 -4140 12 -4275 3z m-90 -658 c108 -21 344 -93 366 -112 8 -7 19 -13 24 -13 11 0 116 -53 180 -90 28 -16 57 -32 65 -36 35 -18 151 -103 230 -168 148 -123 314 -299 434 -459 64 -86 196 -295 236 -372 17 -33 35 -67 40 -75 28 -45 140 -302 140 -322 0 -8 4 -18 9 -23 33 -37 165 -510 187 -675 3 -25 10 -58 15 -75 16 -55 39 -371 39 -531 0 -458 -98 -834 -293 -1130 -187 -285 -435 -468 -752 -555 -218 -59 -521 -71 -745 -28 -30 6 -77 15 -105 21 -197 38 -505 173 -710 309 -235 156 -489 398 -640 609 -124 174 -171 250 -257 425 -87 175 -91 182 -126 280 -54 147 -99 309 -146 525 -44 206 -63 631 -37 860 30 276 134 645 222 790 5 8 17 31 25 50 46 101 198 302 306 406 243 233 491 355 823 404 94 14 367 5 470 -15z m542 -7535 c131 -11 363 -42 443 -60 275 -62 431 -108 600 -180 41 -17 86 -35 100 -40 37 -13 165 -80 245 -128 39 -24 79 -48 90 -55 207 -124 441 -331 595 -527 74 -93 94 -122 158 -225 39 -63 142 -279 142 -297 0 -8 4 -18 9 -23 5 -6 20 -46 34 -90 71 -223 98 -467 78 -702 -47 -559 -294 -997 -758 -1344 -51 -38 -94 -69 -97 -69 -2 0 -31 -17 -63 -37 -143 -92 -434 -226 -593 -272 -25 -7 -61 -19 -80 -26 -34 -12 -169 -47 -315 -80 -106 -25 -350 -62 -540 -82 -131 -13 -254 -18 -535 -18 -324 0 -383 3 -525 23 -88 12 -187 28 -220 36 -33 8 -103 24 -155 36 -52 12 -120 30 -150 40 -30 10 -86 28 -125 40 -139 45 -376 153 -517 235 -407 237 -718 560 -907 940 -89 180 -128 307 -167 545 -24 144 -14 441 19 575 47 193 116 360 211 510 17 28 36 57 41 66 115 184 389 462 591 599 49 34 71 48 195 131 31 20 67 40 80 44 13 4 31 13 39 21 39 34 367 179 525 232 273 91 600 160 870 181 150 12 537 12 682 1z"/>
<path d="M14005 12618 c-3 -7 -6 -335 -8 -728 l-2 -715 -745 -5 c-410 -3 -746 -6 -747 -8 -2 -1 -3 -209 -3 -462 0 -253 1 -461 3 -462 1 -2 337 -5 747 -8 l745 -5 3 -749 c2 -585 5 -752 15 -758 6 -4 222 -8 478 -8 384 0 469 2 478 14 8 10 11 214 11 757 l-1 744 767 3 c547 1 771 5 781 13 10 9 13 97 13 465 0 250 -1 455 -2 456 -2 2 -353 5 -781 8 l-778 5 1 721 c0 653 -1 722 -16 728 -8 3 -227 6 -485 6 -367 0 -471 -3 -474 -12z"/>
</g>
</g>
  <g id="id1:id1" transform="matrix(1.25,0,0,1.25,0.0,0.0)"><g transform="translate(0.000000,800.000000) scale(0.040000,-0.040000)" fill="#df4b38" stroke="none">
<path d="M2155 19140 c-16 -4 -87 -8 -156 -9 -69 0 -139 -5 -155 -11 -16 -5 -56 -11 -89 -14 -196 -15 -423 -68 -578 -135 -181 -78 -359 -259 -432 -439 -32 -80 -71 -206 -85 -277 -6 -33 -15 -76 -20 -95 -5 -19 -12 -64 -16 -100 -3 -36 -10 -101 -16 -145 -28 -245 -30 -605 -30 -7895 0 -7256 2 -7660 30 -7895 6 -44 13 -109 16 -145 4 -36 11 -81 16 -100 5 -19 14 -62 20 -95 28 -146 88 -303 155 -406 193 -298 509 -423 1190 -470 115 -8 2349 -11 7990 -12 7409 0 8093 2 8180 26 11 3 67 11 125 17 58 6 123 15 145 20 22 5 67 14 100 21 68 13 208 58 279 89 180 77 358 258 431 438 45 110 95 288 95 337 0 13 4 26 9 29 4 3 11 40 14 83 4 43 9 110 13 148 3 39 10 79 15 90 4 11 11 101 14 200 11 335 8 15047 -3 15250 -6 105 -15 228 -21 275 -23 188 -31 247 -41 290 -5 25 -13 61 -16 80 -8 41 -59 196 -85 258 -32 73 -108 183 -173 248 -201 201 -503 295 -1071 335 -177 13 -15802 21 -15850 9z m9908 -2537 c3 -5 -84 -93 -192 -198 -108 -104 -300 -291 -427 -414 -127 -123 -238 -228 -247 -233 -9 -5 -234 -8 -512 -8 -420 0 -495 -2 -495 -14 0 -8 7 -17 16 -20 17 -7 65 -42 197 -146 296 -232 550 -592 695 -985 114 -308 161 -572 169 -947 7 -311 0 -383 -59 -628 -101 -422 -348 -835 -723 -1205 -137 -135 -200 -189 -500 -426 -395 -312 -583 -549 -649 -817 -44 -177 11 -377 162 -592 58 -83 348 -372 476 -476 83 -67 361 -276 473 -356 180 -129 431 -325 608 -477 152 -130 409 -392 516 -526 81 -102 259 -357 259 -372 0 -3 16 -31 34 -63 19 -33 49 -92 66 -132 18 -40 38 -86 46 -102 8 -16 14 -34 14 -40 0 -6 7 -24 15 -39 8 -15 22 -56 31 -90 9 -34 20 -71 24 -82 12 -29 41 -150 52 -220 5 -33 16 -103 24 -155 20 -136 29 -507 15 -660 -29 -318 -148 -689 -296 -932 -25 -40 -50 -84 -57 -98 -44 -88 -224 -321 -362 -466 -190 -201 -464 -420 -682 -544 -34 -19 -92 -52 -128 -73 -434 -249 -1022 -443 -1646 -543 -416 -66 -726 -88 -1240 -88 -550 0 -869 25 -1360 109 -330 57 -809 188 -1025 280 -16 7 -52 21 -80 30 -27 10 -79 31 -115 47 -36 16 -85 39 -110 50 -81 36 -205 100 -220 113 -8 7 -26 16 -40 20 -14 4 -36 16 -49 26 -13 11 -27 19 -32 19 -5 0 -82 49 -173 110 -565 377 -906 845 -1020 1401 -38 185 -45 492 -16 729 39 322 157 676 308 924 23 37 42 70 42 73 0 11 178 241 244 316 121 137 400 372 550 463 26 16 64 39 84 52 21 12 55 32 77 44 22 12 54 30 70 39 214 119 605 276 860 344 294 79 597 145 825 179 395 60 985 106 1357 106 94 0 178 3 187 6 25 9 19 32 -11 48 -16 8 -69 56 -118 108 -179 184 -288 371 -346 593 -22 81 -24 111 -24 300 0 187 3 220 23 300 32 124 78 258 115 333 20 41 27 66 20 73 -5 5 -107 14 -226 19 -644 29 -1215 163 -1657 391 -30 16 -71 36 -90 45 -19 9 -54 29 -78 45 -24 16 -45 29 -48 29 -2 0 -37 21 -77 47 -125 81 -288 213 -411 333 -112 109 -295 329 -346 415 -13 22 -39 64 -57 93 -60 92 -190 373 -232 499 -114 345 -154 603 -155 993 0 351 33 577 130 895 57 185 180 462 255 573 16 23 29 46 29 49 0 3 30 49 67 102 155 224 340 426 546 594 59 48 110 87 113 87 3 0 24 15 47 33 187 149 613 361 937 467 260 85 639 166 900 193 38 4 325 26 405 30 113 7 4244 6 4248 0z m2895 -4720 c1 -398 3 -724 5 -725 1 -2 351 -5 777 -8 l775 -5 0 -445 0 -445 -775 -5 c-426 -3 -776 -6 -777 -8 -2 -1 -4 -341 -5 -754 l-3 -753 -468 0 -468 0 1 747 c0 592 -2 748 -12 755 -7 4 -344 10 -748 13 l-735 5 0 445 0 445 735 5 c404 3 741 9 748 13 9 6 12 162 12 721 0 392 3 716 7 719 3 4 214 6 467 5 l461 -3 3 -722z"/>
<path d="M7265 15999 c-230 -31 -430 -107 -629 -236 -183 -119 -403 -363 -520 -578 -9 -16 -21 -37 -26 -45 -46 -73 -152 -380 -185 -535 -88 -416 -78 -843 31 -1305 27 -111 34 -137 85 -290 50 -151 184 -432 282 -590 188 -304 476 -604 760 -792 144 -95 135 -89 257 -149 58 -28 116 -57 130 -64 44 -23 272 -96 345 -111 220 -45 384 -58 540 -44 142 13 291 42 395 77 112 38 291 135 371 200 39 32 85 69 102 83 18 14 36 31 40 37 4 7 30 39 58 70 77 88 156 208 200 303 12 25 31 68 44 95 100 217 165 564 165 889 0 138 -24 472 -36 506 -3 8 -12 53 -20 100 -16 94 -53 263 -79 355 -37 135 -153 455 -190 525 -21 39 -65 138 -65 146 0 4 -6 15 -14 23 -7 9 -30 47 -51 86 -95 177 -259 404 -422 583 -167 184 -424 379 -638 485 -33 16 -71 35 -85 42 -59 30 -249 92 -324 106 -204 38 -383 47 -521 28z"/>
<path d="M7595 8449 c-339 -27 -759 -127 -1065 -252 -147 -60 -366 -171 -490 -247 -407 -252 -721 -585 -898 -950 -116 -238 -162 -442 -161 -703 0 -224 42 -438 126 -647 25 -63 128 -267 161 -319 139 -218 408 -492 636 -648 72 -49 254 -158 287 -173 13 -5 31 -14 39 -19 67 -41 327 -146 465 -188 171 -52 362 -95 525 -118 385 -55 944 -45 1375 25 33 6 87 14 120 19 33 5 80 14 105 20 25 6 104 25 175 42 194 46 449 136 615 216 617 298 998 749 1135 1343 20 85 45 315 45 410 -1 156 -34 363 -85 530 -209 678 -802 1233 -1598 1494 -87 29 -233 67 -407 106 -83 18 -314 50 -444 60 -147 11 -513 11 -661 -1z"/>
</g>
</g>
</svg>
