<?xml version="1.0" standalone="no"?>
<!DOCTYPE svg PUBLIC "-//W3C//DTD SVG 1.1//EN"
 "http://www.w3.org/Graphics/SVG/1.1/DTD/svg11.dtd">
<!-- Created with svg_stack (http://github.com/astraw/svg_stack) -->
<svg xmlns:sodipodi="http://sodipodi.sourceforge.net/DTD/sodipodi-0.dtd" xmlns="http://www.w3.org/2000/svg" version="1.1" width="798.0" height="123.0">
  <defs/>
  <g id="id0:id0" transform="matrix(1.25,0,0,1.25,0.0,0.0)"><g transform="translate(0.000000,98.400000) scale(0.040000,-0.040000)" fill="#f4f4f4" stroke="none">
<path d="M0 1230 l0 -1230 7545 0 c4150 0 7545 3 7545 8 0 4 -532 272 -1181 597 -649 324 -1199 599 -1222 611 -23 12 -105 53 -182 91 -77 38 -149 75 -160 81 -41 22 -171 80 -207 91 -20 7 -61 14 -90 17 -29 3 -82 12 -118 19 -36 8 -96 19 -135 25 -88 15 -216 36 -320 54 -44 7 -114 19 -155 25 -41 7 -103 19 -137 27 -34 8 -92 14 -131 14 -38 0 -113 7 -168 15 -54 8 -135 15 -179 15 -44 0 -159 6 -255 14 -165 14 -296 23 -660 46 -85 6 -213 15 -285 21 -71 6 -204 15 -295 20 -91 5 -181 11 -200 14 -19 3 -123 9 -230 15 -107 5 -220 14 -250 19 -30 5 -96 10 -146 10 -50 1 -160 7 -245 15 -235 22 -394 27 -413 13 -13 -10 -16 -39 -19 -151 -4 -121 -7 -141 -23 -153 -35 -26 -77 -6 -86 42 -7 42 -31 44 -491 45 -250 0 -470 5 -511 11 -39 6 -129 10 -201 9 -71 0 -210 2 -308 6 -141 5 -191 3 -245 -9 -37 -9 -95 -18 -128 -21 -34 -3 -81 -10 -105 -15 -24 -6 -82 -15 -129 -22 -47 -6 -125 -17 -175 -24 -49 -8 -124 -19 -165 -25 -41 -6 -111 -18 -155 -26 -44 -8 -96 -14 -116 -14 -20 0 -58 -7 -85 -15 -27 -8 -71 -15 -97 -15 -26 0 -76 -6 -110 -14 -61 -14 -159 -29 -310 -46 -43 -5 -96 -14 -117 -20 -21 -6 -74 -15 -117 -20 -145 -16 -298 -40 -327 -50 -16 -6 -50 -10 -75 -10 -26 0 -73 -7 -104 -15 -32 -8 -75 -15 -97 -15 -61 0 -71 -17 -65 -113 3 -45 8 -106 11 -136 5 -62 -6 -81 -47 -81 -24 0 -33 7 -46 35 l-17 35 -62 0 c-34 0 -81 -7 -104 -15 -23 -8 -59 -15 -78 -15 -20 0 -61 -6 -91 -14 -31 -8 -101 -22 -156 -31 -55 -9 -129 -23 -165 -30 -36 -8 -92 -19 -125 -24 -93 -15 -176 -31 -225 -43 -25 -6 -72 -14 -105 -18 -33 -4 -73 -13 -88 -19 -16 -6 -41 -11 -57 -11 -16 0 -47 -6 -67 -14 -21 -7 -72 -23 -113 -36 -41 -12 -90 -29 -108 -36 -18 -8 -41 -14 -52 -14 -11 0 -34 -6 -52 -14 -18 -7 -80 -28 -138 -46 -204 -63 -325 -103 -358 -116 -18 -8 -40 -14 -48 -14 -9 0 -30 -6 -47 -14 -18 -7 -66 -23 -107 -35 -41 -12 -84 -26 -95 -31 -11 -4 -74 -25 -140 -45 -66 -20 -136 -43 -155 -50 -19 -7 -60 -21 -90 -30 -30 -9 -67 -23 -82 -30 -39 -19 -43 -3 -14 47 28 48 69 124 97 178 28 56 98 116 181 154 42 20 82 36 89 36 12 0 35 7 224 71 66 22 134 44 150 49 17 5 82 27 145 50 63 23 129 45 145 50 17 4 55 18 85 30 30 12 70 25 88 30 18 4 38 12 45 18 7 5 30 14 52 20 36 9 167 55 280 98 22 9 55 19 73 24 18 4 38 12 45 18 7 5 28 13 47 17 19 4 41 11 50 15 13 7 51 21 160 59 19 7 71 26 115 42 44 17 98 36 120 43 22 7 69 24 105 38 228 87 358 118 630 153 118 15 241 31 345 46 39 6 114 14 168 19 54 5 112 13 130 18 18 6 73 13 124 16 50 3 111 10 135 15 24 6 88 15 143 21 55 6 143 15 195 21 52 5 130 16 174 24 43 8 100 15 127 15 27 0 81 6 121 14 73 15 222 35 308 42 25 2 97 11 160 19 256 33 359 46 445 55 50 5 106 14 125 20 19 5 67 10 105 10 39 0 97 7 128 15 32 8 78 15 102 15 24 0 79 7 122 15 43 8 105 15 138 15 33 0 76 4 95 10 19 5 98 17 175 25 77 9 219 25 315 37 224 27 643 30 880 5 217 -22 390 -37 565 -47 83 -5 218 -14 300 -20 414 -30 577 -41 650 -44 44 -2 127 -8 185 -14 58 -6 166 -13 240 -15 74 -2 191 -9 260 -15 121 -11 281 -22 655 -43 99 -5 268 -16 375 -24 107 -8 241 -15 297 -15 170 0 232 -20 513 -167 64 -34 158 -83 490 -255 91 -47 237 -123 325 -168 88 -46 207 -108 265 -138 58 -29 113 -58 123 -63 38 -20 58 -31 232 -120 99 -51 224 -116 277 -144 53 -27 152 -79 220 -114 68 -35 188 -98 268 -139 142 -73 234 -121 435 -226 55 -29 180 -93 279 -144 98 -50 186 -98 196 -107 14 -13 68 -15 398 -15 l382 0 0 1230 0 1230 -7980 0 -7980 0 0 -1230z"/>
<path d="M7440 1879 c-148 -17 -249 -31 -315 -44 -38 -8 -104 -16 -145 -19 -41 -3 -89 -10 -105 -15 -17 -5 -70 -13 -118 -16 -71 -6 -92 -11 -107 -28 -11 -11 -20 -24 -20 -27 0 -8 216 -18 535 -25 110 -3 243 -7 296 -11 126 -7 134 -1 124 100 -10 103 -7 101 -145 85z"/>
<path d="M11591 1651 c-42 -11 -35 -28 14 -36 26 -3 65 -13 87 -21 22 -8 57 -14 78 -14 20 0 59 -7 86 -15 138 -42 150 8 17 70 -45 22 -65 25 -155 24 -57 -1 -114 -4 -127 -8z"/>
<path d="M3155 1262 c-6 -5 -172 -62 -370 -126 -198 -65 -373 -124 -390 -132 -16 -7 -46 -17 -65 -22 -21 -5 -36 -15 -38 -26 -3 -16 3 -17 65 -14 37 2 88 9 113 16 25 6 81 18 125 26 44 8 107 20 140 26 33 7 96 18 140 27 44 8 112 21 150 28 39 8 100 20 136 27 89 17 103 30 95 87 -8 61 -30 91 -64 91 -16 0 -32 -4 -37 -8z"/>
</g>
</g>
  <g id="id1:id1" transform="matrix(1.25,0,0,1.25,0.0,0.0)"><g transform="translate(0.000000,98.400000) scale(0.040000,-0.040000)" fill="#003368" stroke="none">
<path d="M7205 2070 c-55 -3 -106 -9 -112 -13 -6 -4 -60 -11 -120 -17 -59 -5 -137 -14 -173 -19 -105 -16 -228 -31 -332 -41 -54 -5 -124 -14 -155 -19 -32 -6 -101 -15 -153 -21 -52 -6 -153 -17 -225 -25 -71 -8 -146 -19 -165 -25 -19 -5 -64 -10 -100 -10 -36 0 -92 -7 -123 -15 -32 -8 -75 -15 -95 -15 -20 0 -84 -6 -142 -14 -167 -24 -267 -37 -390 -51 -261 -31 -368 -45 -415 -54 -27 -5 -75 -10 -105 -11 -30 0 -82 -7 -115 -15 -33 -8 -80 -15 -105 -15 -25 0 -90 -6 -145 -14 -140 -21 -240 -34 -385 -51 -115 -14 -208 -25 -430 -55 -107 -14 -230 -37 -295 -55 -27 -8 -61 -16 -75 -19 -14 -2 -70 -21 -125 -41 -55 -20 -118 -42 -140 -50 -22 -8 -65 -23 -95 -35 -30 -12 -70 -25 -88 -30 -18 -4 -38 -12 -45 -18 -7 -5 -28 -13 -47 -17 -19 -4 -39 -10 -45 -13 -9 -6 -60 -25 -135 -52 -14 -4 -70 -25 -125 -45 -55 -20 -138 -49 -185 -65 -47 -16 -110 -39 -140 -50 -30 -12 -68 -26 -85 -30 -38 -11 -114 -38 -140 -50 -11 -5 -54 -20 -95 -34 -103 -34 -141 -47 -170 -59 -14 -5 -38 -13 -55 -17 -16 -5 -55 -18 -85 -30 -80 -30 -160 -57 -198 -65 -18 -4 -45 -13 -60 -21 -15 -8 -37 -14 -49 -14 -12 0 -39 -8 -60 -17 -21 -9 -58 -25 -83 -36 -109 -49 -152 -96 -241 -265 -24 -46 -52 -98 -61 -115 -23 -43 -22 -46 8 -57 20 -8 34 -6 58 5 17 9 47 20 66 25 36 9 167 52 230 75 19 7 89 30 155 50 66 21 135 43 153 51 18 8 39 14 47 14 8 0 29 6 47 14 18 7 56 20 83 28 111 34 292 91 325 103 33 12 213 69 325 102 28 8 68 21 90 28 90 29 233 61 344 76 36 5 79 13 96 19 17 6 60 14 96 19 62 8 108 17 254 46 141 28 191 37 250 46 33 5 73 14 89 19 16 6 42 10 59 10 16 0 57 7 90 16 l61 16 18 -24 c52 -67 57 -70 90 -63 18 4 44 14 57 22 21 14 23 20 18 76 -20 212 -20 212 -3 226 9 8 49 17 89 21 75 8 161 21 307 46 47 8 117 18 155 23 133 18 230 33 299 47 38 8 87 14 110 14 23 0 68 7 99 15 32 8 70 15 85 15 15 0 65 6 112 14 121 21 300 48 500 76 47 6 114 17 150 25 36 8 94 16 130 19 36 3 85 9 110 15 46 10 136 24 270 42 77 9 1435 -6 1635 -19 88 -6 101 -9 110 -28 29 -58 80 -77 133 -50 37 19 44 49 41 199 l-1 112 48 -1 c85 -1 445 -24 544 -34 52 -6 174 -14 270 -20 262 -13 502 -29 620 -41 58 -6 198 -14 311 -19 113 -5 218 -14 233 -20 15 -5 64 -10 109 -10 45 0 168 -6 272 -15 105 -8 267 -19 360 -25 94 -6 211 -15 260 -20 50 -5 128 -9 175 -9 78 -1 174 -14 320 -43 30 -6 82 -14 115 -18 33 -4 83 -12 110 -18 46 -10 162 -30 295 -52 30 -4 87 -13 125 -20 39 -6 100 -17 136 -25 37 -8 77 -15 90 -15 16 0 2548 -1257 2614 -1298 5 -3 63 -32 128 -64 65 -31 129 -64 142 -72 18 -12 50 -16 115 -16 139 0 125 18 -115 140 -99 51 -225 116 -280 145 -460 239 -735 381 -875 453 -52 26 -149 77 -215 111 -117 62 -242 127 -570 296 -88 46 -218 113 -290 150 -71 37 -191 99 -265 138 -193 100 -354 183 -520 270 -185 96 -245 117 -335 117 -38 0 -119 5 -180 11 -60 6 -189 14 -285 19 -96 5 -218 13 -270 19 -52 5 -162 12 -245 15 -82 3 -202 10 -265 15 -63 6 -196 15 -295 21 -333 19 -519 31 -705 45 -102 8 -221 15 -265 15 -44 0 -118 5 -163 10 -45 6 -153 15 -239 20 -168 10 -335 23 -523 41 -284 27 -763 36 -1025 19z m353 -274 c2 -32 -1 -63 -6 -68 -11 -11 -623 19 -636 32 -12 12 1 16 99 29 44 6 112 15 150 21 39 5 126 17 195 25 68 9 127 18 129 21 3 3 19 4 36 2 l30 -3 3 -59z m-4344 -598 c12 -49 3 -66 -41 -73 -41 -7 -194 -36 -308 -59 -38 -8 -97 -20 -130 -27 -77 -15 -114 -17 -116 -4 -1 9 85 45 156 65 39 11 92 29 133 46 18 8 40 14 50 14 9 0 30 7 46 15 16 9 46 20 65 25 20 5 54 15 76 24 51 19 58 17 69 -26z"/>
</g>
</g>
</svg>
