<?xml version="1.0" standalone="no"?>
<!DOCTYPE svg PUBLIC "-//W3C//DTD SVG 1.1//EN"
 "http://www.w3.org/Graphics/SVG/1.1/DTD/svg11.dtd">
<!-- Created with svg_stack (http://github.com/astraw/svg_stack) -->
<svg xmlns:sodipodi="http://sodipodi.sourceforge.net/DTD/sodipodi-0.dtd" xmlns="http://www.w3.org/2000/svg" version="1.1" width="1163.0" height="328.0">
  <defs/>
  <g id="id0:id0" transform="matrix(1.25,0,0,1.25,0.0,0.0)"><g transform="translate(0.000000,262.400000) scale(0.040000,-0.040000)" fill="#ffffff" stroke="none">
<path d="M0 3280 l0 -3280 11630 0 11630 0 0 3280 0 3280 -11630 0 -11630 0 0 -3280z m5020 3110 c548 -67 997 -280 1370 -649 302 -300 483 -607 599 -1021 87 -311 97 -722 26 -1060 -100 -480 -376 -938 -755 -1250 -150 -124 -157 -130 -165 -130 -3 0 -21 -11 -38 -24 -57 -43 -210 -131 -293 -169 -247 -111 -474 -173 -741 -202 -327 -35 -648 -1 -968 103 -137 45 -368 151 -448 206 -21 14 -40 26 -42 26 -7 0 -132 86 -174 120 -207 168 -366 335 -487 510 -397 577 -504 1287 -297 1960 49 159 158 397 239 520 27 41 51 80 54 85 3 6 18 29 35 50 126 167 314 360 450 460 44 32 97 71 117 87 20 15 40 28 43 28 4 0 26 13 49 29 123 85 457 223 646 267 243 58 566 80 780 54z m8845 -440 c400 -11 715 -26 1260 -61 195 -12 239 -16 430 -34 83 -8 229 -21 325 -30 166 -15 335 -33 515 -55 44 -5 123 -14 175 -20 265 -30 967 -132 1245 -180 66 -12 174 -30 240 -41 314 -51 841 -158 1335 -270 270 -61 806 -195 822 -206 36 -22 -44 -14 -292 28 -157 26 -316 53 -355 58 -38 6 -195 29 -348 51 -154 22 -349 50 -435 61 -87 11 -188 25 -227 30 -227 30 -786 90 -1200 128 -297 28 -391 35 -785 61 -80 6 -212 14 -295 20 -535 36 -1130 53 -1890 54 -1160 2 -1716 -18 -2835 -104 -361 -27 -1161 -113 -1540 -165 -58 -8 -172 -24 -255 -35 -255 -35 -763 -118 -1045 -170 -467 -86 -1214 -251 -1422 -314 -35 -10 -50 -11 -56 -2 -5 6 -29 63 -52 126 -24 63 -56 145 -71 182 -20 50 -24 69 -16 76 21 17 669 190 907 242 47 11 166 37 265 59 423 95 815 169 1255 236 91 14 206 32 255 40 133 22 695 91 885 110 91 9 226 22 300 30 346 36 1206 86 1710 98 286 7 883 6 1195 -3z m-4769 -2152 c7 -7 58 -128 114 -268 56 -140 112 -280 125 -310 33 -79 94 -230 175 -430 39 -96 75 -184 80 -195 4 -11 29 -72 54 -135 25 -63 83 -209 130 -323 60 -147 81 -209 73 -213 -7 -2 -68 -3 -136 -2 l-123 3 -70 165 c-38 91 -81 194 -95 230 -42 110 7 100 -494 100 l-439 0 -19 -42 c-11 -24 -54 -126 -96 -228 -42 -102 -83 -195 -91 -208 l-15 -23 -117 3 c-111 3 -117 4 -113 23 3 18 78 202 163 400 36 83 34 80 133 315 43 102 90 214 105 250 15 36 65 153 110 260 45 107 95 224 110 260 15 36 51 121 80 190 70 170 79 188 90 192 5 2 65 2 132 1 84 -2 125 -6 134 -15z m3731 9 c2 -3 5 -172 6 -375 1 -204 5 -373 9 -377 4 -4 22 10 40 31 114 134 207 174 403 174 178 0 289 -42 396 -150 72 -73 106 -136 142 -260 18 -64 21 -100 20 -250 0 -204 -14 -283 -70 -397 -44 -90 -144 -196 -224 -238 -148 -77 -369 -86 -509 -22 -65 30 -146 92 -167 127 -29 51 -45 35 -49 -50 -2 -41 -6 -81 -9 -88 -3 -9 -31 -12 -107 -10 l-103 3 -2 939 c-1 516 -1 941 1 945 5 7 216 5 223 -2z m4088 -8 c143 -24 236 -75 308 -169 76 -100 107 -196 107 -335 0 -152 -43 -260 -144 -361 -34 -34 -88 -75 -121 -92 -108 -54 -181 -64 -483 -70 -211 -3 -275 -7 -279 -17 -2 -7 -5 -197 -6 -422 l-2 -408 -125 0 -125 0 -2 935 c-2 514 -1 940 1 945 5 14 781 9 871 -6z m-5485 -366 c3 -204 8 -374 11 -378 4 -3 31 19 60 50 98 104 240 153 417 142 205 -12 323 -85 384 -237 l23 -55 0 -515 0 -515 -115 0 -115 0 -5 470 c-4 367 -9 478 -19 505 -27 67 -71 119 -124 147 -46 25 -63 28 -147 28 -87 0 -101 -3 -161 -32 -89 -43 -150 -111 -180 -201 l-23 -67 -6 -425 -5 -425 -110 0 -110 0 -3 930 c-1 512 0 936 3 943 3 9 32 12 112 10 l108 -3 5 -372z m9984 369 c2 -4 6 -429 7 -943 l2 -934 -109 0 -109 0 -5 89 c-5 96 -18 117 -44 69 -62 -118 -273 -204 -463 -189 -208 17 -366 125 -451 309 -42 90 -62 201 -62 346 0 266 49 417 182 557 39 41 75 74 79 74 5 0 26 11 47 23 61 39 132 58 239 64 117 7 203 -7 276 -43 48 -25 135 -103 154 -138 28 -52 33 -2 33 353 0 197 3 361 7 364 9 10 211 9 217 -1z m-10791 -557 c205 -36 329 -147 339 -305 l3 -55 -114 0 -114 0 -14 49 c-20 67 -49 102 -108 131 -131 63 -339 29 -402 -66 -54 -82 -39 -167 41 -226 35 -27 75 -41 227 -78 321 -80 399 -113 457 -197 100 -145 76 -353 -55 -480 -64 -62 -134 -96 -250 -119 -220 -44 -462 -6 -587 92 -62 49 -113 158 -118 253 l-3 48 115 0 c126 -1 120 2 140 -70 15 -57 68 -114 133 -143 44 -20 68 -23 157 -23 115 1 152 12 209 60 70 58 93 178 49 244 -34 50 -93 74 -313 128 -286 70 -380 120 -435 229 -22 42 -25 61 -25 153 1 94 3 110 27 155 35 65 119 146 188 179 114 54 288 70 453 41z m7574 -1 c176 -41 304 -140 381 -296 51 -103 71 -183 79 -319 12 -210 -36 -387 -143 -529 -54 -71 -74 -89 -159 -138 -106 -62 -202 -85 -360 -86 -106 0 -145 4 -210 22 -279 80 -435 316 -435 658 0 362 165 606 462 684 94 25 287 27 385 4z m1468 -5 c121 -23 252 -122 294 -221 39 -91 42 -145 39 -628 l-3 -465 -115 0 -115 0 -5 475 c-5 430 -7 479 -23 515 -26 58 -63 92 -137 128 -192 93 -405 4 -487 -205 -14 -37 -17 -103 -22 -478 l-6 -435 -110 0 -110 0 0 650 0 650 110 0 110 0 5 -89 c5 -96 18 -117 44 -69 24 46 97 109 166 142 98 46 226 57 365 30z m2699 -4 c74 -21 184 -75 213 -107 36 -39 73 -131 76 -189 l2 -54 -114 0 -115 0 -12 49 c-17 67 -40 96 -102 128 -103 52 -284 43 -361 -20 -59 -48 -73 -73 -74 -139 -1 -51 2 -65 26 -97 38 -49 82 -67 302 -120 105 -26 204 -52 220 -58 134 -52 200 -104 239 -188 16 -36 20 -65 20 -145 0 -93 -2 -105 -33 -169 -62 -128 -155 -192 -327 -227 -115 -23 -250 -24 -359 -4 -201 38 -334 168 -346 340 l-4 49 30 6 c17 3 70 5 120 5 l90 0 6 -36 c14 -86 85 -166 172 -191 63 -18 224 -14 272 6 142 60 184 241 75 323 -41 31 -72 41 -279 92 -232 58 -312 91 -379 158 -63 64 -86 133 -80 243 10 175 128 299 333 352 87 22 297 18 389 -7z m-8073 -330 c70 -176 132 -333 139 -350 6 -16 20 -50 30 -75 10 -25 39 -97 64 -160 25 -63 51 -116 59 -118 10 -2 35 49 82 165 37 92 76 187 86 210 11 23 19 45 19 49 0 3 11 32 24 63 25 59 59 142 153 376 31 77 60 146 66 153 10 13 232 18 240 5 6 -9 -48 -140 -112 -276 -22 -49 -41 -91 -41 -93 0 -2 -14 -34 -31 -71 -17 -38 -51 -115 -76 -173 -25 -58 -56 -130 -70 -160 -14 -30 -50 -111 -80 -180 -50 -113 -71 -161 -156 -350 -14 -31 -32 -76 -40 -100 -8 -25 -31 -86 -50 -135 -20 -50 -51 -130 -70 -180 l-35 -90 -108 -3 c-59 -1 -112 2 -117 7 -6 6 25 95 83 243 51 128 92 242 92 253 0 11 -9 40 -20 65 -11 25 -70 167 -132 315 -153 367 -170 407 -180 430 -5 11 -46 108 -91 215 -45 107 -89 214 -99 237 -10 23 -15 44 -12 48 3 3 62 4 131 3 l125 -3 127 -320z m-11853 292 c6 -7 22 -44 36 -82 20 -55 23 -72 13 -82 -7 -6 -64 -39 -127 -73 -127 -69 -136 -74 -399 -219 -102 -55 -186 -101 -189 -101 -2 0 -16 -8 -30 -19 -15 -10 -67 -40 -117 -66 -49 -26 -116 -63 -148 -81 -32 -19 -60 -34 -62 -34 -2 0 -35 -18 -74 -40 -107 -60 -135 -76 -208 -116 -37 -21 -104 -57 -148 -82 -166 -92 -204 -111 -210 -103 -3 5 31 35 76 68 44 32 98 72 119 88 22 17 71 53 110 80 39 28 87 61 105 75 44 33 210 151 240 170 80 52 166 114 176 126 6 8 16 14 21 14 5 0 33 18 63 40 30 22 56 40 59 40 3 0 26 15 52 33 25 17 53 37 62 42 9 6 63 40 120 78 57 37 106 67 109 67 3 0 25 14 50 30 24 17 46 30 48 30 3 0 26 13 52 29 62 38 176 100 184 101 4 0 11 -6 17 -13z m-1674 -1118 c-3 -5 -10 -7 -15 -3 -5 3 -7 10 -3 15 3 5 10 7 15 3 5 -3 7 -10 3 -15z m11574 -1071 c6 -7 15 -62 21 -123 19 -187 29 -276 45 -395 9 -64 12 -118 7 -123 -5 -5 -21 -7 -37 -5 -25 3 -29 8 -36 48 -4 25 -10 60 -13 78 l-6 33 -136 -3 -135 -3 -41 -77 c-34 -68 -43 -78 -67 -78 -39 0 -41 7 -13 58 14 26 57 108 95 182 39 74 74 140 78 145 4 6 29 53 56 105 81 161 88 170 133 170 21 0 43 -6 49 -12z m627 3 c3 -5 -9 -74 -25 -153 -17 -79 -47 -219 -66 -312 -19 -93 -37 -173 -40 -178 -9 -14 -44 -9 -50 7 -8 20 -34 19 -50 -2 -10 -14 -27 -18 -83 -18 -38 0 -74 5 -80 10 -5 6 -16 31 -22 57 -12 42 -10 61 10 160 36 180 83 238 192 238 43 0 60 -5 74 -20 33 -36 34 -33 71 130 9 41 18 78 21 83 6 10 41 9 48 -2z m470 -1 c3 -5 -1 -45 -11 -87 -9 -43 -29 -139 -44 -213 -59 -280 -71 -334 -76 -342 -11 -17 -43 -7 -62 19 l-20 28 18 25 c47 66 83 252 58 300 -19 35 -70 48 -113 27 -40 -19 -66 -68 -89 -171 -20 -85 -20 -145 -1 -173 18 -26 67 -38 94 -24 28 15 35 -2 10 -25 -29 -26 -128 -27 -157 -1 -25 23 -33 81 -21 165 16 113 47 192 94 240 40 39 46 42 97 42 41 0 62 -5 82 -21 16 -12 31 -18 36 -13 4 5 18 54 30 109 12 55 23 106 25 113 5 14 41 16 50 2z m2598 3 c3 -5 -12 -89 -34 -188 -59 -273 -82 -395 -75 -402 3 -3 56 -6 118 -7 l113 -1 0 -25 0 -25 -150 -3 c-82 -1 -155 0 -161 2 -9 3 -10 15 -3 43 5 21 20 92 34 158 13 66 31 152 40 190 8 39 23 108 32 155 9 47 21 91 26 98 10 13 53 17 60 5z m404 -9 c9 -24 -10 -49 -38 -49 -27 0 -37 28 -19 50 17 20 49 19 57 -1z m627 7 c4 -5 2 -21 -4 -35 -7 -18 -17 -26 -34 -26 -32 0 -39 12 -26 44 7 18 17 26 34 26 14 0 27 -4 30 -9z m4208 3 c3 -3 -1 -33 -9 -67 -26 -114 -96 -452 -101 -489 -5 -43 -17 -40 131 -39 77 0 99 -3 104 -15 3 -8 0 -21 -7 -29 -10 -12 -42 -15 -161 -15 -81 0 -150 4 -153 8 -3 4 0 28 5 53 21 89 112 515 116 544 3 17 10 36 15 43 11 12 50 17 60 6z m404 -8 c8 -21 -14 -56 -35 -56 -27 0 -40 21 -30 48 10 25 56 31 65 8z m319 -6 c0 -8 -11 -18 -25 -21 -74 -18 -86 -31 -96 -108 l-6 -50 26 -7 c14 -3 32 -4 40 -1 21 8 27 -3 15 -25 -9 -16 -18 -19 -45 -15 -44 7 -57 -11 -79 -118 -9 -44 -27 -127 -39 -185 l-21 -105 -30 0 c-25 0 -29 4 -26 20 2 11 20 97 41 190 39 180 38 209 -3 203 -16 -2 -22 2 -22 17 0 16 6 19 26 17 36 -4 55 18 63 72 8 52 41 105 76 123 34 18 105 13 105 -7z m599 -61 c-3 -5 -10 -7 -15 -3 -5 3 -7 10 -3 15 3 5 10 7 15 3 5 -3 7 -10 3 -15z m-4184 -69 c-6 -23 -9 -45 -5 -48 3 -3 24 -7 47 -8 68 -3 61 -36 -7 -36 -19 0 -40 -5 -48 -11 -13 -11 -77 -286 -77 -330 0 -19 13 -28 54 -37 40 -8 40 -32 -1 -43 -42 -13 -100 -1 -113 23 -8 14 -1 65 26 195 19 97 33 183 30 191 -4 10 -13 13 -25 9 -11 -3 -22 -1 -26 5 -8 13 9 34 28 36 7 0 20 2 29 2 11 2 20 16 25 44 6 30 16 46 33 55 34 17 43 3 30 -47z m-4380 -70 c11 -11 25 -20 31 -20 6 0 22 9 36 20 19 15 41 20 86 20 107 0 115 -26 72 -234 -41 -197 -48 -220 -69 -224 -33 -7 -38 12 -22 79 8 35 25 115 37 178 l22 114 -27 24 c-31 27 -72 30 -104 7 -41 -28 -51 -59 -98 -289 -20 -99 -30 -117 -57 -113 -28 4 -27 6 12 188 37 172 37 180 10 209 -21 23 -24 23 -94 8 -36 -7 -68 -84 -101 -247 -31 -158 -38 -172 -79 -157 -11 5 -10 22 7 94 11 48 32 146 47 218 29 140 42 159 83 116 l19 -22 30 26 c40 33 128 36 159 5z m664 10 c41 -15 59 -63 54 -139 -6 -82 -42 -202 -74 -251 -30 -45 -61 -60 -136 -67 -84 -8 -125 2 -143 37 -31 60 -9 235 43 336 35 69 76 92 169 93 34 1 73 -3 87 -9z m288 -23 c-4 -34 3 -34 45 3 23 21 44 30 68 30 39 0 46 -7 34 -37 -6 -17 -16 -22 -41 -21 -53 2 -97 -27 -120 -80 -12 -26 -33 -105 -47 -176 -27 -133 -45 -166 -73 -138 -12 12 -1 78 53 317 5 22 12 56 15 75 9 54 10 56 40 54 25 -1 29 -4 26 -27z m518 15 c27 -22 36 -94 23 -181 l-8 -54 -125 2 c-69 1 -131 -2 -138 -7 -7 -5 -16 -33 -19 -63 -7 -73 16 -104 77 -104 38 0 47 6 84 46 30 33 48 45 66 44 33 -2 35 -15 8 -55 -43 -63 -70 -75 -163 -75 -75 0 -87 3 -107 23 -21 20 -23 32 -22 110 1 153 46 261 129 313 42 26 163 27 195 1z m893 1 c-1 -5 -12 -57 -24 -114 -12 -57 -31 -149 -43 -204 -24 -112 -29 -125 -56 -125 -29 0 -31 11 -10 96 10 43 30 138 45 209 26 131 40 160 75 152 8 -2 14 -8 13 -14z m168 -15 c4 -15 10 -101 14 -192 4 -91 10 -166 14 -166 18 1 35 29 114 188 95 192 101 202 128 202 32 0 29 -16 -19 -106 -27 -49 -73 -136 -102 -194 -81 -158 -84 -162 -134 -158 l-41 3 -6 65 c-4 36 -12 132 -19 214 -11 141 -11 150 6 163 24 18 36 12 45 -19z m669 2 c0 -10 7 -20 15 -24 12 -4 11 -11 -10 -41 -29 -43 -26 -35 -60 -200 -15 -72 -32 -138 -37 -148 -11 -22 -54 -19 -52 3 1 13 39 196 77 373 7 35 16 51 31 57 26 10 36 4 36 -20z m218 14 c30 -21 29 -77 -3 -224 -46 -205 -49 -214 -69 -218 -36 -7 -37 13 -7 149 48 213 48 213 17 244 -26 26 -52 30 -105 14 -7 -2 -16 2 -18 9 -13 34 142 57 185 26z m397 -4 c23 -26 51 -26 58 1 4 15 12 20 29 17 25 -3 25 -6 9 -83 -20 -98 -71 -341 -86 -409 -23 -110 -71 -146 -193 -146 -62 0 -71 3 -96 29 -37 39 -33 75 8 75 23 0 34 -7 46 -30 14 -24 24 -30 58 -32 64 -5 96 23 115 100 18 71 10 93 -23 63 -14 -12 -41 -20 -80 -23 -54 -4 -61 -2 -84 23 -23 24 -26 37 -26 97 0 131 53 271 119 315 45 30 120 32 146 3z m995 5 c53 -27 61 -111 23 -260 -19 -78 -65 -156 -100 -174 -15 -7 -60 -15 -99 -18 -88 -7 -129 11 -140 59 -24 101 26 308 86 363 12 11 34 25 48 32 39 17 147 16 182 -2z m748 6 c2 -1 -12 -29 -31 -63 -19 -35 -56 -103 -82 -153 -26 -49 -51 -94 -55 -100 -4 -5 -34 -62 -68 -126 -81 -157 -109 -199 -130 -199 -10 0 -21 3 -25 6 -3 4 12 43 35 87 46 92 45 57 8 350 -12 93 -19 175 -16 183 7 17 55 19 61 2 3 -7 11 -88 18 -181 8 -92 17 -170 20 -174 11 -10 27 16 119 201 l87 172 28 -2 c15 -1 30 -3 31 -3z m364 -20 l33 -30 -2 -78 c-4 -134 -55 -268 -118 -309 -28 -19 -127 -30 -179 -20 -23 4 -42 16 -53 33 -44 66 8 325 77 388 36 32 71 43 142 44 61 1 71 -2 100 -28z m256 16 c8 -9 2 -58 -23 -180 -37 -178 -36 -205 6 -227 32 -18 82 -4 117 33 34 35 40 56 88 280 14 64 24 92 38 99 33 18 42 -5 27 -70 -7 -31 -27 -129 -45 -217 l-32 -160 -28 -3 c-21 -3 -29 1 -33 17 -7 26 -7 26 -44 -2 -24 -17 -44 -22 -96 -22 -72 0 -93 15 -93 66 0 35 56 322 76 387 5 16 29 16 42 -1z m487 -27 l7 -21 30 26 c53 45 112 46 106 3 -2 -19 -11 -24 -50 -28 -50 -6 -89 -34 -113 -80 -7 -14 -26 -86 -41 -160 -15 -74 -32 -141 -37 -147 -10 -14 -43 -17 -50 -5 -3 4 6 57 19 117 14 61 34 155 45 210 12 55 26 106 31 112 13 16 44 0 53 -27z m1620 10 l28 -29 -6 -82 c-4 -45 -12 -88 -18 -95 -9 -11 -41 -14 -130 -14 -139 0 -149 -6 -149 -79 0 -58 33 -101 76 -101 35 0 88 33 102 65 6 14 15 25 19 26 5 0 16 2 25 4 64 12 11 -89 -61 -119 -23 -9 -61 -16 -85 -16 -118 0 -142 27 -133 150 10 151 63 275 130 304 18 8 64 15 103 15 65 1 72 -1 99 -29z m-5300 10 c3 -5 -1 -37 -9 -72 -8 -35 -26 -121 -41 -193 -30 -154 -38 -175 -64 -175 -36 0 -38 -17 31 295 17 77 32 143 35 148 6 10 41 9 48 -3z m4609 -15 c-2 -29 -74 -374 -85 -402 -8 -22 -42 -32 -53 -15 -2 4 11 82 31 172 19 91 38 183 42 205 9 54 19 67 44 63 15 -2 22 -10 21 -23z"/>
<path d="M4906 4855 c-13 -14 -50 -78 -82 -142 -32 -64 -72 -137 -88 -162 -97 -150 -145 -222 -182 -271 -60 -79 -160 -172 -182 -168 -42 8 -11 179 47 252 47 59 78 78 121 78 58 -1 78 23 64 75 -9 33 -73 49 -133 32 -98 -26 -162 -70 -302 -206 -74 -73 -138 -130 -142 -127 -3 3 10 50 29 105 38 107 36 133 -11 145 -40 10 -61 -4 -93 -64 -59 -110 -94 -221 -94 -292 1 -57 4 -67 27 -87 51 -45 80 -29 193 107 69 83 135 150 142 145 4 -3 1 -28 -7 -57 -24 -91 -1 -171 60 -205 12 -7 45 -12 73 -13 40 0 60 6 96 30 47 31 140 131 198 213 18 26 37 44 41 40 4 -5 -1 -55 -12 -113 -10 -58 -16 -117 -13 -132 9 -46 86 -77 112 -45 11 14 47 132 56 189 4 21 10 39 14 42 7 4 81 -17 262 -73 78 -25 108 -26 138 -5 61 42 2 93 -168 145 -109 33 -111 38 -49 90 146 123 161 148 108 178 -37 21 -77 2 -160 -76 -37 -35 -69 -60 -72 -56 -3 4 8 53 25 108 53 183 58 200 70 252 11 47 10 54 -7 73 -24 27 -51 25 -79 -5z"/>
<path d="M3510 4843 c-52 -9 -236 -65 -277 -85 -53 -25 -73 -50 -119 -147 -80 -169 -144 -409 -147 -553 -2 -89 14 -120 77 -152 52 -26 93 -15 278 70 l147 67 27 -22 c15 -11 40 -21 56 -21 54 0 65 14 78 92 23 145 58 222 133 296 39 38 47 42 66 33 31 -17 66 -4 106 40 25 28 35 48 35 72 0 91 -113 87 -199 -6 -29 -32 -44 -25 -36 15 14 61 -64 93 -107 45 -20 -22 -79 -210 -109 -345 -7 -29 -17 -56 -23 -61 -6 -4 -47 -21 -91 -36 -44 -15 -100 -37 -125 -48 -94 -41 -144 -57 -153 -48 -14 14 22 187 42 203 9 8 43 25 76 38 119 46 225 101 236 121 13 25 3 75 -18 83 -17 7 -127 -24 -199 -55 -25 -10 -49 -17 -54 -14 -13 8 57 192 81 211 8 6 49 23 92 37 73 24 81 25 103 10 30 -19 65 -7 118 42 49 45 50 86 2 109 -34 16 -48 17 -96 9z"/>
<path d="M4174 4740 c-26 -10 -54 -53 -54 -83 0 -55 85 -79 115 -33 9 13 18 40 22 59 4 28 1 37 -18 51 -26 18 -34 19 -65 6z"/>
<path d="M5407 4619 c-77 -18 -178 -84 -213 -140 -51 -82 -24 -159 77 -213 110 -59 113 -74 25 -152 -36 -31 -67 -63 -70 -70 -8 -20 10 -60 29 -68 42 -16 187 60 236 124 62 80 71 90 80 84 5 -3 9 -12 9 -21 0 -26 42 -75 78 -90 56 -23 107 -4 181 69 72 72 123 167 129 246 4 49 7 55 36 67 59 24 86 27 92 10 3 -8 -17 -86 -46 -172 -59 -178 -68 -252 -35 -277 51 -39 68 -21 225 237 23 37 45 65 51 62 5 -4 9 -45 9 -93 1 -101 17 -145 69 -179 82 -55 209 -11 291 100 26 35 28 43 16 55 -12 12 -21 9 -63 -21 -107 -75 -164 -70 -176 18 -4 25 -4 92 0 149 5 88 3 106 -12 129 -14 22 -25 27 -58 27 -35 0 -45 -6 -86 -50 -26 -28 -50 -48 -54 -44 -3 4 -4 26 0 50 8 61 -2 91 -40 110 -28 15 -39 15 -91 5 -33 -7 -89 -26 -124 -42 -77 -34 -82 -35 -115 -9 -32 26 -73 25 -116 -1 -41 -25 -57 -43 -117 -134 -26 -38 -60 -84 -77 -102 l-30 -32 -56 51 c-30 28 -72 61 -93 74 -22 14 -38 32 -38 43 0 22 34 52 80 71 26 11 33 10 49 -4 24 -21 47 -20 87 5 108 67 82 141 -49 138 -29 -1 -69 -5 -90 -10z m451 -236 c6 -56 -101 -235 -130 -217 -24 15 26 182 71 237 24 28 55 18 59 -20z"/>
<path d="M3892 3808 c-18 -18 -17 -448 1 -449 6 -1 30 -3 52 -5 21 -2 45 2 52 8 16 13 19 408 3 439 -8 14 -21 19 -53 19 -24 0 -48 -5 -55 -12z"/>
<path d="M4876 3804 c-3 -9 -6 -112 -6 -229 0 -233 -2 -225 60 -225 62 0 60 -8 60 225 0 117 -3 220 -6 229 -4 12 -20 16 -54 16 -34 0 -50 -4 -54 -16z"/>
<path d="M5995 3799 c-88 -43 -135 -120 -135 -218 0 -74 18 -116 71 -169 76 -76 181 -89 280 -34 70 39 89 76 89 172 l0 80 -109 0 c-117 0 -121 -2 -121 -56 0 -41 18 -64 49 -64 34 0 44 -9 30 -27 -7 -7 -31 -13 -56 -13 -36 0 -50 6 -74 29 -24 25 -29 37 -29 80 0 96 79 142 164 96 37 -20 33 -21 108 20 27 15 22 41 -14 69 -78 58 -179 72 -253 35z"/>
<path d="M3317 3804 c-4 -4 -7 -105 -7 -225 0 -199 2 -218 18 -223 23 -6 290 -6 325 0 l28 6 -3 56 -3 57 -120 5 -120 5 -5 160 -5 160 -50 3 c-28 2 -54 0 -58 -4z"/>
<path d="M4190 3794 c0 -9 21 -60 47 -113 25 -53 70 -146 98 -207 45 -96 56 -112 80 -116 15 -3 35 -4 44 -1 17 4 221 410 221 439 0 10 -15 14 -57 14 -32 0 -63 -4 -68 -8 -6 -4 -32 -54 -59 -112 -27 -58 -53 -109 -57 -114 -4 -5 -34 45 -66 110 l-59 119 -62 3 c-52 2 -62 0 -62 -14z"/>
<path d="M5260 3585 l0 -224 37 -7 c20 -4 48 -3 62 2 l26 9 5 88 c3 48 8 88 12 90 7 2 120 -122 145 -160 16 -24 55 -37 84 -28 l19 6 -2 222 -3 222 -55 0 -55 0 -5 -95 c-3 -58 -9 -93 -15 -90 -9 5 -50 49 -136 148 -32 37 -41 42 -78 42 l-41 0 0 -225z"/>
<path d="M8933 3538 c-9 -12 -233 -571 -233 -581 0 -2 -8 -22 -17 -43 -61 -141 -110 -280 -100 -291 7 -10 89 -13 347 -13 186 0 345 3 354 6 18 7 22 39 6 49 -5 3 -10 15 -10 26 0 10 -4 27 -9 37 -6 9 -21 46 -34 82 -14 36 -41 108 -60 160 -20 52 -65 172 -100 265 -35 94 -76 203 -91 243 -28 73 -36 82 -53 60z"/>
<path d="M13117 3100 c-50 -13 -73 -26 -125 -69 -82 -68 -130 -172 -151 -326 -56 -397 112 -666 400 -642 170 14 284 121 339 318 28 101 28 304 1 411 -37 142 -112 248 -209 290 -53 24 -193 33 -255 18z"/>
<path d="M16478 3613 c-132 -3 -178 -7 -179 -16 -5 -86 3 -613 10 -620 13 -13 466 -2 515 13 145 45 207 105 236 229 15 63 7 170 -16 227 -21 53 -80 112 -132 135 -41 18 -193 41 -237 37 -11 -2 -100 -4 -197 -5z"/>
<path d="M20735 3100 c-64 -10 -90 -21 -143 -59 -134 -99 -201 -367 -157 -636 28 -177 120 -304 243 -339 116 -32 252 -14 338 45 120 82 184 251 184 482 0 183 -44 314 -135 402 -91 90 -202 125 -330 105z"/>
<path d="M17915 3085 c-27 -8 -52 -14 -56 -15 -3 0 -33 -18 -66 -40 -123 -80 -189 -220 -200 -425 -10 -196 47 -366 156 -468 78 -72 135 -92 256 -92 115 1 190 32 264 109 95 101 131 204 138 396 7 184 -18 287 -99 407 -75 112 -249 168 -393 128z"/>
<path d="M12175 769 c-47 -95 -85 -176 -85 -180 0 -5 52 -9 116 -9 l116 0 -6 38 c-3 20 -11 94 -16 165 -11 131 -16 157 -31 157 -4 0 -46 -77 -94 -171z"/>
<path d="M12700 754 c-17 -15 -37 -38 -44 -53 -22 -43 -58 -211 -51 -241 19 -88 139 -86 178 2 28 62 50 153 51 216 1 56 -2 66 -23 83 -32 26 -74 24 -111 -7z"/>
<path d="M14543 760 c-40 -24 -59 -60 -84 -157 -28 -111 -26 -148 11 -185 27 -26 36 -30 67 -25 72 12 120 91 144 237 14 81 3 120 -37 139 -36 16 -65 14 -101 -9z"/>
<path d="M15318 753 c-26 -27 -58 -99 -58 -130 0 -11 19 -13 98 -11 l97 3 9 51 c6 38 5 59 -5 80 -13 26 -20 29 -64 32 -44 3 -54 -1 -77 -25z"/>
<path d="M17743 765 c-38 -27 -63 -71 -83 -152 -35 -138 -22 -196 45 -208 40 -8 89 23 113 72 25 49 55 203 46 237 -8 32 -48 66 -78 66 -12 0 -31 -7 -43 -15z"/>
<path d="M18694 770 c-23 -9 -66 -61 -79 -95 -13 -34 -35 -158 -35 -195 1 -55 30 -85 84 -85 36 0 51 6 75 29 39 38 71 130 78 229 5 72 4 80 -17 102 -25 26 -65 32 -106 15z"/>
<path d="M19785 761 c-43 -26 -63 -60 -85 -149 -39 -153 -20 -217 64 -217 76 0 113 49 146 197 22 96 18 136 -15 166 -32 27 -70 28 -110 3z"/>
<path d="M22127 754 c-30 -30 -62 -106 -54 -129 5 -12 25 -15 97 -15 l90 0 10 26 c16 41 12 89 -11 118 -29 37 -95 37 -132 0z"/>
</g>
</g>
  <g id="id1:id1" transform="matrix(1.25,0,0,1.25,0.0,0.0)"><g transform="translate(0.000000,262.400000) scale(0.040000,-0.040000)" fill="#000000" stroke="none">
<path d="M4620 6413 c-198 -14 -465 -71 -625 -133 -338 -131 -585 -286 -820 -516 -313 -306 -531 -691 -631 -1114 -68 -288 -73 -661 -14 -960 87 -443 307 -847 642 -1177 365 -361 817 -578 1340 -644 120 -16 416 -16 539 -1 265 32 458 88 729 210 189 85 433 255 604 421 352 342 568 743 663 1230 25 126 27 156 27 401 0 235 -2 279 -23 390 -90 494 -309 903 -667 1250 -266 258 -551 428 -909 543 -247 79 -589 119 -855 100z m353 -1603 c0 -25 -26 -129 -57 -232 -31 -103 -56 -189 -56 -192 0 -17 28 1 88 57 112 105 154 126 181 93 19 -22 4 -41 -101 -126 -57 -47 -96 -86 -91 -91 5 -5 56 -23 113 -40 112 -33 190 -71 190 -93 0 -24 -28 -38 -67 -33 -21 2 -105 25 -188 50 -82 26 -153 43 -157 39 -5 -5 -20 -55 -33 -112 -14 -57 -30 -110 -37 -117 -27 -32 -88 0 -88 46 0 14 11 82 25 150 14 68 25 130 25 138 0 28 -20 10 -73 -64 -138 -198 -214 -263 -304 -263 -44 0 -58 5 -85 29 l-33 29 1 74 c1 40 9 93 18 117 35 94 -14 61 -158 -105 -128 -147 -155 -164 -192 -121 -16 19 -24 41 -24 65 0 50 35 156 84 254 34 69 45 84 67 86 53 6 54 -17 9 -149 -22 -67 -37 -126 -32 -131 4 -4 75 59 157 140 125 123 162 155 223 185 82 41 144 53 185 38 23 -9 28 -16 25 -39 -3 -24 -7 -27 -38 -28 -96 -1 -179 -100 -210 -248 -22 -106 8 -147 76 -106 88 55 302 357 419 591 61 122 91 161 118 157 19 -3 22 -9 20 -48z m-1379 10 c53 -20 21 -89 -55 -120 -25 -11 -32 -10 -48 4 -16 15 -24 14 -112 -14 -52 -17 -101 -39 -110 -50 -21 -25 -94 -228 -85 -237 3 -4 63 12 132 36 69 23 133 40 141 37 25 -10 11 -58 -23 -81 -17 -11 -84 -43 -150 -69 -65 -27 -125 -54 -131 -60 -15 -13 -38 -97 -48 -172 -11 -84 0 -86 162 -21 76 30 163 64 193 75 l55 20 51 185 c57 208 71 237 114 237 16 0 32 -4 35 -10 3 -5 1 -37 -6 -70 -6 -33 -9 -63 -6 -66 2 -3 28 20 57 50 29 30 72 65 96 77 42 20 46 20 69 5 37 -25 34 -69 -9 -112 -36 -36 -55 -41 -87 -23 -16 8 -27 4 -59 -21 -74 -59 -131 -170 -155 -306 -7 -39 -15 -77 -19 -83 -12 -19 -74 -13 -88 9 -7 11 -19 20 -27 20 -8 0 -64 -23 -125 -51 -143 -66 -230 -99 -262 -99 -38 0 -82 27 -100 62 -42 81 30 410 141 643 51 106 65 118 190 159 158 51 226 63 269 46z m640 -112 c25 -41 -34 -109 -76 -87 -24 13 -23 50 3 83 24 30 55 32 73 4z m1346 -116 c19 -15 21 -22 11 -39 -12 -24 -71 -63 -93 -63 -9 0 -21 7 -28 15 -28 34 -160 -35 -160 -85 0 -12 28 -40 75 -75 41 -31 86 -71 99 -88 l24 -30 27 17 c14 9 47 50 72 89 88 137 139 187 192 187 11 0 38 -9 60 -21 l40 -20 71 31 c92 41 180 58 215 42 22 -10 25 -18 25 -64 0 -29 -7 -75 -15 -102 -27 -88 -13 -103 31 -35 39 62 102 126 131 133 17 5 31 1 45 -10 17 -16 19 -31 16 -154 -2 -149 7 -190 47 -208 30 -14 76 -1 134 37 52 35 70 31 41 -9 -25 -35 -102 -87 -152 -102 -33 -10 -46 -8 -85 8 -72 30 -87 68 -86 216 1 65 -1 118 -5 118 -10 -1 -58 -70 -129 -187 -80 -131 -102 -161 -127 -169 -29 -9 -49 22 -43 71 2 22 27 111 56 198 28 87 51 169 51 183 l0 26 -41 -7 c-51 -9 -111 -33 -121 -49 -4 -6 -8 -31 -8 -56 -1 -107 -128 -281 -222 -305 -35 -9 -94 11 -113 38 -8 12 -15 36 -15 55 0 49 -27 54 -59 12 -63 -82 -127 -141 -184 -170 -67 -34 -89 -37 -107 -15 -19 22 -3 51 49 90 50 36 81 74 81 98 0 19 -48 61 -99 87 -72 36 -91 61 -91 120 0 44 5 55 37 91 68 75 164 117 269 118 46 1 68 -4 84 -17z m-1595 -1007 l0 -210 -40 0 -40 0 -3 200 c-1 110 0 205 3 213 3 9 18 12 42 10 l38 -3 0 -210z m980 205 c11 -17 8 -401 -2 -411 -6 -6 -26 -9 -44 -7 l-34 3 -3 200 c-1 110 0 205 2 212 6 15 72 18 81 3z m1220 -9 c22 -10 48 -27 58 -39 l18 -20 -29 -21 c-35 -25 -50 -26 -76 -6 -26 20 -101 19 -132 -1 -77 -51 -70 -188 12 -227 19 -9 46 -17 60 -17 26 0 83 28 86 42 5 29 0 33 -42 38 -41 5 -45 8 -48 34 -2 16 2 34 8 40 14 14 161 18 177 5 6 -6 11 -36 11 -70 -1 -73 -24 -113 -85 -147 -85 -47 -184 -38 -253 24 -57 52 -73 93 -68 178 3 59 8 79 33 115 57 85 175 116 270 72z m-2768 -141 c1 -80 2 -153 3 -162 0 -15 14 -18 118 -20 l117 -3 0 -40 0 -40 -160 0 -160 0 -3 195 c-1 107 0 200 3 208 3 9 18 12 42 10 l38 -3 2 -145z m948 23 c32 -68 63 -123 68 -123 4 0 35 56 69 125 l60 125 43 0 c24 0 46 -3 48 -7 3 -5 -40 -99 -94 -211 l-99 -203 -27 3 c-31 3 -32 6 -158 267 -35 74 -62 138 -59 143 3 5 25 8 47 6 l42 -3 60 -122z m1066 22 c50 -58 97 -104 103 -102 7 2 13 44 16 103 l5 99 40 0 40 0 2 -195 c2 -268 -7 -275 -147 -112 -51 59 -98 107 -104 107 -7 0 -13 -40 -16 -105 l-5 -105 -40 0 -40 0 -3 195 c-1 107 0 200 2 207 3 7 16 13 30 13 19 0 47 -25 117 -105z"/>
<path d="M5798 4421 c-54 -43 -109 -227 -80 -270 23 -33 115 78 148 180 15 46 16 55 3 78 -19 33 -39 37 -71 12z"/>
<path d="M12190 5954 c-352 -15 -790 -41 -915 -54 -49 -5 -151 -14 -225 -20 -843 -71 -1797 -211 -2620 -386 -521 -111 -1345 -320 -1361 -347 -4 -5 4 -37 16 -71 81 -209 133 -338 141 -345 5 -5 63 6 129 24 185 49 246 64 430 106 184 43 554 121 675 143 41 8 149 28 240 45 182 35 492 88 585 101 33 5 87 13 120 19 233 37 604 87 1120 151 44 5 166 19 270 30 105 11 233 24 285 30 95 10 461 41 705 60 785 60 1615 90 2489 90 473 0 1245 -17 1581 -35 448 -23 620 -34 900 -55 421 -32 539 -42 625 -51 52 -5 142 -13 200 -19 397 -35 1222 -135 1625 -196 55 -8 161 -24 235 -35 202 -30 713 -114 900 -149 168 -31 220 -36 220 -22 0 9 -41 21 -370 112 -56 15 -310 81 -370 96 -255 61 -460 110 -551 130 -41 9 -114 25 -164 35 -377 83 -989 200 -1305 249 -30 5 -140 23 -245 40 -323 52 -916 132 -1220 164 -82 9 -184 21 -225 26 -121 16 -877 82 -1085 95 -349 21 -467 27 -798 40 -457 18 -1609 18 -2037 -1z"/>
<path d="M8814 3822 c-6 -4 -75 -160 -154 -347 -174 -416 -235 -559 -312 -740 -33 -77 -75 -176 -93 -220 -18 -44 -72 -172 -120 -285 -86 -202 -135 -321 -135 -327 0 -7 276 -2 286 5 5 4 45 93 88 197 90 219 111 265 134 283 12 9 116 12 439 12 l423 0 15 -32 c8 -18 37 -89 66 -158 28 -69 69 -167 91 -217 l40 -93 149 0 c87 0 149 4 149 9 0 9 -90 235 -223 561 -30 74 -102 252 -160 395 -105 261 -122 303 -138 340 -16 38 -77 191 -159 395 -46 113 -87 211 -93 218 -11 13 -273 18 -293 4z m231 -552 c48 -129 91 -244 96 -255 34 -78 137 -370 133 -376 -6 -11 -671 -12 -677 -1 -2 4 38 113 90 242 52 129 126 316 165 415 38 99 74 191 79 204 6 14 13 20 18 15 5 -5 48 -115 96 -244z"/>
<path d="M11192 3818 c-9 -9 -12 -221 -12 -949 0 -516 3 -944 6 -953 9 -24 249 -24 258 0 3 9 6 187 6 397 0 210 5 414 10 452 26 181 140 285 320 293 73 4 94 1 138 -18 97 -42 143 -120 156 -265 3 -33 5 -244 5 -468 l1 -408 133 3 132 3 0 515 c0 461 -2 521 -17 571 -52 168 -196 264 -416 276 -176 11 -332 -46 -429 -157 -17 -20 -23 -22 -27 -10 -3 8 -7 175 -8 370 l-3 355 -120 3 c-85 2 -124 -1 -133 -10z"/>
<path d="M12596 3822 c-3 -5 -6 -438 -6 -963 l-1 -954 120 -3 c92 -2 122 1 126 10 2 7 6 45 9 83 2 39 5 71 5 72 1 1 23 -20 50 -47 165 -165 483 -186 694 -46 126 84 208 205 249 372 29 120 32 360 4 479 -30 132 -75 216 -158 299 -111 110 -229 155 -404 156 -159 0 -280 -43 -371 -132 -37 -37 -54 -48 -58 -37 -3 8 -6 172 -7 364 l-3 350 -122 3 c-67 1 -124 -1 -127 -6z m785 -764 c137 -80 202 -232 202 -473 0 -240 -72 -396 -218 -473 -45 -24 -61 -26 -155 -27 -98 0 -109 2 -158 29 -145 81 -208 236 -199 491 7 195 46 313 134 399 68 68 125 87 248 83 88 -2 106 -6 146 -29z"/>
<path d="M16035 3818 c-3 -7 -4 -440 -3 -963 l3 -950 135 0 135 0 5 420 5 420 260 6 c356 8 452 30 579 131 132 106 196 241 196 415 0 197 -102 384 -256 465 -107 57 -140 61 -617 65 -356 4 -438 2 -442 -9z m843 -242 c108 -34 172 -133 172 -264 0 -182 -90 -283 -278 -312 -37 -6 -155 -9 -262 -8 l-195 3 -3 289 c-2 217 1 292 10 303 19 23 480 13 556 -11z"/>
<path d="M21183 3823 c-10 -4 -13 -83 -13 -347 0 -189 -3 -345 -6 -348 -3 -4 -29 16 -57 43 -79 75 -173 111 -308 117 -391 17 -638 -265 -639 -731 0 -404 192 -648 537 -682 144 -15 335 49 423 139 24 25 47 43 52 40 4 -3 8 -32 8 -64 0 -94 -5 -90 136 -90 92 0 124 3 125 13 0 6 0 437 -1 957 -1 719 -4 946 -13 952 -13 8 -224 10 -244 1z m-240 -763 c88 -33 156 -106 198 -212 l33 -83 1 -175 c0 -142 -3 -186 -18 -235 -44 -140 -114 -228 -215 -265 -82 -31 -235 -26 -306 10 -137 70 -205 252 -193 515 7 131 33 243 72 311 34 59 114 127 171 146 66 23 180 18 257 -12z"/>
<path d="M10295 3262 c-266 -61 -410 -260 -353 -490 36 -147 154 -226 431 -293 240 -57 291 -75 326 -114 27 -31 31 -43 31 -93 0 -75 -29 -126 -94 -167 l-49 -30 -111 0 c-102 0 -116 2 -169 29 -66 32 -117 97 -117 150 0 55 -5 57 -151 54 l-134 -3 4 -60 c7 -114 68 -226 159 -289 105 -72 292 -107 474 -88 244 26 379 112 449 287 19 48 24 78 24 147 -1 79 -4 93 -36 155 -27 54 -47 78 -96 114 -70 54 -91 61 -376 133 -170 44 -215 59 -245 83 -50 40 -64 69 -59 124 5 63 38 106 106 138 49 23 68 26 156 25 82 0 107 -4 141 -22 54 -28 92 -73 99 -120 11 -66 12 -67 126 -70 57 -2 115 0 128 3 l24 6 -5 73 c-13 204 -187 321 -493 332 -82 3 -130 -1 -190 -14z"/>
<path d="M17885 3273 c-65 -8 -154 -37 -227 -75 -206 -107 -328 -349 -328 -648 1 -267 114 -495 301 -604 215 -127 547 -121 755 15 137 89 234 240 275 429 22 101 17 306 -9 409 -67 256 -227 417 -464 465 -70 15 -223 19 -303 9z m290 -228 c57 -27 135 -105 160 -159 43 -94 50 -138 50 -306 0 -173 -7 -210 -57 -318 -28 -59 -103 -134 -169 -168 -49 -26 -63 -29 -159 -29 -121 0 -165 15 -241 83 -151 134 -197 484 -94 709 46 101 157 192 264 214 70 15 188 3 246 -26z"/>
<path d="M22040 3273 c-65 -8 -165 -42 -229 -80 -75 -44 -143 -124 -168 -198 -27 -75 -24 -205 5 -270 58 -127 155 -182 452 -255 226 -55 254 -65 290 -106 26 -30 30 -43 30 -90 0 -140 -107 -214 -291 -201 -141 9 -230 73 -246 173 -3 21 -10 45 -16 52 -13 17 -264 17 -269 0 -10 -28 16 -148 43 -205 48 -102 145 -171 289 -210 96 -25 328 -22 432 5 150 41 248 113 303 226 75 153 47 339 -66 443 -51 46 -154 85 -366 139 -226 57 -272 75 -313 119 -21 22 -25 36 -25 84 1 74 28 114 104 150 49 22 69 25 156 25 88 0 106 -4 152 -27 59 -30 81 -64 92 -136 l6 -46 110 -3 c61 -2 121 0 134 3 l24 6 -5 73 c-6 84 -40 158 -97 208 -107 94 -327 144 -531 121z"/>
<path d="M19369 3256 c-71 -20 -145 -65 -196 -117 -26 -27 -50 -46 -55 -43 -4 3 -8 33 -8 68 0 35 -5 67 -12 74 -14 14 -225 17 -246 4 -10 -7 -12 -148 -10 -673 l3 -664 124 -3 c93 -2 126 1 133 10 4 7 8 198 8 423 0 446 4 481 56 571 72 122 233 183 378 143 56 -15 128 -63 154 -103 24 -35 53 -130 50 -163 0 -10 0 -213 0 -451 l2 -433 133 3 132 3 0 505 0 505 -23 68 c-42 121 -135 211 -267 259 -75 27 -283 35 -356 14z"/>
<path d="M13892 3241 c-12 -7 166 -449 495 -1222 l45 -106 -50 -124 c-27 -68 -72 -180 -100 -249 -35 -88 -47 -129 -40 -137 12 -14 234 -19 254 -5 6 4 53 114 103 245 96 252 111 286 324 767 74 168 179 404 232 525 53 121 105 237 115 257 12 26 14 40 7 47 -7 7 -63 11 -144 11 -119 0 -134 -2 -139 -17 -7 -21 -52 -136 -70 -178 -15 -35 -228 -562 -288 -715 -23 -58 -46 -105 -51 -105 -5 0 -98 223 -206 495 -108 272 -202 501 -208 508 -14 14 -257 17 -279 3z"/>
<path d="M2400 3220 c-8 -5 -69 -39 -135 -77 -222 -124 -633 -393 -951 -621 -28 -20 -89 -64 -135 -96 -114 -81 -547 -399 -584 -430 -66 -54 -1 -31 140 49 28 15 136 75 240 133 105 57 228 126 275 152 47 25 157 86 245 134 88 49 174 96 190 106 17 10 55 31 85 47 30 17 105 57 165 91 61 33 130 71 155 84 25 14 113 62 195 108 83 45 166 91 187 102 45 24 51 39 34 81 -8 17 -22 52 -32 77 -28 71 -40 80 -74 60z"/>
<path d="M22490 1028 c-119 -61 -122 -208 -5 -276 73 -42 165 -9 205 74 47 97 -11 198 -127 220 -18 3 -43 -3 -73 -18z m166 -94 c8 -32 -1 -103 -15 -117 -16 -16 -33 42 -26 89 5 33 2 44 -14 58 -11 10 -18 23 -15 28 9 14 63 -31 70 -58z m-165 -36 c-3 -80 -10 -98 -32 -72 -21 26 -18 107 5 133 11 12 21 19 24 16 3 -3 4 -38 3 -77z m79 -68 c0 -10 5 -22 10 -25 16 -10 1 -25 -25 -25 -32 0 -35 9 -18 48 14 34 33 35 33 2z"/>
<path d="M12237 1027 c-14 -12 -43 -64 -188 -342 -40 -77 -94 -180 -121 -229 -26 -49 -48 -95 -48 -103 0 -9 14 -13 48 -13 l47 0 41 78 41 77 124 0 124 0 10 -75 10 -75 45 -3 c48 -4 71 13 64 46 -7 30 -64 551 -64 585 0 17 -4 38 -9 46 -12 18 -104 24 -124 8z m51 -297 c6 -69 8 -128 6 -132 -3 -5 -169 -5 -182 1 -1 0 30 65 69 142 86 173 93 172 107 -11z"/>
<path d="M12908 1028 c-9 -7 -18 -26 -21 -43 -16 -98 -30 -161 -37 -169 -5 -4 -19 -1 -31 8 -52 36 -164 7 -212 -55 -65 -86 -104 -328 -63 -391 31 -48 101 -62 169 -33 23 9 38 11 42 5 3 -6 24 -10 46 -10 47 0 48 2 78 145 11 55 30 143 41 195 54 250 69 331 64 345 -7 18 -54 20 -76 3z m-106 -285 c24 -21 23 -64 -3 -175 -16 -66 -29 -98 -51 -124 -45 -51 -110 -43 -123 14 -7 32 18 164 42 224 28 69 93 99 135 61z"/>
<path d="M13377 1021 c-8 -9 -22 -58 -32 -109 -10 -51 -21 -95 -26 -98 -5 -2 -20 3 -34 12 -34 22 -123 14 -165 -16 -56 -40 -96 -136 -118 -281 -15 -96 1 -155 47 -182 36 -21 90 -22 138 -2 25 11 40 12 47 5 5 -5 27 -10 48 -10 31 0 39 4 43 23 8 37 53 250 96 456 22 107 38 200 35 207 -7 18 -63 14 -79 -5z m-102 -281 c15 -16 17 -31 12 -82 -3 -35 -15 -93 -27 -130 -38 -124 -134 -160 -164 -61 -8 24 29 192 50 235 29 56 95 76 129 38z"/>
<path d="M15963 1028 c-14 -18 -143 -619 -143 -664 l0 -24 169 0 169 0 12 35 c6 19 9 39 5 45 -4 6 -52 10 -116 10 -79 0 -111 4 -114 13 -5 11 14 108 95 487 20 96 15 110 -35 110 -18 0 -37 -6 -42 -12z"/>
<path d="M16368 1028 c-17 -14 -27 -65 -15 -84 7 -13 74 -11 88 3 5 5 10 27 12 49 l2 39 -35 3 c-19 2 -43 -3 -52 -10z"/>
<path d="M16996 1026 c-21 -16 -30 -70 -14 -83 8 -6 29 -8 52 -4 35 5 41 11 49 40 5 21 5 37 -2 44 -14 14 -68 17 -85 3z"/>
<path d="M21202 1027 c-6 -7 -32 -110 -57 -228 -25 -118 -56 -263 -69 -324 -13 -60 -22 -115 -19 -122 4 -10 45 -13 174 -13 l168 0 9 33 c15 54 10 56 -111 59 l-112 3 1 35 c0 19 12 91 27 160 15 69 37 170 49 225 12 55 22 118 23 140 l0 40 -36 3 c-21 2 -40 -2 -47 -11z"/>
<path d="M21622 1033 c-25 -5 -27 -9 -36 -61 l-6 -33 52 3 52 3 8 39 c11 53 -2 62 -70 49z"/>
<path d="M21904 1029 c-60 -17 -84 -55 -120 -186 -2 -7 -17 -13 -33 -13 -20 0 -34 -7 -41 -19 -18 -35 -12 -51 18 -51 16 0 31 -2 34 -5 5 -6 0 -41 -27 -160 -56 -254 -56 -258 2 -253 l38 3 18 75 c10 41 30 134 45 205 l27 130 50 5 50 5 0 30 c0 27 -4 31 -35 35 -30 4 -35 9 -38 35 -4 47 18 78 68 96 39 14 45 21 45 45 0 26 -4 29 -35 31 -19 1 -49 -2 -66 -8z"/>
<path d="M18373 934 c-26 -13 -34 -25 -40 -58 -8 -39 -11 -41 -48 -46 -37 -5 -40 -8 -43 -37 -3 -30 -1 -33 23 -33 14 0 28 -6 31 -13 3 -8 -7 -70 -22 -138 -14 -68 -29 -149 -31 -179 -7 -74 14 -95 97 -95 67 1 92 16 88 54 -3 22 -9 27 -43 31 -27 3 -41 10 -43 22 -4 18 44 255 59 296 7 18 16 22 54 22 40 0 47 3 56 27 12 33 4 41 -46 45 -43 3 -43 3 -31 76 7 37 5 42 -11 42 -10 0 -32 -8 -50 -16z"/>
<path d="M13884 826 c-21 -9 -35 -11 -42 -4 -14 14 -84 5 -93 -12 -4 -8 -17 -64 -28 -125 -12 -60 -32 -158 -44 -216 -13 -58 -21 -111 -19 -117 2 -7 21 -12 43 -12 l38 0 15 53 c7 28 26 108 40 177 14 69 34 136 44 150 24 31 84 49 106 30 9 -7 16 -25 16 -40 0 -29 -57 -307 -66 -322 -3 -4 -2 -17 1 -28 5 -15 15 -20 45 -20 46 0 38 -17 85 200 30 137 40 169 62 192 32 33 72 36 97 9 21 -23 20 -33 -25 -240 -17 -74 -27 -141 -25 -148 7 -17 70 -17 83 0 6 6 18 48 27 92 8 44 25 122 36 174 31 144 26 181 -27 209 -30 16 -113 15 -143 -3 -47 -27 -51 -27 -71 -10 -26 24 -114 30 -155 11z"/>
<path d="M14514 821 c-23 -10 -54 -35 -69 -54 -64 -84 -104 -292 -72 -369 23 -54 63 -72 152 -66 45 3 83 12 103 24 65 38 108 129 133 279 16 95 2 147 -50 182 -44 30 -137 31 -197 4z m137 -82 c19 -19 21 -29 16 -78 -16 -151 -73 -251 -143 -251 -50 0 -69 33 -60 111 7 70 33 166 52 194 33 47 100 59 135 24z"/>
<path d="M15060 833 c-8 -3 -23 -12 -32 -21 -16 -13 -18 -13 -24 2 -7 18 -79 23 -89 5 -6 -9 -16 -49 -45 -189 -5 -25 -20 -95 -33 -155 -13 -61 -22 -116 -19 -123 2 -7 21 -12 42 -12 l39 0 14 53 c8 28 26 106 40 171 33 149 54 174 147 186 l45 5 3 43 3 42 -38 -1 c-21 0 -45 -3 -53 -6z"/>
<path d="M15317 826 c-70 -26 -107 -75 -138 -183 -30 -103 -35 -201 -15 -245 58 -123 323 -66 338 72 3 23 -1 25 -45 28 -42 3 -48 1 -56 -21 -22 -58 -101 -86 -134 -49 -20 22 -23 92 -5 110 8 8 53 12 135 12 l123 0 12 28 c6 15 12 66 12 114 1 83 -1 89 -26 115 -24 24 -37 28 -95 30 -41 2 -83 -2 -106 -11z m121 -85 c7 -9 12 -35 10 -61 l-3 -45 -74 -3 c-41 -2 -78 1 -83 6 -11 11 21 90 43 108 32 27 84 24 107 -5z"/>
<path d="M17315 833 c-11 -3 -26 -10 -33 -16 -9 -7 -20 -6 -36 2 -12 7 -38 11 -56 9 l-34 -3 -12 -70 c-7 -38 -20 -101 -28 -140 -44 -197 -55 -260 -47 -268 4 -4 26 -7 47 -5 33 3 39 7 45 33 3 17 19 88 34 160 30 144 42 173 81 204 45 35 114 22 114 -22 0 -23 -28 -165 -55 -281 -9 -38 -14 -75 -11 -82 7 -18 70 -18 84 -1 6 6 17 48 26 92 8 44 23 112 32 150 9 39 18 97 21 131 l5 60 -32 27 c-25 21 -41 27 -78 26 -26 -1 -56 -4 -67 -6z"/>
<path d="M17720 829 c-91 -36 -155 -178 -155 -341 0 -77 2 -89 24 -112 30 -32 82 -43 136 -28 22 6 44 7 49 2 13 -12 -13 -78 -37 -95 -43 -30 -107 -14 -107 27 0 15 -9 18 -50 18 -43 0 -50 -3 -55 -23 -9 -34 11 -75 47 -98 45 -28 170 -22 223 11 58 36 62 50 151 480 15 69 28 127 30 129 2 2 -1 10 -7 18 -13 15 -71 17 -85 3 -7 -7 -20 -6 -40 5 -33 17 -87 19 -124 4z m112 -86 c24 -21 23 -76 -2 -178 -16 -65 -27 -86 -55 -112 -61 -57 -115 -35 -115 46 1 52 20 138 43 192 26 63 89 89 129 52z"/>
<path d="M18660 825 c-65 -30 -104 -82 -136 -184 -21 -67 -28 -220 -12 -251 33 -62 159 -80 246 -36 75 39 119 127 142 283 13 93 1 144 -43 177 -37 27 -147 33 -197 11z m120 -75 c28 -15 34 -69 16 -149 -32 -140 -66 -191 -129 -191 -46 0 -67 25 -67 79 0 63 26 177 48 215 29 49 87 70 132 46z"/>
<path d="M19754 822 c-79 -37 -120 -113 -149 -274 -17 -96 -5 -160 37 -191 35 -26 134 -35 190 -16 85 28 145 134 169 299 13 90 0 142 -44 174 -40 29 -147 33 -203 8z m136 -82 c25 -25 25 -61 -1 -163 -25 -97 -40 -129 -73 -151 -60 -39 -116 -10 -116 60 0 64 28 183 52 221 33 54 101 70 138 33z"/>
<path d="M20757 821 c-31 -16 -38 -16 -48 -5 -14 17 -73 18 -86 2 -5 -7 -17 -53 -27 -103 -9 -49 -30 -151 -46 -225 -15 -74 -26 -138 -24 -142 7 -10 65 -10 81 0 6 4 25 73 42 154 41 200 61 235 143 245 56 7 68 18 68 59 0 32 -2 34 -33 34 -18 0 -49 -8 -70 -19z"/>
<path d="M22127 826 c-45 -16 -70 -38 -96 -80 -31 -51 -60 -153 -67 -236 -11 -131 29 -180 149 -180 90 0 190 70 199 140 3 23 0 25 -45 28 -42 3 -48 1 -56 -21 -13 -34 -58 -67 -91 -67 -42 0 -62 29 -58 86 l3 49 132 5 c72 3 135 8 138 12 4 4 12 41 18 82 20 138 -12 188 -126 193 -36 2 -78 -3 -100 -11z m113 -76 c23 -23 28 -88 8 -108 -17 -17 -147 -16 -154 1 -6 17 20 78 43 99 17 15 41 24 71 27 6 0 21 -8 32 -19z"/>
<path d="M16322 818 c-7 -7 -12 -19 -12 -28 0 -9 -20 -108 -44 -220 -24 -112 -42 -210 -39 -217 7 -17 67 -17 82 0 6 8 22 68 36 133 13 65 34 163 45 217 12 54 19 105 16 113 -7 17 -67 19 -84 2z"/>
<path d="M16480 813 c0 -33 30 -408 36 -441 l5 -33 57 3 57 3 123 232 c68 128 121 237 117 243 -3 5 -24 10 -46 10 l-39 0 -86 -171 c-64 -129 -88 -169 -97 -160 -7 7 -14 71 -18 161 -4 82 -10 154 -14 159 -3 6 -26 11 -51 11 -35 0 -44 -3 -44 -17z"/>
<path d="M16953 818 c-5 -7 -22 -74 -38 -148 -15 -74 -36 -173 -47 -219 -10 -47 -16 -91 -14 -98 8 -21 83 -17 90 5 10 34 96 444 96 458 0 18 -73 20 -87 2z"/>
<path d="M19204 815 c-6 -15 19 -245 36 -344 17 -95 13 -126 -30 -211 -22 -44 -40 -84 -40 -90 0 -7 18 -10 46 -8 l46 3 32 60 c18 33 97 179 175 323 92 171 140 267 133 274 -5 5 -27 8 -48 6 l-39 -3 -83 -164 c-50 -97 -88 -159 -93 -154 -5 5 -14 70 -20 144 -15 191 -11 179 -65 179 -30 0 -46 -5 -50 -15z"/>
<path d="M20151 813 c-13 -25 -81 -358 -81 -397 0 -73 104 -110 188 -67 37 19 43 20 48 6 4 -10 19 -15 45 -15 32 0 41 4 48 22 14 36 84 389 85 428 l1 35 -37 3 c-47 4 -48 1 -82 -168 -36 -177 -43 -196 -77 -224 -39 -33 -93 -35 -110 -5 -12 24 -12 25 30 229 17 80 31 151 31 158 0 20 -77 16 -89 -5z"/>
<path d="M21556 813 c-4 -17 -15 -67 -71 -330 -14 -68 -23 -127 -20 -133 9 -14 71 -12 83 3 5 6 19 57 31 112 11 55 32 155 46 223 14 67 23 127 20 132 -3 6 -24 10 -45 10 -28 0 -40 -5 -44 -17z"/>
</g>
</g>
</svg>
