<?xml version="1.0" standalone="no"?>
<!DOCTYPE svg PUBLIC "-//W3C//DTD SVG 1.1//EN"
 "http://www.w3.org/Graphics/SVG/1.1/DTD/svg11.dtd">
<!-- Created with svg_stack (http://github.com/astraw/svg_stack) -->
<svg xmlns:sodipodi="http://sodipodi.sourceforge.net/DTD/sodipodi-0.dtd" xmlns="http://www.w3.org/2000/svg" version="1.1" width="1677.0" height="1302.0">
  <defs/>
  <g id="id0:id0" transform="matrix(1.25,0,0,1.25,0.0,0.0)"><g transform="translate(0.000000,1041.600000) scale(0.040000,-0.040000)" fill="#f9c301" stroke="none">
<path d="M6735 25200 c-980 -43 -1821 -231 -2550 -570 -120 -56 -283 -138 -325 -165 -22 -14 -42 -25 -44 -25 -8 0 -222 -128 -302 -181 -88 -58 -272 -189 -320 -228 -18 -15 -60 -48 -95 -76 -107 -85 -319 -278 -425 -386 -678 -696 -1073 -1538 -1175 -2504 -45 -435 -38 -867 22 -1225 20 -119 59 -300 79 -365 117 -378 229 -622 398 -865 25 -36 55 -78 66 -95 117 -169 379 -461 567 -635 430 -397 643 -550 1134 -815 148 -80 227 -122 320 -172 55 -29 343 -174 640 -322 517 -257 599 -297 798 -390 244 -115 1085 -531 1217 -602 77 -42 138 -76 168 -94 348 -208 448 -275 642 -429 316 -252 523 -512 634 -795 71 -180 96 -323 96 -541 0 -160 -9 -245 -41 -375 -20 -82 -26 -101 -63 -195 -106 -275 -370 -574 -686 -777 -142 -92 -426 -211 -577 -244 -26 -5 -64 -14 -83 -18 -182 -45 -369 -65 -605 -65 -245 -1 -426 20 -625 71 -52 14 -111 28 -130 33 -64 14 -280 93 -340 125 -14 7 -68 35 -120 61 -317 158 -626 403 -920 729 -212 235 -451 593 -638 955 -44 85 -86 159 -94 163 -8 5 -45 -9 -103 -41 -49 -27 -124 -67 -165 -89 -41 -22 -125 -68 -187 -102 -62 -33 -115 -61 -118 -61 -3 0 -22 -11 -43 -23 -20 -13 -84 -49 -142 -79 -58 -30 -132 -70 -165 -88 -33 -18 -107 -58 -165 -88 -58 -30 -134 -72 -170 -92 -36 -21 -114 -63 -175 -95 -60 -31 -114 -61 -120 -65 -5 -4 -53 -30 -105 -57 -52 -28 -147 -79 -210 -113 -63 -34 -162 -87 -220 -118 -96 -51 -119 -67 -120 -83 0 -3 13 -25 28 -50 16 -24 46 -73 67 -109 333 -562 882 -1149 1419 -1515 260 -178 566 -357 791 -466 150 -71 346 -159 357 -159 4 0 31 -11 60 -24 192 -87 650 -232 923 -292 61 -13 146 -33 190 -43 107 -26 166 -37 320 -61 262 -42 386 -57 565 -70 80 -6 190 -15 245 -20 270 -25 900 -20 1285 10 164 13 493 48 575 61 33 5 89 14 125 19 85 13 161 26 235 40 33 7 74 14 90 17 17 2 39 8 50 13 11 4 49 14 85 21 36 6 108 23 160 36 52 14 111 29 130 33 82 20 84 21 425 132 50 16 100 33 113 39 37 15 63 26 157 63 409 160 838 396 1210 666 414 300 828 709 1074 1060 168 240 263 399 378 637 46 95 83 176 83 180 0 5 14 42 31 83 139 338 242 794 280 1235 15 183 15 646 0 805 -36 379 -114 701 -246 1025 -86 208 -144 318 -268 505 -88 132 -114 167 -206 279 -247 301 -525 562 -884 829 -160 119 -250 177 -433 276 -76 42 -146 81 -154 86 -47 29 -605 310 -780 393 -63 30 -162 77 -220 105 -115 55 -290 136 -535 247 -88 40 -196 90 -240 110 -44 21 -102 48 -130 60 -27 13 -80 37 -118 54 -37 17 -69 31 -71 31 -2 0 -47 20 -100 45 -53 25 -98 45 -101 45 -3 0 -170 77 -375 172 -36 17 -121 57 -190 88 -237 109 -551 267 -755 379 -686 378 -1021 668 -1200 1036 -70 144 -102 250 -127 415 -34 228 -12 444 71 720 20 66 128 267 186 346 78 106 280 306 385 381 71 50 154 101 295 181 57 32 267 104 395 136 205 50 357 66 623 66 302 0 481 -19 749 -79 450 -101 834 -288 1188 -581 165 -136 442 -436 560 -606 105 -151 147 -212 155 -229 6 -11 43 -74 82 -140 39 -66 103 -184 142 -262 39 -79 77 -143 84 -143 7 0 50 24 96 53 46 28 102 63 125 76 44 26 374 232 416 260 14 9 69 44 123 76 54 33 137 85 186 115 289 180 448 279 499 312 31 20 95 60 142 88 47 29 117 71 155 94 39 23 71 50 73 60 5 26 -200 358 -350 567 -298 417 -721 838 -1142 1137 -301 215 -666 422 -981 556 -60 26 -123 53 -140 61 -72 32 -298 110 -498 174 -236 75 -576 148 -932 200 -187 27 -277 37 -580 61 -174 13 -631 19 -840 10z"/>
<path d="M25665 20334 c-675 -87 -1075 -392 -1264 -964 -45 -137 -62 -210 -94 -405 l-21 -130 -3 -4139 c-2 -2277 0 -4143 5 -4148 11 -11 1703 -11 1714 0 4 4 9 1384 10 3065 2 2029 6 3057 13 3058 11 2 20 -10 166 -226 230 -338 276 -406 344 -505 40 -58 127 -186 194 -285 67 -99 156 -229 198 -290 79 -115 199 -291 343 -504 47 -69 119 -175 160 -235 41 -60 118 -173 170 -250 141 -208 478 -703 733 -1076 58 -85 149 -218 201 -295 52 -77 139 -205 193 -285 170 -249 266 -389 388 -570 65 -96 126 -184 136 -196 11 -11 19 -24 19 -28 0 -5 22 -38 48 -75 27 -36 69 -97 95 -136 225 -339 562 -760 797 -995 192 -193 329 -295 524 -390 214 -103 383 -140 651 -140 248 0 373 21 560 96 240 95 417 290 512 564 80 228 109 411 123 780 10 268 14 8378 4 8404 -6 14 -91 16 -865 16 -811 0 -859 -1 -859 -17 0 -10 0 -1070 0 -2355 0 -1402 -4 -2339 -10 -2343 -8 -5 -52 54 -199 270 -108 158 -209 306 -326 475 -62 91 -147 215 -189 275 -41 61 -100 146 -130 190 -31 44 -94 136 -142 205 -47 69 -122 179 -168 245 -45 66 -122 179 -171 250 -49 72 -113 164 -141 205 -29 41 -105 152 -169 245 -64 94 -139 202 -166 240 -27 39 -88 126 -134 195 -46 69 -118 175 -160 235 -42 61 -108 157 -147 215 -89 131 -281 401 -323 455 -391 496 -670 770 -984 965 -296 184 -594 287 -964 335 -145 18 -527 18 -672 -1z"/>
<path d="M15805 20050 l-1720 -5 0 -3185 c0 -3369 0 -3349 46 -3710 61 -474 192 -914 376 -1260 148 -277 275 -451 488 -664 185 -186 348 -309 615 -465 147 -85 396 -198 545 -246 22 -7 67 -23 100 -35 62 -23 233 -75 295 -89 316 -74 362 -84 468 -101 521 -83 865 -105 1497 -97 406 6 522 11 770 36 183 18 589 84 680 111 17 4 73 18 125 30 298 69 655 199 915 334 599 312 1028 744 1311 1321 61 126 79 170 148 360 30 83 72 229 110 380 28 112 65 333 93 545 16 125 18 379 23 3428 3 1812 2 3298 -1 3303 -7 12 -1710 12 -1721 1 -4 -4 -9 -1418 -11 -3142 -3 -3422 1 -3177 -58 -3545 -79 -491 -217 -816 -443 -1041 -123 -122 -242 -200 -421 -272 -108 -44 -296 -89 -468 -112 -102 -13 -465 -13 -598 1 -487 49 -842 243 -1055 575 -31 49 -94 169 -127 244 -67 153 -142 458 -176 720 -41 310 -41 335 -41 3510 0 2758 -1 3050 -16 3064 -8 9 -18 15 -22 14 -4 -2 -781 -5 -1727 -8z"/>
<path d="M20749 7978 l-19 -7 0 -2485 c0 -1600 4 -2521 10 -2587 11 -115 41 -269 70 -358 85 -267 261 -418 565 -485 145 -31 283 -37 855 -34 l565 3 3 274 c2 213 -1 276 -10 283 -7 4 -95 8 -195 8 -454 0 -578 70 -627 355 -14 80 -16 364 -16 2557 0 1444 -4 2469 -9 2472 -14 9 -1169 12 -1192 4z"/>
<path d="M23785 7850 c-221 -44 -404 -220 -480 -459 -24 -76 -24 -244 0 -331 63 -227 252 -409 475 -456 123 -26 310 -9 410 39 148 69 289 227 341 382 31 94 34 300 5 385 -49 143 -118 241 -229 324 -85 64 -139 90 -227 111 -69 16 -227 18 -295 5z"/>
<path d="M675 7578 c-3 -7 -4 -1259 -3 -2783 l3 -2770 758 -3 c416 -1 758 -1 759 0 2 2 5 1096 8 2433 l5 2430 105 3 c273 8 684 -28 813 -72 26 -9 52 -16 58 -16 16 0 161 -71 217 -107 130 -82 251 -244 307 -408 77 -226 83 -577 14 -809 -99 -334 -347 -525 -767 -592 -77 -12 -474 -27 -635 -24 -10 0 -20 -6 -23 -13 -2 -7 38 -101 89 -208 175 -359 257 -531 257 -534 0 -2 54 -114 120 -250 66 -136 120 -248 120 -250 0 -2 38 -82 85 -179 86 -178 114 -237 300 -626 158 -331 211 -441 296 -617 l78 -163 870 0 c986 0 895 -9 843 85 -16 28 -72 129 -127 225 -54 96 -201 360 -328 585 -126 226 -289 516 -362 645 -73 129 -188 334 -255 455 -68 121 -145 258 -171 304 -26 47 -46 88 -44 91 2 4 30 12 61 19 119 27 308 98 448 169 417 210 670 545 746 988 37 211 25 528 -26 729 -104 412 -373 742 -789 972 -95 53 -269 126 -395 167 -67 21 -109 32 -255 66 -51 12 -205 37 -320 52 -139 17 -2854 24 -2860 6z"/>
<path d="M11080 5829 c-445 -43 -819 -222 -1120 -535 -276 -288 -450 -646 -516 -1064 -25 -160 -30 -502 -10 -677 22 -188 60 -357 111 -493 9 -25 19 -54 22 -65 14 -46 118 -240 175 -327 334 -509 865 -788 1501 -788 584 0 1057 254 1384 745 33 50 66 104 75 120 8 17 35 68 58 114 l44 83 -24 18 c-14 10 -74 47 -135 81 -60 34 -155 89 -209 122 -75 46 -103 58 -115 50 -8 -5 -30 -46 -47 -91 -132 -338 -366 -565 -649 -628 -81 -18 -247 -18 -320 1 -137 35 -258 118 -335 230 -148 216 -219 588 -220 1151 0 612 128 1042 374 1246 187 156 472 190 689 81 165 -82 292 -252 376 -501 24 -71 42 -108 53 -110 9 -2 46 15 82 37 37 23 68 41 71 41 4 0 268 152 295 170 8 6 25 14 37 19 11 6 24 15 28 20 3 6 -13 55 -36 108 -164 386 -447 641 -849 767 -235 73 -524 101 -790 75z"/>
<path d="M18280 5829 c-444 -43 -811 -217 -1116 -531 -298 -306 -474 -686 -530 -1146 -20 -167 -15 -539 10 -696 19 -116 66 -309 97 -392 101 -275 260 -519 462 -711 76 -71 200 -173 211 -173 2 0 28 -16 58 -35 365 -242 928 -328 1398 -214 191 46 414 152 565 268 173 133 363 356 468 551 54 99 94 186 90 196 -2 6 -61 44 -131 84 -70 41 -171 100 -225 132 -53 32 -104 58 -111 58 -8 0 -26 -30 -41 -72 -133 -355 -382 -597 -673 -657 -76 -16 -238 -14 -307 4 -339 86 -504 401 -546 1045 -14 212 -6 644 15 785 55 382 171 649 346 794 194 162 483 194 700 79 167 -89 290 -255 370 -502 18 -54 38 -100 45 -102 7 -3 33 5 57 19 24 13 70 39 103 57 33 18 108 62 166 97 59 34 109 63 112 63 5 0 76 45 84 54 5 5 -40 113 -81 197 -100 200 -248 369 -443 507 -67 46 -252 131 -363 166 -235 73 -524 101 -790 75z"/>
<path d="M26110 5833 c-259 -45 -378 -133 -454 -335 -58 -152 -56 -99 -56 -1860 l0 -1618 299 0 c263 0 300 2 305 16 3 9 6 535 6 1169 0 724 4 1156 10 1160 5 3 16 -8 25 -25 9 -16 57 -96 107 -178 50 -81 105 -172 123 -202 17 -30 57 -95 88 -145 31 -49 76 -124 100 -165 24 -41 92 -154 152 -250 59 -96 167 -274 240 -395 419 -695 513 -834 660 -974 119 -113 233 -157 380 -148 216 13 321 116 376 367 9 42 13 465 16 1740 2 927 1 1695 -2 1708 l-5 22 -299 0 -299 0 -6 -25 c-4 -14 -6 -416 -6 -893 1 -477 -3 -868 -7 -870 -8 -2 -81 112 -263 413 -57 94 -117 193 -135 220 -18 28 -72 115 -120 195 -409 675 -497 794 -697 943 -130 96 -382 157 -538 130z"/>
<path d="M30960 5833 c-80 -5 -303 -44 -375 -65 -232 -66 -418 -159 -600 -301 -61 -47 -199 -181 -270 -262 -165 -188 -312 -479 -384 -760 -85 -330 -93 -768 -21 -1115 80 -387 255 -708 533 -977 132 -128 232 -201 388 -282 263 -137 564 -201 879 -188 268 11 509 81 738 211 44 25 64 32 67 24 3 -7 6 -382 8 -833 l2 -820 575 0 575 0 3 1724 c2 1373 0 1726 -10 1733 -15 9 -1108 11 -1132 2 -14 -5 -16 -49 -16 -388 0 -405 -8 -511 -45 -636 -60 -201 -164 -316 -337 -374 -133 -45 -327 -46 -455 -2 -279 96 -414 350 -474 896 -18 157 -18 703 -1 840 63 496 207 790 457 930 170 95 412 101 585 15 186 -94 320 -281 401 -564 14 -46 32 -60 58 -44 9 5 43 25 76 43 33 18 65 36 70 40 6 4 35 21 65 37 126 69 270 155 276 165 9 15 -63 182 -122 281 -208 347 -540 567 -969 642 -171 29 -378 40 -545 28z"/>
<path d="M6775 5704 c-342 -52 -504 -244 -544 -643 -15 -141 -15 -2242 0 -2382 41 -409 198 -590 558 -644 78 -12 270 -15 1042 -15 l947 0 6 25 c4 14 6 137 6 274 -1 185 -4 252 -13 260 -8 6 -209 11 -567 13 l-555 3 -60 23 c-75 28 -99 52 -127 127 l-23 60 0 385 0 385 559 3 c397 1 563 5 573 13 11 10 13 65 11 288 l-3 276 -570 5 -570 5 -3 345 c-2 229 1 365 8 405 24 123 67 180 163 212 46 16 109 18 577 21 396 2 526 6 532 15 9 14 11 518 2 541 -6 14 -96 16 -933 15 -733 -1 -945 -4 -1016 -15z"/>
<path d="M12940 5703 c0 -10 12 -43 26 -73 14 -30 69 -149 121 -265 53 -115 118 -257 144 -314 27 -57 49 -105 49 -107 0 -4 38 -87 240 -529 43 -93 122 -267 175 -385 54 -118 115 -252 136 -298 22 -46 39 -85 39 -87 0 -2 27 -60 60 -130 33 -70 60 -128 60 -130 0 -5 71 -161 163 -360 141 -306 177 -389 177 -412 0 -14 -57 -156 -126 -316 -70 -161 -162 -375 -206 -477 -44 -102 -88 -203 -98 -225 -24 -53 -47 -108 -75 -175 -12 -30 -75 -176 -140 -325 -211 -487 -255 -592 -255 -614 l0 -21 334 0 c258 0 335 3 339 13 3 6 31 71 62 142 32 72 68 155 80 185 13 30 69 161 125 290 56 129 126 291 155 360 29 69 83 195 120 280 37 85 114 265 172 400 57 135 113 264 123 287 11 23 52 117 91 210 39 92 89 207 110 256 21 48 39 89 39 92 0 3 13 34 29 68 16 34 101 231 189 437 229 537 260 608 293 678 16 35 29 65 29 68 0 4 207 486 387 904 47 107 106 247 133 310 26 63 62 146 79 183 17 38 31 75 31 83 0 12 -51 14 -314 14 -343 0 -321 4 -349 -65 -9 -22 -30 -74 -47 -115 -17 -41 -70 -169 -117 -285 -93 -228 -214 -523 -288 -705 -26 -63 -82 -200 -125 -305 -43 -104 -84 -203 -90 -219 -9 -25 -13 -27 -24 -15 -7 8 -25 46 -41 84 -16 39 -38 93 -51 120 -12 28 -70 165 -129 305 -129 308 -188 449 -250 595 -26 61 -80 189 -120 285 -41 96 -87 207 -104 245 l-30 70 -665 3 c-630 2 -666 1 -666 -15z"/>
<path d="M23315 5708 c-3 -7 -4 -839 -3 -1848 l3 -1835 602 -3 603 -2 5 22 c3 13 4 844 3 1848 l-3 1825 -603 3 c-477 2 -604 0 -607 -10z"/>
</g>
</g>
  <g id="id1:id1" transform="matrix(1.25,0,0,1.25,0.0,0.0)"><g transform="translate(0.000000,1041.600000) scale(0.040000,-0.040000)" fill="#ffffff" stroke="none">
<path d="M0 13020 l0 -13020 6361 2 6360 3 35 80 c20 44 104 240 189 435 84 195 212 492 285 660 73 168 145 334 160 370 15 36 123 285 239 553 116 269 211 496 211 505 0 14 -155 362 -324 727 -18 39 -142 312 -277 608 -134 295 -249 537 -256 537 -14 0 -7 4 -308 -170 -126 -73 -336 -194 -465 -268 -129 -74 -241 -139 -248 -145 -8 -6 -16 -7 -22 -1 -5 5 -45 152 -89 327 -105 415 -149 522 -233 572 -40 23 -131 25 -174 2 -84 -44 -163 -204 -204 -417 -69 -350 -45 -1028 44 -1278 27 -75 69 -143 98 -158 15 -8 55 -14 91 -14 83 0 151 34 233 115 106 106 131 165 264 605 39 129 72 240 75 247 2 7 143 -69 367 -199 200 -116 491 -285 648 -375 157 -91 293 -173 302 -182 17 -16 13 -28 -81 -234 -174 -380 -274 -551 -439 -748 -331 -394 -762 -632 -1287 -711 -132 -19 -518 -16 -665 5 -678 101 -1223 462 -1573 1042 -30 49 -59 91 -65 93 -9 3 -12 -125 -14 -505 l-3 -508 -1230 0 c-1146 0 -1236 1 -1324 18 -185 36 -338 96 -471 187 -63 43 -182 163 -227 230 -85 125 -150 299 -186 495 l-22 120 0 1245 0 1245 22 120 c90 494 344 779 792 890 182 45 238 46 1446 43 l1140 -3 3 -592 c1 -326 6 -593 10 -593 5 0 35 48 67 108 119 217 242 381 419 557 242 240 520 414 826 518 124 42 264 76 390 96 259 42 585 38 852 -9 140 -25 346 -87 481 -145 17 -7 18 -4 15 26 l-3 34 1162 3 1162 2 15 -22 c8 -13 50 -108 94 -213 44 -104 124 -293 177 -420 146 -346 143 -341 159 -324 11 12 139 319 350 839 l54 135 808 3 c444 1 811 -1 815 -5 4 -5 -44 -127 -106 -273 -108 -251 -123 -290 -109 -290 3 0 45 37 92 81 286 268 619 450 987 539 419 101 890 90 1291 -30 296 -88 537 -227 743 -429 114 -111 182 -196 266 -329 33 -52 66 -97 72 -99 10 -4 13 312 15 1544 l3 1548 1055 0 1055 0 3 -2679 c1 -1982 5 -2683 13 -2693 10 -11 55 -13 228 -11 l216 3 5 1560 5 1560 342 5 c297 4 370 9 352 23 -2 2 -29 14 -59 26 -226 95 -442 296 -552 516 -129 255 -148 588 -51 860 29 79 75 174 107 219 167 238 373 393 606 454 144 38 171 42 308 42 320 0 565 -101 782 -322 134 -135 227 -299 277 -486 24 -87 26 -115 26 -277 0 -163 -2 -189 -26 -280 -32 -119 -107 -275 -176 -366 -67 -87 -196 -210 -279 -263 -78 -51 -175 -100 -214 -110 -23 -5 -36 -19 -25 -28 1 -1 157 -5 347 -8 l345 -5 0 -2295 0 -2295 -1745 0 -1745 0 -125 24 c-505 95 -818 345 -967 771 -17 47 -36 109 -43 138 -6 28 -16 52 -21 52 -10 0 -25 -21 -93 -132 -181 -294 -446 -556 -728 -722 -176 -103 -349 -171 -563 -221 -178 -41 -268 -50 -510 -49 -257 0 -413 19 -624 74 -610 160 -1122 594 -1405 1191 -118 249 -194 530 -226 844 -11 106 -15 519 -5 535 7 12 -5 13 -21 2 -6 -4 -83 -176 -172 -382 -88 -206 -266 -620 -395 -920 -129 -300 -295 -687 -370 -860 -74 -173 -288 -672 -476 -1108 -188 -436 -341 -797 -341 -802 0 -7 3082 -10 8535 -10 l8535 0 0 729 c0 574 -3 730 -12 734 -7 2 -49 -2 -93 -9 -130 -21 -374 -28 -528 -15 -427 38 -791 176 -1122 426 -291 220 -579 594 -706 918 -32 81 -50 117 -60 117 -5 0 -9 -107 -9 -239 0 -458 -45 -687 -172 -876 -145 -216 -366 -336 -648 -351 -282 -16 -519 77 -731 286 -178 176 -228 246 -567 799 -75 124 -143 226 -149 229 -10 3 -13 -122 -15 -585 l-3 -588 -750 0 -750 0 0 1885 c0 2005 -2 1913 47 2100 68 261 232 478 455 600 321 176 794 169 1132 -16 196 -107 387 -290 555 -531 55 -79 76 -98 76 -70 1 6 2 149 3 317 l2 305 755 0 755 0 3 -692 c1 -381 6 -693 11 -693 4 0 15 17 24 38 9 20 32 75 52 122 161 376 454 730 807 973 92 64 270 158 387 206 409 165 854 209 1356 132 394 -60 781 -259 1044 -537 221 -233 313 -402 486 -893 l47 -133 -18 -18 c-11 -10 -39 -29 -64 -42 -54 -30 -346 -198 -377 -219 -13 -7 -23 -17 -23 -21 0 -5 196 -8 435 -8 l435 0 0 10830 0 10830 -13112 -1 c-7212 -1 -13090 -5 -13063 -10 28 -4 147 -13 266 -19 806 -40 1642 -228 2348 -526 1034 -437 1874 -1097 2531 -1989 78 -106 226 -329 302 -455 55 -91 498 -886 498 -894 0 -2 -179 -116 -397 -252 -219 -137 -641 -399 -938 -584 -297 -185 -715 -446 -930 -580 -214 -133 -531 -330 -703 -438 -182 -113 -317 -191 -322 -186 -5 5 -93 189 -195 409 -287 614 -370 774 -515 990 -131 194 -345 433 -500 558 -353 285 -770 431 -1292 453 -419 17 -725 -66 -969 -265 -181 -149 -268 -321 -269 -533 -1 -324 210 -545 880 -922 82 -46 544 -277 670 -335 52 -24 192 -89 310 -144 118 -54 301 -137 405 -184 105 -47 219 -98 255 -115 36 -16 130 -59 210 -95 80 -36 187 -85 239 -109 51 -24 95 -44 97 -44 1 0 69 -31 150 -70 80 -38 148 -70 151 -70 2 0 110 -52 240 -115 130 -63 237 -115 239 -115 2 0 129 -62 281 -139 654 -326 819 -425 1218 -731 296 -226 648 -567 889 -860 304 -370 546 -797 686 -1215 24 -72 40 -105 52 -105 4 0 9 1018 10 2263 l3 2262 2560 0 2560 0 6 -3500 c5 -3670 4 -3571 44 -3840 48 -322 121 -537 214 -633 46 -47 157 -104 236 -121 33 -7 80 -18 104 -24 63 -15 459 -14 546 2 39 7 81 17 95 21 14 4 45 14 70 21 61 18 128 55 168 93 119 112 205 398 241 801 6 66 14 140 17 165 4 25 9 1613 13 3530 l6 3485 1685 0 1685 0 3 -757 c1 -417 6 -758 10 -758 9 0 13 11 67 197 110 384 285 684 554 953 177 176 355 303 571 407 598 287 1453 345 2183 149 568 -153 1065 -458 1537 -942 300 -308 476 -533 913 -1171 236 -344 372 -542 435 -633 36 -52 99 -144 140 -205 42 -60 77 -112 79 -114 2 -2 6 -1 11 3 4 4 9 652 12 1439 l5 1432 1685 0 1685 0 0 -4725 c0 -4955 2 -4763 -41 -5055 -118 -806 -520 -1358 -1164 -1598 -144 -53 -269 -84 -485 -119 -108 -17 -566 -17 -660 0 -38 7 -108 20 -155 29 -240 44 -517 155 -754 301 -414 255 -907 791 -1418 1542 -46 69 -118 175 -160 235 -41 61 -128 189 -193 285 -65 96 -137 202 -160 235 -23 33 -104 152 -180 265 -77 113 -161 237 -188 275 -26 39 -95 140 -153 225 -58 85 -147 216 -197 290 -51 74 -154 225 -229 335 -277 408 -307 452 -359 527 -30 43 -57 78 -61 78 -5 0 -9 -964 -10 -2142 l-3 -2143 -1690 0 -1690 0 -2 1555 c-2 855 -3 1559 -3 1565 0 5 -6 1 -14 -10 -7 -11 -19 -51 -25 -90 -23 -132 -94 -403 -151 -575 -252 -761 -702 -1390 -1324 -1849 -65 -48 -275 -191 -281 -191 -1 0 -45 -25 -96 -55 -184 -110 -632 -313 -769 -350 -14 -3 -34 -10 -45 -15 -77 -33 -492 -148 -615 -170 -25 -4 -92 -17 -150 -29 -58 -12 -132 -26 -165 -31 -33 -5 -103 -16 -155 -24 -133 -20 -246 -34 -385 -46 -66 -5 -169 -15 -230 -20 -298 -27 -1067 -22 -1460 10 -277 23 -579 60 -730 91 -27 5 -72 14 -100 19 -159 31 -266 54 -315 66 -30 8 -105 28 -166 44 -213 56 -525 167 -754 270 -845 380 -1480 1013 -1850 1844 -163 367 -281 787 -344 1226 -25 174 -46 368 -46 428 0 61 -13 94 -28 77 -5 -6 -24 -59 -42 -120 -18 -60 -58 -180 -90 -265 -325 -873 -873 -1612 -1665 -2244 -478 -382 -1005 -689 -1562 -911 -92 -37 -181 -73 -198 -80 -72 -31 -477 -162 -585 -189 -14 -4 -77 -20 -140 -37 -63 -17 -133 -34 -155 -39 -22 -5 -83 -18 -135 -30 -107 -23 -216 -45 -305 -60 -33 -6 -82 -15 -110 -20 -122 -23 -457 -65 -630 -79 -66 -6 -178 -16 -250 -23 -175 -17 -1196 -17 -1390 0 -210 18 -448 43 -600 64 -100 13 -415 65 -475 78 -111 25 -289 63 -325 71 -22 4 -65 15 -95 23 -30 8 -91 24 -135 36 -294 77 -784 250 -1013 356 -40 19 -74 34 -77 34 -19 0 -457 225 -589 302 -39 23 -79 46 -90 52 -42 22 -184 113 -306 195 -556 374 -1054 847 -1441 1371 -183 247 -302 435 -506 800 -11 19 -75 134 -143 255 -68 121 -136 244 -153 274 l-29 53 18 18 c11 9 53 35 94 57 41 23 100 54 130 71 78 42 718 386 820 440 47 24 90 48 95 52 6 4 55 31 110 60 55 29 242 130 415 223 173 93 353 190 400 215 47 24 94 50 105 57 11 6 74 40 140 75 66 35 125 66 130 70 6 4 60 33 120 65 61 32 124 66 140 75 17 10 66 37 110 60 44 24 103 55 130 70 28 15 82 44 120 65 39 20 194 104 346 186 151 82 281 149 288 149 6 0 39 -57 73 -127 113 -239 146 -308 232 -493 254 -542 444 -842 724 -1149 312 -340 702 -578 1072 -652 119 -24 178 -30 335 -36 343 -12 612 46 860 187 122 69 273 207 338 310 98 157 123 369 64 552 -68 211 -271 422 -652 675 -125 83 -131 87 -360 216 -144 81 -732 374 -1145 572 -1267 604 -2095 1036 -2465 1286 -309 209 -765 607 -1032 902 -472 520 -726 939 -913 1507 -277 840 -290 1895 -34 2870 364 1392 1358 2577 2779 3316 822 427 1834 689 2870 744 116 6 242 15 280 19 39 4 -1466 9 -3342 10 l-3413 1 0 -13020z m3575 -4999 c289 -45 349 -55 430 -73 50 -10 101 -23 115 -28 14 -4 45 -13 70 -20 715 -200 1261 -676 1484 -1291 178 -493 157 -1115 -53 -1571 -154 -336 -454 -642 -809 -826 -45 -24 -84 -46 -87 -51 -5 -8 33 -77 285 -526 62 -110 154 -274 205 -365 51 -91 142 -253 202 -360 60 -107 154 -274 208 -370 54 -96 150 -267 213 -380 278 -493 322 -574 314 -582 -4 -4 -636 -7 -1403 -6 l-1394 3 -40 80 c-22 44 -74 150 -114 235 -41 85 -115 241 -165 345 -51 105 -152 317 -226 472 -74 156 -141 283 -147 283 -10 0 -13 -151 -15 -707 l-3 -708 -1210 0 -1210 0 -3 3220 c-1 1771 0 3226 3 3233 7 18 3229 12 3350 -7z"/>
<path d="M2663 6423 c-20 -7 -19 -1099 1 -1106 23 -9 237 13 318 33 103 26 187 70 234 123 89 101 126 327 90 547 -36 217 -111 304 -317 364 -110 31 -292 53 -326 39z"/>
<path d="M3020 17550 c0 -5 5 -10 10 -10 6 0 10 5 10 10 0 6 -4 10 -10 10 -5 0 -10 -4 -10 -10z"/>
<path d="M7820 14830 c0 -5 5 -10 10 -10 6 0 10 5 10 10 0 6 -4 10 -10 10 -5 0 -10 -4 -10 -10z"/>
<path d="M29260 11950 c0 -5 5 -10 10 -10 6 0 10 5 10 10 0 6 -4 10 -10 10 -5 0 -10 -4 -10 -10z"/>
<path d="M4940 10350 c0 -5 5 -10 10 -10 6 0 10 5 10 10 0 6 -4 10 -10 10 -5 0 -10 -4 -10 -10z"/>
<path d="M16780 10350 c0 -5 5 -10 10 -10 6 0 10 5 10 10 0 6 -4 10 -10 10 -5 0 -10 -4 -10 -10z"/>
<path d="M7680 10230 c0 -5 7 -10 15 -10 8 0 15 5 15 10 0 6 -7 10 -15 10 -8 0 -15 -4 -15 -10z"/>
<path d="M7200 10190 c0 -5 9 -10 20 -10 11 0 20 5 20 10 0 6 -9 10 -20 10 -11 0 -20 -4 -20 -10z"/>
<path d="M18672 4805 c-53 -16 -76 -36 -117 -100 -105 -164 -155 -439 -155 -850 0 -315 28 -581 76 -730 29 -90 66 -157 98 -176 35 -21 118 -25 178 -9 92 26 214 152 277 285 17 36 72 202 122 368 50 166 93 305 95 309 3 4 41 -15 87 -41 366 -214 878 -511 903 -524 17 -9 34 -13 38 -10 11 11 7 1191 -4 1198 -11 7 -31 -4 -440 -240 -600 -347 -685 -394 -692 -387 -4 4 -44 151 -88 326 -86 339 -114 421 -166 501 -52 80 -126 108 -212 80z"/>
<path d="M31320 4808 c-101 -29 -182 -166 -231 -393 -48 -225 -62 -592 -34 -908 28 -321 86 -514 165 -554 31 -16 129 -17 167 -2 33 12 38 19 60 84 15 44 18 125 22 695 l6 645 80 3 c44 2 83 6 87 10 15 15 -46 212 -95 305 -35 67 -72 102 -125 117 -43 12 -55 12 -102 -2z"/>
<path d="M7897 4693 c-12 -11 -7 -73 6 -78 6 -3 269 -6 584 -7 l572 -3 11 23 c5 13 10 34 10 47 l0 25 -588 0 c-324 0 -592 -3 -595 -7z"/>
<path d="M7894 3116 c-3 -8 -4 -27 -2 -43 l3 -28 585 0 585 0 -2 29 c-1 16 -5 36 -7 43 -8 20 -1154 19 -1162 -1z"/>
</g>
</g>
  <g id="id2:id2" transform="matrix(1.25,0,0,1.25,0.0,0.0)"><g transform="translate(0.000000,1041.600000) scale(0.040000,-0.040000)" fill="#1f1a17" stroke="none">
<path d="M6405 26030 c-3 -5 -30 -10 -60 -10 -110 0 -534 -51 -788 -96 -1205 -210 -2200 -658 -3072 -1383 -182 -152 -532 -500 -674 -670 -679 -816 -1059 -1735 -1161 -2814 -27 -286 -27 -793 0 -1059 60 -592 234 -1158 496 -1614 294 -515 742 -1012 1354 -1505 85 -68 165 -131 176 -139 247 -172 470 -305 844 -502 58 -31 155 -82 215 -113 134 -71 916 -462 1075 -538 63 -30 192 -92 285 -137 94 -45 195 -93 225 -107 151 -70 1026 -507 1103 -552 48 -28 90 -51 92 -51 13 0 320 -198 415 -268 268 -198 421 -374 480 -552 33 -100 38 -253 12 -358 -34 -131 -75 -204 -172 -303 -214 -217 -433 -314 -810 -360 -148 -18 -483 -3 -600 26 -14 3 -45 11 -70 17 -58 13 -160 46 -182 58 -10 6 -23 10 -29 10 -7 0 -62 24 -123 54 -264 129 -488 304 -700 546 -279 317 -453 605 -739 1220 -14 30 -55 118 -92 195 -37 77 -87 182 -111 233 -27 57 -49 92 -59 92 -9 0 -158 -77 -333 -171 -174 -94 -348 -188 -387 -209 -153 -82 -474 -255 -535 -288 -36 -19 -112 -61 -170 -92 -58 -31 -141 -76 -185 -100 -44 -23 -108 -58 -143 -76 -34 -19 -92 -50 -130 -70 -37 -20 -89 -49 -117 -64 -27 -15 -90 -49 -140 -75 -49 -27 -110 -59 -135 -73 -47 -25 -248 -134 -405 -218 -840 -451 -1055 -570 -1055 -586 0 -10 20 -50 43 -90 24 -40 113 -197 197 -348 84 -151 191 -340 238 -420 454 -774 1063 -1418 1827 -1930 274 -184 718 -428 1035 -568 200 -89 621 -246 755 -282 17 -5 62 -18 100 -30 176 -55 366 -103 628 -159 114 -25 326 -62 457 -81 252 -36 344 -47 490 -60 69 -5 175 -15 235 -20 185 -17 847 -23 1125 -11 311 14 451 25 735 56 168 19 439 61 665 105 108 21 120 24 275 60 168 39 180 42 210 51 17 5 80 23 140 40 61 17 124 35 140 40 101 31 252 82 325 109 47 18 96 35 110 40 150 47 586 247 840 385 210 114 479 285 675 429 963 708 1621 1580 1950 2586 21 63 41 119 46 124 14 16 25 -34 38 -169 41 -445 160 -941 318 -1335 297 -736 790 -1325 1453 -1737 433 -269 926 -462 1515 -593 22 -5 60 -13 85 -19 25 -5 74 -15 110 -21 36 -6 85 -16 110 -20 25 -5 79 -14 120 -20 41 -6 102 -15 135 -20 262 -40 653 -68 1060 -76 553 -10 1181 28 1560 96 28 5 82 14 120 20 39 6 88 15 110 20 22 4 67 14 100 20 33 6 76 15 95 20 19 5 76 19 125 31 50 11 104 25 120 30 17 5 64 18 105 30 612 176 1147 451 1600 823 110 91 377 357 466 466 318 385 556 827 713 1323 34 108 103 370 113 430 2 10 8 19 13 20 7 1 12 -503 15 -1488 l5 -1490 1694 -3 c932 -1 1699 2 1703 6 5 5 8 963 8 2129 0 1167 4 2124 8 2127 5 3 68 -84 141 -192 73 -108 197 -291 276 -407 79 -115 179 -262 222 -325 43 -63 160 -236 262 -385 237 -348 354 -520 460 -675 46 -69 117 -172 156 -230 40 -58 154 -226 255 -375 230 -339 360 -517 539 -740 183 -227 271 -326 445 -500 259 -258 442 -397 696 -527 157 -81 232 -111 445 -177 32 -10 185 -41 305 -62 99 -17 548 -17 650 0 376 62 611 145 843 297 447 293 723 765 826 1415 48 299 45 -7 48 5064 2 2596 1 4730 -2 4743 l-5 22 -1699 0 c-1540 0 -1699 -1 -1705 -16 -3 -9 -6 -647 -6 -1419 0 -772 -4 -1406 -8 -1409 -5 -3 -48 52 -96 122 -48 70 -168 244 -266 387 -453 660 -542 787 -639 919 -601 816 -1201 1302 -1901 1539 -362 122 -669 171 -1085 170 -250 0 -357 -7 -540 -34 -929 -138 -1581 -661 -1863 -1492 -27 -78 -53 -144 -58 -147 -5 -3 -10 262 -12 676 -2 558 -5 684 -16 693 -9 8 -468 10 -1707 9 l-1694 -3 -6 -3505 c-4 -2617 -8 -3533 -17 -3615 -37 -343 -71 -518 -127 -669 -93 -245 -202 -309 -580 -337 -250 -19 -502 10 -637 74 -171 81 -263 325 -325 862 -16 139 -17 413 -20 3650 -2 1925 -5 3510 -8 3523 l-5 22 -2578 -2 -2577 -3 -5 -2213 c-3 -1216 -8 -2213 -13 -2215 -4 -1 -34 65 -67 147 -290 722 -759 1317 -1510 1917 -335 268 -558 404 -1145 699 -576 289 -1065 520 -1802 851 -24 10 -62 28 -85 38 -244 109 -388 175 -583 266 -126 59 -259 120 -293 136 -132 61 -485 241 -609 310 -451 253 -692 450 -784 643 -41 86 -52 154 -46 281 8 179 57 287 191 421 239 238 544 335 1005 321 365 -11 633 -72 919 -208 253 -120 444 -269 656 -509 192 -218 367 -491 513 -800 60 -125 303 -645 376 -802 25 -54 51 -98 58 -98 6 0 105 58 218 129 113 70 346 215 516 321 746 464 1352 841 1427 889 31 20 300 187 597 371 297 184 542 341 545 348 5 11 -228 442 -422 782 -946 1653 -2540 2721 -4522 3030 -183 29 -432 58 -557 66 -57 4 -106 11 -109 15 -8 13 -1301 11 -1309 -1z m965 -850 c1259 -49 2289 -361 3200 -970 532 -355 986 -809 1361 -1360 107 -158 249 -391 249 -410 0 -8 -122 -85 -485 -310 -82 -51 -184 -114 -225 -140 -41 -27 -176 -111 -300 -187 -124 -77 -346 -215 -493 -307 -148 -92 -275 -170 -282 -172 -9 -4 -39 45 -95 155 -333 659 -772 1160 -1290 1473 -243 147 -583 277 -895 341 -246 51 -367 62 -695 62 -267 -1 -320 -3 -430 -22 -466 -82 -813 -255 -1115 -558 -216 -217 -338 -437 -406 -730 -30 -130 -38 -435 -15 -572 54 -325 220 -615 493 -865 200 -182 449 -348 898 -598 86 -48 528 -267 675 -335 69 -32 168 -78 220 -102 124 -59 550 -253 555 -253 1 0 51 -22 109 -50 58 -27 108 -50 110 -50 6 0 647 -295 901 -415 319 -151 930 -458 1110 -558 296 -165 449 -270 725 -501 445 -372 789 -784 995 -1191 261 -516 381 -1150 347 -1837 -23 -461 -86 -824 -211 -1207 -319 -972 -987 -1778 -1995 -2408 -342 -213 -845 -442 -1236 -563 -58 -18 -122 -38 -143 -46 -20 -8 -54 -18 -75 -23 -20 -5 -91 -23 -157 -41 -66 -17 -140 -36 -165 -41 -25 -6 -64 -14 -87 -20 -82 -18 -129 -27 -218 -43 -49 -9 -112 -21 -140 -26 -128 -24 -423 -63 -600 -79 -323 -30 -450 -35 -880 -35 -433 0 -515 3 -850 35 -151 14 -353 39 -475 59 -30 5 -86 14 -125 21 -208 34 -450 88 -670 150 -60 16 -123 34 -140 38 -44 12 -367 119 -390 130 -11 5 -58 24 -105 42 -47 17 -89 36 -94 41 -6 4 -16 8 -23 8 -7 0 -47 16 -89 35 -41 19 -77 35 -80 35 -8 0 -372 181 -444 220 -767 427 -1370 975 -1824 1658 -86 130 -206 326 -206 338 0 1 44 26 97 55 54 29 121 64 148 79 103 56 681 367 710 382 17 8 111 59 210 113 166 90 301 163 510 275 44 24 114 62 156 86 42 23 103 56 135 72 32 16 92 48 133 71 40 22 77 38 82 35 5 -3 32 -49 59 -102 151 -296 292 -525 469 -762 233 -313 552 -623 826 -804 50 -33 103 -68 118 -79 37 -25 309 -167 320 -167 4 0 22 -7 39 -16 30 -16 144 -59 233 -89 108 -36 359 -88 510 -106 115 -13 568 -6 680 11 438 65 738 183 1040 410 337 254 538 554 626 938 30 130 37 412 14 557 -63 405 -295 770 -695 1092 -189 152 -569 402 -773 508 -37 20 -89 48 -115 63 -52 31 -572 290 -812 405 -210 101 -456 220 -685 330 -420 203 -1028 510 -1278 645 -42 23 -112 61 -154 84 -326 174 -532 306 -730 464 -374 301 -722 651 -939 944 -327 442 -505 898 -586 1495 -20 150 -22 212 -23 525 0 362 7 475 46 735 104 692 360 1321 758 1855 185 249 514 595 762 800 494 410 1057 721 1693 936 774 262 1675 380 2616 344z m18940 -4861 c350 -38 695 -155 979 -331 389 -243 770 -646 1213 -1288 211 -306 445 -646 698 -1015 260 -378 542 -788 606 -880 43 -63 133 -194 260 -380 41 -60 99 -144 127 -185 29 -41 142 -205 251 -365 110 -159 231 -335 269 -390 38 -55 83 -121 100 -147 18 -26 38 -48 45 -48 9 0 12 479 12 2364 0 2008 2 2365 14 2375 19 16 1660 11 1676 -5 16 -16 8 -8515 -8 -8644 -74 -582 -210 -853 -519 -1033 -163 -94 -360 -137 -645 -138 -173 -1 -213 3 -353 32 -147 31 -342 116 -482 210 -238 161 -548 489 -883 934 -124 165 -168 229 -495 710 -86 127 -189 277 -228 335 -40 58 -207 303 -372 545 -281 413 -347 510 -561 825 -47 69 -154 226 -239 350 -84 124 -228 335 -320 470 -91 135 -217 319 -278 410 -62 91 -166 244 -231 340 -66 96 -206 301 -311 455 -105 154 -283 415 -395 580 -217 322 -225 333 -237 321 -5 -4 -10 -1393 -13 -3087 l-5 -3079 -834 0 c-458 0 -837 3 -842 6 -5 3 -9 1721 -9 4077 0 4425 -2 4199 55 4484 117 581 425 946 932 1107 290 92 669 124 1023 85z m-8773 -290 c11 -10 13 -543 13 -3043 0 -1948 4 -3083 10 -3176 53 -748 207 -1217 494 -1506 183 -182 385 -288 676 -352 175 -38 221 -43 428 -49 507 -13 852 65 1145 259 362 240 568 695 647 1428 27 258 30 568 30 3446 0 2434 2 2984 13 2992 9 8 261 11 842 9 l830 -2 7 -45 c10 -71 9 -5982 -2 -6269 -22 -575 -97 -997 -251 -1409 -246 -656 -669 -1157 -1279 -1514 -165 -97 -413 -211 -580 -267 -36 -12 -74 -26 -85 -31 -70 -28 -359 -110 -460 -130 -22 -4 -74 -15 -115 -24 -258 -57 -545 -96 -933 -127 -137 -10 -1090 -15 -1117 -5 -8 3 -80 11 -160 16 -224 16 -319 26 -547 60 -251 37 -545 101 -753 165 -103 31 -345 117 -384 136 -22 10 -43 19 -47 19 -17 0 -266 123 -365 181 -498 287 -874 690 -1116 1195 -222 464 -339 988 -368 1654 -11 249 -14 6382 -4 6393 13 12 3416 8 3431 -4z"/>
<path d="M20267 8443 c-4 -3 -7 -689 -7 -1524 0 -835 -4 -1520 -9 -1523 -4 -3 -23 18 -41 47 -216 337 -514 578 -891 722 -173 66 -418 118 -614 130 -55 3 -125 8 -155 10 -78 6 -362 -12 -476 -30 -427 -69 -839 -266 -1138 -546 -41 -38 -77 -66 -79 -62 -3 5 42 118 99 252 58 135 102 251 100 258 -4 11 -155 13 -825 13 l-821 0 -14 -22 c-13 -20 -106 -245 -323 -778 -66 -162 -72 -175 -83 -164 -5 5 -88 198 -185 429 -97 231 -189 445 -203 475 l-27 55 -1160 3 c-638 1 -1170 0 -1183 -3 -17 -4 -22 -12 -20 -28 4 -27 3 -27 -122 18 -522 188 -1219 170 -1730 -46 -403 -171 -755 -467 -1005 -845 -44 -67 -92 -145 -108 -173 -15 -29 -32 -49 -37 -46 -6 4 -10 211 -10 560 0 495 -2 553 -16 559 -9 3 -530 6 -1158 6 -1219 0 -1256 -1 -1456 -50 -348 -85 -599 -309 -723 -645 -34 -92 -53 -167 -74 -300 -17 -101 -18 -209 -18 -1335 l0 -1225 23 -124 c12 -68 38 -170 56 -225 19 -56 31 -105 26 -109 -4 -5 -80 121 -169 280 -88 158 -338 603 -555 988 -357 633 -393 701 -378 713 9 7 59 37 110 66 462 260 774 666 887 1151 43 186 50 260 50 510 0 250 -7 324 -50 510 -133 570 -501 1028 -1067 1325 -276 144 -648 258 -978 299 -47 6 -130 16 -185 23 -77 10 -469 13 -1710 13 l-1610 0 0 -3250 0 -3250 1224 -3 c972 -2 1226 1 1233 10 4 7 7 317 8 688 0 371 2 677 5 680 4 3 153 -301 332 -675 179 -374 330 -686 335 -692 8 -10 305 -13 1424 -13 884 0 1415 4 1419 10 5 8 -29 72 -178 335 -47 83 -52 124 -8 64 40 -55 152 -161 211 -200 168 -112 354 -174 592 -199 144 -15 2431 -13 2446 2 9 9 12 129 12 479 0 277 4 470 9 474 5 3 35 -34 66 -82 98 -149 174 -243 310 -379 346 -349 751 -548 1260 -620 166 -24 508 -24 665 0 444 67 816 247 1124 546 268 260 395 455 617 953 l90 202 -23 18 c-13 10 -68 44 -123 76 -55 32 -197 114 -315 182 -118 69 -365 212 -547 319 -257 149 -331 196 -322 206 5 7 49 35 97 62 81 47 361 208 671 387 110 63 136 75 146 63 10 -11 502 -1084 776 -1692 l67 -150 -33 -75 c-61 -143 -387 -896 -532 -1231 -80 -184 -201 -465 -270 -625 -69 -159 -160 -372 -204 -472 -43 -100 -79 -187 -79 -192 0 -8 256 -10 851 -9 l852 3 172 400 c94 220 412 958 705 1640 293 682 602 1399 685 1593 84 194 156 354 161 355 5 1 12 -97 16 -218 6 -230 15 -321 49 -495 78 -408 247 -771 497 -1070 366 -438 829 -693 1407 -776 167 -24 508 -24 665 0 450 69 811 244 1124 546 150 145 296 329 391 493 15 26 31 45 35 42 5 -3 22 -49 40 -102 166 -518 548 -795 1175 -853 119 -11 3421 -15 3449 -4 15 6 16 218 16 2308 0 1777 -3 2305 -12 2314 -9 9 -91 12 -309 12 -181 0 -300 4 -304 10 -3 5 20 23 52 39 249 126 462 374 546 636 42 130 51 192 51 350 0 83 -6 177 -13 210 -58 280 -205 513 -426 678 -198 147 -410 217 -660 217 -298 -1 -542 -96 -754 -296 -187 -176 -300 -384 -341 -627 -16 -100 -13 -301 5 -394 48 -233 137 -397 309 -568 94 -93 166 -148 275 -207 24 -13 44 -28 45 -33 1 -6 -115 -12 -309 -15 -170 -3 -311 -7 -312 -8 -2 -1 -4 -703 -5 -1559 l-3 -1558 -205 0 -205 0 -5 2690 -5 2690 -1071 3 c-589 1 -1074 -1 -1077 -5z m1663 -2978 l6 -2500 18 -70 c40 -150 105 -235 215 -276 92 -34 147 -41 381 -48 l225 -6 0 -260 0 -260 -625 0 -625 0 -110 23 c-400 82 -561 260 -642 707 -15 82 -17 329 -20 2630 -2 1397 -1 2545 2 2552 3 11 120 13 587 11 l583 -3 5 -2500z m2087 2374 c173 -40 262 -87 359 -192 107 -114 164 -262 164 -421 -1 -178 -57 -314 -179 -437 -125 -125 -260 -179 -442 -179 -182 0 -296 48 -430 180 -100 99 -150 189 -174 315 -19 98 -19 147 1 243 30 150 110 278 232 369 100 76 141 94 262 118 85 16 149 18 207 4z m-20572 -279 c591 -56 1026 -217 1363 -503 373 -316 549 -768 511 -1308 -22 -313 -102 -532 -275 -754 -193 -248 -469 -416 -884 -537 -91 -27 -115 -38 -114 -51 1 -10 68 -136 149 -280 214 -380 445 -791 580 -1032 65 -115 166 -295 225 -400 59 -104 142 -253 185 -330 43 -77 100 -178 126 -225 26 -46 45 -88 43 -92 -3 -4 -388 -8 -855 -8 l-850 0 -76 158 c-99 207 -166 347 -218 457 -23 50 -80 167 -125 260 -45 94 -101 211 -125 260 -23 50 -98 205 -165 345 -67 140 -141 296 -165 345 -23 50 -122 257 -220 460 -231 482 -237 494 -233 506 2 6 104 12 263 14 382 7 550 37 742 134 162 81 276 193 352 347 76 155 103 292 104 524 0 190 -14 293 -59 430 -89 268 -271 447 -549 538 -85 28 -123 37 -255 63 -30 6 -209 13 -397 16 l-343 5 -2 -2428 -3 -2429 -740 0 -740 0 -3 2750 c-1 1513 0 2756 3 2763 6 16 2579 18 2750 2z m-589 -1165 c234 -38 341 -102 398 -238 44 -107 59 -336 31 -483 -42 -223 -155 -300 -484 -335 -72 -7 -116 -8 -122 -2 -10 10 -13 1048 -3 1064 8 13 77 11 180 -6z m8756 -600 c545 -87 920 -376 1107 -852 l20 -52 -117 -69 c-273 -160 -373 -215 -381 -206 -4 5 -20 47 -35 92 -74 226 -188 391 -332 482 -186 117 -446 126 -649 21 -206 -106 -358 -348 -435 -692 -83 -371 -78 -1041 11 -1419 80 -345 229 -540 466 -616 67 -21 244 -29 328 -15 274 48 538 277 669 581 72 166 63 152 89 139 83 -44 398 -233 408 -245 10 -12 8 -25 -12 -67 -158 -345 -459 -662 -774 -817 -207 -101 -404 -148 -672 -157 -402 -15 -754 80 -1063 284 -141 94 -351 299 -453 443 -85 121 -197 344 -242 484 -41 125 -79 306 -96 454 -18 159 -6 557 20 702 71 385 227 710 467 972 316 345 705 532 1184 572 91 8 402 -4 492 -19z m7201 0 c441 -71 772 -276 984 -610 36 -57 130 -251 135 -278 2 -15 -46 -47 -237 -158 -132 -76 -244 -137 -249 -136 -5 2 -25 50 -46 107 -89 254 -204 407 -369 494 -178 92 -412 94 -596 3 -241 -118 -402 -401 -470 -827 -52 -324 -43 -899 20 -1224 74 -383 229 -601 484 -683 65 -20 243 -28 325 -14 97 17 197 57 285 114 90 59 221 187 280 274 50 75 124 221 142 281 19 65 27 67 100 23 35 -21 128 -75 205 -120 78 -44 148 -88 155 -97 11 -13 6 -30 -34 -109 -154 -311 -404 -581 -682 -738 -358 -201 -835 -252 -1288 -138 -300 76 -554 220 -772 438 -276 276 -438 598 -517 1028 -25 138 -36 552 -19 702 57 488 238 874 560 1191 249 247 589 420 926 474 191 30 502 31 678 3z m-10108 -355 l0 -265 -520 -5 c-563 -6 -569 -7 -655 -64 -47 -31 -85 -106 -100 -196 -5 -36 -10 -224 -10 -417 l0 -353 573 -2 572 -3 0 -265 0 -265 -573 -3 -573 -2 3 -398 3 -397 23 -60 c28 -76 71 -119 147 -147 l60 -23 555 -5 555 -5 0 -260 0 -260 -935 -3 c-992 -3 -1039 -1 -1182 44 -233 74 -336 210 -388 512 l-20 114 0 1158 0 1158 20 114 c49 290 149 429 365 505 156 56 253 60 1240 59 l840 -1 0 -265z m5574 208 c27 -61 225 -530 549 -1298 101 -240 163 -376 173 -378 12 -2 60 106 197 440 99 244 240 587 313 763 72 176 147 358 165 405 19 47 42 95 50 108 l15 23 274 -2 c205 -1 278 -4 292 -14 16 -12 11 -26 -62 -196 -43 -101 -86 -202 -96 -224 -15 -34 -426 -989 -832 -1935 -58 -135 -161 -375 -230 -535 -69 -159 -319 -742 -556 -1295 -238 -552 -437 -1010 -443 -1017 -8 -10 -80 -13 -323 -13 -171 0 -314 2 -317 5 -5 5 37 104 321 760 60 138 202 466 316 730 114 264 222 515 241 558 l35 77 -139 308 c-77 169 -258 566 -402 882 -144 316 -352 773 -462 1015 -110 242 -211 465 -225 495 -14 30 -59 128 -99 218 -41 89 -72 167 -69 172 3 5 264 9 646 10 l640 0 28 -62z m10226 -1773 l0 -1830 -585 0 -585 0 -3 1820 c-1 1001 0 1826 3 1833 3 10 126 12 587 10 l583 -3 0 -1830z m-12918 914 c59 -22 106 -88 147 -205 20 -57 186 -689 186 -708 0 -12 31 -6 56 10 52 35 49 7 -31 -257 -124 -413 -155 -481 -268 -587 -71 -66 -134 -95 -209 -96 -72 -1 -103 20 -141 97 -32 64 -70 224 -89 371 -21 163 -18 742 5 884 31 197 90 364 154 440 44 52 128 75 190 51z m7206 -3 c42 -18 69 -48 105 -121 41 -83 60 -146 146 -489 42 -164 78 -301 81 -304 3 -3 22 2 42 12 55 26 59 11 25 -100 -17 -55 -58 -189 -92 -299 -34 -110 -78 -234 -98 -275 -47 -95 -143 -199 -219 -236 -72 -35 -158 -39 -200 -8 -59 44 -104 175 -140 404 -26 167 -26 763 0 928 31 197 90 364 154 440 46 54 132 75 196 48z m-9738 -136 l0 -25 -568 -3 c-498 -2 -568 0 -573 13 -4 8 -4 22 0 30 5 13 75 15 573 13 l568 -3 0 -25z m11205 -719 c0 -312 -3 -570 -6 -574 -8 -8 -37 7 -199 103 -71 42 -218 127 -325 189 -375 218 -470 274 -470 282 0 5 10 14 23 20 45 24 893 512 927 534 19 12 38 21 43 18 4 -2 7 -260 7 -572z m-11220 -831 c6 -11 8 -25 5 -30 -4 -6 -211 -10 -566 -10 -488 0 -560 2 -565 15 -4 8 -4 22 0 30 5 13 76 15 560 15 l555 0 11 -20z"/>
<path d="M26055 6299 c-181 -22 -370 -91 -499 -183 -89 -64 -204 -190 -261 -286 -57 -98 -116 -264 -142 -400 -17 -89 -18 -207 -18 -1985 l0 -1890 750 -3 c413 -1 760 0 773 3 l22 5 0 560 c0 324 4 561 9 564 5 4 62 -81 126 -186 65 -106 143 -233 174 -283 306 -493 540 -703 871 -781 113 -27 317 -25 435 5 184 46 345 148 448 283 157 206 217 455 217 905 0 91 4 164 10 168 5 3 33 -45 63 -107 98 -206 227 -398 383 -569 357 -392 790 -616 1334 -690 128 -18 478 -16 595 4 50 8 93 12 98 10 4 -2 7 -328 7 -724 l0 -719 1045 0 1045 0 0 2200 0 2201 -406 -1 c-223 -1 -408 1 -410 3 -3 3 95 62 216 132 122 70 224 133 226 140 7 17 -147 445 -200 560 -53 113 -139 254 -215 353 -71 93 -240 260 -334 331 -218 164 -535 298 -817 345 -835 139 -1571 -75 -2110 -614 -196 -197 -356 -425 -461 -658 -25 -57 -50 -104 -55 -105 -5 -1 -10 257 -12 639 -2 525 -5 644 -16 653 -9 8 -222 10 -772 9 l-759 -3 -5 -303 c-3 -166 -8 -303 -12 -305 -3 -1 -32 35 -65 79 -221 309 -445 488 -731 585 -159 54 -383 78 -547 58z m341 -503 c275 -71 438 -234 756 -756 147 -241 647 -1056 705 -1148 7 -12 18 -20 23 -17 6 4 10 345 10 909 0 688 3 905 12 914 9 9 84 12 278 12 194 0 269 -3 278 -12 19 -19 17 -3254 -2 -3398 -15 -112 -37 -181 -81 -255 -87 -149 -346 -191 -539 -87 -126 67 -295 280 -526 662 -35 58 -119 197 -188 310 -69 113 -207 340 -307 505 -603 994 -606 999 -617 983 -2 -1 -5 -536 -8 -1188 l-5 -1185 -283 0 -282 0 0 1611 c0 1403 2 1621 15 1691 19 99 45 178 79 235 30 51 117 137 168 166 41 23 152 58 208 66 65 8 245 -2 306 -18z m5064 -2 c471 -81 797 -293 1003 -649 56 -97 120 -242 112 -255 -3 -5 -31 -23 -63 -41 -31 -18 -137 -79 -236 -136 -98 -57 -183 -102 -188 -101 -6 2 -22 42 -37 88 -73 224 -185 390 -328 486 -191 127 -482 130 -690 8 -75 -44 -202 -178 -252 -266 -152 -271 -221 -667 -207 -1183 6 -243 18 -374 46 -540 51 -297 151 -503 295 -612 119 -90 253 -128 420 -120 60 3 135 12 166 21 184 50 308 166 376 354 51 140 56 188 62 637 l6 420 555 0 555 0 0 -1710 0 -1710 -555 0 -555 0 -5 835 -5 835 -20 -3 c-11 -2 -31 -12 -45 -22 -40 -28 -198 -106 -275 -135 -392 -147 -912 -121 -1302 65 -464 221 -813 658 -943 1180 -57 230 -65 302 -65 590 0 270 6 337 46 535 65 314 216 620 421 855 306 350 691 543 1173 590 113 12 434 2 535 -16z m18 -1036 c18 -18 45 -55 60 -83 29 -55 93 -256 85 -267 -2 -5 -38 -8 -78 -8 -63 0 -76 -3 -85 -19 -6 -13 -10 -225 -10 -618 0 -675 -7 -765 -61 -793 -24 -13 -145 -13 -170 0 -22 12 -53 70 -80 148 -49 142 -79 415 -79 723 0 394 41 646 133 823 56 106 107 139 201 131 39 -4 57 -12 84 -37z"/>
</g>
</g>
</svg>
