<?xml version="1.0" standalone="no"?>
<!DOCTYPE svg PUBLIC "-//W3C//DTD SVG 1.1//EN"
 "http://www.w3.org/Graphics/SVG/1.1/DTD/svg11.dtd">
<!-- Created with svg_stack (http://github.com/astraw/svg_stack) -->
<svg xmlns:sodipodi="http://sodipodi.sourceforge.net/DTD/sodipodi-0.dtd" xmlns="http://www.w3.org/2000/svg" version="1.1" width="718.0" height="848.0">
  <defs/>
  <g id="id0:id0" transform="matrix(1.25,0,0,1.25,0.0,0.0)"><g transform="translate(0.000000,678.400000) scale(0.040000,-0.040000)" fill="#ab7dc8" stroke="none">
<path d="M0 12580 l0 -4380 338 -2 337 -3 5 -940 5 -940 877 -3 c483 -1 879 -1 880 0 2 2 5 426 8 943 l5 940 320 0 320 0 0 -2198 0 -2197 -320 -2 -320 -1 -3 953 c-1 684 -5 957 -13 967 -9 11 -162 13 -869 13 -472 0 -865 -3 -874 -6 -14 -6 -16 -99 -16 -959 0 -572 -4 -956 -9 -960 -5 -3 -158 -6 -340 -7 l-331 -2 0 -1898 0 -1898 3660 0 3660 0 -2 183 -3 182 -130 0 -130 0 -5 -89 c-3 -52 -1 -94 5 -102 6 -7 26 -14 45 -16 l35 -3 0 -50 0 -50 -150 0 -150 0 -3 38 c-4 44 11 67 43 67 13 0 25 7 28 14 3 8 6 148 7 310 l0 295 -32 3 c-30 3 -32 6 -34 45 -1 25 3 47 11 53 8 7 60 10 141 8 l129 -3 0 -40 c0 -37 -2 -40 -30 -43 -16 -2 -36 -8 -42 -14 -18 -15 -18 -284 -1 -295 17 -10 251 -4 262 7 10 10 20 263 11 297 -4 17 -14 23 -43 25 l-37 3 0 45 0 45 135 0 135 0 3 -47 c3 -40 0 -48 -20 -59 -13 -7 -26 -17 -30 -23 -4 -6 -8 -153 -8 -327 0 -333 0 -332 45 -341 17 -3 20 -11 20 -61 l0 -57 3418 0 3417 0 0 1900 0 1900 -1410 0 c-776 -1 -1414 1 -1418 4 -4 2 -5 991 -2 2198 l5 2193 1413 3 1412 2 0 4380 0 4380 -4470 0 c-2458 0 -4470 -2 -4470 -5 0 -3 8 -18 18 -32 15 -24 17 -54 16 -273 -1 -135 -4 -396 -8 -580 -6 -271 -5 -359 7 -462 16 -134 27 -168 55 -168 9 0 102 34 206 76 207 83 285 100 329 71 26 -17 57 -108 57 -168 0 -46 -41 -130 -76 -158 -42 -33 -253 -134 -369 -176 -126 -46 -170 -74 -183 -117 -15 -47 -32 -672 -32 -1173 0 -769 31 -1114 107 -1190 14 -14 32 -25 39 -25 29 0 77 59 175 216 184 294 249 342 249 182 0 -235 -171 -655 -314 -773 -96 -79 -210 -99 -303 -54 -104 50 -213 193 -274 360 -82 224 -104 456 -155 1629 -19 440 -29 525 -74 598 -15 24 -27 32 -48 32 -26 0 -290 -85 -438 -141 l-61 -23 -26 17 c-29 19 -50 80 -45 129 3 27 12 36 73 69 134 74 180 97 245 120 85 30 155 74 208 133 91 99 108 186 98 521 -7 250 -10 289 -47 725 -29 337 -29 324 7 361 31 34 186 113 399 203 71 30 131 60 133 66 3 7 -844 10 -2692 10 l-2696 0 0 -4380z m12030 4164 c42 -11 80 -44 96 -82 19 -45 15 -163 -15 -427 -42 -369 -58 -474 -78 -507 -29 -50 -77 -78 -134 -78 -44 0 -50 3 -66 33 -15 28 -17 62 -17 262 1 240 20 437 64 659 20 99 36 131 75 146 20 9 28 8 75 -6z m-5603 -569 c27 -8 57 -23 67 -34 9 -10 33 -63 53 -117 l36 -99 5 -160 c2 -88 -1 -257 -7 -375 -44 -834 -71 -1952 -52 -2110 12 -100 26 -150 42 -150 13 0 39 43 39 65 0 11 7 52 15 90 8 39 31 160 50 270 155 881 257 1134 460 1135 75 0 111 -48 144 -192 24 -108 29 -159 41 -478 16 -393 28 -484 75 -534 28 -30 37 -29 113 6 75 35 88 68 101 253 35 526 155 875 369 1076 110 105 211 144 354 137 67 -3 95 -9 148 -34 136 -64 225 -183 250 -333 42 -250 -156 -522 -511 -702 -169 -86 -183 -109 -177 -296 3 -101 7 -125 29 -167 13 -27 42 -63 63 -80 33 -27 45 -31 99 -31 95 1 151 42 314 234 249 291 314 342 399 306 85 -35 99 -131 36 -256 -50 -99 -109 -174 -228 -289 -168 -162 -376 -286 -554 -331 -117 -30 -253 -24 -332 13 -76 35 -140 103 -184 194 -21 43 -40 71 -47 68 -7 -2 -27 -34 -46 -71 -72 -138 -192 -233 -296 -233 -123 0 -178 77 -235 330 -38 166 -94 325 -125 350 -37 31 -45 1 -105 -410 -41 -278 -51 -339 -71 -430 -52 -231 -139 -318 -337 -337 -56 -5 -65 -4 -87 17 -50 47 -49 36 -105 1545 -5 154 -15 453 -20 665 -6 212 -15 530 -20 707 -6 177 -10 410 -10 516 0 182 1 196 21 221 47 59 132 79 226 51z m6918 -119 c64 -30 146 -117 171 -181 15 -41 19 -76 19 -185 0 -169 -24 -262 -85 -322 -33 -34 -43 -38 -86 -38 -58 0 -147 38 -164 69 -7 14 -8 43 -4 81 5 42 3 64 -6 75 -66 80 -350 -170 -350 -309 0 -87 22 -100 270 -150 96 -20 196 -47 239 -65 40 -17 82 -31 93 -31 11 0 52 15 91 34 107 50 195 78 264 83 136 12 123 -47 -64 -278 -101 -125 -100 -121 -59 -268 52 -182 62 -259 47 -380 -23 -188 -75 -317 -167 -408 -94 -94 -232 -138 -362 -114 -119 22 -177 56 -231 136 -126 187 -91 484 91 772 71 112 45 136 -172 153 -158 13 -251 29 -347 61 -112 37 -173 134 -173 273 2 325 321 799 650 966 73 37 120 49 205 49 64 1 90 -4 130 -23z m-2063 -547 c75 -16 143 -53 206 -113 102 -95 137 -179 136 -321 -3 -244 -176 -457 -521 -638 -83 -44 -124 -72 -139 -95 -42 -62 -41 -291 1 -372 19 -35 74 -84 112 -100 68 -26 169 19 264 117 31 32 94 105 141 163 181 222 273 290 354 259 144 -55 88 -259 -136 -493 -285 -298 -639 -455 -883 -391 -128 33 -217 128 -270 287 -87 256 -46 827 84 1182 100 270 270 458 459 508 78 20 121 22 192 7z m-1081 -315 c53 -22 93 -77 122 -168 20 -65 22 -90 21 -286 0 -178 -4 -236 -23 -335 -51 -273 -86 -335 -192 -335 -40 0 -93 51 -109 105 -6 22 -15 140 -20 263 -7 177 -12 228 -24 248 -41 62 -64 8 -106 -250 -11 -67 -27 -168 -35 -226 -9 -58 -22 -145 -30 -195 -8 -49 -24 -148 -35 -220 -63 -391 -110 -663 -138 -790 -37 -163 -44 -172 -129 -155 -70 15 -104 31 -162 78 -82 67 -123 155 -141 308 -34 283 -66 655 -80 919 -21 395 -22 500 -11 615 19 183 22 190 115 277 100 94 177 146 200 137 49 -19 72 -137 91 -466 19 -337 34 -409 81 -416 37 -5 60 41 135 266 39 119 85 251 101 292 109 276 233 388 369 334z m-5883 -2046 c95 -92 134 -286 113 -562 -6 -80 -16 -167 -21 -193 -5 -27 -17 -110 -25 -186 -36 -317 -50 -369 -228 -802 -187 -458 -261 -623 -450 -1001 -107 -214 -202 -407 -211 -428 -75 -181 -78 -425 -6 -566 26 -52 92 -108 136 -116 79 -15 194 35 267 115 65 72 146 228 224 431 24 63 56 133 70 154 l26 39 5 616 5 616 22 45 c13 25 41 61 62 81 128 119 348 267 379 255 12 -4 14 -110 14 -623 0 -705 12 -1075 36 -1141 38 -102 106 -71 182 83 88 178 177 449 312 953 44 161 89 309 101 328 27 44 168 158 236 192 62 31 78 23 87 -41 3 -23 19 -143 36 -267 16 -124 34 -254 40 -290 5 -36 23 -164 40 -285 30 -214 55 -382 66 -438 8 -40 37 -52 75 -30 63 37 134 227 184 489 60 322 77 401 94 439 l18 40 169 42 c93 24 214 52 269 64 55 11 109 27 121 34 11 7 44 62 73 121 128 263 320 497 491 598 80 47 178 84 242 92 43 5 64 2 100 -14 57 -25 115 -82 142 -141 42 -91 22 -354 -31 -413 -26 -29 -90 -24 -116 9 -55 67 -106 113 -126 113 -39 0 -111 -42 -151 -89 -56 -65 -115 -189 -145 -306 -45 -173 -45 -398 0 -485 27 -52 65 -80 109 -80 91 0 161 81 280 325 46 94 94 180 107 191 13 12 61 43 107 69 65 38 85 46 95 36 17 -17 12 -174 -8 -281 -8 -47 -18 -135 -22 -196 l-6 -111 22 -22 c27 -27 57 -23 116 17 72 49 231 215 364 382 l52 65 -6 44 c-10 67 -7 357 4 431 34 221 53 306 74 329 25 26 132 83 225 117 67 26 126 31 138 13 19 -32 26 -116 34 -459 10 -394 18 -496 51 -595 35 -109 122 -184 197 -170 50 9 138 102 181 190 86 179 111 302 191 954 33 275 32 272 122 311 108 46 222 45 252 -3 8 -12 14 -51 15 -87 2 -93 30 -413 44 -494 7 -38 17 -71 23 -73 14 -5 240 246 253 279 4 13 12 46 15 73 24 162 178 407 389 619 137 137 260 230 392 296 219 110 386 111 491 4 75 -78 90 -166 54 -327 -43 -195 -135 -307 -251 -307 -36 0 -109 32 -133 59 -17 18 -18 26 -8 60 29 95 5 123 -77 92 -63 -23 -171 -99 -234 -164 -87 -89 -119 -188 -72 -227 18 -15 124 -36 280 -54 73 -9 156 -27 212 -45 l93 -31 117 49 c144 60 207 79 287 87 49 5 64 3 74 -9 11 -13 11 -21 -2 -44 -16 -31 -119 -147 -213 -240 -92 -92 -97 -104 -77 -205 9 -46 18 -131 21 -190 6 -127 -14 -219 -77 -355 -116 -250 -314 -375 -568 -361 -110 6 -166 30 -214 89 -132 163 -65 459 169 747 108 132 92 146 -186 156 -101 4 -218 14 -260 22 -85 17 -161 47 -161 63 0 6 -8 11 -18 11 -11 0 -34 -26 -62 -71 -41 -64 -84 -131 -175 -274 -17 -27 -39 -62 -48 -77 -15 -25 -17 -90 -17 -725 0 -384 -5 -751 -10 -817 -17 -202 -71 -429 -130 -546 -64 -126 -138 -179 -309 -220 -110 -27 -142 -21 -219 40 -97 76 -128 148 -126 295 2 114 20 195 91 399 254 734 277 818 290 1063 6 113 5 123 -12 129 -22 9 -49 -21 -135 -146 -152 -222 -235 -280 -397 -280 -211 0 -407 121 -502 310 -22 45 -41 89 -41 97 0 8 -7 13 -17 11 -10 -2 -38 -42 -67 -98 -145 -280 -338 -527 -462 -590 -71 -36 -148 -35 -197 3 -46 35 -91 111 -118 200 -26 84 -42 86 -101 16 -337 -404 -536 -541 -679 -469 -140 72 -204 187 -228 408 -11 103 -1 264 24 391 10 49 12 78 5 85 -11 11 -142 -22 -219 -55 -78 -33 -89 -51 -142 -236 -105 -362 -171 -544 -234 -652 -78 -132 -212 -235 -325 -248 -144 -17 -263 135 -380 486 -28 83 -50 157 -50 165 0 19 -19 31 -31 19 -5 -5 -34 -83 -65 -173 -113 -333 -176 -455 -301 -583 -77 -79 -181 -135 -307 -167 -100 -25 -129 -25 -182 1 -62 30 -110 100 -148 217 -10 28 -21 52 -26 52 -4 0 -25 -52 -45 -116 -41 -131 -113 -279 -169 -348 -78 -94 -220 -181 -348 -211 -78 -18 -217 -19 -283 -1 -177 47 -269 158 -330 398 -18 73 -37 134 -42 135 -5 2 -23 -22 -39 -54 -131 -261 -340 -520 -466 -578 -141 -66 -241 1 -304 203 -15 45 -29 82 -33 82 -12 0 -28 -17 -106 -110 -168 -200 -351 -366 -457 -415 -165 -77 -329 37 -395 275 -25 91 -24 368 1 494 70 348 202 641 411 911 140 180 314 299 491 336 53 11 65 10 110 -7 68 -26 136 -96 160 -165 21 -61 24 -212 6 -270 -6 -19 -16 -53 -22 -77 -9 -35 -18 -46 -43 -57 -42 -17 -82 -9 -102 22 -9 14 -32 42 -52 64 -30 34 -41 39 -78 39 -68 0 -137 -58 -198 -167 -69 -122 -111 -273 -123 -438 -17 -259 85 -409 222 -325 55 35 118 129 210 316 l84 172 91 57 c54 33 100 55 113 53 19 -3 21 -10 24 -69 2 -37 -9 -146 -23 -242 -29 -203 -30 -235 -11 -282 19 -45 55 -47 118 -5 54 36 223 209 330 337 l75 90 7 239 c10 355 64 905 116 1169 5 28 21 113 36 190 46 249 123 558 186 755 176 546 426 927 691 1050 124 59 199 61 255 8z m1342 -4918 c368 -44 669 -189 926 -445 134 -133 175 -185 256 -325 64 -111 110 -219 131 -310 48 -197 67 -530 67 -1150 0 -781 -28 -1093 -116 -1302 -126 -301 -369 -572 -657 -735 -241 -136 -500 -202 -793 -203 -282 0 -492 48 -737 171 -383 191 -695 576 -777 959 -39 185 -60 571 -60 1116 0 708 29 1059 105 1261 126 332 428 654 769 818 264 127 592 180 886 145z m4048 -41 c312 -33 604 -173 823 -391 77 -77 93 -98 167 -212 161 -248 236 -634 184 -941 -95 -550 -468 -955 -994 -1079 -168 -40 -278 -46 -848 -46 -480 0 -539 -2 -544 -16 -3 -8 -6 -394 -5 -856 0 -462 -1 -842 -4 -844 -7 -7 -625 -7 -636 1 -12 7 -16 4376 -4 4388 11 12 1754 8 1861 -4z m-4759 -6130 c64 -34 157 -83 206 -109 50 -26 135 -71 190 -100 225 -119 274 -145 365 -193 52 -27 138 -72 190 -100 120 -63 121 -64 90 -88 -69 -55 -53 -57 -221 27 -431 215 -883 434 -897 434 -14 0 -43 -17 -182 -106 -30 -19 -207 -128 -250 -153 -8 -5 -123 -76 -255 -158 -132 -81 -246 -151 -255 -154 -21 -9 -213 176 -196 189 6 5 61 35 121 67 61 32 137 72 170 90 70 38 132 71 463 247 134 71 258 138 275 149 18 10 41 19 51 19 11 0 71 -28 135 -61z m1743 -239 c11 -98 10 -524 -3 -594 -16 -96 -57 -154 -129 -183 -100 -41 -196 -28 -262 35 -37 35 -45 53 -68 140 -6 24 -17 42 -25 42 -8 0 -17 5 -20 11 -9 14 15 100 29 105 6 2 40 -2 76 -9 l65 -14 -3 -60 c-5 -76 15 -119 65 -139 52 -22 97 -4 126 49 l22 42 -1 252 c-1 285 -2 289 -65 279 -42 -7 -52 2 -56 49 -4 56 -3 56 124 53 l118 -3 7 -55z m1786 10 c28 -17 32 -25 32 -63 0 -52 -20 -75 -73 -84 -31 -5 -40 -1 -67 25 -34 34 -37 50 -14 93 25 50 70 60 122 29z m1320 -86 c2 -43 -1 -56 -23 -83 -30 -35 -45 -33 -45 7 0 16 -8 32 -20 40 -23 14 -27 61 -8 80 7 7 30 12 53 10 l40 -3 3 -51z m-2050 -163 l-3 -86 -36 -3 c-32 -3 -39 1 -57 32 -19 32 -26 36 -62 36 -30 0 -47 -7 -65 -25 -48 -47 -26 -87 91 -166 41 -27 82 -61 91 -76 21 -32 23 -116 2 -158 -39 -82 -216 -88 -278 -9 -26 33 -37 89 -22 120 10 23 12 24 38 10 35 -18 60 -45 65 -71 3 -16 11 -20 43 -20 32 0 42 5 54 27 14 25 14 29 -5 55 -11 15 -54 51 -95 79 -80 56 -104 87 -114 145 -20 118 84 212 200 181 34 -9 43 -8 60 8 11 10 31 20 45 22 44 7 51 -7 48 -101z m2474 4 l3 -90 -37 -3 c-31 -3 -40 1 -55 25 -24 38 -32 43 -72 43 -61 0 -99 -58 -71 -109 5 -10 41 -39 80 -66 104 -71 130 -104 130 -168 0 -29 -6 -63 -13 -77 -43 -86 -203 -96 -276 -17 -27 30 -40 109 -22 131 11 13 17 12 44 -4 17 -11 38 -34 47 -52 27 -57 110 -48 110 13 0 35 -18 55 -113 122 -83 58 -107 95 -107 162 0 66 25 114 75 142 42 24 119 31 130 13 10 -17 39 -11 52 9 12 19 70 33 85 21 3 -3 8 -45 10 -95z m-2027 0 l0 -90 -31 -3 c-25 -2 -36 3 -58 32 -22 30 -33 36 -65 36 -65 0 -100 -56 -71 -111 6 -10 42 -40 80 -65 101 -66 130 -105 130 -172 0 -91 -53 -142 -150 -142 -64 0 -109 18 -143 60 -23 27 -27 41 -25 79 l3 46 29 -2 c34 -2 64 -27 68 -56 7 -50 84 -52 106 -3 15 34 -11 71 -83 117 -36 22 -81 59 -100 82 -32 37 -35 47 -35 100 0 43 6 69 21 94 38 61 130 90 194 61 22 -10 29 -9 48 11 15 15 32 21 52 19 l30 -3 0 -90z m928 44 c58 -30 59 -35 20 -108 -53 -97 -48 -94 -99 -58 -41 28 -53 32 -114 32 -59 0 -72 -3 -95 -25 -116 -107 -33 -308 117 -286 26 4 63 18 84 32 43 30 60 28 82 -8 l16 -27 -24 -26 c-42 -45 -117 -75 -187 -75 -81 0 -137 26 -197 90 -120 129 -87 331 69 413 43 23 156 30 226 14 32 -8 36 -6 47 17 13 29 23 31 55 15z m438 -26 c92 -47 118 -106 120 -273 1 -118 8 -155 29 -155 8 0 21 -4 28 -8 14 -9 17 -83 3 -91 -5 -4 -43 -9 -84 -12 -69 -6 -75 -5 -89 15 l-16 22 -37 -15 c-68 -29 -148 -18 -216 30 -74 51 -90 167 -33 242 47 60 158 94 230 69 22 -7 45 -12 52 -9 22 7 12 41 -23 77 -47 47 -96 50 -174 13 l-44 -21 -24 27 c-13 16 -23 36 -21 45 2 9 27 28 57 44 43 21 68 27 121 27 53 0 78 -6 121 -27z m-2385 -18 c26 -15 57 -46 73 -70 31 -49 60 -180 43 -197 -6 -6 -86 -13 -181 -16 -182 -5 -203 -11 -182 -50 18 -33 70 -71 108 -78 25 -5 54 -1 90 11 l54 19 24 -30 c29 -35 30 -46 8 -66 -51 -44 -181 -53 -260 -18 -58 26 -98 62 -126 115 -32 58 -32 212 0 270 70 131 228 181 349 110z m1344 -179 c5 -216 1 -199 60 -226 10 -5 15 -21 15 -46 l0 -39 -135 0 -135 0 0 45 0 45 35 3 c19 2 38 9 42 15 10 16 10 268 0 284 -4 6 -28 13 -52 15 l-45 3 -3 38 c-5 61 7 68 117 65 l96 -3 5 -199z m-3271 88 c68 -20 141 -86 172 -157 18 -42 23 -70 23 -147 1 -113 -11 -151 -73 -245 -78 -117 -412 -435 -458 -435 -7 0 -60 22 -116 49 -260 126 -403 270 -452 457 -19 75 -19 123 2 198 13 49 27 71 68 113 64 63 111 74 210 50 50 -12 169 -62 226 -94 3 -2 46 37 94 87 93 94 165 140 220 140 17 0 55 -7 84 -16z m523 -80 c4 -3 5 -10 3 -17 -3 -7 -14 -102 -25 -212 -11 -110 -29 -287 -40 -392 -11 -106 -29 -277 -40 -380 -32 -305 -36 -333 -46 -341 -5 -5 -157 -5 -339 0 -181 4 -538 11 -792 16 -283 5 -467 12 -473 18 -6 6 -6 77 0 209 9 175 37 830 41 955 2 47 21 80 48 80 9 1 34 7 56 15 22 8 43 11 46 7 4 -4 9 -258 11 -564 2 -307 8 -561 12 -565 9 -9 174 -6 416 8 102 6 325 16 497 22 195 8 316 16 323 23 12 12 42 223 95 664 32 261 56 446 60 459 4 10 20 12 73 6 37 -4 70 -9 74 -11z m3388 -778 c4 -76 3 -89 -12 -97 -33 -18 -58 -10 -79 25 -41 70 -149 50 -149 -29 0 -36 31 -69 124 -131 73 -48 96 -84 96 -148 0 -94 -54 -141 -160 -140 -99 1 -160 55 -160 141 0 51 9 58 53 39 26 -10 38 -24 47 -50 18 -57 72 -62 106 -11 l17 26 -20 27 c-11 15 -52 50 -91 77 -100 70 -122 103 -122 182 0 58 3 66 35 102 45 49 114 70 171 51 33 -11 38 -10 58 9 14 15 31 21 51 19 l30 -3 5 -89z m-464 49 c4 -9 2 -118 -3 -243 -5 -125 -6 -237 -2 -248 4 -12 17 -24 29 -27 17 -4 21 -12 18 -39 l-3 -33 -70 0 -70 0 -3 33 c-4 38 -5 38 -67 11 -87 -39 -200 -6 -252 73 l-28 41 -5 171 -5 171 -28 3 c-33 4 -54 37 -36 58 9 11 31 14 93 12 l81 -3 5 -190 c6 -218 11 -236 80 -256 34 -10 46 -10 75 4 56 27 62 46 68 219 6 164 5 172 -38 180 -20 3 -31 37 -21 64 8 21 174 20 182 -1z m-730 -38 c54 -28 94 -68 122 -121 22 -42 27 -64 27 -126 0 -94 -17 -141 -69 -198 -55 -60 -104 -82 -190 -82 -88 0 -136 15 -186 58 -78 66 -111 176 -84 279 26 101 82 162 181 199 48 18 157 13 199 -9z m1618 -2 c86 -36 140 -128 141 -240 l0 -50 -170 -5 c-93 -3 -176 -9 -182 -13 -49 -32 42 -117 125 -117 23 0 59 7 80 15 l37 16 27 -33 c15 -18 28 -36 28 -40 0 -13 -56 -46 -100 -58 -85 -23 -210 11 -267 72 -70 74 -88 232 -39 333 27 54 70 95 128 120 44 19 147 19 192 0z"/>
<path d="M8191 14703 c-12 -14 -24 -38 -27 -52 -2 -14 -27 -116 -53 -225 -27 -110 -47 -206 -44 -213 8 -19 29 -16 81 13 68 38 87 58 131 143 92 179 94 303 5 346 -46 22 -70 19 -93 -12z"/>
<path d="M13201 14314 c-26 -33 -58 -133 -67 -212 -6 -56 -5 -62 19 -86 32 -32 54 -33 97 -3 54 36 74 80 73 159 -2 131 -69 209 -122 142z"/>
<path d="M11081 15254 c-12 -15 -21 -33 -21 -41 0 -8 -22 -104 -50 -214 -27 -109 -50 -208 -50 -219 0 -29 35 -26 96 10 94 54 183 225 184 354 0 64 -2 70 -34 102 -44 44 -94 47 -125 8z"/>
<path d="M4094 12780 c-11 -4 -43 -33 -71 -64 -88 -96 -123 -174 -181 -406 -104 -413 -134 -555 -178 -855 -8 -60 -20 -137 -24 -170 -18 -120 -60 -512 -60 -557 0 -10 7 -18 15 -18 52 0 292 519 418 905 146 444 260 945 242 1061 -13 87 -86 135 -161 104z"/>
<path d="M11063 11258 c-47 -51 -119 -233 -109 -275 7 -27 41 -38 89 -29 33 6 94 60 116 103 16 32 14 159 -4 193 -19 37 -62 41 -92 8z"/>
<path d="M9596 10093 c-46 -91 -135 -300 -160 -376 -84 -248 -44 -477 83 -477 47 0 64 33 94 182 54 266 66 337 61 390 -15 191 -26 302 -31 314 -9 24 -22 15 -47 -33z"/>
<path d="M8500 7570 c0 -5 5 -10 10 -10 6 0 10 5 10 10 0 6 -4 10 -10 10 -5 0 -10 -4 -10 -10z"/>
<path d="M8500 6150 c0 -5 5 -10 10 -10 6 0 10 5 10 10 0 6 -4 10 -10 10 -5 0 -10 -4 -10 -10z"/>
<path d="M9404 1326 c-39 -17 -60 -69 -45 -109 22 -58 116 -80 169 -40 23 17 27 29 30 77 l3 57 -35 14 c-43 18 -81 18 -122 1z"/>
<path d="M7003 1500 c-30 -13 -48 -30 -60 -55 -25 -53 -14 -57 116 -49 104 6 111 8 111 28 0 32 -28 66 -66 82 -43 18 -50 17 -101 -6z"/>
<path d="M7773 538 c-111 -79 -103 -254 14 -304 45 -19 80 -17 129 7 57 27 100 108 90 170 -8 52 -48 114 -85 134 -44 22 -110 19 -148 -7z"/>
<path d="M9426 541 c-34 -23 -70 -76 -61 -91 8 -13 200 -13 226 0 28 16 23 39 -17 76 -29 28 -43 34 -77 34 -24 0 -54 -8 -71 -19z"/>
<path d="M12192 7582 c-10 -7 -12 -141 -10 -638 l3 -629 915 -5 915 -5 0 -285 0 -285 -915 -5 c-503 -3 -916 -6 -917 -8 -2 -1 -3 -294 -3 -651 0 -582 2 -649 16 -655 9 -3 499 -6 1090 -6 l1074 0 0 1590 0 1590 -1077 0 c-593 0 -1084 -4 -1091 -8z"/>
</g>
</g>
  <g id="id1:id1" transform="matrix(1.25,0,0,1.25,0.0,0.0)"><g transform="translate(0.000000,678.400000) scale(0.040000,-0.040000)" fill="#fefefe" stroke="none">
<path d="M5355 16951 c-6 -5 -98 -48 -205 -95 -216 -96 -293 -138 -323 -178 l-20 -27 17 -233 c9 -128 21 -273 26 -323 29 -264 39 -732 19 -840 -28 -151 -111 -233 -319 -314 -92 -36 -279 -140 -294 -163 -13 -21 5 -118 29 -154 22 -33 81 -32 171 5 38 16 141 52 228 80 133 44 160 50 173 39 54 -44 76 -203 93 -653 32 -851 64 -1260 116 -1470 54 -220 186 -420 319 -486 59 -29 71 -31 135 -27 154 11 276 136 392 403 92 210 146 493 104 548 -39 52 -104 -1 -216 -177 -181 -284 -194 -301 -227 -280 -45 27 -75 146 -95 375 -15 169 -18 1463 -4 1782 10 247 2 233 188 307 194 76 315 135 366 177 61 50 97 128 89 192 -10 77 -27 123 -57 153 -50 50 -103 40 -370 -67 -88 -36 -167 -65 -176 -65 -21 0 -30 31 -44 155 -9 83 -11 250 -5 688 7 541 6 581 -10 618 -16 35 -22 39 -55 39 -20 0 -40 -4 -45 -9z"/>
<path d="M11916 16745 c-30 -32 -40 -61 -60 -175 -39 -216 -56 -405 -56 -628 0 -239 7 -279 51 -302 31 -17 103 -7 145 21 48 33 73 86 84 177 5 42 16 133 24 202 36 286 56 473 56 530 0 113 -64 190 -165 198 -48 4 -56 2 -79 -23z"/>
<path d="M6245 16178 c-23 -11 -52 -35 -64 -54 l-24 -34 6 -318 c7 -391 33 -1304 47 -1667 6 -148 15 -412 20 -585 6 -173 15 -414 20 -535 25 -529 37 -566 173 -550 90 10 181 43 227 82 91 78 127 207 199 718 46 323 69 420 87 369 4 -10 18 -44 31 -74 14 -30 45 -133 69 -230 55 -217 76 -270 124 -314 126 -113 312 -42 434 168 21 36 42 63 46 61 5 -3 22 -30 39 -60 89 -157 211 -223 394 -213 221 13 491 154 712 373 198 195 294 391 241 489 -23 43 -75 76 -120 76 -78 0 -138 -48 -306 -245 -213 -250 -280 -305 -370 -305 -60 0 -111 35 -141 97 -21 41 -24 66 -27 174 -5 177 0 185 143 262 139 74 193 108 275 175 166 135 270 320 270 481 0 137 -47 249 -144 338 -83 77 -168 115 -267 121 -294 17 -536 -227 -660 -668 -41 -146 -79 -390 -85 -550 -3 -74 -10 -149 -16 -167 -12 -41 -66 -89 -119 -104 -38 -12 -43 -11 -56 6 -38 53 -47 135 -73 680 -16 314 -47 447 -120 509 -59 49 -157 28 -236 -52 -89 -90 -144 -239 -233 -637 -21 -91 -54 -266 -111 -585 -41 -229 -43 -241 -54 -243 -19 -4 -28 63 -33 248 -9 310 14 1095 58 2040 14 292 7 435 -25 535 -58 181 -90 211 -224 209 -47 0 -79 -6 -107 -21z m2048 -1489 c42 -33 50 -83 28 -172 -24 -92 -60 -165 -108 -218 -40 -44 -111 -86 -123 -72 -8 9 83 400 106 451 11 25 20 32 42 32 16 0 41 -9 55 -21z"/>
<path d="M13079 16076 c-89 -31 -167 -77 -253 -148 -283 -233 -506 -652 -483 -904 19 -203 137 -275 513 -309 89 -8 174 -19 188 -25 36 -13 33 -44 -9 -108 -159 -241 -208 -540 -121 -727 55 -119 140 -180 288 -205 127 -22 280 31 371 130 96 103 146 231 168 426 12 110 3 176 -48 358 l-36 128 21 42 c11 22 41 65 66 95 89 103 166 221 166 256 0 28 -38 55 -78 55 -60 0 -184 -35 -279 -80 -47 -22 -98 -40 -113 -40 -16 0 -58 13 -95 30 -37 16 -115 39 -173 51 -189 37 -276 59 -294 76 -25 23 -24 102 3 155 27 53 145 171 199 198 23 12 54 20 68 18 l27 -3 0 -65 c0 -80 12 -102 73 -137 65 -38 153 -40 199 -3 73 58 118 215 111 383 -6 136 -32 202 -107 278 -99 99 -230 125 -372 75z m206 -1788 c24 -60 29 -144 11 -192 -21 -54 -43 -75 -89 -83 -32 -5 -38 -2 -48 21 -17 36 3 161 36 233 20 44 28 53 50 53 20 0 29 -8 40 -32z"/>
<path d="M11084 15521 c-50 -13 -120 -50 -184 -97 -236 -174 -398 -628 -417 -1172 -16 -451 110 -705 375 -754 164 -31 407 50 631 211 130 93 220 178 303 285 95 123 130 194 135 276 4 56 2 70 -19 99 -12 19 -39 42 -58 53 -87 47 -184 -20 -389 -272 -102 -125 -203 -222 -259 -248 -92 -42 -165 -16 -219 76 -26 44 -28 54 -28 172 0 69 4 138 8 153 11 39 51 74 122 106 85 39 220 124 291 185 175 149 266 315 266 486 -1 184 -93 330 -261 412 -58 29 -75 33 -165 35 -56 1 -115 -2 -132 -6z m103 -276 c30 -21 46 -77 38 -131 -9 -60 -56 -176 -97 -236 -36 -54 -122 -108 -141 -89 -6 6 7 78 42 218 28 114 56 218 61 231 11 27 63 31 97 7z"/>
<path d="M10087 15218 c-52 -14 -143 -100 -190 -179 -47 -80 -119 -264 -187 -479 -73 -229 -95 -268 -130 -226 -20 25 -38 172 -50 401 -16 337 -45 455 -112 463 -34 4 -61 -13 -180 -116 -126 -109 -133 -126 -147 -348 -9 -135 -1 -388 24 -774 33 -495 72 -821 110 -905 48 -111 165 -201 286 -223 64 -12 84 -4 103 43 33 78 102 456 206 1130 55 354 101 627 110 651 27 71 47 -13 49 -211 4 -330 71 -437 232 -374 50 20 92 131 130 349 18 99 23 166 23 325 1 182 -1 206 -22 274 -37 117 -78 171 -149 197 -44 15 -55 16 -106 2z"/>
<path d="M4114 13181 c-178 -64 -348 -229 -499 -486 -325 -551 -564 -1645 -601 -2740 l-7 -218 -59 -71 c-179 -215 -342 -366 -394 -366 -52 0 -56 64 -19 315 31 208 32 276 7 298 -10 10 -25 17 -32 17 -25 0 -198 -110 -217 -138 -11 -15 -56 -102 -101 -194 -60 -121 -96 -181 -133 -222 -62 -68 -109 -87 -157 -62 -41 21 -57 47 -76 121 -41 157 3 439 98 620 43 83 110 150 163 164 54 15 71 6 123 -63 23 -30 48 -57 56 -60 34 -13 83 -5 108 17 38 34 66 151 66 273 0 88 -3 106 -29 160 -32 67 -90 123 -161 156 -41 18 -51 19 -105 8 -151 -30 -286 -108 -420 -244 -181 -182 -340 -453 -433 -736 -72 -220 -96 -361 -96 -555 0 -164 18 -254 70 -356 57 -113 181 -197 274 -186 131 16 300 150 548 435 45 51 84 93 88 93 4 0 24 -38 45 -85 66 -153 117 -201 214 -200 68 0 112 19 193 83 85 68 251 290 361 484 18 31 36 55 41 52 4 -2 17 -46 30 -97 54 -228 169 -360 351 -403 136 -32 290 -10 425 59 189 96 289 227 379 495 12 36 26 66 32 68 6 2 26 -28 44 -67 60 -131 148 -183 270 -159 182 35 327 121 428 255 73 96 152 262 224 469 34 99 67 180 72 180 6 0 33 -67 62 -149 125 -359 224 -489 375 -489 83 0 173 47 264 137 58 58 81 91 123 176 52 107 136 353 213 625 l43 150 53 31 c58 35 210 81 222 67 5 -4 2 -39 -6 -78 -8 -38 -17 -137 -20 -220 -13 -309 59 -488 231 -575 56 -28 71 -32 112 -26 62 8 134 43 214 105 74 56 247 230 344 346 37 44 72 80 77 80 6 0 24 -36 42 -80 47 -120 98 -182 167 -204 152 -49 363 146 591 548 33 57 64 114 69 128 5 13 13 22 17 19 5 -3 25 -38 45 -79 43 -88 134 -190 208 -234 30 -18 97 -46 149 -64 84 -28 104 -31 180 -27 150 8 239 69 366 250 84 121 125 169 137 161 14 -9 2 -218 -18 -317 -32 -152 -115 -419 -231 -740 -107 -295 -119 -343 -119 -501 0 -128 2 -144 24 -185 51 -98 164 -183 242 -182 53 1 164 30 235 62 139 63 217 204 280 510 36 178 45 415 43 1130 l-2 605 62 100 c94 152 202 319 212 329 5 6 16 3 27 -7 46 -42 213 -77 372 -78 156 -1 257 -12 275 -30 15 -14 13 -20 -19 -60 -124 -156 -200 -286 -247 -424 -33 -97 -33 -238 -1 -308 43 -95 95 -140 189 -162 166 -40 357 8 492 123 107 91 186 224 236 397 31 109 32 194 4 356 -17 97 -19 125 -10 143 7 12 70 82 141 155 70 73 139 153 152 178 l23 44 -24 20 c-14 11 -38 19 -61 19 -53 0 -187 -40 -313 -94 -59 -26 -111 -46 -117 -46 -5 0 -51 14 -102 31 -52 17 -133 35 -183 40 -143 15 -269 39 -287 56 -42 38 -6 124 90 215 113 106 235 175 266 149 12 -10 12 -19 1 -62 -22 -82 -2 -110 99 -144 153 -50 281 83 330 344 20 104 20 134 1 199 -22 72 -101 151 -174 175 -104 33 -232 16 -375 -51 -275 -129 -603 -456 -749 -747 -40 -80 -77 -194 -77 -236 0 -19 -16 -47 -52 -90 -86 -104 -181 -200 -188 -192 -13 14 -36 234 -55 526 -9 136 -15 142 -137 141 -78 0 -102 -5 -148 -26 -30 -14 -67 -38 -82 -54 -28 -31 -32 -52 -73 -419 -58 -502 -108 -713 -207 -868 -37 -57 -111 -117 -145 -117 -70 0 -141 70 -169 165 -29 102 -35 175 -44 550 -8 359 -18 484 -42 513 -15 18 -67 15 -134 -8 -77 -27 -240 -109 -261 -132 -10 -11 -26 -69 -39 -146 -40 -219 -47 -306 -42 -494 l5 -179 -26 -33 c-146 -181 -353 -392 -410 -416 -71 -29 -89 20 -66 188 43 316 46 350 35 391 -9 34 -15 41 -36 41 -30 0 -170 -79 -208 -117 -15 -15 -60 -95 -100 -177 -40 -83 -84 -167 -97 -186 -78 -113 -112 -140 -177 -140 -69 0 -106 61 -121 202 -31 285 113 662 270 710 53 15 76 3 131 -69 36 -47 50 -59 77 -61 79 -8 109 31 137 176 26 135 12 244 -41 323 -42 64 -144 129 -203 129 -38 0 -160 -39 -226 -72 -209 -105 -430 -366 -572 -673 -39 -84 -22 -75 -225 -120 -63 -14 -154 -36 -204 -49 -49 -14 -109 -30 -133 -36 -70 -18 -81 -47 -138 -365 -44 -253 -85 -409 -131 -507 -42 -91 -75 -128 -101 -112 -18 12 -20 22 -51 229 -12 77 -25 169 -31 205 -13 89 -54 385 -85 620 -40 296 -46 324 -72 328 -65 9 -299 -171 -337 -261 -8 -18 -33 -106 -56 -197 -163 -635 -303 -1036 -398 -1142 -45 -49 -70 -48 -89 6 -23 68 -33 386 -33 1079 0 441 -4 675 -10 688 -18 33 -34 28 -170 -60 -138 -89 -251 -186 -303 -261 l-32 -45 -5 -625 -5 -625 -22 -30 c-13 -16 -40 -77 -62 -135 -76 -203 -174 -394 -240 -463 -61 -66 -184 -111 -255 -93 -102 26 -178 216 -162 406 15 168 30 205 288 718 93 184 200 409 239 500 38 92 85 203 104 247 238 560 284 703 315 995 6 58 17 146 25 195 37 231 35 489 -5 623 -23 79 -66 151 -108 180 -38 28 -125 29 -198 3z m78 -422 c28 -15 48 -69 48 -129 0 -130 -121 -636 -237 -995 -116 -357 -364 -908 -395 -877 -17 17 33 446 102 872 26 159 111 539 175 780 34 129 87 232 156 302 49 50 62 58 94 58 20 0 45 -5 57 -11z m6946 -1512 c17 -20 25 -109 13 -152 -22 -83 -112 -151 -162 -124 -24 13 -24 35 2 111 47 138 111 209 147 165z m-1505 -1174 c3 -5 10 -77 17 -162 10 -134 10 -164 -5 -240 -37 -198 -76 -374 -86 -392 -14 -28 -69 -25 -102 5 -33 31 -47 83 -47 179 0 143 39 275 154 520 42 89 57 109 69 90z"/>
<path d="M5301 8249 c-225 -21 -477 -105 -671 -222 -77 -46 -219 -158 -287 -225 -215 -213 -355 -464 -406 -727 -77 -388 -74 -1801 4 -2177 91 -440 466 -862 930 -1047 236 -94 527 -131 797 -100 336 38 663 190 911 425 84 78 201 223 253 309 197 331 222 498 222 1515 0 888 -21 1102 -130 1339 -284 617 -926 977 -1623 910z m399 -708 c152 -39 283 -116 392 -229 148 -154 216 -298 248 -522 39 -271 38 -1309 0 -1584 -25 -178 -67 -287 -157 -414 -92 -128 -199 -218 -337 -282 -138 -65 -188 -75 -381 -74 -158 1 -176 3 -255 28 -154 51 -260 117 -366 227 -160 169 -217 306 -250 602 -23 200 -26 1144 -5 1362 24 255 61 385 146 514 150 228 357 357 630 395 67 10 263 -4 335 -23z"/>
<path d="M0 6000 l0 -2219 336 -3 c185 -2 341 0 347 4 9 5 13 253 14 955 2 521 5 954 8 961 3 10 181 12 862 10 l858 -3 5 -960 5 -960 329 -5 c212 -3 334 -1 343 5 11 8 13 371 11 2220 l-3 2210 -334 3 c-261 2 -336 -1 -343 -10 -4 -7 -8 -430 -8 -939 0 -759 -2 -929 -13 -938 -18 -14 -1703 -15 -1712 0 -4 5 -6 402 -6 882 0 480 -3 901 -7 937 l-7 65 -342 3 -343 2 0 -2220z"/>
<path d="M7830 8201 c-16 -30 -14 -4393 2 -4409 9 -9 99 -12 345 -12 l333 0 0 854 c0 673 3 857 13 863 6 4 246 9 532 10 286 1 564 5 617 8 462 26 888 310 1103 736 92 182 139 387 139 604 -1 425 -170 803 -464 1040 -231 186 -476 286 -769 315 -61 6 -455 10 -972 10 l-868 0 -11 -19z m1824 -641 c152 -22 277 -84 386 -190 117 -115 175 -252 186 -445 20 -315 -128 -579 -391 -700 -135 -63 -153 -64 -766 -65 l-554 -1 -3 693 c-1 381 0 699 3 706 6 15 1031 17 1139 2z"/>
<path d="M11515 8198 c-3 -13 -4 -1011 -3 -2218 l3 -2195 1423 -3 1422 -2 0 325 0 325 -1077 2 -1078 3 0 635 0 635 915 5 c503 3 916 6 918 8 1 1 2 135 2 297 0 229 -3 297 -13 300 -7 3 -419 6 -917 8 l-905 2 0 620 0 620 1078 3 1077 2 0 325 0 325 -1420 0 -1420 0 -5 -22z"/>
<path d="M6434 1886 c-3 -7 -4 -38 -2 -67 l3 -54 50 -5 50 -5 8 -70 c4 -38 7 -155 5 -260 -3 -180 -4 -192 -26 -222 -29 -41 -64 -51 -108 -30 -40 20 -49 46 -41 127 l5 59 -31 10 c-18 5 -55 15 -84 22 -65 16 -76 8 -92 -65 l-12 -54 29 -28 c18 -19 31 -44 35 -71 10 -63 62 -124 127 -150 142 -58 298 9 346 148 17 49 19 85 18 364 0 171 -3 322 -7 338 l-7 27 -131 0 c-100 0 -131 -3 -135 -14z"/>
<path d="M8385 1856 c-20 -8 -37 -28 -49 -53 -16 -37 -16 -43 -2 -77 29 -70 138 -84 181 -23 23 33 20 99 -7 124 -49 44 -75 50 -123 29z"/>
<path d="M9682 1798 c-19 -19 -15 -84 7 -105 11 -10 21 -31 23 -48 2 -24 8 -30 28 -30 18 0 31 12 53 47 27 43 29 52 21 95 l-9 48 -55 3 c-34 2 -60 -2 -68 -10z"/>
<path d="M7690 1702 c-20 -2 -42 -12 -51 -24 -14 -18 -19 -19 -39 -8 -13 7 -40 10 -60 7 -94 -12 -156 -73 -166 -163 -8 -71 23 -126 106 -187 105 -77 122 -94 118 -119 -2 -19 -9 -23 -38 -23 -29 0 -35 4 -35 21 -1 31 -19 49 -64 64 -51 17 -69 9 -73 -32 -11 -110 67 -188 187 -187 91 0 155 53 170 139 13 78 -28 133 -174 232 -23 15 -43 39 -47 53 -15 61 78 92 113 38 23 -37 32 -43 69 -43 60 0 68 15 59 123 -8 108 -13 115 -75 109z"/>
<path d="M8100 1680 c-9 -16 -15 -18 -30 -10 -54 29 -169 -7 -210 -66 -17 -27 -25 -53 -28 -98 -3 -53 0 -66 23 -102 15 -22 52 -58 82 -80 95 -67 113 -85 113 -110 0 -14 -9 -28 -22 -35 -18 -10 -24 -8 -40 11 -10 12 -18 29 -18 36 0 20 -59 54 -92 54 -33 0 -44 -28 -35 -91 7 -57 47 -104 104 -123 141 -48 253 18 253 151 0 47 -4 58 -37 94 -20 22 -57 54 -82 71 -74 50 -101 79 -101 110 0 31 24 48 68 48 24 0 34 -8 51 -35 21 -36 45 -43 99 -29 21 6 22 11 22 99 0 122 -1 125 -61 125 -38 0 -51 -4 -59 -20z"/>
<path d="M10119 1679 c-13 -18 -18 -20 -36 -10 -31 16 -82 13 -128 -8 -70 -32 -105 -86 -105 -162 0 -77 33 -120 169 -222 54 -40 67 -77 34 -96 -25 -13 -53 5 -53 34 0 19 -10 30 -40 45 -70 36 -100 20 -100 -52 0 -120 160 -197 280 -135 60 30 82 74 77 150 -3 51 -8 62 -43 98 -21 23 -57 52 -79 66 -91 57 -116 101 -77 136 10 10 32 17 49 17 25 0 35 -7 52 -35 18 -30 25 -35 58 -35 62 0 64 5 61 121 l-3 104 -51 3 c-43 2 -53 0 -65 -19z"/>
<path d="M9058 1634 c-24 -24 -29 -26 -59 -15 -83 29 -207 -1 -274 -66 -56 -54 -85 -124 -85 -206 0 -117 55 -204 165 -258 58 -28 72 -31 128 -27 35 3 83 14 108 25 41 19 119 85 119 102 0 12 -65 71 -80 71 -7 0 -28 -12 -47 -26 -47 -36 -126 -43 -170 -15 -48 30 -66 73 -61 144 4 52 9 64 36 88 28 25 41 29 91 29 51 0 66 -5 111 -35 56 -37 72 -36 86 7 3 11 21 46 40 77 19 31 34 59 34 63 0 9 -91 68 -105 68 -6 0 -22 -12 -37 -26z"/>
<path d="M9365 1641 c-47 -12 -115 -50 -122 -68 -9 -23 38 -103 60 -103 10 0 28 7 41 15 64 42 149 37 180 -10 20 -30 9 -37 -35 -25 -39 11 -122 -1 -167 -24 -64 -33 -112 -114 -112 -189 0 -66 59 -138 137 -167 64 -24 118 -25 166 -5 33 14 37 13 46 -3 8 -15 22 -17 103 -14 56 2 96 8 100 15 11 17 10 71 -1 101 -6 14 -19 26 -33 28 l-23 3 -6 135 c-8 181 -29 229 -126 286 -45 27 -152 40 -208 25z m149 -331 c18 -6 27 -19 32 -46 5 -30 3 -40 -18 -60 -13 -14 -40 -27 -59 -30 -28 -5 -41 -1 -67 21 -78 66 8 155 112 115z"/>
<path d="M6972 1621 c-74 -26 -122 -67 -157 -136 -26 -53 -30 -70 -30 -145 1 -68 5 -94 24 -132 28 -60 98 -122 158 -142 92 -31 214 -14 266 38 24 25 21 46 -15 85 l-30 34 -47 -17 c-61 -21 -109 -20 -148 4 -33 19 -59 56 -46 63 5 2 55 5 113 6 58 2 137 6 175 10 l70 6 3 58 c6 125 -68 239 -177 271 -69 20 -93 20 -159 -3z m158 -156 c35 -35 18 -46 -83 -52 -94 -6 -108 1 -76 41 39 50 114 55 159 11z"/>
<path d="M8320 1621 l-35 -6 -3 -54 c-2 -30 2 -59 7 -64 6 -6 30 -13 53 -16 l43 -6 3 -124 c3 -135 -2 -151 -48 -151 -31 0 -40 -15 -40 -64 0 -63 9 -67 165 -64 l140 3 0 65 0 65 -30 5 -30 5 -3 200 c-2 144 -6 201 -15 207 -14 9 -155 8 -207 -1z"/>
<path d="M7233 923 c-16 -6 -17 -64 -2 -97 8 -17 21 -26 43 -28 l31 -3 3 -134 c1 -73 -2 -138 -7 -145 -6 -7 -50 -11 -123 -11 l-113 0 0 135 0 135 30 3 c17 2 36 8 43 14 15 13 16 90 0 106 -8 8 -56 12 -149 12 -159 0 -162 -2 -157 -82 3 -47 6 -54 31 -66 l28 -13 -1 -279 c-2 -296 -1 -292 -52 -304 -24 -5 -26 -10 -26 -58 -1 -29 4 -58 10 -65 8 -10 50 -13 158 -13 82 0 155 3 164 6 12 5 16 20 16 64 0 65 -9 77 -60 82 l-35 3 0 84 0 85 115 -3 c63 -1 118 -5 122 -7 4 -3 4 -81 1 -174 l-6 -170 126 0 127 0 0 58 c0 67 -6 79 -40 83 l-25 4 -3 317 -2 317 30 16 c26 13 30 21 30 56 0 78 -3 79 -158 78 -75 0 -143 -3 -149 -6z"/>
<path d="M9064 733 c-13 -14 -31 -17 -79 -15 -136 7 -216 -87 -191 -223 9 -44 67 -106 149 -158 36 -24 59 -45 63 -62 13 -53 -48 -77 -67 -28 -20 52 -25 57 -68 71 -55 18 -71 6 -71 -55 0 -55 20 -94 67 -130 31 -24 47 -28 112 -31 63 -2 82 1 109 17 47 30 72 77 72 136 0 70 -24 104 -129 180 -49 36 -92 72 -95 80 -11 31 12 64 50 71 33 6 39 3 74 -35 34 -37 41 -40 71 -35 19 4 38 11 44 15 12 12 6 190 -7 207 -16 18 -84 15 -104 -5z"/>
<path d="M8494 706 c-3 -8 -4 -31 -2 -51 3 -36 12 -47 51 -59 14 -5 17 -18 17 -83 0 -43 -3 -116 -7 -162 l-6 -83 -31 -20 c-38 -23 -90 -18 -120 12 -19 19 -21 36 -26 218 l-5 197 -105 0 -105 0 -3 -38 c-3 -35 -1 -39 32 -52 l36 -15 0 -125 c0 -170 11 -217 65 -271 57 -56 128 -79 200 -64 78 17 80 16 83 -6 3 -18 12 -22 51 -26 26 -3 68 -2 92 1 l44 6 3 52 c3 47 1 52 -20 55 l-23 3 0 250 c0 138 -4 256 -8 263 -12 18 -206 17 -213 -2z"/>
<path d="M7785 681 c-87 -22 -175 -98 -205 -179 -75 -200 60 -402 269 -402 144 0 240 77 277 222 55 213 -132 410 -341 359z m134 -159 c49 -36 66 -70 66 -132 0 -50 -4 -63 -31 -97 -72 -89 -219 -57 -240 52 -25 138 106 250 205 177z"/>
<path d="M9373 654 c-101 -49 -156 -146 -155 -275 1 -166 118 -282 283 -282 53 0 80 6 122 27 30 14 58 33 61 41 6 16 -40 90 -62 99 -7 3 -26 -1 -42 -9 -45 -23 -121 -19 -161 8 -73 49 -32 65 183 66 142 1 154 8 144 85 -9 80 -24 122 -59 168 -73 96 -203 126 -314 72z m188 -142 c47 -42 33 -52 -71 -52 -96 0 -113 9 -83 42 41 46 108 51 154 10z"/>
</g>
</g>
  <g id="id2:id2" transform="matrix(1.25,0,0,1.25,0.0,0.0)"><g transform="translate(0.000000,678.400000) scale(0.040000,-0.040000)" fill="#6889c4" stroke="none">
<path d="M6567 13214 c-10 -11 -8 -54 2 -54 14 0 25 40 14 51 -5 5 -12 6 -16 3z"/>
<path d="M10005 11620 c-3 -5 -1 -10 4 -10 6 0 11 5 11 10 0 6 -2 10 -4 10 -3 0 -8 -4 -11 -10z"/>
<path d="M3605 10770 c-3 -5 -1 -10 4 -10 6 0 11 5 11 10 0 6 -2 10 -4 10 -3 0 -8 -4 -11 -10z"/>
<path d="M8502 7578 c-17 -17 -17 -1409 0 -1426 19 -19 1071 -17 1170 2 376 72 612 409 569 812 -18 168 -76 299 -180 407 -110 114 -270 190 -440 208 -136 14 -1104 12 -1119 -3z"/>
<path d="M5113 1516 c-57 -18 -131 -74 -200 -151 l-58 -64 -69 34 c-138 67 -256 87 -321 52 -117 -61 -176 -211 -141 -360 33 -141 111 -254 244 -353 109 -81 323 -188 355 -178 31 10 155 112 271 224 211 204 286 340 272 492 -13 137 -71 234 -169 281 -69 32 -130 40 -184 23z"/>
</g>
</g>
  <g id="id3:id3" transform="matrix(1.25,0,0,1.25,0.0,0.0)"><g transform="translate(0.000000,678.400000) scale(0.040000,-0.040000)" fill="#99c949" stroke="none">
<path d="M5355 7581 c-106 -14 -188 -40 -295 -93 -88 -44 -118 -66 -196 -143 -165 -163 -241 -306 -273 -520 -27 -182 -34 -352 -34 -825 0 -784 27 -975 167 -1184 187 -280 461 -419 796 -403 285 14 515 141 683 378 86 121 135 255 156 429 22 170 33 581 28 950 -12 716 -40 851 -227 1092 -108 138 -289 254 -465 297 -92 23 -253 33 -340 22z"/>
<path d="M4635 2049 c-93 -50 -217 -116 -275 -146 -58 -31 -168 -89 -245 -131 -201 -107 -293 -156 -352 -187 -29 -15 -53 -34 -53 -42 0 -24 181 -203 205 -203 12 0 230 128 484 285 254 157 468 285 477 285 8 0 247 -115 531 -255 284 -140 518 -255 521 -255 12 0 102 84 102 95 0 7 -62 46 -137 86 -76 39 -174 91 -218 114 -122 64 -278 146 -400 210 -60 32 -132 70 -160 85 -134 73 -286 150 -297 150 -7 0 -89 -41 -183 -91z"/>
<path d="M5618 1438 c-10 -9 -18 -37 -22 -83 -4 -38 -13 -117 -21 -175 -14 -104 -35 -268 -60 -470 -41 -333 -49 -386 -59 -396 -7 -8 -146 -17 -411 -28 -220 -9 -485 -21 -589 -27 -104 -5 -195 -8 -203 -5 -11 4 -13 107 -13 564 0 443 -3 562 -13 570 -16 14 -164 -27 -178 -49 -5 -8 -9 -59 -9 -114 0 -89 -7 -251 -39 -940 -5 -99 -6 -185 -4 -191 5 -13 185 -19 1033 -35 305 -5 562 -12 571 -14 8 -3 23 1 32 7 18 14 23 47 57 378 11 107 29 281 40 385 12 105 27 260 36 345 8 85 19 178 24 205 11 62 -2 75 -76 75 -29 0 -58 2 -66 5 -7 3 -21 0 -30 -7z"/>
</g>
</g>
</svg>
