<?xml version="1.0" standalone="no"?>
<!DOCTYPE svg PUBLIC "-//W3C//DTD SVG 1.1//EN"
 "http://www.w3.org/Graphics/SVG/1.1/DTD/svg11.dtd">
<!-- Created with svg_stack (http://github.com/astraw/svg_stack) -->
<svg xmlns:sodipodi="http://sodipodi.sourceforge.net/DTD/sodipodi-0.dtd" xmlns="http://www.w3.org/2000/svg" version="1.1" width="3200.0" height="4626.0">
  <defs/>
  <g id="id0:id0" transform="matrix(1.25,0,0,1.25,0.0,0.0)"><g transform="translate(0.000000,3700.800000) scale(0.040000,-0.040000)" fill="#ffffff" stroke="none">
<path d="M31670 92214 c-52 -36 -80 -72 -80 -102 -1 -15 -9 -45 -20 -67 -11 -22 -19 -44 -20 -48 -1 -34 -103 -123 -192 -168 -23 -12 -57 -34 -74 -49 -62 -54 -167 -91 -309 -109 -39 -5 -98 -18 -133 -30 -85 -29 -171 -37 -236 -21 l-52 12 -60 -30 c-85 -43 -156 -55 -239 -42 -89 14 -132 37 -219 118 -157 146 -236 202 -284 202 -11 0 -40 -11 -65 -25 -25 -14 -75 -32 -112 -40 -90 -19 -112 -37 -79 -69 11 -11 34 -16 78 -16 72 0 153 -22 205 -54 32 -21 96 -85 143 -144 10 -12 26 -22 36 -22 41 0 200 -54 246 -83 69 -44 85 -85 112 -292 12 -93 29 -195 38 -225 9 -30 15 -80 15 -110 -1 -50 12 -93 42 -140 23 -37 32 -69 37 -127 l4 -63 85 -71 c47 -39 102 -81 122 -92 20 -11 47 -29 60 -39 13 -10 36 -18 50 -18 26 0 106 -36 166 -74 135 -87 185 -126 292 -231 67 -66 144 -140 171 -165 l49 -45 7 -66 c9 -85 -1 -131 -51 -236 -14 -28 -29 -84 -34 -123 -11 -87 -18 -102 -84 -166 l-53 -51 -6 -79 c-8 -103 -21 -189 -37 -241 -11 -37 -11 -44 4 -61 9 -10 30 -52 47 -93 17 -40 48 -103 69 -139 68 -115 74 -132 82 -225 9 -101 36 -211 73 -300 22 -52 26 -75 26 -170 0 -137 -10 -179 -51 -221 -40 -41 -99 -61 -204 -70 -51 -4 -116 -19 -180 -41 -55 -19 -128 -41 -162 -49 -57 -13 -65 -12 -107 6 -27 11 -76 49 -121 94 -79 79 -100 87 -111 37 -3 -14 -14 -55 -23 -91 -10 -36 -28 -103 -41 -150 -12 -47 -31 -113 -41 -147 -10 -34 -19 -68 -19 -75 0 -7 -9 -42 -20 -78 -21 -70 -45 -156 -80 -290 -12 -47 -31 -114 -41 -150 -23 -81 -50 -180 -79 -290 -12 -47 -31 -114 -41 -150 -23 -82 -50 -181 -79 -290 -12 -47 -30 -112 -40 -145 -10 -33 -28 -98 -40 -145 -46 -174 -63 -237 -81 -300 -24 -85 -51 -185 -79 -290 -48 -183 -52 -192 -152 -307 -51 -59 -109 -127 -128 -149 -90 -107 -260 -303 -301 -349 -46 -50 -156 -178 -358 -414 -58 -69 -128 -150 -156 -181 -27 -31 -84 -96 -125 -145 -41 -48 -96 -111 -121 -139 -25 -28 -91 -103 -145 -166 -54 -64 -139 -162 -189 -219 -49 -57 -106 -123 -125 -147 -19 -23 -75 -89 -125 -145 -49 -56 -108 -124 -130 -150 -35 -42 -213 -247 -405 -467 -36 -41 -78 -92 -95 -112 -102 -127 -184 -202 -347 -318 -18 -13 -104 -76 -190 -140 -87 -64 -182 -134 -210 -155 -97 -71 -328 -241 -443 -327 -63 -47 -147 -109 -187 -138 -84 -61 -282 -208 -478 -353 -74 -55 -178 -131 -230 -170 -147 -109 -278 -205 -423 -312 -72 -54 -157 -116 -187 -138 -30 -22 -108 -79 -172 -127 -65 -48 -146 -108 -181 -134 -47 -34 -95 -57 -183 -87 -65 -22 -252 -85 -414 -141 -290 -99 -686 -234 -1090 -370 -113 -38 -365 -124 -560 -191 -195 -67 -409 -139 -475 -161 -66 -22 -126 -45 -133 -52 -10 -9 -12 -4440 -12 -22160 0 -12181 3 -22153 7 -22160 5 -6 32 -42 61 -79 55 -68 78 -81 89 -49 3 9 11 23 16 30 14 18 37 -4 37 -35 0 -14 9 -53 20 -87 51 -159 60 -191 60 -207 0 -9 18 -39 40 -67 22 -27 40 -54 40 -58 0 -5 14 -29 30 -53 18 -26 30 -57 30 -76 0 -56 -28 -129 -70 -178 l-40 -49 16 -36 c9 -22 14 -58 12 -87 -2 -43 2 -57 30 -97 17 -26 32 -54 32 -63 0 -10 8 -34 19 -54 35 -68 61 -128 61 -140 0 -7 7 -25 14 -40 28 -53 47 -355 36 -572 -5 -107 -12 -202 -15 -211 -8 -19 -9 -19 125 -43 46 -9 103 -24 126 -35 53 -26 132 -102 149 -144 8 -19 39 -62 69 -97 l54 -64 6 -70 c4 -38 12 -105 18 -148 8 -58 8 -81 -1 -90 -22 -22 -9 -43 69 -115 74 -68 87 -76 181 -107 56 -19 106 -39 113 -44 6 -5 26 -12 45 -16 101 -22 202 -94 325 -235 150 -171 228 -276 275 -370 53 -107 211 -406 274 -521 33 -58 36 -69 27 -100 -6 -18 -10 -62 -10 -96 0 -58 3 -66 36 -103 47 -51 172 -157 246 -207 48 -33 118 -109 118 -128 0 -8 39 -62 77 -109 31 -37 65 -129 79 -211 6 -39 81 -202 129 -280 13 -22 27 -47 30 -55 55 -131 54 -131 221 -251 117 -84 272 -209 299 -240 42 -51 74 -124 102 -231 14 -56 33 -117 43 -137 39 -76 72 -304 69 -479 -2 -70 2 -125 9 -138 6 -11 24 -59 41 -107 16 -48 45 -107 63 -131 18 -24 51 -70 73 -101 26 -37 92 -99 190 -178 290 -236 368 -328 479 -558 29 -61 68 -102 131 -140 91 -54 149 -121 221 -257 20 -37 53 -87 73 -112 20 -25 42 -53 50 -63 7 -9 18 -38 22 -64 8 -39 33 -101 68 -163 29 -52 73 -163 107 -270 23 -70 24 -89 24 -315 0 -322 -7 -359 -81 -479 l-30 -48 16 -118 c18 -138 19 -212 5 -260 -6 -19 -15 -70 -20 -113 -10 -88 -26 -120 -105 -208 l-52 -58 -7 -72 c-3 -40 -16 -93 -27 -118 -12 -26 -23 -77 -26 -116 -10 -123 -57 -181 -173 -211 -80 -20 -157 -14 -198 16 -28 21 -60 79 -80 145 -6 22 -15 31 -36 33 -40 5 -165 -26 -198 -49 -24 -17 -28 -27 -28 -65 0 -25 -9 -62 -21 -85 -25 -50 -22 -80 11 -96 38 -19 139 -16 205 7 93 32 199 6 264 -65 64 -70 91 -141 102 -269 5 -60 13 -125 19 -145 5 -20 16 -81 24 -136 19 -127 6 -180 -67 -262 l-20 -22 22 -53 c32 -77 36 -124 16 -199 -10 -35 -18 -77 -19 -94 l-1 -30 91 -7 c177 -14 317 -92 443 -246 51 -63 53 -66 111 -169 23 -40 46 -75 51 -79 6 -3 15 -16 20 -27 5 -12 30 -58 54 -102 88 -158 95 -174 95 -216 0 -53 -28 -101 -93 -161 l-51 -47 18 -20 c10 -11 55 -32 100 -47 115 -37 173 -81 308 -231 65 -72 153 -160 195 -195 108 -88 140 -124 174 -195 26 -52 30 -70 27 -120 -2 -32 -8 -65 -12 -74 -5 -13 3 -24 35 -46 24 -15 56 -47 72 -69 34 -49 134 -337 143 -414 10 -82 15 -87 101 -106 118 -26 148 -43 278 -159 273 -245 283 -252 398 -311 62 -31 124 -67 139 -79 15 -13 61 -39 103 -59 95 -45 170 -99 260 -187 74 -72 89 -81 257 -139 104 -36 184 -82 278 -159 25 -21 83 -58 130 -83 94 -51 190 -141 213 -198 23 -54 28 -109 19 -183 -11 -90 -2 -105 73 -130 113 -37 143 -68 225 -232 39 -80 76 -148 81 -151 20 -12 48 -83 64 -159 9 -44 27 -97 40 -117 14 -21 25 -42 25 -48 0 -6 11 -22 25 -35 23 -24 30 -25 143 -25 177 0 197 -10 405 -202 109 -101 135 -142 152 -242 14 -77 4 -137 -27 -173 -27 -29 -21 -67 12 -70 14 -1 65 -5 113 -8 80 -6 92 -10 124 -38 20 -17 49 -61 66 -97 26 -55 31 -77 31 -142 l1 -77 -38 -39 c-20 -21 -37 -45 -37 -54 0 -8 25 -36 55 -61 46 -38 69 -49 133 -63 95 -21 231 -90 319 -163 50 -41 88 -62 157 -86 104 -37 232 -98 261 -125 29 -26 97 -60 184 -90 94 -33 292 -131 346 -170 157 -116 193 -135 390 -211 155 -59 260 -113 335 -173 110 -87 144 -106 253 -141 58 -19 143 -51 188 -71 46 -20 109 -45 139 -56 30 -12 117 -53 195 -92 77 -39 156 -77 175 -85 88 -34 141 -61 205 -106 113 -77 130 -97 197 -223 43 -82 187 -232 287 -300 91 -61 201 -100 386 -138 106 -21 215 -69 296 -131 63 -48 73 -52 182 -72 164 -31 196 -44 311 -120 15 -11 67 -29 113 -40 99 -25 128 -39 195 -92 27 -21 81 -55 119 -75 83 -44 111 -75 157 -174 38 -83 77 -140 95 -140 32 0 135 -61 167 -99 125 -149 163 -181 326 -275 146 -84 300 -210 345 -283 22 -36 62 -58 124 -68 73 -12 148 -55 429 -249 l85 -59 58 6 c32 3 121 -2 198 -10 144 -15 228 -38 370 -101 39 -17 131 -51 205 -75 74 -25 162 -55 195 -67 33 -13 74 -26 90 -30 82 -21 213 -63 268 -86 154 -63 298 -135 346 -172 19 -15 46 -34 61 -42 55 -32 166 -119 186 -147 11 -15 29 -51 39 -79 10 -28 23 -58 30 -67 14 -20 132 -42 275 -51 127 -9 175 -26 273 -99 90 -68 90 -68 200 -144 42 -29 79 -53 82 -53 3 0 18 -8 33 -19 69 -47 244 -142 311 -167 44 -17 80 -38 89 -52 18 -28 279 -156 360 -177 68 -18 114 -19 130 -3 9 9 12 3980 12 17809 0 15163 -2 17798 -14 17808 -10 8 -180 11 -632 11 l-619 -1 1 23 c1 13 10 55 19 93 57 232 89 297 177 364 98 74 120 95 160 149 22 30 107 119 188 198 130 127 172 163 256 210 15 9 20 27 26 86 6 68 11 82 50 137 24 33 75 107 113 163 59 86 83 112 145 155 41 29 87 64 103 77 l27 24 0 129 0 128 -33 50 c-45 69 -58 121 -67 260 -4 66 -10 128 -15 138 -4 9 -19 20 -34 23 -141 33 -285 108 -371 194 -57 57 -68 75 -92 147 -16 45 -28 89 -28 96 0 23 -40 107 -74 157 -17 25 -37 56 -44 70 -6 14 -16 32 -20 40 -5 8 -19 38 -32 65 -22 46 -48 93 -106 193 -12 21 -37 65 -55 100 -20 37 -46 71 -64 81 -16 10 -84 28 -150 41 -66 12 -151 33 -190 46 -82 29 -250 120 -318 174 -47 38 -137 132 -137 144 0 4 -8 19 -17 33 -31 47 -67 160 -94 298 -6 28 -10 137 -9 244 l0 194 -27 46 c-48 83 -138 185 -184 208 -51 26 -119 54 -274 113 -165 64 -245 106 -298 158 -50 49 -59 63 -102 152 -44 91 -64 168 -80 315 -9 77 -21 150 -27 162 -6 12 -39 44 -72 70 -141 111 -196 178 -231 286 -17 51 -18 62 -5 105 26 91 24 123 -8 182 -53 94 -67 142 -82 280 -10 82 -16 101 -47 150 -46 69 -132 154 -183 180 -21 11 -94 35 -162 53 -183 50 -225 82 -303 232 -26 50 -53 97 -61 105 -7 9 -23 41 -35 73 -20 52 -21 61 -8 104 15 55 75 125 129 152 43 22 113 38 205 46 108 9 145 22 145 48 -1 49 -23 112 -52 151 -48 62 -238 255 -278 280 -19 13 -92 41 -161 64 -215 69 -335 120 -441 188 -38 24 -68 48 -68 53 0 6 -82 95 -183 198 -311 320 -379 436 -347 597 15 74 63 180 103 224 10 10 17 23 17 29 0 6 6 16 14 22 34 29 56 91 56 161 0 74 -10 109 -68 230 -71 150 -91 295 -52 382 16 37 88 118 104 118 2 0 27 5 57 10 67 13 125 -3 266 -72 70 -34 110 -49 125 -45 13 3 77 22 143 42 177 53 252 65 440 71 94 3 180 7 192 10 34 7 47 38 30 71 -8 16 -22 64 -31 108 -43 201 -114 357 -221 486 -36 43 -65 80 -65 83 0 3 -13 25 -30 49 -53 79 -158 300 -176 370 -16 65 -16 76 0 200 23 169 53 240 123 291 26 19 62 37 79 41 51 9 60 27 46 95 -10 48 -10 69 3 123 12 51 13 84 6 145 -10 92 1 177 29 230 11 21 43 62 72 93 29 31 88 100 131 153 85 105 107 121 272 206 163 83 215 120 274 193 48 60 115 116 229 190 23 15 75 58 115 96 120 113 223 175 357 214 116 34 169 56 307 128 113 58 152 84 273 185 72 59 129 88 231 116 72 19 109 23 264 24 99 0 186 1 193 2 7 1 58 45 112 97 55 52 116 101 137 110 21 9 48 26 62 38 30 28 101 123 101 135 0 5 6 15 14 21 21 18 44 93 56 185 10 75 9 87 -14 163 -14 45 -31 97 -39 115 -28 64 -56 174 -67 268 -20 170 -30 210 -78 303 -78 154 -91 169 -247 272 -49 33 -107 78 -129 100 -69 71 -109 188 -137 410 -22 170 3 297 77 390 31 39 48 69 79 132 8 18 37 70 64 116 46 77 68 102 167 181 20 16 40 39 45 50 5 12 23 39 39 61 17 22 43 65 59 95 16 30 39 75 53 100 91 169 211 293 378 390 181 105 195 116 220 177 26 62 46 97 103 175 20 28 37 56 37 61 0 5 8 21 18 35 22 33 48 119 57 191 6 45 12 56 37 70 17 9 41 24 54 34 l24 18 0 8025 0 8024 -31 0 c-18 0 -48 -5 -68 -11 -57 -17 -117 3 -167 56 -46 49 -64 108 -64 206 0 32 -3 60 -7 60 -5 1 -46 2 -93 3 -94 1 -120 13 -211 88 -99 83 -131 158 -156 363 -19 152 -18 236 1 273 37 71 144 136 257 158 39 7 77 18 84 24 8 6 17 30 20 53 4 23 14 55 22 70 11 22 12 36 4 60 -6 18 -13 68 -15 111 -4 60 -10 87 -26 108 -11 15 -20 33 -20 39 0 7 -6 20 -14 28 -15 16 -39 77 -57 141 -5 19 -17 49 -27 65 -14 24 -17 51 -15 139 3 125 26 213 73 283 16 24 30 48 30 53 0 5 -14 24 -30 42 -17 18 -39 51 -49 73 -11 24 -44 64 -81 95 -116 101 -117 103 -124 156 -4 28 -3 61 3 77 21 54 14 83 -24 106 -43 25 -140 51 -192 51 -21 0 -56 -10 -78 -21 -44 -24 -179 -69 -208 -69 -10 0 -51 -31 -90 -68 -60 -57 -82 -71 -125 -82 -101 -24 -169 6 -293 126 -78 76 -90 84 -125 84 -150 2 -195 19 -274 104 -134 144 -156 163 -215 185 -58 22 -152 89 -211 153 -64 67 -100 203 -78 293 37 152 47 181 102 294 10 19 51 73 92 120 141 162 162 190 153 205 -28 49 -346 383 -429 450 -20 16 -40 39 -45 50 -5 12 -13 28 -18 36 -44 69 -52 147 -26 234 26 86 42 63 -238 356 -71 74 -136 149 -144 165 -25 48 -61 75 -172 132 -102 53 -164 94 -209 141 -38 40 -57 26 -57 -43 0 -77 -28 -125 -91 -156 -86 -41 -189 -13 -306 86 -20 17 -50 38 -65 46 -57 29 -115 72 -174 130 -33 32 -66 60 -72 61 -7 0 -31 2 -54 3 -24 0 -47 5 -53 11 -6 6 -7 42 0 104 11 114 22 156 55 204 42 62 32 76 -56 76 -34 0 -66 -8 -102 -27 -147 -76 -205 -71 -315 30 -32 29 -84 73 -117 96 -164 119 -195 176 -163 296 15 55 9 67 -53 112 -64 46 -87 43 -161 -23 -113 -101 -170 -116 -306 -83 -103 25 -231 84 -287 131 -39 33 -204 137 -275 173 -67 33 -139 95 -174 148 -20 30 -36 58 -36 64 0 30 -70 129 -136 194 -90 89 -104 112 -104 180 0 48 3 54 44 93 100 94 174 155 209 176 33 19 57 47 57 64 0 3 -48 37 -107 75 -194 126 -212 141 -286 234 -121 153 -144 207 -133 318 4 35 9 114 12 175 l6 111 -46 52 c-65 73 -71 86 -96 186 -19 78 -20 95 -9 134 l13 44 -61 57 -60 57 -75 6 c-125 9 -150 21 -248 116 -48 47 -143 138 -210 201 -66 63 -140 142 -162 175 -88 128 -172 205 -250 225 -32 9 -51 7 -120 -15 -72 -23 -87 -25 -133 -15 -141 29 -307 214 -291 324 6 39 4 44 -35 81 -60 58 -130 173 -144 236 -4 15 -13 33 -21 40 -8 6 -14 17 -14 24 0 19 -52 117 -80 152 -40 49 -75 67 -108 55 -50 -19 -216 -53 -288 -59 -95 -8 -157 9 -254 67 -101 61 -188 133 -265 218 -70 78 -113 115 -290 243 -71 52 -164 127 -206 166 -70 67 -98 85 -214 133 -95 40 -224 108 -254 134 -49 44 -92 76 -100 75 -3 0 -22 -12 -41 -25z"/>
</g>
</g>
  <g id="id1:id1" transform="matrix(1.25,0,0,1.25,0.0,0.0)"><g transform="translate(0.000000,3700.800000) scale(0.040000,-0.040000)" fill="#cc0001" stroke="none">
<path d="M31615 92502 c-172 -95 -285 -213 -285 -299 0 -55 -26 -89 -96 -128 -38 -21 -85 -51 -104 -66 -44 -35 -102 -54 -210 -70 -47 -6 -109 -20 -139 -30 -63 -22 -113 -24 -176 -7 -54 15 -116 1 -218 -48 -87 -41 -99 -38 -209 65 -149 138 -285 222 -384 235 -58 8 -169 -14 -219 -44 -38 -24 -164 -57 -263 -71 -42 -6 -82 -15 -88 -20 -7 -6 -10 -100 -9 -301 1 -161 3 -299 4 -305 2 -19 27 -16 137 12 54 14 132 29 174 32 l75 6 33 -28 c18 -15 44 -47 58 -71 35 -59 86 -102 131 -109 97 -16 183 -38 191 -48 12 -15 20 -60 32 -177 5 -53 18 -123 28 -155 11 -35 17 -76 14 -98 -5 -47 12 -115 50 -187 22 -43 28 -69 28 -116 0 -34 6 -77 14 -96 30 -70 191 -211 386 -339 131 -85 159 -99 200 -99 47 0 154 -81 288 -217 l122 -126 -32 -66 c-18 -36 -35 -90 -39 -120 -7 -46 -15 -61 -56 -105 -27 -28 -61 -69 -76 -92 l-27 -40 0 -130 0 -129 -30 -63 c-30 -65 -39 -134 -21 -170 5 -9 14 -28 20 -42 6 -14 24 -45 40 -70 16 -25 30 -50 30 -56 1 -16 57 -132 86 -179 36 -58 41 -73 49 -145 8 -89 29 -183 56 -255 34 -91 44 -130 38 -147 -4 -9 -34 -19 -79 -28 -41 -7 -111 -26 -156 -42 -45 -15 -90 -28 -100 -28 -24 0 -183 164 -396 408 -33 39 -55 41 -63 5 -3 -16 -12 -48 -19 -73 -7 -25 -23 -83 -35 -130 -12 -47 -31 -114 -41 -150 -23 -81 -50 -180 -79 -290 -12 -47 -31 -114 -41 -150 -23 -81 -50 -180 -79 -290 -12 -47 -31 -114 -41 -150 -24 -83 -51 -183 -79 -290 -12 -47 -26 -96 -30 -110 -4 -14 -13 -44 -19 -67 -6 -24 -16 -62 -22 -85 -6 -24 -15 -54 -19 -68 -4 -14 -18 -63 -30 -110 -12 -47 -26 -96 -30 -110 -4 -14 -13 -44 -19 -67 -6 -24 -16 -62 -22 -85 -6 -24 -15 -54 -19 -68 -4 -14 -18 -63 -30 -110 -12 -47 -26 -96 -30 -110 -4 -14 -13 -44 -19 -67 -6 -24 -16 -62 -22 -85 -6 -24 -15 -54 -19 -68 -4 -14 -18 -63 -30 -110 -12 -47 -31 -116 -42 -155 -11 -38 -24 -88 -30 -110 -27 -105 -32 -112 -183 -285 -27 -31 -84 -97 -127 -146 -42 -49 -131 -152 -198 -229 -66 -77 -153 -178 -193 -224 -40 -46 -94 -110 -122 -141 -27 -32 -86 -99 -130 -151 -44 -51 -100 -116 -125 -144 -54 -62 -197 -227 -260 -300 -25 -28 -79 -91 -120 -140 -41 -49 -97 -114 -125 -145 -27 -31 -86 -99 -130 -150 -44 -52 -102 -119 -130 -150 -27 -31 -86 -99 -130 -150 -44 -51 -100 -116 -125 -145 -25 -29 -79 -91 -120 -140 -41 -48 -97 -113 -125 -145 -27 -31 -86 -99 -130 -151 -96 -113 -165 -183 -225 -227 -25 -18 -133 -97 -240 -176 -215 -158 -276 -203 -460 -340 -117 -87 -211 -156 -524 -386 -70 -52 -214 -159 -320 -237 -105 -78 -222 -165 -261 -193 -38 -28 -129 -95 -200 -148 -72 -53 -159 -117 -193 -142 -67 -49 -342 -252 -407 -301 -225 -169 -208 -161 -595 -290 -30 -10 -228 -77 -440 -149 -212 -72 -477 -162 -590 -200 -185 -63 -742 -252 -1025 -349 -60 -21 -245 -84 -410 -139 -165 -56 -365 -125 -445 -152 -80 -28 -237 -82 -350 -120 -113 -38 -351 -119 -530 -180 -179 -61 -417 -143 -530 -181 -113 -38 -270 -92 -350 -119 -80 -28 -237 -81 -350 -120 -113 -38 -272 -92 -353 -119 -82 -28 -161 -51 -177 -51 -77 0 -296 -145 -336 -222 -8 -15 -43 -57 -79 -92 -35 -36 -78 -91 -94 -123 -35 -70 -50 -84 -166 -159 -102 -66 -209 -170 -249 -243 -15 -28 -31 -75 -36 -105 -8 -51 -14 -60 -85 -128 -42 -39 -85 -89 -96 -110 -10 -20 -30 -45 -44 -55 -14 -10 -49 -36 -77 -58 -29 -22 -79 -58 -112 -80 -70 -46 -101 -88 -111 -147 -6 -32 -20 -55 -67 -102 -32 -33 -61 -72 -64 -86 -16 -69 -27 -92 -54 -103 -42 -18 -241 -183 -289 -240 -20 -24 -26 -43 -27 -81 -1 -28 -2 -55 -3 -60 0 -6 -16 4 -33 22 -47 45 -112 70 -212 81 -47 6 -91 13 -97 17 -6 4 -76 8 -155 10 l-144 3 -33 -35 c-17 -20 -37 -45 -44 -57 -18 -33 -16 -198 3 -258 l17 -50 -20 -22 c-25 -27 -49 -81 -57 -127 -17 -102 -57 -235 -108 -351 -15 -36 -28 -70 -28 -75 0 -5 -11 -30 -23 -55 -22 -42 -24 -64 -31 -245 -4 -109 -10 -209 -13 -222 -3 -14 -22 -31 -47 -44 -82 -41 -126 -104 -126 -183 0 -46 35 -149 88 -257 l28 -57 -31 -53 c-17 -29 -38 -73 -46 -97 -12 -38 -20 -46 -60 -61 -60 -22 -150 -91 -184 -140 -41 -60 -49 -109 -34 -228 l12 -103 -24 -27 c-35 -39 -49 -68 -49 -100 0 -41 -18 -57 -85 -77 -33 -9 -96 -34 -140 -56 -68 -32 -85 -46 -112 -88 -38 -59 -41 -96 -18 -223 9 -46 20 -105 25 -133 5 -27 12 -88 14 -135 l5 -85 -42 -41 c-42 -41 -47 -49 -87 -138 -13 -31 -50 -77 -95 -122 -84 -83 -98 -115 -100 -234 -2 -97 -34 -182 -97 -262 -16 -21 -43 -72 -60 -115 -16 -43 -38 -94 -48 -113 -24 -48 -37 -107 -50 -225 -6 -55 -15 -121 -20 -146 -24 -125 77 -373 195 -476 40 -35 40 -52 4 -104 -10 -15 -23 -37 -29 -50 -6 -13 -22 -42 -35 -64 -13 -22 -41 -73 -62 -113 -21 -41 -59 -99 -85 -130 -42 -49 -62 -63 -170 -113 -68 -31 -161 -72 -208 -90 -47 -17 -89 -36 -95 -41 -5 -4 -15 -8 -22 -8 -22 0 -195 -88 -223 -113 -14 -12 -51 -57 -83 -100 -32 -42 -91 -103 -130 -134 -134 -107 -176 -153 -255 -278 -26 -43 -64 -133 -78 -187 -19 -73 -12 -102 59 -258 14 -30 28 -66 32 -80 4 -14 16 -41 26 -60 11 -19 19 -41 19 -48 0 -24 -48 -33 -122 -21 -93 14 -147 5 -195 -32 -62 -50 -94 -115 -99 -206 -8 -123 -7 -121 -82 -155 -52 -23 -89 -51 -163 -124 -118 -115 -135 -119 -211 -48 -96 90 -223 121 -368 90 -41 -9 -102 -23 -135 -31 -42 -10 -119 -14 -261 -15 l-201 0 -64 68 c-102 109 -211 241 -261 317 -26 39 -104 127 -178 200 -73 71 -138 138 -145 150 -7 11 -16 43 -20 70 -9 68 -48 131 -155 255 -81 93 -91 109 -86 135 2 17 12 72 21 123 l16 93 -21 66 c-22 69 -96 208 -136 256 -28 34 -30 61 -6 85 61 63 98 133 114 218 10 55 9 68 -7 103 -22 49 -55 81 -120 114 -63 32 -213 82 -296 98 -74 14 -109 39 -234 165 -44 44 -118 107 -165 139 -47 32 -100 69 -118 83 -27 21 -44 25 -100 25 -71 1 -98 -11 -197 -84 -78 -57 -111 -75 -185 -98 -160 -50 -217 -73 -267 -106 -29 -19 -62 -35 -73 -35 -24 0 -156 64 -184 88 -10 9 -34 42 -54 72 -53 81 -129 167 -177 200 -81 56 -200 94 -327 104 -42 3 -94 12 -116 19 -40 14 -261 169 -363 255 -319 268 -391 305 -516 272 -97 -26 -225 -119 -334 -242 -134 -152 -303 -319 -355 -348 -29 -16 -61 -41 -71 -55 -10 -15 -28 -38 -39 -53 -12 -15 -36 -55 -54 -89 -29 -54 -39 -65 -79 -80 -27 -10 -74 -44 -116 -84 l-70 -66 -72 -12 c-63 -11 -75 -11 -104 5 -56 28 -280 186 -286 200 -2 7 29 45 73 86 88 83 246 261 291 328 112 166 182 310 183 376 0 30 13 38 112 69 48 15 93 34 99 41 7 9 11 43 10 87 l-2 72 46 33 c25 17 49 32 54 32 14 0 43 38 39 51 -6 18 -246 99 -295 99 -23 0 -64 -4 -90 -9 -26 -5 -77 -15 -113 -22 -90 -17 -154 -49 -229 -114 -35 -31 -69 -55 -76 -53 -7 2 -42 40 -78 85 l-66 82 18 23 c9 13 29 47 44 75 54 106 28 199 -82 294 -54 47 -64 78 -35 110 8 9 21 39 28 65 30 115 107 224 157 224 11 0 51 18 89 40 38 22 81 40 95 40 42 0 149 -82 181 -138 16 -28 44 -59 71 -76 39 -25 54 -29 114 -28 58 0 75 5 113 29 25 15 50 38 57 51 17 31 205 197 259 229 25 15 70 49 101 77 55 50 88 69 199 116 30 13 69 34 87 47 21 16 44 22 71 21 45 -1 128 36 149 69 16 24 101 43 190 43 69 0 113 10 113 26 0 7 -32 39 -71 71 -40 32 -91 74 -114 93 -23 19 -74 61 -114 94 -98 81 -103 91 -142 270 -12 56 -78 176 -97 176 -12 0 -72 85 -72 102 0 8 9 31 20 53 26 50 25 88 -2 144 -20 42 -21 45 -4 55 116 69 137 94 155 176 22 103 -46 220 -211 359 -43 36 -78 71 -78 77 0 5 14 23 31 40 76 72 103 186 64 269 -21 42 -88 115 -168 181 l-49 39 12 60 c14 73 1 119 -57 194 -21 27 -49 65 -63 85 -32 44 -58 56 -125 56 -66 0 -70 6 -111 133 -18 55 -33 87 -42 87 -8 0 -55 -31 -106 -68 -50 -37 -109 -79 -131 -92 -101 -60 -133 -103 -144 -196 -9 -74 -24 -95 -136 -179 -57 -42 -93 -60 -195 -93 -83 -27 -152 -43 -205 -47 -116 -8 -221 -32 -292 -65 -103 -47 -136 -85 -270 -305 -7 -11 -26 -47 -43 -81 -29 -59 -173 -214 -198 -214 -6 0 -49 -38 -97 -85 -47 -46 -104 -94 -126 -106 -23 -11 -60 -37 -82 -58 -23 -21 -62 -51 -87 -66 -25 -15 -63 -42 -85 -59 -22 -18 -69 -45 -105 -60 -36 -15 -96 -49 -135 -75 -82 -56 -126 -79 -216 -115 -111 -45 -280 -198 -300 -271 -7 -24 -10 -93 -7 -177 5 -120 3 -139 -12 -153 -9 -8 -20 -15 -24 -15 -13 0 -87 -60 -166 -136 -41 -39 -107 -94 -147 -120 -44 -30 -122 -102 -200 -185 -70 -75 -156 -163 -191 -194 -34 -32 -76 -78 -93 -102 -26 -39 -119 -242 -119 -260 0 -4 -18 -35 -41 -69 -28 -43 -56 -72 -87 -90 -26 -15 -67 -46 -92 -68 -25 -23 -67 -57 -95 -76 -103 -70 -302 -255 -335 -311 -14 -23 -45 -65 -70 -93 -25 -28 -58 -67 -72 -87 -73 -99 -128 -147 -199 -175 -122 -48 -169 -119 -169 -256 0 -54 -7 -106 -20 -148 -18 -59 -19 -73 -8 -147 9 -64 9 -90 -1 -125 -22 -77 -51 -127 -87 -148 -19 -12 -46 -42 -61 -67 l-26 -46 2 -176 c1 -122 6 -194 17 -236 18 -68 37 -323 28 -374 -3 -19 -28 -77 -56 -130 -35 -68 -52 -112 -56 -150 -6 -67 -46 -128 -109 -168 -63 -40 -93 -98 -93 -183 0 -63 2 -69 37 -107 30 -31 60 -48 141 -79 79 -30 116 -50 158 -88 56 -50 94 -109 94 -147 0 -35 38 -88 134 -189 66 -69 102 -117 131 -173 46 -90 101 -150 194 -213 128 -85 145 -100 195 -171 51 -71 69 -93 241 -291 111 -128 125 -149 125 -190 0 -18 5 -53 11 -78 14 -55 10 -61 -63 -76 l-56 -12 -38 33 c-50 44 -93 61 -155 61 -123 0 -189 -106 -173 -282 l7 -79 -32 -33 c-58 -60 -86 -183 -60 -266 6 -19 14 -72 19 -117 9 -88 43 -178 84 -223 13 -14 36 -45 52 -70 70 -111 188 -239 269 -292 66 -43 144 -101 267 -195 44 -34 119 -86 166 -115 147 -91 178 -126 370 -413 55 -82 119 -175 141 -205 43 -57 91 -150 91 -175 0 -31 64 -151 104 -196 43 -48 80 -141 105 -264 5 -27 15 -74 20 -103 15 -75 13 -389 -3 -494 -12 -77 -18 -94 -55 -143 -23 -30 -51 -83 -61 -116 -24 -75 -34 -89 -107 -151 -66 -56 -122 -88 -155 -88 -65 0 -267 133 -419 276 -38 36 -70 56 -100 64 -24 6 -52 14 -62 16 -37 11 -155 -18 -190 -47 -43 -35 -77 -106 -77 -159 0 -37 -4 -42 -47 -69 -130 -80 -217 -152 -250 -208 l-25 -44 6 -122 c12 -205 14 -193 -49 -281 -49 -67 -49 -131 0 -258 19 -50 38 -109 41 -132 11 -82 47 -210 65 -233 6 -7 18 -27 28 -45 27 -53 44 -79 81 -129 19 -26 49 -67 65 -90 21 -30 47 -50 90 -69 73 -33 209 -80 232 -80 24 0 118 -55 207 -122 74 -55 164 -108 185 -108 8 0 50 -19 256 -115 44 -20 142 -59 217 -86 76 -26 146 -52 156 -58 11 -6 68 -26 128 -46 59 -20 124 -45 144 -55 20 -10 85 -35 145 -55 144 -48 297 -105 310 -116 34 -27 354 -189 374 -189 14 0 73 -31 161 -85 47 -28 110 -61 140 -72 30 -12 88 -34 129 -49 60 -23 86 -40 140 -94 89 -90 125 -115 274 -199 70 -40 153 -94 185 -120 31 -26 79 -60 105 -76 27 -15 72 -48 100 -74 198 -176 429 -299 642 -340 182 -36 303 -84 449 -181 39 -26 95 -59 125 -74 96 -48 179 -96 192 -113 8 -9 30 -26 49 -39 76 -50 130 -91 261 -194 74 -60 160 -124 190 -143 54 -34 99 -79 234 -232 124 -140 141 -166 165 -245 13 -41 31 -86 40 -100 10 -14 23 -50 30 -80 19 -82 72 -174 192 -337 37 -51 97 -97 208 -161 30 -18 84 -57 120 -87 36 -30 94 -79 130 -109 125 -102 339 -336 340 -370 0 -13 66 -110 86 -127 10 -8 50 -53 90 -101 79 -95 118 -168 163 -304 37 -113 154 -312 281 -477 169 -220 229 -360 241 -567 19 -323 21 -346 46 -420 13 -41 31 -82 39 -91 8 -8 14 -18 14 -21 0 -13 177 -276 301 -446 50 -68 120 -195 237 -425 19 -38 54 -98 77 -133 38 -56 44 -73 50 -139 4 -42 5 -88 2 -103 -14 -71 43 -205 129 -301 27 -31 61 -74 74 -96 34 -56 103 -145 135 -175 37 -34 141 -169 198 -256 57 -86 189 -215 276 -269 35 -22 91 -61 125 -88 33 -26 91 -68 128 -92 36 -25 98 -74 136 -109 38 -35 96 -81 128 -103 32 -23 68 -50 78 -62 10 -11 40 -35 67 -51 27 -18 78 -69 117 -119 63 -78 113 -134 292 -327 31 -32 122 -121 203 -198 140 -131 218 -226 255 -310 7 -16 38 -68 69 -114 38 -57 62 -106 74 -152 26 -100 58 -155 148 -253 45 -49 81 -97 81 -107 0 -10 -13 -28 -29 -39 -51 -37 -71 -80 -71 -156 0 -146 50 -230 174 -292 91 -46 137 -82 271 -218 74 -75 142 -132 206 -174 53 -34 107 -76 120 -94 48 -65 86 -154 98 -233 11 -70 35 -193 61 -309 5 -22 12 -66 15 -98 l7 -59 -44 -66 c-74 -111 -78 -133 -49 -257 10 -45 65 -202 88 -255 57 -126 222 -307 408 -446 143 -107 146 -113 85 -203 -31 -45 -45 -78 -53 -124 -14 -87 5 -135 89 -218 35 -35 64 -67 64 -71 0 -5 -9 -27 -19 -51 -29 -64 -31 -86 -14 -136 27 -82 88 -129 223 -171 99 -31 112 -42 98 -83 -17 -49 -27 -58 -50 -46 -13 7 -44 8 -84 4 -60 -6 -66 -9 -98 -49 -19 -23 -39 -53 -45 -68 -13 -34 7 -120 41 -173 29 -46 112 -131 178 -183 25 -20 77 -67 116 -105 l71 -69 43 4 c42 3 44 1 50 -27 4 -16 16 -48 27 -70 62 -124 89 -173 107 -197 12 -15 41 -54 66 -86 53 -70 99 -99 194 -122 l71 -17 1 -49 c0 -27 4 -60 8 -73 14 -40 77 -142 115 -184 33 -37 36 -46 42 -121 4 -44 18 -128 32 -186 25 -105 37 -173 58 -330 11 -85 24 -135 52 -200 8 -19 27 -73 43 -120 15 -47 43 -115 61 -152 18 -37 33 -75 33 -85 1 -45 144 -256 246 -363 34 -36 85 -96 114 -135 29 -38 77 -92 107 -119 30 -27 59 -59 64 -70 5 -12 21 -39 34 -61 14 -22 28 -45 31 -51 3 -7 -10 -33 -28 -59 -31 -43 -33 -52 -32 -123 1 -79 14 -131 61 -231 19 -40 28 -84 35 -156 13 -140 47 -225 227 -557 l41 -76 0 -111 c0 -60 -5 -122 -11 -138 -16 -41 -13 -117 7 -155 9 -18 47 -64 83 -103 37 -38 85 -92 106 -120 22 -27 69 -82 105 -121 64 -69 103 -136 153 -264 27 -68 70 -164 86 -190 41 -66 171 -310 171 -321 0 -4 23 -56 51 -116 28 -59 66 -142 85 -183 19 -41 39 -82 44 -90 5 -8 21 -39 36 -69 15 -29 46 -78 70 -107 24 -30 44 -56 44 -58 0 -6 76 -122 137 -210 26 -38 71 -101 98 -141 28 -39 65 -90 83 -112 17 -23 32 -45 32 -50 0 -6 25 -50 55 -99 30 -49 64 -105 74 -125 11 -19 61 -80 113 -135 51 -55 100 -113 107 -130 44 -89 135 -209 228 -302 57 -57 103 -108 103 -114 0 -5 17 -40 39 -76 21 -37 57 -102 80 -145 45 -85 78 -130 190 -263 91 -107 158 -221 166 -283 13 -96 37 -188 63 -241 25 -51 27 -64 27 -185 0 -122 2 -133 28 -186 15 -30 61 -95 102 -145 80 -96 91 -119 124 -264 22 -96 36 -151 52 -204 13 -42 11 -86 -3 -90 -7 -2 -33 -9 -58 -16 -116 -32 -194 -92 -219 -168 -12 -36 -12 -53 -1 -109 16 -83 54 -177 88 -223 15 -19 54 -62 87 -95 33 -33 83 -90 111 -127 64 -84 168 -169 269 -221 65 -32 226 -81 340 -102 119 -23 215 -74 395 -210 70 -53 151 -109 295 -204 74 -49 235 -224 265 -288 12 -27 35 -75 51 -109 16 -34 29 -65 29 -70 0 -10 82 -135 128 -195 33 -44 109 -134 177 -210 47 -52 79 -107 120 -204 24 -57 66 -137 81 -156 23 -25 17 -34 -51 -85 -65 -49 -115 -124 -115 -172 0 -39 31 -92 75 -129 39 -32 45 -43 45 -74 0 -28 11 -55 45 -103 25 -37 65 -112 88 -169 58 -135 72 -253 64 -527 -8 -249 -10 -259 -66 -287 -79 -40 -103 -71 -146 -190 l-23 -64 21 -19 c11 -11 26 -20 33 -20 6 0 31 -9 55 -20 63 -28 189 -28 249 1 36 18 63 22 138 22 109 0 131 -11 172 -85 14 -25 39 -61 56 -80 26 -30 32 -46 38 -108 5 -55 3 -79 -9 -103 -43 -86 -4 -165 155 -314 125 -117 141 -126 335 -194 186 -64 190 -66 285 -163 176 -182 244 -281 389 -571 19 -38 43 -82 54 -96 25 -34 19 -58 -18 -79 -16 -9 -30 -22 -30 -29 0 -7 32 -34 70 -60 l70 -47 0 -80 c0 -131 27 -188 150 -307 55 -54 137 -126 182 -158 57 -42 94 -78 120 -117 21 -31 52 -76 70 -100 22 -29 33 -55 33 -76 0 -36 32 -141 59 -196 10 -19 29 -57 42 -85 13 -27 33 -63 44 -80 11 -16 27 -46 36 -65 59 -131 78 -161 128 -213 31 -33 92 -83 136 -113 44 -29 104 -73 132 -96 28 -24 78 -64 112 -91 70 -55 84 -77 104 -172 8 -39 29 -105 46 -147 38 -97 54 -208 57 -408 2 -131 5 -164 24 -215 12 -33 31 -87 42 -120 23 -65 70 -158 97 -190 9 -11 32 -42 50 -70 52 -77 142 -165 296 -290 155 -126 224 -193 280 -274 39 -57 115 -202 115 -221 0 -21 103 -120 170 -164 78 -52 123 -102 165 -183 35 -67 61 -108 91 -143 12 -14 31 -52 42 -85 16 -49 68 -161 123 -267 5 -10 9 -24 9 -31 0 -7 10 -33 22 -58 l22 -44 -3 -254 -2 -254 -38 -61 c-51 -85 -65 -140 -57 -229 16 -188 18 -290 7 -345 -7 -31 -15 -67 -17 -80 -3 -13 -30 -50 -60 -83 -67 -73 -82 -107 -94 -210 -5 -44 -12 -84 -15 -89 -3 -5 -32 4 -64 20 -75 39 -161 40 -332 5 -141 -29 -189 -49 -259 -112 -63 -56 -88 -106 -102 -203 -6 -41 -14 -79 -18 -85 -19 -27 -32 -110 -27 -170 7 -71 34 -124 86 -168 47 -39 156 -88 215 -96 73 -10 194 -5 239 10 23 8 41 9 46 3 5 -5 15 -54 21 -109 6 -55 15 -118 20 -140 5 -22 14 -66 20 -98 l12 -59 -25 -26 c-32 -35 -65 -98 -73 -140 -7 -38 10 -129 34 -179 14 -29 14 -42 3 -100 -8 -38 -20 -80 -27 -95 -23 -44 -17 -109 16 -184 40 -90 45 -101 60 -149 26 -80 52 -108 117 -128 32 -9 66 -17 73 -17 17 1 50 23 50 34 0 4 19 30 42 57 47 56 59 58 129 13 54 -34 109 -91 151 -155 126 -197 198 -323 198 -347 0 -5 -17 -21 -38 -37 -121 -91 -105 -264 37 -418 39 -42 82 -67 151 -86 90 -26 127 -49 191 -122 127 -144 195 -212 282 -281 87 -69 96 -81 77 -93 -6 -4 -23 -32 -39 -64 l-29 -57 23 -60 c27 -67 61 -100 150 -147 l60 -32 41 -118 c27 -78 43 -143 47 -191 6 -89 31 -141 95 -203 57 -54 126 -88 211 -103 l64 -11 114 -102 c243 -218 305 -266 416 -323 59 -30 136 -74 170 -98 34 -23 84 -51 111 -61 60 -22 96 -58 96 -95 0 -15 8 -34 18 -42 38 -35 288 -151 402 -188 82 -26 145 -62 230 -132 31 -24 93 -64 139 -88 45 -24 90 -54 98 -67 13 -20 16 -49 14 -148 -2 -106 0 -128 18 -162 24 -49 83 -103 136 -125 22 -9 61 -26 87 -37 43 -18 50 -25 84 -98 20 -43 45 -96 55 -118 11 -22 30 -55 43 -73 16 -21 27 -54 31 -90 7 -54 41 -140 70 -172 7 -8 18 -33 24 -55 18 -65 61 -117 121 -147 l55 -28 145 0 146 0 107 -91 c59 -51 107 -97 107 -103 0 -7 -20 -28 -44 -48 -129 -109 -93 -251 94 -372 77 -50 113 -66 144 -66 37 0 50 -23 26 -45 -75 -68 -33 -250 78 -332 20 -15 60 -52 89 -81 30 -31 74 -62 105 -75 51 -22 76 -30 178 -57 53 -14 147 -67 210 -119 65 -54 106 -76 190 -106 121 -42 170 -66 250 -121 69 -48 147 -84 225 -103 49 -13 255 -118 299 -154 70 -57 154 -107 244 -149 117 -53 121 -55 165 -68 80 -25 233 -104 296 -153 134 -105 168 -123 314 -172 119 -40 370 -142 442 -180 107 -57 163 -84 250 -120 144 -60 209 -114 261 -215 16 -30 74 -107 130 -170 108 -123 230 -220 354 -283 63 -32 215 -78 369 -111 94 -21 134 -39 196 -92 50 -42 157 -94 195 -94 11 0 39 -4 62 -10 24 -5 72 -17 107 -25 41 -9 88 -30 130 -58 61 -40 106 -58 218 -87 23 -6 64 -28 91 -49 27 -22 72 -51 100 -65 49 -25 102 -84 102 -114 0 -23 51 -105 93 -149 23 -24 68 -54 108 -73 49 -22 82 -46 114 -83 25 -28 45 -55 45 -59 0 -13 228 -177 334 -239 92 -54 130 -85 240 -194 l131 -131 80 -23 c113 -32 135 -41 175 -71 19 -15 60 -41 90 -59 30 -17 82 -52 115 -76 33 -25 87 -62 120 -82 l60 -38 176 -7 c206 -8 303 -25 396 -72 38 -19 97 -43 133 -55 92 -29 243 -80 325 -109 39 -14 120 -40 180 -58 61 -18 130 -40 155 -49 69 -25 263 -117 283 -134 9 -8 39 -28 66 -45 117 -75 137 -95 151 -149 35 -139 91 -184 275 -220 155 -31 199 -37 259 -37 66 0 82 -7 178 -81 81 -63 177 -131 202 -145 12 -6 68 -39 126 -74 58 -35 125 -74 150 -87 44 -24 84 -60 92 -83 1 -5 44 -24 93 -41 49 -17 139 -56 200 -86 164 -82 249 -108 407 -128 52 -7 171 -83 209 -135 34 -45 120 -101 269 -174 74 -36 162 -88 196 -115 96 -78 190 -111 317 -111 34 0 94 -7 132 -15 130 -29 180 -37 265 -45 47 -4 148 -18 225 -29 77 -12 156 -24 175 -26 54 -8 141 -26 180 -37 55 -16 196 -86 243 -121 69 -53 177 -113 252 -142 117 -45 136 -57 204 -139 36 -43 92 -107 123 -141 65 -72 90 -117 108 -195 14 -62 27 -90 70 -153 32 -48 55 -69 176 -164 44 -33 88 -71 99 -83 22 -24 106 -70 129 -70 16 0 106 -101 151 -170 17 -25 74 -91 128 -147 79 -81 115 -110 175 -141 89 -46 119 -55 222 -72 198 -31 327 -77 395 -139 27 -26 82 -73 122 -105 46 -37 82 -76 101 -109 52 -92 181 -255 231 -292 27 -19 86 -76 132 -126 46 -50 94 -95 109 -101 33 -13 103 -31 220 -56 175 -38 201 -42 273 -42 135 -1 291 -37 377 -89 56 -33 154 -74 243 -102 50 -15 82 -32 114 -62 50 -46 185 -141 335 -236 77 -49 107 -75 152 -133 31 -40 83 -104 115 -143 33 -38 90 -115 128 -170 105 -155 123 -191 159 -320 38 -135 40 -164 15 -229 -26 -69 -26 -103 -4 -229 l17 -98 -18 -57 c-10 -31 -22 -67 -27 -80 -5 -13 -9 -34 -9 -47 0 -13 -4 -34 -9 -47 -5 -13 -14 -41 -20 -63 -8 -31 -28 -55 -91 -110 -44 -38 -80 -75 -80 -81 0 -16 126 -127 167 -148 18 -9 40 -16 49 -16 9 0 58 -18 108 -40 80 -35 105 -41 204 -49 104 -8 115 -11 146 -39 41 -36 140 -84 256 -125 129 -45 268 -102 293 -119 25 -18 41 -46 81 -141 19 -46 226 -262 277 -287 19 -10 63 -23 97 -30 39 -7 80 -23 113 -45 28 -18 110 -59 182 -90 104 -44 151 -71 221 -126 49 -39 108 -80 130 -91 61 -30 126 -86 142 -122 7 -17 20 -56 29 -86 9 -32 32 -76 55 -105 22 -27 64 -82 94 -121 29 -39 83 -93 118 -120 36 -27 100 -76 144 -110 95 -72 130 -91 302 -159 124 -50 166 -74 300 -177 24 -18 67 -64 96 -103 60 -80 132 -149 197 -190 123 -79 212 -141 284 -199 44 -36 125 -90 180 -120 69 -38 134 -84 206 -149 106 -94 210 -177 223 -177 23 0 145 -92 204 -155 l71 -75 60 0 61 0 55 52 c88 83 138 108 218 108 57 0 74 -4 100 -24 73 -54 108 -64 342 -92 80 -10 205 -15 323 -15 l192 1 49 25 c48 24 111 88 111 111 0 7 20 24 44 38 24 14 62 48 85 75 61 73 106 91 227 91 204 0 364 58 466 170 70 77 89 104 117 170 50 118 63 144 92 179 181 222 194 243 272 411 14 30 53 87 87 125 93 106 145 178 185 258 20 39 50 89 66 109 16 20 29 40 29 43 0 4 15 25 34 47 51 59 86 137 86 191 0 63 -23 116 -92 216 -48 69 -58 92 -58 125 0 23 -9 58 -20 79 -26 49 -25 58 10 114 23 36 30 58 30 99 0 96 -49 176 -194 316 l-101 97 23 43 c12 24 30 55 40 69 9 15 33 51 53 80 19 30 44 71 55 92 36 72 37 72 214 28 80 -20 232 -41 294 -41 183 1 276 56 376 220 49 80 125 155 210 207 41 25 105 67 142 94 74 53 127 79 167 79 37 1 119 24 133 38 8 8 5 20 -15 50 -15 21 -27 44 -27 50 0 7 20 38 45 70 25 31 45 64 45 72 0 9 4 20 9 25 19 20 31 186 31 413 l0 234 -56 61 c-100 111 -283 265 -369 310 -91 48 -248 174 -271 219 -15 28 -14 33 3 67 44 88 220 275 318 339 39 25 90 62 115 82 62 50 107 74 165 89 27 7 104 34 170 61 66 27 149 59 185 71 158 53 221 103 259 204 24 64 26 92 9 148 l-12 40 43 36 c24 20 78 70 120 112 46 45 102 89 141 110 96 51 173 127 214 212 19 40 38 84 41 98 4 14 31 58 61 98 30 40 54 76 54 80 0 13 74 78 136 120 34 23 80 60 103 84 42 44 91 133 91 168 0 25 26 123 39 148 12 22 83 51 186 76 39 9 95 22 126 30 31 7 89 27 130 45 40 18 101 40 134 50 108 31 152 59 300 193 101 92 133 204 80 287 -14 22 -36 47 -50 56 -21 14 -25 24 -25 64 0 26 4 71 10 100 12 66 1 119 -50 225 -21 44 -48 102 -59 128 l-22 49 34 31 c55 54 117 151 117 187 0 6 26 39 59 73 32 34 63 72 70 84 9 18 77 43 369 138 479 156 455 145 457 215 1 19 5 94 10 166 l8 130 -44 26 c-24 14 -91 50 -149 79 -86 44 -119 67 -185 134 -108 107 -136 142 -161 195 -40 87 -115 128 -204 112 -52 -10 -73 -7 -165 21 -27 8 -84 20 -125 26 -41 7 -95 18 -119 27 -78 27 -189 3 -272 -59 -23 -17 -32 -18 -60 -8 -17 6 -56 11 -86 11 l-54 0 -56 53 c-130 122 -230 266 -274 395 -17 48 -34 96 -39 107 -5 11 -29 81 -54 155 -25 74 -68 200 -96 280 -54 153 -80 230 -155 450 -25 74 -50 144 -55 155 -4 11 -11 29 -13 40 -3 11 -28 85 -57 165 -47 133 -128 369 -200 580 -16 47 -52 150 -80 230 -28 80 -55 159 -59 175 -5 17 -18 54 -30 83 -11 29 -21 62 -21 73 0 28 248 357 301 398 50 40 57 49 81 109 15 36 16 52 7 110 -24 146 -26 133 30 181 75 63 111 139 111 234 0 86 8 96 120 147 26 12 99 72 195 160 33 31 92 77 131 103 39 26 92 72 119 103 49 57 151 139 193 155 40 16 110 73 137 114 23 35 26 48 23 105 -5 89 -41 163 -117 239 -33 33 -72 78 -85 100 -60 94 -195 212 -309 269 -128 64 -294 183 -331 238 -36 54 -157 236 -191 289 -18 28 -62 82 -97 122 -34 40 -74 93 -87 118 l-24 45 55 58 c93 97 104 133 112 362 9 245 15 277 56 312 28 23 179 79 315 117 22 6 63 17 91 25 74 20 127 50 162 91 35 40 36 43 22 147 -5 40 -14 132 -20 205 -11 122 -10 135 7 175 35 79 46 135 41 214 -6 87 -18 75 125 120 114 35 170 71 198 125 22 44 22 48 2 181 -5 34 -2 38 38 63 23 15 63 47 88 70 39 36 59 46 126 63 102 24 135 42 182 95 75 84 123 127 150 133 16 3 78 40 138 80 136 92 134 90 170 138 25 33 29 47 29 105 0 57 -6 78 -43 154 l-42 88 35 39 c43 47 46 59 49 179 l2 93 105 39 c58 22 150 51 205 65 112 29 111 28 216 78 86 42 140 93 158 151 7 23 13 108 14 195 2 181 -2 200 -82 343 l-54 98 16 35 c36 75 15 173 -56 254 -39 45 -202 177 -247 200 -34 17 -80 69 -80 89 0 5 -17 45 -39 88 l-39 78 -4 145 c-4 129 -7 151 -30 201 -14 31 -42 74 -62 96 -20 22 -36 45 -36 50 0 6 10 32 21 58 18 42 20 59 15 124 -4 42 -11 92 -16 111 -5 19 -14 62 -20 95 -28 146 -67 202 -223 320 -166 125 -171 129 -164 149 4 9 24 24 44 32 115 46 142 65 187 129 26 35 46 69 46 75 0 7 44 58 98 114 54 55 108 117 120 137 40 67 54 158 50 340 l-3 166 26 39 c66 98 111 325 114 578 2 99 6 224 10 277 8 110 -7 207 -50 311 -54 130 -77 422 -43 538 9 30 21 81 26 112 6 32 25 87 42 124 41 85 48 154 24 230 -24 78 -56 127 -134 201 l-65 61 28 79 c15 43 40 131 57 196 42 163 48 176 121 234 64 51 98 88 154 172 17 25 53 59 81 77 61 39 102 79 154 149 45 61 97 108 150 135 21 11 41 24 45 30 10 15 51 12 66 -6 10 -12 23 -14 62 -9 53 8 184 56 227 84 14 9 38 23 53 31 16 8 43 32 60 53 18 21 49 55 69 76 88 88 98 107 98 187 0 119 -48 221 -117 250 -18 8 -33 18 -33 23 0 5 30 46 68 92 37 46 80 103 96 126 40 60 105 117 159 141 26 11 67 42 92 67 l45 47 0 61 c-1 39 -6 69 -15 81 -8 11 -15 27 -15 35 0 8 -8 33 -18 55 -11 23 -28 64 -39 91 -12 28 -42 100 -68 160 -26 61 -53 124 -60 140 -35 84 -72 168 -105 240 -51 109 -85 184 -131 287 -21 48 -42 95 -48 105 -5 10 -21 43 -35 74 -105 234 -487 998 -658 1319 -19 36 -57 106 -83 155 -105 199 -129 243 -166 307 -22 36 -39 69 -39 71 0 3 -26 52 -58 109 -58 101 -100 177 -150 268 -51 93 -528 922 -627 1090 -57 96 -132 224 -167 283 -35 60 -71 121 -80 135 -10 15 -21 34 -25 42 -4 8 -25 44 -47 81 -60 95 -189 308 -321 529 -78 130 -249 412 -300 495 -22 36 -76 124 -120 197 -44 72 -90 147 -102 167 -12 20 -38 63 -58 96 -20 33 -56 92 -80 130 -24 39 -69 113 -100 165 -31 52 -85 142 -121 200 -35 58 -67 112 -71 120 -4 8 -44 76 -89 150 -96 159 -436 754 -471 823 -31 61 -50 69 -77 33 -12 -15 -37 -45 -56 -67 l-35 -40 -60 17 c-153 42 -164 41 -235 -6 -28 -19 -58 -30 -80 -30 -35 0 -122 -29 -160 -52 -14 -9 -24 -10 -34 -3 -49 35 -149 128 -200 184 -33 36 -78 78 -101 94 -38 25 -47 27 -101 21 -48 -6 -64 -13 -87 -38 -24 -25 -31 -28 -45 -18 -89 65 -141 75 -211 43 -26 -13 -51 -32 -56 -43 -19 -41 -36 -42 -104 -4 -79 45 -152 56 -211 32 -22 -9 -57 -16 -78 -16 -28 0 -68 -17 -157 -68 -142 -80 -254 -152 -312 -198 -23 -19 -45 -34 -49 -34 -14 0 -116 -52 -170 -86 -47 -30 -61 -34 -121 -34 -60 0 -72 -3 -103 -29 -19 -15 -53 -37 -75 -49 -22 -11 -62 -43 -90 -71 -29 -30 -58 -51 -71 -51 -12 0 -39 -6 -60 -14 -22 -7 -64 -16 -95 -20 -37 -5 -73 -18 -110 -41 -107 -68 -99 -65 -190 -55 -148 17 -170 15 -223 -27 l-46 -36 -53 36 c-30 21 -57 37 -61 37 -16 0 -144 89 -197 138 -31 28 -89 70 -130 93 -95 53 -106 63 -135 126 -16 33 -37 60 -60 73 -19 12 -44 41 -56 64 -11 22 -62 82 -113 131 -96 95 -169 135 -243 135 -77 0 -147 -60 -200 -172 -17 -35 -42 -74 -56 -87 -22 -21 -28 -22 -42 -10 -12 10 -14 23 -9 54 6 40 16 785 35 2540 16 1508 29 2495 36 2777 l7 268 36 32 c20 18 61 44 91 57 233 102 264 128 309 261 12 36 31 81 41 100 51 94 60 122 60 190 0 75 -11 107 -55 164 -71 91 -110 132 -151 158 -62 39 -82 76 -76 139 5 53 -6 86 -42 126 l-19 23 18 20 c10 11 42 36 72 56 64 43 93 93 93 163 0 43 4 53 27 68 52 35 93 85 124 151 18 37 40 83 50 103 11 20 19 44 19 54 0 15 31 99 50 136 10 19 -4 42 -85 137 -54 63 -95 90 -95 62 0 -6 -13 -18 -29 -28 -34 -21 -95 -21 -185 -2 -149 31 -315 -78 -431 -285 -51 -90 -57 -96 -153 -142 -68 -32 -113 -62 -156 -103 -60 -57 -111 -90 -139 -90 -8 0 -45 -17 -83 -37 -49 -27 -102 -71 -184 -154 -64 -64 -141 -130 -173 -150 -44 -25 -68 -48 -94 -91 -33 -54 -38 -58 -89 -68 -89 -19 -184 -73 -240 -135 -86 -98 -198 -209 -242 -239 -29 -21 -52 -50 -75 -95 -19 -36 -38 -75 -44 -86 -6 -11 -21 -45 -34 -75 -13 -30 -34 -67 -48 -82 -23 -26 -30 -28 -110 -28 -82 0 -153 -14 -203 -41 -13 -7 -67 -52 -121 -101 -53 -48 -100 -88 -105 -88 -163 -9 -264 -71 -324 -199 -30 -66 -79 -138 -133 -196 -27 -29 -39 -33 -120 -45 -113 -15 -180 -41 -257 -97 -51 -38 -65 -55 -94 -119 -48 -102 -64 -102 -171 6 l-79 80 -70 0 c-38 0 -74 -4 -79 -8 -19 -14 -65 -92 -65 -111 0 -10 -6 -24 -14 -30 -10 -8 -505 -10 -1867 -9 l-1854 3 -6 58 c-7 61 -18 79 -89 144 l-35 31 79 79 c120 120 128 176 41 289 -33 44 -35 51 -35 124 l0 77 -40 41 c-26 26 -40 50 -40 67 0 32 -41 114 -79 157 -45 52 -110 79 -219 92 -106 13 -174 45 -187 87 -8 24 -12 20 119 132 25 21 54 58 66 82 18 37 19 49 10 91 -6 27 -24 73 -41 101 -16 29 -29 59 -29 66 0 24 -60 95 -111 133 l-51 37 6 42 c10 61 -7 117 -47 167 -19 24 -38 57 -42 75 -3 17 -19 50 -35 72 -34 46 -129 111 -163 111 -23 0 -77 47 -77 66 0 18 -61 84 -93 101 -18 9 -68 27 -112 39 -44 12 -125 38 -180 58 -143 53 -259 49 -326 -10 -14 -12 -20 -12 -47 2 -52 25 -132 29 -192 9 l-54 -18 -35 40 c-51 56 -58 60 -168 98 -83 29 -103 41 -132 76 -42 50 -105 79 -175 79 -61 0 -148 -24 -166 -45 -7 -8 -24 -15 -39 -15 -34 1 -126 51 -126 70 0 8 18 26 40 41 22 15 40 36 40 46 l0 18 -1159 2 c-637 1 -1161 4 -1163 6 -2 3 18 20 45 40 27 19 73 65 103 103 30 37 115 129 189 204 116 117 146 141 210 172 41 20 87 49 102 65 37 39 58 103 58 178 0 58 3 67 38 112 21 26 52 71 70 98 49 75 70 97 157 157 90 63 131 109 178 200 80 154 73 292 -21 443 -79 127 -82 135 -82 255 0 106 -2 116 -36 195 -47 110 -83 146 -160 163 -139 32 -249 80 -298 131 -15 16 -33 57 -46 106 -24 84 -62 170 -110 245 -16 25 -48 83 -71 130 -82 167 -235 425 -276 466 -62 64 -178 114 -264 114 -33 0 -163 33 -224 56 -49 19 -201 109 -234 138 -30 27 -71 91 -83 130 -34 111 -40 154 -47 376 -9 248 -17 297 -63 362 -117 169 -210 268 -288 307 -57 29 -209 91 -289 118 -25 8 -88 35 -139 59 l-92 45 -40 84 c-23 48 -40 100 -40 119 0 19 -4 57 -9 83 -5 26 -15 89 -21 138 -7 50 -17 105 -22 124 -12 38 -67 96 -186 194 -45 38 -90 80 -99 93 -15 23 -15 28 0 60 21 44 22 128 2 185 -9 24 -34 83 -56 131 -34 75 -41 102 -48 185 -9 112 -36 187 -96 273 -89 127 -180 212 -280 262 -55 28 -188 72 -249 83 -40 7 -96 54 -96 80 0 7 -9 24 -21 39 -11 14 -18 30 -15 35 4 5 37 12 74 16 88 9 211 39 259 64 62 32 114 92 120 141 13 93 -41 308 -99 398 -57 88 -329 361 -393 394 -27 14 -133 54 -235 88 -288 97 -289 98 -478 284 -226 223 -341 364 -342 418 0 40 12 64 88 173 79 113 102 185 102 324 0 128 -17 196 -81 325 -28 58 -45 104 -40 109 5 5 32 -5 64 -23 78 -44 154 -70 203 -70 23 0 75 11 116 26 200 69 329 94 490 94 261 0 410 58 474 183 36 70 41 134 16 204 -11 32 -30 99 -42 148 -28 115 -79 277 -91 289 -5 6 -9 16 -9 24 0 22 -95 180 -146 242 -68 84 -97 128 -144 215 -113 210 -112 207 -93 333 12 77 25 102 52 102 38 0 119 50 164 100 l48 54 -5 95 c-4 53 -6 119 -5 146 0 28 1 111 2 187 l2 136 60 64 c33 36 84 94 113 131 49 60 65 72 183 133 210 108 312 184 380 285 9 13 56 51 105 84 49 33 127 95 173 138 92 85 193 150 256 166 111 27 174 52 334 133 184 94 240 129 281 173 31 34 102 84 155 109 35 17 70 21 270 25 l230 6 56 26 c35 17 90 59 150 116 52 49 110 96 129 103 37 15 184 156 201 193 5 12 25 44 44 71 67 97 101 215 112 385 4 68 1 102 -15 161 -22 79 -57 183 -73 212 -12 22 -27 94 -39 183 -5 39 -13 102 -18 140 -11 79 -31 133 -98 266 -80 160 -138 225 -291 328 -51 34 -103 75 -117 91 -24 29 -43 98 -66 241 -19 121 -15 138 51 235 14 22 48 80 74 129 73 135 77 141 156 214 93 86 160 178 246 340 25 47 57 103 70 125 44 69 150 163 251 222 135 79 223 137 250 167 13 13 36 57 52 96 16 39 56 113 90 163 75 114 120 206 127 259 4 29 14 46 40 67 95 76 134 118 159 170 l26 56 -6 115 c-3 64 -9 152 -12 196 -6 76 -4 84 24 140 49 97 72 181 72 259 0 73 -20 157 -43 185 -30 35 -57 94 -57 122 0 38 17 72 92 182 94 139 101 160 108 321 l5 139 67 36 c82 44 128 98 128 150 0 20 -9 65 -20 99 -13 42 -20 92 -20 147 0 144 -29 248 -95 341 -49 69 -51 63 29 109 27 15 76 52 109 82 l59 55 47 -5 c25 -4 84 -11 131 -17 122 -16 162 -8 213 43 23 23 51 55 63 72 17 24 24 27 35 18 29 -23 165 -56 234 -57 69 -1 104 5 281 49 219 55 298 145 275 310 -6 39 -7 73 -3 77 4 3 69 34 144 67 289 127 376 181 503 311 97 99 125 118 240 160 107 39 146 65 181 126 l27 45 -8 128 -7 128 25 20 c14 11 51 25 84 33 32 7 63 17 68 20 27 19 151 50 240 60 96 11 208 40 250 65 11 7 49 28 85 47 36 19 121 68 189 108 l125 73 81 8 c123 11 188 50 225 135 16 37 25 43 98 72 45 18 86 32 92 32 6 0 33 22 60 49 l49 49 3 64 3 63 45 5 c43 5 117 37 150 65 8 7 43 27 77 44 34 18 79 46 101 64 21 18 65 41 97 52 59 20 113 64 140 115 19 34 169 180 187 180 7 0 24 -7 37 -16 28 -20 115 -44 159 -44 82 0 138 28 224 111 45 43 87 79 93 79 5 0 33 -11 60 -25 28 -13 66 -25 86 -25 53 0 158 37 213 77 l49 35 19 -23 c10 -13 22 -40 28 -59 25 -87 103 -154 200 -173 100 -19 123 -19 181 -2 66 20 96 44 111 87 8 23 26 37 82 63 39 19 83 42 98 52 l27 17 29 -27 c25 -24 34 -27 86 -23 63 5 82 15 143 73 55 51 111 94 149 113 17 9 53 35 80 57 62 52 111 72 182 74 47 2 58 -1 71 -20 87 -122 173 -197 241 -206 67 -9 103 10 189 101 40 43 78 74 89 74 45 0 126 36 160 69 55 57 79 139 53 181 -6 8 -7 18 -5 22 3 5 51 -37 106 -92 56 -55 112 -103 125 -106 15 -4 63 6 123 26 99 32 136 58 176 126 11 18 15 17 55 -23 53 -50 157 -123 176 -123 19 0 123 67 123 79 0 5 16 19 35 31 20 12 42 35 50 51 20 37 44 37 80 -1 33 -35 68 -38 154 -15 39 10 66 26 97 56 l42 41 34 -24 c133 -97 307 -45 513 152 39 37 106 95 150 128 124 93 220 203 259 296 10 25 16 70 17 130 0 50 6 105 12 123 18 49 203 243 232 243 13 0 26 -4 29 -9 3 -5 43 -24 88 -42 147 -59 262 -40 343 58 22 26 44 66 50 92 13 48 31 64 41 34 14 -46 61 -132 93 -172 42 -52 137 -101 194 -101 71 0 156 56 208 138 26 40 37 40 54 -1 16 -39 36 -58 92 -86 35 -17 53 -20 100 -15 84 9 234 89 331 176 42 37 80 68 85 68 5 0 27 -13 51 -29 55 -38 118 -55 178 -47 66 9 123 -9 171 -53 l40 -38 14 -113 c21 -179 32 -196 285 -447 117 -116 227 -223 243 -236 81 -65 150 -79 232 -47 88 35 150 93 212 199 61 104 76 111 118 52 97 -134 225 -274 288 -313 86 -53 157 -58 332 -23 102 21 229 81 255 121 4 6 16 22 27 35 l19 24 31 -29 c17 -16 33 -27 35 -25 3 3 10 79 16 169 6 91 15 183 20 205 15 61 12 94 -10 122 -11 14 -20 39 -20 55 0 46 -28 94 -94 163 -34 35 -72 82 -86 105 -47 78 -179 239 -230 279 -27 22 -76 55 -108 75 -38 23 -77 60 -119 113 -60 76 -212 230 -285 289 -49 39 -68 95 -68 198 0 72 -4 87 -33 142 -82 151 -147 242 -248 348 -58 61 -118 133 -133 159 -18 32 -52 66 -104 105 -42 31 -129 109 -192 173 -128 128 -211 199 -270 229 -34 18 -59 20 -197 20 l-158 0 -85 -39 c-47 -22 -117 -52 -157 -67 -43 -16 -99 -48 -140 -80 -37 -30 -99 -71 -138 -93 -38 -22 -83 -48 -100 -58 -66 -41 -68 -42 -93 -32 -13 5 -58 36 -99 69 -41 33 -79 60 -85 60 -5 0 -22 9 -37 19 -15 11 -58 29 -96 41 -39 12 -79 26 -90 32 -59 34 -97 47 -145 51 -33 3 -62 13 -79 26 -14 12 -50 33 -79 47 -35 17 -50 30 -45 38 5 6 78 118 164 246 86 129 191 289 234 355 114 176 309 474 483 737 83 127 152 232 152 234 0 2 17 29 39 61 51 76 312 474 386 588 32 50 113 173 180 275 67 102 157 239 200 305 114 177 309 475 483 737 83 127 152 232 152 234 0 2 17 29 39 61 50 75 311 472 386 588 32 50 119 182 193 295 74 113 149 228 167 255 18 28 76 117 129 198 81 121 96 150 86 162 -7 8 -20 15 -29 15 -9 0 -31 9 -48 20 -29 17 -33 25 -33 64 0 39 -6 53 -51 106 -27 33 -68 72 -89 86 -84 56 -188 38 -285 -49 -35 -31 -59 -46 -67 -41 -7 4 -32 29 -54 54 -49 53 -185 160 -205 160 -36 0 -91 23 -105 45 -14 21 -14 28 0 76 22 72 20 127 -5 174 -44 84 -153 173 -251 205 -46 15 -52 21 -72 68 -27 65 -163 220 -230 264 -45 29 -57 32 -125 33 -88 0 -113 -11 -272 -118 -107 -73 -138 -80 -149 -37 -11 40 -66 115 -107 145 -21 16 -57 45 -80 66 -43 40 -121 69 -181 69 -24 0 -46 10 -76 35 -79 65 -178 80 -256 40 -60 -31 -130 -134 -130 -191 0 -6 -6 -17 -14 -23 -21 -18 -36 14 -25 53 14 48 11 90 -11 140 -41 96 -97 145 -173 151 l-42 3 -6 49 c-9 74 -35 118 -103 177 -91 79 -121 93 -206 101 -41 4 -83 12 -93 17 -9 5 -32 34 -49 66 -42 73 -88 118 -174 170 -120 73 -175 95 -244 101 l-64 6 -7 33 c-13 65 -114 177 -188 208 -47 20 -131 18 -183 -5 -24 -10 -65 -39 -91 -65 -26 -25 -51 -46 -54 -46 -4 0 -21 13 -38 29 -16 16 -55 42 -85 58 -45 23 -68 28 -125 28 -59 -1 -79 -6 -130 -33 -82 -43 -109 -69 -134 -127 -26 -58 -22 -86 18 -161 3 -6 21 -31 39 -54 59 -79 21 -106 -57 -41 -84 71 -191 90 -327 58 -87 -21 -136 -57 -188 -141 -42 -66 -125 -145 -173 -163 -10 -4 -40 -19 -66 -35 -57 -33 -61 -34 -95 -10 -15 10 -51 24 -80 30 -46 10 -60 9 -119 -10 l-66 -22 -11 18 c-53 90 -139 127 -221 96 -15 -6 -77 -58 -138 -115 -61 -58 -118 -104 -127 -103 -10 2 -17 19 -20 53 -8 67 -26 98 -109 179 -57 56 -71 77 -77 110 -13 82 -63 144 -150 189 -25 13 -39 14 -70 6 -59 -16 -127 -36 -146 -44 -12 -5 -21 3 -34 31 -24 50 -117 149 -169 179 -79 47 -156 49 -347 9 -23 -5 -28 -1 -44 31 -18 38 -156 161 -259 231 -59 40 -111 45 -168 14 -43 -23 -57 -19 -57 15 0 30 -49 103 -97 145 -46 41 -91 60 -140 60 -43 0 -157 -39 -217 -74 -65 -38 -116 -119 -116 -183 0 -33 -6 -43 -48 -78 -75 -65 -118 -95 -133 -95 -28 0 -154 -68 -180 -96 -25 -28 -59 -94 -94 -181 -10 -23 -28 -51 -41 -62 -13 -11 -35 -38 -50 -60 -14 -22 -46 -52 -70 -66 -55 -32 -85 -88 -95 -172 -5 -48 -13 -70 -38 -102 -18 -23 -41 -41 -52 -41 -11 0 -55 20 -98 44 -148 84 -235 101 -375 71 -157 -32 -326 -156 -380 -278 -12 -28 -30 -58 -39 -66 -9 -7 -31 -37 -48 -67 -16 -29 -34 -56 -39 -59 -5 -3 -48 24 -95 60 l-86 65 -70 0 c-83 0 -121 -17 -206 -91 -32 -28 -85 -70 -118 -93 l-60 -41 -173 -3 -172 -3 -77 48 c-49 31 -90 67 -116 101 -75 100 -164 141 -320 149 -109 6 -158 -6 -222 -57 -56 -45 -135 -70 -216 -70 -63 0 -72 3 -92 26 -167 194 -308 268 -420 220 -61 -26 -107 -93 -127 -186 -12 -55 -85 -190 -107 -197 -6 -2 -25 15 -41 39 -60 88 -204 132 -275 85 -37 -24 -46 -22 -87 17 -76 74 -170 97 -243 60 -50 -26 -165 -114 -260 -202 -66 -60 -102 -85 -148 -101 -85 -32 -103 -27 -109 29 -8 64 -48 137 -98 179 -24 20 -62 63 -84 95 -55 79 -124 144 -167 156 -20 6 -61 26 -91 45 -59 38 -103 44 -149 20 -32 -16 -43 -10 -56 35 -4 14 -24 42 -44 63 -43 46 -158 117 -188 117 -12 0 -61 -13 -109 -30 -96 -33 -107 -31 -148 23 -20 26 -26 50 -34 137 -6 58 -13 113 -17 122 -11 29 56 46 182 48 44 0 97 48 134 121 16 32 29 64 29 71 0 7 14 57 31 111 25 79 30 109 25 150 -3 29 -10 104 -14 167 -8 114 -14 137 -57 195 -41 54 -65 113 -65 157 0 26 -8 55 -20 73 -38 57 -23 147 36 217 32 39 65 133 66 190 1 44 -4 54 -59 127 -34 44 -64 90 -68 103 -9 27 -61 94 -113 143 l-37 35 0 83 c0 96 -6 108 -94 201 -64 67 -120 98 -240 133 -119 35 -248 34 -335 -3 -79 -34 -142 -56 -240 -85 -61 -18 -90 -34 -128 -68 l-49 -44 -67 71 c-37 38 -85 79 -107 89 -36 18 -168 47 -191 42 -29 -5 -51 11 -150 109 -92 90 -123 115 -196 151 -83 41 -148 96 -148 125 0 7 4 26 9 42 56 178 53 172 135 270 110 129 195 246 196 265 0 8 5 20 11 26 5 5 13 35 16 65 6 63 -14 120 -69 190 -62 80 -286 324 -383 417 l-97 92 12 32 c6 18 13 73 17 122 4 70 2 98 -10 128 -19 43 -97 134 -282 327 -71 74 -143 155 -160 180 -57 84 -111 128 -228 185 -64 32 -140 79 -177 110 -36 30 -87 67 -115 82 -45 24 -61 27 -150 27 -85 1 -106 -2 -142 -21 -38 -21 -103 -97 -103 -122 0 -26 -27 -19 -88 22 -38 25 -89 68 -116 97 l-47 51 20 32 c62 96 84 181 61 239 -42 107 -133 161 -317 188 -93 14 -193 1 -249 -32 -41 -24 -67 -23 -90 3 -10 12 -44 40 -74 62 -78 56 -82 63 -64 100 62 118 -141 354 -345 403 -122 29 -203 6 -306 -87 -36 -32 -69 -59 -73 -59 -24 0 -149 54 -185 80 -87 63 -175 120 -272 175 -96 54 -154 105 -155 133 0 23 -59 123 -100 172 -37 44 -38 48 -24 68 19 27 130 108 203 147 61 33 121 108 121 152 0 40 -49 131 -88 163 -84 67 -134 104 -267 193 -107 72 -153 110 -195 161 -82 100 -87 113 -66 184 14 46 17 84 14 183 -4 144 -22 196 -101 287 -25 28 -49 62 -52 73 -4 12 3 56 15 100 l23 80 -22 22 c-11 13 -21 29 -21 35 0 7 -47 59 -104 115 -130 128 -184 158 -290 161 l-75 2 -73 71 c-40 38 -119 115 -176 169 -57 54 -118 119 -134 144 -100 146 -213 250 -323 299 -79 36 -185 51 -248 36 -29 -7 -64 -18 -79 -25 -22 -11 -30 -11 -43 0 -13 11 -10 18 25 56 22 24 40 46 40 49 0 18 -116 142 -152 163 -72 42 -109 83 -150 172 -22 47 -56 118 -75 158 -64 136 -147 232 -248 285 -54 28 -171 28 -285 0 -172 -43 -196 -46 -229 -35 -59 21 -157 97 -256 200 -93 96 -149 143 -358 296 -43 31 -117 93 -165 138 -90 83 -127 105 -356 204 -49 22 -107 55 -130 75 -49 42 -118 89 -165 112 -44 22 -145 21 -186 -1z m163 -330 c72 -62 99 -77 273 -153 134 -59 149 -68 240 -152 54 -49 111 -98 126 -108 39 -26 149 -106 214 -156 30 -22 104 -92 164 -153 61 -62 142 -133 180 -158 199 -131 253 -137 558 -62 65 16 83 18 102 7 23 -12 68 -70 86 -111 5 -12 13 -28 17 -36 5 -8 18 -35 29 -60 11 -25 30 -66 42 -91 11 -25 21 -49 21 -52 0 -14 61 -95 99 -132 39 -37 41 -43 36 -80 -14 -91 107 -256 233 -317 68 -32 145 -35 222 -8 74 26 114 22 181 -21 43 -27 112 -105 172 -194 14 -22 80 -91 144 -153 65 -63 159 -154 209 -203 107 -104 155 -129 261 -133 l73 -3 54 -47 55 -47 -5 -62 c-5 -45 0 -85 14 -146 21 -85 27 -94 96 -168 36 -39 40 -49 44 -105 2 -35 -2 -90 -8 -123 -21 -102 -23 -135 -10 -199 16 -75 33 -105 131 -226 77 -96 113 -129 200 -185 124 -79 189 -125 189 -135 0 -5 -13 -16 -28 -24 -16 -8 -58 -41 -93 -73 -36 -32 -81 -69 -102 -82 -50 -31 -87 -95 -87 -152 0 -56 33 -107 123 -189 44 -40 76 -81 92 -115 14 -28 25 -56 25 -60 0 -4 16 -32 35 -61 39 -59 128 -136 190 -166 77 -38 190 -107 272 -169 81 -61 168 -102 269 -129 153 -40 226 -23 334 76 68 64 92 67 154 24 54 -37 58 -47 39 -101 -33 -97 3 -173 125 -266 43 -31 105 -83 139 -113 34 -31 85 -69 113 -84 66 -36 110 -32 216 18 54 26 90 36 123 36 26 0 50 -3 54 -6 3 -4 -5 -26 -18 -49 -13 -24 -29 -60 -35 -82 -13 -46 -30 -220 -23 -239 4 -10 24 -14 65 -14 l61 0 66 -63 c37 -34 88 -76 114 -92 27 -17 69 -44 95 -62 186 -128 213 -140 292 -129 93 13 177 107 167 188 -3 21 -1 40 3 43 5 3 33 -16 63 -42 54 -48 206 -137 251 -149 14 -3 46 -35 77 -77 29 -40 114 -135 189 -212 74 -77 153 -162 175 -188 l39 -49 -14 -56 c-19 -78 -17 -167 5 -226 15 -40 49 -80 180 -210 89 -89 201 -205 249 -260 l87 -99 -17 -26 c-10 -14 -56 -70 -103 -125 -95 -109 -151 -184 -151 -204 0 -7 -6 -23 -14 -35 -8 -12 -29 -74 -46 -137 -39 -139 -37 -207 8 -304 44 -94 169 -203 288 -251 28 -12 79 -55 157 -135 122 -126 145 -139 237 -140 102 -1 125 -12 202 -93 157 -163 323 -174 446 -31 36 42 48 49 114 66 40 11 101 32 136 48 34 16 79 30 100 31 79 3 222 -49 222 -82 0 -5 -7 -26 -15 -46 -11 -25 -13 -51 -9 -87 8 -55 17 -67 127 -159 32 -27 67 -67 78 -90 12 -23 35 -59 51 -80 l30 -37 -31 -55 c-46 -81 -62 -137 -70 -244 -8 -107 -7 -116 42 -251 36 -100 68 -169 99 -209 14 -18 18 -42 18 -96 0 -40 5 -86 11 -104 11 -30 4 -62 -32 -158 -8 -21 -60 -43 -104 -43 -36 0 -149 -60 -193 -103 -71 -69 -92 -144 -66 -240 7 -28 14 -79 14 -113 0 -82 33 -207 71 -266 40 -62 122 -136 185 -167 38 -20 65 -25 124 -25 l75 -1 7 -70 c9 -97 22 -133 69 -187 54 -64 118 -85 196 -64 28 8 54 11 57 8 3 -3 6 -3609 6 -8013 l0 -8008 -26 -18 c-75 -53 -81 -61 -88 -119 -9 -75 -41 -169 -77 -222 -16 -24 -29 -46 -29 -49 0 -4 -9 -16 -19 -27 -25 -27 -101 -170 -101 -190 0 -9 -10 -21 -22 -27 -13 -7 -45 -26 -73 -44 -27 -18 -87 -54 -133 -81 -141 -82 -277 -230 -367 -399 -107 -200 -123 -221 -272 -358 -22 -21 -49 -52 -58 -70 -9 -18 -30 -54 -46 -82 -16 -27 -32 -57 -35 -65 -3 -8 -10 -22 -15 -30 -5 -8 -15 -26 -21 -40 -7 -14 -27 -43 -44 -65 -101 -128 -116 -286 -53 -575 36 -168 94 -250 245 -346 143 -91 192 -149 263 -311 22 -52 33 -100 46 -203 17 -144 36 -218 94 -370 30 -80 36 -107 35 -170 0 -95 -18 -171 -56 -238 -51 -90 -105 -150 -161 -178 -29 -15 -94 -68 -149 -120 l-96 -94 -189 2 c-164 1 -198 -1 -265 -20 -135 -37 -190 -69 -346 -203 -62 -54 -348 -193 -469 -228 -129 -38 -232 -97 -351 -203 -51 -46 -114 -97 -140 -115 -121 -82 -176 -129 -226 -192 -60 -75 -114 -111 -308 -207 -99 -50 -122 -66 -190 -137 -43 -45 -78 -85 -78 -89 0 -5 -34 -44 -75 -88 -41 -44 -87 -101 -102 -127 l-28 -48 -3 -150 c-1 -82 -3 -199 -5 -260 l-2 -109 -41 -16 c-63 -23 -129 -83 -159 -144 -19 -39 -32 -94 -47 -192 l-20 -138 17 -68 c18 -74 51 -149 120 -273 25 -44 51 -93 59 -110 9 -16 51 -74 94 -128 116 -143 165 -250 217 -472 14 -57 30 -115 37 -129 8 -18 8 -30 1 -37 -5 -5 -87 -12 -188 -14 -220 -6 -396 -38 -564 -105 l-49 -19 -128 62 c-110 53 -138 62 -195 65 -37 2 -84 -1 -104 -8 -88 -29 -155 -132 -155 -239 0 -57 31 -193 54 -241 7 -14 21 -41 30 -60 37 -72 56 -143 56 -212 0 -79 0 -79 -86 -209 -78 -119 -106 -197 -105 -295 0 -59 6 -83 29 -132 50 -102 150 -231 292 -373 74 -75 166 -168 203 -207 37 -40 82 -79 100 -88 18 -9 39 -22 47 -29 25 -22 207 -95 364 -147 83 -28 166 -60 186 -73 43 -27 242 -234 275 -286 13 -20 26 -56 30 -82 9 -58 0 -63 -137 -76 -58 -6 -130 -19 -160 -31 -62 -23 -143 -96 -165 -147 -30 -72 -8 -163 62 -262 18 -25 36 -57 40 -71 17 -57 99 -151 159 -182 22 -11 92 -35 155 -53 161 -46 184 -58 249 -123 83 -83 111 -135 123 -234 18 -143 46 -240 89 -308 26 -39 30 -63 19 -99 -26 -88 -28 -115 -12 -173 29 -97 113 -197 272 -319 30 -24 35 -34 46 -105 7 -44 15 -110 19 -149 9 -93 40 -193 89 -286 84 -161 141 -199 547 -354 158 -61 201 -98 297 -254 21 -34 22 -48 23 -226 0 -124 5 -216 15 -265 48 -246 113 -365 259 -475 168 -125 308 -187 516 -225 142 -25 156 -31 175 -72 8 -18 19 -40 24 -48 8 -12 85 -146 120 -210 5 -8 26 -50 46 -92 21 -43 53 -101 72 -130 48 -75 81 -148 94 -208 20 -95 56 -160 127 -230 75 -73 150 -116 291 -165 52 -19 98 -39 101 -47 4 -7 10 -67 13 -133 6 -115 23 -190 50 -225 39 -49 46 -77 48 -198 2 -136 2 -137 -74 -189 -94 -62 -132 -102 -210 -215 -45 -65 -95 -137 -111 -159 -31 -44 -45 -92 -46 -151 0 -34 -5 -40 -67 -82 -80 -53 -335 -301 -410 -398 -29 -37 -72 -80 -95 -94 -104 -64 -161 -146 -196 -279 -51 -194 -57 -221 -54 -239 1 -11 4 -21 6 -23 2 -2 284 -5 627 -6 l624 -2 0 -17795 0 -17795 -37 -3 c-73 -6 -357 115 -428 182 -19 19 -53 39 -74 46 -50 16 -107 43 -167 78 -26 15 -89 52 -140 82 -52 30 -132 81 -178 115 -45 33 -93 67 -105 75 -12 8 -48 35 -80 59 -76 57 -139 77 -261 85 -117 7 -235 25 -252 38 -7 5 -19 31 -28 57 -30 92 -73 134 -283 279 -128 88 -345 183 -575 252 -145 43 -195 61 -262 90 -11 4 -85 29 -165 55 -80 26 -161 55 -180 66 -97 53 -289 89 -481 89 l-96 0 -55 37 c-30 21 -72 50 -94 66 -86 61 -231 153 -265 169 -20 10 -65 24 -100 32 -59 14 -68 20 -123 81 -74 83 -229 209 -321 260 -178 100 -200 119 -338 279 -34 39 -105 83 -163 100 -24 7 -68 66 -79 106 -26 87 -102 173 -195 220 -34 17 -85 50 -114 73 -60 49 -82 59 -193 86 -57 14 -95 30 -126 54 -61 47 -159 82 -296 106 l-113 21 -72 54 c-85 65 -156 98 -262 121 -140 31 -294 75 -332 94 -132 69 -309 241 -365 353 -41 86 -81 133 -164 195 -79 59 -116 80 -231 127 -34 15 -124 57 -200 95 -75 38 -168 82 -207 96 -38 15 -95 39 -125 52 -30 14 -104 41 -165 61 -113 36 -192 81 -270 153 -35 32 -107 70 -270 144 -16 7 -79 32 -140 55 -113 44 -158 67 -248 133 -90 67 -155 106 -219 133 -35 14 -68 30 -74 35 -6 5 -55 25 -108 44 -112 41 -131 49 -169 81 -41 34 -200 111 -279 135 -48 15 -90 37 -132 70 -114 89 -247 159 -343 180 -79 17 -92 23 -132 63 l-44 44 33 42 c58 73 61 148 13 265 -26 63 -70 117 -113 140 -14 7 -67 16 -119 20 -105 9 -115 17 -79 65 20 28 23 43 23 118 -1 115 -36 197 -115 263 -29 24 -81 70 -115 101 -139 129 -165 140 -338 146 l-139 4 -15 36 c-8 20 -23 47 -33 59 -10 13 -25 58 -35 101 -20 94 -32 127 -60 161 -22 26 -46 71 -101 186 -60 127 -124 190 -219 217 -67 19 -75 32 -65 113 20 183 -53 296 -267 413 -43 24 -109 68 -148 98 -87 69 -170 111 -305 154 l-104 34 -81 76 c-104 98 -181 154 -259 190 -35 15 -90 46 -122 68 -32 22 -97 59 -144 82 -87 43 -128 75 -362 284 -147 131 -191 157 -290 176 -37 7 -72 18 -78 25 -5 6 -13 34 -16 61 -9 70 -110 371 -142 419 -15 23 -46 56 -69 73 -38 29 -41 35 -33 58 19 49 11 107 -24 180 -27 57 -49 84 -117 144 -102 92 -222 212 -314 315 -92 104 -189 165 -295 189 -14 3 -34 12 -45 20 l-20 15 50 44 c96 85 117 179 60 272 -13 22 -41 74 -61 115 -21 41 -54 98 -73 125 -42 59 -48 68 -97 154 -44 77 -179 221 -249 265 -95 61 -209 96 -307 96 -49 0 -55 15 -32 77 26 67 24 166 -4 220 -12 23 -22 48 -22 54 0 7 16 31 36 55 53 65 62 109 48 224 -7 52 -18 115 -23 140 -6 25 -15 92 -20 150 -12 128 -36 195 -99 269 -85 99 -181 121 -336 76 -43 -12 -70 -15 -104 -8 -62 11 -71 29 -44 91 12 28 22 69 22 91 0 32 5 43 23 52 28 16 188 50 199 43 4 -3 8 -17 8 -32 1 -39 39 -104 84 -143 36 -31 43 -33 110 -33 176 0 269 76 285 232 4 42 16 93 26 112 10 19 21 69 25 112 6 72 10 79 52 130 84 99 104 137 116 218 6 41 16 107 23 147 9 59 8 97 -6 212 l-16 140 25 43 c14 24 36 66 49 93 l24 50 6 289 6 289 -29 86 c-47 140 -70 197 -136 325 -14 27 -29 71 -34 98 -7 36 -24 66 -65 118 -30 38 -55 72 -55 76 0 3 -23 46 -51 95 -56 96 -131 175 -234 244 -58 39 -83 75 -151 215 -25 51 -106 160 -165 224 -39 42 -134 127 -212 190 -217 175 -307 281 -361 421 -15 39 -35 88 -44 110 -13 31 -16 64 -14 148 3 152 -33 422 -66 484 -17 31 -39 101 -57 177 -19 82 -50 146 -99 203 -38 44 -247 212 -344 276 -99 66 -147 124 -165 197 -4 14 -22 48 -41 77 -30 45 -45 75 -101 198 -7 17 -24 74 -36 128 -16 72 -30 108 -52 135 -16 20 -53 73 -82 117 -55 84 -89 119 -168 176 -27 19 -91 72 -143 118 l-94 83 0 73 c0 41 4 85 10 99 10 28 7 34 -89 206 -20 36 -60 112 -90 170 -29 58 -64 125 -78 150 -13 25 -39 72 -56 105 -39 76 -52 94 -163 235 -178 225 -293 324 -434 373 -25 9 -97 34 -159 56 l-115 40 -70 70 c-66 66 -69 72 -57 94 9 18 10 38 2 83 -5 32 -13 95 -16 139 -8 86 -16 105 -76 170 -21 23 -45 58 -53 77 -16 37 -71 98 -127 140 -40 30 -86 46 -194 67 -44 9 -79 19 -79 24 1 4 5 108 9 231 9 279 -5 467 -42 574 -14 40 -30 75 -34 78 -5 3 -9 13 -9 22 0 10 -9 34 -20 55 -11 20 -20 43 -20 50 0 8 -14 35 -32 61 -26 41 -31 57 -29 100 1 31 -4 64 -14 82 -19 38 -19 50 3 66 44 32 92 135 92 197 0 25 -52 125 -105 201 -17 25 -42 81 -54 125 -13 44 -32 107 -41 140 -10 33 -21 76 -24 96 -11 63 -56 75 -77 22 -5 -14 -13 -23 -18 -21 -4 2 -32 32 -62 68 l-54 65 -3 22144 c-1 12180 1 22148 6 22153 6 6 384 137 862 298 80 27 339 115 575 195 237 81 462 157 500 170 39 13 176 59 305 103 129 44 303 104 385 132 83 28 161 58 175 67 27 18 91 64 310 227 141 104 192 142 525 386 86 63 174 129 195 145 35 27 144 107 460 339 147 108 315 232 501 371 82 61 201 148 265 195 64 47 207 153 318 235 112 83 243 179 291 215 64 47 123 105 214 210 69 80 143 165 165 191 23 25 75 85 116 134 41 49 111 129 156 179 44 50 102 118 129 151 26 33 51 62 54 65 7 5 280 319 381 438 101 119 153 179 425 492 149 171 290 335 315 365 98 115 159 186 260 301 58 66 170 196 250 289 80 93 171 198 203 234 69 78 89 114 111 201 9 36 26 99 37 140 11 41 25 89 29 105 5 17 15 55 23 85 9 30 25 91 37 135 19 71 32 119 60 220 28 101 41 149 60 220 19 71 32 119 60 220 28 101 41 149 60 220 24 88 37 136 74 270 13 50 34 126 46 170 24 90 38 139 74 270 13 50 34 126 46 170 12 44 28 105 37 135 8 30 23 87 33 125 17 66 47 173 56 204 3 8 36 -17 90 -68 47 -45 90 -81 96 -81 5 0 24 -7 42 -15 29 -14 38 -13 101 4 39 10 108 32 155 49 51 18 117 33 165 37 114 9 172 30 222 78 50 48 61 87 62 226 1 88 -15 174 -39 206 -18 24 -53 177 -60 265 -8 96 -21 134 -80 225 -25 39 -80 155 -80 169 0 6 -11 28 -25 48 -29 43 -31 65 -9 116 8 20 19 90 24 155 9 111 20 157 39 157 4 0 27 22 50 50 37 44 43 59 55 133 9 54 27 111 52 163 35 73 38 85 37 166 -1 82 -2 89 -34 133 -19 26 -52 58 -75 71 -22 13 -81 68 -131 122 -68 74 -120 118 -205 174 -152 101 -199 126 -241 131 -41 5 -112 47 -212 126 -112 89 -116 94 -109 140 5 33 -1 53 -40 135 -38 79 -45 104 -40 134 3 23 -3 67 -16 117 -12 44 -24 96 -26 115 -29 282 -40 326 -97 383 -46 46 -91 66 -214 97 l-91 23 -62 68 c-93 105 -185 149 -312 149 -88 0 -87 31 2 45 25 4 74 21 110 38 36 17 73 30 83 29 29 -2 135 -79 245 -179 111 -102 155 -127 247 -141 81 -13 162 1 244 42 54 28 71 32 86 23 39 -21 174 -13 260 15 44 15 109 30 145 33 89 10 205 48 264 87 27 18 63 42 80 52 119 75 167 109 190 137 31 37 86 153 86 181 0 31 18 56 58 83 20 13 41 24 45 24 5 1 34 -21 65 -47z m-15437 -16850 c31 -21 55 -49 77 -90 l32 -60 -32 -20 c-61 -37 -75 -37 -94 0 -9 18 -45 62 -79 98 l-64 65 3 70 c2 39 4 72 5 74 0 3 25 -20 54 -51 28 -30 73 -69 98 -86z"/>
</g>
</g>
</svg>
