<?xml version="1.0" standalone="no"?>
<!DOCTYPE svg PUBLIC "-//W3C//DTD SVG 1.1//EN"
 "http://www.w3.org/Graphics/SVG/1.1/DTD/svg11.dtd">
<!-- Created with svg_stack (http://github.com/astraw/svg_stack) -->
<svg xmlns:sodipodi="http://sodipodi.sourceforge.net/DTD/sodipodi-0.dtd" xmlns="http://www.w3.org/2000/svg" version="1.1" width="1204.0" height="1194.0">
  <defs/>
  <g id="id0:id0" transform="matrix(1.25,0,0,1.25,0.0,0.0)"><g transform="translate(0.000000,955.200000) scale(0.040000,-0.040000)" fill="#000000" stroke="none">
<path d="M11880 20709 c-25 -5 -81 -12 -125 -17 l-80 -7 1 -70 c0 -38 8 -128 17 -200 18 -140 45 -355 77 -622 12 -93 24 -194 29 -226 4 -32 5 -60 2 -62 -4 -2 -25 11 -47 28 -78 60 -299 240 -315 256 -10 9 -43 36 -74 61 -31 25 -78 63 -104 84 -25 22 -99 82 -165 135 -65 53 -151 123 -191 156 -306 252 -413 334 -431 330 -10 -2 -31 -6 -45 -9 -36 -8 -41 -25 -28 -104 5 -37 18 -143 29 -237 10 -93 23 -201 29 -240 5 -38 15 -119 21 -180 6 -60 15 -135 20 -165 5 -30 14 -104 20 -165 6 -60 15 -137 20 -170 5 -33 14 -105 20 -160 7 -55 15 -125 20 -155 5 -30 14 -113 21 -183 17 -172 10 -167 205 -141 115 14 148 22 155 36 6 11 2 70 -10 165 -11 81 -29 229 -41 328 -32 275 -60 504 -69 568 -4 32 -5 60 -1 62 10 6 56 -28 256 -186 100 -79 225 -178 278 -219 53 -41 157 -122 230 -180 74 -58 157 -123 186 -145 61 -47 187 -147 285 -225 65 -53 73 -56 113 -52 25 2 46 10 49 18 5 14 -10 156 -42 409 -8 61 -16 133 -19 160 -3 28 -15 124 -26 215 -39 310 -59 475 -80 650 -60 503 -53 470 -107 469 -21 -1 -58 -5 -83 -10z"/>
<path d="M13306 20583 c-28 -102 -35 -127 -41 -158 -3 -16 -12 -52 -19 -80 -8 -27 -23 -93 -36 -145 -43 -187 -62 -266 -75 -315 -8 -27 -17 -63 -20 -80 -3 -16 -10 -46 -15 -65 -68 -250 -74 -291 -75 -460 0 -155 10 -228 36 -265 4 -5 10 -24 13 -42 4 -17 14 -37 22 -44 8 -6 14 -15 14 -20 0 -5 20 -35 45 -68 198 -260 696 -387 1015 -259 146 59 280 196 360 368 45 96 69 178 160 555 22 94 49 204 60 245 10 41 28 118 40 170 11 52 28 119 36 148 8 29 19 74 24 100 5 26 11 57 15 69 8 25 -12 39 -77 53 -24 5 -61 14 -83 20 -22 6 -60 14 -85 19 -25 5 -52 11 -61 15 -22 10 -30 -13 -84 -230 -25 -104 -53 -216 -62 -249 -8 -33 -18 -78 -22 -100 -4 -22 -14 -65 -23 -95 -29 -99 -58 -227 -58 -252 0 -13 -4 -28 -8 -33 -5 -6 -14 -37 -21 -70 -17 -78 -52 -186 -67 -205 -7 -8 -16 -28 -20 -43 -3 -16 -37 -59 -74 -97 -59 -59 -76 -71 -135 -89 -121 -38 -277 -21 -405 44 -83 42 -106 61 -143 118 -53 81 -71 153 -64 261 4 86 12 129 57 306 10 41 28 116 40 165 11 50 25 104 29 120 5 17 15 55 22 85 6 30 20 84 29 120 10 36 27 110 40 165 12 55 31 130 41 167 10 36 19 80 19 96 0 35 -15 43 -150 73 -47 11 -94 22 -105 25 -70 21 -72 20 -89 -43z"/>
<path d="M9036 20084 c-32 -19 -64 -34 -71 -34 -6 0 -20 -9 -30 -20 -10 -11 -26 -20 -36 -20 -10 0 -33 -13 -51 -29 l-33 -30 39 -73 c21 -40 65 -125 98 -188 33 -63 79 -151 103 -195 25 -44 48 -87 52 -95 10 -21 157 -300 208 -396 44 -81 47 -101 16 -85 -9 5 -33 11 -53 15 -20 4 -50 13 -65 21 -15 8 -32 15 -38 15 -13 0 -1344 438 -1370 451 -15 7 -29 6 -50 -5 -17 -9 -36 -16 -43 -16 -7 0 -18 -11 -24 -25 -9 -20 -8 -28 5 -43 10 -10 17 -25 17 -34 0 -8 9 -27 20 -41 11 -14 20 -28 20 -31 0 -4 29 -60 63 -124 61 -112 148 -276 237 -447 22 -44 45 -87 51 -95 5 -8 14 -26 19 -40 6 -14 20 -42 33 -63 29 -49 81 -147 175 -327 41 -80 81 -152 88 -161 8 -8 14 -22 14 -31 0 -8 8 -26 19 -39 10 -13 22 -35 26 -49 4 -14 12 -31 18 -38 14 -17 44 -71 57 -104 12 -28 37 -36 55 -19 6 5 65 37 132 71 139 70 153 82 131 108 -8 9 -20 28 -26 42 -7 14 -29 57 -50 95 -73 136 -171 321 -207 390 -20 39 -40 77 -46 85 -5 8 -14 26 -19 40 -6 14 -21 43 -34 65 -36 60 -130 249 -131 260 0 15 24 9 200 -46 88 -28 192 -60 230 -71 39 -12 81 -24 95 -29 14 -4 72 -22 130 -39 58 -18 127 -41 154 -51 27 -10 55 -19 64 -19 8 0 40 -8 71 -19 56 -19 77 -25 246 -76 50 -15 112 -36 139 -46 27 -11 55 -19 62 -19 7 0 49 -12 93 -26 70 -22 85 -24 116 -14 57 19 60 38 19 116 -65 124 -105 199 -113 214 -5 8 -14 26 -20 40 -6 14 -15 32 -21 40 -5 8 -15 26 -20 40 -6 14 -21 43 -34 65 -13 22 -39 69 -57 105 -19 36 -56 106 -83 155 -26 50 -73 137 -103 195 -30 58 -58 112 -64 120 -5 8 -14 26 -19 40 -6 14 -21 43 -34 65 -13 22 -47 85 -76 140 -28 55 -79 152 -112 215 -80 152 -97 180 -111 179 -7 0 -38 -16 -71 -35z"/>
<path d="M16499 19397 c-15 -12 -57 -40 -94 -62 -37 -22 -96 -59 -132 -82 -35 -24 -68 -43 -72 -43 -4 0 -16 -9 -26 -20 -10 -11 -22 -20 -28 -20 -5 0 -53 -29 -106 -63 -87 -58 -162 -105 -211 -132 -20 -12 -219 -139 -314 -201 -34 -22 -69 -44 -77 -47 -8 -4 -33 -20 -56 -35 -62 -40 -230 -145 -253 -158 -11 -6 -28 -18 -37 -26 -10 -8 -25 -18 -33 -22 -8 -3 -49 -29 -90 -56 -41 -27 -103 -66 -137 -86 -35 -19 -66 -40 -69 -45 -7 -12 7 -23 86 -76 106 -70 125 -82 168 -106 l44 -25 161 109 c88 60 168 109 177 109 13 0 187 -108 292 -181 15 -10 31 -19 36 -19 5 0 17 -9 27 -20 10 -11 22 -20 26 -20 4 0 47 -26 96 -58 48 -33 112 -74 141 -91 48 -31 52 -36 52 -71 0 -21 -9 -82 -20 -137 -11 -54 -20 -113 -20 -131 0 -18 -5 -42 -11 -53 -8 -15 -5 -27 11 -54 12 -19 25 -35 29 -35 5 0 44 -23 87 -52 43 -28 99 -65 123 -80 26 -18 47 -26 53 -20 10 10 35 161 68 407 12 88 30 219 40 290 10 72 21 155 25 185 3 30 12 96 20 145 7 50 23 164 35 255 12 91 28 207 36 259 8 52 21 146 30 210 8 64 18 141 23 171 5 30 12 81 15 112 6 52 4 59 -16 72 -42 27 -71 28 -99 3z m-275 -569 c-4 -31 -28 -184 -54 -348 -11 -74 -26 -165 -31 -202 -6 -38 -15 -71 -20 -74 -5 -3 -37 13 -72 35 -34 22 -109 70 -167 107 -196 125 -211 136 -208 144 2 5 75 56 163 113 88 58 172 115 187 126 14 12 30 21 35 22 4 0 42 24 83 53 41 29 78 51 81 50 4 -2 5 -14 3 -26z"/>
<path d="M17912 17998 c-316 -266 -716 -606 -861 -730 -149 -128 -193 -165 -308 -259 -37 -31 -76 -66 -87 -77 l-18 -21 43 -53 c24 -29 69 -82 100 -118 32 -36 128 -148 214 -250 157 -186 261 -308 345 -405 25 -29 53 -62 62 -73 34 -43 63 -39 121 14 29 27 76 70 106 96 29 26 51 51 50 57 -2 5 -34 45 -71 88 -37 43 -122 143 -189 223 -68 80 -163 191 -211 248 -48 57 -88 109 -88 116 0 8 52 58 116 112 64 55 155 132 203 173 91 77 318 269 455 384 45 37 108 92 141 121 33 29 94 81 135 114 90 72 144 127 139 140 -2 6 -46 58 -96 116 -51 58 -93 110 -93 116 0 31 -56 -5 -208 -132z"/>
<path d="M6183 18060 c-47 -19 -50 -54 -12 -137 10 -24 19 -48 19 -54 0 -6 8 -28 19 -48 10 -20 38 -83 61 -141 75 -188 104 -255 112 -264 4 -6 8 -19 8 -31 0 -11 6 -29 14 -40 18 -26 66 -147 66 -167 0 -8 9 -27 20 -41 11 -14 20 -29 20 -34 0 -5 16 -47 36 -93 20 -47 40 -98 44 -113 5 -16 13 -34 18 -40 5 -7 17 -36 26 -64 10 -29 22 -55 27 -58 5 -4 9 -16 9 -27 0 -11 8 -35 19 -52 10 -17 22 -42 26 -56 4 -14 13 -38 20 -55 7 -16 34 -82 60 -145 26 -63 52 -128 60 -145 42 -98 64 -152 67 -170 7 -43 37 -24 153 100 l117 125 -12 32 c-18 46 -42 99 -90 202 -67 143 -68 138 36 253 99 110 286 312 384 416 l65 68 165 -57 c91 -31 181 -59 200 -61 l36 -5 112 126 c62 68 112 132 112 140 0 9 -12 18 -27 22 -32 7 -278 83 -308 95 -11 4 -38 13 -60 20 -22 6 -62 20 -89 30 -27 11 -53 19 -59 19 -9 0 -207 62 -477 150 -47 15 -132 42 -190 60 -58 18 -114 36 -125 41 -11 4 -38 13 -60 20 -22 6 -62 19 -90 29 -67 23 -154 50 -315 100 -74 22 -145 45 -158 51 -27 11 -30 11 -59 -1z m533 -486 c22 -9 53 -20 69 -24 29 -8 107 -34 150 -51 11 -4 38 -13 60 -20 22 -6 49 -16 60 -20 22 -10 123 -45 172 -60 18 -5 35 -13 37 -18 5 -7 -291 -340 -342 -385 l-22 -19 -5 19 c-4 11 -15 37 -25 59 -10 22 -39 90 -65 150 -53 125 -63 149 -98 225 -79 173 -79 181 9 144z"/>
<path d="M12320 17941 c-108 -22 -190 -51 -293 -102 -104 -53 -181 -114 -301 -240 l-96 -101 -34 16 c-19 9 -37 16 -41 16 -4 0 -26 8 -49 19 -53 24 -176 61 -204 61 -12 0 -30 4 -40 9 -38 21 -157 30 -250 21 -51 -6 -101 -14 -110 -19 -9 -4 -31 -11 -49 -14 -42 -8 -152 -61 -210 -101 -27 -18 -74 -60 -106 -92 -90 -93 -109 -133 -109 -232 1 -111 45 -182 159 -258 60 -39 345 -183 458 -229 17 -7 55 -24 85 -38 30 -14 84 -37 120 -51 36 -13 79 -32 95 -40 17 -9 37 -16 45 -16 8 0 24 -7 34 -15 11 -8 27 -15 35 -15 9 0 39 -11 66 -25 28 -13 58 -25 67 -25 9 0 19 -4 22 -9 3 -4 27 -14 53 -21 27 -7 55 -19 63 -25 8 -7 31 -16 50 -20 19 -4 54 -16 77 -26 23 -11 49 -19 57 -19 8 0 17 -4 20 -9 3 -4 27 -14 53 -21 27 -7 62 -18 80 -26 17 -8 46 -17 65 -21 18 -3 42 -12 53 -19 11 -6 36 -15 55 -19 19 -3 51 -14 70 -22 19 -9 58 -18 85 -21 28 -2 55 -8 60 -11 17 -12 194 -59 325 -86 426 -88 841 -69 1011 47 92 62 124 130 129 268 10 270 5 485 -14 570 -36 166 -104 332 -177 433 -146 202 -374 367 -616 446 -193 63 -230 72 -368 91 -111 15 -329 10 -425 -9z m303 -157 c3 -3 -43 -54 -102 -112 -62 -62 -133 -145 -167 -195 -77 -116 -73 -108 -84 -137 -5 -14 -15 -32 -22 -41 -9 -13 -5 -25 18 -60 16 -24 38 -45 48 -47 46 -9 66 9 143 126 119 182 232 296 357 363 53 29 71 33 136 33 69 1 79 -2 124 -33 87 -61 171 -196 203 -326 17 -69 19 -243 3 -295 -14 -48 -13 -123 3 -143 6 -9 29 -23 50 -32 l38 -16 33 36 c28 31 34 47 49 139 26 157 20 272 -17 394 -8 23 -10 44 -6 47 4 2 36 -26 72 -63 63 -66 153 -203 177 -272 7 -19 17 -44 21 -55 36 -90 52 -183 57 -338 4 -118 3 -166 -5 -171 -7 -4 -36 9 -65 28 -30 20 -60 36 -66 36 -7 0 -24 9 -38 20 -14 11 -32 20 -40 20 -8 0 -26 9 -40 20 -14 11 -32 20 -40 20 -8 0 -27 6 -41 14 -24 12 -93 39 -192 76 -19 7 -53 17 -75 24 -22 6 -44 14 -50 17 -5 3 -30 11 -55 18 -25 8 -67 21 -95 31 -58 20 -149 46 -417 119 -42 12 -87 21 -100 22 -23 0 -84 32 -155 80 -21 14 -51 34 -67 45 -16 10 -41 27 -55 37 -14 9 -40 24 -58 32 -17 8 -34 19 -38 24 -3 5 -18 16 -33 24 -52 27 -157 84 -194 106 -47 28 -45 33 59 132 143 137 265 201 459 244 60 13 256 20 267 9z m-1361 -338 c59 -13 113 -28 120 -34 7 -5 29 -13 48 -17 52 -11 155 -56 339 -148 140 -71 184 -97 176 -106 -4 -3 -88 -6 -188 -7 -169 -1 -188 -3 -266 -28 -165 -54 -232 -168 -170 -289 25 -49 8 -57 -58 -27 -74 34 -102 47 -178 78 -73 30 -219 98 -245 113 -8 5 -46 24 -83 44 -95 49 -134 81 -147 121 -16 47 -4 91 36 141 34 41 115 103 136 103 6 0 25 9 42 20 97 59 267 74 438 36z m917 -521 c80 -15 154 -33 165 -41 12 -8 45 -14 81 -14 34 0 65 -4 70 -8 6 -5 35 -14 65 -21 112 -24 482 -138 630 -193 302 -112 480 -207 526 -280 24 -38 25 -41 8 -59 -9 -10 -26 -22 -38 -25 -11 -4 -25 -12 -31 -19 -19 -23 -232 -55 -365 -55 -122 0 -410 35 -504 61 -22 7 -59 15 -81 20 -65 12 -188 50 -210 65 -11 8 -35 14 -53 14 -19 0 -45 9 -59 20 -14 11 -40 20 -57 20 -17 0 -44 9 -61 20 -16 11 -37 20 -45 20 -39 0 -388 160 -511 234 -102 61 -202 145 -224 187 -13 24 -12 28 10 49 34 32 103 40 335 35 164 -3 234 -10 349 -30z"/>
<path d="M12700 15985 c-7 -8 -18 -15 -26 -15 -11 0 -350 -168 -404 -200 -8 -4 -64 -37 -125 -71 -156 -89 -273 -167 -481 -323 -185 -139 -467 -460 -568 -648 -14 -26 -30 -49 -35 -52 -13 -8 -138 -265 -147 -302 -4 -16 -10 -34 -15 -39 -16 -21 -67 -203 -84 -300 -13 -73 -16 -128 -12 -200 11 -192 29 -235 98 -235 65 0 70 16 62 209 -7 186 3 254 58 422 38 116 158 358 228 459 28 41 67 98 87 127 88 129 349 391 481 484 148 104 323 219 413 272 126 73 491 257 511 257 32 0 76 75 64 109 -6 16 -68 61 -84 61 -5 0 -14 -7 -21 -15z"/>
<path d="M11045 15291 c-30 -13 -37 -24 -105 -161 -75 -153 -72 -145 -113 -255 -62 -162 -114 -333 -162 -530 -60 -244 -79 -632 -41 -845 10 -58 21 -116 26 -130 4 -14 13 -45 20 -70 22 -86 42 -145 65 -195 13 -27 26 -61 29 -75 3 -16 21 -34 46 -48 l40 -23 35 27 c19 14 36 31 36 38 3 26 -4 53 -22 86 -29 55 -86 236 -110 351 -48 230 -32 607 38 884 74 296 153 520 264 743 l68 137 -28 35 c-29 37 -52 45 -86 31z"/>
<path d="M4209 14899 c-185 -19 -319 -117 -408 -295 -56 -113 -80 -209 -92 -364 -6 -88 -9 -903 -6 -2325 3 -2055 4 -2194 21 -2250 9 -33 21 -76 26 -95 9 -34 41 -108 80 -180 20 -38 123 -144 161 -166 13 -7 35 -18 49 -25 14 -6 39 -19 55 -28 26 -14 90 -16 544 -19 313 -2 533 1 561 7 48 10 112 37 170 72 107 64 202 213 254 399 l20 75 3 828 c3 668 1 827 -9 826 -7 0 -27 -10 -45 -22 -17 -12 -102 -71 -190 -130 -87 -59 -221 -151 -298 -203 -77 -53 -150 -105 -162 -116 l-23 -21 -2 -396 -3 -396 -240 0 -240 0 0 1950 0 1950 243 0 242 0 0 -542 c1 -482 2 -543 16 -543 8 0 67 35 130 78 63 42 133 88 154 102 22 14 105 70 185 125 81 55 154 105 164 110 9 6 32 22 49 37 l32 27 0 451 c0 430 -8 578 -31 604 -5 6 -9 19 -9 30 0 30 -51 154 -84 206 -52 79 -135 154 -218 194 -72 34 -87 38 -210 46 -160 11 -783 11 -889 -1z"/>
<path d="M6668 14899 c-81 -7 -108 -13 -170 -44 -120 -59 -230 -182 -268 -300 -7 -22 -17 -46 -22 -52 -6 -7 -19 -54 -31 -105 l-21 -93 -3 -2555 c-2 -1405 -1 -2565 2 -2577 l5 -23 344 0 c190 0 351 3 360 6 14 6 16 106 16 1038 l0 1032 78 55 c42 30 88 63 102 72 222 150 306 204 313 200 4 -2 7 -539 7 -1192 0 -910 3 -1190 12 -1199 18 -18 691 -17 707 1 15 18 16 4882 1 5073 -29 375 -194 606 -470 658 -82 16 -784 19 -962 5z m710 -1612 l2 -687 -117 -76 c-65 -42 -158 -103 -206 -135 -49 -32 -91 -59 -94 -59 -4 0 -17 -10 -29 -21 -13 -12 -30 -19 -38 -16 -14 6 -16 96 -16 840 0 459 3 837 7 841 4 3 115 5 247 4 l241 -3 3 -688z"/>
<path d="M8623 14904 c-20 -9 -19 -5727 1 -5743 9 -8 112 -11 357 -9 l344 3 5 981 c4 806 7 984 19 997 7 9 63 50 125 92 61 41 134 90 161 110 28 19 127 87 220 150 94 64 220 150 280 192 162 113 240 167 335 230 47 32 88 62 92 68 5 5 7 525 5 1155 l-3 1145 -22 100 c-25 109 -81 249 -121 305 -88 123 -208 198 -351 218 -67 10 -1425 15 -1447 6z m1215 -1652 c1 -398 -1 -730 -5 -737 -11 -18 -486 -334 -495 -329 -4 3 -7 401 -8 885 0 656 2 885 11 895 10 12 56 14 253 12 l241 -3 3 -723z"/>
<path d="M14278 14900 c-17 -10 -18 -97 -18 -1589 0 -868 -2 -1580 -5 -1583 -3 -3 -35 14 -71 38 -36 24 -71 44 -77 44 -7 0 -31 9 -54 20 l-42 19 44 66 c66 98 61 161 -18 243 -73 75 -129 75 -237 1 -129 -88 -197 -193 -155 -239 21 -23 5 -33 -32 -19 -15 6 -48 15 -73 20 -25 5 -79 18 -120 30 -188 52 -445 119 -513 133 -32 7 -65 20 -74 28 -15 16 -38 66 -89 198 -14 36 -34 84 -44 108 -11 23 -20 50 -20 60 0 10 -7 27 -15 39 -18 26 -14 29 50 38 28 4 84 18 125 32 357 117 617 425 689 815 28 147 14 376 -31 518 -30 95 -114 265 -163 329 -58 76 -180 199 -235 238 -297 210 -678 240 -1000 77 -291 -146 -502 -449 -550 -789 -20 -141 0 -417 35 -484 8 -17 15 -38 15 -47 0 -27 78 -181 130 -259 53 -78 165 -192 255 -259 134 -101 329 -175 472 -180 23 -1 44 -4 47 -7 8 -8 -95 -329 -138 -431 l-16 -38 -348 174 c-191 95 -382 190 -425 210 -68 33 -90 56 -54 56 24 0 39 18 47 55 17 75 -76 302 -155 377 -23 22 -46 36 -54 33 -8 -3 -30 0 -48 6 -43 14 -95 -7 -131 -52 -21 -26 -24 -40 -24 -115 0 -102 -6 -107 -86 -73 -44 19 -75 24 -138 24 -71 0 -85 -3 -123 -28 -71 -47 -102 -117 -106 -242 -3 -117 37 -209 139 -322 43 -47 75 -70 134 -98 73 -35 81 -37 162 -33 72 2 96 8 152 36 88 43 158 112 158 155 0 40 -6 47 -53 71 l-37 19 -48 -41 c-75 -66 -118 -85 -189 -84 -33 0 -74 7 -91 16 -40 21 -131 122 -153 171 -27 58 -26 164 1 198 37 47 75 45 189 -10 57 -29 131 -37 169 -20 58 26 116 181 83 221 -14 16 5 35 19 20 14 -15 70 -161 70 -184 0 -12 11 -41 25 -65 l26 -43 -28 -14 c-34 -16 -50 -58 -37 -95 7 -22 37 -40 164 -102 471 -230 735 -367 733 -381 -4 -30 -24 -91 -128 -395 -139 -407 -215 -630 -232 -685 -8 -25 -21 -61 -28 -80 -15 -41 -42 -120 -56 -170 -6 -19 -19 -59 -30 -87 -79 -217 -84 -233 -69 -279 21 -71 74 -166 118 -215 51 -57 182 -127 253 -136 24 -3 52 -10 63 -15 l18 -10 -8 -236 c-11 -332 -11 -335 -2 -353 4 -9 21 -22 39 -29 27 -12 36 -11 65 5 21 11 35 27 38 44 3 14 8 139 12 276 3 138 9 268 13 290 6 36 10 40 44 47 60 13 113 44 125 75 6 15 16 53 23 83 7 30 20 82 31 114 10 33 18 65 18 71 0 7 7 18 15 25 12 10 16 10 19 -1 31 -105 48 -182 50 -220 4 -76 36 -107 137 -133 l84 -21 6 -135 c4 -74 7 -215 8 -312 1 -188 7 -218 48 -237 38 -18 60 -13 97 20 l36 31 26 -21 c15 -12 33 -21 41 -21 48 0 194 -114 179 -139 -4 -6 -21 -11 -39 -10 -18 0 -122 3 -231 6 l-200 6 -34 33 c-52 50 -107 44 -131 -14 -29 -70 23 -141 124 -169 45 -13 462 -18 545 -7 43 6 60 14 96 49 38 36 44 47 44 84 0 57 -19 97 -75 159 -51 57 -168 132 -247 158 -43 14 -51 14 -78 1 -16 -9 -32 -12 -35 -7 -10 16 -29 510 -19 519 5 4 42 18 83 31 165 50 281 163 346 336 30 80 32 141 5 194 -11 22 -20 44 -20 50 0 6 -9 30 -19 53 -19 42 -91 219 -161 397 -110 278 -183 458 -197 485 -8 17 -24 57 -35 89 -11 33 -33 87 -49 121 -16 34 -29 69 -29 77 0 8 -7 23 -15 34 -8 10 -15 27 -15 38 0 10 -9 33 -19 50 -11 17 -21 45 -23 61 l-3 30 35 -3 c19 -2 55 -9 80 -16 25 -8 83 -24 130 -35 47 -12 110 -29 140 -38 30 -9 73 -20 95 -24 22 -4 81 -19 130 -33 50 -14 100 -26 113 -26 33 0 75 48 69 80 -12 58 -12 63 5 65 27 5 73 41 108 85 17 22 45 49 62 61 26 19 31 20 45 7 13 -14 9 -24 -36 -90 -43 -63 -51 -82 -52 -125 -2 -45 1 -54 27 -77 16 -14 40 -29 53 -32 14 -4 36 -13 50 -20 14 -8 32 -14 39 -14 26 0 108 -50 145 -88 53 -55 61 -108 22 -154 -58 -69 -169 -116 -244 -103 -110 18 -234 117 -265 209 -8 27 -14 52 -11 56 8 14 -17 70 -35 80 -22 12 -70 13 -87 2 -17 -11 -33 -58 -33 -95 0 -102 86 -245 186 -311 166 -110 337 -122 496 -33 36 20 68 34 72 30 3 -3 6 -480 6 -1059 l0 -1054 23 -5 c12 -3 195 -4 407 -3 l385 3 5 835 5 835 22 50 c32 71 90 225 124 325 53 159 114 312 124 311 10 -1 45 -94 70 -186 7 -27 20 -68 28 -90 8 -22 21 -60 28 -85 7 -25 16 -49 19 -55 4 -5 10 -25 14 -43 3 -19 12 -48 19 -65 8 -18 23 -63 35 -102 21 -69 38 -124 107 -340 19 -60 35 -115 35 -121 0 -6 8 -33 19 -60 10 -27 24 -67 30 -89 7 -22 16 -49 20 -60 5 -11 27 -78 49 -150 23 -71 68 -216 102 -320 33 -105 60 -195 60 -201 0 -6 9 -33 19 -60 10 -27 25 -69 32 -94 7 -25 16 -49 21 -55 4 -5 8 -17 8 -26 0 -10 12 -50 26 -88 l26 -71 419 0 c361 0 420 2 425 15 3 8 -6 50 -21 92 -37 104 -106 302 -156 443 -23 63 -59 167 -80 230 -22 63 -44 123 -49 132 -6 10 -10 23 -10 30 0 7 -9 35 -19 63 -42 108 -249 698 -260 740 -4 17 -13 39 -19 50 -6 11 -37 94 -68 185 -72 208 -111 321 -169 485 -25 72 -66 186 -90 255 -24 69 -62 177 -85 240 -23 63 -46 129 -50 145 -15 51 -42 128 -61 171 -23 49 -24 73 -5 111 14 28 39 91 91 228 14 39 30 78 35 88 6 9 17 39 26 65 21 62 112 298 130 337 7 17 24 59 38 95 51 137 78 206 91 235 13 28 71 181 117 305 11 30 24 62 28 72 5 9 23 54 40 100 18 45 38 97 45 113 14 32 47 117 90 230 14 39 32 82 40 97 8 14 15 33 15 42 0 9 4 24 10 34 17 30 103 256 110 289 6 24 4 33 -8 38 -8 3 -199 5 -424 5 l-408 -1 -14 -22 c-8 -12 -21 -40 -29 -62 -48 -128 -69 -182 -77 -200 -6 -11 -35 -87 -66 -170 -31 -82 -65 -172 -76 -200 -11 -27 -27 -70 -35 -95 -9 -25 -22 -54 -30 -65 -7 -11 -13 -29 -13 -40 0 -12 -4 -25 -8 -30 -4 -6 -14 -28 -21 -50 -7 -22 -19 -53 -26 -70 -8 -16 -26 -60 -40 -97 -66 -177 -77 -205 -90 -230 -8 -14 -15 -32 -15 -40 0 -8 -16 -52 -36 -98 -19 -47 -41 -103 -49 -125 -7 -22 -23 -65 -35 -95 -12 -30 -29 -75 -37 -100 -9 -25 -22 -54 -30 -65 -7 -11 -13 -25 -13 -33 0 -7 -9 -32 -19 -55 -10 -23 -20 -50 -22 -60 -2 -10 -8 -19 -14 -20 -7 -1 -12 343 -15 1008 l-5 1010 -390 3 c-263 1 -396 -1 -407 -8z m-1543 -409 c151 -45 242 -97 362 -206 142 -130 227 -282 273 -487 47 -205 11 -473 -84 -638 -14 -25 -33 -60 -41 -77 -8 -18 -61 -80 -116 -138 -94 -97 -109 -108 -212 -160 -108 -53 -144 -64 -272 -85 -91 -15 -156 -12 -253 10 -168 37 -269 90 -404 212 -188 170 -298 426 -298 694 0 234 91 468 247 634 134 143 269 217 468 260 67 15 252 4 330 -19z m-115 -2281 c11 -21 20 -44 20 -50 0 -6 11 -36 25 -66 14 -30 25 -57 25 -60 0 -8 79 -196 92 -219 6 -11 15 -33 19 -50 6 -25 110 -288 139 -350 5 -11 24 -58 41 -105 18 -47 39 -94 46 -105 7 -11 13 -26 13 -35 1 -8 9 -33 20 -55 11 -22 19 -44 20 -49 0 -5 9 -27 19 -50 10 -23 31 -75 47 -116 15 -41 33 -84 40 -95 7 -11 15 -31 19 -45 4 -14 13 -38 20 -55 7 -16 24 -57 38 -90 14 -33 28 -71 32 -85 5 -14 21 -53 36 -87 17 -36 29 -78 29 -102 0 -88 -98 -219 -201 -272 -64 -32 -177 -46 -264 -32 l-50 8 -22 85 c-12 47 -31 130 -43 185 -13 55 -29 120 -36 144 -8 24 -17 73 -20 108 -8 77 -42 123 -92 123 -43 0 -68 -27 -85 -95 -8 -33 -22 -82 -30 -110 -8 -27 -24 -84 -36 -125 -11 -41 -30 -106 -41 -145 -11 -38 -26 -92 -33 -119 -11 -44 -17 -51 -54 -68 -71 -31 -152 -34 -230 -8 -56 18 -79 33 -135 87 -95 94 -103 132 -56 253 6 14 27 77 49 140 21 63 72 214 114 335 42 121 124 360 182 530 57 171 131 389 164 485 33 96 75 222 95 279 19 57 37 108 40 112 11 18 24 8 44 -31z"/>
<path d="M12835 13990 c-64 -26 -92 -117 -57 -186 17 -33 29 -42 73 -57 l54 -18 46 19 c48 21 55 33 73 113 8 38 -27 104 -65 123 -34 17 -91 20 -124 6z"/>
<path d="M12039 13921 c-36 -36 -39 -43 -39 -94 0 -48 4 -61 30 -90 42 -49 82 -58 151 -34 l56 19 18 59 c14 46 16 64 7 82 -6 12 -13 32 -17 43 -7 26 -74 54 -129 54 -31 0 -46 -7 -77 -39z"/>
<path d="M12454 13600 c-47 -19 -70 -85 -39 -110 8 -7 15 -19 15 -26 0 -26 90 -74 138 -74 38 0 49 5 79 38 40 42 73 91 73 108 0 7 -14 26 -30 44 -27 29 -34 31 -68 25 -20 -4 -45 -14 -54 -22 -15 -14 -20 -13 -44 6 -29 23 -38 24 -70 11z"/>
<path d="M13035 13453 c-19 -21 -35 -49 -35 -62 0 -37 -71 -162 -120 -211 -25 -25 -72 -59 -105 -75 l-60 -29 -135 0 c-121 1 -142 3 -201 27 -93 36 -137 63 -197 121 -33 32 -56 64 -62 87 -7 25 -22 45 -49 64 l-40 27 -33 -24 c-18 -12 -35 -24 -37 -25 -10 -6 0 -88 12 -102 8 -9 26 -37 40 -63 58 -102 204 -199 365 -244 71 -19 111 -24 214 -24 112 0 136 3 195 25 37 14 89 39 115 56 123 79 250 273 252 387 1 53 -1 57 -33 79 -19 13 -38 23 -43 23 -5 0 -25 -17 -43 -37z"/>
<path d="M17120 14891 c-7 -14 -9 -927 -8 -2878 l3 -2858 405 0 405 0 3 2864 c1 2025 -1 2868 -9 2877 -8 10 -94 13 -399 13 l-389 1 -11 -19z"/>
<path d="M18523 14897 c-9 -13 -17 -5688 -8 -5724 l5 -23 836 0 c810 0 894 3 946 31 10 5 24 9 32 9 17 0 101 43 126 64 8 7 22 15 31 19 29 10 126 131 162 202 46 92 72 180 86 290 16 118 10 4501 -6 4585 -19 104 -74 234 -134 316 -52 71 -194 184 -231 184 -9 0 -19 4 -22 9 -7 11 -37 18 -141 36 -113 18 -1670 21 -1682 2z m1397 -2857 c4 -1600 3 -1938 -8 -1952 -12 -14 -44 -16 -279 -18 -188 0 -269 3 -279 11 -12 10 -14 305 -14 1949 0 1065 3 1940 7 1943 4 4 133 6 287 5 l281 -3 5 -1935z"/>
<path d="M12015 9284 c-42 -15 -149 -69 -225 -112 -108 -62 -150 -112 -150 -177 0 -31 7 -45 39 -75 52 -50 90 -55 391 -52 l245 3 55 27 c77 38 100 75 100 165 0 60 -4 75 -26 104 -20 27 -32 33 -63 33 -52 0 -84 -34 -72 -77 12 -40 3 -81 -20 -94 -25 -13 -414 -8 -413 6 0 6 55 37 122 70 106 52 123 64 132 91 13 39 -2 77 -37 93 -29 13 -28 13 -78 -5z"/>
<path d="M10845 8398 c-182 -44 -281 -96 -330 -173 l-32 -50 -9 -140 c-18 -288 -8 -537 26 -620 5 -11 11 -37 15 -57 8 -53 79 -214 121 -278 64 -97 96 -135 179 -212 78 -72 122 -105 220 -165 18 -12 105 -54 180 -88 73 -33 280 -90 390 -107 108 -16 286 -21 380 -9 114 15 194 32 201 43 3 4 15 8 26 8 11 0 71 24 132 54 132 65 253 159 343 266 35 41 68 77 75 79 6 2 25 -3 42 -12 66 -34 211 -80 369 -116 105 -24 283 -8 405 37 151 55 302 174 358 282 23 45 28 68 29 125 0 112 -51 193 -167 267 -88 55 -92 58 -118 69 -14 6 -32 15 -40 20 -8 5 -26 14 -40 20 -14 6 -32 15 -40 20 -8 5 -26 14 -40 20 -14 6 -49 23 -79 36 -73 34 -192 83 -216 90 -11 4 -31 14 -44 25 -13 10 -34 18 -47 18 -12 0 -25 4 -29 9 -3 5 -29 17 -58 27 -28 9 -61 23 -72 30 -11 8 -29 14 -42 14 -12 0 -24 4 -28 9 -3 5 -29 17 -58 27 -28 9 -61 23 -72 30 -11 8 -26 14 -35 14 -8 0 -59 18 -113 40 -53 22 -102 40 -108 40 -6 0 -25 7 -42 14 -35 17 -135 52 -182 65 -32 9 -99 32 -180 61 -27 10 -66 21 -85 23 -19 3 -87 19 -150 37 -63 17 -134 35 -158 40 -24 6 -47 12 -51 14 -4 3 -90 19 -191 36 -165 27 -202 30 -389 29 -113 -1 -224 -6 -246 -11z m450 -168 c61 -6 146 -17 190 -25 115 -22 267 -56 290 -66 32 -12 147 -50 190 -61 22 -6 58 -19 81 -30 22 -10 47 -18 54 -18 14 0 105 -33 140 -50 8 -4 56 -23 106 -43 260 -105 544 -291 569 -375 6 -20 0 -25 -42 -44 -41 -19 -70 -23 -203 -26 -147 -4 -184 -1 -470 38 -64 8 -187 38 -213 52 -10 5 -22 6 -28 2 -13 -8 -118 19 -349 88 -173 51 -206 62 -225 70 -11 4 -69 24 -128 43 -59 20 -116 40 -125 45 -9 5 -37 17 -62 26 -82 29 -105 39 -130 57 -13 9 -32 17 -41 17 -9 0 -22 6 -28 14 -7 8 -25 18 -41 21 -15 3 -36 15 -46 26 -9 10 -21 19 -26 19 -18 0 -70 46 -90 79 l-22 34 39 33 c21 18 53 35 69 39 17 4 49 12 71 17 109 27 295 34 470 18z m-577 -399 c64 -36 236 -121 248 -121 3 0 24 -8 47 -19 82 -37 407 -146 592 -199 97 -28 222 -62 270 -74 103 -25 121 -31 135 -39 8 -5 31 -18 50 -29 19 -11 47 -28 61 -38 14 -9 46 -30 70 -45 24 -16 56 -37 71 -48 15 -11 38 -24 50 -29 13 -6 43 -23 68 -39 25 -16 78 -46 117 -67 108 -55 108 -53 27 -136 -146 -149 -273 -219 -485 -267 -78 -17 -223 -25 -246 -12 -20 10 -15 17 82 113 107 108 249 306 261 368 13 65 -34 116 -97 103 -24 -5 -40 -21 -79 -82 -102 -160 -155 -224 -253 -309 -129 -112 -248 -152 -342 -117 -94 36 -209 194 -246 339 -21 78 -24 222 -8 296 25 113 24 127 -9 160 -38 37 -80 40 -118 7 -30 -26 -38 -59 -56 -239 -10 -96 -9 -119 9 -210 25 -125 17 -141 -38 -78 -46 52 -114 144 -147 195 -30 50 -98 264 -111 353 -12 80 -15 285 -4 295 9 10 9 10 81 -32z m2492 -203 c89 -39 195 -87 318 -145 29 -14 55 -29 57 -33 3 -4 16 -11 29 -14 32 -8 88 -43 137 -85 35 -30 39 -38 39 -79 0 -69 -39 -118 -156 -198 -18 -12 -43 -25 -55 -29 -13 -4 -28 -11 -34 -15 -5 -5 -52 -18 -104 -30 -74 -18 -110 -21 -165 -16 -93 8 -184 26 -221 42 -16 7 -43 15 -60 19 -16 4 -43 13 -60 20 -16 7 -43 17 -60 21 -16 4 -41 15 -54 26 -13 10 -30 18 -38 18 -8 0 -26 9 -40 20 -14 11 -31 20 -39 20 -16 0 -256 124 -257 134 -1 4 77 9 173 11 253 4 382 43 442 132 35 52 40 98 18 163 -29 84 -26 85 130 18z"/>
<path d="M16478 7406 c-60 -63 -108 -119 -108 -125 0 -7 10 -22 23 -34 154 -149 491 -470 637 -607 171 -161 279 -266 593 -569 l118 -115 86 90 c47 49 199 208 337 353 138 145 293 307 343 360 51 53 93 99 93 102 0 8 -196 201 -215 212 -14 8 -122 -99 -460 -456 -92 -98 -171 -176 -175 -175 -9 4 -417 389 -760 718 -355 341 -375 360 -391 360 -8 -1 -62 -52 -121 -114z"/>
<path d="M7790 7484 c-8 -3 -31 -11 -50 -19 -19 -7 -66 -25 -105 -40 -38 -15 -83 -33 -100 -39 -16 -7 -55 -22 -85 -34 -104 -39 -195 -73 -230 -87 -112 -44 -170 -65 -181 -65 -7 0 -20 -6 -28 -13 -9 -8 -37 -20 -64 -27 -26 -7 -50 -17 -53 -21 -3 -5 -14 -9 -26 -9 -11 0 -32 -7 -46 -15 -15 -8 -58 -26 -97 -40 -38 -14 -89 -35 -113 -45 -23 -11 -48 -20 -54 -20 -6 0 -30 -8 -52 -18 -69 -31 -151 -62 -165 -62 -7 0 -25 -7 -39 -15 -15 -8 -57 -26 -94 -40 -38 -14 -98 -36 -135 -50 -38 -14 -79 -32 -93 -39 -14 -7 -45 -19 -70 -26 -25 -7 -49 -17 -54 -21 -11 -9 231 -259 251 -259 7 0 21 4 31 9 16 9 77 35 197 83 28 11 64 26 80 33 73 32 53 46 351 -244 153 -148 281 -276 285 -283 7 -13 -15 -90 -38 -133 -5 -11 -13 -33 -17 -50 -4 -16 -16 -48 -27 -72 -10 -23 -19 -50 -19 -59 0 -10 -7 -25 -16 -35 -14 -15 -14 -20 -1 -46 15 -29 243 -249 255 -246 3 1 17 30 30 65 12 35 32 88 43 118 11 30 24 69 28 85 10 33 39 118 52 150 5 11 24 67 43 125 20 58 65 191 102 295 36 105 74 215 85 245 10 30 39 114 64 185 26 72 51 144 55 160 20 69 170 501 179 517 17 28 13 53 -14 82 -24 26 -35 29 -65 20z m-424 -576 c-14 -40 -37 -104 -51 -143 -15 -38 -33 -90 -42 -115 -8 -25 -21 -59 -29 -77 -8 -17 -14 -38 -14 -46 0 -9 -4 -18 -9 -21 -5 -4 -15 -29 -22 -56 -7 -28 -19 -56 -26 -61 -16 -14 -34 1 -235 197 l-158 153 28 20 c27 19 63 34 162 68 25 9 52 22 61 30 8 7 20 13 26 13 10 0 115 40 168 64 92 41 151 62 159 55 5 -4 -3 -40 -18 -81z"/>
<path d="M8955 6530 c-8 -25 -121 -267 -136 -290 -5 -8 -14 -26 -20 -40 -6 -14 -15 -32 -20 -40 -10 -16 -24 -46 -33 -70 -3 -8 -10 -22 -15 -30 -6 -8 -25 -49 -44 -90 -49 -106 -113 -241 -197 -415 -40 -82 -97 -202 -126 -265 -30 -63 -59 -122 -65 -130 -5 -8 -14 -26 -20 -40 -6 -14 -15 -32 -20 -40 -5 -8 -12 -23 -15 -33 -4 -9 -24 -52 -45 -94 -54 -107 -52 -139 11 -158 14 -4 32 -13 40 -20 8 -8 27 -16 42 -20 15 -4 32 -13 39 -21 6 -7 26 -16 45 -20 19 -3 38 -14 44 -23 12 -21 40 -5 59 35 8 16 18 36 22 44 12 21 51 103 125 259 l64 134 32 -7 c17 -3 39 -12 47 -20 9 -7 27 -17 41 -21 14 -4 39 -15 55 -25 48 -28 263 -97 343 -109 90 -14 147 -14 231 0 61 9 92 21 191 67 57 28 201 179 238 252 19 36 38 72 42 80 5 8 21 52 35 98 36 118 36 263 0 367 -38 110 -71 162 -160 251 -97 98 -176 150 -360 239 -77 37 -180 87 -229 111 -50 24 -95 44 -102 44 -6 0 -17 7 -24 15 -7 8 -26 19 -44 24 -17 5 -38 12 -48 16 -11 4 -18 0 -23 -15z m295 -471 c8 -5 26 -14 40 -19 14 -6 34 -15 45 -22 11 -6 38 -20 60 -31 56 -28 155 -125 177 -175 32 -70 28 -180 -8 -272 -23 -61 -41 -87 -94 -140 -99 -98 -183 -119 -325 -81 -82 23 -305 128 -305 144 0 11 42 105 61 137 10 16 24 46 33 70 3 8 10 22 15 30 15 23 181 371 181 379 0 4 5 12 11 18 11 11 56 -5 109 -38z"/>
<path d="M15141 6458 c-22 -20 -23 -26 -17 -102 3 -45 10 -153 16 -241 6 -88 17 -252 25 -365 9 -113 20 -277 25 -365 8 -145 17 -277 50 -765 16 -231 22 -280 33 -280 17 0 158 72 218 112 15 9 39 20 53 24 14 3 28 15 32 26 6 21 -1 165 -17 308 -8 80 -7 85 14 108 12 13 36 30 52 38 17 7 37 18 45 24 8 5 59 33 113 62 55 29 115 63 135 75 21 12 51 29 67 37 17 9 37 19 45 24 30 18 67 37 146 78 l81 41 144 -108 c79 -60 149 -115 155 -123 9 -13 16 -13 55 0 24 9 50 20 57 26 14 12 39 26 147 82 41 22 75 44 75 50 0 18 -37 51 -160 140 -63 47 -139 102 -167 123 -29 21 -77 56 -107 78 -30 22 -88 64 -128 93 -40 30 -126 93 -191 140 -64 48 -136 101 -159 117 -23 17 -73 53 -112 82 -62 46 -109 80 -251 183 -78 57 -206 152 -302 224 -59 43 -113 76 -126 76 -13 0 -34 -10 -46 -22z m425 -635 c42 -32 89 -67 104 -78 15 -11 62 -47 105 -80 42 -33 97 -75 123 -93 25 -18 57 -44 70 -58 l25 -24 -18 -20 c-10 -11 -26 -20 -35 -20 -10 0 -28 -8 -41 -18 -13 -10 -35 -23 -49 -30 -14 -7 -43 -23 -65 -36 -22 -14 -67 -39 -100 -56 -33 -17 -81 -44 -107 -60 -26 -16 -50 -25 -53 -21 -10 17 -58 628 -50 641 9 15 9 15 91 -47z"/>
<path d="M13850 5890 c-30 -4 -89 -14 -130 -23 -68 -14 -165 -31 -230 -42 -72 -12 -104 -18 -202 -35 -60 -11 -156 -29 -215 -39 -258 -46 -357 -67 -370 -76 -11 -8 -12 -20 -4 -60 14 -68 45 -245 70 -390 12 -66 30 -169 41 -230 25 -138 53 -296 80 -450 38 -220 94 -530 115 -645 9 -47 21 -89 26 -95 6 -6 41 -3 97 7 48 9 141 26 207 38 66 12 167 30 225 40 58 10 159 28 225 40 66 12 165 30 220 40 55 11 129 22 163 26 87 9 91 20 63 158 -11 58 -21 116 -21 129 0 48 -20 52 -148 28 -258 -48 -255 -48 -307 -56 -46 -7 -222 -39 -342 -62 -45 -8 -86 -13 -91 -9 -9 6 -18 40 -32 131 -4 28 -14 86 -23 130 -23 123 -27 154 -16 161 5 3 49 12 97 20 48 8 110 20 137 25 28 6 75 14 105 19 276 41 450 82 450 106 0 3 -7 33 -15 67 -8 34 -17 88 -20 120 -10 94 -24 99 -183 68 -53 -10 -153 -28 -222 -40 -69 -12 -159 -29 -201 -37 -200 -40 -229 -38 -229 15 0 26 -24 168 -60 350 -11 52 -17 98 -14 103 3 4 15 8 27 8 12 0 56 7 97 16 41 9 100 20 130 24 53 7 123 20 340 60 58 11 128 23 155 26 135 19 136 20 105 185 -28 155 -29 159 -38 158 -4 -1 -32 -5 -62 -9z"/>
<path d="M10761 5801 c-6 -11 -11 -32 -11 -47 0 -15 -9 -81 -19 -148 -19 -121 -31 -207 -56 -406 -7 -58 -20 -154 -29 -215 -8 -60 -25 -177 -36 -260 -11 -82 -24 -181 -29 -220 -5 -38 -15 -108 -21 -155 -6 -47 -20 -146 -32 -222 -30 -197 -23 -218 76 -218 21 0 81 -7 133 -16 62 -11 98 -13 105 -6 9 9 32 146 62 372 18 141 29 175 54 164 41 -18 244 -34 372 -30 156 5 187 8 217 24 12 7 29 12 38 12 10 0 52 17 94 37 56 28 95 57 151 113 41 41 82 89 90 105 8 17 19 37 26 45 6 8 24 58 40 110 26 85 29 109 28 235 0 127 -3 148 -28 222 -16 46 -35 88 -42 94 -8 6 -14 17 -14 25 0 16 -158 177 -193 195 -170 91 -266 120 -502 149 -49 6 -146 20 -215 30 -220 33 -247 34 -259 11z m474 -370 c87 -9 184 -33 215 -52 8 -5 29 -16 45 -23 36 -17 83 -66 115 -121 21 -35 24 -53 24 -150 1 -91 -3 -120 -22 -168 -59 -154 -188 -226 -376 -213 -158 11 -260 29 -264 47 -2 9 4 61 13 115 9 55 22 151 30 214 23 187 45 344 50 358 3 8 17 11 42 7 21 -3 79 -9 128 -14z"/>
</g>
</g>
  <g id="id1:id1" transform="matrix(1.25,0,0,1.25,0.0,0.0)"><g transform="translate(0.000000,955.200000) scale(0.040000,-0.040000)" fill="#ffffff" stroke="none">
<path d="M0 11940 l0 -11940 12040 0 12040 0 0 11940 0 11940 -12040 0 -12040 0 0 -11940z m12006 8680 c7 -41 18 -125 24 -186 5 -61 14 -133 19 -160 5 -27 14 -105 21 -174 6 -69 15 -147 20 -175 6 -27 17 -117 25 -199 9 -82 17 -152 19 -155 2 -3 9 -58 15 -121 7 -63 18 -160 26 -215 26 -190 47 -394 41 -403 -3 -5 -20 -12 -38 -14 -28 -5 -49 9 -204 131 -95 75 -217 170 -270 211 -53 41 -137 108 -188 147 -88 70 -134 106 -223 175 -24 18 -66 52 -95 75 -362 287 -367 291 -379 272 -5 -8 -7 -20 -4 -26 2 -7 9 -61 15 -120 6 -60 15 -133 20 -163 5 -30 10 -64 10 -75 0 -11 2 -38 5 -60 3 -22 14 -112 25 -200 11 -88 29 -234 41 -324 11 -90 17 -167 12 -171 -11 -11 -243 -42 -279 -38 l-29 3 -12 105 c-6 58 -16 146 -23 195 -19 156 -29 235 -50 410 -11 94 -25 202 -30 240 -5 39 -14 117 -20 175 -6 58 -18 150 -26 205 -12 86 -29 233 -39 340 -1 17 -8 63 -14 103 -7 40 -10 79 -8 86 3 8 23 14 50 14 42 1 52 -4 144 -78 54 -44 121 -99 148 -122 28 -24 79 -66 114 -93 35 -28 82 -66 105 -86 23 -20 77 -65 122 -100 44 -35 119 -96 165 -134 46 -39 98 -81 116 -95 51 -40 286 -232 308 -251 86 -75 104 -89 118 -89 21 0 24 15 16 74 -5 28 -17 130 -29 226 -43 357 -67 551 -91 732 -6 42 -9 94 -7 115 l3 38 115 16 c63 9 130 16 149 15 l35 -1 12 -75z m1464 -30 c136 -32 166 -44 162 -67 -3 -19 -37 -164 -53 -223 -5 -19 -22 -93 -39 -165 -17 -71 -34 -143 -39 -160 -5 -16 -14 -52 -20 -80 -16 -67 -27 -112 -40 -160 -95 -369 -107 -471 -70 -591 46 -150 153 -239 342 -285 102 -25 182 -24 270 3 63 19 79 29 143 93 39 39 75 82 79 96 4 13 13 31 20 39 15 17 59 146 69 200 3 19 12 58 20 85 7 28 23 93 35 145 12 52 29 120 36 150 8 31 19 76 24 100 5 25 15 63 21 85 5 22 14 58 19 80 5 22 17 69 26 105 9 36 25 103 36 150 32 133 32 133 82 125 23 -4 75 -16 114 -26 40 -10 81 -19 91 -19 10 0 26 -6 35 -12 14 -11 15 -20 8 -48 -10 -36 -32 -129 -56 -235 -29 -126 -44 -191 -55 -230 -6 -22 -14 -58 -19 -80 -10 -43 -36 -148 -51 -205 -5 -19 -26 -102 -46 -185 -73 -300 -135 -428 -271 -555 -82 -76 -122 -102 -200 -128 -98 -33 -150 -42 -244 -42 -212 0 -418 56 -569 155 -66 43 -200 177 -200 199 0 6 -8 23 -17 36 -9 13 -28 54 -42 90 -22 60 -24 80 -25 245 -1 156 2 191 21 260 12 44 31 121 42 170 12 50 30 124 40 165 11 41 29 116 41 165 39 166 61 260 76 315 7 31 18 76 23 100 12 57 40 160 47 171 3 5 12 5 22 0 9 -5 60 -19 112 -31z m-4352 -502 c5 -7 28 -47 50 -88 21 -41 65 -124 98 -185 32 -60 69 -130 81 -155 13 -25 27 -52 32 -60 5 -8 14 -26 20 -40 6 -14 28 -56 49 -95 21 -38 69 -128 107 -200 37 -71 88 -165 112 -207 23 -43 43 -84 43 -91 0 -8 9 -22 20 -32 11 -10 20 -26 20 -35 0 -10 9 -29 20 -43 11 -14 20 -32 20 -40 0 -8 8 -25 18 -38 10 -13 23 -35 30 -49 6 -14 44 -85 83 -158 39 -74 68 -140 65 -147 -10 -28 -72 -28 -153 -2 -157 50 -341 107 -473 147 -74 22 -193 59 -265 82 -71 22 -159 49 -195 60 -136 40 -206 61 -225 69 -11 4 -67 22 -125 39 -58 18 -125 38 -149 46 -25 8 -53 14 -63 14 -21 0 -24 -27 -4 -49 8 -9 37 -61 65 -116 29 -55 56 -107 60 -115 5 -8 14 -26 20 -40 6 -14 29 -56 50 -95 21 -38 71 -133 111 -210 40 -77 76 -144 80 -150 5 -5 36 -65 70 -133 53 -104 61 -125 49 -136 -8 -8 -63 -39 -124 -70 -60 -32 -115 -62 -122 -68 -9 -7 -15 -4 -22 14 -5 13 -16 30 -25 37 -9 7 -16 21 -16 31 0 9 -9 28 -19 42 -11 13 -23 37 -26 51 -4 15 -11 30 -16 33 -5 3 -16 20 -24 37 -9 18 -32 64 -53 102 -21 39 -75 140 -120 225 -46 85 -87 162 -91 170 -5 8 -14 26 -20 40 -6 14 -15 32 -21 40 -5 8 -15 26 -20 40 -6 14 -21 43 -33 65 -13 22 -54 99 -92 170 -37 72 -93 177 -124 235 -31 58 -62 116 -69 130 -6 14 -16 32 -21 40 -5 8 -14 26 -20 40 -6 14 -15 32 -19 40 -34 60 -42 84 -33 93 18 18 83 36 100 27 9 -4 120 -41 246 -83 508 -165 1132 -370 1165 -382 19 -6 55 -19 80 -27 25 -8 53 -19 63 -23 23 -10 23 15 -1 63 -23 46 -136 261 -211 402 -31 58 -62 116 -69 130 -6 14 -16 32 -22 40 -5 8 -15 26 -20 40 -6 14 -21 43 -34 65 -12 22 -55 102 -95 179 l-72 138 16 24 c8 13 23 24 33 24 10 0 29 8 42 17 25 18 159 90 171 92 4 0 11 -5 17 -11z m7474 -706 c9 -9 -7 -183 -22 -242 -5 -19 -11 -66 -15 -105 -4 -38 -15 -126 -25 -195 -11 -69 -29 -197 -40 -285 -25 -186 -52 -384 -79 -575 -11 -74 -22 -160 -26 -190 -3 -30 -12 -98 -20 -150 -8 -52 -21 -147 -31 -210 -9 -63 -19 -118 -23 -122 -8 -9 -258 158 -271 181 -7 13 -7 28 0 46 5 14 10 40 10 57 0 18 10 82 22 143 12 64 18 122 14 138 -5 20 -27 40 -82 75 -90 57 -410 265 -441 287 -12 8 -26 15 -31 15 -5 0 -17 9 -27 20 -10 11 -24 20 -30 20 -7 0 -18 6 -24 14 -7 8 -23 17 -37 20 -21 6 -52 -11 -170 -89 -79 -53 -146 -100 -149 -106 -11 -17 -55 -9 -98 18 -131 82 -207 135 -207 143 0 5 24 23 53 40 28 17 66 41 84 53 17 12 75 49 128 82 52 33 132 84 176 113 45 28 85 52 89 52 4 0 15 9 25 20 10 11 23 20 28 20 5 0 40 20 78 45 38 25 71 45 73 45 3 0 42 25 86 55 44 30 84 55 87 55 4 0 14 7 24 16 20 18 70 48 115 69 17 7 36 21 44 29 7 9 16 16 21 16 4 0 45 25 89 55 44 30 84 55 89 55 4 0 16 9 26 20 10 11 22 20 28 20 10 0 45 21 178 108 45 28 85 52 89 52 4 0 15 9 25 20 10 11 23 20 29 20 6 0 25 11 41 25 30 25 76 28 97 7z m1583 -1349 c43 -49 87 -98 98 -110 27 -30 16 -44 -109 -149 -58 -49 -132 -111 -164 -139 -31 -27 -124 -106 -205 -175 -81 -69 -201 -170 -265 -225 -64 -55 -152 -129 -195 -165 -43 -36 -105 -89 -139 -119 -33 -29 -71 -58 -83 -64 -13 -6 -23 -14 -23 -18 0 -10 63 -93 114 -150 23 -25 66 -76 96 -114 30 -37 82 -98 115 -135 33 -37 102 -117 154 -179 l93 -113 -28 -30 c-46 -48 -171 -148 -186 -148 -16 0 -154 156 -433 491 -22 26 -62 74 -90 106 -65 76 -235 273 -252 294 -17 20 -1 38 157 169 62 52 137 115 165 140 28 25 89 77 135 115 46 39 110 93 141 120 31 28 88 76 125 107 86 71 300 252 379 321 32 29 75 64 95 79 19 15 73 61 120 102 47 41 90 75 96 76 6 0 46 -39 89 -87z m-11835 -22 c69 -22 139 -44 155 -50 17 -5 118 -37 225 -71 107 -34 218 -70 245 -80 28 -10 84 -27 125 -40 41 -12 100 -30 130 -40 30 -11 143 -47 250 -81 107 -34 247 -78 310 -99 63 -20 129 -40 145 -44 17 -4 44 -13 60 -20 17 -8 66 -25 109 -38 44 -13 81 -29 83 -35 2 -6 -47 -64 -109 -127 l-113 -116 -190 65 c-104 36 -193 64 -196 62 -3 -1 -59 -60 -125 -132 -65 -71 -188 -203 -271 -293 -107 -114 -153 -170 -153 -186 0 -13 14 -55 31 -92 17 -38 40 -89 51 -114 11 -25 25 -56 32 -70 8 -14 19 -42 25 -62 l13 -38 -108 -115 c-59 -63 -110 -112 -114 -110 -4 2 -19 35 -35 72 -31 74 -39 93 -84 200 -17 39 -31 78 -31 86 0 8 -7 20 -15 27 -8 7 -15 18 -15 25 0 13 -45 130 -60 157 -6 10 -16 35 -24 55 -14 40 -80 204 -95 238 -43 96 -60 137 -66 163 -3 17 -13 36 -21 43 -8 6 -14 18 -14 26 0 13 -34 101 -65 168 -7 17 -32 77 -55 135 -23 58 -47 119 -55 135 -13 28 -41 96 -85 205 -10 25 -30 71 -44 104 -30 68 -33 101 -8 115 25 15 26 15 162 -28z m6380 -76 c138 -17 263 -47 365 -86 28 -10 56 -19 62 -19 7 0 64 -25 126 -56 117 -58 207 -119 303 -206 54 -50 144 -160 144 -177 0 -5 7 -14 15 -21 33 -27 114 -221 141 -335 34 -147 36 -180 30 -452 -5 -236 -9 -277 -25 -316 -24 -55 -103 -124 -174 -150 -216 -79 -578 -78 -952 2 -125 27 -235 56 -280 75 -20 9 -54 16 -75 16 -21 0 -57 9 -81 20 -24 11 -52 20 -62 20 -11 0 -33 7 -50 15 -18 8 -54 21 -82 29 -65 19 -234 79 -260 93 -11 6 -36 14 -55 18 -19 4 -53 16 -75 26 -22 10 -67 28 -100 40 -33 12 -71 27 -85 34 -14 7 -42 18 -63 25 -22 7 -51 18 -65 26 -15 8 -34 14 -42 14 -9 0 -20 4 -25 9 -6 5 -48 23 -95 41 -47 18 -92 36 -100 41 -8 5 -26 14 -40 20 -14 6 -43 20 -66 30 -23 11 -44 19 -47 19 -2 0 -81 37 -173 81 -331 159 -385 213 -387 376 -1 61 3 87 15 100 9 10 19 28 23 41 7 23 89 110 140 148 62 47 212 111 308 134 103 23 181 24 290 0 26 -5 66 -14 90 -18 65 -13 186 -53 193 -63 3 -5 12 -9 21 -9 9 0 35 -10 58 -21 l42 -21 141 141 c77 77 146 141 153 141 7 0 20 6 28 14 24 21 152 84 218 107 166 57 365 77 553 54z m35 -1977 c33 -19 36 -24 31 -52 -6 -32 -38 -66 -62 -66 -12 0 -95 -40 -364 -175 -116 -59 -376 -224 -560 -355 -83 -60 -183 -152 -308 -285 -174 -186 -275 -331 -385 -551 -75 -152 -110 -244 -146 -393 -23 -93 -28 -269 -11 -361 8 -44 7 -58 -6 -77 -22 -34 -42 -39 -72 -16 -20 15 -29 34 -39 84 -17 91 -16 232 3 314 9 39 19 90 23 115 16 101 101 314 198 495 36 68 169 261 243 354 88 110 256 282 339 345 299 230 469 336 826 517 138 70 251 127 252 128 1 1 18 -9 38 -21z m-1637 -707 l21 -29 -69 -139 c-38 -77 -79 -164 -90 -194 -49 -123 -72 -186 -80 -214 -4 -16 -15 -50 -23 -75 -106 -309 -161 -750 -126 -1007 23 -175 91 -422 132 -486 8 -12 17 -36 20 -53 5 -26 1 -34 -24 -53 l-30 -22 -34 21 c-22 13 -35 30 -35 42 0 11 -8 35 -19 52 -42 72 -104 296 -125 459 -18 132 -21 375 -7 458 6 30 15 95 21 144 13 99 42 237 71 332 10 34 19 69 19 76 0 8 8 36 19 63 10 27 29 81 41 119 59 188 210 511 244 525 36 15 52 11 74 -19z m-5928 -375 c126 -32 204 -76 268 -152 36 -44 76 -105 88 -134 3 -8 12 -30 20 -48 8 -18 19 -52 25 -75 41 -161 41 -164 46 -629 l4 -458 -23 -21 c-13 -11 -66 -49 -118 -83 -156 -102 -226 -149 -315 -211 -27 -19 -66 -44 -85 -55 -19 -11 -57 -36 -84 -55 -27 -20 -54 -34 -60 -32 -8 3 -12 164 -16 538 l-5 534 -254 3 c-197 2 -256 -1 -263 -10 -12 -19 -10 -3926 2 -3930 5 -1 123 -1 262 2 l253 5 5 401 5 401 50 40 c28 21 102 73 165 116 63 42 154 104 203 137 210 145 262 178 269 174 5 -3 7 -359 5 -792 -4 -852 -3 -836 -61 -1001 -47 -133 -112 -225 -209 -291 -31 -22 -63 -40 -70 -40 -7 0 -21 -6 -32 -14 -33 -22 -87 -26 -415 -32 -385 -6 -712 6 -755 28 -16 9 -48 24 -70 34 -50 23 -151 117 -176 164 -11 19 -23 42 -28 50 -24 44 -43 95 -68 185 l-28 100 -3 2225 c-2 1441 1 2261 7 2326 34 337 194 555 441 600 99 18 947 18 1020 0z m2455 -1 c105 -25 173 -62 245 -135 86 -88 149 -221 182 -385 16 -80 24 -5163 8 -5179 -15 -15 -649 -19 -667 -4 -11 8 -13 236 -13 1215 0 959 -3 1204 -12 1201 -21 -5 -353 -230 -485 -329 l-43 -31 0 -1024 0 -1024 -22 -8 c-13 -4 -167 -7 -343 -7 l-320 0 0 2565 0 2565 18 85 c20 91 64 210 101 275 35 60 136 150 201 181 103 49 137 52 627 53 377 1 468 -2 523 -14z m2447 1 c123 -24 183 -57 270 -149 73 -78 119 -177 160 -347 l23 -95 0 -1155 0 -1154 -22 -12 c-13 -6 -31 -18 -40 -26 -10 -8 -70 -51 -133 -94 -63 -43 -133 -91 -155 -106 -36 -26 -156 -108 -289 -198 -28 -19 -90 -62 -136 -95 -47 -33 -99 -69 -117 -80 -18 -11 -71 -47 -119 -80 -92 -64 -108 -75 -172 -118 l-42 -27 -2 -988 -3 -987 -324 0 c-197 0 -332 4 -343 10 l-19 10 1 2844 c0 1563 3 2847 6 2852 3 5 297 9 694 9 554 0 703 -3 762 -14z m4962 5 c3 -4 6 -472 6 -1040 2 -911 4 -1032 17 -1027 8 3 16 6 18 6 2 0 11 24 20 53 9 28 25 72 35 97 10 25 30 77 45 115 14 39 30 78 35 87 6 10 22 53 36 95 14 43 34 96 44 118 11 22 28 65 39 95 35 98 72 194 86 225 7 17 23 57 35 90 12 33 30 80 40 105 10 25 27 70 38 100 35 96 73 194 87 225 7 17 36 93 65 170 29 77 62 163 72 190 11 28 27 70 35 95 9 25 19 50 24 55 4 6 15 33 24 60 9 28 23 60 31 73 l15 22 402 -2 c370 -3 402 -4 405 -20 2 -10 -25 -88 -59 -175 -34 -87 -72 -187 -86 -223 -13 -36 -30 -78 -37 -95 -8 -16 -26 -61 -40 -100 -15 -38 -31 -79 -36 -90 -5 -11 -23 -56 -39 -100 -16 -44 -36 -96 -44 -115 -9 -19 -25 -62 -37 -95 -12 -33 -28 -73 -35 -90 -14 -32 -47 -116 -90 -230 -14 -38 -30 -79 -35 -90 -5 -11 -23 -56 -39 -100 -16 -44 -36 -96 -44 -115 -16 -36 -65 -160 -112 -285 -34 -88 -75 -194 -86 -220 -5 -11 -22 -56 -39 -100 -17 -44 -38 -95 -46 -112 -17 -37 -11 -95 12 -114 8 -6 14 -19 14 -29 0 -10 16 -62 36 -116 20 -55 40 -112 44 -129 5 -16 20 -61 35 -100 14 -38 46 -128 71 -200 25 -71 73 -206 106 -300 32 -93 63 -183 69 -200 5 -16 13 -39 18 -50 5 -11 17 -42 26 -70 23 -68 84 -242 140 -400 25 -71 50 -143 55 -160 6 -16 14 -39 19 -50 5 -11 35 -94 67 -185 31 -91 76 -221 101 -290 24 -69 57 -165 74 -215 16 -49 34 -99 39 -110 10 -21 35 -92 140 -400 33 -99 66 -190 72 -202 25 -51 31 -51 -404 -49 l-403 1 -62 185 c-33 102 -63 194 -66 205 -3 11 -26 85 -52 165 -26 80 -53 170 -62 200 -8 30 -18 60 -23 65 -4 6 -11 26 -15 45 -6 30 -37 126 -144 455 -11 33 -38 121 -61 195 -23 74 -50 160 -60 190 -10 30 -46 143 -80 250 -106 332 -132 404 -150 423 l-17 18 -43 -123 c-24 -68 -47 -127 -51 -133 -4 -5 -12 -26 -17 -45 -6 -19 -29 -87 -52 -150 -23 -63 -51 -140 -62 -170 -10 -30 -27 -71 -36 -90 -16 -32 -17 -107 -19 -855 l-3 -819 -22 -9 c-28 -10 -729 -4 -746 7 -9 5 -12 260 -12 1077 0 953 -2 1069 -15 1069 -9 0 -18 -6 -21 -14 -8 -20 -115 -75 -181 -92 -239 -62 -519 121 -540 354 -7 79 6 104 54 99 41 -4 63 -28 63 -68 0 -52 31 -114 83 -168 136 -140 315 -150 442 -24 l53 52 -5 48 c-4 43 -11 54 -63 105 -42 40 -76 63 -119 79 -34 12 -66 27 -72 35 -6 7 -17 10 -24 8 -8 -3 -29 6 -48 20 -32 25 -34 29 -30 74 5 47 45 122 83 157 11 10 20 26 20 36 0 17 -35 49 -53 49 -5 0 -48 -38 -96 -84 -93 -89 -110 -96 -146 -56 -28 31 -11 70 63 141 99 96 127 112 195 117 55 4 60 3 94 -29 43 -42 63 -79 63 -117 0 -45 -27 -110 -61 -149 l-30 -35 18 -20 c22 -24 86 -58 109 -58 22 0 120 -65 128 -85 3 -8 12 -15 21 -15 13 0 15 170 15 1598 0 879 3 1602 7 1606 10 9 761 7 767 -3z m2858 -49 c5 -29 7 -1316 6 -2860 l-3 -2807 -393 0 -392 1 0 2853 c0 1569 3 2857 6 2862 3 5 166 8 387 7 l382 -3 7 -53z m2303 44 c99 -18 169 -45 237 -92 104 -72 189 -188 225 -309 8 -27 19 -54 23 -60 8 -11 12 -39 30 -207 7 -76 10 -747 7 -2255 -4 -2285 -2 -2192 -48 -2348 -31 -107 -139 -279 -194 -309 -11 -6 -33 -21 -48 -33 -16 -13 -34 -23 -42 -23 -7 0 -18 -7 -25 -15 -7 -8 -22 -15 -34 -15 -12 0 -31 -6 -42 -14 -38 -27 -215 -33 -994 -32 l-775 1 -3 2849 c-1 2054 1 2853 9 2862 17 20 1560 20 1674 0z m-7490 -244 c17 -6 53 -16 80 -22 76 -17 221 -91 305 -154 75 -57 156 -141 221 -231 42 -58 129 -222 129 -244 0 -8 11 -46 24 -85 45 -132 55 -331 24 -501 -30 -171 -108 -341 -219 -478 -142 -177 -363 -311 -564 -342 -78 -12 -85 -15 -85 -35 0 -11 4 -28 9 -38 18 -36 51 -128 51 -144 0 -9 4 -19 9 -22 5 -3 26 -50 47 -103 21 -54 44 -108 52 -121 15 -23 25 -27 242 -82 130 -33 241 -63 395 -105 50 -13 113 -29 140 -36 28 -6 58 -13 68 -16 9 -2 23 -16 31 -31 12 -23 12 -31 -1 -56 l-15 -28 -51 6 c-29 4 -90 17 -137 30 -83 24 -147 41 -320 85 -47 12 -107 28 -135 36 -115 31 -137 36 -142 31 -3 -3 3 -29 14 -58 12 -29 26 -69 33 -88 7 -19 18 -48 26 -65 53 -121 84 -198 99 -245 10 -30 21 -59 25 -65 5 -5 38 -86 75 -180 36 -93 84 -212 106 -263 21 -51 39 -98 39 -103 0 -6 9 -28 19 -48 11 -20 47 -108 81 -196 34 -88 70 -178 81 -200 27 -56 24 -125 -7 -204 -48 -120 -106 -195 -193 -252 -49 -32 -158 -73 -216 -81 -18 -3 -20 -11 -20 -98 0 -52 4 -204 9 -336 l9 -242 -21 -11 c-30 -16 -67 -13 -84 7 -13 14 -17 64 -22 272 -3 140 -9 290 -12 333 l-7 77 -26 0 c-14 1 -53 7 -86 15 -75 17 -97 43 -101 117 -2 29 -10 73 -19 98 -9 25 -21 68 -25 95 -16 90 -25 120 -40 120 -10 0 -17 -16 -22 -45 -4 -25 -14 -70 -22 -100 -9 -30 -27 -97 -41 -148 -13 -50 -27 -97 -30 -102 -10 -17 -82 -50 -108 -50 -54 0 -56 -13 -68 -331 -6 -162 -14 -300 -18 -308 -13 -27 -59 -35 -87 -16 l-26 17 9 191 c4 106 8 241 8 302 l0 110 -69 12 c-157 29 -275 115 -342 251 -49 100 -49 133 2 277 9 28 25 73 34 100 10 28 23 66 30 85 7 19 18 55 26 80 7 25 25 77 38 115 14 39 89 257 166 485 78 228 151 440 162 470 27 77 50 151 52 174 1 15 -84 62 -449 245 -424 213 -450 228 -453 254 -4 34 22 67 53 67 11 0 46 -12 76 -27 29 -14 223 -111 430 -214 375 -186 409 -199 409 -155 0 7 8 35 19 62 28 76 42 115 57 164 8 25 25 78 39 119 14 40 25 87 25 102 0 27 -3 29 -39 29 -124 0 -341 78 -479 172 -74 50 -200 177 -252 253 -93 138 -158 301 -180 454 -18 121 -8 355 19 456 26 94 102 258 159 342 82 120 240 256 372 319 149 72 264 95 440 90 74 -2 149 -9 165 -14z m-1387 -1672 c38 0 107 -66 140 -132 39 -80 73 -188 74 -236 1 -50 -17 -72 -59 -72 -26 0 -63 51 -63 87 0 39 -60 177 -90 208 -23 23 -32 27 -42 17 -9 -9 -9 -20 1 -48 23 -64 0 -154 -53 -203 -21 -20 -33 -23 -74 -19 -26 3 -73 16 -103 30 -100 46 -132 52 -167 34 -18 -9 -38 -30 -47 -46 -20 -38 -18 -134 3 -188 23 -58 117 -166 168 -191 83 -42 213 -21 269 43 11 13 31 30 45 39 23 13 28 13 55 -2 46 -27 45 -61 -4 -114 -61 -66 -144 -101 -252 -105 l-86 -4 -74 37 c-41 20 -89 51 -107 68 -42 40 -115 151 -131 196 -21 64 -25 162 -7 229 20 79 38 107 92 138 39 23 52 25 121 21 53 -3 91 -11 120 -25 23 -12 58 -22 77 -22 l34 0 0 100 c0 110 3 118 62 155 24 16 40 20 52 14 9 -5 30 -9 46 -9z m1933 -3657 c192 -96 279 -239 201 -332 -22 -26 -39 -35 -77 -42 -77 -12 -499 -11 -553 2 -65 16 -108 50 -116 92 -17 88 44 116 114 53 l37 -33 224 -7 c123 -4 232 -5 241 -1 33 13 28 36 -19 87 -43 45 -125 98 -153 98 -6 0 -28 11 -50 25 -37 23 -39 28 -29 48 20 38 41 57 65 57 12 0 64 -21 115 -47z m-1167 -42 c13 -14 16 -28 11 -50 -6 -28 -21 -37 -151 -102 -79 -39 -144 -75 -144 -78 0 -27 32 -31 237 -31 267 0 273 2 273 90 0 63 21 100 55 100 31 0 63 -49 70 -105 10 -79 -18 -136 -82 -168 -45 -23 -62 -25 -278 -31 -264 -8 -350 0 -402 40 -29 22 -33 31 -33 71 0 43 4 51 48 93 61 59 307 187 363 189 9 1 24 -8 33 -18z m-638 -896 c156 -26 236 -44 344 -75 36 -11 85 -22 110 -26 25 -4 54 -13 65 -20 11 -8 38 -14 60 -14 23 0 46 -5 52 -11 6 -6 35 -17 65 -25 29 -7 85 -25 123 -39 39 -15 88 -31 110 -37 22 -6 49 -17 60 -25 11 -7 26 -13 33 -13 7 0 44 -12 80 -26 37 -14 90 -34 117 -44 120 -44 192 -72 220 -85 66 -30 231 -95 241 -95 6 0 17 -6 23 -14 7 -8 27 -18 44 -21 18 -4 41 -13 52 -19 11 -7 37 -19 58 -25 20 -7 67 -28 103 -47 36 -19 70 -34 76 -34 5 0 21 -9 35 -20 14 -11 32 -20 40 -20 8 0 26 -9 40 -20 14 -11 32 -20 40 -20 8 0 26 -9 40 -20 14 -11 32 -20 40 -20 18 0 66 -34 122 -85 142 -131 114 -326 -66 -470 -32 -26 -74 -54 -93 -62 -19 -8 -42 -21 -50 -27 -18 -15 -103 -43 -185 -62 -73 -16 -218 -18 -299 -3 -73 13 -294 82 -353 110 -55 26 -74 19 -112 -40 -30 -47 -107 -123 -187 -187 -34 -27 -179 -114 -190 -114 -2 0 -23 -8 -47 -18 -122 -53 -216 -72 -397 -79 -144 -6 -244 4 -395 39 -85 20 -215 58 -260 77 -48 21 -141 64 -155 72 -8 5 -29 16 -46 24 -17 7 -36 21 -44 29 -7 9 -18 16 -25 16 -22 0 -222 198 -270 267 -80 115 -126 222 -176 411 -19 71 -22 112 -23 270 -1 103 2 246 6 317 5 114 9 135 32 176 35 63 124 117 241 147 22 6 56 15 75 20 19 6 134 10 256 11 192 1 240 -2 370 -24z m5369 -1077 c121 -116 337 -321 480 -457 143 -135 298 -283 343 -328 46 -46 88 -83 92 -83 5 0 89 84 187 188 98 103 237 247 309 321 l132 134 102 -99 102 -100 -82 -90 c-97 -103 -584 -617 -681 -716 -36 -38 -71 -68 -77 -68 -7 0 -175 157 -375 348 -199 191 -393 377 -432 412 -152 139 -545 524 -545 534 0 14 201 216 215 216 5 0 109 -95 230 -212z m-8981 150 c7 -19 5 -35 -6 -60 -9 -18 -19 -49 -23 -68 -4 -19 -11 -41 -16 -50 -5 -8 -22 -55 -39 -105 -16 -49 -65 -193 -109 -320 -43 -126 -106 -309 -139 -405 -34 -96 -84 -240 -112 -320 -29 -80 -56 -158 -60 -175 -18 -62 -140 -409 -155 -442 l-17 -35 -81 79 c-169 161 -162 152 -142 189 8 16 15 38 15 50 0 11 4 24 9 30 5 5 16 34 26 64 10 30 21 60 25 65 11 16 40 112 40 133 0 12 -110 126 -289 300 -312 303 -292 289 -368 256 -18 -8 -48 -20 -65 -28 -110 -49 -178 -76 -189 -76 -7 0 -21 -7 -31 -17 -17 -15 -24 -10 -133 98 -63 62 -114 117 -112 123 2 5 21 15 43 23 21 7 53 19 69 27 17 7 57 23 90 35 33 12 74 29 90 36 17 8 51 21 77 29 26 9 56 20 65 25 28 14 127 51 137 51 5 0 27 8 50 19 23 10 68 29 101 41 33 13 74 29 90 36 17 7 51 20 77 28 26 9 56 20 65 25 28 14 127 51 137 51 5 0 27 8 50 19 23 10 68 29 101 41 33 12 103 39 155 60 166 65 205 80 214 80 4 0 22 6 39 14 18 8 64 26 102 41 39 14 81 31 95 38 75 34 111 33 124 -5z m1197 -944 c8 -8 19 -14 24 -14 25 0 498 -235 567 -281 143 -96 239 -216 287 -357 32 -94 30 -258 -4 -366 -14 -45 -36 -100 -48 -122 -12 -23 -31 -59 -42 -80 -11 -21 -50 -71 -87 -109 -108 -114 -255 -175 -422 -175 -64 0 -191 17 -221 30 -11 5 -65 24 -120 41 -55 18 -111 41 -124 51 -13 10 -30 18 -38 18 -8 0 -26 9 -40 20 -14 11 -34 20 -44 20 -10 0 -21 5 -24 10 -11 18 -33 11 -41 -12 -4 -13 -42 -95 -85 -183 -44 -87 -79 -163 -79 -168 0 -5 -9 -20 -20 -34 -11 -14 -20 -34 -20 -43 0 -10 -7 -24 -16 -31 -14 -11 -18 -11 -29 4 -7 9 -22 17 -35 17 -12 0 -33 9 -47 20 -14 11 -32 20 -40 20 -8 0 -26 9 -40 20 -14 11 -33 20 -43 20 -9 0 -25 9 -35 21 l-19 20 23 47 c13 26 28 54 33 62 4 8 13 26 19 40 6 14 15 32 20 40 10 16 24 46 33 70 3 8 10 22 15 30 6 8 23 44 39 80 17 36 65 137 107 225 73 151 126 263 232 485 25 52 49 102 54 110 10 16 24 46 33 70 3 8 10 22 15 30 5 8 44 87 86 175 99 207 100 208 133 200 15 -4 34 -13 43 -21z m6226 -83 c17 -14 65 -50 105 -79 40 -30 125 -91 188 -137 63 -47 147 -107 185 -135 39 -28 120 -88 180 -133 61 -45 120 -89 132 -97 12 -8 58 -42 104 -75 45 -33 92 -67 104 -75 12 -8 47 -33 76 -56 49 -37 183 -135 357 -263 155 -113 165 -122 150 -137 -15 -15 -100 -63 -158 -90 -19 -9 -42 -22 -50 -29 -8 -7 -30 -16 -48 -20 -30 -6 -42 0 -130 66 -53 40 -114 88 -134 105 -20 18 -48 40 -62 50 -24 15 -28 15 -44 1 -9 -8 -63 -38 -120 -67 -56 -29 -104 -56 -107 -60 -3 -5 -19 -11 -35 -15 -17 -4 -30 -11 -30 -16 0 -5 -15 -15 -32 -23 -18 -9 -64 -33 -103 -55 -38 -22 -86 -48 -105 -56 -19 -9 -41 -22 -50 -30 -8 -7 -27 -16 -41 -20 -15 -4 -39 -19 -53 -34 l-27 -28 10 -84 c6 -46 13 -137 17 -201 l7 -117 -34 -15 c-19 -9 -41 -20 -49 -25 -8 -5 -26 -14 -40 -20 -14 -6 -46 -24 -72 -41 -64 -39 -80 -41 -88 -8 -4 14 -13 106 -19 205 -7 98 -19 273 -27 388 -8 116 -21 316 -29 445 -8 129 -19 296 -24 370 -11 146 -29 401 -38 546 l-6 91 23 16 c21 15 26 15 54 0 17 -9 45 -28 63 -42z m-1348 -656 c30 -158 29 -165 -28 -171 -14 -2 -39 -6 -56 -9 -16 -3 -79 -15 -140 -25 -60 -11 -150 -27 -200 -36 -49 -8 -115 -19 -145 -24 -30 -4 -104 -17 -164 -29 -60 -12 -112 -21 -114 -21 -7 0 4 -88 28 -220 12 -63 27 -155 35 -203 7 -49 19 -95 25 -102 13 -16 61 -13 167 11 34 7 92 18 130 24 70 10 147 24 340 60 61 12 124 20 140 18 26 -3 29 -7 36 -58 5 -30 15 -84 22 -120 12 -55 12 -67 1 -79 -12 -11 -241 -57 -406 -80 -30 -5 -89 -15 -130 -24 -41 -9 -107 -21 -147 -27 -105 -17 -104 -16 -87 -135 8 -55 19 -110 24 -123 6 -13 10 -37 11 -55 0 -40 21 -137 33 -155 5 -9 20 -12 40 -9 46 7 199 35 296 53 47 8 132 24 190 34 58 11 158 29 223 41 70 14 121 19 126 13 12 -14 55 -250 48 -267 -3 -9 -26 -18 -59 -22 -29 -4 -98 -15 -153 -25 -139 -26 -324 -58 -360 -64 -16 -2 -93 -16 -170 -31 -77 -14 -178 -33 -225 -41 -154 -26 -190 -33 -199 -39 -17 -10 -30 29 -46 132 -9 54 -21 118 -27 143 -5 25 -14 72 -18 105 -4 33 -15 96 -23 140 -26 129 -55 296 -62 350 -3 28 -10 64 -16 81 -5 17 -13 59 -18 95 -5 35 -21 129 -36 209 -14 80 -33 185 -40 233 -8 49 -17 96 -19 105 -13 42 -44 248 -38 253 9 9 234 53 430 84 46 8 118 20 160 29 42 8 129 24 192 35 63 11 156 28 205 37 123 23 189 31 196 24 3 -3 16 -54 28 -115z m-2894 15 c72 -11 180 -26 240 -35 193 -26 282 -48 360 -89 17 -9 33 -16 37 -16 15 0 102 -64 158 -117 65 -60 99 -113 138 -218 23 -63 26 -84 26 -215 1 -124 -2 -157 -23 -230 -13 -47 -29 -92 -36 -100 -6 -8 -18 -30 -25 -49 -23 -57 -147 -174 -228 -215 -39 -20 -82 -36 -95 -36 -12 0 -32 -7 -44 -15 -25 -17 -15 -17 -249 -20 -167 -3 -209 1 -317 24 -44 10 -62 -2 -71 -46 -7 -38 -31 -201 -52 -356 -9 -70 -21 -130 -26 -133 -5 -3 -52 1 -106 10 -53 9 -117 17 -142 18 l-45 3 -3 35 c-2 19 5 98 17 175 20 132 31 211 80 580 11 83 27 202 36 265 9 63 21 149 25 190 5 41 16 122 24 180 8 58 20 143 27 190 11 84 36 242 38 248 2 5 117 -8 256 -28z"/>
<path d="M16210 18875 c-7 -8 -45 -36 -84 -62 -39 -25 -154 -101 -256 -168 -102 -67 -193 -124 -202 -128 -10 -3 -18 -13 -18 -22 0 -15 115 -105 135 -105 7 0 20 -9 30 -20 10 -11 22 -20 27 -20 4 0 30 -15 56 -33 99 -69 211 -137 226 -137 17 0 32 62 46 185 5 44 16 116 24 160 8 44 22 130 31 190 9 61 18 118 20 128 4 22 -4 47 -15 47 -4 0 -13 -7 -20 -15z"/>
<path d="M6620 17612 c0 -17 38 -118 70 -187 53 -115 66 -145 110 -250 23 -55 50 -118 60 -140 9 -22 20 -48 23 -57 4 -10 12 -18 19 -17 7 0 85 79 173 176 88 96 172 188 188 204 30 33 33 42 15 57 -7 5 -128 49 -268 96 -140 47 -273 92 -295 100 -62 21 -95 27 -95 18z"/>
<path d="M12400 17799 c-148 -23 -305 -86 -405 -162 -61 -47 -215 -200 -215 -215 0 -7 15 -20 33 -29 48 -23 105 -54 180 -98 37 -22 80 -47 95 -55 15 -8 79 -50 143 -93 64 -42 120 -77 124 -77 4 0 18 -9 32 -20 14 -11 41 -20 60 -20 19 0 42 -4 51 -9 10 -5 49 -16 87 -25 83 -19 178 -45 295 -81 47 -15 105 -33 130 -40 105 -31 372 -129 412 -150 14 -8 36 -15 47 -15 12 0 24 -7 27 -15 3 -8 22 -17 41 -21 19 -4 37 -12 40 -20 2 -7 17 -16 33 -19 16 -3 34 -13 41 -21 6 -8 17 -14 25 -14 7 0 25 -12 41 -26 l28 -26 17 22 c15 18 18 41 18 119 -1 235 -44 411 -144 581 -45 77 -191 248 -213 249 -7 1 -17 10 -23 21 -6 11 -16 18 -22 14 -7 -4 -5 -10 6 -16 9 -5 16 -16 16 -24 0 -8 6 -36 14 -62 24 -82 36 -165 36 -252 0 -110 -27 -251 -55 -287 l-22 -27 -39 15 -39 15 1 69 c1 39 5 117 9 174 10 128 -5 218 -53 318 -40 84 -121 186 -181 228 -38 26 -52 29 -115 29 -61 0 -81 -4 -134 -32 -35 -17 -90 -52 -122 -77 -89 -68 -217 -219 -271 -320 -53 -100 -111 -123 -148 -60 -18 31 -19 38 -6 62 8 16 16 35 20 43 3 8 22 40 43 71 20 31 50 75 65 98 44 65 201 220 242 237 40 16 42 35 4 45 -34 10 -183 8 -249 -2z"/>
<path d="M10945 17470 c-38 -11 -82 -23 -97 -26 -15 -4 -33 -13 -39 -20 -6 -8 -16 -14 -22 -14 -22 0 -117 -73 -157 -120 -36 -43 -42 -57 -43 -100 -2 -46 1 -52 43 -95 25 -26 77 -62 115 -82 39 -19 95 -47 125 -63 92 -46 229 -110 237 -110 4 0 30 -11 58 -24 27 -13 77 -35 110 -47 33 -13 68 -30 78 -38 12 -10 21 -11 28 -4 7 7 -2 27 -27 64 l-36 54 4 69 4 69 46 42 c35 31 66 47 125 65 70 22 100 25 278 26 110 2 206 3 213 3 19 1 15 41 -5 41 -10 0 -45 16 -78 34 -86 49 -264 136 -277 136 -6 0 -19 6 -27 14 -14 12 -46 25 -181 75 -87 33 -223 62 -310 66 -76 4 -109 1 -165 -15z"/>
<path d="M11570 16969 c-39 -6 -73 -18 -86 -29 -11 -11 -26 -20 -32 -20 -17 0 -15 -5 12 -48 37 -57 149 -153 236 -202 81 -45 311 -160 321 -160 6 0 22 -9 36 -20 14 -11 33 -20 42 -20 17 0 109 -34 151 -55 14 -7 43 -16 65 -20 22 -4 54 -16 71 -26 17 -11 44 -19 59 -19 15 0 39 -7 53 -15 56 -30 271 -82 482 -116 188 -30 445 -31 579 -1 51 11 101 28 110 36 10 9 22 16 27 16 6 0 23 13 38 29 l28 29 -18 28 c-25 41 -76 94 -90 94 -6 0 -17 7 -24 15 -11 13 -98 57 -245 125 -22 10 -67 29 -100 41 -33 12 -80 30 -105 39 -25 10 -133 45 -240 79 -107 34 -223 70 -256 81 -34 11 -70 20 -80 20 -11 0 -46 9 -78 20 -33 11 -82 20 -109 20 -29 0 -57 6 -66 14 -9 7 -90 26 -181 41 -185 30 -484 42 -600 24z"/>
<path d="M6872 13988 c-9 -9 -12 -210 -12 -871 l0 -858 23 6 c22 7 46 22 200 124 43 28 82 51 86 51 4 0 16 9 26 20 10 11 22 20 26 20 11 0 154 97 168 113 8 11 10 198 9 708 l-3 694 -255 3 c-191 2 -259 -1 -268 -10z"/>
<path d="M9327 13993 c-4 -3 -7 -417 -7 -920 0 -846 1 -913 17 -913 9 0 25 7 35 17 10 9 26 21 37 27 10 6 38 24 62 41 24 16 51 34 60 40 9 5 36 23 60 40 24 16 51 34 60 40 9 5 36 23 60 40 51 34 76 50 106 66 12 6 27 26 33 43 15 42 13 1455 -2 1473 -8 10 -69 13 -263 13 -138 0 -255 -3 -258 -7z"/>
<path d="M19335 13990 c-7 -11 -8 -3920 -1 -3927 10 -10 580 -2 593 8 11 9 13 359 13 1964 0 1772 -1 1953 -16 1959 -27 11 -582 7 -589 -4z"/>
<path d="M12318 14504 c-172 -51 -262 -108 -395 -248 -73 -78 -98 -113 -140 -198 -47 -94 -61 -132 -92 -254 -6 -23 -14 -89 -17 -147 -13 -204 44 -407 168 -597 36 -55 177 -198 233 -236 78 -53 195 -104 293 -128 75 -19 279 -21 349 -5 190 45 359 153 501 323 48 57 139 248 165 346 29 111 31 348 4 450 -55 212 -127 338 -271 477 -111 108 -200 162 -341 208 -100 32 -137 38 -252 39 -87 1 -118 -4 -205 -30z m645 -541 c15 -7 27 -20 27 -28 0 -9 5 -23 10 -33 7 -12 7 -32 -2 -67 -11 -43 -18 -52 -52 -68 -34 -16 -44 -17 -84 -5 -60 17 -85 55 -79 121 5 56 25 82 75 95 40 10 61 7 105 -15z m-753 -43 c9 -5 23 -29 30 -54 10 -37 10 -52 -2 -86 -12 -37 -20 -45 -61 -60 -92 -35 -163 16 -158 114 2 56 19 81 65 101 29 12 88 5 126 -15z m310 -351 l28 -22 35 22 c44 27 65 27 94 -1 33 -31 29 -49 -22 -106 -42 -47 -48 -50 -94 -50 -58 0 -90 18 -126 72 -26 39 -26 46 8 84 25 27 40 28 77 1z m595 -121 c25 -19 27 -26 23 -70 -13 -132 -160 -322 -306 -395 l-77 -38 -146 -3 c-172 -4 -253 13 -379 80 -120 64 -237 193 -254 280 -6 33 -3 38 24 58 16 12 36 18 42 14 30 -17 58 -49 58 -67 0 -10 28 -48 63 -84 92 -96 196 -146 341 -164 178 -22 288 10 388 112 55 57 128 179 128 215 0 24 39 84 54 84 8 0 26 -10 41 -22z"/>
<path d="M12555 12243 c-9 -32 -23 -73 -31 -91 -8 -18 -18 -50 -23 -70 -6 -20 -24 -75 -41 -122 -17 -47 -37 -105 -44 -130 -7 -25 -68 -205 -136 -400 -67 -195 -135 -393 -150 -440 -16 -47 -45 -130 -65 -185 -20 -55 -40 -113 -45 -130 -4 -16 -16 -52 -25 -80 -10 -27 -26 -72 -35 -100 -9 -27 -22 -66 -29 -85 -7 -19 -21 -61 -32 -93 l-20 -59 16 -49 c24 -72 114 -162 196 -196 84 -34 200 -34 268 0 39 19 47 29 63 77 19 55 61 203 78 270 28 110 81 284 91 296 31 38 109 -4 109 -59 0 -15 9 -61 20 -104 34 -136 60 -254 60 -276 0 -35 45 -167 63 -185 13 -13 38 -16 130 -16 105 0 117 2 177 30 112 53 228 197 230 285 0 37 -70 226 -185 494 -7 17 -22 57 -35 90 -12 33 -30 77 -41 97 -10 20 -19 42 -19 48 0 6 -8 30 -19 53 -10 23 -47 112 -81 197 -35 85 -89 220 -121 300 -33 79 -59 149 -59 155 0 5 -7 24 -16 40 -9 17 -45 104 -80 195 -83 210 -125 300 -140 300 -7 0 -20 -26 -29 -57z"/>
<path d="M10965 8253 c-142 -8 -310 -69 -329 -119 -11 -27 43 -93 113 -139 37 -25 72 -45 76 -45 4 0 18 -9 32 -20 14 -11 34 -20 43 -20 10 0 23 -6 29 -14 7 -8 25 -18 41 -21 15 -3 45 -15 66 -26 21 -10 45 -19 54 -19 9 0 25 -6 36 -14 16 -12 40 -20 114 -41 3 -1 16 -6 30 -12 46 -19 125 -45 165 -54 22 -5 54 -16 70 -24 17 -7 75 -26 130 -40 55 -15 114 -31 130 -37 43 -14 145 -39 180 -43 36 -4 97 -18 180 -38 129 -33 317 -52 510 -52 176 0 193 2 237 23 26 12 52 22 58 22 8 0 9 11 5 33 -10 48 -98 135 -204 202 -9 6 -34 22 -56 36 -64 40 -260 138 -328 164 -34 12 -75 30 -92 38 -16 8 -43 19 -60 25 -54 18 -99 35 -147 54 -26 10 -56 18 -67 18 -11 0 -40 9 -63 19 -87 38 -203 68 -443 115 -149 29 -338 40 -510 29z"/>
<path d="M10617 7893 c-4 -3 -7 -54 -7 -112 0 -271 63 -490 193 -671 39 -55 174 -190 189 -190 13 0 9 28 -7 59 -35 69 -54 278 -35 387 7 38 14 87 17 109 7 54 28 75 73 75 70 0 82 -39 51 -170 -29 -128 -3 -310 63 -434 29 -56 121 -168 155 -192 41 -27 114 -46 158 -40 138 19 327 176 467 389 43 64 86 122 96 127 64 34 110 -26 80 -105 -28 -73 -150 -236 -253 -337 -60 -60 -115 -108 -123 -108 -8 0 -14 -10 -14 -22 l0 -21 136 6 c74 3 150 11 167 16 18 5 57 15 88 21 31 6 107 36 169 66 103 51 123 66 224 164 l110 109 -23 25 c-13 14 -55 41 -95 61 -39 21 -89 48 -111 61 -22 13 -53 31 -70 40 -16 9 -93 58 -170 109 -77 51 -151 95 -165 98 -87 20 -310 78 -425 111 -98 28 -521 174 -595 205 -106 45 -211 99 -290 149 -38 24 -43 25 -53 15z"/>
<path d="M13000 7714 c0 -4 11 -19 24 -33 34 -37 58 -115 51 -165 -18 -113 -153 -174 -405 -183 -123 -4 -229 4 -287 22 -18 6 -23 3 -23 -9 0 -9 8 -19 18 -23 9 -3 26 -14 37 -23 20 -17 55 -38 105 -61 14 -6 32 -15 40 -20 48 -27 135 -69 143 -69 5 0 20 -9 34 -20 14 -11 33 -20 41 -20 9 0 23 -6 31 -14 9 -8 32 -19 51 -24 19 -6 58 -18 85 -28 28 -9 73 -25 100 -34 174 -61 390 -54 530 16 92 47 103 54 159 110 62 60 76 87 76 140 0 40 -56 109 -106 130 -17 7 -36 20 -44 28 -7 9 -18 16 -25 16 -7 0 -66 27 -130 60 -64 33 -123 60 -130 60 -7 0 -18 6 -24 14 -7 8 -24 17 -39 21 -15 3 -55 20 -90 36 -102 49 -222 88 -222 73z"/>
<path d="M7305 6986 c-44 -17 -89 -36 -100 -42 -11 -6 -56 -24 -100 -39 -44 -15 -87 -33 -95 -40 -8 -7 -24 -15 -35 -18 -53 -15 -158 -56 -168 -66 -6 -6 -16 -11 -23 -11 -6 0 -17 -6 -23 -14 -9 -11 1 -26 51 -72 35 -33 124 -119 198 -191 75 -73 143 -133 152 -133 23 0 32 15 66 115 17 50 54 151 82 225 105 281 116 321 88 319 -7 -1 -49 -15 -93 -33z"/>
<path d="M9129 6109 c-10 -10 -19 -24 -19 -29 0 -10 -112 -249 -131 -280 -5 -8 -14 -26 -20 -40 -6 -14 -15 -32 -20 -40 -5 -8 -12 -22 -15 -30 -4 -8 -28 -61 -55 -117 -27 -56 -49 -108 -49 -115 0 -22 264 -144 350 -163 83 -18 127 -15 198 11 51 19 127 85 171 149 80 116 97 285 38 385 -50 86 -98 122 -295 222 l-133 67 -20 -20z"/>
<path d="M15443 5888 c4 -18 11 -87 16 -153 6 -66 18 -202 26 -303 9 -101 20 -194 25 -208 10 -26 25 -31 36 -13 3 6 21 18 38 26 17 8 45 22 61 32 82 45 182 103 195 111 8 6 26 15 40 21 72 30 130 72 130 94 0 6 -27 31 -60 56 -33 24 -98 73 -144 109 -47 36 -135 103 -196 150 -61 46 -116 90 -122 97 -6 7 -19 13 -30 13 -17 0 -19 -5 -15 -32z"/>
<path d="M11046 5448 c-3 -13 -16 -113 -31 -223 -14 -110 -35 -264 -47 -342 -24 -164 -22 -173 46 -173 22 -1 77 -7 121 -15 198 -36 340 2 436 117 59 71 82 145 82 268 1 96 -2 109 -27 155 -32 58 -91 122 -120 131 -12 4 -30 14 -41 24 -11 10 -31 20 -45 23 -14 3 -43 10 -65 16 -31 9 -259 40 -297 41 -4 0 -10 -10 -12 -22z"/>
</g>
</g>
</svg>
