<?xml version="1.0" standalone="no"?>
<!DOCTYPE svg PUBLIC "-//W3C//DTD SVG 1.1//EN"
 "http://www.w3.org/Graphics/SVG/1.1/DTD/svg11.dtd">
<!-- Created with svg_stack (http://github.com/astraw/svg_stack) -->
<svg xmlns:sodipodi="http://sodipodi.sourceforge.net/DTD/sodipodi-0.dtd" xmlns="http://www.w3.org/2000/svg" version="1.1" width="270.0" height="206.0">
  <defs/>
  <g id="id0:id0" transform="matrix(1.25,0,0,1.25,0.0,0.0)"><g transform="translate(0.000000,164.800000) scale(0.040000,-0.040000)" fill="#ba0c0f" stroke="none">
<path d="M1666 4111 c-3 -4 -31 -11 -63 -15 -113 -13 -284 -65 -468 -141 -305 -126 -595 -327 -766 -531 -173 -206 -320 -499 -345 -684 -4 -28 -11 -53 -15 -56 -12 -7 -11 -320 0 -342 5 -9 17 -50 26 -90 63 -276 311 -684 685 -1126 210 -250 620 -674 682 -707 12 -6 -41 58 -118 142 -281 311 -406 462 -549 663 -335 473 -515 922 -515 1286 0 180 62 342 208 539 240 327 698 637 1077 731 113 27 307 37 427 21 232 -31 436 -117 571 -241 173 -158 214 -322 243 -978 5 -114 10 -155 20 -159 8 -3 31 10 53 29 21 18 115 99 208 179 311 269 458 364 740 478 336 136 524 189 698 197 148 8 214 -4 324 -56 205 -98 314 -291 314 -555 0 -494 -450 -1034 -1378 -1652 -262 -174 -702 -435 -1025 -608 -80 -43 -172 -92 -205 -110 -33 -18 -114 -60 -180 -95 -66 -34 -147 -77 -180 -95 -33 -18 -97 -51 -142 -74 -45 -23 -85 -46 -88 -52 -9 -14 76 -11 94 4 9 8 48 24 86 36 206 67 741 301 1115 487 991 494 1675 995 1991 1461 90 132 167 308 184 420 4 24 11 45 16 49 12 7 12 331 0 338 -5 3 -12 27 -16 53 -18 125 -89 291 -175 404 -86 114 -176 191 -267 228 -309 124 -674 86 -1136 -120 -279 -125 -619 -350 -834 -553 -39 -36 -72 -64 -75 -61 -2 3 4 80 14 172 24 220 25 388 3 472 -40 156 -100 265 -209 380 -147 155 -396 294 -565 317 -28 4 -54 11 -57 15 -7 12 -401 12 -408 0z"/>
</g>
</g>
</svg>
