<?xml version="1.0" standalone="no"?>
<!DOCTYPE svg PUBLIC "-//W3C//DTD SVG 1.1//EN"
 "http://www.w3.org/Graphics/SVG/1.1/DTD/svg11.dtd">
<!-- Created with svg_stack (http://github.com/astraw/svg_stack) -->
<svg xmlns:sodipodi="http://sodipodi.sourceforge.net/DTD/sodipodi-0.dtd" xmlns="http://www.w3.org/2000/svg" version="1.1" width="800.0" height="800.0">
  <defs/>
  <g id="id0:id0" transform="matrix(1.25,0,0,1.25,0.0,0.0)"><g transform="translate(0.000000,640.000000) scale(0.040000,-0.040000)" fill="#ffffff" stroke="none">
<path d="M0 8000 l0 -8000 8000 0 8000 0 0 8000 0 8000 -8000 0 -8000 0 0 -8000z m8570 7166 c439 -41 752 -92 1120 -182 252 -61 647 -185 845 -264 44 -17 100 -39 124 -47 128 -43 596 -266 796 -378 615 -345 1116 -724 1600 -1209 412 -413 717 -795 1010 -1265 85 -136 81 -131 184 -311 496 -868 825 -1976 891 -2995 13 -205 13 -798 0 -997 -59 -894 -298 -1797 -691 -2608 -138 -285 -208 -413 -399 -725 -160 -261 -449 -646 -691 -920 -115 -131 -443 -461 -587 -591 -120 -109 -305 -261 -482 -396 -104 -79 -202 -147 -495 -341 -29 -20 -249 -149 -325 -192 -133 -74 -540 -273 -683 -334 -425 -180 -986 -352 -1402 -430 -60 -12 -132 -25 -160 -31 -72 -14 -374 -57 -485 -69 -238 -26 -464 -33 -878 -28 -418 5 -587 16 -872 57 -431 61 -968 191 -1340 323 -69 25 -165 59 -215 77 -248 89 -763 332 -993 469 -57 33 -106 61 -108 61 -8 0 -153 92 -340 216 -582 385 -1136 889 -1575 1434 -152 188 -338 441 -424 575 -120 188 -255 410 -255 421 0 2 -18 33 -40 69 -90 147 -310 618 -402 860 -266 700 -401 1298 -470 2075 -27 304 -15 962 22 1275 5 44 17 139 25 210 37 305 117 676 234 1090 45 162 203 601 261 731 11 22 28 63 38 90 34 85 197 418 273 556 332 606 710 1115 1204 1617 570 580 1240 1059 1973 1413 518 250 1008 420 1577 548 314 70 706 128 1025 150 85 6 175 12 200 14 110 9 757 -4 910 -18z"/>
<path d="M7495 14564 c-330 -31 -457 -48 -731 -99 -919 -171 -1819 -554 -2589 -1102 -163 -115 -406 -310 -560 -448 -1119 -1002 -1851 -2327 -2105 -3812 -107 -629 -119 -1296 -35 -1933 89 -671 265 -1283 547 -1900 44 -96 95 -202 113 -235 18 -33 52 -96 75 -140 104 -195 239 -415 390 -634 91 -132 93 -135 209 -283 301 -385 683 -772 1060 -1076 866 -697 1921 -1173 3006 -1356 594 -100 1220 -119 1830 -55 463 49 1008 173 1455 332 120 43 243 89 285 107 11 5 76 33 145 62 504 212 1020 524 1521 918 233 184 616 553 819 790 194 226 439 548 530 695 8 13 54 86 101 162 465 745 770 1569 908 2448 145 924 89 1874 -164 2780 -223 801 -601 1557 -1109 2220 -192 251 -344 422 -592 670 -317 317 -600 548 -974 799 -658 439 -1360 744 -2155 935 -309 74 -606 119 -1021 156 -213 19 -758 18 -959 -1z m1455 -474 c19 -5 69 -18 110 -30 41 -12 87 -25 103 -27 15 -3 30 -9 33 -14 3 -5 16 -9 30 -9 14 0 39 -7 55 -16 25 -12 30 -20 24 -37 -3 -12 -11 -38 -16 -57 -17 -59 -30 -104 -39 -135 -5 -16 -14 -48 -20 -70 -12 -44 -26 -93 -41 -142 -5 -18 -13 -49 -19 -68 -5 -19 -14 -51 -20 -70 -5 -19 -14 -51 -20 -70 -5 -19 -14 -51 -20 -70 -5 -19 -14 -51 -20 -70 -5 -19 -14 -51 -20 -70 -5 -19 -15 -52 -21 -72 -15 -56 -28 -118 -24 -121 2 -2 21 -8 42 -13 21 -6 54 -15 73 -20 19 -6 46 -13 60 -15 14 -3 34 -9 45 -14 11 -4 38 -13 60 -18 22 -6 72 -20 110 -32 39 -11 88 -25 110 -31 22 -6 50 -15 63 -20 13 -5 34 -9 47 -9 13 0 26 -4 29 -9 3 -5 18 -11 33 -14 16 -3 64 -15 108 -27 44 -12 92 -24 108 -27 15 -3 30 -9 33 -14 3 -5 15 -9 26 -9 24 0 75 -15 126 -36 26 -11 32 -19 27 -32 -4 -9 -15 -48 -25 -87 -22 -87 -51 -178 -60 -188 -3 -4 -29 -1 -56 7 -64 19 -189 54 -239 67 -22 6 -48 15 -57 20 -10 5 -29 9 -42 9 -14 0 -28 5 -31 10 -3 6 -17 10 -30 10 -13 0 -34 4 -47 9 -13 5 -43 14 -68 21 -25 7 -56 16 -70 20 -14 4 -45 13 -70 20 -25 7 -56 16 -70 20 -35 10 -88 25 -140 40 -25 7 -56 16 -70 20 -14 4 -45 13 -70 20 -25 7 -56 16 -70 20 -14 4 -45 13 -70 20 -25 7 -56 16 -70 20 -14 4 -45 13 -70 20 -25 7 -56 16 -70 20 -14 4 -45 13 -70 20 -100 28 -125 39 -121 52 2 7 7 27 12 43 9 33 24 87 39 140 6 19 15 51 20 70 6 19 14 50 19 68 6 17 14 48 20 67 5 19 14 51 20 70 10 37 25 89 40 143 5 17 19 66 31 107 12 41 24 86 26 100 3 14 9 34 14 45 5 11 11 31 13 45 9 44 58 214 68 232 5 10 9 29 9 42 0 14 5 28 10 31 6 3 10 17 10 30 0 13 4 34 9 47 5 13 12 31 15 40 4 15 9 15 53 1 26 -8 64 -19 83 -23z m-1878 -100 c3 -52 11 -151 17 -220 6 -69 16 -174 21 -235 5 -60 14 -164 20 -230 7 -66 15 -158 18 -205 l7 -85 60 1 c33 1 116 7 185 13 158 15 325 30 460 41 58 5 164 14 235 20 72 7 148 13 170 13 l40 2 12 -65 c6 -36 12 -105 14 -155 l2 -90 -44 -8 c-24 -4 -96 -12 -159 -17 -199 -17 -341 -29 -460 -40 -162 -15 -338 -30 -455 -40 -55 -4 -161 -14 -235 -21 -74 -7 -173 -13 -220 -13 l-85 -1 -7 60 c-10 86 -46 485 -78 870 -4 55 -14 159 -21 230 -6 72 -12 153 -13 180 l-1 50 90 7 c216 15 348 28 354 33 3 3 19 5 36 3 l30 -3 7 -95z m-1284 -295 c26 -38 49 -74 52 -80 6 -11 33 -53 275 -420 202 -307 220 -346 219 -465 -1 -71 -5 -94 -28 -140 -60 -121 -99 -163 -295 -309 -69 -52 -292 -201 -301 -201 -4 0 -14 -7 -21 -16 -7 -9 -22 -20 -34 -25 -21 -10 -100 -61 -180 -116 -25 -18 -48 -33 -51 -33 -2 0 -26 -15 -53 -34 -63 -45 -239 -146 -252 -146 -6 0 -23 -8 -37 -18 -45 -31 -155 -70 -255 -92 -67 -14 -131 -3 -207 35 -54 27 -141 118 -192 200 -20 33 -55 86 -77 118 -23 31 -41 61 -41 66 0 4 -9 16 -20 26 -11 10 -20 23 -20 29 0 6 -18 35 -40 64 -22 29 -40 54 -40 56 0 3 -43 68 -95 146 -52 78 -95 145 -95 149 0 4 -9 16 -20 26 -11 10 -20 23 -20 28 0 6 -10 21 -22 34 l-21 23 18 20 c10 11 22 20 26 20 4 0 47 26 96 59 144 96 291 191 296 191 2 0 19 -24 37 -52 18 -29 81 -125 139 -213 58 -88 110 -167 116 -177 5 -9 25 -37 43 -63 17 -25 32 -48 32 -50 0 -4 77 -119 110 -163 14 -19 46 -49 71 -68 71 -52 123 -47 258 26 64 35 71 39 126 74 186 120 384 256 425 293 48 43 100 127 100 162 0 27 -24 85 -52 129 -15 24 -28 45 -28 46 0 2 -61 95 -135 206 -74 112 -135 204 -135 206 0 1 -33 52 -72 112 -107 160 -102 145 -65 173 17 13 36 26 42 29 11 5 135 86 270 176 92 61 85 63 153 -41z m5396 -470 c105 -97 239 -218 361 -325 59 -52 145 -129 190 -170 46 -41 131 -118 190 -170 59 -52 147 -131 195 -175 76 -69 198 -178 343 -307 l42 -36 -25 -35 c-14 -19 -63 -75 -110 -125 l-86 -90 -44 36 c-25 20 -77 65 -116 101 -38 36 -121 111 -183 166 -63 55 -151 134 -196 175 -46 41 -131 118 -190 170 -59 52 -144 130 -189 173 -45 42 -90 77 -98 77 -18 0 -148 -138 -148 -157 0 -6 19 -26 43 -44 23 -18 76 -64 118 -103 42 -39 127 -116 189 -171 62 -55 148 -131 190 -170 43 -38 126 -113 185 -165 59 -52 134 -120 168 -151 l61 -57 -55 -62 c-29 -34 -72 -82 -95 -107 l-41 -46 -70 64 c-38 35 -122 111 -188 169 -65 58 -151 134 -191 170 -39 36 -120 108 -178 160 -59 52 -147 132 -196 177 -49 45 -100 89 -114 98 -23 16 -27 15 -48 -1 -31 -24 -128 -139 -128 -152 0 -6 15 -21 33 -33 17 -13 69 -57 113 -99 45 -41 132 -120 194 -175 62 -55 150 -134 195 -175 46 -41 131 -118 190 -170 151 -134 289 -262 293 -272 4 -8 -66 -93 -154 -187 l-52 -55 -43 34 c-24 19 -80 68 -125 109 -45 42 -127 117 -184 166 -56 50 -142 126 -191 170 -107 97 -282 254 -392 353 -45 40 -121 109 -169 153 -47 44 -99 90 -116 102 -16 12 -67 58 -114 102 l-85 80 51 62 c56 67 137 159 261 293 159 174 227 250 248 277 11 15 57 67 101 114 45 48 124 134 176 193 52 58 99 106 104 106 5 0 41 -29 80 -65z m-7631 -1469 c184 -48 257 -132 257 -297 0 -91 11 -100 54 -44 31 40 95 85 147 103 70 24 140 12 256 -44 59 -29 163 -133 163 -163 0 -11 5 -23 10 -26 6 -3 10 -47 10 -97 0 -75 -5 -106 -31 -182 -29 -83 -77 -193 -113 -256 -8 -14 -36 -68 -62 -120 -26 -52 -66 -131 -90 -175 -23 -44 -105 -204 -181 -355 -259 -509 -365 -715 -378 -728 -10 -11 -33 -2 -126 46 -63 33 -170 89 -239 124 -69 35 -134 69 -145 75 -11 6 -40 21 -65 33 -202 99 -638 326 -652 338 -24 20 -23 33 6 84 25 47 181 349 369 718 105 208 250 488 327 635 23 45 36 66 97 155 71 105 198 184 305 189 15 0 51 -5 81 -13z m9339 -217 c9 -19 33 -74 53 -124 21 -49 48 -114 61 -143 13 -29 24 -55 24 -57 0 -2 14 -34 30 -70 17 -36 30 -68 30 -70 0 -2 14 -34 30 -70 17 -36 30 -68 30 -70 0 -2 14 -34 30 -70 17 -36 30 -68 30 -70 0 -3 9 -24 19 -48 11 -23 52 -118 91 -212 40 -93 80 -188 90 -210 10 -22 28 -65 40 -95 13 -30 27 -59 32 -65 4 -5 8 -15 8 -22 0 -7 14 -42 30 -78 17 -36 30 -68 30 -70 0 -3 9 -24 19 -48 11 -23 33 -72 50 -109 l30 -68 -46 -20 c-25 -11 -49 -20 -53 -20 -5 0 -25 -9 -47 -19 -71 -36 -133 -61 -148 -61 -11 0 -65 95 -65 115 0 2 -13 34 -30 70 -16 36 -30 68 -30 70 0 3 -10 27 -21 53 -12 26 -27 61 -34 77 -7 17 -25 56 -39 88 -14 32 -26 60 -26 62 0 10 -51 114 -58 118 -4 3 -25 -3 -47 -13 -39 -17 -206 -88 -272 -116 -66 -28 -99 -42 -145 -63 -26 -11 -50 -21 -53 -21 -2 0 -28 -11 -57 -24 -29 -13 -82 -36 -118 -51 -36 -15 -85 -37 -110 -48 -135 -60 -178 -75 -189 -64 -6 6 -11 14 -11 19 0 4 -13 37 -30 73 -16 36 -30 68 -30 70 0 3 -10 27 -21 53 -12 26 -27 61 -34 77 -7 17 -25 56 -39 88 -14 32 -26 62 -26 67 0 12 25 26 145 77 55 24 111 48 125 54 25 12 58 25 95 39 25 10 76 32 135 58 25 11 90 39 145 62 55 23 123 52 150 65 28 12 78 33 112 46 35 13 65 30 68 37 4 12 -49 146 -67 166 -4 6 -8 16 -8 23 0 7 -10 35 -21 61 -12 26 -28 62 -35 80 -14 31 -29 67 -58 135 -8 17 -23 52 -34 77 -47 105 -50 118 -39 129 6 6 14 11 19 11 4 0 35 13 70 29 129 59 183 81 193 77 5 -1 17 -18 27 -37z m-4662 -789 c114 -10 194 -22 280 -40 30 -7 73 -16 95 -20 298 -59 740 -262 999 -460 32 -25 68 -52 80 -60 101 -69 382 -349 445 -444 8 -11 26 -33 39 -48 14 -15 30 -36 36 -46 6 -11 36 -58 68 -104 166 -246 311 -579 378 -868 12 -52 26 -111 30 -130 20 -81 51 -331 43 -343 -3 -5 -89 75 -192 177 l-187 186 -75 0 c-76 0 -99 9 -99 39 0 16 -35 139 -51 179 -5 12 -13 32 -18 45 -65 169 -208 427 -303 548 -15 19 -47 58 -70 88 -215 272 -540 513 -888 659 -30 13 -63 28 -72 33 -10 5 -25 9 -33 9 -8 0 -23 4 -33 9 -32 17 -197 62 -292 80 -91 17 -120 21 -245 33 -223 21 -378 13 -625 -33 -110 -21 -284 -69 -355 -99 -11 -4 -36 -14 -55 -21 -126 -46 -425 -217 -538 -308 -144 -116 -316 -288 -423 -423 -39 -50 -135 -190 -160 -234 -36 -64 -135 -266 -148 -304 -7 -19 -17 -44 -21 -55 -8 -18 -19 -50 -64 -195 l-14 -45 -238 -3 c-131 -1 -244 0 -250 2 -8 3 -9 16 -3 43 4 21 11 52 14 68 32 149 136 425 228 605 65 128 121 225 147 255 9 11 20 27 24 35 3 8 19 31 34 51 15 19 41 53 57 75 135 178 321 365 498 501 52 39 235 165 257 176 8 4 38 21 65 37 48 30 188 99 270 135 22 10 54 23 70 30 41 18 230 81 302 101 166 46 301 69 487 83 65 6 121 13 125 16 7 8 227 -1 381 -15z m-893 -2211 c27 -7 71 -22 100 -35 66 -29 92 -75 96 -166 l2 -63 -158 -3 c-143 -2 -158 -1 -164 15 -3 10 -15 28 -26 41 l-20 22 -297 0 -297 0 -22 -24 c-17 -18 -22 -33 -19 -62 3 -33 8 -41 38 -56 30 -15 73 -17 315 -18 274 -1 478 -15 557 -39 48 -15 94 -54 112 -94 57 -131 46 -281 -27 -355 -78 -80 -203 -96 -692 -89 -370 6 -473 12 -489 28 -6 5 -19 9 -30 9 -31 0 -84 36 -105 71 -23 38 -36 145 -22 182 l11 28 152 -3 153 -3 3 -26 c2 -15 17 -39 33 -55 l30 -29 306 -3 306 -3 34 33 c37 36 42 71 15 103 -29 34 -81 45 -216 45 -208 0 -618 19 -661 31 -83 23 -145 66 -145 100 0 10 -4 21 -10 24 -6 4 -10 57 -10 125 0 68 4 121 10 125 6 3 10 14 10 24 0 23 74 91 98 91 10 0 22 3 26 8 23 23 137 29 533 31 288 1 438 -3 470 -10z m2113 -4 c25 -4 49 -11 55 -16 5 -5 17 -9 27 -9 22 0 85 -55 102 -89 17 -35 39 -141 34 -172 l-3 -24 -162 -3 -163 -2 -16 38 c-11 30 -25 44 -57 58 -37 17 -69 19 -302 19 -201 0 -268 -3 -295 -14 -84 -34 -100 -72 -100 -236 0 -131 8 -161 55 -205 47 -45 83 -50 346 -50 257 0 294 5 342 48 20 18 23 65 4 81 -9 6 -84 12 -203 13 l-189 3 0 85 0 85 370 0 370 0 3 -180 c2 -172 1 -187 -28 -245 -9 -19 -97 -65 -141 -74 -119 -24 -234 -31 -544 -31 -328 0 -490 9 -501 26 -3 5 -13 9 -23 9 -25 0 -141 77 -141 94 0 7 -7 19 -15 26 -32 27 -45 112 -45 304 0 199 7 247 50 331 20 38 38 56 75 77 28 15 60 28 72 28 12 0 25 5 28 10 3 6 25 10 48 11 23 0 51 4 62 9 23 10 818 6 885 -5z m3207 4 c27 -7 72 -23 101 -36 65 -30 88 -71 93 -163 l4 -65 -158 -3 -157 -3 -10 25 c-20 54 -30 56 -345 56 l-291 0 -29 -30 -28 -30 12 -40 c8 -28 17 -40 31 -40 10 0 22 -4 25 -10 4 -6 113 -10 293 -10 264 -1 493 -15 547 -35 71 -26 125 -67 125 -96 0 -10 4 -20 9 -23 24 -15 32 -184 12 -256 -23 -85 -106 -139 -236 -156 -88 -11 -806 -11 -900 0 -77 9 -148 29 -182 52 -34 21 -53 56 -68 121 -14 61 -11 106 10 123 8 7 68 10 161 8 l149 -3 3 -27 c2 -16 18 -40 38 -58 l35 -30 295 0 c307 0 320 2 356 44 22 26 23 55 2 84 -28 41 -75 52 -222 52 -240 0 -623 21 -680 37 -63 17 -107 53 -127 100 -20 47 -20 241 -1 286 19 44 73 91 121 105 22 6 56 15 75 20 52 15 878 15 937 1z m-8227 -26 c117 -27 175 -65 212 -136 l28 -52 0 -253 c0 -139 -4 -260 -9 -270 -42 -84 -52 -97 -98 -122 -27 -15 -64 -31 -83 -35 -19 -5 -316 -9 -660 -9 l-625 -1 -3 435 c-1 239 0 441 3 448 6 16 1164 12 1235 -5z m798 -12 c2 -13 -1 -33 -6 -45 -6 -12 -13 -42 -17 -68 -4 -34 -12 -51 -30 -62 -22 -15 -25 -24 -25 -81 0 -53 4 -68 20 -82 17 -15 20 -30 20 -90 0 -62 -3 -75 -20 -85 -28 -18 -29 -122 -1 -152 15 -17 20 -40 23 -111 l3 -90 -185 0 -185 0 -3 435 c-1 239 0 441 3 448 3 10 50 12 202 10 l198 -3 3 -24z m817 -71 l0 -95 -145 0 -145 0 1 35 c2 50 15 122 26 143 8 16 23 17 136 15 l127 -3 0 -95z m2020 -350 l0 -445 -160 0 -160 0 -3 435 c-1 239 0 441 3 448 3 10 42 12 162 10 l158 -3 0 -445z m2103 405 c2 -22 8 -44 13 -49 5 -6 9 -29 9 -53 0 -24 5 -52 12 -62 16 -26 3 -54 -22 -46 -18 6 -20 2 -20 -47 -1 -29 -2 -174 -3 -323 l-2 -270 -160 0 -160 0 -3 435 c-1 239 0 441 3 448 3 10 43 12 167 10 l163 -3 3 -40z m1177 -405 l0 -445 -250 -3 -250 -2 -49 49 -48 48 2 178 c0 98 3 183 7 188 3 5 61 -46 128 -113 71 -71 128 -120 134 -116 8 5 11 104 11 330 0 177 3 326 7 330 4 3 75 5 157 4 l151 -3 0 -445z m-5640 165 l0 -60 -245 0 -245 0 -3 36 c-2 19 2 47 7 62 l11 27 237 -2 238 -3 0 -60z m4901 -401 l112 -109 -9 -75 c-50 -422 -209 -851 -444 -1199 -28 -40 -55 -82 -61 -93 -6 -11 -22 -31 -36 -46 -13 -15 -31 -37 -39 -48 -66 -100 -304 -335 -453 -449 -113 -86 -134 -102 -171 -127 -305 -203 -693 -357 -1055 -418 -36 -7 -87 -16 -115 -20 -257 -46 -672 -25 -1000 49 -103 23 -329 95 -405 128 -19 8 -44 19 -55 24 -236 101 -464 239 -670 406 -77 61 -307 287 -340 333 -14 19 -46 60 -70 90 -42 51 -86 110 -110 149 -6 9 -31 48 -56 86 -132 199 -297 590 -344 810 -3 17 -10 48 -16 70 -11 47 -30 151 -32 180 l-2 20 245 0 244 0 12 -35 c6 -19 17 -60 24 -90 19 -86 46 -175 95 -304 36 -97 103 -234 148 -303 15 -24 27 -45 27 -47 0 -6 83 -130 114 -169 14 -17 42 -54 63 -81 53 -67 266 -282 333 -334 30 -24 83 -65 118 -93 35 -27 67 -49 72 -49 4 0 31 -16 60 -35 62 -42 258 -141 355 -179 72 -29 117 -44 195 -66 25 -7 56 -16 70 -20 36 -11 213 -45 300 -57 86 -12 466 -8 555 5 134 20 149 22 185 32 19 5 58 14 85 21 262 62 560 205 794 381 20 15 50 37 66 48 36 24 335 320 335 332 0 4 15 25 33 45 18 21 40 49 50 63 9 14 32 48 51 75 87 128 166 278 237 450 16 40 62 181 71 220 5 22 14 58 19 80 32 126 49 267 55 475 3 102 7 191 10 199 4 13 34 -14 350 -325z m-4621 231 l0 -80 -130 0 -130 0 4 75 c2 41 5 79 8 83 2 4 59 6 126 5 l122 -3 0 -80z m-296 -128 c5 -13 11 -39 13 -58 l3 -34 -245 0 -245 0 -3 44 c-6 75 -19 71 238 71 l230 0 9 -23z m366 -217 l0 -95 -150 0 -150 0 -3 40 c-2 22 -8 44 -13 50 -10 10 -12 88 -2 99 4 3 77 5 162 4 l156 -3 0 -95z m6487 -1519 c24 -16 52 -39 62 -50 11 -12 25 -21 31 -21 7 0 19 -7 26 -16 8 -9 31 -27 51 -40 55 -35 52 -46 -39 -153 -18 -21 -33 -42 -33 -46 0 -7 -26 -41 -87 -114 -18 -21 -33 -42 -33 -46 0 -4 -15 -25 -32 -46 -31 -36 -54 -66 -133 -169 -19 -25 -48 -63 -65 -85 -44 -58 -90 -117 -130 -171 -19 -25 -48 -63 -65 -85 -16 -21 -46 -59 -65 -85 -19 -25 -50 -65 -69 -87 l-33 -41 30 -26 c17 -14 49 -38 72 -55 22 -16 54 -40 69 -52 29 -23 61 -30 61 -14 0 9 39 61 99 132 17 20 31 41 31 46 0 6 10 18 21 29 12 10 32 35 45 54 13 19 39 54 57 77 17 23 68 90 112 148 44 59 94 124 110 144 17 20 39 47 48 61 9 14 32 43 50 66 17 23 65 84 104 137 40 53 77 98 83 102 11 7 119 -64 180 -119 14 -12 37 -30 53 -39 35 -23 34 -41 -5 -87 -18 -20 -49 -58 -68 -84 -61 -81 -99 -130 -114 -148 -9 -10 -26 -34 -39 -55 -14 -21 -34 -47 -46 -57 -11 -11 -21 -25 -21 -32 0 -7 -6 -17 -13 -21 -12 -7 -61 -69 -125 -157 -12 -17 -38 -51 -57 -76 -19 -25 -46 -61 -60 -82 -13 -20 -29 -39 -35 -43 -6 -4 -22 -23 -35 -43 -14 -21 -47 -66 -75 -102 -27 -35 -50 -67 -50 -70 1 -3 19 -18 41 -35 22 -16 57 -43 79 -60 21 -16 60 -46 86 -65 26 -19 57 -44 70 -56 12 -12 38 -31 58 -43 20 -13 36 -24 36 -25 0 -13 -35 -67 -55 -86 -14 -13 -25 -28 -25 -33 0 -5 -15 -26 -32 -47 -18 -20 -49 -58 -68 -84 -19 -26 -48 -64 -65 -86 -16 -22 -37 -49 -46 -61 l-15 -22 -99 74 c-54 41 -114 86 -134 101 -20 15 -52 38 -71 51 -19 14 -44 34 -54 46 -11 11 -25 21 -31 21 -7 0 -19 7 -26 17 -13 15 -79 67 -153 121 -17 12 -50 37 -73 55 -23 17 -72 55 -110 84 -37 28 -88 67 -112 85 -24 18 -61 47 -82 63 -21 17 -57 44 -79 60 -23 17 -55 41 -72 55 l-30 26 33 42 c19 23 48 60 64 82 17 22 44 58 60 79 17 21 46 60 65 85 19 26 51 67 70 91 19 24 49 62 65 85 48 64 88 117 115 151 14 17 34 43 45 59 11 15 54 72 95 125 111 144 127 166 154 207 14 20 30 39 36 43 6 4 22 23 36 43 25 37 49 70 114 154 19 25 62 80 94 124 59 78 97 124 102 124 2 0 22 -13 46 -29z m-8828 -210 c10 -14 36 -44 57 -66 20 -22 52 -59 71 -82 63 -80 146 -180 175 -210 15 -16 53 -61 83 -98 30 -38 80 -96 110 -130 30 -35 80 -93 110 -130 30 -38 80 -96 110 -130 208 -233 300 -403 300 -552 0 -74 -5 -92 -48 -180 -47 -95 -213 -242 -351 -311 -67 -33 -85 -37 -166 -40 -79 -3 -98 -1 -145 21 -55 24 -197 134 -214 165 -5 10 -32 42 -60 73 -60 67 -144 165 -336 395 -36 42 -85 101 -110 130 -25 29 -70 82 -100 118 -30 35 -62 65 -71 65 -8 1 -47 -27 -87 -61 -135 -119 -170 -148 -179 -148 -4 1 -35 33 -68 71 -33 39 -81 94 -106 123 -25 28 -56 67 -69 86 -13 19 -39 48 -57 63 -18 16 -33 34 -32 40 0 7 31 39 70 72 123 106 323 276 518 440 40 33 102 86 139 117 37 32 95 81 130 110 34 29 88 76 120 104 90 80 89 80 141 22 25 -28 54 -62 65 -77z m7575 -1507 c129 -45 208 -125 318 -324 17 -30 57 -100 88 -155 32 -55 71 -127 88 -160 16 -33 33 -68 38 -77 5 -10 9 -26 9 -36 0 -10 5 -23 11 -29 13 -13 14 -204 1 -230 -5 -10 -16 -31 -23 -48 -23 -49 -83 -120 -143 -170 -61 -49 -208 -149 -266 -181 -19 -11 -53 -31 -75 -45 -22 -14 -56 -33 -75 -42 -19 -10 -57 -31 -85 -47 -27 -17 -59 -34 -70 -40 -11 -6 -33 -19 -50 -30 -16 -11 -48 -29 -70 -40 -22 -11 -53 -29 -70 -40 -16 -11 -48 -29 -70 -40 -22 -11 -53 -29 -70 -39 -143 -86 -372 -200 -460 -228 -171 -56 -228 -57 -360 -4 -37 14 -165 125 -165 142 0 5 -12 25 -26 46 -14 21 -30 47 -35 58 -5 11 -17 34 -27 50 -11 17 -34 57 -52 90 -18 33 -37 66 -42 72 -6 7 -23 36 -38 65 -15 29 -39 74 -52 99 -14 25 -28 55 -31 65 -4 11 -13 37 -21 59 -17 44 -22 204 -7 233 5 9 17 36 26 59 27 64 152 182 296 278 70 47 129 85 132 85 4 0 46 24 95 54 49 29 115 68 148 86 32 18 73 41 89 51 17 10 48 28 70 39 22 11 54 29 70 40 38 24 61 37 160 89 44 24 87 48 95 55 36 29 307 155 375 173 22 7 56 16 75 21 54 15 150 13 199 -4z m-5544 -399 c674 -344 775 -398 775 -415 0 -4 13 -13 28 -19 44 -18 167 -150 186 -199 25 -65 22 -192 -8 -272 -30 -83 -70 -162 -90 -179 -9 -8 -16 -19 -16 -25 0 -20 -51 -63 -109 -91 -49 -25 -61 -27 -147 -23 -52 2 -94 0 -94 -4 0 -4 4 -8 9 -8 19 0 98 -116 116 -169 16 -48 16 -61 5 -105 -14 -56 -145 -326 -158 -326 -4 0 -12 4 -17 9 -6 5 -98 53 -205 107 -107 53 -203 104 -212 112 -16 14 -14 21 31 111 74 145 79 163 55 206 -27 51 -61 74 -241 166 -625 319 -621 318 -636 306 -8 -7 -39 -59 -68 -117 -29 -58 -63 -124 -77 -147 l-24 -43 -229 117 c-126 63 -229 117 -229 118 0 2 155 307 168 330 6 11 20 38 30 60 29 63 420 827 438 857 4 6 104 -43 719 -357z m2985 -584 c41 -6 95 -13 120 -17 25 -3 49 -10 55 -15 5 -5 16 -9 25 -9 32 0 116 -50 162 -97 51 -52 84 -129 107 -249 14 -78 15 -548 0 -628 -23 -130 -40 -175 -79 -220 -51 -57 -80 -81 -127 -105 -26 -12 -56 -27 -65 -32 -10 -5 -31 -9 -47 -9 -17 0 -32 -4 -35 -9 -12 -19 -204 -25 -811 -25 -772 -1 -804 2 -969 85 -98 49 -150 116 -180 234 -5 22 -11 186 -13 365 -4 314 1 402 28 452 5 10 9 24 9 31 0 24 68 122 97 139 31 19 117 62 148 73 38 14 110 26 214 36 58 5 107 12 110 15 10 9 1174 -4 1251 -15z"/>
<path d="M3348 11230 c-20 -11 -45 -32 -56 -47 -11 -16 -82 -152 -160 -303 -77 -151 -172 -336 -210 -412 -57 -110 -68 -139 -59 -151 17 -22 186 -107 200 -101 7 2 73 125 148 272 75 147 174 339 219 427 68 131 84 168 84 207 1 53 -26 91 -81 114 -40 17 -40 17 -85 -6z"/>
<path d="M3828 11034 c-27 -14 -98 -113 -98 -137 0 -6 -9 -23 -20 -37 -11 -14 -20 -32 -20 -40 0 -9 -4 -20 -9 -25 -5 -6 -52 -93 -104 -195 -52 -102 -133 -260 -180 -352 l-85 -167 21 -13 c43 -26 218 -111 221 -107 3 4 92 178 393 768 45 90 83 176 83 190 0 91 -121 159 -202 115z"/>
<path d="M3543 8323 c-10 -3 -13 -62 -13 -243 0 -208 2 -239 16 -244 9 -3 155 -6 325 -6 340 0 383 6 432 58 36 40 47 84 47 194 0 113 -17 160 -72 200 -60 42 -104 47 -423 47 -165 0 -306 -3 -312 -6z"/>
<path d="M3643 5486 c-12 -11 -56 -50 -98 -86 -42 -36 -93 -79 -113 -96 l-36 -32 32 -38 c117 -140 153 -183 202 -240 30 -35 80 -93 110 -129 30 -37 80 -95 111 -129 31 -35 62 -73 68 -85 7 -12 22 -26 34 -32 12 -6 35 -17 50 -26 21 -11 42 -13 73 -8 36 5 56 17 109 68 66 63 71 75 65 145 -3 40 -35 88 -140 208 -30 35 -80 93 -110 129 -74 89 -145 172 -204 240 -27 31 -62 74 -78 96 -32 44 -43 46 -75 15z"/>
<path d="M10842 4004 c-64 -23 -295 -141 -342 -173 -14 -10 -32 -21 -40 -24 -17 -8 -44 -24 -175 -104 -49 -30 -106 -65 -125 -79 -54 -37 -150 -137 -150 -156 0 -9 -4 -20 -10 -23 -22 -14 -4 -108 33 -175 53 -96 72 -128 94 -162 12 -21 23 -41 23 -46 0 -14 104 -108 133 -120 15 -7 43 -12 61 -12 38 0 142 32 201 62 110 56 203 107 245 133 22 14 42 25 45 25 3 0 34 17 68 38 35 21 70 42 77 46 113 56 279 193 318 263 18 33 15 105 -7 155 -23 52 -142 258 -170 294 -11 14 -39 38 -63 54 -55 38 -124 39 -216 4z"/>
<path d="M5325 3900 c-4 -6 -39 -74 -78 -152 l-71 -141 20 -14 c10 -8 130 -70 265 -138 135 -68 304 -154 375 -191 167 -86 209 -99 257 -79 41 17 89 74 117 139 24 57 24 64 5 102 -30 60 -84 95 -405 257 -179 91 -352 179 -385 196 -62 32 -89 38 -100 21z"/>
<path d="M7690 3180 c-14 -4 -46 -8 -72 -9 -26 -1 -50 -5 -53 -11 -3 -5 -15 -10 -26 -10 -11 0 -42 -20 -68 -45 -70 -66 -81 -106 -81 -300 0 -184 9 -221 67 -282 78 -80 111 -85 558 -90 355 -4 401 -1 510 30 41 12 108 65 126 99 26 48 39 135 39 255 0 166 -22 237 -91 296 -42 37 -56 42 -154 59 -73 13 -720 20 -755 8z"/>
</g>
</g>
  <g id="id1:id1" transform="matrix(1.25,0,0,1.25,0.0,0.0)"><g transform="translate(0.000000,640.000000) scale(0.040000,-0.040000)" fill="#000000" stroke="none">
<path d="M7615 15199 c-1381 -73 -2688 -530 -3825 -1339 -305 -216 -597 -467 -900 -770 -267 -267 -442 -469 -660 -760 -51 -69 -105 -141 -119 -160 -42 -55 -211 -315 -278 -425 -242 -401 -454 -844 -608 -1269 -250 -690 -386 -1369 -425 -2121 -18 -336 -10 -658 25 -1025 143 -1507 762 -2934 1772 -4081 197 -224 597 -613 773 -752 19 -15 69 -54 110 -87 741 -595 1594 -1040 2490 -1299 460 -132 847 -206 1390 -263 174 -18 1053 -18 1245 0 1081 104 2052 410 2967 935 419 240 816 527 1193 860 144 127 489 472 611 612 78 89 95 109 224 269 645 800 1132 1791 1374 2796 84 351 141 696 178 1080 21 214 17 1078 -5 1290 -26 247 -84 633 -117 780 -78 349 -163 652 -251 901 -28 79 -54 155 -59 169 -4 14 -30 81 -58 150 -265 658 -631 1283 -1071 1829 -42 52 -85 106 -96 120 -53 71 -267 303 -410 446 -439 440 -881 785 -1415 1107 -455 273 -992 516 -1495 675 -208 65 -230 72 -370 108 -719 186 -1466 262 -2190 224z m975 -663 c580 -64 1032 -162 1530 -334 297 -102 494 -185 790 -333 660 -330 1224 -740 1741 -1265 387 -394 683 -779 969 -1259 357 -601 620 -1282 779 -2020 89 -417 138 -963 128 -1430 -15 -663 -110 -1245 -304 -1855 -464 -1466 -1419 -2709 -2721 -3543 -1072 -687 -2348 -1048 -3617 -1024 -389 8 -644 30 -985 88 -1004 170 -2001 591 -2790 1179 -294 220 -472 372 -718 614 -880 867 -1481 1931 -1776 3146 -67 276 -121 606 -158 970 -21 199 -17 932 5 1140 51 468 114 801 231 1215 59 210 183 562 256 730 10 22 32 74 50 115 18 41 70 150 115 241 343 690 736 1232 1281 1769 1135 1119 2604 1770 4224 1874 148 9 834 -3 970 -18z"/>
<path d="M8811 14141 c-7 -5 -17 -26 -22 -47 -6 -21 -14 -52 -19 -69 -5 -16 -14 -48 -20 -70 -6 -22 -15 -55 -21 -72 -5 -18 -14 -50 -20 -70 -5 -21 -14 -51 -19 -68 -11 -38 -26 -89 -40 -140 -6 -22 -15 -55 -21 -72 -5 -18 -13 -48 -18 -65 -15 -50 -29 -99 -41 -143 -6 -22 -15 -55 -21 -72 -5 -18 -13 -48 -18 -65 -12 -42 -27 -93 -40 -140 -6 -21 -15 -53 -20 -70 -22 -75 -33 -114 -37 -138 -3 -14 -10 -35 -16 -47 -14 -27 -10 -32 34 -43 18 -5 50 -14 71 -19 20 -6 54 -16 75 -22 20 -5 52 -14 70 -20 17 -5 47 -13 65 -18 37 -10 167 -48 212 -61 30 -9 156 -43 205 -55 14 -4 34 -10 45 -14 46 -18 93 -31 113 -31 11 0 24 -4 27 -10 3 -5 17 -10 30 -10 13 0 34 -4 47 -9 13 -5 43 -14 68 -21 25 -7 53 -16 62 -21 10 -5 29 -9 42 -9 14 0 28 -4 31 -10 3 -5 19 -10 35 -10 16 0 32 -4 35 -10 3 -5 17 -10 30 -10 13 0 34 -4 47 -9 13 -5 43 -14 68 -21 25 -7 54 -16 65 -20 11 -5 31 -11 45 -14 14 -2 45 -10 69 -16 24 -6 46 -9 48 -6 3 2 9 21 14 40 5 20 14 52 19 71 6 19 15 52 21 73 5 20 15 53 20 72 16 53 15 72 -1 80 -8 4 -25 12 -37 18 -13 7 -34 12 -47 12 -14 0 -28 5 -31 10 -3 6 -19 10 -35 10 -16 0 -32 5 -35 10 -3 6 -17 10 -30 10 -13 0 -34 4 -47 9 -13 5 -43 14 -68 21 -25 7 -54 16 -65 20 -11 5 -31 11 -45 14 -24 4 -63 15 -137 37 -18 5 -50 14 -70 20 -21 5 -53 14 -70 20 -18 5 -49 14 -68 19 -19 6 -51 15 -70 20 -19 6 -50 14 -67 19 -18 6 -49 14 -68 19 -92 25 -105 42 -81 104 5 13 14 43 21 68 23 82 29 104 50 175 11 39 25 88 31 110 6 22 19 68 30 101 10 34 19 71 19 82 0 12 5 24 10 27 6 3 10 16 10 27 0 12 8 47 19 77 10 31 29 94 41 141 12 47 27 97 32 113 17 44 5 51 -134 88 -24 6 -54 15 -68 19 -14 4 -45 13 -70 20 -25 7 -56 16 -70 20 -14 4 -45 13 -70 20 -25 7 -54 16 -66 20 -11 5 -26 5 -33 1z"/>
<path d="M7007 14104 c-6 -6 -174 -21 -352 -31 -55 -3 -106 -10 -114 -16 -10 -8 -11 -27 -7 -72 12 -111 38 -408 76 -845 5 -58 14 -159 20 -225 6 -66 14 -156 18 -200 l7 -80 90 1 c50 1 151 7 225 13 74 7 182 17 240 22 159 13 312 27 445 39 66 6 170 15 230 20 61 5 162 14 225 19 129 11 238 25 243 32 4 6 -9 202 -18 269 -11 75 -19 84 -75 75 -25 -4 -99 -11 -165 -16 -158 -12 -351 -29 -680 -60 -71 -6 -155 -12 -185 -13 l-55 -1 -7 70 c-4 39 -12 126 -18 195 -6 69 -15 172 -20 230 -6 58 -14 157 -20 220 -6 63 -13 165 -16 225 -4 84 -9 113 -22 123 -16 13 -54 16 -65 6z"/>
<path d="M5605 13732 c-60 -40 -130 -85 -155 -99 -25 -15 -64 -41 -87 -60 -23 -18 -45 -33 -49 -33 -4 0 -16 -7 -26 -17 l-18 -16 25 -33 c14 -18 25 -36 25 -40 0 -4 7 -15 16 -25 9 -10 23 -31 32 -48 10 -17 38 -61 63 -98 106 -156 316 -480 326 -503 49 -109 40 -155 -51 -243 -52 -51 -383 -281 -471 -328 -164 -88 -193 -99 -252 -99 -53 0 -97 31 -151 105 -52 72 -432 646 -432 654 -1 13 -39 51 -52 51 -7 0 -94 -54 -193 -120 -222 -146 -244 -162 -245 -175 0 -8 280 -440 380 -585 17 -25 59 -88 93 -140 122 -187 154 -221 257 -276 54 -29 215 -26 295 5 172 66 346 165 659 377 16 10 37 24 47 30 10 6 27 18 36 26 10 8 25 18 33 22 8 3 27 14 41 24 14 9 46 30 70 46 105 68 128 84 204 140 98 73 216 186 256 244 63 93 72 121 72 217 1 84 -2 96 -34 160 -20 39 -111 185 -204 325 -92 140 -190 289 -216 330 -27 41 -61 93 -77 115 -16 22 -41 61 -56 87 -15 25 -32 48 -39 50 -7 3 -61 -29 -122 -70z"/>
<path d="M11048 13259 c-24 -28 -81 -93 -128 -143 -47 -51 -128 -141 -180 -201 -52 -59 -123 -138 -157 -174 -34 -36 -79 -87 -100 -112 -48 -58 -155 -177 -255 -285 -43 -45 -78 -89 -78 -98 0 -8 21 -32 48 -52 26 -21 84 -72 128 -114 45 -41 127 -115 184 -165 56 -49 141 -126 189 -170 49 -44 134 -120 190 -170 57 -49 139 -125 184 -167 45 -42 101 -92 123 -110 23 -18 76 -64 119 -103 42 -38 117 -107 167 -153 50 -45 94 -81 98 -80 17 6 230 242 230 254 0 7 -19 28 -42 46 -22 18 -80 69 -129 113 -48 44 -133 121 -189 170 -56 50 -143 128 -195 175 -51 47 -141 128 -200 180 -59 52 -144 130 -188 172 l-81 78 30 32 c17 18 43 50 59 71 15 20 34 37 42 37 16 0 78 -50 199 -160 45 -41 130 -118 189 -170 59 -52 147 -131 195 -175 48 -44 138 -125 200 -180 63 -55 127 -113 143 -128 16 -15 35 -27 41 -25 16 4 168 169 185 201 l13 25 -78 75 c-44 41 -97 89 -119 108 -22 18 -72 63 -110 99 -39 36 -122 110 -184 165 -242 212 -452 406 -449 415 2 5 29 38 61 74 l59 66 31 -22 c17 -12 68 -56 113 -98 45 -41 134 -122 199 -180 65 -58 153 -136 196 -175 43 -38 130 -117 194 -175 65 -58 153 -138 197 -177 43 -40 85 -73 93 -73 7 0 39 30 71 68 32 37 83 93 113 125 l56 58 -80 77 c-45 42 -132 122 -195 177 -62 55 -134 120 -159 144 -25 24 -71 64 -101 89 -30 26 -87 76 -125 112 -39 36 -122 110 -184 165 -63 55 -144 128 -180 161 -36 34 -84 76 -106 95 -22 18 -72 63 -111 99 -84 77 -181 160 -187 160 -3 0 -25 -23 -49 -51z"/>
<path d="M3407 11775 c-64 -18 -111 -48 -180 -114 -53 -51 -75 -78 -129 -160 -35 -54 -84 -146 -263 -496 -304 -596 -377 -736 -452 -880 -45 -86 -54 -107 -51 -124 2 -13 72 -54 233 -136 127 -65 242 -126 257 -136 14 -11 30 -19 36 -19 5 0 65 -29 133 -63 68 -35 231 -119 363 -186 131 -68 242 -119 246 -114 10 10 91 166 270 518 79 154 183 359 233 455 49 96 115 225 147 285 31 61 61 119 67 130 31 55 111 235 122 275 7 25 17 55 22 68 12 31 11 199 -1 207 -5 3 -10 13 -10 21 0 7 -16 36 -35 63 -69 96 -252 190 -350 179 -57 -7 -130 -43 -181 -90 -23 -21 -44 -35 -47 -31 -4 3 -7 26 -7 50 0 73 -21 123 -79 185 -57 62 -110 92 -201 114 -65 16 -80 16 -143 -1z m40 -565 c42 -25 56 -54 50 -101 -5 -37 -19 -68 -200 -419 -49 -96 -121 -237 -159 -312 -38 -76 -72 -140 -77 -142 -12 -8 -191 84 -191 98 0 6 6 20 14 31 12 19 287 553 364 709 72 147 124 182 199 136z m512 -194 c31 -17 51 -54 51 -97 0 -30 -75 -187 -228 -476 -28 -53 -40 -78 -135 -265 l-99 -197 -23 9 c-23 9 -157 77 -182 93 -9 6 -8 16 6 41 20 34 35 63 49 94 5 9 56 109 115 222 58 113 125 243 149 290 24 47 49 94 55 105 7 11 24 47 39 80 39 84 74 115 131 115 24 0 56 -6 72 -14z"/>
<path d="M12723 11542 c-144 -63 -177 -85 -164 -111 5 -9 13 -27 19 -41 5 -14 22 -52 37 -85 15 -33 36 -82 47 -109 10 -27 27 -68 37 -90 10 -23 37 -86 61 -141 23 -55 48 -113 56 -130 14 -28 13 -31 -8 -47 -13 -10 -26 -18 -30 -18 -4 0 -37 -13 -73 -30 -36 -16 -68 -30 -70 -30 -2 0 -28 -11 -57 -24 -29 -13 -109 -47 -178 -76 -69 -29 -145 -61 -170 -72 -25 -11 -60 -26 -77 -34 -82 -35 -105 -45 -135 -58 -172 -72 -180 -78 -161 -118 6 -13 18 -39 26 -58 8 -19 27 -61 41 -93 14 -32 26 -60 26 -62 0 -2 13 -33 29 -67 15 -35 34 -80 42 -101 7 -20 22 -46 34 -56 l20 -19 35 17 c19 9 51 23 70 31 19 7 68 28 108 47 41 18 76 33 78 33 3 0 30 11 60 25 30 14 57 25 59 25 3 0 27 10 53 21 26 12 61 27 77 34 17 7 55 24 85 37 30 14 71 30 90 37 19 8 58 24 85 37 66 30 153 64 166 64 5 0 17 -17 26 -37 8 -21 24 -58 35 -83 11 -25 26 -58 33 -75 7 -16 22 -51 34 -77 11 -26 21 -50 21 -53 0 -2 14 -34 30 -70 17 -36 30 -68 30 -70 0 -2 13 -33 29 -67 15 -35 31 -73 35 -85 8 -25 49 -41 69 -26 6 5 28 16 47 23 19 7 58 23 85 36 28 12 74 32 103 44 57 25 56 23 42 48 -13 22 -70 151 -70 157 0 3 -10 27 -21 53 -12 26 -27 61 -34 77 -23 55 -42 100 -64 147 -11 26 -21 50 -21 53 0 2 -13 34 -30 70 -16 36 -30 68 -30 70 0 3 -10 27 -21 53 -12 26 -27 61 -34 77 -14 33 -68 159 -92 215 -9 19 -21 49 -28 65 -7 17 -20 48 -30 70 -9 22 -21 49 -25 60 -4 11 -17 41 -29 67 -12 26 -21 54 -21 61 0 7 -4 17 -9 23 -9 9 -41 79 -121 269 -65 156 -71 168 -85 195 -8 14 -20 26 -27 27 -7 1 -72 -24 -145 -55z"/>
<path d="M7869 10786 c-3 -4 -62 -11 -130 -16 -139 -11 -180 -16 -259 -31 -215 -41 -354 -82 -584 -171 -153 -59 -418 -212 -594 -343 -136 -101 -403 -354 -476 -451 -17 -23 -63 -83 -102 -135 -72 -96 -211 -324 -253 -414 -82 -176 -100 -221 -142 -350 -38 -115 -70 -229 -78 -280 l-6 -40 -220 -5 -220 -5 0 -465 0 -465 197 -3 198 -2 11 -22 c6 -12 15 -47 20 -77 27 -181 109 -450 194 -636 12 -27 33 -72 46 -100 12 -27 60 -113 106 -190 76 -127 107 -172 239 -346 86 -113 345 -361 489 -466 179 -132 442 -284 591 -341 229 -89 370 -130 584 -171 251 -48 639 -58 845 -21 28 5 82 14 120 20 105 17 158 29 315 74 272 78 553 215 810 394 186 129 458 388 585 556 170 225 308 460 384 656 18 47 37 94 42 105 29 67 97 311 118 425 5 30 14 79 20 108 6 30 11 69 11 87 0 19 5 37 10 40 6 4 34 -16 62 -44 l52 -51 246 0 c178 0 249 3 258 12 14 14 17 894 4 916 -7 9 -49 12 -178 10 l-169 -3 -3 -320 c-1 -175 -6 -323 -10 -327 -5 -5 -65 49 -133 119 -109 113 -124 132 -125 163 -3 132 -46 384 -98 574 -156 565 -518 1094 -1005 1466 -274 209 -658 397 -963 471 -136 33 -206 47 -293 60 -135 21 -506 46 -516 35z m321 -536 c146 -13 254 -33 420 -78 67 -18 195 -64 205 -73 5 -5 15 -9 22 -9 16 0 201 -90 268 -130 28 -16 57 -33 65 -37 25 -11 140 -93 215 -152 87 -68 299 -280 357 -357 24 -31 55 -73 70 -93 15 -20 31 -43 35 -51 4 -8 21 -35 38 -60 60 -90 151 -271 194 -390 7 -19 17 -44 21 -55 22 -56 50 -152 53 -185 l2 -25 -170 -5 -170 -5 0 -465 0 -465 175 0 175 0 5 315 5 315 25 0 c20 0 26 6 28 29 2 16 -1 39 -7 50 -10 21 -20 87 -24 161 l-2 40 70 3 70 3 198 -199 199 -199 -2 -178 c0 -98 -3 -182 -6 -187 -3 -5 -112 95 -242 222 -130 126 -241 230 -246 230 -8 0 -11 -68 -11 -207 -1 -250 -19 -400 -74 -603 -5 -19 -13 -46 -16 -60 -4 -14 -11 -34 -15 -45 -5 -11 -16 -42 -25 -70 -9 -27 -23 -65 -31 -82 -8 -18 -21 -50 -30 -70 -112 -258 -284 -504 -491 -704 -54 -52 -113 -104 -131 -114 -18 -11 -32 -23 -32 -27 0 -4 -17 -19 -37 -33 -21 -13 -71 -47 -112 -75 -81 -56 -154 -99 -241 -141 -128 -63 -266 -119 -291 -119 -10 0 -20 -4 -23 -9 -3 -5 -18 -11 -33 -14 -16 -3 -46 -11 -68 -17 -196 -56 -341 -74 -600 -74 -231 0 -362 13 -522 53 -24 6 -60 15 -80 20 -233 55 -539 207 -782 388 -91 68 -339 314 -401 398 -196 265 -341 560 -402 820 -17 76 -29 130 -31 150 l-2 20 150 3 c82 1 154 7 159 12 13 13 7 213 -7 222 -7 4 -83 8 -170 8 -177 0 -171 -3 -172 78 l0 43 145 2 145 2 3 80 c2 44 0 90 -3 102 l-5 22 -133 3 -132 3 0 63 0 64 153 -1 c105 -1 158 2 168 10 10 8 14 37 14 104 0 52 -3 100 -6 109 -5 13 -27 16 -135 16 -109 0 -131 3 -136 16 -14 36 109 356 200 523 79 145 81 147 99 168 8 10 18 25 21 33 4 8 22 34 39 57 18 22 52 65 74 95 45 57 274 283 340 334 219 171 526 328 769 394 203 55 266 67 439 80 65 5 121 12 125 16 6 6 101 1 291 -16z m-2431 -1725 c9 -4 10 -9 3 -18 -5 -6 -12 -30 -15 -52 -3 -22 -10 -59 -14 -83 l-8 -43 -244 1 c-134 0 -247 3 -252 5 -10 7 1 117 12 130 5 5 9 21 9 35 0 15 2 29 4 31 6 6 488 0 505 -6z m-561 -256 c-1 -13 -7 -23 -13 -22 -13 3 -18 30 -11 50 10 24 29 1 24 -28z m500 -114 c15 -5 17 -102 2 -140 l-10 -25 -237 2 -238 3 -3 74 c-2 41 -1 79 1 85 3 8 76 10 238 8 129 -1 240 -4 247 -7z m15 -380 c5 -27 9 -70 10 -95 l2 -45 -248 -3 -247 -2 -10 25 c-11 30 -14 158 -3 169 4 3 115 5 247 4 l241 -3 8 -50z"/>
<path d="M6410 8558 c-19 -5 -54 -15 -78 -21 -51 -14 -125 -82 -147 -135 -19 -43 -20 -212 -2 -261 24 -68 92 -121 177 -139 54 -11 491 -32 700 -33 129 -1 163 -15 168 -71 6 -67 -1 -68 -344 -68 l-301 0 -27 21 c-17 14 -26 30 -26 49 0 16 -4 32 -10 35 -5 3 -82 6 -170 6 -88 0 -165 -3 -170 -6 -6 -3 -10 -43 -10 -88 0 -66 5 -90 23 -122 25 -44 86 -90 132 -100 117 -24 221 -30 560 -30 345 0 506 8 530 25 6 4 22 10 36 14 15 3 51 30 80 60 44 43 56 63 67 107 19 85 12 163 -24 254 -14 35 -85 93 -138 113 -74 29 -260 42 -571 42 -304 0 -315 2 -315 64 0 19 6 39 14 45 9 8 100 11 312 9 l299 -3 14 -30 c8 -16 19 -33 25 -37 16 -11 318 -9 335 1 18 11 8 124 -15 169 -28 58 -105 111 -184 128 -55 12 -900 14 -940 2z"/>
<path d="M8565 8560 c-11 -5 -39 -9 -62 -9 -23 -1 -45 -5 -48 -11 -3 -5 -15 -10 -25 -10 -49 0 -139 -70 -173 -135 -35 -64 -40 -99 -44 -295 -5 -202 3 -262 43 -333 34 -61 57 -80 144 -122 62 -30 74 -33 150 -41 98 -11 714 -11 810 -1 169 18 274 68 315 149 19 40 22 387 3 406 -17 17 -749 17 -766 0 -17 -17 -16 -182 1 -197 9 -6 84 -12 203 -13 l189 -3 3 -28 c3 -24 -2 -30 -40 -47 -39 -18 -66 -20 -292 -20 -378 0 -384 3 -385 226 -1 154 10 194 62 219 74 35 568 34 623 -1 13 -9 28 -33 34 -55 l11 -39 178 0 c195 0 191 -1 191 61 0 34 -18 114 -34 148 -16 35 -105 121 -125 121 -10 0 -21 4 -26 9 -6 5 -32 12 -60 16 -76 11 -857 15 -880 5z"/>
<path d="M7726 8541 c-3 -4 -6 -212 -6 -461 -1 -360 2 -455 12 -462 7 -4 86 -8 174 -8 124 0 164 3 173 14 8 9 10 140 9 467 l-3 454 -177 3 c-97 1 -179 -2 -182 -7z"/>
<path d="M11725 8558 c-116 -27 -156 -52 -205 -126 l-30 -45 0 -115 c0 -104 2 -119 26 -162 26 -48 77 -86 139 -104 35 -10 503 -34 686 -35 69 -1 140 -6 158 -12 52 -18 68 -72 31 -109 l-20 -20 -300 0 c-345 0 -356 2 -362 67 l-3 38 -168 5 c-107 3 -172 1 -177 -5 -31 -37 -24 -140 14 -215 53 -105 159 -124 691 -125 355 0 520 8 531 26 3 5 13 9 22 9 19 0 108 69 130 101 16 24 42 120 42 159 0 36 -18 114 -36 155 -18 41 -81 100 -129 121 -62 27 -275 43 -573 44 l-274 0 -29 21 c-33 24 -38 58 -11 82 16 15 53 17 306 17 179 0 295 -4 307 -10 11 -6 19 -21 19 -35 0 -34 17 -36 200 -33 l155 3 3 67 c2 52 -2 76 -17 107 -23 44 -86 101 -113 101 -9 0 -19 4 -22 9 -3 5 -23 12 -43 16 -57 12 -901 14 -948 3z"/>
<path d="M3175 8538 c-3 -7 -4 -218 -3 -468 l3 -455 635 1 c365 0 650 4 670 10 87 23 142 67 185 147 l25 48 0 248 0 247 -26 52 c-36 72 -78 106 -184 150 -55 23 -117 26 -698 29 -479 3 -604 1 -607 -9z m1024 -239 c59 -18 83 -32 105 -62 39 -53 32 -315 -9 -346 -5 -4 -31 -15 -56 -24 -40 -15 -86 -17 -368 -15 l-322 3 0 223 c0 122 1 224 1 227 0 11 614 5 649 -6z"/>
<path d="M12480 6252 c0 -4 -17 -29 -37 -55 -21 -25 -51 -65 -68 -88 -16 -22 -45 -57 -62 -78 -18 -21 -33 -43 -33 -48 0 -6 -7 -17 -16 -24 -14 -12 -111 -136 -179 -229 -11 -15 -40 -54 -65 -86 -25 -33 -54 -71 -65 -86 -11 -15 -54 -70 -95 -124 -96 -125 -125 -163 -147 -194 -9 -14 -22 -29 -28 -35 -6 -5 -27 -32 -46 -58 -70 -99 -81 -113 -103 -137 -12 -14 -30 -36 -39 -50 -21 -31 -57 -79 -118 -157 l-47 -60 42 -35 c22 -18 52 -41 66 -51 14 -9 44 -32 67 -50 102 -79 317 -243 337 -257 11 -8 36 -26 53 -40 18 -14 52 -40 75 -58 24 -18 62 -47 84 -65 23 -18 63 -48 88 -67 26 -19 65 -48 86 -65 22 -16 58 -43 80 -60 22 -16 66 -51 98 -77 31 -26 59 -48 62 -47 3 0 19 18 35 40 95 126 166 217 185 238 9 9 26 33 38 52 12 19 30 44 42 54 34 31 25 56 -40 105 -34 25 -80 60 -103 77 -23 18 -53 41 -67 50 -47 32 -130 105 -130 114 0 5 15 26 33 46 18 21 39 48 47 59 8 12 35 47 60 79 25 32 54 70 65 85 11 15 40 54 65 86 25 33 54 71 65 86 11 15 54 70 95 124 91 117 122 158 155 204 26 36 54 73 138 180 l48 62 -18 20 c-16 19 -82 72 -153 123 -15 11 -44 33 -65 50 l-37 29 -30 -34 c-16 -19 -40 -51 -54 -70 -13 -19 -45 -60 -69 -90 -25 -30 -57 -71 -71 -90 -29 -42 -63 -86 -124 -165 -25 -32 -54 -70 -65 -85 -11 -15 -40 -53 -65 -85 -25 -32 -55 -72 -68 -89 -31 -42 -69 -92 -122 -161 -25 -31 -50 -66 -56 -77 -20 -33 -57 -68 -74 -68 -9 0 -29 14 -45 30 -16 17 -34 30 -39 30 -6 1 -30 18 -53 39 l-42 38 17 25 c9 14 37 52 62 83 25 32 54 70 65 85 19 26 126 166 205 268 65 85 89 117 113 152 14 19 34 44 46 54 11 11 21 23 21 28 0 4 31 48 70 96 76 96 85 107 132 171 65 88 88 122 88 129 0 4 -27 27 -60 52 -33 25 -75 56 -93 70 -105 79 -121 90 -129 90 -4 0 -8 -3 -8 -8z"/>
<path d="M3543 6099 c-33 -30 -82 -71 -109 -92 -27 -21 -89 -73 -138 -115 -123 -107 -195 -168 -272 -232 -36 -30 -94 -80 -129 -110 -34 -30 -96 -82 -136 -115 -40 -33 -95 -80 -123 -105 -28 -25 -68 -58 -89 -74 -21 -15 -37 -32 -35 -36 4 -11 57 -76 123 -150 28 -31 79 -92 115 -135 36 -43 75 -90 86 -104 l22 -25 71 59 c40 33 102 84 138 114 l66 54 26 -30 c14 -17 55 -65 91 -108 36 -42 85 -100 110 -129 25 -29 77 -91 115 -136 39 -46 88 -105 110 -130 22 -26 72 -85 110 -131 159 -188 260 -276 354 -308 44 -14 172 -14 208 0 118 48 204 105 309 206 142 136 184 213 184 336 0 80 -37 194 -85 262 -12 17 -25 37 -28 45 -7 14 -25 39 -92 126 -16 21 -68 83 -115 137 -47 54 -97 114 -112 134 -15 19 -44 54 -65 77 -21 24 -67 78 -103 121 -36 43 -85 102 -110 130 -25 29 -74 87 -110 130 -36 43 -85 102 -110 130 -25 29 -74 87 -110 130 -36 43 -74 90 -86 103 l-21 25 -60 -54z m178 -657 c24 -26 78 -87 119 -136 41 -48 95 -111 120 -140 25 -29 72 -86 105 -126 33 -40 76 -92 95 -114 70 -80 87 -124 70 -185 -17 -66 -33 -79 -162 -142 -30 -15 -99 24 -158 88 -30 33 -84 95 -120 137 -36 43 -85 101 -110 131 -25 29 -76 90 -115 135 -38 46 -89 104 -112 130 l-43 47 86 74 c47 41 105 91 128 111 22 21 44 38 47 38 4 0 26 -22 50 -48z"/>
<path d="M11085 4518 c-116 -29 -402 -164 -588 -279 -26 -16 -49 -29 -52 -29 -3 0 -83 -46 -150 -87 -11 -7 -27 -15 -35 -19 -8 -4 -57 -32 -107 -61 -51 -29 -96 -53 -99 -53 -4 0 -22 -11 -40 -25 -18 -14 -35 -25 -38 -25 -8 0 -147 -84 -216 -131 -245 -166 -330 -281 -330 -449 0 -55 7 -93 24 -143 24 -64 105 -225 129 -257 11 -14 26 -40 61 -103 6 -12 23 -40 36 -62 14 -22 32 -53 40 -70 43 -89 148 -208 221 -249 113 -63 286 -54 441 25 10 5 25 9 34 9 9 0 28 9 43 19 15 11 51 31 81 46 30 14 69 34 85 44 17 10 57 33 90 51 33 18 77 44 97 57 21 12 42 23 48 23 6 0 26 11 43 24 18 13 64 41 102 61 39 21 81 45 95 54 42 27 63 39 124 71 32 18 87 49 122 71 36 21 67 39 69 39 3 0 28 16 55 35 27 19 54 35 58 35 5 0 17 9 27 20 10 11 22 20 28 20 26 0 182 144 222 205 59 91 65 111 65 211 0 121 -32 210 -137 376 -12 21 -23 42 -23 47 0 5 -14 31 -31 57 -17 27 -56 93 -88 146 -31 54 -78 122 -104 152 -52 60 -160 136 -194 136 -12 0 -25 5 -28 10 -8 12 -126 11 -180 -2z m0 -558 c44 -43 167 -247 192 -320 20 -55 16 -120 -10 -165 -34 -60 -164 -160 -317 -243 -14 -7 -38 -22 -55 -32 -16 -11 -39 -24 -50 -30 -11 -5 -42 -23 -70 -40 -27 -16 -57 -32 -65 -36 -8 -3 -26 -12 -40 -20 -32 -19 -169 -85 -195 -94 -93 -34 -155 -39 -196 -17 -52 27 -88 59 -112 100 -25 42 -35 60 -95 168 -38 68 -62 134 -62 171 0 61 52 139 130 191 155 105 223 147 267 166 11 5 24 15 28 20 3 6 13 11 22 11 8 0 29 10 46 23 37 26 123 72 227 123 41 20 83 40 92 45 10 5 27 9 37 9 11 0 23 5 27 11 4 7 33 10 80 7 l74 -3 45 -45z"/>
<path d="M5012 4458 c-9 -12 -89 -166 -414 -808 -68 -135 -130 -256 -138 -270 -75 -140 -89 -175 -77 -186 7 -7 114 -64 239 -127 207 -104 228 -113 242 -98 7 9 46 80 86 159 40 78 74 142 77 142 4 0 463 -231 523 -264 14 -7 43 -22 65 -33 22 -11 49 -24 60 -30 11 -6 46 -24 78 -39 102 -50 156 -127 128 -182 -83 -161 -110 -227 -99 -238 14 -14 469 -247 472 -242 0 2 7 14 15 27 41 73 140 282 151 317 10 33 9 49 -3 91 -16 53 -53 119 -81 142 -26 22 -9 31 60 31 83 0 143 29 211 103 53 59 124 186 148 264 20 65 19 190 -1 238 -34 82 -123 172 -253 256 -127 82 -192 116 -991 521 -146 74 -274 139 -285 146 -39 22 -186 92 -194 92 -5 0 -13 -6 -19 -12z m993 -890 c128 -64 170 -94 190 -138 15 -34 16 -44 4 -84 -19 -64 -59 -118 -103 -140 -33 -16 -43 -17 -79 -6 -46 13 -784 384 -805 404 -10 10 -2 34 44 127 31 63 65 126 76 141 l18 27 288 -146 c158 -80 323 -164 367 -185z"/>
<path d="M7495 3545 c-5 -3 -59 -9 -120 -15 -152 -14 -194 -21 -201 -31 -3 -5 -13 -9 -23 -9 -27 0 -101 -39 -149 -77 -71 -58 -108 -127 -142 -263 -12 -50 -9 -674 4 -725 32 -126 119 -228 241 -284 17 -7 38 -17 47 -22 10 -5 31 -9 47 -9 17 0 32 -4 35 -9 12 -19 210 -25 801 -25 591 0 789 6 801 25 3 5 20 9 39 9 19 0 36 4 39 9 3 4 18 11 33 14 48 10 150 84 185 134 43 62 58 91 58 112 0 9 4 21 9 26 15 17 22 100 28 340 8 338 -13 486 -84 588 -33 48 -141 137 -165 137 -9 0 -19 4 -22 9 -3 5 -18 12 -33 15 -16 4 -46 11 -68 17 -92 24 -249 30 -785 34 -311 2 -569 2 -575 0z m955 -393 c123 -23 171 -51 189 -113 7 -24 18 -56 23 -70 11 -32 5 -299 -9 -358 -20 -81 -72 -123 -178 -144 -67 -14 -805 -13 -870 0 -109 22 -155 57 -180 137 -13 41 -15 84 -12 216 2 91 8 180 12 199 10 43 77 111 109 111 14 0 28 5 31 10 3 6 27 10 53 10 26 0 54 5 62 10 20 13 695 6 770 -8z"/>
</g>
</g>
</svg>
