<?xml version="1.0" standalone="no"?>
<!DOCTYPE svg PUBLIC "-//W3C//DTD SVG 1.1//EN"
 "http://www.w3.org/Graphics/SVG/1.1/DTD/svg11.dtd">
<!-- Created with svg_stack (http://github.com/astraw/svg_stack) -->
<svg xmlns:sodipodi="http://sodipodi.sourceforge.net/DTD/sodipodi-0.dtd" xmlns="http://www.w3.org/2000/svg" version="1.1" width="1000.0" height="246.0">
  <defs/>
  <g id="id0:id0" transform="matrix(1.25,0,0,1.25,0.0,0.0)"><g transform="translate(0.000000,196.800000) scale(0.040000,-0.040000)" fill="#ffffff" stroke="none">
<path d="M0 2460 l0 -2460 10000 0 10000 0 0 2460 0 2460 -10000 0 -10000 0 0 -2460z m15055 2150 c2614 -8 3109 -11 3155 -23 230 -59 408 -203 511 -412 58 -119 74 -189 73 -335 0 -147 -17 -225 -76 -344 -73 -148 -111 -186 -503 -501 -228 -184 -382 -308 -545 -440 -95 -77 -184 -149 -199 -160 -30 -23 -143 -114 -290 -234 -58 -47 -139 -113 -182 -146 -42 -33 -152 -122 -245 -197 -93 -75 -268 -217 -390 -315 -121 -98 -276 -223 -345 -279 -350 -283 -563 -451 -649 -508 -336 -225 -680 -359 -1065 -416 l-140 -20 -3525 1 c-3824 1 -4949 8 -5090 33 -180 31 -266 52 -385 91 -367 122 -627 275 -1028 605 -114 94 -293 239 -328 265 -15 11 -59 47 -99 80 -40 33 -87 71 -105 85 -69 53 -142 111 -192 152 -60 50 -612 496 -1188 959 -220 177 -423 340 -451 363 -28 22 -143 115 -255 204 -114 92 -232 195 -267 235 -69 79 -142 215 -168 312 -45 174 -22 377 63 545 108 216 347 386 572 409 92 9 9593 3 13336 -9z"/>
<path d="M1710 4425 c-36 -9 -97 -31 -137 -49 -91 -43 -204 -153 -251 -243 -114 -218 -81 -482 85 -670 15 -17 145 -125 288 -239 143 -115 298 -239 345 -277 47 -38 204 -165 350 -282 146 -117 328 -263 405 -326 77 -62 178 -144 225 -181 47 -38 110 -88 140 -113 86 -70 378 -306 699 -564 161 -130 368 -296 460 -370 207 -167 241 -192 371 -273 308 -192 650 -311 1000 -347 60 -6 1649 -11 4310 -13 l4215 -3 120 22 c244 45 458 118 680 232 195 101 339 202 640 449 22 18 70 56 106 85 36 28 142 113 235 189 172 138 454 366 805 649 107 86 244 197 304 246 123 99 472 381 605 488 48 39 165 133 260 210 95 77 191 154 214 172 187 143 274 222 321 293 72 106 99 197 99 330 0 75 -5 121 -18 160 -65 193 -194 325 -379 387 l-82 28 -5365 6 c-2951 3 -6629 9 -8175 12 -2474 6 -2818 5 -2875 -8z m4973 -495 c5 -4 -33 -28 -85 -52 -278 -132 -502 -371 -678 -723 l-55 -110 -1250 -3 c-1320 -3 -1340 -3 -1526 43 -212 53 -453 173 -639 318 -118 93 -294 232 -394 313 -54 43 -113 90 -131 104 -121 93 -144 113 -139 121 6 11 4886 0 4897 -11z m3920 -4 c-1 -5 -43 -31 -95 -59 -108 -57 -116 -63 -307 -216 -79 -64 -161 -129 -182 -146 -81 -65 -152 -121 -182 -145 -18 -14 -66 -52 -106 -85 -40 -33 -85 -69 -100 -80 -14 -11 -66 -52 -115 -92 l-90 -72 -1585 6 c-872 3 -1589 8 -1593 12 -4 4 23 59 61 122 219 373 535 644 851 731 132 36 113 36 1800 34 962 0 1644 -5 1643 -10z m1603 1 c3 -8 -15 -70 -40 -138 -24 -68 -84 -236 -131 -374 -48 -137 -121 -347 -162 -465 -41 -118 -88 -253 -104 -299 -17 -47 -27 -91 -25 -98 4 -10 165 -13 851 -15 552 -2 846 -6 847 -13 2 -9 -61 -65 -158 -139 -23 -17 -165 -130 -315 -250 -151 -121 -292 -234 -314 -251 -126 -101 -342 -217 -500 -270 -200 -68 -284 -79 -570 -80 l-240 0 -60 24 c-53 22 -76 25 -190 25 -128 1 -195 -10 -255 -41 -20 -10 -183 -13 -792 -13 l-767 0 -28 24 c-26 23 -28 29 -28 98 l1 73 96 225 c52 124 137 324 187 445 51 121 96 229 101 240 5 11 30 69 55 129 25 61 53 119 63 129 9 11 127 108 261 216 133 108 318 257 411 331 467 377 465 375 573 425 65 29 161 57 237 68 14 3 242 5 508 6 395 1 484 -1 488 -12z m2295 3 c16 -9 49 -49 284 -350 58 -74 154 -196 213 -270 59 -74 119 -152 135 -172 15 -21 31 -38 36 -38 5 0 57 39 115 88 59 48 122 98 139 112 162 125 415 343 425 365 37 80 16 179 -47 226 -16 12 -28 26 -25 31 7 11 2331 11 2338 0 3 -5 -12 -22 -33 -38 -22 -16 -137 -109 -257 -206 -121 -97 -318 -257 -439 -354 -351 -283 -477 -385 -516 -418 -20 -17 -65 -53 -100 -81 -63 -49 -187 -149 -304 -246 -33 -27 -116 -94 -185 -150 -69 -55 -223 -180 -344 -277 -316 -257 -442 -350 -552 -412 -219 -123 -413 -184 -662 -210 -201 -20 -2203 -7 -2192 15 3 5 39 24 80 42 89 39 213 110 278 160 146 111 1072 857 1072 864 0 4 -82 110 -182 236 -100 125 -214 269 -253 318 -39 50 -116 146 -171 214 -54 68 -126 158 -159 200 -33 42 -108 136 -167 210 -59 74 -105 138 -102 143 7 11 1553 9 1575 -2z m-8708 -1165 c-1 -5 -43 -125 -93 -265 -51 -140 -96 -266 -100 -280 -4 -14 -27 -77 -50 -140 -142 -393 -148 -420 -111 -492 10 -21 16 -40 13 -43 -10 -9 -261 -5 -335 6 -155 22 -361 85 -487 149 -124 62 -298 178 -415 275 -27 23 -73 60 -101 81 -28 22 -152 120 -276 219 -124 99 -274 218 -334 265 -59 47 -127 101 -150 120 -23 19 -61 50 -83 68 -23 18 -39 37 -36 43 8 13 2561 7 2558 -6z m3394 0 c12 -4 -110 -309 -149 -373 -38 -61 -79 -102 -129 -128 l-48 -24 -331 0 c-372 0 -380 -1 -429 -75 -13 -20 -61 -138 -106 -263 -98 -272 -108 -293 -152 -332 l-34 -30 -1002 2 -1001 3 -23 34 c-38 56 -31 90 71 364 52 138 118 315 146 392 93 253 152 410 161 426 7 15 139 16 1511 12 827 -3 1508 -6 1515 -8z m2063 -1256 c72 -25 92 -72 45 -103 -96 -63 -378 -54 -440 14 -32 35 17 81 108 100 55 12 243 5 287 -11z m-4756 -278 c4 -5 -9 -21 -26 -36 -99 -83 -121 -108 -110 -125 14 -23 6 -30 -34 -30 -33 0 -98 -46 -180 -127 l-33 -33 -265 0 c-146 0 -267 4 -270 8 -3 5 30 38 72 74 42 37 91 79 108 95 17 15 61 53 97 83 36 30 66 62 66 71 1 9 4 19 8 22 10 11 561 8 567 -2z m331 0 c7 -12 -12 -24 -25 -16 -11 7 -4 25 10 25 5 0 11 -4 15 -9z m424 -5 c133 -18 141 -26 97 -91 -61 -91 -58 -90 -232 -94 -85 -2 -154 -7 -154 -12 0 -5 8 -9 18 -9 24 0 242 -77 377 -133 63 -27 137 -49 173 -54 34 -4 63 -12 62 -18 0 -6 -90 -11 -243 -13 l-243 -2 -119 49 c-66 26 -183 74 -260 106 -93 38 -166 61 -216 69 -43 6 -78 16 -78 21 -1 6 69 15 171 22 187 13 260 29 308 69 42 36 40 61 -7 69 -55 9 -65 14 -58 25 9 15 281 12 404 -4z m1204 -19 c215 -138 406 -270 402 -278 -10 -15 -342 -12 -352 4 -18 27 -54 49 -85 52 -24 2 -33 7 -33 20 0 19 -181 150 -221 161 -12 3 -82 -20 -180 -60 -189 -78 -189 -78 -189 -101 0 -15 -10 -19 -52 -22 -32 -1 -83 -16 -134 -39 -72 -32 -87 -35 -123 -28 -24 5 -41 15 -41 23 0 8 61 39 150 76 83 35 236 99 340 144 l190 80 138 1 138 0 52 -33z m1236 18 c0 -5 -29 -15 -64 -22 -93 -17 -131 -38 -223 -128 -89 -85 -95 -103 -44 -124 15 -6 43 -12 62 -13 19 -2 34 -7 32 -13 -1 -6 -74 -9 -198 -8 l-195 2 -69 47 -70 46 23 27 c73 86 150 137 242 161 118 30 506 49 504 25z m664 4 c108 -17 130 -35 88 -73 -17 -16 -41 -17 -223 -14 l-203 3 3 27 c3 22 -1 27 -30 33 -42 9 -50 14 -43 26 8 13 321 11 408 -2z m841 2 c3 -4 -50 -59 -117 -122 -67 -62 -139 -130 -159 -151 l-37 -38 -205 0 c-113 0 -207 3 -210 8 -2 4 63 68 145 142 82 74 148 139 145 146 -3 7 -2 15 1 18 10 9 431 7 437 -3z m805 -32 c47 -23 136 -65 196 -94 61 -29 134 -64 164 -78 l54 -27 36 32 c130 114 184 166 192 186 8 21 14 22 103 22 52 0 97 -3 99 -7 3 -5 -64 -71 -149 -147 -84 -77 -156 -146 -158 -153 -4 -10 -48 -13 -189 -13 l-184 0 -258 126 c-214 104 -262 124 -279 116 -12 -6 -80 -62 -152 -125 l-132 -116 -86 -2 c-48 -1 -89 0 -91 3 -5 5 68 76 204 197 45 41 87 84 92 97 l9 24 221 0 221 0 87 -41z m1704 26 c1 -5 -26 -13 -60 -18 -91 -11 -146 -39 -237 -120 -45 -40 -84 -76 -88 -82 -24 -32 9 -60 77 -67 17 -2 29 -7 27 -13 -1 -6 -83 -9 -225 -8 -237 2 -299 12 -324 49 -13 20 -8 26 80 103 51 45 105 88 119 95 41 21 153 47 263 61 118 15 364 15 368 0z m719 4 c95 -12 125 -26 115 -53 -6 -14 -31 -16 -218 -16 l-211 0 -5 19 c-3 12 -17 22 -37 27 -40 8 -48 13 -41 25 8 13 291 11 397 -2z m-30 -174 c5 -6 -204 -225 -215 -225 -4 0 -24 10 -45 23 -66 42 -103 49 -272 56 -172 6 -218 21 -100 32 36 3 83 15 105 26 42 22 77 54 74 69 -1 5 -1 12 0 17 1 8 445 10 453 2z m-4101 -50 c3 -19 -86 -55 -171 -69 -115 -19 -435 -31 -445 -17 -7 13 -3 14 80 30 37 7 75 22 100 40 l40 30 198 -2 c122 -1 198 -6 198 -12z m3754 -184 c7 -12 -12 -24 -25 -16 -11 7 -4 25 10 25 5 0 11 -4 15 -9z"/>
</g>
</g>
  <g id="id1:id1" transform="matrix(1.25,0,0,1.25,0.0,0.0)"><g transform="translate(0.000000,196.800000) scale(0.040000,-0.040000)" fill="#231f20" stroke="none">
<path d="M1731 4638 c-308 -34 -566 -255 -656 -563 -34 -115 -38 -280 -11 -395 35 -143 119 -292 218 -387 23 -22 138 -117 253 -210 341 -272 458 -367 674 -542 112 -91 215 -175 230 -186 15 -11 150 -119 300 -240 1569 -1264 1662 -1338 1766 -1407 328 -216 639 -340 1021 -409 l119 -21 4190 -11 c3102 -7 4227 -7 4331 2 443 35 863 189 1249 456 50 35 155 115 235 180 80 64 244 197 365 294 121 97 267 215 324 261 58 47 175 141 260 210 215 173 556 448 676 545 141 114 423 342 676 546 673 542 685 552 752 667 172 294 147 645 -64 907 -107 132 -245 220 -419 267 l-75 20 -5720 9 c-9425 13 -10627 14 -10694 7z m11329 -234 c5525 -6 5088 -1 5229 -70 221 -109 348 -388 286 -629 -39 -147 -100 -231 -268 -367 -56 -45 -151 -122 -212 -171 -60 -50 -240 -195 -400 -323 -159 -128 -427 -344 -595 -479 -600 -484 -1338 -1079 -1580 -1275 -410 -331 -771 -505 -1196 -577 l-109 -18 -4226 2 c-4588 2 -4314 -1 -4563 54 -155 34 -364 110 -517 186 -262 131 -245 118 -1470 1105 -551 444 -1015 817 -1212 977 -93 75 -208 168 -257 206 -329 262 -537 435 -570 474 -111 129 -155 319 -115 490 36 151 146 292 283 364 138 73 -140 67 3337 62 1727 -3 5397 -8 8155 -11z"/>
<path d="M1753 3964 c-22 -10 -15 -19 63 -80 42 -32 203 -160 357 -284 155 -123 324 -253 375 -287 125 -85 285 -164 431 -213 235 -78 132 -73 1592 -77 l1305 -4 43 96 c186 410 499 707 849 806 45 13 82 27 82 31 0 5 -625 8 -1388 8 -764 0 -1908 2 -2543 5 -635 3 -1160 2 -1166 -1z"/>
<path d="M7266 3944 c-151 -27 -319 -98 -465 -196 -104 -71 -290 -254 -382 -378 -82 -110 -199 -306 -199 -334 0 -15 78 -16 958 -16 527 0 1249 -3 1603 -6 l644 -7 460 369 c558 448 510 411 642 480 116 61 146 82 137 95 -3 5 -738 9 -1662 8 -1385 -1 -1670 -3 -1736 -15z"/>
<path d="M11101 3929 c-158 -41 -245 -96 -561 -353 -74 -61 -216 -176 -316 -256 -99 -80 -258 -208 -353 -284 -95 -77 -175 -146 -179 -155 -3 -9 -74 -180 -158 -381 -83 -201 -193 -463 -243 -583 -93 -224 -105 -270 -81 -332 5 -14 22 -37 36 -50 l27 -25 767 0 767 0 49 22 c27 12 63 22 79 24 17 1 38 5 47 9 9 4 22 4 28 0 15 -9 2 -26 -18 -24 -10 1 -24 0 -32 -3 -8 -3 -36 -13 -63 -23 -106 -38 -82 -124 45 -156 76 -19 241 -16 303 6 89 30 117 77 75 122 -10 12 -36 27 -57 33 -21 7 -42 15 -48 19 -5 3 -20 4 -32 3 -11 -2 -24 2 -28 7 -8 15 20 25 43 16 9 -4 28 -8 42 -10 14 -1 48 -12 75 -25 l50 -23 235 6 c148 3 265 11 315 21 262 50 475 142 695 300 137 98 883 697 888 714 3 9 -174 12 -862 12 -475 0 -867 4 -870 8 -3 5 100 311 229 680 129 369 235 678 235 686 0 14 -55 16 -527 15 -490 0 -533 -2 -602 -20z"/>
<path d="M12900 3938 c0 -17 -21 10 698 -892 188 -235 339 -432 336 -437 -11 -19 -1061 -854 -1124 -894 -117 -76 -266 -144 -365 -166 -30 -7 -55 -16 -55 -20 0 -4 19 -11 43 -14 23 -3 569 -5 1212 -3 l1170 3 92 22 c151 36 270 79 408 148 147 74 268 158 516 360 94 77 186 151 203 165 17 14 220 178 451 364 231 187 488 394 570 461 83 67 211 170 285 230 74 60 288 233 475 384 187 151 342 276 345 278 2 2 -2 8 -10 13 -16 11 -2390 14 -2427 4 -32 -9 -29 -18 10 -32 48 -17 107 -82 114 -125 8 -52 -4 -102 -33 -136 -14 -17 -118 -106 -231 -198 -113 -93 -251 -205 -306 -250 -55 -45 -104 -80 -109 -77 -4 3 -114 141 -245 307 -130 166 -275 350 -322 410 l-85 107 -808 0 c-604 0 -808 -3 -808 -12z"/>
<path d="M3195 2779 c-4 -6 1 -16 11 -24 11 -7 123 -95 249 -196 127 -101 329 -262 450 -358 121 -96 267 -212 325 -258 307 -245 591 -374 910 -413 86 -10 360 -14 360 -5 0 3 -13 24 -30 47 -55 75 -53 82 155 665 102 285 185 526 185 536 0 16 -69 17 -1304 17 -924 0 -1307 -3 -1311 -11z"/>
<path d="M6145 2778 c-18 -53 -212 -575 -296 -798 -108 -289 -118 -332 -90 -398 27 -65 -30 -62 1057 -62 l987 0 31 19 c60 38 60 36 201 423 64 175 82 209 122 235 24 16 62 18 373 23 l345 5 42 22 c46 25 91 69 128 123 32 46 177 399 170 411 -4 5 -604 9 -1536 9 -1215 0 -1531 -3 -1534 -12z"/>
<path d="M5870 1251 c0 -5 7 -14 15 -21 8 -7 15 -15 15 -19 0 -14 -333 -297 -368 -313 -20 -9 -52 -17 -69 -17 -18 -1 -33 -5 -33 -11 0 -6 129 -10 366 -10 l365 0 -6 19 c-5 16 10 33 67 81 l73 61 110 -5 c135 -7 158 -13 460 -137 l243 -99 3506 0 c1928 0 3506 3 3506 8 0 13 -15 29 -37 41 -16 8 -838 11 -3256 11 -2748 0 -3246 2 -3309 14 -40 8 -140 41 -223 74 -82 32 -158 62 -168 65 -33 12 -9 24 62 31 97 9 113 17 160 83 81 112 53 130 -224 143 -235 12 -1255 13 -1255 1z m1014 -60 c16 -3 31 -11 33 -18 6 -18 -77 -61 -142 -72 -78 -13 -358 -26 -381 -17 -15 6 -8 16 41 61 l60 54 180 -1 c99 0 193 -3 209 -7z"/>
<path d="M8010 1210 c-63 -27 -225 -96 -360 -152 -153 -65 -245 -109 -245 -118 0 -7 25 -22 56 -34 l56 -20 96 42 95 42 362 0 362 0 29 -21 c16 -11 29 -27 29 -35 0 -12 35 -14 215 -14 138 0 215 4 215 10 0 6 -116 87 -257 180 l-258 170 -140 -1 -140 -1 -115 -48z m239 -116 c51 -34 80 -59 74 -65 -13 -13 -432 -7 -435 6 -3 10 235 114 262 115 8 0 53 -25 99 -56z"/>
<path d="M9530 1253 c-209 -8 -376 -35 -449 -73 -41 -22 -181 -150 -181 -166 0 -6 32 -32 70 -58 l71 -47 112 -10 c71 -7 247 -9 482 -5 470 7 586 23 674 94 46 37 22 42 -207 42 l-217 0 -43 -29 c-59 -40 -151 -54 -328 -49 -123 3 -146 6 -161 21 l-18 19 80 74 c44 41 92 81 107 90 52 27 166 44 304 44 141 0 185 -10 164 -35 -26 -31 1 -35 230 -35 l229 0 15 22 c42 59 3 82 -160 98 -96 9 -567 11 -774 3z"/>
<path d="M10700 1251 c0 -5 7 -11 15 -15 8 -3 15 -12 15 -20 0 -17 -258 -253 -303 -278 -18 -9 -44 -17 -59 -18 -16 0 -28 -4 -28 -10 0 -6 105 -10 294 -10 l295 0 -2 23 c-2 18 27 49 128 141 145 131 185 172 185 186 0 6 -100 10 -270 10 -152 0 -270 -4 -270 -9z"/>
<path d="M11410 1253 c0 -3 8 -15 17 -25 16 -18 16 -20 -3 -37 -10 -10 -80 -74 -154 -141 -74 -67 -136 -129 -138 -136 -3 -11 22 -14 128 -14 116 0 131 2 128 17 -3 16 194 202 238 224 17 9 62 -10 279 -115 l258 -126 204 0 204 0 -6 19 c-4 14 22 44 117 132 68 63 140 128 161 146 66 58 57 63 -113 63 -82 0 -150 -3 -150 -6 0 -3 10 -14 21 -23 l22 -17 -97 -89 c-53 -49 -102 -92 -109 -96 -7 -3 -122 47 -257 112 l-245 118 -252 0 c-139 1 -253 -2 -253 -6z"/>
<path d="M13405 1249 c-247 -19 -345 -55 -472 -174 -113 -104 -112 -132 5 -163 45 -11 157 -15 547 -18 278 -3 510 -9 535 -15 25 -5 73 -24 106 -41 l62 -31 123 128 c68 70 126 131 127 136 6 15 -791 12 -806 -3 -32 -32 -14 -38 122 -38 74 0 137 -4 140 -9 8 -13 -24 -37 -69 -52 -29 -10 -98 -14 -252 -14 -184 0 -214 2 -229 17 -9 9 -13 21 -10 26 4 6 47 45 96 86 121 102 141 107 401 113 150 4 212 2 229 -7 16 -9 19 -15 11 -23 -6 -6 -11 -15 -11 -19 0 -4 102 -8 228 -8 243 0 272 5 272 51 0 30 -54 47 -182 59 -133 12 -814 11 -973 -1z"/>
</g>
</g>
</svg>
