<?xml version="1.0" standalone="no"?>
<!DOCTYPE svg PUBLIC "-//W3C//DTD SVG 1.1//EN"
 "http://www.w3.org/Graphics/SVG/1.1/DTD/svg11.dtd">
<!-- Created with svg_stack (http://github.com/astraw/svg_stack) -->
<svg xmlns:sodipodi="http://sodipodi.sourceforge.net/DTD/sodipodi-0.dtd" xmlns="http://www.w3.org/2000/svg" version="1.1" width="840.0" height="838.0">
  <defs/>
  <g id="id0:id0" transform="matrix(1.25,0,0,1.25,0.0,0.0)"><g transform="translate(0.000000,670.400000) scale(0.040000,-0.040000)" fill="#000000" stroke="none">
<path d="M6121 16729 c-46 -18 -106 -76 -136 -130 -53 -96 -42 -171 66 -457 67 -179 111 -325 139 -470 45 -228 134 -642 156 -722 92 -332 149 -443 218 -426 37 9 92 71 130 147 32 65 36 80 36 153 0 128 -45 273 -106 344 -26 31 -66 57 -150 98 -63 31 -119 63 -125 70 -18 22 -4 40 60 75 49 27 66 44 95 93 62 104 50 153 -78 321 -42 55 -91 128 -108 163 -42 84 -36 128 37 307 64 158 71 207 35 278 -25 50 -89 120 -135 149 -32 19 -95 23 -134 7z"/>
<path d="M7067 16470 c-52 -62 -112 -316 -105 -446 2 -38 14 -105 27 -149 62 -218 113 -261 259 -216 128 39 179 116 189 286 4 65 0 98 -21 175 -58 219 -109 308 -201 352 -79 37 -116 37 -148 -2z"/>
<path d="M5245 16199 c-70 -17 -182 -79 -224 -124 -85 -92 -67 -204 72 -445 110 -192 169 -277 265 -383 134 -149 155 -211 134 -399 -12 -109 -2 -169 47 -273 48 -100 89 -156 144 -196 l42 -31 91 4 c80 3 97 7 132 31 68 48 78 105 38 223 -13 39 -88 200 -168 360 -79 159 -156 323 -170 364 -35 99 -65 236 -79 357 -30 281 -120 483 -227 513 -42 11 -43 11 -97 -1z"/>
<path d="M11275 15891 c-101 -46 -150 -162 -197 -465 -17 -108 -22 -188 -23 -341 -1 -263 -10 -288 -150 -425 -36 -36 -75 -79 -86 -97 -58 -92 -95 -299 -70 -389 21 -77 140 -163 226 -164 100 0 150 89 219 385 130 556 150 614 289 834 124 197 178 316 194 428 17 124 -52 198 -222 238 -80 20 -132 18 -180 -4z"/>
<path d="M8028 15813 c-28 -17 -58 -85 -58 -128 0 -74 66 -133 136 -122 67 11 124 44 139 81 31 75 14 149 -40 171 -47 20 -143 19 -177 -2z"/>
<path d="M12418 15698 c-56 -15 -124 -81 -163 -158 -18 -36 -57 -134 -85 -216 -91 -261 -153 -394 -360 -769 -153 -277 -278 -554 -316 -697 -16 -65 -7 -121 22 -132 37 -14 117 -5 181 21 117 47 203 152 258 318 35 105 31 153 -29 288 -24 56 -47 111 -50 123 -11 36 12 45 87 32 94 -15 164 1 216 50 50 48 59 81 70 277 14 247 35 281 236 382 188 95 219 134 219 278 0 153 -55 216 -189 214 -33 -1 -77 -6 -97 -11z"/>
<path d="M7976 15410 c-33 -10 -88 -60 -116 -106 -30 -48 -95 -219 -126 -329 -35 -129 -40 -299 -10 -355 11 -19 26 -40 35 -47 27 -21 91 -15 137 12 90 53 222 255 244 374 20 106 3 339 -29 398 -26 49 -80 70 -135 53z"/>
<path d="M7194 15214 c-37 -18 -64 -70 -94 -183 -37 -135 -14 -292 46 -320 33 -14 106 -14 139 1 50 23 75 106 76 255 0 75 -4 108 -22 155 -31 84 -88 120 -145 92z"/>
<path d="M13100 14882 c-75 -38 -169 -109 -250 -191 -68 -68 -94 -103 -127 -171 -46 -95 -73 -178 -73 -224 0 -72 74 -134 186 -157 54 -11 67 -10 106 4 53 21 143 95 191 158 75 100 156 309 157 407 0 51 -50 166 -79 182 -29 15 -71 12 -111 -8z"/>
<path d="M6890 14340 c-83 -18 -146 -38 -305 -99 -97 -37 -218 -67 -306 -75 -109 -10 -287 -79 -352 -135 -94 -83 -113 -314 -35 -424 39 -55 175 -127 299 -159 161 -40 307 -4 556 140 130 75 221 111 341 137 93 19 127 19 188 -2 95 -32 134 -78 134 -158 0 -52 -18 -103 -46 -126 -11 -9 -48 -31 -84 -50 -36 -19 -67 -35 -69 -36 -2 -1 13 -29 33 -61 64 -106 79 -149 72 -205 -13 -92 -53 -140 -151 -176 -79 -30 -133 -28 -181 7 -52 38 -164 160 -209 227 -68 102 -107 114 -237 71 -129 -43 -232 -96 -316 -164 -198 -161 -304 -630 -246 -1084 25 -193 58 -274 132 -320 31 -19 50 -23 112 -21 129 2 192 35 458 240 247 190 259 194 821 232 126 9 151 14 206 40 149 69 323 326 398 586 52 179 54 444 6 640 -59 239 -214 533 -380 720 -142 160 -274 227 -507 259 -144 20 -226 19 -332 -4z"/>
<path d="M8930 14149 c-35 -14 -88 -67 -111 -111 -26 -51 -49 -166 -49 -246 0 -76 21 -273 43 -407 8 -49 25 -155 38 -235 16 -108 29 -160 51 -203 51 -103 123 -123 218 -62 41 26 65 35 98 35 50 0 90 23 104 59 26 68 39 200 45 476 8 418 -8 518 -101 610 -40 40 -66 55 -121 73 -74 24 -170 28 -215 11z"/>
<path d="M12400 13851 c-68 -21 -203 -112 -242 -164 -42 -55 -78 -130 -78 -164 0 -40 38 -86 89 -106 64 -26 102 -9 201 92 95 95 131 158 138 236 4 43 1 55 -19 77 -28 31 -54 39 -89 29z"/>
<path d="M13399 13757 c-54 -29 -89 -78 -89 -125 0 -85 146 -160 229 -118 31 17 81 83 81 110 0 56 -101 156 -158 156 -10 0 -39 -10 -63 -23z"/>
<path d="M10660 13743 c-56 -19 -72 -30 -138 -95 -116 -115 -132 -225 -54 -381 116 -233 233 -308 585 -377 143 -28 240 -55 283 -78 10 -6 42 -21 69 -33 64 -29 143 -102 166 -154 11 -23 19 -63 19 -94 0 -51 -2 -57 -45 -97 -52 -50 -94 -62 -169 -45 -28 6 -64 12 -80 14 l-29 2 -23 -107 c-25 -118 -44 -154 -102 -190 -74 -46 -229 -19 -296 51 -37 38 -47 109 -45 304 l2 168 -34 35 c-39 41 -123 82 -236 116 -63 18 -102 23 -208 23 l-130 0 -79 -34 c-163 -70 -367 -232 -514 -406 -105 -125 -234 -318 -263 -393 -54 -146 -2 -245 168 -316 55 -23 85 -27 240 -36 375 -22 453 -35 558 -92 73 -39 239 -155 335 -232 134 -108 202 -140 309 -145 94 -4 152 7 286 51 378 126 676 433 806 830 58 179 81 315 86 524 5 172 3 197 -16 268 -40 146 -111 255 -253 392 -147 141 -205 173 -493 274 -120 42 -224 93 -308 150 -60 40 -125 67 -232 96 -105 28 -106 28 -165 7z"/>
<path d="M13005 13491 c-176 -63 -438 -258 -505 -377 -114 -198 113 -263 415 -119 145 69 325 301 325 417 0 40 -3 46 -42 71 -50 32 -116 35 -193 8z"/>
<path d="M2827 13464 c-50 -34 -97 -100 -97 -136 0 -64 64 -136 127 -145 59 -8 96 16 128 82 44 90 20 165 -67 211 -37 19 -48 18 -91 -12z"/>
<path d="M4505 13334 c-62 -19 -149 -77 -188 -126 -75 -94 -30 -251 123 -427 48 -55 107 -110 403 -372 195 -173 274 -208 355 -159 33 20 62 71 62 108 0 10 23 45 51 77 46 52 50 62 45 93 -6 41 -52 119 -145 247 -193 266 -394 487 -489 539 -66 35 -146 42 -217 20z"/>
<path d="M1745 13163 c-11 -3 -27 -11 -35 -17 -8 -7 -29 -18 -47 -25 -35 -14 -63 -49 -63 -80 0 -52 118 -225 228 -335 90 -90 288 -186 383 -186 104 0 193 189 144 306 -36 87 -119 169 -230 227 -78 41 -161 77 -177 77 -8 0 -28 6 -44 14 -32 15 -128 27 -159 19z"/>
<path d="M3041 13084 c-37 -31 -55 -91 -46 -152 13 -86 170 -359 272 -472 48 -54 119 -102 180 -124 37 -13 43 -13 69 3 40 24 50 39 64 90 28 104 -41 339 -133 453 -69 87 -285 228 -347 228 -16 0 -42 -11 -59 -26z"/>
<path d="M940 12579 c-100 -17 -141 -64 -147 -171 -4 -59 -1 -82 17 -123 47 -109 111 -149 400 -250 187 -66 267 -102 490 -221 248 -132 275 -147 285 -154 6 -4 81 -44 168 -89 256 -132 478 -221 552 -221 62 0 85 51 65 147 -18 84 -51 143 -114 200 -67 62 -123 94 -224 129 -105 36 -157 31 -291 -30 -61 -28 -114 -46 -130 -44 -29 3 -30 15 -16 113 14 95 -29 184 -106 223 -38 19 -73 25 -200 33 -268 17 -304 39 -409 249 -33 65 -75 135 -95 154 -50 50 -145 72 -245 55z"/>
<path d="M2691 12363 c-56 -29 -60 -61 -17 -146 76 -153 190 -257 292 -265 46 -4 54 -1 78 24 79 83 56 169 -78 290 -109 98 -207 133 -275 97z"/>
<path d="M12888 12186 c-147 -62 -219 -140 -573 -620 -101 -138 -135 -204 -135 -264 0 -81 40 -125 124 -137 32 -5 60 -18 88 -41 71 -60 105 -56 215 28 95 72 320 277 413 375 178 190 240 299 225 396 -15 99 -115 241 -192 273 -47 20 -100 16 -165 -10z"/>
<path d="M3733 11985 c-182 -32 -339 -131 -500 -314 -103 -118 -159 -226 -228 -441 -26 -80 -86 -202 -150 -304 -66 -107 -115 -248 -115 -333 0 -77 29 -134 106 -209 66 -64 147 -104 207 -104 89 2 272 93 360 182 92 91 154 246 197 488 14 77 44 189 58 216 6 10 25 51 44 89 60 127 150 195 258 195 38 0 48 -6 91 -49 46 -46 49 -51 49 -101 0 -30 -5 -80 -12 -112 -15 -70 -13 -73 73 -82 138 -14 225 -80 236 -180 11 -90 -42 -212 -104 -241 -54 -26 -171 -37 -318 -29 -156 7 -163 4 -219 -109 -85 -172 -113 -394 -66 -527 89 -255 376 -568 699 -765 116 -71 199 -95 262 -76 82 24 167 143 190 265 5 28 16 157 24 286 21 357 48 421 313 755 147 185 172 260 147 428 -34 225 -153 462 -317 633 -193 201 -416 326 -703 393 -216 52 -447 70 -582 46z"/>
<path d="M15810 11766 c-133 -35 -447 -262 -619 -446 -132 -142 -152 -151 -356 -160 l-160 -7 -65 -32 c-85 -41 -190 -119 -226 -167 -25 -32 -29 -48 -33 -115 -3 -67 1 -86 22 -133 69 -149 161 -130 562 121 399 250 430 263 809 352 201 48 361 137 396 221 30 73 -21 216 -110 310 -63 67 -124 83 -220 56z"/>
<path d="M715 11537 c-109 -61 -165 -323 -91 -420 80 -105 433 -187 806 -187 228 0 244 -5 368 -123 116 -111 139 -127 217 -155 113 -40 240 -53 306 -31 79 27 159 140 159 224 0 81 -49 124 -195 170 -69 22 -114 33 -450 115 -294 71 -370 103 -608 253 -166 105 -176 110 -289 147 -111 36 -168 38 -223 7z"/>
<path d="M16385 10821 c-44 -16 -118 -48 -165 -71 -250 -124 -293 -140 -750 -281 -701 -216 -908 -312 -874 -406 23 -66 176 -143 283 -143 111 0 293 71 361 141 34 35 49 66 113 229 33 86 55 88 109 8 32 -46 52 -63 104 -89 104 -52 155 -34 299 101 95 89 183 149 235 161 50 11 126 -2 260 -47 144 -47 194 -45 274 10 62 43 124 125 132 177 12 73 -54 165 -151 211 -77 36 -127 36 -230 -1z"/>
<path d="M13727 10702 c-114 -31 -180 -118 -227 -300 -49 -193 -8 -334 174 -601 42 -61 76 -114 76 -117 0 -3 8 -18 18 -32 26 -38 81 -183 94 -247 13 -65 5 -125 -26 -185 -31 -62 -75 -90 -141 -90 -67 0 -107 26 -160 105 -22 32 -46 60 -54 63 -7 2 -39 -13 -70 -35 -118 -84 -174 -99 -249 -67 -54 22 -91 61 -123 129 -58 121 -38 170 143 348 121 117 131 130 135 170 8 75 -79 254 -184 382 -80 98 -170 151 -327 194 -309 85 -906 32 -1062 -95 -76 -61 -92 -140 -53 -257 34 -100 66 -143 274 -367 194 -208 232 -304 285 -714 23 -180 43 -245 95 -316 79 -108 300 -228 535 -292 75 -20 107 -23 275 -22 199 0 270 11 430 65 216 73 485 248 666 435 166 172 224 323 223 584 -1 202 -21 278 -145 541 -76 162 -89 199 -119 333 -24 106 -93 254 -150 319 -68 77 -201 104 -333 69z"/>
<path d="M16105 9804 c-11 -3 -40 -12 -65 -20 -224 -78 -280 -120 -280 -211 0 -48 47 -149 89 -189 67 -66 219 -82 365 -40 47 14 93 29 103 34 10 5 41 19 68 32 62 29 144 82 167 106 24 28 58 119 58 159 0 55 -28 75 -152 105 -80 20 -309 35 -353 24z"/>
<path d="M14988 9579 c-58 -8 -109 -29 -140 -57 -41 -35 -31 -137 16 -181 51 -48 297 -46 393 2 79 40 112 103 83 156 -14 27 -94 57 -195 75 -50 9 -92 15 -95 15 -3 -1 -31 -5 -62 -10z"/>
<path d="M2621 9224 c-51 -8 -115 -26 -141 -39 -92 -46 -149 -146 -157 -275 -5 -67 -3 -84 17 -124 45 -94 174 -146 360 -146 95 0 327 25 470 50 30 5 105 17 165 25 129 18 165 28 222 63 77 48 93 124 41 200 -24 34 -33 60 -36 101 -5 60 -19 84 -65 108 -79 40 -694 67 -876 37z"/>
<path d="M14883 8945 c-73 -16 -102 -30 -125 -59 -41 -50 -6 -142 78 -206 130 -98 266 -150 390 -150 146 0 341 51 371 97 22 34 12 104 -21 148 -78 102 -516 210 -693 170z"/>
<path d="M15845 8763 c-51 -13 -91 -83 -79 -137 20 -93 72 -146 145 -146 95 0 124 33 123 139 -1 76 -13 105 -54 126 -33 17 -104 27 -135 18z"/>
<path d="M3326 8390 c-252 -53 -426 -137 -656 -316 -111 -86 -255 -229 -307 -304 -108 -158 -148 -344 -124 -572 17 -154 43 -235 128 -398 125 -237 140 -271 176 -393 59 -200 163 -353 260 -382 100 -30 255 -10 322 41 70 53 124 176 146 334 10 79 10 91 -11 165 -30 107 -83 204 -187 344 -128 171 -127 171 -161 241 -57 122 -64 142 -69 213 -7 90 7 142 51 193 l34 39 74 0 c60 0 79 -4 100 -21 30 -23 98 -109 98 -123 0 -21 32 -19 53 3 12 14 53 45 90 70 62 42 74 46 128 46 79 0 121 -19 159 -72 113 -154 95 -219 -128 -451 l-94 -98 4 -47 c9 -88 107 -258 217 -375 74 -78 156 -123 291 -159 78 -21 106 -23 330 -22 228 0 254 2 370 27 302 66 405 117 445 221 16 42 17 56 7 105 -26 122 -61 172 -257 366 -107 106 -199 206 -223 243 -69 107 -112 244 -158 503 -36 211 -65 281 -146 355 -103 95 -308 187 -510 228 -109 23 -336 20 -452 -4z"/>
<path d="M677 8114 c-34 -18 -47 -50 -46 -112 1 -106 44 -153 142 -156 65 -1 108 26 124 79 16 49 -7 123 -51 170 -30 32 -38 35 -87 35 -30 -1 -67 -8 -82 -16z"/>
<path d="M1307 8100 c-177 -41 -247 -83 -247 -149 0 -71 62 -135 166 -171 129 -45 251 -64 419 -64 l160 -1 56 26 c70 33 88 68 69 132 -16 53 -69 105 -163 157 -155 87 -296 108 -460 70z"/>
<path d="M13945 7803 c-84 -10 -310 -33 -380 -39 -93 -7 -174 -35 -217 -73 -25 -22 -32 -37 -36 -79 -4 -45 -1 -58 23 -94 21 -32 29 -57 31 -99 4 -108 32 -124 274 -159 299 -43 665 -49 774 -13 70 22 147 101 175 176 29 79 30 206 1 252 -27 43 -84 81 -166 110 -64 23 -82 24 -259 23 -104 0 -203 -3 -220 -5z"/>
<path d="M12222 7353 c-71 -35 -141 -149 -167 -272 -8 -38 -19 -129 -25 -203 -18 -227 -34 -314 -80 -414 -36 -79 -148 -234 -274 -377 -108 -123 -141 -176 -163 -261 -40 -155 50 -478 194 -695 66 -100 218 -255 318 -326 84 -58 248 -144 336 -174 309 -108 625 -142 805 -89 112 33 217 96 333 199 151 134 209 221 306 459 61 151 85 195 170 321 81 121 135 249 143 341 4 49 0 67 -23 114 -54 110 -188 214 -276 214 -53 0 -150 -30 -235 -72 -184 -91 -261 -207 -339 -513 -48 -187 -51 -196 -102 -302 -57 -121 -124 -194 -201 -223 -97 -37 -167 -13 -212 74 l-24 45 16 83 c9 46 18 89 20 96 4 19 -12 26 -116 51 -139 33 -191 88 -191 202 1 80 54 185 109 213 56 28 220 34 345 12 l93 -16 46 37 c55 45 109 154 147 294 65 244 6 430 -230 724 -140 174 -385 379 -538 451 -61 28 -136 31 -185 7z"/>
<path d="M1625 7353 c-135 -21 -204 -52 -244 -109 -60 -86 -4 -137 179 -165 123 -19 245 7 302 64 50 50 32 153 -34 192 -32 18 -139 28 -203 18z"/>
<path d="M600 7280 c-52 -9 -156 -41 -185 -58 -11 -7 -31 -16 -45 -22 -14 -5 -34 -16 -45 -22 -146 -91 -166 -111 -194 -195 -27 -79 -26 -105 1 -130 47 -43 128 -58 318 -58 l175 0 103 42 c223 93 267 153 208 286 -31 72 -78 123 -129 141 -52 18 -147 25 -207 16z"/>
<path d="M1778 6734 c-126 -30 -269 -118 -305 -188 -9 -17 -33 -83 -53 -146 -45 -143 -57 -149 -121 -65 -45 59 -103 97 -172 109 -63 12 -117 -21 -246 -148 -64 -62 -136 -126 -160 -141 -61 -38 -137 -37 -294 4 -185 48 -239 40 -327 -48 -42 -42 -100 -139 -100 -168 0 -17 34 -79 60 -110 39 -45 98 -81 156 -94 90 -20 167 7 425 151 181 100 238 125 659 279 406 149 464 173 630 255 147 72 230 134 230 174 0 25 -50 77 -101 103 -95 48 -179 58 -281 33z"/>
<path d="M2180 6052 c-71 -35 -161 -94 -402 -263 -295 -207 -382 -251 -643 -323 -72 -20 -151 -44 -175 -54 -127 -49 -255 -142 -280 -202 -27 -65 10 -177 91 -275 84 -103 170 -123 290 -67 138 64 420 295 538 441 138 170 174 190 361 202 170 10 236 37 377 156 71 60 103 117 103 187 0 74 -31 153 -77 194 -47 42 -104 43 -183 4z"/>
<path d="M14505 5808 c-71 -39 -145 -148 -145 -214 0 -102 91 -153 465 -259 200 -56 354 -104 415 -128 85 -34 223 -114 360 -211 303 -212 487 -241 572 -89 34 61 68 173 68 226 0 47 -39 125 -77 153 -75 55 -197 97 -403 138 -188 37 -193 37 -370 45 -214 10 -223 14 -371 163 -103 104 -121 118 -184 141 -38 15 -90 31 -115 36 -60 14 -190 13 -215 -1z"/>
<path d="M4244 5681 c-76 -51 -385 -365 -497 -506 -157 -196 -183 -288 -119 -417 38 -77 120 -162 179 -184 41 -16 48 -16 106 0 158 44 247 140 534 579 182 279 207 341 168 417 -23 44 -61 68 -121 76 -35 4 -65 15 -82 29 -68 56 -92 57 -168 6z"/>
<path d="M5587 5141 c-459 -110 -794 -422 -946 -881 -60 -182 -82 -308 -88 -504 -6 -206 1 -252 56 -371 49 -104 106 -178 232 -300 119 -115 193 -158 415 -243 161 -62 196 -79 304 -151 196 -131 374 -174 474 -116 97 57 189 175 203 261 6 38 -26 154 -64 229 -105 208 -228 283 -598 365 -95 21 -192 52 -225 71 -8 5 -26 14 -40 19 -52 22 -75 36 -124 81 -64 58 -96 120 -96 185 0 57 15 83 73 125 42 30 100 38 149 20 13 -4 42 -11 65 -15 l42 -6 11 38 c5 22 14 62 20 90 15 83 44 128 103 162 45 27 59 31 107 27 61 -5 156 -46 188 -80 39 -43 53 -204 33 -387 l-9 -75 28 -40 c47 -67 193 -130 373 -161 106 -18 159 -14 269 22 244 80 595 397 772 697 56 94 69 137 64 206 -5 70 -29 106 -101 154 -90 60 -156 76 -380 92 -419 31 -455 46 -862 380 -116 95 -169 118 -280 121 -62 2 -115 -3 -168 -15z"/>
<path d="M14057 5082 c-40 -44 -8 -203 59 -295 64 -88 242 -186 354 -194 58 -5 76 -1 160 32 194 75 202 73 175 -35 -10 -39 -15 -84 -11 -101 12 -61 47 -124 81 -147 42 -29 73 -36 252 -57 225 -25 269 -55 353 -244 71 -158 91 -186 153 -218 44 -23 65 -27 137 -28 153 0 205 51 205 200 0 66 -5 88 -25 124 -34 61 -109 119 -210 163 -334 144 -412 181 -545 258 -130 75 -258 152 -379 225 -221 135 -541 302 -622 324 -61 17 -118 14 -137 -7z"/>
<path d="M9875 5055 c-105 -33 -148 -65 -325 -245 -96 -97 -193 -191 -215 -207 -97 -74 -247 -124 -510 -173 -300 -55 -360 -92 -468 -290 -210 -384 -193 -880 42 -1265 214 -350 470 -578 709 -631 108 -24 375 -15 482 16 81 24 204 79 291 131 131 77 327 159 380 159 24 0 163 72 229 118 30 21 68 58 85 81 l30 43 0 116 c0 108 -2 121 -28 175 -32 64 -79 102 -168 138 -67 26 -184 49 -251 49 -122 0 -266 -68 -463 -216 -275 -208 -451 -265 -591 -193 -56 29 -84 75 -84 139 1 62 24 100 100 160 36 29 64 57 62 62 -1 5 -25 36 -52 69 -69 83 -80 108 -80 181 0 75 25 120 93 165 79 54 150 67 211 38 45 -21 213 -163 258 -218 33 -40 43 -45 85 -49 79 -7 234 73 375 194 145 125 208 315 208 631 0 286 -72 625 -159 752 -53 77 -143 103 -246 70z"/>
<path d="M11044 4611 c-45 -20 -60 -46 -73 -128 -5 -32 -18 -63 -34 -83 -60 -71 -47 -112 76 -247 199 -220 477 -462 607 -528 77 -40 163 -40 240 0 177 90 231 209 160 351 -63 128 -186 231 -570 479 -271 176 -320 195 -406 156z"/>
<path d="M13744 4491 c-71 -67 -67 -130 15 -229 132 -159 265 -220 340 -156 39 32 40 69 7 141 -99 212 -272 328 -362 244z"/>
<path d="M13254 4160 c-12 -5 -32 -26 -45 -47 -47 -75 -22 -289 51 -434 51 -100 210 -243 329 -296 l53 -24 37 18 c95 47 94 170 -4 365 -107 214 -212 346 -319 402 -52 27 -68 30 -102 16z"/>
<path d="M14520 3913 c-71 -27 -133 -132 -134 -228 -1 -49 4 -69 28 -110 38 -65 150 -173 212 -205 27 -14 56 -30 64 -35 38 -27 217 -85 262 -85 24 0 115 32 147 52 27 17 42 54 35 86 -19 81 -135 253 -235 352 -61 60 -197 137 -288 164 -58 17 -67 18 -91 9z"/>
<path d="M3968 3440 c-70 -12 -155 -39 -226 -71 -133 -60 -332 -303 -332 -405 0 -60 94 -112 178 -99 123 20 431 199 523 304 52 59 89 131 89 174 0 41 -41 78 -105 96 -44 12 -59 12 -127 1z"/>
<path d="M7550 3365 c-43 -28 -64 -35 -105 -35 -28 0 -60 -6 -71 -14 -45 -32 -76 -214 -95 -561 -12 -232 -2 -389 31 -478 42 -113 168 -187 317 -187 98 0 149 34 193 127 70 147 66 323 -20 962 -17 127 -87 221 -164 221 -18 0 -54 -15 -86 -35z"/>
<path d="M13810 3278 c-39 -21 -83 -94 -88 -149 -4 -42 -1 -53 27 -87 35 -45 79 -67 116 -58 15 4 51 30 81 59 45 44 54 59 54 88 0 35 -40 110 -73 137 -23 20 -88 25 -117 10z"/>
<path d="M4385 2926 c-43 -20 -142 -112 -191 -178 -89 -122 -78 -248 23 -248 61 0 224 98 280 168 43 53 73 116 73 152 0 59 -69 121 -134 120 -12 -1 -34 -7 -51 -14z"/>
<path d="M3080 2843 c-61 -62 -65 -91 -17 -151 46 -58 85 -86 122 -86 43 0 116 51 138 97 17 33 17 42 5 79 -16 52 -83 98 -153 105 l-45 6 -50 -50z"/>
<path d="M4952 2586 c-34 -13 -77 -34 -95 -46 -104 -72 -217 -298 -204 -410 3 -26 27 -99 53 -162 55 -136 54 -155 -9 -142 -23 5 -73 9 -112 9 -56 0 -79 -6 -114 -25 -71 -39 -88 -83 -107 -280 -18 -189 -38 -254 -90 -300 -19 -17 -95 -59 -168 -94 -73 -35 -146 -78 -163 -94 -33 -34 -63 -123 -63 -188 0 -58 26 -137 52 -160 63 -56 180 -65 271 -20 89 43 130 106 217 335 100 262 114 290 348 701 184 323 213 376 263 480 86 177 129 293 129 346 0 73 -88 94 -208 50z"/>
<path d="M10671 2419 c-92 -32 -138 -94 -125 -167 10 -57 76 -174 185 -327 298 -421 346 -508 423 -775 24 -85 53 -178 64 -205 53 -135 154 -259 219 -271 76 -14 175 25 266 107 96 86 109 168 47 296 -64 131 -292 400 -447 529 -59 49 -119 109 -139 138 -30 46 -35 63 -44 156 -22 217 -35 264 -98 350 -132 180 -212 219 -351 169z"/>
<path d="M5600 2288 c-42 -23 -84 -91 -117 -188 -32 -95 -45 -141 -110 -390 -81 -311 -127 -419 -277 -645 -52 -77 -105 -162 -118 -190 -71 -142 -91 -269 -52 -336 44 -74 254 -146 352 -120 82 22 140 97 182 234 16 53 51 219 75 362 4 22 10 126 15 230 4 105 13 207 20 229 8 27 45 73 124 155 62 64 120 130 129 148 9 17 29 78 43 133 47 182 25 266 -90 345 -59 41 -134 55 -176 33z"/>
<path d="M3665 2216 c-135 -62 -258 -237 -324 -460 -24 -81 -26 -124 -7 -151 7 -11 19 -37 25 -57 13 -41 53 -78 82 -78 58 0 277 146 369 247 60 65 155 253 165 324 12 83 -41 144 -156 180 -78 24 -93 24 -154 -5z"/>
<path d="M9971 2121 c-38 -35 -77 -118 -92 -194 -15 -72 7 -174 61 -285 68 -141 106 -171 287 -227 91 -28 131 -53 118 -75 -3 -6 -30 -28 -60 -50 -34 -25 -60 -55 -74 -84 -57 -117 -39 -168 116 -323 62 -63 127 -137 143 -166 40 -70 40 -135 -1 -287 -41 -150 -43 -214 -8 -266 38 -56 99 -114 136 -130 17 -8 34 -18 38 -24 12 -19 75 -10 117 16 132 84 173 223 109 372 -16 37 -57 117 -90 177 -56 100 -149 285 -180 360 -12 28 -61 158 -223 595 -97 263 -220 519 -277 578 -49 50 -77 53 -120 13z"/>
<path d="M8733 1920 c-62 -25 -155 -165 -202 -307 -40 -119 -24 -312 40 -471 34 -84 91 -113 157 -78 89 46 134 152 173 406 49 316 -22 509 -168 450z"/>
<path d="M9369 1880 c-43 -13 -76 -39 -89 -71 -20 -46 -8 -240 19 -314 41 -116 143 -177 192 -116 48 59 73 261 46 364 -19 73 -53 124 -91 137 -33 11 -41 11 -77 0z"/>
<path d="M9549 946 c-112 -30 -180 -97 -199 -194 -12 -65 2 -217 24 -261 9 -16 16 -34 16 -39 0 -5 14 -38 30 -73 89 -188 157 -253 277 -265 53 -6 60 -4 81 19 35 37 62 183 62 335 l0 122 -36 93 c-68 173 -111 238 -171 263 -18 8 -34 14 -35 13 -2 0 -24 -6 -49 -13z"/>
<path d="M8625 891 c-42 -10 -102 -52 -115 -79 -13 -30 -13 -101 1 -141 14 -40 44 -48 157 -43 59 3 98 41 107 106 17 113 -48 182 -150 157z"/>
</g>
</g>
</svg>
