<?xml version="1.0" standalone="no"?>
<!DOCTYPE svg PUBLIC "-//W3C//DTD SVG 1.1//EN"
 "http://www.w3.org/Graphics/SVG/1.1/DTD/svg11.dtd">
<!-- Created with svg_stack (http://github.com/astraw/svg_stack) -->
<svg xmlns:sodipodi="http://sodipodi.sourceforge.net/DTD/sodipodi-0.dtd" xmlns="http://www.w3.org/2000/svg" version="1.1" width="1252.0" height="1252.0">
  <defs/>
  <g id="id0:id0" transform="matrix(1.25,0,0,1.25,0.0,0.0)"><g transform="translate(0.000000,1001.600000) scale(0.040000,-0.040000)" fill="#ffffff" stroke="none">
<path d="M0 12520 l0 -12520 12520 0 12520 0 0 7116 c0 5688 -3 7115 -12 7112 -13 -5 -17 -36 -33 -263 -6 -87 -13 -117 -30 -145 -15 -24 -24 -56 -27 -100 -2 -39 -13 -83 -26 -111 -12 -25 -22 -53 -22 -61 0 -28 -110 -292 -130 -313 -11 -12 -20 -33 -20 -48 0 -20 -7 -30 -24 -36 -23 -9 -40 -36 -31 -50 2 -5 -7 -19 -20 -31 -14 -13 -25 -31 -25 -41 0 -9 -7 -22 -16 -30 -8 -7 -22 -26 -31 -43 -9 -17 -34 -49 -55 -70 -22 -22 -45 -53 -52 -70 -19 -44 -143 -185 -172 -197 -14 -5 -22 -14 -19 -20 4 -6 -2 -13 -14 -16 -12 -3 -21 -13 -21 -23 0 -11 -17 -28 -39 -42 -21 -13 -73 -47 -116 -75 -42 -29 -79 -53 -82 -53 -3 0 -21 -12 -40 -26 -48 -37 -209 -91 -295 -99 -40 -3 -98 -11 -128 -16 -36 -6 -84 -5 -135 1 -44 6 -118 15 -165 20 -94 10 -274 63 -305 90 -11 10 -40 20 -65 23 -30 4 -50 13 -59 26 -7 12 -24 21 -38 21 -14 0 -36 9 -50 20 -14 11 -34 20 -43 20 -10 0 -47 13 -82 30 -34 16 -73 30 -85 30 -12 0 -31 12 -42 26 -15 19 -26 24 -42 19 -15 -5 -29 1 -53 23 -19 19 -47 32 -73 37 -23 4 -47 13 -54 21 -6 8 -18 14 -26 14 -9 0 -32 8 -52 19 -20 10 -63 27 -96 37 -64 20 -117 45 -144 66 -9 8 -34 20 -56 27 -22 7 -47 19 -55 26 -8 7 -28 16 -45 19 -16 4 -37 14 -45 21 -8 7 -37 20 -65 28 -49 15 -166 62 -235 94 -19 9 -48 27 -63 39 -17 15 -42 24 -61 24 -20 0 -40 8 -51 20 -10 11 -29 20 -43 20 -13 0 -36 6 -50 14 -15 8 -70 30 -122 50 -53 19 -135 55 -183 79 -49 25 -106 48 -129 52 -22 4 -49 16 -59 26 -10 10 -25 19 -33 19 -7 0 -38 11 -68 24 -30 14 -75 30 -99 36 -24 7 -51 18 -59 25 -8 7 -27 17 -43 20 -15 4 -33 15 -40 25 -6 9 -30 20 -51 23 -21 3 -49 15 -61 27 -12 11 -33 20 -47 20 -14 0 -46 11 -72 25 -26 14 -55 25 -65 25 -19 0 -182 70 -203 87 -7 6 -30 14 -51 18 -21 4 -42 16 -48 26 -6 11 -20 19 -36 19 -15 0 -34 7 -42 14 -9 8 -31 18 -50 21 -18 3 -47 13 -63 21 -16 8 -64 27 -106 40 -43 14 -90 34 -106 45 l-28 21 -38 -37 c-37 -36 -44 -48 -87 -145 -11 -25 -32 -70 -46 -100 -14 -31 -29 -69 -33 -85 -11 -46 -63 -145 -79 -151 -8 -3 -17 -21 -21 -39 -3 -19 -15 -41 -25 -51 -10 -9 -19 -28 -19 -41 0 -13 -9 -41 -20 -61 -25 -48 -90 -212 -94 -237 -2 -12 -11 -20 -22 -20 -15 0 -18 -6 -16 -27 2 -20 -4 -32 -23 -44 -17 -11 -25 -25 -25 -46 0 -17 -8 -47 -19 -67 -37 -72 -70 -147 -86 -198 -9 -28 -23 -57 -31 -63 -7 -7 -14 -20 -14 -29 0 -10 -11 -27 -25 -39 -14 -12 -25 -33 -25 -46 0 -13 -6 -29 -14 -35 -8 -7 -20 -34 -26 -61 -6 -27 -18 -54 -26 -61 -8 -6 -14 -18 -14 -26 0 -8 -14 -47 -31 -86 -34 -78 -43 -96 -111 -232 -25 -49 -51 -108 -58 -130 -7 -22 -21 -53 -30 -70 -9 -16 -24 -52 -34 -78 -16 -43 -40 -92 -106 -217 -10 -19 -30 -62 -44 -95 -13 -33 -41 -98 -60 -144 -20 -47 -36 -93 -36 -104 0 -10 -9 -21 -20 -24 -12 -3 -20 -14 -20 -27 0 -13 -11 -33 -25 -46 -14 -13 -25 -34 -25 -48 0 -13 -10 -43 -21 -66 -47 -89 -57 -113 -77 -176 -22 -69 -68 -160 -82 -160 -4 0 -11 -16 -14 -35 -4 -19 -14 -39 -23 -44 -9 -5 -18 -23 -19 -39 -1 -17 -11 -44 -23 -61 -12 -16 -21 -35 -21 -42 0 -7 -15 -52 -34 -99 -19 -47 -37 -93 -40 -102 -3 -11 -11 -15 -21 -12 -11 5 -15 -1 -15 -21 0 -15 -11 -40 -25 -57 -16 -18 -25 -42 -25 -62 0 -20 -8 -40 -20 -51 -11 -10 -20 -28 -20 -39 0 -12 -7 -31 -15 -42 -8 -12 -24 -46 -35 -77 -11 -30 -30 -67 -40 -80 -11 -14 -20 -33 -20 -42 0 -9 -11 -30 -25 -47 -15 -18 -25 -42 -25 -62 0 -22 -8 -40 -25 -56 -15 -14 -23 -30 -20 -40 3 -9 -3 -24 -14 -34 -10 -10 -22 -34 -26 -54 -4 -20 -15 -52 -25 -71 -10 -20 -28 -57 -39 -83 -12 -27 -26 -48 -31 -48 -6 0 -10 -10 -10 -22 0 -12 -10 -32 -22 -45 -12 -12 -22 -31 -23 -42 -1 -11 -7 -26 -14 -35 -12 -15 -660 -16 -7292 -16 -4003 0 -7280 4 -7283 8 -3 5 -6 455 -7 1000 -1 832 -3 993 -15 1003 -20 17 -41 4 -57 -33 -8 -18 -24 -42 -36 -52 -11 -11 -21 -25 -21 -32 0 -7 -11 -25 -24 -41 -13 -15 -40 -59 -61 -98 -20 -38 -43 -74 -51 -78 -8 -4 -14 -16 -14 -26 0 -10 -16 -31 -36 -46 -33 -25 -54 -58 -103 -161 -11 -23 -24 -45 -30 -49 -6 -3 -18 -22 -26 -41 -8 -19 -21 -34 -29 -34 -8 0 -19 -12 -26 -27 -17 -42 -42 -84 -75 -127 -17 -22 -43 -67 -60 -100 -23 -47 -36 -62 -58 -68 -35 -8 -84 8 -98 33 -5 10 -31 30 -57 43 -27 14 -54 32 -62 41 -8 9 -40 30 -72 46 -32 16 -90 60 -129 99 -45 43 -81 70 -94 70 -12 0 -32 11 -45 25 -13 14 -29 25 -36 25 -7 0 -25 16 -40 35 -14 19 -31 35 -37 35 -5 0 -20 11 -33 25 -13 14 -31 25 -41 25 -10 0 -40 18 -67 40 -26 22 -52 40 -57 40 -11 0 -100 67 -116 87 -6 8 -18 16 -26 17 -8 1 -39 22 -69 48 -29 25 -78 58 -108 73 -30 16 -75 48 -100 71 -93 88 -113 104 -131 104 -10 0 -20 4 -23 9 -4 5 -44 34 -89 64 -46 30 -97 72 -114 93 l-30 39 26 37 c14 21 36 45 48 53 12 8 42 58 68 111 43 90 110 194 135 209 5 3 10 15 10 27 0 11 15 38 34 59 19 22 55 83 81 135 27 55 61 106 80 122 18 15 56 72 85 127 29 55 65 116 80 135 14 19 30 43 33 52 4 11 12 15 21 12 12 -5 17 4 22 35 3 22 15 48 25 57 11 9 19 25 19 35 0 10 8 23 18 28 10 5 35 46 56 91 21 44 47 85 57 91 10 5 19 18 19 29 0 11 11 27 25 36 14 9 25 22 25 30 0 7 12 30 26 51 14 21 50 82 80 136 30 53 61 97 69 97 7 0 18 12 25 28 19 46 49 96 64 107 7 6 17 25 20 42 4 17 14 37 21 43 8 7 25 32 37 56 12 24 36 60 54 80 19 20 45 60 58 88 14 29 32 58 39 65 8 6 21 26 28 44 18 43 69 129 86 143 23 19 60 76 94 144 18 36 43 78 56 93 13 16 23 35 23 42 0 8 13 28 30 45 16 17 30 37 30 44 0 7 9 21 20 31 11 10 20 24 20 32 0 7 7 16 16 20 9 3 34 43 55 89 22 48 65 117 102 163 36 44 68 88 72 100 10 34 105 195 131 222 13 14 24 32 24 40 0 9 9 24 20 34 11 10 20 23 20 28 0 5 11 20 25 33 14 13 25 32 25 42 0 10 9 27 20 37 11 10 20 25 20 33 0 8 11 30 25 48 14 18 29 44 35 58 6 17 15 24 24 20 11 -4 18 6 25 34 6 22 18 45 26 52 8 7 15 18 15 25 0 6 9 20 19 30 11 9 38 54 60 99 22 44 57 99 78 121 60 64 83 97 83 122 0 12 9 27 20 33 11 6 20 17 20 26 0 8 28 43 63 78 34 35 93 98 130 139 37 42 89 89 115 104 26 15 78 55 116 90 39 34 86 68 105 74 20 7 52 20 71 30 19 11 41 19 48 19 8 0 25 9 39 20 14 11 39 20 55 20 17 0 41 9 55 20 14 11 33 20 41 20 9 0 34 8 56 18 50 23 120 39 206 47 36 4 81 12 100 18 26 9 1355 13 5220 17 4721 6 5190 8 5240 22 30 9 91 26 134 37 44 12 87 28 96 36 9 8 27 15 39 15 14 0 21 5 19 15 -2 11 19 28 62 51 36 20 76 46 91 60 14 13 29 24 35 24 10 0 354 333 354 343 0 9 78 87 88 88 4 0 30 26 57 56 28 31 103 108 168 172 64 64 117 119 117 124 0 8 73 80 150 146 27 24 50 50 50 57 0 8 6 17 14 20 8 3 35 32 61 64 26 33 50 58 54 57 14 -4 61 37 87 76 32 48 144 167 157 167 15 0 62 41 62 55 0 7 122 136 270 286 149 150 284 287 302 306 17 18 38 33 46 33 8 0 17 10 20 23 4 12 154 169 334 348 180 180 355 356 388 391 33 35 74 76 90 91 58 54 75 74 75 93 0 10 10 29 23 40 24 23 121 211 133 257 3 16 13 31 20 34 8 3 14 20 14 42 0 20 9 50 20 68 12 21 21 59 25 110 3 43 12 105 20 138 8 33 21 121 30 195 9 74 25 189 35 255 10 66 24 176 30 245 7 69 18 131 24 139 8 10 12 180 14 559 3 508 5 548 22 586 12 26 21 76 25 135 5 70 11 102 26 122 10 15 19 40 19 56 0 15 12 51 25 78 14 28 25 56 25 63 0 15 45 88 60 97 6 3 8 11 4 16 -3 6 3 13 14 16 11 3 23 15 26 28 6 25 190 205 209 205 7 0 28 10 47 23 76 50 210 67 380 47 114 -13 155 -29 213 -84 21 -20 45 -36 53 -36 21 0 163 -139 184 -180 10 -19 27 -44 39 -54 12 -11 21 -27 21 -37 0 -10 9 -26 20 -37 10 -10 29 -39 40 -65 30 -69 100 -269 100 -288 0 -9 9 -28 20 -42 11 -14 20 -33 20 -43 0 -9 7 -26 17 -36 26 -29 144 -329 147 -375 0 -12 9 -28 20 -36 13 -10 19 -26 19 -55 0 -30 6 -47 23 -63 13 -12 24 -29 24 -36 0 -8 11 -33 24 -56 13 -23 32 -67 41 -97 10 -30 21 -59 25 -65 4 -5 11 -28 15 -50 3 -22 14 -48 22 -57 8 -9 18 -38 21 -63 3 -30 11 -49 23 -55 9 -6 21 -24 24 -42 4 -18 16 -44 26 -57 11 -13 19 -28 19 -33 0 -5 10 -30 21 -56 12 -26 30 -76 40 -111 10 -36 23 -69 29 -75 5 -5 10 -29 10 -52 l0 -42 42 -10 c43 -11 64 -6 88 22 7 9 19 16 27 16 16 0 59 29 119 80 23 19 63 46 90 59 27 14 55 33 63 43 7 11 19 17 27 14 8 -3 30 8 49 25 19 17 41 29 49 26 15 -6 76 45 76 63 0 5 42 30 93 56 50 25 99 52 108 60 8 8 23 14 32 14 10 0 27 11 39 25 15 18 32 25 56 25 27 0 33 3 28 15 -4 10 2 19 17 24 13 5 29 16 36 24 7 9 55 37 107 62 61 30 104 58 121 80 20 25 33 33 48 29 13 -3 30 3 46 19 15 13 41 30 60 37 19 8 49 25 68 37 19 13 44 23 56 23 12 0 30 9 40 20 10 11 31 20 46 20 17 0 32 7 38 19 6 10 25 21 42 25 18 3 50 15 73 25 83 38 151 52 287 58 165 7 244 -8 330 -65 31 -20 81 -53 111 -74 59 -38 97 -82 117 -135 7 -17 23 -41 37 -54 16 -15 24 -34 24 -54 0 -18 8 -43 19 -56 33 -43 41 -113 37 -318 -4 -179 -6 -196 -26 -223 -12 -16 -19 -36 -16 -44 3 -9 -7 -48 -23 -87 -16 -40 -32 -94 -35 -121 -3 -27 -10 -54 -15 -60 -5 -6 -19 -36 -31 -66 -44 -113 -99 -207 -136 -235 -10 -7 -18 -22 -19 -33 -1 -12 -8 -29 -17 -39 -16 -19 -33 -49 -68 -120 -11 -24 -30 -47 -40 -53 -11 -6 -20 -19 -20 -30 0 -10 -11 -31 -25 -46 -14 -15 -25 -32 -25 -37 0 -6 -9 -20 -19 -31 -11 -12 -34 -48 -51 -81 -57 -107 -91 -155 -111 -155 -10 0 -19 -7 -19 -15 0 -7 -6 -18 -13 -22 -7 -4 -27 -36 -44 -69 -32 -62 -136 -208 -167 -233 -9 -7 -16 -22 -16 -32 0 -10 -9 -23 -19 -29 -11 -5 -29 -27 -42 -47 -56 -96 -104 -163 -115 -163 -29 0 -25 -79 6 -115 52 -60 130 -171 130 -184 0 -9 22 -37 48 -63 104 -103 150 -159 145 -175 -3 -7 34 -52 82 -100 47 -49 94 -106 104 -128 10 -22 37 -59 59 -83 23 -23 42 -47 42 -53 0 -23 42 -79 59 -79 10 0 31 -21 49 -47 16 -27 44 -61 61 -77 17 -17 31 -37 31 -46 0 -8 19 -36 43 -60 80 -83 147 -166 147 -183 0 -9 35 -52 78 -97 94 -98 122 -133 122 -154 0 -9 11 -21 25 -26 14 -5 25 -17 25 -25 0 -9 29 -45 65 -81 35 -35 80 -92 99 -127 20 -34 70 -98 112 -142 41 -43 84 -95 94 -115 10 -20 38 -58 62 -86 25 -27 47 -57 51 -66 3 -10 13 -18 21 -18 9 0 21 -10 27 -22 7 -12 33 -49 58 -83 25 -33 55 -77 65 -98 11 -20 35 -49 55 -64 52 -40 76 -68 110 -129 17 -29 65 -87 106 -129 42 -43 86 -98 100 -124 13 -26 31 -53 39 -60 9 -8 16 -20 16 -29 0 -8 12 -25 26 -38 17 -16 23 -30 19 -43 -4 -13 4 -27 26 -45 17 -14 35 -24 40 -21 4 3 15 -11 24 -32 9 -21 24 -47 35 -58 10 -11 40 -65 65 -120 26 -55 53 -107 61 -116 39 -43 122 -240 144 -339 7 -30 23 -80 35 -110 17 -42 20 -59 11 -72 -8 -13 -6 -22 11 -40 33 -36 43 -72 43 -163 0 -73 5 -114 26 -212 2 -13 9 -23 14 -23 7 0 10 1847 10 5315 l0 5315 -12520 0 -12520 0 0 -12520z m16775 -7765 l0 -2800 -1768 -3 -1767 -2 -10 26 c-7 16 -10 643 -10 1752 0 950 0 1732 0 1738 0 7 -7 15 -16 18 -20 8 -7035 8 -7043 0 -3 -3 -8 -801 -11 -1772 l-5 -1767 -1845 0 -1845 0 -5 2795 c-3 1585 -1 2800 4 2808 7 10 1447 12 7165 10 l7156 -3 0 -2800z"/>
<path d="M14644 14168 c-12 -10 -27 -18 -32 -18 -16 0 -87 -71 -115 -115 -14 -22 -28 -55 -32 -73 -4 -18 -16 -37 -27 -43 -15 -8 -19 -18 -15 -37 6 -30 -7 -69 -31 -96 -10 -10 -18 -36 -18 -61 -1 -24 -10 -63 -21 -87 -11 -24 -24 -61 -30 -83 -6 -22 -21 -74 -33 -115 -12 -41 -26 -93 -32 -115 -6 -22 -18 -45 -26 -52 -8 -7 -12 -21 -9 -32 3 -11 -1 -28 -9 -38 -7 -10 -14 -26 -14 -35 0 -9 -6 -20 -12 -25 -7 -4 -218 -11 -468 -15 -250 -4 -474 -8 -496 -8 -28 -1 -48 -8 -59 -21 -10 -10 -22 -19 -28 -19 -11 0 -87 -74 -87 -85 0 -4 -9 -18 -20 -32 -17 -22 -20 -41 -20 -119 0 -82 3 -98 25 -131 47 -73 116 -132 217 -188 37 -20 70 -45 73 -55 8 -25 103 -100 127 -100 10 0 21 -6 24 -14 3 -8 26 -24 52 -36 55 -25 113 -65 125 -86 20 -35 58 -66 81 -66 16 0 31 -10 41 -24 8 -13 24 -24 35 -24 29 0 38 -26 27 -73 -20 -85 -59 -197 -76 -219 -10 -13 -21 -45 -25 -73 -3 -27 -15 -63 -27 -78 -11 -15 -18 -33 -16 -40 2 -7 -3 -30 -10 -52 -8 -22 -25 -78 -38 -125 -44 -166 -67 -235 -81 -246 -27 -21 -17 -95 25 -180 21 -44 46 -86 55 -93 9 -7 16 -19 16 -27 0 -7 16 -16 35 -20 19 -3 39 -12 46 -20 17 -20 152 -19 169 1 7 8 25 15 41 15 18 0 30 6 33 18 6 18 80 71 181 128 28 16 78 56 113 89 35 33 85 71 111 85 26 14 72 46 103 73 30 26 63 47 72 47 9 0 41 24 72 52 30 29 64 56 74 60 21 8 78 -29 123 -81 19 -22 34 -30 46 -26 13 4 25 -3 38 -20 10 -15 40 -39 65 -53 135 -79 162 -98 180 -129 11 -18 28 -33 37 -33 9 0 35 -18 56 -40 21 -22 49 -40 60 -40 22 0 128 -84 133 -105 3 -14 33 -25 68 -25 12 0 27 -7 34 -15 9 -11 33 -15 85 -15 56 0 74 4 79 15 3 9 18 15 35 15 22 0 31 6 37 23 4 12 31 49 61 82 l54 60 -3 65 c-1 36 2 71 6 79 6 9 2 19 -11 30 -11 9 -32 54 -48 101 -25 75 -39 126 -86 300 -7 25 -21 64 -32 88 -10 23 -21 61 -25 84 -3 23 -16 57 -29 76 -12 19 -23 45 -23 57 0 12 -3 25 -7 29 -4 3 -8 16 -10 29 -2 12 -8 26 -13 31 -27 27 1 106 38 106 22 0 97 53 123 86 26 33 91 84 108 84 5 0 30 17 57 38 27 21 61 43 75 50 14 8 52 37 85 66 32 29 77 62 99 74 22 11 51 32 64 46 14 14 32 26 40 26 21 1 64 40 84 76 49 88 52 100 51 174 0 82 -22 139 -73 193 -70 76 -97 80 -636 86 l-470 6 0 21 c0 12 -7 30 -16 40 -9 11 -20 35 -24 54 -4 19 -11 40 -15 45 -10 15 -29 70 -51 155 -11 41 -35 121 -54 177 -19 57 -38 122 -41 145 -4 24 -14 52 -24 63 -24 28 -30 51 -18 63 8 8 4 22 -14 49 -14 21 -37 59 -52 86 -15 26 -38 54 -51 63 -14 9 -25 22 -25 29 0 14 -22 25 -48 25 -8 0 -24 8 -35 18 -13 12 -36 17 -75 17 -38 0 -63 -6 -78 -17z"/>
<path d="M5251 14166 c-7 -8 -26 -18 -42 -21 -40 -9 -114 -86 -133 -138 -8 -23 -25 -77 -38 -120 -14 -50 -29 -82 -41 -88 -14 -8 -17 -17 -12 -39 4 -20 -1 -43 -19 -79 -14 -28 -26 -59 -26 -69 0 -11 -9 -41 -19 -68 -23 -58 -66 -199 -82 -269 -6 -27 -20 -70 -30 -95 l-18 -45 -448 -6 c-555 -8 -559 -9 -615 -62 -24 -22 -47 -41 -53 -41 -5 -1 -12 -12 -15 -26 -4 -16 -12 -24 -22 -22 -25 4 -34 -51 -30 -173 1 -51 6 -71 17 -78 9 -5 19 -16 23 -25 14 -33 138 -140 198 -170 34 -17 84 -55 115 -86 29 -31 83 -73 119 -93 64 -36 126 -79 165 -115 29 -28 127 -98 136 -98 4 0 22 -13 39 -29 29 -26 31 -31 19 -52 -7 -13 -16 -40 -20 -59 -20 -89 -53 -196 -65 -211 -8 -8 -14 -28 -14 -43 0 -15 -11 -38 -25 -52 -19 -19 -23 -29 -16 -42 7 -12 2 -32 -19 -72 -15 -30 -31 -74 -34 -98 -4 -24 -10 -51 -15 -60 -5 -9 -17 -46 -26 -82 -10 -36 -24 -85 -31 -109 -23 -72 -18 -138 15 -206 15 -33 38 -69 50 -79 11 -11 21 -25 21 -33 0 -14 1 -15 48 -19 19 -1 43 -10 53 -20 29 -26 137 -27 150 -2 6 11 21 18 39 18 19 0 31 6 35 19 6 20 119 101 140 101 7 0 31 18 54 40 22 22 50 40 60 40 11 0 37 20 58 44 21 23 64 57 95 75 31 18 62 39 69 47 7 8 26 21 43 28 17 8 52 33 78 57 82 76 115 99 140 99 34 0 131 -66 212 -144 43 -42 74 -65 83 -62 17 7 55 -19 125 -86 69 -65 114 -98 134 -98 17 0 63 -35 141 -107 25 -24 56 -43 68 -43 12 0 30 -9 40 -20 15 -17 31 -20 100 -20 74 0 83 2 88 20 4 15 14 20 36 20 19 0 31 5 31 13 0 15 37 51 62 60 9 3 19 19 23 36 4 17 13 34 21 39 9 5 15 32 18 87 3 73 1 82 -21 109 -19 23 -24 38 -20 65 3 27 -2 43 -18 63 -21 25 -75 176 -75 209 0 9 -11 42 -24 75 -13 32 -27 82 -31 109 -4 28 -11 55 -15 60 -14 20 -42 106 -36 112 3 3 -3 20 -13 37 -11 17 -25 50 -32 73 -14 50 -5 68 43 78 19 5 58 35 104 80 40 40 93 82 117 93 23 11 67 40 97 65 30 25 59 43 65 41 6 -3 36 20 68 51 31 30 60 55 65 55 5 0 15 7 23 16 7 9 42 31 78 49 76 38 86 48 130 135 29 56 34 75 34 141 1 64 -3 81 -21 104 -12 15 -22 36 -22 46 0 24 -99 109 -130 111 -14 1 -41 4 -60 6 -19 2 -240 7 -490 11 l-455 6 -3 25 c-2 14 -10 32 -17 40 -7 8 -15 41 -19 73 -4 37 -13 64 -26 77 -19 19 -25 42 -21 82 1 9 -7 26 -18 37 -11 11 -23 33 -26 48 -4 16 -17 60 -30 98 -14 39 -28 89 -31 113 -4 24 -15 60 -25 80 -11 20 -19 46 -19 58 0 12 -9 43 -20 69 -11 26 -20 53 -20 62 0 8 -39 53 -86 99 l-85 84 -79 0 c-55 0 -81 -4 -89 -14z"/>
<path d="M10020 14165 c-7 -8 -23 -15 -35 -15 -17 0 -36 -17 -69 -61 -25 -34 -46 -66 -46 -71 0 -6 -10 -31 -23 -57 -13 -25 -27 -59 -31 -76 -4 -16 -16 -40 -27 -51 -11 -12 -19 -32 -17 -45 2 -24 -40 -174 -68 -237 -8 -18 -14 -40 -14 -50 0 -34 -83 -277 -99 -290 -9 -7 -16 -27 -16 -45 l0 -32 -470 -6 c-258 -4 -490 -10 -514 -14 -25 -4 -61 -20 -82 -35 -110 -79 -148 -199 -108 -336 16 -52 84 -133 117 -139 13 -2 46 -25 74 -50 27 -25 58 -45 67 -45 23 0 41 -19 34 -36 -4 -10 3 -14 22 -14 20 0 38 -11 63 -41 19 -22 44 -45 56 -50 58 -26 152 -91 206 -143 34 -31 69 -59 79 -61 24 -4 94 -53 105 -72 8 -14 -8 -84 -24 -108 -4 -5 -10 -26 -14 -46 -4 -21 -15 -48 -25 -60 -10 -13 -21 -42 -25 -64 -4 -21 -14 -51 -21 -65 -7 -14 -19 -52 -26 -85 -7 -33 -18 -69 -25 -80 -6 -11 -15 -38 -18 -60 -4 -22 -15 -62 -25 -90 -10 -27 -24 -75 -30 -106 -7 -31 -20 -64 -29 -72 -14 -13 -17 -33 -16 -109 0 -86 2 -97 27 -130 15 -19 27 -39 27 -43 0 -16 82 -85 100 -85 11 0 23 -6 27 -14 12 -22 121 -25 153 -4 14 9 44 19 68 23 23 4 42 12 42 19 0 16 73 75 142 114 31 18 82 58 115 88 32 31 71 63 86 71 59 30 177 115 187 133 6 11 21 20 34 20 15 0 26 7 29 20 3 11 13 23 24 27 10 5 37 21 60 36 l41 28 29 -16 c39 -22 81 -54 127 -98 22 -20 45 -37 51 -37 6 0 22 -12 36 -26 13 -14 53 -41 89 -59 40 -21 87 -57 124 -95 36 -38 69 -63 87 -67 17 -3 34 -14 40 -24 5 -11 16 -19 23 -19 7 0 31 -14 52 -31 22 -17 50 -35 63 -40 14 -6 21 -15 18 -23 -6 -16 13 -26 48 -26 14 0 29 -8 34 -18 13 -25 121 -24 149 1 10 9 26 17 35 17 21 0 85 61 120 115 15 22 36 69 47 103 l21 63 -23 19 c-18 15 -23 27 -21 63 1 31 -3 47 -12 51 -8 3 -19 24 -26 48 -33 121 -82 287 -95 321 -8 20 -14 49 -14 63 0 14 -12 45 -26 70 -18 30 -24 52 -20 69 4 16 0 30 -12 42 -24 23 -51 96 -54 148 -3 36 0 42 27 55 50 25 128 81 166 119 49 49 91 79 120 86 14 3 55 32 93 64 37 32 81 61 98 65 21 4 29 10 24 21 -3 10 6 20 27 31 17 10 54 34 82 55 27 20 65 45 83 56 19 10 49 43 70 77 33 53 37 67 40 141 4 74 1 87 -24 135 -15 29 -37 63 -48 74 -31 32 -105 68 -151 73 -22 3 -246 8 -497 11 -304 5 -461 11 -468 18 -6 6 -13 35 -17 65 -3 30 -12 59 -19 64 -11 9 -34 77 -104 315 -17 58 -40 130 -52 160 -11 30 -20 67 -20 82 1 14 -5 32 -13 38 -8 7 -15 18 -15 24 0 7 -18 50 -41 97 -41 85 -106 159 -140 159 -9 0 -22 7 -29 15 -9 11 -33 15 -85 15 -52 0 -76 -4 -85 -15z"/>
</g>
</g>
  <g id="id1:id1" transform="matrix(1.25,0,0,1.25,0.0,0.0)"><g transform="translate(0.000000,1001.600000) scale(0.040000,-0.040000)" fill="#000000" stroke="none">
<path d="M18955 23104 c-64 -13 -143 -40 -164 -56 -13 -10 -34 -18 -47 -18 -16 0 -57 -35 -140 -120 -129 -132 -140 -147 -174 -240 -13 -36 -29 -72 -35 -80 -7 -8 -27 -62 -45 -120 -17 -58 -36 -114 -41 -125 -5 -11 -11 -54 -14 -95 -3 -41 -9 -105 -14 -142 -6 -37 -15 -300 -21 -585 -10 -503 -21 -686 -54 -903 -57 -375 -67 -441 -74 -492 -4 -32 -13 -63 -20 -70 -7 -7 -12 -24 -12 -39 0 -31 -18 -88 -35 -109 -7 -8 -15 -37 -19 -63 -10 -80 -97 -241 -171 -316 -35 -37 -81 -89 -104 -117 -22 -29 -55 -62 -73 -75 -45 -31 -327 -321 -328 -336 0 -7 -143 -156 -317 -332 -175 -176 -343 -346 -373 -378 -30 -32 -76 -79 -103 -103 -26 -25 -160 -160 -297 -300 -286 -293 -304 -311 -385 -388 -33 -32 -80 -80 -105 -107 -25 -28 -70 -73 -100 -101 -30 -27 -84 -81 -120 -120 -36 -38 -95 -98 -132 -133 -36 -35 -69 -74 -72 -87 -4 -13 -21 -31 -39 -40 -35 -18 -157 -133 -157 -148 0 -15 -82 -96 -96 -96 -7 0 -50 -40 -96 -88 -67 -72 -97 -95 -158 -124 -41 -20 -86 -48 -99 -62 -19 -20 -27 -23 -38 -14 -10 8 -19 6 -36 -9 -12 -10 -49 -28 -82 -38 -33 -10 -76 -23 -95 -29 -24 -7 -1606 -12 -5190 -16 l-5155 -6 -145 -21 c-188 -28 -207 -32 -255 -53 -22 -10 -60 -21 -85 -25 -47 -8 -111 -37 -131 -61 -6 -8 -18 -14 -26 -14 -20 0 -149 -63 -231 -112 -37 -22 -101 -73 -142 -113 -41 -39 -88 -80 -105 -91 -36 -23 -74 -64 -75 -81 0 -11 -46 -65 -132 -156 -16 -16 -28 -38 -28 -49 0 -11 -13 -33 -30 -49 -34 -34 -100 -131 -100 -146 0 -6 -13 -29 -30 -51 -16 -23 -30 -48 -30 -55 0 -8 -11 -24 -25 -37 -14 -13 -25 -29 -25 -35 0 -7 -9 -20 -20 -30 -11 -10 -20 -26 -20 -36 0 -10 -8 -23 -18 -28 -10 -5 -35 -43 -57 -83 -21 -40 -48 -83 -61 -95 -13 -12 -24 -31 -24 -41 0 -10 -9 -27 -20 -37 -11 -10 -20 -23 -20 -28 0 -6 -17 -33 -38 -61 -21 -28 -51 -78 -67 -110 -16 -33 -50 -84 -76 -113 -26 -30 -50 -65 -53 -79 -4 -14 -26 -53 -49 -87 -23 -34 -58 -93 -77 -131 -19 -38 -42 -71 -51 -73 -9 -3 -24 -21 -32 -41 -17 -38 -23 -49 -69 -115 -16 -22 -28 -46 -28 -53 0 -7 -11 -25 -24 -41 -12 -15 -31 -44 -40 -64 -10 -20 -30 -52 -47 -70 -16 -18 -29 -36 -29 -41 0 -4 -15 -29 -34 -55 -18 -27 -44 -68 -56 -93 -27 -55 -108 -181 -126 -195 -15 -13 -48 -67 -69 -115 -9 -19 -27 -46 -40 -60 -13 -14 -27 -37 -30 -52 -4 -14 -15 -34 -26 -44 -10 -9 -19 -23 -19 -31 0 -7 -17 -32 -38 -56 -21 -23 -53 -72 -71 -109 -17 -36 -45 -83 -61 -104 -17 -20 -30 -42 -30 -49 0 -6 -9 -20 -20 -30 -11 -10 -20 -24 -20 -31 0 -7 -9 -18 -20 -24 -11 -6 -23 -23 -26 -38 -4 -15 -15 -36 -24 -47 -10 -11 -35 -53 -55 -92 -20 -40 -42 -73 -50 -73 -7 0 -16 -11 -19 -26 -4 -14 -27 -50 -51 -80 -25 -30 -45 -59 -45 -64 0 -19 -114 -205 -140 -230 -16 -15 -36 -44 -45 -66 -9 -21 -24 -48 -34 -59 -9 -11 -37 -60 -62 -108 -24 -49 -68 -117 -96 -150 -29 -34 -53 -68 -53 -76 0 -19 -73 -133 -127 -199 -23 -30 -43 -60 -43 -67 0 -15 -55 -101 -71 -110 -34 -22 44 -115 136 -162 27 -14 77 -51 110 -83 33 -32 70 -61 83 -65 12 -3 41 -21 65 -38 64 -49 122 -87 131 -87 4 0 42 -30 84 -66 41 -37 89 -73 106 -80 17 -8 45 -25 61 -39 17 -14 36 -25 44 -25 7 0 45 -31 85 -69 39 -37 96 -80 126 -95 30 -15 69 -41 85 -57 17 -16 38 -29 46 -29 8 0 34 -18 57 -40 22 -22 46 -40 51 -40 6 0 24 -13 41 -30 17 -16 50 -40 73 -51 44 -23 73 -44 162 -121 30 -27 61 -48 69 -48 7 0 21 -9 31 -20 10 -11 24 -20 31 -20 14 0 74 78 74 96 0 7 16 31 35 54 19 23 35 46 35 52 0 5 18 31 40 57 22 26 40 56 40 67 0 11 11 31 25 44 14 13 25 29 25 35 0 7 9 20 19 29 11 10 25 32 32 49 7 18 28 46 46 63 18 17 33 39 33 49 0 10 15 35 33 56 54 64 77 97 77 111 0 16 60 109 127 196 43 56 49 61 60 45 10 -13 13 -223 13 -985 l0 -968 23 -9 c12 -4 3295 -9 7295 -10 l7274 -2 32 35 c18 19 39 55 46 80 7 26 16 49 21 51 4 3 13 22 20 43 6 20 27 69 45 109 19 40 34 75 34 78 0 4 9 18 20 32 11 14 20 35 20 47 0 12 9 29 20 39 11 9 20 25 20 36 0 10 6 24 14 30 7 6 19 33 26 59 7 26 18 53 24 60 5 8 20 43 32 78 13 36 32 77 43 93 12 16 21 37 21 46 0 9 9 28 20 42 11 14 20 31 20 38 0 7 6 18 13 24 8 6 20 30 27 53 8 24 17 48 21 53 3 6 24 53 44 105 21 52 42 99 46 104 5 6 9 20 9 31 0 12 9 30 20 40 11 10 20 24 20 30 0 7 6 18 13 24 8 6 19 28 25 49 7 22 27 68 45 103 19 35 43 94 55 132 12 37 39 97 58 134 20 38 45 84 55 103 26 48 79 168 79 177 0 11 103 239 129 283 24 43 101 211 114 250 8 25 27 65 41 90 14 25 26 54 26 66 0 11 14 42 31 70 18 27 38 68 46 91 8 23 21 47 29 54 8 6 14 18 14 26 0 8 18 53 40 100 22 47 40 92 40 100 0 7 6 16 14 19 8 3 18 19 21 35 4 16 10 31 15 34 10 6 70 133 70 148 0 5 14 39 30 74 17 34 30 68 30 74 0 12 60 135 95 194 34 58 55 105 55 125 0 10 7 23 15 30 8 7 15 18 15 25 0 23 91 229 121 273 16 24 29 47 29 52 0 5 20 51 44 102 24 51 54 122 66 158 24 67 92 203 116 231 8 8 14 21 14 28 0 21 29 68 46 75 9 3 22 2 28 -3 6 -5 48 -21 94 -35 45 -14 100 -35 121 -45 21 -11 51 -22 66 -25 15 -3 37 -15 48 -26 11 -13 27 -20 38 -17 10 3 25 -3 34 -14 10 -10 30 -21 45 -24 16 -3 34 -13 41 -21 6 -8 22 -14 35 -14 14 0 54 -13 91 -30 36 -16 70 -30 74 -30 5 0 38 -13 74 -30 36 -16 72 -30 79 -30 7 0 25 -9 39 -20 14 -11 32 -20 40 -20 8 0 25 -9 39 -19 13 -11 41 -23 62 -27 21 -4 46 -14 56 -24 9 -9 36 -20 59 -24 23 -3 72 -20 108 -36 36 -17 70 -30 75 -30 6 0 21 -9 35 -20 14 -11 35 -20 47 -21 11 0 44 -13 71 -29 57 -34 76 -43 125 -59 115 -40 181 -66 226 -87 28 -13 58 -24 67 -24 9 0 21 -9 27 -20 6 -11 20 -20 31 -20 12 0 32 -9 46 -20 14 -11 37 -20 52 -20 14 0 40 -8 56 -18 17 -10 50 -24 75 -32 25 -8 70 -27 100 -42 30 -15 60 -28 67 -28 7 0 16 -6 20 -13 4 -8 29 -19 55 -27 26 -7 53 -19 59 -26 6 -8 21 -14 34 -14 12 0 30 -9 39 -19 10 -11 25 -19 34 -19 10 1 42 -10 72 -24 30 -14 80 -33 110 -43 60 -19 147 -62 156 -76 3 -5 15 -9 28 -9 13 0 31 -9 41 -20 10 -11 23 -19 29 -18 6 1 41 -12 77 -29 36 -18 79 -35 95 -39 16 -4 58 -20 93 -35 35 -16 70 -29 77 -29 7 0 25 -11 40 -25 16 -15 34 -23 44 -20 9 3 25 -3 35 -15 10 -11 22 -20 27 -20 5 0 29 -9 52 -20 24 -10 65 -24 92 -30 27 -6 58 -14 69 -19 74 -33 146 -48 303 -63 195 -20 345 -4 512 55 139 48 201 79 217 106 7 11 27 28 44 36 50 26 150 106 194 155 22 25 79 85 127 133 49 49 91 100 95 115 3 15 15 38 25 52 34 45 88 132 88 141 0 5 11 14 25 19 19 7 25 17 25 39 0 20 7 34 20 41 11 6 23 23 26 38 4 15 12 34 19 42 7 8 17 29 22 45 28 81 109 261 125 277 13 13 16 23 10 31 -6 8 1 41 21 97 16 47 31 101 32 120 1 19 7 48 13 63 7 16 12 33 12 38 0 5 7 12 15 15 13 5 15 56 15 375 0 282 -3 368 -12 367 -8 -2 -15 19 -20 57 -4 33 -12 73 -18 89 -5 15 -7 32 -4 37 3 6 -4 25 -15 44 -26 44 -74 202 -66 215 3 6 -3 22 -14 36 -12 15 -21 32 -21 39 0 7 -17 48 -39 91 -21 44 -42 90 -46 104 -4 14 -13 32 -20 40 -7 8 -16 26 -20 40 -4 14 -13 32 -20 40 -6 8 -23 35 -36 60 -13 25 -39 63 -56 84 -18 22 -33 48 -33 59 0 22 -29 64 -87 123 -24 24 -43 48 -43 53 0 6 -13 25 -28 43 -15 18 -33 44 -39 58 -6 14 -29 46 -52 72 -22 25 -41 50 -41 55 0 5 -20 29 -44 54 -43 43 -57 60 -129 164 -20 28 -61 77 -93 110 -32 33 -77 89 -100 125 -23 36 -70 96 -105 134 -35 38 -86 102 -114 142 -27 40 -85 114 -128 165 -44 50 -92 109 -107 132 -16 23 -45 58 -64 76 -20 19 -36 41 -36 49 0 8 -21 37 -47 63 -65 66 -113 124 -113 137 0 22 -40 76 -79 108 -44 34 -121 131 -121 150 0 7 -41 54 -90 105 -56 56 -93 102 -97 119 -3 17 -43 67 -99 126 -52 55 -94 104 -94 111 0 7 -22 39 -50 72 -27 33 -50 64 -50 70 0 5 -17 24 -37 42 -21 18 -40 44 -43 57 -3 15 -18 33 -35 42 -16 9 -32 26 -35 38 -3 13 -23 42 -46 65 -22 23 -50 58 -62 78 -12 19 -31 44 -43 55 -23 20 -90 108 -103 134 -4 8 -13 26 -21 40 -13 22 -12 27 8 50 30 33 97 137 97 150 0 5 17 27 38 48 57 57 107 123 122 161 8 19 26 49 40 65 15 17 36 48 49 68 12 21 36 47 52 59 16 11 29 25 29 30 0 8 29 55 106 173 10 16 28 44 39 62 11 18 37 57 58 87 20 30 37 59 37 64 0 6 7 17 16 24 9 7 26 36 39 65 12 28 39 67 59 87 22 22 36 46 36 61 0 15 8 30 20 36 11 6 20 17 20 24 0 7 8 24 19 37 26 33 132 277 138 317 3 18 9 35 14 38 5 3 9 18 9 34 0 15 13 52 28 82 16 30 32 78 36 108 4 29 14 69 22 89 19 45 17 316 -3 332 -6 6 -17 42 -24 82 -7 40 -18 79 -26 88 -7 8 -13 23 -13 33 0 9 -25 46 -55 81 -30 36 -55 69 -55 73 0 22 -98 105 -154 131 -142 67 -165 73 -291 78 -157 5 -369 -30 -429 -73 -11 -8 -31 -14 -43 -14 -12 0 -27 -9 -33 -20 -6 -11 -21 -20 -34 -20 -13 0 -31 -9 -41 -20 -10 -11 -26 -20 -35 -20 -10 0 -34 -11 -54 -25 -20 -14 -39 -25 -42 -25 -6 0 -55 -20 -114 -48 -19 -8 -50 -31 -68 -50 -22 -23 -39 -32 -52 -29 -13 3 -32 -7 -57 -29 -20 -19 -56 -44 -80 -55 -24 -11 -45 -25 -48 -30 -3 -4 -25 -17 -48 -28 -78 -37 -149 -80 -176 -105 -14 -14 -60 -42 -101 -63 -79 -40 -139 -79 -195 -125 -18 -16 -42 -28 -54 -28 -11 0 -26 -9 -33 -20 -7 -12 -51 -41 -97 -66 -94 -51 -142 -83 -154 -101 -4 -7 -14 -13 -21 -13 -7 0 -21 -9 -31 -20 -10 -11 -23 -20 -30 -20 -30 0 -88 103 -124 221 -7 20 -20 53 -31 74 -11 22 -20 46 -20 55 0 9 -7 25 -14 36 -8 12 -20 43 -27 70 -7 27 -18 52 -24 56 -7 4 -16 20 -20 35 -3 16 -12 35 -19 43 -8 8 -17 29 -20 45 -4 17 -14 44 -21 60 -8 17 -26 66 -41 110 -14 44 -30 85 -34 90 -4 6 -11 26 -15 45 -4 19 -16 47 -26 62 -11 14 -19 33 -19 41 0 9 -5 19 -10 22 -13 8 -31 50 -80 185 -21 58 -45 119 -54 135 -9 17 -16 40 -16 52 0 12 -11 43 -25 69 -14 26 -25 55 -25 65 0 10 -5 21 -10 24 -13 8 -60 100 -60 117 0 22 -87 228 -104 247 -9 10 -16 23 -16 29 0 30 -46 92 -141 189 -130 134 -223 187 -364 209 -85 13 -205 17 -250 8z m-8685 -9012 c45 -43 100 -153 100 -198 0 -17 7 -37 15 -44 8 -7 15 -20 15 -29 0 -10 7 -26 15 -37 8 -10 15 -31 15 -45 0 -14 8 -43 19 -65 10 -21 24 -57 31 -79 7 -22 16 -48 21 -57 5 -10 9 -27 9 -38 0 -11 11 -51 24 -89 13 -38 30 -95 36 -126 6 -31 18 -68 26 -83 8 -15 14 -35 14 -44 0 -40 27 -43 500 -49 250 -4 473 -10 494 -14 57 -11 125 -63 184 -139 18 -25 22 -42 22 -109 0 -43 -5 -88 -11 -100 -12 -22 -114 -123 -187 -183 -20 -18 -54 -39 -76 -48 -21 -9 -57 -32 -80 -52 -78 -68 -101 -86 -183 -138 -46 -29 -92 -65 -104 -79 -11 -15 -27 -27 -35 -27 -15 0 -146 -100 -159 -120 -3 -5 2 -38 11 -72 10 -35 18 -77 18 -95 1 -17 9 -39 17 -50 21 -23 44 -91 40 -120 -1 -11 2 -24 8 -27 23 -14 84 -196 135 -401 8 -33 22 -78 30 -100 8 -22 15 -70 16 -106 0 -53 -5 -73 -23 -100 -13 -19 -26 -42 -30 -52 -3 -9 -15 -20 -24 -24 -10 -3 -28 -15 -41 -27 -21 -18 -36 -21 -127 -21 -93 0 -106 2 -127 23 -14 12 -29 22 -34 22 -12 0 -110 72 -136 100 -10 11 -26 20 -35 20 -9 0 -37 19 -64 43 -61 54 -93 77 -154 112 -27 16 -80 57 -117 91 -36 34 -77 65 -89 69 -13 4 -49 25 -81 47 l-57 39 -68 -42 c-95 -57 -134 -86 -150 -108 -12 -17 -56 -48 -189 -133 -23 -15 -75 -55 -115 -88 -41 -34 -90 -70 -110 -80 -19 -10 -41 -26 -49 -35 -7 -8 -47 -32 -88 -52 l-75 -36 -83 6 c-77 4 -85 7 -128 43 -41 34 -63 67 -70 105 -1 8 -8 32 -15 54 -11 36 -10 50 13 129 14 48 26 96 26 105 0 9 14 54 30 101 17 46 30 94 30 106 0 12 7 27 15 34 8 7 15 21 15 31 0 11 9 28 21 40 14 14 19 28 15 43 -7 28 11 95 31 118 8 9 22 47 29 84 8 37 20 74 26 81 6 8 13 40 15 73 l4 58 -38 28 c-21 16 -59 48 -85 71 -26 24 -52 43 -57 43 -14 0 -154 95 -176 120 -10 11 -23 20 -29 20 -6 0 -42 28 -81 61 -38 33 -90 69 -115 80 -29 13 -80 57 -147 125 l-102 105 -6 54 c-11 85 15 145 92 214 39 35 77 59 100 65 21 5 254 12 518 15 264 4 481 8 483 9 1 1 2 13 2 26 0 13 7 29 15 36 8 7 15 23 15 36 0 13 13 65 30 116 16 51 36 118 44 148 13 48 29 98 56 175 4 11 13 38 20 60 7 22 18 47 25 55 7 8 15 37 19 64 3 27 14 63 24 80 10 17 24 51 32 76 18 61 43 86 121 124 l66 32 82 -8 c77 -8 86 -12 121 -46z m-4802 9 c28 -19 52 -38 52 -42 0 -4 11 -20 23 -36 26 -30 41 -75 38 -109 -1 -12 5 -24 13 -27 8 -3 18 -25 21 -51 4 -25 13 -51 21 -57 8 -6 14 -20 14 -31 0 -11 13 -59 29 -107 16 -47 34 -113 41 -146 7 -32 18 -68 25 -80 8 -11 19 -49 26 -85 7 -36 17 -70 22 -77 19 -26 47 -88 47 -105 0 -9 6 -20 13 -25 6 -4 215 -11 462 -14 248 -4 467 -9 488 -12 21 -3 47 -14 58 -26 11 -12 28 -21 39 -21 11 0 24 -9 30 -20 6 -11 16 -20 24 -20 7 0 25 -19 41 -42 25 -38 29 -53 29 -118 1 -65 -3 -82 -27 -122 -15 -26 -38 -53 -50 -59 -12 -7 -28 -21 -35 -31 -18 -25 -142 -118 -157 -118 -7 0 -20 -11 -28 -24 -9 -13 -29 -26 -44 -29 -17 -3 -58 -33 -98 -72 -38 -36 -88 -74 -111 -85 -24 -10 -62 -37 -87 -59 -24 -22 -59 -47 -78 -55 -39 -17 -129 -96 -129 -114 0 -7 6 -23 14 -35 8 -12 18 -43 21 -69 4 -26 18 -62 31 -79 14 -19 24 -47 24 -65 0 -18 4 -35 9 -38 5 -4 12 -25 16 -48 4 -23 16 -58 26 -78 10 -19 25 -69 34 -110 9 -41 22 -88 29 -105 7 -16 19 -52 26 -80 7 -27 19 -66 28 -85 26 -58 33 -182 15 -238 -21 -59 -86 -126 -139 -141 -64 -18 -167 -14 -195 7 -13 11 -55 36 -94 57 -38 21 -91 60 -117 86 -25 27 -74 63 -107 79 -34 17 -61 34 -61 39 0 4 -12 14 -27 22 -16 7 -41 26 -58 42 -16 16 -43 36 -60 44 -16 9 -39 24 -50 35 -33 31 -92 78 -99 78 -3 0 -28 14 -54 30 -54 33 -93 38 -112 14 -8 -8 -44 -33 -82 -55 -37 -22 -76 -48 -86 -58 -37 -38 -134 -111 -199 -150 -37 -22 -95 -65 -127 -96 -33 -30 -64 -55 -70 -55 -6 0 -22 -10 -36 -21 -143 -115 -254 -137 -376 -75 -57 30 -71 42 -91 83 -34 66 -40 136 -18 220 26 103 64 214 86 251 10 18 19 48 19 65 0 18 11 50 24 73 12 22 26 60 30 85 4 24 13 53 19 64 7 11 19 45 25 75 17 75 42 157 60 202 17 44 11 56 -52 96 -22 13 -68 49 -103 78 -35 30 -68 54 -73 54 -12 0 -118 80 -145 110 -11 12 -33 29 -50 37 -16 9 -59 37 -95 63 -36 26 -85 58 -109 71 -24 12 -46 31 -49 41 -2 10 -9 18 -15 18 -16 0 -97 81 -97 97 0 6 -12 29 -26 50 -23 35 -25 44 -19 101 6 57 11 68 51 110 24 25 44 49 44 53 0 17 80 55 140 66 42 7 214 12 495 12 237 1 436 5 444 10 16 10 39 67 51 126 23 111 97 333 121 364 11 13 19 38 19 55 0 17 9 46 20 64 11 18 20 42 20 54 0 22 16 80 30 108 4 9 11 36 15 60 6 34 19 56 64 103 74 78 97 88 196 85 72 -3 85 -6 133 -37z m9391 6 c18 -15 37 -27 42 -27 15 0 69 -104 69 -135 0 -16 13 -53 29 -82 20 -36 25 -55 18 -62 -8 -8 -4 -18 11 -34 12 -13 22 -29 22 -36 0 -7 8 -33 19 -59 19 -49 50 -145 71 -222 7 -25 16 -58 21 -74 5 -16 9 -38 9 -49 0 -11 7 -28 15 -37 8 -9 20 -43 26 -76 7 -32 20 -68 31 -79 l19 -20 472 -6 c287 -3 486 -9 509 -16 39 -11 98 -49 98 -63 0 -4 9 -10 19 -13 49 -12 89 -178 61 -249 -19 -48 -169 -192 -253 -243 -40 -24 -94 -64 -121 -89 -26 -25 -52 -46 -56 -46 -5 0 -27 -16 -50 -35 -23 -19 -47 -35 -53 -35 -7 0 -38 -20 -69 -45 -32 -25 -62 -45 -66 -45 -5 0 -17 -9 -27 -20 -10 -11 -42 -36 -72 -56 -31 -21 -55 -45 -59 -59 -6 -25 11 -116 28 -148 5 -10 17 -44 28 -75 10 -31 37 -109 60 -172 23 -63 52 -153 66 -200 13 -47 35 -121 49 -165 52 -165 47 -295 -12 -357 -41 -43 -126 -78 -189 -78 -66 0 -174 48 -255 112 -94 76 -166 128 -174 128 -4 0 -25 15 -45 33 -21 17 -67 50 -102 72 -34 22 -92 65 -127 97 -35 31 -94 72 -131 91 -72 39 -74 38 -141 -15 -20 -15 -45 -28 -54 -28 -9 0 -49 -31 -89 -69 -39 -37 -96 -81 -126 -97 -30 -15 -72 -43 -92 -61 -20 -17 -52 -40 -70 -49 -18 -9 -37 -23 -43 -29 -15 -18 -136 -110 -165 -125 -14 -7 -35 -22 -48 -33 -17 -16 -39 -21 -105 -25 -78 -4 -87 -2 -142 27 -77 41 -82 46 -105 99 -31 70 -27 158 14 294 19 62 40 133 46 158 7 25 17 51 23 58 6 7 12 27 14 44 2 17 12 45 23 63 11 18 20 43 20 56 0 13 7 38 16 54 9 17 22 53 29 80 8 28 22 77 33 110 11 33 24 80 30 104 l10 44 -48 48 c-26 26 -72 61 -101 79 -30 17 -74 47 -99 65 -25 19 -55 39 -67 45 -12 5 -33 20 -45 32 -51 51 -137 116 -198 150 -36 20 -71 46 -78 57 -7 12 -21 21 -32 21 -10 0 -23 6 -27 14 -4 8 -28 31 -53 51 -78 65 -90 91 -90 192 l0 88 54 58 c30 31 59 57 65 57 5 0 20 10 31 22 12 13 35 24 53 26 18 2 243 6 500 10 528 8 490 1 503 88 3 24 12 49 20 55 8 6 14 21 14 32 0 34 68 272 96 332 7 17 16 44 20 60 4 17 13 41 20 55 18 34 53 136 64 188 17 76 45 126 96 168 27 23 56 44 64 47 8 4 56 5 106 4 82 -3 94 -5 123 -30z"/>
<path d="M2447 7568 c-16 -12 -17 -187 -17 -2818 0 -1542 4 -2808 8 -2812 9 -9 3712 -12 3721 -2 3 3 8 801 11 1772 l5 1767 3504 3 c1928 1 3509 -2 3513 -6 5 -5 8 -797 8 -1762 0 -1279 3 -1757 11 -1767 10 -11 310 -13 1794 -13 l1782 0 16 18 c16 17 17 229 17 2807 0 2585 -1 2790 -16 2807 l-17 18 -7162 0 c-5713 0 -7165 -3 -7178 -12z"/>
</g>
</g>
</svg>
