<?xml version="1.0" standalone="no"?>
<!DOCTYPE svg PUBLIC "-//W3C//DTD SVG 1.1//EN"
 "http://www.w3.org/Graphics/SVG/1.1/DTD/svg11.dtd">
<!-- Created with svg_stack (http://github.com/astraw/svg_stack) -->
<svg xmlns:sodipodi="http://sodipodi.sourceforge.net/DTD/sodipodi-0.dtd" xmlns="http://www.w3.org/2000/svg" version="1.1" width="497.0" height="92.0">
  <defs/>
  <g id="id0:id0" transform="matrix(1.25,0,0,1.25,0.0,0.0)"><g transform="translate(0.000000,73.600000) scale(0.040000,-0.040000)" fill="#030303" stroke="none">
<path d="M8995 1734 c-263 -38 -497 -211 -603 -444 -57 -123 -67 -176 -66 -340 1 -146 3 -160 32 -243 90 -257 271 -435 522 -514 75 -24 101 -27 220 -26 136 0 191 9 290 49 212 84 383 261 454 470 38 113 46 159 46 264 0 346 -224 651 -555 755 -61 19 -108 27 -195 30 -63 2 -128 1 -145 -1z"/>
<path d="M6730 1660 c-8 -5 -24 -10 -35 -10 -11 0 -62 -21 -113 -46 -167 -83 -304 -234 -372 -409 -58 -148 -58 -342 0 -490 78 -201 233 -365 410 -432 112 -43 135 -47 270 -48 140 0 172 6 288 52 178 72 321 216 401 405 25 60 26 74 29 254 l3 190 -25 68 c-72 191 -273 384 -466 448 -53 17 -95 22 -220 25 -95 2 -161 0 -170 -7z"/>
<path d="M4645 1587 c-104 -39 -177 -88 -266 -176 -142 -143 -189 -262 -189 -479 0 -207 42 -305 194 -458 95 -95 149 -132 238 -165 45 -16 80 -19 228 -19 150 0 183 3 229 20 163 59 341 241 406 415 22 59 25 81 25 214 0 122 -4 158 -20 206 -48 139 -156 278 -278 358 -124 81 -216 106 -387 106 -99 0 -130 -4 -180 -22z"/>
<path d="M2630 1526 c-217 -76 -364 -225 -419 -426 -46 -166 -11 -356 94 -514 67 -102 182 -183 327 -232 94 -32 226 -33 319 -3 123 40 190 80 275 164 124 122 184 261 184 425 0 159 -62 312 -170 420 -158 159 -424 231 -610 166z"/>
<path d="M615 1474 c-179 -49 -328 -192 -386 -369 -33 -100 -32 -264 1 -350 65 -168 191 -288 362 -343 99 -32 239 -31 333 3 161 59 291 186 346 340 29 80 32 275 6 348 -54 151 -153 263 -289 326 -46 21 -96 42 -113 46 -56 14 -208 14 -260 -1z"/>
</g>
</g>
</svg>
