<?xml version="1.0" standalone="no"?>
<!DOCTYPE svg PUBLIC "-//W3C//DTD SVG 1.1//EN"
 "http://www.w3.org/Graphics/SVG/1.1/DTD/svg11.dtd">
<!-- Created with svg_stack (http://github.com/astraw/svg_stack) -->
<svg xmlns:sodipodi="http://sodipodi.sourceforge.net/DTD/sodipodi-0.dtd" xmlns="http://www.w3.org/2000/svg" version="1.1" width="642.0" height="1168.0">
  <defs/>
  <g id="id0:id0" transform="matrix(1.25,0,0,1.25,0.0,0.0)"><g transform="translate(0.000000,934.400000) scale(0.040000,-0.040000)" fill="#ffffff" stroke="none">
<path d="M0 20530 l0 -2830 2689 0 c1480 0 2692 3 2695 8 2 4 -4 84 -15 177 -60 547 -69 716 -45 907 26 204 28 260 12 493 -8 127 -20 331 -26 455 -6 124 -16 299 -22 390 -16 225 -15 253 20 340 16 41 35 98 41 126 8 33 23 62 42 80 16 15 29 33 29 40 0 7 111 128 248 269 198 206 251 266 265 304 14 37 41 69 115 138 54 49 110 109 126 132 l30 43 -72 139 c-85 163 -98 216 -62 254 13 14 29 25 36 25 10 0 13 58 16 258 l3 257 32 68 c62 131 170 244 314 330 127 75 256 98 444 78 237 -25 356 -71 450 -173 108 -117 164 -278 172 -498 5 -127 7 -137 31 -162 24 -26 25 -31 19 -105 -3 -43 -15 -107 -27 -143 -23 -73 -29 -142 -13 -147 6 -2 37 -24 69 -49 88 -69 231 -150 299 -171 47 -14 89 -18 194 -16 115 2 138 0 172 -17 21 -11 46 -20 56 -20 49 0 99 -25 158 -80 66 -61 68 -62 159 -80 92 -19 252 -86 501 -213 17 -8 156 -63 310 -122 284 -109 525 -205 715 -286 210 -89 631 -305 855 -439 127 -75 293 -171 370 -213 77 -42 153 -83 168 -91 35 -20 31 -38 -10 -47 -65 -13 -133 -72 -219 -189 -101 -136 -80 -141 50 -11 l104 103 38 -12 c22 -7 73 -30 114 -50 41 -21 106 -47 144 -59 48 -14 80 -31 105 -55 20 -19 67 -59 105 -88 61 -46 76 -66 124 -153 30 -55 65 -112 78 -128 29 -34 18 -67 -21 -67 -32 0 -32 -18 0 -115 33 -98 27 -141 -21 -161 -27 -11 -34 -20 -34 -42 0 -16 -6 -37 -14 -48 l-14 -19 -29 21 c-36 27 -52 61 -75 159 -11 44 -30 99 -43 122 -34 57 -201 183 -244 183 -17 0 -53 9 -81 20 -69 27 -85 26 -140 -15 -95 -70 -113 -166 -54 -291 38 -81 44 -169 14 -206 -56 -72 -124 2 -169 186 -12 49 -31 107 -43 130 -11 23 -26 70 -32 106 l-12 65 -130 53 c-71 29 -201 84 -289 123 -87 39 -280 113 -428 164 -193 67 -285 105 -330 134 -34 22 -87 51 -118 65 -94 44 -334 101 -614 147 -298 49 -597 122 -699 169 -25 12 -50 19 -57 15 -26 -17 -39 -76 -39 -187 0 -133 -12 -216 -46 -316 l-24 -73 39 -117 c52 -152 60 -247 36 -395 -25 -155 -20 -185 62 -377 39 -91 76 -183 82 -205 32 -124 100 -770 84 -810 -3 -8 560 -12 2057 -14 l2060 -3 0 2831 0 2831 -6420 0 -6420 0 0 -2830z"/>
<path d="M7355 21599 c-4 -5 -10 -58 -14 -117 -6 -84 -14 -120 -35 -167 -20 -44 -25 -69 -21 -95 8 -49 -10 -142 -39 -205 -34 -76 -106 -149 -182 -186 -56 -28 -71 -31 -120 -26 -114 12 -264 106 -408 257 -58 61 -76 86 -76 108 0 16 -14 54 -30 85 -17 31 -41 97 -54 147 -13 50 -28 96 -34 102 -17 17 -76 -33 -102 -88 -122 -252 136 -847 557 -1284 45 -48 56 -67 78 -140 41 -135 62 -225 90 -373 19 -105 34 -156 61 -210 36 -72 168 -257 184 -257 18 0 22 26 41 242 23 264 23 264 -78 515 -78 194 -83 235 -63 441 l12 124 -69 72 -70 71 17 60 c15 54 21 63 59 84 l43 24 72 -25 71 -25 6 -159 c5 -133 9 -168 28 -213 30 -74 61 -206 61 -264 0 -58 29 -146 79 -241 77 -146 112 -273 175 -638 4 -23 13 -38 21 -38 18 0 88 91 114 150 49 108 16 425 -126 1210 -27 152 -52 262 -61 272 -8 10 -12 27 -9 39 6 21 -48 282 -62 304 -3 6 -8 87 -11 181 l-5 170 -40 52 c-40 54 -49 60 -60 41z m155 -1095 c0 -26 -17 -22 -43 10 -14 19 -23 36 -20 39 8 9 63 -35 63 -49z m-627 -275 c-17 -17 -37 -1 -22 17 8 10 15 12 23 4 7 -7 7 -13 -1 -21z"/>
<path d="M5963 16771 c-77 -21 -200 -68 -220 -84 -23 -17 -14 -121 11 -130 7 -3 48 24 92 59 100 81 202 134 258 134 22 0 79 -14 126 -30 46 -16 87 -27 89 -24 3 3 -5 14 -19 25 -81 65 -211 84 -337 50z"/>
<path d="M5787 15765 c-4 -8 -9 -48 -13 -90 l-7 -75 24 0 c36 0 508 61 552 72 32 8 37 12 37 38 0 22 -5 30 -17 30 -10 0 -133 9 -273 20 -306 24 -296 24 -303 5z"/>
<path d="M6900 12211 c-191 -62 -211 -74 -267 -149 -65 -87 -129 -194 -192 -319 -30 -60 -62 -109 -78 -121 -43 -31 -168 -161 -214 -222 -62 -83 -97 -160 -124 -273 -39 -165 -72 -252 -166 -440 -94 -188 -155 -276 -205 -298 -78 -35 -109 -88 -199 -349 -66 -188 -138 -346 -219 -474 -31 -48 -56 -95 -56 -103 0 -20 299 -322 452 -458 175 -153 211 -170 169 -80 -29 62 -27 82 19 189 21 51 50 127 64 168 l26 76 -11 183 c-11 185 -6 344 13 474 18 125 127 370 226 510 72 102 366 592 386 644 22 56 63 116 116 166 52 49 100 121 100 151 0 18 -40 119 -70 176 -7 12 3 34 36 85 68 102 61 97 106 61 22 -17 41 -36 43 -42 41 -135 95 -326 95 -335 0 -6 -29 -26 -65 -43 l-64 -32 -12 -56 c-35 -178 -85 -287 -228 -500 -173 -258 -264 -461 -312 -694 -44 -213 -15 -415 93 -655 27 -61 28 -67 12 -76 -10 -5 -35 -26 -57 -45 l-39 -34 3 -160 4 -160 -110 -93 c-62 -52 -110 -100 -110 -109 0 -13 17 -22 70 -36 133 -35 350 -67 495 -73 158 -7 206 0 204 31 -2 37 -95 437 -119 512 -14 43 -40 101 -59 131 -38 59 -51 116 -43 188 3 27 -1 62 -9 85 -7 21 -27 88 -44 148 l-32 110 37 68 c67 122 457 700 739 1095 l277 388 84 39 83 40 22 64 c12 36 37 84 56 108 28 35 34 52 34 91 0 32 -4 47 -13 47 -7 0 -37 -25 -67 -55 -45 -45 -60 -55 -89 -55 -19 0 -168 27 -333 60 -246 50 -316 60 -399 60 -118 0 -139 8 -139 53 1 68 62 160 147 218 42 29 68 71 80 132 7 36 -3 35 -147 -12z m-287 -652 c-6 -23 -61 -61 -75 -53 -10 6 63 83 74 77 3 -1 4 -12 1 -24z m496 -565 c-6 -7 -15 -11 -21 -8 -5 3 -4 12 3 20 6 7 15 11 21 8 5 -3 4 -12 -3 -20z"/>
<path d="M7117 9983 c-4 -3 -7 -44 -7 -89 0 -69 3 -85 18 -93 24 -13 379 -18 391 -6 22 24 71 129 63 137 -5 5 -44 2 -88 -5 l-79 -14 -72 39 -72 39 -40 -36 -39 -36 -27 36 c-28 35 -36 40 -48 28z"/>
<path d="M10083 9035 c-109 -30 -193 -89 -213 -151 -11 -33 -4 -81 22 -146 13 -35 22 -35 47 1 25 35 26 45 6 61 -25 21 -18 39 38 95 55 54 127 97 185 110 46 10 124 -11 172 -46 l40 -29 0 -53 c0 -44 4 -58 24 -77 35 -32 56 -21 56 30 0 23 -6 53 -14 68 -22 41 -106 119 -148 137 -46 19 -145 19 -215 0z"/>
</g>
</g>
  <g id="id1:id1" transform="matrix(1.25,0,0,1.25,0.0,0.0)"><g transform="translate(0.000000,934.400000) scale(0.040000,-0.040000)" fill="#3b3e9d" stroke="none">
<path d="M6742 11833 c-11 -16 -36 -57 -55 -93 l-35 -66 17 -49 c10 -28 28 -69 40 -92 l21 -43 -19 -38 c-11 -21 -44 -63 -73 -93 -70 -71 -110 -130 -137 -204 -13 -33 -28 -67 -35 -75 -7 -8 -63 -99 -125 -202 -62 -103 -151 -245 -198 -315 -139 -206 -227 -407 -253 -578 -12 -77 -15 -375 -4 -530 7 -113 0 -141 -82 -333 -24 -57 -44 -115 -44 -129 0 -23 122 -272 155 -317 13 -18 16 -18 32 -4 10 8 90 75 178 148 88 73 164 136 169 141 5 4 8 82 7 173 l-2 165 56 42 c31 23 54 47 51 53 -2 6 -20 47 -40 91 -72 166 -113 360 -101 484 29 281 144 561 353 856 106 150 187 331 207 468 l7 48 64 32 c35 17 66 38 69 46 5 13 -89 347 -104 367 -8 12 -88 74 -95 74 -2 0 -13 -12 -24 -27z"/>
</g>
</g>
  <g id="id2:id2" transform="matrix(1.25,0,0,1.25,0.0,0.0)"><g transform="translate(0.000000,934.400000) scale(0.040000,-0.040000)" fill="#c1c1c1" stroke="none">
<path d="M9116 17722 c-2 -1 -550 -2 -1218 -2 -1021 0 -1217 -2 -1227 -14 -9 -10 5 -93 57 -353 44 -217 66 -347 61 -361 -5 -13 -3 -25 7 -32 9 -8 14 -31 14 -64 0 -28 5 -89 11 -136 6 -47 14 -204 17 -350 l7 -265 28 -48 c23 -38 30 -66 37 -145 l8 -97 -21 -17 c-12 -10 -27 -22 -33 -27 -8 -7 -9 -25 -2 -62 11 -63 -2 -181 -34 -287 -11 -40 -19 -75 -15 -78 3 -3 27 -8 54 -12 59 -9 61 -18 38 -153 -11 -64 -18 -188 -22 -389 -5 -275 -4 -302 16 -400 15 -75 26 -187 36 -395 8 -159 19 -342 23 -405 5 -63 8 -203 7 -310 -3 -229 5 -306 40 -417 35 -113 72 -122 152 -36 31 33 47 43 62 38 15 -5 21 2 32 37 11 33 24 48 59 68 l45 27 -3 61 c-5 101 -4 102 150 102 l131 0 56 53 c58 56 58 56 275 123 103 32 131 61 121 126 l-5 36 63 52 c93 78 97 79 159 37 29 -19 69 -39 88 -42 19 -4 47 -13 61 -21 26 -13 89 -78 89 -92 0 -4 20 -20 44 -35 32 -20 43 -33 39 -46 -6 -24 59 -94 80 -86 8 4 30 -5 50 -18 20 -13 55 -27 79 -31 36 -6 53 -17 105 -71 34 -36 77 -73 95 -83 25 -14 32 -25 30 -41 -2 -13 5 -32 17 -45 11 -11 29 -42 40 -68 11 -27 27 -48 35 -48 9 0 21 -10 27 -22 6 -13 20 -32 30 -43 24 -27 109 -184 109 -203 0 -8 6 -26 14 -40 18 -34 46 -128 46 -154 0 -21 23 -69 52 -109 16 -22 19 -38 15 -101 -3 -67 -10 -87 -66 -201 -34 -70 -67 -127 -71 -127 -5 0 -16 -12 -24 -27 -8 -16 -36 -53 -62 -83 -34 -39 -53 -54 -69 -52 -20 2 -65 -30 -65 -47 0 -5 7 -12 16 -15 20 -8 9 -26 -16 -26 -11 0 -27 -11 -36 -26 -9 -14 -23 -23 -30 -20 -23 9 -42 -4 -78 -53 -19 -26 -50 -54 -68 -63 -254 -122 -298 -138 -389 -138 -32 0 -64 -3 -73 -6 -19 -7 -21 -24 -3 -24 18 0 79 -66 108 -116 13 -22 52 -71 86 -109 52 -56 65 -66 78 -55 18 15 102 -11 143 -44 15 -13 40 -29 56 -37 18 -8 43 -37 62 -69 18 -30 49 -73 69 -94 62 -67 141 -169 174 -227 28 -50 30 -58 16 -69 -32 -26 -6 -54 84 -90 62 -24 157 -74 191 -99 14 -10 111 -75 215 -144 150 -99 207 -143 270 -209 44 -46 85 -92 91 -103 9 -17 14 -18 27 -7 13 11 29 4 109 -49 122 -82 166 -118 174 -141 3 -11 24 -32 47 -49 23 -16 51 -45 62 -64 11 -19 38 -64 59 -101 34 -59 153 -321 206 -454 10 -25 52 -116 94 -203 79 -164 136 -315 136 -362 0 -30 45 -79 96 -106 20 -11 40 -37 63 -84 22 -43 60 -96 106 -144 61 -63 77 -88 100 -151 41 -112 70 -224 62 -243 -17 -45 -86 7 -108 83 -23 75 -43 33 -28 -58 10 -66 0 -116 -24 -120 -10 -2 -33 12 -51 30 -26 26 -36 46 -41 84 -17 112 -45 112 -45 0 0 -47 -5 -88 -10 -91 -6 -4 -26 -1 -45 5 -55 18 -67 52 -76 220 -4 80 -8 146 -8 146 -4 8 -34 12 -46 7 -14 -5 -15 -23 -9 -127 8 -140 2 -153 -62 -142 -29 6 -39 14 -55 49 -10 23 -19 65 -19 93 0 36 -6 59 -20 77 -27 34 -50 101 -50 143 0 35 -13 45 -24 18 -3 -9 -6 -44 -6 -79 0 -44 -4 -66 -16 -75 -22 -19 -64 -2 -91 39 -19 28 -23 47 -23 115 0 168 -29 310 -57 282 -5 -4 -7 -76 -5 -160 2 -136 1 -154 -15 -168 -25 -23 -68 -12 -97 23 -14 16 -34 29 -44 29 -29 0 -75 57 -101 126 -36 94 -29 88 -127 94 -99 6 -92 3 -190 82 -51 41 -79 73 -99 111 -27 55 -180 258 -336 448 -48 57 -98 127 -112 154 -32 64 -81 112 -99 98 -10 -8 -68 20 -220 102 -114 63 -239 134 -278 160 -102 66 -208 109 -238 95 -13 -5 -31 -10 -40 -10 -19 -1 -166 -215 -202 -295 -12 -27 -28 -78 -35 -112 -8 -34 -37 -122 -66 -195 l-53 -133 2 -146 c3 -169 -11 -256 -65 -394 -70 -180 -171 -568 -192 -739 -7 -60 -6 -99 5 -160 18 -103 18 -134 -2 -171 -9 -16 -19 -48 -23 -70 l-6 -40 -75 -5 c-41 -3 -88 -1 -103 4 -30 9 -212 4 -223 -6 -3 -4 6 -42 20 -85 41 -124 56 -240 66 -513 6 -140 17 -336 26 -435 8 -99 19 -371 24 -605 8 -355 12 -443 29 -535 11 -60 21 -141 21 -178 0 -38 5 -78 11 -90 6 -12 51 -63 99 -112 94 -97 121 -143 161 -278 49 -168 133 -416 159 -469 16 -31 40 -95 54 -141 14 -46 54 -135 90 -198 79 -141 85 -163 51 -185 -14 -9 -25 -23 -25 -31 0 -8 18 -54 41 -102 51 -108 116 -285 136 -371 20 -88 12 -153 -48 -405 -69 -288 -93 -359 -132 -389 -61 -46 -171 -60 -218 -28 -58 38 -135 106 -158 139 -13 20 -37 65 -53 102 -17 36 -35 69 -41 72 -5 4 -44 5 -87 2 l-77 -6 -86 77 c-99 89 -120 120 -175 266 -21 58 -50 128 -64 155 -14 28 -38 104 -52 170 -53 238 -58 260 -67 278 -15 28 -39 20 -149 -47 -58 -35 -108 -62 -113 -59 -4 2 -21 31 -37 64 -24 47 -29 67 -24 98 5 33 -3 59 -54 177 -179 412 -370 757 -503 907 -96 110 -140 254 -194 642 -14 105 -35 235 -45 290 -11 55 -31 177 -45 270 -64 421 -107 650 -137 725 -17 41 -57 154 -90 250 -68 198 -95 263 -108 258 -17 -6 -205 -329 -358 -613 -385 -719 -479 -866 -672 -1055 -132 -129 -247 -284 -1226 -1660 -115 -163 -383 -547 -462 -662 -36 -54 -71 -98 -77 -98 -6 0 -37 27 -70 60 -33 33 -65 60 -72 60 -15 0 -107 -112 -128 -156 -8 -17 -21 -37 -30 -44 -8 -7 -15 -17 -15 -23 0 -14 -96 -164 -127 -198 -13 -14 -41 -71 -62 -126 -64 -162 -99 -210 -336 -455 -163 -168 -177 -178 -266 -178 -93 0 -203 52 -228 108 -7 15 -21 44 -32 64 -13 26 -19 58 -19 107 0 78 -7 85 -57 64 -18 -7 -63 -13 -100 -12 -120 1 -208 53 -250 148 -32 71 -40 208 -24 436 19 290 49 351 289 596 124 127 180 177 220 197 34 16 72 48 109 89 l56 64 -26 27 -26 27 22 55 c77 189 350 644 557 930 86 118 171 264 278 475 209 415 269 510 508 810 70 88 103 122 216 217 86 73 220 251 242 323 23 75 62 154 134 270 91 148 129 235 211 478 43 128 91 259 106 292 15 33 56 130 92 215 36 85 69 160 74 166 5 6 33 70 64 144 55 133 83 188 168 334 62 107 61 109 -103 156 -104 30 -135 47 -165 91 -30 43 -29 47 35 134 20 28 106 154 191 280 84 127 188 275 229 330 88 117 354 554 382 629 35 90 98 356 104 435 11 141 145 783 225 1072 16 59 47 149 68 200 27 63 46 132 59 209 11 63 29 135 41 159 11 25 21 64 21 88 0 23 6 60 14 80 8 21 17 72 20 113 7 101 36 389 97 955 48 446 51 489 58 843 4 205 4 405 0 444 -4 42 -2 85 4 103 6 17 11 169 12 360 2 336 21 598 48 654 9 19 24 28 61 36 l50 10 11 50 c6 28 17 59 24 70 11 17 9 36 -13 120 -14 54 -26 113 -26 131 0 44 -18 90 -62 160 -44 71 -48 110 -19 182 11 26 22 72 25 102 3 32 12 60 21 66 19 14 19 24 2 24 -8 0 -22 9 -31 19 -10 11 -48 27 -86 36 -98 24 -106 35 -130 191 -33 216 -48 337 -80 618 -24 223 -33 271 -47 282 -15 11 -468 13 -2695 14 l-2678 0 0 -8860 0 -8860 6420 0 6420 0 0 8860 0 8860 -1861 2 c-1023 2 -1862 2 -1863 0z"/>
<path d="M8593 11445 c-18 -8 -33 -21 -33 -30 0 -37 99 0 100 38 0 11 -32 8 -67 -8z"/>
</g>
</g>
  <g id="id3:id3" transform="matrix(1.25,0,0,1.25,0.0,0.0)"><g transform="translate(0.000000,934.400000) scale(0.040000,-0.040000)" fill="#000000" stroke="none">
<path d="M6687 23029 c-237 -32 -512 -269 -572 -494 -13 -48 -16 -101 -13 -272 l3 -212 -35 -30 c-32 -26 -35 -34 -35 -80 0 -43 10 -70 73 -191 53 -103 71 -147 66 -163 -4 -11 -60 -73 -126 -137 -86 -84 -121 -125 -128 -151 -7 -26 -75 -104 -257 -297 -317 -335 -311 -327 -333 -409 -10 -38 -30 -99 -45 -138 -24 -63 -26 -79 -21 -155 7 -111 14 -245 27 -520 5 -124 17 -333 26 -465 16 -252 14 -356 -13 -545 -26 -185 -19 -292 91 -1279 41 -361 79 -654 104 -788 12 -61 32 -78 121 -102 78 -21 105 -42 95 -76 -3 -11 -8 -42 -11 -70 -3 -27 -14 -69 -25 -92 -29 -66 -25 -99 27 -187 36 -62 48 -94 56 -150 10 -77 53 -245 65 -257 5 -4 76 -12 158 -19 380 -29 386 -30 365 -54 -5 -7 -38 -16 -73 -19 -34 -4 -150 -18 -257 -32 -197 -26 -236 -28 -233 -10 1 6 -3 15 -8 21 -11 14 -97 0 -116 -19 -30 -30 -65 -479 -62 -792 4 -327 -8 -1005 -20 -1160 -6 -77 -20 -221 -31 -320 -24 -220 -95 -906 -111 -1070 -6 -66 -15 -131 -21 -145 -5 -14 -13 -54 -18 -90 -5 -36 -18 -91 -29 -122 -12 -32 -26 -93 -32 -135 -11 -78 -25 -124 -73 -238 -30 -72 -68 -212 -130 -475 -63 -270 -146 -690 -146 -742 0 -56 -31 -201 -75 -355 l-35 -123 -156 -257 c-85 -142 -181 -292 -213 -333 -32 -41 -138 -194 -235 -338 -98 -145 -193 -283 -211 -308 -51 -66 -52 -78 -11 -127 42 -51 51 -56 183 -97 56 -18 107 -38 113 -45 9 -11 -4 -41 -60 -133 -39 -66 -97 -182 -129 -258 -32 -77 -70 -163 -85 -192 -15 -29 -46 -101 -71 -160 -24 -59 -60 -142 -79 -185 -20 -42 -66 -168 -102 -280 -88 -265 -114 -327 -214 -493 -87 -144 -150 -274 -150 -310 0 -36 -189 -262 -274 -329 -129 -101 -387 -437 -518 -675 -19 -36 -75 -144 -124 -240 -157 -311 -236 -445 -375 -632 -174 -235 -496 -795 -515 -896 -6 -29 -3 -38 17 -53 l23 -17 -44 -49 c-46 -50 -115 -103 -135 -103 -6 0 -95 -84 -196 -187 -160 -163 -190 -198 -222 -263 -63 -127 -69 -165 -74 -455 l-5 -260 21 -57 c39 -103 155 -178 275 -178 106 0 145 26 314 212 209 231 254 295 309 441 18 50 44 103 57 117 24 25 126 177 126 187 0 9 131 201 146 214 13 10 25 2 78 -50 42 -41 70 -62 82 -59 10 2 34 26 54 54 287 417 256 372 600 859 166 234 260 366 492 690 372 519 499 686 646 847 75 82 160 180 187 217 71 94 203 318 340 576 26 50 71 133 100 185 29 52 78 145 110 205 32 61 106 191 165 290 59 99 128 216 153 260 25 44 62 96 82 115 l37 35 24 -30 c33 -41 114 -201 157 -310 19 -49 78 -216 130 -370 52 -154 109 -313 126 -354 26 -61 42 -140 91 -440 33 -201 74 -445 90 -541 17 -96 41 -254 54 -350 36 -257 72 -404 124 -506 11 -22 52 -80 92 -129 39 -50 105 -146 146 -215 84 -139 254 -479 334 -668 45 -104 52 -128 46 -162 -5 -32 -1 -51 23 -98 51 -101 50 -101 171 -26 57 35 110 64 117 64 18 0 31 -37 54 -155 31 -160 56 -247 93 -326 19 -41 51 -119 72 -174 l37 -100 94 -93 c52 -51 105 -97 119 -102 65 -25 184 3 232 54 42 45 68 131 158 526 29 131 31 236 4 316 -10 33 -53 141 -94 239 l-74 180 24 18 c40 30 32 69 -41 195 -36 63 -80 157 -99 210 -70 197 -205 590 -216 631 -6 23 -27 76 -47 118 -29 59 -52 89 -109 140 -92 84 -118 129 -110 188 5 28 0 82 -13 152 -27 140 -41 376 -41 688 0 159 -8 336 -20 485 -11 129 -20 281 -20 337 0 262 -34 532 -81 639 -23 56 -22 57 108 51 259 -13 293 -6 293 53 0 15 7 41 15 56 18 35 19 100 3 210 -10 69 -9 98 6 190 21 132 90 406 145 576 51 155 56 185 81 430 11 109 23 211 26 226 10 41 154 443 171 476 8 16 46 74 83 129 57 83 75 102 106 113 35 12 44 11 104 -13 36 -14 90 -43 120 -63 59 -40 388 -223 508 -284 40 -20 130 -61 200 -92 98 -43 138 -66 175 -102 46 -45 77 -92 77 -117 0 -6 13 -21 30 -33 16 -13 39 -41 51 -64 11 -22 85 -120 163 -217 178 -221 261 -332 292 -392 21 -43 112 -131 181 -176 34 -23 212 -35 234 -16 25 21 88 29 93 12 3 -8 10 -66 16 -129 10 -103 14 -118 37 -142 28 -29 117 -68 156 -68 12 0 34 -13 49 -29 47 -50 118 -50 118 0 0 39 16 45 34 12 19 -37 45 -60 77 -68 34 -8 59 24 59 76 0 46 9 54 34 30 31 -29 70 -36 90 -16 21 21 15 55 -31 190 -19 55 -37 109 -40 120 -4 11 -42 60 -86 110 -46 51 -93 118 -111 154 -27 55 -39 69 -87 97 l-55 33 -12 64 c-15 81 -62 200 -157 396 -41 84 -75 157 -75 161 0 18 -163 378 -201 443 -21 38 -39 76 -39 84 0 20 -119 143 -191 198 -31 24 -124 87 -205 140 -82 53 -167 110 -189 125 -22 15 -79 50 -126 78 -47 28 -91 57 -98 65 -6 8 -28 18 -49 22 -30 5 -62 31 -167 134 -71 70 -156 145 -188 166 -38 25 -64 51 -72 73 -24 56 -121 193 -190 267 -35 38 -75 91 -87 118 -19 39 -30 49 -59 57 -19 5 -46 21 -59 35 -17 18 -63 38 -154 66 -134 42 -185 64 -268 113 -42 24 -48 32 -54 72 -4 28 -2 50 4 56 6 6 59 14 119 18 118 9 180 27 283 83 36 19 78 38 94 41 17 4 53 32 85 66 43 45 62 58 77 54 15 -4 26 2 38 21 10 15 30 32 45 38 25 11 110 107 183 207 15 21 34 40 42 43 8 3 20 23 26 44 7 21 20 49 30 63 9 14 24 43 34 65 10 22 26 57 35 77 29 60 18 164 -25 235 -19 31 -34 68 -34 82 0 26 -24 110 -41 143 -5 10 -9 24 -9 33 0 37 -144 268 -177 284 -27 12 -40 55 -24 75 19 23 -30 91 -87 120 -26 13 -70 51 -99 84 -50 57 -71 70 -144 86 -14 3 -43 19 -64 36 -60 48 -88 42 -179 -36 -72 -61 -76 -67 -71 -97 13 -66 -4 -83 -117 -118 -201 -62 -220 -70 -269 -121 l-46 -48 -124 0 c-138 0 -163 -8 -174 -58 -3 -16 -2 -48 4 -71 l9 -42 -32 -15 c-45 -23 -66 -44 -81 -81 -9 -21 -21 -33 -33 -33 -10 0 -37 -20 -60 -45 -22 -25 -48 -45 -58 -45 -27 0 -83 -40 -99 -70 -24 -47 -18 -93 35 -236 28 -74 48 -139 45 -145 -9 -13 -99 -11 -117 4 -8 6 -23 46 -32 87 -38 164 -60 210 -101 210 -30 0 -38 13 -59 88 -9 35 -46 141 -83 235 -36 95 -77 206 -91 247 l-25 75 -7 365 c-4 201 -11 381 -14 400 -4 19 -11 143 -16 275 -6 180 -14 270 -32 360 -21 107 -23 146 -22 370 1 138 8 300 15 360 7 61 13 142 14 180 l0 70 -40 9 c-22 4 -45 10 -51 11 -7 2 -2 29 14 77 21 61 26 93 27 201 l2 129 24 12 24 12 -3 105 c-3 93 -6 111 -34 168 l-31 65 -2 165 c-1 147 -8 216 -63 594 -34 236 -60 432 -57 438 4 5 477 9 1221 9 l1214 0 0 78 c0 129 -44 546 -75 707 -7 39 -30 108 -50 155 -121 278 -130 309 -115 391 37 189 31 322 -21 469 -42 118 -44 126 -26 168 34 77 49 170 56 329 7 180 12 195 58 174 121 -57 422 -131 713 -176 117 -19 343 -65 465 -96 105 -27 164 -52 256 -111 59 -37 133 -68 340 -139 145 -50 334 -122 419 -160 85 -37 213 -92 285 -122 l129 -54 12 -55 c6 -30 20 -74 32 -99 12 -24 33 -89 48 -144 31 -119 52 -164 94 -199 48 -40 87 -31 116 26 23 44 14 118 -24 205 -59 132 -36 226 73 293 l31 19 67 -24 c38 -14 79 -25 93 -25 14 0 55 -23 97 -54 121 -90 143 -122 170 -243 21 -94 50 -149 88 -169 28 -14 32 -14 49 1 10 9 22 33 27 53 6 24 15 38 28 41 11 2 25 11 32 20 19 25 15 114 -7 171 -25 65 -25 66 8 82 40 19 41 59 3 107 -17 22 -49 75 -71 119 -27 56 -53 91 -85 118 -26 22 -77 66 -115 100 -56 50 -80 64 -141 82 -41 12 -96 34 -124 49 l-50 28 -9 90 -8 90 -76 35 c-86 40 -305 164 -559 316 -371 223 -750 396 -1513 689 -162 62 -333 134 -380 159 -117 62 -308 143 -383 162 -34 8 -79 20 -99 25 -23 6 -61 31 -95 63 -69 63 -84 71 -143 81 -25 4 -62 16 -84 27 -35 18 -51 19 -151 13 -142 -9 -230 12 -354 86 -98 58 -221 148 -221 161 0 5 14 63 31 129 36 141 37 214 1 252 -19 20 -22 35 -22 109 0 104 -22 235 -55 331 -68 194 -194 314 -378 361 -126 32 -336 49 -440 35z m722 -1491 l31 -42 0 -152 c0 -85 5 -165 11 -181 21 -55 70 -288 64 -308 -3 -11 -10 -78 -15 -150 -6 -71 -14 -133 -18 -136 -4 -4 -45 24 -92 62 -76 61 -110 81 -110 63 0 -13 225 -244 235 -241 5 2 15 47 20 101 6 53 15 97 20 97 11 0 33 -111 89 -446 64 -381 87 -573 89 -730 l2 -100 -33 -61 c-18 -34 -63 -94 -99 -133 -72 -79 -194 -181 -215 -181 -31 0 -206 193 -297 327 -59 87 -86 159 -111 298 -23 133 -48 237 -87 365 -23 77 -32 93 -97 165 -271 301 -454 599 -532 864 -30 103 -43 282 -25 349 13 46 79 128 92 115 4 -4 15 -39 24 -78 9 -38 31 -102 50 -141 19 -40 35 -84 35 -98 0 -38 130 -176 254 -270 113 -86 244 -129 323 -107 69 19 162 89 209 158 52 75 74 149 74 242 0 54 6 84 25 127 19 42 27 82 31 148 6 91 10 116 18 116 2 0 18 -19 35 -42z m4169 -1656 c4 -41 -12 -48 -63 -26 l-40 16 30 24 c41 33 69 28 73 -14z m-119 -48 c-12 -13 -26 -21 -31 -18 -5 4 0 17 13 30 12 13 26 21 31 18 5 -4 0 -17 -13 -30z m-5465 -3083 c3 -4 -20 -24 -52 -44 -31 -20 -84 -58 -117 -86 -33 -27 -63 -47 -66 -43 -4 4 -9 26 -12 50 l-5 43 46 21 c49 20 182 67 194 68 4 0 9 -4 12 -9z m1018 -4577 c-13 -34 -28 -52 -64 -75 -95 -61 -174 -212 -140 -266 14 -22 60 -31 158 -31 82 0 149 -10 399 -61 166 -34 314 -61 331 -61 22 0 42 12 79 50 26 27 52 47 57 44 17 -11 7 -57 -22 -92 -16 -20 -39 -66 -52 -102 l-23 -65 -75 -37 c-41 -20 -87 -50 -101 -66 -62 -69 -561 -778 -780 -1109 -205 -309 -262 -407 -261 -444 0 -17 18 -83 38 -147 32 -99 38 -132 39 -213 l1 -96 43 -71 c23 -39 52 -101 63 -139 31 -103 117 -497 111 -507 -4 -5 -78 -6 -172 -3 -164 6 -317 27 -484 67 -45 11 -89 20 -99 20 -9 0 -40 -20 -70 -45 -62 -52 -55 -55 -118 66 -25 48 -53 87 -73 100 -92 64 -316 272 -494 458 l-111 117 49 77 c46 72 143 256 170 323 6 16 40 109 74 206 78 220 100 260 164 293 71 36 125 112 234 330 76 154 122 274 155 412 47 190 113 297 278 451 84 78 99 98 149 197 62 120 188 316 228 353 25 23 314 125 328 116 5 -2 0 -25 -9 -50z m328 -2239 c61 -37 93 -42 165 -25 22 5 44 5 48 1 5 -5 -4 -32 -18 -60 l-27 -51 -177 6 c-97 3 -182 7 -188 10 -15 4 -18 120 -4 129 5 3 19 -6 30 -21 23 -29 38 -25 80 20 14 14 26 26 29 26 2 0 30 -16 62 -35z m2755 -924 c3 -6 -14 -21 -39 -36 -47 -28 -146 -126 -146 -146 0 -7 7 -20 16 -30 12 -14 13 -22 4 -38 -16 -30 -27 -19 -41 44 -20 89 16 140 135 192 59 26 63 26 71 14z m345 -162 c0 -37 -15 -45 -34 -17 -17 23 -21 69 -9 82 12 12 43 -34 43 -65z"/>
<path d="M6960 20585 c0 -8 -4 -23 -10 -33 -5 -9 -26 -71 -45 -137 -20 -66 -42 -125 -48 -131 -9 -9 -38 8 -117 67 -103 78 -129 93 -113 65 16 -29 245 -224 257 -220 11 4 47 150 93 377 3 16 1 27 -6 27 -6 0 -11 -7 -11 -15z"/>
<path d="M6619 11642 c-52 -76 -157 -168 -173 -152 -7 7 -7 17 2 30 14 23 15 30 5 30 -11 0 -93 -130 -93 -145 0 -13 35 -1 116 42 135 70 139 74 173 164 17 44 31 85 31 90 0 22 -18 4 -61 -59z"/>
<path d="M6960 11390 c0 -29 6 -53 66 -275 15 -55 29 -110 32 -122 11 -53 26 -46 133 62 57 58 107 112 112 120 19 34 -23 10 -113 -65 -52 -43 -97 -77 -99 -74 -7 6 -102 322 -108 357 -7 36 -23 35 -23 -3z"/>
</g>
</g>
  <g id="id4:id4" transform="matrix(1.25,0,0,1.25,0.0,0.0)"><g transform="translate(0.000000,934.400000) scale(0.040000,-0.040000)" fill="#96000b" stroke="none">
<path d="M7054 20774 l-52 -26 -16 -64 c-9 -36 -13 -70 -10 -77 4 -7 34 -43 67 -80 l60 -68 -12 -118 c-21 -220 -20 -222 73 -457 93 -235 92 -230 69 -499 l-21 -230 26 -38 c30 -46 131 -137 151 -137 17 0 121 84 183 147 l48 48 -25 135 c-59 318 -71 361 -157 542 -63 134 -70 157 -79 239 -10 101 -27 174 -61 264 -19 50 -23 87 -28 225 l-5 165 -75 27 c-41 15 -77 27 -80 27 -3 1 -28 -11 -56 -25z"/>
</g>
</g>
  <g id="id5:id5" transform="matrix(1.25,0,0,1.25,0.0,0.0)"><g transform="translate(0.000000,934.400000) scale(0.040000,-0.040000)" fill="#878787" stroke="none">
<path d="M6285 17710 c-3 -5 22 -202 56 -437 50 -351 63 -462 68 -618 l6 -190 27 -45 c21 -36 28 -65 35 -144 l9 -99 -29 -18 -30 -17 -2 -139 c-1 -112 -6 -151 -24 -206 -12 -38 -20 -75 -17 -83 3 -9 20 -14 44 -14 57 0 64 -13 52 -101 -24 -183 -30 -279 -32 -504 -2 -215 0 -252 20 -355 17 -82 26 -178 32 -335 6 -121 14 -272 20 -337 5 -64 10 -238 10 -387 0 -334 3 -349 119 -661 49 -129 94 -259 101 -288 12 -54 30 -72 70 -72 27 0 45 -41 76 -179 13 -57 27 -108 32 -113 5 -5 40 -12 79 -15 100 -8 100 -8 24 190 -49 128 -54 190 -18 229 13 14 30 27 38 30 11 4 11 8 2 19 -6 8 -24 55 -39 104 l-28 90 -6 340 c-11 543 -27 826 -58 1020 -25 155 -27 190 -24 403 2 224 7 302 32 492 l11 85 -21 17 c-12 10 -35 18 -51 18 -15 0 -30 3 -32 8 -3 4 6 50 20 102 19 76 24 116 22 199 l-3 103 26 14 c14 7 28 19 30 26 3 7 1 55 -4 107 -6 71 -15 107 -38 154 l-30 62 0 185 c0 102 -5 228 -10 280 -5 52 -14 154 -21 225 -7 80 -38 263 -81 475 -39 190 -70 355 -70 368 l0 22 -193 0 c-112 0 -196 -4 -200 -10z"/>
<path d="M8695 13310 c-19 -21 -8 -60 24 -82 43 -30 171 -239 171 -278 0 -9 4 -20 9 -26 11 -12 37 -97 45 -149 4 -22 22 -65 40 -95 28 -48 39 -104 26 -130 -2 -3 -4 -23 -5 -45 -2 -39 -56 -169 -76 -180 -5 -4 -14 -27 -20 -51 -7 -27 -19 -48 -30 -52 -10 -4 -30 -25 -46 -48 -53 -77 -99 -124 -110 -113 -17 17 -65 -19 -62 -45 3 -26 -55 -90 -75 -83 -17 7 -33 -5 -80 -65 -29 -36 -52 -52 -94 -68 -32 -12 -79 -34 -107 -50 -81 -46 -171 -71 -278 -77 -118 -7 -132 -16 -121 -77 3 -22 10 -49 15 -58 17 -31 180 -111 303 -148 133 -40 181 -61 189 -85 9 -21 39 -19 35 2 -3 15 8 19 62 25 78 8 191 46 242 80 20 14 58 31 85 38 38 11 61 27 108 77 48 50 64 60 73 51 10 -10 19 -4 43 25 17 20 38 37 48 37 9 0 28 15 41 33 37 50 132 166 167 203 18 19 37 52 43 74 6 21 15 42 21 46 6 4 27 41 47 83 28 61 35 90 37 146 2 61 -2 77 -28 123 -16 29 -39 92 -52 140 -24 91 -42 147 -56 172 -4 8 -19 38 -32 65 -31 65 -113 181 -132 189 -22 8 -46 68 -34 83 7 7 5 23 -4 45 -11 25 -30 42 -75 66 -39 21 -67 44 -80 67 -25 41 -97 95 -127 95 -13 0 -48 13 -78 29 l-56 29 -16 -18z"/>
<path d="M8145 11767 c-20 -15 -13 -37 11 -37 21 0 74 29 74 40 0 15 -63 12 -85 -3z"/>
<path d="M8675 11049 c-5 -15 4 -37 33 -77 22 -31 51 -80 66 -109 17 -35 41 -62 73 -84 27 -18 110 -92 186 -163 116 -110 143 -131 170 -132 46 -1 47 2 25 49 -30 60 -72 120 -152 215 -82 95 -136 171 -136 189 0 7 -19 22 -42 34 -24 12 -52 30 -64 40 -19 18 -120 59 -143 59 -5 0 -13 -9 -16 -21z"/>
<path d="M8055 9909 c-23 -8 -48 -37 -109 -130 -66 -101 -88 -146 -138 -282 -106 -292 -114 -326 -133 -517 -23 -245 -30 -288 -75 -430 -96 -305 -161 -583 -162 -700 -1 -41 3 -122 7 -180 6 -91 5 -107 -9 -119 -10 -8 -16 -29 -16 -52 0 -50 -15 -56 -115 -50 -147 8 -274 6 -286 -6 -8 -8 -3 -33 16 -94 39 -124 54 -248 65 -535 5 -143 16 -340 25 -439 8 -99 19 -369 25 -600 8 -354 13 -436 30 -525 11 -58 20 -133 19 -167 -2 -77 8 -93 111 -193 42 -42 87 -94 98 -116 12 -23 77 -205 145 -405 156 -456 155 -452 227 -579 64 -112 75 -158 40 -167 -32 -9 -25 -40 51 -224 104 -251 109 -269 109 -371 0 -70 -10 -129 -46 -286 -70 -299 -98 -386 -135 -416 -17 -14 -37 -26 -45 -26 -16 0 -17 -4 -5 -28 5 -9 23 -46 40 -82 47 -100 63 -120 127 -172 91 -74 101 -79 142 -85 54 -7 144 21 187 58 40 36 58 89 131 389 59 244 69 370 34 465 -11 33 -32 92 -44 130 -13 39 -40 106 -61 150 -20 44 -43 95 -51 113 l-14 32 25 10 c45 17 35 66 -44 204 -38 67 -78 155 -91 196 -12 41 -32 95 -45 120 -30 59 -73 182 -141 403 -72 236 -92 272 -203 384 l-91 91 0 74 c0 40 -9 118 -20 173 -18 85 -22 163 -30 520 -6 231 -17 503 -25 605 -9 102 -20 300 -25 441 -11 288 -20 367 -56 495 -13 49 -26 96 -27 104 -2 13 23 15 181 12 206 -4 222 1 222 62 0 17 8 42 17 55 19 29 21 120 3 207 -9 44 -9 79 0 153 20 163 127 560 204 763 45 120 60 217 52 360 l-7 127 51 132 c28 72 58 161 67 198 24 95 56 162 139 286 65 98 77 111 114 123 38 11 46 10 115 -19 41 -17 85 -38 97 -48 40 -30 128 -81 332 -193 205 -112 215 -114 216 -61 0 33 -104 140 -169 173 -31 15 -99 46 -152 69 -130 55 -506 258 -648 349 -69 45 -159 83 -194 81 -12 0 -35 -5 -52 -10z"/>
<path d="M10077 9873 c-15 -14 -5 -47 32 -116 42 -77 201 -429 201 -445 0 -5 38 -87 84 -183 86 -177 146 -335 146 -384 0 -31 42 -75 89 -95 23 -9 39 -30 65 -84 22 -45 62 -100 109 -151 69 -75 76 -87 114 -195 50 -143 60 -192 39 -209 -24 -20 -65 15 -93 81 -14 32 -30 58 -35 58 -5 0 -6 -41 -2 -95 8 -106 -1 -131 -43 -121 -18 5 -24 1 -29 -20 -9 -34 2 -107 21 -145 19 -36 73 -64 108 -55 14 3 32 18 39 33 15 33 32 33 36 1 10 -89 48 -138 107 -138 24 0 37 7 50 26 l17 26 33 -36 c24 -26 41 -36 63 -36 37 0 52 22 52 74 0 36 13 55 26 35 13 -22 73 -40 94 -29 26 14 25 41 -4 136 -56 185 -66 205 -147 292 -70 77 -102 124 -128 194 -7 18 -28 36 -59 52 -61 31 -66 37 -80 113 -15 76 -61 190 -156 393 -89 187 -131 281 -190 422 -66 158 -160 314 -208 344 -21 14 -43 35 -47 47 -12 30 -39 53 -167 141 -111 75 -124 82 -137 69z m871 -1949 c-2 -27 -7 -49 -13 -49 -11 0 -19 79 -10 103 11 30 26 -5 23 -54z"/>
<path d="M10223 8354 c-38 -14 -41 -18 -38 -47 5 -63 60 -162 106 -195 18 -12 22 -12 38 2 15 13 16 24 10 64 -4 26 -8 73 -8 104 -1 31 -4 63 -7 72 -8 20 -45 19 -101 0z"/>
<path d="M5341 7332 c-20 -21 -58 -76 -85 -123 -26 -46 -99 -169 -161 -274 -62 -104 -150 -262 -197 -350 -435 -817 -462 -858 -738 -1151 -47 -50 -164 -198 -261 -330 -358 -488 -1207 -1682 -1408 -1982 l-62 -93 -22 18 c-13 10 -42 39 -66 66 -24 26 -49 47 -57 47 -17 0 -88 -88 -144 -179 -25 -40 -72 -113 -105 -163 -75 -114 -97 -153 -136 -252 -45 -110 -178 -280 -394 -502 l-54 -54 3 -78 c2 -76 30 -164 67 -208 45 -55 171 -100 256 -91 75 8 112 34 245 174 226 239 277 306 327 430 39 99 62 139 136 249 67 100 72 108 99 155 32 58 117 169 130 169 6 0 38 -27 70 -60 32 -33 66 -60 75 -60 9 0 34 28 55 61 58 89 392 567 720 1029 65 91 136 192 159 224 23 32 56 77 72 100 17 23 93 129 170 236 76 107 162 227 190 265 29 39 105 142 169 230 70 94 165 207 231 275 203 206 320 387 610 935 32 61 61 115 65 120 4 6 34 62 68 125 72 137 107 199 196 344 80 132 84 136 102 129 16 -6 18 9 5 35 -6 9 -28 71 -51 137 -68 198 -195 435 -232 435 -6 0 -27 -17 -47 -38z"/>
</g>
</g>
</svg>
