<?xml version="1.0" standalone="no"?>
<!DOCTYPE svg PUBLIC "-//W3C//DTD SVG 1.1//EN"
 "http://www.w3.org/Graphics/SVG/1.1/DTD/svg11.dtd">
<!-- Created with svg_stack (http://github.com/astraw/svg_stack) -->
<svg xmlns:sodipodi="http://sodipodi.sourceforge.net/DTD/sodipodi-0.dtd" xmlns="http://www.w3.org/2000/svg" version="1.1" width="652.0" height="750.0">
  <defs/>
  <g id="id0:id0" transform="matrix(1.25,0,0,1.25,0.0,0.0)"><g transform="translate(0.000000,600.000000) scale(0.040000,-0.040000)" fill="#ff3333" stroke="none">
<path d="M6120 14968 c-80 -4 -161 -10 -180 -13 -41 -7 -78 -11 -180 -19 -41 -4 -97 -11 -125 -16 -27 -5 -102 -16 -165 -25 -63 -9 -140 -22 -170 -30 -30 -7 -75 -16 -99 -19 -142 -21 -625 -152 -796 -216 -27 -10 -68 -23 -90 -30 -22 -6 -49 -15 -60 -20 -11 -5 -45 -19 -75 -30 -121 -48 -350 -144 -430 -182 -614 -289 -1147 -648 -1663 -1118 -216 -197 -391 -383 -654 -697 -159 -190 -446 -610 -578 -848 -43 -77 -88 -156 -99 -175 -61 -99 -217 -438 -319 -690 -99 -248 -241 -712 -288 -940 -6 -30 -15 -73 -20 -95 -30 -129 -92 -524 -104 -660 -4 -44 -12 -85 -17 -92 -6 -7 -5 -14 2 -18 13 -8 13 -62 0 -70 -6 -4 -10 -183 -10 -505 0 -322 4 -501 10 -505 13 -8 13 -62 0 -70 -7 -4 -8 -11 -2 -18 6 -7 15 -64 21 -127 16 -163 74 -522 105 -655 139 -580 228 -850 437 -1315 155 -347 307 -617 537 -959 222 -330 441 -597 777 -950 66 -70 444 -468 840 -886 396 -418 810 -855 920 -970 199 -209 801 -844 1363 -1440 328 -346 362 -380 445 -437 67 -46 203 -98 257 -98 20 0 45 -7 56 -15 21 -16 99 -20 108 -6 3 5 31 12 61 16 70 8 184 48 238 82 136 85 205 160 272 293 70 137 68 121 74 870 l6 675 130 1 c180 2 381 13 473 25 42 6 102 13 133 15 31 2 85 9 120 14 35 5 111 16 169 25 57 8 118 19 135 24 16 5 53 12 80 16 49 6 116 21 325 71 103 25 134 33 275 76 876 262 1672 695 2375 1291 280 237 677 650 875 908 201 262 397 547 521 759 71 121 306 578 319 620 4 14 20 52 35 85 138 299 309 828 385 1190 14 66 30 143 35 170 6 28 17 94 25 148 8 53 16 101 18 105 4 6 16 101 33 262 2 19 8 71 13 115 6 44 10 153 10 243 1 135 4 164 16 168 13 5 15 35 15 184 0 149 -2 179 -15 184 -12 4 -15 33 -16 163 0 87 -5 196 -10 243 -5 47 -11 101 -13 120 -20 184 -29 256 -33 262 -2 4 -13 63 -23 130 -92 589 -290 1194 -588 1798 -199 404 -393 712 -712 1130 -112 147 -334 395 -519 581 -332 332 -626 571 -1026 836 -112 75 -352 223 -360 223 -2 0 -36 18 -75 41 -145 82 -525 265 -630 304 -25 9 -52 20 -62 25 -9 5 -54 23 -100 40 -45 17 -94 36 -108 42 -26 11 -282 95 -385 127 -91 28 -160 47 -275 75 -203 49 -275 65 -325 71 -27 4 -64 11 -80 16 -17 5 -76 16 -130 24 -55 8 -127 19 -160 24 -33 5 -89 12 -125 16 -36 3 -128 12 -206 20 -160 16 -724 24 -944 13z m-1293 -2880 c32 -12 77 -34 100 -50 62 -42 140 -135 166 -198 l22 -55 0 -3330 0 -3330 -28 -58 c-44 -89 -123 -168 -214 -213 l-78 -39 -115 0 -115 0 -78 39 c-95 48 -185 139 -219 225 l-23 56 0 3325 0 3325 22 55 c26 63 106 159 167 198 79 52 144 71 243 71 71 1 104 -4 150 -21z m3694 -931 c115 -56 205 -164 243 -291 l21 -71 0 -2335 0 -2335 -21 -71 c-38 -127 -127 -233 -244 -291 -73 -36 -238 -45 -322 -18 -116 38 -211 123 -269 240 l-34 70 0 2405 0 2405 32 67 c35 74 106 157 167 196 79 50 131 62 256 59 102 -3 122 -6 171 -30z m-1826 -917 c31 -13 76 -49 125 -98 65 -66 80 -88 103 -150 l27 -73 0 -1459 0 -1459 -27 -73 c-23 -62 -38 -84 -102 -149 -88 -87 -144 -117 -249 -132 -148 -22 -289 27 -388 136 -68 75 -97 136 -118 246 -14 73 -16 242 -16 1426 0 1460 0 1452 55 1570 34 70 97 140 169 187 124 80 276 90 421 28z m-3729 26 c118 -31 236 -130 288 -240 57 -120 56 -99 56 -1566 0 -1458 0 -1449 -53 -1560 -26 -55 -100 -148 -136 -173 -35 -24 -99 -58 -120 -63 -9 -2 -36 -8 -61 -15 -61 -15 -186 -4 -255 23 -61 23 -171 117 -209 177 -13 20 -33 62 -44 94 l-22 58 0 1455 0 1455 20 60 c28 82 56 124 130 193 65 59 123 91 195 106 63 13 156 11 211 -4z m7322 -920 c93 -25 202 -111 259 -206 52 -86 53 -104 53 -680 0 -463 -2 -543 -16 -590 -39 -134 -147 -243 -286 -290 -87 -29 -222 -25 -310 10 -108 43 -224 171 -254 282 -20 75 -20 1084 0 1170 31 132 155 258 301 304 54 17 188 17 253 0z"/>
</g>
</g>
</svg>
