<?xml version="1.0" standalone="no"?>
<!DOCTYPE svg PUBLIC "-//W3C//DTD SVG 1.1//EN"
 "http://www.w3.org/Graphics/SVG/1.1/DTD/svg11.dtd">
<!-- Created with svg_stack (http://github.com/astraw/svg_stack) -->
<svg xmlns:sodipodi="http://sodipodi.sourceforge.net/DTD/sodipodi-0.dtd" xmlns="http://www.w3.org/2000/svg" version="1.1" width="1561.0" height="255.0">
  <defs/>
  <g id="id0:id0" transform="matrix(1.25,0,0,1.25,0.0,0.0)"><g transform="translate(0.000000,204.000000) scale(0.040000,-0.040000)" fill="#9b9b9a" stroke="none">
<path d="M16890 3241 c0 -5 9 -11 21 -14 16 -4 18 -3 8 9 -13 16 -29 19 -29 5z"/>
<path d="M12900 3165 c-16 -20 -5 -32 14 -16 11 10 16 8 25 -6 8 -14 12 -15 22 -6 10 10 9 15 -1 28 -16 19 -44 19 -60 0z"/>
<path d="M17060 3165 c-7 -9 -10 -18 -7 -22 8 -7 37 15 37 28 0 14 -16 11 -30 -6z"/>
<path d="M16940 3130 c0 -18 4 -20 23 -14 12 3 24 8 26 10 6 6 -1 11 -26 18 -19 6 -23 4 -23 -14z"/>
<path d="M17017 3123 c-10 -10 -8 -25 2 -19 5 3 22 -10 38 -31 32 -39 53 -39 45 2 -2 15 -11 25 -22 25 -10 0 -23 7 -30 15 -14 16 -23 19 -33 8z"/>
<path d="M12850 3111 c0 -7 4 -10 9 -6 19 11 20 -13 1 -30 -14 -13 -17 -22 -9 -31 7 -8 7 -14 -1 -19 -13 -8 -30 3 -30 21 0 8 -4 14 -10 14 -5 0 -10 -10 -10 -23 0 -13 -5 -28 -12 -35 -8 -8 -8 -15 0 -25 14 -16 6 -28 -13 -21 -24 10 -33 -29 -46 -187 -21 -260 12 -546 95 -820 24 -78 41 -118 55 -128 12 -7 21 -23 21 -35 0 -21 9 -29 79 -68 27 -15 39 -18 52 -9 13 7 20 7 28 -3 16 -19 -3 -68 -23 -60 -21 8 -31 -16 -12 -34 14 -14 17 -14 36 3 11 10 20 27 20 37 0 11 9 22 20 25 24 6 26 19 4 27 -15 6 -15 8 -2 24 21 23 31 59 19 67 -17 10 -43 73 -36 85 4 6 -5 43 -19 83 -73 211 -111 472 -103 712 3 75 8 139 11 142 12 13 6 25 -7 14 -25 -20 -46 18 -49 86 -2 50 -6 63 -20 66 -10 3 -18 14 -18 24 0 10 -5 24 -10 29 -8 8 -6 15 4 23 12 10 21 8 45 -10 26 -19 33 -20 46 -9 15 13 15 15 -4 22 -12 4 -21 14 -21 22 0 7 -10 16 -22 19 -13 3 -33 9 -45 12 -15 5 -23 3 -23 -4z"/>
<path d="M16920 3070 c0 -5 5 -10 10 -10 6 0 10 5 10 10 0 6 -4 10 -10 10 -5 0 -10 -4 -10 -10z"/>
<path d="M17009 3047 c14 -17 4 -27 -26 -27 -27 0 -27 1 -7 -39 15 -30 15 -34 0 -50 -9 -10 -16 -26 -16 -37 0 -11 -5 -25 -10 -30 -7 -7 -7 -51 0 -135 19 -226 -16 -512 -90 -742 -17 -53 -28 -102 -25 -108 7 -11 -40 -114 -56 -124 -6 -4 -5 -13 0 -24 6 -10 8 -26 6 -37 -12 -62 -13 -95 -2 -91 6 2 14 14 17 28 3 13 12 24 20 24 21 0 24 -39 5 -55 -19 -16 -20 -31 0 -24 8 4 22 3 31 0 15 -6 14 -10 -7 -34 -21 -23 -21 -24 -2 -8 12 10 27 15 32 11 17 -10 13 31 -4 45 -16 13 -12 24 8 26 7 0 20 2 30 2 13 2 17 7 12 21 -4 14 3 25 25 41 32 23 39 40 16 40 -21 0 -30 20 -17 33 6 6 11 26 11 43 0 39 12 49 40 32 32 -21 70 9 93 74 33 95 75 271 91 380 34 230 29 596 -8 637 -9 10 -16 35 -16 60 0 35 -3 42 -16 37 -8 -3 -24 -2 -34 4 -13 7 -21 6 -30 -5 -7 -8 -18 -15 -25 -15 -7 0 -18 -7 -25 -15 -7 -8 -17 -12 -22 -9 -5 3 0 17 13 30 18 19 20 26 9 39 -7 8 -17 15 -22 15 -7 0 -6 -5 1 -13z m-110 -1341 c9 -10 6 -17 -12 -29 -33 -21 -55 -2 -30 25 19 22 27 22 42 4z"/>
<path d="M17120 3050 c0 -5 5 -10 10 -10 6 0 10 5 10 10 0 6 -4 10 -10 10 -5 0 -10 -4 -10 -10z"/>
<path d="M12940 2970 c0 -5 5 -10 10 -10 6 0 10 5 10 10 0 6 -4 10 -10 10 -5 0 -10 -4 -10 -10z"/>
<path d="M15340 1975 c0 -34 344 -395 361 -378 6 6 -1 43 -19 99 -16 49 -37 114 -46 145 -21 69 -40 98 -55 84 -7 -7 0 -41 24 -110 19 -55 39 -108 44 -117 45 -74 -119 76 -243 225 -42 50 -66 69 -66 52z"/>
<path d="M17000 1770 c0 -5 5 -10 10 -10 6 0 10 5 10 10 0 6 -4 10 -10 10 -5 0 -10 -4 -10 -10z"/>
<path d="M13140 1630 c0 -11 5 -20 10 -20 6 0 10 9 10 20 0 11 -4 20 -10 20 -5 0 -10 -9 -10 -20z"/>
<path d="M13075 1557 c-29 -47 -29 -47 -6 -47 14 0 21 6 21 18 0 10 5 23 12 30 8 8 9 15 2 22 -6 6 -16 -3 -29 -23z"/>
<path d="M13160 1535 c-21 -25 -1 -31 23 -7 17 18 18 22 5 22 -8 0 -21 -7 -28 -15z"/>
<path d="M16680 1530 c0 -5 5 -10 10 -10 6 0 10 5 10 10 0 6 -4 10 -10 10 -5 0 -10 -4 -10 -10z"/>
</g>
</g>
  <g id="id1:id1" transform="matrix(1.25,0,0,1.25,0.0,0.0)"><g transform="translate(0.000000,204.000000) scale(0.040000,-0.040000)" fill="#7c7c7b" stroke="none">
<path d="M14730 4845 c-412 -46 -783 -192 -1112 -438 l-68 -51 6 -33 c5 -29 3 -35 -13 -39 -11 -3 -27 -19 -37 -35 -9 -16 -24 -29 -32 -29 -10 0 -13 -10 -11 -34 2 -30 6 -35 34 -41 21 -4 41 0 56 10 13 8 32 13 41 9 9 -3 23 -1 30 5 10 8 16 9 21 1 3 -5 17 -10 31 -10 18 0 24 5 22 18 -2 13 5 18 35 20 29 3 37 7 33 18 -6 15 -1 18 46 28 15 3 34 13 42 22 39 38 297 166 430 213 186 66 324 95 531 112 368 32 787 -60 1114 -244 45 -26 88 -44 95 -41 7 3 19 -2 26 -11 7 -9 28 -15 51 -15 21 0 41 -4 44 -10 3 -5 15 -10 26 -10 11 0 23 -8 26 -17 4 -10 13 -22 20 -26 7 -5 11 -13 7 -18 -11 -19 15 -35 64 -37 59 -2 110 -22 136 -53 13 -16 21 -19 24 -11 2 7 -4 22 -14 33 -15 17 -16 23 -5 41 10 17 10 23 -4 38 -8 9 -13 24 -10 33 4 8 2 18 -4 22 -6 3 -11 14 -11 24 0 53 -58 107 -250 231 -83 54 -301 160 -409 200 -320 117 -681 162 -1011 125z"/>
<path d="M13420 4170 c0 -5 5 -10 10 -10 6 0 10 5 10 10 0 6 -4 10 -10 10 -5 0 -10 -4 -10 -10z"/>
<path d="M16486 4157 c3 -10 9 -15 12 -12 3 3 0 11 -7 18 -10 9 -11 8 -5 -6z"/>
<path d="M16520 4151 c0 -6 4 -13 10 -16 6 -3 7 1 4 9 -7 18 -14 21 -14 7z"/>
<path d="M16455 4040 c-3 -5 1 -10 9 -10 8 0 18 5 21 10 3 6 -1 10 -9 10 -8 0 -18 -4 -21 -10z"/>
<path d="M15320 3555 c0 -8 5 -15 10 -15 6 0 10 7 10 15 0 8 -4 15 -10 15 -5 0 -10 -7 -10 -15z"/>
<path d="M13801 2549 c9 -13 22 -34 30 -46 14 -22 39 -32 39 -14 0 14 -40 60 -63 73 l-21 11 15 -24z"/>
<path d="M15117 2473 c3 -10 19 -35 34 -55 16 -20 29 -41 29 -46 0 -14 29 -36 37 -28 4 3 -3 16 -15 29 -12 13 -22 26 -22 30 0 4 -12 25 -26 47 -27 41 -48 54 -37 23z"/>
<path d="M15220 2311 c0 -13 29 -35 37 -28 7 8 -15 37 -28 37 -5 0 -9 -4 -9 -9z"/>
<path d="M15160 2212 c0 -10 22 -32 32 -32 5 0 3 9 -4 20 -13 20 -28 27 -28 12z"/>
<path d="M15200 2155 c0 -10 45 -75 53 -75 13 0 7 21 -14 51 -18 26 -39 38 -39 24z"/>
<path d="M13900 2050 c0 -5 5 -10 10 -10 6 0 10 5 10 10 0 6 -4 10 -10 10 -5 0 -10 -4 -10 -10z"/>
</g>
</g>
  <g id="id2:id2" transform="matrix(1.25,0,0,1.25,0.0,0.0)"><g transform="translate(0.000000,204.000000) scale(0.040000,-0.040000)" fill="#8c8c8b" stroke="none">
<path d="M13380 3920 c0 -5 5 -10 10 -10 6 0 10 5 10 10 0 6 -4 10 -10 10 -5 0 -10 -4 -10 -10z"/>
<path d="M16584 3921 c8 -12 -19 -33 -29 -23 -5 4 -5 1 -1 -6 5 -7 14 -11 22 -8 7 3 17 0 20 -6 5 -8 10 -5 14 8 4 10 3 25 -2 32 -12 14 -32 17 -24 3z"/>
<path d="M16736 3829 c-14 -11 -31 -17 -37 -14 -5 4 -18 0 -28 -9 -10 -9 -25 -14 -35 -10 -23 9 -21 -24 4 -56 11 -14 20 -37 20 -52 0 -15 5 -30 10 -33 6 -4 8 -10 5 -15 -3 -5 15 -45 40 -90 90 -158 167 -373 206 -577 14 -75 26 -113 35 -113 19 0 27 -19 15 -34 -8 -10 -7 -21 3 -41 8 -15 13 -45 11 -66 -3 -37 6 -51 20 -29 4 6 13 5 25 -2 31 -20 37 2 7 26 -23 19 -25 24 -15 39 12 15 16 16 42 2 33 -17 60 -4 51 25 -3 9 3 24 15 35 25 23 52 74 44 87 -3 5 -1 15 5 22 15 18 -29 226 -83 390 -24 74 -72 193 -107 265 -59 125 -65 133 -106 152 -24 11 -43 26 -43 34 0 10 -11 15 -34 15 -41 0 -56 18 -32 36 10 7 15 17 11 23 -9 16 -19 14 -49 -10z"/>
<path d="M13180 3826 c0 -19 -55 -46 -92 -46 -25 0 -28 -4 -28 -31 0 -25 -5 -32 -30 -41 -24 -8 -39 -26 -65 -78 -82 -163 -149 -353 -191 -540 -25 -112 -25 -122 -10 -139 9 -9 16 -33 16 -51 0 -18 7 -42 16 -52 16 -16 16 -18 0 -24 -24 -9 -19 -24 8 -24 14 0 28 -5 32 -11 9 -16 -38 -51 -50 -38 -17 16 -22 10 -23 -31 -2 -34 1 -40 19 -40 14 0 18 5 15 15 -15 37 31 24 86 -24 20 -19 30 -22 39 -13 12 12 -18 45 -59 62 -27 11 -29 23 -8 40 11 9 21 9 46 -4 34 -17 65 -6 55 20 -3 7 1 26 9 41 8 15 15 38 15 49 0 49 43 237 81 354 23 69 70 185 106 258 48 99 66 148 70 190 3 31 9 62 13 67 5 6 8 27 7 48 -1 30 -4 36 -18 32 -9 -3 -22 1 -29 10 -16 19 -30 19 -30 1z"/>
<path d="M16040 3110 c0 -5 5 -10 10 -10 6 0 10 5 10 10 0 6 -4 10 -10 10 -5 0 -10 -4 -10 -10z"/>
<path d="M17137 2786 c-6 -15 1 -26 15 -26 4 0 8 9 8 20 0 23 -15 27 -23 6z"/>
<path d="M17125 2730 c-10 -16 4 -30 31 -30 28 0 31 8 7 26 -22 16 -30 17 -38 4z"/>
<path d="M17080 2710 c0 -5 5 -10 10 -10 6 0 10 5 10 10 0 6 -4 10 -10 10 -5 0 -10 -4 -10 -10z"/>
<path d="M17090 2652 c0 -5 6 -17 14 -27 13 -18 16 -19 33 -4 10 9 24 14 31 12 15 -6 16 13 2 22 -6 4 -18 1 -26 -6 -11 -9 -18 -9 -26 -1 -14 14 -28 16 -28 4z"/>
<path d="M12767 2593 c-9 -2 -15 -9 -12 -14 9 -14 22 -11 29 6 3 8 4 14 3 14 -1 -1 -10 -3 -20 -6z"/>
<path d="M12830 2570 c0 -11 5 -20 10 -20 6 0 10 9 10 20 0 11 -4 20 -10 20 -5 0 -10 -9 -10 -20z"/>
<path d="M16990 2570 c0 -11 5 -20 10 -20 6 0 10 9 10 20 0 11 -4 20 -10 20 -5 0 -10 -9 -10 -20z"/>
<path d="M15280 2049 c0 -15 39 -69 51 -69 16 0 9 24 -16 53 -26 29 -35 33 -35 16z"/>
</g>
</g>
  <g id="id3:id3" transform="matrix(1.25,0,0,1.25,0.0,0.0)"><g transform="translate(0.000000,204.000000) scale(0.040000,-0.040000)" fill="#b6b6b4" stroke="none">
<path d="M15340 3511 c0 -6 5 -13 10 -16 6 -3 10 -39 10 -80 l0 -73 -117 -184 c-141 -220 -131 -204 -189 -300 -26 -43 -52 -82 -59 -88 -9 -7 -38 6 -106 50 -52 33 -128 80 -169 106 -41 25 -113 70 -160 99 -130 82 -268 165 -274 165 -3 0 -6 -7 -6 -15 0 -9 50 -48 113 -89 220 -144 612 -389 627 -393 9 -2 22 8 31 24 9 15 75 126 148 246 199 330 204 340 198 395 -6 58 -15 98 -30 135 -12 26 -27 37 -27 18z"/>
<path d="M16067 3011 c4 -61 2 -105 -7 -136 -11 -40 -11 -48 3 -62 25 -25 42 -9 56 50 11 43 11 65 2 108 -14 60 -42 129 -53 129 -4 0 -5 -40 -1 -89z"/>
<path d="M15150 2654 c0 -12 54 -50 350 -248 168 -111 331 -215 363 -230 69 -32 164 -43 226 -26 55 14 135 88 162 148 11 24 24 68 29 98 10 58 3 151 -11 160 -5 3 -9 14 -9 25 0 10 -4 19 -10 19 -13 0 -12 -6 1 -53 18 -67 -23 -197 -85 -265 -11 -13 -43 -35 -70 -49 -43 -22 -59 -24 -125 -21 -94 4 -148 28 -310 135 -250 166 -485 313 -497 313 -8 0 -14 -3 -14 -6z"/>
<path d="M13385 1200 c-3 -5 1 -10 9 -10 9 0 16 5 16 10 0 6 -4 10 -9 10 -6 0 -13 -4 -16 -10z"/>
<path d="M16585 1200 c-3 -5 1 -10 9 -10 9 0 16 5 16 10 0 6 -4 10 -9 10 -6 0 -13 -4 -16 -10z"/>
<path d="M13330 1155 c0 -2 17 -29 38 -59 28 -39 42 -52 50 -44 7 7 17 -4 33 -38 22 -48 25 -55 28 -72 0 -5 40 -40 89 -79 301 -244 668 -403 1077 -469 168 -28 496 -25 675 5 379 64 713 209 1015 442 130 100 152 123 135 144 -11 13 -9 20 10 40 15 16 30 23 42 19 14 -4 18 0 18 21 0 18 6 29 20 32 26 7 26 19 0 26 -13 3 -18 10 -14 21 7 18 -11 22 -21 5 -12 -18 -56 -30 -70 -19 -10 8 -20 8 -34 1 -12 -6 -31 -16 -42 -22 -15 -8 -24 -8 -32 0 -16 16 -27 14 -27 -5 0 -9 -9 -18 -20 -21 -11 -3 -20 -11 -20 -17 0 -21 -46 -57 -63 -50 -10 3 -21 -4 -33 -20 -11 -18 -20 -23 -28 -17 -8 7 -22 4 -41 -10 -394 -267 -860 -397 -1295 -360 -348 29 -666 134 -938 311 -74 48 -97 58 -111 50 -14 -7 -23 -5 -35 9 -9 9 -16 23 -16 29 0 7 -12 12 -28 12 -15 0 -43 12 -62 28 -31 24 -56 38 -158 85 -18 9 -30 7 -54 -8 l-31 -18 -22 26 c-19 24 -35 35 -35 22z"/>
</g>
</g>
  <g id="id4:id4" transform="matrix(1.25,0,0,1.25,0.0,0.0)"><g transform="translate(0.000000,204.000000) scale(0.040000,-0.040000)" fill="#ababa9" stroke="none">
<path d="M12848 2155 c3 -20 7 -23 18 -14 11 9 11 15 3 25 -18 21 -27 17 -21 -11z"/>
<path d="M17008 2155 c3 -20 7 -23 18 -14 11 9 11 15 3 25 -18 21 -27 17 -21 -11z"/>
<path d="M16940 2105 c-17 -20 -5 -32 15 -15 13 11 20 9 40 -10 17 -16 22 -27 15 -34 -15 -15 -12 -29 5 -22 9 3 18 0 21 -8 3 -7 18 -13 34 -13 33 0 37 6 18 25 -10 10 -10 17 -1 31 11 17 8 21 -22 35 -18 9 -40 13 -48 10 -8 -3 -18 -1 -22 5 -9 16 -41 13 -55 -4z"/>
<path d="M12820 2101 c0 -4 9 -16 20 -26 14 -13 17 -22 10 -29 -13 -13 -13 -46 0 -46 6 0 10 7 10 15 0 9 7 18 16 22 8 3 13 12 10 20 -8 19 21 28 39 13 14 -12 13 -16 -6 -36 -26 -28 -18 -45 9 -20 11 9 26 14 36 10 29 -11 17 12 -24 45 -38 30 -120 52 -120 32z"/>
<path d="M15260 2070 c0 -5 5 -10 10 -10 6 0 10 5 10 10 0 6 -4 10 -10 10 -5 0 -10 -4 -10 -10z"/>
<path d="M13000 2050 c0 -5 5 -10 10 -10 6 0 10 5 10 10 0 6 -4 10 -10 10 -5 0 -10 -4 -10 -10z"/>
<path d="M16900 2032 c0 -14 23 -32 42 -32 21 0 23 11 6 28 -13 13 -48 16 -48 4z"/>
<path d="M12928 1964 c-12 -13 -20 -14 -36 -5 -16 8 -23 8 -29 -1 -9 -17 -4 -69 9 -85 6 -7 8 -25 5 -39 -5 -29 46 -158 114 -282 97 -181 244 -377 395 -529 63 -63 77 -72 120 -79 27 -4 64 -15 82 -25 18 -11 40 -19 48 -19 9 0 18 -8 21 -19 5 -19 45 -24 71 -7 7 4 19 3 28 -5 18 -15 29 -5 19 18 -11 24 -13 63 -3 69 18 12 4 32 -55 79 -223 177 -428 432 -550 685 -30 63 -58 125 -62 138 -3 12 -12 22 -19 22 -19 0 -46 34 -46 58 0 26 -17 28 -56 8 -30 -16 -53 -11 -35 7 6 6 11 15 11 19 0 13 -14 9 -32 -8z"/>
<path d="M16870 1965 c-10 -13 -10 -19 4 -34 16 -17 15 -19 -6 -33 -13 -8 -30 -17 -38 -20 -8 -3 -24 -29 -34 -57 -23 -65 -125 -256 -178 -334 -107 -157 -246 -310 -393 -432 -38 -32 -73 -67 -77 -77 -4 -10 -12 -18 -18 -18 -23 0 -8 -19 18 -22 23 -3 27 -8 27 -33 0 -23 -4 -29 -17 -27 -24 4 -22 -6 4 -28 l23 -18 -19 -21 c-27 -30 -11 -39 19 -11 20 19 27 21 40 10 22 -18 31 -4 12 18 -22 24 -4 43 34 35 24 -5 28 -2 31 23 2 22 9 30 28 32 14 2 29 8 34 13 6 5 20 9 32 9 13 0 24 8 27 21 5 17 11 19 40 14 l34 -7 92 100 c175 190 294 362 399 581 48 99 67 150 70 189 3 29 8 55 13 58 5 3 9 16 9 29 0 13 5 27 10 30 23 14 7 21 -49 20 -41 0 -65 -5 -78 -17 -10 -10 -30 -19 -44 -20 -20 -3 -24 1 -22 20 3 25 -9 29 -27 7z"/>
<path d="M13844 887 c-20 -10 -49 -45 -42 -52 9 -9 57 9 62 23 3 10 9 23 12 30 7 14 -2 14 -32 -1z"/>
<path d="M16060 880 c0 -13 7 -20 20 -20 13 0 20 7 20 20 0 13 -7 20 -20 20 -13 0 -20 -7 -20 -20z"/>
<path d="M15983 863 c-23 -15 -32 -53 -14 -53 9 0 51 52 51 64 0 10 -14 6 -37 -11z"/>
<path d="M13724 829 c-9 -15 5 -25 44 -32 41 -8 41 7 0 27 -37 19 -35 19 -44 5z"/>
<path d="M13913 803 c-12 -25 -7 -28 30 -14 36 14 41 38 8 38 -19 0 -31 -8 -38 -24z"/>
<path d="M16010 811 c0 -13 29 -35 37 -28 7 8 -15 37 -28 37 -5 0 -9 -4 -9 -9z"/>
</g>
</g>
  <g id="id5:id5" transform="matrix(1.25,0,0,1.25,0.0,0.0)"><g transform="translate(0.000000,204.000000) scale(0.040000,-0.040000)" fill="#848484" stroke="none">
<path d="M14020 4488 c0 -8 9 -23 20 -33 16 -15 20 -15 20 -3 0 8 -9 23 -20 33 -16 15 -20 15 -20 3z"/>
<path d="M14150 4485 c-7 -9 -10 -18 -7 -22 8 -7 37 15 37 28 0 14 -16 11 -30 -6z"/>
<path d="M15750 4484 c-11 -12 -10 -18 3 -32 16 -15 18 -15 34 0 13 14 14 20 3 32 -7 9 -16 16 -20 16 -4 0 -13 -7 -20 -16z"/>
<path d="M15860 4492 c0 -5 18 -23 39 -40 36 -29 39 -30 44 -12 3 13 11 18 20 14 22 -8 32 15 14 34 -13 13 -19 13 -32 2 -12 -10 -19 -10 -27 -2 -14 14 -58 16 -58 4z"/>
<path d="M13753 4463 c9 -9 19 -14 23 -11 10 10 -6 28 -24 28 -15 0 -15 -1 1 -17z"/>
<path d="M13820 4457 c0 -14 5 -29 10 -32 8 -5 7 -12 -1 -22 -11 -13 -15 -13 -27 4 -12 17 -15 16 -41 -16 -18 -22 -30 -30 -35 -23 -9 15 -70 15 -99 0 -48 -25 -57 -28 -78 -28 -24 0 -219 -186 -314 -300 -67 -81 -182 -245 -210 -299 -19 -37 -9 -53 30 -48 12 1 20 -4 20 -13 0 -8 -11 -16 -25 -18 -32 -4 -61 -42 -53 -71 6 -25 16 -27 33 -6 12 14 15 14 34 -3 22 -20 96 -37 96 -22 0 5 -5 12 -10 15 -6 4 -8 11 -4 16 4 6 11 6 20 -1 22 -19 66 20 128 114 104 156 252 319 403 445 29 24 51 48 50 54 -1 6 5 12 13 13 8 0 21 2 28 2 6 1 12 8 12 15 0 20 33 47 58 47 16 0 22 6 22 23 0 13 9 32 20 42 22 20 26 45 8 63 -16 16 9 44 33 37 23 -8 25 8 4 25 -12 10 -18 8 -35 -11 l-20 -24 -6 23 c-5 18 -9 20 -20 11 -11 -9 -18 -8 -29 1 -13 11 -15 8 -15 -13z"/>
<path d="M16069 4466 c9 -11 1 -24 -40 -64 l-51 -50 21 -21 c12 -12 21 -25 21 -29 0 -5 38 -34 85 -66 183 -126 372 -317 497 -502 52 -77 68 -93 89 -94 30 0 72 -41 64 -62 -9 -24 19 -42 43 -27 16 10 26 10 47 1 19 -9 31 -9 40 -2 7 6 23 9 36 8 21 -3 24 1 21 27 -2 17 -13 40 -24 52 -16 18 -19 30 -15 60 8 44 -20 95 -133 248 -191 257 -384 428 -485 430 -16 0 -36 4 -43 9 -7 4 -18 3 -25 -2 -13 -11 -51 0 -62 18 -4 6 0 19 9 29 9 10 16 26 16 36 0 17 -2 16 -24 -4 l-25 -23 -29 21 c-34 24 -50 27 -33 7z"/>
<path d="M15940 4370 c0 -5 5 -10 10 -10 6 0 10 5 10 10 0 6 -4 10 -10 10 -5 0 -10 -4 -10 -10z"/>
<path d="M16220 2630 c0 -5 5 -10 10 -10 6 0 10 5 10 10 0 6 -4 10 -10 10 -5 0 -10 -4 -10 -10z"/>
</g>
</g>
  <g id="id6:id6" transform="matrix(1.25,0,0,1.25,0.0,0.0)"><g transform="translate(0.000000,204.000000) scale(0.040000,-0.040000)" fill="#4f8a48" stroke="none">
<path d="M14834 3772 c-28 -10 -70 -33 -92 -51 l-42 -32 -76 25 c-138 47 -262 30 -357 -47 -28 -24 -65 -64 -80 -89 -25 -41 -29 -55 -29 -128 0 -75 4 -90 36 -155 38 -77 120 -177 141 -173 7 2 22 -8 33 -22 16 -20 22 -22 34 -12 17 13 29 6 22 -12 -8 -20 23 -41 39 -27 16 13 28 5 20 -15 -6 -16 13 -19 22 -3 10 15 45 -19 38 -37 -6 -17 9 -18 25 -2 16 16 44 -9 37 -33 -7 -20 9 -26 20 -9 9 14 25 2 19 -14 -3 -7 2 -16 10 -19 9 -4 15 -3 15 1 -3 21 3 23 20 8 11 -10 17 -24 14 -32 -6 -17 9 -18 25 -2 16 16 44 -9 37 -33 -7 -20 9 -26 20 -9 9 14 25 2 19 -14 -8 -20 23 -41 39 -27 16 13 28 5 20 -15 -6 -16 13 -19 22 -4 11 18 47 -9 40 -31 -7 -21 5 -25 23 -7 8 8 15 8 27 -2 9 -8 19 -9 24 -4 4 5 57 88 117 184 132 212 173 272 185 265 9 -6 3 -26 -23 -74 -11 -18 -16 -36 -13 -39 6 -6 27 20 47 58 7 14 20 36 29 50 51 76 59 100 59 175 0 42 -4 83 -9 93 -4 9 -20 42 -34 73 -86 190 -337 305 -523 241z"/>
<path d="M15557 3336 c-38 -13 -79 -34 -92 -47 -21 -22 -350 -544 -361 -574 -3 -7 3 -21 14 -31 10 -11 22 -27 25 -37 4 -9 17 -21 30 -26 12 -5 29 -16 36 -25 7 -9 19 -16 26 -16 6 0 20 -9 30 -20 10 -12 24 -19 32 -16 7 3 21 -6 32 -20 12 -15 25 -22 35 -18 21 8 47 -13 39 -32 -6 -16 13 -19 22 -3 10 15 45 -19 38 -37 -6 -16 13 -19 22 -3 10 15 45 -19 38 -37 -6 -16 13 -19 22 -4 11 18 47 -9 40 -31 -7 -21 5 -25 23 -7 16 16 44 -9 37 -33 -7 -20 9 -26 20 -8 11 16 28 5 32 -21 5 -31 10 -35 26 -22 16 13 28 6 21 -12 -8 -20 23 -41 39 -27 16 13 28 5 20 -15 -3 -8 -1 -14 5 -14 5 0 13 7 16 16 8 22 28 6 21 -17 -8 -23 3 -25 20 -3 9 13 16 14 33 5 11 -6 51 -11 89 -11 68 0 107 15 190 76 27 20 36 5 17 -31 -8 -15 -12 -30 -9 -33 3 -3 6 -3 8 -1 1 2 17 23 35 46 17 23 32 49 32 57 0 8 5 18 10 21 6 3 10 19 10 35 0 16 5 32 10 35 6 3 10 27 10 52 0 98 -61 222 -153 315 -26 26 -43 49 -37 53 13 8 13 55 0 55 -5 0 -10 -9 -10 -19 0 -22 -15 -35 -29 -26 -6 3 -4 19 5 40 8 19 14 46 14 60 0 14 7 28 15 31 20 8 20 60 -1 68 -8 3 -13 10 -10 15 11 17 -48 113 -107 174 -132 136 -274 177 -430 123z"/>
<path d="M13999 3161 c-59 -12 -150 -61 -194 -106 -23 -23 -57 -72 -76 -110 -29 -60 -34 -79 -34 -145 0 -65 5 -85 33 -142 18 -36 53 -91 77 -121 l45 -54 -15 -37 c-43 -104 -39 -203 15 -311 39 -79 116 -179 161 -209 61 -42 109 -66 129 -66 10 0 22 -4 25 -10 7 -11 205 -14 205 -3 0 3 -8 15 -17 25 -16 18 -16 19 8 25 13 4 51 21 84 38 50 26 69 45 113 108 29 43 57 75 62 72 10 -6 -70 -143 -102 -172 -29 -27 -94 -63 -113 -63 -8 0 -15 -4 -15 -10 0 -30 101 13 155 66 17 17 39 47 48 66 9 19 23 41 32 48 8 7 15 17 15 22 0 5 23 42 50 83 28 41 50 76 50 79 0 2 23 39 50 80 28 42 50 78 50 80 0 3 18 32 40 64 22 33 47 76 56 94 15 32 15 36 -3 66 -11 18 -44 49 -74 70 -30 21 -190 133 -355 250 -219 153 -314 214 -345 221 -49 12 -106 12 -160 2z m185 -1292 c-3 -5 -10 -7 -15 -3 -5 3 -7 10 -3 15 3 5 10 7 15 3 5 -3 7 -10 3 -15z m141 12 c3 -5 1 -13 -5 -16 -15 -9 -43 3 -35 15 8 13 32 13 40 1z"/>
<path d="M15230 3045 c-7 -9 -10 -18 -7 -22 8 -7 37 15 37 28 0 14 -16 11 -30 -6z"/>
<path d="M15200 2990 c0 -5 5 -10 10 -10 6 0 10 5 10 10 0 6 -4 10 -10 10 -5 0 -10 -4 -10 -10z"/>
<path d="M15170 2945 c-7 -9 -10 -18 -7 -22 8 -7 37 15 37 28 0 14 -16 11 -30 -6z"/>
<path d="M15140 2890 c0 -5 5 -10 10 -10 6 0 10 5 10 10 0 6 -4 10 -10 10 -5 0 -10 -4 -10 -10z"/>
<path d="M15100 2830 c0 -5 5 -10 10 -10 6 0 10 5 10 10 0 6 -4 10 -10 10 -5 0 -10 -4 -10 -10z"/>
<path d="M15080 2790 c0 -5 5 -10 10 -10 6 0 10 5 10 10 0 6 -4 10 -10 10 -5 0 -10 -4 -10 -10z"/>
<path d="M15040 2730 c0 -5 5 -10 10 -10 6 0 10 5 10 10 0 6 -4 10 -10 10 -5 0 -10 -4 -10 -10z"/>
<path d="M14980 2710 c0 -5 5 -10 10 -10 6 0 10 5 10 10 0 6 -4 10 -10 10 -5 0 -10 -4 -10 -10z"/>
<path d="M15016 2543 c-25 -7 -17 -43 34 -146 62 -128 225 -369 272 -405 9 -7 27 -30 39 -51 12 -21 42 -56 66 -76 25 -21 60 -61 78 -89 37 -58 178 -196 200 -196 17 0 20 16 5 25 -5 3 -10 17 -10 29 0 13 -7 29 -15 36 -9 7 -13 21 -9 35 4 15 0 24 -11 28 -11 5 -14 14 -10 30 5 17 2 26 -10 30 -11 5 -14 14 -10 30 5 17 2 26 -10 31 -12 4 -15 13 -12 27 8 30 -25 74 -108 147 -120 104 -203 204 -331 395 -89 134 -93 137 -158 120z"/>
<path d="M16136 2184 c-11 -7 -16 -17 -13 -21 4 -4 15 1 24 10 22 21 14 30 -11 11z"/>
<path d="M15880 2170 c0 -5 5 -10 10 -10 6 0 10 5 10 10 0 6 -4 10 -10 10 -5 0 -10 -4 -10 -10z"/>
<path d="M15940 2150 c0 -5 11 -10 25 -10 14 0 25 5 25 10 0 6 -11 10 -25 10 -14 0 -25 -4 -25 -10z"/>
<path d="M16040 2150 c0 -5 11 -10 25 -10 14 0 25 5 25 10 0 6 -11 10 -25 10 -14 0 -25 -4 -25 -10z"/>
</g>
</g>
  <g id="id7:id7" transform="matrix(1.25,0,0,1.25,0.0,0.0)"><g transform="translate(0.000000,204.000000) scale(0.040000,-0.040000)" fill="#fffffd" stroke="none">
<path d="M309 4653 c-5 -14 -8 -74 -7 -132 l3 -106 5975 0 5975 0 3 110 c2 61 0 120 -3 133 l-5 22 -5965 0 -5965 0 -11 -27z"/>
<path d="M17596 4553 c-3 -69 -3 -130 2 -135 4 -4 3016 -7 6693 -6 l6684 3 3 100 c2 55 0 115 -3 133 l-6 32 -6683 0 -6683 0 -7 -127z"/>
<path d="M14816 4609 c-703 -48 -1343 -476 -1655 -1105 -153 -309 -212 -555 -212 -889 -1 -356 58 -614 207 -908 24 -48 44 -96 44 -107 0 -11 4 -20 10 -20 5 0 36 -40 69 -88 273 -407 639 -677 1116 -826 294 -91 697 -103 1015 -30 281 65 604 224 828 408 85 69 232 220 303 311 103 131 226 337 269 452 12 32 25 62 29 68 14 18 72 211 91 307 51 244 53 590 5 816 -60 288 -184 566 -358 802 -83 112 -291 323 -397 402 -262 195 -519 310 -825 372 -174 35 -360 48 -539 35z m407 -164 c563 -85 1037 -400 1329 -885 161 -268 243 -550 255 -875 17 -474 -129 -902 -432 -1265 -477 -572 -1281 -798 -1995 -561 -1068 356 -1573 1566 -1075 2576 130 264 344 515 585 688 172 122 425 237 645 292 181 45 493 59 688 30z"/>
<path d="M14888 2582 c-14 -15 -65 -88 -112 -162 -244 -385 -272 -424 -311 -451 -95 -65 -238 -85 -345 -49 -36 12 -83 34 -105 49 -68 46 -68 46 -56 24 18 -35 83 -85 151 -117 57 -26 76 -30 155 -30 100 -1 162 16 236 63 37 23 64 59 159 212 63 101 117 188 119 194 2 5 12 21 21 35 10 14 27 42 39 63 11 20 31 54 42 75 12 20 28 46 35 57 16 22 18 51 6 59 -5 3 -20 -7 -34 -22z"/>
<path d="M9910 3673 c-25 -1 -126 -10 -225 -18 -263 -23 -693 -33 -1059 -24 -177 5 -377 10 -446 11 l-124 3 -18 -36 c-15 -33 -84 -277 -95 -340 -7 -37 11 -40 103 -18 185 44 581 71 616 41 8 -7 18 -34 22 -60 40 -284 61 -635 52 -887 -3 -93 -11 -310 -17 -482 -6 -172 -9 -322 -6 -335 l6 -24 279 -2 c214 -1 282 1 289 11 7 8 5 50 -3 122 -39 334 -44 1025 -10 1400 22 240 23 244 54 257 17 7 135 10 322 10 162 -1 303 1 312 4 23 7 34 53 49 207 16 159 10 168 -101 160z"/>
<path d="M28875 3674 c-165 -26 -312 -94 -409 -190 -135 -134 -217 -312 -224 -491 -5 -130 17 -213 83 -302 52 -71 104 -111 200 -156 130 -61 189 -68 580 -70 193 -1 359 -5 370 -10 86 -35 124 -103 125 -221 0 -164 -78 -317 -219 -427 -122 -96 -250 -138 -360 -118 -205 38 -283 169 -215 363 46 132 53 157 44 163 -5 3 -72 -3 -147 -14 -76 -11 -194 -25 -263 -32 -69 -6 -133 -16 -143 -21 -28 -14 -68 -106 -83 -191 -30 -174 30 -337 154 -415 87 -55 140 -66 312 -66 85 0 227 0 315 0 458 -1 498 3 647 57 97 35 168 81 264 170 177 165 264 364 264 599 -1 186 -43 303 -149 408 -131 130 -238 158 -501 130 -416 -45 -578 -27 -680 75 l-45 45 0 83 c0 102 22 154 96 232 59 63 121 101 229 141 63 23 91 27 180 28 94 1 110 -2 150 -24 24 -14 55 -40 67 -59 21 -31 23 -46 23 -153 0 -96 3 -120 15 -124 8 -4 63 4 122 16 92 18 134 21 280 18 94 -2 175 0 179 5 4 4 10 45 12 91 9 168 -75 339 -198 401 -90 45 -120 49 -415 50 -154 1 -359 4 -455 7 -96 4 -188 4 -205 2z"/>
<path d="M6961 3655 c-128 -24 -393 -34 -748 -28 -308 6 -343 4 -349 -10 -3 -9 10 -48 30 -89 59 -120 64 -167 77 -767 15 -661 3 -915 -57 -1170 -12 -52 -12 -66 -2 -73 7 -4 142 -8 299 -8 221 0 288 3 292 13 2 6 0 41 -4 77 -30 236 -41 380 -42 568 l-2 214 24 19 c44 36 163 17 266 -41 101 -58 238 -230 351 -440 31 -58 73 -134 92 -170 47 -86 128 -170 199 -206 l58 -29 235 1 c199 1 246 5 305 21 102 28 99 44 -17 112 -51 30 -114 70 -141 89 -62 44 -149 162 -275 371 -119 196 -173 272 -254 357 l-58 61 23 19 c12 11 57 46 100 78 200 150 305 319 315 509 8 154 -27 267 -114 370 -63 74 -117 100 -269 131 -159 32 -244 38 -334 21z m-10 -247 c153 -70 215 -209 175 -390 -33 -149 -94 -238 -216 -317 -94 -61 -185 -85 -317 -86 -64 0 -116 4 -122 10 -17 17 -19 459 -2 525 32 126 114 230 213 269 75 30 191 25 269 -11z"/>
<path d="M21649 3656 c-11 -11 -209 -36 -371 -48 -179 -12 -536 -2 -788 22 -124 12 -207 12 -215 0 -3 -5 3 -65 14 -132 38 -234 41 -292 42 -819 0 -498 -8 -736 -31 -949 -6 -52 -13 -125 -17 -162 l-6 -66 509 -6 c280 -3 586 -9 680 -12 146 -5 172 -3 183 10 17 21 12 359 -6 377 -10 10 -33 8 -110 -9 -159 -36 -347 -48 -525 -34 -194 15 -188 10 -199 164 -4 62 -8 166 -8 231 -1 106 1 119 20 138 l22 22 256 -6 c141 -3 310 -11 375 -16 159 -14 158 -15 174 115 14 114 16 240 3 248 -4 3 -63 -1 -130 -9 -191 -22 -411 -29 -556 -16 -71 6 -134 16 -140 22 -12 12 -20 320 -10 435 10 118 10 118 152 122 65 2 233 -1 373 -7 l255 -10 16 19 c9 11 25 52 34 92 10 40 31 111 46 158 39 114 38 130 -4 130 -19 0 -36 -2 -38 -4z"/>
<path d="M26995 3640 c-194 -35 -439 -45 -723 -31 -141 6 -300 16 -352 21 -141 14 -210 13 -216 -4 -3 -7 2 -51 10 -97 44 -235 46 -285 46 -869 1 -551 -9 -798 -40 -1025 -5 -38 -9 -84 -10 -102 l0 -31 508 -6 c279 -3 587 -9 684 -12 l177 -6 6 34 c11 59 1 346 -12 359 -10 10 -27 9 -81 -4 -38 -9 -104 -22 -148 -29 -87 -14 -436 -14 -524 -1 l-55 8 -13 39 c-8 25 -13 113 -15 253 l-2 214 20 16 c17 13 57 14 275 9 140 -3 307 -9 370 -15 125 -11 157 -8 164 17 21 67 35 327 19 343 -5 5 -54 3 -125 -5 -252 -32 -664 -29 -704 5 -9 8 -13 62 -13 212 -1 232 8 314 34 334 22 15 184 17 520 3 256 -10 255 -10 273 71 7 30 29 107 49 171 19 64 33 123 30 132 -8 19 -22 19 -152 -4z"/>
<path d="M2425 3619 c-55 -5 -338 -8 -630 -6 -291 1 -541 -2 -553 -6 -27 -10 -27 -15 11 -122 58 -167 63 -254 55 -955 -7 -683 -12 -735 -77 -878 -23 -51 -43 -105 -44 -120 l-2 -27 200 -6 c559 -18 923 -21 1030 -10 324 35 519 120 695 301 228 233 340 519 340 865 0 149 -18 272 -56 389 -100 307 -268 500 -487 563 -64 18 -339 25 -482 12z m-15 -245 c240 -64 374 -181 465 -407 133 -328 47 -741 -209 -1005 -222 -229 -493 -325 -713 -253 -98 32 -143 71 -154 136 -5 28 -12 154 -15 280 -10 352 31 969 72 1081 21 60 57 87 181 138 181 74 199 76 373 30z"/>
<path d="M3753 3623 c-183 -3 -203 -5 -203 -20 0 -10 16 -65 35 -123 48 -148 55 -272 55 -1007 0 -653 3 -691 56 -800 29 -61 113 -141 179 -172 94 -44 159 -54 315 -48 135 5 205 17 335 56 17 5 76 23 131 40 56 18 148 42 205 55 57 13 144 36 193 50 105 31 116 27 116 -44 0 -69 10 -108 29 -112 27 -7 522 29 531 38 5 5 -2 48 -16 99 -24 92 -28 134 -55 675 -22 444 -4 906 47 1170 21 113 19 138 -12 146 -37 9 -537 -6 -548 -16 -6 -6 -3 -46 7 -102 22 -125 41 -570 34 -793 -6 -200 -25 -326 -68 -460 -66 -207 -182 -366 -315 -433 -103 -52 -166 -66 -299 -65 -109 0 -125 2 -170 25 -61 32 -105 77 -138 143 -66 133 -81 279 -81 780 0 383 9 517 53 785 10 63 16 121 14 128 -4 9 -35 11 -117 10 -61 -2 -202 -4 -313 -5z"/>
<path d="M10198 3613 c-7 -9 -3 -21 16 -44 14 -17 26 -34 26 -39 0 -5 23 -45 50 -90 267 -435 590 -1101 636 -1314 16 -68 17 -122 10 -531 l-1 -70 280 0 280 0 -2 85 c-1 47 -5 162 -11 255 -5 94 -6 200 -2 236 9 83 49 174 260 604 166 336 261 506 416 744 52 79 94 149 94 156 0 7 -7 16 -16 19 -23 9 -437 7 -451 -2 -6 -4 -63 -115 -127 -247 -119 -249 -329 -659 -372 -726 -13 -22 -29 -39 -34 -39 -24 0 -88 128 -295 590 -162 363 -185 411 -201 417 -7 2 -133 5 -279 6 -201 2 -269 -1 -277 -10z"/>
<path d="M17938 3622 c-181 -1 -278 -6 -278 -13 0 -5 21 -38 48 -72 26 -34 60 -91 76 -126 55 -123 57 -165 54 -904 l-4 -672 -22 -78 c-12 -43 -40 -113 -62 -155 -22 -43 -40 -83 -40 -90 0 -9 71 -12 300 -12 l300 0 0 23 c0 12 -11 71 -25 132 l-25 110 0 557 c0 311 4 559 9 562 5 3 267 -304 582 -683 l574 -688 110 -6 c169 -10 585 -8 585 2 0 6 -18 31 -40 56 -47 55 -81 118 -104 194 -14 48 -16 143 -16 790 0 798 0 798 56 915 14 31 44 76 65 100 21 24 39 47 39 50 0 4 -145 5 -322 4 l-323 -3 2 -25 c1 -14 9 -65 17 -114 9 -50 21 -142 26 -205 14 -150 9 -1126 -5 -1126 -10 1 -1026 1244 -1117 1368 -52 70 -88 96 -148 106 -19 3 -160 5 -312 3z"/>
<path d="M21837 3602 c-21 -4 -22 3 8 -138 62 -291 74 -1407 19 -1864 -5 -41 -3 -59 7 -67 14 -11 1252 -24 1263 -13 14 15 136 317 136 338 0 28 7 29 -200 -8 -146 -26 -331 -47 -490 -55 -117 -7 -127 -6 -151 14 -35 28 -46 76 -61 271 -16 221 -16 852 0 1000 21 186 32 268 54 383 16 84 18 110 8 122 -10 12 -62 15 -294 17 -156 2 -290 2 -299 0z"/>
<path d="M23377 3602 c-22 -4 -22 -12 8 -156 17 -87 28 -188 36 -351 18 -326 17 -1015 -1 -1250 -8 -104 -14 -219 -15 -255 l0 -65 625 -6 c451 -4 628 -3 637 5 14 13 143 314 143 333 0 24 -26 25 -136 4 -149 -28 -403 -58 -557 -67 -140 -7 -151 -4 -182 57 -21 40 -35 255 -42 624 -7 440 12 727 68 1004 13 68 15 98 8 108 -8 9 -78 13 -293 15 -156 2 -290 2 -299 0z"/>
<path d="M24982 3597 c-8 -9 -7 -54 3 -157 28 -296 39 -737 26 -1057 -14 -339 -49 -774 -67 -836 -14 -45 2 -47 296 -47 238 0 279 2 290 15 11 13 11 41 2 143 -7 70 -17 192 -24 272 -8 92 -13 334 -13 665 0 441 3 550 20 715 10 107 19 218 20 245 l0 50 -271 3 c-212 2 -274 0 -282 -11z"/>
<path d="M27386 3458 c-11 -41 -7 -938 4 -959 9 -15 22 -19 70 -19 71 0 37 -43 295 375 357 577 337 541 333 583 l-3 37 -346 3 -347 2 -6 -22z"/>
<path d="M310 804 c-6 -14 -10 -75 -10 -135 l0 -109 5980 0 5980 0 0 119 c0 66 -3 126 -6 135 -6 15 -541 16 -5970 16 l-5964 0 -10 -26z"/>
<path d="M17597 710 c-3 -67 -4 -127 0 -135 4 -13 842 -15 6694 -15 l6689 0 0 119 c0 66 -3 126 -6 135 -6 15 -604 16 -6689 16 l-6682 0 -6 -120z"/>
</g>
</g>
  <g id="id8:id8" transform="matrix(1.25,0,0,1.25,0.0,0.0)"><g transform="translate(0.000000,204.000000) scale(0.040000,-0.040000)" fill="#1f1f1f" stroke="none">
<path d="M0 2550 l0 -2550 15610 0 15610 0 0 2550 0 2550 -15610 0 -15610 0 0 -2550z m15300 2265 c228 -35 424 -98 645 -205 229 -111 391 -226 583 -414 184 -180 312 -357 431 -597 128 -256 195 -498 222 -792 94 -1057 -579 -2038 -1601 -2332 -216 -62 -346 -79 -610 -79 -246 0 -309 6 -505 50 -187 43 -325 93 -508 186 -641 326 -1088 946 -1192 1653 -40 273 -24 610 40 866 74 291 200 556 383 803 85 114 310 342 422 428 331 250 720 403 1144 448 115 12 422 4 546 -15z m-3070 -340 c7 -8 10 -22 6 -30 -5 -13 -654 -15 -5956 -15 -5302 0 -5951 2 -5956 15 -4 8 -1 22 6 30 11 13 707 15 5950 15 5243 0 5939 -2 5950 -15z m18720 0 c7 -8 10 -22 6 -30 -5 -13 -730 -15 -6671 -15 -5916 0 -6666 2 -6671 15 -4 8 -4 22 0 30 5 13 754 15 6664 15 5882 0 6661 -2 6672 -15z m-20952 -855 c5 -42 -17 -246 -29 -276 l-8 -23 -319 -3 c-363 -3 -354 -1 -366 -84 -44 -325 -56 -1126 -22 -1474 10 -102 19 -196 19 -210 l2 -25 -275 0 -275 0 1 35 c0 19 7 193 14 386 15 415 9 919 -14 1104 -23 180 -34 240 -47 256 -26 32 -397 12 -604 -32 -111 -23 -110 -23 -108 6 3 60 78 317 98 338 10 11 70 11 341 1 393 -14 994 -7 1249 15 253 22 266 23 305 22 32 -1 35 -4 38 -36z m19520 28 c147 2 267 -2 305 -9 76 -13 156 -51 196 -93 69 -72 130 -252 116 -346 -11 -75 -16 -79 -77 -68 -71 14 -305 3 -398 -17 -41 -9 -79 -17 -85 -18 -6 -1 -12 46 -15 118 -4 104 -8 125 -29 159 -55 88 -229 118 -386 67 -116 -38 -220 -98 -271 -155 -70 -79 -97 -146 -98 -236 0 -87 15 -123 71 -169 92 -76 298 -98 605 -66 90 9 209 15 264 14 89 -4 107 -8 168 -38 89 -44 178 -132 217 -215 43 -92 64 -250 49 -363 -37 -278 -203 -514 -445 -633 -154 -75 -281 -94 -580 -86 -115 3 -262 2 -325 -2 -143 -10 -282 2 -357 30 -42 15 -75 38 -119 82 -51 52 -63 71 -78 125 -26 91 -30 162 -16 233 12 64 48 146 72 165 7 6 60 16 118 22 58 7 146 16 195 22 50 5 114 15 144 20 35 7 57 7 63 1 7 -7 -3 -47 -27 -118 -41 -121 -43 -178 -11 -246 52 -109 208 -179 351 -156 118 18 259 105 351 216 91 111 134 219 134 343 0 118 -41 192 -130 232 -43 20 -62 21 -360 19 -348 -2 -451 8 -569 55 -83 33 -133 67 -194 132 -77 82 -101 145 -105 276 -3 81 1 127 13 174 60 233 230 428 430 496 115 39 172 45 375 38 107 -4 304 -6 438 -5z m-22258 -22 c149 -29 209 -53 268 -109 92 -88 132 -192 132 -348 0 -113 -18 -184 -75 -284 -45 -82 -164 -203 -274 -280 -44 -31 -83 -61 -87 -66 -3 -5 24 -41 60 -79 80 -85 143 -174 248 -350 178 -297 233 -360 401 -460 85 -50 105 -66 95 -76 -28 -26 -110 -36 -319 -41 -255 -6 -297 2 -381 70 -63 52 -104 111 -200 292 -149 279 -289 448 -422 505 -99 42 -215 45 -254 7 -29 -30 -16 -465 24 -761 8 -60 12 -111 9 -114 -6 -6 -555 -6 -561 0 -2 3 2 34 11 69 54 236 69 536 56 1104 -17 697 -17 700 -81 830 -16 33 -26 63 -22 67 4 3 228 9 497 12 382 4 507 8 565 20 85 17 194 14 310 -8z m14433 -16 c-2 -32 -70 -267 -86 -300 l-13 -25 -378 0 -379 0 -21 -28 -21 -28 1 -255 c1 -151 5 -259 11 -265 33 -33 445 -42 686 -15 77 9 143 13 148 10 18 -11 -15 -307 -37 -325 -11 -9 -63 -8 -222 5 -332 26 -561 20 -583 -15 -17 -28 -21 -146 -10 -314 6 -97 16 -185 21 -196 17 -32 41 -37 196 -48 178 -12 371 0 510 30 53 11 102 18 110 15 12 -5 14 -36 12 -178 l-3 -173 -180 2 c-99 1 -399 4 -667 6 -268 2 -489 5 -492 8 -2 2 0 31 5 64 38 271 43 398 44 1045 l0 645 -28 169 c-16 93 -25 172 -20 176 4 4 80 2 168 -6 498 -39 832 -38 1078 6 134 23 153 22 150 -10z m5433 15 c3 -8 1 -29 -6 -47 -7 -18 -29 -91 -49 -163 l-37 -130 -379 4 -380 3 -18 -20 c-28 -30 -41 -190 -32 -386 4 -89 10 -168 14 -175 22 -35 447 -46 690 -16 89 10 138 12 144 6 13 -13 -17 -309 -32 -324 -7 -7 -78 -5 -228 7 -343 26 -560 20 -585 -16 -14 -20 -5 -478 10 -505 20 -36 40 -41 198 -52 169 -11 357 -1 487 25 45 9 96 17 112 18 l30 1 0 -175 0 -175 -180 2 c-99 1 -396 4 -660 6 -265 2 -486 7 -493 11 -7 4 -10 15 -8 24 10 30 35 284 46 447 13 211 13 1177 0 1286 -6 46 -20 140 -31 208 -12 67 -17 126 -12 131 4 4 80 2 168 -6 492 -39 832 -38 1078 5 131 24 146 24 153 6z m-24182 -48 c135 -51 240 -146 329 -299 159 -276 204 -615 125 -938 -86 -350 -320 -638 -610 -750 -173 -67 -336 -90 -635 -91 -276 -1 -935 20 -946 31 -5 4 14 59 41 121 47 107 51 122 63 254 10 101 14 311 14 755 0 668 0 668 -59 843 -16 47 -21 75 -15 82 7 6 191 9 522 8 282 -2 557 1 612 6 55 5 188 8 295 7 182 -3 200 -5 264 -29z m1220 24 c3 -5 0 -44 -8 -88 -44 -242 -60 -454 -59 -808 0 -578 32 -760 152 -881 65 -65 101 -78 237 -82 101 -3 134 0 200 18 173 47 295 153 386 335 79 157 121 344 134 590 8 178 -12 681 -32 803 -11 64 -13 97 -6 104 14 14 527 24 535 10 4 -5 2 -34 -4 -63 -78 -398 -86 -735 -38 -1603 9 -159 17 -231 34 -295 13 -47 21 -89 19 -92 -2 -3 -54 -9 -116 -13 -62 -4 -174 -11 -248 -16 -92 -6 -139 -5 -147 2 -8 6 -13 34 -13 67 0 87 -7 101 -46 101 -18 0 -68 -11 -111 -24 -43 -13 -114 -32 -158 -41 -44 -10 -154 -39 -245 -67 -205 -61 -260 -73 -383 -88 -163 -19 -307 6 -409 71 -90 58 -137 129 -165 251 -14 64 -16 141 -15 618 1 300 -3 637 -8 750 -10 192 -13 212 -46 314 -19 60 -33 115 -30 122 4 11 60 14 295 14 161 0 292 -4 295 -9z m6685 -207 c53 -116 120 -267 150 -335 66 -152 208 -439 226 -458 39 -40 75 20 362 597 l205 412 213 0 c121 0 216 -4 220 -9 3 -5 -37 -74 -88 -153 -52 -79 -127 -199 -167 -268 -139 -239 -461 -894 -496 -1009 -18 -59 -18 -278 0 -471 8 -80 11 -148 7 -153 -4 -4 -126 -6 -271 -5 l-264 3 5 65 c2 36 4 160 4 275 0 267 -2 274 -152 614 -70 159 -224 466 -315 630 -96 172 -249 433 -265 452 -7 9 -10 19 -6 22 4 4 126 6 271 5 l265 -3 96 -211z m7437 197 c30 -13 63 -46 116 -112 41 -52 130 -161 197 -244 67 -82 182 -224 256 -315 74 -91 191 -235 260 -320 69 -85 187 -230 262 -323 74 -92 140 -170 145 -173 6 -4 14 0 20 7 5 8 7 249 5 599 -5 590 -9 665 -47 836 -6 25 -8 50 -5 55 9 13 572 12 580 -1 4 -6 -5 -24 -20 -42 -33 -38 -67 -106 -91 -178 -17 -51 -19 -109 -22 -790 -2 -528 0 -752 8 -795 16 -79 59 -173 104 -222 19 -22 33 -43 29 -47 -3 -3 -148 -6 -320 -6 l-315 0 -27 28 c-15 15 -282 334 -595 710 -313 375 -572 682 -577 682 -5 0 -9 -255 -9 -586 0 -548 1 -591 20 -662 10 -43 20 -97 22 -122 l3 -45 -265 -3 c-146 -1 -270 0 -277 2 -8 3 -3 21 18 58 16 29 41 89 57 133 l27 80 3 728 c2 627 1 737 -13 788 -22 90 -54 157 -106 226 -26 34 -45 64 -41 67 3 3 129 6 281 6 248 0 280 -2 317 -19z m7223 -6 c11 -4 12 -20 7 -78 -30 -311 -37 -445 -42 -752 -6 -342 3 -657 27 -945 7 -74 12 -169 13 -210 l1 -75 -275 0 -275 0 1 25 c0 14 8 95 17 180 32 303 39 419 46 740 7 360 -1 678 -24 934 -8 99 -11 174 -6 180 9 11 480 11 510 1z m-3134 -3 c47 -9 48 -13 22 -162 -48 -282 -60 -449 -59 -830 1 -394 20 -696 47 -752 29 -60 56 -67 225 -58 180 10 220 14 449 51 101 17 187 27 191 22 8 -8 -111 -295 -132 -321 -8 -9 -22 -11 -47 -6 -20 4 -295 9 -611 13 l-575 6 0 50 c1 28 7 124 14 215 20 266 25 721 12 1077 -13 358 -21 450 -51 591 -11 51 -18 96 -16 100 6 10 482 13 531 4z m1574 -7 c8 -8 5 -43 -9 -115 -55 -292 -75 -588 -67 -980 7 -344 23 -571 43 -626 26 -73 39 -79 172 -76 142 3 347 25 541 58 86 14 148 21 154 15 10 -10 -106 -288 -131 -312 -15 -14 -36 -15 -177 -8 -88 4 -361 8 -606 8 -245 1 -448 3 -450 6 -3 2 1 69 8 147 25 285 34 715 23 1083 -13 428 -23 555 -50 685 -12 55 -20 106 -17 114 6 16 550 17 566 1z m4119 -145 c2 -28 -10 -56 -66 -145 -38 -60 -158 -254 -267 -430 -108 -176 -204 -328 -213 -338 -12 -14 -28 -17 -66 -15 l-51 3 -3 469 c-1 340 1 472 9 482 10 12 70 14 333 12 l321 -3 3 -35z m-15838 -2815 c6 -8 9 -19 5 -25 -9 -14 -11901 -14 -11910 0 -4 6 -1 17 5 25 19 23 11881 23 11900 0z m18720 0 c6 -8 9 -19 5 -25 -9 -14 -13331 -14 -13340 0 -4 6 -4 17 -1 25 8 23 13317 22 13336 0z"/>
<path d="M14712 4464 c-749 -109 -1349 -633 -1551 -1354 -85 -307 -83 -701 5 -1009 182 -632 695 -1131 1329 -1294 178 -46 238 -52 475 -52 195 1 240 4 340 24 581 118 1063 484 1322 1002 390 785 185 1729 -498 2286 -198 162 -462 293 -718 358 -209 53 -499 69 -704 39z m364 -715 c91 -27 140 -57 196 -117 75 -80 118 -183 118 -284 0 -41 -10 -64 -67 -160 -85 -145 -284 -470 -293 -481 -4 -5 -36 10 -71 32 -35 22 -93 58 -129 80 -36 22 -121 76 -190 120 -69 44 -169 108 -223 142 -137 86 -201 167 -233 290 -30 118 2 215 95 283 66 49 120 66 205 66 51 0 92 -7 149 -27 l77 -27 33 31 c57 55 102 71 198 72 42 1 93 -7 135 -20z m729 -430 c101 -38 228 -153 269 -244 33 -72 37 -96 34 -167 -2 -40 -7 -80 -12 -90 -5 -12 9 -35 58 -87 35 -39 77 -97 92 -128 24 -50 28 -70 27 -148 0 -104 -19 -158 -78 -223 -73 -81 -173 -102 -289 -61 -67 24 -102 44 -296 173 -340 224 -453 302 -458 316 -3 8 -12 23 -20 32 -13 16 -9 26 40 105 30 48 108 175 174 282 65 106 130 200 143 209 79 53 220 67 316 31z m-1532 -240 c51 -35 133 -93 184 -129 51 -36 169 -119 263 -184 156 -109 210 -156 210 -185 0 -10 -70 -127 -200 -336 -34 -55 -74 -119 -88 -143 -82 -133 -106 -163 -149 -189 -143 -83 -309 -83 -443 2 -58 37 -145 138 -180 211 -47 98 -58 174 -36 255 9 35 19 73 22 84 4 15 -7 36 -35 70 -23 28 -56 79 -74 115 -28 58 -32 74 -32 150 0 74 4 92 28 140 72 141 197 213 355 206 l84 -4 91 -63z m834 -581 c18 -18 33 -36 33 -40 0 -5 24 -43 53 -85 28 -41 59 -85 67 -97 40 -59 113 -141 224 -251 112 -111 122 -125 138 -180 10 -33 29 -95 42 -137 13 -43 20 -80 16 -83 -10 -6 -219 205 -289 290 -127 156 -196 250 -249 340 -53 91 -123 247 -118 260 9 25 48 17 83 -17z"/>
<path d="M13200 1590 c0 -5 5 -10 10 -10 6 0 10 5 10 10 0 6 -4 10 -10 10 -5 0 -10 -4 -10 -10z"/>
<path d="M6706 3443 c-88 -26 -173 -98 -215 -181 -44 -87 -53 -153 -52 -402 1 -196 4 -237 16 -250 12 -12 40 -15 133 -14 99 1 129 5 195 27 209 72 327 205 363 409 31 178 -28 311 -171 382 -95 47 -181 56 -269 29z"/>
<path d="M2090 3384 c-47 -19 -103 -43 -125 -51 -110 -45 -129 -80 -155 -289 -39 -324 -57 -869 -36 -1129 l8 -110 42 -41 c57 -57 136 -85 256 -91 204 -10 391 75 590 269 197 190 316 528 281 796 -40 303 -190 525 -417 614 -84 34 -235 68 -296 68 -49 0 -82 -8 -148 -36z"/>
</g>
</g>
</svg>
