<?xml version="1.0" standalone="no"?>
<!DOCTYPE svg PUBLIC "-//W3C//DTD SVG 1.1//EN"
 "http://www.w3.org/Graphics/SVG/1.1/DTD/svg11.dtd">
<!-- Created with svg_stack (http://github.com/astraw/svg_stack) -->
<svg xmlns:sodipodi="http://sodipodi.sourceforge.net/DTD/sodipodi-0.dtd" xmlns="http://www.w3.org/2000/svg" version="1.1" width="790.0" height="746.0">
  <defs/>
  <g id="id0:id0" transform="matrix(1.25,0,0,1.25,0.0,0.0)"><g transform="translate(0.000000,596.800000) scale(0.040000,-0.040000)" fill="#2a2a2a" stroke="none">
<path d="M4675 13941 c-7 -12 12 -24 25 -16 11 7 4 25 -10 25 -5 0 -11 -4 -15 -9z"/>
<path d="M4849 13943 c-1 -5 -2 -17 -3 -28 -1 -19 -8 -20 -131 -20 -96 0 -130 4 -131 13 -1 6 -2 15 -3 19 -2 11 -91 -80 -91 -92 0 -6 -13 -24 -30 -40 -16 -16 -30 -34 -30 -40 0 -6 -43 -53 -95 -105 l-94 -94 -20 18 c-17 15 -23 16 -36 6 -8 -7 -15 -17 -15 -23 0 -6 -16 -28 -37 -49 -30 -31 -34 -40 -23 -53 12 -14 7 -20 -14 -16 -13 3 -46 -31 -40 -40 3 -5 9 -7 14 -4 5 3 11 2 14 -3 3 -5 -22 -35 -54 -67 -33 -33 -60 -64 -60 -70 0 -19 -217 -228 -229 -220 -7 4 -18 2 -25 -4 -7 -6 -20 -9 -28 -6 -8 3 -21 -1 -28 -10 -11 -13 -10 -19 5 -35 15 -17 16 -22 4 -36 -7 -9 -18 -26 -24 -38 -6 -11 -23 -27 -38 -34 -16 -8 -32 -24 -37 -36 -4 -12 -15 -28 -24 -35 -9 -7 -16 -20 -16 -27 0 -8 -11 -19 -25 -24 -14 -5 -29 -20 -34 -32 -5 -13 -41 -54 -80 -92 l-70 -70 -21 19 c-15 14 -23 16 -32 7 -9 -9 -7 -17 7 -32 14 -15 16 -23 7 -32 -9 -9 -16 -7 -31 6 -21 19 -41 14 -41 -8 0 -8 -7 -19 -15 -26 -9 -7 -13 -21 -10 -31 3 -9 1 -20 -5 -24 -5 -3 -10 -16 -10 -28 0 -15 -25 -48 -70 -92 -38 -38 -70 -74 -70 -80 0 -6 -34 -44 -75 -85 l-74 -74 -20 18 c-17 15 -23 16 -36 6 -8 -7 -15 -19 -15 -27 0 -9 -19 -32 -42 -53 -35 -31 -41 -40 -30 -52 16 -20 -9 -73 -38 -81 -11 -3 -24 -16 -29 -29 -5 -13 -16 -30 -25 -37 -9 -7 -16 -19 -16 -25 0 -15 -48 -61 -73 -69 -9 -4 -21 -17 -26 -29 -5 -13 -43 -57 -85 -98 -59 -58 -78 -72 -88 -62 -16 16 -43 15 -58 -3 -10 -13 -10 -19 5 -35 17 -18 14 -25 -9 -21 -13 3 -46 -31 -40 -40 3 -5 9 -7 14 -4 5 3 11 2 14 -3 3 -5 -22 -35 -54 -67 -33 -33 -60 -64 -60 -70 0 -6 -47 -57 -105 -115 -96 -96 -108 -105 -147 -107 -23 -2 -49 -9 -56 -17 -17 -16 -6 -40 14 -32 32 12 19 -14 -31 -64 -30 -30 -55 -59 -55 -64 0 -5 -9 -20 -21 -32 l-20 -21 20 -36 c20 -36 18 -55 -5 -36 -17 14 -34 3 -34 -21 0 -24 17 -35 34 -21 10 9 17 6 29 -13 20 -30 75 -40 100 -18 13 12 20 13 29 4 15 -15 64 -16 73 -2 4 6 682 10 1966 10 l1960 -1 9 -24 c12 -31 21 -31 50 0 17 18 29 23 47 18 22 -5 24 -3 21 18 -2 17 -11 25 -28 27 -14 2 -32 10 -41 18 -9 8 -18 12 -21 9 -3 -4 -3357 -8 -3423 -5 -5 0 -1 7 9 15 17 13 252 15 1722 15 1024 0 1712 -4 1727 -9 15 -6 28 -6 34 0 14 14 78 -32 78 -56 0 -32 -24 -63 -44 -58 -10 3 -22 0 -25 -6 -4 -5 -13 -8 -20 -5 -15 6 -50 -52 -37 -60 10 -6 8 -102 -2 -112 -11 -11 -9 -118 3 -130 6 -6 11 -366 12 -1019 3 -813 5 -1009 16 -1007 16 3 26 -23 17 -45 -6 -17 -7 -17 -20 1 -8 10 -19 15 -25 11 -8 -5 -8 -10 0 -20 7 -8 9 -18 6 -23 -10 -17 10 -67 28 -67 9 0 21 -7 26 -15 8 -13 12 -11 26 8 l16 23 19 -17 c10 -9 19 -23 19 -31 0 -23 18 -14 24 12 4 14 14 29 24 32 26 9 52 35 46 44 -3 5 -16 9 -30 9 -36 0 -41 26 -11 56 20 20 34 25 61 23 29 -3 43 3 70 29 19 17 42 32 51 32 9 0 13 5 10 11 -8 12 22 49 40 49 7 0 15 9 18 20 3 11 12 20 21 20 9 0 16 7 16 15 0 9 10 19 23 24 23 9 70 66 74 90 2 19 44 62 71 72 12 5 22 15 22 23 0 9 9 20 20 26 11 6 19 19 18 28 -2 11 5 18 20 20 16 3 22 8 18 18 -3 9 2 17 12 20 31 10 47 21 47 33 0 6 4 10 10 9 5 -2 9 -9 7 -15 -2 -7 2 -13 9 -13 7 0 9 9 6 21 -7 28 9 69 27 69 17 0 109 103 112 126 3 20 34 54 49 54 7 0 30 21 51 48 63 79 175 184 189 179 8 -4 11 1 9 11 -3 10 13 36 37 62 22 25 75 85 117 134 42 49 120 135 174 190 53 56 135 146 183 201 151 175 232 254 245 241 8 -8 10 -7 4 7 -4 12 4 29 29 55 19 20 72 80 117 132 136 155 182 201 201 195 18 -6 34 21 18 31 -6 4 -6 11 2 20 8 10 15 11 25 4 9 -9 11 -7 8 7 -3 12 16 40 53 81 32 35 108 119 168 186 73 83 114 121 121 115 7 -6 16 -4 23 5 8 10 9 16 1 21 -19 12 1 25 27 19 22 -6 25 -4 20 9 -8 22 6 29 27 14 19 -14 25 -7 -190 -233 -78 -82 -159 -171 -181 -199 -22 -27 -114 -128 -204 -224 -90 -95 -166 -179 -169 -186 -3 -8 -93 -107 -200 -221 -107 -113 -197 -212 -199 -218 -5 -13 -192 -217 -310 -339 -47 -48 -89 -96 -93 -106 -4 -11 -31 -43 -60 -73 -76 -76 -314 -335 -372 -405 -26 -32 -116 -131 -200 -219 -83 -89 -173 -188 -200 -220 -84 -102 -318 -344 -332 -344 -7 0 -32 10 -55 22 -34 17 -42 19 -50 7 -5 -9 -1 -21 12 -35 11 -12 17 -28 14 -36 -12 -31 18 -32 42 -2 20 25 25 27 42 17 11 -7 28 -10 38 -6 32 11 73 56 68 73 -3 10 5 26 20 40 23 22 27 23 41 8 20 -20 9 -41 -17 -33 -16 5 -18 2 -13 -22 4 -24 -3 -36 -55 -88 -34 -33 -61 -64 -61 -71 0 -6 -9 -19 -20 -29 -16 -15 -22 -16 -35 -5 -14 11 -20 9 -42 -13 -22 -22 -24 -28 -13 -42 11 -13 10 -19 -5 -35 -11 -12 -26 -18 -36 -15 -20 7 -54 -51 -41 -69 11 -13 10 -56 -1 -73 -4 -7 -3 -21 3 -32 14 -28 14 -3875 -1 -3902 -8 -15 -7 -24 2 -35 8 -10 9 -18 2 -25 -8 -8 -7 -19 3 -37 11 -23 11 -29 -2 -43 -19 -21 -9 -42 15 -34 25 8 58 -30 42 -48 -14 -18 -2 -30 16 -15 11 9 26 0 74 -48 32 -32 59 -64 59 -70 0 -6 7 -18 16 -25 9 -7 20 -22 25 -34 22 -47 39 -70 58 -77 13 -4 21 -16 21 -31 0 -28 51 -80 71 -72 9 3 34 -14 63 -44 39 -40 47 -53 38 -64 -15 -18 -3 -30 15 -16 10 9 18 8 33 -6 11 -10 20 -23 20 -29 0 -7 27 -38 60 -71 43 -42 58 -65 54 -77 -4 -13 2 -21 20 -28 18 -6 26 -17 26 -33 0 -28 51 -80 71 -72 9 3 34 -14 63 -44 39 -40 47 -53 38 -64 -15 -18 -3 -30 15 -16 10 9 18 8 33 -6 11 -10 20 -23 20 -29 0 -6 32 -43 72 -83 62 -62 70 -74 58 -88 -11 -13 -9 -20 16 -46 16 -17 47 -39 69 -49 42 -19 118 -92 128 -123 4 -9 15 -20 24 -24 29 -10 82 -64 77 -78 -9 -22 31 -80 57 -83 34 -5 45 -18 29 -37 -11 -13 -9 -20 16 -46 16 -17 47 -39 69 -49 42 -19 118 -92 128 -123 4 -9 18 -22 32 -27 14 -5 25 -16 25 -24 0 -7 7 -19 15 -26 9 -7 24 -32 35 -54 10 -23 30 -52 44 -65 14 -14 26 -30 26 -36 0 -17 61 -70 103 -89 37 -17 46 -30 27 -41 -6 -4 -8 -11 -4 -16 4 -6 11 -6 20 2 12 10 20 7 40 -12 15 -13 30 -34 35 -47 5 -12 20 -27 34 -32 14 -5 25 -16 25 -24 0 -7 7 -19 15 -26 9 -7 24 -32 35 -54 10 -23 30 -52 44 -65 14 -14 26 -30 26 -36 0 -17 61 -70 103 -89 37 -17 46 -30 27 -41 -6 -4 -8 -11 -4 -16 4 -6 11 -5 20 2 12 10 25 2 75 -47 32 -32 59 -63 59 -69 0 -6 18 -29 40 -50 25 -24 38 -45 35 -55 -3 -10 7 -28 25 -45 16 -16 30 -34 30 -40 0 -19 46 -56 62 -50 8 3 23 -3 33 -15 10 -11 28 -20 40 -20 11 0 26 -5 33 -12 9 -9 15 -9 24 0 7 7 22 12 35 12 13 0 26 8 30 18 3 9 12 24 20 33 8 9 16 30 18 45 2 16 4 31 4 33 1 2 8 -2 16 -9 11 -9 19 -10 27 -2 15 15 0 34 -22 27 -10 -3 -21 -1 -25 5 -3 6 -11 8 -16 4 -5 -3 -7 -10 -3 -15 8 -14 -35 -59 -56 -59 -9 0 -24 8 -33 18 -16 17 -17 378 -17 5063 l0 5044 30 27 c26 25 38 28 94 27 73 -1 93 6 76 26 -17 21 1 26 97 27 118 1 222 -11 231 -27 4 -7 33 -15 67 -18 33 -3 72 -7 87 -10 16 -3 30 -1 33 4 4 5 742 9 1728 9 l1722 0 23 27 c18 20 22 33 18 57 -9 41 -6 2410 2 2466 23 153 27 -20 30 -1256 l2 -1300 -23 -22 c-20 -19 -28 -20 -58 -12 -22 7 -636 10 -1730 10 -933 -1 -1701 0 -1705 1 -5 1 -11 0 -14 -1 -3 -1 -46 -4 -97 -5 -51 -2 -97 -6 -102 -9 -16 -10 -345 -4 -358 6 -7 6 -14 5 -18 -2 -3 -5 -20 -10 -36 -10 -17 0 -32 -6 -35 -15 -8 -20 15 -47 34 -40 8 3 21 0 28 -6 11 -9 18 -8 32 4 17 15 187 17 2024 17 1786 0 2009 2 2036 16 66 32 62 -77 62 1577 l0 1501 -28 30 c-16 17 -32 39 -35 49 -4 9 -15 20 -24 23 -10 3 -25 9 -34 14 -12 6 -22 3 -34 -10 -14 -16 -32 -18 -74 -11 -2 1 2 8 9 16 9 10 10 19 3 26 -6 6 -208 8 -539 7 l-529 -3 0 -25 0 -25 -90 0 c-54 0 -101 5 -117 13 -23 11 -31 10 -58 -5 -18 -10 -32 -22 -31 -28 1 -15 -100 -114 -133 -130 -22 -12 -32 -12 -43 -3 -11 9 -18 8 -30 -5 -15 -15 -15 -18 2 -37 17 -18 14 -25 -9 -21 -13 3 -46 -31 -40 -40 3 -5 9 -7 14 -4 5 3 11 2 14 -3 3 -5 -22 -35 -54 -67 -33 -33 -60 -64 -60 -70 0 -6 -49 -59 -108 -118 -76 -75 -113 -106 -124 -102 -9 4 -19 1 -23 -5 -4 -6 -15 -8 -24 -5 -10 3 -24 -1 -31 -10 -11 -13 -10 -19 5 -35 15 -17 16 -22 4 -36 -7 -9 -18 -26 -24 -38 -6 -11 -23 -27 -38 -34 -16 -8 -32 -23 -37 -35 -4 -12 -29 -42 -54 -67 -25 -24 -46 -49 -46 -55 0 -6 -34 -44 -75 -85 l-74 -74 -21 19 c-15 14 -23 16 -32 7 -9 -9 -7 -17 7 -32 14 -15 16 -23 7 -32 -9 -9 -16 -7 -31 6 -21 19 -41 14 -41 -8 0 -8 -7 -19 -15 -26 -9 -7 -13 -21 -10 -31 3 -9 1 -20 -5 -24 -5 -3 -10 -17 -10 -31 0 -17 -8 -27 -25 -34 -14 -5 -29 -20 -34 -33 -5 -12 -16 -29 -25 -36 -9 -7 -16 -19 -16 -25 0 -6 -43 -54 -95 -106 l-94 -94 -20 18 c-17 15 -23 16 -36 6 -8 -7 -15 -19 -15 -27 0 -9 -19 -32 -42 -53 -35 -31 -41 -40 -30 -52 16 -20 -9 -73 -38 -81 -11 -3 -24 -16 -29 -29 -5 -12 -21 -34 -35 -47 -14 -14 -26 -29 -26 -35 0 -6 -54 -65 -120 -131 -94 -94 -122 -117 -132 -107 -16 16 -43 15 -58 -3 -10 -13 -10 -19 4 -33 17 -20 13 -34 -8 -26 -7 3 -21 -4 -31 -16 -10 -11 -15 -21 -12 -21 4 -1 12 -2 17 -3 6 0 10 -4 10 -8 0 -5 -3 -8 -6 -7 -10 2 -64 -54 -64 -66 0 -7 -9 -20 -20 -30 -11 -10 -20 -24 -20 -32 0 -7 -11 -18 -25 -23 -14 -5 -29 -20 -34 -32 -13 -32 -157 -172 -169 -164 -10 6 -68 -19 -78 -35 -3 -5 -1 -16 5 -23 14 -17 2 -29 -16 -15 -17 15 -43 -5 -43 -33 0 -11 -5 -28 -11 -39 l-11 -21 -19 18 c-25 22 -24 60 1 74 13 7 20 21 20 40 0 38 -20 49 -38 22 -8 -12 -21 -22 -28 -22 -11 0 -14 -18 -14 -78 0 -84 -5 -99 -27 -80 -11 8 -17 7 -28 -8 l-15 -19 -15 19 c-13 17 -15 174 -15 1270 0 688 -3 1280 -6 1316 -5 56 -4 69 14 90 17 21 22 23 36 11 14 -12 19 -11 37 5 12 11 24 18 28 17 3 -2 6 3 6 10 0 6 -7 11 -16 9 -19 -3 -51 30 -47 49 2 7 -3 13 -9 14 -7 0 -20 10 -29 23 -22 31 -59 26 -59 -8 l0 -25 -65 0 c-76 -1 -85 2 -70 20 13 16 4 38 -13 32 -7 -2 -12 -15 -12 -28 0 -21 -5 -24 -35 -24 -31 0 -35 3 -35 25 l0 25 -1862 3 c-1025 1 -1864 -1 -1864 -5z m8239 -168 c4 -58 -12 -81 -28 -40 -9 22 -9 64 -1 93 1 2 7 2 14 0 7 -3 13 -25 15 -53z m-90 -95 c2 -30 8 -60 14 -68 8 -9 8 -16 1 -23 -7 -7 -15 -2 -25 13 l-15 23 -574 -6 c-639 -6 -642 -6 -724 -75 -100 -83 -294 -271 -300 -291 -4 -12 -57 -71 -118 -130 -62 -59 -114 -115 -117 -124 -3 -10 -52 -66 -109 -124 -58 -59 -112 -120 -120 -134 -9 -15 -56 -65 -106 -111 -49 -46 -103 -101 -118 -124 -15 -22 -67 -80 -115 -130 -48 -49 -90 -96 -93 -104 -3 -9 -56 -67 -118 -131 -244 -253 -351 -367 -351 -377 0 -5 -41 -50 -91 -99 -50 -50 -99 -103 -109 -119 -10 -16 -68 -79 -129 -141 -61 -62 -111 -118 -111 -125 0 -15 -240 -246 -252 -242 -5 1 -14 -11 -20 -28 -12 -36 -40 -54 -56 -38 -8 8 -15 8 -26 -1 -24 -20 -39 -3 -33 36 7 38 154 227 248 318 29 28 82 86 119 130 38 44 87 98 110 120 23 22 65 67 92 100 28 33 91 103 142 156 50 53 145 156 211 229 66 73 161 176 212 229 50 53 113 121 140 152 66 77 212 235 309 338 45 47 104 111 130 142 70 81 227 249 314 338 41 42 97 103 125 136 27 33 88 101 135 150 47 50 102 110 121 135 l37 45 673 5 c371 3 679 5 684 4 6 0 11 -25 13 -54z m-6221 34 c3 -9 2 -33 -3 -53 l-9 -36 -975 -5 c-727 -4 -980 -8 -995 -17 -11 -6 -52 -23 -91 -38 -67 -24 -77 -32 -207 -168 -75 -78 -187 -194 -249 -259 -61 -64 -115 -125 -119 -135 -3 -10 -55 -65 -115 -123 -60 -57 -111 -112 -114 -122 -3 -10 -51 -64 -106 -120 -56 -57 -103 -111 -105 -120 -2 -9 -51 -61 -109 -114 -58 -53 -118 -115 -133 -137 -15 -23 -67 -81 -115 -131 -48 -49 -90 -96 -93 -104 -3 -9 -56 -67 -118 -131 -240 -249 -351 -367 -351 -376 0 -9 -86 -101 -320 -344 -62 -66 -117 -128 -121 -138 -9 -24 -104 -113 -121 -113 -9 0 -14 -13 -13 -37 l0 -38 53 -10 c32 -6 60 -18 68 -29 11 -16 28 -19 98 -20 47 -1 88 -4 91 -8 15 -15 -41 -29 -106 -27 -38 1 -72 -1 -76 -4 -8 -8 -468 -9 -476 0 -3 3 0 15 8 27 8 11 14 26 15 31 0 6 12 9 26 7 16 -2 34 6 55 27 17 17 37 31 44 31 8 0 46 38 85 85 39 47 75 85 79 85 5 0 46 44 92 97 46 54 123 138 170 188 47 49 98 106 113 125 15 19 69 78 119 131 51 52 146 155 212 229 66 73 161 176 212 229 50 53 113 121 140 152 71 82 215 239 324 353 53 56 112 119 130 141 18 22 67 76 109 121 41 45 138 150 215 234 77 84 179 194 226 244 47 50 98 107 113 126 31 38 226 249 265 287 l24 23 1074 0 c978 0 1074 -1 1080 -16z m2165 -2676 c-9 -9 -15 -9 -23 -1 -7 7 -9 20 -5 29 6 16 8 16 23 1 13 -13 15 -19 5 -29z m-76 -59 c10 -17 -13 -36 -27 -22 -12 12 -4 33 11 33 5 0 12 -5 16 -11z m-72 -110 c-9 -10 -21 -16 -26 -13 -5 3 -2 14 8 25 9 10 21 16 26 13 5 -3 2 -14 -8 -25z m-49 -9 c10 -16 -16 -43 -28 -31 -11 11 -2 41 12 41 5 0 13 -5 16 -10z m-60 -81 c0 -19 -5 -24 -25 -24 -40 -1 -43 5 -19 31 27 29 44 26 44 -7z m-99 -100 c10 -17 -41 -63 -62 -55 -15 6 -14 10 11 36 31 33 40 36 51 19z m-2561 -71 c-2 -28 -20 -26 -18 2 1 30 2 32 11 26 5 -3 8 -15 7 -28z m2448 -41 c-5 -7 -8 -21 -8 -32 0 -25 -28 -27 -33 -2 -4 21 26 59 39 51 5 -3 6 -11 2 -17z m-2448 -39 c-2 -28 -20 -26 -18 2 1 30 2 32 11 26 5 -3 8 -15 7 -28z m2308 -144 c-11 -17 -19 -22 -26 -15 -7 7 -5 17 8 31 24 27 39 15 18 -16z m-61 -76 c-31 -31 -51 -11 -26 27 15 24 19 25 33 11 14 -15 13 -18 -7 -38z m-87 -89 c0 -18 -5 -24 -22 -24 -11 0 -24 -3 -28 -7 -5 -4 -12 -5 -17 -2 -12 8 42 66 57 61 5 -2 10 -15 10 -28z m-170 -169 l18 -20 -28 -30 c-27 -28 -58 -33 -35 -5 6 7 8 20 4 29 -7 18 1 46 14 46 5 0 17 -9 27 -20z m-82 -106 c-11 -17 -19 -22 -26 -15 -7 7 -5 17 8 31 24 27 39 15 18 -16z m-61 -76 c-31 -31 -51 -11 -26 27 15 24 19 25 33 11 14 -15 13 -18 -7 -38z m-46 -29 c10 -17 -13 -36 -27 -22 -12 12 -4 33 11 33 5 0 12 -5 16 -11z m-41 -60 c0 -17 -6 -24 -20 -24 -28 0 -47 -14 -41 -31 8 -20 -10 -26 -24 -8 -11 12 -7 21 26 55 42 43 59 45 59 8z m-97 -115 c4 -25 -64 -92 -78 -78 -7 7 0 18 21 33 19 14 28 28 25 38 -3 8 -3 19 0 24 9 15 29 5 32 -17z m-168 -159 c15 -19 3 -37 -20 -30 -10 3 -21 1 -25 -5 -3 -6 -11 -8 -16 -4 -6 4 -1 16 12 30 26 28 32 29 49 9z m-54 -66 c10 -17 -13 -36 -27 -22 -12 12 -4 33 11 33 5 0 12 -5 16 -11z m-40 -40 c10 -17 -13 -36 -27 -22 -12 12 -4 33 11 33 5 0 12 -5 16 -11z m-41 -39 c3 -6 -1 -13 -10 -16 -9 -4 -14 -13 -11 -21 9 -22 -3 -36 -20 -22 -8 6 -14 8 -14 5 0 -4 -5 -4 -11 0 -7 4 0 17 17 35 30 31 39 35 49 19z m-97 -136 c4 -25 -64 -92 -78 -78 -7 7 0 18 21 33 19 14 28 28 25 38 -3 8 -3 19 0 24 9 15 29 5 32 -17z m-168 -159 c16 -19 3 -37 -22 -29 -16 5 -19 2 -14 -13 7 -22 -28 -62 -38 -44 -4 5 -1 13 5 16 5 4 8 14 4 23 -3 8 4 25 16 39 26 27 32 28 49 8z m-94 -106 c10 -17 -41 -63 -62 -55 -15 6 -14 10 11 36 31 33 40 36 51 19z m-81 -109 c0 -8 -9 -15 -20 -15 -11 0 -25 -3 -31 -7 -20 -13 -25 5 -7 24 19 22 58 20 58 -2z m-57 -66 c2 -12 -13 -34 -37 -58 l-39 -38 -12 21 c-14 26 -4 44 19 36 20 -6 46 19 36 35 -8 13 4 32 18 27 7 -2 13 -12 15 -23z m-114 -95 c-3 -5 -10 -7 -15 -3 -5 3 -7 10 -3 15 3 5 10 7 15 3 5 -3 7 -10 3 -15z m-54 -64 c22 -27 2 -36 -59 -26 -7 1 32 41 39 41 4 0 13 -7 20 -15z m-36 -86 c-3 -5 -10 -7 -15 -3 -5 3 -7 10 -3 15 3 5 10 7 15 3 5 -3 7 -10 3 -15z m-59 -19 c8 -14 -13 -40 -40 -50 -34 -13 -38 1 -9 31 30 31 39 35 49 19z m-80 -110 c0 -8 -9 -15 -20 -15 -11 0 -25 -3 -31 -7 -20 -13 -25 5 -7 24 19 22 58 20 58 -2z m-57 -64 c4 -21 -66 -98 -80 -89 -6 3 5 20 22 38 18 18 29 38 26 44 -9 14 3 33 17 28 7 -2 14 -12 15 -21z m-114 -117 c-3 -5 -10 -7 -15 -3 -5 3 -7 10 -3 15 3 5 10 7 15 3 5 -3 7 -10 3 -15z m-94 -465 c0 -13 -4 -32 -10 -42 -5 -9 -12 -43 -15 -74 -4 -32 -11 -60 -16 -63 -5 -4 -9 -15 -9 -25 0 -11 -9 -24 -20 -30 -17 -9 -22 -7 -29 12 -4 13 -12 21 -17 18 -5 -3 -10 25 -12 61 -2 50 1 69 13 79 8 7 15 17 15 22 0 12 51 63 70 70 22 8 30 0 30 -28z m-255 -38 c0 -32 -20 -35 -20 -3 0 27 4 39 14 33 4 -3 7 -16 6 -30z m-1 -77 c-3 -5 -10 -7 -15 -3 -5 3 -7 10 -3 15 3 5 10 7 15 3 5 -3 7 -10 3 -15z m0 -3890 c-3 -5 -10 -7 -15 -3 -5 3 -7 10 -3 15 3 5 10 7 15 3 5 -3 7 -10 3 -15z m2 -64 c-2 -14 -6 -26 -11 -28 -9 -2 -15 43 -8 56 9 15 22 -4 19 -28z m159 -85 c-14 -15 -14 -18 1 -31 9 -7 20 -22 25 -34 31 -71 108 -162 404 -475 23 -25 49 -56 58 -68 8 -13 79 -92 157 -175 147 -157 195 -210 282 -312 29 -33 114 -126 191 -206 125 -131 154 -170 122 -161 -5 1 8 -12 30 -30 43 -34 51 -43 255 -257 82 -87 135 -150 134 -162 0 -10 5 -19 11 -19 7 0 34 -24 60 -53 27 -28 90 -95 142 -148 51 -53 93 -99 93 -103 0 -5 23 -28 51 -54 35 -31 49 -51 46 -64 -3 -10 0 -18 8 -18 7 0 34 -24 60 -53 27 -28 90 -95 142 -148 51 -53 93 -99 93 -104 0 -4 12 -16 26 -28 14 -11 39 -38 55 -60 16 -22 72 -85 124 -140 53 -55 94 -104 92 -110 -2 -6 -11 -15 -21 -21 -15 -9 -29 1 -93 69 -41 44 -96 105 -123 135 -26 30 -82 90 -124 134 -42 43 -76 82 -76 88 0 5 -90 104 -200 219 -110 116 -200 215 -200 220 0 6 -66 81 -147 166 -82 86 -172 181 -200 212 -29 30 -53 59 -53 64 0 7 -85 99 -347 376 -29 30 -53 60 -53 66 0 6 -40 51 -90 100 -49 49 -90 95 -90 101 0 6 -22 29 -49 52 -27 23 -83 83 -124 134 -41 51 -109 127 -151 168 -42 41 -76 80 -76 86 0 6 -22 29 -48 51 -26 22 -75 74 -107 114 -33 41 -140 159 -237 262 -98 103 -178 192 -178 197 0 5 5 21 10 36 l11 27 23 -22 24 -23 18 26 c16 25 18 26 35 10 17 -16 18 -19 4 -34z"/>
<path d="M11491 13866 c-13 -13 -18 -26 -13 -30 5 -3 19 5 31 18 13 13 18 26 13 30 -5 3 -19 -5 -31 -18z"/>
<path d="M8995 13648 c-3 -7 -4 -528 -3 -1158 3 -1010 5 -1145 18 -1145 13 0 15 135 15 1154 0 914 -3 1155 -12 1158 -7 3 -15 -1 -18 -9z"/>
<path d="M8995 10508 c-3 -7 -4 -2207 -3 -4888 3 -4326 5 -4875 18 -4875 13 0 15 549 15 4884 0 4888 0 4957 -30 4879z"/>
<path d="M6400 8420 c0 -5 5 -10 10 -10 6 0 10 5 10 10 0 6 -4 10 -10 10 -5 0 -10 -4 -10 -10z"/>
</g>
</g>
  <g id="id1:id1" transform="matrix(1.25,0,0,1.25,0.0,0.0)"><g transform="translate(0.000000,596.800000) scale(0.040000,-0.040000)" fill="#000000" stroke="none">
<path d="M13035 13830 c-3 -5 -4 -10 -1 -10 3 0 -3 -16 -14 -35 -22 -39 -28 -153 -9 -172 7 -7 10 -427 10 -1383 -1 -1260 -3 -1375 -18 -1392 l-16 -18 -1994 0 c-1558 0 -1998 3 -2013 12 -16 10 -25 9 -52 -6 -74 -42 -115 -103 -105 -155 3 -15 1 -33 -6 -40 -6 -6 -12 -43 -14 -81 -1 -39 -4 -86 -6 -105 -3 -20 0 -38 5 -41 5 -3 6 -14 3 -25 -5 -13 -2 -19 7 -17 11 3 13 -819 13 -4812 0 -3941 -2 -4815 -13 -4812 -7 1 -12 -5 -10 -15 6 -33 -20 -18 -72 42 -131 151 -159 182 -218 242 -35 35 -102 108 -149 161 -135 154 -224 253 -273 302 -50 50 -180 195 -224 250 -16 19 -86 96 -156 170 -70 74 -140 151 -156 170 -39 49 -98 113 -245 270 -117 125 -168 183 -242 271 -16 19 -61 68 -101 109 -71 74 -243 264 -299 331 -16 19 -63 70 -106 114 -42 44 -110 118 -150 165 -40 47 -83 97 -97 111 -13 14 -24 29 -24 34 0 4 -18 25 -41 46 -35 32 -38 38 -23 47 12 6 13 11 5 16 -7 4 -18 3 -25 -3 -14 -12 -37 8 -49 41 -4 10 -12 15 -21 12 -9 -3 -20 3 -28 15 -7 12 -20 21 -28 21 -14 0 -40 -41 -40 -63 0 -5 43 -55 95 -110 52 -56 134 -146 182 -200 49 -53 135 -149 193 -212 58 -63 148 -162 200 -220 180 -199 310 -340 400 -436 49 -52 90 -99 90 -104 0 -5 47 -59 105 -119 261 -275 295 -313 295 -322 0 -5 45 -54 100 -109 55 -55 100 -104 100 -110 0 -6 43 -53 95 -105 52 -52 95 -99 95 -105 0 -6 47 -57 105 -115 58 -58 105 -109 105 -115 0 -6 43 -53 95 -105 52 -52 95 -99 95 -104 0 -6 43 -55 95 -110 220 -232 295 -314 295 -324 0 -22 32 -20 82 5 29 14 56 31 60 37 4 6 8 2282 8 5059 l0 5047 26 10 c16 6 761 10 2055 10 1381 0 2037 3 2050 10 10 6 19 17 19 24 0 8 7 19 15 26 13 11 15 190 15 1500 0 1310 -2 1489 -15 1500 -8 7 -15 19 -15 26 0 16 -36 19 -45 4z"/>
<path d="M8830 13785 l-44 -45 -1001 -2 -1000 -3 -3 -50 c-4 -64 7 -177 17 -170 5 2 449 5 987 5 l979 1 24 -28 c13 -15 27 -27 30 -25 3 1 7 -514 9 -1145 2 -1058 1 -1148 -15 -1172 -9 -14 -77 -93 -152 -174 -74 -81 -141 -158 -149 -170 -9 -12 -58 -67 -111 -122 -128 -133 -274 -294 -286 -315 -5 -10 -69 -80 -141 -156 -72 -77 -160 -172 -195 -211 -35 -40 -125 -139 -200 -220 -75 -82 -174 -191 -220 -244 -46 -53 -137 -152 -201 -221 -65 -69 -118 -130 -118 -135 0 -6 -9 -18 -20 -28 -11 -10 -20 -23 -20 -29 0 -6 -34 -45 -76 -86 -42 -41 -80 -85 -85 -97 -5 -13 -15 -23 -24 -23 -8 0 -15 -7 -15 -16 0 -9 -9 -18 -20 -21 -11 -3 -20 -11 -20 -17 0 -6 -31 -43 -70 -81 -38 -38 -70 -74 -70 -80 0 -6 -30 -40 -66 -75 -36 -36 -70 -75 -75 -87 -5 -13 -15 -23 -23 -23 -7 0 -16 -9 -19 -20 -3 -11 -12 -20 -21 -20 -9 0 -16 -6 -16 -13 0 -24 -196 -207 -221 -207 -13 0 -35 -11 -49 -25 -24 -23 -28 -24 -40 -10 -11 14 -11 20 -1 37 8 14 9 24 3 30 -17 17 -30 0 -30 -36 0 -18 -7 -47 -17 -65 -27 -53 -12 -71 85 -103 22 -7 34 2 107 74 46 46 83 87 83 93 0 6 47 57 104 114 58 58 104 108 103 112 -1 4 42 52 96 107 53 55 97 103 97 108 0 5 47 56 104 113 58 58 104 108 103 112 -1 4 42 52 96 107 53 55 97 103 97 108 0 4 48 59 108 121 238 251 292 309 292 318 0 5 46 57 103 116 186 196 277 296 277 304 0 5 51 62 113 126 186 196 287 305 287 314 0 5 46 57 103 116 162 169 279 297 298 327 9 15 54 63 99 107 45 44 93 97 106 117 l24 38 0 1323 0 1324 -23 21 c-13 12 -25 22 -28 22 -3 0 -25 -20 -49 -45z"/>
<path d="M1965 10850 c-3 -5 -24 -10 -45 -10 -21 0 -42 -4 -45 -10 -3 -5 -17 -10 -31 -10 -21 0 -24 -4 -24 -40 l0 -40 33 0 c17 0 956 0 2085 0 1408 0 2059 -3 2072 -10 11 -6 20 -19 20 -29 0 -10 8 -29 19 -42 16 -20 21 -21 35 -10 8 7 20 29 26 49 8 29 6 42 -8 66 -10 17 -27 32 -38 34 -10 2 -28 7 -39 13 -12 6 -746 11 -1955 13 -1064 2 -1960 7 -1990 11 -30 4 -59 11 -64 16 -13 12 -43 11 -51 -1z"/>
</g>
</g>
  <g id="id2:id2" transform="matrix(1.25,0,0,1.25,0.0,0.0)"><g transform="translate(0.000000,596.800000) scale(0.040000,-0.040000)" fill="#171717" stroke="none">
<path d="M13060 13831 c0 -13 29 -35 37 -28 7 8 -15 37 -28 37 -5 0 -9 -4 -9 -9z"/>
<path d="M12981 13762 c-23 -16 -81 -17 -689 -17 l-664 -1 -47 -50 c-25 -28 -109 -120 -186 -205 -77 -84 -180 -197 -230 -249 -98 -105 -346 -375 -490 -533 -49 -55 -128 -141 -175 -191 -82 -88 -181 -195 -588 -640 -212 -231 -445 -485 -562 -611 -41 -44 -120 -134 -175 -200 -55 -66 -122 -142 -148 -170 -26 -27 -46 -56 -45 -65 2 -10 24 -18 72 -25 55 -8 72 -15 91 -37 l24 -28 96 0 95 0 0 23 c0 13 8 31 18 40 17 16 161 17 1822 19 l1803 3 19 33 c10 18 16 38 13 43 -12 18 -31 9 -42 -20 -8 -22 -19 -31 -44 -36 -63 -12 -3477 -1 -3489 11 -21 21 8 59 182 239 96 99 179 188 184 197 12 23 134 156 304 334 74 78 154 166 177 195 22 30 129 145 237 256 108 110 199 210 203 221 5 11 105 122 223 246 118 124 247 262 285 307 64 74 318 347 414 444 53 54 98 88 148 114 l42 21 518 0 c285 0 535 4 555 9 46 11 52 4 68 -72 7 -36 16 -57 23 -54 15 5 17 56 4 78 -6 9 -7 25 -2 35 11 26 14 73 5 79 -4 3 -5 25 -2 50 2 25 0 51 -6 57 -12 15 -19 134 -9 145 9 9 9 23 0 22 -5 0 -19 -8 -32 -17z"/>
<path d="M4612 13739 c-10 -4 -51 -44 -92 -90 -141 -157 -255 -281 -350 -383 -52 -56 -160 -173 -240 -261 -80 -87 -179 -195 -220 -239 -41 -45 -140 -153 -220 -240 -80 -88 -181 -198 -225 -245 -101 -108 -543 -590 -918 -1000 -255 -279 -357 -385 -389 -405 -18 -11 -35 -21 -37 -23 -9 -7 43 -53 60 -53 9 0 29 -13 42 -30 l26 -30 135 0 135 0 3 38 3 37 1839 3 c1638 2 1841 0 1856 -13 14 -13 19 -13 28 -2 31 37 7 37 -1691 38 -909 1 -1708 4 -1777 8 l-125 6 -1 29 c-1 28 6 38 62 85 16 13 42 42 57 65 33 49 132 158 317 352 74 78 154 166 177 195 22 30 129 145 237 256 108 110 199 210 203 221 5 11 105 122 223 246 118 124 247 262 285 307 39 45 138 153 220 239 83 87 165 178 183 202 19 23 97 109 174 190 116 121 147 147 176 153 20 4 49 13 64 21 23 12 178 14 982 14 l956 0 4 23 c3 12 8 79 11 150 5 100 3 128 -7 132 -21 7 -2147 11 -2166 4z"/>
<path d="M1844 10839 c-10 -17 13 -36 27 -22 12 12 4 33 -11 33 -5 0 -12 -5 -16 -11z"/>
<path d="M1800 10800 c0 -11 5 -20 10 -20 6 0 10 9 10 20 0 11 -4 20 -10 20 -5 0 -10 -9 -10 -20z"/>
<path d="M13080 10790 c0 -5 5 -10 10 -10 6 0 10 5 10 10 0 6 -4 10 -10 10 -5 0 -10 -4 -10 -10z"/>
<path d="M6105 10759 c-10 -15 3 -25 16 -12 7 7 7 13 1 17 -6 3 -14 1 -17 -5z"/>
<path d="M13040 10750 c0 -5 5 -10 10 -10 6 0 10 5 10 10 0 6 -4 10 -10 10 -5 0 -10 -4 -10 -10z"/>
<path d="M6100 10710 c0 -5 5 -10 10 -10 6 0 10 5 10 10 0 6 -4 10 -10 10 -5 0 -10 -4 -10 -10z"/>
<path d="M6072 10648 c-13 -13 -16 -38 -6 -38 8 0 33 32 34 43 0 11 -15 8 -28 -5z"/>
<path d="M6166 10484 l-25 -53 -2 -1091 c-1 -599 0 -1092 2 -1095 3 -2 21 -1 40 4 19 5 46 12 61 15 19 4 40 26 72 75 25 37 53 74 62 82 9 7 20 24 25 37 5 13 13 21 18 18 8 -5 39 23 34 31 -2 1 -1 2 0 1 7 -5 37 24 32 31 -2 4 29 41 70 81 41 40 72 76 70 80 -2 4 25 35 61 71 36 35 70 74 75 87 5 12 15 22 23 22 7 0 16 9 19 21 3 12 10 18 15 15 5 -3 15 1 22 9 7 8 9 15 4 15 -5 0 31 40 79 88 48 48 85 90 82 93 -3 3 4 14 15 24 22 20 28 59 8 53 -7 -3 -44 -43 -81 -89 -67 -82 -117 -137 -296 -324 -47 -50 -117 -127 -155 -173 -55 -66 -74 -82 -96 -82 -15 0 -33 6 -39 14 -8 10 -12 251 -14 872 -2 539 -7 877 -14 906 -5 27 -17 56 -26 66 -10 10 -17 26 -17 36 0 23 -61 103 -82 109 -13 4 -24 -8 -42 -49z"/>
<path d="M8682 10447 c-34 -34 -62 -71 -62 -82 0 -19 -76 -105 -93 -105 -11 0 -67 -56 -67 -67 0 -5 -54 -62 -120 -128 -73 -72 -120 -128 -120 -139 0 -20 -76 -106 -93 -106 -11 0 -67 -56 -67 -67 0 -4 -42 -49 -92 -101 -84 -83 -93 -96 -93 -130 0 -28 -4 -36 -15 -35 -9 2 -40 -22 -70 -52 -30 -30 -58 -55 -63 -55 -10 0 -107 -96 -107 -107 0 -4 -37 -45 -82 -90 -69 -70 -80 -84 -69 -97 16 -19 7 -48 -11 -41 -7 3 -38 -19 -68 -50 -35 -35 -63 -55 -77 -55 -13 0 -37 -15 -56 -33 -93 -98 -210 -228 -238 -267 -18 -25 -69 -81 -113 -125 -104 -103 -246 -259 -284 -311 -37 -51 -85 -100 -186 -189 -43 -39 -127 -118 -187 -177 -85 -84 -109 -113 -110 -135 0 -15 -1 -932 -2 -2036 -2 -1900 -3 -2009 -19 -2021 -34 -25 -23 -71 28 -118 55 -51 54 -51 77 -34 14 11 15 19 8 39 -15 40 -1 40 44 -2 43 -40 93 -72 81 -52 -11 17 -7 3874 4 3885 6 6 10 29 10 52 0 44 33 119 69 159 10 11 27 36 36 55 10 19 33 53 51 74 19 22 34 44 34 49 0 13 75 97 212 238 65 67 116 124 115 128 -2 9 128 152 285 313 65 66 116 123 115 127 -2 9 128 152 285 313 65 66 116 123 115 127 -3 9 130 154 285 312 65 66 117 123 115 128 -3 9 135 160 271 297 56 57 114 120 128 141 14 21 60 76 102 123 42 47 83 92 90 101 18 24 5 48 -25 46 -21 -2 -26 3 -28 23 -3 36 23 74 41 59 11 -9 14 -7 14 10 0 14 20 41 52 70 47 43 51 50 39 65 -11 13 -11 20 -3 28 17 17 15 48 -3 53 -51 16 -49 14 -30 35 40 44 6 16 -53 -43z"/>
<path d="M7040 9070 c0 -5 5 -10 10 -10 6 0 10 5 10 10 0 6 -4 10 -10 10 -5 0 -10 -4 -10 -10z"/>
<path d="M6920 8930 c0 -5 5 -10 10 -10 6 0 10 5 10 10 0 6 -4 10 -10 10 -5 0 -10 -4 -10 -10z"/>
<path d="M6640 8630 c0 -5 5 -10 10 -10 6 0 10 5 10 10 0 6 -4 10 -10 10 -5 0 -10 -4 -10 -10z"/>
<path d="M6520 8490 c0 -5 5 -10 10 -10 6 0 10 5 10 10 0 6 -4 10 -10 10 -5 0 -10 -4 -10 -10z"/>
<path d="M6073 8343 c-17 -37 -16 -43 7 -43 16 0 20 7 20 35 0 42 -10 45 -27 8z"/>
<path d="M6320 8270 c0 -5 5 -10 10 -10 6 0 10 5 10 10 0 6 -4 10 -10 10 -5 0 -10 -4 -10 -10z"/>
<path d="M6060 8250 c0 -5 9 -10 20 -10 11 0 20 5 20 10 0 6 -9 10 -20 10 -11 0 -20 -4 -20 -10z"/>
<path d="M6100 8150 c0 -16 5 -30 10 -30 6 0 10 14 10 30 0 17 -4 30 -10 30 -5 0 -10 -13 -10 -30z"/>
<path d="M6072 7688 c6 -18 28 -21 28 -4 0 9 -7 16 -16 16 -9 0 -14 -5 -12 -12z"/>
<path d="M6072 3773 c-15 -29 -23 -107 -13 -123 15 -23 51 14 46 48 -1 15 -3 42 -4 60 -1 35 -15 42 -29 15z"/>
<path d="M8760 610 c0 -5 5 -10 10 -10 6 0 10 5 10 10 0 6 -4 10 -10 10 -5 0 -10 -4 -10 -10z"/>
</g>
</g>
</svg>
