<?xml version="1.0" standalone="no"?>
<!DOCTYPE svg PUBLIC "-//W3C//DTD SVG 1.1//EN"
 "http://www.w3.org/Graphics/SVG/1.1/DTD/svg11.dtd">
<!-- Created with svg_stack (http://github.com/astraw/svg_stack) -->
<svg xmlns:sodipodi="http://sodipodi.sourceforge.net/DTD/sodipodi-0.dtd" xmlns="http://www.w3.org/2000/svg" version="1.1" width="736.0" height="608.0">
  <defs/>
  <g id="id0:id0" transform="matrix(1.25,0,0,1.25,0.0,0.0)"><g transform="translate(0.000000,486.400000) scale(0.040000,-0.040000)" fill="#ffffff" stroke="none">
<path d="M7080 12049 c-757 -61 -1502 -418 -2043 -978 -520 -540 -836 -1211 -923 -1956 -16 -144 -25 -493 -50 -2025 -9 -547 -18 -998 -21 -1002 -10 -18 -374 185 -583 325 -230 154 -387 279 -596 478 -188 179 -331 266 -534 325 -85 25 -111 28 -250 28 l-155 1 -102 -33 c-447 -146 -677 -595 -577 -1122 8 -46 12 -86 7 -90 -4 -4 -48 1 -98 11 -263 55 -477 25 -678 -95 -251 -150 -408 -384 -447 -667 -7 -46 -16 -92 -21 -101 -12 -23 -12 -133 0 -156 5 -9 14 -61 21 -114 28 -240 141 -552 294 -811 151 -258 388 -513 671 -724 180 -134 467 -314 707 -442 54 -29 107 -60 118 -69 l21 -17 -16 -39 c-29 -69 -55 -231 -55 -340 0 -413 241 -759 654 -938 121 -53 234 -84 406 -114 180 -31 490 -40 960 -27 173 5 318 8 321 6 3 -1 -3 -42 -14 -90 -57 -259 50 -566 284 -817 183 -197 384 -299 686 -351 172 -30 203 -31 374 -5 321 48 554 123 854 272 397 198 714 427 1033 745 106 106 195 193 196 193 2 0 39 -44 84 -98 87 -106 308 -327 413 -415 325 -272 741 -497 1120 -606 448 -129 842 -76 1136 150 181 140 336 374 394 597 25 95 28 279 5 362 -8 30 -12 57 -8 60 4 3 140 2 302 -3 374 -10 720 -3 870 19 354 51 626 172 819 362 182 181 277 394 288 648 6 138 -7 252 -42 361 -16 53 -20 75 -11 81 6 5 94 55 195 112 530 295 863 549 1107 842 249 299 447 735 494 1088 6 47 16 89 21 95 12 12 12 178 0 191 -5 5 -14 45 -20 89 -40 285 -198 522 -447 671 -203 120 -416 150 -679 95 -49 -10 -94 -15 -98 -11 -5 4 -1 44 7 89 49 257 18 518 -85 710 -72 137 -205 274 -334 346 -33 19 -103 49 -155 66 l-95 33 -165 0 c-151 0 -173 -3 -254 -28 -194 -59 -349 -152 -510 -306 -285 -272 -555 -476 -874 -658 -200 -114 -310 -168 -321 -157 -6 6 -16 386 -25 1010 -30 1877 -34 1984 -91 2270 -107 541 -338 1039 -681 1470 -112 141 -357 386 -499 499 -658 526 -1462 772 -2305 705z m470 -649 c520 -39 1026 -242 1435 -575 114 -92 331 -314 417 -425 269 -348 448 -747 527 -1175 44 -234 40 -124 61 -1970 17 -1416 35 -1991 69 -2126 43 -167 113 -297 228 -420 149 -158 309 -251 545 -318 151 -43 261 -56 453 -55 190 1 324 18 505 64 326 81 572 207 977 500 409 296 801 481 1024 484 l86 1 57 -38 c154 -102 176 -290 71 -602 -152 -448 -415 -743 -965 -1082 -226 -139 -545 -313 -574 -313 -9 0 -34 11 -55 24 -21 14 -67 37 -102 52 -147 62 -199 69 -634 94 -272 15 -546 60 -850 140 -82 22 -177 49 -210 60 -168 60 -337 -5 -412 -158 -24 -49 -28 -69 -28 -142 0 -97 19 -150 76 -214 68 -78 155 -113 504 -200 356 -89 682 -135 1095 -152 191 -8 235 -22 321 -101 86 -80 132 -177 137 -293 5 -113 -19 -181 -92 -253 -118 -118 -306 -179 -616 -198 -260 -17 -1313 16 -1529 47 -39 6 -58 20 -150 105 -233 215 -447 446 -623 671 -153 196 -204 232 -338 232 -62 1 -85 -4 -132 -27 -82 -40 -143 -112 -169 -199 -40 -131 -14 -216 117 -383 289 -369 641 -725 1178 -1190 114 -98 124 -131 71 -235 -60 -118 -157 -203 -270 -236 -76 -23 -230 -23 -340 0 -670 139 -1448 793 -1656 1392 -17 50 -37 136 -45 199 -17 134 -53 217 -117 268 -67 55 -105 70 -187 75 -138 8 -242 -53 -302 -176 l-33 -67 2 -105 c1 -110 22 -221 69 -362 30 -92 32 -87 -77 -229 -95 -124 -293 -320 -449 -444 -429 -343 -878 -555 -1261 -595 -150 -16 -277 2 -385 55 -120 59 -236 202 -250 309 l-7 47 64 62 c35 34 161 148 279 252 362 321 639 602 855 870 203 252 220 286 213 419 -5 96 -38 167 -101 222 -67 57 -122 78 -207 78 -122 0 -189 -38 -282 -159 -195 -253 -414 -495 -637 -703 -129 -121 -154 -140 -190 -146 -192 -30 -1337 -64 -1597 -47 -376 25 -585 114 -680 291 -15 28 -19 56 -19 140 l0 105 37 76 c27 55 54 92 97 132 86 79 130 93 321 101 464 20 813 73 1229 187 292 80 360 118 418 237 24 49 28 69 28 142 0 73 -4 93 -28 142 -34 70 -110 140 -174 162 -65 22 -167 20 -239 -4 -162 -56 -460 -125 -714 -165 -144 -23 -219 -30 -630 -54 -182 -11 -272 -35 -418 -111 l-92 -49 -168 91 c-630 339 -973 605 -1174 908 -153 232 -267 568 -256 755 9 139 60 219 173 271 61 29 114 30 220 5 264 -64 653 -271 995 -531 258 -196 529 -336 810 -419 506 -148 993 -110 1364 107 112 65 284 238 345 345 57 102 107 250 120 357 19 152 40 1040 51 2125 10 1084 23 1643 40 1750 81 507 272 950 564 1315 93 115 290 314 403 406 511 417 1161 623 1813 574z m-5305 -4844 c57 -28 103 -64 202 -158 232 -219 421 -370 683 -543 252 -167 514 -311 775 -425 129 -57 135 -62 135 -118 0 -126 -143 -253 -331 -296 -290 -66 -619 -21 -936 129 -189 90 -397 235 -495 347 -252 287 -417 618 -418 837 -1 234 169 334 385 227z m10507 12 c32 -17 50 -37 71 -80 104 -203 -28 -569 -346 -952 -160 -194 -435 -373 -716 -466 -227 -76 -430 -100 -621 -75 -197 25 -311 73 -394 166 -52 57 -69 103 -64 169 l3 45 70 28 c242 100 576 281 835 452 261 173 446 320 681 542 127 119 206 173 285 192 60 16 147 6 196 -21z"/>
<path d="M6655 9947 c-65 -38 -798 -528 -823 -551 -40 -36 -62 -90 -62 -153 0 -74 26 -130 76 -170 68 -52 818 -545 846 -555 65 -23 173 42 221 132 24 46 28 64 25 111 -2 31 -12 69 -22 84 -10 14 -141 108 -292 207 -151 99 -274 184 -274 189 0 5 126 92 280 194 238 157 283 190 295 220 43 103 -17 240 -128 294 -56 27 -92 26 -142 -2z"/>
<path d="M7945 9959 c-81 -23 -165 -139 -165 -227 0 -92 4 -96 310 -297 154 -102 280 -189 280 -194 0 -4 -123 -89 -274 -189 -151 -99 -282 -192 -292 -207 -10 -15 -20 -53 -22 -84 -3 -47 1 -65 25 -111 48 -90 156 -155 221 -132 28 9 775 501 846 556 98 75 105 240 14 322 -27 26 -791 534 -836 558 -34 18 -61 19 -107 5z"/>
</g>
</g>
</svg>
