<?xml version="1.0" standalone="no"?>
<!DOCTYPE svg PUBLIC "-//W3C//DTD SVG 1.1//EN"
 "http://www.w3.org/Graphics/SVG/1.1/DTD/svg11.dtd">
<!-- Created with svg_stack (http://github.com/astraw/svg_stack) -->
<svg xmlns:sodipodi="http://sodipodi.sourceforge.net/DTD/sodipodi-0.dtd" xmlns="http://www.w3.org/2000/svg" version="1.1" width="700.0" height="650.0">
  <defs/>
  <g id="id0:id0" transform="matrix(1.25,0,0,1.25,0.0,0.0)"><g transform="translate(0.000000,520.000000) scale(0.040000,-0.040000)" fill="#015289" stroke="none">
<path d="M4285 12188 c-16 -46 -119 -388 -123 -410 -8 -51 -17 -53 -271 -53 -174 0 -236 -3 -236 -12 0 -6 89 -73 197 -147 l197 -136 -60 -173 c-34 -94 -70 -197 -80 -227 -23 -64 -19 -86 11 -70 11 6 97 69 191 141 94 72 176 132 183 135 7 3 35 -12 62 -32 220 -169 336 -254 344 -254 17 0 11 23 -56 216 -94 269 -89 251 -74 269 7 9 96 73 197 142 100 70 183 133 183 141 0 13 -36 14 -241 10 -218 -4 -242 -3 -251 12 -6 9 -41 115 -77 235 -60 200 -83 250 -96 213z"/>
<path d="M6093 12188 c-6 -7 -39 -107 -73 -223 -35 -115 -67 -217 -71 -226 -7 -14 -35 -15 -254 -11 -205 4 -245 3 -245 -9 0 -8 89 -75 196 -149 107 -73 197 -137 199 -140 4 -6 -3 -28 -94 -290 -61 -174 -65 -210 -22 -179 11 8 98 74 193 147 96 72 178 132 182 132 4 0 84 -59 177 -130 201 -154 215 -164 228 -156 6 4 -9 62 -40 149 -93 264 -110 317 -104 327 3 5 50 40 103 77 246 169 294 205 284 215 -7 7 -92 9 -247 6 -162 -3 -238 -1 -244 6 -5 6 -39 113 -77 239 -37 125 -71 227 -75 227 -3 0 -11 -6 -16 -12z"/>
<path d="M7892 12183 c-5 -10 -38 -112 -72 -228 -35 -115 -67 -215 -71 -221 -6 -7 -84 -9 -249 -6 -212 4 -240 3 -240 -11 0 -9 81 -71 190 -146 104 -72 192 -136 195 -142 4 -6 2 -22 -4 -37 -37 -94 -141 -406 -141 -422 0 -11 4 -20 9 -20 5 0 40 24 77 53 175 134 313 237 319 237 6 0 111 -78 335 -248 53 -40 80 -52 80 -34 0 5 -36 112 -81 238 l-80 229 28 22 c15 13 105 76 200 140 95 65 171 123 169 128 -2 6 -92 10 -244 10 -148 0 -244 4 -250 10 -5 6 -21 53 -36 105 -75 257 -108 360 -117 360 -5 0 -12 -8 -17 -17z"/>
<path d="M9692 12178 c-6 -13 -25 -70 -42 -128 -17 -58 -43 -143 -57 -190 -14 -47 -28 -96 -32 -110 l-7 -25 -247 4 c-282 4 -288 2 -190 -65 162 -110 300 -208 317 -225 l19 -18 -76 -219 c-76 -217 -86 -252 -68 -252 5 0 55 35 112 78 57 43 144 108 193 145 48 37 92 67 95 67 4 0 39 -24 77 -53 231 -176 313 -237 324 -237 17 0 13 15 -73 262 l-76 218 199 137 c110 76 200 144 200 152 0 11 -41 13 -246 9 l-246 -4 -8 20 c-5 12 -22 66 -39 121 -73 245 -102 335 -110 335 -4 0 -13 -10 -19 -22z"/>
<path d="M6556 10555 c4 -8 10 -12 15 -9 14 8 10 24 -6 24 -9 0 -12 -6 -9 -15z"/>
<path d="M9320 6270 c0 -5 5 -10 10 -10 6 0 10 5 10 10 0 6 -4 10 -10 10 -5 0 -10 -4 -10 -10z"/>
<path d="M6555 4431 c-7 -22 0 -41 16 -41 11 0 12 30 0 49 -7 11 -10 9 -16 -8z"/>
<path d="M7425 4400 c-3 -5 -2 -10 4 -10 5 0 13 5 16 10 3 6 2 10 -4 10 -5 0 -13 -4 -16 -10z"/>
<path d="M9800 3409 c-41 -5 -105 -18 -142 -29 -189 -57 -236 -175 -245 -607 -4 -195 -2 -260 11 -338 38 -221 92 -289 268 -337 75 -21 105 -23 303 -22 197 0 229 2 310 23 109 28 131 39 178 88 83 85 111 254 104 620 -5 272 -15 343 -65 440 -48 95 -137 142 -312 163 -98 12 -302 11 -410 -1z m406 -244 c63 -19 81 -38 96 -104 17 -78 18 -546 0 -622 -25 -107 -76 -129 -303 -129 -297 0 -309 15 -310 420 -1 245 9 354 36 396 27 41 162 65 328 58 59 -3 128 -11 153 -19z"/>
<path d="M12065 3409 c-200 -26 -275 -89 -306 -254 -13 -69 -7 -262 10 -316 42 -139 155 -181 536 -204 219 -13 245 -30 245 -165 0 -155 -30 -175 -265 -174 -229 0 -257 14 -271 130 -3 27 -7 59 -10 72 l-5 23 -122 -3 -122 -3 1 -110 c0 -92 4 -119 24 -163 56 -129 180 -172 500 -172 316 0 445 44 504 170 19 41 21 63 21 240 l0 195 -25 45 c-52 92 -171 131 -465 150 -194 13 -233 21 -262 55 -20 23 -23 37 -23 109 0 140 33 160 265 160 184 -1 206 -13 222 -124 l8 -55 130 0 130 0 3 64 c3 74 -25 182 -59 225 -32 41 -91 74 -161 92 -77 18 -401 27 -503 13z"/>
<path d="M1202 3398 c-9 -9 -12 -167 -12 -652 0 -353 4 -647 8 -654 7 -9 40 -12 133 -10 l124 3 3 269 c1 178 6 274 13 283 9 10 68 13 279 13 245 0 268 -1 283 -18 14 -16 17 -54 19 -283 l3 -264 130 0 130 0 3 654 c2 517 0 656 -10 663 -15 9 -219 11 -242 2 -14 -5 -16 -37 -16 -254 0 -198 -3 -250 -14 -259 -9 -8 -95 -11 -292 -9 l-279 3 -3 255 c-2 188 -6 256 -15 262 -20 13 -231 10 -245 -4z"/>
<path d="M2542 3402 c-10 -7 -12 -146 -10 -663 l3 -654 125 0 125 0 3 654 c2 517 0 656 -10 663 -7 4 -60 8 -118 8 -58 0 -111 -4 -118 -8z"/>
<path d="M3022 3402 c-10 -6 -12 -146 -10 -663 l3 -654 125 0 125 0 3 204 c2 137 6 209 14 218 9 12 50 14 212 11 229 -3 252 -10 290 -83 18 -34 22 -63 26 -195 l5 -155 130 0 130 0 0 195 0 195 -24 49 c-16 31 -41 60 -74 84 -53 39 -54 38 12 74 70 39 101 134 101 313 0 235 -53 339 -199 387 -62 20 -88 22 -461 25 -217 2 -401 0 -408 -5z m736 -246 c43 -22 57 -70 56 -191 -1 -117 -17 -166 -63 -190 -26 -13 -66 -15 -253 -13 l-223 3 0 200 0 199 23 6 c13 3 114 4 226 4 164 -2 209 -5 234 -18z"/>
<path d="M4252 3402 c-10 -7 -12 -146 -10 -663 l3 -654 457 -3 456 -2 7 51 c4 28 4 80 0 115 l-7 64 -307 0 c-231 0 -311 3 -324 13 -16 11 -17 30 -15 172 l3 160 303 3 302 2 0 99 0 99 -32 6 c-18 3 -151 6 -296 6 -145 0 -267 2 -273 5 -12 8 -12 282 1 290 6 3 134 6 285 6 151 -1 293 2 315 5 l40 7 0 107 c0 89 -3 109 -16 114 -24 9 -877 7 -892 -2z"/>
<path d="M5827 3399 c-16 -9 -17 -49 -17 -627 1 -339 3 -634 7 -654 l6 -38 128 0 129 0 0 274 c0 220 3 276 14 285 9 8 95 11 292 9 l279 -3 5 -280 c3 -154 7 -281 8 -282 1 -2 60 -3 131 -3 l128 0 7 38 c3 20 6 315 6 654 l0 617 -19 11 c-30 16 -236 13 -250 -3 -7 -9 -12 -99 -13 -263 l-3 -249 -290 0 -290 0 -5 260 -5 260 -115 2 c-66 2 -122 -2 -133 -8z"/>
<path d="M7142 3402 c-10 -7 -12 -146 -10 -663 l3 -654 453 -3 452 -2 1 22 c1 13 3 41 5 63 2 22 1 64 -2 93 l-5 52 -308 0 c-286 0 -309 1 -324 18 -14 16 -17 43 -17 163 0 100 4 149 12 157 9 9 90 12 304 12 257 0 293 2 298 16 10 26 7 154 -4 175 l-11 19 -290 0 -289 0 -11 28 c-14 37 -8 247 8 264 10 9 77 11 275 10 145 -2 284 0 311 4 l47 6 0 108 c0 89 -3 109 -16 114 -24 9 -867 7 -882 -2z"/>
<path d="M8222 3402 c-10 -6 -12 -146 -10 -663 l3 -654 130 0 130 0 5 215 5 215 210 0 210 0 31 -22 c63 -45 69 -64 72 -223 1 -80 5 -155 7 -167 l5 -23 131 0 130 0 -3 208 -3 207 -27 41 c-25 38 -47 60 -94 91 l-19 13 23 17 c68 51 102 88 114 121 9 25 13 95 13 222 l0 185 -30 60 c-35 70 -90 116 -168 141 -44 15 -110 18 -452 21 -220 2 -406 0 -413 -5z m734 -242 c48 -19 59 -54 59 -185 0 -103 -3 -125 -21 -155 -34 -58 -45 -60 -289 -57 l-220 2 -3 198 -2 197 19 8 c27 10 428 3 457 -8z"/>
<path d="M10728 3400 c-15 -9 -17 -60 -17 -623 0 -336 2 -631 5 -655 l6 -42 452 2 451 3 3 113 3 112 -304 0 c-231 0 -307 3 -321 13 -15 11 -17 31 -17 166 0 85 4 158 8 162 5 5 141 10 303 11 l295 3 3 96 3 96 -38 7 c-21 3 -156 6 -300 6 -191 0 -264 3 -269 12 -11 17 -5 271 7 283 6 6 126 10 310 10 255 0 301 2 309 15 5 8 10 58 10 111 0 79 -3 98 -16 103 -27 10 -868 6 -886 -4z"/>
<path d="M6383 1282 c-9 -6 -13 -58 -14 -188 -2 -262 10 -279 196 -279 187 0 199 16 202 264 1 99 -2 182 -8 193 -12 22 -71 25 -91 5 -10 -10 -14 -58 -16 -178 -2 -95 -8 -169 -14 -176 -14 -17 -130 -17 -146 -1 -8 8 -12 64 -12 184 0 147 -2 173 -16 178 -22 8 -67 7 -81 -2z"/>
<path d="M6883 1283 c-12 -2 -34 -18 -48 -34 -21 -26 -25 -40 -25 -98 0 -106 41 -141 165 -141 72 0 100 -17 100 -60 0 -40 -23 -50 -100 -41 -45 5 -52 10 -65 39 -13 30 -17 33 -55 30 l-40 -3 -3 -48 c-6 -90 62 -126 221 -115 86 6 123 22 143 60 18 35 37 28 24 -8 -14 -36 -5 -44 50 -44 l48 0 16 40 16 40 85 0 85 0 16 -40 16 -40 48 0 c27 0 51 4 54 8 8 13 -140 443 -155 453 -8 5 -40 9 -71 9 -47 0 -60 -4 -70 -20 -7 -11 -37 -95 -68 -187 -30 -93 -59 -167 -65 -166 -5 1 -13 30 -16 65 -8 79 -33 104 -116 113 -143 16 -148 18 -151 50 -5 39 19 55 80 55 44 0 51 -3 66 -30 15 -26 23 -30 60 -30 50 0 59 14 46 68 -6 24 -20 44 -43 59 -30 20 -45 23 -130 22 -53 -1 -106 -4 -118 -6z m565 -212 c12 -35 19 -68 16 -72 -7 -12 -91 -12 -98 0 -5 7 11 63 39 140 8 22 20 3 43 -68z"/>
</g>
</g>
  <g id="id1:id1" transform="matrix(1.25,0,0,1.25,0.0,0.0)"><g transform="translate(0.000000,520.000000) scale(0.040000,-0.040000)" fill="#e41b23" stroke="none">
<path d="M3663 10582 c-16 -2 -24 -12 -28 -35 -3 -18 -4 -610 -3 -1317 l3 -1285 37 -86 c32 -75 79 -165 173 -334 40 -72 230 -379 276 -447 21 -31 39 -59 39 -61 0 -5 277 -420 411 -616 84 -123 115 -155 124 -129 3 7 6 373 8 813 l2 800 405 0 405 0 5 -1295 c3 -712 6 -1296 8 -1297 2 -2 514 -456 802 -712 228 -202 238 -210 251 -190 11 17 12 6159 1 6176 -6 10 -128 13 -525 14 -285 1 -521 -2 -525 -6 -4 -4 -9 -365 -12 -803 l-5 -797 -405 0 -405 0 -3 795 c-1 437 -6 798 -11 803 -8 8 -976 16 -1028 9z"/>
<path d="M7443 10582 c-17 -3 -23 -10 -23 -30 -3 -756 2 -6167 6 -6171 12 -12 31 3 449 374 110 98 268 237 350 310 83 73 175 155 205 183 l55 49 5 1294 5 1294 405 0 405 0 5 -807 c3 -443 9 -810 13 -815 5 -4 18 4 30 18 24 28 219 312 252 366 11 17 50 76 86 130 64 95 173 263 273 419 114 179 252 419 323 562 67 136 76 161 84 235 10 90 8 2571 -2 2581 -9 9 -1038 10 -1047 2 -4 -4 -9 -366 -12 -804 l-5 -797 -405 0 -405 0 -5 797 c-3 438 -8 799 -11 803 -7 6 -994 13 -1036 7z"/>
</g>
</g>
  <g id="id2:id2" transform="matrix(1.25,0,0,1.25,0.0,0.0)"><g transform="translate(0.000000,520.000000) scale(0.040000,-0.040000)" fill="#ffffff" stroke="none">
<path d="M0 6500 l0 -6500 7000 0 7000 0 0 6500 0 6500 -7000 0 -7000 0 0 -6500z m7982 5430 l64 -215 231 0 c127 0 234 -3 238 -6 3 -4 -72 -61 -167 -127 -95 -66 -181 -126 -191 -134 l-19 -13 76 -219 c42 -120 73 -222 70 -227 -3 -5 -38 17 -78 49 -140 108 -256 196 -280 211 l-24 15 -124 -94 c-67 -51 -151 -115 -185 -142 -34 -27 -64 -45 -67 -40 -3 5 29 107 71 227 l77 218 -21 16 c-11 9 -98 69 -192 135 -95 65 -169 121 -166 125 4 3 111 6 238 6 l232 0 67 220 c37 121 67 222 67 225 3 23 29 -49 83 -230z m-3606 2 c35 -114 63 -211 64 -216 0 -5 98 -7 235 -3 129 3 237 2 240 -3 2 -4 -37 -36 -88 -70 -210 -144 -287 -202 -286 -218 0 -10 33 -109 73 -222 41 -113 72 -208 69 -212 -4 -8 -22 4 -232 165 -78 59 -146 107 -151 107 -5 0 -69 -46 -142 -102 -73 -56 -153 -117 -177 -135 -25 -20 -48 -30 -53 -25 -5 5 21 94 62 211 39 112 70 210 68 219 -3 17 -20 30 -173 134 -145 99 -196 138 -190 147 3 5 108 6 234 3 l229 -5 25 84 c14 46 42 140 63 209 35 121 51 156 62 145 3 -3 34 -99 68 -213z m1798 13 c31 -104 61 -201 67 -214 l10 -24 229 6 c127 3 232 2 235 -3 3 -5 -7 -17 -22 -27 -229 -158 -353 -246 -353 -252 0 -4 33 -104 74 -221 41 -118 72 -218 70 -222 -3 -4 -62 36 -132 89 -70 53 -152 116 -184 140 -31 24 -60 43 -65 43 -5 0 -34 -19 -64 -42 -31 -24 -111 -85 -179 -136 -67 -52 -126 -90 -131 -85 -4 4 25 102 65 218 41 115 72 214 70 220 -2 5 -37 32 -77 59 -186 126 -297 208 -292 216 3 5 108 6 233 3 l228 -6 12 29 c6 16 34 108 63 204 55 188 66 217 79 204 4 -5 33 -94 64 -199z m3610 -15 c32 -107 63 -201 70 -209 9 -12 50 -13 238 -8 125 3 230 2 233 -3 3 -4 -10 -17 -28 -28 -17 -12 -50 -34 -72 -49 -22 -16 -76 -54 -120 -84 -44 -29 -98 -67 -120 -84 -22 -16 -41 -30 -43 -30 -1 -1 32 -98 73 -216 42 -117 73 -220 70 -228 -4 -11 -11 -9 -33 11 -37 35 -320 248 -337 254 -8 4 -67 -35 -142 -93 -218 -167 -238 -181 -246 -176 -5 3 -5 12 -2 22 24 58 145 407 145 417 0 11 -142 115 -318 233 -34 23 -60 46 -57 51 3 4 108 6 235 3 l229 -6 11 24 c5 13 35 107 65 209 31 102 58 191 61 199 11 32 32 -19 88 -209z m-5104 -2170 l5 -805 428 -3 427 -2 0 799 c0 662 2 800 14 810 9 8 152 10 512 9 l499 -3 3 -3069 c1 -2053 -1 -3073 -8 -3080 -7 -7 -26 5 -58 35 -26 25 -83 76 -126 115 -44 38 -161 141 -260 229 -100 88 -197 174 -215 190 -19 17 -60 53 -90 80 -31 28 -71 64 -90 80 -85 73 -157 139 -168 153 -10 13 -13 290 -13 1314 l0 1298 -427 -2 -428 -3 -3 -795 c-1 -437 -6 -798 -10 -802 -5 -5 -28 20 -52 54 -552 804 -886 1351 -950 1557 l-20 63 0 1282 c0 989 3 1285 12 1294 9 9 132 12 513 10 l500 -3 5 -805z m3779 797 c8 -10 12 -242 13 -808 l3 -794 423 -3 c232 -1 423 -1 424 0 2 2 5 365 8 808 l5 805 499 3 c360 1 503 -1 512 -9 12 -10 14 -223 14 -1296 l0 -1284 -20 -60 c-44 -129 -245 -492 -438 -789 -308 -474 -552 -831 -563 -824 -5 3 -9 359 -9 792 0 433 -4 793 -8 800 -7 10 -99 12 -428 10 l-419 -3 -5 -1303 -5 -1304 -30 -25 c-16 -14 -43 -37 -60 -52 -16 -14 -68 -60 -116 -101 -47 -41 -146 -129 -220 -195 -474 -423 -591 -525 -600 -519 -5 3 -9 1374 -9 3073 0 2372 3 3070 12 3079 19 19 1001 17 1017 -1z m1802 -7171 c180 -32 249 -96 288 -266 48 -214 36 -650 -24 -831 -48 -145 -193 -199 -531 -199 -377 0 -492 60 -540 282 -38 178 -35 561 6 750 39 177 92 224 300 263 90 18 406 18 501 1z m2314 -10 c88 -25 128 -55 161 -121 23 -48 27 -70 28 -143 l1 -87 -110 0 -110 0 -3 25 c-7 55 -35 121 -58 136 -56 37 -341 37 -413 0 -46 -24 -64 -75 -59 -171 5 -135 22 -143 323 -165 301 -22 395 -57 440 -162 21 -53 21 -343 0 -416 -42 -140 -160 -182 -509 -182 -293 0 -408 35 -460 138 -26 51 -50 176 -44 232 l3 35 110 0 110 0 8 -55 c20 -147 31 -153 262 -158 203 -5 243 3 282 54 23 31 27 47 30 117 3 65 0 89 -14 117 -30 58 -68 70 -280 85 -212 16 -327 36 -393 69 -36 18 -51 34 -75 81 l-30 59 0 160 c0 147 2 166 23 212 60 133 162 165 507 160 159 -2 224 -7 270 -20z m-11135 -251 l5 -260 305 0 305 0 5 260 5 260 115 0 115 0 0 -640 0 -640 -115 0 -115 0 -3 278 -2 277 -308 -2 -307 -3 -5 -275 -5 -275 -110 0 -110 0 -3 630 c-1 347 0 636 3 643 3 9 32 12 112 10 l108 -3 5 -260z m1335 -380 l0 -640 -115 0 -115 0 -3 630 c-1 347 0 636 3 643 3 9 33 12 117 10 l113 -3 0 -640z m1115 621 c67 -22 140 -92 158 -152 26 -88 34 -193 22 -303 -17 -160 -48 -209 -159 -247 -45 -15 -55 -44 -15 -44 47 0 110 -45 136 -97 22 -45 23 -59 23 -233 l0 -185 -115 0 -115 0 -5 155 c-3 85 -10 167 -17 181 -16 36 -67 77 -113 89 -23 6 -119 9 -232 8 l-193 -3 -5 -215 -5 -215 -115 0 -115 0 -3 630 c-1 347 0 636 3 643 4 11 82 13 407 10 355 -4 410 -6 458 -22z m1245 -76 l0 -95 -314 -3 c-237 -2 -317 -5 -323 -15 -9 -14 -11 -288 -2 -311 5 -14 41 -16 299 -16 240 0 295 -3 304 -14 7 -9 11 -41 9 -83 l-3 -68 -302 -3 -303 -2 -5 -23 c-3 -12 -4 -96 -3 -187 l3 -165 314 -3 c217 -1 319 -6 328 -14 10 -8 13 -34 11 -97 l-3 -86 -440 0 -440 0 -3 630 c-1 347 0 636 3 643 3 10 96 12 437 10 l433 -3 0 -95z m935 -165 l5 -260 303 -3 c166 -1 303 -1 304 0 1 2 5 120 8 263 l5 260 115 0 115 0 0 -640 0 -640 -115 0 -115 0 -5 275 c-3 151 -7 276 -8 278 -1 1 -139 2 -307 2 l-305 0 -2 -277 -3 -278 -115 0 -115 0 -3 630 c-1 347 0 636 3 643 3 9 33 12 117 10 l113 -3 5 -260z m1945 165 l0 -95 -317 -3 -318 -2 0 -170 0 -170 303 -2 302 -3 0 -80 0 -80 -302 -3 -303 -2 0 -190 0 -190 314 0 c257 0 316 -3 325 -14 8 -9 11 -45 9 -98 l-3 -83 -440 0 -440 0 -3 630 c-1 347 0 636 3 643 3 10 96 12 437 10 l433 -3 0 -95z m1030 85 c141 -30 202 -97 225 -248 15 -95 8 -259 -15 -334 -18 -62 -67 -107 -135 -127 -52 -15 -69 -46 -25 -46 41 0 103 -37 130 -78 33 -50 46 -147 43 -307 l-3 -130 -115 0 -115 0 -5 150 c-6 164 -14 191 -70 239 -48 40 -92 47 -302 44 l-193 -3 -5 -215 -5 -215 -115 0 -115 0 -3 630 c-1 347 0 636 3 643 7 19 726 17 820 -3z m2560 -85 l0 -95 -315 -5 -315 -5 0 -165 0 -165 300 -5 300 -5 0 -80 0 -80 -300 -5 -300 -5 -3 -187 -2 -188 322 -2 323 -3 0 -95 0 -95 -440 0 -440 0 -3 630 c-1 347 0 636 3 643 3 10 96 12 437 10 l433 -3 0 -95z m-4540 -2020 c70 -11 98 -36 93 -84 -2 -25 -8 -32 -30 -34 -21 -3 -30 3 -42 27 -18 34 -62 48 -121 37 -44 -9 -65 -30 -65 -66 0 -45 21 -58 107 -65 96 -8 140 -21 153 -45 6 -10 10 -48 10 -84 0 -54 -4 -69 -24 -93 l-24 -28 -126 0 c-115 0 -127 2 -147 22 -14 13 -22 35 -23 60 -1 36 1 38 28 38 22 0 33 -7 46 -30 l17 -30 75 -3 c59 -2 79 1 92 13 20 21 21 79 1 95 -9 7 -61 19 -117 26 -64 9 -107 19 -119 30 -37 34 -34 161 5 194 14 11 83 26 131 29 11 0 47 -3 80 -9z m-605 -177 c3 -120 9 -176 18 -185 7 -7 43 -14 80 -16 107 -6 106 -7 112 200 l5 173 35 0 35 0 3 -163 c1 -95 -2 -180 -8 -203 -16 -59 -54 -72 -192 -67 -127 4 -146 15 -159 95 -10 61 -11 327 -2 337 4 4 21 6 38 4 l30 -3 5 -172z m1082 -23 c37 -107 66 -204 65 -215 -1 -14 -11 -21 -30 -23 -24 -3 -30 2 -43 35 -9 21 -21 41 -28 45 -6 4 -50 8 -99 8 l-87 0 -11 -27 c-6 -16 -14 -35 -19 -43 -8 -17 -58 -26 -71 -13 -9 9 115 396 134 421 7 9 29 12 66 10 l56 -3 67 -195z"/>
<path d="M9822 3190 c-58 -12 -104 -40 -120 -72 -24 -51 -34 -187 -30 -435 3 -230 5 -251 25 -296 18 -39 31 -52 70 -70 44 -20 63 -22 233 -22 l185 0 50 25 c55 28 70 50 85 132 17 86 23 363 12 493 -15 166 -26 194 -88 225 -46 23 -61 25 -214 27 -91 1 -185 -2 -208 -7z"/>
<path d="M3260 2965 l0 -225 225 0 c251 0 276 5 316 61 22 31 24 46 27 159 3 105 0 131 -15 160 -33 65 -58 70 -320 70 l-233 0 0 -225z"/>
<path d="M8464 3177 c-2 -7 -3 -107 -2 -222 l3 -210 224 -3 c208 -2 227 -1 266 18 63 31 80 76 79 215 0 134 -16 178 -68 200 -48 20 -494 22 -502 2z"/>
<path d="M7370 1089 c-36 -116 -35 -119 45 -119 82 0 83 4 44 116 -19 54 -39 99 -46 101 -7 3 -24 -34 -43 -98z"/>
</g>
</g>
</svg>
