<?xml version="1.0" standalone="no"?>
<!DOCTYPE svg PUBLIC "-//W3C//DTD SVG 1.1//EN"
 "http://www.w3.org/Graphics/SVG/1.1/DTD/svg11.dtd">
<!-- Created with svg_stack (http://github.com/astraw/svg_stack) -->
<svg xmlns:sodipodi="http://sodipodi.sourceforge.net/DTD/sodipodi-0.dtd" xmlns="http://www.w3.org/2000/svg" version="1.1" width="1532.0" height="2210.0">
  <defs/>
  <g id="id0:id0" transform="matrix(1.25,0,0,1.25,0.0,0.0)"><g transform="translate(0.000000,1768.000000) scale(0.040000,-0.040000)" fill="#ffffff" stroke="none">
<path d="M14025 44191 c-6 -5 -125 -37 -265 -71 -140 -34 -347 -83 -460 -111 -113 -27 -347 -83 -520 -125 -423 -101 -601 -155 -737 -221 -193 -94 -267 -193 -366 -498 -198 -605 -291 -1003 -382 -1620 -89 -609 -112 -1301 -50 -1570 7 -33 30 -98 49 -143 42 -97 42 -103 17 -126 -17 -16 -40 -16 -258 -10 -174 5 -267 3 -339 -6 -256 -33 -615 -188 -800 -346 -65 -56 -151 -176 -219 -306 -65 -125 -231 -530 -325 -793 -15 -44 -74 -204 -130 -355 -115 -310 -520 -1456 -670 -1895 -61 -177 -214 -628 -250 -735 -22 -66 -289 -850 -354 -1040 -217 -634 -305 -896 -590 -1750 -318 -956 -450 -1355 -579 -1755 -36 -110 -91 -279 -122 -375 -31 -96 -93 -290 -137 -430 -43 -140 -106 -340 -139 -443 -242 -766 -258 -883 -161 -1182 43 -131 226 -498 396 -794 246 -426 331 -518 613 -660 401 -200 1089 -397 1548 -441 61 -6 134 -15 164 -20 30 -6 74 -10 97 -10 24 0 46 -4 49 -10 3 -5 -35 -64 -85 -130 -149 -198 -216 -305 -314 -500 -136 -274 -225 -488 -321 -773 -174 -519 -217 -821 -236 -1667 l-10 -455 51 -145 c148 -418 241 -810 304 -1280 16 -119 37 -358 56 -634 16 -231 13 -1069 -5 -1511 -8 -209 -19 -501 -25 -650 -5 -148 -14 -333 -20 -410 -6 -77 -26 -378 -45 -670 -33 -490 -61 -766 -100 -987 -8 -49 -22 -127 -30 -175 -14 -78 -35 -179 -81 -392 -83 -379 -299 -1070 -599 -1921 -53 -151 -115 -327 -137 -390 -22 -63 -62 -169 -90 -235 -156 -377 -238 -635 -307 -960 -42 -198 -72 -405 -136 -925 -141 -1151 -311 -2177 -421 -2536 -78 -257 -167 -416 -344 -614 -220 -246 -638 -886 -866 -1325 -105 -201 -142 -284 -192 -425 l-37 -105 1 -160 c2 -224 28 -320 123 -450 77 -105 496 -512 686 -666 134 -109 372 -275 500 -349 17 -10 62 -36 100 -58 39 -22 102 -50 140 -63 150 -47 272 -176 509 -539 59 -91 117 -178 128 -194 15 -21 18 -34 11 -44 -12 -19 -597 -319 -708 -364 -67 -27 -94 -32 -165 -32 l-85 -1 -150 66 c-172 77 -251 100 -425 129 -191 31 -378 39 -1250 55 -443 8 -843 19 -890 25 -378 48 -529 91 -1040 298 -468 189 -671 252 -876 274 -127 13 -196 2 -301 -49 -92 -45 -226 -188 -379 -403 -394 -556 -646 -1045 -802 -1560 -55 -183 -60 -204 -96 -375 -32 -154 -53 -306 -71 -527 -8 -98 -19 -208 -25 -245 -6 -38 -12 -117 -13 -178 -2 -160 29 -243 115 -305 142 -103 1130 -408 1833 -565 66 -15 143 -33 170 -40 81 -22 487 -102 655 -129 271 -44 398 -57 470 -46 36 6 126 19 200 30 74 10 203 30 285 44 83 14 222 37 310 51 155 25 208 35 610 110 105 20 240 45 300 56 128 24 857 170 1320 264 834 171 1570 314 1870 364 33 6 112 19 175 31 130 23 437 65 550 75 125 11 336 57 465 100 22 7 92 32 155 55 149 54 290 82 372 74 153 -14 271 -55 403 -141 93 -61 149 -109 340 -291 88 -85 186 -169 217 -188 278 -169 668 -157 1506 47 578 141 679 163 897 200 279 48 568 53 778 15 45 -8 123 -20 174 -26 50 -5 115 -15 145 -20 86 -17 597 -59 803 -66 208 -7 417 6 518 32 87 22 135 53 200 129 95 111 143 202 234 445 108 287 383 882 669 1450 91 179 168 332 173 340 4 8 14 26 21 40 8 14 36 66 63 115 27 50 72 133 100 185 28 52 72 130 99 173 26 43 48 80 48 81 0 8 108 182 186 298 92 138 176 234 195 222 20 -12 3 -133 -35 -254 -170 -540 -220 -839 -220 -1315 1 -512 58 -751 236 -980 152 -197 347 -316 918 -560 515 -220 1002 -471 1313 -677 32 -21 60 -38 62 -38 2 0 52 -32 111 -71 165 -110 322 -195 420 -227 275 -90 507 -36 1309 305 149 63 308 130 355 150 47 19 114 48 150 63 58 25 299 126 545 230 283 119 679 270 895 340 440 145 739 221 1235 315 822 157 1199 249 1306 319 142 95 161 306 67 741 -27 123 -110 447 -137 530 -5 17 -37 122 -71 235 -78 261 -238 746 -302 915 -165 438 -292 667 -538 975 -127 158 -261 352 -343 496 -135 237 -204 459 -143 459 23 0 60 -59 99 -155 80 -199 297 -521 586 -869 47 -56 124 -149 171 -206 47 -56 119 -142 160 -191 226 -266 517 -699 708 -1050 209 -386 361 -721 625 -1379 214 -533 255 -629 348 -821 211 -438 355 -585 614 -624 101 -15 184 -8 400 35 589 118 1593 447 1921 630 72 41 146 116 165 171 21 59 18 578 -4 694 -9 47 -21 114 -26 150 -9 59 -29 158 -82 405 -11 50 -26 122 -34 160 -42 200 -66 311 -120 545 -110 476 -266 1081 -340 1315 -7 22 -25 81 -40 130 -138 460 -304 843 -438 1014 -44 57 -248 249 -322 304 -24 18 -87 68 -141 113 -183 149 -675 519 -1059 796 -155 112 -209 150 -275 196 -41 28 -127 88 -190 133 -160 114 -566 384 -680 454 -52 32 -102 64 -110 70 -8 7 -51 32 -95 56 -105 56 -142 57 -245 5 -230 -117 -648 -440 -1165 -900 -315 -280 -366 -323 -447 -371 -125 -74 -175 -69 -165 15 5 45 68 201 92 230 16 20 190 311 250 420 44 80 297 588 363 730 17 36 67 142 112 235 152 315 340 734 492 1100 61 145 150 391 161 442 14 66 2 93 -84 195 -101 118 -429 431 -649 619 -125 106 -256 215 -319 264 -34 28 -86 68 -115 91 -201 159 -434 307 -519 330 -90 24 -189 18 -346 -22 -79 -19 -166 -44 -195 -56 -28 -11 -98 -37 -156 -58 -58 -21 -177 -66 -265 -100 -451 -175 -552 -185 -920 -91 -343 88 -593 183 -714 271 l-44 32 6 67 c5 54 56 299 122 581 16 70 118 502 150 635 195 817 441 1876 525 2255 10 47 37 166 60 265 23 99 52 232 66 295 14 63 32 142 39 175 8 33 35 152 60 265 25 113 66 293 91 400 25 107 56 245 70 305 14 61 31 137 39 170 8 33 33 141 55 240 23 99 61 266 85 370 24 105 62 271 85 370 56 248 62 272 119 505 28 113 73 297 100 410 166 684 279 1141 341 1380 68 260 140 537 180 695 49 192 122 474 165 640 19 72 55 211 80 310 25 99 64 250 86 335 22 85 55 214 74 285 18 72 59 229 90 350 31 121 72 279 91 350 19 72 54 207 78 300 25 94 53 204 64 245 11 41 53 199 92 350 65 248 109 411 172 630 11 41 68 217 125 390 94 285 203 634 270 860 13 47 60 200 103 340 43 140 106 350 140 465 34 116 70 237 80 270 10 33 46 155 80 270 34 116 70 237 80 270 18 58 73 250 110 385 148 538 200 701 268 835 77 154 151 247 280 351 59 48 129 116 157 151 219 279 297 711 249 1378 -50 690 -29 867 193 1595 19 63 46 153 59 200 14 47 33 112 44 145 42 135 131 422 279 905 163 533 224 780 252 1028 22 194 -14 303 -143 432 -128 127 -257 175 -448 167 -179 -7 -263 -46 -343 -160 -155 -219 -267 -541 -703 -2012 -39 -131 -267 -709 -338 -858 -164 -342 -332 -451 -726 -472 -164 -9 -221 -19 -297 -55 -103 -48 -171 -122 -290 -315 -7 -11 -38 -65 -70 -120 -117 -201 -223 -320 -336 -374 -77 -37 -145 -46 -227 -31 -128 23 -220 88 -460 325 -202 199 -239 225 -364 252 -56 12 -107 13 -241 8 -191 -7 -343 -36 -670 -125 -218 -59 -331 -88 -410 -105 -448 -96 -798 20 -1225 405 -47 42 -165 136 -264 210 -119 89 -220 174 -305 259 -113 113 -135 141 -216 275 -50 83 -108 175 -130 205 -261 358 -361 477 -859 1021 -245 267 -356 402 -462 556 -91 133 -146 292 -124 358 42 128 165 170 545 186 501 23 816 109 991 273 102 95 142 180 179 377 13 69 26 152 30 185 9 83 52 276 71 325 30 75 104 115 381 211 51 17 103 41 117 54 l24 22 -1 269 c0 165 5 302 13 354 19 130 58 301 75 327 8 12 15 28 15 36 0 8 22 58 50 111 58 114 140 219 221 283 62 48 63 50 108 208 11 39 36 150 56 247 20 98 43 194 53 215 42 94 104 145 249 206 109 46 141 71 169 131 28 60 30 109 8 191 -73 282 -494 717 -939 972 -148 84 -243 126 -450 199 -293 102 -476 204 -614 342 -86 86 -142 177 -161 262 -20 87 -96 226 -213 389 -33 46 -66 100 -73 121 -34 98 -28 270 19 605 12 86 21 206 21 280 l1 130 -34 88 c-62 166 -174 344 -259 415 -251 207 -1307 608 -2612 992 -151 44 -311 92 -355 105 -44 13 -174 51 -290 84 -115 33 -439 126 -720 207 -280 80 -535 153 -565 161 -30 8 -59 19 -64 24 -13 12 -69 12 -81 0z m10680 -15177 c36 -39 48 -95 46 -214 -2 -153 -40 -410 -97 -650 -28 -117 -54 -230 -86 -365 -28 -124 -90 -376 -128 -520 -17 -66 -54 -208 -82 -315 -27 -107 -148 -564 -268 -1015 -120 -451 -246 -928 -280 -1060 -34 -132 -79 -305 -100 -385 -21 -80 -66 -253 -100 -385 -34 -132 -70 -269 -80 -305 -10 -36 -55 -209 -100 -385 -371 -1443 -600 -2237 -815 -2820 -51 -137 -129 -383 -215 -670 -39 -132 -91 -305 -115 -385 -24 -80 -62 -212 -84 -295 -22 -82 -70 -258 -106 -390 -66 -242 -170 -632 -225 -845 -16 -63 -50 -191 -74 -285 -40 -153 -218 -865 -346 -1390 -27 -110 -72 -299 -100 -420 -28 -121 -64 -276 -80 -345 -47 -200 -156 -674 -184 -803 -14 -64 -37 -168 -51 -230 -13 -61 -49 -227 -80 -367 -31 -140 -128 -610 -215 -1045 -188 -935 -221 -1081 -277 -1230 -29 -77 -39 -68 -68 55 -24 108 -86 231 -134 269 -89 71 -257 127 -556 187 -247 49 -389 145 -527 354 -79 118 -223 406 -323 645 -37 88 -91 216 -120 285 -29 69 -77 186 -108 260 -121 295 -230 560 -268 649 l-40 93 125 212 c108 185 595 1028 696 1206 69 122 82 145 253 430 289 484 457 755 693 1120 23 36 90 142 149 235 136 215 212 333 236 365 10 14 26 38 35 53 8 16 49 81 91 145 548 847 1001 1683 1194 2204 124 334 163 509 161 733 -2 439 -191 1032 -419 1317 -64 81 -106 110 -243 170 -58 25 -220 96 -360 158 -140 62 -264 116 -275 120 -11 4 -78 35 -148 69 -71 34 -130 61 -132 61 -2 0 -56 25 -121 56 -66 31 -164 76 -219 101 -55 25 -516 252 -1025 506 -1176 585 -1599 787 -1960 937 -63 26 -160 67 -215 90 -273 115 -352 143 -591 210 -288 81 -473 143 -507 170 -20 17 -21 21 -10 62 28 106 163 359 325 608 290 448 379 618 583 1115 171 413 290 662 397 826 63 96 97 129 212 202 114 73 204 112 331 143 61 14 179 44 262 65 276 72 456 63 943 -46 363 -81 576 -119 865 -154 211 -26 255 -29 625 -46 359 -17 374 -18 490 -48 146 -37 259 -105 615 -371 239 -178 362 -211 693 -187 704 51 987 109 1155 235 104 78 174 173 304 412 271 497 381 601 838 792 166 69 171 70 248 71 61 1 70 -2 92 -25z m-10205 -8554 c52 -6 174 -17 270 -25 96 -9 201 -20 235 -25 33 -5 134 -19 225 -31 187 -24 662 -107 826 -144 60 -14 147 -34 194 -45 447 -103 990 -284 1204 -402 l128 -70 -5 -34 c-6 -34 -32 -91 -97 -209 -19 -33 -56 -103 -83 -155 -27 -52 -71 -135 -96 -185 -60 -114 -221 -464 -357 -777 -135 -310 -528 -1226 -629 -1468 -64 -152 -164 -383 -352 -810 -11 -25 -53 -83 -93 -130 -190 -222 -343 -405 -554 -663 -140 -173 -200 -256 -283 -395 -194 -324 -328 -633 -379 -872 -13 -61 -18 -129 -18 -240 0 -138 3 -166 27 -255 72 -261 231 -494 551 -809 391 -384 718 -573 1041 -601 45 -4 105 -17 137 -30 165 -67 380 -260 783 -701 196 -214 390 -436 393 -448 3 -14 -449 -696 -544 -821 -155 -203 -324 -322 -594 -417 -137 -49 -902 -309 -938 -320 -70 -20 -328 -120 -388 -150 -77 -38 -97 -71 -124 -201 -40 -191 -51 -489 -57 -1494 -4 -680 -9 -945 -17 -951 -6 -5 -166 -55 -356 -112 -566 -169 -680 -211 -790 -292 -123 -91 -178 -170 -375 -543 -211 -402 -342 -636 -478 -860 -170 -279 -344 -538 -430 -638 -55 -63 -70 -68 -147 -41 -110 38 -597 178 -695 199 -212 47 -337 67 -490 80 -198 17 -229 23 -289 59 -60 35 -102 93 -166 224 -29 59 -70 142 -91 184 -143 290 -321 433 -629 503 -102 23 -181 34 -519 75 -90 11 -169 24 -177 30 -7 6 -16 26 -19 43 -19 93 -181 749 -229 932 -19 72 -46 175 -61 230 -14 55 -53 180 -86 277 -53 158 -59 186 -59 258 0 229 119 785 365 1705 15 55 49 174 75 265 27 91 76 260 110 375 194 664 490 1505 650 1850 170 365 287 640 436 1025 348 901 547 1360 768 1768 36 68 66 125 66 127 0 14 137 220 232 347 144 196 206 294 278 443 123 254 190 481 339 1156 44 195 86 340 169 569 63 175 152 390 401 974 355 829 424 1000 531 1311 183 534 406 902 701 1156 117 101 227 169 329 202 25 9 130 7 230 -3z"/>
</g>
</g>
</svg>
