<?xml version="1.0" standalone="no"?>
<!DOCTYPE svg PUBLIC "-//W3C//DTD SVG 1.1//EN"
 "http://www.w3.org/Graphics/SVG/1.1/DTD/svg11.dtd">
<!-- Created with svg_stack (http://github.com/astraw/svg_stack) -->
<svg xmlns:sodipodi="http://sodipodi.sourceforge.net/DTD/sodipodi-0.dtd" xmlns="http://www.w3.org/2000/svg" version="1.1" width="3560.0" height="3560.0">
  <defs/>
  <g id="id0:id0" transform="matrix(1.25,0,0,1.25,0.0,0.0)"><g transform="translate(0.000000,2848.000000) scale(0.040000,-0.040000)" fill="#2f939b" stroke="none">
<path d="M32643 50043 c-10 -4 -13 -123 -13 -551 l0 -547 -105 -93 c-58 -51 -105 -96 -105 -101 0 -5 47 -51 105 -102 l105 -94 0 -546 c0 -489 2 -547 16 -553 9 -3 359 -6 778 -6 579 0 765 3 774 12 18 18 17 362 -1 377 -10 8 -184 12 -588 13 l-574 3 0 345 0 345 439 3 c304 1 443 6 453 13 10 9 13 53 13 189 0 136 -3 180 -13 189 -10 7 -149 12 -453 13 l-439 3 0 345 0 345 574 3 c404 1 578 5 588 13 18 15 19 359 1 377 -9 9 -195 12 -778 11 -421 0 -771 -3 -777 -6z"/>
<path d="M35178 50023 c-101 -83 -457 -406 -462 -419 -3 -9 -6 -143 -6 -300 l0 -284 28 -29 c31 -33 375 -340 435 -388 l40 -33 329 0 328 0 130 -111 130 -111 0 -137 0 -137 -130 -112 -130 -112 -276 0 -275 0 -130 113 -129 112 0 136 c0 91 -4 139 -12 147 -8 8 -64 12 -188 12 -124 0 -180 -4 -188 -12 -9 -9 -12 -76 -12 -240 l0 -227 233 -209 c129 -115 243 -214 255 -221 14 -8 151 -11 455 -11 l433 0 235 207 c129 113 239 213 246 222 18 23 18 639 0 662 -7 9 -117 109 -246 222 l-235 207 -340 0 -341 0 -122 107 -123 107 0 127 0 128 123 105 122 106 266 0 266 0 119 -103 119 -103 5 -134 5 -135 190 0 190 0 3 220 2 221 -162 144 c-89 80 -200 178 -246 218 l-83 72 -409 0 -408 0 -34 -27z"/>
<path d="M36902 50038 c-18 -18 -17 -362 1 -377 9 -7 129 -12 378 -13 l364 -3 3 -357 2 -356 -104 -89 c-58 -48 -105 -95 -105 -103 0 -8 47 -55 105 -105 l104 -89 0 -542 c0 -485 2 -542 16 -548 20 -8 338 -8 358 0 14 6 16 63 16 549 l0 542 104 89 c58 49 105 94 105 101 1 7 -46 54 -104 104 l-105 92 2 356 3 356 370 5 c204 3 371 7 373 8 1 1 2 87 2 191 0 163 -2 190 -16 195 -9 3 -431 6 -938 6 -704 0 -925 -3 -934 -12z"/>
<path d="M39082 47838 c-8 -8 -12 -64 -12 -188 0 -124 4 -180 12 -188 8 -8 64 -12 188 -12 124 0 180 4 188 12 8 8 12 64 12 188 0 124 -4 180 -12 188 -17 17 -359 17 -376 0z"/>
<path d="M32258 46503 c-101 -83 -457 -406 -462 -419 -8 -21 -8 -398 0 -418 5 -14 32 -16 194 -16 162 0 189 2 194 16 3 9 6 70 6 137 l0 122 38 30 c20 16 74 62 119 102 l81 73 267 0 266 0 120 -101 119 -102 0 -186 0 -186 -120 -103 -119 -102 -340 0 -340 0 -245 -217 -246 -218 0 -486 c0 -435 2 -488 16 -493 20 -8 1758 -8 1778 0 14 5 16 32 16 195 0 104 -1 190 -2 191 -2 2 -318 5 -703 8 l-700 5 -3 197 -2 196 129 111 129 111 330 0 331 0 60 53 c33 28 144 126 245 217 l185 165 0 355 1 356 -157 139 c-87 77 -197 175 -245 218 l-88 77 -409 0 -409 0 -34 -27z"/>
<path d="M34645 46443 c-228 -199 -371 -327 -382 -341 -10 -12 -13 -98 -13 -352 l0 -335 -100 -88 c-55 -48 -100 -96 -100 -105 0 -10 45 -57 100 -105 l100 -88 0 -327 c0 -248 3 -332 13 -344 11 -14 154 -142 382 -341 l99 -87 352 0 351 0 40 33 c22 17 133 115 247 217 l206 184 0 332 0 333 105 91 c58 51 105 97 104 104 0 6 -47 52 -104 101 l-105 90 0 340 0 341 -206 184 c-114 102 -225 200 -247 218 l-40 32 -351 0 -352 0 -99 -87z m773 -428 l132 -115 0 -674 0 -673 -77 -64 c-43 -35 -102 -85 -132 -111 l-54 -48 -189 0 -190 0 -129 111 -129 111 0 677 0 677 109 93 c60 50 117 101 126 112 17 18 32 19 210 19 l191 0 132 -115z"/>
<path d="M36827 46413 l-167 -118 0 -147 0 -148 23 -5 c12 -3 83 -6 157 -8 l135 -2 3 -281 2 -281 -99 -84 c-55 -46 -100 -91 -101 -99 0 -9 45 -54 100 -100 l100 -85 -2 -360 -3 -360 -149 -3 c-90 -1 -155 -7 -163 -14 -18 -14 -19 -358 -1 -376 9 -9 138 -12 518 -12 380 0 509 3 518 12 18 18 17 362 -1 376 -8 7 -73 13 -163 14 l-149 3 -3 361 -2 362 82 70 c115 97 128 110 122 125 -3 6 -50 50 -105 97 l-99 84 0 536 c0 404 -3 539 -12 548 -8 8 -66 12 -193 12 l-182 0 -166 -117z"/>
<path d="M38372 46518 c-9 -9 -12 -174 -12 -683 0 -509 3 -674 12 -683 9 -9 141 -12 533 -12 l522 0 121 -106 122 -106 0 -193 0 -193 -122 -106 -121 -106 -213 0 -212 0 -109 93 c-59 52 -113 100 -120 109 -8 9 -13 61 -15 144 l-3 129 -184 3 c-127 2 -188 -1 -197 -9 -11 -9 -14 -53 -14 -209 0 -109 3 -205 6 -214 6 -15 406 -377 468 -423 l30 -23 356 0 357 0 214 191 c118 104 229 206 247 224 l32 35 0 359 c0 198 -3 366 -6 375 -3 9 -113 105 -243 213 l-236 198 -410 5 -410 5 0 295 0 295 570 5 c314 3 571 6 573 8 1 1 2 87 2 191 0 163 -2 190 -16 195 -9 3 -352 6 -763 6 -568 0 -750 -3 -759 -12z"/>
<path d="M28124 24416 c-3 -8 237 -379 560 -865 l566 -852 0 -662 c0 -502 3 -666 12 -675 13 -13 411 -18 442 -6 14 6 16 74 16 673 l0 666 572 858 c457 685 569 860 558 867 -8 6 -124 10 -257 10 l-241 0 -24 -28 c-12 -16 -80 -114 -150 -218 -69 -104 -186 -277 -258 -384 -73 -107 -198 -291 -277 -408 -116 -171 -147 -211 -158 -202 -8 6 -114 158 -237 338 -123 180 -246 361 -275 402 -28 41 -109 160 -179 263 -70 103 -138 199 -150 212 l-23 25 -246 0 c-201 0 -247 -3 -251 -14z"/>
<path d="M31788 24323 c-68 -59 -201 -176 -295 -261 l-173 -153 0 -403 0 -403 -120 -104 c-66 -57 -120 -111 -120 -119 0 -8 54 -61 120 -118 l120 -103 0 -394 0 -394 173 -153 c94 -85 227 -202 295 -261 l122 -107 544 0 544 0 45 38 c24 20 155 136 291 257 l246 219 0 393 c0 363 1 394 18 411 9 9 66 59 125 111 59 51 107 97 107 101 0 5 -56 58 -125 120 l-125 111 0 402 0 403 -246 219 c-136 121 -267 237 -291 258 l-45 37 -544 0 -544 0 -122 -107z m1169 -486 l152 -132 1 -816 0 -815 -152 -132 -153 -131 -350 -1 -350 0 -70 61 c-38 34 -107 93 -152 131 l-83 70 0 817 1 816 152 132 152 132 350 0 350 0 152 -132z"/>
<path d="M34463 24422 c-10 -6 -13 -154 -15 -662 l-3 -654 -115 -103 c-63 -56 -116 -111 -118 -121 -2 -14 30 -48 117 -123 l121 -104 0 -392 0 -392 248 -223 c136 -123 266 -240 290 -260 l42 -38 544 0 544 0 56 48 c31 26 161 142 290 257 l235 210 1 393 0 393 38 33 c172 151 212 189 212 196 0 5 -56 59 -125 120 l-125 112 0 653 c0 586 -2 653 -16 659 -31 12 -429 7 -442 -6 -9 -9 -12 -284 -12 -1174 l0 -1163 -152 -135 -153 -135 -350 0 -350 0 -152 135 -153 136 0 1162 c0 890 -3 1165 -12 1174 -14 14 -424 17 -445 4z"/>
<path d="M37293 24423 c-10 -3 -13 -58 -13 -224 0 -120 1 -220 3 -221 1 -1 200 -5 442 -8 l440 -5 3 -427 2 -426 -122 -108 c-68 -59 -125 -109 -126 -110 -10 -7 23 -40 131 -134 l117 -102 0 -642 c0 -486 3 -645 12 -654 9 -9 72 -12 223 -12 151 0 214 3 223 12 9 9 12 168 12 654 l0 642 120 104 c84 72 118 109 117 123 -1 11 -53 62 -119 120 l-118 100 3 430 2 430 429 3 c297 1 433 6 443 13 18 16 19 419 1 437 -9 9 -269 12 -1112 11 -606 0 -1107 -3 -1113 -6z"/>
<path d="M40233 24423 c-10 -4 -13 -145 -13 -658 l0 -654 -122 -107 c-68 -59 -124 -113 -126 -119 -2 -7 53 -63 123 -125 l125 -112 0 -643 c0 -577 2 -643 16 -649 23 -9 417 -7 431 2 10 6 13 151 15 648 l3 639 625 0 625 0 3 -639 c2 -497 5 -642 15 -648 21 -13 431 -10 445 4 9 9 12 168 12 654 l0 643 118 102 c64 56 118 109 120 118 2 10 -42 54 -118 119 l-120 103 0 653 c0 494 -3 655 -12 664 -14 14 -424 17 -445 4 -10 -6 -13 -153 -15 -658 l-3 -649 -625 0 -625 0 -3 649 c-2 505 -5 652 -15 658 -13 8 -414 10 -434 1z"/>
<path d="M23362 20238 c-9 -9 -12 -170 -12 -663 l0 -650 -117 -105 c-65 -57 -118 -111 -118 -120 0 -9 53 -63 118 -120 l117 -102 0 -642 c0 -486 3 -645 12 -654 13 -13 411 -18 442 -6 14 6 16 112 16 1099 0 628 4 1096 9 1099 5 3 168 -295 363 -662 l355 -667 243 0 243 0 354 667 c196 368 359 665 364 662 5 -3 9 -466 9 -1099 0 -987 2 -1093 16 -1099 31 -12 429 -7 442 6 9 9 12 168 12 654 l0 642 118 102 c64 57 117 111 117 120 0 9 -53 63 -117 120 l-118 105 0 650 c0 493 -3 654 -12 663 -13 13 -474 18 -494 4 -6 -4 -216 -385 -467 -847 -251 -462 -461 -840 -467 -840 -6 0 -215 376 -465 835 -249 459 -458 841 -464 848 -16 17 -482 17 -499 0z"/>
<path d="M27163 20243 c-10 -4 -13 -145 -13 -658 l0 -654 -124 -108 c-69 -59 -125 -115 -125 -123 0 -8 56 -64 124 -124 l125 -108 0 -643 c0 -577 2 -643 16 -649 20 -8 408 -8 428 0 14 6 16 72 16 649 l0 642 124 109 c69 60 125 116 125 124 0 8 -27 38 -61 65 -33 28 -89 76 -124 108 l-64 59 0 653 c0 586 -2 653 -16 659 -19 7 -413 7 -431 -1z"/>
<path d="M28652 20238 c-9 -9 -12 -170 -12 -662 l0 -651 -120 -105 c-66 -58 -120 -112 -120 -120 0 -8 54 -62 120 -119 l120 -104 0 -641 c0 -486 3 -645 12 -654 14 -14 424 -17 445 -4 10 6 13 242 15 1100 2 720 6 1092 13 1091 6 0 286 -489 622 -1086 337 -597 618 -1092 624 -1099 15 -19 439 -20 457 -2 9 9 12 168 12 654 l0 641 120 104 c66 57 120 111 120 119 0 8 -54 62 -120 120 l-120 105 0 650 c0 493 -3 654 -12 663 -13 13 -411 18 -442 6 -14 -6 -16 -109 -16 -1069 0 -596 -4 -1066 -9 -1069 -5 -3 -280 472 -612 1056 -332 584 -610 1067 -617 1075 -18 18 -462 19 -480 1z"/>
<path d="M31883 20243 c-10 -4 -13 -145 -13 -658 l0 -654 -124 -108 c-69 -59 -125 -115 -125 -123 0 -8 56 -64 124 -124 l125 -108 0 -643 c0 -577 2 -643 16 -649 20 -8 408 -8 428 0 14 6 16 72 16 649 l0 642 124 109 c69 60 125 116 125 124 0 8 -27 38 -61 65 -33 28 -89 76 -124 108 l-64 59 0 653 c0 586 -2 653 -16 659 -19 7 -413 7 -431 -1z"/>
<path d="M33762 20183 c-42 -37 -135 -119 -207 -182 -71 -64 -166 -147 -210 -186 -44 -38 -83 -74 -87 -80 -4 -5 -8 -164 -8 -352 l0 -343 28 -29 c22 -24 399 -360 525 -468 l38 -33 391 0 391 0 56 -47 c31 -26 102 -88 159 -137 l102 -90 0 -163 0 -164 -47 -43 c-27 -24 -97 -87 -158 -140 l-110 -96 -328 0 -328 0 -112 97 c-62 53 -131 115 -154 137 l-43 40 0 161 c0 112 -4 165 -12 173 -9 9 -72 12 -223 12 -151 0 -214 -3 -223 -12 -15 -15 -17 -530 -3 -557 6 -10 59 -60 118 -112 59 -51 176 -152 258 -224 83 -72 163 -141 179 -153 l29 -22 518 0 519 0 78 67 c42 37 136 119 207 182 72 64 166 147 210 186 44 38 83 75 87 80 4 6 8 179 8 385 0 206 -4 380 -8 385 -4 6 -43 42 -87 80 -44 39 -138 122 -210 186 -71 63 -165 145 -207 182 l-78 67 -402 0 -403 0 -142 126 -143 126 0 160 0 160 47 42 c26 22 90 78 142 123 l96 83 315 0 315 0 148 -126 147 -126 0 -159 0 -159 230 0 230 0 0 258 c0 192 -3 262 -12 274 -7 8 -83 75 -168 149 -85 73 -210 182 -278 241 l-123 108 -489 0 -490 0 -78 -67z"/>
<path d="M35873 20243 c-10 -3 -13 -58 -13 -224 0 -120 1 -220 3 -221 1 -1 200 -5 442 -8 l440 -5 3 -427 2 -426 -122 -108 c-68 -59 -125 -109 -126 -110 -10 -7 23 -40 131 -134 l117 -102 0 -642 c0 -486 3 -645 12 -654 9 -9 72 -12 223 -12 151 0 214 3 223 12 9 9 12 168 12 654 l0 642 120 104 c84 72 118 109 117 123 -1 11 -53 62 -119 120 l-118 100 3 430 2 430 429 3 c297 1 433 6 443 13 18 16 19 419 1 437 -9 9 -269 12 -1112 11 -606 0 -1107 -3 -1113 -6z"/>
<path d="M38713 20243 c-10 -4 -13 -145 -13 -659 0 -616 -1 -655 -18 -671 -10 -10 -66 -60 -125 -111 -59 -51 -107 -98 -106 -105 0 -7 56 -61 125 -120 l124 -109 0 -643 c0 -577 2 -643 16 -649 9 -3 109 -6 224 -6 161 0 210 3 219 13 8 10 12 200 13 648 l3 634 262 0 262 0 316 -640 c174 -351 321 -643 328 -647 7 -4 117 -8 245 -8 182 0 234 3 238 13 2 7 -129 283 -292 613 -163 329 -304 618 -315 642 l-18 42 72 84 c40 46 140 161 222 256 83 94 162 188 178 208 l27 36 0 296 0 296 -27 36 c-16 20 -68 83 -118 140 -224 257 -310 355 -337 386 l-28 32 -733 -1 c-402 0 -738 -3 -744 -6z m1387 -609 l130 -156 0 -113 0 -114 -106 -133 c-59 -73 -118 -145 -132 -161 l-26 -27 -395 2 -396 3 -3 415 c-1 228 0 421 3 427 3 10 92 13 399 13 l395 0 131 -156z"/>
<path d="M41603 20243 c-10 -4 -13 -145 -13 -658 l0 -654 -124 -108 c-69 -59 -125 -115 -125 -123 0 -8 56 -64 124 -124 l125 -108 0 -643 c0 -577 2 -643 16 -649 20 -8 408 -8 428 0 14 6 16 72 16 649 l0 642 124 109 c69 60 125 116 125 124 0 8 -27 38 -61 65 -33 28 -89 76 -124 108 l-64 59 0 653 c0 586 -2 653 -16 659 -19 7 -413 7 -431 -1z"/>
<path d="M43103 20243 c-10 -4 -13 -145 -13 -661 l0 -657 -125 -105 c-68 -58 -125 -110 -125 -117 0 -6 56 -60 125 -120 l124 -108 1 -646 c0 -580 2 -647 16 -653 9 -3 424 -6 923 -6 692 0 910 3 919 12 18 18 17 422 -1 437 -10 8 -214 12 -703 13 l-689 3 0 415 0 415 529 3 c371 1 533 6 543 13 10 9 13 58 13 219 0 161 -3 210 -13 219 -10 7 -172 12 -543 13 l-529 3 0 425 0 425 689 3 c489 1 693 5 703 13 18 15 19 419 1 437 -9 9 -227 12 -922 11 -501 0 -917 -3 -923 -6z"/>
<path d="M46082 20183 c-42 -37 -135 -119 -207 -182 -71 -64 -166 -147 -210 -186 -44 -38 -83 -74 -87 -80 -4 -5 -8 -164 -8 -352 l0 -343 28 -29 c22 -24 399 -360 525 -468 l38 -33 391 0 391 0 56 -47 c31 -26 102 -88 159 -137 l102 -90 0 -163 0 -164 -47 -43 c-27 -24 -97 -87 -158 -140 l-110 -96 -328 0 -328 0 -112 97 c-62 53 -131 115 -154 137 l-43 40 0 161 c0 112 -4 165 -12 173 -9 9 -72 12 -223 12 -151 0 -214 -3 -223 -12 -15 -15 -17 -530 -3 -557 6 -10 59 -60 118 -112 59 -51 176 -152 258 -224 83 -72 163 -141 179 -153 l29 -22 518 0 519 0 78 67 c42 37 136 119 207 182 72 64 166 147 210 186 44 38 83 75 87 80 4 6 8 179 8 385 0 206 -4 380 -8 385 -4 6 -43 42 -87 80 -44 39 -138 122 -210 186 -71 63 -165 145 -207 182 l-78 67 -402 0 -403 0 -142 126 -143 126 0 160 0 160 47 42 c26 22 90 78 142 123 l96 83 315 0 315 0 148 -126 147 -126 0 -159 0 -159 230 0 230 0 0 258 c0 192 -3 262 -12 274 -7 8 -83 75 -168 149 -85 73 -210 182 -278 241 l-123 108 -489 0 -490 0 -78 -67z"/>
</g>
</g>
  <g id="id1:id1" transform="matrix(1.25,0,0,1.25,0.0,0.0)"><g transform="translate(0.000000,2848.000000) scale(0.040000,-0.040000)" fill="#f15a24" stroke="none">
<path d="M15953 43077 c-109 -96 -295 -259 -413 -363 -565 -497 -728 -641 -895 -788 -99 -88 -286 -252 -415 -366 -129 -114 -316 -278 -416 -366 -99 -87 -272 -239 -385 -338 -112 -98 -212 -188 -222 -198 -16 -19 -17 -94 -15 -1327 l3 -1306 1144 -3 c909 -2 1146 0 1153 10 4 7 8 373 8 813 l0 801 38 36 c20 19 105 93 187 164 871 746 1216 1042 1245 1070 l36 34 1626 0 1626 0 194 -166 c106 -92 316 -273 467 -403 151 -130 403 -346 560 -481 l286 -245 0 -920 0 -919 -55 -41 c-30 -23 -341 -242 -690 -487 -349 -244 -671 -470 -715 -501 l-80 -57 -1607 0 c-883 0 -1613 -3 -1622 -6 -14 -6 -16 -116 -16 -1143 l0 -1138 953 -6 c523 -4 1261 -7 1639 -7 l687 0 128 -103 c161 -129 1096 -880 1261 -1012 l122 -98 0 -1031 0 -1032 -37 -36 c-21 -19 -216 -187 -433 -374 -217 -186 -541 -463 -719 -616 l-323 -278 -1626 0 -1626 0 -36 34 c-19 18 -244 212 -500 432 -826 707 -894 766 -932 802 l-38 36 0 801 c0 440 -4 806 -8 813 -7 10 -244 12 -1153 10 l-1144 -3 -3 -1306 c-2 -1233 -1 -1308 15 -1327 10 -10 110 -100 222 -198 247 -216 552 -484 881 -774 134 -118 323 -285 420 -370 97 -85 268 -236 380 -335 285 -251 610 -537 843 -742 l197 -173 2495 0 2495 0 37 33 c131 116 1740 1547 1928 1716 83 73 336 298 562 500 l413 366 0 2058 c0 1954 -1 2058 -18 2075 -9 9 -105 90 -212 178 -841 698 -1365 1136 -1365 1143 0 4 124 100 275 213 151 112 510 379 798 592 l522 388 0 1909 0 1908 -47 44 c-53 49 -148 133 -753 672 -228 203 -496 441 -595 530 -99 88 -346 309 -550 490 -203 181 -471 420 -595 530 -124 110 -264 235 -312 278 l-88 77 -2495 0 -2495 0 -197 -173z"/>
<path d="M47483 43243 c-10 -4 -13 -687 -13 -3372 l0 -3367 -92 -79 c-51 -44 -160 -139 -243 -210 -455 -396 -570 -496 -758 -659 -114 -99 -207 -182 -207 -185 0 -13 21 -33 190 -182 96 -84 256 -226 355 -314 100 -88 310 -274 468 -414 l287 -254 0 -3312 c0 -3012 1 -3313 16 -3319 9 -3 1851 -6 4093 -6 l4078 0 469 417 c258 229 651 579 874 778 223 198 653 580 955 849 303 269 571 509 598 535 l47 45 0 5216 0 5216 -47 45 c-27 26 -295 266 -598 535 -302 269 -732 651 -955 849 -223 199 -616 549 -874 778 l-469 417 -4081 -1 c-2245 0 -4087 -3 -4093 -6z m7333 -2421 c539 -463 763 -655 1107 -950 l387 -333 -2 -4142 -3 -4141 -140 -120 c-191 -162 -412 -349 -570 -481 -72 -60 -162 -137 -201 -170 -67 -57 -138 -117 -548 -464 l-179 -151 -2431 2 -2431 3 -3 5525 c-1 3039 0 5531 3 5538 3 9 499 12 2433 12 l2430 0 148 -128z"/>
</g>
</g>
  <g id="id2:id2" transform="matrix(1.25,0,0,1.25,0.0,0.0)"><g transform="translate(0.000000,2848.000000) scale(0.040000,-0.040000)" fill="#565656" stroke="none">
<path d="M34346 71192 c-3 -5 -97 -12 -208 -16 -705 -23 -1651 -94 -2488 -186 -1705 -188 -3455 -512 -5090 -941 -63 -17 -158 -42 -210 -56 -603 -158 -1383 -394 -2105 -636 -3551 -1192 -6904 -2952 -9940 -5217 -602 -450 -1137 -876 -1805 -1441 -658 -556 -1345 -1193 -2076 -1923 -730 -731 -1367 -1418 -1923 -2076 -997 -1180 -1746 -2172 -2550 -3379 -1629 -2447 -2916 -5008 -3901 -7766 -299 -836 -642 -1937 -850 -2730 -17 -66 -42 -160 -55 -210 -423 -1605 -748 -3368 -935 -5065 -92 -837 -163 -1783 -186 -2488 -4 -111 -11 -205 -16 -208 -11 -7 -11 -2481 0 -2488 5 -3 12 -101 16 -218 8 -257 39 -802 66 -1183 156 -2140 528 -4383 1066 -6415 91 -342 124 -464 218 -790 1397 -4878 3854 -9432 7190 -13325 2423 -2827 5290 -5269 8483 -7223 3059 -1873 6402 -3277 9860 -4140 350 -88 520 -129 713 -173 52 -11 133 -30 180 -40 499 -113 1293 -269 1855 -363 1137 -191 2358 -335 3485 -411 505 -33 1163 -65 1367 -65 64 0 114 -4 118 -10 4 -7 340 -10 975 -10 635 0 971 3 975 10 3 6 53 10 113 10 228 0 979 38 1502 75 1227 89 2448 241 3690 460 140 25 275 50 300 55 25 5 142 28 260 51 710 135 1536 325 2365 544 283 75 777 215 1095 311 2353 712 4596 1653 6770 2842 3309 1808 6358 4177 8951 6952 304 325 628 687 990 1105 548 634 1258 1531 1791 2265 1173 1616 2171 3258 3062 5040 1040 2081 1863 4230 2470 6450 218 797 448 1772 586 2485 95 491 130 689 205 1140 174 1055 302 2141 380 3215 37 523 75 1274 75 1502 0 60 4 110 10 113 7 4 10 340 10 975 0 635 -3 971 -10 975 -6 4 -10 54 -10 118 0 204 -32 862 -65 1367 -76 1123 -220 2352 -411 3485 -65 387 -120 685 -209 1125 -134 663 -202 962 -367 1623 -1357 5437 -4026 10519 -7762 14782 -2341 2671 -5080 4985 -8121 6860 -2744 1692 -5723 3009 -8805 3891 -326 94 -448 127 -790 218 -2032 538 -4275 910 -6415 1066 -381 27 -926 58 -1183 66 -117 4 -215 11 -218 16 -7 11 -2481 11 -2488 0z m2329 -1682 c1589 -52 3098 -202 4616 -459 654 -111 1175 -215 1964 -391 455 -102 1173 -289 1755 -456 3558 -1025 6972 -2656 10005 -4781 1925 -1349 3670 -2859 5295 -4583 1948 -2066 3660 -4417 5028 -6906 1322 -2406 2349 -4969 3052 -7614 39 -149 190 -751 224 -900 15 -63 34 -142 42 -175 316 -1348 581 -2995 713 -4440 33 -355 39 -435 60 -730 206 -2880 54 -5740 -454 -8556 -146 -810 -363 -1791 -556 -2517 -11 -42 -31 -120 -45 -172 -631 -2385 -1608 -4872 -2780 -7080 -1288 -2428 -2828 -4642 -4653 -6693 -716 -805 -1542 -1645 -2366 -2407 -1982 -1832 -4237 -3457 -6630 -4777 -2359 -1302 -5008 -2368 -7575 -3047 -52 -14 -130 -34 -172 -45 -726 -193 -1707 -410 -2517 -556 -2816 -508 -5676 -660 -8556 -454 -1422 101 -2927 306 -4290 583 -316 65 -664 140 -880 190 -33 8 -112 27 -175 42 -1542 361 -3173 873 -4675 1469 -3166 1255 -6108 2971 -8770 5114 -1663 1338 -3235 2872 -4630 4516 -2407 2837 -4335 6059 -5697 9525 -1351 3437 -2120 7050 -2298 10795 -48 1019 -46 2232 5 3295 256 5262 1726 10354 4318 14955 947 1680 2130 3408 3326 4855 52 63 127 153 165 200 39 47 96 114 126 150 31 36 96 112 145 170 1108 1300 2475 2667 3775 3775 58 49 134 114 170 145 36 30 103 87 150 126 47 38 137 113 200 165 63 52 225 183 360 291 2328 1858 4872 3392 7604 4585 2293 1000 4748 1757 7196 2218 1937 364 3811 553 5840 589 287 5 1263 -4 1585 -14z"/>
<path d="M16022 54997 c-78 -78 -142 -147 -142 -152 0 -6 4347 -4357 9660 -9670 l9660 -9660 -10250 -10250 c-5638 -5637 -10250 -10257 -10250 -10265 0 -20 271 -290 290 -290 8 0 4625 4610 10260 10245 5635 5635 10249 10245 10255 10245 6 0 4620 -4610 10255 -10245 5635 -5635 10252 -10245 10260 -10245 20 0 290 271 290 290 0 8 -4612 4628 -10250 10265 l-10250 10250 9661 9661 c8468 8468 9660 9664 9651 9680 -14 25 -276 284 -288 284 -5 0 -4356 -4347 -9669 -9660 l-9660 -9660 -9660 9660 c-5313 5313 -9665 9660 -9670 9660 -6 0 -74 -64 -153 -143z"/>
</g>
</g>
</svg>
