<?xml version="1.0" standalone="no"?>
<!DOCTYPE svg PUBLIC "-//W3C//DTD SVG 1.1//EN"
 "http://www.w3.org/Graphics/SVG/1.1/DTD/svg11.dtd">
<!-- Created with svg_stack (http://github.com/astraw/svg_stack) -->
<svg xmlns:sodipodi="http://sodipodi.sourceforge.net/DTD/sodipodi-0.dtd" xmlns="http://www.w3.org/2000/svg" version="1.1" width="3232.0" height="6212.0">
  <defs/>
  <g id="id0:id0" transform="matrix(1.25,0,0,1.25,0.0,0.0)"><g transform="translate(0.000000,4969.600000) scale(0.040000,-0.040000)" fill="#000000" stroke="none">
<path d="M33606 124231 c-3 -4 -34 -11 -68 -15 -130 -14 -360 -75 -517 -136 -301 -117 -568 -289 -800 -515 -175 -170 -281 -309 -385 -507 -198 -373 -243 -749 -145 -1223 124 -606 527 -1128 1026 -1329 37 -15 79 -33 93 -39 l25 -13 2 -3439 c2 -1892 -1 -3453 -5 -3470 -9 -33 20 -26 -282 -75 -372 -60 -720 -143 -1030 -244 -121 -39 -286 -99 -333 -120 -18 -8 -70 -31 -117 -51 -462 -199 -850 -498 -1068 -825 -100 -151 -199 -392 -217 -530 -4 -30 -12 -60 -17 -67 -5 -6 -35 -14 -66 -18 -31 -3 -131 -15 -222 -25 -91 -11 -246 -29 -345 -40 -99 -11 -258 -29 -352 -40 -335 -39 -660 -76 -1050 -120 -179 -21 -383 -44 -698 -80 -179 -21 -416 -48 -700 -80 -93 -11 -249 -29 -345 -40 -96 -11 -254 -29 -350 -40 -96 -11 -254 -29 -350 -40 -96 -11 -256 -29 -355 -40 -99 -12 -259 -30 -355 -41 -96 -11 -254 -29 -350 -40 -96 -11 -254 -29 -350 -40 -96 -11 -254 -29 -350 -40 -96 -11 -231 -27 -300 -35 -69 -8 -168 -19 -220 -24 -52 -5 -149 -16 -215 -24 -66 -8 -203 -24 -305 -36 -102 -11 -264 -30 -360 -41 -96 -11 -254 -29 -350 -40 -96 -11 -249 -28 -340 -39 -91 -10 -248 -28 -350 -40 -102 -11 -257 -29 -345 -40 -88 -10 -230 -26 -315 -36 -85 -9 -161 -22 -169 -28 -11 -9 -13 -55 -7 -271 4 -143 9 -309 11 -370 2 -60 7 -249 10 -420 3 -170 8 -362 10 -425 6 -143 22 -739 30 -1085 3 -143 10 -399 15 -570 11 -359 18 -621 25 -965 3 -135 8 -310 10 -390 13 -372 25 -792 30 -1080 4 -173 13 -501 21 -728 18 -521 18 -642 2 -646 -7 -2 -78 -13 -158 -25 -298 -46 -639 -104 -649 -111 -24 -16 -192 -347 -286 -560 -111 -255 -253 -669 -330 -965 -26 -99 -57 -216 -69 -260 l-22 -80 -34 -3 c-19 -1 -126 -11 -237 -22 -112 -11 -296 -29 -410 -40 -234 -23 -510 -50 -813 -79 -113 -11 -302 -30 -420 -41 -258 -25 -546 -53 -825 -80 -113 -11 -297 -29 -410 -40 -720 -71 -681 -66 -690 -80 -7 -11 11 -494 30 -820 8 -135 17 -303 20 -375 3 -71 10 -179 15 -240 5 -60 14 -195 20 -300 5 -104 15 -239 20 -300 5 -60 15 -180 20 -265 6 -85 17 -231 25 -325 8 -93 23 -282 35 -420 36 -433 52 -590 62 -602 8 -9 51 -13 152 -13 180 0 873 25 1211 44 143 8 321 18 395 21 74 3 196 10 270 15 74 6 270 17 435 25 165 8 316 17 335 20 19 2 132 9 250 15 186 9 465 26 524 33 18 2 19 -6 21 -113 0 -75 9 -155 24 -230 13 -63 43 -215 67 -338 24 -123 51 -251 59 -285 8 -34 35 -152 60 -262 26 -110 73 -303 106 -430 61 -241 84 -323 165 -605 79 -278 198 -654 297 -945 100 -292 117 -338 129 -352 8 -10 103 -13 413 -13 310 0 405 -3 412 -12 6 -8 13 -178 17 -428 3 -228 8 -509 11 -625 3 -115 7 -419 10 -675 3 -256 10 -703 15 -995 18 -996 20 -1140 25 -1565 3 -234 10 -654 15 -935 5 -280 12 -692 15 -915 4 -223 8 -410 10 -417 4 -12 43 -22 217 -53 62 -11 163 -29 223 -40 61 -11 160 -29 220 -40 61 -11 160 -29 220 -40 61 -11 160 -29 220 -40 131 -24 299 -54 410 -75 44 -8 141 -25 215 -39 74 -13 347 -63 605 -111 259 -47 506 -93 550 -100 44 -8 130 -24 190 -35 61 -11 162 -29 225 -41 63 -11 151 -27 195 -36 44 -8 127 -23 185 -33 58 -11 229 -42 380 -70 151 -28 311 -58 355 -65 44 -8 130 -24 190 -35 61 -11 160 -29 220 -40 61 -11 160 -29 220 -40 61 -11 160 -29 220 -40 128 -23 295 -54 415 -76 47 -8 132 -24 190 -34 58 -11 328 -60 600 -110 272 -50 531 -98 575 -105 44 -8 130 -24 190 -35 61 -11 162 -29 225 -40 179 -32 175 -31 176 -71 8 -386 19 -1067 19 -1204 l0 -180 -105 -7 c-147 -9 -666 -36 -840 -43 -80 -3 -255 -12 -390 -20 -135 -8 -324 -17 -420 -20 -96 -3 -233 -10 -305 -15 -71 -5 -247 -14 -390 -20 -143 -6 -375 -17 -515 -25 -140 -8 -325 -17 -410 -20 -85 -3 -220 -10 -300 -15 -80 -5 -260 -14 -400 -20 -140 -6 -367 -17 -505 -25 -137 -8 -324 -17 -415 -20 -91 -3 -230 -10 -310 -15 -80 -5 -255 -14 -390 -20 -135 -6 -362 -17 -505 -25 -143 -7 -332 -17 -420 -20 -88 -3 -225 -10 -305 -15 -80 -6 -307 -17 -505 -25 -198 -9 -373 -18 -390 -20 -16 -3 -156 -10 -310 -15 -154 -6 -345 -15 -425 -20 -80 -5 -255 -14 -390 -20 -135 -6 -360 -17 -500 -25 -140 -8 -327 -17 -415 -20 -88 -3 -268 -12 -400 -20 -132 -7 -319 -16 -415 -20 -96 -3 -236 -10 -310 -15 -74 -5 -252 -14 -395 -20 -385 -16 -733 -38 -746 -46 -12 -7 -8 -588 6 -979 7 -192 23 -892 31 -1341 5 -261 3 -373 -4 -378 -6 -4 -152 -11 -324 -16 -172 -6 -470 -17 -663 -25 -192 -8 -447 -17 -565 -20 -118 -3 -300 -10 -405 -15 -104 -5 -347 -14 -540 -20 -192 -6 -503 -17 -690 -25 -187 -8 -439 -17 -560 -20 -121 -3 -308 -10 -415 -15 -107 -5 -355 -14 -550 -20 -195 -6 -447 -15 -560 -20 -113 -6 -340 -15 -505 -20 -252 -8 -313 -13 -380 -30 -419 -111 -827 -550 -1231 -1325 -292 -561 -581 -1323 -809 -2135 -25 -91 -55 -194 -65 -230 -26 -89 -173 -692 -200 -815 -11 -55 -29 -138 -40 -185 -42 -186 -76 -359 -160 -810 -57 -311 -153 -949 -200 -1335 -42 -347 -50 -422 -60 -525 -5 -58 -16 -172 -24 -255 -26 -256 -45 -500 -61 -750 -8 -132 -17 -265 -20 -295 -17 -183 -37 -937 -38 -1430 -1 -666 12 -1007 63 -1720 41 -563 161 -1367 280 -1864 l31 -130 -15 -105 c-8 -58 -25 -180 -36 -271 -12 -91 -30 -228 -40 -305 -10 -77 -28 -212 -40 -300 -37 -289 -85 -650 -120 -910 -11 -77 -29 -210 -40 -295 -26 -193 -56 -404 -71 -492 l-11 -66 -121 -124 c-215 -217 -435 -511 -758 -1013 -408 -632 -951 -1574 -1464 -2540 -26 -49 -51 -94 -55 -100 -4 -5 -49 -91 -100 -190 -51 -99 -96 -184 -100 -190 -4 -5 -40 -74 -80 -152 -39 -78 -79 -148 -88 -156 -20 -17 -61 -24 -232 -37 -69 -5 -192 -16 -275 -25 -82 -8 -248 -24 -367 -35 -386 -36 -639 -59 -803 -75 -88 -9 -214 -20 -280 -26 -66 -5 -181 -16 -255 -23 -74 -8 -173 -17 -220 -21 -47 -3 -119 -10 -160 -15 -41 -5 -131 -14 -200 -20 -69 -5 -192 -16 -275 -25 -256 -25 -475 -46 -595 -55 -63 -5 -180 -16 -260 -24 -80 -8 -224 -22 -320 -31 -96 -9 -190 -21 -208 -26 l-32 -11 0 -214 c0 -118 4 -222 9 -232 6 -9 15 -124 20 -255 6 -131 18 -338 26 -460 15 -229 51 -816 61 -992 3 -55 9 -161 14 -235 6 -74 14 -223 20 -330 6 -107 17 -294 25 -415 8 -121 17 -274 20 -340 3 -66 10 -176 15 -245 5 -69 14 -210 20 -315 5 -104 16 -296 25 -425 8 -129 24 -386 35 -570 11 -184 27 -445 35 -580 9 -135 20 -328 25 -430 6 -102 15 -246 20 -320 5 -74 14 -223 20 -330 6 -107 17 -294 25 -415 8 -121 17 -274 20 -340 3 -66 10 -176 15 -245 5 -69 14 -210 20 -315 5 -104 16 -296 25 -425 8 -129 24 -386 35 -570 11 -184 29 -481 40 -660 10 -179 22 -377 25 -440 4 -63 10 -171 15 -240 5 -69 14 -215 20 -325 6 -110 15 -261 20 -335 6 -74 14 -218 20 -320 5 -102 16 -291 25 -420 8 -129 24 -386 35 -570 11 -184 27 -445 35 -580 8 -135 20 -328 25 -430 5 -102 14 -248 20 -325 5 -77 14 -223 20 -325 5 -102 16 -291 25 -420 8 -129 19 -309 25 -399 5 -91 13 -168 17 -172 7 -7 232 -29 438 -43 120 -9 585 -44 795 -61 102 -8 248 -19 325 -25 166 -11 468 -34 725 -55 102 -8 248 -19 325 -25 77 -5 230 -16 340 -25 210 -16 542 -41 985 -75 146 -11 351 -27 455 -35 105 -8 219 -17 255 -20 293 -22 637 -48 795 -60 105 -8 222 -17 260 -20 103 -7 572 -43 785 -60 102 -8 248 -19 325 -25 160 -11 455 -33 725 -55 102 -8 253 -20 335 -25 83 -6 197 -15 255 -20 58 -5 179 -14 270 -20 91 -6 181 -12 200 -15 44 -6 417 -33 571 -42 l115 -6 106 149 c59 82 159 221 223 309 63 88 180 250 260 360 79 110 195 270 257 356 150 208 260 360 446 619 86 118 174 240 196 271 64 88 149 206 321 444 87 121 177 245 199 276 59 82 142 196 317 439 991 1373 1093 1514 1104 1512 14 -2 22 -114 29 -432 4 -151 11 -374 16 -495 5 -121 14 -382 20 -580 6 -198 15 -472 20 -610 6 -137 14 -401 20 -585 5 -184 17 -528 25 -765 8 -236 19 -541 23 -677 4 -136 10 -249 13 -252 11 -12 381 -15 2084 -21 1762 -5 2311 -11 2319 -24 5 -7 14 -307 21 -726 3 -165 10 -471 15 -680 16 -636 20 -818 25 -1135 3 -168 7 -381 10 -475 7 -243 24 -956 30 -1325 3 -173 10 -486 15 -695 12 -487 19 -780 25 -1135 3 -157 10 -460 15 -675 5 -214 12 -487 15 -605 3 -118 7 -354 10 -525 3 -170 7 -389 10 -485 8 -269 24 -969 30 -1320 3 -173 10 -486 15 -695 13 -532 19 -804 25 -1145 3 -162 7 -376 10 -475 9 -326 24 -994 30 -1330 3 -181 8 -406 10 -500 10 -361 25 -984 30 -1300 3 -181 10 -499 15 -705 12 -471 18 -769 25 -1125 3 -154 7 -365 10 -470 10 -367 24 -1013 30 -1335 3 -179 8 -401 10 -495 8 -268 24 -970 30 -1315 3 -173 10 -486 15 -695 12 -483 19 -777 25 -1135 5 -256 15 -671 30 -1275 3 -115 7 -349 10 -520 3 -170 10 -485 15 -700 18 -721 20 -819 25 -1130 3 -170 10 -470 15 -665 23 -878 24 -994 9 -1006 -13 -10 -164 -88 -684 -354 -121 -62 -305 -156 -410 -210 -104 -54 -307 -157 -450 -230 -143 -73 -314 -161 -380 -195 -66 -34 -228 -118 -360 -185 -132 -68 -316 -162 -410 -210 -93 -48 -312 -160 -485 -248 -574 -293 -584 -299 -592 -324 -5 -13 -57 -372 -118 -798 -60 -426 -116 -822 -125 -880 -8 -58 -24 -170 -35 -250 -12 -80 -28 -188 -36 -240 -8 -52 -18 -126 -23 -165 -5 -38 -42 -293 -81 -565 -39 -272 -76 -526 -81 -565 -5 -38 -15 -113 -23 -165 -8 -52 -24 -162 -36 -245 -22 -154 -43 -301 -80 -555 -25 -177 -59 -413 -65 -460 -3 -19 -28 -192 -56 -385 -28 -192 -57 -397 -65 -455 -7 -58 -18 -130 -24 -159 -5 -30 -10 -69 -10 -88 0 -42 -22 -65 -143 -148 -49 -33 -151 -105 -227 -160 -226 -162 -386 -276 -920 -656 -278 -198 -523 -373 -545 -389 -22 -16 -236 -168 -475 -338 -239 -171 -446 -318 -459 -329 l-24 -19 17 -520 c9 -285 18 -593 21 -684 22 -803 37 -1289 41 -1307 3 -18 13 -22 66 -28 35 -3 140 -15 233 -25 94 -11 339 -38 545 -60 206 -23 452 -49 545 -60 94 -11 256 -29 360 -40 533 -58 882 -97 995 -110 110 -13 429 -47 595 -65 72 -7 191 -20 265 -29 74 -8 221 -24 325 -36 105 -11 246 -27 315 -35 69 -8 150 -17 180 -20 30 -3 134 -14 230 -25 480 -53 861 -95 1090 -120 107 -12 272 -30 365 -40 94 -11 256 -29 360 -40 105 -12 244 -27 310 -35 66 -7 149 -16 185 -20 36 -3 142 -15 235 -25 94 -11 253 -28 355 -40 102 -11 244 -27 315 -35 72 -8 180 -20 240 -25 61 -6 137 -15 170 -20 33 -4 92 -11 130 -15 78 -7 355 -37 545 -60 69 -8 170 -19 225 -24 55 -5 163 -17 240 -25 134 -15 268 -30 670 -75 99 -11 266 -30 370 -41 105 -12 246 -27 315 -35 69 -8 150 -17 180 -20 30 -3 134 -14 230 -25 319 -35 533 -59 730 -80 107 -12 274 -30 370 -41 96 -10 236 -26 310 -34 74 -9 196 -22 270 -31 74 -8 198 -21 275 -29 77 -8 199 -21 270 -29 72 -8 211 -24 310 -35 167 -19 269 -30 735 -81 208 -23 468 -52 715 -79 99 -11 349 -39 555 -61 206 -23 452 -49 545 -60 94 -11 256 -29 360 -40 466 -51 794 -87 1045 -115 242 -27 402 -45 550 -60 80 -8 162 -17 183 -21 l39 -6 171 168 c95 93 255 250 357 349 271 264 1281 1256 1526 1498 117 115 214 205 217 200 11 -18 27 -472 42 -1193 3 -151 10 -399 15 -550 6 -151 10 -316 10 -367 l0 -91 33 -10 c17 -6 66 -13 107 -16 41 -4 152 -15 245 -26 209 -24 470 -53 720 -80 105 -11 246 -27 315 -35 69 -8 150 -16 180 -20 30 -3 134 -14 230 -25 172 -19 362 -40 723 -80 100 -11 243 -27 317 -35 74 -9 239 -26 365 -40 127 -14 309 -34 405 -45 96 -10 261 -29 365 -40 105 -12 244 -27 310 -35 66 -7 149 -16 185 -20 36 -3 142 -15 235 -25 94 -11 253 -28 355 -40 102 -11 244 -27 315 -35 72 -9 193 -22 270 -30 132 -13 466 -50 865 -94 96 -11 261 -30 365 -41 105 -12 244 -27 310 -35 66 -7 149 -16 185 -20 36 -3 142 -15 235 -25 186 -21 441 -49 720 -80 99 -11 241 -27 315 -35 74 -9 239 -26 365 -40 127 -14 309 -34 405 -45 96 -10 256 -28 355 -39 167 -19 268 -30 735 -81 243 -27 692 -76 950 -106 74 -8 200 -21 280 -29 80 -8 177 -19 215 -24 39 -6 99 -13 135 -16 36 -3 142 -15 235 -25 94 -11 253 -28 355 -40 346 -38 545 -60 730 -80 188 -21 390 -43 715 -79 99 -11 261 -29 360 -40 99 -11 268 -30 375 -41 107 -12 272 -30 365 -40 94 -11 251 -28 350 -39 167 -19 272 -30 735 -81 96 -10 256 -28 355 -39 99 -11 266 -30 370 -41 105 -12 244 -27 310 -35 66 -8 152 -17 190 -20 39 -3 120 -13 180 -20 61 -8 164 -19 230 -25 66 -6 124 -15 129 -20 6 -6 57 -10 115 -10 l106 0 3502 3502 3503 3503 0 1202 0 1202 -32 5 c-43 6 -261 23 -463 36 -88 6 -207 15 -265 20 -58 5 -179 14 -270 20 -183 12 -360 29 -372 36 -4 3 -8 1343 -8 2979 l0 2974 -37 10 c-21 5 -74 16 -118 24 -44 9 -132 25 -195 37 -255 47 -321 60 -460 85 -80 14 -176 32 -215 40 -38 7 -124 23 -190 35 -66 12 -163 30 -215 40 -52 10 -149 28 -215 40 -66 12 -163 30 -215 40 -52 10 -149 28 -215 40 -120 22 -241 44 -430 79 -55 11 -143 27 -195 37 -52 10 -101 22 -107 27 -10 8 -13 2809 -13 13948 0 7666 4 13940 8 13943 8 4 172 -25 742 -134 58 -11 249 -47 425 -80 176 -33 367 -69 425 -80 58 -11 285 -54 505 -95 439 -83 618 -116 770 -146 55 -10 125 -22 156 -25 l56 -6 27 33 c25 32 241 323 446 602 90 122 220 297 475 642 61 83 153 208 205 278 52 71 183 247 290 392 107 145 281 379 385 520 105 142 237 321 295 399 58 78 150 202 204 276 55 74 143 194 196 265 53 72 174 236 270 365 95 129 230 312 300 405 69 94 168 228 220 298 136 184 353 479 422 571 l59 79 -5 46 c-3 25 -11 120 -16 211 -6 91 -17 235 -25 320 -21 240 -28 367 -18 373 4 3 85 10 178 16 94 6 217 16 275 21 58 6 197 17 310 25 199 14 406 29 790 59 102 8 226 18 275 21 292 19 430 37 501 64 159 62 276 166 533 474 53 63 87 94 124 113 419 210 802 894 1061 1894 48 189 137 583 160 715 55 313 68 388 90 535 62 418 124 963 146 1295 6 83 15 204 21 270 6 66 14 218 18 338 5 144 11 221 19 229 17 17 17 2419 1 2435 -8 8 -15 86 -20 215 -5 112 -15 275 -23 363 -8 88 -18 198 -21 245 -9 127 -65 623 -96 845 -64 466 -174 1079 -259 1450 -11 50 -27 119 -35 155 -30 136 -156 623 -209 805 -205 712 -453 1375 -699 1875 l-72 145 -3 1832 -2 1833 61 142 c95 223 188 466 262 688 63 186 163 513 197 640 12 47 31 114 40 150 94 341 173 698 280 1265 32 174 86 517 119 765 90 674 136 1223 171 2035 12 266 5 1399 -9 1615 -6 85 -15 245 -21 355 -27 545 -101 1358 -181 2000 -10 88 -22 180 -25 205 -5 48 -21 159 -54 390 -49 328 -82 534 -137 835 -19 105 -38 213 -43 240 -5 28 -23 120 -40 205 -18 85 -35 166 -37 180 -4 25 -26 126 -64 293 -25 108 -136 558 -174 702 -57 218 -178 616 -258 850 -175 513 -412 1041 -610 1360 -305 492 -587 760 -915 868 -63 21 -83 22 -362 21 -162 -1 -421 -9 -575 -17 -154 -9 -359 -19 -455 -22 -96 -3 -245 -10 -330 -15 -85 -5 -276 -14 -425 -20 -148 -6 -349 -15 -445 -20 -96 -6 -335 -17 -530 -25 -195 -8 -436 -19 -535 -25 -99 -5 -301 -14 -450 -20 -148 -5 -497 -21 -775 -35 -278 -14 -629 -30 -780 -35 -151 -6 -392 -17 -535 -25 -143 -8 -343 -17 -445 -20 -125 -5 -202 -12 -237 -23 -43 -13 -59 -13 -90 -4 -36 12 -275 82 -533 157 -127 37 -239 70 -375 110 -125 37 -369 108 -565 165 -91 27 -219 64 -285 83 -66 20 -205 61 -310 91 -104 30 -253 74 -330 97 -77 22 -160 47 -185 53 -25 7 -117 34 -205 60 -88 27 -180 54 -205 60 -25 7 -117 34 -205 61 -88 26 -173 51 -190 55 -16 4 -70 20 -120 35 -49 15 -142 42 -205 60 -63 18 -194 56 -290 85 -96 29 -188 56 -205 60 -16 4 -85 24 -152 44 -235 69 -368 108 -413 120 -25 7 -117 34 -205 60 -88 27 -180 54 -205 60 -25 7 -117 34 -205 60 -88 27 -180 54 -205 60 -25 7 -117 34 -205 61 -88 26 -173 51 -190 55 -16 4 -70 20 -120 35 -49 14 -157 46 -240 70 -82 24 -213 63 -290 86 -77 23 -153 45 -170 49 -16 4 -85 24 -152 44 -235 69 -368 108 -413 120 -25 7 -117 34 -205 60 -88 27 -180 54 -205 60 -25 7 -117 34 -205 60 -88 27 -180 54 -205 60 -44 13 -318 94 -415 123 -78 24 -170 26 -429 9 -133 -8 -304 -18 -381 -21 -77 -3 -196 -10 -265 -15 -69 -5 -224 -14 -345 -20 -121 -5 -287 -15 -370 -20 -82 -6 -278 -17 -435 -25 -157 -8 -364 -19 -460 -25 -353 -21 -475 -26 -482 -21 -6 6 -10 124 -29 904 -8 327 -7 432 2 443 7 8 30 14 58 14 25 0 78 5 118 10 40 5 161 16 270 25 109 9 205 18 213 20 8 2 80 9 160 15 80 6 206 17 280 25 74 7 176 17 225 20 50 3 126 10 170 15 44 5 166 16 270 25 105 8 201 17 215 20 14 2 88 9 165 15 77 6 203 17 280 25 77 8 176 17 220 20 44 3 143 12 220 20 77 8 178 17 225 20 47 4 121 10 165 15 44 5 139 14 210 20 72 6 200 17 285 25 85 8 255 24 378 35 208 18 327 29 880 80 119 10 321 29 447 40 127 12 322 30 435 40 113 11 251 23 308 26 57 4 110 13 120 20 19 14 19 -58 2 1449 -5 473 -12 1279 -15 1790 -3 512 -8 1067 -10 1235 -9 527 -24 2062 -30 2915 -3 451 -8 1075 -11 1386 l-7 567 19 10 c10 5 78 15 149 21 72 6 189 18 260 26 72 8 222 24 335 35 244 24 538 54 785 80 99 11 216 22 260 25 44 3 99 13 122 21 301 108 557 1435 646 3338 10 203 15 250 27 257 8 4 80 15 160 23 80 9 233 27 340 41 188 25 281 36 570 69 74 9 187 23 250 31 63 8 194 24 290 35 96 11 249 29 340 40 445 52 509 59 565 65 76 7 272 34 304 41 l24 5 -7 87 c-4 48 -13 215 -21 372 -9 157 -17 299 -20 315 -3 17 -9 125 -15 240 -6 116 -15 262 -20 325 -5 63 -14 194 -20 290 -6 96 -17 265 -25 375 -9 110 -24 319 -35 465 -24 320 -63 748 -100 1110 -9 93 -30 235 -51 355 -6 33 -19 80 -30 104 -18 41 -21 43 -51 37 -35 -6 -112 -13 -483 -46 -126 -11 -327 -29 -445 -40 -118 -11 -318 -29 -445 -40 -126 -11 -324 -29 -440 -40 -115 -10 -246 -22 -290 -25 -44 -3 -143 -12 -220 -20 -77 -7 -175 -16 -218 -20 l-77 -6 -9 23 c-4 13 -16 75 -25 138 -88 597 -202 1062 -323 1308 -53 110 -136 204 -188 215 -17 3 -86 -1 -155 -9 -69 -8 -179 -19 -245 -24 -66 -6 -181 -17 -255 -25 -74 -8 -232 -24 -350 -35 -118 -11 -300 -29 -405 -40 -104 -10 -226 -22 -270 -25 -44 -4 -127 -13 -185 -20 -64 -8 -109 -10 -116 -4 -8 6 -13 334 -17 1150 -6 891 -10 1145 -19 1157 -7 8 -78 62 -158 119 -80 56 -192 137 -250 179 -58 41 -154 111 -215 155 -60 43 -189 135 -285 205 -96 69 -224 161 -285 205 -60 43 -180 129 -265 190 -85 62 -175 126 -200 144 -25 17 -115 82 -200 144 -85 61 -211 152 -280 201 -69 49 -197 141 -285 205 -88 63 -218 157 -290 209 -71 51 -229 164 -350 251 -121 87 -247 178 -280 202 -33 24 -99 71 -147 106 -47 34 -139 100 -205 146 -65 46 -140 101 -168 121 -27 20 -124 90 -215 155 -91 65 -187 135 -215 155 -27 20 -156 112 -285 205 -129 92 -257 185 -285 205 -51 38 -274 198 -355 255 -25 17 -112 81 -195 140 -82 60 -195 141 -250 180 -55 39 -166 119 -248 178 l-147 107 -51 0 c-29 0 -133 -9 -233 -20 -175 -18 -357 -37 -786 -80 -212 -21 -462 -46 -800 -81 -107 -11 -222 -22 -255 -25 -33 -3 -121 -11 -195 -19 -74 -8 -227 -23 -340 -35 -113 -11 -293 -29 -400 -40 -107 -11 -287 -29 -400 -40 -113 -12 -290 -29 -395 -40 -104 -11 -282 -29 -395 -40 -374 -37 -505 -51 -522 -56 -10 -3 -29 11 -54 43 -142 177 -278 290 -509 420 -582 330 -1552 567 -2504 613 -118 6 -218 13 -223 16 -4 3 -8 1578 -8 3500 l0 3495 22 52 c34 82 91 166 235 351 236 303 248 320 315 416 225 327 328 603 328 880 -1 438 -198 883 -560 1264 -152 160 -438 376 -624 472 -155 79 -352 145 -479 160 -31 3 -60 10 -63 15 -7 12 -531 12 -538 0z m814 -80171 c256 -6 542 -12 635 -15 94 -3 341 -7 550 -10 802 -12 1577 -33 1586 -43 6 -6 28 -706 44 -1372 3 -124 10 -355 15 -515 11 -337 18 -561 25 -875 3 -124 10 -360 15 -525 6 -165 14 -480 20 -700 5 -220 16 -625 25 -900 8 -275 19 -678 25 -895 6 -217 15 -523 20 -680 5 -157 12 -406 15 -555 3 -148 10 -396 15 -550 5 -154 14 -469 20 -700 5 -231 17 -629 25 -885 8 -256 17 -580 20 -720 3 -140 7 -313 10 -385 6 -154 22 -720 30 -1060 3 -132 10 -368 15 -525 5 -157 14 -476 20 -710 6 -234 15 -558 20 -720 10 -302 16 -509 25 -895 3 -121 10 -353 15 -515 5 -162 14 -482 20 -710 6 -228 17 -626 25 -885 7 -258 17 -580 20 -715 3 -135 12 -454 20 -710 7 -256 17 -582 20 -725 3 -143 10 -386 15 -540 5 -154 14 -469 20 -700 6 -231 17 -629 25 -885 8 -256 17 -577 20 -715 3 -137 10 -385 15 -550 6 -165 14 -475 20 -690 5 -214 16 -624 25 -910 8 -286 22 -763 30 -1060 8 -297 17 -601 20 -675 3 -74 7 -252 10 -395 3 -143 10 -386 15 -540 5 -154 14 -469 20 -700 6 -231 17 -625 25 -875 8 -250 17 -599 21 -775 4 -176 7 -329 7 -340 2 -66 -1 -70 -180 -240 -98 -92 -210 -199 -250 -237 -40 -39 -74 -65 -78 -59 -3 6 -8 48 -11 93 -11 206 -25 549 -34 843 -6 176 -15 406 -20 510 -5 105 -14 345 -20 535 -15 486 -28 712 -41 721 -6 3 -81 12 -167 18 -87 7 -231 18 -322 26 -91 8 -221 17 -290 20 -69 3 -215 13 -325 20 -110 8 -283 19 -385 25 -102 6 -239 15 -305 20 -66 5 -210 14 -320 20 -110 6 -249 15 -310 20 -60 5 -166 12 -235 15 -69 3 -215 13 -325 20 -110 8 -285 19 -390 25 -231 13 -414 28 -426 36 -9 5 -13 26417 -4 26426 5 5 164 3 855 -12z"/>
</g>
</g>
</svg>
