<?xml version="1.0" standalone="no"?>
<!DOCTYPE svg PUBLIC "-//W3C//DTD SVG 1.1//EN"
 "http://www.w3.org/Graphics/SVG/1.1/DTD/svg11.dtd">
<!-- Created with svg_stack (http://github.com/astraw/svg_stack) -->
<svg xmlns:sodipodi="http://sodipodi.sourceforge.net/DTD/sodipodi-0.dtd" xmlns="http://www.w3.org/2000/svg" version="1.1" width="242.0" height="242.0">
  <defs/>
  <g id="id0:id0" transform="matrix(1.25,0,0,1.25,0.0,0.0)"><g transform="translate(0.000000,193.600000) scale(0.040000,-0.040000)" fill="#ffffff" stroke="none">
<path d="M0 2420 l0 -2420 2420 0 2420 0 0 2420 0 2420 -2420 0 -2420 0 0 -2420z m1031 869 c134 -42 205 -128 229 -276 23 -142 -18 -280 -109 -368 -28 -27 -51 -52 -51 -56 0 -4 19 -17 43 -29 95 -49 140 -122 158 -255 6 -49 8 -110 4 -139 -4 -28 -9 -67 -11 -86 -17 -156 -103 -261 -256 -315 -35 -12 -103 -15 -360 -15 l-316 0 -31 26 -31 26 0 728 0 728 31 26 31 26 301 0 c278 0 307 -2 368 -21z m1775 -96 c30 -19 34 -50 34 -253 l0 -178 23 -6 c12 -3 79 -6 149 -6 l127 0 16 -30 c20 -39 19 -79 -5 -117 l-20 -33 -132 0 c-73 0 -139 -4 -146 -9 -11 -6 -13 -62 -10 -275 l3 -268 26 -22 c22 -19 42 -24 124 -29 75 -4 105 -10 124 -25 57 -42 64 -114 16 -166 l-24 -26 -134 0 c-160 0 -230 19 -300 80 -100 88 -107 136 -107 790 l0 515 20 32 c11 18 30 35 42 37 13 3 32 7 43 10 31 6 108 -6 131 -21z m-1163 -440 c8 -10 23 -38 32 -63 10 -25 23 -58 30 -75 7 -16 16 -41 20 -55 3 -14 15 -43 25 -65 34 -73 60 -135 60 -143 0 -5 9 -27 20 -50 11 -22 20 -45 20 -50 0 -4 9 -27 20 -50 11 -22 20 -47 20 -55 0 -20 39 -53 48 -41 5 5 23 56 42 114 18 58 54 170 80 250 26 80 53 165 61 190 26 88 40 105 92 108 84 6 177 -63 177 -129 0 -21 -4 -41 -10 -44 -5 -3 -10 -13 -10 -21 0 -8 -9 -33 -19 -57 -27 -60 -150 -373 -168 -427 -8 -25 -19 -49 -24 -55 -5 -5 -9 -15 -9 -22 0 -7 -8 -32 -19 -56 -10 -23 -32 -78 -49 -122 -105 -278 -134 -341 -194 -417 -77 -99 -191 -148 -341 -148 -79 0 -94 3 -114 22 -19 18 -23 32 -23 83 0 79 16 102 78 110 97 13 144 35 203 95 45 46 59 69 77 126 12 38 22 77 22 87 0 16 -20 63 -94 221 -78 165 -126 266 -161 341 -20 44 -57 122 -81 174 -50 105 -54 139 -21 175 51 59 175 87 210 49z m2061 -19 c18 -20 47 -42 66 -48 29 -9 35 -17 42 -51 5 -21 18 -49 29 -61 25 -27 9 -41 -23 -21 -52 32 -105 41 -150 27 -100 -32 -145 -84 -156 -177 -8 -71 -3 -73 187 -73 150 1 168 3 190 20 21 18 23 27 19 70 -4 34 -13 59 -28 75 -33 35 -18 47 36 28 27 -9 60 -13 82 -9 29 4 43 0 68 -19 18 -14 39 -25 47 -25 29 0 40 -30 40 -104 -1 -82 -18 -126 -60 -153 -24 -16 -62 -19 -296 -23 -310 -6 -301 -3 -279 -87 17 -64 58 -112 123 -146 49 -25 63 -27 139 -25 74 3 95 8 164 41 94 45 119 46 156 9 61 -62 47 -129 -40 -184 -82 -52 -164 -70 -308 -65 -138 4 -186 14 -265 54 -113 56 -181 135 -216 247 -17 57 -21 93 -21 220 0 133 3 159 24 218 48 137 151 229 321 286 56 18 76 14 109 -24z m793 -744 c92 -56 94 -176 3 -237 -68 -47 -156 -18 -191 63 -54 120 77 242 188 174z"/>
<path d="M583 3083 c-10 -3 -13 -52 -13 -193 0 -141 3 -189 13 -192 6 -3 77 -2 158 2 119 5 151 9 180 26 42 24 71 81 77 151 8 99 -38 172 -127 202 -33 11 -263 14 -288 4z"/>
<path d="M577 2483 c-4 -3 -7 -118 -7 -254 0 -216 2 -248 16 -253 9 -3 73 -6 144 -6 180 0 233 22 283 115 19 34 22 57 22 155 0 107 -2 118 -27 161 -45 76 -85 89 -271 89 -85 0 -157 -3 -160 -7z"/>
</g>
</g>
  <g id="id1:id1" transform="matrix(1.25,0,0,1.25,0.0,0.0)"><g transform="translate(0.000000,193.600000) scale(0.040000,-0.040000)" fill="#1478bb" stroke="none">
<path d="M322 3300 l-42 -30 0 -733 c1 -677 2 -734 18 -752 47 -56 43 -55 373 -55 284 0 310 2 370 21 88 29 107 40 160 96 93 96 114 163 113 368 0 150 -2 164 -25 215 -24 51 -65 96 -134 146 l-30 21 45 45 c25 25 58 71 75 104 l29 59 0 135 0 135 -29 58 c-32 64 -82 115 -146 147 -87 45 -133 50 -443 50 l-293 0 -41 -30z m579 -253 c61 -32 82 -79 77 -166 -6 -94 -22 -121 -88 -148 -46 -19 -75 -22 -172 -23 -83 0 -119 4 -125 13 -12 18 -12 320 -1 335 8 8 48 12 138 12 113 0 132 -2 171 -23z m35 -594 c55 -27 77 -78 82 -193 7 -152 -23 -220 -111 -254 -35 -13 -72 -16 -183 -14 l-139 3 -3 217 c-3 146 0 223 8 237 10 20 19 21 160 21 121 0 156 -3 186 -17z"/>
<path d="M2663 3233 c-19 -3 -48 -18 -69 -38 l-35 -34 3 -598 3 -598 24 -45 c71 -136 181 -190 393 -190 l117 0 35 30 c52 46 62 88 37 145 -25 58 -55 70 -180 78 -67 4 -99 11 -110 22 -14 14 -16 52 -16 278 l0 262 131 5 c147 6 163 12 185 77 13 39 6 75 -22 115 l-20 27 -137 3 -137 3 -6 200 c-3 110 -6 201 -7 201 -1 1 -17 13 -34 26 -34 26 -97 38 -155 31z"/>
<path d="M1489 2765 c-56 -29 -99 -78 -99 -111 0 -14 20 -68 45 -121 25 -52 45 -96 45 -98 0 -1 32 -69 70 -149 39 -81 70 -149 70 -151 0 -2 32 -70 71 -152 79 -164 87 -193 69 -249 -43 -140 -123 -210 -263 -229 -27 -4 -59 -16 -74 -29 -23 -20 -27 -33 -31 -89 l-4 -67 35 -35 35 -35 79 0 c148 0 258 45 346 140 65 70 106 150 187 365 22 61 45 119 50 130 4 11 36 92 70 180 34 88 71 179 81 202 10 24 19 47 19 53 0 6 4 18 9 28 5 9 29 67 52 127 23 61 46 114 51 119 16 19 8 79 -16 110 -30 40 -123 86 -174 86 -57 0 -78 -28 -120 -160 -70 -224 -154 -476 -161 -483 -4 -4 -13 -2 -18 5 -6 7 -64 145 -128 306 -65 162 -127 302 -138 313 -29 27 -100 24 -158 -6z"/>
<path d="M3580 2771 c-113 -36 -194 -92 -261 -181 -70 -94 -89 -165 -89 -340 0 -197 32 -293 130 -391 100 -101 231 -149 401 -149 114 1 194 16 266 51 64 31 120 84 128 120 13 59 -54 149 -113 149 -10 0 -58 -18 -105 -40 -77 -36 -93 -40 -163 -40 -66 0 -88 5 -134 28 -59 30 -96 74 -106 128 -12 66 -21 64 261 64 l256 0 43 25 c57 33 76 76 76 171 0 88 -9 110 -49 119 -16 3 -39 17 -52 31 -20 21 -28 23 -71 18 -89 -12 -151 29 -168 110 l-11 52 -42 10 c-33 7 -47 17 -66 47 -28 43 -45 45 -131 18z m201 -217 c64 -21 100 -66 107 -132 6 -71 2 -73 -189 -70 l-164 3 -3 40 c-2 27 5 54 21 85 19 37 33 49 78 67 65 27 85 28 150 7z"/>
<path d="M4378 2016 c-72 -32 -119 -117 -98 -180 16 -49 45 -83 91 -106 46 -24 70 -25 112 -4 112 56 137 172 55 251 -53 51 -105 64 -160 39z"/>
</g>
</g>
</svg>
