<svg xmlns="http://www.w3.org/2000/svg" version="1.0" width="584.000000pt" height="584.000000pt" viewBox="0 0 584.000000 584.000000" preserveAspectRatio="xMidYMid meet">
  <g transform="translate(0.000000,584.000000) scale(0.100000,-0.100000)" stroke="none">
    <path d="M 0 0 H 5840.0 V 5840.0 H 0 Z" fill="#ffffff" id="background"/>
    <path stroke="none" d="M3159 5192 l-26 -37 69 3 c82 5 85 1 68 -96 -17 -103 -32 -176 -37 -189 -4 -9 6 -13 30 -13 l35 0 5 58 c11 106 24 200 31 211 11 18 48 13 72 -10 l22 -20 26 26 c14 14 26 28 26 30 0 2 -33 8 -72 15 -143 22 -188 33 -199 46 -16 20 -21 18 -50 -24z" fill="#000000" id="000000-000001"/>
    <path stroke="none" d="M2780 5212 c0 -4 9 -13 21 -20 19 -12 20 -21 17 -135 -2 -67 -7 -129 -11 -139 -7 -13 -2 -18 22 -23 45 -10 52 1 28 43 -18 34 -20 46 -11 107 5 38 14 70 19 71 6 2 51 -48 100 -111 50 -63 96 -115 103 -115 9 0 12 23 12 83 0 46 3 118 6 159 6 72 6 76 -16 83 -32 10 -46 -8 -26 -36 17 -25 24 -173 8 -183 -5 -3 -50 46 -101 109 -89 112 -92 115 -131 115 -22 0 -40 -3 -40 -8z" fill="#000000" id="000000-000002"/>
    <path stroke="none" d="M2495 5184 c-99 -36 -137 -120 -100 -225 22 -62 59 -97 111 -105 75 -11 128 3 176 45 43 39 43 39 43 107 0 103 -32 158 -104 183 -44 14 -76 13 -126 -5z" fill="#000000" id="000000-000003"/>
    <path stroke="none" d="M2614 5145 c41 -27 77 -156 55 -196 -25 -47 -61 -69 -113 -69 -69 0 -116 73 -116 181 0 58 44 99 106 99 25 0 55 -7 68 -15z" fill="#ffffff" id="ffffff-000002"/>
    <path stroke="none" d="M2184 5103 c-12 -2 -30 -13 -40 -24 -11 -12 -30 -19 -56 -19 -42 0 -47 -9 -19 -34 11 -10 31 -56 46 -104 15 -48 31 -97 36 -110 5 -13 9 -32 9 -44 0 -17 4 -19 27 -13 16 4 29 8 31 10 2 2 -4 24 -12 49 -26 77 -20 83 47 38 73 -48 92 -55 116 -43 21 12 29 31 11 31 -5 0 -37 18 -70 39 -34 22 -66 41 -73 44 -7 2 -1 16 16 36 36 43 38 112 5 135 -22 16 -33 17 -74 9z" fill="#000000" id="000000-000005"/>
    <path stroke="none" d="M2224 5036 c7 -28 0 -53 -22 -78 -24 -28 -37 -21 -51 27 -16 54 -5 75 39 75 21 0 29 -6 34 -24z" fill="#ffffff" id="ffffff-000003"/>
    <path stroke="none" d="M3805 5037 c5 -19 -12 -40 -103 -130 -93 -90 -108 -108 -95 -119 12 -9 19 -9 36 2 59 37 100 51 145 48 l47 -3 3 -65 c3 -63 4 -66 34 -78 34 -13 54 -7 40 11 -15 19 -23 73 -31 204 -8 130 -17 153 -57 153 -20 0 -23 -4 -19 -23z" fill="#000000" id="000000-000006"/>
    <path stroke="none" d="M3820 4914 c0 -28 -5 -36 -26 -44 -30 -12 -74 -13 -74 -3 0 13 83 92 92 87 4 -3 8 -21 8 -40z" fill="#ffffff" id="ffffff-000004"/>
    <path stroke="none" d="M1985 5032 c-6 -5 -37 -19 -70 -32 -33 -13 -66 -28 -72 -33 -17 -12 -16 -27 0 -27 17 0 30 -27 102 -208 21 -51 42 -91 48 -89 30 10 30 36 -2 115 -18 45 -30 86 -26 91 3 6 26 11 51 11 42 0 44 1 44 30 0 35 -4 36 -58 10 -22 -11 -45 -20 -50 -20 -13 0 -41 71 -35 87 5 13 86 29 102 19 15 -9 20 6 10 32 -9 23 -28 29 -44 14z" fill="#000000" id="000000-000007"/>
    <path stroke="none" d="M1641 4871 c-18 -16 -47 -35 -66 -41 -41 -14 -44 -23 -11 -38 14 -6 38 -40 61 -83 21 -41 46 -88 56 -106 11 -19 19 -40 19 -48 0 -19 29 -19 54 0 17 13 17 15 -7 47 -32 43 -43 78 -25 78 8 0 18 -4 24 -9 5 -5 35 -18 67 -29 47 -16 64 -18 83 -10 32 15 30 23 -8 38 -18 7 -52 21 -75 31 -24 11 -50 19 -58 19 -19 0 -19 -2 5 45 24 47 25 67 5 105 -22 42 -80 42 -124 1z" fill="#000000" id="000000-000008"/>
    <path stroke="none" d="M1720 4802 c0 -20 -8 -46 -16 -57 -15 -20 -16 -20 -40 10 -30 37 -31 69 -2 89 32 23 58 5 58 -42z" fill="#ffffff" id="ffffff-000005"/>
    <path stroke="none" d="M4047 4879 c-41 -31 -67 -89 -67 -151 0 -44 5 -60 30 -89 37 -46 106 -79 163 -79 36 0 46 4 57 25 16 30 9 40 -18 26 -27 -14 -85 -14 -116 1 -80 36 -77 171 4 235 21 17 105 16 140 -2 15 -8 39 -29 53 -46 l25 -32 26 19 c14 11 26 21 26 24 0 3 -38 25 -84 48 -73 36 -92 42 -148 42 -48 -1 -70 -6 -91 -21z" fill="#000000" id="000000-000009"/>
    <path stroke="none" d="M1405 4729 c-72 -51 -88 -69 -61 -69 22 0 155 -199 156 -232 0 -16 2 -28 5 -28 12 0 175 114 175 122 0 10 -29 43 -33 37 -63 -96 -88 -101 -135 -28 -37 57 -34 67 20 78 33 7 45 27 34 57 -5 12 -14 9 -50 -15 -25 -17 -49 -31 -54 -31 -10 0 -52 60 -52 73 0 10 77 47 95 47 24 0 14 34 -10 37 -11 2 -51 -20 -90 -48z" fill="#000000" id="000000-000010"/>
    <path stroke="none" d="M4518 4678 c-2 -18 -31 -37 -138 -91 -74 -37 -136 -71 -138 -75 -5 -14 40 -34 51 -23 16 16 176 14 183 -2 2 -7 -2 -39 -10 -71 l-16 -59 68 -66 c37 -36 75 -78 84 -93 50 -76 179 -77 249 -1 39 41 49 66 49 120 0 39 -6 56 -30 84 -31 38 -104 79 -141 79 -14 0 -54 -31 -106 -81 -46 -44 -89 -78 -96 -76 -14 5 -13 72 3 137 6 25 15 61 20 80 4 19 13 53 19 75 9 35 8 42 -11 62 -27 29 -36 29 -40 1z" fill="#000000" id="000000-000011"/>
    <path stroke="none" d="M4500 4591 c0 -5 -3 -23 -6 -40 -5 -24 -12 -31 -30 -31 -25 0 -74 19 -74 29 0 7 80 48 98 50 6 0 12 -3 12 -8z" fill="#ffffff" id="ffffff-000006"/>
    <path stroke="none" d="M4793 4428 c57 -33 75 -76 53 -128 -28 -67 -118 -127 -170 -114 -29 7 -71 50 -81 83 -8 26 23 64 108 132 54 43 58 44 90 27z" fill="#ffffff" id="ffffff-000007"/>
    <path stroke="none" d="M1230 4604 c-66 -67 -164 -144 -183 -144 -13 0 -17 -5 -13 -16 3 -9 9 -27 12 -40 8 -31 22 -31 34 0 8 23 55 66 70 66 11 0 110 -103 155 -162 32 -41 39 -46 56 -35 10 6 20 16 23 22 2 6 -38 56 -90 111 -52 54 -94 104 -94 111 0 17 41 43 68 43 18 0 23 4 18 16 -3 9 -6 27 -6 40 0 32 -8 30 -50 -12z" fill="#000000" id="000000-000012"/>
    <path stroke="none" d="M2100 4532 c-120 -60 -190 -125 -226 -211 -19 -45 -18 -65 4 -84 43 -39 135 -4 211 78 62 68 91 131 91 195 0 59 -4 60 -80 22z" fill="#0f2034" id="0f2034-000001"/>
    <path stroke="none" d="M2440 4525 c-126 -28 -176 -57 -206 -121 -16 -33 -16 -36 2 -49 50 -37 166 -29 263 19 71 34 176 126 169 147 -6 19 -153 21 -228 4z" fill="#0f2034" id="0f2034-000002"/>
    <path stroke="none" d="M3727 4517 c-7 -18 13 -98 37 -148 20 -43 97 -120 149 -148 51 -28 112 -28 128 0 15 30 3 85 -32 135 -64 94 -264 208 -282 161z" fill="#0f2034" id="0f2034-000003"/>
    <path stroke="none" d="M3255 4510 c-29 -48 130 -165 271 -200 42 -11 60 -11 98 0 54 15 70 31 61 62 -9 29 -52 75 -87 92 -25 13 -46 19 -170 46 -60 13 -165 13 -173 0z" fill="#0f2034" id="0f2034-000004"/>
    <path stroke="none" d="M1578 4211 c-104 -113 -139 -206 -102 -279 13 -27 21 -32 52 -32 91 0 172 123 172 262 0 75 -15 118 -41 118 -9 0 -46 -31 -81 -69z" fill="#0f2034" id="0f2034-000005"/>
    <path stroke="none" d="M4229 4238 c-7 -12 -12 -58 -11 -103 0 -99 30 -175 87 -223 86 -71 140 -47 140 61 0 54 -5 71 -35 121 -37 61 -136 166 -157 166 -7 0 -18 -10 -24 -22z" fill="#0f2034" id="0f2034-000006"/>
    <path stroke="none" d="M4978 4242 c-7 -24 -190 -162 -217 -162 -14 0 -21 -6 -21 -20 0 -11 4 -20 8 -20 4 0 15 -12 24 -27 9 -16 25 -38 35 -50 10 -12 26 -31 36 -43 15 -17 21 -19 33 -10 21 18 17 39 -8 49 -22 8 -47 32 -62 58 -3 6 15 27 45 49 58 42 80 39 89 -12 4 -21 12 -30 29 -32 42 -6 44 13 7 61 l-35 46 30 25 c17 15 36 26 44 26 16 0 42 -39 47 -71 3 -25 33 -38 50 -21 9 9 -104 172 -121 172 -5 0 -11 -8 -13 -18z" fill="#000000" id="000000-000013"/>
    <path stroke="none" d="M2065 4225 c-17 -7 -39 -22 -49 -34 -17 -19 -17 -22 -3 -44 31 -47 95 -67 216 -67 138 0 273 32 255 61 -12 20 -83 58 -144 78 -74 25 -226 28 -275 6z" fill="#0f2034" id="0f2034-000007"/>
    <path stroke="none" d="M846 4198 c-22 -30 -20 -38 7 -38 20 0 32 -16 74 -102 27 -57 56 -120 63 -140 15 -42 21 -45 41 -22 10 12 10 22 1 48 -15 40 -15 89 -1 139 11 42 20 44 93 22 48 -15 50 -14 73 7 34 32 28 43 -25 45 -26 1 -100 15 -165 32 -65 17 -125 31 -132 31 -8 0 -21 -10 -29 -22z" fill="#000000" id="000000-000014"/>
    <path stroke="none" d="M1010 4125 c10 -12 10 -19 2 -27 -7 -7 -12 -25 -12 -41 0 -40 -20 -30 -47 24 -12 24 -22 47 -22 52 -2 14 67 7 79 -8z" fill="#ffffff" id="ffffff-000008"/>
    <path stroke="none" d="M3603 4205 c-115 -37 -184 -79 -168 -105 14 -23 125 -43 240 -43 131 -1 170 10 215 58 30 31 22 49 -36 82 -32 19 -53 23 -124 22 -47 -1 -104 -7 -127 -14z" fill="#0f2034" id="0f2034-000008"/>
    <path stroke="none" d="M1855 4041 c-91 -13 -160 -58 -153 -103 9 -65 194 -81 333 -28 106 40 144 67 130 90 -19 31 -208 56 -310 41z" fill="#0f2034" id="0f2034-000009"/>
    <path stroke="none" d="M5144 4023 c8 -27 -2 -36 -89 -83 -121 -66 -129 -70 -142 -70 -16 0 -17 -42 -1 -58 16 -16 28 -15 28 1 0 8 10 23 23 34 25 23 132 83 147 83 12 0 13 -32 2 -45 -7 -9 -20 -45 -36 -101 -6 -19 0 -22 66 -33 88 -15 124 -29 112 -41 -12 -11 -173 -99 -196 -107 -22 -7 -23 -26 -3 -43 13 -10 19 -10 33 2 17 16 187 109 260 144 1 1 0 8 -3 16 -6 16 -41 28 -145 50 -69 15 -73 21 -51 73 48 110 52 130 36 163 -17 34 -51 46 -41 15z" fill="#000000" id="000000-000015"/>
    <path stroke="none" d="M3806 4003 c-82 -29 -81 -49 2 -86 105 -47 155 -60 242 -61 66 -1 94 4 125 19 69 35 54 78 -43 121 -46 21 -67 24 -170 23 -73 -1 -132 -7 -156 -16z" fill="#0f2034" id="0f2034-000010"/>
    <path stroke="none" d="M693 3988 c-20 -33 -31 -57 -25 -62 3 -3 35 -6 71 -6 68 0 107 -16 159 -63 47 -43 20 -137 -43 -153 -32 -8 -121 28 -180 72 -53 41 -68 42 -84 8 -14 -32 -6 -47 18 -34 14 7 25 2 52 -26 43 -45 71 -60 132 -68 43 -7 47 -9 47 -36 0 -36 -50 -80 -91 -80 -44 0 -114 37 -154 81 -19 21 -35 44 -35 49 0 22 -22 8 -35 -22 -15 -36 -11 -52 11 -44 8 3 25 -10 41 -32 39 -51 59 -66 110 -82 85 -25 161 22 184 115 7 28 23 61 35 75 55 63 70 150 35 203 -35 53 -83 77 -155 77 -51 0 -66 3 -66 14 0 21 -17 29 -27 14z" fill="#000000" id="000000-000016"/>
    <path stroke="none" d="M1223 3898 c-66 -73 -107 -253 -72 -321 32 -62 93 -74 133 -26 73 87 75 222 4 337 -23 38 -37 40 -65 10z" fill="#0f2034" id="0f2034-000011"/>
    <path stroke="none" d="M4637 3883 c-55 -61 -80 -230 -44 -304 18 -40 53 -74 83 -83 44 -13 104 62 104 131 0 77 -46 200 -93 251 -25 27 -29 27 -50 5z" fill="#0f2034" id="0f2034-000012"/>
    <path stroke="none" d="M2645 3808 c-142 -15 -224 -29 -352 -59 -74 -17 -272 -79 -318 -99 -11 -4 -60 -23 -109 -42 -49 -18 -94 -42 -102 -53 -27 -41 -47 -231 -47 -455 0 -238 15 -390 60 -580 17 -75 59 -207 73 -232 6 -10 10 -23 10 -30 0 -25 120 -249 180 -337 158 -230 365 -411 631 -548 171 -88 239 -108 287 -84 9 4 76 37 147 71 344 166 596 408 764 733 88 170 126 280 181 522 35 153 53 429 40 603 -24 332 -32 355 -143 390 -34 12 -107 36 -162 55 -55 19 -120 40 -145 47 -25 7 -56 16 -70 20 -26 8 -95 25 -165 40 -214 46 -543 62 -760 38z" fill="#0f2034" id="0f2034-000013"/>
    <path stroke="none" d="M2901 3647 c-4 -64 18 -62 47 4 25 60 40 57 62 -11 7 -22 17 -40 22 -40 4 0 8 -4 8 -10 0 -5 -11 -10 -25 -10 -17 0 -28 7 -34 22 l-8 22 -12 -22 c-11 -20 -19 -22 -94 -21 l-82 2 1 51 c1 54 19 72 44 41 17 -21 27 -19 33 6 4 13 12 19 23 17 15 -3 18 -12 15 -51z" fill="#ffffff" id="ffffff-000009"/>
    <path stroke="none" d="M3142 3685 c75 -1 98 -14 98 -56 0 -36 -38 -64 -72 -53 -29 9 -38 22 -38 58 0 24 -2 27 -15 16 -8 -7 -15 -26 -15 -42 0 -25 -4 -29 -22 -26 -17 2 -22 9 -20 25 2 12 -4 35 -12 51 -17 32 -11 47 13 36 9 -4 46 -8 83 -9z" fill="#0f2034" id="0f2034-000016"/>
    <path stroke="none" d="M2730 3673 c-1 -5 -7 -19 -15 -33 -10 -18 -10 -28 -2 -38 8 -10 7 -16 -4 -23 -21 -13 -32 -6 -40 25 -4 16 -15 36 -23 45 -9 10 -13 21 -9 24 9 10 93 9 93 0z" fill="#ffffff" id="ffffff-000011"/>
    <path stroke="none" d="M3328 3668 c7 -7 12 -27 12 -45 0 -23 5 -33 15 -33 15 0 20 16 17 53 -3 29 64 23 84 -8 15 -23 18 -24 34 -10 36 32 90 5 90 -46 0 -55 -75 -76 -101 -28 -10 19 -12 19 -35 4 -21 -14 -31 -14 -61 -4 -19 6 -57 12 -83 12 l-48 1 4 55 c2 31 3 57 4 59 1 8 58 0 68 -10z" fill="#ffffff" id="ffffff-000012"/>
    <path stroke="none" d="M2584 3654 c37 -37 9 -94 -47 -94 -20 0 -47 -4 -62 -10 -20 -8 -27 -7 -31 5 -8 20 -24 19 -24 -1 0 -10 -8 -15 -22 -13 -13 2 -33 -2 -45 -9 -12 -7 -33 -12 -47 -12 -23 0 -26 4 -26 35 0 23 -6 38 -15 42 -24 9 -28 -2 -15 -42 15 -45 6 -55 -48 -58 -23 -1 -42 -5 -42 -9 0 -4 -9 -8 -20 -8 -11 0 -29 -5 -39 -12 -10 -6 -26 -8 -35 -5 -24 10 -31 8 -31 -5 0 -7 -11 -12 -25 -12 -14 1 -29 -5 -33 -12 -14 -24 -63 -17 -81 11 -22 33 -20 48 8 74 28 26 59 25 64 -3 3 -16 0 -18 -23 -12 -25 6 -26 5 -23 -26 4 -40 32 -50 42 -16 5 14 9 18 13 11 10 -26 23 -12 23 26 0 23 6 44 16 52 14 11 20 7 49 -27 25 -29 36 -36 45 -28 9 9 8 19 -5 44 -9 17 -15 33 -13 35 14 11 50 25 67 25 15 0 21 -6 21 -23 0 -23 17 -47 32 -47 12 0 10 44 -3 57 -17 17 -1 33 32 33 17 0 39 5 51 11 30 16 64 3 78 -31 15 -35 27 -29 32 15 5 44 30 42 57 -5 30 -53 45 -52 39 5 -4 28 -1 46 6 49 24 10 65 5 80 -10z" fill="#ffffff" id="ffffff-000013"/>
    <path stroke="none" d="M3643 3594 c13 -24 15 -25 31 -9 23 23 50 12 41 -18 -18 -60 -18 -69 1 -65 14 2 20 13 22 39 2 26 10 40 28 49 34 19 37 10 14 -38 -35 -72 -15 -101 28 -42 32 42 52 39 52 -7 0 -21 3 -49 7 -62 5 -19 2 -22 -13 -19 -10 2 -23 13 -30 25 -7 16 -14 19 -21 12 -8 -8 -28 -6 -70 6 -32 10 -62 22 -68 27 -5 4 -20 8 -35 8 -41 0 -57 15 -42 40 6 11 12 33 12 50 0 38 24 40 43 4z" fill="#ffffff" id="ffffff-000014"/>
    <path stroke="none" d="M3245 3450 c33 -6 89 -15 125 -21 88 -14 190 -37 260 -59 14 -5 47 -14 73 -22 55 -14 85 -38 91 -71 27 -144 35 -452 16 -576 -61 -379 -181 -640 -392 -848 -129 -127 -207 -183 -366 -264 -125 -63 -161 -65 -277 -10 -336 157 -594 450 -702 796 -50 161 -61 211 -84 395 -12 93 -9 187 10 380 14 151 19 167 52 179 84 31 191 62 284 81 33 6 69 14 80 16 24 6 167 23 285 34 105 10 464 3 545 -10z" fill="#adc58b" id="adc58b-000001"/>
    <path stroke="none" d="M3172 3658 c-20 -20 -15 -58 7 -58 24 0 34 25 21 51 -13 22 -13 22 -28 7z" fill="#0f2034" id="0f2034-000017"/>
    <path stroke="none" d="M3407 3633 c-10 -10 -8 -63 2 -63 20 0 33 28 21 49 -12 23 -14 24 -23 14z" fill="#0f2034" id="0f2034-000019"/>
    <path stroke="none" d="M3512 3608 c-14 -14 -16 -54 -4 -62 20 -12 46 32 36 59 -7 18 -16 19 -32 3z" fill="#0f2034" id="0f2034-000023"/>
    <path stroke="none" d="M2535 3640 c-9 -15 3 -60 15 -60 13 0 13 57 1 65 -5 3 -13 0 -16 -5z" fill="#ffffff" id="ffffff-000010"/>
    <path stroke="none" d="M2305 3610 c-9 -14 14 -72 26 -64 14 8 11 50 -5 63 -10 9 -16 9 -21 1z" fill="#0f2034" id="0f2034-000020"/>
    <path stroke="none" d="M2145 3520 c3 -5 8 -10 11 -10 2 0 4 5 4 10 0 6 -5 10 -11 10 -5 0 -7 -4 -4 -10z" fill="#0f2034" id="0f2034-000025"/>
    <path stroke="none" d="M2700 3254 c-94 -31 -156 -70 -231 -145 -64 -62 -85 -92 -122 -170 -24 -52 -50 -119 -56 -149 -21 -102 -31 -172 -26 -181 3 -4 40 13 83 39 107 66 180 99 269 122 56 14 105 -6 129 -51 16 -32 16 -35 -5 -74 -39 -74 -191 -144 -413 -190 -35 -7 -36 -27 -3 -98 30 -66 99 -160 157 -213 39 -36 161 -124 171 -124 3 0 9 12 15 28 76 204 106 272 155 349 58 91 122 112 176 59 23 -24 26 -34 24 -91 -1 -54 -8 -78 -41 -144 -23 -44 -64 -114 -92 -156 -28 -41 -48 -79 -45 -84 10 -17 101 -22 170 -11 175 29 309 105 411 232 76 94 112 166 144 288 12 47 9 226 -5 288 -14 62 -74 96 -193 108 -56 6 -66 11 -88 39 -26 35 -30 71 -11 96 13 18 93 59 114 59 19 0 16 14 -9 37 -63 58 -143 78 -205 51 -15 -7 -48 -29 -72 -50 -57 -49 -113 -53 -154 -10 -15 15 -27 34 -27 40 0 23 -53 93 -81 108 -35 18 -81 17 -139 -2z" fill="#ffffff" id="ffffff-000017"/>
    <path stroke="none" d="M1645 3740 c-64 -8 -76 -11 -145 -42 -53 -23 -86 -52 -107 -91 -13 -26 -13 -31 2 -47 15 -16 58 -30 95 -31 70 -1 221 68 293 134 57 53 61 77 13 77 -18 0 -46 2 -62 4 -16 2 -56 0 -89 -4z" fill="#0f2034" id="0f2034-000014"/>
    <path stroke="none" d="M4085 3710 c-11 -17 13 -47 76 -94 105 -79 245 -130 295 -107 14 6 33 11 44 11 40 0 33 66 -11 106 -73 64 -170 94 -300 94 -54 0 -101 -4 -104 -10z" fill="#0f2034" id="0f2034-000015"/>
    <path stroke="none" d="M5332 3588 c-66 -89 -128 -149 -167 -162 -40 -14 -52 -33 -41 -63 6 -14 9 -14 24 -1 33 27 89 40 129 29 21 -5 61 -14 88 -19 28 -6 62 -13 77 -16 34 -8 39 1 21 43 -13 31 -15 32 -32 17 -20 -19 -64 -21 -112 -5 -19 6 -40 13 -48 15 -19 6 86 114 111 114 11 0 18 7 18 20 0 22 -20 70 -30 70 -4 0 -21 -19 -38 -42z" fill="#000000" id="000000-000017"/>
    <path stroke="none" d="M978 3468 c-27 -45 -40 -102 -41 -182 -1 -114 29 -175 95 -191 39 -10 83 38 99 109 10 47 9 60 -11 125 -16 48 -36 86 -62 116 -45 51 -60 55 -80 23z" fill="#0f2034" id="0f2034-000026"/>
    <path stroke="none" d="M4869 3438 c-85 -93 -113 -230 -64 -314 35 -60 55 -69 99 -44 49 30 76 92 76 177 0 96 -39 213 -71 213 -5 0 -24 -15 -40 -32z" fill="#0f2034" id="0f2034-000027"/>
    <path stroke="none" d="M1425 3385 c-137 -43 -225 -115 -225 -183 0 -37 81 -54 151 -31 85 27 183 91 233 152 56 68 51 77 -41 76 -43 -1 -96 -7 -118 -14z" fill="#0f2034" id="0f2034-000028"/>
    <path stroke="none" d="M4295 3369 c-20 -31 97 -144 202 -196 76 -37 179 -45 206 -16 16 18 16 23 3 54 -28 66 -117 124 -242 158 -52 14 -161 14 -169 0z" fill="#0f2034" id="0f2034-000029"/>
    <path stroke="none" d="M813 2983 c-21 -105 18 -237 86 -294 50 -42 97 -38 124 11 24 44 19 96 -16 174 -31 67 -126 166 -160 166 -20 0 -25 -8 -34 -57z" fill="#0f2034" id="0f2034-000030"/>
    <path stroke="none" d="M1330 3018 c-125 -48 -230 -148 -230 -220 0 -44 15 -58 62 -58 56 0 126 37 186 99 52 54 119 172 107 191 -10 16 -66 11 -125 -12z" fill="#0f2034" id="0f2034-000031"/>
    <path stroke="none" d="M4460 3000 c0 -27 18 -66 62 -131 59 -90 146 -149 223 -152 147 -6 64 174 -120 258 -108 50 -165 58 -165 25z" fill="#0f2034" id="0f2034-000032"/>
    <path stroke="none" d="M4996 2969 c-106 -96 -150 -249 -91 -313 30 -32 61 -28 115 14 53 41 82 123 83 232 0 134 -20 147 -107 67z" fill="#0f2034" id="0f2034-000033"/>
    <path stroke="none" d="M1336 2657 c-94 -52 -196 -185 -196 -256 0 -37 18 -78 38 -86 28 -11 81 7 121 42 62 52 101 142 104 239 2 90 -4 96 -67 61z" fill="#0f2034" id="0f2034-000034"/>
    <path stroke="none" d="M4507 2643 c-18 -17 5 -147 37 -214 27 -57 73 -105 122 -129 40 -18 51 -20 70 -9 49 26 43 122 -13 206 -59 89 -187 176 -216 146z" fill="#0f2034" id="0f2034-000035"/>
    <path stroke="none" d="M806 2542 c-18 -17 3 -111 41 -186 43 -85 132 -156 197 -156 32 0 56 35 56 81 0 74 -115 204 -215 243 -42 17 -74 24 -79 18z" fill="#0f2034" id="0f2034-000036"/>
    <path stroke="none" d="M5025 2499 c-66 -32 -138 -92 -172 -143 -27 -39 -33 -58 -33 -100 0 -61 12 -76 57 -76 47 0 83 21 135 79 61 67 89 130 105 229 5 30 3 32 -23 32 -16 -1 -47 -10 -69 -21z" fill="#0f2034" id="0f2034-000037"/>
    <path stroke="none" d="M1378 2251 c-74 -68 -118 -151 -118 -225 0 -75 20 -106 68 -106 30 0 44 8 81 48 62 64 92 179 74 282 -12 64 -36 64 -105 1z" fill="#0f2034" id="0f2034-000038"/>
    <path stroke="none" d="M4430 2220 c-14 -65 -2 -153 28 -215 36 -74 124 -132 158 -104 40 33 55 102 33 156 -33 81 -58 119 -112 169 -77 71 -91 71 -107 -6z" fill="#0f2034" id="0f2034-000039"/>
    <path stroke="none" d="M938 2054 c-8 -8 5 -51 32 -104 29 -57 126 -154 175 -174 38 -16 91 -21 119 -10 11 4 16 19 16 50 0 80 -72 159 -195 215 -58 26 -133 38 -147 23z" fill="#0f2034" id="0f2034-000040"/>
    <path stroke="none" d="M4860 2021 c-78 -30 -112 -52 -166 -105 -39 -40 -53 -62 -59 -94 -11 -68 -2 -82 54 -82 67 0 111 21 173 82 55 55 118 160 118 197 0 18 -6 21 -37 20 -21 0 -58 -9 -83 -18z" fill="#0f2034" id="0f2034-000041"/>
    <path stroke="none" d="M1581 1929 c-43 -46 -64 -110 -65 -199 -1 -97 13 -134 65 -171 29 -20 34 -21 57 -8 53 30 67 63 66 157 -1 90 -18 148 -65 213 -24 35 -32 36 -58 8z" fill="#0f2034" id="0f2034-000042"/>
    <path stroke="none" d="M4279 1903 c-37 -43 -79 -168 -79 -235 0 -67 52 -148 95 -148 27 0 67 36 90 80 28 54 18 181 -20 256 -33 64 -60 78 -86 47z" fill="#0f2034" id="0f2034-000043"/>
    <path stroke="none" d="M1880 1627 c-30 -24 -60 -110 -60 -173 0 -72 22 -135 61 -176 44 -47 84 -51 120 -12 21 23 24 34 23 102 -1 65 -6 87 -33 143 -39 81 -89 133 -111 116z" fill="#0f2034" id="0f2034-000044"/>
    <path stroke="none" d="M1198 1609 c-30 -17 -21 -38 40 -98 79 -78 188 -131 266 -131 31 0 66 5 77 10 44 24 9 98 -69 149 -59 38 -90 48 -197 67 -95 16 -95 16 -117 3z" fill="#0f2034" id="0f2034-000045"/>
    <path stroke="none" d="M3965 1555 c-46 -63 -83 -161 -84 -221 -1 -43 27 -97 61 -118 26 -16 85 19 117 69 23 36 26 50 26 135 0 78 -4 103 -23 143 -14 29 -29 47 -40 47 -9 0 -35 -25 -57 -55z" fill="#0f2034" id="0f2034-000046"/>
    <path stroke="none" d="M4595 1583 c-99 -12 -192 -54 -243 -111 -26 -29 -32 -43 -30 -72 l3 -35 75 -3 c67 -3 81 0 137 28 66 33 148 101 184 152 18 25 19 32 8 39 -14 9 -74 10 -134 2z" fill="#0f2034" id="0f2034-000047"/>
    <path stroke="none" d="M1553 1250 c-32 -13 -29 -23 18 -64 53 -45 168 -100 243 -116 85 -18 176 8 176 50 0 43 -72 97 -171 129 -42 13 -234 14 -266 1z" fill="#0f2034" id="0f2034-000048"/>
    <path stroke="none" d="M4100 1226 c-71 -20 -117 -45 -150 -83 -38 -43 -35 -63 10 -85 47 -23 114 -22 191 3 102 33 229 113 229 143 0 33 -187 48 -280 22z" fill="#0f2034" id="0f2034-000049"/>
    <path stroke="none" d="M1580 985 c0 -3 6 -14 12 -25 10 -16 9 -25 -6 -52 -38 -67 -100 -164 -120 -186 l-21 -23 25 -19 c33 -26 42 -21 45 20 2 35 71 160 91 167 6 2 16 -28 23 -69 18 -100 18 -101 39 -93 64 27 162 58 167 53 7 -6 -41 -90 -91 -161 -39 -55 -41 -63 -15 -77 26 -13 31 -13 31 5 0 15 12 36 118 199 61 94 44 103 -104 54 -71 -24 -94 -20 -94 18 0 15 -5 56 -12 92 -10 55 -16 67 -42 83 -31 19 -46 23 -46 14z" fill="#000000" id="000000-000018"/>
    <path stroke="none" d="M4272 920 c-36 -22 -35 -40 4 -40 28 0 42 -20 107 -152 41 -85 56 -98 87 -78 12 7 11 15 -10 52 -59 105 -112 204 -117 221 -7 22 -30 22 -71 -3z" fill="#000000" id="000000-000019"/>
    <path stroke="none" d="M4105 840 c-11 -4 -31 -20 -44 -34 -15 -16 -35 -26 -53 -26 -32 0 -37 -19 -10 -37 19 -11 122 -212 122 -237 0 -23 12 -26 42 -10 26 14 28 17 16 32 -16 19 -38 68 -38 82 0 16 26 12 63 -9 43 -24 88 -34 121 -25 25 6 37 24 15 24 -5 0 -38 13 -72 29 -34 16 -70 31 -79 34 -16 6 -16 9 3 53 41 92 -4 158 -86 124z" fill="#000000" id="000000-000020"/>
    <path stroke="none" d="M4152 775 c9 -21 8 -32 -5 -60 -9 -19 -23 -35 -31 -35 -14 0 -46 57 -46 82 0 42 64 52 82 13z" fill="#ffffff" id="ffffff-000018"/>
    <path stroke="none" d="M1969 727 c-43 -20 -61 -39 -86 -95 -27 -62 -29 -101 -7 -145 23 -46 60 -75 120 -94 75 -23 134 -6 173 51 54 80 64 140 30 195 -27 45 -55 67 -108 86 -52 17 -86 18 -122 2z" fill="#000000" id="000000-000021"/>
    <path stroke="none" d="M2123 669 c31 -26 37 -37 37 -69 0 -50 -40 -142 -71 -164 -39 -27 -93 -21 -134 15 -30 26 -35 37 -35 74 0 51 19 101 56 144 36 44 94 44 147 0z" fill="#ffffff" id="ffffff-000019"/>
    <path stroke="none" d="M3765 697 c-102 -58 -113 -185 -24 -279 34 -36 39 -38 101 -38 38 0 78 6 96 15 43 22 90 78 97 118 8 43 -27 137 -66 177 -28 27 -36 30 -97 30 -51 0 -77 -6 -107 -23z" fill="#000000" id="000000-000022"/>
    <path stroke="none" d="M3917 668 c24 -20 63 -114 63 -153 0 -78 -99 -130 -169 -89 -56 33 -96 177 -60 220 35 42 127 54 166 22z" fill="#ffffff" id="ffffff-000020"/>
    <path stroke="none" d="M2270 633 c0 -4 8 -16 19 -27 18 -21 18 -23 -1 -96 -11 -41 -23 -92 -27 -112 -5 -21 -14 -44 -21 -53 -17 -20 3 -45 36 -45 26 0 30 11 14 40 -7 13 -5 36 6 77 9 32 19 70 21 86 3 15 9 27 14 27 5 0 38 -61 74 -135 61 -123 80 -154 90 -143 4 4 14 40 53 187 19 71 19 71 117 74 l50 2 3 -62 c2 -33 -4 -99 -12 -145 -8 -45 -13 -84 -13 -85 1 0 16 -3 32 -5 l30 -3 7 85 c3 47 9 111 13 143 7 54 9 57 35 57 15 0 33 -7 40 -15 18 -22 35 -19 53 9 15 22 15 25 -1 31 -9 3 -62 10 -116 15 -77 7 -106 13 -128 30 -16 12 -31 20 -32 18 -1 -1 -8 -18 -15 -35 -15 -36 -47 -48 -36 -13 5 15 0 22 -21 30 -35 14 -41 6 -26 -32 6 -17 8 -38 3 -47 -4 -9 -14 -42 -21 -73 -7 -32 -17 -58 -22 -58 -5 0 -29 44 -54 98 -25 53 -52 111 -61 129 -9 19 -26 36 -45 42 -35 13 -58 14 -58 4z" fill="#000000" id="000000-000023"/>
    <path stroke="none" d="M3492 604 c-37 -16 -72 -67 -72 -105 0 -15 11 -38 26 -53 24 -23 34 -26 100 -26 66 0 75 -2 89 -24 19 -28 12 -50 -21 -65 -37 -17 -72 -13 -105 10 l-29 20 0 -40 0 -41 45 0 c82 0 175 62 175 117 0 10 -11 32 -24 48 -22 28 -30 30 -106 35 -97 6 -116 20 -90 68 12 21 24 28 56 30 28 2 45 -2 54 -13 20 -24 30 -18 30 20 l0 35 -47 -1 c-27 0 -63 -7 -81 -15z" fill="#000000" id="000000-000024"/>
    <path stroke="none" d="M3245 546 c-41 -18 -65 -57 -65 -105 0 -53 28 -72 115 -79 52 -4 69 -9 80 -26 20 -27 19 -32 -7 -56 -28 -26 -78 -26 -112 1 -31 25 -33 24 -38 -15 -4 -41 35 -53 109 -36 163 40 144 190 -25 190 -37 0 -54 5 -68 21 -17 19 -17 23 -3 47 11 21 23 28 55 30 28 2 45 -2 54 -13 22 -27 42 -18 38 18 -3 31 -4 32 -53 34 -27 2 -64 -3 -80 -11z" fill="#000000" id="000000-000026"/>
    <path stroke="none" d="M2955 520 c-4 -6 -2 -16 3 -23 5 -7 13 -64 17 -127 5 -96 4 -118 -9 -135 -8 -11 -16 -23 -16 -27 0 -5 47 -8 105 -8 l105 0 0 25 c0 30 -2 30 -62 8 -64 -23 -78 -10 -78 69 0 69 15 82 64 54 30 -17 31 -17 48 4 28 34 22 40 -36 40 -62 0 -79 14 -74 62 3 32 5 33 43 31 22 -1 51 -3 65 -5 20 -2 26 2 28 20 3 22 1 22 -97 22 -58 0 -102 -4 -106 -10z" fill="#000000" id="000000-000027"/>
  </g>
</svg>
