<svg xmlns="http://www.w3.org/2000/svg" version="1.0" width="1808.000000pt" height="804.000000pt" viewBox="0 0 1808.000000 804.000000" preserveAspectRatio="xMidYMid meet">
  <g transform="translate(0.000000,804.000000) scale(0.100000,-0.100000)" stroke="none">
    <mask id="mask-6">
      <g>
        <path d="M 0 0 H 18080.0 V 8040.0 H 0 Z" fill="white" id="background"/>
        <path d="M17586 3889 c73 -30 92 -40 131 -68 23 -17 60 -54 82 -83 40 -54 87 -177 77 -203 -5 -13 -65 -15 -426 -15 -380 0 -421 2 -427 16 -3 9 -1 25 5 35 7 10 12 24 12 31 0 26 56 121 100 167 53 56 131 111 157 111 11 0 23 4 29 9 23 23 205 23 260 0z" fill="black"/>
      </g>
    </mask>
    <mask id="mask-5">
      <g>
        <path d="M 0 0 H 18080.0 V 8040.0 H 0 Z" fill="white" id="background"/>
        <path d="M16030 3889 c117 -40 196 -100 261 -194 50 -74 61 -102 80 -206 9 -50 9 -77 1 -112 -7 -25 -12 -55 -12 -67 0 -34 -58 -145 -101 -194 -52 -59 -120 -107 -194 -137 -52 -21 -75 -24 -175 -23 -104 1 -121 4 -175 29 -148 69 -252 191 -284 335 -13 54 -11 174 4 235 16 70 75 167 139 228 37 35 133 92 171 101 17 4 46 11 65 16 45 11 174 5 220 -11z" fill="black"/>
        <path d="M17586 3889 c73 -30 92 -40 131 -68 23 -17 60 -54 82 -83 40 -54 87 -177 77 -203 -5 -13 -65 -15 -426 -15 -380 0 -421 2 -427 16 -3 9 -1 25 5 35 7 10 12 24 12 31 0 26 56 121 100 167 53 56 131 111 157 111 11 0 23 4 29 9 23 23 205 23 260 0z" fill="black"/>
      </g>
    </mask>
    <mask id="mask-4">
      <g>
        <path d="M 0 0 H 18080.0 V 8040.0 H 0 Z" fill="white" id="background"/>
        <path d="M9864 3855 c80 -39 202 -163 216 -219 6 -23 17 -54 25 -69 17 -32 22 -265 6 -282 -4 -6 -14 -32 -21 -60 -7 -27 -22 -62 -32 -77 -10 -14 -18 -31 -18 -36 0 -16 -50 -72 -65 -72 -7 0 -35 -17 -62 -39 -30 -23 -65 -41 -90 -46 -23 -3 -49 -13 -60 -20 -20 -16 -188 -21 -197 -6 -3 5 -27 14 -53 20 -111 28 -213 103 -243 179 -7 17 -16 32 -21 32 -5 0 -9 6 -9 13 0 7 -10 31 -21 52 -20 36 -22 56 -22 196 -1 144 1 158 21 186 12 17 22 38 22 46 0 24 161 183 192 191 15 3 33 12 41 20 19 20 61 24 207 22 115 -2 129 -4 184 -31z" fill="black"/>
        <path d="M16030 3889 c117 -40 196 -100 261 -194 50 -74 61 -102 80 -206 9 -50 9 -77 1 -112 -7 -25 -12 -55 -12 -67 0 -34 -58 -145 -101 -194 -52 -59 -120 -107 -194 -137 -52 -21 -75 -24 -175 -23 -104 1 -121 4 -175 29 -148 69 -252 191 -284 335 -13 54 -11 174 4 235 16 70 75 167 139 228 37 35 133 92 171 101 17 4 46 11 65 16 45 11 174 5 220 -11z" fill="black"/>
        <path d="M17586 3889 c73 -30 92 -40 131 -68 23 -17 60 -54 82 -83 40 -54 87 -177 77 -203 -5 -13 -65 -15 -426 -15 -380 0 -421 2 -427 16 -3 9 -1 25 5 35 7 10 12 24 12 31 0 26 56 121 100 167 53 56 131 111 157 111 11 0 23 4 29 9 23 23 205 23 260 0z" fill="black"/>
      </g>
    </mask>
    <mask id="mask-3">
      <g>
        <path d="M 0 0 H 18080.0 V 8040.0 H 0 Z" fill="white" id="background"/>
        <path d="M7000 3391 c0 -5 -7 -22 -15 -37 -8 -16 -15 -49 -15 -74 0 -25 -3 -69 -7 -99 -6 -51 -11 -58 -87 -136 -75 -76 -86 -84 -139 -95 -31 -6 -59 -16 -62 -21 -4 -5 -43 -9 -88 -9 -96 0 -155 24 -223 91 -47 46 -59 88 -48 168 5 38 15 57 50 94 24 26 50 47 57 47 6 0 27 9 45 20 17 11 50 23 72 26 22 4 48 13 57 20 14 10 65 13 211 14 105 0 192 -4 192 -9z" fill="black"/>
        <path d="M9864 3855 c80 -39 202 -163 216 -219 6 -23 17 -54 25 -69 17 -32 22 -265 6 -282 -4 -6 -14 -32 -21 -60 -7 -27 -22 -62 -32 -77 -10 -14 -18 -31 -18 -36 0 -16 -50 -72 -65 -72 -7 0 -35 -17 -62 -39 -30 -23 -65 -41 -90 -46 -23 -3 -49 -13 -60 -20 -20 -16 -188 -21 -197 -6 -3 5 -27 14 -53 20 -111 28 -213 103 -243 179 -7 17 -16 32 -21 32 -5 0 -9 6 -9 13 0 7 -10 31 -21 52 -20 36 -22 56 -22 196 -1 144 1 158 21 186 12 17 22 38 22 46 0 24 161 183 192 191 15 3 33 12 41 20 19 20 61 24 207 22 115 -2 129 -4 184 -31z" fill="black"/>
        <path d="M16030 3889 c117 -40 196 -100 261 -194 50 -74 61 -102 80 -206 9 -50 9 -77 1 -112 -7 -25 -12 -55 -12 -67 0 -34 -58 -145 -101 -194 -52 -59 -120 -107 -194 -137 -52 -21 -75 -24 -175 -23 -104 1 -121 4 -175 29 -148 69 -252 191 -284 335 -13 54 -11 174 4 235 16 70 75 167 139 228 37 35 133 92 171 101 17 4 46 11 65 16 45 11 174 5 220 -11z" fill="black"/>
        <path d="M17586 3889 c73 -30 92 -40 131 -68 23 -17 60 -54 82 -83 40 -54 87 -177 77 -203 -5 -13 -65 -15 -426 -15 -380 0 -421 2 -427 16 -3 9 -1 25 5 35 7 10 12 24 12 31 0 26 56 121 100 167 53 56 131 111 157 111 11 0 23 4 29 9 23 23 205 23 260 0z" fill="black"/>
      </g>
    </mask>
    <mask id="mask-2">
      <g>
        <path d="M 0 0 H 18080.0 V 8040.0 H 0 Z" fill="white" id="background"/>
        <path d="M4811 3856 c17 -15 48 -35 68 -45 20 -11 44 -28 53 -38 29 -31 67 -113 79 -170 20 -88 45 -83 -412 -83 l-399 0 0 28 c0 68 144 292 188 292 8 0 26 9 41 19 37 26 65 30 218 26 127 -2 133 -4 164 -29z" fill="black"/>
        <path d="M7000 3391 c0 -5 -7 -22 -15 -37 -8 -16 -15 -49 -15 -74 0 -25 -3 -69 -7 -99 -6 -51 -11 -58 -87 -136 -75 -76 -86 -84 -139 -95 -31 -6 -59 -16 -62 -21 -4 -5 -43 -9 -88 -9 -96 0 -155 24 -223 91 -47 46 -59 88 -48 168 5 38 15 57 50 94 24 26 50 47 57 47 6 0 27 9 45 20 17 11 50 23 72 26 22 4 48 13 57 20 14 10 65 13 211 14 105 0 192 -4 192 -9z" fill="black"/>
        <path d="M9864 3855 c80 -39 202 -163 216 -219 6 -23 17 -54 25 -69 17 -32 22 -265 6 -282 -4 -6 -14 -32 -21 -60 -7 -27 -22 -62 -32 -77 -10 -14 -18 -31 -18 -36 0 -16 -50 -72 -65 -72 -7 0 -35 -17 -62 -39 -30 -23 -65 -41 -90 -46 -23 -3 -49 -13 -60 -20 -20 -16 -188 -21 -197 -6 -3 5 -27 14 -53 20 -111 28 -213 103 -243 179 -7 17 -16 32 -21 32 -5 0 -9 6 -9 13 0 7 -10 31 -21 52 -20 36 -22 56 -22 196 -1 144 1 158 21 186 12 17 22 38 22 46 0 24 161 183 192 191 15 3 33 12 41 20 19 20 61 24 207 22 115 -2 129 -4 184 -31z" fill="black"/>
        <path d="M16030 3889 c117 -40 196 -100 261 -194 50 -74 61 -102 80 -206 9 -50 9 -77 1 -112 -7 -25 -12 -55 -12 -67 0 -34 -58 -145 -101 -194 -52 -59 -120 -107 -194 -137 -52 -21 -75 -24 -175 -23 -104 1 -121 4 -175 29 -148 69 -252 191 -284 335 -13 54 -11 174 4 235 16 70 75 167 139 228 37 35 133 92 171 101 17 4 46 11 65 16 45 11 174 5 220 -11z" fill="black"/>
        <path d="M17586 3889 c73 -30 92 -40 131 -68 23 -17 60 -54 82 -83 40 -54 87 -177 77 -203 -5 -13 -65 -15 -426 -15 -380 0 -421 2 -427 16 -3 9 -1 25 5 35 7 10 12 24 12 31 0 26 56 121 100 167 53 56 131 111 157 111 11 0 23 4 29 9 23 23 205 23 260 0z" fill="black"/>
      </g>
    </mask>
    <mask id="mask-1">
      <g>
        <path d="M 0 0 H 18080.0 V 8040.0 H 0 Z" fill="white" id="background"/>
        <path d="M3327 4460 c14 -11 33 -20 43 -20 9 0 47 -31 83 -69 l67 -69 0 -122 0 -122 -67 -69 c-36 -38 -74 -69 -83 -69 -10 0 -29 -9 -43 -20 -24 -19 -40 -20 -296 -20 l-271 0 0 300 0 300 271 0 c256 0 272 -1 296 -20z" fill="black"/>
        <path d="M4811 3856 c17 -15 48 -35 68 -45 20 -11 44 -28 53 -38 29 -31 67 -113 79 -170 20 -88 45 -83 -412 -83 l-399 0 0 28 c0 68 144 292 188 292 8 0 26 9 41 19 37 26 65 30 218 26 127 -2 133 -4 164 -29z" fill="black"/>
        <path d="M7000 3391 c0 -5 -7 -22 -15 -37 -8 -16 -15 -49 -15 -74 0 -25 -3 -69 -7 -99 -6 -51 -11 -58 -87 -136 -75 -76 -86 -84 -139 -95 -31 -6 -59 -16 -62 -21 -4 -5 -43 -9 -88 -9 -96 0 -155 24 -223 91 -47 46 -59 88 -48 168 5 38 15 57 50 94 24 26 50 47 57 47 6 0 27 9 45 20 17 11 50 23 72 26 22 4 48 13 57 20 14 10 65 13 211 14 105 0 192 -4 192 -9z" fill="black"/>
        <path d="M9864 3855 c80 -39 202 -163 216 -219 6 -23 17 -54 25 -69 17 -32 22 -265 6 -282 -4 -6 -14 -32 -21 -60 -7 -27 -22 -62 -32 -77 -10 -14 -18 -31 -18 -36 0 -16 -50 -72 -65 -72 -7 0 -35 -17 -62 -39 -30 -23 -65 -41 -90 -46 -23 -3 -49 -13 -60 -20 -20 -16 -188 -21 -197 -6 -3 5 -27 14 -53 20 -111 28 -213 103 -243 179 -7 17 -16 32 -21 32 -5 0 -9 6 -9 13 0 7 -10 31 -21 52 -20 36 -22 56 -22 196 -1 144 1 158 21 186 12 17 22 38 22 46 0 24 161 183 192 191 15 3 33 12 41 20 19 20 61 24 207 22 115 -2 129 -4 184 -31z" fill="black"/>
        <path d="M16030 3889 c117 -40 196 -100 261 -194 50 -74 61 -102 80 -206 9 -50 9 -77 1 -112 -7 -25 -12 -55 -12 -67 0 -34 -58 -145 -101 -194 -52 -59 -120 -107 -194 -137 -52 -21 -75 -24 -175 -23 -104 1 -121 4 -175 29 -148 69 -252 191 -284 335 -13 54 -11 174 4 235 16 70 75 167 139 228 37 35 133 92 171 101 17 4 46 11 65 16 45 11 174 5 220 -11z" fill="black"/>
        <path d="M17586 3889 c73 -30 92 -40 131 -68 23 -17 60 -54 82 -83 40 -54 87 -177 77 -203 -5 -13 -65 -15 -426 -15 -380 0 -421 2 -427 16 -3 9 -1 25 5 35 7 10 12 24 12 31 0 26 56 121 100 167 53 56 131 111 157 111 11 0 23 4 29 9 23 23 205 23 260 0z" fill="black"/>
      </g>
    </mask>
    <mask id="mask-0">
      <g>
        <path d="M 0 0 H 18080.0 V 8040.0 H 0 Z" fill="white" id="background"/>
        <path d="M14435 3879 c133 -49 236 -145 299 -282 42 -90 43 -254 4 -357 -39 -100 -124 -204 -203 -246 -53 -28 -62 -32 -85 -42 -62 -25 -99 -32 -183 -32 -85 0 -160 13 -181 32 -6 4 -16 8 -24 8 -24 0 -127 77 -164 122 -46 56 -98 168 -98 211 0 17 -5 50 -10 72 -10 41 0 140 23 220 19 67 68 148 121 198 37 35 133 92 171 101 17 4 46 11 65 16 57 15 198 3 265 -21z" fill="black"/>
        <path d="M3327 4460 c14 -11 33 -20 43 -20 9 0 47 -31 83 -69 l67 -69 0 -122 0 -122 -67 -69 c-36 -38 -74 -69 -83 -69 -10 0 -29 -9 -43 -20 -24 -19 -40 -20 -296 -20 l-271 0 0 300 0 300 271 0 c256 0 272 -1 296 -20z" fill="black"/>
        <path d="M4811 3856 c17 -15 48 -35 68 -45 20 -11 44 -28 53 -38 29 -31 67 -113 79 -170 20 -88 45 -83 -412 -83 l-399 0 0 28 c0 68 144 292 188 292 8 0 26 9 41 19 37 26 65 30 218 26 127 -2 133 -4 164 -29z" fill="black"/>
        <path d="M7000 3391 c0 -5 -7 -22 -15 -37 -8 -16 -15 -49 -15 -74 0 -25 -3 -69 -7 -99 -6 -51 -11 -58 -87 -136 -75 -76 -86 -84 -139 -95 -31 -6 -59 -16 -62 -21 -4 -5 -43 -9 -88 -9 -96 0 -155 24 -223 91 -47 46 -59 88 -48 168 5 38 15 57 50 94 24 26 50 47 57 47 6 0 27 9 45 20 17 11 50 23 72 26 22 4 48 13 57 20 14 10 65 13 211 14 105 0 192 -4 192 -9z" fill="black"/>
        <path d="M9864 3855 c80 -39 202 -163 216 -219 6 -23 17 -54 25 -69 17 -32 22 -265 6 -282 -4 -6 -14 -32 -21 -60 -7 -27 -22 -62 -32 -77 -10 -14 -18 -31 -18 -36 0 -16 -50 -72 -65 -72 -7 0 -35 -17 -62 -39 -30 -23 -65 -41 -90 -46 -23 -3 -49 -13 -60 -20 -20 -16 -188 -21 -197 -6 -3 5 -27 14 -53 20 -111 28 -213 103 -243 179 -7 17 -16 32 -21 32 -5 0 -9 6 -9 13 0 7 -10 31 -21 52 -20 36 -22 56 -22 196 -1 144 1 158 21 186 12 17 22 38 22 46 0 24 161 183 192 191 15 3 33 12 41 20 19 20 61 24 207 22 115 -2 129 -4 184 -31z" fill="black"/>
        <path d="M16030 3889 c117 -40 196 -100 261 -194 50 -74 61 -102 80 -206 9 -50 9 -77 1 -112 -7 -25 -12 -55 -12 -67 0 -34 -58 -145 -101 -194 -52 -59 -120 -107 -194 -137 -52 -21 -75 -24 -175 -23 -104 1 -121 4 -175 29 -148 69 -252 191 -284 335 -13 54 -11 174 4 235 16 70 75 167 139 228 37 35 133 92 171 101 17 4 46 11 65 16 45 11 174 5 220 -11z" fill="black"/>
        <path d="M17586 3889 c73 -30 92 -40 131 -68 23 -17 60 -54 82 -83 40 -54 87 -177 77 -203 -5 -13 -65 -15 -426 -15 -380 0 -421 2 -427 16 -3 9 -1 25 5 35 7 10 12 24 12 31 0 26 56 121 100 167 53 56 131 111 157 111 11 0 23 4 29 9 23 23 205 23 260 0z" fill="black"/>
      </g>
    </mask>
    <path stroke="none" d="M3480 7980 c-7 -14 -21 -20 -43 -20 -18 0 -64 -7 -102 -15 -39 -9 -95 -20 -125 -25 -30 -5 -73 -14 -95 -20 -22 -6 -58 -15 -80 -20 -22 -5 -60 -15 -85 -23 -25 -8 -79 -24 -120 -37 -193 -58 -354 -123 -580 -235 -167 -82 -355 -195 -541 -324 -35 -25 -66 -47 -69 -50 -3 -4 -21 -18 -42 -33 -20 -15 -42 -33 -50 -40 -7 -7 -34 -29 -58 -48 -190 -147 -493 -465 -662 -695 -55 -75 -201 -293 -228 -340 -11 -19 -30 -52 -42 -72 -12 -21 -38 -70 -59 -109 -20 -39 -41 -79 -47 -90 -19 -34 -82 -173 -99 -217 -9 -23 -20 -46 -25 -51 -4 -6 -8 -16 -8 -23 0 -8 -9 -33 -20 -55 -11 -23 -20 -48 -20 -55 0 -7 -4 -21 -10 -31 -10 -18 -58 -163 -80 -242 -7 -25 -16 -56 -20 -70 -9 -28 -43 -184 -61 -275 -6 -33 -15 -73 -20 -89 -5 -16 -9 -46 -9 -67 0 -28 -5 -41 -20 -49 -20 -11 -20 -21 -20 -564 0 -545 0 -554 20 -559 15 -4 20 -14 20 -40 0 -19 4 -47 9 -63 5 -16 15 -63 21 -104 7 -41 19 -100 27 -130 9 -30 19 -73 23 -95 16 -76 84 -301 109 -360 5 -11 19 -47 31 -80 12 -33 31 -79 41 -102 11 -24 19 -45 19 -49 0 -10 169 -347 200 -399 17 -27 33 -57 37 -65 19 -42 287 -428 313 -450 3 -3 34 -41 70 -85 97 -122 389 -407 540 -528 124 -100 375 -276 463 -326 20 -12 54 -31 75 -43 20 -12 69 -38 108 -59 39 -20 79 -41 90 -47 28 -16 183 -86 224 -102 19 -7 39 -17 45 -22 5 -4 15 -8 22 -8 8 0 33 -9 55 -20 23 -11 49 -20 58 -20 9 0 20 -4 25 -8 16 -14 311 -103 405 -123 30 -6 65 -15 78 -20 13 -5 40 -9 62 -9 30 0 40 -5 45 -20 6 -20 15 -20 765 -20 749 0 758 0 763 20 3 13 14 20 29 20 13 0 48 9 78 20 30 11 66 20 80 20 26 0 95 22 106 33 4 4 22 7 40 7 18 0 36 5 39 10 3 6 17 10 31 10 13 0 24 5 24 10 0 14 -31 12 -97 -6 -32 -9 -87 -20 -123 -24 -36 -4 -83 -13 -105 -20 -22 -6 -92 -15 -155 -20 -63 -5 -171 -15 -240 -24 -159 -19 -261 -19 -430 0 -74 8 -184 19 -245 24 -60 4 -128 13 -150 20 -22 7 -69 15 -105 20 -36 4 -85 15 -110 24 -25 8 -57 16 -72 16 -15 0 -51 9 -80 20 -29 11 -63 20 -76 20 -13 0 -42 9 -64 20 -23 11 -50 20 -60 20 -11 0 -38 9 -60 20 -23 11 -48 20 -55 20 -8 0 -33 9 -55 20 -23 11 -47 20 -52 20 -6 0 -31 10 -56 22 -25 12 -54 25 -65 29 -57 21 -290 139 -358 181 -43 26 -81 48 -83 48 -12 0 -237 151 -308 207 -23 18 -70 54 -106 80 -84 62 -527 500 -562 556 -15 24 -49 68 -76 99 -27 31 -59 73 -72 94 -13 22 -39 57 -57 78 -18 22 -33 44 -33 48 0 5 -18 36 -40 68 -22 32 -40 62 -40 66 0 4 -7 15 -15 24 -8 9 -26 38 -41 65 -57 107 -140 273 -163 325 -13 30 -32 73 -42 95 -20 45 -48 121 -114 310 -10 28 -20 64 -22 80 -2 17 -8 39 -12 50 -5 11 -14 33 -20 48 -6 15 -11 43 -11 61 0 19 -7 51 -16 72 -10 22 -20 68 -25 104 -4 36 -12 83 -19 105 -6 22 -15 87 -20 145 -5 58 -16 157 -24 220 -20 146 -20 389 0 545 9 66 19 165 24 220 4 55 13 118 20 140 7 22 15 69 20 105 4 36 15 85 24 110 8 25 16 56 16 69 0 22 21 96 57 201 8 25 18 56 20 70 3 14 13 44 24 67 10 24 19 50 19 58 0 9 9 33 20 55 11 22 20 44 20 49 0 6 18 50 40 98 92 199 84 184 122 252 11 20 24 40 29 46 5 5 9 15 9 21 0 7 23 50 51 96 29 46 60 99 71 118 11 19 33 52 49 72 16 20 29 41 29 46 0 5 17 29 38 53 21 24 57 71 79 104 23 34 49 67 58 75 10 8 51 56 91 106 147 183 344 364 639 589 36 28 71 52 78 54 6 2 35 21 63 42 28 22 54 39 58 39 4 0 27 14 51 30 24 17 46 30 48 30 3 0 34 18 70 40 71 43 348 179 412 203 22 8 67 25 100 37 33 12 64 26 70 31 5 5 19 9 30 9 12 0 40 9 63 20 22 11 50 20 61 20 10 0 40 9 66 20 26 11 61 20 79 20 18 0 36 4 42 8 16 14 89 32 132 32 22 0 43 4 46 9 7 11 53 21 146 31 41 5 109 16 150 25 61 13 149 16 468 16 376 0 432 -3 543 -32 20 -5 56 -9 80 -9 24 0 69 -7 99 -16 30 -9 69 -18 85 -20 63 -9 136 -28 141 -36 3 -4 20 -8 38 -8 19 0 51 -7 72 -17 22 -9 55 -19 74 -23 40 -9 115 -35 177 -62 24 -10 48 -18 55 -18 7 0 28 -9 46 -20 18 -11 39 -20 46 -20 8 0 31 -8 53 -19 21 -10 97 -47 168 -82 72 -34 153 -76 180 -92 28 -16 64 -38 80 -47 17 -10 59 -36 95 -59 36 -23 78 -49 94 -59 16 -9 54 -36 85 -60 31 -23 74 -54 95 -69 22 -14 60 -44 85 -67 25 -23 80 -70 121 -103 83 -67 270 -254 348 -348 57 -70 110 -121 116 -114 3 3 -22 40 -54 84 -33 43 -60 81 -60 84 0 3 -19 27 -43 52 -23 26 -80 89 -127 140 -141 157 -332 338 -463 440 -34 27 -81 64 -103 83 -23 20 -59 45 -80 58 -22 12 -61 39 -89 60 -27 21 -54 38 -59 38 -5 0 -17 7 -26 15 -16 15 -87 59 -170 108 -19 11 -98 51 -175 89 -77 38 -157 78 -178 89 -22 10 -43 19 -48 19 -9 0 -47 16 -147 61 -23 10 -48 19 -55 19 -7 0 -32 9 -55 20 -22 11 -50 20 -62 20 -12 0 -40 9 -62 20 -23 11 -50 20 -61 20 -11 0 -47 9 -81 19 -108 34 -189 53 -261 61 -38 4 -90 15 -115 24 -25 9 -55 16 -67 16 -12 0 -27 9 -33 20 -11 20 -21 20 -560 20 -539 0 -549 0 -560 -20z" fill="#189fda" id="189fda-000001" mask="url(#mask-0)"/>
    <path stroke="none" d="M7285 6290 c3 -5 8 -10 11 -10 2 0 4 5 4 10 0 6 -5 10 -11 10 -5 0 -7 -4 -4 -10z" fill="#189fda" id="189fda-000007" mask="url(#mask-0)"/>
    <path stroke="none" d="M7300 6270 c0 -5 5 -10 10 -10 6 0 10 5 10 10 0 6 -4 10 -10 10 -5 0 -10 -4 -10 -10z" fill="#189fda" id="189fda-000008" mask="url(#mask-0)"/>
    <path stroke="none" d="M5576 4791 c-5 -7 -9 -1647 -6 -1981 0 -7 33 -10 93 -8 l92 3 0 995 0 995 -87 3 c-48 1 -89 -2 -92 -7z" fill="#ffffff" id="ffffff-000001" mask="url(#mask-0)"/>
    <path stroke="none" d="M14760 4325 c0 -381 -3 -475 -13 -475 -7 0 -35 22 -62 50 -27 27 -72 60 -99 73 -161 76 -135 71 -326 70 -189 0 -168 5 -320 -66 -63 -29 -204 -169 -233 -232 -76 -160 -70 -134 -71 -330 -1 -167 1 -184 22 -227 12 -26 22 -53 22 -58 0 -16 100 -162 130 -190 37 -34 129 -100 140 -100 5 0 24 -9 42 -20 18 -11 43 -20 54 -20 12 0 57 -9 100 -20 98 -25 140 -25 229 0 39 11 80 20 92 20 13 0 37 9 55 20 18 11 40 20 48 20 9 0 49 32 90 70 41 39 77 70 81 70 13 0 19 -32 19 -106 l0 -74 80 0 80 0 0 1000 0 1000 -80 0 -80 0 0 -475z" fill="#189fda" id="189fda-000009" mask="url(#mask-0)"/>
    <path stroke="none" d="M2567 4673 c-4 -3 -7 -426 -7 -940 l0 -934 98 3 97 3 3 438 2 438 158 -3 157 -3 4 -25 c1 -14 12 -37 22 -51 10 -15 19 -33 19 -39 0 -7 18 -34 40 -60 22 -26 40 -54 40 -61 0 -8 9 -25 20 -39 11 -14 20 -32 20 -40 0 -8 9 -26 20 -40 11 -14 20 -31 20 -39 0 -7 18 -35 40 -61 22 -26 40 -54 40 -61 0 -8 9 -25 20 -39 11 -14 20 -31 20 -39 0 -7 18 -35 40 -61 22 -26 40 -54 40 -61 0 -8 9 -25 20 -39 11 -14 20 -31 20 -39 0 -8 11 -29 26 -48 l25 -33 109 0 c60 0 111 4 114 9 3 4 -3 16 -14 26 -11 10 -20 27 -20 38 0 10 -18 41 -40 67 -22 26 -40 53 -40 60 0 6 -9 23 -20 37 -11 14 -20 31 -20 38 0 7 -18 36 -40 64 -22 28 -40 55 -40 62 0 6 -9 22 -20 36 -11 14 -20 31 -20 38 0 7 -18 36 -40 64 -22 28 -40 55 -40 62 0 6 -9 22 -20 36 -11 14 -20 31 -20 38 0 7 -18 36 -40 64 -22 28 -40 56 -40 63 0 6 -10 22 -22 35 l-22 23 29 30 c23 24 37 30 70 30 29 0 47 6 60 20 10 11 28 20 40 20 13 0 28 7 35 14 6 8 27 20 45 26 34 11 85 61 85 83 0 7 9 23 20 37 11 14 20 31 20 38 0 8 9 25 20 39 18 23 20 41 20 200 l0 175 -40 48 c-22 26 -40 54 -40 62 0 20 -102 118 -124 118 -10 0 -29 9 -43 20 -15 12 -41 20 -63 20 -24 0 -43 7 -55 20 -17 19 -31 20 -400 20 -210 0 -385 -3 -388 -7z" fill="#ffffff" id="ffffff-000002" mask="url(#mask-1)"/>
    <path stroke="none" d="M12165 4668 c-3 -7 -4 -429 -3 -938 l3 -925 598 -3 597 -2 0 80 0 80 -498 0 c-374 0 -501 3 -510 12 -16 16 -17 694 -1 704 6 3 206 6 445 5 494 -2 447 -12 448 93 l1 61 -435 3 -435 2 -17 23 c-16 20 -18 54 -18 328 0 244 3 309 13 318 10 7 158 12 488 13 l474 3 3 63 c2 38 -2 69 -9 78 -16 20 -1137 21 -1144 2z" fill="#189fda" id="189fda-000010" mask="url(#mask-2)"/>
    <path stroke="none" d="M8475 4609 c-19 -17 -35 -40 -35 -50 0 -11 -5 -28 -12 -39 -9 -14 -9 -24 -1 -42 7 -13 13 -32 15 -43 2 -12 15 -24 34 -30 16 -5 41 -17 55 -26 30 -20 46 -14 107 44 39 38 42 45 42 94 0 47 -4 56 -35 88 -31 31 -42 35 -85 35 -41 0 -55 -5 -85 -31z" fill="#ffffff" id="ffffff-000003" mask="url(#mask-2)"/>
    <path stroke="none" d="M7650 4386 c-6 -6 -10 -75 -10 -178 l0 -167 -132 -3 -133 -3 0 -75 0 -75 133 -3 132 -3 0 -442 c0 -424 1 -443 20 -472 11 -16 20 -38 20 -47 0 -27 119 -137 160 -148 59 -17 215 -12 258 7 20 9 48 19 62 23 22 4 25 11 28 51 2 38 -2 52 -23 78 -31 36 -41 38 -75 11 -38 -30 -131 -27 -195 5 -43 22 -51 31 -57 63 -8 46 -10 834 -2 856 5 14 29 16 165 16 l160 0 -3 78 -3 77 -162 3 -163 2 0 153 c0 148 -1 153 -25 175 -18 18 -38 24 -84 26 -33 2 -65 -2 -71 -8z" fill="#ffffff" id="ffffff-000004" mask="url(#mask-2)"/>
    <path stroke="none" d="M4543 4071 c-29 -3 -58 -12 -65 -19 -6 -6 -23 -12 -37 -12 -13 0 -56 -15 -95 -34 -130 -62 -306 -272 -306 -365 0 -12 -8 -34 -17 -48 -15 -23 -18 -51 -18 -173 0 -122 3 -150 18 -173 9 -14 17 -40 17 -56 0 -36 43 -122 87 -175 18 -22 33 -45 33 -51 0 -18 55 -72 82 -80 13 -4 40 -23 60 -41 22 -20 52 -35 75 -39 21 -3 52 -14 68 -23 45 -25 349 -25 388 1 14 9 38 17 51 17 45 0 148 61 213 126 53 53 63 68 63 98 0 28 -7 40 -37 65 -57 47 -84 42 -154 -28 -32 -33 -74 -64 -93 -71 -20 -6 -36 -16 -36 -21 0 -5 -10 -9 -22 -9 -13 0 -34 -9 -48 -20 -21 -17 -41 -20 -130 -19 -74 0 -110 4 -123 14 -11 7 -38 17 -60 20 -35 6 -56 21 -129 93 -49 48 -88 93 -88 100 0 8 -8 26 -19 40 -13 19 -20 49 -22 97 l-4 70 500 5 500 5 0 146 c0 126 -3 150 -17 166 -10 11 -18 32 -18 47 0 15 -6 39 -14 54 -19 37 -211 222 -230 222 -9 0 -30 9 -48 20 -18 11 -46 20 -61 20 -15 0 -38 6 -50 14 -27 17 -143 26 -214 17z" fill="#ffffff" id="ffffff-000006" mask="url(#mask-2)"/>
    <path stroke="none" d="M6579 4071 c-26 -4 -53 -12 -60 -18 -8 -6 -40 -14 -72 -18 -69 -8 -158 -50 -209 -100 -43 -41 -47 -61 -18 -98 11 -14 20 -29 20 -35 0 -5 9 -17 19 -27 19 -16 21 -16 48 3 15 11 37 29 47 41 11 12 27 21 36 21 10 0 30 10 46 23 27 21 37 22 204 22 165 0 177 -1 207 -22 17 -13 38 -23 46 -23 28 0 65 -57 72 -112 4 -29 13 -66 21 -82 8 -16 14 -41 14 -56 l0 -27 -205 -5 c-166 -4 -209 -8 -229 -22 -14 -9 -45 -16 -69 -16 -23 0 -60 -9 -82 -20 -22 -11 -44 -20 -51 -20 -6 0 -23 -9 -37 -20 -14 -11 -32 -20 -41 -20 -20 0 -126 -106 -126 -126 0 -8 -8 -27 -17 -41 -26 -39 -26 -227 0 -266 9 -14 17 -33 17 -41 0 -20 106 -133 141 -152 15 -8 40 -14 55 -14 15 0 36 -8 47 -17 16 -16 40 -18 171 -18 128 0 156 3 179 18 14 9 33 17 40 17 8 0 26 9 40 20 14 11 32 20 41 20 9 0 25 15 36 33 30 49 63 87 77 87 8 0 13 -25 15 -77 l3 -78 78 -3 78 -3 -3 464 c-3 421 -5 465 -20 490 -10 14 -18 38 -18 52 0 14 -6 39 -14 54 -18 35 -132 141 -151 141 -8 0 -29 9 -47 20 -18 11 -46 20 -61 20 -15 0 -38 6 -50 14 -26 17 -153 27 -218 17z" fill="#ffffff" id="ffffff-000007" mask="url(#mask-3)"/>
    <path stroke="none" d="M9578 4071 c-27 -4 -53 -12 -60 -19 -7 -7 -28 -12 -47 -12 -20 0 -47 -9 -61 -20 -14 -11 -34 -20 -46 -20 -11 0 -29 -9 -39 -20 -10 -11 -27 -20 -37 -20 -11 0 -57 -37 -103 -82 -84 -83 -145 -183 -145 -237 0 -12 -8 -34 -17 -48 -15 -23 -18 -51 -18 -173 0 -122 3 -150 18 -173 9 -14 17 -42 17 -60 0 -19 9 -46 20 -60 11 -14 20 -31 20 -39 0 -37 210 -248 247 -248 8 0 26 -9 40 -20 14 -11 32 -20 40 -20 7 0 25 -8 40 -17 21 -14 56 -18 184 -21 147 -4 161 -3 194 17 20 11 48 21 63 21 15 0 42 9 60 20 18 11 39 20 48 20 8 0 60 44 115 97 114 110 157 181 166 273 4 30 13 66 22 79 23 36 21 229 -2 265 -9 14 -17 38 -17 53 0 15 -9 43 -20 61 -11 18 -20 39 -20 46 0 7 -9 25 -20 39 -11 14 -20 32 -20 41 0 25 -111 136 -159 160 -25 12 -55 27 -66 33 -79 42 -106 53 -129 53 -15 0 -37 6 -49 14 -26 17 -154 27 -219 17z" fill="#ffffff" id="ffffff-000008" mask="url(#mask-4)"/>
    <path stroke="none" d="M11178 4071 c-27 -4 -53 -12 -60 -19 -7 -7 -25 -12 -40 -12 -36 0 -76 -20 -107 -54 -14 -14 -32 -26 -40 -26 -20 0 -62 -36 -86 -73 -28 -43 -44 -19 -47 71 l-3 77 -75 0 -75 0 0 -615 0 -615 90 0 90 0 5 405 c5 400 5 405 28 437 12 17 22 38 22 46 0 8 38 53 85 100 l85 85 77 7 c42 4 116 5 165 3 l90 -6 49 -48 c27 -27 49 -54 49 -62 0 -8 9 -26 20 -42 19 -27 20 -47 22 -476 l3 -449 95 0 95 0 0 440 c0 403 -2 443 -17 468 -10 14 -18 39 -18 54 0 15 -9 43 -20 61 -11 18 -20 39 -20 47 0 19 -106 125 -125 125 -8 0 -29 9 -47 20 -18 11 -46 20 -61 20 -15 0 -38 6 -50 14 -28 17 -117 26 -179 17z" fill="#ffffff" id="ffffff-000005" mask="url(#mask-5)"/>
    <path stroke="none" d="M15785 4043 c-27 -2 -69 -13 -92 -23 -24 -11 -49 -20 -57 -20 -7 0 -24 -8 -37 -18 -13 -10 -37 -24 -54 -32 -16 -8 -61 -45 -100 -82 -87 -82 -155 -204 -175 -313 -12 -67 -9 -207 5 -285 17 -89 119 -249 196 -308 110 -84 144 -103 249 -136 91 -28 292 -29 365 -2 104 39 152 67 205 121 72 73 90 73 90 -2 0 -80 -19 -272 -31 -305 -23 -70 -36 -97 -72 -151 -42 -64 -93 -105 -177 -144 -51 -24 -65 -26 -211 -26 -139 -1 -162 2 -215 22 -108 42 -122 51 -189 116 -37 36 -76 65 -87 65 -18 0 -118 -85 -118 -100 0 -15 99 -105 147 -132 29 -16 56 -34 59 -39 3 -5 14 -9 24 -9 11 0 35 -9 55 -20 20 -11 46 -20 58 -20 12 0 54 -9 92 -20 95 -26 229 -26 315 0 36 11 76 20 90 20 14 0 50 14 80 31 30 18 67 38 82 46 31 16 118 102 118 116 0 5 8 21 19 35 31 45 56 95 71 142 7 25 18 51 24 59 15 19 22 1335 8 1372 -10 25 -14 26 -67 24 -31 -2 -61 -7 -65 -11 -5 -5 -10 -45 -12 -88 -4 -94 -15 -104 -55 -48 -15 22 -50 55 -77 74 -112 76 -143 86 -287 91 -68 3 -146 3 -174 0z" fill="#189fda" id="189fda-000011" mask="url(#mask-5)"/>
    <path stroke="none" d="M17345 4043 c-27 -2 -69 -13 -92 -23 -24 -11 -47 -20 -53 -20 -18 0 -159 -109 -187 -146 -16 -19 -38 -47 -50 -61 -22 -28 -28 -38 -61 -118 -29 -69 -36 -121 -36 -260 0 -166 9 -216 60 -321 35 -72 59 -105 112 -156 67 -65 165 -123 232 -139 209 -47 211 -47 324 -19 43 11 87 20 97 20 46 0 156 67 234 142 l80 77 -50 50 c-27 28 -54 51 -60 51 -7 0 -26 -18 -44 -40 -30 -37 -139 -120 -159 -120 -4 0 -27 -9 -50 -20 -35 -17 -61 -20 -172 -20 -128 0 -133 1 -198 33 -70 34 -157 111 -182 162 -8 17 -22 42 -32 57 -10 14 -18 34 -18 45 0 19 -20 80 -33 100 -6 9 -3 31 7 45 0 1 231 5 511 8 l510 5 3 153 c2 130 0 152 -13 152 -8 0 -21 15 -29 34 -38 91 -165 246 -202 246 -6 0 -19 9 -29 20 -10 11 -23 20 -30 20 -6 0 -29 9 -51 19 -31 15 -69 21 -165 24 -68 3 -146 3 -174 0z" fill="#189fda" id="189fda-000012" mask="url(#mask-6)"/>
    <path stroke="none" d="M8476 4010 l-26 -32 2 -586 3 -587 90 0 90 0 0 615 0 615 -66 3 c-64 3 -68 2 -93 -28z" fill="#ffffff" id="ffffff-000009"/>
  </g>
</svg>
