<?xml version="1.0" standalone="no"?>
<!DOCTYPE svg PUBLIC "-//W3C//DTD SVG 1.1//EN"
 "http://www.w3.org/Graphics/SVG/1.1/DTD/svg11.dtd">
<!-- Created with svg_stack (http://github.com/astraw/svg_stack) -->
<svg xmlns:sodipodi="http://sodipodi.sourceforge.net/DTD/sodipodi-0.dtd" xmlns="http://www.w3.org/2000/svg" version="1.1" width="720.0" height="708.0">
  <defs/>
  <g id="id0:id0" transform="matrix(1.25,0,0,1.25,0.0,0.0)"><g transform="translate(0.000000,566.400000) scale(0.040000,-0.040000)" fill="#000000" stroke="none">
<path d="M11109 8709 c-5 -10 -9 -25 -9 -33 0 -34 -36 -128 -52 -137 -22 -12 -23 -42 -3 -59 19 -16 19 -29 -1 -51 -14 -15 -15 -135 -14 -1151 0 -623 -2 -1147 -6 -1165 -4 -19 -17 -40 -33 -50 -25 -17 -89 -18 -1191 -19 -988 -1 -1172 -3 -1210 -15 -49 -16 -60 -42 -20 -47 14 -2 30 -8 37 -13 7 -6 457 -10 1185 -10 645 0 1206 -3 1246 -7 86 -9 113 -28 93 -64 -9 -18 -12 -294 -14 -1218 -2 -975 -4 -1199 -15 -1218 -8 -13 -11 -34 -8 -47 5 -20 11 -23 43 -18 21 2 596 5 1278 6 l1240 2 3 25 c2 14 8 29 13 35 17 17 9 22 -43 29 -29 3 -575 6 -1212 6 -1077 -1 -1160 1 -1178 16 l-18 17 0 1170 c1 1077 -1 1171 -16 1195 -16 24 -16 26 0 38 10 7 54 15 99 19 122 9 2359 1 2380 -9 14 -7 17 -3 17 21 0 16 2 32 5 35 8 8 7 2607 -1 2677 -6 56 -8 61 -31 61 -14 0 -36 -9 -50 -20 l-26 -20 -1111 0 c-997 0 -1116 2 -1161 16 -27 9 -85 18 -128 19 -66 1 -80 -1 -88 -16z"/>
<path d="M10980 8690 c0 -5 5 -10 10 -10 6 0 10 5 10 10 0 6 -4 10 -10 10 -5 0 -10 -4 -10 -10z"/>
<path d="M1635 3568 c-22 -5 -54 -14 -71 -19 -17 -5 -48 -9 -70 -9 -23 0 -49 -8 -64 -20 -14 -11 -34 -20 -46 -20 -11 0 -29 -9 -39 -20 -10 -11 -27 -20 -38 -20 -11 0 -41 -17 -66 -37 -64 -53 -181 -174 -181 -188 0 -7 -9 -24 -20 -38 -11 -14 -20 -39 -20 -57 0 -23 -5 -33 -20 -37 -16 -4 -20 -14 -20 -52 0 -25 -9 -71 -20 -101 -11 -30 -20 -70 -20 -88 0 -25 -5 -35 -19 -39 -11 -3 -21 -13 -24 -24 -3 -10 -13 -19 -22 -19 -25 0 -90 -48 -90 -68 0 -12 -7 -16 -22 -14 -17 2 -23 -2 -23 -17 0 -11 -9 -35 -20 -53 -22 -36 -29 -151 -10 -163 5 -3 10 -14 10 -24 0 -9 5 -22 12 -29 7 -7 13 -22 13 -34 0 -13 10 -27 22 -34 13 -6 31 -18 41 -27 10 -10 24 -17 30 -17 7 0 33 -21 57 -47 l45 -47 0 -655 c0 -650 3 -707 33 -737 4 -4 7 -15 7 -24 0 -73 255 -119 381 -68 68 27 90 49 117 117 l22 54 0 655 0 656 27 28 c15 15 31 28 36 28 5 0 20 9 34 20 22 17 41 20 121 20 l94 0 49 36 c69 50 81 83 82 210 0 96 -1 106 -21 120 -12 8 -22 23 -22 33 0 25 -24 43 -45 35 -11 -5 -22 -1 -29 7 -16 21 -97 39 -175 39 -65 0 -71 2 -90 29 -14 19 -21 45 -21 73 0 39 5 49 48 90 63 61 118 88 183 88 34 0 60 6 78 19 14 10 37 21 51 22 16 3 32 19 50 49 22 37 33 46 63 51 43 7 62 -4 77 -44 7 -19 10 -388 10 -1125 1 -1086 3 -1168 33 -1198 4 -4 7 -18 7 -31 0 -19 5 -24 23 -21 18 2 21 -1 19 -20 -3 -17 2 -22 19 -22 12 0 31 -8 42 -17 15 -14 41 -19 120 -21 101 -4 166 8 188 34 5 6 18 10 28 7 21 -5 45 21 37 42 -3 9 4 21 19 31 l25 16 0 382 c0 287 4 411 16 501 9 66 19 145 23 176 3 30 15 68 24 83 10 15 20 38 21 50 1 12 10 31 19 42 68 75 135 143 154 153 13 6 22 17 20 23 -1 7 14 13 38 15 22 2 49 13 61 24 20 19 32 20 165 17 131 -3 144 -5 141 -20 -2 -10 3 -18 11 -18 19 0 69 -58 92 -105 18 -38 19 -72 22 -627 3 -570 6 -662 24 -674 5 -3 9 -15 9 -28 0 -13 9 -31 20 -41 11 -10 20 -24 20 -32 0 -7 9 -13 20 -13 11 0 34 -9 52 -20 48 -29 211 -29 270 0 23 11 51 20 62 20 14 0 29 14 43 40 29 49 29 58 1 62 l-23 3 3 545 c2 300 -1 586 -6 637 -5 50 -6 109 -3 130 5 32 10 38 34 41 34 4 36 33 7 112 -11 30 -20 65 -20 78 0 13 -9 35 -20 49 -11 14 -20 35 -20 47 0 12 -9 27 -20 34 -11 7 -20 20 -20 29 0 10 -35 50 -77 90 -111 103 -111 103 -133 103 -10 0 -24 9 -30 20 -7 12 -21 20 -38 20 -15 0 -41 9 -58 19 -39 24 -114 33 -274 33 -143 0 -251 -10 -265 -23 -5 -5 -17 -9 -26 -9 -9 0 -22 -6 -28 -14 -7 -8 -20 -12 -29 -9 -10 2 -27 -6 -41 -21 -13 -14 -29 -22 -38 -19 -9 4 -22 -3 -32 -16 -15 -19 -22 -21 -71 -14 l-55 8 -20 55 c-18 49 -20 86 -23 354 l-3 299 -25 36 c-13 20 -28 36 -32 36 -4 0 -21 10 -39 23 -19 14 -46 22 -70 22 -21 0 -44 5 -50 11 -11 11 -48 9 -165 -7 -27 -3 -54 -14 -64 -25 -9 -10 -25 -19 -34 -19 -23 0 -40 -20 -40 -46 0 -13 -11 -31 -24 -42 -13 -10 -24 -25 -23 -33 1 -8 -2 -14 -8 -14 -5 0 -9 5 -9 12 1 7 -20 15 -50 20 -39 6 -52 13 -54 28 -3 11 -10 24 -18 28 -8 4 -14 18 -14 30 0 22 -33 51 -60 53 -8 1 -37 11 -63 23 -52 22 -112 25 -182 9z m199 -60 c-3 -5 -12 -4 -20 3 -7 6 -11 15 -8 21 3 5 12 4 20 -3 7 -6 11 -15 8 -21z m210 -157 c12 -11 37 -23 56 -28 l35 -9 0 -55 c0 -47 -2 -54 -20 -54 -13 0 -21 8 -23 22 -3 19 -10 22 -55 25 l-52 3 -3 45 c-3 33 1 47 14 57 23 17 24 17 48 -6z m1201 -960 c7 -12 -12 -24 -25 -16 -11 7 -4 25 10 25 5 0 11 -4 15 -9z m79 -42 c-3 -5 -10 -7 -15 -3 -5 3 -7 10 -3 15 3 5 10 7 15 3 5 -3 7 -10 3 -15z m-1740 2 c8 -13 -21 -34 -39 -28 -8 4 -17 2 -20 -4 -4 -5 -11 -7 -16 -3 -5 3 -7 10 -3 15 3 5 9 7 14 4 4 -3 13 2 20 10 14 17 36 20 44 6z m1908 -143 c-16 -16 -37 4 -28 28 6 16 8 16 23 1 13 -13 15 -19 5 -29z m-2032 -103 c0 -40 -19 -73 -33 -58 -4 3 -7 30 -7 58 0 28 3 55 7 58 14 15 33 -18 33 -58z"/>
<path d="M5150 2839 c-206 -21 -237 -26 -267 -42 -18 -9 -43 -17 -56 -17 -13 0 -32 -9 -42 -20 -11 -12 -31 -20 -50 -20 -25 0 -34 -5 -38 -21 -4 -16 -11 -20 -27 -16 -16 4 -29 -2 -45 -19 -12 -13 -29 -24 -37 -24 -17 0 -145 -105 -187 -152 -14 -16 -43 -48 -63 -70 -21 -22 -39 -45 -40 -52 0 -6 -2 -17 -2 -24 -1 -7 -12 -18 -25 -25 -29 -14 -39 -37 -17 -37 9 0 21 -11 26 -25 11 -29 22 -31 40 -10 10 12 16 13 24 5 8 -8 6 -15 -8 -25 -12 -9 -20 -31 -24 -62 -3 -26 -13 -59 -23 -72 -11 -13 -19 -40 -19 -61 0 -32 -7 -43 -50 -83 l-51 -45 5 -164 c8 -243 7 -238 28 -238 24 0 34 -26 18 -45 -9 -11 -10 -22 -2 -42 31 -77 21 -152 -15 -122 -23 20 -28 0 -5 -24 12 -13 22 -31 22 -40 0 -9 9 -21 20 -27 11 -6 20 -21 20 -34 0 -13 7 -29 15 -36 8 -7 15 -19 15 -26 0 -8 11 -19 25 -24 16 -6 23 -15 19 -25 -4 -9 1 -17 10 -21 9 -4 23 -19 31 -35 19 -35 133 -132 146 -123 6 3 13 -3 16 -15 3 -12 10 -21 16 -21 6 0 21 -10 34 -21 12 -12 34 -22 48 -23 14 -1 24 -4 23 -7 -7 -16 26 -38 47 -33 17 4 26 0 35 -15 6 -13 21 -21 35 -21 13 0 40 -9 60 -20 20 -11 50 -20 68 -20 18 0 57 -9 87 -20 80 -29 350 -29 435 0 32 11 73 20 91 20 18 0 53 9 79 20 26 11 57 20 70 20 14 0 29 9 35 20 7 14 21 20 44 20 25 0 35 5 39 20 3 13 14 20 30 20 13 0 30 7 37 15 7 8 18 15 24 15 7 0 23 11 36 25 13 14 27 25 31 25 15 0 79 73 79 90 0 11 4 21 9 24 5 4 12 24 16 46 5 30 2 47 -10 66 -9 14 -14 36 -11 48 6 25 -2 40 -26 49 -11 4 -18 17 -18 32 0 18 -7 28 -26 35 -14 6 -28 19 -31 31 -4 12 -11 18 -20 15 -7 -3 -16 1 -19 9 -13 34 -173 12 -202 -27 -7 -10 -22 -18 -32 -18 -11 0 -24 -9 -30 -20 -6 -12 -21 -20 -35 -20 -14 0 -29 -8 -35 -20 -8 -14 -21 -20 -46 -20 -19 0 -47 -9 -62 -20 -25 -18 -41 -20 -188 -17 -141 2 -165 4 -182 20 -12 11 -31 17 -45 15 -16 -2 -35 6 -50 20 -14 13 -33 22 -43 20 -12 -2 -23 6 -29 20 -9 20 -37 35 -70 37 -5 0 -9 8 -7 17 1 10 -9 25 -23 34 -14 9 -24 23 -21 30 3 7 -6 27 -19 43 -14 16 -25 34 -25 40 0 7 -7 23 -16 36 -49 74 -50 429 -1 483 9 10 17 25 17 34 0 8 9 23 20 33 11 10 20 28 20 40 0 13 10 30 23 38 12 8 37 28 54 44 55 48 91 73 104 73 7 0 21 7 31 17 10 9 37 20 61 24 23 4 60 13 82 20 22 7 69 12 105 12 36 0 83 -5 105 -12 22 -7 59 -16 81 -20 23 -4 54 -17 69 -29 19 -15 35 -20 52 -16 19 5 25 2 30 -15 3 -11 11 -21 18 -21 7 0 24 -9 38 -20 21 -17 40 -20 115 -20 l89 0 52 55 c28 31 51 64 51 75 0 11 9 24 21 30 13 8 19 19 17 34 -1 13 3 31 11 40 12 14 12 26 1 74 -16 68 -23 79 -69 100 -20 10 -36 24 -37 32 -2 37 -5 41 -26 38 -16 -2 -26 4 -33 19 -12 28 -33 37 -51 22 -17 -14 -34 -3 -34 21 0 22 -19 31 -41 19 -11 -6 -23 -1 -39 16 -13 14 -35 25 -50 25 -14 0 -43 9 -65 20 -27 14 -59 20 -103 20 -35 0 -71 4 -80 9 -27 13 -130 19 -212 10z"/>
<path d="M4207 2043 c-10 -9 -8 -43 2 -43 5 0 14 7 21 15 17 21 -4 48 -23 28z"/>
</g>
</g>
  <g id="id1:id1" transform="matrix(1.25,0,0,1.25,0.0,0.0)"><g transform="translate(0.000000,566.400000) scale(0.040000,-0.040000)" fill="#22aff0" stroke="none">
<path d="M11100 13730 c0 -5 5 -10 10 -10 6 0 10 5 10 10 0 6 -4 10 -10 10 -5 0 -10 -4 -10 -10z"/>
<path d="M5780 13710 c0 -5 5 -10 10 -10 6 0 10 5 10 10 0 6 -4 10 -10 10 -5 0 -10 -4 -10 -10z"/>
<path d="M5925 13680 c-10 -11 -24 -20 -32 -20 -23 0 -14 -17 12 -22 20 -4 28 1 40 25 8 17 15 32 15 34 0 10 -19 1 -35 -17z"/>
<path d="M11360 13690 c0 -5 5 -10 10 -10 6 0 10 5 10 10 0 6 -4 10 -10 10 -5 0 -10 -4 -10 -10z"/>
<path d="M13600 13690 c0 -5 5 -10 10 -10 6 0 10 5 10 10 0 6 -4 10 -10 10 -5 0 -10 -4 -10 -10z"/>
<path d="M822 13649 c2 -6 7 -10 11 -10 4 1 16 1 27 1 11 0 20 5 20 10 0 6 -14 10 -31 10 -17 0 -29 -5 -27 -11z"/>
<path d="M780 13590 c0 -16 4 -30 9 -30 10 0 22 40 15 52 -11 18 -24 6 -24 -22z"/>
<path d="M5940 12390 c0 -813 3 -1230 10 -1230 7 0 10 411 10 1214 0 799 3 1217 10 1221 17 10 11 25 -10 25 l-20 0 0 -1230z"/>
<path d="M734 13489 c-10 -17 13 -36 27 -22 12 12 4 33 -11 33 -5 0 -12 -5 -16 -11z"/>
<path d="M5995 13328 c-3 -7 -4 -456 -3 -998 3 -868 5 -985 18 -985 13 0 15 117 15 994 0 786 -3 995 -12 998 -7 3 -15 -1 -18 -9z"/>
<path d="M6000 11230 c0 -5 5 -10 10 -10 6 0 10 5 10 10 0 6 -4 10 -10 10 -5 0 -10 -4 -10 -10z"/>
<path d="M729 11193 c-6 -15 -9 -59 -8 -98 2 -38 0 -76 -5 -83 -4 -7 -3 -18 2 -25 6 -7 12 -23 14 -37 1 -14 10 -25 18 -25 20 0 28 37 28 125 1 141 -23 211 -49 143z"/>
<path d="M5994 11169 c-10 -17 13 -36 27 -22 12 12 4 33 -11 33 -5 0 -12 -5 -16 -11z"/>
<path d="M6020 11110 c0 -5 5 -10 10 -10 6 0 10 5 10 10 0 6 -4 10 -10 10 -5 0 -10 -4 -10 -10z"/>
<path d="M5940 11100 c0 -13 28 -25 38 -16 3 4 0 11 -8 16 -20 13 -30 12 -30 0z"/>
<path d="M4710 11059 c-624 -3 -1152 -9 -1172 -13 -39 -9 -84 -48 -73 -65 9 -16 41 -13 55 4 7 8 28 17 49 21 20 4 42 11 49 17 9 7 19 4 35 -12 16 -14 36 -21 65 -21 22 0 44 -4 47 -10 4 -7 317 -10 905 -10 588 0 901 3 905 10 8 12 58 13 71 1 5 -5 42 -11 82 -14 l72 -6 -6 27 c-4 15 -7 32 -8 37 0 6 21 11 47 13 32 2 47 7 44 15 -2 7 -10 12 -18 12 -8 0 -525 -2 -1149 -6z"/>
<path d="M5920 11050 c0 -5 5 -10 10 -10 6 0 10 5 10 10 0 6 -4 10 -10 10 -5 0 -10 -4 -10 -10z"/>
<path d="M5980 11040 c0 -11 5 -20 10 -20 6 0 10 9 10 20 0 11 -4 20 -10 20 -5 0 -10 -9 -10 -20z"/>
<path d="M820 11010 c0 -5 9 -10 20 -10 11 0 20 5 20 10 0 6 -9 10 -20 10 -11 0 -20 -4 -20 -10z"/>
<path d="M880 10990 c0 -7 197 -10 570 -10 373 0 570 3 570 10 0 7 -197 10 -570 10 -373 0 -570 -3 -570 -10z"/>
<path d="M5860 10990 c0 -5 9 -10 20 -10 11 0 20 5 20 10 0 6 -9 10 -20 10 -11 0 -20 -4 -20 -10z"/>
<path d="M800 10950 c0 -16 5 -30 10 -30 6 0 10 14 10 30 0 17 -4 30 -10 30 -5 0 -10 -13 -10 -30z"/>
<path d="M3440 10950 c0 -5 5 -10 10 -10 6 0 10 5 10 10 0 6 -4 10 -10 10 -5 0 -10 -4 -10 -10z"/>
<path d="M3420 10900 c0 -11 5 -20 10 -20 6 0 10 9 10 20 0 11 -4 20 -10 20 -5 0 -10 -9 -10 -20z"/>
<path d="M720 10790 c0 -5 5 -10 10 -10 6 0 10 5 10 10 0 6 -4 10 -10 10 -5 0 -10 -4 -10 -10z"/>
<path d="M720 10730 c0 -16 5 -30 10 -30 6 0 10 14 10 30 0 17 -4 30 -10 30 -5 0 -10 -13 -10 -30z"/>
<path d="M3460 9780 c0 -647 3 -980 10 -980 7 0 10 333 10 980 0 647 -3 980 -10 980 -7 0 -10 -333 -10 -980z"/>
<path d="M720 10670 c0 -5 5 -10 10 -10 6 0 10 5 10 10 0 6 -4 10 -10 10 -5 0 -10 -4 -10 -10z"/>
<path d="M720 10630 c0 -5 5 -10 10 -10 6 0 10 5 10 10 0 6 -4 10 -10 10 -5 0 -10 -4 -10 -10z"/>
<path d="M720 10590 c0 -5 5 -10 10 -10 6 0 10 5 10 10 0 6 -4 10 -10 10 -5 0 -10 -4 -10 -10z"/>
<path d="M720 10550 c0 -5 5 -10 10 -10 6 0 10 5 10 10 0 6 -4 10 -10 10 -5 0 -10 -4 -10 -10z"/>
<path d="M720 10510 c0 -5 5 -10 10 -10 6 0 10 5 10 10 0 6 -4 10 -10 10 -5 0 -10 -4 -10 -10z"/>
<path d="M720 10470 c0 -5 5 -10 10 -10 6 0 10 5 10 10 0 6 -4 10 -10 10 -5 0 -10 -4 -10 -10z"/>
<path d="M720 10430 c0 -5 5 -10 10 -10 6 0 10 5 10 10 0 6 -4 10 -10 10 -5 0 -10 -4 -10 -10z"/>
<path d="M720 10390 c0 -5 5 -10 10 -10 6 0 10 5 10 10 0 6 -4 10 -10 10 -5 0 -10 -4 -10 -10z"/>
<path d="M720 10350 c0 -5 5 -10 10 -10 6 0 10 5 10 10 0 6 -4 10 -10 10 -5 0 -10 -4 -10 -10z"/>
<path d="M720 10310 c0 -5 5 -10 10 -10 6 0 10 5 10 10 0 6 -4 10 -10 10 -5 0 -10 -4 -10 -10z"/>
<path d="M720 10270 c0 -5 5 -10 10 -10 6 0 10 5 10 10 0 6 -4 10 -10 10 -5 0 -10 -4 -10 -10z"/>
<path d="M720 10230 c0 -5 5 -10 10 -10 6 0 10 5 10 10 0 6 -4 10 -10 10 -5 0 -10 -4 -10 -10z"/>
<path d="M720 10190 c0 -5 5 -10 10 -10 6 0 10 5 10 10 0 6 -4 10 -10 10 -5 0 -10 -4 -10 -10z"/>
<path d="M720 10150 c0 -5 5 -10 10 -10 6 0 10 5 10 10 0 6 -4 10 -10 10 -5 0 -10 -4 -10 -10z"/>
<path d="M720 10110 c0 -5 5 -10 10 -10 6 0 10 5 10 10 0 6 -4 10 -10 10 -5 0 -10 -4 -10 -10z"/>
<path d="M720 10070 c0 -5 5 -10 10 -10 6 0 10 5 10 10 0 6 -4 10 -10 10 -5 0 -10 -4 -10 -10z"/>
<path d="M720 10030 c0 -5 5 -10 10 -10 6 0 10 5 10 10 0 6 -4 10 -10 10 -5 0 -10 -4 -10 -10z"/>
<path d="M720 9990 c0 -5 5 -10 10 -10 6 0 10 5 10 10 0 6 -4 10 -10 10 -5 0 -10 -4 -10 -10z"/>
<path d="M720 9950 c0 -5 5 -10 10 -10 6 0 10 5 10 10 0 6 -4 10 -10 10 -5 0 -10 -4 -10 -10z"/>
<path d="M720 9910 c0 -5 5 -10 10 -10 6 0 10 5 10 10 0 6 -4 10 -10 10 -5 0 -10 -4 -10 -10z"/>
<path d="M720 9870 c0 -5 5 -10 10 -10 6 0 10 5 10 10 0 6 -4 10 -10 10 -5 0 -10 -4 -10 -10z"/>
<path d="M720 9830 c0 -5 5 -10 10 -10 6 0 10 5 10 10 0 6 -4 10 -10 10 -5 0 -10 -4 -10 -10z"/>
<path d="M720 9790 c0 -5 5 -10 10 -10 6 0 10 5 10 10 0 6 -4 10 -10 10 -5 0 -10 -4 -10 -10z"/>
<path d="M720 9750 c0 -5 5 -10 10 -10 6 0 10 5 10 10 0 6 -4 10 -10 10 -5 0 -10 -4 -10 -10z"/>
<path d="M720 9710 c0 -5 5 -10 10 -10 6 0 10 5 10 10 0 6 -4 10 -10 10 -5 0 -10 -4 -10 -10z"/>
<path d="M720 9670 c0 -5 5 -10 10 -10 6 0 10 5 10 10 0 6 -4 10 -10 10 -5 0 -10 -4 -10 -10z"/>
<path d="M720 9630 c0 -5 5 -10 10 -10 6 0 10 5 10 10 0 6 -4 10 -10 10 -5 0 -10 -4 -10 -10z"/>
<path d="M720 9590 c0 -5 5 -10 10 -10 6 0 10 5 10 10 0 6 -4 10 -10 10 -5 0 -10 -4 -10 -10z"/>
<path d="M720 9550 c0 -5 5 -10 10 -10 6 0 10 5 10 10 0 6 -4 10 -10 10 -5 0 -10 -4 -10 -10z"/>
<path d="M720 9510 c0 -5 5 -10 10 -10 6 0 10 5 10 10 0 6 -4 10 -10 10 -5 0 -10 -4 -10 -10z"/>
<path d="M720 9470 c0 -5 5 -10 10 -10 6 0 10 5 10 10 0 6 -4 10 -10 10 -5 0 -10 -4 -10 -10z"/>
<path d="M720 9430 c0 -5 5 -10 10 -10 6 0 10 5 10 10 0 6 -4 10 -10 10 -5 0 -10 -4 -10 -10z"/>
<path d="M720 9390 c0 -5 5 -10 10 -10 6 0 10 5 10 10 0 6 -4 10 -10 10 -5 0 -10 -4 -10 -10z"/>
<path d="M720 9350 c0 -5 5 -10 10 -10 6 0 10 5 10 10 0 6 -4 10 -10 10 -5 0 -10 -4 -10 -10z"/>
<path d="M720 9310 c0 -5 5 -10 10 -10 6 0 10 5 10 10 0 6 -4 10 -10 10 -5 0 -10 -4 -10 -10z"/>
<path d="M720 9270 c0 -5 5 -10 10 -10 6 0 10 5 10 10 0 6 -4 10 -10 10 -5 0 -10 -4 -10 -10z"/>
<path d="M720 9230 c0 -5 5 -10 10 -10 6 0 10 5 10 10 0 6 -4 10 -10 10 -5 0 -10 -4 -10 -10z"/>
<path d="M720 9190 c0 -5 5 -10 10 -10 6 0 10 5 10 10 0 6 -4 10 -10 10 -5 0 -10 -4 -10 -10z"/>
<path d="M720 9150 c0 -5 5 -10 10 -10 6 0 10 5 10 10 0 6 -4 10 -10 10 -5 0 -10 -4 -10 -10z"/>
<path d="M720 9110 c0 -5 5 -10 10 -10 6 0 10 5 10 10 0 6 -4 10 -10 10 -5 0 -10 -4 -10 -10z"/>
<path d="M720 9070 c0 -5 5 -10 10 -10 6 0 10 5 10 10 0 6 -4 10 -10 10 -5 0 -10 -4 -10 -10z"/>
<path d="M720 9030 c0 -5 5 -10 10 -10 6 0 10 5 10 10 0 6 -4 10 -10 10 -5 0 -10 -4 -10 -10z"/>
<path d="M720 8990 c0 -5 5 -10 10 -10 6 0 10 5 10 10 0 6 -4 10 -10 10 -5 0 -10 -4 -10 -10z"/>
<path d="M720 8950 c0 -5 5 -10 10 -10 6 0 10 5 10 10 0 6 -4 10 -10 10 -5 0 -10 -4 -10 -10z"/>
<path d="M720 8910 c0 -5 5 -10 10 -10 6 0 10 5 10 10 0 6 -4 10 -10 10 -5 0 -10 -4 -10 -10z"/>
<path d="M720 8870 c0 -5 5 -10 10 -10 6 0 10 5 10 10 0 6 -4 10 -10 10 -5 0 -10 -4 -10 -10z"/>
<path d="M720 8830 c0 -5 5 -10 10 -10 6 0 10 5 10 10 0 6 -4 10 -10 10 -5 0 -10 -4 -10 -10z"/>
<path d="M720 8790 c0 -5 5 -10 10 -10 6 0 10 5 10 10 0 6 -4 10 -10 10 -5 0 -10 -4 -10 -10z"/>
<path d="M720 8750 c0 -5 5 -10 10 -10 6 0 10 5 10 10 0 6 -4 10 -10 10 -5 0 -10 -4 -10 -10z"/>
<path d="M3425 8700 l-19 -21 22 -21 c27 -27 45 -14 40 28 -4 35 -19 40 -43 14z"/>
<path d="M760 8630 c0 -40 4 -70 10 -70 6 0 10 30 10 70 0 40 -4 70 -10 70 -6 0 -10 -30 -10 -70z"/>
<path d="M10990 8625 c-7 -9 -10 -18 -7 -22 8 -7 37 15 37 28 0 14 -16 11 -30 -6z"/>
<path d="M3460 8600 c0 -13 7 -20 20 -20 13 0 20 7 20 20 0 13 -7 20 -20 20 -13 0 -20 -7 -20 -20z"/>
<path d="M3720 8590 c0 -5 5 -10 10 -10 6 0 10 5 10 10 0 6 -4 10 -10 10 -5 0 -10 -4 -10 -10z"/>
<path d="M3760 8590 c0 -5 5 -10 10 -10 6 0 10 5 10 10 0 6 -4 10 -10 10 -5 0 -10 -4 -10 -10z"/>
<path d="M3800 8590 c0 -5 5 -10 10 -10 6 0 10 5 10 10 0 6 -4 10 -10 10 -5 0 -10 -4 -10 -10z"/>
<path d="M3840 8590 c0 -5 5 -10 10 -10 6 0 10 5 10 10 0 6 -4 10 -10 10 -5 0 -10 -4 -10 -10z"/>
<path d="M3880 8590 c0 -5 5 -10 10 -10 6 0 10 5 10 10 0 6 -4 10 -10 10 -5 0 -10 -4 -10 -10z"/>
<path d="M3920 8590 c0 -5 5 -10 10 -10 6 0 10 5 10 10 0 6 -4 10 -10 10 -5 0 -10 -4 -10 -10z"/>
<path d="M3960 8590 c0 -5 5 -10 10 -10 6 0 10 5 10 10 0 6 -4 10 -10 10 -5 0 -10 -4 -10 -10z"/>
<path d="M4000 8590 c0 -5 5 -10 10 -10 6 0 10 5 10 10 0 6 -4 10 -10 10 -5 0 -10 -4 -10 -10z"/>
<path d="M4040 8590 c0 -5 5 -10 10 -10 6 0 10 5 10 10 0 6 -4 10 -10 10 -5 0 -10 -4 -10 -10z"/>
<path d="M4080 8590 c0 -5 5 -10 10 -10 6 0 10 5 10 10 0 6 -4 10 -10 10 -5 0 -10 -4 -10 -10z"/>
<path d="M4120 8590 c0 -5 5 -10 10 -10 6 0 10 5 10 10 0 6 -4 10 -10 10 -5 0 -10 -4 -10 -10z"/>
<path d="M4160 8590 c0 -5 5 -10 10 -10 6 0 10 5 10 10 0 6 -4 10 -10 10 -5 0 -10 -4 -10 -10z"/>
<path d="M4200 8590 c0 -5 5 -10 10 -10 6 0 10 5 10 10 0 6 -4 10 -10 10 -5 0 -10 -4 -10 -10z"/>
<path d="M4240 8590 c0 -5 5 -10 10 -10 6 0 10 5 10 10 0 6 -4 10 -10 10 -5 0 -10 -4 -10 -10z"/>
<path d="M4280 8590 c0 -5 5 -10 10 -10 6 0 10 5 10 10 0 6 -4 10 -10 10 -5 0 -10 -4 -10 -10z"/>
<path d="M4320 8590 c0 -5 5 -10 10 -10 6 0 10 5 10 10 0 6 -4 10 -10 10 -5 0 -10 -4 -10 -10z"/>
<path d="M4360 8590 c0 -5 5 -10 10 -10 6 0 10 5 10 10 0 6 -4 10 -10 10 -5 0 -10 -4 -10 -10z"/>
<path d="M4400 8590 c0 -5 5 -10 10 -10 6 0 10 5 10 10 0 6 -4 10 -10 10 -5 0 -10 -4 -10 -10z"/>
<path d="M4440 8590 c0 -5 5 -10 10 -10 6 0 10 5 10 10 0 6 -4 10 -10 10 -5 0 -10 -4 -10 -10z"/>
<path d="M4480 8590 c0 -5 5 -10 10 -10 6 0 10 5 10 10 0 6 -4 10 -10 10 -5 0 -10 -4 -10 -10z"/>
<path d="M4520 8590 c0 -5 5 -10 10 -10 6 0 10 5 10 10 0 6 -4 10 -10 10 -5 0 -10 -4 -10 -10z"/>
<path d="M4560 8590 c0 -5 5 -10 10 -10 6 0 10 5 10 10 0 6 -4 10 -10 10 -5 0 -10 -4 -10 -10z"/>
<path d="M4600 8590 c0 -5 5 -10 10 -10 6 0 10 5 10 10 0 6 -4 10 -10 10 -5 0 -10 -4 -10 -10z"/>
<path d="M4640 8590 c0 -5 5 -10 10 -10 6 0 10 5 10 10 0 6 -4 10 -10 10 -5 0 -10 -4 -10 -10z"/>
<path d="M4680 8590 c0 -5 5 -10 10 -10 6 0 10 5 10 10 0 6 -4 10 -10 10 -5 0 -10 -4 -10 -10z"/>
<path d="M4720 8590 c0 -5 5 -10 10 -10 6 0 10 5 10 10 0 6 -4 10 -10 10 -5 0 -10 -4 -10 -10z"/>
<path d="M4760 8590 c0 -5 5 -10 10 -10 6 0 10 5 10 10 0 6 -4 10 -10 10 -5 0 -10 -4 -10 -10z"/>
<path d="M4800 8590 c0 -5 5 -10 10 -10 6 0 10 5 10 10 0 6 -4 10 -10 10 -5 0 -10 -4 -10 -10z"/>
<path d="M4840 8590 c0 -5 5 -10 10 -10 6 0 10 5 10 10 0 6 -4 10 -10 10 -5 0 -10 -4 -10 -10z"/>
<path d="M4880 8590 c0 -5 5 -10 10 -10 6 0 10 5 10 10 0 6 -4 10 -10 10 -5 0 -10 -4 -10 -10z"/>
<path d="M4920 8590 c0 -5 5 -10 10 -10 6 0 10 5 10 10 0 6 -4 10 -10 10 -5 0 -10 -4 -10 -10z"/>
<path d="M4960 8590 c0 -5 5 -10 10 -10 6 0 10 5 10 10 0 6 -4 10 -10 10 -5 0 -10 -4 -10 -10z"/>
<path d="M5000 8590 c0 -5 5 -10 10 -10 6 0 10 5 10 10 0 6 -4 10 -10 10 -5 0 -10 -4 -10 -10z"/>
<path d="M5040 8590 c0 -5 5 -10 10 -10 6 0 10 5 10 10 0 6 -4 10 -10 10 -5 0 -10 -4 -10 -10z"/>
<path d="M5080 8590 c0 -5 5 -10 10 -10 6 0 10 5 10 10 0 6 -4 10 -10 10 -5 0 -10 -4 -10 -10z"/>
<path d="M5120 8590 c0 -5 5 -10 10 -10 6 0 10 5 10 10 0 6 -4 10 -10 10 -5 0 -10 -4 -10 -10z"/>
<path d="M5160 8590 c0 -5 5 -10 10 -10 6 0 10 5 10 10 0 6 -4 10 -10 10 -5 0 -10 -4 -10 -10z"/>
<path d="M5200 8590 c0 -5 5 -10 10 -10 6 0 10 5 10 10 0 6 -4 10 -10 10 -5 0 -10 -4 -10 -10z"/>
<path d="M5240 8590 c0 -5 5 -10 10 -10 6 0 10 5 10 10 0 6 -4 10 -10 10 -5 0 -10 -4 -10 -10z"/>
<path d="M5280 8590 c0 -5 5 -10 10 -10 6 0 10 5 10 10 0 6 -4 10 -10 10 -5 0 -10 -4 -10 -10z"/>
<path d="M5320 8590 c0 -5 5 -10 10 -10 6 0 10 5 10 10 0 6 -4 10 -10 10 -5 0 -10 -4 -10 -10z"/>
<path d="M5360 8590 c0 -5 5 -10 10 -10 6 0 10 5 10 10 0 6 -4 10 -10 10 -5 0 -10 -4 -10 -10z"/>
<path d="M5400 8590 c0 -5 5 -10 10 -10 6 0 10 5 10 10 0 6 -4 10 -10 10 -5 0 -10 -4 -10 -10z"/>
<path d="M5440 8590 c0 -5 5 -10 10 -10 6 0 10 5 10 10 0 6 -4 10 -10 10 -5 0 -10 -4 -10 -10z"/>
<path d="M5480 8590 c0 -5 5 -10 10 -10 6 0 10 5 10 10 0 6 -4 10 -10 10 -5 0 -10 -4 -10 -10z"/>
<path d="M5520 8590 c0 -5 5 -10 10 -10 6 0 10 5 10 10 0 6 -4 10 -10 10 -5 0 -10 -4 -10 -10z"/>
<path d="M5640 8590 c0 -5 5 -10 10 -10 6 0 10 5 10 10 0 6 -4 10 -10 10 -5 0 -10 -4 -10 -10z"/>
<path d="M5760 8590 c0 -5 14 -10 30 -10 17 0 30 5 30 10 0 6 -13 10 -30 10 -16 0 -30 -4 -30 -10z"/>
<path d="M3525 8580 c-4 -7 -3 -16 3 -22 14 -14 47 -6 47 12 0 18 -40 26 -50 10z"/>
<path d="M5565 8580 c-4 -7 -3 -16 3 -22 14 -14 47 -6 47 12 0 18 -40 26 -50 10z"/>
<path d="M3640 8570 c0 -5 5 -10 10 -10 6 0 10 5 10 10 0 6 -4 10 -10 10 -5 0 -10 -4 -10 -10z"/>
<path d="M5680 8570 c0 -5 5 -10 10 -10 6 0 10 5 10 10 0 6 -4 10 -10 10 -5 0 -10 -4 -10 -10z"/>
<path d="M740 8526 c0 -7 -7 -19 -15 -26 -17 -14 -20 -61 -6 -75 6 -6 11 -30 13 -55 2 -32 7 -45 18 -45 12 0 16 17 18 78 2 46 -2 84 -8 92 -6 7 -8 20 -4 29 3 9 1 16 -5 16 -6 0 -11 -6 -11 -14z"/>
<path d="M13740 8370 c0 -5 5 -10 10 -10 6 0 10 5 10 10 0 6 -4 10 -10 10 -5 0 -10 -4 -10 -10z"/>
<path d="M5995 8328 c-3 -7 -4 -519 -3 -1138 3 -992 5 -1125 18 -1125 13 0 15 133 15 1134 0 898 -3 1135 -12 1138 -7 3 -15 -1 -18 -9z"/>
<path d="M735 8248 c-3 -7 -4 -488 -3 -1068 3 -930 5 -1055 18 -1055 13 0 15 125 15 1064 0 842 -3 1065 -12 1068 -7 3 -15 -1 -18 -9z"/>
<path d="M6000 5994 c-11 -12 -10 -18 3 -32 16 -15 18 -15 34 0 13 14 14 20 3 32 -7 9 -16 16 -20 16 -4 0 -13 -7 -20 -16z"/>
<path d="M8563 5986 c3 -8 -3 -22 -14 -32 l-19 -17 0 -1272 c0 -975 3 -1274 12 -1283 9 -9 278 -12 1148 -12 628 -1 1155 -5 1180 -10 26 -5 60 -5 80 0 19 5 57 10 84 12 l48 3 -1 -1202 c-1 -662 1 -1208 5 -1215 4 -7 7 -33 5 -58 -2 -36 2 -50 18 -64 12 -11 21 -25 21 -32 0 -24 20 -26 46 -5 34 27 80 27 94 1 8 -15 17 -18 38 -14 20 4 33 0 46 -15 14 -16 31 -21 67 -21 54 0 69 13 45 39 -18 20 -10 36 11 20 10 -9 17 -8 28 1 13 10 19 10 33 -4 17 -15 102 -16 956 -16 823 0 937 -2 942 -15 9 -22 26 -18 19 4 -11 35 18 44 121 38 122 -7 134 2 134 97 0 61 2 66 28 78 l27 13 3 1100 c1 726 -1 1102 -8 1109 -5 5 -10 24 -10 41 0 19 -8 39 -20 50 -11 10 -20 30 -20 44 0 14 -4 31 -8 36 -26 36 -21 36 -1310 35 l-1257 -1 2 38 c1 21 6 67 12 102 8 44 8 68 1 75 -13 13 -13 183 0 191 7 4 10 323 10 925 0 602 -3 921 -10 925 -14 9 -13 138 2 153 8 8 8 15 -2 27 -7 9 -13 33 -12 54 1 21 -4 43 -11 49 -26 20 -195 23 -1314 22 -777 0 -1154 3 -1158 10 -3 5 -27 10 -52 10 -35 0 -44 -3 -40 -14z"/>
<path d="M970 5930 c0 -5 9 -10 20 -10 11 0 20 5 20 10 0 6 -9 10 -20 10 -11 0 -20 -4 -20 -10z"/>
<path d="M2978 5933 c7 -3 16 -2 19 1 4 3 -2 6 -13 5 -11 0 -14 -3 -6 -6z"/>
<path d="M1144 5899 c-3 -6 -2 -15 3 -20 5 -5 348 -8 849 -7 738 3 839 5 839 18 0 13 -101 15 -842 18 -601 1 -844 -1 -849 -9z"/>
<path d="M3045 5900 c-4 -7 -3 -16 3 -22 14 -14 47 -6 47 12 0 18 -40 26 -50 10z"/>
<path d="M3150 5894 c-41 -22 -31 -39 25 -42 28 -1 65 -10 82 -18 l33 -15 2 -1107 c3 -976 5 -1107 18 -1107 13 0 15 131 18 1109 l2 1110 -27 28 c-53 55 -104 69 -153 42z"/>
<path d="M1060 5890 c0 -5 5 -10 10 -10 6 0 10 5 10 10 0 6 -4 10 -10 10 -5 0 -10 -4 -10 -10z"/>
<path d="M2940 5890 c0 -5 5 -10 10 -10 6 0 10 5 10 10 0 6 -4 10 -10 10 -5 0 -10 -4 -10 -10z"/>
<path d="M5994 5807 c-11 -29 0 -102 16 -102 19 0 22 106 3 112 -7 3 -16 -2 -19 -10z"/>
<path d="M8460 5810 c0 -5 5 -10 10 -10 6 0 10 5 10 10 0 6 -4 10 -10 10 -5 0 -10 -4 -10 -10z"/>
<path d="M5994 3567 c-10 -28 0 -82 16 -82 11 0 15 12 15 44 0 44 -19 68 -31 38z"/>
<path d="M1574 3539 c-10 -17 13 -36 27 -22 12 12 4 33 -11 33 -5 0 -12 -5 -16 -11z"/>
<path d="M1796 3541 c-7 -10 32 -47 40 -38 7 7 -14 47 -26 47 -5 0 -11 -4 -14 -9z"/>
<path d="M8454 3399 c-10 -17 13 -36 27 -22 12 12 4 33 -11 33 -5 0 -12 -5 -16 -11z"/>
<path d="M1982 3358 c-7 -7 -12 -28 -12 -48 0 -47 15 -60 67 -60 37 0 45 -4 53 -24 22 -58 60 -37 60 33 0 55 -12 71 -55 71 -19 0 -39 8 -50 20 -20 23 -45 26 -63 8z"/>
<path d="M8620 3310 c0 -5 5 -10 10 -10 6 0 10 5 10 10 0 6 -4 10 -10 10 -5 0 -10 -4 -10 -10z"/>
<path d="M8454 3246 c-8 -22 3 -49 19 -43 6 2 12 14 12 27 0 27 -22 39 -31 16z"/>
<path d="M1520 3030 c0 -5 5 -10 10 -10 6 0 10 5 10 10 0 6 -4 10 -10 10 -5 0 -10 -4 -10 -10z"/>
<path d="M1445 2880 c-4 -6 -3 -16 3 -22 6 -6 12 -6 17 2 4 6 3 16 -3 22 -6 6 -12 6 -17 -2z"/>
<path d="M1514 2789 c-10 -17 13 -36 27 -22 12 12 4 33 -11 33 -5 0 -12 -5 -16 -11z"/>
<path d="M1650 2690 c0 -5 5 -10 10 -10 6 0 10 5 10 10 0 6 -4 10 -10 10 -5 0 -10 -4 -10 -10z"/>
<path d="M2716 2671 c-7 -11 22 -71 34 -71 18 0 19 18 4 49 -16 31 -28 39 -38 22z"/>
<path d="M3900 2450 c0 -5 5 -10 10 -10 6 0 10 5 10 10 0 6 -4 10 -10 10 -5 0 -10 -4 -10 -10z"/>
<path d="M3914 2409 c-10 -17 13 -36 27 -22 12 12 4 33 -11 33 -5 0 -12 -5 -16 -11z"/>
<path d="M3206 2401 c-8 -12 11 -61 22 -61 16 0 54 48 47 59 -8 13 -62 15 -69 2z"/>
<path d="M5364 2399 c-10 -17 13 -36 27 -22 12 12 4 33 -11 33 -5 0 -12 -5 -16 -11z"/>
<path d="M5100 2390 c0 -5 5 -10 10 -10 6 0 10 5 10 10 0 6 -4 10 -10 10 -5 0 -10 -4 -10 -10z"/>
<path d="M5880 2380 c0 -5 5 -10 10 -10 6 0 10 5 10 10 0 6 -4 10 -10 10 -5 0 -10 -4 -10 -10z"/>
<path d="M3295 2369 c-11 -17 16 -39 46 -39 29 0 47 16 33 30 -15 13 -73 20 -79 9z"/>
<path d="M5320 2370 c0 -5 5 -10 10 -10 6 0 10 5 10 10 0 6 -4 10 -10 10 -5 0 -10 -4 -10 -10z"/>
<path d="M1527 2352 c-34 -21 -61 -68 -45 -79 7 -3 18 3 26 15 8 12 24 22 37 22 25 0 60 34 50 49 -9 15 -35 12 -68 -7z"/>
<path d="M3120 2350 c0 -5 5 -10 10 -10 6 0 10 5 10 10 0 6 -4 10 -10 10 -5 0 -10 -4 -10 -10z"/>
<path d="M3400 2330 c0 -5 5 -10 10 -10 6 0 10 5 10 10 0 6 -4 10 -10 10 -5 0 -10 -4 -10 -10z"/>
<path d="M5455 2331 c-7 -12 12 -24 25 -16 11 7 4 25 -10 25 -5 0 -11 -4 -15 -9z"/>
<path d="M2940 2310 c0 -5 5 -10 10 -10 6 0 10 5 10 10 0 6 -4 10 -10 10 -5 0 -10 -4 -10 -10z"/>
<path d="M2840 2250 c0 -5 5 -10 10 -10 6 0 10 5 10 10 0 6 -4 10 -10 10 -5 0 -10 -4 -10 -10z"/>
<path d="M3457 2253 c-22 -21 -1 -55 41 -68 22 -6 23 -5 17 17 -8 24 -33 58 -45 58 -4 0 -10 -3 -13 -7z"/>
<path d="M975 2128 c-3 -7 -4 -272 -3 -588 3 -503 5 -575 18 -575 13 0 15 72 15 584 0 458 -3 585 -12 588 -7 3 -15 -1 -18 -9z"/>
<path d="M2594 1769 c-10 -17 13 -36 27 -22 12 12 4 33 -11 33 -5 0 -12 -5 -16 -11z"/>
<path d="M5080 1150 c0 -5 5 -10 10 -10 6 0 10 5 10 10 0 6 -4 10 -10 10 -5 0 -10 -4 -10 -10z"/>
<path d="M5195 1130 c-10 -11 -16 -22 -13 -25 9 -10 60 15 56 27 -7 20 -24 19 -43 -2z"/>
<path d="M4500 1010 c0 -5 5 -10 10 -10 6 0 10 5 10 10 0 6 -4 10 -10 10 -5 0 -10 -4 -10 -10z"/>
<path d="M11020 850 c0 -5 5 -10 10 -10 6 0 10 5 10 10 0 6 -4 10 -10 10 -5 0 -10 -4 -10 -10z"/>
<path d="M8600 831 c0 -13 27 -21 45 -15 25 10 17 24 -15 24 -16 0 -30 -4 -30 -9z"/>
<path d="M10920 830 c0 -5 9 -10 20 -10 11 0 20 5 20 10 0 6 -9 10 -20 10 -11 0 -20 -4 -20 -10z"/>
<path d="M8615 791 c-7 -12 12 -24 25 -16 11 7 4 25 -10 25 -5 0 -11 -4 -15 -9z"/>
<path d="M8704 779 c-3 -6 -2 -15 3 -20 5 -5 423 -8 1039 -7 907 3 1029 5 1029 18 0 13 -122 15 -1032 18 -737 1 -1034 -1 -1039 -9z"/>
<path d="M10860 770 c0 -5 5 -10 10 -10 6 0 10 5 10 10 0 6 -4 10 -10 10 -5 0 -10 -4 -10 -10z"/>
<path d="M11025 760 c-4 -7 -3 -16 3 -22 14 -14 47 -6 47 12 0 18 -40 26 -50 10z"/>
<path d="M1100 750 c0 -5 5 -10 10 -10 6 0 10 5 10 10 0 6 -4 10 -10 10 -5 0 -10 -4 -10 -10z"/>
<path d="M1140 750 c0 -5 5 -10 10 -10 6 0 10 5 10 10 0 6 -4 10 -10 10 -5 0 -10 -4 -10 -10z"/>
<path d="M5040 750 c0 -5 5 -10 10 -10 6 0 10 5 10 10 0 6 -4 10 -10 10 -5 0 -10 -4 -10 -10z"/>
<path d="M5105 720 c-12 -19 10 -32 51 -28 27 2 39 8 39 18 0 19 -79 27 -90 10z"/>
<path d="M5265 720 c-4 -7 -3 -16 3 -22 14 -14 47 -6 47 12 0 18 -40 26 -50 10z"/>
</g>
</g>
  <g id="id2:id2" transform="matrix(1.25,0,0,1.25,0.0,0.0)"><g transform="translate(0.000000,566.400000) scale(0.040000,-0.040000)" fill="#aa7cc8" stroke="none">
<path d="M10940 13746 c-13 -13 -184 -15 -1180 -17 -641 -1 -1173 -4 -1182 -7 -10 -2 -18 -9 -18 -14 0 -13 -56 -68 -68 -68 -13 0 -18 -26 -14 -68 3 -23 9 -32 21 -30 11 2 16 -4 16 -22 0 -17 -5 -24 -16 -22 -11 1 -18 -8 -23 -29 -8 -41 -6 -2175 3 -2302 5 -79 9 -100 24 -108 9 -6 17 -15 17 -22 1 -27 20 -41 54 -39 25 2 38 -3 49 -18 l15 -21 1133 1 c1066 0 1136 -1 1160 -17 65 -45 60 61 60 -1155 l0 -1103 -31 -27 c-16 -16 -38 -28 -48 -28 -10 0 -24 -6 -30 -12 -10 -10 -264 -14 -1173 -18 -1092 -5 -1161 -6 -1170 -22 -6 -10 -15 -18 -22 -18 -27 -1 -41 -20 -39 -54 2 -25 -3 -38 -18 -49 l-20 -14 0 -3772 0 -3773 20 -25 c11 -14 20 -33 20 -43 0 -27 49 -70 80 -70 15 0 40 -10 56 -22 l29 -23 2465 -2 2465 -3 25 19 c14 10 43 21 64 25 56 11 106 63 106 110 0 23 6 38 18 45 l17 10 0 6313 0 6313 -21 27 c-11 14 -26 44 -34 67 -8 25 -21 43 -34 47 -12 4 -28 14 -38 24 -15 16 -90 17 -1190 19 -1003 2 -1175 4 -1189 17 -23 21 -338 21 -359 0z m165 -106 c8 -13 -20 -24 -41 -16 -20 8 -9 26 16 26 10 0 22 -5 25 -10z m-7 -1218 l-3 -1125 -23 -2 c-17 -1 -26 5 -33 22 -5 14 -9 479 -9 1112 l0 1088 21 27 c50 64 49 93 47 -1122z m-38 -1179 c0 -9 11 -30 24 -47 13 -17 27 -46 30 -64 9 -38 14 -39 60 -11 l35 20 1131 -1 c771 0 1143 3 1170 10 36 10 44 8 77 -15 52 -35 71 -32 89 11 25 60 36 28 33 -92 -2 -60 -3 -635 -2 -1279 1 -643 2 -1228 1 -1300 -2 -168 -1 -2338 1 -2430 0 -38 -1 -622 -4 -1298 -3 -675 -2 -1255 2 -1290 5 -34 6 -80 2 -102 -6 -33 -4 -43 13 -56 13 -10 19 -24 17 -41 -2 -14 2 -32 9 -40 9 -12 12 -250 10 -1114 l-3 -1099 -27 -3 -27 -3 -3 -87 -3 -87 -115 -3 c-63 -1 -119 -7 -124 -12 -13 -13 -1903 -14 -1910 -1 -3 5 -29 9 -56 9 l-51 0 3 -27 c3 -24 0 -26 -35 -29 -32 -3 -39 0 -44 18 -5 17 -12 21 -38 18 -18 -1 -40 4 -49 11 -18 15 -102 9 -120 -9 -6 -6 -15 -5 -24 3 -12 9 -303 13 -1301 15 l-1286 2 -3 28 c-2 15 -10 31 -19 35 -13 8 -13 11 1 26 14 15 16 149 16 1230 1 1142 0 1214 -16 1226 -16 11 -17 17 -4 61 18 64 27 2267 10 2409 -14 118 -15 203 -2 295 7 49 11 473 11 1224 0 632 4 1153 8 1157 11 11 180 32 199 25 8 -3 518 -6 1133 -6 1043 -1 1121 0 1155 17 24 11 38 26 42 43 3 14 10 36 15 49 6 15 10 436 9 1148 0 1071 -2 1166 -27 1233 -4 8 -5 22 -4 32 1 9 -3 19 -9 23 -6 4 -8 20 -4 40 4 21 0 43 -10 63 -16 32 -21 74 -10 85 10 10 24 -2 24 -20z m-2255 -232 c7 -12 -12 -24 -25 -16 -11 7 -4 25 10 25 5 0 11 -4 15 -9z m4975 -35 c0 -25 -22 -51 -33 -39 -11 10 -8 48 5 61 15 15 28 6 28 -22z"/>
</g>
</g>
  <g id="id3:id3" transform="matrix(1.25,0,0,1.25,0.0,0.0)"><g transform="translate(0.000000,566.400000) scale(0.040000,-0.040000)" fill="#ffdc00" stroke="none">
<path d="M5780 13710 c0 -5 5 -10 10 -10 6 0 10 5 10 10 0 6 -4 10 -10 10 -5 0 -10 -4 -10 -10z"/>
<path d="M5922 13678 l-23 -23 -1237 -2 c-762 -2 -1245 -6 -1257 -12 -11 -6 -29 -11 -40 -13 -16 -3 -19 -10 -17 -33 1 -17 6 -37 9 -45 11 -25 10 -64 0 -78 -7 -9 -6 -17 1 -24 9 -9 12 -155 12 -545 0 -465 -2 -534 -15 -539 -13 -5 -15 -81 -15 -594 0 -332 -4 -591 -9 -594 -5 -3 -13 0 -19 7 -6 8 -12 412 -17 1127 -3 613 -8 1136 -11 1162 -3 37 2 57 21 92 26 46 24 56 -10 56 -11 0 -27 6 -33 13 -13 12 -57 13 -1785 19 -545 3 -657 1 -657 -10 0 -8 -8 -16 -17 -18 -17 -5 -18 -72 -18 -1242 l0 -1237 -18 -3 c-12 -3 -20 4 -24 17 -11 43 -23 19 -23 -48 0 -60 2 -69 20 -74 14 -3 20 -14 20 -31 0 -14 5 -26 10 -26 6 0 10 22 10 49 0 28 4 52 9 56 13 7 41 -52 34 -71 -3 -9 2 -14 17 -14 16 0 20 4 16 15 -3 9 1 18 9 20 8 3 23 7 32 10 9 3 264 6 567 5 446 0 551 -2 557 -13 7 -11 115 -13 586 -11 319 1 645 7 728 14 l149 11 19 -25 c23 -33 54 -34 59 -3 2 18 8 21 33 19 17 -2 34 -8 40 -13 13 -13 2142 -12 2150 1 3 6 25 10 49 10 23 0 47 5 54 12 9 9 15 9 24 0 17 -17 25 -15 31 8 3 11 12 20 21 20 18 0 21 15 6 25 -7 4 -10 430 -10 1245 0 815 3 1241 10 1245 16 10 12 22 -10 28 -21 5 -28 41 -10 52 12 7 13 25 2 25 -4 0 -18 -10 -30 -22z"/>
<path d="M8480 13520 c0 -11 5 -20 10 -20 6 0 10 9 10 20 0 11 -4 20 -10 20 -5 0 -10 -9 -10 -20z"/>
<path d="M6020 11110 c0 -5 5 -10 10 -10 6 0 10 5 10 10 0 6 -4 10 -10 10 -5 0 -10 -4 -10 -10z"/>
<path d="M5980 11045 c0 -8 5 -15 10 -15 6 0 10 7 10 15 0 8 -4 15 -10 15 -5 0 -10 -7 -10 -15z"/>
<path d="M880 10990 c0 -7 197 -10 570 -10 373 0 570 3 570 10 0 7 -197 10 -570 10 -373 0 -570 -3 -570 -10z"/>
<path d="M5860 10990 c0 -5 9 -10 20 -10 11 0 20 5 20 10 0 6 -9 10 -20 10 -11 0 -20 -4 -20 -10z"/>
<path d="M800 10950 c0 -16 5 -30 10 -30 6 0 10 14 10 30 0 17 -4 30 -10 30 -5 0 -10 -13 -10 -30z"/>
<path d="M5760 10970 c0 -5 9 -10 20 -10 11 0 20 5 20 10 0 6 -9 10 -20 10 -11 0 -20 -4 -20 -10z"/>
</g>
</g>
  <g id="id4:id4" transform="matrix(1.25,0,0,1.25,0.0,0.0)"><g transform="translate(0.000000,566.400000) scale(0.040000,-0.040000)" fill="#5a3287" stroke="none">
<path d="M8720 13730 c0 -6 27 -10 63 -10 44 0 58 3 47 10 -20 13 -110 13 -110 0z"/>
<path d="M10900 13730 c0 -5 18 -10 41 -10 24 0 38 4 34 10 -3 6 -22 10 -41 10 -19 0 -34 -4 -34 -10z"/>
<path d="M11275 13730 c-4 -6 7 -10 24 -10 17 0 31 5 31 10 0 6 -11 10 -24 10 -14 0 -28 -4 -31 -10z"/>
<path d="M13490 13730 c0 -5 11 -10 25 -10 14 0 25 5 25 10 0 6 -11 10 -25 10 -14 0 -25 -4 -25 -10z"/>
<path d="M11080 13679 l-35 -19 -1217 0 c-805 0 -1218 -3 -1218 -10 0 -7 400 -10 1179 -10 710 0 1182 -4 1186 -9 3 -5 19 -12 35 -16 40 -9 46 -22 21 -49 l-22 -23 1 -1116 c0 -614 3 -1123 6 -1130 2 -7 0 -35 -6 -61 -8 -38 -7 -52 6 -78 13 -25 14 -36 5 -51 -15 -23 -11 -27 25 -31 l29 -3 0 -84 c0 -46 3 -91 8 -99 10 -21 4 -2239 -7 -2267 -6 -18 -5 -23 8 -23 9 0 16 8 16 18 0 10 4 22 9 27 5 6 11 18 13 29 2 16 14 19 72 22 42 1 86 -3 110 -12 34 -11 226 -14 1181 -14 1008 0 1140 1 1148 15 11 20 34 19 46 -2 5 -10 13 -14 18 -10 4 5 11 522 14 1150 3 769 9 1154 16 1179 12 42 7 182 -8 209 -5 11 -9 464 -9 1142 0 1083 -3 1277 -21 1277 -5 0 -10 -543 -11 -1207 l-3 -1208 -24 -39 -24 -39 -18 22 -17 21 -1198 0 -1198 0 -22 -21 c-12 -12 -27 -18 -33 -14 -8 4 -11 360 -11 1200 0 877 -3 1201 -11 1219 -21 45 0 56 107 56 51 0 96 4 99 10 4 7 380 10 1095 10 715 0 1091 -3 1095 -10 13 -21 125 -2 125 22 0 4 -555 9 -1233 10 -875 2 -1238 6 -1248 14 -27 21 -44 21 -79 3z m14 -2460 c-3 -5 -10 -7 -15 -3 -5 3 -7 10 -3 15 3 5 10 7 15 3 5 -3 7 -10 3 -15z"/>
<path d="M8540 12355 c0 -837 3 -1265 10 -1265 7 0 10 428 10 1265 0 837 -3 1265 -10 1265 -7 0 -10 -428 -10 -1265z"/>
<path d="M8460 12360 c0 -760 3 -1150 10 -1150 7 0 10 390 10 1150 0 760 -3 1150 -10 1150 -7 0 -10 -390 -10 -1150z"/>
<path d="M8645 11070 c-4 -6 12 -10 40 -10 28 0 44 4 40 10 -3 6 -21 10 -40 10 -19 0 -37 -4 -40 -10z"/>
<path d="M8500 11050 c0 -5 5 -10 10 -10 6 0 10 5 10 10 0 6 -4 10 -10 10 -5 0 -10 -4 -10 -10z"/>
<path d="M13700 8605 c0 -35 4 -45 16 -45 12 0 15 6 10 23 -3 12 -6 32 -6 45 0 12 -4 22 -10 22 -5 0 -10 -20 -10 -45z"/>
<path d="M11030 8559 c-33 -17 -101 -18 -1225 -18 -654 0 -1205 -3 -1222 -7 -53 -11 -57 -23 -65 -193 -4 -114 -10 -2395 -6 -2581 0 -14 0 -594 -1 -1289 -1 -892 2 -1268 9 -1275 8 -8 11 2 10 34 -1 25 5 63 13 85 20 53 49 58 86 15 33 -40 82 -40 91 0 l6 25 497 3 c317 1 497 6 497 12 0 6 -211 11 -587 12 l-588 3 -3 1267 -2 1267 30 21 c17 12 29 29 28 38 -4 20 38 30 55 13 16 -16 28 -13 25 7 -3 16 60 17 1162 23 641 3 1177 9 1192 13 l27 8 1 1176 c0 1016 2 1180 15 1205 20 40 19 54 -6 67 -19 11 -19 13 -5 29 17 18 21 47 9 54 -5 2 -24 -5 -43 -14z"/>
<path d="M8460 8475 c0 -8 5 -15 10 -15 6 0 10 7 10 15 0 8 -4 15 -10 15 -5 0 -10 -7 -10 -15z"/>
<path d="M13700 8380 c0 -33 4 -60 10 -60 6 0 10 27 10 60 0 33 -4 60 -10 60 -6 0 -10 -27 -10 -60z"/>
<path d="M13700 6095 c0 -19 5 -35 10 -35 6 0 10 16 10 35 0 19 -4 35 -10 35 -5 0 -10 -16 -10 -35z"/>
<path d="M8420 5965 c0 -25 5 -45 10 -45 6 0 10 20 10 45 0 25 -4 45 -10 45 -5 0 -10 -20 -10 -45z"/>
<path d="M13705 6002 c-11 -2 -24 -10 -28 -18 -7 -12 -194 -14 -1205 -14 -658 0 -1226 -3 -1262 -6 -60 -6 -66 -9 -82 -38 l-16 -31 41 -40 42 -40 -5 -1149 c-5 -1062 -4 -1152 12 -1170 l16 -21 1184 -5 1183 -5 -2 -22 c-2 -19 2 -23 28 -23 20 0 40 -10 60 -29 31 -32 36 -50 17 -69 -14 -14 -4 -27 15 -19 23 9 28 69 17 184 -15 145 -9 2412 7 2464 12 43 6 57 -22 51z"/>
<path d="M8420 3410 c0 -22 5 -40 10 -40 6 0 10 18 10 40 0 22 -4 40 -10 40 -5 0 -10 -18 -10 -40z"/>
<path d="M13760 900 c0 -11 5 -20 10 -20 6 0 10 9 10 20 0 11 -4 20 -10 20 -5 0 -10 -9 -10 -20z"/>
<path d="M13462 829 c3 -8 33 -14 82 -16 61 -3 77 -1 74 9 -3 9 -30 14 -82 16 -58 2 -77 0 -74 -9z"/>
<path d="M13680 830 c0 -5 5 -10 10 -10 6 0 10 5 10 10 0 6 -4 10 -10 10 -5 0 -10 -4 -10 -10z"/>
<path d="M11000 811 c-21 -6 -17 -9 31 -18 57 -12 106 -6 111 12 4 12 -106 17 -142 6z"/>
<path d="M11160 811 c0 -6 5 -13 10 -16 15 -9 71 5 64 16 -7 12 -74 12 -74 0z"/>
<path d="M8590 750 c0 -5 9 -10 20 -10 11 0 20 5 20 10 0 6 -9 10 -20 10 -11 0 -20 -4 -20 -10z"/>
<path d="M13610 750 c0 -5 9 -10 20 -10 11 0 20 5 20 10 0 6 -9 10 -20 10 -11 0 -20 -4 -20 -10z"/>
</g>
</g>
  <g id="id5:id5" transform="matrix(1.25,0,0,1.25,0.0,0.0)"><g transform="translate(0.000000,566.400000) scale(0.040000,-0.040000)" fill="#3ca51e" stroke="none">
<path d="M11025 13750 c-33 -4 -574 -8 -1202 -9 -1281 -1 -1222 2 -1295 -70 -70 -71 -67 -16 -68 -1320 l0 -1164 23 -75 c19 -65 27 -78 62 -102 71 -49 107 -50 1273 -50 645 0 1082 -4 1087 -9 6 -5 24 -11 40 -13 23 -2 31 -9 33 -28 2 -14 10 -32 18 -41 12 -13 14 -178 11 -1092 l-2 -1076 -30 -31 c-16 -18 -38 -36 -48 -41 -11 -6 -433 -10 -1125 -10 -1160 1 -1173 0 -1263 -43 -37 -17 -69 -66 -85 -131 -7 -28 -27 -2280 -22 -2525 2 -136 2 -2335 -1 -2495 -5 -326 16 -2513 25 -2535 45 -112 63 -129 159 -154 31 -7 1809 -26 2505 -25 830 0 2473 17 2502 26 78 23 112 47 138 99 l25 49 8 1225 c4 674 6 1279 5 1345 -3 99 -4 1844 -2 2465 0 96 0 681 0 1300 -1 619 -1 1202 -1 1295 1 94 0 663 0 1265 0 602 1 1149 3 1215 3 111 -5 1764 -11 2325 l-2 245 -26 55 c-16 33 -38 62 -55 71 -76 44 -53 43 -1314 50 -663 4 -1227 9 -1255 12 -27 3 -77 1 -110 -3z m2662 -121 c11 -10 13 -440 13 -2540 0 -1674 3 -2530 10 -2534 6 -3 10 -28 10 -55 0 -27 -4 -52 -10 -55 -7 -4 -10 -410 -10 -1185 0 -775 3 -1181 10 -1185 6 -3 10 -19 10 -35 0 -16 -4 -32 -10 -35 -7 -4 -10 -437 -10 -1266 l0 -1259 -20 -12 c-27 -17 -27 -64 0 -71 16 -4 20 -14 20 -50 0 -36 4 -46 20 -50 14 -4 20 -14 20 -34 0 -16 5 -34 10 -39 7 -7 9 -385 8 -1114 l-3 -1104 -25 -6 c-24 -6 -25 -10 -30 -90 l-5 -85 -115 -3 c-63 -1 -119 -7 -124 -12 -6 -6 -363 -10 -959 -10 l-949 0 -5 20 c-4 17 -14 20 -55 20 l-50 0 4 -38 3 -37 -38 -3 c-32 -3 -39 0 -44 18 -5 18 -12 21 -40 18 -29 -4 -36 0 -44 19 -6 17 -16 23 -38 23 -16 0 -32 -4 -36 -9 -6 -11 -39 -8 -78 8 l-29 11 7 48 c6 38 12 1991 6 2257 0 39 2 102 5 140 9 110 10 109 -177 95 -106 -8 -499 -10 -1274 -8 l-1120 3 -3 1259 c-1 857 -5 1263 -13 1272 -7 8 -7 14 1 19 15 9 14 2487 -1 2502 -7 7 -7 17 -1 29 6 11 13 27 16 37 4 14 17 17 70 17 36 0 68 5 71 10 3 6 21 10 40 10 19 0 37 -4 40 -10 10 -16 2253 -14 2288 3 20 9 27 19 27 42 0 17 5 36 10 41 6 6 11 48 12 94 0 47 5 92 11 102 8 12 8 23 -1 40 -10 18 -12 242 -8 1043 3 561 8 1054 11 1095 6 67 4 78 -13 94 -16 14 -25 15 -40 7 -40 -21 -479 -31 -1466 -31 -845 -1 -1012 1 -1023 13 -12 11 -14 211 -13 1246 0 858 -3 1238 -10 1252 -9 15 -7 25 8 47 l20 27 2548 -3 c1849 -2 2551 -5 2561 -13z m-5167 -109 c0 -26 -15 -33 -30 -15 -10 12 -10 18 0 30 15 18 30 11 30 -15z m285 -2509 c7 -12 -12 -24 -25 -16 -11 7 -4 25 10 25 5 0 11 -4 15 -9z m4975 -35 c0 -25 -22 -51 -33 -39 -11 10 -8 48 5 61 15 15 28 6 28 -22z m-5158 -7643 c11 -23 21 -29 55 -31 39 -3 42 -1 45 25 l3 28 1043 3 c988 2 1044 1 1048 -15 7 -25 50 -43 99 -43 23 0 56 -7 73 -16 29 -14 32 -20 32 -64 0 -27 5 -52 10 -55 7 -4 7 -12 0 -25 -13 -24 -13 -77 0 -85 7 -4 10 -368 10 -1059 l0 -1054 20 -5 c15 -4 20 -14 20 -36 0 -27 -6 -33 -45 -51 -25 -11 -50 -18 -56 -15 -5 4 -16 2 -23 -4 -10 -8 -343 -11 -1191 -11 -840 0 -1181 -3 -1191 -11 -20 -16 -34 -2 -34 36 0 21 -6 35 -16 39 -16 6 -16 8 0 24 15 17 16 120 16 1200 0 776 3 1183 10 1187 6 3 10 16 10 29 0 45 42 51 62 9z"/>
<path d="M11060 11252 c0 -53 11 -82 32 -82 12 0 10 68 -2 75 -5 3 -10 19 -10 36 0 16 -4 29 -10 29 -6 0 -10 -26 -10 -58z"/>
<path d="M861 13720 c-13 -11 -36 -20 -52 -20 -44 0 -37 -28 9 -35 20 -4 46 -11 57 -16 15 -7 1637 -19 2460 -18 22 0 602 2 1289 5 1112 4 1252 6 1267 20 28 25 30 51 3 69 -21 13 -284 15 -2516 15 l-2493 -1 -24 -19z m4949 -15 c10 -12 9 -16 -4 -21 -9 -3 -23 -3 -32 0 -13 5 -14 9 -4 21 7 8 16 15 20 15 4 0 13 -7 20 -15z"/>
<path d="M5960 13685 c0 -8 5 -15 10 -15 6 0 10 7 10 15 0 8 -4 15 -10 15 -5 0 -10 -7 -10 -15z"/>
<path d="M745 13650 c-3 -6 -3 -19 0 -31 4 -12 1 -28 -7 -37 -7 -9 -19 -27 -25 -39 -10 -18 -13 -532 -13 -2470 0 -1347 0 -3032 0 -3745 0 -859 3 -1299 10 -1303 5 -3 10 -15 10 -27 0 -13 5 -18 14 -15 24 10 38 -15 19 -35 -16 -17 -16 -20 0 -35 16 -16 18 -16 31 2 13 17 15 185 16 1254 0 678 2 1236 5 1240 2 4 21 6 42 3 21 -3 580 -6 1243 -9 898 -2 1211 -1 1227 8 12 6 29 9 37 6 14 -5 16 -139 18 -1224 l3 -1218 -19 -17 c-12 -12 -34 -18 -67 -18 -26 0 -51 -4 -54 -10 -8 -13 -52 -13 -60 0 -8 13 -82 13 -90 0 -5 -8 -11 -7 -21 1 -11 9 -18 9 -26 1 -15 -15 -65 -16 -73 -2 -9 14 -1942 13 -1950 0 -8 -13 -52 -13 -60 0 -3 6 -37 10 -75 10 -65 0 -89 -8 -73 -24 4 -4 8 -17 8 -29 0 -19 6 -22 50 -25 27 -2 54 -7 60 -12 14 -12 2152 -13 2159 -2 3 5 -6 14 -20 21 -14 6 -22 16 -19 21 8 13 52 13 60 0 3 -5 17 -10 30 -10 13 0 27 5 30 10 15 24 124 -10 114 -35 -4 -11 -18 -11 -86 -3 -48 6 -78 -6 -44 -17 11 -3 30 -3 41 0 15 5 22 0 30 -19 5 -14 18 -30 29 -36 l21 -11 0 -1143 c0 -629 2 -1151 6 -1160 4 -9 13 -15 20 -12 16 6 28 -10 14 -19 -16 -10 -11 -48 9 -75 18 -22 21 -23 45 -10 29 15 40 9 41 -21 l0 -21 1258 1 c692 0 1262 3 1268 7 6 3 8 12 5 20 -7 19 22 30 37 15 6 -6 14 -11 18 -11 13 0 19 33 8 46 -9 11 -8 18 1 29 7 8 16 12 21 9 5 -3 12 3 15 13 3 10 10 26 15 35 5 11 9 975 9 2471 0 2234 -1 2457 -16 2486 -19 38 -22 37 -26 -12 -4 -53 -22 -50 -26 4 -2 32 2 50 13 59 17 14 20 46 4 55 -6 4 -16 -1 -24 -11 -11 -15 -16 -16 -26 -7 -10 10 -9 16 4 31 9 10 17 22 17 25 0 11 -35 8 -47 -4 -15 -15 -44 -4 -37 14 13 35 -48 37 -1195 37 -796 0 -1128 -3 -1143 -11 -16 -9 -24 -7 -37 5 -15 15 -14 17 7 22 25 7 29 19 8 27 -8 3 -20 -1 -27 -9 -18 -22 -34 -1 -18 23 19 31 -8 115 -36 111 l-20 -3 -3 990 c-1 545 0 996 3 1004 4 11 8 11 20 1 22 -18 31 -3 12 18 -18 20 -14 34 8 26 18 -7 26 22 10 36 -19 16 -4 55 21 55 11 0 19 7 19 17 0 9 3 20 7 23 4 4 505 7 1113 6 722 -1 1105 1 1105 8 0 6 -363 10 -1041 11 -573 0 -1046 3 -1051 6 -4 3 -6 9 -3 14 3 5 1 11 -5 15 -6 4 -8 11 -5 16 4 5 419 9 1056 9 693 0 1049 3 1049 10 0 7 -356 10 -1047 10 l-1048 0 -25 -20 c-14 -11 -30 -20 -37 -20 -6 0 -29 -10 -51 -21 -23 -13 -48 -19 -58 -15 -29 11 21 56 63 56 18 0 33 5 33 10 0 6 -30 10 -67 11 -38 0 -86 3 -108 7 -38 7 -40 9 -43 45 -2 21 2 45 9 53 9 11 10 261 4 1112 -7 1149 -9 1247 -20 1281 -7 23 -13 25 -34 12 -12 -8 -12 -12 -2 -25 10 -12 9 -17 -8 -26 -29 -15 -28 -58 2 -62 l22 -3 3 -1130 c1 -621 0 -1136 -3 -1144 -4 -11 -8 -11 -20 -1 -13 11 -15 92 -15 596 0 383 -3 584 -10 584 -7 0 -10 -205 -10 -594 0 -386 4 -597 10 -601 16 -10 12 -71 -7 -86 -13 -12 -216 -15 -1192 -20 -647 -3 -1191 -9 -1209 -14 -23 -5 -32 -12 -28 -22 3 -8 6 -17 6 -19 0 -2 258 -4 574 -4 373 0 577 -4 581 -10 4 -7 236 -10 664 -10 l658 0 21 -23 c12 -13 22 -32 22 -43 0 -12 2 -23 5 -26 10 -10 8 -2335 -2 -2352 -9 -16 -103 -17 -1287 -17 -702 0 -1281 3 -1287 6 -5 4 -9 470 -9 1219 0 1070 2 1218 15 1250 14 34 14 40 0 68 -13 28 -15 174 -15 1264 0 687 -4 1235 -9 1238 -4 3 -11 23 -15 45 -6 41 -20 59 -31 41z m20 -190 c-5 -8 -11 -8 -17 -2 -6 6 -7 16 -3 22 5 8 11 8 17 2 6 -6 7 -16 3 -22z m-5 -2295 c0 -13 5 -27 10 -30 15 -9 12 -158 -3 -179 -13 -17 -14 -17 -30 8 -21 32 -21 42 1 56 l17 10 -17 10 c-14 8 -18 24 -18 66 0 58 14 99 31 89 5 -4 9 -17 9 -30z m-2 -417 c0 -29 1 -55 2 -58 5 -12 6 -1906 1 -1915 -3 -5 -6 -16 -6 -22 0 -7 -4 -12 -10 -10 -7 1 -10 336 -11 977 0 536 -4 983 -9 994 -5 11 -3 26 4 38 6 10 9 23 6 28 -4 6 -3 15 0 20 13 21 22 -1 23 -52z m2712 -2058 c0 -46 -11 -56 -34 -31 -16 18 -16 21 -1 50 20 40 35 31 35 -19z m-2690 -56 c0 -68 -14 -91 -30 -49 -11 29 -14 118 -3 128 17 18 33 -19 33 -79z m2717 -20 c8 -21 -13 -42 -28 -27 -13 13 -5 43 11 43 6 0 13 -7 17 -16z m2322 -27 c14 -18 4 -27 -29 -27 -15 0 -30 3 -33 7 -10 10 13 33 33 33 10 0 23 -6 29 -13z m-271 -7 c7 -5 81 -2 91 5 7 4 17 3 23 -3 6 -6 16 -8 23 -6 16 7 29 -12 15 -21 -5 -3 -16 -3 -22 1 -18 11 -48 12 -54 2 -6 -10 -61 -11 -67 0 -3 4 -416 7 -919 6 -502 0 -916 1 -921 4 -4 2 -5 6 -3 10 3 6 1826 8 1834 2z m-4790 -119 c2 -18 1 -40 -3 -49 -5 -13 -8 -14 -19 -1 -16 16 -28 74 -19 83 17 16 38 -1 41 -33z m2 -135 c-15 -15 -34 9 -26 31 l7 18 15 -19 c9 -13 11 -23 4 -30z m5261 -1119 c1 -625 -1 -1140 -4 -1144 -24 -23 -27 109 -27 1166 0 615 3 1121 7 1125 4 3 10 3 14 -1 4 -5 9 -520 10 -1146z m-5253 -13 c-2 -701 -6 -1064 -13 -1064 -11 0 -20 2114 -9 2131 3 5 10 7 15 4 5 -4 8 -420 7 -1071z m5282 -1215 c0 -15 -30 -23 -42 -11 -6 6 -8 18 -4 27 4 13 10 14 26 5 11 -6 20 -15 20 -21z m-4960 -94 c10 -12 9 -16 -4 -21 -9 -3 -23 -3 -32 0 -13 5 -14 9 -4 21 7 8 16 15 20 15 4 0 13 -7 20 -15z m1759 2 c6 -8 8 -17 4 -20 -8 -9 -1718 -9 -1726 0 -4 3 -2 12 4 20 17 20 1701 20 1718 0z m121 -2 c10 -12 9 -16 -4 -21 -9 -3 -23 -3 -32 0 -13 5 -14 9 -4 21 7 8 16 15 20 15 4 0 13 -7 20 -15z m3060 -131 c0 -29 -3 -55 -7 -57 -5 -3 -6 -502 -3 -1109 3 -606 3 -1107 2 -1111 -2 -4 -10 -3 -18 4 -12 10 -14 183 -14 1179 0 642 3 1170 7 1174 15 15 33 -30 33 -80z m-2705 -1119 c0 -738 -3 -1114 -10 -1112 -5 1 -12 18 -14 37 -7 53 -12 2183 -6 2199 4 11 8 12 18 2 9 -9 12 -264 12 -1126z"/>
<path d="M5990 13645 c-6 -8 -9 -19 -5 -25 3 -5 -1 -13 -9 -16 -15 -6 -16 -130 -16 -1263 l0 -1256 -20 -3 c-26 -4 -26 -19 1 -27 13 -4 27 -1 38 9 16 14 17 29 13 116 -2 54 -2 107 2 116 13 34 24 -1 28 -83 2 -46 6 -83 10 -83 26 0 28 86 28 1232 l0 1193 -20 25 c-11 14 -20 37 -20 53 0 30 -11 35 -30 12z m29 -181 c-1 -63 1 -117 4 -121 4 -3 7 -455 7 -1003 0 -822 -2 -1000 -13 -1009 -8 -6 -17 -8 -21 -4 -8 8 -8 2248 1 2256 18 18 24 -17 22 -119z"/>
<path d="M5945 13640 c-3 -5 1 -10 10 -10 9 0 13 5 10 10 -3 6 -8 10 -10 10 -2 0 -7 -4 -10 -10z"/>
<path d="M5838 11043 c-48 -3 -58 -7 -58 -22 0 -17 37 -41 62 -41 6 0 17 8 24 18 l14 17 14 -17 c17 -23 38 -23 53 1 11 17 9 22 -19 35 -17 9 -32 15 -32 14 -1 -1 -27 -3 -58 -5z"/>
</g>
</g>
  <g id="id6:id6" transform="matrix(1.25,0,0,1.25,0.0,0.0)"><g transform="translate(0.000000,566.400000) scale(0.040000,-0.040000)" fill="#91beeb" stroke="none">
<path d="M3360 13710 c0 -5 5 -10 10 -10 6 0 10 5 10 10 0 6 -4 10 -10 10 -5 0 -10 -4 -10 -10z"/>
<path d="M8724 13699 c-10 -17 13 -36 27 -22 12 12 4 33 -11 33 -5 0 -12 -5 -16 -11z"/>
<path d="M10924 13699 c-10 -17 13 -36 27 -22 12 12 4 33 -11 33 -5 0 -12 -5 -16 -11z"/>
<path d="M11060 13690 c0 -5 5 -10 10 -10 6 0 10 5 10 10 0 6 -4 10 -10 10 -5 0 -10 -4 -10 -10z"/>
<path d="M8493 13558 c-5 -13 -6 -561 -3 -1218 4 -1053 7 -1195 20 -1195 13 0 15 142 15 1214 0 959 -3 1215 -12 1218 -7 3 -16 -6 -20 -19z"/>
<path d="M13740 11250 c0 -5 5 -10 10 -10 6 0 10 5 10 10 0 6 -4 10 -10 10 -5 0 -10 -4 -10 -10z"/>
<path d="M13757 11174 c-4 -4 -7 -44 -7 -89 0 -44 -5 -86 -11 -92 -13 -13 -8 -85 8 -90 6 -2 19 11 28 30 12 26 15 58 13 137 -3 95 -11 123 -31 104z"/>
<path d="M740 11120 c0 -11 5 -20 10 -20 6 0 10 9 10 20 0 11 -4 20 -10 20 -5 0 -10 -9 -10 -20z"/>
<path d="M8900 11030 c0 -5 5 -10 10 -10 6 0 10 5 10 10 0 6 -4 10 -10 10 -5 0 -10 -4 -10 -10z"/>
<path d="M8644 11019 c-3 -6 -2 -15 2 -19 14 -14 172 -16 185 -3 23 23 -3 33 -91 33 -53 0 -92 -4 -96 -11z"/>
<path d="M11034 10879 c-10 -17 13 -36 27 -22 12 12 4 33 -11 33 -5 0 -12 -5 -16 -11z"/>
<path d="M11054 10809 c-10 -17 13 -36 27 -22 12 12 4 33 -11 33 -5 0 -12 -5 -16 -11z"/>
<path d="M11060 8790 c0 -5 5 -10 10 -10 6 0 10 5 10 10 0 6 -4 10 -10 10 -5 0 -10 -4 -10 -10z"/>
<path d="M8684 8579 c-3 -6 -2 -15 3 -20 5 -5 416 -8 1019 -7 889 3 1009 5 1009 18 0 13 -120 15 -1012 18 -723 1 -1014 -1 -1019 -9z"/>
<path d="M10780 8570 c0 -5 5 -10 10 -10 6 0 10 5 10 10 0 6 -4 10 -10 10 -5 0 -10 -4 -10 -10z"/>
<path d="M13754 8567 c-11 -29 0 -102 16 -102 19 0 22 106 3 112 -7 3 -16 -2 -19 -10z"/>
<path d="M13700 8500 c0 -27 5 -50 10 -50 6 0 10 23 10 50 0 28 -4 50 -10 50 -5 0 -10 -22 -10 -50z"/>
<path d="M13754 6046 c-8 -22 3 -49 19 -43 6 2 12 14 12 27 0 27 -22 39 -31 16z"/>
<path d="M1550 3563 c-8 -2 -24 -8 -35 -13 -11 -4 -40 -13 -65 -20 -25 -7 -59 -20 -76 -31 -17 -10 -39 -19 -49 -19 -9 0 -49 -26 -88 -57 -40 -32 -81 -63 -92 -69 -11 -7 -19 -19 -19 -27 1 -9 -20 -37 -47 -62 -30 -28 -49 -55 -49 -68 0 -13 -9 -30 -20 -40 -15 -13 -19 -24 -14 -43 5 -18 0 -34 -14 -53 -14 -19 -23 -52 -28 -100 -3 -39 -12 -75 -18 -79 -7 -4 -17 -22 -22 -41 -7 -26 -21 -41 -56 -60 -25 -14 -69 -47 -97 -73 l-50 -46 2 -124 c3 -118 5 -127 33 -171 19 -32 38 -49 56 -53 42 -10 118 -90 118 -124 0 -16 4 -32 10 -35 6 -4 10 -217 10 -607 0 -397 4 -624 11 -667 25 -147 67 -175 263 -176 170 0 212 18 267 115 12 21 15 144 19 702 l5 678 37 37 38 37 91 1 c75 0 92 3 100 18 6 10 22 17 40 17 42 0 85 27 102 64 65 138 71 170 37 221 -11 17 -20 42 -20 58 0 15 -8 34 -17 42 -72 63 -76 65 -122 65 -75 0 -174 19 -201 39 -14 10 -33 32 -43 49 -16 28 -17 34 -3 59 15 30 74 89 116 117 13 9 45 16 70 16 25 0 54 7 64 15 11 8 27 15 35 15 33 0 117 52 139 86 20 31 27 35 60 32 31 -2 38 -7 40 -28 2 -13 12 -35 23 -48 l19 -24 0 -1083 c0 -596 3 -1105 7 -1132 10 -74 74 -155 126 -159 17 -1 58 -6 90 -10 34 -4 94 -2 148 6 83 11 95 15 125 46 19 18 34 43 34 55 0 11 11 34 25 51 l25 30 0 498 c0 431 2 499 15 510 8 7 18 30 21 51 4 21 13 44 20 50 8 6 14 21 14 33 0 29 177 206 206 206 12 0 27 6 33 14 7 8 37 18 66 21 30 4 60 13 66 21 7 9 32 14 69 14 45 0 61 -4 76 -21 12 -13 26 -18 39 -15 36 9 125 -95 125 -147 0 -16 6 -38 12 -50 10 -17 14 -168 18 -622 l5 -600 27 -45 c38 -63 77 -102 95 -96 8 4 45 1 81 -5 50 -7 94 -7 170 2 98 12 105 15 133 46 34 40 36 52 9 86 l-20 25 2 659 3 658 27 13 c24 11 26 16 18 38 -6 14 -10 40 -10 57 0 18 -9 52 -20 76 -11 24 -20 54 -20 67 0 13 -9 32 -20 41 -11 10 -20 27 -20 38 0 11 -12 32 -27 46 -16 14 -46 47 -68 73 -47 57 -136 126 -163 126 -10 0 -27 9 -36 19 -12 13 -38 22 -75 27 -31 3 -64 14 -75 23 -25 22 -363 24 -390 2 -10 -8 -42 -18 -71 -22 -30 -4 -68 -17 -84 -28 -16 -12 -39 -21 -52 -21 -12 0 -32 -9 -44 -20 -18 -17 -29 -18 -85 -12 l-65 7 -5 315 c-4 273 -7 319 -22 345 -10 17 -20 41 -23 55 -6 31 -70 80 -103 80 -14 0 -34 8 -45 18 -28 25 -181 25 -218 -1 -15 -10 -43 -19 -63 -20 -19 -2 -37 -5 -39 -8 -2 -2 -19 -28 -37 -56 l-33 -53 -53 0 c-48 0 -55 3 -77 33 -14 17 -27 41 -31 52 -4 13 -29 31 -65 48 -55 25 -68 27 -187 26 -71 0 -136 -3 -144 -6z m324 -97 l29 -1 -1 -144 c-1 -115 -5 -148 -17 -160 -12 -12 -41 -15 -133 -16 -105 0 -120 -2 -149 -23 -17 -12 -35 -22 -40 -22 -16 0 -92 -83 -118 -129 -14 -23 -25 -54 -25 -68 0 -13 -4 -32 -9 -41 -12 -24 -23 -155 -13 -169 4 -7 21 -13 37 -14 43 -2 335 11 366 17 17 3 31 -2 44 -16 16 -18 18 -37 18 -162 l-1 -141 -193 2 c-106 1 -201 7 -211 12 -23 12 -58 -9 -59 -36 0 -11 -2 -355 -3 -765 -2 -410 -5 -758 -8 -774 l-5 -29 -167 0 c-131 0 -170 3 -179 14 -9 11 -11 197 -7 789 3 426 1 780 -3 785 -5 6 -59 10 -123 10 l-115 0 -1 136 c-1 121 1 139 18 157 17 18 25 19 79 11 32 -6 80 -9 105 -7 l45 3 -2 90 c-2 66 4 121 22 205 29 132 36 148 87 211 21 25 38 50 38 56 0 23 180 160 220 169 14 3 41 14 61 24 19 11 44 17 55 14 10 -2 60 2 109 10 55 9 115 13 155 9 36 -4 78 -7 94 -7z m698 -317 c0 -167 -4 -413 -8 -546 l-7 -243 21 0 c12 0 29 12 39 26 38 55 209 230 238 242 16 7 39 21 50 31 11 10 38 24 60 31 22 7 48 17 58 22 68 34 460 34 527 -1 19 -10 47 -21 63 -25 35 -8 110 -65 164 -123 50 -55 123 -197 123 -242 0 -10 7 -31 15 -48 12 -25 15 -136 15 -751 1 -397 -1 -726 -4 -730 -2 -4 -33 -5 -68 -2 -35 3 -108 3 -163 0 -55 -4 -104 -3 -108 0 -4 4 -8 297 -7 652 l0 645 -20 48 c-11 25 -20 56 -20 68 0 12 -9 33 -20 47 -11 14 -20 29 -20 35 0 16 -83 95 -100 95 -9 0 -20 3 -24 7 -28 28 -244 48 -279 26 -20 -13 -81 -33 -102 -33 -11 0 -31 -9 -45 -20 -14 -11 -29 -20 -33 -20 -16 0 -98 -62 -147 -110 -77 -78 -126 -158 -168 -275 -24 -68 -31 -230 -31 -678 0 -503 0 -504 -49 -492 -33 8 -258 8 -272 0 -5 -3 -23 6 -38 22 l-28 28 12 60 c20 93 20 2413 0 2477 -12 42 -12 48 5 65 17 16 36 18 195 17 l178 -1 -2 -304z m-518 182 c10 -11 30 -21 44 -23 28 -3 39 -26 28 -55 -6 -14 -8 -14 -24 0 -9 9 -37 17 -62 19 -38 3 -45 6 -48 26 -8 52 28 70 62 33z m1191 -940 c7 -12 -12 -24 -25 -16 -11 7 -4 25 10 25 5 0 11 -4 15 -9z m-1661 -40 c8 -13 -21 -34 -39 -28 -8 4 -17 2 -20 -4 -4 -5 -11 -7 -16 -3 -5 3 -7 10 -3 15 3 5 9 7 14 4 4 -3 13 2 20 10 14 17 36 20 44 6z m1908 -143 c-16 -16 -37 4 -28 28 6 16 8 16 23 1 13 -13 15 -19 5 -29z"/>
<path d="M13754 3527 c-10 -28 0 -82 16 -82 11 0 15 12 15 44 0 44 -19 68 -31 38z"/>
<path d="M9225 3370 l-500 -5 -13 -27 c-18 -39 -66 -39 -84 -1 -23 48 -78 38 -78 -13 0 -12 -4 -26 -10 -29 -7 -4 -10 -411 -10 -1187 0 -1085 -1 -1183 -17 -1200 -15 -17 -15 -19 0 -36 10 -10 17 -28 17 -39 0 -11 6 -26 14 -33 12 -9 21 -7 45 11 25 19 34 20 61 10 56 -19 2449 -14 2469 5 3 2 -1 10 -7 16 -7 7 -12 35 -12 63 0 28 -4 55 -10 61 -5 5 -11 430 -13 1109 -3 757 -7 1117 -15 1155 -14 66 -43 95 -104 105 -40 6 -69 15 -110 36 -18 9 -699 9 -1623 -1z"/>
<path d="M5035 2835 c-22 -8 -70 -18 -108 -21 -47 -5 -76 -14 -99 -30 -20 -15 -46 -24 -69 -24 -29 0 -38 -4 -42 -21 -5 -18 -11 -20 -36 -14 -27 6 -32 3 -40 -18 -6 -16 -23 -29 -48 -38 -51 -16 -313 -272 -313 -305 0 -13 -9 -28 -21 -34 -13 -7 -19 -19 -17 -33 2 -18 10 -22 43 -23 22 0 49 -4 59 -9 15 -6 18 -5 14 6 -3 8 -9 22 -13 31 -4 11 0 20 13 27 11 6 31 30 46 55 28 47 120 136 141 136 8 0 23 14 35 30 12 17 30 30 40 30 10 0 20 7 23 15 4 8 22 21 40 29 19 8 38 19 41 25 4 6 17 11 30 11 13 0 30 8 40 19 11 12 30 18 57 18 24 0 51 8 67 19 29 21 105 29 287 29 219 -1 289 -6 314 -26 13 -11 38 -19 55 -19 17 0 46 -9 64 -20 18 -11 37 -20 43 -20 6 0 22 -9 36 -20 14 -11 37 -20 50 -20 16 0 27 -7 30 -20 3 -11 14 -20 24 -20 10 0 25 -10 33 -22 13 -18 18 -19 30 -8 13 10 17 10 21 -2 3 -8 5 -21 3 -29 -2 -9 6 -14 22 -14 22 -1 25 -4 22 -35 -5 -42 -18 -61 -38 -53 -12 4 -14 -1 -12 -23 2 -24 -1 -30 -21 -32 -20 -3 -23 -8 -18 -37 6 -38 0 -50 -20 -33 -20 16 -28 3 -24 -41 3 -45 -9 -57 -39 -39 -16 10 -24 10 -40 0 -26 -16 -46 -6 -30 13 18 21 1 38 -30 31 -33 -6 -44 2 -29 21 14 17 -5 43 -32 43 -10 0 -21 5 -24 10 -3 6 -15 10 -27 10 -11 0 -22 8 -25 20 -4 15 -14 20 -42 20 -20 0 -47 9 -61 20 -23 18 -42 20 -198 20 -164 0 -176 -1 -205 -22 -18 -13 -43 -21 -57 -20 -15 2 -32 -4 -39 -12 -7 -9 -37 -27 -67 -42 -35 -17 -54 -33 -54 -44 0 -21 -17 -36 -45 -42 -11 -2 -26 -16 -33 -31 -7 -15 -20 -27 -28 -27 -7 0 -14 -9 -14 -19 0 -11 -9 -26 -19 -33 -11 -8 -23 -27 -26 -43 -4 -17 -13 -35 -21 -41 -21 -17 -54 -198 -54 -296 0 -88 25 -217 56 -285 8 -17 14 -34 14 -38 0 -4 12 -27 28 -51 18 -29 36 -46 54 -50 33 -8 45 -21 50 -53 2 -16 16 -31 41 -44 20 -10 37 -23 37 -27 0 -5 12 -15 28 -22 15 -8 36 -19 47 -25 85 -45 107 -53 147 -53 25 0 59 -7 77 -16 35 -18 142 -15 177 5 11 5 49 13 86 16 39 4 72 12 79 21 6 8 24 14 39 14 15 0 38 8 51 17 24 18 54 36 94 57 39 21 73 52 77 72 3 16 12 19 58 19 52 0 55 -1 52 -24 -2 -19 2 -22 18 -18 22 6 37 -8 20 -18 -16 -10 -12 -42 6 -49 8 -3 13 -9 11 -13 -3 -5 -1 -18 4 -31 6 -17 15 -22 31 -20 21 3 23 -1 25 -46 2 -54 -10 -78 -34 -69 -10 4 -14 0 -13 -13 4 -32 1 -37 -15 -24 -13 11 -20 9 -43 -13 -16 -15 -33 -27 -39 -27 -6 0 -13 -9 -16 -20 -3 -13 -14 -20 -30 -20 -13 0 -30 -7 -37 -15 -16 -20 -117 -65 -145 -65 -13 0 -25 -6 -28 -14 -3 -8 -35 -17 -86 -24 -45 -5 -88 -15 -96 -22 -11 -9 -64 -13 -183 -13 -137 1 -174 4 -207 18 -22 10 -64 18 -93 18 -41 0 -55 4 -63 18 -6 12 -21 19 -38 19 -30 0 -120 42 -136 63 -6 8 -21 14 -35 13 -19 -1 -26 5 -28 22 -2 14 -10 22 -22 22 -11 0 -24 9 -30 20 -6 11 -16 20 -21 20 -13 0 -122 97 -128 113 -2 6 -19 30 -37 54 -18 23 -36 53 -40 65 -4 12 -17 30 -30 41 -18 14 -22 24 -18 47 5 22 2 31 -15 39 -12 7 -21 19 -21 29 -1 26 -26 67 -34 54 -3 -6 -2 -13 4 -17 20 -13 11 -64 -15 -81 -14 -9 -25 -25 -25 -36 0 -10 11 -29 25 -42 14 -13 25 -32 25 -43 0 -11 7 -26 16 -34 8 -7 22 -26 31 -43 37 -71 206 -251 228 -242 7 2 34 -18 61 -45 37 -38 53 -47 70 -43 16 4 26 0 34 -15 7 -14 21 -21 39 -21 15 0 36 -9 45 -19 11 -12 38 -22 69 -26 29 -4 63 -14 77 -23 23 -15 194 -35 290 -35 104 1 315 24 329 37 9 7 37 17 63 20 26 4 58 16 72 27 19 15 34 19 55 14 25 -5 33 -2 46 19 11 16 27 26 41 26 15 0 36 13 54 33 16 19 36 34 44 34 19 0 85 58 115 103 21 30 25 48 26 124 l2 89 -28 24 c-15 14 -25 31 -22 38 2 8 -14 30 -36 50 -23 21 -41 43 -41 50 0 17 -20 22 -97 24 -48 1 -76 -5 -123 -25 -33 -15 -60 -33 -60 -40 0 -15 -30 -33 -46 -27 -6 2 -19 -6 -29 -17 -10 -11 -29 -20 -43 -20 -14 0 -34 -8 -44 -17 -11 -10 -42 -18 -76 -21 -31 -2 -61 -8 -67 -12 -5 -4 -39 -10 -73 -14 -48 -5 -69 -4 -86 7 -12 8 -46 18 -76 22 -58 7 -130 36 -150 61 -7 7 -21 14 -32 14 -17 0 -141 121 -144 141 -1 5 -2 16 -3 24 0 8 -9 22 -20 32 -10 10 -22 34 -26 53 -4 19 -14 47 -21 62 -20 38 -20 309 0 346 7 15 26 53 41 84 15 31 33 62 41 69 8 6 14 19 14 28 0 24 67 84 117 105 23 10 44 25 47 32 3 8 16 14 29 14 14 0 36 9 50 20 24 19 41 21 186 22 146 0 164 -2 202 -22 23 -12 51 -19 62 -16 13 3 21 -1 24 -15 3 -11 17 -22 32 -25 14 -3 33 -9 41 -15 8 -5 26 -14 40 -20 14 -6 43 -20 66 -30 55 -25 77 -24 112 6 17 14 37 25 45 25 21 0 107 102 107 127 0 11 8 28 19 37 11 10 21 37 25 66 6 42 2 56 -24 107 -17 32 -45 70 -63 85 -18 15 -40 35 -50 43 -9 8 -20 14 -25 14 -22 -4 -33 4 -42 27 -9 22 -14 25 -41 19 -25 -6 -31 -4 -36 14 -4 16 -13 21 -41 21 -19 0 -54 11 -76 24 -26 15 -64 25 -104 29 -34 3 -70 11 -79 19 -25 20 -335 23 -388 3z m-531 -1856 c-3 -5 -10 -7 -15 -3 -5 3 -7 10 -3 15 3 5 10 7 15 3 5 -3 7 -10 3 -15z"/>
<path d="M4215 1970 c-4 -6 -10 -8 -15 -5 -5 3 -11 1 -14 -4 -11 -16 12 -22 34 -9 11 7 20 16 20 20 0 12 -18 10 -25 -2z"/>
<path d="M4180 1575 c0 -8 4 -15 9 -15 5 0 11 7 15 15 3 9 0 15 -9 15 -8 0 -15 -7 -15 -15z"/>
<path d="M4200 1531 c0 -13 29 -35 37 -28 7 8 -15 37 -28 37 -5 0 -9 -4 -9 -9z"/>
</g>
</g>
  <g id="id7:id7" transform="matrix(1.25,0,0,1.25,0.0,0.0)"><g transform="translate(0.000000,566.400000) scale(0.040000,-0.040000)" fill="#a5e100" stroke="none">
<path d="M3260 13762 c-19 -2 -41 -9 -49 -15 -10 -9 -317 -13 -1200 -17 l-1187 -5 -30 -25 c-16 -13 -41 -40 -54 -60 l-25 -35 -5 -1201 c-4 -1048 -7 -1203 -20 -1219 -20 -24 -16 -210 5 -252 13 -24 15 -181 15 -1148 0 -1023 -2 -1123 -17 -1150 -13 -23 -16 -53 -14 -134 1 -59 7 -113 14 -125 9 -16 13 -309 17 -1212 l5 -1191 30 -44 c35 -52 43 -59 70 -59 12 0 38 -9 60 -20 l39 -20 1129 0 c1064 1 1130 0 1158 -17 17 -10 39 -32 50 -49 l19 -31 0 -1128 0 -1128 21 -46 c12 -25 26 -57 32 -70 8 -16 30 -30 66 -42 29 -10 60 -24 69 -31 12 -10 260 -13 1212 -13 l1198 0 21 19 c12 11 38 22 58 25 33 5 40 12 70 71 l33 65 0 1170 c0 1092 1 1172 17 1195 24 34 26 237 3 265 -13 16 -16 170 -20 1205 -5 1113 -6 1189 -22 1207 -10 11 -18 24 -18 29 0 5 -15 25 -32 44 l-32 35 -1160 3 c-976 2 -1163 5 -1176 17 -8 7 -26 15 -40 17 -35 5 -46 13 -67 51 -17 30 -18 87 -21 997 -2 531 0 1011 3 1068 7 96 9 106 39 145 l32 42 1100 5 c968 4 1099 7 1099 20 0 11 -13 16 -50 18 -27 1 -60 8 -73 14 -18 9 -28 9 -42 0 -25 -16 -1825 -18 -1835 -2 -3 6 -25 10 -47 10 -24 0 -49 7 -60 16 -14 14 -20 14 -33 4 -8 -7 -21 -10 -30 -7 -8 4 -17 2 -20 -3 -10 -16 -73 -42 -85 -35 -21 13 31 56 64 53 17 -2 31 2 33 10 4 9 -15 12 -71 12 -63 0 -80 -4 -96 -20 -11 -11 -21 -23 -22 -27 -2 -5 -7 -6 -13 -3 -5 3 -311 7 -680 10 l-670 5 -3 23 -3 22 -556 0 c-513 0 -557 -1 -568 -17 -11 -14 -15 -15 -28 -4 -9 7 -20 10 -25 7 -6 -3 -17 5 -26 19 -14 22 -16 141 -16 1253 0 812 -3 1231 -10 1238 -7 7 0 24 21 51 28 36 35 40 56 32 14 -5 501 -9 1177 -9 859 0 1155 -3 1164 -12 8 -8 15 -8 26 2 13 10 17 9 22 -4 3 -9 12 -16 19 -16 22 0 25 -15 9 -44 -12 -24 -14 -122 -14 -617 0 -381 4 -590 10 -594 6 -4 10 -210 10 -584 l0 -578 19 -17 c11 -10 25 -15 30 -11 8 4 11 190 11 595 0 511 2 590 15 597 13 8 15 81 16 541 1 411 -1 535 -11 547 -8 10 -9 19 -3 28 8 10 11 66 3 75 -1 1 -2 13 -3 26 -1 16 9 33 25 45 l26 21 1225 0 c727 0 1236 4 1250 9 21 8 28 5 46 -19 l21 -29 0 -1255 c0 -1169 -1 -1257 -17 -1275 -13 -15 -20 -18 -30 -9 -9 7 -17 7 -25 0 -7 -5 -34 -13 -60 -17 -53 -8 -70 -36 -41 -67 22 -25 91 -25 89 -1 -1 14 7 17 40 14 26 -1 46 3 53 11 48 59 61 79 61 96 0 12 5 24 10 27 7 4 10 426 10 1234 l0 1228 -37 49 c-21 27 -48 59 -62 71 l-23 23 -1181 0 c-1053 0 -1184 2 -1211 16 -30 15 -190 24 -276 16z m-2500 -2602 c0 -10 5 -22 10 -25 6 -3 9 -38 8 -76 -2 -78 -17 -104 -45 -77 -17 18 -10 38 13 38 18 0 18 16 0 23 -17 7 -29 116 -14 134 13 16 28 7 28 -17z m2685 -2490 c-5 -8 -11 -8 -17 -2 -6 6 -7 16 -3 22 5 8 11 8 17 2 6 -6 7 -16 3 -22z m1257 -147 l1228 -3 20 -46 21 -46 -1 -1227 c-1 -674 -1 -1791 -1 -2481 0 -690 -2 -1266 -6 -1280 -3 -14 -13 -33 -21 -42 -14 -17 -88 -18 -1289 -18 l-1273 0 -10 25 c-6 16 -10 503 -10 1271 -1 1129 1 1248 15 1264 15 16 16 130 14 1211 0 657 -4 1219 -8 1249 l-6 55 -45 -4 c-25 -2 -581 -5 -1235 -7 -992 -3 -1194 -2 -1210 9 -10 8 -15 19 -11 25 5 9 324 12 1255 12 l1249 0 17 26 c14 23 21 25 48 18 18 -4 584 -9 1259 -11z m-3942 -68 c0 -19 -4 -36 -9 -39 -13 -8 -32 19 -26 38 3 9 7 23 10 32 8 26 25 5 25 -31z m5264 -2486 c-3 -5 -10 -7 -15 -3 -5 3 -7 10 -3 15 3 5 10 7 15 3 5 -3 7 -10 3 -15z m-2776 -85 c18 -8 34 -20 37 -25 11 -17 -26 -22 -44 -5 -10 9 -29 16 -44 16 -26 0 -42 12 -30 24 11 11 49 7 81 -10z"/>
<path d="M3320 11110 c0 -5 5 -10 10 -10 6 0 10 5 10 10 0 6 -4 10 -10 10 -5 0 -10 -4 -10 -10z"/>
</g>
</g>
</svg>
