<?xml version="1.0" standalone="no"?>
<!DOCTYPE svg PUBLIC "-//W3C//DTD SVG 1.1//EN"
 "http://www.w3.org/Graphics/SVG/1.1/DTD/svg11.dtd">
<!-- Created with svg_stack (http://github.com/astraw/svg_stack) -->
<svg xmlns:sodipodi="http://sodipodi.sourceforge.net/DTD/sodipodi-0.dtd" xmlns="http://www.w3.org/2000/svg" version="1.1" width="496.0" height="370.0">
  <defs/>
  <g id="id0:id0" transform="matrix(1.25,0,0,1.25,0.0,0.0)"><g transform="translate(0.000000,296.000000) scale(0.040000,-0.040000)" fill="#130c06" stroke="none">
<path d="M4270 6185 c-8 -9 -10 -27 -6 -47 14 -67 12 -83 -9 -83 -31 0 -33 -43 -2 -54 14 -6 28 -15 32 -20 14 -24 34 -8 50 42 9 28 22 58 27 65 8 9 8 19 0 35 -6 12 -13 34 -16 50 -5 22 -12 27 -35 27 -16 0 -34 -7 -41 -15z"/>
<path d="M2900 5830 c0 -5 5 -10 10 -10 6 0 10 5 10 10 0 6 -4 10 -10 10 -5 0 -10 -4 -10 -10z"/>
<path d="M4440 5830 c0 -5 5 -10 10 -10 6 0 10 5 10 10 0 6 -4 10 -10 10 -5 0 -10 -4 -10 -10z"/>
<path d="M4340 5704 c-19 -7 -45 -11 -56 -9 -23 5 -34 -10 -34 -45 0 -10 -11 -32 -25 -48 -14 -17 -25 -32 -25 -35 0 -8 86 -16 109 -10 18 5 22 12 19 36 -3 27 1 32 28 39 37 9 50 23 59 61 6 24 4 27 -16 26 -13 -1 -40 -7 -59 -15z"/>
<path d="M4474 5639 c-10 -17 13 -36 27 -22 12 12 4 33 -11 33 -5 0 -12 -5 -16 -11z"/>
<path d="M4994 5639 c-10 -17 13 -36 27 -22 12 12 4 33 -11 33 -5 0 -12 -5 -16 -11z"/>
<path d="M4537 5604 c-10 -11 37 -84 55 -84 15 0 8 30 -14 60 -22 30 -30 35 -41 24z"/>
<path d="M4783 5550 c-13 -5 -23 -12 -23 -15 0 -3 16 -22 35 -42 19 -20 35 -41 35 -48 0 -17 54 -65 73 -65 23 0 21 13 -3 35 -11 10 -17 21 -15 26 3 4 1 10 -5 14 -5 3 -10 16 -10 29 0 12 -13 34 -28 49 -31 30 -28 29 -59 17z"/>
<path d="M4967 5510 c-19 -36 -6 -47 28 -24 28 18 30 25 13 42 -18 18 -25 15 -41 -18z"/>
<path d="M4454 5519 c-10 -17 13 -36 27 -22 12 12 4 33 -11 33 -5 0 -12 -5 -16 -11z"/>
<path d="M4160 5489 c0 -4 5 -11 10 -14 14 -9 2 -25 -14 -19 -26 10 -25 -25 1 -46 33 -26 57 -10 51 32 -3 16 -1 31 4 34 17 11 7 21 -22 21 -16 0 -30 -4 -30 -8z"/>
<path d="M4720 5490 c0 -5 5 -10 10 -10 6 0 10 5 10 10 0 6 -4 10 -10 10 -5 0 -10 -4 -10 -10z"/>
<path d="M5275 5421 c-7 -12 12 -24 25 -16 11 7 4 25 -10 25 -5 0 -11 -4 -15 -9z"/>
<path d="M6463 5423 c-34 -7 -46 -26 -32 -56 21 -46 83 -50 124 -7 27 28 28 31 13 47 -17 16 -65 24 -105 16z"/>
<path d="M4734 5409 c-10 -17 13 -36 27 -22 12 12 4 33 -11 33 -5 0 -12 -5 -16 -11z"/>
<path d="M3993 5403 c-27 -10 -12 -38 30 -57 23 -10 49 -22 58 -26 40 -20 50 37 13 74 -15 15 -74 21 -101 9z"/>
<path d="M5270 5365 c-9 -11 -10 -18 -1 -29 6 -7 9 -20 5 -29 -12 -32 19 -29 53 6 36 36 37 63 2 54 -10 -3 -22 -1 -25 4 -8 13 -20 11 -34 -6z"/>
<path d="M4153 5343 c-3 -8 3 -20 13 -27 15 -12 17 -29 17 -135 -1 -81 -5 -126 -13 -136 -10 -12 -10 -18 0 -30 7 -8 18 -15 25 -15 7 0 18 -7 25 -15 7 -8 16 -12 21 -9 5 3 9 85 9 184 0 160 -2 179 -17 186 -32 13 -74 12 -80 -3z"/>
<path d="M5911 5304 c-16 -20 -18 -30 -10 -52 6 -14 8 -36 4 -49 -8 -32 -4 -38 28 -39 18 -1 31 4 34 15 12 34 56 71 76 65 16 -5 19 -3 13 11 -9 24 3 39 19 25 24 -20 36 -2 19 26 -13 19 -20 22 -30 13 -7 -6 -18 -8 -24 -4 -6 4 -18 1 -26 -6 -11 -9 -18 -8 -32 5 -26 23 -47 20 -71 -10z"/>
<path d="M5082 5307 c2 -8 -10 -25 -27 -39 l-30 -26 21 -24 c12 -12 24 -31 27 -41 4 -9 19 -22 33 -27 22 -9 31 -7 49 10 12 11 24 18 27 15 3 -3 11 2 18 10 22 26 -4 43 -30 20 -15 -14 -23 -16 -32 -7 -9 9 -7 16 5 30 10 11 15 26 12 35 -4 8 -1 18 4 22 6 3 9 11 5 16 -4 6 -11 6 -20 -2 -11 -9 -18 -8 -32 5 -22 19 -34 21 -30 3z"/>
<path d="M4120 5240 c0 -11 5 -20 10 -20 6 0 10 9 10 20 0 11 -4 20 -10 20 -5 0 -10 -9 -10 -20z"/>
<path d="M5180 5132 c0 -14 49 -56 57 -49 3 4 -4 18 -17 32 -24 25 -40 32 -40 17z"/>
<path d="M4100 5070 c-35 -21 -103 -49 -150 -61 -50 -13 -61 -27 -37 -48 10 -8 17 -7 25 1 9 9 16 7 30 -5 26 -24 35 -21 30 8 -6 30 36 65 55 46 31 -31 98 1 89 44 -5 26 -17 30 -42 15z"/>
<path d="M5230 5045 c-7 -9 -21 -13 -31 -10 -9 3 -20 1 -24 -5 -9 -14 10 -37 44 -53 14 -6 35 -26 46 -42 21 -33 81 -70 90 -55 7 12 -10 48 -46 95 -16 22 -34 50 -39 63 -11 26 -23 28 -40 7z"/>
<path d="M5000 4950 c0 -5 5 -10 10 -10 6 0 10 5 10 10 0 6 -4 10 -10 10 -5 0 -10 -4 -10 -10z"/>
<path d="M3720 4910 c0 -5 5 -10 10 -10 6 0 10 5 10 10 0 6 -4 10 -10 10 -5 0 -10 -4 -10 -10z"/>
<path d="M5090 4905 c-22 -26 4 -43 30 -20 11 10 20 22 20 27 0 14 -37 9 -50 -7z"/>
<path d="M5160 4910 c0 -5 5 -10 10 -10 6 0 10 5 10 10 0 6 -4 10 -10 10 -5 0 -10 -4 -10 -10z"/>
<path d="M5130 4860 c-13 -9 -13 -11 0 -20 18 -11 39 5 24 20 -6 6 -15 6 -24 0z"/>
<path d="M4716 4809 c-20 -16 -27 -18 -31 -7 -3 8 -22 14 -45 15 -34 2 -40 -1 -40 -18 0 -10 7 -19 15 -19 19 0 91 -87 87 -106 -4 -18 14 -19 21 -1 3 8 16 13 29 12 18 -1 24 -8 26 -33 6 -55 22 -35 22 26 0 50 -4 62 -25 82 -16 15 -23 30 -20 41 9 27 -10 31 -39 8z"/>
<path d="M4480 4715 l-25 -27 35 -31 c34 -30 42 -65 20 -92 -5 -5 -8 -27 -7 -47 1 -38 -24 -78 -49 -78 -31 0 -31 -93 -1 -98 20 -4 80 45 72 58 -3 4 2 13 9 19 8 7 17 8 20 3 3 -6 -1 -15 -9 -22 -8 -7 -13 -16 -10 -20 2 -4 -4 -15 -15 -25 -21 -19 -26 -50 -10 -60 19 -12 -2 -26 -32 -23 -24 2 -32 -2 -39 -19 -17 -47 47 -74 105 -43 20 10 31 10 71 -5 l46 -18 39 38 c38 37 77 44 64 10 -8 -20 9 -19 28 3 10 12 13 33 10 70 -4 57 -10 62 -37 32 -10 -11 -24 -20 -31 -20 -7 0 -28 -18 -45 -40 l-33 -41 -24 24 c-14 15 -24 37 -25 57 -2 38 21 54 30 21 3 -12 9 -21 14 -21 11 0 12 37 1 44 -5 3 -9 41 -11 86 -1 69 1 81 16 87 28 9 63 45 63 62 0 9 -15 23 -33 32 -23 12 -32 23 -32 41 0 25 -30 68 -47 68 -5 0 -8 -6 -6 -14 2 -8 -1 -15 -7 -15 -5 -1 -10 5 -10 12 0 7 -16 13 -40 15 -33 2 -45 -2 -65 -23z"/>
<path d="M3720 4422 c0 -20 33 -56 42 -47 3 3 13 -4 23 -15 16 -18 16 -22 4 -37 -25 -30 -54 -92 -46 -99 3 -4 13 -1 22 6 12 10 18 10 30 0 9 -7 18 -10 22 -7 3 4 15 2 25 -4 16 -8 24 -7 36 4 13 14 13 20 1 48 -7 18 -26 48 -42 66 -24 28 -26 34 -13 39 26 10 19 21 -27 43 -54 26 -77 27 -77 3z"/>
<path d="M4660 4410 c0 -5 5 -10 10 -10 6 0 10 5 10 10 0 6 -4 10 -10 10 -5 0 -10 -4 -10 -10z"/>
<path d="M4020 4316 c0 -12 30 -58 58 -90 39 -45 86 -50 104 -12 15 35 3 59 -27 54 -16 -3 -30 1 -41 13 -10 11 -27 19 -40 19 -13 0 -26 5 -29 10 -6 10 -25 14 -25 6z"/>
<path d="M3020 4223 c0 -32 -7 -44 -47 -81 -39 -37 -73 -82 -73 -98 0 -9 37 -3 47 7 15 15 44 4 38 -14 -7 -16 20 -43 65 -65 l35 -17 -3 -50 c-4 -56 -24 -85 -59 -85 -28 0 -29 -12 -5 -52 15 -27 16 -31 1 -41 -9 -7 -19 -25 -23 -40 l-7 -28 38 6 c62 11 67 13 53 30 -10 12 -9 16 5 21 11 5 15 14 11 28 -3 12 3 31 14 46 l19 25 15 -36 c22 -52 53 -59 69 -16 13 36 51 14 66 -40 6 -20 13 -27 27 -25 10 1 30 4 44 5 38 4 52 16 44 39 -3 11 -7 26 -8 32 -1 6 -5 17 -9 23 -11 17 12 58 25 45 7 -7 6 -16 -1 -30 -8 -15 -6 -23 13 -41 27 -25 30 -61 10 -100 -20 -37 -17 -50 10 -62 36 -17 71 -4 102 36 28 38 29 33 -6 107 -7 14 -10 30 -6 36 6 11 -23 92 -34 92 -17 0 -18 -31 -4 -65 17 -42 13 -52 -18 -50 -19 1 -22 8 -23 41 -1 39 -22 84 -39 84 -5 0 -17 -7 -27 -16 -24 -21 -43 -10 -26 16 10 17 8 22 -11 36 -13 9 -21 22 -18 30 3 8 -6 26 -19 40 -14 15 -25 32 -25 39 0 6 -11 22 -25 35 -25 24 -26 57 -2 88 7 9 3 20 -13 37 -13 14 -28 25 -33 25 -6 0 -18 7 -28 16 -15 13 -23 14 -52 3 -30 -11 -39 -10 -61 4 -37 25 -46 21 -46 -20z m295 -282 c7 -12 -12 -24 -25 -16 -11 7 -4 25 10 25 5 0 11 -4 15 -9z m-1 -102 c-3 -5 -10 -7 -15 -3 -5 3 -7 10 -3 15 3 5 10 7 15 3 5 -3 7 -10 3 -15z m-40 -50 c-3 -5 -10 -7 -15 -3 -5 3 -7 10 -3 15 3 5 10 7 15 3 5 -3 7 -10 3 -15z m69 -9 c-7 -27 -22 -35 -29 -16 -7 18 13 49 26 41 5 -3 6 -14 3 -25z"/>
<path d="M3320 4198 c0 -7 20 -32 45 -56 24 -23 47 -51 50 -62 9 -28 18 -25 39 11 12 20 22 27 28 21 6 -6 2 -22 -11 -43 -26 -42 -26 -67 -1 -97 l19 -22 41 21 c41 22 65 51 52 64 -4 4 -7 16 -7 28 0 15 -6 22 -20 22 -31 0 -25 37 8 53 34 17 44 37 26 58 -11 13 -18 9 -54 -32 l-42 -47 -14 29 c-8 16 -30 37 -49 46 -41 21 -110 24 -110 6z"/>
<path d="M3640 4190 c0 -5 5 -10 10 -10 6 0 10 5 10 10 0 6 -4 10 -10 10 -5 0 -10 -4 -10 -10z"/>
<path d="M2733 4164 c-8 -21 13 -42 28 -27 13 13 5 43 -11 43 -6 0 -13 -7 -17 -16z"/>
<path d="M2555 4140 c-3 -5 -25 -15 -48 -21 -23 -6 -58 -19 -77 -27 -19 -9 -47 -15 -63 -14 -25 2 -27 0 -21 -25 4 -16 11 -33 16 -40 15 -18 0 -37 -18 -22 -8 6 -14 17 -14 23 0 6 -4 17 -9 25 -7 11 -16 8 -45 -14 -28 -21 -48 -28 -89 -29 -32 -1 -65 -9 -80 -19 -33 -21 -44 -6 -27 37 12 33 13 56 0 76 -7 12 -12 12 -28 -4 -17 -15 -22 -15 -29 -3 -13 23 -50 27 -68 7 -15 -17 -15 -21 4 -56 26 -48 26 -81 1 -119 -11 -16 -20 -35 -20 -42 0 -12 63 -44 112 -56 15 -4 35 -22 47 -41 34 -54 75 -61 133 -21 31 21 38 22 48 10 6 -8 9 -19 5 -25 -4 -6 -1 -17 5 -25 7 -8 9 -15 5 -15 -5 0 0 -9 10 -20 12 -13 15 -27 11 -44 -7 -28 10 -44 27 -27 6 6 21 11 33 11 17 0 25 10 37 45 8 25 11 48 6 51 -10 5 -37 61 -41 84 -2 8 4 15 12 15 8 0 21 4 27 8 8 5 26 -2 46 -17 34 -26 57 -85 57 -149 0 -38 22 -73 38 -63 15 9 16 112 2 121 -5 3 -10 18 -10 33 0 15 -14 55 -32 89 -26 52 -29 64 -19 77 17 20 31 12 24 -14 -4 -17 0 -20 25 -20 34 0 42 13 42 73 0 23 7 64 15 90 12 39 12 53 2 70 -19 35 -40 46 -52 27z m-161 -201 c-3 -5 -10 -7 -15 -3 -5 3 -7 10 -3 15 3 5 10 7 15 3 5 -3 7 -10 3 -15z"/>
<path d="M2822 4073 c2 -17 10 -29 21 -31 15 -3 18 2 15 25 -2 17 -10 29 -21 31 -15 3 -18 -2 -15 -25z"/>
<path d="M2714 4054 c-8 -29 0 -152 10 -162 14 -14 26 26 26 90 0 69 -6 98 -21 98 -5 0 -12 -12 -15 -26z"/>
<path d="M9060 4070 c0 -5 9 -10 20 -10 11 0 20 5 20 10 0 6 -9 10 -20 10 -11 0 -20 -4 -20 -10z"/>
<path d="M9388 4063 c-23 -27 -28 -51 -18 -78 13 -33 31 -31 53 6 20 36 22 60 5 77 -16 16 -22 15 -40 -5z"/>
<path d="M9000 4046 c0 -7 -7 -19 -16 -26 -22 -19 -15 -75 9 -74 11 1 32 -17 55 -47 20 -27 40 -49 44 -49 15 0 17 18 3 30 -8 7 -13 16 -10 20 3 5 1 12 -5 15 -6 4 -8 15 -5 25 3 10 1 21 -4 25 -6 3 -8 19 -5 34 5 25 2 31 -27 45 -39 19 -39 19 -39 2z"/>
<path d="M9216 4024 c-3 -9 -6 -29 -6 -45 0 -17 -4 -39 -10 -49 -15 -28 12 -46 34 -21 10 11 25 17 37 14 25 -7 25 18 0 41 -10 9 -21 30 -25 47 -6 32 -20 38 -30 13z"/>
<path d="M3420 3940 c0 -11 5 -20 10 -20 6 0 10 9 10 20 0 11 -4 20 -10 20 -5 0 -10 -9 -10 -20z"/>
<path d="M2860 3851 c0 -12 29 -23 41 -15 18 10 9 24 -16 24 -14 0 -25 -4 -25 -9z"/>
<path d="M8002 3835 c4 -16 0 -29 -10 -34 -32 -18 25 -121 68 -121 25 0 34 29 15 50 -14 16 -14 19 9 34 15 9 27 12 31 6 3 -6 19 -10 36 -10 26 0 29 3 29 30 0 27 -3 30 -30 30 -16 0 -45 9 -65 20 -20 11 -47 20 -61 20 -23 0 -26 -4 -22 -25z"/>
<path d="M2796 3833 c-9 -21 14 -45 32 -34 12 7 12 12 1 30 -17 25 -25 27 -33 4z"/>
<path d="M3936 3832 c-2 -4 -7 -23 -11 -42 -6 -31 -3 -38 24 -58 17 -12 37 -22 44 -22 22 0 77 61 77 84 0 26 -20 56 -26 40 -3 -6 -11 -20 -19 -30 l-15 -19 -23 28 c-22 27 -41 34 -51 19z"/>
<path d="M8466 3814 c-15 -22 -16 -28 -5 -35 40 -26 89 -17 89 16 0 10 -55 48 -64 45 -1 0 -9 -12 -20 -26z"/>
<path d="M8660 3815 c0 -14 5 -25 10 -25 6 0 10 11 10 25 0 14 -4 25 -10 25 -5 0 -10 -11 -10 -25z"/>
<path d="M8596 3781 c-4 -5 -2 -12 3 -15 5 -4 12 -2 15 3 4 5 2 12 -3 15 -5 4 -12 2 -15 -3z"/>
<path d="M2927 3742 c-10 -10 -17 -22 -17 -27 0 -5 -8 -17 -17 -27 -15 -17 -15 -20 -1 -34 14 -14 18 -13 41 10 40 40 51 64 36 82 -15 18 -22 18 -42 -4z"/>
<path d="M8636 3744 c-5 -12 -15 -14 -52 -8 l-47 7 5 -27 c8 -41 -9 -41 -47 -1 -22 25 -39 36 -50 32 -22 -9 -30 -36 -17 -57 5 -9 14 -39 18 -66 3 -27 10 -59 15 -71 5 -13 4 -25 -1 -28 -15 -9 -12 -41 5 -55 9 -7 13 -21 9 -35 -3 -13 0 -26 6 -30 13 -8 34 15 56 60 8 17 19 37 24 45 28 45 42 93 37 125 -5 28 -2 37 14 45 15 9 20 7 25 -7 16 -50 27 -65 56 -78 42 -17 48 -12 48 36 0 26 5 42 15 45 28 11 18 51 -17 68 -29 15 -33 15 -49 0 -17 -15 -19 -15 -25 0 -8 20 -20 21 -28 0z m88 -75 c-3 -5 -10 -7 -15 -3 -5 3 -7 10 -3 15 3 5 10 7 15 3 5 -3 7 -10 3 -15z"/>
<path d="M8867 3743 c-13 -12 -7 -44 6 -41 8 2 26 -12 41 -29 36 -43 46 -42 43 5 -3 48 -14 64 -37 57 -10 -3 -21 -1 -25 5 -7 12 -19 13 -28 3z"/>
<path d="M6722 3714 c2 -11 11 -20 22 -22 13 -3 17 1 14 14 -2 11 -11 20 -22 22 -13 3 -17 -1 -14 -14z"/>
<path d="M8975 3720 c-4 -7 -3 -16 3 -22 14 -14 45 -2 40 15 -6 16 -34 21 -43 7z"/>
<path d="M9038 3674 c-11 -10 3 -34 19 -34 8 0 13 7 11 17 -3 18 -20 27 -30 17z"/>
<path d="M6903 3662 c-13 -2 -23 -7 -23 -12 0 -12 50 -19 56 -8 9 14 -8 25 -33 20z"/>
<path d="M2781 3636 c-9 -10 -7 -19 7 -36 20 -25 42 -20 42 9 0 17 -18 41 -31 41 -4 0 -12 -6 -18 -14z"/>
<path d="M2675 3622 l-50 -17 -3 -46 c-5 -81 53 -118 61 -38 3 20 10 35 19 37 24 5 53 83 31 82 -5 -1 -30 -9 -58 -18z"/>
<path d="M8880 3620 c0 -11 5 -20 10 -20 6 0 10 9 10 20 0 11 -4 20 -10 20 -5 0 -10 -9 -10 -20z"/>
<path d="M7620 3580 c0 -11 5 -20 10 -20 6 0 10 9 10 20 0 11 -4 20 -10 20 -5 0 -10 -9 -10 -20z"/>
<path d="M9033 3543 c-51 -10 -52 -50 -2 -72 41 -18 53 -4 50 57 -1 22 -6 23 -48 15z"/>
<path d="M2494 3527 c-2 -7 -3 -22 -2 -32 5 -33 -16 -29 -26 4 -5 17 -13 31 -18 31 -14 0 -76 -49 -82 -66 -3 -8 8 -37 24 -64 35 -59 35 -63 15 -80 -9 -7 -13 -15 -10 -18 3 -3 -5 -16 -17 -29 -15 -16 -25 -20 -33 -13 -25 21 -68 -22 -51 -49 9 -14 72 -6 101 13 27 18 31 31 14 41 -19 13 64 72 119 86 54 13 64 22 36 33 -15 6 -15 8 1 26 13 14 15 23 7 32 -6 7 -10 17 -10 21 0 4 -10 23 -21 42 -21 36 -38 44 -47 22z m62 -88 c3 -5 -3 -12 -13 -16 -10 -4 -23 -13 -29 -21 -8 -12 -12 -11 -23 2 -12 14 -11 19 3 35 17 18 50 18 62 0z m-91 2 c7 -12 -12 -24 -25 -16 -11 7 -4 25 10 25 5 0 11 -4 15 -9z"/>
<path d="M4765 3520 c-4 -6 -15 -10 -26 -10 -23 0 -25 -23 -4 -40 13 -11 20 -9 40 10 14 13 25 27 25 31 0 12 -29 19 -35 9z"/>
<path d="M4813 3488 c-35 -37 -43 -88 -13 -88 19 0 42 43 34 63 -3 8 2 20 11 27 16 13 20 30 7 30 -4 0 -22 -15 -39 -32z"/>
<path d="M4040 3470 c-9 -17 -5 -23 37 -49 44 -27 49 -29 65 -14 16 14 18 14 24 -1 9 -25 -14 -46 -52 -46 -35 0 -40 -5 -24 -30 7 -12 12 -12 35 0 22 12 30 12 47 1 29 -18 39 0 36 69 l-3 55 -54 7 c-29 3 -58 11 -64 17 -17 17 -35 13 -47 -9z"/>
<path d="M3923 3447 c-33 -24 -43 -37 -43 -59 0 -15 5 -28 10 -28 6 0 10 5 10 11 0 5 14 15 30 20 17 6 30 17 30 24 0 7 6 18 14 25 14 11 12 41 -3 39 -3 0 -25 -15 -48 -32z"/>
<path d="M7873 3440 c-18 -21 -33 -43 -33 -48 0 -5 -7 -15 -15 -22 -18 -15 -35 -4 -39 26 -2 10 -7 19 -12 21 -10 3 -68 -119 -79 -165 -6 -27 -3 -33 24 -46 16 -9 36 -13 44 -10 7 2 20 -2 27 -11 21 -25 30 -17 26 26 -2 28 1 42 10 46 8 3 14 11 14 19 0 8 4 22 9 32 32 66 45 88 55 97 17 14 26 43 20 60 -9 22 -16 19 -51 -25z"/>
<path d="M8740 3430 c0 -5 5 -10 10 -10 6 0 10 5 10 10 0 6 -4 10 -10 10 -5 0 -10 -4 -10 -10z"/>
<path d="M4017 3393 c-13 -12 -7 -33 8 -33 8 0 15 9 15 20 0 20 -11 26 -23 13z"/>
<path d="M7525 3340 c-4 -6 -3 -16 3 -22 6 -6 12 -6 17 2 4 6 3 16 -3 22 -6 6 -12 6 -17 -2z"/>
<path d="M3910 3325 c-7 -9 -10 -18 -7 -22 8 -7 37 15 37 28 0 14 -16 11 -30 -6z"/>
<path d="M2360 3310 c0 -5 5 -10 10 -10 6 0 10 5 10 10 0 6 -4 10 -10 10 -5 0 -10 -4 -10 -10z"/>
<path d="M3941 3296 c-13 -14 -20 -29 -17 -34 3 -5 -5 -17 -19 -26 -23 -15 -25 -23 -25 -86 0 -61 2 -70 18 -70 18 0 82 58 82 75 0 4 7 16 16 26 14 16 14 24 2 75 -8 32 -19 59 -24 61 -6 2 -20 -8 -33 -21z"/>
<path d="M4020 3290 c0 -21 4 -30 13 -27 6 2 12 14 12 27 0 13 -6 25 -12 28 -9 2 -13 -7 -13 -28z"/>
<path d="M8797 3306 c-7 -17 18 -40 33 -31 5 3 10 15 10 26 0 23 -35 27 -43 5z"/>
<path d="M4670 3270 c-8 -5 -22 -11 -30 -13 -8 -3 -33 -39 -55 -81 -37 -71 -39 -77 -23 -92 13 -13 20 -15 31 -6 7 6 22 9 33 6 29 -8 89 118 79 164 -7 34 -11 36 -35 22z"/>
<path d="M3576 3235 c-42 -37 -56 -37 -56 1 0 21 -5 24 -36 24 -25 0 -41 -7 -54 -22 -14 -18 -28 -22 -74 -22 -44 -1 -56 -4 -56 -17 0 -25 -12 -30 -30 -14 -15 14 -22 13 -62 -5 -44 -19 -76 -46 -66 -55 3 -3 34 -1 69 4 72 10 94 3 103 -33 7 -29 36 -48 55 -37 10 7 10 15 -4 40 -20 40 -10 56 48 72 38 10 43 9 59 -11 10 -13 16 -31 13 -40 -6 -20 16 -33 40 -24 19 8 19 9 -2 40 l-17 26 24 18 c32 24 42 16 38 -28 -3 -33 -1 -36 31 -44 28 -8 37 -6 58 14 24 23 25 24 9 93 -4 19 -31 55 -41 55 -5 -1 -27 -16 -49 -35z"/>
<path d="M3680 3230 c0 -5 5 -10 10 -10 6 0 10 5 10 10 0 6 -4 10 -10 10 -5 0 -10 -4 -10 -10z"/>
<path d="M6960 3170 c0 -5 16 -10 35 -10 19 0 35 5 35 10 0 6 -16 10 -35 10 -19 0 -35 -4 -35 -10z"/>
<path d="M7060 3171 c0 -5 7 -12 16 -15 22 -9 24 -8 24 9 0 8 -9 15 -20 15 -11 0 -20 -4 -20 -9z"/>
<path d="M4188 3085 c-17 -60 -9 -78 22 -50 20 18 20 18 73 -65 25 -39 57 -49 77 -25 10 11 10 22 3 38 -7 15 -7 29 -1 40 24 43 -49 110 -94 86 -18 -10 -24 -8 -39 10 -9 11 -19 21 -21 21 -3 0 -12 -25 -20 -55z"/>
<path d="M8897 3088 c-2 -7 0 -22 6 -32 7 -15 5 -22 -9 -33 -9 -7 -16 -14 -13 -16 16 -11 81 -27 89 -22 20 12 10 57 -19 86 -32 31 -47 36 -54 17z"/>
<path d="M6971 3077 c-11 -11 -15 -37 -6 -37 3 0 14 6 25 12 16 10 24 10 40 0 16 -10 24 -10 40 0 26 17 25 28 -2 27 -13 0 -37 2 -54 5 -17 2 -36 0 -43 -7z"/>
<path d="M3555 3070 c-3 -5 -14 -10 -23 -10 -10 0 -34 -8 -54 -18 -30 -16 -38 -16 -53 -5 -13 9 -22 10 -31 2 -7 -6 -18 -9 -26 -8 -7 1 -22 -1 -33 -5 -42 -16 -51 -19 -74 -22 -60 -8 -46 -59 18 -66 51 -4 61 -1 61 23 0 24 27 36 43 20 6 -6 19 -11 28 -11 22 0 49 -53 42 -80 -3 -12 0 -32 7 -46 11 -20 11 -27 -5 -44 -10 -11 -28 -20 -41 -20 -13 0 -26 -4 -29 -10 -9 -15 -46 -12 -65 5 -14 13 -22 13 -46 4 -16 -7 -81 -13 -144 -13 -128 -1 -146 -6 -129 -38 17 -31 22 -158 9 -208 -23 -87 -23 -100 -5 -120 30 -33 221 -27 380 12 161 39 180 47 158 69 -8 8 -7 20 6 43 9 17 23 51 30 76 15 52 30 97 41 125 18 48 30 93 30 112 0 12 13 32 28 45 22 19 30 35 35 76 5 45 3 55 -19 81 -20 25 -31 29 -53 25 -16 -4 -32 -1 -35 5 -9 14 -43 14 -51 1z m49 -67 c-20 -15 -45 -14 -45 2 0 11 42 24 55 17 5 -3 1 -11 -10 -19z m-100 -2 c7 -11 -39 -43 -48 -34 -7 7 23 43 35 43 4 0 10 -4 13 -9z m-10 -102 c-3 -5 -10 -7 -15 -3 -5 3 -7 10 -3 15 3 5 10 7 15 3 5 -3 7 -10 3 -15z m-10 -127 c6 -9 -32 -92 -43 -92 -4 0 -18 11 -30 24 l-22 24 33 26 c34 26 53 32 62 18z m-279 -288 c0 -10 -8 -20 -17 -22 -18 -3 -43 32 -33 48 9 15 50 -6 50 -26z"/>
<path d="M7377 3066 c-6 -15 19 -43 29 -33 8 8 -5 47 -16 47 -4 0 -10 -6 -13 -14z"/>
<path d="M8840 3050 c0 -5 5 -10 10 -10 6 0 10 5 10 10 0 6 -4 10 -10 10 -5 0 -10 -4 -10 -10z"/>
<path d="M6904 3036 c-3 -9 11 -30 36 -53 57 -51 69 -57 76 -39 4 11 -10 31 -42 61 -54 48 -62 52 -70 31z"/>
<path d="M7495 3020 c-11 -17 5 -32 21 -19 7 6 11 15 8 20 -7 12 -21 11 -29 -1z"/>
<path d="M7578 3013 c-62 -10 -53 -55 17 -79 33 -11 44 -11 73 2 33 13 37 13 54 -6 20 -21 68 -28 68 -10 0 21 -33 60 -49 60 -9 0 -23 6 -29 12 -10 10 -17 10 -31 1 -16 -10 -22 -8 -37 8 -9 10 -22 18 -28 18 -6 -1 -23 -4 -38 -6z"/>
<path d="M8620 3010 c0 -5 7 -10 15 -10 8 0 15 5 15 10 0 6 -7 10 -15 10 -8 0 -15 -4 -15 -10z"/>
<path d="M4154 2985 c-7 -18 2 -45 15 -45 12 0 24 37 16 50 -9 15 -25 12 -31 -5z"/>
<path d="M7420 2970 c0 -5 7 -10 15 -10 8 0 15 5 15 10 0 6 -7 10 -15 10 -8 0 -15 -4 -15 -10z"/>
<path d="M2700 2955 c-28 -33 27 -82 59 -51 11 12 11 18 -5 40 -22 29 -36 32 -54 11z"/>
<path d="M4502 2942 c-16 -2 -21 -8 -18 -20 3 -9 -1 -30 -9 -46 -17 -33 -8 -46 32 -46 12 0 28 -3 36 -6 20 -7 26 21 14 66 -11 43 -25 57 -55 52z"/>
<path d="M3393 2933 c-21 -7 -15 -33 7 -33 11 0 20 6 20 14 0 18 -11 25 -27 19z"/>
<path d="M7385 2923 c-25 -7 -34 -20 -28 -44 7 -24 37 -33 61 -18 11 7 28 9 38 5 18 -7 18 -8 2 -20 -25 -18 -22 -38 7 -66 l24 -23 21 24 c22 27 26 24 63 -41 16 -30 19 -31 60 -25 23 4 48 12 55 18 9 7 16 7 24 -1 7 -7 29 -12 50 -12 36 0 38 2 38 30 0 18 -5 30 -13 30 -16 0 -45 30 -61 62 -15 29 -61 44 -90 29 -12 -7 -50 -11 -86 -9 -54 2 -65 6 -62 19 2 16 -11 23 -68 42 -8 2 -24 2 -35 0z"/>
<path d="M4067 2849 c-44 -51 -57 -74 -52 -89 3 -11 12 -20 20 -20 13 0 60 -49 67 -71 3 -9 10 -8 26 2 17 11 21 23 21 64 -1 27 2 80 6 118 7 61 6 67 -11 66 -11 0 -45 -31 -77 -70z"/>
<path d="M7960 2903 c1 -30 26 -55 52 -51 17 2 22 -1 20 -14 -4 -22 21 -23 38 -2 8 8 15 26 16 40 3 24 -9 29 -58 25 -9 -1 -19 3 -23 9 -11 17 -45 12 -45 -7z"/>
<path d="M2758 2862 c-40 -27 -48 -53 -24 -84 17 -23 22 -23 29 2 3 11 12 20 21 20 9 0 16 6 16 14 0 7 7 19 15 26 20 16 19 27 -2 38 -13 6 -29 1 -55 -16z"/>
<path d="M2526 2867 c-23 -17 -12 -40 14 -32 10 3 21 1 25 -5 8 -12 45 -14 45 -1 0 5 -7 11 -15 15 -8 3 -14 11 -13 18 4 18 -34 21 -56 5z"/>
<path d="M2433 2848 c2 -7 10 -13 17 -13 7 0 15 6 18 13 2 7 -5 12 -18 12 -13 0 -20 -5 -17 -12z"/>
<path d="M4708 2753 c-78 -5 -85 -18 -45 -79 18 -27 44 -72 58 -101 13 -28 31 -54 41 -56 9 -3 18 -15 20 -28 3 -21 9 -24 43 -24 l40 0 3 36 c5 63 -88 169 -113 129 -4 -6 -10 -8 -14 -5 -11 6 3 70 15 68 5 -1 10 14 11 33 2 19 2 33 0 32 -1 -1 -28 -3 -59 -5z"/>
<path d="M3892 2682 c-9 -6 -12 -43 -11 -135 1 -138 6 -151 56 -145 21 2 29 9 31 28 3 36 -12 57 -31 42 -11 -10 -17 -9 -26 1 -8 11 -7 22 5 46 15 30 34 34 34 7 0 -12 58 -73 62 -65 23 36 28 60 28 123 0 77 -6 90 -45 92 -11 1 -36 4 -55 8 -19 3 -41 3 -48 -2z"/>
<path d="M6958 2571 c-26 -9 -50 -19 -54 -23 -4 -5 -27 -8 -51 -8 -23 0 -43 -4 -43 -10 0 -5 6 -10 14 -10 7 0 25 -10 40 -21 15 -12 30 -19 33 -15 9 9 43 -14 43 -29 0 -8 9 -15 20 -15 24 0 26 15 4 24 -13 5 -8 14 25 47 31 29 40 45 36 59 -7 23 -5 23 -67 1z"/>
<path d="M6740 2474 c-10 -11 -11 -23 -4 -42 8 -22 17 -28 47 -30 47 -4 50 16 7 58 -36 35 -34 34 -50 14z"/>
</g>
</g>
  <g id="id1:id1" transform="matrix(1.25,0,0,1.25,0.0,0.0)"><g transform="translate(0.000000,296.000000) scale(0.040000,-0.040000)" fill="#251911" stroke="none">
<path d="M2451 6760 c-79 -27 -171 -124 -171 -181 0 -10 -4 -21 -10 -24 -5 -3 -10 -21 -10 -39 0 -17 -4 -36 -10 -42 -5 -5 -10 -59 -10 -119 -1 -95 2 -120 26 -185 22 -63 27 -94 29 -197 3 -133 12 -161 45 -140 13 8 20 25 22 57 3 37 7 46 25 48 12 2 41 20 65 40 58 49 82 62 117 62 17 0 33 5 36 10 3 6 17 10 30 10 13 0 27 5 30 10 3 6 17 10 31 10 18 0 24 5 24 22 0 12 9 31 20 43 26 28 43 82 28 91 -6 4 -18 -2 -27 -14 -9 -11 -59 -41 -111 -67 -52 -25 -103 -53 -112 -62 -21 -19 -38 -9 -38 22 0 28 114 173 151 192 40 21 109 50 199 84 47 17 90 35 95 40 6 4 67 17 137 29 170 28 426 25 534 -7 126 -37 377 -145 421 -180 l41 -33 -31 -62 c-45 -86 -44 -143 1 -185 l33 -30 -25 -17 c-33 -21 -32 -29 1 -60 27 -25 97 -46 154 -46 l30 0 -3 38 c-3 33 0 37 22 40 38 6 62 32 55 60 -3 12 -3 27 0 32 7 11 79 -37 123 -83 28 -29 32 -38 23 -55 -15 -29 -37 -33 -57 -11 -12 13 -30 19 -60 19 -39 0 -43 -2 -46 -27 -2 -20 -11 -29 -38 -38 -19 -6 -40 -22 -46 -34 -31 -61 -165 -161 -215 -161 -6 0 -23 -8 -37 -18 -15 -10 -35 -22 -45 -25 -9 -4 -22 -18 -27 -32 -5 -14 -14 -25 -19 -25 -6 0 -25 -12 -43 -27 -18 -16 -49 -37 -68 -47 -19 -11 -43 -30 -53 -43 -10 -13 -24 -23 -32 -23 -7 0 -17 -6 -23 -13 -9 -11 -111 -17 -113 -6 0 4 2 12 15 51 6 21 67 48 107 48 15 0 31 5 34 10 3 6 16 10 29 10 27 0 79 24 96 45 7 8 17 15 22 15 14 0 56 52 63 78 12 47 -22 58 -84 26 -20 -11 -28 -10 -52 8 -23 18 -31 19 -44 8 -16 -14 -18 -10 -15 34 1 23 -10 41 -53 85 -30 31 -61 70 -69 86 -9 21 -21 30 -36 30 -13 0 -31 10 -40 21 -32 41 -135 124 -154 124 -22 0 -22 -3 -1 -62 l17 -48 -22 -23 c-12 -13 -22 -33 -22 -44 0 -11 -12 -28 -26 -38 -33 -22 -99 -31 -108 -16 -9 14 -41 14 -65 -1 -14 -9 -27 -8 -57 4 -33 13 -39 20 -36 42 3 23 0 26 -25 26 -16 0 -34 -5 -40 -11 -6 -6 -13 -7 -17 -1 -3 5 10 27 28 48 19 22 35 48 37 59 3 15 14 21 42 23 28 2 37 8 37 22 0 20 -41 39 -138 64 -79 21 -99 20 -105 -4 -4 -15 -14 -20 -41 -20 -33 0 -36 -2 -36 -30 0 -19 5 -30 14 -30 7 0 19 -6 25 -14 10 -12 8 -17 -8 -25 -11 -6 -26 -23 -33 -38 -7 -15 -23 -32 -35 -39 -13 -6 -31 -17 -40 -25 -30 -24 -62 -39 -82 -39 -11 0 -23 -5 -26 -11 -4 -6 -19 -9 -33 -8 -15 1 -34 -1 -42 -4 -37 -14 -136 -14 -158 1 -35 23 -58 -5 -67 -79 -4 -32 -11 -62 -16 -65 -12 -7 -11 -58 1 -70 6 -6 12 -26 13 -45 3 -48 13 -59 51 -59 53 0 65 -25 41 -82 -6 -14 -2 -18 18 -18 14 0 28 -3 31 -8 2 -4 -11 -41 -30 -82 -19 -41 -32 -80 -30 -87 3 -7 0 -16 -7 -20 -14 -9 -66 -111 -76 -150 -4 -15 -16 -31 -27 -37 -10 -6 -22 -16 -26 -23 -8 -12 -44 -7 -65 9 -6 5 -47 8 -90 7 -43 -1 -78 2 -77 7 3 59 29 125 65 165 13 14 32 40 43 58 l18 33 -27 56 c-15 32 -33 71 -40 87 -7 17 -38 84 -69 151 -30 66 -71 158 -91 205 -20 46 -48 94 -61 107 l-25 22 -168 0 c-150 0 -170 -2 -184 -18 -25 -27 -22 -41 33 -154 71 -146 92 -180 126 -198 26 -15 29 -21 26 -57 -2 -23 1 -44 7 -48 6 -3 11 -16 11 -29 0 -12 5 -27 11 -33 21 -21 3 -40 -30 -35 -17 2 -34 8 -37 13 -9 16 -37 10 -62 -13 l-24 -23 -28 34 c-16 18 -39 53 -51 77 l-23 43 22 24 c58 62 -5 119 -73 65 l-28 -22 -18 22 c-22 28 -56 28 -79 0 -15 -19 -21 -21 -31 -10 -17 16 -81 16 -97 0 -8 -8 -36 -12 -80 -10 -72 4 -97 -9 -90 -44 3 -20 54 -51 89 -56 20 -2 24 -9 24 -38 0 -31 -3 -35 -30 -40 -23 -4 -35 -16 -56 -55 -15 -28 -28 -64 -28 -82 -1 -24 -7 -35 -28 -45 -35 -16 -40 -48 -13 -73 28 -25 25 -46 -10 -80 -50 -48 -37 -98 34 -125 27 -10 28 -12 12 -29 -20 -22 -20 -49 -1 -88 26 -51 43 -59 165 -73 63 -7 120 -17 126 -22 7 -5 31 -14 55 -22 34 -9 43 -17 42 -32 -6 -43 6 -63 42 -70 41 -7 50 -17 31 -33 -20 -17 -8 -55 30 -92 22 -22 34 -42 34 -60 0 -60 54 -74 148 -40 59 22 143 19 163 -5 6 -8 16 -14 22 -14 25 0 67 -54 67 -86 0 -26 8 -40 40 -65 22 -18 37 -36 34 -41 -11 -17 25 -19 50 -3 24 16 26 16 32 1 3 -9 3 -23 0 -32 -4 -9 -1 -23 5 -30 6 -8 11 -42 10 -75 -1 -55 1 -60 16 -54 10 4 28 8 41 9 14 1 29 11 37 25 10 20 22 25 61 29 32 2 63 14 92 33 46 31 46 31 60 -36 5 -24 14 -40 22 -40 8 0 21 -4 28 -9 14 -9 42 10 42 28 0 7 -5 17 -12 24 -6 6 -17 27 -24 47 -14 42 -14 41 86 74 58 19 104 21 132 5 3 -2 -1 -18 -9 -35 -9 -18 -18 -63 -21 -100 -3 -50 -10 -73 -23 -85 -11 -9 -19 -27 -19 -39 0 -12 -3 -24 -6 -27 -9 -9 -63 22 -74 43 -15 27 -27 24 -45 -15 -12 -25 -14 -40 -6 -54 13 -24 11 -57 -6 -111 -20 -65 -31 -80 -51 -74 -29 7 -52 -29 -72 -117 -43 -177 -43 -359 -1 -404 17 -18 20 -34 19 -86 -1 -56 3 -74 32 -130 106 -209 267 -353 475 -427 79 -28 213 -58 221 -50 3 3 1 14 -5 26 -9 15 -7 31 4 63 22 62 29 155 15 208 -6 25 -14 57 -17 71 -4 20 -15 29 -56 44 -29 9 -68 28 -87 41 -19 12 -44 22 -55 21 -14 -1 -20 4 -20 20 -1 30 -11 38 -48 38 l-32 0 0 40 c0 39 -23 104 -48 133 -6 8 -13 31 -14 51 -4 88 -2 158 5 186 l8 30 75 6 c41 3 82 10 92 14 9 4 48 53 84 109 37 55 84 116 105 134 41 36 48 56 22 66 -8 3 -12 10 -9 16 4 6 12 7 23 1 11 -6 29 -4 54 6 29 12 52 13 96 7 31 -5 64 -7 73 -6 9 1 25 -8 34 -18 10 -11 22 -20 27 -20 5 0 21 -9 36 -19 19 -14 38 -18 65 -14 40 6 49 18 18 26 -16 4 -18 10 -12 38 4 19 11 34 16 34 6 0 31 -11 58 -24 l47 -25 51 50 c96 93 94 129 -11 203 -48 34 -67 42 -89 38 -45 -9 -65 28 -40 74 10 19 12 19 28 5 10 -9 25 -14 33 -11 8 3 21 -1 28 -10 7 -8 18 -15 25 -15 22 0 113 79 119 105 3 13 16 30 28 36 18 9 24 8 34 -6 13 -17 16 -16 54 10 l41 29 35 -19 35 -19 45 22 c32 16 55 21 78 16 25 -4 35 -2 39 10 8 20 37 21 63 1 26 -20 40 -19 64 5 l20 20 0 365 c0 381 0 381 -44 432 -13 16 -16 26 -9 35 6 7 7 22 3 33 -10 28 0 107 16 126 19 21 18 32 -6 75 -23 39 -20 49 13 49 20 0 22 6 25 67 2 42 8 71 17 78 12 10 16 9 19 -1 32 -100 39 -130 46 -184 5 -36 23 -97 45 -145 20 -45 40 -101 42 -124 4 -26 14 -48 29 -61 32 -26 40 -101 13 -116 -30 -16 -37 -69 -31 -251 l5 -175 24 5 c13 2 31 15 40 28 12 18 19 22 28 14 25 -21 24 7 0 30 -23 22 -24 25 -10 47 9 13 13 28 10 33 -9 14 15 23 30 10 8 -6 19 -9 25 -5 17 10 -29 55 -55 55 -12 0 -30 9 -40 20 l-18 20 23 25 c24 26 64 26 85 1 6 -7 18 -15 28 -19 11 -4 21 -16 24 -27 3 -12 24 -29 49 -41 24 -11 44 -23 44 -28 0 -11 -35 -42 -63 -55 -19 -10 -22 -20 -25 -88 -2 -60 -7 -79 -22 -93 -29 -27 -25 -66 10 -100 l30 -29 43 42 c24 23 47 42 53 42 11 0 54 42 54 52 0 4 -18 9 -41 13 -57 10 -67 40 -40 113 12 30 21 66 21 81 0 36 8 43 31 28 21 -13 35 -4 23 14 -4 7 -8 27 -8 44 -1 25 -5 30 -22 28 -25 -3 -78 42 -69 58 5 7 11 6 21 -2 12 -10 17 -8 27 5 12 16 14 16 26 2 8 -9 22 -16 33 -16 16 0 19 6 16 33 -2 26 1 32 16 32 30 0 30 22 0 48 -16 14 -24 29 -20 36 5 8 25 -5 63 -39 38 -35 63 -50 82 -50 15 0 36 -9 46 -20 10 -11 28 -20 40 -20 28 0 47 -22 39 -44 -7 -19 7 -21 24 -4 9 9 15 9 24 0 18 -18 28 -14 28 11 0 38 41 69 86 65 62 -5 87 -55 75 -147 -1 -3 -6 0 -13 7 -17 17 -28 15 -28 -5 0 -10 12 -23 26 -30 32 -15 84 -6 84 14 0 8 4 23 10 33 9 17 13 17 58 3 l48 -16 28 26 c24 23 27 32 22 61 -9 48 -28 62 -66 46 -24 -10 -33 -10 -45 0 -13 11 -18 10 -29 -5 -14 -20 -38 -13 -30 9 3 7 -2 16 -11 20 -9 3 -14 10 -11 15 3 5 -1 14 -9 21 -20 17 -45 69 -36 75 5 2 16 -4 26 -15 11 -12 31 -20 52 -20 36 0 45 15 14 25 -11 3 -40 34 -65 69 -56 78 -73 93 -88 78 -9 -9 -5 -19 17 -42 16 -16 25 -30 21 -30 -5 0 -3 -7 4 -15 9 -11 10 -19 2 -27 -14 -14 -34 0 -28 20 4 12 -3 21 -21 29 -22 11 -32 10 -57 -2 -18 -10 -33 -12 -39 -6 -5 5 -15 7 -22 5 -22 -9 -25 13 -5 31 11 10 20 31 20 46 0 16 9 45 20 65 16 28 18 39 9 50 -10 12 -6 21 17 45 16 17 40 36 54 42 13 7 29 22 35 33 20 41 37 54 70 54 18 0 38 7 45 15 10 12 24 14 61 9 103 -14 129 23 65 92 l-34 37 -32 -26 c-36 -31 -75 -35 -88 -9 -17 32 -2 90 30 117 28 23 31 32 35 100 7 104 -13 102 -67 -6 -32 -63 -45 -79 -58 -75 -57 19 -146 11 -97 -8 14 -5 14 -8 -1 -31 -21 -33 -43 -18 -39 28 2 17 4 33 5 35 1 1 3 5 4 10 1 4 5 13 10 20 14 22 -14 44 -53 40 -32 -3 -36 0 -36 22 0 14 4 31 9 38 5 7 4 18 -4 27 -13 16 -12 17 40 19 32 1 36 4 50 47 8 26 20 53 26 60 7 8 10 33 8 56 -2 23 1 45 6 48 13 8 42 -57 30 -69 -15 -15 -12 -26 8 -26 10 0 27 -7 38 -15 10 -8 24 -15 30 -15 13 0 21 91 30 340 6 146 5 167 -10 179 -9 8 -18 12 -20 10 -2 -2 -18 -44 -36 -94 -38 -105 -54 -130 -129 -207 -48 -50 -60 -58 -92 -58 -32 0 -43 7 -78 46 l-40 46 6 134 6 134 -19 0 c-17 0 -26 -19 -53 -104 -18 -57 -41 -112 -52 -122 -20 -18 -25 -49 -9 -59 22 -14 4 -105 -21 -105 -5 0 -13 9 -17 20 -4 10 -32 46 -62 78 -30 32 -60 66 -66 77 l-10 18 -34 -16 c-25 -13 -36 -14 -46 -6 -11 9 -18 8 -29 -1 -22 -18 -19 -29 11 -40 36 -14 30 -54 -9 -58 -20 -3 -27 -8 -23 -18 7 -20 -20 -29 -39 -14 -8 7 -21 25 -29 41 l-14 28 31 24 c26 20 30 27 19 39 -15 19 -3 32 15 16 10 -8 17 -8 25 0 15 15 -8 43 -31 40 -11 -2 -17 7 -21 31 -4 27 -25 51 -115 132 -60 54 -118 99 -128 99 -10 0 -38 14 -62 30 -24 17 -52 30 -63 30 -11 0 -25 7 -32 16 -8 8 -33 27 -57 41 -40 23 -47 24 -71 12 -15 -8 -30 -19 -34 -25 -4 -6 -19 -9 -32 -7 -31 6 -52 28 -36 38 32 20 -9 52 -89 70 -36 8 -52 -14 -30 -42 8 -8 12 -27 11 -40 -2 -13 2 -30 8 -38 6 -8 10 -24 8 -37 -2 -19 -10 -23 -46 -26 -35 -3 -44 0 -48 15 -6 22 -67 43 -123 43 -22 0 -43 5 -46 10 -4 6 -65 10 -150 10 l-144 0 -3 -27 -3 -28 -125 -3 c-68 -1 -129 -7 -134 -12 -6 -6 -25 -10 -42 -10 -18 0 -36 -4 -39 -10 -3 -5 -17 -10 -30 -10 -13 0 -27 -4 -30 -10 -3 -5 -14 -10 -24 -10 -18 0 -140 -58 -166 -80 -12 -10 -16 -9 -21 3 -3 9 -2 22 2 29 8 12 15 68 9 68 -2 0 -22 -10 -45 -22 -46 -25 -90 -71 -90 -94 0 -8 -11 -19 -26 -24 -16 -6 -32 -26 -45 -55 -34 -77 -51 -30 -29 84 11 60 92 233 144 310 20 29 36 55 36 57 0 10 -59 1 -109 -16z m1888 -622 c17 -35 18 -45 7 -58 -7 -8 -16 -23 -19 -33 -10 -28 -27 -10 -27 28 0 19 -4 37 -10 40 -11 7 -14 48 -3 58 15 16 32 4 52 -35z m-177 -93 c-1 -14 -69 -48 -82 -40 -15 10 -12 46 7 67 l16 18 30 -17 c17 -10 30 -22 29 -28z m816 -21 c-4 -23 -26 -30 -34 -10 -8 20 15 51 29 37 5 -5 7 -17 5 -27z m-370 -21 c-16 -15 -18 -15 -24 0 -3 9 -3 25 0 34 6 15 8 15 24 0 15 -16 15 -18 0 -34z m73 -10 c12 -31 -3 -60 -30 -58 -30 2 -36 12 -24 38 6 12 14 30 17 40 7 22 24 13 37 -20z m169 -38 c22 -26 -4 -43 -30 -20 -20 18 -18 35 4 35 8 0 19 -7 26 -15z m-1818 -224 c65 -33 139 -59 183 -63 17 -2 28 -7 25 -13 -3 -6 -38 -9 -82 -7 -64 3 -78 0 -78 -12 0 -8 5 -18 11 -21 5 -4 14 -18 19 -31 5 -13 27 -31 52 -43 48 -22 78 -71 61 -100 -5 -9 -6 -29 -3 -46 4 -25 11 -31 44 -36 22 -4 45 -14 51 -23 7 -9 16 -16 20 -16 18 0 45 -34 45 -57 0 -20 5 -23 40 -23 37 0 40 2 50 39 12 46 37 72 46 48 3 -9 2 -22 -2 -29 -5 -7 -7 -21 -6 -31 2 -9 -4 -20 -12 -23 -9 -4 -16 -18 -16 -35 0 -26 3 -28 47 -31 l48 -3 42 -85 c24 -47 43 -93 43 -102 0 -10 9 -33 20 -53 11 -19 16 -35 12 -36 -4 -1 -24 0 -45 1 -32 1 -43 -4 -71 -34 -18 -20 -38 -36 -44 -36 -16 0 -83 43 -100 63 -11 13 -10 17 6 26 15 8 23 6 38 -10 26 -29 98 -24 102 8 3 20 0 22 -27 17 -36 -7 -49 12 -31 45 7 15 21 21 45 21 25 0 35 5 40 20 8 26 1 36 -43 57 -20 9 -58 32 -83 50 -80 57 -112 39 -49 -27 22 -23 40 -52 40 -64 0 -31 -65 -92 -94 -88 -31 4 -44 -15 -48 -68 l-3 -45 -83 -9 c-99 -11 -113 -3 -93 47 25 63 25 67 -1 67 -14 0 -33 -9 -43 -20 -10 -11 -29 -20 -42 -20 -17 0 -23 -6 -23 -23 0 -16 -15 -35 -49 -60 -26 -20 -52 -37 -57 -37 -5 0 -14 -10 -19 -22 -6 -13 -21 -28 -35 -35 -13 -6 -31 -21 -40 -32 -15 -21 -69 -56 -102 -67 -12 -4 -18 -20 -20 -52 -3 -48 -25 -69 -35 -33 -6 25 -5 24 -38 9 -18 -8 -24 -16 -19 -30 4 -14 0 -21 -16 -25 -11 -3 -27 -18 -36 -34 -18 -35 -27 -36 -48 -4 -23 35 -50 34 -42 -2 18 -70 17 -79 -1 -94 -26 -23 -122 -59 -128 -49 -3 5 22 66 55 135 33 70 60 130 60 133 0 3 -14 21 -32 39 -25 25 -29 36 -20 45 9 9 17 7 35 -10 25 -23 57 -21 57 3 0 7 32 78 70 158 39 80 70 147 70 151 0 7 46 112 65 149 8 16 15 33 15 39 0 5 8 22 19 36 23 34 93 196 89 208 -1 5 12 30 30 56 17 26 32 50 32 55 0 4 14 35 30 68 36 72 37 98 8 117 l-23 15 25 26 c14 15 27 27 30 27 3 0 31 -13 62 -29z m1798 -22 c9 -16 14 -18 25 -9 10 9 20 7 40 -6 29 -19 30 -47 0 -52 -11 -2 -31 -8 -43 -15 -20 -10 -26 -8 -40 9 -10 12 -25 24 -34 27 -25 9 -22 33 4 51 29 21 35 20 48 -5z m-496 -50 c-3 -5 -10 -7 -15 -3 -5 3 -7 10 -3 15 3 5 10 7 15 3 5 -3 7 -10 3 -15z m-35 -12 c-1 -7 1 -20 6 -30 8 -20 -10 -47 -32 -47 -23 0 -26 28 -9 65 16 32 39 40 35 12z m351 -33 c15 -37 2 -49 -25 -24 -23 22 -44 13 -28 -12 8 -13 10 -19 16 -50 2 -10 6 -21 10 -24 9 -9 9 -68 1 -77 -8 -8 -64 33 -64 47 0 5 7 17 15 27 15 15 14 20 -5 54 -24 43 -20 70 10 62 10 -3 24 1 31 9 17 21 28 17 39 -12z m-1098 -13 c-2 -12 2 -29 9 -37 17 -21 -4 -42 -25 -25 -8 7 -20 10 -26 6 -6 -4 -18 -4 -27 -1 -12 5 -13 9 -3 21 7 8 9 22 6 31 -9 24 0 32 36 30 28 -2 33 -5 30 -25z m-95 -82 c4 -24 -22 -36 -43 -18 -14 11 -13 15 8 30 25 20 30 18 35 -12z m1538 11 c10 -16 -16 -43 -28 -31 -11 11 -2 41 12 41 5 0 13 -5 16 -10z m129 -34 c-6 -16 14 -33 45 -38 34 -4 38 -26 7 -38 -21 -7 -34 -5 -62 11 -33 18 -38 19 -53 4 -20 -18 -31 -11 -31 20 0 27 26 52 60 57 31 5 40 1 34 -16z m-260 -45 c-2 -3 10 -19 27 -37 17 -17 27 -34 21 -38 -5 -3 -22 8 -37 24 -16 17 -25 30 -20 30 5 0 -2 11 -14 24 -14 14 -20 30 -16 37 6 8 13 5 26 -12 10 -13 16 -26 13 -28z m-983 -172 c-1 -79 -5 -147 -9 -151 -5 -5 -19 7 -32 24 -12 18 -45 52 -71 76 -57 51 -61 76 -22 122 34 41 115 92 127 80 4 -4 8 -73 7 -151z m303 140 c-3 -5 -10 -7 -15 -3 -5 3 -7 10 -3 15 3 5 10 7 15 3 5 -3 7 -10 3 -15z m-1414 -4 c10 -12 9 -16 -6 -21 -11 -3 -29 -10 -41 -16 -24 -12 -50 -1 -35 14 11 11 53 35 63 37 4 1 12 -6 19 -14z m1345 -45 c19 -11 41 -19 48 -17 24 4 11 -28 -15 -37 -23 -8 -33 -6 -58 12 -16 12 -36 22 -43 22 -18 0 -39 24 -30 33 13 13 63 7 98 -13z m993 -62 c-2 -3 8 -18 21 -32 l24 -26 -18 -20 -18 -20 17 -19 c22 -24 13 -41 -21 -41 -14 0 -41 -8 -60 -17 -43 -20 -67 -9 -71 34 -4 39 28 97 57 101 12 2 29 15 38 28 9 14 20 23 25 22 5 -2 8 -6 6 -10z m-3659 -81 c13 -25 21 -49 18 -54 -3 -4 -26 -7 -52 -5 -52 5 -67 23 -40 52 9 10 16 27 15 37 -4 30 -1 34 18 24 10 -5 29 -30 41 -54z m392 -11 c7 -23 13 -59 15 -81 7 -79 16 -125 25 -131 5 -3 9 -24 9 -48 0 -45 13 -66 42 -66 19 0 51 -16 81 -39 9 -8 27 -19 40 -25 12 -7 32 -31 43 -54 12 -23 29 -51 38 -60 20 -23 21 -70 0 -110 -12 -26 -22 -32 -46 -32 -17 0 -39 -7 -49 -16 -10 -9 -22 -13 -28 -10 -14 9 -41 66 -41 87 0 10 -11 26 -25 35 -24 16 -25 18 -9 35 32 35 -6 86 -46 61 -11 -6 -26 -12 -33 -12 -8 0 -42 -14 -76 -32 -69 -35 -98 -31 -93 13 3 24 41 73 50 64 3 -3 13 2 23 11 10 9 25 14 32 11 8 -3 20 0 26 6 14 14 15 64 1 72 -5 3 -10 17 -10 29 0 13 -7 29 -15 36 -8 7 -15 19 -15 26 0 8 -12 17 -27 20 -48 11 -83 52 -83 96 0 21 -6 47 -12 59 -11 17 -10 22 4 33 10 7 22 25 27 39 7 18 18 27 33 27 13 0 34 6 48 14 33 17 56 -1 71 -58z m2773 -2 c39 -20 80 -45 91 -55 l21 -18 33 20 c42 25 56 14 56 -44 0 -34 4 -42 20 -46 11 -2 30 -14 42 -27 27 -30 68 -31 83 -3 16 29 54 22 58 -11 2 -14 10 -32 19 -42 17 -19 0 -36 -20 -20 -16 14 -197 34 -262 30 -47 -3 -56 0 -83 27 -17 17 -39 37 -49 45 -69 56 -88 74 -87 79 0 3 -3 23 -8 44 -8 36 -5 57 9 57 4 0 38 -16 77 -36z m-836 -155 c-2 -19 -7 -33 -13 -32 -12 3 -19 49 -10 71 10 26 27 -2 23 -39z m327 -28 c7 -12 -12 -24 -25 -16 -11 7 -4 25 10 25 5 0 11 -4 15 -9z m-111 -73 c-3 -5 -14 -2 -25 8 -10 9 -16 21 -13 26 3 5 14 2 25 -8 10 -9 16 -21 13 -26z m1120 -9 c-3 -5 -10 -7 -15 -3 -5 3 -7 10 -3 15 3 5 10 7 15 3 5 -3 7 -10 3 -15z m-484 -14 c13 -16 6 -35 -14 -35 -18 0 -39 27 -31 40 9 14 31 12 45 -5z m-750 -185 l0 -178 -30 -26 c-31 -26 -90 -43 -109 -31 -18 10 -13 34 18 89 47 83 47 97 1 149 -24 27 -40 55 -40 70 0 35 13 41 35 17 24 -26 45 -25 45 1 0 25 58 101 71 93 5 -3 9 -86 9 -184z m1249 154 c-6 -7 -15 -11 -21 -8 -5 3 -4 12 3 20 6 7 15 11 21 8 5 -3 4 -12 -3 -20z m-2756 -101 c7 -12 -11 -53 -23 -53 -14 0 -24 26 -16 45 6 16 32 21 39 8z m2301 -34 c-3 -5 -10 -7 -15 -3 -5 3 -7 10 -3 15 3 5 10 7 15 3 5 -3 7 -10 3 -15z m-1188 -20 c33 -31 19 -41 -52 -37 -61 3 -75 16 -60 55 9 23 81 11 112 -18z m-266 -34 c0 -19 5 -37 10 -40 6 -3 10 -22 10 -41 0 -39 21 -54 51 -36 24 15 86 16 95 1 8 -14 -10 -32 -35 -34 -11 -1 -27 -7 -36 -15 -9 -8 -34 -13 -56 -11 -45 2 -58 -14 -38 -51 31 -57 13 -174 -33 -213 l-29 -25 20 -28 c15 -22 17 -32 9 -40 -9 -9 -9 -15 0 -24 20 -20 15 -102 -8 -123 -11 -10 -20 -21 -20 -24 0 -8 50 -31 66 -31 16 0 46 -48 39 -61 -4 -5 -1 -17 6 -25 11 -13 15 -39 10 -71 -1 -4 -14 7 -30 25 -34 37 -47 40 -56 13 -3 -10 -14 -26 -25 -36 l-20 -18 -25 23 c-21 20 -25 33 -25 82 l0 58 -37 17 c-75 32 -86 38 -91 53 -3 8 -11 22 -19 31 -11 14 -11 18 1 28 17 14 10 41 -10 41 -7 0 -29 14 -48 31 l-36 31 24 31 c12 18 28 48 35 67 33 92 65 140 92 140 10 0 29 10 41 22 13 13 29 21 37 20 9 -2 12 2 8 12 -3 8 0 20 8 26 9 7 13 30 13 62 -1 46 2 53 32 78 19 15 30 32 26 38 -8 14 23 64 35 56 5 -3 9 -20 9 -39z m-1415 -94 c7 -12 -12 -24 -25 -16 -11 7 -4 25 10 25 5 0 11 -4 15 -9z m1660 -141 c0 -29 -15 -35 -40 -17 -25 19 -13 48 17 43 16 -2 23 -10 23 -26z m310 -69 c7 -12 -12 -24 -25 -16 -11 7 -4 25 10 25 5 0 11 -4 15 -9z m-1160 -102 c4 -5 18 -14 31 -19 52 -20 6 -70 -65 -70 -40 0 -61 13 -41 25 5 3 10 17 10 31 0 16 8 28 23 34 30 12 35 12 42 -1z m1230 -8 c7 -12 -12 -24 -25 -16 -11 7 -4 25 10 25 5 0 11 -4 15 -9z m-1680 -82 c-4 -5 -20 -16 -36 -25 -24 -12 -34 -13 -45 -3 -20 17 -18 29 13 62 l28 28 23 -26 c12 -15 20 -31 17 -36z m1935 27 c-13 -13 -35 7 -25 24 5 8 11 8 21 -1 10 -8 12 -15 4 -23z m-684 -66 c46 -22 55 -41 31 -74 -13 -17 -15 -16 -35 18 -12 20 -28 36 -36 36 -18 0 -29 16 -21 30 8 13 9 13 61 -10z m-1386 -45 c0 -17 -17 -28 -30 -20 -7 4 -7 13 0 26 12 21 30 17 30 -6z m40 -95 c0 -25 -17 -35 -36 -19 -13 10 -12 14 2 30 19 21 34 16 34 -11z m1009 -255 c-24 -40 -34 -43 -49 -16 -8 16 -4 23 22 39 43 27 52 19 27 -23z m-375 -183 c3 -5 -4 -16 -15 -25 -11 -10 -19 -29 -19 -46 0 -38 -16 -48 -30 -21 -9 16 -8 25 0 35 7 8 8 20 4 26 -4 7 1 18 11 26 21 15 41 17 49 5z m-254 -112 c0 -13 -59 -40 -65 -30 -7 11 45 51 56 44 5 -3 9 -9 9 -14z m84 -11 c-3 -5 -10 -7 -15 -3 -5 3 -7 10 -3 15 3 5 10 7 15 3 5 -3 7 -10 3 -15z m-120 -60 c-3 -5 -10 -7 -15 -3 -5 3 -7 10 -3 15 3 5 10 7 15 3 5 -3 7 -10 3 -15z m30 -51 c-3 -5 -12 -4 -20 3 -7 6 -11 15 -8 21 3 5 12 4 20 -3 7 -6 11 -15 8 -21z m320 -549 c-3 -5 -10 -7 -15 -3 -5 3 -7 10 -3 15 3 5 10 7 15 3 5 -3 7 -10 3 -15z"/>
<path d="M3295 5282 c-16 -2 -38 -11 -48 -20 -12 -11 -21 -12 -28 -5 -13 13 -56 5 -63 -13 -14 -36 33 -61 61 -33 8 8 13 8 17 0 17 -27 101 -2 110 33 7 28 -12 43 -49 38z"/>
<path d="M3065 5262 c-11 -2 -26 -9 -32 -14 -7 -6 -20 -7 -29 -4 -43 17 -73 -20 -146 -179 -64 -138 -65 -145 -34 -145 14 0 27 4 30 8 3 5 34 23 69 40 87 43 111 64 136 117 12 25 27 45 34 45 7 0 18 9 24 19 10 16 9 22 -3 32 -10 8 -13 21 -9 39 7 31 -10 49 -40 42z"/>
<path d="M2540 4562 c0 -23 35 -56 49 -47 16 9 14 18 -9 43 -25 27 -40 28 -40 4z"/>
<path d="M3145 6720 c-3 -5 -21 -10 -39 -10 -17 0 -36 -4 -41 -9 -6 -5 -21 -11 -34 -13 -32 -4 -50 -32 -35 -55 13 -21 81 -30 97 -14 6 6 25 11 42 12 37 1 89 30 93 53 2 9 -2 23 -8 31 -14 17 -66 20 -75 5z"/>
<path d="M4594 6513 c-26 -35 -59 -121 -50 -130 10 -10 106 88 106 108 0 53 -26 63 -56 22z"/>
<path d="M3158 5948 c-41 -11 -58 -39 -38 -63 9 -11 33 -15 80 -15 47 0 71 4 80 15 18 22 4 50 -33 63 -38 14 -38 14 -89 0z"/>
<path d="M5244 5745 c-15 -20 -24 -38 -20 -42 8 -9 66 47 66 64 0 23 -18 14 -46 -22z"/>
<path d="M381 5656 c-16 -19 -9 -31 31 -50 38 -20 52 -20 67 -2 9 10 7 18 -6 35 -24 28 -75 38 -92 17z"/>
<path d="M556 5573 c-10 -24 51 -83 85 -83 45 0 67 52 29 70 -8 4 -25 12 -37 18 -33 17 -70 15 -77 -5z"/>
<path d="M6168 5570 c-120 -3 -219 -8 -221 -11 -1 -2 -15 -21 -30 -41 -36 -50 -29 -88 21 -111 21 -9 45 -23 54 -29 14 -10 22 -10 38 0 11 6 28 12 39 12 10 0 24 6 30 14 7 8 20 12 30 9 9 -2 23 2 30 10 8 10 24 13 49 10 27 -4 42 -1 51 11 17 21 40 20 63 -1 17 -15 19 -15 37 1 11 10 24 15 29 12 5 -3 24 8 43 23 30 25 32 30 20 45 -11 13 -11 20 -3 28 21 21 13 28 -25 26 -21 -1 -136 -4 -255 -8z"/>
<path d="M820 5515 c-26 -32 13 -81 48 -59 34 22 22 74 -18 74 -10 0 -23 -7 -30 -15z"/>
<path d="M6936 5494 c-20 -26 -25 -39 -17 -47 7 -7 16 -6 30 7 17 16 40 8 23 -8 -4 -4 -7 -20 -8 -35 -2 -33 35 -55 71 -41 12 5 59 14 104 20 45 7 84 16 87 21 3 5 16 9 30 9 19 0 25 5 22 18 -2 12 -15 18 -47 20 -24 2 -49 -2 -54 -7 -6 -6 -21 -11 -33 -11 -32 0 -106 42 -112 63 -3 13 -11 17 -25 13 -12 -3 -26 -1 -32 4 -7 6 -21 -3 -39 -26z"/>
<path d="M6565 4499 c-15 -29 -18 -30 -34 -15 -18 17 -71 22 -71 8 0 -5 9 -17 20 -27 25 -23 25 -56 -1 -141 -16 -50 -18 -73 -11 -85 15 -24 2 -32 -20 -12 -10 9 -21 13 -26 9 -4 -4 -7 -43 -7 -85 0 -71 -3 -83 -33 -131 -28 -45 -32 -58 -23 -77 7 -15 19 -23 37 -23 33 0 92 -56 75 -73 -18 -18 -13 -52 13 -76 13 -12 26 -39 30 -59 3 -21 19 -63 36 -93 21 -40 31 -75 36 -127 l7 -72 -32 -11 c-36 -13 -36 -15 -15 -105 8 -37 13 -73 10 -80 -3 -7 2 -18 10 -25 9 -7 13 -21 10 -32 -6 -25 13 -65 33 -71 9 -3 40 -8 69 -11 54 -7 73 -23 55 -48 -5 -6 -7 -42 -5 -79 l4 -67 36 -3 c39 -3 51 -21 17 -26 -45 -7 -54 -39 -61 -227 l-7 -177 21 6 c17 6 24 2 33 -16 5 -13 22 -29 37 -35 37 -17 255 -15 278 2 15 11 18 34 20 183 1 93 -1 174 -5 180 -3 5 -4 57 -1 113 l5 104 47 3 c38 2 55 -3 91 -28 25 -16 52 -30 60 -30 8 0 22 -11 31 -24 10 -16 22 -23 35 -19 25 6 35 -11 19 -36 -10 -17 0 -44 82 -208 51 -103 104 -203 117 -220 l24 -33 95 0 c107 0 113 6 74 74 -22 40 -12 56 15 26 10 -11 31 -20 46 -20 15 0 31 -4 34 -10 8 -13 105 -13 105 0 0 15 -25 63 -75 145 -24 39 -45 81 -47 95 l-3 24 58 2 c32 1 72 7 90 14 86 34 179 88 246 143 67 55 78 60 116 58 48 -2 91 12 121 40 14 13 24 17 29 10 3 -6 6 -138 5 -292 0 -196 3 -286 11 -295 9 -11 49 -14 175 -14 l163 0 15 22 c14 19 16 65 16 302 0 237 2 282 15 296 14 16 14 20 -1 47 -10 16 -15 37 -11 46 3 9 35 40 71 69 74 60 86 93 39 104 -16 3 -34 8 -41 10 -9 3 4 28 39 79 l52 76 -21 29 c-15 19 -18 31 -11 36 6 3 9 23 7 43 -6 45 18 109 34 93 7 -7 12 -27 12 -47 1 -26 5 -35 18 -35 27 0 64 39 131 140 50 74 71 97 97 106 18 6 36 17 40 25 14 25 23 93 24 166 l1 72 -50 3 -50 3 2 28 c1 17 -10 47 -28 74 -16 26 -29 52 -29 59 0 25 -66 32 -131 14 -39 -11 -100 -64 -130 -114 -25 -40 -27 -136 -3 -136 8 0 24 5 35 11 15 7 24 7 34 -1 12 -10 12 -16 0 -40 -8 -15 -20 -28 -27 -27 -42 1 -56 -8 -92 -59 l-38 -56 -27 25 c-14 13 -51 38 -81 54 -123 68 -295 165 -350 198 -64 39 -82 42 -100 20 -17 -21 -76 -19 -108 3 -15 10 -49 25 -77 32 -27 7 -69 22 -93 32 -24 10 -57 18 -74 18 -21 0 -41 11 -68 38 -22 20 -53 48 -71 61 l-31 24 -33 -36 c-37 -41 -38 -41 -65 -27 -29 15 -56 -16 -80 -95 -12 -38 -27 -81 -34 -95 l-12 -25 -124 -3 c-75 -2 -127 1 -134 8 -5 5 -40 10 -76 10 -72 0 -86 6 -69 26 7 9 9 31 4 60 -5 38 -16 56 -60 101 -30 30 -59 52 -65 48 -5 -3 -15 6 -20 21 -6 15 -13 24 -17 21 -3 -3 -20 5 -38 19 -25 19 -35 22 -41 12 -18 -29 7 -120 41 -148 9 -8 15 -29 15 -56 l0 -44 46 0 c33 0 51 5 60 18 12 16 13 16 19 -3 3 -11 12 -31 19 -46 11 -21 10 -29 -2 -47 -8 -12 -25 -22 -38 -22 -20 0 -24 -5 -24 -29 0 -17 -8 -36 -18 -43 -14 -10 -17 -28 -17 -88 l0 -75 -51 -3 -52 -3 -22 36 c-12 19 -20 41 -17 49 3 7 25 19 50 25 37 11 48 20 61 50 14 31 15 42 5 66 -7 17 -11 34 -10 39 4 18 -31 56 -52 56 -13 0 -29 6 -35 13 -7 6 -36 17 -64 22 l-50 10 -2 52 c-1 35 -7 58 -20 72 -18 19 -18 23 -4 37 13 14 17 13 32 -10 9 -14 24 -26 34 -26 38 0 56 46 27 70 -8 7 -15 20 -15 29 0 9 -11 30 -24 46 -21 25 -27 28 -44 18 -16 -9 -23 -6 -46 24 -22 27 -33 33 -51 29 -13 -3 -39 1 -59 9 -48 20 -53 19 -71 -16z m870 -470 c4 -6 27 -9 52 -8 34 2 47 -1 54 -14 6 -9 29 -26 53 -36 23 -11 49 -27 56 -36 7 -8 18 -15 26 -15 27 0 25 -23 -5 -54 -21 -21 -29 -38 -25 -49 7 -20 -17 -32 -43 -22 -17 6 -17 7 1 21 16 11 17 17 8 26 -7 7 -12 9 -12 5 0 -4 -16 3 -36 14 -20 11 -49 19 -63 19 -41 -3 -44 -1 -30 16 11 14 9 20 -20 46 -30 27 -34 28 -50 14 -23 -21 -38 -20 -50 3 -17 31 13 81 49 81 16 0 32 -5 35 -11z m-161 -20 c-3 -5 -10 -7 -15 -3 -5 3 -7 10 -3 15 3 5 10 7 15 3 5 -3 7 -10 3 -15z m2010 -80 c-4 -6 -11 -6 -19 1 -8 7 -19 9 -24 6 -13 -8 -24 11 -17 30 5 13 10 12 36 -6 17 -12 28 -26 24 -31z m-2390 -10 c-3 -5 -10 -7 -15 -3 -5 3 -7 10 -3 15 3 5 10 7 15 3 5 -3 7 -10 3 -15z m377 -53 c-7 -8 -11 -35 -9 -63 3 -41 6 -48 26 -51 12 -2 36 4 54 12 30 15 32 15 50 -4 10 -11 30 -20 44 -20 13 0 27 -6 30 -14 6 -17 -29 -118 -84 -241 -22 -49 -43 -98 -46 -107 -4 -15 -18 -18 -73 -19 -94 -2 -136 1 -150 13 -8 7 -13 52 -15 136 -2 93 -6 126 -15 125 -7 -2 -17 6 -23 17 -9 17 -7 22 13 29 14 5 27 20 30 33 4 13 22 41 41 62 20 21 34 42 31 46 -7 11 14 64 22 57 3 -4 17 3 31 14 23 17 27 18 40 5 12 -12 13 -18 3 -30z m812 -35 c19 -11 45 -21 57 -23 13 -1 25 -9 28 -15 6 -19 -28 -28 -50 -14 -10 6 -23 9 -27 6 -10 -5 -68 21 -76 36 -8 13 3 29 20 29 8 0 30 -9 48 -19z m-49 -72 c-3 -5 -10 -7 -15 -3 -5 3 -7 10 -3 15 3 5 10 7 15 3 5 -3 7 -10 3 -15z m711 -42 c12 -10 14 -16 7 -21 -15 -9 -54 12 -47 25 8 12 18 11 40 -4z m198 -18 c-17 -17 -37 -1 -22 17 8 10 15 12 23 4 7 -7 7 -13 -1 -21z m-359 0 c-3 -5 -10 -7 -15 -3 -5 3 -7 10 -3 15 3 5 10 7 15 3 5 -3 7 -10 3 -15z m-33 -37 c21 3 24 -2 27 -31 7 -68 -59 -174 -89 -144 -9 9 -9 16 1 28 10 12 10 19 2 27 -7 7 -12 40 -12 74 0 35 -5 66 -10 69 -6 4 -8 11 -4 17 4 5 18 -2 34 -17 18 -17 36 -25 51 -23z m169 -38 c0 -20 -15 -25 -36 -10 -15 12 -16 16 -5 30 10 12 17 14 27 5 8 -6 14 -17 14 -25z m-593 -380 c31 4 103 22 161 41 58 20 109 32 114 27 10 -10 -16 -77 -33 -87 -6 -4 -16 -2 -22 4 -6 6 -21 11 -33 11 -17 0 -23 -8 -28 -34 -10 -54 -4 -52 -224 -70 -18 -2 -35 -6 -39 -9 -10 -11 -22 3 -16 18 4 12 -3 15 -31 15 -30 0 -36 -3 -34 -17 3 -19 -1 -19 -75 -7 -28 5 -43 2 -56 -10 -13 -12 -20 -13 -29 -4 -8 8 -4 18 16 39 15 16 32 29 38 29 13 0 94 92 113 128 l12 23 56 -52 55 -52 55 7z m-747 51 c-7 -8 -9 -19 -6 -24 4 -5 2 -12 -3 -16 -5 -3 -14 3 -20 12 -7 13 -5 23 6 35 18 20 40 13 23 -7z m436 -4 c-4 -6 -13 -11 -20 -11 -7 0 -18 -12 -25 -26 -12 -27 -28 -28 -45 -2 -13 22 9 48 40 48 12 0 26 5 30 11 4 7 10 7 16 1 6 -6 7 -15 4 -21z m-823 2 c9 -8 -22 -43 -39 -43 -22 0 -28 23 -9 37 21 14 38 17 48 6z m1636 -73 l23 -12 -21 -21 -21 -21 -30 29 c-16 16 -33 25 -37 22 -8 -9 -44 23 -38 33 6 9 89 -11 124 -30z m-1027 -252 c-19 -20 -42 -18 -42 3 0 12 42 29 54 22 4 -3 -1 -14 -12 -25z m382 -69 c-8 -13 -52 -11 -60 3 -4 6 1 17 11 24 16 12 21 11 37 -2 9 -9 15 -21 12 -25z m-283 -61 c11 -13 32 -35 47 -50 29 -30 27 -33 -48 -42 -25 -3 -60 -9 -78 -12 -29 -6 -33 -4 -46 28 -22 52 -41 64 -70 45 -20 -14 -26 -14 -35 -3 -18 22 8 33 82 35 38 0 76 5 85 11 26 15 40 12 63 -12z m-741 -313 c15 -18 5 -35 -20 -35 -10 0 -22 5 -25 10 -7 11 12 40 25 40 4 0 13 -7 20 -15z"/>
<path d="M5440 4411 c-39 -34 -43 -40 -31 -55 7 -9 19 -16 27 -16 20 0 27 -19 13 -36 -9 -11 -8 -18 6 -34 16 -18 16 -20 1 -26 -24 -9 -19 -37 12 -67 22 -21 35 -26 58 -21 l29 6 3 114 c2 89 -1 114 -11 114 -7 0 -18 -5 -24 -11 -16 -16 -39 27 -24 45 10 12 5 26 -8 26 -3 0 -26 -17 -51 -39z m95 -111 c-5 -8 -11 -8 -17 -2 -6 6 -7 16 -3 22 5 8 11 8 17 2 6 -6 7 -16 3 -22z"/>
<path d="M4529 4424 c-7 -9 -18 -24 -24 -34 -5 -10 -16 -27 -23 -38 -6 -12 -8 -23 -3 -26 13 -8 58 30 75 65 22 44 4 68 -25 33z"/>
<path d="M4701 4236 c-13 -14 -20 -29 -16 -35 10 -17 81 -13 99 5 19 19 20 26 4 42 -20 20 -63 14 -87 -12z"/>
<path d="M5280 4190 c0 -5 5 -10 10 -10 6 0 10 5 10 10 0 6 -4 10 -10 10 -5 0 -10 -4 -10 -10z"/>
<path d="M4965 4183 c-32 -8 -45 -23 -45 -54 0 -22 6 -30 26 -35 42 -11 137 3 151 21 13 19 7 45 -12 45 -7 0 -18 7 -25 15 -12 15 -54 18 -95 8z"/>
<path d="M3897 4066 c-16 -12 -17 -39 -17 -329 1 -262 3 -316 15 -321 12 -4 12 -9 0 -33 -9 -17 -15 -56 -15 -97 0 -59 2 -67 16 -62 9 4 22 2 28 -3 6 -6 18 -6 25 -2 11 7 11 12 0 29 -10 16 -11 24 -2 33 8 8 15 4 27 -19 20 -39 20 -71 0 -79 -8 -3 -13 -11 -10 -18 6 -17 -30 -50 -39 -36 -11 19 -25 12 -25 -13 0 -14 -4 -28 -10 -31 -14 -9 -13 -402 1 -410 30 -19 94 28 129 95 8 16 36 47 62 70 39 34 49 39 54 26 4 -9 2 -29 -4 -44 -8 -22 -10 -123 -4 -207 1 -11 24 -51 51 -89 30 -42 47 -74 44 -84 -5 -12 -2 -14 11 -9 13 5 19 1 23 -13 l5 -20 289 0 288 0 15 22 c14 19 14 24 1 38 -8 9 -13 19 -10 22 3 3 -1 11 -10 18 -22 18 -19 35 11 55 l26 17 -6 76 c-4 63 -9 80 -27 95 -32 26 -48 21 -96 -28 l-43 -46 -25 25 c-14 14 -25 32 -25 39 0 17 -80 100 -88 92 -3 -3 -11 0 -19 7 -10 8 -17 8 -25 0 -7 -7 -22 -12 -35 -12 -24 0 -31 -14 -13 -25 19 -12 -1 -25 -21 -15 -12 7 -17 16 -12 23 4 7 9 20 10 31 2 10 17 45 34 77 25 46 29 62 20 73 -6 8 -11 18 -10 22 2 5 -2 20 -8 34 -20 48 -43 125 -43 145 0 22 -30 106 -61 171 -10 22 -19 56 -19 75 -1 37 -18 113 -46 199 -10 30 -17 70 -15 88 1 19 -6 46 -17 65 -17 28 -45 183 -40 227 3 35 -3 50 -21 50 -11 0 -23 5 -26 10 -3 6 -17 10 -31 10 -22 0 -24 -3 -21 -35 2 -19 6 -37 9 -41 3 -3 -1 -18 -9 -34 l-14 -30 -25 16 c-13 9 -24 22 -24 28 0 7 -9 31 -20 54 l-20 42 -63 0 c-36 -1 -69 -6 -80 -14z m79 -270 c8 -20 34 -28 49 -16 10 8 15 8 20 0 10 -16 -24 -50 -48 -50 -26 0 -57 28 -57 50 0 30 26 42 36 16z m97 -207 c-17 -17 -37 -1 -22 17 8 10 15 12 23 4 7 -7 7 -13 -1 -21z m1 -140 c-3 -5 -10 -7 -15 -3 -5 3 -7 10 -3 15 3 5 10 7 15 3 5 -3 7 -10 3 -15z m61 -18 c7 -12 -12 -24 -25 -16 -11 7 -4 25 10 25 5 0 11 -4 15 -9z m49 -82 c-3 -5 -10 -7 -15 -3 -5 3 -7 10 -3 15 3 5 10 7 15 3 5 -3 7 -10 3 -15z m69 -271 c10 2 25 -2 33 -8 10 -9 14 -9 14 -1 0 18 24 23 54 11 l27 -10 -20 -29 c-13 -18 -20 -42 -19 -62 5 -50 -17 -45 -55 13 -32 50 -67 89 -67 74 0 -4 -5 -4 -10 -1 -6 4 -8 11 -4 16 3 5 11 6 17 2 7 -4 20 -6 30 -5z m194 -369 c-35 -78 -37 -96 -18 -156 28 -87 32 -111 21 -118 -5 -3 -17 10 -25 29 -8 20 -22 52 -30 72 -9 20 -18 62 -22 94 -5 48 -2 63 14 87 11 15 23 37 27 47 l7 20 20 -21 c20 -19 20 -23 6 -54z m351 -129 c5 -48 -11 -58 -44 -25 l-27 27 24 19 c32 24 43 19 47 -21z"/>
<path d="M5037 4063 c-4 -3 -24 -9 -44 -12 -30 -5 -39 -11 -41 -29 -5 -33 24 -51 79 -52 31 0 51 6 62 18 18 20 25 52 14 70 -9 13 -59 17 -70 5z"/>
<path d="M5142 3937 c-28 -30 -28 -40 1 -31 25 7 57 33 57 46 0 17 -37 7 -58 -15z"/>
<path d="M2150 3920 c-8 -5 -12 -10 -10 -12 43 -28 80 -36 80 -19 0 10 -39 41 -50 41 -3 0 -12 -4 -20 -10z"/>
<path d="M4651 3923 c-59 -4 -69 -7 -108 -44 -23 -21 -49 -39 -57 -39 -7 0 -19 -7 -26 -15 -20 -24 1 -38 69 -46 36 -4 72 -15 90 -29 33 -23 33 -40 0 -40 -11 0 -19 -7 -19 -18 0 -27 46 -89 77 -104 15 -7 29 -22 31 -33 5 -28 33 -57 49 -51 19 8 25 -10 7 -24 -11 -10 -18 -10 -26 -2 -7 7 -15 12 -19 12 -14 0 -89 -166 -89 -196 0 -26 7 -34 45 -54 37 -19 47 -21 60 -10 8 7 15 20 15 29 0 9 12 41 26 71 17 37 24 68 22 95 -3 37 -1 40 22 40 43 0 99 42 110 83 5 21 21 56 34 78 l24 42 -21 20 -20 20 26 53 c28 56 27 75 -3 59 -11 -6 -21 -6 -25 -1 -8 14 15 25 59 28 44 3 66 17 51 32 -6 5 -38 13 -72 17 l-63 7 0 -24 c0 -25 -57 -79 -82 -79 -17 0 -83 77 -92 108 -4 12 -13 21 -19 20 -7 -1 -41 -3 -76 -5z m73 -294 c-3 -5 -10 -7 -15 -3 -5 3 -7 10 -3 15 3 5 10 7 15 3 5 -3 7 -10 3 -15z"/>
<path d="M3161 3252 c-18 -15 -28 -69 -21 -107 1 -5 1 -49 0 -97 -1 -77 0 -88 19 -97 25 -14 78 -14 86 -1 8 14 57 1 73 -18 15 -20 16 -114 1 -129 -15 -15 -3 -63 16 -63 8 0 24 -20 35 -45 22 -47 49 -69 74 -59 9 3 33 40 53 81 l37 75 -26 22 c-29 23 -41 60 -20 62 6 1 17 2 22 3 18 2 10 40 -11 51 -31 17 -6 40 44 40 28 0 51 8 76 27 20 15 40 28 46 29 5 0 19 2 30 2 19 2 20 8 17 85 -4 104 -35 178 -63 150 -6 -6 -3 -29 7 -61 14 -42 14 -54 4 -67 -15 -18 -30 -11 -30 15 0 24 -17 35 -34 21 -16 -13 -27 -4 -19 15 6 15 -12 20 -21 5 -3 -5 -15 -7 -25 -4 -10 3 -22 0 -26 -6 -11 -19 -67 27 -60 50 8 25 3 26 -142 33 -106 5 -124 4 -142 -12z m224 -62 c3 -6 -2 -13 -12 -17 -10 -3 -28 -15 -39 -25 -31 -28 -38 -6 -9 26 25 27 49 33 60 16z m-120 -19 c7 -12 -12 -24 -25 -16 -11 7 -4 25 10 25 5 0 11 -4 15 -9z m159 -172 c-3 -5 -10 -7 -15 -3 -5 3 -7 10 -3 15 3 5 10 7 15 3 5 -3 7 -10 3 -15z"/>
<path d="M6540 3150 c0 -5 5 -10 10 -10 6 0 10 5 10 10 0 6 -4 10 -10 10 -5 0 -10 -4 -10 -10z"/>
<path d="M4523 3059 c-23 -41 -21 -46 34 -76 34 -19 38 -17 63 37 28 60 20 75 -39 76 -33 0 -40 -4 -58 -37z"/>
<path d="M8940 3070 c0 -5 5 -10 10 -10 6 0 10 5 10 10 0 6 -4 10 -10 10 -5 0 -10 -4 -10 -10z"/>
<path d="M3675 2890 c-4 -6 -10 -8 -15 -5 -12 8 -30 -28 -30 -59 0 -15 -4 -34 -9 -44 -5 -9 -15 -37 -22 -62 -7 -25 -16 -49 -21 -55 -4 -5 -8 -19 -8 -32 0 -21 -6 -39 -37 -111 -18 -41 -10 -53 30 -45 61 11 116 41 137 75 19 30 20 44 15 167 -3 74 -5 145 -5 157 0 24 -23 33 -35 14z"/>
<path d="M3902 2533 l-22 -48 25 -24 c19 -20 27 -22 39 -12 11 9 20 10 36 1 35 -19 44 -6 18 25 -13 17 -32 47 -43 68 -11 20 -22 37 -25 37 -4 0 -16 -21 -28 -47z"/>
<path d="M3175 2520 c-46 -10 -75 -22 -75 -29 0 -4 13 -20 29 -35 16 -16 27 -35 24 -42 -6 -17 0 -18 30 -2 12 6 29 14 37 18 8 4 16 20 18 37 4 39 -23 61 -63 53z"/>
</g>
</g>
  <g id="id2:id2" transform="matrix(1.25,0,0,1.25,0.0,0.0)"><g transform="translate(0.000000,296.000000) scale(0.040000,-0.040000)" fill="#000000" stroke="none">
<path d="M4572 6406 c-66 -68 -78 -102 -69 -181 3 -29 0 -48 -8 -55 -7 -6 -15 -25 -18 -43 -6 -38 15 -67 48 -67 12 0 29 -8 38 -17 18 -21 26 -111 11 -121 -12 -8 -13 -51 -1 -69 16 -24 43 -14 52 20 12 39 29 42 33 5 4 -36 11 -35 45 7 23 30 26 39 16 51 -6 8 -13 28 -14 44 -2 19 -13 38 -29 51 -14 11 -26 26 -26 34 0 7 -7 18 -15 25 -11 9 -12 16 -4 26 6 7 9 27 7 43 -2 21 3 35 16 44 17 12 17 19 7 66 -6 28 -11 83 -11 121 0 38 -4 71 -9 74 -4 3 -36 -23 -69 -58z m-28 -177 c-3 -5 -10 -7 -15 -3 -5 3 -7 10 -3 15 3 5 10 7 15 3 5 -3 7 -10 3 -15z m50 -50 c-3 -5 -10 -7 -15 -3 -5 3 -7 10 -3 15 3 5 10 7 15 3 5 -3 7 -10 3 -15z m1 -98 c7 -12 -12 -24 -25 -16 -11 7 -4 25 10 25 5 0 11 -4 15 -9z"/>
<path d="M4793 6138 c-36 -12 -42 -28 -18 -48 8 -7 15 -23 15 -35 0 -12 7 -28 15 -35 12 -10 20 -9 42 6 16 10 34 17 41 16 14 -3 17 14 3 22 -5 3 -12 21 -15 40 -9 46 -25 52 -83 34z"/>
<path d="M5214 6015 c-4 -8 0 -22 7 -31 11 -14 10 -19 -10 -35 -14 -12 -20 -23 -15 -31 5 -7 7 -21 6 -30 -4 -22 6 -22 32 -3 25 19 60 19 76 0 7 -8 16 -15 21 -15 15 0 10 23 -9 44 -10 12 -25 37 -32 56 -7 19 -18 41 -23 48 -13 17 -46 15 -53 -3z"/>
<path d="M4803 5974 c-8 -22 9 -48 36 -52 27 -4 29 28 3 51 -23 21 -31 21 -39 1z"/>
<path d="M5084 5943 c-17 -3 -21 -11 -20 -41 1 -30 -3 -38 -19 -40 -17 -2 -21 -11 -22 -42 -2 -45 7 -52 22 -17 15 33 29 27 36 -15 9 -56 22 -67 64 -54 46 14 49 55 6 85 -20 15 -30 31 -33 57 -2 19 0 37 4 40 4 3 8 12 8 20 0 14 -6 15 -46 7z"/>
<path d="M5588 5881 c-7 -2 -21 -10 -30 -19 -16 -13 -18 -36 -18 -184 l0 -170 -21 -5 c-14 -4 -18 -10 -13 -22 4 -9 8 -32 8 -51 l1 -35 -35 0 c-30 0 -35 4 -38 26 -2 14 4 31 12 39 22 17 20 29 -8 51 -20 16 -24 25 -19 54 4 27 2 35 -9 35 -25 0 -59 -45 -64 -86 -3 -21 -7 -51 -9 -66 -3 -18 0 -28 8 -28 6 0 23 -9 36 -19 l25 -19 -47 -21 c-25 -12 -51 -30 -57 -41 -6 -10 -27 -27 -48 -36 -44 -20 -71 -51 -72 -80 0 -11 -3 -24 -7 -28 -5 -4 -8 -11 -8 -14 -1 -4 -9 -21 -18 -39 -9 -18 -17 -40 -17 -50 0 -10 -9 -33 -20 -51 -25 -40 -25 -42 0 -42 11 0 29 -5 39 -12 24 -15 58 7 42 26 -7 8 1 20 25 39 35 29 44 47 21 47 -21 0 -61 47 -47 55 6 3 56 3 111 -1 90 -6 102 -9 116 -30 19 -29 42 -30 75 -4 14 10 28 16 32 13 10 -10 7 -291 -4 -298 -5 -3 -27 10 -48 30 -36 32 -45 35 -101 35 -48 0 -61 -3 -61 -15 0 -9 -11 -20 -24 -25 -13 -5 -27 -14 -32 -21 -5 -9 -11 -7 -21 7 -13 18 -15 18 -24 2 -5 -10 -16 -15 -24 -12 -11 5 -15 -1 -15 -19 0 -14 -4 -29 -10 -32 -5 -3 -10 -17 -10 -29 0 -44 -24 -51 -82 -22 -51 26 -98 34 -98 18 0 -18 75 -104 102 -118 15 -8 28 -21 28 -28 0 -12 208 -255 295 -344 23 -24 24 -24 74 5 2 2 -4 12 -13 22 -14 15 -15 24 -6 40 9 18 7 22 -14 30 -38 15 -41 31 -12 59 l26 26 21 -21 c20 -19 20 -22 5 -45 -15 -23 -15 -26 9 -48 14 -13 25 -32 25 -42 0 -10 5 -26 11 -36 8 -13 9 -37 3 -78 l-9 -59 -86 -30 c-48 -16 -105 -40 -126 -52 -22 -12 -58 -25 -82 -29 -28 -4 -40 -11 -37 -19 5 -13 -23 -45 -38 -45 -4 0 -22 -10 -39 -22 -18 -13 -37 -22 -44 -20 -6 1 -14 -2 -18 -8 -3 -5 -17 -10 -31 -10 -30 0 -30 -6 1 -33 24 -21 25 -23 9 -45 -12 -18 -19 -20 -29 -12 -18 15 -30 7 -49 -32 -20 -39 -20 -54 -1 -62 13 -5 13 -10 -3 -38 -11 -18 -25 -51 -32 -73 -7 -22 -18 -46 -24 -54 -14 -18 -56 -224 -56 -276 0 -49 42 -255 64 -310 102 -269 362 -490 623 -530 53 -8 82 -29 68 -48 -5 -8 -18 -26 -28 -40 l-19 -26 17 -208 c15 -189 34 -408 55 -633 4 -47 15 -179 25 -295 9 -115 23 -277 32 -360 14 -134 30 -331 32 -393 1 -24 27 -40 41 -26 9 9 44 324 55 494 3 52 10 136 16 185 5 50 14 151 19 225 5 74 16 189 24 255 8 66 17 179 21 250 3 72 13 186 21 255 7 69 14 156 14 193 0 61 -3 72 -31 107 -17 21 -28 43 -25 49 4 6 23 13 44 16 98 16 266 97 355 171 181 149 302 376 311 587 2 37 9 74 16 82 11 13 10 18 -3 28 -22 17 -39 91 -32 140 4 28 1 57 -10 87 -9 25 -22 61 -28 80 -26 80 -110 204 -197 289 -96 95 -193 158 -303 196 -39 14 -78 33 -85 42 -10 14 -12 116 -10 478 l3 461 59 67 c32 37 70 70 85 74 14 3 39 14 56 24 17 10 78 36 135 58 58 22 127 49 154 60 l48 21 -16 25 c-17 26 -15 29 25 39 18 4 31 1 39 -10 7 -8 19 -13 26 -10 20 8 26 -10 9 -24 -23 -19 -18 -27 19 -40 28 -9 40 -8 65 4 38 20 139 22 147 3 3 -8 36 -28 73 -47 78 -37 121 -36 121 3 0 12 7 31 15 41 19 25 19 52 1 59 -21 8 -12 83 14 119 19 26 21 34 10 57 l-12 26 63 58 c35 31 69 57 76 57 7 0 28 14 46 30 19 17 40 30 46 30 6 0 11 9 11 20 0 16 -7 20 -35 20 -29 0 -35 -4 -35 -20 0 -16 -16 -28 -66 -50 -36 -17 -70 -30 -76 -30 -6 0 -30 -13 -55 -30 -24 -16 -53 -30 -63 -30 -10 0 -21 -4 -24 -9 -4 -5 -28 -12 -55 -16 -73 -10 -98 -53 -66 -114 8 -16 12 -31 9 -33 -5 -6 -70 14 -80 25 -4 4 -21 7 -39 7 -17 0 -36 5 -43 12 -19 19 -14 49 8 55 29 8 21 35 -14 52 -25 12 -33 11 -56 -3 -16 -9 -47 -26 -69 -38 -37 -19 -41 -26 -39 -53 3 -28 1 -30 -29 -30 -18 0 -41 -9 -55 -21 -17 -16 -32 -20 -59 -17 -21 3 -40 0 -43 -6 -4 -6 -26 -11 -50 -11 -23 0 -47 -5 -53 -11 -7 -7 -39 -12 -72 -13 -42 -1 -62 -5 -66 -15 -4 -11 -9 -11 -24 3 -10 9 -25 14 -34 10 -26 -10 -51 39 -42 83 6 30 8 188 5 343 0 33 -40 43 -181 44 -76 1 -143 0 -151 -3z m1366 -412 c-3 -5 -10 -7 -15 -3 -5 3 -7 10 -3 15 3 5 10 7 15 3 5 -3 7 -10 3 -15z m-965 -193 c13 -15 -1 -66 -18 -66 -20 0 -31 28 -21 54 11 29 22 33 39 12z m-45 -87 c-3 -5 -10 -7 -15 -3 -5 3 -7 10 -3 15 3 5 10 7 15 3 5 -3 7 -10 3 -15z m-598 -382 c-3 -24 -30 -35 -41 -17 -8 13 24 52 36 44 5 -3 7 -15 5 -27z m84 -47 c30 0 63 1 74 2 17 3 19 -6 23 -114 5 -128 -4 -151 -41 -106 -20 24 -100 58 -137 58 -9 0 -22 7 -29 15 -7 8 -16 13 -20 10 -5 -3 -11 -1 -14 4 -4 5 -2 12 3 15 5 4 12 2 15 -2 8 -14 51 -7 51 9 0 8 -5 14 -12 14 -20 0 -26 14 -14 29 7 8 10 24 6 35 -8 27 2 43 24 36 9 -3 41 -5 71 -5z m-188 -57 c10 -9 18 -29 18 -44 0 -30 -14 -46 -25 -29 -4 6 -10 8 -15 5 -16 -10 -31 32 -20 59 11 30 17 32 42 9z m556 -993 c78 -14 177 -66 242 -127 46 -42 70 -76 102 -142 l42 -86 0 -115 1 -115 -42 -86 c-72 -147 -203 -245 -361 -269 -216 -34 -432 96 -515 309 -18 45 -22 77 -22 161 0 117 18 179 75 263 32 48 125 136 163 155 121 59 205 73 315 52z"/>
<path d="M3897 5862 c-10 -10 -17 -27 -17 -36 0 -15 5 -17 28 -11 36 9 84 37 90 53 7 21 -82 15 -101 -6z"/>
<path d="M4800 5795 c0 -8 -9 -30 -20 -50 -24 -44 -26 -85 -4 -85 9 0 18 -9 21 -20 6 -22 40 -27 71 -11 9 5 25 12 35 15 21 6 24 56 3 56 -7 0 -19 7 -26 15 -10 12 -10 18 0 30 13 15 10 17 -25 19 -11 1 -24 11 -30 24 -11 25 -25 29 -25 7z"/>
<path d="M5236 5710 c-48 -44 -80 -96 -70 -112 11 -18 -48 -68 -80 -68 -17 0 -35 -4 -41 -8 -16 -12 -35 -50 -35 -72 0 -11 -7 -23 -15 -26 -25 -10 -17 -25 12 -22 21 2 30 -3 38 -19 15 -35 39 -30 32 7 -4 16 -2 32 4 36 13 7 51 -25 43 -37 -8 -14 3 -11 46 11 62 32 110 107 80 125 -5 3 -14 15 -20 25 -8 16 -5 22 19 36 26 15 29 23 35 87 3 38 4 72 2 74 -2 3 -25 -14 -50 -37z m-33 -216 c-3 -12 -30 -17 -49 -10 -12 5 -13 10 -4 27 10 19 14 19 33 6 12 -8 21 -18 20 -23z"/>
<path d="M4615 5631 c-3 -6 -22 -11 -41 -11 -40 0 -41 -3 -14 -37 11 -14 20 -35 20 -45 0 -11 -9 -22 -20 -25 -22 -6 -21 -5 -24 -48 -1 -22 4 -31 19 -33 11 -2 37 -17 57 -33 45 -35 63 -38 53 -6 -4 12 -10 40 -14 62 -4 23 -11 47 -16 54 -5 9 -2 19 10 27 12 9 19 27 19 56 1 37 -2 43 -21 46 -11 2 -24 -2 -28 -7z"/>
<path d="M4968 5549 c-19 -11 -24 -44 -9 -53 11 -7 26 11 35 42 8 24 1 27 -26 11z"/>
<path d="M4091 5366 c-9 -11 -9 -20 1 -38 7 -13 13 -24 13 -25 0 -1 12 -4 28 -8 25 -7 27 -5 27 23 0 17 5 34 10 37 22 13 8 25 -29 25 -21 0 -44 -6 -50 -14z"/>
<path d="M5096 5335 c-3 -8 -12 -15 -21 -15 -8 0 -15 -7 -15 -14 0 -8 -12 -21 -27 -28 -37 -17 -45 -73 -14 -95 12 -8 21 -20 21 -28 0 -18 58 -31 73 -15 9 8 6 16 -12 29 -16 12 -20 21 -12 25 18 12 12 29 -9 23 -10 -3 -24 1 -30 7 -12 15 -3 27 15 20 7 -3 24 8 36 25 13 17 31 31 41 31 10 0 18 5 18 10 0 6 -7 10 -15 10 -9 0 -18 7 -21 15 -4 8 -10 15 -14 15 -4 0 -10 -7 -14 -15z"/>
<path d="M4684 5319 c-8 -14 18 -31 30 -19 9 9 0 30 -14 30 -5 0 -12 -5 -16 -11z"/>
<path d="M5155 5261 c-7 -12 12 -24 25 -16 11 7 4 25 -10 25 -5 0 -11 -4 -15 -9z"/>
<path d="M4660 5204 c0 -8 5 -12 10 -9 6 3 10 10 10 16 0 5 -4 9 -10 9 -5 0 -10 -7 -10 -16z"/>
<path d="M4740 5150 c0 -5 5 -10 10 -10 6 0 10 5 10 10 0 6 -4 10 -10 10 -5 0 -10 -4 -10 -10z"/>
<path d="M4520 5130 c0 -5 7 -10 15 -10 8 0 15 5 15 10 0 6 -7 10 -15 10 -8 0 -15 -4 -15 -10z"/>
<path d="M4800 5110 c0 -5 5 -10 10 -10 6 0 10 5 10 10 0 6 -4 10 -10 10 -5 0 -10 -4 -10 -10z"/>
<path d="M4860 5064 c0 -8 5 -12 10 -9 6 3 10 10 10 16 0 5 -4 9 -10 9 -5 0 -10 -7 -10 -16z"/>
<path d="M4580 5050 c0 -5 5 -10 10 -10 6 0 10 5 10 10 0 6 -4 10 -10 10 -5 0 -10 -4 -10 -10z"/>
<path d="M4620 5030 c0 -5 5 -10 10 -10 6 0 10 5 10 10 0 6 -4 10 -10 10 -5 0 -10 -4 -10 -10z"/>
<path d="M4477 4986 c-4 -9 -14 -12 -25 -9 -28 7 -34 -9 -26 -67 6 -43 10 -50 29 -50 13 0 25 6 28 14 4 9 14 12 26 9 16 -4 21 -1 21 15 0 11 -8 22 -20 25 -21 5 -27 31 -10 42 15 9 12 35 -4 35 -8 0 -16 -6 -19 -14z"/>
<path d="M5264 4226 c-10 -26 1 -51 29 -64 15 -7 27 -20 27 -28 0 -30 29 -12 51 31 18 36 20 47 9 60 -17 20 -108 21 -116 1z"/>
<path d="M6460 4220 c0 -11 5 -20 10 -20 6 0 10 9 10 20 0 11 -4 20 -10 20 -5 0 -10 -9 -10 -20z"/>
<path d="M3718 4169 c-32 -16 -58 -33 -58 -38 0 -5 13 -14 29 -21 39 -16 85 7 100 51 6 18 11 34 11 35 0 10 -31 0 -82 -27z"/>
<path d="M2952 4072 c-19 -41 -15 -61 15 -73 21 -8 28 -7 35 6 5 8 14 15 21 15 7 0 18 9 25 21 18 29 -7 57 -51 57 -25 0 -35 -6 -45 -26z"/>
<path d="M7320 4071 c0 -5 7 -12 16 -15 13 -5 14 -16 9 -61 l-7 -55 24 0 c14 0 33 -9 43 -20 10 -11 24 -20 31 -20 19 0 28 -20 15 -33 -18 -18 -13 -27 15 -27 15 0 32 7 38 16 11 14 15 14 46 -3 20 -11 35 -28 35 -38 0 -10 8 -23 18 -29 22 -14 52 3 52 30 0 12 8 20 22 22 12 2 27 9 33 17 16 19 1 65 -25 75 -13 5 -26 14 -30 19 -3 6 -26 20 -51 32 -52 23 -63 42 -40 68 9 10 13 21 9 24 -10 10 -253 8 -253 -2z m195 -26 c0 -12 -40 -19 -61 -11 -9 3 -12 11 -9 16 8 14 70 9 70 -5z"/>
<path d="M7200 4051 c0 -14 46 -51 63 -51 12 0 17 8 17 28 0 25 -3 28 -40 29 -22 1 -40 -2 -40 -6z"/>
<path d="M6370 4005 c-7 -9 -10 -18 -7 -22 8 -7 37 15 37 28 0 14 -16 11 -30 -6z"/>
<path d="M7783 3950 c0 -33 8 -38 27 -15 10 12 10 18 0 30 -19 23 -27 18 -27 -15z"/>
<path d="M7260 3951 c0 -13 29 -35 37 -28 7 8 -15 37 -28 37 -5 0 -9 -4 -9 -9z"/>
<path d="M2488 3932 c-16 -9 -28 -22 -28 -29 0 -19 60 -103 74 -103 19 0 29 86 13 118 -16 33 -26 35 -59 14z"/>
<path d="M6472 3888 c-14 -14 -16 -48 -3 -48 5 0 11 8 15 18 3 9 9 23 12 30 7 15 -8 16 -24 0z"/>
<path d="M7173 3853 c-7 -15 -11 -29 -8 -32 7 -6 34 31 35 47 0 21 -14 13 -27 -15z"/>
<path d="M2310 3838 c-19 -11 -45 -29 -57 -40 -17 -16 -25 -18 -41 -9 -48 26 -43 5 13 -51 38 -37 48 -55 58 -105 8 -40 16 -58 25 -55 7 2 20 -2 28 -9 24 -20 57 23 47 60 -4 14 -7 40 -8 56 0 24 5 31 23 33 17 3 22 10 23 35 2 50 -1 60 -27 84 -30 28 -39 28 -84 1z m40 -53 c7 -8 9 -22 6 -32 -6 -15 -9 -15 -28 4 -11 12 -17 26 -14 32 10 15 21 14 36 -4z"/>
<path d="M7280 3850 c0 -5 5 -10 10 -10 6 0 10 5 10 10 0 6 -4 10 -10 10 -5 0 -10 -4 -10 -10z"/>
<path d="M7140 3770 c0 -5 5 -10 10 -10 6 0 10 5 10 10 0 6 -4 10 -10 10 -5 0 -10 -4 -10 -10z"/>
<path d="M6580 3730 c0 -5 5 -10 10 -10 6 0 10 5 10 10 0 6 -4 10 -10 10 -5 0 -10 -4 -10 -10z"/>
<path d="M9042 3652 c-20 -15 -23 -26 -20 -67 3 -42 7 -51 33 -66 40 -23 38 -24 60 17 18 34 18 37 2 45 -9 6 -17 19 -17 30 0 23 -17 59 -28 59 -4 0 -17 -8 -30 -18z"/>
<path d="M6900 3650 c0 -5 5 -10 10 -10 6 0 10 5 10 10 0 6 -4 10 -10 10 -5 0 -10 -4 -10 -10z"/>
<path d="M3502 3246 c-22 -11 -28 -47 -7 -47 6 0 25 -14 43 -32 26 -25 35 -29 42 -18 5 8 4 25 -1 39 -7 18 -6 29 6 42 8 9 15 20 15 23 0 11 -73 6 -98 -7z"/>
<path d="M4491 3006 c-6 -8 -11 -18 -10 -22 4 -21 -2 -26 -16 -14 -9 7 -18 10 -22 6 -4 -3 2 -13 14 -21 l20 -14 -40 -83 c-36 -76 -40 -81 -53 -63 -8 10 -11 28 -8 38 3 11 0 39 -6 63 -11 39 -16 44 -41 44 -29 0 -38 -13 -19 -25 6 -3 10 -23 10 -43 0 -20 7 -73 15 -117 8 -44 18 -107 23 -140 5 -33 18 -90 27 -127 16 -61 20 -68 47 -74 50 -10 55 6 29 96 -14 46 -21 90 -17 105 3 14 9 37 12 53 3 15 20 56 36 91 16 35 30 73 31 84 1 10 12 30 25 44 13 14 28 37 33 51 8 21 6 30 -13 48 -31 30 -62 38 -77 20z m24 -136 c-5 -8 -11 -8 -17 -2 -6 6 -7 16 -3 22 5 8 11 8 17 2 6 -6 7 -16 3 -22z"/>
<path d="M3966 2739 c-36 -39 -41 -66 -16 -92 4 -5 6 -26 3 -46 -4 -32 -2 -39 15 -43 16 -4 19 -11 14 -34 -3 -16 -11 -38 -18 -49 -7 -11 -10 -32 -7 -47 l5 -28 147 0 c151 0 171 5 171 41 0 9 -11 24 -24 32 -29 19 -91 112 -100 150 -4 16 -17 38 -29 50 -12 12 -29 35 -37 51 -8 16 -21 30 -30 33 -8 2 -23 9 -32 14 -24 12 -21 14 -62 -32z"/>
<path d="M3113 2643 c-20 -7 -15 -58 7 -78 11 -10 20 -29 20 -42 0 -28 3 -29 40 -2 26 20 32 20 59 9 25 -10 34 -10 46 0 21 17 19 25 -12 41 -15 8 -52 29 -82 47 -57 33 -58 34 -78 25z"/>
</g>
</g>
  <g id="id3:id3" transform="matrix(1.25,0,0,1.25,0.0,0.0)"><g transform="translate(0.000000,296.000000) scale(0.040000,-0.040000)" fill="#ffffff" stroke="none">
<path d="M0 3700 l0 -3700 4960 0 4960 0 0 3700 0 3700 -4960 0 -4960 0 0 -3700z m2465 3010 c3 -5 2 -17 -4 -27 -43 -86 -71 -149 -71 -164 0 -10 -4 -21 -10 -24 -5 -3 -10 -14 -10 -24 0 -10 -6 -23 -12 -29 -10 -8 -12 -40 -8 -124 4 -97 7 -113 22 -116 12 -2 21 5 27 21 6 14 15 28 21 32 14 9 98 11 105 3 3 -3 -10 -19 -30 -36 -33 -29 -35 -35 -35 -92 0 -57 -2 -61 -27 -71 -16 -6 -38 -20 -50 -31 -27 -25 -47 -15 -38 20 4 18 -3 44 -27 91 l-33 65 0 148 c0 104 4 151 13 160 6 6 12 20 12 30 0 21 45 104 74 137 30 34 70 49 81 31z m544 -216 c-6 -7 -15 -11 -21 -8 -5 3 -4 12 3 20 6 7 15 11 21 8 5 -3 4 -12 -3 -20z m-74 -14 c-8 -13 -66 -40 -86 -40 -10 0 -21 -4 -24 -10 -3 -5 -14 -10 -25 -10 -10 0 -44 -13 -75 -30 -52 -27 -84 -32 -70 -10 7 11 172 90 188 90 7 0 17 4 23 9 10 10 55 19 67 13 4 -2 5 -7 2 -12z m885 -10 c41 -12 90 -24 108 -27 18 -3 35 -9 38 -14 3 -5 14 -9 25 -9 10 0 28 -6 39 -12 16 -10 24 -10 40 0 32 20 43 15 105 -48 49 -49 65 -60 92 -60 53 0 43 32 -37 114 -74 76 -81 98 -24 65 19 -10 47 -19 62 -19 21 0 48 -20 116 -89 l89 -89 -16 -31 c-10 -19 -14 -44 -10 -65 3 -20 1 -36 -6 -40 -6 -4 -11 -30 -11 -57 0 -47 2 -50 23 -47 16 2 21 9 19 24 -2 12 13 38 36 65 50 57 57 75 30 82 -18 5 -20 11 -14 54 9 62 35 118 48 105 5 -5 8 -44 6 -85 -2 -63 0 -77 14 -86 25 -16 28 -14 28 13 0 61 30 27 70 -79 9 -23 15 -25 66 -25 52 0 59 3 90 37 19 20 34 33 35 27 0 -5 0 -40 -1 -77 -1 -41 3 -74 11 -83 11 -13 6 -29 -9 -29 -18 0 -53 -47 -47 -65 3 -10 1 -21 -4 -24 -14 -9 -31 27 -24 52 9 37 -11 24 -41 -27 -16 -27 -44 -65 -63 -86 -18 -20 -30 -41 -27 -47 4 -6 10 -6 17 1 6 6 19 11 29 11 9 0 32 8 51 19 23 13 47 17 80 15 36 -3 47 -1 47 10 0 8 -7 16 -15 20 -19 7 -19 25 1 65 13 26 21 32 43 29 24 -3 26 -6 24 -47 -1 -24 -9 -51 -18 -61 -14 -16 -13 -20 18 -54 34 -37 57 -46 57 -23 0 7 -6 19 -12 26 -11 10 -9 15 7 27 11 8 25 12 32 10 16 -7 17 16 1 32 -7 7 -12 43 -13 90 l0 77 47 -3 47 -4 66 62 c36 33 69 58 74 56 14 -9 35 23 57 88 24 72 49 83 48 21 -1 -86 -27 -311 -36 -322 -6 -7 -29 -13 -53 -13 -30 0 -47 -6 -61 -21 -10 -12 -32 -28 -47 -36 -25 -12 -28 -19 -25 -55 2 -32 -1 -43 -17 -52 -10 -6 -26 -20 -35 -30 -18 -20 -40 -15 -40 10 0 8 -4 14 -8 14 -17 0 -21 -12 -10 -30 14 -23 3 -51 -17 -44 -19 8 -20 -10 0 -26 13 -11 20 -9 39 9 l23 21 18 -20 c17 -19 41 -18 30 1 -9 14 25 23 37 11 8 -8 7 -16 -2 -27 -11 -14 -11 -16 1 -13 8 2 13 -3 11 -9 -4 -21 13 -15 43 17 17 18 33 26 38 21 5 -5 9 -36 9 -70 0 -34 4 -61 9 -61 5 0 9 8 9 18 0 10 3 22 7 25 10 11 33 -13 33 -34 0 -11 5 -19 10 -19 6 0 10 12 10 28 1 31 40 105 55 103 6 0 11 -16 13 -35 2 -27 -2 -37 -17 -46 -12 -6 -21 -15 -21 -20 0 -10 99 -112 101 -105 1 3 2 11 3 18 0 6 17 14 36 17 l35 5 5 178 c5 162 7 180 24 193 15 10 55 14 158 14 187 0 178 11 178 -204 0 -91 4 -167 9 -170 5 -3 22 1 37 9 16 8 43 15 61 15 17 0 35 5 39 11 4 8 72 10 223 8 161 -3 222 0 239 9 24 14 21 18 57 -72 l15 -39 36 6 c37 6 97 -16 136 -51 27 -23 12 -32 -54 -32 -42 0 -67 -5 -79 -16 -13 -12 -26 -14 -51 -8 -66 15 -160 7 -223 -19 -33 -13 -97 -38 -143 -56 -45 -17 -97 -40 -115 -51 -17 -11 -40 -20 -49 -20 -9 0 -44 -32 -78 -72 l-60 -72 -1 -240 c-1 -133 -3 -338 -5 -456 -2 -120 1 -228 6 -245 8 -25 22 -36 73 -58 34 -15 66 -27 71 -27 5 0 45 -21 88 -46 98 -58 211 -162 272 -252 50 -75 113 -214 122 -273 4 -21 19 -51 35 -69 31 -33 37 -64 17 -77 -7 -4 -14 -28 -15 -53 -3 -83 -42 -254 -77 -339 -107 -256 -318 -431 -604 -501 -24 -6 -45 -17 -48 -25 -7 -17 12 -54 39 -75 17 -14 19 -28 18 -105 -1 -49 -8 -138 -16 -199 -8 -61 -17 -154 -20 -206 -7 -119 -42 -533 -56 -660 -5 -52 -16 -183 -24 -290 -23 -293 -39 -435 -50 -435 -6 0 -13 42 -16 95 -3 52 -13 176 -22 275 -9 99 -22 234 -28 300 -18 196 -37 411 -49 560 -6 77 -18 219 -26 315 -30 337 -30 318 -2 348 52 56 42 87 -33 97 -221 31 -458 197 -579 408 -49 85 -72 148 -100 277 -25 117 -25 158 0 290 24 126 24 116 3 124 -10 4 -25 -2 -38 -14 -20 -18 -23 -19 -35 -5 -7 8 -20 15 -30 15 -24 0 -48 30 -52 65 -2 24 1 29 15 27 12 -2 17 4 17 19 0 26 -37 79 -55 79 -8 0 -22 12 -32 28 -36 58 -55 72 -98 72 -23 0 -50 6 -60 14 l-19 13 21 11 c11 6 36 9 55 5 21 -3 38 -1 42 6 4 6 15 11 25 11 10 0 21 9 24 20 8 30 44 20 67 -18 11 -17 36 -40 57 -51 21 -10 48 -30 60 -43 20 -21 21 -28 11 -59 -6 -18 -17 -46 -24 -61 -16 -29 -18 -58 -6 -58 10 0 37 26 56 55 12 17 16 18 31 5 16 -13 20 -12 39 14 56 77 207 244 242 267 115 77 174 105 279 135 28 8 56 22 63 31 25 34 8 103 -26 103 -23 0 -42 19 -42 42 0 12 -8 18 -22 18 -16 1 -46 27 -98 87 -41 48 -108 123 -147 167 -68 75 -85 107 -64 120 5 3 23 -1 40 -10 22 -11 30 -21 26 -33 -3 -12 12 -33 50 -69 32 -30 55 -61 55 -73 0 -12 4 -17 11 -14 13 8 49 -23 49 -42 0 -7 15 -27 33 -43 23 -22 40 -29 60 -27 20 3 33 -3 47 -20 10 -12 21 -23 24 -23 8 0 8 104 0 124 -3 9 -10 13 -15 10 -5 -3 -33 10 -62 28 -29 19 -64 40 -79 47 -15 8 -42 27 -60 42 l-33 27 25 10 c21 8 28 6 45 -14 11 -14 34 -32 52 -42 18 -9 53 -28 78 -41 24 -14 48 -21 52 -17 8 8 9 192 2 254 -2 18 -11 37 -19 42 -22 14 -34 12 -21 -4 10 -12 8 -17 -9 -26 -11 -6 -25 -8 -31 -5 -5 4 -46 7 -90 7 -73 0 -81 2 -95 24 -14 20 -25 24 -65 24 -54 0 -66 10 -47 39 21 35 -4 46 -34 16 -22 -22 -27 -23 -38 -10 -10 13 -10 19 4 33 17 20 12 32 -13 32 -19 0 -63 44 -54 54 13 13 33 5 67 -25 l35 -30 26 17 c18 12 24 22 19 33 -4 9 -6 33 -5 54 1 27 -3 37 -13 37 -19 0 -96 40 -96 49 0 16 14 20 27 10 10 -9 13 -5 13 19 0 17 -4 34 -10 37 -5 3 -10 18 -10 33 0 14 -12 38 -27 54 -22 23 -24 30 -12 44 11 13 11 17 -1 24 -8 5 -24 16 -35 24 -19 15 -19 17 -2 30 22 17 22 22 -2 29 -14 3 -17 11 -14 29 11 60 -77 64 -147 7 -33 -28 -40 -39 -38 -64 l3 -30 -48 2 c-28 1 -45 -2 -42 -8 10 -16 -24 -22 -42 -8 -14 12 -15 12 -10 -1 4 -8 10 -23 13 -32 4 -10 12 -18 18 -18 17 0 59 -47 48 -53 -9 -6 -92 32 -118 54 -8 6 -12 15 -9 19 7 11 -22 33 -34 26 -5 -4 -28 -2 -50 3 -24 5 -43 5 -47 0 -8 -13 25 -180 40 -204 22 -35 26 -66 10 -90 -12 -19 -13 -24 0 -34 8 -7 17 -23 20 -36 3 -13 23 -34 43 -46 21 -12 54 -36 73 -53 l35 -30 3 23 c4 23 49 48 62 34 4 -4 13 -25 20 -46 15 -48 2 -69 -30 -49 -29 18 -32 15 -14 -13 16 -24 15 -27 -1 -45 -9 -10 -23 -16 -30 -13 -8 2 -26 -7 -40 -21 -21 -21 -24 -29 -14 -44 16 -25 5 -52 -20 -52 -23 0 -77 98 -61 114 5 5 14 6 22 0 7 -5 22 -9 33 -9 15 0 21 8 23 31 3 27 -1 32 -25 37 -15 3 -32 1 -38 -4 -5 -5 -17 -9 -27 -9 -11 0 -18 -7 -18 -19 0 -11 -4 -22 -9 -25 -15 -10 -33 22 -26 44 5 15 1 26 -12 36 -17 13 -17 15 0 28 11 9 17 27 17 55 0 36 -3 41 -17 37 -36 -11 -47 10 -59 107 -9 65 -21 111 -39 148 -37 72 -65 155 -65 193 -1 50 -46 191 -62 194 -9 2 -22 -11 -31 -30 -14 -30 -16 -107 -16 -647 0 -465 -2 -616 -12 -627 -9 -11 -37 -14 -127 -13 -97 1 -116 -1 -124 -15 -14 -25 -35 -19 -55 14 -17 29 -33 39 -33 21 0 -11 -74 -62 -133 -93 -101 -51 -217 -142 -217 -170 0 -4 15 -14 33 -23 38 -18 117 -88 117 -104 0 -12 -173 -200 -197 -214 -16 -10 -66 8 -84 30 -34 40 -209 91 -269 78 -35 -8 -138 -108 -202 -198 -26 -37 -48 -71 -48 -75 0 -4 -15 -22 -32 -39 -29 -28 -42 -33 -110 -39 -46 -4 -83 -12 -89 -20 -6 -8 -13 -34 -15 -59 -2 -26 -6 -51 -10 -56 -9 -15 -44 20 -44 43 0 25 -26 33 -56 17 -24 -12 -25 -17 -23 -86 1 -40 -2 -78 -8 -85 -5 -7 -13 -21 -17 -32 l-6 -19 -20 18 c-32 29 -47 6 -31 -47 8 -24 15 -49 17 -55 2 -7 11 -13 20 -13 14 0 16 7 11 40 -5 39 5 61 18 40 3 -5 16 -10 29 -10 41 0 63 -49 34 -78 -19 -19 3 -32 45 -25 26 4 36 10 35 21 -2 11 5 16 24 16 20 0 46 -21 113 -89 48 -50 91 -98 96 -108 6 -10 15 -17 22 -15 7 1 46 -6 87 -16 84 -21 245 -24 309 -6 22 6 47 20 56 33 15 22 19 92 6 137 l-7 25 -77 0 c-42 1 -81 5 -86 10 -6 6 -11 62 -13 126 -3 103 -1 119 16 137 l18 21 219 -1 c146 -1 223 -5 229 -12 9 -12 33 -79 45 -131 10 -42 6 -537 -5 -550 -5 -6 -31 -21 -57 -33 -26 -13 -65 -32 -85 -42 -20 -11 -50 -20 -65 -20 -16 0 -38 -7 -50 -15 -41 -29 -195 -48 -342 -42 -147 5 -184 15 -245 62 -90 70 -88 67 -71 99 21 39 19 98 -5 149 -16 33 -28 45 -57 54 -42 13 -63 4 -63 -28 0 -12 7 -19 19 -19 10 0 24 -6 30 -14 10 -12 8 -17 -10 -26 -29 -16 -21 -67 20 -119 49 -61 14 -71 -59 -15 -25 18 -63 46 -85 60 -83 55 -140 119 -182 204 -7 14 -17 32 -22 40 -29 45 -41 83 -30 96 6 8 11 41 12 75 0 52 3 62 21 69 12 4 29 17 40 29 10 11 22 18 26 16 14 -9 32 24 25 45 -5 15 -15 20 -40 20 -32 0 -55 -17 -89 -64 -17 -24 -43 -15 -56 19 -5 14 -8 64 -6 112 2 77 5 88 27 106 16 13 24 30 24 51 1 21 5 30 15 28 20 -5 40 26 40 60 0 31 -11 36 -30 13 -18 -21 -27 -11 -22 25 2 16 1 56 -3 87 -6 46 -13 63 -41 91 -31 31 -38 34 -74 28 -36 -6 -41 -4 -71 33 -23 30 -46 44 -86 57 -29 9 -56 21 -59 25 -2 4 5 25 16 46 25 48 25 55 -5 114 -25 50 -24 52 11 50 24 -2 52 26 57 60 4 20 9 23 32 21 15 -2 38 4 52 13 13 9 31 14 39 11 42 -16 12 92 -34 122 l-23 15 -42 -41 c-24 -23 -48 -42 -54 -42 -6 0 -27 -19 -47 -41 -36 -43 -60 -47 -73 -12 -3 10 -12 25 -20 35 -8 9 -13 29 -11 45 3 26 7 29 54 34 62 8 74 14 74 40 0 12 -7 19 -19 19 -11 0 -23 5 -26 10 -11 17 -46 11 -65 -12 l-17 -22 -11 21 -11 21 -56 -16 c-81 -23 -89 -5 -21 47 85 65 106 109 65 132 l-22 11 43 39 c33 31 46 37 56 28 18 -15 17 -42 -1 -103 -20 -67 -19 -72 16 -86 22 -10 33 -10 42 -1 6 6 38 11 71 11 66 0 96 17 96 55 0 13 7 29 16 36 27 22 37 61 35 128 -2 46 -8 72 -22 89 -25 32 -24 41 6 52 15 6 23 15 19 24 -7 18 -39 27 -52 14 -6 -6 -16 -7 -22 -3 -8 5 -9 10 -1 18 6 6 11 24 11 39 0 36 25 47 59 25 14 -9 41 -24 59 -32 28 -13 32 -20 32 -55 0 -21 -4 -42 -10 -45 -18 -11 -11 -34 20 -62 16 -14 30 -32 30 -39 0 -7 9 -18 21 -25 15 -8 18 -14 10 -22 -6 -6 -11 -20 -11 -30 0 -10 -9 -21 -20 -24 -15 -4 -20 -14 -20 -38 0 -27 6 -37 35 -54 34 -20 47 -53 25 -66 -15 -9 -50 -90 -50 -115 0 -11 -11 -31 -25 -44 -30 -28 -34 -66 -6 -66 11 0 25 13 35 33 13 28 28 38 88 62 40 15 85 38 99 52 36 33 41 20 13 -35 -27 -53 -31 -94 -10 -111 8 -7 36 -11 63 -9 l48 3 0 -64 c0 -81 20 -93 29 -19 10 77 27 98 79 98 66 -1 120 -17 142 -43 47 -58 84 -59 161 -9 33 21 75 45 94 52 76 28 88 35 108 65 12 17 27 58 33 91 7 32 16 65 22 72 13 17 52 15 67 -3 7 -9 21 -13 31 -10 14 5 22 -1 29 -19 12 -33 54 -35 87 -4 20 19 23 31 23 100 l0 79 -27 -3 c-21 -2 -29 2 -31 17 -2 11 -10 27 -18 36 -20 23 -8 29 58 29 63 0 82 16 60 50 -13 22 -6 30 26 30 15 0 26 -7 29 -20 6 -23 34 -26 63 -8 17 11 24 8 49 -16 l29 -28 -24 -44 c-14 -25 -25 -63 -27 -91 l-2 -48 50 4 c71 5 132 42 141 87 11 61 0 402 -14 416 -14 14 -16 70 -3 83 6 6 14 37 20 70 13 85 26 113 53 117 31 4 37 43 9 58 -12 6 -21 18 -21 27 0 9 -8 25 -17 35 -23 25 -4 43 42 40 29 -2 35 1 41 23 9 37 -12 58 -53 52 -35 -6 -51 6 -34 27 11 13 42 29 158 81 46 21 82 49 135 103 64 67 73 73 84 57 9 -13 20 -15 43 -10 17 4 33 11 36 16 12 18 46 9 57 -17 9 -19 9 -33 1 -55 -12 -32 -3 -38 21 -13 12 11 16 35 16 88 0 58 4 76 18 89 14 13 21 14 30 5 15 -15 48 14 67 58 17 42 27 107 18 119 -24 31 -97 47 -105 23 -3 -7 8 -23 24 -36 29 -25 34 -41 19 -70 -5 -9 -14 -30 -20 -45 l-11 -28 -61 66 c-77 81 -96 84 -159 20 -35 -35 -50 -45 -67 -40 -19 4 -24 0 -31 -27 -7 -28 -13 -34 -41 -36 -35 -4 -86 22 -76 38 4 6 20 10 37 10 27 0 30 3 26 25 -4 20 2 29 33 50 31 20 39 32 39 55 0 32 -15 46 -47 42 -11 -2 -24 2 -28 7 -9 15 -47 13 -69 -4 -46 -34 -50 37 -6 102 32 46 39 83 17 83 -8 0 -24 11 -37 25 -25 27 -74 55 -96 55 -6 0 -38 14 -69 30 -31 17 -65 30 -75 30 -11 0 -22 5 -25 10 -3 6 -17 10 -30 10 -13 0 -27 5 -30 10 -3 6 -17 10 -29 10 -26 0 -50 22 -38 34 11 12 89 1 172 -24z m808 -81 c-3 -101 -21 -127 -26 -37 -1 29 -5 60 -9 68 -13 32 10 91 29 72 5 -5 7 -51 6 -103z m-1714 -470 c-3 -5 -10 -7 -15 -3 -5 3 -7 10 -3 15 3 5 10 7 15 3 5 -3 7 -10 3 -15z m-37 -1 c4 -7 8 -29 8 -48 0 -24 6 -37 20 -45 45 -23 46 -25 29 -50 -10 -16 -29 -26 -57 -30 -24 -4 -49 -16 -58 -27 -17 -22 -39 -17 -39 9 0 13 -8 14 -52 8 -29 -5 -78 -11 -108 -14 l-55 -6 -1 -45 c-1 -50 -24 -67 -44 -31 -13 24 -48 28 -56 6 -9 -24 24 -85 46 -85 25 0 29 -8 23 -48 -6 -39 -71 -90 -96 -75 -38 22 -130 164 -125 195 4 26 26 36 33 14 20 -65 69 -141 93 -144 19 -3 22 1 22 32 0 24 -7 42 -20 53 -25 22 -25 44 -1 74 14 17 16 27 8 40 -16 26 -1 46 40 52 81 12 109 19 153 39 25 11 50 21 55 22 6 1 26 12 45 24 19 12 50 27 68 33 20 6 32 17 32 28 0 30 22 41 37 19z m585 -37 c14 -25 16 -36 8 -46 -6 -8 -10 -26 -8 -42 2 -22 8 -28 28 -28 20 0 25 5 25 27 1 37 22 59 30 32 11 -32 37 -78 58 -102 15 -16 18 -25 10 -33 -14 -14 -259 -15 -276 -1 -7 5 -21 6 -32 2 -19 -7 -117 10 -168 29 -19 8 -27 17 -25 29 4 18 35 20 73 3 38 -17 76 -31 81 -31 3 0 3 9 -1 19 -4 15 4 26 37 48 23 16 47 37 53 48 22 43 60 86 74 83 8 -2 23 -18 33 -37z m-1677 -30 c31 -6 33 -10 84 -121 48 -106 58 -133 65 -184 4 -27 13 -57 19 -67 8 -13 8 -24 -2 -41 -7 -14 -11 -44 -9 -69 3 -39 6 -44 28 -44 20 0 24 4 22 22 -2 12 2 24 8 28 18 11 40 -17 51 -62 9 -43 -5 -87 -36 -113 -19 -16 -38 -58 -69 -154 -9 -27 -36 -2 -36 33 0 15 -4 31 -8 37 -5 5 -15 41 -22 79 -7 39 -22 87 -33 108 -17 34 -23 38 -46 32 -14 -4 -34 -13 -43 -22 -22 -20 -38 -9 -38 27 0 16 -4 32 -10 35 -5 3 -10 19 -10 35 0 16 5 32 10 35 14 9 13 58 -2 73 -9 9 -9 15 0 24 7 7 8 17 1 30 -14 25 -29 23 -29 -5 0 -13 -3 -26 -6 -30 -8 -8 -63 27 -80 52 -8 11 -22 21 -29 21 -15 0 -87 141 -99 193 -12 52 2 57 153 56 75 -1 149 -4 166 -8z m1130 -201 c11 -17 -5 -32 -21 -19 -7 6 -11 15 -8 20 7 12 21 11 29 -1z m-260 -40 c9 -14 -44 -45 -56 -33 -7 7 -3 16 12 27 27 18 35 20 44 6z m636 -11 c11 -6 15 -17 12 -34 -4 -19 3 -35 30 -64 19 -22 40 -49 47 -60 13 -26 65 -28 92 -4 13 11 22 13 29 6 7 -7 5 -14 -5 -22 -8 -7 -13 -18 -10 -26 3 -7 -9 -23 -26 -35 l-31 -22 -77 39 c-70 35 -77 41 -74 65 2 15 -3 42 -11 60 -8 18 -17 41 -21 51 -3 9 -15 17 -26 17 -28 0 -62 19 -55 30 7 11 104 10 126 -1z m406 -11 c13 -12 23 -27 23 -33 0 -19 -38 -48 -54 -42 -9 4 -18 2 -21 -4 -12 -18 -25 2 -25 40 0 61 35 79 77 39z m3289 -34 c2 -26 11 -55 19 -65 10 -10 12 -20 7 -23 -5 -3 -15 1 -22 9 -11 13 -15 11 -32 -10 -11 -14 -27 -25 -35 -25 -9 0 -24 -7 -33 -15 -16 -14 -21 -11 -59 30 -35 38 -40 48 -31 65 12 22 35 26 46 9 4 -7 20 2 43 25 33 32 80 59 90 50 2 -1 5 -24 7 -50z m-4149 22 c24 -20 25 -26 14 -40 -7 -9 -21 -16 -31 -16 -10 0 -20 -9 -23 -20 -6 -23 -29 -26 -46 -6 -8 10 -9 16 -1 21 5 3 10 21 10 39 0 18 3 36 7 39 13 14 43 6 70 -17z m544 9 c0 -5 -7 -12 -16 -13 -23 -5 -47 6 -40 19 8 13 56 8 56 -6z m-699 -114 c10 -8 -83 -81 -95 -74 -7 4 0 68 9 85 5 8 75 -1 86 -11z m4380 -73 c-9 -9 -15 -9 -23 -1 -7 7 -9 20 -5 29 6 16 8 16 23 1 13 -13 15 -19 5 -29z m-5829 -25 c4 -3 2 -12 -4 -20 -9 -10 -15 -10 -25 -2 -8 6 -11 15 -8 20 6 11 28 12 37 2z m5733 -24 c3 -6 1 -16 -5 -22 -6 -6 -11 -19 -11 -29 0 -24 -23 -32 -50 -18 -19 10 -20 14 -7 28 8 9 17 25 20 35 7 19 42 23 53 6z m-5806 -55 c9 -26 17 -34 36 -34 17 0 24 6 24 19 0 25 18 37 33 22 6 -6 21 -11 33 -11 29 0 38 -14 23 -38 -9 -14 -8 -33 3 -82 l14 -65 35 -5 c48 -7 52 -41 9 -85 -35 -36 -37 -68 -4 -73 11 -2 28 6 39 18 11 12 31 20 51 20 54 0 64 19 64 120 0 74 3 91 17 99 10 5 18 17 18 27 0 22 28 39 50 30 17 -6 17 -8 -4 -29 -26 -29 -26 -37 -1 -82 22 -39 26 -70 10 -80 -5 -3 -10 -24 -10 -46 l0 -39 36 0 c27 0 37 -5 41 -20 4 -13 14 -20 29 -20 15 0 27 -7 30 -17 3 -10 9 -25 14 -34 9 -18 -25 -50 -68 -63 -18 -6 -24 -1 -38 28 -18 36 -47 53 -99 58 -27 3 -30 0 -33 -27 -2 -22 5 -39 30 -65 47 -51 56 -70 45 -103 -13 -39 -3 -57 33 -57 17 0 38 -4 48 -9 9 -5 25 -12 35 -15 22 -7 13 -24 -19 -36 -20 -8 -24 -16 -24 -50 0 -24 5 -42 13 -44 48 -15 49 -16 37 -31 -6 -7 -24 -15 -38 -17 -23 -3 -27 -8 -30 -39 -4 -46 -26 -67 -77 -71 l-40 -3 -3 38 c-3 33 -7 39 -32 44 -16 3 -37 14 -46 24 -21 23 -12 27 71 31 l60 3 0 35 c0 32 -3 35 -40 42 -81 16 -85 18 -99 53 -11 26 -21 35 -39 35 -14 0 -30 7 -38 16 -9 11 -22 14 -43 10 -29 -5 -84 8 -115 28 -7 5 -43 11 -80 13 -72 5 -129 26 -138 50 -4 10 5 24 26 40 34 27 38 42 19 76 -18 31 -28 37 -66 37 -40 0 -52 23 -26 53 32 37 44 65 44 100 0 18 5 38 12 45 9 9 9 18 0 36 -9 20 -7 33 13 73 20 40 30 49 57 53 23 3 34 11 36 25 11 56 42 50 62 -11z m2536 6 c-3 -17 2 -42 14 -65 23 -46 19 -55 -24 -55 -23 0 -41 9 -60 29 -25 26 -26 32 -15 52 15 30 71 79 83 72 4 -3 6 -18 2 -33z m-1220 5 c9 -23 39 -27 78 -9 30 15 40 16 59 5 20 -11 29 -10 55 3 32 17 97 22 105 9 3 -5 -5 -26 -17 -48 -18 -32 -30 -41 -57 -45 l-34 -5 -3 -70 c-1 -38 -5 -77 -9 -85 -3 -8 -5 -19 -4 -23 1 -5 -12 -37 -29 -72 -16 -34 -30 -66 -30 -71 0 -4 -7 -15 -15 -24 -13 -14 -22 -15 -55 -7 -34 10 -42 9 -53 -7 -12 -16 -15 -14 -42 26 -16 23 -38 50 -48 59 -14 11 -16 18 -8 23 6 4 11 15 11 25 0 25 25 44 74 56 52 14 55 39 6 43 -19 2 -53 4 -75 6 -57 5 -57 4 -45 26 7 13 21 20 43 20 18 0 41 7 51 15 11 8 35 15 53 15 30 0 33 3 33 30 0 33 -9 36 -73 21 -41 -10 -56 1 -37 24 7 8 9 22 6 31 -4 9 -1 23 5 30 15 18 48 18 55 -1z m2389 6 c7 -12 -12 -24 -25 -16 -11 7 -4 25 10 25 5 0 11 -4 15 -9z m15 -55 c0 -13 10 -30 22 -38 24 -16 19 -52 -6 -42 -12 5 -15 -3 -13 -38 2 -32 -2 -43 -13 -43 -20 0 -36 128 -21 168 12 32 31 27 31 -7z m-1866 -71 c18 -27 8 -71 -19 -81 -10 -4 -13 -14 -9 -29 5 -18 -1 -26 -27 -39 -18 -9 -36 -13 -41 -8 -17 17 -13 88 7 118 11 16 20 33 20 37 0 10 26 27 41 27 7 0 19 -11 28 -25z m1890 -126 c-3 -5 -10 -7 -15 -3 -5 3 -7 10 -3 15 3 5 10 7 15 3 5 -3 7 -10 3 -15z m-1180 -50 c-3 -5 -10 -7 -15 -3 -5 3 -7 10 -3 15 3 5 10 7 15 3 5 -3 7 -10 3 -15z m1249 -68 c5 -5 -2 -16 -16 -25 -23 -15 -27 -15 -71 4 -63 27 -52 45 23 36 31 -4 60 -11 64 -15z m-2858 -10 c7 -12 -12 -24 -25 -16 -11 7 -4 25 10 25 5 0 11 -4 15 -9z m2898 -30 c-2 -6 3 -11 11 -11 22 0 30 -19 16 -35 -16 -19 -64 -19 -79 -2 -14 17 -4 28 17 19 14 -5 15 -3 5 9 -10 12 -10 18 -1 27 14 14 34 10 31 -7z m-1850 -96 c15 -1 30 -4 33 -8 7 -7 -45 -84 -75 -111 -11 -11 -21 -31 -21 -46 0 -70 -55 -185 -84 -174 -7 3 -37 -13 -67 -36 -46 -35 -56 -38 -65 -25 -6 8 -20 15 -31 15 -27 0 -34 9 -21 30 9 14 9 22 -1 34 -15 18 -47 21 -56 6 -14 -23 -23 2 -9 28 7 15 14 35 14 44 0 16 48 58 67 58 4 0 14 9 21 20 7 11 20 20 29 20 9 0 27 10 40 22 20 19 27 20 43 10 11 -7 33 -12 49 -12 26 0 29 3 27 25 -1 14 -6 28 -9 32 -14 13 -7 54 11 59 9 3 24 9 32 14 8 5 22 6 30 3 8 -4 27 -7 43 -8z m1320 -25 c-3 -17 0 -36 6 -43 8 -11 7 -18 -7 -31 -10 -9 -22 -13 -25 -9 -12 11 -8 98 5 111 18 18 28 4 21 -28z m-1977 -14 c17 -14 18 -17 4 -42 -8 -15 -19 -27 -25 -26 -19 2 -33 36 -24 60 10 26 18 27 45 8z m792 1 c13 -15 1 -74 -14 -69 -17 6 -37 49 -31 66 8 19 30 21 45 3z m1793 -120 c-7 -7 -15 -6 -25 3 -22 17 -9 32 16 19 14 -8 17 -14 9 -22z m274 -7 c-5 -8 -11 -8 -17 -2 -6 6 -7 16 -3 22 5 8 11 8 17 2 6 -6 7 -16 3 -22z m-807 -6 c28 -19 21 -33 -13 -26 -14 2 -32 -1 -40 -8 -16 -13 -21 -35 -6 -25 17 10 21 -12 6 -25 -13 -10 -19 -9 -35 5 -23 20 -24 32 -10 69 8 21 16 26 43 26 18 0 43 -7 55 -16z m38 -106 c13 -20 22 -44 19 -53 -3 -8 -7 -22 -10 -31 -7 -23 -35 1 -35 31 0 12 -9 30 -20 40 -19 18 -27 55 -13 68 9 10 32 -12 59 -55z m78 -18 c-14 -14 -39 14 -29 31 5 8 12 6 23 -5 11 -11 13 -19 6 -26z m-184 -24 c-13 -13 -35 7 -25 24 5 8 11 8 21 -1 10 -8 12 -15 4 -23z m2165 -16 c10 -11 26 -20 35 -20 19 0 73 -53 64 -63 -3 -3 -14 -1 -25 6 -28 17 -33 3 -21 -59 13 -62 10 -74 -18 -74 -26 0 -32 -14 -19 -44 16 -35 -12 -96 -45 -96 -33 0 -68 -42 -64 -76 3 -26 7 -29 38 -30 19 0 46 -6 59 -13 13 -8 38 -14 55 -15 37 -2 46 -28 21 -56 -27 -29 -12 -50 34 -50 40 0 61 -13 41 -25 -14 -9 -13 -68 2 -83 7 -7 23 -12 36 -12 16 0 26 -7 29 -21 5 -16 12 -20 31 -16 44 8 72 -8 72 -42 0 -16 5 -33 10 -36 17 -11 11 -44 -10 -55 -28 -15 -25 -37 5 -44 33 -8 47 1 40 25 -8 23 20 37 44 22 21 -13 23 -92 4 -115 -8 -9 -13 -24 -11 -35 2 -13 -3 -18 -22 -18 -14 0 -51 -6 -83 -13 -45 -11 -57 -17 -55 -30 2 -9 5 -16 8 -16 3 1 31 5 63 9 41 5 62 4 73 -6 14 -11 13 -15 -8 -31 -13 -9 -35 -18 -49 -18 -36 0 -99 -27 -106 -46 -10 -26 26 -54 69 -54 41 0 68 21 87 66 8 18 17 20 69 19 68 -2 85 -12 113 -68 18 -35 23 -38 56 -35 41 3 54 -13 25 -34 -10 -7 -21 -21 -25 -30 -3 -10 -13 -18 -21 -18 -9 0 -20 -9 -26 -20 -6 -11 -21 -20 -35 -20 -13 0 -27 -4 -30 -10 -3 -5 -16 -10 -29 -10 -12 0 -27 -5 -34 -12 -9 -9 -15 -9 -24 0 -14 14 -28 16 -28 3 0 -5 9 -11 20 -14 11 -3 20 -12 20 -21 0 -8 -9 -20 -20 -26 -23 -12 -26 -38 -6 -54 8 -6 17 -28 20 -49 6 -34 5 -39 -14 -44 -20 -5 -21 -11 -16 -46 4 -23 12 -47 17 -54 6 -7 13 -77 16 -155 6 -161 2 -172 -59 -166 -25 2 -32 7 -30 21 4 23 -29 22 -96 -3 -29 -11 -73 -20 -97 -20 -38 0 -47 4 -54 23 -10 24 -7 207 4 277 9 56 46 91 84 80 24 -6 26 -11 26 -61 0 -41 4 -54 16 -57 27 -5 38 21 48 112 14 120 11 124 -87 128 -60 2 -77 6 -77 18 0 10 12 16 35 18 53 4 66 31 40 82 -11 22 -26 40 -33 40 -7 0 -23 14 -35 30 l-23 30 -36 -15 c-55 -23 -91 -20 -105 10 -17 38 3 74 39 72 22 -2 29 3 31 21 2 14 -2 22 -12 22 -20 0 -31 19 -17 33 15 15 14 42 -3 56 -8 7 -16 31 -19 54 -5 37 -21 131 -43 248 -4 25 -14 40 -30 48 -23 10 -31 31 -18 44 3 3 23 -3 44 -14 33 -17 41 -18 59 -7 12 7 21 18 21 25 0 7 7 16 16 21 26 14 10 58 -24 70 -17 6 -35 6 -44 1 -22 -12 -88 16 -88 38 0 20 -28 53 -45 53 -7 0 -18 7 -25 16 -11 13 -10 16 8 21 28 7 28 19 -4 60 -21 27 -23 37 -14 48 7 8 23 15 36 15 20 0 24 5 24 29 0 21 -6 30 -21 34 -17 5 -18 9 -10 26 6 12 16 30 21 41 6 11 10 29 10 39 0 11 5 23 10 26 6 3 10 28 10 55 0 27 5 52 10 55 6 4 8 16 5 27 -5 14 -1 21 14 25 11 3 27 16 36 29 19 29 46 31 70 4z m-1997 -23 c-1 -12 1 -28 5 -34 5 -7 5 -18 2 -23 -8 -13 -26 -3 -24 13 1 7 -1 20 -5 30 -10 21 0 50 15 42 5 -4 9 -17 7 -28z m-2014 -8 c-3 -5 -10 -7 -15 -3 -5 3 -7 10 -3 15 3 5 10 7 15 3 5 -3 7 -10 3 -15z m1870 0 c-3 -5 -10 -7 -15 -3 -5 3 -7 10 -3 15 3 5 10 7 15 3 5 -3 7 -10 3 -15z m52 -10 c3 -6 -3 -21 -15 -32 -16 -16 -23 -19 -33 -9 -9 9 -7 16 7 32 20 23 31 25 41 9z m-62 -8 c3 -5 -1 -14 -8 -20 -16 -13 -32 2 -21 19 8 12 22 13 29 1z m980 -32 c-3 -5 -10 -7 -15 -3 -5 3 -7 10 -3 15 3 5 10 7 15 3 5 -3 7 -10 3 -15z m-763 -42 c-7 -7 -15 -6 -25 3 -22 17 -9 32 16 19 14 -8 17 -14 9 -22z m-86 -5 c7 -16 19 -22 42 -22 57 0 48 -34 -13 -45 -39 -8 -96 27 -87 52 16 47 41 53 58 15z m-69 -3 c10 -17 -13 -36 -27 -22 -12 12 -4 33 11 33 5 0 12 -5 16 -11z m2447 -29 c3 -11 1 -22 -3 -25 -12 -7 -33 32 -25 45 9 14 21 5 28 -20z m-4229 -1 c-3 -5 -10 -7 -15 -3 -5 3 -7 10 -3 15 3 5 10 7 15 3 5 -3 7 -10 3 -15z m1984 -16 c5 -17 -26 -29 -40 -15 -6 6 -7 15 -3 22 9 14 37 9 43 -7z m3098 -35 c11 -13 28 -35 37 -50 15 -24 24 -28 67 -28 27 0 52 -5 55 -10 4 -6 10 -8 15 -5 4 3 13 -2 20 -9 6 -8 36 -18 65 -21 42 -6 58 -13 70 -31 14 -21 23 -24 80 -24 49 0 65 3 65 14 0 45 62 38 74 -9 4 -17 13 -25 27 -25 31 0 224 -96 294 -145 33 -24 69 -44 79 -46 11 -2 27 -17 36 -34 21 -37 62 -42 65 -8 1 12 21 47 45 79 l42 56 -11 38 c-18 61 -13 102 18 152 38 59 75 84 138 93 46 6 54 4 60 -12 3 -10 19 -37 35 -61 21 -30 28 -52 26 -75 l-3 -32 73 -3 c85 -3 95 -14 62 -67 -18 -29 -25 -33 -36 -24 -8 6 -14 17 -14 23 0 21 -66 6 -78 -17 -26 -52 -16 -87 24 -87 14 0 34 -5 45 -11 16 -8 18 -13 8 -25 -6 -8 -18 -14 -26 -14 -14 0 -132 -118 -133 -133 0 -4 -15 -29 -33 -55 -18 -26 -45 -72 -61 -102 -16 -30 -37 -64 -47 -76 -11 -11 -19 -24 -19 -29 0 -11 -66 -110 -102 -153 -16 -18 -28 -42 -28 -52 0 -26 31 -26 55 0 19 21 50 27 59 11 3 -5 -4 -15 -17 -24 -35 -23 -137 -124 -137 -136 0 -6 14 -11 30 -11 32 0 70 -30 70 -54 0 -19 -17 -29 -25 -16 -3 5 -19 10 -36 10 l-29 0 -2 -47 c-3 -107 0 -264 6 -363 14 -204 -17 -234 -138 -133 -22 18 -43 33 -47 33 -12 0 -50 18 -94 44 -46 28 -51 47 -40 163 6 68 9 73 37 88 17 8 39 15 50 15 13 0 18 7 18 28 0 28 -33 52 -71 52 -23 0 -34 19 -20 33 15 15 14 62 -1 74 -7 6 -26 13 -41 17 -23 5 -35 1 -63 -24 -30 -26 -42 -30 -93 -30 l-57 0 -80 -60 c-80 -61 -175 -113 -229 -126 -17 -4 -37 -13 -47 -21 -18 -16 -73 -14 -73 2 0 6 10 11 23 13 18 3 22 10 22 41 0 40 30 71 80 84 19 5 25 13 27 38 l2 32 -46 -7 c-25 -3 -58 -6 -74 -6 -28 0 -42 -18 -63 -82 -3 -10 -12 -18 -19 -18 -8 0 -20 -17 -26 -38 -11 -33 -11 -43 4 -71 20 -40 26 -164 7 -182 -10 -11 -19 -10 -48 0 -29 11 -39 10 -57 -2 -20 -13 -26 -13 -42 -1 -19 14 -55 19 -55 8 0 -3 9 -18 20 -34 31 -43 11 -43 -36 0 -24 22 -50 40 -58 40 -19 0 -40 36 -32 55 3 8 -8 27 -24 43 -17 17 -31 45 -35 68 -4 21 -20 53 -35 69 -57 62 -72 112 -61 210 7 57 14 81 31 98 22 22 25 23 52 10 25 -13 33 -13 62 1 19 9 40 16 48 16 8 0 43 -29 78 -65 35 -36 70 -65 78 -63 38 8 41 68 4 68 -23 0 -48 25 -34 34 6 3 39 -5 74 -18 48 -18 68 -22 82 -14 11 6 49 8 90 5 44 -3 99 1 144 10 83 17 103 14 95 -16 -4 -16 -1 -21 15 -21 43 0 128 24 148 42 11 10 29 18 39 18 10 0 27 8 38 17 l19 18 13 -19 c9 -12 21 -17 35 -13 13 3 24 -1 30 -14 14 -25 26 -24 54 6 l23 24 38 -26 c33 -22 49 -26 103 -25 35 1 72 -3 83 -9 31 -16 53 -4 39 21 -9 16 -21 20 -61 20 -39 0 -51 4 -55 18 -3 9 -10 25 -15 34 -5 10 -9 34 -9 53 0 28 -4 35 -19 35 -11 0 -23 -4 -26 -10 -11 -17 -37 -11 -42 10 -6 22 -23 26 -40 9 -9 -9 -18 -5 -38 15 -28 28 -55 34 -55 12 0 -8 -12 -29 -26 -46 -33 -39 -53 -27 -30 18 33 65 11 77 -81 46 -76 -26 -217 -63 -225 -58 -3 2 -1 18 5 34 8 22 8 33 0 41 -8 8 -17 1 -33 -31 l-22 -43 -53 53 c-42 41 -55 49 -63 38 -57 -70 -158 -182 -177 -194 -20 -13 -28 -13 -78 6 -30 11 -61 28 -68 36 -8 10 -21 13 -36 9 -14 -3 -39 3 -66 17 -23 12 -49 21 -58 20 -23 -4 -45 26 -31 40 7 7 12 30 12 52 l0 39 -18 -16 c-23 -21 -51 -22 -58 -2 -3 8 3 31 14 52 11 21 26 54 33 73 7 19 23 52 36 72 13 21 23 46 23 57 0 11 5 23 10 26 6 4 8 11 4 16 -3 5 2 21 11 35 9 14 15 37 13 52 -3 25 -7 27 -48 27 -39 0 -45 3 -48 22 -2 12 -25 38 -53 59 -27 21 -49 45 -49 54 0 9 -13 29 -30 45 -23 22 -27 32 -19 42 16 18 38 16 46 -4 10 -30 45 -63 66 -63 10 0 21 -9 24 -19 3 -11 13 -21 23 -24 13 -3 17 -11 13 -26 -4 -16 -1 -21 16 -21 12 0 30 -4 41 -10 11 -5 29 -14 40 -20 11 -5 28 -10 38 -10 10 0 23 -5 29 -11 15 -15 63 -3 63 15 0 8 -16 15 -40 19 -21 3 -52 14 -69 26 -16 12 -38 21 -49 21 -12 0 -30 13 -42 30 -12 16 -24 29 -28 28 -12 -3 -113 103 -107 113 8 12 102 12 110 -1 3 -5 19 -10 35 -10 16 0 32 5 35 10 11 17 25 11 35 -15 5 -14 27 -32 53 -44 24 -11 50 -27 57 -36 7 -8 19 -15 27 -15 7 0 16 -7 19 -15 7 -18 35 -20 51 -4 7 7 27 13 46 15 30 2 41 -3 76 -42 50 -53 81 -58 81 -15 0 25 -4 30 -27 33 -24 3 -28 8 -31 38 -2 19 -8 40 -14 47 -13 16 -2 33 21 33 23 0 75 -26 91 -45 7 -8 28 -15 46 -15 31 0 34 3 34 30 0 20 -5 30 -15 30 -8 0 -30 9 -50 20 -20 11 -40 20 -46 20 -6 0 -24 9 -40 21 -39 28 -83 23 -87 -10 -6 -37 -33 -74 -45 -62 -6 6 -19 11 -28 11 -27 0 -98 41 -114 66 -11 17 -12 30 -5 48 8 21 17 25 57 28 45 3 48 5 51 33 4 34 47 85 72 85 9 0 25 -10 36 -22z m-772 -9 c-3 -5 -10 -7 -15 -3 -5 3 -7 10 -3 15 3 5 10 7 15 3 5 -3 7 -10 3 -15z m-216 -201 c31 -31 -6 -82 -55 -76 -22 2 -29 9 -31 31 -2 16 2 35 9 43 14 17 60 19 77 2z m-2945 -27 c13 -26 13 -31 -1 -45 -14 -14 -14 -19 3 -58 10 -24 25 -51 33 -60 29 -34 81 -17 108 33 22 43 38 24 41 -45 3 -72 26 -126 53 -126 11 0 23 -8 26 -17 3 -10 12 -30 19 -44 8 -14 12 -35 9 -46 -8 -28 28 -101 65 -137 17 -17 31 -38 31 -48 0 -11 7 -32 15 -49 9 -16 13 -33 11 -38 -3 -5 6 -20 20 -34 18 -18 23 -32 19 -49 -4 -16 -1 -29 9 -37 9 -7 18 -38 22 -72 4 -32 13 -64 20 -70 8 -6 14 -19 14 -29 0 -9 10 -30 21 -44 18 -23 24 -25 35 -14 19 20 144 263 144 281 0 9 8 20 17 26 10 5 14 13 10 17 -4 4 0 16 10 26 9 10 13 18 8 18 -4 0 -2 7 5 15 7 8 14 31 15 50 1 19 10 44 19 54 16 17 20 18 46 4 41 -20 44 -29 21 -66 -36 -56 -81 -149 -76 -157 3 -4 -2 -14 -11 -21 -8 -7 -50 -83 -91 -168 -63 -129 -77 -166 -81 -216 l-4 -61 40 -27 c35 -25 50 -28 141 -32 60 -2 108 -8 116 -15 22 -18 22 -272 0 -290 -19 -16 -909 -17 -928 -1 -17 14 -18 1094 -1 1111 7 7 23 5 55 -9 54 -24 100 -16 149 25 37 31 38 53 5 84 l-26 24 -46 -17 c-40 -15 -48 -15 -62 -3 -9 8 -29 16 -46 18 -28 3 -30 7 -35 50 -3 26 -2 55 3 63 5 10 4 21 -4 31 -19 23 -5 244 16 244 2 0 10 -13 18 -29z m1118 -6 c0 -5 -7 -12 -16 -13 -23 -5 -47 6 -40 19 8 13 56 8 56 -6z m2137 -47 c18 -18 15 -45 -6 -60 -11 -7 -24 -24 -31 -36 -7 -13 -15 -21 -19 -18 -7 8 -13 97 -7 114 6 15 47 16 63 0z m-2955 -60 c7 -52 4 -58 -29 -49 -30 8 -40 45 -24 87 15 38 46 16 53 -38z m4111 -727 c8 -12 -21 -34 -34 -26 -8 5 -8 11 1 21 13 16 25 18 33 5z m160 -23 c-3 -5 -12 -4 -20 3 -7 6 -11 15 -8 21 3 5 12 4 20 -3 7 -6 11 -15 8 -21z m180 -29 c-3 -5 -10 -7 -15 -3 -5 3 -7 10 -3 15 3 5 10 7 15 3 5 -3 7 -10 3 -15z m-1379 -19 c11 -17 -5 -32 -21 -19 -7 6 -11 15 -8 20 7 12 21 11 29 -1z m1364 -655 c23 -14 39 -30 36 -35 -7 -11 -62 -12 -119 -2 -34 6 -41 12 -48 41 -15 55 -6 64 45 42 25 -11 63 -31 86 -46z"/>
<path d="M4630 6151 c0 -11 4 -22 9 -25 4 -3 6 6 3 19 -5 30 -12 33 -12 6z"/>
<path d="M5231 6079 c-17 -39 -9 -47 14 -13 9 15 13 30 8 35 -5 5 -14 -5 -22 -22z"/>
<path d="M4660 6086 c0 -9 5 -16 10 -16 6 0 10 4 10 9 0 6 -4 13 -10 16 -5 3 -10 -1 -10 -9z"/>
<path d="M4720 6000 c0 -11 5 -20 10 -20 6 0 10 9 10 20 0 11 -4 20 -10 20 -5 0 -10 -9 -10 -20z"/>
<path d="M5136 6003 c-11 -11 -6 -23 9 -23 8 0 15 4 15 9 0 13 -16 22 -24 14z"/>
<path d="M5073 5966 c-25 -12 -31 -26 -10 -26 14 1 47 24 47 34 0 8 -10 6 -37 -8z"/>
<path d="M4717 5943 c-13 -12 -7 -33 8 -33 8 0 15 9 15 20 0 20 -11 26 -23 13z"/>
<path d="M4905 5890 c-3 -5 -1 -10 4 -10 6 0 11 5 11 10 0 6 -2 10 -4 10 -3 0 -8 -4 -11 -10z"/>
<path d="M4580 5850 c0 -5 5 -10 10 -10 6 0 10 5 10 10 0 6 -4 10 -10 10 -5 0 -10 -4 -10 -10z"/>
<path d="M4599 5778 c0 -24 -1 -58 -2 -76 -1 -19 1 -36 6 -39 12 -7 -3 -23 -23 -23 -15 0 -30 -18 -30 -36 0 -2 15 -4 33 -4 37 0 57 -15 57 -42 0 -11 7 -18 20 -18 24 0 24 0 5 36 -8 16 -15 43 -15 60 0 17 -7 37 -15 44 -14 12 -13 16 6 36 19 20 21 28 12 46 -6 13 -14 31 -17 41 -3 9 -12 17 -21 17 -11 0 -15 -11 -16 -42z"/>
<path d="M4732 5754 c-9 -19 -17 -24 -32 -19 -19 6 -25 -2 -21 -32 1 -7 15 -26 32 -42 17 -17 28 -35 24 -40 -3 -5 -1 -13 5 -16 6 -4 8 -15 5 -26 -5 -14 -2 -19 12 -19 34 0 98 -28 101 -44 6 -29 22 -16 22 18 0 39 26 69 36 42 12 -32 21 -15 22 41 0 65 -6 73 -59 73 -20 0 -42 7 -49 15 -7 9 -22 12 -40 9 -33 -7 -53 15 -21 23 30 8 28 43 -2 43 -16 0 -28 -9 -35 -26z m93 -145 c-8 -12 -32 -12 -40 1 -11 18 5 31 26 20 11 -6 17 -15 14 -21z"/>
<path d="M5195 5557 c-4 -10 -5 -21 -1 -24 10 -10 18 4 13 24 l-4 18 -8 -18z"/>
<path d="M4762 5490 c25 -32 73 -39 73 -10 0 8 -11 16 -25 18 -14 2 -29 8 -34 13 -6 5 -16 9 -24 9 -9 0 -6 -9 10 -30z"/>
<path d="M5390 5410 c0 -5 5 -10 10 -10 6 0 10 5 10 10 0 6 -4 10 -10 10 -5 0 -10 -4 -10 -10z"/>
<path d="M5353 5224 c-25 -11 -13 -22 23 -22 22 0 34 4 31 12 -4 12 -35 18 -54 10z"/>
<path d="M5160 5190 c0 -5 5 -10 10 -10 6 0 10 5 10 10 0 6 -4 10 -10 10 -5 0 -10 -4 -10 -10z"/>
<path d="M5184 5149 c-33 -51 -47 -108 -24 -94 6 4 22 -1 36 -10 14 -9 33 -13 44 -10 13 4 22 -1 31 -17 6 -13 27 -40 45 -61 37 -41 41 -55 19 -63 -8 -4 -15 -15 -15 -26 0 -14 5 -18 16 -14 21 8 117 -21 147 -45 14 -10 32 -19 41 -19 32 0 37 36 30 195 -8 169 -15 187 -59 137 l-24 -27 -23 27 c-22 26 -29 27 -139 34 -93 5 -118 4 -125 -7z"/>
<path d="M4160 5105 c0 -8 5 -15 10 -15 6 0 10 7 10 15 0 8 -4 15 -10 15 -5 0 -10 -7 -10 -15z"/>
<path d="M4070 5010 c0 -6 27 -10 60 -10 33 0 60 4 60 10 0 6 -27 10 -60 10 -33 0 -60 -4 -60 -10z"/>
<path d="M4005 4990 c-3 -5 -15 -10 -26 -10 -15 0 -19 -7 -19 -31 l0 -30 38 3 c35 3 37 5 40 41 2 28 -1 37 -12 37 -8 0 -18 -4 -21 -10z"/>
<path d="M5282 4908 c-16 -16 -15 -28 3 -28 8 0 15 9 15 20 0 23 -2 24 -18 8z"/>
<path d="M5206 4902 c-3 -6 -1 -14 5 -17 15 -10 25 3 12 16 -7 7 -13 7 -17 1z"/>
<path d="M4027 4843 c-25 -29 -25 -58 1 -61 18 -3 26 4 37 32 8 19 15 38 15 41 0 12 -38 3 -53 -12z"/>
<path d="M5220 4830 c0 -5 5 -10 10 -10 6 0 10 5 10 10 0 6 -4 10 -10 10 -5 0 -10 -4 -10 -10z"/>
<path d="M5290 4829 c0 -5 5 -7 10 -4 6 3 10 8 10 11 0 2 -4 4 -10 4 -5 0 -10 -5 -10 -11z"/>
<path d="M5377 4773 c-11 -10 13 -33 34 -33 25 0 24 16 0 30 -23 12 -26 12 -34 3z"/>
<path d="M3700 4425 c0 -8 5 -15 10 -15 6 0 10 7 10 15 0 8 -4 15 -10 15 -5 0 -10 -7 -10 -15z"/>
<path d="M2858 3798 c-44 -25 -52 -58 -14 -58 25 0 76 44 76 66 0 20 -19 17 -62 -8z"/>
<path d="M5620 3726 c-82 -16 -125 -34 -193 -85 -74 -54 -122 -113 -163 -199 -86 -180 -41 -419 103 -553 118 -109 216 -145 378 -136 117 6 163 22 256 89 80 57 139 133 176 225 25 60 28 81 28 173 0 123 -20 185 -92 287 -76 109 -191 181 -324 202 -77 13 -84 13 -169 -3z"/>
<path d="M2840 3547 c0 -22 -40 -52 -69 -52 -21 0 -26 -5 -26 -25 0 -26 6 -28 71 -14 25 5 33 14 46 49 9 24 14 46 11 49 -11 11 -33 6 -33 -7z"/>
<path d="M2363 2964 c-3 -8 -1 -20 5 -26 8 -8 8 -15 1 -24 -15 -19 4 -25 50 -18 45 7 54 21 19 26 -13 2 -22 9 -20 17 3 13 -25 40 -41 41 -4 0 -10 -7 -14 -16z"/>
<path d="M2562 2773 c2 -22 8 -28 28 -28 20 0 25 5 25 25 0 20 -6 26 -28 28 -26 3 -28 1 -25 -25z"/>
<path d="M2509 2735 c-4 -3 -4 -17 -1 -31 3 -19 10 -24 26 -22 29 4 30 52 1 56 -12 2 -23 0 -26 -3z"/>
<path d="M6673 3612 c-27 -3 -33 -8 -33 -26 0 -27 33 -47 81 -49 30 -2 34 1 37 24 2 21 -3 30 -25 40 -15 8 -43 13 -60 11z"/>
<path d="M6943 3468 c-35 -17 -27 -30 14 -26 27 2 39 8 41 21 4 20 -20 22 -55 5z"/>
<path d="M6740 3460 c-11 -7 -12 -12 -3 -21 13 -13 33 -4 33 17 0 16 -9 18 -30 4z"/>
<path d="M6753 3299 c3 -22 12 -48 19 -57 8 -9 20 -37 27 -62 18 -63 34 -90 64 -108 35 -21 45 -8 21 26 -11 15 -25 41 -32 57 -8 17 -22 47 -32 67 -10 21 -14 40 -9 45 6 6 5 23 -2 41 -8 25 -17 32 -36 32 -24 0 -25 -2 -20 -41z"/>
<path d="M9097 3979 l-38 -20 21 -29 c23 -32 54 -39 64 -15 3 8 12 12 21 9 17 -7 45 12 45 30 0 12 -52 47 -67 45 -4 -1 -25 -10 -46 -20z"/>
<path d="M8349 3953 c-15 -41 -7 -65 28 -84 53 -30 85 -29 101 4 7 15 14 40 15 55 2 22 -3 28 -23 30 -14 2 -29 8 -34 13 -6 5 -25 9 -43 9 -27 0 -35 -5 -44 -27z"/>
<path d="M7690 3865 c-20 -24 -6 -28 15 -5 10 11 13 20 8 20 -6 0 -16 -7 -23 -15z"/>
<path d="M8000 3842 c0 -13 17 -26 53 -41 28 -13 60 -27 69 -32 10 -5 27 -9 39 -9 16 0 20 5 17 28 -2 21 -9 28 -32 30 -15 2 -44 12 -62 23 -45 25 -84 25 -84 1z"/>
<path d="M9102 3783 c2 -11 14 -19 31 -21 23 -3 28 0 25 15 -2 11 -14 19 -31 21 -23 3 -28 0 -25 -15z"/>
<path d="M8203 3764 c-4 -11 1 -22 12 -30 31 -23 47 -17 43 14 -4 32 -44 45 -55 16z"/>
<path d="M7624 3545 c-23 -10 -35 -26 -49 -62 -10 -26 -21 -52 -25 -58 -24 -35 -20 -45 21 -45 29 0 41 5 46 18 4 9 19 33 35 52 20 24 28 46 28 72 0 42 -7 44 -56 23z"/>
<path d="M8907 3393 c-10 -9 -9 -53 1 -53 16 0 52 32 52 46 0 14 -41 20 -53 7z"/>
<path d="M8715 3359 c-11 -32 8 -44 39 -24 35 23 34 45 -3 45 -21 0 -32 -6 -36 -21z"/>
<path d="M8371 3071 c-13 -23 -9 -27 44 -35 46 -7 68 3 63 30 -5 29 -93 33 -107 5z"/>
<path d="M8262 3047 c-27 -12 -24 -31 6 -35 13 -2 25 3 28 13 9 24 -7 34 -34 22z"/>
<path d="M7413 2943 c-18 -6 -16 -23 1 -23 17 0 30 16 19 23 -5 2 -14 2 -20 0z"/>
<path d="M7470 2930 c0 -5 5 -10 10 -10 6 0 10 5 10 10 0 6 -4 10 -10 10 -5 0 -10 -4 -10 -10z"/>
<path d="M8753 2843 c-3 -10 -8 -21 -10 -25 -4 -9 55 -38 79 -38 26 0 22 25 -9 55 -32 29 -51 32 -60 8z"/>
<path d="M3992 3480 c-11 -18 -8 -25 21 -55 57 -59 69 -35 22 42 -23 39 -26 39 -43 13z"/>
<path d="M4100 3390 c0 -5 5 -10 10 -10 6 0 10 5 10 10 0 6 -4 10 -10 10 -5 0 -10 -4 -10 -10z"/>
<path d="M4122 3319 c-19 -7 -23 -15 -20 -41 4 -42 25 -46 72 -16 41 26 42 30 20 52 -17 18 -38 19 -72 5z"/>
<path d="M4300 3175 c0 -2 9 -19 20 -37 11 -18 20 -41 20 -50 0 -9 9 -37 20 -62 14 -33 25 -46 40 -46 24 0 24 -1 5 64 -15 50 -75 136 -96 136 -5 0 -9 -2 -9 -5z"/>
<path d="M4210 3032 c0 -10 41 -35 47 -28 9 8 -17 36 -33 36 -8 0 -14 -3 -14 -8z"/>
</g>
</g>
</svg>
