<?xml version="1.0" standalone="no"?>
<!DOCTYPE svg PUBLIC "-//W3C//DTD SVG 1.1//EN"
 "http://www.w3.org/Graphics/SVG/1.1/DTD/svg11.dtd">
<!-- Created with svg_stack (http://github.com/astraw/svg_stack) -->
<svg xmlns:sodipodi="http://sodipodi.sourceforge.net/DTD/sodipodi-0.dtd" xmlns="http://www.w3.org/2000/svg" version="1.1" width="1202.0" height="640.0">
  <defs/>
  <g id="id0:id0" transform="matrix(1.25,0,0,1.25,0.0,0.0)"><g transform="translate(0.000000,512.000000) scale(0.040000,-0.040000)" fill="#c80e28" stroke="none">
<path d="M12094 12642 c-16 -10 -16 -5 -15 -520 l1 -462 5923 2 5922 3 3 484 c2 381 0 486 -10 493 -16 10 -11809 10 -11824 0z"/>
<path d="M12098 10723 c-17 -4 -18 -36 -18 -494 0 -319 3 -489 10 -489 1996 -4 11826 2 11832 8 5 5 7 226 6 493 l-3 484 -5905 1 c-3248 1 -5913 0 -5922 -3z"/>
<path d="M12080 8310 l0 -490 5923 2 5922 3 3 465 c1 256 0 475 -3 488 l-5 22 -5920 0 -5920 0 0 -490z"/>
<path d="M12078 6394 l-3 -486 23 -9 c37 -14 11802 -12 11819 2 10 9 13 100 13 479 0 258 -3 475 -6 484 -6 15 -537 16 -5925 16 l-5919 0 -2 -486z"/>
<path d="M138 4959 c-11 -7 -14 -962 -3 -979 10 -16 23768 -13 23783 2 18 18 17 967 0 973 -20 7 -23769 11 -23780 4z"/>
<path d="M135 3030 c-10 -17 -7 -961 4 -973 7 -9 2880 -11 11898 -7 l11888 5 3 470 c1 259 0 480 -3 493 l-5 22 -11890 0 c-7916 0 -11891 -3 -11895 -10z"/>
<path d="M135 1109 c-8 -12 -7 -968 1 -981 3 -4 5355 -8 11894 -8 10831 0 11888 1 11894 16 8 20 8 948 0 968 -6 15 -1063 16 -11894 16 -8346 0 -11891 -3 -11895 -11z"/>
</g>
</g>
  <g id="id1:id1" transform="matrix(1.25,0,0,1.25,0.0,0.0)"><g transform="translate(0.000000,512.000000) scale(0.040000,-0.040000)" fill="#003c82" stroke="none">
<path d="M138 12639 c-16 -9 -17 -205 -17 -3368 0 -2765 2 -3361 13 -3370 14 -12 11920 -17 11950 -5 15 6 16 320 16 3374 0 3062 -1 3368 -16 3374 -28 11 -11927 6 -11946 -5z m1416 -357 c20 -45 39 -96 42 -112 12 -57 32 -65 183 -68 75 -1 142 -5 150 -8 21 -7 -11 -37 -72 -69 -62 -31 -124 -68 -139 -83 -13 -13 19 -125 61 -209 17 -33 26 -62 21 -67 -5 -5 -37 8 -77 31 -37 23 -99 59 -137 82 -39 23 -76 41 -84 41 -8 0 -40 -16 -71 -36 -113 -73 -206 -123 -213 -116 -8 8 29 113 71 205 12 26 19 52 16 58 -8 12 -57 43 -140 89 -68 37 -106 65 -105 76 0 4 66 7 146 5 120 -2 149 0 169 13 14 9 25 24 25 34 0 9 8 31 19 48 10 16 28 59 41 95 24 70 39 94 50 82 3 -4 23 -45 44 -91z m1841 18 c15 -36 37 -91 49 -123 13 -32 29 -63 37 -68 8 -5 78 -9 156 -9 78 0 144 -4 147 -9 8 -12 -20 -35 -79 -66 -92 -48 -140 -81 -143 -99 -3 -15 16 -73 54 -161 21 -49 32 -79 32 -90 1 -16 -28 -6 -88 30 -152 91 -195 115 -209 115 -8 0 -42 -17 -75 -39 -145 -91 -204 -123 -216 -116 -6 4 -4 15 5 29 8 12 26 56 40 96 14 40 32 84 40 96 8 13 15 30 15 37 0 8 -39 37 -86 63 -120 69 -148 88 -146 99 1 6 56 11 134 12 166 3 173 5 188 45 7 18 22 56 35 83 12 28 28 68 35 90 15 47 30 69 41 58 4 -4 19 -37 34 -73z m3694 -15 c69 -190 62 -185 237 -185 79 0 145 -4 148 -9 7 -11 -19 -34 -79 -65 -113 -59 -150 -84 -153 -100 -2 -9 11 -47 28 -84 37 -78 69 -169 62 -176 -5 -6 -36 11 -152 79 -139 83 -133 81 -177 58 -21 -11 -74 -42 -118 -69 -121 -74 -157 -87 -135 -45 34 63 83 191 84 220 1 30 -4 38 -44 62 -25 16 -56 34 -70 41 -61 31 -120 71 -114 79 3 5 68 9 144 9 76 0 146 3 155 6 18 7 45 56 79 147 32 87 55 129 65 122 5 -3 23 -43 40 -90z m3677 -6 c19 -46 40 -97 46 -114 21 -60 36 -65 189 -65 76 0 140 -4 143 -9 8 -12 -19 -33 -84 -69 -115 -62 -140 -77 -145 -90 -3 -7 6 -34 19 -60 13 -26 33 -77 45 -114 13 -37 27 -70 32 -74 5 -3 7 -9 4 -14 -8 -13 -50 5 -99 40 -22 17 -44 30 -48 30 -5 0 -37 18 -71 41 -73 48 -88 47 -175 -8 -122 -77 -161 -98 -179 -98 -10 0 -17 5 -16 10 3 13 71 183 85 212 13 26 5 51 -19 60 -18 6 -106 56 -176 100 -21 13 -35 28 -32 33 4 6 71 10 155 10 l150 0 14 23 c8 12 17 33 21 47 4 14 22 59 40 100 18 41 36 84 39 94 10 29 23 10 62 -85z m-5530 18 c30 -91 72 -175 93 -186 11 -6 77 -11 155 -11 74 0 137 -4 141 -9 6 -11 -28 -37 -100 -75 -100 -54 -135 -78 -135 -92 0 -8 9 -34 21 -57 31 -63 77 -197 70 -202 -4 -2 -25 7 -46 20 -22 13 -58 34 -80 46 -22 12 -66 37 -97 56 -65 40 -73 39 -163 -16 -33 -20 -69 -42 -80 -49 -58 -35 -114 -61 -119 -54 -2 4 11 40 30 80 48 106 70 180 57 193 -6 6 -60 39 -120 73 -59 33 -108 66 -108 71 0 6 63 12 158 15 178 6 166 0 196 95 16 52 46 116 75 163 13 21 33 -3 52 -61z m3687 -10 c19 -40 42 -93 52 -120 9 -26 25 -52 35 -57 10 -6 82 -10 159 -10 81 0 142 -4 146 -10 6 -9 -79 -70 -99 -70 -5 0 -24 -11 -42 -25 -18 -14 -44 -29 -59 -35 -14 -5 -28 -17 -31 -25 -7 -17 12 -76 52 -162 27 -59 34 -94 19 -99 -6 -2 -35 12 -65 31 -30 19 -58 35 -62 35 -4 0 -35 18 -69 40 -34 22 -70 40 -79 40 -10 0 -34 -11 -54 -25 -21 -14 -61 -37 -89 -51 -29 -15 -61 -34 -72 -43 -24 -21 -71 -42 -78 -35 -3 3 4 23 14 44 11 21 19 44 19 49 0 6 16 46 35 90 19 43 35 82 35 85 0 3 -17 14 -37 24 -60 30 -185 101 -200 113 -27 23 2 29 141 29 99 0 147 4 158 13 16 12 66 120 88 192 15 46 29 67 41 60 4 -3 23 -38 42 -78z m-6473 -638 c0 -4 13 -36 28 -71 16 -35 37 -84 46 -111 10 -26 26 -52 37 -58 11 -5 77 -9 154 -8 82 2 140 -2 146 -8 10 -10 -16 -29 -145 -104 -85 -49 -90 -60 -61 -139 12 -36 34 -90 49 -120 14 -30 22 -58 17 -63 -4 -4 -30 5 -57 21 -71 43 -132 77 -190 108 l-51 27 -94 -56 c-52 -31 -113 -68 -137 -83 -31 -19 -47 -23 -54 -16 -8 8 -8 15 0 25 7 8 21 39 31 69 10 29 28 73 40 96 37 73 34 78 -105 152 -29 15 -66 38 -83 51 -49 36 -27 44 111 41 67 -2 134 0 150 4 34 7 50 38 130 253 7 19 11 21 23 11 8 -7 15 -16 15 -21z m1859 -50 c23 -77 80 -187 99 -194 11 -3 77 -5 146 -4 76 2 131 -2 137 -8 12 -12 -33 -48 -116 -91 -33 -17 -73 -41 -88 -54 l-29 -24 25 -54 c46 -99 78 -193 69 -202 -5 -5 -19 0 -33 10 -13 11 -51 34 -84 51 -33 18 -78 43 -100 56 -56 34 -86 31 -159 -15 -35 -22 -68 -40 -73 -40 -6 0 -34 -16 -63 -36 -30 -20 -56 -32 -61 -27 -5 5 10 56 35 118 25 61 46 119 48 130 3 21 -27 44 -167 124 -105 60 -94 67 95 63 l149 -3 15 23 c9 13 24 49 35 79 10 29 28 74 39 99 10 25 22 54 26 65 l7 20 19 -24 c10 -14 23 -41 29 -62z m3681 14 c18 -38 38 -89 46 -114 8 -25 23 -58 35 -73 l20 -26 144 0 c79 0 146 -4 150 -9 6 -11 -57 -57 -130 -94 -28 -14 -61 -34 -75 -45 l-25 -20 13 -48 c7 -27 29 -81 48 -119 18 -39 34 -75 34 -82 0 -20 -21 -26 -38 -10 -40 35 -232 137 -258 137 -26 0 -126 -52 -239 -123 -22 -14 -43 -23 -48 -18 -7 7 18 77 68 189 l28 62 -17 19 c-10 11 -49 36 -88 57 -81 42 -131 75 -138 89 -3 6 52 12 150 15 l155 5 32 60 c17 33 42 89 54 125 19 57 35 90 44 90 2 0 17 -30 35 -67z m-1819 -42 c12 -36 30 -82 40 -102 34 -69 35 -69 194 -69 79 0 146 -4 149 -8 7 -11 -35 -42 -104 -77 -72 -37 -127 -74 -134 -90 -2 -7 9 -42 26 -76 42 -88 70 -171 61 -180 -5 -4 -26 4 -48 18 -22 14 -78 47 -125 75 -103 59 -125 59 -223 -1 -37 -22 -70 -41 -73 -41 -3 0 -26 -14 -51 -31 -25 -17 -49 -27 -53 -23 -9 9 21 106 40 129 5 7 19 37 29 68 25 71 18 80 -91 141 -105 58 -135 81 -118 91 6 4 73 7 148 6 76 0 142 2 148 7 13 8 40 60 59 111 7 20 25 62 39 95 l27 58 19 -17 c11 -10 29 -47 41 -84z m3660 28 c53 -127 74 -174 82 -186 6 -10 49 -13 157 -13 82 0 151 -4 155 -9 5 -10 -75 -71 -93 -71 -16 0 -133 -80 -139 -95 -3 -9 4 -35 16 -58 33 -66 79 -191 74 -200 -3 -4 -17 0 -31 9 -15 10 -56 33 -92 52 -36 19 -72 41 -80 48 -9 7 -34 20 -57 28 -33 12 -45 12 -65 2 -42 -22 -171 -98 -210 -124 -49 -32 -63 -22 -37 29 21 43 79 201 79 218 0 5 -33 29 -72 52 -126 74 -168 102 -162 110 3 5 72 9 154 9 122 0 151 3 164 16 9 8 16 20 16 26 0 6 17 52 38 102 22 50 42 99 45 109 11 31 29 14 58 -54z m-8311 -593 c0 -7 10 -32 22 -57 12 -24 33 -75 47 -114 21 -54 32 -71 51 -76 14 -4 89 -7 167 -8 78 -1 144 -5 147 -10 3 -5 -15 -22 -42 -38 -114 -71 -171 -103 -180 -103 -33 0 -13 -94 51 -232 15 -32 23 -59 19 -62 -8 -4 -33 9 -202 110 -100 59 -82 64 -347 -93 -40 -24 -58 -22 -43 5 22 37 97 237 94 247 -4 11 -42 34 -138 85 -76 41 -117 71 -110 82 3 4 69 8 147 8 78 0 151 3 162 6 20 5 65 91 99 191 21 60 36 84 47 78 5 -4 9 -12 9 -19z m1855 -13 c4 -16 22 -59 41 -97 19 -39 34 -77 34 -86 0 -9 6 -25 14 -36 13 -17 31 -20 178 -24 96 -3 162 -9 162 -15 -2 -9 -153 -103 -211 -130 -44 -20 -43 -37 12 -170 49 -119 48 -141 -7 -107 -18 12 -55 33 -83 48 -27 14 -65 37 -85 50 -63 41 -83 41 -158 -4 -179 -106 -206 -121 -214 -116 -5 3 -3 16 5 28 8 12 26 54 41 94 14 40 33 86 42 103 19 37 14 52 -23 72 -142 74 -224 127 -217 138 3 5 70 9 149 9 79 0 155 4 168 9 16 6 29 24 40 53 13 37 40 104 78 196 11 28 24 22 34 -15z m1880 -104 c38 -95 54 -123 72 -130 14 -5 89 -9 168 -9 79 0 146 -4 149 -9 6 -9 -85 -71 -103 -71 -4 0 -26 -13 -48 -29 -22 -16 -54 -36 -71 -45 -38 -20 -39 -32 -8 -94 34 -67 68 -174 58 -184 -4 -4 -33 8 -62 27 -30 19 -59 35 -63 35 -5 0 -32 15 -60 34 -84 56 -104 55 -197 -4 -103 -65 -173 -101 -182 -92 -7 7 3 41 30 104 22 52 43 110 47 130 6 33 5 37 -29 54 -133 70 -226 126 -221 135 4 5 75 9 164 9 111 0 162 4 173 13 9 6 24 37 33 67 23 70 85 191 95 185 4 -2 29 -59 55 -126z m1831 47 c32 -96 73 -173 97 -180 12 -3 86 -6 164 -6 78 0 144 -4 147 -9 5 -8 -102 -81 -119 -81 -3 0 -25 -12 -48 -27 -23 -16 -51 -33 -62 -39 -31 -17 -29 -35 14 -130 45 -101 56 -139 44 -147 -8 -5 -91 40 -199 107 -67 42 -91 42 -158 2 -32 -20 -62 -36 -66 -36 -4 0 -25 -13 -47 -29 -51 -37 -99 -62 -106 -55 -5 6 23 82 44 118 14 25 49 125 49 142 0 15 -69 63 -143 101 -66 33 -108 64 -101 75 3 4 73 8 155 8 l150 0 23 23 c12 13 31 45 40 72 10 28 31 79 48 115 28 59 31 63 44 46 7 -11 21 -42 30 -70z m1829 14 c19 -38 42 -91 51 -117 28 -84 26 -83 205 -83 87 0 160 -4 164 -9 3 -5 -7 -16 -22 -24 -113 -60 -162 -89 -173 -102 -7 -8 -18 -15 -25 -15 -7 0 -19 -7 -26 -16 -15 -18 1 -73 53 -182 16 -34 27 -69 24 -78 -6 -16 -22 -9 -146 67 -124 76 -151 81 -210 39 -14 -10 -46 -29 -70 -42 -25 -14 -68 -39 -97 -56 -53 -32 -69 -32 -53 -1 6 9 21 48 35 86 13 37 33 85 44 106 24 46 20 58 -22 81 -120 63 -219 123 -218 131 1 6 69 11 160 13 135 2 161 5 173 20 9 9 32 60 52 112 51 131 55 140 61 140 2 0 21 -31 40 -70z m1836 12 c6 -20 24 -64 39 -97 15 -33 30 -70 34 -82 9 -29 31 -33 193 -33 78 0 144 -4 148 -9 3 -6 -27 -29 -67 -52 -40 -23 -92 -54 -114 -68 -23 -14 -50 -31 -60 -37 l-19 -12 22 -43 c34 -67 81 -209 72 -215 -5 -3 -35 10 -67 29 -157 95 -197 117 -216 117 -18 0 -56 -20 -219 -118 -72 -42 -89 -34 -56 29 19 38 62 145 76 191 3 11 -11 27 -53 53 -31 20 -65 40 -73 43 -46 19 -130 75 -126 83 4 5 77 9 163 9 86 0 163 4 169 8 7 4 21 33 32 62 10 30 30 80 44 110 13 30 27 63 31 74 9 26 31 5 47 -42z m-8281 -718 c22 -48 45 -104 50 -125 17 -64 36 -70 205 -68 82 1 151 -3 156 -8 9 -9 -82 -68 -176 -116 -16 -8 -40 -26 -52 -39 l-22 -24 23 -69 c13 -39 36 -94 52 -123 16 -32 24 -56 18 -62 -5 -5 -31 5 -64 24 -211 127 -239 139 -268 113 -9 -8 -57 -37 -107 -64 -49 -27 -102 -57 -117 -67 -35 -23 -44 -6 -20 41 10 21 29 66 42 101 12 34 27 65 31 68 5 3 9 15 9 28 0 25 -29 49 -116 96 -106 56 -152 85 -153 95 -1 6 60 8 156 7 86 -1 165 0 175 4 19 6 74 115 103 204 19 59 24 70 31 70 2 0 22 -39 44 -86z m1831 18 c31 -98 82 -201 103 -206 11 -3 85 -6 163 -6 78 0 144 -4 147 -9 5 -8 -82 -67 -154 -104 -19 -10 -50 -30 -69 -46 l-33 -27 21 -43 c33 -63 82 -201 76 -211 -3 -5 -29 6 -58 24 -110 69 -228 128 -245 121 -9 -3 -46 -23 -82 -44 -186 -108 -191 -111 -196 -97 -3 8 5 34 17 57 12 24 34 78 49 120 l28 77 -26 24 c-15 13 -52 37 -82 52 -30 16 -62 34 -70 41 -8 7 -35 23 -58 35 -24 12 -42 24 -39 27 3 2 82 4 175 3 191 -1 193 0 213 72 6 23 23 69 39 102 15 34 30 69 34 80 9 26 31 5 47 -42z m3690 -9 c17 -38 37 -88 44 -112 8 -24 24 -54 36 -67 l22 -24 153 0 c84 0 155 -4 159 -9 5 -10 -35 -36 -140 -92 -70 -36 -105 -66 -105 -88 0 -20 29 -97 65 -174 36 -76 29 -96 -22 -64 -124 78 -234 137 -254 137 -12 0 -176 -93 -239 -136 -19 -13 -38 -20 -42 -16 -8 8 30 116 72 205 l23 48 -24 25 c-13 15 -54 41 -90 60 -75 37 -132 74 -139 89 -3 6 53 12 154 15 l160 5 29 50 c17 28 41 82 55 120 22 63 38 95 48 95 2 0 18 -30 35 -67z m1830 11 c16 -45 49 -120 82 -184 l13 -25 154 -3 c85 -1 158 -6 163 -11 10 -10 -59 -59 -142 -100 -31 -16 -67 -41 -80 -55 l-24 -25 25 -58 c14 -32 29 -69 33 -83 4 -14 16 -42 27 -63 10 -21 16 -42 13 -47 -3 -5 -27 4 -53 19 -138 82 -209 122 -229 127 -13 4 -39 -5 -70 -22 -26 -15 -73 -41 -103 -58 -30 -16 -70 -41 -89 -53 -19 -13 -38 -20 -43 -15 -4 4 5 35 21 68 15 32 39 90 52 128 l24 68 -30 24 c-16 13 -52 35 -80 50 -84 45 -145 87 -139 95 3 5 74 9 157 9 84 0 157 4 164 8 13 8 83 168 107 245 10 30 28 14 47 -39z m-3681 27 c5 -11 22 -52 36 -93 29 -78 49 -116 73 -135 10 -9 59 -13 162 -13 81 0 150 -4 154 -9 4 -8 -135 -101 -151 -101 -12 0 -92 -60 -97 -74 -3 -7 4 -31 15 -52 31 -57 79 -194 73 -205 -4 -5 -18 -1 -33 10 -46 31 -195 116 -229 130 -30 12 -36 11 -88 -18 -30 -17 -81 -45 -112 -63 -32 -17 -69 -40 -82 -50 -14 -10 -28 -15 -33 -10 -9 9 14 83 36 117 7 11 23 47 34 80 l22 59 -23 24 c-12 13 -51 40 -87 59 -111 59 -165 92 -162 98 1 4 74 6 162 5 94 0 168 3 179 10 11 5 29 34 40 64 36 96 79 186 90 186 6 0 15 -9 21 -19z m-4587 -751 c20 -47 39 -96 42 -110 16 -62 22 -65 198 -70 89 -3 162 -9 162 -13 0 -5 -25 -22 -55 -39 -30 -17 -66 -38 -80 -48 -14 -9 -44 -27 -67 -39 -26 -13 -43 -28 -43 -39 0 -25 36 -126 67 -183 14 -27 22 -56 19 -65 -6 -16 -6 -17 -212 100 l-86 48 -27 -19 c-14 -10 -49 -31 -77 -45 -28 -15 -77 -43 -109 -63 -33 -19 -63 -31 -68 -26 -4 4 -2 23 6 42 8 19 29 68 47 109 46 107 47 113 13 130 -83 41 -232 134 -227 141 3 5 74 9 158 9 133 0 155 2 168 18 17 20 78 153 78 171 0 22 42 93 49 85 5 -5 24 -47 44 -94z m1827 52 c0 -8 13 -40 29 -72 16 -32 35 -76 42 -99 7 -23 17 -46 24 -51 6 -5 82 -11 168 -12 86 -2 158 -7 160 -11 1 -5 -23 -22 -53 -39 -30 -17 -66 -38 -80 -47 -14 -9 -42 -26 -63 -36 -60 -31 -63 -40 -39 -89 12 -24 22 -46 22 -50 0 -4 14 -39 31 -78 17 -39 27 -74 22 -79 -4 -4 -29 4 -55 19 -26 15 -90 51 -142 80 l-96 53 -62 -37 c-35 -21 -79 -47 -98 -59 -68 -42 -119 -65 -125 -55 -3 5 1 22 9 38 8 15 26 61 40 102 15 41 31 79 36 84 19 19 10 44 -21 56 -17 7 -57 30 -90 51 -33 21 -78 48 -100 60 -24 12 -38 24 -32 30 4 4 80 10 168 11 l159 3 48 110 c26 61 48 117 48 126 0 8 6 21 12 27 10 10 15 9 25 -5 7 -9 13 -23 13 -31z m7359 6 c10 -24 33 -79 52 -123 51 -122 37 -115 215 -115 87 0 155 -4 159 -10 3 -5 -12 -18 -35 -30 -22 -11 -66 -38 -99 -59 -33 -21 -73 -44 -90 -51 -36 -14 -40 -38 -14 -77 22 -34 83 -195 77 -204 -4 -8 -72 23 -114 51 -14 9 -57 36 -97 59 l-72 43 -86 -49 c-47 -26 -108 -61 -136 -76 -71 -41 -86 -32 -54 35 31 67 75 181 75 196 0 6 -29 27 -65 46 -36 20 -94 52 -130 72 -36 19 -63 40 -60 45 4 5 80 9 169 9 l164 0 21 53 c48 113 80 193 85 210 8 26 15 21 35 -25z m-5509 -36 c37 -98 74 -176 90 -189 10 -9 63 -12 167 -13 86 0 154 -4 158 -10 3 -5 -18 -21 -47 -36 -29 -15 -66 -37 -83 -49 -16 -11 -51 -32 -77 -44 -26 -13 -49 -29 -52 -37 -3 -7 8 -37 25 -67 39 -73 71 -169 60 -180 -9 -9 -47 10 -181 88 -41 24 -85 44 -98 44 -13 1 -57 -19 -98 -44 -141 -86 -184 -106 -190 -91 -3 8 11 51 31 97 58 132 65 149 65 158 0 4 -12 13 -27 20 -62 28 -232 135 -227 143 3 4 74 8 159 8 175 0 173 -1 201 82 16 49 59 146 77 176 13 19 24 6 47 -56z m1865 -37 c21 -53 47 -110 59 -128 l22 -32 149 -3 c82 -1 154 -7 158 -11 5 -5 -1 -15 -14 -23 -13 -8 -49 -29 -79 -48 -30 -18 -76 -44 -102 -57 -58 -28 -59 -37 -17 -130 43 -93 68 -161 62 -167 -6 -6 -83 34 -202 104 -46 28 -86 50 -88 50 -3 0 -57 -31 -121 -69 -65 -38 -126 -71 -137 -73 -32 -5 -29 26 11 114 20 45 38 98 38 117 1 31 -3 36 -49 61 -107 57 -187 106 -189 116 0 5 67 11 159 14 l159 5 23 34 c13 19 28 51 33 72 10 36 45 118 63 147 14 21 24 6 62 -93z m1820 37 c15 -31 33 -74 41 -95 7 -20 21 -53 30 -72 l16 -35 159 -2 c97 -2 159 -7 159 -13 0 -10 -90 -66 -192 -120 -30 -16 -48 -32 -48 -43 0 -18 30 -98 70 -186 28 -62 17 -75 -41 -46 -24 12 -51 28 -59 35 -8 6 -52 31 -96 55 l-82 43 -45 -32 c-25 -17 -49 -31 -54 -31 -5 0 -33 -16 -63 -36 -62 -40 -98 -56 -109 -49 -10 6 43 158 70 202 12 19 18 40 15 48 -3 8 -31 28 -63 45 -104 54 -186 105 -187 115 -1 6 61 12 159 15 l160 5 21 40 c11 22 33 72 48 110 43 111 46 116 55 110 6 -3 22 -31 36 -63z m-6450 -692 c15 -36 37 -92 50 -124 12 -33 30 -65 40 -73 14 -9 59 -13 166 -13 81 0 150 -4 153 -9 3 -5 -15 -22 -42 -38 -104 -65 -154 -93 -161 -93 -4 0 -15 -8 -25 -18 -15 -18 -15 -23 3 -78 10 -32 33 -88 50 -123 43 -92 32 -102 -52 -48 -67 43 -187 112 -209 120 -10 3 -32 -4 -53 -19 -20 -13 -62 -38 -93 -55 -32 -17 -76 -41 -99 -55 -24 -14 -47 -23 -52 -20 -9 6 15 74 65 184 32 71 31 85 -13 109 -113 61 -141 78 -175 101 -21 13 -35 28 -32 33 3 5 72 9 153 9 103 0 152 4 163 13 19 14 81 153 98 217 21 79 24 77 65 -20z m1851 -34 c15 -39 39 -93 53 -121 l26 -50 150 -3 c82 -1 153 -6 158 -11 9 -9 -59 -61 -97 -74 -20 -8 -146 -88 -146 -93 0 -2 12 -29 26 -61 43 -96 74 -187 66 -195 -7 -7 -173 83 -232 125 -36 25 -74 21 -133 -17 -192 -122 -239 -138 -202 -66 9 18 32 75 51 127 l34 94 -31 17 c-17 9 -47 27 -66 40 -19 12 -53 32 -76 43 -51 26 -78 49 -71 60 3 5 74 9 157 9 84 0 158 4 164 8 7 5 24 39 37 78 13 38 33 89 44 114 11 25 24 54 27 65 l6 20 14 -19 c8 -10 27 -51 41 -90z m3667 49 c53 -131 80 -192 94 -207 14 -16 35 -18 164 -18 81 0 150 -4 154 -9 6 -11 -28 -37 -100 -75 -27 -15 -70 -39 -94 -53 l-43 -26 5 -38 c3 -21 24 -79 47 -129 26 -56 39 -95 33 -101 -5 -5 -60 21 -138 66 -135 79 -166 87 -206 57 -22 -17 -113 -71 -191 -114 -17 -9 -35 -15 -39 -13 -6 5 10 53 70 203 12 29 21 56 21 60 0 4 -19 18 -42 30 -133 70 -210 121 -203 132 4 6 70 10 154 10 164 0 157 -3 198 75 11 22 28 65 38 95 24 73 45 114 54 104 5 -5 15 -27 24 -49z m-1817 -48 c21 -64 58 -140 79 -161 14 -13 41 -16 160 -16 79 0 146 -4 150 -9 5 -9 -54 -61 -70 -61 -11 0 -165 -91 -171 -101 -3 -5 9 -41 27 -81 44 -101 69 -177 60 -183 -8 -4 -49 19 -203 111 -31 19 -67 34 -80 34 -13 0 -83 -36 -155 -79 -73 -44 -135 -76 -138 -71 -6 9 20 86 39 115 7 11 23 49 35 85 l22 65 -20 15 c-11 8 -41 28 -68 43 -134 78 -156 93 -157 102 -1 6 61 12 156 15 86 3 161 10 167 15 5 6 23 44 39 85 17 41 40 97 53 124 l22 50 18 -22 c9 -12 25 -46 35 -75z m3667 17 c16 -38 38 -91 49 -119 11 -27 24 -56 30 -62 8 -10 53 -13 164 -13 84 0 155 -4 158 -9 7 -10 -98 -79 -201 -133 -24 -12 -43 -26 -43 -31 0 -10 59 -166 85 -224 26 -58 11 -54 -175 55 -49 28 -100 52 -112 51 -13 0 -63 -25 -113 -54 -180 -109 -198 -114 -164 -47 29 57 88 215 83 223 -4 7 -56 38 -164 97 -56 31 -81 52 -74 63 3 5 72 9 153 9 163 0 173 3 189 60 6 19 24 67 40 105 17 39 33 78 36 88 10 32 28 13 59 -59z m-8275 -705 c23 -53 42 -103 42 -110 0 -8 7 -22 14 -31 11 -15 35 -18 179 -20 102 -2 168 -7 168 -13 2 -10 -88 -66 -179 -111 -29 -15 -57 -35 -63 -46 -13 -24 8 -100 56 -199 19 -40 32 -76 29 -80 -3 -5 -22 2 -42 16 -20 14 -40 25 -45 25 -4 0 -31 16 -60 35 -28 19 -55 35 -60 35 -4 0 -26 12 -48 26 l-41 25 -41 -22 c-62 -33 -78 -42 -124 -72 -24 -15 -47 -27 -51 -27 -5 0 -25 -11 -45 -24 -19 -13 -37 -22 -40 -20 -4 4 42 122 86 224 20 46 10 63 -61 100 -108 57 -185 105 -184 115 1 6 69 12 169 15 l168 5 27 55 c15 30 34 76 42 101 20 64 46 113 55 103 4 -5 27 -52 49 -105z m1812 87 c0 -7 15 -43 34 -82 18 -38 39 -87 46 -109 7 -22 18 -43 24 -47 6 -4 84 -8 173 -8 89 0 164 -4 168 -9 4 -8 -96 -72 -224 -143 -23 -13 -31 -24 -31 -46 0 -15 4 -32 9 -38 5 -5 14 -27 21 -49 7 -22 26 -66 42 -99 18 -35 26 -62 20 -68 -5 -5 -14 -3 -22 7 -7 8 -16 15 -20 15 -4 0 -60 29 -124 65 -64 36 -124 65 -134 65 -19 0 -231 -115 -273 -149 -37 -29 -43 -16 -14 33 13 22 34 70 46 106 12 36 28 75 36 87 20 30 4 57 -50 84 -89 46 -207 121 -201 130 3 5 81 9 173 9 l168 0 38 93 c66 162 74 179 85 172 5 -3 10 -12 10 -19z m3720 -76 c17 -47 43 -104 56 -127 l25 -43 164 0 c90 0 166 -4 169 -9 6 -10 -106 -81 -185 -118 -80 -36 -88 -54 -54 -134 61 -145 73 -178 68 -183 -6 -5 -50 18 -194 100 -42 24 -85 44 -97 44 -11 0 -76 -32 -143 -70 -68 -39 -128 -68 -134 -66 -14 5 -8 32 25 101 36 78 54 139 47 159 -3 8 -37 32 -74 51 -149 80 -193 107 -188 116 4 5 81 9 175 9 l168 0 20 33 c11 17 27 54 36 81 28 82 67 159 75 150 5 -5 23 -47 41 -94z m3649 58 c10 -24 33 -79 52 -123 18 -44 37 -86 42 -92 7 -10 54 -13 173 -13 91 0 165 -4 169 -9 6 -10 -66 -58 -177 -116 -85 -44 -96 -63 -69 -113 12 -20 33 -68 47 -107 14 -38 30 -75 35 -82 7 -7 7 -13 0 -17 -5 -3 -67 27 -138 67 -70 40 -135 76 -143 79 -9 3 -47 -12 -85 -33 -39 -22 -100 -55 -137 -74 -36 -19 -69 -39 -73 -45 -3 -6 -11 -8 -16 -5 -5 4 -1 22 10 43 10 20 35 79 56 130 l37 93 -22 24 c-13 14 -33 28 -44 31 -12 4 -39 18 -60 32 -22 13 -61 36 -87 51 -26 14 -47 31 -46 36 1 6 66 11 167 12 179 2 183 3 197 63 3 14 21 58 39 98 19 40 34 78 34 86 0 12 9 26 17 26 2 0 12 -19 22 -42z m-5495 -70 c20 -51 45 -108 56 -125 l20 -33 164 0 c91 0 167 -4 170 -9 5 -7 -41 -37 -195 -124 -64 -36 -75 -52 -62 -85 72 -171 90 -218 86 -225 -4 -7 -35 8 -190 96 -45 26 -91 47 -102 47 -10 0 -48 -16 -83 -37 -34 -20 -88 -50 -118 -66 -30 -17 -62 -36 -72 -44 -30 -26 -27 3 8 83 47 104 65 164 58 186 -3 10 -36 34 -72 54 -115 60 -177 99 -175 109 2 6 74 11 172 13 l170 2 16 48 c31 86 95 213 104 208 5 -3 25 -48 45 -98z m3675 28 c17 -35 38 -85 47 -112 9 -27 21 -55 26 -61 8 -10 56 -13 179 -13 92 0 170 -4 174 -9 5 -9 -31 -31 -183 -113 -40 -22 -76 -46 -79 -54 -6 -17 10 -69 54 -167 44 -98 36 -111 -39 -70 -29 17 -86 49 -127 72 -41 22 -82 41 -92 41 -17 0 -203 -100 -262 -142 -33 -22 -56 -15 -33 11 9 10 27 51 41 91 14 40 32 84 41 97 8 13 14 36 12 51 -3 28 -23 41 -211 142 -32 17 -55 35 -52 40 4 6 77 10 175 10 l169 0 35 74 c18 41 39 91 46 113 13 41 28 63 40 63 4 0 22 -29 39 -64z m-6469 -647 c0 -4 13 -36 29 -71 16 -35 34 -81 41 -103 23 -75 24 -75 201 -75 91 0 160 -4 164 -10 3 -5 -25 -26 -62 -45 -150 -80 -193 -107 -193 -119 0 -17 40 -124 74 -195 14 -30 23 -58 20 -63 -6 -9 -55 16 -213 107 -75 43 -86 47 -105 35 -78 -50 -261 -148 -267 -144 -8 5 26 95 73 191 16 34 27 67 23 73 -3 6 -32 24 -63 41 -132 70 -190 105 -191 114 -1 6 63 12 163 15 90 3 166 7 168 10 7 9 50 115 70 170 38 105 37 103 53 90 8 -7 15 -16 15 -21z m1866 -70 c20 -46 42 -103 51 -127 10 -28 22 -44 36 -47 12 -3 87 -6 167 -8 90 -1 144 -6 143 -12 0 -5 -21 -20 -45 -33 -23 -13 -59 -34 -78 -47 -19 -13 -56 -34 -82 -46 -27 -13 -48 -29 -48 -36 0 -8 11 -36 25 -63 37 -74 75 -184 67 -192 -5 -5 -35 8 -68 28 -32 20 -75 45 -94 56 -19 11 -54 31 -77 45 l-42 24 -93 -52 c-51 -29 -116 -65 -145 -81 -28 -16 -54 -25 -57 -19 -3 5 7 37 23 72 15 35 34 82 41 104 7 22 16 44 21 49 21 23 6 45 -53 77 -34 19 -91 50 -126 69 -36 19 -65 40 -66 45 -1 6 57 11 149 12 83 2 160 5 172 8 15 4 26 19 38 57 9 29 30 82 45 118 16 36 31 74 34 84 9 28 21 12 62 -85z m1853 -9 c12 -36 34 -87 49 -115 l27 -50 160 -5 c98 -3 160 -9 159 -15 -1 -10 -71 -53 -187 -115 -32 -17 -60 -37 -63 -44 -3 -8 6 -36 19 -62 31 -62 77 -190 71 -197 -6 -5 -82 29 -104 48 -14 11 -51 33 -150 88 l-35 19 -85 -51 c-108 -64 -198 -110 -204 -104 -6 6 16 68 43 121 22 43 51 120 51 138 0 10 -54 43 -198 121 -34 19 -60 39 -57 44 4 5 77 9 164 9 l159 0 14 23 c8 12 26 51 40 87 15 36 36 87 48 114 l22 48 18 -18 c10 -11 27 -48 39 -84z m1831 13 c18 -43 43 -102 56 -130 l23 -52 160 -3 c100 -2 161 -7 160 -13 0 -5 -24 -23 -52 -38 -29 -16 -63 -36 -77 -45 -14 -9 -43 -26 -65 -37 -25 -13 -41 -28 -43 -42 -4 -26 16 -86 57 -172 49 -104 35 -104 -143 1 l-118 71 -32 -17 c-17 -9 -80 -45 -141 -81 -60 -35 -113 -61 -117 -57 -4 4 13 57 38 117 66 156 66 148 2 179 -85 42 -198 110 -201 121 -1 6 59 12 158 15 l159 5 31 55 c17 30 39 80 49 110 20 63 43 103 55 96 4 -3 23 -40 41 -83z m1830 16 c15 -35 38 -89 50 -119 13 -30 28 -61 33 -67 7 -10 53 -13 168 -13 87 0 160 -4 164 -9 3 -5 -24 -26 -60 -45 -36 -20 -94 -52 -130 -72 -69 -38 -80 -58 -51 -99 20 -29 85 -205 77 -210 -4 -2 -29 9 -56 24 -28 16 -92 52 -142 80 l-93 52 -82 -47 c-153 -87 -202 -113 -210 -108 -4 3 3 26 16 52 13 26 29 65 36 87 7 22 22 57 33 78 15 27 18 40 10 48 -6 6 -64 42 -128 78 -65 37 -117 71 -116 77 0 5 71 10 160 12 111 2 162 6 169 15 5 6 16 32 25 57 9 25 27 72 40 105 13 33 27 68 31 78 10 31 28 14 56 -54z m-8310 -625 c0 -8 12 -38 26 -67 15 -28 35 -76 45 -106 11 -29 24 -60 30 -67 9 -11 49 -14 175 -14 89 0 165 -4 168 -9 5 -8 -122 -91 -140 -91 -17 0 -104 -63 -109 -80 -7 -21 27 -123 63 -193 13 -26 21 -54 18 -63 -5 -14 -10 -13 -39 4 -29 19 -95 57 -190 111 -21 11 -50 21 -65 21 -25 0 -109 -44 -232 -121 -25 -16 -48 -25 -53 -20 -8 8 29 113 62 179 38 76 38 77 -28 121 -33 23 -64 41 -68 41 -14 0 -130 75 -131 85 -1 6 62 12 164 15 134 4 168 8 175 20 24 45 69 146 69 157 0 24 40 104 50 98 5 -3 10 -13 10 -21z m1850 1 c0 -8 12 -40 26 -72 15 -32 37 -85 49 -118 l23 -60 171 -5 c94 -3 171 -9 172 -14 1 -9 -43 -37 -131 -84 -107 -57 -120 -66 -120 -89 0 -11 20 -72 45 -134 25 -62 42 -116 38 -120 -4 -4 -33 7 -63 25 -232 138 -219 136 -332 71 -46 -27 -104 -61 -130 -77 -57 -36 -77 -30 -50 15 11 18 27 57 37 87 10 30 26 72 37 93 10 21 16 42 13 47 -8 13 -92 66 -188 119 -42 23 -75 47 -72 52 4 5 82 9 175 9 l169 0 20 53 c21 55 65 166 82 205 9 24 29 22 29 -3z m3725 -94 c14 -42 36 -94 48 -116 l23 -40 154 -3 c85 -1 159 -7 163 -11 10 -10 -55 -61 -118 -92 -75 -36 -125 -70 -125 -84 0 -8 12 -40 26 -72 43 -94 73 -182 65 -187 -4 -3 -63 28 -132 69 -138 83 -162 88 -224 51 -22 -13 -62 -36 -90 -51 -27 -15 -65 -38 -84 -51 -61 -42 -62 -22 -6 106 19 41 36 91 40 111 l7 35 -56 37 c-31 20 -60 37 -64 37 -19 0 -133 81 -127 90 4 6 71 10 165 10 l160 0 23 48 c14 26 30 65 37 87 7 22 24 62 38 89 22 46 25 49 38 32 7 -11 25 -53 39 -95z m3663 29 c24 -65 64 -160 75 -177 6 -10 49 -13 156 -13 114 0 151 -3 160 -14 9 -11 2 -20 -36 -43 -27 -17 -61 -37 -78 -45 -72 -36 -115 -64 -120 -77 -3 -8 5 -37 19 -65 42 -87 75 -181 66 -189 -4 -5 -64 23 -132 62 -75 43 -136 71 -153 71 -16 0 -58 -17 -94 -38 -163 -96 -191 -110 -196 -102 -3 5 6 35 21 67 25 57 74 185 74 196 0 2 -33 24 -72 47 -139 82 -169 103 -165 114 2 7 58 13 163 16 l158 5 19 50 c10 28 31 79 47 115 15 36 31 74 34 84 6 17 9 18 21 5 7 -8 22 -39 33 -69z m-5518 -13 c11 -34 33 -87 48 -117 l27 -55 155 -3 c85 -1 158 -6 163 -11 10 -10 -41 -49 -103 -81 -25 -13 -58 -33 -75 -45 -16 -12 -38 -25 -47 -28 -22 -8 -23 -29 -2 -69 25 -49 82 -207 77 -212 -6 -5 -41 12 -128 64 -150 89 -167 93 -230 56 -207 -120 -216 -125 -221 -111 -3 8 10 49 29 92 49 108 63 161 49 175 -6 6 -63 41 -126 77 -63 36 -115 71 -116 76 0 6 64 11 167 13 118 2 169 6 175 15 4 6 17 39 28 72 18 53 51 125 74 163 13 22 33 -4 56 -71z m3679 10 c16 -34 40 -89 53 -122 l23 -60 160 -3 c88 -1 163 -6 168 -11 10 -10 -49 -52 -138 -100 -33 -17 -71 -40 -84 -50 l-25 -19 14 -43 c7 -24 29 -79 48 -122 44 -98 36 -113 -37 -68 -28 17 -54 31 -56 31 -3 0 -34 18 -69 40 -36 23 -75 40 -92 40 -18 0 -80 -30 -159 -74 -117 -67 -162 -85 -137 -53 5 7 20 41 32 77 12 36 34 87 48 114 l24 50 -28 23 c-16 13 -60 39 -99 59 -91 48 -127 73 -122 88 2 7 56 13 162 16 l158 5 40 95 c21 52 45 110 53 128 8 18 18 30 24 27 5 -3 22 -34 39 -68z"/>
</g>
</g>
  <g id="id2:id2" transform="matrix(1.25,0,0,1.25,0.0,0.0)"><g transform="translate(0.000000,512.000000) scale(0.040000,-0.040000)" fill="#ffffff" stroke="none">
<path d="M0 6400 l0 -6400 12020 0 12020 0 0 6400 0 6400 -12020 0 -12020 0 0 -6400z m23906 6219 c8 -13 10 -922 2 -935 -4 -5 -2280 -10 -5910 -13 -3246 -1 -5906 -5 -5910 -8 -5 -2 -8 -215 -8 -473 0 -417 2 -469 16 -474 9 -3 2668 -6 5909 -6 4172 0 5896 -3 5900 -11 10 -14 10 -922 1 -937 -6 -9 -1348 -12 -5907 -12 -3246 0 -5905 -2 -5910 -6 -5 -3 -9 -202 -9 -474 l0 -469 19 -11 c14 -7 1863 -10 5912 -10 3241 0 5894 -1 5896 -3 9 -10 7 -917 -3 -927 -7 -7 -1901 -11 -5914 -12 l-5905 -3 -3 -476 c-2 -392 0 -478 11 -488 10 -8 1548 -12 5916 -13 l5903 -3 1 -462 c1 -285 -2 -466 -8 -472 -11 -10 -19954 -20 -22355 -11 l-1405 5 -1 3350 c0 1843 1 3353 3 3358 7 12 23751 9 23759 -4z m-3 -7682 c11 -3 14 -918 3 -935 -11 -18 -23736 -18 -23754 0 -15 15 -17 899 -3 927 l10 18 11868 -4 c6527 -3 11872 -5 11876 -6z m1 -1926 c11 -17 11 -920 1 -930 -12 -12 -23738 -16 -23756 -5 -13 8 -12 900 1 925 l11 19 11869 0 c6673 0 11871 -4 11874 -9z m1 -1923 c9 -24 12 -913 3 -931 l-9 -17 -11867 0 c-9217 0 -11871 3 -11880 12 -17 17 -17 919 0 936 18 18 23747 17 23753 0z"/>
<path d="M1456 12328 c-16 -46 -42 -109 -58 -140 -35 -69 -40 -71 -226 -68 -176 3 -185 3 -180 -12 3 -7 21 -22 41 -33 20 -11 86 -49 147 -84 123 -70 119 -62 74 -153 -13 -26 -24 -52 -24 -58 0 -6 -12 -36 -26 -65 -40 -86 -15 -98 82 -39 32 20 77 45 99 56 22 12 53 32 69 45 37 31 65 27 138 -20 227 -145 270 -150 208 -25 -28 56 -70 170 -70 189 0 9 102 77 129 87 9 3 34 17 56 31 22 14 53 32 69 41 67 34 47 40 -144 40 -101 0 -190 4 -200 10 -10 5 -21 24 -25 41 -4 18 -27 77 -51 133 -57 132 -69 135 -108 24z"/>
<path d="M3333 12398 c-6 -7 -15 -29 -21 -48 -15 -55 -73 -193 -90 -212 -13 -16 -36 -18 -199 -18 -137 0 -184 -3 -181 -12 2 -6 11 -15 19 -19 55 -29 279 -160 279 -164 0 -1 -11 -28 -25 -59 -14 -31 -25 -61 -25 -67 0 -6 -14 -40 -31 -75 -50 -107 -26 -110 127 -18 171 104 160 100 208 76 22 -12 84 -47 136 -77 99 -59 150 -77 150 -55 0 7 -11 37 -25 66 -28 60 -75 186 -75 202 0 12 117 92 133 92 4 0 27 13 50 28 23 15 54 33 70 40 15 6 27 18 27 27 0 13 -26 15 -183 15 -187 0 -207 4 -207 40 0 8 -14 44 -31 80 -17 36 -39 88 -49 115 -17 51 -38 66 -57 43z"/>
<path d="M5167 12403 c-4 -3 -7 -17 -7 -30 0 -13 -10 -43 -22 -66 -12 -23 -33 -73 -48 -112 l-26 -70 -197 -3 c-108 -1 -197 -6 -197 -10 0 -5 17 -18 38 -29 100 -55 181 -102 221 -127 39 -25 43 -30 37 -58 -3 -17 -26 -75 -51 -129 -60 -133 -52 -153 40 -99 28 16 64 36 80 44 17 8 55 31 85 50 30 20 61 36 70 36 8 0 60 -27 115 -60 121 -73 174 -99 198 -100 21 0 22 18 1 45 -8 11 -19 37 -25 59 -6 22 -24 67 -40 101 -16 34 -29 67 -29 72 0 6 33 30 73 54 39 23 97 58 127 76 31 18 60 33 67 33 9 0 23 21 23 36 0 2 -83 4 -185 4 l-185 0 -24 48 c-13 26 -34 76 -47 112 -38 108 -68 147 -92 123z"/>
<path d="M8860 12380 c-11 -16 -29 -53 -39 -82 -10 -29 -27 -73 -38 -98 -11 -25 -23 -53 -26 -62 -6 -16 -24 -18 -198 -18 -192 0 -216 -5 -163 -34 10 -6 30 -18 44 -27 14 -9 52 -31 85 -49 95 -53 135 -79 135 -91 0 -14 -65 -184 -85 -222 -19 -37 -19 -57 0 -57 17 0 84 32 125 60 14 9 58 36 97 60 80 47 102 47 158 6 62 -46 216 -128 230 -122 21 8 19 15 -16 93 -31 68 -69 169 -69 184 0 11 85 65 203 129 54 29 94 57 90 61 -5 5 -94 10 -198 11 l-189 3 -26 70 c-14 39 -36 90 -47 115 -12 25 -24 57 -28 73 -7 35 -18 34 -45 -3z"/>
<path d="M10697 12403 c-4 -3 -7 -15 -7 -26 0 -10 -12 -42 -26 -71 -15 -28 -36 -80 -49 -116 l-22 -65 -196 -3 c-109 -1 -197 -6 -197 -10 0 -4 46 -34 103 -66 168 -97 199 -119 193 -136 -15 -47 -59 -156 -76 -190 -21 -42 -26 -80 -10 -80 16 0 63 23 107 52 23 15 44 28 48 28 3 0 34 18 69 40 35 22 71 40 81 40 17 0 122 -57 185 -100 41 -28 108 -60 125 -60 19 0 20 28 1 49 -7 9 -25 52 -40 97 -15 45 -33 90 -41 100 -22 30 -18 42 23 64 20 12 64 37 97 57 33 20 82 48 109 63 86 45 76 49 -134 52 l-191 3 -34 77 c-18 42 -39 94 -45 115 -14 41 -47 93 -59 93 -4 0 -11 -3 -14 -7z"/>
<path d="M7020 12389 c0 -5 -12 -36 -26 -67 -14 -31 -33 -77 -41 -102 -8 -25 -24 -57 -35 -72 l-19 -28 -186 0 c-141 0 -184 -3 -181 -12 4 -12 31 -29 139 -87 85 -45 149 -91 149 -105 0 -18 -26 -92 -52 -146 -53 -112 -52 -110 -40 -122 13 -13 63 9 182 83 36 21 80 47 99 55 41 19 37 20 262 -113 55 -34 89 -42 89 -22 0 16 -45 136 -69 185 -38 77 -37 90 6 117 21 14 66 39 98 56 147 79 154 84 155 104 0 4 -80 7 -178 7 -158 0 -181 2 -194 18 -19 20 -58 97 -58 112 0 5 -14 41 -31 80 -23 50 -37 70 -50 70 -11 0 -19 -5 -19 -11z"/>
<path d="M2413 11708 c-6 -7 -21 -44 -33 -83 -13 -38 -36 -97 -52 -131 -36 -76 -40 -77 -257 -72 -101 2 -156 -1 -158 -7 -3 -9 66 -56 155 -105 101 -56 142 -83 142 -96 0 -7 -11 -37 -25 -66 -13 -29 -36 -82 -50 -118 -14 -36 -28 -70 -31 -76 -3 -6 3 -14 12 -18 11 -4 41 8 83 33 36 21 97 57 135 80 72 43 106 49 143 28 12 -6 74 -42 138 -80 147 -85 162 -80 106 39 -15 33 -38 89 -51 124 l-22 63 23 19 c13 10 53 35 89 54 152 83 185 103 185 115 0 10 -42 12 -186 10 -205 -3 -197 -5 -223 65 -43 112 -94 228 -103 231 -5 2 -15 -2 -20 -9z"/>
<path d="M4246 11708 c-22 -73 -74 -208 -99 -258 l-13 -25 -189 -1 c-111 0 -190 -4 -192 -10 -3 -9 61 -51 170 -113 23 -13 61 -34 84 -48 l42 -23 -30 -88 c-17 -48 -40 -104 -50 -124 -41 -81 -16 -99 66 -47 27 17 58 35 70 39 12 5 48 25 80 45 70 45 106 44 186 -7 95 -61 195 -118 207 -118 7 0 12 5 12 12 0 15 -42 124 -81 208 l-29 65 27 23 c16 13 51 35 78 49 28 14 68 37 90 52 22 14 57 35 78 45 21 11 36 24 34 29 -2 6 -80 10 -192 11 l-190 1 -32 65 c-18 36 -37 83 -44 105 -13 48 -57 125 -70 125 -5 0 -11 -6 -13 -12z"/>
<path d="M6087 11668 c-43 -119 -90 -224 -105 -236 -13 -10 -61 -13 -187 -12 -93 1 -176 1 -182 1 -28 -2 -10 -22 45 -51 99 -54 221 -125 233 -137 13 -13 10 -22 -46 -153 -44 -101 -51 -136 -29 -144 11 -4 30 4 53 22 20 16 55 39 79 51 23 12 63 35 89 51 26 17 61 30 77 30 29 0 107 -40 251 -129 53 -33 75 -38 75 -19 0 16 -45 131 -81 207 -36 76 -34 80 69 135 137 74 197 112 197 125 0 10 -40 13 -185 15 l-184 1 -23 40 c-12 22 -32 69 -44 105 -22 67 -63 140 -78 140 -5 0 -16 -19 -24 -42z"/>
<path d="M9767 11698 c-9 -33 -47 -139 -74 -203 l-30 -70 -184 -2 c-101 -1 -190 -2 -196 -2 -25 -2 -12 -16 35 -40 26 -14 56 -32 67 -41 11 -9 56 -36 100 -59 95 -50 101 -56 88 -73 -6 -7 -18 -38 -28 -68 -10 -30 -31 -81 -46 -114 -16 -32 -29 -64 -29 -72 0 -24 44 -16 86 16 21 16 42 30 46 30 4 0 42 21 84 47 43 25 89 46 105 46 15 0 60 -19 101 -43 40 -24 104 -61 141 -83 86 -51 98 -42 59 44 -16 35 -35 82 -42 104 -7 22 -19 49 -26 60 -29 41 -10 66 86 115 40 20 189 107 199 116 14 12 -27 16 -192 14 -139 0 -186 2 -194 12 -5 7 -20 38 -32 68 -77 184 -88 205 -104 208 -9 2 -19 -2 -20 -10z"/>
<path d="M7926 11672 c-8 -15 -24 -56 -35 -89 -11 -34 -33 -83 -49 -110 l-28 -48 -183 -1 c-100 -1 -185 -5 -188 -8 -8 -7 20 -30 64 -51 18 -9 35 -20 38 -25 4 -6 39 -26 78 -46 40 -19 83 -44 96 -53 l24 -18 -16 -39 c-75 -181 -96 -239 -88 -247 9 -9 52 10 101 43 79 54 188 110 215 110 29 0 138 -57 232 -121 39 -27 72 -36 86 -23 7 7 -24 95 -57 158 -52 99 -46 131 31 171 31 16 121 68 213 124 31 18 -4 23 -184 21 l-185 -1 -21 40 c-11 22 -20 45 -20 52 0 6 -16 45 -35 86 -19 41 -35 81 -35 89 0 25 -39 15 -54 -14z"/>
<path d="M1494 11052 c-6 -4 -23 -38 -38 -77 -42 -108 -69 -168 -85 -187 -12 -16 -34 -18 -175 -18 -89 0 -171 -3 -183 -6 -33 -9 -28 -29 10 -45 17 -7 52 -25 77 -40 25 -14 77 -45 117 -69 l72 -42 -20 -51 c-12 -29 -30 -74 -40 -102 -11 -27 -26 -63 -35 -78 -17 -30 -13 -57 9 -57 7 0 44 18 83 41 38 23 99 59 135 80 36 21 74 39 85 38 10 0 64 -27 119 -60 209 -124 229 -124 176 -7 -18 40 -42 100 -53 132 l-21 59 29 24 c16 12 56 37 89 55 33 17 70 39 83 49 13 10 36 20 52 24 27 6 47 31 34 44 -3 3 -88 7 -189 9 -127 2 -186 7 -193 15 -5 7 -16 32 -25 57 -21 60 -83 200 -94 211 -4 4 -13 5 -19 1z"/>
<path d="M3338 11042 c-8 -9 -25 -44 -36 -77 -22 -65 -63 -162 -75 -182 -6 -10 -52 -13 -171 -13 -166 0 -226 -6 -226 -21 0 -5 26 -22 58 -37 178 -88 246 -135 239 -166 -11 -47 -68 -191 -83 -207 -19 -21 -15 -53 6 -57 9 -1 47 16 85 39 39 23 100 59 137 81 78 46 90 46 178 -6 160 -95 198 -116 213 -116 24 0 21 18 -12 91 -17 35 -41 94 -55 131 l-25 67 72 42 c40 23 83 49 97 58 13 9 47 27 74 41 98 49 69 60 -164 60 -173 0 -169 -1 -190 65 -7 22 -20 54 -29 70 -10 17 -26 54 -36 83 -24 65 -37 78 -57 54z"/>
<path d="M10687 11013 c-8 -26 -29 -82 -47 -123 -18 -41 -36 -85 -41 -97 l-9 -23 -157 0 c-170 0 -236 -7 -230 -23 1 -5 45 -32 97 -59 143 -74 203 -117 195 -136 -4 -10 -15 -39 -25 -67 -9 -27 -31 -79 -48 -114 -17 -35 -28 -70 -25 -78 9 -22 22 -16 234 109 76 44 103 47 152 13 20 -13 58 -36 84 -51 163 -93 173 -97 173 -69 0 9 -6 26 -14 38 -8 12 -27 58 -42 102 -15 44 -34 90 -42 103 -8 12 -13 24 -11 26 12 12 109 75 139 90 110 57 154 83 157 92 6 18 -49 24 -218 24 l-158 0 -35 74 c-18 41 -40 91 -47 113 -16 49 -42 96 -56 100 -6 2 -18 -18 -26 -44z"/>
<path d="M5167 11044 c-4 -4 -7 -17 -7 -28 0 -12 -13 -46 -29 -77 -17 -30 -35 -76 -42 -102 -6 -26 -16 -51 -23 -56 -6 -5 -95 -11 -198 -13 -102 -2 -190 -6 -194 -10 -10 -11 13 -35 39 -42 26 -6 165 -83 220 -121 45 -32 44 -34 -19 -183 -40 -96 -46 -132 -22 -132 6 0 44 20 85 45 40 25 76 45 79 45 2 0 29 16 59 36 67 45 80 43 195 -25 169 -100 210 -117 210 -88 0 7 -6 21 -14 32 -7 11 -21 45 -31 75 -10 30 -28 76 -41 102 -13 26 -24 51 -24 56 0 4 28 27 63 49 65 42 88 55 174 98 29 15 55 31 58 36 13 20 -53 29 -209 29 -121 0 -166 3 -174 13 -6 7 -25 49 -41 92 -55 143 -89 193 -114 169z"/>
<path d="M8867 11032 c-8 -9 -37 -71 -64 -137 l-49 -120 -186 -5 c-102 -3 -189 -8 -193 -12 -11 -10 4 -29 34 -42 41 -18 261 -146 261 -152 0 -2 -11 -27 -25 -56 -33 -71 -76 -178 -82 -205 -10 -44 5 -37 239 103 66 40 93 42 139 11 19 -13 59 -37 89 -53 30 -17 77 -43 103 -59 68 -39 79 -24 42 57 -33 75 -75 185 -75 198 0 14 176 124 255 159 37 16 56 35 43 42 -2 1 -91 4 -198 8 l-194 6 -26 70 c-15 39 -36 88 -47 110 -11 22 -23 52 -27 68 -7 31 -17 34 -39 9z"/>
<path d="M7006 10997 c-10 -23 -31 -75 -47 -116 -44 -115 -37 -111 -214 -111 -164 0 -218 -6 -212 -24 4 -11 63 -47 147 -89 25 -12 67 -37 94 -56 44 -30 47 -36 42 -63 -5 -26 -54 -145 -89 -216 -8 -17 -8 -25 1 -34 13 -13 31 -6 117 48 188 116 198 119 270 74 99 -62 220 -130 232 -130 26 0 9 57 -61 213 -14 32 -26 62 -26 67 0 13 64 54 189 121 58 30 106 60 108 66 6 17 -50 23 -218 23 l-159 0 -20 33 c-11 17 -30 61 -41 97 -49 147 -79 173 -113 97z"/>
<path d="M4247 10362 c-3 -4 -8 -25 -12 -47 -3 -21 -14 -53 -23 -70 -8 -16 -27 -61 -42 -100 l-26 -70 -197 0 c-257 0 -257 0 -24 -129 29 -15 69 -39 89 -52 l37 -24 -23 -67 c-13 -38 -36 -93 -50 -123 -30 -63 -34 -100 -10 -100 9 0 41 15 72 34 128 75 198 115 214 121 9 4 33 -2 55 -12 60 -30 206 -114 232 -134 33 -27 55 -25 48 4 -10 41 -65 184 -86 223 l-21 39 32 28 c18 15 60 42 93 61 33 18 86 48 118 65 97 55 84 61 -134 61 l-190 0 -26 58 c-14 31 -32 75 -39 97 -34 97 -74 160 -87 137z"/>
<path d="M2413 10348 c-6 -7 -20 -42 -32 -78 -12 -36 -33 -87 -46 -115 -13 -27 -26 -58 -29 -69 -6 -17 -18 -18 -201 -15 -169 4 -195 2 -193 -11 3 -16 77 -64 202 -132 43 -24 83 -50 88 -58 7 -11 2 -32 -15 -70 -14 -30 -28 -66 -32 -80 -4 -14 -19 -49 -32 -79 -31 -65 -19 -82 37 -49 19 12 58 33 85 48 28 15 78 44 113 64 45 27 69 35 85 31 23 -8 132 -68 219 -122 29 -18 61 -33 71 -33 17 0 19 5 13 32 -3 18 -19 59 -35 93 -15 33 -36 82 -46 109 l-17 48 18 18 c11 10 48 34 84 52 132 70 200 113 200 128 0 13 -26 15 -186 12 -206 -4 -216 -1 -230 62 -3 17 -14 45 -23 61 -9 17 -27 59 -41 94 -26 67 -40 81 -57 59z"/>
<path d="M6091 10328 c-14 -50 -90 -230 -103 -245 -9 -11 -53 -13 -197 -13 -148 2 -186 -1 -188 -12 -3 -12 127 -93 233 -146 63 -32 66 -39 43 -107 -10 -32 -25 -68 -33 -79 -15 -24 -46 -113 -46 -133 0 -24 30 -13 131 47 194 117 184 115 299 44 40 -24 75 -44 78 -44 4 0 29 -16 56 -35 52 -37 76 -44 76 -22 0 18 -87 236 -101 253 -17 21 19 57 101 101 250 133 250 133 5 133 l-185 0 -25 38 c-13 20 -35 69 -49 108 -23 69 -64 144 -78 144 -4 0 -11 -15 -17 -32z"/>
<path d="M9773 10348 c-6 -7 -13 -26 -17 -43 -6 -26 -64 -172 -86 -215 -6 -12 -39 -15 -199 -16 -105 -1 -191 -4 -192 -8 -2 -21 34 -46 191 -130 92 -50 117 -71 103 -88 -6 -7 -22 -46 -37 -85 -14 -40 -35 -91 -46 -113 -11 -21 -20 -46 -20 -55 0 -21 29 -19 65 6 17 11 55 34 85 50 30 17 78 43 105 59 28 16 57 30 65 30 15 0 255 -132 275 -151 12 -12 55 -12 55 0 0 5 -13 36 -30 69 -16 34 -30 64 -30 67 0 4 -12 36 -26 72 l-26 65 28 24 c16 14 49 35 74 48 25 12 70 38 100 56 30 19 65 40 78 47 47 28 22 33 -167 33 -139 0 -191 3 -198 13 -11 14 -72 149 -99 221 -20 52 -35 65 -51 44z"/>
<path d="M7922 10308 c-10 -24 -25 -61 -32 -83 -16 -51 -48 -115 -68 -138 -15 -17 -33 -18 -196 -16 -112 1 -181 -1 -183 -8 -6 -18 30 -43 187 -126 36 -19 76 -44 89 -55 l25 -19 -26 -59 c-106 -239 -107 -263 -14 -201 31 21 57 37 59 37 2 0 43 23 91 50 48 28 92 50 99 50 15 0 81 -35 198 -105 51 -30 98 -55 107 -55 21 0 10 58 -27 134 -35 74 -56 140 -49 158 3 7 69 49 147 93 77 43 141 85 141 92 0 10 -45 13 -192 15 l-192 3 -13 25 c-17 34 -62 145 -82 202 -20 61 -42 62 -69 6z"/>
<path d="M1482 9653 c-5 -10 -21 -49 -35 -88 -36 -99 -64 -160 -81 -174 -11 -9 -65 -12 -190 -10 -97 1 -179 -1 -182 -4 -4 -4 4 -16 17 -27 24 -19 36 -27 192 -118 43 -25 80 -49 83 -53 3 -5 -6 -30 -19 -56 -13 -26 -30 -66 -37 -88 -7 -22 -24 -61 -38 -88 -44 -82 -19 -78 164 28 72 41 140 75 150 75 11 -1 53 -21 94 -45 104 -62 220 -118 227 -111 8 8 -16 82 -39 122 -19 33 -58 140 -58 159 0 7 38 35 86 61 104 60 194 122 194 135 0 5 -71 9 -173 9 -196 0 -206 3 -230 72 -39 109 -87 213 -101 216 -8 2 -19 -5 -24 -15z"/>
<path d="M3324 9635 c-7 -19 -14 -37 -14 -41 0 -15 -74 -180 -88 -196 -13 -16 -36 -18 -194 -18 -105 0 -178 -4 -178 -9 0 -13 52 -52 115 -87 28 -15 66 -38 85 -51 19 -12 40 -23 46 -23 6 0 19 -9 28 -19 16 -17 16 -22 3 -43 -8 -12 -25 -54 -37 -91 -12 -37 -33 -88 -46 -112 -16 -28 -21 -46 -14 -50 16 -10 120 43 262 132 21 13 47 23 58 23 17 0 137 -58 165 -80 20 -15 146 -80 156 -80 7 0 9 10 6 23 -6 27 -72 191 -92 231 -19 35 -11 47 54 82 164 89 221 126 221 145 0 5 -74 9 -184 9 -201 0 -195 -2 -216 65 -7 22 -20 54 -30 71 -9 17 -25 55 -35 85 -26 79 -48 89 -71 34z"/>
<path d="M5170 9651 c-5 -11 -10 -26 -10 -33 0 -7 -11 -35 -25 -63 -13 -27 -34 -77 -47 -110 l-23 -60 -193 -3 c-136 -2 -192 -6 -190 -14 5 -13 258 -168 275 -168 24 0 22 -20 -13 -106 -20 -49 -44 -110 -54 -135 -10 -25 -15 -51 -11 -58 8 -12 23 -4 225 110 38 21 78 39 90 39 12 -1 55 -21 96 -45 41 -24 101 -58 132 -74 31 -17 59 -35 63 -41 3 -5 13 -10 21 -10 15 0 20 35 5 45 -5 3 -21 40 -35 83 -15 42 -37 97 -51 120 -14 24 -22 48 -19 53 3 5 31 23 62 40 154 83 232 133 232 150 0 5 -77 9 -185 9 l-185 0 -28 58 c-16 31 -34 73 -41 92 -18 51 -65 140 -73 140 -4 0 -12 -9 -18 -19z"/>
<path d="M8865 9648 c-8 -13 -29 -57 -45 -98 -16 -41 -39 -95 -53 -120 l-24 -45 -186 -3 c-118 -1 -187 -6 -187 -13 0 -5 20 -22 45 -37 25 -15 80 -48 122 -74 43 -27 82 -48 89 -48 6 0 19 -9 28 -19 16 -18 16 -21 -7 -68 -13 -26 -30 -66 -37 -88 -7 -22 -23 -59 -36 -82 -13 -23 -21 -49 -18 -57 7 -18 20 -21 29 -7 3 6 34 25 68 44 65 35 167 94 203 117 19 12 30 8 105 -35 163 -94 227 -126 234 -115 7 11 -13 73 -48 151 -14 30 -32 71 -41 91 l-16 38 23 13 c80 49 128 77 172 102 53 29 95 63 95 77 0 4 -84 9 -187 10 l-187 3 -14 40 c-8 22 -29 74 -48 115 -18 41 -35 87 -38 103 -8 33 -20 34 -41 5z"/>
<path d="M10687 9622 c-8 -27 -25 -69 -37 -93 -13 -24 -31 -66 -40 -94 l-17 -50 -191 -3 c-110 -1 -192 -6 -192 -12 0 -11 66 -57 135 -94 71 -39 143 -81 150 -88 8 -8 -32 -121 -74 -209 -36 -76 -36 -79 -16 -79 15 0 128 52 149 69 6 5 29 19 51 31 22 12 56 31 76 42 l37 20 68 -37 c38 -21 76 -44 84 -50 8 -7 48 -29 88 -50 84 -44 105 -39 73 17 -12 19 -30 61 -41 93 -11 32 -31 78 -45 101 l-25 43 22 14 c41 25 111 65 173 98 61 31 105 66 105 81 0 4 -84 9 -186 10 l-186 3 -44 105 c-82 196 -94 210 -117 132z"/>
<path d="M7009 9613 c-11 -27 -32 -77 -45 -112 -14 -35 -31 -76 -40 -92 l-15 -29 -189 0 c-105 0 -190 -4 -190 -9 0 -9 97 -76 133 -91 12 -6 51 -27 87 -48 61 -36 65 -41 64 -74 -1 -19 -15 -64 -32 -99 -29 -60 -62 -145 -62 -161 0 -14 37 -8 50 7 6 8 22 17 33 21 12 4 70 36 130 72 l107 64 151 -86 c83 -47 154 -86 159 -86 26 0 12 44 -69 223 l-30 67 22 13 c12 8 56 33 97 57 116 67 180 109 180 120 0 6 -70 10 -185 10 l-186 0 -33 73 c-19 39 -46 102 -61 140 -16 37 -34 67 -41 67 -7 0 -23 -21 -35 -47z"/>
<path d="M2407 8963 c-2 -4 -16 -44 -31 -88 -14 -45 -39 -106 -54 -135 l-29 -55 -192 -3 c-140 -2 -191 -6 -189 -14 2 -6 35 -30 74 -53 38 -23 102 -61 142 -85 41 -24 76 -49 79 -55 2 -7 -7 -36 -20 -66 -14 -30 -28 -65 -32 -79 -4 -14 -19 -47 -32 -74 -35 -70 -20 -79 60 -37 82 43 167 92 197 114 39 28 66 21 179 -47 150 -90 171 -100 184 -87 10 10 2 37 -56 176 -43 104 -43 101 5 132 24 15 90 54 147 88 58 33 106 66 109 73 3 9 -39 12 -186 12 -213 0 -206 -2 -234 80 -52 152 -102 236 -121 203z"/>
<path d="M4240 8949 c0 -11 -15 -57 -34 -102 -19 -45 -40 -100 -48 -122 l-14 -40 -197 -3 c-215 -3 -234 -9 -154 -50 53 -29 122 -68 167 -97 19 -12 47 -29 62 -38 l26 -16 -28 -79 c-16 -44 -38 -98 -49 -120 -59 -117 -6 -108 216 34 29 19 63 34 76 34 13 0 64 -23 113 -52 169 -98 195 -111 206 -100 10 10 -38 145 -84 235 -22 44 -19 50 30 78 20 11 66 38 102 59 36 22 84 48 108 59 23 11 42 27 42 36 0 13 -25 15 -185 15 l-185 0 -20 33 c-11 17 -34 67 -50 109 -47 121 -62 148 -82 148 -11 0 -18 -7 -18 -21z"/>
<path d="M9774 8962 c-6 -4 -14 -23 -18 -42 -4 -19 -26 -80 -50 -135 l-43 -100 -197 -3 c-213 -3 -225 -7 -150 -49 71 -40 175 -98 217 -121 23 -12 41 -28 40 -35 -4 -23 -62 -177 -83 -216 -25 -50 -25 -61 0 -61 24 0 76 27 205 105 50 30 93 55 96 55 8 0 163 -89 216 -124 47 -31 120 -48 110 -25 -47 109 -100 239 -104 256 -4 18 1 25 22 33 14 5 41 21 59 35 18 14 37 25 41 25 5 0 31 14 58 32 28 18 64 39 80 47 68 35 48 40 -154 43 l-193 3 -13 25 c-38 78 -73 158 -73 169 0 16 -41 91 -49 91 -3 0 -11 -4 -17 -8z"/>
<path d="M6094 8943 c-3 -10 -14 -38 -26 -62 -11 -25 -31 -74 -44 -110 -13 -35 -29 -70 -35 -78 -9 -10 -56 -13 -201 -13 -145 0 -189 -3 -186 -12 3 -7 45 -36 94 -65 136 -79 194 -115 199 -123 6 -9 -31 -118 -46 -136 -12 -14 -49 -113 -49 -130 0 -30 37 -18 133 40 57 35 122 73 145 85 l42 22 100 -58 c214 -125 220 -127 220 -100 0 11 -50 139 -94 239 l-16 38 42 27 c48 30 163 96 221 126 20 10 37 25 37 33 0 11 -33 14 -185 14 l-185 0 -24 38 c-13 20 -34 67 -46 104 -33 103 -82 165 -96 121z"/>
<path d="M7937 8942 c-9 -10 -28 -50 -41 -88 -26 -79 -51 -131 -74 -156 -13 -16 -36 -18 -199 -18 -137 0 -184 -3 -181 -12 4 -12 72 -55 189 -120 36 -21 75 -45 87 -55 19 -17 20 -21 7 -53 -32 -85 -67 -168 -82 -198 -14 -28 -15 -35 -3 -42 14 -8 84 22 140 60 77 53 172 102 186 96 9 -3 77 -42 151 -86 74 -44 139 -77 145 -74 15 9 3 56 -38 145 -19 44 -38 94 -41 112 l-5 33 73 44 c41 24 99 59 129 77 31 18 60 33 67 33 9 0 23 21 23 36 0 2 -85 4 -189 4 -140 0 -191 3 -199 13 -6 7 -22 42 -35 77 -43 111 -75 184 -85 188 -4 1 -16 -6 -25 -16z"/>
<path d="M1494 8292 c-6 -4 -25 -46 -42 -94 -17 -48 -43 -110 -57 -138 l-25 -50 -188 -2 c-158 -3 -187 -5 -187 -18 0 -14 93 -74 210 -136 82 -43 87 -50 69 -93 -49 -113 -94 -230 -94 -245 0 -22 11 -20 54 9 20 14 39 25 41 25 2 0 28 14 57 32 29 17 80 46 113 64 l60 33 50 -27 c27 -14 61 -34 75 -43 14 -9 50 -30 80 -46 30 -16 65 -36 77 -43 18 -12 25 -12 35 -2 9 9 7 23 -11 64 -57 128 -74 174 -75 202 -1 27 6 34 74 73 41 23 100 56 131 72 68 36 89 58 68 72 -8 5 -94 9 -191 9 l-177 0 -15 22 c-9 12 -16 28 -16 35 0 7 -16 47 -35 89 -19 41 -38 86 -41 99 -7 29 -26 46 -40 37z"/>
<path d="M3290 8168 c-29 -73 -57 -139 -62 -145 -8 -10 -57 -13 -183 -13 -168 0 -205 -4 -205 -20 0 -9 53 -43 175 -113 44 -25 90 -53 102 -62 l23 -16 -16 -37 c-9 -20 -27 -66 -40 -102 -14 -35 -31 -74 -39 -87 -36 -54 -4 -84 48 -43 14 11 28 20 31 20 3 0 29 14 58 32 29 17 80 46 113 64 l59 32 61 -33 c116 -62 180 -99 207 -117 28 -19 54 -23 62 -9 3 4 -9 39 -28 77 -46 95 -79 191 -73 208 3 7 29 27 59 43 211 117 238 136 223 151 -4 4 -92 9 -197 12 l-191 5 -12 40 c-6 23 -26 70 -43 105 -17 36 -38 82 -46 103 -8 20 -19 37 -24 37 -5 0 -33 -60 -62 -132z"/>
<path d="M5167 8283 c-4 -3 -7 -18 -7 -32 0 -14 -13 -51 -29 -81 -16 -30 -34 -74 -40 -96 -18 -68 -22 -69 -215 -66 -178 3 -215 -4 -186 -32 17 -17 130 -83 207 -121 72 -36 79 -46 64 -97 -7 -23 -27 -71 -43 -107 -39 -85 -48 -115 -37 -132 7 -11 12 -12 26 -2 10 6 68 40 128 74 61 35 119 69 130 76 18 11 29 9 80 -18 93 -46 216 -117 235 -134 25 -23 43 -19 37 8 -6 27 -48 131 -84 209 -14 31 -23 62 -21 70 3 7 39 32 79 54 278 154 278 158 6 152 l-161 -3 -22 33 c-13 18 -30 54 -40 80 -45 129 -84 188 -107 165z"/>
<path d="M8863 8263 c-11 -16 -27 -50 -37 -78 -9 -27 -31 -79 -49 -115 l-32 -65 -182 0 c-100 0 -185 -3 -189 -8 -15 -14 31 -45 212 -144 85 -46 90 -53 65 -101 -11 -22 -32 -71 -46 -108 -14 -38 -33 -76 -42 -86 -17 -19 -11 -48 9 -48 8 0 24 7 37 16 13 10 56 35 95 57 39 21 95 53 124 69 l52 29 68 -37 c37 -20 84 -48 104 -61 21 -12 41 -23 44 -23 4 0 22 -12 41 -26 34 -26 63 -26 63 -2 0 7 -16 49 -36 93 -19 44 -42 101 -51 127 -20 58 -14 67 71 108 34 17 88 46 121 66 133 78 121 87 -113 82 l-186 -3 -14 40 c-8 22 -29 74 -48 115 -18 41 -35 87 -38 103 -4 15 -10 27 -14 27 -5 0 -17 -12 -29 -27z"/>
<path d="M10697 8284 c-4 -4 -7 -15 -7 -25 0 -10 -12 -44 -26 -76 -15 -32 -37 -85 -49 -118 l-23 -60 -190 0 c-105 0 -194 -3 -198 -8 -12 -11 8 -24 219 -142 54 -30 72 -45 70 -60 -2 -30 -29 -101 -70 -187 -29 -62 -34 -81 -25 -90 10 -10 16 -10 30 -1 18 13 130 76 229 130 l62 34 58 -32 c32 -17 63 -35 68 -39 6 -4 35 -21 65 -37 30 -17 69 -39 87 -49 49 -29 62 -8 30 48 -14 23 -30 61 -37 83 -7 22 -24 62 -37 89 -13 26 -22 53 -20 60 3 6 27 23 53 36 27 13 67 36 89 50 22 14 56 34 77 45 54 28 84 53 74 62 -4 4 -91 8 -192 8 l-185 0 -45 105 c-71 169 -87 194 -107 174z"/>
<path d="M7020 8265 c0 -9 -11 -37 -24 -63 -13 -26 -31 -70 -40 -99 -10 -28 -26 -63 -36 -76 l-19 -24 -173 4 c-180 4 -217 -2 -188 -31 16 -16 163 -101 221 -129 73 -34 74 -51 11 -193 -54 -120 -57 -133 -37 -140 9 -4 23 0 33 8 35 30 256 150 276 150 19 0 144 -67 255 -139 61 -38 61 -38 61 -10 0 23 -17 68 -80 214 -12 29 -20 59 -17 67 4 9 37 31 74 51 95 50 185 104 202 120 30 29 2 34 -174 31 -153 -4 -176 -2 -189 13 -15 17 -40 69 -91 194 -20 49 -32 67 -46 67 -11 0 -19 -7 -19 -15z"/>
<path d="M2407 7568 c-8 -13 -25 -52 -37 -88 -12 -36 -33 -90 -48 -120 l-27 -55 -183 -3 c-143 -2 -182 -5 -182 -16 0 -18 26 -39 80 -66 39 -19 90 -49 188 -107 l22 -14 -24 -47 c-13 -26 -31 -70 -40 -99 -10 -29 -29 -69 -42 -89 -18 -26 -22 -40 -14 -48 11 -11 79 21 243 115 l89 50 81 -47 c254 -146 260 -147 227 -63 -11 28 -27 63 -35 78 -19 38 -55 133 -55 148 0 6 24 25 53 41 234 130 242 136 231 154 -3 4 -85 8 -183 8 -131 0 -181 3 -189 13 -6 6 -19 35 -30 62 -53 133 -88 209 -99 212 -6 2 -18 -6 -26 -19z"/>
<path d="M4244 7573 c-6 -18 -9 -27 -70 -183 l-33 -85 -190 -3 c-105 -1 -191 -6 -191 -11 0 -16 50 -50 168 -116 62 -34 115 -65 119 -68 6 -7 1 -21 -64 -176 -24 -57 -41 -106 -38 -109 10 -10 78 20 194 86 63 36 123 65 132 65 10 -1 36 -13 58 -27 22 -14 44 -26 48 -26 5 0 24 -11 43 -24 41 -27 165 -96 174 -96 10 0 7 38 -3 45 -5 3 -24 42 -41 88 -18 45 -41 99 -51 120 -11 21 -17 42 -14 47 4 6 25 20 48 32 23 11 56 31 73 44 17 13 34 24 39 24 4 0 34 16 66 36 96 58 87 63 -126 66 l-186 3 -40 95 c-68 162 -82 190 -96 190 -8 0 -16 -8 -19 -17z"/>
<path d="M6091 7558 c-14 -47 -91 -231 -103 -245 -8 -10 -59 -13 -194 -13 -110 0 -184 -4 -184 -9 0 -14 55 -53 125 -91 75 -39 152 -84 161 -92 8 -9 -12 -68 -52 -155 -19 -39 -37 -85 -40 -101 -7 -33 9 -50 30 -33 8 7 33 22 57 35 24 12 85 46 136 75 l92 52 76 -43 c41 -24 99 -56 128 -73 29 -16 64 -38 77 -47 14 -10 28 -18 32 -18 11 0 10 44 0 56 -5 5 -19 38 -32 74 -12 36 -33 87 -47 113 -13 26 -21 52 -18 58 4 5 27 21 53 34 120 65 227 134 230 149 3 14 -15 16 -177 16 l-181 0 -20 33 c-11 17 -28 54 -38 82 -24 70 -75 169 -89 173 -6 2 -16 -12 -22 -30z"/>
<path d="M9773 7578 c-5 -7 -15 -31 -21 -53 -6 -22 -29 -80 -51 -130 l-39 -90 -191 -3 c-121 -1 -191 -6 -191 -13 0 -10 17 -21 187 -120 56 -33 105 -64 108 -70 4 -5 2 -16 -4 -23 -6 -7 -22 -44 -35 -82 -13 -38 -35 -91 -49 -119 l-26 -50 19 -3 c20 -3 67 20 229 113 75 43 86 46 105 35 12 -8 44 -25 71 -40 28 -15 68 -38 90 -52 51 -32 137 -70 143 -63 3 2 -9 35 -25 72 -17 38 -37 86 -43 107 -7 22 -21 54 -32 71 -21 37 -20 38 57 79 118 63 210 122 213 138 3 16 -12 18 -179 20 -149 3 -183 6 -190 18 -19 35 -70 150 -91 204 -25 62 -38 75 -55 54z"/>
<path d="M7929 7558 c-7 -13 -24 -57 -39 -98 -15 -41 -39 -94 -53 -117 l-27 -43 -175 0 c-209 0 -221 -7 -120 -66 72 -42 96 -55 164 -92 34 -18 61 -37 61 -42 0 -5 -15 -44 -34 -87 -19 -43 -37 -89 -41 -103 -4 -14 -16 -40 -27 -58 -16 -26 -17 -33 -6 -37 12 -5 174 78 293 150 l30 17 80 -45 c141 -81 234 -127 239 -119 6 10 -17 80 -46 135 -17 34 -58 142 -58 153 0 2 26 17 58 34 84 45 205 116 220 129 29 27 7 31 -172 31 -137 0 -187 3 -193 13 -12 19 -94 219 -100 245 -3 13 -13 22 -24 22 -10 0 -24 -10 -30 -22z"/>
<path d="M1491 6896 c-6 -7 -25 -49 -40 -92 -16 -44 -41 -103 -56 -131 l-26 -53 -147 -2 c-81 -1 -166 -1 -190 0 -36 2 -43 -1 -40 -15 3 -17 84 -69 183 -118 28 -13 64 -37 82 -52 l32 -28 -29 -65 c-65 -152 -83 -201 -73 -211 9 -9 50 9 133 58 19 11 67 39 107 62 l72 42 53 -26 c29 -15 94 -51 144 -81 148 -88 156 -79 80 91 -12 28 -29 70 -36 94 l-14 44 29 24 c17 13 55 37 85 53 237 123 237 122 -10 128 -102 2 -190 9 -197 14 -7 5 -15 20 -18 31 -12 43 -100 247 -106 247 -4 0 -12 -6 -18 -14z"/>
<path d="M3331 6888 c-5 -13 -21 -57 -36 -98 -16 -41 -39 -96 -52 -122 l-23 -48 -143 -2 c-78 -2 -164 -2 -190 -1 -76 2 -57 -24 68 -92 150 -81 178 -102 172 -129 -11 -46 -58 -171 -79 -207 -19 -34 -20 -69 -1 -69 5 0 69 36 143 80 86 51 146 80 164 80 17 0 59 -17 95 -39 162 -95 210 -121 220 -121 18 0 12 32 -17 95 -16 33 -39 91 -52 129 l-25 68 28 22 c15 12 53 36 85 53 175 95 178 96 170 120 -2 4 -21 8 -43 8 -334 4 -335 4 -341 23 -3 9 -14 40 -26 67 -11 28 -31 77 -45 110 -40 100 -55 116 -72 73z"/>
<path d="M8859 6867 c-15 -23 -32 -60 -39 -82 -26 -82 -69 -163 -88 -169 -11 -4 -95 -5 -188 -4 -145 3 -169 1 -172 -12 -2 -10 17 -26 50 -43 144 -76 243 -136 241 -149 -2 -17 -69 -185 -88 -221 -18 -34 -19 -67 -4 -67 6 0 41 18 78 41 152 93 201 119 231 119 20 0 75 -26 160 -75 71 -41 137 -75 146 -75 21 0 14 29 -31 130 -18 41 -38 93 -45 115 l-13 39 27 21 c29 21 124 76 214 122 90 47 74 53 -132 53 l-185 0 -15 22 c-9 12 -23 44 -32 72 -9 27 -25 63 -35 80 -10 17 -23 52 -30 79 -6 26 -14 47 -18 47 -3 0 -18 -19 -32 -43z"/>
<path d="M10685 6853 c-9 -32 -22 -67 -29 -78 -7 -11 -23 -47 -35 -80 -12 -33 -27 -65 -33 -72 -8 -10 -58 -13 -194 -13 -207 0 -222 -6 -131 -53 101 -54 212 -118 224 -130 10 -9 6 -29 -16 -92 -15 -44 -40 -104 -55 -133 -15 -29 -24 -57 -20 -63 7 -13 53 -3 74 16 8 7 40 25 70 40 30 15 73 40 95 55 80 55 58 61 348 -105 26 -15 51 -24 55 -21 3 4 0 21 -7 39 -7 18 -28 72 -46 121 -19 49 -38 93 -44 99 -6 6 -11 16 -11 22 0 17 84 69 246 152 27 14 44 30 44 40 0 17 -14 18 -180 15 l-180 -3 -20 33 c-11 18 -34 69 -51 113 -34 88 -69 155 -80 155 -4 0 -15 -26 -24 -57z"/>
<path d="M5167 6893 c-4 -3 -7 -15 -7 -26 0 -11 -15 -54 -34 -96 -19 -42 -38 -88 -41 -103 -11 -44 -30 -53 -107 -49 -110 5 -298 -10 -298 -23 0 -6 28 -26 63 -44 89 -46 172 -94 203 -117 l27 -21 -21 -59 c-11 -33 -34 -91 -50 -130 -43 -102 -30 -117 55 -66 206 123 206 123 244 118 35 -5 69 -22 226 -119 93 -57 111 -50 74 27 -20 42 -80 189 -88 215 -4 16 45 53 142 104 125 67 145 80 145 95 0 14 -23 16 -183 19 -100 2 -187 8 -193 13 -13 10 -74 152 -74 170 0 18 -54 99 -66 99 -6 0 -14 -3 -17 -7z"/>
<path d="M7019 6873 c-6 -16 -21 -53 -34 -83 -12 -30 -31 -77 -40 -103 -26 -72 -35 -75 -229 -75 -106 0 -172 -4 -179 -11 -13 -13 -23 -7 113 -80 64 -34 129 -73 145 -86 l30 -23 -21 -59 c-24 -65 -62 -159 -75 -185 -25 -50 6 -54 77 -9 109 68 213 121 239 121 14 0 88 -36 164 -80 76 -44 141 -80 145 -80 18 0 -8 86 -59 195 -44 94 -43 97 17 134 74 45 221 130 231 134 4 1 5 9 2 18 -5 13 -30 15 -177 12 -121 -2 -175 0 -185 9 -20 16 -56 91 -82 169 -19 57 -51 109 -67 109 -2 0 -9 -12 -15 -27z"/>
</g>
</g>
</svg>
