<svg xmlns="http://www.w3.org/2000/svg" version="1.0" width="1608.000000pt" height="1628.000000pt" viewBox="0 0 1608.000000 1628.000000" preserveAspectRatio="xMidYMid meet">
  <g transform="translate(0.000000,1628.000000) scale(0.100000,-0.100000)" stroke="none">
    <mask id="mask-0">
      <g>
        <path d="M 0 0 H 16080.0 V 16280.0 H 0 Z" fill="white" id="background"/>
        <path d="M11425 11490 c-3 -5 -12 -10 -18 -10 -7 0 -6 4 3 10 19 12 23 12 15 0z" fill="black"/>
        <path d="M14585 5620 c33 -63 11 -171 -42 -214 -20 -15 -23 -26 -21 -60 l3 -41 58 -3 c31 -2 57 -7 57 -12 0 -6 -5 -10 -10 -10 -6 0 -23 -19 -38 -42 -15 -24 -47 -63 -70 -88 -24 -25 -42 -55 -42 -67 0 -13 -4 -23 -10 -23 -6 0 -10 31 -10 73 0 69 -2 75 -30 100 -22 20 -30 36 -30 61 0 32 -1 33 -52 42 -49 8 -53 11 -50 34 2 14 6 49 9 78 5 53 10 61 30 41 6 -6 28 -9 49 -7 35 3 41 7 60 48 26 54 85 120 108 120 8 0 22 -13 31 -30z" fill="black"/>
        <path d="M14740 5327 c0 -8 -3 -17 -7 -20 -9 -9 -34 13 -27 24 8 14 34 11 34 -4z" fill="black"/>
        <path d="M12700 3961 c0 -53 18 -65 83 -57 l52 7 -50 -35 c-27 -20 -54 -36 -60 -36 -5 0 -36 -16 -67 -36 -43 -26 -64 -33 -81 -28 -26 8 -117 82 -117 95 0 5 11 14 25 19 14 5 49 28 79 50 29 22 62 40 74 40 11 0 24 5 27 10 3 6 13 10 21 10 10 0 14 -12 14 -39z" fill="black"/>
        <path d="M12378 3962 c4 -25 -13 -30 -22 -6 -9 25 -7 36 7 32 6 -3 13 -14 15 -26z" fill="black"/>
        <path d="M12486 3635 c-24 -22 -49 -35 -65 -35 -15 0 -32 -5 -39 -12 -7 -7 -12 -9 -12 -4 0 12 22 30 55 45 17 7 41 19 55 27 43 23 45 15 6 -21z" fill="black"/>
        <path d="M12125 3605 c23 -57 40 -68 91 -61 37 5 44 3 44 -11 0 -17 -28 -53 -41 -53 -5 0 -31 -13 -59 -30 -28 -16 -54 -30 -58 -30 -4 0 -7 50 -7 110 0 61 3 110 7 110 4 0 14 -16 23 -35z" fill="black"/>
        <path d="M11882 3224 c13 -8 9 -24 -6 -24 -8 0 -28 -16 -45 -35 -17 -19 -32 -35 -35 -35 -8 0 -17 90 -10 101 6 11 75 6 96 -7z" fill="black"/>
        <path d="M11767 3038 c-20 -85 -56 -138 -93 -138 -38 0 -37 18 3 57 21 21 45 53 52 71 16 37 47 45 38 10z" fill="black"/>
        <path d="M11440 2861 c0 -5 14 -14 30 -20 17 -5 30 -15 30 -20 0 -6 15 -11 33 -11 65 0 85 -44 31 -68 -17 -8 -24 -20 -24 -38 0 -29 -7 -29 -100 -4 -48 13 -114 81 -106 108 11 35 106 82 106 53z" fill="black"/>
        <path d="M11320 2076 c0 -8 -7 -16 -15 -20 -10 -4 -15 1 -15 14 0 11 7 20 15 20 8 0 15 -6 15 -14z" fill="black"/>
        <path d="M11260 1785 c0 -8 -4 -15 -10 -15 -5 0 -10 7 -10 15 0 8 5 15 10 15 6 0 10 -7 10 -15z" fill="black"/>
        <path d="M11280 1553 c0 -140 2 -157 20 -180 15 -19 20 -41 20 -83 0 -45 6 -65 25 -94 21 -31 25 -49 25 -107 0 -60 3 -73 24 -94 49 -49 66 -82 66 -128 0 -34 6 -53 25 -75 14 -17 25 -35 25 -42 0 -7 6 -26 13 -43 30 -70 37 -107 37 -200 0 -85 -2 -98 -19 -107 -11 -5 -24 -10 -29 -10 -16 0 -32 58 -32 114 0 40 -4 54 -20 64 -11 7 -20 17 -20 23 0 6 -10 24 -21 41 l-21 29 21 20 c36 34 28 79 -24 133 -25 25 -50 46 -55 46 -24 0 -40 75 -40 180 0 87 -4 118 -21 156 -11 27 -25 70 -31 98 -6 31 -26 70 -53 105 -41 55 -42 58 -41 131 1 86 7 99 39 93 31 -6 57 20 57 56 0 15 3 31 6 34 19 18 24 -18 24 -160z" fill="black"/>
      </g>
    </mask>
    <path stroke="none" d="M4836 16191 c-4 -6 -6 -27 -6 -48 1 -21 -3 -103 -9 -183 -6 -80 -13 -217 -17 -305 -5 -128 -9 -165 -23 -185 -32 -46 -41 -92 -41 -204 0 -62 -9 -256 -20 -431 -11 -176 -22 -372 -24 -435 -7 -196 -24 -528 -36 -690 -6 -85 -15 -261 -20 -390 -5 -129 -14 -307 -20 -395 -6 -88 -16 -252 -21 -365 -45 -909 -50 -970 -84 -1024 -16 -26 -41 -415 -69 -1081 -3 -71 -10 -200 -16 -285 -12 -174 -16 -248 -29 -535 -16 -355 -32 -579 -41 -602 -8 -20 -14 -22 -82 -17 -40 2 -116 9 -168 14 -52 6 -165 12 -250 15 -85 3 -216 10 -290 15 -74 5 -211 14 -305 19 -222 13 -314 19 -460 31 -66 5 -194 14 -285 20 -91 6 -255 18 -365 26 -110 9 -263 20 -340 25 -208 13 -368 26 -480 39 -55 6 -152 15 -215 20 -63 5 -160 14 -215 20 -55 6 -181 15 -280 21 -99 5 -218 14 -265 19 -47 5 -116 12 -155 15 l-70 7 -28 -36 c-29 -38 -47 -111 -47 -197 0 -40 6 -53 41 -93 22 -25 47 -46 55 -46 7 0 29 -13 47 -30 19 -17 46 -30 60 -30 50 0 77 -17 77 -48 0 -16 9 -41 20 -55 11 -14 20 -31 20 -39 0 -7 17 -47 38 -88 21 -41 44 -95 51 -120 23 -78 30 -90 52 -90 11 0 38 -18 60 -39 23 -22 65 -48 97 -61 70 -26 95 -46 126 -100 13 -23 45 -56 71 -73 32 -22 57 -50 77 -87 53 -97 98 -147 155 -174 58 -28 113 -93 113 -134 0 -19 25 -50 95 -120 61 -60 98 -106 103 -126 6 -24 22 -38 68 -65 32 -18 74 -42 92 -52 18 -11 42 -19 53 -19 45 0 178 -118 264 -235 16 -22 43 -56 61 -75 17 -19 43 -57 58 -83 24 -44 26 -54 20 -130 l-7 -82 37 -48 c20 -26 36 -49 36 -50 0 -2 18 -22 39 -45 22 -22 42 -54 46 -71 3 -16 13 -35 21 -42 17 -14 19 -160 4 -324 l-11 -111 52 -89 c99 -171 109 -193 109 -230 0 -47 39 -105 122 -179 59 -54 74 -64 159 -107 52 -26 94 -71 120 -128 17 -39 41 -65 120 -127 65 -52 114 -82 146 -92 26 -8 68 -21 93 -29 25 -8 60 -17 78 -20 26 -4 37 -14 52 -43 11 -21 32 -47 47 -57 43 -30 159 -83 182 -83 40 0 109 -39 142 -80 110 -137 246 -206 425 -217 93 -6 114 6 114 62 0 50 127 192 206 229 68 32 88 40 128 52 42 13 42 28 1 43 -42 15 -50 39 -40 116 6 52 22 82 72 133 22 22 26 38 24 92 -1 16 14 41 42 72 24 27 48 58 54 70 24 50 53 132 53 147 0 30 23 41 86 41 45 0 77 7 116 25 53 24 57 24 93 10 44 -19 105 -16 115 5 4 8 13 29 20 45 22 54 28 60 51 58 13 0 64 -24 112 -52 l89 -51 158 0 c110 0 176 -5 215 -15 220 -60 274 -70 287 -57 8 8 47 12 104 12 91 0 93 0 118 -31 15 -17 33 -45 40 -63 16 -39 40 -58 91 -75 55 -19 64 -36 65 -113 0 -64 1 -67 33 -86 75 -45 129 -72 145 -72 24 0 42 -19 42 -46 0 -27 29 -58 105 -114 33 -24 87 -66 119 -94 76 -66 244 -261 252 -293 4 -14 4 -67 2 -119 -5 -87 -4 -95 17 -114 12 -11 28 -33 36 -48 7 -15 21 -36 31 -47 37 -43 78 -165 78 -231 0 -60 1 -63 39 -93 24 -19 50 -55 69 -95 23 -49 42 -72 72 -91 l40 -25 0 -70 c0 -98 27 -212 62 -265 25 -37 141 -126 207 -160 37 -18 57 -38 81 -77 60 -102 95 -154 129 -195 25 -29 38 -58 47 -102 18 -85 53 -141 127 -202 34 -28 82 -70 107 -93 81 -74 100 -86 144 -86 35 0 48 -6 79 -38 48 -49 77 -128 77 -208 0 -57 -3 -65 -40 -110 -23 -27 -43 -59 -46 -72 -9 -33 18 -66 76 -93 l52 -25 -1 -160 -2 -160 32 -44 c18 -25 69 -82 113 -128 45 -46 93 -101 108 -124 25 -37 27 -47 25 -127 -1 -52 4 -102 12 -126 8 -22 19 -53 24 -70 6 -16 21 -39 34 -50 14 -13 31 -49 44 -95 20 -73 45 -109 78 -110 8 0 22 -6 30 -14 9 -7 39 -18 66 -24 28 -6 82 -17 120 -25 39 -9 91 -18 117 -22 37 -5 51 -13 70 -38 14 -18 27 -40 31 -49 3 -9 25 -30 49 -45 35 -22 55 -27 108 -28 36 0 72 -4 80 -7 8 -3 36 -12 63 -18 26 -7 50 -17 53 -21 3 -5 13 -9 22 -10 9 0 31 -19 47 -42 17 -23 44 -48 60 -56 17 -8 36 -20 43 -28 7 -7 19 -13 25 -13 7 0 29 -14 49 -30 30 -25 55 -34 125 -46 48 -9 91 -18 95 -20 16 -10 160 -6 171 5 13 13 161 15 220 2 23 -5 67 -15 98 -21 47 -11 68 -23 135 -82 43 -39 96 -82 116 -95 20 -14 39 -31 42 -39 4 -11 30 -14 121 -14 107 0 115 1 115 19 0 11 11 32 24 48 22 26 35 31 116 41 51 7 107 19 126 27 34 14 34 14 34 79 l0 66 30 0 c43 0 37 13 -17 41 -63 31 -72 59 -72 220 -1 99 -5 138 -21 184 -11 32 -20 73 -20 90 0 18 -7 38 -15 45 -8 7 -15 18 -15 26 0 7 -6 19 -12 26 -31 32 -58 115 -58 176 0 51 -27 137 -71 228 -24 50 -29 73 -29 136 0 54 -6 88 -20 119 -28 63 -28 191 0 226 17 22 20 41 20 117 0 70 5 102 19 132 10 21 22 64 26 94 8 61 39 134 97 224 22 33 38 72 38 88 0 45 41 114 134 227 47 57 91 120 97 140 12 39 51 111 72 133 6 7 42 49 80 94 37 44 95 102 130 128 34 26 73 62 86 81 14 21 45 45 80 62 31 15 88 48 126 74 39 25 99 61 135 79 78 39 100 57 100 82 0 34 29 76 60 86 16 6 34 21 39 34 5 14 24 29 47 37 22 8 53 23 69 35 32 23 427 224 460 235 11 3 49 24 84 46 184 116 231 145 285 173 32 17 64 41 70 53 8 17 26 25 68 34 50 10 62 17 105 65 93 104 263 260 283 260 4 0 15 15 24 33 11 18 50 54 94 84 43 28 113 78 157 110 44 32 96 69 115 82 44 30 80 84 80 121 0 18 10 39 25 54 28 29 140 106 152 106 4 0 63 27 130 60 67 33 124 60 128 60 7 0 258 124 315 156 60 34 128 45 218 38 126 -11 156 20 112 111 -11 22 -19 45 -20 51 0 6 -7 17 -15 24 -19 16 -19 51 0 76 8 10 15 26 15 34 0 8 14 48 30 89 32 79 93 160 142 188 l30 18 -7 100 c-6 78 -13 110 -31 143 -13 23 -24 55 -24 70 0 16 -14 50 -30 76 l-31 48 43 39 c41 37 42 41 46 107 4 62 2 71 -23 100 -20 23 -25 38 -19 54 15 50 147 310 160 315 27 10 45 74 51 177 4 65 2 105 -4 109 -7 4 -7 22 -2 49 4 24 8 94 9 156 l0 112 -42 1 c-86 1 -102 13 -93 65 4 22 0 37 -15 54 -24 27 -24 38 -5 64 8 11 15 32 15 47 0 22 -8 31 -47 50 -36 19 -53 36 -74 76 -26 50 -73 103 -90 103 -5 0 -15 15 -24 33 -8 17 -20 40 -27 49 -10 14 -10 24 1 50 8 18 16 56 18 84 4 44 -1 63 -31 125 -71 147 -83 163 -153 196 -29 14 -53 29 -53 33 0 5 -17 30 -38 57 -21 26 -42 59 -46 73 -4 14 -11 153 -16 310 -5 157 -16 431 -24 610 -9 179 -18 386 -20 460 -12 383 -25 704 -31 777 l-7 81 -71 13 c-127 22 -187 17 -257 -20 l-62 -32 -44 26 c-78 46 -78 45 -87 344 -13 387 -13 554 1 656 10 70 10 163 1 420 -14 415 -26 721 -34 898 -7 133 -7 139 18 190 26 56 26 69 -3 197 -6 25 -14 71 -20 104 -5 32 -20 81 -33 110 -20 42 -26 73 -32 176 -5 101 -10 128 -24 142 -15 13 -20 40 -26 140 -4 67 -10 128 -14 133 -18 25 -33 99 -40 203 -6 91 -11 115 -26 126 -15 11 -18 33 -22 162 -5 146 -5 149 -31 171 l-26 22 -8 363 c-5 199 -12 366 -17 371 -6 6 -158 5 -388 -2 -392 -11 -965 -25 -1758 -41 -947 -20 -3818 -8 -3857 16 -5 3 -303 10 -661 15 -615 8 -1020 18 -1587 39 -517 19 -740 29 -865 40 -209 18 -421 24 -429 11z" fill="#ffffff" id="ffffff-000001" mask="url(#mask-0)"/>
  </g>
</svg>
