<?xml version="1.0" standalone="no"?>
<!DOCTYPE svg PUBLIC "-//W3C//DTD SVG 1.1//EN"
 "http://www.w3.org/Graphics/SVG/1.1/DTD/svg11.dtd">
<!-- Created with svg_stack (http://github.com/astraw/svg_stack) -->
<svg xmlns:sodipodi="http://sodipodi.sourceforge.net/DTD/sodipodi-0.dtd" xmlns="http://www.w3.org/2000/svg" version="1.1" width="852.0" height="1096.0">
  <defs/>
  <g id="id0:id0" transform="matrix(1.25,0,0,1.25,0.0,0.0)"><g transform="translate(0.000000,876.800000) scale(0.040000,-0.040000)" fill="#000000" stroke="none">
<path d="M13920 20493 c-19 -3 -40 -9 -46 -14 -28 -23 -116 -37 -243 -37 l-133 0 -27 -25 c-14 -14 -39 -29 -56 -32 -16 -4 -41 -10 -55 -15 -14 -5 -37 -11 -51 -14 -14 -3 -42 -19 -63 -35 -20 -16 -55 -32 -78 -36 -25 -5 -54 -20 -77 -40 -20 -18 -53 -40 -73 -48 -26 -11 -38 -22 -38 -36 0 -26 -15 -35 -75 -41 l-50 -5 -16 -64 c-18 -73 -36 -91 -91 -91 -33 0 -39 -4 -51 -32 -8 -18 -24 -42 -36 -52 -11 -11 -21 -24 -21 -31 0 -6 -13 -24 -30 -40 -16 -16 -30 -37 -30 -47 0 -9 -11 -25 -25 -34 -14 -9 -31 -28 -38 -43 -6 -14 -22 -30 -35 -36 -12 -5 -22 -14 -23 -20 -2 -31 -10 -49 -28 -69 -12 -12 -21 -28 -21 -35 0 -6 -11 -23 -25 -36 -25 -26 -65 -107 -65 -133 0 -9 -10 -26 -21 -38 -12 -13 -28 -34 -35 -46 -22 -39 -74 -147 -74 -154 0 -33 -38 -121 -74 -168 -42 -56 -54 -91 -71 -202 -4 -25 -16 -50 -30 -62 -17 -15 -25 -35 -30 -79 -6 -55 -13 -97 -36 -223 -5 -30 -23 -109 -39 -175 -15 -66 -33 -176 -40 -245 -6 -69 -15 -150 -20 -180 -6 -30 -12 -125 -15 -210 -4 -120 -9 -160 -22 -180 -15 -23 -17 -82 -17 -620 0 -403 4 -624 12 -685 6 -49 17 -202 23 -340 8 -182 15 -254 24 -265 9 -9 16 -53 20 -110 6 -92 32 -217 60 -290 8 -19 17 -80 21 -135 4 -55 13 -109 20 -120 7 -11 17 -64 23 -117 5 -53 14 -106 20 -117 6 -11 11 -28 11 -39 0 -10 9 -27 20 -37 11 -10 20 -27 20 -37 0 -11 9 -31 19 -44 19 -24 31 -84 34 -173 1 -31 7 -46 20 -52 9 -5 25 -13 35 -18 13 -6 18 -23 20 -72 1 -35 9 -78 17 -96 8 -17 15 -38 15 -47 0 -9 8 -16 20 -16 13 0 24 -10 31 -27 6 -16 17 -39 23 -53 7 -14 20 -50 29 -80 32 -108 55 -185 61 -212 4 -19 14 -28 37 -33 17 -4 32 -12 33 -18 22 -81 45 -132 64 -145 13 -8 22 -24 22 -38 0 -17 8 -27 25 -34 17 -6 25 -17 25 -33 0 -13 9 -32 20 -42 11 -10 20 -23 20 -29 0 -22 70 -121 96 -136 15 -9 42 -45 61 -80 19 -35 52 -83 74 -107 21 -23 39 -51 39 -61 0 -10 16 -41 35 -68 19 -27 35 -52 35 -56 0 -5 28 -36 62 -70 34 -35 77 -92 97 -128 19 -36 39 -69 46 -75 16 -14 64 -91 75 -121 5 -13 20 -28 33 -33 22 -9 46 -61 52 -118 4 -32 11 -40 43 -46 33 -7 92 -90 92 -130 0 -13 7 -31 16 -38 9 -7 20 -23 24 -35 5 -12 21 -28 37 -36 15 -7 33 -23 39 -36 6 -12 20 -33 31 -45 10 -12 25 -33 31 -47 7 -14 16 -32 21 -40 5 -8 13 -27 19 -41 8 -19 20 -28 47 -33 27 -5 38 -14 46 -34 5 -15 14 -36 19 -47 5 -11 10 -29 12 -40 2 -11 16 -26 31 -33 16 -8 27 -21 27 -33 0 -12 14 -33 30 -47 17 -15 30 -34 30 -43 0 -9 9 -28 20 -42 11 -14 20 -33 20 -44 0 -10 32 -45 70 -78 l70 -60 0 -66 0 -66 47 -6 c30 -3 51 -11 58 -22 5 -10 20 -30 33 -45 12 -15 22 -36 22 -45 0 -10 12 -32 28 -50 35 -42 65 -94 72 -125 3 -16 13 -26 28 -28 15 -2 27 -16 37 -39 9 -20 24 -43 35 -50 11 -8 20 -24 20 -37 0 -13 9 -31 21 -42 11 -10 27 -32 35 -49 8 -16 26 -48 39 -70 26 -43 29 -47 54 -113 9 -24 24 -48 34 -53 31 -17 77 -133 94 -237 3 -18 14 -37 25 -43 12 -7 17 -17 13 -29 -4 -12 3 -27 18 -42 22 -21 37 -61 51 -130 4 -17 15 -29 34 -36 26 -9 30 -16 40 -83 6 -41 19 -108 28 -149 46 -211 52 -252 53 -323 l1 -58 35 -20 c25 -15 36 -29 39 -52 3 -18 7 -151 10 -297 3 -146 10 -280 16 -299 15 -54 5 -565 -15 -721 -15 -111 -25 -152 -58 -230 -26 -63 -45 -129 -56 -196 -14 -90 -19 -105 -47 -130 -21 -21 -34 -45 -43 -86 -9 -40 -19 -61 -37 -72 -13 -9 -24 -22 -24 -30 0 -19 -31 -44 -60 -48 -20 -2 -26 -10 -31 -40 -3 -20 -11 -44 -18 -52 -19 -23 -97 -66 -119 -66 -35 0 -103 -29 -121 -52 l-18 -22 -202 -2 -203 -3 -22 22 c-12 12 -42 31 -67 41 -24 11 -60 35 -80 53 -20 19 -51 42 -70 51 -21 11 -33 23 -31 34 3 19 -9 28 -53 43 -22 8 -30 16 -30 35 0 16 -8 29 -24 37 -18 8 -33 33 -52 85 -24 67 -29 73 -59 78 -30 5 -35 11 -73 100 -28 67 -43 117 -48 170 -4 41 -11 86 -15 100 -8 27 -45 86 -69 111 -8 9 -22 45 -29 81 -7 35 -18 73 -24 84 -6 10 -15 55 -21 99 -11 97 -48 324 -61 382 -6 23 -10 63 -10 88 0 29 -7 56 -19 73 -15 21 -20 52 -25 147 -4 66 -13 174 -21 240 -13 116 -30 655 -26 840 2 73 -2 99 -20 140 -34 80 -65 115 -100 115 -34 0 -70 -16 -82 -36 -5 -9 -27 -14 -61 -14 -50 0 -54 -2 -77 -37 -18 -28 -33 -39 -59 -43 -19 -4 -72 -23 -116 -43 -56 -25 -96 -37 -127 -37 -51 0 -97 -17 -97 -35 0 -30 -100 -67 -170 -62 -18 2 -25 -3 -25 -16 0 -28 -29 -44 -93 -52 -43 -5 -64 -14 -87 -35 -16 -16 -50 -34 -75 -40 -27 -7 -57 -25 -75 -45 -17 -18 -41 -36 -53 -39 -12 -4 -32 -26 -43 -49 -18 -35 -20 -51 -14 -109 3 -38 13 -90 20 -115 11 -35 15 -124 16 -355 1 -283 2 -310 20 -331 20 -26 34 -173 44 -470 3 -82 8 -153 11 -158 3 -5 13 -9 23 -9 33 0 38 -23 39 -161 0 -75 4 -145 10 -156 6 -10 16 -83 23 -161 l12 -142 32 -25 c28 -21 33 -32 38 -82 7 -74 30 -154 62 -215 14 -26 25 -56 25 -65 0 -10 9 -45 20 -77 12 -34 20 -86 20 -123 l0 -64 33 -14 c25 -10 38 -25 50 -57 10 -24 17 -54 17 -66 0 -12 4 -30 9 -40 14 -28 33 -85 38 -114 3 -15 14 -35 24 -44 10 -9 19 -23 19 -30 0 -7 11 -25 23 -41 33 -39 64 -107 81 -175 8 -31 24 -66 35 -77 12 -12 21 -29 21 -38 0 -29 40 -101 65 -117 14 -9 25 -22 25 -29 0 -7 14 -27 30 -45 17 -18 30 -38 30 -44 0 -16 77 -99 110 -120 18 -10 30 -26 30 -38 0 -22 57 -100 73 -100 22 0 68 -43 63 -58 -8 -24 5 -39 34 -43 17 -3 31 -16 43 -41 11 -23 26 -38 36 -38 19 0 45 -25 53 -50 3 -9 30 -21 64 -30 47 -12 60 -19 62 -37 2 -13 15 -25 35 -33 46 -17 84 -36 147 -73 46 -28 55 -37 52 -59 l-2 -25 77 -6 c197 -16 274 -27 300 -44 50 -33 351 -46 698 -30 l160 7 18 25 c15 20 28 25 62 25 56 0 118 22 165 60 23 18 50 30 67 30 41 0 93 19 93 34 0 22 35 46 67 46 23 0 37 8 56 34 18 23 38 36 64 41 43 8 73 30 73 54 0 20 93 111 113 111 17 0 37 20 37 39 0 8 16 31 35 50 20 20 48 48 63 64 15 15 29 37 32 49 3 12 21 31 40 41 35 18 109 117 130 173 6 16 26 45 45 64 56 58 126 200 150 305 3 16 24 65 45 110 21 44 57 139 80 210 23 72 55 157 71 190 42 87 88 278 119 500 6 44 20 97 31 118 12 24 19 59 20 95 0 31 4 89 9 127 6 39 16 176 25 305 8 129 20 305 25 390 6 85 13 333 17 550 6 409 5 433 -38 725 -11 77 -25 190 -32 252 -8 74 -17 117 -28 130 -11 12 -23 71 -38 193 -13 96 -29 209 -36 250 -8 41 -17 98 -21 125 -4 28 -13 60 -21 72 -19 28 -39 104 -59 223 -9 52 -26 129 -39 170 -13 41 -26 101 -30 132 -6 54 -10 60 -50 89 -51 37 -55 47 -55 159 0 68 -5 94 -23 130 -25 51 -53 95 -77 125 -18 21 -33 73 -50 169 -5 33 -10 61 -10 63 0 2 -15 10 -33 18 -29 12 -34 20 -45 74 -7 34 -21 69 -30 78 -25 25 -128 183 -136 209 -3 11 -30 57 -59 102 -28 45 -74 118 -102 162 -104 167 -461 712 -562 859 -43 62 -98 146 -123 185 -25 39 -64 98 -88 129 -24 32 -48 70 -53 85 -6 17 -21 32 -39 39 -17 6 -34 23 -40 38 -30 79 -67 141 -110 183 -33 32 -62 78 -94 144 -28 57 -57 103 -72 112 -14 10 -29 28 -34 42 -5 13 -21 29 -35 34 -16 6 -25 17 -25 32 0 29 -9 41 -42 55 -22 10 -28 22 -38 70 -17 83 -17 83 -40 83 -30 0 -60 18 -60 36 0 9 -11 29 -25 46 -14 16 -25 35 -25 41 0 7 -16 35 -35 62 -20 28 -43 61 -52 75 -10 14 -30 40 -45 58 -15 18 -28 39 -28 47 0 7 -13 23 -29 34 -16 12 -31 32 -35 45 -3 13 -17 31 -31 40 -14 9 -25 21 -25 27 0 34 -98 202 -124 212 -15 6 -86 108 -86 124 0 6 -17 35 -37 64 -28 42 -38 66 -41 109 -3 34 -15 74 -32 105 -16 28 -33 81 -39 120 -7 39 -18 90 -26 115 -7 25 -19 65 -26 90 -6 25 -17 63 -24 85 -7 22 -15 78 -19 125 -5 62 -12 90 -26 105 -21 23 -36 167 -47 450 -4 129 -9 174 -21 187 -12 15 -14 56 -9 280 3 146 11 283 17 308 6 25 15 90 20 145 10 119 41 270 69 341 11 29 26 82 32 119 10 51 18 71 36 82 13 8 23 22 23 31 0 15 14 64 31 110 5 12 20 27 33 32 14 5 32 23 41 40 8 16 20 30 25 30 5 0 14 19 20 43 6 23 14 50 17 60 7 26 79 57 131 57 35 0 50 7 85 39 57 52 114 64 282 58 152 -6 275 -19 293 -30 6 -5 12 -16 12 -26 0 -12 13 -22 43 -31 53 -17 67 -28 67 -50 0 -13 14 -23 45 -34 51 -17 134 -98 135 -130 0 -10 9 -28 20 -40 21 -21 87 -102 128 -155 17 -23 22 -43 22 -93 1 -39 6 -70 15 -82 8 -11 15 -28 15 -38 0 -10 9 -27 20 -38 11 -11 20 -28 20 -38 0 -11 9 -27 20 -37 11 -10 20 -28 20 -39 0 -12 7 -29 14 -39 8 -10 20 -63 27 -118 10 -80 17 -105 36 -125 12 -14 23 -28 23 -32 0 -31 33 -271 40 -287 11 -27 30 -178 30 -242 0 -30 5 -57 13 -63 6 -5 22 -18 35 -28 l24 -17 4 -310 c6 -367 10 -434 30 -442 8 -3 49 9 92 27 42 18 124 49 182 70 102 37 155 58 550 210 102 39 254 97 339 128 94 35 165 67 182 84 27 24 29 31 29 100 0 42 -7 96 -16 124 -9 27 -20 81 -24 119 -22 193 -31 266 -42 325 -6 36 -15 106 -19 155 -5 50 -13 117 -18 150 -5 33 -19 130 -30 215 -12 85 -26 173 -31 195 -5 22 -10 65 -10 96 0 46 -4 59 -21 70 -16 11 -24 36 -38 119 -10 58 -23 115 -28 125 -45 86 -81 208 -99 335 -4 28 -17 56 -33 75 -54 60 -62 83 -68 183 -4 66 -12 108 -24 132 -11 19 -19 40 -19 47 0 7 -9 17 -20 23 -33 18 -88 111 -96 164 -5 37 -15 57 -39 80 -17 17 -40 51 -49 76 -27 68 -32 75 -52 79 -29 5 -39 17 -75 87 -19 36 -42 70 -51 75 -10 5 -18 15 -18 21 0 5 -35 49 -78 97 -93 103 -119 138 -123 171 -3 20 -11 26 -39 30 -19 4 -42 10 -51 16 -24 13 -89 93 -89 109 0 13 -33 29 -83 39 -15 4 -45 22 -66 41 -21 19 -43 35 -48 35 -5 0 -26 18 -47 39 -29 29 -49 41 -82 46 -24 3 -66 21 -95 41 -28 19 -61 34 -73 34 -11 0 -52 10 -91 21 -151 44 -231 58 -345 60 -142 2 -172 8 -185 37 -9 20 -16 22 -80 20 -38 0 -86 -3 -105 -5z"/>
<path d="M9924 20282 l-362 -2 -18 -88 c-24 -117 -29 -219 -13 -238 16 -20 16 -5723 0 -5766 -7 -18 -6 -39 0 -64 6 -20 8 -49 4 -63 -4 -14 -10 -78 -14 -141 l-6 -115 -930 -1 c-511 0 -947 1 -968 3 -32 4 -41 11 -59 46 l-22 42 -3 3005 c-1 2180 1 3018 9 3051 8 33 8 58 1 88 -9 33 -8 52 5 91 13 40 13 56 4 88 -7 22 -19 43 -28 46 -23 9 -1306 8 -1314 -1 -18 -22 -30 -97 -25 -160 4 -37 7 -3452 8 -7588 l2 -7520 23 -37 c17 -28 32 -39 58 -44 19 -3 288 -4 598 -2 l563 4 37 23 c20 13 42 35 50 49 18 36 28 181 16 242 -5 29 -10 757 -12 1777 -1 950 -5 2007 -9 2348 -13 1144 -28 2419 -31 2550 l-3 130 415 6 c228 4 627 12 885 18 259 7 511 12 560 12 50 1 135 1 190 2 l100 2 -3 -395 c-2 -217 -8 -1142 -13 -2055 -5 -913 -14 -2339 -19 -3170 -5 -830 -5 -1515 -1 -1523 6 -11 115 -13 641 -13 348 1 637 4 641 7 5 3 9 15 9 27 0 13 7 33 16 45 11 17 14 33 9 55 -4 18 -9 64 -12 102 -3 39 -7 3389 -10 7445 -4 6978 -3 7383 13 7522 10 81 15 151 11 154 -7 8 -444 10 -993 6z"/>
<path d="M3719 20214 c-14 -30 -19 -57 -15 -78 3 -17 7 -1934 8 -4261 l2 -4230 -29 0 c-27 0 -30 4 -48 65 -10 36 -25 72 -33 81 -8 8 -14 23 -14 33 0 9 -9 44 -21 78 -11 34 -33 123 -49 197 -16 75 -48 215 -70 311 -22 96 -45 197 -50 223 -5 26 -21 94 -34 150 -14 56 -34 143 -45 192 -11 50 -36 160 -56 245 -19 85 -53 234 -75 330 -22 96 -62 274 -90 395 -59 258 -120 526 -155 680 -14 61 -34 148 -44 195 -11 47 -27 117 -36 155 -8 39 -45 198 -80 355 -36 157 -74 323 -85 370 -10 47 -35 154 -55 238 -19 84 -42 183 -50 220 -8 37 -30 135 -49 217 -18 83 -48 213 -65 290 -17 77 -38 167 -46 200 -53 227 -87 373 -105 455 -11 52 -33 151 -49 220 -31 133 -108 472 -121 530 -4 19 -17 78 -30 130 -12 52 -32 142 -45 200 -49 219 -98 433 -185 810 -32 140 -71 309 -86 375 -14 66 -39 176 -55 245 -16 69 -43 186 -59 260 -17 74 -35 139 -41 146 -7 9 -124 11 -492 7 -265 -3 -484 -7 -487 -10 -7 -7 -12 -15220 -5 -15270 l6 -43 640 0 640 0 18 44 c13 28 21 79 25 147 6 103 12 4800 9 6689 0 536 -1 1007 -1 1045 1 39 -1 297 -3 575 -3 278 -1 541 3 585 18 193 21 216 30 221 19 12 66 -47 73 -90 4 -22 13 -63 20 -91 40 -143 57 -230 65 -325 5 -58 16 -125 24 -149 9 -24 16 -56 16 -72 0 -15 5 -40 11 -56 6 -15 14 -48 18 -73 12 -67 41 -181 57 -217 7 -18 19 -74 25 -125 6 -51 17 -101 25 -112 8 -11 14 -40 14 -64 0 -24 9 -83 20 -130 27 -118 74 -298 91 -356 5 -16 9 -38 9 -49 0 -11 6 -28 14 -36 7 -9 21 -68 29 -131 9 -63 23 -151 32 -195 9 -44 25 -127 36 -184 12 -63 27 -114 39 -129 13 -15 20 -40 20 -66 0 -22 7 -70 15 -106 16 -71 44 -204 71 -345 9 -49 25 -114 35 -143 10 -30 21 -77 25 -105 3 -29 14 -90 24 -137 10 -47 30 -141 44 -210 15 -69 33 -147 41 -175 8 -27 26 -108 40 -180 14 -71 32 -155 39 -185 8 -30 19 -77 24 -105 13 -66 86 -393 118 -525 14 -58 29 -127 34 -155 4 -27 15 -72 25 -98 9 -26 20 -80 24 -120 5 -40 13 -90 19 -112 6 -22 23 -92 37 -155 14 -63 33 -144 41 -180 8 -36 37 -168 65 -295 65 -305 77 -359 94 -430 8 -33 26 -114 40 -180 31 -143 62 -286 116 -530 52 -232 54 -243 78 -350 12 -49 41 -184 66 -300 25 -115 51 -232 59 -260 8 -27 17 -66 21 -85 6 -33 28 -141 61 -295 9 -38 26 -115 39 -170 13 -55 33 -147 45 -205 12 -58 30 -139 40 -180 10 -41 29 -126 41 -189 13 -62 30 -122 38 -133 l16 -19 424 0 c476 0 450 -4 470 76 8 31 11 2156 12 7587 0 4148 3 7562 6 7586 4 29 0 50 -11 67 l-16 25 -651 0 -650 0 -20 -46z"/>
<path d="M795 4216 c-16 -7 -60 -27 -98 -44 -37 -18 -89 -37 -117 -43 -38 -8 -55 -18 -72 -42 -12 -18 -61 -73 -109 -123 -59 -62 -88 -101 -92 -124 -4 -18 -7 -614 -7 -1324 l0 -1291 20 -44 c11 -24 20 -51 20 -61 0 -10 19 -40 43 -66 24 -27 53 -65 65 -86 22 -35 54 -66 140 -135 34 -27 49 -33 90 -33 27 0 74 -9 106 -20 l56 -19 7563 -1 7562 -2 62 21 c34 12 68 21 76 21 7 0 29 16 48 36 18 20 66 60 106 89 55 41 74 62 83 92 7 21 36 81 64 133 l51 95 3 955 c1 525 6 1090 10 1255 5 165 4 315 0 333 -5 18 -20 39 -34 48 -13 9 -43 40 -65 68 -34 43 -40 56 -35 84 4 29 1 36 -35 61 -22 16 -79 48 -127 71 -48 23 -118 58 -156 76 l-69 34 -7561 -1 c-5954 0 -7567 -3 -7591 -13z m10726 -377 c54 -27 130 -118 161 -191 19 -46 33 -111 49 -229 20 -148 22 -218 26 -739 4 -484 2 -599 -12 -725 -9 -82 -21 -190 -26 -238 -5 -49 -14 -98 -21 -110 -45 -84 -104 -161 -151 -197 -47 -35 -64 -41 -118 -46 -95 -9 -143 7 -205 71 -37 37 -67 83 -98 147 -82 173 -78 121 -83 883 -3 413 -1 748 5 852 l10 173 40 87 c22 49 47 104 56 123 8 19 37 59 63 88 41 45 57 56 103 67 66 16 151 9 201 -16z m-8865 11 c14 -6 57 -41 94 -78 75 -76 93 -116 110 -242 6 -41 15 -95 20 -120 19 -83 29 -184 30 -295 0 -148 -5 -155 -109 -155 -46 0 -84 5 -94 13 -14 10 -17 40 -19 219 -3 236 -6 244 -90 286 -42 21 -50 22 -74 10 -46 -22 -87 -82 -95 -141 -12 -81 -11 -1395 1 -1458 12 -65 52 -124 102 -153 l37 -21 47 45 c71 69 74 82 74 299 0 239 -11 270 -97 271 -43 0 -55 38 -51 163 2 78 7 119 17 130 11 14 36 17 160 17 128 0 149 -3 171 -19 l24 -19 1 -584 0 -583 -46 -6 c-64 -10 -111 2 -125 30 -22 44 -31 46 -59 13 -16 -19 -44 -36 -71 -44 -25 -7 -46 -17 -46 -23 0 -5 -4 -18 -10 -29 -8 -15 -18 -18 -60 -14 -50 5 -56 9 -142 95 -13 13 -40 50 -60 83 -34 54 -39 72 -46 153 -5 51 -18 138 -30 194 l-21 101 4 659 c3 581 5 666 20 723 10 36 21 94 26 130 11 83 28 144 53 195 25 49 101 129 142 149 36 18 170 21 212 6z m4395 -4 c54 -23 92 -73 158 -206 73 -149 81 -194 81 -481 0 -147 -3 -189 -14 -198 -20 -16 -125 -2 -158 21 l-28 19 0 166 c0 145 -2 168 -19 191 -10 15 -21 37 -25 49 -12 38 -73 83 -112 83 -53 0 -73 -16 -101 -78 -36 -80 -41 -177 -42 -847 -1 -466 1 -586 14 -655 l15 -85 54 -53 55 -53 28 15 c100 52 143 174 143 403 l0 131 -30 26 c-17 14 -46 28 -65 32 -62 11 -70 30 -70 170 0 69 4 127 10 133 13 13 322 18 335 5 6 -6 12 -215 15 -519 3 -281 8 -546 10 -591 4 -59 2 -84 -7 -92 -21 -17 -130 0 -163 26 -15 12 -36 22 -46 22 -11 0 -54 -27 -96 -59 -110 -84 -148 -85 -228 -7 -46 46 -59 67 -79 128 -75 228 -86 347 -92 971 -6 632 4 805 62 1058 13 58 24 113 24 121 0 24 97 134 133 152 42 20 191 22 238 2z m1957 -5 c49 -26 117 -97 137 -144 21 -52 55 -221 55 -282 0 -27 5 -69 10 -93 15 -61 -2 -117 -40 -137 -36 -19 -153 -20 -168 -2 -6 6 -12 69 -14 139 -3 118 -5 128 -27 152 -34 36 -63 33 -111 -13 l-40 -38 5 -134 c3 -74 12 -161 20 -194 8 -33 16 -72 19 -86 3 -14 20 -43 37 -65 17 -21 51 -79 76 -129 25 -49 58 -106 73 -125 73 -94 122 -234 150 -425 13 -94 8 -523 -8 -630 -19 -123 -60 -205 -103 -205 -9 0 -36 -16 -59 -35 -75 -63 -132 -64 -205 -3 -16 14 -40 28 -52 32 -44 14 -69 60 -106 197 -21 74 -44 154 -51 179 -8 25 -20 93 -27 153 l-12 108 22 23 c16 17 38 25 74 30 29 3 69 9 90 12 59 10 67 -3 67 -112 0 -113 14 -185 46 -241 29 -51 61 -57 99 -19 45 45 53 115 35 296 -12 114 -29 174 -69 240 -15 25 -38 72 -51 105 -23 57 -38 82 -119 192 -49 67 -108 196 -130 285 -11 43 -25 87 -31 99 -16 28 -33 277 -26 359 13 138 30 216 63 285 18 38 33 77 33 86 0 33 71 110 124 135 66 31 160 33 214 5z m783 8 c51 -17 153 -122 183 -189 14 -32 30 -92 36 -141 6 -46 15 -106 20 -134 5 -27 9 -148 9 -267 l1 -218 -25 -16 c-33 -22 -139 -24 -160 -4 -25 26 -33 107 -28 290 5 150 3 184 -11 228 -22 65 -55 92 -112 92 -48 0 -69 -19 -106 -99 l-21 -46 -2 -685 c-2 -646 -1 -690 18 -773 15 -70 25 -94 52 -122 31 -34 66 -44 91 -27 6 4 30 29 53 55 l41 48 0 254 c0 307 -2 300 108 300 105 0 102 7 102 -224 0 -394 -59 -667 -157 -728 -16 -9 -43 -30 -61 -47 -31 -29 -37 -31 -115 -31 l-82 0 -44 35 c-70 56 -83 73 -133 168 -40 74 -49 101 -53 158 -3 38 -12 118 -20 179 -18 124 -30 534 -30 950 1 265 10 409 34 535 5 30 15 88 21 128 17 123 110 280 189 322 42 22 148 27 202 9z m2585 -4 c45 -18 132 -109 140 -144 3 -14 14 -55 24 -91 11 -36 24 -101 30 -145 6 -44 15 -97 21 -118 13 -49 28 -1192 16 -1290 -4 -40 -15 -115 -23 -167 -9 -52 -20 -125 -24 -162 -5 -36 -19 -104 -31 -150 -18 -69 -29 -89 -60 -118 -107 -100 -120 -105 -236 -98 -56 3 -69 8 -88 30 -12 14 -35 33 -51 41 -44 23 -61 46 -79 112 -10 32 -33 86 -51 120 l-34 61 -10 159 c-11 175 -12 1195 -1 1450 l6 160 37 75 c21 41 44 95 53 119 21 60 75 124 127 150 53 26 179 29 234 6z m2233 -19 c54 -52 120 -194 142 -309 24 -120 31 -329 12 -348 -8 -8 -39 -11 -85 -10 -94 2 -103 12 -112 123 -8 88 -29 136 -72 164 -28 19 -52 12 -88 -25 l-28 -29 -4 -238 c-3 -151 -2 -244 5 -254 8 -12 19 -12 69 -2 69 14 132 15 164 3 13 -5 49 -47 81 -93 85 -125 89 -155 83 -628 -6 -440 -13 -501 -80 -640 -46 -93 -54 -104 -83 -114 -15 -5 -36 -20 -46 -33 -16 -20 -27 -23 -83 -23 -69 0 -104 12 -104 35 0 8 -17 19 -40 25 -45 12 -63 35 -80 100 -7 24 -27 74 -45 110 -18 36 -36 90 -40 120 -4 30 -14 82 -23 115 -13 52 -16 152 -16 735 -1 611 1 680 16 730 10 30 22 86 27 124 6 38 21 92 35 120 14 28 32 77 40 110 16 65 39 95 106 138 42 28 50 29 132 26 80 -3 89 -5 117 -32z m-13595 -58 c29 -65 34 -96 45 -268 5 -74 21 -191 35 -260 22 -113 33 -221 52 -515 3 -55 12 -136 20 -180 7 -44 14 -132 14 -195 0 -148 15 -271 40 -345 11 -32 20 -74 20 -93 0 -38 11 -111 40 -267 29 -155 32 -186 19 -201 -16 -19 -232 -20 -246 -1 -11 13 -21 114 -32 312 -7 140 -16 167 -61 190 -50 26 -77 20 -110 -27 l-30 -41 -1 -166 c-1 -91 -4 -191 -7 -221 l-7 -55 -121 -3 c-89 -2 -124 1 -132 10 -7 9 -5 39 8 103 9 50 22 144 28 211 7 66 18 139 26 162 25 70 34 148 46 377 6 121 17 258 25 305 8 47 17 144 20 215 3 72 12 168 20 215 8 47 20 126 25 175 6 50 17 113 25 141 17 59 35 211 35 296 0 31 5 80 11 108 13 60 26 68 112 69 l58 1 23 -52z m865 -2 c52 -34 69 -52 93 -100 47 -92 58 -139 73 -305 11 -119 12 -190 4 -319 -14 -245 -32 -304 -119 -399 -57 -62 -61 -86 -34 -188 62 -230 89 -360 104 -500 6 -60 18 -130 25 -155 8 -25 19 -90 25 -145 6 -55 16 -121 22 -146 15 -63 8 -76 -47 -85 -56 -8 -151 0 -169 15 -14 12 -22 82 -36 346 -7 132 -15 190 -34 260 -15 51 -26 116 -26 150 0 138 -61 325 -106 325 -28 0 -37 -156 -29 -472 4 -167 9 -373 9 -458 l1 -155 -116 -3 c-85 -2 -119 1 -126 10 -7 9 -7 62 -1 160 6 92 7 521 1 1165 -6 610 -6 1023 -1 1030 14 17 72 21 258 16 l165 -5 64 -42z m1330 35 c15 -15 19 -39 23 -137 3 -65 13 -150 22 -189 9 -38 21 -89 26 -113 6 -23 10 -70 10 -105 0 -34 7 -93 15 -132 8 -38 15 -79 15 -90 0 -12 9 -38 20 -60 11 -22 20 -54 20 -72 0 -18 3 -33 8 -33 28 1 33 24 43 181 10 164 15 215 43 404 8 55 17 148 21 208 10 147 14 153 133 150 50 -1 99 -6 110 -12 l19 -10 -28 -122 c-15 -66 -31 -128 -34 -137 -4 -10 -11 -46 -15 -82 -13 -105 -39 -237 -55 -283 -9 -23 -20 -89 -25 -147 -6 -58 -15 -141 -20 -185 -5 -44 -18 -181 -29 -305 -12 -146 -25 -238 -35 -262 -14 -32 -16 -92 -16 -433 0 -349 -2 -396 -16 -402 -16 -6 -52 -6 -164 -1 l-65 3 3 405 c4 405 0 481 -33 645 -8 39 -19 122 -25 185 -5 64 -19 158 -31 210 -21 96 -31 179 -48 395 -5 66 -16 147 -25 180 -8 33 -22 119 -32 192 -21 166 -20 168 99 172 34 1 52 -4 66 -18z m826 -4 c8 -11 10 -292 10 -1004 -2 -1049 -3 -1028 44 -1053 11 -5 53 -10 94 -10 108 0 112 -7 112 -169 l0 -126 -235 0 -235 0 3 1180 c1 649 6 1183 10 1186 25 24 179 20 197 -4z m883 11 c8 -8 12 -54 12 -143 0 -105 -3 -135 -16 -154 l-17 -24 -97 5 c-162 8 -160 13 -160 -334 0 -145 3 -273 6 -286 8 -28 52 -52 94 -52 38 0 86 -24 100 -49 5 -11 10 -64 10 -117 l0 -98 -32 -33 c-27 -28 -39 -33 -80 -33 -39 0 -54 -5 -73 -25 l-25 -24 0 -316 c0 -405 -8 -387 166 -389 126 -1 124 2 124 -161 0 -107 -3 -135 -15 -145 -12 -10 -68 -12 -246 -8 -127 3 -235 10 -240 15 -12 12 -22 2274 -11 2323 5 22 17 39 32 47 35 18 451 18 468 1z m634 -6 c14 -11 15 -68 10 -475 l-5 -463 31 -35 c28 -32 34 -34 93 -34 l63 0 24 35 24 35 -5 457 c-5 420 -4 458 12 472 22 20 89 30 146 21 67 -10 77 -38 65 -181 -15 -164 -14 -1910 1 -2057 15 -152 18 -149 -122 -148 -56 0 -106 4 -110 8 -4 4 -4 76 1 158 14 243 15 846 1 873 -32 60 -139 65 -195 10 l-29 -29 4 -507 4 -507 -78 -9 c-45 -5 -96 -5 -120 0 l-42 9 0 1180 0 1179 25 14 c32 16 180 12 202 -6z m822 8 c14 -5 30 -18 36 -30 12 -23 18 -2319 6 -2339 -11 -18 -231 -15 -246 4 -9 11 -9 56 0 202 8 133 10 454 6 1093 -3 498 -7 937 -8 975 l-3 70 35 17 c38 20 133 24 174 8z m1310 -9 c16 -18 18 -54 15 -473 -3 -493 -4 -483 54 -518 38 -24 68 -25 106 -5 59 30 60 35 54 531 l-6 452 27 17 c40 26 162 17 188 -15 l18 -22 0 -1164 c0 -919 -3 -1164 -12 -1171 -21 -13 -200 -5 -214 9 -9 10 -10 125 -2 506 11 549 14 525 -56 559 -31 14 -38 14 -84 -1 -28 -10 -56 -23 -62 -31 -15 -18 -16 -60 -11 -595 l4 -445 -119 0 -119 0 3 975 c1 536 -1 1056 -6 1154 -5 99 -6 191 -2 205 9 37 44 51 131 51 62 0 79 -3 93 -19z m2735 0 l19 -19 -6 -464 -5 -464 24 -27 c19 -21 36 -28 80 -33 l56 -6 29 38 29 37 -2 256 c-2 141 -6 352 -9 468 l-7 213 19 7 c11 5 54 8 96 8 71 0 80 -2 104 -27 l27 -26 1 -1162 c1 -763 -2 -1164 -9 -1168 -19 -12 -219 -2 -231 11 -8 8 -9 45 -3 127 4 63 8 286 8 495 1 352 0 382 -17 410 -10 17 -31 37 -46 45 -26 13 -32 12 -81 -14 -29 -15 -56 -35 -59 -43 -4 -9 -5 -190 -4 -402 1 -212 2 -440 2 -506 l1 -120 -115 0 -115 0 1 65 c2 124 2 2096 1 2195 l-2 99 25 13 c14 7 58 13 98 13 57 0 76 -4 91 -19z m2623 1 c13 -13 14 -844 2 -1594 -6 -366 -6 -399 10 -423 23 -35 73 -55 135 -55 42 0 53 -4 70 -26 18 -23 21 -41 21 -139 0 -92 -3 -115 -16 -126 -20 -17 -441 -27 -468 -12 -16 9 -17 101 -17 1175 1 641 4 1173 7 1183 4 9 16 21 28 26 30 13 213 6 228 -9z m927 4 c8 -10 10 -330 9 -1197 l-3 -1184 -70 -3 c-38 -1 -87 1 -109 5 l-39 8 2 865 2 865 -23 22 c-13 12 -40 29 -60 38 -21 8 -42 24 -48 35 -6 11 -13 80 -15 152 -5 149 2 168 75 209 31 18 46 37 75 98 20 42 44 82 53 89 22 17 136 16 151 -2z m1551 -4 l22 -18 4 -1110 c2 -610 6 -1133 9 -1162 9 -76 3 -81 -115 -81 -64 1 -102 5 -107 12 -5 7 -6 147 -2 312 9 502 -1 1395 -17 1427 -8 16 -36 37 -68 53 -30 15 -57 33 -60 42 -3 8 -6 71 -6 141 l0 126 69 66 c48 45 77 84 94 122 14 30 35 63 48 72 32 22 101 21 129 -2z m522 5 c147 -3 144 1 141 -175 -2 -75 -7 -162 -13 -192 -6 -30 -15 -134 -20 -230 -5 -96 -14 -197 -19 -225 -14 -69 -29 -260 -41 -515 -10 -214 -20 -301 -47 -415 -8 -36 -18 -168 -24 -330 -7 -220 -12 -272 -24 -285 -12 -11 -38 -15 -109 -15 -93 1 -134 14 -120 37 4 6 15 87 26 182 10 94 23 207 28 251 6 44 17 197 25 340 9 159 21 281 30 315 8 30 20 123 26 205 7 104 16 167 30 205 40 109 61 366 36 440 -14 41 -40 49 -184 49 -124 1 -123 0 -123 187 0 185 2 186 185 177 50 -2 138 -5 197 -6z m-914 -1519 c8 -8 12 -51 12 -130 0 -141 3 -138 -132 -138 -126 0 -132 5 -136 109 -7 153 8 171 146 171 63 0 102 -4 110 -12z"/>
<path d="M11332 3463 c-66 -63 -67 -67 -67 -828 0 -368 4 -700 8 -737 8 -61 13 -73 54 -118 47 -53 67 -59 111 -36 48 25 63 52 83 147 19 89 19 130 17 769 l-3 675 -24 53 c-27 60 -81 112 -116 112 -14 0 -40 -15 -63 -37z"/>
<path d="M12223 3472 c-40 -37 -57 -73 -77 -159 -14 -62 -16 -157 -16 -695 0 -542 2 -632 16 -683 9 -33 19 -74 24 -90 10 -43 51 -103 74 -109 11 -3 45 7 76 22 l58 27 5 50 c3 28 10 87 17 132 16 110 9 1362 -8 1412 -15 45 -89 121 -118 121 -12 0 -35 -12 -51 -28z"/>
<path d="M14421 2516 l-51 -55 0 -243 c0 -307 17 -405 78 -437 14 -7 29 -4 60 15 57 34 70 83 83 309 10 192 3 282 -31 360 -18 41 -66 105 -79 105 -5 0 -31 -24 -60 -54z"/>
<path d="M900 2933 c0 -19 -33 -327 -52 -486 -9 -82 -9 -111 3 -170 l15 -72 54 0 c84 0 86 9 71 264 -7 113 -19 238 -26 276 -7 39 -16 90 -20 115 -7 49 -23 90 -37 90 -4 0 -8 -8 -8 -17z"/>
<path d="M1683 3467 c-24 -11 -45 -28 -47 -36 -9 -29 -10 -576 -2 -599 9 -28 43 -42 101 -42 36 0 47 5 63 28 41 58 47 98 47 307 0 248 -5 283 -50 330 -40 40 -54 42 -112 12z"/>
<path d="M15420 1494 c0 -14 4 -23 10 -19 6 3 10 15 10 26 0 10 -4 19 -10 19 -5 0 -10 -12 -10 -26z"/>
<path d="M16635 620 c3 -5 8 -10 11 -10 2 0 4 5 4 10 0 6 -5 10 -11 10 -5 0 -7 -4 -4 -10z"/>
</g>
</g>
  <g id="id1:id1" transform="matrix(1.25,0,0,1.25,0.0,0.0)"><g transform="translate(0.000000,876.800000) scale(0.040000,-0.040000)" fill="#ffffff" stroke="none">
<path d="M13890 20523 c-32 -4 -100 -55 -100 -75 0 -15 45 -8 83 12 49 26 187 29 208 4 17 -21 55 -35 74 -28 22 9 19 17 -17 55 l-32 33 -91 2 c-49 1 -106 0 -125 -3z"/>
<path d="M14413 20443 c-54 -7 -38 -19 45 -33 42 -7 101 -21 130 -31 54 -19 102 -25 102 -11 -1 17 -17 30 -47 37 -18 3 -37 14 -42 22 -9 17 -120 26 -188 16z"/>
<path d="M13356 20408 c-8 -41 3 -51 48 -42 37 6 96 47 96 65 0 16 -52 10 -66 -8 l-14 -18 -14 18 c-21 27 -43 21 -50 -15z"/>
<path d="M14760 20359 c-23 -15 55 -79 98 -79 39 0 40 9 3 47 -31 32 -78 47 -101 32z"/>
<path d="M13178 20323 c-35 -35 -48 -40 -115 -42 -16 -1 -23 -10 -30 -38 -7 -33 -13 -38 -40 -41 -26 -3 -33 -9 -38 -34 -4 -17 -2 -35 3 -40 16 -16 42 -2 42 21 0 14 13 27 38 40 20 10 48 30 61 44 13 15 44 31 72 37 27 7 65 25 85 41 20 16 41 29 45 29 5 0 9 5 9 10 0 6 -21 10 -48 10 -41 0 -52 -5 -84 -37z"/>
<path d="M1530 20283 c-35 -5 -60 -19 -60 -34 0 -4 42 -10 92 -11 l93 -3 6 -35 c13 -71 41 -195 45 -199 12 -12 19 18 18 80 0 50 -4 72 -16 81 -9 7 -18 34 -21 61 -2 26 -7 51 -11 54 -8 8 -102 12 -146 6z"/>
<path d="M3748 20283 c-21 -3 -28 -10 -28 -27 0 -13 -9 -31 -20 -41 -25 -22 -34 -72 -25 -131 7 -47 30 -68 46 -43 4 8 6 46 2 85 -5 58 -2 76 12 98 l18 27 635 -3 635 -3 20 -27 c17 -23 18 -31 8 -59 -8 -25 -11 -722 -11 -2734 3 -11808 3 -12423 -13 -12456 -7 -13 -26 -30 -42 -38 -17 -8 -34 -20 -38 -28 -4 -7 -18 -13 -29 -13 -12 0 -30 -7 -40 -17 -17 -15 -19 -15 -36 0 -25 23 -54 21 -85 -3 -14 -11 -40 -20 -60 -20 -19 0 -45 -9 -60 -20 -22 -17 -27 -18 -34 -6 -15 26 -59 30 -80 7 l-20 -21 -18 20 c-10 11 -31 20 -47 20 -16 0 -31 6 -34 15 -11 27 -41 17 -53 -17 -10 -29 -12 -30 -29 -15 -14 13 -38 17 -100 17 -71 0 -84 -3 -102 -23 -20 -21 -22 -21 -34 -4 -16 20 -42 22 -49 3 -4 -9 -34 -16 -95 -20 -70 -6 -94 -12 -108 -27 -14 -15 -31 -19 -86 -19 -60 0 -68 -2 -68 -19 0 -18 13 -19 193 -26 252 -9 4388 -2 4404 8 27 17 1 37 -48 37 -38 0 -52 4 -61 20 -16 25 -34 25 -48 0 -9 -17 -21 -20 -75 -20 -54 0 -67 3 -77 20 -16 25 -30 25 -53 0 -26 -29 -156 -29 -185 0 -24 24 -72 26 -90 5 -12 -14 -18 -12 -50 20 -28 27 -49 38 -81 42 -24 3 -55 14 -68 24 -14 11 -40 19 -63 19 -25 0 -41 5 -44 15 -8 20 -60 20 -68 0 -7 -19 -45 -20 -52 -1 -9 24 -61 30 -90 11 -22 -14 -27 -14 -46 0 -19 13 -78 15 -419 15 l-397 0 -24 29 c-12 15 -28 36 -33 46 -10 16 -13 15 -42 -14 -17 -17 -41 -31 -54 -31 -12 0 -28 -8 -35 -17 l-14 -18 -14 18 c-16 21 -64 22 -86 2 -9 -8 -39 -18 -66 -22 -27 -3 -55 -13 -61 -22 -12 -15 -14 -14 -27 2 -23 29 -64 21 -112 -23 -50 -46 -57 -47 -84 -20 -12 12 -33 20 -53 20 -27 0 -35 -5 -44 -31 l-12 -30 -25 16 c-30 20 -103 12 -123 -14 -12 -15 -14 -15 -27 2 -17 22 -31 22 -56 -3 -11 -11 -24 -20 -30 -20 -5 0 -19 9 -30 20 -25 25 -85 27 -94 4 -8 -21 -26 -8 -26 18 0 12 -7 30 -16 40 -14 15 -15 20 -3 34 12 15 14 1159 14 7685 0 4217 -4 7671 -8 7676 -9 8 -1278 14 -1329 6z"/>
<path d="M6858 20283 c-427 -2 -658 -7 -658 -13 0 -7 226 -10 648 -10 740 0 698 5 688 -79 -3 -25 -8 -63 -12 -84 -3 -22 -1 -49 5 -65 9 -20 9 -36 2 -55 -7 -19 -11 -998 -11 -3057 l-1 -3028 23 -46 c17 -36 27 -46 46 -46 23 0 24 3 17 37 -4 20 -13 42 -21 48 -12 9 -14 420 -14 3035 0 2676 2 3026 15 3036 20 15 19 74 -1 88 -12 10 -17 35 -19 120 -3 106 -11 130 -40 123 -5 -1 -306 -3 -667 -4z"/>
<path d="M14933 20282 c-9 -6 -2 -19 26 -46 42 -41 57 -36 46 13 -4 18 -14 31 -28 35 -28 7 -30 7 -44 -2z"/>
<path d="M9516 20249 c-12 -61 -2 -189 14 -189 8 0 14 24 30 125 6 33 13 68 16 78 4 13 -1 17 -24 17 -25 0 -30 -5 -36 -31z"/>
<path d="M9610 20270 c0 -6 82 -10 225 -10 143 0 225 4 225 10 0 6 -82 10 -225 10 -143 0 -225 -4 -225 -10z"/>
<path d="M6170 20200 c-20 -12 -21 -140 -1 -163 25 -31 31 -17 31 78 0 52 -3 95 -7 95 -5 0 -15 -5 -23 -10z"/>
<path d="M10896 20187 c-26 -104 -27 -457 -23 -7577 3 -4051 9 -7406 13 -7457 9 -90 16 -114 32 -99 8 9 14 15073 5 15124 -6 37 -18 42 -27 9z"/>
<path d="M15031 20201 c-10 -7 -4 -17 25 -45 22 -19 47 -36 58 -36 16 0 18 5 13 37 -4 20 -12 40 -19 45 -17 10 -59 10 -77 -1z"/>
<path d="M15178 20123 c-18 -4 -25 -23 -10 -23 4 0 34 -31 67 -70 33 -38 67 -70 77 -70 27 0 22 15 -21 57 -21 21 -41 51 -45 68 -10 41 -25 49 -68 38z"/>
<path d="M12840 20106 c0 -9 -12 -39 -26 -66 -27 -53 -26 -84 3 -78 28 5 60 147 36 155 -7 3 -13 -3 -13 -11z"/>
<path d="M9515 19958 c-9 -35 -1 -6135 8 -6144 4 -4 9 -5 12 -3 2 3 6 89 7 191 2 103 7 190 11 194 12 12 9 5742 -3 5765 -14 25 -28 24 -35 -3z"/>
<path d="M1720 19949 c0 -24 18 -106 30 -134 5 -11 11 -36 13 -55 6 -55 58 -274 67 -283 12 -14 22 66 15 116 -4 25 -13 48 -20 50 -7 3 -14 34 -18 77 -4 52 -11 76 -23 85 -14 9 -18 29 -19 80 -1 45 -6 70 -16 76 -22 14 -29 11 -29 -12z"/>
<path d="M6162 19953 c-4 -10 -7 -3322 -7 -7360 0 -6941 1 -7343 17 -7360 10 -9 20 -14 23 -11 3 3 8 13860 5 14741 0 15 -31 6 -38 -10z"/>
<path d="M12678 19943 c-1 -10 -2 -27 -2 -38 -1 -16 -9 -21 -38 -23 -32 -3 -37 -7 -43 -35 -4 -18 -13 -39 -20 -47 -7 -8 -16 -26 -20 -40 -4 -13 -31 -49 -60 -80 -55 -59 -95 -131 -95 -171 l1 -24 19 25 c10 14 28 37 40 52 11 14 20 32 20 39 0 12 10 24 79 96 23 23 41 52 41 63 0 11 7 23 15 26 8 3 26 26 40 50 14 24 30 44 34 44 8 0 31 53 31 71 0 17 -40 9 -42 -8z"/>
<path d="M15420 19865 c0 -14 46 -71 131 -162 22 -24 42 -43 44 -43 13 0 3 59 -10 64 -8 3 -15 16 -15 28 0 33 -11 45 -45 54 -17 3 -45 22 -62 40 -37 38 -43 41 -43 19z"/>
<path d="M15625 19640 c-5 -9 10 -48 40 -100 7 -14 16 -33 19 -42 3 -10 14 -18 24 -18 27 0 50 -29 77 -97 15 -38 32 -62 49 -71 17 -9 26 -21 26 -37 0 -13 5 -27 10 -30 6 -3 10 -21 10 -40 0 -37 44 -111 78 -132 23 -14 62 -90 62 -121 0 -41 17 -22 23 26 9 76 0 100 -36 104 -26 3 -33 9 -41 38 -5 19 -15 38 -22 42 -6 4 -15 23 -18 41 -4 19 -15 42 -26 52 -11 10 -20 23 -20 29 0 7 -9 29 -20 51 -11 22 -20 45 -20 51 0 7 -6 14 -14 17 -7 3 -16 21 -20 41 -6 30 -11 35 -39 38 -26 3 -33 8 -41 38 -6 19 -15 40 -22 45 -6 6 -15 23 -19 40 -9 40 -44 61 -60 35z"/>
<path d="M12317 19452 c-7 -35 3 -112 14 -112 5 0 9 9 9 19 0 11 11 41 25 67 14 26 25 49 25 50 0 2 -15 4 -34 4 -29 0 -34 -4 -39 -28z"/>
<path d="M1840 19420 c0 -16 9 -64 19 -107 26 -104 57 -236 71 -303 7 -30 16 -63 21 -72 5 -10 9 -28 9 -40 0 -32 64 -298 71 -298 24 0 18 145 -6 165 -7 6 -16 41 -19 79 -5 48 -12 73 -24 82 -14 10 -17 29 -17 98 0 66 -4 88 -16 98 -11 9 -19 36 -23 82 -3 40 -11 73 -20 80 -8 6 -16 39 -20 80 -5 63 -15 85 -38 86 -5 0 -8 -13 -8 -30z"/>
<path d="M12234 19285 c-3 -19 -13 -39 -21 -44 -10 -5 -16 -25 -17 -56 -2 -33 -8 -52 -20 -61 -12 -8 -19 -29 -21 -60 -3 -49 -15 -64 -51 -64 -15 0 -24 -8 -29 -27 -3 -16 -14 -36 -23 -47 -26 -29 -23 -230 3 -204 3 3 10 34 16 68 11 69 25 102 74 170 33 47 69 145 59 162 -3 5 3 19 13 31 11 12 34 48 52 79 18 32 36 60 42 63 21 13 7 25 -31 25 -37 0 -39 -2 -46 -35z"/>
<path d="M16040 18788 c0 -13 17 -46 38 -74 33 -42 42 -65 57 -145 17 -90 36 -160 55 -204 4 -11 17 -40 28 -65 19 -44 27 -74 39 -152 3 -21 9 -38 14 -38 20 0 14 161 -6 173 -8 4 -17 23 -21 42 -3 18 -12 36 -18 38 -8 3 -16 34 -20 78 -4 41 -12 77 -20 83 -8 6 -16 40 -19 78 -6 60 -10 71 -40 100 -19 18 -38 44 -42 58 -15 49 -45 68 -45 28z"/>
<path d="M11956 18658 c-3 -13 -6 -64 -6 -115 0 -74 -3 -94 -16 -101 -12 -7 -18 -29 -22 -81 -3 -46 -10 -75 -18 -78 -19 -7 -27 -73 -19 -158 7 -72 25 -106 25 -46 0 16 9 64 21 107 11 44 29 124 39 179 11 55 24 123 29 150 6 28 12 76 15 108 l5 57 -24 0 c-15 0 -25 -7 -29 -22z"/>
<path d="M2043 18528 c5 -41 27 -140 60 -273 8 -33 20 -87 27 -120 8 -33 17 -64 20 -70 4 -5 10 -30 13 -55 4 -25 10 -63 15 -85 5 -22 17 -76 27 -120 9 -44 19 -82 21 -84 12 -12 19 18 18 80 0 50 -4 72 -16 81 -10 9 -17 36 -21 81 -4 51 -9 72 -23 82 -16 11 -19 27 -19 99 0 66 -4 88 -16 98 -11 9 -19 36 -23 82 -4 46 -11 72 -22 80 -11 9 -17 32 -19 80 -3 64 -12 85 -39 86 -4 0 -6 -19 -3 -42z"/>
<path d="M13830 18551 c-8 -5 -32 -11 -53 -15 -24 -5 -48 -19 -69 -41 -17 -19 -37 -35 -45 -35 -7 0 -13 -4 -13 -9 0 -13 44 -22 77 -15 24 5 32 13 39 42 l9 36 142 -3 c153 -3 273 6 273 20 0 5 -13 9 -29 9 -17 0 -33 5 -36 10 -8 12 -273 13 -295 1z"/>
<path d="M14270 18503 c1 -50 11 -63 51 -63 44 0 48 8 19 35 -11 10 -20 24 -20 32 0 7 -11 13 -25 13 -17 0 -25 -5 -25 -17z"/>
<path d="M13506 18419 c-17 -14 -26 -30 -26 -50 0 -16 3 -29 7 -29 9 0 83 82 83 92 0 15 -38 8 -64 -13z"/>
<path d="M14394 18409 c3 -17 6 -35 6 -39 0 -5 13 -11 29 -15 44 -9 107 -76 141 -148 17 -35 30 -69 30 -75 0 -6 14 -15 32 -20 24 -6 34 -15 40 -39 8 -31 36 -47 58 -33 16 10 -25 96 -51 103 -10 3 -22 13 -25 24 -4 10 -16 28 -27 41 -12 12 -22 29 -23 37 -3 20 -95 125 -110 125 -7 0 -28 16 -47 35 -43 45 -62 46 -53 4z"/>
<path d="M13410 18252 c-14 -15 -35 -34 -46 -42 -27 -19 -62 -159 -43 -171 24 -14 39 3 40 45 4 106 1 99 40 109 26 6 38 15 42 30 2 12 8 30 12 40 12 27 -17 21 -45 -11z"/>
<path d="M16300 18032 c0 -4 4 -12 9 -17 5 -6 12 -50 15 -100 3 -49 10 -119 16 -155 6 -36 15 -96 20 -135 15 -119 22 -155 30 -155 12 0 24 144 16 196 -3 24 -15 53 -26 64 -18 18 -20 29 -15 122 2 57 2 122 -1 146 -6 38 -9 42 -35 42 -16 0 -29 -4 -29 -8z"/>
<path d="M13260 17980 c0 -30 -28 -131 -44 -154 -7 -12 -16 -39 -19 -61 -3 -22 -11 -60 -17 -85 -7 -25 -16 -94 -19 -155 -4 -60 -15 -135 -24 -165 -13 -42 -19 -113 -23 -305 -6 -218 -5 -255 10 -289 9 -22 16 -66 16 -102 0 -35 4 -64 8 -64 13 0 22 219 22 522 0 229 2 268 15 276 13 6 16 36 18 155 3 120 7 150 20 165 9 10 17 23 17 29 0 6 8 21 18 34 22 28 34 112 25 175 -6 44 -23 62 -23 24z"/>
<path d="M11850 17960 c-12 -7 -15 -32 -15 -119 0 -99 6 -134 20 -119 10 9 36 210 30 229 -7 21 -13 23 -35 9z"/>
<path d="M14755 17867 c-7 -26 1 -48 50 -132 19 -33 34 -67 35 -76 0 -9 6 -19 13 -22 9 -3 16 -31 21 -78 5 -55 12 -79 28 -96 30 -32 40 -16 28 48 -5 29 -12 70 -15 89 -3 19 -10 39 -16 45 -5 5 -9 19 -9 31 0 12 -11 36 -25 52 -14 17 -25 38 -25 49 0 10 -9 24 -20 31 -11 7 -20 22 -20 35 0 23 -17 47 -32 47 -4 0 -10 -10 -13 -23z"/>
<path d="M2240 17671 c0 -10 11 -67 25 -127 14 -60 37 -163 51 -229 14 -66 30 -124 35 -129 5 -6 9 -24 9 -42 0 -17 4 -44 9 -60 5 -16 13 -51 19 -79 27 -124 73 -325 112 -487 10 -46 25 -109 31 -141 15 -71 25 -79 34 -28 8 50 -3 128 -20 134 -7 3 -14 34 -18 77 -4 51 -11 76 -23 85 -14 9 -17 29 -18 98 -1 66 -5 90 -18 99 -10 9 -18 36 -22 82 -3 45 -11 72 -21 80 -11 7 -17 33 -19 79 -3 51 -9 72 -22 82 -15 10 -18 28 -19 99 0 66 -4 88 -16 98 -11 9 -19 36 -23 82 -4 46 -11 72 -22 80 -11 9 -17 32 -19 80 -2 44 -8 72 -16 77 -21 13 -29 11 -29 -10z"/>
<path d="M11814 17562 c-6 -4 -14 -20 -18 -36 -7 -30 3 -290 12 -282 2 3 6 33 9 67 2 34 8 70 13 79 14 25 24 124 16 154 -7 27 -13 31 -32 18z"/>
<path d="M16403 17328 c2 -46 12 -123 20 -173 9 -49 21 -143 28 -208 6 -64 15 -120 19 -122 12 -7 24 177 17 258 -4 43 -12 73 -21 81 -10 8 -15 39 -18 119 -3 106 -10 126 -42 127 -4 0 -6 -37 -3 -82z"/>
<path d="M14946 17387 c2 -7 5 -58 7 -114 2 -89 5 -104 22 -117 18 -13 20 -26 20 -119 0 -73 4 -109 14 -120 16 -20 27 -22 33 -4 6 16 -8 138 -22 202 -6 28 -17 96 -24 152 -13 95 -26 133 -47 133 -5 0 -6 -6 -3 -13z"/>
<path d="M11781 17171 c-14 -15 -24 -37 -24 -53 0 -32 25 -64 42 -54 15 10 24 68 14 102 l-8 29 -24 -24z"/>
<path d="M11763 16998 c-10 -16 -17 -457 -8 -516 6 -38 27 -64 40 -50 4 4 9 530 6 566 0 6 -7 12 -15 12 -8 0 -18 -6 -23 -12z"/>
<path d="M15040 16798 c0 -23 6 -38 15 -42 12 -4 15 -24 15 -89 0 -107 8 -145 32 -158 11 -6 22 -8 25 -5 3 3 2 60 -3 128 l-9 122 -25 6 c-17 4 -26 14 -28 30 -6 42 -22 47 -22 8z"/>
<path d="M16486 16748 c4 -18 8 -80 9 -137 l0 -105 -31 -18 c-18 -10 -81 -37 -140 -59 -60 -23 -122 -47 -139 -54 -41 -18 -111 -44 -165 -62 -25 -8 -49 -19 -54 -24 -6 -5 -16 -9 -23 -9 -8 0 -33 -9 -55 -20 -23 -11 -48 -20 -55 -20 -8 0 -33 -9 -55 -20 -23 -11 -45 -20 -50 -20 -5 0 -27 -9 -51 -19 -23 -10 -51 -21 -62 -24 -21 -5 -220 -80 -270 -102 -16 -7 -57 -23 -90 -35 -33 -12 -68 -26 -78 -31 -10 -5 -22 -7 -27 -4 -6 4 -10 78 -11 173 0 92 -4 176 -9 187 -6 13 -9 -20 -9 -92 -1 -99 -3 -113 -20 -125 -30 -21 -36 -62 -13 -84 11 -11 23 -33 26 -50 6 -25 14 -33 38 -38 35 -7 76 1 98 19 8 7 26 16 40 20 14 4 30 14 35 22 6 8 32 16 59 18 26 2 53 10 59 18 7 8 34 17 61 21 27 3 57 12 65 20 9 8 28 17 43 21 15 4 29 12 31 19 3 7 29 16 57 19 29 4 60 13 69 21 9 7 27 17 41 21 14 4 30 15 36 23 7 10 30 16 58 18 28 1 52 8 59 17 7 8 34 17 61 21 27 3 57 12 65 20 9 7 27 17 41 21 14 4 30 14 35 22 6 8 32 16 59 18 26 2 53 10 59 18 7 8 34 17 61 21 27 3 57 12 65 20 9 7 27 17 41 21 14 4 44 26 68 48 49 48 56 93 21 128 -15 15 -20 31 -18 62 3 68 0 82 -22 96 l-22 13 9 -34z"/>
<path d="M13160 16358 c0 -51 3 -124 7 -161 5 -60 9 -70 30 -78 21 -8 23 -14 23 -82 0 -65 6 -98 41 -217 6 -19 13 -46 15 -60 3 -14 9 -34 14 -45 9 -22 17 -55 30 -130 11 -68 52 -155 72 -155 14 0 9 48 -5 53 -9 3 -16 30 -20 75 -4 51 -11 76 -25 90 -16 16 -20 33 -19 81 0 44 -4 65 -15 74 -10 8 -18 37 -22 81 -5 53 -12 73 -26 83 -16 12 -20 26 -20 80 0 47 -4 69 -15 77 -12 9 -16 42 -18 159 -3 146 -7 166 -39 167 -5 0 -8 -42 -8 -92z"/>
<path d="M2560 16261 c0 -15 4 -41 9 -57 5 -16 14 -54 20 -84 14 -64 43 -188 66 -280 9 -36 18 -78 20 -94 9 -63 69 -306 76 -306 24 0 19 154 -6 163 -7 3 -15 35 -19 78 -4 51 -11 76 -24 85 -14 10 -17 29 -17 98 0 66 -4 88 -16 98 -11 9 -19 36 -23 82 -3 45 -11 72 -21 80 -11 7 -17 33 -19 80 -4 63 -14 85 -38 86 -5 0 -8 -13 -8 -29z"/>
<path d="M11795 16108 c-4 -51 -5 -175 -3 -276 3 -168 5 -185 22 -198 11 -7 22 -11 25 -9 18 18 -9 547 -29 568 -4 5 -11 -33 -15 -85z"/>
<path d="M11837 15503 c-3 -27 -3 -61 0 -76 6 -28 27 -46 40 -33 10 10 4 79 -7 90 -6 6 -10 23 -10 38 0 46 -17 32 -23 -19z"/>
<path d="M2760 15385 c0 -13 7 -50 15 -82 9 -32 20 -76 24 -98 46 -215 63 -292 68 -305 3 -8 6 -18 5 -22 -1 -3 5 -28 12 -55 7 -26 24 -96 36 -155 13 -60 26 -108 31 -108 25 0 19 146 -8 165 -8 6 -15 36 -17 78 -3 52 -9 72 -23 82 -15 11 -18 27 -18 99 0 66 -4 88 -16 98 -11 9 -19 36 -23 82 -4 48 -11 72 -23 81 -13 9 -17 29 -18 80 -1 45 -6 70 -16 76 -22 14 -29 11 -29 -16z"/>
<path d="M13400 15319 c0 -6 13 -29 28 -52 16 -23 39 -63 51 -89 12 -26 47 -75 77 -109 31 -33 67 -86 81 -115 14 -30 29 -57 34 -60 5 -3 9 -14 9 -26 0 -11 11 -29 25 -40 14 -11 25 -24 25 -31 0 -6 15 -25 33 -42 46 -45 197 -266 197 -288 0 -5 9 -20 20 -34 11 -14 20 -36 20 -49 0 -19 5 -24 26 -24 25 0 26 2 19 37 -4 20 -12 42 -20 48 -7 5 -15 22 -19 38 -4 15 -33 54 -66 86 -41 41 -60 67 -60 84 0 14 -6 27 -14 30 -7 3 -16 21 -20 41 -6 30 -11 35 -39 38 -26 2 -33 9 -41 37 -6 19 -26 50 -45 68 -29 27 -35 40 -37 78 -1 42 -7 51 -58 101 -31 30 -56 61 -56 68 0 7 -17 35 -39 62 -21 27 -41 58 -45 69 -7 23 -63 85 -77 85 -5 0 -9 -5 -9 -11z"/>
<path d="M11877 15253 c-8 -48 1 -84 26 -102 16 -12 18 -21 12 -66 -3 -29 -3 -70 1 -90 7 -38 30 -57 43 -36 10 15 2 113 -10 126 -5 5 -9 19 -9 31 0 13 -4 26 -10 29 -5 3 -10 18 -10 33 0 26 -21 96 -32 107 -3 3 -8 -11 -11 -32z"/>
<path d="M11956 14837 c-8 -33 7 -81 27 -85 14 -3 17 5 17 40 0 60 -32 93 -44 45z"/>
<path d="M11995 14618 c-7 -56 -2 -72 41 -148 14 -25 31 -58 36 -74 6 -16 19 -37 30 -48 14 -14 18 -33 18 -83 0 -48 4 -65 14 -65 10 0 12 15 9 68 -2 37 -8 80 -13 96 -6 16 -10 39 -10 51 0 12 -9 30 -20 40 -11 10 -20 27 -20 38 0 11 -7 25 -16 31 -14 11 -28 50 -41 119 -8 43 -21 32 -28 -25z"/>
<path d="M2960 14504 c0 -27 16 -93 30 -129 5 -11 11 -36 13 -55 8 -62 57 -284 67 -302 6 -10 10 -27 10 -39 0 -19 18 -100 59 -269 11 -41 25 -104 31 -140 7 -36 17 -69 21 -75 5 -5 9 -21 9 -36 0 -14 8 -62 19 -105 10 -44 24 -105 31 -136 7 -32 16 -58 20 -58 25 0 20 154 -5 163 -7 3 -14 34 -18 77 -4 51 -11 76 -23 85 -14 9 -17 29 -18 98 -1 66 -5 90 -18 99 -10 9 -18 36 -22 82 -3 40 -11 73 -20 80 -8 6 -16 39 -20 80 -4 48 -11 72 -23 81 -14 10 -17 29 -18 99 0 66 -4 88 -16 98 -11 9 -19 36 -23 82 -4 48 -11 72 -23 81 -13 9 -17 29 -18 80 -1 45 -6 70 -16 76 -23 14 -29 11 -29 -17z"/>
<path d="M14094 14344 c3 -9 6 -27 6 -40 0 -13 5 -24 10 -24 6 0 10 18 10 40 0 30 -4 40 -16 40 -11 0 -14 -5 -10 -16z"/>
<path d="M2034 14252 c-10 -15 -19 -47 -21 -72 -1 -25 -6 -81 -11 -125 -11 -102 -7 -117 28 -95 11 7 16 34 18 112 2 57 7 107 11 111 5 4 16 -3 25 -17 9 -15 21 -26 26 -26 18 0 11 49 -10 70 -11 11 -20 29 -20 39 0 31 -27 32 -46 3z"/>
<path d="M14115 14240 c-9 -27 8 -47 45 -52 31 -5 31 -3 -2 45 -23 32 -34 34 -43 7z"/>
<path d="M14180 14150 c0 -11 6 -20 14 -20 9 0 12 7 9 20 -3 11 -9 20 -14 20 -5 0 -9 -9 -9 -20z"/>
<path d="M14220 14117 c0 -19 37 -70 57 -78 13 -5 31 -24 39 -41 8 -18 19 -40 24 -48 5 -8 16 -31 25 -50 26 -58 39 -77 98 -139 32 -33 57 -65 57 -72 0 -30 52 -119 77 -131 14 -7 31 -22 37 -32 17 -31 74 -119 95 -146 10 -14 45 -65 77 -113 33 -49 75 -113 94 -142 19 -28 44 -65 54 -81 11 -16 43 -65 72 -109 28 -44 118 -182 200 -307 82 -124 181 -276 219 -337 39 -61 93 -147 122 -191 28 -44 53 -85 56 -92 9 -22 27 14 21 39 -4 13 -22 40 -40 60 -19 21 -37 49 -41 63 -3 14 -11 32 -18 40 -7 8 -16 25 -19 37 -4 12 -22 38 -41 59 -19 21 -35 43 -35 50 0 6 -18 34 -40 62 -22 27 -40 54 -40 60 0 5 -17 31 -39 58 -21 27 -41 58 -45 69 -3 11 -21 36 -40 56 -19 19 -38 49 -42 65 -4 16 -12 36 -19 44 -7 8 -16 26 -20 39 -4 13 -31 47 -60 75 -30 29 -56 64 -61 81 -3 17 -12 37 -19 45 -7 8 -16 25 -20 38 -4 13 -33 50 -66 82 -40 40 -59 67 -59 83 0 14 -6 30 -14 36 -8 7 -17 23 -20 37 -4 14 -31 49 -61 78 -35 33 -57 64 -61 84 -3 17 -12 33 -19 36 -7 2 -15 20 -19 40 -6 30 -11 35 -39 38 -26 3 -33 8 -41 38 -6 19 -15 40 -22 45 -6 6 -15 24 -19 40 -3 17 -12 37 -19 45 -8 8 -16 27 -20 42 -4 20 -14 28 -38 33 -52 11 -75 39 -83 100 -3 29 -12 56 -19 58 -8 3 -16 21 -20 41 -6 30 -11 35 -39 38 -28 3 -33 8 -41 41 -8 32 -13 37 -38 37 -15 0 -28 -2 -28 -3z"/>
<path d="M2114 14074 c-9 -36 2 -103 19 -117 9 -8 17 -37 20 -81 5 -63 15 -85 40 -86 18 0 2 93 -46 268 -13 48 -24 53 -33 16z"/>
<path d="M12195 14031 c-3 -11 -3 -31 1 -46 5 -19 12 -25 28 -23 17 2 20 9 18 33 -6 50 -35 73 -47 36z"/>
<path d="M12280 13916 c0 -22 6 -36 16 -40 13 -5 15 -2 10 16 -3 13 -6 31 -6 41 0 9 -4 17 -10 17 -5 0 -10 -15 -10 -34z"/>
<path d="M12319 13813 c-4 -43 4 -89 16 -96 8 -4 16 -37 20 -82 l7 -75 29 0 c19 0 32 -6 35 -17 4 -10 26 -58 50 -108 24 -49 44 -96 44 -102 0 -8 13 -13 30 -13 29 0 40 13 20 25 -5 3 -10 17 -10 30 0 12 -7 25 -15 28 -18 8 -51 73 -60 120 -4 20 -13 38 -21 38 -8 1 -19 2 -26 3 -7 0 -18 12 -24 26 -17 34 -54 161 -54 185 -1 20 -22 55 -34 55 -3 0 -7 -8 -7 -17z"/>
<path d="M9410 13790 c0 -5 9 -10 20 -10 11 0 20 5 20 10 0 6 -9 10 -20 10 -11 0 -20 -4 -20 -10z"/>
<path d="M2196 13646 c-8 -34 3 -84 22 -91 23 -9 25 -1 11 59 -13 60 -23 70 -33 32z"/>
<path d="M2000 13520 c0 -71 3 -130 8 -130 28 1 34 21 35 129 2 90 -1 114 -13 121 -8 5 -18 10 -22 10 -5 0 -8 -58 -8 -130z"/>
<path d="M2234 13445 c-8 -45 3 -120 20 -134 7 -6 17 -42 20 -80 4 -43 12 -71 20 -74 9 -4 16 -33 21 -82 5 -54 11 -78 22 -82 8 -3 18 -1 22 6 9 13 -6 137 -19 161 -5 8 -20 65 -34 125 -41 171 -48 195 -57 195 -4 0 -11 -16 -15 -35z"/>
<path d="M12600 13278 c0 -13 9 -34 20 -48 11 -14 20 -35 20 -46 0 -12 6 -27 14 -33 8 -7 18 -26 21 -42 5 -20 13 -29 27 -29 17 0 19 4 14 26 -4 15 -18 41 -32 59 -13 17 -24 36 -24 42 0 5 -9 18 -20 28 -11 10 -20 29 -20 42 0 12 -4 23 -10 23 -5 0 -10 -10 -10 -22z"/>
<path d="M3280 13108 c0 -22 19 -109 59 -278 10 -41 24 -102 31 -135 8 -33 17 -64 21 -70 4 -5 7 -21 7 -35 0 -14 12 -74 27 -135 14 -60 28 -125 32 -142 7 -43 19 -42 27 2 9 46 -2 122 -19 128 -7 3 -14 34 -18 77 -4 53 -11 76 -24 85 -15 11 -18 28 -18 99 0 66 -4 88 -16 98 -11 9 -19 36 -23 82 -4 48 -11 72 -23 81 -13 9 -17 29 -18 80 -1 45 -6 70 -16 76 -22 14 -29 11 -29 -13z"/>
<path d="M12755 13070 c-9 -14 3 -61 20 -80 7 -8 16 -26 20 -40 4 -14 23 -41 42 -61 23 -24 36 -48 37 -70 2 -19 4 -39 5 -46 0 -7 15 -16 33 -21 23 -6 34 -16 41 -37 5 -17 33 -55 62 -85 46 -48 105 -147 105 -177 0 -14 40 -24 57 -15 17 10 -48 138 -88 172 -17 14 -35 35 -42 47 -7 12 -34 49 -60 83 -27 35 -57 81 -67 104 -10 22 -32 56 -49 75 -18 18 -45 59 -61 91 -32 63 -45 77 -55 60z"/>
<path d="M2355 12919 c-15 -68 19 -161 45 -120 16 27 -9 151 -31 151 -4 0 -10 -14 -14 -31z"/>
<path d="M1998 12809 c-2 -67 0 -125 3 -130 3 -5 13 -7 21 -4 11 5 18 27 23 81 10 107 -4 173 -37 174 -4 0 -8 -54 -10 -121z"/>
<path d="M3720 12875 c0 -8 5 -15 10 -15 6 0 10 7 10 15 0 8 -4 15 -10 15 -5 0 -10 -7 -10 -15z"/>
<path d="M2394 12734 c-9 -36 3 -124 19 -143 8 -9 17 -45 21 -80 3 -36 12 -72 20 -80 7 -9 17 -46 21 -83 4 -40 12 -68 19 -71 9 -4 16 -34 21 -81 5 -59 11 -78 25 -86 13 -7 19 -6 23 3 8 21 -8 154 -20 168 -6 8 -25 68 -42 134 -16 66 -36 145 -44 175 -8 30 -20 81 -27 113 -14 62 -26 72 -36 31z"/>
<path d="M2000 12360 c0 -90 3 -97 29 -81 19 12 19 150 -1 162 -25 16 -28 9 -28 -81z"/>
<path d="M13196 12415 c-6 -17 8 -60 23 -69 5 -3 12 -20 16 -36 5 -23 12 -30 31 -30 13 0 24 3 24 7 0 10 -70 132 -79 138 -5 2 -11 -2 -15 -10z"/>
<path d="M3516 12265 c-3 -8 -12 -15 -21 -15 -8 0 -15 -9 -15 -21 0 -20 17 -99 27 -129 3 -8 7 -29 9 -46 1 -17 14 -72 28 -122 14 -50 26 -96 26 -103 0 -17 54 -128 62 -128 4 -1 10 15 14 35 5 27 2 42 -13 62 -13 17 -22 51 -26 91 -4 44 -10 67 -21 73 -10 6 -16 23 -16 46 0 20 -7 50 -15 66 -11 20 -12 33 -5 40 5 5 10 45 10 88 0 70 -2 78 -19 78 -10 0 -21 -7 -25 -15z"/>
<path d="M13317 12238 c-2 -13 -3 -36 -2 -53 1 -16 3 -38 4 -47 1 -11 12 -18 33 -20 27 -3 33 -8 41 -38 10 -41 7 -36 32 -44 37 -11 48 7 29 47 -15 32 -33 44 -48 35 -11 -7 -46 38 -46 59 0 22 -25 83 -34 83 -2 0 -6 -10 -9 -22z"/>
<path d="M8725 12069 c-143 -4 -421 -8 -617 -9 -197 -1 -360 -5 -363 -10 -6 -10 1610 -25 1656 -15 32 7 48 20 49 38 0 8 -353 7 -725 -4z"/>
<path d="M2555 12030 c-10 -45 4 -109 26 -120 15 -9 19 -7 20 7 3 53 -16 143 -31 143 -4 0 -11 -14 -15 -30z"/>
<path d="M7479 11963 c-4 -62 3 -1147 11 -1583 5 -289 10 -715 10 -947 0 -236 4 -423 9 -423 10 0 24 1812 19 2481 -2 368 -6 459 -17 472 -18 22 -31 22 -32 0z"/>
<path d="M13477 11951 c-9 -45 2 -70 36 -79 24 -6 34 -16 40 -39 7 -23 18 -33 41 -40 22 -6 34 -17 41 -39 6 -17 15 -37 22 -45 6 -8 14 -26 18 -42 5 -18 14 -27 26 -27 16 0 18 5 13 28 -12 51 -45 113 -73 138 -16 14 -32 37 -35 50 -4 14 -18 29 -31 34 -13 5 -36 27 -50 50 -30 47 -40 50 -48 11z"/>
<path d="M1998 11953 c-3 -14 -2 -3689 1 -6440 1 -200 4 -363 9 -363 37 1 36 -124 37 3387 0 1852 -2 3381 -5 3398 -6 33 -35 46 -42 18z"/>
<path d="M15660 11943 c0 -10 27 -56 59 -102 43 -61 63 -99 72 -142 12 -54 15 -59 40 -59 l27 0 -11 38 c-6 20 -19 48 -29 61 -10 13 -18 32 -18 41 0 10 -6 23 -14 29 -8 7 -17 24 -21 39 -5 22 -87 112 -101 112 -2 0 -4 -8 -4 -17z"/>
<path d="M9610 11880 c-13 -8 -15 -133 -18 -1007 -4 -1324 9 -4944 18 -4938 6 4 13 1061 29 4540 3 765 5 1396 3 1403 -5 14 -12 15 -32 2z"/>
<path d="M2595 11806 c-4 -35 -4 -77 -1 -94 7 -29 51 -80 61 -71 2 3 -2 39 -10 80 -9 41 -18 91 -22 112 -9 56 -21 45 -28 -27z"/>
<path d="M13760 11640 c-16 -10 -6 -73 15 -90 7 -6 17 -25 20 -41 5 -22 12 -29 31 -29 21 0 23 3 17 33 -3 17 -12 41 -18 52 -7 11 -15 32 -19 46 -6 29 -26 42 -46 29z"/>
<path d="M15877 11606 c-10 -25 19 -186 33 -186 13 0 23 95 15 140 -7 42 -38 72 -48 46z"/>
<path d="M2676 11506 c-8 -93 -2 -135 22 -153 12 -10 16 -34 16 -97 1 -68 5 -88 20 -105 13 -15 20 -38 21 -81 2 -40 8 -67 19 -79 13 -14 18 -40 19 -101 2 -67 6 -84 21 -96 16 -11 20 -27 20 -98 1 -66 5 -88 19 -104 12 -14 20 -41 22 -82 4 -49 9 -66 25 -77 17 -12 20 -25 20 -82 0 -65 7 -81 36 -81 8 0 4 69 -5 92 -21 51 -24 65 -27 103 -2 22 -8 51 -14 65 -5 14 -16 63 -25 110 -8 47 -22 112 -30 145 -8 33 -15 80 -15 105 0 27 -8 58 -20 78 -11 17 -18 32 -16 32 2 0 -3 28 -11 63 -8 34 -21 96 -28 137 -17 95 -42 222 -55 278 -6 23 -10 58 -10 77 0 69 -17 33 -24 -49z"/>
<path d="M13880 11428 c0 -15 4 -29 9 -33 11 -6 71 -127 71 -142 0 -6 6 -16 14 -22 7 -6 16 -24 19 -40 5 -21 13 -30 35 -34 26 -5 72 0 72 9 0 2 -22 26 -50 53 -27 28 -50 59 -50 70 0 11 -9 25 -20 31 -13 7 -20 21 -20 40 0 20 -7 33 -22 41 -13 6 -31 21 -40 33 l-18 21 0 -27z"/>
<path d="M15935 11400 c-3 -5 10 -34 30 -65 19 -30 35 -64 35 -75 0 -10 5 -22 10 -25 6 -3 10 -17 10 -31 0 -39 20 -27 22 14 2 63 -3 97 -17 104 -7 4 -16 23 -19 42 -5 23 -13 36 -29 40 -30 8 -35 8 -42 -4z"/>
<path d="M16081 11001 c-12 -8 -9 -16 17 -46 24 -27 32 -45 32 -74 0 -20 11 -69 23 -107 13 -38 29 -100 36 -139 21 -123 53 -249 71 -280 10 -16 20 -60 23 -98 4 -37 13 -82 21 -100 8 -17 17 -70 20 -117 6 -110 16 -183 26 -193 11 -12 23 183 14 229 -4 22 -14 44 -23 50 -12 10 -15 34 -16 119 0 88 -3 108 -17 116 -9 5 -20 24 -24 41 -3 18 -13 37 -20 43 -10 7 -15 40 -17 117 -2 84 -6 110 -19 120 -10 9 -18 37 -22 82 -4 39 -13 74 -20 80 -8 6 -17 42 -20 81 -4 38 -12 73 -19 77 -16 10 -49 10 -66 -1z"/>
<path d="M14191 10983 c8 -10 20 -22 27 -26 7 -5 26 -26 42 -48 19 -26 31 -36 36 -28 4 7 -6 22 -25 38 -21 18 -31 35 -31 54 0 24 -4 27 -31 27 -29 0 -30 -2 -18 -17z"/>
<path d="M14322 10783 c21 -42 38 -83 38 -90 0 -7 9 -13 20 -13 28 0 27 53 -2 92 -30 39 -78 88 -87 88 -5 0 9 -35 31 -77z"/>
<path d="M14440 10641 c0 -10 15 -47 34 -83 18 -36 37 -75 40 -86 4 -12 21 -36 38 -54 35 -37 48 -67 48 -107 0 -16 6 -34 14 -40 8 -7 18 -25 21 -41 6 -27 27 -40 68 -40 22 0 22 23 0 41 -9 8 -29 42 -44 76 -16 34 -33 64 -38 67 -5 3 -12 17 -15 31 -7 25 -60 110 -77 120 -5 4 -9 16 -9 29 0 12 -13 35 -30 51 -16 16 -30 35 -30 42 0 7 -4 13 -10 13 -5 0 -10 -8 -10 -19z"/>
<path d="M2955 10200 c-9 -53 3 -118 23 -129 14 -8 17 -26 17 -94 0 -68 4 -89 18 -105 13 -14 19 -39 21 -82 2 -48 7 -66 22 -77 16 -12 19 -27 19 -97 0 -67 4 -88 18 -104 13 -14 19 -40 22 -83 2 -47 8 -66 22 -76 15 -12 18 -28 18 -97 0 -63 4 -88 16 -102 9 -11 20 -40 23 -66 5 -32 14 -51 26 -58 25 -13 31 13 14 60 -7 19 -18 62 -24 95 -13 74 -31 136 -43 152 -5 7 -6 17 -2 22 3 6 -3 44 -13 83 -11 40 -28 109 -37 153 -9 44 -21 88 -26 98 -5 10 -7 21 -5 26 3 4 -6 52 -19 107 -14 54 -25 108 -25 118 0 17 -8 49 -28 106 -3 8 -7 33 -8 55 -4 49 -24 124 -34 130 -5 3 -11 -13 -15 -35z"/>
<path d="M14720 10146 c0 -22 26 -43 38 -31 8 8 -16 55 -28 55 -5 0 -10 -11 -10 -24z"/>
<path d="M14759 10033 c-2 -37 3 -69 15 -83 7 -8 29 -49 49 -90 41 -84 64 -117 73 -107 11 11 -25 113 -46 132 -13 12 -18 25 -14 40 4 16 -1 26 -20 39 -14 9 -26 25 -26 35 0 42 -29 73 -31 34z"/>
<path d="M12993 9963 c-29 -4 -33 -8 -33 -35 0 -27 2 -30 25 -24 14 3 36 9 49 12 26 6 47 -17 85 -95 19 -41 21 -62 21 -223 0 -112 4 -178 10 -178 6 0 11 72 12 193 3 268 6 250 -46 302 -47 46 -69 55 -123 48z"/>
<path d="M12796 9856 c-6 -26 1 -56 14 -56 7 0 40 61 40 74 0 3 -11 6 -24 6 -17 0 -26 -7 -30 -24z"/>
<path d="M16356 9794 c-8 -22 4 -67 23 -80 11 -9 17 -40 23 -115 4 -57 12 -129 18 -159 6 -30 15 -93 20 -140 5 -47 15 -116 20 -155 6 -38 11 -210 11 -380 0 -171 4 -316 8 -323 4 -7 15 -10 23 -7 23 9 30 135 25 413 -4 203 -6 224 -23 237 -17 12 -19 29 -19 159 0 132 -2 146 -20 159 -17 13 -19 28 -20 159 0 133 -2 146 -22 172 -13 16 -23 37 -23 46 0 10 -7 21 -16 24 -21 8 -21 8 -28 -10z"/>
<path d="M12620 9765 c-18 -19 -30 -38 -27 -42 4 -4 36 8 70 25 34 18 68 32 75 32 6 0 12 5 12 10 0 6 -22 10 -48 10 -42 0 -53 -5 -82 -35z"/>
<path d="M14900 9724 c0 -20 27 -80 40 -91 12 -9 15 -35 15 -116 0 -86 3 -108 18 -124 9 -11 17 -33 17 -49 0 -61 13 -105 33 -116 l20 -10 -7 78 c-3 44 -13 102 -21 129 -9 28 -25 104 -36 170 -12 66 -22 121 -22 122 -7 7 -57 13 -57 7z"/>
<path d="M12396 9688 c-10 -51 9 -57 49 -14 19 21 35 40 35 42 0 2 -17 4 -39 4 -35 0 -39 -3 -45 -32z"/>
<path d="M12239 9643 c-32 -3 -38 -8 -43 -35 -10 -52 21 -68 49 -24 11 17 28 25 61 29 44 4 62 12 53 22 -8 7 -82 13 -120 8z"/>
<path d="M12029 9563 c-26 -4 -39 -25 -39 -64 0 -31 30 -30 59 2 20 21 41 32 70 36 52 7 54 23 2 23 -22 0 -45 2 -53 3 -7 2 -25 2 -39 0z"/>
<path d="M11880 9449 c0 -17 3 -29 8 -27 27 13 72 44 72 51 0 4 -18 7 -40 7 l-40 0 0 -31z"/>
<path d="M11783 9402 c-28 -4 -36 -43 -31 -153 2 -63 7 -84 21 -94 17 -12 18 -39 20 -360 2 -318 3 -347 20 -356 14 -8 17 -25 18 -102 1 -108 8 -141 33 -145 16 -4 18 5 15 110 -2 88 -7 117 -20 133 -14 17 -18 62 -24 344 -4 178 -11 333 -16 345 -5 12 -13 54 -17 94 -9 77 3 137 33 158 8 6 15 14 15 16 0 8 -41 14 -67 10z"/>
<path d="M13157 9138 c-3 -62 -4 -142 -2 -178 9 -126 29 -280 36 -280 12 0 19 173 16 368 -3 181 -7 201 -38 202 -3 0 -9 -51 -12 -112z"/>
<path d="M15040 9117 c0 -23 54 -97 71 -97 5 0 9 13 9 29 0 23 -6 31 -30 40 -20 7 -30 17 -30 30 0 12 -4 21 -10 21 -5 0 -10 -10 -10 -23z"/>
<path d="M3235 8916 c-8 -52 1 -104 23 -128 9 -11 16 -41 17 -80 2 -47 7 -65 21 -75 17 -13 19 -12 22 12 2 14 -3 54 -11 88 -9 34 -23 99 -33 145 -10 45 -22 82 -26 82 -4 0 -10 -20 -13 -44z"/>
<path d="M15116 8648 c-4 -73 -6 -326 -5 -562 l3 -429 -20 -14 c-15 -11 -19 -26 -19 -76 0 -49 -5 -68 -22 -91 -13 -16 -23 -34 -23 -41 0 -7 -6 -18 -14 -24 -20 -17 -29 -81 -21 -141 8 -61 20 -64 29 -7 13 91 18 114 37 154 10 24 19 46 19 51 0 5 9 27 20 50 11 23 25 79 30 125 6 45 15 107 20 138 21 116 2 999 -20 999 -4 0 -10 -60 -14 -132z"/>
<path d="M13200 8533 c0 -57 4 -81 16 -95 12 -12 19 -47 25 -111 9 -105 17 -147 30 -147 27 0 24 241 -4 263 -9 7 -17 38 -21 82 -6 63 -16 84 -38 85 -5 0 -8 -35 -8 -77z"/>
<path d="M3314 8565 c-8 -47 3 -115 23 -137 10 -12 16 -38 17 -76 2 -63 9 -82 33 -82 21 0 15 42 -38 278 -14 61 -25 66 -35 17z"/>
<path d="M7515 8347 c-11 -41 4 -3118 14 -3154 6 -21 6 -45 0 -65 -5 -18 -9 -57 -9 -86 l0 -52 -40 -28 c-43 -29 -48 -40 -25 -48 26 -10 65 5 65 25 0 10 10 31 21 45 l22 28 1 1646 c1 906 -1 1660 -4 1677 -7 38 -37 46 -45 12z"/>
<path d="M16460 8243 c0 -43 -5 -132 -10 -199 -11 -139 -16 -362 -8 -369 3 -3 12 -3 20 0 27 11 35 189 21 493 -6 158 -23 210 -23 75z"/>
<path d="M3394 8205 c-9 -51 4 -120 27 -141 15 -14 19 -26 15 -49 -8 -45 7 -99 28 -103 21 -5 21 1 -13 168 -31 154 -33 160 -42 160 -4 0 -11 -16 -15 -35z"/>
<path d="M13283 8078 c12 -103 20 -148 27 -148 11 0 22 125 14 157 -7 27 -20 43 -38 43 -5 0 -6 -24 -3 -52z"/>
<path d="M11877 7969 c-7 -88 1 -169 19 -169 9 0 11 18 9 68 -2 37 -4 91 -4 120 -1 76 -17 64 -24 -19z"/>
<path d="M13316 7875 c-7 -19 3 -73 15 -81 5 -3 9 -16 9 -29 0 -13 5 -27 10 -30 6 -3 10 -23 10 -44 0 -23 6 -44 16 -52 8 -7 22 -26 31 -43 9 -17 22 -35 29 -39 8 -4 14 -18 14 -31 0 -12 7 -31 15 -42 13 -18 14 -16 15 27 0 29 -6 51 -14 58 -8 7 -18 25 -21 41 -3 16 -12 31 -20 33 -7 3 -16 21 -20 39 -4 18 -16 38 -25 45 -14 10 -17 27 -17 78 1 48 -3 69 -14 76 -20 12 -26 11 -33 -6z"/>
<path d="M3475 7839 c-10 -45 3 -114 26 -135 14 -13 18 -26 14 -48 -7 -46 8 -100 29 -104 17 -4 18 1 13 39 -16 117 -56 279 -68 279 -4 0 -10 -14 -14 -31z"/>
<path d="M11955 7475 c-11 -142 -4 -221 23 -247 38 -38 39 -28 22 147 -15 155 -21 195 -30 195 -5 0 -11 -43 -15 -95z"/>
<path d="M16416 7498 c-4 -35 -10 -120 -14 -190 -6 -99 -11 -130 -25 -145 -18 -20 -25 -103 -8 -103 5 0 17 17 26 38 10 20 23 44 31 52 26 30 30 410 4 410 -4 0 -10 -28 -14 -62z"/>
<path d="M3555 7471 c-8 -50 3 -109 24 -120 13 -8 16 -26 16 -94 0 -64 4 -89 16 -103 9 -11 19 -47 23 -83 4 -40 13 -72 23 -84 14 -14 18 -37 18 -97 0 -57 4 -83 16 -96 9 -11 19 -47 23 -84 4 -44 12 -69 23 -78 14 -10 18 -29 18 -96 0 -63 4 -89 16 -102 10 -11 20 -47 24 -87 5 -51 11 -70 26 -77 16 -9 19 -22 19 -79 0 -65 7 -81 36 -81 9 0 3 58 -12 105 -8 28 -17 66 -20 85 -2 19 -9 49 -14 65 -5 17 -19 77 -30 135 -12 58 -26 110 -32 117 -5 7 -7 16 -5 20 6 9 0 42 -32 178 -12 50 -30 134 -41 189 -11 54 -22 101 -24 105 -4 6 -16 60 -58 261 -28 136 -29 140 -38 140 -5 0 -11 -17 -15 -39z"/>
<path d="M13480 7353 c0 -23 22 -83 31 -83 12 0 19 31 12 58 -9 39 -43 59 -43 25z"/>
<path d="M13534 7224 c3 -9 6 -24 6 -35 0 -10 5 -19 10 -19 6 0 10 16 10 35 0 25 -4 35 -16 35 -11 0 -14 -5 -10 -16z"/>
<path d="M12013 7159 c8 -13 17 -53 21 -88 3 -36 12 -72 20 -80 8 -9 17 -46 21 -84 7 -60 10 -68 32 -73 41 -11 49 9 26 63 -25 57 -53 177 -53 226 0 28 -4 36 -24 41 -13 3 -32 9 -41 13 -16 6 -16 4 -2 -18z"/>
<path d="M13637 7162 c-19 -4 -19 -9 11 -94 9 -27 19 -48 23 -48 11 0 21 77 14 109 -7 31 -19 40 -48 33z"/>
<path d="M14914 7125 c-3 -19 -10 -38 -15 -41 -15 -9 -70 -134 -64 -144 10 -16 18 -11 54 31 20 24 39 63 48 97 8 31 19 61 24 67 16 16 10 25 -16 25 -20 0 -25 -6 -31 -35z"/>
<path d="M16337 6988 c-4 -24 -10 -73 -16 -110 -5 -37 -16 -91 -24 -120 -9 -29 -23 -84 -32 -121 -10 -37 -28 -84 -41 -103 -13 -19 -24 -39 -24 -44 0 -26 -102 -313 -129 -362 -17 -31 -31 -69 -31 -85 0 -16 -4 -33 -8 -38 -4 -6 -14 -28 -21 -50 -18 -53 -106 -209 -137 -242 -13 -14 -36 -50 -51 -81 -16 -30 -45 -74 -67 -99 -27 -31 -36 -47 -28 -55 13 -13 72 -1 72 15 0 7 22 58 50 114 43 89 53 102 80 108 16 4 30 11 30 17 0 16 50 120 67 140 9 10 15 39 15 75 1 35 8 68 18 83 9 14 31 55 49 92 17 37 36 70 40 73 5 2 12 26 16 52 3 27 13 57 20 69 7 12 17 38 21 60 7 40 48 129 63 139 5 3 12 27 16 55 4 27 13 54 20 60 8 6 17 41 20 78 4 37 13 74 20 82 18 22 26 91 19 170 -8 79 -19 90 -27 28z"/>
<path d="M13718 7002 c-20 -4 -24 -17 -8 -27 6 -3 10 -17 10 -31 0 -19 5 -24 23 -24 13 0 32 -9 42 -20 10 -11 15 -20 11 -20 -4 0 -2 -9 4 -20 6 -11 20 -20 32 -20 18 0 20 4 14 31 -3 17 -6 35 -6 40 0 4 -14 9 -32 11 -28 3 -34 8 -41 40 -9 38 -20 47 -49 40z"/>
<path d="M14757 6890 c-4 -16 -23 -47 -43 -70 -38 -41 -31 -52 19 -29 30 14 47 48 47 94 0 43 -15 46 -23 5z"/>
<path d="M13870 6833 c1 -21 66 -76 113 -97 30 -13 57 -31 60 -40 4 -9 16 -16 28 -16 19 0 21 4 16 36 -3 20 -8 39 -11 41 -3 3 -27 8 -53 10 -38 4 -54 12 -79 39 -27 30 -75 47 -74 27z"/>
<path d="M12158 6763 c-4 -57 9 -92 35 -93 11 0 9 39 -5 77 -13 36 -27 43 -30 16z"/>
<path d="M14519 6763 c-32 -4 -38 -8 -43 -35 -3 -16 -3 -34 0 -39 10 -16 43 -9 54 11 6 12 30 25 55 32 45 12 60 28 28 28 -10 0 -27 2 -38 4 -11 2 -36 1 -56 -1z"/>
<path d="M12232 6523 c-9 -4 -6 -14 14 -40 14 -19 29 -53 32 -76 5 -39 16 -56 35 -57 12 0 7 53 -11 105 -27 76 -33 83 -70 68z"/>
<path d="M12320 6256 c0 -34 5 -58 14 -65 8 -7 18 -26 21 -42 6 -25 11 -29 41 -29 19 0 34 2 34 3 0 2 -11 24 -25 48 -14 24 -30 55 -36 69 -29 63 -33 70 -41 70 -4 0 -8 -24 -8 -54z"/>
<path d="M12440 6066 c0 -13 7 -26 15 -30 16 -6 18 -2 9 32 -8 29 -24 28 -24 -2z"/>
<path d="M3876 6036 c-9 -57 1 -114 23 -125 13 -8 16 -26 16 -94 0 -68 4 -89 18 -105 13 -14 20 -41 22 -84 3 -45 9 -67 22 -76 15 -11 18 -28 18 -96 0 -68 4 -88 19 -105 13 -15 20 -39 22 -83 2 -46 8 -66 21 -76 15 -11 18 -28 18 -95 0 -70 3 -87 23 -111 12 -16 22 -37 22 -47 0 -12 7 -19 20 -19 21 0 26 10 11 25 -8 9 -22 64 -49 195 -2 14 -9 30 -14 37 -5 7 -7 16 -4 21 3 5 -5 53 -18 108 -13 54 -29 126 -37 159 -7 33 -16 65 -22 72 -5 7 -6 16 -3 21 3 5 -6 55 -19 113 -14 57 -29 124 -34 149 -34 159 -55 246 -61 253 -4 5 -11 -12 -14 -37z"/>
<path d="M12480 5941 c0 -33 5 -63 10 -66 12 -8 70 -126 70 -143 0 -7 12 -12 26 -12 29 0 28 13 -7 82 -11 21 -19 45 -19 55 0 10 -9 24 -20 31 -11 7 -20 20 -20 29 0 24 -23 83 -32 83 -4 0 -8 -27 -8 -59z"/>
<path d="M12640 5673 c0 -5 18 -44 40 -87 22 -44 40 -86 40 -93 0 -9 15 -13 45 -13 25 0 45 3 45 8 0 4 -21 29 -45 55 -25 26 -45 53 -45 60 0 7 -15 27 -33 45 -32 32 -47 39 -47 25z"/>
<path d="M15666 5461 c-4 -7 -5 -15 -2 -18 9 -9 19 4 14 18 -4 11 -6 11 -12 0z"/>
<path d="M15599 5365 c-12 -19 -33 -40 -47 -47 -34 -16 -42 -78 -11 -78 13 0 19 7 19 23 0 26 21 59 35 57 27 -6 43 2 49 24 3 13 9 31 12 40 4 12 0 16 -15 16 -14 0 -29 -12 -42 -35z"/>
<path d="M12874 5374 c3 -9 6 -24 6 -35 0 -12 10 -21 32 -27 25 -6 35 -16 42 -40 13 -47 45 -44 42 3 -2 20 -5 37 -7 38 -58 42 -110 77 -115 77 -3 0 -3 -7 0 -16z"/>
<path d="M13030 5216 c0 -38 10 -56 31 -56 19 0 20 15 3 68 -7 23 -34 13 -34 -12z"/>
<path d="M15430 5194 c-37 -31 -28 -49 19 -39 26 5 31 11 31 36 0 36 -10 36 -50 3z"/>
<path d="M6172 5161 c-27 -17 -11 -101 18 -101 13 0 22 54 14 84 -7 28 -11 30 -32 17z"/>
<path d="M13110 5143 c1 -50 11 -63 51 -63 22 0 39 2 39 4 0 2 -15 20 -33 40 -36 39 -57 46 -57 19z"/>
<path d="M15376 5105 l-16 -25 20 0 c15 0 20 7 20 25 0 14 -2 25 -4 25 -2 0 -11 -11 -20 -25z"/>
<path d="M13233 5044 c7 -45 8 -45 46 -46 43 -1 45 4 19 45 -16 25 -31 36 -47 37 -22 0 -23 -3 -18 -36z"/>
<path d="M15251 5048 c-37 -40 -38 -48 -7 -48 23 0 96 55 96 72 0 4 -13 8 -29 8 -21 0 -39 -10 -60 -32z"/>
<path d="M10892 5008 c-6 -13 -12 -32 -14 -43 -2 -13 -12 -21 -28 -23 -52 -7 -43 -22 12 -22 l56 0 7 29 c6 30 -2 81 -14 81 -4 0 -13 -10 -19 -22z"/>
<path d="M1966 4968 c-14 -33 -15 -43 -4 -49 19 -13 32 -5 38 22 7 28 1 69 -10 69 -4 0 -15 -19 -24 -42z"/>
<path d="M11754 4968 l-10 -33 -69 -9 c-42 -6 -75 -16 -82 -25 -12 -14 -14 -14 -27 2 -8 10 -27 17 -46 17 -19 0 -38 -7 -46 -17 l-14 -18 -14 18 c-20 25 -46 22 -46 -7 0 -35 -16 -43 -104 -50 -49 -4 -86 -12 -96 -21 -9 -8 -37 -18 -63 -21 -26 -4 -54 -15 -63 -25 -26 -29 -85 -25 -112 6 -13 14 -33 25 -47 25 -14 0 -28 7 -31 15 -4 8 -15 15 -25 15 -14 0 -19 -7 -19 -29 0 -45 -18 -47 -54 -5 -25 29 -40 37 -65 37 -20 0 -37 -6 -42 -15 -13 -23 -147 -25 -155 -3 -8 19 -40 19 -48 0 -7 -20 -62 -20 -74 1 -12 22 -69 21 -87 -2 l-14 -19 -21 23 c-26 28 -54 28 -79 0 -21 -22 -26 -19 -33 27 -4 25 -52 43 -76 29 -9 -6 -18 -20 -20 -30 -7 -44 -12 -45 -50 -5 -42 44 -65 50 -100 25 -20 -14 -24 -14 -44 0 -30 21 -55 20 -75 -3 l-16 -20 -25 20 c-31 24 -58 24 -79 0 -21 -25 -33 -18 -33 19 0 25 -15 40 -41 40 -5 0 -9 -19 -9 -43 0 -76 -2 -77 -204 -82 -163 -4 -181 -6 -200 -25 -20 -18 -35 -20 -129 -20 -58 0 -108 -4 -111 -8 -2 -4 -1 -14 4 -22 8 -13 409 -15 3082 -18 1690 -2 3110 0 3156 3 72 6 82 9 82 26 0 14 -7 19 -26 19 -17 0 -39 14 -66 42 -37 39 -44 42 -106 47 -60 5 -67 8 -70 29 -4 30 -28 39 -50 19 -33 -29 -67 -40 -140 -47 -58 -6 -76 -12 -88 -28 -12 -18 -28 -21 -112 -26 -385 -23 -674 -14 -737 23 -19 11 -62 22 -97 26 -211 19 -245 26 -266 54 -11 14 -37 35 -58 46 -22 10 -50 27 -63 37 -39 30 -55 24 -48 -18 8 -46 9 -47 65 -54 59 -6 66 -30 23 -77 -35 -38 -44 -40 -71 -13 -24 24 -33 25 -50 5 -9 -10 -32 -15 -75 -15 -43 0 -66 5 -75 15 -17 20 -40 19 -56 -2 -12 -17 -15 -15 -43 18 -20 24 -42 39 -66 43 -19 4 -39 14 -44 24 -8 15 -27 17 -140 17 -116 0 -132 -2 -144 -19 -15 -21 -21 -16 -31 26 -5 21 -14 29 -42 34 -20 4 -38 13 -41 20 -7 18 -27 18 -43 -1 -7 -8 -26 -15 -42 -15 -16 0 -31 6 -34 15 -9 23 -25 18 -67 -22 l-38 -38 -15 20 c-13 18 -29 20 -139 24 -91 2 -127 7 -136 17 -16 19 -39 18 -55 -3 l-14 -18 -14 18 c-16 21 -42 22 -50 2 -4 -10 -19 -15 -49 -15 -27 0 -49 6 -57 15 -21 26 -46 18 -56 -17z m1751 -168 c-5 -8 -11 -8 -17 -2 -6 6 -7 16 -3 22 5 8 11 8 17 2 6 -6 7 -16 3 -22z"/>
<path d="M15130 4970 c-6 -11 -22 -23 -35 -26 -14 -3 -25 -10 -25 -14 0 -12 41 -20 67 -14 18 5 23 13 23 40 0 38 -14 44 -30 14z"/>
<path d="M3210 4883 c-19 -3 -42 -10 -50 -18 -9 -7 -55 -15 -117 -18 -84 -4 -107 -9 -129 -26 -15 -12 -36 -21 -47 -21 -11 0 -26 -8 -33 -17 l-14 -18 -14 18 c-24 31 -46 21 -46 -22 l0 -38 83 -6 c110 -9 745 -7 777 2 41 12 32 63 -21 117 -47 48 -65 53 -85 27 l-14 -18 -14 18 c-10 12 -28 17 -66 17 -38 0 -56 -5 -66 -17 -13 -17 -15 -17 -27 -1 -15 18 -65 28 -117 21z"/>
<path d="M10597 4866 c-7 -18 11 -36 29 -29 21 8 17 43 -5 43 -10 0 -21 -6 -24 -14z"/>
<path d="M1360 4780 c0 -13 7 -20 20 -20 13 0 20 7 20 20 0 13 -7 20 -20 20 -13 0 -20 -7 -20 -20z"/>
<path d="M1440 4760 l0 -40 60 0 60 0 0 40 c0 44 -12 50 -43 23 -18 -17 -19 -17 -32 0 -23 32 -45 21 -45 -23z"/>
<path d="M1676 4776 c-11 -45 1 -56 63 -56 32 0 60 3 64 6 13 13 -7 34 -33 34 -15 0 -35 9 -45 20 -24 27 -42 25 -49 -4z"/>
<path d="M1240 4740 c0 -13 7 -20 20 -20 13 0 20 7 20 20 0 13 -7 20 -20 20 -13 0 -20 -7 -20 -20z"/>
<path d="M1600 4740 c0 -13 7 -20 20 -20 13 0 20 7 20 20 0 13 -7 20 -20 20 -13 0 -20 -7 -20 -20z"/>
<path d="M1840 4740 c0 -17 7 -20 40 -20 33 0 40 3 40 20 0 17 -7 20 -40 20 -33 0 -40 -3 -40 -20z"/>
<path d="M1960 4740 c0 -13 7 -20 20 -20 13 0 20 7 20 20 0 13 -7 20 -20 20 -13 0 -20 -7 -20 -20z"/>
<path d="M8315 4750 c-13 -22 10 -30 84 -30 82 0 93 3 84 26 -6 17 -158 20 -168 4z"/>
<path d="M8515 4750 c-14 -22 10 -30 86 -30 72 0 79 2 79 20 0 18 -7 20 -79 20 -44 0 -83 -4 -86 -10z"/>
<path d="M8720 4740 c0 -13 7 -20 20 -20 13 0 20 7 20 20 0 13 -7 20 -20 20 -13 0 -20 -7 -20 -20z"/>
<path d="M8840 4740 c0 -13 7 -20 20 -20 13 0 20 7 20 20 0 13 -7 20 -20 20 -13 0 -20 -7 -20 -20z"/>
<path d="M16040 4500 c0 -13 7 -20 20 -20 13 0 20 7 20 20 0 13 -7 20 -20 20 -13 0 -20 -7 -20 -20z"/>
<path d="M15956 4416 c-16 -65 44 -86 96 -34 10 10 29 18 43 18 18 0 25 5 25 20 0 18 -7 20 -79 20 l-79 0 -6 -24z"/>
<path d="M15725 4283 c-16 -3 -38 -12 -48 -20 -15 -15 -706 -16 -7476 -17 -7081 -1 -7460 -2 -7478 -18 -11 -10 -40 -21 -66 -24 -26 -4 -52 -13 -58 -20 -8 -9 -35 -14 -83 -15 -93 0 -136 -9 -168 -35 -39 -30 -45 -67 -17 -93 l23 -21 -35 -33 c-20 -19 -39 -42 -42 -52 -4 -9 -7 -574 -6 -1254 1 -1564 0 -1504 20 -1527 9 -11 19 -38 23 -62 5 -31 17 -54 41 -79 19 -20 35 -41 36 -47 4 -80 13 -96 56 -96 12 0 26 -6 30 -14 4 -7 21 -17 38 -23 20 -7 31 -18 37 -40 10 -38 26 -43 145 -43 76 0 94 -3 101 -17 8 -13 29 -17 98 -21 67 -4 95 -9 113 -24 26 -20 58 -16 77 10 9 12 926 14 7457 16 6884 1 7447 2 7459 17 7 10 33 19 61 22 43 4 55 11 103 61 30 31 67 59 82 62 15 4 34 12 42 19 8 7 27 15 41 19 27 6 39 29 39 73 0 24 74 177 99 207 14 16 16 135 17 1224 1 1086 3 1206 17 1217 9 6 19 34 23 64 4 30 13 55 20 58 27 10 15 40 -17 47 -39 8 -115 82 -125 121 -4 17 -13 35 -19 40 -7 6 -15 32 -19 59 -7 59 -34 91 -82 100 -18 4 -37 13 -42 22 -5 8 -30 17 -61 21 -29 3 -55 12 -58 19 -2 6 -20 15 -38 18 -19 4 -38 13 -43 21 -4 8 -30 18 -57 21 -28 4 -56 14 -63 23 -10 12 -32 16 -90 17 -42 1 -90 0 -107 -3z m375 -146 c173 -87 205 -111 214 -166 3 -24 20 -54 44 -82 22 -24 50 -64 63 -89 l23 -45 -3 -1202 c-2 -661 -5 -1226 -6 -1256 -3 -52 -33 -126 -75 -187 -9 -14 -25 -48 -34 -76 -13 -41 -26 -58 -64 -84 -26 -19 -69 -54 -97 -79 -48 -44 -68 -53 -200 -91 -30 -8 -1985 -10 -7575 -7 l-7535 3 -80 22 c-44 12 -91 22 -105 22 -31 0 -132 72 -178 126 -116 137 -151 202 -172 314 -4 25 -6 610 -5 1301 3 1166 4 1259 20 1289 10 19 60 81 112 139 74 83 104 109 136 120 23 7 80 32 127 55 l85 41 7430 5 c4087 3 7495 5 7575 4 l145 0 155 -77z"/>
<path d="M8815 3865 c-87 -37 -165 -119 -165 -173 0 -10 -15 -48 -34 -83 -28 -53 -35 -82 -45 -169 -6 -58 -14 -125 -16 -149 -7 -59 13 -277 30 -326 7 -22 25 -80 40 -130 35 -112 77 -195 160 -310 35 -49 64 -94 65 -100 0 -5 25 -60 56 -122 l56 -112 18 -141 c21 -156 16 -224 -17 -268 -33 -44 -63 -36 -93 23 -22 44 -26 67 -30 184 l-5 134 -27 20 -26 20 -48 -17 c-26 -9 -60 -16 -76 -16 -37 0 -84 -24 -98 -51 -17 -30 7 -212 43 -334 8 -27 27 -95 42 -150 32 -118 53 -155 103 -186 20 -13 51 -31 67 -41 72 -44 91 -49 133 -34 57 21 106 47 115 62 4 8 13 14 20 14 20 0 66 49 83 88 30 70 47 212 51 437 5 222 -3 329 -33 450 -9 33 -22 88 -29 122 -13 57 -60 145 -106 198 -10 11 -39 63 -66 115 -26 52 -60 111 -74 130 -42 56 -70 175 -76 327 l-6 133 41 40 c34 34 44 40 60 31 31 -16 41 -58 44 -184 4 -148 7 -152 117 -143 140 11 156 42 133 251 -24 209 -59 335 -108 386 -39 41 -137 89 -191 95 -37 3 -62 -2 -108 -21z m228 -99 c62 -66 77 -91 77 -136 0 -15 6 -30 14 -33 11 -5 15 -35 18 -135 2 -107 6 -133 21 -149 43 -48 2 -99 -83 -104 -30 -2 -61 0 -67 4 -19 12 -16 54 4 66 15 8 18 24 18 100 0 86 -2 92 -28 118 -25 25 -34 28 -94 27 l-67 -2 -53 -55 c-58 -60 -63 -77 -34 -104 18 -17 20 -35 22 -203 1 -129 -2 -185 -10 -188 -6 -2 -14 3 -17 12 -9 23 -41 20 -47 -4 -11 -41 3 -60 43 -60 24 0 40 5 44 15 3 8 17 15 31 15 19 0 28 -7 35 -27 6 -16 14 -35 19 -43 17 -26 71 -138 71 -146 0 -5 16 -25 36 -45 24 -25 37 -47 38 -70 2 -19 4 -39 5 -46 0 -7 16 -16 34 -21 l32 -8 6 -88 c5 -67 10 -91 23 -98 14 -8 16 -48 16 -398 0 -340 -2 -390 -15 -398 -11 -5 -17 -27 -20 -63 l-3 -54 -54 -3 c-33 -2 -56 -9 -61 -18 -4 -8 -19 -14 -32 -14 -13 0 -33 -10 -45 -22 l-20 -22 -34 36 c-19 20 -47 39 -64 43 -44 9 -69 43 -77 102 -4 28 -12 54 -20 56 -7 3 -16 30 -19 60 -4 31 -13 58 -20 60 -8 3 -17 30 -20 60 -5 35 -13 57 -22 61 -12 5 -14 26 -12 113 l3 108 83 3 c62 2 84 -1 87 -11 3 -7 7 -65 8 -129 2 -90 6 -120 18 -134 9 -11 19 -38 22 -62 3 -24 8 -46 11 -49 13 -13 67 -5 86 12 18 16 20 16 26 1 10 -26 41 -19 49 12 3 15 14 35 23 46 15 16 17 46 17 226 0 180 -2 210 -17 226 -9 11 -19 31 -23 46 -4 15 -13 29 -20 31 -7 3 -15 21 -19 40 -4 19 -13 40 -20 46 -8 7 -17 24 -21 39 -4 15 -12 34 -20 42 -7 8 -16 25 -20 38 -3 12 -30 47 -59 77 -43 44 -54 63 -59 98 -4 30 -17 55 -41 81 -24 27 -36 51 -41 84 -4 26 -13 54 -20 62 -7 8 -15 35 -18 59 -3 25 -12 48 -21 53 -14 8 -16 40 -16 239 0 185 3 231 14 235 7 3 16 26 20 51 3 26 13 54 20 62 8 9 18 38 23 66 7 44 12 50 40 58 22 7 33 17 38 35 13 52 43 77 98 82 100 10 117 4 180 -64z"/>
<path d="M8880 3760 c0 -33 3 -40 20 -40 17 0 20 7 20 40 0 33 -3 40 -20 40 -17 0 -20 -7 -20 -40z"/>
<path d="M9631 3880 c-72 -31 -93 -46 -129 -94 -59 -80 -108 -183 -120 -256 -51 -308 -54 -368 -48 -970 4 -423 9 -570 21 -655 9 -60 18 -139 21 -175 9 -126 134 -328 229 -371 78 -36 189 -20 248 36 19 18 41 37 50 41 31 18 78 105 97 181 35 134 51 279 57 523 7 272 10 261 -87 268 -87 6 -123 -3 -143 -37 -15 -25 -17 -61 -17 -280 l0 -250 -32 -37 c-82 -93 -139 -57 -172 108 -12 61 -14 185 -12 748 l3 675 22 55 c12 30 28 61 36 69 20 20 96 16 113 -6 38 -49 42 -79 42 -303 0 -301 4 -309 148 -297 105 8 104 5 99 271 -7 411 -40 556 -153 668 -26 27 -67 57 -91 69 -49 24 -146 34 -182 19z m212 -114 c65 -69 101 -133 112 -197 4 -24 13 -48 21 -54 9 -7 13 -49 16 -139 3 -120 4 -130 26 -144 21 -14 22 -21 22 -132 0 -94 -3 -120 -16 -130 -8 -8 -22 -29 -29 -47 -14 -32 -17 -34 -57 -31 -37 3 -44 7 -53 33 -5 17 -15 35 -22 40 -9 7 -13 79 -15 257 l-3 248 -28 27 c-25 25 -33 28 -93 26 -62 -2 -68 -4 -114 -45 -29 -26 -50 -55 -54 -73 -4 -16 -6 -382 -4 -812 l3 -782 44 -45 c24 -24 55 -47 70 -51 14 -4 33 -13 41 -20 20 -18 62 -27 78 -17 7 5 16 31 20 57 6 44 10 50 39 57 22 6 35 16 39 32 3 13 4 109 2 214 -3 164 -5 193 -20 209 -23 25 -23 44 2 76 18 23 27 25 90 26 84 1 96 -12 55 -60 -30 -36 -28 -69 6 -105 25 -26 24 -38 -3 -56 l-23 -15 -3 -169 c-2 -139 -6 -171 -19 -181 -10 -8 -17 -35 -20 -80 -3 -42 -11 -72 -19 -79 -8 -7 -17 -35 -21 -63 -5 -41 -12 -57 -35 -76 -16 -14 -40 -25 -53 -25 -12 0 -25 -7 -29 -15 -8 -22 -181 -22 -194 0 -4 9 -21 19 -37 24 -26 6 -31 14 -38 54 -5 35 -17 56 -41 80 l-34 32 -4 107 c-3 85 -7 110 -20 120 -14 11 -17 37 -20 159 -2 105 -7 151 -17 162 -11 14 -11 20 -1 32 8 9 13 44 13 87 0 55 -4 73 -17 80 -14 8 -16 47 -16 398 0 337 2 390 15 397 12 7 17 38 21 138 5 90 10 133 20 141 7 6 16 42 20 80 3 38 12 74 20 80 7 6 17 32 21 59 7 44 12 50 40 58 24 7 33 16 37 42 12 64 62 86 171 77 46 -4 55 -10 108 -66z"/>
<path d="M9925 2316 c-21 -15 -12 -36 15 -36 22 0 33 25 16 39 -9 8 -18 7 -31 -3z"/>
<path d="M11298 3869 c-45 -16 -66 -32 -103 -75 -26 -30 -56 -77 -66 -105 -11 -28 -34 -78 -51 -112 -19 -38 -35 -89 -41 -132 -14 -107 -20 -1277 -8 -1502 12 -210 17 -234 86 -378 91 -190 194 -251 366 -214 62 13 116 63 190 177 38 58 49 84 54 130 3 31 12 86 20 122 28 133 38 418 32 950 -6 516 -11 613 -44 790 -31 173 -100 282 -215 339 -73 37 -134 40 -220 10z m212 -74 c4 -23 12 -31 41 -40 46 -13 64 -28 80 -68 7 -18 18 -39 25 -47 7 -9 13 -58 16 -123 3 -90 7 -110 21 -118 16 -9 17 -62 17 -779 0 -719 -1 -770 -17 -779 -15 -8 -18 -28 -21 -120 l-4 -111 -34 -30 c-27 -24 -36 -40 -42 -81 -6 -49 -9 -52 -35 -53 -16 -1 -33 -9 -38 -17 -7 -13 -30 -17 -116 -18 l-109 -1 -41 43 c-23 24 -45 57 -49 73 -4 16 -12 36 -20 44 -7 8 -15 27 -19 42 -4 15 -13 29 -19 31 -7 3 -16 20 -20 38 -3 17 -13 37 -22 44 -15 11 -17 86 -16 875 0 733 3 866 15 875 7 5 17 30 21 55 4 24 12 50 19 58 7 8 17 38 22 65 9 45 14 52 42 60 24 7 32 16 37 40 4 17 16 42 28 54 21 22 28 23 127 21 l106 -3 5 -30z"/>
<path d="M11400 3780 c0 -17 7 -20 40 -20 33 0 40 3 40 20 0 17 -7 20 -40 20 -33 0 -40 -3 -40 -20z"/>
<path d="M11369 3521 c-24 -4 -54 -22 -85 -51 l-49 -45 0 -805 0 -806 37 -38 c20 -21 40 -51 43 -66 4 -16 14 -32 24 -35 20 -6 66 8 75 24 3 5 19 12 34 16 16 3 49 26 73 51 l44 45 0 788 c0 715 -2 791 -16 807 -9 11 -20 29 -24 42 -18 59 -77 87 -156 73z m69 -57 c12 -8 35 -39 50 -67 l27 -52 3 -690 3 -690 -22 -87 c-23 -95 -39 -116 -91 -125 -33 -5 -38 -2 -71 42 -20 26 -40 64 -44 84 -5 20 -8 358 -8 751 l0 715 23 50 c36 79 81 103 130 69z"/>
<path d="M11442 1458 c2 -13 10 -23 18 -23 8 0 16 10 18 23 3 17 -2 22 -18 22 -16 0 -21 -5 -18 -22z"/>
<path d="M14422 3879 c-29 -6 -76 -34 -122 -72 -35 -29 -53 -59 -61 -104 -5 -26 -23 -76 -39 -109 -16 -35 -34 -94 -40 -135 -6 -41 -18 -94 -26 -118 -12 -37 -14 -159 -14 -729 0 -640 1 -689 19 -765 11 -45 22 -100 26 -121 4 -22 21 -69 39 -105 18 -36 39 -88 46 -114 8 -31 23 -55 42 -70 16 -12 45 -35 65 -52 30 -25 46 -30 105 -33 72 -4 118 10 160 50 10 10 22 18 27 18 5 0 16 17 26 38 9 20 30 64 47 97 57 114 67 203 74 611 6 366 1 468 -29 549 -16 44 -124 203 -146 214 -12 7 -43 7 -92 0 -41 -5 -87 -11 -104 -12 l-30 -2 -3 125 c-5 199 6 324 32 362 52 77 106 19 125 -135 16 -123 20 -127 136 -127 75 0 94 3 99 16 10 25 6 244 -5 294 -5 25 -13 72 -18 105 -5 39 -25 93 -54 150 -48 97 -78 135 -123 158 -35 17 -117 26 -162 16z m70 -55 c4 -3 0 -17 -8 -32 -24 -47 0 -87 46 -76 45 10 54 51 18 83 -19 18 -19 21 -5 27 24 9 47 -2 47 -24 0 -10 18 -38 40 -63 28 -32 41 -56 46 -89 4 -25 13 -49 19 -55 7 -5 15 -41 19 -79 3 -42 11 -73 20 -80 15 -11 20 -56 17 -158 -1 -69 -13 -78 -86 -69 l-50 6 -7 89 c-5 66 -11 92 -22 98 -9 5 -16 19 -16 31 0 44 -15 52 -85 50 -50 -2 -72 -7 -93 -23 -35 -28 -40 -46 -41 -157 -1 -77 -4 -94 -18 -102 -16 -8 -18 -26 -18 -139 0 -110 3 -133 18 -149 9 -11 17 -27 17 -36 0 -8 7 -23 16 -32 19 -19 64 -12 77 11 6 10 30 14 93 14 l84 0 10 -26 c6 -14 26 -46 46 -70 24 -29 38 -57 42 -86 3 -24 11 -48 19 -53 11 -8 14 -82 13 -415 0 -360 -2 -406 -16 -417 -11 -8 -18 -34 -22 -80 -3 -44 -11 -76 -23 -92 -11 -13 -19 -28 -19 -34 0 -6 -6 -18 -14 -26 -8 -9 -18 -38 -23 -65 -7 -43 -12 -51 -38 -59 -17 -6 -34 -16 -38 -23 -12 -20 -146 -19 -153 1 -3 8 -21 17 -39 21 -52 9 -72 39 -78 115 -4 60 -8 70 -40 100 l-35 34 -4 109 c-4 87 -8 110 -21 118 -16 8 -17 67 -17 698 0 591 2 690 14 697 11 6 17 36 22 101 4 58 12 96 20 103 8 6 14 17 14 24 0 7 8 23 19 36 10 13 22 44 26 68 12 72 50 138 84 146 16 3 32 13 35 21 5 14 76 21 88 8z"/>
<path d="M14401 2546 c-28 -30 -51 -60 -51 -67 0 -7 -8 -21 -17 -32 -16 -17 -18 -43 -18 -227 0 -178 2 -211 16 -226 12 -13 18 -45 21 -102 4 -74 8 -86 32 -110 22 -23 34 -27 77 -25 28 0 58 8 67 16 9 8 29 17 43 21 32 7 39 28 39 123 0 58 3 74 18 82 15 9 17 28 17 180 0 145 -2 172 -16 183 -11 9 -19 36 -22 81 -6 65 -9 70 -52 113 -63 61 -87 60 -154 -10z m128 -65 c44 -68 53 -155 41 -384 -11 -217 -22 -263 -69 -288 -42 -22 -57 -16 -84 35 -21 39 -22 56 -25 328 l-4 286 42 46 c49 52 51 52 99 -23z"/>
<path d="M2445 3863 c-55 -28 -142 -123 -169 -183 -15 -32 -33 -100 -41 -151 -8 -52 -22 -128 -32 -169 -16 -68 -18 -135 -18 -735 0 -603 2 -668 18 -750 11 -49 24 -136 31 -192 12 -95 15 -106 58 -170 25 -37 55 -77 67 -87 12 -11 21 -25 21 -31 0 -18 96 -55 141 -55 32 0 42 6 65 35 14 19 34 35 44 35 10 0 32 11 49 25 l30 26 17 -26 c9 -14 23 -25 30 -25 8 0 17 -6 20 -13 7 -18 91 -20 97 -3 3 7 18 16 34 19 l29 6 -3 603 -3 603 -23 17 c-18 14 -48 17 -172 19 -82 0 -156 1 -163 0 -7 0 -21 -16 -32 -33 -16 -27 -20 -51 -20 -136 0 -148 12 -172 94 -184 10 -2 28 -15 40 -31 22 -30 22 -29 18 -275 l-2 -153 -46 -49 c-30 -32 -55 -50 -70 -50 -29 0 -91 71 -104 121 -7 25 -10 300 -8 771 l3 734 36 49 c42 59 72 67 124 35 61 -38 65 -56 65 -280 0 -248 -4 -240 128 -240 126 0 122 -7 122 219 0 130 -4 198 -15 234 -8 29 -19 90 -25 136 -18 132 -48 195 -129 268 -38 35 -81 67 -96 73 -41 16 -175 12 -210 -7z m88 -40 c4 -3 0 -14 -9 -24 -11 -12 -14 -27 -9 -48 9 -41 46 -52 83 -24 39 29 49 50 35 73 -9 13 -9 21 -2 25 17 11 39 -3 39 -24 0 -29 41 -72 81 -85 30 -10 35 -16 43 -61 5 -27 15 -55 23 -60 11 -8 15 -39 16 -117 2 -89 5 -109 20 -120 15 -11 17 -33 19 -169 3 -188 1 -192 -76 -183 -28 4 -55 10 -59 14 -4 3 -9 96 -10 206 l-2 200 -48 49 -47 50 -66 -2 c-62 -2 -68 -4 -114 -45 -37 -33 -49 -52 -54 -83 -4 -22 -6 -387 -4 -812 l3 -772 44 -45 c24 -24 55 -47 68 -51 14 -3 38 -15 53 -27 39 -29 75 -19 84 23 4 19 21 45 43 64 l38 32 0 232 c0 205 -2 233 -16 242 -9 5 -20 24 -23 43 -7 36 -11 38 -96 49 -12 2 -16 20 -18 85 -3 75 -1 86 20 107 l23 25 122 0 c77 0 124 -4 128 -11 8 -12 7 -1107 0 -1119 -3 -4 -21 -10 -41 -12 -38 -4 -64 18 -64 54 0 13 -8 18 -31 18 -23 0 -44 -11 -75 -40 -26 -24 -53 -40 -68 -40 -13 0 -26 -7 -30 -15 -3 -10 -19 -15 -45 -15 -40 0 -61 13 -41 25 13 8 13 45 0 45 -6 0 -24 -10 -40 -22 -38 -27 -55 -14 -65 48 -5 33 -15 54 -40 77 l-33 32 -4 107 c-3 84 -7 110 -20 120 -11 10 -17 36 -21 99 -4 71 -9 91 -26 108 l-21 21 0 390 0 390 20 20 c15 15 20 33 20 73 0 41 -5 58 -20 72 -26 23 -26 63 0 90 17 18 21 40 26 151 5 91 10 132 20 140 9 7 16 44 20 100 4 55 11 93 20 100 7 6 17 32 21 59 7 44 12 50 40 57 22 6 33 16 37 34 4 14 17 39 28 55 17 23 30 29 58 29 20 0 40 -3 43 -7z"/>
<path d="M6800 3856 c-65 -44 -119 -116 -140 -186 -38 -129 -65 -301 -81 -519 -10 -153 -7 -1160 5 -1179 3 -6 11 -62 17 -124 18 -193 68 -358 131 -427 61 -67 86 -81 142 -81 38 0 59 7 88 26 21 15 38 30 38 34 0 9 79 60 94 60 7 0 23 -11 36 -25 14 -15 35 -25 51 -25 14 0 32 -7 39 -15 16 -20 22 -19 63 8 l35 22 -5 590 c-2 325 -6 600 -9 612 -6 32 -47 40 -174 36 -157 -5 -189 -8 -200 -19 -5 -5 -10 -69 -11 -142 -2 -120 0 -135 18 -160 13 -17 33 -29 56 -33 45 -7 87 -34 88 -57 6 -92 -6 -270 -22 -337 -17 -73 -23 -84 -69 -128 l-50 -49 -50 42 c-28 23 -52 52 -54 63 -2 12 -11 60 -20 107 -18 95 -20 341 -7 995 7 344 9 374 29 429 29 79 58 109 96 102 48 -10 70 -30 104 -95 l33 -60 2 -172 2 -172 25 -18 c31 -23 171 -32 191 -12 17 17 13 477 -5 553 -15 62 -114 264 -152 309 -44 52 -98 71 -205 71 -83 0 -99 -3 -129 -24z m281 -88 c51 -54 119 -167 119 -197 0 -5 6 -11 13 -14 9 -3 16 -30 20 -75 4 -53 11 -76 26 -91 20 -20 21 -33 21 -196 l0 -175 -22 -9 c-13 -4 -45 -5 -73 -2 l-50 6 -5 166 c-4 135 -8 171 -21 185 -9 11 -20 29 -24 42 -11 37 -83 109 -116 116 -46 9 -114 -4 -143 -28 -19 -16 -28 -34 -32 -71 -4 -28 -14 -56 -23 -63 -14 -12 -16 -80 -16 -741 0 -660 2 -731 16 -747 9 -11 20 -29 23 -41 4 -12 22 -38 41 -58 18 -21 36 -49 40 -63 7 -29 21 -42 47 -42 24 0 155 126 163 158 4 15 14 35 23 45 13 15 16 49 16 227 l1 209 -26 26 c-17 18 -42 28 -75 33 l-49 7 0 105 0 105 139 3 c86 2 143 -1 150 -8 6 -6 9 -63 8 -148 -2 -113 -5 -139 -19 -149 -22 -17 -21 -73 0 -85 15 -8 17 -44 17 -374 0 -283 -3 -366 -12 -369 -7 -3 -28 -6 -47 -7 -31 -3 -35 0 -44 32 -11 45 -23 52 -72 44 -27 -4 -54 -19 -82 -45 -24 -22 -51 -39 -62 -39 -10 0 -35 -16 -56 -35 l-38 -34 -62 62 c-56 55 -63 67 -70 114 -4 28 -12 54 -19 56 -7 3 -16 29 -19 58 -4 32 -13 56 -22 61 -13 8 -15 106 -15 838 0 749 2 830 16 838 13 7 17 32 21 118 3 65 11 115 18 124 7 8 16 25 19 37 8 27 96 117 105 108 3 -4 6 -12 7 -18 0 -7 2 -20 2 -29 3 -24 34 -23 50 2 8 13 23 20 42 20 23 0 30 4 30 20 0 16 -7 20 -37 22 -21 0 -42 2 -48 3 -5 2 -14 3 -18 4 -5 0 -6 5 -3 9 2 4 41 9 86 11 l82 2 59 -63z"/>
<path d="M12145 3861 c-59 -28 -131 -107 -145 -160 -6 -24 -30 -80 -53 -124 l-42 -79 -6 -172 c-11 -266 -10 -1263 1 -1436 l10 -154 44 -96 c24 -52 49 -113 56 -135 14 -47 86 -119 145 -146 46 -21 147 -25 205 -8 22 7 62 35 97 68 50 48 61 66 80 126 12 39 26 99 33 135 18 103 28 161 41 225 17 81 24 1107 10 1300 -14 176 -43 344 -88 509 -9 32 -105 127 -148 147 -56 26 -185 26 -240 0z m120 -41 c3 -6 -1 -13 -9 -16 -22 -9 -22 -84 -1 -84 18 0 64 48 65 66 0 7 -7 15 -16 18 -19 7 -9 26 14 26 22 0 149 -123 158 -153 3 -12 12 -29 19 -37 7 -9 15 -53 17 -103 3 -66 8 -90 21 -100 15 -11 17 -65 19 -600 3 -548 4 -589 21 -598 12 -7 17 -23 17 -59 0 -36 -5 -52 -17 -59 -15 -8 -18 -28 -21 -138 -3 -106 -6 -130 -20 -141 -13 -10 -17 -35 -20 -123 -3 -79 -8 -112 -17 -115 -7 -3 -16 -28 -20 -56 -6 -40 -16 -60 -47 -94 l-41 -44 -109 0 c-86 0 -110 3 -114 15 -3 8 -21 17 -39 21 -52 9 -72 39 -78 115 -4 60 -8 70 -40 100 l-35 34 -4 147 c-3 133 -5 149 -23 162 l-20 14 -3 676 -2 676 18 18 c11 11 22 38 26 60 6 42 38 113 62 142 7 8 16 37 21 64 7 45 12 51 40 58 22 6 33 16 37 34 4 14 17 39 28 55 18 24 29 29 64 29 24 0 46 -5 49 -10z"/>
<path d="M12249 3521 c-24 -4 -54 -22 -85 -51 l-49 -45 -3 -205 c-2 -180 -5 -207 -20 -218 -16 -12 -17 -52 -17 -502 0 -441 2 -490 16 -502 12 -9 18 -35 22 -81 3 -41 11 -75 20 -85 9 -9 19 -29 22 -45 4 -15 21 -39 38 -53 27 -23 37 -25 76 -20 24 3 52 12 60 20 9 7 36 16 60 19 62 8 82 49 41 84 -18 16 -19 18 -2 36 16 18 17 74 17 788 l0 769 -45 44 c-48 48 -84 59 -151 47z m89 -85 c30 -34 34 -47 46 -142 3 -22 6 -323 6 -670 0 -585 -1 -635 -19 -722 -22 -103 -31 -119 -79 -139 -55 -23 -81 6 -119 132 -17 55 -18 114 -18 740 l0 680 23 57 c13 33 38 70 58 87 40 36 53 33 102 -23z"/>
<path d="M885 3835 c-5 -2 -22 -6 -37 -9 -37 -8 -46 -42 -59 -230 -6 -88 -19 -195 -30 -238 -10 -42 -19 -89 -19 -104 0 -15 -11 -95 -25 -178 -13 -83 -29 -223 -34 -311 -5 -88 -14 -180 -20 -205 -6 -25 -13 -133 -16 -240 -7 -221 -17 -308 -44 -386 -11 -30 -24 -111 -31 -186 -6 -73 -18 -160 -26 -194 -19 -81 -18 -130 2 -138 9 -3 31 -6 49 -6 19 0 37 -5 40 -10 8 -13 92 -13 100 0 3 5 21 10 39 10 49 0 56 14 56 110 0 48 3 149 7 225 6 126 8 140 30 166 31 37 66 37 102 2 l27 -28 13 -220 c16 -252 17 -255 91 -255 30 0 52 -6 60 -15 11 -14 15 -14 29 -1 9 8 41 16 71 18 l55 3 -1 87 c-1 47 -7 110 -14 140 -6 29 -16 85 -21 123 -5 39 -13 97 -18 130 -4 33 -20 104 -35 159 -23 86 -26 117 -26 251 0 84 -4 175 -10 203 -19 104 -31 223 -40 417 -5 110 -14 214 -19 230 -22 66 -50 257 -56 375 -7 138 -23 223 -52 273 -17 29 -23 32 -74 34 -29 1 -58 0 -64 -2z m59 -53 c3 -5 -4 -16 -15 -25 -20 -17 -23 -34 -13 -61 8 -21 40 -21 48 0 10 26 23 7 29 -41 2 -25 12 -51 20 -58 13 -10 16 -41 19 -159 2 -123 6 -149 20 -160 13 -11 17 -36 20 -140 2 -106 6 -129 20 -140 15 -11 18 -39 20 -240 3 -200 5 -229 20 -240 15 -11 17 -40 20 -240 3 -197 5 -229 19 -240 13 -10 18 -36 21 -121 4 -82 8 -110 20 -120 12 -9 17 -36 20 -101 4 -67 8 -90 20 -97 21 -12 35 -123 18 -144 -8 -10 -33 -13 -93 -12 l-82 2 -7 73 c-4 51 -11 77 -22 85 -14 10 -16 28 -14 97 l3 84 32 8 c56 15 56 81 0 96 -24 6 -34 16 -41 40 -7 24 -17 34 -40 40 -23 6 -33 16 -40 39 -16 54 -80 53 -92 0 -4 -18 -23 -47 -43 -65 l-36 -33 -5 -232 -5 -232 -99 -3 c-106 -3 -137 7 -102 34 18 12 20 30 24 181 3 120 8 171 17 178 7 6 16 31 20 55 4 25 15 53 23 63 14 16 17 55 20 265 3 216 6 249 20 260 15 11 17 42 20 240 2 183 6 229 17 238 10 7 17 41 21 100 4 59 11 93 21 100 10 9 16 44 20 120 4 82 9 112 21 121 12 10 16 44 20 175 4 144 7 166 25 190 20 27 60 38 71 20z"/>
<path d="M899 3003 c-16 -4 -29 -65 -29 -142 0 -19 -8 -43 -17 -54 -15 -16 -18 -43 -21 -166 -3 -123 -6 -148 -20 -159 -24 -18 -25 -181 -1 -208 9 -11 19 -39 22 -63 3 -24 11 -48 19 -53 7 -5 41 -7 76 -5 52 2 67 7 90 30 l27 27 0 169 c0 142 -3 172 -16 187 -13 14 -18 45 -21 121 -3 79 -7 106 -20 115 -11 10 -17 37 -21 101 -3 49 -6 90 -8 91 -9 8 -45 13 -60 9z m40 -232 c14 -24 41 -318 41 -435 0 -105 -8 -119 -62 -114 -29 3 -35 8 -46 43 -14 41 -14 60 8 305 10 110 19 186 26 208 5 18 22 15 33 -7z"/>
<path d="M3085 3834 c-11 -3 -30 -7 -41 -9 -30 -6 -36 -41 -23 -122 5 -37 14 -99 18 -138 4 -38 16 -106 25 -150 9 -44 23 -161 31 -260 7 -100 25 -233 39 -299 14 -65 30 -166 35 -225 5 -58 19 -162 31 -231 l22 -125 -5 -425 -5 -425 35 -22 c28 -19 49 -23 108 -23 59 0 81 4 109 23 l36 22 -6 380 -6 380 22 65 c14 43 25 110 31 200 6 74 14 173 19 220 5 47 16 157 25 245 9 88 21 178 26 200 29 112 41 168 54 249 16 99 36 195 71 336 l23 95 -20 18 c-17 14 -41 17 -129 17 -144 0 -140 6 -156 -199 -13 -167 -20 -220 -34 -261 -5 -14 -14 -107 -21 -208 -7 -101 -16 -185 -20 -187 -23 -15 -58 126 -69 275 -4 52 -12 115 -18 140 -27 109 -52 271 -52 341 0 57 -4 80 -16 90 -16 13 -104 21 -139 13z m105 -196 c4 -122 8 -149 22 -160 13 -10 17 -34 20 -120 2 -86 6 -110 20 -120 13 -10 17 -35 20 -121 3 -90 7 -110 21 -118 14 -8 17 -25 17 -93 0 -99 12 -122 57 -112 17 4 41 18 54 32 l24 26 3 226 c2 201 5 229 20 240 15 11 17 35 17 196 l1 184 44 46 c51 54 82 59 119 20 20 -21 24 -35 24 -86 0 -48 -4 -64 -19 -75 -16 -11 -19 -30 -22 -121 -3 -81 -7 -110 -19 -119 -10 -8 -17 -36 -20 -80 -4 -46 -10 -72 -22 -81 -13 -10 -17 -35 -19 -120 -3 -86 -7 -110 -20 -120 -15 -11 -17 -41 -20 -240 -3 -196 -5 -229 -19 -239 -12 -10 -18 -35 -21 -100 -3 -66 -8 -91 -20 -101 -15 -11 -17 -53 -20 -380 -2 -223 -7 -371 -13 -377 -6 -6 -12 -2 -15 13 -7 25 -39 30 -48 7 -3 -9 -18 -15 -34 -15 -16 0 -35 -7 -42 -15 -20 -25 -30 -7 -30 55 0 46 4 61 18 69 16 9 17 37 17 360 0 315 -2 351 -17 363 -13 10 -17 35 -20 120 -3 85 -7 110 -20 120 -13 11 -17 36 -20 140 -2 104 -6 129 -20 140 -13 11 -17 36 -20 140 -2 105 -6 129 -20 140 -14 11 -17 37 -20 159 -2 123 -6 150 -20 166 -15 17 -18 40 -18 155 0 74 3 138 7 142 4 4 25 6 48 4 l40 -3 5 -147z m267 -2185 c-8 -13 -83 -10 -78 2 2 6 11 20 19 33 l15 23 25 -24 c13 -14 22 -29 19 -34z"/>
<path d="M3871 3829 c-25 -5 -48 -12 -52 -16 -4 -5 -9 -543 -11 -1197 -3 -1049 -1 -1190 12 -1196 8 -4 25 -12 37 -18 28 -15 60 -15 68 -2 8 13 72 13 80 0 8 -13 62 -13 70 0 3 6 53 10 114 10 70 0 111 4 119 12 15 15 16 217 2 270 -14 49 -33 58 -119 58 -59 0 -74 4 -98 24 l-29 25 1 993 c1 546 -2 1001 -7 1010 -16 33 -98 45 -187 27z m140 -65 l24 -26 -20 -14 -20 -15 0 -969 0 -970 47 -47 48 -47 87 -6 87 -5 8 -30 c4 -17 4 -66 0 -110 l-7 -80 -202 -2 c-112 -1 -205 3 -208 7 -3 5 -5 325 -5 712 0 657 1 704 18 716 16 12 17 40 17 342 0 308 -1 330 -18 343 -16 11 -19 27 -19 95 0 72 2 84 23 107 34 36 106 35 140 -1z"/>
<path d="M5358 3833 c-56 -9 -53 59 -54 -1219 l-1 -1184 23 -25 c22 -23 29 -25 124 -25 81 0 100 3 100 15 0 7 8 18 17 24 16 8 17 48 14 515 l-3 506 30 30 c40 40 88 41 133 3 l32 -27 -6 -512 c-6 -569 -11 -524 64 -524 22 0 48 -6 59 -12 16 -10 24 -10 40 0 11 6 33 12 48 12 58 0 62 17 51 198 -8 127 -7 1518 2 2141 0 33 -5 59 -13 67 -38 38 -227 24 -250 -19 -7 -15 -9 -80 -4 -216 3 -108 7 -312 7 -454 2 -245 1 -260 -18 -285 -19 -24 -26 -27 -74 -24 -40 3 -60 10 -78 27 l-23 22 1 399 c1 220 4 424 7 455 8 70 -5 95 -54 109 -36 10 -119 11 -174 3z m172 -70 c21 -21 25 -38 28 -98 4 -66 2 -75 -19 -96 l-24 -24 0 -347 0 -348 45 -45 c39 -39 53 -46 99 -52 30 -3 55 -12 58 -19 3 -8 13 -14 22 -14 28 0 58 42 66 90 4 25 15 53 24 64 13 15 16 45 16 187 0 157 -1 169 -20 183 l-20 14 3 243 3 242 22 23 c17 18 33 24 67 24 61 0 89 -30 97 -103 5 -48 3 -57 -18 -78 l-24 -24 -3 -668 c-2 -578 -4 -669 -17 -673 -19 -8 -19 -40 -1 -47 12 -5 15 -52 18 -274 l3 -269 23 -28 c17 -23 22 -41 22 -90 0 -33 -4 -67 -9 -74 -5 -9 -35 -14 -92 -15 l-84 -2 -8 220 c-8 247 -3 361 19 373 8 5 16 32 20 69 5 50 3 68 -10 88 -15 22 -15 29 -4 42 20 25 18 186 -3 209 -9 11 -20 29 -24 42 -3 12 -17 34 -29 47 -30 33 -105 35 -143 5 -14 -11 -33 -20 -42 -20 -9 0 -29 -12 -46 -27 l-30 -26 0 -408 0 -407 20 -22 c14 -16 20 -40 23 -90 4 -63 2 -69 -20 -84 -17 -11 -35 -14 -57 -10 -39 8 -50 23 -22 31 12 3 21 13 21 24 0 15 -7 19 -39 19 -42 0 -60 -20 -36 -40 20 -17 9 -30 -25 -30 -35 0 -45 13 -25 30 13 11 15 153 15 1137 l0 1125 23 24 c32 35 103 33 137 -3z"/>
<path d="M6205 3825 c-59 -21 -67 -37 -60 -125 12 -160 17 -1832 5 -2040 -6 -113 -8 -213 -5 -222 4 -10 17 -20 28 -24 12 -3 28 -11 35 -17 24 -19 153 -15 195 6 l37 19 0 1184 0 1185 -25 24 c-21 22 -33 25 -97 25 -40 -1 -91 -7 -113 -15z m164 -59 l22 -23 0 -1143 c-1 -629 -3 -1145 -5 -1148 -8 -7 -167 -9 -172 -1 -2 4 -4 522 -4 1150 l0 1141 23 24 c31 34 104 34 136 0z"/>
<path d="M7507 3831 c-21 -4 -43 -13 -49 -19 -9 -9 -11 -322 -10 -1198 1 -652 4 -1190 8 -1195 3 -5 40 -9 83 -9 56 0 82 -4 91 -14 10 -13 17 -12 51 6 21 11 39 25 39 32 3 78 -2 722 -6 847 l-6 166 27 21 c38 30 92 38 124 19 43 -26 47 -60 40 -347 -6 -225 -11 -644 -10 -702 1 -10 8 -18 16 -18 8 0 24 -9 35 -20 16 -16 33 -20 89 -20 39 0 73 5 76 11 4 5 17 14 30 19 l22 9 -2 1183 c-1 651 -6 1191 -10 1200 -17 41 -175 50 -230 14 l-27 -18 3 -469 4 -468 -22 -23 c-32 -31 -104 -31 -135 0 l-23 23 0 474 c0 372 -3 477 -13 487 -15 15 -138 21 -195 9z m161 -431 c2 -327 0 -387 -12 -396 -27 -19 -30 -61 -7 -81 13 -10 21 -30 21 -48 0 -52 11 -75 39 -81 14 -4 34 -14 45 -23 11 -10 36 -16 67 -16 45 0 53 4 96 48 l48 47 0 350 c0 323 -1 350 -18 362 -14 11 -18 28 -18 90 0 64 3 82 22 107 14 19 32 31 45 31 31 0 39 -17 14 -30 -44 -24 -14 -50 57 -50 17 0 34 -4 38 -9 8 -15 6 -2234 -2 -2242 -10 -10 -147 -14 -161 -5 -8 5 -12 38 -12 91 0 70 3 86 18 94 16 9 17 39 17 418 l0 408 -45 48 c-41 44 -48 47 -93 47 -34 0 -57 -6 -74 -20 -14 -11 -36 -20 -48 -20 -15 0 -25 -8 -29 -22 -3 -13 -6 -251 -6 -530 0 -279 -3 -509 -7 -511 -5 -3 -44 -6 -88 -8 l-80 -4 -3 150 c-2 134 -1 151 15 163 17 12 18 45 18 503 0 457 -1 491 -17 500 -17 9 -18 44 -18 496 l0 485 23 24 c19 21 29 24 87 22 l65 -3 3 -385z"/>
<path d="M8000 1500 c0 -13 7 -20 20 -20 13 0 20 7 20 20 0 13 -7 20 -20 20 -13 0 -20 -7 -20 -20z"/>
<path d="M10237 3833 c-57 -9 -60 -27 -50 -291 9 -218 10 -1346 2 -1887 l-4 -230 28 -13 c15 -7 27 -17 27 -23 0 -14 143 -9 160 6 8 7 24 15 35 17 17 3 20 11 19 53 -11 575 -14 946 -7 970 6 19 23 38 49 52 51 29 60 29 96 -7 l30 -31 -3 -517 -4 -517 22 -3 c12 -2 27 -10 33 -18 17 -20 153 -20 170 0 6 8 21 16 32 18 l21 3 1 1197 1 1198 -44 15 c-75 25 -222 14 -234 -19 -2 -6 -1 -213 3 -461 4 -247 5 -459 2 -470 -3 -11 -12 -30 -20 -43 -14 -21 -20 -23 -66 -17 -37 5 -57 14 -75 33 l-24 27 9 415 c11 540 12 510 -16 532 -17 14 -38 18 -94 17 -39 -1 -83 -4 -99 -6z m149 -56 c2 -7 6 -228 7 -490 l2 -477 27 -27 c22 -22 39 -27 87 -31 83 -6 131 4 131 27 0 10 10 31 23 47 l22 28 0 328 0 327 -20 15 c-18 13 -20 26 -19 115 0 92 2 103 24 126 33 35 106 36 139 1 l22 -23 0 -1139 c-1 -626 -4 -1141 -8 -1145 -5 -4 -44 -9 -88 -11 l-79 -3 -8 40 c-4 22 -7 77 -7 123 -1 72 2 85 22 104 l22 23 0 365 0 366 -47 47 c-43 43 -51 47 -95 47 -43 0 -53 -5 -98 -48 l-50 -47 -2 -499 c-1 -283 -5 -502 -10 -507 -16 -16 -111 -18 -123 -4 -12 15 -17 2305 -5 2325 9 15 125 13 131 -3z"/>
<path d="M10280 1502 c0 -24 8 -32 26 -25 22 8 17 43 -6 43 -13 0 -20 -7 -20 -18z"/>
<path d="M12830 3832 c-34 -5 -48 -13 -57 -32 -10 -20 -13 -275 -13 -1200 l1 -1175 25 -18 c21 -16 52 -19 233 -23 182 -4 209 -3 214 11 4 8 16 15 27 15 30 0 40 37 40 157 0 90 -3 111 -22 144 -26 46 -44 54 -120 50 -47 -2 -60 1 -78 19 l-22 22 3 1005 4 1004 -18 11 c-23 12 -156 19 -217 10z m179 -66 c20 -22 22 -34 24 -166 2 -131 1 -143 -18 -156 l-20 -15 0 -830 c0 -895 -3 -848 50 -849 11 0 32 -16 48 -35 22 -28 36 -36 78 -41 61 -8 67 -19 67 -125 -1 -116 13 -109 -212 -106 -106 2 -198 7 -204 11 -9 5 -12 292 -12 1148 l0 1140 23 24 c19 20 32 24 88 24 56 0 69 -3 88 -24z"/>
<path d="M13825 3831 c-29 -12 -49 -39 -74 -101 -29 -69 -36 -77 -83 -101 -66 -34 -72 -52 -69 -212 2 -174 15 -210 72 -215 75 -6 70 57 69 -869 0 -455 -3 -845 -7 -865 -5 -34 -3 -39 21 -47 17 -7 24 -15 20 -26 -5 -13 8 -15 90 -15 85 0 97 2 116 22 l20 22 0 1189 c0 783 -4 1196 -11 1208 -8 16 -21 19 -77 18 -37 0 -76 -4 -87 -8z m120 -51 c10 -16 6 -2313 -4 -2323 -6 -6 -17 -7 -26 -4 -12 5 -13 10 -4 25 10 16 8 25 -10 51 -24 34 -55 41 -65 14 -22 -55 -26 63 -28 824 l-3 821 -23 25 c-13 14 -37 28 -55 31 -17 3 -41 16 -54 28 -22 20 -23 29 -23 148 l0 126 70 64 c45 41 74 77 81 100 18 57 46 80 95 80 24 0 45 -4 49 -10z"/>
<path d="M15411 3832 c-40 -8 -64 -37 -89 -107 -14 -39 -31 -60 -77 -98 -33 -26 -65 -57 -71 -69 -7 -13 -11 -76 -12 -159 0 -123 2 -141 20 -164 14 -18 29 -25 52 -25 22 0 40 -8 56 -25 l24 -25 3 -563 c1 -309 -1 -699 -5 -866 l-8 -304 21 -23 c20 -22 31 -24 108 -24 66 0 86 3 91 15 3 8 12 15 21 15 8 0 15 6 16 13 1 6 0 543 -1 1192 -1 1118 -2 1181 -19 1198 -20 21 -78 29 -130 19z m98 -110 c0 -9 0 -172 0 -362 0 -319 -6 -399 -25 -344 -19 52 -75 82 -88 47 -11 -29 -24 -1 -28 63 -4 58 -7 65 -49 105 -24 24 -57 49 -74 55 l-30 11 -3 94 c-2 80 0 101 19 139 27 55 67 100 90 100 9 0 28 9 43 21 23 18 27 18 32 5 15 -40 82 6 88 60 5 37 4 36 15 29 6 -3 10 -13 10 -23z m1 -1607 c0 -220 -4 -346 -10 -350 -6 -3 -13 2 -17 12 -17 50 -74 81 -87 47 -3 -8 -10 -12 -16 -9 -6 4 -10 115 -10 305 0 190 4 301 10 305 6 3 13 -1 16 -9 10 -26 42 -18 71 18 15 19 31 32 35 30 4 -3 8 -160 8 -349z m-116 -646 c-3 -5 -10 -7 -15 -3 -5 3 -7 10 -3 15 3 5 10 7 15 3 5 -3 7 -10 3 -15z"/>
<path d="M15240 3420 c0 -17 7 -20 40 -20 33 0 40 3 40 20 0 17 -7 20 -40 20 -33 0 -40 -3 -40 -20z"/>
<path d="M1382 3817 c-9 -11 -11 -305 -7 -1203 l6 -1189 27 -10 c15 -5 33 -14 40 -18 22 -15 140 -17 145 -3 3 7 20 16 38 20 l32 6 -9 183 c-12 241 -10 855 3 868 24 24 61 -88 73 -222 5 -53 22 -150 39 -215 25 -102 31 -154 41 -354 13 -238 19 -270 55 -270 7 0 18 -7 25 -15 21 -25 130 -20 174 8 31 19 36 26 32 52 -2 17 -11 86 -20 155 -9 69 -23 157 -31 195 -34 158 -45 230 -45 289 0 38 -7 77 -19 102 -10 23 -22 65 -26 94 -4 29 -16 82 -26 118 -10 35 -21 90 -24 121 l-7 56 52 50 c42 42 55 62 75 126 39 123 48 229 42 474 -4 179 -9 235 -26 299 -34 126 -66 182 -141 240 l-65 51 -221 3 c-180 2 -223 0 -232 -11z m81 -57 c8 0 17 7 21 15 9 23 141 21 155 -2 8 -15 27 -19 98 -21 52 -3 94 -9 103 -17 8 -7 25 -16 37 -19 20 -6 83 -115 83 -143 0 -6 6 -13 14 -16 10 -4 15 -34 18 -117 3 -93 6 -113 21 -121 15 -9 17 -28 17 -159 0 -132 -2 -150 -17 -159 -15 -8 -18 -26 -20 -116 l-2 -106 -32 -32 c-17 -18 -37 -46 -45 -63 -7 -18 -28 -47 -46 -65 -31 -30 -33 -37 -33 -100 0 -48 5 -72 16 -85 9 -11 20 -40 23 -66 4 -25 13 -48 20 -51 8 -3 15 -31 18 -77 4 -48 10 -75 21 -83 13 -10 16 -40 19 -159 2 -122 6 -149 19 -160 11 -9 19 -36 23 -82 3 -45 11 -72 21 -80 13 -9 15 -30 13 -116 l-3 -105 -55 -7 c-30 -3 -60 -2 -66 3 -6 5 -14 48 -17 95 -3 60 -9 89 -20 97 -13 10 -16 44 -19 199 -3 161 -5 189 -20 200 -13 11 -17 36 -20 139 -2 100 -7 131 -19 145 -9 11 -20 40 -23 66 -4 25 -13 51 -21 58 -7 6 -16 22 -19 35 -17 67 -116 105 -130 50 -4 -14 -6 -262 -6 -550 1 -289 -2 -530 -5 -536 -7 -11 -143 -7 -163 5 -19 12 -15 93 6 105 16 9 17 52 17 680 l0 670 -20 15 -20 14 3 204 c2 164 5 205 17 214 19 14 19 40 0 48 -13 4 -15 35 -15 189 0 101 3 187 7 191 4 4 13 0 19 -8 6 -9 18 -16 27 -16z"/>
<path d="M1671 3500 c-13 -11 -34 -20 -47 -20 -34 0 -36 -23 -32 -367 l3 -303 28 -27 c25 -25 34 -28 97 -28 l70 0 47 48 48 47 0 269 c0 234 -2 271 -16 287 -9 11 -20 29 -24 42 -3 12 -17 34 -29 47 -30 32 -108 35 -145 5z m112 -58 c37 -38 47 -106 47 -307 -1 -200 -22 -301 -68 -323 -9 -4 -35 -5 -57 -2 -62 8 -65 21 -64 280 1 314 3 334 42 359 45 27 69 25 100 -7z"/>
<path d="M4416 3808 c-14 -20 -16 -146 -16 -1198 0 -901 3 -1179 12 -1188 7 -7 40 -12 78 -12 36 0 71 -5 77 -11 8 -8 16 -7 31 2 16 10 26 10 44 2 13 -6 74 -14 136 -18 102 -6 115 -4 140 14 l28 19 -3 144 c-1 79 -3 150 -3 159 0 28 -50 41 -152 40 l-97 -1 -16 29 c-12 25 -15 80 -15 333 0 348 -1 343 78 353 60 8 104 24 120 43 15 20 17 244 1 274 -14 27 -69 48 -123 48 -76 0 -76 2 -76 316 l0 271 21 26 20 27 105 -1 c70 -1 109 3 119 11 13 11 15 41 13 174 l-3 161 -252 3 -252 2 -15 -22z m491 -35 c4 -10 7 -67 8 -128 l0 -110 -125 -5 c-115 -5 -129 -7 -157 -30 -18 -14 -35 -38 -38 -55 -3 -16 -5 -148 -3 -291 3 -233 5 -264 21 -281 9 -11 17 -26 17 -34 0 -32 19 -42 86 -48 l69 -6 8 -49 c4 -27 15 -55 23 -61 14 -10 14 -12 0 -24 -21 -18 -20 -41 1 -56 16 -12 16 -15 -8 -38 -20 -20 -39 -27 -96 -32 -66 -7 -72 -9 -78 -34 -4 -14 -14 -34 -23 -45 -15 -16 -17 -54 -17 -346 l0 -328 23 -25 c16 -17 38 -26 74 -30 28 -4 59 -14 70 -24 16 -14 22 -15 40 -4 15 9 23 10 31 2 6 -6 19 -11 29 -11 10 0 27 -9 38 -20 17 -17 20 -33 20 -104 0 -55 -4 -87 -13 -94 -7 -6 -98 -11 -232 -13 l-220 -3 -3 1148 -2 1148 22 24 23 24 203 0 c184 0 203 -2 209 -17z"/>
<path d="M4748 3655 c-47 -41 -33 -65 37 -65 41 0 69 25 61 54 -3 12 -6 24 -6 29 0 17 -67 5 -92 -18z"/>
<path d="M4760 1620 c0 -13 7 -20 20 -20 13 0 20 7 20 20 0 13 -7 20 -20 20 -13 0 -20 -7 -20 -20z"/>
<path d="M15678 3823 c-26 -7 -30 -29 -28 -198 1 -204 -6 -195 150 -195 161 0 155 6 155 -162 -1 -141 -12 -219 -43 -308 -13 -38 -22 -96 -26 -185 -4 -71 -13 -155 -22 -185 -8 -30 -19 -113 -24 -185 -25 -357 -40 -546 -49 -605 -6 -36 -18 -131 -27 -212 -17 -153 -14 -178 23 -178 7 0 16 -7 19 -15 5 -11 23 -15 75 -15 42 0 69 4 69 11 0 5 16 17 35 25 33 13 44 32 44 74 0 8 3 112 6 230 6 201 15 280 55 480 5 25 14 158 21 295 6 138 18 304 26 370 8 66 19 201 23 300 4 104 13 195 21 215 9 24 13 95 13 230 l1 195 -35 12 c-34 11 -442 17 -482 6z m201 -50 c8 -15 28 -18 133 -21 68 -2 127 -8 133 -13 5 -5 8 -69 7 -147 -2 -116 -5 -139 -20 -150 -15 -11 -17 -38 -20 -220 -2 -182 -5 -209 -20 -220 -15 -11 -17 -40 -20 -240 -3 -200 -5 -229 -20 -240 -15 -11 -17 -39 -20 -220 -3 -181 -5 -209 -20 -220 -15 -12 -17 -43 -18 -316 0 -167 -3 -307 -6 -312 -4 -5 -44 -7 -90 -4 l-83 5 -3 85 c-2 72 0 87 15 98 16 12 18 32 18 218 0 192 1 207 19 220 18 13 20 30 24 222 3 174 6 209 20 219 13 11 16 43 20 184 3 127 8 172 18 176 8 3 15 33 19 79 5 53 12 77 24 83 14 8 16 34 16 200 l0 191 -28 27 -27 28 -128 5 -127 5 -3 88 c-2 71 0 88 13 93 21 8 19 40 -2 49 -17 6 -17 7 1 21 11 8 27 14 37 14 9 0 19 7 23 15 8 23 102 21 115 -2z"/>
<path d="M15880 1500 c0 -13 7 -20 20 -20 13 0 20 7 20 20 0 13 -7 20 -20 20 -13 0 -20 -7 -20 -20z"/>
<path d="M14889 2302 c-27 -22 -41 -114 -32 -205 9 -85 28 -97 153 -97 83 0 101 3 124 21 l26 20 0 124 c0 159 3 155 -140 155 -90 0 -112 -3 -131 -18z m222 -74 c3 -20 3 -68 0 -105 l-6 -68 -41 -3 c-27 -2 -45 2 -54 13 -16 19 -46 20 -54 0 -8 -22 -21 -18 -41 11 -12 19 -14 29 -6 37 6 6 11 27 11 47 0 20 -5 41 -11 47 -8 8 -6 18 6 37 l18 27 86 -3 86 -3 6 -37z"/>
<path d="M197 4140 c-8 -31 3 -60 24 -60 15 0 19 7 19 40 0 33 -4 40 -19 40 -10 0 -21 -9 -24 -20z"/>
<path d="M200 3860 c0 -13 7 -20 20 -20 13 0 20 7 20 20 0 13 -7 20 -20 20 -13 0 -20 -7 -20 -20z"/>
<path d="M200 3760 c0 -33 4 -40 19 -40 11 0 20 9 23 23 6 36 -2 57 -23 57 -16 0 -19 -7 -19 -40z"/>
<path d="M16640 860 c0 -13 7 -20 20 -20 13 0 20 7 20 20 0 13 -7 20 -20 20 -13 0 -20 -7 -20 -20z"/>
<path d="M16523 683 c-45 -4 -60 -24 -48 -63 6 -18 15 -20 106 -20 l99 0 0 39 c0 35 -3 39 -31 45 -31 6 -47 6 -126 -1z"/>
<path d="M16400 620 c0 -13 7 -20 20 -20 13 0 20 7 20 20 0 13 -7 20 -20 20 -13 0 -20 -7 -20 -20z"/>
</g>
</g>
</svg>
