<?xml version="1.0" standalone="no"?>
<!DOCTYPE svg PUBLIC "-//W3C//DTD SVG 1.1//EN"
 "http://www.w3.org/Graphics/SVG/1.1/DTD/svg11.dtd">
<!-- Created with svg_stack (http://github.com/astraw/svg_stack) -->
<svg xmlns:sodipodi="http://sodipodi.sourceforge.net/DTD/sodipodi-0.dtd" xmlns="http://www.w3.org/2000/svg" version="1.1" width="290.0" height="176.0">
  <defs/>
  <g id="id0:id0" transform="matrix(1.25,0,0,1.25,0.0,0.0)"><g transform="translate(0.000000,140.800000) scale(0.040000,-0.040000)" fill="#feb041" stroke="none">
<path d="M4765 3003 c-85 -4 -228 -24 -239 -34 -6 -5 -17 -9 -25 -9 -19 0 -143 -63 -191 -96 -52 -37 -150 -135 -150 -150 0 -7 -9 -18 -20 -24 -11 -6 -20 -17 -20 -24 0 -15 -54 -121 -72 -143 -6 -7 -11 -81 -11 -180 -2 -152 1 -174 22 -238 43 -125 153 -264 257 -322 21 -12 57 -32 79 -44 41 -23 97 -38 240 -64 65 -13 102 -13 204 -5 69 6 130 15 136 20 6 5 29 13 50 19 62 15 128 41 146 57 8 8 19 14 23 14 5 0 33 23 63 50 30 28 59 50 64 50 11 0 1 49 -14 68 -20 25 -57 13 -107 -37 -27 -27 -66 -55 -87 -61 -21 -7 -42 -16 -47 -21 -6 -5 -20 -9 -31 -9 -12 0 -25 -3 -29 -7 -16 -17 -181 -30 -246 -20 -60 8 -162 45 -235 84 -63 34 -135 133 -176 243 -22 59 -24 80 -24 225 0 130 3 166 16 190 10 17 23 50 30 75 14 49 48 98 117 171 42 45 94 71 212 107 50 16 177 17 230 3 115 -32 175 -63 233 -122 31 -32 57 -62 57 -67 0 -5 8 -16 18 -26 11 -9 24 -33 30 -54 7 -21 23 -49 37 -62 21 -20 27 -21 41 -10 13 12 15 35 13 158 -2 79 -7 146 -11 148 -5 3 -8 22 -8 43 0 21 -3 41 -7 45 -4 4 -8 17 -8 29 0 40 -57 32 -112 -16 -27 -24 -56 -21 -212 22 -62 17 -127 30 -145 29 -17 -1 -58 -3 -91 -5z"/>
<path d="M2256 2860 c-3 -47 -8 -110 -12 -140 -5 -45 -3 -58 10 -70 15 -11 19 -11 34 4 16 16 16 18 -2 28 -17 10 -16 12 10 37 16 15 42 45 58 65 16 21 44 44 62 52 44 18 314 20 332 2 16 -16 17 -913 1 -990 -15 -70 -51 -103 -120 -112 -60 -8 -59 -17 3 -21 24 -2 52 -7 63 -12 11 -4 86 -8 166 -8 112 0 150 3 163 14 11 9 38 14 74 13 41 -1 51 1 37 8 -11 5 -32 9 -46 9 -42 1 -86 29 -100 64 -10 24 -14 151 -17 529 l-3 497 23 14 c34 21 215 22 286 2 63 -18 90 -39 134 -102 16 -24 35 -43 43 -43 20 0 29 -20 16 -33 -20 -20 -12 -31 9 -12 14 13 17 22 10 31 -7 8 -9 52 -4 127 5 92 4 116 -7 123 -8 5 -279 9 -615 9 l-602 0 -6 -85z"/>
<path d="M140 686 c0 -7 -7 -19 -15 -26 -13 -10 -15 -51 -15 -251 0 -157 4 -240 11 -244 5 -4 14 -18 19 -31 l9 -23 2750 0 c2355 0 2751 2 2761 14 6 7 17 12 24 9 10 -4 12 51 10 257 -3 224 -5 264 -19 271 -8 5 -15 16 -15 23 0 13 -355 15 -2760 15 -2338 0 -2760 -2 -2760 -14z m962 -142 c9 -8 -41 -79 -55 -79 -22 0 -18 35 7 60 25 25 38 30 48 19z m1065 -5 c7 -7 8 -18 3 -28 -5 -9 -11 -24 -14 -34 -8 -25 -22 -14 -30 24 -9 46 13 66 41 38z m1358 2 c3 -5 1 -12 -5 -16 -6 -3 -17 -20 -26 -37 -15 -29 -14 -31 7 -54 21 -22 22 -28 11 -57 -15 -42 -15 -80 0 -95 17 -17 -18 -28 -37 -12 -12 10 -15 38 -14 139 1 69 3 129 6 134 6 10 51 9 58 -2z m-2242 -7 c3 -4 0 -16 -8 -26 -7 -11 -11 -27 -8 -34 3 -8 2 -21 -1 -30 -6 -15 -8 -15 -26 1 -11 10 -20 27 -20 38 0 35 43 70 63 51z m51 -26 c-3 -5 -12 -4 -20 3 -7 6 -11 15 -8 21 3 5 12 4 20 -3 7 -6 11 -15 8 -21z m129 26 c4 -4 -3 -20 -15 -36 -27 -38 -50 -22 -24 16 17 26 27 31 39 20z m200 0 c3 -4 0 -16 -8 -28 -11 -14 -15 -49 -15 -119 0 -92 1 -98 23 -106 18 -7 26 -4 43 17 23 28 36 19 23 -17 -6 -14 -15 -21 -24 -17 -8 3 -17 1 -20 -4 -10 -15 -21 -12 -54 16 l-31 26 0 99 c0 86 3 102 20 119 21 21 32 24 43 14z m61 -44 c-8 -8 -16 -4 -27 13 -21 32 -9 43 17 17 14 -14 17 -23 10 -30z m276 26 c11 -30 -2 -81 -21 -81 -7 0 -15 -8 -17 -17 -4 -20 18 -24 35 -7 16 16 31 -16 33 -71 3 -62 2 -64 -15 -50 -8 7 -22 10 -30 6 -9 -3 -18 1 -22 10 -5 13 -9 12 -29 -7 -20 -19 -24 -20 -30 -6 -7 20 32 215 47 234 17 20 39 16 49 -11z m315 15 c3 -5 1 -12 -5 -16 -18 -11 -11 -68 11 -91 l21 -23 -21 -27 c-23 -30 -28 -73 -9 -92 9 -9 9 -15 0 -24 -9 -9 -16 -7 -32 7 -18 16 -20 30 -20 140 0 67 3 125 7 128 10 10 41 8 48 -2z m258 3 c9 -10 -33 -65 -44 -59 -5 4 -9 14 -9 24 0 29 35 53 53 35z m68 -30 c10 -16 18 -46 18 -68 1 -32 3 -36 15 -27 17 15 31 -2 22 -26 -5 -12 -9 -13 -21 -3 -13 11 -15 7 -15 -29 0 -46 -16 -85 -31 -76 -5 4 -9 52 -9 108 0 74 -4 108 -15 123 -14 22 -10 37 9 31 6 -2 18 -17 27 -33z m130 15 c-2 -8 -6 -30 -9 -51 -3 -30 0 -38 18 -48 l22 -12 -21 -22 c-23 -25 -29 -84 -9 -104 9 -9 7 -13 -5 -18 -42 -16 -47 -1 -47 129 0 126 7 151 40 144 8 -2 13 -10 11 -18z m160 -17 c-8 -31 -24 -36 -29 -9 -4 20 16 49 28 42 5 -3 5 -17 1 -33z m82 17 c6 -9 7 -25 3 -35 -6 -16 -9 -15 -31 11 -12 17 -21 34 -18 38 7 12 35 4 46 -14z m185 -3 c17 -15 22 -30 22 -67 0 -32 5 -49 15 -53 21 -8 39 1 50 26 15 33 31 32 55 -2 21 -29 21 -32 5 -50 -11 -12 -16 -32 -14 -59 2 -22 0 -43 -4 -47 -12 -13 -36 18 -43 55 -10 57 -44 86 -44 38 0 -13 -4 -27 -9 -32 -5 -6 -11 -21 -13 -35 -2 -14 -10 -25 -18 -25 -8 0 -14 6 -12 13 4 20 -28 74 -41 69 -7 -2 -12 -21 -13 -43 0 -32 -4 -39 -20 -39 -16 0 -20 8 -22 47 -2 26 1 71 7 100 5 30 5 60 1 69 -6 10 -4 24 6 37 19 27 60 26 92 -2z m136 15 c3 -5 -1 -14 -8 -20 -16 -13 -32 2 -21 19 8 12 22 13 29 1z m626 -21 c0 -10 -5 -22 -10 -25 -13 -8 -24 20 -16 41 8 20 26 9 26 -16z m107 14 c3 -10 2 -29 -3 -43 -7 -18 -6 -33 1 -49 20 -39 -11 -182 -36 -167 -5 4 -7 10 -4 15 3 4 5 61 6 126 0 65 3 122 5 126 9 13 24 9 31 -8z m170 -6 c26 -24 30 -50 10 -67 -13 -11 -10 -67 8 -149 8 -40 -12 -52 -26 -15 l-10 28 -15 -19 c-20 -29 -54 -28 -65 1 -10 28 -12 226 -2 236 15 16 77 6 100 -15z m192 9 c14 -17 4 -27 -26 -27 -16 0 -27 -8 -33 -26 -13 -33 -35 -26 -35 12 0 43 67 72 94 41z m522 -4 c6 -6 9 -20 5 -30 -7 -16 -9 -16 -27 7 l-19 25 -20 -24 c-11 -13 -20 -34 -20 -47 0 -34 -19 -39 -31 -7 -8 22 -7 35 5 60 14 30 19 32 56 30 22 -1 45 -8 51 -14z m-3130 -66 c0 -34 1 -91 2 -127 l2 -65 -35 0 c-29 0 -34 3 -32 20 2 11 10 25 17 31 8 6 16 35 18 67 4 48 2 57 -12 55 -12 -2 -17 7 -19 35 -3 31 0 39 20 46 13 5 26 7 30 4 5 -2 8 -32 9 -66z m-893 51 c7 -7 12 -27 12 -44 0 -18 5 -36 10 -39 6 -3 10 -23 10 -43 0 -47 12 -66 37 -58 13 4 27 -2 42 -18 27 -29 20 -52 -9 -33 -16 9 -24 9 -40 -1 -17 -10 -22 -9 -36 13 -23 35 -51 41 -78 16 -32 -30 -50 -9 -36 40 6 19 12 55 15 82 7 75 42 116 73 85z m600 0 c19 -19 16 -222 -3 -238 -21 -17 -51 -5 -36 14 8 9 12 52 11 118 -1 57 -1 106 -1 111 1 11 15 9 29 -5z m2229 0 c4 -7 15 -33 24 -58 21 -62 43 -59 47 5 4 61 17 78 32 40 13 -33 0 -230 -15 -229 -5 0 -23 26 -38 57 -15 31 -32 57 -38 57 -18 0 -22 -31 -4 -44 25 -18 16 -51 -15 -51 l-25 0 -9 102 c-7 79 -6 106 4 118 15 18 26 19 37 3z m801 -108 c3 -129 0 -149 -23 -130 -12 10 -15 38 -15 125 0 61 3 115 7 119 20 20 28 -9 31 -114z m116 98 c14 -22 16 -22 26 -5 6 9 16 15 21 11 5 -3 16 0 24 6 22 18 26 -2 23 -121 -3 -122 -17 -134 -59 -54 -37 70 -57 71 -61 3 -4 -78 -22 -60 -28 29 -4 60 -8 78 -20 78 -10 0 -15 10 -15 30 0 22 4 29 17 27 9 -1 19 2 23 8 10 17 32 11 49 -12z m-1718 -51 c4 -3 4 -14 0 -23 -5 -14 -9 -14 -23 -3 -15 13 -16 11 -9 -16 4 -16 14 -37 22 -46 8 -8 14 -22 14 -30 0 -19 -47 -62 -60 -54 -13 8 -13 140 -1 164 10 17 43 22 57 8z m-1832 -72 c25 -36 46 -70 46 -74 0 -4 -9 -16 -20 -26 -16 -15 -22 -15 -35 -5 -8 7 -15 25 -15 40 0 20 -6 29 -21 33 -17 5 -20 11 -15 49 2 24 5 44 5 46 3 8 15 -5 55 -63z m2834 -21 c-2 -38 -7 -69 -13 -69 -11 0 -19 119 -10 143 13 34 26 -8 23 -74z m-1800 7 c-2 -28 -7 -52 -13 -54 -11 -2 -19 87 -10 111 11 31 26 -5 23 -57z m-844 23 c28 -36 40 -85 21 -94 -5 -3 -16 13 -23 35 -7 22 -22 49 -33 61 -17 18 -17 34 0 34 3 0 19 -16 35 -36z m3086 3 c0 -6 14 -25 30 -42 26 -27 29 -36 22 -56 -9 -21 -16 -24 -61 -23 -52 0 -79 14 -67 33 4 5 12 8 19 5 9 -3 13 11 15 47 1 28 5 55 8 61 7 11 34 -9 34 -25z m-2922 -21 c5 -55 -3 -72 -25 -55 -17 13 -17 13 0 -13 21 -33 5 -48 -24 -22 -12 11 -19 30 -19 56 0 52 14 75 42 73 19 -1 24 -8 26 -39z m1075 -9 c-3 -24 0 -53 6 -65 15 -28 -4 -39 -30 -17 -15 14 -18 26 -13 59 13 82 46 103 37 23z m2317 -16 c0 -62 -6 -77 -26 -61 -6 6 -18 9 -25 8 -21 -4 -25 60 -5 68 9 3 16 12 16 18 0 16 21 36 32 30 4 -3 8 -31 8 -63z m-1842 10 c2 -12 -1 -28 -7 -35 -6 -8 -9 -20 -5 -29 6 -17 -11 -31 -26 -22 -8 5 -8 11 -1 19 11 13 4 53 -11 73 -15 19 0 33 25 24 12 -5 23 -18 25 -30z m1930 -10 c-2 -14 -7 -26 -12 -26 -12 0 -27 55 -20 67 11 17 35 -15 32 -41z m-354 18 c-3 -5 -10 -7 -15 -3 -5 3 -7 10 -3 15 3 5 10 7 15 3 5 -3 7 -10 3 -15z m-3350 -91 c-3 -5 -12 -4 -20 3 -7 6 -11 15 -8 21 3 5 12 4 20 -3 7 -6 11 -15 8 -21z m-340 1 c-3 -5 -10 -7 -15 -3 -5 3 -7 10 -3 15 3 5 10 7 15 3 5 -3 7 -10 3 -15z"/>
<path d="M3144 512 c-14 -9 -27 -62 -15 -62 5 0 12 7 15 16 4 10 14 14 26 11 13 -3 20 0 20 9 0 17 -32 35 -46 26z"/>
<path d="M4177 503 c-14 -13 -6 -23 18 -23 16 0 25 6 25 15 0 15 -31 21 -43 8z"/>
<path d="M4175 430 c3 -5 12 -10 20 -10 8 0 17 5 20 10 4 6 -5 10 -20 10 -15 0 -24 -4 -20 -10z"/>
<path d="M4177 363 c-13 -13 -7 -32 8 -27 8 4 15 12 15 20 0 15 -12 19 -23 7z"/>
<path d="M4715 439 c-4 -6 -5 -13 -2 -16 7 -7 27 6 27 18 0 12 -17 12 -25 -2z"/>
</g>
</g>
  <g id="id1:id1" transform="matrix(1.25,0,0,1.25,0.0,0.0)"><g transform="translate(0.000000,140.800000) scale(0.040000,-0.040000)" fill="#05070a" stroke="none">
<path d="M57 3463 c-4 -3 -7 -770 -7 -1704 l0 -1699 23 -5 c12 -3 1293 -4 2847 -3 l2825 3 0 1705 0 1705 -2841 3 c-1562 1 -2844 -1 -2847 -5z m377 -94 c-3 -5 -10 -7 -15 -3 -5 3 -7 10 -3 15 3 5 10 7 15 3 5 -3 7 -10 3 -15z m234 -2 c2 -10 -4 -19 -15 -23 -10 -3 -26 -10 -36 -15 -12 -6 -26 -5 -47 6 -64 33 -49 57 33 53 50 -2 62 -6 65 -21z m224 -26 c7 -42 6 -47 -25 -73 -34 -29 -68 -36 -85 -15 -12 14 -1 47 22 66 9 7 16 23 16 36 0 29 9 37 39 33 22 -3 27 -10 33 -47z m192 40 c3 -4 -6 -19 -19 -31 -31 -29 -53 -16 -29 18 15 22 39 29 48 13z m83 -7 c9 -25 -13 -40 -26 -16 -10 19 -6 32 11 32 5 0 11 -7 15 -16z m217 7 c3 -5 -1 -14 -8 -20 -16 -13 -32 2 -21 19 8 12 22 13 29 1z m264 -3 c7 -7 12 -22 12 -34 0 -26 55 -76 79 -72 22 4 33 74 14 90 -9 7 -10 15 -4 21 12 12 34 -1 27 -18 -3 -8 1 -19 9 -25 8 -7 17 -22 21 -33 3 -12 15 -29 27 -38 13 -11 18 -22 13 -34 -5 -14 -9 -16 -18 -7 -20 20 -40 14 -70 -20 -22 -25 -28 -39 -23 -58 14 -56 16 -88 6 -94 -6 -4 -11 -15 -11 -25 0 -24 -34 -54 -57 -49 -12 3 -17 11 -15 28 1 13 -7 33 -20 47 -20 21 -23 22 -40 7 -16 -16 -18 -15 -27 7 -12 32 -4 42 21 28 18 -10 26 -6 60 30 26 29 38 51 38 71 0 38 -30 100 -48 100 -27 0 -72 -41 -80 -73 -10 -39 -18 -40 -58 -7 -29 24 -31 28 -25 75 l6 50 37 -3 c33 -3 39 0 48 22 7 20 17 26 38 26 15 0 33 -5 40 -12z m4017 -1048 l0 -1055 -920 0 -920 0 0 1040 c0 572 3 1048 7 1058 7 16 58 17 920 15 l913 -3 0 -1055z m-4449 970 c13 0 26 4 29 10 4 6 17 4 36 -6 24 -12 34 -13 45 -4 20 17 30 -14 15 -46 -6 -14 -9 -30 -6 -35 10 -14 -15 -53 -27 -41 -7 7 -6 17 1 30 26 48 -21 76 -69 40 -32 -23 -41 -43 -43 -99 l-2 -34 -35 3 c-32 2 -37 -1 -56 -37 l-21 -39 35 -37 c33 -34 34 -37 18 -53 -16 -15 -18 -15 -29 -1 -7 8 -20 18 -29 22 -18 7 -25 56 -10 71 4 4 7 11 7 14 2 25 23 63 57 103 35 42 39 53 38 96 -2 66 -2 69 12 55 7 -7 22 -12 34 -12z m-559 -27 c3 -8 1 -19 -6 -26 -8 -8 -16 -6 -32 10 -12 11 -19 26 -15 31 8 14 46 3 53 -15z m1247 6 c-3 -5 -10 -7 -15 -3 -5 3 -7 10 -3 15 3 5 10 7 15 3 5 -3 7 -10 3 -15z m-1399 -98 c8 -13 -35 -83 -49 -78 -13 5 -9 56 6 74 12 15 34 17 43 4z m530 -11 c3 -4 -6 -15 -20 -24 -23 -15 -26 -15 -31 -1 -10 25 3 44 26 38 11 -3 22 -9 25 -13z m875 -63 c0 -11 -9 -30 -20 -44 -11 -14 -20 -39 -20 -54 0 -17 9 -37 20 -46 19 -17 27 -62 13 -76 -3 -4 -13 -1 -21 6 -8 6 -37 13 -65 14 -70 2 -76 14 -27 53 50 40 62 67 62 145 0 33 2 64 6 69 7 13 52 -45 52 -67z m-524 7 c-5 -13 -10 -14 -18 -6 -6 6 -8 18 -4 28 5 13 10 14 18 6 6 -6 8 -18 4 -28z m-686 -76 c0 -31 -5 -40 -30 -53 -33 -17 -96 -20 -105 -5 -3 6 5 14 19 20 39 14 66 47 66 78 0 16 3 32 7 36 13 13 43 -39 43 -76z m284 61 c-3 -5 -10 -7 -15 -3 -5 3 -7 10 -3 15 3 5 10 7 15 3 5 -3 7 -10 3 -15z m-695 -32 c6 -8 8 -17 5 -20 -10 -9 -45 13 -39 24 9 13 21 11 34 -4z m1011 -30 c0 -22 -22 -45 -50 -50 -16 -4 -30 -13 -30 -21 0 -7 -6 -19 -13 -25 -11 -8 -18 -6 -32 9 l-19 21 22 6 c23 5 25 10 26 53 1 19 6 25 23 25 13 0 28 6 35 13 10 10 15 9 25 -5 7 -9 13 -21 13 -26z m-1085 3 c11 -17 -5 -32 -21 -19 -7 6 -11 15 -8 20 7 12 21 11 29 -1z m1262 -23 c12 -10 37 -20 55 -21 38 -2 40 -13 4 -31 -21 -11 -27 -11 -37 1 -6 8 -20 14 -30 14 -15 0 -19 -7 -19 -36 0 -27 7 -43 30 -64 l30 -28 -47 -26 c-61 -35 -89 -41 -100 -24 -4 8 -16 17 -25 21 -10 3 -18 13 -18 21 0 7 -10 16 -21 19 l-21 6 22 31 c14 20 20 39 16 54 -7 28 3 40 20 25 23 -19 59 -2 77 36 18 38 24 38 64 2z m-1103 -36 c3 -5 -1 -14 -8 -20 -16 -13 -32 2 -21 19 8 12 22 13 29 1z m-93 -74 c-7 -7 -15 -6 -25 3 -22 17 -9 32 16 19 14 -8 17 -14 9 -22z m3167 11 c14 -18 33 -231 22 -242 -11 -11 -30 33 -30 68 0 15 -18 40 -48 68 -41 39 -57 47 -113 57 -91 15 -290 15 -312 -2 -16 -11 -17 -50 -15 -537 3 -477 5 -528 20 -557 10 -18 27 -33 40 -35 13 -2 22 -7 21 -13 -2 -6 -68 -10 -173 -10 -105 0 -171 4 -172 10 -2 6 7 11 19 13 12 2 30 15 40 30 17 25 18 63 21 549 2 387 0 528 -9 544 l-11 22 -159 -7 c-102 -4 -170 -12 -193 -21 -45 -19 -88 -73 -101 -127 -6 -24 -15 -41 -20 -38 -13 6 -7 198 6 222 9 17 42 18 583 18 447 0 576 -3 584 -12z m-2244 -19 c-3 -5 -10 -7 -15 -3 -5 3 -7 10 -3 15 3 5 10 7 15 3 5 -3 7 -10 3 -15z m-303 -14 c60 -31 57 -52 -4 -28 -51 20 -69 32 -61 44 7 12 8 12 65 -16z m248 -5 c16 0 71 -55 71 -69 0 -18 52 -34 72 -22 12 7 20 6 29 -5 7 -8 20 -12 31 -8 14 4 21 -1 29 -24 13 -39 62 -61 91 -43 22 14 35 6 40 -24 2 -17 -3 -21 -36 -23 -21 -2 -50 2 -65 8 -15 6 -44 12 -66 14 -28 3 -41 9 -46 24 -10 28 -45 45 -75 38 -29 -8 -31 -36 -4 -61 24 -22 17 -35 -18 -35 -33 0 -87 32 -101 59 -9 16 -8 22 9 31 24 13 15 44 -11 37 -25 -7 -57 51 -33 60 8 3 22 22 30 42 14 33 16 34 28 19 7 -10 19 -18 25 -18z m-455 -11 c-3 -5 -10 -7 -15 -3 -5 3 -7 10 -3 15 3 5 10 7 15 3 5 -3 7 -10 3 -15z m-359 -39 c-3 -5 -28 -6 -55 -3 l-49 6 -11 -28 -11 -29 -22 23 -22 22 19 15 c11 8 27 14 36 14 9 0 25 6 35 14 16 11 23 11 52 -6 18 -11 31 -24 28 -28z m914 24 c-6 -7 -15 -11 -21 -8 -5 3 -4 12 3 20 6 7 15 11 21 8 5 -3 4 -12 -3 -20z m-235 -17 c17 -12 17 -14 1 -27 -15 -12 -19 -12 -31 4 -23 32 -3 47 30 23z m-589 -23 c31 -21 26 -27 -22 -27 -27 0 -38 5 -44 19 -3 10 -5 22 -3 26 6 10 39 2 69 -18z m1130 -24 c-5 -8 -11 -8 -17 -2 -6 6 -7 16 -3 22 5 8 11 8 17 2 6 -6 7 -16 3 -22z m-987 -21 c2 -14 -4 -31 -12 -38 -13 -11 -17 -9 -26 15 -6 15 -8 34 -5 41 8 24 40 10 43 -18z m1267 -9 c-5 -8 -11 -8 -17 -2 -6 6 -7 16 -3 22 5 8 11 8 17 2 6 -6 7 -16 3 -22z m-11 -41 c-3 -5 -10 -7 -15 -3 -5 3 -7 10 -3 15 3 5 10 7 15 3 5 -3 7 -10 3 -15z m-1470 -10 c-3 -5 -10 -7 -15 -3 -5 3 -7 10 -3 15 3 5 10 7 15 3 5 -3 7 -10 3 -15z m615 0 c22 -11 45 -27 52 -35 42 -51 192 -90 297 -79 44 5 67 3 78 -6 8 -6 24 -12 37 -13 16 -1 21 -7 19 -21 -5 -27 -11 -32 -55 -39 -33 -6 -38 -4 -49 19 -15 32 -47 30 -65 -4 -6 -14 -22 -30 -35 -37 -28 -15 -45 -71 -52 -176 -6 -98 -1 -118 31 -118 29 0 53 49 53 109 0 45 17 62 36 36 10 -13 21 -16 48 -11 46 9 58 -11 23 -36 -15 -11 -27 -25 -27 -32 0 -20 40 -66 57 -66 20 0 42 29 43 56 0 22 23 46 55 59 59 22 185 5 185 -25 0 -6 -13 -19 -30 -28 -16 -9 -39 -36 -50 -58 -10 -23 -40 -59 -65 -79 -25 -21 -45 -44 -45 -51 0 -8 -16 -24 -35 -36 -26 -17 -35 -30 -35 -50 0 -59 82 -23 173 75 26 28 47 58 47 67 0 8 14 28 29 43 l29 29 25 -17 c16 -10 34 -14 50 -10 34 9 41 -8 13 -34 -20 -19 -24 -20 -36 -6 -7 8 -22 15 -34 15 -20 -1 -38 -22 -134 -162 -43 -62 -125 -124 -177 -133 -62 -11 -125 -51 -125 -79 0 -33 21 -38 59 -15 31 19 81 25 94 12 10 -9 -13 -33 -32 -33 -9 0 -34 -9 -56 -20 -22 -11 -47 -20 -57 -20 -10 0 -25 -12 -35 -26 -15 -23 -18 -24 -28 -10 -7 9 -21 16 -31 16 -11 0 -28 9 -37 21 -10 11 -25 18 -32 15 -29 -11 -24 13 9 42 19 16 43 50 54 76 12 25 25 46 30 46 4 0 27 16 50 36 32 27 42 43 42 65 0 22 6 32 24 39 33 12 63 89 46 120 l-12 22 -19 -18 c-11 -10 -28 -37 -39 -61 l-19 -43 -44 0 c-25 0 -58 -7 -73 -15 -57 -30 -113 -13 -80 24 9 10 16 22 16 28 0 14 -30 72 -41 78 -13 9 -68 -36 -68 -56 -2 -30 -13 -27 -94 27 -45 30 -91 54 -103 54 -12 0 -27 7 -35 16 -11 13 -8 19 16 38 20 16 26 28 22 40 -4 10 -4 23 0 29 5 7 9 26 10 42 2 17 5 50 8 75 7 64 7 70 2 115 -3 22 -10 41 -16 43 -7 2 -18 18 -26 35 -8 18 -20 39 -26 48 -7 9 -9 24 -5 34 5 13 12 15 34 9 41 -11 85 -6 94 11 12 20 20 19 67 -6z m684 -20 c-17 -17 -37 -1 -22 17 8 10 15 12 23 4 7 -7 7 -13 -1 -21z m81 -40 c-3 -5 -10 -7 -15 -3 -5 3 -7 10 -3 15 3 5 10 7 15 3 5 -3 7 -10 3 -15z m160 -10 c-3 -5 -10 -7 -15 -3 -5 3 -7 10 -3 15 3 5 10 7 15 3 5 -3 7 -10 3 -15z m-1519 -2 c23 -17 3 -33 -22 -18 -14 8 -24 4 -45 -16 -25 -24 -28 -25 -34 -8 -8 20 22 49 43 41 7 -3 15 -1 18 4 8 13 18 12 40 -3z m1258 -30 c21 -8 22 -20 3 -36 -11 -9 -20 -4 -45 24 -35 40 -33 69 3 37 11 -10 29 -22 39 -25z m-947 2 c75 -42 97 -74 90 -123 -8 -50 -15 -60 -31 -46 -7 5 -23 9 -35 8 -32 -4 -37 20 -7 31 14 6 28 14 31 20 11 17 -25 62 -54 68 -38 7 -85 73 -52 73 2 0 29 -14 58 -31z m-187 -27 c25 -22 59 -47 75 -57 l29 -19 -22 -14 c-22 -15 -28 -46 -11 -57 13 -8 -4 -50 -20 -50 -8 0 -17 11 -20 25 -4 14 -21 49 -39 78 -17 29 -31 59 -31 66 0 7 -9 21 -20 31 -19 17 -19 35 2 35 5 0 31 -17 57 -38z m1405 -23 c-3 -5 -10 -7 -15 -3 -5 3 -7 10 -3 15 3 5 10 7 15 3 5 -3 7 -10 3 -15z m-63 -35 c19 -23 -2 -36 -34 -19 -15 7 -27 12 -27 9 0 -3 -5 -2 -10 1 -17 10 -4 20 28 22 17 1 36 -5 43 -13z m-1166 -33 c7 -12 -12 -24 -25 -16 -11 7 -4 25 10 25 5 0 11 -4 15 -9z m-260 -97 c12 -35 20 -43 65 -64 8 -4 20 -17 26 -29 7 -13 17 -28 23 -34 6 -6 11 -23 11 -39 0 -36 29 -53 65 -36 18 8 24 17 19 27 -24 60 -26 72 -13 88 8 9 19 36 24 62 8 38 14 45 33 45 l22 0 3 -134 c2 -121 4 -139 24 -170 20 -30 23 -49 23 -130 0 -78 4 -101 20 -128 35 -57 10 -56 -45 2 -57 61 -83 68 -114 35 -25 -27 -51 -19 -51 15 0 15 -8 30 -20 36 -17 9 -18 14 -9 31 l11 21 32 -31 c36 -34 44 -37 70 -18 26 19 9 53 -69 137 -36 39 -65 75 -65 80 0 4 -21 34 -46 66 -25 33 -48 71 -51 86 -3 15 -12 33 -19 39 -8 6 -14 20 -14 31 0 11 -5 28 -11 39 -6 12 -8 28 -4 37 5 14 8 13 26 -5 11 -11 26 -37 34 -59z m1260 67 c7 -12 -12 -24 -25 -16 -11 7 -4 25 10 25 5 0 11 -4 15 -9z m-100 -36 c0 -15 -9 -21 -40 -26 -34 -6 -43 -4 -57 14 -24 31 -13 38 45 35 44 -3 52 -6 52 -23z m232 -34 c78 -21 65 -42 -25 -44 l-57 0 -3 34 c-2 19 -8 39 -13 45 -19 23 6 23 30 0 14 -13 45 -29 68 -35z m-1032 -61 c-5 -8 -11 -8 -17 -2 -6 6 -7 16 -3 22 5 8 11 8 17 2 6 -6 7 -16 3 -22z m9 -41 c-3 -5 -10 -7 -15 -3 -5 3 -7 10 -3 15 3 5 10 7 15 3 5 -3 7 -10 3 -15z m-480 -61 c-3 -5 -12 -4 -20 3 -7 6 -11 15 -8 21 3 5 12 4 20 -3 7 -6 11 -15 8 -21z m1600 -59 c-3 -5 -10 -7 -15 -3 -5 3 -7 10 -3 15 3 5 10 7 15 3 5 -3 7 -10 3 -15z m-1625 -55 c-6 -7 -15 -11 -21 -8 -5 3 -4 12 3 20 6 7 15 11 21 8 5 -3 4 -12 -3 -20z m-29 -29 c0 -17 -17 -28 -30 -20 -7 4 -7 13 0 26 12 21 30 17 30 -6z m1503 -28 c-4 -7 -6 -19 -5 -28 1 -8 -6 -23 -17 -33 -27 -25 -38 -2 -15 32 10 15 19 30 20 35 1 4 2 10 3 13 0 3 6 2 11 -1 6 -4 7 -12 3 -18z m-1299 -28 c-3 -5 -14 -4 -25 1 -20 11 -24 22 -12 33 9 9 44 -23 37 -34z m-106 -13 c5 -39 -13 -55 -35 -33 -14 13 -15 21 -5 42 15 33 36 28 40 -9z m187 -206 c-5 -8 -11 -8 -17 -2 -6 6 -7 16 -3 22 5 8 11 8 17 2 6 -6 7 -16 3 -22z m140 1 c0 -16 -41 -46 -48 -34 -3 4 -1 18 4 31 10 25 44 27 44 3z m1140 0 c7 -12 -12 -24 -25 -16 -11 7 -4 25 10 25 5 0 11 -4 15 -9z m-1080 -51 c-3 -5 -1 -11 5 -15 6 -4 8 -11 4 -16 -3 -5 -10 -7 -15 -3 -5 3 -7 9 -4 14 3 5 1 11 -5 15 -6 4 -8 11 -4 16 3 5 10 7 15 3 5 -3 7 -9 4 -14z m-290 -70 c0 -27 -22 -39 -31 -16 -8 22 3 49 19 43 6 -2 12 -14 12 -27z m675 -6 c0 -17 8 -27 24 -33 30 -12 41 -40 18 -48 -9 -4 -22 -13 -28 -21 -16 -22 -58 -11 -62 16 -2 14 -14 27 -30 33 l-27 11 44 38 c48 42 61 43 61 4z m-780 -38 c0 -28 7 -52 19 -67 17 -22 22 -23 50 -12 35 13 37 11 46 -39 6 -29 2 -45 -20 -81 -14 -25 -32 -51 -40 -57 -8 -7 -15 -21 -15 -31 0 -31 -18 -31 -51 1 -37 35 -42 36 -63 14 -20 -20 -16 -26 40 -64 51 -36 51 -48 0 -42 -37 4 -72 42 -63 67 3 7 1 17 -5 23 -6 6 -11 48 -11 94 1 69 5 91 25 128 71 131 88 143 88 66z m495 14 c-5 -8 -11 -8 -17 -2 -6 6 -7 16 -3 22 5 8 11 8 17 2 6 -6 7 -16 3 -22z m953 -40 c21 -20 56 -57 80 -83 l42 -47 0 -104 c0 -58 -4 -107 -9 -110 -15 -9 -1016 -8 -1017 1 -2 7 8 23 79 124 30 43 52 43 42 0 -8 -37 14 -55 57 -47 25 5 43 19 73 62 46 63 66 78 115 89 19 4 76 27 125 51 l90 44 65 -27 c77 -30 144 -75 166 -109 20 -30 60 -32 69 -4 4 12 2 27 -4 34 -13 15 -5 27 14 20 40 -16 19 77 -23 103 -42 26 -72 55 -66 65 7 11 58 -19 102 -62z m-184 9 c-3 -5 -10 -7 -15 -3 -5 3 -7 10 -3 15 3 5 10 7 15 3 5 -3 7 -10 3 -15z m-342 -25 c-5 -27 -44 -49 -70 -39 -20 7 -12 20 28 48 41 28 49 27 42 -9z m-529 -119 c-1 -54 -8 -86 -31 -140 l-31 -70 -84 0 c-131 0 -166 35 -109 105 16 19 34 45 41 58 6 12 16 22 21 22 5 0 36 20 67 44 65 49 79 56 108 53 18 -2 20 -9 18 -72z m387 11 c0 -17 -27 -40 -33 -29 -8 13 12 55 23 48 5 -3 10 -12 10 -19z m-233 -39 c-8 -12 -17 -35 -21 -52 -9 -35 -25 -57 -37 -50 -9 6 12 73 36 109 10 14 21 23 27 20 5 -3 3 -15 -5 -27z m4766 -310 c15 -11 17 -59 19 -502 1 -270 -2 -496 -6 -503 -11 -19 -5509 -17 -5525 2 -8 9 -10 151 -9 507 l3 494 35 6 c19 4 1257 7 2751 8 2158 1 2719 -2 2732 -12z"/>
<path d="M1363 2938 c-17 -21 13 -108 37 -108 27 0 30 10 22 66 -6 39 -11 50 -28 52 -11 2 -25 -3 -31 -10z"/>
<path d="M1550 2230 c0 -5 7 -10 15 -10 8 0 15 5 15 10 0 6 -7 10 -15 10 -8 0 -15 -4 -15 -10z"/>
<path d="M1500 2210 c0 -5 7 -10 15 -10 8 0 15 5 15 10 0 6 -7 10 -15 10 -8 0 -15 -4 -15 -10z"/>
<path d="M3031 1062 c-46 -23 -70 -58 -77 -113 -12 -89 48 -159 137 -159 62 0 89 9 89 30 0 15 -6 17 -40 13 -35 -5 -43 -2 -75 30 -49 49 -49 99 -1 146 30 29 39 33 70 27 23 -4 43 -17 56 -36 36 -51 68 -9 40 52 -10 21 -18 23 -88 25 -56 2 -86 -2 -111 -15z"/>
<path d="M237 1064 c-10 -11 -8 -43 4 -66 l11 -20 23 22 c13 12 31 20 41 18 17 -3 19 -13 17 -93 -1 -72 -4 -91 -19 -102 -26 -19 -9 -28 56 -28 65 0 82 9 56 28 -25 18 -20 190 6 195 9 2 27 -7 39 -19 17 -17 23 -19 30 -8 5 8 8 28 7 44 l-3 30 -131 3 c-71 1 -133 -1 -137 -4z"/>
<path d="M1282 1061 c-16 -4 -36 -29 -61 -76 -21 -39 -44 -70 -51 -70 -8 0 -30 32 -50 70 l-36 70 -52 3 c-43 3 -52 0 -52 -14 0 -9 8 -22 17 -29 24 -18 22 -174 -3 -192 -25 -18 -9 -28 46 -28 59 0 68 7 41 34 -22 22 -28 65 -12 76 5 3 24 -19 41 -50 17 -30 35 -57 40 -60 15 -9 38 6 49 33 6 15 15 34 20 42 5 8 12 23 15 33 8 27 26 11 26 -24 0 -16 -9 -38 -21 -50 -17 -17 -19 -23 -8 -30 19 -12 100 -11 119 1 13 8 12 11 -4 23 -16 12 -19 26 -18 96 0 61 5 87 16 100 22 24 20 38 -6 45 -26 6 -24 6 -56 -3z"/>
<path d="M1528 1062 c-60 -3 -74 -17 -43 -42 23 -19 21 -167 -2 -192 -15 -17 -15 -20 -3 -28 20 -13 101 -12 120 0 13 9 12 13 -8 28 -35 27 -27 66 14 68 43 2 71 19 89 54 14 27 14 33 0 60 -24 47 -61 58 -167 52z m92 -68 c11 -13 10 -19 -7 -36 -24 -24 -43 -17 -43 16 0 38 27 49 50 20z"/>
<path d="M1823 1063 c-27 -5 -29 -20 -6 -45 25 -28 25 -158 -1 -187 -10 -11 -15 -24 -12 -29 3 -5 55 -10 115 -11 l110 -2 15 23 c8 13 16 32 18 43 4 28 -30 32 -48 6 -17 -24 -84 -30 -102 -8 -6 6 -10 42 -11 78 0 54 4 70 19 84 31 28 25 45 -14 45 -19 0 -40 2 -48 4 -7 2 -23 1 -35 -1z"/>
<path d="M2158 1053 c-7 -8 -3 -17 11 -30 18 -15 21 -29 21 -100 0 -73 -2 -84 -22 -97 -12 -9 -19 -18 -15 -22 10 -10 221 -16 235 -6 7 5 15 25 19 45 7 43 -8 49 -43 16 -15 -14 -37 -22 -61 -23 l-38 -1 0 35 c0 29 4 36 23 38 13 2 33 -4 43 -14 17 -16 22 -16 29 -4 6 8 10 30 10 49 0 19 7 42 15 51 12 13 13 23 6 43 l-10 26 -106 3 c-74 2 -110 -1 -117 -9z m191 -46 c8 -10 4 -19 -20 -36 -16 -12 -38 -21 -47 -19 -18 3 -27 30 -18 54 7 18 70 19 85 1z"/>
<path d="M3433 1054 c-46 -23 -76 -76 -75 -131 1 -81 47 -123 145 -130 78 -5 119 17 147 81 20 49 16 96 -15 142 -33 51 -136 70 -202 38z m129 -58 c45 -56 13 -166 -49 -166 -32 0 -70 40 -78 83 -17 89 74 149 127 83z"/>
<path d="M3770 1055 c-9 -10 -6 -16 9 -25 19 -10 21 -20 21 -97 0 -68 -4 -91 -17 -105 -26 -29 -2 -38 102 -36 112 2 131 8 140 48 10 48 -10 62 -39 28 -16 -21 -31 -28 -57 -28 -50 0 -59 14 -59 93 0 72 11 107 35 107 21 0 19 18 -2 23 -37 10 -123 4 -133 -8z"/>
<path d="M4140 1060 c-12 -8 -12 -12 0 -36 23 -41 20 -166 -4 -193 -11 -12 -16 -24 -12 -29 4 -4 58 -7 119 -7 l112 0 19 38 c26 53 9 70 -34 33 -34 -28 -97 -36 -105 -13 -2 6 -6 43 -8 82 -3 62 -1 72 20 93 13 13 21 28 18 33 -8 12 -105 12 -125 -1z"/>
<path d="M4488 1063 c-24 -6 -23 -19 2 -26 18 -5 20 -14 20 -98 0 -72 -4 -96 -17 -111 -9 -10 -14 -20 -11 -23 4 -5 169 -9 216 -6 7 1 20 17 29 37 15 30 15 36 3 44 -10 6 -23 2 -41 -16 -21 -20 -35 -25 -65 -22 l-39 3 0 35 c0 28 4 36 22 38 12 2 31 -6 43 -18 27 -27 34 -20 35 37 1 31 6 48 18 55 20 11 23 53 5 65 -14 8 -192 13 -220 6z m178 -55 c9 -14 -31 -48 -57 -48 -22 0 -34 22 -25 45 7 18 71 21 82 3z"/>
<path d="M4932 1059 c-20 -6 -41 -24 -58 -49 -47 -71 -32 -148 38 -193 45 -29 104 -35 167 -17 41 12 51 24 51 68 0 18 6 42 13 53 10 18 9 23 -10 36 -18 12 -20 18 -11 32 19 31 2 68 -33 75 -43 8 -118 6 -157 -5z m137 -55 c23 -29 20 -44 -10 -44 -20 0 -27 -34 -9 -45 17 -10 11 -51 -9 -69 -18 -17 -21 -17 -56 0 -67 31 -82 107 -33 160 33 34 89 33 117 -2z"/>
<path d="M5283 1063 c-27 -5 -29 -12 -6 -28 24 -18 22 -194 -3 -212 -10 -7 -15 -16 -11 -19 3 -4 56 -7 117 -7 97 0 112 2 125 19 16 22 20 60 6 69 -6 3 -19 -4 -29 -15 -12 -13 -36 -23 -61 -25 -36 -3 -43 -1 -53 20 -6 13 -8 31 -5 39 8 21 46 20 68 0 30 -27 49 -11 49 40 0 25 5 48 10 51 17 11 12 63 -7 68 -21 6 -169 5 -200 0z m164 -50 c8 -21 -33 -55 -60 -51 -19 3 -32 41 -20 61 9 15 73 7 80 -10z"/>
<path d="M620 1042 c0 -11 7 -25 15 -32 11 -9 15 -33 15 -91 0 -69 -2 -80 -22 -94 -36 -25 -6 -35 109 -35 111 0 133 9 133 56 0 29 -20 31 -45 4 -14 -16 -29 -20 -59 -18 l-41 3 0 35 c0 43 26 52 60 20 l23 -22 11 20 c6 11 10 31 9 44 -1 13 7 38 17 56 15 25 17 36 9 50 -9 14 -30 17 -123 20 -104 2 -111 1 -111 -16z m179 -35 c14 -18 -29 -60 -55 -55 -20 3 -29 30 -20 54 7 18 60 18 75 1z"/>
<path d="M3220 870 c0 -5 5 -10 10 -10 6 0 10 5 10 10 0 6 -4 10 -10 10 -5 0 -10 -4 -10 -10z"/>
</g>
</g>
  <g id="id2:id2" transform="matrix(1.25,0,0,1.25,0.0,0.0)"><g transform="translate(0.000000,140.800000) scale(0.040000,-0.040000)" fill="#ffffff" stroke="none">
<path d="M34 3479 c-10 -17 13 -36 27 -22 12 12 4 33 -11 33 -5 0 -12 -5 -16 -11z"/>
<path d="M5740 3470 c0 -5 5 -10 10 -10 6 0 10 5 10 10 0 6 -4 10 -10 10 -5 0 -10 -4 -10 -10z"/>
<path d="M364 3396 c-12 -10 -23 -11 -31 -5 -16 14 -113 -1 -120 -17 -11 -29 69 -117 101 -112 32 5 30 31 -4 52 -35 20 -35 39 -2 41 13 1 28 7 33 12 8 8 25 4 58 -13 51 -28 58 -45 21 -54 -35 -8 -34 -44 2 -48 21 -3 27 1 30 20 2 17 10 24 33 26 17 2 34 8 40 13 25 24 67 0 45 -26 -12 -15 -6 -35 11 -35 5 0 23 -10 40 -22 26 -19 31 -20 39 -8 29 44 40 156 18 178 -7 7 -44 12 -95 12 -73 0 -84 -2 -94 -21 l-11 -21 -19 21 c-23 24 -66 27 -95 7z"/>
<path d="M813 3403 c-7 -2 -13 -14 -13 -26 0 -11 -8 -30 -18 -41 -24 -27 -46 -82 -39 -99 3 -8 27 -17 53 -21 44 -6 50 -4 69 21 28 34 48 23 39 -22 -6 -31 -4 -34 23 -37 22 -2 29 -9 31 -30 4 -36 25 -41 53 -12 20 21 21 26 8 41 -26 32 -39 62 -39 88 0 18 -7 26 -25 31 -29 7 -45 31 -45 66 0 13 -5 29 -12 36 -12 12 -62 15 -85 5z"/>
<path d="M1042 3398 c-15 -15 -16 -45 -1 -53 5 -4 19 1 29 10 14 13 29 16 54 12 36 -6 64 12 51 33 -9 14 -118 13 -133 -2z"/>
<path d="M1264 3399 c-10 -17 13 -36 27 -22 12 12 4 33 -11 33 -5 0 -12 -5 -16 -11z"/>
<path d="M1337 3403 c-4 -3 -7 -23 -7 -44 0 -47 -25 -66 -53 -42 -16 15 -19 15 -41 -6 -19 -18 -28 -21 -44 -12 -25 14 -32 5 -25 -31 6 -29 -7 -67 -36 -101 -8 -9 -12 -18 -10 -20 2 -1 19 -12 37 -25 18 -13 37 -20 42 -17 6 3 10 30 10 59 0 56 13 77 56 90 30 9 52 -18 33 -40 -12 -14 -10 -19 13 -38 18 -14 28 -33 30 -56 3 -32 6 -35 33 -35 28 0 30 3 33 42 3 36 0 42 -19 45 -28 4 -47 53 -30 80 6 10 11 28 11 42 0 34 38 78 64 74 18 -3 21 -11 24 -54 2 -40 -1 -54 -18 -69 -32 -29 -25 -45 20 -45 43 0 48 -6 74 -81 34 -97 11 -133 -50 -80 -49 44 -68 38 -75 -24 -6 -50 13 -148 33 -172 14 -17 43 -16 58 2 10 12 7 20 -19 44 -34 32 -40 61 -16 81 13 10 19 10 33 -2 9 -9 33 -15 52 -14 33 1 35 3 40 41 4 32 9 40 25 40 16 0 20 -7 20 -30 0 -23 7 -33 28 -43 24 -12 31 -11 51 2 41 26 72 156 44 184 -9 9 -5 19 17 42 16 16 34 30 41 30 7 0 22 14 34 30 12 17 28 30 36 30 18 0 46 67 42 100 -3 28 -35 40 -49 18 -5 -7 -9 -27 -9 -44 0 -16 -6 -38 -13 -48 -13 -18 -15 -17 -35 12 -12 16 -22 39 -22 49 0 26 -19 43 -47 43 -28 0 -41 -26 -25 -51 7 -10 12 -27 12 -38 0 -20 -27 -48 -37 -38 -15 16 -33 -19 -33 -62 0 -39 -5 -52 -30 -76 -28 -26 -31 -27 -48 -12 -13 12 -17 27 -14 55 3 32 14 49 53 88 52 51 59 75 33 112 -22 32 -114 30 -114 -3 0 -26 -21 -26 -51 -1 -26 22 -40 26 -93 26 -35 0 -66 -3 -69 -7z"/>
<path d="M3813 3403 c-19 -7 -19 -2141 0 -2149 7 -2 430 -5 940 -7 l927 -2 5 30 c3 17 4 503 3 1080 l-3 1050 -930 2 c-511 1 -936 -1 -942 -4z m1132 -443 c39 -10 99 -28 135 -39 77 -25 129 -27 156 -6 26 20 51 19 63 -3 14 -27 34 -253 23 -264 -6 -6 -17 4 -31 27 -11 20 -21 39 -21 42 0 13 -117 128 -145 144 -17 9 -57 24 -90 34 -33 9 -68 21 -78 26 -26 14 -242 12 -285 -2 -20 -6 -74 -29 -119 -51 -121 -57 -179 -133 -242 -314 -18 -52 -21 -83 -21 -234 0 -164 1 -175 24 -214 13 -23 31 -63 42 -90 12 -34 39 -70 85 -115 59 -59 77 -70 170 -106 l104 -40 130 0 c78 0 131 -4 133 -10 2 -5 -5 -12 -15 -14 -10 -2 -23 -8 -30 -13 -18 -15 -240 -22 -298 -10 -27 6 -71 15 -96 21 -109 23 -292 137 -339 209 -14 21 -40 61 -58 87 -63 95 -74 142 -70 305 l3 145 39 80 c76 154 144 234 246 290 113 62 196 98 238 103 26 2 52 8 57 11 6 4 50 8 100 10 49 1 92 4 94 7 7 7 23 4 96 -16z m400 -990 c-5 -8 -11 -8 -17 -2 -6 6 -7 16 -3 22 5 8 11 8 17 2 6 -6 7 -16 3 -22z m-31 -41 c-3 -5 -10 -7 -15 -3 -5 3 -7 10 -3 15 3 5 10 7 15 3 5 -3 7 -10 3 -15z m-40 -30 c-3 -5 -10 -7 -15 -3 -5 3 -7 10 -3 15 3 5 10 7 15 3 5 -3 7 -10 3 -15z m-150 -110 c-3 -5 -10 -7 -15 -3 -5 3 -7 10 -3 15 3 5 10 7 15 3 5 -3 7 -10 3 -15z m-39 -8 c7 -12 -12 -24 -25 -16 -11 7 -4 25 10 25 5 0 11 -4 15 -9z"/>
<path d="M996 3324 c-9 -22 -8 -24 9 -24 8 0 15 9 15 20 0 24 -15 27 -24 4z"/>
<path d="M155 3280 c-11 -17 7 -30 33 -24 21 6 31 24 13 24 -5 0 -16 3 -24 6 -8 3 -18 0 -22 -6z"/>
<path d="M190 3215 c-7 -8 -23 -15 -36 -15 -27 0 -48 -32 -39 -60 9 -27 31 -25 51 5 10 15 26 25 40 25 29 0 38 14 24 40 -13 24 -23 25 -40 5z"/>
<path d="M317 3223 c-11 -11 -8 -69 6 -95 17 -33 76 -109 101 -130 12 -10 30 -18 40 -18 l19 0 -20 23 c-31 33 -99 147 -114 190 -13 37 -20 43 -32 30z"/>
<path d="M380 3194 c0 -31 23 -28 28 4 2 15 -2 22 -12 22 -11 0 -16 -9 -16 -26z"/>
<path d="M455 3202 c-6 -4 -16 -25 -22 -46 -10 -31 -9 -46 1 -70 21 -49 67 -97 113 -118 23 -10 45 -22 47 -27 9 -14 -40 -41 -89 -50 -50 -9 -64 0 -87 55 -14 33 -131 164 -146 164 -5 0 -17 -9 -26 -19 -10 -11 -32 -21 -50 -23 -27 -3 -31 -7 -34 -34 -3 -28 0 -32 29 -38 25 -5 38 -1 55 15 l23 22 26 -17 c19 -13 24 -22 19 -40 -3 -13 -1 -27 5 -31 6 -3 9 -11 6 -16 -4 -5 -15 -3 -28 6 -25 18 -83 20 -93 4 -4 -7 3 -19 16 -29 26 -20 21 -36 -15 -42 -31 -6 -51 9 -59 45 -8 34 -24 35 -32 1 -5 -18 0 -34 14 -53 l20 -28 -19 -16 c-25 -22 -24 -33 6 -59 14 -12 25 -29 25 -39 0 -24 28 -45 42 -31 8 8 3 17 -16 35 -31 29 -26 37 19 30 31 -5 34 -3 37 23 3 26 7 29 46 32 32 2 44 -1 48 -13 9 -24 -42 -74 -68 -67 -16 4 -19 1 -16 -14 3 -14 12 -19 38 -19 52 0 45 -25 -12 -45 -26 -9 -50 -19 -53 -22 -4 -3 15 -32 41 -63 32 -40 52 -78 66 -124 19 -63 25 -79 61 -163 9 -20 32 -55 52 -76 19 -22 35 -44 35 -49 0 -5 32 -44 70 -88 39 -43 69 -86 68 -94 -2 -11 -15 -16 -42 -16 -38 0 -58 -16 -37 -30 19 -11 12 -38 -18 -70 -36 -37 -50 -92 -26 -101 10 -4 21 1 30 12 13 18 14 17 27 -13 10 -24 17 -30 25 -22 16 16 32 3 26 -21 -7 -27 23 -37 46 -16 18 16 20 16 40 -13 22 -30 51 -33 51 -6 0 19 20 29 32 17 8 -8 7 -16 -2 -27 -18 -22 3 -36 45 -33 l30 3 0 51 c-1 53 -22 134 -36 134 -5 0 -18 18 -29 40 -16 31 -20 57 -19 130 1 79 -2 97 -25 141 -23 44 -26 60 -24 127 2 43 7 77 13 77 6 -1 16 -34 23 -75 16 -86 21 -95 63 -104 27 -5 78 -33 178 -98 105 -69 168 -82 230 -48 34 20 45 22 66 12 45 -21 31 -50 -68 -140 -20 -19 -37 -42 -37 -52 0 -10 -36 -48 -84 -89 -97 -81 -134 -127 -118 -143 8 -8 15 -8 26 2 20 16 46 6 46 -17 0 -10 9 -24 20 -31 15 -9 18 -17 11 -30 -5 -9 -12 -25 -15 -36 l-6 -19 -20 18 -19 17 -27 -28 c-43 -47 -111 -147 -117 -174 -3 -14 -3 -31 1 -37 12 -19 1040 -23 1047 -5 3 8 5 67 5 133 l0 120 -89 86 c-50 47 -104 94 -121 104 -17 11 -28 24 -24 30 4 8 9 8 17 0 19 -19 57 -13 57 8 0 29 -21 40 -88 45 -94 8 -123 -12 -58 -39 l35 -15 -15 -30 c-17 -32 -49 -39 -97 -21 -26 10 -53 -1 -43 -17 4 -6 45 -34 91 -62 90 -54 102 -65 85 -75 -6 -4 -28 5 -49 19 -20 14 -40 26 -44 26 -3 0 -31 11 -61 25 -30 14 -61 25 -68 25 -8 0 -38 -16 -68 -35 -59 -38 -144 -70 -160 -60 -15 9 -2 25 19 25 10 0 35 11 55 25 20 14 42 25 49 25 20 1 45 24 49 45 2 16 -3 20 -22 20 -14 0 -27 3 -30 7 -7 9 45 48 65 48 25 0 125 57 162 92 25 24 37 29 60 24 21 -5 42 1 76 19 27 14 56 25 66 25 21 0 47 27 37 37 -3 4 -11 2 -17 -4 -6 -6 -17 -9 -24 -7 -6 3 -18 -2 -25 -11 -13 -15 -65 -21 -73 -7 -8 14 23 71 43 77 19 6 28 24 33 74 4 45 -21 32 -70 -35 -66 -92 -140 -177 -166 -191 -12 -7 -48 -12 -80 -13 -35 0 -67 -6 -81 -16 -15 -9 -27 -11 -30 -5 -9 13 52 47 96 54 67 10 144 65 196 140 26 38 50 75 54 83 5 8 13 22 18 32 6 9 14 27 19 39 14 31 30 37 50 19 16 -15 20 -15 50 0 18 9 30 21 28 27 -5 16 -55 21 -72 7 -20 -16 -40 -3 -24 16 9 11 9 18 1 26 -15 15 -60 -15 -72 -48 -5 -13 -14 -24 -20 -24 -5 0 -10 -6 -10 -14 0 -8 -8 -21 -18 -28 -9 -7 -30 -30 -45 -51 -15 -20 -34 -37 -41 -37 -7 0 -23 -11 -36 -25 -17 -18 -27 -22 -34 -14 -8 7 0 20 27 42 20 18 37 37 37 42 0 6 20 26 45 45 26 21 42 41 40 50 -5 19 29 58 77 90 24 16 38 34 40 50 3 22 8 25 43 25 60 1 145 35 151 61 10 39 1 69 -23 72 -17 3 -24 -3 -29 -25 -4 -15 -8 -31 -10 -35 -6 -10 -86 23 -114 48 -14 12 -36 25 -50 29 -14 4 -40 21 -58 38 -42 40 -60 26 -32 -25 22 -41 17 -53 -14 -33 -18 11 -100 21 -143 16 -20 -2 -15 -39 8 -70 18 -25 26 -28 72 -26 46 1 53 5 66 30 l14 29 19 -24 c17 -22 19 -22 37 -6 22 20 31 11 27 -30 l-3 -29 -84 -1 c-58 0 -94 -6 -116 -17 -41 -22 -42 -22 -53 8 -8 22 -15 25 -59 25 -28 0 -62 5 -76 12 -33 15 -45 0 -45 -57 0 -42 -24 -90 -41 -80 -11 7 -2 134 13 182 5 18 20 41 32 51 13 9 29 28 36 41 l12 24 18 -23 18 -24 55 13 c46 10 57 17 67 41 18 43 10 65 -25 65 -17 1 -37 4 -45 8 -8 4 -50 6 -92 5 -46 -2 -78 1 -78 7 0 6 16 11 37 13 20 2 42 10 48 19 10 13 18 13 72 -1 83 -22 96 -20 121 13 l21 29 -19 24 c-15 18 -21 21 -31 11 -21 -21 -46 -15 -69 17 -12 16 -24 29 -28 27 -4 -1 -9 2 -12 7 -3 5 5 10 17 11 35 3 37 11 9 38 -22 22 -26 35 -26 81 0 49 -3 57 -30 76 -16 12 -30 27 -30 34 0 20 -30 76 -41 76 -5 0 -14 -11 -19 -25 -7 -18 -16 -24 -32 -22 -17 1 -24 -4 -26 -21 -5 -34 -29 -38 -58 -11 -21 20 -25 31 -21 61 3 20 3 39 0 42 -8 8 -33 -5 -33 -18 0 -6 -9 -27 -19 -47 -29 -55 -31 -91 -3 -105 33 -16 34 -18 17 -59 l-16 -37 -42 6 c-70 12 -138 55 -162 104 -12 26 -27 42 -38 42 -27 0 -32 -28 -8 -54 26 -27 27 -42 4 -55 -17 -9 -17 -11 2 -25 11 -8 45 -24 76 -36 34 -12 64 -30 73 -45 19 -28 38 -32 56 -10 17 21 28 10 22 -21 -4 -20 4 -34 33 -64 47 -49 30 -60 -27 -17 -50 38 -194 104 -205 93 -4 -4 -2 -15 5 -26 16 -26 3 -31 -40 -18 -20 6 -43 8 -52 5 -24 -9 -19 -56 10 -98 28 -41 25 -72 -4 -46 -23 20 -109 58 -138 61 -42 5 -53 31 -36 89 13 47 13 51 -4 64 -10 7 -43 13 -75 13 -35 0 -61 5 -68 13 -15 19 -5 25 34 20 24 -3 43 1 62 15 16 11 44 22 63 23 33 4 35 2 33 -24 -2 -24 1 -27 31 -27 71 0 72 60 2 71 -53 9 -67 26 -30 39 95 34 116 86 62 163 -33 46 -68 32 -68 -28 0 -26 -42 -65 -69 -65 -21 0 -71 50 -71 71 0 7 9 29 20 47 11 18 20 39 20 46 0 22 -52 35 -75 18z m832 -234 c30 -28 29 -46 -2 -60 -19 -8 -28 -8 -40 2 -18 15 -18 20 -5 54 12 32 17 32 47 4z m-122 -58 c-5 -8 -11 -8 -17 -2 -6 6 -7 16 -3 22 5 8 11 8 17 2 6 -6 7 -16 3 -22z m-758 -33 c18 -13 6 -27 -23 -27 -28 0 -76 28 -69 40 7 11 75 1 92 -13z m878 -46 c3 -5 1 -13 -5 -16 -15 -9 -43 3 -35 15 8 13 32 13 40 1z m-778 -82 c22 -19 4 -29 -48 -29 -50 0 -62 -13 -37 -38 16 -16 43 -15 58 3 7 8 22 15 34 15 25 0 76 -51 76 -77 1 -28 35 -63 70 -69 29 -6 56 -35 43 -47 -3 -4 -17 0 -32 7 -14 7 -39 16 -54 20 -16 4 -55 29 -87 55 -41 34 -70 50 -101 55 -58 9 -69 20 -62 64 9 66 8 65 70 58 31 -4 63 -11 70 -17z m759 -30 c10 -17 -13 -36 -27 -22 -12 12 -4 33 11 33 5 0 12 -5 16 -11z m-872 -129 c24 -9 51 -53 108 -172 21 -46 42 -62 80 -63 10 0 17 -4 15 -10 -1 -5 -8 -9 -16 -8 -8 1 -22 -8 -32 -20 -19 -24 -17 -25 -33 27 -3 8 -19 16 -37 18 -25 2 -34 9 -39 28 -4 14 -20 45 -36 69 -16 24 -34 52 -40 62 -6 11 -19 28 -28 38 -32 35 2 53 58 31z m430 -61 c-3 -5 -10 -7 -15 -3 -5 3 -7 10 -3 15 3 5 10 7 15 3 5 -3 7 -10 3 -15z m5 -43 c9 -10 8 -16 -4 -26 -19 -16 -41 1 -32 24 8 20 21 20 36 2z m-204 -15 c7 -12 -12 -24 -25 -16 -11 7 -4 25 10 25 5 0 11 -4 15 -9z m201 -80 c-10 -16 -46 -13 -52 4 -4 8 0 22 7 31 11 13 14 13 32 -4 11 -11 16 -25 13 -31z m-212 -2 c-3 -5 -10 -7 -15 -3 -5 3 -7 10 -3 15 3 5 10 7 15 3 5 -3 7 -10 3 -15z m824 -130 c-4 -28 -35 -38 -44 -14 -8 19 26 59 39 46 5 -5 7 -19 5 -32z m-840 -39 c-2 -8 -10 -15 -18 -15 -17 0 -25 28 -15 53 6 15 8 15 21 -3 8 -11 13 -26 12 -35z m943 30 c24 -14 24 -27 -1 -40 -17 -9 -22 -7 -29 12 -14 36 -4 45 30 28z m-446 -149 c8 -17 11 -32 6 -35 -11 -7 -44 42 -36 54 9 15 13 12 30 -19z m290 0 c-2 -5 -9 -21 -15 -36 -8 -20 -14 -25 -21 -18 -13 13 17 77 32 68 5 -4 7 -10 4 -14z m-716 -225 c14 -16 6 -23 -29 -26 -41 -4 -44 -1 -25 20 21 24 38 25 54 6z m-69 -46 c11 -21 6 -40 -10 -40 -13 0 -32 39 -25 50 10 16 23 12 35 -10z m124 -21 c-3 -5 -10 -7 -15 -3 -5 3 -7 10 -3 15 3 5 10 7 15 3 5 -3 7 -10 3 -15z m60 -50 c-3 -5 -10 -7 -15 -3 -5 3 -7 10 -3 15 3 5 10 7 15 3 5 -3 7 -10 3 -15z m-92 -31 c-16 -16 -37 4 -28 28 6 16 8 16 23 1 13 -13 14 -19 5 -29z m622 -69 c-3 -5 -10 -7 -15 -3 -5 3 -7 10 -3 15 3 5 10 7 15 3 5 -3 7 -10 3 -15z m413 -54 c34 -33 53 -58 48 -65 -5 -8 -22 2 -54 32 -25 24 -58 50 -73 56 -27 11 -34 22 -22 34 12 13 48 -8 101 -57z m-508 29 c-6 -7 -15 -11 -21 -8 -5 3 -4 12 3 20 6 7 15 11 21 8 5 -3 4 -12 -3 -20z m-15 -103 c5 -8 -21 -30 -48 -42 -10 -4 -18 30 -10 43 7 11 51 10 58 -1z m540 -62 c-3 -5 -10 -7 -15 -3 -5 3 -7 10 -3 15 3 5 10 7 15 3 5 -3 7 -10 3 -15z m-684 -33 c0 -8 10 -16 22 -19 18 -5 19 -8 8 -22 -19 -23 -54 -15 -58 13 -2 13 -1 30 2 38 7 17 26 9 26 -10z m64 -7 c-3 -5 -10 -7 -15 -3 -5 3 -7 10 -3 15 3 5 10 7 15 3 5 -3 7 -10 3 -15z"/>
<path d="M1855 3150 c-3 -6 -12 -36 -18 -68 -11 -52 -18 -63 -77 -117 -83 -76 -88 -90 -25 -81 41 7 50 4 71 -15 19 -18 27 -20 36 -11 19 19 27 15 42 -23 28 -66 46 -40 46 65 0 62 -2 70 -25 87 l-26 18 26 35 c32 44 32 65 -2 95 -31 27 -39 30 -48 15z"/>
<path d="M3390 2911 c0 -8 61 -22 69 -15 1 1 0 7 -4 13 -8 13 -65 15 -65 2z"/>
<path d="M3380 2830 c0 -5 5 -10 10 -10 6 0 10 5 10 10 0 6 -4 10 -10 10 -5 0 -10 -4 -10 -10z"/>
<path d="M1796 2804 c-3 -9 -6 -36 -6 -60 0 -38 -4 -46 -25 -54 -26 -10 -32 -24 -14 -36 6 -3 31 13 55 37 50 49 60 99 25 119 -26 13 -28 13 -35 -6z"/>
<path d="M1615 2750 c-4 -6 0 -19 9 -29 9 -10 14 -20 11 -23 -3 -3 4 -13 15 -23 28 -25 37 -11 14 22 -10 15 -18 34 -19 42 0 18 -21 26 -30 11z"/>
<path d="M1920 2690 c0 -5 5 -10 10 -10 6 0 10 5 10 10 0 6 -4 10 -10 10 -5 0 -10 -4 -10 -10z"/>
<path d="M1560 2630 c0 -5 5 -10 10 -10 6 0 10 5 10 10 0 6 -4 10 -10 10 -5 0 -10 -4 -10 -10z"/>
<path d="M1604 2599 c-10 -17 13 -36 27 -22 12 12 4 33 -11 33 -5 0 -12 -5 -16 -11z"/>
<path d="M1880 2550 c0 -5 5 -10 10 -10 6 0 10 5 10 10 0 6 -4 10 -10 10 -5 0 -10 -4 -10 -10z"/>
<path d="M1765 2540 c-18 -29 62 -79 106 -65 l21 7 -33 34 c-33 34 -80 46 -94 24z"/>
<path d="M1490 2510 c0 -5 9 -10 20 -10 11 0 20 5 20 10 0 6 -9 10 -20 10 -11 0 -20 -4 -20 -10z"/>
<path d="M195 2469 c-7 -20 17 -59 36 -59 12 0 21 38 14 60 -8 26 -42 26 -50 -1z"/>
<path d="M240 2330 c0 -5 5 -10 10 -10 6 0 10 5 10 10 0 6 -4 10 -10 10 -5 0 -10 -4 -10 -10z"/>
<path d="M1854 2297 c-18 -12 -40 -27 -50 -33 -35 -21 -6 -26 48 -9 63 21 79 32 71 51 -7 19 -32 16 -69 -9z"/>
<path d="M164 2299 c-10 -17 13 -36 27 -22 12 12 4 33 -11 33 -5 0 -12 -5 -16 -11z"/>
<path d="M285 2238 c10 -34 23 -44 37 -30 9 9 7 16 -7 32 -24 27 -38 25 -30 -2z"/>
<path d="M1884 2179 c-10 -17 13 -36 27 -22 12 12 4 33 -11 33 -5 0 -12 -5 -16 -11z"/>
<path d="M220 2095 c-18 -20 -21 -28 -12 -37 10 -10 18 -6 38 14 15 14 23 31 20 37 -11 17 -20 14 -46 -14z"/>
<path d="M820 2077 c0 -31 67 -97 79 -78 12 20 -12 71 -40 87 -33 19 -39 17 -39 -9z"/>
<path d="M420 2055 c-10 -12 -10 -18 0 -29 16 -20 42 -8 38 17 -4 26 -21 32 -38 12z"/>
<path d="M306 2041 c-24 -26 -17 -53 17 -69 16 -8 30 -12 31 -10 8 8 -10 92 -20 95 -6 2 -18 -5 -28 -16z"/>
<path d="M480 1950 c0 -5 5 -10 10 -10 6 0 10 5 10 10 0 6 -4 10 -10 10 -5 0 -10 -4 -10 -10z"/>
<path d="M1900 1870 c0 -5 5 -10 10 -10 6 0 10 5 10 10 0 6 -4 10 -10 10 -5 0 -10 -4 -10 -10z"/>
<path d="M1740 1822 c0 -25 46 -49 113 -57 62 -8 72 0 38 34 -22 22 -80 41 -123 41 -20 0 -28 -5 -28 -18z"/>
<path d="M248 1743 c-33 -37 -63 -102 -51 -114 5 -5 25 12 47 42 26 33 42 47 49 40 7 -7 -2 -28 -26 -63 -50 -72 -58 -106 -55 -223 1 -55 -2 -100 -7 -100 -28 0 -48 202 -25 246 8 14 7 19 -2 19 -23 0 -37 -37 -44 -117 -5 -66 -3 -87 15 -135 24 -61 46 -80 55 -45 l6 22 26 -32 c23 -30 30 -33 80 -33 51 0 54 2 54 24 0 26 30 86 61 121 39 46 51 85 44 146 -7 63 -13 67 -61 49 -40 -16 -54 2 -54 71 0 54 -2 60 -33 83 -42 32 -47 32 -79 -1z"/>
<path d="M406 1735 c-18 -19 -22 -100 -5 -111 6 -3 23 2 37 13 35 26 37 79 6 100 -19 12 -24 12 -38 -2z"/>
<path d="M1887 1693 c-12 -11 -7 -40 8 -53 22 -18 39 1 31 34 -6 25 -25 34 -39 19z"/>
<path d="M840 1590 c0 -5 7 -10 15 -10 8 0 15 5 15 10 0 6 -7 10 -15 10 -8 0 -15 -4 -15 -10z"/>
<path d="M659 1561 c-84 -42 -168 -110 -169 -138 0 -7 -6 -16 -13 -20 -23 -14 -47 -57 -47 -83 0 -42 47 -62 154 -68 l91 -4 18 30 c9 17 26 34 37 37 39 12 90 137 90 220 0 32 -14 32 -28 -1 -12 -26 -36 -25 -25 1 16 42 -46 57 -108 26z"/>
<path d="M861 1489 c-17 -23 -31 -52 -31 -65 0 -13 -4 -26 -10 -29 -13 -8 -13 -42 1 -50 25 -16 103 106 97 152 -5 41 -24 38 -57 -8z"/>
<path d="M114 1156 c-8 -34 -1 -513 9 -522 4 -4 14 1 21 12 l14 19 2724 3 c2575 3 2725 2 2756 -14 29 -15 35 -16 43 -3 10 15 13 488 3 513 -6 15 -260 16 -2785 16 l-2779 0 -6 -24z m3101 -126 c-5 -8 -11 -8 -17 -2 -6 6 -7 16 -3 22 5 8 11 8 17 2 6 -6 7 -16 3 -22z m-2824 0 c-2 -8 -4 -60 -5 -115 -1 -82 -4 -100 -16 -100 -12 0 -15 18 -16 101 0 55 -4 105 -7 111 -9 15 4 24 28 21 12 -2 18 -9 16 -18z m1484 10 c3 -6 7 -58 7 -118 1 -85 -2 -107 -13 -107 -11 0 -15 26 -19 113 -3 63 -3 116 -1 118 7 7 20 4 26 -6z m360 -111 c0 -89 -3 -114 -13 -114 -11 0 -14 24 -14 110 0 136 -1 128 15 123 9 -4 12 -36 12 -119z m1619 16 c0 -55 3 -107 6 -115 3 -10 -2 -15 -15 -15 -18 0 -20 8 -23 103 -4 108 1 136 19 130 8 -3 12 -39 13 -103z m350 97 c2 -4 6 -57 7 -117 2 -90 0 -110 -12 -110 -11 0 -15 23 -19 110 -3 61 -4 113 -2 118 4 9 19 9 26 -1z m351 -28 c-1 -16 -5 -27 -10 -25 -6 1 -9 8 -7 13 1 6 -2 16 -8 22 -11 14 -2 28 14 23 6 -2 11 -17 11 -33z m785 -13 c0 -20 5 -42 12 -49 8 -8 8 -15 -1 -26 -7 -8 -11 -34 -9 -58 2 -33 -1 -43 -12 -43 -12 0 -16 20 -18 99 -1 55 0 106 3 113 9 25 25 3 25 -36z m-4645 -9 c1 -23 4 -44 7 -48 4 -3 5 -20 2 -37 -2 -18 -6 -45 -7 -62 -2 -18 -9 -30 -18 -30 -8 0 -13 5 -12 11 6 31 5 152 -1 172 -8 25 1 45 17 39 7 -2 12 -22 12 -45z m393 2 c15 -25 42 -68 60 -96 18 -28 30 -58 28 -65 -9 -22 -22 -8 -62 63 -20 36 -43 68 -51 71 -17 7 -45 58 -36 67 16 15 36 2 61 -40z m224 -69 c0 -98 -2 -110 -18 -110 -15 0 -17 9 -15 73 2 61 -1 76 -15 87 l-18 13 18 26 c9 15 24 26 32 24 13 -2 16 -23 16 -113z m242 -1 c-1 -86 -4 -109 -15 -109 -11 0 -15 22 -17 99 -3 106 1 130 20 124 9 -3 12 -37 12 -114z m1489 110 c3 -4 -3 -18 -13 -32 -36 -45 -22 -130 29 -168 10 -8 11 -13 3 -18 -6 -4 -28 8 -48 27 -33 30 -38 40 -38 83 -1 63 42 132 67 108z m-1363 -54 c0 -19 -38 -71 -41 -55 -2 19 3 80 8 88 7 12 33 -13 33 -33z m1739 -3 c-10 -34 -3 -104 13 -124 5 -7 5 -13 -1 -17 -5 -4 -19 7 -30 23 -25 35 -28 101 -5 136 22 33 35 23 23 -18z m221 -44 c0 -40 -17 -76 -31 -67 -6 3 -7 19 -4 34 3 16 2 44 -3 64 -6 19 -7 38 -4 41 13 12 42 -38 42 -72z m1264 17 c-5 -30 -1 -48 14 -74 23 -38 19 -51 -10 -35 -36 19 -51 95 -28 139 17 31 31 14 24 -30z m-346 -61 c-2 -36 -7 -63 -13 -62 -11 3 -19 107 -10 131 12 33 26 -7 23 -69z m896 40 c-3 -5 -10 -7 -15 -3 -5 3 -7 10 -3 15 3 5 10 7 15 3 5 -3 7 -10 3 -15z m-343 -39 c-3 -42 -18 -76 -29 -66 -4 4 -6 85 -3 112 1 3 9 4 18 2 14 -3 17 -12 14 -48z m-1891 -55 c-19 -23 -88 -41 -102 -27 -8 8 -6 13 8 17 10 3 35 14 54 25 38 20 62 11 40 -15z m1124 -16 c-3 -5 -10 -7 -15 -3 -5 3 -7 10 -3 15 3 5 10 7 15 3 5 -3 7 -10 3 -15z m-3289 2 c7 -12 -12 -24 -25 -16 -11 7 -4 25 10 25 5 0 11 -4 15 -9z"/>
<path d="M875 572 c-19 -14 -45 -70 -45 -99 0 -16 -9 -60 -20 -99 -13 -47 -17 -80 -11 -100 7 -26 13 -30 67 -38 32 -5 77 -9 99 -8 22 0 51 0 65 0 31 -2 82 -1 140 2 25 1 68 -1 95 -5 35 -5 60 -2 83 8 28 12 40 12 70 1 48 -17 75 -17 116 0 28 12 41 12 87 0 29 -8 62 -11 74 -7 11 3 69 6 129 5 67 -1 115 3 123 9 9 8 22 7 48 -5 47 -23 75 -8 75 39 0 34 17 58 24 33 18 -66 22 -73 49 -76 49 -6 56 9 53 111 -2 51 1 102 5 115 18 48 29 8 29 -103 l0 -113 35 -12 c31 -10 64 -9 118 6 23 7 22 33 -5 61 -18 20 -20 26 -10 48 15 32 15 70 1 97 -9 16 -7 24 11 43 15 16 20 33 18 56 l-3 34 -145 1 c-101 0 -155 -4 -179 -13 -29 -12 -35 -12 -50 1 -10 9 -34 16 -54 16 -47 0 -67 -29 -76 -108 -8 -75 -25 -69 -29 10 -2 34 -7 68 -13 74 -15 18 -57 23 -76 8 -13 -8 -22 -9 -30 -2 -7 5 -40 10 -73 11 -51 0 -63 -3 -76 -21 l-14 -21 -36 21 c-43 25 -119 26 -146 1 -17 -15 -19 -15 -37 1 -29 26 -92 31 -134 11 -33 -15 -38 -15 -84 1 -68 24 -125 8 -128 -37 -3 -36 -19 -33 -54 11 -31 38 -62 50 -86 32z m1217 -117 c8 -19 8 -31 -1 -51 -15 -34 -35 -26 -39 15 -6 61 19 83 40 36z m-883 -32 c16 -26 28 -50 26 -54 -10 -16 -58 6 -82 37 -21 28 -23 37 -13 49 21 25 39 17 69 -32z m172 4 c-5 -12 -14 -22 -22 -22 -18 0 -24 32 -8 51 17 21 40 -1 30 -29z m383 -8 c-16 -18 -16 -20 -1 -37 18 -19 12 -37 -7 -24 -6 4 -27 7 -46 7 l-35 0 0 35 0 35 45 5 c57 7 66 3 44 -21z m-737 -6 c4 -10 23 -32 42 -50 26 -23 33 -34 25 -43 -8 -8 -14 -7 -24 5 -7 8 -18 15 -25 15 -16 0 -57 68 -50 81 10 15 25 10 32 -8z m-113 -144 c-3 -5 -10 -7 -15 -3 -5 3 -7 10 -3 15 3 5 10 7 15 3 5 -3 7 -10 3 -15z"/>
<path d="M2500 560 c-19 -19 -21 -28 -14 -68 10 -60 6 -142 -8 -159 -13 -16 -3 -77 16 -92 14 -12 31 -13 266 -12 85 1 181 0 213 -2 31 -2 59 -1 62 1 7 8 235 5 287 -3 27 -5 59 -3 78 3 22 8 46 8 83 1 67 -14 107 0 107 35 0 18 -9 30 -30 41 -34 17 -37 27 -15 45 20 17 19 79 -1 101 -16 17 -15 20 15 36 22 13 31 25 31 43 0 43 -10 48 -85 44 -38 -1 -103 -3 -144 -3 -40 0 -86 -5 -101 -11 -23 -9 -34 -8 -58 4 -39 20 -96 21 -125 2 -19 -13 -28 -13 -69 1 -43 14 -53 14 -95 0 -41 -14 -50 -14 -74 -1 -37 19 -99 18 -127 -2 -18 -12 -29 -14 -50 -6 -15 6 -53 13 -84 17 -50 5 -59 4 -78 -15z m360 -100 c0 -25 -18 -36 -26 -16 -8 21 3 49 16 41 5 -3 10 -15 10 -25z m568 -68 c2 -77 0 -93 -13 -98 -9 -4 -24 1 -35 11 l-19 18 19 25 c27 34 26 76 -2 94 -20 13 -21 17 -9 32 8 9 24 16 35 14 19 -3 21 -10 24 -96z m-162 -14 c-1 -22 -7 -33 -16 -33 -19 0 -25 41 -10 60 18 21 28 10 26 -27z m-406 -39 c0 -35 -25 -49 -48 -26 -15 15 -14 19 8 41 27 30 40 25 40 -15z"/>
<path d="M3699 563 c-10 -11 -14 -52 -15 -142 -1 -69 0 -138 2 -152 l5 -26 91 -7 c53 -3 96 -2 102 4 8 6 26 4 51 -5 50 -18 70 -18 119 0 27 10 45 11 58 4 10 -5 90 -11 178 -13 123 -2 164 0 179 10 13 9 22 11 26 4 9 -15 168 -13 183 2 10 10 17 10 32 0 24 -15 72 -16 87 -1 8 8 18 6 36 -5 29 -20 132 -19 149 1 6 8 13 45 15 84 4 55 1 74 -11 88 -15 16 -15 19 -1 31 23 19 19 86 -6 111 -18 18 -29 20 -92 16 -137 -10 -193 -11 -206 -3 -7 4 -32 5 -56 2 -26 -4 -46 -3 -50 4 -9 15 -46 12 -66 -6 -17 -15 -21 -15 -55 1 -43 20 -96 15 -135 -14 -22 -16 -29 -17 -40 -7 -34 32 -123 45 -161 25 -14 -8 -28 -7 -48 1 -21 9 -34 9 -49 1 -14 -8 -27 -8 -45 0 -19 9 -32 9 -54 0 -23 -10 -34 -10 -49 -1 -15 10 -25 9 -50 -3 -26 -14 -33 -14 -49 -2 -26 19 -59 19 -75 -2z m606 -113 c-5 -8 -11 -8 -17 -2 -6 6 -7 16 -3 22 5 8 11 8 17 2 6 -6 7 -16 3 -22z m173 -19 c6 -37 -14 -47 -33 -18 -9 15 -14 31 -10 37 11 19 40 6 43 -19z m446 -2 c-3 -5 -10 -7 -15 -3 -5 3 -7 10 -3 15 3 5 10 7 15 3 5 -3 7 -10 3 -15z m-618 -44 c-5 -14 -9 -15 -21 -5 -12 10 -13 16 -4 27 15 18 34 1 25 -22z m63 -24 c29 -22 14 -35 -23 -21 -26 9 -32 21 -19 33 10 10 16 8 42 -12z"/>
<path d="M120 200 l0 -80 35 0 c40 0 45 11 13 25 -20 9 -23 19 -26 73 -4 90 -22 76 -22 -18z"/>
<path d="M5655 168 c-7 -16 -20 -24 -42 -26 -52 -5 -38 -22 17 -22 l50 0 0 35 c0 40 -11 45 -25 13z"/>
<path d="M240 130 c0 -5 9 -10 20 -10 11 0 20 5 20 10 0 6 -9 10 -20 10 -11 0 -20 -4 -20 -10z"/>
<path d="M720 130 c0 -5 9 -10 20 -10 11 0 20 5 20 10 0 6 -9 10 -20 10 -11 0 -20 -4 -20 -10z"/>
<path d="M1030 130 c0 -5 9 -10 20 -10 11 0 20 5 20 10 0 6 -9 10 -20 10 -11 0 -20 -4 -20 -10z"/>
<path d="M1090 130 c0 -5 11 -10 25 -10 14 0 25 5 25 10 0 6 -11 10 -25 10 -14 0 -25 -4 -25 -10z"/>
<path d="M1240 130 c0 -6 52 -10 135 -10 83 0 135 4 135 10 0 6 -52 10 -135 10 -83 0 -135 -4 -135 -10z"/>
<path d="M1610 130 c0 -5 9 -10 20 -10 11 0 20 5 20 10 0 6 -9 10 -20 10 -11 0 -20 -4 -20 -10z"/>
<path d="M1680 130 c0 -5 23 -10 50 -10 28 0 50 5 50 10 0 6 -22 10 -50 10 -27 0 -50 -4 -50 -10z"/>
<path d="M1800 130 c0 -5 5 -10 10 -10 6 0 10 5 10 10 0 6 -4 10 -10 10 -5 0 -10 -4 -10 -10z"/>
<path d="M1840 130 c0 -5 7 -10 15 -10 8 0 15 5 15 10 0 6 -7 10 -15 10 -8 0 -15 -4 -15 -10z"/>
<path d="M1880 130 c0 -5 9 -10 20 -10 11 0 20 5 20 10 0 6 -9 10 -20 10 -11 0 -20 -4 -20 -10z"/>
<path d="M1960 130 c0 -5 7 -10 15 -10 8 0 15 5 15 10 0 6 -7 10 -15 10 -8 0 -15 -4 -15 -10z"/>
<path d="M2000 130 c0 -5 16 -10 35 -10 19 0 35 5 35 10 0 6 -16 10 -35 10 -19 0 -35 -4 -35 -10z"/>
<path d="M2120 130 c0 -5 16 -10 35 -10 19 0 35 5 35 10 0 6 -16 10 -35 10 -19 0 -35 -4 -35 -10z"/>
<path d="M2260 130 c0 -6 30 -10 70 -10 40 0 70 4 70 10 0 6 -30 10 -70 10 -40 0 -70 -4 -70 -10z"/>
<path d="M2470 130 c0 -5 7 -10 15 -10 8 0 15 5 15 10 0 6 -7 10 -15 10 -8 0 -15 -4 -15 -10z"/>
<path d="M2520 130 c0 -6 28 -10 65 -10 37 0 65 4 65 10 0 6 -28 10 -65 10 -37 0 -65 -4 -65 -10z"/>
<path d="M2700 130 c0 -5 11 -10 25 -10 14 0 25 5 25 10 0 6 -11 10 -25 10 -14 0 -25 -4 -25 -10z"/>
<path d="M2760 130 c0 -6 33 -10 80 -10 47 0 80 4 80 10 0 6 -33 10 -80 10 -47 0 -80 -4 -80 -10z"/>
<path d="M2940 130 c0 -5 5 -10 10 -10 6 0 10 5 10 10 0 6 -4 10 -10 10 -5 0 -10 -4 -10 -10z"/>
<path d="M2980 130 c0 -5 7 -10 15 -10 8 0 15 5 15 10 0 6 -7 10 -15 10 -8 0 -15 -4 -15 -10z"/>
<path d="M3040 130 c0 -5 7 -10 15 -10 8 0 15 5 15 10 0 6 -7 10 -15 10 -8 0 -15 -4 -15 -10z"/>
<path d="M3100 130 c0 -5 7 -10 15 -10 8 0 15 5 15 10 0 6 -7 10 -15 10 -8 0 -15 -4 -15 -10z"/>
<path d="M3200 130 c0 -5 5 -10 10 -10 6 0 10 5 10 10 0 6 -4 10 -10 10 -5 0 -10 -4 -10 -10z"/>
<path d="M3280 130 c0 -6 27 -10 60 -10 33 0 60 4 60 10 0 6 -27 10 -60 10 -33 0 -60 -4 -60 -10z"/>
<path d="M3470 130 c0 -5 5 -10 10 -10 6 0 10 5 10 10 0 6 -4 10 -10 10 -5 0 -10 -4 -10 -10z"/>
<path d="M3530 130 c0 -5 18 -10 40 -10 22 0 40 5 40 10 0 6 -18 10 -40 10 -22 0 -40 -4 -40 -10z"/>
<path d="M3620 130 c0 -5 9 -10 20 -10 11 0 20 5 20 10 0 6 -9 10 -20 10 -11 0 -20 -4 -20 -10z"/>
<path d="M3680 130 c0 -5 7 -10 15 -10 8 0 15 5 15 10 0 6 -7 10 -15 10 -8 0 -15 -4 -15 -10z"/>
<path d="M3940 130 c0 -6 27 -10 60 -10 33 0 60 4 60 10 0 6 -27 10 -60 10 -33 0 -60 -4 -60 -10z"/>
<path d="M4130 130 c0 -5 20 -10 45 -10 25 0 45 5 45 10 0 6 -20 10 -45 10 -25 0 -45 -4 -45 -10z"/>
<path d="M4230 130 c0 -5 9 -10 20 -10 11 0 20 5 20 10 0 6 -9 10 -20 10 -11 0 -20 -4 -20 -10z"/>
<path d="M4300 130 c0 -5 7 -10 15 -10 8 0 15 5 15 10 0 6 -7 10 -15 10 -8 0 -15 -4 -15 -10z"/>
<path d="M4350 130 c0 -5 23 -10 50 -10 28 0 50 5 50 10 0 6 -22 10 -50 10 -27 0 -50 -4 -50 -10z"/>
<path d="M4540 130 c0 -5 11 -10 25 -10 14 0 25 5 25 10 0 6 -11 10 -25 10 -14 0 -25 -4 -25 -10z"/>
<path d="M4680 130 c0 -5 5 -10 10 -10 6 0 10 5 10 10 0 6 -4 10 -10 10 -5 0 -10 -4 -10 -10z"/>
<path d="M4750 130 c0 -5 7 -10 15 -10 8 0 15 5 15 10 0 6 -7 10 -15 10 -8 0 -15 -4 -15 -10z"/>
<path d="M40 50 c0 -5 5 -10 10 -10 6 0 10 5 10 10 0 6 -4 10 -10 10 -5 0 -10 -4 -10 -10z"/>
<path d="M5740 50 c0 -5 5 -10 10 -10 6 0 10 5 10 10 0 6 -4 10 -10 10 -5 0 -10 -4 -10 -10z"/>
</g>
</g>
  <g id="id3:id3" transform="matrix(1.25,0,0,1.25,0.0,0.0)"><g transform="translate(0.000000,140.800000) scale(0.040000,-0.040000)" fill="#a9a9a9" stroke="none">
<path d="M0 1760 l0 -1760 2900 0 2900 0 0 1760 0 1760 -2900 0 -2900 0 0 -1760z m5725 0 l0 -1685 -2825 0 -2825 0 -3 1675 c-1 921 0 1681 3 1688 3 10 574 12 2827 10 l2823 -3 0 -1685z"/>
<path d="M1231 3397 c-9 -12 -8 -16 3 -20 19 -7 32 11 19 24 -6 6 -14 5 -22 -4z"/>
<path d="M1016 3374 c-8 -32 1 -64 19 -64 7 0 27 11 43 25 17 14 32 25 35 25 3 0 14 -15 25 -32 23 -38 19 -91 -11 -145 -20 -37 -29 -40 -48 -17 -7 8 -25 22 -40 30 -32 16 -45 5 -30 -24 11 -20 -2 -42 -24 -42 -19 0 -48 -38 -42 -55 7 -16 37 -21 37 -6 0 5 14 23 30 41 l30 33 20 -18 c18 -16 18 -19 3 -41 -18 -28 -11 -43 11 -25 10 8 16 9 21 1 9 -14 25 -13 25 3 0 8 9 22 20 32 21 19 25 15 32 -30 2 -13 11 -20 25 -20 12 0 25 -3 29 -7 12 -13 23 -9 34 12 9 17 7 22 -15 30 -23 9 -25 14 -25 70 0 52 3 62 25 76 13 8 29 13 34 9 12 -7 4 -59 -16 -99 -14 -26 -13 -30 1 -38 9 -5 14 -13 11 -17 -2 -5 2 -14 10 -21 8 -7 15 -19 15 -26 0 -8 5 -14 10 -14 13 0 13 16 -2 57 -11 29 -9 36 11 64 l23 31 -22 15 c-16 12 -19 18 -9 29 15 19 -5 44 -35 44 -12 0 -30 6 -40 13 -16 12 -16 14 4 32 16 14 23 16 32 7 15 -15 68 -16 68 -2 0 6 -9 10 -20 10 -11 0 -29 5 -40 12 -15 9 -24 9 -43 -1 -31 -16 -47 -8 -47 24 0 26 -15 41 -24 26 -4 -5 -22 -7 -41 -4 -21 3 -41 1 -49 -7 -17 -14 -36 -6 -36 16 0 24 -17 16 -24 -12z m200 -129 c1 -8 -2 -17 -7 -21 -5 -3 -9 -22 -9 -43 0 -48 -6 -54 -36 -35 -20 14 -22 19 -11 37 7 12 21 32 31 45 11 12 16 22 12 22 -4 0 -4 5 -1 11 8 12 18 5 21 -16z"/>
<path d="M1300 3390 c0 -5 5 -10 10 -10 6 0 10 5 10 10 0 6 -4 10 -10 10 -5 0 -10 -4 -10 -10z"/>
<path d="M1650 3323 c-45 -9 -71 -45 -29 -40 17 2 38 -17 45 -40 2 -8 54 24 54 32 0 14 -29 55 -38 54 -4 -1 -18 -4 -32 -6z"/>
<path d="M1900 3305 c0 -9 -8 -18 -17 -22 -10 -3 -28 -15 -39 -25 -14 -13 -24 -16 -29 -9 -8 13 -35 15 -35 2 0 -5 9 -11 21 -14 12 -3 18 -10 15 -16 -4 -5 -2 -12 4 -16 5 -3 10 -22 10 -41 0 -38 21 -54 44 -35 10 8 16 9 21 1 8 -13 25 -13 25 1 0 6 -13 28 -29 48 -32 40 -28 71 9 71 25 0 33 15 26 46 -7 26 -26 33 -26 9z"/>
<path d="M1340 3245 c0 -9 5 -15 11 -13 6 2 11 8 11 13 0 5 -5 11 -11 13 -6 2 -11 -4 -11 -13z"/>
<path d="M1390 3014 c-9 -22 -14 -25 -40 -19 -33 7 -39 -1 -13 -20 13 -10 18 -32 20 -98 3 -88 -5 -110 -33 -86 -18 14 -45 -4 -28 -20 18 -17 82 -21 88 -5 3 8 11 14 19 14 7 0 30 9 52 20 45 23 69 12 42 -18 -21 -23 -21 -36 -3 -52 12 -9 21 -5 45 22 38 41 46 65 30 84 -10 13 -14 13 -29 -1 -11 -10 -20 -12 -24 -6 -4 5 -1 13 4 16 7 4 9 19 5 35 -5 22 -1 34 15 50 12 12 20 23 18 24 -1 1 -22 8 -45 16 -39 12 -45 11 -63 -5 -15 -14 -23 -16 -32 -7 -8 8 -8 15 0 25 12 14 5 57 -9 57 -5 0 -14 -12 -19 -26z m105 -104 c-5 -8 -11 -8 -17 -2 -6 6 -7 16 -3 22 5 8 11 8 17 2 6 -6 7 -16 3 -22z m-89 -26 c-5 -13 -10 -14 -18 -6 -6 6 -8 18 -4 28 5 13 10 14 18 6 6 -6 8 -18 4 -28z"/>
<path d="M1244 2999 c-10 -17 13 -36 27 -22 12 12 4 33 -11 33 -5 0 -12 -5 -16 -11z"/>
<path d="M5294 2959 c-10 -17 13 -36 27 -22 12 12 4 33 -11 33 -5 0 -12 -5 -16 -11z"/>
<path d="M1298 2935 c-5 -26 5 -41 21 -31 10 6 2 56 -9 56 -4 0 -10 -11 -12 -25z"/>
<path d="M2280 2930 c0 -5 52 -11 123 -12 110 -3 122 -5 119 -20 -3 -16 7 -18 98 -18 91 0 101 2 98 18 -3 15 8 17 90 20 50 1 92 7 92 12 0 6 -118 10 -310 10 -193 0 -310 -4 -310 -10z"/>
<path d="M2960 2930 c0 -5 15 -10 33 -10 21 0 41 -8 52 -20 13 -15 31 -20 65 -20 39 0 49 4 53 20 6 23 34 26 60 6 11 -9 34 -12 65 -8 56 6 58 7 42 27 -10 12 -43 15 -191 15 -113 0 -179 -4 -179 -10z"/>
<path d="M2258 2788 c-6 -117 0 -141 27 -118 17 14 22 125 5 135 -5 3 -10 26 -10 51 0 24 -4 44 -9 44 -5 0 -11 -51 -13 -112z"/>
<path d="M3240 2870 c0 -5 5 -10 10 -10 6 0 10 5 10 10 0 6 -4 10 -10 10 -5 0 -10 -4 -10 -10z"/>
<path d="M2760 2350 c0 -333 3 -510 10 -510 7 0 10 177 10 510 0 333 -3 510 -10 510 -7 0 -10 -177 -10 -510z"/>
<path d="M2340 2830 c0 -5 5 -10 10 -10 6 0 10 5 10 10 0 6 -4 10 -10 10 -5 0 -10 -4 -10 -10z"/>
<path d="M3440 2741 c0 -59 4 -80 14 -84 26 -10 37 18 30 79 -7 58 -18 84 -35 84 -5 0 -9 -36 -9 -79z"/>
<path d="M1617 2786 c-3 -8 1 -20 8 -26 13 -11 12 -16 -2 -41 l-17 -28 27 -21 c15 -12 25 -26 22 -31 -11 -17 -42 -9 -58 14 -12 18 -19 20 -33 11 -29 -17 -27 -30 8 -69 29 -34 31 -38 15 -50 -26 -19 -21 -24 21 -21 24 2 36 7 34 16 -2 7 4 21 13 30 9 10 15 29 13 42 -3 21 0 23 38 20 44 -4 63 10 45 32 -17 20 0 28 21 9 17 -15 20 -15 43 7 14 13 25 27 25 31 0 11 -52 3 -93 -15 -44 -19 -76 -9 -78 27 -1 12 -2 33 -3 47 -1 29 -40 41 -49 16z"/>
<path d="M1840 2766 c0 -7 11 -21 24 -29 20 -14 26 -14 35 -3 6 7 9 21 5 30 -8 20 -64 22 -64 2z"/>
<path d="M1862 2660 c-41 -38 -62 -65 -60 -77 2 -15 -4 -18 -34 -19 -48 -1 -54 -8 -34 -39 19 -29 48 -34 44 -7 -4 24 34 27 69 6 15 -10 25 -14 21 -9 -13 14 13 37 28 24 18 -15 34 -3 34 26 0 34 -16 39 -49 16 -53 -38 -41 -8 20 50 52 50 60 61 49 74 -7 8 -15 15 -19 15 -3 -1 -34 -27 -69 -60z"/>
<path d="M1501 2676 c-9 -10 -9 -16 -1 -21 17 -10 37 12 24 25 -8 8 -15 6 -23 -4z"/>
<path d="M5320 2590 c0 -5 5 -10 10 -10 6 0 10 5 10 10 0 6 -4 10 -10 10 -5 0 -10 -4 -10 -10z"/>
<path d="M228 2359 c-18 -10 -14 -41 8 -60 8 -6 14 -21 14 -34 0 -12 9 -30 20 -40 11 -10 20 -23 20 -30 0 -18 37 -48 50 -40 18 11 4 61 -30 111 -16 25 -30 51 -30 58 0 23 -33 46 -52 35z"/>
<path d="M118 2303 c-27 -7 -22 -18 18 -36 39 -19 74 -15 74 8 0 8 -6 12 -13 9 -8 -3 -20 2 -27 11 -13 15 -21 16 -52 8z"/>
<path d="M1488 2263 c-9 -22 -1 -108 10 -107 7 1 19 2 28 3 10 0 14 7 10 16 -4 11 3 19 21 26 28 11 38 6 38 -19 0 -9 7 -17 15 -17 22 0 13 54 -13 83 -15 16 -32 22 -63 22 -24 0 -44 -3 -46 -7z"/>
<path d="M1780 2230 c0 -5 5 -10 10 -10 6 0 10 5 10 10 0 6 -4 10 -10 10 -5 0 -10 -4 -10 -10z"/>
<path d="M1724 2199 c-3 -5 -2 -14 1 -20 4 -5 1 -18 -7 -27 -23 -29 -40 -64 -33 -70 3 -3 12 4 21 16 8 12 19 20 24 17 9 -6 -15 -61 -31 -70 -17 -11 -9 -26 14 -23 17 2 23 -2 25 -23 5 -40 44 -49 116 -27 66 19 85 33 70 48 -9 9 -34 4 -99 -21 -66 -25 -68 -22 -49 51 9 36 23 62 40 77 30 24 72 35 80 22 10 -17 22 -9 28 17 10 38 -1 44 -67 37 -43 -4 -55 -9 -47 -18 7 -9 6 -16 -4 -25 -18 -14 -36 -5 -36 19 0 20 -36 35 -46 20z"/>
<path d="M1655 2160 c-11 -17 5 -32 21 -19 7 6 11 15 8 20 -7 12 -21 11 -29 -1z"/>
<path d="M223 2121 c-23 -16 -44 -35 -48 -41 -10 -15 14 -40 38 -40 23 0 99 78 94 95 -7 21 -44 15 -84 -14z m21 -42 c-9 -10 -21 -16 -26 -13 -5 3 -2 14 8 25 9 10 21 16 26 13 5 -3 2 -14 -8 -25z"/>
<path d="M384 2096 c-3 -7 -4 -17 -3 -22 4 -23 -3 -25 -27 -9 -32 21 -49 9 -76 -54 -21 -49 -19 -52 16 -56 13 -2 34 -6 47 -10 17 -6 21 -4 16 9 -3 8 -2 18 4 21 5 4 8 14 7 23 -4 20 36 29 56 13 8 -6 21 -9 29 -5 27 10 40 -6 22 -26 -9 -10 -18 -24 -19 -32 -2 -7 -8 -24 -13 -38 -12 -27 -1 -50 23 -50 17 0 18 22 2 39 -11 10 -9 15 6 27 28 20 36 18 49 -16 11 -30 30 -39 42 -19 4 5 -1 19 -11 30 -9 10 -13 20 -8 20 5 1 14 2 19 4 6 1 14 3 18 3 22 5 -34 65 -103 110 -43 29 -81 52 -85 52 -3 0 -8 -6 -11 -14z m60 -67 c-3 -5 -10 -7 -15 -3 -5 3 -7 10 -3 15 3 5 10 7 15 3 5 -3 7 -10 3 -15z m-116 -36 c-16 -15 -18 -15 -24 0 -3 9 -3 25 0 34 6 15 8 15 24 0 15 -16 15 -18 0 -34z"/>
<path d="M1880 2091 c-33 -9 -32 -33 2 -42 31 -8 54 11 44 36 -6 16 -8 17 -46 6z"/>
<path d="M5333 2033 c-13 -2 -23 -10 -23 -17 0 -8 -10 -20 -22 -28 l-22 -14 20 -27 c29 -40 46 -42 72 -10 15 19 22 39 20 62 -3 36 -9 41 -45 34z"/>
<path d="M1814 1919 c-3 -6 -2 -15 2 -19 12 -12 38 5 30 19 -9 14 -23 14 -32 0z"/>
<path d="M1780 1910 c0 -5 5 -10 10 -10 6 0 10 5 10 10 0 6 -4 10 -10 10 -5 0 -10 -4 -10 -10z"/>
<path d="M1884 1889 l-19 -21 20 -14 c24 -18 39 -18 32 1 -4 8 -2 17 3 20 10 6 2 35 -10 35 -4 0 -15 -9 -26 -21z"/>
<path d="M5220 1870 c0 -5 5 -10 10 -10 6 0 10 5 10 10 0 6 -4 10 -10 10 -5 0 -10 -4 -10 -10z"/>
<path d="M1900 1795 c0 -8 7 -15 15 -15 8 0 15 4 15 9 0 5 -7 11 -15 15 -9 3 -15 0 -15 -9z"/>
<path d="M5060 1770 c0 -5 5 -10 10 -10 6 0 10 5 10 10 0 6 -4 10 -10 10 -5 0 -10 -4 -10 -10z"/>
<path d="M2736 1751 c-4 -5 -41 -12 -84 -16 -88 -8 -112 -13 -112 -25 0 -5 9 -12 21 -15 29 -9 239 5 239 16 0 5 -7 9 -16 9 -9 0 -18 9 -21 20 -6 21 -18 26 -27 11z"/>
<path d="M2957 1740 c-4 -17 -14 -20 -61 -20 -31 0 -56 -4 -56 -8 0 -11 286 -24 318 -16 12 4 22 10 22 14 0 10 -33 17 -123 26 -37 3 -70 10 -73 15 -9 15 -21 10 -27 -11z"/>
<path d="M820 1410 c0 -5 5 -10 10 -10 6 0 10 5 10 10 0 6 -4 10 -10 10 -5 0 -10 -4 -10 -10z"/>
<path d="M841 1376 c-7 -8 -18 -13 -24 -10 -22 8 -59 -108 -39 -120 12 -7 33 17 66 78 16 29 24 52 18 58 -5 5 -14 3 -21 -6z"/>
<path d="M740 1310 c0 -5 5 -10 10 -10 6 0 10 5 10 10 0 6 -4 10 -10 10 -5 0 -10 -4 -10 -10z"/>
<path d="M852 1290 c-14 -23 -8 -40 13 -40 19 0 25 13 18 38 -7 27 -15 28 -31 2z"/>
<path d="M3190 870 c-14 -11 -37 -20 -52 -20 -30 0 -46 -16 -30 -32 6 -6 8 -17 5 -24 -6 -17 23 -19 33 -3 3 6 15 8 26 6 12 -4 31 5 51 23 26 24 30 32 21 46 -15 25 -26 26 -54 4z"/>
<path d="M1754 516 c-9 -39 -1 -91 16 -91 10 0 16 12 18 34 7 66 -20 111 -34 57z"/>
<path d="M1000 510 c0 -5 5 -10 10 -10 6 0 10 5 10 10 0 6 -4 10 -10 10 -5 0 -10 -4 -10 -10z"/>
<path d="M3240 510 c0 -5 5 -10 10 -10 6 0 10 5 10 10 0 6 -4 10 -10 10 -5 0 -10 -4 -10 -10z"/>
<path d="M3420 510 c0 -5 5 -10 10 -10 6 0 10 5 10 10 0 6 -4 10 -10 10 -5 0 -10 -4 -10 -10z"/>
<path d="M3874 509 c-10 -17 13 -36 27 -22 12 12 4 33 -11 33 -5 0 -12 -5 -16 -11z"/>
<path d="M4574 507 c-9 -25 0 -62 16 -62 10 0 15 10 15 34 0 36 -21 54 -31 28z"/>
<path d="M4694 507 c-9 -25 0 -62 16 -62 10 0 15 10 15 34 0 36 -21 54 -31 28z"/>
<path d="M1280 490 c0 -5 5 -10 10 -10 6 0 10 5 10 10 0 6 -4 10 -10 10 -5 0 -10 -4 -10 -10z"/>
<path d="M1654 489 c-10 -17 13 -36 27 -22 12 12 4 33 -11 33 -5 0 -12 -5 -16 -11z"/>
<path d="M2774 489 c-10 -17 13 -36 27 -22 12 12 4 33 -11 33 -5 0 -12 -5 -16 -11z"/>
<path d="M3140 464 c-15 -39 -12 -45 21 -42 39 3 45 13 25 43 -21 32 -34 32 -46 -1z"/>
<path d="M4179 474 c-10 -12 -9 -18 3 -31 19 -18 38 -10 38 17 0 24 -25 33 -41 14z"/>
<path d="M1460 470 c0 -5 5 -10 10 -10 6 0 10 5 10 10 0 6 -4 10 -10 10 -5 0 -10 -4 -10 -10z"/>
<path d="M2934 467 c-9 -25 0 -62 16 -62 10 0 15 10 15 34 0 36 -21 54 -31 28z"/>
<path d="M3040 470 c0 -5 5 -10 10 -10 6 0 10 5 10 10 0 6 -4 10 -10 10 -5 0 -10 -4 -10 -10z"/>
<path d="M4280 460 c0 -11 5 -20 10 -20 6 0 10 9 10 20 0 11 -4 20 -10 20 -5 0 -10 -9 -10 -20z"/>
<path d="M4796 472 c-2 -4 0 -14 5 -22 8 -13 10 -13 18 0 10 15 6 30 -9 30 -5 0 -11 -4 -14 -8z"/>
<path d="M4893 464 c-9 -25 11 -49 38 -46 33 5 33 6 6 36 -28 30 -35 32 -44 10z"/>
<path d="M1454 427 c-3 -8 -4 -39 -2 -68 2 -40 7 -54 18 -54 20 0 22 126 3 132 -7 3 -15 -2 -19 -10z"/>
<path d="M2674 427 c-3 -8 -4 -43 -2 -78 2 -49 7 -64 18 -64 12 0 15 15 15 74 0 51 -4 76 -12 78 -7 3 -15 -2 -19 -10z"/>
<path d="M3245 416 l-40 -11 3 -48 3 -49 26 18 c25 16 27 16 40 -1 19 -27 24 -15 15 46 l-7 55 -40 -10z"/>
<path d="M4080 410 c0 -5 5 -10 10 -10 6 0 10 5 10 10 0 6 -4 10 -10 10 -5 0 -10 -4 -10 -10z"/>
<path d="M4360 404 c0 -9 -9 -18 -20 -21 -27 -7 -25 -28 8 -69 35 -44 72 -47 72 -5 0 30 -38 111 -52 111 -4 0 -8 -7 -8 -16z"/>
<path d="M1043 386 c-13 -6 -23 -16 -23 -22 0 -6 -9 -19 -20 -29 -11 -10 -20 -26 -20 -37 0 -14 8 -18 35 -18 39 0 43 7 18 26 -15 10 -16 15 -6 25 11 10 19 7 46 -19 18 -18 36 -32 40 -32 4 0 7 18 7 40 0 27 -6 45 -22 60 -24 22 -24 22 -55 6z"/>
<path d="M1954 389 c-10 -17 13 -36 27 -22 12 12 4 33 -11 33 -5 0 -12 -5 -16 -11z"/>
<path d="M3974 386 c-8 -22 3 -49 19 -43 6 2 12 14 12 27 0 27 -22 39 -31 16z"/>
<path d="M4574 387 c-9 -25 0 -62 16 -62 10 0 15 10 15 34 0 36 -21 54 -31 28z"/>
<path d="M1760 360 c0 -11 5 -20 10 -20 6 0 10 9 10 20 0 11 -4 20 -10 20 -5 0 -10 -9 -10 -20z"/>
<path d="M2934 346 c-8 -22 3 -49 19 -43 6 2 12 14 12 27 0 27 -22 39 -31 16z"/>
<path d="M4794 347 c-9 -25 0 -62 16 -62 10 0 15 10 15 34 0 36 -21 54 -31 28z"/>
<path d="M3754 326 c-8 -22 3 -49 19 -43 6 2 12 14 12 27 0 27 -22 39 -31 16z"/>
<path d="M4174 327 c-9 -25 0 -62 16 -62 10 0 15 10 15 34 0 36 -21 54 -31 28z"/>
<path d="M1750 294 c-7 -18 -7 -31 -1 -37 15 -15 43 12 39 36 -5 31 -27 32 -38 1z"/>
<path d="M4474 306 c-8 -22 3 -49 19 -43 6 2 12 14 12 27 0 27 -22 39 -31 16z"/>
<path d="M4674 309 c-10 -17 13 -36 27 -22 12 12 4 33 -11 33 -5 0 -12 -5 -16 -11z"/>
<path d="M890 285 c-10 -12 -10 -19 -2 -27 15 -15 48 14 38 31 -10 15 -21 14 -36 -4z"/>
<path d="M1280 290 c0 -5 5 -10 10 -10 6 0 10 5 10 10 0 6 -4 10 -10 10 -5 0 -10 -4 -10 -10z"/>
<path d="M1960 290 c0 -5 5 -10 10 -10 6 0 10 5 10 10 0 6 -4 10 -10 10 -5 0 -10 -4 -10 -10z"/>
<path d="M4280 290 c0 -5 5 -10 10 -10 6 0 10 5 10 10 0 6 -4 10 -10 10 -5 0 -10 -4 -10 -10z"/>
<path d="M3144 279 c-10 -17 13 -36 27 -22 12 12 4 33 -11 33 -5 0 -12 -5 -16 -11z"/>
<path d="M3040 270 c0 -5 5 -10 10 -10 6 0 10 5 10 10 0 6 -4 10 -10 10 -5 0 -10 -4 -10 -10z"/>
</g>
</g>
</svg>
