<?xml version="1.0" standalone="no"?>
<!DOCTYPE svg PUBLIC "-//W3C//DTD SVG 1.1//EN"
 "http://www.w3.org/Graphics/SVG/1.1/DTD/svg11.dtd">
<!-- Created with svg_stack (http://github.com/astraw/svg_stack) -->
<svg xmlns:sodipodi="http://sodipodi.sourceforge.net/DTD/sodipodi-0.dtd" xmlns="http://www.w3.org/2000/svg" version="1.1" width="1084.0" height="1204.0">
  <defs/>
  <g id="id0:id0" transform="matrix(1.25,0,0,1.25,0.0,0.0)"><g transform="translate(0.000000,963.200000) scale(0.040000,-0.040000)" fill="#000000" stroke="none">
<path d="M6726 22145 c-201 -44 -387 -155 -470 -279 -66 -99 -83 -181 -65 -311 13 -96 47 -163 132 -263 148 -174 167 -206 167 -284 0 -92 -84 -167 -220 -198 -78 -17 -140 -48 -140 -69 0 -20 107 -224 152 -289 16 -23 41 -50 55 -59 23 -16 30 -15 111 5 48 12 134 45 191 73 89 44 118 65 191 138 68 67 96 103 125 164 35 71 39 86 43 182 4 89 1 115 -17 172 -24 73 -45 106 -188 289 -120 154 -136 209 -82 278 39 49 94 70 186 70 106 0 108 6 53 123 -23 49 -56 120 -72 158 -26 63 -68 117 -86 114 -4 -1 -33 -7 -66 -14z"/>
<path d="M8961 22139 c-302 -59 -556 -306 -643 -624 -31 -116 -32 -362 0 -485 75 -294 306 -530 596 -610 69 -19 97 -21 245 -18 147 4 175 7 246 31 290 97 496 339 561 658 13 66 16 114 11 224 -7 167 -24 235 -98 384 -46 93 -63 116 -158 211 -85 86 -122 114 -189 149 -125 64 -246 91 -401 90 -69 -1 -146 -5 -170 -10z m327 -469 c57 -25 149 -115 181 -178 116 -231 12 -526 -216 -612 -78 -30 -196 -24 -277 13 -136 63 -221 213 -219 387 3 183 120 355 277 406 62 21 189 13 254 -16z"/>
<path d="M13584 22115 c-7 -5 -72 -172 -145 -370 -131 -361 -198 -542 -284 -775 -106 -285 -165 -460 -165 -486 0 -37 22 -45 162 -51 163 -7 280 2 309 26 13 10 30 49 45 101 37 128 16 120 300 120 l243 0 19 -25 c11 -14 26 -49 32 -78 22 -91 40 -127 69 -135 34 -9 408 -9 443 1 53 15 51 35 -37 262 -26 66 -64 167 -85 225 -169 462 -450 1159 -475 1180 -19 15 -411 20 -431 5z m267 -707 c50 -141 82 -278 68 -294 -8 -10 -39 -14 -121 -14 -93 0 -110 2 -115 17 -4 10 16 86 47 177 51 156 76 213 87 202 3 -2 18 -42 34 -88z"/>
<path d="M4755 22109 c-22 -4 -90 -8 -151 -8 -161 -1 -149 33 -134 -376 9 -235 11 -434 5 -658 -5 -177 -9 -389 -9 -472 l-1 -150 231 -3 c198 -2 233 0 244 13 10 12 11 96 2 423 -5 224 -8 410 -5 415 2 4 8 5 13 2 5 -3 80 -99 167 -213 86 -114 191 -252 233 -307 42 -55 104 -139 138 -186 97 -136 110 -145 227 -152 54 -4 144 -4 201 0 l104 6 0 438 c0 241 5 527 10 636 14 268 18 559 9 574 -10 18 -437 13 -464 -5 -19 -13 -20 -23 -17 -177 1 -90 7 -222 13 -294 15 -182 9 -390 -11 -390 -14 0 -112 124 -287 366 -236 325 -356 486 -379 507 -27 23 -65 27 -139 11z"/>
<path d="M8045 22103 c-168 -18 -707 -21 -840 -6 -51 6 -97 7 -106 2 -12 -6 -19 -36 -28 -116 -7 -59 -19 -138 -28 -176 -8 -37 -12 -79 -9 -93 l7 -26 152 7 c84 5 168 9 187 9 l35 1 8 -200 c6 -142 4 -321 -7 -615 l-16 -415 20 -17 c28 -23 159 -32 335 -23 105 5 147 11 156 21 9 11 10 79 3 277 -5 144 -9 422 -9 617 l0 355 182 0 c100 0 184 2 186 5 3 3 3 95 -1 205 l-7 200 -40 1 c-22 1 -103 -5 -180 -13z"/>
<path d="M2902 22094 c-13 -10 -13 -43 -1 -310 7 -164 14 -463 14 -664 1 -410 4 -436 71 -526 101 -136 245 -183 574 -185 183 -2 263 5 384 32 116 26 207 71 267 133 48 49 64 84 91 201 5 22 13 261 18 530 5 270 12 551 15 625 6 110 4 139 -7 154 -14 18 -29 19 -233 17 -120 -1 -226 -6 -236 -11 -9 -5 -18 -22 -20 -37 -2 -16 0 -266 5 -556 9 -591 10 -585 -59 -646 -59 -52 -170 -66 -272 -36 -63 19 -97 56 -119 133 -17 59 -17 258 2 909 l7 221 -39 11 c-56 15 -442 20 -462 5z"/>
<path d="M17408 22099 c-8 -5 -7 -65 0 -195 23 -393 25 -657 6 -1052 -14 -312 -15 -384 -4 -396 11 -14 68 -16 464 -17 248 -1 498 -4 556 -8 58 -4 110 -5 116 -3 19 6 42 81 58 192 30 210 30 206 6 230 -21 21 -28 22 -114 16 -381 -28 -506 -26 -559 9 -31 20 -37 41 -37 127 0 56 3 69 19 78 25 13 352 13 486 0 85 -9 102 -8 111 5 10 13 26 216 28 355 l1 55 -85 0 c-47 0 -183 -2 -302 -5 -194 -4 -219 -3 -234 12 -22 22 -32 154 -14 188 l12 23 262 -8 c143 -4 293 -8 331 -9 l70 -1 -2 90 c-4 154 -23 274 -46 296 -12 10 -26 19 -31 19 -6 0 -253 1 -549 3 -297 1 -544 -1 -549 -4z"/>
<path d="M10082 22082 c-16 -16 -17 -29 -11 -113 23 -294 30 -612 24 -1035 -4 -247 -4 -460 -1 -472 l7 -22 251 0 251 0 -8 108 c-5 59 -9 143 -9 187 l-1 80 240 6 c132 3 254 10 270 16 186 63 323 213 377 413 19 70 23 109 23 220 -1 121 -4 143 -28 214 -37 107 -70 159 -148 239 -52 52 -85 76 -150 106 -147 68 -175 71 -648 71 -392 0 -422 -1 -439 -18z m779 -384 c47 -14 106 -68 126 -117 21 -49 28 -167 13 -221 -15 -57 -80 -124 -135 -139 -49 -14 -244 -15 -279 -1 l-26 10 0 230 0 231 23 9 c32 13 233 12 278 -2z"/>
<path d="M11581 22083 l-22 -18 10 -95 c23 -224 33 -634 26 -1066 -5 -360 -4 -442 7 -451 18 -15 474 -21 488 -7 8 8 8 57 -1 177 -11 136 -10 168 0 181 12 14 44 16 218 16 229 0 286 9 387 63 124 66 221 187 265 327 108 353 -8 680 -291 819 -136 67 -172 71 -648 71 -383 0 -420 -1 -439 -17z m804 -397 c63 -29 81 -49 105 -119 50 -142 5 -291 -102 -337 -45 -19 -65 -21 -175 -18 -110 3 -126 5 -139 23 -12 16 -14 60 -12 234 l3 215 25 13 c16 8 66 13 135 13 95 0 117 -3 160 -24z"/>
<path d="M14683 22084 c-3 -9 0 -145 6 -303 15 -332 15 -878 1 -936 -5 -22 -10 -117 -10 -211 0 -139 3 -174 15 -184 19 -15 555 -34 750 -26 286 12 437 72 544 214 53 70 81 148 93 259 8 75 7 102 -6 155 -26 99 -62 163 -122 216 -29 26 -54 51 -54 55 0 5 20 31 44 59 67 77 99 149 104 238 12 206 -97 372 -283 434 -123 40 -203 46 -648 46 -383 0 -428 -2 -434 -16z m807 -364 c51 -29 70 -59 70 -113 0 -46 -38 -88 -98 -109 -51 -17 -266 -18 -284 0 -9 10 -12 43 -11 120 2 138 -1 135 158 130 105 -3 126 -7 165 -28z m-4 -621 c89 -23 140 -131 98 -208 -33 -59 -79 -75 -229 -79 -121 -4 -132 -2 -157 18 l-28 21 0 118 c0 78 4 121 12 129 16 16 242 16 304 1z"/>
<path d="M16171 22086 c-8 -10 -9 -91 0 -317 6 -167 9 -530 7 -806 -2 -326 1 -505 7 -512 9 -9 738 -31 1020 -31 94 0 105 2 115 20 12 22 38 268 36 345 -1 74 -14 78 -206 68 -85 -4 -234 -8 -330 -8 l-175 0 -3 210 c-4 204 11 671 28 905 6 77 5 119 -2 127 -16 20 -481 18 -497 -1z"/>
<path d="M7969 15841 c-19 -21 -63 -75 -98 -120 -35 -44 -68 -81 -73 -81 -18 0 -7 -32 20 -56 15 -13 83 -70 152 -125 69 -56 158 -129 199 -162 41 -34 87 -71 102 -82 15 -11 77 -60 139 -110 61 -49 200 -161 308 -247 109 -87 215 -173 237 -191 22 -19 144 -117 270 -218 127 -102 313 -252 415 -334 575 -463 691 -555 702 -555 14 0 77 77 136 164 19 28 45 62 58 77 13 14 24 28 24 32 0 19 -103 105 -565 475 -104 83 -228 183 -275 222 -91 75 -196 159 -282 228 -119 95 -308 247 -518 417 -123 99 -285 230 -360 290 -75 61 -213 172 -307 247 -93 75 -175 144 -182 152 -24 29 -66 19 -102 -23z"/>
<path d="M11346 13463 c-3 -4 -3 -48 0 -98 l7 -91 -33 -37 c-27 -31 -39 -37 -72 -37 -58 0 -78 -14 -78 -56 0 -52 -24 -92 -96 -160 -58 -55 -64 -64 -64 -101 0 -58 -35 -105 -85 -116 -22 -4 -49 -15 -60 -23 l-20 -16 23 -16 c12 -9 67 -52 122 -94 55 -43 106 -78 114 -78 8 0 30 23 50 50 39 54 59 58 49 10 -6 -35 3 -37 35 -10 l22 19 -25 25 c-30 30 -31 42 -6 56 11 5 29 27 42 47 12 21 36 56 53 78 17 21 36 47 41 56 6 9 64 88 130 175 66 87 126 166 133 176 12 17 10 23 -21 51 -30 29 -213 171 -243 190 -6 3 -14 4 -18 0z"/>
<path d="M7049 12643 c-9 -10 -26 -63 -39 -118 -12 -55 -31 -122 -42 -149 l-19 -50 23 -22 c19 -18 304 -93 1572 -409 855 -213 1562 -385 1579 -383 l31 3 13 80 c7 44 21 116 32 159 20 85 19 101 -7 111 -9 4 -357 92 -772 197 -1783 448 -2326 586 -2341 592 -9 4 -21 0 -30 -11z"/>
<path d="M11080 11830 c0 -5 16 -35 36 -66 61 -96 48 -155 -43 -195 -51 -22 -54 -39 -21 -126 23 -63 21 -81 -23 -180 l-23 -53 17 -47 c25 -71 22 -86 -28 -132 -25 -23 -45 -48 -45 -55 0 -9 43 -24 130 -45 71 -17 138 -31 149 -31 23 0 45 36 55 90 4 19 14 64 22 100 9 36 14 85 12 110 l-3 45 -35 5 c-24 4 -34 10 -31 20 14 54 13 57 -39 94 -48 35 -51 39 -45 69 4 18 15 48 25 67 9 19 21 48 26 65 7 22 33 46 96 90 48 33 89 68 92 78 11 44 -6 53 -163 87 -103 22 -161 26 -161 10z"/>
</g>
</g>
  <g id="id1:id1" transform="matrix(1.25,0,0,1.25,0.0,0.0)"><g transform="translate(0.000000,963.200000) scale(0.040000,-0.040000)" fill="#2c5032" stroke="none">
<path d="M14320 16620 c-286 -62 -283 -62 -370 -55 -47 3 -258 10 -470 15 -212 5 -397 9 -411 10 -35 1 -509 -160 -589 -200 -73 -37 -226 -183 -258 -247 -30 -59 -122 -441 -122 -506 0 -71 23 -120 71 -151 32 -22 36 -29 35 -65 0 -34 5 -47 37 -79 28 -29 41 -54 53 -103 9 -35 20 -69 25 -75 10 -13 91 -31 172 -39 62 -6 107 -24 144 -57 18 -17 24 -18 44 -7 45 24 90 27 172 13 109 -19 190 -40 268 -68 35 -13 152 -56 260 -94 272 -97 347 -129 559 -239 178 -91 333 -185 360 -218 15 -18 -2 -45 -28 -45 -9 0 -29 -4 -46 -9 -17 -5 -98 -22 -181 -36 -87 -16 -182 -40 -225 -57 l-75 -30 -116 6 c-63 4 -142 11 -175 16 -32 4 -111 15 -174 24 -63 9 -145 20 -183 26 -113 17 -212 13 -268 -11 l-49 -22 -43 47 c-63 68 -95 63 -198 -32 -45 -40 -78 -61 -103 -66 -38 -7 -44 -22 -26 -57 18 -33 -13 -33 -112 1 -51 17 -102 29 -114 26 -22 -6 -34 -32 -34 -77 0 -32 -26 -57 -69 -65 -41 -8 -56 -33 -72 -112 -27 -141 18 -282 135 -424 75 -90 169 -155 361 -249 272 -132 676 -259 1410 -440 138 -34 263 -68 278 -76 50 -26 61 -70 51 -218 -5 -71 -9 -191 -9 -266 0 -83 -5 -142 -11 -150 -220 -279 -408 -457 -723 -681 -188 -133 -356 -239 -409 -256 -56 -19 -164 -2 -211 33 -52 37 -98 106 -119 176 -21 66 -39 211 -34 262 4 32 -18 55 -128 137 -107 79 -127 102 -135 155 -14 100 -56 239 -103 343 -83 186 -203 333 -361 441 -90 62 -116 65 -137 16 -15 -36 -52 -189 -73 -300 -6 -33 -24 -102 -41 -154 -33 -101 -33 -121 5 -261 19 -71 19 -110 -1 -138 -18 -26 -77 -66 -114 -76 -14 -4 -60 -26 -103 -48 -43 -22 -88 -38 -101 -36 -15 2 -33 -6 -49 -22 -55 -56 -82 -76 -131 -96 l-51 -22 -35 -85 c-19 -47 -43 -94 -52 -105 -34 -36 -17 -66 52 -92 55 -21 62 -30 55 -66 -4 -23 -1 -36 10 -46 9 -7 25 -21 35 -30 17 -15 23 -15 76 -1 32 8 75 23 96 34 27 14 49 18 71 14 26 -5 47 1 102 31 124 66 225 78 246 30 5 -11 15 -59 24 -106 25 -139 50 -253 77 -341 41 -132 48 -192 48 -393 l0 -187 -23 -23 c-12 -12 -54 -39 -92 -59 -39 -21 -128 -78 -200 -127 -71 -49 -179 -123 -240 -164 -113 -76 -405 -228 -524 -273 -104 -39 -314 -130 -461 -200 -226 -107 -413 -228 -544 -352 -58 -55 -258 -290 -326 -383 -329 -450 -759 -912 -1225 -1314 -38 -33 -82 -69 -96 -80 -15 -10 -69 -53 -120 -95 -151 -123 -295 -224 -586 -412 -39 -26 -84 -52 -100 -59 -15 -7 -41 -22 -58 -34 -60 -44 -473 -243 -610 -294 -169 -63 -381 -131 -490 -156 -68 -16 -122 -19 -360 -19 -369 1 -566 23 -855 96 -555 140 -943 416 -1178 839 -57 103 -100 254 -131 467 -14 91 -14 473 -1 584 6 46 15 125 21 174 27 232 108 580 185 792 64 177 125 298 195 384 50 63 59 80 59 115 0 22 -5 45 -12 52 -8 8 -53 12 -134 12 l-123 0 -58 -51 c-32 -28 -81 -66 -108 -84 -76 -51 -172 -142 -199 -188 -79 -135 -245 -746 -307 -1124 -57 -354 -74 -735 -45 -1018 50 -481 208 -894 471 -1229 80 -102 296 -313 399 -391 215 -160 501 -320 736 -412 403 -158 905 -274 1435 -333 407 -44 598 -53 1145 -53 593 -1 814 9 1620 73 140 11 273 22 295 25 80 10 502 35 603 35 58 0 113 -5 125 -11 25 -13 107 -95 107 -107 0 -4 -25 -82 -55 -174 -86 -265 -89 -339 -21 -547 59 -180 70 -256 71 -451 0 -164 -2 -180 -27 -256 -55 -162 -153 -293 -254 -339 -62 -27 -201 -69 -304 -90 -41 -9 -155 -36 -254 -61 -225 -56 -348 -115 -426 -202 -55 -61 -69 -94 -51 -116 17 -20 896 -21 1516 -1 948 30 1591 46 1627 42 22 -3 41 0 47 7 7 9 -20 143 -42 200 -3 7 -32 23 -64 34 -32 11 -103 40 -158 64 l-100 43 -127 0 c-70 1 -132 5 -136 10 -5 6 -15 33 -22 60 -7 28 -42 124 -78 215 -69 176 -122 332 -122 359 1 16 18 50 150 291 112 206 120 222 120 244 0 18 -14 109 -61 398 l-11 67 97 293 c53 161 102 298 108 304 16 16 448 44 667 44 158 0 397 -21 423 -37 20 -12 -1 -176 -38 -298 -65 -211 -75 -248 -90 -342 -27 -167 -26 -171 58 -255 78 -78 117 -145 142 -243 22 -86 20 -341 -5 -540 -11 -88 -26 -212 -34 -275 -25 -204 -29 -316 -12 -333 9 -8 60 -30 113 -47 54 -18 108 -39 121 -46 l22 -15 -41 -80 -42 -81 20 -26 c10 -15 41 -38 69 -52 44 -23 60 -25 169 -24 123 0 124 0 470 81 109 25 137 28 310 28 180 -1 283 -8 575 -41 191 -21 337 -18 482 10 176 35 235 40 316 26 66 -11 75 -10 147 14 43 14 85 26 94 26 24 1 52 26 46 41 -3 8 -47 35 -98 61 -50 26 -130 68 -177 94 -184 102 -230 123 -360 167 -74 25 -201 62 -282 82 -81 19 -171 44 -200 53 -56 19 -161 74 -214 114 -111 82 -189 146 -256 210 -66 63 -79 81 -93 130 -9 32 -53 133 -97 225 -44 93 -89 193 -100 223 -37 107 -34 347 8 550 42 203 109 416 142 454 23 26 239 200 321 259 36 26 91 69 121 96 65 57 255 304 415 540 224 331 212 318 776 866 367 357 496 542 709 1010 12 28 64 154 115 280 127 314 164 392 249 520 93 141 123 194 187 335 119 265 287 839 393 1340 60 284 75 348 101 408 35 84 54 206 65 431 11 222 8 319 -31 1346 -10 271 -7 431 12 580 17 132 68 439 95 569 29 144 62 334 74 431 5 39 16 114 25 168 19 118 22 451 6 547 -23 125 -83 270 -158 375 -81 113 -295 306 -448 402 -196 124 -290 173 -885 466 -311 154 -431 220 -545 304 -110 81 -184 98 -544 123 -162 12 -338 30 -393 40 -118 24 -110 24 -218 0z"/>
<path d="M11445 12939 c-22 -12 -47 -28 -56 -35 -9 -8 -23 -12 -32 -8 -12 4 -20 -2 -27 -20 -16 -43 -89 -145 -115 -162 -28 -19 -32 -36 -10 -54 8 -7 13 -16 10 -20 -3 -5 -1 -12 5 -15 6 -4 8 -15 5 -26 -10 -30 4 -42 28 -26 12 8 48 17 79 20 32 4 71 15 87 25 33 19 201 265 201 294 0 22 -23 34 -85 42 -40 5 -58 2 -90 -15z"/>
</g>
</g>
  <g id="id2:id2" transform="matrix(1.25,0,0,1.25,0.0,0.0)"><g transform="translate(0.000000,963.200000) scale(0.040000,-0.040000)" fill="#fa4a0e" stroke="none">
<path d="M7091 17402 c-17 -12 -17 -40 -1 -117 21 -104 28 -111 111 -118 50 -4 90 -15 128 -34 49 -24 60 -36 86 -88 26 -52 30 -70 28 -132 -4 -129 -39 -178 -186 -255 -56 -30 -124 -63 -150 -72 -39 -15 -57 -30 -93 -80 -65 -88 -80 -123 -87 -198 -8 -93 -76 -227 -146 -290 -86 -77 -176 -86 -289 -29 -78 40 -105 84 -136 224 l-6 27 -83 -1 c-126 -2 -141 -7 -145 -49 -2 -26 6 -49 33 -90 20 -30 58 -98 85 -150 65 -130 76 -142 133 -146 26 -2 137 -22 246 -44 110 -22 214 -40 231 -40 27 0 49 16 140 105 59 58 112 105 117 105 10 0 38 141 35 177 -1 12 -16 61 -33 110 -17 48 -33 107 -36 130 -5 39 -2 46 31 79 30 30 41 35 64 30 124 -29 330 -30 352 -3 35 41 70 91 70 98 0 12 96 153 114 168 23 20 20 48 -18 152 -48 132 -164 391 -184 411 -22 22 -289 116 -350 123 -26 3 -53 2 -61 -3z"/>
<path d="M5859 13696 c-3 -3 -51 -11 -107 -16 -192 -18 -220 -54 -127 -163 31 -36 65 -69 74 -72 10 -3 40 4 67 16 63 27 153 36 196 19 51 -20 104 -77 133 -142 23 -52 27 -71 23 -134 -3 -57 -8 -79 -26 -101 -12 -15 -40 -53 -61 -83 -21 -30 -62 -80 -90 -110 -56 -59 -56 -58 -71 -171 -8 -63 -7 -87 6 -130 25 -83 30 -267 9 -333 -36 -113 -124 -176 -248 -176 -43 0 -80 6 -100 16 -41 21 -95 71 -113 107 -11 20 -22 27 -44 27 -37 0 -178 -69 -183 -90 -6 -28 31 -87 64 -100 17 -8 79 -51 136 -97 93 -74 108 -83 146 -83 41 0 454 98 510 121 30 12 76 98 98 183 6 22 17 52 26 64 8 13 12 26 9 30 -3 3 1 16 10 30 14 21 14 27 0 57 -9 18 -16 42 -16 54 0 46 -32 101 -80 136 -58 42 -120 110 -120 130 0 25 31 109 47 127 10 11 31 17 62 17 75 1 106 13 193 74 93 65 109 89 101 146 -6 41 11 155 29 204 8 20 7 35 -2 57 -14 33 -173 190 -315 310 l-88 75 -71 3 c-39 2 -74 1 -77 -2z"/>
</g>
</g>
  <g id="id3:id3" transform="matrix(1.25,0,0,1.25,0.0,0.0)"><g transform="translate(0.000000,963.200000) scale(0.040000,-0.040000)" fill="#ffffff" stroke="none">
<path d="M0 12040 l0 -12040 10840 0 10840 0 0 12040 0 12040 -10840 0 -10840 0 0 -12040z m6818 10088 c5 -7 24 -47 42 -88 18 -41 50 -111 72 -155 21 -43 37 -84 34 -91 -3 -7 -31 -11 -74 -11 -122 0 -209 -57 -228 -150 -11 -56 49 -156 202 -338 224 -266 125 -624 -221 -802 -103 -53 -252 -98 -290 -89 -23 6 -47 37 -112 146 -42 69 -93 174 -93 190 0 14 26 25 113 49 134 36 192 74 229 145 16 31 19 52 15 92 -7 69 -31 113 -119 214 -117 135 -137 165 -159 227 -29 84 -35 204 -15 275 38 128 159 251 311 315 115 49 134 56 198 68 83 17 83 17 95 3z m2545 -22 c217 -60 392 -202 496 -406 76 -148 92 -211 98 -381 6 -165 -3 -236 -47 -365 -62 -182 -212 -360 -377 -447 -137 -72 -217 -90 -398 -90 -136 -1 -159 2 -240 27 -125 38 -213 88 -306 175 -130 120 -206 242 -249 401 -21 73 -24 109 -24 255 -1 150 2 180 22 250 98 332 354 560 682 605 97 13 246 3 343 -24z m4647 -24 c21 -25 69 -140 195 -462 53 -135 104 -265 115 -290 10 -25 46 -119 80 -210 33 -91 67 -181 75 -200 25 -61 127 -333 142 -382 9 -26 13 -53 10 -62 -9 -22 -74 -28 -276 -24 -205 3 -201 2 -222 83 -32 125 -40 146 -62 155 -12 4 -133 8 -269 7 -212 -2 -250 -4 -263 -18 -9 -9 -28 -58 -43 -110 l-27 -94 -35 -12 c-39 -13 -310 -16 -375 -5 -38 7 -40 10 -39 42 2 35 96 306 244 705 43 116 102 273 130 350 28 77 67 181 86 232 19 51 34 95 34 98 0 11 72 200 81 211 6 7 76 10 205 9 187 -2 198 -3 214 -23z m-9123 1 c11 -10 51 -61 89 -113 37 -52 111 -153 164 -225 53 -71 127 -173 165 -225 151 -211 238 -320 255 -320 38 0 42 22 37 207 -3 98 -10 283 -16 412 -10 190 -9 237 1 247 9 8 82 14 226 18 187 6 213 4 218 -9 4 -9 1 -167 -5 -353 -6 -185 -11 -543 -12 -795 0 -419 -2 -459 -17 -465 -9 -4 -97 -7 -194 -6 -138 0 -180 4 -194 15 -9 8 -88 109 -174 224 -431 576 -489 649 -506 632 -3 -3 -4 -117 -3 -254 2 -136 4 -329 4 -428 l0 -180 -220 0 -220 0 2 175 c2 214 2 1032 0 1265 l-2 170 138 6 c75 3 140 9 144 12 14 15 101 7 120 -10z m3365 -163 c4 -96 5 -181 3 -189 -4 -11 -36 -12 -178 -6 -154 6 -174 5 -186 -9 -12 -14 -13 -91 -6 -454 5 -240 9 -518 9 -617 l1 -180 -60 -8 c-33 -4 -133 -6 -222 -5 -136 3 -165 6 -179 20 -16 15 -16 37 -5 270 16 355 15 974 -1 980 -7 3 -62 1 -123 -3 -184 -13 -245 -11 -252 7 -3 9 1 46 10 82 9 37 19 109 23 159 3 51 12 99 18 107 10 13 39 13 236 0 124 -8 281 -12 350 -9 208 10 465 26 470 31 2 3 22 4 45 2 l40 -3 7 -175z m-4883 146 c12 -9 12 -61 5 -331 -5 -176 -9 -424 -9 -551 l0 -230 30 -59 c25 -48 39 -63 78 -82 105 -53 268 -37 333 33 66 70 67 73 56 662 -5 290 -6 536 -1 548 l7 21 213 6 c162 5 215 4 227 -5 13 -11 14 -39 8 -193 -4 -99 -11 -382 -16 -630 -5 -247 -13 -471 -19 -496 -45 -204 -171 -287 -491 -324 -150 -17 -249 -19 -396 -4 -222 21 -340 78 -410 197 -46 78 -54 148 -54 502 0 179 -5 461 -11 627 -7 166 -9 309 -6 317 6 14 31 15 224 10 134 -4 223 -11 232 -18z m7665 -5 c207 -55 334 -168 409 -363 l31 -83 1 -145 c0 -166 -14 -232 -71 -347 -45 -89 -143 -187 -233 -232 -100 -51 -181 -62 -406 -54 l-194 6 -7 -27 c-4 -16 -1 -97 6 -181 7 -83 10 -160 6 -170 -6 -16 -21 -17 -229 -10 -122 4 -226 9 -230 12 -5 3 -7 244 -5 536 2 364 -1 608 -11 772 -7 132 -14 254 -15 270 l-1 30 50 7 c28 3 223 5 435 3 352 -3 392 -5 464 -24z m1503 -1 c193 -45 341 -179 411 -371 25 -68 27 -86 26 -219 0 -179 -21 -267 -92 -384 -76 -126 -174 -197 -329 -237 -71 -18 -96 -19 -275 -13 l-197 7 -12 -29 c-8 -22 -8 -68 1 -186 6 -86 9 -162 5 -169 -6 -9 -62 -10 -229 -4 -122 4 -225 9 -230 13 -5 3 -6 181 -2 438 6 420 -3 812 -24 1043 -7 73 -7 108 1 117 15 19 110 22 510 18 310 -2 355 -5 436 -24z m3132 1 c117 -25 192 -61 251 -120 78 -79 115 -189 108 -322 -4 -90 -30 -147 -106 -231 -35 -39 -50 -64 -45 -73 5 -7 27 -28 51 -45 143 -103 185 -367 88 -558 -77 -152 -216 -233 -449 -262 -109 -14 -764 -8 -827 7 l-35 9 1 184 c1 102 5 316 9 475 5 197 4 393 -5 612 -7 177 -10 329 -6 338 6 16 41 17 439 12 386 -5 442 -7 526 -26z m979 17 c6 -9 7 -64 1 -163 -18 -334 -29 -652 -29 -856 0 -181 2 -219 15 -229 15 -13 134 -11 527 6 112 5 151 4 163 -6 11 -9 15 -32 15 -84 0 -89 -26 -286 -39 -299 -16 -16 -1076 4 -1093 21 -10 10 -13 162 -16 695 -1 375 -4 734 -5 797 l-2 115 220 5 c121 3 223 7 226 8 4 1 11 -4 17 -10z m1860 2 c7 0 19 -15 27 -33 18 -43 41 -315 27 -329 -6 -6 -95 -6 -258 2 -137 7 -282 11 -323 8 -97 -5 -104 -15 -99 -126 4 -73 7 -86 31 -109 l26 -27 163 3 c89 1 219 6 288 11 70 5 129 5 134 0 5 -5 3 -75 -3 -162 -6 -84 -12 -169 -14 -188 l-2 -35 -120 5 c-66 3 -199 5 -296 5 -221 -1 -213 3 -206 -118 4 -78 8 -92 30 -114 14 -14 44 -29 68 -34 63 -12 259 -11 442 2 208 16 197 25 173 -153 -29 -217 -45 -256 -96 -242 -14 4 -261 10 -550 13 l-525 6 -3 90 c-2 50 2 164 9 255 15 210 14 808 -2 1056 -7 105 -10 197 -7 205 5 12 88 14 539 12 294 -1 540 -3 547 -3z m-11303 -4704 c99 -29 264 -92 283 -109 11 -10 30 -42 42 -70 12 -29 46 -106 75 -172 30 -66 64 -154 76 -196 l22 -76 -45 -64 c-58 -83 -108 -172 -108 -193 0 -20 38 -57 141 -136 l76 -59 67 -129 c58 -112 74 -135 126 -178 42 -34 60 -56 60 -72 0 -43 23 -67 185 -192 18 -14 144 -115 280 -225 136 -110 334 -270 440 -355 105 -85 258 -209 340 -275 81 -66 182 -147 224 -179 42 -33 112 -89 156 -126 44 -37 194 -158 334 -271 140 -112 300 -241 355 -287 164 -134 196 -153 258 -156 67 -3 116 -32 223 -136 138 -133 198 -148 326 -81 117 61 143 67 209 42 30 -12 105 -57 165 -101 61 -45 136 -100 168 -123 68 -49 206 -168 260 -225 21 -22 62 -53 93 -68 30 -15 69 -44 86 -63 25 -28 29 -40 25 -68 -9 -51 -23 -63 -76 -63 -100 -1 -133 -18 -188 -97 -13 -20 -13 -24 4 -47 10 -14 26 -28 35 -31 68 -23 247 -184 325 -294 76 -106 148 -279 183 -438 l30 -138 43 -37 c23 -20 78 -66 122 -100 l80 -64 7 -99 c15 -205 70 -331 171 -394 52 -32 152 -45 210 -27 80 24 464 282 662 443 153 125 432 417 489 510 7 12 18 307 19 493 1 103 -15 139 -70 163 -21 9 -159 46 -308 83 -569 139 -967 256 -1199 350 -155 64 -350 165 -424 221 -123 94 -230 265 -239 386 -7 88 13 193 40 212 12 8 31 15 43 15 30 0 64 45 64 85 0 18 7 38 16 46 16 13 39 7 183 -46 24 -9 50 -14 58 -11 16 6 17 48 2 63 -16 16 -4 29 30 36 16 3 55 30 87 60 101 93 125 97 182 32 22 -25 44 -45 50 -45 5 0 29 9 53 20 72 32 159 29 494 -21 175 -26 356 -40 408 -33 23 3 69 16 102 29 33 12 114 32 180 44 239 44 335 71 335 94 0 13 -45 49 -150 118 -68 45 -375 205 -490 255 -47 20 -172 68 -278 105 -106 38 -205 75 -220 83 -47 24 -233 75 -339 94 -90 16 -108 17 -157 4 -52 -13 -58 -12 -83 6 -40 28 -91 42 -182 51 -91 9 -131 29 -131 65 0 42 -29 108 -66 148 -30 33 -35 46 -30 70 4 23 0 35 -19 54 -13 13 -28 24 -34 24 -24 0 -51 68 -51 130 0 71 87 436 119 498 32 63 187 204 266 244 99 49 563 201 584 192 9 -5 192 -12 406 -16 215 -4 422 -10 460 -13 71 -6 87 -4 360 55 106 23 105 23 295 -10 30 -6 156 -17 280 -25 396 -26 454 -38 575 -122 136 -96 250 -159 525 -294 807 -396 950 -480 1201 -709 147 -134 256 -319 296 -503 24 -110 21 -440 -6 -622 -42 -278 -53 -344 -96 -565 -24 -124 -53 -290 -64 -370 -12 -80 -27 -174 -33 -210 -14 -79 -14 -516 1 -785 6 -104 15 -352 22 -550 17 -540 -5 -865 -68 -1004 -14 -31 -40 -128 -58 -216 -18 -88 -42 -203 -54 -255 -32 -150 -139 -577 -166 -660 -179 -563 -233 -691 -380 -911 -92 -135 -169 -293 -259 -529 -13 -36 -46 -114 -71 -175 -26 -60 -55 -131 -66 -158 -33 -82 -148 -306 -201 -391 -144 -230 -256 -353 -859 -941 -138 -135 -202 -205 -253 -280 -38 -55 -103 -149 -144 -210 -258 -377 -414 -563 -542 -647 -30 -20 -78 -56 -107 -80 -28 -24 -88 -72 -132 -108 -45 -36 -90 -78 -100 -95 -19 -31 -77 -202 -104 -310 -66 -257 -83 -535 -41 -675 8 -27 52 -127 98 -223 46 -96 93 -203 105 -239 19 -58 31 -74 112 -152 50 -48 108 -98 129 -111 21 -13 41 -29 45 -35 11 -18 155 -111 219 -141 34 -16 149 -51 256 -78 223 -57 425 -126 520 -178 36 -20 128 -69 205 -110 215 -115 212 -112 123 -134 -29 -6 -68 -19 -87 -26 -28 -12 -49 -12 -115 -4 -89 12 -182 4 -307 -26 -90 -22 -376 -25 -539 -6 -247 29 -346 36 -525 36 -172 0 -201 -2 -300 -26 -364 -87 -502 -104 -609 -73 -68 20 -110 56 -101 87 4 11 22 47 41 80 19 34 34 67 34 73 0 16 -30 30 -139 67 -46 16 -95 36 -109 45 l-24 16 7 91 c7 112 35 369 40 377 12 19 35 324 35 449 -1 229 -33 322 -157 451 l-73 77 0 49 c1 101 28 225 110 494 25 83 32 125 33 200 l2 95 -95 12 c-198 24 -408 27 -718 8 -178 -11 -302 -22 -309 -29 -12 -10 -98 -259 -178 -509 l-35 -108 31 -192 c17 -106 33 -215 36 -244 l5 -51 -93 -169 c-51 -92 -113 -207 -138 -254 l-45 -87 24 -78 c13 -44 54 -156 91 -250 37 -93 77 -204 89 -245 30 -102 34 -105 117 -90 102 18 188 1 328 -64 39 -18 89 -39 113 -46 24 -7 47 -20 51 -28 18 -37 43 -153 35 -161 -5 -5 -198 -14 -429 -20 -231 -5 -478 -12 -550 -15 -818 -36 -2142 -48 -2164 -21 -17 20 49 107 109 146 122 77 207 107 490 171 377 85 450 112 530 197 149 158 213 394 181 672 -15 126 -22 158 -72 320 -21 69 -41 148 -45 176 -9 76 11 180 71 364 30 92 55 171 55 177 0 6 -24 36 -54 66 -60 61 -79 67 -195 67 -83 0 -524 -27 -581 -35 -83 -12 -845 -68 -1185 -87 -304 -17 -1246 -17 -1465 0 -323 25 -651 62 -805 91 -55 11 -120 22 -145 25 -68 10 -257 53 -425 97 -899 237 -1526 682 -1840 1308 -71 142 -97 208 -144 365 -81 267 -111 493 -111 828 0 378 39 676 147 1118 54 224 155 562 194 647 31 70 95 138 199 211 36 25 79 58 95 73 78 70 90 74 210 69 l110 -5 3 -35 c2 -29 -7 -47 -52 -107 -77 -101 -128 -204 -191 -380 -143 -399 -225 -867 -225 -1283 0 -499 105 -789 395 -1098 128 -136 271 -237 490 -345 160 -80 263 -116 464 -166 307 -76 487 -96 861 -95 293 1 303 2 540 73 137 42 150 46 345 122 105 40 503 233 555 268 14 10 52 32 85 51 64 35 347 222 480 316 484 343 1152 998 1538 1508 136 180 166 219 221 287 79 98 277 295 350 349 177 129 444 263 836 420 124 50 373 173 477 236 40 25 141 93 223 152 82 59 201 136 265 172 87 50 118 72 130 97 21 44 21 336 -1 453 -16 87 -44 144 -63 125 -5 -5 -16 -42 -25 -81 -15 -76 -44 -141 -70 -163 -22 -18 -133 -10 -251 17 -49 12 -146 31 -215 43 -69 11 -150 27 -180 34 -30 7 -109 26 -175 40 -66 15 -145 36 -175 45 -30 10 -76 21 -103 25 -27 4 -64 19 -86 36 -48 34 -59 68 -91 274 -12 77 -26 149 -32 160 -20 38 -52 65 -87 74 -20 5 -90 21 -156 37 l-120 29 -50 52 -50 52 -380 95 c-1806 451 -2711 676 -2723 676 -8 0 -23 -11 -34 -25 -23 -29 -51 -32 -108 -9 -42 17 -88 16 -332 -2 -80 -6 -191 13 -250 42 -41 21 -73 1 -103 -62 -14 -29 -25 -57 -25 -63 0 -5 -15 -43 -34 -84 -40 -88 -9 -73 -324 -151 -168 -41 -229 -52 -251 -46 -17 4 -65 37 -108 72 -43 36 -98 77 -123 92 -85 53 -91 82 -25 121 25 14 63 32 85 40 l40 14 25 -39 c49 -78 127 -120 223 -120 57 0 80 5 130 31 63 31 92 62 126 134 28 57 35 255 12 325 -18 56 -21 157 -5 229 8 37 24 65 62 109 154 176 197 263 177 355 -12 59 -60 155 -91 183 -85 77 -176 83 -322 19 -15 -6 -31 6 -78 56 -32 35 -59 72 -59 82 0 35 107 60 328 74 l73 5 52 -41 c62 -47 324 -293 345 -322 9 -13 12 -30 8 -47 -20 -82 -35 -173 -35 -219 -1 -66 14 -77 136 -104 156 -34 181 -46 268 -126 73 -67 88 -76 165 -99 65 -20 92 -34 115 -59 l30 -34 485 -121 c421 -105 1342 -337 2325 -584 l290 -73 48 23 c27 13 61 24 75 24 45 0 174 -37 237 -67 75 -35 153 -38 205 -7 19 11 62 56 95 100 106 139 132 142 495 59 264 -60 310 -75 321 -102 24 -64 139 18 139 100 0 42 -47 209 -61 218 -28 17 -39 8 -67 -54 -33 -73 -82 -110 -144 -109 -45 1 -81 19 -177 91 -42 31 -87 62 -101 70 -58 32 -459 331 -526 392 -21 20 -66 61 -98 90 -59 55 -86 98 -86 143 0 13 19 79 41 147 44 133 60 240 40 277 -6 12 -37 41 -69 64 -86 63 -179 156 -192 192 -32 82 -45 100 -118 157 -77 61 -180 144 -577 463 -115 93 -334 269 -485 391 -151 122 -333 268 -403 326 -71 57 -141 113 -156 124 -15 11 -60 47 -100 80 -41 33 -91 74 -112 90 -128 102 -197 157 -378 303 -111 89 -211 162 -222 162 -11 0 -27 -5 -37 -11 -15 -9 -26 -7 -58 13 -22 14 -46 33 -54 42 -22 27 -121 74 -205 96 -42 11 -94 29 -114 39 -52 27 -154 105 -191 147 l-31 36 -108 -105 c-59 -58 -118 -110 -131 -115 -18 -7 -64 -1 -165 20 -77 16 -191 38 -254 48 -62 11 -120 25 -128 32 -8 6 -37 57 -65 111 -27 55 -65 123 -85 152 -58 89 -41 112 84 114 70 1 85 -11 97 -81 12 -65 64 -129 136 -168 55 -29 75 -35 130 -34 113 0 195 59 263 191 47 92 62 137 72 215 5 35 20 69 58 125 47 69 58 79 117 106 36 16 107 52 159 81 79 43 100 59 129 104 33 49 36 61 40 141 4 79 2 92 -26 153 -28 62 -33 67 -95 98 -46 23 -86 34 -132 38 -72 5 -79 11 -90 77 -4 22 -11 52 -17 68 -8 20 -7 31 2 42 15 19 41 19 105 1z"/>
<path d="M9037 21705 c-171 -47 -297 -229 -297 -430 0 -134 49 -254 135 -334 75 -69 142 -94 255 -95 88 -1 100 1 161 31 84 41 160 121 202 210 27 59 32 82 35 167 5 120 -14 201 -68 284 -36 56 -99 116 -150 142 -73 38 -186 49 -273 25z"/>
<path d="M13782 21493 c-32 -76 -122 -343 -122 -362 0 -40 31 -51 141 -51 125 0 152 12 143 63 -15 82 -100 362 -117 385 -16 20 -24 14 -45 -35z"/>
<path d="M10580 21717 l-35 -12 -1 -243 c-1 -197 2 -244 13 -254 21 -17 224 -23 288 -9 69 15 128 60 156 118 18 37 22 64 22 132 1 140 -52 231 -156 265 -57 19 -234 21 -287 3z"/>
<path d="M12095 21723 c-55 -9 -55 -7 -55 -257 0 -179 3 -236 13 -251 12 -15 32 -19 138 -23 185 -7 250 18 304 118 27 50 29 63 28 146 -2 134 -36 198 -128 247 -33 18 -60 22 -155 23 -63 1 -128 0 -145 -3z"/>
<path d="M15203 21762 c-47 -4 -47 -3 -58 -128 -4 -42 -2 -87 5 -112 13 -52 29 -57 165 -56 125 0 191 20 236 71 29 33 31 41 26 85 -12 99 -70 135 -227 140 -58 2 -124 2 -147 0z"/>
<path d="M15178 21124 c-34 -10 -38 -278 -4 -312 13 -14 41 -16 165 -14 160 2 180 6 229 47 79 66 54 213 -45 261 -31 15 -66 19 -183 20 -80 2 -153 0 -162 -2z"/>
<path d="M11195 13477 c-117 -62 -321 -312 -369 -455 -50 -147 -41 -270 21 -274 57 -3 109 4 131 19 29 18 52 70 52 116 0 28 10 43 60 90 67 64 91 104 99 162 l6 40 53 5 c72 8 114 48 115 111 0 69 -25 193 -42 206 -25 20 -62 14 -126 -20z"/>
<path d="M11628 13239 c-10 -5 -56 -62 -104 -127 -48 -64 -104 -138 -125 -163 -59 -71 -45 -93 27 -44 39 27 83 31 162 16 l44 -9 14 33 c7 19 18 36 23 39 12 8 81 131 81 144 0 12 -90 122 -99 122 -3 0 -14 -5 -23 -11z"/>
<path d="M11139 12603 c-48 -65 -47 -71 25 -120 72 -49 102 -45 170 21 51 49 84 102 72 113 -4 5 -124 -9 -156 -18 -11 -3 -16 5 -18 29 -3 26 -7 32 -27 32 -18 0 -36 -15 -66 -57z"/>
<path d="M11015 11852 c-28 -6 -50 -27 -86 -83 -70 -109 -118 -291 -126 -481 -4 -87 -2 -107 23 -180 28 -85 59 -128 93 -128 57 0 141 65 141 109 0 13 -7 48 -16 76 l-17 52 26 57 c39 84 42 113 18 174 -31 79 -29 88 34 117 47 23 56 32 65 64 12 45 3 81 -35 142 -40 62 -80 90 -120 81z"/>
<path d="M11440 11261 c-19 -10 -54 -24 -77 -31 -30 -9 -44 -20 -51 -39 -21 -56 -55 -239 -49 -263 8 -30 67 -58 121 -58 57 0 77 26 108 141 38 143 62 248 57 253 -16 16 -78 14 -109 -3z"/>
</g>
</g>
  <g id="id4:id4" transform="matrix(1.25,0,0,1.25,0.0,0.0)"><g transform="translate(0.000000,963.200000) scale(0.040000,-0.040000)" fill="#ffb418" stroke="none">
<path d="M10500 13892 c0 -5 9 -17 20 -27 11 -10 20 -21 20 -24 0 -3 -25 -40 -55 -81 -126 -169 -135 -180 -161 -180 -29 0 -29 3 -4 -63 17 -44 36 -69 98 -125 43 -38 95 -82 117 -96 90 -61 89 -107 -11 -414 -30 -93 -12 -130 129 -263 61 -58 122 -111 135 -118 12 -7 66 -47 120 -89 53 -42 108 -83 122 -91 14 -8 49 -33 79 -55 29 -23 87 -62 127 -88 40 -26 92 -64 114 -86 58 -56 113 -82 171 -82 71 0 112 30 150 108 22 44 35 62 50 62 14 0 19 7 19 29 0 16 13 72 30 126 16 54 41 154 55 224 30 147 51 219 73 244 9 10 15 30 14 45 -1 15 9 39 22 55 20 25 33 30 102 38 125 15 121 12 129 68 11 78 -24 126 -130 179 -23 11 -83 63 -135 115 -52 52 -110 104 -128 115 -18 11 -52 36 -75 56 -23 20 -65 51 -94 68 -28 18 -84 56 -123 85 -40 29 -98 62 -129 74 l-56 21 -55 -17 c-30 -9 -80 -30 -110 -46 -117 -63 -165 -52 -293 70 -125 118 -167 144 -242 149 -33 2 -64 8 -69 13 -13 11 -26 12 -26 1z m807 -414 c6 -7 14 -26 19 -43 8 -29 9 -39 13 -77 2 -32 20 -19 27 20 4 20 8 40 11 44 5 9 197 -136 222 -168 10 -13 25 -24 32 -24 12 0 99 -91 99 -103 0 -7 -68 -118 -83 -136 -8 -9 -29 -45 -47 -81 -18 -36 -44 -81 -56 -100 -13 -19 -41 -61 -61 -92 -53 -80 -213 -248 -236 -248 -21 0 -107 58 -107 72 0 5 -6 8 -13 6 -6 -2 -48 24 -91 57 -119 90 -146 115 -152 141 -4 15 -13 24 -26 24 -30 0 -51 62 -43 129 16 128 129 323 271 467 94 96 194 146 221 112z"/>
<path d="M10934 12050 c-36 -11 -79 -53 -127 -124 -40 -60 -68 -82 -127 -97 -42 -11 -51 -9 -125 20 -86 35 -223 71 -268 71 -15 0 -46 -9 -68 -21 -40 -20 -42 -24 -28 -64 2 -5 -10 -75 -26 -154 -27 -130 -32 -145 -55 -154 -14 -6 -27 -12 -29 -14 -9 -6 74 -95 98 -105 27 -10 72 -22 228 -59 83 -19 95 -25 112 -53 20 -32 45 -149 62 -289 16 -133 54 -183 159 -207 30 -7 75 -19 100 -27 59 -19 224 -60 275 -68 22 -3 67 -12 100 -20 33 -7 114 -23 180 -35 66 -12 168 -32 227 -46 104 -23 231 -31 255 -16 16 10 73 148 73 177 0 29 10 37 27 23 18 -14 29 -3 15 15 -7 8 -9 17 -6 20 3 3 -3 39 -15 79 -25 87 -57 232 -76 346 -18 111 -22 115 -110 110 -58 -3 -85 -10 -148 -41 -42 -22 -81 -45 -87 -52 -7 -9 -24 -11 -50 -8 -26 4 -40 2 -40 -6 0 -6 11 -11 25 -11 45 0 44 -11 -10 -210 -31 -114 -58 -145 -113 -136 -19 3 -45 14 -57 26 -24 23 -47 25 -74 8 -15 -9 -42 -5 -137 19 -108 28 -119 33 -117 52 3 20 0 21 -31 15 -48 -8 -65 5 -92 71 -45 110 -49 158 -25 312 30 187 72 302 144 396 28 36 68 50 81 28 3 -5 24 -7 45 -4 41 6 77 -1 252 -44 l105 -27 95 46 c52 26 102 49 112 52 14 5 18 14 15 43 -3 35 -6 38 -53 53 -27 8 -54 18 -60 21 -9 6 -72 18 -170 33 -16 2 -48 9 -70 15 -155 42 -330 60 -391 41z"/>
</g>
</g>
  <g id="id5:id5" transform="matrix(1.25,0,0,1.25,0.0,0.0)"><g transform="translate(0.000000,963.200000) scale(0.040000,-0.040000)" fill="#646a68" stroke="none">
<path d="M7580 16570 c0 -5 5 -10 10 -10 6 0 10 5 10 10 0 6 -4 10 -10 10 -5 0 -10 -4 -10 -10z"/>
<path d="M7540 16506 c0 -7 -12 -22 -27 -32 -24 -16 -46 -19 -148 -18 -83 1 -135 7 -169 19 -57 20 -90 14 -128 -23 -40 -37 -37 -91 7 -203 44 -108 52 -167 31 -232 l-14 -48 24 -36 c30 -45 138 -132 207 -167 29 -14 85 -35 126 -46 93 -26 135 -48 223 -116 39 -30 76 -53 82 -50 49 21 66 33 63 46 -1 8 11 33 28 56 97 132 160 207 176 211 11 3 19 10 20 17 4 45 -7 65 -67 120 -55 50 -74 77 -124 175 -58 115 -86 150 -165 206 -57 41 -125 107 -125 122 0 7 -4 13 -10 13 -5 0 -10 -6 -10 -14z"/>
<path d="M6338 12976 c-9 -12 -48 -44 -88 -71 l-71 -48 -82 -5 c-45 -2 -87 -8 -93 -13 -6 -5 -22 -37 -34 -71 -31 -86 -20 -120 63 -186 34 -28 72 -61 84 -74 28 -29 57 -139 50 -190 l-5 -37 51 1 c29 1 93 -9 142 -21 84 -21 97 -22 205 -11 127 13 243 10 307 -10 23 -7 53 -10 67 -6 28 7 58 63 49 94 -3 12 1 39 10 59 8 21 18 60 22 88 4 27 13 65 19 85 38 104 39 110 20 131 -9 10 -36 24 -58 30 -117 32 -150 50 -226 122 l-75 72 -105 28 c-58 15 -126 34 -151 42 -63 20 -81 18 -101 -9z"/>
</g>
</g>
</svg>
