<svg xmlns="http://www.w3.org/2000/svg" version="1.0" width="3008.000000pt" height="2668.000000pt" viewBox="0 0 3008.000000 2668.000000" preserveAspectRatio="xMidYMid meet">
  <g transform="translate(0.000000,2668.000000) scale(0.100000,-0.100000)" stroke="none">
    <mask id="mask-0">
      <g>
        <path d="M 0 0 H 30080.0 V 26680.0 H 0 Z" fill="white" id="background"/>
        <path d="M22566 17126 c8 -8 14 -22 14 -30 0 -9 5 -16 10 -16 6 0 10 -9 10 -20 0 -11 5 -20 10 -20 6 0 10 -8 10 -18 0 -10 9 -24 20 -32 15 -11 20 -26 20 -62 0 -26 5 -48 10 -48 6 0 10 -9 10 -20 0 -11 5 -20 10 -20 6 0 10 -9 10 -20 0 -11 5 -20 10 -20 6 0 10 -9 10 -20 0 -11 5 -20 10 -20 6 0 10 -9 10 -20 0 -11 5 -20 10 -20 6 0 10 -13 10 -30 0 -16 5 -30 10 -30 6 0 10 -9 10 -20 0 -11 5 -20 10 -20 6 0 10 -18 10 -40 0 -22 5 -40 10 -40 6 0 10 -30 10 -70 0 -40 4 -70 10 -70 6 0 10 -7 10 -16 0 -20 24 -44 44 -44 9 0 16 -8 16 -20 0 -11 5 -20 10 -20 6 0 10 -18 10 -40 0 -22 5 -40 10 -40 6 0 10 -8 10 -18 0 -10 9 -24 20 -32 17 -13 20 -26 20 -102 0 -52 4 -88 10 -88 6 0 10 -9 10 -20 0 -11 5 -20 10 -20 6 0 10 -30 10 -70 0 -40 4 -70 10 -70 6 0 10 -33 10 -80 0 -47 4 -80 10 -80 6 0 10 -18 10 -40 0 -22 5 -40 10 -40 6 0 10 -13 10 -30 0 -16 5 -30 10 -30 6 0 10 -8 10 -18 0 -10 9 -24 20 -32 12 -8 20 -26 20 -42 0 -15 5 -28 10 -28 6 0 10 -13 10 -30 0 -16 5 -30 10 -30 6 0 10 -9 10 -20 0 -11 5 -20 10 -20 6 0 10 -9 10 -20 0 -11 5 -20 10 -20 6 0 10 -9 10 -20 0 -11 5 -20 10 -20 6 0 10 -13 10 -30 0 -16 5 -30 10 -30 6 0 10 -8 10 -18 0 -10 9 -24 20 -32 15 -11 20 -26 20 -60 0 -34 5 -49 20 -60 14 -10 20 -26 20 -52 0 -21 5 -38 10 -38 15 0 12 -70 -4 -86 -8 -8 -28 -14 -45 -14 -25 0 -44 13 -96 65 -36 35 -65 70 -65 76 0 15 -26 39 -42 39 -8 0 -20 9 -28 20 -8 12 -26 20 -42 20 -15 0 -28 5 -28 10 0 6 -7 10 -15 10 -18 0 -65 44 -65 60 0 16 -47 60 -65 60 -8 0 -15 5 -15 10 0 6 -39 10 -98 10 -86 0 -99 2 -112 20 -8 11 -20 20 -27 20 -8 0 -34 20 -58 45 -36 36 -45 51 -45 80 0 19 -4 35 -10 35 -6 0 -10 60 -10 160 0 100 -4 160 -10 160 -5 0 -10 14 -10 30 0 17 -4 30 -10 30 -6 0 -10 27 -10 60 0 33 -4 60 -10 60 -6 0 -10 30 -10 70 0 40 -4 70 -10 70 -6 0 -10 27 -10 60 0 33 -4 60 -10 60 -6 0 -10 30 -10 70 0 40 4 70 10 70 6 0 10 23 10 50 0 28 -4 50 -10 50 -5 0 -10 18 -10 40 0 22 5 40 10 40 6 0 10 30 10 70 0 40 4 70 10 70 6 0 10 18 10 40 0 22 -4 40 -10 40 -6 0 -10 27 -10 60 0 33 4 60 10 60 6 0 10 27 10 60 0 33 4 60 10 60 6 0 10 16 10 36 0 27 7 43 30 64 17 15 30 35 30 44 0 9 5 16 10 16 6 0 10 18 10 40 0 43 18 53 46 26z" fill="black"/>
        <path d="M15620 1710 c0 -6 97 -10 270 -10 173 0 270 -4 270 -10 0 -6 62 -10 166 -10 172 0 194 -5 194 -44 0 -22 13 -20 30 4 15 21 50 28 50 10 0 -5 9 -10 20 -10 11 0 20 -4 20 -10 0 -5 9 -10 20 -10 11 0 20 5 20 10 0 6 18 10 40 10 22 0 40 -4 40 -10 0 -5 9 -10 20 -10 11 0 20 -2 20 -5 0 -12 -131 -135 -143 -135 -7 0 -19 -9 -27 -20 -8 -11 -21 -20 -30 -20 -9 0 -22 -9 -30 -20 -8 -11 -22 -20 -32 -20 -10 0 -18 -4 -18 -10 0 -5 -7 -10 -16 -10 -9 0 -29 -14 -44 -30 -15 -16 -33 -30 -40 -30 -6 0 -29 -18 -50 -40 -21 -22 -46 -40 -54 -40 -9 0 -16 -8 -16 -20 0 -11 -4 -20 -10 -20 -5 0 -10 -9 -10 -20 0 -16 -7 -20 -30 -20 -16 0 -30 -4 -30 -10 0 -5 -7 -10 -16 -10 -20 0 -44 -24 -44 -44 0 -9 -8 -16 -20 -16 -11 0 -20 -4 -20 -10 0 -5 -9 -10 -20 -10 -11 0 -20 -4 -20 -10 0 -5 -9 -10 -20 -10 -11 0 -20 -4 -20 -10 0 -5 -13 -10 -30 -10 -16 0 -30 -4 -30 -10 0 -5 -9 -10 -20 -10 -11 0 -20 -4 -20 -10 0 -5 -18 -10 -40 -10 -22 0 -40 -4 -40 -10 0 -5 -18 -10 -40 -10 -22 0 -40 -4 -40 -10 0 -5 -18 -10 -40 -10 -22 0 -40 -4 -40 -10 0 -5 -13 -10 -30 -10 -16 0 -30 -4 -30 -10 0 -5 -9 -10 -20 -10 -11 0 -20 -4 -20 -10 0 -5 -18 -10 -40 -10 -22 0 -40 -4 -40 -10 0 -6 -27 -10 -60 -10 -33 0 -60 -4 -60 -10 0 -6 -27 -10 -60 -10 -33 0 -60 -4 -60 -10 0 -6 -33 -10 -80 -10 -47 0 -80 -4 -80 -10 0 -6 -27 -10 -60 -10 -33 0 -60 -4 -60 -10 0 -5 -13 -10 -30 -10 -16 0 -30 -4 -30 -10 0 -6 -30 -10 -70 -10 -40 0 -70 -4 -70 -10 0 -6 -40 -10 -100 -10 -60 0 -100 -4 -100 -10 0 -6 -70 -10 -190 -10 -120 0 -190 -4 -190 -10 0 -6 -93 -10 -260 -10 -167 0 -260 4 -260 10 0 6 -30 10 -70 10 -40 0 -70 4 -70 10 0 6 -13 10 -30 10 -16 0 -30 5 -30 10 0 6 -13 10 -30 10 -16 0 -30 5 -30 10 0 6 -12 10 -26 10 -16 0 -37 12 -54 30 -15 17 -35 30 -44 30 -9 0 -16 5 -16 10 0 6 -12 10 -26 10 -17 0 -39 14 -64 40 -21 22 -46 40 -54 40 -9 0 -16 5 -16 10 0 6 -13 10 -30 10 -16 0 -30 5 -30 10 0 6 -8 10 -18 10 -10 0 -24 9 -32 20 -8 11 -22 20 -32 20 -10 0 -18 5 -18 10 0 6 -9 10 -20 10 -11 0 -20 5 -20 10 0 6 -7 10 -15 10 -18 0 -65 44 -65 60 0 17 -26 40 -44 40 -9 0 -16 5 -16 10 0 6 -7 10 -16 10 -8 0 -37 23 -64 50 -27 28 -54 50 -60 50 -17 0 -40 26 -40 44 0 9 -4 16 -10 16 -5 0 -10 9 -10 20 0 13 -7 20 -20 20 -11 0 -20 5 -20 10 0 6 -7 10 -16 10 -18 0 -44 23 -44 40 0 6 -18 29 -40 50 -22 21 -40 46 -40 54 0 9 -4 16 -10 16 -5 0 -10 14 -10 30 0 27 3 30 30 30 17 0 30 5 30 10 0 6 30 10 70 10 40 0 70 4 70 10 0 6 18 10 40 10 22 0 40 5 40 10 0 6 57 10 150 10 93 0 150 -4 150 -10 0 -7 193 -10 560 -10 367 0 560 3 560 10 0 6 67 10 180 10 113 0 180 4 180 10 0 6 43 10 110 10 67 0 110 4 110 10 0 7 163 10 470 10 307 0 470 -3 470 -10z" fill="black"/>
      </g>
    </mask>
    <path stroke="none" d="M19700 26210 c0 -5 -7 -10 -16 -10 -9 0 -29 -13 -44 -30 -15 -16 -35 -30 -44 -30 -9 0 -16 -4 -16 -10 0 -5 -13 -10 -30 -10 -16 0 -30 -4 -30 -10 0 -5 -13 -10 -30 -10 -16 0 -30 -4 -30 -10 0 -5 -17 -10 -38 -10 -26 0 -42 -6 -52 -20 -8 -11 -22 -20 -32 -20 -10 0 -18 -4 -18 -10 0 -5 -9 -10 -20 -10 -11 0 -20 5 -20 10 0 6 -22 10 -50 10 -27 0 -50 -4 -50 -10 0 -5 -13 -10 -30 -10 -16 0 -30 -4 -30 -10 0 -5 -13 -10 -30 -10 -16 0 -30 -4 -30 -10 0 -5 -13 -10 -30 -10 -16 0 -30 -4 -30 -10 0 -5 -13 -10 -30 -10 -16 0 -30 -4 -30 -10 0 -5 -18 -10 -40 -10 -22 0 -40 -4 -40 -10 0 -5 -22 -10 -50 -10 -27 0 -50 -4 -50 -10 0 -5 -9 -10 -20 -10 -11 0 -20 -4 -20 -10 0 -5 -18 -10 -40 -10 -22 0 -40 -4 -40 -10 0 -5 -22 -10 -50 -10 -27 0 -50 -4 -50 -10 0 -5 -13 -10 -30 -10 -16 0 -30 -4 -30 -10 0 -5 -18 -10 -40 -10 -22 0 -40 -4 -40 -10 0 -5 -9 -10 -20 -10 -11 0 -20 -4 -20 -10 0 -5 -9 -10 -20 -10 -11 0 -20 5 -20 10 0 6 -9 10 -20 10 -11 0 -20 7 -20 15 0 24 -66 85 -92 85 -13 0 -30 9 -38 20 -8 11 -22 20 -32 20 -10 0 -18 5 -18 10 0 6 -9 10 -20 10 -11 0 -20 5 -20 10 0 6 -13 10 -30 10 -16 0 -30 5 -30 10 0 6 -9 10 -20 10 -11 0 -20 5 -20 10 0 6 -9 10 -20 10 -11 0 -20 5 -20 10 0 6 -33 10 -80 10 -47 0 -80 -4 -80 -10 0 -5 -13 -10 -30 -10 -16 0 -30 -4 -30 -10 0 -6 -37 -10 -90 -10 -53 0 -90 -4 -90 -10 0 -5 -22 -10 -50 -10 -27 0 -50 -4 -50 -10 0 -5 -9 -10 -20 -10 -11 0 -20 -4 -20 -10 0 -5 -22 -10 -48 -10 -36 0 -51 -5 -62 -20 -8 -12 -26 -20 -42 -20 -15 0 -28 -4 -28 -10 0 -5 -18 -10 -40 -10 -22 0 -40 -4 -40 -10 0 -5 -18 -10 -40 -10 -22 0 -40 -4 -40 -10 0 -5 -21 -10 -46 -10 -38 0 -51 -5 -74 -30 -15 -16 -35 -30 -44 -30 -9 0 -16 -8 -16 -20 0 -11 -4 -20 -10 -20 -5 0 -10 -9 -10 -20 0 -11 -4 -20 -10 -20 -5 0 -10 -7 -10 -16 0 -8 -18 -33 -40 -54 -22 -21 -40 -46 -40 -54 0 -9 -8 -16 -20 -16 -11 0 -20 -4 -20 -10 0 -5 -8 -10 -18 -10 -10 0 -24 -9 -32 -20 -15 -21 -70 -28 -70 -10 0 6 -7 10 -15 10 -18 0 -65 -44 -65 -60 0 -14 -46 -60 -60 -60 -20 0 -40 -28 -40 -54 0 -14 -4 -26 -10 -26 -5 0 -10 -9 -10 -20 0 -11 -4 -20 -10 -20 -5 0 -10 -9 -10 -20 0 -11 -4 -20 -10 -20 -5 0 -10 -18 -10 -40 0 -22 5 -40 10 -40 6 0 10 -37 10 -90 0 -53 -4 -90 -10 -90 -5 0 -10 -22 -10 -50 0 -27 -4 -50 -10 -50 -5 0 -10 -9 -10 -20 0 -11 -4 -20 -10 -20 -5 0 -10 -13 -10 -30 0 -16 -4 -30 -10 -30 -15 0 -13 -177 3 -184 10 -5 10 -7 0 -12 -15 -7 -17 -44 -3 -44 6 0 10 -43 10 -110 0 -67 4 -110 10 -110 6 0 10 -13 10 -30 0 -16 5 -30 10 -30 6 0 10 -18 10 -40 0 -22 5 -40 10 -40 6 0 10 -22 10 -50 0 -27 5 -50 10 -50 6 0 10 -16 10 -36 0 -35 18 -64 40 -64 22 0 40 -29 40 -64 0 -20 5 -36 10 -36 6 0 10 -9 10 -20 0 -11 5 -20 10 -20 6 0 10 -13 10 -30 0 -16 5 -30 10 -30 6 0 10 -9 10 -20 0 -11 5 -20 10 -20 6 0 10 -26 10 -59 0 -38 5 -61 13 -65 10 -5 10 -7 0 -12 -7 -3 -13 -23 -13 -45 0 -21 -4 -39 -10 -39 -6 0 -10 -83 -10 -230 0 -147 4 -230 10 -230 6 0 10 -33 10 -80 0 -47 4 -80 10 -80 6 0 10 5 10 10 0 6 5 10 10 10 6 0 10 -57 10 -150 0 -93 4 -150 10 -150 6 0 10 -21 10 -46 0 -39 5 -51 33 -77 20 -19 27 -32 20 -34 -16 -6 -18 -143 -3 -143 6 0 10 -22 10 -50 0 -27 5 -50 10 -50 6 0 10 -9 10 -20 0 -11 5 -20 10 -20 6 0 10 -18 10 -40 0 -22 5 -40 10 -40 16 0 12 -89 -4 -106 -17 -16 -66 -19 -66 -4 0 6 -30 10 -70 10 -40 0 -70 4 -70 10 0 6 -9 10 -20 10 -11 0 -20 5 -20 10 0 6 -18 10 -40 10 -22 0 -40 5 -40 10 0 6 -27 10 -60 10 -33 0 -60 4 -60 10 0 6 -13 10 -30 10 -16 0 -30 5 -30 10 0 6 -27 10 -60 10 -33 0 -60 4 -60 10 0 6 -22 10 -50 10 -27 0 -50 5 -50 10 0 6 -30 10 -70 10 -40 0 -70 4 -70 10 0 6 -27 10 -60 10 -33 0 -60 4 -60 10 0 6 -13 10 -30 10 -16 0 -30 5 -30 10 0 6 -33 10 -78 10 -66 0 -80 3 -92 20 -8 11 -22 20 -32 20 -10 0 -18 5 -18 10 0 6 -33 10 -80 10 -47 0 -80 4 -80 10 0 6 -9 10 -20 10 -11 0 -20 5 -20 10 0 6 -22 10 -50 10 -27 0 -50 5 -50 10 0 6 -22 10 -50 10 -27 0 -50 5 -50 10 0 6 -13 10 -30 10 -16 0 -30 5 -30 10 0 6 -22 10 -50 10 -27 0 -50 5 -50 10 0 6 -30 10 -70 10 -40 0 -70 4 -70 10 0 6 -9 10 -20 10 -11 0 -20 5 -20 10 0 6 -37 10 -90 10 -53 0 -90 4 -90 10 0 6 -9 10 -20 10 -11 0 -20 5 -20 10 0 6 -18 10 -40 10 -22 0 -40 5 -40 10 0 6 -30 10 -70 10 -40 0 -70 4 -70 10 0 6 -22 10 -50 10 -27 0 -50 5 -50 10 0 6 -18 10 -40 10 -22 0 -40 5 -40 10 0 6 -30 10 -70 10 -40 0 -70 4 -70 10 0 6 -18 10 -40 10 -22 0 -40 5 -40 10 0 6 -33 10 -80 10 -47 0 -80 4 -80 10 0 6 -13 10 -30 10 -16 0 -30 5 -30 10 0 6 -22 10 -50 10 -27 0 -50 5 -50 10 0 6 -22 10 -50 10 -27 0 -50 5 -50 10 0 6 -22 10 -50 10 -27 0 -50 5 -50 10 0 6 -13 10 -30 10 -16 0 -30 5 -30 10 0 6 -22 10 -50 10 -27 0 -50 5 -50 10 0 6 -27 10 -60 10 -33 0 -60 4 -60 10 0 6 -18 10 -40 10 -22 0 -40 5 -40 10 0 6 -17 10 -38 10 -26 0 -42 6 -52 20 -13 18 -26 20 -112 20 -59 0 -98 4 -98 10 0 6 -18 10 -40 10 -22 0 -40 5 -40 10 0 6 -22 10 -50 10 -27 0 -50 5 -50 10 0 6 -18 10 -40 10 -22 0 -40 5 -40 10 0 6 -33 10 -78 10 -66 0 -80 3 -92 20 -8 11 -21 20 -30 20 -9 0 -22 9 -30 20 -8 11 -22 20 -32 20 -10 0 -18 5 -18 10 0 6 -33 10 -80 10 -47 0 -80 -4 -80 -10 0 -18 -35 -11 -50 10 -8 11 -22 20 -32 20 -10 0 -18 5 -18 10 0 6 -27 10 -60 10 -33 0 -60 4 -60 10 0 6 -13 10 -30 10 -16 0 -30 -4 -30 -10 0 -6 -27 -10 -60 -10 -33 0 -60 4 -60 10 0 15 -29 12 -46 -4 -8 -8 -14 -31 -14 -50 0 -20 -4 -36 -10 -36 -6 0 -10 -33 -10 -80 0 -47 -4 -80 -10 -80 -5 0 -10 -13 -10 -30 0 -16 -4 -30 -10 -30 -5 0 -10 -13 -10 -30 0 -16 -4 -30 -10 -30 -5 0 -10 -13 -10 -30 0 -16 -4 -30 -10 -30 -6 0 -10 -37 -10 -90 0 -53 -4 -90 -10 -90 -5 0 -10 -13 -10 -30 0 -16 -4 -30 -10 -30 -6 0 -10 -33 -10 -80 0 -47 -4 -80 -10 -80 -5 0 -10 -9 -10 -20 0 -11 -4 -20 -10 -20 -5 0 -10 -18 -10 -40 0 -22 5 -40 10 -40 6 0 10 -9 10 -20 0 -11 -4 -20 -10 -20 -5 0 -10 -9 -10 -20 0 -11 -4 -20 -10 -20 -5 0 -10 -9 -10 -20 0 -11 -4 -20 -10 -20 -6 0 -10 -27 -10 -60 0 -33 -4 -60 -10 -60 -6 0 -10 -33 -10 -80 0 -47 -4 -80 -10 -80 -5 0 -10 -9 -10 -20 0 -11 -4 -20 -10 -20 -5 0 -10 -9 -10 -20 0 -11 -4 -20 -10 -20 -6 0 -10 -33 -10 -80 0 -47 -4 -80 -10 -80 -5 0 -10 -9 -10 -20 0 -11 -4 -20 -10 -20 -6 0 -10 -30 -10 -70 0 -40 -4 -70 -10 -70 -6 0 -10 -33 -10 -80 0 -47 -4 -80 -10 -80 -5 0 -10 -13 -10 -30 0 -16 -4 -30 -10 -30 -5 0 -10 -18 -10 -40 0 -38 -2 -40 -30 -40 -16 0 -30 5 -30 10 0 6 -13 10 -30 10 -16 0 -30 -4 -30 -10 0 -6 -57 -10 -150 -10 -93 0 -150 -4 -150 -10 0 -6 -27 -10 -60 -10 -33 0 -60 -4 -60 -10 0 -6 -37 -10 -90 -10 -53 0 -90 -4 -90 -10 0 -5 -18 -10 -40 -10 -22 0 -40 -4 -40 -10 0 -5 -18 -10 -40 -10 -22 0 -40 -4 -40 -10 0 -6 -53 -10 -140 -10 -87 0 -140 -4 -140 -10 0 -6 -40 -10 -100 -10 -60 0 -100 -4 -100 -10 0 -6 -43 -10 -110 -10 -67 0 -110 -4 -110 -10 0 -6 -40 -10 -100 -10 -60 0 -100 -4 -100 -10 0 -6 -40 -10 -100 -10 -60 0 -100 -4 -100 -10 0 -6 -33 -10 -80 -10 -47 0 -80 -4 -80 -10 0 -6 -67 -10 -180 -10 -113 0 -180 -4 -180 -10 0 -6 -33 -10 -80 -10 -47 0 -80 -4 -80 -10 0 -5 -18 -10 -40 -10 -22 0 -40 -4 -40 -10 0 -5 -9 -10 -20 -10 -11 0 -20 -4 -20 -10 0 -6 -60 -10 -160 -10 -100 0 -160 -4 -160 -10 0 -6 -43 -10 -110 -10 -67 0 -110 -4 -110 -10 0 -6 -37 -10 -90 -10 -53 0 -90 -4 -90 -10 0 -6 -27 -10 -60 -10 -33 0 -60 -4 -60 -10 0 -5 -9 -10 -20 -10 -11 0 -20 5 -20 10 0 6 -13 10 -30 10 -16 0 -30 -4 -30 -10 0 -6 -27 -10 -60 -10 -33 0 -60 -4 -60 -10 0 -6 -27 -10 -60 -10 -33 0 -60 -4 -60 -10 0 -6 -33 -10 -80 -10 -47 0 -80 -4 -80 -10 0 -5 -22 -10 -50 -10 -27 0 -50 -4 -50 -10 0 -6 -63 -10 -170 -10 -148 0 -170 -2 -170 -16 0 -8 -6 -22 -14 -30 -17 -16 -66 -19 -66 -4 0 15 -77 12 -84 -2 -5 -10 -7 -10 -12 0 -3 6 -14 12 -25 12 -10 0 -19 5 -19 10 0 6 -13 10 -30 10 -16 0 -30 -4 -30 -10 0 -5 -9 -10 -20 -10 -11 0 -20 -4 -20 -10 0 -5 -13 -10 -30 -10 -16 0 -30 -4 -30 -10 0 -14 -37 -12 -44 3 -5 9 -7 9 -12 0 -4 -9 -32 -13 -90 -13 -77 0 -87 -2 -109 -25 -14 -13 -25 -31 -25 -40 0 -8 -4 -15 -10 -15 -5 0 -10 -9 -10 -20 0 -11 5 -20 10 -20 6 0 10 -46 10 -118 0 -106 2 -119 20 -132 19 -14 20 -26 20 -230 0 -204 1 -216 20 -230 15 -11 20 -26 20 -62 0 -26 -4 -48 -10 -48 -5 0 -10 -22 -10 -50 0 -27 5 -50 10 -50 6 0 10 -40 10 -100 0 -60 -4 -100 -10 -100 -5 0 -10 -18 -10 -40 0 -22 5 -40 10 -40 6 0 10 -9 10 -20 0 -11 5 -20 10 -20 6 0 10 -33 10 -80 0 -47 4 -80 10 -80 6 0 10 -33 10 -80 0 -47 4 -80 10 -80 6 0 10 -27 10 -60 0 -33 4 -60 10 -60 6 0 10 -33 10 -80 0 -47 4 -80 10 -80 6 0 10 -67 10 -180 0 -113 4 -180 10 -180 6 0 10 -33 10 -80 0 -47 4 -80 10 -80 6 0 10 -9 10 -20 0 -11 5 -20 10 -20 6 0 10 -13 10 -30 0 -16 -4 -30 -10 -30 -6 0 -10 -29 -10 -68 0 -56 3 -70 20 -82 16 -12 20 -26 20 -72 0 -51 2 -58 20 -58 13 0 20 7 20 20 0 13 7 20 20 20 18 0 20 -7 20 -70 0 -40 4 -70 10 -70 6 0 10 -22 10 -50 0 -27 5 -50 10 -50 6 0 10 -47 10 -120 0 -73 4 -120 10 -120 6 0 10 -57 10 -150 0 -93 4 -150 10 -150 6 0 10 -27 10 -60 0 -33 4 -60 10 -60 6 0 10 -43 10 -110 0 -67 4 -110 10 -110 6 0 10 -13 10 -29 0 -16 6 -32 13 -35 9 -5 9 -7 0 -12 -8 -3 -13 -25 -13 -55 0 -27 -3 -49 -6 -49 -11 0 -34 29 -34 44 0 9 -4 16 -10 16 -5 0 -10 21 -10 46 0 40 -16 74 -34 74 -3 0 -6 -22 -6 -50 0 -27 5 -50 10 -50 6 0 10 -20 10 -45 0 -35 -6 -52 -25 -70 -13 -14 -30 -25 -37 -25 -8 0 -20 -9 -28 -20 -8 -11 -22 -20 -32 -20 -10 0 -18 -4 -18 -10 0 -6 -127 -10 -360 -10 -233 0 -360 -4 -360 -10 0 -5 -18 -10 -40 -10 -22 0 -40 -4 -40 -10 0 -5 -8 -10 -18 -10 -10 0 -24 -9 -32 -20 -8 -11 -20 -20 -27 -20 -19 0 -103 -86 -103 -105 0 -8 -4 -15 -10 -15 -5 0 -10 -17 -10 -38 0 -26 -6 -42 -20 -52 -15 -11 -20 -26 -20 -62 0 -26 2 -48 5 -48 11 0 55 49 55 60 0 6 23 33 50 60 28 27 50 56 50 64 0 12 10 16 40 16 38 0 40 -2 40 -30 0 -16 -4 -30 -10 -30 -6 0 -10 -27 -10 -60 0 -33 -4 -60 -10 -60 -5 0 -10 -13 -10 -30 0 -16 -4 -30 -10 -30 -5 0 -10 -13 -10 -30 0 -16 -4 -30 -10 -30 -5 0 -10 -9 -10 -20 0 -11 -4 -20 -10 -20 -5 0 -10 -7 -10 -15 0 -20 -85 -105 -105 -105 -10 0 -15 10 -15 30 0 17 5 30 10 30 15 0 12 29 -4 46 -33 32 -86 7 -86 -40 0 -14 -4 -26 -10 -26 -5 0 -10 -9 -10 -20 0 -11 -4 -20 -10 -20 -5 0 -10 -9 -10 -20 0 -11 -4 -20 -10 -20 -5 0 -10 -13 -10 -30 0 -16 -4 -30 -10 -30 -5 0 -10 -18 -10 -40 0 -22 -4 -40 -10 -40 -5 0 -10 -18 -10 -40 0 -22 -4 -40 -10 -40 -5 0 -10 -13 -10 -30 0 -16 -4 -30 -10 -30 -5 0 -10 -13 -10 -30 0 -16 -4 -30 -10 -30 -6 0 -10 -30 -10 -70 0 -40 4 -70 10 -70 6 0 10 -7 10 -15 0 -26 86 -105 115 -105 14 0 25 -4 25 -10 0 -5 18 -10 40 -10 22 0 40 -4 40 -10 0 -5 9 -10 20 -10 11 0 20 -4 20 -10 0 -5 9 -10 20 -10 11 0 20 -4 20 -10 0 -5 9 -10 20 -10 11 0 20 -4 20 -10 0 -5 7 -10 15 -10 9 0 31 -16 50 -35 32 -31 35 -40 35 -90 0 -30 -4 -55 -10 -55 -5 0 -10 -18 -10 -40 0 -22 -4 -40 -10 -40 -5 0 -10 -22 -10 -50 0 -27 -4 -50 -10 -50 -6 0 -10 -40 -10 -100 0 -60 -4 -100 -10 -100 -5 0 -10 -7 -10 -16 0 -9 -13 -29 -30 -44 -16 -15 -30 -35 -30 -44 0 -9 -4 -16 -10 -16 -5 0 -10 -9 -10 -20 0 -11 -4 -20 -10 -20 -5 0 -10 -22 -10 -50 0 -27 -4 -50 -10 -50 -5 0 -10 -18 -10 -40 0 -22 -4 -40 -10 -40 -5 0 -10 -9 -10 -20 0 -13 -7 -20 -20 -20 -16 0 -20 -7 -20 -30 0 -16 -4 -30 -10 -30 -5 0 -10 -9 -10 -20 0 -11 -4 -20 -10 -20 -5 0 -10 -13 -10 -30 0 -16 -4 -30 -10 -30 -5 0 -10 -9 -10 -20 0 -11 -4 -20 -10 -20 -5 0 -10 -8 -10 -18 0 -10 -9 -24 -20 -32 -11 -8 -20 -22 -20 -32 0 -10 -4 -18 -10 -18 -5 0 -10 -9 -10 -20 0 -11 -4 -20 -10 -20 -5 0 -10 -9 -10 -20 0 -17 -7 -20 -40 -20 -22 0 -40 5 -40 10 0 6 -13 10 -30 10 -16 0 -30 5 -30 10 0 6 -8 10 -18 10 -10 0 -24 9 -32 20 -8 11 -22 20 -32 20 -10 0 -18 5 -18 10 0 6 -13 10 -30 10 -16 0 -30 5 -30 10 0 6 -9 10 -20 10 -11 0 -20 5 -20 10 0 6 -13 10 -30 10 -16 0 -30 5 -30 10 0 6 -18 10 -40 10 -22 0 -40 5 -40 10 0 6 -30 10 -70 10 -40 0 -70 4 -70 10 0 6 -62 10 -165 10 -163 0 -166 0 -190 25 -25 24 -35 75 -15 75 6 0 10 18 10 40 0 22 -4 40 -10 40 -5 0 -10 9 -10 20 0 11 -4 20 -10 20 -15 0 -13 197 3 204 9 5 9 7 0 12 -9 4 -13 33 -13 95 0 53 -4 89 -10 89 -5 0 -10 7 -10 16 0 20 -24 44 -44 44 -9 0 -16 5 -16 10 0 6 -9 10 -20 10 -11 0 -20 5 -20 10 0 6 -9 10 -20 10 -11 0 -20 5 -20 10 0 6 -21 10 -46 10 -38 0 -51 5 -74 30 -27 29 -60 40 -60 20 0 -5 -4 -10 -10 -10 -6 0 -10 83 -10 230 0 147 4 230 10 230 6 0 10 77 10 210 0 133 -4 210 -10 210 -5 0 -10 25 -10 56 0 49 4 59 30 84 17 15 30 35 30 44 0 9 5 16 10 16 6 0 10 9 10 20 0 11 5 20 10 20 6 0 10 23 10 50 0 28 5 50 10 50 6 0 10 30 10 70 0 40 -4 70 -10 70 -6 0 -10 43 -10 110 0 67 4 110 10 110 6 0 10 18 10 40 0 22 -4 40 -10 40 -5 0 -10 13 -10 29 0 16 -6 32 -12 35 -10 5 -10 7 0 12 14 7 16 44 2 44 -5 0 -10 9 -10 20 0 13 -7 20 -20 20 -17 0 -20 7 -20 40 0 22 5 40 10 40 6 0 10 16 10 36 0 29 -8 44 -50 84 -48 47 -50 51 -50 104 0 31 -4 56 -10 56 -5 0 -10 9 -10 20 0 11 -4 20 -10 20 -5 0 -10 8 -10 18 0 10 -9 24 -20 32 -14 10 -20 26 -20 52 0 21 -4 38 -10 38 -5 0 -10 9 -10 20 0 11 -4 20 -10 20 -6 0 -10 50 -10 130 0 80 -4 130 -10 130 -6 0 -10 40 -10 100 0 60 -4 100 -10 100 -6 0 -10 40 -10 99 0 70 -4 101 -12 105 -10 5 -10 7 0 12 9 4 12 41 12 135 l0 129 -30 0 c-16 0 -30 5 -30 10 0 6 -43 10 -110 10 -67 0 -110 4 -110 10 0 6 -30 10 -70 10 -40 0 -70 4 -70 10 0 6 -57 10 -150 10 -93 0 -150 4 -150 10 0 6 -18 10 -40 10 -22 0 -40 5 -40 10 0 6 -16 10 -36 10 -36 0 -64 -18 -64 -42 0 -8 -9 -20 -20 -28 -18 -13 -20 -26 -20 -108 0 -85 2 -95 25 -117 13 -14 29 -25 35 -25 17 0 40 -26 40 -44 0 -9 -7 -16 -16 -16 -8 0 -22 -6 -30 -14 -16 -17 -19 -46 -4 -46 6 0 10 -9 10 -20 0 -13 7 -20 20 -20 20 0 20 -7 20 -810 0 -533 3 -810 10 -810 7 0 10 -173 10 -500 0 -327 3 -500 10 -500 6 0 10 -22 10 -50 0 -27 -4 -50 -10 -50 -6 0 -10 -27 -10 -60 0 -33 4 -60 10 -60 6 0 10 -27 10 -60 0 -33 4 -60 10 -60 6 0 10 -18 10 -40 0 -22 5 -40 10 -40 14 0 12 -37 -2 -44 -10 -5 -10 -7 0 -12 8 -4 12 -31 12 -85 0 -46 4 -79 10 -79 6 0 10 -13 10 -30 0 -16 5 -30 10 -30 6 0 10 -18 10 -40 0 -22 5 -40 10 -40 6 0 10 -33 10 -80 0 -47 -4 -80 -10 -80 -6 0 -10 -27 -10 -60 0 -33 4 -60 10 -60 6 0 10 -9 10 -20 0 -11 5 -20 10 -20 6 0 10 -9 10 -20 0 -11 -4 -20 -10 -20 -6 0 -10 -27 -10 -60 0 -33 -4 -60 -10 -60 -6 0 -10 -60 -10 -160 0 -100 4 -160 10 -160 7 0 10 -157 10 -450 0 -293 3 -450 10 -450 6 0 10 -50 10 -130 0 -80 4 -130 10 -130 6 0 10 -43 10 -110 0 -67 4 -110 10 -110 6 0 10 -47 10 -120 0 -73 4 -120 10 -120 6 0 10 -113 10 -320 0 -207 4 -320 10 -320 6 0 10 -43 10 -110 0 -67 -4 -110 -10 -110 -5 0 -10 -13 -10 -30 0 -16 5 -30 10 -30 6 0 10 -22 10 -50 0 -49 -1 -50 -30 -50 -16 0 -30 5 -30 10 0 27 -38 3 -110 -70 -44 -44 -84 -80 -90 -80 -14 0 -60 -46 -60 -61 0 -6 -13 -24 -30 -39 -16 -15 -30 -35 -30 -44 0 -9 -4 -16 -10 -16 -5 0 -10 -7 -10 -16 0 -9 -13 -29 -30 -44 -16 -15 -30 -33 -30 -40 0 -6 -18 -29 -40 -50 -22 -21 -40 -46 -40 -54 0 -9 -4 -16 -10 -16 -5 0 -10 -9 -10 -20 0 -11 -4 -20 -10 -20 -5 0 -10 -9 -10 -20 0 -11 -4 -20 -10 -20 -5 0 -10 -7 -10 -16 0 -8 -22 -37 -50 -64 -32 -31 -50 -57 -50 -72 0 -13 -9 -30 -20 -38 -11 -8 -20 -21 -20 -30 0 -9 -9 -22 -20 -30 -11 -8 -20 -21 -20 -30 0 -9 -9 -22 -20 -30 -12 -8 -20 -26 -20 -42 0 -21 -5 -28 -20 -28 -13 0 -20 -7 -20 -20 0 -11 -4 -20 -10 -20 -5 0 -10 -9 -10 -20 0 -11 -4 -20 -10 -20 -5 0 -10 -13 -10 -30 0 -16 -4 -30 -10 -30 -5 0 -10 -9 -10 -20 0 -11 -4 -20 -10 -20 -5 0 -10 -9 -10 -20 0 -11 -4 -20 -10 -20 -5 0 -10 -9 -10 -20 0 -11 -4 -20 -10 -20 -5 0 -10 -8 -10 -18 0 -10 -9 -24 -20 -32 -12 -8 -20 -26 -20 -42 0 -15 -4 -28 -10 -28 -5 0 -10 -13 -10 -30 0 -16 -4 -30 -10 -30 -5 0 -10 -8 -10 -18 0 -10 -9 -24 -20 -32 -11 -8 -20 -22 -20 -32 0 -10 -4 -18 -10 -18 -5 0 -10 -9 -10 -20 0 -11 -4 -20 -10 -20 -5 0 -10 -13 -10 -30 0 -16 -4 -30 -10 -30 -5 0 -10 -9 -10 -20 0 -11 -4 -20 -10 -20 -5 0 -10 -8 -10 -18 0 -10 -9 -24 -20 -32 -11 -8 -20 -26 -20 -40 0 -14 -9 -32 -20 -40 -12 -8 -20 -26 -20 -42 0 -15 -4 -28 -10 -28 -5 0 -10 -8 -10 -18 0 -10 -9 -24 -20 -32 -11 -8 -20 -22 -20 -32 0 -10 -4 -18 -10 -18 -5 0 -10 -13 -10 -28 0 -16 -8 -34 -20 -42 -14 -10 -20 -26 -20 -50 0 -24 -6 -40 -20 -50 -11 -8 -20 -21 -20 -30 0 -9 -9 -22 -20 -30 -11 -8 -20 -22 -20 -32 0 -10 -4 -18 -10 -18 -5 0 -10 -13 -10 -30 0 -16 -4 -30 -10 -30 -5 0 -10 -13 -10 -30 0 -16 -4 -30 -10 -30 -5 0 -10 -9 -10 -20 0 -11 -4 -20 -10 -20 -5 0 -10 -9 -10 -20 0 -15 -7 -20 -26 -20 -35 0 -54 -22 -54 -64 0 -20 -4 -36 -10 -36 -5 0 -10 -13 -10 -30 0 -16 -4 -30 -10 -30 -5 0 -10 -13 -10 -28 0 -16 -8 -34 -20 -42 -15 -11 -20 -26 -20 -62 0 -26 -4 -48 -10 -48 -5 0 -10 -9 -10 -20 0 -11 -4 -20 -10 -20 -5 0 -10 -17 -10 -38 0 -26 -6 -42 -20 -52 -11 -8 -20 -22 -20 -32 0 -10 -4 -18 -10 -18 -5 0 -10 -13 -10 -30 0 -16 -4 -30 -10 -30 -5 0 -10 -13 -10 -30 0 -16 -4 -30 -10 -30 -5 0 -10 -13 -10 -30 0 -16 -4 -30 -10 -30 -5 0 -10 -18 -10 -40 0 -22 -4 -40 -10 -40 -5 0 -10 -9 -10 -20 0 -11 -4 -20 -10 -20 -5 0 -10 -18 -10 -40 0 -22 -4 -40 -10 -40 -5 0 -10 -9 -10 -20 0 -11 -4 -20 -10 -20 -5 0 -10 -13 -10 -30 0 -16 -4 -30 -10 -30 -5 0 -10 -13 -10 -30 0 -16 -4 -30 -10 -30 -5 0 -10 -22 -10 -50 0 -27 -4 -50 -10 -50 -5 0 -10 -9 -10 -20 0 -11 -4 -20 -10 -20 -5 0 -10 -9 -10 -20 0 -11 -4 -20 -10 -20 -5 0 -10 -9 -10 -20 0 -11 -4 -20 -10 -20 -5 0 -10 -22 -10 -50 0 -27 -4 -50 -10 -50 -5 0 -10 -18 -10 -40 0 -22 -4 -40 -10 -40 -5 0 -10 -13 -10 -30 0 -16 -4 -30 -10 -30 -5 0 -10 -13 -10 -30 0 -16 -4 -30 -10 -30 -5 0 -10 -18 -10 -40 0 -22 -4 -40 -10 -40 -5 0 -10 -18 -10 -40 0 -22 -4 -40 -10 -40 -6 0 -10 -27 -10 -60 0 -33 -4 -60 -10 -60 -5 0 -10 -17 -10 -38 0 -26 -6 -42 -20 -52 -15 -11 -20 -26 -20 -62 0 -26 -4 -48 -10 -48 -6 0 -10 -33 -10 -80 0 -47 -4 -80 -10 -80 -6 0 -10 -40 -10 -100 0 -60 -4 -100 -10 -100 -6 0 -10 -110 -10 -310 0 -200 4 -310 10 -310 6 0 10 -33 10 -80 0 -47 4 -80 10 -80 6 0 10 -22 10 -50 0 -27 5 -50 10 -50 6 0 10 -27 10 -60 0 -33 4 -60 10 -60 6 0 10 -9 10 -20 0 -11 5 -20 10 -20 6 0 10 -13 10 -30 0 -16 5 -30 10 -30 6 0 10 -33 10 -80 0 -47 4 -80 10 -80 6 0 10 -27 10 -60 0 -33 4 -60 10 -60 6 0 10 -22 10 -50 0 -27 5 -50 10 -50 6 0 10 -13 10 -30 0 -16 5 -30 10 -30 6 0 10 -18 10 -40 0 -22 5 -40 10 -40 6 0 10 -13 10 -30 0 -16 5 -30 10 -30 6 0 10 -18 10 -40 0 -22 5 -40 10 -40 6 0 10 -8 10 -18 0 -10 9 -24 20 -32 11 -8 20 -22 20 -32 0 -10 5 -18 10 -18 6 0 10 -13 10 -30 0 -16 5 -30 10 -30 6 0 10 -9 10 -20 0 -11 5 -20 10 -20 6 0 10 -9 10 -20 0 -11 5 -20 10 -20 6 0 10 -13 10 -28 0 -16 8 -34 20 -42 11 -8 20 -22 20 -32 0 -10 5 -18 10 -18 6 0 10 -9 10 -20 0 -11 5 -20 10 -20 6 0 10 -13 10 -30 0 -16 5 -30 10 -30 6 0 10 -13 10 -30 0 -16 5 -30 10 -30 6 0 10 -13 10 -30 0 -16 5 -30 10 -30 6 0 10 -9 10 -20 0 -11 5 -20 10 -20 6 0 10 -9 10 -20 0 -11 5 -20 10 -20 6 0 10 -18 10 -40 0 -22 5 -40 10 -40 6 0 10 -9 10 -20 0 -11 5 -20 10 -20 6 0 10 -22 10 -50 0 -27 5 -50 10 -50 6 0 10 -9 10 -20 0 -11 5 -20 10 -20 6 0 10 -22 10 -50 0 -27 5 -50 10 -50 6 0 10 -9 10 -20 0 -11 5 -20 10 -20 6 0 10 -13 10 -30 0 -16 5 -30 10 -30 6 0 10 -9 10 -20 0 -15 7 -20 25 -20 29 0 75 -40 75 -65 0 -8 5 -15 10 -15 6 0 10 -9 10 -20 0 -11 5 -20 10 -20 6 0 10 -8 10 -18 0 -10 9 -24 20 -32 11 -8 20 -22 20 -32 0 -10 5 -18 10 -18 6 0 10 -8 10 -18 0 -10 9 -24 20 -32 11 -8 20 -22 20 -32 0 -20 16 -24 22 -6 6 16 38 -14 38 -34 0 -8 9 -20 20 -28 11 -8 20 -21 20 -30 0 -9 9 -22 20 -30 11 -8 20 -21 20 -30 0 -9 9 -22 20 -30 11 -8 20 -22 20 -32 0 -10 5 -18 10 -18 6 0 10 -7 10 -16 0 -8 23 -37 50 -64 28 -27 50 -56 50 -64 0 -9 5 -16 10 -16 6 0 10 -7 10 -16 0 -20 24 -44 44 -44 9 0 16 -4 16 -10 0 -5 7 -10 16 -10 8 0 33 -18 54 -40 31 -32 46 -40 74 -40 20 0 36 -4 36 -10 0 -5 9 -10 20 -10 11 0 20 -4 20 -10 0 -5 14 -10 30 -10 17 0 30 -4 30 -10 0 -5 9 -10 20 -10 11 0 20 -4 20 -10 0 -5 9 -10 20 -10 11 0 20 -4 20 -10 0 -5 14 -10 30 -10 17 0 30 -4 30 -10 0 -5 14 -10 30 -10 23 0 30 -4 30 -20 0 -18 7 -20 60 -20 33 0 60 -4 60 -10 0 -5 9 -10 20 -10 11 0 20 -4 20 -10 0 -5 14 -10 30 -10 17 0 30 -4 30 -10 0 -5 9 -10 20 -10 11 0 20 -4 20 -10 0 -5 16 -10 36 -10 27 0 43 -7 64 -30 15 -16 35 -30 44 -30 9 0 16 -4 16 -10 0 -5 16 -10 35 -10 27 0 44 -8 70 -35 19 -19 35 -40 35 -47 0 -8 9 -20 20 -28 11 -8 20 -20 20 -28 0 -18 25 -42 44 -42 9 0 16 -4 16 -10 0 -6 53 -10 140 -10 87 0 140 4 140 10 0 6 18 10 40 10 22 0 40 5 40 10 0 6 23 10 50 10 28 0 50 5 50 10 0 6 18 10 40 10 22 0 40 5 40 10 0 6 18 10 40 10 22 0 40 5 40 10 0 6 27 10 60 10 33 0 60 4 60 10 0 6 117 10 330 10 213 0 330 4 330 10 0 6 47 10 120 10 73 0 120 4 120 10 0 6 37 10 90 10 53 0 90 4 90 10 0 6 27 10 60 10 33 0 60 4 60 10 0 6 53 10 140 10 87 0 140 4 140 10 0 6 30 10 70 10 40 0 70 4 70 10 0 6 60 10 160 10 100 0 160 -4 160 -10 0 -5 23 -10 50 -10 28 0 50 -4 50 -10 0 -6 67 -10 180 -10 113 0 180 -4 180 -10 0 -6 50 -10 130 -10 80 0 130 -4 130 -10 0 -6 73 -10 200 -10 127 0 200 -4 200 -10 0 -6 73 -10 200 -10 127 0 200 -4 200 -10 0 -6 70 -10 190 -10 120 0 190 -4 190 -10 0 -6 33 -10 80 -10 47 0 80 4 80 10 0 6 18 10 40 10 22 0 40 -4 40 -10 0 -5 9 -10 20 -10 11 0 20 -4 20 -10 0 -5 14 -10 30 -10 17 0 30 -4 30 -10 0 -6 70 -10 190 -10 120 0 190 -4 190 -10 0 -6 137 -10 390 -10 253 0 390 4 390 10 0 6 53 10 140 10 87 0 140 4 140 10 0 6 14 10 30 10 17 0 30 5 30 10 0 6 9 10 20 10 11 0 20 5 20 10 0 7 173 10 500 10 327 0 500 3 500 10 0 6 40 10 100 10 60 0 100 4 100 10 0 6 67 10 180 10 113 0 180 4 180 10 0 6 40 10 100 10 60 0 100 4 100 10 0 6 37 10 90 10 53 0 90 -4 90 -10 0 -5 12 -10 26 -10 26 0 54 -20 54 -40 0 -19 27 -40 50 -40 12 0 35 -13 50 -30 15 -16 33 -30 40 -30 6 0 29 -18 50 -40 21 -22 44 -40 50 -40 7 0 25 -13 40 -30 15 -16 35 -30 44 -30 9 0 16 -4 16 -10 0 -5 9 -10 20 -10 11 0 20 -4 20 -10 0 -5 9 -10 20 -10 11 0 20 -4 20 -10 0 -5 7 -10 16 -10 9 0 29 -13 44 -30 15 -16 35 -30 44 -30 9 0 16 -4 16 -10 0 -5 13 -10 28 -10 16 0 34 -8 42 -20 8 -11 22 -20 32 -20 10 0 18 -4 18 -10 0 -5 8 -10 18 -10 10 0 24 -9 32 -20 8 -11 22 -20 32 -20 10 0 18 -4 18 -10 0 -5 9 -10 20 -10 11 0 20 -4 20 -10 0 -5 14 -10 30 -10 17 0 30 -4 30 -10 0 -5 14 -10 30 -10 17 0 30 -4 30 -10 0 -5 14 -10 30 -10 17 0 30 -4 30 -10 0 -5 9 -10 20 -10 11 0 20 -4 20 -10 0 -5 9 -10 20 -10 11 0 20 -4 20 -10 0 -5 14 -10 30 -10 17 0 30 -4 30 -10 0 -5 9 -10 20 -10 11 0 20 -4 20 -10 0 -5 9 -10 20 -10 11 0 20 -4 20 -10 0 -5 14 -10 30 -10 17 0 30 -4 30 -10 0 -5 9 -10 20 -10 11 0 20 -4 20 -10 0 -5 18 -10 40 -10 22 0 40 -4 40 -10 0 -5 14 -10 30 -10 17 0 30 -4 30 -10 0 -5 9 -10 20 -10 11 0 20 -4 20 -10 0 -5 9 -10 20 -10 11 0 20 -4 20 -10 0 -5 14 -10 30 -10 17 0 30 -4 30 -10 0 -5 18 -10 40 -10 22 0 40 -4 40 -10 0 -5 14 -10 30 -10 17 0 30 -4 30 -10 0 -6 27 -10 60 -10 33 0 60 -4 60 -10 0 -5 14 -10 30 -10 17 0 30 -4 30 -10 0 -5 23 -10 50 -10 28 0 50 -4 50 -10 0 -5 9 -10 20 -10 11 0 20 -4 20 -10 0 -6 30 -10 70 -10 40 0 70 -4 70 -10 0 -5 23 -10 50 -10 28 0 50 -4 50 -10 0 -5 9 -10 20 -10 11 0 20 -4 20 -10 0 -5 9 -10 20 -10 11 0 20 -4 20 -10 0 -5 9 -10 20 -10 11 0 20 -4 20 -10 0 -5 14 -10 30 -10 17 0 30 -4 30 -10 0 -5 14 -10 30 -10 17 0 30 -4 30 -10 0 -5 8 -10 18 -10 10 0 24 -9 32 -20 10 -14 26 -20 52 -20 21 0 38 -4 38 -10 0 -5 9 -10 20 -10 11 0 20 -4 20 -10 0 -5 23 -10 50 -10 28 0 50 -4 50 -10 0 -6 30 -10 70 -10 40 0 70 -4 70 -10 0 -6 53 -10 140 -10 87 0 140 4 140 10 0 6 30 10 70 10 40 0 70 4 70 10 0 6 30 10 70 10 40 0 70 4 70 10 0 6 14 10 30 10 17 0 30 5 30 10 0 6 14 10 30 10 17 0 30 5 30 10 0 6 14 10 30 10 17 0 30 5 30 10 0 6 14 10 30 10 17 0 30 5 30 10 0 6 9 10 20 10 11 0 20 5 20 10 0 6 18 10 40 10 22 0 40 5 40 10 0 6 9 10 20 10 11 0 20 5 20 10 0 6 9 10 20 10 11 0 20 5 20 10 0 6 14 10 30 10 17 0 30 5 30 10 0 6 9 10 20 10 11 0 20 5 20 10 0 6 9 10 20 10 11 0 20 5 20 10 0 6 9 10 20 10 11 0 20 5 20 10 0 6 9 10 20 10 11 0 20 5 20 10 0 6 9 10 20 10 11 0 20 5 20 10 0 6 9 10 20 10 11 0 20 5 20 10 0 6 14 10 30 10 17 0 30 5 30 10 0 6 8 10 18 10 10 0 24 9 32 20 8 11 22 20 32 20 10 0 18 5 18 10 0 6 9 10 20 10 11 0 20 5 20 10 0 6 9 10 20 10 11 0 20 5 20 10 0 6 9 10 20 10 11 0 20 5 20 10 0 6 8 10 18 10 10 0 24 9 32 20 8 11 21 20 30 20 9 0 22 9 30 20 8 11 21 20 30 20 9 0 22 9 30 20 10 14 26 20 52 20 21 0 38 5 38 10 0 6 9 10 20 10 11 0 20 5 20 10 0 6 9 10 20 10 11 0 20 5 20 10 0 6 23 10 50 10 28 0 50 5 50 10 0 6 9 10 20 10 11 0 20 5 20 10 0 6 14 10 30 10 17 0 30 5 30 10 0 6 8 10 18 10 10 0 24 9 32 20 8 11 22 20 32 20 10 0 18 5 18 10 0 6 9 10 20 10 11 0 20 5 20 10 0 6 9 10 20 10 11 0 20 5 20 10 0 6 18 10 40 10 22 0 40 5 40 10 0 6 9 10 20 10 13 0 20 7 20 20 0 13 7 20 20 20 11 0 20 5 20 10 0 6 9 10 20 10 11 0 20 5 20 10 0 6 9 10 20 10 11 0 20 5 20 10 0 6 9 10 20 10 11 0 20 5 20 10 0 6 9 10 20 10 13 0 20 7 20 20 0 13 7 20 20 20 11 0 20 5 20 10 0 6 9 10 20 10 11 0 20 5 20 10 0 6 8 10 18 10 10 0 24 9 32 20 8 11 22 20 32 20 10 0 18 5 18 10 0 6 9 10 20 10 11 0 20 5 20 10 0 6 9 10 20 10 11 0 20 5 20 10 0 6 7 10 16 10 9 0 29 14 44 30 15 17 35 30 44 30 9 0 16 5 16 10 0 6 8 10 18 10 10 0 24 9 32 20 8 11 22 20 32 20 10 0 18 5 18 10 0 6 8 10 18 10 10 0 24 9 32 20 10 14 26 20 52 20 21 0 38 5 38 10 0 7 160 10 460 10 300 0 460 -3 460 -10 0 -7 157 -10 450 -10 293 0 450 -3 450 -10 0 -5 9 -10 20 -10 11 0 20 -4 20 -10 0 -6 30 -10 70 -10 40 0 70 -4 70 -10 0 -5 23 -10 50 -10 28 0 50 -4 50 -10 0 -7 150 -10 430 -10 280 0 430 3 430 10 0 6 37 10 90 10 53 0 90 4 90 10 0 6 30 10 70 10 40 0 70 4 70 10 0 7 237 10 690 10 453 0 690 -3 690 -10 0 -7 147 -10 420 -10 273 0 420 -3 420 -10 0 -6 80 -10 220 -10 140 0 220 -4 220 -10 0 -7 250 -10 730 -10 480 0 730 -3 730 -10 0 -6 107 -10 300 -10 193 0 300 4 300 10 0 6 73 10 200 10 127 0 200 4 200 10 0 6 11 10 25 10 26 0 75 39 75 60 0 6 29 40 65 75 45 46 72 65 90 65 14 0 25 5 25 10 0 6 14 10 30 10 17 0 30 5 30 10 0 6 9 10 20 10 11 0 20 5 20 10 0 6 18 10 40 10 22 0 40 5 40 10 0 6 14 10 30 10 17 0 30 5 30 10 0 6 9 10 20 10 11 0 20 5 20 10 0 6 14 10 30 10 20 0 30 5 30 15 0 9 25 41 56 72 41 40 58 52 64 43 7 -11 11 -10 24 3 9 8 16 21 16 27 0 17 26 40 44 40 9 0 16 -8 16 -20 0 -11 -4 -20 -10 -20 -5 0 -10 -13 -10 -30 0 -26 4 -30 28 -30 16 0 34 8 42 20 8 12 26 20 42 20 21 0 28 5 28 20 0 13 7 20 20 20 13 0 20 -7 20 -20 0 -29 28 -25 60 10 15 17 35 30 44 30 9 0 16 5 16 10 0 6 9 10 20 10 11 0 20 -4 20 -10 0 -5 18 -10 40 -10 22 0 40 5 40 10 0 6 9 10 20 10 11 0 20 -4 20 -10 0 -5 9 -10 20 -10 11 0 20 5 20 10 0 6 21 10 46 10 38 0 51 5 74 30 21 23 37 30 64 30 20 0 36 5 36 10 0 6 27 10 60 10 33 0 60 4 60 10 0 6 21 10 46 10 38 0 51 5 74 30 15 16 35 30 44 30 9 0 16 8 16 20 0 11 5 20 10 20 6 0 10 9 10 20 0 11 5 20 10 20 6 0 10 18 10 40 0 22 5 40 10 40 6 0 10 9 10 20 0 11 5 20 10 20 6 0 10 23 10 50 0 28 5 50 10 50 15 0 13 97 -2 102 -9 3 -8 9 4 21 23 23 48 21 48 -3 0 -11 3 -20 6 -20 11 0 34 29 34 44 0 9 7 16 15 16 18 0 65 44 65 60 0 21 28 40 60 40 33 0 80 38 80 65 0 9 9 15 26 15 29 0 54 21 54 44 0 9 7 16 16 16 9 0 29 14 44 30 15 17 33 30 40 30 15 0 40 25 40 40 0 16 47 60 65 60 8 0 15 9 15 20 0 11 5 20 10 20 6 0 10 9 10 20 0 17 7 20 40 20 39 0 40 1 40 35 0 46 37 85 80 85 32 0 60 19 60 40 0 16 26 40 42 40 8 0 20 9 28 20 8 11 20 20 28 20 17 0 82 65 82 82 0 8 9 20 20 28 12 8 20 26 20 42 0 15 5 28 10 28 6 0 10 27 10 60 0 33 -4 60 -10 60 -5 0 -10 18 -10 40 0 22 -4 40 -10 40 -5 0 -10 14 -10 30 0 17 -4 30 -10 30 -6 0 -10 33 -10 80 0 47 4 80 10 80 6 0 10 23 10 50 0 47 2 50 25 50 37 0 95 61 95 100 0 33 38 80 65 80 8 0 15 5 15 10 0 6 9 10 20 10 11 0 20 5 20 10 0 6 9 10 20 10 11 0 20 5 20 10 0 6 7 10 16 10 20 0 44 24 44 44 0 9 5 16 10 16 6 0 10 14 10 30 0 17 5 30 10 30 6 0 10 27 10 60 0 33 4 60 10 60 6 0 10 13 10 28 0 16 8 34 20 42 11 8 20 22 20 32 0 10 5 18 10 18 6 0 10 8 10 18 0 10 9 24 20 32 11 8 20 25 20 38 0 14 13 36 30 52 17 15 30 35 30 44 0 9 5 16 10 16 6 0 10 12 10 26 0 16 12 37 30 54 17 15 30 35 30 44 0 9 5 16 10 16 6 0 10 77 10 210 0 133 4 210 10 210 6 0 10 37 10 90 0 53 -4 90 -10 90 -6 0 -10 27 -10 60 0 33 -4 60 -10 60 -6 0 -10 27 -10 60 0 33 -4 60 -10 60 -5 0 -10 14 -10 30 0 17 -4 30 -10 30 -5 0 -10 9 -10 20 0 11 -4 20 -10 20 -5 0 -10 18 -10 40 0 22 -4 40 -10 40 -5 0 -10 14 -10 30 0 17 5 30 10 30 6 0 10 18 10 40 0 22 -4 40 -10 40 -6 0 -10 40 -10 100 0 60 -4 100 -10 100 -5 0 -10 9 -10 20 0 11 -4 20 -10 20 -5 0 -10 9 -10 20 0 11 -4 20 -10 20 -5 0 -10 18 -10 40 0 22 -4 40 -10 40 -5 0 -10 14 -10 30 0 17 -4 30 -10 30 -5 0 -10 14 -10 30 0 17 -4 30 -10 30 -5 0 -10 14 -10 30 0 17 -4 30 -10 30 -5 0 -10 9 -10 20 0 11 -4 20 -10 20 -5 0 -10 9 -10 20 0 11 -4 20 -10 20 -5 0 -10 9 -10 20 0 11 -4 20 -10 20 -5 0 -10 9 -10 20 0 11 -4 20 -10 20 -5 0 -10 14 -10 30 0 17 -4 30 -10 30 -5 0 -10 9 -10 20 0 11 -4 20 -10 20 -5 0 -10 14 -10 30 0 17 -4 30 -10 30 -5 0 -10 9 -10 20 0 11 -4 20 -10 20 -6 0 -10 40 -10 100 0 60 -4 100 -10 100 -5 0 -10 14 -10 30 0 17 -4 30 -10 30 -5 0 -10 18 -10 40 0 22 -4 40 -10 40 -5 0 -10 14 -10 30 0 17 -4 30 -10 30 -5 0 -10 8 -10 18 0 10 -9 24 -20 32 -12 8 -20 26 -20 42 0 15 -4 28 -10 28 -5 0 -10 9 -10 20 0 11 -4 20 -10 20 -5 0 -10 22 -10 48 0 36 -5 51 -20 62 -12 8 -20 26 -20 42 0 15 -4 28 -10 28 -5 0 -10 9 -10 20 0 11 -4 20 -10 20 -5 0 -10 14 -10 30 0 17 -4 30 -10 30 -5 0 -10 14 -10 30 0 17 -4 30 -10 30 -5 0 -10 17 -10 38 0 26 -6 42 -20 52 -11 8 -20 22 -20 32 0 10 -4 18 -10 18 -5 0 -10 9 -10 20 0 11 -4 20 -10 20 -5 0 -10 8 -10 18 0 10 -9 24 -20 32 -11 8 -20 22 -20 32 0 10 -7 18 -16 18 -20 0 -44 24 -44 44 0 9 -4 16 -10 16 -5 0 -10 14 -10 30 0 17 -4 30 -10 30 -5 0 -10 8 -10 18 0 10 -9 24 -20 32 -14 10 -20 26 -20 52 0 21 -4 38 -10 38 -5 0 -10 9 -10 20 0 11 -4 20 -10 20 -5 0 -10 18 -10 40 0 22 -4 40 -10 40 -5 0 -10 9 -10 20 0 11 -4 20 -10 20 -5 0 -10 23 -10 50 0 28 -4 50 -10 50 -5 0 -10 14 -10 30 0 17 -4 30 -10 30 -6 0 -10 27 -10 60 0 33 -4 60 -10 60 -5 0 -10 14 -10 30 0 17 -4 30 -10 30 -5 0 -10 11 -10 25 0 29 -59 95 -85 95 -8 0 -15 5 -15 10 0 6 -9 10 -20 10 -11 0 -20 5 -20 10 0 6 -13 10 -30 10 -16 0 -30 5 -30 10 0 6 -22 10 -50 10 -43 0 -50 3 -50 20 0 11 -4 20 -10 20 -5 0 -10 9 -10 20 0 17 -7 20 -46 20 -47 0 -74 16 -74 44 0 9 -4 16 -10 16 -5 0 -10 9 -10 20 0 11 -4 20 -10 20 -5 0 -10 14 -10 30 0 17 -4 30 -10 30 -5 0 -10 23 -10 50 0 28 -4 50 -10 50 -5 0 -10 14 -10 30 0 17 -4 30 -10 30 -5 0 -10 9 -10 20 0 11 -4 20 -10 20 -5 0 -10 9 -10 20 0 11 -4 20 -10 20 -5 0 -10 13 -10 28 0 16 -8 34 -20 42 -12 8 -20 26 -20 42 0 15 -4 28 -10 28 -6 0 -10 33 -10 80 0 47 -4 80 -10 80 -5 0 -10 23 -10 50 0 28 -4 50 -10 50 -5 0 -10 23 -10 50 0 28 -4 50 -10 50 -5 0 -10 9 -10 20 0 11 -4 20 -10 20 -5 0 -10 9 -10 20 0 11 -4 20 -10 20 -5 0 -10 8 -10 18 0 10 -9 24 -20 32 -11 8 -20 22 -20 32 0 10 -4 18 -10 18 -6 0 -10 40 -10 100 0 60 -4 100 -10 100 -5 0 -10 7 -10 15 0 20 -85 105 -105 105 -8 0 -15 7 -15 15 0 20 -85 105 -105 105 -8 0 -15 5 -15 10 0 6 -7 10 -15 10 -18 0 -65 44 -65 60 0 7 -18 29 -40 50 -31 30 -40 46 -40 72 0 22 -7 39 -20 48 -11 8 -20 21 -20 30 0 9 -9 22 -20 30 -12 8 -20 26 -20 42 0 15 -4 28 -10 28 -5 0 -10 23 -10 50 0 28 -4 50 -10 50 -5 0 -10 9 -10 20 0 11 -4 20 -10 20 -5 0 -10 9 -10 20 0 11 -4 20 -10 20 -5 0 -10 18 -10 40 0 22 -4 40 -10 40 -5 0 -10 14 -10 30 0 17 -4 30 -10 30 -5 0 -10 11 -10 25 0 36 -179 215 -215 215 -14 0 -25 5 -25 10 0 6 -7 10 -16 10 -19 0 -44 24 -44 42 0 8 -9 20 -20 28 -11 8 -20 20 -20 28 0 7 -27 40 -60 72 -33 32 -60 66 -60 74 0 9 -4 16 -10 16 -5 0 -10 7 -10 15 0 18 -44 65 -60 65 -17 0 -40 26 -40 44 0 9 -4 16 -10 16 -5 0 -10 18 -10 40 0 22 -4 40 -10 40 -5 0 -10 12 -10 26 0 16 -12 37 -30 54 -16 15 -30 35 -30 44 0 9 -4 16 -10 16 -5 0 -10 8 -10 18 0 10 -9 24 -20 32 -11 8 -20 25 -20 37 0 24 -79 113 -100 113 -14 0 -140 127 -140 140 0 16 -47 60 -65 60 -8 0 -15 5 -15 10 0 6 -9 10 -20 10 -11 0 -20 5 -20 10 0 6 -9 10 -20 10 -11 0 -20 5 -20 10 0 6 -17 10 -38 10 -26 0 -42 6 -52 20 -8 11 -25 20 -38 20 -27 0 -52 21 -52 44 0 9 -4 16 -10 16 -6 0 -10 27 -10 60 0 33 -4 60 -10 60 -5 0 -10 9 -10 20 0 11 -4 20 -10 20 -5 0 -10 18 -10 40 0 22 -4 40 -10 40 -5 0 -10 17 -10 38 0 26 -6 42 -20 52 -11 8 -20 22 -20 32 0 10 -4 18 -10 18 -5 0 -10 14 -10 30 0 17 -4 30 -10 30 -5 0 -10 7 -10 16 0 9 -13 29 -30 44 -16 15 -30 33 -30 40 0 24 -30 40 -74 40 -25 0 -46 5 -46 10 0 6 -9 10 -20 10 -11 0 -20 5 -20 10 0 6 -13 10 -30 10 -16 0 -30 5 -30 10 0 6 -30 10 -70 10 -40 0 -70 4 -70 10 0 6 -25 10 -56 10 -49 0 -59 4 -84 30 -15 17 -34 30 -42 30 -7 0 -20 9 -28 20 -8 11 -22 20 -32 20 -10 0 -18 5 -18 10 0 6 -7 10 -16 10 -8 0 -33 18 -54 40 -21 22 -46 40 -54 40 -9 0 -16 5 -16 10 0 6 -13 10 -30 10 -16 0 -30 5 -30 10 0 6 -9 10 -20 10 -11 0 -20 5 -20 10 0 6 -12 10 -26 10 -29 0 -54 21 -54 44 0 9 -4 16 -10 16 -5 0 -10 7 -10 16 0 9 -13 29 -30 44 -16 15 -30 33 -30 40 0 16 -26 40 -44 40 -9 0 -16 5 -16 10 0 6 -18 10 -40 10 -22 0 -40 5 -40 10 0 6 -13 10 -30 10 -16 0 -30 5 -30 10 0 6 -18 10 -40 10 -22 0 -40 5 -40 10 0 6 -12 10 -26 10 -26 0 -54 20 -54 40 0 22 29 40 64 40 20 0 36 5 36 10 0 6 27 10 60 10 33 0 60 4 60 10 0 6 14 10 30 10 17 0 30 5 30 10 0 6 18 10 40 10 22 0 40 5 40 10 0 6 9 10 20 10 11 0 20 -4 20 -10 0 -5 14 -10 30 -10 17 0 30 5 30 10 0 6 14 10 30 10 17 0 30 5 30 10 0 6 18 10 40 10 22 0 40 5 40 10 0 6 9 10 20 10 11 0 20 5 20 10 0 6 9 10 20 10 11 0 20 5 20 10 0 6 18 10 40 10 22 0 40 5 40 10 0 6 7 10 16 10 9 0 29 14 44 30 15 17 33 30 40 30 7 0 25 14 40 30 15 17 35 30 44 30 9 0 16 5 16 10 0 6 7 10 15 10 20 0 145 125 145 145 0 8 5 15 10 15 6 0 10 7 10 16 0 9 14 29 30 44 18 17 30 38 30 54 0 14 5 26 10 26 6 0 10 9 10 20 0 11 5 20 10 20 6 0 10 9 10 20 0 11 5 20 10 20 6 0 10 18 10 40 0 22 5 40 10 40 6 0 10 40 10 100 0 60 -4 100 -10 100 -5 0 -10 9 -10 20 0 11 -4 20 -10 20 -6 0 -10 37 -10 90 0 53 -4 90 -10 90 -5 0 -10 14 -10 30 0 17 -4 30 -10 30 -5 0 -10 8 -10 18 0 10 -9 24 -20 32 -14 10 -20 26 -20 52 0 21 -4 38 -10 38 -6 0 -10 27 -10 60 0 33 -4 60 -10 60 -6 0 -10 27 -10 60 0 33 -4 60 -10 60 -6 0 -10 43 -10 110 0 67 -4 110 -10 110 -6 0 -10 27 -10 60 0 33 -4 60 -10 60 -5 0 -10 14 -10 30 0 17 -4 30 -10 30 -5 0 -10 14 -10 30 0 17 -4 30 -10 30 -5 0 -10 14 -10 30 0 17 -4 30 -10 30 -5 0 -10 18 -10 40 0 22 -4 40 -10 40 -5 0 -10 7 -10 16 0 18 -23 44 -40 44 -20 0 -60 49 -60 75 0 14 -4 25 -10 25 -5 0 -10 14 -10 30 0 17 -4 30 -10 30 -6 0 -10 27 -10 60 0 33 -4 60 -10 60 -5 0 -10 14 -10 30 0 17 -4 30 -10 30 -5 0 -10 9 -10 20 0 11 -4 20 -10 20 -5 0 -10 9 -10 20 0 11 -4 20 -10 20 -5 0 -10 8 -10 18 0 10 -9 24 -20 32 -11 8 -20 22 -20 32 0 10 -4 18 -10 18 -5 0 -10 8 -10 18 0 10 -9 24 -20 32 -11 8 -20 20 -20 28 0 18 -25 42 -44 42 -9 0 -16 8 -16 20 0 11 -4 20 -10 20 -5 0 -10 9 -10 20 0 11 -4 20 -10 20 -5 0 -10 14 -10 30 0 17 -4 30 -10 30 -5 0 -10 9 -10 20 0 11 -4 20 -10 20 -5 0 -10 7 -10 16 0 8 -18 33 -40 54 -26 25 -40 47 -40 64 0 14 -4 26 -10 26 -5 0 -10 9 -10 20 0 11 -4 20 -10 20 -5 0 -10 9 -10 20 0 11 -4 20 -10 20 -5 0 -10 9 -10 20 0 11 -4 20 -10 20 -5 0 -10 9 -10 20 0 11 -4 20 -10 20 -5 0 -10 8 -10 18 0 10 -9 24 -20 32 -11 8 -20 22 -20 32 0 10 -4 18 -10 18 -5 0 -10 7 -10 16 0 9 -13 29 -30 44 -16 15 -30 35 -30 44 0 9 -4 16 -10 16 -5 0 -10 7 -10 16 0 9 -13 29 -30 44 -16 15 -30 33 -30 40 0 7 -13 25 -30 40 -16 15 -30 33 -30 40 0 6 -18 29 -40 50 -22 21 -40 46 -40 54 0 9 -4 16 -10 16 -5 0 -10 7 -10 16 0 9 -10 25 -22 36 -19 16 -20 21 -8 29 11 8 12 12 3 16 -7 2 -13 11 -13 20 0 8 -13 28 -30 43 -16 15 -30 34 -30 42 0 7 -9 20 -20 28 -11 8 -20 21 -20 30 0 9 -9 22 -20 30 -11 8 -20 22 -20 32 0 10 -4 18 -10 18 -5 0 -10 7 -10 16 0 8 -18 33 -40 54 -22 21 -40 45 -40 52 0 7 -9 20 -20 28 -11 8 -20 20 -20 28 0 7 -27 40 -60 72 -33 32 -60 66 -60 74 0 9 -4 16 -10 16 -5 0 -10 7 -10 16 0 8 -18 33 -40 54 -30 29 -40 46 -40 70 0 24 -10 41 -40 70 -22 21 -40 43 -40 50 0 14 -46 60 -60 60 -15 0 -60 46 -60 62 0 8 -9 20 -20 28 -11 8 -20 20 -20 28 0 22 -26 42 -54 42 -14 0 -26 5 -26 10 0 6 -7 10 -15 10 -20 0 -125 105 -125 125 0 10 -10 15 -30 15 -16 0 -30 5 -30 10 0 6 -9 10 -20 10 -11 0 -20 5 -20 10 0 6 -8 10 -18 10 -10 0 -24 9 -32 20 -8 12 -26 20 -42 20 -15 0 -28 5 -28 10 0 6 -9 10 -20 10 -11 0 -20 5 -20 10 0 6 -8 10 -18 10 -10 0 -24 9 -32 20 -8 11 -22 20 -32 20 -11 0 -18 7 -18 20 0 11 -4 20 -10 20 -5 0 -10 9 -10 20 0 11 -4 20 -10 20 -5 0 -10 9 -10 20 0 11 -4 20 -10 20 -5 0 -10 9 -10 20 0 11 -4 20 -10 20 -5 0 -10 9 -10 20 0 13 -7 20 -18 20 -10 0 -24 9 -32 20 -8 11 -22 20 -32 20 -10 0 -18 5 -18 10 0 6 -16 10 -36 10 -28 0 -43 8 -74 40 -22 22 -48 40 -60 40 -12 0 -38 18 -60 40 -21 22 -44 40 -50 40 -6 0 -29 18 -50 40 -25 26 -47 40 -64 40 -14 0 -26 5 -26 10 0 6 -13 10 -30 10 -16 0 -30 5 -30 10 0 6 -12 10 -26 10 -14 0 -32 6 -40 14 -16 17 -19 66 -4 66 6 0 10 27 10 60 0 33 -4 60 -10 60 -5 0 -10 11 -10 25 0 26 40 75 60 75 17 0 40 26 40 44 0 9 5 16 10 16 6 0 10 7 10 16 0 20 24 44 44 44 9 0 16 5 16 10 0 6 12 10 26 10 16 0 37 12 54 30 15 17 33 30 39 30 17 0 81 67 81 85 0 8 7 15 16 15 8 0 37 23 64 50 27 28 56 50 64 50 9 0 16 5 16 10 0 6 9 10 20 10 11 0 20 7 20 15 0 25 46 65 75 65 18 0 25 5 25 20 0 11 5 20 10 20 6 0 10 16 10 36 0 27 7 43 30 64 18 17 30 38 30 54 0 14 5 26 10 26 6 0 10 9 10 20 0 11 5 20 10 20 6 0 10 7 10 16 0 8 6 22 14 30 8 8 22 14 30 14 11 0 16 9 16 30 0 17 5 30 10 30 6 0 10 23 10 50 0 28 5 50 10 50 6 0 10 9 10 20 0 11 5 20 10 20 6 0 10 9 10 20 0 11 5 20 10 20 6 0 10 13 10 28 0 16 8 34 20 42 12 8 20 26 20 42 0 15 5 28 10 28 6 0 10 14 10 30 0 17 5 30 10 30 6 0 10 14 10 30 0 17 5 30 10 30 6 0 10 18 10 40 0 22 5 40 10 40 6 0 10 8 10 18 0 10 9 24 20 32 17 13 20 26 20 102 0 52 4 88 10 88 6 0 10 14 10 30 0 17 5 30 10 30 6 0 10 100 10 280 0 180 4 280 10 280 6 0 10 18 10 40 0 22 5 40 10 40 6 0 10 14 10 30 0 17 5 30 10 30 6 0 10 33 10 80 0 47 -4 80 -10 80 -6 0 -10 53 -10 140 0 87 -4 140 -10 140 -6 0 -10 40 -10 100 0 60 4 100 10 100 6 0 10 7 10 15 0 23 66 85 90 85 29 0 50 23 50 54 0 14 5 26 10 26 6 0 10 7 10 16 0 8 23 37 50 64 34 33 50 57 50 74 0 14 5 26 10 26 6 0 10 9 10 20 0 13 7 20 20 20 11 0 20 5 20 10 0 6 7 10 15 10 24 0 65 46 65 72 0 13 9 30 20 38 14 10 20 26 20 52 0 21 5 38 10 38 6 0 10 14 10 30 0 17 5 30 10 30 6 0 10 23 10 50 0 28 5 50 10 50 6 0 10 14 10 30 0 17 5 30 10 30 6 0 10 30 10 70 0 40 -4 70 -10 70 -5 0 -10 14 -10 30 0 17 5 30 10 30 6 0 10 14 10 30 0 17 5 30 10 30 6 0 10 33 10 80 0 47 4 80 10 80 6 0 10 9 10 20 0 11 5 20 10 20 6 0 10 29 10 66 0 60 -3 68 -30 94 -18 17 -30 38 -30 54 0 14 -4 26 -10 26 -6 0 -10 27 -10 60 0 47 -3 60 -15 60 -26 0 -85 66 -85 95 0 14 -4 25 -10 25 -5 0 -10 9 -10 20 0 11 -4 20 -10 20 -5 0 -10 7 -10 16 0 9 -13 29 -30 44 -16 15 -30 35 -30 44 0 9 -4 16 -10 16 -5 0 -10 9 -10 20 0 11 -4 20 -10 20 -5 0 -10 9 -10 20 0 11 -4 20 -10 20 -5 0 -10 8 -10 18 0 10 -9 24 -20 32 -11 8 -20 22 -20 32 0 10 -4 18 -10 18 -5 0 -10 9 -10 20 0 13 -7 20 -20 20 -11 0 -20 5 -20 10 0 6 -11 10 -25 10 -27 0 -95 59 -95 82 0 8 -9 20 -20 28 -11 8 -20 22 -20 32 0 10 -4 18 -10 18 -5 0 -10 9 -10 20 0 11 -4 20 -10 20 -5 0 -10 9 -10 20 0 19 -7 20 -190 20 -120 0 -190 4 -190 10 0 6 -13 10 -30 10 -16 0 -30 5 -30 10 0 6 -9 10 -20 10 -11 0 -20 5 -20 10 0 6 -8 10 -18 10 -10 0 -24 9 -32 20 -18 24 -70 28 -70 5 0 -9 -11 -27 -25 -40 -24 -25 -55 -33 -55 -15 0 6 -26 10 -58 10 -46 0 -60 4 -72 20 -10 14 -26 20 -52 20 -21 0 -38 -4 -38 -10 0 -15 -97 -12 -104 3 -5 10 -7 10 -12 0 -7 -15 -84 -18 -84 -3 0 6 -13 10 -28 10 -16 0 -34 8 -42 20 -8 11 -22 20 -32 20 -10 0 -18 5 -18 10 0 6 -18 10 -40 10 -33 0 -40 -3 -40 -20 0 -11 5 -20 10 -20 6 0 10 -9 10 -20 0 -11 5 -20 10 -20 15 0 12 -29 -4 -46 -17 -16 -66 -19 -66 -4 0 6 -18 10 -40 10 -33 0 -40 -3 -40 -20 0 -11 -4 -20 -10 -20 -5 0 -10 -18 -10 -40 0 -38 -2 -40 -30 -40 -16 0 -30 -4 -30 -10 0 -5 -7 -10 -16 -10 -20 0 -44 -24 -44 -44 0 -9 -7 -16 -15 -16 -20 0 -65 -45 -65 -65 0 -8 -4 -15 -10 -15 -5 0 -10 -9 -10 -20 0 -11 -4 -20 -10 -20 -5 0 -10 -9 -10 -20 0 -15 -7 -20 -28 -20 -16 0 -34 8 -42 20 -8 11 -22 20 -32 20 -10 0 -18 5 -18 10 0 6 -9 10 -20 10 -11 0 -20 5 -20 10 0 6 -8 10 -18 10 -10 0 -24 9 -32 20 -8 12 -26 20 -42 20 -15 0 -28 5 -28 10 0 6 -17 10 -38 10 -26 0 -42 6 -52 20 -8 11 -22 20 -32 20 -10 0 -18 5 -18 10 0 6 -9 10 -20 10 -11 0 -20 5 -20 10 0 6 -9 10 -20 10 -11 0 -20 5 -20 10 0 6 -13 10 -30 10 -16 0 -30 5 -30 10 0 6 -12 10 -26 10 -16 0 -37 12 -54 30 -15 17 -35 30 -44 30 -9 0 -16 5 -16 10 0 6 -13 10 -30 10 -16 0 -30 5 -30 10 0 6 -13 10 -30 10 -16 0 -30 5 -30 10 0 6 -13 10 -30 10 -16 0 -30 5 -30 10 0 6 -8 10 -18 10 -10 0 -24 9 -32 20 -8 11 -22 20 -32 20 -10 0 -18 5 -18 10 0 6 -77 10 -210 10 -133 0 -210 4 -210 10 0 6 -70 10 -190 10 -120 0 -190 -4 -190 -10z" fill="#000000" id="000000-000001" mask="url(#mask-0)"/>
    <path stroke="none" d="M6180 17310 c0 -103 1 -110 20 -110 19 0 20 7 20 96 0 69 -4 99 -14 110 -8 8 -17 14 -20 14 -3 0 -6 -49 -6 -110z" fill="#000000" id="000000-000002"/>
    <path stroke="none" d="M6200 17060 c0 -33 4 -60 10 -60 6 0 10 -37 10 -90 0 -53 -4 -90 -10 -90 -5 0 -10 -22 -10 -50 0 -27 5 -50 10 -50 6 0 10 -22 10 -50 0 -27 5 -50 10 -50 6 0 10 -7 10 -16 0 -15 23 -44 34 -44 3 0 6 9 6 20 0 11 -4 20 -10 20 -5 0 -10 9 -10 20 0 11 5 20 10 20 6 0 10 27 10 60 0 33 -4 60 -10 60 -6 0 -10 30 -10 70 0 40 -4 70 -10 70 -6 0 -10 37 -10 90 0 53 -4 90 -10 90 -5 0 -10 9 -10 20 0 11 -4 20 -10 20 -6 0 -10 -27 -10 -60z" fill="#000000" id="000000-000003"/>
    <path stroke="none" d="M1400 2420 c0 -11 5 -20 10 -20 6 0 10 9 10 20 0 11 -4 20 -10 20 -5 0 -10 -9 -10 -20z" fill="#000000" id="000000-000004"/>
    <path stroke="none" d="M1500 2240 c0 -11 5 -20 10 -20 6 0 10 9 10 20 0 11 -4 20 -10 20 -5 0 -10 -9 -10 -20z" fill="#000000" id="000000-000006"/>
    <path stroke="none" d="M1500 2170 c0 -16 5 -30 10 -30 6 0 10 14 10 30 0 17 -4 30 -10 30 -5 0 -10 -13 -10 -30z" fill="#000000" id="000000-000007"/>
    <path stroke="none" d="M1520 2090 c0 -16 5 -30 10 -30 6 0 10 14 10 30 0 17 -4 30 -10 30 -5 0 -10 -13 -10 -30z" fill="#000000" id="000000-000008"/>
    <path stroke="none" d="M1653 2045 c-18 -20 -16 -25 7 -25 13 0 20 7 20 20 0 23 -10 25 -27 5z" fill="#000000" id="000000-000009"/>
    <path stroke="none" d="M1560 2030 c0 -5 5 -10 10 -10 6 0 10 5 10 10 0 6 -4 10 -10 10 -5 0 -10 -4 -10 -10z" fill="#000000" id="000000-000011"/>
    <path stroke="none" d="M1600 1940 c0 -13 7 -20 20 -20 11 0 20 5 20 10 0 6 9 10 20 10 11 0 20 5 20 10 0 6 -18 10 -40 10 -33 0 -40 -3 -40 -20z" fill="#000000" id="000000-000012"/>
    <path stroke="none" d="M1680 1920 c0 -11 5 -20 10 -20 6 0 10 9 10 20 0 11 -4 20 -10 20 -5 0 -10 -9 -10 -20z" fill="#000000" id="000000-000017"/>
    <path stroke="none" d="M1680 1870 c0 -5 9 -10 20 -10 11 0 20 5 20 10 0 6 -9 10 -20 10 -11 0 -20 -4 -20 -10z" fill="#000000" id="000000-000019"/>
    <path stroke="none" d="M1760 1814 c0 -14 7 -32 15 -40 13 -14 17 -14 30 0 19 18 19 33 1 52 -23 23 -46 17 -46 -12z" fill="#000000" id="000000-000021"/>
    <path stroke="none" d="M26300 1810 c0 -5 9 -10 20 -10 11 0 20 5 20 10 0 6 -9 10 -20 10 -11 0 -20 -4 -20 -10z" fill="#000000" id="000000-000025"/>
    <path stroke="none" d="M1840 1730 c0 -5 5 -10 10 -10 6 0 10 5 10 10 0 6 -4 10 -10 10 -5 0 -10 -4 -10 -10z" fill="#000000" id="000000-000029"/>
    <path stroke="none" d="M1860 1710 c0 -5 5 -10 10 -10 6 0 10 5 10 10 0 6 -4 10 -10 10 -5 0 -10 -4 -10 -10z" fill="#000000" id="000000-000031"/>
    <path stroke="none" d="M26160 1700 c0 -13 7 -20 18 -20 10 0 24 -9 32 -20 8 -11 22 -20 32 -20 14 0 18 8 18 40 0 38 -2 40 -29 40 -16 0 -32 -6 -35 -12 -5 -10 -7 -10 -12 0 -9 19 -24 14 -24 -8z" fill="#000000" id="000000-000030"/>
    <path stroke="none" d="M1900 1674 c0 -11 29 -34 44 -34 20 0 20 7 2 26 -14 14 -46 20 -46 8z" fill="#000000" id="000000-000032"/>
    <path stroke="none" d="M1980 1630 c0 -5 5 -10 10 -10 6 0 10 5 10 10 0 6 -4 10 -10 10 -5 0 -10 -4 -10 -10z" fill="#000000" id="000000-000035"/>
    <path stroke="none" d="M2000 1610 c0 -5 9 -10 20 -10 11 0 20 5 20 10 0 6 -9 10 -20 10 -11 0 -20 -4 -20 -10z" fill="#000000" id="000000-000037"/>
    <path stroke="none" d="M2060 1574 c0 -11 29 -34 44 -34 9 0 16 -4 16 -10 0 -5 9 -10 20 -10 11 0 20 3 20 6 0 11 -29 34 -44 34 -9 0 -16 5 -16 10 0 6 -9 10 -20 10 -11 0 -20 -3 -20 -6z" fill="#000000" id="000000-000038"/>
    <path stroke="none" d="M25840 1550 c0 -5 -13 -10 -30 -10 -16 0 -30 -4 -30 -10 0 -15 77 -12 83 3 4 9 8 8 17 -3 9 -11 13 -12 17 -2 2 6 13 12 24 12 10 0 19 5 19 10 0 6 -22 10 -50 10 -27 0 -50 -4 -50 -10z" fill="#000000" id="000000-000040"/>
    <path stroke="none" d="M2160 1510 c0 -5 5 -10 10 -10 6 0 10 5 10 10 0 6 -4 10 -10 10 -5 0 -10 -4 -10 -10z" fill="#000000" id="000000-000044"/>
    <path stroke="none" d="M18180 1510 c0 -5 -9 -10 -20 -10 -11 0 -20 -4 -20 -10 0 -6 -40 -10 -100 -10 -60 0 -100 4 -100 10 0 6 -43 10 -110 10 -67 0 -110 -4 -110 -10 0 -6 37 -10 90 -10 53 0 90 -4 90 -10 0 -6 73 -10 200 -10 127 0 200 4 200 10 0 6 9 10 20 10 11 0 20 -4 20 -10 0 -6 33 -10 80 -10 47 0 80 4 80 10 0 6 9 10 20 10 11 0 20 -4 20 -10 0 -6 73 -10 200 -10 127 0 200 4 200 10 0 6 -30 10 -70 10 -63 0 -70 2 -70 20 0 11 -4 20 -10 20 -5 0 -10 -4 -10 -10 0 -6 -43 -10 -110 -10 -67 0 -110 4 -110 10 0 6 -37 10 -90 10 -53 0 -90 -4 -90 -10 0 -5 -9 -10 -20 -10 -11 0 -20 5 -20 10 0 6 -13 10 -30 10 -23 0 -30 -4 -30 -20 0 -11 -4 -20 -10 -20 -5 0 -10 9 -10 20 0 17 -7 20 -40 20 -22 0 -40 -4 -40 -10z" fill="#000000" id="000000-000042"/>
    <path stroke="none" d="M17660 1490 c0 -5 5 -10 10 -10 6 0 10 5 10 10 0 6 -4 10 -10 10 -5 0 -10 -4 -10 -10z" fill="#000000" id="000000-000050"/>
    <path stroke="none" d="M2220 1470 c0 -5 7 -10 16 -10 9 0 29 -13 44 -30 17 -18 38 -30 54 -30 14 0 26 -4 26 -10 0 -5 14 -10 30 -10 17 0 30 -4 30 -10 0 -5 14 -10 30 -10 17 0 30 -4 30 -10 0 -5 9 -10 20 -10 11 0 20 -4 20 -10 0 -5 9 -10 20 -10 11 0 20 -4 20 -10 0 -5 9 -10 20 -10 11 0 20 -4 20 -10 0 -5 9 -10 20 -10 13 0 20 -7 20 -20 0 -16 7 -20 30 -20 17 0 30 -4 30 -10 0 -5 23 -10 50 -10 28 0 50 -4 50 -10 0 -5 17 -10 38 -10 26 0 42 6 52 20 18 25 70 28 70 4 0 -18 23 -44 40 -44 17 0 40 26 40 44 0 9 5 16 10 16 6 0 10 -4 10 -10 0 -15 70 -12 86 4 8 8 14 22 14 30 0 13 14 16 78 16 66 0 80 3 92 20 8 11 18 20 22 20 4 0 8 -9 8 -20 0 -13 7 -20 20 -20 13 0 20 7 20 20 0 17 7 20 40 20 22 0 40 -4 40 -10 0 -5 9 -10 20 -10 11 0 20 5 20 10 0 6 40 10 100 10 60 0 100 -4 100 -10 0 -5 9 -10 20 -10 11 0 20 5 20 10 0 6 37 10 90 10 53 0 90 -4 90 -10 0 -5 23 -10 50 -10 28 0 50 5 50 10 0 6 18 10 40 10 22 0 40 5 40 10 0 6 9 10 20 10 11 0 20 5 20 10 0 6 60 10 160 10 100 0 160 4 160 10 0 6 37 10 90 10 53 0 90 4 90 10 0 6 43 10 110 10 67 0 110 4 110 10 0 6 30 10 70 10 40 0 70 4 70 10 0 6 -33 10 -80 10 -47 0 -80 -4 -80 -10 0 -5 -13 -10 -30 -10 -16 0 -30 5 -30 10 0 6 -22 10 -50 10 -27 0 -50 -4 -50 -10 0 -6 -53 -10 -140 -10 -87 0 -140 -4 -140 -10 0 -5 -9 -10 -20 -10 -11 0 -20 -4 -20 -10 0 -5 -9 -10 -20 -10 -11 0 -20 5 -20 10 0 6 -13 10 -30 10 -16 0 -30 -4 -30 -10 0 -6 -40 -10 -100 -10 -60 0 -100 -4 -100 -10 0 -6 -87 -10 -240 -10 -153 0 -240 -4 -240 -10 0 -5 -9 -10 -20 -10 -11 0 -20 5 -20 10 0 6 -30 10 -69 10 -46 0 -71 4 -75 13 -5 10 -7 10 -12 0 -4 -10 -43 -13 -145 -13 -86 0 -139 -4 -139 -10 0 -6 30 -10 70 -10 39 0 70 -3 70 -6 0 -21 -35 -34 -94 -34 -37 0 -66 -4 -66 -10 0 -6 -30 -10 -70 -10 -40 0 -70 -4 -70 -10 0 -5 -18 -10 -40 -10 -22 0 -40 5 -40 10 0 6 -9 10 -20 10 -11 0 -20 -4 -20 -10 0 -5 -9 -10 -20 -10 -11 0 -20 5 -20 10 0 6 -13 10 -29 10 -16 0 -32 6 -35 13 -5 10 -7 10 -12 0 -9 -20 -35 -15 -57 10 -13 15 -21 18 -24 10 -9 -24 -23 -13 -23 17 0 28 -2 30 -38 30 -26 0 -42 6 -52 20 -12 17 -26 20 -82 20 -39 0 -68 4 -68 10 0 6 -9 10 -20 10 -13 0 -20 7 -20 20 0 11 5 20 10 20 6 0 10 5 10 10 0 15 -57 12 -64 -2 -5 -10 -7 -10 -12 0 -7 14 -64 17 -64 2z" fill="#000000" id="000000-000048"/>
    <path stroke="none" d="M17220 1464 c0 -22 32 -53 38 -36 2 8 27 12 73 12 39 0 69 4 69 10 0 6 14 10 30 10 17 0 30 -4 30 -10 0 -5 18 -10 40 -10 33 0 40 3 40 20 0 11 -4 20 -10 20 -5 0 -10 -4 -10 -10 0 -5 -9 -10 -20 -10 -11 0 -20 5 -20 10 0 6 -27 10 -60 10 -33 0 -60 -4 -60 -10 0 -5 -22 -10 -50 -10 -27 0 -50 5 -50 10 0 6 -9 10 -20 10 -12 0 -20 -7 -20 -16z" fill="#000000" id="000000-000049"/>
    <path stroke="none" d="M18980 1470 c0 -5 9 -10 20 -10 11 0 20 5 20 10 0 6 -9 10 -20 10 -11 0 -20 -4 -20 -10z" fill="#000000" id="000000-000054"/>
    <path stroke="none" d="M20560 1470 c0 -5 -9 -10 -19 -10 -11 0 -22 -6 -25 -12 -5 -10 -7 -10 -12 0 -7 14 -64 17 -64 2 0 -5 9 -10 20 -10 13 0 20 -7 20 -20 0 -15 7 -20 28 -20 16 0 34 8 42 20 10 14 26 20 52 20 21 0 38 -4 38 -10 0 -5 9 -10 20 -10 11 0 20 5 20 10 0 6 9 10 20 10 11 0 20 -4 20 -10 0 -5 14 -10 30 -10 17 0 30 5 30 10 0 6 47 10 120 10 73 0 120 4 120 10 0 6 23 10 50 10 28 0 50 -4 50 -10 0 -6 40 -10 100 -10 60 0 100 4 100 10 0 6 14 10 30 10 17 0 30 -4 30 -10 0 -7 237 -10 690 -10 453 0 690 -3 690 -10 0 -6 40 -10 100 -10 60 0 100 -4 100 -10 0 -6 40 -10 100 -10 60 0 100 4 100 10 0 6 -13 10 -30 10 -16 0 -30 5 -30 10 0 6 -30 10 -70 10 -40 0 -70 4 -70 10 0 6 -30 10 -70 10 -40 0 -70 -4 -70 -10 0 -5 -9 -10 -20 -10 -11 0 -20 5 -20 10 0 6 -37 10 -90 10 -53 0 -90 4 -90 10 0 6 -13 10 -30 10 -16 0 -30 -4 -30 -10 0 -6 -33 -10 -80 -10 -47 0 -80 4 -80 10 0 7 -187 10 -540 10 -353 0 -540 -3 -540 -10 0 -5 -22 -10 -50 -10 -27 0 -50 5 -50 10 0 6 -40 10 -100 10 -60 0 -100 -4 -100 -10 0 -6 -33 -10 -80 -10 -47 0 -80 4 -80 10 0 15 -177 13 -184 -2 -5 -10 -7 -10 -12 0 -7 14 -84 17 -84 2z" fill="#000000" id="000000-000052"/>
    <path stroke="none" d="M25600 1450 c0 -5 -18 -10 -40 -10 -22 0 -40 -4 -40 -10 0 -6 -63 -10 -170 -10 -107 0 -170 -4 -170 -10 0 -5 -9 -10 -20 -10 -11 0 -20 5 -20 10 0 6 -27 10 -60 10 -33 0 -60 -4 -60 -10 0 -5 -9 -10 -20 -10 -11 0 -20 5 -20 10 0 6 -40 10 -100 10 -60 0 -100 -4 -100 -10 0 -5 -18 -10 -40 -10 -22 0 -40 5 -40 10 0 6 -117 10 -330 10 -213 0 -330 4 -330 10 0 6 -9 10 -20 10 -11 0 -20 -4 -20 -10 0 -6 -93 -10 -260 -10 -167 0 -260 4 -260 10 0 6 -60 10 -160 10 -100 0 -160 -4 -160 -10 0 -5 18 -10 40 -10 22 0 40 -4 40 -10 0 -6 93 -10 260 -10 167 0 260 -4 260 -10 0 -6 47 -10 120 -10 73 0 120 4 120 10 0 6 27 10 60 10 33 0 60 -4 60 -10 0 -5 14 -10 30 -10 17 0 30 5 30 10 0 6 14 10 30 10 17 0 30 -4 30 -10 0 -5 14 -10 30 -10 17 0 30 5 30 10 0 6 47 10 120 10 73 0 120 -4 120 -10 0 -7 153 -10 440 -10 287 0 440 3 440 10 0 6 35 10 85 10 78 0 88 2 110 25 30 29 31 35 5 35 -11 0 -20 -4 -20 -10z" fill="#000000" id="000000-000056"/>
    <path stroke="none" d="M5060 1430 c0 -6 40 -10 100 -10 60 0 100 -4 100 -10 0 -6 87 -10 240 -10 153 0 240 -4 240 -10 0 -6 33 -10 80 -10 47 0 80 -4 80 -10 0 -5 9 -10 20 -10 11 0 20 5 20 10 0 6 14 10 30 10 17 0 30 -4 30 -10 0 -6 60 -10 160 -10 100 0 160 -4 160 -10 0 -6 27 -10 60 -10 33 0 60 4 60 10 0 6 9 10 20 10 11 0 20 -4 20 -10 0 -6 33 -10 80 -10 47 0 80 4 80 10 0 6 -18 10 -40 10 -22 0 -40 5 -40 10 0 6 -40 10 -100 10 -60 0 -100 4 -100 10 0 6 -73 10 -198 10 -186 0 -198 1 -212 20 -15 21 -50 28 -50 10 0 -6 -27 -10 -60 -10 -33 0 -60 4 -60 10 0 6 -13 10 -30 10 -16 0 -30 -4 -30 -10 0 -15 -57 -12 -64 3 -5 10 -7 10 -12 0 -7 -15 -64 -18 -64 -3 0 6 -27 10 -60 10 -33 0 -60 -4 -60 -10 0 -5 -18 -10 -40 -10 -22 0 -40 5 -40 10 0 6 -60 10 -160 10 -100 0 -160 -4 -160 -10z" fill="#000000" id="000000-000058"/>
    <path stroke="none" d="M19300 1430 c0 -5 9 -10 19 -10 11 0 22 -6 25 -12 5 -10 7 -10 12 0 7 14 44 16 44 2 0 -6 80 -10 220 -10 140 0 220 -4 220 -10 0 -6 27 -10 60 -10 33 0 60 4 60 10 0 6 27 10 60 10 33 0 60 -4 60 -10 0 -5 18 -10 40 -10 22 0 40 5 40 10 0 6 53 10 140 10 133 0 140 1 140 20 0 16 -7 20 -30 20 -16 0 -30 -4 -30 -10 0 -6 -67 -10 -180 -10 -113 0 -180 4 -180 10 0 6 -13 10 -30 10 -16 0 -30 -4 -30 -10 0 -6 -63 -10 -170 -10 -107 0 -170 4 -170 10 0 6 -13 10 -30 10 -16 0 -30 -4 -30 -10 0 -5 -22 -10 -50 -10 -27 0 -50 5 -50 10 0 6 -33 10 -80 10 -47 0 -80 -4 -80 -10z" fill="#000000" id="000000-000059"/>
    <path stroke="none" d="M17160 1410 c0 -5 -13 -10 -30 -10 -21 0 -30 -5 -30 -16 0 -20 24 -44 44 -44 9 0 16 -4 16 -10 0 -5 14 -10 30 -10 27 0 30 3 30 30 0 17 -4 30 -10 30 -5 0 -10 5 -10 10 0 6 9 10 20 10 11 0 20 5 20 10 0 6 -18 10 -40 10 -22 0 -40 -4 -40 -10z" fill="#000000" id="000000-000060"/>
    <path stroke="none" d="M10560 1390 c0 -6 -53 -10 -140 -10 -87 0 -140 -4 -140 -10 0 -6 -27 -10 -60 -10 -33 0 -60 -4 -60 -10 0 -6 -80 -10 -220 -10 -140 0 -220 -4 -220 -10 0 -6 -27 -10 -60 -10 -33 0 -60 4 -60 10 0 6 -18 10 -40 10 -22 0 -40 5 -40 10 0 6 -9 10 -20 10 -13 0 -20 -7 -20 -20 0 -17 -7 -20 -40 -20 -22 0 -40 5 -40 10 0 6 -30 10 -70 10 -40 0 -70 4 -70 10 0 6 -18 10 -40 10 -22 0 -40 -4 -40 -10 0 -5 -9 -10 -20 -10 -11 0 -20 -4 -20 -10 0 -6 -37 -10 -90 -10 -53 0 -90 -4 -90 -10 0 -6 -37 -10 -90 -10 -53 0 -90 -4 -90 -10 0 -5 -13 -10 -30 -10 -16 0 -30 -4 -30 -10 0 -5 -22 -10 -50 -10 -27 0 -50 5 -50 10 0 6 -93 10 -260 10 -167 0 -260 4 -260 10 0 6 -43 10 -109 10 -78 0 -111 4 -115 13 -5 10 -7 10 -12 0 -7 -15 -84 -18 -84 -3 0 6 -13 10 -30 10 -16 0 -30 -4 -30 -10 0 -5 -9 -10 -19 -10 -11 0 -21 -6 -24 -12 -3 -9 -11 -6 -24 10 -12 12 -32 22 -47 22 -14 0 -26 5 -26 10 0 6 -37 10 -90 10 -53 0 -90 -4 -90 -10 0 -6 -56 -10 -148 -10 -136 0 -149 2 -162 20 -14 19 -26 20 -212 20 -191 0 -198 -1 -198 -20 0 -19 7 -20 200 -20 127 0 200 -4 200 -10 0 -6 60 -10 160 -10 100 0 160 -4 160 -10 0 -6 35 -10 86 -10 77 0 89 -2 107 -23 13 -15 21 -18 24 -9 6 14 83 17 83 2 0 -5 14 -10 30 -10 17 0 30 5 30 10 0 6 57 10 150 10 143 0 150 -1 150 -20 0 -17 7 -20 39 -20 22 0 41 -5 44 -12 3 -9 11 -6 24 10 14 15 32 22 57 22 20 0 36 5 36 10 0 6 9 10 20 10 11 0 20 -4 20 -10 0 -5 9 -10 20 -10 11 0 20 -4 20 -10 0 -5 9 -10 20 -10 11 0 20 5 20 10 0 6 29 10 68 10 56 0 70 -3 82 -20 18 -26 42 -26 60 0 13 18 26 20 122 20 101 0 108 1 108 20 0 18 7 20 59 20 38 0 61 -5 65 -12 5 -10 7 -10 12 0 4 8 33 12 95 12 53 0 89 4 89 10 0 6 53 10 140 10 87 0 140 -4 140 -10 0 -5 14 -10 30 -10 17 0 30 5 30 10 0 6 9 10 20 10 11 0 20 5 20 10 0 6 14 10 30 10 17 0 30 -4 30 -10 0 -5 9 -10 19 -10 11 0 22 -6 25 -12 5 -10 7 -10 12 0 4 7 27 12 65 12 33 0 59 4 59 10 0 6 93 10 260 10 167 0 260 4 260 10 0 6 27 10 60 10 33 0 60 4 60 10 0 6 93 10 260 10 253 0 260 -1 260 -20 0 -18 7 -20 58 -20 46 0 60 -4 72 -20 8 -11 22 -20 32 -20 10 0 18 -4 18 -10 0 -5 14 -10 30 -10 17 0 30 -4 30 -10 0 -5 5 -10 10 -10 6 0 10 9 10 20 0 13 -7 20 -20 20 -11 0 -20 5 -20 10 0 6 -9 10 -20 10 -11 0 -20 5 -20 10 0 6 -8 10 -18 10 -10 0 -24 9 -32 20 -11 15 -26 20 -62 20 -26 0 -48 5 -48 10 0 6 -50 10 -130 10 -80 0 -130 4 -130 10 0 6 -27 10 -60 10 -33 0 -60 -4 -60 -10z" fill="#000000" id="000000-000061"/>
    <path stroke="none" d="M3020 1354 c0 -3 6 -12 14 -20 21 -21 46 -17 46 6 0 16 -7 20 -30 20 -16 0 -30 -3 -30 -6z" fill="#000000" id="000000-000064"/>
    <path stroke="none" d="M11180 1220 c0 -16 7 -20 30 -20 17 0 30 -4 30 -10 0 -5 9 -10 20 -10 11 0 20 -4 20 -10 0 -5 16 -10 35 -10 36 0 85 -35 85 -60 0 -25 49 -60 85 -60 19 0 35 5 35 10 0 6 -9 10 -20 10 -16 0 -20 7 -20 30 0 27 -3 30 -30 30 -20 0 -30 5 -30 15 0 20 -65 85 -84 85 -8 0 -17 6 -20 13 -5 10 -7 10 -12 0 -7 -15 -104 -18 -104 -3 0 6 -4 10 -10 10 -5 0 -10 -9 -10 -20z" fill="#000000" id="000000-000071"/>
    <path stroke="none" d="M16900 1220 c0 -11 -4 -20 -10 -20 -5 0 -10 -4 -10 -10 0 -20 51 -10 75 15 14 13 25 27 25 30 0 3 -18 5 -40 5 -33 0 -40 -3 -40 -20z" fill="#000000" id="000000-000072"/>
    <path stroke="none" d="M16640 1120 c0 -13 7 -20 20 -20 24 0 25 6 6 26 -20 19 -26 18 -26 -6z" fill="#000000" id="000000-000074"/>
    <path stroke="none" d="M11540 1040 c0 -16 7 -20 30 -20 17 0 30 -4 30 -10 0 -5 14 -10 30 -10 17 0 30 3 30 6 0 16 -33 34 -64 34 -20 0 -36 5 -36 10 0 6 -4 10 -10 10 -5 0 -10 -9 -10 -20z" fill="#000000" id="000000-000077"/>
    <path stroke="none" d="M11680 975 c0 -13 71 -75 85 -75 8 0 15 -4 15 -10 0 -5 8 -10 18 -10 10 0 24 -9 32 -20 12 -17 26 -20 82 -20 l68 0 0 -30 c0 -23 4 -30 20 -30 11 0 20 5 20 10 0 6 9 10 20 10 13 0 20 -7 20 -20 0 -17 7 -20 40 -20 22 0 40 -4 40 -10 0 -5 9 -10 20 -10 11 0 20 -4 20 -10 0 -5 9 -10 20 -10 11 0 20 -4 20 -10 0 -5 16 -10 36 -10 27 0 43 -7 64 -30 15 -16 35 -30 44 -30 9 0 16 -4 16 -10 0 -5 14 -10 30 -10 17 0 30 5 30 10 0 6 18 10 40 10 22 0 40 -4 40 -10 0 -5 8 -10 18 -10 10 0 24 -9 32 -20 11 -15 26 -20 62 -20 26 0 48 5 48 10 0 6 14 10 30 10 17 0 30 5 30 10 0 6 -8 10 -18 10 -10 0 -24 9 -32 20 -17 24 -30 26 -30 4 0 -18 -24 -44 -40 -44 -7 0 -25 14 -40 30 -15 17 -35 30 -44 30 -9 0 -16 5 -16 10 0 6 -8 10 -18 10 -10 0 -24 9 -32 20 -8 11 -21 20 -28 20 -8 0 -27 14 -42 30 -34 37 -87 41 -110 10 -15 -21 -70 -28 -70 -10 0 6 -9 10 -20 10 -11 0 -20 5 -20 10 0 6 -9 10 -20 10 -11 0 -20 5 -20 10 0 6 -9 10 -20 10 -11 0 -20 5 -20 10 0 6 -13 10 -30 10 -16 0 -30 5 -30 10 0 6 -9 10 -20 10 -11 0 -20 5 -20 10 0 6 -22 10 -48 10 -36 0 -51 5 -62 20 -8 11 -21 20 -30 20 -9 0 -22 9 -30 20 -10 14 -26 20 -50 20 -24 0 -40 6 -50 20 -13 18 -50 29 -50 15z" fill="#000000" id="000000-000080"/>
    <path stroke="none" d="M12780 714 c0 -3 6 -12 14 -20 17 -16 106 -20 106 -4 0 6 -18 10 -40 10 -22 0 -40 5 -40 10 0 6 -9 10 -20 10 -11 0 -20 -3 -20 -6z" fill="#000000" id="000000-000089"/>
    <path stroke="none" d="M12940 670 c0 -5 -22 -10 -50 -10 -27 0 -50 -4 -50 -10 0 -5 -9 -10 -20 -10 -13 0 -20 -7 -20 -20 0 -16 -7 -20 -30 -20 -16 0 -30 -4 -30 -10 0 -6 30 -10 70 -10 40 0 70 -4 70 -10 0 -5 18 -10 40 -10 22 0 40 5 40 10 0 6 16 10 36 10 38 0 64 18 64 44 0 9 8 16 20 16 11 0 20 5 20 10 0 6 -18 10 -40 10 -22 0 -40 5 -40 10 0 6 -18 10 -40 10 -22 0 -40 -4 -40 -10z" fill="#000000" id="000000-000093"/>
    <path stroke="none" d="M13340 560 c0 -13 7 -20 20 -20 13 0 20 7 20 20 0 13 -7 20 -20 20 -13 0 -20 -7 -20 -20z" fill="#000000" id="000000-000099"/>
    <path stroke="none" d="M13560 530 c0 -6 -40 -10 -100 -10 -60 0 -100 -4 -100 -10 0 -5 9 -10 20 -10 11 0 20 -4 20 -10 0 -5 18 -10 40 -10 29 0 40 -4 40 -15 0 -20 45 -65 65 -65 10 0 15 10 15 30 0 17 5 30 10 30 6 0 10 -18 10 -40 0 -38 2 -40 30 -40 17 0 30 -4 30 -10 0 -5 -4 -10 -10 -10 -5 0 -10 -9 -10 -20 0 -13 7 -20 20 -20 13 0 20 -7 20 -20 0 -16 7 -20 30 -20 17 0 30 -4 30 -10 0 -5 9 -10 20 -10 13 0 20 -7 20 -20 0 -17 7 -20 40 -20 22 0 40 5 40 10 0 6 9 10 20 10 11 0 20 5 20 10 0 6 14 10 30 10 34 0 37 5 16 26 -18 17 -43 18 -49 2 -2 -8 -15 -1 -34 20 -17 17 -38 32 -47 32 -9 0 -16 7 -16 16 0 26 -26 44 -64 44 -35 0 -36 1 -36 40 0 22 5 40 10 40 6 0 10 5 10 10 0 6 -27 10 -60 10 -53 0 -60 2 -60 20 0 11 -4 20 -10 20 -5 0 -10 -4 -10 -10z" fill="#000000" id="000000-000102"/>
    <path stroke="none" d="M15120 410 c0 -6 -27 -10 -60 -10 -33 0 -60 -4 -60 -10 0 -6 30 -10 70 -10 63 0 70 2 70 20 0 11 -4 20 -10 20 -5 0 -10 -4 -10 -10z" fill="#000000" id="000000-000111"/>
    <path stroke="none" d="M14760 330 c0 -5 5 -10 10 -10 6 0 10 5 10 10 0 6 -4 10 -10 10 -5 0 -10 -4 -10 -10z" fill="#000000" id="000000-000116"/>
    <path stroke="none" d="M15020 330 c0 -5 -18 -10 -40 -10 -33 0 -40 -3 -40 -20 0 -16 7 -20 36 -20 19 0 42 6 50 14 16 17 19 46 4 46 -5 0 -10 -4 -10 -10z" fill="#000000" id="000000-000114"/>
    <path stroke="none" d="M14520 270 c0 -6 -35 -10 -86 -10 -83 0 -87 -1 -114 -30 -23 -25 -36 -30 -74 -30 -25 0 -46 5 -46 10 0 6 -9 10 -20 10 -11 0 -20 5 -20 10 0 6 -18 10 -40 10 -22 0 -40 5 -40 10 0 15 -29 12 -46 -4 -8 -8 -14 -26 -14 -40 0 -14 -4 -26 -10 -26 -5 0 -10 7 -10 16 0 15 -23 44 -34 44 -12 0 -5 -52 8 -66 17 -16 66 -19 66 -4 0 6 9 10 20 10 13 0 20 7 20 20 0 13 7 20 20 20 13 0 20 -7 20 -20 0 -13 7 -20 18 -20 10 0 24 -9 32 -20 11 -15 26 -20 62 -20 26 0 48 5 48 10 0 6 43 10 110 10 67 0 110 4 110 10 0 6 27 10 60 10 l60 0 0 40 c0 33 -3 40 -20 40 -11 0 -20 5 -20 10 0 6 -13 10 -30 10 -16 0 -30 -4 -30 -10z" fill="#000000" id="000000-000118"/>
  </g>
</svg>
