<?xml version="1.0" standalone="no"?>
<!DOCTYPE svg PUBLIC "-//W3C//DTD SVG 1.1//EN"
 "http://www.w3.org/Graphics/SVG/1.1/DTD/svg11.dtd">
<!-- Created with svg_stack (http://github.com/astraw/svg_stack) -->
<svg xmlns:sodipodi="http://sodipodi.sourceforge.net/DTD/sodipodi-0.dtd" xmlns="http://www.w3.org/2000/svg" version="1.1" width="1504.0" height="1504.0">
  <defs/>
  <g id="id0:id0" transform="matrix(1.25,0,0,1.25,0.0,0.0)"><g transform="translate(0.000000,1203.200000) scale(0.040000,-0.040000)" fill="#000000" stroke="none">
<path d="M14670 28614 c-189 -17 -323 -45 -495 -101 -262 -85 -443 -199 -592 -372 -150 -175 -228 -353 -290 -656 l-18 -90 0 -2300 0 -2300 23 -110 c67 -321 175 -533 364 -712 225 -212 504 -326 943 -385 66 -8 203 -13 405 -12 265 0 322 3 438 22 231 38 386 84 548 162 135 65 222 125 322 224 207 202 323 451 367 788 18 137 20 475 3 513 l-11 25 -553 0 -553 0 -15 -22 c-13 -18 -16 -51 -16 -153 0 -174 -13 -254 -52 -327 -60 -113 -134 -167 -285 -210 -64 -17 -104 -22 -218 -21 -203 0 -325 36 -422 126 -52 48 -88 106 -111 179 -15 48 -17 240 -20 2163 -2 1348 1 2140 7 2192 17 141 88 252 198 311 101 53 190 72 343 72 203 0 312 -32 417 -119 108 -90 143 -196 143 -439 1 -98 4 -142 14 -155 12 -16 49 -17 577 -15 l564 3 3 195 c5 283 -11 405 -78 630 -138 456 -496 744 -1070 860 -226 46 -597 60 -880 34z"/>
<path d="M2082 28518 c-9 -9 -12 -709 -12 -3419 0 -2920 2 -3408 14 -3418 11 -9 265 -11 1033 -8 1117 4 1094 3 1344 67 294 75 493 179 666 349 179 175 282 381 345 686 l23 110 0 705 0 705 -23 78 c-45 158 -129 294 -254 412 -113 108 -297 222 -451 280 -26 10 -50 22 -53 26 -5 9 98 59 120 59 21 0 231 112 281 149 212 160 319 326 370 579 15 74 16 156 12 770 l-4 687 -21 99 c-61 282 -161 483 -329 657 -217 225 -495 348 -938 416 -96 14 -239 17 -1110 20 -790 3 -1003 1 -1013 -9z m1899 -1013 c108 -23 181 -60 237 -119 61 -64 78 -96 103 -193 18 -71 19 -114 19 -632 -1 -418 -4 -571 -14 -616 -36 -166 -134 -267 -308 -316 l-83 -24 -350 0 -350 0 -3 944 c-1 689 1 947 9 957 17 21 640 20 740 -1z m63 -2943 c84 -31 136 -64 183 -115 52 -56 67 -86 93 -178 l20 -74 0 -545 c0 -307 -5 -575 -10 -614 -7 -45 -23 -92 -46 -137 -57 -108 -133 -164 -275 -202 -79 -21 -104 -22 -429 -22 l-345 0 -3 945 c-1 520 0 951 3 958 4 11 75 13 377 10 l373 -4 59 -22z"/>
<path d="M6042 28518 c-17 -17 -17 -6819 0 -6836 9 -9 336 -12 1413 -12 770 0 1410 3 1423 6 l22 6 0 483 c0 392 -3 485 -13 494 -10 8 -253 12 -853 13 l-839 3 -3 2919 c-2 2321 -5 2921 -15 2928 -6 4 -262 8 -567 8 -419 0 -559 -3 -568 -12z"/>
<path d="M10058 28518 c-10 -9 -19 -46 -26 -113 -11 -90 -38 -298 -62 -475 -9 -63 -18 -132 -62 -460 -11 -85 -24 -184 -28 -220 -12 -105 -49 -377 -65 -485 -15 -97 -89 -664 -105 -795 -4 -36 -22 -168 -40 -295 -17 -126 -35 -264 -40 -305 -10 -86 -84 -651 -100 -755 -16 -108 -109 -812 -130 -990 -6 -44 -15 -111 -20 -150 -25 -172 -31 -219 -50 -365 -11 -85 -24 -186 -30 -225 -32 -227 -90 -673 -100 -765 -4 -41 -11 -86 -14 -100 -3 -14 -15 -95 -25 -180 -15 -117 -17 -156 -8 -162 15 -10 1128 -10 1143 0 6 4 14 30 17 57 6 46 23 162 47 310 5 33 23 148 40 255 17 107 35 222 40 255 20 138 41 274 50 330 5 33 14 90 19 126 6 37 15 78 21 93 l10 26 492 -2 492 -3 12 -65 c7 -36 15 -97 19 -135 3 -39 11 -83 15 -100 5 -16 16 -77 24 -135 20 -136 42 -280 62 -405 8 -55 19 -125 24 -155 40 -276 63 -409 73 -430 l12 -25 562 0 c421 0 565 3 574 12 9 9 8 38 -5 125 -14 98 -59 439 -86 653 -5 39 -23 174 -40 300 -41 309 -54 406 -84 635 -14 107 -35 263 -46 345 -11 83 -36 267 -55 410 -19 143 -43 328 -54 410 -11 83 -32 240 -47 350 -15 110 -30 229 -34 265 -5 36 -22 169 -40 295 -31 229 -67 504 -154 1170 -25 193 -50 377 -56 410 -5 33 -23 168 -40 300 -16 132 -34 269 -40 305 -16 109 -29 208 -50 375 -11 88 -25 189 -31 225 -5 36 -14 104 -18 152 -5 49 -14 95 -21 103 -11 13 -130 15 -969 15 -751 0 -960 -3 -973 -12z m996 -1383 c9 -71 21 -170 26 -220 9 -84 31 -268 80 -675 11 -91 27 -230 35 -310 8 -80 17 -156 20 -170 3 -14 21 -164 40 -335 19 -170 42 -364 50 -430 23 -183 44 -357 60 -495 7 -69 19 -170 26 -226 7 -55 9 -108 6 -117 -6 -15 -41 -17 -371 -17 -242 0 -367 4 -371 10 -4 6 0 70 9 143 9 73 34 285 56 472 57 484 57 480 94 800 19 160 56 468 81 685 26 217 60 503 77 635 16 132 32 269 35 305 10 136 25 118 47 -55z"/>
<path d="M17242 28518 c-17 -17 -17 -6819 0 -6836 9 -9 148 -12 564 -12 304 0 559 3 568 6 15 6 16 137 16 1389 0 871 4 1386 10 1390 16 10 26 -17 198 -485 44 -118 107 -291 142 -385 34 -93 102 -278 150 -410 48 -132 114 -310 146 -395 31 -85 76 -207 99 -270 23 -63 58 -158 78 -210 51 -134 143 -387 184 -505 19 -55 42 -106 51 -112 20 -16 1178 -19 1202 -3 13 8 13 14 2 42 -24 60 -216 587 -326 898 -112 315 -246 688 -281 785 -20 55 -60 168 -90 250 -29 83 -97 272 -150 420 -89 246 -195 543 -319 891 l-47 131 30 84 c29 83 180 505 291 814 31 88 97 270 145 405 48 135 104 292 125 350 21 58 61 170 90 250 28 80 58 163 67 185 20 51 104 288 153 430 21 61 52 146 68 190 49 133 120 328 133 365 39 113 74 213 96 269 18 49 21 66 12 77 -10 12 -108 14 -600 14 -521 0 -589 -2 -603 -16 -9 -8 -16 -16 -16 -17 0 -6 -105 -301 -145 -407 -90 -239 -144 -386 -183 -495 -22 -60 -54 -148 -72 -195 -18 -47 -54 -146 -81 -220 -26 -74 -80 -220 -119 -325 -39 -104 -82 -219 -95 -255 -31 -86 -84 -232 -128 -350 -19 -52 -62 -169 -95 -260 -78 -213 -100 -263 -112 -255 -7 4 -10 472 -10 1395 0 1256 -1 1388 -16 1394 -9 3 -264 6 -568 6 -416 0 -555 -3 -564 -12z"/>
<path d="M2042 19318 c-17 -17 -17 -8379 0 -8396 18 -18 16218 -18 16236 0 17 17 17 8379 0 8396 -18 18 -16218 18 -16236 0z m2178 -3498 l5 -2925 780 -5 780 -5 0 -475 0 -475 -1295 0 -1295 0 -3 3395 c-1 1867 0 3401 3 3408 3 10 111 12 512 10 l508 -3 5 -2925z m3115 -480 l0 -3405 -510 0 -510 0 -3 3395 c-1 1867 0 3401 3 3408 3 10 111 12 512 10 l508 -3 0 -3405z m1339 3402 c5 -8 34 -232 61 -472 9 -80 27 -235 41 -345 13 -110 35 -301 49 -425 14 -124 32 -279 40 -345 29 -231 68 -565 115 -980 11 -99 27 -229 35 -290 8 -60 17 -135 20 -165 5 -49 23 -208 54 -480 6 -47 15 -125 21 -175 5 -49 19 -162 29 -250 11 -88 27 -221 35 -295 18 -159 60 -515 81 -685 8 -66 17 -147 20 -180 3 -33 14 -125 25 -205 10 -80 23 -197 30 -260 13 -134 17 -150 35 -150 19 0 25 23 25 94 0 34 4 87 10 117 5 30 21 155 35 279 14 124 41 358 60 520 19 162 48 412 65 555 16 143 34 296 40 340 5 44 23 195 40 335 16 140 48 410 70 600 23 190 47 401 55 470 13 115 83 719 106 905 5 44 14 121 19 170 5 50 21 185 35 300 14 116 32 271 40 345 9 74 27 227 40 340 14 113 28 230 31 260 4 30 11 61 16 68 8 9 123 12 515 12 440 0 504 -2 509 -15 5 -13 -21 -250 -67 -605 -18 -148 -41 -326 -45 -370 -3 -25 -32 -261 -64 -525 -78 -630 -106 -865 -130 -1065 -11 -91 -26 -217 -35 -280 -17 -135 -37 -296 -70 -580 -14 -113 -34 -275 -45 -360 -11 -85 -36 -285 -55 -445 -19 -159 -44 -364 -55 -455 -11 -91 -25 -201 -30 -245 -14 -116 -113 -922 -165 -1340 -24 -198 -47 -389 -51 -425 -4 -36 -11 -75 -15 -88 l-9 -22 -882 2 -882 3 -11 85 c-7 47 -17 128 -24 180 -6 52 -16 129 -21 170 -6 41 -17 134 -25 205 -8 72 -51 422 -95 778 -44 357 -85 690 -90 740 -6 51 -17 142 -25 202 -8 61 -20 151 -25 200 -5 50 -28 236 -50 415 -84 676 -121 979 -135 1105 -8 72 -21 180 -29 240 -18 135 -28 212 -66 525 -76 633 -152 1250 -170 1395 -51 400 -69 558 -64 566 6 11 1021 12 1028 1z m5231 -477 l0 -480 -770 -2 c-710 -3 -771 -4 -782 -20 -10 -13 -13 -222 -13 -963 0 -741 3 -950 13 -963 11 -16 64 -17 652 -19 l640 -3 0 -480 0 -480 -650 -5 c-357 -3 -651 -6 -652 -8 -2 -1 -3 -433 -3 -960 0 -751 3 -962 13 -975 11 -16 72 -17 782 -20 l770 -2 0 -475 0 -475 -1295 0 -1295 0 -3 3395 c-1 1867 0 3401 3 3408 3 10 268 12 1297 10 l1293 -3 0 -480z m2366 475 c250 -25 437 -74 614 -161 471 -229 689 -681 673 -1389 l-3 -135 -515 0 -515 0 -6 180 c-9 241 -33 320 -129 415 -89 90 -211 130 -397 130 -131 0 -193 -11 -283 -52 -114 -51 -189 -143 -226 -275 -22 -79 -31 -489 -14 -634 33 -290 165 -525 460 -819 173 -173 303 -279 545 -440 210 -141 321 -227 451 -352 276 -265 438 -516 543 -839 72 -224 91 -388 91 -794 -1 -427 -18 -587 -89 -797 -110 -326 -282 -528 -571 -673 -242 -121 -451 -164 -832 -172 -240 -5 -408 4 -543 29 -357 65 -639 217 -813 436 -70 89 -143 220 -179 320 -81 231 -106 407 -101 707 l3 190 510 0 510 0 6 -155 c8 -188 19 -252 59 -334 66 -139 206 -216 421 -232 244 -18 451 75 522 234 52 116 57 154 57 454 0 242 -3 291 -20 372 -52 238 -178 451 -405 685 -177 182 -327 304 -600 487 -373 251 -577 446 -768 734 -165 249 -257 509 -287 811 -18 174 -8 887 14 998 61 317 180 552 365 723 192 178 498 304 821 338 63 6 124 13 135 14 55 8 406 5 496 -4z"/>
<path d="M2082 8518 c-17 -17 -17 -6819 0 -6836 9 -9 149 -12 568 -12 305 0 561 4 567 8 10 7 13 461 15 2198 2 1451 6 2189 13 2189 6 0 14 -18 18 -40 5 -22 17 -78 27 -125 28 -127 55 -253 100 -475 71 -346 98 -476 125 -600 14 -66 30 -145 35 -175 5 -30 19 -95 30 -145 11 -49 34 -157 51 -240 31 -157 64 -314 104 -500 13 -60 33 -157 44 -215 12 -58 28 -139 37 -180 9 -41 24 -115 35 -165 10 -49 31 -153 48 -230 16 -77 37 -176 46 -220 9 -44 24 -120 35 -170 10 -49 44 -214 75 -365 31 -151 68 -321 81 -378 13 -57 24 -114 24 -127 0 -14 9 -29 19 -35 13 -6 213 -10 580 -10 l560 0 15 22 c9 12 16 35 16 50 0 15 17 103 39 195 21 93 42 186 46 208 3 22 19 96 35 165 26 113 73 322 115 520 9 41 27 122 40 180 65 287 142 638 186 845 16 77 40 187 54 245 13 58 41 182 61 275 20 94 47 217 61 275 13 58 35 157 48 220 25 119 80 371 115 520 18 78 51 228 117 535 14 66 27 126 29 133 21 75 24 -160 24 -2188 0 -1986 1 -2188 16 -2194 9 -3 266 -6 573 -6 420 0 560 3 569 12 17 17 17 6819 0 6836 -18 18 -1701 17 -1716 0 -6 -7 -22 -69 -36 -138 -14 -69 -44 -208 -66 -310 -22 -102 -49 -225 -60 -275 -11 -49 -29 -133 -41 -185 -34 -158 -56 -257 -92 -430 -20 -91 -42 -194 -51 -230 -8 -36 -33 -150 -56 -255 -22 -104 -52 -239 -65 -300 -26 -117 -101 -460 -160 -735 -20 -91 -54 -248 -76 -350 -23 -102 -49 -223 -58 -270 -10 -47 -30 -137 -44 -200 -15 -63 -49 -221 -77 -350 -28 -129 -57 -264 -65 -300 -8 -36 -23 -101 -33 -145 -24 -108 -39 -106 -64 10 -10 50 -23 117 -29 150 -5 33 -14 73 -19 89 -6 16 -15 59 -20 95 -6 36 -19 102 -29 146 -11 44 -24 107 -30 140 -21 109 -101 498 -120 585 -10 47 -24 112 -30 145 -7 33 -23 112 -37 175 -13 63 -33 160 -44 215 -11 55 -37 186 -59 290 -21 105 -60 294 -85 420 -26 127 -55 271 -66 320 -11 50 -29 135 -40 190 -11 55 -29 141 -40 190 -11 50 -35 169 -55 265 -19 96 -50 249 -69 340 -37 175 -42 202 -77 375 -12 61 -30 146 -40 190 -11 44 -19 91 -19 105 0 15 -5 31 -12 38 -17 17 -1699 17 -1716 0z"/>
<path d="M8661 8521 c-9 -6 -19 -47 -28 -113 -36 -278 -54 -415 -87 -663 -20 -148 -43 -324 -52 -390 -8 -66 -24 -181 -34 -255 -10 -74 -24 -175 -30 -225 -5 -49 -15 -119 -20 -155 -17 -117 -40 -281 -70 -515 -16 -126 -50 -383 -75 -570 -25 -187 -59 -443 -75 -570 -16 -126 -34 -261 -40 -300 -17 -117 -38 -273 -55 -410 -9 -71 -23 -175 -31 -230 -8 -55 -30 -221 -49 -370 -18 -148 -40 -317 -49 -375 -8 -58 -22 -161 -31 -230 -9 -69 -23 -172 -31 -230 -8 -58 -30 -226 -49 -375 -19 -148 -42 -322 -51 -385 -58 -429 -63 -475 -51 -482 15 -10 1128 -10 1143 0 6 4 14 30 17 57 4 28 11 79 17 115 22 131 67 430 80 523 5 38 16 107 25 155 8 48 26 164 40 257 35 230 43 275 53 310 l8 30 484 3 c310 1 487 -1 495 -8 12 -10 27 -82 45 -228 6 -46 15 -94 19 -105 5 -12 11 -53 15 -92 4 -38 11 -92 16 -120 5 -27 16 -97 25 -155 20 -136 43 -281 55 -350 5 -30 19 -120 30 -200 12 -80 27 -156 33 -170 l12 -25 562 0 c408 0 565 3 573 11 9 9 5 61 -15 210 -36 272 -63 478 -80 609 -7 61 -25 193 -39 295 -14 102 -35 255 -46 340 -11 85 -29 225 -41 310 -29 227 -43 328 -94 705 -54 405 -112 842 -165 1245 -21 162 -50 381 -64 485 -14 105 -39 294 -56 420 -17 127 -42 316 -55 420 -14 105 -27 199 -29 210 -3 11 -19 128 -35 260 -17 132 -43 326 -57 430 -72 544 -89 672 -104 798 -5 43 -14 85 -21 93 -10 12 -152 14 -968 14 -545 0 -962 -4 -970 -9z m994 -1391 c9 -74 21 -171 25 -215 9 -90 49 -425 80 -675 12 -91 25 -210 31 -265 5 -55 18 -167 28 -250 20 -153 39 -312 67 -555 8 -74 24 -209 35 -300 11 -91 26 -221 34 -290 7 -69 21 -188 31 -265 10 -77 15 -148 11 -158 -6 -16 -35 -17 -371 -17 -239 0 -367 4 -371 10 -4 6 0 68 9 138 14 113 45 380 146 1242 17 140 35 291 40 335 15 119 60 508 71 605 5 47 20 177 34 290 14 113 33 270 42 350 8 80 17 151 20 159 9 33 21 -12 38 -139z"/>
<path d="M11842 8518 c-9 -9 -12 -130 -12 -482 0 -259 3 -481 6 -493 l6 -23 502 -2 501 -3 3 -2914 c2 -2317 5 -2916 15 -2923 6 -4 262 -8 568 -8 455 0 559 2 568 14 8 9 12 792 13 2922 l3 2909 510 5 510 5 3 494 c2 389 0 496 -10 503 -7 4 -724 8 -1593 8 -1217 0 -1584 -3 -1593 -12z"/>
<path d="M15602 8518 c-9 -9 -12 -130 -12 -482 0 -259 3 -481 6 -493 l6 -23 502 -2 501 -3 3 -2914 c2 -2317 5 -2916 15 -2923 6 -4 262 -8 568 -8 455 0 559 2 568 14 8 9 12 792 13 2922 l3 2909 510 5 510 5 3 494 c2 389 0 496 -10 503 -7 4 -724 8 -1593 8 -1217 0 -1584 -3 -1593 -12z"/>
<path d="M19362 8518 c-17 -17 -17 -6819 0 -6836 9 -9 338 -12 1419 -12 774 0 1414 3 1423 6 14 5 16 57 16 481 0 308 -4 481 -10 494 l-11 19 -833 0 c-655 0 -836 3 -843 12 -5 8 -9 402 -8 958 l0 945 694 3 c493 1 698 5 708 13 10 9 13 102 13 493 0 264 -4 487 -8 493 -6 10 -163 13 -708 15 l-699 3 0 955 0 955 850 5 850 5 3 494 c2 389 0 496 -10 503 -7 4 -648 8 -1423 8 -1084 0 -1414 -3 -1423 -12z"/>
<path d="M22762 8518 c-17 -17 -18 -6818 0 -6836 9 -9 149 -12 568 -12 305 0 561 4 567 8 10 6 13 289 15 1338 l3 1329 330 3 c303 2 337 1 421 -18 167 -38 272 -124 323 -263 l26 -72 3 -1156 2 -1157 23 -6 c34 -9 1110 -7 1125 2 10 7 12 240 10 1193 l-3 1184 -32 96 c-38 117 -65 172 -132 266 -102 145 -322 307 -521 383 -48 18 -93 51 -83 60 4 4 35 17 68 30 196 76 347 172 466 298 100 105 161 212 205 362 l28 95 4 760 c2 518 0 797 -8 875 -34 342 -145 600 -349 813 -214 223 -495 346 -941 415 -90 13 -250 16 -1105 19 -790 3 -1003 1 -1013 -9z m1900 -1013 c40 -9 96 -27 125 -40 72 -33 156 -114 183 -177 48 -112 50 -139 50 -851 0 -723 -2 -751 -55 -857 -51 -100 -190 -187 -335 -210 -49 -7 -188 -10 -395 -8 l-320 3 -3 1065 c-1 586 0 1071 3 1078 7 20 650 17 747 -3z"/>
</g>
</g>
  <g id="id1:id1" transform="matrix(1.25,0,0,1.25,0.0,0.0)"><g transform="translate(0.000000,1203.200000) scale(0.040000,-0.040000)" fill="#faeb5e" stroke="none">
<path d="M0 15040 l0 -15040 15040 0 15040 0 0 15040 0 15040 -15040 0 -15040 0 0 -15040z m15236 13560 c488 -39 810 -157 1071 -394 105 -95 215 -266 273 -423 79 -216 103 -385 98 -678 l-3 -190 -555 0 -555 0 -6 175 c-9 236 -28 298 -123 398 -96 102 -243 152 -449 152 -340 0 -535 -141 -567 -411 -7 -55 -10 -807 -8 -2184 4 -2266 0 -2117 52 -2240 22 -52 119 -150 178 -181 153 -78 425 -91 610 -28 135 46 201 102 258 219 36 74 50 161 50 326 0 96 3 129 14 138 19 16 1073 16 1093 0 17 -14 18 -358 2 -493 -48 -404 -226 -722 -509 -913 -146 -98 -296 -162 -498 -212 -233 -58 -317 -66 -667 -66 -280 1 -339 3 -473 23 -293 44 -535 131 -718 260 -258 182 -401 413 -482 777 l-27 120 0 2305 c0 2448 -2 2333 46 2540 101 428 389 733 824 872 170 54 317 85 465 98 74 6 144 13 155 14 52 8 336 5 451 -4z m-11026 -113 c179 -28 255 -45 382 -87 485 -157 753 -458 860 -964 l22 -101 4 -685 c3 -492 1 -705 -8 -755 -39 -237 -157 -429 -354 -574 -82 -61 -248 -144 -353 -177 -55 -17 -93 -34 -93 -42 0 -7 26 -24 58 -38 437 -190 638 -384 729 -704 17 -60 18 -116 18 -775 l0 -710 -23 -110 c-94 -442 -302 -721 -672 -897 -107 -51 -165 -71 -312 -108 -259 -66 -239 -65 -1358 -65 l-1015 0 -3 3395 c-1 1867 0 3401 3 3408 4 11 192 12 1007 9 867 -3 1017 -6 1108 -20z m2958 -2896 c1 -2127 5 -2918 13 -2927 9 -11 163 -14 853 -16 l841 -3 0 -475 0 -475 -1410 0 -1410 0 -3 3395 c-1 1867 0 3401 3 3408 3 10 120 12 557 10 l553 -3 3 -2914z m4821 2897 c5 -13 14 -66 19 -118 6 -52 24 -198 42 -325 35 -264 36 -266 84 -640 20 -154 38 -289 40 -300 3 -11 21 -144 41 -295 19 -151 39 -304 45 -340 5 -36 23 -171 39 -300 17 -129 37 -287 46 -350 37 -273 77 -570 85 -635 4 -38 18 -140 29 -225 12 -85 30 -225 41 -310 11 -85 25 -186 31 -225 12 -89 114 -851 139 -1050 11 -82 40 -303 65 -490 25 -187 61 -461 81 -610 19 -148 40 -300 45 -337 5 -38 13 -100 18 -139 5 -39 12 -73 15 -76 3 -4 1 -12 -5 -20 -9 -11 -113 -13 -560 -13 l-548 0 -11 20 c-6 12 -20 80 -30 153 -11 73 -24 159 -30 192 -5 33 -21 134 -35 225 -14 91 -32 206 -40 255 -31 194 -47 294 -60 390 -25 175 -32 207 -46 216 -8 5 -235 9 -505 9 -382 0 -494 -3 -501 -12 -12 -15 -34 -128 -63 -323 -6 -38 -20 -128 -30 -200 -11 -71 -27 -179 -36 -240 -8 -60 -19 -132 -24 -160 -6 -27 -16 -93 -24 -145 -39 -253 -58 -366 -65 -373 -4 -4 -254 -6 -557 -5 l-549 3 -3 39 c-3 33 25 259 58 476 5 36 15 106 20 155 6 50 20 155 31 235 11 80 24 179 29 220 9 76 25 196 55 415 19 135 27 198 49 370 17 130 71 536 86 650 14 101 48 357 70 525 11 80 31 231 45 335 14 105 30 231 35 280 6 50 12 97 15 105 5 17 52 375 66 500 5 47 11 92 14 100 2 8 23 159 46 335 48 370 62 475 84 640 10 66 20 149 25 185 4 36 19 153 34 260 14 107 30 231 36 275 6 44 15 109 20 145 16 121 51 385 61 465 5 44 12 86 14 93 3 9 204 12 960 12 l955 0 9 -22z m6376 -1416 c0 -1671 -10 -1556 107 -1242 28 74 61 164 73 200 13 36 46 126 73 200 91 247 174 474 217 590 23 63 86 234 140 380 54 146 113 308 132 360 69 188 165 448 215 580 28 74 66 179 84 233 19 54 39 107 44 117 l11 20 580 0 c476 0 581 -2 585 -13 3 -8 -11 -61 -32 -118 -20 -57 -44 -129 -54 -159 -10 -30 -57 -161 -104 -290 -48 -129 -98 -269 -112 -310 -14 -41 -43 -122 -64 -180 -21 -58 -102 -280 -179 -495 -77 -214 -172 -480 -212 -590 -39 -110 -87 -244 -105 -298 -19 -54 -56 -157 -83 -230 -27 -73 -70 -193 -96 -267 -26 -74 -69 -193 -95 -265 -77 -212 -74 -192 -44 -271 14 -38 39 -105 54 -149 100 -282 142 -400 170 -475 17 -47 60 -166 95 -265 35 -99 86 -243 115 -320 28 -77 71 -196 95 -265 24 -69 66 -186 93 -260 28 -74 75 -207 105 -295 30 -88 62 -178 72 -200 9 -22 23 -58 31 -80 30 -92 153 -437 214 -600 56 -151 141 -392 143 -405 2 -13 -70 -15 -586 -18 l-587 -2 -15 32 c-14 33 -108 286 -183 493 -21 61 -58 162 -82 225 -43 118 -115 312 -245 665 -41 110 -104 281 -140 380 -37 99 -87 236 -112 305 -25 69 -60 166 -79 215 -18 50 -46 126 -62 170 -77 213 -135 361 -144 373 -6 6 -16 12 -22 12 -8 0 -11 -376 -11 -1432 l0 -1433 -555 0 -555 0 -3 3395 c-1 1867 0 3401 3 3408 3 10 120 12 557 10 l553 -3 0 -1433z m-100 -11952 l0 -4185 -8105 0 -8105 0 -3 4175 c-1 2296 0 4181 3 4188 3 10 1630 12 8107 10 l8103 -3 0 -4185z m-14470 -6670 c7 -30 26 -127 44 -215 18 -88 43 -209 56 -270 13 -60 52 -245 85 -410 34 -165 75 -363 91 -440 16 -77 34 -162 39 -190 5 -27 23 -115 40 -195 17 -80 40 -192 50 -248 11 -57 24 -120 29 -140 6 -21 28 -127 50 -237 22 -110 63 -310 91 -445 28 -135 57 -276 64 -315 17 -85 118 -576 171 -830 14 -66 34 -163 45 -215 11 -52 29 -138 40 -190 12 -52 24 -125 27 -162 4 -49 10 -68 20 -68 21 0 41 58 73 204 16 72 54 248 84 391 31 143 72 330 91 415 19 85 50 229 70 320 19 91 44 203 55 250 11 47 36 162 55 255 38 180 109 507 150 690 26 117 96 438 146 670 16 77 39 178 49 225 11 47 36 159 55 250 64 296 96 443 120 555 13 61 38 172 54 249 16 76 33 142 38 147 5 5 364 8 849 7 l839 -3 0 -3405 0 -3405 -560 0 -560 0 -3 2235 c-1 1400 1 2245 7 2263 8 21 7 27 -5 27 -8 0 -17 -8 -20 -17 -3 -10 -12 -33 -20 -51 -8 -19 -28 -100 -45 -180 -17 -81 -45 -214 -64 -297 -57 -251 -167 -747 -176 -795 -5 -25 -22 -103 -39 -175 -16 -71 -48 -215 -70 -320 -40 -184 -83 -380 -156 -705 -19 -85 -43 -195 -53 -245 -24 -110 -92 -418 -121 -540 -11 -49 -25 -113 -30 -142 -5 -28 -16 -80 -24 -115 -16 -66 -57 -249 -105 -478 -16 -74 -43 -195 -60 -268 -17 -73 -31 -144 -31 -156 0 -13 -6 -29 -14 -35 -9 -8 -168 -10 -571 -9 l-558 3 -13 55 c-19 79 -159 744 -188 895 -9 44 -23 109 -31 145 -14 60 -36 169 -85 410 -11 52 -31 149 -45 215 -14 66 -34 167 -45 225 -11 58 -23 112 -26 120 -3 8 -14 58 -24 110 -17 86 -65 316 -120 575 -11 55 -27 134 -35 175 -8 41 -26 129 -40 195 -14 66 -39 183 -55 260 -16 77 -52 250 -80 385 -28 135 -58 281 -66 324 -8 44 -18 96 -24 115 -5 20 -19 81 -30 136 -22 110 -50 197 -65 202 -7 2 -10 -790 -10 -2269 l0 -2273 -555 0 -555 0 -3 3395 c-1 1867 0 3401 3 3408 3 10 178 12 846 10 l842 -3 12 -55z m6792 48 c4 -7 11 -42 14 -78 4 -36 23 -184 43 -330 19 -146 53 -404 76 -575 22 -170 49 -373 60 -450 11 -77 31 -230 45 -339 14 -109 27 -208 30 -220 3 -12 23 -163 45 -336 22 -173 63 -484 90 -690 28 -206 64 -478 80 -605 17 -126 39 -293 50 -370 11 -77 27 -196 36 -265 8 -69 24 -188 35 -265 10 -77 28 -207 39 -290 20 -153 28 -218 75 -570 27 -201 33 -248 99 -755 20 -151 40 -300 46 -330 18 -106 41 -321 35 -330 -4 -6 -217 -10 -555 -10 l-549 0 -11 21 c-10 17 -33 157 -70 409 -13 88 -58 379 -70 445 -5 33 -15 98 -20 143 -6 46 -15 94 -19 105 -5 12 -11 55 -15 96 -12 123 -33 214 -52 228 -26 19 -987 19 -1001 1 -13 -17 -35 -134 -79 -423 -14 -93 -30 -197 -35 -230 -5 -33 -13 -89 -19 -125 -5 -36 -16 -108 -25 -160 -8 -52 -22 -142 -30 -200 -9 -58 -23 -150 -33 -205 l-17 -100 -560 0 -560 0 3 40 c4 46 47 380 62 475 5 36 17 119 25 185 31 255 56 451 60 465 2 8 11 71 20 140 31 251 54 428 60 451 3 13 12 80 20 149 20 169 51 412 69 540 8 58 22 161 31 230 8 69 22 170 30 225 7 55 19 138 25 185 6 47 15 114 20 150 5 36 21 155 35 265 14 110 30 229 35 265 10 63 39 277 100 750 16 124 39 293 50 375 11 83 29 218 40 300 11 83 29 220 40 305 12 85 30 220 40 300 49 382 60 467 65 490 4 22 14 98 56 425 6 44 15 85 21 92 15 19 1903 19 1915 1z m4428 -473 l0 -480 -507 -3 c-280 -1 -509 -3 -510 -5 -2 -1 -5 -1316 -8 -2922 l-5 -2920 -555 0 -555 0 -3 2910 c-1 2011 -5 2912 -13 2920 -6 6 -180 12 -507 15 l-497 5 -3 470 c-1 259 0 476 3 483 3 10 325 12 1582 10 l1578 -3 0 -480z m3760 0 l0 -480 -507 -3 c-280 -1 -509 -3 -510 -5 -2 -1 -5 -1316 -8 -2922 l-5 -2920 -555 0 -555 0 -3 2910 c-1 2011 -5 2912 -13 2920 -6 6 -180 12 -507 15 l-497 5 -3 470 c-1 259 0 476 3 483 3 10 325 12 1582 10 l1578 -3 0 -480z m3420 0 l0 -480 -839 -3 c-764 -2 -841 -4 -858 -19 l-18 -16 0 -947 c0 -869 1 -949 17 -961 13 -12 142 -15 712 -19 l696 -5 0 -480 0 -480 -700 -3 c-644 -2 -701 -3 -712 -19 -18 -23 -19 -1879 -1 -1917 l11 -26 846 -2 846 -3 0 -475 0 -475 -1410 0 -1410 0 -3 3395 c-1 1867 0 3401 3 3408 3 10 291 12 1412 10 l1408 -3 0 -480z m2690 463 c258 -41 452 -96 608 -174 383 -193 609 -544 658 -1024 6 -68 9 -376 7 -875 l-3 -770 -22 -80 c-72 -257 -236 -450 -498 -583 -88 -45 -201 -92 -221 -92 -7 0 -24 -4 -38 -10 -49 -18 -27 -34 186 -133 297 -139 473 -326 564 -597 l29 -85 0 -1185 0 -1185 -555 0 -555 0 -5 1140 c-5 1054 -6 1144 -23 1199 -26 87 -45 122 -98 180 -52 57 -136 105 -234 133 -50 14 -117 18 -404 21 -190 2 -355 1 -368 -3 l-23 -5 -2 -1333 -3 -1332 -555 0 -555 0 -3 3395 c-1 1867 0 3401 3 3408 8 21 1971 11 2110 -10z"/>
<path d="M3226 27525 c-15 -15 -16 -102 -16 -970 l0 -954 21 -11 c14 -8 123 -10 362 -8 313 4 349 6 421 26 135 37 229 107 284 211 59 110 62 145 62 744 0 506 -1 548 -20 625 -11 45 -28 99 -39 120 -28 55 -113 137 -173 166 -117 56 -144 60 -529 64 -319 3 -358 1 -373 -13z"/>
<path d="M3228 24603 c-17 -4 -18 -59 -18 -967 0 -735 3 -965 12 -974 16 -16 587 -17 691 -1 197 29 323 105 389 233 54 107 58 154 58 747 l0 540 -22 86 c-39 158 -138 262 -298 315 -61 21 -86 22 -430 24 -201 1 -373 0 -382 -3z"/>
<path d="M11000 27352 c0 -37 -14 -178 -30 -313 -17 -134 -35 -284 -40 -334 -15 -130 -69 -586 -81 -680 -5 -44 -32 -273 -60 -510 -27 -236 -65 -560 -84 -720 -19 -159 -37 -310 -40 -335 -3 -25 -12 -105 -21 -178 -9 -73 -13 -139 -10 -147 5 -13 60 -15 396 -15 l390 0 0 38 c0 33 -19 203 -65 582 -21 170 -69 575 -125 1065 -12 99 -30 252 -40 340 -11 88 -31 257 -45 375 -14 118 -30 249 -35 290 -6 41 -17 140 -25 220 -8 80 -20 172 -26 205 -6 33 -14 80 -19 105 -17 101 -40 108 -40 12z"/>
<path d="M3183 18763 c-10 -4 -13 -698 -13 -3424 l0 -3419 23 -5 c12 -3 605 -4 1317 -3 l1295 3 3 475 c1 261 0 485 -3 497 l-5 23 -778 2 -777 3 -3 2919 c-2 2321 -5 2921 -15 2928 -13 8 -1024 10 -1044 1z"/>
<path d="M6303 18763 c-10 -4 -13 -698 -13 -3423 0 -3107 1 -3418 16 -3424 20 -8 1018 -8 1038 0 15 6 16 317 16 3424 0 3107 -1 3418 -16 3424 -19 7 -1023 7 -1041 -1z"/>
<path d="M7633 18762 c-13 -8 -11 -26 57 -577 10 -88 26 -216 35 -285 8 -69 38 -309 65 -535 28 -225 62 -502 75 -615 30 -241 41 -336 55 -445 6 -44 17 -138 25 -210 8 -71 19 -164 25 -205 9 -64 40 -315 150 -1220 12 -91 30 -237 41 -325 11 -88 26 -216 34 -285 15 -135 24 -205 115 -940 33 -267 65 -528 71 -580 6 -52 19 -158 29 -235 11 -77 25 -194 31 -260 7 -66 18 -123 23 -127 6 -4 407 -8 892 -8 689 0 884 3 897 13 13 9 21 44 31 137 23 196 94 773 111 895 8 61 26 207 40 325 14 118 32 267 40 330 8 63 24 192 35 285 32 274 98 817 120 985 11 85 29 232 40 325 11 94 29 238 40 320 11 83 24 195 30 250 5 55 13 132 19 170 16 118 30 228 66 530 82 673 116 944 125 1010 6 39 17 129 25 200 20 183 43 378 54 460 6 39 25 189 42 334 l32 264 -18 14 c-15 10 -116 13 -525 13 -478 0 -508 -1 -523 -18 -10 -10 -17 -30 -17 -45 0 -14 -16 -158 -35 -319 -20 -161 -47 -390 -60 -508 -60 -516 -103 -876 -115 -975 -5 -44 -23 -197 -40 -340 -16 -143 -41 -357 -55 -475 -14 -118 -39 -332 -55 -475 -17 -143 -39 -334 -50 -425 -11 -91 -24 -203 -29 -250 -6 -47 -24 -200 -41 -340 -16 -140 -46 -392 -65 -560 -69 -598 -97 -825 -101 -839 -8 -26 -34 10 -34 48 0 20 -11 128 -25 241 -58 477 -92 762 -110 925 -7 72 -30 263 -49 425 -20 162 -52 435 -71 605 -20 171 -47 400 -60 510 -14 110 -31 263 -40 340 -17 153 -46 401 -110 935 -14 113 -34 288 -45 390 -11 102 -27 235 -35 295 -8 61 -21 173 -30 250 -14 133 -28 250 -56 485 -7 58 -17 108 -23 112 -15 10 -1038 10 -1053 0z"/>
<path d="M11303 18763 c-10 -4 -13 -698 -13 -3424 l0 -3419 23 -5 c12 -3 605 -4 1317 -3 l1295 3 3 475 c1 261 0 485 -3 497 l-5 23 -778 2 -777 3 0 955 0 955 650 5 c358 3 651 6 653 8 6 6 1 979 -6 989 -6 10 -152 13 -653 15 l-644 3 0 955 0 955 774 3 c605 2 777 5 783 15 9 14 11 958 2 981 -6 14 -130 16 -1308 15 -715 0 -1307 -3 -1313 -6z"/>
<path d="M15785 18764 c-11 -1 -72 -8 -135 -14 -368 -39 -680 -177 -887 -394 -175 -183 -273 -392 -330 -704 -21 -115 -31 -824 -13 -976 72 -637 390 -1106 1055 -1556 362 -245 612 -465 778 -685 77 -103 186 -314 218 -425 20 -68 23 -103 26 -391 5 -347 1 -383 -54 -495 -43 -89 -138 -158 -264 -195 -69 -20 -310 -17 -384 5 -137 41 -213 101 -263 208 -37 78 -43 119 -51 328 l-6 165 -524 3 c-413 2 -526 0 -533 -10 -14 -23 -9 -417 7 -536 45 -341 159 -595 356 -791 135 -136 270 -217 484 -289 223 -76 412 -102 742 -102 395 0 671 58 930 195 388 205 595 569 634 1115 23 315 1 837 -41 1004 -141 551 -448 951 -1027 1337 -633 422 -955 815 -1012 1232 -14 101 -14 477 0 586 19 153 84 259 196 319 89 47 160 62 295 62 224 0 355 -51 435 -169 66 -97 76 -138 81 -356 3 -128 8 -192 15 -197 14 -9 1028 -11 1051 -2 14 5 16 29 16 158 -1 539 -102 881 -340 1148 -115 129 -344 271 -537 332 -107 33 -311 74 -438 86 -89 8 -428 12 -480 4z"/>
<path d="M9596 7313 c-4 -60 -15 -180 -26 -268 -10 -88 -26 -221 -35 -295 -8 -74 -20 -171 -25 -215 -5 -44 -19 -159 -30 -255 -11 -96 -25 -211 -30 -255 -5 -44 -23 -197 -40 -340 -17 -143 -35 -298 -41 -345 -36 -303 -82 -687 -89 -755 -5 -44 -16 -143 -25 -220 -9 -77 -18 -162 -19 -190 l-1 -50 393 -3 392 -2 0 44 c0 24 -9 111 -20 192 -11 82 -24 194 -30 249 -5 55 -14 138 -20 185 -22 177 -71 592 -115 970 -14 118 -32 271 -40 340 -8 69 -28 240 -45 380 -16 140 -34 291 -40 335 -5 44 -19 159 -31 255 -26 223 -51 350 -69 350 -4 0 -10 -48 -14 -107z"/>
<path d="M23908 7530 c-17 -10 -18 -73 -18 -1090 l0 -1079 19 -11 c13 -6 141 -10 348 -10 292 0 337 2 411 20 103 25 171 59 234 118 66 62 93 111 118 212 l20 85 0 666 0 665 -21 85 c-12 46 -29 99 -38 116 -26 52 -119 140 -175 167 -115 56 -143 60 -526 63 -236 2 -361 0 -372 -7z"/>
</g>
</g>
</svg>
