<svg xmlns="http://www.w3.org/2000/svg" version="1.0" width="756.000000pt" height="848.000000pt" viewBox="0 0 756.000000 848.000000" preserveAspectRatio="xMidYMid meet">
  <g transform="translate(0.000000,848.000000) scale(0.100000,-0.100000)" stroke="none">
    <path stroke="none" d="M0 4240 l0 -4240 3780 0 3780 0 0 4240 0 4240 -3780 0 -3780 0 0 -4240z" fill="#040404" id="040404-000001"/>
    <path stroke="none" d="M761 7670 c3 -180 9 -293 16 -305 22 -40 50 -46 198 -43 l140 3 5 315 5 315 235 0 235 0 3 -876 2 -876 -25 -11 c-40 -18 -405 -16 -431 2 -18 14 -19 31 -22 379 -2 296 -5 367 -17 377 -10 8 -28 8 -73 -1 -49 -10 -68 -10 -101 1 -33 10 -48 11 -85 0 -78 -22 -75 -4 -82 -395 -4 -205 -11 -355 -17 -362 -7 -10 -63 -13 -217 -13 -198 0 -208 1 -226 21 -18 20 -19 50 -22 802 -2 756 -3 782 -22 802 -10 11 -36 29 -57 39 -21 11 -48 29 -60 40 -22 19 -30 55 -16 69 4 4 146 6 317 5 l311 -3 6 -285z" fill="#094e3b" id="094e3b-000001"/>
    <path stroke="none" d="M2268 7948 c9 -9 12 -217 12 -875 l0 -863 -22 -13 c-17 -11 -70 -15 -209 -16 -197 -2 -235 4 -245 43 -8 35 0 1710 9 1724 11 17 438 17 455 0z" fill="#094e3b" id="094e3b-000002"/>
    <path stroke="none" d="M3537 7939 c21 -12 62 -43 91 -70 30 -27 58 -49 63 -49 5 0 22 -19 39 -42 l30 -41 0 -207 c0 -178 -2 -209 -16 -221 -12 -10 -60 -12 -207 -10 -160 2 -197 5 -221 19 l-30 17 -3 140 c-2 77 -5 146 -8 153 -7 19 -518 17 -534 -2 -13 -16 4 -26 47 -26 15 0 59 -11 97 -24 l70 -24 5 -514 c3 -282 6 -514 8 -515 1 -2 72 -3 157 -3 117 0 155 3 156 13 0 6 0 80 -1 162 -1 147 7 200 33 217 7 4 102 8 211 8 172 0 202 -2 218 -17 16 -15 18 -37 18 -265 l0 -248 -49 -48 c-86 -82 -158 -142 -173 -142 -8 0 -19 -5 -26 -12 -14 -14 -596 -21 -689 -8 -100 14 -138 37 -304 191 l-39 37 0 658 c1 498 4 664 13 680 14 25 171 174 183 174 5 0 20 9 34 20 24 19 43 20 407 20 371 0 384 -1 420 -21z" fill="#094e3b" id="094e3b-000003"/>
    <path stroke="none" d="M4628 7948 c9 -9 12 -89 12 -300 0 -282 6 -330 30 -260 6 15 14 34 19 42 6 8 50 94 100 191 49 97 98 191 109 210 10 19 31 54 45 79 l25 45 231 3 c201 2 232 0 237 -13 7 -16 -59 -151 -106 -220 -15 -22 -36 -58 -47 -80 -32 -66 -64 -119 -83 -140 -10 -11 -37 -56 -60 -100 -23 -44 -62 -117 -86 -162 -24 -44 -44 -89 -44 -98 0 -9 11 -35 24 -59 13 -23 29 -52 35 -64 6 -12 16 -32 23 -44 6 -13 25 -50 41 -83 16 -33 35 -71 43 -85 8 -14 42 -79 74 -145 33 -66 70 -140 83 -165 13 -25 32 -62 42 -82 23 -49 64 -89 118 -117 25 -13 60 -37 78 -53 l33 -30 -24 -18 c-21 -16 -134 -30 -260 -33 -78 -2 -267 15 -288 26 -23 11 -32 28 -161 302 -29 61 -68 139 -87 175 -19 36 -56 109 -82 162 -26 54 -50 98 -54 98 -3 0 -8 -160 -10 -355 -3 -346 -3 -355 -24 -376 -21 -20 -31 -21 -210 -21 -117 0 -194 -4 -202 -11 -36 -29 -37 -6 -42 820 l-5 806 -35 18 c-74 40 -120 82 -120 109 0 15 3 30 7 33 3 4 142 7 308 7 221 0 304 -3 313 -12z" fill="#094e3b" id="094e3b-000004"/>
    <path stroke="none" d="M6857 7938 c21 -12 54 -34 73 -49 37 -29 89 -61 130 -81 59 -28 60 -31 60 -173 0 -100 -3 -135 -14 -144 -9 -8 -81 -11 -237 -9 l-224 3 -5 75 -5 75 -293 0 c-217 0 -296 -3 -304 -12 -7 -9 -2 -14 19 -19 15 -3 43 -13 62 -21 19 -8 51 -18 72 -20 23 -3 49 -16 64 -31 24 -23 25 -30 25 -138 0 -84 3 -114 13 -114 6 -1 91 -2 187 -3 128 -2 204 -9 282 -24 110 -21 151 -40 222 -100 22 -18 45 -33 51 -33 6 0 27 -14 48 -31 l37 -30 0 -338 c0 -338 0 -338 -22 -357 -13 -11 -35 -26 -49 -33 -14 -7 -57 -37 -95 -68 -110 -88 -92 -85 -481 -83 -384 1 -376 0 -464 75 -29 25 -57 45 -62 45 -4 0 -28 14 -52 30 -24 17 -51 30 -59 30 -8 0 -20 9 -26 19 -15 29 -12 282 4 303 11 15 35 17 224 14 153 -2 215 -6 227 -16 11 -9 15 -31 15 -76 0 -60 2 -65 26 -74 43 -17 270 -13 304 5 l30 16 0 166 c0 141 -3 169 -17 185 -15 17 -37 18 -281 18 l-266 0 -75 52 c-42 28 -92 64 -111 80 -19 15 -42 28 -52 28 -35 0 -38 33 -38 360 0 327 3 360 38 360 9 0 46 26 82 59 118 106 89 100 522 101 371 0 377 0 415 -22z" fill="#094e3b" id="094e3b-000005"/>
    <path stroke="none" d="M4471 5718 c34 -23 99 -78 145 -123 45 -44 142 -139 217 -211 74 -73 143 -146 151 -162 22 -43 24 -633 2 -651 -9 -8 -153 -10 -517 -9 l-504 3 -3 178 -2 177 -630 0 c-691 0 -682 1 -582 -57 26 -15 49 -30 52 -33 3 -4 41 -25 85 -47 162 -81 270 -140 298 -162 16 -13 17 -46 17 -433 0 -369 2 -419 16 -425 19 -7 52 19 259 201 l40 36 453 0 c402 0 457 -2 485 -17 30 -15 130 -106 297 -269 41 -41 80 -74 86 -74 15 0 137 -107 151 -133 17 -30 19 -1857 2 -1890 -6 -12 -104 -113 -218 -225 -243 -239 -289 -283 -319 -299 -30 -18 -1712 -19 -1745 -2 -12 6 -96 83 -187 171 -91 88 -168 163 -172 167 -4 3 -48 48 -98 99 l-90 92 0 1793 c0 985 4 1798 8 1805 21 33 385 391 442 435 36 28 81 63 100 79 l35 28 831 0 832 0 63 -42z" fill="#094e3b" id="094e3b-000006"/>
    <path stroke="none" d="M3886 3173 c-4 -5 -159 -10 -344 -13 l-337 -5 -3 -604 c-1 -441 1 -607 9 -618 10 -11 77 -13 378 -11 l366 3 3 595 c1 327 0 604 -2 616 -3 11 -17 26 -31 32 -31 14 -30 14 -39 5z" fill="#040404" id="040404-000002"/>
  </g>
</svg>
