<svg xmlns="http://www.w3.org/2000/svg" version="1.0" width="2888.000000pt" height="2888.000000pt" viewBox="0 0 2888.000000 2888.000000" preserveAspectRatio="xMidYMid meet">
  <g transform="translate(0.000000,2888.000000) scale(0.100000,-0.100000)" stroke="none">
    <mask id="mask-1">
      <g>
        <path d="M 0 0 H 28880.0 V 28880.0 H 0 Z" fill="white" id="background"/>
        <path d="M19250 24049 c137 -19 290 -99 383 -203 42 -47 32 -50 -30 -8 -56 37 -72 44 -158 72 -51 17 -239 17 -290 0 -78 -25 -164 -72 -208 -113 -220 -204 -212 -627 14 -820 164 -141 449 -157 631 -35 31 20 64 48 75 61 27 34 42 41 36 17 -3 -11 -9 -20 -14 -20 -5 0 -9 -6 -9 -13 0 -32 -172 -173 -260 -214 -127 -59 -318 -69 -445 -24 -97 35 -165 80 -245 161 -97 98 -139 171 -181 310 -19 61 -18 258 1 335 29 121 123 274 212 347 118 96 217 136 393 157 6 0 48 -4 95 -10z" fill="black"/>
        <path d="M19470 23690 c0 -13 -30 -13 -50 0 -11 7 -7 10 18 10 17 0 32 -4 32 -10z" fill="black"/>
        <path d="M19568 23635 c54 -49 82 -99 64 -117 -15 -15 -32 -1 -32 27 0 25 -52 86 -100 117 -24 16 -24 17 -4 17 12 1 44 -19 72 -44z" fill="black"/>
        <path d="M19427 23496 c15 -13 25 -27 22 -31 -8 -8 -71 27 -77 43 -6 20 25 13 55 -12z" fill="black"/>
      </g>
    </mask>
    <mask id="mask-0">
      <g>
        <path d="M 0 0 H 28880.0 V 28880.0 H 0 Z" fill="white" id="background"/>
        <path d="M22855 25245 c208 -86 323 -272 376 -610 25 -161 10 -502 -30 -695 -54 -259 -213 -518 -433 -707 -136 -116 -380 -261 -568 -336 -70 -29 -94 -39 -112 -48 -10 -5 -27 -9 -37 -9 -11 0 -23 -4 -26 -10 -3 -5 -17 -10 -30 -10 -13 0 -27 -4 -30 -10 -3 -5 -15 -10 -26 -10 -10 0 -27 -4 -37 -9 -9 -5 -35 -14 -57 -20 -22 -7 -49 -16 -60 -21 -78 -32 -130 -50 -144 -50 -10 0 -21 -4 -26 -8 -6 -5 -30 -14 -55 -21 -25 -7 -54 -17 -65 -21 -11 -5 -38 -14 -60 -21 -22 -6 -49 -15 -60 -20 -26 -10 -78 -25 -200 -57 -118 -31 -160 -36 -270 -35 -149 1 -216 22 -270 85 -19 23 -35 50 -35 60 0 11 -4 27 -9 37 -6 10 -14 90 -19 178 -6 102 -15 167 -23 181 -19 30 -29 28 -29 -6 0 -26 -93 -224 -156 -332 -52 -89 -181 -346 -208 -415 -69 -176 -81 -231 -81 -390 0 -135 2 -150 37 -235 101 -245 378 -496 673 -610 11 -4 33 -13 48 -19 29 -12 97 -15 97 -5 0 3 -28 38 -63 78 -53 60 -104 122 -170 206 -72 93 -132 203 -141 261 -9 54 5 61 100 49 171 -23 233 -29 334 -35 142 -9 436 15 545 44 121 33 194 57 272 92 24 11 47 19 53 19 6 0 29 8 53 19 23 10 80 33 127 51 47 18 99 38 115 45 67 29 318 112 405 135 19 4 54 13 76 19 23 6 73 11 111 11 61 0 74 -3 97 -25 40 -37 35 -85 -19 -192 -87 -169 -282 -405 -521 -630 -195 -184 -528 -460 -681 -565 -96 -67 -301 -209 -384 -267 -101 -71 -253 -228 -266 -276 -13 -43 -17 -148 -34 -788 -8 -312 -8 -503 0 -760 7 -188 14 -601 15 -917 3 -434 9 -657 24 -910 39 -634 44 -756 45 -1085 0 -181 -5 -406 -12 -500 -6 -93 -16 -228 -21 -300 -5 -71 -14 -200 -20 -285 -69 -1028 -130 -1734 -186 -2185 -8 -66 -19 -156 -24 -200 -16 -130 -64 -388 -100 -535 -6 -25 -15 -63 -20 -85 -5 -22 -13 -57 -19 -77 -6 -21 -16 -55 -22 -75 -5 -21 -14 -51 -19 -68 -4 -16 -15 -57 -24 -90 -9 -33 -20 -69 -26 -80 -5 -11 -28 -76 -50 -145 -23 -69 -50 -144 -61 -167 -10 -24 -19 -47 -19 -53 0 -6 -10 -32 -21 -58 -12 -26 -28 -62 -35 -79 -90 -212 -206 -449 -291 -596 -18 -32 -33 -61 -33 -63 0 -3 -8 -18 -19 -32 -10 -15 -28 -43 -39 -62 -121 -213 -357 -548 -547 -775 -197 -237 -482 -528 -695 -709 -63 -54 -127 -109 -142 -122 -15 -13 -47 -39 -70 -57 -24 -17 -74 -57 -113 -88 -38 -30 -92 -70 -120 -89 -27 -18 -52 -36 -55 -40 -19 -24 -434 -290 -452 -290 -6 0 -31 -15 -57 -34 -43 -31 -177 -110 -316 -186 -33 -18 -80 -44 -105 -58 -57 -31 -277 -142 -283 -142 -3 0 -43 -17 -89 -38 -45 -21 -110 -49 -143 -61 -33 -13 -69 -27 -80 -31 -48 -19 -133 -49 -175 -60 -25 -7 -56 -16 -70 -20 -14 -4 -52 -13 -85 -20 -33 -6 -79 -16 -102 -21 -23 -5 -92 -9 -153 -9 -119 0 -213 19 -312 64 -87 39 -98 57 -113 188 -11 96 -39 207 -74 293 -5 11 -14 38 -20 60 -7 22 -16 49 -20 60 -5 11 -14 38 -20 60 -7 22 -16 49 -20 60 -5 11 -14 38 -20 60 -7 22 -16 49 -20 60 -5 11 -14 38 -20 60 -7 22 -16 49 -20 60 -5 11 -14 38 -20 60 -7 22 -16 49 -20 60 -5 11 -14 38 -20 60 -7 22 -16 49 -21 60 -4 11 -22 57 -40 102 -35 89 -60 122 -78 101 -6 -8 -17 -150 -26 -333 -19 -379 -32 -526 -66 -785 -19 -144 -86 -443 -111 -492 -5 -10 -9 -27 -9 -37 0 -11 -4 -23 -10 -26 -5 -3 -10 -14 -10 -24 0 -31 -118 -254 -171 -325 -53 -70 -133 -139 -205 -178 -40 -21 -64 -29 -166 -52 -32 -7 -61 -16 -65 -19 -8 -8 26 -36 44 -37 6 0 58 -31 115 -69 110 -73 224 -177 275 -252 87 -126 124 -274 104 -406 -13 -80 -27 -134 -42 -165 -5 -10 -9 -23 -9 -29 0 -21 -84 -184 -132 -257 -26 -41 -48 -75 -48 -78 0 -5 -59 -84 -133 -178 -351 -445 -644 -741 -958 -970 -57 -41 -287 -176 -301 -176 -4 0 -37 -13 -73 -30 -36 -16 -72 -30 -80 -30 -9 0 -23 -4 -33 -9 -76 -38 -199 -42 -263 -8 -48 25 -106 104 -120 164 -13 55 0 139 30 194 14 26 55 89 90 140 56 80 65 100 69 146 4 49 2 55 -29 84 -97 91 -208 91 -407 -2 -35 -16 -69 -29 -76 -29 -7 0 -16 -3 -20 -7 -32 -33 -176 -44 -215 -17 -34 24 -81 103 -81 136 0 35 34 110 74 163 17 22 96 108 176 190 150 155 183 202 160 230 -17 20 -65 19 -139 -5 -58 -18 -80 -27 -176 -70 -188 -84 -248 -103 -328 -104 -65 -1 -70 1 -98 32 -23 26 -29 42 -29 78 0 77 39 122 237 270 50 38 118 94 150 124 87 82 153 141 202 180 24 19 73 60 110 90 88 74 205 162 304 233 135 95 286 197 291 197 3 0 32 18 65 40 33 22 62 40 64 40 3 0 34 17 68 38 35 22 114 63 174 93 97 48 137 66 220 98 11 5 31 13 45 19 14 6 36 13 50 17 14 3 39 10 55 15 109 31 149 39 223 45 45 4 82 10 82 14 0 5 -8 16 -19 25 -10 9 -33 47 -51 84 -18 37 -36 75 -41 84 -5 10 -9 25 -9 33 0 8 -4 23 -9 33 -13 26 -40 124 -71 257 -11 50 -25 104 -29 120 -5 17 -14 62 -21 100 -6 39 -16 88 -20 110 -10 47 -21 107 -51 265 -11 63 -28 149 -36 190 -9 41 -19 95 -23 120 -5 25 -14 65 -20 90 -6 25 -15 61 -20 80 -19 79 -49 147 -67 154 -70 27 -85 -86 -63 -469 5 -93 17 -261 26 -373 14 -159 15 -205 5 -215 -20 -20 -478 -15 -621 7 -170 26 -210 33 -257 45 -24 6 -60 15 -80 20 -35 9 -55 14 -148 41 -19 6 -50 14 -67 19 -31 8 -99 32 -143 51 -11 5 -40 16 -65 24 -42 13 -77 28 -190 78 -64 29 -289 141 -332 166 -21 12 -55 32 -75 43 -21 12 -50 30 -65 40 -14 11 -29 19 -33 19 -3 0 -33 18 -65 40 -32 22 -62 40 -66 40 -4 0 -25 14 -48 31 -23 16 -97 71 -166 120 -410 295 -800 664 -1150 1089 -229 278 -527 708 -692 997 -10 18 -28 50 -39 70 -12 21 -38 70 -59 108 -21 39 -47 86 -58 106 -19 35 -31 56 -52 99 -5 11 -14 29 -20 40 -5 11 -14 29 -20 40 -5 11 -14 29 -20 40 -5 11 -14 29 -20 40 -5 11 -14 29 -20 40 -5 11 -14 29 -20 40 -5 11 -14 28 -19 38 -9 16 -71 155 -113 252 -11 25 -28 63 -38 85 -26 57 -84 198 -115 280 -15 39 -36 89 -46 112 -10 24 -19 47 -19 52 0 7 -27 79 -51 136 -4 11 -15 40 -23 65 -13 41 -36 104 -56 155 -7 18 -127 389 -170 525 -26 81 -55 179 -70 230 -7 25 -16 56 -20 70 -17 56 -49 168 -60 210 -7 25 -16 55 -21 68 -5 13 -9 34 -9 47 0 13 -7 50 -15 82 -9 32 -20 87 -25 123 -6 36 -14 90 -20 120 -5 30 -14 91 -20 135 -5 44 -14 118 -20 165 -62 510 -49 1142 29 1425 42 153 36 136 102 269 74 148 176 252 284 286 22 7 50 16 63 21 32 13 186 11 236 -2 22 -6 59 -15 81 -21 22 -5 48 -14 57 -19 10 -5 24 -9 32 -9 7 0 47 -22 87 -49 97 -63 207 -179 326 -341 26 -36 50 -67 53 -70 3 -3 21 -26 40 -52 47 -63 324 -336 482 -474 169 -148 353 -286 474 -355 133 -76 414 -199 455 -199 10 0 21 -4 24 -10 3 -5 17 -10 30 -10 13 0 26 -4 29 -9 3 -5 18 -11 33 -14 16 -3 48 -11 73 -17 25 -6 63 -15 85 -20 22 -5 60 -14 85 -19 89 -20 388 -60 531 -70 385 -28 899 1 1199 69 25 5 68 14 95 20 48 9 87 19 158 39 85 25 114 33 140 38 15 3 30 9 33 14 3 5 16 9 29 9 13 0 27 5 30 10 3 6 15 10 26 10 10 0 27 4 37 9 23 12 51 23 152 61 82 31 451 209 555 267 28 16 76 45 108 66 31 20 61 37 66 37 5 0 14 7 21 15 7 8 26 21 42 30 70 34 407 286 568 424 319 273 617 583 891 927 105 133 196 252 214 283 6 9 13 18 16 21 19 16 217 317 332 505 138 226 168 281 330 605 110 219 142 288 194 410 8 19 23 53 33 75 9 22 28 65 40 95 13 30 29 70 38 89 8 18 18 45 22 60 9 27 25 71 80 221 18 47 36 99 40 115 4 17 15 51 24 78 9 26 23 68 32 95 9 26 20 62 25 80 5 17 14 49 20 70 6 20 14 53 19 72 5 19 14 53 20 75 35 125 71 283 120 540 28 140 46 292 61 495 14 195 6 814 -16 1110 -58 816 -60 1379 -5 1735 20 128 29 180 40 230 6 28 15 68 20 90 19 87 103 345 141 434 28 65 124 257 155 310 160 275 409 529 660 672 126 72 320 159 354 159 10 0 21 4 24 9 3 5 18 11 33 14 16 3 45 10 66 16 20 6 54 16 75 22 67 19 209 47 307 59 278 37 391 42 1150 50 638 7 785 11 860 24 127 23 174 33 220 46 22 7 55 14 73 17 18 3 35 9 38 14 3 5 14 9 25 9 10 0 27 4 37 9 9 5 28 13 42 19 120 49 289 142 370 203 134 102 280 199 310 206 14 3 30 9 35 13 30 24 219 20 280 -5z" fill="black"/>
        <path d="M21115 22025 c76 -14 124 -25 205 -44 167 -41 282 -61 362 -61 94 0 103 -23 16 -42 -21 -4 -57 -13 -80 -18 -193 -47 -316 -62 -513 -63 -160 -1 -216 3 -280 17 -44 10 -90 21 -102 23 -29 7 -37 32 -18 53 8 9 15 21 15 26 0 14 70 78 100 91 81 37 168 42 295 18z" fill="black"/>
        <path d="M8174 21320 c8 0 25 -12 40 -26 41 -42 35 -131 -19 -289 -17 -48 -115 -275 -156 -360 -11 -22 -22 -57 -26 -78 l-6 -38 139 8 c478 28 655 -4 871 -154 34 -24 66 -43 70 -43 5 0 15 28 22 63 7 34 17 76 21 92 5 17 14 50 21 75 70 261 159 420 264 469 113 53 223 -5 225 -119 0 -64 -53 -285 -91 -375 -4 -11 -15 -40 -23 -65 -8 -25 -55 -148 -106 -275 -51 -126 -98 -248 -105 -270 -22 -71 -66 -270 -85 -385 -7 -41 -14 -81 -16 -89 -9 -30 -44 -297 -61 -462 -14 -138 -17 -273 -18 -654 0 -551 11 -741 85 -1495 10 -107 26 -271 35 -365 8 -93 17 -188 20 -210 7 -68 -22 -283 -45 -340 -5 -11 -14 -38 -21 -60 -8 -22 -21 -52 -31 -67 -10 -14 -18 -29 -18 -32 0 -20 -82 -92 -128 -112 -65 -29 -91 -30 -172 -3 -96 31 -141 68 -203 163 -54 81 -166 298 -221 426 -16 36 -38 88 -51 115 -12 28 -35 79 -50 115 -29 68 -82 186 -115 255 -23 51 -83 196 -105 255 -9 25 -21 54 -25 65 -17 41 -42 112 -56 155 -8 25 -19 54 -23 65 -5 11 -14 38 -20 60 -7 22 -16 49 -20 60 -13 31 -78 248 -101 335 -7 25 -16 56 -20 70 -4 14 -13 50 -20 80 -6 30 -16 69 -21 85 -9 31 -43 178 -54 230 -3 17 -11 50 -16 75 -6 25 -15 70 -19 100 -5 30 -14 82 -20 115 -14 78 -24 145 -43 285 -51 379 -62 614 -48 1087 16 542 41 799 100 1023 43 165 87 258 154 328 47 49 67 61 152 90 64 22 111 31 133 25 8 -1 19 -3 26 -3z" fill="black"/>
        <path d="M5648 20398 c196 -110 553 -477 701 -718 40 -66 76 -128 132 -227 12 -21 24 -42 29 -48 7 -10 40 -71 118 -215 73 -134 119 -223 264 -505 256 -497 345 -668 382 -735 48 -88 265 -521 295 -590 13 -30 39 -91 58 -135 18 -44 37 -89 42 -100 5 -11 16 -36 24 -55 8 -19 97 -240 197 -490 100 -250 189 -471 197 -490 30 -70 47 -115 62 -165 7 -22 16 -49 20 -60 31 -76 42 -266 20 -336 -6 -19 -28 -71 -50 -116 -46 -95 -118 -168 -219 -223 -59 -31 -72 -35 -145 -34 -67 1 -88 5 -133 28 -51 28 -126 109 -152 165 -7 14 -17 34 -22 45 -5 10 -13 93 -18 185 -8 161 -9 168 -40 226 -38 70 -78 124 -192 259 -85 100 -92 110 -238 313 -46 65 -88 123 -93 128 -7 10 -92 127 -184 255 -213 299 -535 717 -684 891 -26 30 -66 77 -90 105 -24 28 -100 114 -169 191 -144 162 -276 314 -340 393 -25 30 -47 57 -50 60 -3 3 -55 61 -115 130 -160 185 -420 439 -508 499 -42 28 -79 51 -82 51 -9 0 -124 79 -173 118 -95 77 -118 176 -63 264 17 26 43 54 60 62 77 40 200 3 372 -111 37 -25 72 -42 78 -39 6 4 18 23 28 43 28 60 242 263 277 263 2 0 32 18 65 40 33 22 62 40 64 40 2 0 37 18 77 40 40 22 78 40 84 40 6 0 19 7 29 14 17 13 17 16 -4 52 -11 22 -25 43 -30 49 -5 5 -9 16 -9 25 0 8 -9 26 -20 40 -11 14 -20 31 -20 38 0 7 -9 31 -19 55 -35 78 -51 140 -51 200 0 52 3 62 31 89 29 29 33 30 97 26 46 -4 81 -13 110 -30z" fill="black"/>
        <path d="M23890 10686 c104 -32 192 -87 228 -143 32 -49 27 -73 -28 -137 -22 -25 -132 -106 -144 -106 -8 0 -173 -97 -219 -129 -59 -40 -104 -88 -109 -116 -10 -50 0 -51 169 -16 239 50 250 52 366 58 101 5 112 4 155 -18 25 -13 68 -46 94 -72 114 -115 81 -197 -142 -352 -47 -33 -120 -94 -162 -136 -64 -63 -78 -82 -78 -107 0 -50 60 -78 215 -101 75 -12 99 -17 200 -43 22 -6 72 -25 111 -44 121 -57 187 -149 199 -277 9 -92 -8 -113 -142 -179 -59 -29 -128 -62 -153 -72 -25 -10 -58 -24 -75 -31 -16 -7 -118 -48 -225 -90 -197 -78 -218 -86 -267 -106 -16 -7 -38 -16 -50 -20 -13 -5 -33 -13 -45 -18 -13 -4 -34 -13 -48 -19 -14 -6 -43 -16 -65 -23 -22 -7 -44 -16 -50 -19 -5 -4 -30 -12 -55 -19 -25 -7 -53 -17 -62 -22 -10 -5 -26 -9 -35 -9 -10 0 -38 -8 -63 -16 -25 -9 -63 -21 -85 -26 -211 -48 -280 -60 -506 -87 -393 -46 -656 -36 -879 36 -242 78 -405 242 -477 478 -38 127 -45 169 -50 333 -3 89 -9 162 -12 162 -3 0 -36 -29 -73 -64 -61 -58 -164 -121 -228 -140 -14 -4 -50 -14 -80 -23 -34 -9 -97 -16 -165 -16 -92 -1 -121 3 -179 24 -125 44 -216 152 -216 258 0 27 5 53 10 56 6 3 10 16 10 27 0 23 14 72 37 126 7 17 20 49 29 70 73 176 201 399 273 475 77 82 165 87 299 18 78 -41 202 -171 255 -270 24 -44 57 -147 57 -177 0 -33 22 -30 44 7 53 90 311 301 481 395 11 6 40 23 65 37 25 15 115 62 200 105 137 68 200 98 315 147 17 7 50 22 75 33 25 11 99 41 165 67 66 26 131 52 145 57 53 22 161 62 215 79 22 7 45 16 50 19 6 4 30 12 55 19 25 7 54 17 65 21 11 5 38 14 60 21 22 6 49 15 60 20 11 4 38 13 60 20 22 6 49 15 60 19 20 8 129 40 195 58 51 14 99 14 150 -2z" fill="black"/>
        <path d="M19250 24049 c137 -19 290 -99 383 -203 42 -47 32 -50 -30 -8 -56 37 -72 44 -158 72 -51 17 -239 17 -290 0 -78 -25 -164 -72 -208 -113 -220 -204 -212 -627 14 -820 164 -141 449 -157 631 -35 31 20 64 48 75 61 27 34 42 41 36 17 -3 -11 -9 -20 -14 -20 -5 0 -9 -6 -9 -13 0 -32 -172 -173 -260 -214 -127 -59 -318 -69 -445 -24 -97 35 -165 80 -245 161 -97 98 -139 171 -181 310 -19 61 -18 258 1 335 29 121 123 274 212 347 118 96 217 136 393 157 6 0 48 -4 95 -10z" fill="black"/>
        <path d="M19470 23690 c0 -13 -30 -13 -50 0 -11 7 -7 10 18 10 17 0 32 -4 32 -10z" fill="black"/>
        <path d="M19568 23635 c54 -49 82 -99 64 -117 -15 -15 -32 -1 -32 27 0 25 -52 86 -100 117 -24 16 -24 17 -4 17 12 1 44 -19 72 -44z" fill="black"/>
        <path d="M19427 23496 c15 -13 25 -27 22 -31 -8 -8 -71 27 -77 43 -6 20 25 13 55 -12z" fill="black"/>
      </g>
    </mask>
    <path stroke="none" d="M22620 25565 c-128 -29 -277 -104 -494 -247 -65 -43 -120 -78 -123 -78 -2 0 -31 -18 -63 -40 -32 -22 -62 -40 -65 -40 -4 0 -19 -9 -34 -19 -83 -60 -242 -124 -376 -152 -258 -54 -560 -80 -1223 -104 -644 -23 -924 -52 -1192 -122 -30 -8 -71 -19 -90 -23 -94 -23 -119 -31 -212 -69 -13 -5 -43 -18 -68 -28 -293 -119 -564 -313 -782 -560 -100 -113 -142 -169 -231 -310 -62 -97 -187 -334 -187 -354 0 -5 -8 -28 -19 -52 -36 -81 -61 -150 -61 -166 0 -10 -4 -21 -8 -27 -5 -5 -14 -27 -20 -49 -23 -80 -50 -181 -56 -210 -4 -16 -11 -48 -17 -70 -14 -59 -42 -218 -59 -332 -46 -323 -66 -610 -90 -1283 -12 -330 -35 -709 -51 -845 -6 -49 -14 -124 -19 -165 -5 -41 -14 -104 -20 -140 -6 -36 -15 -92 -21 -125 -26 -162 -64 -352 -99 -495 -6 -25 -15 -63 -20 -85 -11 -55 -37 -156 -61 -240 -11 -38 -25 -88 -31 -110 -21 -77 -28 -101 -46 -160 -11 -33 -29 -94 -42 -135 -12 -41 -26 -83 -31 -92 -5 -10 -9 -27 -9 -37 0 -11 -4 -23 -10 -26 -5 -3 -10 -16 -10 -29 0 -12 -4 -26 -8 -32 -4 -5 -14 -27 -21 -49 -7 -22 -21 -64 -32 -92 -10 -29 -28 -79 -40 -110 -25 -68 -32 -89 -48 -125 -6 -16 -15 -39 -21 -53 -5 -14 -14 -36 -20 -50 -5 -14 -14 -36 -20 -50 -5 -14 -14 -35 -19 -47 -5 -13 -18 -43 -29 -68 -11 -25 -32 -74 -47 -110 -107 -250 -317 -668 -431 -857 -24 -40 -44 -75 -44 -79 0 -3 -13 -25 -30 -49 -16 -24 -30 -46 -30 -50 0 -3 -18 -33 -40 -65 -22 -32 -40 -62 -40 -65 0 -4 -9 -19 -20 -33 -12 -15 -49 -70 -83 -122 -86 -131 -267 -384 -287 -400 -3 -3 -13 -14 -21 -26 -8 -12 -33 -43 -55 -70 -23 -27 -77 -92 -120 -144 -90 -109 -439 -463 -550 -560 -211 -182 -426 -337 -679 -486 -108 -64 -349 -179 -485 -231 -36 -14 -74 -29 -85 -33 -11 -5 -38 -14 -60 -21 -22 -6 -49 -15 -60 -19 -11 -4 -40 -13 -65 -20 -25 -7 -58 -16 -75 -21 -33 -9 -173 -41 -250 -57 -219 -46 -665 -71 -935 -53 -252 17 -395 38 -567 80 -24 6 -60 15 -80 20 -64 15 -219 71 -313 114 -108 48 -122 56 -245 128 -83 49 -244 178 -340 274 -109 109 -243 279 -304 388 -11 20 -31 54 -42 75 -45 79 -118 230 -150 310 -5 12 -14 34 -20 50 -20 47 -54 144 -76 217 -8 28 -19 59 -23 70 -5 11 -11 31 -15 45 -3 14 -10 39 -15 55 -55 191 -120 469 -140 600 -5 28 -13 73 -20 100 -6 28 -15 82 -20 120 -5 39 -14 99 -19 135 -10 60 -15 101 -41 340 -81 727 -57 1626 60 2330 17 104 60 210 224 553 31 65 56 120 56 123 0 2 10 26 21 52 12 26 30 66 40 89 11 24 19 52 19 62 0 11 4 22 9 25 5 3 11 20 14 38 3 18 12 64 21 103 9 38 16 103 16 144 0 132 -35 216 -130 312 -82 83 -170 128 -269 136 -164 14 -278 -67 -503 -357 -146 -189 -242 -270 -320 -270 -39 0 -118 46 -142 83 -14 20 -16 60 -14 268 l3 244 -37 50 c-58 79 -192 195 -226 195 -5 0 -23 7 -40 15 -17 9 -59 20 -94 26 -245 40 -456 -109 -613 -431 -51 -103 -98 -219 -112 -275 -2 -11 -8 -29 -13 -40 -15 -36 -22 -60 -31 -95 -4 -19 -12 -53 -18 -75 -21 -79 -54 -231 -61 -285 -5 -30 -13 -84 -19 -120 -19 -118 -40 -361 -51 -591 -11 -228 -2 -582 20 -784 17 -160 12 -169 -40 -72 -18 34 -50 88 -71 120 -22 32 -39 60 -39 63 0 6 -207 314 -271 404 -84 117 -108 148 -411 525 -44 55 -92 115 -107 134 -341 442 -555 616 -816 667 -119 24 -189 16 -283 -29 -106 -51 -211 -193 -212 -286 0 -30 36 -133 63 -181 79 -137 83 -167 34 -232 -29 -38 -65 -68 -201 -165 -21 -16 -56 -54 -78 -85 -21 -32 -42 -58 -46 -58 -4 0 -23 10 -42 23 -56 37 -157 78 -229 93 -75 16 -194 18 -237 5 -16 -5 -49 -15 -74 -22 -55 -16 -91 -38 -153 -98 -87 -83 -119 -169 -119 -320 0 -58 5 -119 11 -134 6 -16 11 -37 11 -48 0 -32 56 -138 111 -212 75 -99 257 -261 439 -389 109 -77 206 -163 365 -322 244 -244 451 -482 622 -716 26 -36 50 -67 54 -70 3 -3 71 -103 150 -222 132 -199 173 -265 268 -433 65 -115 271 -533 271 -550 0 -2 13 -32 29 -67 44 -96 111 -257 111 -268 0 -6 4 -18 9 -28 18 -34 54 -129 77 -202 8 -25 19 -54 24 -65 8 -18 115 -339 141 -425 6 -19 14 -44 19 -55 4 -11 13 -40 20 -65 7 -25 16 -56 20 -70 10 -31 47 -162 62 -215 5 -22 14 -51 19 -65 5 -14 16 -52 25 -85 9 -33 20 -76 26 -95 5 -19 13 -51 18 -70 5 -19 14 -53 20 -75 6 -22 15 -56 20 -75 5 -19 14 -53 20 -75 12 -43 23 -86 39 -150 5 -22 19 -76 31 -120 12 -44 25 -96 30 -115 5 -19 14 -53 20 -75 6 -22 16 -57 21 -77 5 -21 13 -55 18 -75 5 -21 15 -56 21 -78 6 -22 16 -57 21 -77 5 -21 13 -55 18 -75 9 -35 16 -59 40 -145 5 -18 19 -69 31 -113 12 -44 26 -95 31 -112 19 -69 29 -104 40 -140 5 -21 14 -51 19 -68 5 -16 13 -46 18 -65 5 -19 17 -57 26 -85 9 -27 20 -63 25 -80 16 -56 74 -240 81 -260 4 -11 35 -105 69 -210 34 -104 71 -214 81 -242 11 -29 29 -79 41 -110 12 -32 25 -67 29 -78 5 -11 18 -49 30 -85 12 -36 26 -75 31 -87 18 -45 28 -69 59 -153 37 -99 49 -128 61 -152 5 -10 9 -22 9 -28 0 -6 10 -32 21 -58 36 -80 47 -105 69 -162 24 -62 39 -97 81 -188 16 -35 29 -65 29 -67 0 -5 35 -83 98 -220 79 -172 345 -697 422 -835 45 -80 96 -169 112 -199 17 -29 53 -90 80 -135 28 -44 59 -94 68 -111 61 -104 112 -185 125 -195 8 -7 15 -17 15 -22 0 -9 138 -219 150 -228 4 -3 12 -15 19 -28 29 -54 281 -395 435 -587 83 -103 96 -118 260 -295 128 -138 356 -352 451 -425 28 -20 72 -56 99 -79 110 -92 393 -282 571 -383 174 -98 518 -260 688 -322 31 -12 83 -30 115 -42 31 -12 66 -25 77 -29 34 -14 58 -21 115 -36 30 -8 64 -18 75 -23 11 -5 39 -14 63 -20 23 -6 61 -16 85 -22 23 -6 53 -15 67 -19 24 -8 71 -19 165 -40 25 -5 64 -14 88 -19 88 -20 161 -34 262 -51 157 -26 193 -31 260 -40 239 -31 311 -42 319 -50 5 -5 -8 -17 -30 -28 -77 -38 -156 -82 -184 -102 -15 -11 -30 -20 -33 -20 -15 0 -503 -337 -543 -375 -6 -5 -39 -30 -74 -55 -35 -25 -77 -57 -94 -71 -17 -14 -94 -73 -171 -130 -77 -58 -183 -137 -235 -176 -52 -39 -113 -93 -135 -120 -172 -205 -249 -361 -250 -504 0 -90 12 -118 66 -148 35 -20 52 -22 152 -20 l112 2 -4 -38 c-1 -22 -7 -50 -12 -63 -21 -54 -3 -183 37 -267 9 -20 37 -58 62 -86 95 -106 198 -151 346 -151 51 0 116 5 144 13 29 7 54 10 57 8 3 -3 -5 -25 -18 -50 -19 -39 -22 -59 -22 -169 0 -122 1 -127 34 -190 60 -117 156 -209 276 -265 130 -60 294 -58 460 5 11 5 47 18 80 31 140 52 318 145 650 339 478 279 857 605 1151 990 189 246 349 558 434 840 12 41 26 86 30 100 4 14 13 52 20 85 6 33 14 69 16 80 18 79 35 228 40 355 l7 150 63 0 c35 0 150 -10 256 -21 253 -28 564 -30 688 -4 47 9 103 21 125 26 58 12 124 27 170 40 22 6 51 13 65 15 14 3 34 9 45 14 11 4 54 18 95 30 41 12 84 26 95 31 11 4 49 17 85 29 36 12 75 26 88 31 12 5 33 14 47 19 14 6 35 14 48 19 12 5 42 18 67 28 25 11 81 35 125 54 86 36 462 223 532 264 123 72 256 154 318 197 111 76 169 117 185 131 8 6 51 39 95 72 187 140 485 422 660 625 173 200 257 309 386 500 40 58 75 109 80 114 5 6 32 -11 66 -41 118 -102 462 -349 523 -376 8 -4 38 -20 65 -37 61 -37 303 -159 365 -183 25 -10 55 -23 68 -28 160 -65 309 -112 482 -150 260 -57 432 -72 745 -66 239 5 352 16 515 47 30 5 80 14 110 20 80 14 149 31 325 80 49 13 137 41 180 57 22 8 74 26 115 39 74 24 108 37 142 55 10 5 22 9 28 9 9 0 169 65 245 100 217 100 339 164 456 238 110 70 141 95 229 183 79 79 121 143 160 244 19 48 33 146 32 225 -1 147 -45 262 -134 351 -72 71 -118 94 -268 132 -60 15 -78 40 -37 51 13 3 39 22 58 43 89 98 119 175 119 308 0 143 -43 240 -153 348 -46 45 -157 107 -219 122 -28 7 -37 28 -17 40 23 15 59 115 59 166 0 133 -135 270 -316 318 -52 14 -250 14 -312 0 -92 -20 -200 -49 -227 -59 -11 -4 -36 -13 -55 -20 -19 -7 -44 -16 -55 -20 -11 -4 -47 -18 -80 -31 -33 -12 -89 -36 -125 -52 -36 -16 -87 -39 -115 -52 -56 -25 -153 -70 -265 -122 -62 -29 -142 -65 -275 -122 -11 -5 -36 -16 -55 -24 -19 -9 -55 -23 -80 -32 -25 -9 -54 -21 -65 -26 -36 -15 -299 -101 -340 -111 -247 -57 -424 -69 -575 -40 -63 11 -168 62 -214 102 -48 43 -108 132 -127 190 -18 56 -18 231 0 291 7 24 22 76 32 114 11 39 27 90 36 115 8 25 19 59 23 75 4 17 16 53 25 80 10 28 26 73 35 100 9 28 25 73 35 100 9 28 21 66 27 85 5 19 14 51 19 70 6 19 14 51 19 70 5 19 14 53 20 75 6 22 16 57 21 78 26 104 31 125 39 162 5 22 14 60 20 85 5 25 14 65 19 90 10 53 37 187 50 250 15 73 62 351 76 450 4 25 11 72 16 105 15 93 46 345 59 470 64 620 85 1107 77 1815 -4 283 -11 605 -17 715 -5 110 -15 297 -20 415 -6 118 -15 294 -20 390 -5 96 -14 261 -20 365 -6 105 -15 267 -20 360 -13 220 -25 451 -45 860 -8 182 -22 425 -31 540 -8 116 -20 275 -26 355 -11 154 -4 481 11 540 5 19 14 62 21 95 22 101 105 264 189 368 68 85 204 225 340 352 208 193 396 406 674 765 40 52 109 153 189 280 66 103 148 278 186 400 78 245 -8 461 -208 519 -25 7 -58 18 -75 23 -16 6 -113 13 -215 15 -171 5 -322 -3 -540 -27 -47 -6 -114 -13 -150 -16 -36 -3 -76 -9 -90 -14 -14 -5 -50 -11 -80 -15 -42 -5 -52 -3 -43 6 11 11 58 24 131 36 18 3 35 9 38 14 3 5 13 9 23 9 19 0 186 52 231 72 14 6 34 14 45 18 89 33 262 113 360 168 131 73 150 84 250 152 271 185 452 379 560 600 44 88 68 145 77 178 4 17 13 49 19 70 41 142 59 314 59 560 0 294 -18 464 -71 677 -24 95 -29 110 -70 205 -96 224 -261 381 -448 426 -68 16 -196 16 -271 -1z" fill="#000000" id="000000-000001" mask="url(#mask-0)"/>
    <path stroke="none" d="M22729 25013 c-41 -20 -70 -52 -123 -135 -19 -31 -41 -60 -48 -65 -7 -4 -56 -8 -109 -8 -90 0 -98 -2 -133 -29 -21 -16 -51 -49 -67 -74 -24 -38 -29 -57 -29 -107 0 -75 25 -120 85 -150 152 -79 246 -51 320 92 15 29 40 64 56 77 25 21 34 23 61 15 79 -22 162 0 202 54 18 24 21 43 21 125 0 90 -2 100 -29 140 -49 72 -137 99 -207 65z" fill="#000000" id="000000-000002" mask="url(#mask-1)"/>
    <path stroke="none" d="M19130 24220 c-50 -4 -95 -15 -133 -33 -32 -15 -62 -27 -67 -27 -5 0 -31 -12 -57 -27 -184 -102 -308 -258 -381 -478 -39 -118 -52 -405 -23 -510 71 -258 175 -410 369 -538 97 -64 140 -82 277 -117 157 -40 360 28 509 170 150 143 236 299 305 555 30 110 30 421 0 476 -5 10 -9 27 -9 38 0 29 -54 143 -100 211 -22 32 -63 79 -92 105 -52 45 -218 135 -250 135 -10 0 -27 4 -40 9 -79 31 -184 41 -308 31z" fill="#000000" id="000000-000003" mask="url(#mask-1)"/>
  </g>
</svg>
