<?xml version="1.0" standalone="no"?>
<!DOCTYPE svg PUBLIC "-//W3C//DTD SVG 1.1//EN"
 "http://www.w3.org/Graphics/SVG/1.1/DTD/svg11.dtd">
<!-- Created with svg_stack (http://github.com/astraw/svg_stack) -->
<svg xmlns:sodipodi="http://sodipodi.sourceforge.net/DTD/sodipodi-0.dtd" xmlns="http://www.w3.org/2000/svg" version="1.1" width="454.0" height="321.0">
  <defs/>
  <g id="id0:id0" transform="matrix(1.25,0,0,1.25,0.0,0.0)"><g transform="translate(0.000000,256.800000) scale(0.040000,-0.040000)" fill="#ffffff" stroke="none">
<path d="M0 3210 l0 -3210 4540 0 4540 0 0 3210 0 3210 -4540 0 -4540 0 0 -3210z m2625 1479 c44 -6 87 -13 95 -16 8 -3 35 -6 60 -7 49 -3 117 -14 140 -24 8 -3 29 -7 45 -8 55 -5 216 -44 238 -59 12 -8 42 -17 67 -21 25 -4 50 -10 55 -14 6 -4 24 -10 40 -14 17 -4 94 -38 172 -77 78 -38 145 -69 149 -69 34 0 314 -253 314 -284 0 -8 11 -35 25 -58 13 -24 37 -68 52 -98 15 -30 34 -60 43 -67 24 -17 63 -100 57 -117 -4 -9 -18 -16 -32 -16 -23 0 -26 -4 -23 -27 3 -31 38 -43 64 -22 11 9 18 8 34 -6 11 -10 20 -26 20 -36 0 -10 5 -21 10 -24 14 -9 13 -58 -2 -73 -7 -7 -8 -12 -3 -12 5 0 -9 -18 -30 -40 -32 -32 -46 -40 -76 -40 -29 0 -38 -4 -42 -22 l-6 -22 -23 21 c-13 12 -35 25 -50 28 -15 4 -32 13 -39 21 -7 9 -31 14 -62 14 -44 0 -55 -4 -74 -27 -21 -26 -24 -27 -37 -10 -19 25 -43 21 -77 -12 -34 -35 -37 -56 -8 -71 16 -9 18 -14 8 -26 -17 -21 -59 -17 -86 8 -14 13 -35 21 -53 20 -25 -1 -33 5 -41 26 -12 31 -20 23 106 104 100 65 214 177 245 243 34 70 39 186 12 246 -26 59 -88 139 -139 180 -122 99 -213 157 -275 178 -21 7 -44 20 -50 30 -17 23 -51 41 -79 41 -25 0 -61 11 -159 46 -36 13 -117 37 -180 53 -63 16 -160 42 -215 57 -147 40 -367 39 -351 -1 9 -24 -14 -28 -38 -6 -14 14 -35 21 -59 21 -31 0 -39 4 -47 26 -15 38 4 67 38 60 15 -3 45 -1 67 3 59 13 110 13 200 0z m-655 -74 c-7 -8 -17 -15 -22 -15 -16 0 -88 -61 -88 -74 0 -17 30 -43 55 -48 11 -2 20 -10 20 -18 0 -11 -12 -15 -45 -15 -38 0 -45 3 -50 24 -8 33 -21 36 -54 10 -20 -16 -27 -28 -23 -46 2 -13 1 -26 -4 -28 -11 -7 -39 -65 -39 -82 0 -20 -49 -36 -66 -22 -8 6 -14 17 -14 24 0 7 -7 16 -16 19 -13 5 -13 10 6 35 27 39 19 81 -15 81 -33 0 -38 14 -15 35 11 10 20 14 20 10 0 -5 5 -4 12 3 7 7 19 12 28 12 8 0 27 6 42 14 15 8 37 12 49 9 14 -4 25 0 31 11 5 9 13 14 18 11 5 -3 14 3 19 14 6 11 25 23 43 26 18 4 41 12 53 18 11 5 27 13 35 18 22 10 36 -7 20 -26z m160 -40 c10 -12 9 -16 -5 -21 -19 -8 -40 9 -31 25 10 15 21 14 36 -4z m84 -46 c-3 -5 -10 -7 -15 -3 -5 3 -7 10 -3 15 3 5 10 7 15 3 5 -3 7 -10 3 -15z m520 -20 c-3 -5 -10 -7 -15 -3 -5 3 -7 10 -3 15 3 5 10 7 15 3 5 -3 7 -10 3 -15z m51 1 c4 -6 10 -8 14 -5 15 9 254 -55 298 -80 23 -13 51 -21 62 -18 11 3 33 -4 50 -16 16 -12 38 -21 48 -21 25 0 192 -69 278 -115 97 -52 170 -107 242 -184 94 -100 111 -184 60 -286 -41 -82 -235 -246 -273 -231 -9 3 -22 2 -29 -4 -9 -7 -16 -6 -25 5 -7 8 -22 15 -35 15 -33 0 -37 11 -14 36 14 14 20 31 16 43 -3 14 6 35 29 63 19 24 34 48 34 55 0 6 10 19 21 27 20 14 21 20 14 78 -11 90 -11 132 0 138 6 3 15 -11 21 -30 6 -19 21 -40 33 -46 12 -6 32 -21 45 -33 32 -30 46 -26 46 14 0 31 -7 41 -77 96 -42 33 -86 65 -98 69 -30 11 -65 82 -65 129 0 46 -20 59 -46 30 -24 -26 -32 -25 -103 21 -105 68 -234 128 -378 175 -76 25 -145 49 -153 52 -8 3 -19 7 -25 8 -5 1 -14 3 -18 3 -11 2 1 22 13 22 5 0 12 -5 15 -10z m-394 -36 c24 -8 59 -16 77 -16 17 0 35 -4 38 -9 3 -5 27 -9 54 -9 27 0 52 -4 55 -10 3 -5 24 -10 45 -10 21 0 42 -5 45 -11 4 -6 19 -9 35 -7 15 1 34 -3 42 -10 9 -7 22 -10 30 -7 8 3 21 -1 28 -10 7 -8 22 -15 35 -15 20 0 61 -11 105 -27 8 -4 23 -5 32 -4 9 1 22 -7 28 -19 6 -12 22 -25 36 -30 15 -6 24 -17 24 -30 0 -26 27 -37 52 -21 26 16 70 5 98 -25 13 -13 28 -24 33 -24 6 0 22 -11 36 -24 14 -14 39 -36 56 -49 l29 -24 -31 -32 c-20 -20 -34 -27 -39 -20 -3 6 -22 9 -41 7 -32 -4 -39 1 -86 54 -27 32 -73 72 -101 89 -28 17 -61 40 -73 51 -27 25 -152 88 -174 88 -10 0 -21 5 -24 10 -3 6 -15 10 -26 10 -10 0 -28 5 -39 10 -11 6 -29 14 -39 20 -11 5 -49 12 -86 16 -36 4 -68 11 -71 15 -3 5 -22 9 -43 9 -21 0 -44 6 -50 13 -6 8 -23 12 -40 9 -16 -2 -39 3 -54 12 -16 11 -34 15 -50 11 -26 -7 -43 7 -32 25 9 14 36 12 86 -6z m-826 -3 c7 -12 -12 -24 -25 -16 -11 7 -4 25 10 25 5 0 11 -4 15 -9z m645 -76 c52 -8 118 -19 145 -25 28 -6 67 -13 88 -16 21 -4 40 -11 43 -15 3 -5 17 -9 31 -9 31 0 218 -59 323 -102 185 -77 358 -209 374 -288 16 -83 17 -97 1 -133 -22 -53 -92 -127 -120 -127 -14 0 -25 -7 -28 -20 -7 -28 -106 -88 -251 -154 -128 -57 -150 -64 -161 -46 -12 20 -44 10 -57 -17 -11 -24 -30 -34 -128 -66 -63 -21 -209 -63 -325 -92 -311 -81 -288 -76 -301 -60 -16 22 -38 18 -49 -7 -8 -19 -32 -29 -125 -55 -80 -22 -127 -30 -156 -26 -40 5 -116 -21 -154 -53 -8 -7 -24 -14 -34 -16 -19 -3 -20 2 -16 92 6 166 5 169 -15 185 -30 22 -60 15 -60 -14 0 -14 -7 -26 -15 -28 -8 -3 -25 -9 -38 -16 -32 -15 -53 6 -23 25 11 7 21 18 21 24 0 21 93 74 131 74 19 0 59 64 59 93 0 40 90 266 132 332 7 11 38 58 68 105 30 47 62 98 71 113 8 16 26 34 40 40 27 14 37 51 19 73 -19 22 -252 20 -271 -2 -12 -14 -14 -14 -25 1 -21 29 -57 11 -97 -48 -20 -29 -37 -57 -37 -61 0 -4 -13 -27 -30 -51 -16 -24 -30 -48 -30 -54 0 -6 -16 -34 -35 -63 -20 -29 -49 -74 -66 -100 -29 -45 -51 -59 -63 -40 -8 13 30 112 53 136 13 13 35 48 51 77 19 37 34 53 46 52 10 -1 23 6 30 15 12 17 13 106 1 118 -3 3 -2 17 4 31 5 13 9 40 9 59 0 41 20 53 55 34 17 -9 46 -11 102 -6 43 4 90 7 105 7 15 0 30 4 33 8 9 16 89 0 106 -21 12 -15 25 -19 65 -16 44 3 49 6 52 28 2 14 9 31 14 38 13 15 50 16 65 1 20 -20 82 0 127 41 70 65 92 69 246 45z m-1049 -133 c3 -17 4 -34 1 -37 -10 -10 -151 -5 -157 6 -14 21 26 49 71 49 24 0 46 5 49 11 12 18 29 4 36 -29z m5271 -225 c-2 -21 2 -44 8 -52 7 -8 8 -20 3 -27 -4 -7 -10 -38 -13 -68 -3 -36 -9 -55 -18 -55 -10 0 -13 27 -13 118 0 64 0 120 1 123 0 3 8 4 17 2 14 -3 17 -11 15 -41z m176 -77 c3 -112 -5 -147 -28 -124 -12 12 -16 216 -5 234 4 6 12 9 18 7 8 -2 13 -42 15 -117z m254 11 c-1 -60 3 -110 9 -117 14 -17 -4 -26 -24 -11 -13 10 -16 33 -17 117 -1 58 -1 109 -1 113 1 5 9 7 18 5 14 -3 16 -17 15 -107z m-5288 78 c-3 -5 -10 -7 -15 -3 -5 3 -7 10 -3 15 3 5 10 7 15 3 5 -3 7 -10 3 -15z m4559 15 c3 -4 2 -16 -4 -26 -13 -24 -35 -9 -26 16 7 17 19 21 30 10z m-6 -143 c1 -31 3 -63 5 -71 2 -8 -4 -15 -12 -15 -12 0 -15 15 -16 70 0 39 1 74 4 78 9 18 17 -7 19 -62z m-2677 -90 c0 -14 -162 -181 -170 -176 -4 3 -13 -2 -20 -10 -7 -8 -25 -21 -41 -29 -46 -23 -45 1 2 45 23 21 39 39 34 39 -4 0 -1 8 7 18 9 9 23 32 32 50 11 22 24 32 40 32 25 0 82 25 91 41 7 10 25 3 25 -10z m2144 -30 c66 -26 127 -81 152 -138 23 -52 23 -184 -1 -238 -20 -48 -92 -150 -129 -184 -14 -14 -26 -28 -26 -32 0 -4 28 -42 63 -86 34 -43 88 -112 120 -153 118 -152 213 -235 289 -254 51 -12 53 4 53 395 0 286 -3 359 -14 372 -18 22 0 29 65 25 38 -2 48 -6 44 -18 -3 -8 -7 -159 -10 -335 -4 -282 -2 -358 12 -440 l3 -20 -145 1 c-86 0 -160 5 -182 13 -20 6 -59 34 -86 61 -48 47 -164 192 -226 283 -16 23 -45 61 -64 85 l-34 43 -101 -3 -102 -3 -3 -195 c-3 -204 3 -241 40 -261 11 -6 17 -13 14 -16 -8 -9 -217 -9 -223 0 -2 4 2 10 11 13 8 3 19 19 25 35 14 42 25 604 16 833 l-7 189 -24 22 c-13 12 -21 25 -18 28 3 3 101 4 217 3 194 -2 217 -5 271 -25z m-2425 -205 c10 -12 3 -18 -36 -37 -26 -13 -55 -29 -63 -35 -19 -15 -43 -21 -50 -12 -4 6 116 95 131 97 4 1 12 -5 18 -13z m4601 -115 c0 -37 -10 -44 -33 -24 -16 15 -38 18 -126 18 l-106 0 -3 -154 c-2 -109 1 -158 10 -168 10 -12 31 -13 117 -8 58 4 110 8 116 9 9 1 8 -51 -2 -67 -2 -4 -14 0 -26 8 -22 15 -168 22 -201 9 -14 -5 -16 -28 -16 -152 0 -159 10 -204 47 -221 40 -18 164 -14 205 8 43 22 48 19 39 -17 l-7 -27 -187 -3 c-203 -3 -208 -2 -188 51 16 41 16 714 0 733 -7 9 -9 18 -3 24 9 9 338 19 357 12 4 -2 7 -16 7 -31z m-4768 14 c1 -13 -43 -35 -55 -28 -5 3 1 14 14 24 25 19 40 21 41 4z m3591 -13 c-2 -12 8 -50 21 -85 14 -34 61 -159 105 -277 44 -118 86 -230 93 -248 27 -69 33 -59 195 363 35 94 68 193 71 220 l7 50 33 3 c60 6 64 -1 32 -60 -26 -48 -73 -157 -167 -388 -77 -189 -147 -346 -159 -360 -9 -9 -17 -11 -23 -5 -5 6 -60 136 -121 290 -62 154 -118 294 -125 310 -40 92 -55 129 -55 140 0 7 -11 23 -24 36 -14 13 -22 27 -19 32 2 4 35 7 71 5 63 -3 67 -4 65 -26z m1611 20 c3 -5 -4 -16 -15 -25 -17 -15 -19 -31 -19 -188 0 -93 4 -179 10 -189 17 -32 145 -44 193 -18 74 39 105 155 72 265 -19 63 -46 98 -97 124 -30 15 -37 24 -29 32 16 16 107 -9 150 -41 39 -29 70 -92 71 -144 0 -53 -32 -130 -79 -192 -23 -29 -41 -59 -41 -67 0 -14 90 -132 184 -242 25 -30 64 -67 87 -82 49 -35 39 -50 -27 -40 -62 9 -114 58 -235 221 -82 111 -96 124 -123 125 -71 2 -121 -4 -129 -14 -12 -17 -1 -271 13 -296 17 -32 4 -41 -55 -41 -55 0 -76 13 -56 33 14 14 15 735 2 757 -6 8 -7 18 -5 22 7 11 121 10 128 0z m-5010 -31 c8 -12 -21 -34 -34 -26 -8 5 -8 11 1 21 13 16 25 18 33 5z m1152 -45 c-6 -22 11 -93 27 -113 5 -7 6 -16 3 -22 -4 -5 -8 -101 -11 -213 -2 -112 -9 -225 -14 -253 -24 -118 -25 -134 -6 -155 21 -23 21 -24 -47 -232 -65 -199 -57 -229 36 -147 31 28 51 38 57 32 14 -14 -79 -192 -142 -274 -28 -35 -63 -81 -79 -102 -102 -134 -343 -344 -383 -333 -14 3 -29 -2 -42 -14 -43 -41 -188 -101 -347 -145 -32 -9 -60 -21 -63 -26 -10 -15 -50 -10 -92 10 -99 51 -297 141 -308 141 -18 0 -195 79 -226 101 -15 10 -33 19 -41 19 -17 0 -258 120 -283 140 -19 15 -49 34 -80 49 -11 5 -42 32 -69 60 l-49 50 27 11 c15 5 32 10 37 10 6 0 17 16 25 35 16 39 13 39 84 -11 90 -63 394 -227 583 -313 287 -132 298 -136 341 -120 20 7 36 16 36 20 0 4 -19 16 -42 26 -157 69 -243 112 -243 123 0 15 42 30 98 34 26 2 43 11 58 30 12 15 30 26 44 26 13 0 37 8 53 17 25 14 31 25 34 65 4 42 12 55 52 93 41 40 46 50 46 88 0 49 -13 67 -50 67 -44 0 -75 -42 -76 -103 0 -47 -3 -52 -25 -55 -32 -5 -47 -19 -67 -61 -21 -43 -57 -64 -85 -49 -26 13 -66 -8 -73 -39 -4 -13 -15 -28 -25 -34 -11 -5 -19 -20 -19 -34 0 -33 -16 -40 -46 -20 -18 12 -23 21 -18 33 14 32 16 92 4 107 -31 37 -117 8 -124 -42 -2 -10 -11 -17 -20 -17 -20 2 -295 151 -316 171 -13 13 -13 16 4 26 77 48 110 110 86 166 -10 25 -9 33 3 52 15 21 13 49 -4 49 -4 0 -16 -9 -26 -19 l-18 -20 -59 20 c-53 17 -60 17 -70 3 -9 -12 -17 -13 -40 -4 -25 9 -30 7 -48 -16 -17 -22 -26 -25 -54 -19 -19 3 -41 1 -52 -6 -23 -14 -50 -6 -59 17 -7 19 95 126 144 149 18 9 33 20 33 25 0 18 358 220 391 220 4 0 36 13 71 29 94 43 289 116 503 186 396 130 606 221 784 340 108 72 170 125 211 180 l34 45 18 -17 c12 -11 17 -25 14 -37z m-1247 -42 c28 -14 49 -29 46 -34 -6 -9 -91 -40 -112 -40 -7 0 -36 -11 -65 -25 -56 -27 -83 -31 -93 -14 -4 5 -19 15 -33 20 -22 8 -23 12 -11 24 15 14 185 93 206 94 6 1 34 -11 62 -25z m413 -65 c-7 -11 -10 -24 -7 -29 4 -6 42 -10 85 -10 l79 0 13 -27 c17 -36 54 -41 101 -14 42 23 57 13 24 -15 -37 -32 -65 -44 -103 -44 -27 0 -37 5 -41 20 -4 15 -14 20 -39 20 -23 0 -37 -6 -44 -20 -6 -12 -21 -20 -35 -20 -22 0 -25 -5 -25 -34 0 -39 -14 -53 -35 -36 -22 18 -58 8 -65 -18 -5 -22 -49 -52 -78 -52 -8 0 -31 -12 -50 -27 -21 -15 -102 -49 -191 -78 -86 -29 -205 -75 -264 -103 -59 -29 -110 -52 -113 -52 -5 0 -149 -65 -176 -80 -9 -5 -52 -28 -95 -51 -43 -22 -85 -47 -94 -55 -8 -8 -20 -14 -25 -14 -14 0 -129 -92 -196 -157 -34 -34 -61 -53 -68 -48 -17 10 -79 110 -83 132 -1 10 -6 23 -9 29 -4 6 -5 38 -3 72 7 88 57 168 72 113 3 -12 11 -21 18 -21 6 0 20 -9 30 -20 24 -26 59 -22 63 7 2 16 -8 30 -40 53 -32 23 -42 37 -40 53 5 29 21 47 41 47 9 0 29 18 45 40 16 22 32 37 35 35 2 -3 15 5 28 17 16 15 27 18 34 11 7 -7 5 -14 -6 -23 -25 -21 -19 -42 13 -38 33 4 43 43 16 62 -16 12 -14 14 16 29 18 10 39 17 47 17 8 0 26 9 41 20 26 19 143 62 272 101 36 11 94 28 130 39 79 24 89 24 96 5 4 -8 14 -15 24 -15 27 0 36 -21 15 -36 -10 -8 -20 -25 -21 -40 -3 -23 0 -25 21 -20 69 18 75 23 75 72 0 54 25 95 73 119 47 24 96 28 103 10 8 -21 28 -19 49 5 10 11 23 20 30 20 7 0 20 9 30 20 22 24 40 25 79 5 37 -20 43 -19 49 5 3 11 16 24 29 29 13 5 30 16 38 25 12 15 15 16 29 1 13 -13 13 -19 3 -36z m-702 -28 c17 -32 -42 -71 -167 -110 -278 -87 -519 -201 -606 -287 -29 -28 -62 -56 -74 -63 -21 -10 -24 -8 -40 26 l-18 38 -69 0 c-43 1 -71 5 -73 12 -13 39 339 203 492 229 31 6 267 80 405 128 152 53 137 50 150 27z m-1071 -230 l21 -29 -25 -16 c-15 -10 -26 -12 -30 -6 -8 13 -52 13 -60 0 -12 -19 -55 -11 -64 13 -13 32 6 49 51 46 21 -2 43 2 50 9 19 19 35 14 57 -17z m-751 -278 c-16 -15 -18 -15 -24 0 -3 9 -3 25 0 34 6 15 8 15 24 0 15 -16 15 -18 0 -34z m832 2 c8 -20 16 -25 45 -25 42 0 52 -17 32 -57 -11 -21 -12 -46 -6 -105 9 -94 38 -162 103 -242 43 -53 47 -61 39 -89 -12 -43 -25 -43 -68 -2 -63 58 -109 42 -112 -39 -1 -27 -6 -53 -11 -58 -12 -12 -73 57 -66 75 2 7 -4 22 -16 32 -11 10 -20 24 -20 31 0 8 -18 31 -40 51 -29 28 -40 46 -40 67 0 17 -9 39 -19 50 -11 12 -24 39 -30 61 -12 46 4 81 41 87 16 2 26 16 39 52 12 35 24 52 46 62 16 8 37 28 47 44 21 36 24 37 36 5z m-344 -171 c-6 -16 -8 -16 -23 -2 -9 10 -13 23 -9 34 6 16 8 16 23 2 9 -10 13 -23 9 -34z m42 -82 c4 -51 -23 -99 -44 -81 -14 11 -20 119 -8 132 3 3 16 2 27 -2 17 -6 23 -18 25 -49z m3802 -72 c3 -1 14 -2 25 -1 29 2 60 -23 52 -43 -6 -15 -10 -14 -44 7 -21 12 -49 22 -63 21 -29 -2 -42 4 -35 16 5 7 49 7 65 0z m635 -5 c0 -5 -11 -10 -25 -10 -30 -1 -42 4 -36 14 7 10 61 7 61 -4z m1510 6 c7 -12 -12 -24 -25 -16 -11 7 -4 25 10 25 5 0 11 -4 15 -9z m-2250 -28 c-11 -7 -22 -13 -27 -13 -13 0 -38 -57 -38 -87 0 -44 31 -85 124 -163 48 -40 98 -93 113 -117 49 -84 28 -188 -50 -244 -50 -36 -70 -26 -24 12 45 37 62 97 41 148 -9 21 -60 80 -124 141 -118 114 -139 152 -126 224 11 58 90 136 120 118 5 -3 1 -11 -9 -19z m630 17 c3 -6 -2 -13 -12 -16 -88 -28 -145 -75 -176 -144 -31 -67 -30 -216 1 -284 32 -71 66 -112 126 -152 93 -62 244 -71 320 -19 38 25 54 19 36 -15 -16 -30 -43 -40 -128 -47 -176 -13 -327 47 -397 157 -62 98 -69 230 -20 338 34 75 87 128 160 163 66 31 81 34 90 19z m283 -9 c20 -5 28 -15 30 -35 7 -55 -5 -61 -47 -23 -21 19 -54 38 -72 42 -43 9 -51 14 -43 26 6 10 75 5 132 -10z m1478 -17 c62 -29 68 -29 110 -3 19 11 34 17 34 14 0 -4 7 -2 15 5 8 7 15 10 15 6 0 -3 0 -9 0 -13 0 -5 -3 -8 -7 -8 -13 0 -73 -46 -73 -55 0 -5 13 -30 29 -57 62 -101 64 -230 6 -357 -20 -43 -25 -64 -18 -75 16 -25 73 -60 117 -72 73 -20 70 -19 58 -31 -17 -17 -123 6 -181 38 -54 30 -58 30 -114 -1 -53 -30 -74 -17 -22 14 20 11 38 28 41 36 4 9 -8 43 -26 77 -29 53 -34 74 -38 152 -3 76 -1 100 17 148 12 31 28 62 36 68 36 29 4 77 -73 112 -46 21 -48 42 -4 32 15 -3 50 -17 78 -30z m461 4 c55 -26 107 -78 141 -141 24 -47 27 -62 27 -152 0 -89 -3 -107 -28 -160 -15 -33 -45 -77 -65 -98 -40 -41 -120 -92 -129 -83 -4 3 -12 1 -20 -5 -7 -6 -13 -9 -13 -5 0 3 0 9 0 14 0 4 3 7 8 8 18 2 50 20 83 46 93 74 125 262 69 411 -21 57 -91 133 -148 161 -18 9 -30 21 -27 26 8 12 46 4 102 -22z m-1607 -13 c-3 -16 -5 -77 -5 -135 l0 -105 45 -5 c25 -3 45 -9 45 -15 0 -5 -20 -12 -45 -15 l-45 -5 1 -158 c1 -108 5 -162 14 -172 15 -18 17 -17 -45 -20 -60 -2 -70 2 -53 22 17 21 25 581 9 611 -14 26 -4 33 44 30 l40 -3 -5 -30z m470 15 c-3 -8 -5 -148 -5 -311 0 -236 3 -299 14 -312 16 -20 18 -19 -44 -22 -60 -2 -70 2 -53 22 8 10 14 66 16 174 l4 158 -146 3 c-194 4 -198 21 -6 28 l145 5 3 98 c1 54 -1 113 -7 132 -5 18 -6 36 -3 40 4 3 24 5 47 3 30 -2 39 -7 35 -18z m375 -4 c-52 -30 -105 -91 -125 -142 -24 -67 -27 -196 -5 -270 31 -105 108 -185 201 -209 58 -14 53 -31 -8 -27 -104 6 -207 83 -255 190 -21 47 -26 73 -27 147 -1 78 3 98 26 147 30 64 97 137 154 166 39 20 74 18 39 -2z m1165 -1 c-3 -11 -5 -142 -5 -290 0 -327 -1 -322 97 -327 36 -2 62 -7 60 -13 -2 -9 -226 -16 -245 -7 -4 2 -2 11 5 19 17 20 25 582 9 611 -14 26 -4 33 44 30 34 -3 39 -6 35 -23z m-6811 -200 c32 -44 38 -57 26 -61 -25 -10 -40 1 -64 49 -19 37 -22 67 -7 67 2 0 22 -25 45 -55z m482 -21 c15 -15 25 -33 22 -40 -3 -8 0 -21 7 -29 11 -13 10 -21 0 -41 -11 -19 -11 -32 -3 -55 16 -42 2 -43 -34 0 -46 56 -58 111 -37 179 5 18 15 15 45 -14z m-411 -98 c-13 -13 -35 7 -25 24 5 8 11 8 21 -1 10 -8 12 -15 4 -23z m330 -98 c23 -35 58 -79 77 -99 23 -24 31 -39 23 -44 -15 -9 -40 9 -130 93 l-75 70 19 21 c11 11 25 21 32 21 7 0 31 -28 54 -62z m-47 -180 c-8 -14 -32 -8 -45 10 -7 10 -21 21 -30 25 -17 6 -24 37 -12 50 8 8 93 -76 87 -85z m3153 -23 c44 -15 41 -31 -6 -27 -44 4 -80 27 -80 51 0 29 14 34 32 10 10 -12 34 -27 54 -34z m-2866 -59 c-9 -9 -100 57 -100 73 0 22 17 16 61 -22 30 -25 45 -45 39 -51z m6415 54 c-11 -13 -28 -20 -42 -18 -30 4 -35 22 -6 26 12 2 27 10 34 18 8 10 15 12 22 5 7 -7 5 -17 -8 -31z m-6620 -40 c6 0 29 -18 53 -39 27 -25 49 -37 61 -34 11 3 23 -4 34 -20 10 -16 29 -26 55 -30 21 -4 51 -16 65 -27 29 -23 87 -27 87 -7 0 8 -11 24 -25 37 -19 18 -22 26 -14 37 18 20 41 16 125 -25 44 -21 106 -49 139 -61 33 -12 67 -27 75 -32 8 -5 25 -13 38 -19 26 -11 27 -19 8 -46 -13 -16 -18 -17 -36 -6 -16 10 -38 10 -106 1 -65 -8 -88 -8 -99 1 -18 15 -35 5 -35 -21 0 -23 -27 -36 -43 -20 -6 6 -23 11 -38 11 -15 0 -31 5 -34 10 -3 6 -14 10 -24 10 -10 0 -32 7 -49 16 -24 12 -32 22 -32 42 0 30 -56 82 -88 82 -20 0 -55 32 -47 43 3 4 2 5 -1 3 -10 -8 -98 65 -122 100 -31 46 -17 67 17 25 14 -17 31 -31 36 -31z m5389 19 c-3 -5 -10 -7 -15 -3 -5 3 -7 10 -3 15 3 5 10 7 15 3 5 -3 7 -10 3 -15z m470 0 c-3 -5 -10 -7 -15 -3 -5 3 -7 10 -3 15 3 5 10 7 15 3 5 -3 7 -10 3 -15z m-5584 -93 c-13 -13 -35 7 -25 24 5 8 11 8 21 -1 10 -8 12 -15 4 -23z m295 -276 c-14 -15 -21 -17 -32 -9 -19 16 -16 28 10 38 31 13 45 -4 22 -29z"/>
<path d="M4060 3831 c0 -16 -4 -33 -10 -36 -5 -3 -10 -16 -10 -29 0 -12 -11 -46 -25 -75 -14 -28 -23 -56 -20 -62 9 -13 45 -11 45 4 0 6 9 23 20 37 11 14 20 41 20 61 0 19 5 40 11 46 17 17 7 77 -13 81 -14 3 -18 -3 -18 -27z"/>
<path d="M3830 3606 c0 -22 11 -46 21 -46 5 0 9 14 9 30 0 20 -5 30 -15 30 -8 0 -15 -6 -15 -14z"/>
<path d="M2033 4273 c-35 -18 -44 -49 -16 -55 10 -2 18 -12 18 -23 0 -21 1 -21 80 -9 60 9 85 53 49 88 -20 21 -89 20 -131 -1z"/>
<path d="M1284 4186 c-15 -12 -17 -17 -6 -27 10 -11 15 -10 29 4 24 23 4 43 -23 23z"/>
<path d="M2263 4082 c9 -89 17 -101 46 -83 12 8 13 18 3 62 -22 96 -58 111 -49 21z"/>
<path d="M3105 3986 l-19 -14 17 -26 c20 -31 53 -34 60 -7 5 19 -17 61 -32 61 -4 0 -16 -6 -26 -14z"/>
<path d="M2319 3833 c-1 -10 -2 -25 -3 -33 -1 -11 -16 -16 -60 -18 l-58 -3 5 -52 c2 -28 0 -59 -6 -68 -13 -22 6 -49 35 -49 11 0 31 -9 45 -20 58 -45 139 -14 181 69 14 29 23 35 57 38 78 8 101 69 44 117 -37 31 -49 32 -82 6 -14 -11 -32 -20 -40 -20 -9 0 -19 -4 -22 -10 -13 -20 -35 -9 -49 25 -16 37 -45 48 -47 18z"/>
<path d="M2975 3778 c15 -48 55 -60 69 -21 9 23 -12 43 -46 43 -26 0 -29 -3 -23 -22z"/>
<path d="M2053 3653 c-42 -29 -24 -83 28 -83 52 0 77 51 41 83 -23 21 -40 21 -69 0z"/>
<path d="M2549 3604 c-10 -13 -10 -17 2 -25 32 -20 61 0 39 26 -16 19 -24 19 -41 -1z"/>
<path d="M1645 3438 c4 -13 8 -35 8 -50 0 -24 4 -28 29 -28 16 0 39 -5 50 -11 30 -16 68 6 68 41 0 40 -47 70 -111 70 l-51 0 7 -22z"/>
<path d="M5281 3777 c-19 -23 -16 -516 3 -535 17 -17 138 -33 191 -25 115 17 175 110 175 269 0 123 -47 224 -128 271 -36 21 -60 27 -136 31 -75 4 -94 2 -105 -11z"/>
<path d="M3405 2830 c-11 -5 -34 -9 -51 -9 -43 -1 -67 -25 -95 -96 -21 -52 -24 -77 -24 -185 0 -69 4 -134 8 -145 l8 -20 15 19 c8 11 14 30 14 42 0 32 22 46 53 35 l26 -10 -16 -31 c-38 -76 13 -134 107 -123 43 5 52 10 70 40 45 76 23 102 -115 138 -19 5 -5 87 15 92 17 5 58 81 63 118 1 11 -5 48 -13 83 -15 64 -22 70 -65 52z"/>
<path d="M3593 1900 c-12 -5 -29 -25 -37 -44 -8 -19 -24 -41 -35 -48 -16 -10 -21 -23 -21 -57 0 -26 -6 -52 -15 -61 -16 -17 -11 -50 7 -50 5 0 21 9 35 20 14 11 31 20 39 20 7 0 33 9 57 19 74 32 120 134 83 183 -15 21 -82 31 -113 18z"/>
<path d="M2680 3009 c0 -27 3 -30 28 -27 21 2 28 9 30 31 3 24 0 27 -27 27 -28 0 -31 -3 -31 -31z"/>
<path d="M2387 2973 c-4 -3 -7 -17 -7 -30 0 -21 4 -24 27 -21 18 2 29 10 31 22 5 26 -33 48 -51 29z"/>
<path d="M2827 2953 c-11 -10 -8 -53 4 -53 23 0 49 22 49 40 0 14 -7 20 -23 20 -13 0 -27 -3 -30 -7z"/>
<path d="M2207 2713 c-4 -3 -7 -17 -7 -29 0 -16 7 -24 22 -26 14 -2 24 -12 28 -28 8 -32 50 -42 50 -11 0 11 -11 27 -24 36 -17 11 -22 22 -18 40 4 21 1 25 -20 25 -14 0 -28 -3 -31 -7z"/>
<path d="M2047 2553 c-15 -14 -7 -43 12 -43 18 0 35 33 23 44 -7 8 -27 7 -35 -1z"/>
<path d="M1820 2665 c0 -16 9 -19 34 -9 25 9 19 24 -9 24 -16 0 -25 -6 -25 -15z"/>
<path d="M1802 2538 c-21 -21 -13 -38 18 -38 23 0 30 5 30 19 0 10 -7 22 -16 25 -20 8 -18 8 -32 -6z"/>
<path d="M7631 2246 c-22 -90 0 -271 35 -283 44 -15 45 257 1 315 -16 21 -24 14 -36 -32z"/>
</g>
</g>
  <g id="id1:id1" transform="matrix(1.25,0,0,1.25,0.0,0.0)"><g transform="translate(0.000000,256.800000) scale(0.040000,-0.040000)" fill="#004e79" stroke="none">
<path d="M2050 4365 c-19 -20 -21 -27 -10 -40 15 -18 145 -22 155 -5 9 14 -10 36 -48 55 -43 21 -70 19 -97 -10z"/>
<path d="M2232 4348 c-18 -18 -15 -25 20 -42 40 -20 72 -20 88 0 11 12 10 18 -3 31 -13 14 -19 14 -32 3 -13 -11 -18 -10 -33 4 -22 19 -25 19 -40 4z"/>
<path d="M2516 4291 c-20 -22 -14 -41 13 -41 22 0 55 35 46 49 -10 17 -40 13 -59 -8z"/>
<path d="M3720 4295 c-15 -19 3 -45 31 -45 27 0 33 19 13 41 -21 23 -28 24 -44 4z"/>
<path d="M1905 4230 c-33 -12 -42 -32 -37 -77 3 -29 13 -49 33 -69 l29 -27 21 19 c16 15 20 27 16 56 -3 25 0 41 9 49 8 7 14 22 12 33 -3 22 -45 30 -83 16z"/>
<path d="M2300 4230 c0 -5 5 -10 10 -10 6 0 10 5 10 10 0 6 -4 10 -10 10 -5 0 -10 -4 -10 -10z"/>
<path d="M2936 4171 c-18 -19 -15 -41 5 -41 6 0 28 -14 49 -31 37 -30 67 -32 56 -3 -3 7 -1 16 4 19 18 11 10 21 -40 48 -27 15 -51 27 -53 27 -2 0 -12 -9 -21 -19z"/>
<path d="M2342 4169 c-31 -12 -23 -33 13 -39 27 -5 29 -8 33 -60 1 -29 8 -60 14 -67 18 -22 50 -10 70 26 l19 34 -20 21 c-12 12 -21 32 -21 43 0 11 -6 25 -12 30 -20 16 -71 22 -96 12z"/>
<path d="M2160 4155 c-10 -13 -9 -19 6 -36 10 -11 19 -34 20 -50 2 -39 21 -59 55 -59 16 0 32 -7 38 -17 8 -14 12 -15 25 -4 20 17 20 58 0 118 -17 51 -33 68 -48 53 -13 -13 -53 -13 -61 0 -9 14 -21 12 -35 -5z"/>
<path d="M3880 4134 c-11 -12 -10 -18 3 -32 16 -15 18 -15 34 0 13 14 14 20 3 32 -7 9 -16 16 -20 16 -4 0 -13 -7 -20 -16z"/>
<path d="M3600 4130 c0 -5 5 -10 10 -10 6 0 10 5 10 10 0 6 -4 10 -10 10 -5 0 -10 -4 -10 -10z"/>
<path d="M6083 4086 c3 -8 3 -17 -1 -20 -3 -4 -5 -47 -3 -97 2 -58 -1 -95 -9 -104 -15 -18 -5 -35 21 -35 11 0 18 4 15 8 -3 5 -6 60 -7 123 l-2 114 52 3 c72 4 64 22 -10 22 -48 0 -60 -3 -56 -14z"/>
<path d="M2560 4050 c0 -5 7 -10 15 -10 8 0 15 5 15 10 0 6 -7 10 -15 10 -8 0 -15 -4 -15 -10z"/>
<path d="M3962 3978 c-19 -19 -14 -63 8 -83 15 -14 23 -16 32 -7 15 15 14 67 -2 86 -15 19 -22 20 -38 4z"/>
<path d="M1880 3956 c-6 -8 -17 -13 -24 -10 -20 8 -27 -23 -10 -41 21 -20 117 -21 134 0 15 18 8 30 -32 49 -39 20 -52 20 -68 2z"/>
<path d="M2975 3910 c-33 -33 -37 -42 -25 -50 10 -6 21 -3 35 10 12 11 26 20 32 20 6 0 16 7 23 15 10 12 10 18 0 30 -18 21 -21 20 -65 -25z"/>
<path d="M1755 3931 c-8 -15 3 -31 21 -31 9 0 14 7 12 17 -4 20 -24 28 -33 14z"/>
<path d="M1562 3837 c-29 -29 -52 -60 -52 -70 0 -9 -9 -32 -20 -52 -12 -22 -20 -57 -22 -95 -2 -43 -7 -65 -20 -77 -10 -8 -15 -20 -12 -24 10 -17 25 -8 39 24 7 17 27 45 44 61 17 17 31 40 31 52 0 13 5 26 10 29 6 3 10 17 10 30 0 13 5 27 10 30 6 3 10 18 10 32 0 18 11 36 32 53 28 24 31 30 19 44 -7 9 -16 16 -20 16 -4 0 -30 -24 -59 -53z"/>
<path d="M2520 3875 c-11 -13 -9 -20 13 -43 15 -16 27 -33 27 -40 0 -19 18 -14 34 10 19 27 21 59 4 76 -17 17 -63 15 -78 -3z"/>
<path d="M6140 3855 c0 -9 9 -15 21 -15 18 0 19 2 9 15 -7 8 -16 15 -21 15 -5 0 -9 -7 -9 -15z"/>
<path d="M4060 3836 c0 -14 -4 -28 -10 -31 -5 -3 -10 -19 -10 -35 0 -16 -9 -45 -20 -65 -21 -37 -27 -85 -11 -85 12 0 61 106 61 131 0 11 5 28 11 38 13 20 5 71 -11 71 -6 0 -10 -11 -10 -24z"/>
<path d="M2834 3836 c-31 -17 -54 -37 -54 -46 0 -13 60 -40 88 -40 14 0 36 -10 49 -22 20 -19 25 -20 37 -7 8 8 17 24 21 37 5 17 2 24 -15 30 -12 4 -27 19 -33 32 -14 29 -59 36 -93 16z"/>
<path d="M2105 3820 c-16 -18 -17 -22 -4 -34 8 -8 37 -16 65 -18 l51 -5 0 29 c0 22 -6 30 -24 33 -12 3 -34 7 -47 10 -15 3 -29 -2 -41 -15z"/>
<path d="M2980 3810 c0 -5 5 -10 10 -10 6 0 10 5 10 10 0 6 -4 10 -10 10 -5 0 -10 -4 -10 -10z"/>
<path d="M3750 3784 c-11 -12 -10 -18 3 -32 16 -15 18 -15 34 0 13 14 14 20 3 32 -7 9 -16 16 -20 16 -4 0 -13 -7 -20 -16z"/>
<path d="M3102 3758 c-18 -18 -15 -24 19 -49 21 -15 34 -18 41 -11 7 7 4 20 -11 41 -25 34 -31 37 -49 19z"/>
<path d="M2615 3729 c-16 -16 -26 -19 -58 -14 -36 7 -38 6 -29 -12 6 -10 19 -27 31 -37 17 -15 23 -16 36 -6 8 7 15 18 15 26 0 20 19 27 36 13 12 -10 18 -9 31 4 9 8 13 23 10 31 -9 23 -50 20 -72 -5z"/>
<path d="M3800 3730 c0 -5 5 -10 10 -10 6 0 10 5 10 10 0 6 -4 10 -10 10 -5 0 -10 -4 -10 -10z"/>
<path d="M5630 3705 c-6 -8 -9 -19 -5 -25 3 -5 -1 -13 -9 -16 -9 -3 -16 -12 -16 -20 0 -16 16 -19 24 -5 4 5 20 3 37 -6 52 -26 57 10 10 70 -17 21 -25 21 -41 2z"/>
<path d="M3890 3684 c-11 -12 -10 -18 3 -32 16 -15 18 -15 34 0 13 14 14 20 3 32 -7 9 -16 16 -20 16 -4 0 -13 -7 -20 -16z"/>
<path d="M2546 3614 c-22 -21 -3 -56 27 -52 37 5 33 67 -5 68 -4 0 -14 -7 -22 -16z"/>
<path d="M2768 3603 c-14 -13 -20 -14 -32 -4 -26 21 -26 -5 0 -30 l25 -23 26 26 c14 14 22 31 19 37 -10 15 -19 14 -38 -6z"/>
<path d="M1591 3586 c-25 -27 -26 -74 -1 -86 8 -4 25 -12 38 -19 26 -13 44 -7 36 13 -3 8 0 17 6 21 14 9 3 44 -23 73 -26 28 -28 27 -56 -2z"/>
<path d="M5162 3577 c-18 -19 -22 -35 -22 -85 0 -53 4 -65 26 -87 21 -21 29 -24 35 -13 20 30 5 103 -21 103 -5 0 -10 5 -9 10 0 6 6 9 13 7 8 -1 21 9 31 24 16 24 16 27 -1 45 -22 24 -26 24 -52 -4z"/>
<path d="M2154 3569 c-10 -17 23 -46 38 -31 8 8 8 15 -2 27 -15 18 -26 19 -36 4z"/>
<path d="M5653 3528 c-6 -7 -13 -27 -16 -44 -5 -25 -1 -36 19 -54 l24 -23 25 23 c32 30 32 50 -3 83 -32 31 -36 32 -49 15z"/>
<path d="M1846 3501 c-27 -30 -17 -71 23 -93 l34 -19 26 25 25 26 -39 40 c-21 22 -42 40 -45 40 -4 0 -15 -9 -24 -19z"/>
<path d="M7064 3474 c4 -14 15 -33 25 -43 10 -10 23 -27 29 -37 6 -10 14 -16 18 -12 4 4 2 14 -4 21 -14 16 -6 28 14 20 8 -3 14 -1 14 5 0 5 -6 12 -14 15 -8 3 -16 16 -18 29 -2 18 -10 23 -36 24 -31 2 -33 0 -28 -22z"/>
<path d="M6522 3478 c-7 -7 -12 -17 -12 -24 0 -24 67 -139 81 -139 17 0 25 43 10 58 -6 6 -11 25 -11 42 0 20 -9 40 -23 53 -27 26 -29 26 -45 10z"/>
<path d="M8098 3478 c-9 -7 -18 -22 -20 -32 -4 -28 54 -31 78 -5 31 34 -20 66 -58 37z"/>
<path d="M7460 3470 c0 -5 5 -10 10 -10 6 0 10 5 10 10 0 6 -4 10 -10 10 -5 0 -10 -4 -10 -10z"/>
<path d="M1961 3416 c-9 -11 -8 -22 7 -47 l19 -34 67 -3 c53 -2 73 1 87 14 11 9 19 21 19 25 0 10 -59 39 -81 39 -10 0 -21 5 -24 10 -9 15 -81 12 -94 -4z"/>
<path d="M7434 3412 c-23 -20 -42 -102 -23 -102 6 0 9 7 6 15 -8 20 11 29 28 15 11 -9 19 -10 28 -1 16 13 27 5 27 -21 0 -10 5 -18 10 -18 22 0 10 68 -17 99 -32 36 -31 36 -59 13z"/>
<path d="M5740 3410 c0 -5 5 -10 10 -10 6 0 10 5 10 10 0 6 -4 10 -10 10 -5 0 -10 -4 -10 -10z"/>
<path d="M4270 3345 c-25 -25 -58 -53 -74 -61 -27 -13 -31 -13 -52 7 -19 18 -25 19 -43 7 -27 -17 -27 -36 2 -47 12 -5 31 -18 41 -30 24 -27 59 -19 96 23 24 26 30 29 44 17 26 -21 66 21 66 69 0 32 -14 60 -30 60 -3 0 -26 -20 -50 -45z"/>
<path d="M1830 3353 c-25 -9 -60 -46 -60 -63 0 -31 23 -40 102 -40 61 0 80 -3 84 -15 4 -8 13 -15 21 -15 9 0 13 6 10 14 -3 7 -1 18 5 24 17 17 -6 38 -77 72 -35 17 -64 30 -66 29 -2 0 -11 -3 -19 -6z"/>
<path d="M2915 3340 c-3 -5 -12 -7 -20 -3 -22 8 -18 -11 5 -32 l21 -19 21 21 c21 21 18 43 -7 43 -8 0 -16 -4 -20 -10z"/>
<path d="M1642 3318 c-17 -17 -15 -43 4 -58 13 -11 19 -10 36 8 l22 21 -19 21 c-21 23 -27 24 -43 8z"/>
<path d="M7432 3267 c-24 -25 -41 -87 -24 -87 5 0 13 7 16 16 5 13 9 14 21 4 33 -27 64 47 33 78 -17 17 -21 15 -46 -11z"/>
<path d="M1434 3229 c-10 -17 13 -36 27 -22 12 12 4 33 -11 33 -5 0 -12 -5 -16 -11z"/>
<path d="M5186 3180 c-51 -56 -59 -90 -23 -105 13 -6 23 -21 25 -37 7 -60 62 -57 62 3 0 18 7 32 20 39 17 9 18 14 9 32 -10 18 -8 25 11 40 l23 19 -19 14 c-10 8 -15 15 -10 15 16 0 -16 30 -34 30 -9 0 -38 -23 -64 -50z"/>
<path d="M1471 3179 c-17 -23 -20 -34 -12 -42 9 -9 18 -4 36 18 13 17 23 34 21 39 -5 21 -23 15 -45 -15z"/>
<path d="M4192 3167 c-19 -20 -22 -35 -22 -108 1 -58 5 -90 15 -103 8 -11 15 -37 15 -58 0 -58 16 -45 23 18 3 31 11 62 16 67 15 15 14 180 -1 195 -17 17 -21 15 -46 -11z"/>
<path d="M6635 3145 l-27 -34 17 -46 c19 -48 29 -55 39 -27 13 35 38 73 52 79 24 9 16 31 -18 47 -17 9 -32 16 -34 16 -2 0 -15 -16 -29 -35z"/>
<path d="M3854 3153 c-25 -12 -31 -21 -30 -44 1 -16 9 -36 19 -46 16 -16 18 -16 39 4 l22 22 -18 20 -17 19 18 10 c32 19 2 32 -33 15z"/>
<path d="M5574 3139 c-10 -17 13 -36 27 -22 12 12 4 33 -11 33 -5 0 -12 -5 -16 -11z"/>
<path d="M7440 3135 c-16 -19 3 -45 32 -45 10 0 21 -7 24 -15 11 -28 27 -16 20 17 -11 55 -48 77 -76 43z"/>
<path d="M5640 3107 c-37 -19 -36 -44 1 -83 18 -19 36 -34 40 -34 4 0 17 14 29 30 l22 31 -27 34 c-29 39 -30 40 -65 22z"/>
<path d="M8101 3074 c-30 -33 -33 -57 -8 -53 7 1 20 -1 30 -6 37 -16 66 52 35 83 -18 18 -23 16 -57 -24z"/>
<path d="M7400 3080 c0 -5 5 -10 10 -10 6 0 10 5 10 10 0 6 -4 10 -10 10 -5 0 -10 -4 -10 -10z"/>
<path d="M3742 3052 c-39 -19 -40 -49 -2 -44 30 3 65 36 56 51 -9 13 -12 13 -54 -7z"/>
<path d="M1884 2979 c-4 -6 -20 -8 -40 -4 -44 8 -43 -5 1 -49 19 -20 35 -40 35 -45 0 -11 94 35 111 55 19 23 -16 54 -62 54 -21 0 -41 -5 -45 -11z"/>
<path d="M3780 2973 c-49 -3 -70 -9 -87 -25 -39 -37 -25 -58 37 -58 16 0 32 -4 35 -10 3 -5 17 -10 30 -10 13 0 27 -4 30 -10 9 -15 36 -12 56 6 13 12 16 25 12 52 -6 33 -28 64 -43 60 -3 -1 -34 -3 -70 -5z"/>
<path d="M5197 2953 c-13 -12 -7 -81 8 -93 12 -10 18 -10 30 0 19 16 19 29 -1 68 -15 32 -25 38 -37 25z"/>
<path d="M7478 2953 c-14 -2 -32 -11 -39 -19 -16 -20 4 -39 49 -47 l32 -6 0 39 c0 22 -3 39 -7 39 -5 -1 -20 -4 -35 -6z"/>
<path d="M3400 2935 c-15 -18 2 -45 30 -45 28 0 45 27 30 45 -7 8 -20 15 -30 15 -10 0 -23 -7 -30 -15z"/>
<path d="M2838 2929 c-10 -5 -18 -14 -18 -19 0 -14 34 -12 48 2 26 26 5 38 -30 17z"/>
<path d="M5760 2894 c-11 -12 -10 -18 3 -32 16 -15 18 -15 34 0 13 14 14 20 3 32 -7 9 -16 16 -20 16 -4 0 -13 -7 -20 -16z"/>
<path d="M3242 2878 c-22 -22 -14 -62 20 -91 29 -26 33 -27 47 -12 15 15 14 17 -1 26 -10 6 -18 19 -18 29 0 10 8 24 18 29 15 9 15 12 2 21 -20 13 -53 13 -68 -2z"/>
<path d="M7400 2880 c0 -5 5 -10 10 -10 6 0 10 5 10 10 0 6 -4 10 -10 10 -5 0 -10 -4 -10 -10z"/>
<path d="M6775 2850 c-10 -16 12 -37 37 -35 23 2 33 30 11 30 -6 0 -15 3 -19 8 -10 10 -22 9 -29 -3z"/>
<path d="M2580 2790 c-14 -11 -35 -20 -47 -20 -12 0 -25 -4 -28 -10 -3 -5 -15 -10 -26 -10 -27 0 -57 -18 -111 -69 -40 -38 -49 -42 -63 -31 -20 16 -32 5 -15 -14 6 -9 22 -14 33 -13 14 1 25 -6 32 -20 11 -27 14 -27 39 -8 15 11 17 17 7 29 -10 11 -6 17 19 30 27 13 32 13 37 0 8 -22 23 -16 20 9 -1 14 3 22 13 22 8 0 14 -6 13 -12 -4 -16 2 -16 30 -2 32 17 32 18 11 33 l-19 15 19 7 c13 5 23 2 31 -9 16 -22 29 -22 21 -1 -3 9 3 29 15 45 18 26 19 49 1 49 -4 0 -18 -9 -32 -20z"/>
<path d="M2976 2771 l-17 -19 30 -33 c17 -18 28 -36 26 -39 -3 -4 -29 -20 -60 -34 -30 -15 -57 -31 -60 -36 -3 -5 3 -24 13 -42 30 -53 66 -50 127 12 27 27 54 50 60 50 6 0 25 15 43 33 38 39 41 75 9 105 -32 30 -145 32 -171 3z"/>
<path d="M7450 2765 c-19 -21 -21 -27 -10 -40 28 -34 87 5 64 42 -16 26 -28 26 -54 -2z"/>
<path d="M2850 2725 c-25 -26 -74 -55 -95 -55 -7 0 -45 -17 -86 -38 -75 -38 -92 -60 -69 -87 23 -27 63 -18 105 25 22 22 49 40 61 40 12 0 27 7 34 15 14 17 64 42 94 47 28 4 44 34 30 56 -17 26 -47 26 -74 -3z"/>
<path d="M2620 2730 c0 -5 5 -10 10 -10 6 0 10 5 10 10 0 6 -4 10 -10 10 -5 0 -10 -4 -10 -10z"/>
<path d="M1815 2690 c-10 -11 -23 -20 -30 -20 -17 0 -55 -43 -55 -62 0 -9 16 -30 36 -46 22 -18 32 -32 25 -36 -23 -14 -10 -26 29 -26 33 0 40 4 40 19 0 10 -7 21 -15 25 -19 7 -19 34 -1 72 16 34 16 86 0 91 -6 2 -19 -6 -29 -17z"/>
<path d="M3482 2618 c-23 -23 -13 -63 23 -98 32 -31 37 -33 50 -19 14 14 13 21 -12 69 -30 58 -42 67 -61 48z"/>
<path d="M2240 2611 c0 -13 29 -35 37 -28 7 8 -15 37 -28 37 -5 0 -9 -4 -9 -9z"/>
<path d="M2463 2597 c-27 -12 -30 -35 -5 -44 9 -3 27 -15 39 -26 16 -14 29 -18 48 -13 32 8 30 35 -3 52 -12 6 -30 18 -39 26 -14 12 -23 13 -40 5z"/>
<path d="M1647 2582 c-23 -25 -22 -26 18 -107 36 -73 115 -162 134 -151 6 4 11 24 11 44 0 32 -8 45 -50 87 -34 33 -48 55 -45 66 3 10 1 20 -5 24 -6 4 -15 18 -20 31 -11 29 -21 30 -43 6z"/>
<path d="M2053 2539 c-14 -14 -6 -39 13 -39 8 0 14 10 14 25 0 27 -9 32 -27 14z"/>
<path d="M2358 2534 c-33 -17 -34 -21 -8 -42 20 -16 20 -19 5 -49 -9 -18 -25 -35 -35 -38 -27 -9 -25 -20 6 -34 22 -10 30 -9 44 4 9 8 26 15 38 15 11 0 24 5 27 10 3 6 16 10 29 10 13 0 31 9 42 21 16 17 16 22 4 29 -8 6 -27 10 -43 10 -19 0 -30 7 -36 23 -5 12 -17 30 -27 39 -17 15 -22 15 -46 2z"/>
<path d="M4201 2536 c-14 -17 -11 -118 4 -123 6 -1 24 8 40 21 24 20 28 27 18 37 -7 7 -13 22 -13 34 0 20 -17 45 -31 45 -4 0 -12 -6 -18 -14z"/>
<path d="M2113 2491 c-30 -25 -29 -35 8 -61 28 -21 31 -21 49 -5 l19 17 -18 31 c-21 38 -30 41 -58 18z"/>
<path d="M1640 2415 c0 -8 5 -15 10 -15 6 0 10 7 10 15 0 8 -4 15 -10 15 -5 0 -10 -7 -10 -15z"/>
<path d="M6874 2399 c-10 -17 13 -36 27 -22 12 12 4 33 -11 33 -5 0 -12 -5 -16 -11z"/>
<path d="M7670 2365 c-18 -21 1 -39 40 -41 36 -2 37 6 7 34 -28 26 -31 27 -47 7z"/>
<path d="M3487 2347 c-3 -9 7 -23 25 -37 28 -20 31 -21 46 -6 14 14 14 18 2 30 -23 23 -66 30 -73 13z"/>
<path d="M3281 2337 c-19 -19 -12 -62 12 -85 27 -26 44 -28 67 -7 16 14 19 13 34 -10 14 -21 15 -29 6 -41 -21 -25 -4 -41 49 -46 59 -6 87 -24 70 -44 -6 -8 -19 -14 -28 -14 -9 0 -34 -18 -56 -40 -42 -43 -40 -57 14 -83 16 -8 26 -21 26 -34 0 -29 44 -75 66 -68 10 3 20 1 24 -5 9 -14 35 6 35 26 0 16 -16 19 -25 4 -4 -6 -11 -8 -16 -4 -6 4 -6 11 2 20 15 18 -3 41 -34 46 -18 2 -21 8 -19 33 2 17 7 35 12 40 4 6 10 25 14 44 3 19 14 43 23 53 20 22 21 71 3 92 -7 9 -26 16 -43 16 -22 0 -42 10 -69 37 -29 29 -40 34 -51 25 -19 -16 -29 -4 -16 20 5 10 8 22 5 27 -8 12 -92 11 -105 -2z"/>
<path d="M2560 2330 c0 -5 5 -10 10 -10 6 0 10 5 10 10 0 6 -4 10 -10 10 -5 0 -10 -4 -10 -10z"/>
<path d="M8397 2272 c-18 -20 -23 -52 -8 -52 5 0 12 7 15 16 5 13 15 15 41 11 39 -6 44 2 17 26 -24 22 -45 21 -65 -1z"/>
<path d="M2914 2228 c-27 -32 -44 -65 -37 -72 10 -10 91 -7 98 4 3 6 51 10 109 10 81 0 106 3 116 16 24 28 -7 43 -98 45 -46 2 -85 6 -88 11 -3 4 -22 8 -43 8 -27 0 -43 -7 -57 -22z"/>
<path d="M3925 2231 c-37 -22 -38 -42 -2 -59 25 -12 27 -18 27 -69 0 -44 -5 -62 -22 -80 l-21 -23 18 -20 c10 -11 25 -18 33 -15 8 3 20 1 27 -5 18 -15 46 1 112 64 28 26 56 46 61 42 18 -11 62 13 72 40 8 21 7 31 -5 44 -8 9 -15 26 -15 37 0 11 -7 26 -15 33 -20 16 -45 -3 -45 -34 0 -25 -48 -76 -71 -76 -21 0 -49 32 -49 56 0 17 -58 85 -70 83 -3 0 -18 -8 -35 -18z"/>
<path d="M3754 2199 c-10 -17 13 -36 27 -22 12 12 4 33 -11 33 -5 0 -12 -5 -16 -11z"/>
<path d="M2107 2142 c-15 -15 -27 -36 -27 -45 0 -21 16 -22 24 -2 5 13 11 12 41 -5 59 -33 75 -5 28 49 -15 17 -30 31 -33 31 -4 0 -18 -13 -33 -28z"/>
<path d="M2680 2140 c0 -17 52 -50 80 -50 20 0 80 31 80 42 0 11 -39 20 -101 22 -47 1 -59 -1 -59 -14z"/>
<path d="M2580 2110 c0 -5 5 -10 10 -10 6 0 10 5 10 10 0 6 -4 10 -10 10 -5 0 -10 -4 -10 -10z"/>
<path d="M3133 2096 c-13 -7 -32 -21 -43 -31 -16 -14 -23 -15 -34 -6 -20 17 -66 10 -80 -11 -7 -12 -6 -24 3 -42 8 -14 11 -37 8 -55 -7 -33 11 -55 36 -45 8 3 18 0 22 -5 3 -6 11 -9 16 -5 6 4 1 16 -12 30 -18 19 -20 27 -11 36 7 7 12 22 12 34 0 31 25 50 45 34 8 -7 15 -18 15 -25 0 -7 7 -18 15 -25 13 -11 21 -8 46 16 43 41 54 72 33 95 -19 21 -39 23 -71 5z"/>
<path d="M2515 2050 c-14 -16 -16 -23 -7 -32 10 -10 17 -7 33 9 12 11 18 26 15 32 -10 16 -21 14 -41 -9z"/>
<path d="M2249 2054 c-11 -81 -5 -94 31 -72 24 15 49 3 66 -31 26 -51 112 -121 149 -121 18 0 71 -28 85 -45 17 -21 44 -19 64 4 19 21 14 41 -8 41 -8 0 -19 7 -26 15 -18 22 -69 45 -100 45 -26 0 -60 26 -60 47 0 13 -39 46 -75 63 -16 8 -39 22 -50 31 -23 20 -74 35 -76 23z"/>
<path d="M2731 2001 c-11 -7 -11 -13 1 -37 15 -33 36 -37 52 -11 20 32 -20 69 -53 48z"/>
<path d="M7622 1990 c-12 -5 -27 -21 -32 -35 -13 -33 -12 -36 5 -59 l15 -20 36 39 c29 32 32 40 20 47 -8 5 -13 15 -10 23 7 17 -1 18 -34 5z"/>
<path d="M3363 1978 c-33 -53 -43 -100 -23 -113 6 -3 10 -30 10 -59 0 -71 20 -90 57 -54 21 21 25 35 25 78 0 28 -5 57 -11 63 -6 6 -11 25 -11 42 0 44 -29 70 -47 43z"/>
<path d="M3777 1892 c-20 -21 -27 -38 -27 -69 0 -23 -4 -45 -10 -48 -5 -3 -10 -15 -10 -26 0 -21 -16 -53 -42 -84 -10 -12 -19 -32 -20 -45 -3 -22 1 -25 32 -25 25 0 36 -5 38 -18 3 -13 9 -16 25 -11 40 12 42 23 12 54 l-29 30 53 54 52 53 -21 38 -21 38 22 23 22 24 -18 20 c-23 26 -26 25 -58 -8z"/>
<path d="M3962 1898 c-16 -16 -15 -43 2 -57 10 -8 21 -7 44 5 40 19 47 31 32 49 -15 18 -61 20 -78 3z"/>
<path d="M3040 1870 c0 -5 5 -10 10 -10 6 0 10 5 10 10 0 6 -4 10 -10 10 -5 0 -10 -4 -10 -10z"/>
<path d="M8430 1825 c-8 -10 -8 -19 2 -34 11 -18 23 -21 80 -21 38 0 71 -1 74 -2 4 -2 12 5 18 14 18 30 -11 46 -91 51 -52 3 -75 1 -83 -8z"/>
<path d="M3122 1777 c-6 -6 -13 -24 -17 -38 -6 -23 -3 -28 21 -36 22 -7 32 -5 46 9 10 10 18 26 18 36 0 36 -46 56 -68 29z"/>
<path d="M3885 1760 c-17 -19 -17 -22 -2 -37 13 -14 19 -14 32 -3 17 14 17 51 -1 57 -6 2 -19 -6 -29 -17z"/>
<path d="M2760 1755 c-7 -8 -19 -15 -26 -15 -19 0 -18 -14 2 -30 13 -11 19 -9 41 12 14 14 22 31 19 37 -10 15 -21 14 -36 -4z"/>
<path d="M2870 1725 l-34 -35 19 -19 c32 -30 59 -34 80 -11 l18 20 -23 25 c-20 22 -21 25 -6 31 22 8 21 24 -2 24 -10 0 -33 -16 -52 -35z"/>
<path d="M3209 1604 c-8 -10 -22 -14 -40 -10 -18 3 -32 0 -40 -10 -10 -12 -9 -19 9 -36 l21 -22 22 20 c12 10 31 19 43 19 11 0 21 5 21 12 0 6 3 15 8 19 13 13 8 24 -12 24 -10 0 -24 -7 -32 -16z"/>
<path d="M3513 1577 c-8 -17 -7 -28 3 -42 13 -17 16 -18 30 -4 12 13 13 20 3 42 -15 33 -23 34 -36 4z"/>
<path d="M3448 1545 c-6 -14 -9 -28 -5 -31 8 -9 49 35 42 46 -11 17 -25 11 -37 -15z"/>
<path d="M3295 1532 c-18 -2 -36 -12 -44 -24 -11 -18 -10 -23 7 -40 17 -17 22 -18 43 -6 29 16 79 59 79 68 0 7 -31 8 -85 2z"/>
</g>
</g>
  <g id="id2:id2" transform="matrix(1.25,0,0,1.25,0.0,0.0)"><g transform="translate(0.000000,256.800000) scale(0.040000,-0.040000)" fill="#014f74" stroke="none">
<path d="M3062 4993 c4 -21 36 -29 51 -14 9 9 8 14 -3 21 -25 16 -52 12 -48 -7z"/>
<path d="M2755 4931 c-20 -4 -31 -13 -33 -27 -4 -26 34 -44 93 -44 42 0 45 2 45 28 0 20 -7 30 -27 40 -29 13 -32 13 -78 3z"/>
<path d="M3040 4921 c0 -17 6 -21 31 -21 24 0 30 4 27 18 -2 10 -14 18 -31 20 -22 3 -27 -1 -27 -17z"/>
<path d="M3176 4898 c-9 -17 -15 -32 -14 -33 14 -9 78 -35 86 -35 5 0 13 7 16 16 9 24 34 0 38 -38 3 -28 6 -30 49 -34 45 -3 111 -33 194 -85 22 -14 85 -50 140 -79 55 -30 138 -78 185 -108 112 -72 272 -201 265 -213 -4 -5 -14 -5 -25 1 -26 14 -30 13 -30 -7 0 -24 63 -65 92 -61 20 3 24 -2 28 -37 9 -57 26 -83 57 -87 20 -2 27 -8 25 -21 -2 -10 6 -29 17 -44 12 -14 21 -30 21 -34 0 -21 46 -79 63 -79 21 0 21 3 3 39 -12 23 -13 36 -2 77 14 56 25 61 44 19 21 -49 28 -59 42 -63 15 -5 7 50 -15 102 -7 17 -16 39 -19 48 -7 23 -36 12 -36 -13 0 -11 -7 -22 -16 -26 -24 -9 -49 11 -47 36 2 12 -3 21 -11 21 -16 0 -76 71 -76 90 0 6 -27 40 -60 74 -52 55 -58 65 -45 76 8 7 15 19 15 26 0 22 -86 103 -117 110 -15 4 -32 9 -38 13 -5 3 -24 6 -41 7 -36 1 -104 30 -104 44 0 16 -50 60 -68 60 -9 0 -28 9 -42 20 -14 11 -30 20 -36 20 -6 0 -27 15 -46 34 -36 35 -78 62 -91 58 -5 -1 -20 4 -35 13 -39 21 -281 111 -319 118 -28 6 -34 3 -47 -25z"/>
<path d="M2920 4871 c0 -12 13 -26 33 -36 40 -21 162 -62 225 -75 26 -6 52 -17 57 -24 16 -20 51 -36 82 -37 15 0 42 -9 58 -19 17 -11 55 -33 86 -49 31 -16 70 -41 86 -55 17 -14 36 -26 41 -26 21 0 114 -100 110 -118 -2 -9 -11 -15 -19 -13 -8 2 -26 6 -41 9 -15 2 -35 13 -44 23 -9 10 -22 19 -27 19 -6 0 -18 7 -27 15 -9 8 -29 16 -44 17 -15 1 -32 8 -38 15 -6 7 -18 13 -27 13 -9 0 -59 16 -111 36 -123 46 -186 64 -229 64 -34 0 -89 14 -123 31 -10 5 -28 9 -40 9 -40 0 -143 22 -175 37 -22 11 -45 13 -82 8 -33 -4 -56 -3 -65 4 -16 13 -122 18 -154 7 -19 -6 -24 -4 -29 13 -3 12 -13 21 -24 21 -22 0 -24 -11 -7 -28 18 -18 -4 -37 -28 -24 -11 6 -48 16 -82 22 -35 7 -66 19 -69 26 -6 17 -49 18 -59 3 -4 -7 1 -16 10 -21 9 -5 16 -22 16 -38 0 -24 -8 -35 -40 -55 -22 -14 -48 -25 -59 -25 -10 0 -22 -8 -25 -17 -6 -15 -8 -15 -23 -1 -17 18 -10 38 14 38 9 0 24 7 34 16 14 13 15 21 7 45 -11 32 -42 40 -52 13 -3 -8 -10 -13 -16 -9 -5 3 -27 -6 -50 -20 -33 -21 -43 -23 -59 -13 -15 9 -27 7 -64 -15 -25 -15 -53 -27 -62 -27 -13 0 -16 -6 -12 -21 3 -11 0 -22 -6 -23 -7 -2 -29 -9 -50 -16 -28 -8 -42 -9 -50 -1 -16 16 3 32 90 76 43 21 80 40 81 41 2 2 1 16 -2 31 -6 26 -10 29 -39 25 -18 -3 -59 -26 -95 -54 -35 -27 -96 -63 -135 -79 -40 -17 -85 -36 -102 -44 -16 -7 -68 -29 -115 -48 -47 -19 -114 -48 -150 -64 -36 -16 -91 -40 -123 -53 -36 -14 -56 -28 -53 -35 5 -13 -47 -75 -63 -75 -10 0 -41 -56 -41 -75 0 -8 41 -16 128 -24 163 -16 158 -14 133 -49 -11 -16 -27 -62 -35 -102 -16 -76 -41 -119 -60 -100 -7 7 -6 14 2 22 14 14 16 58 2 58 -12 0 -32 -36 -29 -53 1 -6 -3 -25 -10 -42 -9 -21 -9 -35 -2 -47 8 -12 2 -37 -23 -100 -19 -45 -37 -98 -41 -116 -4 -22 -15 -36 -30 -42 -29 -11 -50 -46 -35 -55 6 -4 17 -2 24 4 32 27 27 -19 -7 -56 l-20 -23 23 -25 c13 -14 29 -25 36 -25 6 0 18 -10 26 -22 19 -28 38 -16 38 24 0 22 -4 29 -15 25 -24 -10 -28 12 -10 61 23 61 31 70 51 51 14 -14 13 -19 -2 -53 -13 -26 -15 -39 -7 -47 21 -21 60 21 77 82 9 32 23 62 31 69 8 6 21 33 29 58 8 26 22 67 31 91 17 46 10 69 -18 58 -16 -6 -47 -62 -47 -84 0 -8 -11 -31 -25 -51 -14 -20 -25 -42 -25 -49 0 -14 -34 -35 -43 -27 -8 8 52 131 102 209 26 39 66 110 91 159 52 103 86 144 103 127 16 -16 54 -14 61 4 4 11 22 15 74 15 38 0 72 -3 75 -6 4 -4 -10 -29 -30 -56 -20 -27 -37 -64 -39 -81 -3 -18 -7 -39 -9 -48 -4 -11 2 -18 15 -22 l21 -5 -32 -53 c-31 -53 -83 -162 -109 -229 -20 -52 -30 -62 -46 -49 -11 9 -16 5 -26 -16 -11 -24 -10 -29 11 -44 19 -15 21 -21 13 -37 -19 -33 -56 -60 -102 -73 -107 -31 -151 -53 -161 -78 -7 -19 -12 -23 -22 -14 -16 13 -57 -12 -57 -35 0 -17 21 -19 37 -3 7 7 13 7 17 1 3 -6 -7 -20 -24 -32 -22 -15 -30 -29 -30 -51 0 -22 -6 -32 -25 -39 -15 -6 -27 -20 -31 -37 -4 -15 -10 -32 -14 -38 -4 -5 -8 -86 -9 -180 -2 -196 11 -272 87 -483 11 -29 22 -55 26 -59 3 -3 6 -12 6 -19 0 -13 45 -118 78 -182 23 -45 40 -58 85 -65 32 -5 38 -3 33 9 -3 9 -6 20 -6 24 0 5 -12 20 -26 33 -18 17 -23 27 -14 32 8 5 2 17 -20 40 -18 19 -27 35 -22 39 6 4 -3 40 -25 94 -68 169 -103 365 -103 583 0 134 12 173 68 226 37 34 79 58 96 54 5 -1 16 5 26 14 16 14 19 14 33 -8 13 -20 13 -27 3 -38 -9 -9 -12 -28 -9 -52 4 -32 9 -37 27 -35 18 3 22 -3 27 -40 5 -39 3 -46 -23 -67 -15 -13 -28 -33 -28 -43 0 -11 -9 -39 -20 -63 -23 -51 -25 -69 -7 -69 15 1 67 46 67 59 0 5 12 16 28 23 36 17 43 64 13 85 -12 8 -19 18 -16 23 3 5 40 26 83 46 53 26 89 37 116 36 22 0 74 8 115 19 42 11 100 27 130 35 29 7 59 18 66 24 6 5 15 7 18 4 7 -7 108 16 122 28 5 4 20 8 35 8 72 0 620 162 620 184 0 23 21 36 41 23 23 -14 54 -4 197 64 150 70 214 112 297 193 69 68 105 125 105 168 0 11 -7 45 -16 76 -14 47 -28 68 -79 119 -41 40 -75 63 -97 68 -18 4 -43 16 -55 28 -17 15 -26 17 -36 9 -18 -16 -29 -4 -17 18 8 16 -5 24 -103 64 -238 98 -642 192 -798 185 -54 -3 -80 11 -61 33 6 7 34 26 64 41 45 25 57 27 81 18 19 -7 27 -18 27 -35 0 -26 14 -31 145 -52 92 -14 377 -88 465 -120 106 -39 261 -113 317 -153 21 -14 67 -56 104 -92 68 -67 89 -77 169 -83 27 -2 36 -8 38 -25 3 -18 10 -21 53 -21 61 0 68 12 40 74 -97 219 -559 423 -1101 487 -64 7 -99 16 -107 26 -18 23 -6 34 23 21 20 -9 30 -9 46 1 15 9 23 10 31 2 6 -6 22 -11 35 -11 31 0 211 -34 322 -61 227 -55 450 -147 586 -239 41 -28 85 -55 99 -60 14 -5 25 -14 25 -21 0 -6 18 -35 39 -65 102 -143 75 -282 -86 -434 -46 -44 -83 -83 -83 -88 0 -5 20 -7 46 -4 51 5 87 -9 120 -46 16 -18 28 -23 45 -19 54 14 269 176 269 202 0 5 12 21 26 36 15 16 34 50 43 76 19 55 37 63 35 16 -2 -49 -40 -112 -112 -186 -62 -63 -236 -187 -262 -187 -7 0 -10 -13 -8 -32 3 -28 0 -33 -21 -36 -14 -2 -41 -15 -60 -28 -22 -15 -43 -21 -57 -18 -12 3 -25 1 -28 -5 -4 -6 -19 -11 -34 -11 -15 0 -40 -9 -57 -20 -16 -11 -45 -20 -63 -20 -44 0 -185 -48 -195 -66 -4 -8 -23 -14 -41 -14 -40 0 -263 -62 -431 -120 -131 -45 -311 -127 -360 -164 -16 -12 -35 -25 -42 -27 -20 -7 -112 -99 -142 -142 -57 -85 -64 -168 -20 -266 22 -51 86 -138 106 -146 17 -6 60 40 69 73 4 13 23 31 45 42 21 11 53 33 71 48 18 15 47 36 63 47 17 10 36 27 43 37 7 10 21 18 31 18 10 0 30 9 44 20 14 11 29 20 35 20 5 0 17 9 27 20 10 11 26 20 36 20 9 0 34 9 56 19 21 11 65 29 98 42 33 12 93 37 133 56 91 41 257 101 517 187 110 36 209 70 220 76 11 5 76 32 145 61 147 62 204 92 207 110 4 23 -41 48 -96 52 -59 5 -69 11 -51 32 7 8 15 29 19 47 5 23 13 32 31 35 13 2 31 10 39 17 24 21 98 26 136 10 35 -14 75 -57 75 -80 0 -26 26 -14 91 39 102 86 161 192 128 233 -11 14 -1 24 16 18 17 -7 27 10 19 30 -4 10 -16 15 -30 14 -21 -3 -29 9 -72 97 -26 55 -60 116 -75 136 -15 20 -27 40 -27 44 0 5 -7 17 -16 27 -16 16 -16 18 0 24 30 11 17 42 -33 78 -27 20 -51 40 -53 45 -2 4 -31 31 -65 60 -45 37 -61 56 -56 68 5 13 2 15 -12 10 -12 -5 -34 5 -71 34 -51 39 -60 59 -28 59 17 0 18 22 2 38 -9 9 -8 16 5 30 9 10 17 23 17 29 0 16 -48 55 -62 51 -11 -5 -41 15 -100 67 -10 8 -27 15 -37 15 -11 0 -30 12 -43 28 -38 43 -77 66 -158 91 -41 13 -83 30 -92 39 -10 8 -18 12 -18 8 0 -3 -21 5 -47 18 -27 14 -60 28 -76 32 -15 3 -30 10 -33 15 -3 5 -14 9 -25 9 -11 0 -54 11 -95 25 -89 30 -104 31 -104 6z m-1136 -172 c-3 -5 -10 -7 -15 -3 -5 3 -7 10 -3 15 3 5 10 7 15 3 5 -3 7 -10 3 -15z m961 -119 c118 -24 347 -87 493 -136 57 -19 116 -34 131 -34 16 0 37 -10 51 -24 12 -14 55 -41 95 -60 166 -78 322 -210 370 -312 25 -53 30 -104 11 -105 -6 0 -15 17 -21 38 -7 21 -19 52 -28 69 -20 38 -127 146 -183 184 -216 146 -614 288 -994 356 -119 21 -123 22 -115 34 10 16 80 12 190 -10z m-759 -27 c-2 -2 -6 -3 -9 -1 -3 2 -14 -6 -26 -16 -15 -14 -25 -16 -32 -9 -8 8 -5 14 10 22 12 7 21 8 21 4 0 -4 5 -2 12 5 6 6 15 9 20 6 5 -3 7 -8 4 -11z m-549 -128 c34 -14 35 -16 19 -33 -23 -26 -21 -29 22 -35 21 -4 46 -13 57 -20 l19 -14 -22 -12 c-16 -9 -28 -9 -42 -1 -16 8 -27 7 -50 -6 -25 -15 -36 -16 -87 -5 -32 6 -76 15 -98 19 -90 18 -85 27 50 96 58 30 82 32 132 11z m478 -24 c7 -12 -12 -24 -25 -16 -11 7 -4 25 10 25 5 0 11 -4 15 -9z m234 -44 c16 -20 4 -27 -45 -27 -43 0 -61 11 -49 30 9 15 81 12 94 -3z m125 -39 c-3 -5 -12 -4 -20 3 -7 6 -11 15 -8 21 3 5 12 4 20 -3 7 -6 11 -15 8 -21z m-129 -78 c0 -21 -6 -26 -37 -31 -30 -5 -42 -2 -55 13 l-18 20 20 14 c11 8 36 14 55 12 30 -3 35 -7 35 -28z m-189 -25 c17 -13 17 -16 3 -27 -11 -10 -14 -25 -11 -56 5 -54 -9 -73 -38 -47 -12 11 -20 31 -20 51 0 18 -4 36 -10 39 -17 11 -11 23 18 38 36 19 35 19 58 2z m269 -105 c-3 -4 2 -13 10 -20 12 -10 18 -10 29 -1 11 10 17 7 30 -11 18 -25 21 -64 6 -73 -6 -3 -13 1 -16 9 -4 9 -18 16 -34 16 -37 0 -68 34 -50 55 10 13 10 19 -4 33 -9 10 -13 22 -9 25 8 9 44 -23 38 -33z m200 21 c-2 -5 7 -19 20 -31 30 -28 32 -51 6 -74 -23 -21 -41 -13 -41 18 0 12 -5 27 -12 34 -8 8 -8 15 1 26 6 7 11 18 10 22 -3 18 1 25 11 19 6 -4 8 -10 5 -14z m-782 -21 c-7 -25 -19 -34 -28 -20 -8 13 13 52 25 45 4 -3 6 -14 3 -25z m-37 -84 c-9 -15 -20 -26 -25 -26 -19 0 -18 14 1 41 27 37 49 22 24 -15z m2078 -87 c-3 -5 -10 -7 -15 -3 -5 3 -7 10 -3 15 3 5 10 7 15 3 5 -3 7 -10 3 -15z m314 -26 c-16 -15 -18 -15 -24 0 -3 9 -3 25 0 34 6 15 8 15 24 0 15 -16 15 -18 0 -34z m-2049 24 c14 -18 4 -27 -30 -27 -29 0 -44 13 -34 30 9 15 51 12 64 -3z m1055 -38 c-9 -10 -21 -16 -26 -13 -5 3 -2 14 8 25 9 10 21 16 26 13 5 -3 2 -14 -8 -25z m-1378 -40 c10 -17 -13 -36 -27 -22 -12 12 -4 33 11 33 5 0 12 -5 16 -11z m960 -1 c4 -6 -1 -17 -12 -25 -15 -11 -20 -11 -32 1 -8 8 -11 19 -8 25 9 14 43 14 52 -1z m-436 -43 c10 -12 9 -16 -5 -21 -19 -8 -40 9 -31 25 10 15 21 14 36 -4z m760 -9 c5 -14 19 -30 31 -36 15 -9 18 -15 10 -23 -7 -7 -16 -6 -29 6 -11 10 -35 17 -58 17 -54 0 -72 19 -42 42 34 26 76 23 88 -6z m-1340 -31 c0 -19 -4 -37 -10 -40 -5 -3 -10 -17 -10 -30 0 -13 -4 -27 -10 -30 -5 -3 -10 -16 -10 -29 0 -22 -39 -69 -41 -50 -4 41 6 102 22 130 10 19 19 43 19 52 0 21 20 43 32 36 4 -3 8 -20 8 -39z m989 21 c6 -7 9 -20 6 -27 -25 -72 -23 -69 -50 -57 -13 6 -32 22 -41 35 -14 23 -14 26 2 44 20 22 66 25 83 5z m1227 -17 c10 -17 -13 -36 -27 -22 -12 12 -4 33 11 33 5 0 12 -5 16 -11z m-1383 -39 c27 -15 32 -23 29 -51 -3 -42 -16 -56 -69 -81 l-44 -21 -23 22 c-12 11 -30 21 -39 21 -22 0 -25 7 -28 70 l-3 55 34 -3 c19 -1 46 4 60 11 17 9 29 10 38 4 7 -5 27 -18 45 -27z m1651 -31 c-3 -5 -10 -7 -15 -3 -5 3 -7 10 -3 15 3 5 10 7 15 3 5 -3 7 -10 3 -15z m-128 -30 c10 -17 -13 -36 -27 -22 -12 12 -4 33 11 33 5 0 12 -5 16 -11z m-1821 -65 c0 -22 -32 -31 -49 -14 -8 8 -6 15 9 26 24 18 40 13 40 -12z m480 -13 c7 -12 -12 -24 -25 -16 -11 7 -4 25 10 25 5 0 11 -4 15 -9z m199 -22 c-3 -5 -10 -7 -15 -3 -5 3 -7 10 -3 15 3 5 10 7 15 3 5 -3 7 -10 3 -15z m-1134 -15 c13 -32 -3 -56 -34 -52 -21 3 -33 36 -22 64 9 24 46 16 56 -12z m237 -71 c3 -10 15 -28 26 -40 33 -37 -6 -61 -45 -26 -18 16 -25 63 -11 76 11 12 23 8 30 -10z m-123 -85 c8 -13 7 -21 -2 -30 -9 -9 -19 -8 -47 5 -32 15 -44 35 -30 49 11 10 68 -8 79 -24z m301 -8 c3 -5 17 -10 29 -10 25 0 51 -22 39 -33 -3 -4 -34 -7 -68 -7 -49 0 -66 4 -79 19 -10 11 -15 25 -11 30 8 14 82 14 90 1z m1541 -52 c9 -15 -27 -41 -40 -28 -6 6 -5 15 4 25 15 18 26 19 36 3z m-1702 -26 c27 -15 49 -31 48 -37 -1 -6 -36 -10 -79 -10 -72 0 -78 2 -81 22 -2 15 5 26 25 36 36 19 30 20 87 -11z m-218 -23 c10 -17 -13 -36 -27 -22 -12 12 -4 33 11 33 5 0 12 -5 16 -11z m846 -564 c1 -5 -27 -24 -61 -41 -34 -17 -71 -40 -82 -50 -15 -13 -22 -15 -31 -6 -22 22 65 92 113 92 10 0 21 5 24 11 8 12 36 8 37 -6z m-386 -256 c9 -16 -12 -33 -31 -25 -14 5 -15 9 -5 21 15 18 26 19 36 4z"/>
<path d="M2514 4865 c-11 -27 3 -43 31 -37 31 5 44 30 24 43 -22 14 -49 11 -55 -6z"/>
<path d="M2864 4785 c-8 -21 4 -35 30 -35 22 0 42 31 28 44 -11 12 -53 5 -58 -9z"/>
<path d="M3900 4390 c0 -27 3 -30 30 -30 35 0 41 24 13 46 -29 22 -43 16 -43 -16z"/>
<path d="M3980 4334 c-8 -9 -5 -18 11 -33 32 -29 49 -27 49 8 0 23 -5 30 -25 33 -14 3 -30 -1 -35 -8z"/>
<path d="M5994 4078 c-8 -27 1 -33 49 -33 l42 0 3 -94 c2 -61 -1 -98 -9 -107 -7 -8 -10 -16 -8 -18 11 -9 86 -14 99 -6 13 8 13 11 -3 22 -15 12 -17 27 -15 108 l3 95 43 -2 c35 -1 42 1 42 17 0 24 -16 28 -142 33 -90 4 -98 3 -104 -15z"/>
<path d="M6370 4085 c-10 -12 -10 -19 -2 -27 15 -15 16 -182 1 -210 -6 -11 -8 -22 -5 -25 9 -10 80 -10 99 0 17 8 17 10 2 21 -12 8 -16 24 -13 56 l3 45 45 0 45 0 3 -43 c2 -24 -2 -50 -8 -57 -16 -19 15 -34 63 -30 46 4 54 10 38 29 -8 10 -12 52 -10 126 1 61 -2 114 -5 118 -12 12 -65 10 -75 -2 -6 -7 -7 -27 -1 -50 10 -43 3 -49 -56 -44 l-39 3 2 48 c1 38 -2 47 -15 47 -10 0 -26 3 -38 6 -12 3 -26 -1 -34 -11z"/>
<path d="M6812 4092 c-4 -1 -5 -54 -3 -117 2 -82 0 -120 -9 -130 -7 -9 -11 -17 -9 -19 5 -5 74 -9 126 -7 37 1 43 4 49 27 9 34 -11 55 -29 30 -7 -10 -22 -16 -33 -14 -14 2 -19 12 -19 38 l0 35 35 0 c31 0 35 3 35 25 0 22 -4 25 -35 25 -32 0 -35 2 -35 30 0 28 2 30 37 28 38 -2 53 13 38 38 -6 9 -30 13 -74 14 -36 0 -69 -1 -74 -3z"/>
<path d="M1360 4045 c-19 -23 -1 -39 21 -19 10 9 19 21 19 26 0 13 -27 9 -40 -7z"/>
<path d="M1297 3983 c-4 -3 -7 -16 -7 -28 0 -13 -9 -29 -20 -36 -25 -18 -31 -72 -9 -77 9 -1 19 5 23 15 3 10 15 32 26 48 29 44 33 53 26 70 -6 15 -28 20 -39 8z"/>
<path d="M1403 3906 c-24 -11 -32 -46 -11 -46 6 0 20 -8 30 -17 16 -14 20 -15 32 -2 8 8 17 25 21 38 6 20 4 23 -9 18 -10 -4 -19 -1 -22 8 -7 17 -10 17 -41 1z"/>
<path d="M3404 3874 c-14 -20 -31 -27 -67 -31 -45 -5 -48 -8 -67 -50 -69 -156 -293 -299 -679 -434 -145 -51 -163 -57 -271 -87 -196 -55 -255 -70 -350 -92 -52 -12 -108 -26 -125 -32 -16 -6 -57 -16 -90 -23 -138 -31 -198 -45 -206 -51 -5 -3 -9 -35 -9 -71 0 -49 -5 -74 -21 -100 -14 -23 -20 -44 -16 -66 8 -53 -7 -77 -48 -77 -25 0 -39 -6 -50 -24 -11 -17 -22 -22 -40 -18 -14 2 -25 0 -25 -5 0 -24 84 -245 123 -321 32 -64 50 -88 67 -92 19 -4 27 -17 38 -60 7 -29 22 -66 33 -81 10 -15 19 -31 19 -36 0 -4 17 -24 38 -44 21 -20 48 -56 60 -82 22 -47 54 -77 84 -77 25 0 138 -110 138 -135 0 -12 5 -26 12 -33 8 -8 9 -15 2 -22 -7 -7 -16 -4 -29 10 -22 24 -45 26 -45 5 0 -19 44 -65 63 -65 7 0 18 5 24 11 13 13 33 4 33 -17 0 -8 5 -14 12 -14 6 0 22 -9 34 -21 21 -19 24 -20 53 -5 29 15 31 15 41 -4 9 -16 8 -22 -5 -26 -8 -3 -15 -13 -15 -20 0 -22 68 -77 98 -80 14 -2 37 -11 51 -22 35 -25 96 -48 151 -57 25 -4 55 -13 67 -21 14 -9 33 -12 48 -8 37 9 69 -20 52 -47 -15 -24 -2 -34 66 -49 56 -12 67 -8 67 25 0 23 44 55 76 55 19 0 38 39 38 80 l1 35 41 3 c32 2 43 8 47 23 5 17 9 19 26 9 12 -6 26 -8 32 -4 6 3 21 2 32 -4 114 -53 283 -122 300 -122 11 0 28 6 36 13 9 8 54 24 101 37 47 13 101 31 120 40 19 10 54 20 78 24 48 7 92 32 92 50 0 7 6 20 13 30 11 16 17 16 34 6 17 -11 27 -8 79 28 33 22 66 47 73 56 7 9 19 16 26 16 7 0 39 31 72 68 34 37 101 108 150 157 92 93 158 178 149 194 -3 5 1 14 9 21 8 7 13 16 10 20 -3 5 5 17 18 27 15 12 23 28 23 48 -1 24 3 30 19 28 17 -2 28 13 57 75 48 104 53 122 34 122 -8 0 -29 -22 -46 -49 -19 -28 -38 -47 -45 -45 -7 3 -40 -18 -74 -46 -87 -73 -88 -66 -11 155 17 50 37 122 45 160 l13 70 -20 16 c-12 9 -18 21 -15 26 13 21 37 257 39 386 l2 138 25 23 c28 24 41 43 67 94 9 18 30 44 46 58 17 13 28 28 24 31 -3 3 -2 11 3 17 4 6 11 30 15 54 5 34 2 49 -13 70 -10 15 -24 46 -31 69 -9 31 -19 43 -38 48 -32 8 -38 1 -24 -30 7 -14 12 -33 12 -42 0 -9 9 -35 20 -58 l20 -42 -46 -84 c-52 -95 -74 -123 -86 -111 -5 5 -15 42 -24 83 -8 41 -19 78 -24 83 -12 12 -30 -2 -30 -23 0 -19 -141 -171 -175 -189 l-20 -11 26 -27 27 -26 31 15 c17 8 33 12 35 8 7 -10 -18 -56 -29 -56 -6 0 -16 -4 -23 -9 -9 -5 -24 2 -46 23 -18 17 -41 31 -53 31 -23 0 -162 -80 -201 -117 l-25 -23 18 -20 c21 -23 9 -44 -21 -38 -13 3 -18 11 -17 26 2 13 -3 25 -10 28 -7 2 -79 -22 -160 -55 -81 -33 -252 -94 -380 -136 -339 -112 -769 -288 -792 -325 -4 -7 5 -24 20 -41 25 -25 26 -29 11 -35 -10 -4 -25 1 -39 14 -31 28 -59 34 -81 17 -18 -13 -18 -18 -6 -42 8 -16 25 -40 39 -55 20 -23 22 -30 11 -43 -7 -8 -22 -15 -33 -15 -11 0 -31 -10 -44 -22 -18 -17 -26 -19 -35 -10 -9 9 -7 17 9 34 31 35 36 58 17 79 -10 11 -22 19 -29 19 -37 0 -215 -168 -215 -203 0 -13 95 -97 111 -97 15 0 21 21 10 34 -14 17 -3 27 24 20 15 -4 32 3 53 21 22 18 38 24 52 20 12 -4 27 -2 33 4 20 16 85 -4 118 -35 33 -31 37 -69 14 -113 -13 -26 -36 -40 -92 -56 -13 -3 -23 -13 -23 -21 0 -15 56 -54 79 -54 7 0 28 -13 46 -28 36 -32 245 -142 269 -142 9 0 16 8 16 18 0 10 13 30 28 45 l28 27 22 -23 c26 -27 28 -46 7 -73 -8 -10 -15 -25 -15 -32 0 -15 186 -106 199 -97 11 6 65 -21 81 -40 7 -8 16 -15 20 -15 4 0 25 -7 46 -16 l39 -16 -25 -20 c-21 -17 -26 -18 -35 -5 -11 16 -238 123 -283 133 -15 4 -34 12 -42 19 -8 7 -73 42 -145 78 -144 72 -260 137 -384 217 -46 29 -88 50 -96 46 -23 -8 -18 -40 10 -66 14 -13 25 -20 25 -15 0 5 10 -1 23 -12 12 -11 39 -27 60 -37 20 -9 37 -23 37 -30 0 -6 16 -28 35 -46 26 -25 43 -34 63 -32 36 4 106 -63 78 -74 -11 -4 -25 1 -40 15 -12 11 -27 21 -33 21 -6 0 -16 7 -23 15 -7 8 -17 12 -22 9 -20 -13 -118 55 -118 81 0 6 -18 29 -40 50 -22 21 -40 35 -40 30 0 -5 -5 -4 -12 3 -7 7 -27 12 -45 12 -26 0 -36 6 -49 32 l-17 32 27 21 c14 11 26 25 26 31 0 13 -78 88 -107 103 -19 9 -24 8 -33 -8 -13 -24 -13 -105 -1 -129 6 -9 12 -28 15 -42 15 -71 167 -210 311 -285 22 -11 49 -26 60 -32 38 -23 155 -75 271 -122 116 -46 139 -63 96 -69 -36 -5 -323 116 -467 198 -164 92 -316 255 -327 350 -4 33 -35 39 -47 8 -5 -13 -21 -33 -35 -45 -14 -13 -26 -29 -26 -36 0 -23 199 -201 367 -327 73 -55 84 -83 22 -57 -48 20 -198 143 -359 294 -35 32 -66 52 -84 55 -24 2 -32 10 -45 46 -9 24 -37 69 -64 100 -27 31 -69 87 -93 125 -47 69 -62 78 -84 52 -18 -22 -27 -19 -44 17 -21 40 -20 56 2 98 18 32 18 40 5 105 -8 38 -20 73 -26 77 -7 4 -12 11 -12 15 -1 4 -5 18 -9 31 -10 30 17 88 44 95 28 7 47 53 32 77 -10 16 -7 27 19 64 26 40 33 45 58 40 23 -5 44 4 107 46 129 88 282 151 504 210 142 38 181 52 200 73 13 14 26 18 44 13 59 -15 556 186 720 292 128 82 256 214 256 263 0 17 -40 59 -56 59 -6 0 -19 -12 -30 -26z m924 -552 c2 -32 -1 -44 -14 -49 -43 -16 -62 40 -27 79 24 27 38 17 41 -30z m-100 -246 c3 -85 -8 -124 -29 -110 -10 6 -12 187 -2 198 19 19 28 -8 31 -88z m-361 -117 c6 -6 9 -18 6 -25 -3 -8 0 -21 7 -29 6 -8 9 -19 5 -25 -8 -13 -62 -13 -70 0 -3 6 -16 10 -29 10 -12 0 -26 4 -31 9 -6 5 -21 11 -35 13 -14 2 -25 10 -25 18 0 11 15 16 65 18 36 2 69 7 75 13 12 12 19 11 32 -2z m-593 -110 c-3 -5 -10 -7 -15 -3 -5 3 -7 10 -3 15 3 5 10 7 15 3 5 -3 7 -10 3 -15z m164 -51 c16 -16 15 -130 -2 -162 -7 -15 -22 -33 -32 -41 -10 -7 -24 -32 -29 -56 -12 -47 -33 -63 -42 -30 -7 28 -36 27 -48 -1 -17 -39 -30 -25 -33 37 -3 55 7 108 29 160 5 11 10 36 11 55 3 31 6 35 30 32 14 -2 29 2 33 7 9 15 68 14 83 -1z m-290 -71 c4 -46 -8 -62 -62 -87 -23 -10 -57 -35 -75 -54 -40 -41 -60 -45 -86 -16 -14 16 -15 22 -5 35 18 22 69 45 100 45 36 0 57 24 40 45 -7 8 -19 15 -27 15 -14 0 -34 39 -26 53 3 4 35 7 71 5 l67 -3 3 -38z m-241 -14 c4 -12 -54 -46 -61 -35 -2 4 0 17 5 30 6 16 15 22 31 20 12 -2 23 -8 25 -15z m-93 -52 c9 -14 -22 -34 -40 -27 -13 5 -14 9 -4 21 14 17 36 20 44 6z m-71 -18 c4 -3 0 -13 -8 -22 -9 -9 -25 -28 -36 -43 -14 -19 -29 -28 -49 -28 -61 0 -47 34 31 75 51 26 53 27 62 18z m791 -83 c8 -16 11 -32 7 -35 -14 -8 -54 43 -47 60 8 21 21 12 40 -25z m704 -107 c-16 -15 -18 -15 -24 0 -3 9 -3 25 0 34 6 15 8 15 24 0 15 -16 15 -18 0 -34z m-780 -12 c9 -5 25 -12 35 -15 12 -4 17 -16 17 -39 0 -19 7 -40 15 -47 8 -7 12 -16 9 -22 -3 -5 -11 -4 -20 2 -13 12 -54 14 -123 8 l-34 -3 0 44 c0 34 5 48 24 62 27 21 51 24 77 10z m-124 -130 c25 -27 17 -56 -14 -56 -19 0 -26 6 -28 23 -4 27 4 52 16 52 5 0 17 -9 26 -19z m142 -82 c9 -10 27 -19 39 -19 12 0 30 -9 40 -20 l18 -20 -19 -21 c-16 -18 -20 -19 -30 -4 -6 8 -18 13 -27 10 -16 -7 -87 59 -87 80 0 29 37 26 66 -6z m-409 -12 c21 -15 4 -27 -37 -27 -21 0 -42 -4 -45 -10 -7 -12 -72 -14 -78 -2 -3 4 -1 17 4 30 8 22 14 23 76 21 38 -2 74 -7 80 -12z m925 -4 c10 -9 18 -26 18 -38 0 -28 62 -88 86 -83 11 2 24 15 31 29 7 14 22 34 33 44 l21 19 27 -27 27 -27 -32 -32 c-27 -27 -34 -29 -47 -18 -13 10 -19 10 -31 0 -8 -7 -15 -18 -15 -24 0 -15 -47 -58 -80 -74 -14 -6 -41 -10 -60 -9 -42 3 -52 33 -20 62 31 28 28 101 -7 137 -22 23 -24 30 -13 43 16 20 39 19 62 -2z m-567 -32 c11 -18 -64 -131 -87 -131 -5 0 -14 11 -20 25 -14 32 4 70 47 97 33 20 51 23 60 9z m-1279 -42 c10 -17 -13 -36 -27 -22 -12 12 -4 33 11 33 5 0 12 -5 16 -11z m644 -4 c10 -12 9 -16 -4 -21 -9 -3 -23 -3 -32 0 -13 5 -14 9 -4 21 7 8 16 15 20 15 4 0 13 -7 20 -15z m414 -54 c7 -11 -19 -65 -40 -81 -12 -11 -20 -8 -44 15 -17 16 -30 32 -30 36 0 23 102 50 114 30z m302 -26 c5 -13 -21 -85 -30 -85 -9 0 -66 32 -66 38 0 3 12 19 27 34 29 31 60 36 69 13z m-461 -15 c3 -5 -2 -21 -11 -35 -13 -20 -19 -23 -30 -14 -15 12 -19 41 -7 52 10 10 41 8 48 -3z m262 -47 c8 -21 -18 -74 -41 -83 -38 -14 -75 27 -48 54 4 4 7 12 7 16 0 5 9 15 19 23 22 16 55 11 63 -10z m83 -63 c0 -10 5 -22 10 -25 6 -3 10 -16 10 -29 0 -12 5 -27 12 -34 8 -8 8 -15 1 -24 -6 -7 -13 -24 -15 -38 -6 -45 -33 -30 -36 20 -2 25 -7 49 -13 55 -13 13 -11 79 3 93 14 14 28 6 28 -18z m-364 9 c10 -17 -13 -36 -27 -22 -12 12 -4 33 11 33 5 0 12 -5 16 -11z m520 -20 c3 -6 -1 -18 -10 -27 -15 -15 -17 -15 -32 0 -19 19 -11 38 16 38 10 0 22 -5 26 -11z m-369 -25 c15 -40 -96 -80 -120 -42 -9 13 -7 22 7 37 24 27 103 30 113 5z m651 -8 c2 -10 -4 -26 -13 -36 -16 -17 -16 -21 1 -55 20 -43 14 -60 -31 -85 -16 -9 -33 -30 -39 -47 -14 -41 -31 -57 -50 -50 -18 7 -13 30 13 62 26 32 41 63 41 84 0 11 5 23 10 26 6 3 10 25 10 47 0 60 48 105 58 54z m-155 -13 c21 -20 22 -50 2 -90 -19 -39 -30 -47 -80 -64 -22 -7 -46 -17 -52 -22 -9 -6 -14 -4 -18 7 -3 9 -7 23 -10 33 -3 9 5 28 21 44 15 16 29 40 30 55 2 15 5 32 8 39 7 18 78 16 99 -2z m341 8 c9 -15 -23 -36 -36 -23 -5 5 -7 15 -4 21 9 13 33 14 40 2z m-850 -132 c-3 -5 -10 -7 -15 -3 -5 3 -7 10 -3 15 3 5 10 7 15 3 5 -3 7 -10 3 -15z m-395 -25 c-6 -7 -15 -11 -21 -8 -5 3 -4 12 3 20 6 7 15 11 21 8 5 -3 4 -12 -3 -20z m143 -11 c19 -17 24 -48 9 -57 -9 -6 -71 21 -71 31 0 8 31 43 38 43 3 0 14 -7 24 -17z m258 -138 c10 -12 9 -16 -5 -21 -19 -8 -40 9 -31 25 10 15 21 14 36 -4z m177 -62 c5 -15 -63 -47 -83 -39 -22 9 -12 30 17 34 13 2 28 8 34 13 11 11 27 7 32 -8z"/>
<path d="M5028 3843 c-39 -9 -14 -39 39 -48 23 -3 47 -13 53 -20 6 -7 13 -55 15 -107 5 -123 13 -169 37 -194 l19 -21 -26 -17 -25 -16 0 -140 c0 -87 4 -140 10 -140 6 0 13 -1 17 -1 4 -1 15 11 23 26 21 37 46 53 61 38 8 -8 8 -17 -1 -33 -9 -16 -9 -25 1 -36 17 -21 29 -17 26 9 l-2 22 95 -4 c67 -2 100 -8 112 -18 10 -9 56 -69 103 -135 181 -251 242 -307 351 -327 69 -13 353 -14 373 -2 19 12 5 31 -23 31 -69 0 -75 37 -73 435 2 318 5 341 49 347 13 2 23 10 23 18 0 12 -21 15 -120 18 -66 1 -126 -2 -134 -7 -17 -11 -6 -31 18 -31 44 0 46 -14 46 -386 0 -252 -3 -356 -11 -364 -9 -9 -24 -7 -59 9 -52 23 -138 106 -225 219 -30 39 -61 74 -69 77 -8 3 -25 -4 -37 -16 l-24 -22 -20 18 c-25 23 -25 47 0 70 26 24 25 30 -10 75 l-30 37 22 19 c33 30 118 155 118 175 0 10 4 20 9 23 20 13 31 106 21 174 -23 141 -113 218 -280 241 -71 9 -435 12 -472 4z m468 -97 c69 -32 113 -89 127 -167 11 -54 14 -59 33 -55 28 7 56 -24 51 -58 -3 -26 -22 -38 -22 -13 0 21 -26 13 -40 -13 -7 -14 -19 -45 -26 -70 -18 -61 -71 -117 -122 -131 -51 -13 -181 -3 -197 16 -12 14 -17 486 -5 505 3 5 39 10 78 10 54 0 84 -6 123 -24z m177 -66 c9 -16 12 -32 8 -35 -12 -7 -54 42 -46 54 11 18 23 12 38 -19z m-466 -106 c9 -23 -11 -38 -26 -20 -13 16 -7 36 10 36 5 0 12 -7 16 -16z"/>
<path d="M1260 3781 c-14 -28 -13 -41 5 -41 16 0 36 39 28 53 -8 13 -22 8 -33 -12z"/>
<path d="M1362 3761 c-26 -45 -28 -61 -8 -61 19 0 60 66 52 85 -9 24 -21 18 -44 -24z"/>
<path d="M1242 3638 c-17 -17 -15 -38 3 -38 12 0 35 28 35 44 0 11 -26 6 -38 -6z"/>
<path d="M1192 3568 c-14 -14 -16 -48 -4 -48 15 0 44 38 37 49 -8 14 -18 14 -33 -1z"/>
<path d="M3258 3543 c-10 -2 -18 -11 -18 -19 0 -22 44 -14 48 9 4 17 1 18 -30 10z"/>
<path d="M7550 3533 c-118 -2 -221 -5 -229 -8 -18 -7 5 -35 29 -35 22 0 50 -31 50 -56 0 -29 20 -46 37 -32 18 14 36 -3 31 -28 -2 -13 -12 -19 -28 -19 -23 0 -25 -5 -30 -52 -6 -54 3 -66 28 -41 16 16 35 -3 30 -28 -2 -13 -12 -19 -28 -19 l-25 0 -6 -225 c-6 -240 -11 -264 -55 -281 -14 -5 -24 -15 -21 -22 4 -14 433 -23 456 -8 13 9 30 74 31 124 0 40 -33 37 -45 -5 -13 -44 -45 -58 -136 -58 -94 0 -108 9 -115 80 -4 35 -14 63 -27 78 l-20 22 22 24 c20 21 23 33 20 88 l-4 63 90 -3 c93 -4 115 -12 115 -44 0 -23 29 -36 41 -17 5 8 9 45 9 83 l0 69 -32 -8 c-60 -13 -206 -17 -213 -6 -3 6 -7 70 -8 142 -2 158 -1 159 101 151 90 -7 109 -15 117 -51 8 -38 32 -40 46 -4 12 32 8 126 -6 127 -5 1 -107 0 -225 -1z m-64 -774 c10 -17 -13 -36 -27 -22 -12 12 -4 33 11 33 5 0 12 -5 16 -11z"/>
<path d="M6370 3520 c-13 -9 -13 -11 0 -20 8 -5 25 -10 38 -10 42 0 77 -56 134 -210 31 -82 66 -157 77 -164 6 -4 18 5 27 19 13 20 19 23 31 14 11 -10 17 -9 29 2 12 13 7 33 -41 162 -30 81 -55 152 -55 157 0 6 14 16 30 21 33 12 38 24 14 33 -26 10 -268 6 -284 -4z m196 -88 c0 -17 6 -37 13 -45 7 -9 8 -18 3 -21 -11 -6 -35 18 -27 26 3 3 -1 11 -10 18 -24 20 -17 66 9 57 6 -2 11 -18 12 -35z"/>
<path d="M7025 3520 c-9 -14 3 -30 23 -30 18 0 73 -38 60 -41 -5 -1 -12 -3 -18 -4 -5 -1 -14 -3 -19 -4 -5 0 -26 -47 -46 -103 -65 -178 -165 -431 -177 -445 -5 -7 -14 -11 -18 -8 -4 3 -27 56 -50 119 -23 63 -48 117 -55 120 -7 2 -23 -7 -36 -20 -13 -14 -29 -22 -36 -20 -15 6 -27 -10 -13 -19 5 -3 10 -16 10 -28 0 -12 20 -74 44 -137 84 -217 93 -235 115 -238 22 -4 40 31 121 223 160 383 200 481 200 495 1 25 69 110 89 110 27 0 46 26 25 34 -26 10 -212 7 -219 -4z"/>
<path d="M7994 3519 c-7 -13 13 -29 37 -29 8 0 21 -6 28 -12 7 -7 29 -13 49 -13 26 0 37 -4 37 -15 0 -10 -8 -14 -22 -13 -43 5 -51 -27 -50 -205 0 -90 4 -165 9 -168 5 -3 18 2 28 11 23 20 40 12 40 -19 0 -30 -10 -39 -28 -24 -12 10 -18 8 -33 -11 -16 -20 -19 -41 -19 -151 0 -110 -2 -129 -18 -143 -10 -10 -24 -17 -30 -17 -18 0 -26 -22 -11 -31 8 -5 68 -9 134 -9 66 0 126 4 134 9 17 11 6 31 -18 31 -11 0 -29 9 -42 19 l-24 19 0 139 0 138 44 3 c25 2 55 1 67 -2 14 -4 57 -52 112 -128 147 -200 186 -228 314 -228 114 0 133 27 36 51 -62 14 -123 71 -256 237 l-83 103 41 49 c88 105 109 223 56 313 -28 48 -61 72 -131 94 -52 17 -391 18 -401 2z m333 -60 c64 -24 100 -79 109 -166 8 -74 -9 -138 -46 -175 -26 -26 -35 -28 -102 -28 -44 0 -79 5 -86 12 -13 13 -18 349 -5 361 10 11 99 8 130 -4z"/>
<path d="M3090 3460 c-165 -86 -421 -182 -725 -271 -93 -28 -197 -59 -230 -68 -102 -31 -234 -90 -309 -138 -98 -64 -104 -77 -60 -118 24 -22 25 -25 10 -48 -18 -27 -49 -45 -86 -49 -22 -3 -25 -7 -22 -40 4 -42 -14 -74 -50 -92 -41 -20 -37 -122 7 -175 15 -16 25 -42 25 -59 0 -16 7 -35 15 -42 8 -7 15 -18 15 -25 0 -6 9 -20 20 -30 11 -10 20 -22 20 -27 0 -5 24 -41 53 -78 69 -92 92 -94 101 -9 3 33 8 65 12 70 10 16 43 10 56 -11 7 -11 20 -20 30 -20 9 0 20 -4 23 -10 15 -24 44 -10 54 28 6 20 11 40 11 44 0 4 -25 40 -55 80 -30 40 -64 97 -75 126 -25 66 -26 157 -2 224 56 162 320 320 745 448 104 31 137 45 154 67 18 22 24 25 37 14 19 -16 28 -14 186 41 132 46 149 60 115 99 -19 20 -21 18 30 34 18 5 38 53 31 72 -9 22 -37 14 -136 -37z m-146 -141 c-3 -5 -10 -7 -15 -3 -5 3 -7 10 -3 15 3 5 10 7 15 3 5 -3 7 -10 3 -15z m-957 -366 c4 -10 -49 -43 -69 -43 -5 0 -20 7 -34 16 -19 13 -22 19 -13 31 15 17 110 14 116 -4z m-77 -118 c0 -43 -39 -58 -72 -28 -28 25 -22 51 15 67 28 12 34 12 45 -2 6 -9 12 -25 12 -37z m-81 -223 c-28 -49 -30 -51 -56 -41 -17 6 -23 16 -23 39 0 34 22 49 44 31 10 -8 16 -8 26 4 23 28 29 4 9 -33z m-124 -92 c-3 -10 12 -32 40 -60 35 -34 45 -51 45 -76 0 -18 -4 -35 -8 -38 -15 -9 -62 49 -98 120 -34 67 -40 94 -27 107 11 12 54 -35 48 -53z m130 11 c7 -12 -12 -24 -25 -16 -11 7 -4 25 10 25 5 0 11 -4 15 -9z"/>
<path d="M1140 3470 c0 -16 5 -30 10 -30 6 0 10 14 10 30 0 17 -4 30 -10 30 -5 0 -10 -13 -10 -30z"/>
<path d="M4600 3319 c0 -36 2 -40 23 -37 39 5 31 78 -9 78 -10 0 -14 -13 -14 -41z"/>
<path d="M1080 3091 c-14 -34 -7 -51 19 -51 16 0 31 34 31 71 0 23 -39 7 -50 -20z"/>
<path d="M5235 3085 c-16 -51 -14 -50 -43 -22 -47 45 -54 28 -59 -139 -6 -164 -13 -188 -63 -199 -36 -8 -42 -40 -7 -48 18 -3 296 -2 345 2 6 1 12 10 12 20 0 15 -10 20 -49 26 -28 4 -56 14 -63 22 -8 10 -15 68 -19 170 -7 146 -15 183 -41 183 -5 0 -11 -7 -13 -15z"/>
<path d="M1314 2866 c-3 -9 -1 -23 5 -30 8 -10 9 -16 1 -21 -14 -9 -13 -32 3 -38 23 -9 41 9 32 29 -5 11 -9 30 -9 43 -1 28 -23 40 -32 17z"/>
<path d="M4602 2868 c-7 -7 -12 -20 -12 -31 0 -10 -5 -27 -11 -38 -11 -22 -4 -59 12 -59 14 0 39 64 39 99 0 34 -11 46 -28 29z"/>
<path d="M1255 2730 c-10 -16 4 -50 21 -50 11 0 14 8 12 27 -3 28 -22 41 -33 23z"/>
<path d="M1080 2651 c0 -17 5 -33 10 -36 6 -3 10 -20 10 -36 0 -16 6 -40 14 -52 8 -12 27 -60 41 -107 15 -47 31 -94 36 -105 4 -11 19 -46 33 -77 20 -48 29 -58 49 -58 35 0 39 9 16 41 -11 16 -27 54 -35 86 -8 32 -23 76 -33 98 -28 60 -32 85 -15 92 12 4 14 21 11 82 -4 68 -7 76 -26 79 -19 3 -21 -1 -18 -42 3 -64 -13 -61 -35 7 -15 43 -24 57 -39 57 -14 0 -19 -7 -19 -29z"/>
<path d="M5227 2476 c-44 -10 -67 -21 -95 -49 -34 -34 -37 -42 -40 -105 -5 -94 13 -126 137 -240 113 -105 131 -139 106 -198 -16 -38 -67 -74 -106 -74 -68 0 -106 31 -123 103 -10 43 -30 27 -39 -32 -14 -83 -6 -98 60 -117 154 -45 291 35 301 176 6 82 -11 123 -76 183 -172 161 -182 172 -182 208 0 70 62 110 140 89 33 -9 44 -18 58 -48 21 -48 21 -47 31 -36 5 5 11 35 15 66 l6 56 -33 10 c-59 18 -101 20 -160 8z"/>
<path d="M5840 2476 c-123 -22 -200 -78 -256 -186 -27 -51 -29 -63 -29 -170 0 -106 2 -119 28 -170 16 -30 42 -69 59 -87 34 -35 134 -87 188 -97 125 -23 283 -12 314 23 18 19 41 125 31 141 -13 21 -33 8 -49 -30 -24 -61 -54 -75 -161 -74 -73 0 -99 4 -138 23 -60 30 -132 110 -157 179 -37 99 -21 233 38 310 101 133 422 104 422 -38 0 -20 17 -36 28 -25 14 13 20 160 8 173 -9 10 -231 45 -256 41 -3 0 -34 -6 -70 -13z"/>
<path d="M7355 2476 c-116 -24 -205 -92 -254 -196 -23 -49 -26 -67 -26 -165 0 -105 2 -114 33 -177 39 -79 93 -129 169 -158 110 -41 224 -35 327 17 l50 25 45 -22 c101 -50 189 -61 284 -36 69 18 101 35 154 80 117 102 158 304 89 448 -83 174 -307 241 -507 151 l-57 -25 -43 23 c-38 19 -165 51 -194 48 -5 -1 -37 -6 -70 -13z m143 -62 c28 -9 63 -29 77 -44 l26 -27 -20 -35 c-50 -84 -65 -208 -36 -306 9 -31 24 -56 36 -63 11 -6 18 -13 15 -16 -3 -4 0 -13 6 -21 19 -23 -38 -67 -107 -83 -128 -29 -246 45 -297 187 -29 81 -30 210 -1 275 53 120 175 174 301 133z m461 0 c62 -18 119 -66 149 -126 65 -129 49 -323 -35 -410 -28 -30 -118 -68 -158 -68 -48 0 -118 25 -153 55 l-35 31 29 60 c24 50 30 74 33 153 4 110 -11 171 -51 217 l-29 33 40 27 c68 44 128 53 210 28z m-275 -272 c10 -94 -19 -173 -35 -97 -9 42 -10 170 -2 179 14 13 31 -25 37 -82z"/>
<path d="M6310 2459 c-8 -6 -11 -12 -5 -15 6 -2 21 -10 35 -17 l25 -13 3 -264 c3 -303 1 -326 -34 -342 -13 -6 -23 -16 -21 -22 6 -17 48 -22 141 -16 95 5 124 22 65 38 -44 11 -50 39 -47 195 l3 122 180 0 180 0 3 -90 c2 -49 0 -118 -3 -153 -6 -54 -10 -65 -31 -74 -49 -23 -19 -33 96 -33 77 0 115 4 117 12 2 6 -10 14 -27 18 -20 4 -34 15 -41 32 -5 13 -9 146 -9 294 0 250 1 270 19 288 10 10 25 21 32 24 33 13 -21 27 -106 27 -94 0 -133 -11 -105 -30 8 -5 21 -10 28 -10 21 0 32 -47 32 -141 l0 -89 -27 -11 c-35 -13 -320 -6 -335 9 -6 6 -9 52 -6 112 3 103 8 116 52 134 29 12 -28 26 -109 26 -49 0 -97 -5 -105 -11z"/>
<path d="M8320 2460 c-13 -9 -13 -11 0 -20 8 -5 20 -10 27 -10 30 0 35 -44 34 -306 -1 -145 -5 -274 -11 -288 -5 -13 -18 -27 -30 -31 -39 -12 -15 -30 41 -30 49 0 54 2 54 22 0 34 15 40 34 14 11 -14 23 -21 30 -17 8 5 9 12 3 19 -15 19 -22 129 -23 359 0 225 5 258 41 258 24 0 37 20 19 31 -19 12 -200 11 -219 -1z"/>
<path d="M1323 2305 c2 -19 7 -38 10 -42 11 -10 8 -48 -3 -59 -19 -19 6 -64 34 -64 13 0 31 -3 40 -6 26 -10 31 24 9 64 -11 20 -24 51 -27 67 -17 73 -70 106 -63 40z"/>
<path d="M1373 2024 c-9 -25 23 -84 47 -84 12 0 20 6 18 13 -2 6 1 14 7 16 5 2 29 -32 53 -75 25 -44 50 -81 56 -83 6 -2 25 -19 42 -38 34 -37 51 -41 70 -15 12 16 13 15 23 -8 5 -14 18 -35 28 -48 17 -20 20 -21 38 -8 l20 14 -23 29 c-12 15 -43 55 -68 88 -45 60 -69 75 -69 43 0 -28 -13 -31 -26 -6 -6 12 -25 38 -40 56 -16 18 -29 38 -29 45 0 7 -15 27 -33 45 -25 24 -42 32 -70 32 -25 0 -40 -5 -44 -16z"/>
<path d="M1266 1994 c-5 -19 -2 -30 11 -40 19 -14 63 -19 63 -7 0 14 -45 73 -56 73 -7 0 -15 -12 -18 -26z"/>
<path d="M8701 1865 c-17 -29 -26 -35 -55 -35 -24 0 -38 -6 -45 -18 -15 -29 3 -45 50 -45 83 -1 99 14 99 96 0 48 -21 49 -49 2z"/>
<path d="M1362 1853 c2 -22 9 -29 31 -31 31 -4 34 4 11 36 -22 32 -46 29 -42 -5z"/>
<path d="M1899 1554 c-10 -13 -4 -23 41 -64 48 -46 100 -67 100 -40 0 16 -71 90 -101 105 -23 13 -29 13 -40 -1z"/>
<path d="M2090 1525 c-18 -21 4 -45 41 -45 38 0 38 25 0 44 -26 14 -30 14 -41 1z"/>
</g>
</g>
</svg>
