<svg xmlns="http://www.w3.org/2000/svg" version="1.0" width="4296.000000pt" height="1088.000000pt" viewBox="0 0 4296.000000 1088.000000" preserveAspectRatio="xMidYMid meet">
  <g transform="translate(0.000000,1088.000000) scale(0.100000,-0.100000)" stroke="none">
    <mask id="mask-7">
      <g>
        <path d="M 0 0 H 42960.0 V 10880.0 H 0 Z" fill="white" id="background"/>
        <path d="M27378 3889 c26 -6 84 -29 129 -51 104 -51 191 -139 246 -249 69 -136 67 -108 67 -1163 0 -645 -4 -970 -11 -1015 -31 -183 -175 -361 -349 -428 -96 -38 -170 -43 -583 -43 l-397 0 0 1480 0 1480 426 0 c267 0 443 -4 472 -11z" fill="black"/>
      </g>
    </mask>
    <mask id="mask-6">
      <g>
        <path d="M 0 0 H 42960.0 V 10880.0 H 0 Z" fill="white" id="background"/>
        <path d="M29740 3335 c0 -19 4 -44 9 -57 9 -24 36 -113 71 -235 30 -105 58 -203 81 -285 12 -40 30 -104 41 -143 11 -38 29 -101 40 -140 11 -38 29 -101 40 -140 11 -38 29 -99 39 -135 38 -136 62 -217 80 -278 11 -35 21 -79 22 -98 l2 -34 -440 0 -440 0 1 37 c1 37 28 147 45 188 9 20 22 68 55 195 9 36 21 74 25 85 9 20 22 68 55 195 9 36 20 74 24 85 4 11 13 38 19 60 6 22 20 69 31 104 11 35 20 71 20 79 0 8 9 42 20 76 11 33 29 95 40 136 62 223 101 340 111 340 5 0 9 -16 9 -35z" fill="black"/>
        <path d="M27378 3889 c26 -6 84 -29 129 -51 104 -51 191 -139 246 -249 69 -136 67 -108 67 -1163 0 -645 -4 -970 -11 -1015 -31 -183 -175 -361 -349 -428 -96 -38 -170 -43 -583 -43 l-397 0 0 1480 0 1480 426 0 c267 0 443 -4 472 -11z" fill="black"/>
      </g>
    </mask>
    <mask id="mask-5">
      <g>
        <path d="M 0 0 H 42960.0 V 10880.0 H 0 Z" fill="white" id="background"/>
        <path d="M35960 3936 c99 -26 145 -49 219 -104 80 -60 147 -159 189 -277 31 -85 33 -189 30 -1180 -4 -1125 0 -1062 -80 -1195 -59 -97 -82 -124 -145 -172 -123 -92 -238 -124 -457 -127 -88 -1 -151 7 -286 37 -89 20 -256 165 -311 272 -37 72 -45 95 -61 190 -15 87 -23 2009 -8 2024 5 5 10 31 10 57 0 73 35 163 100 259 39 57 60 78 120 120 19 13 37 27 40 30 10 11 97 48 140 60 25 6 56 15 70 20 14 4 97 8 185 9 138 0 172 -3 245 -23z" fill="black"/>
        <path d="M29740 3335 c0 -19 4 -44 9 -57 9 -24 36 -113 71 -235 30 -105 58 -203 81 -285 12 -40 30 -104 41 -143 11 -38 29 -101 40 -140 11 -38 29 -101 40 -140 11 -38 29 -99 39 -135 38 -136 62 -217 80 -278 11 -35 21 -79 22 -98 l2 -34 -440 0 -440 0 1 37 c1 37 28 147 45 188 9 20 22 68 55 195 9 36 21 74 25 85 9 20 22 68 55 195 9 36 20 74 24 85 4 11 13 38 19 60 6 22 20 69 31 104 11 35 20 71 20 79 0 8 9 42 20 76 11 33 29 95 40 136 62 223 101 340 111 340 5 0 9 -16 9 -35z" fill="black"/>
        <path d="M27378 3889 c26 -6 84 -29 129 -51 104 -51 191 -139 246 -249 69 -136 67 -108 67 -1163 0 -645 -4 -970 -11 -1015 -31 -183 -175 -361 -349 -428 -96 -38 -170 -43 -583 -43 l-397 0 0 1480 0 1480 426 0 c267 0 443 -4 472 -11z" fill="black"/>
      </g>
    </mask>
    <mask id="mask-4">
      <g>
        <path d="M 0 0 H 42960.0 V 10880.0 H 0 Z" fill="white" id="background"/>
        <path d="M18894 3951 c17 -5 51 -15 76 -22 133 -35 278 -156 339 -284 49 -102 49 -102 60 -194 15 -118 15 -1946 0 -2061 -12 -93 -21 -119 -85 -240 -28 -54 -150 -165 -216 -197 -161 -79 -425 -96 -623 -42 -114 32 -276 148 -315 226 -8 15 -22 39 -30 53 -9 14 -27 52 -41 85 l-24 60 0 1085 c0 887 2 1091 14 1120 80 210 214 343 391 390 25 6 56 15 70 20 35 11 347 12 384 1z" fill="black"/>
        <path d="M35960 3936 c99 -26 145 -49 219 -104 80 -60 147 -159 189 -277 31 -85 33 -189 30 -1180 -4 -1125 0 -1062 -80 -1195 -59 -97 -82 -124 -145 -172 -123 -92 -238 -124 -457 -127 -88 -1 -151 7 -286 37 -89 20 -256 165 -311 272 -37 72 -45 95 -61 190 -15 87 -23 2009 -8 2024 5 5 10 31 10 57 0 73 35 163 100 259 39 57 60 78 120 120 19 13 37 27 40 30 10 11 97 48 140 60 25 6 56 15 70 20 14 4 97 8 185 9 138 0 172 -3 245 -23z" fill="black"/>
        <path d="M29740 3335 c0 -19 4 -44 9 -57 9 -24 36 -113 71 -235 30 -105 58 -203 81 -285 12 -40 30 -104 41 -143 11 -38 29 -101 40 -140 11 -38 29 -101 40 -140 11 -38 29 -99 39 -135 38 -136 62 -217 80 -278 11 -35 21 -79 22 -98 l2 -34 -440 0 -440 0 1 37 c1 37 28 147 45 188 9 20 22 68 55 195 9 36 21 74 25 85 9 20 22 68 55 195 9 36 20 74 24 85 4 11 13 38 19 60 6 22 20 69 31 104 11 35 20 71 20 79 0 8 9 42 20 76 11 33 29 95 40 136 62 223 101 340 111 340 5 0 9 -16 9 -35z" fill="black"/>
        <path d="M27378 3889 c26 -6 84 -29 129 -51 104 -51 191 -139 246 -249 69 -136 67 -108 67 -1163 0 -645 -4 -970 -11 -1015 -31 -183 -175 -361 -349 -428 -96 -38 -170 -43 -583 -43 l-397 0 0 1480 0 1480 426 0 c267 0 443 -4 472 -11z" fill="black"/>
      </g>
    </mask>
    <mask id="mask-3">
      <g>
        <path d="M 0 0 H 42960.0 V 10880.0 H 0 Z" fill="white" id="background"/>
        <path d="M35403 8103 c159 -47 284 -169 342 -335 21 -62 21 -414 -1 -478 -48 -141 -121 -233 -233 -294 -95 -51 -135 -55 -518 -56 l-353 0 0 583 c0 321 3 587 7 591 12 11 714 1 756 -11z" fill="black"/>
        <path d="M18894 3951 c17 -5 51 -15 76 -22 133 -35 278 -156 339 -284 49 -102 49 -102 60 -194 15 -118 15 -1946 0 -2061 -12 -93 -21 -119 -85 -240 -28 -54 -150 -165 -216 -197 -161 -79 -425 -96 -623 -42 -114 32 -276 148 -315 226 -8 15 -22 39 -30 53 -9 14 -27 52 -41 85 l-24 60 0 1085 c0 887 2 1091 14 1120 80 210 214 343 391 390 25 6 56 15 70 20 35 11 347 12 384 1z" fill="black"/>
        <path d="M35960 3936 c99 -26 145 -49 219 -104 80 -60 147 -159 189 -277 31 -85 33 -189 30 -1180 -4 -1125 0 -1062 -80 -1195 -59 -97 -82 -124 -145 -172 -123 -92 -238 -124 -457 -127 -88 -1 -151 7 -286 37 -89 20 -256 165 -311 272 -37 72 -45 95 -61 190 -15 87 -23 2009 -8 2024 5 5 10 31 10 57 0 73 35 163 100 259 39 57 60 78 120 120 19 13 37 27 40 30 10 11 97 48 140 60 25 6 56 15 70 20 14 4 97 8 185 9 138 0 172 -3 245 -23z" fill="black"/>
        <path d="M29740 3335 c0 -19 4 -44 9 -57 9 -24 36 -113 71 -235 30 -105 58 -203 81 -285 12 -40 30 -104 41 -143 11 -38 29 -101 40 -140 11 -38 29 -101 40 -140 11 -38 29 -99 39 -135 38 -136 62 -217 80 -278 11 -35 21 -79 22 -98 l2 -34 -440 0 -440 0 1 37 c1 37 28 147 45 188 9 20 22 68 55 195 9 36 21 74 25 85 9 20 22 68 55 195 9 36 20 74 24 85 4 11 13 38 19 60 6 22 20 69 31 104 11 35 20 71 20 79 0 8 9 42 20 76 11 33 29 95 40 136 62 223 101 340 111 340 5 0 9 -16 9 -35z" fill="black"/>
        <path d="M27378 3889 c26 -6 84 -29 129 -51 104 -51 191 -139 246 -249 69 -136 67 -108 67 -1163 0 -645 -4 -970 -11 -1015 -31 -183 -175 -361 -349 -428 -96 -38 -170 -43 -583 -43 l-397 0 0 1480 0 1480 426 0 c267 0 443 -4 472 -11z" fill="black"/>
      </g>
    </mask>
    <mask id="mask-2">
      <g>
        <path d="M 0 0 H 42960.0 V 10880.0 H 0 Z" fill="white" id="background"/>
        <path d="M32080 7644 c0 -9 9 -44 20 -78 11 -33 29 -95 41 -136 12 -41 30 -104 40 -140 11 -36 24 -83 30 -105 6 -22 15 -51 19 -65 4 -14 13 -45 20 -70 7 -25 16 -56 20 -70 4 -14 13 -45 20 -70 7 -25 16 -56 20 -70 4 -14 13 -45 20 -70 7 -25 16 -56 20 -70 4 -14 13 -45 20 -70 7 -25 16 -56 20 -70 4 -14 13 -45 20 -70 6 -25 16 -53 21 -62 5 -10 9 -29 9 -43 l0 -25 -370 0 c-228 0 -370 4 -370 10 0 5 4 19 9 32 9 24 36 114 69 233 11 39 29 102 41 140 11 39 21 80 21 91 0 11 4 24 9 30 5 5 16 38 26 74 9 36 21 81 26 100 6 19 13 46 15 60 3 14 10 34 15 45 5 11 15 45 24 75 12 48 37 137 65 235 5 17 17 63 27 103 16 66 33 95 33 56z" fill="black"/>
        <path d="M35403 8103 c159 -47 284 -169 342 -335 21 -62 21 -414 -1 -478 -48 -141 -121 -233 -233 -294 -95 -51 -135 -55 -518 -56 l-353 0 0 583 c0 321 3 587 7 591 12 11 714 1 756 -11z" fill="black"/>
        <path d="M18894 3951 c17 -5 51 -15 76 -22 133 -35 278 -156 339 -284 49 -102 49 -102 60 -194 15 -118 15 -1946 0 -2061 -12 -93 -21 -119 -85 -240 -28 -54 -150 -165 -216 -197 -161 -79 -425 -96 -623 -42 -114 32 -276 148 -315 226 -8 15 -22 39 -30 53 -9 14 -27 52 -41 85 l-24 60 0 1085 c0 887 2 1091 14 1120 80 210 214 343 391 390 25 6 56 15 70 20 35 11 347 12 384 1z" fill="black"/>
        <path d="M35960 3936 c99 -26 145 -49 219 -104 80 -60 147 -159 189 -277 31 -85 33 -189 30 -1180 -4 -1125 0 -1062 -80 -1195 -59 -97 -82 -124 -145 -172 -123 -92 -238 -124 -457 -127 -88 -1 -151 7 -286 37 -89 20 -256 165 -311 272 -37 72 -45 95 -61 190 -15 87 -23 2009 -8 2024 5 5 10 31 10 57 0 73 35 163 100 259 39 57 60 78 120 120 19 13 37 27 40 30 10 11 97 48 140 60 25 6 56 15 70 20 14 4 97 8 185 9 138 0 172 -3 245 -23z" fill="black"/>
        <path d="M29740 3335 c0 -19 4 -44 9 -57 9 -24 36 -113 71 -235 30 -105 58 -203 81 -285 12 -40 30 -104 41 -143 11 -38 29 -101 40 -140 11 -38 29 -101 40 -140 11 -38 29 -99 39 -135 38 -136 62 -217 80 -278 11 -35 21 -79 22 -98 l2 -34 -440 0 -440 0 1 37 c1 37 28 147 45 188 9 20 22 68 55 195 9 36 21 74 25 85 9 20 22 68 55 195 9 36 20 74 24 85 4 11 13 38 19 60 6 22 20 69 31 104 11 35 20 71 20 79 0 8 9 42 20 76 11 33 29 95 40 136 62 223 101 340 111 340 5 0 9 -16 9 -35z" fill="black"/>
        <path d="M27378 3889 c26 -6 84 -29 129 -51 104 -51 191 -139 246 -249 69 -136 67 -108 67 -1163 0 -645 -4 -970 -11 -1015 -31 -183 -175 -361 -349 -428 -96 -38 -170 -43 -583 -43 l-397 0 0 1480 0 1480 426 0 c267 0 443 -4 472 -11z" fill="black"/>
      </g>
    </mask>
    <mask id="mask-1">
      <g>
        <path d="M 0 0 H 42960.0 V 10880.0 H 0 Z" fill="white" id="background"/>
        <path d="M23570 8096 c36 -10 77 -27 92 -37 14 -11 30 -19 35 -19 18 0 117 -108 147 -160 55 -98 58 -112 63 -321 6 -228 -4 -283 -67 -391 -45 -74 -103 -130 -180 -172 -93 -51 -134 -55 -512 -56 l-348 0 0 590 0 590 353 -2 c308 -3 360 -6 417 -22z" fill="black"/>
        <path d="M32080 7644 c0 -9 9 -44 20 -78 11 -33 29 -95 41 -136 12 -41 30 -104 40 -140 11 -36 24 -83 30 -105 6 -22 15 -51 19 -65 4 -14 13 -45 20 -70 7 -25 16 -56 20 -70 4 -14 13 -45 20 -70 7 -25 16 -56 20 -70 4 -14 13 -45 20 -70 7 -25 16 -56 20 -70 4 -14 13 -45 20 -70 7 -25 16 -56 20 -70 4 -14 13 -45 20 -70 6 -25 16 -53 21 -62 5 -10 9 -29 9 -43 l0 -25 -370 0 c-228 0 -370 4 -370 10 0 5 4 19 9 32 9 24 36 114 69 233 11 39 29 102 41 140 11 39 21 80 21 91 0 11 4 24 9 30 5 5 16 38 26 74 9 36 21 81 26 100 6 19 13 46 15 60 3 14 10 34 15 45 5 11 15 45 24 75 12 48 37 137 65 235 5 17 17 63 27 103 16 66 33 95 33 56z" fill="black"/>
        <path d="M35403 8103 c159 -47 284 -169 342 -335 21 -62 21 -414 -1 -478 -48 -141 -121 -233 -233 -294 -95 -51 -135 -55 -518 -56 l-353 0 0 583 c0 321 3 587 7 591 12 11 714 1 756 -11z" fill="black"/>
        <path d="M18894 3951 c17 -5 51 -15 76 -22 133 -35 278 -156 339 -284 49 -102 49 -102 60 -194 15 -118 15 -1946 0 -2061 -12 -93 -21 -119 -85 -240 -28 -54 -150 -165 -216 -197 -161 -79 -425 -96 -623 -42 -114 32 -276 148 -315 226 -8 15 -22 39 -30 53 -9 14 -27 52 -41 85 l-24 60 0 1085 c0 887 2 1091 14 1120 80 210 214 343 391 390 25 6 56 15 70 20 35 11 347 12 384 1z" fill="black"/>
        <path d="M35960 3936 c99 -26 145 -49 219 -104 80 -60 147 -159 189 -277 31 -85 33 -189 30 -1180 -4 -1125 0 -1062 -80 -1195 -59 -97 -82 -124 -145 -172 -123 -92 -238 -124 -457 -127 -88 -1 -151 7 -286 37 -89 20 -256 165 -311 272 -37 72 -45 95 -61 190 -15 87 -23 2009 -8 2024 5 5 10 31 10 57 0 73 35 163 100 259 39 57 60 78 120 120 19 13 37 27 40 30 10 11 97 48 140 60 25 6 56 15 70 20 14 4 97 8 185 9 138 0 172 -3 245 -23z" fill="black"/>
        <path d="M29740 3335 c0 -19 4 -44 9 -57 9 -24 36 -113 71 -235 30 -105 58 -203 81 -285 12 -40 30 -104 41 -143 11 -38 29 -101 40 -140 11 -38 29 -101 40 -140 11 -38 29 -99 39 -135 38 -136 62 -217 80 -278 11 -35 21 -79 22 -98 l2 -34 -440 0 -440 0 1 37 c1 37 28 147 45 188 9 20 22 68 55 195 9 36 21 74 25 85 9 20 22 68 55 195 9 36 20 74 24 85 4 11 13 38 19 60 6 22 20 69 31 104 11 35 20 71 20 79 0 8 9 42 20 76 11 33 29 95 40 136 62 223 101 340 111 340 5 0 9 -16 9 -35z" fill="black"/>
        <path d="M27378 3889 c26 -6 84 -29 129 -51 104 -51 191 -139 246 -249 69 -136 67 -108 67 -1163 0 -645 -4 -970 -11 -1015 -31 -183 -175 -361 -349 -428 -96 -38 -170 -43 -583 -43 l-397 0 0 1480 0 1480 426 0 c267 0 443 -4 472 -11z" fill="black"/>
      </g>
    </mask>
    <mask id="mask-0">
      <g>
        <path d="M 0 0 H 42960.0 V 10880.0 H 0 Z" fill="white" id="background"/>
        <path d="M37632 8151 c13 -5 43 -15 68 -22 25 -7 58 -23 73 -36 16 -13 32 -23 36 -23 26 0 128 -124 159 -192 7 -16 18 -40 25 -55 9 -20 12 -229 12 -937 l0 -911 -24 -60 c-61 -151 -169 -248 -327 -294 -56 -17 -99 -21 -201 -21 -72 0 -143 4 -159 9 -16 5 -49 15 -74 22 -57 17 -181 99 -213 141 -38 50 -77 124 -93 176 -19 64 -20 1790 -1 1862 38 144 172 284 302 320 28 7 57 17 65 21 20 11 323 11 352 0z" fill="black"/>
        <path d="M23570 8096 c36 -10 77 -27 92 -37 14 -11 30 -19 35 -19 18 0 117 -108 147 -160 55 -98 58 -112 63 -321 6 -228 -4 -283 -67 -391 -45 -74 -103 -130 -180 -172 -93 -51 -134 -55 -512 -56 l-348 0 0 590 0 590 353 -2 c308 -3 360 -6 417 -22z" fill="black"/>
        <path d="M32080 7644 c0 -9 9 -44 20 -78 11 -33 29 -95 41 -136 12 -41 30 -104 40 -140 11 -36 24 -83 30 -105 6 -22 15 -51 19 -65 4 -14 13 -45 20 -70 7 -25 16 -56 20 -70 4 -14 13 -45 20 -70 7 -25 16 -56 20 -70 4 -14 13 -45 20 -70 7 -25 16 -56 20 -70 4 -14 13 -45 20 -70 7 -25 16 -56 20 -70 4 -14 13 -45 20 -70 6 -25 16 -53 21 -62 5 -10 9 -29 9 -43 l0 -25 -370 0 c-228 0 -370 4 -370 10 0 5 4 19 9 32 9 24 36 114 69 233 11 39 29 102 41 140 11 39 21 80 21 91 0 11 4 24 9 30 5 5 16 38 26 74 9 36 21 81 26 100 6 19 13 46 15 60 3 14 10 34 15 45 5 11 15 45 24 75 12 48 37 137 65 235 5 17 17 63 27 103 16 66 33 95 33 56z" fill="black"/>
        <path d="M35403 8103 c159 -47 284 -169 342 -335 21 -62 21 -414 -1 -478 -48 -141 -121 -233 -233 -294 -95 -51 -135 -55 -518 -56 l-353 0 0 583 c0 321 3 587 7 591 12 11 714 1 756 -11z" fill="black"/>
        <path d="M18894 3951 c17 -5 51 -15 76 -22 133 -35 278 -156 339 -284 49 -102 49 -102 60 -194 15 -118 15 -1946 0 -2061 -12 -93 -21 -119 -85 -240 -28 -54 -150 -165 -216 -197 -161 -79 -425 -96 -623 -42 -114 32 -276 148 -315 226 -8 15 -22 39 -30 53 -9 14 -27 52 -41 85 l-24 60 0 1085 c0 887 2 1091 14 1120 80 210 214 343 391 390 25 6 56 15 70 20 35 11 347 12 384 1z" fill="black"/>
        <path d="M35960 3936 c99 -26 145 -49 219 -104 80 -60 147 -159 189 -277 31 -85 33 -189 30 -1180 -4 -1125 0 -1062 -80 -1195 -59 -97 -82 -124 -145 -172 -123 -92 -238 -124 -457 -127 -88 -1 -151 7 -286 37 -89 20 -256 165 -311 272 -37 72 -45 95 -61 190 -15 87 -23 2009 -8 2024 5 5 10 31 10 57 0 73 35 163 100 259 39 57 60 78 120 120 19 13 37 27 40 30 10 11 97 48 140 60 25 6 56 15 70 20 14 4 97 8 185 9 138 0 172 -3 245 -23z" fill="black"/>
        <path d="M29740 3335 c0 -19 4 -44 9 -57 9 -24 36 -113 71 -235 30 -105 58 -203 81 -285 12 -40 30 -104 41 -143 11 -38 29 -101 40 -140 11 -38 29 -101 40 -140 11 -38 29 -99 39 -135 38 -136 62 -217 80 -278 11 -35 21 -79 22 -98 l2 -34 -440 0 -440 0 1 37 c1 37 28 147 45 188 9 20 22 68 55 195 9 36 21 74 25 85 9 20 22 68 55 195 9 36 20 74 24 85 4 11 13 38 19 60 6 22 20 69 31 104 11 35 20 71 20 79 0 8 9 42 20 76 11 33 29 95 40 136 62 223 101 340 111 340 5 0 9 -16 9 -35z" fill="black"/>
        <path d="M27378 3889 c26 -6 84 -29 129 -51 104 -51 191 -139 246 -249 69 -136 67 -108 67 -1163 0 -645 -4 -970 -11 -1015 -31 -183 -175 -361 -349 -428 -96 -38 -170 -43 -583 -43 l-397 0 0 1480 0 1480 426 0 c267 0 443 -4 472 -11z" fill="black"/>
      </g>
    </mask>
    <path stroke="none" d="M7455 10811 c-11 -4 -81 -11 -155 -14 -77 -3 -154 -12 -180 -20 -25 -8 -65 -17 -90 -21 -25 -3 -65 -10 -90 -16 -25 -6 -65 -15 -90 -20 -25 -4 -63 -15 -85 -22 -22 -8 -74 -25 -115 -37 -75 -23 -110 -36 -230 -86 -36 -15 -81 -34 -100 -42 -19 -8 -44 -20 -55 -26 -63 -34 -139 -74 -205 -109 -41 -21 -91 -51 -110 -67 -19 -15 -71 -51 -115 -81 -180 -120 -440 -356 -573 -522 -29 -36 -64 -79 -78 -95 -35 -39 -213 -305 -254 -378 -55 -101 -126 -246 -161 -330 -18 -44 -36 -84 -39 -90 -4 -5 -17 -44 -30 -85 -12 -41 -31 -97 -41 -124 -11 -27 -19 -56 -19 -65 0 -9 -9 -43 -20 -75 -11 -33 -20 -75 -20 -95 0 -20 -8 -56 -16 -81 -9 -25 -20 -88 -25 -140 -4 -52 -12 -122 -18 -155 -12 -77 -12 -534 0 -690 6 -66 12 -165 14 -220 2 -55 9 -235 16 -400 6 -165 16 -305 21 -311 5 -7 7 -59 6 -115 l-3 -104 -480 5 c-771 8 -1220 5 -1315 -9 -157 -22 -292 -46 -355 -63 -216 -57 -211 -56 -380 -116 -124 -45 -343 -147 -423 -198 -29 -19 -54 -34 -56 -34 -11 0 -217 -135 -276 -180 -298 -229 -547 -497 -755 -815 -70 -107 -240 -438 -267 -520 -9 -27 -31 -90 -49 -140 -31 -88 -42 -123 -59 -195 -4 -19 -15 -60 -23 -90 -8 -30 -20 -86 -26 -125 -7 -38 -17 -93 -22 -120 -34 -178 -41 -632 -13 -815 9 -58 20 -132 25 -165 11 -78 41 -212 77 -345 22 -78 86 -257 95 -267 4 -3 7 -12 7 -18 0 -7 22 -60 50 -118 27 -58 50 -108 50 -110 0 -5 95 -172 161 -282 13 -22 44 -67 69 -100 25 -33 60 -80 77 -105 49 -72 229 -270 338 -373 109 -103 342 -288 391 -312 17 -8 37 -21 44 -30 7 -8 17 -15 22 -15 5 0 35 -17 66 -39 66 -44 359 -189 447 -221 56 -21 70 -26 128 -49 39 -16 60 -23 137 -43 41 -11 91 -24 110 -29 64 -19 115 -30 170 -39 53 -9 80 -13 270 -42 130 -20 933 -15 1015 6 45 12 113 16 283 16 123 0 499 9 836 20 875 29 1493 49 1861 60 176 6 455 14 620 20 165 5 446 15 625 20 179 6 530 17 780 25 881 28 1437 46 1645 53 l210 7 -4 2940 c-2 1636 -7 2947 -12 2957 -5 9 -9 428 -9 930 0 785 -2 926 -16 1008 -9 52 -20 124 -24 160 -5 36 -14 83 -20 105 -7 22 -15 60 -20 85 -4 25 -15 66 -24 93 -42 122 -49 144 -53 167 -3 14 -13 44 -24 67 -10 24 -19 47 -19 51 0 15 -97 223 -160 345 -67 130 -197 326 -305 463 -130 164 -344 376 -505 499 -35 28 -73 58 -84 68 -11 9 -24 17 -29 17 -5 0 -30 17 -56 38 -25 21 -53 42 -61 45 -8 4 -33 18 -55 31 -63 39 -206 119 -255 142 -169 81 -273 125 -335 141 -11 3 -39 14 -62 24 -24 10 -53 19 -66 19 -13 0 -27 4 -32 8 -13 12 -87 32 -116 32 -13 0 -51 9 -83 20 -33 11 -81 20 -107 20 -26 0 -50 4 -53 9 -8 13 -68 20 -256 32 -259 16 -383 19 -405 10z" fill="#ee5c70" id="ee5c70-000001" mask="url(#mask-0)"/>
    <path stroke="none" d="M25415 8450 c-11 -5 -36 -9 -56 -9 -34 -1 -77 -12 -124 -31 -11 -4 -36 -14 -55 -21 -56 -20 -180 -108 -240 -168 -60 -61 -125 -164 -157 -251 -11 -30 -26 -71 -33 -90 -11 -28 -15 -207 -17 -915 -4 -1038 -2 -1071 72 -1223 92 -187 226 -307 440 -393 58 -23 120 -29 331 -29 222 0 233 1 304 26 119 41 164 70 267 168 53 50 77 55 90 19 4 -10 24 -44 45 -75 21 -31 38 -61 38 -66 0 -19 48 -33 100 -30 l55 3 3 788 c1 535 -1 794 -8 808 -11 19 -22 19 -398 17 l-387 -3 -3 -134 c-2 -90 1 -138 9 -147 9 -11 57 -14 240 -14 l229 0 0 -342 c0 -320 -1 -347 -20 -398 -31 -82 -59 -130 -109 -183 -60 -63 -124 -103 -216 -133 -70 -23 -89 -25 -218 -22 -150 4 -235 21 -307 62 -97 55 -190 171 -226 281 -18 57 -19 103 -22 925 -1 494 2 876 7 890 5 14 15 45 22 70 30 104 126 220 220 268 101 51 155 62 314 61 130 0 159 -3 215 -22 95 -33 128 -53 195 -118 57 -55 125 -165 125 -201 0 -8 4 -18 10 -24 5 -5 11 -68 12 -139 l3 -130 54 -3 c62 -4 227 23 247 39 25 20 10 304 -17 333 -5 6 -9 18 -9 28 0 17 -47 122 -72 163 -76 119 -128 174 -232 244 -80 54 -211 102 -324 120 -84 13 -368 14 -397 1z" fill="#ffffff" id="ffffff-000001" mask="url(#mask-0)"/>
    <path stroke="none" d="M37245 8448 c-79 -14 -149 -30 -165 -38 -8 -4 -46 -22 -85 -40 -38 -18 -72 -36 -75 -39 -3 -4 -25 -22 -50 -41 -77 -60 -91 -74 -123 -120 -17 -25 -34 -47 -38 -50 -3 -3 -15 -23 -26 -45 -10 -22 -24 -49 -30 -60 -69 -124 -68 -109 -68 -1140 0 -880 1 -934 19 -1000 21 -79 77 -191 131 -265 45 -61 173 -175 224 -198 20 -9 38 -20 41 -23 3 -3 21 -11 40 -18 19 -7 44 -17 55 -22 57 -24 120 -29 363 -29 l263 0 91 31 c236 79 413 266 487 514 21 70 21 84 21 1020 l0 950 -24 77 c-14 42 -36 96 -49 120 -13 24 -34 61 -47 83 -12 21 -50 68 -83 103 -81 84 -144 126 -287 192 -20 9 -100 27 -181 40 -79 12 -333 11 -404 -2z" fill="#ffffff" id="ffffff-000002" mask="url(#mask-0)"/>
    <path stroke="none" d="M39545 8448 c-86 -16 -150 -30 -160 -37 -5 -4 -28 -13 -50 -20 -104 -36 -281 -185 -334 -282 -44 -80 -81 -159 -81 -172 0 -6 -8 -32 -17 -57 -23 -64 -23 -394 1 -460 8 -25 16 -51 16 -58 0 -41 120 -235 169 -273 14 -12 43 -36 63 -55 20 -18 56 -45 80 -59 87 -51 286 -144 353 -165 22 -7 59 -21 82 -32 24 -10 46 -18 51 -18 5 0 27 -9 50 -20 22 -11 46 -20 52 -20 5 0 18 -4 28 -9 9 -5 56 -28 103 -51 163 -79 280 -192 331 -320 19 -48 22 -75 22 -205 1 -171 -8 -208 -76 -313 -59 -91 -164 -165 -280 -198 -91 -26 -312 -31 -393 -9 -33 9 -71 20 -85 24 -106 28 -234 156 -288 290 -18 45 -22 73 -22 172 0 143 -6 154 -84 144 -125 -14 -212 -29 -223 -38 -24 -18 -9 -324 18 -351 5 -6 9 -16 9 -23 0 -23 42 -106 91 -178 49 -72 101 -127 179 -186 25 -18 47 -36 50 -40 11 -14 120 -63 190 -85 71 -23 88 -24 343 -24 l268 0 91 31 c132 44 227 106 332 214 39 41 96 118 96 130 0 4 8 19 18 33 19 28 49 103 73 182 10 32 14 99 13 225 -1 152 -5 192 -23 260 -12 44 -26 84 -32 89 -5 6 -9 15 -9 22 0 27 -86 153 -144 210 -100 100 -204 163 -436 263 -52 23 -104 46 -115 50 -11 5 -40 17 -65 26 -25 9 -61 23 -80 32 -19 8 -44 18 -55 23 -130 49 -240 115 -314 184 -116 111 -151 196 -151 366 0 90 4 126 21 174 51 145 178 265 329 310 19 5 105 10 190 10 181 1 253 -15 333 -73 98 -71 144 -129 188 -236 19 -49 24 -80 26 -165 1 -58 2 -108 2 -112 2 -20 215 3 284 31 15 6 27 16 28 23 3 76 -5 212 -16 252 -26 93 -28 100 -55 151 -59 111 -75 133 -144 201 -90 90 -132 118 -276 184 -20 9 -100 27 -181 40 -78 12 -313 11 -384 -2z" fill="#ffffff" id="ffffff-000003" mask="url(#mask-1)"/>
    <path stroke="none" d="M15535 8413 c-60 -2 -113 -7 -118 -12 -4 -4 -8 -309 -7 -676 0 -495 -2 -671 -11 -681 -10 -12 -99 -14 -551 -14 -296 1 -545 3 -553 7 -13 4 -15 99 -15 684 l0 679 -22 5 c-13 3 -79 4 -148 3 l-125 -3 0 -1520 0 -1520 147 -3 148 -3 2 683 3 683 554 3 c437 2 556 0 563 -10 4 -7 8 -310 8 -673 0 -363 0 -666 0 -673 0 -10 34 -12 153 -10 l152 3 3 1508 2 1507 -32 20 c-18 11 -35 19 -38 18 -3 -1 -54 -4 -115 -5z" fill="#ffffff" id="ffffff-000005" mask="url(#mask-1)"/>
    <path stroke="none" d="M19297 8411 c-24 -7 -35 -31 -26 -59 29 -89 69 -230 69 -244 0 -9 5 -20 10 -23 6 -3 10 -14 10 -24 0 -10 9 -47 20 -82 11 -35 25 -82 31 -104 6 -22 15 -51 19 -65 20 -65 51 -172 71 -240 12 -41 30 -104 40 -140 11 -36 24 -83 30 -105 6 -22 14 -47 17 -55 7 -20 36 -120 56 -195 9 -33 19 -67 23 -75 3 -8 14 -42 24 -75 21 -75 57 -199 70 -245 6 -19 14 -48 19 -65 5 -16 17 -60 27 -97 11 -37 22 -71 26 -74 4 -4 7 -15 7 -24 0 -9 9 -46 20 -81 11 -35 25 -82 31 -104 6 -22 15 -51 19 -65 20 -65 51 -172 71 -240 29 -101 55 -192 79 -270 11 -36 29 -99 41 -140 12 -41 27 -93 34 -115 l13 -40 93 0 92 0 14 45 c7 25 22 73 33 106 11 34 20 70 20 81 0 10 4 23 9 29 4 5 14 32 21 59 7 28 19 70 28 95 8 25 18 61 22 80 13 56 39 143 49 165 5 11 14 40 21 65 6 25 20 73 31 106 10 34 19 69 19 78 0 9 4 24 9 34 5 9 15 37 21 62 7 25 21 73 31 108 27 89 53 177 77 257 11 39 30 102 41 140 22 74 49 165 82 280 20 67 30 101 78 263 42 143 61 208 81 277 11 39 30 98 40 131 11 34 20 70 20 81 0 10 4 23 9 28 5 6 16 37 24 70 31 115 55 200 71 245 9 25 16 55 16 67 0 12 5 25 10 28 17 10 11 44 -9 55 -11 5 -78 10 -150 10 -118 0 -133 -2 -151 -20 -11 -11 -20 -33 -20 -50 0 -17 -4 -38 -9 -48 -14 -29 -31 -87 -31 -110 0 -11 -4 -23 -8 -26 -5 -3 -14 -31 -21 -63 -7 -32 -17 -67 -21 -78 -4 -11 -13 -40 -20 -65 -6 -25 -20 -73 -31 -106 -10 -34 -19 -69 -19 -78 0 -9 -4 -24 -9 -34 -5 -9 -14 -35 -19 -57 -23 -89 -81 -290 -113 -391 -10 -34 -19 -73 -19 -86 0 -13 -4 -28 -8 -33 -5 -6 -14 -35 -22 -65 -7 -30 -17 -62 -21 -70 -4 -8 -15 -42 -23 -75 -8 -33 -24 -91 -35 -130 -11 -38 -28 -99 -37 -135 -9 -36 -21 -74 -25 -85 -5 -11 -16 -47 -25 -80 -9 -33 -20 -76 -26 -95 -5 -19 -12 -46 -14 -60 -3 -14 -9 -34 -13 -45 -13 -32 -28 -86 -41 -145 -7 -30 -15 -62 -17 -70 -8 -22 -74 189 -140 445 -8 33 -19 64 -24 69 -5 6 -9 19 -9 30 0 11 -9 51 -20 88 -11 37 -30 100 -41 140 -11 40 -29 102 -39 138 -11 36 -29 99 -40 140 -12 41 -30 104 -41 140 -21 72 -50 179 -69 255 -7 28 -16 55 -20 60 -4 6 -10 24 -13 40 -3 17 -10 46 -15 65 -68 240 -116 407 -152 530 -12 41 -24 87 -27 102 -9 46 -27 53 -165 58 -70 3 -134 3 -141 1z" fill="#ffffff" id="ffffff-000007" mask="url(#mask-1)"/>
    <path stroke="none" d="M28130 8412 c-36 -2 -68 -6 -73 -11 -5 -5 -10 -2242 -7 -3034 0 -4 69 -6 153 -5 l152 3 3 1073 c1 607 6 1072 11 1072 5 0 20 -24 35 -52 28 -58 69 -129 96 -168 9 -14 20 -33 23 -43 4 -10 27 -51 52 -92 25 -41 45 -77 45 -81 0 -3 9 -19 20 -34 11 -16 33 -52 49 -82 15 -29 45 -82 67 -118 69 -115 74 -124 90 -162 9 -21 20 -38 25 -38 5 0 9 -4 9 -10 0 -5 14 -33 31 -62 18 -29 40 -68 50 -85 11 -18 29 -50 40 -70 12 -21 35 -63 52 -93 16 -30 33 -59 37 -65 4 -5 17 -27 29 -47 12 -21 31 -55 42 -75 12 -21 35 -63 52 -93 16 -30 33 -59 37 -65 4 -5 17 -27 29 -47 12 -21 31 -55 42 -75 12 -21 35 -63 52 -93 16 -30 33 -59 37 -65 4 -5 17 -27 29 -47 12 -21 31 -55 42 -75 12 -21 35 -63 52 -93 16 -30 41 -70 54 -88 l25 -33 86 3 87 3 3 1507 c2 1374 1 1508 -14 1522 -13 14 -38 16 -152 14 l-137 -3 -3 -1082 c-1 -606 -6 -1083 -11 -1083 -5 0 -15 12 -22 28 -19 36 -85 154 -224 396 -27 48 -59 104 -70 125 -11 20 -29 50 -39 66 -11 16 -35 59 -54 95 -19 36 -40 72 -46 80 -7 8 -18 29 -26 45 -8 17 -26 48 -40 70 -14 22 -39 65 -54 95 -16 30 -34 62 -40 70 -7 8 -18 29 -26 45 -8 17 -26 48 -40 70 -14 22 -39 65 -54 95 -16 30 -35 62 -42 71 -8 8 -14 18 -14 22 0 3 -14 30 -31 59 -50 83 -71 120 -91 158 -10 19 -23 42 -28 50 -9 13 -32 53 -91 158 -11 17 -29 49 -40 70 -12 20 -35 62 -52 92 -17 30 -38 67 -49 82 -10 14 -18 29 -18 33 0 13 -60 93 -72 96 -7 2 -42 3 -78 1z" fill="#ffffff" id="ffffff-000011" mask="url(#mask-1)"/>
    <path stroke="none" d="M11833 8393 c-5 -10 -6 -74 -3 -143 l5 -125 355 -5 355 -5 5 -1375 5 -1375 149 -3 c113 -2 151 1 158 10 4 7 8 624 8 1371 0 747 2 1363 5 1368 4 5 150 9 355 9 324 0 349 1 354 18 8 31 5 237 -4 252 -8 13 -123 15 -874 18 -819 2 -866 1 -873 -15z" fill="#ffffff" id="ffffff-000004" mask="url(#mask-1)"/>
    <path stroke="none" d="M16375 8401 c-4 -7 -8 -2399 -5 -3034 0 -4 390 -6 868 -5 l867 3 3 125 c1 69 -2 131 -7 139 -7 11 -127 13 -715 12 l-706 -1 0 545 0 545 568 0 c428 0 571 3 580 12 18 18 17 262 -1 277 -10 8 -182 12 -578 13 l-564 3 -3 542 -2 543 712 2 713 3 3 126 c2 106 0 129 -13 143 -15 14 -97 16 -865 16 -513 0 -851 -4 -855 -9z" fill="#ffffff" id="ffffff-000006" mask="url(#mask-1)"/>
    <path stroke="none" d="M21576 8401 c-4 -7 -9 -2350 -6 -3034 0 -4 69 -6 153 -5 l152 3 2 1505 c2 936 -1 1511 -7 1520 -7 12 -38 16 -149 18 -86 2 -141 0 -145 -7z" fill="#ffffff" id="ffffff-000008" mask="url(#mask-1)"/>
    <path stroke="none" d="M22485 8398 c-3 -7 -4 -692 -3 -1523 l3 -1510 149 -3 c113 -2 151 1 158 10 4 7 8 295 8 641 l0 627 167 -2 166 -3 33 -45 c18 -25 33 -48 33 -52 1 -5 29 -52 64 -105 35 -54 86 -134 114 -178 27 -44 58 -93 69 -109 28 -43 35 -53 87 -135 26 -42 52 -83 57 -91 6 -8 37 -58 69 -110 33 -52 69 -107 80 -122 12 -14 21 -29 21 -32 0 -3 23 -40 50 -83 28 -43 55 -85 60 -93 5 -8 24 -37 42 -65 l33 -50 173 -3 c152 -2 173 -1 179 14 3 9 1 19 -4 23 -6 3 -23 29 -37 58 -15 28 -34 57 -42 64 -8 6 -14 16 -14 21 0 5 -36 63 -80 129 -44 65 -80 122 -80 125 0 2 -27 45 -60 94 -33 49 -60 92 -60 95 0 3 -36 60 -80 126 -44 65 -80 122 -80 125 0 2 -27 45 -60 94 -33 49 -60 92 -60 95 0 3 -29 49 -65 104 -36 54 -65 101 -65 105 0 3 11 6 25 6 13 0 50 7 82 16 32 9 74 20 92 24 44 11 172 76 204 104 136 118 168 157 235 282 62 116 80 220 80 459 0 288 -24 388 -139 560 -49 74 -98 123 -189 191 -56 41 -139 84 -163 84 -8 0 -17 3 -21 7 -4 4 -26 14 -49 22 -60 21 -1174 29 -1182 9z" fill="#ffffff" id="ffffff-000009" mask="url(#mask-1)"/>
    <path stroke="none" d="M27096 8401 c-4 -7 -9 -2350 -6 -3034 0 -4 69 -6 153 -5 l152 3 2 1505 c2 936 -1 1511 -7 1520 -7 12 -38 16 -149 18 -86 2 -141 0 -145 -7z" fill="#ffffff" id="ffffff-000010" mask="url(#mask-2)"/>
    <path stroke="none" d="M30445 8398 c-3 -7 -4 -692 -3 -1523 l3 -1510 150 0 150 0 2 1507 c3 1356 1 1508 -13 1522 -20 21 -282 24 -289 4z" fill="#ffffff" id="ffffff-000012" mask="url(#mask-2)"/>
    <path stroke="none" d="M31983 8395 c-11 -8 -23 -29 -26 -47 -6 -41 -37 -156 -48 -183 -5 -11 -15 -45 -23 -75 -8 -30 -21 -75 -30 -100 -9 -25 -16 -54 -16 -66 0 -11 -4 -24 -9 -30 -5 -5 -16 -36 -24 -69 -31 -115 -55 -200 -71 -245 -9 -25 -16 -54 -16 -65 0 -12 -4 -25 -9 -30 -5 -6 -16 -37 -24 -70 -19 -70 -51 -184 -59 -205 -3 -8 -11 -33 -17 -55 -13 -48 -41 -145 -70 -240 -12 -39 -21 -77 -21 -86 0 -8 -4 -19 -9 -24 -8 -9 -14 -31 -57 -195 -9 -36 -20 -74 -25 -85 -18 -46 -69 -223 -69 -241 0 -11 -4 -24 -9 -30 -4 -5 -14 -31 -21 -59 -7 -27 -20 -75 -30 -105 -9 -30 -23 -75 -30 -100 -7 -25 -16 -55 -21 -68 -5 -13 -9 -33 -9 -45 0 -13 -4 -27 -9 -33 -4 -5 -14 -31 -21 -59 -7 -27 -21 -75 -31 -106 -11 -30 -19 -63 -19 -72 0 -10 -4 -25 -9 -35 -14 -28 -31 -87 -31 -108 0 -11 -5 -25 -11 -31 -6 -6 -9 -23 -7 -39 l3 -29 151 -3 c169 -3 165 -4 182 68 6 25 20 78 32 117 18 64 33 115 72 253 5 19 12 49 15 65 3 17 9 35 13 40 3 6 13 37 20 70 7 33 17 64 21 69 6 7 491 10 919 6 5 0 10 -17 42 -135 6 -22 14 -51 18 -65 4 -14 13 -45 20 -70 6 -25 16 -53 21 -62 5 -10 9 -27 9 -37 0 -11 4 -30 9 -43 5 -13 14 -43 21 -68 24 -84 33 -115 41 -135 4 -11 9 -31 11 -45 l3 -25 154 -3 c166 -3 175 0 164 48 -3 14 -21 77 -40 140 -19 63 -41 140 -49 170 -15 56 -19 70 -53 175 -10 33 -24 83 -31 110 -7 28 -17 54 -21 59 -5 6 -9 18 -9 28 0 11 -9 47 -19 81 -11 34 -29 96 -41 137 -12 41 -26 86 -30 100 -4 14 -13 45 -20 70 -7 25 -21 70 -30 100 -10 30 -23 78 -30 105 -7 28 -17 54 -21 59 -5 6 -9 18 -9 28 0 11 -9 47 -19 81 -11 34 -29 96 -41 137 -12 41 -26 86 -30 100 -4 14 -13 45 -20 70 -7 25 -21 70 -30 100 -10 30 -23 78 -30 105 -7 28 -17 54 -21 60 -5 5 -9 17 -9 27 0 11 -9 49 -20 86 -12 37 -30 99 -42 137 -11 39 -24 81 -28 95 -4 14 -13 45 -20 70 -7 25 -21 70 -30 100 -10 30 -23 78 -30 105 -7 28 -17 54 -21 60 -5 5 -9 18 -9 29 0 11 -8 45 -19 75 -10 31 -25 79 -32 106 -22 88 -31 95 -113 95 -47 0 -79 -5 -93 -15z" fill="#ffffff" id="ffffff-000013" mask="url(#mask-2)"/>
    <path stroke="none" d="M34334 8398 c-5 -8 -7 -597 -4 -1523 l5 -1510 150 0 150 0 3 638 2 637 175 0 c158 0 176 -2 182 -17 4 -10 23 -43 42 -73 20 -30 43 -67 50 -82 8 -16 18 -28 23 -28 4 0 8 -4 8 -10 0 -10 104 -176 140 -222 11 -14 20 -29 20 -33 0 -3 18 -33 40 -65 22 -32 40 -61 40 -65 0 -3 33 -56 74 -118 131 -200 202 -312 209 -327 3 -8 39 -64 79 -125 l74 -110 172 -3 c149 -2 173 0 178 13 4 9 0 23 -8 33 -7 9 -20 29 -28 45 -7 15 -17 27 -22 27 -4 0 -8 5 -8 11 0 5 -18 37 -40 69 -22 32 -40 62 -40 65 0 3 -35 58 -78 123 -42 64 -84 129 -91 145 -8 15 -18 27 -23 27 -4 0 -8 5 -8 11 0 5 -18 37 -40 69 -22 32 -40 62 -40 65 0 3 -35 59 -78 123 -42 64 -83 129 -91 145 -8 15 -18 27 -23 27 -4 0 -8 4 -8 10 0 10 -81 140 -129 208 -38 52 -39 62 -3 62 15 0 52 7 82 16 30 8 69 19 85 23 108 28 287 154 364 257 45 61 108 183 122 240 35 135 41 201 36 399 -3 110 -10 217 -16 238 -6 20 -15 52 -20 71 -22 89 -117 244 -190 313 -68 65 -220 160 -257 162 -11 1 -24 4 -28 8 -4 4 -26 14 -49 22 -60 21 -1169 29 -1183 9z" fill="#ffffff" id="ffffff-000014" mask="url(#mask-3)"/>
    <path stroke="none" d="M41175 8401 c-4 -7 -8 -2399 -5 -3034 0 -4 390 -6 868 -5 l867 3 3 129 c1 73 -2 134 -7 139 -6 6 -281 9 -715 8 l-706 -1 0 545 0 545 568 0 c428 0 571 3 580 12 18 18 17 262 -1 277 -10 8 -182 12 -578 13 l-564 3 -3 542 -2 543 712 2 713 3 3 129 c2 113 1 130 -15 142 -15 11 -169 13 -865 14 -512 0 -849 -4 -853 -9z" fill="#ffffff" id="ffffff-000015" mask="url(#mask-4)"/>
    <path stroke="none" d="M18475 4302 c-27 -2 -54 -7 -59 -13 -6 -5 -25 -9 -43 -9 -51 0 -267 -87 -306 -124 -7 -6 -30 -24 -52 -41 -134 -99 -230 -231 -306 -420 -20 -52 -30 -98 -39 -190 -13 -134 -13 -2041 0 -2165 11 -106 41 -210 80 -285 85 -160 106 -187 225 -291 118 -104 269 -178 420 -206 75 -14 528 -15 611 -1 115 20 289 92 352 148 15 12 55 46 89 74 97 80 174 192 244 356 4 11 13 40 19 65 7 25 17 63 23 85 9 29 12 328 12 1135 l0 1095 -24 90 c-41 157 -133 328 -225 420 -110 109 -296 218 -416 245 -30 6 -71 17 -90 23 -34 10 -406 17 -515 9z" fill="#ffffff" id="ffffff-000016" mask="url(#mask-4)"/>
    <path stroke="none" d="M35500 4299 c-96 -12 -170 -28 -202 -44 -17 -8 -36 -15 -43 -15 -13 0 -70 -28 -156 -78 -78 -45 -200 -161 -252 -240 -54 -82 -115 -205 -128 -258 -6 -21 -16 -57 -22 -79 -18 -61 -17 -2262 1 -2325 7 -25 17 -61 21 -81 19 -87 135 -285 213 -362 29 -29 82 -73 118 -97 36 -25 67 -48 70 -51 10 -11 139 -69 154 -69 8 0 17 -4 20 -8 5 -8 33 -15 169 -43 65 -13 488 -6 574 9 106 20 218 67 323 136 74 49 240 206 240 227 0 6 9 23 19 38 28 39 93 170 102 206 4 16 14 56 23 88 14 51 16 185 16 1170 0 976 -2 1119 -16 1167 -8 30 -19 69 -23 85 -26 100 -119 254 -210 349 -99 103 -270 216 -325 216 -8 0 -17 4 -20 8 -3 5 -31 14 -63 21 -32 7 -71 18 -88 23 -35 12 -434 17 -515 7z" fill="#ffffff" id="ffffff-000017" mask="url(#mask-5)"/>
    <path stroke="none" d="M16180 4250 c-558 -3 -1016 -6 -1018 -8 -1 -1 -1 -820 0 -1819 l3 -1818 175 0 175 0 3 818 2 817 679 0 c604 0 681 2 695 16 13 13 16 42 16 160 0 81 -5 154 -10 165 -10 18 -29 19 -695 19 l-685 0 0 650 0 650 843 0 c805 0 845 1 860 18 24 27 25 303 1 326 -8 9 -18 15 -22 14 -4 -2 -464 -5 -1022 -8z" fill="#ffffff" id="ffffff-000019" mask="url(#mask-6)"/>
    <path stroke="none" d="M20463 4247 c-20 -4 -38 -9 -40 -11 -9 -9 -2 -2806 7 -2894 11 -107 47 -232 84 -296 13 -23 34 -59 46 -81 43 -77 75 -114 175 -201 118 -104 269 -178 420 -206 75 -14 528 -15 611 -1 115 20 289 92 352 148 15 12 55 46 89 74 86 70 161 175 219 301 9 19 19 42 23 50 5 8 14 40 21 70 7 30 17 66 24 80 8 18 12 419 14 1475 2 798 0 1460 -3 1473 -5 22 -8 22 -166 22 -91 0 -169 -4 -180 -10 -19 -11 -19 -37 -19 -1388 0 -947 -3 -1404 -11 -1462 -12 -93 -21 -119 -85 -240 -28 -54 -150 -165 -216 -197 -161 -79 -425 -96 -623 -42 -114 32 -276 148 -315 226 -8 15 -21 39 -30 53 -9 14 -27 50 -41 80 l-24 55 -5 1457 c-3 801 -7 1459 -10 1461 -9 9 -278 12 -317 4z" fill="#ffffff" id="ffffff-000020" mask="url(#mask-6)"/>
    <path stroke="none" d="M25124 4253 c-113 -3 -155 -7 -163 -17 -9 -10 -11 -360 -9 -1310 2 -713 1 -1296 -2 -1296 -12 0 -30 25 -30 40 0 9 -8 25 -18 36 -10 10 -25 35 -35 54 -9 19 -31 58 -47 85 -17 28 -41 70 -55 95 -14 25 -40 70 -58 101 -50 88 -129 226 -162 283 -16 29 -52 92 -80 140 -27 48 -59 104 -70 125 -11 20 -29 50 -39 66 -11 16 -35 59 -54 95 -19 36 -40 72 -46 80 -7 8 -18 29 -26 45 -8 17 -26 48 -40 70 -14 22 -39 65 -54 95 -16 30 -34 62 -40 70 -7 8 -18 29 -26 45 -8 17 -26 48 -40 70 -14 22 -39 65 -54 95 -16 30 -35 62 -42 71 -8 8 -14 18 -14 22 0 3 -14 30 -31 59 -50 83 -71 120 -91 158 -10 19 -23 42 -28 50 -9 13 -32 53 -91 158 -11 17 -29 49 -40 70 -12 20 -35 62 -52 92 -16 30 -33 60 -37 65 -12 15 -51 85 -72 127 -10 21 -27 42 -37 48 -23 12 -170 13 -189 2 -10 -7 -12 -378 -10 -1823 l3 -1814 175 0 175 0 3 1298 c1 745 6 1297 11 1297 5 0 19 -21 30 -46 12 -25 34 -65 49 -88 14 -22 36 -59 48 -81 11 -22 38 -69 60 -105 67 -113 74 -124 90 -162 9 -21 20 -38 25 -38 5 0 9 -4 9 -10 0 -5 14 -33 31 -62 18 -29 40 -68 50 -85 11 -18 29 -50 40 -70 12 -21 35 -63 52 -93 16 -30 33 -59 37 -65 4 -5 17 -27 29 -47 12 -21 31 -55 42 -75 12 -21 35 -63 52 -93 16 -30 33 -59 37 -65 4 -5 17 -27 29 -47 12 -21 31 -55 42 -75 12 -21 35 -63 52 -93 16 -30 33 -59 37 -65 4 -5 17 -27 29 -48 12 -20 31 -54 42 -75 12 -20 35 -62 52 -92 16 -30 33 -59 37 -65 4 -5 17 -27 29 -48 12 -20 30 -54 42 -75 12 -20 25 -41 29 -47 4 -5 21 -35 37 -65 17 -30 40 -72 52 -92 11 -21 30 -55 42 -75 12 -21 25 -42 29 -48 4 -5 21 -35 37 -65 17 -30 39 -71 50 -90 20 -33 114 -199 132 -230 11 -19 195 -27 217 -9 12 10 14 283 14 1815 0 1625 -2 1804 -16 1818 -8 9 -18 15 -22 14 -4 -1 -75 -4 -158 -5z" fill="#ffffff" id="ffffff-000021" mask="url(#mask-6)"/>
    <path stroke="none" d="M29690 4251 c-78 -7 -90 -14 -90 -50 0 -15 -4 -31 -9 -36 -5 -6 -16 -37 -24 -70 -19 -70 -51 -184 -59 -205 -3 -8 -11 -33 -17 -55 -13 -48 -41 -145 -70 -240 -12 -39 -21 -77 -21 -86 0 -8 -4 -19 -9 -25 -8 -8 -14 -30 -57 -194 -9 -36 -21 -74 -25 -85 -5 -11 -15 -45 -23 -75 -8 -30 -21 -75 -30 -100 -9 -25 -16 -54 -16 -65 0 -12 -4 -25 -9 -30 -4 -6 -14 -32 -21 -60 -7 -27 -20 -75 -30 -105 -9 -30 -23 -75 -30 -100 -7 -25 -16 -55 -21 -68 -5 -13 -9 -33 -9 -45 0 -13 -4 -27 -9 -33 -5 -5 -16 -36 -24 -69 -19 -70 -51 -184 -59 -205 -3 -8 -11 -33 -17 -55 -13 -48 -41 -145 -70 -240 -12 -39 -21 -77 -21 -86 0 -8 -4 -19 -9 -25 -5 -5 -16 -36 -24 -69 -18 -66 -51 -181 -59 -205 -19 -54 -28 -89 -28 -106 0 -11 -4 -24 -9 -30 -5 -5 -16 -36 -24 -69 -26 -97 -54 -197 -70 -245 -8 -25 -20 -65 -27 -90 -6 -25 -16 -55 -21 -68 -5 -13 -9 -33 -9 -45 0 -13 -4 -27 -9 -32 -4 -6 -14 -32 -21 -60 -7 -27 -21 -77 -31 -109 -11 -33 -19 -72 -19 -88 l0 -28 187 2 187 3 18 65 c9 36 27 99 39 140 47 168 61 217 70 250 11 37 24 82 40 140 6 19 13 46 16 60 2 14 7 32 10 40 4 8 14 42 23 75 l16 60 557 3 c436 2 557 -1 557 -10 0 -7 10 -44 21 -83 12 -38 30 -101 41 -140 11 -38 29 -101 40 -140 11 -38 29 -101 40 -140 10 -38 27 -97 38 -130 10 -33 24 -85 31 -115 7 -30 17 -61 22 -67 7 -10 57 -13 188 -13 l179 0 0 32 c0 18 -10 64 -21 103 -12 38 -30 102 -41 140 -11 39 -24 81 -28 95 -4 14 -13 45 -20 70 -7 25 -21 70 -30 100 -10 30 -23 78 -30 105 -7 28 -17 54 -21 59 -5 6 -9 19 -9 29 0 11 -9 47 -20 81 -11 33 -29 95 -41 136 -12 41 -25 86 -29 100 -4 14 -13 45 -20 70 -7 25 -21 70 -30 100 -10 30 -23 78 -30 105 -7 28 -17 54 -21 59 -5 6 -9 19 -9 29 0 11 -9 47 -20 81 -10 33 -29 93 -40 131 -24 85 -55 189 -80 270 -9 33 -23 83 -30 110 -7 28 -17 54 -21 60 -5 5 -9 18 -9 28 0 11 -9 47 -20 81 -10 33 -29 93 -40 131 -24 85 -55 189 -80 270 -9 33 -23 83 -30 110 -7 28 -17 54 -21 60 -5 5 -9 18 -9 28 0 11 -9 47 -20 81 -10 33 -29 93 -40 131 -11 39 -29 102 -41 140 -11 39 -30 102 -41 140 -48 160 -59 198 -78 259 -11 35 -20 71 -20 80 0 16 -56 57 -75 54 -5 0 -39 -4 -75 -7z" fill="#ffffff" id="ffffff-000023" mask="url(#mask-6)"/>
    <path stroke="none" d="M31035 4240 l-29 -15 3 -155 c1 -85 5 -158 7 -162 3 -5 196 -8 430 -8 l424 0 0 -1641 c0 -902 2 -1645 5 -1650 4 -5 83 -9 180 -9 148 0 174 2 179 16 3 9 6 751 6 1650 l0 1634 413 0 c388 0 415 1 430 18 14 16 17 43 17 170 0 137 -2 151 -18 156 -10 4 -468 7 -1018 9 -871 2 -1003 0 -1029 -13z" fill="#ffffff" id="ffffff-000024" mask="url(#mask-7)"/>
    <path stroke="none" d="M33605 4247 c-13 -5 -25 -16 -27 -24 -2 -9 -2 -828 0 -1820 l2 -1803 179 0 c152 0 180 2 185 15 9 23 7 3608 -2 3622 -9 14 -299 22 -337 10z" fill="#ffffff" id="ffffff-000025" mask="url(#mask-7)"/>
    <path stroke="none" d="M37526 4247 c-14 -5 -26 -16 -28 -24 -2 -9 -2 -828 0 -1820 l2 -1803 180 0 c178 0 180 0 185 22 3 13 4 598 3 1301 -2 702 0 1277 3 1277 4 0 9 -8 12 -17 4 -10 18 -38 33 -63 28 -47 50 -85 85 -147 12 -21 25 -42 29 -48 4 -5 21 -35 37 -65 32 -59 50 -91 105 -185 20 -33 47 -80 60 -105 21 -36 168 -292 429 -747 11 -18 28 -49 39 -69 27 -47 98 -171 121 -212 11 -17 29 -49 41 -70 12 -20 38 -66 58 -102 20 -36 46 -82 58 -103 12 -20 32 -54 43 -75 12 -20 29 -48 39 -62 9 -14 20 -33 23 -43 4 -10 27 -51 52 -92 25 -41 45 -77 45 -81 0 -3 13 -24 29 -47 15 -23 31 -52 35 -64 4 -13 13 -29 19 -35 7 -7 23 -33 36 -58 13 -25 35 -60 48 -77 l24 -33 93 0 c58 0 96 4 104 12 9 9 12 427 12 1819 l0 1808 -21 6 c-41 13 -309 7 -330 -7 -19 -13 -19 -36 -20 -1307 l0 -1295 -24 27 c-14 14 -25 31 -25 38 0 6 -8 23 -18 37 -11 15 -32 52 -49 82 -17 30 -40 72 -52 93 -11 20 -30 53 -41 72 -11 19 -29 51 -40 70 -11 19 -29 51 -40 70 -11 19 -29 51 -40 70 -11 19 -29 52 -41 73 -12 20 -25 42 -29 47 -4 6 -21 35 -37 65 -17 30 -40 72 -52 93 -11 20 -30 54 -42 75 -12 20 -25 42 -29 47 -4 6 -21 35 -37 65 -17 30 -40 72 -52 93 -11 20 -30 54 -42 75 -12 20 -25 42 -29 47 -4 6 -21 35 -37 65 -17 30 -40 72 -52 93 -11 20 -30 54 -42 75 -12 20 -25 42 -29 47 -4 6 -21 35 -37 65 -17 30 -40 72 -52 93 -11 20 -30 54 -42 75 -12 20 -25 42 -29 47 -4 6 -21 35 -37 65 -32 59 -50 91 -105 185 -20 33 -47 80 -60 105 -30 54 -54 95 -100 175 -20 33 -47 80 -60 105 -76 137 -98 168 -125 176 -37 10 -127 11 -157 1z" fill="#ffffff" id="ffffff-000018" mask="url(#mask-7)"/>
    <path stroke="none" d="M26122 4237 c-9 -11 -11 -439 -10 -1823 l3 -1809 680 0 c677 0 680 0 743 22 67 24 124 48 157 66 11 6 37 20 59 31 50 27 181 140 228 197 64 80 150 242 168 319 6 30 17 64 24 75 14 25 21 2021 7 2135 -8 72 -32 173 -50 215 -22 52 -92 186 -101 195 -3 3 -17 21 -30 40 -30 43 -69 81 -140 140 -30 25 -57 48 -60 51 -16 21 -190 108 -216 109 -11 0 -24 3 -28 7 -4 4 -26 14 -49 22 -63 21 -1368 29 -1385 8z" fill="#ffffff" id="ffffff-000022" mask="url(#mask-7)"/>
  </g>
</svg>
