<?xml version="1.0" standalone="no"?>
<!DOCTYPE svg PUBLIC "-//W3C//DTD SVG 1.1//EN"
 "http://www.w3.org/Graphics/SVG/1.1/DTD/svg11.dtd">
<!-- Created with svg_stack (http://github.com/astraw/svg_stack) -->
<svg xmlns:sodipodi="http://sodipodi.sourceforge.net/DTD/sodipodi-0.dtd" xmlns="http://www.w3.org/2000/svg" version="1.1" width="804.0" height="580.0">
  <defs/>
  <g id="id0:id0" transform="matrix(1.25,0,0,1.25,0.0,0.0)"><g transform="translate(0.000000,464.000000) scale(0.040000,-0.040000)" fill="#040402" stroke="none">
<path d="M9350 6185 c-7 -9 -13 -28 -14 -42 -1 -22 -7 -28 -33 -34 -18 -3 -36 -2 -42 4 -7 7 -15 6 -26 -3 -13 -11 -15 -48 -15 -251 l0 -239 20 0 20 0 0 204 c0 113 4 207 9 210 5 3 14 -1 21 -9 11 -14 34 -21 114 -40 24 -5 27 -3 22 10 -4 12 0 19 14 22 26 7 26 19 0 26 -11 3 -20 13 -20 22 0 9 -10 30 -21 47 l-21 29 21 23 c11 12 21 25 21 29 0 14 -58 7 -70 -8z"/>
<path d="M7976 5665 c-20 -48 -20 -61 1 -69 23 -9 34 12 30 56 -5 53 -13 56 -31 13z"/>
</g>
</g>
  <g id="id1:id1" transform="matrix(1.25,0,0,1.25,0.0,0.0)"><g transform="translate(0.000000,464.000000) scale(0.040000,-0.040000)" fill="#434343" stroke="none">
<path d="M8800 6650 c0 -5 5 -10 10 -10 6 0 10 5 10 10 0 6 -4 10 -10 10 -5 0 -10 -4 -10 -10z"/>
<path d="M8735 6640 c-4 -6 -2 -17 4 -24 15 -18 4 -26 -36 -26 -60 0 -138 -53 -170 -114 l-15 -29 -27 34 c-36 47 -68 76 -105 95 -27 15 -75 17 -425 15 -261 -2 -403 -6 -420 -14 -46 -19 -111 -78 -131 -117 -64 -125 25 -308 160 -330 l35 -5 3 -387 2 -387 -32 -17 c-18 -9 -41 -23 -50 -32 -16 -14 -24 -12 -90 22 l-72 37 -66 117 c-222 392 -295 521 -360 642 -181 334 -184 340 -204 337 -10 -1 -24 -11 -30 -22 -6 -11 -21 -35 -34 -53 l-23 -32 52 -98 c28 -53 59 -110 69 -127 9 -16 39 -70 65 -120 26 -49 85 -155 130 -235 45 -80 125 -222 179 -317 53 -95 108 -185 122 -202 14 -17 46 -37 74 -46 56 -18 80 -45 80 -88 0 -16 4 -36 10 -46 7 -14 5 -22 -8 -33 -13 -12 -63 -17 -242 -21 -124 -4 -263 -12 -310 -19 -94 -13 -128 -14 -212 -5 l-57 6 6 -32 c7 -37 34 -86 63 -112 l20 -18 107 17 c74 11 174 16 318 16 243 0 304 11 375 67 12 10 24 6 58 -17 59 -39 104 -44 263 -29 148 15 259 16 454 4 l130 -8 50 26 c197 100 190 356 -11 438 -36 14 -58 30 -67 48 -9 19 -19 25 -36 23 -13 -2 -35 2 -48 9 -39 21 -57 2 -61 -61 -2 -30 -1 -64 3 -77 7 -30 57 -61 113 -69 60 -9 83 -31 92 -90 5 -27 11 -57 15 -66 11 -29 -33 -39 -117 -28 -100 13 -330 12 -444 -1 -130 -15 -239 -5 -270 27 -32 31 -32 83 -1 112 13 12 48 34 78 49 45 24 56 34 67 68 22 71 21 68 37 55 8 -6 19 -9 25 -5 7 4 10 139 10 405 0 266 -3 401 -10 405 -6 4 -17 2 -24 -4 -17 -14 -36 5 -36 36 0 44 -75 93 -142 93 -9 0 -30 12 -47 26 -40 34 -42 80 -5 115 22 21 35 24 94 23 74 -1 109 -16 89 -40 -24 -29 3 -34 181 -34 186 0 207 5 175 40 -22 25 -12 29 94 37 131 9 171 -12 171 -89 0 -19 5 -39 11 -45 13 -13 -34 -53 -62 -53 -29 0 -78 -48 -89 -88 -5 -20 -10 -126 -10 -234 l0 -198 19 0 c11 0 23 4 26 10 7 11 54 8 73 -4 28 -17 32 9 32 199 l0 194 44 31 c25 16 47 27 50 22 2 -4 4 -46 3 -92 -1 -70 2 -92 20 -125 45 -85 116 -125 219 -125 117 0 210 66 248 178 l13 37 49 0 49 0 0 -344 0 -344 -62 -13 c-90 -18 -158 -66 -194 -136 -27 -52 -26 -165 1 -217 27 -54 94 -108 157 -128 47 -15 65 -15 151 -5 166 21 323 15 630 -25 144 -18 190 -13 255 29 120 77 144 247 51 356 -34 40 -128 92 -166 92 -14 0 -32 6 -41 13 -15 11 -17 44 -14 372 2 340 3 360 20 363 39 8 65 -8 92 -55 66 -115 163 -176 226 -142 11 5 16 15 13 21 -13 20 -22 88 -13 94 17 10 9 20 -27 33 -29 11 -41 24 -67 79 -21 43 -44 74 -65 88 -64 43 -277 44 -307 1 -12 -18 -15 -70 -15 -300 0 -232 -3 -283 -16 -308 -12 -24 -18 -28 -29 -19 -26 21 -35 0 -35 -80 0 -81 9 -101 37 -79 23 20 43 -14 43 -75 0 -28 3 -60 6 -72 8 -29 67 -60 137 -73 64 -12 72 -15 105 -44 14 -14 22 -32 22 -54 0 -19 5 -44 11 -55 9 -16 7 -24 -8 -40 -18 -18 -26 -18 -89 -9 -208 32 -375 43 -581 38 -116 -3 -230 -1 -253 3 -87 16 -128 97 -77 155 18 21 36 28 96 36 96 13 118 22 158 66 32 34 34 34 40 14 7 -27 19 -27 27 2 11 41 7 825 -4 832 -6 4 -17 1 -25 -5 -17 -14 -19 -9 -30 54 l-6 39 -117 -6 c-64 -3 -129 -10 -143 -15 -52 -20 -98 -71 -120 -134 -26 -69 -51 -87 -96 -70 -15 5 -36 13 -47 16 -15 5 -16 9 -6 22 10 11 10 18 2 26 -7 7 -12 22 -12 35 0 34 -20 28 -21 -7 -2 -45 -3 -50 -11 -50 -5 0 -7 1 -6 3 1 1 -4 13 -11 25 -10 20 -10 47 4 150 21 161 33 203 65 219 42 22 485 1 485 -22 0 -6 -39 -11 -92 -13 -115 -3 -124 -22 -10 -22 55 -1 88 -5 101 -15 13 -10 24 -11 37 -5 23 13 166 13 174 1 3 -5 1 -12 -5 -16 -14 -9 -3 -25 17 -25 9 0 13 6 9 15 -3 8 3 19 14 25 24 13 207 13 215 0 8 -13 48 -13 61 0 5 5 56 13 112 16 56 4 102 11 102 15 0 4 -30 9 -67 11 -73 3 -89 21 -24 26 22 2 45 10 51 18 8 8 30 14 56 14 24 0 44 3 44 8 0 4 -9 22 -20 40 -16 26 -18 37 -10 48 7 7 9 18 5 24 -4 7 -181 10 -538 11 -596 1 -652 4 -652 33 0 22 -20 33 -30 16z"/>
<path d="M7580 6350 c0 -5 5 -10 10 -10 6 0 10 5 10 10 0 6 -4 10 -10 10 -5 0 -10 -4 -10 -10z"/>
<path d="M10204 5839 c-10 -17 13 -36 27 -22 12 12 4 33 -11 33 -5 0 -12 -5 -16 -11z"/>
<path d="M9865 5740 c-4 -7 -3 -16 3 -22 14 -14 47 -6 47 12 0 18 -40 26 -50 10z"/>
<path d="M9360 5480 c-13 -9 -11 -14 13 -34 l28 -23 -23 -16 c-19 -13 -21 -18 -9 -26 8 -5 15 -24 15 -43 0 -31 -3 -33 -37 -36 -36 -3 -47 -14 -27 -27 7 -4 7 -12 0 -25 -5 -10 -10 -21 -10 -24 0 -12 28 -5 40 9 7 9 20 13 29 10 21 -6 45 43 30 61 -7 8 -7 14 1 19 7 4 9 17 6 30 -4 14 0 28 10 35 8 7 12 20 9 28 -3 8 3 16 15 19 22 6 24 11 11 32 -6 9 -18 11 -34 7 -14 -3 -29 -2 -32 4 -8 13 -16 12 -35 0z"/>
<path d="M6528 5403 c-8 -10 -18 -42 -20 -71 l-5 -53 23 5 c33 9 39 -11 7 -26 -34 -17 -40 -34 -12 -41 11 -3 18 -10 15 -16 -4 -5 -2 -12 4 -16 5 -3 10 -21 10 -40 0 -47 16 -52 53 -18 18 16 53 40 80 53 50 25 65 51 51 92 -4 13 -8 25 -9 28 0 3 -10 21 -20 40 -11 19 -24 44 -30 55 -15 29 -124 34 -147 8z"/>
<path d="M9460 5384 c0 -13 6 -24 13 -24 18 0 67 24 67 33 0 8 -3 9 -47 13 -29 2 -33 -1 -33 -22z"/>
<path d="M6780 5374 c-21 -19 -28 -30 -21 -37 7 -7 17 -5 30 7 11 10 25 15 30 11 6 -3 11 -2 11 4 0 5 3 16 6 25 10 25 -20 19 -56 -10z"/>
<path d="M6902 5383 c2 -12 -4 -19 -19 -21 -28 -4 -28 -5 1 -37 21 -23 27 -24 50 -14 27 13 33 24 16 34 -5 3 -7 12 -4 20 3 7 -3 18 -15 24 -27 15 -32 14 -29 -6z"/>
<path d="M6754 5309 c-10 -17 13 -36 27 -22 12 12 4 33 -11 33 -5 0 -12 -5 -16 -11z"/>
<path d="M7175 5279 c-5 -6 -1 -16 9 -21 9 -5 16 -15 16 -22 0 -17 48 -61 57 -53 3 4 -7 21 -23 38 -16 16 -29 37 -29 46 0 20 -21 28 -30 12z"/>
<path d="M9230 5245 c-7 -8 -20 -15 -30 -15 -23 0 -34 -29 -14 -37 15 -5 74 41 74 59 0 13 -17 9 -30 -7z"/>
<path d="M9720 5180 c-13 -9 -13 -11 0 -20 23 -15 42 -12 38 7 -4 21 -19 26 -38 13z"/>
<path d="M6695 5140 c-4 -6 -3 -16 3 -22 6 -6 12 -6 17 2 4 6 3 16 -3 22 -6 6 -12 6 -17 -2z"/>
<path d="M9845 5140 c-9 -15 4 -31 23 -28 10 1 23 -1 30 -6 25 -15 27 6 3 25 -26 21 -47 24 -56 9z"/>
<path d="M8977 5105 c-7 -16 8 -29 23 -20 10 6 2 35 -10 35 -4 0 -10 -7 -13 -15z"/>
<path d="M6637 5104 c-11 -11 -8 -52 4 -60 6 -3 18 1 27 10 13 12 14 21 6 33 -12 20 -27 26 -37 17z"/>
</g>
</g>
  <g id="id2:id2" transform="matrix(1.25,0,0,1.25,0.0,0.0)"><g transform="translate(0.000000,464.000000) scale(0.040000,-0.040000)" fill="#39383a" stroke="none">
<path d="M6490 6620 c-8 -5 -24 -10 -36 -10 -53 0 -123 -77 -193 -210 -19 -36 -42 -77 -53 -92 -10 -14 -18 -28 -18 -31 0 -2 -21 -42 -46 -88 -46 -82 -94 -172 -180 -334 -24 -44 -52 -91 -63 -103 -12 -13 -19 -28 -15 -33 3 -5 -8 -30 -25 -55 -17 -25 -31 -51 -31 -58 0 -6 -4 -16 -9 -21 -5 -6 -35 -61 -66 -123 -41 -80 -65 -116 -82 -123 -19 -7 -23 -16 -23 -53 0 -26 6 -48 15 -56 8 -7 15 -22 15 -34 0 -26 26 -66 43 -66 19 0 78 96 159 254 39 78 80 157 92 176 11 19 45 82 76 140 122 229 195 363 266 490 23 41 61 111 84 155 51 99 78 125 129 125 44 0 88 -38 77 -66 -5 -13 -9 -14 -21 -4 -19 15 -40 3 -25 -15 6 -7 7 -20 4 -30 -6 -15 -2 -17 37 -11 93 14 93 14 122 73 26 52 27 57 12 80 -28 43 -97 103 -124 109 -14 3 -36 10 -49 15 -29 12 -53 11 -72 -1z"/>
<path d="M10010 6592 c-20 -4 -49 -17 -65 -29 -27 -19 -29 -24 -17 -43 17 -28 8 -40 -33 -40 -20 0 -35 -6 -39 -15 -3 -8 -14 -15 -24 -15 -11 0 -25 -7 -32 -15 -22 -27 5 -45 67 -45 47 0 60 4 90 30 l34 30 89 0 c105 0 133 -9 148 -47 27 -70 54 -232 56 -338 l1 -50 -50 0 c-27 0 -60 -6 -73 -13 -20 -11 -23 -20 -21 -65 4 -78 64 -135 98 -93 7 8 31 24 54 36 82 42 137 121 137 194 0 41 12 52 31 30 10 -12 14 -52 15 -133 1 -64 3 -118 4 -121 0 -3 0 -84 0 -180 -1 -139 -4 -178 -16 -191 -13 -14 -13 -18 1 -29 18 -15 22 -135 4 -145 -6 -4 -8 -13 -5 -20 3 -8 -18 -30 -50 -55 -82 -62 -108 -109 -108 -195 1 -76 21 -122 80 -177 64 -58 101 -66 324 -71 113 -3 213 -7 224 -8 10 -2 23 4 30 14 9 15 8 20 -7 28 -13 8 -16 18 -11 47 4 26 2 42 -8 49 -8 7 -74 14 -168 17 -251 9 -310 29 -310 106 0 42 37 83 84 94 16 4 41 20 57 36 24 23 29 37 29 77 0 51 8 70 54 127 22 28 26 40 18 48 -7 7 -12 24 -12 39 0 18 -9 34 -27 47 l-28 20 -5 335 c-5 303 -7 337 -23 355 -18 20 -60 39 -137 63 -82 26 -93 113 -19 153 31 17 45 18 105 10 54 -7 68 -12 66 -25 -1 -9 6 -23 17 -33 16 -14 39 -16 167 -14 125 3 149 5 149 18 0 11 -14 16 -55 18 -30 2 -59 7 -64 12 -14 14 12 39 34 33 25 -7 36 18 20 46 -8 16 -7 26 5 44 25 38 4 45 -140 47 -72 1 -134 1 -140 0 -5 -1 -47 -1 -91 0 -84 1 -139 -14 -177 -47 -17 -16 -18 -16 -24 5 -4 17 -13 22 -37 22 -18 0 -37 5 -43 11 -13 13 -180 21 -233 11z"/>
<path d="M10434 6369 c-10 -17 13 -36 27 -22 12 12 4 33 -11 33 -5 0 -12 -5 -16 -11z"/>
<path d="M5724 6232 c-3 -15 -9 -37 -14 -49 -5 -12 -7 -33 -5 -46 3 -15 -3 -34 -15 -50 -16 -20 -21 -43 -22 -101 -1 -41 0 -77 2 -80 3 -2 16 -7 30 -11 21 -5 33 3 74 44 42 42 47 52 37 65 -8 9 -11 26 -7 41 4 14 3 67 0 118 l-7 93 -33 1 c-29 1 -35 -3 -40 -25z"/>
<path d="M6360 6190 c0 -5 5 -10 10 -10 6 0 10 5 10 10 0 6 -4 10 -10 10 -5 0 -10 -4 -10 -10z"/>
<path d="M6446 6074 c-26 -26 -19 -35 22 -28 45 8 46 9 39 29 -8 20 -41 19 -61 -1z"/>
<path d="M6240 5970 c0 -5 5 -10 10 -10 6 0 10 5 10 10 0 6 -4 10 -10 10 -5 0 -10 -4 -10 -10z"/>
<path d="M6397 5838 c-40 -56 -99 -178 -93 -194 3 -9 16 -15 28 -14 37 3 41 1 28 -15 -19 -23 5 -45 50 -45 43 0 69 22 51 43 -15 19 -4 27 40 27 21 0 39 6 42 13 6 15 -100 217 -113 217 -5 0 -20 -15 -33 -32z"/>
<path d="M11900 5836 c0 -10 9 -16 21 -16 24 0 21 23 -4 28 -10 2 -17 -3 -17 -12z"/>
<path d="M6500 5830 c0 -5 5 -10 10 -10 6 0 10 5 10 10 0 6 -4 10 -10 10 -5 0 -10 -4 -10 -10z"/>
<path d="M11896 5774 c-4 -10 1 -25 10 -35 20 -22 38 -25 31 -5 -3 7 0 19 6 25 9 9 8 14 -3 21 -22 14 -37 12 -44 -6z"/>
<path d="M6100 5710 c0 -5 5 -10 10 -10 6 0 10 5 10 10 0 6 -4 10 -10 10 -5 0 -10 -4 -10 -10z"/>
<path d="M5614 5419 c-10 -17 13 -36 27 -22 12 12 4 33 -11 33 -5 0 -12 -5 -16 -11z"/>
<path d="M6334 5410 c-50 -4 -105 -11 -123 -15 -32 -7 -101 -77 -101 -102 0 -8 -12 -36 -26 -64 -23 -47 -24 -52 -9 -69 10 -11 42 -22 87 -28 87 -13 104 -29 119 -107 15 -79 6 -85 -126 -85 -93 0 -302 -22 -350 -36 -39 -12 -55 -34 -44 -61 10 -28 5 -43 -17 -43 -8 0 -14 -4 -14 -9 0 -14 69 -21 119 -12 25 5 114 10 196 10 152 2 189 8 260 44 56 28 74 45 101 100 13 26 28 47 33 47 5 0 20 -18 35 -40 28 -43 94 -90 125 -90 11 0 23 -4 26 -10 10 -16 40 -12 58 8 21 23 21 32 3 32 -21 0 -48 48 -44 80 2 21 -5 37 -26 59 -15 16 -26 33 -23 38 4 8 -12 93 -28 141 -4 12 -19 25 -33 29 -21 5 -31 0 -54 -28 -15 -18 -28 -38 -28 -45 0 -6 -6 -17 -14 -23 -12 -10 -18 -7 -30 17 -8 16 -36 48 -61 70 -25 22 -42 42 -38 45 4 3 56 7 115 8 90 3 109 1 125 -14 27 -24 33 -22 33 11 0 16 -9 37 -20 47 -14 13 -20 31 -20 62 l0 43 -57 -1 c-32 -1 -99 -5 -149 -9z"/>
<path d="M5910 5370 c0 -10 39 -34 46 -27 3 2 2 12 -2 21 -7 17 -44 23 -44 6z"/>
<path d="M10654 5199 c-10 -17 13 -36 27 -22 12 12 4 33 -11 33 -5 0 -12 -5 -16 -11z"/>
<path d="M6615 5080 c-11 -17 5 -32 21 -19 7 6 11 15 8 20 -7 12 -21 11 -29 -1z"/>
<path d="M6660 5050 c0 -5 5 -10 10 -10 6 0 10 5 10 10 0 6 -4 10 -10 10 -5 0 -10 -4 -10 -10z"/>
<path d="M9900 4910 c0 -5 5 -10 10 -10 6 0 10 5 10 10 0 6 -4 10 -10 10 -5 0 -10 -4 -10 -10z"/>
</g>
</g>
  <g id="id3:id3" transform="matrix(1.25,0,0,1.25,0.0,0.0)"><g transform="translate(0.000000,464.000000) scale(0.040000,-0.040000)" fill="#231f20" stroke="none">
<path d="M0 5800 l0 -5800 8040 0 8040 0 0 5800 0 5800 -8040 0 -8040 0 0 -5800z m6760 3076 c182 -330 301 -536 310 -536 17 0 140 119 140 135 0 6 -29 78 -64 160 -74 171 -74 174 -61 172 5 -1 49 -62 97 -134 48 -73 91 -133 96 -133 4 0 57 49 117 110 60 60 113 106 118 101 5 -5 -32 -71 -82 -147 -123 -187 -120 -216 13 -126 l69 47 43 114 c24 63 47 117 51 121 4 4 150 -19 323 -50 173 -31 322 -55 330 -52 8 2 112 128 230 280 324 416 370 473 379 468 5 -3 -36 -128 -91 -278 -183 -506 -219 -610 -216 -625 2 -10 112 -62 299 -143 163 -70 323 -143 356 -163 34 -21 65 -37 71 -37 6 0 59 54 117 120 59 66 111 117 116 114 5 -3 8 -8 5 -12 -74 -127 -146 -267 -144 -278 2 -8 55 -47 118 -87 99 -63 115 -77 112 -97 l-4 -23 110 7 110 7 48 -87 c27 -48 54 -88 59 -88 6 -1 63 104 128 232 65 128 122 230 126 227 5 -3 -6 -62 -25 -133 -19 -70 -49 -182 -66 -250 l-33 -122 108 -215 c64 -129 113 -215 121 -215 8 0 97 75 197 168 539 493 793 721 801 716 4 -3 -75 -107 -175 -232 -101 -125 -265 -329 -366 -454 -100 -125 -180 -232 -177 -237 4 -6 85 -73 180 -149 l173 -139 112 -7 c122 -8 123 -9 136 -78 4 -20 13 -39 21 -42 10 -4 12 -14 8 -30 -7 -28 34 -216 47 -216 5 0 27 -16 49 -37 l41 -36 32 29 c60 55 48 53 474 54 l398 1 46 -20 c52 -23 68 -40 98 -98 49 -99 16 -226 -75 -285 -27 -18 -52 -37 -56 -43 -4 -5 -8 -238 -8 -517 0 -447 2 -508 16 -522 8 -9 21 -16 28 -16 18 0 103 -44 127 -66 19 -17 28 -34 58 -107 6 -15 11 -46 11 -67 0 -36 -5 -55 -33 -120 -15 -33 -47 -70 -63 -70 -6 0 -17 -6 -23 -14 -23 -28 -139 -27 -256 3 -107 27 -134 33 -190 42 -33 6 -130 14 -215 19 -85 4 -172 11 -193 15 -37 7 -228 -15 -311 -37 -40 -10 -75 -41 -76 -68 0 -32 63 -89 159 -144 55 -31 103 -61 106 -66 10 -16 -10 -18 -50 -4 -79 27 -91 17 -50 -43 43 -65 17 -53 -63 27 -64 65 -86 80 -134 95 -31 10 -64 15 -72 12 -12 -5 -339 -385 -385 -448 -21 -29 -8 -44 50 -58 46 -11 59 -10 89 2 19 9 72 31 117 51 45 19 85 31 87 27 3 -4 -28 -29 -68 -55 -41 -25 -76 -55 -79 -66 -3 -12 -14 -20 -27 -20 -26 0 -38 -7 -266 -156 -148 -98 -183 -126 -267 -216 -110 -119 -246 -323 -248 -372 -1 -17 -5 -161 -8 -321 -5 -239 -8 -290 -20 -290 -9 0 -22 29 -36 85 -12 47 -43 166 -69 265 -26 99 -49 188 -52 198 -7 21 -37 22 -54 2 -11 -13 -6 -44 28 -178 23 -89 37 -166 33 -170 -8 -8 -58 77 -125 211 -17 33 -33 52 -44 52 -24 -1 -194 -129 -189 -143 2 -7 49 -45 105 -85 56 -41 100 -77 97 -81 -2 -4 -68 7 -147 26 -238 55 -240 55 -359 24 l-104 -27 -54 -82 c-30 -45 -58 -79 -62 -76 -5 3 1 30 12 60 12 31 17 60 13 64 -8 8 -235 -47 -399 -95 l-50 -15 -118 -195 c-65 -107 -123 -193 -127 -190 -5 3 -7 11 -5 18 22 63 105 371 105 387 0 11 -6 22 -12 24 -46 13 -386 86 -401 86 -10 0 -43 -19 -73 -43 -54 -41 -57 -48 -80 -140 -9 -40 -21 -42 -39 -7 -8 16 -18 30 -20 30 -3 0 -57 -43 -121 -95 -64 -52 -120 -93 -125 -89 -6 3 -6 11 -1 17 64 84 212 298 212 307 0 7 -7 36 -16 66 -13 46 -19 54 -39 54 -37 0 -228 -42 -243 -53 -8 -6 -10 -21 -6 -42 8 -47 -9 -51 -41 -9 l-27 35 -51 -5 c-29 -3 -53 -5 -54 -5 -9 -2 -13 0 -13 7 0 4 3 7 8 8 16 2 60 23 66 33 3 5 -24 50 -61 99 l-67 90 -83 37 c-45 20 -89 35 -96 32 -8 -3 -74 -118 -146 -256 -73 -138 -136 -249 -140 -246 -5 2 4 78 20 167 33 190 34 214 13 222 -13 5 -11 11 11 40 28 37 56 160 39 175 -5 5 -63 32 -129 61 -66 30 -153 69 -194 89 l-74 36 -261 -54 c-299 -61 -285 -59 -285 -46 0 6 99 55 220 109 136 62 219 105 219 114 0 8 -13 31 -30 52 -22 28 -53 48 -122 78 -190 84 -229 103 -223 112 3 4 46 -2 96 -16 104 -28 109 -28 109 -11 0 18 -148 201 -166 205 -8 2 -30 -3 -47 -11 -18 -8 -76 -36 -130 -61 -54 -26 -103 -44 -108 -41 -8 6 92 161 170 263 17 24 22 38 15 49 -5 8 -114 70 -242 137 -128 68 -233 127 -232 132 2 13 12 10 211 -62 185 -66 209 -72 209 -53 0 16 -127 244 -143 257 -10 8 -233 89 -456 165 l-63 22 -212 -44 c-116 -24 -218 -44 -226 -45 -9 -1 -15 8 -15 23 0 13 -7 28 -17 34 -16 11 -28 8 -134 -24 -41 -12 -151 -12 -159 1 -3 6 -16 10 -29 10 -22 0 -79 53 -104 99 -18 32 -19 170 -1 202 19 34 111 129 125 129 6 0 17 12 25 28 11 22 15 117 17 496 2 259 1 480 -3 493 -3 13 -11 23 -19 23 -7 0 -19 7 -26 15 -7 8 -21 15 -31 15 -40 0 -104 49 -123 95 -32 74 -36 88 -36 130 0 24 5 47 10 50 6 3 10 16 10 28 0 23 73 100 117 125 15 8 65 12 141 12 110 0 120 2 140 23 12 12 18 27 14 33 -4 5 -61 34 -127 64 -66 30 -128 61 -137 69 -10 8 -18 11 -18 7 0 -4 -5 -4 -10 -1 -6 4 -8 11 -4 16 4 6 10 6 18 0 7 -6 15 -9 18 -6 2 3 31 -4 64 -14 32 -11 106 -33 164 -50 58 -17 133 -39 167 -50 43 -13 65 -16 69 -9 4 6 -50 66 -119 134 -70 68 -123 125 -119 127 8 6 460 -305 482 -331 14 -17 27 -18 125 -13 61 3 116 10 122 14 7 4 28 36 48 71 32 57 36 72 41 168 l7 105 -68 127 c-58 111 -74 132 -121 167 -30 22 -52 44 -49 48 2 5 35 0 72 -10 38 -10 77 -19 88 -19 31 0 359 332 351 357 -39 132 -233 930 -227 936 4 4 115 -184 246 -418 132 -234 243 -425 247 -425 7 0 231 124 247 136 7 6 -29 54 -83 113 -28 31 -127 144 -221 251 -171 195 -209 239 -343 388 -40 44 -68 83 -63 87 6 3 119 -77 251 -177 133 -101 341 -259 463 -351 179 -135 227 -167 247 -164 14 3 106 33 206 68 133 47 190 72 217 96 21 18 37 39 37 46 0 14 -78 217 -343 889 -79 202 -142 370 -138 373 10 11 30 -23 331 -569z"/>
<path d="M7860 8583 c0 -10 49 -99 110 -197 60 -99 107 -183 104 -188 -3 -4 -65 48 -137 116 -155 145 -191 176 -206 176 -7 0 -42 -24 -79 -54 -37 -29 -86 -63 -109 -75 -77 -39 -70 -46 87 -89 63 -18 180 -50 260 -73 80 -22 162 -41 183 -43 20 -1 42 -7 49 -14 14 -14 40 -16 54 -4 5 5 52 32 105 60 l97 51 128 -92 c300 -215 287 -207 412 -243 63 -17 120 -30 126 -28 24 9 156 163 151 176 -6 15 -204 141 -250 158 -16 7 -124 45 -240 85 -115 40 -286 103 -380 139 -93 37 -228 85 -300 107 -71 22 -138 42 -147 45 -13 4 -18 0 -18 -13z"/>
<path d="M7268 8204 c-50 -27 -31 -54 38 -54 36 0 43 14 24 51 -13 23 -26 23 -62 3z"/>
<path d="M7410 7967 c-30 -11 -45 -30 -118 -157 -46 -80 -104 -180 -129 -223 -25 -42 -49 -75 -53 -72 -4 3 25 89 66 191 41 102 74 192 74 200 0 16 -37 19 -72 5 -13 -5 -66 -46 -118 -90 l-95 -82 -105 3 -105 3 3 -105 c2 -58 7 -141 11 -185 5 -44 5 -84 0 -89 -9 -10 -118 9 -131 22 -5 5 -3 51 3 103 13 101 0 205 -25 215 -15 6 -172 -42 -203 -62 -19 -12 -22 -26 -28 -123 l-7 -110 -60 -67 c-54 -60 -59 -70 -54 -99 4 -18 -5 -111 -19 -207 l-25 -173 37 -53 c21 -31 32 -57 27 -62 -5 -5 -46 0 -97 12 -48 11 -94 18 -101 15 -13 -5 -149 -224 -190 -304 -12 -24 -16 -61 -16 -146 0 -132 -23 -262 -51 -293 -10 -11 -19 -27 -19 -35 0 -7 -23 -35 -50 -60 -31 -28 -48 -52 -45 -60 11 -25 166 -150 183 -147 8 2 23 17 32 33 10 17 28 48 40 70 13 22 50 92 83 155 33 63 63 120 67 125 4 6 28 48 52 95 25 47 56 103 69 125 14 22 38 66 54 99 39 77 111 151 155 161 93 20 176 3 227 -47 19 -18 55 -73 80 -123 25 -49 60 -117 78 -150 18 -33 50 -94 72 -135 22 -41 49 -92 61 -112 12 -21 30 -53 41 -70 104 -181 201 -350 201 -352 0 -8 143 -253 153 -262 7 -6 32 -19 57 -28 25 -10 52 -24 61 -32 15 -14 24 -11 80 24 l64 39 3 374 c1 206 0 384 -3 396 -4 16 -15 24 -43 29 -20 4 -46 11 -57 17 -35 17 -86 71 -101 106 -17 41 -18 140 -2 178 16 38 78 103 98 103 9 0 21 5 27 11 7 7 111 11 329 10 176 0 336 3 356 8 24 6 55 4 90 -4 98 -22 144 -59 168 -131 6 -19 16 -34 21 -34 5 0 18 19 30 43 28 56 46 75 94 100 l40 21 648 -3 c465 -2 672 1 736 9 83 12 93 11 156 -9 60 -20 70 -20 83 -8 12 13 12 22 -3 68 -10 30 -40 92 -68 139 -75 125 -87 129 -87 30 0 -49 -4 -72 -13 -76 -16 -6 -83 21 -94 38 -4 7 -8 73 -8 146 l0 134 -295 199 c-162 109 -298 198 -302 196 -4 -1 -140 -168 -302 -370 -252 -314 -322 -395 -309 -355 2 4 76 128 166 275 278 457 270 442 257 458 -9 11 -7 16 9 25 12 6 21 14 21 18 0 4 -54 49 -119 100 l-119 92 -53 -10 c-29 -6 -53 -11 -54 -13 -1 -1 -16 -24 -34 -50 -18 -26 -38 -46 -43 -45 -6 2 -23 47 -37 99 l-26 94 -70 18 c-39 9 -149 36 -246 58 l-175 40 -84 -20 c-45 -11 -88 -25 -94 -31 -8 -9 7 -28 57 -75 37 -35 67 -66 67 -69 0 -7 -95 -56 -109 -56 -6 0 -55 43 -109 95 -55 52 -103 95 -107 95 -4 0 -60 25 -123 55 -63 31 -120 54 -127 51 -12 -4 -14 -11 -95 -316 -63 -239 -58 -223 -70 -215 -6 4 -11 67 -11 153 -1 81 -4 212 -8 292 -7 160 -6 159 -71 137z"/>
<path d="M9280 7939 c-33 -63 -25 -69 72 -62 87 6 102 11 90 29 -11 17 -107 74 -125 74 -9 0 -26 -18 -37 -41z"/>
<path d="M9331 7726 c-14 -17 -16 -15 127 -101 130 -77 113 -75 297 -27 71 19 111 35 113 44 4 19 -35 68 -61 77 -12 5 -50 0 -91 -11 -169 -45 -195 -48 -242 -27 -24 10 -64 28 -88 38 -36 16 -47 17 -55 7z"/>
<path d="M6109 7632 c-30 -21 -82 -55 -116 -76 -36 -22 -63 -46 -63 -55 0 -17 45 -71 58 -70 11 1 192 215 192 228 0 18 -14 13 -71 -27z"/>
<path d="M9750 7508 c-73 -10 -77 -12 -61 -32 13 -16 286 -219 302 -224 23 -9 3 36 -63 140 -39 62 -76 116 -82 120 -12 9 -8 9 -96 -4z"/>
<path d="M5818 7449 c-21 -12 -22 -43 -4 -119 15 -66 29 -70 75 -18 l32 37 -29 53 c-30 55 -45 65 -74 47z"/>
<path d="M6092 7402 c-23 -20 -42 -43 -42 -50 0 -16 52 -91 62 -92 7 0 21 45 33 110 4 19 9 43 11 53 8 28 -17 20 -64 -21z"/>
<path d="M5607 7303 c-61 -44 -84 -69 -73 -80 2 -2 39 -12 82 -23 92 -22 97 -18 90 55 -3 28 -6 60 -6 73 0 33 -19 27 -93 -25z"/>
<path d="M5910 7218 c-22 -49 -25 -69 -9 -85 7 -7 3 -15 -15 -26 -16 -11 -31 -37 -42 -70 -13 -42 -44 -87 -145 -208 -71 -85 -128 -156 -129 -159 0 -3 4 -11 9 -19 7 -11 55 17 212 124 173 117 288 196 309 213 3 2 -27 64 -65 138 -79 151 -93 161 -125 92z"/>
<path d="M10386 7058 c11 -38 53 -116 65 -124 14 -8 262 -53 297 -54 12 0 22 4 22 9 0 5 -48 50 -107 100 l-108 91 -88 0 -88 0 7 -22z"/>
<path d="M10536 6772 c-9 -15 64 -156 92 -179 25 -21 38 -22 164 -23 l138 0 14 23 c8 12 22 48 32 81 l18 58 -29 24 -30 24 -197 0 c-108 0 -199 -4 -202 -8z"/>
<path d="M6462 6465 c-17 -14 -51 -67 -77 -118 -26 -50 -53 -99 -60 -107 -7 -8 -36 -60 -65 -115 -29 -55 -56 -104 -60 -110 -7 -9 -34 -60 -163 -305 -28 -52 -58 -106 -67 -120 -9 -14 -45 -81 -80 -150 -34 -69 -71 -136 -80 -150 -9 -14 -20 -33 -23 -43 -11 -29 -78 -127 -87 -127 -23 0 -80 -49 -96 -82 -23 -51 -10 -95 34 -121 40 -24 163 -27 377 -9 298 23 305 25 290 79 -5 16 -10 43 -11 61 -2 19 -10 44 -17 56 -17 25 -76 46 -129 46 -61 0 -72 30 -37 102 65 131 60 129 256 143 87 6 165 8 173 5 8 -4 36 -6 62 -4 41 2 50 0 59 -19 6 -12 20 -31 29 -42 10 -11 20 -40 22 -65 3 -41 0 -46 -30 -65 -93 -57 -96 -61 -105 -98 -12 -50 5 -90 52 -118 30 -19 50 -22 121 -22 47 0 105 5 130 11 25 6 154 14 288 18 293 8 287 6 274 102 -10 73 -36 107 -94 122 -21 6 -49 21 -62 33 -22 20 -115 179 -261 447 -28 52 -63 115 -77 140 -40 71 -82 149 -128 235 -23 44 -55 103 -70 130 -15 28 -39 73 -54 101 -16 29 -38 56 -51 62 -17 8 -22 17 -18 31 4 15 -5 31 -30 56 -44 44 -91 47 -135 10z m89 -66 l21 -11 -18 -19 c-22 -24 -10 -38 14 -16 20 18 34 13 25 -9 -3 -7 27 -72 66 -144 39 -71 71 -136 71 -145 0 -8 4 -15 9 -15 5 0 34 -46 64 -103 31 -57 78 -143 107 -192 28 -49 48 -95 45 -103 -4 -10 -21 -13 -67 -11 -56 4 -63 2 -66 -16 -2 -11 -11 -26 -20 -32 -14 -12 -14 -16 6 -42 27 -38 17 -83 -17 -74 -27 7 -27 -14 -1 -45 23 -28 44 -19 37 15 -3 18 0 27 13 30 13 3 17 16 18 50 0 53 14 72 36 54 8 -7 34 -11 58 -10 54 3 60 0 93 -58 23 -37 26 -50 16 -65 -17 -27 -13 -38 13 -38 43 0 87 -83 51 -96 -9 -4 -14 -14 -13 -23 2 -11 -6 -17 -29 -19 -37 -4 -42 -19 -17 -57 9 -13 13 -29 9 -35 -3 -5 3 -22 14 -36 11 -15 18 -30 15 -35 -3 -5 -44 -9 -92 -10 -48 0 -114 -4 -147 -9 -56 -7 -62 -6 -87 18 -30 28 -35 46 -15 59 6 4 22 23 35 40 19 28 21 36 10 55 -7 12 -19 28 -27 34 -10 8 -12 23 -8 52 4 31 2 42 -8 42 -14 0 -55 63 -55 84 0 19 -47 26 -184 26 -175 0 -382 -18 -417 -35 -16 -9 -38 -33 -49 -56 -21 -39 -40 -44 -40 -10 0 10 -10 25 -22 33 l-21 14 58 110 c31 60 61 113 66 119 5 5 9 16 9 24 0 8 6 22 14 30 7 9 35 57 61 106 26 50 52 94 56 99 5 6 9 16 9 22 0 7 14 33 30 58 l30 44 40 -5 c36 -5 40 -3 40 16 0 23 -33 30 -46 10 -4 -7 -10 -7 -16 -1 -6 6 -1 24 16 51 14 22 26 47 26 55 0 8 4 17 9 21 6 3 29 40 52 83 74 135 81 142 120 121z m-597 -1040 c-3 -5 -10 -7 -15 -3 -5 3 -7 10 -3 15 3 5 10 7 15 3 5 -3 7 -10 3 -15z m70 -30 c-3 -5 -10 -7 -15 -3 -5 3 -7 10 -3 15 3 5 10 7 15 3 5 -3 7 -10 3 -15z m1161 -79 c-5 -8 -11 -8 -17 -2 -6 6 -7 16 -3 22 5 8 11 8 17 2 6 -6 7 -16 3 -22z m-1234 -24 c18 -1 25 -8 30 -33 15 -73 63 -111 155 -120 63 -7 73 -16 48 -44 -16 -18 -29 -19 -141 -17 -73 2 -123 7 -123 13 -1 6 9 11 20 13 14 2 20 9 16 19 -3 8 -1 23 5 35 8 15 7 24 -5 37 -9 10 -16 25 -16 33 0 18 -26 31 -42 22 -5 -4 -7 -21 -4 -39 4 -19 2 -36 -4 -40 -13 -8 -13 -58 1 -72 17 -17 -20 -32 -118 -48 -90 -15 -103 -13 -103 10 0 16 114 105 135 105 9 0 15 9 15 21 0 11 16 50 37 86 l36 65 17 -22 c9 -12 28 -23 41 -24z m1297 -31 c22 -25 49 -45 60 -45 10 0 27 -6 37 -14 16 -12 17 -16 6 -30 -11 -13 -34 -16 -111 -16 -97 0 -115 4 -103 23 10 17 11 61 1 73 -6 8 3 19 24 32 18 11 36 21 39 21 3 1 24 -19 47 -44z m-578 -120 c10 -12 9 -16 -5 -21 -19 -8 -40 9 -31 25 10 15 21 14 36 -4z m54 -6 c-3 -5 -10 -7 -15 -3 -5 3 -7 10 -3 15 3 5 10 7 15 3 5 -3 7 -10 3 -15z"/>
<path d="M6347 5985 c-15 -15 -27 -36 -27 -51 0 -14 -35 -92 -77 -175 -95 -183 -95 -184 27 -184 l83 0 18 30 c24 41 23 45 -10 45 -17 0 -32 3 -35 8 -6 11 87 187 99 186 17 -1 103 -172 93 -182 -6 -6 -27 -7 -49 -5 -44 6 -47 -1 -21 -46 15 -28 21 -31 69 -31 73 0 103 13 103 46 0 22 -38 100 -99 204 -5 8 -26 49 -47 90 -20 41 -42 78 -48 82 -21 15 -52 8 -79 -17z"/>
<path d="M6878 5263 c-10 -2 -18 -8 -18 -13 0 -13 35 -18 84 -13 50 6 63 23 19 23 -16 0 -37 2 -48 4 -11 2 -28 2 -37 -1z"/>
<path d="M4393 6459 c-10 -4 -31 -21 -48 -38 -43 -46 -41 -98 4 -145 25 -26 45 -36 81 -41 34 -5 56 -15 75 -35 24 -25 28 -38 32 -114 3 -47 9 -86 13 -86 4 0 13 7 20 15 8 10 21 13 33 9 l20 -6 -8 88 c-6 78 -11 94 -37 126 -16 21 -26 38 -21 39 4 0 29 0 56 -1 57 -2 60 10 15 57 -23 24 -28 34 -17 38 8 3 115 6 239 7 l224 3 12 23 c6 13 17 29 23 35 6 6 11 13 11 17 0 3 -118 4 -262 2 -145 -1 -304 1 -355 6 -51 4 -100 5 -110 1z m139 -98 c-1 -7 1 -18 6 -25 6 -6 6 -21 1 -33 l-8 -22 -38 14 c-21 8 -51 16 -66 20 -33 7 -44 29 -27 51 17 20 137 16 132 -5z"/>
<path d="M5272 6463 c-51 -2 -92 -7 -90 -11 2 -4 12 -22 23 -40 l20 -33 165 7 c135 6 167 4 177 -7 6 -8 15 -77 20 -154 8 -114 7 -143 -4 -155 -21 -23 -44 -1 -58 54 -14 56 -39 93 -85 124 -53 36 -106 45 -265 46 -230 2 -237 -7 -239 -273 -1 -166 -2 -175 -21 -181 -28 -7 -85 -43 -85 -53 0 -4 12 -19 28 -32 24 -21 26 -26 14 -45 -7 -11 -10 -25 -8 -29 3 -5 -3 -16 -14 -26 -11 -10 -20 -26 -20 -37 0 -17 6 -19 50 -22 8 -1 16 -11 18 -23 2 -13 7 -23 12 -23 5 0 10 10 12 23 2 12 7 20 12 17 5 -3 8 -106 7 -230 -1 -124 3 -243 8 -265 7 -27 23 -52 52 -78 32 -28 42 -45 42 -67 0 -17 3 -30 7 -30 8 0 37 31 42 45 4 12 58 7 76 -7 18 -15 15 -36 -7 -47 -10 -6 -74 -13 -142 -16 -68 -4 -170 -13 -227 -21 -79 -11 -107 -11 -121 -2 -16 10 -24 7 -48 -13 -30 -25 -141 -56 -168 -45 -32 12 -16 45 43 85 32 21 70 58 86 81 15 23 33 40 39 38 7 -2 20 -21 30 -41 19 -37 31 -44 55 -28 11 6 11 17 4 45 -8 28 -7 43 3 63 9 18 11 32 4 44 -5 10 -6 25 -3 34 4 9 -1 24 -11 35 -16 18 -16 20 -1 26 23 9 20 24 -5 24 -14 0 -19 -5 -16 -14 3 -7 0 -19 -6 -25 -11 -11 -16 -31 -21 -86 -2 -22 -8 -30 -22 -30 -17 0 -19 6 -15 59 3 54 2 58 -17 52 -11 -4 -24 0 -32 9 -22 27 -30 16 -30 -44 0 -32 -5 -73 -11 -92 -13 -37 -56 -89 -74 -89 -6 0 -30 -19 -53 -43 -54 -55 -57 -98 -11 -144 27 -28 71 -48 95 -42 5 1 22 -1 37 -6 17 -4 44 -3 65 3 142 42 242 57 540 81 131 11 146 21 137 100 -4 31 -12 68 -18 83 -14 33 -66 58 -135 65 -83 9 -84 13 -80 257 l3 205 23 23 c19 20 35 24 107 27 105 4 130 -8 140 -70 4 -23 19 -54 34 -71 23 -25 39 -32 91 -39 54 -8 66 -7 83 8 17 16 18 25 11 83 -4 36 -8 140 -9 233 -1 92 -5 170 -8 174 -4 3 -7 25 -7 49 0 35 -5 47 -31 68 -37 31 -67 33 -119 6 -35 -18 -70 -65 -70 -95 0 -49 -107 -99 -198 -93 l-47 3 1 168 c2 207 -1 203 125 213 134 10 213 -1 255 -38 19 -16 34 -40 34 -52 1 -33 36 -103 59 -115 35 -19 164 -32 178 -18 8 8 -14 279 -29 362 -9 46 -19 68 -44 93 l-32 32 -108 -2 c-60 -1 -151 -4 -202 -5z m150 -658 c-2 -77 2 -180 8 -228 9 -69 9 -91 0 -103 -11 -13 -15 -13 -31 2 -11 10 -19 26 -19 36 0 27 -24 69 -57 99 -43 41 -92 52 -208 47 -88 -3 -109 -7 -134 -26 -16 -12 -32 -18 -34 -14 -6 10 -2 45 6 59 4 7 2 21 -4 31 -7 11 -9 27 -6 36 6 14 10 15 29 5 30 -16 202 -6 253 15 52 22 98 68 121 119 25 58 34 68 58 65 l21 -3 -3 -140z"/>
<path d="M7593 6459 c-37 -11 -73 -56 -73 -92 0 -48 95 -117 162 -117 9 0 28 -14 42 -31 l26 -31 0 -428 c0 -235 -3 -442 -6 -459 -6 -27 -17 -37 -67 -62 -79 -40 -107 -69 -107 -111 0 -76 56 -110 179 -109 544 4 688 7 699 14 16 11 6 122 -14 154 -17 27 -56 48 -105 57 -21 4 -49 16 -63 27 l-26 20 0 437 c0 330 3 443 13 462 12 24 27 34 102 68 l40 18 -3 59 c-4 69 -19 98 -64 121 -28 14 -46 15 -177 4 -132 -11 -374 -9 -486 4 -22 3 -54 1 -72 -5z m712 -88 c0 -15 -4 -18 -80 -53 -45 -21 -65 -23 -205 -24 -85 -1 -174 -4 -197 -8 -47 -8 -96 14 -86 40 6 16 -8 19 -22 5 -6 -6 -27 -6 -55 0 -73 16 -75 17 -56 38 15 17 39 18 359 17 285 -1 342 -3 342 -15z m-157 -370 c2 -167 -1 -248 -9 -257 -6 -7 -8 -18 -5 -23 4 -5 2 -12 -4 -16 -15 -9 -12 -36 5 -49 11 -9 15 -48 16 -201 l2 -190 -42 -3 c-22 -2 -41 -7 -41 -12 0 -10 76 -24 89 -15 6 3 28 -7 50 -23 21 -16 64 -34 94 -41 66 -14 85 -31 59 -53 -15 -12 -40 -13 -177 -3 -88 7 -168 15 -178 19 -10 5 -23 3 -31 -3 -15 -13 -27 -5 -19 15 6 16 -13 19 -22 4 -4 -6 -16 -8 -27 -4 -13 4 -24 0 -33 -13 -10 -14 -36 -21 -104 -28 -50 -6 -98 -7 -106 -2 -28 15 -15 37 38 61 54 24 107 75 107 104 1 9 1 230 1 491 0 261 2 478 5 483 3 5 78 7 167 6 l162 -3 3 -244z"/>
<path d="M7914 5243 c-19 -30 -18 -39 8 -57 20 -14 24 -13 55 19 19 19 40 35 48 35 8 0 15 4 15 9 0 5 -25 11 -56 13 -48 3 -57 0 -70 -19z"/>
<path d="M8157 5193 c-16 -15 -6 -33 18 -33 27 0 32 9 13 28 -14 14 -22 15 -31 5z"/>
<path d="M8715 6463 c-27 -7 -62 -40 -69 -66 -20 -81 -45 -308 -37 -330 16 -43 70 -75 136 -82 70 -8 80 -1 110 80 23 63 69 110 123 124 23 7 84 10 134 9 l93 -3 3 -40 c5 -57 17 -64 53 -29 28 27 30 33 24 74 -3 25 -6 52 -6 61 0 9 -11 21 -25 28 -28 12 -31 36 -6 51 l17 10 -18 11 c-9 5 -15 14 -12 20 4 5 120 9 279 9 231 0 275 2 286 15 10 12 10 18 0 30 -11 13 -67 15 -396 15 -244 0 -385 4 -389 10 -6 10 -260 12 -300 3z m183 -88 c4 -9 24 -18 44 -21 29 -5 40 -2 54 15 16 18 29 21 106 21 88 0 110 -8 83 -30 -7 -6 -12 -17 -9 -24 3 -7 -3 -20 -13 -29 -14 -12 -42 -16 -123 -18 -92 -1 -105 1 -102 15 2 11 -4 16 -18 16 -17 0 -20 -4 -15 -19 5 -15 -2 -23 -28 -36 -50 -23 -85 -65 -112 -131 -34 -85 -104 -116 -92 -40 3 17 14 85 24 151 11 66 22 126 27 133 12 19 163 16 174 -3z"/>
<path d="M8840 6350 c0 -5 5 -10 10 -10 6 0 10 5 10 10 0 6 -4 10 -10 10 -5 0 -10 -4 -10 -10z"/>
<path d="M9020 6330 c0 -5 14 -10 30 -10 17 0 30 5 30 10 0 6 -13 10 -30 10 -16 0 -30 -4 -30 -10z"/>
<path d="M10015 6463 c-28 -4 -95 -57 -95 -75 0 -5 53 -6 119 -2 l119 7 17 -26 c19 -29 13 -47 -16 -47 -10 0 -19 -3 -19 -7 1 -16 28 -44 40 -41 24 6 21 -21 -4 -38 -33 -21 -33 -30 3 -42 23 -8 29 -17 34 -53 7 -50 -1 -62 -34 -57 -28 4 -71 81 -64 114 3 14 -2 24 -18 32 -129 62 -130 62 -261 69 -113 5 -129 8 -134 25 -2 10 -13 18 -24 18 -14 0 -18 -5 -14 -16 4 -10 -5 -29 -24 -50 -28 -33 -30 -39 -30 -120 0 -72 -3 -86 -17 -90 -81 -27 -94 -44 -34 -44 44 0 59 -13 40 -36 -9 -11 -9 -18 -1 -26 8 -8 12 -68 12 -189 0 -108 4 -180 10 -184 16 -10 13 -172 -4 -182 -12 -7 -12 -19 0 -88 12 -70 18 -84 49 -112 19 -18 45 -33 57 -33 12 0 28 -7 37 -15 9 -8 27 -24 41 -34 22 -17 23 -21 10 -36 -12 -14 -24 -16 -74 -10 -33 3 -64 9 -69 12 -4 3 -67 7 -139 9 -71 2 -134 6 -138 9 -5 3 -7 12 -4 20 3 7 1 23 -5 34 -9 17 -8 24 10 42 18 18 20 25 11 40 -8 12 -8 20 -2 24 11 7 4 25 -9 25 -15 0 -52 -61 -44 -73 10 -17 11 -47 1 -53 -4 -3 -8 -16 -8 -30 0 -14 -6 -26 -12 -28 -7 -3 -84 -7 -171 -10 -138 -6 -158 -4 -164 10 -10 27 21 45 99 59 67 11 80 17 126 60 l52 48 0 167 c0 137 -3 170 -15 180 -12 10 -18 10 -30 0 -12 -10 -15 -42 -15 -170 l0 -158 -32 -20 c-18 -11 -66 -25 -107 -31 -88 -14 -127 -34 -141 -74 -17 -49 -12 -64 32 -105 54 -52 72 -55 383 -56 251 -2 409 -10 455 -26 14 -5 55 -11 92 -14 60 -6 70 -4 88 14 16 16 20 29 15 50 -3 16 -8 43 -10 61 -8 62 -69 119 -130 119 -31 0 -84 17 -122 38 -20 11 -23 21 -23 82 0 38 -4 72 -10 75 -5 3 -10 46 -10 95 0 49 5 92 10 95 6 4 10 113 10 294 0 249 2 290 16 301 21 19 163 25 221 11 61 -16 77 -31 113 -107 37 -76 50 -87 109 -91 25 -2 62 -6 82 -9 55 -9 61 6 48 122 -13 126 -37 250 -55 292 -23 54 -102 73 -229 55z m-111 -1364 c-3 -5 -10 -7 -15 -3 -5 3 -7 10 -3 15 3 5 10 7 15 3 5 -3 7 -10 3 -15z"/>
<path d="M10429 6441 c-42 -35 -53 -73 -34 -118 17 -40 46 -59 114 -74 31 -6 64 -21 78 -35 l23 -23 0 -350 c0 -192 3 -352 8 -354 4 -3 21 -2 39 0 l32 5 3 202 c2 110 1 269 -2 351 -5 133 -8 155 -29 191 -27 48 -58 68 -137 89 -67 17 -84 29 -65 48 8 8 39 11 98 9 75 -3 85 -1 79 13 -3 9 0 24 6 35 7 10 9 22 5 26 -4 5 -47 10 -95 12 l-87 4 -36 -31z"/>
<path d="M11045 6463 c-44 -2 -82 -9 -86 -15 -4 -6 1 -24 10 -40 l16 -30 86 6 c70 5 88 4 99 -9 17 -21 1 -39 -49 -54 -47 -14 -98 -68 -106 -113 -4 -19 -5 -113 -3 -210 l3 -176 23 -25 c14 -15 20 -30 16 -40 -4 -11 -1 -17 9 -17 8 0 17 9 20 20 3 11 11 18 19 16 7 -3 90 -7 184 -11 l170 -6 12 25 c15 33 28 33 44 -1 l13 -28 80 -3 c118 -4 119 -3 125 155 l5 128 22 3 c23 3 39 34 28 52 -3 5 -15 10 -26 10 -12 0 -23 10 -29 26 -14 36 -5 45 28 28 35 -18 42 -18 42 4 0 17 -38 62 -52 62 -3 0 -9 -10 -12 -22 -6 -21 -7 -21 -19 -6 -6 9 -20 30 -29 47 -18 32 -76 67 -134 79 -42 8 -65 35 -48 52 12 12 138 17 164 7 8 -4 30 -8 49 -9 31 -3 35 -7 38 -35 2 -17 -1 -34 -6 -37 -16 -10 9 -56 31 -56 10 0 21 8 25 18 3 9 12 24 19 32 7 9 12 29 11 45 l-2 30 90 3 c50 1 97 5 105 8 24 10 153 10 179 1 l25 -8 -22 -21 c-12 -12 -41 -31 -64 -42 -62 -30 -105 -91 -102 -145 1 -29 -3 -44 -12 -48 -19 -7 -18 -29 2 -37 16 -6 16 -8 0 -24 -20 -23 -20 -36 -1 -52 13 -11 15 -74 15 -459 0 -272 4 -462 11 -486 16 -64 16 -70 -8 -73 -28 -4 -29 -16 -4 -41 16 -16 26 -18 49 -12 23 7 44 1 110 -31 70 -33 82 -42 82 -64 0 -13 -6 -27 -14 -30 -7 -3 -58 6 -112 19 -54 14 -128 30 -164 37 -36 6 -87 16 -113 21 -26 5 -101 9 -167 9 l-119 0 -21 29 c-22 32 -22 31 36 62 27 13 34 13 50 2 23 -17 94 -17 94 0 0 18 -12 32 -36 45 -20 11 -21 14 -8 49 9 28 13 104 14 281 l0 243 -24 23 c-27 28 -41 29 -396 50 -123 8 -234 10 -245 6 -48 -18 -50 -30 -51 -263 l-1 -221 -24 -8 c-30 -11 -31 -12 -23 -32 8 -21 24 -20 40 2 11 16 13 15 23 -10 17 -45 77 -95 140 -119 73 -26 100 -51 81 -74 -10 -12 -24 -14 -59 -9 -25 4 -50 10 -56 14 -5 4 -32 10 -60 13 -233 28 -311 40 -320 48 -5 6 -10 56 -10 112 l0 102 -26 12 c-22 11 -26 20 -28 65 -3 59 -4 63 -23 52 -7 -5 -22 -9 -33 -9 -18 0 -20 -8 -25 -85 l-5 -85 -51 -25 c-90 -44 -109 -65 -109 -118 0 -70 24 -89 150 -121 22 -5 112 -10 200 -10 97 0 193 -6 245 -16 47 -8 123 -22 168 -30 46 -8 94 -12 107 -9 27 7 40 45 25 73 -5 11 -7 27 -4 35 12 31 -24 83 -76 110 -27 14 -56 26 -63 26 -18 0 -75 28 -83 41 -3 6 -6 105 -6 221 0 253 -6 241 116 232 45 -3 158 -11 251 -17 l170 -12 3 -229 c3 -258 1 -268 -66 -285 -21 -6 -53 -27 -72 -46 -29 -30 -34 -42 -33 -76 2 -46 22 -73 67 -94 45 -20 84 -25 256 -35 85 -5 187 -16 225 -25 39 -9 99 -23 135 -31 36 -8 92 -19 124 -25 54 -9 61 -8 79 10 19 18 19 24 8 93 -16 96 -25 105 -158 157 -72 29 -68 -10 -68 611 l0 559 30 31 c16 17 49 40 72 50 49 21 69 51 53 79 -5 11 -10 34 -10 51 0 46 -17 70 -63 89 -35 15 -56 17 -127 10 -112 -10 -395 -10 -490 0 -93 10 -149 -9 -175 -59 -33 -63 10 -128 104 -156 72 -22 97 -45 105 -97 10 -58 8 -299 -3 -310 -4 -4 -124 -2 -267 5 l-259 13 0 162 0 161 24 26 c14 14 30 26 37 26 8 0 29 8 49 17 37 18 53 46 36 67 -5 6 -8 21 -5 33 6 24 -15 70 -44 96 -23 21 -58 25 -167 20z m-361 -1346 c-3 -18 -9 -41 -14 -52 -4 -11 -11 -28 -14 -37 -4 -15 -17 -18 -64 -18 -102 0 -101 35 0 79 26 11 54 31 63 45 22 33 36 24 29 -17z"/>
<path d="M8449 6221 c-20 -21 -49 -45 -65 -52 l-29 -14 -8 -325 c-5 -179 -5 -358 -2 -398 l7 -73 29 -6 c16 -3 32 -10 35 -14 3 -5 13 -9 22 -9 10 0 34 -13 53 -30 117 -95 101 -289 -29 -361 -48 -26 -62 -29 -150 -29 -54 0 -136 5 -182 11 -84 11 -239 2 -392 -21 -69 -11 -163 11 -220 52 -14 10 -23 8 -49 -11 -52 -38 -91 -44 -364 -52 -240 -6 -365 -17 -423 -35 -30 -9 -125 22 -161 52 -41 34 -71 104 -71 163 0 63 14 96 63 148 34 36 38 44 27 58 -10 12 -35 15 -124 15 -113 0 -186 -8 -186 -19 0 -3 20 -15 43 -25 49 -22 102 -69 123 -108 8 -16 14 -57 14 -101 0 -63 -4 -79 -28 -118 -29 -45 -74 -74 -153 -98 -19 -6 -89 -11 -155 -11 -122 0 -144 -6 -144 -40 0 -8 25 -80 55 -159 45 -120 62 -152 97 -188 l42 -43 77 0 c43 0 80 -4 84 -9 3 -5 -13 -20 -35 -32 -22 -13 -40 -29 -40 -36 0 -7 20 -40 44 -73 36 -48 46 -72 52 -117 6 -47 13 -64 45 -97 l38 -41 173 -5 c109 -3 172 -9 170 -15 -2 -5 -43 -21 -92 -35 -84 -24 -128 -47 -105 -56 6 -3 84 -45 175 -94 92 -51 258 -129 375 -177 116 -47 291 -119 390 -160 l180 -75 105 6 c59 3 161 19 235 35 72 17 134 26 138 22 5 -5 -40 -35 -100 -67 -99 -53 -122 -69 -123 -85 0 -3 44 -22 98 -42 153 -57 288 -85 322 -67 11 6 21 6 24 1 3 -5 163 -7 368 -4 l362 4 70 39 c39 22 131 81 203 132 73 51 190 132 260 180 183 124 213 147 213 161 0 6 -60 114 -134 239 -74 126 -131 230 -127 233 5 2 72 -79 150 -181 79 -102 148 -183 154 -181 16 5 40 78 70 212 13 61 28 109 33 108 5 -2 14 -62 20 -135 10 -128 16 -158 33 -158 14 0 143 100 199 154 106 101 222 299 222 379 0 30 5 40 25 49 29 13 29 13 55 233 19 166 17 185 -21 185 -10 0 -21 5 -24 10 -3 6 -13 10 -21 10 -26 0 -93 49 -110 81 -8 17 -22 54 -29 82 -23 89 22 182 118 243 32 21 36 28 31 52 -7 29 -45 89 -123 192 -27 36 -46 69 -41 73 4 5 37 -14 74 -43 l65 -51 26 17 25 16 0 103 c0 56 -5 116 -11 133 l-11 31 -241 -5 c-133 -3 -268 -10 -299 -16 -31 -6 -64 -8 -73 -4 -9 3 -25 0 -35 -7 -19 -11 -20 -24 -20 -199 l0 -187 22 -15 c12 -9 37 -16 55 -16 17 0 35 -4 38 -10 3 -5 14 -10 24 -10 9 0 35 -15 57 -34 114 -98 114 -256 -1 -350 -49 -41 -108 -51 -215 -36 -256 34 -528 44 -697 26 -131 -14 -217 24 -265 117 -29 58 -29 157 0 213 37 71 126 124 209 124 16 0 34 5 41 12 9 9 12 102 12 359 0 287 -2 349 -14 358 -8 7 -36 11 -63 9 l-48 -3 -30 -62 c-57 -117 -111 -153 -230 -153 -79 0 -119 13 -163 54 -62 56 -71 126 -40 310 5 32 -15 27 -53 -13z m-140 -1573 c9 -24 4 -55 -9 -63 -5 -3 -16 9 -24 26 -12 24 -13 35 -5 45 16 20 28 17 38 -8z m-783 -118 c2 -36 3 -71 3 -77 -2 -68 -1 -101 2 -118 3 -17 -1 -20 -29 -20 l-33 0 0 138 c0 75 1 140 1 143 0 3 12 4 27 2 l26 -3 3 -65z m136 53 c29 -26 23 -74 -14 -104 l-31 -26 45 -66 c46 -66 49 -77 18 -77 -21 0 -50 32 -82 91 l-25 47 28 25 c30 26 38 67 20 97 -20 30 11 41 41 13z m329 -29 c13 -25 31 -50 41 -55 10 -5 18 -16 18 -24 0 -8 23 -44 50 -81 28 -36 49 -69 46 -72 -3 -3 -20 -6 -37 -6 -26 -1 -33 4 -48 39 -10 22 -28 49 -40 59 -11 11 -21 24 -21 30 0 6 -23 40 -49 76 -27 35 -47 68 -45 72 3 5 18 8 34 8 24 0 32 -7 51 -46z m143 37 c3 -5 -1 -14 -8 -20 -16 -13 -32 2 -21 19 8 12 22 13 29 1z m360 -121 c0 -69 3 -132 6 -140 4 -11 -3 -15 -29 -15 l-33 0 1 140 c0 77 1 141 1 143 0 2 12 2 26 0 l26 -3 2 -125z m157 114 c56 -29 75 -114 40 -183 -39 -75 -71 -76 -45 -1 18 53 11 107 -21 154 -32 47 -24 56 26 30z m-711 -250 c0 -17 -24 -29 -40 -19 -8 5 -6 13 6 26 18 20 34 17 34 -7z"/>
<path d="M11840 6250 c0 -5 9 -10 20 -10 11 0 20 5 20 10 0 6 -9 10 -20 10 -11 0 -20 -4 -20 -10z"/>
<path d="M11910 6250 c0 -5 14 -10 30 -10 17 0 30 5 30 10 0 6 -13 10 -30 10 -16 0 -30 -4 -30 -10z"/>
<path d="M10416 6124 c-3 -9 -6 -34 -6 -57 0 -64 -47 -139 -102 -161 -79 -33 -89 -44 -69 -74 6 -11 26 -11 111 2 56 8 105 18 108 21 3 2 11 0 19 -7 7 -6 14 -9 16 -7 1 2 0 59 -3 126 -4 108 -8 124 -27 147 -26 30 -38 32 -47 10z"/>
<path d="M9821 6097 c-7 -7 -11 -69 -11 -160 l0 -149 22 -18 c16 -12 28 -15 43 -9 15 6 294 49 320 49 3 0 5 6 5 13 0 18 -52 67 -72 67 -36 0 -138 68 -138 93 0 5 -8 21 -19 35 -10 15 -20 36 -22 47 -3 15 -18 22 -61 31 -40 8 -60 8 -67 1z"/>
<path d="M4616 5861 c-4 -5 -2 -12 3 -15 5 -4 8 -29 7 -56 -3 -60 7 -70 40 -39 30 28 31 53 2 74 -13 8 -23 21 -23 27 0 15 -21 22 -29 9z"/>
<path d="M10831 5838 c2 -13 0 -29 -5 -36 -5 -8 1 -21 16 -36 12 -12 28 -30 33 -40 12 -21 51 -27 47 -7 -2 7 5 22 14 32 20 22 20 22 -28 42 -30 13 -38 21 -38 41 0 20 -5 26 -21 26 -15 0 -20 -5 -18 -22z"/>
<path d="M4800 5830 c0 -5 7 -10 15 -10 8 0 15 5 15 10 0 6 -7 10 -15 10 -8 0 -15 -4 -15 -10z"/>
<path d="M5630 5725 c-18 -19 -21 -30 -15 -57 4 -18 9 -82 12 -143 2 -60 8 -114 13 -119 5 -4 6 -23 3 -41 -5 -30 -3 -33 28 -39 17 -3 33 -5 33 -4 10 26 114 230 128 250 37 53 26 72 -64 120 -114 60 -113 60 -138 33z"/>
<path d="M11010 5710 c0 -5 7 -10 15 -10 8 0 15 5 15 10 0 6 -7 10 -15 10 -8 0 -15 -4 -15 -10z"/>
<path d="M4642 5698 c-31 -31 0 -105 33 -78 25 21 14 90 -15 90 -3 0 -11 -5 -18 -12z"/>
<path d="M4714 5559 c-10 -17 13 -36 27 -22 12 12 4 33 -11 33 -5 0 -12 -5 -16 -11z"/>
<path d="M9394 5479 c-10 -17 13 -36 27 -22 12 12 4 33 -11 33 -5 0 -12 -5 -16 -11z"/>
<path d="M5143 5463 c-9 -3 -13 -35 -13 -112 l0 -108 24 -12 c12 -7 33 -11 46 -9 26 4 67 67 56 89 -38 77 -83 153 -91 155 -5 1 -16 0 -22 -3z"/>
<path d="M4703 5438 c-17 -22 -22 -95 -8 -115 7 -9 11 -22 8 -29 -6 -16 28 -27 41 -14 8 8 7 13 -3 19 -16 10 -23 118 -9 127 4 3 8 9 8 15 0 13 -26 11 -37 -3z"/>
<path d="M11839 5419 c-10 -6 -11 -11 -3 -19 11 -11 44 -4 44 10 0 13 -26 19 -41 9z"/>
<path d="M10722 5403 c2 -10 14 -19 26 -21 19 -3 23 1 20 15 -2 10 -14 19 -26 21 -19 3 -23 -1 -20 -15z"/>
<path d="M9424 5399 c-10 -17 13 -36 27 -22 12 12 4 33 -11 33 -5 0 -12 -5 -16 -11z"/>
<path d="M5348 5103 c-14 -16 -13 -23 11 -73 21 -45 31 -55 51 -55 20 0 26 6 28 29 6 53 -7 92 -34 104 -33 16 -38 15 -56 -5z"/>
<path d="M11800 4995 c0 -10 7 -15 18 -13 21 4 19 22 -2 26 -10 2 -16 -3 -16 -13z"/>
<path d="M10663 4368 c-30 -15 -48 -88 -20 -88 10 1 63 66 75 93 5 10 -29 8 -55 -5z"/>
<path d="M5824 4357 c-10 -26 26 -79 127 -187 85 -92 112 -131 218 -315 112 -194 142 -234 179 -235 19 0 14 25 -16 77 -15 26 -56 106 -90 177 -47 97 -80 150 -135 214 -162 192 -272 297 -283 269z"/>
<path d="M10200 3783 c-225 -143 -268 -201 -72 -97 75 39 116 68 131 90 38 55 20 57 -59 7z"/>
<path d="M6420 3794 c0 -4 44 -52 98 -109 53 -56 117 -133 142 -173 45 -71 71 -87 98 -60 17 17 27 -15 13 -41 -15 -27 -14 -31 9 -31 26 0 230 62 230 70 -1 26 -79 77 -333 218 -225 125 -257 141 -257 126z"/>
<path d="M9792 3494 c-51 -36 -92 -73 -92 -81 0 -23 25 -13 123 51 60 39 87 62 85 73 -6 30 -24 24 -116 -43z"/>
<path d="M9845 3342 l-100 -58 -3 -37 c-6 -67 19 -58 126 44 53 52 99 97 100 101 9 19 -30 3 -123 -50z"/>
<path d="M6978 3352 c-21 -10 -38 -24 -38 -33 0 -19 41 -59 61 -59 19 0 92 87 84 100 -9 15 -65 10 -107 -8z"/>
<path d="M7245 3285 c-122 -92 -135 -102 -135 -114 0 -12 121 -82 190 -108 87 -34 218 -73 300 -88 55 -11 152 -15 363 -15 158 0 287 2 287 5 0 2 -5 15 -11 28 -9 19 -50 42 -188 101 -199 86 -668 266 -691 266 -8 0 -60 -34 -115 -75z"/>
<path d="M9428 3101 c-81 -48 -155 -95 -165 -103 -25 -23 -87 -127 -80 -134 3 -4 21 3 39 14 19 12 75 37 124 56 160 61 304 139 304 166 0 22 -48 90 -63 89 -7 -1 -78 -40 -159 -88z"/>
<path d="M8547 3031 c-75 -9 -142 -22 -147 -27 -15 -15 -1 -46 19 -40 9 3 94 17 189 32 108 17 171 31 169 38 -5 17 -79 16 -230 -3z"/>
<path d="M8958 2983 c-81 -36 -81 -35 46 -79 77 -27 81 -25 106 44 15 41 8 48 -50 56 -36 5 -56 1 -102 -21z"/>
<path d="M7413 2922 c-12 -7 -3 -75 11 -89 9 -9 129 40 134 55 2 6 -7 16 -20 21 -37 13 -112 22 -125 13z"/>
<path d="M8460 2873 c-77 -8 -82 -11 -75 -46 4 -18 12 -37 19 -44 6 -6 59 -23 119 -36 126 -28 127 -28 135 68 l5 65 -84 -2 c-46 0 -100 -3 -119 -5z"/>
<path d="M8715 2860 c-9 -14 43 -110 59 -110 52 0 262 34 268 43 19 29 16 30 -165 57 -161 23 -154 23 -162 10z"/>
<path d="M8210 2834 c-36 -7 -71 -16 -79 -19 -22 -9 4 -30 61 -49 41 -14 63 -16 97 -10 56 12 70 31 46 67 -20 31 -32 32 -125 11z"/>
</g>
</g>
  <g id="id4:id4" transform="matrix(1.25,0,0,1.25,0.0,0.0)"><g transform="translate(0.000000,464.000000) scale(0.040000,-0.040000)" fill="#ffffff" stroke="none">
<path d="M6320 9660 c0 -6 4 -18 9 -28 5 -9 34 -82 65 -162 56 -145 136 -350 370 -944 69 -176 126 -327 126 -336 0 -37 -56 -69 -220 -125 -91 -32 -182 -62 -202 -68 l-36 -11 -224 169 c-265 200 -645 488 -742 562 -70 53 -86 61 -86 43 0 -6 70 -90 156 -188 86 -97 232 -262 324 -367 92 -104 202 -229 244 -277 68 -77 84 -108 57 -108 -4 0 -51 -25 -104 -55 -52 -30 -98 -55 -100 -55 -5 0 -35 53 -145 250 -14 25 -53 95 -87 155 -35 61 -75 133 -90 160 -115 206 -198 352 -207 363 -14 17 -31 15 -25 -2 3 -8 65 -249 138 -536 l132 -522 -159 -159 c-87 -87 -167 -159 -176 -159 -9 0 -57 9 -105 20 -48 12 -99 20 -113 18 -22 -3 -15 -11 59 -65 l84 -62 63 -116 64 -116 0 -100 0 -101 -36 -69 c-44 -83 -41 -104 14 -95 20 3 61 6 90 6 44 0 57 4 77 26 24 26 45 25 45 -1 0 -8 28 -29 61 -46 100 -54 120 -98 138 -309 15 -165 14 -204 -4 -247 -8 -20 -13 -38 -11 -41 4 -3 96 66 96 72 0 2 9 45 20 96 13 63 20 131 20 208 l0 114 86 144 c48 79 93 149 100 155 11 9 38 7 120 -11 64 -14 108 -20 114 -14 6 6 -8 35 -36 75 l-45 67 21 141 c11 78 20 170 20 205 l0 63 55 62 c61 68 62 72 68 188 2 47 9 89 17 98 15 18 178 71 188 60 4 -3 12 -30 19 -58 9 -42 9 -70 -3 -145 -10 -66 -12 -98 -4 -107 11 -14 157 -42 167 -32 3 4 0 93 -8 198 -8 105 -13 192 -12 193 1 1 46 -2 99 -7 110 -9 91 -17 224 96 65 56 97 77 113 75 13 -2 21 -9 19 -18 -2 -8 -48 -131 -102 -272 -55 -142 -100 -262 -100 -268 0 -21 17 -9 36 28 12 20 74 129 139 242 65 113 135 234 155 270 28 48 44 66 66 72 16 4 32 4 36 0 7 -7 27 -469 28 -634 0 -21 4 -38 8 -38 12 0 23 37 103 335 40 149 76 274 80 279 4 5 62 -17 131 -49 113 -53 131 -66 219 -152 53 -51 100 -93 105 -93 18 -1 134 65 134 77 0 6 -30 38 -67 71 l-68 61 27 10 c14 5 53 15 86 22 l59 12 229 -53 c126 -29 234 -58 240 -64 6 -6 21 -51 34 -101 20 -80 42 -127 53 -114 2 2 22 32 45 65 38 57 45 62 86 68 l46 7 105 -82 c61 -48 102 -86 97 -91 -9 -9 -94 -36 -144 -45 -16 -3 -28 -10 -28 -16 0 -6 26 -8 75 -4 42 3 77 1 81 -4 3 -5 -41 -84 -97 -177 -223 -365 -389 -644 -389 -653 0 -23 35 -2 64 38 43 58 627 783 636 788 6 4 520 -337 566 -376 13 -11 15 -34 13 -150 -2 -76 -1 -139 1 -142 14 -10 115 -47 131 -47 16 0 19 8 19 54 0 30 4 57 9 60 13 8 83 -117 115 -204 36 -103 40 -108 63 -88 47 41 86 52 180 51 69 -2 93 1 96 12 3 7 -10 46 -29 85 -19 39 -32 76 -28 81 3 5 87 9 188 9 168 0 184 -2 200 -19 l18 -20 -22 -65 c-12 -36 -19 -70 -15 -76 3 -5 30 -10 59 -10 43 0 57 4 76 25 l24 26 16 -19 c13 -16 136 -50 146 -40 2 2 -6 43 -17 91 -12 48 -18 94 -15 102 4 11 23 15 72 15 87 0 82 21 -9 36 -79 13 -93 23 -102 74 -4 21 -12 43 -18 48 -7 5 -62 12 -124 15 l-111 6 -164 132 c-89 72 -167 135 -172 139 -5 5 18 41 51 82 33 41 172 213 308 383 137 171 295 367 352 437 207 258 184 242 -318 -217 -552 -505 -684 -625 -691 -625 -5 0 -55 93 -112 208 l-103 207 78 290 c74 275 89 345 72 345 -5 0 -71 -126 -148 -281 -77 -154 -143 -282 -147 -285 -4 -2 -24 26 -44 63 -58 106 -51 102 -160 96 -89 -6 -95 -5 -100 14 -3 12 -50 47 -116 88 -60 38 -112 74 -115 81 -2 7 41 94 97 194 55 100 100 189 98 198 -2 10 -56 -43 -152 -148 -81 -91 -152 -167 -157 -168 -5 -2 -40 14 -77 36 -37 22 -191 93 -342 157 -151 64 -280 122 -286 129 -9 8 -1 40 32 126 103 275 304 839 304 854 0 9 -3 16 -7 16 -5 -1 -53 -59 -108 -130 -55 -72 -113 -147 -130 -169 -172 -222 -408 -522 -414 -525 -8 -5 -151 18 -457 74 -89 17 -172 30 -186 30 -23 0 -30 -11 -74 -126 l-49 -125 -62 -39 c-34 -22 -64 -36 -67 -31 -3 5 49 91 116 192 116 176 140 219 122 219 -4 0 -78 -70 -165 -156 l-157 -156 -24 34 c-14 18 -74 106 -134 196 -98 147 -124 179 -124 154 0 -5 43 -109 95 -231 52 -122 95 -228 95 -236 0 -7 -25 -36 -57 -65 l-56 -51 -17 18 c-14 15 -234 408 -425 758 -63 116 -274 493 -287 515 -14 21 -28 27 -28 10z m1680 -1119 c134 -42 248 -82 370 -131 92 -37 259 -97 520 -187 61 -21 220 -110 277 -156 10 -7 3 -21 -30 -59 -23 -27 -54 -63 -68 -80 l-26 -31 -114 31 c-124 35 -120 33 -367 209 -95 68 -180 123 -188 123 -9 0 -60 -25 -115 -55 -55 -30 -103 -55 -107 -55 -16 0 -49 47 -132 185 -46 77 -96 159 -111 181 -25 37 -28 54 -10 54 3 0 49 -13 101 -29z m-105 -211 c80 -74 141 -138 137 -142 -8 -8 -481 118 -496 132 -4 5 11 20 34 35 24 15 67 47 97 71 30 25 62 44 70 42 7 -2 79 -64 158 -138z m-580 -139 c7 -12 -12 -24 -25 -16 -11 7 -4 25 10 25 5 0 11 -4 15 -9z m2052 -252 c21 -13 31 -25 25 -31 -12 -12 -77 -22 -97 -14 -14 5 -14 8 0 36 18 36 27 37 72 9z m457 -258 l28 -29 -19 -10 c-11 -6 -72 -24 -135 -40 l-116 -29 -76 44 c-42 25 -73 49 -70 54 3 5 19 2 36 -7 37 -19 93 -14 218 21 108 30 101 30 134 -4z m-3731 -97 c3 -4 -19 -35 -50 -70 -53 -60 -57 -63 -75 -47 -29 26 -22 38 45 82 65 43 70 45 80 35z m3809 -181 c58 -94 63 -117 18 -82 -14 11 -67 49 -118 86 -51 37 -89 70 -85 74 5 4 24 10 43 12 78 10 80 8 142 -90z m-4024 -10 l22 -40 -21 -27 c-12 -15 -26 -25 -32 -23 -17 5 -37 109 -25 125 16 19 31 10 56 -35z m247 -41 c-11 -66 -14 -69 -40 -37 l-23 30 25 27 c33 34 45 27 38 -20z m-435 -86 c0 -29 -2 -55 -5 -58 -8 -8 -103 16 -115 28 -8 8 4 22 46 52 32 23 61 39 66 36 4 -3 8 -29 8 -58z m300 -88 c13 -26 18 -44 12 -50 -6 -6 -12 -6 -16 1 -4 6 -15 11 -25 11 -9 0 -25 6 -35 13 -17 12 -17 16 -2 51 19 45 32 40 66 -26z m64 -127 c24 -44 26 -55 15 -66 -37 -34 -448 -304 -453 -297 -4 7 55 83 174 223 22 26 46 62 53 80 8 19 22 51 30 71 l16 37 58 3 c80 5 75 8 107 -51z m4584 -63 c45 -39 79 -75 75 -79 -10 -9 -234 30 -251 44 -20 16 -54 86 -47 97 3 6 36 10 73 10 l67 0 83 -72z"/>
<path d="M4460 7012 c0 -4 70 -77 155 -162 85 -85 151 -158 146 -163 -4 -4 -143 33 -308 83 -293 88 -333 98 -333 83 0 -9 -1 -9 265 -130 116 -52 243 -110 283 -129 l74 -34 184 0 c101 0 184 4 184 9 0 11 -32 36 -214 161 -82 56 -170 117 -195 134 -107 75 -229 156 -235 156 -3 0 -6 -3 -6 -8z"/>
<path d="M6496 6415 c-16 -16 -170 -293 -356 -640 -62 -115 -128 -238 -147 -273 -19 -35 -33 -71 -31 -80 1 -10 -10 -31 -25 -47 -15 -17 -30 -38 -33 -47 -9 -29 -105 -192 -127 -216 -11 -12 -42 -36 -68 -53 -50 -31 -64 -54 -53 -83 4 -11 18 -16 43 -16 41 0 158 17 181 27 8 3 67 5 131 4 161 -4 206 4 214 37 9 37 -12 52 -91 63 -101 14 -134 44 -134 119 0 39 70 189 101 216 13 12 42 24 64 27 78 12 451 26 484 19 28 -6 41 -18 64 -57 16 -28 34 -53 40 -57 6 -3 12 -17 13 -30 2 -12 6 -45 9 -73 6 -46 4 -53 -25 -90 -21 -26 -40 -40 -56 -40 -30 -1 -41 -12 -26 -27 7 -7 12 -22 12 -35 0 -18 5 -23 28 -23 15 0 36 6 47 13 15 9 95 13 295 16 288 3 322 8 328 47 3 21 -10 30 -96 64 -30 11 -79 63 -95 100 -4 8 -20 38 -35 65 -16 28 -40 70 -54 95 -13 25 -65 117 -115 205 -49 88 -145 261 -212 385 -153 281 -212 383 -226 392 -16 12 -32 9 -49 -7z m-62 -454 c14 -22 60 -105 102 -186 67 -129 75 -149 62 -161 -11 -12 -58 -16 -206 -21 -168 -5 -192 -4 -197 10 -11 26 187 397 212 397 1 0 14 -18 27 -39z m517 -374 c-7 -7 -15 -6 -25 3 -22 17 -9 32 16 19 14 -8 17 -14 9 -22z m-975 -261 c8 -22 -11 -81 -27 -81 -21 0 -29 56 -11 78 18 21 31 22 38 3z"/>
<path d="M5399 6405 c-13 -12 -668 -24 -820 -15 -169 11 -192 7 -204 -31 -10 -30 19 -56 78 -69 65 -14 89 -29 118 -76 21 -34 23 -52 27 -188 2 -83 6 -158 9 -166 3 -8 7 -22 7 -30 1 -9 12 -14 31 -15 23 0 31 -5 33 -21 2 -11 -4 -26 -12 -33 -18 -15 -48 -7 -44 11 2 7 -2 15 -7 18 -7 3 -12 -128 -15 -375 -6 -426 -4 -415 -81 -477 -100 -80 -102 -83 -95 -111 3 -14 15 -29 26 -32 28 -9 161 24 186 46 13 12 24 15 30 9 6 -6 43 -4 101 5 50 7 154 17 230 21 157 8 179 13 195 50 11 23 10 29 -9 44 -12 10 -47 21 -77 24 -71 9 -117 40 -134 91 -20 60 -13 508 8 529 20 20 143 39 205 31 110 -14 154 -46 175 -125 15 -56 26 -70 56 -70 41 0 46 27 29 167 -12 95 -14 151 -7 218 10 103 7 122 -19 130 -30 10 -60 -14 -84 -68 -43 -98 -98 -128 -244 -135 -93 -4 -106 -3 -118 14 -10 13 -13 65 -13 210 0 223 4 249 38 272 35 23 301 24 376 3 71 -21 119 -72 137 -146 16 -68 35 -85 75 -66 l27 12 -7 139 c-6 138 -16 187 -39 202 -13 8 -161 11 -168 3z m-791 -88 c4 -21 -25 -34 -40 -19 -8 8 -8 16 2 27 16 19 34 15 38 -8z m306 -548 c-7 -12 -41 -11 -49 1 -4 6 -1 18 6 26 10 13 14 12 30 -2 10 -9 16 -21 13 -25z m-238 -103 c1 -30 -21 -45 -38 -28 -8 8 -8 18 0 38 15 32 37 26 38 -10z m199 -46 c-5 -8 -11 -8 -17 -2 -6 6 -7 16 -3 22 5 8 11 8 17 2 6 -6 7 -16 3 -22z m-168 -544 c-6 -17 -27 -18 -33 -2 -3 9 -3 24 1 34 6 16 7 16 21 -3 8 -10 13 -24 11 -29z m-13 -107 c-3 -5 -10 -7 -15 -3 -5 3 -7 10 -3 15 3 5 10 7 15 3 5 -3 7 -10 3 -15z"/>
<path d="M7611 6398 c-58 -21 -27 -68 58 -87 79 -17 117 -49 130 -111 15 -70 15 -856 0 -915 -13 -51 -31 -69 -108 -110 -59 -32 -75 -61 -46 -85 12 -10 42 -10 162 0 99 9 216 11 354 6 223 -7 234 -5 227 46 -2 18 -13 26 -48 36 -97 28 -134 47 -152 79 -18 29 -19 64 -19 524 l0 492 53 24 c114 51 126 64 92 98 -13 13 -28 16 -68 11 -105 -11 -464 -17 -538 -9 -42 5 -86 6 -97 1z"/>
<path d="M8716 6394 c-18 -17 -19 -23 -36 -149 -26 -188 -26 -183 4 -191 52 -13 74 2 93 63 22 71 73 127 128 142 22 6 86 11 143 11 l103 0 24 26 c23 25 45 25 45 2 0 -7 10 -22 22 -36 17 -18 25 -41 30 -95 4 -40 7 -76 7 -82 -1 -5 -3 -183 -5 -394 -3 -343 -5 -387 -21 -419 -26 -53 -58 -71 -158 -89 -101 -18 -115 -25 -115 -59 0 -47 30 -54 190 -43 146 10 345 2 543 -22 67 -8 91 -8 102 1 12 10 16 9 21 -4 4 -10 18 -16 35 -16 38 0 61 42 37 66 -13 13 -19 14 -37 2 -19 -12 -24 -10 -44 14 -12 14 -40 32 -62 38 -22 7 -57 26 -77 42 -55 43 -60 82 -59 470 0 226 -4 337 -11 346 -8 9 -8 16 0 24 8 8 12 48 12 104 0 130 8 139 126 136 151 -4 216 -13 267 -39 42 -21 52 -32 83 -98 36 -76 55 -92 101 -83 25 4 28 42 13 163 -15 123 -26 162 -50 175 -23 13 -450 -7 -465 -21 -12 -12 -52 -12 -60 1 -4 6 -90 10 -228 10 -122 0 -312 4 -422 9 -265 13 -261 13 -279 -5z m509 -33 c7 -12 -12 -24 -25 -16 -11 7 -4 25 10 25 5 0 11 -4 15 -9z m153 -267 c2 -10 13 -28 23 -40 18 -19 18 -22 4 -34 -12 -10 -26 -11 -53 -4 -34 8 -37 12 -34 39 7 54 52 84 60 39z m15 -835 c-6 -23 -26 -34 -43 -24 -8 5 -4 15 11 31 25 27 40 24 32 -7z"/>
<path d="M10469 6391 c-31 -25 -20 -68 19 -76 105 -22 153 -52 171 -108 7 -20 12 -218 15 -522 l4 -490 -22 -34 c-14 -22 -44 -44 -86 -65 -71 -34 -85 -59 -52 -90 15 -13 34 -16 82 -14 66 3 70 6 87 63 14 48 38 38 38 -15 l0 -45 30 -3 c129 -11 319 -35 360 -46 121 -33 155 -28 155 23 0 34 -21 50 -98 76 -68 22 -116 69 -131 128 -6 27 -11 130 -11 251 l0 206 21 21 c20 20 29 21 103 16 44 -4 167 -11 271 -17 213 -12 243 -16 268 -38 15 -14 17 -39 17 -266 -1 -199 -4 -256 -15 -276 -21 -37 -18 -47 17 -59 24 -9 29 -14 20 -23 -9 -9 -20 -8 -48 5 l-36 18 -54 -25 c-55 -25 -73 -57 -39 -70 8 -3 15 -12 15 -21 0 -8 1 -15 3 -16 1 0 76 -5 167 -9 159 -8 263 -24 445 -69 71 -18 82 -19 102 -5 49 32 25 70 -73 118 -78 38 -118 78 -133 134 -6 22 -11 239 -11 534 -1 301 -5 500 -11 504 -5 3 -6 10 -3 16 4 6 9 31 11 56 5 68 30 103 99 138 60 31 73 49 56 81 -9 17 -32 18 -363 17 l-353 -1 -13 -20 c-26 -38 -6 -55 94 -82 53 -15 96 -57 112 -112 14 -45 17 -381 4 -402 -6 -10 -180 -6 -516 11 -111 6 -131 10 -143 26 -11 16 -14 61 -14 205 0 227 5 241 95 286 61 30 76 53 55 85 -7 12 -26 14 -92 10 -122 -7 -528 -6 -565 2 -23 5 -38 2 -54 -11z m1341 -60 c7 -14 7 -22 -1 -27 -13 -8 -41 24 -33 37 9 15 23 10 34 -10z m-1084 -1143 c-1 -41 -21 -44 -22 -3 -1 34 4 47 15 40 5 -2 8 -19 7 -37z"/>
<path d="M10474 6108 c3 -13 6 -26 6 -30 0 -5 5 -8 10 -8 17 0 11 47 -6 54 -13 5 -15 2 -10 -16z"/>
<path d="M5660 5883 c-19 -10 -38 -22 -42 -28 -12 -17 -9 -92 5 -102 6 -6 60 -36 119 -67 l107 -57 20 20 c21 21 36 62 29 79 -4 13 -186 172 -195 172 -4 0 -24 -8 -43 -17z"/>
<path d="M10235 5836 c-115 -18 -252 -39 -303 -46 -94 -13 -131 -28 -118 -48 8 -13 247 -14 526 -3 l155 6 3 54 c3 55 -6 72 -38 70 -8 -1 -109 -16 -225 -33z"/>
<path d="M10220 5636 c0 -4 216 -300 253 -348 8 -10 17 -18 21 -18 4 0 5 39 4 87 l-3 87 -125 98 c-109 85 -150 111 -150 94z"/>
<path d="M5575 5346 c-77 -80 -169 -98 -261 -51 l-49 25 -15 -19 c-8 -11 -23 -31 -32 -44 -13 -18 -23 -23 -46 -19 -39 5 -49 -20 -19 -49 36 -34 148 -83 194 -84 55 -1 73 -18 73 -69 0 -32 -6 -48 -25 -66 -17 -16 -25 -34 -25 -57 0 -43 -29 -99 -72 -139 -60 -57 -85 -64 -266 -74 l-167 -10 -117 -57 c-65 -32 -118 -61 -118 -65 0 -16 72 -6 295 41 l230 49 95 -33 c263 -91 415 -146 421 -152 23 -26 120 -216 113 -223 -5 -4 -132 37 -283 91 -151 55 -280 99 -288 99 -7 0 -13 -4 -13 -10 0 -5 5 -10 11 -10 6 0 23 -8 37 -18 15 -11 90 -52 167 -92 77 -40 167 -87 200 -105 33 -18 96 -51 140 -75 44 -23 86 -48 93 -54 11 -11 -6 -41 -94 -167 -99 -143 -126 -189 -110 -189 4 0 25 9 47 21 l41 20 54 -25 c30 -14 56 -26 59 -26 2 0 36 -15 77 -34 40 -18 123 -55 183 -81 113 -50 195 -111 180 -135 -4 -6 -35 -24 -69 -40 -33 -15 -137 -63 -231 -105 -248 -113 -255 -116 -255 -127 0 -13 2 -13 310 52 135 28 273 57 307 64 59 12 66 11 120 -12 32 -13 65 -33 75 -45 10 -13 29 -22 50 -23 18 -1 72 -20 121 -43 78 -38 87 -45 87 -69 -1 -60 -20 -105 -74 -171 -31 -37 -56 -71 -56 -75 0 -12 22 -6 51 15 23 16 30 18 34 7 3 -8 -8 -94 -25 -191 -42 -248 -40 -287 12 -184 25 49 63 119 210 395 33 62 66 116 73 118 7 3 47 -10 87 -29 67 -31 81 -42 132 -111 32 -42 56 -82 53 -89 -3 -6 -45 -27 -93 -45 -85 -32 -132 -57 -123 -66 2 -3 64 8 137 23 l133 28 32 -36 c18 -20 40 -47 50 -61 14 -20 19 -22 26 -11 5 8 7 30 3 50 -12 77 -15 74 78 97 154 37 149 37 161 6 30 -78 31 -76 -115 -280 -75 -105 -139 -198 -142 -206 -11 -29 12 -17 82 42 232 193 234 194 248 183 8 -7 17 -27 20 -46 12 -63 31 -37 61 80 12 50 22 67 62 103 31 28 57 42 75 42 23 0 350 -72 384 -84 8 -3 -8 -73 -47 -213 -97 -339 -95 -363 10 -185 36 59 100 164 144 234 74 120 81 128 120 139 220 59 369 94 372 88 3 -4 -12 -49 -34 -100 -21 -52 -41 -107 -45 -124 l-6 -30 25 30 c14 17 60 82 101 146 l76 116 102 27 c116 31 116 31 371 -28 152 -36 195 -42 195 -28 0 4 -56 48 -125 97 -69 49 -125 92 -125 95 0 8 157 120 169 120 5 0 54 -83 108 -185 54 -102 101 -185 106 -185 14 0 6 45 -44 242 -48 189 -56 258 -25 216 6 -9 50 -165 96 -347 47 -182 88 -331 92 -331 15 0 19 74 26 425 l7 360 76 115 c117 178 231 299 364 385 60 40 153 100 205 134 l95 63 93 -6 c50 -4 92 -3 92 2 0 4 -20 16 -45 27 -25 10 -48 22 -50 26 -3 3 51 44 120 89 69 45 128 86 131 91 14 23 -9 18 -102 -24 -253 -112 -274 -120 -312 -114 -72 12 -70 22 36 148 53 63 139 165 190 226 l93 111 62 -19 c58 -18 69 -27 180 -144 109 -115 137 -139 137 -117 0 4 -25 46 -55 92 -31 46 -52 86 -48 90 4 4 53 -8 108 -26 55 -18 109 -33 120 -33 17 -1 17 1 5 13 -13 13 -203 125 -300 178 -42 23 -90 76 -90 99 0 34 35 48 189 73 84 14 156 27 159 31 7 6 -22 29 -65 50 -37 18 -96 20 -125 4 -30 -16 -131 -14 -208 5 -119 28 -282 46 -421 46 -115 0 -138 -2 -143 -16 -3 -8 -15 -95 -27 -192 -20 -174 -26 -193 -61 -204 -6 -2 -11 -24 -13 -49 -6 -85 -121 -285 -217 -375 -58 -55 -179 -145 -188 -139 -3 2 -12 77 -19 167 -7 90 -15 174 -17 186 -9 42 -30 7 -43 -70 -16 -90 -69 -300 -79 -310 -4 -4 -52 52 -107 124 -286 373 -311 405 -320 396 -7 -6 31 -77 127 -237 37 -62 68 -115 68 -116 0 -2 38 -67 85 -146 47 -78 85 -148 85 -154 0 -7 -62 -54 -137 -105 -76 -52 -212 -145 -303 -208 -91 -64 -198 -133 -239 -155 l-73 -40 -192 6 c-105 3 -256 2 -336 -3 -150 -8 -158 -7 -174 34 -2 6 -11 1 -21 -11 -10 -14 -27 -23 -43 -23 -38 0 -219 45 -272 68 -25 11 -53 22 -64 26 -29 10 -7 27 117 91 138 72 187 102 187 116 0 6 -7 8 -15 5 -9 -3 -96 -24 -193 -47 -125 -28 -210 -42 -288 -46 l-111 -6 -174 73 c-96 40 -268 111 -384 157 -188 77 -477 221 -514 258 -13 12 -13 15 0 20 32 12 264 75 276 75 22 0 15 17 -9 24 -13 3 -120 6 -239 6 l-215 0 -31 33 c-25 25 -33 44 -38 90 -6 47 -16 70 -51 118 -24 32 -44 63 -44 69 0 5 29 26 65 47 36 20 65 41 65 46 0 5 -49 8 -110 6 l-109 -4 -45 44 c-38 38 -52 63 -103 198 -32 85 -65 159 -73 163 -9 5 -43 2 -80 -7 -71 -17 -164 -18 -222 -2 -116 30 -176 175 -119 289 48 97 61 115 80 112 11 -2 35 12 56 32 l38 36 -7 52 c-7 53 -21 89 -34 87 -4 0 -29 -24 -57 -53z m416 -1148 c160 -182 221 -273 282 -423 9 -22 28 -59 42 -82 15 -25 21 -44 15 -48 -12 -7 -42 36 -119 170 -32 55 -79 138 -106 185 -33 58 -81 118 -148 187 -54 56 -96 107 -92 113 9 14 60 -27 126 -102z m54 -421 c35 -44 62 -84 60 -87 -3 -4 -67 10 -142 31 -76 21 -146 38 -155 39 -9 0 -20 5 -23 10 -7 11 175 100 188 92 5 -2 37 -40 72 -85z m4169 -28 c-3 -5 -10 -7 -15 -3 -5 3 -7 10 -3 15 3 5 10 7 15 3 5 -3 7 -10 3 -15z m-3489 -127 c223 -124 260 -149 244 -168 -6 -8 -17 -14 -24 -14 -6 0 -40 -9 -75 -21 -75 -24 -88 -17 -64 34 10 20 15 40 11 43 -3 4 -26 -5 -51 -20 l-45 -26 -46 70 c-26 39 -75 102 -111 139 -62 66 -73 92 -30 69 11 -6 98 -54 191 -106z m329 -280 c3 -5 -8 -22 -25 -38 -24 -23 -33 -26 -47 -18 -9 6 -17 17 -17 25 0 25 76 51 89 31z m468 -56 c304 -115 408 -156 547 -218 79 -34 144 -67 145 -73 2 -18 -543 -18 -628 -1 -196 41 -476 160 -447 190 31 31 208 154 223 155 9 1 81 -23 160 -53z m2302 -10 c-52 -45 -69 -50 -69 -23 0 19 93 79 109 70 4 -3 -13 -24 -40 -47z m-207 -141 c10 -22 13 -39 7 -44 -43 -43 -377 -190 -389 -172 -2 4 6 23 19 42 22 31 72 63 300 192 41 23 44 22 63 -18z m-533 -158 c17 -13 17 -15 2 -45 -9 -18 -18 -32 -19 -32 -24 3 -112 40 -115 48 -5 15 47 41 84 42 16 0 38 -6 48 -13z m-1578 -81 l19 -15 -37 -15 c-21 -9 -40 -16 -42 -16 -10 0 -27 41 -21 50 9 15 58 12 81 -4z m1135 -76 c-6 -80 -6 -80 -117 -55 -75 16 -101 26 -112 44 -23 33 -7 41 104 50 136 11 130 14 125 -39z m240 12 c63 -9 117 -21 120 -27 4 -9 -133 -32 -202 -34 -30 -1 -64 40 -55 65 6 17 -5 17 137 -4z m-551 -34 c0 -11 -45 -28 -75 -28 -13 0 -36 5 -51 10 -37 15 -19 32 49 45 43 9 54 8 65 -4 6 -8 12 -19 12 -23z"/>
<path d="M8258 4670 l-23 -18 18 -31 c16 -28 16 -33 2 -60 -22 -44 -1 -49 40 -8 36 36 44 71 25 106 -15 28 -37 32 -62 11z"/>
<path d="M8470 4623 c-91 -5 -98 -8 -71 -36 19 -21 21 -34 21 -135 0 -67 -4 -113 -11 -117 -5 -4 -9 -14 -7 -23 2 -12 19 -16 78 -18 101 -3 147 10 191 55 62 61 72 138 28 210 -31 52 -97 70 -229 64z m120 -53 c10 -5 26 -30 35 -54 31 -81 3 -161 -63 -181 -43 -13 -52 8 -52 125 0 58 3 110 7 113 10 10 52 8 73 -3z"/>
<path d="M7420 4612 c0 -5 9 -17 20 -27 18 -16 20 -31 20 -124 0 -82 -4 -112 -16 -129 -9 -13 -14 -26 -11 -28 3 -3 35 -6 72 -7 74 -2 95 12 56 40 -17 11 -21 23 -19 51 2 21 7 36 13 36 5 -1 25 -28 45 -59 39 -64 70 -82 113 -66 28 11 37 41 13 41 -7 0 -29 24 -49 54 l-35 53 29 26 c44 38 35 112 -18 136 -28 13 -233 15 -233 3z m174 -41 c33 -37 4 -104 -38 -88 -29 11 -17 107 14 107 4 0 15 -9 24 -19z"/>
<path d="M7860 4605 c0 -9 7 -18 15 -21 8 -3 35 -35 61 -71 l46 -64 -23 -27 c-12 -15 -43 -46 -68 -69 -25 -23 -42 -45 -39 -48 10 -10 119 -11 125 -2 3 5 -1 20 -8 33 -11 22 -10 27 12 50 l25 24 23 -31 c20 -27 22 -35 12 -52 -7 -10 -10 -21 -7 -24 7 -7 146 -6 153 1 3 3 -10 23 -29 44 -19 21 -49 59 -67 86 l-33 48 65 63 c36 35 63 66 60 69 -9 8 -123 8 -123 -1 0 -3 8 -15 17 -25 16 -18 15 -20 -11 -46 l-27 -27 -20 25 c-14 17 -19 33 -15 52 l6 28 -75 0 c-61 0 -75 -3 -75 -15z"/>
</g>
</g>
  <g id="id5:id5" transform="matrix(1.25,0,0,1.25,0.0,0.0)"><g transform="translate(0.000000,464.000000) scale(0.040000,-0.040000)" fill="#4f4f4f" stroke="none">
<path d="M6740 7890 c0 -5 11 -10 25 -10 14 0 25 5 25 10 0 6 -11 10 -25 10 -14 0 -25 -4 -25 -10z"/>
<path d="M6500 6160 c-13 -9 -13 -11 0 -20 13 -8 47 -5 59 6 14 13 -41 25 -59 14z"/>
<path d="M11916 5943 c-3 -10 -9 -24 -12 -30 -3 -8 2 -13 14 -13 22 0 34 22 26 45 -8 20 -20 19 -28 -2z"/>
<path d="M10850 5940 c-11 -7 -11 -11 -1 -24 18 -22 41 -20 41 3 0 22 -21 33 -40 21z"/>
<path d="M10920 5930 c0 -5 7 -10 15 -10 8 0 15 5 15 10 0 6 -7 10 -15 10 -8 0 -15 -4 -15 -10z"/>
<path d="M6640 5850 c0 -5 5 -10 10 -10 6 0 10 5 10 10 0 6 -4 10 -10 10 -5 0 -10 -4 -10 -10z"/>
<path d="M8236 5756 c-13 -21 -16 -54 -16 -181 0 -116 3 -155 13 -156 6 -1 19 -3 27 -4 8 0 23 -5 33 -9 11 -5 29 -4 43 2 l24 12 0 158 c0 181 -4 193 -67 199 -34 3 -43 0 -57 -21z"/>
<path d="M6960 5150 c0 -5 5 -10 10 -10 6 0 10 5 10 10 0 6 -4 10 -10 10 -5 0 -10 -4 -10 -10z"/>
<path d="M10760 4545 c-13 -16 -6 -35 15 -35 15 0 45 27 45 41 0 15 -46 10 -60 -6z"/>
</g>
</g>
  <g id="id6:id6" transform="matrix(1.25,0,0,1.25,0.0,0.0)"><g transform="translate(0.000000,464.000000) scale(0.040000,-0.040000)" fill="#323232" stroke="none">
<path d="M5534 6629 l-31 -30 -179 -5 c-98 -3 -186 -7 -194 -10 -8 -3 -94 -7 -190 -9 l-175 -3 -67 28 -67 28 -17 -19 c-15 -17 -33 -19 -138 -20 -102 0 -126 -4 -151 -20 -16 -11 -38 -22 -47 -25 -24 -8 -88 -99 -88 -123 0 -11 -4 -23 -10 -26 -16 -10 -12 -66 10 -125 22 -63 99 -144 146 -156 16 -4 39 -14 52 -22 l23 -15 -3 -481 c-3 -541 1 -508 -79 -563 -62 -41 -100 -118 -101 -200 0 -37 6 -76 15 -96 23 -46 100 -118 144 -133 43 -15 149 -19 157 -5 3 5 20 11 38 14 18 3 46 9 61 13 20 5 33 1 48 -12 l20 -18 70 37 70 38 169 9 c159 9 173 11 229 40 83 41 141 124 141 199 0 18 7 35 18 41 12 8 14 13 4 17 -19 8 -56 84 -56 118 -1 23 -5 29 -19 27 -19 -3 -129 47 -164 75 -20 17 -22 26 -20 125 1 60 6 109 11 110 5 2 23 -24 40 -57 28 -52 39 -64 91 -90 111 -56 217 -36 300 57 24 26 46 42 57 40 20 -4 24 8 7 25 -6 6 -12 57 -14 114 -1 57 -6 121 -10 142 -5 26 -3 47 6 63 10 19 10 27 1 36 -7 7 -12 29 -12 50 0 31 5 40 30 53 16 8 36 15 45 15 17 0 20 16 4 25 -5 4 -8 12 -6 18 8 23 -33 67 -62 67 -15 0 -31 3 -35 7 -4 4 -23 8 -43 10 -20 1 -42 4 -49 7 -16 6 -44 70 -44 98 0 33 -47 84 -92 99 -27 9 -86 14 -158 14 -129 0 -166 -12 -189 -59 -15 -33 -28 -271 -17 -330 l7 -36 52 0 c57 0 137 21 175 46 13 9 34 39 47 69 28 62 66 95 109 95 77 0 84 -24 91 -300 2 -96 6 -204 7 -240 l3 -65 -60 3 c-79 5 -100 20 -119 86 -25 84 -50 99 -156 94 -87 -4 -130 -20 -146 -56 -10 -21 -18 -395 -10 -425 12 -43 33 -58 96 -68 73 -12 117 -32 123 -56 15 -52 17 -130 5 -140 -7 -6 -67 -14 -133 -17 -216 -13 -295 -25 -531 -83 -12 -3 -53 0 -90 6 -79 12 -103 34 -104 92 0 41 20 66 92 116 56 38 76 74 86 151 6 39 12 56 21 54 37 -8 41 15 41 233 0 174 3 215 15 225 9 7 12 22 9 40 -4 15 -1 31 5 34 17 11 13 29 -4 22 -24 -9 -30 22 -10 44 14 16 15 22 5 35 -10 12 -9 16 5 22 11 4 22 0 30 -10 19 -26 24 -20 22 28 l-2 44 -35 3 -35 3 -3 65 c-3 68 -14 92 -41 88 -12 -2 -17 10 -23 60 -4 34 -10 71 -13 81 -9 28 -75 69 -123 77 -84 13 -118 95 -64 153 l27 30 345 -7 c282 -6 344 -9 342 -21 -6 -26 20 -41 72 -41 62 0 97 20 78 43 -7 9 -9 18 -4 21 5 3 90 8 188 12 l179 7 18 -21 c26 -29 44 -110 52 -232 7 -102 15 -130 39 -130 15 0 34 45 40 95 3 27 13 47 31 60 22 19 25 28 25 88 0 123 -43 205 -139 260 -36 21 -57 41 -61 57 -8 34 -21 34 -56 -1z"/>
<path d="M11072 6625 c-27 -34 -33 -36 -95 -38 -37 -2 -72 -8 -79 -15 -7 -7 -18 -12 -26 -12 -14 0 -14 -22 -1 -70 3 -11 -7 -16 -41 -20 l-45 -5 35 -37 c32 -34 40 -37 97 -40 67 -3 83 3 63 27 -16 19 -8 22 102 30 56 4 95 2 108 -5 24 -13 50 -60 50 -92 0 -13 1 -34 2 -47 2 -18 -4 -28 -22 -36 -14 -7 -38 -19 -55 -26 -16 -8 -40 -30 -52 -48 -22 -32 -23 -44 -23 -192 l0 -159 23 -4 c12 -3 93 -7 180 -10 87 -3 162 -8 168 -12 7 -4 6 -11 -2 -20 -14 -17 4 -44 31 -44 28 0 45 27 30 45 -7 8 -9 15 -4 16 5 0 41 1 79 2 l70 2 0 175 c0 217 -7 234 -101 264 -100 31 -102 33 -115 75 -10 34 -9 44 5 65 32 50 58 59 133 48 38 -5 151 -10 252 -11 101 -1 188 -4 192 -7 5 -2 6 -11 3 -18 -7 -18 15 -31 28 -18 8 8 7 16 -2 26 -15 19 -9 22 76 30 52 6 65 4 94 -16 27 -18 35 -31 36 -57 1 -18 8 -44 15 -57 10 -20 10 -27 -6 -44 -10 -12 -37 -29 -60 -39 -27 -12 -51 -33 -66 -57 l-24 -39 0 -545 c0 -634 -9 -581 109 -635 40 -18 82 -45 93 -59 24 -30 40 -143 24 -159 -10 -10 -93 2 -221 33 -134 32 -190 41 -305 46 -147 6 -247 20 -288 41 -28 14 -47 48 -47 85 0 25 67 88 93 88 10 0 34 15 53 34 l34 34 0 241 0 241 -22 4 c-13 3 -113 10 -223 16 -110 6 -218 13 -239 15 -39 4 -74 -8 -88 -29 -4 -6 -8 -106 -8 -222 l0 -212 35 -31 c20 -17 55 -36 79 -42 66 -16 111 -58 113 -105 1 -22 5 -51 9 -66 11 -48 4 -48 -291 6 -88 17 -99 13 -108 -37 -4 -17 -9 -42 -13 -54 -5 -18 -2 -23 12 -23 9 0 25 -6 33 -14 9 -8 64 -24 123 -36 108 -23 113 -23 281 -3 41 4 54 1 86 -21 59 -41 95 -49 261 -57 85 -4 184 -12 220 -18 36 -7 82 -14 103 -17 20 -4 40 -10 43 -15 3 -5 19 -9 35 -9 17 0 39 -5 51 -11 33 -18 175 -14 197 5 10 9 22 16 27 16 21 0 78 67 101 118 12 29 23 68 23 87 0 99 -68 194 -176 246 l-64 31 0 508 0 508 60 43 c33 24 60 50 60 56 0 7 9 27 20 45 27 44 27 135 1 186 -22 41 -80 98 -128 125 -28 15 -70 17 -426 17 -426 0 -425 0 -477 -55 -29 -31 -41 -31 -70 0 -13 14 -49 32 -79 41 -81 23 -106 37 -109 62 -5 31 -16 28 -50 -13z"/>
<path d="M11634 6409 c-10 -17 13 -36 27 -22 12 12 4 33 -11 33 -5 0 -12 -5 -16 -11z"/>
<path d="M12225 6380 c-4 -6 -3 -16 3 -22 6 -6 12 -6 17 2 4 6 3 16 -3 22 -6 6 -12 6 -17 -2z"/>
<path d="M10865 6280 c-8 -13 3 -30 20 -30 20 0 30 21 14 31 -18 11 -26 11 -34 -1z"/>
<path d="M10880 6211 c0 -13 31 -19 68 -13 50 7 38 22 -18 22 -27 0 -50 -4 -50 -9z"/>
<path d="M10840 6170 c0 -5 9 -10 20 -10 11 0 20 5 20 10 0 6 -9 10 -20 10 -11 0 -20 -4 -20 -10z"/>
<path d="M6140 6050 c0 -5 5 -10 10 -10 6 0 10 5 10 10 0 6 -4 10 -10 10 -5 0 -10 -4 -10 -10z"/>
<path d="M4660 5750 c0 -5 7 -10 15 -10 8 0 15 5 15 10 0 6 -7 10 -15 10 -8 0 -15 -4 -15 -10z"/>
<path d="M4680 5685 c0 -8 5 -15 10 -15 6 0 10 7 10 15 0 8 -4 15 -10 15 -5 0 -10 -7 -10 -15z"/>
<path d="M4680 5630 c0 -5 5 -10 10 -10 6 0 10 5 10 10 0 6 -4 10 -10 10 -5 0 -10 -4 -10 -10z"/>
<path d="M4724 5564 c4 -9 1 -23 -5 -30 -13 -16 4 -44 27 -44 22 0 25 18 10 55 -14 34 -45 52 -32 19z"/>
<path d="M5860 5550 c0 -5 5 -10 10 -10 6 0 10 5 10 10 0 6 -4 10 -10 10 -5 0 -10 -4 -10 -10z"/>
<path d="M5621 5229 c-16 -10 -42 -17 -58 -16 -23 2 -29 -3 -31 -23 -2 -14 -12 -36 -22 -50 -119 -168 -11 -380 193 -380 19 0 40 -7 47 -15 16 -19 30 -10 30 19 0 12 5 27 11 33 8 8 7 17 -5 34 -10 15 -12 26 -6 35 21 25 -1 41 -73 52 -78 12 -97 27 -97 74 0 38 22 70 71 103 33 22 40 31 34 48 -7 23 -12 51 -14 78 -2 25 -46 29 -80 8z"/>
<path d="M11640 5016 c0 -8 5 -18 10 -21 13 -8 42 14 34 26 -9 15 -44 10 -44 -5z"/>
<path d="M5488 4743 c-28 -7 -21 -21 13 -28 33 -7 56 5 45 24 -7 11 -27 12 -58 4z"/>
<path d="M4605 4560 c-4 -7 -3 -16 3 -22 14 -14 45 -2 40 15 -6 16 -34 21 -43 7z"/>
<path d="M10540 3910 c-11 -11 -20 -25 -20 -31 0 -14 46 -4 80 18 l24 16 -19 8 c-32 12 -44 10 -65 -11z"/>
</g>
</g>
</svg>
