<?xml version="1.0" standalone="no"?>
<!DOCTYPE svg PUBLIC "-//W3C//DTD SVG 1.1//EN"
 "http://www.w3.org/Graphics/SVG/1.1/DTD/svg11.dtd">
<!-- Created with svg_stack (http://github.com/astraw/svg_stack) -->
<svg xmlns:sodipodi="http://sodipodi.sourceforge.net/DTD/sodipodi-0.dtd" xmlns="http://www.w3.org/2000/svg" version="1.1" width="204.0" height="210.0">
  <defs/>
  <g id="id0:id0" transform="matrix(1.25,0,0,1.25,0.0,0.0)"><g transform="translate(0.000000,168.000000) scale(0.040000,-0.040000)" fill="#80561b" stroke="none">
<path d="M2865 4040 c-55 -55 -105 -100 -112 -100 -7 0 -13 -7 -13 -15 0 -9 -10 -19 -22 -24 -13 -5 -57 -43 -98 -85 -41 -42 -79 -76 -85 -76 -6 0 -24 -13 -40 -30 -16 -16 -34 -30 -40 -30 -6 0 -24 -13 -40 -30 -16 -16 -34 -30 -40 -30 -7 0 -20 -9 -30 -20 -10 -11 -23 -20 -30 -20 -6 0 -29 -18 -50 -40 -21 -22 -44 -40 -50 -40 -14 0 -215 -202 -215 -216 0 -6 -9 -19 -20 -29 -11 -10 -20 -24 -20 -30 0 -7 -7 -18 -15 -25 -18 -15 -65 -109 -65 -131 0 -10 -4 -21 -10 -24 -5 -3 -10 -21 -10 -40 0 -19 -4 -37 -10 -40 -5 -3 -10 -26 -10 -49 0 -25 -6 -49 -14 -55 -21 -18 -46 29 -46 88 0 27 -4 53 -10 56 -5 3 -10 15 -10 25 0 11 -9 35 -20 55 -11 20 -20 44 -20 55 0 10 -4 22 -10 25 -5 3 -10 15 -10 25 0 11 -9 35 -20 55 -11 20 -20 42 -20 49 0 17 -28 74 -41 81 -5 4 -18 25 -29 49 -10 23 -26 49 -35 56 -8 7 -15 18 -15 24 0 15 -62 76 -77 76 -6 0 -16 7 -23 15 -7 8 -41 29 -75 45 -34 16 -68 37 -75 45 -7 8 -18 15 -24 15 -6 0 -65 54 -131 120 -66 66 -123 120 -127 120 -5 0 -8 -24 -8 -54 0 -30 -4 -58 -10 -61 -5 -3 -10 -17 -10 -29 0 -13 -7 -29 -15 -36 -17 -14 -45 -67 -45 -86 0 -7 -9 -29 -20 -49 -11 -20 -20 -44 -20 -55 0 -10 -4 -22 -10 -25 -6 -3 -10 -17 -10 -30 0 -13 -5 -27 -10 -30 -6 -3 -10 -21 -10 -40 0 -19 -4 -37 -10 -40 -5 -3 -10 -21 -10 -40 0 -19 -4 -37 -10 -40 -6 -4 -10 -60 -10 -135 0 -75 4 -131 10 -135 6 -3 10 -17 10 -30 0 -13 4 -27 10 -30 6 -3 10 -17 10 -30 0 -13 5 -27 10 -30 6 -3 10 -15 10 -25 0 -11 9 -35 20 -55 11 -20 20 -41 20 -48 0 -19 49 -113 65 -127 8 -7 15 -17 15 -23 0 -6 23 -35 52 -64 41 -41 50 -55 40 -65 -9 -9 -15 -9 -24 0 -15 15 -404 17 -413 2 -3 -6 -21 -10 -40 -10 -19 0 -37 -4 -40 -10 -3 -5 -17 -10 -30 -10 -13 0 -27 -4 -30 -10 -3 -6 -21 -10 -40 -10 -19 0 -37 -4 -40 -10 -3 -5 -17 -10 -30 -10 -13 0 -27 -4 -30 -10 -3 -5 -21 -10 -40 -10 -19 0 -37 -4 -40 -10 -3 -5 -26 -10 -50 -10 -24 0 -47 -4 -50 -10 -3 -6 -35 -10 -71 -10 -36 0 -64 -4 -64 -10 0 -5 6 -10 13 -10 15 0 387 -371 387 -386 0 -5 16 -26 36 -45 20 -18 40 -44 45 -57 5 -12 17 -25 26 -29 10 -3 39 -26 64 -50 46 -44 168 -113 200 -113 10 0 21 -4 24 -10 3 -5 39 -10 80 -10 41 0 77 -5 80 -10 3 -5 42 -10 85 -10 43 0 82 5 85 10 3 6 39 10 80 10 41 0 77 4 80 10 3 5 26 10 50 10 24 0 47 4 50 10 3 5 26 10 50 10 24 0 47 4 50 10 3 5 39 10 79 10 39 0 77 5 82 10 7 7 21 5 42 -6 33 -16 40 -28 22 -39 -5 -3 -10 -15 -10 -25 0 -11 -9 -35 -20 -55 -11 -20 -20 -41 -20 -48 0 -8 -31 -76 -70 -152 -38 -76 -70 -144 -70 -150 0 -15 -29 -73 -40 -80 -4 -3 -41 -70 -80 -150 -39 -80 -76 -147 -81 -150 -4 -3 -22 -35 -39 -70 -17 -35 -35 -67 -41 -71 -6 -3 -15 -18 -20 -32 -9 -24 -11 -24 -26 -9 -14 14 -15 22 -5 55 7 22 12 49 12 62 0 12 14 42 30 67 36 52 36 55 10 78 -11 10 -20 22 -20 28 0 5 -8 21 -19 35 -20 29 -35 97 -33 147 2 39 -3 46 -67 75 -39 18 -65 40 -97 81 -24 32 -44 62 -44 67 0 15 -33 20 -84 15 -67 -8 -110 4 -162 43 l-46 35 -26 -23 c-15 -13 -31 -28 -37 -34 -34 -36 -70 -47 -153 -46 -54 0 -85 -4 -87 -12 -22 -81 -33 -101 -76 -140 -27 -24 -61 -46 -78 -49 l-29 -6 1 -105 1 -104 -37 -41 c-20 -23 -37 -45 -37 -49 0 -4 13 -23 28 -42 50 -61 67 -108 65 -182 l-1 -66 61 -31 c34 -17 68 -31 74 -31 12 0 25 -20 61 -97 l20 -42 96 2 c64 1 100 -3 108 -11 7 -7 19 -12 28 -12 9 0 25 -9 35 -20 10 -11 23 -20 29 -20 6 0 36 20 66 45 30 25 62 45 70 45 9 0 21 5 27 11 8 8 17 8 33 -1 l22 -12 -43 -44 c-24 -24 -48 -44 -55 -44 -6 0 -19 -9 -29 -20 -10 -11 -23 -20 -30 -20 -7 0 -20 -9 -30 -20 -10 -11 -23 -20 -30 -20 -7 0 -20 -9 -30 -20 -10 -11 -23 -20 -30 -20 -6 0 -22 -11 -34 -24 -20 -21 -21 -27 -9 -47 22 -40 91 -109 109 -109 9 0 24 9 34 20 10 11 23 20 29 20 7 0 34 22 61 50 27 27 54 50 60 50 6 0 37 27 70 60 33 33 64 60 69 60 14 0 96 82 96 95 0 6 23 33 50 60 28 27 50 54 50 61 0 6 9 19 20 29 11 10 20 24 20 30 0 7 6 18 14 24 15 13 366 709 366 726 0 5 39 88 86 182 62 125 91 173 104 173 18 0 50 -30 50 -46 0 -6 13 -23 30 -39 17 -16 30 -34 30 -40 0 -6 14 -24 30 -40 16 -16 30 -34 30 -40 0 -6 22 -33 50 -60 27 -27 50 -54 50 -59 0 -14 202 -216 216 -216 6 0 19 -9 29 -20 10 -11 23 -20 30 -20 6 0 24 -13 40 -30 16 -17 39 -30 51 -30 13 0 26 -5 29 -10 3 -6 17 -10 30 -10 13 0 27 -4 30 -10 3 -5 26 -10 50 -10 24 0 47 -4 50 -10 4 -6 57 -10 125 -10 68 0 121 4 125 10 3 6 35 10 70 10 35 0 67 5 70 10 3 6 26 10 50 10 24 0 47 5 50 10 4 6 85 10 211 10 112 0 204 3 204 8 0 4 -36 43 -80 87 -44 44 -80 84 -80 90 0 6 -13 24 -30 40 -16 16 -30 34 -30 41 0 6 -7 17 -15 24 -9 7 -25 32 -35 55 -10 23 -26 48 -35 55 -8 7 -15 18 -15 24 0 7 -13 25 -30 41 -16 16 -30 34 -30 40 0 14 -62 75 -76 75 -6 0 -26 16 -45 36 -18 19 -53 44 -76 55 -23 10 -44 23 -48 28 -7 13 -64 41 -82 41 -7 0 -21 4 -31 9 -9 5 -25 12 -36 15 -15 5 -16 9 -6 21 8 10 31 15 66 15 29 0 56 5 59 10 3 6 21 10 40 10 19 0 37 5 40 10 3 6 15 10 25 10 11 0 35 9 55 20 20 11 42 20 49 20 8 0 40 14 71 30 31 17 63 30 69 30 22 0 71 28 96 55 13 14 28 25 34 25 14 0 156 142 156 156 0 6 9 19 20 29 11 10 20 23 20 30 0 7 9 20 20 30 11 10 20 23 20 29 0 22 175 182 225 206 28 13 58 31 68 39 9 8 27 19 39 25 45 23 33 36 -36 36 -35 0 -68 5 -71 10 -3 6 -30 10 -60 10 -30 0 -57 5 -60 10 -3 6 -15 10 -25 10 -11 0 -35 9 -55 20 -20 11 -44 20 -55 20 -10 0 -22 5 -25 10 -3 6 -17 10 -30 10 -13 0 -27 5 -30 10 -3 6 -21 10 -40 10 -19 0 -37 5 -40 10 -9 14 -322 13 -331 -1 -3 -6 -19 -9 -35 -7 -17 3 -34 -1 -40 -9 -6 -7 -26 -13 -45 -13 -18 0 -36 -4 -39 -10 -3 -5 -20 -10 -37 -10 -19 0 -41 -9 -55 -22 -18 -17 -26 -19 -35 -10 -9 9 -7 17 10 35 12 13 22 28 22 34 0 5 9 18 20 28 11 10 20 26 20 35 0 19 27 77 40 85 16 10 40 68 40 96 0 15 5 31 10 34 6 3 10 17 10 30 0 13 5 27 10 30 6 3 10 26 10 50 0 24 5 47 10 50 6 4 10 57 10 125 0 68 -4 121 -10 125 -5 3 -10 21 -10 40 0 19 -4 37 -10 40 -5 3 -10 21 -10 40 0 19 -4 37 -10 40 -5 3 -10 19 -10 35 0 16 -9 45 -20 65 -18 32 -20 54 -20 210 0 105 4 176 10 180 6 3 10 15 10 26 0 39 -37 17 -135 -81z m79 -128 c7 -145 16 -225 27 -237 5 -5 9 -24 9 -41 0 -18 4 -35 9 -38 5 -3 11 -16 14 -28 3 -13 11 -41 17 -63 21 -76 37 -199 29 -223 -5 -13 -9 -40 -9 -59 0 -33 -8 -68 -30 -128 -4 -11 -13 -38 -19 -60 -13 -43 -18 -55 -50 -127 -12 -26 -21 -52 -21 -57 0 -6 -34 -55 -75 -109 -90 -120 -213 -231 -382 -346 -42 -28 -56 -56 -29 -56 7 0 25 9 39 20 14 11 28 20 31 20 13 0 136 92 223 168 67 58 202 132 239 132 12 0 26 5 29 10 3 6 19 10 36 10 16 0 37 4 47 9 9 5 37 14 62 21 25 6 59 16 76 21 41 12 143 11 201 -2 114 -26 190 -48 240 -70 24 -11 54 -19 67 -19 14 0 28 -4 31 -10 3 -5 20 -10 36 -10 33 0 79 -20 98 -43 10 -12 7 -19 -18 -36 -16 -12 -33 -21 -38 -21 -27 0 -213 -208 -213 -237 0 -5 -13 -22 -30 -38 -16 -16 -30 -33 -30 -39 0 -13 -131 -146 -143 -146 -5 0 -22 -9 -38 -21 -53 -37 -172 -94 -249 -118 -41 -13 -83 -27 -92 -32 -10 -5 -28 -9 -41 -9 -13 0 -27 -4 -32 -9 -6 -5 -28 -11 -50 -14 -73 -10 -110 -18 -131 -29 -13 -6 -84 -8 -192 -4 -572 20 -528 21 -624 -18 -36 -14 -36 -38 1 -54 34 -15 305 -11 481 8 270 28 313 24 422 -31 10 -5 24 -9 31 -9 25 0 150 -69 186 -103 20 -18 51 -45 69 -60 32 -26 102 -111 102 -124 0 -4 9 -16 19 -27 21 -23 121 -183 121 -194 0 -3 22 -29 49 -57 27 -27 51 -59 53 -70 3 -19 -4 -20 -142 -26 -152 -7 -209 -15 -299 -44 -65 -20 -375 -25 -394 -6 -6 6 -19 11 -29 11 -10 0 -26 4 -36 9 -9 5 -33 17 -52 25 -89 41 -237 158 -307 242 -21 26 -62 72 -90 104 -29 31 -53 61 -53 65 0 5 -10 19 -22 33 -13 13 -52 63 -88 110 -75 100 -99 111 -143 66 -15 -15 -27 -30 -27 -35 0 -4 -13 -30 -28 -56 -15 -26 -34 -64 -41 -83 -22 -59 -69 -158 -140 -295 -17 -33 -31 -65 -31 -71 0 -6 -17 -44 -39 -85 -55 -106 -75 -145 -112 -224 -18 -38 -45 -88 -59 -110 -14 -22 -37 -62 -50 -90 -48 -99 -211 -278 -388 -427 -50 -43 -95 -78 -99 -78 -4 0 -22 -14 -40 -32 l-33 -32 -29 28 c-42 41 -44 60 -7 87 17 13 42 30 55 37 14 7 68 45 120 85 161 121 345 314 417 438 6 10 17 27 25 36 9 10 35 59 59 108 24 50 56 108 70 130 31 48 230 448 230 462 0 5 6 23 14 39 8 16 21 47 31 69 9 22 25 57 36 78 23 47 24 80 4 97 -18 15 -242 15 -260 1 -5 -5 -28 -11 -50 -14 -22 -3 -58 -10 -80 -17 -92 -27 -149 -33 -315 -33 -211 -1 -245 7 -380 83 -48 28 -201 180 -267 268 -30 39 -107 121 -171 182 -97 91 -113 110 -96 116 19 6 36 12 87 33 15 6 45 11 67 11 21 0 42 5 45 10 3 6 17 10 30 10 13 0 27 5 30 10 3 6 16 10 29 10 12 0 26 3 29 7 12 12 141 52 168 53 14 0 30 5 36 11 6 6 62 8 159 6 159 -5 231 -14 240 -28 3 -5 12 -9 21 -9 8 0 28 -9 43 -20 16 -11 54 -34 85 -50 95 -50 141 -96 235 -236 49 -74 90 -138 90 -142 0 -5 9 -17 20 -27 11 -10 20 -23 20 -29 0 -6 25 -39 56 -74 49 -55 60 -63 88 -60 23 2 32 9 34 25 5 36 -78 144 -213 278 -50 50 -112 118 -138 152 -41 55 -177 163 -205 163 -5 0 -56 48 -113 108 -97 99 -109 116 -167 234 -34 70 -62 133 -62 142 0 8 -4 18 -10 21 -5 3 -10 21 -10 40 0 19 -4 37 -10 40 -13 8 -14 302 -1 309 5 3 11 23 14 43 9 65 18 96 42 148 12 28 31 68 40 90 9 22 25 57 36 78 10 22 19 47 19 57 0 10 13 33 28 49 l28 31 89 -93 c75 -76 105 -100 177 -136 48 -24 95 -52 104 -62 9 -11 23 -19 30 -19 7 0 22 -15 33 -33 11 -18 29 -41 40 -51 23 -21 151 -275 151 -299 0 -9 5 -19 10 -22 6 -3 10 -17 10 -30 0 -13 4 -26 9 -29 5 -3 11 -23 14 -43 11 -73 18 -108 27 -128 20 -44 38 -551 20 -569 -14 -14 -13 -261 1 -287 6 -12 11 -41 12 -65 1 -27 7 -44 14 -44 7 0 17 -9 23 -20 15 -29 32 -24 58 17 15 24 19 39 13 47 -6 7 -6 17 -1 26 5 8 5 19 0 25 -8 10 -12 45 -25 205 -3 41 -11 84 -16 95 -13 26 -6 442 9 515 6 30 16 71 21 90 5 19 13 46 16 60 9 34 18 57 44 108 11 24 21 49 21 55 0 17 79 117 154 195 39 41 112 104 161 142 50 37 96 75 104 84 7 9 19 16 26 16 6 0 20 9 30 20 10 11 22 20 28 20 17 0 299 244 386 334 24 25 48 43 53 40 5 -3 8 -2 7 3 -3 20 2 25 15 14 11 -9 16 -43 20 -119z m-1104 -1756 c0 -52 5 -97 11 -103 16 -16 7 -88 -11 -88 -8 0 -16 11 -18 25 -2 14 -8 29 -13 35 -10 10 -13 228 -2 238 3 4 12 2 20 -4 9 -8 13 -39 13 -103z m-206 -138 c-3 -5 -14 -2 -25 8 -10 9 -16 21 -13 26 3 5 14 2 25 -8 10 -9 16 -21 13 -26z m60 -80 c-4 -5 -17 0 -30 13 -13 12 -21 26 -18 31 4 5 17 0 30 -13 13 -12 21 -26 18 -31z m625 -111 c18 -23 2 -27 -99 -27 -101 0 -117 4 -99 27 16 18 182 18 198 0z"/>
<path d="M2350 2319 c-14 -11 -49 -36 -77 -55 -51 -35 -69 -64 -38 -64 8 0 35 16 60 35 25 18 59 42 75 52 30 17 42 53 18 53 -7 0 -24 -9 -38 -21z"/>
<path d="M2074 2110 c-109 -94 -178 -182 -169 -217 5 -23 10 -25 42 -20 19 4 36 7 37 9 1 2 23 28 48 58 25 30 68 90 97 133 84 129 66 141 -55 37z"/>
</g>
</g>
  <g id="id1:id1" transform="matrix(1.25,0,0,1.25,0.0,0.0)"><g transform="translate(0.000000,168.000000) scale(0.040000,-0.040000)" fill="#018752" stroke="none">
<path d="M2915 4089 c-38 -39 -89 -84 -112 -102 -23 -18 -44 -40 -46 -49 -3 -10 -12 -18 -21 -18 -9 0 -16 -6 -16 -13 0 -14 -37 -53 -68 -71 -44 -25 -111 -82 -112 -94 0 -6 -18 -20 -39 -29 -22 -10 -42 -25 -44 -35 -3 -10 -14 -18 -26 -18 -11 0 -30 -13 -43 -30 -12 -16 -30 -30 -40 -30 -10 0 -21 -7 -24 -15 -4 -8 -26 -24 -50 -34 -28 -13 -48 -29 -54 -45 -5 -15 -13 -26 -18 -26 -4 0 -35 -20 -69 -44 -71 -52 -209 -226 -199 -252 4 -11 -1 -18 -14 -21 -16 -4 -18 -8 -9 -19 9 -11 7 -15 -5 -20 -10 -4 -15 -12 -13 -18 3 -7 -1 -20 -9 -31 -8 -10 -14 -28 -14 -40 0 -12 -7 -30 -15 -41 -8 -10 -15 -36 -15 -56 0 -20 -5 -40 -11 -44 -6 -3 -8 -17 -5 -29 3 -13 2 -26 -3 -29 -15 -9 -33 22 -26 44 4 13 -1 34 -15 57 -12 21 -19 45 -16 57 3 11 -2 28 -11 38 -12 14 -13 21 -4 32 8 10 9 16 1 21 -5 3 -10 13 -10 21 0 13 -29 85 -51 126 -5 10 -9 24 -9 31 0 8 -9 22 -20 32 -11 10 -17 21 -15 25 3 4 -2 13 -10 20 -8 7 -12 16 -9 21 7 12 -32 75 -51 83 -8 3 -15 15 -15 26 0 11 -7 23 -16 27 -8 3 -20 16 -25 30 -5 13 -20 28 -34 33 -14 5 -25 15 -25 22 0 13 -54 43 -78 43 -7 0 -17 6 -21 14 -5 7 -14 10 -21 6 -7 -4 -13 1 -17 14 -4 15 -11 20 -22 16 -11 -3 -27 5 -41 20 -13 14 -28 25 -34 25 -12 0 -66 50 -66 62 0 13 -89 126 -117 148 -32 25 -43 25 -43 2 0 -10 -11 -56 -25 -102 -14 -46 -23 -86 -20 -88 3 -3 -2 -14 -12 -24 -9 -10 -12 -18 -8 -18 5 0 -1 -10 -13 -23 -12 -13 -23 -37 -25 -54 -2 -17 -11 -43 -20 -57 -9 -14 -17 -32 -17 -40 0 -8 -5 -18 -10 -21 -8 -5 -8 -11 -1 -19 7 -9 4 -17 -10 -30 -11 -9 -19 -27 -18 -39 1 -12 -4 -35 -11 -50 -11 -22 -11 -33 -2 -48 16 -25 15 -51 -3 -85 -20 -38 -19 -79 2 -115 15 -24 15 -32 3 -53 -11 -22 -11 -28 3 -44 10 -10 14 -21 11 -25 -6 -6 7 -46 42 -124 8 -18 21 -50 30 -70 9 -21 23 -41 30 -46 7 -4 11 -14 8 -21 -3 -7 2 -16 10 -19 9 -4 13 -13 10 -21 -3 -9 5 -21 20 -31 14 -10 26 -21 26 -26 0 -5 12 -27 26 -49 31 -46 25 -65 -14 -44 -41 21 -292 20 -338 -2 -19 -9 -37 -14 -41 -11 -3 4 -20 -1 -37 -10 -17 -9 -47 -18 -66 -20 -19 -2 -51 -11 -70 -20 -19 -10 -39 -16 -44 -15 -4 2 -14 -2 -22 -9 -8 -6 -21 -8 -30 -5 -11 4 -26 -2 -41 -16 -18 -17 -26 -19 -35 -10 -15 15 -29 15 -65 0 -15 -6 -58 -10 -94 -9 -50 2 -68 -1 -79 -14 -8 -9 -9 -19 -4 -24 5 -5 47 -41 94 -81 47 -40 89 -79 93 -86 4 -8 14 -14 22 -14 15 0 84 -78 134 -153 18 -26 42 -54 54 -62 12 -8 30 -29 40 -47 10 -19 27 -38 39 -43 12 -6 26 -19 32 -29 17 -30 87 -91 105 -91 9 0 17 -7 19 -15 1 -9 17 -21 35 -29 18 -7 41 -17 52 -22 11 -5 36 -11 55 -14 19 -3 64 -13 99 -22 52 -13 67 -14 83 -4 15 9 23 10 31 2 15 -15 80 -14 95 1 8 8 15 8 25 -1 11 -9 29 -9 73 -1 33 6 70 13 84 14 14 2 32 6 41 10 9 4 31 8 50 9 19 1 40 6 46 10 7 5 32 9 55 9 24 1 55 10 70 20 30 21 79 23 108 6 16 -10 24 -10 41 0 26 17 49 1 31 -21 -8 -9 -8 -17 -2 -23 7 -7 4 -17 -10 -29 -11 -10 -20 -26 -20 -35 0 -9 -12 -40 -26 -68 -14 -29 -23 -59 -20 -68 3 -8 -1 -17 -10 -21 -8 -3 -13 -12 -10 -20 3 -7 -1 -16 -9 -20 -9 -3 -14 -10 -13 -17 3 -15 -58 -141 -77 -156 -8 -7 -15 -18 -15 -25 0 -7 -7 -18 -16 -26 -8 -7 -13 -21 -10 -32 3 -13 -1 -21 -15 -24 -15 -4 -17 -8 -8 -19 9 -11 8 -15 -5 -20 -8 -3 -28 -31 -43 -62 -15 -32 -40 -76 -56 -100 -15 -23 -30 -54 -31 -69 -2 -14 -10 -30 -19 -35 -10 -5 -17 -14 -18 -21 0 -18 -72 -121 -84 -122 -5 0 -11 23 -13 51 -2 40 3 62 28 108 35 68 38 96 10 121 -11 10 -20 22 -20 27 0 12 -44 78 -52 78 -5 0 -8 -6 -8 -13 0 -19 48 -113 65 -127 13 -11 12 -16 -5 -40 -11 -16 -20 -37 -20 -48 0 -12 -4 -24 -10 -27 -5 -3 -10 -43 -10 -89 0 -89 -13 -116 -57 -116 -30 0 -101 -84 -105 -123 l-3 -32 -60 -3 c-33 -2 -64 -7 -69 -13 -6 -5 -21 -9 -34 -9 -14 0 -47 -16 -74 -36 -43 -30 -52 -33 -66 -22 -40 32 -65 38 -150 38 -98 0 -104 3 -136 73 -10 21 -27 42 -40 46 -12 5 -28 16 -35 25 -7 9 -20 16 -28 16 -7 0 -25 7 -38 16 -23 15 -25 23 -25 85 0 72 -7 90 -52 148 l-27 34 20 28 c10 15 19 34 19 42 0 9 5 19 10 22 6 3 10 44 10 91 0 79 2 85 23 93 13 5 29 16 36 25 7 9 19 16 25 16 14 1 67 73 90 123 l17 37 64 0 c35 0 67 5 70 10 3 5 13 10 21 10 9 0 35 14 60 31 l44 30 29 -20 c16 -12 41 -21 54 -21 14 0 29 -5 32 -11 4 -6 36 -9 78 -8 l71 2 17 -33 c35 -65 81 -102 182 -148 4 -2 7 5 7 15 0 12 -14 24 -39 35 -47 21 -141 113 -141 140 0 23 -27 35 -43 19 -13 -13 -100 -15 -125 -2 -9 5 -30 15 -47 22 -16 7 -40 21 -51 32 l-22 18 -53 -40 c-30 -23 -64 -41 -76 -41 -12 0 -25 -4 -28 -10 -8 -13 -102 -13 -110 0 -12 20 -25 9 -26 -22 -1 -58 -117 -185 -171 -187 -22 -1 -33 -20 -19 -34 14 -14 15 -134 1 -142 -5 -3 -10 -14 -10 -23 0 -10 -14 -34 -31 -55 l-31 -38 21 -23 c11 -12 21 -27 21 -33 0 -6 7 -16 15 -23 29 -24 45 -73 45 -139 l0 -66 41 -18 c22 -10 52 -29 65 -42 14 -14 29 -25 33 -25 10 0 61 -75 61 -90 0 -6 37 -10 96 -10 90 0 98 -2 139 -30 53 -37 74 -38 105 -5 30 32 76 55 110 55 14 0 31 5 38 12 9 10 16 9 28 -4 20 -20 12 -34 -29 -53 -40 -18 -61 -35 -70 -58 -3 -9 -15 -17 -26 -17 -11 0 -25 -9 -31 -20 -6 -11 -19 -20 -30 -20 -11 0 -24 -9 -30 -20 -6 -11 -21 -20 -34 -20 -16 0 -26 -7 -29 -21 -3 -12 -10 -18 -17 -14 -6 4 -17 1 -25 -5 -20 -17 -19 -60 0 -60 9 0 18 -8 22 -17 10 -29 65 -83 85 -83 10 0 35 18 55 40 21 22 44 40 51 40 21 0 63 32 72 55 5 12 24 29 44 39 44 21 96 64 96 80 0 15 89 101 112 109 10 3 31 30 47 59 17 29 40 59 51 66 13 8 19 19 16 29 -4 9 1 17 13 20 21 5 35 29 25 44 -3 5 2 12 10 15 9 3 28 31 43 62 15 32 39 76 55 99 15 23 28 45 28 50 0 12 79 175 121 250 11 19 17 38 14 43 -3 5 0 12 7 17 7 4 19 22 27 38 7 17 17 38 22 47 5 10 9 28 9 40 0 12 8 31 19 42 28 32 90 159 112 231 24 77 34 96 62 110 25 12 29 12 40 -6 6 -10 17 -19 24 -19 7 0 21 -18 30 -40 10 -22 24 -40 31 -40 7 0 15 -8 18 -17 13 -39 28 -63 41 -63 8 0 17 -8 21 -18 13 -33 67 -101 83 -105 10 -3 25 -18 35 -33 35 -55 89 -115 128 -142 22 -15 61 -48 87 -74 35 -35 56 -48 77 -48 16 0 37 -9 47 -20 10 -11 26 -20 36 -20 9 0 46 -9 80 -20 46 -14 66 -16 76 -8 10 8 18 6 33 -7 30 -28 213 -15 320 22 8 3 31 8 50 10 19 2 39 8 45 13 7 6 16 5 23 -2 8 -8 22 -8 55 2 40 11 290 10 352 -1 45 -9 25 31 -57 110 -45 45 -85 81 -89 81 -12 0 -39 37 -39 53 0 16 -72 131 -90 142 -5 3 -10 14 -10 24 0 11 -9 21 -21 24 -12 3 -18 10 -14 16 7 12 -25 60 -40 61 -15 0 -85 73 -85 87 0 15 -54 53 -75 53 -9 0 -19 9 -22 19 -6 22 -67 56 -83 46 -6 -3 -13 1 -16 10 -4 9 -12 14 -20 11 -7 -3 -23 3 -36 13 -13 10 -32 21 -43 25 l-20 7 19 15 c11 8 32 14 46 14 15 0 30 3 33 7 4 3 19 8 33 9 15 2 34 6 43 10 18 8 45 13 78 17 12 1 25 5 29 10 4 4 15 7 25 7 10 0 23 9 30 21 7 15 14 18 21 11 8 -8 26 -3 59 15 27 14 51 29 54 33 8 13 66 40 84 40 41 0 221 181 221 223 0 9 9 22 21 30 11 8 21 25 22 37 1 13 9 25 19 28 9 2 24 20 33 39 9 19 23 37 31 40 8 3 14 10 14 16 0 17 52 67 69 67 9 0 27 9 41 20 14 11 30 20 36 20 6 0 19 9 29 20 10 11 28 20 40 20 26 0 49 24 42 43 -5 13 -44 23 -117 31 -34 4 -182 47 -196 58 -6 5 -18 6 -26 3 -8 -3 -21 1 -28 10 -7 8 -23 15 -36 15 -12 0 -25 4 -28 9 -6 9 -31 14 -131 27 -27 4 -107 7 -177 6 -99 -1 -133 -5 -152 -18 -15 -9 -33 -13 -46 -9 -14 4 -28 1 -40 -10 -11 -10 -26 -15 -36 -11 -10 4 -25 -1 -38 -13 -19 -17 -42 -21 -84 -12 -2 1 6 14 17 30 12 16 21 38 21 48 0 11 9 28 21 39 30 27 51 72 44 94 -3 10 -1 21 5 25 5 3 10 13 10 22 0 9 9 26 19 37 11 12 21 39 23 61 2 22 7 45 10 50 8 16 21 67 24 100 6 66 5 175 -2 187 -4 6 -9 41 -11 77 -2 41 -9 71 -19 83 -9 9 -14 24 -10 33 3 9 -3 24 -15 36 -14 14 -19 28 -15 43 3 13 3 25 0 28 -3 3 -6 37 -8 76 -2 45 -9 81 -20 96 -22 34 -20 93 4 141 22 43 25 76 10 91 -8 8 -6 15 5 24 8 7 15 16 15 21 0 22 -30 2 -95 -62z m-51 -1410 c-3 -5 -10 -7 -15 -3 -5 3 -7 10 -3 15 3 5 10 7 15 3 5 -3 7 -10 3 -15z m-1030 -398 c3 -5 -1 -14 -8 -20 -16 -13 -32 2 -21 19 8 12 22 13 29 1z m1 -89 c3 -20 11 -54 17 -75 10 -32 9 -40 -4 -54 -13 -12 -14 -20 -6 -33 13 -20 3 -54 -13 -45 -5 4 -9 17 -8 28 2 12 -2 32 -9 44 -12 22 -17 165 -6 176 12 12 23 -4 29 -41z m-182 -203 c-17 -17 -37 -1 -22 17 8 10 15 12 23 4 7 -7 7 -13 -1 -21z m371 0 c-9 -10 -21 -16 -26 -13 -5 3 -2 14 8 25 9 10 21 16 26 13 5 -3 2 -14 -8 -25z m-309 -59 c11 -17 -5 -32 -21 -19 -7 6 -11 15 -8 20 7 12 21 11 29 -1z m404 -103 c14 -17 4 -27 -25 -27 -30 0 -39 16 -17 29 24 14 29 13 42 -2z m112 -12 c0 -5 -7 -12 -16 -13 -23 -5 -47 6 -40 19 8 13 56 8 56 -6z m-1087 -1239 c-46 -51 -65 -66 -76 -60 -5 4 12 28 38 55 51 52 84 57 38 5z"/>
</g>
</g>
  <g id="id2:id2" transform="matrix(1.25,0,0,1.25,0.0,0.0)"><g transform="translate(0.000000,168.000000) scale(0.040000,-0.040000)" fill="#ffffff" stroke="none">
<path d="M0 2100 l0 -2100 2040 0 2040 0 0 2100 0 2100 -2040 0 -2040 0 0 -2100z m2970 1925 c-10 -59 -10 -94 -2 -163 7 -48 13 -103 16 -122 2 -19 15 -73 30 -120 72 -230 74 -388 5 -592 -30 -92 -115 -262 -149 -302 -17 -18 -30 -41 -30 -50 0 -20 2 -20 42 2 36 20 134 51 242 78 156 38 400 15 544 -51 30 -14 64 -25 76 -25 12 0 26 -4 32 -8 5 -5 54 -17 109 -26 134 -24 135 -24 110 -43 -11 -8 -51 -31 -90 -50 -89 -46 -183 -139 -264 -263 -61 -93 -184 -230 -207 -230 -6 0 -18 -7 -25 -16 -16 -20 -163 -90 -275 -133 -75 -28 -162 -50 -258 -66 -39 -6 -76 -24 -76 -36 0 -4 17 -10 38 -14 44 -8 165 -64 226 -105 62 -42 189 -171 229 -232 19 -29 60 -93 91 -143 32 -50 96 -129 144 -177 48 -49 82 -88 77 -89 -6 0 -80 0 -165 0 -151 2 -222 -6 -420 -44 -131 -25 -267 -20 -410 17 -66 17 -147 61 -225 123 -84 67 -111 94 -194 188 -89 102 -115 135 -191 238 -114 155 -125 157 -185 19 -27 -61 -67 -149 -172 -370 -130 -274 -281 -564 -341 -653 -64 -96 -277 -324 -341 -365 -14 -9 -63 -47 -109 -84 -46 -38 -90 -68 -98 -68 -13 0 -104 107 -104 122 0 6 125 93 160 110 8 5 34 23 56 41 23 17 62 47 88 66 27 21 46 43 46 54 0 17 -6 19 -47 15 -59 -6 -130 -38 -162 -72 -14 -14 -28 -26 -32 -26 -5 0 -30 13 -56 30 -43 28 -54 30 -139 30 l-92 0 -30 54 c-31 53 -66 83 -144 118 l-38 17 0 66 c0 69 -17 117 -67 183 l-25 33 20 22 c40 42 54 95 50 181 -3 74 -1 81 17 84 55 10 153 118 165 181 l5 26 56 -3 c73 -5 130 13 180 56 34 29 44 33 58 24 58 -42 108 -57 185 -58 l79 0 35 -54 c21 -30 55 -65 82 -81 82 -51 91 -59 85 -80 -10 -30 23 -128 62 -186 l35 -52 -31 -63 c-40 -81 -48 -181 -16 -186 14 -2 26 8 40 30 43 73 79 138 128 228 28 52 63 118 79 145 56 101 196 393 243 508 59 148 57 152 -60 144 -44 -3 -147 -20 -230 -36 -212 -42 -333 -53 -457 -40 -142 14 -220 36 -293 83 -44 28 -245 228 -245 244 0 7 -84 96 -186 197 -117 116 -182 186 -173 189 8 3 41 7 74 10 96 9 150 21 335 77 l175 54 164 3 c129 2 172 0 202 -12 36 -15 69 -13 69 3 0 4 -22 29 -50 56 -27 27 -50 54 -50 61 0 6 -7 18 -16 25 -18 15 -108 198 -119 242 -4 15 -11 30 -16 33 -5 3 -9 15 -9 26 0 12 -4 35 -9 52 -36 120 -30 255 20 436 15 57 86 234 111 278 10 18 18 41 18 52 0 10 5 22 10 25 6 3 10 17 10 30 0 13 5 36 10 51 l11 28 117 -120 c103 -106 128 -126 211 -168 51 -26 111 -64 132 -83 61 -55 144 -187 189 -304 12 -30 27 -67 34 -84 8 -16 19 -50 26 -75 7 -25 16 -54 20 -66 11 -28 37 -167 45 -236 4 -32 10 -58 14 -58 4 0 15 48 25 108 53 328 160 488 488 732 26 19 74 55 108 80 33 25 75 56 94 70 42 31 150 128 314 283 80 74 129 114 135 108 7 -7 5 -38 -3 -86z"/>
<path d="M1796 2313 c-3 -42 -6 -110 -6 -152 0 -67 4 -96 25 -188 4 -15 13 -23 27 -23 l21 0 -7 118 c-3 64 -11 142 -16 172 -6 30 -13 76 -17 103 -3 26 -9 47 -13 47 -4 0 -10 -34 -14 -77z"/>
<path d="M1560 2095 c0 -8 23 -47 45 -77 11 -14 38 -51 60 -82 38 -53 62 -72 73 -61 12 12 -34 80 -122 181 -34 39 -56 54 -56 39z"/>
<path d="M2009 2008 c-45 -47 -63 -88 -39 -88 10 0 110 120 110 132 0 19 -25 4 -71 -44z"/>
<path d="M2048 1831 c-54 -8 -69 -18 -48 -31 26 -17 430 -8 430 10 0 24 -258 38 -382 21z"/>
<path d="M1102 577 c-38 -38 -55 -77 -34 -77 10 0 112 103 112 113 0 21 -41 2 -78 -36z"/>
</g>
</g>
</svg>
