<?xml version="1.0" standalone="no"?>
<!DOCTYPE svg PUBLIC "-//W3C//DTD SVG 1.1//EN"
 "http://www.w3.org/Graphics/SVG/1.1/DTD/svg11.dtd">
<!-- Created with svg_stack (http://github.com/astraw/svg_stack) -->
<svg xmlns:sodipodi="http://sodipodi.sourceforge.net/DTD/sodipodi-0.dtd" xmlns="http://www.w3.org/2000/svg" version="1.1" width="234.0" height="232.0">
  <defs/>
  <g id="id0:id0" transform="matrix(1.25,0,0,1.25,0.0,0.0)"><g transform="translate(0.000000,185.600000) scale(0.040000,-0.040000)" fill="#fe3000" stroke="none">
<path d="M3560 1363 c-205 -211 -456 -404 -580 -446 -30 -10 -61 -24 -69 -30 -8 -7 -26 -12 -40 -12 -22 0 -28 -7 -44 -55 -62 -185 -149 -414 -179 -475 -41 -79 -40 -115 2 -115 43 0 517 304 694 446 204 162 430 400 408 427 -6 7 -11 22 -11 32 0 11 -5 56 -10 100 -5 44 -10 107 -11 140 0 55 -2 61 -27 73 -15 6 -30 12 -33 12 -3 0 -48 -44 -100 -97z"/>
</g>
</g>
  <g id="id1:id1" transform="matrix(1.25,0,0,1.25,0.0,0.0)"><g transform="translate(0.000000,185.600000) scale(0.040000,-0.040000)" fill="#fea11e" stroke="none">
<path d="M1375 3968 c-16 -6 -36 -19 -45 -28 -8 -10 -56 -52 -106 -94 -138 -114 -286 -276 -376 -410 -96 -144 -241 -436 -233 -469 6 -23 50 -54 140 -101 150 -76 370 -47 575 76 176 107 336 312 375 482 25 108 24 249 -3 318 -32 79 -110 157 -202 202 -80 39 -81 39 -125 24z"/>
<path d="M553 1348 c-4 -7 -8 -22 -8 -33 0 -15 -6 -19 -23 -17 -13 1 -22 -2 -20 -7 1 -5 45 -57 96 -116 212 -240 521 -466 890 -650 283 -141 556 -242 785 -291 69 -14 387 -21 387 -8 0 4 -7 12 -15 18 -12 9 -7 28 36 126 50 114 78 181 158 375 40 96 48 149 28 182 -4 6 -2 40 4 75 6 34 13 83 16 108 3 25 9 49 14 55 5 5 9 29 9 53 0 24 5 52 11 63 14 26 3 56 -24 65 -17 5 -29 -2 -57 -33 -44 -50 -195 -176 -275 -230 -273 -183 -680 -277 -1000 -229 -246 37 -430 98 -613 205 -99 58 -267 184 -329 248 -29 29 -54 53 -57 53 -3 0 -8 -6 -13 -12z"/>
</g>
</g>
  <g id="id2:id2" transform="matrix(1.25,0,0,1.25,0.0,0.0)"><g transform="translate(0.000000,185.600000) scale(0.040000,-0.040000)" fill="#ffffff" stroke="none">
<path d="M0 2320 l0 -2320 2340 0 2340 0 0 2320 0 2320 -2340 0 -2340 0 0 -2320z m2526 2125 l1 -140 24 2 c13 1 60 9 104 18 173 35 235 39 220 14 -4 -5 10 -9 29 -9 25 0 38 6 46 20 9 18 21 20 96 20 47 0 95 -5 107 -12 12 -6 37 -11 54 -9 18 1 47 -2 65 -8 18 -5 53 -15 78 -21 25 -7 62 -21 83 -31 22 -10 45 -19 53 -19 7 0 29 -9 49 -20 20 -11 42 -20 49 -20 7 0 21 -9 31 -20 10 -11 22 -20 27 -20 13 0 120 -74 142 -99 11 -11 24 -21 31 -21 6 0 67 -58 135 -128 120 -123 175 -192 261 -330 41 -65 139 -263 139 -282 0 -6 5 -19 10 -30 6 -11 14 -28 19 -39 5 -10 12 -39 16 -65 4 -25 11 -49 16 -52 5 -3 9 -20 9 -39 0 -19 5 -37 10 -40 6 -3 10 -21 10 -39 0 -17 4 -36 9 -41 5 -6 11 -28 14 -50 10 -69 18 -109 27 -130 11 -25 18 -80 26 -210 4 -55 11 -106 16 -112 13 -17 16 -227 3 -233 -5 -3 -23 21 -38 53 -29 57 -51 72 -61 40 -3 -10 -17 -97 -31 -193 -61 -429 -214 -875 -428 -1245 -79 -137 -240 -374 -250 -368 -10 6 -4 262 9 435 5 63 4 78 -7 78 -8 0 -71 -57 -140 -127 -175 -179 -348 -316 -604 -480 -94 -60 -240 -148 -317 -190 -13 -7 -81 -12 -184 -13 l-164 -1 -132 35 c-297 79 -601 205 -883 366 -450 259 -781 581 -957 931 -101 203 -189 474 -225 699 -26 160 -24 451 5 595 46 230 144 474 265 656 213 321 544 563 907 662 166 46 308 61 560 61 178 -1 265 -5 318 -16 104 -22 102 -25 102 181 0 92 3 171 7 175 4 3 59 5 122 4 l116 -3 1 -140z"/>
<path d="M2334 4552 c-12 -8 -29 -583 -19 -625 6 -21 57 -62 79 -62 4 0 10 152 11 338 l3 338 -24 10 c-30 11 -36 11 -50 1z"/>
<path d="M3155 4300 c3 -5 15 -10 26 -10 10 0 19 5 19 10 0 6 -12 10 -26 10 -14 0 -23 -4 -19 -10z"/>
</g>
</g>
  <g id="id3:id3" transform="matrix(1.25,0,0,1.25,0.0,0.0)"><g transform="translate(0.000000,185.600000) scale(0.040000,-0.040000)" fill="#4f4700" stroke="none">
<path d="M2273 4602 c-8 -5 -12 -59 -13 -182 -2 -322 -3 -318 20 -325 28 -9 50 11 50 46 0 38 14 44 34 14 18 -27 21 -85 7 -101 -6 -5 -11 -29 -13 -54 -2 -35 -7 -44 -19 -42 -13 2 -16 -6 -15 -35 1 -27 6 -38 16 -38 8 0 15 -5 15 -12 0 -7 21 -26 46 -42 25 -17 54 -40 64 -51 25 -27 61 -26 69 3 3 12 6 90 6 174 0 83 4 154 9 157 14 9 128 -80 153 -119 23 -35 58 -48 58 -21 0 30 21 25 112 -28 447 -258 909 -674 1247 -1120 49 -65 204 -292 241 -354 35 -58 40 -41 40 137 0 102 -4 172 -10 176 -5 3 -10 39 -10 80 0 41 -4 77 -10 80 -5 3 -10 26 -10 50 0 24 -4 47 -10 50 -5 3 -10 21 -10 40 0 19 -4 37 -10 40 -5 3 -10 17 -10 30 0 13 -4 27 -10 30 -5 3 -10 17 -10 30 0 13 -4 27 -10 30 -5 3 -10 17 -10 30 0 13 -4 27 -10 30 -5 3 -10 14 -10 25 0 10 -13 44 -30 75 -16 31 -30 65 -30 75 0 10 -7 23 -15 30 -9 7 -25 32 -35 55 -10 23 -26 48 -35 55 -8 7 -15 16 -15 21 0 5 -18 32 -40 61 -22 29 -40 58 -40 63 0 12 -239 250 -260 259 -8 3 -46 30 -84 60 -38 30 -98 69 -135 86 -36 18 -93 45 -125 61 -32 16 -67 29 -77 29 -10 0 -21 5 -24 10 -3 6 -17 10 -30 10 -13 0 -27 5 -30 10 -3 6 -16 10 -29 10 -12 0 -28 6 -34 12 -7 7 -28 11 -48 9 -36 -3 -68 14 -58 30 8 13 68 11 82 -3 7 -7 33 -11 61 -9 27 1 52 -2 56 -8 3 -6 21 -11 40 -11 19 0 37 -4 40 -10 3 -5 15 -10 25 -10 11 0 35 -9 55 -20 20 -11 41 -20 49 -20 16 0 101 -43 124 -62 9 -8 33 -22 53 -31 20 -9 42 -23 49 -32 7 -8 18 -15 24 -15 7 0 25 -13 41 -30 16 -16 34 -30 40 -30 17 0 235 -224 235 -242 0 -9 6 -18 14 -21 8 -3 22 -20 31 -39 10 -18 24 -45 32 -60 8 -15 18 -30 23 -33 5 -3 17 -23 26 -43 10 -20 24 -45 32 -54 8 -9 28 -45 46 -80 18 -35 37 -72 43 -83 6 -11 15 -31 20 -45 6 -14 20 -45 32 -68 11 -24 21 -52 21 -62 0 -11 5 -22 10 -25 6 -3 10 -17 10 -29 0 -13 6 -29 14 -35 19 -16 28 20 10 44 -7 10 -11 21 -8 26 2 4 -5 24 -16 44 -11 19 -20 46 -20 60 0 13 -5 27 -10 30 -14 9 -50 85 -50 106 0 9 -7 22 -15 29 -8 7 -33 50 -56 96 -23 46 -47 89 -55 95 -8 6 -14 19 -14 28 0 9 -9 22 -20 29 -11 7 -20 18 -20 26 0 7 -9 21 -20 31 -11 10 -20 23 -20 30 0 6 -18 29 -40 50 -22 21 -40 42 -40 47 0 10 -99 108 -109 108 -5 0 -29 23 -55 50 -26 28 -52 50 -59 50 -7 0 -35 17 -62 38 -65 48 -239 133 -335 162 -41 13 -79 26 -85 29 -5 3 -25 6 -45 8 -19 2 -42 6 -50 10 -25 10 -59 11 -230 11 -91 0 -175 1 -188 1 -13 1 -39 -6 -59 -14 -19 -8 -38 -13 -42 -11 -4 3 -38 -4 -75 -14 -38 -11 -72 -17 -77 -15 -4 3 -5 61 -2 130 4 92 2 129 -7 140 -10 12 -38 15 -134 15 -66 0 -126 -4 -133 -8z m107 -116 c0 -25 -22 -51 -33 -39 -11 10 -8 48 5 61 15 15 28 6 28 -22z"/>
<path d="M4427 3090 c-3 -10 -1 -22 3 -27 5 -4 10 -23 12 -42 3 -40 23 -52 33 -21 4 14 1 28 -9 39 -8 9 -13 26 -10 37 4 14 0 23 -9 27 -9 3 -17 -1 -20 -13z"/>
<path d="M4466 2924 c-5 -18 -2 -32 9 -44 9 -10 15 -30 13 -45 -4 -34 18 -45 27 -15 4 14 1 28 -10 40 -11 12 -16 29 -13 45 7 36 -18 54 -26 19z"/>
<path d="M4500 2726 c0 -30 5 -58 10 -61 6 -3 10 -43 10 -89 0 -45 5 -87 10 -92 14 -14 9 -219 -5 -219 -5 0 -20 21 -33 48 -13 26 -27 45 -32 42 -4 -2 12 -43 36 -91 24 -47 44 -93 44 -100 0 -8 5 -14 11 -14 13 0 11 390 -3 406 -4 7 -9 48 -9 93 0 44 -5 83 -10 86 -5 4 -9 15 -9 26 0 10 -4 19 -10 19 -5 0 -10 -24 -10 -54z"/>
</g>
</g>
  <g id="id4:id4" transform="matrix(1.25,0,0,1.25,0.0,0.0)"><g transform="translate(0.000000,185.600000) scale(0.040000,-0.040000)" fill="#b35200" stroke="none">
<path d="M2753 3990 c-3 -17 -10 -33 -14 -36 -12 -7 2 -32 81 -138 87 -118 164 -232 224 -331 68 -112 246 -460 300 -585 139 -326 270 -804 321 -1170 8 -58 18 -123 21 -146 4 -25 14 -45 26 -53 27 -17 37 -6 157 154 174 233 207 279 265 365 82 123 123 180 162 224 21 23 34 47 32 59 -2 15 4 23 22 27 35 8 44 59 19 117 -26 60 -198 312 -306 449 -251 315 -487 546 -809 787 -162 122 -454 307 -484 307 -6 0 -13 -14 -17 -30z"/>
</g>
</g>
  <g id="id5:id5" transform="matrix(1.25,0,0,1.25,0.0,0.0)"><g transform="translate(0.000000,185.600000) scale(0.040000,-0.040000)" fill="#fe5000" stroke="none">
<path d="M1660 4260 c-139 -10 -322 -45 -440 -82 -254 -81 -537 -269 -701 -465 -114 -136 -135 -166 -193 -266 -238 -415 -302 -867 -190 -1337 45 -188 134 -434 212 -580 51 -97 139 -227 159 -234 25 -10 58 26 45 50 -14 25 -41 228 -52 395 -12 178 -12 446 0 594 17 198 79 494 121 577 25 49 25 100 -1 115 -26 17 -60 131 -60 204 0 69 30 189 66 265 96 203 334 398 535 438 136 27 167 29 176 11 8 -13 13 -13 53 2 25 9 52 22 60 28 64 50 305 155 354 155 40 0 238 -74 308 -114 34 -21 77 -45 93 -54 17 -9 47 -27 67 -39 21 -13 40 -23 43 -23 3 0 5 15 5 34 0 19 5 38 10 41 13 8 13 185 1 185 -5 0 -11 -12 -13 -27 -2 -17 -9 -28 -18 -28 -11 0 -16 14 -18 55 -3 60 -12 74 -45 77 -12 1 -51 7 -87 12 -94 14 -368 21 -490 11z"/>
<path d="M2527 4143 c-4 -3 -7 -94 -7 -201 l0 -194 99 -99 c230 -230 403 -547 475 -869 40 -182 47 -241 53 -475 5 -230 -4 -351 -46 -620 -32 -198 -113 -503 -187 -698 -19 -50 -34 -119 -28 -129 3 -4 24 1 47 11 23 10 60 26 82 36 120 52 418 285 579 455 32 34 71 66 87 72 27 9 29 13 29 65 0 59 -19 202 -51 383 -63 353 -174 736 -296 1020 -65 151 -209 441 -269 541 -73 121 -205 319 -279 417 -58 76 -63 86 -58 122 5 38 4 41 -28 54 -19 8 -67 37 -107 65 -75 52 -84 56 -95 44z"/>
</g>
</g>
  <g id="id6:id6" transform="matrix(1.25,0,0,1.25,0.0,0.0)"><g transform="translate(0.000000,185.600000) scale(0.040000,-0.040000)" fill="#d78200" stroke="none">
<path d="M2463 3763 c-13 -2 -23 -9 -23 -15 0 -5 33 -51 73 -102 108 -137 161 -219 227 -359 132 -279 205 -557 231 -887 12 -154 6 -544 -10 -705 -20 -187 -41 -341 -50 -360 -12 -24 -33 -114 -61 -250 -11 -55 -25 -118 -31 -140 -23 -85 -23 -85 -2 -85 10 0 23 4 28 9 6 5 21 11 35 13 28 3 25 -3 109 260 196 618 234 1255 102 1723 -89 318 -256 601 -484 823 -82 80 -92 85 -144 75z"/>
</g>
</g>
  <g id="id7:id7" transform="matrix(1.25,0,0,1.25,0.0,0.0)"><g transform="translate(0.000000,185.600000) scale(0.040000,-0.040000)" fill="#fe6a23" stroke="none">
<path d="M1215 3969 c-82 -12 -115 -24 -230 -82 -196 -100 -365 -302 -422 -505 -25 -88 -22 -242 6 -314 26 -66 27 -68 61 -61 21 4 31 18 55 76 113 278 286 519 508 709 50 44 107 92 125 107 21 19 32 37 32 55 0 24 -3 26 -37 25 -21 -1 -65 -5 -98 -10z"/>
</g>
</g>
  <g id="id8:id8" transform="matrix(1.25,0,0,1.25,0.0,0.0)"><g transform="translate(0.000000,185.600000) scale(0.040000,-0.040000)" fill="#fd8b00" stroke="none">
<path d="M1770 4150 c-8 -5 -46 -22 -85 -36 -83 -32 -241 -110 -249 -123 -12 -19 7 -41 57 -64 67 -31 142 -98 169 -151 39 -77 50 -150 37 -255 -17 -148 -56 -237 -157 -363 -79 -99 -182 -181 -297 -238 -206 -101 -422 -97 -557 10 -52 42 -81 30 -102 -42 -8 -29 -22 -78 -30 -108 -9 -30 -19 -77 -22 -105 -4 -27 -11 -58 -15 -67 -5 -9 -17 -81 -27 -160 -24 -199 -24 -645 0 -854 10 -83 18 -172 18 -198 0 -26 5 -56 11 -67 7 -14 7 -24 0 -33 -6 -7 -8 -16 -5 -19 7 -7 44 13 59 32 9 11 14 9 27 -10 21 -32 119 -129 131 -129 5 0 26 -13 47 -30 21 -16 40 -30 43 -30 3 0 29 -16 58 -36 273 -184 711 -288 1024 -243 39 5 99 14 135 18 83 12 185 46 327 109 174 78 310 171 455 310 55 54 70 64 91 58 34 -8 39 9 42 124 1 53 7 127 14 165 42 269 38 774 -9 1040 -18 100 -51 247 -65 290 -104 309 -200 502 -339 678 -64 82 -80 118 -60 134 13 10 9 18 -31 55 -26 23 -52 45 -59 48 -6 3 -25 15 -42 28 -26 19 -31 30 -28 58 3 37 -11 44 -31 17 -13 -17 -14 -17 -33 1 -12 10 -25 15 -30 12 -6 -3 -41 11 -79 33 -79 44 -105 56 -228 107 -101 41 -143 49 -165 34z"/>
</g>
</g>
  <g id="id9:id9" transform="matrix(1.25,0,0,1.25,0.0,0.0)"><g transform="translate(0.000000,185.600000) scale(0.040000,-0.040000)" fill="#b4fe00" stroke="none">
<path d="M2895 4390 c-11 -5 -34 -9 -52 -9 -17 -1 -35 -5 -38 -11 -3 -5 -28 -10 -56 -10 -27 0 -49 -4 -49 -10 0 -6 46 -10 118 -10 65 0 122 -4 128 -9 5 -5 28 -12 52 -15 23 -3 61 -9 85 -12 23 -3 47 -10 54 -16 7 -5 14 -5 17 1 4 6 20 3 42 -9 19 -11 40 -20 48 -20 52 0 323 -137 433 -218 348 -259 567 -625 664 -1112 20 -99 23 -145 23 -330 -1 -185 -4 -229 -23 -315 -44 -196 -126 -426 -215 -603 -88 -176 -262 -439 -387 -588 -24 -29 -26 -38 -27 -150 -1 -65 -5 -194 -8 -286 l-7 -168 19 0 c20 0 32 17 187 260 260 406 429 852 516 1357 30 174 43 207 61 157 6 -16 22 -50 35 -76 14 -26 25 -55 25 -64 0 -23 23 -11 31 17 20 70 4 321 -24 377 -8 17 -8 28 0 41 11 17 -3 100 -20 117 -11 11 -8 62 3 69 13 8 2 55 -18 78 -13 14 -14 22 -4 37 9 15 7 23 -10 45 -14 18 -17 30 -10 37 12 12 6 35 -15 60 -9 10 -12 25 -8 38 4 14 1 28 -10 40 -11 12 -13 20 -6 25 7 4 5 17 -6 38 -9 18 -16 38 -14 45 1 8 -3 20 -10 28 -7 8 -14 29 -16 47 -2 17 -12 41 -23 52 -11 12 -20 31 -20 43 0 20 -31 86 -51 107 -5 5 -9 18 -9 30 0 11 -9 31 -20 45 -11 14 -20 29 -20 34 0 4 -13 25 -30 46 -16 21 -30 45 -30 54 0 8 -9 20 -20 26 -11 6 -20 19 -20 30 0 11 -9 24 -21 30 -12 7 -18 18 -15 26 3 8 -5 21 -19 30 -14 9 -25 23 -25 30 0 8 -18 32 -39 53 -22 22 -48 52 -57 66 -10 15 -28 31 -41 36 -13 5 -23 14 -23 21 -1 13 -69 67 -102 80 -10 4 -18 11 -18 16 0 11 -75 62 -92 62 -6 0 -21 9 -32 19 -28 25 -139 81 -162 81 -11 0 -30 9 -44 20 -14 11 -34 20 -46 20 -11 0 -25 5 -30 10 -6 6 -28 11 -50 12 -21 0 -44 5 -51 10 -7 6 -29 11 -50 12 -21 2 -45 6 -53 9 -50 19 -262 31 -295 17z"/>
</g>
</g>
  <g id="id10:id10" transform="matrix(1.25,0,0,1.25,0.0,0.0)"><g transform="translate(0.000000,185.600000) scale(0.040000,-0.040000)" fill="#b43000" stroke="none">
<path d="M3180 3511 c0 -40 3 -50 20 -54 11 -3 20 -12 20 -21 0 -11 9 -16 30 -16 36 0 39 16 10 53 -11 14 -20 31 -20 39 -1 20 -25 48 -44 48 -13 0 -16 -10 -16 -49z"/>
<path d="M4298 2378 c-7 -13 -21 -39 -30 -58 -10 -19 -24 -44 -31 -55 -7 -11 -32 -54 -57 -95 -116 -194 -347 -509 -439 -596 l-54 -52 12 -126 c6 -70 11 -162 11 -206 0 -65 3 -81 18 -88 27 -14 38 -6 104 80 204 269 393 621 470 878 28 95 68 258 68 280 0 19 -36 60 -52 60 -4 0 -13 -10 -20 -22z"/>
</g>
</g>
</svg>
