<svg xmlns="http://www.w3.org/2000/svg" version="1.0" width="1052.000000pt" height="1054.000000pt" viewBox="0 0 1052.000000 1054.000000" preserveAspectRatio="xMidYMid meet">
  <g transform="translate(0.000000,1054.000000) scale(0.100000,-0.100000)" stroke="none">
    <path stroke="none" d="M0 5270 l0 -5270 5260 0 5260 0 0 5270 0 5270 -5260 0 -5260 0 0 -5270z" fill="#242e65" id="242e65-000001"/>
    <path stroke="none" d="M5548 10347 c51 -78 123 -196 160 -262 l67 -120 65 -5 65 -5 0 -70 c1 -55 6 -81 26 -120 15 -27 29 -67 32 -87 8 -53 35 -105 74 -143 18 -17 33 -38 33 -45 0 -15 52 -100 61 -100 17 0 30 480 14 529 -4 14 -15 21 -31 21 -13 0 -24 5 -24 10 0 15 66 12 79 -3 7 -10 11 -110 11 -324 -1 -348 -7 -314 79 -442 21 -31 44 -71 52 -88 8 -18 21 -33 30 -33 18 0 87 72 109 113 8 16 16 24 18 17 6 -17 -67 -122 -88 -127 -21 -6 -37 -70 -21 -86 18 -18 103 44 138 103 44 74 76 134 90 170 6 14 15 36 20 50 6 14 16 43 22 65 7 22 26 74 43 115 17 41 34 84 38 95 5 11 15 36 24 57 20 46 20 45 -6 51 -30 8 -68 -18 -68 -46 0 -22 -61 -191 -73 -204 -4 -3 -7 -16 -7 -28 0 -11 -4 -25 -8 -30 -5 -6 -14 -29 -21 -53 -7 -24 -17 -42 -24 -39 -13 4 -67 132 -67 159 0 10 -4 27 -10 38 -5 11 -14 29 -20 40 -5 11 -10 25 -10 30 0 6 -9 30 -20 52 -21 44 -25 68 -12 68 5 0 15 -19 22 -42 7 -24 17 -47 22 -52 4 -6 8 -18 8 -28 0 -10 4 -26 9 -36 5 -9 13 -28 19 -42 5 -14 19 -46 31 -72 12 -26 21 -52 21 -58 0 -5 5 -10 10 -10 6 0 10 11 10 24 0 14 4 27 8 30 4 3 14 28 22 56 8 28 18 53 22 56 4 3 8 16 8 29 0 13 5 27 10 30 6 3 10 13 10 21 0 8 9 34 20 56 11 23 20 50 20 60 0 22 38 33 87 25 19 -4 37 -8 40 -10 4 -4 -16 -62 -42 -122 -7 -16 -25 -61 -40 -100 -15 -38 -43 -102 -61 -141 -19 -39 -34 -75 -34 -79 0 -4 -6 -21 -14 -38 -7 -18 -20 -48 -27 -67 -7 -19 -15 -37 -18 -40 -4 -3 -19 -22 -34 -42 -35 -48 -97 -106 -119 -114 -17 -5 -26 -44 -10 -44 9 0 56 -100 49 -106 -2 -3 -22 22 -43 56 -32 49 -43 59 -63 57 -22 -2 -26 4 -42 66 -14 52 -65 158 -96 196 -2 2 -13 -1 -26 -7 -12 -6 -40 -13 -62 -14 l-40 -3 -7 130 c-8 131 -16 161 -61 228 -26 38 -37 34 -37 -12 0 -22 -5 -43 -11 -47 -7 -4 -9 -21 -5 -45 5 -30 1 -50 -16 -82 l-21 -42 -9 30 c-4 17 -11 113 -13 214 l-5 184 -36 63 c-20 35 -38 64 -40 64 -2 0 -4 -151 -4 -335 0 -319 1 -335 18 -335 12 0 27 16 42 45 25 49 40 57 40 23 0 -13 3 -33 6 -45 5 -18 1 -25 -20 -33 -14 -5 -30 -20 -35 -32 -5 -13 -19 -49 -31 -81 -22 -57 -95 -137 -126 -137 -28 0 -34 -35 -13 -76 21 -42 19 -64 -5 -64 -9 0 -30 -9 -48 -20 -18 -11 -41 -20 -50 -20 -10 0 -18 -4 -18 -8 0 -10 59 -32 86 -32 32 0 191 -57 223 -79 16 -12 32 -21 36 -21 4 0 20 -10 37 -21 20 -14 49 -23 86 -25 49 -3 71 -14 72 -35 0 -18 -44 -37 -115 -48 -44 -7 -84 -16 -88 -20 -5 -5 16 -28 45 -51 82 -67 138 -122 132 -132 -3 -4 -14 -8 -25 -8 -30 0 -107 -40 -140 -73 -69 -69 -90 -177 -49 -256 24 -47 85 -102 135 -120 34 -12 37 -11 56 11 l20 23 -28 23 c-78 63 -103 105 -103 176 0 35 25 95 53 124 44 48 75 57 192 57 95 0 110 2 113 17 4 22 -67 42 -125 34 -23 -3 -45 -1 -48 4 -10 17 48 23 105 12 31 -7 66 -12 79 -12 20 0 21 -3 15 -37 -9 -55 -25 -68 -65 -54 -17 6 -56 11 -86 11 l-54 0 6 -72 c6 -65 -4 -167 -20 -223 -4 -14 0 -23 16 -30 36 -16 34 -33 -3 -32 -27 2 -34 -2 -36 -20 -3 -22 0 -23 66 -23 88 0 132 9 139 28 4 8 -2 21 -12 28 -17 12 -17 14 -1 20 20 8 45 -21 46 -51 0 -17 -11 -23 -62 -35 -35 -7 -98 -13 -140 -13 -62 0 -80 -3 -94 -18 -20 -23 -11 -39 24 -39 15 0 72 -16 127 -36 55 -19 111 -39 125 -44 45 -14 228 -89 277 -113 350 -170 617 -361 869 -619 159 -163 333 -383 401 -508 18 -35 42 -75 52 -89 37 -52 141 -279 179 -391 37 -110 72 -224 92 -300 4 -19 13 -53 19 -75 5 -22 20 -114 31 -204 18 -136 21 -199 17 -365 -7 -286 -17 -375 -68 -626 -6 -30 -20 -82 -30 -115 -11 -33 -24 -76 -30 -95 -47 -155 -130 -341 -222 -500 -28 -47 -63 -110 -80 -140 -83 -152 -388 -510 -504 -591 -24 -16 -59 -47 -79 -67 -125 -129 -509 -359 -770 -461 -60 -24 -118 -47 -129 -52 -11 -4 -58 -20 -105 -35 -149 -48 -161 -79 -32 -89 48 -3 1001 -7 2119 -8 1556 -1 2035 1 2044 10 9 9 9 16 1 26 -6 7 -39 69 -72 137 -34 68 -74 142 -91 166 -16 23 -29 45 -29 49 0 4 -13 25 -28 48 -15 23 -41 67 -57 97 -15 30 -40 72 -54 94 -59 88 -83 128 -241 401 -9 17 -30 51 -46 77 -131 214 -198 323 -253 411 -87 139 -208 347 -288 497 -14 25 -37 59 -52 75 -44 48 -75 95 -118 176 -23 42 -60 107 -84 145 -23 38 -83 141 -132 229 -49 88 -98 169 -108 181 -11 11 -19 23 -19 26 0 3 -23 45 -51 94 -29 49 -60 103 -69 119 -10 17 -40 67 -68 111 -27 45 -63 106 -79 135 -17 30 -55 95 -85 144 -84 139 -188 315 -188 321 0 2 -22 41 -50 85 -27 44 -50 83 -50 85 0 3 -22 38 -50 79 -27 41 -50 77 -50 80 0 4 -13 25 -29 48 -15 23 -32 53 -36 66 -13 41 73 -46 102 -104 14 -27 39 -69 54 -92 16 -23 29 -46 29 -51 0 -5 21 -43 48 -84 60 -95 59 -93 133 -218 34 -58 75 -123 89 -145 15 -22 46 -76 70 -120 24 -44 51 -92 61 -107 11 -14 19 -29 19 -32 0 -3 24 -43 54 -88 29 -46 75 -121 100 -168 26 -47 61 -102 78 -124 17 -21 39 -61 50 -89 11 -28 32 -69 48 -91 44 -64 102 -157 125 -201 12 -22 53 -88 93 -147 40 -59 72 -109 72 -112 0 -2 21 -42 48 -88 26 -46 54 -96 62 -113 8 -16 19 -37 26 -45 6 -8 24 -40 40 -70 15 -30 45 -81 66 -112 21 -31 38 -60 38 -63 0 -3 22 -38 48 -78 52 -77 142 -220 175 -277 39 -70 105 -186 129 -231 46 -83 53 -94 69 -114 16 -20 107 -164 139 -220 46 -79 166 -275 191 -312 16 -23 29 -45 29 -48 0 -4 15 -28 33 -54 19 -25 51 -81 72 -123 21 -42 51 -92 67 -110 16 -18 39 -55 53 -83 13 -27 35 -65 49 -84 52 -69 65 -67 -321 -64 -192 1 -523 1 -738 0 -562 -2 -1321 -1 -1385 3 -30 2 -341 2 -690 0 -349 -1 -950 1 -1335 5 -487 4 -709 3 -728 -4 -20 -8 -49 -8 -95 -1 -37 5 -160 11 -274 13 -140 2 -211 7 -221 15 -8 7 -25 12 -38 11 -37 -1 -84 16 -84 31 0 8 -13 17 -30 21 -16 4 -61 17 -100 29 -38 12 -92 27 -120 33 -27 6 -54 16 -60 22 -9 11 -28 17 -132 44 -38 10 -139 65 -205 112 -15 10 -34 19 -42 19 -8 0 -28 12 -45 26 -17 14 -37 27 -45 28 -8 1 -22 8 -32 16 -21 19 -171 16 -224 -3 -80 -29 -116 -55 -135 -96 -16 -36 -16 -47 -6 -82 15 -50 51 -85 94 -92 18 -4 46 -9 63 -12 37 -8 112 15 167 51 49 32 66 21 24 -16 -47 -41 -150 -73 -210 -66 -50 5 -126 50 -151 89 -37 57 -27 127 26 190 29 34 40 39 91 44 32 3 60 10 63 14 3 5 27 9 55 9 49 0 68 16 27 22 -13 2 -22 9 -21 15 4 19 -61 63 -91 63 -15 0 -38 -7 -51 -16 -31 -20 -51 -13 -59 21 -9 35 -1 43 22 22 23 -21 36 -21 57 0 16 15 24 15 118 -6 115 -24 136 -39 144 -99 4 -30 10 -41 27 -45 11 -2 29 -8 39 -12 15 -6 17 -1 17 41 0 96 -73 153 -206 162 -41 3 -86 0 -105 -7 -26 -9 -39 -8 -70 6 -21 10 -39 23 -39 30 0 15 -81 92 -124 118 -46 28 -366 356 -366 375 0 11 -124 194 -153 227 -17 19 -31 23 -78 23 -35 0 -61 5 -66 13 -4 6 -8 68 -8 137 0 121 -1 126 -27 161 -16 20 -28 47 -28 60 0 14 -6 33 -13 44 -22 32 -49 161 -30 142 4 -4 16 -35 29 -70 33 -94 48 -127 56 -127 11 0 10 -13 12 225 1 116 5 216 9 223 5 8 34 12 82 12 62 0 74 -3 79 -17 7 -24 0 -511 -9 -649 l-7 -111 61 -94 c55 -86 118 -177 131 -189 3 -3 30 -34 60 -70 91 -108 189 -207 300 -304 58 -50 107 -94 108 -98 2 -5 13 -8 24 -8 12 0 22 -8 25 -21 5 -17 11 -20 32 -14 71 17 137 17 210 -1 42 -10 82 -22 88 -27 23 -17 43 -70 55 -142 6 -38 16 -73 22 -78 64 -44 188 -106 272 -136 69 -24 102 -18 124 24 22 41 -16 76 -110 104 -70 20 -130 52 -148 79 -21 33 -18 119 6 145 9 11 41 30 70 43 70 32 236 35 272 6 22 -17 22 -21 9 -50 -14 -32 -50 -44 -64 -22 -3 6 3 10 13 10 11 0 23 7 26 16 11 28 -58 47 -142 40 -87 -8 -108 -15 -150 -51 -26 -21 -32 -34 -32 -65 0 -66 56 -110 188 -150 51 -16 92 -54 92 -85 0 -12 -10 -34 -21 -49 -24 -30 -19 -41 23 -51 22 -6 33 -1 58 25 35 36 52 37 19 1 -37 -40 -32 -43 156 -96 99 -28 220 -55 248 -55 20 0 23 30 5 48 -16 16 -1 30 37 34 19 2 31 9 33 21 3 14 -4 17 -38 17 -51 0 -96 22 -104 52 -3 13 -6 92 -6 176 0 143 1 152 19 152 55 0 71 37 19 42 -31 3 -33 5 -36 48 -5 93 -14 103 -67 78 -22 -10 -25 -17 -25 -60 0 -43 -3 -50 -26 -58 -14 -6 -36 -10 -50 -10 -17 0 -24 -5 -24 -20 0 -17 7 -20 49 -20 l49 0 4 -68 c5 -88 -2 -163 -13 -156 -5 3 -9 42 -9 88 0 95 -10 114 -60 118 -32 3 -35 6 -38 40 l-3 37 48 3 48 3 1 50 c1 28 2 55 3 61 1 13 118 37 132 28 5 -3 9 -34 9 -70 0 -35 4 -64 8 -64 5 0 14 23 20 50 23 99 64 130 174 130 81 0 93 8 76 45 -12 26 -10 29 19 54 114 95 448 136 663 81 19 -5 58 -14 85 -21 116 -28 170 -72 145 -118 -19 -36 3 -51 72 -51 116 0 148 -43 148 -195 l0 -97 25 4 c14 3 25 1 25 -3 0 -5 -4 -9 -10 -9 -6 0 -10 -47 -10 -121 0 -94 -3 -124 -15 -135 -22 -23 -20 -74 3 -74 49 0 212 67 212 87 0 8 10 11 30 7 21 -5 54 3 112 27 88 34 243 112 268 133 8 7 35 24 60 37 25 13 47 27 50 30 3 3 36 24 74 46 179 107 469 368 631 568 137 170 255 334 255 355 0 7 8 24 19 38 17 25 101 197 101 207 0 2 13 33 29 67 75 166 157 443 176 598 4 30 11 80 17 110 24 140 29 538 8 650 -5 25 -14 74 -20 110 -28 156 -109 457 -145 535 -7 17 -21 50 -31 75 -38 96 -137 285 -192 368 -32 48 -75 116 -95 153 -20 36 -60 92 -89 125 -30 32 -67 77 -83 99 -76 103 -261 276 -437 407 -340 254 -662 413 -1033 509 -22 6 -54 15 -71 20 -17 5 -33 9 -37 9 -3 0 -27 -32 -53 -72 -45 -71 -46 -72 -29 -100 13 -22 13 -29 3 -33 -16 -5 -39 -8 -55 -6 -16 1 -17 84 -2 113 11 20 10 21 -37 14 -27 -4 -113 -13 -192 -21 -82 -7 -149 -18 -158 -26 -11 -9 -14 -22 -9 -46 6 -34 6 -35 -52 -33 -5 0 -8 17 -8 37 0 52 -19 59 -188 67 -78 3 -152 9 -164 12 -22 6 -23 3 -23 -44 0 -68 -7 -82 -40 -82 -39 0 -46 17 -20 45 14 15 19 28 13 37 -33 53 -88 119 -123 147 -45 36 -40 35 -157 10 -107 -23 -130 -28 -165 -38 -21 -6 -53 -15 -70 -20 -55 -15 -140 -42 -198 -63 -52 -19 -70 -26 -122 -47 -86 -35 -336 -163 -395 -203 -40 -26 -74 -48 -77 -48 -10 0 -250 -177 -253 -187 -2 -6 5 -13 17 -16 13 -3 20 -13 20 -30 l0 -26 58 35 c38 24 67 34 87 32 29 -3 30 -5 33 -55 3 -48 1 -53 -18 -53 -48 0 -97 -24 -120 -59 -23 -35 -24 -43 -23 -218 1 -115 -2 -185 -9 -189 -13 -9 -36 15 -23 24 6 4 11 80 13 177 2 151 5 175 24 213 22 44 60 72 96 72 11 0 25 7 32 15 19 23 4 45 -30 45 -24 0 -42 -11 -79 -50 -26 -27 -51 -47 -55 -43 -3 3 -6 21 -6 38 0 36 -22 60 -45 51 -11 -4 -15 -22 -15 -71 0 -37 -4 -65 -10 -65 -5 0 -10 23 -10 50 0 62 -11 63 -70 11 l-45 -39 -1 -119 c-1 -132 -16 -181 -72 -240 -55 -56 -86 -67 -195 -68 l-98 0 -29 -38 c-16 -21 -51 -84 -79 -140 -75 -154 -171 -357 -171 -362 0 -3 -8 -24 -19 -48 -57 -129 -118 -337 -143 -492 -5 -33 -14 -82 -19 -110 -20 -114 -29 -228 -28 -370 0 -264 23 -434 90 -690 17 -66 34 -133 36 -149 9 -47 -12 -22 -27 34 -8 28 -18 53 -22 56 -4 3 -8 14 -8 25 0 10 -4 27 -9 37 -26 50 -48 175 -81 458 -13 114 -13 419 0 516 5 40 12 96 14 123 9 87 30 177 84 355 47 155 74 231 102 293 33 74 34 77 20 77 -5 0 -10 -6 -10 -14 0 -8 -3 -16 -8 -18 -4 -1 -38 -48 -75 -103 -37 -55 -76 -111 -86 -125 -10 -14 -48 -72 -84 -130 -76 -123 -267 -413 -276 -420 -4 -3 -24 -36 -45 -74 -21 -38 -52 -88 -70 -110 -19 -23 -39 -52 -46 -66 -11 -21 -56 -92 -161 -252 -158 -240 -473 -702 -500 -733 -10 -11 -39 -60 -64 -110 -26 -49 -80 -137 -119 -195 -121 -177 -152 -222 -199 -295 -25 -38 -66 -97 -90 -131 -24 -34 -63 -92 -85 -130 -22 -38 -61 -96 -86 -129 -25 -33 -46 -63 -46 -68 0 -8 -7 -18 -232 -354 -75 -111 -153 -231 -174 -267 -21 -37 -42 -66 -46 -66 -15 0 -8 77 7 90 9 7 32 43 52 79 49 88 122 205 162 261 82 116 111 160 111 168 0 5 12 19 26 33 14 13 36 42 48 65 24 46 61 104 135 214 80 118 171 260 171 267 0 3 20 33 46 67 95 129 146 202 154 222 5 11 31 50 59 87 27 37 57 82 66 101 9 19 25 42 36 52 10 9 19 21 19 26 0 5 17 31 38 58 39 51 80 115 122 190 14 25 51 83 83 130 32 47 78 114 103 150 149 217 233 343 335 499 41 63 95 141 122 174 26 33 47 63 47 68 0 12 143 233 189 292 21 26 52 76 70 110 18 34 45 78 60 97 33 42 224 327 250 373 100 174 260 396 287 397 7 0 14 -6 17 -14 9 -22 89 -35 143 -23 64 15 146 89 163 149 7 24 17 57 22 74 12 40 11 64 -2 103 -13 36 -28 39 -53 10 -13 -16 -20 -18 -29 -10 -9 9 -4 19 21 39 34 28 43 66 17 76 -15 6 -35 -21 -35 -48 0 -31 -21 -26 -58 13 -49 53 -99 62 -157 29 -109 -62 -120 -267 -19 -347 20 -16 41 -21 83 -21 51 0 60 3 88 33 18 17 41 53 52 80 11 26 25 47 31 47 13 0 13 -27 0 -35 -5 -3 -10 -15 -10 -26 0 -10 -4 -19 -10 -19 -5 0 -10 -6 -10 -14 0 -20 -71 -79 -114 -94 -32 -12 -43 -11 -81 4 -81 30 -125 111 -125 229 0 73 3 86 29 127 50 79 133 106 216 69 57 -25 71 -26 79 -5 14 35 -69 79 -132 69 -15 -2 -44 -7 -65 -10 -24 -4 -53 -20 -78 -42 -22 -20 -42 -34 -45 -31 -2 3 -5 76 -5 162 l-1 156 -40 0 -39 0 1 -252 c2 -338 1 -368 -8 -368 -5 0 -9 146 -11 325 l-2 325 60 0 61 0 2 -87 c0 -49 0 -112 -1 -140 -3 -46 0 -53 16 -53 10 0 30 8 43 17 19 13 45 17 111 17 79 -1 89 -3 132 -32 25 -18 54 -43 65 -57 11 -14 24 -25 30 -25 9 0 58 51 125 129 16 18 48 41 71 52 23 10 51 28 62 40 10 11 50 39 89 62 38 22 77 46 85 53 8 7 41 26 73 43 31 17 83 45 114 62 32 17 62 34 68 38 54 42 363 171 408 171 14 0 29 5 32 10 3 6 15 10 26 10 10 0 27 4 37 10 29 16 114 41 172 51 96 15 190 36 197 43 4 3 -2 19 -13 34 -34 45 -56 113 -61 188 -7 87 13 200 38 225 11 11 19 30 19 44 0 21 -5 25 -28 25 -41 0 -88 -26 -120 -66 -35 -44 -52 -44 -52 1 0 38 -27 61 -60 50 -19 -6 -20 -17 -19 -218 0 -171 3 -216 15 -235 15 -22 14 -23 -8 -20 l-23 3 -3 248 -3 248 58 -3 c55 -3 58 -4 61 -30 4 -34 5 -34 37 -4 30 28 105 51 137 43 46 -12 155 140 117 164 -7 4 -34 11 -60 14 -67 9 -87 25 -71 59 7 15 20 26 32 26 17 0 91 32 155 67 40 22 101 47 135 54 19 4 71 15 115 24 44 9 82 18 84 20 1 2 -24 29 -58 60 -55 52 -60 60 -54 88 3 18 14 38 24 46 29 21 23 33 -35 75 -40 28 -63 55 -87 100 -38 72 -43 76 -91 76 -23 0 -38 5 -39 13 -7 103 -9 151 -12 254 -2 67 0 120 5 117 4 -3 8 -10 8 -15 0 -6 18 -29 40 -51 22 -23 40 -44 40 -47 0 -3 -14 -22 -30 -41 -29 -34 -30 -38 -28 -120 3 -83 4 -85 28 -85 22 0 25 4 22 34 -1 18 3 40 9 48 9 10 10 54 5 160 -7 153 -21 202 -66 231 -16 10 -21 6 -37 -33 -10 -25 -23 -45 -30 -45 -12 0 -73 -92 -73 -110 0 -6 -4 -10 -10 -10 -23 0 -16 15 78 173 17 30 32 61 32 69 0 7 18 34 40 58 23 25 58 68 79 95 21 28 50 61 65 74 14 14 26 30 26 36 0 6 11 22 25 35 14 13 23 25 21 28 -3 2 9 25 25 50 16 26 34 58 41 72 6 14 26 43 43 65 17 22 56 76 85 120 63 95 59 90 65 83 3 -3 -17 -40 -45 -82 -27 -42 -50 -80 -50 -84 0 -5 -9 -18 -20 -30 -11 -11 -28 -34 -37 -50 -10 -17 -33 -51 -51 -77 -18 -26 -31 -50 -28 -52 3 -3 20 0 39 6 34 12 398 7 455 -5 12 -2 22 -2 22 0 0 3 -14 29 -32 58 -34 58 -134 235 -158 282 -8 16 -28 42 -43 58 -27 27 -30 52 -4 42 7 -2 54 -68 105 -147z" fill="#242e65" id="242e65-000019"/>
    <path stroke="none" d="M5420 10456 c0 -3 -5 -8 -12 -12 -7 -4 -8 -3 -4 4 7 12 16 16 16 8z" fill="#242e65" id="242e65-000002"/>
    <path stroke="none" d="M4571 9705 c16 -9 36 -27 45 -40 16 -25 44 -34 44 -15 0 12 88 70 107 70 25 0 13 -16 -23 -30 -20 -8 -49 -29 -65 -47 -28 -32 -59 -44 -59 -23 0 13 -38 50 -68 68 -57 32 -177 5 -223 -51 -20 -25 -35 -16 -41 23 -3 28 -45 41 -59 19 -8 -13 -2 -451 6 -476 3 -7 16 -13 30 -13 32 0 33 4 38 123 5 102 16 143 18 66 4 -105 2 -186 -4 -202 -5 -13 -19 -17 -62 -17 l-55 0 2 278 3 277 40 0 c58 1 67 -4 61 -31 -5 -17 -2 -24 8 -24 8 0 18 5 21 10 8 14 63 42 100 51 38 10 99 3 136 -16z" fill="#ffffff" id="ffffff-000014"/>
    <path stroke="none" d="M4522 9613 c37 -39 60 -114 58 -187 -4 -120 0 -196 10 -196 13 0 60 97 60 122 0 11 5 15 14 12 9 -4 23 8 38 30 13 20 26 36 31 36 11 0 8 -10 -12 -38 -30 -42 -61 -101 -61 -115 0 -7 -14 -23 -30 -36 -34 -24 -32 -41 6 -41 13 0 24 -4 24 -10 0 -5 -17 -10 -37 -10 -36 0 -41 -5 -81 -65 -23 -36 -47 -65 -52 -65 -16 0 -12 11 25 72 39 62 38 59 36 253 -2 152 -8 190 -38 220 -20 19 -36 25 -71 25 -40 0 -50 -5 -84 -40 -35 -37 -38 -46 -39 -98 0 -49 -2 -54 -11 -34 -8 16 -8 37 2 78 19 76 63 114 135 114 43 0 56 -5 77 -27z" fill="#ffffff" id="ffffff-000034"/>
    <path stroke="none" d="M7100 9300 c0 -141 -10 -189 -24 -119 -8 40 -8 217 0 247 15 56 24 10 24 -128z" fill="#ffffff" id="ffffff-000040"/>
    <path stroke="none" d="M7160 9398 c0 -32 -3 -39 -10 -28 -13 20 -13 70 0 70 6 0 10 -19 10 -42z" fill="#ffffff" id="ffffff-000044"/>
    <path stroke="none" d="M6980 9410 c0 -5 -2 -10 -4 -10 -3 0 -8 5 -11 10 -3 6 -1 10 4 10 6 0 11 -4 11 -10z" fill="#ffffff" id="ffffff-000046"/>
    <path stroke="none" d="M6751 9377 c-8 -8 -11 -7 -11 4 0 9 3 19 7 23 4 4 9 2 11 -4 3 -7 -1 -17 -7 -23z" fill="#ffffff" id="ffffff-000045"/>
    <path stroke="none" d="M6820 9386 c0 -8 -5 -18 -11 -21 -6 -4 -8 -13 -5 -21 6 -16 -10 -29 -19 -14 -7 12 16 70 27 70 5 0 8 -6 8 -14z" fill="#ffffff" id="ffffff-000052"/>
    <path stroke="none" d="M6740 9325 c0 -14 -4 -25 -10 -25 -5 0 -10 11 -10 25 0 14 5 25 10 25 6 0 10 -11 10 -25z" fill="#ffffff" id="ffffff-000051"/>
    <path stroke="none" d="M6945 9306 c50 -26 58 -59 24 -97 -19 -23 -20 -23 -10 -2 6 12 11 28 11 36 0 20 -35 57 -54 57 -9 0 -16 5 -16 10 0 14 13 13 45 -4z" fill="#ffffff" id="ffffff-000070"/>
    <path stroke="none" d="M7197 9286 c-30 -30 -37 -32 -37 -12 0 13 49 47 59 40 2 -2 -8 -14 -22 -28z" fill="#ffffff" id="ffffff-000064"/>
    <path stroke="none" d="M7300 9316 c0 -3 -4 -8 -10 -11 -5 -3 -10 -1 -10 4 0 6 5 11 10 11 6 0 10 -2 10 -4z" fill="#ffffff" id="ffffff-000060"/>
    <path stroke="none" d="M6440 9284 c0 -8 -4 -12 -10 -9 -5 3 -10 13 -10 21 0 8 5 12 10 9 6 -3 10 -13 10 -21z" fill="#ffffff" id="ffffff-000057"/>
    <path stroke="none" d="M6894 9277 c23 -18 27 -28 21 -43 -8 -18 -8 -18 -13 1 -6 29 -22 45 -43 45 -11 0 -19 5 -19 10 0 17 24 11 54 -13z" fill="#ffffff" id="ffffff-000062"/>
    <path stroke="none" d="M7270 9296 c0 -3 -5 -8 -12 -12 -7 -4 -8 -3 -4 4 7 12 16 16 16 8z" fill="#ffffff" id="ffffff-000065"/>
    <path stroke="none" d="M7237 9263 c-4 -3 -7 0 -7 7 0 7 3 10 7 7 3 -4 3 -10 0 -14z" fill="#ffffff" id="ffffff-000071"/>
    <path stroke="none" d="M7166 9224 c-3 -9 -6 -24 -6 -35 0 -10 -4 -19 -10 -19 -11 0 -14 53 -3 63 12 13 25 7 19 -9z" fill="#ffffff" id="ffffff-000072"/>
    <path stroke="none" d="M6712 9168 c-6 -6 -16 -7 -22 -3 -9 6 -9 9 1 16 17 10 34 0 21 -13z" fill="#ffffff" id="ffffff-000083"/>
    <path stroke="none" d="M7280 9170 c0 -5 -2 -10 -4 -10 -3 0 -8 5 -11 10 -3 6 -1 10 4 10 6 0 11 -4 11 -10z" fill="#ffffff" id="ffffff-000085"/>
    <path stroke="none" d="M7350 9170 c0 -5 -2 -10 -4 -10 -3 0 -8 5 -11 10 -3 6 -1 10 4 10 6 0 11 -4 11 -10z" fill="#ffffff" id="ffffff-000086"/>
    <path stroke="none" d="M4400 8905 c-12 -24 -27 -42 -32 -39 -4 3 0 17 10 32 10 15 22 36 26 46 3 10 9 16 13 12 3 -3 -4 -26 -17 -51z" fill="#ffffff" id="ffffff-000094"/>
    <path stroke="none" d="M6455 8790 c3 -5 4 -10 1 -10 -3 0 -8 5 -11 10 -3 6 -4 10 -1 10 3 0 8 -4 11 -10z" fill="#ffffff" id="ffffff-000097"/>
    <path stroke="none" d="M6549 8708 c19 -35 57 -101 85 -147 82 -134 87 -143 122 -206 26 -48 41 -65 79 -84 31 -16 57 -39 76 -69 33 -53 40 -92 9 -52 -11 14 -20 29 -20 33 0 12 -22 32 -42 40 -10 3 -18 13 -18 22 0 8 -4 15 -10 15 -20 0 -9 -30 38 -99 27 -41 54 -70 65 -71 9 0 17 -7 17 -15 0 -20 30 -78 87 -173 24 -40 46 -87 50 -105 3 -18 29 -66 58 -107 29 -41 60 -95 69 -120 10 -26 29 -59 44 -75 15 -17 38 -50 51 -75 13 -25 58 -96 99 -158 40 -63 95 -156 122 -207 26 -52 62 -113 79 -136 17 -24 31 -48 31 -54 0 -7 13 -30 28 -51 15 -21 51 -80 80 -130 29 -51 59 -98 68 -105 26 -21 55 -87 43 -95 -15 -9 -69 56 -108 130 -42 78 -114 200 -122 206 -6 5 -154 243 -191 310 -11 19 -24 40 -28 45 -5 6 -23 38 -42 72 -18 33 -44 74 -58 90 -14 15 -59 89 -100 163 -40 74 -86 154 -102 177 -15 23 -28 44 -28 48 0 4 -13 25 -28 48 -32 48 -67 118 -64 130 1 4 -2 7 -6 7 -5 0 -18 18 -31 40 -12 22 -27 43 -34 47 -7 5 -22 26 -34 48 -11 22 -29 44 -40 49 -10 5 -27 27 -38 50 -17 35 -27 43 -74 58 -60 20 -113 12 -160 -24 -20 -15 -51 -60 -51 -74 0 -2 39 -4 88 -5 59 -1 79 -4 62 -9 -33 -11 -167 -12 -174 -2 -3 5 6 30 20 58 31 62 82 94 153 94 28 0 62 -5 76 -12 35 -16 43 -3 15 27 -20 22 -32 25 -89 25 -46 0 -62 3 -51 10 8 5 34 10 58 10 28 0 42 4 42 13 0 18 -128 241 -189 332 -26 39 -53 81 -60 93 -12 22 -11 23 8 17 12 -4 21 -2 21 4 0 26 19 6 49 -51z" fill="#ffffff" id="ffffff-000098"/>
    <path stroke="none" d="M4198 8633 c-54 -118 -114 -219 -136 -228 -22 -8 -4 32 42 94 22 31 50 76 61 99 11 23 24 42 28 42 5 0 7 -3 5 -7z" fill="#ffffff" id="ffffff-000104"/>
    <path stroke="none" d="M4159 8277 c19 -9 39 -17 46 -17 20 0 73 -64 94 -113 41 -95 17 -228 -50 -284 -49 -42 -89 -64 -108 -61 -11 3 -3 10 22 22 45 22 102 89 120 141 19 55 4 169 -29 212 -55 73 -107 96 -214 96 -84 0 -119 -11 -165 -50 -21 -18 -42 -33 -46 -33 -9 0 -19 26 -19 51 0 24 -44 36 -66 18 -11 -9 -13 -22 -9 -50 4 -23 2 -40 -5 -44 -8 -5 -10 12 -8 57 l3 63 34 3 c55 6 81 -5 81 -33 0 -27 11 -32 32 -12 43 41 93 56 173 54 52 -2 92 -8 114 -20z" fill="#ffffff" id="ffffff-000126"/>
    <path stroke="none" d="M6565 8259 c-56 -27 -112 -75 -132 -112 -26 -49 -24 -161 4 -217 51 -102 230 -156 392 -118 40 9 51 16 51 31 0 17 -5 18 -37 13 -96 -16 -165 -18 -210 -5 -61 18 -133 86 -133 125 0 31 5 29 29 -18 25 -47 73 -76 138 -84 54 -6 156 -1 200 12 18 5 25 0 36 -27 11 -25 12 -37 3 -45 -34 -34 -238 -46 -331 -19 -72 21 -114 51 -153 110 -33 49 -34 51 -28 131 7 86 28 145 68 180 38 36 91 64 118 63 22 0 20 -3 -15 -20z" fill="#ffffff" id="ffffff-000127"/>
    <path stroke="none" d="M4096 8214 c48 -23 96 -83 113 -139 25 -84 -19 -174 -103 -214 -77 -36 -175 -20 -232 37 -32 32 -47 82 -24 82 6 0 10 -8 10 -19 0 -28 48 -70 94 -82 52 -14 132 -4 168 22 40 29 59 71 60 137 2 71 -28 126 -79 147 -43 18 -130 19 -160 2 -21 -12 -71 -82 -86 -119 -3 -10 -11 -18 -17 -18 -11 0 10 59 35 97 24 36 78 71 115 76 66 7 72 7 106 -9z" fill="#ffffff" id="ffffff-000128"/>
    <path stroke="none" d="M4580 8102 c0 -4 -4 -12 -10 -18 -6 -6 -5 -55 2 -135 12 -137 9 -159 -21 -159 -18 0 -19 4 -11 25 5 13 7 73 5 132 -5 104 5 163 26 163 5 0 9 -4 9 -8z" fill="#ffffff" id="ffffff-000107"/>
    <path stroke="none" d="M8505 8030 c3 -5 -1 -10 -9 -10 -9 0 -16 5 -16 10 0 6 4 10 9 10 6 0 13 -4 16 -10z" fill="#ffffff" id="ffffff-000132"/>
    <path stroke="none" d="M7235 8010 c3 -5 -3 -10 -14 -10 -12 0 -21 5 -21 10 0 6 6 10 14 10 8 0 18 -4 21 -10z" fill="#ffffff" id="ffffff-000134"/>
    <path stroke="none" d="M7900 8010 c0 -5 -7 -10 -15 -10 -8 0 -15 5 -15 10 0 6 7 10 15 10 8 0 15 -4 15 -10z" fill="#ffffff" id="ffffff-000137"/>
    <path stroke="none" d="M7120 7970 c0 -5 -4 -10 -10 -10 -5 0 -10 5 -10 10 0 6 5 10 10 10 6 0 10 -4 10 -10z" fill="#ffffff" id="ffffff-000139"/>
    <path stroke="none" d="M7180 7970 c0 -5 -4 -10 -10 -10 -5 0 -10 5 -10 10 0 6 5 10 10 10 6 0 10 -4 10 -10z" fill="#ffffff" id="ffffff-000140"/>
    <path stroke="none" d="M8117 7922 c9 -6 8 -12 -6 -24 -21 -18 -31 -14 -31 14 0 19 16 23 37 10z" fill="#ffffff" id="ffffff-000145"/>
    <path stroke="none" d="M8498 7727 c14 2 22 -3 22 -13 0 -11 -8 -14 -27 -12 l-28 3 -1 115 0 115 5 -105 c6 -101 7 -105 29 -103z" fill="#ffffff" id="ffffff-000146"/>
    <path stroke="none" d="M8260 7905 c-12 -15 -30 -12 -30 6 0 5 10 9 21 9 18 0 19 -2 9 -15z" fill="#ffffff" id="ffffff-000150"/>
    <path stroke="none" d="M7507 7877 c-6 -20 -27 -19 -27 2 0 14 5 19 15 14 9 -3 14 -10 12 -16z" fill="#ffffff" id="ffffff-000155"/>
    <path stroke="none" d="M8335 7890 c3 -5 1 -10 -4 -10 -6 0 -11 5 -11 10 0 6 2 10 4 10 3 0 8 -4 11 -10z" fill="#ffffff" id="ffffff-000156"/>
    <path stroke="none" d="M4032 7800 c57 0 87 -4 83 -10 -11 -18 -131 -11 -190 11 -31 12 -59 18 -62 15 -4 -3 -5 -56 -4 -116 2 -93 0 -110 -13 -110 -12 0 -14 11 -12 55 2 31 0 58 -4 60 -10 6 -7 136 3 152 5 8 23 1 58 -23 49 -32 55 -34 141 -34z" fill="#ffffff" id="ffffff-000160"/>
    <path stroke="none" d="M3715 7839 c-3 -8 -15 -20 -26 -27 -19 -12 -19 -11 2 17 23 31 34 35 24 10z" fill="#ffffff" id="ffffff-000159"/>
    <path stroke="none" d="M7470 7850 c0 -5 -7 -10 -15 -10 -8 0 -15 5 -15 10 0 6 7 10 15 10 8 0 15 -4 15 -10z" fill="#ffffff" id="ffffff-000161"/>
    <path stroke="none" d="M8352 7720 c6 0 8 -3 5 -6 -15 -15 -37 21 -37 61 0 64 15 65 18 1 2 -33 8 -56 14 -56z" fill="#ffffff" id="ffffff-000171"/>
    <path stroke="none" d="M7560 7799 c0 -5 -4 -9 -10 -9 -5 0 -10 7 -10 16 0 8 5 12 10 9 6 -3 10 -10 10 -16z" fill="#ffffff" id="ffffff-000168"/>
    <path stroke="none" d="M7644 7711 c-9 -10 -26 18 -18 30 5 9 9 8 14 -7 4 -10 6 -21 4 -23z" fill="#ffffff" id="ffffff-000179"/>
    <path stroke="none" d="M8090 7719 c0 -14 -19 -21 -40 -14 -29 9 -24 20 10 21 17 1 30 -2 30 -7z" fill="#ffffff" id="ffffff-000181"/>
    <path stroke="none" d="M8226 7720 c9 0 12 -4 9 -10 -10 -17 -55 -12 -55 6 0 11 5 14 16 10 9 -3 22 -6 30 -6z" fill="#ffffff" id="ffffff-000158"/>
    <path stroke="none" d="M7217 7709 c-14 -8 -22 -8 -30 0 -8 8 -3 11 19 11 25 -1 27 -2 11 -11z" fill="#ffffff" id="ffffff-000143"/>
    <path stroke="none" d="M7486 7713 c-10 -10 -85 -12 -92 -2 -3 5 18 9 47 9 29 0 49 -3 45 -7z" fill="#ffffff" id="ffffff-000178"/>
    <path stroke="none" d="M7895 7710 c-3 -5 -12 -10 -20 -10 -8 0 -17 5 -20 10 -4 6 5 10 20 10 15 0 24 -4 20 -10z" fill="#ffffff" id="ffffff-000180"/>
    <path stroke="none" d="M5505 7425 c114 -22 178 -47 265 -106 115 -78 216 -213 259 -346 28 -90 20 -308 -14 -359 -8 -13 -15 -30 -15 -38 0 -23 -61 -119 -108 -170 -56 -60 -120 -107 -207 -149 -123 -60 -161 -68 -307 -68 -112 0 -205 20 -298 64 -61 29 -158 95 -159 108 -1 4 14 22 33 41 56 56 65 106 69 401 3 228 2 259 -12 266 -23 12 -41 2 -41 -22 0 -38 -14 -49 -36 -29 -48 44 -85 64 -109 58 -29 -7 -33 -34 -7 -43 113 -38 142 -80 142 -208 0 -47 -5 -96 -11 -108 -29 -57 -83 -92 -151 -99 -32 -3 -33 -2 -42 47 -12 59 -12 256 -1 303 4 19 3 32 -2 32 -19 0 -73 -70 -85 -110 -7 -22 -16 -40 -20 -40 -12 0 -10 28 2 35 6 3 10 16 10 28 0 36 35 82 76 102 65 30 75 65 19 65 -100 0 -207 -149 -191 -268 16 -121 17 -124 72 -179 31 -31 62 -53 74 -53 12 0 30 -5 41 -10 15 -9 21 -7 25 5 8 19 24 20 24 0 0 -32 65 -11 120 39 17 14 32 26 35 26 11 0 4 -120 -9 -151 -20 -47 -63 -85 -111 -98 -39 -10 -53 -9 -187 16 -24 5 -28 2 -28 -19 0 -13 6 -30 13 -37 10 -10 7 -12 -13 -9 -23 3 -25 7 -22 47 4 64 15 73 60 52 76 -37 103 -42 159 -29 29 7 53 16 53 21 0 4 -16 32 -35 62 -34 54 -49 62 -101 56 -22 -3 -81 29 -111 59 -17 17 -42 55 -57 85 -21 44 -26 68 -26 133 0 69 4 88 30 138 44 84 94 122 190 143 24 6 46 15 49 22 6 18 87 115 129 154 20 19 72 53 114 75 143 75 289 96 453 65z" fill="#ffffff" id="ffffff-000185"/>
    <path stroke="none" d="M3767 7304 c2 -6 -10 -14 -26 -17 -42 -9 -54 -52 -21 -79 29 -24 36 -23 65 7 22 21 25 22 25 6 0 -40 -66 -63 -105 -37 -35 23 -34 74 2 110 26 27 53 31 60 10z" fill="#ffffff" id="ffffff-000191"/>
    <path stroke="none" d="M4438 6900 l-3 -355 -50 0 c-44 0 -50 3 -53 23 -4 28 -15 28 -55 -1 -50 -37 -110 -51 -155 -36 -131 42 -203 119 -201 213 0 28 2 27 18 -19 30 -81 42 -99 91 -133 42 -29 53 -32 124 -32 l77 0 49 46 c57 53 77 53 82 -3 3 -33 6 -38 28 -38 l25 0 3 360 c1 198 5 367 9 375 12 26 14 -31 11 -400z" fill="#ffffff" id="ffffff-000192"/>
    <path stroke="none" d="M2071 7100 c11 0 37 -18 60 -41 l41 -41 26 25 c87 82 227 82 290 2 43 -55 53 -117 50 -315 l-3 -185 -49 -3 c-59 -4 -67 5 -65 73 0 28 0 114 0 192 l-1 142 -35 36 c-30 30 -33 35 -16 35 24 0 65 -52 76 -95 4 -16 7 -96 6 -178 -1 -88 3 -155 9 -167 11 -20 35 -27 44 -12 10 17 16 341 7 364 -5 13 -12 35 -15 50 -4 15 -22 43 -41 63 -34 33 -39 35 -106 35 -77 0 -109 -15 -160 -74 -25 -29 -27 -29 -33 -9 -18 55 -65 83 -141 83 -63 0 -86 -9 -132 -52 -34 -33 -53 -30 -53 6 0 57 -59 57 -71 0 l-6 -29 -7 27 c-14 50 -5 63 47 66 43 3 48 1 57 -22 12 -31 13 -32 49 -5 35 25 86 39 125 33 16 -2 37 -4 47 -4z" fill="#ffffff" id="ffffff-000213"/>
    <path stroke="none" d="M4184 7099 c-3 -6 -17 -8 -30 -5 -25 7 -100 -27 -139 -61 -31 -27 -66 -89 -80 -141 l-13 -47 -1 39 c-2 85 90 204 169 219 51 9 101 7 94 -4z" fill="#ffffff" id="ffffff-000205"/>
    <path stroke="none" d="M1243 7093 c3 -5 2 -34 0 -65 -6 -64 -23 -69 -23 -8 0 30 -5 42 -21 51 -12 6 -25 7 -30 2 -5 -5 -9 -93 -10 -196 -1 -173 1 -190 21 -232 21 -42 65 -85 89 -85 6 0 11 -4 11 -10 0 -17 -32 -11 -67 12 -38 27 -69 85 -79 148 -8 53 -8 355 0 376 6 15 101 21 109 7z" fill="#ffffff" id="ffffff-000200"/>
    <path stroke="none" d="M1500 6904 c1 -220 -4 -237 -75 -273 -35 -18 -54 -21 -85 -16 -43 7 -100 54 -100 83 0 9 -3 28 -7 41 -4 16 -2 22 4 18 6 -4 14 -22 17 -40 16 -86 123 -109 191 -42 l35 36 0 188 c0 164 4 210 17 198 1 -2 3 -89 3 -193z" fill="#ffffff" id="ffffff-000201"/>
    <path stroke="none" d="M3797 7087 c3 -3 15 -235 16 -300 0 -32 -22 -62 -23 -31 -4 140 -17 314 -22 314 -5 0 -16 0 -27 0 -16 0 -19 -11 -25 -94 -4 -51 -7 -161 -7 -244 1 -89 -3 -153 -9 -157 -15 -9 -18 494 -4 517 6 9 91 4 101 -5z" fill="#ffffff" id="ffffff-000204"/>
    <path stroke="none" d="M4307 7053 c-4 -3 -7 0 -7 7 0 7 3 10 7 7 3 -4 3 -10 0 -14z" fill="#ffffff" id="ffffff-000214"/>
    <path stroke="none" d="M4257 7013 c37 -17 57 -45 67 -91 10 -44 2 -40 -23 11 -25 50 -83 92 -117 83 -13 -3 -36 -9 -51 -13 -57 -13 -92 -78 -95 -175 -3 -61 1 -82 20 -120 31 -60 55 -71 136 -66 53 3 64 1 54 -8 -7 -7 -24 -15 -38 -17 -14 -3 -29 -6 -35 -8 -46 -13 -146 68 -158 129 -3 15 -9 40 -13 55 -3 15 -1 56 6 89 11 48 22 70 51 99 58 58 118 68 196 32z" fill="#ffffff" id="ffffff-000218"/>
    <path stroke="none" d="M2290 7011 c-76 -40 -81 -58 -89 -291 l-6 -175 -55 0 -55 0 -2 142 c-2 84 1 145 7 148 13 8 13 4 15 -135 1 -64 5 -121 9 -128 4 -7 20 -12 37 -12 l29 0 0 178 c0 142 3 185 16 210 20 42 74 80 114 81 8 0 -1 -8 -20 -18z" fill="#ffffff" id="ffffff-000221"/>
    <path stroke="none" d="M2040 7007 c25 -19 58 -70 60 -92 7 -64 -14 -77 -23 -13 -8 57 -36 92 -81 99 -20 3 -39 9 -43 12 -12 13 72 7 87 -6z" fill="#ffffff" id="ffffff-000220"/>
    <path stroke="none" d="M1900 6966 c0 -3 -4 -8 -10 -11 -5 -3 -10 -1 -10 4 0 6 5 11 10 11 6 0 10 -2 10 -4z" fill="#ffffff" id="ffffff-000227"/>
    <path stroke="none" d="M1871 6897 c-8 -8 -11 -5 -11 9 0 27 14 41 18 19 2 -9 -1 -22 -7 -28z" fill="#ffffff" id="ffffff-000232"/>
    <path stroke="none" d="M1867 6798 c-3 -7 -5 -2 -5 12 0 14 2 19 5 13 2 -7 2 -19 0 -25z" fill="#ffffff" id="ffffff-000236"/>
    <path stroke="none" d="M6158 6804 c34 -10 26 -24 -13 -24 -24 0 -35 5 -35 15 0 16 12 18 48 9z" fill="#ffffff" id="ffffff-000238"/>
    <path stroke="none" d="M6315 6790 c3 -5 1 -10 -4 -10 -6 0 -11 5 -11 10 0 6 2 10 4 10 3 0 8 -4 11 -10z" fill="#ffffff" id="ffffff-000244"/>
    <path stroke="none" d="M6264 6704 c21 -8 20 -21 -2 -26 -12 -4 -18 1 -18 13 0 22 -1 21 20 13z" fill="#ffffff" id="ffffff-000250"/>
    <path stroke="none" d="M6190 6685 l25 -15 -34 2 c-19 2 -36 9 -39 16 -5 16 17 15 48 -3z" fill="#ffffff" id="ffffff-000260"/>
    <path stroke="none" d="M3807 6673 c-4 -3 -7 0 -7 7 0 7 3 10 7 7 3 -4 3 -10 0 -14z" fill="#ffffff" id="ffffff-000254"/>
    <path stroke="none" d="M6531 6669 l-24 -19 25 -23 c13 -12 30 -31 38 -42 8 -11 0 -7 -17 9 -38 34 -53 28 -53 -25 0 -21 -4 -39 -8 -39 -11 0 -9 72 3 90 5 8 8 23 7 33 -2 10 6 21 20 26 34 14 36 12 9 -10z" fill="#ffffff" id="ffffff-000262"/>
    <path stroke="none" d="M6360 6610 c0 -4 -8 -14 -17 -23 -17 -15 -18 -13 -19 30 l-1 46 18 -22 c11 -13 19 -27 19 -31z" fill="#ffffff" id="ffffff-000266"/>
    <path stroke="none" d="M1522 6600 c3 -30 7 -35 30 -38 28 -3 31 1 41 68 3 14 5 -1 6 -33 l1 -58 -47 3 c-44 3 -48 5 -51 31 -4 31 -14 34 -33 11 -18 -22 -68 -46 -87 -42 -12 3 -6 9 19 22 21 9 51 33 69 53 36 39 47 35 52 -17z" fill="#ffffff" id="ffffff-000263"/>
    <path stroke="none" d="M3327 6593 c-4 -3 -7 0 -7 7 0 7 3 10 7 7 3 -4 3 -10 0 -14z" fill="#ffffff" id="ffffff-000273"/>
    <path stroke="none" d="M3360 6550 c12 -8 11 -10 -7 -10 -12 0 -25 5 -28 10 -8 13 15 13 35 0z" fill="#ffffff" id="ffffff-000287"/>
    <path stroke="none" d="M6120 6550 c0 -5 -7 -10 -15 -10 -8 0 -15 5 -15 10 0 6 7 10 15 10 8 0 15 -4 15 -10z" fill="#ffffff" id="ffffff-000288"/>
    <path stroke="none" d="M1340 6540 c0 -5 -7 -10 -15 -10 -8 0 -15 5 -15 10 0 6 7 10 15 10 8 0 15 -4 15 -10z" fill="#ffffff" id="ffffff-000284"/>
    <path stroke="none" d="M6671 6537 c-1 -12 -15 -9 -19 4 -3 6 1 10 8 8 6 -3 11 -8 11 -12z" fill="#ffffff" id="ffffff-000291"/>
    <path stroke="none" d="M4856 6332 c-3 -5 -20 -12 -37 -16 -36 -7 -87 3 -69 14 17 10 112 12 106 2z" fill="#ffffff" id="ffffff-000297"/>
    <path stroke="none" d="M6047 6101 c5 -3 8 -98 8 -211 l0 -205 33 -3 c37 -4 44 -22 7 -22 -25 0 -51 -32 -40 -50 3 -6 22 -10 40 -10 25 0 37 6 46 22 l12 22 9 -23 c12 -33 3 -41 -44 -41 -79 0 -78 5 -78 -320 l0 -287 -322 -5 c-178 -3 -456 -5 -618 -4 l-295 1 -5 112 -5 111 72 7 c73 7 111 23 99 43 -5 8 -32 9 -86 5 l-79 -6 -3 79 -3 79 -92 3 c-81 2 -93 1 -93 -14 0 -52 72 -124 124 -124 14 0 28 -4 31 -10 11 -18 -42 -10 -85 13 -68 36 -112 101 -96 142 4 12 25 15 99 15 67 0 98 4 106 13 18 23 2 27 -100 27 -60 0 -100 4 -105 11 -11 18 38 100 75 125 27 18 49 24 89 24 46 0 53 3 50 18 -2 13 -17 18 -68 22 -69 6 -56 17 25 22 l40 3 1 175 c2 260 -1 238 37 243 53 6 1205 5 1214 -2z" fill="#ffffff" id="ffffff-000298"/>
    <path stroke="none" d="M3420 5680 c11 -7 8 -10 -15 -10 -41 0 -140 -26 -191 -49 -43 -21 -99 -93 -90 -117 3 -8 15 -14 26 -14 23 0 38 -26 23 -41 -6 -6 -19 -6 -36 0 -20 8 -27 7 -31 -5 -13 -33 -5 -64 18 -80 14 -8 22 -22 20 -29 -6 -16 12 -55 35 -73 9 -7 37 -24 64 -38 41 -21 61 -25 148 -25 87 -1 108 2 146 22 57 29 116 96 132 148 11 39 31 56 31 27 0 -22 -30 -87 -56 -122 -47 -61 -197 -121 -276 -110 -24 3 -57 7 -73 10 -41 5 -101 40 -152 87 -37 34 -49 39 -91 39 -26 0 -53 -5 -60 -12 -15 -15 -24 -6 -16 16 5 12 17 17 43 16 52 -3 61 -1 61 10 0 6 -19 10 -43 10 -24 0 -46 2 -49 5 -6 6 12 62 27 85 11 17 33 113 34 148 1 17 -5 22 -22 22 -24 0 -47 -33 -47 -68 0 -9 -9 -28 -20 -42 -11 -14 -20 -36 -20 -51 0 -28 -21 -79 -32 -79 -5 0 -8 18 -8 40 l0 40 -54 0 c-46 0 -56 -3 -70 -25 -19 -29 -14 -45 15 -45 26 0 24 -16 -3 -24 -28 -7 -68 -8 -68 -1 0 3 4 13 9 23 20 38 41 99 47 137 4 22 11 46 17 54 9 10 6 17 -8 27 -29 21 -38 14 -66 -56 -14 -35 -31 -66 -37 -68 -7 -2 -10 -13 -6 -27 3 -12 1 -26 -4 -29 -5 -3 -12 4 -15 17 -6 20 -12 22 -67 21 -57 -1 -60 0 -60 22 0 13 1 24 3 25 1 0 31 2 67 5 36 3 70 7 77 9 7 2 19 29 28 60 l16 55 50 0 c59 0 65 -10 44 -70 -8 -23 -14 -45 -12 -46 2 -2 20 -6 41 -9 48 -8 96 3 96 21 0 8 9 33 20 54 20 39 22 40 70 40 43 0 50 -3 50 -19 0 -11 -4 -23 -10 -26 -13 -8 -13 -65 0 -65 5 0 22 19 38 43 33 47 96 101 139 118 64 26 148 35 173 19z" fill="#ffffff" id="ffffff-000311"/>
    <path stroke="none" d="M3505 5670 c3 -5 -1 -10 -9 -10 -9 0 -16 5 -16 10 0 6 4 10 9 10 6 0 13 -4 16 -10z" fill="#ffffff" id="ffffff-000300"/>
    <path stroke="none" d="M3928 5654 c18 -26 20 -26 48 -12 84 44 208 52 271 17 49 -26 82 -64 90 -100 3 -16 10 -32 14 -35 5 -3 9 -81 9 -173 l0 -168 -56 -7 c-30 -3 -59 -4 -63 -2 -4 3 -11 82 -15 177 -7 184 -14 206 -65 234 -23 13 -24 14 -5 15 26 0 84 -56 85 -84 0 -11 2 -80 3 -153 3 -144 10 -166 55 -161 l26 3 0 177 0 177 -30 31 c-47 50 -95 70 -168 70 -72 0 -119 -16 -166 -56 -34 -29 -47 -25 -53 16 -2 20 -9 26 -35 28 -30 3 -32 1 -35 -34 -5 -59 -28 -56 -28 4 0 27 3 52 7 55 3 4 25 7 49 7 34 0 46 -5 62 -26z" fill="#ffffff" id="ffffff-000322"/>
    <path stroke="none" d="M6655 5670 c3 -5 18 -10 32 -10 22 0 24 -3 18 -27 -10 -42 -29 -57 -62 -48 l-28 8 33 9 c17 5 32 15 32 23 0 29 -40 38 -145 33 -84 -5 -110 -10 -156 -33 -104 -52 -144 -112 -142 -212 3 -101 42 -160 132 -194 47 -18 76 -21 184 -21 70 1 125 -3 122 -7 -3 -5 -42 -14 -87 -21 -98 -13 -176 1 -251 45 -97 56 -134 129 -122 239 10 87 61 155 142 188 21 9 49 20 63 26 32 14 227 15 235 2z" fill="#ffffff" id="ffffff-000303"/>
    <path stroke="none" d="M4631 5639 c-87 -53 -131 -123 -131 -209 0 -38 -4 -60 -11 -60 -17 0 -5 139 14 176 20 38 54 69 103 94 52 26 68 25 25 -1z" fill="#ffffff" id="ffffff-000323"/>
    <path stroke="none" d="M3462 5610 c40 -12 81 -53 103 -107 18 -43 19 -135 3 -166 -42 -74 -90 -101 -178 -100 -74 0 -131 28 -169 81 -21 30 -30 89 -11 77 6 -3 10 -16 10 -29 0 -12 17 -38 40 -61 32 -31 49 -40 92 -45 118 -16 197 43 206 153 6 79 -24 137 -87 165 -26 12 -63 22 -82 23 -31 1 -32 2 -9 9 35 11 40 11 82 0z" fill="#ffffff" id="ffffff-000340"/>
    <path stroke="none" d="M4100 5598 c-19 -5 -46 -12 -60 -15 -14 -3 -40 -19 -57 -36 -41 -39 -56 -27 -18 13 33 34 71 48 130 48 l40 0 -35 -10z" fill="#ffffff" id="ffffff-000314"/>
    <path stroke="none" d="M6515 5595 c-22 -8 -46 -15 -54 -15 -43 0 -121 -104 -121 -160 0 -12 -4 -18 -10 -15 -5 3 -10 17 -10 30 0 13 5 27 10 30 6 3 10 17 10 31 0 13 9 29 20 36 11 7 20 19 20 26 0 20 80 52 130 51 l45 0 -40 -14z" fill="#ffffff" id="ffffff-000316"/>
    <path stroke="none" d="M3327 5593 c-4 -3 -10 -3 -14 0 -3 4 0 7 7 7 7 0 10 -3 7 -7z" fill="#ffffff" id="ffffff-000317"/>
    <path stroke="none" d="M7190 5562 c0 -14 -11 -21 -26 -15 -21 8 -17 23 6 23 11 0 20 -4 20 -8z" fill="#ffffff" id="ffffff-000327"/>
    <path stroke="none" d="M6843 5553 c-7 -2 -19 -2 -25 0 -7 3 -2 5 12 5 14 0 19 -2 13 -5z" fill="#ffffff" id="ffffff-000332"/>
    <path stroke="none" d="M7100 5556 c0 -3 -4 -8 -10 -11 -5 -3 -10 -1 -10 4 0 6 5 11 10 11 6 0 10 -2 10 -4z" fill="#ffffff" id="ffffff-000345"/>
    <path stroke="none" d="M7463 5553 c-7 -2 -19 -2 -25 0 -7 3 -2 5 12 5 14 0 19 -2 13 -5z" fill="#ffffff" id="ffffff-000336"/>
    <path stroke="none" d="M6946 5526 c3 -14 4 -33 1 -43 -3 -11 -5 -6 -6 13 0 16 -6 35 -13 42 -9 9 -9 12 0 12 6 0 14 -11 18 -24z" fill="#ffffff" id="ffffff-000349"/>
    <path stroke="none" d="M7407 5533 c-4 -3 -10 -3 -14 0 -3 4 0 7 7 7 7 0 10 -3 7 -7z" fill="#ffffff" id="ffffff-000346"/>
    <path stroke="none" d="M6900 5490 c0 -16 -4 -32 -10 -35 -6 -4 -10 10 -10 35 0 25 4 39 10 35 6 -3 10 -19 10 -35z" fill="#ffffff" id="ffffff-000343"/>
    <path stroke="none" d="M7580 5495 c0 -13 -4 -27 -10 -30 -6 -4 -10 8 -10 30 0 22 4 34 10 30 6 -3 10 -17 10 -30z" fill="#ffffff" id="ffffff-000348"/>
    <path stroke="none" d="M3954 5421 c-3 -33 -9 -61 -13 -61 -3 0 -5 28 -5 63 2 81 2 83 15 70 6 -6 8 -32 3 -72z" fill="#ffffff" id="ffffff-000352"/>
    <path stroke="none" d="M7740 5492 c0 -5 -9 -17 -19 -26 -19 -17 -20 -17 -30 2 -11 21 -11 21 42 31 4 0 7 -3 7 -7z" fill="#ffffff" id="ffffff-000355"/>
    <path stroke="none" d="M7858 5471 c-7 -11 -16 -17 -20 -14 -10 5 10 33 23 33 5 0 4 -9 -3 -19z" fill="#ffffff" id="ffffff-000357"/>
    <path stroke="none" d="M7079 5461 c16 -10 6 -31 -14 -31 -17 0 -28 17 -20 30 8 12 16 12 34 1z" fill="#ffffff" id="ffffff-000361"/>
    <path stroke="none" d="M7660 5369 c0 -51 -4 -78 -10 -74 -5 3 -10 42 -10 86 0 51 4 78 10 74 6 -3 10 -42 10 -86z" fill="#ffffff" id="ffffff-000354"/>
    <path stroke="none" d="M7800 5355 c0 -43 -4 -75 -10 -75 -6 0 -10 32 -10 75 0 43 4 75 10 75 6 0 10 -32 10 -75z" fill="#ffffff" id="ffffff-000367"/>
    <path stroke="none" d="M2656 5355 c-4 -10 -20 -15 -53 -15 -26 0 -55 -5 -63 -10 -11 -7 2 -10 43 -10 37 0 57 -4 57 -12 0 -20 -24 -78 -32 -78 -12 0 -10 38 2 45 21 13 -3 25 -51 25 -42 0 -51 3 -58 23 -5 12 -7 25 -4 30 2 4 33 7 67 7 46 0 67 4 77 16 15 18 25 4 15 -21z" fill="#ffffff" id="ffffff-000372"/>
    <path stroke="none" d="M6364 5350 c15 -31 9 -39 -12 -18 -11 11 -17 48 -8 48 3 0 11 -13 20 -30z" fill="#ffffff" id="ffffff-000377"/>
    <path stroke="none" d="M7927 5323 c-3 -10 -5 -2 -5 17 0 19 2 27 5 18 2 -10 2 -26 0 -35z" fill="#ffffff" id="ffffff-000376"/>
    <path stroke="none" d="M7696 5293 c-11 -29 -17 -6 -9 33 7 36 8 37 11 11 2 -16 1 -36 -2 -44z" fill="#ffffff" id="ffffff-000384"/>
    <path stroke="none" d="M7081 5318 c11 -21 11 -22 -4 -9 -10 7 -17 17 -17 22 0 15 9 10 21 -13z" fill="#ffffff" id="ffffff-000389"/>
    <path stroke="none" d="M7315 5330 c3 -5 -1 -10 -9 -10 -9 0 -16 5 -16 10 0 6 4 10 9 10 6 0 13 -4 16 -10z" fill="#ffffff" id="ffffff-000390"/>
    <path stroke="none" d="M7510 5307 c27 -3 23 -4 -17 -5 -49 -2 -63 5 -46 21 3 4 11 3 17 -2 6 -5 27 -11 46 -14z" fill="#ffffff" id="ffffff-000392"/>
    <path stroke="none" d="M6955 5298 c7 -7 2 -9 -15 -4 -14 3 -46 6 -72 6 -27 0 -48 4 -48 8 0 12 123 2 135 -10z" fill="#ffffff" id="ffffff-000388"/>
    <path stroke="none" d="M7280 5304 c0 -8 -4 -12 -10 -9 -5 3 -10 10 -10 16 0 5 5 9 10 9 6 0 10 -7 10 -16z" fill="#ffffff" id="ffffff-000402"/>
    <path stroke="none" d="M8091 5287 c-13 -13 -26 -3 -16 12 3 6 11 8 17 5 6 -4 6 -10 -1 -17z" fill="#ffffff" id="ffffff-000393"/>
    <path stroke="none" d="M3947 5258 c-3 -7 -5 -2 -5 12 0 14 2 19 5 13 2 -7 2 -19 0 -25z" fill="#ffffff" id="ffffff-000405"/>
    <path stroke="none" d="M2967 5223 c-4 -3 -7 0 -7 7 0 7 3 10 7 7 3 -4 3 -10 0 -14z" fill="#ffffff" id="ffffff-000412"/>
    <path stroke="none" d="M2957 5187 c-3 -9 -15 -13 -31 -10 -14 3 -23 9 -20 14 3 5 9 7 13 5 4 -3 13 -1 21 4 18 11 24 6 17 -13z" fill="#ffffff" id="ffffff-000419"/>
    <path stroke="none" d="M3940 5185 c-7 -8 -17 -15 -22 -15 -6 0 -5 7 2 15 7 8 17 15 22 15 6 0 5 -7 -2 -15z" fill="#ffffff" id="ffffff-000421"/>
    <path stroke="none" d="M2870 5180 c13 -8 13 -10 -2 -10 -9 0 -20 5 -23 10 -8 13 5 13 25 0z" fill="#ffffff" id="ffffff-000418"/>
    <path stroke="none" d="M5855 4821 c62 -36 69 -156 13 -212 -24 -23 -38 -29 -74 -29 -51 0 -111 -33 -120 -66 -3 -11 -4 -40 -2 -65 3 -42 5 -45 62 -75 79 -41 157 -112 223 -201 31 -42 61 -73 71 -73 10 0 33 -13 52 -30 19 -16 41 -29 48 -30 7 0 32 13 55 29 23 15 53 31 67 34 14 3 35 9 48 12 14 5 22 3 22 -4 0 -12 -28 -26 -70 -35 -14 -3 -47 -22 -73 -42 l-48 -37 -44 43 c-29 28 -49 41 -59 37 -15 -6 -15 -10 -1 -43 8 -20 15 -51 15 -69 0 -40 15 -54 56 -51 34 1 64 21 64 41 0 17 45 53 89 71 66 28 125 16 168 -35 32 -37 28 -47 -6 -19 -16 14 -48 30 -72 37 -37 10 -50 10 -81 -3 -56 -24 -78 -59 -78 -125 0 -32 -4 -61 -10 -67 -5 -5 -11 -63 -12 -129 l-3 -120 -60 0 -60 0 -1 45 c-1 25 0 35 3 24 6 -33 37 -56 70 -52 l28 3 3 88 c1 48 -1 87 -6 87 -5 0 -30 -22 -56 -50 -26 -27 -51 -50 -56 -50 -5 0 -17 -17 -26 -37 -151 -325 -546 -455 -887 -292 -36 17 -85 47 -108 67 -45 39 -159 177 -159 193 0 6 15 16 34 24 35 15 87 68 109 113 20 39 29 144 15 184 -23 69 -102 148 -147 148 -22 0 -24 -50 -3 -73 31 -34 52 -94 52 -149 0 -51 -15 -88 -59 -148 -14 -19 -26 -36 -27 -38 -1 -1 -30 -10 -64 -19 -59 -15 -67 -14 -119 2 -121 38 -178 153 -136 276 20 55 42 82 90 109 33 18 52 21 127 19 117 -4 150 24 58 48 -39 11 -195 -6 -244 -26 -34 -14 -96 -77 -115 -117 -7 -16 -17 -37 -22 -46 -26 -51 21 -211 70 -238 11 -5 25 -16 33 -23 14 -13 59 -37 93 -48 18 -6 18 -7 -3 -8 -42 -2 -182 86 -182 114 0 6 -5 16 -12 23 -15 15 -19 33 -25 103 -4 44 0 66 18 105 27 59 69 114 87 114 6 0 12 4 12 9 0 5 30 23 67 41 65 32 69 32 180 28 108 -4 115 -3 125 16 43 85 177 208 275 253 49 23 53 29 53 85 0 45 -3 49 -40 74 -22 15 -40 31 -40 35 0 5 -11 9 -24 9 -28 0 -56 9 -56 19 0 3 15 12 33 20 17 7 47 20 65 28 67 29 138 45 241 52 142 11 257 -11 372 -68 75 -37 93 -38 124 -6 21 20 25 34 25 84 0 90 -4 91 -236 91 -104 0 -274 -1 -377 -3 -104 -2 -191 1 -193 5 -3 4 5 8 18 9 13 0 65 2 115 3 51 1 95 5 99 8 3 4 121 6 262 7 228 0 260 -2 287 -18z" fill="#ffffff" id="ffffff-000427"/>
    <path stroke="none" d="M4382 4343 c22 -19 23 -42 4 -68 -11 -15 -24 -19 -55 -16 -90 6 -151 -41 -151 -116 l0 -38 77 0 78 0 3 -48 c3 -53 -8 -64 -56 -52 l-27 7 33 14 c23 9 32 19 30 31 -3 15 -17 19 -78 23 l-75 5 -3 47 c-6 91 48 148 141 148 56 0 80 17 54 39 -19 15 -113 25 -121 12 -4 -6 -16 -11 -27 -11 -71 0 -149 -111 -149 -211 0 -26 -4 -28 -42 -31 -35 -2 -43 -7 -43 -23 0 -15 9 -21 38 -26 20 -3 39 -8 41 -10 13 -12 9 -419 -4 -419 -6 0 -11 81 -12 208 l-3 207 -42 3 c-35 3 -44 7 -49 27 -10 40 11 65 56 65 40 0 40 0 40 38 0 60 39 130 95 168 61 43 212 59 247 27z" fill="#ffffff" id="ffffff-000429"/>
    <path stroke="none" d="M3763 4111 c12 -4 39 -6 59 -3 21 2 49 1 64 -2 22 -6 25 -11 22 -44 l-3 -37 -80 -10 -80 -10 -3 -151 c-2 -136 -1 -154 16 -174 17 -21 27 -23 81 -22 l61 2 0 -44 c0 -53 -5 -55 -105 -58 -58 -2 -78 2 -112 22 -70 39 -82 78 -84 267 -1 87 2 158 7 158 4 0 10 -72 11 -160 4 -183 12 -209 71 -243 31 -17 56 -22 117 -22 74 0 76 1 73 23 -3 19 -11 23 -63 28 -94 11 -96 16 -93 228 l3 176 75 -3 c80 -3 107 6 97 32 -5 13 -23 16 -92 16 l-85 0 0 58 c0 71 14 92 18 27 3 -37 8 -48 25 -54z" fill="#ffffff" id="ffffff-000449"/>
    <path stroke="none" d="M2260 4107 c20 -6 48 -20 63 -30 14 -9 30 -17 35 -17 16 0 70 -65 87 -105 24 -54 22 -190 -2 -242 -19 -40 -90 -99 -163 -135 -36 -19 -61 -23 -123 -22 -71 1 -93 6 -149 35 -45 23 -48 16 -48 -115 0 -114 -2 -125 -19 -131 -25 -8 -73 4 -65 17 4 5 17 8 30 5 14 -2 27 0 31 6 3 6 5 68 4 139 -2 124 -2 128 18 128 12 0 21 -4 21 -9 0 -21 104 -51 181 -51 123 0 201 44 257 147 26 49 30 151 7 206 -39 94 -118 146 -235 154 -91 7 -150 -10 -211 -58 -41 -31 -59 -25 -59 23 0 26 -3 28 -40 28 l-40 0 0 -59 c0 -33 -5 -63 -10 -66 -7 -5 -10 19 -8 72 l3 78 55 -1 c51 -1 55 -3 58 -27 3 -25 30 -45 41 -29 13 18 70 52 89 52 12 0 24 5 27 10 9 14 123 12 165 -3z" fill="#ffffff" id="ffffff-000438"/>
    <path stroke="none" d="M3285 4099 c47 -22 72 -45 61 -56 -3 -4 -16 3 -29 15 -13 12 -34 22 -48 22 -14 0 -29 4 -34 9 -15 13 -232 -7 -267 -25 -24 -12 -27 -18 -17 -30 13 -16 55 -19 64 -4 3 6 32 10 63 9 62 -1 64 0 -63 -33 -59 -16 -60 -16 -77 7 -15 18 -25 57 -15 57 1 0 34 11 72 25 95 32 225 35 290 4z" fill="#ffffff" id="ffffff-000432"/>
    <path stroke="none" d="M3507 4033 c-4 -3 -7 0 -7 7 0 7 3 10 7 7 3 -4 3 -10 0 -14z" fill="#ffffff" id="ffffff-000445"/>
    <path stroke="none" d="M2226 4026 c115 -60 156 -213 86 -319 -27 -41 -95 -77 -145 -77 -42 0 -22 19 28 27 76 12 124 81 126 182 1 54 -20 110 -56 147 -18 18 -114 37 -158 30 l-42 -6 30 14 c40 19 96 19 131 2z" fill="#ffffff" id="ffffff-000479"/>
    <path stroke="none" d="M3246 4015 c23 -18 34 -36 39 -66 4 -22 3 -45 -2 -50 -5 -5 -45 -12 -88 -15 -127 -10 -225 -39 -259 -77 -37 -42 -49 -74 -41 -117 14 -72 78 -110 187 -110 63 0 82 5 140 34 69 35 78 35 78 4 0 -20 -15 -24 -25 -7 -5 7 -12 6 -23 -4 -63 -55 -213 -69 -287 -27 -77 43 -111 103 -94 166 6 22 18 47 27 57 28 32 100 76 139 86 62 15 157 31 191 31 25 0 32 4 32 19 0 30 -48 81 -76 81 -13 0 -24 5 -24 10 0 19 53 10 86 -15z" fill="#ffffff" id="ffffff-000453"/>
    <path stroke="none" d="M4198 4006 c-12 -9 -18 -27 -18 -55 0 -26 -4 -40 -10 -36 -25 15 -2 105 27 105 17 -1 17 -1 1 -14z" fill="#ffffff" id="ffffff-000459"/>
    <path stroke="none" d="M6939 3932 c24 -34 40 -89 22 -78 -6 4 -11 15 -11 25 0 29 -34 60 -76 70 l-39 9 42 1 c35 1 45 -4 62 -27z" fill="#ffffff" id="ffffff-000482"/>
    <path stroke="none" d="M7044 3858 c0 -24 -4 -52 -9 -63 -7 -16 -10 -8 -16 40 -3 33 -10 71 -14 85 l-8 25 23 -22 c17 -16 23 -34 24 -65z" fill="#ffffff" id="ffffff-000478"/>
    <path stroke="none" d="M6806 3895 c-11 -34 -26 -47 -26 -22 0 11 27 57 34 57 2 0 -2 -16 -8 -35z" fill="#ffffff" id="ffffff-000486"/>
    <path stroke="none" d="M7210 3912 c0 -5 -13 -7 -30 -4 -16 2 -30 6 -30 8 0 2 14 4 30 4 17 0 30 -4 30 -8z" fill="#ffffff" id="ffffff-000483"/>
    <path stroke="none" d="M6717 3858 c-3 -7 -5 -2 -5 12 0 14 2 19 5 13 2 -7 2 -19 0 -25z" fill="#ffffff" id="ffffff-000493"/>
    <path stroke="none" d="M3250 3841 c0 -8 -71 -21 -120 -21 -36 0 -87 -27 -106 -55 -11 -16 -13 -34 -8 -59 12 -65 90 -83 179 -40 52 24 54 10 2 -20 -41 -24 -47 -25 -103 -15 -66 12 -99 36 -108 80 -13 66 45 115 154 129 81 11 110 11 110 1z" fill="#ffffff" id="ffffff-000489"/>
    <path stroke="none" d="M6567 3778 c-3 -7 -5 -2 -5 12 0 14 2 19 5 13 2 -7 2 -19 0 -25z" fill="#ffffff" id="ffffff-000494"/>
    <path stroke="none" d="M6960 3795 c14 -17 -9 -63 -42 -84 -19 -12 -20 -12 -4 10 9 13 16 32 16 42 0 14 -4 16 -19 7 -25 -13 -81 -13 -101 0 -11 7 3 10 48 10 48 0 62 3 62 15 0 19 24 19 40 0z" fill="#ffffff" id="ffffff-000502"/>
    <path stroke="none" d="M1981 3721 c15 -20 43 -45 63 -55 45 -21 41 -32 -7 -17 -34 12 -61 36 -84 78 -28 49 -6 44 28 -6z" fill="#ffffff" id="ffffff-000514"/>
    <path stroke="none" d="M7214 3723 c-9 -38 -11 -39 -16 -3 -3 21 0 30 9 30 10 0 11 -8 7 -27z" fill="#ffffff" id="ffffff-000504"/>
    <path stroke="none" d="M6578 3658 c-1 -86 -9 -98 -63 -98 -72 0 -75 3 -75 81 0 39 4 69 10 69 6 0 10 -25 10 -55 0 -49 2 -55 24 -61 55 -14 73 7 75 89 2 64 19 41 19 -25z" fill="#ffffff" id="ffffff-000474"/>
    <path stroke="none" d="M6786 3669 c10 -17 -23 -46 -38 -31 -8 8 -8 15 2 27 15 18 26 19 36 4z" fill="#ffffff" id="ffffff-000520"/>
    <path stroke="none" d="M4690 3573 c0 -5 -16 -8 -35 -9 -19 0 -35 3 -35 8 0 4 16 8 35 8 19 0 35 -3 35 -7z" fill="#ffffff" id="ffffff-000539"/>
    <path stroke="none" d="M1827 3408 c-3 -8 -6 -5 -6 6 -1 11 2 17 5 13 3 -3 4 -12 1 -19z" fill="#ffffff" id="ffffff-000542"/>
    <path stroke="none" d="M1835 3360 c3 -5 4 -10 1 -10 -3 0 -8 5 -11 10 -3 6 -4 10 -1 10 3 0 8 -4 11 -10z" fill="#ffffff" id="ffffff-000527"/>
    <path stroke="none" d="M8210 3100 c29 0 105 -80 118 -124 13 -47 2 -118 -31 -186 -29 -62 -90 -151 -118 -175 l-24 -20 23 26 c12 14 22 29 22 33 0 4 13 26 28 49 51 75 74 145 75 223 1 67 -1 76 -29 111 -30 37 -33 38 -105 41 -64 2 -78 0 -97 -18 -21 -20 -30 -17 -14 5 17 23 90 47 120 39 8 -2 22 -4 32 -4z" fill="#ffffff" id="ffffff-000563"/>
    <path stroke="none" d="M8629 3086 c9 -11 2 -12 -38 -8 -47 4 -111 -13 -111 -30 0 -5 -6 -8 -12 -8 -7 0 2 14 20 30 26 25 41 30 81 30 29 0 53 -6 60 -14z" fill="#ffffff" id="ffffff-000544"/>
    <path stroke="none" d="M9010 3078 c0 -17 -3 -19 -12 -10 -7 7 -23 12 -36 12 -13 0 -20 4 -17 10 3 6 19 10 36 10 23 0 29 -4 29 -22z" fill="#ffffff" id="ffffff-000545"/>
    <path stroke="none" d="M9455 3060 c0 -34 -1 -35 -43 -38 -29 -2 -42 0 -37 7 3 6 17 11 31 11 17 0 24 5 24 20 0 60 -161 -26 -208 -112 -17 -31 -32 -75 -48 -143 -7 -29 -8 -29 -12 -6 -8 52 42 171 93 221 46 44 123 80 165 77 33 -2 35 -4 35 -37z" fill="#ffffff" id="ffffff-000546"/>
    <path stroke="none" d="M8203 3028 c24 -14 37 -28 37 -41 0 -5 -13 1 -29 12 -34 25 -96 28 -118 6 -17 -17 -34 -16 -41 3 -2 7 7 12 22 12 13 0 28 5 31 10 9 14 71 12 98 -2z" fill="#ffffff" id="ffffff-000551"/>
    <path stroke="none" d="M8605 3020 c10 -11 16 -22 13 -25 -3 -3 -11 1 -18 10 -18 22 -56 18 -74 -7 -9 -12 -19 -19 -22 -15 -12 11 38 57 61 57 12 0 30 -9 40 -20z" fill="#ffffff" id="ffffff-000558"/>
    <path stroke="none" d="M8860 3030 c0 -5 -4 -10 -10 -10 -5 0 -10 -9 -10 -20 0 -26 24 -26 61 1 27 19 49 19 49 0 0 -8 -88 -41 -110 -41 -20 0 -29 44 -12 63 17 19 32 22 32 7z" fill="#ffffff" id="ffffff-000567"/>
    <path stroke="none" d="M1537 3008 c21 -22 5 -72 -25 -76 -12 -2 -22 1 -22 7 0 6 7 11 15 11 8 0 15 9 15 19 0 16 -10 21 -46 27 -99 14 -221 -55 -237 -135 -7 -33 -27 -43 -27 -13 1 58 64 134 135 160 62 23 168 23 192 0z" fill="#ffffff" id="ffffff-000561"/>
    <path stroke="none" d="M8700 2994 c0 -8 -4 -12 -10 -9 -5 3 -10 10 -10 16 0 5 5 9 10 9 6 0 10 -7 10 -16z" fill="#ffffff" id="ffffff-000575"/>
    <path stroke="none" d="M8639 2942 c0 -24 -1 -25 -9 -7 -12 28 -12 47 0 40 6 -3 10 -18 9 -33z" fill="#ffffff" id="ffffff-000574"/>
    <path stroke="none" d="M8260 2920 c0 -14 -5 -32 -10 -40 -7 -11 -10 1 -10 40 0 39 3 51 10 40 5 -8 10 -26 10 -40z" fill="#ffffff" id="ffffff-000579"/>
    <path stroke="none" d="M8496 2938 c-4 -18 -10 -82 -13 -143 -4 -70 -9 -103 -14 -90 -18 47 1 265 24 265 5 0 6 -15 3 -32z" fill="#ffffff" id="ffffff-000573"/>
    <path stroke="none" d="M8724 2923 c15 -83 18 -216 6 -261 -16 -63 -42 -120 -48 -104 -2 7 2 20 9 29 10 11 14 62 14 198 0 177 6 216 19 138z" fill="#ffffff" id="ffffff-000591"/>
    <path stroke="none" d="M9280 2925 c-27 -49 -26 -69 3 -60 56 18 92 17 126 -7 38 -25 75 -81 68 -100 -3 -8 -7 -6 -12 7 -5 11 -26 37 -47 58 -51 48 -95 50 -141 7 -32 -30 -57 -39 -57 -20 0 21 25 90 32 90 5 0 8 5 8 12 0 10 28 48 36 48 2 0 -5 -16 -16 -35z" fill="#ffffff" id="ffffff-000592"/>
    <path stroke="none" d="M1440 2940 c0 -5 -12 -13 -27 -16 -15 -4 -33 -12 -38 -18 -18 -19 -37 -73 -33 -98 3 -22 7 -23 78 -23 l75 0 0 -45 0 -45 -65 0 c-70 0 -95 -9 -86 -31 3 -8 1 -24 -5 -36 -7 -18 -9 -13 -5 25 2 26 7 51 10 54 4 4 31 7 61 8 59 1 71 6 62 30 -5 10 -20 15 -51 15 -68 0 -96 14 -96 49 0 36 23 92 47 112 30 27 73 38 73 19z" fill="#ffffff" id="ffffff-000595"/>
    <path stroke="none" d="M8419 2763 c0 -92 -4 -140 -9 -128 -16 38 -11 275 6 275 2 0 4 -66 3 -147z" fill="#ffffff" id="ffffff-000586"/>
    <path stroke="none" d="M3094 2833 l1 -48 80 -5 80 -5 0 -35 -1 -35 -75 -3 -76 -3 -11 -50 c-8 -31 -9 -57 -3 -67 5 -10 8 -56 8 -104 -2 -108 9 -122 91 -113 l52 5 0 -44 c0 -50 -6 -53 -101 -63 -36 -3 -59 -1 -63 6 -4 6 -15 11 -25 11 -22 0 -54 34 -74 80 -19 41 -29 340 -12 340 6 0 11 -63 13 -162 3 -161 3 -163 31 -198 32 -40 111 -66 168 -55 63 12 52 55 -14 55 -87 0 -105 40 -102 213 3 178 -4 167 89 167 75 0 104 10 84 30 -5 5 -43 10 -84 12 l-75 3 -3 49 c-3 50 4 84 15 72 3 -3 7 -27 7 -53z" fill="#ffffff" id="ffffff-000590"/>
    <path stroke="none" d="M8647 2838 c-2 -13 -4 -5 -4 17 -1 22 1 32 4 23 2 -10 2 -28 0 -40z" fill="#ffffff" id="ffffff-000587"/>
    <path stroke="none" d="M8983 2495 c41 1 31 -29 -11 -33 -17 -2 -32 0 -32 5 -1 4 -3 53 -6 108 -2 55 -1 145 3 200 8 99 8 98 13 -90 l5 -190 28 0z" fill="#ffffff" id="ffffff-000593"/>
    <path stroke="none" d="M8209 2764 c-18 -32 -35 -61 -39 -64 -3 -3 -17 -21 -30 -40 -32 -47 -50 -64 -57 -56 -4 3 3 16 14 29 33 37 123 175 123 190 0 20 14 31 18 14 2 -8 -12 -41 -29 -73z" fill="#ffffff" id="ffffff-000636"/>
    <path stroke="none" d="M3640 2830 c0 -5 -9 -10 -19 -10 -11 0 -23 5 -26 10 -4 6 5 10 19 10 14 0 26 -4 26 -10z" fill="#ffffff" id="ffffff-000598"/>
    <path stroke="none" d="M9371 2793 c13 -16 30 -38 37 -50 14 -27 16 -73 2 -73 -5 0 -10 13 -10 28 0 90 -95 131 -147 63 -16 -21 -16 -102 -1 -138 25 -59 48 -83 79 -83 22 0 34 8 49 33 11 17 20 42 20 55 0 12 5 22 10 22 13 0 12 -17 -3 -61 -19 -55 -35 -69 -78 -69 -31 0 -42 6 -62 33 -43 58 -60 155 -34 199 38 69 98 86 138 41z" fill="#ffffff" id="ffffff-000626"/>
    <path stroke="none" d="M1220 2781 c0 -16 -8 -20 -37 -23 -27 -2 -39 -8 -41 -20 -3 -14 4 -18 32 -18 19 0 38 -5 41 -11 10 -15 6 -16 -48 -11 l-48 4 3 42 c3 40 4 41 35 38 17 -2 34 2 38 7 10 18 25 12 25 -8z" fill="#ffffff" id="ffffff-000605"/>
    <path stroke="none" d="M1936 2771 c26 -14 50 -33 52 -41 4 -12 1 -12 -14 2 -48 42 -169 58 -272 37 -67 -13 -77 -6 -20 14 25 9 77 15 125 14 69 0 90 -5 129 -26z" fill="#ffffff" id="ffffff-000606"/>
    <path stroke="none" d="M2623 2782 c54 -14 99 -52 126 -107 22 -45 24 -58 23 -218 -1 -193 1 -190 -80 -185 l-47 3 -3 55 c-3 58 14 62 20 5 3 -27 7 -30 41 -33 l37 -3 0 173 c0 153 -2 177 -19 204 -37 61 -121 104 -202 104 -26 0 -31 3 -19 10 16 11 62 8 123 -8z" fill="#ffffff" id="ffffff-000611"/>
    <path stroke="none" d="M2320 2760 c0 -13 7 -20 18 -20 10 0 35 9 57 20 42 22 70 26 60 10 -3 -5 -14 -10 -24 -10 -9 0 -37 -16 -60 -36 -44 -38 -57 -37 -63 6 -2 21 -9 26 -40 28 -36 3 -38 1 -38 -25 0 -40 -11 -74 -21 -67 -5 3 -9 30 -9 60 l0 54 60 0 c53 0 60 -2 60 -20z" fill="#ffffff" id="ffffff-000609"/>
    <path stroke="none" d="M1618 2749 c-10 -5 -18 -16 -18 -23 0 -18 29 -29 44 -18 6 5 40 12 76 15 l65 6 -65 -21 c-104 -32 -110 -32 -125 -12 -27 35 -16 62 25 63 12 0 11 -2 -2 -10z" fill="#ffffff" id="ffffff-000628"/>
    <path stroke="none" d="M4245 2750 c4 -6 -14 -10 -45 -10 -36 0 -61 -6 -81 -21 -23 -16 -28 -17 -23 -4 13 33 133 61 149 35z" fill="#ffffff" id="ffffff-000618"/>
    <path stroke="none" d="M1890 2708 c25 -16 42 -58 38 -94 -3 -27 -6 -29 -53 -31 -212 -10 -321 -69 -319 -173 0 -46 25 -90 51 -90 7 0 13 -4 13 -8 0 -5 25 -13 56 -19 67 -12 141 0 201 34 49 27 63 29 63 8 0 -8 -7 -15 -16 -15 -9 0 -28 -8 -42 -18 -37 -25 -132 -46 -180 -40 -61 9 -111 37 -144 82 -26 35 -29 48 -25 89 9 100 131 167 301 167 51 0 65 3 70 17 10 24 -23 64 -75 92 l-44 23 43 -6 c24 -4 52 -12 62 -18z" fill="#ffffff" id="ffffff-000629"/>
    <path stroke="none" d="M2577 2705 c16 -8 37 -23 46 -32 16 -19 39 -155 30 -180 -11 -27 -21 7 -15 53 6 60 -25 134 -57 134 -6 0 -11 5 -11 10 0 6 -25 10 -57 10 -42 0 -67 -6 -99 -25 -56 -33 -64 -49 -64 -134 0 -38 -5 -73 -10 -76 -6 -4 -10 10 -9 37 1 24 -1 53 -5 65 -4 12 -2 24 4 28 5 3 10 16 10 29 0 25 42 70 80 85 38 15 123 13 157 -4z" fill="#ffffff" id="ffffff-000631"/>
    <path stroke="none" d="M2885 2710 c3 -5 1 -10 -4 -10 -6 0 -11 5 -11 10 0 6 2 10 4 10 3 0 8 -4 11 -10z" fill="#ffffff" id="ffffff-000632"/>
    <path stroke="none" d="M2040 2644 c0 -14 -4 -22 -10 -19 -5 3 -10 17 -10 31 0 14 4 22 10 19 6 -3 10 -17 10 -31z" fill="#ffffff" id="ffffff-000639"/>
    <path stroke="none" d="M4106 2663 c6 -10 29 -24 50 -31 21 -7 48 -17 59 -22 11 -4 46 -18 77 -30 31 -12 63 -29 71 -38 21 -26 40 -80 33 -97 -9 -24 -23 -10 -31 31 -7 38 -48 83 -77 84 -9 0 -20 5 -23 10 -3 6 -15 10 -26 10 -10 0 -27 4 -37 8 -80 39 -97 50 -110 70 -8 12 -10 22 -6 22 5 0 14 -8 20 -17z" fill="#ffffff" id="ffffff-000645"/>
    <path stroke="none" d="M9020 2635 c0 -14 -4 -25 -10 -25 -5 0 -10 11 -10 25 0 14 5 25 10 25 6 0 10 -11 10 -25z" fill="#ffffff" id="ffffff-000583"/>
    <path stroke="none" d="M8623 2568 c-23 -40 -45 -53 -69 -43 -16 7 -15 9 11 14 23 5 35 16 50 49 12 26 21 37 23 28 2 -9 -5 -31 -15 -48z" fill="#ffffff" id="ffffff-000677"/>
    <path stroke="none" d="M2047 2578 c-3 -7 -5 -2 -5 12 0 14 2 19 5 13 2 -7 2 -19 0 -25z" fill="#ffffff" id="ffffff-000650"/>
    <path stroke="none" d="M8440 2572 c0 -7 -4 -10 -10 -7 -5 3 -10 16 -10 28 0 18 2 19 10 7 5 -8 10 -21 10 -28z" fill="#ffffff" id="ffffff-000655"/>
    <path stroke="none" d="M9480 2580 c0 -23 -11 -42 -45 -75 -40 -41 -49 -45 -93 -45 -53 0 -94 16 -111 42 -10 16 -7 15 24 -2 21 -12 54 -20 80 -20 40 0 50 5 85 41 22 23 40 49 40 59 0 15 8 30 17 30 2 0 3 -14 3 -30z" fill="#ffffff" id="ffffff-000689"/>
    <path stroke="none" d="M8156 2573 c-1 -16 11 -19 89 -23 l90 -5 0 -40 0 -40 -140 -2 c-76 -1 -147 3 -157 8 -10 5 -18 21 -18 34 0 30 16 33 23 5 5 -20 12 -20 139 -18 110 3 133 6 133 18 0 12 -18 16 -90 18 -49 2 -94 7 -98 11 -9 9 12 51 24 51 4 0 6 -8 5 -17z" fill="#ffffff" id="ffffff-000675"/>
    <path stroke="none" d="M3658 2538 c-3 -7 -24 -14 -48 -16 -40 -3 -86 -24 -102 -47 -5 -6 -8 -5 -8 3 0 10 -5 10 -20 2 -15 -8 -20 -21 -20 -50 0 -34 4 -42 30 -55 37 -19 113 -19 150 0 15 8 38 27 49 41 12 15 24 24 28 21 10 -10 -47 -77 -66 -77 -9 0 -21 -4 -26 -9 -9 -9 -75 -15 -121 -12 -12 0 -33 13 -48 28 -24 23 -26 32 -20 67 8 50 15 59 62 82 68 32 168 46 160 22z" fill="#ffffff" id="ffffff-000690"/>
    <path stroke="none" d="M1895 2530 c-11 -5 -44 -9 -73 -9 -29 -1 -62 -6 -75 -13 -12 -6 -29 -14 -36 -18 -8 -4 -24 -18 -34 -32 -19 -26 -19 -27 -1 -59 12 -20 31 -36 49 -41 33 -8 102 0 111 13 3 5 12 9 21 9 14 0 14 -3 -2 -20 -14 -16 -31 -20 -82 -20 -93 0 -132 27 -133 91 0 45 31 78 87 96 45 13 199 16 168 3z" fill="#ffffff" id="ffffff-000672"/>
    <path stroke="none" d="M6240 2525 c-6 -8 -9 -19 -5 -25 4 -6 2 -16 -3 -23 -6 -7 -12 -23 -14 -37 -4 -22 -5 -23 -13 -6 -5 11 -4 26 3 37 7 10 12 27 12 38 0 16 9 26 29 30 2 1 -2 -6 -9 -14z" fill="#ffffff" id="ffffff-000674"/>
    <path stroke="none" d="M8480 2510 c26 -25 41 -30 79 -30 26 0 52 5 59 12 6 6 15 9 18 5 16 -15 -27 -37 -73 -37 -48 0 -74 15 -112 63 -21 26 -7 20 29 -13z" fill="#ffffff" id="ffffff-000695"/>
    <path stroke="none" d="M3747 2293 c-4 -3 -10 -3 -14 0 -3 4 0 7 7 7 7 0 10 -3 7 -7z" fill="#ffffff" id="ffffff-000714"/>
    <path stroke="none" d="M1105 2209 c325 2 662 3 750 4 88 1 383 -1 655 -6 272 -4 499 -7 504 -7 5 0 3 -7 -4 -15 -10 -12 -77 -14 -433 -16 -232 -1 -433 -1 -447 0 -14 0 -88 0 -165 -2 -77 -1 -185 0 -240 2 -55 3 -154 4 -220 4 -66 -1 -183 -1 -260 0 -171 1 -260 -1 -345 -6 -60 -4 -561 -9 -763 -8 -91 1 -108 9 -93 47 5 14 30 15 239 8 127 -4 498 -6 822 -5z" fill="#ffffff" id="ffffff-000719"/>
    <path stroke="none" d="M3911 2197 c5 -6 25 -7 55 -2 27 5 158 9 292 10 l242 1 0 -23 0 -24 -157 5 c-87 2 -165 5 -173 5 -8 1 -40 -2 -70 -5 -143 -16 -188 -16 -219 1 -24 12 -40 14 -69 7 -29 -7 -282 -8 -532 -1 -14 0 -67 -1 -118 -3 -89 -4 -115 3 -95 23 5 5 128 11 273 14 145 3 265 7 267 8 8 8 299 -7 304 -16z" fill="#ffffff" id="ffffff-000003"/>
    <path stroke="none" d="M851 2080 c98 -51 145 -161 142 -335 -2 -143 -22 -200 -93 -271 -47 -48 -56 -53 -113 -60 -106 -13 -149 0 -210 62 -71 72 -97 150 -97 289 0 100 31 208 71 251 83 88 202 113 300 64z" fill="#ffffff" id="ffffff-000720"/>
    <path stroke="none" d="M1433 2071 c50 -34 78 -69 95 -119 15 -45 8 -58 -44 -76 l-45 -15 -19 32 c-11 18 -20 37 -20 44 0 22 -44 43 -88 43 -36 0 -50 -6 -76 -32 -27 -28 -35 -46 -46 -111 -23 -135 5 -258 65 -285 47 -21 91 -15 130 19 35 31 46 66 23 74 -7 3 -35 6 -63 8 l-50 3 -3 63 -3 63 133 -4 c111 -3 132 -6 130 -18 -2 -8 -5 -84 -7 -169 -2 -84 -7 -157 -12 -162 -13 -13 -83 1 -83 17 0 25 -20 25 -52 1 -18 -13 -53 -30 -78 -36 -40 -11 -52 -10 -102 9 -73 27 -131 89 -152 161 -21 70 -22 267 -1 336 23 77 64 126 137 162 55 28 70 32 124 28 48 -4 72 -11 107 -36z" fill="#ffffff" id="ffffff-000721"/>
    <path stroke="none" d="M4109 2072 c40 -24 91 -82 91 -102 0 -4 -10 -10 -22 -13 -13 -3 -37 -11 -55 -18 -30 -12 -33 -11 -72 24 -36 32 -43 35 -71 27 -47 -13 -60 -28 -60 -66 0 -28 6 -38 31 -53 17 -11 47 -22 67 -26 72 -13 128 -51 166 -112 42 -68 46 -107 15 -187 -25 -69 -87 -126 -135 -126 -18 0 -35 -4 -38 -9 -8 -12 -98 0 -114 16 -7 7 -18 13 -23 13 -16 0 -75 62 -93 97 l-16 32 44 21 c59 27 64 26 102 -15 27 -30 38 -35 75 -35 55 0 79 21 79 70 0 46 -17 61 -100 90 -117 41 -168 88 -184 171 -14 77 28 179 88 211 66 36 158 32 225 -10z" fill="#ffffff" id="ffffff-000722"/>
    <path stroke="none" d="M7980 2078 c49 -28 95 -91 106 -145 6 -31 4 -34 -41 -53 -25 -11 -50 -20 -53 -20 -4 0 -16 19 -26 43 -27 62 -43 77 -88 77 -98 0 -131 -53 -136 -215 -4 -125 9 -170 57 -204 50 -36 112 -25 159 28 35 40 25 56 -38 59 -72 4 -80 13 -77 76 l3 51 70 3 c38 2 97 1 130 -3 l62 -6 -4 -167 c-2 -91 -8 -170 -12 -174 -5 -5 -26 -5 -48 0 -29 6 -40 13 -42 30 -4 27 -6 27 -35 -2 -13 -13 -50 -31 -81 -40 -64 -19 -100 -13 -167 30 -48 30 -69 61 -108 157 -16 41 -14 242 4 301 27 90 67 138 150 181 64 34 147 31 215 -7z" fill="#ffffff" id="ffffff-000723"/>
    <path stroke="none" d="M8751 2079 c42 -21 96 -79 105 -113 11 -43 1 -58 -46 -72 -60 -18 -58 -19 -74 19 -25 60 -104 88 -139 50 -27 -32 -57 -142 -57 -212 1 -78 19 -152 44 -179 43 -49 121 -30 156 37 11 23 25 41 30 41 21 0 90 -33 91 -44 8 -73 -67 -164 -157 -193 -44 -13 -59 -14 -96 -4 -136 39 -208 154 -208 338 0 126 28 219 86 283 72 79 169 97 265 49z" fill="#ffffff" id="ffffff-000735"/>
    <path stroke="none" d="M80 1969 l5 -124 90 0 90 0 5 125 5 125 60 0 60 0 5 -261 c3 -144 3 -294 0 -335 l-5 -74 -60 0 -60 0 -3 138 -3 138 -92 -3 -92 -3 0 -135 c0 -132 0 -135 -23 -138 l-22 -3 0 334 c0 183 3 337 7 341 20 20 28 -10 33 -125z" fill="#ffffff" id="ffffff-000724"/>
    <path stroke="none" d="M1707 2088 c5 -7 21 -73 34 -146 13 -72 28 -131 34 -129 9 3 22 53 57 217 l14 65 64 3 c35 2 67 -1 73 -7 5 -5 13 -29 18 -53 18 -85 30 -154 36 -195 3 -24 8 -43 12 -43 11 0 31 47 31 70 0 11 4 39 10 62 5 24 16 70 23 103 l14 60 59 0 59 0 -4 -54 c-1 -30 -11 -79 -22 -110 -10 -31 -19 -65 -19 -75 0 -11 -4 -33 -10 -50 -5 -17 -21 -94 -35 -171 -41 -230 -32 -210 -93 -213 -58 -3 -50 -16 -76 118 -9 41 -22 101 -31 133 -8 32 -15 73 -15 92 0 37 -12 52 -28 32 -8 -10 -58 -226 -78 -339 -6 -38 -7 -38 -55 -38 -63 0 -70 14 -100 197 -6 38 -15 88 -20 113 -23 122 -29 151 -44 234 -8 49 -18 92 -20 96 -19 30 90 56 112 28z" fill="#ffffff" id="ffffff-000725"/>
    <path stroke="none" d="M2570 2080 c5 -8 17 -46 29 -85 19 -63 36 -128 91 -340 10 -38 26 -92 34 -120 9 -27 21 -63 26 -78 11 -35 2 -39 -70 -35 -51 3 -52 4 -66 43 -7 22 -14 52 -14 66 0 43 -20 51 -100 43 -79 -7 -84 -12 -110 -106 l-13 -48 -63 0 -63 0 6 38 c3 20 11 55 18 78 8 22 21 69 30 105 9 35 34 118 56 184 21 66 48 149 60 185 11 36 26 71 32 78 14 18 108 12 117 -8z" fill="#ffffff" id="ffffff-000726"/>
    <path stroke="none" d="M3145 2074 c118 -61 146 -252 48 -333 l-36 -30 17 -58 c10 -32 31 -95 47 -141 33 -94 33 -95 -52 -90 l-53 3 -11 45 c-7 25 -27 81 -46 125 l-34 80 -40 0 -40 0 0 -125 0 -124 -44 -9 c-24 -5 -54 -6 -68 -2 l-25 6 7 327 c5 215 11 332 18 341 9 10 40 12 142 9 107 -3 137 -7 170 -24z" fill="#ffffff" id="ffffff-000727"/>
    <path stroke="none" d="M3730 2080 c6 -12 10 -42 8 -68 l-3 -47 -73 -1 c-40 -1 -75 -3 -77 -6 -3 -3 -6 -124 -8 -269 l-2 -264 -65 0 -65 0 -2 250 c-1 138 -2 260 -2 273 -1 20 -6 22 -60 22 -87 0 -91 3 -85 58 3 26 7 53 10 60 2 9 53 12 208 12 196 0 206 -1 216 -20z" fill="#ffffff" id="ffffff-000728"/>
    <path stroke="none" d="M4807 2089 c86 -15 134 -58 158 -143 25 -85 10 -151 -47 -202 l-41 -37 46 -135 c26 -75 43 -140 38 -145 -4 -4 -34 -7 -66 -5 l-58 3 -14 54 c-13 53 -29 94 -61 161 -15 31 -21 35 -57 35 l-40 0 0 -125 0 -125 -47 -9 c-47 -9 -105 4 -94 22 2 4 7 149 11 322 4 189 11 320 17 328 13 15 167 16 255 1z" fill="#ffffff" id="ffffff-000729"/>
    <path stroke="none" d="M5170 1855 c3 -168 9 -247 18 -262 30 -53 107 -59 153 -14 16 16 29 35 30 43 0 7 2 110 4 228 2 118 4 223 4 233 1 14 11 17 55 17 30 0 58 -5 62 -11 11 -18 15 -408 5 -483 -17 -125 -102 -203 -223 -205 -70 -1 -154 33 -187 75 -49 63 -52 82 -50 347 2 283 1 280 78 275 l46 -3 5 -240z" fill="#ffffff" id="ffffff-000730"/>
    <path stroke="none" d="M5747 2088 c9 -11 68 -122 166 -310 17 -32 34 -58 38 -58 5 0 10 84 11 187 l3 188 60 0 60 0 2 -315 c2 -173 0 -325 -2 -337 -5 -21 -11 -23 -63 -23 -67 0 -64 -4 -143 162 -26 54 -54 109 -63 123 -9 13 -16 27 -16 31 0 10 -41 64 -48 64 -4 0 -7 -84 -7 -187 l0 -188 -67 -3 -67 -3 5 328 c3 205 9 333 16 340 14 17 103 17 115 1z" fill="#ffffff" id="ffffff-000731"/>
    <path stroke="none" d="M6354 2055 c13 -22 56 -105 96 -185 41 -80 75 -147 77 -149 11 -16 15 28 14 176 -1 92 3 174 8 182 6 9 30 14 67 15 l59 1 1 -320 c1 -176 -3 -328 -8 -337 -7 -14 -21 -18 -63 -18 -51 0 -54 2 -77 38 -12 20 -43 80 -69 132 -86 179 -103 210 -114 207 -6 -2 -10 -56 -10 -143 -1 -76 -2 -160 -3 -186 l-2 -48 -66 0 -66 0 5 325 c4 242 8 329 18 341 9 10 27 14 62 12 46 -3 51 -6 71 -43z" fill="#ffffff" id="ffffff-000732"/>
    <path stroke="none" d="M6917 2088 c9 -16 15 -506 7 -600 l-6 -68 -58 0 -58 0 -7 115 c-9 142 4 535 17 553 6 6 30 12 54 12 23 0 46 -6 51 -12z" fill="#ffffff" id="ffffff-000733"/>
    <path stroke="none" d="M7177 2088 c11 -14 78 -139 152 -281 29 -57 47 -83 53 -75 4 7 8 88 8 181 l0 167 27 11 c15 5 43 9 62 7 l36 -3 0 -335 0 -335 -56 -3 c-69 -4 -65 -8 -168 198 -76 153 -97 187 -107 177 -3 -3 -7 -88 -7 -189 l-2 -183 -65 0 -65 0 3 325 c4 365 0 350 78 350 23 0 46 -6 51 -12z" fill="#ffffff" id="ffffff-000734"/>
    <path stroke="none" d="M9069 2086 c8 -9 11 -91 10 -263 -1 -138 2 -256 5 -262 5 -7 40 -10 105 -7 54 2 103 1 109 -3 8 -5 10 -26 6 -69 l-7 -62 -176 2 -176 3 0 225 c0 275 5 409 17 433 11 21 90 24 107 3z" fill="#ffffff" id="ffffff-000736"/>
    <path stroke="none" d="M9460 1855 c5 -248 9 -273 50 -295 10 -5 33 -10 50 -10 17 0 40 5 50 10 41 22 45 47 50 295 l5 240 51 3 c36 2 54 -1 63 -12 19 -22 26 -288 12 -430 -10 -104 -15 -123 -41 -161 -102 -148 -361 -114 -411 54 -8 26 -10 118 -7 285 4 277 1 268 78 264 l45 -3 5 -240z" fill="#ffffff" id="ffffff-000737"/>
    <path stroke="none" d="M10231 2085 c132 -47 156 -186 51 -294 -11 -12 -10 -17 12 -35 42 -36 66 -86 66 -142 0 -64 -19 -103 -77 -154 l-46 -40 -168 0 -169 0 -1 38 c-5 159 8 619 18 635 9 14 268 8 314 -8z" fill="#ffffff" id="ffffff-000738"/>
    <path stroke="none" d="M7063 1266 c24 -18 21 -24 -8 -18 -14 2 -25 11 -25 18 0 17 10 17 33 0z" fill="#ffffff" id="ffffff-000743"/>
    <path stroke="none" d="M7120 1185 c0 -8 -4 -15 -10 -15 -5 0 -10 7 -10 15 0 8 5 15 10 15 6 0 10 -7 10 -15z" fill="#ffffff" id="ffffff-000746"/>
    <path stroke="none" d="M7240 1107 c0 -5 -4 -5 -10 -2 -5 3 -10 14 -10 23 0 15 2 15 10 2 5 -8 10 -19 10 -23z" fill="#ffffff" id="ffffff-000749"/>
    <path stroke="none" d="M7316 1081 c-12 -19 -24 -12 -19 10 4 13 9 17 15 11 6 -6 7 -15 4 -21z" fill="#ffffff" id="ffffff-000751"/>
    <path stroke="none" d="M7718 1084 c-4 -3 -17 -2 -30 2 -22 7 -22 7 -3 14 20 8 44 -4 33 -16z" fill="#ffffff" id="ffffff-000755"/>
    <path stroke="none" d="M7455 1070 c3 -5 1 -10 -4 -10 -6 0 -11 5 -11 10 0 6 2 10 4 10 3 0 8 -4 11 -10z" fill="#ffffff" id="ffffff-000764"/>
    <path stroke="none" d="M7430 1050 c0 -5 -9 -10 -20 -10 -11 0 -20 5 -20 10 0 6 9 10 20 10 11 0 20 -4 20 -10z" fill="#ffffff" id="ffffff-000763"/>
    <path stroke="none" d="M7639 1048 c-3 -27 2 -38 16 -38 8 0 15 -4 15 -9 0 -4 -11 -6 -25 -3 -18 3 -25 11 -25 26 0 21 7 36 17 36 2 0 3 -6 2 -12z" fill="#ffffff" id="ffffff-000766"/>
    <path stroke="none" d="M7580 1041 c0 -15 -29 -33 -41 -25 -9 5 -7 11 6 21 22 15 35 17 35 4z" fill="#ffffff" id="ffffff-000765"/>
    <path stroke="none" d="M6920 1025 c0 -8 -4 -15 -10 -15 -5 0 -10 7 -10 15 0 8 5 15 10 15 6 0 10 -7 10 -15z" fill="#ffffff" id="ffffff-000767"/>
    <path stroke="none" d="M7312 997 c-6 -12 -12 -29 -14 -37 -3 -7 -7 -10 -10 -5 -7 12 21 80 29 71 4 -3 1 -16 -5 -29z" fill="#ffffff" id="ffffff-000772"/>
    <path stroke="none" d="M7447 1013 c-4 -3 -7 0 -7 7 0 7 3 10 7 7 3 -4 3 -10 0 -14z" fill="#ffffff" id="ffffff-000770"/>
    <path stroke="none" d="M7620 975 c0 -3 -4 -13 -9 -23 -5 -9 -13 -33 -18 -52 -26 -90 -37 -120 -45 -120 -11 0 -10 28 2 35 6 3 10 16 10 28 0 12 9 47 20 77 11 30 20 56 20 57 0 2 5 3 10 3 6 0 10 -2 10 -5z" fill="#ffffff" id="ffffff-000779"/>
    <path stroke="none" d="M7429 954 c13 -11 -8 -10 -34 2 l-30 13 30 -6 c17 -3 32 -7 34 -9z" fill="#ffffff" id="ffffff-000781"/>
    <path stroke="none" d="M7680 906 c0 -8 -4 -18 -10 -21 -5 -3 -10 -15 -10 -26 0 -10 -4 -19 -10 -19 -5 0 -10 6 -10 14 0 8 5 18 10 21 6 3 10 15 10 26 0 10 5 19 10 19 6 0 10 -6 10 -14z" fill="#ffffff" id="ffffff-000796"/>
    <path stroke="none" d="M7816 904 c-3 -9 -6 -22 -6 -30 0 -9 -11 -14 -29 -14 -16 0 -41 -7 -57 -15 -30 -15 -40 -14 -29 4 3 6 15 11 25 11 10 0 22 5 26 11 3 6 17 8 30 5 21 -6 24 -3 24 19 0 14 5 25 11 25 6 0 8 -7 5 -16z" fill="#ffffff" id="ffffff-000785"/>
    <path stroke="none" d="M8148 885 c-6 -14 -17 -25 -25 -25 -16 0 -17 -12 -1 -28 7 -7 9 -12 5 -12 -4 0 -16 9 -27 20 -23 23 -19 40 11 40 11 0 22 7 25 15 4 8 10 15 15 15 5 0 3 -11 -3 -25z" fill="#ffffff" id="ffffff-000799"/>
    <path stroke="none" d="M2568 866 c8 -5 12 -41 12 -107 l0 -99 28 0 c15 0 33 5 39 11 7 7 42 12 80 13 84 1 126 -20 165 -84 25 -44 26 -51 30 -220 l3 -175 -75 0 -75 0 -6 65 c-4 36 -7 112 -8 170 -2 128 -10 143 -77 144 -41 1 -50 -3 -76 -34 l-30 -35 6 -157 7 -158 -86 0 -85 0 0 328 c0 239 3 331 12 340 12 12 115 11 136 -2z" fill="#ffffff" id="ffffff-000792"/>
    <path stroke="none" d="M6130 865 c17 -9 30 -17 30 -19 0 -2 -5 -17 -11 -35 -11 -30 -12 -31 -73 -31 -71 0 -91 -14 -102 -69 l-7 -33 64 3 64 3 3 -39 c4 -42 -10 -57 -43 -49 -11 2 -33 1 -49 -4 l-29 -8 2 -178 c2 -126 -1 -181 -9 -192 -14 -16 -135 -20 -144 -5 -3 5 -9 92 -12 195 l-7 186 -33 0 c-37 0 -58 25 -52 63 2 17 11 23 40 25 30 3 38 8 48 35 35 92 53 116 116 147 49 24 161 27 204 5z" fill="#ffffff" id="ffffff-000793"/>
    <path stroke="none" d="M8053 867 c3 -9 -4 -12 -28 -9 -36 4 -85 -21 -85 -44 0 -7 -4 -16 -10 -19 -23 -14 -8 26 21 54 32 33 92 43 102 18z" fill="#ffffff" id="ffffff-000798"/>
    <path stroke="none" d="M8205 859 c4 -6 28 -10 54 -9 25 1 51 1 57 1 13 -1 64 -76 118 -173 21 -38 41 -68 46 -68 5 0 18 16 30 35 12 20 27 41 34 48 7 6 29 43 50 80 43 77 64 89 140 85 82 -5 84 1 -91 -256 l-82 -120 -3 -139 -3 -138 -69 -3 c-38 -2 -73 1 -77 5 -5 5 -11 69 -13 142 l-4 133 -70 106 c-38 59 -82 128 -98 154 -17 28 -36 48 -46 48 -21 0 -22 3 -6 47 12 34 22 41 33 22z" fill="#ffffff" id="ffffff-000787"/>
    <path stroke="none" d="M502 843 c8 -10 25 -47 37 -83 12 -36 27 -76 33 -90 20 -46 27 -64 78 -210 28 -80 60 -167 71 -194 11 -28 16 -53 11 -58 -5 -5 -40 -8 -78 -6 l-68 3 -26 75 c-14 41 -29 81 -33 88 -6 8 -39 12 -106 12 l-98 0 -35 -87 -36 -88 -68 -3 c-37 -2 -71 1 -76 6 -11 11 71 237 143 397 5 11 29 70 53 130 l44 110 53 6 c30 3 61 6 70 7 9 1 23 -6 31 -15z" fill="#ffffff" id="ffffff-000800"/>
    <path stroke="none" d="M4604 832 c89 -33 127 -74 140 -157 9 -51 -5 -90 -47 -133 -45 -47 -109 -74 -207 -86 -47 -5 -88 -15 -92 -20 -4 -6 -8 -57 -8 -112 0 -75 -4 -105 -14 -113 -9 -7 -40 -11 -78 -9 -53 3 -63 6 -62 21 0 9 1 152 2 316 l2 300 43 10 c73 17 254 8 321 -17z" fill="#ffffff" id="ffffff-000801"/>
    <path stroke="none" d="M7432 818 c-9 -9 -12 -7 -12 12 0 19 3 21 12 12 9 -9 9 -15 0 -24z" fill="#ffffff" id="ffffff-000802"/>
    <path stroke="none" d="M2210 761 c5 -11 10 -33 10 -50 l0 -30 68 -3 67 -3 3 -38 c4 -44 -5 -49 -82 -51 l-51 -1 0 -140 0 -140 60 -10 c55 -10 60 -13 63 -38 6 -47 -12 -57 -100 -57 -159 0 -181 28 -188 240 l-5 145 -40 0 -40 0 0 45 0 45 42 3 c40 3 42 5 45 39 3 34 6 37 48 48 67 18 88 17 100 -4z" fill="#ffffff" id="ffffff-000813"/>
    <path stroke="none" d="M7360 730 l5 -45 70 -5 70 -5 0 -40 0 -40 -60 -3 c-32 -2 -65 -8 -72 -14 -18 -15 -18 -251 0 -266 6 -5 37 -14 67 -19 50 -7 55 -10 58 -36 6 -47 -11 -57 -102 -57 -96 0 -141 18 -171 70 -17 30 -21 56 -23 178 l-4 143 -36 -3 -37 -3 -3 48 -3 47 40 0 c39 0 41 2 41 29 0 17 6 33 13 38 20 13 90 31 117 29 22 -1 26 -7 30 -46z" fill="#ffffff" id="ffffff-000814"/>
    <path stroke="none" d="M8160 756 c0 -14 -4 -28 -10 -31 -6 -4 -10 7 -10 24 0 17 5 31 10 31 6 0 10 -11 10 -24z" fill="#ffffff" id="ffffff-000815"/>
    <path stroke="none" d="M7780 728 c17 10 20 10 20 -2 0 -8 -4 -18 -10 -21 -12 -7 -90 15 -90 26 0 4 14 2 30 -4 23 -9 35 -9 50 1z" fill="#ffffff" id="ffffff-000818"/>
    <path stroke="none" d="M7958 695 c15 -14 33 -23 40 -20 6 2 12 -2 12 -10 0 -19 -15 -19 -34 0 -8 8 -18 15 -23 15 -4 0 -14 9 -21 20 -17 27 -7 25 26 -5z" fill="#ffffff" id="ffffff-000822"/>
    <path stroke="none" d="M7900 689 c0 -6 -4 -7 -10 -4 -5 3 -10 11 -10 16 0 6 5 7 10 4 6 -3 10 -11 10 -16z" fill="#ffffff" id="ffffff-000819"/>
    <path stroke="none" d="M1235 661 c16 -9 43 -38 58 -63 32 -52 33 -61 29 -270 l-2 -128 -80 0 c-57 0 -80 4 -81 13 -1 6 -1 82 1 168 l2 156 -32 26 c-17 15 -42 27 -55 27 -32 0 -72 -19 -81 -39 -4 -9 -10 -90 -13 -181 l-6 -165 -77 -3 -78 -3 -2 201 c-1 110 -2 217 -2 238 l-1 37 73 3 c45 2 72 -1 72 -8 0 -12 43 -13 56 -1 24 25 171 19 219 -8z" fill="#ffffff" id="ffffff-000823"/>
    <path stroke="none" d="M1805 663 c48 -17 102 -66 119 -108 57 -134 2 -289 -119 -334 -102 -38 -258 -21 -325 36 -52 43 -64 78 -64 183 -1 90 1 97 29 139 66 96 227 134 360 84z" fill="#ffffff" id="ffffff-000824"/>
    <path stroke="none" d="M3409 664 c65 -32 111 -118 111 -207 0 -23 -6 -37 -16 -41 -9 -3 -85 -6 -170 -6 -154 0 -154 0 -154 -23 0 -31 25 -64 63 -83 26 -14 49 -16 129 -10 l98 6 10 -26 c6 -14 10 -31 10 -38 0 -22 -70 -38 -173 -38 -85 -1 -111 3 -154 22 -66 28 -128 94 -143 152 -24 88 4 195 66 249 23 20 100 56 134 63 43 8 158 -4 189 -20z" fill="#ffffff" id="ffffff-000825"/>
    <path stroke="none" d="M5155 664 c60 -25 102 -97 106 -184 2 -36 -1 -54 -12 -61 -7 -5 -82 -9 -166 -9 -87 0 -154 -4 -158 -10 -8 -13 17 -60 45 -85 20 -18 35 -20 135 -19 110 1 113 1 124 -23 17 -37 14 -43 -26 -60 -53 -22 -234 -21 -286 1 -52 23 -114 81 -138 130 -23 48 -25 138 -4 189 31 73 101 130 185 148 46 10 153 1 195 -17z" fill="#ffffff" id="ffffff-000827"/>
    <path stroke="none" d="M6507 654 c56 -32 84 -81 92 -161 6 -55 5 -66 -10 -74 -10 -5 -85 -9 -168 -9 -86 0 -152 -4 -156 -10 -8 -13 17 -60 45 -85 20 -18 35 -20 135 -19 110 1 113 1 124 -23 17 -37 14 -43 -26 -60 -54 -22 -234 -21 -288 2 -105 45 -157 123 -156 231 1 120 74 206 201 235 59 13 160 0 207 -27z" fill="#ffffff" id="ffffff-000829"/>
    <path stroke="none" d="M9101 664 c34 -17 88 -78 93 -107 3 -12 7 -47 10 -78 5 -46 3 -58 -10 -63 -9 -3 -85 -6 -170 -6 -170 0 -172 -1 -137 -61 29 -49 73 -63 179 -55 86 6 94 5 104 -13 33 -62 -8 -83 -163 -83 -83 0 -111 4 -152 21 -231 101 -194 409 55 462 47 10 158 0 191 -17z" fill="#ffffff" id="ffffff-000833"/>
    <path stroke="none" d="M9630 660 c66 -34 89 -68 99 -150 5 -41 9 -127 8 -190 l-2 -115 -55 -3 c-30 -2 -64 2 -76 9 -17 9 -31 8 -60 -2 -65 -21 -153 -16 -204 12 -53 28 -93 96 -83 138 19 84 106 135 271 158 50 7 57 33 17 59 -25 16 -86 15 -177 -3 -22 -4 -29 0 -42 25 -22 43 -13 57 47 71 109 24 198 21 257 -9z" fill="#ffffff" id="ffffff-000834"/>
    <path stroke="none" d="M3736 665 c8 -19 21 -19 58 0 30 16 121 21 130 7 3 -5 8 -28 12 -50 l7 -42 -36 0 c-44 0 -96 -22 -124 -52 -21 -22 -23 -35 -25 -173 l-3 -150 -70 0 c-65 0 -69 1 -76 25 -9 32 -11 435 -2 443 3 4 33 7 65 7 43 0 60 -4 64 -15z" fill="#ffffff" id="ffffff-000826"/>
    <path stroke="none" d="M5491 664 c16 -14 20 -14 48 0 17 9 55 16 86 16 l55 0 0 -40 c0 -22 1 -43 3 -47 1 -4 -19 -11 -45 -15 -37 -5 -102 -33 -120 -51 0 -1 -4 -74 -7 -162 l-6 -160 -70 0 c-69 0 -70 0 -76 30 -9 40 -11 430 -2 438 13 14 116 7 134 -9z" fill="#ffffff" id="ffffff-000828"/>
    <path stroke="none" d="M7084 667 c16 -12 17 -18 7 -50 l-12 -36 -84 2 c-81 2 -85 1 -115 -28 -78 -74 -77 -180 0 -235 27 -19 45 -23 123 -24 l92 -1 3 -37 c3 -35 1 -37 -35 -47 -56 -16 -187 -13 -250 5 -92 27 -153 112 -153 216 0 116 61 190 200 241 33 12 206 7 224 -6z" fill="#ffffff" id="ffffff-000830"/>
    <path stroke="none" d="M9991 664 c16 -14 20 -14 48 0 17 9 55 16 86 16 l55 0 2 -35 c0 -19 1 -41 2 -47 1 -8 -18 -15 -46 -20 -37 -5 -102 -33 -120 -51 0 -1 -4 -74 -7 -162 l-6 -160 -70 0 c-69 0 -70 0 -76 30 -9 40 -11 430 -2 438 13 14 116 7 134 -9z" fill="#ffffff" id="ffffff-000835"/>
    <path stroke="none" d="M7650 660 c0 -6 -7 -13 -15 -16 -11 -4 -13 -13 -9 -28 5 -17 4 -19 -7 -9 -10 10 -10 18 -1 38 11 25 32 34 32 15z" fill="#ffffff" id="ffffff-000837"/>
    <path stroke="none" d="M7675 650 c3 -5 4 -10 1 -10 -3 0 -8 5 -11 10 -3 6 -4 10 -1 10 3 0 8 -4 11 -10z" fill="#ffffff" id="ffffff-000840"/>
    <path stroke="none" d="M7570 520 c0 -5 -7 -10 -16 -10 -8 0 -12 5 -9 10 3 6 10 10 16 10 5 0 9 -4 9 -10z" fill="#ffffff" id="ffffff-000847"/>
    <path stroke="none" d="M5176 10006 c-37 -35 -47 -74 -23 -94 7 -6 114 -10 288 -11 152 0 288 -3 303 -7 17 -4 26 -2 26 6 0 20 -34 70 -45 67 -7 -1 -27 15 -47 36 l-35 37 -216 0 -216 0 -35 -34z" fill="#242e65" id="242e65-000003"/>
    <path stroke="none" d="M5086 9938 c-22 -31 -20 -38 9 -38 21 0 25 5 25 30 0 36 -13 38 -34 8z" fill="#242e65" id="242e65-000004"/>
    <path stroke="none" d="M5817 9933 c-13 -13 -7 -32 19 -58 19 -19 29 -23 38 -16 20 17 8 68 -18 75 -27 7 -31 7 -39 -1z" fill="#242e65" id="242e65-000005"/>
    <path stroke="none" d="M5319 9686 c-114 -36 -172 -124 -173 -261 -1 -70 2 -86 26 -126 47 -80 134 -124 243 -123 83 0 137 24 185 81 115 137 53 383 -109 432 -47 14 -124 13 -172 -3z" fill="#242e65" id="242e65-000007"/>
    <path stroke="none" d="M5493 9609 c55 -45 69 -79 69 -169 0 -86 -12 -118 -59 -163 -128 -121 -317 28 -272 216 23 100 78 147 169 147 47 0 61 -5 93 -31z" fill="#ffffff" id="ffffff-000028"/>
    <path stroke="none" d="M4920 9435 c0 -14 5 -25 10 -25 6 0 10 11 10 25 0 14 -4 25 -10 25 -5 0 -10 -11 -10 -25z" fill="#242e65" id="242e65-000008"/>
    <path stroke="none" d="M5378 8804 c-37 -18 -72 -42 -78 -53 -10 -20 -8 -21 62 -22 40 -1 88 -2 106 -4 18 -1 35 1 38 7 7 11 -37 101 -51 104 -5 1 -40 -13 -77 -32z" fill="#242e65" id="242e65-000010"/>
    <path stroke="none" d="M5150 8629 c-158 -18 -280 -44 -280 -60 0 -5 180 -8 400 -9 225 0 400 4 400 9 0 5 -15 11 -32 14 -147 21 -260 39 -296 47 -48 11 -84 11 -192 -1z" fill="#242e65" id="242e65-000011"/>
    <path stroke="none" d="M4940 8432 c0 -5 -11 -15 -25 -22 -30 -16 -31 -26 -4 -40 16 -9 26 -8 45 5 31 20 34 65 4 65 -11 0 -20 -4 -20 -8z" fill="#242e65" id="242e65-000012"/>
    <path stroke="none" d="M5364 8261 c-17 -9 -43 -29 -58 -44 -23 -23 -31 -26 -43 -16 -9 8 -12 21 -9 36 5 18 1 24 -19 29 -57 14 -57 14 -53 -221 3 -220 6 -235 43 -235 31 0 37 19 36 111 0 52 4 123 9 159 9 57 15 69 50 101 52 47 121 57 192 27 70 -30 80 -59 87 -248 l6 -155 45 0 45 0 3 145 c2 88 -2 161 -9 186 -14 54 -61 110 -106 129 -48 20 -178 18 -219 -4z" fill="#242e65" id="242e65-000014"/>
    <path stroke="none" d="M4897 8263 c-9 -14 -16 -428 -9 -441 5 -7 26 -13 48 -15 l39 -2 3 219 c2 153 -1 223 -9 232 -12 15 -65 19 -72 7z" fill="#242e65" id="242e65-000013"/>
    <path stroke="none" d="M2634 4309 c-4 -7 -9 -128 -11 -268 -1 -141 -5 -285 -8 -321 -4 -36 -2 -85 2 -110 8 -44 9 -45 48 -45 l40 0 0 375 0 375 -32 3 c-17 2 -35 -2 -39 -9z" fill="#ffffff" id="ffffff-000428"/>
    <path stroke="none" d="M5238 3081 c-103 -23 -146 -47 -176 -97 -4 -6 -20 -17 -37 -25 -55 -26 -37 -79 26 -79 32 0 46 15 51 55 l3 30 95 2 c52 0 211 1 353 2 172 1 257 4 257 11 0 21 -50 57 -102 75 -63 21 -237 44 -328 43 -36 0 -100 -8 -142 -17z" fill="#242e65" id="242e65-000036"/>
    <path stroke="none" d="M5440 2759 c-78 -31 -152 -108 -167 -173 -26 -118 32 -220 151 -265 100 -37 318 -22 304 21 -3 9 -35 14 -109 15 -117 2 -163 16 -208 63 -65 68 -58 191 13 253 48 43 78 51 188 51 108 1 126 7 108 37 -7 10 -38 14 -117 16 -91 3 -117 0 -163 -18z" fill="#242e65" id="242e65-000040"/>
    <path stroke="none" d="M4795 2760 c-4 -7 -3 -16 3 -22 14 -14 45 -2 40 15 -6 16 -34 21 -43 7z" fill="#242e65" id="242e65-000041"/>
    <path stroke="none" d="M5008 2764 c-4 -3 -7 -105 -8 -225 0 -206 1 -219 19 -229 11 -5 33 -10 50 -10 l31 0 -1 163 c-1 89 -4 194 -8 232 l-6 70 -35 3 c-20 2 -39 0 -42 -4z" fill="#242e65" id="242e65-000039"/>
    <path stroke="none" d="M3600 2691 c0 -5 7 -11 15 -15 9 -3 15 0 15 9 0 8 -7 15 -15 15 -8 0 -15 -4 -15 -9z" fill="#ffffff" id="ffffff-000623"/>
    <path stroke="none" d="M4714 2689 c-4 -7 -6 -47 -5 -88 1 -42 2 -89 2 -106 -1 -64 10 -115 25 -115 12 0 14 25 12 157 -2 107 -7 158 -15 160 -6 2 -15 -2 -19 -8z" fill="#242e65" id="242e65-000043"/>
    <path stroke="none" d="M3660 2655 c0 -8 5 -15 10 -15 6 0 10 7 10 15 0 8 -4 15 -10 15 -5 0 -10 -7 -10 -15z" fill="#242e65" id="242e65-000045"/>
    <path stroke="none" d="M5980 2653 c-66 -5 -80 -15 -80 -60 0 -27 4 -34 17 -31 10 2 19 12 21 23 7 36 33 55 74 55 21 0 38 5 38 10 0 6 -3 9 -7 8 -5 -1 -33 -3 -63 -5z" fill="#242e65" id="242e65-000046"/>
    <path stroke="none" d="M6010 2551 c0 -5 7 -14 15 -21 20 -16 19 -64 0 -80 -23 -19 -3 -33 27 -19 55 24 62 95 13 117 -31 14 -55 15 -55 3z" fill="#242e65" id="242e65-000050"/>
    <path stroke="none" d="M7020 7850 c0 -5 5 -10 10 -10 6 0 10 5 10 10 0 6 -4 10 -10 10 -5 0 -10 -4 -10 -10z" fill="#ffffff" id="ffffff-000163"/>
    <path stroke="none" d="M5377 7081 c-78 -20 -123 -57 -159 -130 -30 -62 -32 -217 -4 -270 23 -43 72 -88 115 -107 49 -20 214 -19 246 2 14 9 25 20 25 25 0 5 -42 6 -92 3 -73 -5 -101 -2 -130 10 -68 29 -112 91 -120 168 l-3 33 193 3 192 2 0 41 c0 124 -61 207 -170 231 -14 3 -56 -2 -93 -11z" fill="#242e65" id="242e65-000020"/>
    <path stroke="none" d="M5490 7017 c35 -18 70 -74 70 -113 l0 -34 -146 0 -146 0 7 36 c8 47 29 78 68 103 37 24 109 27 147 8z" fill="#ffffff" id="ffffff-000219"/>
    <path stroke="none" d="M5175 5870 c-9 -14 -2 -621 7 -648 6 -18 14 -23 36 -20 24 3 28 8 34 48 3 25 7 97 7 161 l1 117 36 32 c20 17 47 36 61 41 39 15 115 10 153 -9 59 -29 69 -64 70 -239 l0 -153 28 0 c15 0 37 -3 50 -6 l22 -6 0 165 c0 186 -7 215 -64 265 -79 69 -218 67 -313 -4 -17 -13 -34 -21 -36 -17 -3 5 -5 66 -6 137 -1 71 -4 133 -7 138 -7 11 -72 10 -79 -2z" fill="#242e65" id="242e65-000024"/>
    <path stroke="none" d="M4824 5646 c-4 -10 12 -33 45 -65 39 -38 51 -57 51 -80 0 -29 -2 -31 -39 -31 -39 0 -68 -20 -56 -40 3 -5 43 -10 91 -10 96 0 100 3 90 74 -9 58 -42 106 -91 132 -60 33 -84 38 -91 20z" fill="#242e65" id="242e65-000025"/>
    <path stroke="none" d="M5879 5648 c-5 -9 -7 -398 -2 -421 4 -25 8 -28 41 -25 l37 3 6 130 c6 126 21 193 48 209 13 8 15 76 2 76 -5 0 -16 -11 -25 -25 -23 -35 -35 -31 -42 15 -6 36 -10 40 -35 40 -16 0 -30 -1 -30 -2z" fill="#242e65" id="242e65-000026"/>
    <path stroke="none" d="M4683 5579 c-44 -22 -75 -71 -56 -90 5 -5 45 -9 89 -7 l79 3 3 58 3 57 -38 0 c-21 -1 -57 -10 -80 -21z" fill="#242e65" id="242e65-000027"/>
    <path stroke="none" d="M3032 5428 c-12 -12 -17 -50 -7 -60 3 -3 17 -3 31 0 21 4 25 9 22 36 -3 33 -25 45 -46 24z" fill="#ffffff" id="ffffff-000312"/>
    <path stroke="none" d="M5368 4079 c-21 -10 -48 -33 -60 -49 -12 -17 -25 -30 -30 -30 -4 0 -11 18 -14 40 -6 39 -8 40 -46 40 l-39 0 2 -236 2 -236 26 -9 c17 -7 33 -7 48 0 22 10 23 14 23 157 0 139 1 150 25 190 32 54 54 67 130 74 l60 5 3 38 3 37 -48 0 c-28 -1 -64 -9 -85 -21z" fill="#242e65" id="242e65-000030"/>
    <path stroke="none" d="M5859 4083 c-14 -2 -47 -22 -73 -43 -27 -22 -52 -40 -56 -40 -4 0 -12 17 -17 38 -8 34 -12 37 -43 37 l-34 0 1 -237 c1 -131 4 -241 7 -246 3 -5 22 -6 43 -3 l38 6 5 172 c6 196 11 210 90 251 52 26 87 28 137 7 44 -18 49 -14 34 23 -10 23 -21 31 -49 36 -20 3 -41 5 -47 4 -5 0 -22 -3 -36 -5z" fill="#242e65" id="242e65-000031"/>
    <path stroke="none" d="M4623 4009 c-81 -23 -137 -129 -113 -214 24 -84 92 -141 175 -146 41 -3 95 10 95 23 0 5 -26 36 -58 68 -102 102 -107 153 -14 158 55 3 66 12 76 59 6 25 3 34 -16 47 -25 18 -93 20 -145 5z" fill="#242e65" id="242e65-000032"/>
    <path stroke="none" d="M6060 3856 c-14 -14 -13 -86 1 -86 16 0 80 70 74 80 -8 13 -64 17 -75 6z" fill="#242e65" id="242e65-000034"/>
    <path stroke="none" d="M4700 3843 c0 -18 58 -83 74 -83 4 0 6 21 4 48 -3 47 -3 47 -40 50 -32 3 -38 0 -38 -15z" fill="#242e65" id="242e65-000033"/>
    <path stroke="none" d="M682 1953 c-57 -49 -77 -161 -52 -294 8 -43 17 -61 47 -86 46 -41 78 -42 125 -3 45 38 63 108 55 221 -11 165 -88 236 -175 162z" fill="#242e65" id="242e65-000051"/>
    <path stroke="none" d="M2485 1818 c-7 -25 -16 -74 -18 -98 -2 -21 3 -26 27 -28 40 -5 50 9 38 50 -6 18 -13 45 -16 61 -7 28 -24 36 -31 15z" fill="#242e65" id="242e65-000055"/>
    <path stroke="none" d="M2948 1903 c-8 -89 -5 -93 64 -93 51 0 62 4 83 26 33 35 31 59 -4 95 -25 25 -37 29 -84 29 l-55 0 -4 -57z" fill="#242e65" id="242e65-000053"/>
    <path stroke="none" d="M4667 1953 c-10 -9 -8 -116 2 -132 6 -10 25 -12 71 -9 50 4 67 9 81 27 28 34 24 65 -12 95 -24 21 -41 26 -83 26 -29 0 -56 -3 -59 -7z" fill="#242e65" id="242e65-000054"/>
    <path stroke="none" d="M10038 1974 c-9 -9 -11 -96 -2 -118 5 -12 21 -16 68 -16 63 0 85 9 104 45 13 24 -9 71 -35 79 -37 10 -128 17 -135 10z" fill="#242e65" id="242e65-000052"/>
    <path stroke="none" d="M10035 1699 c-3 -14 -5 -54 -3 -89 l3 -65 47 -3 c72 -5 110 9 129 46 35 69 -9 120 -109 129 -58 5 -61 5 -67 -18z" fill="#242e65" id="242e65-000056"/>
    <path stroke="none" d="M2477 817 c-3 -8 -3 -141 0 -295 6 -262 7 -282 24 -282 10 0 20 4 23 8 3 5 7 73 10 153 2 79 8 152 11 162 4 9 2 24 -5 32 -8 10 -11 35 -7 77 9 92 -3 152 -29 156 -12 2 -24 -3 -27 -11z" fill="#242e65" id="242e65-000058"/>
    <path stroke="none" d="M2700 641 c-23 -8 -24 -9 -5 -16 11 -4 32 -12 48 -17 15 -6 39 -24 53 -41 25 -30 26 -33 23 -175 -3 -125 -1 -147 13 -156 12 -7 21 -6 32 3 13 11 16 38 16 158 0 130 -2 149 -21 183 -30 53 -100 79 -159 61z" fill="#242e65" id="242e65-000072"/>
    <path stroke="none" d="M5956 830 c-57 -18 -88 -60 -96 -135 -5 -46 -7 -50 -35 -55 l-30 -6 33 -7 32 -6 0 -171 c0 -171 7 -210 35 -210 22 0 24 25 27 270 4 277 7 286 118 318 l35 10 -45 0 c-25 0 -58 -4 -74 -8z" fill="#242e65" id="242e65-000059"/>
    <path stroke="none" d="M8245 801 c-3 -5 40 -78 95 -163 l100 -153 0 -110 c0 -60 4 -116 9 -123 4 -8 19 -12 32 -10 24 3 24 6 29 128 l5 125 103 153 c84 125 100 154 86 159 -9 3 -24 2 -33 -4 -26 -16 -121 -179 -151 -259 -17 -44 -48 -28 -87 46 -19 36 -43 74 -54 86 -10 11 -19 23 -19 26 0 4 -14 29 -31 57 -23 37 -38 51 -55 51 -13 0 -25 -4 -29 -9z" fill="#242e65" id="242e65-000061"/>
    <path stroke="none" d="M373 798 c-5 -7 -15 -26 -21 -43 -6 -16 -29 -82 -52 -145 -23 -63 -46 -126 -52 -140 -11 -25 -23 -55 -41 -100 -5 -14 -13 -32 -17 -41 -5 -9 -12 -33 -15 -53 -7 -33 -5 -36 17 -36 27 0 32 9 69 105 12 33 28 65 35 70 6 6 10 22 7 36 -3 16 7 51 25 91 16 36 35 89 41 119 23 100 25 104 51 104 21 0 27 -9 47 -65 79 -221 83 -236 62 -257 -8 -8 -6 -13 8 -17 10 -3 24 -20 32 -38 62 -143 78 -165 103 -140 10 10 -3 49 -63 200 -5 12 -13 32 -18 45 -5 12 -18 43 -30 69 -12 26 -21 51 -21 55 0 13 -62 167 -73 181 -5 6 -26 12 -47 12 -21 0 -42 -6 -47 -12z" fill="#242e65" id="242e65-000063"/>
    <path stroke="none" d="M393 577 c-18 -45 -33 -86 -33 -90 0 -4 27 -7 60 -7 70 0 72 4 40 90 -11 30 -20 63 -20 72 0 37 -16 15 -47 -65z" fill="#242e65" id="242e65-000067"/>
    <path stroke="none" d="M4282 797 c-7 -8 -8 -100 -4 -282 l7 -270 28 -3 27 -3 0 115 c0 110 1 115 25 134 l25 20 -25 6 -25 6 0 130 c0 75 4 131 10 135 6 3 10 10 10 16 0 14 -66 11 -78 -4z" fill="#242e65" id="242e65-000060"/>
    <path stroke="none" d="M4400 656 c0 -119 3 -123 78 -104 92 22 131 73 105 136 -19 46 -66 72 -130 72 l-53 0 0 -104z" fill="#242e65" id="242e65-000064"/>
    <path stroke="none" d="M2129 727 c-13 -10 -17 -46 -23 -209 -7 -212 -4 -229 42 -263 31 -23 123 -28 129 -7 3 7 -5 12 -21 12 -14 0 -36 10 -50 23 -24 20 -27 33 -37 144 -8 88 -9 134 -1 165 7 27 7 48 1 60 -5 10 -7 23 -4 29 8 12 -2 59 -13 59 -4 0 -14 -6 -23 -13z" fill="#242e65" id="242e65-000065"/>
    <path stroke="none" d="M7283 729 c-21 -8 -23 -15 -24 -91 0 -46 -4 -132 -8 -192 -10 -123 -1 -161 46 -191 35 -24 133 -30 133 -10 0 8 -9 15 -20 15 -36 0 -69 23 -80 55 -6 18 -10 112 -9 219 0 104 -3 192 -8 196 -4 4 -18 4 -30 -1z" fill="#242e65" id="242e65-000066"/>
    <path stroke="none" d="M1075 643 c-52 -8 -53 -23 -1 -23 59 0 108 -28 126 -70 9 -22 11 -66 6 -158 -4 -70 -3 -133 2 -140 5 -8 20 -12 33 -10 21 3 25 10 31 53 10 80 9 193 -3 241 -13 51 -51 88 -107 104 -20 5 -41 9 -47 8 -5 0 -23 -3 -40 -5z" fill="#242e65" id="242e65-000069"/>
    <path stroke="none" d="M870 638 c-6 -45 -10 -341 -5 -365 5 -27 11 -33 30 -33 25 0 25 1 25 99 0 55 7 132 15 172 14 65 14 74 0 81 -8 5 -15 18 -15 28 0 15 -7 20 -25 20 -14 0 -25 -1 -25 -2z" fill="#242e65" id="242e65-000068"/>
    <path stroke="none" d="M1555 621 c-67 -41 -95 -98 -95 -199 0 -81 30 -135 95 -170 42 -23 189 -23 230 0 99 54 138 152 103 257 -27 82 -95 137 -157 128 l-26 -3 25 -11 c61 -26 95 -94 95 -187 0 -87 -14 -124 -61 -155 -29 -20 -47 -24 -96 -23 -108 3 -148 50 -148 174 0 42 5 89 11 105 12 33 58 83 75 83 7 0 16 5 19 10 10 17 -38 11 -70 -9z" fill="#242e65" id="242e65-000070"/>
    <path stroke="none" d="M1632 584 c-42 -18 -62 -64 -62 -141 0 -109 50 -164 131 -143 34 9 44 18 60 53 38 85 19 187 -44 225 -40 25 -41 25 -85 6z" fill="#242e65" id="242e65-000092"/>
    <path stroke="none" d="M3175 626 c-48 -22 -75 -51 -96 -105 -23 -61 -25 -141 -4 -180 8 -16 28 -40 45 -55 34 -28 106 -54 118 -41 4 4 2 10 -5 12 -32 11 -78 51 -96 82 -16 29 -18 46 -12 105 4 39 12 82 17 96 12 33 58 80 77 80 9 0 23 5 31 10 24 15 -39 12 -75 -4z" fill="#242e65" id="242e65-000073"/>
    <path stroke="none" d="M3313 634 c4 -4 16 -12 28 -18 41 -21 63 -62 62 -116 l-1 -51 37 3 c46 4 49 20 16 92 -29 62 -70 96 -119 96 -16 0 -26 -3 -23 -6z" fill="#242e65" id="242e65-000074"/>
    <path stroke="none" d="M3208 560 c-45 -46 -34 -55 63 -55 78 0 84 1 87 21 4 30 -42 64 -85 64 -25 0 -43 -8 -65 -30z" fill="#242e65" id="242e65-000093"/>
    <path stroke="none" d="M4930 632 c-69 -31 -106 -87 -116 -175 -12 -104 12 -154 93 -196 42 -21 83 -28 83 -13 0 4 -20 18 -44 31 -29 15 -51 35 -61 58 -22 46 -30 99 -16 107 6 4 11 25 11 47 0 22 5 50 12 62 16 30 60 67 80 67 9 0 20 5 23 10 7 11 -41 13 -65 2z" fill="#242e65" id="242e65-000077"/>
    <path stroke="none" d="M5060 630 c0 -5 9 -10 19 -10 11 0 31 -14 45 -31 25 -30 31 -55 27 -112 -2 -26 0 -28 31 -25 27 2 34 8 36 29 5 39 -36 118 -72 140 -33 20 -86 26 -86 9z" fill="#242e65" id="242e65-000078"/>
    <path stroke="none" d="M4959 561 c-51 -51 -42 -61 61 -61 84 0 90 1 90 20 0 12 -11 32 -25 45 -35 36 -88 34 -126 -4z" fill="#242e65" id="242e65-000095"/>
    <path stroke="none" d="M6245 617 c-48 -27 -82 -84 -91 -154 -8 -69 2 -123 30 -156 36 -41 146 -85 146 -58 0 5 -14 14 -30 21 -61 25 -117 130 -92 171 7 10 12 36 12 58 0 52 52 120 92 121 9 0 20 5 23 10 12 19 -50 10 -90 -13z" fill="#242e65" id="242e65-000082"/>
    <path stroke="none" d="M6394 632 c4 -7 15 -12 25 -12 35 0 64 -46 69 -110 l4 -60 34 0 c31 0 34 3 34 30 0 41 -35 111 -66 134 -30 21 -111 36 -100 18z" fill="#242e65" id="242e65-000083"/>
    <path stroke="none" d="M6313 580 c-23 -10 -43 -39 -43 -65 0 -13 13 -15 87 -13 100 3 115 17 69 63 -26 26 -70 32 -113 15z" fill="#242e65" id="242e65-000096"/>
    <path stroke="none" d="M8855 621 c-70 -43 -95 -96 -95 -200 0 -77 19 -117 74 -150 38 -24 106 -39 106 -25 0 5 -19 18 -42 29 -45 21 -75 61 -88 120 -5 24 -4 38 5 45 7 5 10 21 8 34 -11 56 50 146 100 146 9 0 19 5 22 10 11 18 -59 11 -90 -9z" fill="#242e65" id="242e65-000086"/>
    <path stroke="none" d="M9000 635 c0 -2 16 -12 35 -21 44 -21 65 -59 65 -119 0 -46 0 -46 33 -43 29 3 32 6 31 33 -3 75 -73 155 -135 155 -16 0 -29 -2 -29 -5z" fill="#242e65" id="242e65-000087"/>
    <path stroke="none" d="M8920 577 c-28 -14 -53 -58 -41 -70 13 -13 174 -4 179 10 2 7 -10 26 -26 43 -33 33 -70 38 -112 17z" fill="#242e65" id="242e65-000097"/>
    <path stroke="none" d="M9534 631 c4 -6 15 -11 25 -11 42 0 83 -79 61 -119 -8 -16 -20 -21 -55 -21 -66 0 -65 -19 2 -22 l58 -3 0 -60 c-1 -33 -4 -72 -9 -87 -7 -23 -5 -28 8 -28 9 0 16 -8 16 -19 0 -26 19 -37 34 -20 8 10 10 58 6 176 -5 159 -6 163 -31 189 -19 18 -41 28 -74 32 -35 3 -46 2 -41 -7z" fill="#242e65" id="242e65-000088"/>
    <path stroke="none" d="M9398 446 c-36 -15 -78 -55 -89 -83 -23 -61 59 -135 149 -135 55 0 60 19 7 24 -115 13 -130 134 -23 186 42 20 42 21 13 21 -16 0 -42 -6 -57 -13z" fill="#242e65" id="242e65-000099"/>
    <path stroke="none" d="M9473 408 c-42 -14 -62 -58 -43 -94 18 -32 49 -39 93 -21 42 18 59 46 55 90 -3 29 -6 32 -38 34 -19 1 -49 -3 -67 -9z" fill="#242e65" id="242e65-000100"/>
    <path stroke="none" d="M3841 642 c-32 -5 -71 -31 -71 -47 0 -10 8 -10 38 1 20 7 45 13 55 14 9 0 17 6 17 14 0 19 -9 23 -39 18z" fill="#242e65" id="242e65-000076"/>
    <path stroke="none" d="M3657 633 c-4 -3 -7 -91 -7 -193 0 -200 4 -216 47 -199 21 7 22 15 26 136 3 70 8 143 12 161 5 21 4 32 -4 32 -6 0 -17 16 -25 35 -14 33 -34 44 -49 28z" fill="#242e65" id="242e65-000075"/>
    <path stroke="none" d="M5577 639 c-34 -9 -57 -27 -57 -44 0 -14 102 17 108 33 5 15 -20 20 -51 11z" fill="#242e65" id="242e65-000080"/>
    <path stroke="none" d="M5407 633 c-11 -19 -18 -202 -12 -293 l7 -100 29 0 29 0 0 118 c0 90 4 127 16 152 13 25 14 37 6 49 -7 9 -18 31 -26 49 -14 30 -39 42 -49 25z" fill="#242e65" id="242e65-000079"/>
    <path stroke="none" d="M6889 633 c-54 -11 -101 -35 -138 -71 -7 -7 -22 -35 -32 -62 -16 -43 -17 -56 -7 -102 7 -29 18 -63 26 -75 16 -25 110 -83 136 -83 26 0 18 17 -18 38 -87 51 -111 202 -44 277 42 49 81 65 154 65 35 0 65 4 68 9 9 15 -81 17 -145 4z" fill="#242e65" id="242e65-000084"/>
    <path stroke="none" d="M6975 240 c3 -5 12 -10 20 -10 8 0 17 5 20 10 4 6 -5 10 -20 10 -15 0 -24 -4 -20 -10z" fill="#242e65" id="242e65-000101"/>
    <path stroke="none" d="M10077 639 c-34 -9 -57 -27 -57 -44 0 -9 13 -8 50 4 28 8 50 21 50 27 0 19 -12 22 -43 13z" fill="#242e65" id="242e65-000090"/>
    <path stroke="none" d="M9907 633 c-12 -19 -19 -191 -12 -288 l7 -105 29 0 29 0 0 123 c0 68 4 127 9 133 17 18 22 63 8 71 -8 4 -18 22 -24 38 -9 29 -36 45 -46 28z" fill="#242e65" id="242e65-000089"/>
  </g>
</svg>
