<svg xmlns="http://www.w3.org/2000/svg" version="1.0" width="4100.000000pt" height="4100.000000pt" viewBox="0 0 4100.000000 4100.000000" preserveAspectRatio="xMidYMid meet">
  <g transform="translate(0.000000,4100.000000) scale(0.100000,-0.100000)" stroke="none">
    <path stroke="none" d="M0 20500 l0 -20500 20500 0 20500 0 0 20500 0 20500 -20500 0 -20500 0 0 -20500z" fill="#1f1f1f" id="1f1f1f-000001"/>
    <path stroke="none" d="M5519 21681 c6 -39 11 -85 11 -104 0 -24 8 -41 30 -62 30 -29 41 -77 20 -90 -5 -3 -10 -19 -10 -35 0 -16 -4 -32 -10 -35 -5 -3 -10 -19 -10 -35 0 -16 -4 -32 -10 -35 -5 -3 -10 -21 -10 -40 0 -19 -4 -36 -9 -39 -5 -3 -12 -22 -15 -41 -3 -19 -9 -51 -12 -70 -3 -19 -10 -38 -15 -41 -5 -3 -9 -20 -9 -39 0 -19 -4 -36 -9 -39 -4 -3 -11 -27 -15 -53 -4 -27 -11 -73 -17 -103 -17 -104 -29 -185 -35 -240 -4 -30 -11 -61 -16 -67 -7 -9 -6 -13 3 -13 10 0 10 -3 3 -8 -6 -4 -14 -34 -18 -67 -3 -33 -10 -87 -15 -120 -5 -33 -15 -94 -21 -135 -6 -41 -15 -100 -20 -130 -22 -145 -31 -209 -36 -260 -6 -57 -26 -113 -52 -142 -16 -19 -67 -24 -77 -8 -3 6 -25 10 -47 10 -43 0 -88 29 -88 57 0 7 -4 21 -9 31 -5 9 -15 37 -21 62 -7 25 -16 54 -20 65 -18 50 -30 93 -30 113 0 11 -4 24 -10 27 -5 3 -10 21 -10 40 0 19 -4 37 -10 40 -5 3 -10 26 -10 50 0 24 -4 47 -10 50 -5 3 -10 26 -10 50 0 24 -4 47 -10 50 -5 3 -10 26 -10 50 0 24 -4 47 -10 50 -5 3 -10 26 -10 50 0 24 -4 47 -10 50 -5 3 -10 26 -10 50 0 24 -4 47 -10 50 -5 3 -10 26 -10 50 0 24 -4 46 -9 49 -5 3 -11 23 -14 43 -3 21 -11 61 -17 88 -6 28 -14 67 -17 88 -3 22 -11 37 -19 37 -8 0 -14 -1 -15 -2 0 -2 -5 -124 -10 -273 -15 -448 -42 -701 -89 -820 -29 -73 -47 -104 -78 -137 -29 -31 -43 -38 -73 -38 -21 0 -45 3 -54 6 -21 8 -45 67 -45 110 0 18 -4 36 -10 39 -5 3 -10 17 -10 30 0 13 -4 27 -10 30 -5 3 -10 15 -10 26 0 10 -4 27 -9 37 -5 9 -15 37 -21 62 -7 25 -16 54 -20 65 -9 21 -18 60 -27 113 -3 18 -9 35 -14 38 -5 3 -9 20 -9 39 0 19 -4 37 -10 40 -5 3 -10 21 -10 40 0 19 -4 36 -9 39 -5 3 -11 23 -14 43 -2 21 -12 64 -21 96 -9 32 -16 69 -16 82 0 13 -4 27 -10 30 -5 3 -10 24 -10 45 0 21 -4 41 -9 44 -5 3 -11 23 -14 43 -3 21 -10 59 -16 86 -6 26 -16 68 -22 95 -6 26 -13 65 -16 87 -3 22 -9 44 -14 50 -5 5 -9 24 -9 41 0 18 -4 35 -9 38 -5 3 -11 23 -14 43 -3 21 -10 56 -16 78 -27 106 -33 133 -38 174 -5 39 -2 46 23 67 16 13 36 23 44 23 45 0 90 -55 90 -110 0 -15 5 -31 10 -34 6 -3 10 -21 10 -40 0 -19 5 -37 10 -40 6 -3 10 -24 10 -45 0 -21 5 -42 10 -45 6 -3 10 -21 10 -40 0 -19 4 -36 9 -39 5 -3 12 -25 15 -48 16 -104 19 -118 27 -124 5 -3 9 -23 9 -44 0 -21 5 -42 10 -45 6 -3 10 -24 10 -45 0 -21 5 -42 10 -45 6 -3 10 -24 10 -45 0 -21 5 -42 10 -45 6 -3 10 -21 10 -40 0 -19 4 -36 9 -39 5 -3 12 -24 15 -46 3 -22 9 -58 12 -80 3 -22 10 -43 15 -46 5 -3 9 -23 9 -44 0 -21 5 -42 10 -45 6 -3 10 -21 10 -40 0 -19 5 -37 10 -40 6 -3 10 -19 10 -36 0 -16 4 -37 9 -47 15 -29 31 -87 31 -110 0 -12 5 -22 10 -22 6 0 10 -13 10 -29 0 -17 5 -33 10 -36 6 -3 10 -17 10 -31 0 -62 34 0 45 81 19 150 26 257 35 510 9 264 17 382 40 605 15 144 25 181 56 208 48 42 110 15 144 -63 34 -79 40 -96 40 -120 0 -13 5 -27 10 -30 6 -3 10 -21 10 -40 0 -19 5 -37 10 -40 6 -3 10 -21 10 -40 0 -19 5 -37 10 -40 6 -3 10 -21 10 -40 0 -19 5 -37 10 -40 6 -3 10 -21 10 -40 0 -19 4 -36 9 -39 5 -3 12 -25 15 -48 4 -24 9 -61 12 -83 3 -22 10 -44 15 -50 5 -5 9 -27 9 -50 0 -23 4 -45 9 -50 5 -6 12 -29 15 -52 3 -24 9 -62 12 -85 3 -24 10 -47 15 -53 5 -5 9 -27 9 -50 0 -23 4 -45 9 -50 5 -6 12 -29 15 -52 3 -24 9 -62 12 -85 3 -24 10 -47 15 -52 5 -6 9 -27 9 -47 0 -21 5 -41 10 -44 6 -3 10 -17 10 -31 0 -13 4 -24 9 -24 14 0 51 112 51 153 0 14 4 28 9 31 5 3 11 29 15 58 11 97 35 261 57 403 9 57 15 98 38 260 6 39 15 100 21 138 5 37 15 97 20 135 6 37 15 96 20 132 5 36 14 94 20 130 6 36 14 84 17 108 3 23 10 45 14 48 5 3 9 14 9 25 0 10 4 27 9 37 5 9 13 28 18 42 35 89 49 110 73 110 13 0 19 -15 29 -69z" fill="#ffffff" id="ffffff-000001"/>
    <path stroke="none" d="M7859 21681 c6 -39 11 -85 11 -104 0 -24 8 -41 30 -62 30 -29 41 -77 20 -90 -5 -3 -10 -19 -10 -35 0 -16 -4 -32 -10 -35 -5 -3 -10 -19 -10 -35 0 -16 -4 -32 -10 -35 -5 -3 -10 -21 -10 -40 0 -19 -4 -36 -9 -39 -5 -3 -12 -22 -15 -41 -3 -19 -9 -51 -12 -70 -3 -19 -10 -38 -15 -41 -5 -3 -9 -20 -9 -39 0 -19 -4 -36 -9 -39 -4 -3 -11 -27 -15 -53 -4 -27 -11 -73 -17 -103 -17 -104 -29 -185 -35 -240 -4 -30 -11 -61 -16 -67 -7 -9 -6 -13 3 -13 10 0 10 -3 3 -8 -6 -4 -14 -34 -18 -67 -3 -33 -10 -87 -15 -120 -5 -33 -15 -94 -21 -135 -6 -41 -15 -100 -20 -130 -22 -145 -31 -209 -36 -260 -6 -57 -26 -113 -52 -142 -16 -19 -67 -24 -77 -8 -3 6 -25 10 -47 10 -46 0 -88 30 -88 61 0 10 -4 21 -10 24 -5 3 -10 19 -10 36 0 16 -4 29 -10 29 -5 0 -10 11 -10 25 0 14 -4 33 -9 43 -14 29 -31 87 -31 110 0 11 -4 24 -10 27 -5 3 -10 21 -10 40 0 19 -4 37 -10 40 -5 3 -10 26 -10 50 0 24 -4 47 -10 50 -5 3 -10 26 -10 50 0 24 -4 47 -10 50 -5 3 -10 26 -10 50 0 24 -4 47 -10 50 -5 3 -10 26 -10 50 0 24 -4 47 -10 50 -5 3 -10 25 -10 49 0 23 -4 46 -9 51 -5 6 -11 28 -14 50 -3 22 -10 61 -16 88 -6 26 -16 68 -22 95 -6 26 -13 64 -16 85 -3 22 -11 37 -19 37 -8 0 -14 -1 -15 -2 0 -2 -5 -124 -10 -273 -9 -270 -20 -430 -39 -580 -19 -149 -22 -165 -31 -171 -5 -3 -9 -16 -9 -30 0 -13 -4 -32 -9 -42 -5 -9 -17 -35 -26 -57 -10 -22 -33 -57 -53 -77 -29 -31 -43 -38 -73 -38 -21 0 -45 3 -54 6 -21 8 -45 67 -45 110 0 18 -4 36 -10 39 -5 3 -10 17 -10 30 0 13 -4 27 -10 30 -5 3 -10 15 -10 26 0 10 -4 27 -9 37 -15 29 -31 87 -31 110 0 12 -4 22 -9 22 -5 0 -12 16 -15 35 -3 19 -9 51 -12 70 -3 19 -10 38 -15 41 -5 3 -9 20 -9 39 0 19 -4 37 -10 40 -5 3 -10 21 -10 40 0 19 -4 36 -9 39 -5 3 -11 23 -14 43 -2 21 -12 64 -21 96 -9 32 -16 69 -16 82 0 13 -4 27 -10 30 -5 3 -10 24 -10 45 0 21 -4 41 -9 44 -5 3 -11 23 -14 43 -3 21 -10 59 -16 86 -6 26 -16 68 -22 95 -6 26 -13 65 -16 87 -3 22 -9 44 -14 50 -5 5 -9 24 -9 41 0 18 -4 35 -9 38 -5 3 -11 23 -14 43 -3 21 -10 56 -16 78 -27 106 -33 133 -38 174 -5 39 -2 46 23 67 16 13 36 23 44 23 45 0 90 -55 90 -110 0 -15 5 -31 10 -34 6 -3 10 -21 10 -40 0 -19 5 -37 10 -40 6 -3 10 -24 10 -45 0 -21 5 -42 10 -45 6 -3 10 -21 10 -40 0 -19 4 -36 9 -39 5 -3 12 -25 15 -48 16 -104 19 -118 27 -124 5 -3 9 -23 9 -44 0 -21 5 -42 10 -45 6 -3 10 -24 10 -45 0 -21 5 -42 10 -45 6 -3 10 -24 10 -45 0 -21 5 -42 10 -45 6 -3 10 -21 10 -40 0 -19 5 -37 10 -40 6 -3 10 -17 10 -30 0 -30 19 -113 31 -137 5 -10 9 -33 9 -52 0 -19 5 -38 10 -41 6 -3 10 -21 10 -40 0 -19 5 -37 10 -40 6 -3 10 -22 10 -41 0 -19 4 -34 9 -34 5 0 12 -17 15 -37 16 -92 19 -103 27 -103 5 0 9 -13 9 -29 0 -17 5 -33 10 -36 6 -3 10 -17 10 -31 0 -62 34 0 45 81 19 150 26 257 35 510 9 264 17 382 40 605 15 144 25 181 56 208 48 42 110 15 144 -63 34 -79 40 -96 40 -120 0 -13 5 -27 10 -30 6 -3 10 -21 10 -40 0 -19 5 -37 10 -40 6 -3 10 -21 10 -40 0 -19 5 -37 10 -40 6 -3 10 -21 10 -40 0 -19 5 -37 10 -40 6 -3 10 -21 10 -40 0 -19 4 -36 9 -39 5 -3 12 -25 15 -48 4 -24 9 -61 12 -83 3 -22 10 -44 15 -50 5 -5 9 -27 9 -50 0 -23 4 -45 9 -50 5 -6 12 -29 15 -52 3 -24 9 -62 12 -85 3 -24 10 -47 15 -53 5 -5 9 -27 9 -50 0 -23 4 -45 9 -50 5 -6 11 -28 15 -50 13 -98 18 -121 26 -140 5 -11 11 -35 14 -52 22 -123 26 -123 65 -2 6 19 11 47 11 62 0 14 4 28 9 31 5 3 11 29 15 58 11 97 35 261 57 403 9 57 15 98 38 260 6 39 15 100 21 138 5 37 15 97 20 135 6 37 15 96 20 132 5 36 14 94 20 130 6 36 14 84 17 108 3 23 10 45 14 48 5 3 9 16 9 29 0 13 5 27 10 30 6 3 10 13 10 21 0 15 37 101 53 122 5 6 17 12 27 12 13 0 19 -15 29 -69z" fill="#ffffff" id="ffffff-000002"/>
    <path stroke="none" d="M25323 21607 c40 -20 81 -44 92 -54 50 -45 126 -144 157 -203 29 -57 43 -95 89 -246 5 -17 9 -49 9 -72 0 -22 4 -43 9 -46 4 -3 11 -70 15 -148 6 -137 -3 -291 -23 -408 -6 -30 -13 -71 -16 -90 -4 -19 -10 -44 -14 -55 -5 -11 -14 -38 -20 -60 -24 -80 -93 -225 -136 -290 -100 -147 -230 -267 -324 -300 -25 -8 -78 -15 -120 -15 -63 0 -87 5 -136 28 -74 35 -160 113 -216 195 -53 77 -119 204 -119 228 0 10 -4 21 -10 24 -5 3 -10 16 -10 29 0 12 -4 26 -8 31 -5 6 -14 44 -21 85 -7 41 -17 98 -23 125 -6 30 -8 106 -4 185 6 159 16 230 56 390 6 25 14 57 17 73 3 15 9 30 14 33 5 3 9 13 9 23 0 9 9 36 20 59 11 22 20 45 20 50 0 5 23 53 50 107 37 73 50 109 50 141 0 40 3 46 47 76 26 18 66 52 89 75 53 53 76 64 111 58 15 -3 48 -1 73 4 25 6 80 8 123 6 64 -3 90 -9 150 -38z" fill="#ffffff" id="ffffff-000003"/>
    <path stroke="none" d="M35656 21611 c36 -17 76 -39 89 -49 45 -36 133 -147 167 -212 29 -57 43 -95 89 -246 5 -17 9 -49 9 -72 0 -22 4 -43 9 -46 4 -3 11 -70 15 -148 6 -138 -4 -309 -24 -413 -5 -27 -12 -66 -15 -85 -4 -19 -10 -44 -14 -55 -5 -11 -14 -38 -20 -60 -24 -80 -93 -225 -136 -290 -100 -147 -230 -267 -324 -300 -25 -8 -78 -15 -120 -15 -63 0 -87 5 -136 28 -74 35 -160 113 -216 195 -53 77 -119 204 -119 228 0 10 -4 21 -10 24 -5 3 -10 16 -10 29 0 12 -4 26 -8 31 -5 6 -14 44 -21 85 -7 41 -17 98 -23 125 -6 30 -8 106 -4 185 6 159 16 230 56 390 6 25 14 57 17 73 3 15 9 30 14 33 5 3 9 13 9 23 0 9 9 36 20 59 11 22 20 45 20 50 0 5 23 53 50 107 37 73 50 109 50 141 0 40 3 46 47 76 26 18 66 52 89 75 53 53 76 64 111 58 15 -3 48 -1 73 4 82 18 192 7 266 -28z" fill="#ffffff" id="ffffff-000004"/>
    <path stroke="none" d="M11770 21592 c20 -16 22 -26 21 -131 -1 -62 -4 -117 -7 -122 -5 -9 -16 -116 -34 -349 -19 -230 -30 -552 -24 -680 8 -173 9 -178 17 -186 4 -4 7 -23 7 -42 0 -35 14 -90 31 -124 5 -10 9 -24 9 -32 0 -28 46 -99 84 -132 31 -27 48 -34 82 -34 36 0 49 7 93 46 49 44 121 160 121 196 0 9 5 20 10 23 6 3 10 17 10 30 0 13 5 27 10 30 6 3 10 19 10 35 0 16 4 31 9 34 5 3 11 23 14 43 3 21 11 63 16 93 52 268 67 433 84 864 14 378 12 366 87 366 75 0 73 13 66 -346 -7 -407 -22 -578 -76 -879 -6 -33 -13 -77 -16 -98 -4 -20 -10 -40 -15 -43 -5 -3 -9 -20 -9 -39 0 -19 -4 -37 -10 -40 -5 -3 -10 -17 -10 -30 0 -13 -4 -27 -10 -30 -5 -3 -10 -16 -10 -29 0 -12 -4 -26 -8 -32 -4 -5 -14 -27 -21 -49 -23 -67 -93 -175 -144 -221 -156 -141 -374 -96 -481 99 -14 26 -26 56 -26 67 0 10 -4 22 -10 25 -5 3 -10 16 -10 29 0 12 -4 26 -8 32 -9 9 -30 120 -36 189 -2 22 -6 48 -10 57 -10 22 0 625 13 773 6 66 15 170 21 230 6 61 15 153 20 205 15 169 20 189 49 205 35 19 65 18 91 -3z" fill="#ffffff" id="ffffff-000005"/>
    <path stroke="none" d="M10035 21572 c21 -15 35 -53 35 -96 0 -66 11 -69 120 -39 77 21 119 26 220 27 117 1 129 -1 186 -27 34 -16 75 -43 92 -60 37 -40 77 -111 87 -157 13 -61 17 -242 6 -253 -6 -6 -11 -24 -11 -39 0 -16 -4 -36 -9 -46 -4 -9 -26 -52 -46 -95 -31 -62 -56 -94 -124 -160 -47 -45 -115 -103 -149 -130 -35 -26 -60 -47 -55 -48 4 0 44 -2 88 -5 174 -9 306 -90 367 -224 28 -61 30 -73 30 -185 1 -67 -4 -130 -9 -140 -6 -11 -23 -46 -38 -78 -53 -111 -213 -232 -378 -286 -202 -66 -487 -91 -652 -58 -88 18 -105 32 -105 88 0 63 30 85 99 74 25 -5 66 -9 91 -9 36 -1 44 2 40 14 -2 8 -6 126 -8 263 l-3 247 -32 0 c-42 0 -78 19 -96 51 -24 44 1 83 79 122 l65 32 3 100 c1 55 7 155 12 223 6 68 10 208 10 313 0 154 -3 189 -14 189 -7 0 -44 -11 -81 -25 -76 -29 -116 -27 -140 8 -19 27 -19 67 -1 93 8 11 59 37 116 58 l101 39 -2 49 c-2 27 -6 51 -11 54 -4 3 -8 25 -8 49 0 34 5 47 22 59 23 17 85 21 103 8z" fill="#ffffff" id="ffffff-000006"/>
    <path stroke="none" d="M21404 21564 c87 -22 191 -80 234 -129 46 -53 92 -141 92 -177 0 -15 4 -29 9 -32 4 -3 11 -36 14 -73 4 -38 10 -91 13 -120 4 -29 3 -60 -1 -70 -4 -10 -9 -36 -11 -58 -2 -22 -9 -51 -15 -65 -7 -14 -17 -36 -23 -50 -47 -107 -168 -242 -306 -344 -129 -95 -351 -201 -500 -239 -54 -14 -55 -15 -62 -58 -5 -24 -11 -147 -14 -274 -6 -213 -8 -232 -27 -252 -27 -30 -82 -31 -114 -1 -21 20 -23 30 -23 117 0 53 5 170 11 260 l10 165 -31 24 c-24 19 -30 31 -30 62 0 33 6 44 38 70 l38 30 3 390 c3 369 -2 473 -29 627 -6 36 -5 59 3 77 14 29 57 51 88 43 11 -3 75 12 142 33 67 21 145 43 172 48 83 16 251 14 319 -4z" fill="#ffffff" id="ffffff-000007"/>
    <path stroke="none" d="M22720 21550 l28 -31 76 21 c135 36 313 23 418 -31 77 -39 168 -141 168 -188 0 -11 5 -23 10 -26 6 -3 10 -50 10 -105 0 -55 -4 -102 -10 -105 -5 -3 -10 -16 -10 -29 0 -48 -65 -161 -161 -281 -65 -80 -312 -325 -328 -325 -27 0 -7 -29 32 -46 140 -63 364 -246 468 -382 42 -56 119 -198 139 -257 23 -67 30 -95 30 -123 0 -17 5 -34 10 -37 17 -10 11 -51 -11 -79 -15 -20 -29 -26 -58 -26 -52 0 -81 23 -81 65 0 19 -4 37 -10 40 -5 3 -10 19 -10 36 0 16 -4 37 -9 47 -5 9 -27 56 -50 104 -45 93 -141 221 -213 282 -70 60 -207 150 -295 195 -46 22 -85 41 -88 41 -11 0 -5 -649 7 -699 10 -47 10 -54 -9 -79 -15 -20 -30 -28 -59 -30 -59 -4 -81 24 -87 113 -3 39 -8 78 -12 87 -4 10 -4 194 0 410 4 216 8 566 9 778 l1 385 -30 -2 c-16 -1 -44 -5 -60 -8 -46 -10 -85 25 -85 74 0 45 24 71 93 96 l47 18 0 47 c0 38 5 51 23 63 36 26 75 21 107 -13z" fill="#ffffff" id="ffffff-000008"/>
    <path stroke="none" d="M37000 21550 l28 -31 76 21 c135 36 313 23 418 -31 77 -39 168 -141 168 -188 0 -11 5 -23 10 -26 6 -3 10 -50 10 -105 0 -55 -4 -102 -10 -105 -5 -3 -10 -16 -10 -29 0 -48 -65 -161 -161 -281 -65 -80 -312 -325 -328 -325 -27 0 -7 -29 32 -46 81 -37 248 -155 334 -236 109 -105 173 -189 225 -297 53 -111 64 -144 83 -236 3 -16 9 -41 11 -55 9 -40 -29 -80 -75 -80 -52 0 -81 23 -81 65 0 19 -4 37 -10 40 -5 3 -10 19 -10 36 0 16 -4 37 -8 47 -75 154 -104 205 -157 271 -73 91 -118 130 -235 210 -72 49 -238 141 -255 141 -11 0 -5 -649 7 -699 10 -47 10 -54 -9 -79 -15 -20 -30 -28 -59 -30 -59 -4 -81 24 -87 113 -3 39 -8 78 -12 87 -4 10 -4 194 0 410 4 216 8 566 9 778 l1 385 -30 -2 c-16 -1 -44 -5 -60 -8 -46 -10 -85 25 -85 74 0 45 24 71 93 96 l47 18 0 47 c0 38 5 51 23 63 36 26 75 21 107 -13z" fill="#ffffff" id="ffffff-000009"/>
    <path stroke="none" d="M13491 21540 c15 -12 26 -27 23 -34 -11 -29 24 -39 109 -33 93 7 301 -13 391 -37 197 -54 362 -213 425 -408 15 -47 16 -307 1 -322 -5 -5 -10 -27 -10 -47 0 -21 -4 -41 -10 -44 -5 -3 -10 -19 -10 -35 0 -16 -4 -32 -10 -35 -5 -3 -10 -15 -10 -26 0 -10 -4 -27 -9 -37 -5 -9 -36 -75 -70 -146 -152 -317 -375 -569 -683 -768 -96 -63 -97 -63 -97 -105 -1 -65 -60 -103 -107 -68 -26 20 -48 19 -86 -5 -40 -24 -95 -26 -126 -4 -19 13 -23 23 -20 62 l3 47 88 48 87 49 -7 151 c-9 181 -9 282 2 1004 l8 552 -124 3 -124 3 -16 33 c-32 62 8 112 89 112 20 0 67 3 105 7 65 6 67 7 67 34 0 31 40 69 72 69 11 0 33 -9 49 -20z" fill="#ffffff" id="ffffff-000010"/>
    <path stroke="none" d="M15427 21540 c19 -11 30 -25 27 -33 -11 -30 23 -40 109 -34 93 7 301 -13 391 -37 197 -54 362 -213 425 -408 15 -47 16 -307 1 -322 -5 -5 -10 -27 -10 -47 0 -21 -4 -41 -10 -44 -5 -3 -10 -19 -10 -35 0 -16 -4 -32 -10 -35 -5 -3 -10 -15 -10 -26 0 -10 -4 -27 -9 -37 -4 -9 -40 -82 -79 -162 -153 -313 -369 -554 -674 -752 -96 -63 -97 -63 -97 -105 -1 -65 -60 -103 -107 -68 -26 20 -48 19 -86 -5 -40 -24 -95 -26 -126 -4 -19 13 -23 23 -20 62 l3 47 88 48 87 49 -7 151 c-9 181 -9 282 2 1004 l8 552 -123 3 -124 3 -18 31 c-15 25 -16 35 -6 61 14 36 44 53 96 53 20 0 67 3 105 7 65 6 67 7 67 34 0 18 9 35 26 48 33 26 50 26 91 1z" fill="#ffffff" id="ffffff-000011"/>
    <path stroke="none" d="M17139 21543 c12 -10 58 -92 104 -183 103 -204 199 -368 336 -574 58 -87 119 -178 134 -202 16 -24 34 -44 41 -44 7 0 23 24 36 53 78 174 101 226 130 292 12 28 56 120 97 205 42 85 80 166 86 180 5 14 13 34 18 45 10 27 20 71 26 122 10 83 86 122 140 71 18 -17 23 -32 23 -69 0 -26 -4 -51 -10 -54 -5 -3 -10 -24 -10 -45 0 -21 -4 -42 -10 -45 -5 -3 -10 -14 -10 -24 0 -10 -6 -31 -14 -47 -8 -16 -22 -47 -31 -69 -10 -22 -55 -116 -100 -210 -46 -93 -95 -196 -109 -227 -14 -32 -37 -82 -50 -110 -13 -29 -32 -71 -41 -93 -10 -22 -28 -62 -40 -90 -13 -27 -31 -68 -40 -90 -10 -22 -28 -64 -41 -92 -43 -95 -74 -162 -98 -215 -13 -29 -34 -75 -46 -103 -12 -27 -32 -72 -45 -100 -12 -27 -33 -72 -45 -100 -87 -194 -102 -215 -152 -215 -76 0 -89 72 -34 185 19 38 42 88 51 110 10 22 28 63 40 90 13 28 33 73 45 100 12 28 33 75 47 105 14 30 34 75 45 100 11 25 34 72 49 104 l29 60 -24 25 c-29 30 -58 70 -180 246 -38 55 -156 238 -156 242 0 2 -13 24 -30 48 -16 24 -30 46 -30 49 0 3 -14 29 -32 58 -17 29 -71 132 -121 228 -71 140 -89 184 -90 219 0 34 5 48 22 63 29 23 63 23 90 1z" fill="#ffffff" id="ffffff-000012"/>
    <path stroke="none" d="M27368 21544 c17 -12 22 -25 22 -58 0 -63 -23 -79 -124 -88 -90 -7 -206 -24 -213 -31 -2 -3 0 -13 5 -24 6 -10 15 -38 22 -63 7 -25 16 -53 21 -62 5 -10 9 -31 9 -47 0 -17 5 -33 10 -36 6 -3 10 -21 10 -40 0 -19 5 -37 10 -40 6 -3 10 -28 10 -55 0 -27 5 -52 10 -55 6 -3 10 -30 10 -59 0 -28 4 -56 9 -61 10 -11 13 -43 31 -308 14 -195 -5 -486 -31 -503 -5 -3 -9 -13 -9 -23 0 -31 -59 -128 -102 -166 -83 -76 -185 -105 -365 -105 -114 0 -141 3 -198 24 -83 30 -131 64 -201 138 -56 61 -137 178 -154 223 -25 65 3 115 63 115 39 0 55 -15 120 -115 54 -84 145 -174 207 -206 40 -21 58 -24 160 -23 247 1 323 72 361 338 11 84 10 304 -2 321 -4 6 -8 46 -10 90 -1 44 -6 85 -10 90 -4 6 -8 37 -10 70 -2 33 -6 65 -10 70 -6 10 -9 27 -25 143 -3 29 -11 55 -15 58 -5 3 -9 20 -9 39 0 19 -4 37 -10 40 -5 3 -10 19 -10 35 0 16 -4 32 -10 35 -5 3 -10 19 -10 36 0 16 -4 29 -10 29 -5 0 -10 10 -10 23 0 48 -16 54 -155 60 -150 7 -190 18 -210 58 -20 38 -19 51 7 84 21 27 22 27 102 20 114 -10 196 -10 306 3 129 15 253 32 265 37 28 10 122 4 143 -11z" fill="#ffffff" id="ffffff-000013"/>
    <path stroke="none" d="M32807 21508 c16 -15 23 -33 23 -57 -1 -58 -22 -67 -203 -81 l-158 -13 6 -76 c3 -42 8 -314 11 -606 6 -613 -5 -1075 -25 -1099 -17 -21 -104 -22 -120 -2 -9 10 -11 127 -9 438 6 879 2 1234 -14 1244 -4 3 -8 25 -8 50 0 57 -9 60 -129 46 -53 -6 -135 -14 -182 -18 -81 -6 -87 -5 -107 17 -29 30 -28 74 1 103 18 18 42 25 112 34 87 11 403 31 575 36 47 1 112 3 144 4 49 2 64 -2 83 -20z" fill="#ffffff" id="ffffff-000014"/>
    <path stroke="none" d="M28434 21507 c11 -8 19 -28 20 -48 1 -32 4 -34 41 -38 37 -3 111 4 315 29 41 5 116 14 165 20 50 6 117 14 150 19 102 14 144 -17 129 -96 -8 -42 -20 -48 -139 -63 -49 -6 -121 -15 -160 -20 -38 -5 -122 -14 -185 -20 -63 -6 -160 -17 -215 -23 -90 -11 -100 -14 -98 -32 6 -62 26 -423 30 -557 l5 -158 37 0 c52 0 198 26 336 60 39 9 97 23 130 30 33 7 73 16 89 21 54 17 95 11 121 -17 29 -31 32 -70 7 -101 -13 -17 -48 -29 -157 -54 -224 -50 -335 -71 -473 -90 l-92 -13 0 -313 c1 -342 0 -337 58 -315 28 11 205 66 407 127 106 32 309 88 373 102 31 7 82 -41 82 -77 0 -32 -32 -68 -68 -76 -49 -11 -164 -45 -377 -111 -115 -36 -248 -76 -295 -89 -89 -25 -155 -45 -205 -63 -16 -5 -69 -15 -117 -22 -77 -11 -90 -10 -112 5 -22 14 -26 24 -26 67 0 47 2 51 33 64 17 7 49 16 71 20 37 7 38 8 32 44 -3 20 -9 171 -13 336 l-6 299 -29 24 c-40 34 -39 84 3 119 l31 27 -6 205 c-6 185 -21 512 -25 519 0 1 -38 2 -84 2 -105 0 -127 13 -127 75 0 60 23 75 116 75 97 0 104 4 104 52 0 27 6 45 18 54 22 17 83 18 106 1z" fill="#ffffff" id="ffffff-000015"/>
    <path stroke="none" d="M1727 21468 c13 -12 23 -32 23 -44 0 -13 5 -26 10 -29 6 -3 10 -19 10 -35 0 -16 5 -32 10 -35 6 -3 10 -19 10 -35 0 -16 5 -32 10 -35 6 -3 10 -19 10 -35 0 -16 5 -32 10 -35 6 -3 10 -21 10 -40 0 -19 5 -37 10 -40 6 -3 10 -19 10 -35 0 -16 5 -32 10 -35 6 -3 10 -21 10 -40 0 -19 5 -37 10 -40 6 -3 10 -21 10 -40 0 -19 4 -36 9 -39 5 -3 11 -20 14 -38 3 -18 11 -53 17 -78 6 -25 14 -60 17 -78 3 -18 9 -35 14 -38 5 -3 9 -20 9 -39 0 -19 4 -36 9 -39 5 -3 11 -23 14 -43 3 -21 10 -57 16 -80 6 -24 16 -62 22 -85 6 -24 13 -60 16 -81 3 -20 9 -40 14 -43 5 -3 9 -20 9 -39 0 -19 5 -37 10 -40 6 -3 10 -19 10 -35 0 -16 5 -32 10 -35 6 -3 10 -17 10 -31 0 -13 4 -32 9 -42 12 -24 27 -61 37 -96 14 -46 34 -45 34 1 0 22 4 43 9 48 5 6 12 39 15 75 3 36 11 106 16 155 6 50 15 182 20 295 15 316 29 538 40 620 9 68 15 103 36 207 10 50 46 83 91 83 21 0 48 -7 60 -15 26 -18 53 -70 57 -109 1 -14 6 -29 9 -33 4 -3 7 -26 7 -49 0 -24 5 -46 10 -49 6 -3 10 -30 10 -59 0 -28 4 -56 9 -61 5 -6 11 -46 14 -90 2 -44 7 -87 10 -95 3 -8 8 -89 10 -180 3 -91 7 -172 10 -180 3 -8 8 -80 11 -160 7 -179 19 -311 28 -326 4 -6 8 -41 9 -78 1 -37 6 -69 10 -72 5 -3 9 -23 9 -45 0 -21 4 -39 9 -39 8 0 14 19 27 95 3 17 9 39 14 50 5 11 11 38 15 60 3 22 8 57 11 78 4 20 10 40 15 43 5 3 9 23 9 44 0 21 4 41 9 44 5 3 11 23 14 43 3 21 11 63 17 93 19 97 40 219 60 360 13 89 28 166 41 220 6 25 13 60 16 78 3 18 9 35 14 38 5 3 9 18 9 34 0 16 5 32 10 35 6 3 10 19 10 35 0 16 5 32 10 35 6 3 10 19 10 36 0 16 5 29 10 29 6 0 10 11 10 25 0 14 4 33 9 43 5 9 14 37 21 62 7 25 16 53 21 62 5 10 9 23 9 30 0 6 10 22 22 35 26 27 73 30 107 7 22 -16 23 -22 17 -78 -3 -34 -11 -62 -16 -64 -6 -2 -10 -15 -10 -28 0 -13 -4 -32 -9 -42 -5 -9 -14 -37 -21 -62 -7 -25 -16 -53 -21 -62 -5 -10 -9 -29 -9 -42 0 -14 -4 -28 -10 -31 -5 -3 -10 -19 -10 -35 0 -16 -4 -32 -10 -35 -5 -3 -10 -19 -10 -35 0 -16 -4 -31 -9 -34 -5 -3 -11 -23 -14 -43 -3 -21 -11 -63 -17 -93 -5 -30 -14 -82 -18 -115 -4 -33 -11 -65 -14 -71 -4 -5 -8 -34 -9 -62 -2 -29 -6 -52 -10 -52 -3 0 -9 -24 -13 -52 -3 -29 -10 -78 -15 -108 -6 -30 -13 -71 -16 -90 -4 -19 -10 -44 -15 -55 -5 -11 -11 -36 -14 -55 -3 -19 -10 -57 -16 -85 -6 -27 -14 -68 -17 -90 -3 -22 -9 -44 -14 -49 -5 -6 -9 -25 -9 -42 0 -18 -4 -36 -10 -39 -5 -3 -10 -19 -10 -36 0 -16 -4 -37 -9 -47 -5 -9 -14 -35 -20 -57 -21 -70 -62 -144 -97 -174 -44 -39 -99 -55 -133 -38 -24 12 -62 66 -55 79 5 8 -11 148 -46 393 -21 147 -55 679 -44 696 2 4 0 10 -6 14 -6 4 -10 55 -11 123 0 64 -4 126 -9 137 -8 18 -9 18 -10 -5 0 -14 -3 -45 -6 -70 -2 -25 -9 -162 -14 -305 -6 -143 -15 -298 -20 -345 -5 -47 -12 -110 -15 -140 -4 -30 -10 -64 -15 -75 -5 -11 -11 -37 -14 -57 -13 -84 -19 -108 -27 -114 -5 -3 -9 -16 -9 -29 0 -13 -4 -27 -10 -30 -5 -3 -10 -19 -10 -35 0 -16 -4 -32 -10 -35 -5 -3 -10 -15 -10 -26 0 -11 -14 -34 -30 -51 -27 -27 -36 -30 -71 -25 -45 6 -79 31 -79 58 0 10 -4 21 -10 24 -5 3 -10 17 -10 30 0 13 -4 27 -10 30 -5 3 -10 17 -10 30 0 13 -4 27 -10 30 -5 3 -10 17 -10 30 0 13 -4 27 -10 30 -5 3 -10 17 -10 31 0 13 -4 24 -10 24 -5 0 -10 14 -10 30 0 17 -4 30 -10 30 -5 0 -10 14 -10 30 0 17 -4 30 -10 30 -5 0 -10 18 -10 40 0 22 -4 40 -10 40 -5 0 -10 18 -10 39 0 22 -4 43 -10 46 -5 3 -10 21 -10 40 0 19 -4 37 -10 40 -5 3 -10 21 -10 40 0 19 -4 37 -10 40 -5 3 -10 21 -10 40 0 19 -4 36 -9 39 -8 6 -14 31 -27 119 -4 20 -10 40 -15 43 -5 3 -9 20 -9 39 0 19 -4 37 -10 40 -5 3 -10 21 -10 40 0 19 -4 37 -10 40 -5 3 -10 19 -10 35 0 16 -4 32 -10 35 -5 3 -10 21 -10 40 0 19 -4 36 -9 39 -5 3 -12 22 -15 41 -3 19 -9 51 -12 70 -3 19 -10 38 -15 41 -5 3 -9 18 -9 34 0 16 -4 31 -9 34 -5 3 -11 20 -14 38 -9 52 -18 91 -26 113 -18 44 -31 92 -31 111 0 11 -5 25 -11 31 -15 15 -1 61 24 78 31 22 77 18 104 -7z" fill="#ffffff" id="ffffff-000016"/>
    <path stroke="none" d="M39365 21465 c85 -20 160 -50 208 -82 33 -23 37 -30 37 -69 0 -74 -60 -95 -148 -50 -186 94 -338 69 -496 -83 -37 -36 -87 -95 -110 -131 -46 -71 -106 -193 -106 -215 0 -8 -4 -17 -10 -20 -5 -3 -10 -17 -10 -30 0 -13 -4 -27 -10 -30 -5 -3 -10 -19 -10 -35 0 -16 -4 -31 -9 -34 -10 -6 -13 -23 -37 -213 -15 -117 -16 -146 -4 -250 7 -65 17 -122 21 -128 5 -5 9 -21 9 -36 0 -15 5 -31 10 -34 6 -3 10 -15 10 -25 0 -33 61 -133 114 -188 64 -66 169 -121 249 -129 50 -5 64 -2 122 26 85 42 150 116 211 240 26 53 51 104 55 113 5 10 9 27 9 37 0 11 5 23 10 26 6 3 10 19 10 34 0 15 4 31 9 36 10 11 18 72 27 217 l6 97 -33 6 c-38 7 -111 -11 -384 -94 -185 -57 -221 -59 -249 -16 -19 29 -20 43 -3 78 14 31 11 30 237 97 282 85 350 101 405 97 100 -7 160 -59 166 -143 1 -22 7 -47 12 -57 9 -20 -6 -195 -24 -277 -17 -77 -31 -124 -40 -142 -5 -10 -9 -25 -9 -33 0 -8 -4 -23 -9 -33 -103 -210 -120 -239 -176 -300 -80 -88 -157 -136 -251 -158 -71 -17 -81 -17 -155 -2 -127 26 -249 99 -339 201 -43 49 -110 169 -110 198 0 10 -4 19 -10 19 -5 0 -10 13 -10 28 0 15 -4 32 -9 37 -5 6 -11 28 -13 50 -2 22 -8 47 -12 54 -13 21 -11 398 3 466 22 107 50 214 62 237 5 10 9 24 9 31 0 8 6 27 14 43 8 16 22 47 31 69 43 101 85 172 143 245 107 135 206 206 340 246 91 27 157 29 247 9z" fill="#ffffff" id="ffffff-000017"/>
    <path stroke="none" d="M30866 21446 c68 -18 140 -58 200 -110 44 -40 48 -46 47 -85 -3 -57 -16 -71 -69 -71 -36 0 -51 6 -81 34 -106 96 -265 121 -384 61 -64 -33 -157 -137 -198 -220 -18 -39 -37 -78 -42 -87 -5 -10 -9 -27 -9 -37 0 -11 -4 -23 -10 -26 -5 -3 -10 -19 -10 -35 0 -16 -4 -32 -10 -35 -5 -3 -10 -21 -10 -39 0 -17 -4 -36 -9 -41 -16 -17 -23 -123 -23 -355 -1 -275 8 -334 66 -441 32 -59 103 -125 166 -156 21 -11 66 -19 116 -21 67 -3 88 0 127 18 59 28 139 116 173 190 14 30 30 63 35 72 5 10 9 27 9 37 0 11 5 23 10 26 6 3 10 24 10 45 0 21 5 42 10 45 6 3 10 21 10 40 0 19 5 37 10 40 6 3 10 16 10 27 0 56 88 80 131 37 18 -18 20 -28 14 -78 -3 -31 -11 -72 -17 -91 -5 -19 -14 -49 -19 -66 -5 -17 -9 -40 -9 -52 0 -11 -4 -24 -10 -27 -5 -3 -10 -14 -10 -23 0 -31 -94 -205 -139 -254 -89 -99 -198 -148 -330 -148 -202 0 -359 103 -450 295 -40 84 -39 80 -64 210 -22 114 -11 605 14 621 5 3 9 23 9 44 0 22 4 49 9 62 5 13 14 43 21 68 7 25 16 53 21 62 5 10 9 24 9 31 0 17 64 142 105 207 67 106 163 184 275 226 47 17 232 17 296 0z" fill="#ffffff" id="ffffff-000018"/>
    <path stroke="none" d="M19337 20621 l381 -6 26 -24 c34 -32 34 -74 1 -106 l-24 -25 -287 0 c-368 0 -570 14 -601 43 -34 31 -32 89 5 117 23 18 34 21 72 15 25 -4 217 -10 427 -14z" fill="#ffffff" id="ffffff-000019"/>
    <path stroke="none" d="M9008 19891 c19 -17 22 -28 22 -101 0 -73 -3 -83 -25 -105 -33 -34 -78 -33 -110 1 -22 23 -25 36 -25 99 0 58 4 78 21 99 25 32 82 35 117 7z" fill="#ffffff" id="ffffff-000020"/>
    <path stroke="none" d="M33930 19890 c17 -17 20 -33 20 -100 0 -73 -3 -83 -25 -105 -33 -34 -78 -33 -110 1 -22 23 -25 36 -25 99 0 93 21 125 81 125 26 0 46 -7 59 -20z" fill="#ffffff" id="ffffff-000021"/>
    <path stroke="none" d="M25070 21481 c-96 -32 -109 -42 -165 -125 -59 -91 -155 -279 -155 -307 0 -10 -4 -21 -10 -24 -5 -3 -10 -17 -10 -30 0 -13 -4 -27 -10 -30 -5 -3 -10 -19 -10 -35 0 -16 -4 -31 -9 -34 -9 -6 -18 -45 -27 -126 -3 -25 -10 -49 -15 -54 -13 -14 -12 -383 1 -391 6 -3 10 -21 10 -40 0 -19 5 -37 10 -40 6 -3 10 -19 10 -35 0 -16 5 -32 10 -35 6 -3 10 -17 10 -29 0 -30 65 -152 124 -233 74 -102 162 -152 242 -137 89 17 251 184 325 337 17 34 34 70 40 79 5 10 9 27 9 37 0 11 5 23 10 26 6 3 10 17 10 30 0 13 4 26 9 29 5 3 11 18 14 33 4 16 11 51 17 78 6 28 13 70 16 95 3 25 9 75 14 112 13 87 13 141 -1 263 -11 102 -24 167 -40 197 -5 10 -9 27 -9 38 0 11 -5 30 -12 43 -23 45 -28 57 -28 67 0 21 -93 151 -133 185 -42 36 -132 75 -170 74 -12 0 -47 -8 -77 -18z" fill="#1f1f1f" id="1f1f1f-000002"/>
    <path stroke="none" d="M35410 21481 c-96 -32 -109 -42 -165 -125 -59 -91 -155 -279 -155 -307 0 -10 -4 -21 -10 -24 -5 -3 -10 -17 -10 -30 0 -13 -4 -27 -10 -30 -5 -3 -10 -19 -10 -35 0 -16 -4 -31 -9 -34 -9 -6 -18 -45 -27 -126 -3 -25 -10 -49 -15 -54 -13 -14 -12 -383 1 -391 6 -3 10 -21 10 -40 0 -19 5 -37 10 -40 6 -3 10 -19 10 -35 0 -16 5 -32 10 -35 6 -3 10 -17 10 -30 0 -26 54 -131 111 -216 96 -143 219 -191 318 -126 93 62 231 229 277 337 9 19 20 43 25 52 5 10 9 27 9 38 0 11 5 20 10 20 6 0 10 13 10 29 0 17 4 32 9 35 5 3 11 18 14 33 4 16 11 51 17 78 6 28 13 70 16 95 3 25 9 75 14 112 13 87 13 141 -1 263 -11 102 -24 167 -40 197 -5 10 -9 27 -9 38 0 11 -5 30 -12 43 -23 44 -28 57 -28 67 0 19 -74 125 -120 171 -30 30 -66 54 -103 68 -69 25 -85 25 -157 2z" fill="#1f1f1f" id="1f1f1f-000003"/>
    <path stroke="none" d="M10325 21305 c-70 -12 -105 -20 -212 -51 -19 -5 -22 -11 -15 -33 9 -33 6 -386 -5 -594 -4 -87 -6 -160 -4 -162 13 -14 245 146 347 237 77 69 137 143 161 198 29 68 33 88 33 179 0 142 -32 195 -138 225 -66 18 -60 18 -167 1z" fill="#1f1f1f" id="1f1f1f-000007"/>
    <path stroke="none" d="M10355 20280 c-22 -4 -67 -18 -100 -30 -33 -12 -88 -31 -121 -43 l-62 -20 -6 -75 c-9 -98 4 -463 17 -479 13 -18 48 -16 158 7 289 62 446 174 474 337 11 70 13 113 4 119 -5 3 -9 15 -9 28 0 30 -61 100 -116 132 -35 20 -60 27 -121 29 -43 2 -96 0 -118 -5z" fill="#1f1f1f" id="1f1f1f-000010"/>
    <path stroke="none" d="M21055 21401 c-39 -9 -101 -28 -138 -41 l-68 -24 5 -81 c11 -155 17 -701 9 -794 -11 -112 -9 -114 86 -81 244 85 498 271 599 439 23 39 42 78 42 86 0 7 5 17 10 20 13 8 13 150 -1 217 -25 126 -73 196 -165 243 -55 28 -67 30 -184 32 -90 1 -144 -3 -195 -16z" fill="#1f1f1f" id="1f1f1f-000004"/>
    <path stroke="none" d="M22835 21382 l-60 -17 2 -85 c1 -47 5 -221 8 -388 6 -234 5 -306 -5 -317 -27 -33 23 -14 74 27 161 130 329 322 393 447 27 52 44 169 29 197 -42 78 -60 97 -119 125 -56 26 -71 29 -162 28 -61 0 -124 -7 -160 -17z" fill="#1f1f1f" id="1f1f1f-000005"/>
    <path stroke="none" d="M37115 21382 l-60 -17 2 -85 c1 -47 5 -221 8 -388 6 -234 5 -306 -5 -317 -27 -33 23 -14 74 27 161 130 329 322 393 447 27 52 44 169 29 197 -42 78 -60 97 -119 125 -56 26 -71 29 -162 28 -61 0 -124 -7 -160 -17z" fill="#1f1f1f" id="1f1f1f-000006"/>
    <path stroke="none" d="M13526 20933 c-4 -214 -9 -578 -12 -810 -5 -486 -13 -455 92 -381 164 117 307 260 434 438 69 97 170 279 170 306 0 8 3 14 8 14 10 0 32 50 32 71 0 10 5 21 10 24 6 3 10 21 10 39 0 17 6 38 12 44 19 19 18 289 -1 328 -8 16 -21 44 -30 62 -9 18 -37 57 -63 86 -99 111 -271 166 -523 166 l-132 0 -7 -387z" fill="#1f1f1f" id="1f1f1f-000008"/>
    <path stroke="none" d="M15466 20933 c-4 -214 -9 -578 -12 -810 -5 -486 -13 -455 92 -381 164 117 307 260 434 438 66 92 170 278 170 304 0 6 9 22 20 36 11 14 20 35 20 47 0 12 5 25 10 28 6 3 10 21 10 39 0 17 6 38 12 44 19 19 18 289 -1 328 -8 16 -21 44 -30 62 -42 86 -161 183 -264 213 -80 24 -203 39 -323 39 l-131 0 -7 -387z" fill="#1f1f1f" id="1f1f1f-000009"/>
  </g>
</svg>
