<svg xmlns="http://www.w3.org/2000/svg" version="1.0" width="1784.000000pt" height="1530.000000pt" viewBox="0 0 1784.000000 1530.000000" preserveAspectRatio="xMidYMid meet">
  <g transform="translate(0.000000,1530.000000) scale(0.100000,-0.100000)" stroke="none">
    <path d="M 0 0 H 17840.0 V 15300.0 H 0 Z" fill="#ffffff" id="background"/>
    <path stroke="none" d="M5962 14617 c-17 -18 -22 -36 -22 -80 0 -31 -4 -57 -10 -57 -5 0 -10 -9 -10 -20 0 -11 -4 -20 -10 -20 -5 0 -10 -24 -10 -53 0 -29 -6 -59 -12 -66 -9 -8 -14 -49 -15 -119 -2 -133 -16 -303 -27 -321 -5 -7 -12 -117 -15 -245 l-7 -231 -32 -49 c-17 -27 -29 -52 -27 -56 19 -30 -121 -64 -144 -36 -11 13 -35 16 -119 16 l-107 0 -71 71 -72 72 -23 -22 c-21 -19 -21 -22 -6 -39 9 -10 17 -26 17 -36 0 -9 7 -19 16 -23 13 -5 12 -8 -5 -24 -29 -28 -78 -35 -99 -16 -9 8 -33 17 -52 19 -26 2 -36 8 -38 23 -2 11 -11 28 -19 37 -9 10 -13 26 -10 37 2 10 1 24 -3 31 -10 16 -30 4 -30 -19 0 -9 -5 -22 -12 -29 -9 -9 -6 -18 16 -41 18 -18 26 -37 24 -52 -3 -21 -4 -22 -20 -6 -9 9 -22 17 -29 17 -6 0 -19 8 -28 18 -9 10 -28 25 -43 35 -16 10 -28 24 -28 32 0 8 -6 15 -13 15 -8 0 -31 18 -53 41 -21 22 -59 54 -84 72 -57 39 -70 52 -70 69 0 14 -18 27 -95 68 -27 14 -77 47 -111 73 -72 54 -244 238 -244 260 0 8 -7 20 -15 27 -8 7 -15 21 -15 31 0 11 -4 19 -9 19 -5 0 -18 17 -28 37 -24 46 -43 58 -76 49 -35 -8 -48 -67 -23 -109 20 -35 20 -44 1 -63 -12 -12 -15 -46 -15 -174 0 -131 -3 -159 -15 -164 -21 -8 -21 -182 0 -210 9 -12 15 -42 15 -77 0 -38 5 -63 15 -73 9 -8 15 -33 15 -59 0 -27 6 -49 15 -57 8 -7 15 -27 15 -44 0 -17 7 -40 15 -50 8 -11 15 -36 15 -57 0 -20 7 -42 15 -49 8 -7 15 -21 15 -32 0 -10 7 -21 15 -24 8 -4 15 -16 15 -29 0 -12 7 -28 15 -35 8 -7 15 -18 15 -24 0 -7 18 -30 40 -51 35 -35 43 -38 60 -27 26 16 50 15 50 -1 0 -18 -162 -177 -181 -177 -8 0 -31 -13 -49 -30 -18 -16 -41 -30 -51 -30 -10 0 -19 -3 -21 -7 -4 -9 -63 -39 -95 -48 -13 -3 -23 -11 -23 -16 0 -5 -11 -9 -24 -9 -13 0 -29 -7 -36 -15 -7 -8 -20 -15 -30 -15 -10 0 -23 -7 -30 -15 -7 -8 -25 -15 -41 -15 -15 0 -31 -4 -34 -10 -3 -5 -28 -10 -55 -10 -30 0 -54 -6 -64 -15 -21 -22 -638 -22 -676 0 -14 8 -40 14 -57 15 -18 0 -33 5 -33 10 0 6 -11 10 -25 10 -13 0 -28 7 -33 16 -5 9 -14 14 -21 10 -16 -10 -14 -43 4 -50 8 -3 15 -17 15 -31 0 -20 5 -25 24 -25 13 0 29 -7 36 -15 7 -8 27 -15 45 -15 18 0 38 -6 44 -14 9 -10 42 -16 109 -19 53 -2 113 -7 132 -11 57 -10 423 -7 434 4 6 6 40 10 76 10 43 0 73 5 86 15 10 8 29 15 42 15 12 0 25 7 28 15 5 11 22 15 63 15 35 0 65 6 77 15 13 10 44 14 95 15 56 0 80 4 89 15 7 8 21 15 33 15 11 0 29 11 41 25 12 14 36 29 54 34 29 9 31 8 22 -9 -16 -30 -103 -110 -120 -110 -9 0 -34 -18 -55 -40 -21 -22 -47 -40 -57 -40 -10 0 -30 -13 -45 -30 -14 -16 -34 -30 -44 -30 -9 0 -38 -20 -63 -45 -26 -25 -53 -45 -61 -45 -8 0 -26 -11 -41 -25 -15 -14 -34 -25 -44 -25 -9 0 -29 -13 -45 -30 -16 -16 -36 -30 -46 -30 -9 0 -22 -7 -29 -15 -7 -8 -20 -15 -29 -15 -10 0 -28 -11 -41 -25 -13 -14 -30 -25 -38 -25 -9 0 -23 -7 -33 -16 -9 -8 -25 -17 -35 -18 -35 -5 -27 -26 10 -26 33 0 53 7 96 32 8 5 27 14 43 21 15 6 27 15 27 19 0 4 17 8 38 8 29 0 45 7 67 30 16 17 36 30 46 30 9 0 22 7 29 15 7 8 20 15 29 15 10 0 28 11 41 25 13 14 31 25 41 25 9 0 22 7 29 15 7 8 20 15 30 15 9 0 37 20 63 45 25 25 48 42 51 37 3 -5 -8 -22 -24 -38 -16 -16 -30 -36 -30 -45 0 -20 -61 -79 -81 -79 -9 0 -70 -52 -136 -115 -67 -63 -127 -115 -135 -115 -7 0 -39 -25 -71 -55 -31 -30 -64 -55 -72 -55 -8 0 -36 -20 -62 -45 -25 -25 -54 -45 -63 -45 -10 0 -23 -7 -30 -15 -7 -8 -18 -15 -25 -15 -7 0 -32 -17 -56 -38 -24 -21 -60 -48 -79 -59 -20 -12 -46 -33 -59 -47 -14 -14 -33 -26 -43 -26 -10 0 -35 -18 -55 -40 -21 -22 -47 -40 -59 -40 -11 0 -33 -13 -49 -30 -16 -16 -36 -30 -45 -30 -9 0 -29 -13 -43 -30 -15 -16 -35 -30 -45 -30 -10 0 -31 -13 -47 -30 -16 -16 -33 -30 -38 -30 -6 0 -25 -11 -43 -25 -18 -14 -39 -25 -47 -25 -8 0 -20 -7 -27 -15 -7 -8 -19 -15 -26 -15 -8 0 -22 -4 -32 -9 -9 -5 -24 -12 -32 -15 -8 -4 -35 -17 -59 -31 -24 -14 -54 -25 -66 -25 -11 0 -30 -7 -41 -15 -10 -8 -26 -15 -35 -15 -9 0 -22 -7 -29 -15 -7 -9 -29 -15 -52 -15 -22 0 -49 -5 -60 -11 -12 -7 -46 -14 -76 -16 -30 -2 -64 -10 -76 -18 -14 -10 -46 -15 -98 -15 -42 0 -80 -4 -83 -10 -3 -5 -22 -10 -42 -10 -38 0 -107 -36 -97 -51 9 -16 150 -11 164 6 10 12 37 15 124 15 82 1 116 5 130 15 13 10 44 15 89 15 46 0 73 5 83 14 9 10 26 13 49 9 28 -5 41 -1 60 17 18 17 30 20 55 15 21 -5 38 -2 55 9 13 9 31 16 38 16 8 0 20 7 27 15 8 9 30 15 60 15 30 0 52 6 60 15 7 8 19 15 27 15 7 0 25 7 38 16 14 9 31 14 39 11 8 -3 26 3 39 14 14 10 32 19 40 19 9 0 19 5 22 10 3 6 17 10 30 10 14 0 29 9 35 20 6 11 19 20 29 20 10 0 30 11 44 25 14 15 28 22 31 16 8 -13 -63 -80 -84 -81 -9 0 -34 -18 -55 -40 -22 -23 -49 -40 -61 -40 -12 0 -24 -7 -28 -15 -3 -8 -13 -15 -22 -15 -9 0 -34 -14 -55 -31 -21 -17 -39 -28 -39 -24 0 3 -12 -3 -26 -14 -15 -12 -33 -21 -41 -21 -8 0 -26 -11 -41 -25 -15 -14 -34 -25 -43 -25 -8 0 -28 -13 -44 -30 -16 -16 -36 -30 -46 -30 -9 0 -22 -7 -29 -15 -7 -8 -20 -15 -30 -15 -9 0 -25 -9 -35 -20 -10 -11 -38 -29 -64 -40 -25 -12 -53 -26 -61 -31 -15 -9 -70 -41 -103 -59 -9 -6 -24 -14 -33 -18 -22 -11 -19 -26 6 -30 11 -2 23 3 26 12 4 12 20 16 54 16 30 0 54 6 64 15 8 8 23 15 34 15 11 0 25 7 32 15 7 8 20 15 30 15 10 0 23 7 30 15 7 8 20 15 29 15 10 0 30 14 46 30 16 17 37 30 46 30 10 0 21 5 24 10 3 6 14 10 24 10 9 0 30 14 46 30 16 17 36 30 46 30 9 0 22 7 29 15 7 8 20 15 30 15 10 0 23 7 30 15 7 8 20 15 30 15 9 0 25 9 36 21 10 11 32 26 49 33 16 7 54 36 83 64 30 29 62 52 73 52 10 0 19 3 19 8 0 10 78 74 95 76 7 1 37 25 66 54 29 29 58 52 66 52 15 0 18 -17 4 -22 -25 -9 -290 -273 -293 -292 -2 -13 -11 -22 -25 -24 -12 -2 -51 -33 -86 -70 -36 -37 -91 -89 -121 -116 -32 -27 -56 -57 -56 -67 0 -11 -8 -22 -17 -25 -10 -3 -30 -12 -44 -20 -14 -7 -28 -11 -31 -9 -2 3 -24 -16 -48 -40 -24 -25 -50 -45 -58 -45 -8 0 -31 -13 -52 -30 -21 -16 -44 -30 -51 -30 -8 -1 -32 -19 -54 -40 -22 -22 -45 -40 -52 -40 -7 0 -28 -13 -46 -30 -19 -16 -40 -30 -47 -30 -7 0 -28 -13 -47 -30 -18 -16 -40 -30 -47 -30 -7 0 -23 -11 -36 -25 -13 -14 -32 -25 -42 -25 -10 0 -30 -13 -45 -30 -15 -17 -36 -30 -50 -30 -12 0 -23 -4 -23 -9 0 -9 -12 -16 -140 -81 -36 -19 -66 -37 -68 -42 -2 -4 -14 -8 -27 -8 -12 0 -28 -7 -35 -15 -7 -8 -20 -15 -30 -15 -10 0 -23 -7 -30 -15 -7 -8 -18 -15 -25 -15 -6 0 -32 -11 -56 -25 -24 -14 -51 -27 -59 -31 -8 -3 -23 -10 -32 -15 -10 -5 -24 -9 -32 -9 -7 0 -19 -7 -26 -15 -7 -8 -20 -15 -29 -15 -24 0 -64 -44 -59 -67 4 -24 75 -32 84 -9 4 10 18 16 39 16 18 0 38 7 45 15 7 8 23 15 35 15 12 0 28 7 35 15 7 8 25 15 40 15 15 0 33 7 40 15 7 8 23 15 36 15 12 0 26 5 29 10 3 6 14 10 24 10 10 0 24 7 31 15 7 8 25 15 41 15 15 0 34 7 43 15 8 8 25 15 39 15 13 0 43 14 65 30 23 17 48 30 56 30 7 0 19 7 26 15 7 8 18 15 25 15 7 0 33 18 58 40 25 22 52 40 60 40 8 0 20 7 27 15 7 8 20 15 29 15 10 0 30 14 46 30 16 17 38 30 48 30 11 0 30 12 42 26 12 14 29 26 37 28 9 1 32 14 51 29 20 15 42 27 49 27 7 0 38 25 68 55 30 30 62 55 69 55 8 0 27 11 41 25 15 14 41 34 58 43 17 9 79 62 137 116 58 55 118 107 134 117 45 27 71 52 71 68 0 21 159 173 172 165 7 -4 5 -10 -6 -16 -9 -5 -16 -20 -16 -33 0 -13 -4 -25 -9 -27 -5 -1 -113 -104 -241 -228 -128 -124 -240 -226 -250 -228 -10 -2 -70 -52 -132 -112 -62 -60 -120 -109 -129 -110 -8 0 -28 -13 -44 -30 -16 -16 -37 -30 -46 -30 -10 0 -35 -18 -57 -40 -21 -22 -46 -40 -54 -40 -9 0 -51 -34 -94 -75 -44 -41 -86 -75 -94 -75 -9 0 -40 -25 -70 -55 -30 -30 -62 -55 -71 -55 -10 0 -35 -18 -57 -40 -21 -22 -46 -40 -55 -40 -8 0 -29 -13 -45 -30 -17 -16 -39 -30 -49 -30 -11 0 -32 -13 -48 -30 -16 -16 -36 -30 -45 -30 -16 0 -80 -59 -80 -73 0 -15 48 -6 65 13 18 20 93 60 112 60 6 0 16 7 23 15 7 8 20 15 29 15 10 0 28 11 41 25 13 14 29 25 36 25 7 0 29 14 47 30 19 17 42 30 50 30 8 0 36 20 61 45 26 25 54 45 62 45 8 0 53 37 100 83 47 45 93 84 102 86 9 1 24 8 32 15 8 7 27 18 42 25 15 8 55 40 89 72 34 33 69 59 78 59 9 0 54 38 101 85 47 47 91 85 100 85 8 0 67 50 130 110 63 61 129 117 146 126 42 20 104 83 104 105 0 20 37 36 52 21 6 -6 -5 -24 -31 -51 -23 -23 -41 -48 -41 -55 0 -7 -27 -38 -60 -69 -33 -31 -60 -62 -60 -70 0 -7 -40 -53 -90 -101 -49 -49 -90 -95 -90 -102 0 -8 -34 -46 -75 -85 -41 -39 -75 -79 -75 -88 0 -9 -58 -72 -130 -140 -71 -68 -130 -131 -130 -140 0 -10 -27 -41 -60 -71 -33 -30 -60 -60 -60 -69 0 -8 -7 -23 -17 -33 -29 -32 -4 -33 30 -1 17 17 40 33 49 35 15 3 241 210 343 313 22 23 52 49 68 58 15 10 27 22 27 27 0 15 184 190 201 190 9 0 22 7 29 15 7 8 23 15 35 15 13 0 25 7 29 15 3 8 14 15 25 15 11 0 34 13 52 30 18 16 36 27 40 24 4 -2 20 8 36 24 15 15 40 33 55 39 15 7 45 28 66 48 22 19 46 35 54 35 8 0 25 11 38 25 13 14 31 25 40 25 9 0 36 20 60 45 24 25 52 45 61 45 9 0 42 25 74 55 33 31 68 55 80 55 11 0 29 6 40 14 11 7 32 16 48 20 15 3 27 11 27 16 0 6 17 10 39 10 22 0 44 6 51 15 14 17 50 20 50 5 0 -16 -73 -79 -92 -80 -9 0 -20 -4 -23 -10 -3 -5 -14 -10 -23 -10 -20 0 -212 -186 -212 -205 0 -7 -7 -18 -15 -25 -8 -7 -15 -20 -15 -30 0 -10 -7 -23 -15 -30 -8 -7 -15 -21 -15 -31 0 -11 -4 -19 -10 -19 -5 0 -13 -12 -16 -27 -4 -15 -13 -34 -21 -41 -7 -7 -13 -20 -13 -29 0 -8 -11 -24 -25 -35 -14 -11 -25 -27 -25 -37 0 -9 -13 -30 -30 -46 -16 -16 -30 -35 -30 -42 0 -7 -13 -25 -29 -40 -15 -16 -39 -46 -53 -68 -14 -22 -35 -49 -47 -59 -11 -11 -21 -24 -21 -30 0 -20 -237 -256 -261 -259 -8 -2 -42 -22 -77 -45 -35 -23 -71 -42 -80 -42 -9 0 -34 -18 -55 -40 -20 -22 -46 -40 -56 -40 -10 0 -24 -7 -31 -15 -7 -8 -25 -15 -41 -15 -15 0 -34 -7 -43 -15 -8 -8 -30 -15 -49 -15 -19 0 -40 -7 -47 -15 -7 -8 -28 -15 -47 -15 -21 0 -36 -6 -39 -15 -4 -10 -20 -15 -45 -15 -21 0 -39 -4 -39 -10 0 -5 -18 -10 -40 -10 -34 0 -40 -3 -40 -21 0 -20 4 -21 60 -16 45 4 64 1 75 -9 13 -13 17 -13 37 0 15 10 40 14 70 11 36 -3 53 1 72 16 13 10 38 19 55 19 17 0 31 5 31 10 0 6 17 10 39 10 22 0 44 6 51 15 7 8 20 15 30 15 10 0 23 7 30 15 7 8 18 15 24 15 7 0 27 13 46 30 19 16 40 29 46 30 17 0 100 48 114 65 7 8 20 15 29 15 20 0 231 201 231 219 0 24 102 121 126 121 28 0 29 -3 8 -35 -9 -13 -13 -29 -9 -35 4 -6 -1 -23 -11 -38 -28 -41 -44 -73 -44 -87 0 -7 -7 -18 -15 -25 -8 -7 -15 -27 -15 -45 0 -18 -7 -38 -15 -45 -8 -7 -15 -25 -15 -40 0 -15 -7 -33 -15 -40 -8 -7 -15 -20 -15 -30 0 -10 -7 -23 -15 -30 -8 -7 -15 -20 -15 -29 0 -10 -13 -30 -30 -46 -16 -16 -30 -35 -30 -42 0 -7 -13 -25 -28 -40 -16 -16 -54 -66 -85 -113 -30 -47 -65 -93 -76 -102 -12 -10 -21 -24 -21 -32 0 -8 -25 -38 -55 -67 -30 -28 -55 -58 -55 -65 0 -7 -68 -80 -152 -161 -83 -81 -166 -163 -184 -180 -17 -18 -40 -33 -50 -33 -11 -1 -39 -21 -64 -45 -25 -25 -59 -51 -75 -59 -17 -8 -41 -26 -54 -40 -14 -14 -32 -26 -41 -26 -9 0 -27 -11 -40 -25 -13 -14 -31 -25 -40 -25 -9 0 -29 -13 -45 -30 -16 -16 -37 -30 -47 -30 -17 0 -148 -117 -148 -132 0 -12 48 -10 55 2 3 6 21 10 40 10 19 0 36 4 39 9 7 11 88 51 103 51 6 0 16 7 23 15 7 8 20 15 29 15 9 0 28 11 43 25 15 14 34 25 43 25 8 0 25 12 38 26 12 14 36 32 53 39 17 7 56 36 85 64 30 28 61 51 69 51 8 0 33 19 57 42 23 23 46 38 50 34 5 -4 -6 -20 -24 -36 -17 -16 -29 -31 -26 -34 10 -10 53 -7 53 4 0 6 10 10 23 10 26 1 387 347 387 371 0 17 123 139 140 139 19 0 10 -17 -20 -40 -16 -13 -30 -30 -30 -40 0 -9 -13 -29 -30 -45 -21 -20 -30 -38 -30 -61 0 -17 -7 -37 -15 -44 -8 -7 -15 -18 -15 -24 0 -7 -11 -23 -25 -36 -14 -13 -25 -29 -25 -35 0 -7 -9 -23 -19 -37 -13 -16 -17 -29 -11 -39 7 -11 12 -11 22 -1 15 15 28 16 28 2 0 -14 -32 -50 -45 -50 -5 0 -30 -30 -54 -66 -24 -36 -49 -68 -57 -71 -8 -3 -14 -14 -14 -24 0 -11 -20 -38 -45 -61 -25 -23 -45 -49 -45 -58 0 -9 -13 -29 -30 -45 -16 -16 -30 -36 -30 -44 0 -8 -27 -41 -60 -72 -33 -31 -60 -63 -60 -71 0 -18 -373 -380 -404 -391 -28 -11 -66 -47 -66 -63 0 -16 -91 -102 -128 -121 -15 -8 -54 -41 -87 -74 -33 -32 -67 -59 -76 -59 -20 0 -92 -64 -83 -73 19 -19 74 -6 103 24 17 17 35 28 40 25 5 -3 14 1 21 9 7 8 23 15 36 15 13 0 24 4 24 10 0 5 20 19 44 31 25 11 50 27 57 35 6 8 19 14 29 14 10 0 23 7 30 15 7 8 20 15 29 15 9 0 48 32 86 70 38 39 77 70 85 70 9 0 34 18 55 40 21 22 47 40 58 40 10 0 79 59 155 134 75 73 179 173 230 223 50 49 92 96 92 104 0 8 25 39 55 68 30 30 55 59 55 65 0 7 14 25 30 41 17 16 30 36 30 45 0 9 20 36 45 60 25 24 45 49 45 55 0 7 13 25 30 41 16 16 30 36 30 45 0 19 44 62 53 52 13 -12 7 -60 -8 -73 -8 -7 -15 -27 -15 -45 0 -18 -7 -38 -15 -45 -8 -7 -15 -21 -15 -30 0 -10 -20 -36 -45 -58 -25 -22 -45 -48 -45 -60 0 -11 -7 -22 -15 -26 -8 -3 -15 -14 -15 -24 0 -11 -7 -25 -15 -32 -8 -7 -15 -20 -15 -30 0 -10 -7 -23 -15 -30 -8 -7 -12 -16 -9 -21 2 -5 -18 -31 -46 -59 -27 -27 -50 -56 -50 -63 0 -18 -122 -137 -141 -137 -23 0 -59 -29 -59 -49 0 -22 -203 -225 -230 -229 -10 -2 -47 -30 -81 -63 -35 -32 -71 -59 -79 -59 -9 0 -27 -11 -40 -25 -13 -14 -31 -25 -40 -25 -9 0 -36 -20 -60 -45 -24 -25 -52 -45 -61 -45 -10 0 -21 -4 -24 -10 -3 -5 -14 -10 -24 -10 -10 0 -26 -9 -36 -20 -10 -11 -26 -20 -36 -20 -9 0 -27 -11 -40 -25 -13 -13 -31 -25 -40 -25 -9 0 -22 -7 -29 -15 -7 -8 -23 -15 -36 -15 -13 0 -24 -4 -24 -9 0 -5 -10 -13 -22 -17 -32 -10 -67 -37 -68 -51 0 -14 -72 -63 -93 -63 -7 0 -26 -13 -42 -30 -16 -16 -36 -30 -45 -30 -16 0 -80 -59 -80 -73 0 -20 83 7 122 40 9 8 25 12 35 9 12 -4 42 9 87 39 38 25 74 45 81 45 7 0 18 7 25 15 7 8 20 15 30 15 10 0 23 7 30 15 7 8 21 15 31 15 10 0 21 5 24 10 3 6 14 10 24 10 10 0 24 7 31 15 7 8 20 15 30 15 9 0 30 13 46 30 16 16 37 30 48 30 10 0 27 11 38 25 11 14 27 25 37 25 10 0 28 9 41 20 12 11 26 17 30 15 4 -3 13 2 20 10 7 8 23 15 35 15 13 0 34 13 48 30 14 17 34 30 45 30 11 0 25 7 32 15 7 8 20 15 29 15 9 0 35 18 56 40 21 22 46 40 54 40 8 0 49 34 92 75 42 41 84 75 93 75 9 0 21 11 26 25 6 15 17 25 29 25 12 0 22 9 27 23 3 12 26 43 50 69 24 26 44 52 44 58 0 7 20 32 45 57 25 25 52 57 60 72 7 15 32 44 54 64 23 20 41 45 41 55 0 18 33 52 50 52 15 0 12 -17 -5 -24 -8 -3 -15 -15 -15 -26 0 -11 -7 -23 -15 -26 -8 -4 -15 -16 -15 -29 0 -12 -7 -28 -15 -35 -8 -7 -15 -18 -15 -25 0 -7 -13 -27 -30 -45 -16 -18 -30 -38 -30 -45 0 -7 -7 -18 -15 -25 -8 -7 -15 -20 -15 -29 0 -10 -13 -30 -30 -46 -16 -16 -30 -35 -30 -42 0 -8 -11 -26 -25 -41 -14 -15 -25 -31 -25 -37 0 -6 -27 -37 -60 -70 -33 -33 -60 -65 -60 -71 0 -7 -47 -58 -105 -115 -58 -57 -105 -110 -105 -118 0 -8 -27 -41 -60 -72 -33 -31 -60 -63 -60 -71 0 -8 -99 -110 -220 -227 -121 -117 -220 -218 -220 -225 0 -21 -184 -196 -207 -196 -16 0 -22 -7 -25 -27 -2 -21 -9 -29 -28 -31 -26 -4 -60 -29 -60 -43 0 -5 11 -16 25 -25 24 -15 25 -15 51 15 14 17 34 31 44 31 10 0 22 4 25 10 3 6 15 10 25 10 10 0 39 20 64 45 26 25 53 45 61 45 8 0 40 24 71 53 31 28 64 54 74 57 10 3 109 93 220 200 111 107 206 197 211 198 5 2 9 15 9 28 0 14 7 27 15 30 8 4 15 14 15 23 0 9 34 50 75 91 41 41 75 80 75 86 0 7 45 56 100 110 55 54 100 105 100 114 0 9 27 40 60 69 33 30 60 61 60 71 0 10 7 23 15 30 8 7 15 21 15 30 0 10 20 36 45 58 25 22 45 48 45 58 1 23 46 59 55 44 3 -6 -1 -13 -9 -16 -9 -3 -16 -17 -16 -30 0 -13 -4 -24 -9 -24 -11 0 -81 -108 -81 -126 0 -7 -13 -23 -30 -36 -16 -12 -30 -31 -30 -42 0 -12 -14 -32 -30 -45 -17 -13 -30 -28 -30 -34 0 -19 -40 -94 -60 -112 -11 -10 -20 -23 -20 -30 0 -6 -13 -24 -30 -40 -16 -16 -30 -36 -30 -45 0 -9 -9 -25 -20 -35 -11 -10 -20 -26 -20 -37 0 -10 -4 -18 -10 -18 -5 0 -10 -7 -10 -15 0 -8 3 -15 6 -15 14 0 164 155 164 169 0 15 127 141 142 141 17 0 6 -16 -37 -58 -25 -24 -45 -49 -45 -56 0 -6 -20 -32 -45 -56 -25 -24 -45 -51 -45 -58 0 -8 -27 -41 -60 -73 -33 -32 -60 -64 -60 -72 0 -7 -18 -30 -40 -52 -21 -21 -40 -48 -42 -59 -2 -15 -11 -22 -30 -24 -16 -2 -28 -9 -28 -17 0 -8 -12 -22 -27 -32 -49 -31 -93 -76 -93 -93 0 -10 -7 -23 -15 -30 -8 -7 -15 -20 -15 -30 0 -10 -7 -23 -15 -30 -8 -7 -15 -18 -15 -26 0 -7 -27 -38 -60 -70 -33 -31 -60 -64 -60 -72 0 -9 -10 -26 -21 -38 -12 -13 -27 -34 -33 -46 -6 -13 -20 -24 -31 -26 -11 -2 -29 -14 -41 -25 -74 -78 -173 -169 -187 -171 -26 -4 -327 -295 -327 -316 0 -10 -13 -30 -30 -43 -16 -14 -30 -32 -30 -39 0 -20 -183 -198 -204 -198 -10 0 -81 -62 -158 -137 -77 -76 -146 -144 -154 -151 -8 -7 -14 -22 -14 -33 0 -14 -7 -19 -25 -19 -16 0 -25 -6 -25 -15 0 -27 34 -15 85 30 28 24 56 45 64 45 7 0 30 18 51 40 21 22 46 40 57 40 10 0 37 18 58 40 21 22 46 40 55 40 9 0 36 20 60 45 24 25 51 45 60 45 8 0 37 21 64 45 27 25 56 45 64 45 8 0 33 18 54 40 22 22 47 40 57 40 9 0 35 18 56 40 21 22 46 40 55 40 9 0 36 20 60 45 24 25 51 45 60 45 8 0 30 14 49 30 18 17 40 30 48 30 7 0 32 18 55 41 22 22 46 38 53 35 17 -6 8 -84 -11 -107 -8 -8 -14 -23 -14 -33 0 -9 -7 -19 -15 -22 -9 -4 -15 -19 -15 -39 0 -18 -7 -38 -15 -45 -8 -7 -15 -20 -15 -29 0 -10 -13 -30 -30 -46 -16 -16 -30 -35 -30 -42 0 -8 -62 -73 -137 -146 -76 -73 -157 -151 -181 -174 -24 -24 -51 -43 -58 -43 -8 0 -24 -12 -37 -27 -44 -53 -57 -63 -81 -63 -14 0 -39 -16 -64 -40 -35 -36 -45 -40 -89 -40 -27 0 -57 -6 -68 -14 -32 -21 -72 -29 -190 -35 -94 -5 -110 -9 -113 -23 -3 -16 6 -18 91 -18 72 0 98 -4 107 -15 16 -19 64 -19 84 0 10 10 35 15 79 15 45 0 68 5 77 15 7 9 29 15 55 15 26 0 48 6 55 15 7 9 29 15 51 15 22 0 39 5 39 10 0 6 9 10 19 10 11 0 26 7 34 15 8 7 26 17 41 21 14 3 26 10 26 15 0 5 11 9 24 9 14 0 32 12 46 30 13 17 30 30 39 30 23 1 59 32 63 55 2 11 12 21 23 23 28 5 95 72 95 94 0 10 7 21 15 24 8 4 15 14 15 23 0 10 14 30 30 46 17 16 30 36 30 46 0 9 7 22 15 29 8 7 15 20 15 30 0 10 7 23 15 30 8 7 15 20 15 30 0 10 7 23 15 30 8 7 15 18 15 24 0 7 12 23 26 37 14 13 35 39 46 59 12 19 45 58 75 87 29 28 53 58 53 65 0 8 34 47 75 87 41 40 75 80 75 88 0 8 27 39 60 70 33 30 60 63 60 72 0 10 14 30 30 46 17 16 30 34 30 41 0 7 25 36 55 65 30 28 55 60 55 70 0 9 13 29 30 42 16 14 30 32 30 39 0 8 14 28 30 46 17 18 30 39 30 46 0 7 14 25 30 41 17 16 30 36 30 45 0 23 129 145 141 133 6 -6 -2 -18 -21 -31 -16 -13 -30 -31 -30 -41 0 -10 -20 -37 -45 -60 -25 -23 -45 -50 -45 -60 0 -10 -13 -28 -30 -41 -16 -13 -30 -30 -30 -38 0 -8 -13 -30 -30 -49 -16 -18 -30 -40 -30 -47 0 -8 -7 -19 -15 -26 -8 -7 -15 -24 -15 -39 0 -14 -7 -35 -15 -45 -8 -11 -15 -32 -15 -47 0 -14 -7 -32 -15 -39 -8 -7 -15 -20 -15 -29 0 -29 -31 -106 -46 -114 -8 -4 -14 -17 -14 -27 0 -10 -4 -22 -10 -25 -5 -3 -10 -14 -10 -24 0 -10 -7 -24 -15 -31 -16 -14 -45 -67 -45 -84 0 -6 -34 -45 -75 -86 -53 -53 -75 -82 -75 -99 0 -18 -26 -51 -90 -117 -49 -50 -90 -96 -90 -102 0 -17 -209 -216 -233 -222 -12 -3 -24 -15 -27 -26 -3 -11 -65 -78 -137 -148 -73 -71 -133 -135 -133 -143 0 -8 -18 -31 -40 -52 -22 -21 -40 -44 -40 -52 0 -20 -70 -86 -95 -91 -11 -2 -21 -12 -23 -23 -2 -11 -35 -49 -73 -85 -131 -124 -189 -183 -189 -191 0 -12 17 -11 25 1 3 6 14 10 24 10 9 0 30 14 47 31 16 17 45 39 64 49 19 10 53 37 75 59 21 23 46 41 55 41 8 0 38 22 65 48 28 26 70 59 95 74 25 14 56 38 69 52 14 14 32 26 41 26 9 0 27 11 40 25 13 14 31 25 40 25 9 0 34 19 57 43 22 23 96 95 166 160 69 65 129 128 132 139 4 11 65 77 137 146 71 70 136 138 143 152 12 23 135 148 370 373 55 53 108 97 117 97 9 0 20 4 23 10 8 13 35 13 35 0 0 -5 -5 -10 -11 -10 -15 0 -48 -41 -49 -60 0 -9 -13 -27 -30 -40 -16 -14 -29 -32 -30 -41 0 -8 -13 -28 -30 -44 -16 -16 -30 -36 -30 -46 0 -9 -7 -22 -15 -29 -8 -7 -15 -18 -15 -25 0 -7 -7 -18 -15 -25 -23 -19 -18 -30 15 -30 17 0 30 5 30 10 0 6 7 10 16 10 10 0 -17 -35 -70 -90 -47 -49 -86 -94 -86 -99 0 -6 -62 -71 -137 -144 -223 -216 -267 -257 -285 -263 -10 -3 -18 -12 -18 -20 0 -8 -15 -21 -32 -29 -18 -7 -55 -36 -83 -64 -30 -32 -58 -51 -72 -51 -13 0 -31 -12 -44 -30 -12 -16 -42 -38 -66 -50 -23 -11 -48 -29 -55 -40 -7 -11 -22 -20 -34 -20 -11 0 -33 -13 -49 -30 -16 -17 -36 -30 -45 -30 -9 0 -29 -13 -45 -30 -16 -16 -36 -30 -45 -30 -9 0 -27 -11 -40 -25 -13 -14 -31 -25 -39 -25 -9 -1 -32 -14 -51 -30 -19 -17 -39 -30 -45 -30 -5 0 -22 -11 -37 -25 -15 -14 -34 -25 -42 -25 -8 0 -28 -13 -44 -30 -17 -17 -39 -30 -50 -30 -11 0 -25 -7 -32 -15 -7 -8 -20 -15 -30 -15 -10 0 -23 -7 -30 -15 -7 -8 -27 -15 -45 -15 -18 0 -38 -7 -45 -15 -7 -8 -20 -15 -30 -15 -10 0 -23 -7 -30 -15 -8 -10 -30 -15 -61 -15 -26 0 -51 -4 -54 -10 -3 -5 -22 -10 -41 -10 -22 0 -37 -6 -40 -15 -4 -9 -19 -15 -39 -15 -18 0 -38 -7 -45 -15 -8 -10 -30 -15 -62 -15 -31 0 -55 -6 -64 -15 -9 -8 -28 -15 -44 -15 -16 0 -35 -7 -44 -15 -10 -11 -36 -15 -90 -15 -41 0 -78 -4 -81 -10 -3 -5 -13 -10 -22 -10 -8 0 -26 -9 -40 -20 -15 -12 -34 -18 -47 -14 -16 4 -33 -7 -68 -41 -26 -25 -53 -45 -61 -45 -19 0 -87 -65 -87 -83 0 -8 -7 -20 -15 -27 -8 -7 -15 -20 -15 -30 0 -10 -13 -30 -30 -43 -30 -26 -39 -47 -19 -47 20 0 101 75 125 115 49 84 126 115 283 115 67 0 125 6 156 16 39 12 92 14 240 12 144 -1 196 1 214 11 14 8 64 16 113 19 57 3 92 10 99 18 6 8 23 14 38 14 14 0 35 7 45 15 11 8 35 15 53 15 18 0 33 5 33 10 0 6 34 10 81 10 66 0 84 3 94 17 13 17 14 17 33 0 18 -17 21 -16 81 28 33 25 65 45 70 45 5 0 14 7 21 15 7 8 20 15 30 15 26 0 81 30 87 49 9 26 45 61 63 61 9 0 36 20 60 45 24 25 52 45 61 45 23 0 49 32 49 62 0 19 16 42 56 80 31 29 56 51 57 48 1 -2 16 4 33 14 19 11 39 16 50 12 15 -6 14 -10 -14 -39 -18 -18 -32 -38 -32 -43 0 -6 -38 -49 -85 -95 -47 -46 -85 -90 -85 -99 0 -8 -13 -26 -30 -40 -16 -14 -30 -32 -30 -41 0 -9 -7 -22 -15 -29 -8 -7 -15 -19 -15 -26 0 -30 -44 -95 -95 -139 -35 -30 -55 -55 -55 -69 0 -11 -9 -36 -20 -54 -25 -41 -25 -52 0 -52 11 0 20 4 20 9 0 5 10 13 23 16 12 4 36 18 53 30 17 13 46 25 65 27 26 2 35 8 37 24 2 12 16 34 33 49 16 16 29 35 29 44 0 8 25 38 55 66 30 29 55 58 55 64 0 7 20 34 45 60 25 26 45 55 45 62 0 8 32 44 71 79 39 36 81 83 95 106 30 50 148 162 191 180 17 8 34 18 38 24 3 5 21 10 40 10 19 0 37 5 40 10 3 6 13 10 22 10 8 0 47 32 86 70 38 39 78 70 87 70 9 0 43 27 76 60 32 33 62 60 67 60 13 0 7 -47 -8 -60 -8 -7 -15 -20 -15 -30 0 -9 -52 -66 -115 -126 -63 -60 -115 -116 -115 -125 0 -20 -264 -272 -293 -279 -12 -3 -24 -15 -27 -27 -3 -11 -78 -92 -167 -178 -90 -87 -163 -164 -163 -172 0 -8 -11 -24 -26 -36 -14 -12 -26 -29 -27 -37 -2 -9 -15 -32 -30 -51 -15 -20 -27 -45 -27 -57 0 -26 -48 -72 -75 -72 -12 0 -30 -7 -41 -15 -13 -10 -45 -14 -106 -15 -48 0 -90 -4 -93 -10 -3 -5 -15 -10 -27 -10 -11 0 -31 -9 -45 -20 -14 -11 -29 -18 -33 -15 -4 3 -13 -2 -20 -10 -7 -8 -21 -15 -31 -15 -43 0 -209 -135 -209 -170 0 -9 -13 -29 -30 -45 -16 -16 -30 -36 -30 -46 0 -9 -7 -22 -15 -29 -8 -7 -15 -20 -15 -30 0 -10 -7 -20 -15 -24 -9 -3 -15 -18 -15 -35 0 -32 -27 -91 -47 -104 -7 -4 -13 -21 -13 -38 0 -16 -7 -41 -16 -54 -10 -15 -15 -41 -13 -68 2 -28 -3 -52 -14 -67 -9 -14 -17 -35 -17 -47 0 -13 -4 -31 -9 -41 -4 -9 -18 -38 -31 -63 -13 -26 -20 -53 -17 -62 3 -8 -1 -23 -8 -34 -8 -10 -15 -25 -15 -34 0 -21 -158 -169 -180 -169 -9 0 -33 -18 -55 -40 -34 -34 -36 -40 -20 -46 10 -4 25 -2 34 4 9 7 23 15 31 18 8 3 22 9 30 14 8 5 33 19 55 30 43 24 75 56 75 76 0 7 25 36 55 65 30 28 55 58 55 66 0 8 9 26 20 40 11 14 20 32 20 39 0 8 5 14 10 14 6 0 10 9 10 19 0 11 6 26 12 33 7 7 21 31 32 53 10 22 22 47 27 55 5 8 13 25 18 37 6 11 15 24 20 28 6 3 11 21 11 39 0 19 7 39 15 46 8 7 15 20 15 30 0 10 7 23 15 30 8 7 15 19 15 27 0 8 7 21 15 29 8 9 15 24 15 34 0 10 7 20 15 24 8 3 15 14 15 24 0 11 7 25 15 32 8 7 15 20 15 30 0 10 7 23 15 30 8 7 15 19 15 27 0 8 14 19 30 24 18 7 30 18 30 28 0 22 60 81 82 81 9 0 19 4 22 9 7 11 88 51 103 51 6 0 16 7 23 15 7 8 26 15 43 15 17 0 38 7 48 16 10 9 25 14 34 10 23 -8 31 -37 13 -50 -8 -6 -18 -23 -22 -38 -3 -16 -11 -28 -16 -28 -6 0 -10 -8 -10 -19 0 -10 -7 -24 -15 -31 -8 -7 -15 -19 -15 -28 0 -8 -20 -37 -45 -63 -25 -26 -45 -55 -45 -64 0 -8 -4 -15 -10 -15 -5 0 -12 -11 -16 -24 -3 -13 -19 -36 -35 -52 -16 -15 -29 -34 -29 -42 0 -7 -7 -20 -15 -28 -8 -9 -15 -28 -15 -43 0 -17 -11 -38 -30 -56 -21 -20 -30 -38 -30 -61 0 -18 -4 -36 -10 -39 -6 -3 -10 -14 -10 -24 0 -9 -13 -27 -30 -39 -16 -13 -30 -31 -30 -41 0 -10 -7 -24 -15 -31 -8 -7 -15 -20 -15 -29 0 -10 -13 -30 -30 -46 -16 -16 -30 -34 -30 -40 0 -6 -20 -31 -45 -55 -27 -27 -45 -53 -45 -67 0 -30 10 -29 40 5 14 15 37 36 51 48 15 11 33 33 42 49 8 17 27 41 41 54 14 14 26 30 26 37 0 7 14 29 30 47 17 19 30 41 30 49 0 8 14 24 30 36 17 13 30 31 30 41 0 10 7 24 15 31 8 7 15 20 15 30 0 9 17 28 37 41 21 13 44 36 51 51 7 15 24 36 37 46 14 11 25 29 25 40 0 11 7 22 15 26 8 3 15 14 15 24 0 11 7 25 15 32 8 7 15 20 15 30 0 10 13 29 29 43 16 13 31 32 33 43 1 10 14 21 28 24 15 4 26 14 28 27 2 11 16 33 33 48 16 16 29 34 29 40 0 16 31 78 42 86 5 3 10 12 11 20 6 36 17 39 132 38 63 -1 119 -5 124 -9 6 -3 -8 -25 -34 -50 -25 -24 -45 -51 -45 -60 0 -8 -20 -32 -44 -53 -25 -21 -46 -47 -48 -59 -2 -14 -12 -24 -28 -28 -15 -4 -26 -14 -28 -27 -2 -12 -10 -27 -18 -33 -8 -7 -14 -21 -14 -31 0 -10 -5 -21 -10 -24 -15 -9 -2 -25 21 -25 12 0 19 7 19 19 0 12 79 95 203 215 l202 196 78 0 c44 0 77 4 77 10 0 6 11 10 25 10 14 0 28 7 31 15 5 12 25 15 90 15 66 0 86 3 90 15 4 10 20 15 45 15 21 0 39 4 39 8 0 5 16 16 36 25 19 10 57 37 83 62 46 43 74 55 85 37 3 -5 -8 -22 -24 -37 -17 -16 -30 -33 -30 -38 0 -4 -11 -23 -25 -41 -14 -18 -25 -36 -25 -41 0 -4 -16 -25 -35 -46 -19 -22 -35 -43 -35 -49 0 -5 -18 -28 -40 -52 -22 -24 -40 -47 -40 -53 0 -14 -82 -95 -96 -95 -6 0 -19 -11 -28 -25 -9 -14 -22 -25 -29 -25 -18 0 -147 -125 -147 -143 0 -8 -7 -20 -15 -27 -8 -7 -15 -20 -15 -30 0 -10 -7 -23 -15 -30 -8 -7 -13 -16 -10 -20 3 -5 -8 -23 -25 -41 -17 -19 -30 -45 -30 -59 0 -16 -12 -38 -30 -55 -36 -34 -38 -45 -7 -45 24 0 117 86 117 109 0 7 54 64 120 128 66 64 120 123 120 132 0 22 61 77 95 85 14 4 25 11 25 16 0 6 10 10 23 10 22 0 87 60 87 81 0 6 20 32 45 58 25 26 45 54 45 62 0 8 20 32 45 53 25 22 45 47 45 56 0 18 158 176 166 167 5 -5 -5 -28 -28 -67 -5 -8 -14 -27 -21 -43 -6 -15 -15 -27 -19 -27 -4 0 -8 -8 -8 -18 0 -9 -20 -39 -45 -66 -25 -27 -45 -54 -45 -61 0 -6 -20 -31 -45 -55 -25 -24 -45 -50 -45 -56 0 -19 -102 -114 -122 -114 -10 0 -18 -4 -18 -10 0 -22 -2 -26 -22 -47 -12 -13 -28 -23 -35 -23 -8 0 -36 -20 -62 -45 -26 -25 -57 -45 -67 -45 -11 0 -34 -22 -57 -54 -53 -74 -270 -286 -293 -286 -11 -1 -44 -25 -74 -55 -30 -30 -62 -55 -71 -55 -8 0 -28 -13 -44 -30 -16 -16 -33 -30 -38 -30 -6 0 -25 -12 -44 -26 -19 -14 -40 -27 -48 -28 -8 -1 -22 -9 -32 -17 -32 -25 -62 -39 -87 -39 -18 0 -25 -7 -29 -30 -6 -27 -10 -30 -46 -30 -22 0 -44 -6 -51 -15 -7 -8 -20 -15 -30 -15 -10 0 -23 -7 -30 -15 -7 -8 -20 -15 -29 -15 -10 0 -28 -11 -40 -24 -13 -14 -37 -26 -54 -28 -36 -4 -60 -34 -37 -48 10 -6 17 -5 23 5 5 10 24 15 56 15 31 0 53 5 61 15 7 8 27 15 45 15 18 0 38 7 45 15 7 8 27 15 46 15 18 0 36 5 39 10 3 6 14 10 24 10 10 0 24 7 31 15 8 9 30 15 60 15 30 0 52 6 60 15 7 8 20 15 29 15 10 0 30 13 46 30 16 17 39 30 52 30 13 0 23 5 23 10 0 6 8 10 18 10 11 0 27 9 37 20 10 11 25 20 34 20 9 0 34 17 56 38 22 20 51 42 65 48 36 16 159 132 177 168 9 16 44 59 79 93 35 35 64 69 64 76 0 7 28 41 63 75 49 49 69 62 93 62 21 0 39 10 59 30 16 17 39 30 52 30 13 0 23 4 23 9 0 13 27 21 45 15 19 -8 19 -38 0 -54 -8 -7 -15 -28 -15 -47 0 -21 -6 -36 -15 -39 -8 -4 -15 -14 -15 -24 0 -10 -7 -23 -15 -30 -8 -7 -15 -27 -15 -45 0 -18 -7 -38 -15 -45 -8 -7 -15 -20 -15 -30 0 -10 -7 -23 -15 -30 -8 -7 -15 -20 -15 -29 0 -9 -9 -22 -20 -29 -11 -6 -26 -28 -34 -47 -9 -21 -22 -35 -33 -35 -10 0 -70 -50 -133 -110 -63 -61 -121 -110 -130 -110 -9 0 -27 -12 -41 -26 -13 -14 -40 -34 -59 -44 -19 -10 -46 -30 -59 -44 -14 -14 -32 -26 -42 -26 -10 0 -20 -4 -23 -9 -4 -5 -26 -19 -50 -31 -24 -11 -47 -27 -50 -35 -3 -8 -13 -15 -21 -15 -9 0 -31 -11 -49 -25 -18 -14 -40 -25 -48 -25 -9 0 -23 -11 -32 -25 -21 -32 -20 -38 3 -25 11 5 36 10 56 10 21 0 48 9 64 21 16 12 34 18 40 14 7 -4 22 0 34 8 12 7 34 17 50 21 15 3 27 11 27 16 0 6 8 10 19 10 10 0 24 7 31 15 7 8 19 15 26 15 22 0 86 37 129 75 22 19 46 35 53 35 7 0 33 19 57 41 25 23 58 49 74 58 43 24 191 166 191 183 0 8 14 27 30 43 17 16 30 36 30 45 0 9 14 29 30 45 17 16 30 36 30 46 0 9 7 22 15 29 8 7 15 18 15 25 0 7 7 18 15 25 8 7 15 24 15 37 0 15 5 23 13 21 18 -7 21 -47 3 -54 -10 -4 -16 -18 -16 -39 0 -19 -7 -40 -15 -49 -8 -8 -15 -29 -15 -46 0 -18 -6 -33 -15 -36 -8 -4 -15 -17 -15 -30 0 -14 -7 -27 -15 -30 -8 -4 -15 -14 -15 -24 0 -10 -7 -23 -15 -30 -8 -7 -15 -20 -15 -30 0 -10 -7 -23 -15 -30 -8 -7 -15 -18 -15 -26 0 -15 -52 -95 -75 -114 -8 -7 -15 -20 -15 -30 0 -19 -248 -262 -260 -255 -4 2 -16 -2 -26 -10 -10 -8 -26 -15 -35 -15 -9 0 -22 -7 -29 -15 -7 -8 -20 -15 -29 -15 -10 0 -30 -14 -46 -30 -16 -17 -36 -30 -46 -30 -9 0 -22 -7 -29 -15 -17 -21 -123 -21 -140 0 -7 8 -27 15 -45 15 -18 0 -38 7 -45 15 -7 8 -20 15 -30 15 -10 0 -30 14 -43 30 -14 17 -34 30 -44 30 -10 0 -27 7 -37 15 -11 8 -28 12 -39 9 -12 -4 -27 2 -42 16 -15 14 -30 20 -42 16 -11 -3 -28 1 -39 9 -10 8 -40 15 -65 15 -29 0 -51 6 -59 15 -9 11 -32 15 -80 15 -51 0 -69 -4 -74 -15 -4 -10 -20 -15 -54 -15 -26 0 -54 -6 -61 -12 -6 -7 -26 -13 -43 -13 -26 0 -33 -5 -38 -25 -4 -17 -14 -26 -30 -28 -14 -2 -29 -10 -33 -18 -4 -8 -19 -14 -32 -14 -16 0 -25 -6 -25 -15 0 -20 49 -20 56 0 5 11 23 15 74 15 51 0 69 4 74 15 4 12 28 15 130 15 69 0 127 -4 130 -9 8 -12 83 -51 100 -51 17 0 56 -43 56 -62 0 -25 39 -52 70 -50 16 1 32 -2 35 -8 8 -13 -33 -49 -56 -50 -21 0 -83 -66 -75 -79 10 -16 27 -14 47 5 10 9 40 18 66 20 26 1 49 8 51 13 4 12 32 15 32 4 0 -5 -47 -53 -105 -107 -58 -55 -105 -105 -105 -113 0 -12 -9 -33 -32 -73 -4 -8 -12 -25 -17 -37 -6 -11 -15 -24 -20 -28 -6 -3 -11 -21 -11 -39 0 -19 -7 -39 -15 -46 -10 -8 -15 -31 -15 -70 0 -39 -5 -62 -15 -70 -11 -9 -15 -34 -15 -100 0 -66 -4 -91 -15 -100 -14 -12 -14 -15 0 -30 14 -15 14 -18 0 -30 -8 -7 -15 -24 -15 -39 0 -19 -15 -42 -53 -79 -29 -29 -57 -52 -61 -52 -5 0 -23 -11 -40 -24 -18 -13 -40 -25 -50 -27 -30 -6 -32 -29 -3 -29 14 0 27 6 30 13 3 9 9 9 26 0 25 -15 61 -17 61 -3 0 6 8 10 19 10 24 0 131 97 131 119 0 9 20 37 45 61 25 24 45 52 45 62 0 10 5 18 10 18 6 0 10 15 10 33 0 21 8 41 20 52 16 14 20 31 20 76 0 32 4 61 10 64 5 3 10 20 10 37 0 17 7 40 16 49 9 10 18 33 20 51 2 18 9 34 14 36 6 2 10 12 10 22 0 9 7 23 15 30 8 7 15 20 15 28 0 19 248 262 267 262 6 0 33 -20 59 -44 l46 -44 92 -4 c115 -4 209 5 214 20 2 7 14 12 27 12 12 0 28 7 35 15 7 8 18 15 25 15 7 0 18 -7 25 -15 9 -11 33 -15 90 -15 49 0 88 -5 106 -15 25 -13 30 -13 44 0 10 9 36 15 62 15 28 0 50 6 58 15 7 8 27 15 45 15 18 0 38 7 45 15 7 8 24 15 39 15 14 0 34 7 44 15 11 7 24 12 31 9 7 -3 21 4 31 16 10 11 29 20 43 20 14 0 40 11 58 25 18 14 39 25 47 25 8 0 20 7 27 15 7 8 20 15 30 15 10 0 23 7 30 15 7 8 20 15 29 15 10 0 28 11 41 25 13 14 31 25 41 25 9 0 22 7 29 15 7 8 20 15 29 15 10 0 30 14 46 30 16 17 35 30 43 30 7 0 28 11 45 24 18 13 42 27 54 30 11 4 27 13 33 21 7 8 19 15 28 15 8 0 25 11 38 25 13 14 31 25 41 25 10 0 31 14 47 30 16 17 37 30 46 30 10 0 23 7 30 15 7 8 20 15 30 15 9 0 25 9 36 21 10 11 32 27 49 34 16 7 47 30 68 50 37 37 66 43 34 7 -10 -10 -17 -25 -17 -33 0 -17 -326 -333 -349 -338 -9 -1 -23 -8 -31 -15 -8 -6 -32 -20 -53 -30 -20 -11 -37 -23 -37 -27 0 -4 -10 -11 -22 -15 -13 -3 -51 -31 -85 -60 -44 -39 -69 -54 -91 -54 -16 0 -35 -7 -42 -15 -7 -9 -22 -12 -39 -9 -19 4 -32 0 -45 -15 -11 -12 -27 -21 -36 -21 -9 0 -27 -11 -40 -25 -13 -14 -31 -25 -41 -25 -9 0 -22 -7 -29 -15 -7 -8 -20 -15 -30 -15 -10 0 -23 -7 -30 -15 -7 -8 -20 -15 -29 -15 -10 0 -28 -11 -41 -25 -13 -14 -31 -25 -41 -25 -9 0 -22 -7 -29 -15 -7 -8 -20 -15 -29 -15 -10 0 -30 -13 -46 -30 -16 -16 -37 -30 -47 -30 -10 0 -39 -20 -65 -45 -25 -25 -52 -45 -60 -45 -8 0 -26 -11 -41 -25 -15 -14 -34 -25 -43 -25 -9 0 -33 -19 -53 -42 -45 -52 -42 -49 -92 -92 -32 -28 -50 -35 -89 -38 -41 -2 -51 -7 -53 -23 -5 -25 -31 -50 -62 -60 -13 -4 -30 -14 -38 -21 -7 -8 -22 -14 -33 -14 -10 0 -19 -4 -19 -10 0 -5 -11 -10 -25 -10 -14 0 -28 -7 -31 -15 -4 -9 -19 -15 -39 -15 -18 0 -38 -7 -45 -15 -7 -8 -25 -15 -39 -15 -15 0 -36 -7 -47 -15 -10 -8 -29 -15 -40 -15 -12 0 -27 -7 -34 -15 -7 -8 -28 -15 -46 -15 -19 0 -34 -4 -34 -10 0 -6 -28 -10 -64 -10 -44 0 -67 -5 -76 -15 -7 -8 -27 -15 -45 -15 -36 0 -60 -21 -51 -45 7 -19 40 -19 56 0 10 12 37 15 120 15 85 0 110 3 120 15 9 11 27 15 56 14 29 -2 49 3 62 14 10 9 33 17 50 17 17 0 34 5 37 10 3 6 14 10 24 10 10 0 24 7 31 15 7 8 20 15 30 15 10 0 23 7 30 15 7 8 20 15 30 15 10 0 23 7 30 15 7 8 20 15 30 15 10 0 23 7 30 15 7 8 20 15 28 15 9 0 28 12 43 26 14 14 33 26 42 28 8 1 22 8 31 15 13 11 21 11 50 -3 42 -20 50 -20 66 -1 16 19 47 19 67 0 13 -13 39 -16 140 -14 82 2 130 7 141 16 9 7 30 13 46 13 16 0 37 7 47 16 19 17 39 12 39 -10 0 -7 -13 -25 -30 -41 -16 -16 -30 -35 -30 -42 0 -19 -191 -202 -211 -203 -9 0 -22 -7 -29 -15 -7 -8 -19 -15 -27 -15 -9 0 -31 -14 -50 -30 -19 -17 -38 -28 -42 -25 -5 2 -16 -4 -26 -15 -10 -11 -26 -20 -36 -20 -10 0 -21 -4 -24 -10 -3 -5 -21 -10 -39 -10 -19 0 -39 -7 -46 -15 -7 -8 -25 -15 -40 -15 -15 0 -33 -7 -40 -15 -7 -8 -29 -15 -50 -15 -21 0 -43 -7 -50 -15 -7 -9 -30 -15 -54 -15 -22 0 -50 -7 -60 -15 -11 -8 -34 -15 -52 -15 -18 0 -36 -5 -39 -10 -3 -6 -20 -10 -37 -10 -16 0 -41 -9 -55 -19 -13 -11 -31 -17 -39 -14 -8 3 -25 -2 -39 -11 -13 -9 -40 -16 -60 -16 -41 0 -44 -8 -12 -38 19 -18 35 -22 85 -22 46 0 64 4 68 15 5 12 24 15 84 15 57 0 81 4 90 15 7 8 29 15 49 15 20 0 42 5 48 11 7 7 30 13 53 15 23 1 50 10 59 18 10 9 32 16 49 16 17 0 34 5 37 10 3 6 21 10 39 10 19 0 39 7 46 15 7 8 21 15 32 15 10 0 43 14 73 30 49 27 62 30 148 30 72 0 98 4 107 15 9 11 32 15 81 15 37 0 71 5 74 10 3 6 23 10 43 10 21 0 49 8 62 17 14 10 34 16 46 15 12 -2 28 4 37 12 9 9 30 16 47 16 17 0 38 7 46 15 9 8 31 15 50 15 22 0 37 6 40 15 4 8 16 15 29 15 12 0 28 7 35 15 7 8 16 13 20 10 4 -3 19 4 33 15 14 11 32 20 40 20 9 0 19 4 22 10 3 5 14 10 24 10 10 0 24 7 31 15 7 8 20 15 30 15 10 0 23 7 30 15 7 8 20 15 29 15 10 0 30 14 46 30 16 17 34 30 40 30 7 0 33 18 58 40 25 22 51 40 59 40 8 0 27 14 43 30 16 17 36 30 45 30 9 0 57 38 106 85 l89 84 136 1 c112 0 138 3 143 15 6 16 41 21 50 6 5 -7 -48 -63 -168 -177 -7 -6 -22 -15 -34 -18 -12 -4 -22 -14 -22 -22 0 -7 -13 -26 -30 -41 -16 -14 -30 -34 -30 -43 0 -10 -20 -36 -45 -59 -25 -23 -45 -50 -45 -62 0 -11 -7 -22 -15 -25 -9 -4 -15 -19 -15 -39 0 -18 -7 -38 -15 -45 -8 -7 -15 -20 -15 -30 0 -10 -7 -23 -15 -30 -8 -7 -15 -19 -15 -26 0 -8 -48 -61 -107 -119 l-108 -104 -110 -2 c-132 -2 -138 -1 -148 17 -4 8 -23 14 -42 14 -19 0 -37 5 -40 10 -8 13 -295 13 -295 0 0 -5 -15 -10 -32 -10 -42 0 -61 -12 -56 -36 3 -17 15 -19 115 -22 83 -2 114 -6 123 -17 10 -12 39 -15 130 -15 92 0 120 -3 130 -15 9 -10 32 -15 76 -15 35 0 64 -4 64 -8 0 -16 -235 -239 -259 -247 -13 -4 -35 -18 -48 -31 -13 -13 -32 -24 -42 -24 -11 0 -21 -7 -25 -15 -3 -10 -19 -15 -44 -15 -23 0 -45 -6 -52 -15 -7 -8 -26 -15 -42 -15 -16 0 -36 -7 -44 -15 -9 -8 -31 -15 -50 -15 -19 0 -34 -4 -34 -10 0 -5 -18 -10 -40 -10 -27 0 -43 -5 -46 -15 -4 -10 -19 -15 -43 -15 -20 0 -49 -7 -65 -15 -15 -8 -43 -15 -61 -15 -20 0 -35 -6 -39 -15 -4 -11 -22 -15 -69 -15 -45 0 -68 -5 -77 -15 -9 -11 -34 -15 -101 -15 -48 0 -91 -4 -94 -10 -3 -5 -44 -10 -89 -10 -61 0 -87 -4 -96 -14 -6 -8 -21 -16 -32 -18 -33 -5 -31 -21 3 -40 38 -22 66 -23 86 -3 14 14 17 14 32 0 21 -18 35 -19 49 -2 8 9 54 14 164 16 115 2 157 6 169 17 10 9 38 14 78 14 39 0 70 6 85 16 15 9 42 14 70 13 26 -2 52 3 58 9 7 7 28 12 48 12 20 0 45 7 56 15 10 8 29 15 40 15 12 0 27 7 34 15 7 8 27 15 45 15 18 0 38 7 45 15 7 8 27 15 45 15 18 0 38 7 45 15 7 8 21 15 31 15 10 0 21 4 24 10 3 5 14 10 24 10 9 0 37 20 61 45 24 25 51 45 60 45 8 1 80 63 160 140 80 77 151 140 159 140 8 0 23 8 33 17 17 15 21 15 54 0 49 -24 474 -25 498 -2 12 12 51 15 224 15 174 0 212 3 222 15 8 9 30 15 60 15 30 0 52 6 60 15 7 8 26 15 42 15 16 0 40 7 53 16 14 9 31 14 39 11 8 -3 26 3 39 14 14 10 39 19 55 19 17 0 34 5 37 10 3 6 14 10 24 10 10 0 24 7 31 15 7 8 27 15 45 15 18 0 38 7 45 15 11 14 70 22 70 10 0 -10 -89 -95 -100 -95 -15 0 -80 -69 -80 -86 0 -8 -9 -14 -20 -14 -13 0 -20 -7 -20 -20 0 -13 -7 -20 -20 -20 -13 0 -20 -7 -20 -20 0 -11 -7 -20 -15 -20 -18 0 -85 -64 -85 -81 0 -6 -8 -19 -18 -28 -9 -9 -23 -28 -31 -43 -8 -16 -20 -28 -28 -28 -7 0 -34 -20 -58 -45 -36 -36 -45 -51 -45 -80 0 -19 4 -35 9 -35 5 0 11 -9 14 -20 3 -11 12 -20 21 -20 9 0 16 -4 16 -10 0 -5 14 -10 30 -10 23 0 30 4 30 20 0 13 7 20 20 20 11 0 20 7 20 15 0 16 283 305 299 305 5 0 27 18 50 40 22 22 46 40 52 40 6 0 23 12 37 28 15 15 39 33 55 41 15 8 27 18 27 23 0 4 8 8 18 8 10 0 24 9 32 20 8 11 21 20 28 20 8 0 27 14 42 30 21 23 37 30 64 30 20 0 36 5 36 10 0 6 7 10 16 10 9 0 29 14 44 30 15 17 32 30 38 30 5 0 23 14 40 30 18 17 38 30 45 30 7 0 19 9 27 20 8 11 22 20 32 20 10 0 18 5 18 10 0 6 7 10 16 10 9 0 29 14 44 30 15 17 34 30 42 30 7 0 20 9 28 20 8 11 22 20 32 20 10 0 18 5 18 10 0 6 6 10 14 10 7 0 27 14 44 30 18 17 39 30 47 30 8 0 15 5 15 10 0 6 16 10 36 10 40 0 79 24 136 82 20 21 41 38 46 38 5 0 23 14 40 30 18 17 39 30 47 30 8 0 15 5 15 10 0 6 9 10 20 10 11 0 20 3 20 8 0 8 48 32 66 32 7 0 14 3 16 8 4 10 87 52 104 52 8 0 14 5 14 10 0 6 14 10 30 10 17 0 30 -4 30 -9 0 -13 -109 -113 -118 -107 -5 3 -28 -15 -52 -39 -24 -25 -49 -45 -56 -45 -6 0 -28 -13 -49 -30 -21 -16 -50 -30 -64 -30 -18 0 -40 -13 -66 -40 -21 -22 -49 -40 -60 -40 -12 0 -34 -13 -48 -30 -15 -16 -35 -30 -45 -30 -9 -1 -42 -25 -72 -55 -30 -30 -62 -55 -70 -55 -9 0 -36 -20 -60 -45 -24 -25 -50 -45 -57 -45 -7 0 -18 -10 -24 -23 -17 -32 -45 -57 -65 -57 -9 0 -42 -25 -72 -55 -31 -30 -63 -55 -71 -55 -9 0 -54 -38 -101 -85 -47 -47 -92 -85 -100 -85 -9 0 -30 -13 -48 -30 -18 -16 -41 -30 -51 -30 -10 0 -24 -7 -31 -15 -7 -8 -20 -15 -30 -15 -10 0 -23 -7 -30 -15 -7 -8 -21 -15 -31 -15 -10 0 -21 -4 -24 -10 -3 -5 -14 -10 -24 -10 -10 0 -26 -9 -36 -20 -10 -11 -20 -18 -23 -15 -3 2 -17 -2 -31 -9 -14 -8 -34 -17 -43 -20 -11 -3 -15 -11 -12 -20 5 -12 16 -14 52 -9 26 3 54 12 63 19 8 8 20 14 26 14 5 0 30 11 54 25 24 14 51 27 59 31 8 3 23 10 32 15 10 5 24 9 32 9 7 0 19 7 26 15 7 8 20 15 29 15 9 1 32 14 51 30 19 17 44 30 56 30 13 0 36 11 52 25 17 14 37 25 45 25 9 0 19 5 22 10 4 6 29 22 56 35 27 14 49 30 49 35 0 6 11 10 25 10 14 0 28 7 31 15 3 8 25 23 49 35 23 11 50 29 60 40 10 11 26 20 35 20 10 0 23 7 30 15 7 8 20 15 29 15 10 0 30 13 46 30 16 16 36 30 45 30 9 0 27 11 40 25 13 14 31 25 40 25 9 0 29 14 45 30 16 17 37 30 47 30 10 0 28 12 41 26 12 14 37 32 54 39 18 8 46 28 62 44 17 17 39 31 49 31 10 0 31 14 47 30 16 17 36 30 45 30 9 0 29 13 45 30 16 16 34 30 40 30 7 0 33 18 58 40 25 22 51 40 58 40 7 0 20 6 28 13 9 7 36 19 61 26 75 22 90 30 101 55 7 14 23 26 40 30 16 3 40 16 52 28 13 13 41 29 63 36 21 7 62 22 89 32 28 10 77 26 110 35 47 14 71 29 114 71 l54 54 201 0 c183 0 204 2 234 20 32 19 50 20 692 20 428 0 661 -3 665 -10 4 -6 68 -10 160 -10 92 0 156 -4 160 -10 3 -6 50 -10 105 -10 55 0 102 -4 105 -10 3 -5 24 -10 46 -10 21 0 39 -4 39 -10 0 -6 30 -10 70 -10 40 0 70 -4 70 -10 0 -6 30 -10 69 -10 39 0 73 -4 76 -10 3 -5 26 -10 51 -10 24 0 44 -4 44 -10 0 -5 18 -10 40 -10 22 0 40 -4 40 -8 0 -14 73 -32 129 -32 28 0 51 -4 51 -10 0 -5 16 -10 35 -10 20 0 50 -7 67 -16 26 -14 38 -15 64 -5 24 9 55 9 117 1 62 -7 92 -7 110 1 25 11 36 10 160 -22 375 -94 701 -134 1097 -134 329 0 646 27 895 75 147 28 208 41 280 59 37 9 56 14 150 41 19 6 50 14 68 19 41 11 186 59 212 70 11 5 36 14 55 21 19 7 45 16 58 21 12 5 32 13 45 18 12 5 42 18 67 29 25 11 77 34 115 52 238 107 529 285 740 453 102 82 409 382 481 472 102 127 220 311 283 440 63 130 100 220 135 330 35 106 41 130 76 295 13 58 9 145 -9 245 -14 76 -5 195 20 253 11 25 17 52 14 61 -2 9 -9 52 -15 96 -15 121 -30 195 -60 300 -21 74 -23 85 -11 85 20 0 13 116 -9 152 -13 21 -20 51 -20 82 0 54 -18 126 -32 126 -14 0 -48 64 -48 91 0 14 -12 48 -26 74 -38 73 -54 125 -54 183 0 28 -4 52 -10 52 -5 0 -10 9 -10 20 0 11 -4 20 -10 20 -5 0 -10 14 -10 30 0 17 -4 30 -10 30 -5 0 -10 9 -10 20 0 11 -4 20 -10 20 -5 0 -10 18 -10 40 0 22 -4 40 -10 40 -5 0 -10 18 -10 40 0 22 -4 40 -10 40 -5 0 -10 9 -10 20 0 11 -4 20 -10 20 -5 0 -10 14 -10 30 0 17 -4 30 -10 30 -5 0 -10 15 -10 34 0 19 -4 38 -10 41 -5 3 -10 19 -10 36 0 16 -4 29 -10 29 -5 0 -10 18 -10 40 0 22 -4 40 -10 40 -5 0 -10 14 -10 30 0 17 -4 30 -10 30 -5 0 -10 18 -10 40 0 22 -4 40 -10 40 -5 0 -10 23 -10 50 0 28 -4 50 -10 50 -5 0 -10 23 -10 50 0 28 -4 50 -10 50 -5 0 -10 11 -10 24 0 14 -4 28 -10 31 -5 3 -10 15 -10 26 0 10 -4 19 -10 19 -5 0 -10 9 -10 20 0 11 -4 20 -10 20 -5 0 -10 9 -10 20 0 11 -4 20 -10 20 -5 0 -10 9 -10 20 0 11 -4 20 -10 20 -5 0 -10 9 -10 20 0 11 -4 20 -10 20 -5 0 -10 14 -10 30 0 17 -4 30 -10 30 -5 0 -10 9 -10 20 0 11 -4 20 -10 20 -5 0 -10 23 -10 50 0 28 -4 50 -10 50 -5 0 -10 9 -10 20 0 11 -4 20 -10 20 -5 0 -10 14 -10 30 0 17 -4 30 -10 30 -5 0 -10 14 -10 30 0 17 -3 30 -7 30 -9 0 -33 49 -33 67 0 7 -4 13 -10 13 -5 0 -10 9 -10 20 0 11 -4 20 -10 20 -5 0 -10 14 -10 30 0 17 -4 30 -10 30 -5 0 -10 9 -10 20 0 11 -4 20 -10 20 -5 0 -10 10 -10 23 0 13 -9 33 -20 45 -11 12 -20 28 -20 37 0 8 -4 15 -10 15 -5 0 -10 14 -10 30 0 17 -4 30 -10 30 -5 0 -10 14 -10 30 0 17 -4 30 -10 30 -5 0 -10 9 -10 20 0 11 -4 20 -10 20 -5 0 -10 9 -10 20 0 11 -4 20 -10 20 -5 0 -10 9 -10 19 0 11 -5 23 -10 26 -5 3 -10 17 -10 31 0 13 -4 24 -10 24 -5 0 -10 9 -10 20 0 22 -16 27 -23 8 -2 -8 -8 -9 -13 -4 -5 5 -4 11 4 13 14 5 16 43 2 43 -5 0 -10 9 -10 20 0 22 -16 27 -23 8 -2 -8 -8 -9 -13 -4 -5 5 -4 11 4 13 14 5 17 43 3 43 -5 0 -11 -6 -14 -12 -2 -8 -8 -9 -13 -4 -5 5 -4 11 4 13 14 5 16 43 2 43 -5 0 -10 9 -10 20 0 11 -4 20 -10 20 -5 0 -10 9 -10 20 0 11 -4 20 -10 20 -5 0 -10 8 -10 18 0 10 -9 24 -20 32 -11 8 -20 22 -20 32 0 10 -4 18 -10 18 -5 0 -10 8 -10 18 0 10 -9 24 -20 32 -11 8 -20 22 -20 32 0 10 -4 18 -10 18 -5 0 -10 8 -10 18 0 10 -9 24 -20 32 -11 8 -20 21 -20 30 0 9 -9 22 -20 30 -11 8 -20 21 -20 29 0 7 -8 21 -18 30 -9 9 -23 28 -31 44 -8 15 -18 27 -23 27 -4 0 -8 9 -8 20 0 11 -4 20 -10 20 -5 0 -10 7 -10 16 0 9 -14 29 -30 44 -17 15 -30 35 -30 44 0 9 -4 16 -10 16 -5 0 -10 6 -10 14 0 7 -13 27 -30 44 -16 18 -30 39 -30 47 0 8 -4 15 -9 15 -5 0 -11 9 -14 20 -3 11 -12 20 -21 20 -9 0 -16 7 -16 16 0 9 -13 29 -30 44 -16 15 -30 33 -30 40 0 7 -14 25 -30 40 -17 15 -30 35 -30 44 0 9 -4 16 -10 16 -5 0 -10 8 -10 18 0 10 -9 24 -20 32 -11 8 -20 20 -20 26 0 6 -18 30 -40 53 -22 22 -40 46 -40 51 0 6 -29 40 -65 75 -51 51 -65 72 -65 95 0 19 -8 37 -22 48 -20 16 -61 57 -186 187 -26 28 -72 62 -101 77 -54 26 -179 140 -207 188 -9 14 -42 42 -73 63 -32 20 -73 52 -92 70 -19 19 -50 44 -69 57 -19 13 -38 29 -42 36 -5 7 -38 32 -76 57 -37 24 -73 51 -80 60 -8 9 -36 23 -64 33 -28 9 -67 33 -88 53 -21 20 -57 50 -81 66 -24 17 -54 48 -66 69 -12 24 -43 53 -74 73 -29 18 -67 46 -84 62 -43 41 -161 110 -204 120 -51 11 -111 51 -201 134 -60 57 -94 79 -159 106 -65 27 -92 45 -125 83 -23 27 -65 59 -94 73 -29 14 -56 33 -59 41 -3 9 -40 38 -81 65 -60 40 -83 49 -118 49 -37 0 -44 3 -44 20 0 13 -7 20 -18 20 -10 0 -24 9 -32 20 -8 11 -22 20 -32 20 -10 0 -18 5 -18 10 0 6 -9 10 -20 10 -11 0 -20 5 -20 10 0 6 -8 10 -18 10 -10 0 -24 9 -32 20 -8 11 -22 20 -32 20 -10 0 -18 5 -18 10 0 6 -8 10 -18 10 -10 0 -24 9 -32 20 -8 11 -22 20 -32 20 -10 0 -18 3 -18 8 0 7 -48 32 -62 32 -5 0 -18 9 -30 20 -12 11 -28 20 -35 20 -7 0 -13 5 -13 10 0 6 -9 10 -20 10 -11 0 -20 5 -20 10 0 6 -8 10 -18 10 -10 0 -24 9 -32 20 -8 11 -22 20 -32 20 -9 0 -20 5 -23 10 -3 6 -16 10 -28 10 -13 0 -29 9 -37 20 -8 11 -22 20 -32 20 -10 0 -18 5 -18 10 0 6 -9 10 -20 10 -11 0 -20 5 -20 10 0 6 -8 10 -18 10 -10 0 -24 9 -32 20 -8 11 -22 20 -32 20 -10 0 -18 5 -18 10 0 6 -9 10 -20 10 -11 0 -20 5 -20 10 0 6 -7 10 -15 10 -8 0 -24 6 -35 13 -17 10 -22 9 -30 -3 -5 -8 -13 -11 -17 -6 -4 5 -2 11 5 13 19 7 14 23 -8 23 -11 0 -20 -4 -20 -10 0 -5 -9 -10 -20 -10 -11 0 -20 5 -20 10 0 6 -9 10 -20 10 -11 0 -20 5 -20 10 0 6 -9 10 -20 10 -11 0 -20 5 -20 10 0 6 -9 10 -20 10 -11 0 -20 5 -20 10 0 6 -9 10 -20 10 -11 0 -20 5 -20 10 0 6 9 10 20 10 11 0 20 5 20 10 0 6 -9 10 -20 10 -11 0 -20 5 -20 10 0 6 -9 10 -20 10 -11 0 -20 5 -20 10 0 6 -9 10 -20 10 -11 0 -20 5 -20 10 0 15 -58 12 -63 -2 -2 -8 -8 -9 -13 -4 -5 5 -4 11 4 13 19 7 14 23 -8 23 -11 0 -20 5 -20 10 0 6 -9 10 -20 10 -11 0 -20 5 -20 10 0 6 -9 10 -20 10 -11 0 -20 5 -20 10 0 6 -9 10 -20 10 -11 0 -20 5 -20 10 0 6 -9 10 -20 10 -11 0 -20 5 -20 10 0 6 -9 10 -20 10 -11 0 -20 5 -20 10 0 6 -13 10 -30 10 -16 0 -30 5 -30 10 0 6 -7 10 -15 10 -9 0 -25 9 -37 20 -12 11 -32 20 -45 20 -13 0 -23 5 -23 10 0 6 -9 10 -20 10 -11 0 -20 5 -20 10 0 6 -9 10 -20 10 -11 0 -20 5 -20 10 0 6 -9 10 -20 10 -11 0 -20 5 -20 10 0 6 -13 10 -30 10 -16 0 -30 5 -30 10 0 6 -13 10 -30 10 -16 0 -30 5 -30 10 0 6 -9 10 -20 10 -11 0 -20 5 -20 10 0 6 -9 10 -20 10 -11 0 -20 5 -20 10 0 6 -13 10 -30 10 -16 0 -30 5 -30 10 0 6 -13 10 -30 10 -16 0 -30 5 -30 10 0 6 -9 10 -20 10 -11 0 -20 5 -20 10 0 6 -13 10 -30 10 -16 0 -30 5 -30 10 0 6 -9 10 -20 10 -11 0 -20 5 -20 10 0 6 -13 10 -30 10 -16 0 -30 5 -30 10 0 6 -9 10 -20 10 -11 0 -20 5 -20 10 0 6 -9 10 -20 10 -11 0 -20 5 -20 10 0 6 -13 10 -30 10 -16 0 -30 5 -30 10 0 6 -9 10 -20 10 -11 0 -20 5 -20 10 0 6 -13 10 -30 10 -16 0 -30 5 -30 10 0 6 -18 10 -40 10 -22 0 -40 5 -40 10 0 6 -22 10 -50 10 -27 0 -50 5 -50 10 0 6 -13 10 -30 10 -16 0 -30 5 -30 10 0 6 -18 10 -40 10 -22 0 -40 5 -40 10 0 6 -13 10 -29 10 -17 0 -33 5 -36 10 -3 6 -26 10 -50 10 -26 0 -45 5 -48 13 -3 10 -9 10 -26 0 -28 -17 -31 -16 -31 7 0 16 -7 20 -30 20 -16 0 -30 -4 -30 -10 0 -5 -9 -10 -20 -10 -11 0 -20 5 -20 10 0 6 7 10 15 10 8 0 15 5 15 10 0 6 -22 10 -49 10 -28 0 -53 5 -56 10 -3 6 -28 10 -56 10 -27 0 -49 5 -49 10 0 6 -30 10 -70 10 -40 0 -70 4 -70 10 0 6 -18 10 -40 10 -22 0 -40 5 -40 10 0 6 -22 10 -49 10 -28 0 -53 5 -56 10 -3 6 -33 10 -65 10 -32 0 -62 5 -65 10 -4 6 -54 10 -119 10 -125 0 -207 12 -281 40 -107 41 -261 74 -380 82 -66 4 -262 12 -435 17 -173 4 -332 13 -352 19 -21 5 -57 21 -82 36 -36 21 -56 25 -112 25 -43 -1 -83 5 -106 15 -21 9 -50 16 -65 16 -51 0 -73 11 -73 36 0 12 -4 26 -10 29 -5 3 -10 15 -10 26 0 10 -4 19 -10 19 -5 0 -10 9 -10 20 0 11 -4 20 -10 20 -5 0 -10 9 -10 20 0 11 -4 20 -10 20 -5 0 -10 9 -10 20 0 11 -4 20 -10 20 -5 0 -10 8 -10 18 0 10 -9 24 -20 32 -11 8 -20 22 -20 32 0 10 -4 18 -10 18 -5 0 -10 8 -10 18 0 10 -9 24 -20 32 -11 8 -20 22 -20 32 0 10 -4 18 -10 18 -5 0 -10 9 -10 20 0 11 -4 20 -10 20 -5 0 -10 9 -10 20 0 11 -4 20 -10 20 -5 0 -10 14 -10 30 0 17 -4 30 -10 30 -5 0 -10 12 -10 28 0 20 -15 40 -59 80 -36 32 -69 73 -85 106 -15 31 -45 69 -70 90 -24 19 -49 50 -56 68 -8 18 -29 47 -47 63 -18 17 -33 38 -33 47 0 8 -7 21 -15 28 -8 7 -15 21 -15 31 0 20 -61 139 -71 139 -3 0 -15 -10 -27 -23z" fill="#000000" id="000000-000001"/>
    <path stroke="none" d="M4292 11303 c28 -25 22 -33 -24 -33 -24 0 -56 -7 -72 -15 -37 -20 -96 -20 -96 -1 0 18 38 46 62 46 10 0 18 5 18 10 0 17 92 12 112 -7z" fill="#ffffff" id="ffffff-000014"/>
    <path stroke="none" d="M4264 11138 c8 -13 6 -21 -7 -36 -9 -10 -17 -32 -17 -49 0 -17 -7 -36 -15 -43 -8 -7 -15 -18 -15 -24 0 -14 -94 -106 -132 -129 -15 -9 -43 -17 -62 -17 -18 0 -47 -7 -62 -15 -16 -8 -39 -15 -52 -15 -12 0 -30 -4 -40 -9 -49 -27 -88 -41 -112 -41 -15 0 -33 -7 -40 -15 -7 -8 -20 -15 -30 -15 -10 0 -23 -7 -30 -15 -7 -8 -20 -15 -29 -15 -9 0 -35 -18 -56 -40 -21 -22 -46 -40 -55 -40 -8 0 -57 -41 -109 -90 -52 -50 -100 -90 -106 -90 -6 0 -31 -18 -56 -40 -24 -22 -47 -40 -51 -40 -13 0 -9 17 7 30 8 7 15 18 15 25 0 8 20 33 45 57 24 24 45 50 45 58 0 9 36 51 81 95 45 44 87 91 94 105 17 32 72 85 108 103 15 8 66 51 112 96 49 46 94 81 106 81 11 0 22 7 25 15 4 8 16 15 29 15 12 0 28 7 35 15 7 8 21 15 31 15 10 0 20 4 24 9 11 20 69 41 109 41 23 0 51 6 62 14 18 13 83 24 123 22 8 -1 19 -9 25 -18z" fill="#ffffff" id="ffffff-000015"/>
    <path stroke="none" d="M4820 10965 c0 -8 -13 -29 -30 -47 -16 -17 -30 -35 -30 -40 0 -6 -13 -23 -30 -38 -16 -15 -30 -35 -30 -44 0 -9 -4 -16 -10 -16 -5 0 -10 -7 -10 -15 0 -8 -32 -54 -70 -102 -39 -48 -77 -103 -86 -121 -8 -18 -40 -61 -71 -95 -64 -72 -100 -122 -145 -203 -26 -49 -32 -70 -32 -121 0 -35 -3 -63 -8 -63 -4 0 -8 -27 -8 -60 0 -33 4 -60 10 -60 6 0 10 -9 10 -20 0 -11 5 -20 10 -20 6 0 10 -18 10 -40 0 -22 5 -40 10 -40 6 0 10 -9 10 -20 0 -11 5 -20 10 -20 6 0 10 -9 10 -20 0 -11 5 -20 10 -20 6 0 10 -13 10 -30 0 -16 5 -30 10 -30 6 0 10 -9 10 -20 0 -11 5 -20 10 -20 6 0 10 -20 10 -44 0 -25 5 -48 10 -51 6 -3 10 -21 10 -40 0 -19 5 -37 10 -40 6 -3 10 -24 10 -46 0 -21 5 -39 10 -39 6 0 10 -27 10 -60 0 -33 4 -60 10 -60 6 0 10 -11 10 -24 0 -14 5 -28 10 -31 6 -3 10 -24 10 -45 0 -21 5 -42 10 -45 6 -3 10 -17 10 -30 0 -13 5 -27 10 -30 6 -3 10 -22 10 -41 0 -19 5 -34 10 -34 6 0 10 -18 10 -40 0 -22 5 -40 10 -40 6 0 10 -18 10 -40 0 -22 5 -40 10 -40 6 0 10 -22 10 -48 0 -26 4 -52 9 -58 12 -12 20 -83 29 -254 4 -74 10 -140 14 -146 4 -6 8 -81 9 -168 1 -86 5 -159 9 -161 4 -2 8 -24 9 -47 2 -48 7 -90 10 -98 2 -3 5 -35 6 -71 2 -37 7 -91 10 -120 13 -111 14 -169 5 -169 -6 0 -10 -13 -10 -30 0 -16 5 -30 10 -30 14 0 12 -86 -2 -110 -10 -16 -10 -24 0 -40 6 -11 12 -29 12 -39 0 -11 5 -23 10 -26 15 -9 13 -142 -2 -148 -10 -3 -10 -9 1 -30 17 -31 21 -75 27 -302 3 -93 9 -174 15 -180 5 -5 9 -35 9 -66 0 -37 5 -59 13 -62 9 -4 9 -8 0 -14 -11 -8 -16 -60 -29 -323 -3 -74 -10 -136 -15 -138 -5 -2 -9 -39 -9 -83 0 -46 -4 -79 -10 -79 -5 0 -10 -13 -10 -29 0 -17 -4 -33 -10 -36 -5 -3 -10 -22 -10 -41 0 -19 -4 -34 -10 -34 -5 0 -10 -9 -10 -20 0 -11 -4 -20 -10 -20 -13 0 -13 -83 0 -96 6 -6 12 -60 14 -120 4 -114 13 -171 27 -180 5 -3 9 -18 9 -34 0 -16 5 -32 10 -35 6 -3 10 -22 10 -41 0 -19 5 -34 10 -34 6 0 10 -16 10 -35 0 -25 5 -38 18 -42 23 -9 42 -29 42 -43 0 -7 14 -25 30 -40 17 -15 30 -33 30 -39 0 -7 36 -47 80 -91 44 -44 80 -84 80 -91 0 -6 14 -24 30 -39 16 -15 30 -33 30 -40 0 -7 14 -25 30 -40 17 -15 30 -34 30 -42 0 -7 9 -20 20 -28 11 -8 20 -22 20 -32 0 -10 5 -18 10 -18 6 0 10 -6 10 -14 0 -7 18 -32 40 -55 22 -22 40 -46 40 -52 0 -5 27 -37 60 -69 33 -32 60 -61 60 -64 0 -4 -16 -6 -36 -6 -31 0 -45 10 -120 84 -46 47 -84 89 -84 94 0 5 -17 27 -37 49 -21 22 -43 48 -49 58 -6 10 -19 23 -29 29 -24 14 -85 77 -85 89 0 4 -27 35 -60 67 -33 32 -60 66 -60 74 0 9 -9 16 -20 16 -15 0 -20 7 -20 25 0 26 -78 115 -100 115 -17 0 -40 26 -40 44 0 9 -4 16 -10 16 -6 0 -10 27 -10 60 0 33 -4 60 -10 60 -5 0 -10 15 -10 34 0 19 -4 38 -10 41 -5 3 -10 19 -10 36 0 16 -4 29 -10 29 -5 0 -10 23 -10 50 0 28 -4 50 -10 50 -6 0 -10 67 -10 180 0 173 1 180 20 180 13 0 20 7 20 20 0 11 5 20 10 20 6 0 10 14 10 30 0 17 5 30 10 30 6 0 10 15 10 34 0 19 5 38 10 41 6 3 10 52 10 110 0 58 4 107 10 110 14 8 14 785 0 785 -6 0 -10 40 -10 100 0 60 -4 100 -10 100 -5 0 -10 14 -10 30 0 17 -4 30 -10 30 -5 0 -10 18 -10 40 0 22 5 40 10 40 6 0 10 9 10 20 0 11 -4 20 -10 20 -6 0 -10 50 -10 130 0 80 -4 130 -10 130 -6 0 -10 53 -10 140 0 87 -4 140 -10 140 -6 0 -10 47 -10 120 0 73 -4 120 -10 120 -6 0 -10 30 -10 70 0 40 -4 70 -10 70 -6 0 -10 37 -10 90 0 53 -4 90 -10 90 -5 0 -10 23 -10 50 0 28 -4 50 -10 50 -5 0 -10 23 -10 50 0 28 -4 50 -10 50 -5 0 -10 15 -10 34 0 19 -4 38 -10 41 -5 3 -10 15 -10 25 0 10 -5 20 -11 22 -8 3 -8 11 2 27 11 19 11 25 2 28 -8 3 -13 22 -13 44 0 21 -4 39 -10 39 -5 0 -10 18 -10 40 0 22 -4 40 -10 40 -5 0 -10 14 -10 30 0 17 -4 30 -10 30 -6 0 -10 27 -10 60 0 33 -4 60 -10 60 -5 0 -10 18 -10 40 0 22 -4 40 -10 40 -5 0 -10 23 -10 50 0 28 -4 50 -10 50 -5 0 -10 23 -10 50 0 28 -4 50 -10 50 -5 0 -10 23 -10 50 0 28 -4 50 -10 50 -5 0 -10 18 -10 40 0 22 -4 40 -10 40 -5 0 -10 9 -10 20 0 11 -4 20 -10 20 -5 0 -10 18 -10 40 0 22 -4 40 -10 40 -5 0 -10 14 -10 30 0 17 -4 30 -10 30 -5 0 -10 14 -10 30 0 17 -4 30 -10 30 -5 0 -10 9 -10 20 0 11 -4 20 -10 20 -5 0 -10 14 -10 30 0 17 -4 30 -10 30 -6 0 -10 27 -10 60 0 33 -4 60 -10 60 -5 0 -10 9 -10 20 0 11 -4 20 -10 20 -5 0 -10 18 -10 40 0 22 5 40 10 40 6 0 10 9 10 20 0 11 5 20 10 20 6 0 10 9 10 20 0 11 5 20 10 20 6 0 10 9 10 20 0 11 5 20 10 20 6 0 10 5 10 11 0 6 14 28 31 48 17 20 53 70 79 111 27 41 81 118 120 170 38 52 81 118 95 147 14 28 59 85 100 127 41 42 75 81 75 87 0 15 53 58 72 59 9 0 20 5 23 10 9 15 25 12 25 -5z" fill="#ffffff" id="ffffff-000020"/>
    <path stroke="none" d="M8466 10666 c8 -8 14 -21 14 -28 0 -8 9 -20 20 -28 11 -8 20 -22 20 -32 0 -10 5 -18 10 -18 6 0 10 -8 10 -18 0 -10 9 -24 20 -32 11 -8 20 -22 20 -32 0 -10 5 -18 10 -18 6 0 10 -9 10 -20 0 -11 5 -20 10 -20 6 0 10 -9 10 -20 0 -11 5 -20 10 -20 6 0 10 -9 10 -20 0 -11 5 -20 10 -20 6 0 10 -6 10 -14 0 -7 18 -32 40 -55 22 -22 40 -47 40 -54 0 -7 9 -19 20 -27 12 -8 20 -26 20 -42 0 -15 5 -28 10 -28 6 0 10 -13 10 -30 0 -16 5 -30 10 -30 6 0 10 -9 10 -20 0 -11 5 -20 10 -20 6 0 10 -9 10 -20 0 -11 5 -20 10 -20 6 0 10 -11 10 -24 0 -14 5 -28 10 -31 6 -3 10 -15 10 -26 0 -10 5 -19 10 -19 6 0 10 -22 10 -50 0 -27 5 -50 10 -50 6 0 10 -18 10 -40 0 -22 5 -40 10 -40 6 0 10 -18 10 -40 0 -22 5 -40 10 -40 6 0 10 -13 10 -30 0 -16 5 -30 10 -30 6 0 10 -30 10 -70 0 -40 4 -70 10 -70 6 0 10 -24 10 -54 0 -30 5 -58 10 -61 6 -3 10 -33 10 -65 0 -37 4 -60 13 -63 9 -4 9 -8 -2 -15 -13 -9 -13 -24 5 -138 4 -26 2 -44 -5 -48 -6 -4 -11 -23 -11 -42 0 -19 -4 -34 -10 -34 -5 0 -10 -22 -10 -50 0 -27 -4 -50 -10 -50 -5 0 -10 -18 -10 -40 0 -22 -4 -40 -10 -40 -5 0 -10 -13 -10 -28 0 -16 -8 -34 -20 -42 -11 -8 -20 -22 -20 -32 0 -10 -4 -18 -10 -18 -5 0 -10 -9 -10 -20 0 -11 -4 -20 -10 -20 -5 0 -10 -9 -10 -20 0 -11 -4 -20 -10 -20 -5 0 -10 -13 -10 -30 0 -16 -4 -30 -10 -30 -5 0 -10 -7 -10 -15 0 -8 -13 -29 -30 -47 -16 -17 -30 -35 -30 -41 0 -5 -8 -17 -18 -26 -9 -9 -23 -28 -31 -43 -8 -16 -18 -28 -23 -28 -4 0 -8 -7 -8 -15 0 -20 -385 -405 -405 -405 -8 0 -15 -4 -15 -10 0 -5 -9 -10 -20 -10 -11 0 -20 -4 -20 -10 0 -5 -6 -10 -13 -10 -7 0 -23 -9 -35 -20 -12 -11 -28 -20 -37 -20 -8 0 -15 -4 -15 -10 0 -5 -9 -10 -20 -10 -11 0 -20 -4 -20 -10 0 -5 -8 -10 -18 -10 -10 0 -24 -9 -32 -20 -8 -11 -20 -20 -27 -20 -7 0 -27 -13 -45 -30 -17 -16 -35 -30 -40 -30 -5 0 -30 -21 -56 -48 -26 -26 -63 -59 -82 -72 -54 -38 -200 -188 -200 -205 0 -8 -8 -15 -18 -15 -10 0 -25 -12 -33 -27 -8 -16 -26 -40 -41 -55 -16 -14 -28 -31 -28 -37 0 -11 -84 -101 -95 -101 -15 0 -3 57 15 70 11 8 20 21 20 30 0 9 9 22 20 30 11 8 20 26 20 40 0 14 9 32 20 40 22 16 27 46 8 53 -7 2 -9 8 -5 13 4 5 12 2 17 -5 6 -11 13 -8 34 12 14 14 26 33 26 42 0 18 -16 20 -23 3 -2 -7 -8 -10 -12 -6 -4 4 0 15 10 24 13 14 18 15 25 4 7 -11 11 -10 24 3 21 21 20 27 -4 27 -13 0 -20 7 -20 20 0 13 7 20 20 20 11 0 20 5 20 10 0 6 10 10 23 10 24 0 70 35 80 63 3 9 13 17 22 17 8 0 15 5 15 10 0 6 6 10 14 10 8 0 42 27 75 60 34 33 65 60 70 60 4 0 22 14 39 30 18 17 36 30 40 30 5 0 23 14 40 30 18 17 35 30 39 30 5 0 24 14 43 30 19 16 41 30 48 30 6 0 12 5 12 10 0 6 9 10 20 10 11 0 20 5 20 10 0 6 7 10 15 10 17 0 145 124 145 141 0 13 25 39 38 39 12 0 122 106 122 118 0 5 14 23 30 40 17 18 30 39 30 47 0 8 4 15 8 15 5 0 15 12 23 28 8 15 22 36 32 46 9 11 17 25 17 31 0 6 9 17 20 25 11 8 20 24 20 36 0 11 14 35 30 52 17 18 30 41 30 51 0 11 5 23 10 26 6 3 10 19 10 35 0 16 5 32 10 35 6 3 10 19 10 35 0 16 5 32 10 35 6 3 10 21 10 40 0 19 5 37 10 40 6 3 10 24 10 46 0 21 5 39 10 39 6 0 10 30 10 70 0 40 4 70 10 70 6 0 10 9 10 20 0 11 5 20 10 20 6 0 10 20 10 44 0 25 -4 48 -10 51 -5 3 -10 33 -10 66 0 33 -4 59 -10 59 -5 0 -10 23 -10 50 0 28 -4 50 -10 50 -5 0 -10 22 -10 49 0 28 -4 53 -10 56 -5 3 -10 24 -10 45 0 21 -4 42 -10 45 -5 3 -10 24 -10 46 0 21 -4 39 -10 39 -5 0 -10 14 -10 30 0 17 -4 30 -10 30 -5 0 -10 14 -10 30 0 17 -4 30 -10 30 -5 0 -10 20 -10 44 0 25 -4 48 -10 51 -5 3 -10 15 -10 26 0 10 -4 19 -10 19 -5 0 -10 11 -10 24 0 14 -4 28 -10 31 -5 3 -10 17 -10 30 0 13 -4 27 -10 30 -5 3 -10 15 -10 26 0 10 -4 19 -10 19 -5 0 -10 7 -10 15 0 8 -6 24 -12 35 -11 17 -10 22 2 30 12 7 11 12 -8 28 -12 11 -22 26 -22 35 0 9 -4 19 -10 22 -5 3 -10 15 -10 26 0 10 -4 27 -9 37 -40 79 -51 107 -51 128 0 13 -4 24 -10 24 -5 0 -10 14 -10 30 0 17 -4 30 -10 30 -5 0 -10 9 -10 20 0 11 -4 20 -10 20 -5 0 -10 9 -10 20 0 11 -4 20 -10 20 -5 0 -10 5 -10 10 0 14 9 12 26 -4z" fill="#ffffff" id="ffffff-000027"/>
    <path stroke="none" d="M3210 10630 c0 -5 -7 -10 -15 -10 -8 0 -15 5 -15 10 0 6 7 10 15 10 8 0 15 -4 15 -10z" fill="#ffffff" id="ffffff-000026"/>
    <path stroke="none" d="M8920 7820 c0 -207 4 -320 10 -320 6 0 10 -91 10 -254 0 -159 4 -257 10 -261 6 -3 10 -50 10 -106 0 -59 4 -99 10 -99 6 0 10 -22 10 -49 0 -28 5 -53 10 -56 6 -3 10 -34 10 -68 0 -49 4 -65 18 -76 15 -10 19 -29 21 -99 1 -48 6 -88 12 -90 5 -2 9 -48 9 -103 0 -59 4 -99 10 -99 6 0 10 -18 10 -39 0 -22 5 -43 10 -46 6 -3 10 -21 10 -40 0 -19 5 -37 10 -40 6 -3 10 -26 10 -51 0 -24 5 -44 10 -44 6 0 10 -30 10 -70 0 -40 4 -70 10 -70 6 0 10 -33 10 -80 0 -47 4 -80 10 -80 6 0 10 -38 10 -94 0 -53 4 -98 10 -101 6 -3 10 -30 10 -60 0 -30 5 -57 10 -60 6 -3 10 -24 10 -46 0 -21 5 -39 10 -39 6 0 10 -18 10 -40 0 -22 5 -40 10 -40 6 0 10 -18 10 -40 0 -22 5 -40 10 -40 6 0 10 -22 10 -50 0 -27 5 -50 10 -50 6 0 10 -22 10 -50 0 -27 5 -50 10 -50 6 0 10 -18 10 -40 0 -22 5 -40 10 -40 6 0 10 -22 10 -50 0 -27 5 -50 10 -50 6 0 10 -27 10 -60 0 -33 4 -60 10 -60 6 0 10 -27 10 -60 0 -33 4 -60 10 -60 6 0 10 -33 10 -80 0 -47 4 -80 10 -80 6 0 10 -30 10 -70 0 -40 4 -70 10 -70 6 0 10 -18 10 -40 0 -22 5 -40 10 -40 6 0 10 -13 10 -30 0 -16 5 -30 10 -30 6 0 10 -13 10 -30 0 -16 5 -30 10 -30 6 0 10 -13 10 -30 0 -16 5 -30 10 -30 6 0 10 -17 10 -38 0 -26 6 -42 20 -52 12 -8 20 -26 20 -42 0 -15 5 -28 10 -28 6 0 10 -9 10 -20 0 -11 5 -20 10 -20 6 0 10 -11 10 -24 0 -14 5 -28 10 -31 6 -3 10 -15 10 -26 0 -10 5 -19 10 -19 6 0 10 -9 10 -20 0 -11 5 -20 10 -20 6 0 10 -13 10 -30 0 -16 5 -30 10 -30 6 0 10 -8 10 -18 0 -10 9 -24 20 -32 11 -8 20 -26 20 -40 0 -14 9 -32 20 -40 11 -8 20 -21 20 -30 0 -9 9 -22 20 -30 11 -8 20 -22 20 -32 0 -10 5 -18 10 -18 6 0 10 -9 10 -20 0 -11 5 -20 10 -20 6 0 10 -8 10 -18 0 -10 9 -24 20 -32 11 -8 20 -20 20 -26 0 -7 22 -34 48 -61 27 -27 51 -57 55 -66 3 -9 13 -17 21 -17 7 0 16 -9 19 -20 3 -11 13 -20 22 -20 10 0 15 -5 12 -14 -7 -17 11 -36 33 -36 9 0 25 -9 35 -20 11 -13 25 -18 37 -14 12 3 18 0 18 -10 0 -8 17 -29 37 -48 50 -45 71 -66 121 -121 25 -27 52 -47 64 -47 11 0 43 -16 69 -35 50 -36 69 -43 69 -25 0 6 5 10 11 10 6 0 8 -8 5 -17 -6 -22 54 -53 110 -56 50 -4 53 -20 7 -47 -33 -19 -42 -21 -68 -10 -16 6 -45 16 -64 22 -19 5 -44 16 -55 23 -12 8 -38 17 -59 21 -40 7 -79 36 -90 67 -3 9 -13 17 -21 17 -8 0 -25 12 -38 28 -25 28 -60 52 -78 52 -5 0 -37 27 -71 60 -34 33 -65 60 -71 60 -5 0 -16 7 -24 15 -9 9 -25 13 -38 9 -17 -4 -27 1 -41 23 -24 37 -41 53 -55 53 -6 0 -39 27 -72 60 -34 33 -65 60 -70 60 -15 0 -118 109 -118 125 0 8 -4 15 -10 15 -5 0 -10 7 -10 16 0 9 -12 28 -27 43 -33 31 -53 64 -53 86 0 8 -4 15 -10 15 -5 0 -10 9 -10 20 0 11 -4 20 -10 20 -5 0 -10 14 -10 30 0 17 -4 30 -10 30 -5 0 -10 7 -10 16 0 9 -8 24 -17 33 -17 15 -31 36 -52 79 -42 84 -51 108 -51 137 0 19 -4 37 -10 40 -5 3 -10 17 -10 31 0 13 -4 24 -10 24 -5 0 -10 13 -10 29 0 17 -4 33 -10 36 -5 3 -10 17 -10 31 0 13 -4 24 -10 24 -5 0 -10 11 -10 24 0 14 -4 28 -10 31 -5 3 -10 19 -10 36 0 16 -4 29 -10 29 -5 0 -10 15 -10 34 0 19 -4 38 -10 41 -5 3 -10 24 -10 45 0 21 -4 42 -10 45 -5 3 -10 19 -10 35 0 16 -4 32 -10 35 -5 3 -10 21 -10 40 0 19 -4 36 -9 39 -5 3 -11 23 -15 43 -3 21 -8 56 -11 78 -4 22 -10 49 -15 60 -9 21 -17 61 -27 130 -3 22 -9 44 -14 50 -5 5 -9 26 -9 46 0 21 -4 41 -10 44 -5 3 -10 22 -10 41 0 19 -4 34 -9 34 -5 0 -12 21 -15 48 -11 94 -18 132 -27 138 -5 3 -9 30 -9 60 0 30 -4 54 -10 54 -5 0 -10 14 -10 30 0 17 -4 30 -10 30 -5 0 -10 13 -10 29 0 16 -6 32 -12 35 -10 5 -10 7 0 12 14 7 17 64 2 64 -5 0 -10 23 -10 50 0 28 -4 50 -10 50 -6 0 -10 30 -10 70 0 40 -4 70 -10 70 -6 0 -10 33 -10 80 0 47 -4 80 -10 80 -6 0 -10 33 -10 79 0 44 -4 81 -10 83 -5 2 -10 54 -11 116 -2 62 -7 115 -11 118 -4 3 -8 63 -8 134 0 75 -4 131 -10 135 -6 4 -10 88 -10 221 0 118 -4 214 -8 214 -13 0 -15 737 -2 745 13 8 13 122 0 130 -13 8 -13 142 0 147 5 2 10 33 12 70 1 51 6 70 20 79 12 9 18 26 18 51 0 21 5 38 10 38 6 0 10 7 10 15 0 17 20 44 33 45 4 0 7 -144 7 -320z" fill="#ffffff" id="ffffff-000035"/>
    <path stroke="none" d="M3383 7634 c9 -9 -4 -35 -14 -28 -5 3 -9 12 -9 20 0 14 12 19 23 8z" fill="#ffffff" id="ffffff-000041"/>
    <path stroke="none" d="M3360 7575 c0 -3 -13 -19 -30 -35 -16 -16 -30 -35 -30 -43 0 -17 -48 -63 -57 -54 -3 4 1 15 10 25 10 10 17 23 17 29 0 17 62 83 77 83 7 0 13 -2 13 -5z" fill="#ffffff" id="ffffff-000043"/>
    <path stroke="none" d="M2820 6354 c0 -4 -18 -26 -40 -50 -22 -24 -40 -50 -40 -57 0 -8 -27 -39 -60 -70 -33 -30 -60 -62 -60 -71 0 -8 -21 -35 -47 -60 -55 -52 -85 -62 -52 -17 12 16 19 36 16 44 -3 8 7 28 21 44 26 28 53 77 66 116 3 9 14 17 24 17 10 0 43 25 73 55 33 33 63 54 77 55 12 0 22 -3 22 -6z" fill="#ffffff" id="ffffff-000053"/>
    <path stroke="none" d="M2219 6071 c-14 -11 -28 -16 -33 -11 -6 6 1 17 15 29 14 11 28 16 33 11 6 -6 -1 -17 -15 -29z" fill="#ffffff" id="ffffff-000055"/>
    <path stroke="none" d="M7196 5728 c-3 -35 -8 -90 -12 -123 -3 -33 -9 -64 -15 -69 -12 -13 -12 -86 1 -86 6 0 10 16 10 36 0 24 4 34 12 32 17 -6 27 -70 21 -128 -12 -126 -14 -210 -4 -210 7 0 11 -39 11 -110 0 -67 -4 -110 -10 -110 -5 0 -10 -21 -10 -46 0 -38 -5 -51 -30 -74 -16 -15 -30 -38 -30 -50 0 -12 -17 -38 -40 -60 -22 -21 -40 -45 -40 -52 0 -7 -9 -20 -20 -28 -11 -8 -20 -22 -20 -32 0 -10 -4 -18 -10 -18 -5 0 -10 -9 -10 -20 0 -11 -4 -20 -10 -20 -5 0 -10 -8 -10 -18 0 -10 -9 -24 -20 -32 -11 -8 -20 -21 -20 -30 0 -9 -9 -22 -20 -30 -11 -8 -20 -21 -20 -28 0 -7 -18 -31 -40 -52 -22 -21 -40 -43 -40 -48 0 -5 -20 -30 -44 -55 -37 -39 -50 -47 -80 -47 -20 0 -36 -4 -36 -10 0 -5 -13 -10 -30 -10 -16 0 -30 -4 -30 -10 0 -6 -30 -10 -70 -10 -40 0 -70 -4 -70 -10 0 -6 -120 -10 -339 -10 -262 0 -341 -3 -345 -12 -5 -10 -7 -10 -12 0 -4 9 -45 12 -155 12 -93 0 -149 4 -149 10 0 6 9 10 20 10 11 0 20 5 20 10 0 6 27 10 60 10 33 0 60 -4 60 -10 0 -6 75 -10 204 -10 126 0 207 4 211 10 4 6 83 10 206 10 126 0 199 4 199 10 0 6 23 10 50 10 28 0 50 5 50 10 0 6 9 10 20 10 11 0 20 5 20 10 0 6 14 10 30 10 17 0 30 5 30 10 0 6 10 10 23 10 26 1 57 22 57 40 0 6 14 25 30 40 17 15 30 32 30 38 0 5 27 38 60 72 33 34 60 67 60 72 0 6 14 23 30 38 17 15 30 33 30 40 0 7 14 25 30 40 17 15 30 35 30 44 0 9 5 16 10 16 6 0 10 7 10 15 0 8 14 29 30 47 17 17 30 36 30 42 0 6 9 18 20 26 11 8 20 22 20 31 0 10 5 19 11 21 14 5 14 191 -1 196 -6 2 -10 64 -10 173 0 93 -3 169 -7 169 -12 0 -14 118 -3 125 5 3 10 28 10 55 0 27 5 52 10 55 6 3 10 19 10 36 0 16 5 29 10 29 6 0 10 11 10 25 0 14 5 25 11 25 8 0 9 -19 5 -62z" fill="#ffffff" id="ffffff-000058"/>
    <path stroke="none" d="M3447 4767 c1 -15 -5 -33 -13 -41 -8 -8 -14 -27 -14 -41 0 -15 -9 -38 -20 -52 -11 -14 -18 -29 -15 -33 2 -4 -9 -20 -25 -35 -17 -16 -30 -34 -30 -41 0 -6 -7 -17 -15 -24 -8 -7 -16 -22 -16 -34 -1 -13 -33 -50 -84 -96 -46 -41 -86 -85 -90 -98 -10 -30 -73 -92 -94 -92 -10 0 -30 -13 -46 -30 -16 -16 -37 -30 -46 -30 -10 0 -21 -4 -24 -10 -3 -5 -34 -10 -67 -10 -43 0 -67 -5 -80 -17 -10 -9 -21 -13 -24 -10 -4 3 41 52 100 108 58 56 106 108 106 115 0 8 78 92 173 188 94 96 201 206 236 245 36 39 70 70 75 68 6 -2 12 -16 13 -30z" fill="#ffffff" id="ffffff-000060"/>
    <path stroke="none" d="M6720 3312 c0 -4 -43 -50 -95 -101 -52 -52 -95 -100 -95 -106 0 -17 -143 -156 -177 -172 -15 -7 -41 -22 -58 -32 -16 -11 -40 -20 -51 -20 -12 -1 -27 -8 -34 -16 -7 -8 -27 -15 -45 -15 -18 0 -38 -7 -45 -15 -7 -8 -20 -15 -30 -15 -10 0 -23 -7 -30 -15 -8 -9 -30 -15 -60 -15 -31 0 -52 -5 -60 -15 -17 -21 -54 -15 -58 9 -3 14 32 54 124 142 71 68 136 123 144 124 9 0 34 18 55 40 21 22 46 40 55 40 8 0 30 14 49 30 18 17 40 30 48 30 7 0 34 20 60 45 25 25 52 45 60 45 12 0 22 4 73 31 20 10 170 11 170 1z" fill="#ffffff" id="ffffff-000064"/>
    <path stroke="none" d="M7020 3314 c0 -17 -90 -94 -109 -94 -12 0 -24 -7 -27 -15 -7 -17 -24 -20 -24 -5 0 20 115 119 138 120 12 0 22 -3 22 -6z" fill="#ffffff" id="ffffff-000065"/>
    <path stroke="none" d="M4143 2734 c10 -11 -5 -34 -23 -34 -9 0 -38 -18 -63 -40 -25 -22 -51 -40 -59 -40 -7 0 -22 -7 -32 -15 -11 -8 -27 -13 -36 -10 -9 3 -28 -4 -43 -15 -14 -11 -32 -20 -40 -20 -9 0 -19 -4 -22 -10 -3 -5 -14 -10 -24 -10 -10 0 -24 -7 -31 -15 -7 -8 -20 -15 -30 -15 -10 0 -23 -7 -30 -15 -7 -8 -20 -15 -29 -15 -9 0 -35 -18 -56 -40 -21 -22 -47 -40 -56 -40 -9 0 -22 -7 -29 -15 -7 -8 -20 -15 -30 -15 -10 0 -23 -7 -30 -15 -7 -8 -21 -15 -32 -15 -11 0 -31 -13 -45 -30 -28 -34 -81 -41 -103 -15 -7 8 -21 15 -31 15 -10 0 -20 4 -23 8 -7 12 68 82 88 82 8 0 18 5 21 10 3 6 15 10 26 10 10 0 31 14 46 30 14 17 35 30 45 30 10 0 32 14 48 30 20 21 39 30 61 30 24 0 42 10 71 40 22 22 48 40 58 40 9 0 23 7 30 15 7 8 22 15 34 15 12 0 31 7 42 15 13 10 44 14 97 15 56 0 83 4 93 15 9 8 30 15 48 15 19 0 39 7 46 15 13 15 32 20 43 9z" fill="#ffffff" id="ffffff-000067"/>
    <path stroke="none" d="M4572 2700 c-11 -11 -30 -20 -40 -20 -11 0 -25 -7 -32 -15 -7 -8 -18 -15 -25 -15 -7 0 -29 -13 -50 -30 -21 -16 -43 -30 -49 -30 -6 0 -22 -12 -35 -25 -13 -14 -31 -25 -40 -25 -10 0 -30 -13 -46 -30 -16 -16 -36 -30 -46 -30 -9 0 -22 -7 -29 -15 -7 -8 -20 -15 -30 -15 -10 0 -23 -7 -30 -15 -7 -8 -18 -15 -25 -15 -6 0 -33 -11 -59 -25 -26 -14 -53 -25 -60 -25 -8 0 -19 -7 -26 -15 -7 -8 -23 -15 -35 -15 -12 0 -28 -7 -35 -15 -7 -8 -18 -15 -25 -15 -7 0 -18 -7 -25 -15 -7 -9 -29 -15 -50 -15 -21 0 -40 -5 -42 -10 -2 -6 -23 -12 -48 -13 -25 -2 -57 -11 -72 -21 -29 -19 -99 -19 -105 1 -4 12 50 43 77 43 9 0 29 14 45 30 16 17 34 30 40 30 7 0 32 11 56 25 24 14 51 27 59 31 8 3 23 10 32 15 10 5 24 9 32 9 7 0 19 7 26 15 7 8 27 15 45 15 18 0 38 7 45 15 8 9 30 15 60 15 30 0 52 6 60 15 7 8 20 15 30 15 10 0 23 7 30 15 7 8 20 15 29 15 9 0 25 7 35 15 11 8 27 13 36 10 9 -3 28 4 43 15 14 11 32 20 41 20 9 0 32 18 52 40 22 24 45 40 59 40 12 0 28 7 35 15 7 8 27 15 45 15 21 0 35 6 39 17 5 12 9 14 18 5 9 -9 7 -17 -10 -32z" fill="#ffffff" id="ffffff-000071"/>
    <path stroke="none" d="M6200 2668 c0 -6 -26 -36 -57 -66 -156 -146 -224 -217 -229 -238 -3 -12 -12 -25 -20 -28 -8 -3 -14 -14 -14 -24 0 -10 -18 -35 -39 -56 -22 -21 -42 -49 -45 -62 -4 -13 -14 -24 -22 -24 -9 0 -33 -13 -53 -28 -20 -15 -52 -35 -71 -44 -19 -9 -73 -34 -120 -57 -59 -28 -99 -41 -128 -41 -40 0 -54 11 -32 25 6 3 10 14 10 24 0 9 14 30 30 46 17 16 30 36 30 46 0 9 14 29 30 42 17 14 30 30 30 34 0 5 13 24 30 43 16 19 29 42 30 51 0 9 7 22 15 29 8 7 15 21 15 32 0 10 7 21 15 24 8 4 15 14 15 23 0 9 20 37 45 61 25 24 45 51 45 60 0 34 42 58 98 58 30 0 59 5 65 11 6 6 41 11 78 11 47 0 70 4 79 15 8 9 30 15 60 15 30 0 52 6 60 15 15 18 50 20 50 3z" fill="#ffffff" id="ffffff-000070"/>
    <path stroke="none" d="M7820 2580 c0 -5 -13 -19 -30 -32 -18 -13 -30 -31 -30 -45 0 -13 -4 -23 -10 -23 -5 0 -10 -7 -10 -15 0 -8 -13 -30 -30 -48 -16 -19 -30 -42 -30 -51 0 -9 -6 -19 -14 -22 -8 -3 -18 -19 -21 -35 -4 -16 -11 -29 -16 -29 -5 0 -9 -9 -9 -20 0 -13 -10 -25 -27 -32 -40 -17 -63 -38 -63 -59 0 -10 -16 -25 -38 -37 -21 -11 -57 -38 -80 -61 -22 -22 -48 -41 -56 -41 -9 0 -42 -25 -73 -55 -32 -30 -65 -55 -73 -55 -9 0 -36 -20 -60 -45 -24 -25 -51 -45 -60 -45 -9 0 -36 -20 -60 -45 -24 -25 -53 -45 -65 -45 -11 0 -29 -11 -39 -25 -10 -14 -25 -25 -33 -25 -9 0 -32 -13 -53 -30 -21 -16 -44 -30 -51 -30 -8 0 -25 -12 -38 -25 -13 -14 -30 -25 -39 -25 -21 0 -62 -39 -62 -59 0 -21 -120 -141 -142 -141 -9 0 -31 -14 -48 -30 -17 -17 -39 -30 -48 -30 -10 0 -31 -13 -47 -30 -16 -16 -36 -30 -45 -30 -9 0 -29 -13 -45 -30 -16 -16 -37 -30 -46 -30 -10 0 -21 -5 -24 -10 -3 -6 -16 -10 -29 -10 -12 0 -31 -7 -42 -15 -10 -8 -35 -15 -55 -15 -20 0 -42 -7 -49 -15 -7 -8 -27 -15 -45 -15 -18 0 -38 -7 -45 -15 -8 -9 -30 -15 -60 -15 -30 0 -52 -6 -60 -15 -9 -11 -33 -15 -91 -15 -43 0 -81 -4 -84 -10 -3 -5 -26 -10 -50 -10 -27 0 -50 -6 -60 -16 -13 -13 -33 -16 -89 -15 -55 2 -76 -2 -86 -14 -20 -24 -187 -21 -220 5 l-25 19 50 46 c28 25 64 53 82 63 39 20 223 200 223 216 0 17 21 36 40 36 9 0 40 25 70 55 30 30 62 55 71 55 9 0 22 7 29 15 7 8 21 15 31 15 10 0 21 5 24 10 3 6 21 10 40 10 19 0 37 5 40 10 12 19 89 50 124 50 20 0 45 7 55 15 11 8 27 15 37 15 9 0 22 7 29 15 7 8 24 15 38 15 27 0 108 35 118 51 3 5 18 9 34 9 16 0 32 5 35 10 3 6 17 10 29 10 13 0 29 7 36 15 7 8 27 15 45 15 18 0 38 7 45 15 7 8 27 15 45 15 18 0 38 7 45 15 7 8 27 15 45 15 18 0 38 7 45 15 7 8 27 15 46 15 18 0 36 5 39 10 3 6 21 10 39 10 20 0 40 8 51 20 10 11 24 20 32 20 7 0 21 4 31 9 9 5 24 12 32 15 8 3 22 10 30 15 8 5 22 12 30 15 8 3 22 10 30 15 8 5 36 19 62 31 27 12 50 26 54 31 3 5 13 9 23 9 10 0 28 11 41 25 13 14 31 25 41 25 10 0 28 10 41 23 27 26 125 87 140 87 5 0 38 27 72 60 35 33 69 60 77 60 8 0 72 57 144 125 125 120 145 136 145 115z" fill="#ffffff" id="ffffff-000074"/>
    <path stroke="none" d="M5440 2526 c0 -7 -7 -19 -15 -26 -8 -7 -13 -16 -10 -20 2 -4 -4 -15 -15 -25 -11 -10 -20 -23 -20 -30 0 -22 -34 -80 -57 -98 -13 -10 -23 -25 -23 -33 0 -8 -20 -37 -45 -63 -25 -26 -45 -55 -45 -63 0 -9 -7 -21 -15 -28 -8 -7 -15 -20 -15 -29 0 -10 -13 -27 -30 -39 -16 -13 -30 -30 -30 -39 0 -9 -10 -27 -22 -40 -21 -23 -25 -23 -229 -23 -171 0 -209 -3 -219 -15 -9 -11 -35 -15 -104 -15 -58 0 -96 -4 -104 -12 -6 -6 -15 -8 -19 -4 -4 4 -2 10 4 14 6 4 13 18 14 32 3 17 11 26 28 28 13 2 38 17 55 33 17 16 38 29 47 29 9 0 22 6 28 14 7 8 27 22 46 31 19 9 35 20 35 25 0 6 10 10 23 10 13 0 36 14 52 30 16 17 36 30 45 30 9 0 29 13 45 30 15 16 32 27 36 24 5 -3 31 15 57 40 27 26 58 46 69 46 11 0 32 14 46 30 15 17 34 30 43 30 8 0 27 11 42 25 15 14 39 25 54 25 14 0 33 7 42 15 8 8 23 15 34 15 11 0 25 7 32 15 7 8 27 15 45 15 20 0 35 6 39 15 7 19 56 20 56 1z" fill="#ffffff" id="ffffff-000073"/>
    <path stroke="none" d="M4440 2155 c0 -8 -4 -15 -10 -15 -5 0 -10 -8 -10 -17 0 -9 -37 -56 -82 -104 -46 -47 -102 -109 -126 -138 -24 -28 -52 -51 -62 -51 -9 0 -23 -7 -30 -15 -7 -8 -20 -15 -29 -15 -10 0 -30 -13 -46 -30 -16 -16 -37 -30 -46 -30 -10 0 -21 -4 -24 -10 -3 -5 -16 -10 -29 -10 -12 0 -31 -7 -42 -15 -10 -8 -29 -15 -40 -15 -12 0 -27 -7 -34 -15 -10 -12 -38 -15 -136 -15 -67 0 -125 4 -129 9 -6 11 46 51 67 51 8 0 25 11 38 25 13 14 31 25 40 25 9 0 29 14 45 30 16 17 36 30 45 30 9 0 27 11 40 25 13 14 29 25 36 25 7 0 29 14 47 30 19 17 41 30 50 30 8 0 20 7 27 15 7 8 17 15 22 15 6 0 30 14 55 30 24 17 48 30 52 30 5 0 14 7 21 15 7 8 23 15 36 15 13 0 24 5 24 10 0 6 11 10 24 10 15 0 34 12 49 30 14 17 34 30 45 30 11 0 25 7 32 15 7 8 28 15 46 15 24 0 34 -5 34 -15z" fill="#ffffff" id="ffffff-000078"/>
    <path stroke="none" d="M4910 1820 c0 -15 -73 -79 -90 -80 -9 0 -40 -25 -70 -55 -30 -30 -61 -55 -70 -55 -8 0 -40 -25 -70 -55 -34 -33 -64 -54 -78 -55 -12 0 -25 -7 -28 -15 -4 -8 -14 -15 -24 -15 -10 0 -25 -7 -34 -15 -8 -8 -23 -15 -34 -15 -11 0 -25 -7 -32 -15 -7 -8 -21 -15 -30 -15 -10 0 -27 -11 -38 -25 -14 -18 -29 -25 -55 -25 -19 0 -40 -7 -47 -15 -7 -8 -25 -15 -41 -15 -15 0 -34 -7 -43 -15 -8 -8 -30 -15 -49 -15 -19 0 -40 -7 -47 -15 -7 -8 -29 -15 -50 -15 -21 0 -43 -7 -50 -15 -14 -17 -40 -20 -40 -4 0 6 32 40 70 76 39 36 70 72 70 80 0 8 27 42 60 74 33 32 60 64 60 71 0 18 131 148 149 148 8 0 27 12 42 26 24 23 29 24 49 12 18 -10 24 -10 27 0 3 6 13 12 23 12 9 0 23 7 30 15 7 8 20 15 29 15 10 0 26 7 37 15 15 11 56 14 197 15 110 0 177 -4 177 -10z" fill="#ffffff" id="ffffff-000080"/>
    <path stroke="none" d="M8960 9375 c0 -14 5 -25 10 -25 6 0 10 11 10 25 0 14 -4 25 -10 25 -5 0 -10 -11 -10 -25z" fill="#000000" id="000000-000007"/>
    <path stroke="none" d="M8980 9280 c0 -5 5 -10 10 -10 6 0 10 5 10 10 0 6 -4 10 -10 10 -5 0 -10 -4 -10 -10z" fill="#000000" id="000000-000008"/>
    <path stroke="none" d="M11480 12190 c0 -5 9 -10 20 -10 11 0 20 5 20 10 0 6 -9 10 -20 10 -11 0 -20 -4 -20 -10z" fill="#ffffff" id="ffffff-000009"/>
    <path stroke="none" d="M11520 12170 c0 -5 9 -10 20 -10 11 0 20 5 20 10 0 6 -9 10 -20 10 -11 0 -20 -4 -20 -10z" fill="#ffffff" id="ffffff-000010"/>
    <path stroke="none" d="M11560 12150 c0 -5 9 -10 20 -10 11 0 20 5 20 10 0 6 -9 10 -20 10 -11 0 -20 -4 -20 -10z" fill="#ffffff" id="ffffff-000011"/>
    <path stroke="none" d="M11600 12130 c0 -5 9 -10 20 -10 11 0 20 5 20 10 0 6 -9 10 -20 10 -11 0 -20 -4 -20 -10z" fill="#ffffff" id="ffffff-000012"/>
    <path stroke="none" d="M2980 8475 c0 -8 5 -15 10 -15 6 0 10 7 10 15 0 8 -4 15 -10 15 -5 0 -10 -7 -10 -15z" fill="#ffffff" id="ffffff-000030"/>
    <path stroke="none" d="M2185 4090 c-3 -5 -14 -10 -24 -10 -10 0 -28 -11 -40 -24 -23 -24 -21 -46 3 -46 17 0 76 59 76 76 0 16 -6 18 -15 4z" fill="#000000" id="000000-000014"/>
    <path stroke="none" d="M2025 3990 c-27 -10 -57 -27 -66 -39 -10 -12 -27 -21 -38 -21 -12 0 -24 -7 -27 -15 -4 -8 -12 -15 -20 -15 -8 0 -14 -7 -14 -15 0 -8 4 -15 9 -15 5 0 14 7 21 15 7 8 21 15 31 15 10 0 21 5 24 10 3 6 13 10 22 10 9 0 24 7 34 16 9 8 24 17 33 18 17 2 56 35 56 48 0 10 -3 9 -65 -12z" fill="#000000" id="000000-000016"/>
    <path stroke="none" d="M1777 3864 c-4 -4 -7 -11 -7 -16 0 -13 50 -6 53 7 2 12 -36 19 -46 9z" fill="#000000" id="000000-000019"/>
    <path stroke="none" d="M1732 2771 c-30 -29 -48 -52 -41 -56 10 -7 109 82 109 98 0 16 -17 5 -68 -42z" fill="#000000" id="000000-000022"/>
  </g>
</svg>
