<svg xmlns="http://www.w3.org/2000/svg" version="1.0" width="4236.000000pt" height="4110.000000pt" viewBox="0 0 4236.000000 4110.000000" preserveAspectRatio="xMidYMid meet">
  <g transform="translate(0.000000,4110.000000) scale(0.100000,-0.100000)" stroke="none">
    <mask id="mask-2">
      <g>
        <path d="M 0 0 H 42360.0 V 41100.0 H 0 Z" fill="white" id="background"/>
        <path d="M16100 1587 c-115 -33 -202 -104 -250 -200 -97 -198 -43 -415 134 -537 111 -76 308 -87 443 -25 62 28 145 103 178 160 36 60 58 168 51 241 -16 162 -93 272 -236 337 -56 26 -79 31 -170 34 -66 2 -122 -2 -150 -10z" fill="black"/>
      </g>
    </mask>
    <mask id="mask-1">
      <g>
        <path d="M 0 0 H 42360.0 V 41100.0 H 0 Z" fill="white" id="background"/>
        <path d="M10699 4239 c214 0 412 3 440 7 42 5 52 4 57 -10 4 -10 -28 -85 -81 -194 -48 -97 -121 -247 -163 -332 -41 -85 -100 -209 -132 -275 -32 -66 -68 -141 -79 -167 -11 -27 -26 -48 -34 -48 -8 0 -32 38 -55 88 -22 48 -87 184 -145 302 -183 379 -199 412 -223 469 -13 31 -24 49 -24 41 -1 -16 -49 87 -50 107 0 15 27 22 67 17 18 -3 208 -5 422 -5z" fill="black"/>
        <path d="M16100 1587 c-115 -33 -202 -104 -250 -200 -97 -198 -43 -415 134 -537 111 -76 308 -87 443 -25 62 28 145 103 178 160 36 60 58 168 51 241 -16 162 -93 272 -236 337 -56 26 -79 31 -170 34 -66 2 -122 -2 -150 -10z" fill="black"/>
      </g>
    </mask>
    <mask id="mask-0">
      <g>
        <path d="M 0 0 H 42360.0 V 41100.0 H 0 Z" fill="white" id="background"/>
        <path d="M21311 36563 c8 -15 37 -66 65 -113 49 -82 81 -138 129 -225 47 -86 96 -168 115 -195 11 -15 20 -31 20 -34 0 -6 29 -58 109 -196 14 -25 53 -93 85 -150 33 -58 87 -152 121 -210 34 -58 107 -186 164 -285 56 -99 106 -187 111 -195 62 -103 93 -157 101 -178 5 -13 18 -36 28 -51 10 -14 32 -51 48 -81 17 -30 48 -84 70 -120 22 -36 57 -97 77 -135 20 -39 68 -122 106 -185 38 -63 85 -145 105 -183 19 -37 53 -95 74 -130 20 -34 73 -125 116 -202 42 -77 108 -192 145 -255 37 -63 80 -137 95 -165 117 -208 147 -260 164 -284 10 -14 36 -60 58 -101 35 -67 148 -262 173 -300 5 -8 22 -37 36 -65 24 -46 127 -224 195 -338 16 -26 29 -50 29 -53 0 -3 47 -86 105 -185 58 -99 105 -182 105 -185 0 -4 22 -43 49 -88 27 -44 58 -97 69 -116 10 -19 42 -74 71 -122 28 -48 51 -90 51 -93 0 -4 14 -26 30 -50 17 -24 30 -46 30 -48 0 -2 23 -44 52 -93 68 -118 128 -226 128 -231 0 -2 13 -23 28 -46 16 -23 43 -69 62 -102 18 -33 41 -73 50 -90 10 -16 37 -64 60 -105 24 -41 74 -127 111 -191 38 -64 69 -119 69 -123 0 -3 52 -94 115 -201 64 -108 119 -204 122 -213 4 -9 32 -60 63 -112 32 -52 90 -153 130 -225 40 -71 92 -161 115 -200 24 -38 69 -117 101 -175 31 -58 92 -163 134 -235 42 -71 90 -155 107 -185 17 -30 63 -111 103 -180 40 -69 88 -154 107 -190 19 -36 47 -85 63 -110 39 -63 132 -225 167 -290 17 -30 41 -73 54 -96 13 -22 51 -87 83 -145 33 -57 81 -140 107 -184 26 -44 56 -96 67 -115 10 -19 42 -74 71 -122 28 -48 51 -89 51 -92 0 -2 21 -40 46 -83 26 -43 54 -91 63 -108 9 -16 35 -61 57 -100 23 -38 58 -99 78 -135 20 -36 41 -72 46 -80 38 -62 130 -220 130 -225 0 -4 23 -45 51 -93 29 -48 63 -107 77 -132 14 -25 35 -61 47 -80 12 -19 39 -66 60 -105 33 -61 77 -138 149 -258 10 -18 30 -54 44 -82 14 -27 50 -90 79 -138 29 -48 53 -90 53 -93 0 -3 13 -24 28 -47 15 -23 43 -71 62 -107 18 -36 52 -96 75 -135 23 -38 82 -140 130 -225 48 -85 107 -186 130 -225 24 -38 75 -128 115 -200 40 -71 103 -182 141 -246 38 -64 69 -120 69 -124 0 -3 21 -41 47 -83 26 -42 63 -106 83 -142 71 -126 158 -276 230 -400 40 -69 85 -147 99 -175 29 -54 37 -67 130 -223 33 -57 61 -106 61 -108 0 -2 32 -59 72 -127 134 -229 148 -254 148 -260 0 -3 32 -58 70 -122 39 -64 70 -118 70 -121 0 -3 8 -18 18 -32 11 -15 34 -56 53 -92 19 -36 54 -99 80 -140 25 -41 59 -100 76 -130 17 -30 53 -95 82 -144 28 -49 51 -90 51 -92 0 -2 32 -55 70 -119 39 -64 70 -119 70 -123 0 -5 19 -39 43 -77 23 -39 78 -133 122 -210 43 -77 125 -219 181 -315 56 -96 111 -195 124 -219 l22 -44 -1609 6 c-884 4 -2449 9 -3478 12 -1028 4 -3017 10 -4420 15 -1402 6 -2916 10 -3363 10 l-814 0 25 43 c13 23 56 96 94 162 39 66 111 190 160 275 50 85 114 196 143 245 30 50 79 135 110 190 71 124 149 258 206 351 24 39 44 74 44 77 0 4 40 74 89 155 49 82 106 180 127 218 21 38 50 89 65 114 15 25 53 90 85 145 82 144 184 316 204 345 9 14 37 63 60 110 24 47 54 99 66 115 12 17 34 53 50 81 47 83 125 218 181 312 29 48 100 170 158 272 59 102 120 208 137 235 17 28 41 68 52 90 36 66 105 183 182 311 41 66 74 124 74 127 0 7 114 202 176 301 24 38 44 73 44 77 0 5 32 60 70 124 39 64 70 118 70 120 0 2 13 25 29 52 98 162 251 423 251 428 0 5 114 200 157 268 30 48 62 104 81 142 8 17 41 73 72 125 31 52 75 127 97 165 22 39 72 124 111 190 59 102 123 212 202 350 9 17 54 92 99 168 44 76 81 140 81 143 0 3 14 25 30 49 17 24 30 46 30 49 0 3 32 57 70 121 39 64 70 119 70 122 0 3 36 65 79 137 43 72 88 148 100 169 29 52 58 103 94 167 16 30 36 62 43 70 6 8 44 74 84 145 40 72 76 134 80 138 4 5 19 -11 32 -35 14 -24 49 -83 78 -133 29 -49 68 -119 87 -155 20 -36 64 -112 98 -170 34 -58 76 -130 92 -160 17 -30 54 -95 83 -145 113 -192 130 -222 130 -228 0 -7 106 -189 170 -292 21 -33 54 -94 75 -135 21 -41 46 -87 56 -101 18 -25 102 -171 160 -277 16 -28 40 -70 54 -92 14 -22 25 -41 25 -44 0 -2 18 -34 40 -70 22 -37 53 -90 69 -119 16 -28 46 -81 66 -117 21 -36 49 -85 62 -110 14 -24 33 -56 42 -70 10 -14 41 -68 70 -120 29 -52 56 -102 61 -110 36 -57 150 -254 150 -259 0 -3 23 -44 50 -91 59 -98 125 -213 165 -285 23 -44 90 -158 149 -258 10 -18 34 -61 53 -97 20 -36 48 -85 63 -110 15 -25 47 -79 71 -120 24 -41 51 -88 61 -105 10 -16 36 -64 58 -105 23 -41 72 -127 110 -190 38 -63 75 -126 82 -140 6 -14 60 -108 118 -210 59 -102 135 -234 169 -295 35 -60 78 -137 98 -170 19 -33 48 -82 63 -110 91 -162 138 -245 161 -280 14 -22 43 -71 63 -110 34 -63 97 -172 162 -280 13 -22 31 -55 40 -74 8 -18 26 -50 38 -70 41 -64 166 -279 166 -284 0 -3 52 -95 116 -204 64 -109 119 -205 122 -213 3 -8 24 -46 47 -85 24 -38 86 -146 140 -240 54 -93 111 -192 127 -220 16 -27 34 -62 41 -77 l11 -28 1098 0 c604 0 1098 2 1098 5 0 6 -44 84 -106 188 -30 49 -54 92 -54 95 0 6 -147 261 -189 326 -17 28 -31 54 -31 58 0 5 -28 55 -62 111 -34 56 -75 127 -92 157 -16 30 -42 75 -58 99 -15 25 -28 48 -28 53 0 4 -31 59 -70 123 -38 64 -70 118 -70 120 0 2 -27 49 -60 105 -33 56 -60 103 -60 106 0 2 -31 54 -68 116 -37 62 -71 122 -75 132 -7 18 -87 155 -193 334 -24 40 -44 75 -44 79 0 3 -49 90 -110 193 -60 104 -110 191 -110 194 0 3 -24 45 -53 93 -56 93 -63 104 -172 298 -37 66 -96 168 -131 226 -35 58 -64 109 -64 113 0 7 -50 93 -181 312 -27 45 -49 85 -49 89 0 4 -31 60 -69 124 -38 64 -90 154 -116 201 -26 47 -78 137 -116 200 -37 63 -82 144 -101 180 -18 36 -35 67 -39 70 -7 7 -69 109 -69 115 0 2 -31 56 -70 120 -38 64 -70 119 -70 123 0 5 -21 41 -46 82 -26 41 -49 82 -52 90 -3 8 -35 65 -71 127 -153 262 -178 305 -259 448 -46 83 -105 183 -129 224 -25 41 -61 104 -80 140 -19 36 -43 82 -55 101 -101 168 -178 300 -178 306 0 3 -15 32 -34 63 -19 31 -43 72 -54 91 -10 19 -42 74 -71 122 -28 48 -51 89 -51 92 0 4 -33 61 -73 129 -40 67 -109 185 -152 262 -43 77 -109 191 -147 253 -37 63 -68 116 -68 119 0 8 -141 255 -155 273 -7 8 -34 54 -59 102 -26 48 -69 124 -96 168 -28 45 -50 83 -50 84 0 2 -22 42 -50 90 -27 48 -50 89 -50 91 0 2 -31 56 -70 120 -38 64 -70 118 -70 120 0 2 -41 75 -91 162 -51 87 -117 203 -149 258 -31 55 -92 161 -135 235 -43 74 -94 164 -113 200 -19 36 -38 70 -42 75 -11 14 -190 326 -190 331 0 3 -31 56 -70 120 -38 63 -70 117 -70 120 0 2 -10 21 -23 42 -13 20 -39 66 -59 102 -19 36 -62 112 -97 170 -64 109 -69 117 -106 185 -12 22 -53 92 -90 155 -38 63 -79 135 -92 160 -49 93 -188 330 -195 330 -4 0 -19 -21 -34 -47 -15 -27 -49 -86 -77 -133 -27 -47 -59 -101 -70 -120 -10 -19 -34 -60 -51 -90 -18 -30 -50 -86 -71 -125 -21 -38 -43 -77 -50 -85 -7 -8 -59 -96 -115 -195 -57 -99 -129 -223 -161 -275 -32 -52 -61 -104 -65 -115 -4 -11 -20 -39 -36 -62 -15 -23 -28 -44 -28 -46 0 -3 -39 -69 -86 -147 -47 -78 -90 -154 -95 -169 -6 -14 -21 -40 -35 -58 -13 -17 -24 -34 -24 -37 0 -3 -18 -35 -40 -71 -22 -36 -40 -67 -40 -70 0 -2 -13 -24 -30 -48 -16 -25 -30 -48 -30 -52 0 -4 -36 -67 -80 -140 -44 -73 -94 -159 -112 -191 -17 -33 -72 -126 -121 -209 -50 -82 -103 -175 -120 -205 -16 -30 -72 -125 -123 -211 -51 -86 -104 -180 -119 -210 -15 -30 -36 -66 -46 -81 -15 -21 -119 -198 -219 -373 -9 -16 -46 -79 -82 -140 -36 -60 -69 -120 -72 -132 -4 -13 -12 -23 -17 -23 -5 0 -9 -4 -9 -9 0 -5 -45 -84 -100 -176 -55 -91 -100 -169 -100 -171 0 -3 -49 -88 -110 -190 -60 -101 -110 -187 -110 -189 0 -3 -44 -80 -97 -170 -172 -290 -234 -396 -331 -565 -52 -91 -104 -181 -116 -200 -11 -20 -41 -71 -66 -114 -66 -114 -108 -186 -187 -321 -82 -141 -147 -253 -293 -505 -59 -102 -125 -214 -147 -250 -22 -36 -57 -96 -78 -135 -21 -38 -77 -135 -125 -215 -48 -80 -89 -152 -92 -160 -3 -8 -51 -91 -107 -183 -55 -93 -101 -170 -101 -173 0 -3 -23 -44 -52 -92 -62 -106 -179 -306 -308 -527 -9 -16 -50 -86 -89 -154 -40 -68 -82 -140 -94 -161 -101 -174 -132 -228 -206 -353 -46 -78 -106 -182 -133 -232 -27 -49 -67 -117 -88 -150 -58 -94 -139 -232 -150 -257 -5 -13 -34 -63 -64 -113 -30 -49 -74 -124 -97 -165 -23 -41 -91 -157 -151 -257 -59 -100 -108 -184 -108 -187 0 -3 -31 -57 -70 -121 -38 -64 -70 -118 -70 -120 0 -2 -22 -40 -50 -84 -27 -44 -50 -83 -50 -87 0 -3 -30 -56 -67 -117 -38 -62 -70 -116 -73 -122 -3 -6 -50 -88 -105 -183 -190 -326 -225 -387 -262 -456 l-38 -69 -1229 7 c-677 4 -1232 8 -1233 10 -2 2 38 73 90 158 52 85 104 172 114 194 11 21 61 108 111 192 51 84 92 155 92 158 0 3 50 89 110 189 61 101 110 187 110 190 0 4 32 59 70 122 39 64 70 118 70 120 0 3 8 17 19 31 10 15 50 83 88 152 39 69 98 172 132 230 74 124 65 110 137 235 31 55 66 114 78 130 12 17 37 59 56 95 18 36 73 131 122 213 48 81 88 149 88 152 0 3 25 47 56 98 31 51 92 155 137 232 44 77 122 211 173 297 52 87 94 161 94 165 0 4 11 23 24 42 31 48 156 262 192 331 16 30 45 80 65 110 20 30 53 87 74 125 22 39 49 84 62 101 13 17 23 35 23 40 0 5 23 47 51 94 29 47 70 117 92 155 49 87 116 203 131 230 6 11 41 70 79 131 37 62 67 115 67 118 0 3 49 88 109 188 59 101 119 203 131 228 12 25 31 57 41 71 18 26 137 230 183 314 13 22 61 105 109 184 48 79 87 146 87 150 0 3 23 43 50 89 28 46 50 85 50 88 0 3 17 31 39 62 21 31 52 84 69 117 16 33 53 97 81 143 28 46 51 85 51 88 0 2 17 30 37 61 21 32 48 78 61 103 23 44 161 282 327 565 45 77 94 160 107 185 35 63 123 212 174 296 24 39 44 74 44 78 0 5 34 64 75 132 41 68 75 128 75 134 0 5 5 10 10 10 6 0 10 5 10 11 0 6 9 24 21 40 11 16 36 60 56 97 19 37 45 83 58 102 27 42 138 230 144 245 2 5 41 73 86 150 46 77 107 183 137 235 30 52 79 136 108 185 29 50 80 137 113 195 32 58 62 110 67 115 4 6 21 33 37 61 82 146 135 238 205 356 43 72 93 158 111 192 19 33 74 129 123 211 50 83 93 157 96 165 3 8 57 101 119 207 218 367 334 566 338 577 5 15 99 175 121 206 10 14 36 59 58 100 42 80 113 203 179 310 22 36 53 90 70 120 46 84 63 114 151 261 45 75 82 139 82 142 0 3 45 81 100 172 55 92 100 169 100 171 0 2 35 64 79 137 72 121 95 160 132 228 8 13 23 40 35 59 76 126 162 275 192 330 20 36 49 88 67 115 17 28 48 82 69 120 22 39 44 77 51 85 7 8 27 44 46 80 18 36 41 77 51 92 15 22 160 270 220 378 11 19 24 40 28 45 4 6 17 26 28 45 59 106 245 424 280 483 23 37 42 70 42 73 0 3 49 87 108 187 59 100 119 202 132 227 13 25 36 65 51 90 32 52 112 190 158 273 18 31 36 57 40 57 4 0 14 -12 22 -27z" fill="black"/>
        <path d="M10699 4239 c214 0 412 3 440 7 42 5 52 4 57 -10 4 -10 -28 -85 -81 -194 -48 -97 -121 -247 -163 -332 -41 -85 -100 -209 -132 -275 -32 -66 -68 -141 -79 -167 -11 -27 -26 -48 -34 -48 -8 0 -32 38 -55 88 -22 48 -87 184 -145 302 -183 379 -199 412 -223 469 -13 31 -24 49 -24 41 -1 -16 -49 87 -50 107 0 15 27 22 67 17 18 -3 208 -5 422 -5z" fill="black"/>
        <path d="M16100 1587 c-115 -33 -202 -104 -250 -200 -97 -198 -43 -415 134 -537 111 -76 308 -87 443 -25 62 28 145 103 178 160 36 60 58 168 51 241 -16 162 -93 272 -236 337 -56 26 -79 31 -170 34 -66 2 -122 -2 -150 -10z" fill="black"/>
      </g>
    </mask>
    <path stroke="none" d="M21275 40359 c-76 -127 -155 -262 -155 -265 0 -2 -20 -36 -43 -76 -124 -208 -257 -437 -257 -442 0 -4 -11 -23 -24 -44 -44 -69 -186 -311 -194 -329 -9 -22 -147 -258 -171 -293 -10 -14 -37 -61 -60 -104 -24 -44 -60 -107 -80 -140 -21 -34 -49 -81 -63 -106 -42 -74 -166 -287 -208 -356 -22 -35 -40 -66 -40 -69 0 -2 -36 -65 -80 -140 -44 -75 -80 -138 -80 -141 0 -3 -13 -24 -29 -47 -15 -23 -50 -80 -75 -127 -26 -47 -78 -137 -116 -200 -37 -63 -93 -158 -122 -210 -126 -220 -279 -482 -336 -578 -34 -56 -62 -106 -62 -110 0 -4 -23 -42 -50 -85 -28 -43 -50 -80 -50 -82 0 -2 -30 -55 -68 -117 -37 -62 -73 -126 -80 -142 -7 -16 -28 -52 -46 -80 -37 -56 -128 -212 -173 -293 -15 -28 -63 -111 -106 -185 -126 -214 -224 -382 -319 -548 -49 -85 -120 -207 -157 -270 -81 -136 -307 -526 -343 -590 -14 -25 -43 -74 -65 -110 -22 -36 -53 -90 -70 -120 -35 -64 -92 -161 -139 -240 -18 -30 -49 -84 -70 -120 -20 -36 -65 -113 -100 -173 -35 -59 -64 -110 -64 -113 0 -3 -13 -24 -29 -47 -16 -23 -47 -77 -70 -121 -24 -43 -51 -91 -60 -105 -10 -14 -45 -73 -79 -131 -121 -211 -346 -599 -428 -735 -45 -77 -86 -149 -90 -160 -4 -11 -22 -42 -39 -70 -35 -55 -151 -253 -209 -355 -20 -36 -41 -72 -46 -80 -48 -78 -121 -202 -130 -221 -5 -13 -34 -64 -64 -114 -30 -49 -80 -135 -112 -190 -32 -55 -80 -138 -108 -185 -79 -135 -147 -252 -201 -346 -27 -47 -62 -107 -77 -133 -15 -25 -47 -80 -70 -121 -23 -41 -87 -151 -143 -245 -55 -93 -121 -206 -145 -250 -24 -44 -56 -99 -72 -122 -15 -23 -28 -45 -28 -48 0 -4 -8 -19 -19 -33 -10 -15 -33 -54 -51 -87 -18 -33 -77 -135 -131 -226 -54 -92 -99 -169 -99 -172 0 -3 -45 -81 -100 -172 -55 -92 -100 -170 -100 -172 0 -3 -42 -75 -94 -161 -51 -87 -126 -215 -166 -287 -41 -71 -93 -160 -117 -198 -24 -37 -43 -69 -43 -71 0 -4 -85 -154 -105 -187 -5 -9 -21 -36 -34 -60 -13 -24 -36 -62 -51 -84 -15 -22 -42 -69 -61 -105 -18 -36 -48 -87 -65 -115 -42 -67 -153 -256 -192 -327 -17 -31 -68 -121 -115 -200 -204 -346 -261 -444 -268 -458 -10 -20 -91 -158 -168 -288 -33 -57 -61 -105 -61 -108 0 -4 -103 -180 -193 -329 -16 -27 -42 -72 -57 -100 -49 -89 -70 -126 -89 -153 -16 -23 -106 -179 -209 -362 -14 -25 -40 -68 -58 -97 -18 -29 -45 -76 -60 -105 -14 -28 -34 -63 -44 -78 -16 -23 -125 -207 -229 -390 -24 -41 -66 -113 -94 -160 -28 -47 -62 -107 -77 -135 -15 -27 -68 -119 -118 -202 -51 -84 -92 -156 -92 -159 0 -3 -27 -51 -60 -106 -33 -54 -60 -102 -60 -105 0 -3 -11 -20 -23 -37 -13 -17 -44 -69 -69 -116 -25 -47 -69 -122 -97 -167 -28 -46 -51 -85 -51 -88 0 -4 -17 -32 -38 -63 -21 -31 -42 -66 -46 -77 -4 -11 -29 -56 -55 -100 -27 -44 -92 -156 -146 -250 -54 -93 -126 -217 -160 -275 -35 -58 -69 -117 -76 -132 -8 -16 -62 -109 -121 -208 -60 -99 -108 -182 -108 -185 0 -7 -150 -262 -186 -316 -13 -19 -24 -38 -24 -42 0 -4 -35 -67 -79 -140 -43 -72 -91 -154 -106 -182 -15 -27 -71 -124 -125 -215 -53 -91 -155 -265 -226 -387 -71 -122 -172 -295 -224 -385 -52 -89 -118 -203 -146 -253 -28 -49 -77 -133 -108 -185 -32 -52 -62 -104 -67 -115 -5 -11 -22 -42 -39 -70 -16 -27 -48 -81 -70 -120 -23 -38 -59 -99 -81 -135 -22 -36 -44 -74 -49 -86 -4 -11 -54 -97 -109 -189 -56 -93 -101 -171 -101 -175 0 -4 1044 -9 2320 -12 1275 -2 2322 -7 2325 -10 4 -3 -12 -36 -34 -73 -23 -37 -41 -69 -41 -72 0 -3 -45 -80 -99 -172 -54 -91 -107 -183 -117 -203 -11 -21 -61 -109 -113 -195 -145 -244 -205 -346 -217 -369 -6 -11 -36 -63 -66 -115 -31 -52 -72 -123 -92 -159 -20 -36 -70 -121 -111 -190 -188 -319 -260 -444 -266 -459 -4 -10 -52 -91 -107 -182 -54 -90 -109 -184 -122 -209 -12 -25 -47 -84 -76 -132 -30 -48 -54 -91 -54 -94 0 -3 -9 -18 -20 -33 -10 -16 -52 -86 -91 -157 -40 -71 -85 -148 -100 -171 -16 -23 -29 -44 -29 -46 0 -3 -36 -66 -80 -141 -44 -76 -80 -139 -80 -142 0 -3 -10 -20 -22 -37 -12 -17 -47 -75 -78 -128 -135 -237 -176 -307 -208 -357 -18 -30 -39 -66 -45 -80 -7 -15 -56 -100 -109 -189 -54 -89 -98 -165 -98 -168 0 -3 -42 -76 -94 -163 -51 -86 -104 -177 -118 -202 -36 -63 -117 -203 -164 -280 -22 -36 -51 -87 -64 -115 -14 -27 -28 -52 -31 -55 -7 -6 -112 -184 -349 -595 -51 -88 -113 -193 -137 -234 -51 -84 -71 -119 -121 -211 -19 -36 -82 -142 -139 -237 -56 -94 -103 -174 -103 -177 0 -4 -48 -86 -106 -183 -58 -97 -109 -184 -112 -192 -3 -9 -24 -45 -46 -81 -36 -59 -146 -247 -201 -345 -13 -22 -62 -105 -109 -184 -47 -79 -86 -146 -86 -148 0 -2 -23 -42 -50 -89 -28 -47 -50 -89 -50 -94 0 -6 -4 -10 -9 -10 -5 0 -14 -14 -21 -30 l-13 -31 -1837 1 c-1010 1 -1843 5 -1850 10 -11 7 -8 17 16 52 16 24 31 48 34 53 7 14 133 207 403 617 64 98 117 180 117 183 0 3 45 73 100 155 55 82 100 152 100 154 0 3 55 89 123 191 154 234 207 315 281 429 33 50 104 158 158 239 54 82 98 150 98 153 0 3 95 149 357 548 54 82 100 154 102 160 2 6 43 70 91 141 94 141 142 214 150 230 3 6 32 50 65 98 33 49 89 136 125 192 36 57 102 159 146 227 45 68 128 194 185 281 l104 157 654 0 653 -1 54 78 c29 43 58 83 64 90 5 7 10 15 10 18 0 4 23 39 50 79 28 40 50 75 50 79 0 4 12 25 28 46 15 21 32 47 39 57 7 11 37 56 68 102 31 45 60 92 65 105 4 12 29 49 54 82 25 33 46 64 46 68 0 4 33 57 72 117 40 59 93 141 118 181 25 39 50 77 55 83 15 17 75 106 75 111 0 3 53 85 118 182 65 98 131 201 147 228 15 28 38 62 49 76 22 28 33 43 69 98 12 19 30 46 39 60 10 14 23 37 30 51 7 14 25 41 40 61 15 20 28 41 28 46 0 6 9 18 20 28 11 10 22 27 26 39 4 11 21 39 39 62 46 55 96 142 86 148 -4 3 -936 8 -2072 11 -1135 3 -2075 8 -2089 10 -27 4 -19 15 -305 -425 -62 -96 -165 -254 -227 -350 -63 -96 -139 -213 -169 -260 -29 -47 -56 -87 -59 -90 -3 -3 -28 -40 -55 -83 -74 -115 -227 -349 -358 -549 -65 -98 -117 -180 -117 -183 0 -2 -55 -88 -123 -189 -142 -215 -251 -383 -322 -495 -27 -44 -86 -134 -130 -200 -99 -150 -283 -432 -435 -667 -63 -98 -159 -245 -212 -326 -54 -82 -98 -150 -98 -153 0 -2 -44 -71 -99 -152 -54 -81 -104 -159 -111 -172 -7 -14 -17 -30 -22 -35 -9 -11 -137 -206 -254 -386 -126 -194 -239 -368 -309 -475 -40 -60 -126 -193 -191 -293 -66 -101 -158 -243 -205 -315 -47 -73 -112 -172 -144 -222 -32 -49 -81 -126 -110 -170 -51 -78 -85 -130 -270 -415 -48 -74 -127 -194 -174 -267 -47 -72 -135 -207 -195 -300 -255 -393 -327 -503 -432 -663 -61 -93 -124 -190 -139 -217 -15 -26 -45 -71 -66 -99 -22 -28 -39 -54 -39 -57 0 -3 -20 -35 -45 -70 -25 -36 -45 -67 -45 -71 0 -3 -24 -40 -53 -83 -51 -76 -102 -153 -141 -217 -11 -17 -64 -98 -119 -181 -55 -82 -102 -157 -105 -167 -4 -17 43 -18 1109 -19 613 0 1265 -2 1449 -4 577 -7 6292 -27 15950 -55 1812 -5 3984 -12 4825 -15 6226 -24 17630 -42 17638 -28 5 7 -65 118 -320 506 -56 86 -103 160 -103 163 0 3 -47 76 -105 163 -58 87 -105 163 -105 169 0 6 -6 17 -13 24 -7 7 -39 54 -71 103 -32 50 -78 119 -101 155 -180 276 -265 409 -265 413 0 3 -46 75 -102 161 -121 184 -319 489 -333 513 -9 16 -143 224 -285 443 -36 55 -70 108 -75 118 -13 21 -98 154 -211 328 -32 51 -113 176 -179 279 -66 103 -168 261 -227 351 -60 90 -108 166 -108 169 0 3 -47 76 -103 162 -130 197 -359 553 -450 697 -7 11 -33 51 -59 89 -27 39 -48 73 -48 77 0 3 -46 77 -102 163 -57 86 -148 227 -203 313 -55 86 -140 217 -189 292 -48 76 -104 162 -123 192 -19 30 -82 127 -138 215 -57 88 -114 176 -126 195 -219 343 -277 433 -308 478 -43 63 -57 84 -95 148 -17 27 -73 114 -125 194 -53 80 -98 150 -100 155 -2 6 -50 81 -107 167 -57 87 -104 160 -104 163 0 3 -46 76 -103 163 -57 86 -156 238 -219 337 -64 99 -164 254 -223 345 -189 293 -247 384 -264 413 -11 18 -21 25 -31 20 -8 -4 -953 -5 -2099 -4 -1178 2 -2082 0 -2080 -5 2 -5 53 -83 114 -174 60 -91 116 -177 125 -192 37 -68 103 -167 120 -183 11 -10 20 -23 20 -28 0 -6 10 -24 23 -41 13 -17 26 -38 29 -46 3 -9 32 -56 64 -105 33 -50 64 -97 69 -106 19 -30 55 -84 65 -99 12 -16 37 -58 88 -142 18 -31 41 -63 52 -73 11 -10 20 -24 20 -31 0 -7 6 -19 13 -26 7 -7 30 -42 52 -78 21 -36 58 -93 82 -127 24 -34 43 -65 43 -68 0 -3 5 -11 10 -18 19 -23 59 -82 107 -161 59 -97 64 -105 135 -208 31 -46 62 -96 70 -113 7 -16 20 -38 28 -47 8 -9 26 -35 40 -58 14 -22 49 -76 78 -118 29 -42 58 -89 64 -104 l12 -28 651 0 c506 0 655 -3 666 -12 14 -12 70 -96 241 -363 129 -201 202 -315 299 -463 52 -81 106 -165 119 -187 13 -22 63 -100 112 -173 48 -72 88 -134 88 -137 0 -2 44 -72 99 -154 54 -82 101 -155 104 -162 3 -8 57 -93 120 -189 63 -96 130 -200 149 -230 20 -30 71 -110 114 -177 70 -108 202 -314 318 -496 22 -34 75 -115 118 -180 43 -64 78 -120 78 -123 0 -5 104 -163 171 -261 16 -23 29 -44 29 -47 0 -3 48 -79 108 -170 119 -184 291 -451 336 -524 17 -26 56 -87 88 -136 32 -48 58 -90 58 -92 0 -2 -819 -4 -1819 -4 l-1819 0 -58 103 c-32 56 -70 120 -84 142 -14 22 -43 74 -64 115 -22 41 -44 82 -50 90 -6 8 -17 26 -25 40 -8 14 -37 63 -64 110 -28 47 -66 114 -85 150 -19 36 -47 85 -62 110 -33 53 -130 222 -173 300 -17 30 -56 98 -87 150 -31 52 -85 147 -120 210 -35 63 -89 158 -121 210 -31 52 -74 127 -95 167 -56 102 -155 275 -169 293 -7 8 -23 35 -36 60 -13 25 -69 124 -125 220 -56 96 -113 198 -128 225 -40 77 -72 134 -84 147 -5 7 -40 67 -77 133 -103 184 -116 205 -156 271 -21 34 -54 93 -75 130 -33 62 -129 230 -282 494 -30 52 -66 114 -79 138 -13 24 -40 69 -59 100 -18 31 -34 60 -34 63 0 4 -18 37 -40 73 -22 36 -40 68 -40 72 0 3 -13 25 -30 49 -16 24 -30 46 -30 48 0 4 -69 125 -101 177 -5 8 -18 33 -30 55 -12 22 -48 83 -79 135 -32 52 -73 124 -92 160 -19 36 -67 121 -107 190 -40 69 -91 159 -113 200 -22 41 -55 98 -73 125 -39 61 -125 212 -125 220 0 3 -11 22 -24 43 -38 60 -163 275 -194 333 -16 30 -35 65 -44 79 -8 14 -49 84 -90 155 -41 72 -127 221 -191 331 -65 111 -117 204 -117 207 0 3 -28 52 -62 109 -95 161 -168 287 -168 293 0 3 -34 62 -75 131 -41 69 -75 129 -75 135 0 5 -328 9 -858 9 -472 0 -967 3 -1100 7 -179 4 -242 3 -242 -5 0 -7 39 -78 87 -159 48 -82 102 -177 121 -213 19 -36 49 -88 67 -115 18 -28 47 -78 65 -110 96 -174 131 -236 157 -277 12 -21 23 -40 23 -43 0 -4 13 -25 28 -48 15 -23 41 -67 56 -97 16 -30 48 -86 71 -125 86 -143 145 -244 145 -249 0 -2 22 -42 48 -88 89 -152 193 -333 209 -363 9 -16 46 -82 83 -145 63 -106 103 -177 146 -255 9 -16 47 -82 84 -145 37 -63 100 -173 140 -245 41 -71 89 -154 108 -184 18 -30 51 -86 72 -125 20 -39 70 -127 110 -196 40 -69 86 -150 103 -180 16 -30 68 -120 115 -200 47 -80 90 -156 96 -170 6 -14 18 -36 27 -50 30 -47 156 -265 194 -335 21 -38 53 -93 71 -122 19 -28 34 -54 34 -57 0 -3 25 -46 55 -96 30 -50 62 -105 70 -123 18 -41 54 -104 81 -142 11 -17 36 -59 56 -95 19 -36 45 -83 58 -105 80 -141 116 -203 132 -226 9 -15 42 -71 71 -125 29 -55 92 -164 139 -244 47 -80 99 -172 117 -205 17 -33 65 -116 106 -185 41 -69 80 -136 87 -150 11 -22 72 -130 131 -230 11 -19 57 -100 103 -180 45 -80 106 -186 135 -237 30 -51 79 -136 109 -189 30 -53 78 -136 107 -184 28 -47 67 -115 85 -151 19 -35 68 -120 108 -189 40 -69 86 -150 103 -180 16 -30 49 -86 72 -125 68 -112 177 -307 173 -309 -8 -6 -13663 37 -17423 54 -1127 6 -2380 10 -2782 10 -403 0 -733 4 -733 8 0 4 4 12 9 18 5 5 18 25 29 44 10 20 48 85 84 145 36 61 83 141 104 179 21 38 46 80 55 95 9 14 66 112 126 216 60 105 128 219 150 255 22 36 57 97 78 135 21 39 78 136 126 218 49 81 89 150 89 153 0 3 34 62 75 131 41 68 75 126 75 129 0 3 14 25 30 49 17 24 30 47 30 50 0 4 38 70 84 148 81 138 241 411 276 472 10 17 50 86 90 155 40 69 84 145 98 170 14 25 39 68 57 95 17 28 46 79 64 115 18 36 39 72 45 80 15 17 145 239 168 285 8 17 65 114 126 217 62 102 112 188 112 191 0 2 38 67 84 144 46 77 93 157 104 179 11 21 59 104 107 184 48 80 103 173 121 208 19 35 55 97 80 139 50 82 50 83 144 248 34 61 80 138 101 173 22 34 49 79 60 100 55 97 156 272 215 369 35 59 64 111 64 115 0 5 15 32 34 61 38 59 158 264 204 347 16 30 64 111 106 180 41 69 88 150 104 180 16 30 54 96 84 145 30 50 66 111 80 135 59 105 153 267 206 354 23 37 42 71 42 75 0 4 21 40 46 81 51 83 142 238 184 315 15 28 41 73 58 100 40 65 150 254 183 314 29 53 49 87 112 191 25 41 60 103 79 137 18 34 48 87 67 119 l34 57 2676 -7 c1472 -3 3695 -11 4941 -16 1246 -5 3822 -14 5725 -19 1903 -6 3747 -13 4098 -17 350 -4 637 -3 637 1 0 10 -103 196 -180 325 -31 53 -73 125 -92 160 -47 86 -132 235 -196 341 -29 47 -52 89 -52 93 0 4 -31 59 -70 122 -38 64 -70 118 -70 121 0 3 -8 17 -18 31 -11 15 -34 56 -53 92 -18 36 -55 100 -81 142 -26 43 -66 113 -89 155 -23 43 -79 141 -125 219 -45 77 -106 183 -134 235 -29 52 -90 158 -136 236 -46 78 -84 145 -84 148 0 4 -27 52 -60 107 -33 54 -60 101 -60 104 0 3 -15 28 -33 57 -18 29 -51 86 -74 127 -22 41 -66 117 -97 168 -31 51 -56 94 -56 97 0 2 -22 42 -50 90 -27 48 -50 88 -50 89 0 2 -31 56 -70 120 -38 64 -70 118 -70 121 0 4 -34 63 -186 322 -30 50 -54 94 -54 97 0 3 -22 43 -49 88 -55 94 -65 110 -171 298 -98 171 -367 638 -409 708 -17 29 -31 55 -31 58 0 5 -138 244 -150 259 -4 6 -29 50 -55 99 -26 49 -55 101 -65 115 -22 31 -126 212 -151 261 -10 20 -63 114 -120 210 -56 96 -112 193 -124 215 -29 53 -85 150 -146 254 -27 46 -49 86 -49 88 0 2 -23 43 -51 91 -29 48 -60 101 -69 118 -108 190 -225 393 -268 464 -11 19 -40 71 -64 115 -24 44 -94 167 -156 274 -62 106 -112 195 -112 197 0 2 -25 45 -56 96 -31 51 -71 120 -89 153 -17 33 -65 116 -105 185 -40 69 -99 170 -130 225 -89 158 -226 398 -315 550 -45 77 -105 183 -135 235 -29 52 -82 143 -117 201 -34 58 -63 109 -63 113 0 3 -47 86 -104 184 -57 97 -118 204 -136 237 -17 33 -44 80 -60 105 -24 38 -110 188 -218 380 -14 24 -49 84 -78 133 -30 49 -54 92 -54 94 0 7 -117 211 -174 303 -25 41 -46 78 -46 82 0 5 -20 41 -43 81 -94 155 -197 334 -197 340 0 4 -17 35 -38 69 -21 35 -78 133 -126 218 -49 85 -119 207 -155 270 -67 113 -140 242 -189 330 -14 25 -43 74 -64 109 -22 35 -54 91 -72 125 -18 33 -66 117 -106 186 -40 69 -89 154 -108 190 -19 36 -58 104 -88 152 -30 48 -54 89 -54 91 0 2 -22 43 -50 91 -27 48 -50 88 -50 90 0 2 -25 45 -55 96 -31 51 -72 122 -92 159 -20 36 -55 98 -78 136 -100 167 -185 314 -185 319 0 4 -39 73 -87 154 -48 81 -111 191 -140 246 -29 54 -62 110 -72 125 -10 14 -53 89 -96 166 -43 77 -106 187 -140 245 -35 58 -98 168 -140 245 -43 77 -93 164 -112 194 -19 30 -52 86 -73 125 -20 39 -70 127 -110 196 -41 69 -87 150 -103 180 -16 30 -59 105 -95 165 -36 61 -73 124 -82 140 -9 17 -43 77 -75 135 -32 58 -75 132 -95 165 -20 33 -70 119 -110 190 -40 72 -101 178 -136 236 -35 59 -64 109 -64 113 0 3 -22 43 -49 88 -27 46 -58 99 -69 118 -11 19 -62 109 -114 200 -53 91 -124 215 -158 275 -35 61 -104 180 -153 265 -50 85 -103 180 -119 210 -16 30 -61 109 -100 175 -39 66 -85 147 -103 180 -17 33 -43 78 -57 100 -27 44 -37 60 -163 285 -48 85 -91 160 -95 165 -5 6 -62 105 -127 220 -66 116 -131 228 -145 250 -14 22 -43 74 -65 115 -22 41 -73 131 -113 200 -40 69 -87 152 -105 185 -17 33 -45 81 -60 105 -28 43 -114 193 -160 275 -25 44 -24 43 -157 275 -52 91 -107 188 -122 215 -16 28 -52 91 -81 140 -97 167 -168 290 -198 345 -16 30 -33 59 -38 64 -4 5 -20 -11 -34 -35z" fill="#000000" id="000000-000001" mask="url(#mask-0)"/>
    <path stroke="none" d="M12398 6694 c-9 -3 -19 -17 -23 -32 -9 -38 -60 -145 -315 -667 -120 -247 -233 -480 -300 -620 -26 -55 -98 -203 -160 -330 -62 -126 -120 -249 -130 -271 -10 -23 -23 -45 -28 -48 -6 -3 -335 -6 -732 -6 -576 -1 -725 2 -738 12 -14 12 -55 93 -267 533 -39 83 -183 378 -318 657 -136 278 -247 510 -247 516 0 5 -9 17 -19 26 -17 16 -47 17 -283 17 -144 0 -271 0 -280 0 -25 -1 -22 -32 7 -75 14 -21 200 -385 414 -809 213 -425 398 -788 409 -807 12 -19 22 -43 22 -53 0 -17 -19 -17 -331 -12 -241 4 -335 2 -345 -6 -21 -17 -17 -48 10 -88 13 -20 65 -107 116 -193 51 -87 101 -165 111 -173 15 -14 59 -16 341 -17 177 0 331 -5 340 -9 9 -5 88 -152 176 -326 88 -175 216 -431 285 -568 69 -138 129 -264 133 -280 6 -26 8 -27 15 -10 7 18 8 18 8 2 1 -10 91 -199 202 -420 164 -327 200 -407 197 -434 -4 -31 -2 -33 28 -33 28 0 32 4 38 35 4 20 74 167 155 328 81 160 304 603 495 983 191 381 356 701 366 711 17 19 33 20 339 21 177 0 329 3 339 6 10 3 55 70 102 148 46 79 101 170 122 202 47 73 50 112 11 120 -16 3 -169 4 -341 1 -261 -4 -314 -2 -318 9 -3 8 23 67 59 133 35 65 135 260 222 433 86 173 245 491 353 705 107 215 206 405 220 422 37 49 25 77 -40 99 -51 16 -193 73 -290 116 -27 12 -48 27 -48 35 0 7 -6 13 -12 13 -7 0 -22 2 -33 4 -11 2 -27 2 -37 0z" fill="#000000" id="000000-000002" mask="url(#mask-1)"/>
    <path stroke="none" d="M34078 6693 c-10 -2 -18 -13 -18 -23 0 -18 -34 -92 -218 -470 -46 -96 -118 -245 -159 -330 -42 -85 -117 -240 -168 -345 -51 -104 -125 -257 -165 -340 -40 -82 -118 -242 -173 -355 -55 -113 -123 -255 -152 -315 -29 -61 -99 -205 -155 -320 -56 -116 -126 -259 -155 -320 -29 -60 -106 -220 -172 -355 -66 -135 -123 -258 -126 -272 -7 -28 -32 -58 -48 -58 -5 0 -17 17 -26 38 -22 51 -78 169 -196 412 -54 113 -107 223 -117 246 -11 22 -75 157 -144 298 -70 142 -126 260 -126 261 0 1 -57 119 -126 261 -70 143 -166 342 -214 444 -48 102 -129 271 -180 375 -310 636 -468 968 -485 1014 -9 24 -14 29 -15 16 -1 -25 -41 82 -42 113 0 19 -6 22 -43 22 -31 0 -46 -5 -56 -20 -8 -11 -83 -46 -184 -85 -93 -36 -180 -70 -192 -75 -30 -12 -29 -41 1 -88 44 -70 493 -977 501 -1012 8 -34 9 -34 16 -10 7 24 7 24 8 2 1 -12 357 -732 792 -1599 434 -867 791 -1589 792 -1605 2 -25 5 -28 40 -28 31 0 37 3 37 21 0 12 190 398 421 858 232 460 570 1131 752 1491 769 1528 931 1847 954 1887 14 24 22 50 19 60 -4 13 -61 40 -178 87 -187 74 -222 92 -213 106 4 6 -2 10 -12 10 -10 0 -27 2 -38 4 -11 2 -28 2 -37 -1z" fill="#000000" id="000000-000003" mask="url(#mask-2)"/>
    <path stroke="none" d="M670 6442 c-2 -1632 1 -4156 4 -4159 7 -7 459 -3 466 3 7 8 6 2714 -1 3044 -4 151 -10 285 -14 298 -6 19 -4 22 19 22 21 0 35 -14 78 -77 28 -43 120 -172 203 -288 402 -558 598 -830 675 -938 47 -66 123 -172 170 -237 139 -193 303 -421 335 -466 36 -51 436 -606 485 -674 19 -26 81 -113 137 -192 254 -356 326 -455 347 -476 23 -23 25 -23 256 -22 128 0 237 3 241 6 5 3 9 937 9 2089 l0 2083 -27 5 c-48 9 -427 5 -445 -5 -17 -8 -18 -88 -18 -1461 1 -799 5 -1549 10 -1667 5 -118 7 -216 5 -218 -11 -11 -52 28 -90 89 -42 65 -103 149 -366 509 -31 41 -88 120 -127 175 -110 154 -246 340 -586 808 -212 291 -240 329 -285 393 -38 54 -593 820 -651 899 -52 70 -124 169 -229 315 -50 69 -97 134 -106 145 -15 19 -29 20 -255 22 l-240 1 0 -26z" fill="#000000" id="000000-000004" mask="url(#mask-2)"/>
    <path stroke="none" d="M17100 6463 c-8 -3 -18 -11 -22 -17 -10 -15 -9 -409 1 -424 7 -11 133 -14 709 -12 460 0 702 -3 707 -9 3 -6 5 -839 5 -1852 0 -1365 3 -1845 11 -1855 9 -11 59 -14 244 -14 206 0 234 2 239 16 4 9 6 844 6 1856 0 1011 2 1843 6 1849 4 7 243 9 706 8 407 0 704 3 709 8 11 11 15 430 5 441 -9 8 -3304 13 -3326 5z" fill="#000000" id="000000-000005" mask="url(#mask-2)"/>
    <path stroke="none" d="M25298 6462 c-10 -2 -18 -9 -18 -15 -4 -539 2 -4153 8 -4159 4 -4 108 -8 231 -8 175 -1 226 1 232 12 5 7 9 945 9 2084 0 1645 -3 2074 -12 2082 -12 9 -407 13 -450 4z" fill="#000000" id="000000-000006" mask="url(#mask-2)"/>
    <path stroke="none" d="M39018 6463 c-10 -2 -18 -12 -18 -21 -2 -369 1 -4156 3 -4159 5 -4 2799 -4 2804 1 3 3 6 351 4 429 l-1 27 -1157 0 c-673 -1 -1160 3 -1165 8 -12 12 -11 1473 0 1484 5 5 410 8 900 8 l892 0 5 22 c3 13 4 115 3 228 l-3 205 -894 2 c-492 1 -898 6 -903 11 -5 5 -9 296 -9 647 0 506 3 640 13 647 7 4 525 8 1151 7 861 0 1142 3 1153 12 11 9 14 52 14 220 0 192 -1 209 -18 218 -18 10 -2737 14 -2774 4z" fill="#000000" id="000000-000007" mask="url(#mask-2)"/>
  </g>
</svg>
