<svg xmlns="http://www.w3.org/2000/svg" version="1.0" width="2908.000000pt" height="10342.000000pt" viewBox="0 0 2908.000000 10342.000000" preserveAspectRatio="xMidYMid meet">
  <g transform="translate(0.000000,10342.000000) scale(0.100000,-0.100000)" stroke="none">
    <mask id="mask-3">
      <g>
        <path d="M 0 0 H 29080.0 V 103420.0 H 0 Z" fill="white" id="background"/>
        <path d="M13833 9451 c23 -15 88 -56 144 -89 56 -34 126 -76 155 -95 29 -19 91 -58 138 -87 47 -29 109 -68 138 -87 29 -19 68 -42 85 -52 71 -41 274 -165 301 -184 l28 -20 -5 -176 c-4 -97 -11 -267 -17 -378 -24 -487 -31 -617 -36 -763 -6 -176 -9 -200 -28 -200 -7 0 -53 25 -102 56 -312 198 -520 332 -706 452 l-148 96 0 778 c0 428 3 778 6 778 3 0 24 -13 47 -29z" fill="black"/>
      </g>
    </mask>
    <mask id="mask-2">
      <g>
        <path d="M 0 0 H 29080.0 V 103420.0 H 0 Z" fill="white" id="background"/>
        <path d="M15798 39310 c186 -20 277 -31 322 -40 128 -24 167 -33 305 -70 122 -32 315 -111 445 -182 260 -142 483 -362 607 -598 95 -182 137 -323 168 -560 56 -435 -68 -845 -333 -1107 -192 -189 -479 -315 -822 -362 -197 -28 -356 -31 -1394 -31 -1043 0 -1297 5 -1446 31 -86 15 -181 60 -213 102 -72 95 -141 269 -182 462 -50 235 -49 595 4 865 67 344 275 698 549 935 83 72 226 174 322 229 139 80 374 176 525 216 141 38 171 44 300 69 232 44 630 63 843 41z" fill="black"/>
        <path d="M13833 9451 c23 -15 88 -56 144 -89 56 -34 126 -76 155 -95 29 -19 91 -58 138 -87 47 -29 109 -68 138 -87 29 -19 68 -42 85 -52 71 -41 274 -165 301 -184 l28 -20 -5 -176 c-4 -97 -11 -267 -17 -378 -24 -487 -31 -617 -36 -763 -6 -176 -9 -200 -28 -200 -7 0 -53 25 -102 56 -312 198 -520 332 -706 452 l-148 96 0 778 c0 428 3 778 6 778 3 0 24 -13 47 -29z" fill="black"/>
      </g>
    </mask>
    <mask id="mask-1">
      <g>
        <path d="M 0 0 H 29080.0 V 103420.0 H 0 Z" fill="white" id="background"/>
        <path d="M19592 55690 c247 -65 416 -159 591 -329 127 -122 248 -293 330 -465 81 -167 124 -297 177 -531 34 -149 50 -327 50 -545 0 -293 -24 -477 -100 -755 -16 -60 -62 -177 -101 -256 -123 -252 -339 -475 -561 -578 -383 -179 -809 -139 -1182 112 -203 136 -398 369 -438 524 -59 231 -69 359 -75 1028 -5 579 -1 686 28 840 23 120 32 162 39 185 4 14 13 45 21 70 7 25 16 49 21 54 4 6 8 16 8 23 0 23 64 148 119 231 58 89 191 222 257 258 22 11 55 30 75 42 42 23 195 76 254 87 136 25 399 28 487 5z" fill="black"/>
        <path d="M14820 54605 c274 -29 406 -63 586 -152 285 -140 463 -369 525 -673 17 -85 17 -329 -1 -400 -61 -255 -200 -468 -414 -635 -185 -145 -430 -251 -681 -295 -38 -7 -92 -16 -118 -21 -67 -12 -455 -11 -536 2 -169 27 -215 37 -351 81 -189 60 -357 157 -489 283 -211 202 -301 410 -301 697 0 223 41 367 156 544 189 290 567 489 1049 553 236 32 383 36 575 16z" fill="black"/>
        <path d="M15798 39310 c186 -20 277 -31 322 -40 128 -24 167 -33 305 -70 122 -32 315 -111 445 -182 260 -142 483 -362 607 -598 95 -182 137 -323 168 -560 56 -435 -68 -845 -333 -1107 -192 -189 -479 -315 -822 -362 -197 -28 -356 -31 -1394 -31 -1043 0 -1297 5 -1446 31 -86 15 -181 60 -213 102 -72 95 -141 269 -182 462 -50 235 -49 595 4 865 67 344 275 698 549 935 83 72 226 174 322 229 139 80 374 176 525 216 141 38 171 44 300 69 232 44 630 63 843 41z" fill="black"/>
        <path d="M13833 9451 c23 -15 88 -56 144 -89 56 -34 126 -76 155 -95 29 -19 91 -58 138 -87 47 -29 109 -68 138 -87 29 -19 68 -42 85 -52 71 -41 274 -165 301 -184 l28 -20 -5 -176 c-4 -97 -11 -267 -17 -378 -24 -487 -31 -617 -36 -763 -6 -176 -9 -200 -28 -200 -7 0 -53 25 -102 56 -312 198 -520 332 -706 452 l-148 96 0 778 c0 428 3 778 6 778 3 0 24 -13 47 -29z" fill="black"/>
      </g>
    </mask>
    <mask id="mask-0">
      <g>
        <path d="M 0 0 H 29080.0 V 103420.0 H 0 Z" fill="white" id="background"/>
        <path d="M10780 62570 c36 -20 85 -48 110 -62 25 -14 62 -35 83 -47 20 -11 54 -31 75 -42 20 -12 57 -33 82 -47 25 -14 137 -78 250 -142 113 -64 225 -128 250 -142 25 -14 69 -39 98 -57 29 -17 55 -31 58 -31 3 0 18 -8 32 -18 15 -11 52 -32 82 -49 30 -17 79 -44 108 -62 29 -17 55 -31 58 -31 3 0 18 -8 32 -18 15 -11 52 -33 82 -49 30 -17 206 -117 390 -223 184 -106 360 -206 390 -223 30 -16 67 -38 82 -49 14 -10 29 -18 32 -18 3 0 29 -14 58 -31 29 -18 78 -45 108 -62 30 -17 67 -38 82 -49 14 -10 29 -18 32 -18 3 0 29 -14 58 -31 29 -18 78 -45 108 -62 30 -17 67 -38 82 -49 14 -10 29 -18 32 -18 3 0 29 -14 58 -31 29 -18 78 -45 108 -62 30 -17 67 -38 82 -49 14 -10 29 -18 32 -18 4 0 36 -18 72 -40 36 -22 67 -40 69 -40 2 0 56 -30 122 -67 65 -38 129 -74 143 -81 62 -32 56 46 63 -917 4 -484 10 -964 13 -1067 5 -136 4 -188 -4 -188 -6 0 -39 39 -72 88 -119 173 -330 463 -442 607 -35 45 -76 99 -93 120 -70 93 -359 452 -479 595 -591 707 -1171 1323 -2228 2370 -285 282 -518 517 -518 522 0 9 85 -34 220 -112z" fill="black"/>
        <path d="M19592 55690 c247 -65 416 -159 591 -329 127 -122 248 -293 330 -465 81 -167 124 -297 177 -531 34 -149 50 -327 50 -545 0 -293 -24 -477 -100 -755 -16 -60 -62 -177 -101 -256 -123 -252 -339 -475 -561 -578 -383 -179 -809 -139 -1182 112 -203 136 -398 369 -438 524 -59 231 -69 359 -75 1028 -5 579 -1 686 28 840 23 120 32 162 39 185 4 14 13 45 21 70 7 25 16 49 21 54 4 6 8 16 8 23 0 23 64 148 119 231 58 89 191 222 257 258 22 11 55 30 75 42 42 23 195 76 254 87 136 25 399 28 487 5z" fill="black"/>
        <path d="M14820 54605 c274 -29 406 -63 586 -152 285 -140 463 -369 525 -673 17 -85 17 -329 -1 -400 -61 -255 -200 -468 -414 -635 -185 -145 -430 -251 -681 -295 -38 -7 -92 -16 -118 -21 -67 -12 -455 -11 -536 2 -169 27 -215 37 -351 81 -189 60 -357 157 -489 283 -211 202 -301 410 -301 697 0 223 41 367 156 544 189 290 567 489 1049 553 236 32 383 36 575 16z" fill="black"/>
        <path d="M15798 39310 c186 -20 277 -31 322 -40 128 -24 167 -33 305 -70 122 -32 315 -111 445 -182 260 -142 483 -362 607 -598 95 -182 137 -323 168 -560 56 -435 -68 -845 -333 -1107 -192 -189 -479 -315 -822 -362 -197 -28 -356 -31 -1394 -31 -1043 0 -1297 5 -1446 31 -86 15 -181 60 -213 102 -72 95 -141 269 -182 462 -50 235 -49 595 4 865 67 344 275 698 549 935 83 72 226 174 322 229 139 80 374 176 525 216 141 38 171 44 300 69 232 44 630 63 843 41z" fill="black"/>
        <path d="M13833 9451 c23 -15 88 -56 144 -89 56 -34 126 -76 155 -95 29 -19 91 -58 138 -87 47 -29 109 -68 138 -87 29 -19 68 -42 85 -52 71 -41 274 -165 301 -184 l28 -20 -5 -176 c-4 -97 -11 -267 -17 -378 -24 -487 -31 -617 -36 -763 -6 -176 -9 -200 -28 -200 -7 0 -53 25 -102 56 -312 198 -520 332 -706 452 l-148 96 0 778 c0 428 3 778 6 778 3 0 24 -13 47 -29z" fill="black"/>
      </g>
    </mask>
    <path stroke="none" d="M13352 98784 c-13 -3 -38 -21 -57 -39 -59 -59 -57 -158 4 -253 38 -59 62 -79 271 -220 91 -61 202 -137 247 -169 212 -151 318 -228 323 -233 3 -3 68 -53 145 -110 825 -617 1691 -1362 2275 -1956 350 -358 537 -586 611 -750 36 -79 37 -117 4 -149 -30 -31 -67 -32 -154 -3 -59 20 -345 160 -443 216 -78 45 -185 104 -343 189 -153 82 -505 253 -520 253 -3 0 -24 8 -48 19 -191 85 -423 149 -630 172 -177 21 -379 -11 -541 -85 -244 -112 -442 -337 -524 -596 -18 -55 -25 -172 -13 -202 10 -26 13 -27 78 -25 59 1 76 -3 131 -31 390 -200 1520 -1158 2377 -2016 316 -317 482 -501 578 -642 52 -77 57 -90 57 -138 0 -139 -117 -171 -357 -97 -17 5 -71 26 -120 47 -415 178 -1003 578 -1658 1128 -508 427 -1101 1020 -1443 1442 -177 219 -384 509 -461 647 -12 20 -31 54 -42 75 -93 163 -176 362 -207 492 -28 118 -32 143 -32 200 0 75 -10 96 -57 115 -45 19 -99 19 -193 -1 -126 -26 -218 -59 -370 -132 -348 -168 -639 -459 -707 -707 -29 -106 -33 -128 -33 -206 0 -137 50 -364 110 -504 5 -11 17 -40 27 -65 29 -73 158 -330 201 -400 204 -336 337 -521 607 -845 760 -916 1887 -1862 2781 -2336 121 -64 134 -73 312 -228 379 -328 801 -735 1038 -1001 400 -448 609 -787 630 -1021 6 -63 5 -69 -19 -93 -30 -30 -61 -33 -139 -12 -134 35 -437 181 -672 324 -37 23 -70 42 -73 42 -2 0 -24 14 -48 30 -24 17 -46 30 -49 30 -4 0 -30 15 -59 33 -28 19 -83 53 -122 77 -206 127 -553 350 -1180 760 -223 145 -567 369 -660 428 -148 95 -295 187 -320 202 -16 10 -106 64 -200 121 -93 56 -195 116 -225 132 -30 17 -73 41 -95 54 -40 23 -288 145 -335 165 -153 65 -212 74 -378 59 -139 -12 -238 -26 -302 -41 -19 -5 -57 -14 -85 -21 -153 -36 -349 -118 -460 -192 -84 -56 -196 -174 -228 -239 -108 -220 -76 -319 234 -733 282 -376 912 -1073 1607 -1776 171 -174 312 -319 312 -322 0 -3 -51 25 -112 62 -124 74 -174 98 -298 146 -270 104 -655 113 -1030 23 -93 -22 -195 -53 -222 -68 -10 -6 -23 -10 -30 -10 -23 0 -243 -116 -321 -169 -42 -28 -114 -88 -160 -134 -133 -131 -197 -245 -197 -350 0 -47 4 -58 33 -89 38 -43 91 -58 197 -58 39 0 92 -5 118 -10 26 -6 70 -15 97 -21 303 -61 810 -295 1310 -603 44 -27 98 -58 119 -70 21 -12 55 -38 75 -60 20 -21 308 -219 641 -441 654 -436 737 -492 1025 -705 517 -381 814 -698 895 -955 7 -22 16 -50 21 -63 13 -33 11 -196 -2 -229 -29 -71 -59 -132 -66 -136 -5 -3 -42 20 -83 51 -97 73 -363 258 -436 302 -32 19 -78 47 -103 63 -70 42 -300 153 -354 171 -117 39 -197 49 -297 36 -195 -24 -305 -65 -394 -150 -140 -132 -162 -349 -57 -557 54 -108 72 -133 161 -224 139 -140 262 -217 445 -277 162 -53 311 -66 545 -46 266 22 399 45 575 99 16 5 67 -41 271 -247 710 -718 1113 -1283 1230 -1726 22 -84 19 -233 -7 -287 -31 -66 -73 -100 -179 -142 -14 -6 -64 -16 -113 -23 -71 -11 -109 -11 -205 -1 -64 7 -130 17 -146 22 -16 5 -42 9 -57 9 -15 0 -38 4 -51 9 -13 5 -48 14 -78 21 -65 14 -74 17 -251 74 -148 49 -288 103 -449 174 -124 54 -437 209 -518 256 -31 18 -77 45 -102 58 -187 104 -541 334 -735 478 -603 448 -1086 958 -1340 1414 -121 217 -192 394 -236 581 -25 110 -39 208 -39 280 0 199 -30 444 -66 552 -42 125 -129 200 -198 172 -41 -17 -222 -138 -311 -208 -92 -72 -272 -248 -345 -336 -156 -190 -286 -453 -329 -670 -7 -33 -17 -79 -22 -102 -12 -57 -11 -393 1 -451 6 -26 15 -69 21 -97 43 -213 171 -523 308 -750 23 -37 41 -69 41 -71 0 -7 156 -240 214 -319 279 -384 679 -801 1096 -1140 209 -170 314 -248 550 -405 69 -46 141 -95 160 -110 19 -15 89 -67 155 -116 197 -148 330 -250 515 -398 176 -141 201 -161 410 -336 994 -831 1902 -1738 2129 -2129 76 -129 85 -175 55 -278 -38 -132 -155 -191 -327 -164 -134 22 -227 49 -407 121 -105 41 -407 187 -530 256 -36 20 -87 48 -115 63 -27 16 -67 38 -87 50 -75 42 -109 61 -145 82 -21 12 -50 30 -65 40 -14 11 -29 19 -33 19 -3 0 -26 14 -50 30 -24 17 -46 30 -49 30 -4 0 -30 15 -59 33 -28 19 -83 53 -122 77 -169 104 -396 247 -745 470 -147 94 -350 223 -445 283 -44 28 -104 65 -133 84 -29 19 -68 42 -85 52 -18 10 -63 37 -101 61 -65 40 -88 53 -173 101 -21 12 -42 24 -48 29 -11 7 -96 54 -205 112 -82 43 -223 104 -286 123 -106 32 -419 15 -674 -37 -49 -10 -79 -17 -195 -48 -16 -4 -55 -17 -85 -29 -296 -118 -451 -276 -489 -496 -10 -59 -9 -80 4 -130 64 -247 507 -845 1289 -1739 387 -442 924 -1031 1344 -1473 100 -106 182 -195 182 -198 0 -10 -42 16 -145 90 -245 175 -600 422 -920 642 -232 159 -1170 782 -1373 912 -239 153 -409 260 -557 351 -38 24 -94 58 -122 77 -29 18 -55 33 -59 33 -3 0 -25 14 -49 30 -24 17 -46 30 -50 30 -4 0 -26 14 -50 30 -24 17 -46 30 -50 30 -4 0 -26 14 -50 30 -24 17 -46 30 -48 30 -3 0 -35 18 -72 41 -37 22 -83 49 -101 60 -19 10 -51 29 -71 40 -21 12 -63 35 -93 52 -30 16 -59 33 -65 37 -5 4 -44 25 -85 48 -41 22 -104 56 -140 76 -145 81 -584 296 -695 342 -22 9 -56 23 -75 31 -132 57 -261 100 -435 145 -63 16 -348 15 -431 -2 -312 -62 -544 -170 -774 -362 -157 -131 -301 -329 -345 -476 -20 -66 -19 -89 8 -116 20 -19 39 -25 108 -31 46 -3 100 -11 119 -15 19 -5 58 -14 85 -21 59 -14 172 -47 200 -59 11 -4 36 -13 55 -20 19 -7 44 -16 55 -20 11 -4 36 -14 55 -21 19 -7 63 -25 98 -41 34 -15 65 -28 67 -28 29 0 617 -290 880 -434 39 -21 95 -52 125 -69 30 -16 69 -37 85 -47 17 -10 51 -29 78 -44 104 -58 146 -81 237 -134 115 -66 150 -86 192 -111 18 -10 58 -33 88 -51 53 -32 82 -49 152 -88 18 -11 155 -92 303 -182 149 -89 286 -171 305 -182 19 -11 46 -28 60 -38 14 -10 41 -27 60 -38 39 -22 251 -152 380 -232 47 -29 99 -61 117 -71 17 -10 56 -33 85 -52 63 -40 187 -118 281 -175 37 -23 97 -61 135 -84 76 -47 177 -110 302 -188 93 -59 203 -127 323 -202 42 -26 112 -70 155 -96 42 -27 113 -71 157 -99 44 -27 110 -69 148 -91 37 -23 97 -61 135 -84 92 -56 216 -134 279 -175 29 -18 55 -33 59 -33 3 0 24 -13 47 -29 23 -15 87 -55 142 -88 55 -33 138 -84 185 -113 47 -29 99 -61 115 -70 17 -10 129 -77 250 -150 121 -73 235 -141 253 -152 69 -39 99 -56 152 -88 30 -18 70 -41 88 -51 17 -11 47 -27 65 -38 17 -10 56 -32 85 -50 29 -17 55 -31 58 -31 3 0 18 -8 32 -18 15 -11 52 -32 82 -49 30 -17 75 -41 100 -55 25 -14 70 -39 100 -55 30 -17 80 -44 110 -60 169 -93 480 -251 615 -313 39 -18 93 -43 120 -55 144 -67 409 -162 510 -184 28 -6 71 -15 97 -21 120 -26 324 1 483 66 160 64 269 138 400 269 87 88 178 212 222 305 66 136 82 280 40 354 -32 58 -70 75 -184 87 -54 5 -118 15 -143 21 -422 102 -1067 539 -1980 1342 -656 577 -1675 1584 -2512 2481 -252 270 -282 304 -276 310 2 2 69 -39 149 -92 367 -246 1033 -670 1219 -775 19 -11 47 -29 62 -39 14 -11 29 -19 33 -19 3 0 26 -13 50 -30 24 -16 46 -30 49 -30 2 0 41 -22 86 -50 45 -27 83 -50 85 -50 2 0 28 -14 57 -31 29 -18 72 -42 96 -55 23 -13 63 -36 90 -51 171 -96 562 -295 707 -360 148 -66 284 -115 485 -175 57 -16 377 -16 488 1 191 30 256 43 405 82 51 14 154 47 182 59 11 4 47 18 80 31 67 26 211 99 294 148 180 108 354 289 438 456 23 45 54 136 71 208 15 59 16 276 1 331 -17 66 -30 110 -39 131 -46 111 -102 225 -131 267 -11 14 -19 29 -19 32 0 4 -32 55 -72 114 -362 540 -1081 1264 -2090 2105 -64 53 -120 102 -124 108 -6 11 42 5 101 -11 17 -5 55 -13 85 -19 30 -5 80 -14 110 -20 56 -11 142 -22 306 -41 188 -21 488 -12 704 21 242 37 469 122 650 242 81 54 247 215 297 287 106 155 190 370 223 575 17 101 8 410 -13 505 -46 199 -77 305 -127 430 -29 73 -152 322 -190 385 -17 28 -33 57 -37 65 -7 15 -177 270 -235 350 -227 317 -655 766 -1016 1063 -26 22 -48 43 -50 48 -2 4 10 28 25 51 106 158 152 355 122 522 -27 152 -73 271 -168 441 -13 22 -27 44 -32 50 -5 5 -9 15 -9 23 0 15 4 14 85 -8 87 -23 204 -40 283 -40 78 0 134 6 292 31 376 59 786 254 979 464 148 163 133 287 -44 350 -30 10 -213 34 -266 35 -121 1 -449 186 -894 503 -510 365 -1059 799 -1780 1408 -816 690 -1699 1526 -1980 1874 -89 111 -155 212 -155 237 0 17 5 16 43 -11 397 -284 739 -517 1037 -705 69 -43 155 -98 192 -122 37 -24 70 -44 73 -44 4 0 33 -18 65 -40 32 -22 62 -40 65 -40 4 0 19 -8 33 -19 15 -10 44 -28 65 -40 67 -38 101 -58 157 -91 30 -18 74 -43 98 -56 23 -13 61 -35 85 -48 23 -13 60 -34 82 -46 59 -34 553 -282 605 -304 25 -11 68 -29 95 -42 126 -57 326 -130 445 -164 25 -7 56 -16 70 -20 24 -8 50 -14 175 -42 77 -17 496 -16 615 1 159 23 215 33 338 62 432 102 758 331 857 604 21 60 25 87 25 189 0 66 -4 133 -9 150 -34 112 -54 176 -68 206 -38 87 -70 150 -105 209 -21 34 -38 65 -38 67 0 9 -144 219 -194 284 -201 261 -400 482 -718 796 -128 126 -268 262 -310 301 -43 39 -78 74 -78 77 0 3 38 6 83 6 126 0 306 31 452 78 365 117 718 409 878 727 84 167 107 247 107 377 0 87 -2 96 -41 177 -23 47 -64 118 -90 158 -213 315 -720 842 -1409 1464 -80 72 -265 235 -279 246 -2 2 -2 6 2 9 3 4 37 -6 74 -21 235 -94 478 -154 625 -155 133 0 247 40 470 164 154 86 420 324 504 451 108 163 144 266 144 416 0 176 -51 325 -194 565 -282 474 -937 1148 -1896 1950 -143 120 -577 469 -713 574 -32 25 -93 72 -135 104 -104 81 -618 466 -662 496 -19 13 -37 27 -40 30 -3 3 -58 44 -123 90 -498 356 -536 378 -657 385 -36 2 -75 1 -88 -1z" fill="#ffffff" id="ffffff-000001" mask="url(#mask-0)"/>
    <path stroke="none" d="M20200 79428 c-280 -39 -430 -113 -511 -255 -25 -43 -32 -69 -36 -132 -9 -130 -29 -121 288 -121 324 0 429 -12 617 -71 281 -88 486 -267 622 -544 113 -231 169 -451 210 -830 13 -123 13 -591 1 -666 -5 -30 -15 -85 -21 -124 -11 -66 -16 -88 -42 -190 -65 -260 -216 -625 -357 -863 -17 -29 -31 -54 -31 -56 0 -9 -91 -154 -196 -313 -317 -478 -713 -942 -1285 -1508 -404 -399 -974 -907 -1375 -1225 -17 -14 -98 -79 -180 -145 -134 -108 -254 -202 -484 -380 -235 -181 -741 -555 -1015 -750 -219 -155 -272 -193 -405 -285 -74 -51 -180 -125 -235 -164 -134 -95 -1425 -953 -1717 -1141 -128 -82 -400 -261 -605 -398 -206 -136 -379 -248 -386 -250 -8 -1 -14 20 -18 63 -20 192 -76 553 -118 760 -5 25 -14 72 -21 105 -7 33 -16 78 -20 100 -5 22 -12 54 -15 70 -3 17 -10 46 -15 65 -5 19 -23 94 -40 165 -17 72 -35 141 -40 155 -4 14 -13 45 -20 70 -7 25 -16 56 -20 70 -4 14 -13 45 -20 70 -37 129 -160 488 -202 590 -6 14 -14 34 -18 45 -5 11 -17 41 -29 67 -12 26 -21 50 -21 52 0 2 -15 37 -34 78 -19 40 -46 99 -60 131 -14 31 -37 82 -51 112 -14 30 -36 80 -50 110 -14 30 -36 79 -49 108 -13 28 -34 75 -46 102 -131 294 -325 638 -541 961 -608 910 -1346 1566 -2084 1853 -60 24 -119 47 -130 51 -29 12 -74 26 -125 40 -25 7 -56 16 -70 20 -38 12 -171 42 -260 59 -165 30 -239 35 -500 35 -168 0 -304 -5 -350 -13 -200 -33 -219 -36 -325 -61 -75 -18 -209 -59 -260 -79 -329 -132 -540 -263 -799 -496 -148 -133 -360 -393 -472 -577 -27 -45 -61 -102 -77 -127 -30 -50 -197 -385 -197 -395 0 -3 -9 -28 -21 -54 -56 -126 -144 -376 -189 -532 -7 -25 -16 -56 -20 -70 -8 -27 -24 -85 -40 -150 -5 -22 -14 -57 -19 -77 -11 -44 -29 -120 -41 -178 -13 -63 -45 -235 -59 -320 -46 -278 -78 -574 -98 -890 -13 -194 -9 -952 5 -1155 28 -403 64 -717 123 -1082 29 -180 53 -314 79 -443 4 -22 13 -67 20 -100 23 -117 28 -141 40 -195 7 -30 16 -71 21 -90 4 -19 13 -57 19 -85 7 -27 16 -66 21 -85 4 -19 13 -55 19 -80 23 -94 54 -214 80 -305 4 -16 15 -57 24 -90 9 -33 20 -71 25 -85 5 -14 14 -43 20 -65 16 -60 50 -170 80 -265 16 -47 38 -116 50 -155 12 -38 26 -79 31 -90 5 -11 20 -54 34 -95 13 -41 32 -95 41 -120 9 -25 30 -81 47 -125 16 -44 34 -90 39 -102 5 -13 13 -33 18 -45 5 -13 17 -43 26 -68 17 -46 27 -71 64 -152 11 -26 21 -50 21 -53 0 -2 11 -28 24 -57 13 -29 38 -87 56 -128 125 -288 346 -716 500 -970 389 -640 764 -1092 1225 -1475 116 -97 278 -209 450 -311 39 -23 284 -145 335 -166 58 -25 165 -64 215 -79 22 -6 51 -16 65 -21 14 -5 100 -90 190 -190 151 -167 490 -537 1070 -1168 241 -263 743 -820 1005 -1115 217 -245 489 -556 681 -780 159 -186 250 -293 434 -515 85 -102 184 -221 221 -265 59 -72 534 -666 643 -805 90 -116 428 -563 536 -710 80 -109 112 -154 153 -216 83 -126 213 -203 345 -206 72 -2 82 0 157 39 44 22 140 77 214 122 73 45 135 81 137 81 2 0 25 13 52 29 54 31 183 102 277 150 79 41 157 138 183 227 28 96 4 393 -49 614 -56 236 -93 423 -120 615 -42 302 -83 682 -119 1110 -5 61 -12 143 -16 184 -4 43 -3 72 2 70 5 -3 50 -25 99 -50 100 -50 300 -131 373 -150 17 -5 47 -13 65 -18 73 -21 145 -39 202 -50 33 -7 78 -16 100 -21 169 -36 372 -53 620 -54 l240 -1 95 33 c393 135 681 378 769 651 6 19 11 79 11 133 0 94 -2 102 -30 144 l-31 44 -163 0 c-171 0 -333 19 -501 60 -84 20 -121 29 -157 39 -21 6 -53 15 -70 20 -142 38 -602 210 -783 291 -45 20 -120 53 -182 81 -163 72 -292 133 -540 256 -105 52 -197 101 -205 110 -10 12 -14 108 -20 427 -7 479 -20 618 -77 819 -6 20 -15 52 -20 70 -26 95 -107 266 -174 366 -61 90 -189 226 -274 289 -53 40 -192 117 -258 142 -124 49 -243 70 -388 70 -133 0 -175 -10 -196 -47 -20 -37 40 -105 131 -148 32 -15 74 -45 93 -66 106 -118 211 -460 274 -896 6 -40 15 -103 21 -140 11 -73 13 -95 30 -277 6 -65 12 -123 13 -130 1 -6 -4 -10 -11 -8 -12 2 -337 187 -567 322 -49 29 -103 60 -120 70 -93 53 -547 327 -582 351 -23 16 -44 29 -47 29 -4 0 -30 15 -59 33 -28 19 -89 57 -134 85 -106 66 -222 139 -320 200 -43 27 -136 86 -208 132 -71 45 -147 93 -167 106 l-38 24 61 73 c235 276 366 596 385 937 7 134 -2 170 -42 170 -60 0 -212 -137 -339 -306 -150 -198 -356 -318 -661 -384 -103 -23 -144 -17 -210 27 -32 22 -88 58 -124 80 -36 22 -103 64 -150 93 -182 113 -219 135 -330 203 -110 67 -132 80 -217 128 -21 12 -42 25 -48 29 -23 18 -285 148 -335 167 -160 59 -197 59 -300 0 -73 -41 -179 -118 -267 -193 l-42 -36 -78 47 c-170 101 -450 311 -693 519 -141 121 -571 551 -704 705 -135 156 -312 376 -442 551 -172 231 -446 652 -570 878 -13 23 -36 63 -50 90 -75 134 -214 405 -273 535 -17 37 -45 96 -61 132 -17 36 -30 68 -30 70 0 2 -11 28 -24 57 -91 199 -274 708 -336 933 -17 62 -52 191 -60 225 -53 209 -73 301 -101 455 -62 343 -81 499 -100 830 -12 217 -6 628 11 760 30 224 54 367 80 475 5 19 14 58 20 85 7 28 15 61 20 75 4 14 13 45 20 70 26 90 69 217 100 295 33 82 93 218 110 250 9 17 36 66 60 110 133 247 343 491 552 643 232 169 471 257 790 292 122 13 184 13 306 0 247 -27 349 -49 582 -124 147 -48 240 -85 415 -167 164 -76 462 -261 645 -398 466 -351 920 -840 1242 -1341 103 -160 129 -201 149 -236 10 -19 29 -51 41 -71 67 -118 98 -177 186 -353 53 -108 106 -216 116 -240 11 -25 31 -72 46 -105 15 -33 46 -109 69 -170 24 -60 47 -119 51 -130 34 -83 145 -416 172 -515 5 -19 13 -48 18 -65 18 -63 97 -383 109 -440 7 -33 16 -76 21 -95 22 -93 27 -130 16 -130 -6 0 -40 23 -76 51 -278 218 -783 572 -1052 737 -38 23 -98 60 -134 83 -37 22 -82 49 -100 60 -19 10 -51 29 -71 41 -114 65 -174 96 -328 172 -188 92 -219 107 -285 131 -25 9 -54 21 -65 25 -96 40 -260 82 -395 100 -172 23 -365 -31 -543 -152 -124 -84 -300 -278 -381 -418 -124 -214 -203 -458 -194 -595 8 -114 53 -165 146 -165 74 0 262 -76 423 -171 41 -24 81 -47 89 -50 25 -11 439 -290 540 -364 140 -103 479 -358 605 -455 160 -123 574 -447 820 -643 85 -67 242 -192 350 -277 109 -85 243 -191 299 -236 55 -44 130 -103 166 -130 36 -28 157 -123 270 -211 303 -236 905 -691 1010 -763 19 -13 37 -27 40 -30 3 -3 84 -61 180 -130 96 -68 204 -145 240 -170 142 -103 692 -465 805 -530 17 -10 67 -40 113 -69 46 -28 86 -51 89 -51 3 0 17 -8 31 -18 73 -51 430 -237 592 -310 25 -11 65 -29 90 -40 193 -87 408 -156 628 -201 68 -14 619 -15 750 -1 303 32 319 34 462 61 131 25 187 39 315 81 307 101 487 250 554 457 16 49 14 182 -3 222 -17 40 -77 100 -123 123 -131 66 -308 88 -659 84 -271 -3 -261 -4 -394 45 -79 29 -247 110 -348 169 -48 28 -100 58 -117 68 -130 75 -330 209 -625 420 -321 229 -1021 780 -1460 1150 -30 25 -127 107 -215 180 -88 74 -286 243 -440 375 -155 132 -293 250 -308 262 -36 28 -34 46 6 66 17 9 61 33 97 52 36 20 94 53 130 72 36 20 88 48 115 63 28 15 80 44 118 64 37 20 96 52 132 71 36 19 94 51 130 70 36 19 95 51 133 71 65 35 133 72 217 119 22 12 81 43 130 70 88 47 123 66 215 117 25 14 70 39 100 55 123 67 177 97 215 118 22 12 61 34 87 49 27 14 69 38 95 52 27 15 67 37 91 50 23 13 63 36 90 50 26 15 67 38 92 52 25 14 74 42 110 62 36 20 85 48 110 62 25 14 62 35 83 47 20 11 53 30 72 41 19 11 51 29 70 40 19 11 51 29 70 40 19 11 51 29 70 40 78 45 291 168 430 250 50 29 104 60 120 70 17 9 174 104 350 210 176 105 336 201 355 212 19 11 46 28 60 38 14 9 77 49 140 87 134 81 226 138 405 253 72 46 166 106 210 133 135 84 890 588 1070 714 408 286 487 343 800 578 796 596 1356 1075 1911 1637 341 345 550 583 777 886 102 136 279 398 342 507 16 28 37 64 47 80 55 93 200 395 235 490 8 22 19 49 24 60 42 98 103 331 141 540 17 90 17 582 0 678 -6 37 -16 100 -23 140 -46 304 -178 674 -329 922 -22 37 -40 69 -40 72 0 8 -82 127 -154 222 -143 190 -333 384 -536 546 -94 75 -322 235 -335 235 -4 0 -19 8 -33 19 -59 41 -327 181 -412 215 -25 10 -61 24 -80 33 -194 84 -491 171 -690 202 -210 33 -413 40 -560 19z" fill="#ffffff" id="ffffff-000002" mask="url(#mask-0)"/>
    <path stroke="none" d="M13206 56560 c-94 -37 -86 27 -86 -654 0 -486 -3 -616 -15 -681 -24 -130 -49 -214 -100 -330 -8 -16 -23 -54 -35 -84 -11 -30 -29 -73 -40 -95 -73 -161 -163 -433 -193 -586 -2 -14 -11 -59 -20 -100 -15 -72 -23 -132 -47 -321 -13 -106 -13 -378 -1 -467 6 -37 15 -105 21 -152 6 -47 15 -96 20 -110 4 -14 13 -50 20 -80 14 -63 74 -249 97 -300 198 -443 463 -754 823 -966 128 -75 294 -151 385 -174 17 -5 55 -15 85 -23 275 -72 578 -78 860 -17 402 86 784 354 1039 730 43 63 86 130 95 148 10 18 24 32 35 32 10 0 51 -17 92 -37 59 -29 100 -63 207 -167 209 -204 338 -354 501 -583 40 -56 97 -125 127 -153 54 -49 57 -50 117 -50 280 0 596 201 801 510 64 97 146 255 146 283 0 9 4 18 8 21 5 3 15 30 22 61 14 60 54 105 91 105 64 0 113 -42 424 -359 519 -530 668 -677 716 -704 184 -107 450 -126 734 -52 308 80 627 329 815 635 78 127 158 301 201 435 194 602 194 1366 0 2079 -22 80 -85 275 -100 311 -5 11 -15 36 -22 55 -7 19 -25 63 -41 98 -15 34 -28 65 -28 68 0 7 -109 224 -137 274 -150 261 -274 429 -463 624 -320 330 -649 525 -1055 624 -101 25 -323 52 -425 52 -158 0 -392 -37 -535 -85 -48 -16 -67 -24 -152 -62 -75 -33 -205 -126 -276 -196 -118 -116 -199 -239 -280 -427 -36 -82 -75 -214 -101 -345 -17 -83 -31 -187 -47 -345 -12 -123 -7 -732 10 -1190 22 -574 24 -721 12 -823 -24 -213 -46 -295 -115 -436 -68 -140 -184 -242 -316 -278 -166 -45 -383 39 -552 214 -52 53 -177 218 -199 261 -7 15 -21 38 -30 52 -13 20 -15 37 -8 90 24 189 29 286 29 497 0 217 -4 280 -31 458 -13 87 -38 205 -60 280 -16 57 -50 160 -61 185 -6 14 -14 34 -19 45 -17 42 -100 212 -124 254 -85 144 -227 314 -353 424 -305 264 -660 416 -1112 477 -75 10 -705 9 -870 -2 l-45 -3 -3 478 -2 477 -38 38 c-76 76 -279 108 -396 62z" fill="#ffffff" id="ffffff-000003" mask="url(#mask-1)"/>
    <path stroke="none" d="M17619 50519 c-35 -20 -36 -23 -48 -112 -45 -337 -70 -434 -130 -513 -20 -26 -59 -60 -89 -77 -88 -49 -156 -62 -422 -82 -166 -12 -465 -14 -1556 -15 -783 0 -1373 -4 -1405 -9 -30 -5 -85 -15 -124 -21 -38 -7 -95 -19 -125 -27 -30 -8 -68 -18 -85 -23 -63 -16 -133 -44 -221 -86 -341 -162 -588 -453 -684 -804 -7 -25 -16 -56 -20 -70 -8 -24 -17 -80 -40 -237 -13 -92 -13 -333 0 -426 41 -285 77 -428 173 -677 52 -135 201 -447 273 -570 15 -25 35 -58 44 -75 9 -16 48 -81 85 -144 l68 -114 -14 -40 c-8 -22 -27 -50 -42 -61 -28 -20 -38 -21 -301 -18 -149 1 -296 6 -325 11 -45 7 -56 5 -84 -13 -32 -21 -66 -76 -67 -107 0 -9 27 -57 60 -107 33 -51 60 -93 60 -95 0 -2 26 -50 58 -108 58 -105 154 -295 212 -424 112 -245 121 -265 186 -428 66 -167 78 -180 169 -181 76 -1 102 18 177 128 124 182 202 270 271 304 132 64 74 62 1732 62 973 0 1539 -4 1610 -10 191 -19 278 -41 357 -91 100 -64 142 -169 179 -439 28 -207 32 -223 67 -243 40 -24 175 -26 218 -4 60 31 66 45 61 154 -40 905 -40 1321 0 2182 4 86 3 95 -18 117 -51 54 -174 68 -254 28 -43 -21 -46 -30 -75 -214 -49 -317 -115 -422 -296 -477 -159 -48 -158 -48 -1669 -48 -1318 0 -1426 1 -1497 18 -102 23 -154 41 -224 78 -187 98 -323 244 -426 459 -79 165 -114 282 -148 491 -12 81 -13 370 -1 436 5 26 15 80 21 118 59 328 256 592 542 724 160 75 285 107 503 130 133 15 2395 15 2589 1 267 -20 347 -40 443 -109 80 -58 123 -167 162 -411 33 -206 33 -205 68 -228 26 -18 48 -22 107 -22 78 0 130 16 159 48 16 17 18 34 14 119 -34 785 -39 1232 -17 1763 7 179 15 374 17 434 5 121 -1 135 -66 162 -52 22 -168 18 -212 -7z" fill="#ffffff" id="ffffff-000004" mask="url(#mask-2)"/>
    <path stroke="none" d="M17634 43825 c-44 -19 -50 -31 -63 -120 -7 -44 -17 -109 -22 -145 -53 -352 -116 -440 -354 -489 -149 -31 -216 -33 -1470 -38 -1459 -5 -2353 7 -3025 42 -165 9 -181 5 -205 -52 -20 -47 -19 -69 4 -101 18 -27 32 -51 98 -167 57 -102 246 -488 313 -640 12 -27 33 -74 46 -103 13 -29 24 -55 24 -57 0 -2 13 -33 28 -67 30 -65 61 -145 83 -211 23 -65 50 -82 132 -82 40 0 82 6 94 13 12 7 63 73 113 146 135 201 222 276 353 309 61 16 3139 22 3267 7 377 -44 445 -115 501 -530 25 -191 32 -213 68 -237 63 -43 225 -23 271 32 8 10 10 48 7 117 -33 699 -38 1237 -17 1773 7 182 15 380 17 442 l4 112 -27 18 c-66 43 -176 56 -240 28z" fill="#ffffff" id="ffffff-000005" mask="url(#mask-2)"/>
    <path stroke="none" d="M10400 43128 c-139 -40 -218 -85 -311 -177 -144 -145 -205 -331 -175 -541 26 -178 74 -279 191 -396 103 -103 166 -138 323 -180 59 -16 262 -19 308 -5 16 5 49 15 74 22 298 88 478 417 416 759 -51 280 -200 446 -464 516 -62 16 -307 18 -362 2z" fill="#ffffff" id="ffffff-000006" mask="url(#mask-2)"/>
    <path stroke="none" d="M14975 40389 c-456 -35 -831 -150 -1199 -368 -139 -82 -288 -201 -432 -345 -192 -192 -328 -382 -436 -606 -32 -66 -45 -97 -78 -175 -12 -27 -64 -190 -79 -245 -96 -350 -117 -731 -60 -1090 53 -336 176 -685 354 -1008 40 -72 41 -83 19 -117 -22 -34 -64 -51 -154 -65 -92 -14 -2854 -7 -3275 9 -393 14 -693 29 -751 37 -39 5 -57 3 -77 -10 -27 -19 -57 -72 -57 -104 0 -11 27 -76 60 -146 33 -69 70 -150 81 -178 11 -29 27 -69 36 -88 26 -59 80 -198 94 -240 4 -14 35 -104 69 -200 33 -96 85 -247 115 -335 85 -253 80 -245 167 -264 71 -16 156 11 179 58 7 14 26 45 41 68 15 23 28 44 28 48 0 17 125 187 171 234 63 63 162 112 259 129 189 33 319 34 3905 28 1964 -3 3640 -9 3725 -13 172 -9 186 -6 220 50 38 62 29 90 -59 176 -138 134 -150 197 -81 405 23 67 45 130 50 141 11 24 79 227 90 270 77 289 98 401 131 680 13 114 6 633 -10 755 -57 433 -185 832 -363 1129 -21 34 -38 65 -38 67 0 3 -32 53 -72 112 -290 434 -737 796 -1217 986 -324 128 -604 189 -992 216 -163 11 -203 11 -364 -1z" fill="#ffffff" id="ffffff-000007" mask="url(#mask-2)"/>
    <path stroke="none" d="M17668 34221 c-20 -4 -47 -15 -60 -23 -25 -16 -26 -22 -59 -283 -39 -306 -102 -414 -274 -472 -172 -58 -306 -63 -1834 -63 -1481 0 -1446 1 -1711 -59 -132 -31 -351 -128 -476 -211 -100 -67 -276 -242 -341 -340 -134 -200 -194 -371 -243 -691 -13 -85 -13 -330 0 -422 24 -165 43 -272 60 -327 4 -14 13 -45 20 -70 45 -157 88 -273 165 -445 58 -127 67 -145 113 -230 99 -180 135 -239 261 -429 49 -74 98 -160 110 -191 24 -63 27 -124 9 -147 -7 -8 -59 -50 -115 -91 -352 -264 -542 -550 -602 -907 -25 -154 -31 -217 -31 -350 0 -132 5 -185 31 -350 60 -381 257 -825 574 -1294 50 -75 52 -96 16 -146 -43 -60 -95 -64 -516 -41 -225 12 -232 11 -267 -60 -25 -50 -23 -63 30 -142 106 -159 287 -509 412 -797 18 -41 38 -88 46 -105 8 -16 40 -95 72 -175 53 -132 61 -147 93 -162 73 -36 159 -15 206 50 15 22 57 81 93 132 146 210 221 262 413 289 54 8 524 11 1535 11 1212 0 1483 -3 1612 -15 155 -15 227 -26 265 -40 179 -65 235 -163 275 -490 31 -251 33 -258 69 -279 42 -24 172 -26 217 -3 62 32 66 44 61 169 -40 945 -40 1316 0 2199 l5 107 -34 25 c-47 36 -144 55 -199 38 -87 -26 -84 -20 -120 -236 -30 -178 -42 -222 -81 -303 -43 -88 -118 -148 -218 -174 -186 -48 -487 -58 -1753 -58 -1356 0 -1418 4 -1632 113 -253 128 -494 490 -554 832 -7 39 -17 89 -22 112 -12 58 -11 369 2 435 5 29 15 76 20 103 22 112 39 164 91 270 141 293 424 480 823 543 182 29 313 32 1413 32 1242 0 1486 -8 1617 -52 186 -63 240 -150 294 -473 37 -221 39 -224 130 -244 57 -12 148 6 190 37 25 19 26 22 25 128 0 60 -7 246 -14 414 -7 168 -13 465 -13 660 0 307 6 516 30 1098 5 123 3 131 -51 160 -22 11 -57 16 -116 17 -72 0 -90 -3 -115 -22 -27 -19 -32 -30 -43 -100 -7 -43 -17 -103 -22 -134 -6 -30 -10 -68 -10 -83 0 -16 -5 -47 -11 -70 -47 -179 -88 -249 -177 -299 -88 -49 -156 -63 -422 -82 -296 -21 -2506 -22 -2720 0 -210 20 -290 45 -414 128 -239 161 -416 449 -485 792 -26 129 -31 179 -31 323 0 512 185 857 555 1032 91 43 122 55 185 72 272 74 350 78 1590 78 1280 0 1504 -8 1665 -63 123 -42 177 -97 223 -234 19 -54 28 -97 52 -243 33 -198 38 -207 123 -230 61 -16 146 0 195 37 l34 25 -5 107 c-22 488 -30 766 -30 1066 0 302 5 513 30 1128 5 129 1 142 -57 172 -33 17 -125 26 -172 16z" fill="#ffffff" id="ffffff-000008" mask="url(#mask-3)"/>
    <path stroke="none" d="M17630 24137 c-49 -24 -48 -19 -79 -247 -33 -232 -63 -323 -135 -398 -34 -36 -113 -79 -173 -93 -171 -42 -153 -41 -1653 -46 -1552 -5 -2344 7 -2918 42 -134 9 -146 5 -178 -57 -21 -41 -17 -60 28 -134 58 -96 114 -202 212 -399 76 -154 98 -201 171 -360 13 -27 44 -99 69 -160 26 -60 51 -120 56 -132 6 -13 15 -34 20 -48 6 -14 14 -35 19 -47 5 -13 15 -40 22 -61 17 -47 43 -72 93 -86 42 -11 117 1 145 23 8 6 50 65 94 131 45 67 113 153 156 196 82 81 130 106 247 128 81 15 3072 16 3212 1 385 -42 453 -111 511 -515 34 -241 31 -230 67 -253 27 -18 48 -22 108 -22 78 0 130 16 160 48 16 18 17 34 13 124 -39 836 -39 1358 0 2197 6 128 -1 144 -74 171 -70 26 -136 25 -193 -3z" fill="#ffffff" id="ffffff-000009" mask="url(#mask-3)"/>
    <path stroke="none" d="M10420 23450 c-14 -4 -50 -15 -80 -24 -131 -40 -282 -159 -347 -276 -111 -198 -114 -450 -8 -660 89 -175 234 -285 450 -340 61 -15 265 -12 332 5 109 28 202 82 283 164 157 160 219 374 176 611 -51 283 -210 455 -479 519 -53 12 -289 14 -327 1z" fill="#ffffff" id="ffffff-000010" mask="url(#mask-3)"/>
    <path stroke="none" d="M17634 20905 c-44 -20 -50 -31 -63 -130 -7 -49 -17 -124 -22 -165 -35 -262 -77 -365 -176 -428 -83 -53 -158 -74 -333 -92 -148 -16 -7394 -8 -7880 8 l-345 12 -28 -28 c-51 -51 -48 -83 27 -236 36 -75 66 -138 66 -141 0 -2 11 -28 24 -57 27 -59 144 -349 156 -388 5 -14 27 -77 50 -140 38 -108 96 -280 151 -449 30 -93 54 -111 151 -111 37 0 79 5 93 12 16 7 46 47 82 107 87 147 132 211 192 274 62 65 110 97 186 122 139 46 8 45 3633 45 2299 0 3437 -3 3485 -10 199 -29 274 -58 344 -131 71 -77 90 -146 145 -548 11 -88 14 -95 43 -112 37 -23 166 -26 216 -5 65 27 71 41 66 162 -2 60 -10 258 -17 439 -17 421 -17 929 0 1355 7 184 14 392 17 461 l5 127 -29 19 c-62 43 -174 56 -239 28z" fill="#ffffff" id="ffffff-000011" mask="url(#mask-3)"/>
    <path stroke="none" d="M16672 17965 c-68 -37 -112 -104 -112 -171 0 -41 2 -44 68 -92 265 -192 432 -383 542 -616 63 -134 88 -210 119 -361 27 -131 31 -183 31 -380 0 -200 -9 -305 -39 -450 -10 -47 -16 -69 -40 -155 -89 -322 -320 -675 -587 -900 -269 -226 -582 -387 -919 -474 -171 -44 -213 -51 -430 -70 -137 -12 -186 -12 -345 0 -219 17 -256 22 -410 55 -82 18 -268 74 -325 99 -157 66 -264 122 -369 192 -350 236 -613 604 -704 988 -6 25 -13 56 -17 70 -45 190 -46 454 -3 625 25 102 32 125 61 200 43 115 101 225 180 345 109 165 190 255 400 447 65 59 87 104 87 177 0 189 -335 335 -620 271 -116 -25 -135 -31 -201 -63 -103 -49 -148 -87 -174 -145 -46 -106 -91 -255 -135 -452 -17 -74 -43 -257 -60 -410 -27 -257 2 -742 61 -1012 46 -214 51 -232 104 -394 109 -336 273 -645 484 -909 184 -230 466 -474 723 -625 83 -49 389 -195 408 -195 6 0 18 -4 28 -10 29 -16 217 -74 322 -100 177 -43 292 -61 523 -81 192 -17 528 2 737 42 166 32 362 84 445 119 11 4 47 18 80 31 33 12 119 52 192 89 600 306 1007 815 1177 1475 36 140 51 220 76 410 13 99 13 522 1 596 -6 30 -15 88 -21 129 -6 41 -15 91 -20 110 -5 19 -14 58 -21 85 -13 59 -21 85 -53 185 -80 247 -201 481 -365 700 -143 192 -416 434 -612 543 -181 101 -215 111 -267 82z" fill="#ffffff" id="ffffff-000012" mask="url(#mask-3)"/>
    <path stroke="none" d="M13458 12500 c-73 -39 -146 -162 -186 -315 -44 -169 -52 -289 -52 -781 0 -253 -3 -463 -6 -467 -4 -3 -18 2 -33 12 -31 21 -212 136 -328 209 -46 29 -118 74 -160 101 -92 58 -254 156 -303 183 -19 11 -47 29 -62 39 -14 11 -28 19 -31 19 -3 0 -35 18 -72 41 -37 22 -83 49 -101 60 -19 10 -51 29 -71 40 -246 140 -454 238 -576 269 -86 23 -160 -14 -278 -136 -88 -93 -148 -180 -217 -316 -78 -153 -102 -228 -102 -320 0 -65 3 -77 23 -96 14 -13 36 -22 55 -22 44 0 122 -22 232 -66 113 -45 538 -258 685 -344 17 -10 51 -29 78 -44 104 -58 146 -81 237 -134 115 -66 150 -86 193 -111 17 -10 57 -33 87 -51 56 -33 90 -53 158 -91 20 -12 48 -29 62 -39 14 -9 30 -19 35 -21 6 -2 111 -64 234 -138 l224 -134 -7 -141 c-6 -133 -12 -276 -36 -886 -13 -337 -21 -460 -32 -460 -4 0 -33 16 -63 35 -30 19 -80 51 -111 70 -30 20 -99 62 -152 94 -53 32 -135 82 -182 111 -47 29 -101 62 -120 73 -19 10 -47 28 -62 38 -14 11 -29 19 -33 19 -4 0 -19 8 -33 19 -25 17 -41 27 -139 82 -21 12 -42 25 -48 29 -5 4 -35 21 -65 37 -30 17 -73 40 -95 53 -65 37 -316 164 -365 183 -25 10 -54 22 -65 27 -51 21 -92 30 -145 30 -45 0 -65 -6 -106 -31 -157 -98 -339 -359 -424 -606 -16 -47 -20 -81 -18 -139 3 -70 5 -79 29 -97 15 -10 49 -21 75 -24 48 -5 139 -31 199 -58 17 -7 50 -21 75 -31 70 -27 520 -257 635 -324 32 -19 96 -54 185 -103 30 -17 67 -38 82 -49 14 -10 29 -18 32 -18 3 0 29 -14 58 -31 52 -31 84 -50 151 -87 17 -11 85 -51 151 -90 65 -40 121 -72 123 -72 2 0 24 -13 48 -30 24 -16 47 -30 50 -30 4 0 19 -8 33 -19 15 -10 43 -28 62 -39 84 -47 176 -106 183 -116 4 -6 5 -24 2 -41 -3 -16 -10 -124 -16 -240 -5 -115 -14 -286 -19 -380 -5 -93 -14 -251 -20 -350 -5 -99 -14 -259 -20 -355 -6 -96 -15 -254 -20 -350 -6 -96 -15 -247 -20 -335 -5 -88 -14 -239 -19 -335 -6 -96 -13 -216 -17 -265 -7 -98 5 -143 45 -165 26 -13 103 -13 138 1 90 37 162 80 240 144 225 186 373 442 422 730 6 34 13 344 16 720 5 656 9 775 26 775 5 0 33 -15 62 -33 49 -32 102 -65 257 -160 158 -97 365 -227 479 -301 l94 -60 -7 -166 c-3 -91 -11 -237 -16 -325 -15 -264 -29 -491 -40 -660 -5 -88 -14 -234 -19 -325 -5 -91 -13 -184 -17 -207 -13 -84 30 -142 106 -143 155 -1 394 177 550 410 58 86 122 210 141 271 52 167 59 221 59 451 0 153 3 218 11 218 6 0 65 -33 132 -72 66 -40 139 -84 161 -97 23 -13 53 -32 68 -42 14 -11 29 -19 33 -19 3 0 26 -14 50 -30 24 -16 46 -30 50 -30 4 0 26 -13 50 -30 24 -16 46 -30 48 -30 2 0 58 -32 123 -72 66 -39 134 -79 152 -90 17 -10 49 -28 70 -39 20 -12 57 -33 82 -47 25 -13 70 -39 100 -56 88 -51 269 -142 339 -170 157 -64 404 -2 601 149 190 146 350 407 350 571 0 37 -5 66 -13 72 -7 6 -41 13 -77 17 -68 6 -158 22 -200 35 -14 4 -45 13 -70 20 -78 21 -268 92 -375 140 -33 15 -80 35 -105 46 -118 50 -623 308 -763 390 -32 19 -60 34 -62 34 -2 0 -30 15 -62 34 -32 18 -78 45 -103 58 -81 45 -283 163 -354 206 -37 23 -70 42 -73 42 -2 0 -23 13 -46 28 -23 15 -55 34 -71 42 l-29 15 6 479 c4 264 7 613 7 777 0 243 2 298 14 302 7 3 36 -10 64 -29 28 -19 54 -34 57 -34 3 0 33 -18 65 -40 32 -22 62 -40 65 -40 4 0 26 -13 50 -30 24 -16 46 -30 50 -30 4 0 26 -13 50 -30 24 -16 46 -30 49 -30 2 0 41 -22 86 -50 45 -27 83 -50 85 -50 1 0 62 -36 135 -80 73 -44 134 -80 136 -80 2 0 27 -14 56 -31 29 -18 76 -44 103 -60 28 -15 79 -43 115 -63 101 -56 240 -122 295 -141 39 -13 69 -15 135 -10 47 3 96 10 110 14 14 5 45 15 70 22 63 18 184 83 251 134 186 144 348 409 349 571 0 70 -10 84 -61 84 -122 0 -444 97 -694 210 -22 10 -62 28 -90 40 -72 32 -436 212 -530 263 -101 54 -229 124 -275 150 -19 11 -55 31 -80 45 -119 66 -334 190 -410 236 -47 29 -92 55 -100 59 -8 3 -46 26 -85 49 l-70 43 -7 260 c-4 143 -12 456 -18 695 -28 1071 -77 1680 -157 1929 -32 102 -69 134 -124 106 -48 -24 -67 -43 -103 -100 -38 -59 -69 -136 -91 -220 -36 -139 -43 -257 -49 -735 -10 -756 -32 -1560 -43 -1560 -10 0 -75 38 -163 95 -52 34 -131 85 -175 112 -44 28 -132 83 -195 123 -63 40 -149 94 -190 120 -171 107 -244 153 -320 201 -44 28 -80 52 -81 53 -1 0 -5 105 -10 231 -20 551 -60 1109 -94 1305 -3 19 -11 62 -16 95 -26 151 -59 246 -97 275 -30 24 -28 24 -74 0z" fill="#ffffff" id="ffffff-000013" mask="url(#mask-3)"/>
  </g>
</svg>
