<svg xmlns="http://www.w3.org/2000/svg" version="1.0" width="448.000000pt" height="300.000000pt" viewBox="0 0 448.000000 300.000000" preserveAspectRatio="xMidYMid meet">
  <g transform="translate(0.000000,300.000000) scale(0.100000,-0.100000)" stroke="none">
    <path d="M 0 0 H 4480.0 V 3000.0 H 0 Z" fill="#ffffff" id="background"/>
    <path stroke="none" d="M782 1914 c-165 -61 -257 -135 -313 -250 -31 -63 -34 -77 -34 -159 1 -93 10 -122 58 -187 25 -34 82 -73 122 -82 129 -30 166 -31 1700 -26 1680 6 1563 2 1638 60 41 33 89 107 85 133 -4 19 -6 18 -20 -13 -21 -49 -74 -98 -134 -126 l-50 -24 -1530 0 c-1725 0 -1585 -7 -1672 79 -73 70 -95 124 -91 219 7 143 95 270 231 332 73 34 177 50 232 36 25 -6 76 -77 76 -106 0 -18 30 -39 56 -40 22 0 54 29 54 49 0 29 -45 72 -104 101 -57 27 -73 30 -152 29 -67 -1 -104 -7 -152 -25z" fill="#000000" id="000000-000001"/>
    <path stroke="none" d="M2925 1850 c-4 -7 75 -10 232 -9 154 1 222 4 193 10 -67 11 -418 11 -425 -1z" fill="#000000" id="000000-000002"/>
    <path stroke="none" d="M2630 1830 c-18 -6 -8 -8 40 -9 36 0 72 4 80 9 19 12 -82 12 -120 0z" fill="#000000" id="000000-000003"/>
    <path stroke="none" d="M3430 1830 c14 -4 48 -8 75 -8 43 0 46 1 20 8 -16 4 -50 8 -75 8 -37 0 -40 -2 -20 -8z" fill="#000000" id="000000-000004"/>
    <path stroke="none" d="M2490 1810 c-19 -12 52 -12 90 0 20 6 15 8 -25 9 -27 0 -57 -4 -65 -9z" fill="#000000" id="000000-000005"/>
    <path stroke="none" d="M3575 1810 c3 -5 17 -10 31 -10 14 0 22 4 19 10 -3 6 -17 10 -31 10 -14 0 -22 -4 -19 -10z" fill="#000000" id="000000-000006"/>
    <path stroke="none" d="M2350 1790 c-11 -7 -2 -10 32 -10 26 0 50 5 53 10 8 13 -65 13 -85 0z" fill="#000000" id="000000-000007"/>
    <path stroke="none" d="M3655 1790 c3 -5 17 -10 31 -10 14 0 22 4 19 10 -3 6 -17 10 -31 10 -14 0 -22 -4 -19 -10z" fill="#000000" id="000000-000008"/>
    <path stroke="none" d="M2200 1770 c-19 -12 66 -12 95 0 15 6 7 9 -30 9 -27 0 -57 -4 -65 -9z" fill="#000000" id="000000-000009"/>
    <path stroke="none" d="M3725 1770 c3 -5 15 -10 26 -10 11 0 17 5 14 10 -3 6 -15 10 -26 10 -11 0 -17 -4 -14 -10z" fill="#000000" id="000000-000010"/>
    <path stroke="none" d="M2105 1750 c-4 -6 6 -10 24 -10 16 0 33 5 36 10 4 6 -6 10 -24 10 -16 0 -33 -4 -36 -10z" fill="#000000" id="000000-000013"/>
    <path stroke="none" d="M3780 1750 c8 -5 22 -10 30 -10 13 0 13 1 0 10 -8 5 -22 10 -30 10 -13 0 -13 -1 0 -10z" fill="#000000" id="000000-000014"/>
    <path stroke="none" d="M1885 1742 c3 -3 1 -10 -4 -16 -5 -6 -7 -23 -4 -37 4 -21 11 -26 39 -27 22 -1 37 4 40 13 6 15 59 45 80 45 7 0 16 5 19 11 5 7 -7 8 -40 3 -29 -4 -46 -3 -42 3 3 5 -15 9 -44 10 -27 0 -47 -2 -44 -5z" fill="#000000" id="000000-000012"/>
    <path stroke="none" d="M3835 1730 c3 -5 11 -10 16 -10 6 0 7 5 4 10 -3 6 -11 10 -16 10 -6 0 -7 -4 -4 -10z" fill="#000000" id="000000-000015"/>
    <path stroke="none" d="M3860 1716 c0 -7 82 -57 87 -53 6 7 -61 57 -75 57 -7 0 -12 -2 -12 -4z" fill="#000000" id="000000-000019"/>
    <path stroke="none" d="M1783 1664 c-17 -22 -43 -46 -57 -54 -31 -16 -34 -30 -5 -30 19 0 21 -4 16 -37 -22 -147 -28 -254 -17 -268 10 -12 40 -14 158 -12 l146 2 -3 47 c-3 58 16 162 40 210 24 48 71 80 119 82 46 1 76 -23 84 -67 7 -38 -20 -227 -34 -241 -22 -22 -9 -33 38 -32 36 2 46 5 43 17 -6 19 -6 44 4 174 8 109 7 111 -18 140 -24 28 -30 30 -95 30 -63 0 -72 -3 -106 -33 -41 -36 -56 -35 -48 3 5 28 -14 33 -48 15 -15 -8 -18 -17 -13 -40 3 -17 -2 -74 -12 -128 -23 -132 -23 -135 -35 -152 -8 -13 -11 -13 -24 0 -12 13 -11 34 7 161 11 81 17 154 14 163 -5 14 -9 14 -34 1 -62 -33 -117 -11 -92 36 5 11 9 27 7 37 -2 12 -11 6 -35 -24z" fill="#000000" id="000000-000017"/>
    <path stroke="none" d="M1876 1565 c8 -19 -34 -255 -48 -272 -16 -20 -44 -15 -55 10 -10 23 -2 120 18 225 10 51 11 52 45 52 21 0 37 -6 40 -15z" fill="#ffffff" id="ffffff-000003"/>
    <path stroke="none" d="M3535 1619 c-22 -11 -50 -32 -63 -47 -18 -21 -24 -24 -29 -12 -4 8 -19 28 -35 44 -26 26 -34 28 -84 24 -44 -4 -61 -11 -87 -36 -39 -38 -51 -40 -43 -8 8 32 -8 41 -45 26 -31 -13 -35 -20 -19 -36 14 -14 -25 -263 -44 -283 -14 -13 -16 -13 -22 4 -7 18 9 174 28 258 21 95 -36 91 -59 -4 -17 -71 -33 -128 -45 -162 -8 -22 -7 -31 6 -46 9 -9 16 -30 16 -44 0 -21 5 -27 23 -28 12 -1 47 -3 78 -4 l55 -3 -4 52 c-2 32 4 80 18 131 17 65 29 88 60 120 31 31 47 39 75 39 54 0 70 -23 69 -97 -1 -73 -22 -196 -37 -215 -15 -19 5 -29 46 -24 31 3 33 6 29 37 -5 41 22 175 44 218 33 63 100 100 143 78 35 -19 44 -70 31 -178 -7 -54 -18 -110 -26 -125 -8 -16 -13 -28 -12 -29 2 0 21 -2 44 -4 l41 -3 0 52 c0 28 5 89 11 136 8 67 7 91 -3 117 -25 60 -96 83 -160 52z" fill="#000000" id="000000-000029"/>
    <path stroke="none" d="M1045 1615 c-52 -18 -118 -91 -134 -148 -29 -101 43 -207 139 -207 18 0 29 4 25 10 -3 6 -16 10 -29 10 -12 0 -33 12 -47 26 -21 22 -24 35 -24 97 1 135 65 213 169 204 72 -6 96 -37 96 -123 0 -36 -7 -81 -16 -102 -20 -49 -72 -102 -100 -102 -13 0 -26 -4 -29 -10 -12 -19 60 -10 100 13 22 12 55 44 73 71 28 43 32 56 32 117 0 67 -1 70 -38 107 -53 53 -132 67 -217 37z" fill="#ffffff" id="ffffff-000002"/>
    <path stroke="none" d="M1476 1615 c-16 -9 -37 -24 -46 -35 -24 -27 -30 -25 -30 10 0 33 -11 37 -55 20 -22 -9 -25 -13 -15 -25 18 -22 -7 -232 -35 -285 -9 -16 -14 -30 -13 -31 25 -5 83 -7 90 -3 4 3 3 14 -3 25 -7 14 -7 37 1 77 26 133 35 157 73 194 34 35 42 38 92 38 53 0 56 -1 72 -35 15 -31 15 -45 3 -137 -8 -65 -20 -113 -31 -129 -23 -33 -17 -39 36 -39 48 0 58 6 46 29 -5 9 -2 69 6 138 15 122 15 122 -7 153 -12 17 -33 36 -47 41 -37 14 -104 11 -137 -6z" fill="#000000" id="000000-000021"/>
    <path stroke="none" d="M2381 1611 c-9 -6 -15 -30 -17 -62 -2 -30 -8 -82 -15 -116 -23 -117 15 -173 116 -173 53 0 95 19 124 56 21 26 45 25 34 -1 -7 -21 15 -45 43 -45 21 0 22 3 17 53 -5 45 15 208 33 275 6 21 4 23 -22 20 -26 -3 -29 -8 -41 -63 -28 -128 -56 -198 -95 -237 -44 -44 -84 -50 -129 -17 -36 25 -37 56 -9 189 26 120 26 130 -2 130 -13 0 -29 -4 -37 -9z" fill="#000000" id="000000-000026"/>
    <path stroke="none" d="M2754 1606 c-14 -11 -16 -17 -7 -27 6 -6 10 -17 7 -23 -13 -36 -33 -191 -28 -216 4 -16 18 -41 32 -55 21 -21 34 -25 86 -25 54 0 66 4 99 31 20 17 37 37 37 45 0 20 -2 18 -44 -21 -47 -44 -94 -48 -131 -10 -32 31 -32 34 11 278 6 34 5 37 -18 37 -13 0 -33 -6 -44 -14z" fill="#000000" id="000000-000028"/>
    <path stroke="none" d="M4020 1563 c0 -12 5 -25 10 -28 13 -8 13 15 0 35 -8 12 -10 11 -10 -7z" fill="#000000" id="000000-000037"/>
    <path stroke="none" d="M697 1122 c-9 -10 -17 -26 -17 -36 0 -9 -7 -40 -16 -67 -12 -35 -14 -53 -6 -61 7 -7 14 -4 21 11 15 27 52 27 69 1 16 -27 32 -25 31 3 0 34 -43 160 -55 164 -6 2 -18 -5 -27 -15z" fill="#000000" id="000000-000043"/>
    <path stroke="none" d="M720 1040 c0 -5 -4 -10 -10 -10 -5 0 -10 5 -10 10 0 6 5 10 10 10 6 0 10 -4 10 -10z" fill="#ffffff" id="ffffff-000005"/>
    <path stroke="none" d="M1592 1120 c-31 -29 -28 -47 14 -85 38 -35 38 -61 -1 -51 -27 7 -39 -3 -24 -21 27 -32 99 -1 99 43 0 16 -11 36 -30 52 -37 32 -38 42 -4 42 19 0 25 5 22 18 -5 25 -49 27 -76 2z" fill="#000000" id="000000-000044"/>
    <path stroke="none" d="M2919 1113 c-21 -54 -39 -118 -39 -140 0 -28 16 -30 32 -3 17 26 42 25 61 -2 12 -18 18 -20 27 -11 10 9 7 27 -10 85 -32 104 -51 123 -71 71z" fill="#000000" id="000000-000045"/>
    <path stroke="none" d="M3075 1108 c-10 -28 0 -141 13 -146 9 -3 12 17 12 77 0 49 -4 81 -10 81 -6 0 -13 -6 -15 -12z" fill="#000000" id="000000-000047"/>
    <path stroke="none" d="M3164 1107 c-10 -27 0 -140 14 -145 9 -3 12 16 12 72 0 69 -13 106 -26 73z" fill="#000000" id="000000-000048"/>
    <path stroke="none" d="M1005 1080 c-3 -5 -3 -32 1 -59 7 -56 27 -82 47 -62 8 8 9 14 1 19 -17 11 -22 35 -12 55 18 34 -17 79 -37 47z" fill="#000000" id="000000-000051"/>
    <path stroke="none" d="M2197 1077 c-10 -26 5 -116 21 -122 22 -8 26 1 13 34 -10 23 -10 33 0 49 10 17 10 23 0 36 -16 19 -27 20 -34 3z" fill="#000000" id="000000-000050"/>
    <path stroke="none" d="M916 1063 c-3 -3 -6 -24 -6 -45 0 -32 -3 -39 -17 -36 -13 2 -19 14 -21 41 -4 49 -32 52 -32 3 0 -48 27 -76 68 -69 31 5 32 7 32 54 0 45 -9 66 -24 52z" fill="#000000" id="000000-000061"/>
    <path stroke="none" d="M1228 1059 c-24 -13 -23 -36 2 -51 24 -15 26 -28 5 -28 -17 0 -20 -16 -5 -25 13 -8 50 13 50 29 0 7 -9 21 -20 31 -19 17 -19 19 -4 37 14 14 14 18 3 18 -8 0 -22 -5 -31 -11z" fill="#000000" id="000000-000052"/>
    <path stroke="none" d="M1344 1061 c-2 -2 -4 -26 -4 -53 0 -59 23 -63 28 -5 5 53 32 50 32 -3 0 -29 4 -40 15 -40 11 0 15 11 15 40 0 53 27 56 32 3 5 -55 28 -55 28 1 0 25 -6 48 -12 53 -13 8 -126 12 -134 4z" fill="#000000" id="000000-000053"/>
    <path stroke="none" d="M1754 1056 c-19 -14 -16 -137 4 -144 7 -2 12 5 12 16 0 14 9 21 30 26 63 12 60 110 -3 112 -15 1 -34 -4 -43 -10z" fill="#000000" id="000000-000054"/>
    <path stroke="none" d="M1815 1010 c0 -16 -6 -26 -18 -28 -19 -4 -32 20 -23 44 9 25 41 13 41 -16z" fill="#ffffff" id="ffffff-000007"/>
    <path stroke="none" d="M1923 1055 c-31 -21 -31 -68 -1 -89 28 -20 58 -20 58 -1 0 8 -9 15 -20 15 -11 0 -20 5 -20 10 0 6 9 10 20 10 25 0 37 27 23 49 -14 22 -34 24 -60 6z" fill="#000000" id="000000-000055"/>
    <path stroke="none" d="M1960 1030 c0 -5 -4 -10 -10 -10 -5 0 -10 5 -10 10 0 6 5 10 10 10 6 0 10 -4 10 -10z" fill="#ffffff" id="ffffff-000008"/>
    <path stroke="none" d="M2078 1063 c-19 -5 -32 -40 -26 -69 5 -27 54 -52 69 -37 10 10 6 15 -14 22 -32 13 -36 46 -7 61 38 20 23 35 -22 23z" fill="#000000" id="000000-000056"/>
    <path stroke="none" d="M2319 1060 c-19 -11 -20 -91 -1 -98 8 -2 12 7 12 26 0 17 7 38 16 46 8 9 12 20 9 26 -8 12 -15 12 -36 0z" fill="#000000" id="000000-000063"/>
    <path stroke="none" d="M2603 1062 c-20 -3 -23 -9 -23 -53 0 -27 4 -49 9 -49 11 0 21 25 21 56 0 15 6 24 15 24 10 0 15 -10 15 -34 0 -19 5 -38 10 -41 10 -6 14 7 11 33 -2 15 17 42 30 42 4 0 9 -17 11 -37 2 -21 8 -38 13 -38 14 0 19 75 5 89 -11 11 -70 15 -117 8z" fill="#000000" id="000000-000057"/>
    <path stroke="none" d="M3370 1055 c0 -8 5 -15 10 -15 6 0 10 -4 10 -10 0 -5 -6 -10 -14 -10 -21 0 -31 -39 -14 -56 9 -9 22 -11 43 -6 27 8 30 12 28 46 -1 20 -7 44 -13 52 -16 19 -50 18 -50 -1z" fill="#000000" id="000000-000058"/>
    <path stroke="none" d="M3400 990 c0 -5 -4 -10 -10 -10 -5 0 -10 5 -10 10 0 6 5 10 10 10 6 0 10 -4 10 -10z" fill="#ffffff" id="ffffff-000010"/>
    <path stroke="none" d="M3505 1062 c-3 -3 -5 -27 -5 -54 0 -59 23 -63 28 -5 4 50 30 50 34 0 2 -26 8 -38 18 -38 11 0 14 10 12 40 -2 22 -8 45 -14 52 -9 11 -63 15 -73 5z" fill="#000000" id="000000-000067"/>
    <path stroke="none" d="M3678 1059 c-40 -23 -6 -122 37 -106 19 8 20 27 1 27 -38 0 -42 53 -5 63 10 3 19 10 19 16 0 14 -29 14 -52 0z" fill="#000000" id="000000-000059"/>
    <path stroke="none" d="M3806 1054 c-35 -34 -4 -111 40 -102 29 5 29 28 0 28 -14 0 -26 5 -26 10 0 6 14 10 30 10 25 0 30 4 30 23 0 44 -43 62 -74 31z" fill="#000000" id="000000-000060"/>
    <path stroke="none" d="M3850 1036 c0 -3 -4 -8 -10 -11 -5 -3 -10 -1 -10 4 0 6 5 11 10 11 6 0 10 -2 10 -4z" fill="#ffffff" id="ffffff-000009"/>
    <path stroke="none" d="M1120 1010 c0 -35 4 -50 12 -48 16 6 16 90 1 95 -9 3 -13 -10 -13 -47z" fill="#000000" id="000000-000062"/>
    <path stroke="none" d="M2420 1022 c0 -57 18 -76 60 -65 33 9 35 12 38 56 2 37 0 47 -12 47 -11 0 -16 -9 -16 -27 0 -16 -4 -34 -9 -42 -14 -22 -31 -3 -31 35 0 24 -5 34 -15 34 -11 0 -15 -11 -15 -38z" fill="#000000" id="000000-000065"/>
    <path stroke="none" d="M3260 1010 c0 -36 4 -50 12 -48 17 6 17 90 1 95 -9 3 -13 -10 -13 -47z" fill="#000000" id="000000-000066"/>
  </g>
</svg>
