<svg xmlns="http://www.w3.org/2000/svg" version="1.0" width="2008.000000pt" height="2008.000000pt" viewBox="0 0 2008.000000 2008.000000" preserveAspectRatio="xMidYMid meet">
  <g transform="translate(0.000000,2008.000000) scale(0.100000,-0.100000)" stroke="none">
    <path stroke="none" d="M0 10040 l0 -10040 10040 0 10040 0 0 10040 0 10040 -10040 0 -10040 0 0 -10040z" fill="#010101" id="010101-000001"/>
    <path stroke="none" d="M16415 13309 c68 -18 107 -40 163 -93 61 -57 71 -74 101 -166 20 -61 21 -84 21 -385 l-1 -320 532 -3 c593 -3 583 -2 670 -71 63 -50 94 -88 119 -146 20 -46 20 -62 20 -2086 l0 -2038 -23 -53 c-31 -68 -105 -141 -182 -178 l-62 -29 -537 -3 -537 -3 1 -325 c0 -320 0 -326 -24 -391 -33 -92 -37 -98 -98 -155 -56 -53 -95 -75 -163 -93 -56 -15 -12694 -15 -12750 0 -68 18 -107 40 -163 93 -61 57 -65 64 -98 155 -24 65 -24 72 -24 393 l0 328 -536 0 -536 0 -66 31 c-83 40 -154 113 -182 186 -20 53 -20 71 -20 2088 0 2002 0 2034 20 2079 27 64 66 110 128 153 92 64 75 63 660 63 l532 0 0 323 c0 301 1 328 21 388 30 93 61 141 121 185 54 41 80 55 133 72 43 15 12706 16 12760 1z" fill="#ffffff" id="ffffff-000001"/>
    <path stroke="none" d="M3683 13062 c-12 -9 -31 -34 -42 -55 -20 -36 -21 -52 -21 -352 l0 -315 6420 0 6420 0 0 315 c0 300 -1 316 -21 352 -11 21 -30 46 -42 55 -21 17 -370 18 -6357 18 -5987 0 -6336 -1 -6357 -18z" fill="#010101" id="010101-000002"/>
    <path stroke="none" d="M2328 12085 c-25 -17 -40 -37 -47 -63 -12 -40 -16 -3914 -5 -3948 14 -44 30 -66 63 -87 l36 -22 7665 0 7665 0 36 22 c33 21 49 43 63 87 8 24 8 3908 0 3932 -14 44 -30 66 -60 84 -31 20 -93 20 -7705 20 l-7674 0 -37 -25z" fill="#010101" id="010101-000003"/>
    <path stroke="none" d="M9510 11248 c30 -6 59 -15 65 -20 5 -4 19 -8 32 -8 45 0 277 -89 468 -181 131 -62 190 -104 295 -209 81 -81 104 -110 137 -176 56 -113 68 -166 68 -314 0 -121 -3 -143 -28 -212 -50 -140 -164 -278 -310 -375 -96 -64 -357 -193 -422 -209 -16 -4 -42 -13 -57 -21 l-28 -13 -2 -193 -3 -192 -187 -3 -188 -2 -2 1065 c-2 586 1 1070 5 1074 10 10 80 5 157 -11z" fill="#ffffff" id="ffffff-000002"/>
    <path stroke="none" d="M11744 11231 c17 -5 53 -14 80 -20 125 -29 253 -125 298 -224 l23 -52 0 -902 c0 -589 -3 -905 -10 -910 -5 -4 -88 -7 -182 -5 l-173 3 0 215 0 214 -222 -2 -223 -3 -5 -210 -5 -210 -182 -3 c-169 -2 -183 -1 -184 15 0 10 -1 106 -2 213 l-2 195 -163 3 -164 3 -100 99 c-68 67 -97 101 -87 105 8 3 127 6 264 7 l250 3 2 575 c2 316 7 584 12 595 5 11 17 39 26 63 40 95 219 208 348 219 34 3 69 9 77 14 20 11 286 11 324 0z" fill="#ffffff" id="ffffff-000003"/>
    <path stroke="none" d="M9170 11175 c0 -8 -6 -15 -14 -15 -7 0 -20 -7 -27 -16 -8 -9 -31 -28 -53 -41 -51 -33 -211 -187 -246 -238 -54 -79 -82 -139 -106 -226 -25 -94 -23 -145 10 -243 20 -60 101 -220 137 -273 16 -23 29 -45 29 -50 0 -4 16 -28 35 -52 19 -24 35 -47 35 -51 0 -4 15 -27 33 -51 43 -56 93 -186 102 -264 12 -107 -8 -212 -61 -317 -42 -85 -104 -173 -143 -205 -17 -15 -456 -19 -465 -5 -3 5 9 19 27 32 86 64 237 243 237 282 0 9 9 37 20 63 32 76 27 101 -54 257 -104 201 -140 268 -189 351 -64 106 -81 143 -112 240 -25 81 -27 96 -23 210 4 80 11 139 23 172 28 81 75 176 118 240 52 78 177 202 208 207 13 2 126 5 252 7 199 2 227 0 227 -14z" fill="#ffffff" id="ffffff-000007"/>
    <path stroke="none" d="M13557 11174 c2 -5 -14 -19 -34 -31 -66 -36 -148 -88 -189 -119 -21 -16 -57 -41 -79 -55 -48 -31 -281 -258 -320 -312 -45 -62 -97 -159 -138 -259 -28 -68 -41 -226 -28 -351 7 -61 16 -116 21 -122 4 -5 15 -33 23 -61 40 -136 159 -297 328 -443 77 -67 202 -161 214 -161 3 0 32 -17 63 -38 31 -21 80 -50 109 -63 29 -13 52 -27 53 -31 0 -11 -538 -10 -542 0 -1 5 -39 33 -83 62 -100 67 -305 271 -367 367 -76 114 -168 319 -168 372 0 14 -7 44 -15 66 -22 63 -20 258 6 362 37 155 103 300 180 392 16 20 29 40 29 46 0 18 220 234 299 294 41 31 84 64 95 73 30 23 60 25 315 24 148 -1 226 -5 228 -12z" fill="#ffffff" id="ffffff-000008"/>
    <path stroke="none" d="M14877 11178 c9 -15 13 -110 6 -165 l-5 -53 -332 0 c-182 0 -337 -4 -344 -8 -10 -7 -13 -126 -13 -592 0 -466 3 -585 13 -592 7 -4 163 -8 345 -8 l333 0 5 -22 c2 -13 3 -48 1 -78 -2 -30 -4 -70 -5 -87 l-1 -33 -345 0 c-190 0 -345 -3 -346 -7 -12 -103 -5 -131 40 -170 25 -22 31 -23 340 -25 l315 -3 0 -102 c1 -56 -2 -104 -6 -108 -13 -13 -616 -5 -712 10 -106 16 -111 17 -193 57 -79 39 -100 59 -129 125 -19 43 -24 71 -24 138 l0 85 -161 0 -160 0 -105 102 c-57 55 -104 105 -104 109 0 5 118 10 263 11 l262 3 3 707 2 707 28 4 c51 9 1023 3 1029 -5z" fill="#ffffff" id="ffffff-000009"/>
    <path stroke="none" d="M6344 11154 c3 -12 5 -201 5 -420 l0 -399 138 0 138 0 3 418 2 417 110 0 110 0 0 -605 0 -605 -110 0 -109 0 -3 127 -3 126 -129 0 c-105 0 -131 -3 -140 -15 -8 -10 -11 -56 -10 -122 1 -65 -2 -108 -8 -112 -6 -4 -52 -7 -102 -6 l-91 1 -3 117 c-3 137 -9 148 -79 138 -77 -11 -131 3 -179 48 -71 65 -66 68 106 68 l150 0 0 418 c0 230 2 421 4 423 3 2 47 4 100 4 88 0 95 -1 100 -21z" fill="#ffffff" id="ffffff-000005"/>
    <path stroke="none" d="M5724 11134 c4 -20 4 -49 1 -65 l-6 -28 -117 -3 -117 -3 -1 -533 c-1 -293 -4 -536 -8 -539 -3 -3 -52 -6 -108 -5 l-103 0 -5 539 -5 538 -112 3 -113 3 0 64 0 65 344 0 344 0 6 -36z" fill="#ffffff" id="ffffff-000004"/>
    <path stroke="none" d="M7890 11105 l0 -65 -202 -2 -203 -3 0 -350 0 -350 201 -3 201 -2 6 -53 c2 -28 3 -54 1 -56 -2 -2 -92 -4 -200 -4 l-196 1 -10 -24 c-15 -33 2 -86 32 -101 17 -9 80 -13 198 -13 l172 0 0 -60 0 -60 -212 0 c-212 0 -240 3 -325 41 -55 24 -74 55 -82 134 -4 35 -9 67 -12 69 -3 3 -50 8 -105 11 l-99 6 -50 52 -50 52 155 5 155 5 3 418 2 417 310 0 310 0 0 -65z" fill="#ffffff" id="ffffff-000006"/>
    <path stroke="none" d="M8017 9411 c28 -19 42 -50 49 -115 8 -66 -7 -113 -47 -152 l-30 -29 -1471 0 -1470 0 -33 38 c-38 44 -48 86 -39 157 8 59 46 106 92 113 15 2 680 4 1477 3 1247 -1 1453 -3 1472 -15z" fill="#ffffff" id="ffffff-000010"/>
    <path stroke="none" d="M9737 10903 c-4 -3 -7 -258 -7 -565 0 -489 2 -558 15 -558 8 0 15 4 15 9 0 5 15 15 33 22 112 46 293 200 352 301 70 118 71 305 2 439 -34 68 -188 232 -242 259 -17 8 -58 34 -92 57 -69 47 -67 46 -76 36z" fill="#010101" id="010101-000005"/>
    <path stroke="none" d="M11430 10999 c-56 -32 -88 -73 -95 -121 -3 -24 -5 -284 -3 -578 l3 -535 220 0 220 0 3 555 c1 395 -1 563 -9 582 -15 36 -84 98 -108 98 -11 0 -23 5 -26 10 -3 6 -43 10 -88 9 -62 0 -90 -5 -117 -20z" fill="#010101" id="010101-000004"/>
    <path stroke="none" d="M3620 7423 c0 -305 1 -319 21 -353 11 -19 31 -43 42 -52 21 -17 370 -18 6357 -18 5987 0 6336 1 6357 18 11 9 31 33 42 52 20 34 21 48 21 353 l0 317 -6420 0 -6420 0 0 -317z" fill="#010101" id="010101-000006"/>
  </g>
</svg>
