<svg xmlns="http://www.w3.org/2000/svg" version="1.0" width="916.000000pt" height="1208.000000pt" viewBox="0 0 916.000000 1208.000000" preserveAspectRatio="xMidYMid meet">
  <g transform="translate(0.000000,1208.000000) scale(0.100000,-0.100000)" stroke="none">
    <path d="M 0 0 H 9160.0 V 12080.0 H 0 Z" fill="#ffffff" id="background"/>
    <path stroke="none" d="M385 10290 l-40 -5 -3 -905 c-2 -498 0 -932 3 -965 l6 -60 211 3 c149 2 214 -1 224 -9 12 -10 14 -355 14 -2329 l0 -2319 -26 -20 c-16 -13 -35 -19 -48 -16 -11 3 -97 7 -189 9 -160 3 -169 2 -183 -18 -12 -17 -14 -158 -14 -958 0 -540 4 -939 9 -942 15 -10 2974 -7 2983 2 5 5 9 432 9 953 0 812 -2 945 -14 954 -10 7 -87 10 -216 9 -110 -2 -203 1 -205 5 -3 3 -6 486 -7 1071 -3 1221 -9 1150 84 954 28 -61 57 -117 63 -125 5 -8 21 -36 34 -64 13 -27 32 -61 41 -75 18 -28 93 -169 178 -335 31 -61 66 -124 77 -140 11 -17 26 -44 33 -62 7 -17 21 -39 32 -49 10 -9 19 -25 19 -34 0 -10 11 -34 25 -54 14 -20 34 -58 46 -84 12 -26 27 -54 34 -62 7 -8 16 -26 20 -40 4 -14 13 -32 20 -40 7 -8 37 -62 66 -120 29 -58 63 -118 76 -133 13 -16 26 -41 30 -55 3 -15 14 -38 25 -51 10 -13 18 -31 18 -40 0 -9 18 -42 40 -75 22 -32 40 -64 40 -71 0 -7 11 -28 24 -48 13 -19 54 -93 91 -164 36 -70 71 -132 76 -137 5 -6 9 -16 9 -24 0 -8 9 -25 20 -39 11 -14 20 -32 20 -40 0 -8 11 -29 24 -46 14 -18 50 -81 82 -142 32 -60 70 -132 86 -160 15 -27 54 -103 88 -168 100 -194 120 -227 137 -227 6 0 15 10 19 22 4 13 17 39 30 58 13 19 30 55 39 80 8 24 22 51 29 60 8 8 34 53 58 100 77 147 130 244 149 272 11 14 19 31 19 37 0 6 23 51 50 100 28 49 57 104 65 123 8 18 33 65 55 103 22 39 80 147 130 240 49 94 98 186 110 205 11 19 36 69 56 110 20 41 44 83 52 93 9 10 41 68 72 130 99 197 169 329 183 346 8 9 34 57 58 106 23 50 53 103 66 118 13 16 23 35 23 42 0 8 13 37 29 64 16 27 67 122 112 211 45 88 86 163 91 166 8 5 32 53 73 149 7 17 16 42 19 58 7 29 27 35 45 13 18 -21 16 -2116 -2 -2133 -9 -10 -27 -10 -72 -3 -80 13 -308 11 -335 -4 l-21 -11 0 -931 c1 -962 3 -1006 40 -987 9 4 666 9 1461 10 795 2 1450 3 1456 3 5 0 19 8 30 18 19 18 19 39 16 950 l-2 932 -23 14 c-18 11 -55 13 -202 6 -127 -5 -187 -4 -205 4 l-25 11 -3 2321 c-2 1886 0 2323 11 2338 12 16 32 17 216 16 141 0 207 3 217 11 12 10 14 161 14 960 0 604 -4 950 -10 954 -5 3 -554 6 -1220 6 -925 1 -1214 -2 -1225 -11 -8 -7 -42 -67 -76 -133 -34 -67 -79 -153 -101 -192 -21 -38 -47 -89 -58 -111 -11 -23 -27 -47 -35 -54 -8 -7 -15 -20 -15 -29 0 -10 -14 -39 -31 -67 -18 -27 -40 -67 -50 -89 -10 -22 -46 -89 -79 -150 -33 -60 -71 -132 -85 -160 -13 -27 -33 -63 -44 -80 -12 -16 -26 -46 -32 -65 -6 -19 -17 -42 -25 -50 -7 -8 -36 -62 -65 -120 -28 -58 -57 -112 -64 -120 -8 -8 -53 -91 -101 -185 -49 -93 -103 -197 -121 -230 -18 -33 -46 -87 -63 -120 -16 -33 -42 -80 -56 -105 -14 -25 -58 -106 -97 -180 -39 -74 -83 -157 -98 -185 -15 -27 -45 -84 -67 -125 -21 -41 -54 -102 -72 -135 -18 -33 -57 -105 -85 -160 -29 -55 -60 -113 -69 -130 -9 -16 -16 -35 -16 -41 0 -6 -7 -17 -15 -24 -9 -7 -36 -55 -61 -106 -66 -133 -77 -139 -118 -56 -12 26 -38 74 -56 107 -18 33 -56 105 -85 160 -28 55 -63 118 -78 139 -15 21 -27 46 -27 55 0 10 -4 21 -9 27 -4 5 -23 36 -41 69 -34 61 -44 79 -162 305 -37 69 -80 150 -96 180 -17 30 -54 100 -82 155 -29 55 -61 110 -71 124 -10 13 -19 30 -19 37 0 7 -18 42 -40 76 -22 35 -40 71 -40 80 0 9 -5 20 -11 23 -5 4 -21 30 -34 58 -13 29 -35 67 -49 86 -14 19 -26 43 -26 52 0 10 -4 21 -10 24 -5 3 -20 27 -33 53 -20 40 -78 149 -159 302 -10 19 -23 42 -28 50 -9 14 -107 197 -191 355 -21 39 -63 119 -94 179 -30 59 -62 115 -70 123 -8 8 -15 21 -15 28 0 8 -36 78 -80 157 -44 78 -80 148 -80 154 0 6 -11 21 -24 33 l-24 23 -1173 1 c-646 1 -1192 0 -1214 -3z" fill="#000000" id="000000-000001"/>
    <path stroke="none" d="M595 10080 c5 -8 337 -10 1057 -10 1022 2 1051 1 1077 -17 24 -18 43 -48 105 -168 14 -27 34 -66 45 -85 11 -19 23 -42 26 -50 3 -8 25 -49 49 -90 24 -41 67 -118 94 -170 27 -52 61 -117 76 -144 14 -27 26 -55 26 -61 0 -7 7 -18 16 -26 9 -7 28 -38 43 -68 44 -90 140 -275 151 -291 6 -8 22 -37 37 -65 30 -58 89 -169 125 -236 14 -25 32 -57 41 -70 10 -13 17 -30 17 -37 0 -8 13 -34 30 -59 16 -24 30 -47 30 -52 0 -4 14 -28 30 -54 17 -26 30 -52 30 -58 0 -5 12 -28 27 -52 23 -37 52 -91 153 -287 13 -25 27 -52 32 -60 5 -8 14 -26 21 -40 6 -14 29 -53 50 -86 20 -34 37 -66 37 -72 0 -6 26 -57 58 -114 32 -57 65 -116 74 -133 54 -107 138 -265 186 -350 31 -55 83 -152 117 -215 74 -143 89 -164 109 -157 9 4 16 14 16 22 0 9 11 33 25 53 14 20 25 42 25 48 0 7 16 35 35 63 19 28 35 56 35 63 0 7 10 29 22 48 11 19 41 73 66 120 24 47 57 108 72 136 16 28 49 91 75 140 72 139 140 266 163 304 12 19 27 46 34 60 48 99 232 441 239 446 5 3 9 13 9 23 0 10 18 46 40 79 22 33 40 66 40 74 0 9 8 26 18 39 10 13 24 40 32 59 7 19 21 44 30 55 10 11 40 65 68 120 90 181 172 338 182 351 6 6 36 61 66 121 31 59 60 113 64 118 5 6 33 57 63 115 30 58 83 159 118 225 35 66 87 167 116 225 30 57 60 111 67 120 8 8 26 40 40 71 14 31 33 59 41 63 27 10 2187 8 2197 -2 6 -6 9 -311 9 -743 0 -617 -2 -735 -14 -744 -9 -6 -82 -8 -208 -4 -170 5 -196 4 -212 -11 -16 -15 -17 -142 -17 -2544 0 -1844 3 -2532 11 -2542 9 -10 61 -14 226 -16 l215 -3 0 -732 c0 -521 -3 -737 -11 -746 -16 -20 -2577 -25 -2604 -5 -16 12 -17 56 -17 736 0 397 0 729 0 737 0 12 33 15 218 17 l217 3 5 1565 c3 1024 2 1576 -5 1598 -12 40 -28 36 -36 -9 -6 -35 -146 -327 -171 -357 -8 -9 -22 -35 -32 -57 -9 -22 -48 -101 -87 -175 -38 -74 -83 -162 -99 -195 -17 -33 -34 -67 -40 -75 -5 -8 -40 -78 -78 -155 -38 -77 -120 -239 -182 -360 -62 -121 -130 -256 -152 -300 -63 -127 -80 -159 -94 -175 -7 -8 -16 -28 -20 -45 -4 -16 -10 -34 -14 -40 -14 -18 -100 -184 -425 -820 -50 -99 -100 -196 -110 -215 -29 -55 -38 -72 -57 -115 -10 -22 -23 -47 -28 -55 -5 -8 -46 -88 -91 -177 -45 -90 -90 -170 -99 -178 -16 -15 -19 -13 -39 18 -11 19 -21 41 -21 50 0 9 -4 18 -10 22 -5 3 -22 31 -38 63 -38 76 -142 273 -179 342 -17 30 -49 89 -71 130 -21 41 -53 100 -69 130 -16 30 -35 65 -41 77 -7 13 -17 33 -24 45 -24 44 -91 174 -115 220 -13 25 -31 52 -38 58 -8 7 -15 21 -15 32 0 11 -8 32 -19 46 -10 15 -21 37 -25 49 -4 11 -13 27 -21 33 -8 7 -15 19 -15 27 0 8 -9 26 -20 40 -11 14 -20 32 -20 40 0 8 -15 38 -34 66 -19 29 -41 68 -50 87 -36 77 -77 153 -91 166 -8 8 -19 33 -25 54 -6 22 -15 42 -21 45 -5 4 -20 28 -33 53 -13 26 -49 97 -81 157 -32 61 -89 170 -126 243 -37 74 -74 141 -81 150 -8 10 -26 40 -40 67 -31 61 -59 115 -69 135 -5 8 -35 68 -68 132 -34 64 -73 138 -89 165 -27 46 -67 127 -90 186 -7 15 -17 26 -23 25 -6 -2 -18 20 -26 47 -8 28 -21 57 -29 66 -8 9 -21 39 -29 67 -12 41 -21 53 -41 58 -14 4 -27 4 -30 1 -3 -2 -5 -685 -4 -1517 0 -1088 3 -1517 11 -1527 14 -16 352 -19 394 -3 22 9 27 7 35 -15 15 -40 15 -1462 0 -1480 -11 -13 -180 -15 -1301 -15 -811 1 -1290 4 -1294 10 -8 13 -8 1481 0 1489 3 3 93 4 200 2 106 -1 203 0 214 4 l21 6 0 2538 c0 2329 -1 2540 -16 2552 -13 10 -59 13 -208 11 -105 -2 -197 1 -204 6 -10 7 -12 162 -13 741 0 677 1 735 17 752 19 21 30 24 39 9z" fill="#ffffff" id="ffffff-000002"/>
    <path stroke="none" d="M772 9798 c-9 -9 -12 -127 -12 -470 0 -451 0 -458 21 -477 19 -18 32 -19 218 -14 l196 6 13 -27 c18 -40 18 -5606 0 -5607 -7 0 -104 0 -216 1 -147 1 -207 -2 -218 -11 -13 -10 -15 -79 -14 -481 2 -466 2 -468 23 -483 19 -13 156 -15 1077 -15 808 0 1059 3 1068 12 16 16 17 913 2 953 l-10 27 -210 -3 c-132 -3 -213 0 -219 6 -11 11 -18 4212 -7 4223 3 3 7 3 9 1 30 -41 87 -139 87 -148 0 -8 16 -39 34 -70 19 -31 40 -68 45 -81 6 -14 33 -65 61 -115 28 -49 69 -128 91 -175 22 -46 52 -97 65 -113 13 -16 24 -35 24 -44 0 -8 8 -27 18 -41 11 -15 29 -53 43 -85 13 -32 31 -63 41 -68 10 -5 18 -17 18 -27 0 -9 6 -26 13 -38 6 -12 27 -48 45 -80 17 -32 36 -66 41 -74 5 -8 19 -35 32 -60 22 -45 62 -121 133 -255 21 -38 42 -74 47 -80 5 -5 9 -16 9 -26 0 -9 9 -28 20 -42 24 -31 95 -163 105 -197 4 -14 15 -33 24 -44 9 -10 27 -40 41 -67 89 -173 151 -291 177 -339 106 -192 150 -274 216 -400 33 -63 68 -127 78 -142 11 -14 19 -32 19 -40 0 -7 6 -22 14 -33 15 -22 61 -108 141 -262 29 -56 60 -109 69 -118 9 -9 16 -23 16 -32 0 -8 15 -41 34 -72 29 -49 97 -175 151 -281 10 -19 22 -42 27 -50 4 -8 17 -33 28 -55 11 -22 29 -51 39 -64 l19 -25 22 47 c12 26 26 50 31 53 5 3 9 12 9 20 0 8 20 47 44 87 40 65 72 127 229 427 27 52 64 120 83 150 18 31 37 67 42 81 6 14 31 63 57 110 26 46 73 134 105 194 31 61 72 137 90 170 18 33 54 101 80 150 26 50 66 125 89 168 50 94 55 103 72 142 7 17 26 49 41 72 15 23 28 47 28 53 0 6 13 30 28 53 15 23 54 94 86 157 32 63 73 140 90 170 42 73 60 106 156 295 45 88 88 167 95 175 8 8 51 89 97 180 46 91 93 179 106 197 12 17 22 37 22 45 0 8 13 35 30 61 16 25 46 79 66 119 21 40 47 87 59 103 12 17 28 46 35 65 8 19 28 62 46 95 17 33 46 87 63 120 37 70 46 81 55 66 4 -6 7 -954 6 -2108 0 -1985 -1 -2098 -18 -2104 -9 -3 -106 -4 -214 -1 -151 4 -201 2 -213 -8 -13 -11 -15 -73 -15 -483 0 -436 1 -471 18 -483 14 -11 210 -13 1072 -14 580 0 1065 3 1077 6 l22 6 3 477 c2 262 -1 481 -5 486 -5 6 -96 10 -235 10 l-227 0 -3 2785 c-1 1532 0 2800 3 2817 l6 33 218 -4 218 -3 11 31 c12 34 19 916 7 935 -4 8 -267 11 -855 11 -967 0 -862 11 -912 -100 -16 -36 -36 -72 -43 -80 -8 -9 -40 -67 -73 -130 -60 -116 -104 -200 -182 -345 -102 -189 -122 -225 -173 -326 -29 -58 -63 -119 -74 -135 -12 -16 -54 -94 -95 -174 -74 -143 -109 -208 -195 -364 -23 -43 -43 -83 -43 -88 0 -8 -57 -113 -91 -168 -5 -8 -17 -31 -25 -50 -9 -19 -24 -46 -34 -60 -10 -14 -51 -90 -92 -170 -70 -135 -107 -206 -203 -385 -20 -38 -62 -117 -93 -175 -30 -58 -65 -121 -77 -140 -12 -19 -45 -82 -75 -140 -29 -58 -62 -121 -73 -140 -31 -54 -74 -134 -138 -255 -83 -158 -179 -338 -190 -355 -5 -8 -14 -27 -20 -42 -12 -31 -36 -43 -54 -28 -11 9 -78 132 -148 275 -11 22 -26 47 -32 55 -7 8 -16 26 -20 40 -4 13 -23 47 -41 73 -19 27 -34 55 -34 63 0 7 -13 35 -30 61 -16 26 -30 51 -30 57 0 5 -6 17 -14 25 -7 9 -34 54 -58 101 -126 237 -179 337 -235 440 -14 25 -50 92 -80 150 -63 120 -110 207 -170 318 -23 42 -65 120 -92 173 -27 52 -56 101 -65 108 -9 8 -16 18 -16 23 0 10 -49 110 -93 188 -13 25 -46 88 -72 140 -25 52 -53 102 -60 110 -8 8 -29 44 -48 80 -40 78 -121 231 -170 320 -32 60 -53 98 -143 265 -17 33 -49 94 -70 135 -21 41 -45 86 -55 100 -24 36 -99 181 -99 192 0 5 -13 28 -29 51 -15 23 -37 60 -48 82 -59 118 -106 201 -121 213 -23 17 -1672 18 -1690 0z" fill="#000000" id="000000-000002"/>
  </g>
</svg>
