<svg xmlns="http://www.w3.org/2000/svg" version="1.0" width="4808.000000pt" height="2584.000000pt" viewBox="0 0 4808.000000 2584.000000" preserveAspectRatio="xMidYMid meet">
  <g transform="translate(0.000000,2584.000000) scale(0.100000,-0.100000)" stroke="none">
    <path d="M 0 0 H 48080.0 V 25840.0 H 0 Z" fill="#ffffff" id="background"/>
    <path stroke="none" d="M27420 20695 c-70 -14 -171 -28 -315 -44 -49 -6 -130 -15 -180 -21 -156 -18 -215 -16 -260 10 -40 23 -41 23 -215 11 -96 -6 -247 -16 -335 -22 -88 -5 -227 -14 -310 -19 -82 -5 -229 -14 -325 -20 -96 -6 -233 -15 -305 -20 -194 -15 -237 -13 -292 12 -42 19 -65 22 -178 22 -71 0 -158 -5 -192 -12 -35 -7 -91 -17 -125 -23 -35 -6 -142 -38 -238 -69 -96 -32 -268 -88 -382 -125 -222 -72 -225 -74 -195 -128 33 -60 46 -62 144 -22 35 14 51 15 90 7 27 -6 75 -16 108 -22 33 -7 66 -14 74 -16 14 -4 13 -15 -10 -134 -5 -25 -12 -61 -15 -81 -6 -33 -12 -38 -78 -69 -124 -58 -209 -124 -282 -217 -40 -50 -104 -170 -104 -193 0 -9 -33 -26 -95 -50 -151 -58 -204 -81 -285 -121 -119 -60 -177 -108 -186 -155 -12 -64 25 -76 104 -32 18 10 38 18 45 18 7 0 31 -30 55 -65 l42 -65 0 -120 0 -120 -89 -173 c-48 -94 -97 -188 -108 -208 -12 -19 -44 -80 -73 -134 -29 -54 -60 -112 -69 -129 -10 -17 -37 -67 -61 -111 -23 -44 -46 -84 -50 -90 -4 -5 -23 -40 -44 -77 -74 -138 -110 -204 -138 -251 -15 -26 -28 -50 -28 -52 0 -2 -22 -42 -50 -90 -27 -48 -50 -88 -50 -90 0 -2 -15 -30 -34 -62 -18 -32 -45 -79 -60 -105 -14 -27 -38 -69 -52 -95 -15 -27 -42 -74 -60 -106 -19 -32 -34 -60 -34 -62 0 -2 -15 -30 -34 -62 -18 -32 -45 -79 -60 -105 -14 -27 -38 -69 -52 -95 -15 -27 -44 -77 -64 -113 -20 -36 -48 -85 -62 -110 -14 -25 -35 -63 -48 -85 -13 -22 -34 -60 -48 -85 -13 -25 -32 -58 -42 -75 -10 -16 -29 -50 -42 -75 -14 -25 -35 -63 -48 -85 -13 -22 -34 -60 -48 -85 -14 -25 -51 -90 -82 -145 -54 -94 -71 -124 -136 -242 -15 -27 -44 -77 -64 -113 -20 -36 -48 -85 -62 -110 -14 -25 -35 -63 -48 -85 -13 -22 -34 -60 -48 -85 -13 -25 -32 -58 -42 -75 -10 -16 -29 -50 -42 -75 -14 -25 -35 -63 -48 -85 -13 -22 -80 -152 -150 -290 -70 -137 -169 -331 -220 -430 -153 -297 -1210 -2408 -1287 -2570 -39 -82 -103 -215 -141 -295 -38 -80 -79 -165 -90 -190 -58 -130 -84 -190 -104 -240 -24 -59 -38 -75 -70 -83 -18 -5 -65 -17 -105 -28 -39 -10 -78 -19 -87 -19 -8 0 -127 73 -263 163 -616 406 -1118 728 -1373 882 -52 31 -126 81 -165 109 -197 147 -529 396 -592 445 -39 31 -98 76 -130 101 -289 223 -741 600 -958 800 -293 271 -573 559 -561 578 3 5 76 12 163 16 174 7 271 18 498 57 157 27 314 68 435 114 25 9 70 26 100 37 30 11 64 24 75 28 11 5 74 29 140 55 122 47 143 56 227 94 26 11 50 21 53 21 2 0 29 11 60 25 30 14 80 36 110 50 31 14 57 25 60 25 22 0 670 324 810 404 22 13 72 40 110 61 39 21 82 46 97 57 14 10 28 18 31 18 3 0 65 37 138 81 74 45 155 94 180 109 166 99 658 440 839 580 47 36 117 90 155 120 78 60 258 208 314 257 27 24 46 33 74 33 20 0 37 -2 37 -5 0 -3 -27 -42 -60 -87 -51 -69 -60 -87 -60 -123 0 -44 15 -60 45 -48 9 3 74 83 144 177 71 94 155 205 187 246 32 41 80 104 108 140 128 166 336 419 405 492 42 44 100 116 129 159 155 231 296 589 381 972 6 26 15 66 21 90 5 23 14 69 20 102 7 33 16 79 21 102 5 23 9 157 9 297 0 202 -3 267 -16 313 -9 32 -19 72 -24 88 -4 17 -19 60 -33 98 -15 41 -21 70 -15 73 6 4 60 9 121 12 109 5 111 5 144 38 28 28 31 37 24 57 -5 14 -22 33 -38 44 -49 34 -176 63 -273 63 -65 0 -69 4 -44 51 8 17 14 45 12 62 -3 29 -6 32 -40 35 -47 4 -51 16 -46 149 l3 98 82 102 c107 134 142 186 149 221 5 25 1 33 -28 55 -49 37 -111 56 -326 98 -84 16 -198 8 -386 -28 -38 -8 -89 -6 -371 16 l-140 11 -120 59 c-216 107 -385 176 -515 212 -19 6 -51 15 -70 20 -94 27 -238 55 -357 70 -116 14 -608 8 -1038 -13 -411 -20 -566 -16 -701 18 -19 5 -25 0 -37 -28 -28 -66 -119 -124 -265 -168 -37 -11 -80 -25 -95 -30 -25 -8 -156 2 -204 16 -21 6 -16 118 7 163 29 57 9 66 -71 30 -41 -19 -47 -26 -52 -58 -2 -20 -12 -53 -20 -74 l-16 -37 -58 7 c-102 14 -223 5 -396 -28 -62 -12 -256 -12 -957 1 -1833 32 -2193 43 -2264 65 -77 24 -147 61 -213 115 -34 28 -65 50 -68 50 -4 0 -28 -18 -53 -41 -88 -77 -243 -136 -371 -142 l-55 -2 -17 -103 c-28 -166 -82 -260 -189 -332 -65 -43 -120 -66 -215 -90 -68 -16 -70 -18 -67 -46 3 -31 18 -106 33 -165 11 -46 12 -102 0 -115 -4 -5 -33 -56 -63 -114 -30 -58 -76 -144 -102 -192 -25 -49 -66 -125 -90 -170 -24 -46 -61 -117 -83 -158 -22 -41 -70 -132 -107 -202 -36 -71 -96 -185 -132 -255 -64 -122 -93 -176 -184 -348 -22 -41 -59 -110 -81 -152 -23 -43 -54 -100 -69 -128 -26 -47 -46 -85 -121 -222 -30 -55 -50 -91 -107 -193 -303 -544 -610 -1022 -725 -1128 l-25 -23 -513 4 c-290 3 -542 10 -579 16 -147 24 -177 25 -217 6 -56 -27 -106 -29 -342 -17 -119 7 -319 16 -446 22 -292 13 -1336 14 -1435 1 -41 -5 -125 -15 -185 -21 -105 -12 -112 -11 -146 9 -29 17 -54 21 -125 22 -82 1 -120 -3 -275 -33 -50 -9 -64 -8 -115 11 -53 20 -76 22 -258 22 -479 -2 -760 -86 -811 -244 -13 -41 -41 -46 -101 -18 -55 26 -69 26 -105 1 -53 -39 -51 -126 4 -161 34 -22 67 -22 242 1 44 6 107 13 140 16 59 6 60 6 73 -24 13 -31 46 -49 97 -54 28 -3 30 -6 33 -49 l3 -46 -58 -13 c-117 -27 -183 -75 -183 -132 0 -44 109 -237 159 -282 26 -24 26 -36 0 -82 -44 -79 16 -161 132 -178 43 -6 47 -10 84 -73 51 -87 123 -177 160 -200 27 -16 64 -19 370 -23 312 -5 347 -8 420 -28 153 -43 397 -76 755 -103 173 -13 392 -8 550 12 132 17 234 17 330 0 41 -8 173 -16 292 -18 180 -4 233 -2 310 13 116 22 161 22 268 1 66 -13 144 -17 350 -17 146 0 271 -4 278 -9 10 -6 10 -17 2 -52 -6 -24 -15 -60 -19 -80 -13 -61 -784 -1612 -1096 -2204 -29 -55 -83 -158 -120 -230 -93 -179 -235 -449 -290 -550 -18 -33 -54 -100 -80 -150 -26 -49 -60 -114 -76 -142 -29 -52 -64 -117 -122 -223 -16 -30 -40 -74 -53 -97 -13 -24 -35 -63 -49 -88 -14 -25 -36 -65 -50 -90 -14 -25 -37 -66 -52 -93 -30 -55 -262 -459 -352 -613 -33 -58 -61 -114 -61 -123 0 -28 28 -73 59 -95 17 -12 60 -26 105 -33 47 -7 76 -16 76 -24 0 -50 -123 -245 -250 -394 -140 -164 -134 -156 -133 -217 1 -77 38 -147 71 -136 87 28 214 110 349 226 55 46 97 75 104 71 9 -5 10 -40 6 -123 -6 -118 -32 -215 -94 -351 -52 -114 -54 -121 -43 -177 5 -29 15 -77 20 -106 6 -28 13 -88 16 -132 4 -44 11 -85 16 -91 12 -16 132 8 166 33 41 30 72 82 72 120 0 30 3 34 22 31 15 -2 26 -13 32 -33 5 -16 15 -44 22 -62 18 -39 17 -53 0 -72 -16 -18 -144 -265 -166 -321 -7 -19 -24 -59 -37 -88 -37 -81 -17 -134 55 -148 28 -6 36 -2 66 31 31 33 105 149 165 257 12 21 31 55 42 75 34 60 181 352 211 418 57 129 126 278 185 404 19 42 50 108 68 146 18 39 51 109 74 158 22 48 59 126 82 175 79 168 304 618 349 697 25 44 52 93 60 109 8 16 31 47 51 70 33 38 64 98 249 481 479 993 1176 2389 1390 2780 15 28 51 95 80 150 72 136 98 185 186 343 116 208 252 438 315 534 13 21 29 36 34 35 6 -2 11 -25 13 -50 3 -45 4 -47 34 -47 32 0 102 51 170 125 43 47 84 125 93 178 l6 37 55 0 c95 0 473 44 622 72 88 16 163 15 203 -4 30 -15 45 -16 85 -8 242 50 408 70 654 79 l175 6 3 48 c2 33 -1 47 -10 48 -7 1 -40 2 -73 3 l-60 1 -3 48 -3 47 140 0 139 0 26 -31 c14 -17 29 -48 32 -70 4 -21 11 -39 16 -39 5 0 27 9 48 20 44 23 52 48 20 68 l-21 13 23 41 c13 22 39 53 58 69 l35 29 375 0 c395 1 394 1 418 47 23 43 16 53 -40 54 -29 0 -89 7 -133 15 -138 26 -147 26 -228 5 -72 -20 -89 -21 -235 -11 -409 25 -506 30 -620 30 -157 0 -205 11 -226 53 -8 17 -13 34 -11 38 5 8 92 25 293 59 145 24 181 30 257 40 44 6 107 15 140 20 228 34 434 37 580 9 88 -17 179 -17 275 0 97 18 530 27 530 12 0 -9 -101 -272 -142 -371 -6 -14 -14 -34 -18 -45 -23 -59 -96 -250 -122 -320 -16 -44 -34 -89 -38 -100 -4 -11 -18 -47 -30 -80 -12 -33 -26 -69 -30 -80 -4 -11 -18 -47 -30 -80 -12 -33 -26 -69 -30 -80 -17 -41 -43 -111 -50 -135 -5 -14 -23 -63 -40 -110 -17 -47 -35 -96 -40 -110 -5 -14 -23 -63 -40 -110 -17 -47 -35 -96 -40 -110 -5 -14 -22 -63 -40 -110 -17 -47 -40 -110 -50 -140 -10 -30 -33 -93 -50 -140 -17 -47 -40 -110 -50 -140 -28 -83 -70 -203 -80 -225 -11 -25 -54 -147 -86 -245 -14 -41 -29 -84 -34 -95 -5 -11 -20 -54 -34 -95 -14 -41 -48 -140 -76 -220 -28 -80 -62 -179 -76 -220 -14 -41 -29 -84 -34 -95 -10 -23 -79 -225 -146 -425 -25 -74 -49 -144 -54 -155 -5 -11 -30 -81 -54 -155 -25 -74 -77 -227 -116 -340 -39 -113 -111 -324 -160 -470 -49 -146 -130 -384 -179 -530 -117 -345 -119 -395 -12 -339 263 137 485 296 512 367 6 15 15 22 27 20 25 -5 20 -51 -17 -131 -17 -37 -31 -73 -31 -80 0 -7 -4 -17 -8 -23 -5 -5 -14 -29 -21 -54 -7 -25 -17 -55 -22 -68 -5 -13 -9 -52 -9 -87 0 -58 4 -70 42 -129 l42 -66 48 0 c44 0 54 5 115 57 152 128 251 219 408 377 283 283 401 458 461 681 16 61 20 77 47 175 9 30 22 80 31 110 8 30 33 118 56 195 23 77 45 154 50 170 67 242 238 741 315 920 68 158 118 258 151 303 23 30 29 32 82 32 58 0 76 -8 132 -56 143 -124 822 -671 1035 -834 454 -347 741 -551 1025 -727 65 -41 117 -70 243 -137 38 -20 86 -48 107 -63 21 -16 92 -66 157 -112 65 -46 141 -101 168 -121 28 -20 95 -68 150 -106 55 -39 131 -93 170 -120 301 -212 916 -621 1250 -831 215 -135 529 -325 633 -383 34 -19 41 -28 36 -44 -4 -12 -11 -34 -15 -51 -4 -16 -13 -48 -19 -70 -27 -96 -32 -127 -22 -137 19 -19 52 4 112 80 33 42 67 85 75 94 15 19 33 16 75 -12 14 -9 46 -27 73 -41 46 -24 60 -51 38 -74 -10 -11 -177 -344 -260 -517 -28 -60 -73 -154 -100 -210 -27 -57 -66 -139 -86 -183 -60 -129 -111 -237 -130 -278 -17 -37 -17 -38 9 -92 20 -43 31 -55 48 -55 32 0 41 9 62 55 11 22 43 92 73 155 30 63 71 149 90 190 153 324 433 889 444 895 8 6 281 -132 331 -167 14 -10 29 -18 33 -18 4 0 19 -8 33 -19 15 -10 43 -28 62 -39 19 -11 230 -137 469 -281 239 -144 436 -261 438 -261 3 0 17 -8 31 -19 15 -10 43 -28 62 -39 19 -10 76 -43 125 -72 361 -211 470 -272 633 -357 91 -47 132 -63 155 -61 l32 3 0 65 0 64 -42 11 c-62 15 -83 37 -83 86 0 40 1 41 28 35 226 -49 231 -49 330 17 51 34 55 62 12 104 -31 31 -138 89 -186 102 -15 4 -32 14 -37 22 -21 33 93 218 166 267 62 42 72 44 98 16 29 -31 102 -33 159 -4 49 25 62 25 85 1 21 -24 184 -104 326 -160 101 -40 109 -42 200 -39 91 3 94 4 94 26 0 26 -5 29 -170 117 -49 26 -117 62 -150 80 -33 18 -100 54 -150 80 -49 26 -112 60 -140 75 -27 15 -77 42 -110 60 -33 18 -82 45 -110 60 -27 15 -84 46 -126 68 -42 22 -119 64 -170 93 -109 60 -167 91 -264 145 -38 20 -92 50 -118 66 -26 15 -50 28 -52 28 -2 0 -30 15 -62 34 -32 18 -78 45 -103 58 -124 69 -150 84 -210 118 -36 20 -85 48 -110 62 -25 14 -63 35 -85 48 -22 13 -65 36 -95 53 -30 16 -59 33 -65 37 -5 4 -27 17 -47 29 -39 22 -80 45 -145 83 -21 11 -55 30 -75 41 -21 12 -38 24 -38 27 0 4 181 10 403 14 2274 41 2340 42 2391 66 54 24 56 24 71 3 9 -12 32 -18 78 -21 56 -4 74 0 116 21 l50 25 14 -22 14 -21 679 0 c785 0 797 1 911 84 47 34 68 68 78 126 9 49 19 63 59 79 65 26 290 55 446 58 99 1 122 -1 164 -20 30 -14 53 -19 60 -14 22 18 144 31 338 37 108 3 199 2 202 -3 2 -4 -25 -32 -62 -60 -200 -155 -734 -571 -778 -606 -28 -23 -107 -84 -174 -136 -67 -52 -130 -102 -140 -110 -11 -8 -85 -67 -165 -130 -311 -244 -670 -532 -677 -543 -11 -18 2 -60 24 -80 33 -28 75 -21 127 22 122 101 507 381 525 381 2 0 33 17 67 38 119 71 252 122 321 122 l38 0 0 -83 0 -83 -82 -80 c-128 -122 -386 -343 -648 -554 -58 -46 -107 -87 -110 -90 -3 -3 -49 -40 -102 -83 -53 -43 -102 -84 -108 -92 -22 -27 69 -105 220 -187 208 -113 202 -111 240 -98 157 56 553 264 732 385 29 19 57 35 63 35 5 -1 28 -9 50 -20 22 -11 44 -19 49 -20 13 0 187 104 416 250 279 178 526 346 839 569 84 61 607 452 696 521 39 30 111 85 160 124 126 98 420 333 544 435 99 82 102 86 73 89 -49 5 -162 -55 -308 -165 -40 -29 -74 -53 -78 -53 -3 0 -6 18 -6 39 0 38 3 41 123 132 369 280 688 519 692 519 18 0 -4 -41 -65 -122 -47 -63 -70 -102 -70 -120 0 -34 3 -34 43 -6 51 35 272 201 277 208 3 3 14 13 26 21 12 8 43 33 70 55 27 23 92 77 144 120 123 102 116 96 320 275 145 127 462 410 480 429 3 3 57 52 120 110 63 58 122 112 130 120 8 8 42 40 75 70 80 73 339 315 440 411 141 134 218 204 325 299 58 51 121 107 140 124 19 17 91 80 160 140 69 60 141 123 160 140 19 17 100 87 180 156 80 68 147 127 150 130 3 3 34 30 70 60 36 30 67 57 70 60 3 3 100 85 216 182 232 192 384 309 456 351 26 15 53 33 60 40 7 6 31 27 53 46 52 44 191 168 280 250 106 98 453 448 515 519 l54 63 141 -4 c77 -2 174 -9 215 -16 67 -10 76 -9 87 5 10 14 25 16 100 11 48 -4 151 -11 228 -16 77 -6 300 -10 495 -11 195 0 373 -5 395 -9 147 -32 158 -33 167 -17 11 20 26 20 86 2 26 -8 59 -17 75 -20 25 -6 27 -10 27 -59 0 -60 14 -44 -230 -267 -63 -58 -117 -107 -120 -110 -3 -3 -57 -52 -120 -110 -63 -58 -117 -107 -120 -110 -3 -3 -57 -52 -120 -110 -120 -110 -190 -174 -300 -276 -36 -33 -92 -85 -125 -115 -56 -51 -118 -108 -230 -211 -27 -26 -138 -119 -245 -208 -308 -257 -291 -240 -339 -331 -24 -46 -60 -115 -81 -154 -21 -38 -60 -113 -88 -165 -27 -52 -60 -113 -72 -135 -12 -22 -36 -47 -53 -56 -22 -10 -36 -28 -44 -52 -17 -49 -8 -70 25 -62 35 9 51 33 52 76 0 36 1 37 48 43 26 4 73 12 104 19 32 6 60 9 62 6 3 -3 -19 -55 -49 -117 -59 -121 -66 -160 -39 -218 14 -30 14 -35 0 -56 -24 -35 -21 -66 9 -74 14 -3 37 -3 52 0 65 17 181 126 200 188 11 38 15 39 108 4 38 -14 80 -26 91 -26 12 0 27 -6 33 -14 14 -16 -1 -31 -41 -41 -37 -9 -85 -65 -98 -116 -25 -92 7 -95 119 -12 137 102 455 342 511 385 71 56 349 275 375 297 11 9 124 99 250 201 205 164 305 246 385 314 14 12 61 50 105 86 128 104 839 699 901 755 7 5 196 168 421 360 297 253 413 359 422 381 13 36 62 71 141 101 74 28 193 56 310 72 359 50 737 71 1243 71 407 0 367 12 342 -100 -23 -103 -39 -159 -70 -240 -23 -62 -30 -78 -54 -132 -12 -26 -21 -50 -21 -53 0 -15 -187 -399 -283 -580 -77 -146 -139 -259 -147 -270 -4 -5 -21 -35 -37 -65 -37 -67 -64 -115 -162 -283 -28 -49 -51 -90 -51 -92 0 -2 -14 -28 -31 -57 -44 -73 -149 -278 -149 -290 0 -14 -104 -217 -130 -253 -4 -5 -23 -40 -44 -78 -20 -37 -53 -97 -73 -135 -86 -156 -126 -234 -189 -362 -36 -74 -69 -143 -75 -152 -5 -10 -9 -23 -9 -29 0 -11 -38 -90 -78 -160 -11 -19 -43 -80 -72 -135 -29 -54 -56 -103 -60 -109 -4 -5 -30 -54 -59 -107 -28 -54 -62 -117 -75 -140 -41 -76 -83 -151 -120 -220 -20 -38 -52 -98 -72 -135 -37 -70 -79 -145 -120 -221 -13 -23 -47 -86 -76 -140 -51 -97 -78 -142 -178 -302 -53 -86 -98 -160 -130 -215 -100 -172 -200 -348 -200 -351 0 -2 -13 -25 -28 -51 -112 -190 -402 -771 -541 -1085 -46 -104 -64 -145 -87 -196 -13 -29 -24 -55 -24 -57 0 -2 -11 -28 -24 -57 -39 -86 -76 -181 -76 -195 0 -7 8 -13 17 -13 10 0 36 -7 59 -16 38 -15 44 -14 74 1 29 15 33 15 49 1 26 -24 30 -20 33 37 3 51 4 52 33 51 17 -1 63 -7 103 -14 57 -10 78 -10 102 0 56 23 170 169 170 218 0 17 11 53 44 146 23 63 84 136 115 136 10 0 24 6 30 14 6 7 60 109 120 227 59 118 122 238 140 267 17 29 31 55 31 58 0 9 91 142 105 154 8 7 15 16 15 20 0 18 167 363 240 495 69 126 123 213 151 243 16 18 48 67 71 109 60 115 159 298 188 348 157 272 250 410 305 453 36 29 50 23 49 -19 -1 -24 -26 -72 -88 -169 -90 -140 -128 -213 -249 -480 -56 -123 -136 -290 -273 -565 -178 -358 -300 -590 -415 -792 -12 -21 -35 -63 -52 -93 -17 -30 -38 -67 -49 -82 -10 -14 -18 -28 -18 -31 0 -3 -23 -43 -51 -89 -29 -46 -65 -105 -81 -132 -16 -27 -47 -75 -68 -107 l-40 -58 0 -160 c0 -97 4 -162 10 -166 21 -13 46 8 95 77 28 39 65 91 83 116 56 74 500 748 604 914 26 43 71 115 100 160 111 178 480 787 529 874 9 17 36 62 58 99 23 37 41 68 41 70 0 2 18 33 41 70 22 37 49 82 59 99 14 25 105 182 221 384 11 17 28 48 39 67 11 19 29 51 40 70 11 19 30 52 41 73 12 20 35 62 52 92 17 30 38 67 49 82 10 14 18 28 18 31 0 3 33 63 74 134 40 70 85 149 100 176 14 26 38 68 52 95 15 26 51 89 80 140 30 52 54 95 54 97 0 2 23 42 50 90 28 48 50 88 50 90 0 2 23 42 50 90 28 48 50 88 50 90 0 2 13 26 28 52 16 26 46 80 66 118 21 39 51 93 66 120 15 28 44 82 65 120 21 39 41 75 45 80 4 6 24 42 45 80 21 39 50 93 65 120 72 133 92 169 119 218 16 28 50 93 76 142 26 50 51 95 55 100 4 6 29 51 55 100 26 50 60 113 75 140 15 28 47 86 70 130 23 44 55 103 70 130 15 28 47 86 70 130 23 44 55 103 70 130 15 28 51 95 80 150 29 55 65 123 80 150 25 45 112 208 131 245 4 8 19 47 34 85 86 226 247 405 462 511 51 25 93 49 93 54 0 4 -7 24 -16 45 -8 21 -13 43 -11 49 3 7 40 18 84 25 84 14 159 45 177 75 9 15 4 23 -29 53 -37 32 -158 109 -198 125 -29 12 -31 35 -7 86 12 26 34 72 47 102 14 30 41 88 59 128 19 39 46 98 60 130 15 31 41 89 60 128 18 39 47 101 64 138 16 36 44 95 60 131 17 36 44 94 60 130 17 36 44 94 60 130 17 36 44 94 60 130 17 36 44 94 60 130 17 36 44 94 60 130 17 36 44 94 60 130 17 36 44 94 60 130 17 36 44 94 60 130 17 36 44 94 60 130 17 36 44 94 60 130 17 36 44 94 60 130 17 36 44 94 60 130 17 36 44 94 60 130 17 36 44 95 61 133 40 85 71 155 97 212 11 25 29 66 41 93 11 26 31 68 42 95 12 26 32 71 45 100 13 29 24 55 24 57 0 2 14 34 30 70 17 36 30 68 30 70 0 3 10 27 21 53 12 26 27 61 34 77 25 57 178 441 206 518 16 42 43 114 60 160 17 45 37 102 45 127 8 25 19 54 24 65 20 44 100 297 100 316 0 11 -20 44 -43 72 -63 75 -118 159 -177 272 -55 107 -55 104 -30 228 22 108 -2 113 -98 20 -162 -158 -382 -367 -487 -462 -33 -30 -87 -80 -120 -110 -33 -31 -103 -94 -155 -141 -52 -47 -97 -87 -100 -90 -3 -3 -68 -61 -145 -129 -77 -68 -158 -140 -180 -160 -22 -20 -132 -117 -245 -215 -113 -99 -221 -193 -240 -210 -19 -17 -100 -87 -180 -156 -80 -68 -147 -127 -150 -130 -3 -3 -34 -30 -70 -60 -36 -30 -67 -57 -70 -60 -5 -6 -321 -276 -419 -359 -30 -25 -102 -87 -160 -137 -58 -49 -243 -200 -411 -334 -168 -134 -307 -246 -310 -249 -3 -3 -52 -44 -110 -91 -58 -47 -116 -94 -130 -106 -14 -12 -68 -57 -120 -100 -108 -90 -105 -87 -260 -220 -188 -162 -342 -307 -392 -368 -25 -32 -64 -70 -85 -83 -38 -26 -55 -38 -238 -173 -177 -130 -310 -254 -340 -318 -11 -21 -33 -41 -65 -57 -49 -25 -100 -79 -100 -107 0 -24 -12 -29 -32 -12 -17 16 -21 14 -70 -32 -108 -101 -210 -161 -353 -209 -120 -40 -177 -47 -450 -54 l-249 -6 -24 -35 c-12 -19 -22 -43 -20 -55 3 -17 11 -20 61 -23 47 -2 57 -6 57 -21 0 -18 -1 -18 -237 -52 -98 -14 -521 -6 -618 12 -90 16 -134 15 -220 -4 -52 -12 -124 -16 -275 -16 -292 0 -379 19 -415 89 -23 45 -48 39 -63 -15 -14 -54 -46 -78 -99 -73 l-38 3 -5 55 -5 55 -205 5 -205 5 -6 140 c-4 103 -11 157 -26 205 -12 36 -34 104 -48 152 -26 86 -27 87 -78 114 -29 15 -80 44 -115 65 -35 22 -66 39 -68 39 -3 0 -46 28 -97 62 -103 69 -203 160 -193 176 3 5 31 18 61 27 75 24 81 33 53 89 l-22 46 -65 0 c-76 1 -325 25 -391 39 -155 32 -239 84 -266 164 l-11 32 -137 3 c-118 2 -146 0 -195 -18 -55 -19 -58 -19 -106 -2 -48 17 -84 26 -225 54 -91 18 -970 18 -1125 0 -342 -40 -551 -68 -757 -102 -32 -6 -85 -14 -118 -20 -97 -16 -182 -31 -230 -40 -25 -5 -74 -14 -110 -20 -36 -6 -85 -16 -110 -21 -25 -5 -110 -22 -190 -38 l-145 -29 -55 31 c-30 18 -83 59 -117 93 -53 52 -62 67 -68 109 -8 48 -8 48 41 94 86 82 213 168 444 304 108 63 127 74 225 127 202 110 307 164 690 354 398 197 474 234 600 291 33 15 87 40 120 55 33 15 85 39 115 53 30 13 85 39 123 56 37 17 96 45 132 61 36 17 94 44 130 60 36 17 94 43 129 59 35 16 102 48 150 70 164 78 261 123 336 158 206 96 658 324 678 343 26 24 29 48 6 57 -9 3 -48 -2 -87 -12 -40 -10 -88 -21 -107 -26 -35 -7 -165 -42 -227 -60 -18 -5 -48 -13 -65 -18 -65 -17 -201 -71 -244 -96 -38 -22 -54 -25 -112 -23 l-67 3 0 45 c0 37 3 45 20 48 59 8 285 85 450 152 11 5 74 29 140 55 66 26 136 54 155 62 19 8 44 19 55 23 11 4 36 15 55 23 19 9 71 30 115 47 44 17 95 38 113 46 17 8 47 20 65 28 17 8 57 24 87 36 30 12 78 32 108 46 29 13 55 24 57 24 2 0 34 14 70 30 36 17 68 30 70 30 3 0 27 10 53 21 77 35 105 46 152 65 25 9 53 24 62 32 16 13 15 17 -5 58 -21 43 -22 44 -71 44 -27 0 -79 -5 -115 -10 -36 -6 -97 -15 -136 -21 -92 -13 -197 -31 -367 -60 -36 -6 -76 -8 -87 -4 -32 10 -26 42 12 58 163 73 301 104 313 72 15 -38 78 -37 162 1 28 13 46 14 110 4 42 -6 114 -16 158 -22 l82 -11 83 55 c129 84 237 137 351 172 32 10 60 22 64 27 3 5 -11 35 -30 67 -39 64 -53 107 -37 116 12 8 149 58 221 82 25 8 54 19 65 24 11 5 130 45 265 90 243 79 262 86 350 110 90 25 90 24 90 81 l0 52 -222 -7 c-270 -8 -465 -24 -698 -57 -109 -16 -171 -16 -298 -1 -97 11 -105 11 -142 -8 -49 -25 -56 -25 -63 -1 -4 17 -19 19 -168 25 -90 3 -414 8 -719 11 -1599 14 -3332 42 -3440 54 -47 6 -128 15 -180 19 -92 9 -96 9 -123 -14 -36 -30 -70 -30 -133 0 -53 27 -64 27 -274 -6 -141 -21 -231 -17 -483 21 -49 8 -66 6 -115 -12 -79 -30 -224 -30 -302 -1 -59 22 -86 21 -245 -8 -128 -24 -313 -17 -564 21 -48 7 -72 7 -95 -3 -104 -43 -274 -46 -381 -7 -32 11 -59 21 -60 20 0 0 -29 -6 -65 -14z" fill="#000000" id="000000-000001"/>
    <path stroke="none" d="M27135 20250 l0 -45 -74 -3 -73 -3 7 28 c3 15 7 29 8 29 29 24 79 44 102 42 28 -3 30 -5 30 -48z" fill="#ffffff" id="ffffff-000003"/>
    <path stroke="none" d="M27697 20284 c11 -29 -16 -38 -134 -46 -65 -4 -149 -12 -188 -18 -123 -20 -175 -23 -175 -12 0 5 10 29 22 51 l22 41 223 0 c194 0 224 -2 230 -16z" fill="#ffffff" id="ffffff-000004"/>
    <path stroke="none" d="M26843 20270 c9 -11 31 -23 47 -27 28 -5 30 -9 30 -51 l0 -45 -103 6 c-69 4 -117 12 -149 26 -43 18 -50 19 -76 5 -94 -46 -280 -43 -489 8 -32 8 -43 16 -43 29 0 17 9 19 108 19 102 0 418 23 547 39 98 13 110 12 128 -9z" fill="#ffffff" id="ffffff-000002"/>
    <path stroke="none" d="M24570 20170 c47 -24 54 -34 46 -66 -11 -43 -60 -64 -153 -64 l-83 0 0 48 c0 49 20 80 60 95 33 12 93 6 130 -13z" fill="#ffffff" id="ffffff-000005"/>
    <path stroke="none" d="M13335 19660 c0 -12 -19 -16 -97 -18 -93 -3 -98 -2 -98 18 0 20 5 21 98 18 78 -2 97 -6 97 -18z" fill="#ffffff" id="ffffff-000006"/>
    <path stroke="none" d="M28360 19605 l0 -25 -169 0 c-170 0 -189 4 -177 35 4 12 36 15 176 15 l170 0 0 -25z" fill="#ffffff" id="ffffff-000007"/>
    <path stroke="none" d="M27335 19555 c0 -18 -8 -20 -89 -23 -91 -3 -113 4 -102 33 5 13 21 15 98 13 85 -3 93 -5 93 -23z" fill="#ffffff" id="ffffff-000008"/>
    <path stroke="none" d="M30190 19350 c30 -5 84 -14 119 -20 34 -6 79 -9 100 -6 34 6 111 11 508 36 114 7 187 7 250 -1 48 -6 109 -13 136 -16 26 -3 47 -9 47 -13 0 -15 -139 -69 -195 -74 -33 -3 -85 -10 -115 -16 -51 -9 -56 -8 -81 15 -58 56 -178 80 -285 57 -27 -6 -78 -16 -114 -22 -70 -12 -124 -22 -210 -39 -147 -28 -141 -29 -211 31 -35 30 -65 62 -67 71 -4 18 -10 18 118 -3z" fill="#ffffff" id="ffffff-000009"/>
    <path stroke="none" d="M27677 19281 c13 -19 22 -39 20 -45 -2 -7 -54 -11 -148 -11 l-144 0 -3 48 -3 48 128 -3 127 -3 23 -34z" fill="#ffffff" id="ffffff-000010"/>
    <path stroke="none" d="M29025 19300 c0 -12 -18 -16 -89 -18 -87 -3 -115 5 -101 27 4 8 38 11 98 9 74 -2 92 -6 92 -18z" fill="#ffffff" id="ffffff-000011"/>
    <path stroke="none" d="M27075 19245 c0 -19 -8 -20 -189 -23 -111 -1 -194 2 -199 7 -5 5 -7 17 -4 26 6 13 31 15 199 13 185 -3 193 -4 193 -23z" fill="#ffffff" id="ffffff-000012"/>
    <path stroke="none" d="M18705 19140 c34 -7 90 -22 230 -59 40 -11 185 -60 213 -71 12 -6 32 -14 45 -19 60 -23 168 -79 219 -113 99 -66 128 -124 113 -223 -9 -64 -68 -123 -150 -150 -44 -15 -61 -25 -63 -40 -4 -28 36 -63 83 -73 l40 -8 3 -169 c6 -286 -30 -431 -159 -650 -72 -122 -295 -362 -401 -432 -49 -33 -72 -25 -63 19 9 40 42 113 67 150 23 33 20 81 -4 86 -20 4 -48 -23 -142 -133 -131 -153 -401 -450 -486 -535 -79 -79 -176 -163 -311 -273 -240 -193 -604 -402 -1041 -596 -27 -12 -67 -30 -91 -40 -24 -11 -68 -30 -98 -41 -30 -12 -70 -28 -89 -37 -19 -8 -44 -18 -55 -23 -11 -4 -32 -12 -47 -19 -53 -21 -73 -29 -158 -61 -47 -18 -94 -36 -105 -40 -11 -4 -45 -17 -75 -28 -30 -11 -75 -28 -100 -37 -25 -9 -83 -30 -130 -45 -47 -15 -105 -36 -128 -45 -49 -20 -50 -23 -14 -112 20 -49 20 -53 4 -72 -26 -31 -142 -84 -247 -111 -104 -28 -309 -79 -360 -89 -33 -7 -78 -17 -100 -21 -82 -18 -113 -21 -120 -10 -6 9 117 335 176 467 10 24 19 47 19 53 0 6 4 18 9 28 5 9 13 28 19 42 5 14 17 41 25 60 8 19 57 139 107 265 50 127 99 246 107 265 8 19 19 44 23 55 4 11 15 36 23 55 9 19 30 71 47 115 17 44 43 104 56 133 13 29 24 55 24 57 0 3 9 25 20 50 11 25 29 65 40 90 11 25 20 47 20 50 0 2 14 34 30 70 17 36 30 68 30 70 0 2 11 28 24 57 13 29 33 73 44 98 11 25 30 68 42 95 105 236 202 429 265 525 21 31 34 71 76 225 6 22 15 51 20 65 4 14 22 72 39 130 36 119 87 275 100 305 4 11 18 47 30 80 12 33 28 74 35 90 70 166 94 219 125 280 66 125 84 155 110 185 l25 30 520 10 c809 15 1409 31 1414 36 3 2 12 2 20 -1 9 -4 34 -10 56 -15z" fill="#ffffff" id="ffffff-000013"/>
    <path stroke="none" d="M13649 19133 c0 -5 -33 -34 -72 -65 l-72 -58 -110 5 c-228 11 -483 26 -555 33 l-75 7 -3 43 -3 42 445 0 c245 0 446 -3 445 -7z" fill="#ffffff" id="ffffff-000014"/>
    <path stroke="none" d="M30925 19110 c3 -5 2 -10 -4 -10 -20 0 -197 -118 -252 -167 -14 -13 -137 -80 -274 -149 -137 -69 -254 -129 -260 -133 -5 -5 -46 -27 -90 -51 -44 -24 -92 -51 -107 -61 -14 -11 -29 -19 -33 -19 -3 0 -26 -13 -50 -30 -24 -16 -46 -30 -49 -30 -4 0 -37 -20 -74 -43 -37 -24 -94 -61 -127 -82 -68 -43 -134 -90 -314 -224 -173 -128 -267 -209 -434 -371 -487 -471 -748 -987 -783 -1548 l-6 -102 55 -68 c74 -89 234 -244 322 -310 119 -88 243 -143 358 -157 33 -4 50 -12 54 -23 33 -105 116 -228 174 -258 33 -17 156 -19 279 -4 47 6 123 15 170 21 81 10 134 17 273 39 158 24 157 24 157 -3 0 -65 -273 -246 -372 -247 -50 0 -58 -9 -58 -61 0 -32 5 -51 13 -55 7 -2 58 12 113 32 54 19 110 39 124 44 14 5 77 27 140 50 140 50 339 116 480 160 58 18 125 39 150 48 25 8 61 19 80 24 19 5 50 13 68 19 72 21 100 29 175 48 144 39 232 61 277 72 25 5 61 14 80 18 97 24 294 63 403 81 323 54 452 68 694 76 l182 7 114 -57 c67 -33 134 -74 161 -99 l46 -43 0 -91 0 -91 -72 -6 c-40 -3 -172 -8 -293 -12 -121 -3 -224 -10 -229 -15 -6 -6 -6 -19 0 -36 8 -25 15 -28 62 -31 44 -3 53 -6 50 -20 -3 -14 -20 -18 -108 -23 -58 -4 -115 -10 -126 -14 -13 -4 -25 -2 -28 4 -15 24 -153 9 -251 -28 -140 -53 -425 -241 -425 -281 0 -78 319 -145 859 -179 79 -6 149 -15 155 -21 12 -12 5 -19 -284 -284 -225 -206 -250 -229 -370 -336 -52 -47 -97 -87 -100 -90 -3 -3 -70 -64 -150 -134 -80 -71 -161 -143 -180 -160 -45 -40 -380 -332 -575 -502 -82 -72 -247 -213 -365 -314 -118 -100 -229 -195 -245 -209 -17 -14 -86 -73 -155 -131 -69 -57 -127 -107 -130 -110 -22 -24 -162 -132 -529 -408 -158 -119 -324 -244 -370 -280 -46 -35 -159 -121 -250 -190 -198 -150 -385 -292 -498 -379 -46 -35 -121 -92 -168 -128 -47 -36 -123 -94 -170 -130 -47 -36 -124 -95 -172 -132 -49 -37 -115 -88 -148 -113 -33 -25 -89 -69 -125 -96 -36 -28 -96 -74 -135 -104 -116 -89 -191 -147 -262 -202 -38 -28 -84 -64 -103 -80 -19 -15 -38 -28 -42 -28 -15 0 -8 64 13 132 26 82 69 135 129 158 43 17 45 20 48 60 2 25 -2 46 -8 50 -17 10 -131 1 -215 -17 -105 -22 -180 -27 -243 -14 -223 44 -257 51 -318 73 -37 13 -44 13 -85 -6 -63 -30 -203 -27 -784 15 -132 9 -143 8 -182 -11 -52 -25 -56 -25 -78 0 -11 12 -31 20 -52 20 -19 0 -51 -9 -73 -20 -48 -25 -65 -25 -98 -2 -15 10 -43 23 -62 29 -19 5 -54 16 -78 23 -61 19 -35 30 73 30 148 0 546 41 700 71 232 47 349 96 404 170 30 40 38 46 60 40 18 -5 33 -21 49 -53 22 -44 25 -46 55 -38 18 4 64 13 102 19 39 7 91 17 118 23 l47 10 0 48 c0 46 -1 48 -32 54 -18 3 -114 11 -213 16 -232 14 -447 27 -660 40 -346 21 -494 30 -655 40 -91 6 -237 15 -325 20 -88 5 -238 14 -333 20 -95 5 -195 12 -223 16 -47 6 -53 5 -76 -20 -23 -25 -30 -27 -77 -21 -60 7 -148 22 -228 37 -66 12 -124 7 -201 -20 -50 -18 -56 -18 -94 -3 -23 9 -45 19 -49 24 -18 17 -484 -5 -665 -32 -44 -7 -93 -7 -150 0 -206 25 -323 31 -774 38 -271 5 -497 13 -520 19 -22 5 -62 14 -88 20 -27 5 -53 14 -58 19 -6 6 -4 30 5 64 23 86 31 107 86 244 59 149 73 180 193 440 55 120 579 1166 664 1325 36 69 146 283 243 475 198 391 270 517 372 653 75 99 202 222 229 222 9 0 48 -13 87 -29 39 -16 72 -27 75 -25 5 5 297 81 357 93 34 7 58 4 150 -19 137 -35 413 -16 770 51 53 10 74 15 185 39 65 14 240 59 285 72 65 20 182 21 246 2 69 -21 153 -22 244 -4 46 9 254 15 705 20 677 9 804 15 1110 59 105 15 270 43 355 60 25 5 70 14 100 19 88 17 90 18 90 73 l0 49 -37 0 c-48 1 -151 23 -180 38 -29 16 -43 43 -43 82 0 70 -56 129 -155 165 -11 4 -60 12 -110 19 l-90 11 -3 42 c-3 47 6 56 73 67 22 3 63 11 90 17 29 7 199 14 405 18 l355 6 3 29 c7 58 -4 74 -55 80 -27 3 -93 10 -148 16 -55 7 -124 16 -152 22 l-53 9 0 50 0 49 148 0 c164 0 186 8 198 66 l6 31 -119 12 c-238 23 -332 42 -379 77 -27 20 -45 23 -200 28 -158 6 -257 10 -839 36 -1480 66 -2350 133 -2525 194 -59 21 -83 20 -132 -4 -56 -27 -62 -26 -81 15 -22 47 -21 67 4 112 38 67 65 115 162 293 39 72 69 126 97 175 13 22 34 60 48 85 14 25 51 90 82 145 31 55 68 120 82 145 14 25 49 86 78 135 29 50 60 104 70 120 24 43 207 344 269 445 101 163 260 377 311 417 8 7 21 13 28 13 24 0 11 -48 -38 -146 -62 -121 -62 -138 0 -142 25 -1 50 1 56 5 6 5 42 69 81 143 38 74 80 153 93 175 13 22 28 49 34 60 40 73 116 193 159 251 71 96 199 226 250 253 53 29 64 29 662 42 771 16 1658 54 2795 119 381 21 440 23 463 13 59 -28 84 -33 154 -33 42 0 114 4 162 10 47 5 154 14 236 20 83 6 209 15 280 20 72 5 220 14 330 20 166 9 287 16 472 29 12 0 25 -3 28 -9z" fill="#ffffff" id="ffffff-000015"/>
    <path stroke="none" d="M15178 19057 c6 -7 9 -23 5 -35 -4 -18 -12 -22 -47 -21 -22 0 -59 3 -80 7 -47 8 -36 21 34 41 25 8 50 15 55 16 19 6 23 5 33 -8z" fill="#ffffff" id="ffffff-000016"/>
    <path stroke="none" d="M15640 18990 c0 -25 -4 -30 -25 -30 -33 0 -43 26 -19 45 30 23 44 18 44 -15z" fill="#ffffff" id="ffffff-000017"/>
    <path stroke="none" d="M13360 18892 c0 -5 -17 -24 -37 -42 -140 -125 -292 -273 -395 -383 -99 -106 -118 -131 -113 -150 10 -30 35 -55 65 -62 22 -5 53 16 220 156 107 89 206 171 220 183 122 103 127 106 174 106 41 0 46 -3 46 -22 0 -17 -86 -157 -109 -178 -4 -3 -35 -39 -71 -80 -36 -41 -67 -77 -70 -80 -3 -3 -34 -39 -70 -80 -36 -41 -67 -77 -70 -80 -3 -3 -34 -39 -70 -80 -36 -41 -67 -77 -70 -80 -3 -3 -34 -39 -70 -80 -36 -41 -68 -76 -72 -78 -5 -2 -8 -19 -8 -38 0 -53 38 -47 108 19 118 110 246 224 372 331 293 248 541 411 658 431 l42 7 0 -50 c0 -27 -7 -63 -15 -78 -24 -46 -20 -54 29 -54 39 0 55 8 128 63 129 97 271 196 413 290 l130 86 208 -6 c231 -7 221 -3 197 -77 -6 -17 -30 -92 -54 -167 -25 -74 -52 -155 -61 -180 -9 -24 -26 -69 -37 -99 -11 -30 -24 -64 -28 -75 -4 -11 -22 -58 -40 -105 -18 -47 -36 -94 -40 -105 -5 -11 -38 -96 -75 -190 -37 -93 -74 -186 -82 -205 -8 -19 -19 -44 -23 -55 -4 -11 -15 -36 -23 -55 -9 -19 -34 -82 -57 -140 -23 -58 -50 -123 -60 -146 -11 -22 -29 -65 -40 -95 -12 -29 -32 -77 -46 -107 -13 -29 -24 -55 -24 -57 0 -3 -9 -25 -20 -50 -11 -25 -29 -65 -40 -90 -11 -25 -20 -47 -20 -50 0 -2 -13 -34 -30 -70 -16 -36 -30 -68 -30 -70 0 -2 -11 -29 -25 -60 -14 -30 -36 -80 -50 -110 -14 -31 -25 -58 -25 -60 0 -2 -13 -34 -30 -70 -16 -36 -30 -68 -30 -70 0 -2 -13 -34 -30 -70 -16 -36 -30 -68 -30 -70 0 -2 -13 -33 -28 -67 -16 -35 -34 -79 -42 -98 -7 -19 -17 -39 -22 -44 -4 -6 -8 -17 -8 -26 0 -20 -22 -41 -72 -69 -28 -15 -44 -18 -65 -12 -15 5 -48 14 -73 21 -168 47 -283 95 -324 137 -26 26 0 27 -276 -7 -47 -5 -135 -10 -197 -10 -103 0 -112 2 -118 20 -8 27 3 60 20 60 8 0 37 -9 65 -20 45 -18 60 -19 123 -10 77 11 477 39 565 40 49 0 53 2 50 21 -3 24 -9 27 -83 55 -60 22 -126 23 -335 5 -85 -7 -200 -16 -255 -20 l-100 -7 -80 85 c-97 102 -183 161 -234 161 -36 -1 -103 -17 -151 -37 -16 -7 -34 -7 -50 -1 -113 44 -244 51 -315 16 l-45 -22 -23 22 c-22 21 -32 22 -199 22 -162 0 -179 -2 -217 -22 l-41 -22 -25 24 -25 24 -45 -22 c-47 -23 -75 -28 -75 -14 0 18 -122 72 -162 72 -21 0 -22 9 -7 47 18 44 26 65 44 113 17 46 27 71 64 152 11 26 21 50 21 52 0 18 184 393 262 535 32 58 58 106 58 107 0 1 18 32 41 69 22 37 49 82 59 99 9 17 50 82 89 144 39 62 71 114 71 117 0 2 23 41 51 87 29 46 64 104 80 129 46 79 210 320 262 389 180 233 308 357 436 421 32 16 68 18 324 19 158 0 287 -4 287 -8z" fill="#ffffff" id="ffffff-000018"/>
    <path stroke="none" d="M32836 18826 c14 -58 16 -57 -342 -228 -65 -31 -193 -92 -284 -136 -91 -44 -204 -98 -252 -121 -49 -22 -127 -59 -174 -82 -48 -22 -116 -54 -151 -70 -36 -17 -98 -45 -137 -63 -39 -19 -96 -45 -126 -59 -30 -13 -85 -39 -123 -56 -37 -17 -70 -31 -72 -31 -2 0 -33 -13 -67 -29 -91 -42 -154 -61 -195 -61 -33 0 -35 2 -23 14 8 8 56 38 105 67 50 28 104 59 120 69 134 78 277 160 280 160 2 0 41 22 87 48 214 124 644 348 813 424 139 62 192 85 225 97 19 7 44 17 55 21 74 30 179 57 227 59 21 1 29 -5 34 -23z" fill="#ffffff" id="ffffff-000019"/>
    <path stroke="none" d="M15740 18263 c0 -42 -26 -128 -48 -165 -32 -52 -122 -93 -122 -56 0 24 84 178 115 213 39 42 55 44 55 8z" fill="#ffffff" id="ffffff-000020"/>
    <path stroke="none" d="M19980 17915 c16 -19 6 -46 -41 -105 -23 -30 -47 -50 -59 -50 -17 0 -20 7 -20 54 0 75 26 106 96 115 6 0 17 -6 24 -14z" fill="#ffffff" id="ffffff-000021"/>
    <path stroke="none" d="M41428 17284 c28 -13 32 -21 32 -54 0 -104 -96 -342 -233 -580 -78 -134 -82 -142 -97 -190 -59 -188 -153 -365 -254 -477 -48 -54 -172 -143 -198 -143 -8 0 -18 -3 -22 -7 -12 -12 -98 -32 -138 -33 -32 0 -38 3 -38 21 0 24 7 24 -150 -3 -103 -17 -290 -21 -334 -7 -63 19 -76 35 -76 89 0 70 17 90 306 360 85 80 263 242 329 300 21 19 64 58 95 86 47 43 323 288 590 523 41 36 90 81 110 98 41 38 38 37 78 17z" fill="#ffffff" id="ffffff-000022"/>
    <path stroke="none" d="M29301 16747 c20 -15 39 -79 32 -107 -5 -17 -13 -20 -68 -20 -48 0 -64 4 -69 16 -8 21 -8 109 1 117 11 12 87 7 104 -6z" fill="#ffffff" id="ffffff-000023"/>
    <path stroke="none" d="M28855 16320 c13 -62 46 -137 99 -224 40 -66 44 -86 20 -86 -28 0 -132 61 -174 102 l-40 40 0 114 0 115 42 -3 42 -3 11 -55z" fill="#ffffff" id="ffffff-000024"/>
    <path stroke="none" d="M29337 16369 c145 -60 226 -102 461 -244 61 -37 62 -39 62 -82 l0 -43 -74 0 c-40 0 -86 4 -102 9 -16 5 -49 15 -74 22 -58 16 -164 69 -215 106 -113 83 -213 197 -201 228 7 18 101 21 143 4z" fill="#ffffff" id="ffffff-000025"/>
    <path stroke="none" d="M33985 16205 c192 -49 280 -145 300 -323 7 -67 -8 -75 -67 -34 -156 106 -402 244 -494 276 -47 16 -51 30 -23 75 l20 34 107 -7 c59 -4 130 -13 157 -21z" fill="#ffffff" id="ffffff-000026"/>
    <path stroke="none" d="M33640 15916 c158 -50 263 -98 366 -167 69 -46 168 -145 159 -159 -2 -4 -36 -10 -75 -14 l-70 -6 -123 93 c-154 118 -257 187 -324 217 -36 16 -53 29 -53 42 0 25 29 23 120 -6z" fill="#ffffff" id="ffffff-000028"/>
    <path stroke="none" d="M5723 15891 c78 -38 112 -68 97 -86 -9 -11 -84 -14 -353 -18 -202 -2 -356 -8 -377 -14 -95 -30 -118 -31 -140 -9 -18 19 -36 21 -165 26 -87 3 -149 9 -155 16 -7 6 -10 24 -8 40 l3 29 235 7 c223 6 435 19 600 38 118 13 192 5 263 -29z" fill="#ffffff" id="ffffff-000027"/>
    <path stroke="none" d="M40585 15680 c0 -30 -3 -35 -25 -37 -220 -15 -368 -25 -520 -34 -102 -6 -204 -17 -227 -25 -36 -11 -47 -11 -77 1 -20 8 -56 15 -82 15 -31 0 -44 4 -42 12 9 27 79 52 213 74 83 14 417 31 585 30 l175 -1 0 -35z" fill="#ffffff" id="ffffff-000029"/>
    <path stroke="none" d="M37538 15572 c6 -40 -4 -52 -35 -43 -15 5 -54 15 -86 22 -32 7 -60 16 -63 21 -13 21 13 29 94 26 82 -3 87 -4 90 -26z" fill="#ffffff" id="ffffff-000030"/>
    <path stroke="none" d="M33484 15381 c10 -11 20 -38 23 -60 l6 -41 -66 0 c-72 0 -77 4 -77 69 0 47 4 51 55 51 29 0 47 -6 59 -19z" fill="#ffffff" id="ffffff-000031"/>
    <path stroke="none" d="M33904 15344 c26 -10 18 -24 -14 -24 -20 0 -30 5 -30 15 0 16 17 19 44 9z" fill="#ffffff" id="ffffff-000032"/>
    <path stroke="none" d="M16448 15168 c-16 -49 -255 -173 -448 -234 -25 -8 -58 -18 -75 -24 -66 -21 -298 -80 -390 -100 -33 -7 -73 -16 -90 -20 -16 -4 -64 -13 -105 -20 -41 -7 -88 -16 -104 -21 -46 -14 -86 -11 -86 6 0 28 -28 28 -98 0 -79 -31 -125 -31 -130 1 -2 14 4 23 15 27 10 3 50 15 88 27 39 12 84 25 100 30 17 5 84 24 151 44 66 19 147 43 180 51 110 30 209 57 244 65 19 5 89 23 155 40 66 17 138 36 160 40 22 5 117 29 210 53 182 48 229 55 223 35z" fill="#ffffff" id="ffffff-000033"/>
    <path stroke="none" d="M5346 15126 c11 -43 1 -60 -41 -73 -84 -24 -185 -36 -256 -30 -144 12 -285 26 -326 33 -43 7 -43 7 -43 50 l0 44 330 0 330 0 6 -24z" fill="#ffffff" id="ffffff-000034"/>
    <path stroke="none" d="M6180 15082 c0 -14 -13 -22 -52 -31 -29 -8 -58 -18 -65 -23 -7 -6 -23 -2 -45 12 -18 11 -43 20 -55 20 -16 0 -23 6 -23 20 0 19 7 20 120 20 109 0 120 -2 120 -18z" fill="#ffffff" id="ffffff-000035"/>
    <path stroke="none" d="M7115 15081 c108 -25 132 -25 144 -2 10 18 21 21 72 21 l61 0 -7 -27 c-13 -53 -9 -52 -448 -53 -225 0 -427 4 -450 9 -23 5 -68 15 -99 21 -47 9 -58 15 -58 31 0 19 8 20 368 16 232 -2 385 -8 417 -16z" fill="#ffffff" id="ffffff-000036"/>
    <path stroke="none" d="M35078 14883 c226 -5 282 -9 282 -20 0 -11 -76 -13 -430 -13 -446 0 -454 1 -417 39 9 10 42 12 147 7 74 -3 262 -9 418 -13z" fill="#ffffff" id="ffffff-000037"/>
    <path stroke="none" d="M39367 14872 c7 -4 14 -19 15 -32 3 -22 -2 -25 -62 -36 -36 -7 -78 -16 -93 -20 -18 -4 -42 0 -66 11 -35 16 -44 16 -132 0 -52 -9 -153 -19 -225 -22 l-132 -6 -26 26 c-14 14 -26 31 -26 37 0 7 89 10 272 10 250 0 343 7 418 31 33 10 43 10 57 1z" fill="#ffffff" id="ffffff-000038"/>
    <path stroke="none" d="M40160 14867 c0 -11 -48 -16 -207 -26 -115 -7 -229 -15 -255 -18 -64 -7 -61 9 5 35 45 17 77 20 255 21 162 1 202 -2 202 -12z" fill="#ffffff" id="ffffff-000039"/>
    <path stroke="none" d="M35438 14688 l-3 -33 -90 -11 c-49 -7 -110 -16 -133 -22 -29 -7 -75 -7 -135 -1 -129 14 -401 28 -534 29 -71 0 -114 4 -119 11 -11 18 15 27 96 34 41 3 98 10 125 14 28 5 218 9 423 10 l373 1 -3 -32z" fill="#ffffff" id="ffffff-000040"/>
    <path stroke="none" d="M35812 14663 c10 -9 18 -25 18 -36 0 -18 -6 -19 -76 -15 -60 3 -79 7 -90 23 -28 38 -18 45 58 45 52 0 76 -4 90 -17z" fill="#ffffff" id="ffffff-000041"/>
    <path stroke="none" d="M15561 14573 c19 -24 41 -64 37 -67 -3 -3 -74 -21 -143 -36 -25 -5 -65 -14 -90 -20 -25 -5 -66 -15 -92 -21 -61 -13 -126 -28 -180 -40 -24 -5 -62 -13 -85 -19 -24 -5 -68 -14 -98 -21 -30 -6 -68 -15 -84 -20 -38 -12 -86 -11 -86 0 0 21 53 70 103 95 93 45 268 93 455 125 34 6 88 15 120 21 31 5 71 11 87 13 17 2 33 5 36 6 3 0 12 -7 20 -16z" fill="#ffffff" id="ffffff-000042"/>
    <path stroke="none" d="M20160 12098 c-1 -47 -12 -68 -48 -87 -34 -18 -45 -5 -39 47 5 47 34 81 70 82 14 0 17 -8 17 -42z" fill="#ffffff" id="ffffff-000043"/>
    <path stroke="none" d="M20060 11923 c-1 -48 -60 -237 -112 -363 -6 -14 -14 -34 -18 -45 -5 -11 -17 -41 -29 -67 -12 -26 -21 -50 -21 -53 0 -2 -13 -34 -30 -70 -16 -36 -30 -69 -30 -74 0 -19 -143 -31 -154 -13 -15 25 67 225 227 555 l71 147 48 0 c39 0 48 -3 48 -17z" fill="#ffffff" id="ffffff-000044"/>
    <path stroke="none" d="M16692 11399 c14 -11 29 -19 33 -19 4 0 19 -8 33 -19 15 -10 46 -29 69 -42 23 -13 125 -73 227 -134 165 -98 186 -114 197 -145 16 -48 63 -114 99 -140 32 -22 39 -40 17 -40 -28 0 -225 111 -338 190 -20 14 -58 40 -85 59 -27 19 -124 90 -216 159 -156 116 -168 127 -168 157 0 17 3 34 6 38 7 6 77 -30 126 -64z" fill="#ffffff" id="ffffff-000045"/>
    <path stroke="none" d="M28340 10632 c0 -4 -37 -39 -82 -77 -45 -39 -86 -75 -92 -80 -6 -6 -36 -30 -66 -55 -30 -25 -57 -47 -60 -50 -9 -10 -203 -164 -299 -237 -280 -214 -640 -480 -838 -619 -23 -16 -115 -80 -205 -143 -89 -63 -200 -141 -244 -173 l-82 -59 -118 3 -119 3 0 34 c0 30 5 37 40 56 22 11 132 83 245 159 1262 855 1675 1129 1845 1223 40 22 75 29 75 15z" fill="#ffffff" id="ffffff-000046"/>
    <path stroke="none" d="M24637 10555 c6 -20 -63 -35 -160 -35 -90 0 -97 1 -97 20 0 18 8 20 103 23 137 4 150 4 154 -8z" fill="#ffffff" id="ffffff-000047"/>
    <path stroke="none" d="M17993 10432 c87 -58 109 -69 167 -86 64 -19 59 -40 -10 -44 -74 -4 -131 13 -179 55 -43 36 -77 95 -66 112 9 16 9 16 88 -37z" fill="#ffffff" id="ffffff-000048"/>
    <path stroke="none" d="M28820 10432 c0 -8 -42 -43 -324 -270 -50 -41 -102 -83 -116 -96 -32 -28 -853 -685 -945 -756 -38 -30 -119 -93 -180 -140 -667 -521 -1212 -908 -1580 -1122 -54 -31 -152 -78 -248 -117 -42 -17 -56 -14 -88 18 -33 33 -39 71 -11 71 50 0 236 117 421 264 106 84 722 545 1019 763 134 98 222 163 295 216 39 30 92 68 117 85 25 17 83 59 130 93 128 93 342 246 460 329 58 40 141 99 185 130 134 95 420 291 610 418 148 99 187 121 218 121 20 1 37 -3 37 -7z" fill="#ffffff" id="ffffff-000049"/>
    <path stroke="none" d="M21640 10182 c0 -18 -88 -82 -114 -82 -8 0 -17 -4 -20 -8 -3 -5 -30 -15 -60 -22 -54 -13 -73 -12 -201 11 -27 5 -90 12 -140 15 -49 4 -96 11 -102 17 -14 10 -18 69 -6 80 3 4 150 7 325 7 297 0 318 -1 318 -18z" fill="#ffffff" id="ffffff-000050"/>
    <path stroke="none" d="M21955 10130 l0 -25 -120 0 c-109 0 -120 2 -123 19 -6 30 17 36 133 34 110 -3 110 -3 110 -28z" fill="#ffffff" id="ffffff-000051"/>
    <path stroke="none" d="M28500 9705 c0 -26 -82 -99 -150 -132 -81 -40 -120 -50 -120 -31 0 36 72 96 180 150 62 31 90 35 90 13z" fill="#ffffff" id="ffffff-000053"/>
    <path stroke="none" d="M20998 8809 c209 -94 630 -304 677 -339 6 -4 46 -26 90 -50 44 -24 91 -50 105 -59 14 -9 37 -23 51 -30 14 -7 38 -22 53 -34 26 -22 27 -23 11 -54 -22 -44 -30 -47 -68 -30 -18 8 -50 22 -72 32 -131 57 -460 226 -575 295 -127 77 -334 223 -360 255 -6 8 -9 19 -5 25 10 16 42 12 93 -11z" fill="#ffffff" id="ffffff-000054"/>
    <path stroke="none" d="M37004 8001 c11 -12 16 -31 14 -53 -3 -33 -3 -33 -62 -36 -65 -3 -83 6 -68 34 5 11 15 31 21 47 9 22 17 27 44 27 21 0 41 -8 51 -19z" fill="#ffffff" id="ffffff-000055"/>
    <path stroke="none" d="M24409 17653 c-58 -63 -106 -180 -88 -214 8 -16 19 -19 52 -17 l42 3 29 80 c36 99 41 169 11 173 -12 2 -31 -9 -46 -25z" fill="#000000" id="000000-000003"/>
    <path stroke="none" d="M23342 20248 l3 -53 75 0 75 0 3 53 3 52 -81 0 -81 0 3 -52z" fill="#000000" id="000000-000002"/>
    <path stroke="none" d="M36000 15600 l0 -40 198 2 197 3 0 35 0 35 -197 3 -198 2 0 -40z" fill="#000000" id="000000-000004"/>
    <path stroke="none" d="M34020 11302 c-71 -35 -42 -106 41 -100 40 3 46 7 62 40 26 53 16 78 -31 78 -20 -1 -53 -9 -72 -18z" fill="#000000" id="000000-000005"/>
    <path stroke="none" d="M7927 10301 c-55 -60 -152 -240 -266 -493 -25 -57 -29 -148 -7 -148 35 0 117 130 228 360 44 91 84 173 89 182 12 23 12 125 0 132 -5 3 -24 -11 -44 -33z" fill="#000000" id="000000-000006"/>
    <path stroke="none" d="M7131 8754 c-24 -30 -34 -74 -29 -129 4 -51 28 -57 68 -17 28 28 30 36 30 101 0 68 -1 71 -24 71 -15 0 -33 -11 -45 -26z" fill="#000000" id="000000-000007"/>
    <path stroke="none" d="M6993 8456 c-44 -37 -85 -129 -119 -266 -15 -64 -18 -140 -5 -140 38 0 100 99 161 255 4 11 13 33 19 48 6 15 11 50 11 77 0 43 -3 50 -19 50 -11 0 -32 -11 -48 -24z" fill="#000000" id="000000-000008"/>
    <path stroke="none" d="M23378 8068 c-6 -59 0 -68 43 -68 36 0 39 -2 39 -27 -1 -16 -7 -39 -15 -53 -24 -42 -19 -50 30 -50 40 0 45 3 45 22 0 42 24 88 52 101 37 16 38 58 2 86 -22 17 -41 21 -109 21 l-83 0 -4 -32z" fill="#000000" id="000000-000009"/>
    <path stroke="none" d="M6741 7924 c-37 -31 -74 -107 -101 -209 -21 -78 -26 -155 -11 -155 36 0 191 269 191 332 0 64 -28 75 -79 32z" fill="#000000" id="000000-000010"/>
    <path stroke="none" d="M12748 6028 c-18 -4 -130 -8 -248 -9 -195 -2 -223 -4 -297 -26 -55 -17 -83 -30 -83 -40 0 -8 8 -13 18 -12 51 5 59 -27 14 -53 -15 -9 -34 -27 -40 -40 -7 -13 -32 -32 -54 -43 -43 -21 -61 -45 -35 -45 44 0 26 -60 -66 -225 -19 -33 -46 -82 -62 -110 -15 -27 -35 -63 -45 -80 -10 -16 -29 -51 -44 -77 -57 -105 -80 -145 -110 -198 -24 -42 -282 -558 -349 -698 -6 -12 -22 -25 -36 -29 -35 -8 -81 -41 -81 -58 0 -8 9 -19 20 -25 16 -9 19 -17 14 -53 -5 -38 -3 -44 17 -54 50 -23 81 -33 101 -33 16 0 19 -4 14 -22 -14 -47 -18 -88 -10 -88 5 0 22 20 37 45 29 45 47 57 47 32 0 -7 -29 -72 -65 -143 -36 -71 -65 -135 -65 -142 0 -38 33 10 103 149 43 85 86 162 94 172 15 16 49 17 440 17 444 0 470 2 486 44 5 13 25 15 102 15 52 -1 95 -5 95 -9 0 -4 -7 -21 -15 -36 -25 -48 -14 -74 15 -39 23 27 21 10 -5 -43 -29 -59 -31 -72 -11 -72 8 0 37 47 66 108 179 366 233 468 264 497 18 16 45 55 58 85 14 30 40 85 57 123 17 37 31 71 31 76 0 4 9 16 20 26 11 10 20 23 20 29 0 21 172 350 196 375 11 13 14 13 18 0 6 -20 15 -190 26 -494 6 -143 14 -287 18 -320 5 -33 7 -65 5 -71 -5 -14 22 -162 36 -197 10 -25 14 -27 46 -21 34 6 35 5 35 -25 0 -17 -9 -45 -20 -63 -11 -18 -20 -36 -20 -40 0 -14 30 -8 36 6 3 8 23 26 44 40 28 18 47 44 71 93 92 197 220 450 287 566 12 20 31 54 43 75 12 20 25 42 29 47 19 25 50 88 46 93 -3 3 -15 -5 -26 -18 -11 -13 -20 -19 -20 -14 0 10 76 163 130 259 59 108 77 139 99 178 11 20 30 54 42 75 11 20 35 62 52 92 26 47 100 164 114 180 3 3 41 5 86 6 45 1 117 5 159 9 97 9 103 1 59 -89 -17 -36 -31 -69 -31 -75 0 -5 -20 -52 -44 -103 -24 -51 -56 -119 -70 -150 -14 -32 -41 -91 -60 -130 -49 -105 -86 -188 -86 -193 0 -2 -11 -28 -24 -57 -13 -29 -33 -74 -45 -100 -11 -27 -31 -69 -42 -95 -12 -27 -32 -72 -45 -101 -13 -29 -24 -55 -24 -57 0 -4 -14 -36 -76 -172 -15 -32 -28 -78 -29 -103 -1 -25 -7 -63 -13 -84 -6 -22 -9 -44 -6 -48 8 -12 58 -10 72 4 8 8 15 8 25 0 18 -16 34 3 75 89 17 37 35 70 41 74 6 3 11 17 11 30 0 13 5 27 10 30 12 8 70 126 70 143 0 6 9 27 20 47 11 19 29 51 40 70 11 20 20 40 20 45 0 5 14 39 30 75 17 36 30 67 30 69 0 2 20 46 44 98 24 51 53 116 66 143 65 143 211 445 235 485 8 14 24 45 35 70 42 91 31 87 245 94 105 3 364 9 578 12 213 4 387 10 387 14 0 4 -19 11 -42 14 -40 7 -42 8 -24 22 13 9 45 14 92 14 63 0 73 3 79 19 4 13 19 22 45 26 39 7 50 18 30 30 -29 18 0 25 100 25 67 0 110 4 110 10 0 6 -118 10 -334 10 -242 0 -337 3 -342 12 -5 8 -84 9 -303 4 -163 -4 -326 -9 -363 -13 -39 -3 -80 -1 -98 6 -20 6 -38 7 -49 2 -26 -15 -1065 -26 -1057 -12 5 8 24 9 57 5 41 -5 49 -4 49 9 0 10 -12 18 -32 21 -18 3 -215 8 -438 10 -223 2 -514 6 -647 7 -133 2 -257 1 -275 -3z" fill="#000000" id="000000-000011"/>
    <path stroke="none" d="M13890 5855 c7 -8 20 -15 29 -15 19 0 68 -46 59 -55 -3 -3 -31 -9 -63 -13 -36 -4 -60 -12 -63 -21 -5 -14 91 -13 360 5 37 2 69 0 72 -4 2 -4 -15 -41 -40 -81 -24 -40 -44 -77 -44 -82 0 -5 -4 -9 -10 -9 -5 0 -10 -6 -10 -12 0 -7 -9 -24 -20 -38 -16 -20 -20 -22 -20 -7 0 9 5 17 10 17 6 0 10 9 10 20 0 11 5 20 10 20 6 0 10 4 10 10 0 5 14 38 30 72 32 66 35 78 20 78 -5 0 -42 -65 -82 -145 -60 -120 -70 -147 -58 -155 8 -5 11 -12 7 -17 -5 -4 -12 -1 -16 6 -6 10 -10 10 -16 2 -4 -7 -2 -17 3 -24 12 -14 -11 -52 -31 -52 -7 0 -11 -9 -9 -18 2 -10 -8 -30 -22 -44 -27 -27 -346 -660 -346 -687 0 -14 -43 -96 -50 -96 -4 0 -10 87 -14 193 -15 383 -41 802 -52 832 -4 11 -11 22 -15 25 -4 3 -14 30 -21 60 -12 45 -19 56 -37 58 -19 3 -22 8 -16 30 11 43 23 51 88 54 51 2 62 6 59 19 -2 18 50 29 133 29 51 0 74 20 50 44 -15 15 -12 16 38 16 36 0 59 -5 67 -15z" fill="#ffffff" id="ffffff-000060"/>
    <path stroke="none" d="M13390 5752 c0 -4 -6 -16 -14 -27 -16 -23 -35 -57 -96 -170 -23 -44 -57 -107 -75 -140 -18 -33 -81 -154 -140 -270 -183 -356 -202 -391 -263 -495 -43 -73 -94 -168 -141 -266 l-49 -100 -59 -2 c-32 -1 -71 1 -88 4 l-30 7 49 23 c27 13 53 21 58 18 5 -3 21 -3 35 1 95 24 -151 45 -539 46 -166 1 -314 4 -328 8 -49 14 -45 27 99 311 126 249 138 265 197 274 26 3 80 6 120 6 40 0 85 5 101 11 15 6 80 12 143 15 322 11 420 21 420 44 0 6 -6 10 -13 10 -16 0 -70 60 -61 69 3 3 31 6 61 6 36 0 58 5 60 13 3 7 -5 12 -21 12 -14 0 -26 5 -26 10 0 6 9 10 20 10 11 0 20 4 20 8 0 17 -108 31 -310 42 -187 10 -420 30 -420 36 0 6 67 124 120 214 45 75 62 95 78 93 15 -2 28 10 48 45 14 26 38 59 52 75 24 26 30 27 116 27 50 0 147 5 216 10 69 6 197 10 285 11 88 1 192 5 230 9 100 10 145 11 145 2z" fill="#ffffff" id="ffffff-000091"/>
    <path stroke="none" d="M14380 5750 c0 -5 -13 -31 -28 -57 -15 -26 -45 -83 -66 -126 -38 -78 -58 -99 -77 -80 -11 11 25 83 114 226 26 42 57 63 57 37z" fill="#ffffff" id="ffffff-000092"/>
    <path stroke="none" d="M13560 5095 c0 -63 -4 -105 -10 -105 -6 0 -10 36 -10 89 0 81 5 121 16 121 2 0 4 -47 4 -105z" fill="#ffffff" id="ffffff-000270"/>
    <path stroke="none" d="M12720 4417 c0 -7 -5 -18 -12 -25 -6 -6 -11 -34 -10 -62 1 -49 0 -50 -29 -50 -35 0 -34 0 -9 45 11 20 20 42 20 50 0 8 5 15 10 15 6 0 10 9 10 20 0 11 5 20 10 20 6 0 10 -6 10 -13z" fill="#ffffff" id="ffffff-000416"/>
    <path stroke="none" d="M12250 5500 c-12 -7 -12 -12 -3 -21 10 -10 14 -9 19 5 8 22 2 27 -16 16z" fill="#000000" id="000000-000042"/>
    <path stroke="none" d="M5956 6010 c-24 -11 -44 -29 -52 -48 -7 -17 -25 -36 -41 -44 -20 -10 -27 -20 -26 -36 2 -12 -8 -41 -21 -64 -13 -24 -53 -99 -88 -168 -81 -155 -164 -298 -191 -327 l-20 -23 -433 0 -433 0 -56 -26 c-31 -14 -55 -30 -52 -37 2 -7 25 -13 50 -15 51 -3 56 -8 30 -27 -15 -11 -16 -17 -3 -55 8 -23 30 -58 50 -76 28 -27 43 -34 78 -34 23 0 86 -6 140 -14 53 -7 151 -12 217 -11 170 3 255 -4 255 -22 0 -14 -217 -448 -284 -568 -18 -33 -48 -87 -66 -120 -18 -33 -37 -64 -41 -69 -15 -16 -10 -44 8 -54 16 -9 15 -12 -2 -38 -10 -16 -25 -35 -32 -42 -7 -7 -13 -20 -13 -27 0 -25 22 -28 52 -5 36 27 46 20 30 -23 -15 -41 -16 -104 -2 -112 6 -4 18 -1 26 6 25 20 26 3 4 -41 -26 -51 -14 -74 19 -39 11 13 21 28 21 35 0 7 3 14 8 16 7 3 24 37 88 177 22 47 47 99 56 115 10 17 81 157 158 311 77 154 153 303 168 330 15 28 40 74 56 103 19 33 36 52 47 52 10 0 26 11 34 24 22 33 31 36 179 46 101 7 132 13 139 25 5 9 16 14 26 10 10 -3 24 1 31 10 9 10 31 15 76 15 36 0 64 4 64 10 0 11 2 11 -108 15 -46 2 -86 6 -90 10 -16 16 32 25 138 25 63 0 125 3 137 6 16 4 25 1 29 -10 5 -13 -32 -119 -106 -301 -26 -63 -80 -217 -157 -445 -30 -91 -60 -173 -65 -183 -11 -21 17 -36 35 -18 19 19 37 12 37 -14 0 -41 32 -30 92 33 42 44 59 71 73 117 54 183 75 235 95 235 8 0 54 -31 100 -69 47 -37 189 -137 315 -222 127 -84 236 -159 243 -166 7 -7 18 -13 23 -13 15 0 11 -16 -25 -90 -19 -38 -31 -72 -26 -75 11 -7 24 12 54 78 18 37 33 57 44 57 9 0 91 -44 182 -98 190 -113 199 -117 206 -97 4 8 12 15 20 15 16 0 19 37 3 42 -5 2 -7 11 -4 21 9 21 41 22 90 1 37 -15 58 -12 39 5 -5 5 -40 26 -79 46 -38 20 -83 45 -100 55 -16 10 -50 29 -75 43 -116 64 -140 79 -140 87 0 10 109 15 400 18 198 2 216 4 235 22 17 16 35 20 83 20 34 0 62 -3 62 -7 0 -5 -21 -23 -45 -42 -56 -42 -49 -61 8 -23 95 64 107 41 17 -31 -33 -27 -60 -53 -60 -58 0 -5 13 -15 28 -23 26 -13 32 -12 85 15 32 16 62 29 68 29 17 0 156 98 292 206 15 12 27 26 27 31 0 15 32 40 60 46 26 7 102 68 210 171 36 34 99 91 140 126 41 36 77 67 80 70 3 3 32 26 65 52 33 25 79 66 101 90 42 45 42 45 123 50 119 7 116 19 35 -159 -13 -29 -35 -77 -48 -105 -23 -52 -46 -102 -90 -203 -47 -105 -65 -162 -70 -227 -9 -91 9 -90 54 2 34 71 50 87 50 50 0 -20 -14 -49 -70 -138 -18 -29 -30 -55 -27 -59 11 -11 34 16 62 72 16 33 38 62 57 72 47 28 119 147 253 419 92 185 131 254 149 264 20 10 47 11 118 5 51 -5 154 -9 230 -9 75 -1 140 -4 144 -9 10 -9 -34 -143 -126 -387 -18 -47 -41 -104 -51 -127 -11 -24 -19 -49 -19 -57 0 -8 -5 -18 -11 -21 -5 -4 -8 -12 -6 -18 2 -7 -2 -20 -11 -29 -12 -15 -12 -20 -2 -33 10 -12 10 -19 2 -27 -7 -7 -12 -8 -12 -3 0 4 -9 0 -20 -10 -21 -19 -27 -55 -10 -55 6 0 10 -9 10 -19 0 -11 -4 -23 -10 -26 -5 -3 -10 -15 -10 -26 0 -10 -5 -29 -12 -42 -23 -44 -28 -57 -28 -67 0 -11 -53 -131 -75 -172 -16 -29 -11 -58 11 -58 7 0 31 22 51 49 42 55 53 61 53 31 0 -34 16 -22 46 36 16 31 42 71 58 88 26 27 80 126 107 194 5 12 14 33 19 47 6 14 14 35 19 48 4 12 13 34 20 50 6 15 16 38 21 52 6 14 15 36 20 50 6 14 14 35 19 48 5 12 16 38 24 57 9 19 39 94 67 165 29 72 60 148 70 171 11 22 29 65 40 95 12 29 32 76 45 104 12 28 30 71 38 96 23 68 54 137 133 299 55 113 69 149 60 162 -7 11 -7 24 1 40 7 16 7 28 0 40 -8 12 -7 24 3 43 18 33 1 55 -24 30 -9 -9 -20 -14 -24 -11 -12 7 -50 -35 -101 -111 -23 -35 -46 -63 -50 -63 -12 0 -93 -140 -156 -272 -28 -59 -57 -114 -65 -122 -11 -14 -48 -16 -252 -16 -268 0 -266 0 -230 68 12 23 18 49 15 65 -3 15 -1 33 5 40 6 7 9 22 6 34 -4 14 0 22 14 25 18 5 128 209 135 253 2 11 11 34 20 52 12 22 14 39 8 55 l-8 22 -14 -22 c-18 -29 -39 -28 -36 1 1 17 -4 23 -25 25 -23 3 -32 -6 -69 -59 -55 -82 -162 -268 -229 -401 -54 -107 -88 -158 -107 -158 -6 0 -16 -7 -23 -15 -9 -11 -16 -13 -24 -5 -13 13 -46 13 -46 0 0 -5 -9 -10 -20 -10 -11 0 -20 4 -20 9 0 19 -30 19 -53 0 -30 -23 -37 -24 -37 -5 0 8 -13 23 -30 33 -16 9 -30 25 -30 35 0 13 -8 18 -25 18 -15 0 -39 7 -54 15 -64 32 -263 29 -408 -7 -33 -8 -47 -8 -58 2 -8 7 -15 15 -15 19 0 8 118 79 175 105 22 11 91 43 153 72 62 30 116 54 119 54 14 0 41 33 37 43 -2 7 21 22 57 36 41 16 63 30 69 46 11 28 34 42 114 70 33 11 62 26 64 34 4 11 -6 12 -59 5 -71 -10 -177 -11 -779 -4 -432 4 -785 -5 -832 -21 -67 -22 -88 -32 -88 -40 0 -5 14 -9 30 -9 17 0 30 -4 30 -10 0 -16 -72 -84 -102 -98 -27 -11 -38 -32 -18 -32 20 0 9 -61 -20 -110 -16 -28 -30 -53 -30 -55 0 -2 -22 -42 -50 -90 -27 -48 -50 -88 -50 -90 0 -3 -79 -144 -115 -205 -8 -14 -76 -148 -151 -297 -121 -243 -138 -273 -160 -273 -26 0 -135 67 -259 159 -101 75 -245 199 -245 212 0 5 13 9 28 9 67 0 228 65 382 153 46 27 113 71 148 99 49 38 66 47 73 37 4 -7 10 -11 12 -9 2 3 18 25 37 50 19 25 48 61 66 81 30 34 42 56 72 131 23 57 26 153 6 208 -26 73 -128 151 -252 192 -69 23 -283 24 -317 1 -27 -18 -56 -17 -49 2 5 12 -3 15 -35 15 -23 0 -41 4 -41 9 0 4 190 11 423 15 577 9 611 12 531 56 -37 21 -42 55 -14 85 28 30 20 55 -17 56 -15 1 -62 3 -103 4 -41 1 -205 8 -365 15 -159 6 -438 14 -619 16 -266 4 -333 8 -350 19 -24 18 -21 18 -70 -5z" fill="#000000" id="000000-000012"/>
    <path stroke="none" d="M6560 5704 c0 -17 -28 -32 -105 -59 -33 -11 -98 -46 -145 -77 -99 -67 -205 -168 -175 -168 10 0 27 7 37 17 31 28 29 9 -3 -31 -17 -20 -29 -40 -26 -43 3 -3 32 16 63 42 44 35 64 45 83 42 18 -4 42 6 84 35 32 22 63 36 67 32 8 -8 -16 -86 -66 -218 -25 -65 -51 -82 -99 -65 -36 13 -47 29 -20 29 8 0 15 5 15 11 0 6 -25 9 -65 8 -50 -2 -69 2 -84 15 -15 14 -42 18 -133 20 -136 4 -128 3 -128 19 0 42 164 319 225 380 l28 27 223 -1 c182 -1 224 -4 224 -15z" fill="#ffffff" id="ffffff-000096"/>
    <path stroke="none" d="M6905 5524 c108 -24 109 -24 134 -43 18 -14 22 -23 16 -37 -4 -11 -9 -42 -10 -70 -1 -58 -37 -119 -62 -110 -10 4 -40 -20 -86 -67 -58 -59 -90 -82 -162 -116 -49 -24 -99 -47 -110 -51 -11 -5 -34 -13 -52 -20 -17 -6 -33 -20 -36 -29 -2 -10 -17 -21 -33 -24 -16 -3 -37 -9 -46 -12 -12 -5 -18 -2 -18 7 0 20 70 192 135 333 13 28 33 79 45 115 45 132 53 140 144 140 39 0 103 -7 141 -16z" fill="#ffffff" id="ffffff-000128"/>
    <path stroke="none" d="M8600 5512 c0 -4 -15 -13 -32 -21 -90 -39 -216 -149 -252 -219 -9 -18 -19 -51 -22 -75 -6 -40 -4 -45 30 -73 89 -74 94 -76 135 -69 24 4 42 2 46 -4 3 -6 -1 -11 -9 -11 -9 0 -16 -4 -16 -10 0 -15 21 -12 76 9 125 47 209 61 227 38 7 -9 30 -17 52 -19 54 -4 47 -22 -11 -28 -61 -6 -72 -30 -15 -30 23 0 41 -3 41 -8 0 -14 -247 -231 -404 -355 -102 -81 -358 -276 -384 -293 -18 -12 -203 4 -218 18 -8 9 42 29 64 26 26 -5 24 19 -3 26 -15 4 -167 9 -338 11 -172 3 -322 8 -335 10 -18 5 -22 10 -17 28 11 37 167 349 196 393 l28 40 96 3 c53 1 108 6 121 12 14 5 80 9 147 9 122 0 287 18 287 31 0 4 -13 19 -30 32 -16 14 -30 28 -30 31 0 3 23 6 50 6 28 0 50 5 50 10 0 6 -7 10 -15 10 -8 0 -15 5 -15 10 0 6 5 10 10 10 6 0 10 4 10 8 0 15 -123 32 -225 32 -105 0 -325 19 -337 29 -8 7 1 27 46 101 15 25 29 53 33 63 6 18 23 24 23 7 0 -5 5 -10 10 -10 14 0 13 27 -1 32 -18 6 12 48 34 48 10 0 25 14 35 32 9 18 28 44 42 59 28 29 31 29 574 44 82 3 151 7 154 10 8 8 92 6 92 -3z" fill="#ffffff" id="ffffff-000142"/>
    <path stroke="none" d="M30900 6023 c-79 -4 -327 -53 -375 -73 -11 -5 -49 -19 -85 -31 -101 -34 -291 -122 -365 -168 -22 -14 -69 -40 -105 -59 -152 -80 -285 -195 -326 -282 -57 -121 -60 -161 -11 -207 17 -17 48 -39 67 -48 19 -10 41 -27 49 -37 10 -16 23 -19 67 -17 65 3 74 -4 43 -31 l-24 -21 35 7 c19 3 40 9 45 13 6 4 30 13 55 20 25 7 56 17 70 21 24 8 52 14 162 39 64 15 159 13 181 -3 20 -15 22 -70 4 -102 -13 -24 -99 -105 -247 -234 -52 -46 -111 -97 -130 -114 -82 -73 -154 -130 -295 -236 -227 -171 -454 -347 -612 -474 -94 -74 -83 -94 15 -27 64 43 97 56 106 42 6 -8 -37 -50 -138 -134 -35 -28 -31 -49 13 -71 28 -15 32 -14 93 18 35 18 74 36 88 39 43 10 251 155 435 302 6 6 15 20 19 33 9 27 50 57 66 47 9 -6 98 60 170 126 14 12 48 43 75 68 28 24 79 72 115 106 79 74 259 229 320 275 25 19 73 61 108 95 184 175 223 315 107 384 -20 11 -33 26 -30 31 13 20 -17 40 -60 40 -28 0 -47 6 -59 19 -15 17 -32 18 -199 16 -104 -1 -212 -7 -252 -15 -38 -7 -92 -14 -120 -14 -43 -1 -50 2 -53 20 -2 15 10 29 50 55 48 32 292 155 413 209 28 12 82 38 120 57 63 31 83 35 190 43 66 5 212 11 325 14 113 3 233 8 267 12 80 9 86 -3 44 -90 -17 -36 -31 -69 -31 -75 0 -5 -20 -52 -44 -103 -24 -51 -56 -119 -70 -150 -14 -32 -41 -91 -60 -130 -49 -105 -86 -188 -86 -193 0 -2 -11 -28 -24 -57 -23 -51 -44 -99 -88 -198 -11 -25 -31 -69 -44 -98 -13 -29 -24 -55 -24 -57 0 -4 -14 -36 -76 -172 -15 -32 -28 -78 -29 -103 -1 -25 -7 -63 -13 -84 -6 -22 -9 -44 -6 -48 8 -12 58 -10 72 4 8 8 15 8 25 0 18 -16 34 3 75 89 17 37 35 70 41 74 6 3 11 17 11 30 0 13 5 27 10 30 12 8 70 126 70 143 0 6 9 27 20 47 11 19 29 51 40 70 11 20 20 40 20 45 0 5 14 39 30 75 17 36 30 67 30 69 0 2 20 46 44 98 24 51 53 116 66 143 65 143 211 445 235 485 8 14 24 45 35 70 42 92 28 87 265 94 116 3 305 9 421 12 137 5 213 4 217 -3 3 -5 -8 -26 -26 -45 -18 -20 -44 -58 -57 -84 -13 -27 -39 -67 -56 -89 -34 -43 -60 -92 -125 -230 -35 -78 -226 -472 -278 -575 -76 -151 -191 -274 -308 -330 -24 -11 -48 -20 -55 -20 -27 0 -78 41 -96 77 -18 35 -18 44 -6 113 14 82 69 257 110 348 36 80 139 288 171 344 14 27 23 51 19 55 -4 4 -11 1 -16 -7 -5 -8 -11 -12 -14 -9 -3 3 28 72 69 155 53 105 75 159 74 184 0 19 -3 29 -6 23 -8 -21 -25 -15 -18 6 3 11 1 22 -4 26 -16 9 -71 -23 -80 -48 -5 -12 -26 -47 -46 -77 -21 -30 -50 -77 -65 -105 -85 -152 -103 -185 -129 -240 -61 -126 -110 -244 -128 -310 -6 -22 -23 -78 -38 -125 -68 -215 -72 -352 -15 -507 18 -48 98 -95 187 -108 23 -4 47 -13 53 -20 10 -12 18 -11 51 5 21 11 46 20 54 20 23 0 132 107 200 195 53 70 106 166 315 580 58 115 102 190 110 190 8 0 21 5 29 10 10 5 16 4 19 -3 7 -23 48 -11 97 29 65 53 162 119 173 119 9 0 112 41 179 71 23 10 44 19 47 19 10 0 7 -45 -3 -55 -5 -6 -19 -27 -30 -47 -52 -93 -64 -115 -82 -140 -11 -14 -19 -29 -19 -32 0 -4 -22 -40 -50 -81 -27 -41 -50 -76 -50 -79 0 -5 -138 -246 -150 -261 -4 -5 -36 -66 -70 -135 -35 -69 -80 -152 -99 -185 -20 -33 -42 -78 -49 -100 -7 -22 -17 -49 -22 -60 -46 -112 -53 -136 -40 -160 11 -21 11 -50 -1 -95 -2 -8 3 -15 11 -15 9 0 17 12 20 30 7 42 20 60 59 80 26 13 35 14 41 4 14 -21 37 -2 61 50 15 34 29 51 41 51 25 0 165 38 212 58 36 15 170 82 236 118 84 45 496 350 533 394 219 263 297 407 297 557 0 88 -16 136 -82 234 -67 102 -87 116 -218 151 -19 5 -47 13 -61 17 -53 16 -314 -33 -424 -79 -11 -5 -49 -18 -85 -30 -122 -40 -195 -76 -256 -124 -28 -23 -77 -59 -110 -81 -32 -22 -71 -53 -87 -68 -16 -15 -32 -26 -35 -23 -5 6 3 23 76 174 24 51 41 96 37 100 -8 8 -55 -47 -55 -64 0 -15 -29 -39 -36 -31 -4 3 1 24 10 46 8 22 13 47 10 54 -6 17 28 82 63 119 14 15 31 37 37 50 11 22 17 23 149 26 137 3 175 13 95 26 -40 7 -42 8 -24 22 13 9 45 14 92 14 63 0 73 3 79 19 4 13 19 22 45 26 39 7 50 18 30 30 -29 18 0 25 100 25 67 0 110 4 110 10 0 6 -118 10 -334 10 -241 0 -337 3 -342 11 -5 9 -87 10 -318 4 -294 -8 -408 -10 -466 -7 -14 1 -182 -3 -375 -8 -192 -6 -361 -9 -375 -7 l-25 3 30 14 c17 8 32 16 35 18 5 4 -22 23 -30 20 -3 -1 -30 -3 -60 -5z" fill="#000000" id="000000-000014"/>
    <path stroke="none" d="M33405 5516 c13 -13 28 -41 34 -62 19 -64 32 -186 25 -229 -11 -69 -65 -163 -142 -246 -89 -96 -129 -126 -145 -110 -16 16 -37 13 -37 -5 0 -22 -38 -54 -72 -61 -15 -3 -35 -14 -44 -24 -9 -11 -22 -19 -28 -19 -14 0 -202 -115 -229 -141 -22 -20 -10 -26 21 -10 9 5 49 24 87 42 39 18 83 42 98 52 16 11 31 16 34 13 7 -7 10 -5 -47 -43 -56 -37 -211 -113 -231 -113 -8 0 -20 5 -25 10 -7 7 -20 6 -39 -4 -70 -36 -58 11 43 182 18 29 32 55 32 58 0 3 14 25 30 49 17 24 30 47 30 50 0 4 8 19 19 33 18 26 34 54 89 152 69 124 238 391 271 428 18 20 30 22 111 22 82 0 93 -2 115 -24z" fill="#000000" id="000000-000026"/>
    <path stroke="none" d="M33640 5459 c0 -5 -4 -9 -10 -9 -5 0 -10 7 -10 16 0 8 5 12 10 9 6 -3 10 -10 10 -16z" fill="#ffffff" id="ffffff-000159"/>
    <path stroke="none" d="M33500 5399 c0 -17 -4 -28 -10 -24 -5 3 -10 17 -10 31 0 13 5 24 10 24 6 0 10 -14 10 -31z" fill="#ffffff" id="ffffff-000182"/>
    <path stroke="none" d="M32370 5265 c-39 -40 -56 -46 -38 -13 16 29 39 47 57 48 9 0 2 -14 -19 -35z" fill="#ffffff" id="ffffff-000239"/>
    <path stroke="none" d="M29860 5265 c26 -14 41 -35 24 -35 -14 0 -74 33 -74 41 0 13 17 11 50 -6z" fill="#ffffff" id="ffffff-000249"/>
    <path stroke="none" d="M29740 5260 c0 -5 -4 -10 -10 -10 -5 0 -10 5 -10 10 0 6 5 10 10 10 6 0 10 -4 10 -10z" fill="#ffffff" id="ffffff-000248"/>
    <path stroke="none" d="M30645 5240 c10 -11 16 -23 13 -25 -7 -8 -78 26 -78 37 0 16 47 7 65 -12z" fill="#ffffff" id="ffffff-000253"/>
    <path stroke="none" d="M30621 5170 c13 -10 19 -19 13 -20 -6 0 -21 9 -34 20 -30 26 -10 26 21 0z" fill="#ffffff" id="ffffff-000282"/>
    <path stroke="none" d="M33560 5111 c0 -11 -4 -23 -10 -26 -6 -4 -10 5 -10 19 0 14 5 26 10 26 6 0 10 -9 10 -19z" fill="#ffffff" id="ffffff-000296"/>
    <path stroke="none" d="M31780 4511 c-26 -50 -130 -114 -130 -81 0 6 5 10 11 10 6 0 35 20 66 45 61 50 68 54 53 26z" fill="#ffffff" id="ffffff-000398"/>
    <path stroke="none" d="M32670 4492 c0 -9 -59 -32 -83 -32 -26 0 -20 15 11 27 33 13 72 16 72 5z" fill="#ffffff" id="ffffff-000399"/>
    <path stroke="none" d="M30900 4350 c0 -5 -4 -10 -9 -10 -5 0 -11 -10 -14 -22 -4 -12 -9 -19 -13 -15 -4 4 -1 18 6 32 13 25 30 33 30 15z" fill="#ffffff" id="ffffff-000450"/>
    <path stroke="none" d="M29534 4223 c-20 -19 -97 -76 -173 -131 -43 -31 -71 -40 -71 -24 0 4 56 44 123 89 117 78 163 103 121 66z" fill="#ffffff" id="ffffff-000548"/>
    <path stroke="none" d="M29628 4197 c-25 -24 -164 -135 -255 -203 -109 -82 -201 -139 -210 -130 -3 3 -4 7 -2 9 34 26 287 212 323 238 123 87 141 99 149 99 5 0 2 -6 -5 -13z" fill="#ffffff" id="ffffff-000549"/>
    <path stroke="none" d="M26815 6002 c-93 -20 -777 -29 -812 -11 -17 9 -94 10 -305 5 -156 -4 -317 -9 -358 -12 -45 -4 -86 -1 -103 5 -18 7 -35 8 -45 2 -10 -5 -260 -13 -557 -17 -297 -4 -550 -10 -562 -13 -50 -13 -14 -26 72 -26 75 0 90 -3 93 -16 2 -14 -16 -19 -120 -30 -96 -11 -123 -17 -123 -29 0 -8 10 -16 21 -18 23 -3 71 -48 62 -57 -3 -3 -31 -9 -63 -13 -36 -4 -60 -12 -63 -21 -5 -14 91 -13 360 5 37 2 69 0 72 -4 2 -4 -15 -41 -40 -81 -24 -40 -44 -77 -44 -82 0 -5 -4 -9 -10 -9 -5 0 -10 -6 -10 -12 0 -7 -9 -24 -20 -38 -16 -20 -20 -22 -20 -7 0 9 5 17 10 17 6 0 10 9 10 20 0 11 5 20 10 20 6 0 10 4 10 10 0 5 14 38 30 72 32 66 35 78 20 78 -5 0 -42 -65 -82 -145 -60 -120 -70 -147 -58 -155 8 -5 11 -12 7 -17 -5 -4 -12 -1 -16 6 -6 10 -10 10 -16 2 -4 -7 -2 -17 3 -24 12 -14 -11 -52 -31 -52 -7 0 -11 -9 -9 -18 2 -10 -8 -30 -22 -44 -27 -27 -346 -660 -346 -687 0 -14 -43 -96 -50 -96 -4 0 -10 84 -14 188 -13 339 -40 793 -51 835 -4 15 -11 27 -17 27 -5 0 -8 10 -6 23 3 20 10 23 68 27 36 3 75 11 88 18 33 19 24 46 -16 50 -48 5 -39 22 13 22 25 0 45 5 45 10 0 6 -49 10 -126 10 l-126 0 6 35 c8 39 1 43 -32 19 -12 -8 -22 -12 -22 -8 0 4 -10 -2 -23 -14 -23 -22 -26 -22 -403 -20 -410 2 -753 -8 -796 -23 -67 -22 -88 -32 -88 -40 0 -5 14 -9 30 -9 17 0 30 -4 30 -10 0 -16 -72 -84 -102 -98 -27 -11 -38 -32 -18 -32 20 0 9 -61 -20 -110 -16 -28 -30 -53 -30 -55 0 -2 -22 -42 -50 -90 -27 -48 -50 -88 -50 -90 0 -2 -15 -30 -34 -62 -72 -125 -94 -167 -227 -432 -133 -266 -139 -274 -178 -292 -42 -19 -55 -49 -28 -66 7 -4 13 -23 13 -42 -1 -32 2 -35 49 -52 49 -17 50 -18 47 -53 -4 -44 8 -46 32 -6 9 17 21 28 27 25 7 -5 -47 -127 -91 -207 -11 -20 3 -33 17 -15 6 6 34 60 63 120 30 59 61 114 70 122 13 12 79 16 360 21 318 6 347 8 366 25 16 15 36 19 91 19 66 0 73 2 93 28 l22 27 -83 8 c-46 5 -90 11 -98 13 -23 7 3 26 40 29 41 3 49 20 14 29 -15 4 -167 9 -338 11 -172 3 -322 8 -335 10 -18 5 -22 10 -17 28 11 37 167 349 196 393 l28 40 96 3 c53 1 108 6 121 12 14 5 80 9 147 9 122 0 287 18 287 31 0 4 -13 19 -30 32 -16 14 -30 28 -30 31 0 3 23 6 50 6 28 0 50 5 50 10 0 6 -7 10 -15 10 -8 0 -15 5 -15 10 0 6 5 10 10 10 6 0 10 4 10 8 0 15 -123 32 -225 32 -105 0 -325 19 -337 29 -8 7 1 27 46 101 15 25 29 53 33 63 6 18 23 24 23 7 0 -5 5 -10 10 -10 14 0 13 27 -1 32 -18 6 12 48 34 48 10 0 25 14 35 32 9 18 29 44 43 59 l25 27 220 7 c120 5 257 9 304 10 47 1 142 5 211 10 132 8 169 4 152 -18 -15 -18 -67 -115 -188 -352 -183 -356 -202 -391 -263 -495 -109 -184 -229 -437 -214 -452 6 -6 16 6 27 29 9 21 28 60 41 87 13 28 24 56 24 63 0 7 5 13 10 13 6 0 10 9 10 20 0 11 5 20 10 20 14 0 13 -23 -2 -38 -6 -6 -11 -34 -10 -62 1 -48 -6 -72 -49 -167 -10 -23 -19 -47 -19 -52 0 -16 16 -13 30 4 23 27 21 10 -5 -43 -29 -59 -31 -72 -11 -72 8 0 37 47 66 108 179 366 233 468 264 497 18 16 45 55 58 85 14 30 40 85 57 123 17 37 31 71 31 76 0 4 9 16 20 26 11 10 20 23 20 29 0 21 172 350 196 375 11 13 14 13 18 0 6 -20 15 -190 26 -494 6 -143 14 -287 18 -320 5 -33 7 -65 5 -71 -5 -14 22 -162 36 -197 10 -25 14 -27 46 -21 34 6 35 5 35 -25 0 -17 -9 -45 -20 -63 -11 -18 -20 -36 -20 -40 0 -14 30 -8 36 6 3 8 23 26 44 40 28 18 47 44 71 93 92 197 220 450 287 566 12 20 31 54 43 75 12 20 25 42 29 47 19 25 50 88 46 93 -3 3 -15 -5 -26 -18 -11 -13 -20 -19 -20 -14 0 10 76 163 130 259 59 108 77 139 99 178 11 20 30 54 42 75 11 20 35 62 52 92 26 47 100 164 114 180 3 3 41 5 86 6 45 1 117 5 159 9 97 9 103 1 59 -89 -17 -36 -31 -69 -31 -75 0 -5 -20 -52 -44 -103 -24 -51 -56 -119 -70 -150 -14 -32 -41 -91 -60 -130 -49 -105 -86 -188 -86 -193 0 -2 -11 -28 -24 -57 -23 -51 -44 -99 -88 -198 -11 -25 -31 -69 -44 -98 -13 -29 -24 -55 -24 -57 0 -4 -14 -36 -76 -172 -15 -32 -28 -78 -29 -103 -1 -25 -7 -63 -13 -84 -6 -22 -9 -44 -6 -48 8 -12 58 -10 72 4 8 8 15 8 25 0 18 -16 34 3 75 89 17 37 35 70 41 74 6 3 11 17 11 30 0 13 5 27 10 30 12 8 70 126 70 143 0 6 9 27 20 47 11 19 29 51 40 70 11 20 20 40 20 45 0 5 14 39 30 75 17 36 30 67 30 69 0 2 20 46 44 98 24 51 53 116 66 143 65 143 211 445 235 485 8 14 24 45 35 70 42 91 31 87 245 94 105 3 349 9 544 12 l353 7 -7 -21 c-5 -18 -2 -22 14 -22 39 0 21 -20 -71 -81 -51 -33 -95 -64 -98 -68 -3 -5 -16 -11 -30 -14 -28 -7 -80 -52 -80 -69 0 -5 9 -8 20 -5 13 3 20 0 20 -9 0 -23 18 -16 76 27 50 39 57 41 79 29 22 -12 30 -10 72 16 92 57 289 141 302 129 2 -3 -5 -15 -17 -28 -13 -14 -22 -36 -22 -54 0 -48 -400 -838 -591 -1169 -27 -47 -49 -88 -49 -90 0 -3 -13 -25 -30 -49 -16 -24 -30 -46 -30 -48 0 -3 -38 -66 -85 -140 -47 -74 -85 -140 -85 -147 0 -7 15 -11 43 -9 95 6 106 -5 65 -71 -57 -94 -71 -130 -50 -130 14 0 86 81 127 143 21 31 39 57 40 57 2 0 93 23 230 60 17 4 71 21 121 39 49 17 112 33 140 36 72 9 125 25 161 52 18 13 46 26 64 30 18 3 84 40 148 82 64 42 150 96 191 121 254 149 410 332 410 481 0 44 -7 60 -60 139 -33 49 -60 95 -60 103 0 7 18 24 41 37 44 27 178 128 247 185 69 59 117 187 117 315 0 63 -4 82 -27 121 -61 103 -203 188 -378 225 -84 18 -275 16 -365 -4z" fill="#000000" id="000000-000013"/>
    <path stroke="none" d="M26570 5951 c0 -11 -86 -25 -100 -16 -24 15 -6 25 45 25 30 0 55 -4 55 -9z" fill="#ffffff" id="ffffff-000057"/>
    <path stroke="none" d="M27426 5858 c45 -20 63 -42 50 -56 -8 -7 -136 59 -136 71 0 14 40 7 86 -15z" fill="#ffffff" id="ffffff-000061"/>
    <path stroke="none" d="M26340 5852 c0 -16 -62 -34 -98 -27 -35 6 -36 8 -17 21 19 14 115 20 115 6z" fill="#ffffff" id="ffffff-000066"/>
    <path stroke="none" d="M26946 5791 c5 -5 61 -11 124 -13 128 -3 167 -16 188 -61 14 -29 28 -35 35 -14 7 19 40 -5 51 -37 15 -40 -3 -80 -37 -84 -17 -2 -27 -9 -27 -19 0 -26 -80 -122 -129 -156 -25 -17 -53 -39 -61 -48 -18 -20 -96 -79 -104 -79 -3 0 -27 -13 -53 -30 -26 -16 -56 -30 -66 -30 -11 0 -87 -23 -170 -51 -82 -27 -156 -48 -163 -45 -19 7 -17 35 5 72 10 16 28 59 41 95 12 35 29 71 37 80 7 9 37 61 64 115 98 190 140 269 150 279 12 12 67 33 90 34 8 1 19 -3 25 -8z" fill="#ffffff" id="ffffff-000078"/>
    <path stroke="none" d="M24480 5750 c0 -5 -13 -31 -28 -57 -15 -26 -45 -83 -66 -126 -38 -78 -58 -99 -77 -80 -11 11 25 83 114 226 26 42 57 63 57 37z" fill="#ffffff" id="ffffff-000093"/>
    <path stroke="none" d="M24220 5466 c0 -3 -5 -8 -12 -12 -7 -4 -8 -3 -4 4 7 12 16 16 16 8z" fill="#ffffff" id="ffffff-000157"/>
    <path stroke="none" d="M27143 5086 c4 -10 1 -13 -9 -9 -15 6 -19 23 -5 23 5 0 11 -7 14 -14z" fill="#ffffff" id="ffffff-000314"/>
    <path stroke="none" d="M26945 4929 c42 -18 75 -49 75 -71 0 -48 -66 -147 -123 -186 -23 -15 -90 -61 -149 -100 -169 -115 -468 -260 -662 -323 -65 -21 -86 -23 -86 -10 0 5 23 48 50 96 28 48 50 89 50 92 0 3 8 17 18 31 11 15 33 52 49 82 17 30 64 114 105 185 67 116 79 130 104 133 72 6 210 38 359 82 40 12 173 5 210 -11z" fill="#ffffff" id="ffffff-000331"/>
    <path stroke="none" d="M27260 4870 c0 -22 -4 -40 -10 -40 -11 0 -14 63 -3 73 11 12 13 8 13 -33z" fill="#ffffff" id="ffffff-000350"/>
    <path stroke="none" d="M24420 4350 c0 -5 -4 -10 -9 -10 -5 0 -11 -10 -14 -22 -4 -12 -9 -19 -13 -15 -4 4 -1 18 6 32 13 25 30 33 30 15z" fill="#ffffff" id="ffffff-000448"/>
    <path stroke="none" d="M26660 4354 c0 -15 -37 -37 -102 -63 -46 -17 -124 -56 -150 -73 -14 -10 -35 -18 -46 -18 -12 0 -24 -4 -27 -10 -3 -5 -13 -10 -21 -10 -8 0 -14 5 -14 10 0 6 6 10 14 10 15 0 22 3 211 98 122 61 135 66 135 56z" fill="#ffffff" id="ffffff-000508"/>
    <path stroke="none" d="M26168 4126 c-1 -1 -34 -12 -73 -24 -38 -13 -79 -27 -90 -31 -63 -26 -78 -31 -95 -31 -26 0 -33 15 -18 39 10 17 22 20 68 19 76 -1 142 20 135 43 -8 25 35 29 58 6 10 -10 17 -20 15 -21z" fill="#ffffff" id="ffffff-000552"/>
    <path stroke="none" d="M25789 4034 c-17 -20 -63 -14 -67 9 -3 14 1 17 20 12 17 -4 29 -1 39 11 13 16 14 16 17 0 2 -9 -2 -24 -9 -32z" fill="#ffffff" id="ffffff-000554"/>
    <path stroke="none" d="M39394 5938 c-117 -109 -351 -311 -489 -423 -60 -49 -138 -115 -172 -145 -208 -186 -215 -190 -287 -190 -45 0 -57 -4 -66 -20 -9 -16 -21 -20 -65 -20 -29 0 -57 5 -60 10 -8 13 -62 13 -70 0 -7 -12 -124 -10 -131 2 -8 13 -310 10 -339 -4 -37 -17 -31 -28 15 -28 22 0 40 -4 40 -10 0 -6 -45 -10 -114 -10 -66 0 -117 -4 -121 -10 -3 -5 -18 -10 -32 -10 -36 0 -104 -40 -101 -60 5 -26 139 -37 480 -42 242 -3 321 -7 330 -17 14 -14 -38 -67 -222 -228 -80 -70 -118 -118 -134 -171 -6 -17 -4 -21 8 -16 13 5 15 1 10 -24 -7 -36 10 -50 35 -28 23 21 31 20 31 -4 0 -11 3 -20 6 -20 12 0 444 345 474 379 16 18 128 110 147 119 28 16 313 29 313 15 0 -6 -10 -35 -22 -64 -21 -53 -40 -90 -95 -186 -14 -27 -58 -109 -96 -183 -95 -185 -177 -337 -242 -445 -22 -38 -60 -110 -84 -160 -23 -49 -46 -98 -52 -107 -11 -21 -12 -58 -1 -58 4 0 24 5 45 11 29 8 40 18 52 47 9 20 20 39 25 42 5 3 22 31 39 63 17 31 44 82 61 113 16 30 39 68 50 84 11 15 20 33 20 39 0 6 5 11 10 11 6 0 10 -2 10 -4 0 -12 -126 -256 -152 -293 -26 -38 -39 -103 -20 -103 14 0 186 268 294 460 11 19 24 40 28 45 4 6 21 35 37 65 17 30 39 71 50 90 11 19 39 71 63 115 23 44 46 85 50 90 9 13 102 187 148 278 19 37 47 77 64 88 16 12 41 32 55 45 l26 24 -22 18 -22 17 20 40 c11 22 43 88 70 147 40 86 55 109 75 114 14 3 30 3 35 -1 6 -3 38 13 72 36 33 22 65 37 69 33 11 -13 -45 -176 -110 -319 -10 -22 -39 -94 -65 -160 -26 -66 -50 -129 -55 -140 -25 -63 -79 -216 -157 -445 -30 -91 -60 -173 -65 -183 -11 -21 17 -36 35 -18 19 19 37 12 37 -14 0 -41 32 -30 92 33 42 44 59 71 73 117 54 183 75 235 95 235 8 0 54 -31 101 -69 96 -77 530 -371 624 -422 33 -18 125 -71 205 -119 169 -100 179 -105 186 -85 4 8 12 15 20 15 16 0 19 37 3 42 -5 2 -7 11 -4 21 9 21 41 22 90 1 37 -15 52 -14 42 3 -3 5 -28 20 -54 34 -26 13 -85 45 -131 71 -46 27 -85 48 -87 48 -3 0 -89 51 -114 67 -6 4 77 171 88 178 6 3 11 17 11 30 0 13 5 27 10 30 12 8 70 126 70 143 0 6 9 27 20 47 11 19 29 51 40 70 11 20 20 40 20 45 0 5 14 39 30 75 17 36 30 67 30 69 0 2 20 46 44 98 24 51 53 116 66 143 26 56 111 237 173 365 22 47 48 96 57 110 9 14 23 41 30 60 8 19 25 52 38 73 l25 37 128 0 c71 0 129 -2 129 -4 0 -2 -13 -31 -29 -63 -16 -32 -39 -80 -52 -108 -12 -27 -41 -92 -65 -143 -24 -52 -44 -96 -44 -98 0 -2 -11 -28 -25 -59 -14 -30 -36 -80 -50 -110 -14 -31 -25 -58 -25 -60 0 -3 -10 -27 -21 -53 -42 -93 -53 -121 -149 -367 -4 -11 -12 -31 -18 -45 -5 -14 -16 -41 -23 -60 -7 -19 -25 -62 -40 -95 -32 -70 -89 -239 -89 -266 0 -11 5 -19 10 -19 6 0 10 7 10 15 0 8 5 15 10 15 12 0 13 -37 1 -44 -12 -8 -20 -55 -10 -61 17 -11 76 32 125 89 64 76 85 117 174 341 40 99 79 196 87 215 8 19 19 44 23 55 4 11 15 36 23 55 8 19 48 116 87 215 39 99 79 196 87 215 8 19 19 44 23 55 4 11 15 36 23 55 41 95 47 116 47 162 0 41 -3 48 -17 46 -12 -2 -17 2 -14 12 11 38 12 90 3 90 -6 0 -12 -5 -14 -12 -2 -6 -9 -8 -16 -4 -22 13 -1 38 28 33 15 -3 31 -2 36 3 14 14 559 26 568 12 4 -7 -11 -13 -41 -17 -27 -3 -54 -7 -62 -8 -8 -1 -16 -8 -19 -14 -5 -16 51 -17 255 -3 81 5 236 12 343 14 107 3 223 8 257 12 80 9 86 -3 44 -90 -17 -36 -31 -69 -31 -75 0 -5 -20 -52 -44 -103 -24 -51 -56 -119 -70 -150 -14 -32 -41 -91 -60 -130 -49 -105 -86 -188 -86 -193 0 -2 -11 -28 -24 -57 -13 -29 -33 -74 -45 -100 -11 -27 -31 -69 -42 -95 -12 -27 -32 -72 -45 -101 -13 -29 -24 -55 -24 -57 0 -4 -14 -36 -76 -172 -15 -32 -28 -78 -29 -103 -1 -25 -7 -63 -13 -84 -6 -22 -9 -44 -6 -48 8 -12 58 -10 72 4 8 8 15 8 25 0 18 -16 34 3 75 89 17 37 35 70 41 74 6 3 11 17 11 30 0 13 5 27 10 30 12 8 70 126 70 143 0 6 9 27 20 47 11 19 29 51 40 70 11 20 20 40 20 45 0 5 14 39 30 75 17 36 30 67 30 69 0 2 20 46 44 98 24 51 53 116 66 143 65 143 211 445 235 485 8 14 24 45 35 70 42 91 31 87 245 94 105 3 364 9 578 12 213 4 387 10 387 14 0 4 -19 11 -42 14 -40 7 -42 8 -24 22 13 9 45 14 92 14 63 0 73 3 79 19 4 13 19 22 45 26 39 7 50 18 30 30 -29 18 0 25 100 25 67 0 110 4 110 10 0 6 -118 10 -334 10 -241 0 -337 3 -342 11 -5 9 -87 10 -318 4 -276 -8 -379 -9 -466 -8 -14 1 -286 -1 -604 -3 -428 -3 -582 -1 -593 7 -10 9 -93 10 -321 4 -288 -8 -402 -10 -462 -7 -14 1 -153 -2 -310 -7 -157 -5 -404 -10 -550 -11 -264 -2 -312 -6 -310 -25 0 -6 38 -10 92 -10 77 0 93 -3 96 -16 2 -14 -16 -19 -120 -30 -96 -11 -123 -17 -123 -29 0 -8 10 -16 21 -18 23 -3 71 -48 62 -57 -3 -3 -30 -8 -59 -12 -32 -3 -63 -13 -75 -25 -12 -11 -33 -18 -50 -17 -16 2 -43 -5 -61 -14 -40 -21 -53 -21 -53 -2 0 21 -2 20 -42 -18 -21 -20 -56 -38 -88 -47 -29 -8 -73 -27 -97 -42 -24 -16 -46 -28 -48 -28 -10 0 -4 22 23 82 16 35 39 90 51 123 13 33 27 70 32 83 13 34 11 54 -11 82 -11 14 -20 35 -20 48 0 12 -4 22 -8 22 -5 0 -49 -37 -98 -82z" fill="#000000" id="000000-000015"/>
    <path stroke="none" d="M40796 5765 c4 -8 -8 -44 -25 -79 -17 -36 -31 -69 -31 -75 0 -5 -20 -52 -44 -103 -24 -51 -56 -119 -70 -150 -14 -32 -41 -91 -60 -130 -49 -105 -86 -188 -86 -193 0 -2 -11 -28 -24 -57 -13 -29 -33 -73 -44 -98 -44 -99 -65 -147 -88 -198 -13 -29 -24 -55 -24 -57 0 -4 -21 -52 -76 -172 -15 -32 -27 -78 -28 -102 -2 -79 -15 -76 -197 42 -90 59 -200 133 -244 166 -101 75 -245 199 -245 212 0 5 13 9 28 9 67 0 228 65 382 153 46 27 113 71 148 99 49 38 66 47 73 37 4 -7 10 -11 12 -9 2 3 18 25 37 50 19 25 48 61 66 81 30 34 41 56 73 132 6 15 14 58 17 95 8 93 -16 154 -82 205 -46 35 -146 89 -189 102 -63 19 64 31 434 40 107 3 197 7 199 10 13 12 83 4 88 -10z" fill="#ffffff" id="ffffff-000088"/>
    <path stroke="none" d="M40005 5524 c108 -24 109 -24 134 -43 18 -14 22 -23 16 -37 -4 -11 -9 -42 -10 -70 -1 -58 -37 -119 -62 -110 -10 4 -40 -20 -86 -67 -58 -59 -90 -82 -162 -116 -49 -24 -99 -47 -110 -51 -11 -5 -34 -13 -52 -20 -17 -6 -33 -20 -36 -29 -2 -10 -17 -21 -33 -24 -16 -3 -37 -9 -46 -12 -12 -5 -18 -2 -18 7 0 20 70 192 135 333 13 28 33 79 45 115 45 132 53 140 144 140 39 0 103 -7 141 -16z" fill="#ffffff" id="ffffff-000139"/>
    <path stroke="none" d="M39116 5422 c-2 -4 -22 -46 -45 -94 -54 -116 -68 -128 -148 -128 -72 0 -82 14 -35 50 15 12 47 40 72 63 114 106 141 127 150 122 6 -4 9 -9 6 -13z" fill="#ffffff" id="ffffff-000186"/>
    <path stroke="none" d="M17790 5991 c-8 -5 -258 -13 -555 -17 -297 -4 -550 -10 -562 -13 -50 -13 -14 -26 72 -26 75 0 90 -3 93 -16 2 -14 -16 -19 -120 -30 -96 -11 -123 -17 -123 -29 0 -8 10 -16 21 -18 23 -3 71 -48 62 -57 -3 -3 -30 -8 -59 -12 -31 -3 -63 -13 -74 -24 -19 -17 -46 -18 -415 -17 -430 2 -769 -8 -812 -23 -67 -22 -88 -32 -88 -40 0 -5 14 -9 30 -9 17 0 30 -4 30 -10 0 -16 -72 -84 -102 -98 -27 -11 -38 -32 -18 -32 20 0 9 -61 -20 -110 -16 -28 -30 -53 -30 -55 0 -2 -22 -42 -50 -90 -27 -48 -50 -88 -50 -90 0 -2 -15 -30 -34 -62 -72 -125 -94 -167 -227 -432 -133 -266 -139 -274 -178 -292 -42 -19 -55 -49 -28 -66 7 -4 13 -23 13 -42 -1 -32 2 -35 49 -52 49 -17 50 -18 47 -53 -4 -44 8 -46 32 -6 9 17 21 28 27 25 7 -5 -47 -127 -91 -207 -11 -20 3 -33 17 -15 6 6 34 60 63 120 30 59 61 114 70 122 13 12 79 16 360 21 318 6 347 8 366 25 16 15 36 19 91 19 66 0 73 2 93 28 l22 27 -83 8 c-46 5 -90 11 -98 13 -23 7 3 26 40 29 41 3 49 20 14 29 -15 4 -167 9 -338 11 -172 3 -322 8 -335 10 -18 5 -22 10 -17 28 11 37 167 349 196 393 l28 40 96 3 c53 1 108 6 121 12 14 5 80 9 147 9 122 0 287 18 287 31 0 4 -13 19 -30 32 -16 14 -30 28 -30 31 0 3 23 6 50 6 28 0 50 5 50 10 0 6 -7 10 -15 10 -8 0 -15 5 -15 10 0 6 5 10 10 10 6 0 10 4 10 8 0 15 -123 32 -225 32 -105 0 -325 19 -337 29 -8 7 1 27 46 101 15 25 29 53 33 63 6 18 23 24 23 7 0 -5 5 -10 10 -10 14 0 13 27 -1 32 -18 6 11 47 35 50 12 2 31 21 44 46 13 24 34 49 45 57 25 15 485 37 502 23 5 -5 -9 -27 -35 -53 -34 -35 -40 -45 -25 -45 10 0 27 7 37 17 31 28 29 9 -3 -31 -17 -20 -29 -40 -26 -43 3 -3 32 16 63 42 44 35 64 45 83 42 18 -4 42 6 84 35 32 22 63 36 67 32 11 -13 -45 -176 -110 -319 -10 -22 -39 -94 -65 -160 -26 -66 -50 -129 -55 -140 -25 -63 -79 -216 -157 -445 -30 -91 -60 -173 -65 -183 -11 -21 17 -36 35 -18 19 19 37 12 37 -14 0 -41 32 -30 92 33 42 44 59 71 73 117 54 183 75 235 95 235 8 0 54 -31 101 -69 96 -77 530 -371 624 -422 33 -18 125 -71 205 -119 169 -100 179 -105 186 -85 4 8 12 15 20 15 16 0 19 37 3 42 -5 2 -7 11 -4 21 9 21 41 22 90 1 37 -15 52 -14 42 3 -3 5 -28 20 -54 34 -26 13 -85 45 -131 71 -46 27 -85 48 -87 48 -3 0 -89 51 -114 67 -6 4 77 171 88 178 6 3 11 17 11 30 0 13 5 27 10 30 12 8 70 126 70 143 0 6 10 28 22 49 25 45 49 94 72 146 l16 37 92 0 c157 0 200 -16 147 -53 -11 -8 -46 -39 -77 -69 -31 -29 -84 -77 -118 -106 -62 -53 -119 -142 -96 -150 7 -2 12 -15 12 -28 0 -24 30 -36 30 -11 1 7 6 5 14 -5 7 -10 16 -18 20 -18 8 0 141 102 241 185 174 145 255 214 265 226 17 21 64 30 175 36 119 6 125 5 125 -13 0 -18 -57 -137 -135 -279 -21 -38 -66 -124 -100 -190 -34 -66 -72 -137 -84 -157 -50 -89 -60 -106 -88 -153 -16 -27 -44 -81 -61 -120 -18 -38 -37 -78 -42 -87 -20 -36 -13 -51 22 -44 33 7 68 32 68 49 0 6 7 18 15 27 8 9 25 36 38 61 85 160 107 196 107 172 0 -14 -95 -198 -110 -213 -25 -25 -40 -90 -20 -90 13 0 120 160 210 315 113 195 116 199 225 400 19 33 49 89 69 125 20 36 53 98 73 138 26 53 49 82 84 109 44 33 47 38 34 53 -20 22 -20 22 15 96 17 35 44 93 60 129 17 36 43 93 59 128 65 141 106 240 130 314 13 38 12 44 -8 71 -11 17 -21 35 -21 41 0 6 -3 11 -6 11 -8 0 -57 -41 -124 -104 -65 -61 -303 -266 -409 -351 -41 -33 -115 -96 -165 -140 -126 -111 -147 -125 -208 -132 -29 -3 -57 -12 -61 -19 -10 -17 -90 -18 -117 -2 -15 10 -24 9 -44 -2 -21 -11 -38 -11 -96 -1 -38 7 -70 14 -70 15 0 1 11 24 24 52 13 27 34 72 46 99 62 138 211 445 235 485 8 14 24 45 35 70 42 91 31 87 245 94 105 3 364 9 578 12 213 4 387 10 387 14 0 4 -19 11 -42 14 -40 7 -42 8 -24 22 13 9 45 14 92 14 63 0 73 3 79 19 4 13 19 22 45 26 39 7 50 18 30 30 -29 18 0 25 100 25 67 0 110 4 110 10 0 6 -118 10 -334 10 -241 0 -337 3 -342 11 -5 9 -87 10 -318 4 -404 -11 -437 -11 -461 -3 -11 4 -27 3 -35 -1z" fill="#000000" id="000000-000016"/>
    <path stroke="none" d="M17476 5765 c4 -8 -8 -44 -25 -79 -17 -36 -31 -69 -31 -75 0 -5 -20 -52 -44 -103 -24 -51 -56 -119 -70 -150 -14 -32 -41 -91 -60 -130 -39 -85 -77 -170 -95 -215 -8 -18 -20 -33 -28 -33 -8 0 -25 -11 -39 -25 -19 -19 -35 -25 -72 -25 -82 -1 -216 -59 -191 -84 3 -3 58 -11 122 -17 64 -7 117 -16 117 -21 0 -5 -4 -16 -10 -26 -12 -22 -70 -151 -70 -157 0 -4 -21 -52 -76 -172 -15 -32 -27 -78 -28 -102 -2 -79 -15 -76 -197 42 -90 59 -200 133 -244 166 -101 75 -245 199 -245 212 0 5 13 9 28 9 67 0 228 65 382 153 46 27 113 71 148 99 49 38 66 47 73 37 4 -7 10 -11 12 -9 2 3 18 25 37 50 19 25 48 61 66 81 57 66 88 152 89 249 0 104 -20 141 -110 203 -39 26 -70 53 -70 60 0 7 -17 13 -40 15 -116 8 -74 28 74 36 64 4 203 9 310 11 107 3 197 7 199 10 13 12 83 4 88 -10z" fill="#ffffff" id="ffffff-000087"/>
    <path stroke="none" d="M16685 5524 c108 -24 109 -24 134 -43 18 -14 22 -23 16 -37 -4 -11 -9 -42 -10 -70 -1 -58 -37 -119 -62 -110 -10 4 -40 -20 -86 -67 -58 -59 -90 -82 -162 -116 -49 -24 -99 -47 -110 -51 -11 -5 -34 -13 -52 -20 -17 -6 -33 -20 -36 -29 -2 -10 -17 -21 -33 -24 -16 -3 -37 -9 -46 -12 -12 -5 -18 -2 -18 7 0 20 70 192 135 333 13 28 33 79 45 115 45 132 53 140 144 140 39 0 103 -7 141 -16z" fill="#ffffff" id="ffffff-000131"/>
    <path stroke="none" d="M18266 5115 c-20 -41 -47 -82 -60 -90 -27 -18 -107 -17 -113 1 -2 6 42 52 99 103 117 103 129 101 74 -14z" fill="#ffffff" id="ffffff-000266"/>
    <path stroke="none" d="M17120 4030 c0 -5 -4 -10 -10 -10 -5 0 -10 5 -10 10 0 6 5 10 10 10 6 0 10 -4 10 -10z" fill="#ffffff" id="ffffff-000565"/>
    <path stroke="none" d="M37070 5991 c-8 -5 -258 -13 -555 -17 -297 -4 -550 -10 -562 -13 -50 -13 -14 -26 72 -26 75 0 90 -3 93 -16 2 -14 -16 -19 -120 -30 -96 -11 -123 -17 -123 -29 0 -8 10 -16 21 -18 23 -3 71 -48 62 -57 -3 -3 -31 -9 -63 -13 -36 -4 -60 -12 -63 -21 -5 -14 91 -13 360 5 37 2 69 0 72 -4 2 -4 -15 -41 -40 -81 -24 -40 -44 -77 -44 -82 0 -5 -4 -9 -10 -9 -5 0 -10 -6 -10 -12 0 -7 -9 -24 -20 -38 -16 -20 -20 -22 -20 -7 0 9 5 17 10 17 6 0 10 9 10 20 0 11 5 20 10 20 6 0 10 4 10 10 0 5 14 38 30 72 32 66 35 78 20 78 -5 0 -42 -65 -82 -145 -60 -120 -70 -147 -58 -155 8 -5 11 -12 7 -17 -5 -4 -12 -1 -16 6 -6 10 -10 10 -16 2 -4 -7 -2 -17 3 -24 12 -14 -11 -52 -31 -52 -7 0 -11 -9 -9 -18 2 -10 -8 -30 -22 -44 -27 -27 -346 -660 -346 -687 0 -14 -43 -96 -50 -96 -4 0 -10 84 -14 188 -13 339 -40 793 -51 835 -4 15 -11 27 -17 27 -5 0 -8 10 -6 23 3 20 10 23 68 27 36 3 75 11 88 18 33 19 24 46 -16 50 -48 5 -39 22 13 22 25 0 45 5 45 10 0 6 -49 10 -126 10 l-126 0 6 35 c8 39 1 43 -32 19 -12 -8 -22 -12 -22 -8 0 4 -10 -2 -23 -14 -23 -22 -26 -22 -403 -20 -410 2 -753 -8 -796 -23 -67 -22 -88 -32 -88 -40 0 -5 14 -9 30 -9 17 0 30 -4 30 -10 0 -16 -72 -84 -102 -98 -27 -11 -38 -32 -18 -32 20 0 9 -61 -20 -110 -16 -28 -30 -53 -30 -55 0 -2 -22 -42 -50 -90 -27 -48 -50 -88 -50 -90 0 -2 -15 -30 -34 -62 -72 -125 -94 -167 -227 -432 -133 -266 -139 -274 -178 -292 -42 -19 -55 -49 -28 -66 7 -4 13 -23 13 -42 -1 -32 2 -35 49 -52 49 -17 50 -18 47 -53 -4 -44 8 -46 32 -6 9 17 21 28 27 25 7 -5 -47 -127 -91 -207 -11 -20 3 -33 17 -15 6 6 34 60 63 120 30 59 61 114 70 122 13 12 79 16 360 21 318 6 347 8 366 25 16 15 36 19 91 19 66 0 73 2 93 28 l22 27 -83 8 c-46 5 -90 11 -98 13 -23 7 3 26 40 29 41 3 49 20 14 29 -15 4 -167 9 -338 11 -172 3 -322 8 -335 10 -18 5 -22 10 -17 28 11 37 167 349 196 393 l28 40 96 3 c53 1 108 6 121 12 14 5 80 9 147 9 122 0 287 18 287 31 0 4 -13 19 -30 32 -16 14 -30 28 -30 31 0 3 23 6 50 6 28 0 50 5 50 10 0 6 -7 10 -15 10 -8 0 -15 5 -15 10 0 6 5 10 10 10 6 0 10 4 10 8 0 15 -123 32 -225 32 -105 0 -325 19 -337 29 -8 7 1 27 46 101 15 25 29 53 33 63 6 18 23 24 23 7 0 -5 5 -10 10 -10 14 0 13 27 -1 32 -18 6 12 48 34 48 10 0 25 14 35 32 9 18 29 44 43 59 l25 27 220 7 c120 5 257 9 304 10 47 1 142 5 211 10 132 8 169 4 152 -18 -15 -18 -67 -115 -188 -352 -183 -356 -202 -391 -263 -495 -109 -184 -229 -437 -214 -452 6 -6 16 6 27 29 9 21 28 60 41 87 13 28 24 56 24 63 0 7 5 13 10 13 6 0 10 9 10 20 0 11 5 20 10 20 14 0 13 -23 -2 -38 -6 -6 -11 -34 -10 -62 1 -48 -6 -72 -49 -167 -10 -23 -19 -47 -19 -52 0 -16 16 -13 30 4 23 27 21 10 -5 -43 -29 -59 -31 -72 -11 -72 8 0 37 47 66 108 179 366 233 468 264 497 18 16 45 55 58 85 14 30 40 85 57 123 17 37 31 71 31 76 0 4 9 16 20 26 11 10 20 23 20 29 0 21 172 350 196 375 11 13 14 13 18 0 6 -20 15 -190 26 -494 6 -143 14 -287 18 -320 5 -33 7 -65 5 -71 -5 -14 22 -162 36 -197 10 -25 14 -27 46 -21 34 6 35 5 35 -25 0 -17 -9 -45 -20 -63 -11 -18 -20 -36 -20 -40 0 -14 30 -8 36 6 3 8 23 26 44 40 28 18 47 44 71 93 92 197 220 450 287 566 12 20 31 54 43 75 12 20 25 42 29 47 19 25 50 88 46 93 -3 3 -15 -5 -26 -18 -11 -13 -20 -19 -20 -14 0 10 76 163 130 259 59 108 77 139 99 178 11 20 30 54 42 75 11 20 35 62 52 92 26 47 100 164 114 180 3 3 41 5 86 6 45 1 117 5 159 9 97 9 103 1 59 -89 -17 -36 -31 -69 -31 -75 0 -5 -20 -52 -44 -103 -24 -51 -56 -119 -70 -150 -14 -32 -41 -91 -60 -130 -49 -105 -86 -188 -86 -193 0 -2 -11 -28 -24 -57 -23 -51 -44 -99 -88 -198 -11 -25 -31 -69 -44 -98 -13 -29 -24 -55 -24 -57 0 -4 -14 -36 -76 -172 -15 -32 -28 -78 -29 -103 -1 -25 -7 -63 -13 -84 -6 -22 -9 -44 -6 -48 8 -12 58 -10 72 4 8 8 15 8 25 0 18 -16 34 3 75 89 17 37 35 70 41 74 6 3 11 17 11 30 0 13 5 27 10 30 12 8 70 126 70 143 0 6 9 27 20 47 11 19 29 51 40 70 11 20 20 40 20 45 0 5 14 39 30 75 17 36 30 67 30 69 0 2 20 46 44 98 24 51 53 116 66 143 65 143 211 445 235 485 8 14 24 45 35 70 42 91 31 87 245 94 105 3 364 9 578 12 213 4 387 10 387 14 0 4 -19 11 -42 14 -40 7 -42 8 -24 22 13 9 45 14 92 14 63 0 73 3 79 19 4 13 19 22 45 26 39 7 50 18 30 30 -29 18 0 25 100 25 67 0 110 4 110 10 0 6 -118 10 -334 10 -241 0 -337 3 -342 11 -5 9 -87 10 -318 4 -404 -11 -437 -11 -461 -3 -11 4 -27 3 -35 -1z" fill="#000000" id="000000-000017"/>
    <path stroke="none" d="M36360 5750 c0 -5 -13 -31 -28 -57 -15 -26 -45 -83 -66 -126 -38 -78 -58 -99 -77 -80 -11 11 25 83 114 226 26 42 57 63 57 37z" fill="#ffffff" id="ffffff-000094"/>
    <path stroke="none" d="M35172 5239 c-53 -101 -95 -181 -99 -188 -9 -13 -13 10 -5 26 6 10 26 52 46 93 37 77 67 131 77 140 3 3 9 14 13 25 5 11 10 15 12 9 3 -5 -18 -53 -44 -105z" fill="#ffffff" id="ffffff-000263"/>
    <path stroke="none" d="M35540 5095 c0 -63 -4 -105 -10 -105 -6 0 -10 36 -10 89 0 81 5 121 16 121 2 0 4 -47 4 -105z" fill="#ffffff" id="ffffff-000278"/>
    <path stroke="none" d="M33600 4475 c0 -8 -4 -15 -10 -15 -5 0 -10 7 -10 15 0 8 5 15 10 15 6 0 10 -7 10 -15z" fill="#ffffff" id="ffffff-000393"/>
    <path stroke="none" d="M20598 5938 c-7 -13 -19 -35 -27 -49 -7 -14 -30 -48 -51 -75 -41 -53 -140 -212 -140 -226 0 -4 -4 -8 -10 -8 -5 0 -10 -6 -10 -12 0 -7 -9 -24 -20 -38 -16 -20 -20 -22 -20 -7 0 9 5 17 10 17 6 0 10 9 10 20 0 11 5 20 10 20 6 0 10 4 10 10 0 5 14 38 30 72 32 66 35 78 20 78 -5 0 -42 -65 -82 -145 -60 -120 -70 -147 -58 -155 8 -5 11 -12 7 -17 -5 -4 -12 -1 -16 6 -6 10 -10 10 -16 2 -4 -7 -2 -17 3 -24 12 -14 -11 -52 -31 -52 -7 0 -11 -9 -9 -18 2 -10 -8 -30 -22 -44 -27 -27 -346 -660 -346 -687 0 -14 -43 -96 -50 -96 -4 0 -10 87 -14 193 -15 383 -41 802 -52 832 -4 11 -11 22 -15 25 -4 3 -14 30 -21 60 -11 44 -19 56 -36 58 -26 4 -27 10 -6 62 19 47 15 57 -18 39 -12 -7 -26 -12 -30 -11 -4 1 -18 -13 -32 -31 -25 -33 -34 -49 -106 -182 -23 -44 -57 -107 -75 -140 -18 -33 -81 -154 -140 -270 -183 -356 -202 -391 -263 -495 -109 -184 -229 -437 -214 -452 6 -6 16 6 27 29 9 21 28 60 41 87 13 28 24 56 24 63 0 7 5 13 10 13 6 0 10 9 10 20 0 11 5 20 10 20 14 0 13 -23 -2 -38 -6 -6 -11 -34 -10 -62 1 -48 -6 -72 -49 -167 -10 -23 -19 -47 -19 -52 0 -16 16 -13 30 4 23 27 21 10 -5 -43 -29 -59 -31 -72 -11 -72 8 0 37 47 66 108 179 366 233 468 264 497 18 16 45 55 58 85 14 30 40 85 57 123 17 37 31 71 31 76 0 4 9 16 20 26 11 10 20 23 20 29 0 21 172 350 196 375 11 13 14 13 18 0 6 -20 15 -190 26 -494 6 -143 14 -287 18 -320 5 -33 7 -65 5 -71 -5 -14 22 -162 36 -197 10 -25 14 -27 46 -21 34 6 35 5 35 -25 0 -17 -9 -45 -20 -63 -11 -18 -20 -36 -20 -40 0 -14 30 -8 36 6 3 8 23 26 44 40 28 18 47 44 71 93 92 197 220 450 287 566 12 20 31 54 43 75 12 20 25 42 29 47 19 25 50 88 46 93 -3 3 -15 -5 -26 -18 -11 -13 -20 -19 -20 -14 0 10 76 163 130 259 59 108 77 139 99 178 11 20 30 54 42 75 11 20 35 62 52 92 17 30 56 93 87 140 31 47 59 93 63 102 23 63 -79 -31 -124 -114 -16 -29 -47 -90 -70 -136 -41 -83 -61 -104 -80 -85 -7 7 -3 23 11 49 68 122 89 157 142 236 78 117 100 158 94 174 -8 20 -22 17 -38 -8z" fill="#000000" id="000000-000019"/>
    <path stroke="none" d="M20926 5740 c-20 -28 -41 -48 -46 -45 -5 3 -20 -9 -33 -27 -63 -83 -198 -344 -317 -613 -12 -27 -31 -69 -41 -92 -11 -24 -27 -62 -38 -85 -61 -138 -85 -191 -136 -302 -24 -53 -26 -108 -4 -121 9 -6 -29 -103 -78 -197 -2 -5 2 -8 10 -8 8 0 25 25 38 55 23 53 39 70 39 41 0 -8 -4 -18 -10 -21 -14 -9 -12 -25 3 -25 22 0 64 52 91 113 14 31 37 82 51 112 14 31 25 58 25 60 0 19 53 114 63 112 6 -1 11 6 9 15 -1 10 6 26 17 37 18 18 28 36 65 124 26 60 58 132 86 192 15 33 39 85 53 115 13 30 39 85 56 123 17 37 31 72 31 77 0 6 5 10 10 10 6 0 10 -14 10 -31 0 -18 4 -59 10 -93 23 -150 43 -492 29 -518 -13 -25 5 -48 37 -48 21 0 24 -5 24 -35 0 -19 5 -35 11 -35 6 0 10 22 9 58 -1 31 -1 63 -1 70 2 21 21 13 33 -13 l11 -25 14 37 c7 21 13 46 13 55 0 9 37 49 83 89 111 98 246 220 334 302 39 37 74 67 77 67 10 0 8 -5 -145 -337 -17 -38 -58 -124 -91 -192 -84 -173 -137 -289 -156 -336 -8 -22 -18 -44 -22 -50 -3 -5 -12 -30 -20 -55 -7 -25 -21 -72 -32 -105 -10 -33 -23 -76 -29 -95 -9 -32 -38 -99 -60 -142 -12 -23 -11 -38 1 -38 6 0 10 7 10 15 0 23 14 18 31 -11 l16 -27 27 54 c14 30 39 70 56 89 16 19 30 38 30 42 0 4 11 31 24 60 13 29 33 74 45 101 11 26 31 68 42 95 26 57 56 125 77 172 8 19 79 166 157 325 78 160 156 319 173 355 16 36 46 100 66 142 20 43 36 80 36 82 0 3 11 29 24 58 33 76 34 80 25 106 -8 22 -10 22 -31 8 -12 -9 -26 -16 -30 -16 -14 0 -8 33 9 52 14 16 14 18 0 18 -18 0 -133 -89 -228 -177 -194 -179 -481 -423 -498 -423 -14 0 -19 25 -31 150 -5 58 -14 137 -20 175 -6 39 -13 95 -16 125 -3 30 -15 97 -26 149 -11 51 -17 106 -14 122 3 16 4 29 2 29 -2 0 -20 -23 -40 -50z" fill="#000000" id="000000-000023"/>
    <path stroke="none" d="M19003 5753 c-11 -16 -27 -44 -35 -63 -9 -19 -26 -57 -38 -85 -13 -27 -42 -92 -66 -143 -24 -52 -44 -96 -44 -98 0 -2 -11 -27 -24 -56 -13 -29 -35 -79 -50 -111 -14 -32 -26 -60 -26 -62 0 -3 -10 -27 -21 -53 -42 -93 -53 -121 -149 -367 -4 -11 -12 -31 -18 -45 -5 -14 -16 -41 -23 -60 -7 -19 -25 -62 -40 -95 -32 -70 -89 -239 -89 -266 0 -11 5 -19 10 -19 6 0 10 7 10 15 0 8 5 15 10 15 12 0 13 -37 1 -44 -12 -8 -20 -55 -10 -61 17 -11 76 32 125 89 64 76 85 117 174 341 40 99 79 196 87 215 8 19 19 44 23 55 4 11 15 36 23 55 8 19 48 116 87 215 39 99 79 196 87 215 8 19 19 44 23 55 4 11 15 36 23 55 41 95 47 116 47 162 0 41 -3 48 -17 46 -12 -2 -17 2 -14 12 16 64 18 90 5 90 -8 0 -14 -4 -14 -10 0 -5 -4 -10 -10 -10 -5 0 -10 6 -10 14 0 27 -18 26 -37 -1z" fill="#000000" id="000000-000021"/>
    <path stroke="none" d="M27776 5722 c-5 -16 -18 -101 -35 -230 -4 -28 -12 -57 -19 -64 -7 -7 -13 -35 -13 -62 l-2 -51 -6 40 -7 40 -7 -45 c-3 -25 -9 -90 -12 -145 -7 -114 -20 -295 -31 -405 l-7 -75 -312 -315 c-375 -380 -409 -416 -400 -430 7 -12 -99 -120 -117 -120 -5 0 -7 -8 -3 -19 3 -10 -1 -24 -10 -31 -8 -7 -15 -16 -15 -21 0 -18 26 -8 60 21 19 16 43 29 53 30 10 0 31 7 47 15 16 8 35 12 43 10 7 -3 34 15 63 42 27 27 74 68 104 92 30 25 229 219 443 433 272 274 387 395 387 411 0 13 23 44 57 79 57 58 78 69 85 46 6 -17 37 13 36 33 -1 8 0 21 0 30 1 9 57 67 125 128 179 164 297 283 297 301 0 3 18 19 40 36 41 30 46 47 16 52 -13 3 -87 -46 -116 -78 -3 -3 -48 -43 -100 -90 -52 -47 -115 -104 -140 -127 -25 -24 -49 -43 -54 -43 -6 0 83 91 195 203 198 194 248 251 236 263 -15 15 -314 -246 -572 -498 -189 -185 -242 -234 -250 -226 -5 5 12 374 26 548 18 226 19 225 -11 225 -21 0 -26 -5 -28 -32 -2 -18 -8 -33 -14 -33 -6 0 -8 10 -4 24 11 43 -16 78 -28 38z" fill="#000000" id="000000-000025"/>
    <path stroke="none" d="M42235 5729 c-74 -13 -141 -28 -220 -51 -85 -24 -82 -23 -225 -92 -219 -106 -300 -156 -371 -233 -56 -60 -77 -99 -85 -156 -6 -40 -4 -45 30 -73 89 -74 94 -76 135 -69 24 4 42 2 46 -4 3 -6 -1 -11 -9 -11 -9 0 -16 -4 -16 -10 0 -14 22 -12 66 6 45 19 82 30 179 50 124 25 155 17 155 -40 0 -35 -40 -76 -255 -260 -153 -131 -173 -147 -370 -296 -82 -63 -184 -141 -226 -174 -42 -34 -92 -74 -112 -90 -50 -38 -36 -53 16 -18 95 64 107 41 17 -31 -33 -27 -60 -53 -60 -58 0 -5 13 -15 28 -23 26 -13 32 -12 85 15 32 16 62 29 68 29 17 0 156 98 292 206 15 12 27 26 27 31 0 15 32 40 60 46 26 7 102 68 210 171 91 86 190 172 309 268 77 61 158 160 170 206 15 56 4 99 -30 119 -16 10 -29 25 -29 35 0 13 -8 18 -25 18 -15 0 -39 7 -54 15 -64 32 -263 29 -408 -7 -33 -8 -47 -8 -58 2 -8 7 -15 15 -15 19 0 8 118 79 175 105 22 11 91 43 153 72 62 30 116 54 119 54 14 0 41 33 37 44 -3 7 15 19 45 30 27 9 57 24 67 31 18 13 17 14 -8 15 -16 0 -28 5 -28 10 0 6 7 10 15 10 8 0 23 4 33 9 19 11 31 15 116 45 105 37 77 57 -49 35z" fill="#000000" id="000000-000027"/>
    <path stroke="none" d="M43735 5729 c-74 -13 -141 -28 -220 -51 -85 -24 -82 -23 -225 -92 -219 -106 -300 -156 -371 -233 -56 -60 -77 -99 -85 -156 -6 -40 -4 -45 30 -73 89 -74 94 -76 135 -69 24 4 42 2 46 -4 3 -6 -1 -11 -9 -11 -9 0 -16 -4 -16 -10 0 -14 22 -12 66 6 45 19 82 30 179 50 124 25 155 17 155 -40 0 -35 -40 -76 -255 -260 -151 -129 -175 -149 -350 -281 -228 -173 -395 -308 -389 -317 3 -4 24 5 47 20 95 64 107 41 17 -31 -33 -27 -60 -53 -60 -58 0 -5 13 -15 28 -23 26 -13 32 -12 85 15 32 16 62 29 68 29 17 0 156 98 292 206 15 12 27 26 27 31 0 15 32 40 60 46 26 7 102 68 210 171 91 86 190 172 309 268 77 61 158 160 170 206 15 56 4 99 -30 119 -16 10 -29 25 -29 35 0 13 -8 18 -25 18 -15 0 -39 7 -54 15 -64 32 -263 29 -408 -7 -33 -8 -47 -8 -58 2 -8 7 -15 15 -15 19 0 8 118 79 175 105 22 11 91 43 153 72 62 30 116 54 119 54 14 0 41 33 37 44 -3 7 15 19 45 30 27 9 57 24 67 31 18 13 17 14 -8 15 -16 0 -28 5 -28 10 0 6 7 10 15 10 8 0 23 4 33 9 19 11 31 15 116 45 105 37 77 57 -49 35z" fill="#000000" id="000000-000028"/>
    <path stroke="none" d="M28680 5574 c0 -8 5 -12 10 -9 6 4 8 11 5 16 -9 14 -15 11 -15 -7z" fill="#000000" id="000000-000040"/>
    <path stroke="none" d="M14181 5259 c-26 -43 -16 -58 15 -22 26 31 29 39 14 48 -5 3 -19 -9 -29 -26z" fill="#000000" id="000000-000056"/>
    <path stroke="none" d="M20361 5259 c-26 -43 -16 -58 15 -22 26 31 29 39 14 48 -5 3 -19 -9 -29 -26z" fill="#000000" id="000000-000057"/>
    <path stroke="none" d="M24281 5259 c-26 -43 -16 -58 15 -22 26 31 29 39 14 48 -5 3 -19 -9 -29 -26z" fill="#000000" id="000000-000058"/>
    <path stroke="none" d="M36161 5259 c-26 -43 -16 -58 15 -22 26 31 29 39 14 48 -5 3 -19 -9 -29 -26z" fill="#000000" id="000000-000059"/>
    <path stroke="none" d="M5262 4209 c-23 -44 -27 -59 -14 -59 10 0 52 73 52 89 0 23 -17 10 -38 -30z" fill="#000000" id="000000-000093"/>
    <path stroke="none" d="M7612 3961 c4 -13 18 -16 19 -4 0 4 -5 9 -11 12 -7 2 -11 -2 -8 -8z" fill="#000000" id="000000-000103"/>
    <path stroke="none" d="M17392 3961 c2 -7 7 -12 11 -12 12 1 9 15 -3 20 -7 2 -11 -2 -8 -8z" fill="#000000" id="000000-000104"/>
    <path stroke="none" d="M40712 3961 c2 -7 7 -12 11 -12 12 1 9 15 -3 20 -7 2 -11 -2 -8 -8z" fill="#000000" id="000000-000106"/>
    <path stroke="none" d="M5116 3914 c-8 -29 -3 -39 13 -29 13 8 15 55 2 55 -5 0 -12 -12 -15 -26z" fill="#000000" id="000000-000107"/>
    <path stroke="none" d="M5076 3824 c-11 -27 -7 -37 9 -24 16 14 20 40 6 40 -5 0 -12 -7 -15 -16z" fill="#000000" id="000000-000109"/>
  </g>
</svg>
