<svg xmlns="http://www.w3.org/2000/svg" version="1.0" width="6008.000000pt" height="2808.000000pt" viewBox="0 0 6008.000000 2808.000000" preserveAspectRatio="xMidYMid meet">
  <g transform="translate(0.000000,2808.000000) scale(0.100000,-0.100000)" stroke="none">
    <path d="M 0 0 H 60080.0 V 28080.0 H 0 Z" fill="#ffffff" id="background"/>
    <path stroke="none" d="M3760 28030 c-139 -19 -258 -67 -342 -140 -58 -50 -129 -157 -156 -235 -39 -115 -47 -221 -28 -400 9 -88 20 -185 25 -215 20 -119 40 -278 43 -340 l3 -65 -35 2 c-19 2 -52 7 -72 13 -21 5 -57 15 -80 21 -24 6 -52 15 -63 20 -11 4 -42 15 -70 23 -47 13 -126 40 -170 57 -167 63 -226 87 -317 128 -26 11 -50 21 -53 21 -2 0 -28 11 -57 24 -29 13 -75 34 -103 46 -27 12 -78 35 -112 51 -196 91 -222 102 -348 159 -27 12 -75 33 -104 47 -57 25 -295 120 -391 155 -30 11 -64 24 -75 28 -11 5 -38 14 -60 21 -22 6 -49 15 -60 20 -11 4 -38 13 -60 20 -22 6 -49 15 -60 19 -11 4 -40 13 -65 20 -79 22 -104 29 -155 46 -27 9 -90 26 -140 39 -49 13 -117 31 -150 40 -67 19 -99 27 -199 50 -79 18 -92 12 -102 -43 -6 -31 -51 -151 -89 -237 -42 -95 -80 -250 -72 -291 3 -16 10 -49 15 -74 17 -87 67 -156 162 -219 61 -41 163 -92 225 -111 22 -7 49 -16 60 -20 11 -5 54 -18 95 -30 41 -12 102 -31 134 -41 33 -10 63 -19 68 -19 8 0 38 -13 183 -79 134 -60 382 -189 583 -303 17 -10 47 -26 65 -36 17 -10 68 -38 112 -62 44 -23 85 -46 90 -50 13 -9 111 -62 260 -140 66 -34 147 -77 180 -95 69 -38 431 -219 520 -260 33 -15 98 -46 145 -67 47 -22 118 -55 158 -74 68 -32 111 -52 223 -103 61 -27 105 -65 123 -104 23 -53 36 -112 36 -160 0 -44 16 -188 59 -522 11 -82 25 -193 31 -245 6 -52 15 -131 20 -175 26 -208 110 -1002 130 -1230 6 -60 17 -177 25 -260 20 -212 45 -481 55 -610 5 -60 14 -164 20 -230 6 -66 15 -174 20 -240 5 -66 14 -176 20 -245 6 -69 15 -186 20 -260 6 -74 17 -220 25 -325 26 -331 39 -494 75 -995 11 -151 24 -333 30 -405 5 -71 14 -195 20 -275 25 -347 79 -1093 110 -1515 11 -143 22 -294 25 -335 3 -41 12 -163 20 -270 8 -107 20 -256 25 -330 6 -74 15 -191 20 -260 6 -69 19 -242 30 -385 11 -143 27 -341 36 -440 8 -99 19 -241 24 -315 6 -74 15 -182 20 -240 6 -58 15 -161 20 -230 5 -69 16 -206 24 -305 8 -99 24 -304 36 -455 11 -151 28 -358 36 -460 8 -102 19 -246 25 -320 5 -74 14 -187 19 -250 6 -63 15 -171 21 -240 5 -69 14 -172 19 -230 6 -58 15 -157 20 -220 12 -141 36 -392 50 -520 6 -52 15 -140 21 -195 17 -159 49 -430 65 -555 9 -63 20 -149 25 -190 5 -41 13 -104 18 -140 5 -36 14 -99 20 -140 6 -41 17 -113 25 -160 9 -47 16 -102 16 -123 l0 -38 -37 6 c-21 4 -51 11 -68 15 -34 10 -101 27 -157 41 -149 36 -414 114 -473 139 -11 4 -36 13 -55 20 -44 15 -63 23 -122 49 -26 12 -50 21 -53 21 -6 0 -210 102 -265 131 -202 110 -463 362 -558 539 -90 167 -132 276 -161 425 -5 28 -15 74 -20 102 -6 29 -13 101 -17 160 -6 103 -3 123 26 228 20 69 31 149 25 173 -13 53 -105 63 -203 21 -148 -64 -334 -354 -388 -609 -25 -119 -18 -309 18 -445 33 -123 34 -126 102 -265 88 -182 136 -253 296 -445 32 -39 224 -231 275 -275 85 -74 252 -200 321 -242 16 -10 49 -31 74 -46 25 -16 70 -42 100 -58 30 -17 64 -36 75 -42 99 -57 402 -176 565 -222 25 -7 56 -16 70 -20 14 -4 52 -13 85 -20 33 -7 71 -16 85 -20 23 -8 68 -16 208 -40 490 -82 1027 -65 1737 57 83 14 170 29 195 33 25 4 92 18 150 30 58 12 123 26 145 31 71 14 190 42 250 58 22 6 58 15 80 20 59 14 207 54 315 85 30 9 73 21 95 27 22 6 49 15 60 19 11 4 40 13 65 20 25 7 54 16 65 20 11 5 38 14 60 20 22 6 49 15 60 20 11 5 38 14 60 20 22 6 49 15 60 20 11 5 54 20 95 34 41 13 95 32 120 41 25 9 70 26 100 37 30 11 64 24 75 28 11 5 108 43 215 85 107 42 215 86 240 97 25 11 61 27 80 35 19 9 58 26 85 38 28 13 73 33 100 45 253 111 740 356 1008 509 20 11 53 30 72 41 19 11 52 30 73 41 20 12 49 30 64 40 14 11 29 19 32 19 4 0 30 15 59 34 28 18 102 64 162 102 263 162 513 338 870 609 447 341 1038 918 1385 1350 35 44 67 82 70 85 3 3 17 21 30 40 13 19 27 37 30 40 39 32 470 653 470 676 0 3 8 18 19 32 10 15 28 43 39 62 10 19 43 76 72 125 62 106 234 442 275 535 15 36 40 92 55 125 27 58 73 166 91 213 5 12 14 33 19 47 6 14 14 35 19 48 5 12 14 38 21 57 15 42 24 67 38 100 6 14 16 43 23 65 6 22 20 63 29 90 10 28 28 84 40 125 13 41 30 95 38 120 8 25 18 61 23 80 4 19 13 53 19 75 17 61 44 166 60 240 5 22 14 60 20 85 5 25 15 70 20 100 6 30 15 80 20 110 23 117 30 170 66 460 33 264 30 839 -6 1145 -19 159 -58 377 -99 540 -9 37 -14 56 -41 150 -5 19 -14 50 -19 68 -17 61 -92 266 -122 334 -11 24 -19 47 -19 53 0 6 -4 18 -10 28 -5 9 -26 53 -46 97 -73 162 -147 307 -222 438 -12 20 -31 53 -42 73 -69 121 -415 617 -450 644 -3 3 -37 43 -74 90 -233 292 -683 745 -1016 1024 -14 11 -57 48 -95 82 -39 34 -93 79 -121 100 -28 21 -89 70 -135 107 -100 81 -101 82 -159 127 -25 19 -47 37 -50 40 -3 3 -21 17 -40 30 -19 13 -37 27 -40 30 -5 5 -214 162 -335 250 -99 72 -330 235 -361 255 -17 11 -103 68 -190 126 -88 58 -206 136 -264 172 -58 37 -141 90 -185 118 -93 60 -196 123 -245 151 -19 11 -47 29 -62 39 -14 11 -29 19 -33 19 -4 0 -19 8 -33 19 -15 10 -43 28 -62 39 -19 11 -91 52 -160 92 -69 40 -140 81 -157 91 -18 11 -50 29 -70 40 -84 48 -463 259 -538 299 -44 23 -107 57 -140 75 -33 18 -121 64 -195 103 -74 39 -196 103 -270 142 -74 39 -556 281 -1070 536 -1046 521 -1048 522 -1360 682 -468 239 -954 491 -1050 544 -25 14 -98 53 -164 88 -125 66 -169 102 -185 154 -14 42 -31 379 -31 611 0 564 -50 845 -190 1071 -74 119 -117 164 -170 176 -62 14 -222 18 -300 8z" fill="#2e2c74" id="2e2c74-000001"/>
    <path stroke="none" d="M5150 24476 c173 -82 323 -153 399 -188 35 -16 96 -44 135 -62 39 -19 101 -48 139 -65 37 -17 95 -44 130 -60 34 -16 85 -39 112 -51 28 -13 92 -42 143 -66 52 -24 95 -44 97 -44 2 0 51 -22 110 -50 59 -27 108 -50 110 -50 2 0 46 -20 97 -44 51 -24 118 -55 148 -69 64 -29 154 -70 225 -102 28 -13 99 -46 158 -74 60 -28 110 -51 111 -51 2 0 64 -29 137 -64 74 -35 159 -75 189 -89 285 -131 1113 -545 1355 -677 28 -15 86 -47 130 -70 44 -24 96 -52 115 -63 19 -11 54 -30 78 -43 23 -13 61 -35 85 -48 140 -77 355 -203 388 -227 15 -10 29 -19 32 -19 5 0 41 -22 245 -148 81 -50 230 -147 295 -191 21 -14 55 -37 76 -51 73 -48 226 -153 231 -160 3 -4 32 -25 65 -48 612 -425 1262 -1034 1676 -1570 111 -144 249 -346 329 -482 8 -14 26 -43 40 -65 44 -71 58 -97 158 -295 102 -205 121 -247 179 -394 19 -50 39 -100 44 -111 13 -31 79 -234 94 -290 8 -27 21 -77 30 -110 10 -33 21 -78 26 -100 4 -22 13 -60 18 -85 33 -138 62 -323 87 -550 32 -283 23 -867 -17 -1155 -19 -137 -57 -314 -89 -415 -9 -30 -23 -75 -30 -100 -8 -25 -17 -49 -22 -55 -4 -5 -8 -16 -8 -25 0 -19 -56 -162 -119 -302 -11 -26 -21 -51 -21 -54 0 -7 -188 -384 -219 -436 -11 -21 -30 -54 -41 -73 -11 -19 -29 -51 -40 -70 -11 -19 -29 -52 -41 -72 -12 -21 -25 -42 -29 -48 -4 -5 -17 -26 -28 -45 -46 -82 -227 -367 -291 -460 -10 -14 -44 -63 -76 -110 -96 -139 -377 -503 -425 -550 -3 -3 -34 -39 -70 -80 -380 -439 -956 -981 -1424 -1340 -54 -41 -121 -93 -150 -115 -58 -46 -210 -154 -335 -239 -46 -31 -98 -68 -116 -81 -17 -14 -35 -25 -39 -25 -3 0 -43 -24 -89 -53 -153 -100 -197 -127 -203 -127 -3 0 -25 -14 -49 -30 -24 -16 -46 -30 -48 -30 -3 0 -34 -17 -68 -39 -135 -81 -547 -294 -709 -366 -36 -15 -92 -41 -125 -56 -33 -15 -85 -37 -115 -49 -30 -12 -71 -28 -90 -37 -69 -30 -94 -40 -185 -73 -33 -12 -69 -26 -80 -30 -54 -22 -120 -45 -244 -86 -137 -44 -159 -51 -241 -74 -25 -7 -56 -16 -70 -20 -28 -9 -91 -25 -147 -39 -21 -5 -58 -15 -83 -21 -78 -20 -121 -30 -255 -60 -22 -5 -67 -14 -100 -20 -33 -6 -80 -15 -105 -20 -110 -22 -259 -42 -437 -61 -126 -13 -508 -8 -522 7 -5 5 -19 108 -30 229 -12 121 -26 263 -31 315 -6 52 -17 172 -26 265 -8 94 -19 217 -25 275 -5 58 -14 161 -19 230 -5 69 -17 208 -25 310 -19 240 -44 560 -56 730 -5 74 -13 191 -19 260 -5 69 -14 184 -19 255 -6 72 -15 186 -21 255 -6 69 -15 177 -20 240 -5 63 -14 162 -20 220 -5 58 -15 161 -20 230 -5 69 -14 177 -20 240 -6 63 -14 167 -19 230 -15 173 -40 471 -51 595 -5 61 -14 169 -20 240 -12 148 -25 304 -40 468 -5 61 -19 218 -30 347 -19 218 -24 283 -50 555 -5 55 -14 152 -20 215 -13 139 -28 293 -40 415 -5 50 -14 140 -20 200 -12 120 -24 240 -40 380 -31 290 -50 503 -60 675 -10 176 -21 291 -51 550 -6 47 -14 119 -19 160 -5 41 -14 116 -20 165 -5 50 -15 137 -20 195 -20 226 -31 350 -40 470 -5 69 -14 179 -20 245 -6 66 -15 181 -20 255 -5 74 -14 191 -20 260 -6 69 -15 186 -20 260 -5 74 -14 191 -20 260 -6 69 -15 186 -20 260 -5 74 -14 191 -20 260 -6 69 -15 184 -20 255 -20 278 -44 565 -60 750 -6 66 -15 170 -20 230 -5 61 -14 157 -20 215 -6 58 -15 146 -20 195 -5 50 -16 160 -24 245 -9 85 -20 202 -26 260 -13 139 -25 464 -17 483 5 12 54 -9 249 -106 134 -67 300 -149 368 -181z" fill="#ffffff" id="ffffff-000002"/>
    <path stroke="none" d="M50524 21281 c-17 -4 -57 -24 -90 -43 -81 -49 -154 -90 -185 -106 -14 -7 -73 -48 -130 -91 -128 -97 -300 -274 -378 -390 -58 -86 -141 -220 -141 -227 0 -2 -13 -32 -29 -68 -47 -101 -57 -170 -42 -274 18 -129 51 -215 107 -281 42 -50 84 -63 212 -62 270 0 414 67 533 247 14 21 38 58 54 82 16 23 99 110 185 192 191 182 223 234 249 407 30 201 -6 416 -89 533 -47 65 -168 104 -256 81z" fill="#2e2c74" id="2e2c74-000002"/>
    <path stroke="none" d="M39380 18807 c-81 -24 -130 -90 -144 -192 -3 -27 -15 -381 -26 -785 -24 -878 -37 -1348 -50 -1765 -5 -170 -17 -528 -25 -795 -57 -1859 -65 -2107 -75 -2390 -5 -151 -12 -351 -16 -443 l-7 -169 -65 -71 c-458 -505 -871 -897 -1175 -1117 -96 -69 -347 -200 -383 -200 -13 0 -25 -4 -28 -9 -3 -5 -18 -11 -33 -14 -156 -31 -202 -37 -290 -37 -213 0 -446 75 -545 177 -78 81 -150 225 -185 368 -7 33 -18 76 -23 95 -14 52 -27 125 -40 215 -6 44 -13 94 -16 110 -2 17 -11 113 -19 215 -26 329 -15 970 25 1475 24 295 30 365 40 460 6 55 15 141 20 190 5 50 14 128 20 175 6 47 15 123 20 170 5 47 15 121 21 165 6 44 15 112 19 150 17 134 29 220 40 295 7 41 16 104 20 140 19 135 52 355 80 523 6 31 14 83 20 115 17 103 35 209 60 360 5 31 14 84 20 117 6 33 16 87 21 120 28 159 30 174 59 325 15 73 30 161 40 220 11 68 26 152 41 228 7 31 12 75 13 96 1 46 10 42 -169 67 -150 21 -676 18 -815 -4 -58 -9 -123 -20 -145 -23 -70 -9 -244 -49 -325 -74 -14 -4 -45 -13 -70 -20 -25 -7 -54 -16 -65 -20 -11 -5 -49 -18 -85 -30 -36 -12 -84 -30 -107 -41 -24 -10 -47 -19 -51 -19 -5 0 -22 -6 -38 -14 -16 -7 -81 -37 -144 -65 -101 -45 -313 -155 -422 -219 -21 -12 -54 -31 -73 -42 -34 -19 -232 -152 -360 -242 -225 -157 -613 -505 -894 -802 -175 -185 -442 -490 -521 -596 -14 -19 -34 -45 -46 -59 -22 -28 -196 -260 -286 -381 -30 -41 -84 -117 -119 -168 -35 -52 -90 -130 -121 -175 -114 -163 -334 -498 -430 -657 -25 -41 -69 -113 -98 -160 -29 -47 -60 -98 -70 -115 -9 -16 -32 -55 -50 -85 -53 -89 -63 -108 -137 -255 -71 -142 -113 -231 -113 -240 0 -2 -13 -34 -30 -70 -16 -36 -30 -70 -30 -75 0 -6 -9 -29 -19 -53 -45 -101 -142 -392 -192 -577 -6 -25 -15 -58 -20 -75 -15 -54 -41 -159 -50 -205 -5 -25 -13 -65 -19 -90 -6 -25 -13 -61 -16 -80 -3 -19 -9 -53 -14 -75 -26 -120 -49 -296 -59 -452 -4 -68 -11 -126 -15 -130 -8 -8 -55 8 -144 48 -34 16 -64 29 -66 29 -9 0 -198 108 -250 143 -168 113 -324 314 -419 537 -8 19 -24 56 -36 82 -11 26 -21 52 -21 58 0 6 -10 32 -21 58 -46 103 -65 151 -105 272 -8 25 -19 54 -24 65 -5 11 -14 38 -20 60 -6 22 -15 49 -20 60 -4 11 -13 40 -20 65 -7 25 -20 70 -30 100 -17 55 -32 106 -50 180 -5 22 -14 58 -20 80 -5 22 -14 57 -19 78 -36 141 -77 348 -92 461 -6 42 -15 105 -20 141 -5 36 -14 99 -19 140 -5 41 -14 108 -20 148 -5 39 -14 102 -19 140 -12 89 -50 342 -62 417 -6 33 -14 89 -19 125 -8 60 -36 237 -61 385 -5 33 -14 87 -19 120 -9 57 -15 84 -39 200 -18 90 -45 203 -60 258 -13 43 -29 100 -41 142 -7 26 -25 81 -50 150 -4 11 -12 31 -18 45 -5 14 -20 52 -33 85 -133 352 -278 562 -529 764 -163 132 -378 249 -498 272 -119 22 -277 -27 -414 -129 -131 -97 -372 -351 -486 -512 -107 -150 -272 -403 -272 -416 0 -3 -13 -25 -30 -49 -16 -24 -30 -45 -30 -48 0 -2 -28 -53 -61 -113 -94 -167 -183 -348 -294 -599 -7 -16 -25 -56 -39 -88 -14 -32 -26 -60 -26 -62 0 -3 -10 -27 -21 -53 -12 -26 -28 -62 -35 -79 -8 -18 -21 -50 -30 -70 -9 -21 -20 -47 -24 -58 -4 -11 -15 -36 -23 -55 -9 -19 -34 -82 -57 -140 -23 -58 -53 -129 -66 -158 -13 -29 -24 -57 -24 -62 0 -6 -9 -32 -21 -58 -12 -26 -26 -58 -31 -72 -6 -14 -14 -33 -19 -42 -5 -10 -9 -22 -9 -28 0 -6 -10 -32 -21 -58 -38 -84 -47 -105 -104 -252 -60 -152 -69 -176 -84 -212 -6 -13 -17 -43 -25 -68 -15 -47 -42 -121 -56 -155 -5 -11 -16 -40 -24 -65 -8 -25 -21 -63 -29 -85 -8 -22 -25 -74 -37 -115 -13 -41 -31 -100 -40 -130 -10 -30 -23 -75 -30 -100 -7 -25 -16 -56 -20 -70 -4 -14 -14 -51 -21 -83 -7 -32 -16 -60 -21 -63 -4 -3 -8 -16 -8 -29 0 -13 -5 -27 -11 -31 -9 -5 -10 11 -5 57 20 209 96 4022 96 4816 0 142 -4 263 -8 269 -4 6 -38 21 -76 33 -83 27 -137 53 -191 93 -22 16 -62 44 -88 61 -27 18 -106 72 -177 120 -129 89 -197 121 -274 132 -87 12 -125 -18 -152 -120 -14 -52 -14 -87 -5 -270 6 -115 15 -311 21 -435 5 -124 12 -277 15 -340 14 -300 42 -1206 61 -1940 18 -712 29 -2390 17 -2670 l-8 -195 -40 -7 c-22 -4 -78 -12 -125 -18 -47 -6 -105 -15 -130 -20 -121 -23 -287 -57 -345 -71 -22 -6 -58 -14 -80 -19 -22 -5 -56 -13 -75 -19 -42 -12 -92 -26 -142 -40 -21 -6 -53 -15 -70 -20 -18 -5 -44 -13 -58 -16 -14 -4 -34 -10 -45 -14 -11 -5 -38 -14 -60 -20 -22 -7 -49 -16 -60 -20 -11 -5 -38 -14 -60 -20 -22 -7 -51 -17 -65 -23 -33 -14 -58 -23 -100 -38 -19 -7 -44 -16 -55 -20 -11 -5 -51 -20 -90 -35 -38 -15 -85 -33 -102 -41 -18 -8 -48 -20 -65 -28 -424 -185 -756 -392 -1271 -791 -32 -25 -62 -45 -66 -45 -15 0 -22 809 -12 1215 14 522 26 759 61 1215 14 187 43 511 60 665 6 55 15 145 20 200 5 55 14 145 20 200 6 55 15 148 20 206 5 58 14 150 20 205 41 383 59 653 67 951 l6 263 -38 35 c-35 33 -266 155 -293 155 -7 0 -20 4 -30 10 -43 23 -234 77 -357 100 -33 6 -79 15 -103 21 -24 5 -83 12 -130 15 -105 8 -110 5 -124 -93 -18 -128 -26 -168 -58 -328 -4 -22 -13 -67 -20 -100 -7 -33 -16 -78 -20 -100 -4 -22 -13 -67 -20 -100 -13 -64 -24 -118 -40 -190 -5 -25 -14 -65 -20 -90 -5 -25 -14 -64 -20 -87 -5 -24 -14 -65 -19 -93 -6 -27 -15 -68 -21 -90 -6 -22 -16 -60 -22 -85 -23 -100 -43 -181 -58 -235 -6 -22 -15 -56 -20 -75 -5 -19 -14 -53 -20 -75 -6 -22 -15 -56 -20 -75 -8 -34 -17 -65 -41 -147 -6 -21 -13 -50 -16 -66 -3 -15 -9 -30 -14 -33 -5 -3 -9 -13 -9 -23 0 -10 -9 -47 -20 -82 -11 -35 -30 -95 -42 -134 -35 -115 -65 -205 -98 -295 -17 -47 -38 -105 -46 -130 -8 -25 -19 -54 -24 -65 -4 -11 -34 -85 -65 -165 -31 -80 -65 -163 -75 -185 -9 -22 -30 -69 -46 -105 -65 -149 -260 -528 -305 -592 -11 -14 -19 -29 -19 -32 0 -6 -167 -255 -232 -346 -75 -105 -199 -252 -297 -353 -243 -249 -475 -377 -684 -377 -165 0 -339 83 -481 230 -124 129 -220 284 -293 475 -66 171 -81 215 -133 385 -12 41 -26 86 -30 100 -9 30 -28 102 -41 153 -5 20 -13 54 -18 75 -5 20 -14 55 -19 77 -6 22 -15 65 -22 95 -6 30 -15 73 -20 95 -4 22 -14 67 -20 100 -6 33 -15 78 -20 100 -5 22 -14 74 -20 115 -6 41 -15 95 -20 120 -5 25 -14 81 -20 125 -6 44 -15 107 -20 140 -23 152 -58 440 -70 581 -6 60 -15 159 -20 219 -12 122 -22 269 -45 635 -32 525 -48 831 -65 1255 -35 880 -59 1200 -103 1349 -20 68 -177 177 -303 211 -170 46 -362 58 -478 30 -92 -22 -91 -19 -77 -187 21 -261 41 -531 51 -683 6 -82 17 -242 25 -355 8 -113 24 -356 35 -540 32 -543 53 -844 76 -1125 8 -99 19 -234 24 -300 5 -66 14 -169 20 -230 5 -60 15 -162 20 -225 5 -63 14 -158 19 -210 6 -52 15 -144 21 -205 6 -60 15 -148 20 -195 6 -47 15 -128 20 -180 6 -52 17 -149 25 -215 18 -146 42 -358 56 -480 5 -49 14 -126 20 -170 5 -44 14 -118 19 -165 5 -47 14 -121 19 -165 12 -96 36 -291 55 -458 24 -201 60 -423 85 -522 6 -22 14 -58 19 -80 13 -53 63 -203 98 -290 159 -398 446 -724 775 -884 47 -22 93 -41 102 -41 9 0 18 -4 21 -9 3 -4 22 -11 43 -14 21 -4 72 -13 113 -22 87 -17 312 -20 392 -4 29 5 76 15 103 20 178 35 381 113 500 192 486 323 901 757 1215 1272 129 212 203 338 271 460 15 28 44 79 63 115 60 107 180 347 235 470 29 63 60 133 70 155 10 22 29 65 43 95 50 117 69 120 50 9 -8 -43 -12 -184 -12 -378 0 -458 -17 -1052 -61 -2061 -10 -243 -12 -256 -32 -272 -12 -9 -65 -48 -117 -85 -376 -268 -769 -686 -1070 -1138 -19 -29 -48 -72 -64 -96 -61 -90 -179 -279 -216 -344 -111 -196 -185 -335 -258 -483 -83 -169 -101 -207 -172 -367 -16 -38 -35 -78 -40 -87 -6 -10 -10 -22 -10 -28 0 -5 -13 -38 -29 -72 -15 -35 -34 -81 -42 -103 -7 -22 -17 -44 -21 -49 -4 -6 -8 -16 -8 -23 0 -7 -8 -32 -19 -56 -10 -23 -28 -67 -39 -97 -11 -30 -27 -75 -37 -99 -22 -59 -179 -534 -195 -591 -7 -25 -16 -54 -20 -65 -4 -11 -18 -58 -30 -105 -12 -47 -26 -96 -30 -110 -18 -57 -53 -190 -81 -302 -5 -21 -13 -55 -19 -75 -10 -42 -46 -195 -61 -260 -5 -24 -13 -62 -19 -85 -5 -24 -11 -56 -14 -73 -3 -16 -10 -52 -16 -80 -32 -156 -79 -448 -99 -615 -47 -395 -60 -548 -71 -875 -13 -387 4 -796 47 -1140 25 -200 31 -248 42 -305 6 -30 15 -82 21 -115 5 -33 12 -71 15 -85 3 -14 10 -44 16 -67 29 -132 46 -203 73 -308 16 -59 51 -171 66 -210 5 -11 27 -69 51 -130 169 -434 477 -871 744 -1054 71 -48 211 -120 275 -140 19 -6 62 -19 95 -29 117 -37 145 -44 350 -82 157 -29 536 -29 640 0 39 11 82 20 97 20 77 1 282 76 403 147 250 148 430 467 564 1001 6 23 16 61 22 85 20 77 27 112 39 172 6 33 15 76 20 95 5 19 12 51 15 70 34 193 48 280 60 365 8 55 19 127 24 160 15 89 37 303 61 580 7 72 15 133 19 137 4 5 5870 9 13036 10 l13030 3 0 2735 0 2735 -13020 5 -13020 5 -6 185 c-4 102 -10 429 -14 727 l-7 541 48 45 c153 142 709 588 944 757 172 124 243 174 419 292 211 142 256 169 436 271 96 53 437 221 505 247 57 22 81 33 162 69 26 11 52 21 58 21 6 0 18 4 28 9 23 12 56 25 127 51 33 12 69 26 80 30 11 5 74 27 140 49 88 30 122 37 128 28 4 -7 5 -93 2 -192 -16 -514 -41 -1123 -66 -1588 -10 -188 -9 -220 4 -240 40 -60 172 -199 212 -223 40 -23 53 -26 98 -20 110 14 266 25 373 25 120 1 127 4 137 56 7 36 21 95 37 150 6 22 15 56 20 75 5 19 13 51 19 70 5 19 19 71 31 115 12 44 26 95 31 113 5 17 14 48 19 67 6 19 14 50 19 68 6 17 19 64 29 102 11 39 27 90 35 115 8 25 29 92 47 150 35 116 48 155 60 185 4 11 13 40 20 65 7 25 16 54 20 65 5 11 13 36 19 55 21 68 59 186 74 225 8 22 24 72 36 110 12 39 26 79 31 90 5 11 25 67 44 125 42 125 84 247 96 275 4 11 14 40 21 65 7 25 15 50 19 55 3 6 12 28 19 50 7 22 16 49 20 60 5 11 14 38 20 60 7 22 16 49 21 60 32 78 50 130 50 145 0 9 3 20 7 23 7 8 63 162 70 197 3 14 9 30 13 35 3 6 12 30 20 55 7 25 17 49 22 54 4 6 8 19 8 31 0 12 4 25 8 31 4 5 14 27 21 49 7 22 16 49 21 60 5 11 18 49 30 85 12 36 25 74 30 85 4 11 18 47 30 80 12 33 29 75 37 94 8 18 19 45 23 60 10 35 165 422 196 489 13 29 24 55 24 57 0 5 11 30 61 143 12 26 30 65 39 87 101 231 345 715 440 871 22 36 40 67 40 69 0 7 89 149 156 250 174 261 350 417 487 432 82 10 136 -40 204 -187 43 -92 49 -106 62 -150 6 -19 18 -57 27 -85 9 -27 20 -66 25 -85 17 -71 28 -116 39 -155 12 -41 22 -81 39 -150 5 -22 15 -58 21 -80 6 -22 16 -58 21 -80 28 -113 46 -184 59 -230 6 -22 16 -57 21 -77 5 -21 13 -55 19 -75 5 -21 14 -56 19 -78 6 -22 15 -58 20 -80 6 -22 15 -60 21 -85 6 -25 15 -62 20 -82 6 -21 15 -56 20 -78 6 -22 15 -58 20 -80 6 -22 15 -58 20 -80 6 -22 14 -57 19 -77 5 -21 17 -67 26 -103 8 -36 20 -81 25 -100 4 -19 14 -55 21 -80 6 -25 15 -58 20 -75 4 -16 13 -50 20 -75 6 -25 15 -58 20 -75 4 -16 13 -50 20 -75 6 -25 15 -58 20 -75 4 -16 13 -50 20 -75 16 -63 26 -98 39 -150 7 -25 16 -56 20 -70 8 -27 28 -97 41 -145 27 -101 33 -125 49 -175 9 -30 27 -89 40 -130 12 -41 26 -84 30 -95 4 -11 13 -36 20 -55 7 -19 16 -44 20 -55 4 -11 13 -36 20 -55 7 -19 16 -44 20 -55 4 -11 18 -47 31 -80 12 -33 35 -88 51 -123 15 -34 28 -64 28 -67 0 -8 149 -310 183 -370 70 -124 79 -139 126 -209 105 -154 211 -276 331 -380 247 -214 534 -322 764 -287 118 17 145 15 150 -11 3 -13 10 -52 16 -88 16 -86 46 -172 81 -232 16 -27 29 -51 29 -54 0 -16 130 -194 182 -250 90 -95 225 -186 323 -216 114 -35 147 -40 270 -40 155 1 371 40 500 92 11 4 58 23 105 41 88 34 210 93 315 152 149 83 427 278 560 391 33 28 73 62 89 76 310 263 645 612 1015 1060 106 128 406 524 521 686 100 142 243 351 252 369 6 11 28 45 50 75 43 62 147 221 188 290 15 25 51 83 80 130 97 155 261 440 322 558 38 73 44 58 28 -63 -6 -38 -14 -101 -20 -140 -5 -38 -14 -101 -20 -140 -6 -38 -15 -108 -20 -155 -5 -47 -14 -125 -20 -175 -44 -383 -63 -744 -64 -1160 0 -495 13 -665 76 -975 6 -30 29 -109 50 -175 66 -197 196 -367 368 -482 67 -44 101 -60 220 -102 48 -18 327 -25 430 -12 138 17 345 64 405 90 11 5 36 14 55 21 61 21 72 26 235 105 403 194 722 426 1103 800 207 202 360 385 440 526 11 19 43 75 72 124 29 50 67 114 84 143 16 28 34 52 39 52 5 0 6 -30 3 -67 -3 -38 -8 -156 -11 -263 -14 -463 -50 -1034 -84 -1334 -13 -110 -14 -108 126 -318 123 -184 136 -201 213 -278 60 -60 99 -83 188 -107 115 -32 425 -13 436 26 2 9 7 57 11 106 14 211 63 613 105 863 5 34 15 89 20 122 16 98 29 172 40 225 15 76 30 156 36 195 2 19 9 51 14 70 11 46 26 111 40 185 17 90 36 176 70 320 12 50 26 110 31 135 6 25 15 63 20 85 6 22 14 56 19 75 5 19 13 54 19 78 6 23 16 60 21 82 6 22 15 59 21 83 22 81 28 102 39 147 25 99 33 126 40 150 4 14 12 43 18 65 6 22 20 74 32 115 11 41 26 93 32 115 20 72 31 110 38 130 4 11 13 40 20 65 23 83 33 115 40 135 5 11 18 54 30 95 12 41 25 84 30 95 4 11 13 40 20 65 7 25 16 54 20 65 5 11 22 65 39 120 18 55 35 109 40 120 5 11 14 36 21 55 7 19 16 44 20 55 5 11 18 52 31 90 13 39 26 74 31 80 4 5 8 17 8 27 0 10 4 26 9 36 16 31 30 66 46 117 9 28 27 75 40 105 13 30 65 161 116 290 51 129 105 263 121 298 15 34 28 65 28 67 0 2 14 34 30 70 17 36 30 67 30 69 0 2 20 46 44 98 24 51 55 118 69 148 111 242 310 629 414 810 31 52 65 111 75 130 11 19 29 47 39 62 11 14 19 29 19 33 0 3 14 26 30 50 17 24 30 46 30 50 0 3 31 52 69 108 102 152 216 248 277 233 13 -4 37 -25 53 -47 51 -69 82 -205 113 -489 16 -152 17 -1002 0 -1335 -36 -743 -49 -2202 -23 -2595 16 -243 46 -503 71 -620 7 -30 16 -73 20 -95 27 -136 63 -220 133 -306 84 -103 193 -169 337 -205 101 -25 179 -14 255 35 45 30 115 117 115 144 0 9 4 25 10 35 5 9 16 40 24 67 14 49 41 130 57 170 4 11 13 38 20 60 13 44 46 139 59 170 5 11 18 49 30 85 12 36 25 74 30 85 4 11 13 36 20 55 7 19 16 44 20 55 8 19 25 66 69 188 22 59 186 476 206 522 7 17 22 51 34 77 11 26 21 50 21 53 0 2 14 34 30 70 17 36 30 68 30 70 0 3 16 40 36 82 19 43 42 94 51 113 15 34 26 59 124 270 121 262 366 738 481 933 15 26 28 50 28 53 0 3 14 25 30 49 17 24 30 47 30 50 0 4 8 19 19 33 10 15 28 43 39 62 158 278 439 676 586 828 111 117 199 172 271 172 39 0 50 -5 83 -38 65 -65 94 -181 112 -447 6 -88 15 -198 20 -245 5 -47 14 -132 20 -190 14 -142 28 -249 60 -472 6 -40 15 -104 21 -143 6 -38 14 -92 19 -120 5 -27 14 -84 20 -125 6 -41 15 -93 20 -115 5 -22 14 -69 20 -105 6 -36 15 -81 20 -100 5 -19 14 -57 20 -85 16 -71 26 -110 50 -190 11 -38 25 -88 31 -110 6 -22 15 -49 19 -60 5 -11 14 -38 21 -60 6 -22 15 -49 19 -60 5 -11 20 -51 35 -90 50 -132 157 -356 213 -449 23 -37 42 -70 42 -72 0 -9 104 -159 144 -209 58 -72 229 -244 284 -285 26 -19 51 -39 57 -43 9 -8 30 -21 114 -75 90 -56 282 -140 386 -168 168 -44 189 -47 385 -48 181 -1 260 6 370 34 19 4 60 13 90 20 30 6 66 15 80 20 14 4 59 18 100 30 41 12 84 26 95 30 11 5 47 18 80 30 33 12 75 29 93 36 17 8 49 21 70 30 20 9 73 33 117 54 44 20 97 43 118 51 61 22 71 40 78 142 4 52 3 100 -3 110 -5 9 -28 26 -51 36 -96 42 -150 46 -632 46 -446 1 -492 3 -601 30 -308 78 -618 375 -816 785 -56 116 -67 140 -88 195 -4 11 -17 44 -29 74 -12 29 -21 59 -21 66 0 7 -8 34 -19 61 -19 49 -51 155 -69 229 -6 22 -15 58 -21 80 -12 50 -26 113 -41 190 -6 33 -14 71 -17 85 -5 25 -11 65 -33 210 -6 41 -15 116 -20 165 -5 50 -16 155 -24 235 -36 330 -70 664 -96 955 -5 61 -14 148 -20 195 -6 47 -15 126 -20 175 -30 291 -98 674 -143 810 -67 206 -172 314 -347 360 -178 46 -282 45 -472 -3 -37 -10 -134 -54 -194 -90 -171 -100 -479 -420 -691 -717 -63 -88 -193 -290 -193 -300 0 -1 -17 -32 -38 -66 -38 -63 -60 -103 -149 -264 -49 -89 -312 -617 -366 -735 -55 -121 -88 -196 -115 -265 -11 -27 -32 -77 -47 -110 -38 -83 -50 -112 -75 -175 -12 -30 -32 -78 -46 -108 -13 -29 -24 -55 -24 -57 0 -3 -10 -27 -21 -53 -36 -79 -47 -105 -69 -162 -12 -30 -32 -77 -44 -105 -12 -27 -28 -66 -36 -85 -7 -19 -17 -39 -22 -44 -4 -6 -8 -16 -8 -23 0 -7 -13 -42 -30 -78 -16 -36 -30 -69 -30 -73 0 -11 -44 -92 -51 -92 -5 0 -10 69 -39 530 -24 382 -59 1277 -80 2055 -24 894 -54 1283 -125 1630 -33 158 -241 423 -390 495 -67 33 -74 34 -185 34 -119 0 -165 -10 -290 -67 -286 -130 -748 -654 -1080 -1222 -10 -16 -36 -61 -60 -99 -23 -38 -50 -84 -61 -102 -10 -19 -29 -51 -40 -71 -125 -221 -336 -637 -419 -828 -16 -38 -39 -89 -80 -180 -26 -57 -42 -96 -94 -220 -26 -60 -52 -121 -58 -135 -6 -14 -15 -35 -19 -47 -9 -23 -21 -53 -38 -95 -33 -82 -85 -220 -97 -258 -8 -25 -19 -54 -23 -65 -5 -11 -14 -36 -21 -55 -7 -19 -16 -44 -20 -55 -5 -11 -18 -49 -30 -85 -12 -36 -25 -74 -30 -85 -5 -11 -37 -105 -71 -210 -34 -104 -65 -199 -69 -210 -4 -11 -13 -40 -20 -65 -7 -25 -16 -56 -20 -70 -5 -14 -14 -47 -21 -75 -36 -145 -42 -61 -35 439 15 1006 50 1797 106 2401 11 125 23 276 47 620 21 313 25 1213 5 1261 -18 41 -254 235 -367 301 -139 81 -299 113 -405 80z" fill="#2e2c74" id="2e2c74-000003"/>
    <path stroke="none" d="M35706 16407 c6 -17 -19 -180 -67 -434 -18 -94 -41 -198 -79 -363 -8 -34 -42 -163 -60 -225 -4 -16 -16 -57 -25 -90 -17 -66 -18 -67 -75 -245 -23 -69 -45 -134 -49 -145 -5 -11 -14 -36 -21 -55 -7 -19 -17 -46 -22 -60 -12 -29 -17 -42 -49 -125 -23 -62 -96 -236 -131 -315 -11 -25 -29 -65 -40 -90 -25 -54 -60 -128 -75 -155 -6 -11 -23 -47 -38 -80 -45 -101 -281 -546 -317 -597 -10 -14 -18 -29 -18 -32 0 -4 -18 -36 -40 -72 -22 -36 -40 -68 -40 -70 0 -7 -154 -251 -257 -409 -349 -530 -748 -1021 -1174 -1442 -414 -409 -725 -641 -1091 -815 -10 -4 -26 -8 -36 -8 -10 0 -23 -5 -29 -11 -5 -5 -51 -13 -102 -16 l-92 -6 -47 49 c-26 27 -55 65 -64 84 -82 179 -93 236 -93 475 1 181 6 243 42 450 17 100 27 150 42 210 6 22 14 58 20 80 5 22 14 56 20 75 21 75 33 116 38 140 3 14 9 30 13 35 3 6 12 30 19 55 16 55 30 98 41 125 5 11 32 81 61 155 29 74 64 162 79 195 15 33 35 80 46 105 36 85 222 455 281 560 207 366 379 629 667 1020 23 30 43 57 46 60 3 3 35 43 70 90 77 101 76 99 137 175 276 347 751 822 1098 1098 33 27 69 55 79 64 84 68 370 276 514 372 103 69 254 144 342 170 83 25 125 29 293 30 136 1 179 -2 183 -12z" fill="#ffffff" id="ffffff-000003"/>
    <path stroke="none" d="M20574 8903 c12 -268 26 -553 46 -888 19 -330 29 -547 53 -1130 17 -428 17 -2588 -1 -2930 -20 -412 -32 -613 -42 -745 -5 -69 -14 -190 -20 -270 -6 -80 -15 -181 -20 -225 -5 -44 -14 -125 -20 -180 -13 -116 -25 -197 -46 -315 -9 -47 -19 -110 -24 -140 -16 -112 -31 -183 -60 -300 -14 -55 -29 -118 -39 -160 -5 -19 -16 -60 -26 -90 -108 -344 -236 -526 -404 -576 -69 -21 -364 -24 -456 -5 -271 56 -440 145 -610 322 -93 98 -181 214 -232 309 -16 30 -35 64 -41 75 -19 33 -72 155 -72 165 0 6 -4 18 -9 28 -20 40 -40 96 -61 172 -7 25 -16 56 -20 70 -4 14 -13 50 -19 80 -7 30 -16 73 -21 95 -16 74 -44 268 -62 435 -17 157 -17 892 0 1060 30 294 49 461 63 550 5 36 16 112 25 170 18 124 29 195 44 270 5 30 15 82 21 115 21 116 29 158 59 288 5 23 14 65 20 92 10 49 18 86 40 173 23 93 29 119 40 157 6 22 15 56 20 75 8 33 13 52 40 145 6 19 15 51 20 70 6 19 14 50 19 68 20 70 42 143 50 162 5 11 14 40 21 65 7 25 16 54 20 65 5 11 14 38 21 60 6 22 15 49 20 60 10 26 56 158 75 215 8 25 19 54 24 65 4 11 18 47 30 80 12 33 31 79 41 102 11 24 19 49 19 56 0 7 4 17 8 23 5 5 19 36 32 69 13 33 33 83 46 110 12 28 32 73 44 100 63 144 103 227 193 405 54 107 108 207 118 221 10 15 19 29 19 32 0 6 70 122 119 197 20 31 41 63 46 71 110 176 321 431 583 705 103 108 194 206 202 219 12 21 24 29 51 34 4 0 10 -65 13 -146z" fill="#ffffff" id="ffffff-000006"/>
    <path stroke="none" d="M23900 7621 c152 -19 290 -47 345 -71 11 -5 38 -14 60 -21 22 -7 59 -20 82 -31 24 -10 45 -18 48 -18 12 0 104 -47 165 -84 136 -81 279 -202 372 -313 96 -114 248 -396 248 -459 0 -8 4 -22 9 -32 15 -27 34 -129 28 -145 -4 -12 -36 -15 -179 -16 -95 -1 -178 2 -183 6 -6 5 -17 33 -24 63 -20 86 -33 119 -75 200 -84 161 -238 321 -412 427 -85 52 -127 73 -249 123 -178 74 -524 111 -738 79 -186 -27 -194 -29 -345 -79 -310 -104 -579 -341 -740 -651 -93 -181 -146 -358 -177 -594 -24 -183 -18 -453 15 -605 30 -141 67 -276 85 -317 8 -18 22 -50 31 -70 26 -63 57 -127 75 -153 9 -14 27 -43 39 -64 46 -84 186 -239 295 -328 141 -115 366 -218 565 -258 30 -6 74 -15 98 -21 54 -12 489 -12 528 0 16 5 61 14 99 21 39 6 81 15 95 20 14 4 45 14 70 21 25 7 68 23 95 35 28 12 67 29 87 37 68 28 239 150 312 223 40 39 95 103 121 140 51 73 155 269 155 293 0 8 9 40 19 70 17 51 30 111 46 211 3 19 8 79 11 133 4 77 3 97 -8 98 -7 0 -305 0 -662 0 -458 0 -653 3 -663 10 -19 16 -19 262 1 278 10 8 234 11 830 11 449 0 823 -3 831 -6 13 -5 15 -117 15 -914 0 -819 -2 -908 -16 -914 -25 -9 -237 -7 -253 3 -11 7 -18 53 -27 178 -25 331 -35 438 -43 446 -5 5 -21 -16 -36 -45 -15 -29 -31 -55 -34 -58 -4 -3 -18 -21 -31 -40 -130 -186 -377 -368 -620 -456 -189 -68 -346 -93 -630 -101 -109 -3 -212 0 -250 6 -36 6 -108 16 -160 22 -52 6 -103 15 -115 19 -11 4 -45 13 -75 20 -75 16 -181 55 -317 117 -32 14 -93 48 -175 98 -115 70 -247 179 -338 281 -149 167 -265 358 -330 544 -7 19 -16 44 -20 55 -21 53 -43 132 -60 215 -7 30 -16 71 -21 90 -44 176 -43 624 2 820 6 25 15 65 20 90 21 95 62 231 79 262 6 10 10 23 10 29 0 26 123 255 188 351 70 102 209 254 307 334 90 74 228 161 340 214 136 64 141 66 190 81 22 6 49 15 60 20 18 7 51 16 145 39 41 10 144 26 250 39 93 11 425 7 540 -8z" fill="#ffffff" id="ffffff-000007"/>
    <path stroke="none" d="M42695 7621 c122 -15 292 -51 340 -71 11 -4 36 -13 55 -20 19 -7 54 -21 77 -31 24 -11 47 -19 52 -19 11 0 163 -87 229 -131 70 -47 202 -184 258 -269 76 -113 123 -221 142 -320 36 -185 39 -235 16 -244 -9 -3 -91 -6 -184 -6 -167 0 -168 0 -184 25 -9 13 -16 40 -16 59 0 70 -41 191 -97 287 -72 124 -237 267 -388 338 -27 13 -58 27 -67 32 -10 5 -25 9 -33 9 -8 0 -23 4 -33 9 -30 15 -85 30 -157 41 -38 7 -89 16 -112 21 -58 13 -308 11 -395 -2 -143 -22 -274 -52 -323 -73 -105 -46 -135 -62 -186 -97 -113 -77 -223 -232 -250 -354 -18 -82 -22 -224 -9 -285 49 -216 224 -356 535 -429 28 -7 66 -16 85 -21 19 -5 49 -12 65 -15 17 -3 48 -10 70 -15 22 -5 74 -16 115 -24 41 -9 91 -20 110 -25 19 -6 55 -14 80 -20 49 -10 116 -25 183 -41 23 -5 85 -19 137 -30 52 -12 111 -25 130 -30 19 -5 60 -14 90 -21 30 -6 64 -15 75 -19 11 -4 54 -18 95 -30 91 -27 273 -97 315 -121 120 -68 196 -121 255 -178 121 -118 162 -186 219 -362 20 -63 30 -218 20 -319 -13 -135 -30 -192 -91 -315 -87 -172 -179 -275 -343 -381 -76 -49 -87 -55 -160 -84 -33 -13 -64 -26 -70 -30 -5 -3 -30 -12 -55 -19 -25 -7 -56 -17 -70 -21 -14 -5 -50 -14 -80 -21 -30 -6 -66 -15 -80 -20 -14 -4 -68 -13 -120 -19 -52 -6 -125 -16 -162 -21 -182 -25 -659 -2 -828 41 -19 5 -62 14 -95 21 -65 13 -170 44 -197 59 -10 6 -23 10 -29 10 -23 0 -236 112 -299 158 -88 64 -188 166 -244 251 -25 39 -46 73 -46 77 0 3 -8 18 -18 32 -51 74 -96 242 -112 417 -13 144 -7 181 32 190 13 2 93 4 178 2 l155 -2 12 -55 c6 -30 12 -77 12 -104 1 -27 6 -67 12 -90 6 -22 15 -59 21 -81 17 -68 86 -198 139 -263 71 -88 168 -165 274 -217 154 -75 250 -104 455 -137 96 -15 535 -22 595 -9 28 6 75 15 105 21 30 7 66 15 80 20 14 4 45 13 70 20 111 32 306 143 390 222 76 71 141 177 171 278 17 55 19 257 3 291 -7 13 -24 49 -38 79 -62 133 -243 271 -446 339 -36 12 -74 26 -85 31 -11 4 -40 13 -65 20 -25 6 -61 16 -80 21 -19 5 -66 17 -105 25 -131 29 -250 55 -290 65 -22 5 -60 13 -85 18 -55 12 -222 49 -270 61 -19 4 -51 11 -70 15 -19 3 -51 10 -70 15 -19 5 -62 16 -95 24 -331 81 -498 155 -625 278 -149 143 -170 179 -242 417 -14 45 -14 266 0 316 6 22 16 63 22 90 14 60 47 147 72 193 48 86 59 104 85 134 35 41 105 111 158 159 37 33 176 119 235 146 89 40 121 53 134 53 8 0 17 4 20 9 3 5 18 12 33 15 16 4 46 11 68 17 85 21 192 39 240 40 28 0 61 5 75 9 30 11 408 4 505 -9z" fill="#ffffff" id="ffffff-000008"/>
    <path stroke="none" d="M25977 7543 c14 -16 47 -59 74 -98 26 -38 76 -108 110 -155 34 -47 79 -110 100 -140 21 -30 57 -80 79 -110 22 -30 67 -93 100 -140 33 -47 78 -110 100 -140 22 -30 67 -93 100 -140 33 -47 78 -110 100 -140 22 -30 67 -93 100 -140 70 -101 217 -307 264 -370 18 -25 61 -84 96 -132 34 -49 66 -88 71 -88 4 0 27 28 50 63 24 34 55 78 69 97 15 19 55 76 90 125 35 50 78 110 96 135 18 25 76 106 128 180 52 74 114 162 138 194 73 99 128 178 165 236 20 30 39 57 43 60 4 3 26 34 51 69 24 35 65 93 92 130 72 101 168 236 304 427 78 111 53 102 290 103 114 1 214 -3 222 -8 10 -7 4 -21 -30 -64 -24 -30 -80 -103 -123 -163 -44 -60 -109 -149 -146 -199 -207 -280 -268 -363 -290 -395 -13 -19 -27 -37 -30 -40 -5 -5 -77 -101 -140 -187 -19 -26 -37 -50 -41 -53 -3 -3 -25 -34 -49 -70 -24 -36 -46 -67 -49 -70 -3 -3 -24 -30 -47 -60 -22 -30 -85 -116 -140 -190 -55 -74 -135 -182 -178 -240 -95 -129 -95 -129 -200 -270 l-85 -115 -1 -737 c0 -578 -3 -739 -12 -745 -7 -4 -90 -9 -184 -10 -132 -2 -174 0 -183 10 -7 10 -11 235 -13 749 l-3 735 -42 56 c-40 53 -72 97 -163 222 -20 28 -76 104 -125 170 -99 134 -214 291 -319 435 -75 103 -121 165 -126 170 -3 3 -17 21 -30 40 -13 19 -55 78 -94 130 -38 52 -86 118 -106 145 -20 28 -54 75 -76 105 -23 30 -63 86 -90 124 -27 37 -67 91 -90 120 -22 28 -55 74 -74 101 -19 28 -36 52 -40 55 -3 3 -17 21 -30 40 -13 19 -50 70 -82 113 -32 43 -56 82 -53 88 4 5 96 9 216 9 l210 0 26 -27z" fill="#ffffff" id="ffffff-000009"/>
    <path stroke="none" d="M29826 7563 c10 -7 94 -176 94 -189 0 -2 14 -33 30 -69 17 -36 30 -67 30 -69 0 -2 18 -43 40 -90 22 -47 40 -89 40 -94 0 -5 6 -22 14 -38 8 -16 24 -51 36 -79 12 -27 33 -74 46 -103 13 -29 24 -55 24 -57 0 -2 12 -30 26 -62 14 -32 32 -73 40 -90 36 -85 45 -106 60 -140 9 -21 29 -66 45 -100 16 -34 29 -64 29 -67 0 -3 14 -35 30 -71 17 -36 30 -68 30 -70 0 -2 14 -34 30 -70 17 -36 30 -67 30 -69 0 -2 18 -43 40 -90 22 -47 40 -88 40 -91 0 -2 14 -34 30 -70 17 -36 30 -68 30 -70 0 -2 12 -30 26 -62 25 -55 38 -85 71 -163 39 -90 47 -109 74 -167 16 -34 29 -64 29 -67 0 -3 14 -35 30 -71 17 -36 30 -68 30 -70 0 -3 18 -43 40 -90 22 -47 40 -88 40 -93 0 -5 6 -22 14 -38 8 -16 24 -51 36 -79 12 -27 33 -74 46 -103 13 -29 24 -55 24 -57 0 -2 11 -28 24 -57 13 -29 33 -73 44 -98 11 -25 26 -54 35 -64 14 -19 15 -19 22 5 4 13 16 44 27 69 11 25 26 59 33 75 7 17 22 51 34 77 11 26 21 50 21 53 0 2 11 28 24 57 31 70 65 146 81 183 7 17 22 51 34 77 11 26 21 50 21 53 0 2 11 29 25 60 14 30 36 80 50 110 14 31 25 58 25 60 0 2 14 34 30 70 17 36 30 68 30 70 0 2 12 30 26 62 14 32 33 74 41 93 8 19 24 55 35 80 11 25 24 54 28 65 5 11 22 50 39 87 17 37 31 69 31 72 0 3 14 35 30 71 17 36 30 68 30 70 0 2 14 34 30 70 17 36 30 68 30 70 0 2 14 34 30 70 17 36 30 68 30 70 0 2 12 30 26 62 14 32 33 74 41 93 8 19 28 63 44 98 16 35 29 65 29 68 0 2 9 26 21 52 12 26 25 56 29 67 4 11 22 50 39 87 17 37 31 69 31 72 0 3 12 31 26 63 14 32 32 72 39 88 7 17 22 51 34 77 11 26 21 50 21 54 0 3 13 33 29 67 28 62 47 103 77 175 9 20 20 45 25 54 5 10 9 24 9 32 0 8 7 17 16 20 9 3 131 6 273 6 187 0 260 -3 269 -12 17 -17 17 -3579 0 -3596 -17 -17 -339 -17 -356 0 -9 9 -12 365 -12 1539 0 1446 -3 1594 -26 1522 -7 -21 -28 -69 -59 -138 -12 -27 -29 -66 -38 -85 -8 -19 -27 -61 -41 -93 -14 -32 -26 -60 -26 -62 0 -2 -12 -30 -26 -62 -14 -32 -32 -73 -40 -90 -36 -84 -43 -101 -64 -148 -46 -103 -63 -141 -76 -172 -21 -50 -42 -99 -60 -140 -9 -21 -24 -56 -34 -78 -10 -22 -25 -56 -33 -75 -8 -19 -27 -61 -41 -93 -14 -32 -26 -60 -26 -62 0 -2 -12 -30 -26 -62 -14 -32 -32 -73 -40 -90 -8 -18 -21 -50 -30 -70 -9 -21 -26 -60 -39 -88 -12 -27 -30 -67 -39 -87 -42 -98 -50 -117 -77 -175 -16 -34 -29 -66 -29 -71 0 -6 -9 -27 -19 -49 -11 -21 -26 -54 -34 -73 -8 -19 -27 -61 -41 -93 -14 -32 -26 -60 -26 -62 0 -2 -14 -35 -31 -72 -17 -37 -35 -77 -39 -88 -4 -11 -17 -41 -29 -67 -58 -130 -71 -161 -108 -248 -8 -19 -24 -55 -35 -80 -11 -25 -24 -54 -28 -65 -4 -11 -17 -40 -28 -65 -50 -112 -62 -140 -62 -149 0 -16 -48 -21 -205 -20 -145 1 -157 2 -175 22 -11 11 -20 27 -20 34 0 7 -8 27 -18 45 -10 18 -24 49 -32 68 -7 19 -26 63 -42 98 -15 34 -28 65 -28 67 0 2 -11 28 -24 57 -13 29 -34 76 -46 103 -12 28 -33 74 -46 103 -13 29 -24 55 -24 57 0 6 -24 59 -71 163 -16 35 -29 65 -29 67 0 2 -11 28 -24 57 -13 29 -35 79 -50 111 -14 32 -26 60 -26 62 0 2 -12 30 -26 62 -14 32 -33 74 -41 93 -8 19 -23 53 -33 75 -10 22 -26 58 -35 80 -9 22 -27 63 -40 90 -12 28 -29 66 -38 85 -8 19 -27 61 -41 93 -14 32 -26 60 -26 62 0 2 -12 30 -26 62 -14 32 -32 73 -40 91 -36 83 -43 100 -64 147 -12 28 -33 74 -46 103 -13 29 -24 54 -24 56 0 2 -18 43 -40 90 -22 47 -40 88 -40 91 0 2 -13 34 -30 70 -16 36 -30 68 -30 70 0 2 -11 28 -24 57 -13 29 -34 76 -46 103 -12 28 -31 68 -41 91 -10 22 -27 65 -39 95 -12 30 -27 63 -34 74 -7 11 -23 46 -35 78 -13 31 -27 57 -32 57 -5 0 -9 -653 -9 -1535 0 -1453 -1 -1536 -17 -1543 -10 -4 -94 -7 -188 -7 l-170 0 -3 1799 c-1 1290 1 1802 9 1807 15 9 521 11 535 2z" fill="#ffffff" id="ffffff-000011"/>
    <path stroke="none" d="M39229 7564 c44 -6 49 -9 61 -43 7 -20 22 -56 33 -81 10 -25 25 -58 32 -75 7 -16 25 -56 39 -88 14 -32 26 -60 26 -62 0 -3 10 -27 21 -53 12 -26 27 -60 34 -77 7 -16 23 -52 35 -80 26 -59 47 -108 65 -150 7 -16 20 -47 29 -67 9 -21 23 -54 31 -73 8 -19 22 -51 30 -70 8 -19 21 -50 29 -67 18 -42 52 -118 82 -186 13 -29 24 -55 24 -57 0 -2 14 -34 30 -70 17 -36 30 -68 30 -70 0 -2 14 -34 30 -70 17 -36 30 -68 30 -70 0 -2 11 -28 24 -57 13 -29 34 -75 46 -103 12 -27 33 -74 46 -103 13 -29 24 -56 24 -61 0 -4 6 -21 14 -37 21 -44 78 -173 96 -219 4 -11 22 -51 39 -88 17 -37 31 -70 31 -72 0 -3 14 -34 30 -70 17 -36 30 -68 30 -70 0 -2 14 -34 30 -70 17 -36 30 -68 30 -70 0 -2 14 -34 30 -70 17 -36 30 -68 30 -70 0 -2 12 -30 26 -62 14 -32 32 -73 40 -90 8 -18 20 -48 28 -65 8 -18 26 -59 40 -91 14 -32 26 -60 26 -62 0 -3 10 -27 21 -53 12 -26 27 -60 34 -77 16 -37 50 -113 81 -183 13 -29 24 -55 24 -57 0 -2 11 -28 24 -57 43 -95 56 -130 51 -138 -6 -10 -352 -14 -387 -5 -18 5 -31 25 -57 93 -19 48 -52 124 -73 169 -21 46 -38 89 -38 96 0 7 -4 17 -8 23 -5 5 -16 27 -25 49 -8 22 -31 75 -51 118 -20 42 -36 79 -36 82 0 2 -13 34 -30 70 -16 36 -30 68 -30 70 0 2 -13 34 -30 70 -16 36 -30 68 -30 70 0 2 -11 28 -24 57 -13 29 -33 74 -44 101 -18 40 -25 47 -49 48 -138 3 -1767 -2 -1774 -7 -5 -3 -9 -9 -9 -14 0 -5 -11 -33 -24 -62 -14 -30 -34 -78 -46 -108 -22 -55 -37 -91 -70 -165 -19 -42 -29 -66 -75 -175 -15 -36 -35 -83 -45 -105 -50 -111 -60 -135 -60 -140 0 -3 -10 -27 -21 -53 -30 -67 -73 -166 -90 -209 -26 -67 -31 -71 -77 -78 -24 -4 -112 -5 -195 -4 -165 4 -170 6 -143 64 9 19 23 52 32 73 9 20 29 65 45 100 16 35 29 65 29 68 0 2 18 42 40 89 22 47 40 87 40 89 0 3 11 29 24 58 23 51 46 103 87 196 11 23 29 63 40 90 25 55 53 119 81 182 11 25 31 69 44 98 13 29 24 55 24 58 0 2 15 37 34 77 31 67 42 91 80 180 18 41 52 117 82 185 13 29 24 54 24 56 0 2 18 44 41 93 22 48 46 102 54 118 7 17 25 56 39 88 14 32 26 60 26 63 0 2 18 42 40 89 22 47 40 87 40 90 0 3 18 44 40 91 22 47 40 88 40 90 0 2 11 27 24 56 23 51 46 103 87 196 11 23 27 61 38 85 70 158 101 227 127 285 13 29 24 55 24 58 0 2 17 41 38 87 21 45 45 98 52 117 8 19 22 50 32 68 10 18 18 37 18 43 0 5 18 47 40 94 22 47 40 88 40 93 0 4 9 18 20 29 18 20 30 22 181 22 88 1 182 -1 208 -5z" fill="#ffffff" id="ffffff-000010"/>
    <path stroke="none" d="M47243 7557 c15 -11 17 -29 15 -152 l-3 -140 -675 -2 c-371 -2 -681 -3 -687 -3 -10 0 -13 -337 -13 -1649 0 -1562 -1 -1650 -17 -1655 -28 -9 -354 -3 -359 6 -3 4 -6 747 -7 1651 l-2 1642 -685 5 -685 5 -6 30 c-11 50 -10 235 1 256 11 19 38 19 1558 19 1228 0 1552 -3 1565 -13z" fill="#ffffff" id="ffffff-000013"/>
    <path stroke="none" d="M34291 7527 c27 -34 185 -242 363 -477 60 -80 128 -168 150 -196 23 -29 63 -83 91 -120 27 -38 55 -76 62 -84 6 -8 28 -36 47 -62 20 -27 52 -69 72 -95 19 -27 41 -55 47 -63 14 -18 85 -111 277 -365 191 -252 366 -484 519 -685 239 -316 405 -536 495 -655 49 -66 92 -122 96 -125 3 -3 16 -20 29 -37 12 -18 27 -33 32 -33 5 0 10 590 11 1513 l3 1512 184 3 c141 2 186 -1 193 -10 4 -7 8 -815 8 -1794 0 -1528 -2 -1783 -14 -1793 -10 -9 -73 -11 -219 -9 l-205 3 -24 29 c-12 17 -36 49 -53 72 -26 37 -219 293 -252 334 -13 16 -11 14 -253 335 -91 121 -173 229 -182 240 -9 11 -39 49 -65 85 -26 36 -53 72 -60 80 -7 8 -31 40 -53 70 -23 30 -81 106 -128 168 -48 63 -103 136 -122 162 -19 26 -103 137 -185 247 -83 109 -215 284 -294 388 -80 105 -154 202 -165 216 -22 26 -30 38 -112 149 -27 36 -51 67 -54 70 -4 3 -65 84 -137 180 -126 168 -173 224 -173 204 0 -5 0 -685 0 -1511 0 -1441 -1 -1503 -18 -1512 -10 -5 -93 -9 -188 -8 l-169 2 -3 1803 -2 1802 212 0 213 0 26 -33z" fill="#ffffff" id="ffffff-000012"/>
    <path stroke="none" d="M39020 7165 c0 -8 -13 -42 -29 -77 -16 -35 -36 -79 -44 -98 -8 -19 -25 -57 -37 -85 -27 -60 -49 -113 -60 -140 -11 -27 -33 -80 -60 -140 -27 -60 -49 -113 -60 -140 -11 -28 -34 -81 -60 -140 -47 -106 -63 -141 -75 -170 -7 -16 -22 -51 -34 -77 -11 -26 -21 -50 -21 -53 0 -2 -12 -30 -26 -62 -14 -32 -32 -73 -40 -90 -34 -81 -45 -105 -60 -140 -9 -21 -23 -53 -30 -70 -8 -18 -21 -49 -29 -68 -8 -19 -22 -51 -30 -70 -60 -140 -68 -162 -61 -173 3 -5 335 -8 763 -8 707 1 758 2 761 18 2 10 -3 32 -11 50 -8 18 -24 54 -36 80 -11 26 -21 50 -21 53 0 3 -10 27 -21 53 -36 81 -46 105 -79 187 -33 82 -43 106 -79 187 -11 26 -21 50 -21 53 0 3 -9 27 -21 53 -12 26 -26 58 -31 72 -6 14 -14 33 -19 42 -5 10 -9 22 -9 28 0 5 -13 39 -30 75 -16 36 -30 68 -30 70 0 3 -9 24 -19 48 -10 23 -36 83 -56 132 -21 50 -43 103 -51 119 -8 16 -14 33 -14 37 0 5 -11 32 -24 61 -13 29 -43 100 -66 158 -23 58 -51 124 -61 147 -11 24 -24 54 -29 68 -10 27 -40 35 -40 10z" fill="#2e2c74" id="2e2c74-000006"/>
    <path stroke="none" d="M50314 17805 c-140 -27 -261 -115 -364 -265 -25 -36 -85 -105 -134 -154 l-89 -89 12 -146 c7 -80 16 -204 21 -276 5 -71 14 -191 20 -265 5 -74 14 -207 20 -295 5 -88 14 -227 20 -310 15 -225 49 -776 60 -975 6 -96 17 -285 25 -420 8 -135 17 -288 20 -340 3 -52 12 -207 20 -345 17 -284 40 -695 55 -960 6 -99 15 -252 20 -340 6 -88 15 -234 20 -325 5 -91 14 -230 20 -310 5 -80 14 -217 20 -305 9 -150 18 -281 55 -805 8 -118 19 -282 25 -365 11 -153 32 -396 50 -585 16 -152 27 -187 80 -240 62 -61 219 -136 380 -180 25 -7 56 -16 70 -20 14 -5 48 -13 75 -20 28 -6 66 -15 85 -20 172 -41 348 -39 421 5 40 24 49 93 28 209 -6 34 -15 84 -19 111 -24 136 -52 284 -60 320 -5 22 -14 67 -20 100 -7 33 -15 78 -20 100 -5 22 -14 67 -20 100 -6 33 -16 78 -20 100 -13 59 -27 131 -40 205 -6 36 -15 88 -20 115 -27 148 -53 316 -70 455 -5 41 -14 112 -20 158 -21 167 -30 249 -40 352 -5 58 -15 152 -20 210 -6 58 -15 164 -20 235 -5 72 -14 189 -20 260 -5 72 -15 202 -20 290 -5 88 -14 228 -20 310 -5 83 -14 238 -20 345 -5 107 -14 281 -20 385 -10 204 -19 380 -50 1070 -11 242 -25 526 -30 630 -6 105 -15 278 -20 385 -6 107 -15 265 -20 350 -6 85 -15 227 -20 315 -6 88 -15 219 -21 290 -5 72 -14 186 -19 255 -5 69 -14 172 -19 230 -6 58 -15 175 -22 260 -6 85 -15 164 -19 176 -15 39 -179 55 -306 29z" fill="#2e2c74" id="2e2c74-000004"/>
    <path stroke="none" d="M56095 17384 c-187 -17 -322 -42 -505 -94 -186 -53 -409 -148 -595 -253 -140 -79 -130 -73 -290 -176 -197 -127 -447 -382 -677 -693 -122 -164 -293 -422 -370 -558 -11 -19 -24 -39 -28 -45 -4 -5 -17 -27 -29 -47 -12 -21 -30 -55 -42 -75 -12 -21 -25 -42 -29 -48 -46 -62 -430 -838 -430 -870 0 -2 -13 -33 -28 -67 -16 -35 -48 -112 -71 -173 -44 -112 -54 -137 -70 -177 -5 -13 -19 -52 -31 -88 -12 -36 -25 -74 -30 -85 -5 -11 -23 -63 -40 -115 -17 -52 -35 -104 -39 -115 -5 -11 -14 -40 -21 -65 -7 -25 -20 -65 -28 -90 -15 -47 -17 -53 -52 -185 -12 -44 -25 -93 -30 -110 -17 -60 -66 -266 -85 -360 -3 -16 -10 -50 -15 -75 -89 -424 -147 -986 -137 -1330 10 -335 43 -549 128 -830 36 -123 41 -136 84 -235 106 -242 216 -423 333 -547 60 -64 171 -158 186 -158 4 0 25 -9 49 -19 50 -23 89 -32 252 -59 137 -24 208 -33 355 -47 243 -23 261 -22 530 34 105 22 157 34 180 41 14 4 43 12 65 18 82 22 347 105 390 122 11 4 47 18 80 30 68 25 85 31 138 54 20 9 54 23 75 32 105 44 461 226 562 287 63 38 130 78 149 89 115 66 462 316 672 483 41 33 91 71 109 85 19 14 48 37 64 51 17 14 84 69 148 122 126 103 126 103 268 227 382 332 875 834 1205 1225 173 204 222 264 319 385 59 74 113 142 119 150 201 250 511 701 744 1080 25 41 65 105 89 142 24 37 44 70 44 72 0 2 19 35 42 72 66 110 172 295 192 339 11 22 25 44 32 48 8 4 14 19 14 33 0 31 -31 44 -107 44 -134 0 -246 -66 -437 -256 -97 -96 -161 -167 -409 -449 -470 -532 -1307 -1380 -1572 -1590 -48 -38 -125 -99 -170 -135 -45 -36 -140 -112 -210 -170 -71 -58 -154 -125 -185 -150 -32 -25 -118 -94 -191 -153 -74 -59 -141 -114 -149 -120 -47 -38 -228 -171 -309 -227 -52 -36 -128 -89 -170 -119 -69 -49 -154 -103 -236 -151 -16 -10 -70 -41 -120 -70 -81 -47 -309 -161 -410 -205 -22 -9 -53 -23 -69 -31 -16 -8 -33 -14 -38 -14 -4 0 -30 -9 -56 -21 -100 -44 -285 -111 -387 -140 -16 -4 -48 -13 -70 -19 -22 -6 -57 -16 -77 -21 -21 -5 -56 -13 -78 -19 -99 -25 -128 -32 -165 -40 -219 -48 -279 -51 -405 -16 -146 39 -240 100 -331 212 -57 71 -149 208 -149 223 0 5 -9 30 -19 57 -18 46 -27 77 -50 172 -29 113 -53 236 -80 402 -6 36 -16 141 -22 234 -13 185 -1 412 28 556 8 41 19 93 23 115 5 22 13 57 19 78 6 20 15 52 20 70 26 94 140 436 171 512 4 11 22 58 40 105 18 47 36 95 41 108 5 12 13 32 18 45 5 12 18 43 30 69 12 26 21 50 21 53 0 2 12 30 26 62 14 32 32 72 39 88 7 17 23 53 35 80 13 28 31 70 42 95 92 216 293 613 396 784 23 37 42 70 42 72 0 4 132 199 224 332 24 34 54 75 67 90 13 15 40 47 58 72 119 155 410 449 661 669 47 41 115 100 151 132 36 32 94 81 130 109 35 28 71 56 79 63 148 120 567 408 773 532 185 111 280 180 317 229 58 80 77 156 42 175 -44 24 -254 44 -487 46 -132 2 -258 1 -280 -1z" fill="#2e2c74" id="2e2c74-000005"/>
  </g>
</svg>
