<svg xmlns="http://www.w3.org/2000/svg" version="1.0" width="1680.000000pt" height="2056.000000pt" viewBox="0 0 1680.000000 2056.000000" preserveAspectRatio="xMidYMid meet">
  <g transform="translate(0.000000,2056.000000) scale(0.100000,-0.100000)" stroke="none">
    <path d="M 0 0 H 16800.0 V 20560.0 H 0 Z" fill="#ffffff" id="background"/>
    <path stroke="none" d="M9282 19638 c-5 -7 -13 -49 -17 -93 -4 -44 -11 -85 -15 -90 -5 -6 -18 -35 -30 -65 -35 -93 -147 -247 -225 -313 -85 -71 -123 -92 -197 -106 -90 -16 -250 17 -306 64 -17 14 -40 25 -51 25 -12 0 -32 6 -44 14 -54 35 -158 51 -327 51 -147 -1 -173 -3 -235 -24 -78 -27 -93 -35 -183 -103 -76 -57 -100 -85 -139 -158 -57 -107 -77 -262 -48 -382 21 -89 34 -118 52 -118 10 0 13 22 13 93 0 141 39 206 179 301 29 20 65 39 80 42 14 3 36 10 49 15 70 28 81 -5 23 -66 -36 -37 -60 -73 -100 -150 -9 -18 -17 -67 -19 -119 -4 -87 -4 -90 34 -163 31 -61 47 -80 96 -113 32 -22 64 -40 71 -40 7 0 17 -4 23 -10 19 -19 131 -52 223 -65 182 -26 285 15 373 149 66 100 96 221 69 274 -5 9 -17 34 -25 54 -18 41 -25 47 -76 65 -46 16 -62 16 -96 -2 -40 -21 -76 -20 -72 2 2 10 12 22 23 28 11 6 42 24 70 40 46 27 56 29 141 28 60 -1 101 -6 120 -16 29 -16 123 -108 162 -161 30 -39 30 -131 2 -187 -21 -40 -76 -116 -105 -145 -32 -32 -9 -52 32 -29 170 96 305 210 377 318 l38 59 57 -6 c31 -3 85 -10 121 -17 142 -25 405 -5 471 37 15 9 180 25 264 25 85 1 299 -20 317 -31 10 -5 25 -10 34 -10 9 0 33 -8 53 -18 20 -10 58 -30 86 -43 27 -13 56 -30 63 -36 19 -18 32 -16 32 5 0 18 -188 215 -242 253 -18 13 -38 28 -44 34 -6 5 -25 21 -43 35 -19 14 -57 44 -87 67 -71 57 -213 127 -363 179 -123 44 -125 44 -259 44 -128 0 -179 -7 -306 -41 -31 -9 -42 -8 -53 4 -14 13 -13 18 1 44 45 80 55 122 62 266 8 168 -3 231 -48 283 -33 37 -41 40 -56 22z" fill="#010101" id="010101-000001"/>
    <path stroke="none" d="M10238 18434 c-5 -4 -41 -11 -80 -15 -152 -17 -204 -26 -236 -43 -20 -11 -63 -19 -109 -21 -96 -4 -110 -16 -63 -58 63 -57 176 -190 218 -258 25 -40 52 -101 67 -155 13 -49 29 -103 35 -120 12 -36 12 -357 1 -429 l-9 -50 47 -45 c26 -25 93 -87 150 -139 133 -121 240 -281 292 -436 8 -22 22 -53 31 -70 10 -16 18 -44 18 -61 0 -16 4 -34 9 -40 5 -5 13 -26 16 -46 6 -31 4 -39 -11 -45 -12 -4 -21 -1 -28 11 -12 19 -109 144 -148 188 -60 69 -244 172 -377 210 -135 40 -149 35 -78 -24 63 -52 165 -193 227 -311 29 -56 66 -120 81 -143 15 -22 31 -54 35 -70 4 -16 18 -50 31 -75 13 -26 23 -55 23 -66 0 -10 9 -36 20 -58 11 -22 20 -52 20 -68 0 -15 9 -46 20 -68 17 -32 21 -61 22 -139 1 -94 0 -102 -33 -167 -32 -65 -37 -70 -108 -105 -91 -47 -149 -50 -247 -13 -36 14 -68 25 -70 25 -25 0 73 -134 216 -295 202 -229 260 -301 260 -322 0 -6 6 -16 14 -22 8 -7 26 -38 42 -69 15 -31 35 -68 44 -82 10 -14 25 -47 34 -75 18 -54 81 -209 97 -237 5 -10 9 -28 9 -41 0 -12 9 -47 20 -77 17 -46 20 -82 21 -220 1 -91 4 -178 8 -194 3 -15 2 -83 -2 -150 -12 -176 -32 -250 -152 -561 -37 -94 -41 -115 -23 -115 17 0 113 99 175 180 23 30 63 82 88 115 67 87 125 176 125 191 0 14 21 54 63 121 40 64 117 229 117 251 0 11 4 23 9 26 16 10 64 161 74 231 21 153 7 359 -32 467 -23 64 -36 250 -21 293 13 38 70 75 114 75 28 0 46 -10 96 -56 86 -80 134 -182 150 -319 21 -182 82 -315 168 -362 35 -20 41 -21 52 -8 10 13 10 19 -3 33 -34 37 -51 106 -54 221 -3 88 0 125 13 165 30 92 57 161 71 181 7 11 13 26 13 35 0 9 8 31 18 51 21 41 45 107 61 169 7 25 19 66 27 92 21 64 14 229 -14 332 -12 44 -22 86 -22 95 0 21 -87 193 -127 251 -32 46 -179 191 -226 223 -46 31 -23 73 26 49 31 -15 351 -33 410 -23 26 4 53 13 59 19 7 7 22 12 35 12 13 0 51 14 84 30 44 23 59 36 57 48 -3 9 -11 15 -19 13 -41 -12 -101 -11 -159 4 -36 9 -90 20 -120 24 -90 12 -167 39 -307 107 -160 79 -241 138 -293 215 -22 32 -44 61 -50 64 -5 3 -10 19 -10 35 0 16 -9 46 -21 67 -12 21 -25 65 -31 98 -17 107 -39 317 -44 420 -2 55 -8 109 -13 120 -5 11 -12 36 -15 55 -23 139 -49 191 -144 292 -72 75 -94 91 -197 144 -27 14 -61 31 -75 39 -14 7 -56 21 -95 31 -78 20 -117 46 -97 66 14 14 261 12 276 -3 6 -5 20 -9 33 -9 12 0 37 -9 55 -20 18 -11 39 -20 47 -20 31 0 227 -104 257 -136 30 -32 64 -45 64 -25 0 20 -71 128 -117 178 -62 67 -194 177 -241 199 -21 9 -69 36 -109 60 -39 24 -98 52 -131 63 -32 11 -72 27 -88 34 -84 42 -296 82 -316 61z" fill="#010101" id="010101-000002"/>
    <path stroke="none" d="M9306 18353 c-19 -21 -48 -57 -65 -80 -16 -22 -42 -49 -56 -60 -15 -10 -44 -33 -66 -51 -47 -41 -150 -107 -201 -129 -21 -9 -38 -19 -38 -23 0 -5 -10 -10 -23 -14 -13 -3 -36 -16 -51 -29 -16 -14 -45 -30 -66 -36 -66 -20 -61 -70 12 -124 43 -31 133 -67 170 -67 16 0 43 -7 60 -16 22 -12 50 -15 97 -12 61 3 71 8 127 51 97 74 134 121 148 190 9 41 43 36 64 -10 38 -88 2 -209 -79 -267 -33 -23 -38 -31 -27 -41 13 -12 135 -61 213 -85 85 -27 132 -58 214 -138 48 -47 91 -81 100 -80 13 3 15 15 13 63 -2 33 -7 74 -12 90 -11 34 -29 143 -39 230 -11 105 -113 385 -140 385 -5 0 -13 10 -17 22 -11 35 -121 191 -148 210 -26 19 -123 58 -143 58 -7 0 -28 -17 -47 -37z" fill="#010101" id="010101-000003"/>
    <path stroke="none" d="M7426 18149 l-29 -31 -101 5 c-56 2 -127 9 -158 15 -173 35 -218 33 -264 -10 -31 -28 -77 -135 -82 -191 -7 -73 -26 -81 -162 -74 -60 3 -118 11 -130 17 -15 8 -29 8 -55 -2 -28 -9 -45 -10 -80 0 -114 30 -299 -6 -425 -84 -30 -19 -59 -34 -63 -34 -14 0 -175 -80 -199 -99 -13 -10 -33 -21 -45 -25 -34 -11 -93 -85 -93 -117 0 -37 16 -76 45 -111 36 -42 40 -84 15 -150 -20 -55 -20 -59 -5 -113 14 -46 29 -68 87 -127 69 -69 71 -71 77 -133 7 -65 8 -67 121 -227 46 -65 96 -109 158 -139 46 -21 72 -20 72 4 0 8 -16 48 -35 90 -35 77 -43 115 -26 133 6 5 12 26 14 46 5 47 20 65 68 79 33 10 50 9 116 -11 95 -28 219 -89 293 -144 94 -69 248 -235 285 -306 14 -28 17 -50 12 -120 -6 -84 -26 -180 -45 -216 -6 -11 -21 -41 -33 -68 -39 -85 -142 -166 -211 -166 -65 0 -203 193 -233 324 -16 72 -40 70 -82 -9 -29 -54 -32 -68 -33 -148 0 -75 4 -94 26 -137 14 -27 32 -54 40 -61 24 -20 16 -56 -31 -126 -66 -97 -72 -127 -46 -198 12 -31 32 -71 45 -88 12 -18 30 -49 40 -69 26 -58 61 -94 129 -131 60 -33 97 -44 292 -86 256 -56 263 -54 315 79 70 179 180 358 281 459 53 53 149 131 161 131 5 0 22 8 36 19 28 20 93 32 177 34 48 0 80 -10 222 -74 46 -20 91 -74 124 -147 24 -55 27 -214 5 -277 -8 -22 -24 -72 -35 -111 -22 -74 -47 -117 -131 -224 -53 -68 -63 -100 -31 -100 11 0 23 5 26 10 3 6 16 10 28 10 64 1 266 144 341 243 30 40 65 85 78 101 13 17 35 57 49 90 19 44 31 61 45 61 17 0 19 -8 19 -90 -1 -85 -3 -94 -39 -160 -21 -38 -44 -77 -50 -85 -6 -8 -22 -35 -35 -60 -14 -25 -39 -67 -57 -95 -40 -61 -144 -269 -144 -287 0 -8 -9 -38 -19 -68 -28 -81 -44 -221 -26 -239 11 -12 17 -10 37 12 13 14 29 37 36 51 7 14 17 37 24 51 15 32 137 175 150 175 4 0 27 17 51 38 23 22 107 79 186 128 118 72 163 108 244 189 109 110 160 174 199 250 14 28 33 64 42 80 33 62 88 260 92 330 1 39 3 73 3 78 1 12 38 8 48 -5 9 -13 34 -87 73 -216 19 -64 21 -88 16 -215 -5 -161 -14 -238 -27 -251 -5 -6 -9 -29 -9 -51 0 -31 -8 -53 -31 -84 -44 -61 -69 -109 -69 -131 0 -46 31 -20 229 196 79 87 117 135 142 183 11 23 25 44 30 46 5 3 17 26 28 51 11 25 30 57 41 71 55 71 113 251 146 456 13 78 13 95 -2 150 -9 34 -19 67 -24 72 -4 6 -10 23 -14 40 -7 28 -48 102 -105 190 -41 62 -140 163 -198 202 -61 40 -69 70 -18 65 31 -3 162 -51 225 -82 19 -10 60 -28 90 -41 140 -61 270 -166 346 -281 25 -38 49 -66 54 -63 13 8 13 58 0 71 -6 6 -19 44 -29 85 -58 232 -127 345 -342 559 -123 122 -204 187 -280 226 -56 28 -231 74 -286 74 -42 0 -63 9 -63 26 0 25 47 34 173 34 158 -1 225 -16 391 -89 45 -20 51 -20 65 -6 15 14 12 19 -24 51 -22 19 -60 49 -85 66 -25 17 -47 35 -50 40 -20 28 -290 134 -393 153 -47 9 -66 30 -45 51 12 12 26 13 84 5 38 -5 81 -13 97 -17 21 -5 27 -3 27 10 0 10 -33 31 -92 60 -116 54 -121 56 -361 75 -71 6 -133 13 -137 16 -4 3 -48 5 -97 6 -48 0 -92 4 -98 9 -5 4 -33 10 -61 12 -30 3 -78 19 -120 40 -161 82 -351 156 -429 168 -66 9 -105 26 -105 45 0 14 27 20 70 17 8 -1 32 5 53 13 51 20 222 20 261 0 36 -19 61 -19 80 1 24 23 20 31 -26 52 -24 11 -109 52 -189 90 -80 39 -158 74 -172 77 -15 4 -30 11 -33 16 -3 5 -13 9 -23 9 -10 0 -63 20 -118 45 -92 42 -151 60 -228 71 -24 3 -36 -2 -59 -27z" fill="#010101" id="010101-000004"/>
    <path stroke="none" d="M7258 17765 c82 -6 105 -11 112 -25 12 -22 -2 -35 -47 -44 -17 -4 -37 -14 -44 -22 -6 -8 -20 -14 -31 -14 -10 0 -35 -7 -56 -16 -62 -26 -271 -59 -286 -44 -5 5 4 29 23 56 18 28 31 60 31 79 0 17 2 34 5 37 7 6 168 3 293 -7z" fill="#ffffff" id="ffffff-000002"/>
    <path stroke="none" d="M6800 17372 c14 0 36 0 50 -1 14 0 106 -5 205 -11 99 -5 196 -12 215 -15 19 -3 91 -10 160 -14 69 -5 154 -16 190 -26 36 -9 103 -20 150 -25 83 -9 169 -28 240 -55 55 -21 137 -45 153 -45 7 0 32 -9 55 -20 22 -11 50 -20 61 -20 11 0 68 -22 126 -50 58 -27 110 -50 116 -50 5 0 21 -7 34 -16 29 -19 93 -54 162 -88 59 -29 81 -59 63 -81 -10 -12 -18 -11 -53 7 -38 20 -83 33 -192 59 -97 23 -159 31 -295 39 -80 5 -164 11 -187 14 -60 8 -56 -17 7 -49 19 -9 49 -30 65 -45 17 -14 53 -40 80 -55 78 -44 349 -323 419 -429 71 -109 104 -181 117 -249 20 -114 38 -197 47 -214 5 -10 6 -27 1 -38 -4 -11 -8 -34 -8 -52 -1 -29 -11 -73 -39 -168 -5 -19 -15 -30 -26 -30 -15 0 -23 17 -38 80 -21 83 -64 158 -132 230 l-35 37 -81 -4 c-72 -3 -83 -6 -105 -30 -14 -15 -25 -31 -25 -35 0 -4 -11 -21 -25 -38 -23 -28 -26 -29 -39 -12 -8 10 -17 39 -21 65 -10 71 -30 133 -69 215 -42 86 -76 136 -161 232 -34 39 -68 80 -77 92 -23 35 -163 180 -267 277 -53 49 -148 123 -211 164 -63 41 -133 87 -155 102 -41 27 -122 67 -185 91 -19 7 -63 25 -97 40 -208 94 -366 140 -553 159 -190 20 -201 22 -207 37 -3 8 0 19 8 24 8 6 121 8 274 5 143 -3 271 -5 285 -4z" fill="#ffffff" id="ffffff-000003"/>
    <path stroke="none" d="M1615 17516 c-44 -18 -96 -43 -115 -54 -49 -31 -119 -62 -137 -62 -33 0 -213 -118 -260 -170 -19 -21 -30 -50 -20 -50 2 0 55 20 117 45 62 25 124 45 138 45 13 0 46 -11 72 -24 31 -15 52 -21 61 -15 22 14 143 10 180 -5 19 -7 57 -17 84 -21 28 -4 55 -10 60 -15 6 -4 21 -11 35 -15 80 -24 138 -63 125 -85 -8 -12 -38 -13 -50 -1 -6 5 -66 12 -135 15 -69 4 -158 9 -198 12 -82 6 -119 -5 -267 -80 -97 -49 -245 -189 -245 -231 0 -21 5 -25 30 -25 17 0 38 4 48 9 138 74 158 70 246 -50 22 -30 54 -66 72 -82 31 -27 34 -27 91 -16 89 17 243 23 256 10 6 -6 22 -11 34 -11 30 0 143 -108 143 -135 0 -19 -8 -20 -137 -20 -117 0 -149 -3 -208 -23 -99 -33 -225 -100 -310 -166 -20 -16 -20 -16 -1 -31 26 -20 106 -19 151 2 68 32 148 -15 148 -87 0 -24 -12 -43 -50 -83 -59 -60 -73 -85 -73 -124 0 -16 -5 -34 -11 -40 -12 -12 9 -81 53 -170 24 -49 97 -130 136 -151 40 -21 179 -51 239 -52 61 0 103 -16 103 -40 0 -25 -21 -40 -57 -40 -37 0 -183 -61 -229 -96 -17 -13 -36 -24 -41 -24 -9 0 -23 -22 -23 -35 0 -9 62 -26 87 -24 15 1 60 -3 100 -10 76 -13 100 -27 198 -113 51 -44 103 -68 151 -68 12 0 41 -9 65 -20 24 -11 57 -20 72 -20 46 0 395 -156 462 -206 17 -12 46 -31 65 -42 42 -23 135 -82 216 -136 33 -22 66 -44 76 -50 94 -63 163 -118 273 -220 72 -67 146 -131 165 -143 45 -28 65 -60 50 -78 -16 -19 -95 15 -190 83 -41 29 -88 60 -105 68 -16 8 -43 23 -60 33 -16 11 -46 25 -65 32 -19 6 -62 30 -94 53 -32 23 -75 51 -95 63 -64 41 -353 183 -370 183 -9 0 -36 11 -61 24 -25 13 -92 38 -150 56 -58 18 -109 37 -115 41 -15 14 -38 10 -32 -5 3 -8 26 -40 50 -72 24 -33 52 -73 60 -91 14 -26 159 -183 283 -307 123 -121 236 -226 261 -241 17 -10 38 -31 47 -47 18 -30 38 -50 106 -108 23 -19 76 -67 118 -106 42 -39 101 -87 129 -108 29 -21 65 -52 80 -70 16 -18 39 -39 53 -46 14 -7 46 -31 71 -54 73 -65 132 -110 160 -125 14 -7 48 -30 75 -52 27 -21 65 -49 84 -63 19 -13 94 -84 166 -158 72 -74 148 -144 168 -156 l38 -22 31 33 c53 56 104 122 125 158 10 19 30 50 43 70 37 55 76 148 89 214 7 33 16 70 21 83 11 28 12 132 1 132 -4 0 -24 -19 -43 -43 -20 -23 -57 -53 -82 -66 l-46 -24 -55 22 c-66 28 -77 39 -105 119 -21 58 -22 76 -18 215 7 187 28 344 57 412 12 28 22 73 36 172 6 36 4 42 -17 54 -13 7 -48 32 -77 56 -30 23 -59 43 -66 43 -6 0 -38 20 -70 44 -32 24 -80 55 -105 68 -25 13 -64 36 -86 50 -139 90 -265 168 -271 168 -4 0 -23 12 -43 27 -20 16 -57 38 -83 50 -25 11 -87 49 -137 82 -49 34 -94 61 -98 62 -4 0 -39 22 -78 50 -38 27 -115 80 -170 118 -107 73 -183 134 -305 246 -42 39 -85 77 -96 86 -10 9 -34 36 -52 60 -166 225 -242 343 -242 380 0 10 -11 53 -26 95 l-25 76 25 51 c15 28 26 59 26 69 0 24 28 78 39 78 38 0 127 132 114 169 -11 28 -95 144 -136 188 l-40 42 13 42 c10 29 32 57 78 97 125 109 144 130 140 153 -2 16 -31 36 -117 80 -63 32 -131 61 -150 64 -20 3 -70 17 -111 30 -41 14 -86 25 -100 25 -55 1 -222 71 -251 106 -15 18 -70 44 -91 44 -7 -1 -49 -16 -93 -34z" fill="#010101" id="010101-000005"/>
    <path stroke="none" d="M5298 15429 c-7 -5 -48 -9 -90 -9 -93 0 -198 -21 -311 -63 -94 -36 -63 -63 84 -72 52 -3 110 -16 219 -51 25 -8 60 -14 78 -14 44 0 94 -26 90 -48 -2 -13 -19 -19 -68 -24 -62 -7 -86 -15 -226 -80 -34 -15 -65 -28 -68 -28 -4 0 -41 -25 -82 -56 -87 -64 -235 -214 -291 -294 -59 -85 -135 -253 -152 -340 -4 -19 -13 -45 -19 -57 -7 -12 -12 -32 -12 -45 0 -13 -7 -35 -14 -50 -22 -42 -20 -278 2 -300 15 -15 42 7 42 35 0 25 65 145 132 245 62 91 165 202 210 223 140 67 171 80 184 75 19 -7 18 -30 -6 -68 -11 -18 -20 -43 -20 -54 0 -12 -11 -55 -24 -95 -22 -68 -34 -153 -42 -299 -15 -251 -37 -439 -62 -520 -46 -154 -233 -458 -336 -549 -16 -14 -50 -44 -75 -67 -69 -60 -167 -127 -251 -169 -153 -77 -153 -90 2 -87 117 3 186 19 323 74 28 11 64 25 80 32 17 6 48 22 70 36 22 14 56 32 75 41 19 9 51 30 70 47 59 53 82 40 45 -24 -14 -24 -42 -85 -61 -136 l-36 -92 -1 -186 c-1 -173 10 -282 34 -350 5 -14 18 -60 29 -103 11 -43 38 -118 60 -168 22 -49 40 -93 40 -99 0 -5 14 -39 30 -75 17 -36 30 -70 30 -75 0 -10 22 -46 117 -192 51 -78 80 -91 68 -30 -9 45 -7 187 5 337 14 177 78 356 235 655 19 36 34 73 34 82 1 9 11 24 23 32 32 23 44 6 30 -41 -34 -112 -39 -197 -25 -393 8 -101 12 -122 40 -172 29 -51 42 -91 74 -213 22 -83 26 -238 8 -303 -22 -81 13 -66 60 26 19 37 45 80 58 96 13 16 33 46 44 68 11 22 45 66 75 99 30 32 54 62 54 67 0 19 277 287 362 350 118 88 135 106 118 127 -14 17 -61 20 -76 6 -5 -5 -34 -12 -64 -14 -98 -9 -144 -22 -217 -62 -39 -22 -75 -37 -79 -33 -15 16 10 58 81 132 41 43 101 100 134 125 32 25 105 84 162 130 94 76 188 131 223 131 7 0 37 13 67 29 30 16 69 32 86 36 40 8 52 24 29 41 -12 8 -57 12 -139 12 -67 0 -153 6 -192 12 -38 7 -86 14 -105 17 -79 12 -71 47 13 57 71 9 194 36 240 52 20 8 54 14 75 14 20 1 48 7 62 15 14 8 50 14 80 15 31 0 61 5 67 11 6 6 55 17 109 25 188 28 250 43 319 81 11 5 39 13 63 17 43 6 50 9 112 40 19 10 80 34 135 53 55 19 112 43 126 54 15 10 32 19 37 19 11 0 233 108 282 137 14 8 45 23 70 35 25 11 53 28 63 37 48 41 268 151 304 151 14 0 36 9 50 20 14 11 39 20 56 20 17 0 45 5 63 12 28 10 37 8 77 -15 29 -17 55 -44 73 -74 15 -27 37 -61 50 -78 12 -16 26 -43 30 -60 4 -16 20 -55 36 -87 65 -132 121 -327 133 -470 4 -46 12 -89 17 -95 6 -7 7 -27 3 -45 -3 -18 -9 -58 -12 -88 -3 -36 -14 -68 -32 -95 -66 -97 -105 -181 -155 -335 -39 -118 -62 -349 -38 -388 11 -19 16 -21 28 -11 8 6 14 21 14 32 0 38 69 161 138 244 37 46 87 110 112 144 48 65 103 119 219 214 41 33 106 87 145 121 39 33 96 77 126 97 120 79 319 304 372 420 10 21 33 64 52 95 39 65 61 144 71 252 9 113 12 122 38 118 22 -3 22 -5 27 -228 3 -124 2 -256 -1 -295 -6 -70 -32 -186 -49 -216 -7 -14 -13 -72 -11 -108 1 -11 4 -11 18 0 28 24 133 169 153 215 11 23 25 48 32 56 27 29 118 246 118 283 1 11 8 38 16 60 61 163 77 284 77 580 0 237 -11 399 -33 485 -6 25 -15 61 -20 80 -9 36 -36 117 -61 180 -29 73 -130 265 -152 289 -13 14 -39 49 -58 76 -18 28 -39 56 -46 63 -7 7 -13 17 -13 22 0 8 -83 112 -196 248 -63 75 -69 53 -24 -83 65 -198 70 -235 54 -420 -6 -72 -42 -184 -94 -290 -16 -33 -34 -72 -39 -88 -14 -37 -102 -164 -143 -207 -88 -90 -181 -171 -254 -220 -43 -29 -90 -63 -104 -76 -14 -13 -40 -27 -58 -30 -52 -10 -49 15 10 103 81 118 127 197 143 245 9 24 26 66 39 93 44 92 56 125 56 157 0 17 9 45 19 62 24 39 35 106 21 126 -12 17 -32 -3 -163 -165 -44 -55 -104 -124 -134 -154 -30 -30 -66 -70 -81 -90 -39 -53 -138 -147 -207 -196 -33 -24 -69 -53 -79 -64 -11 -12 -23 -21 -29 -21 -5 0 -27 -16 -49 -36 -39 -35 -69 -50 -275 -140 -17 -8 -41 -14 -53 -14 -12 0 -42 -9 -68 -19 -100 -41 -202 -51 -202 -19 0 6 35 48 78 93 95 100 146 162 198 240 73 111 80 153 38 229 -35 62 -57 76 -125 76 -192 0 -571 -238 -748 -470 -34 -45 -67 -94 -74 -108 -6 -15 -30 -56 -53 -92 -23 -36 -58 -94 -76 -129 -38 -71 -63 -95 -77 -73 -9 15 -19 105 -26 242 -7 122 12 315 36 367 10 23 19 50 19 60 0 27 35 131 66 198 15 33 32 71 38 84 6 13 27 42 46 65 41 49 60 80 60 101 0 22 -34 18 -56 -6 -23 -25 -122 -76 -178 -90 -23 -6 -97 -17 -165 -24 -69 -8 -135 -16 -147 -19 -12 -3 -30 -3 -38 0 -24 9 -19 41 7 48 12 4 46 13 75 21 99 28 229 106 331 199 39 36 139 183 164 241 37 85 47 153 47 309 0 115 -4 163 -15 190 -8 20 -20 36 -25 36 -12 0 -132 -72 -178 -107 -48 -36 -130 -139 -185 -232 -27 -44 -65 -102 -86 -129 -38 -47 -40 -48 -117 -60 -105 -16 -221 -15 -319 3 -116 21 -153 31 -178 47 -12 8 -45 23 -73 32 -28 9 -66 28 -84 41 -19 14 -39 25 -44 25 -6 0 -49 29 -96 65 -47 36 -124 95 -172 131 -49 37 -88 70 -88 73 0 11 -64 39 -106 47 -22 3 -43 10 -49 14 -41 30 -469 63 -507 39z" fill="#010101" id="010101-000006"/>
    <path stroke="none" d="M6122 14570 c134 -12 150 -11 183 4 39 19 65 16 65 -7 0 -19 -12 -28 -86 -66 -90 -47 -147 -90 -191 -146 -39 -49 -49 -67 -91 -155 -30 -62 -31 -174 -2 -231 28 -53 76 -102 125 -127 22 -10 55 -27 74 -37 28 -15 48 -17 133 -11 55 4 107 11 116 16 10 5 44 19 77 31 66 24 132 55 155 74 8 7 47 30 85 51 39 21 76 44 83 50 6 7 21 16 32 19 11 3 20 11 20 16 0 12 37 12 45 -1 3 -6 -11 -31 -33 -58 -22 -26 -49 -67 -60 -92 -28 -59 -62 -190 -62 -239 0 -56 47 -249 72 -298 19 -35 20 -44 9 -57 -17 -20 -40 -20 -68 -1 -12 8 -32 15 -45 14 -12 0 -81 4 -153 10 -152 12 -371 -1 -415 -24 -16 -8 -35 -15 -43 -15 -16 0 -109 -29 -177 -55 -98 -38 -155 -69 -329 -179 -48 -31 -244 -223 -277 -271 -37 -55 -102 -191 -110 -229 -3 -21 -17 -50 -30 -64 -45 -52 -56 10 -24 128 60 214 105 315 222 492 43 65 78 121 78 125 0 5 17 29 38 55 49 59 120 176 133 219 5 19 14 73 19 121 9 77 8 92 -10 130 -27 61 -40 74 -85 87 -104 29 -180 1 -258 -94 -30 -36 -60 -87 -72 -121 -24 -69 -46 -80 -69 -35 -23 43 -22 273 0 350 63 213 85 267 155 363 24 34 108 109 169 151 14 10 48 35 75 57 42 34 58 40 100 41 28 0 72 6 100 12 59 14 131 14 327 -3z" fill="#ffffff" id="ffffff-000004"/>
    <path stroke="none" d="M13964 14216 c-3 -9 -4 -31 -1 -49 7 -39 -8 -255 -21 -317 -13 -61 -46 -166 -67 -215 -45 -105 -99 -212 -139 -273 -55 -85 -216 -245 -241 -240 -28 5 -28 23 -2 54 34 40 97 224 109 314 17 138 23 283 13 304 -17 34 -35 31 -35 -7 0 -19 -4 -47 -9 -63 -5 -16 -15 -49 -22 -74 -7 -25 -25 -63 -39 -85 -14 -22 -46 -73 -69 -113 -24 -40 -59 -86 -78 -101 -36 -29 -111 -53 -173 -54 -39 -1 -144 48 -199 94 -20 16 -39 29 -44 29 -5 0 -28 14 -53 30 -29 21 -61 33 -96 37 -29 3 -61 10 -70 14 -17 9 -145 -14 -180 -32 -10 -5 -23 -9 -30 -9 -19 0 -87 -49 -153 -110 -34 -30 -82 -72 -109 -94 -68 -55 -125 -136 -190 -271 -33 -70 -86 -193 -102 -240 -8 -22 -21 -52 -29 -67 -8 -14 -15 -36 -15 -48 0 -12 -4 -29 -10 -39 -5 -10 -14 -49 -20 -87 -12 -73 -27 -94 -48 -66 -21 27 0 300 27 351 6 11 11 28 11 39 0 20 42 154 64 207 42 97 108 220 133 248 26 27 37 63 24 72 -19 11 -184 -145 -242 -228 -41 -59 -119 -232 -119 -265 0 -10 -3 -21 -6 -25 -17 -17 -57 -159 -59 -212 -2 -33 -8 -73 -14 -88 -16 -42 -14 -187 4 -238 9 -24 14 -51 12 -59 -5 -21 22 -195 43 -265 6 -22 15 -57 21 -78 5 -20 26 -68 46 -105 20 -37 51 -94 68 -128 65 -124 130 -212 234 -316 58 -60 110 -108 115 -108 5 0 38 -26 72 -57 127 -117 155 -139 226 -175 40 -21 78 -38 84 -38 6 0 47 -24 90 -53 85 -56 152 -85 224 -97 44 -7 82 -21 170 -66 25 -12 113 -45 195 -73 379 -127 444 -158 671 -313 43 -29 242 -231 289 -293 41 -54 95 -138 95 -147 0 -5 12 -27 27 -51 28 -45 78 -189 94 -272 22 -117 30 -238 24 -385 -7 -160 -18 -224 -54 -303 -12 -26 -24 -60 -27 -76 -4 -16 -14 -38 -23 -48 -9 -10 -37 -47 -61 -83 -24 -36 -59 -83 -79 -105 -51 -58 -163 -158 -197 -175 -16 -8 -47 -27 -70 -42 -37 -25 -145 -78 -158 -78 -3 0 -29 -11 -58 -24 -100 -46 -133 -59 -180 -67 -27 -5 -72 -14 -100 -20 -29 -6 -156 -13 -281 -16 -211 -4 -234 -3 -297 16 -37 12 -78 21 -91 21 -12 0 -36 4 -53 9 -236 73 -316 73 -208 0 132 -90 168 -112 264 -159 56 -28 111 -56 120 -61 10 -5 25 -9 33 -9 9 0 33 -9 55 -20 22 -11 50 -20 63 -20 12 0 27 -4 33 -9 12 -13 202 -33 287 -31 72 1 86 -10 50 -42 -21 -18 -52 -24 -218 -39 -213 -21 -338 -17 -546 17 -50 8 -69 -15 -43 -52 11 -14 39 -58 64 -97 54 -86 112 -132 212 -170 92 -34 183 -36 278 -6 36 12 85 22 110 24 51 2 177 38 230 65 19 10 60 23 90 30 98 23 377 160 501 247 46 33 101 68 122 79 43 21 207 157 250 207 16 17 40 50 55 72 14 22 35 48 48 58 12 9 34 42 48 72 13 30 38 74 53 97 16 24 37 63 48 88 10 25 28 68 40 95 43 98 81 233 95 335 14 102 13 73 6 263 -8 213 -15 286 -33 325 -8 18 -12 39 -10 46 6 16 -35 172 -57 216 -9 18 -16 38 -16 43 0 20 -92 192 -116 218 -13 14 -24 29 -24 34 0 33 -299 328 -413 407 -176 123 -252 172 -281 183 -40 14 -178 84 -190 96 -6 5 -17 9 -26 9 -9 0 -37 11 -61 25 -24 14 -51 28 -59 31 -8 4 -26 15 -40 24 -14 9 -41 23 -60 30 -19 8 -61 31 -92 52 -31 21 -62 38 -67 38 -6 0 -64 54 -130 120 -108 109 -125 131 -175 228 -30 59 -66 139 -79 177 -14 39 -31 85 -38 102 -13 33 -8 62 34 178 14 37 94 123 167 180 70 54 191 115 228 115 40 0 193 64 279 116 40 24 76 44 80 44 28 0 177 205 190 260 3 14 12 36 21 50 14 22 24 59 53 188 5 23 14 63 19 90 27 122 32 157 41 302 6 85 15 171 20 190 18 63 -7 679 -30 760 -6 19 -12 46 -13 59 -3 29 -25 40 -34 17z" fill="#010101" id="010101-000007"/>
    <path stroke="none" d="M12850 13004 c25 -9 53 -23 63 -31 24 -22 22 -53 -3 -53 -26 0 -232 -105 -272 -138 -33 -28 -128 -159 -128 -176 0 -6 -6 -23 -13 -37 -8 -14 -17 -44 -21 -67 -3 -23 -13 -63 -22 -88 -13 -39 -14 -54 -3 -91 16 -60 34 -53 70 30 36 85 109 196 148 225 16 12 49 25 73 28 24 4 51 11 61 16 9 5 112 10 227 12 128 2 214 7 222 14 17 14 119 52 139 52 9 0 50 29 92 65 110 94 142 83 70 -25 -81 -122 -174 -210 -268 -257 -85 -42 -131 -62 -170 -73 -22 -7 -63 -21 -90 -31 -28 -10 -57 -19 -65 -19 -25 -1 -122 -36 -203 -73 -133 -62 -201 -145 -249 -307 -20 -67 -24 -170 -7 -201 5 -10 9 -39 9 -66 0 -26 7 -61 15 -77 8 -15 15 -40 15 -54 0 -14 18 -55 39 -91 48 -82 54 -105 24 -109 -35 -5 -260 228 -315 326 -44 80 -120 237 -133 275 -30 85 -36 207 -17 307 6 30 16 82 22 115 15 85 60 248 71 260 5 5 9 15 9 23 0 8 21 45 46 82 70 104 222 229 282 231 15 0 36 4 47 9 34 15 186 11 235 -6z" fill="#ffffff" id="ffffff-000005"/>
    <path stroke="none" d="M11875 12364 c0 -19 -5 -29 -15 -29 -16 0 -25 28 -16 51 10 25 31 10 31 -22z" fill="#ffffff" id="ffffff-000006"/>
    <path stroke="none" d="M8465 13121 c-27 -4 -65 -14 -84 -24 -19 -9 -41 -17 -49 -17 -22 0 -130 -40 -177 -66 -22 -11 -53 -24 -70 -28 -16 -4 -37 -13 -45 -21 -19 -16 -148 -88 -220 -122 -30 -14 -64 -31 -75 -36 -11 -6 -45 -24 -75 -40 -30 -16 -59 -32 -65 -36 -5 -4 -26 -14 -45 -21 -19 -8 -57 -29 -84 -47 -26 -18 -56 -33 -65 -33 -9 0 -36 -11 -61 -25 -75 -42 -217 -113 -242 -120 -49 -15 -194 -119 -274 -196 -43 -41 -121 -184 -140 -255 -16 -60 -21 -344 -8 -366 4 -6 10 -38 15 -72 10 -78 23 -138 42 -201 8 -27 18 -70 22 -95 8 -55 61 -250 80 -296 17 -40 99 -130 137 -150 60 -31 257 -9 365 42 54 25 161 100 229 161 215 191 277 260 331 363 16 30 34 64 41 75 40 73 74 166 68 189 -10 42 -76 76 -165 86 -42 4 -83 11 -91 14 -21 9 -165 -29 -206 -55 -72 -44 -76 -89 -7 -89 22 0 50 -11 77 -30 74 -50 75 -87 7 -154 -27 -26 -57 -53 -68 -60 -11 -6 -35 -21 -53 -33 -63 -42 -179 -42 -265 -2 -40 19 -47 27 -62 75 -14 46 -15 61 -4 111 23 107 30 128 63 179 18 29 47 74 63 100 44 71 204 227 325 316 58 43 134 100 170 128 82 63 216 130 263 130 37 0 129 -44 158 -76 98 -106 106 -164 75 -529 -4 -41 -34 -142 -57 -187 -11 -21 -19 -45 -19 -55 0 -20 -10 -40 -90 -183 -92 -164 -146 -266 -160 -301 -7 -19 -31 -71 -52 -115 -21 -45 -38 -94 -38 -109 0 -32 -20 -106 -32 -119 -4 -6 -8 -61 -8 -123 0 -95 2 -113 15 -113 16 0 90 145 115 224 7 22 26 60 41 85 16 25 29 53 29 62 0 23 112 193 169 255 25 28 66 77 90 110 25 32 72 86 106 119 105 104 127 143 145 270 6 39 16 81 22 95 6 14 17 90 24 170 7 80 18 168 24 195 6 28 13 61 16 75 3 14 9 39 15 55 27 85 38 393 22 640 -10 151 -27 210 -77 260 -26 26 -39 28 -131 16z" fill="#010101" id="010101-000008"/>
    <path stroke="none" d="M9760 12322 c-25 -26 -54 -54 -65 -62 -221 -167 -401 -356 -515 -541 -177 -288 -228 -387 -284 -559 -13 -41 -34 -102 -46 -135 -27 -74 -61 -230 -59 -270 1 -16 -5 -52 -14 -78 -18 -49 -23 -137 -9 -137 8 0 72 100 72 112 0 21 97 160 161 230 58 63 93 92 148 121 40 20 82 37 95 37 27 0 101 -71 127 -123 11 -21 24 -59 30 -85 13 -60 31 -260 29 -332 0 -30 6 -75 15 -99 8 -24 15 -56 15 -70 0 -15 4 -31 9 -37 4 -5 14 -31 21 -59 32 -127 111 -309 183 -423 15 -23 71 -87 125 -140 53 -54 109 -113 123 -132 15 -19 52 -62 83 -95 31 -33 56 -64 56 -68 0 -5 11 -23 24 -40 14 -18 28 -45 32 -62 4 -16 13 -39 20 -50 13 -21 48 -154 63 -245 5 -30 19 -86 31 -125 22 -70 44 -205 60 -365 4 -47 12 -96 17 -110 11 -26 9 -91 -3 -147 -5 -27 -3 -33 10 -33 29 0 66 100 66 176 0 36 6 75 13 87 9 16 12 109 12 367 0 429 -11 397 164 497 47 27 66 32 123 33 37 0 93 -7 125 -16 32 -9 76 -20 98 -24 56 -12 133 -40 181 -66 22 -12 66 -32 98 -43 33 -11 66 -27 75 -35 18 -16 134 -76 146 -76 5 0 16 -6 24 -14 9 -7 54 -34 101 -58 115 -61 224 -129 290 -183 30 -25 82 -65 114 -90 75 -58 169 -141 263 -232 41 -40 79 -73 84 -73 12 0 12 37 -1 45 -6 3 -29 40 -52 82 -60 109 -336 383 -492 487 -61 40 -120 83 -130 95 -11 11 -25 21 -31 21 -7 0 -18 7 -25 16 -17 20 -120 98 -151 114 -13 7 -80 50 -149 95 -118 77 -213 138 -305 193 -22 13 -71 44 -110 68 -38 24 -81 47 -95 51 -14 3 -40 15 -58 25 -18 10 -40 18 -50 18 -9 0 -48 11 -85 24 -38 14 -98 28 -135 32 -37 3 -83 15 -102 25 -84 43 -216 210 -321 406 -104 195 -119 225 -119 248 0 13 -9 39 -19 57 -11 18 -29 65 -39 103 -11 39 -29 92 -41 118 -12 27 -21 57 -21 68 0 27 -18 103 -43 179 -12 36 -24 99 -28 140 -3 41 -12 129 -19 195 -7 67 -10 162 -6 215 3 52 6 111 6 130 0 19 7 71 16 115 8 44 19 108 24 143 10 67 31 140 87 294 47 130 38 148 -37 70z" fill="#010101" id="010101-000009"/>
    <path stroke="none" d="M6340 11620 c-14 -11 -30 -20 -36 -20 -6 0 -17 -7 -24 -16 -8 -8 -29 -22 -48 -29 -18 -8 -60 -36 -92 -62 -32 -27 -78 -61 -102 -78 -24 -16 -107 -91 -185 -165 -226 -215 -307 -288 -338 -304 -26 -14 -477 -455 -605 -592 -30 -33 -82 -81 -115 -107 -33 -27 -78 -64 -100 -83 -91 -76 -171 -137 -192 -145 -12 -4 -41 -20 -65 -35 -24 -15 -68 -41 -98 -57 -30 -16 -64 -37 -75 -47 -71 -60 -234 -114 -370 -123 -43 -2 -39 2 -89 -107 -26 -56 -125 -212 -154 -244 -39 -41 -167 -143 -209 -167 -88 -50 -139 -61 -251 -58 -114 4 -138 -6 -79 -34 82 -40 224 -62 297 -47 81 17 207 58 276 91 34 16 64 29 67 29 4 0 28 13 55 29 27 16 60 32 73 35 13 4 41 14 61 23 35 15 42 15 93 -1 101 -32 141 -114 101 -208 -7 -18 -19 -51 -26 -73 -13 -43 -38 -101 -72 -175 -26 -55 -127 -208 -182 -273 -37 -46 -104 -97 -125 -97 -6 0 -33 -13 -61 -30 -50 -30 -102 -38 -129 -21 -15 9 -51 93 -71 165 -15 53 -56 84 -88 67 -39 -21 -122 -142 -122 -179 0 -9 -8 -39 -18 -67 -18 -47 -24 -52 -97 -90 -85 -44 -84 -43 -164 -217 -64 -139 -90 -274 -54 -285 7 -3 26 17 42 44 47 76 128 135 234 171 46 15 59 16 112 4 33 -8 74 -18 90 -24 17 -6 49 -13 72 -17 23 -4 52 -15 66 -24 38 -25 171 0 221 42 16 14 79 99 111 149 101 162 300 433 372 507 16 17 44 52 61 78 18 26 43 52 55 58 12 7 44 34 71 61 28 26 53 48 58 48 4 0 22 13 40 28 44 38 168 108 226 127 26 9 57 23 69 31 12 8 32 14 43 14 12 0 31 5 43 12 13 7 59 11 116 10 87 -1 96 -3 121 -27 29 -28 70 -139 70 -190 0 -17 -4 -46 -9 -65 -5 -19 -14 -69 -21 -110 -14 -78 -55 -182 -90 -227 -21 -27 -27 -63 -11 -63 10 0 21 11 184 185 147 156 200 222 333 409 117 166 276 446 299 526 7 24 18 51 51 128 8 18 14 43 14 55 0 12 6 34 14 49 8 14 24 61 36 105 12 43 29 105 40 138 34 113 49 241 54 469 2 123 -29 92 -80 -78 -13 -44 -31 -90 -39 -102 -8 -13 -15 -30 -15 -39 0 -20 -60 -168 -107 -262 -51 -104 -187 -261 -288 -334 -103 -73 -172 -91 -263 -69 -39 9 -61 22 -92 56 -22 24 -45 56 -50 70 -17 45 -12 186 10 254 11 34 20 68 20 75 0 7 17 42 37 77 20 34 54 96 76 137 21 41 47 87 58 102 10 15 19 30 19 34 0 3 17 32 38 63 21 31 51 80 67 107 96 164 194 288 380 485 50 52 103 116 118 142 15 26 42 57 60 69 100 70 327 295 327 323 0 12 -26 5 -50 -14z" fill="#010101" id="010101-000010"/>
    <path stroke="none" d="M6487 11363 c-3 -4 -10 -33 -16 -63 -19 -103 -39 -187 -50 -221 -11 -31 -25 -231 -37 -514 -2 -60 -9 -119 -14 -130 -5 -11 -11 -38 -14 -60 -5 -49 -48 -226 -75 -315 -11 -36 -25 -90 -32 -120 -7 -30 -20 -68 -31 -85 -10 -16 -18 -39 -18 -50 0 -24 -100 -223 -199 -398 -11 -21 -21 -46 -21 -56 0 -10 -11 -35 -25 -56 -14 -20 -39 -62 -56 -93 -52 -99 -102 -176 -166 -258 -34 -43 -77 -99 -95 -123 -18 -24 -52 -68 -75 -97 -49 -62 -52 -74 -19 -74 24 0 38 10 178 124 82 65 341 327 420 424 70 85 117 85 79 0 -11 -24 -29 -79 -39 -123 -11 -44 -27 -105 -36 -135 -9 -30 -21 -74 -26 -98 -5 -23 -23 -71 -39 -105 -16 -34 -25 -66 -21 -71 9 -9 70 30 70 45 0 5 15 26 34 46 18 21 53 68 77 104 24 36 74 110 111 165 37 54 85 126 107 159 22 33 48 71 58 85 10 14 32 52 48 85 17 33 53 92 81 130 27 39 65 95 83 125 114 186 199 245 268 186 27 -23 27 -25 25 -128 -3 -94 -16 -166 -35 -184 -4 -4 -7 -16 -7 -26 0 -11 -14 -40 -31 -65 -66 -95 14 -67 144 51 80 72 131 130 202 230 53 75 104 167 105 188 0 10 14 39 30 65 17 26 30 54 30 62 0 9 14 59 31 111 58 180 54 156 67 405 4 83 5 156 1 164 -4 9 -22 -9 -55 -55 -45 -63 -179 -204 -194 -204 -4 0 -20 -11 -35 -24 -54 -47 -296 -129 -326 -111 -4 3 -33 10 -63 16 -81 15 -159 54 -201 100 -35 39 -111 186 -133 259 -31 98 -42 178 -42 292 0 68 -4 140 -9 160 -5 21 -5 55 -1 75 14 65 16 186 3 190 -6 2 -13 0 -16 -4z" fill="#010101" id="010101-000011"/>
    <path stroke="none" d="M8591 11144 c-6 -14 -48 -80 -92 -147 -45 -67 -94 -145 -110 -174 -16 -29 -33 -60 -38 -70 -5 -10 -25 -67 -44 -128 -19 -60 -42 -133 -51 -162 -9 -28 -16 -60 -16 -69 0 -19 -18 -79 -31 -106 -5 -10 -9 -29 -9 -44 0 -14 -6 -49 -14 -77 -13 -50 -21 -88 -46 -207 -6 -30 -18 -78 -26 -106 -8 -28 -14 -63 -14 -77 0 -15 -9 -46 -19 -69 -25 -57 -75 -182 -96 -239 -16 -45 -62 -110 -125 -176 -26 -28 -37 -33 -79 -33 -63 0 -95 25 -110 84 -16 66 -14 263 4 322 8 27 15 62 15 77 0 16 11 53 25 83 14 30 25 73 25 96 0 36 -2 39 -17 27 -16 -14 -53 -89 -101 -209 -90 -223 -286 -458 -462 -554 -85 -46 -85 -46 -86 -133 0 -91 -34 -250 -69 -330 -14 -30 -25 -62 -25 -70 0 -19 -113 -233 -165 -313 -23 -36 -54 -76 -69 -89 -22 -21 -36 -61 -21 -61 2 0 35 16 73 36 52 26 94 60 168 137 117 121 140 150 161 199 14 35 46 58 61 43 3 -3 7 -81 9 -172 1 -96 7 -171 13 -177 5 -5 10 -38 10 -72 0 -35 5 -66 10 -69 6 -3 10 -17 10 -30 0 -14 8 -39 18 -57 10 -18 24 -48 30 -67 7 -19 32 -64 55 -100 24 -36 67 -101 95 -144 66 -101 266 -311 281 -294 6 9 5 22 -3 42 -23 51 -56 164 -56 191 0 14 -5 35 -11 46 -7 13 -13 90 -15 187 -5 270 -4 324 11 371 8 25 24 86 36 135 12 50 27 101 34 115 7 14 16 45 20 70 16 101 75 126 75 32 0 -43 32 -165 50 -192 9 -14 20 -41 24 -60 3 -19 18 -58 32 -87 14 -29 35 -76 47 -105 13 -29 41 -81 62 -116 144 -230 158 -249 266 -354 61 -60 115 -106 120 -103 15 10 10 41 -11 78 -11 18 -29 68 -40 111 -11 42 -23 82 -27 89 -11 17 -32 116 -33 157 0 19 -8 55 -17 80 -14 38 -29 143 -34 250 -3 49 12 246 23 300 24 123 45 159 122 204 52 30 72 32 118 9 18 -9 40 -19 48 -23 27 -12 58 -83 71 -160 16 -96 17 -322 1 -379 -15 -51 -4 -73 26 -55 18 11 142 183 142 197 0 4 21 51 46 105 25 53 51 111 58 127 7 17 20 46 28 65 8 19 22 67 31 105 9 39 23 99 32 135 31 124 37 211 30 429 -4 145 -10 220 -18 229 -17 21 -17 296 1 314 8 8 12 47 12 120 0 104 15 191 55 318 8 25 17 63 21 85 3 22 15 55 25 73 23 40 24 52 4 52 -16 0 -70 -69 -81 -104 -3 -11 -12 -28 -19 -36 -7 -8 -28 -44 -46 -80 -18 -36 -41 -76 -51 -90 -10 -14 -27 -53 -38 -88 -10 -34 -26 -73 -35 -85 -8 -12 -15 -35 -15 -52 0 -16 -11 -77 -25 -133 -35 -144 -92 -222 -163 -222 -38 0 -93 59 -117 126 -9 27 -26 66 -37 87 -45 85 -60 305 -38 527 7 63 11 129 11 146 0 18 6 51 14 74 8 23 13 46 10 51 -3 4 1 23 8 41 8 18 17 55 21 82 8 49 11 58 64 176 37 81 49 140 29 140 -8 0 -19 -12 -26 -26z" fill="#010101" id="010101-000012"/>
    <path stroke="none" d="M7740 9985 c0 -14 5 -25 10 -25 6 0 10 11 10 25 0 14 -4 25 -10 25 -5 0 -10 -11 -10 -25z" fill="#010101" id="010101-000013"/>
    <path stroke="none" d="M9267 9513 c5 -228 -11 -435 -46 -608 -6 -27 -15 -75 -20 -105 -19 -107 -87 -334 -121 -405 -11 -22 -20 -43 -20 -47 0 -4 -24 -58 -54 -120 -84 -174 -177 -322 -260 -413 -47 -52 -60 -101 -33 -123 10 -9 203 -109 263 -137 12 -6 100 -62 195 -126 96 -64 185 -122 199 -129 96 -51 448 -393 573 -558 42 -56 77 -105 77 -108 0 -4 21 -36 48 -72 48 -67 55 -78 128 -199 108 -178 144 -245 144 -266 0 -23 17 -47 32 -47 14 0 9 107 -7 136 -8 16 -15 36 -15 45 0 20 -43 138 -70 194 -11 22 -31 101 -45 175 -14 74 -31 151 -37 170 -15 43 -12 331 3 377 8 24 7 42 -2 68 -10 27 -10 38 -1 47 17 17 15 226 -2 307 -8 35 -12 78 -9 96 6 36 -22 238 -37 265 -6 10 -10 33 -10 49 0 17 -4 39 -9 49 -5 9 -19 60 -31 112 -12 52 -26 100 -31 106 -5 6 -24 53 -43 105 -47 132 -100 252 -125 287 -11 17 -21 34 -21 39 0 4 -13 35 -29 68 -17 33 -40 83 -51 110 -38 88 -55 118 -69 123 -14 5 -14 2 10 -93 6 -22 15 -76 20 -120 5 -44 13 -113 19 -152 6 -47 6 -90 0 -120 -5 -27 -14 -77 -19 -113 -20 -126 -28 -150 -65 -194 -47 -58 -94 -75 -138 -49 -41 24 -77 128 -78 225 0 37 -4 78 -9 91 -5 14 -13 130 -16 258 -6 185 -11 251 -27 314 -11 44 -24 136 -30 204 -5 72 -15 138 -25 160 -9 20 -19 59 -23 86 -9 65 -50 216 -63 233 -5 6 -13 12 -17 12 -4 0 -5 -93 -3 -207z" fill="#010101" id="010101-000014"/>
    <path stroke="none" d="M2350 9542 c-71 -14 -241 -177 -367 -352 -62 -87 -134 -159 -194 -195 -40 -24 -78 -98 -103 -200 -10 -38 -27 -98 -38 -133 -15 -44 -18 -66 -11 -73 12 -12 19 -3 83 99 22 34 40 67 40 71 0 5 16 23 35 39 33 30 36 30 109 25 l74 -6 36 71 c58 116 154 214 222 227 37 7 104 44 104 58 0 4 9 27 21 50 11 23 29 66 40 94 11 29 36 79 55 110 51 84 45 110 -27 117 -24 2 -60 1 -79 -2z" fill="#010101" id="010101-000015"/>
    <path stroke="none" d="M2656 9453 c-78 -42 -171 -186 -211 -328 -22 -76 -47 -105 -94 -105 -52 -1 -140 -42 -183 -85 -21 -21 -38 -42 -38 -48 0 -5 -16 -35 -35 -67 -20 -33 -35 -71 -35 -88 0 -17 -4 -33 -9 -37 -5 -3 -15 -22 -21 -43 -7 -20 -20 -59 -30 -87 -10 -27 -23 -79 -30 -115 -6 -35 -17 -76 -24 -90 -8 -14 -16 -54 -20 -89 -9 -79 5 -79 51 0 51 87 118 171 192 243 86 82 115 87 150 26 12 -22 26 -40 30 -40 13 0 27 22 41 64 11 35 50 107 141 257 40 67 98 113 209 165 73 34 80 40 80 66 0 16 -7 42 -15 58 -9 17 -15 47 -15 67 2 42 -15 174 -26 213 -8 28 -52 80 -68 80 -6 -1 -24 -8 -40 -17z" fill="#010101" id="010101-000016"/>
    <path stroke="none" d="M3015 8999 c-49 -26 -107 -80 -147 -137 l-30 -43 -62 6 c-58 6 -64 5 -94 -20 -18 -15 -45 -48 -59 -74 -15 -25 -34 -53 -42 -61 -19 -19 -114 -220 -136 -285 -9 -27 -22 -63 -29 -80 -34 -80 -50 -136 -57 -205 -8 -80 2 -113 25 -76 27 45 124 177 159 217 36 41 41 44 88 43 40 0 55 -6 80 -30 17 -16 38 -43 45 -61 31 -71 59 -51 123 87 52 111 109 180 184 222 l37 22 0 112 c0 129 13 176 80 284 50 81 43 93 -58 97 -53 3 -75 -1 -107 -18z" fill="#010101" id="010101-000017"/>
    <path stroke="none" d="M10820 9005 c0 -9 23 -49 50 -90 28 -41 50 -78 50 -82 0 -4 11 -35 25 -68 20 -50 24 -76 24 -155 0 -117 -32 -437 -50 -505 -21 -80 -14 -357 11 -390 4 -5 13 -32 20 -60 15 -55 22 -69 64 -134 38 -60 144 -161 168 -161 11 0 27 -4 36 -9 9 -4 63 -11 120 -14 82 -4 105 -2 117 10 23 22 19 29 -31 58 -112 66 -184 165 -184 252 0 68 63 191 128 251 79 71 136 92 253 92 78 0 108 -4 137 -19 38 -19 192 -165 192 -182 0 -5 15 -26 34 -47 19 -20 52 -73 73 -116 46 -97 68 -111 59 -40 -3 27 -10 92 -15 144 -6 52 -22 131 -35 175 -14 44 -28 96 -31 115 -10 48 -89 212 -138 284 -42 63 -174 206 -189 206 -5 0 -47 31 -94 69 -46 38 -139 103 -207 146 -67 43 -141 93 -163 111 -45 36 -205 120 -294 153 -67 26 -130 28 -130 6z" fill="#010101" id="010101-000018"/>
    <path stroke="none" d="M10595 8593 c-4 -21 -11 -108 -16 -193 -5 -85 -13 -211 -18 -280 -17 -229 -22 -304 -31 -455 -6 -82 -14 -202 -20 -265 -5 -63 -14 -167 -19 -230 -13 -144 -37 -340 -45 -360 -3 -8 -8 -28 -10 -45 -2 -16 -7 -43 -11 -58 -9 -32 11 -121 61 -272 24 -73 35 -126 40 -185 6 -72 22 -156 36 -195 26 -71 38 -111 38 -131 0 -23 25 -138 46 -209 14 -49 92 -165 158 -235 18 -19 48 -57 67 -85 18 -27 68 -88 110 -135 41 -47 86 -98 100 -114 124 -149 282 -306 307 -306 6 0 12 -4 14 -8 2 -4 23 -23 48 -42 56 -44 118 -96 195 -166 33 -30 78 -66 100 -81 22 -14 63 -47 91 -72 28 -25 77 -64 109 -86 32 -22 72 -51 89 -66 37 -30 248 -169 303 -199 21 -11 56 -32 78 -45 22 -14 72 -41 110 -61 39 -20 88 -48 110 -63 41 -27 71 -42 215 -111 47 -22 92 -44 100 -49 8 -5 47 -23 85 -41 39 -17 81 -37 95 -43 22 -11 137 -76 166 -95 274 -177 427 -304 490 -404 15 -23 45 -68 68 -98 44 -58 95 -158 116 -225 7 -22 24 -64 37 -93 26 -58 40 -112 54 -217 6 -38 19 -121 31 -183 28 -154 23 -375 -11 -437 -25 -48 -29 -125 -6 -125 8 0 30 17 49 38 48 53 166 132 207 138 30 5 39 1 71 -33 23 -24 51 -70 71 -120 37 -89 52 -113 73 -113 7 0 36 33 63 73 28 39 71 94 96 122 l45 49 67 -33 c38 -18 82 -47 100 -64 27 -25 35 -28 48 -17 17 14 20 41 6 56 -5 5 -12 47 -15 94 -11 166 -32 304 -53 345 -11 22 -23 56 -27 75 -3 19 -26 64 -49 100 -24 36 -49 85 -56 109 -27 93 -144 280 -198 315 -21 14 -49 34 -63 45 -50 41 -63 22 -31 -45 10 -21 29 -73 41 -114 11 -41 25 -83 31 -92 12 -24 11 -214 -2 -261 -11 -42 -48 -72 -78 -62 -30 9 -128 120 -182 205 -45 71 -67 104 -174 260 -25 36 -52 78 -61 93 -28 51 -100 140 -208 257 -58 63 -151 166 -207 228 -117 131 -322 337 -359 361 -114 73 -314 230 -403 316 -29 28 -110 102 -181 165 -352 313 -482 448 -555 582 -28 52 -30 62 -22 100 19 81 60 91 183 43 147 -57 241 -106 330 -173 63 -47 68 -48 68 -27 0 25 -45 82 -108 137 -104 91 -321 364 -380 478 -16 30 -43 78 -60 107 -17 29 -36 70 -41 93 -6 22 -16 59 -22 83 -7 23 -16 76 -21 117 -5 41 -14 107 -19 145 -26 185 -30 255 -38 590 -9 335 -11 363 -30 402 -12 23 -21 54 -21 68 0 14 -13 52 -30 85 -16 33 -30 65 -30 71 0 6 -13 30 -28 53 -16 23 -32 54 -36 69 -17 67 -201 297 -238 297 -27 0 -22 -15 26 -84 59 -88 103 -226 93 -299 -27 -191 -107 -321 -241 -391 -43 -23 -61 -26 -151 -26 -56 0 -117 5 -136 12 -87 29 -222 151 -304 275 -20 28 -51 89 -71 135 -20 46 -42 95 -50 109 -7 14 -18 59 -25 100 -6 41 -18 90 -26 109 -40 96 -63 324 -69 700 -5 306 -10 350 -34 350 -4 0 -11 -17 -15 -37z" fill="#010101" id="010101-000019"/>
    <path stroke="none" d="M10841 6471 c23 -36 54 -79 67 -96 45 -55 184 -175 203 -175 11 0 41 -11 67 -24 26 -14 75 -28 109 -32 58 -6 66 -4 128 30 36 20 72 36 81 36 25 0 26 -25 4 -67 -19 -37 -21 -58 -21 -229 -1 -147 2 -198 14 -225 8 -20 18 -56 22 -80 17 -112 76 -257 131 -322 25 -30 24 -47 -4 -47 -20 0 -292 283 -342 355 -19 28 -55 73 -80 101 -49 55 -140 178 -140 190 0 4 -20 31 -44 60 -44 54 -207 369 -224 436 -6 20 -24 57 -41 82 -33 48 -37 66 -20 83 18 18 42 -3 90 -76z" fill="#ffffff" id="ffffff-000007"/>
    <path stroke="none" d="M12310 8121 c0 -10 11 -52 25 -92 14 -41 30 -92 35 -114 12 -54 12 -348 -1 -510 -6 -71 -11 -143 -13 -160 -1 -16 -5 -46 -9 -65 -4 -19 -12 -75 -17 -125 -6 -49 -17 -142 -26 -205 -8 -63 -19 -160 -24 -215 -5 -55 -14 -140 -21 -190 -15 -113 -16 -492 -1 -565 36 -182 63 -293 73 -304 5 -6 9 -18 9 -27 0 -22 69 -157 118 -230 20 -30 51 -77 67 -103 36 -56 135 -187 205 -271 28 -33 59 -73 69 -89 11 -15 115 -124 231 -242 242 -243 252 -264 97 -209 -38 14 -98 41 -132 60 -34 19 -70 35 -80 35 -9 0 -43 15 -74 34 -31 18 -67 37 -80 41 -13 4 -44 20 -69 36 -48 30 -92 38 -92 16 0 -14 68 -83 117 -119 17 -13 72 -57 121 -99 49 -42 117 -93 152 -115 145 -90 258 -170 339 -238 47 -39 104 -85 126 -101 36 -26 121 -109 389 -385 146 -150 310 -349 346 -420 12 -25 32 -56 44 -70 11 -14 36 -57 55 -95 18 -39 36 -76 40 -84 12 -23 31 -25 31 -2 0 11 -4 22 -9 25 -5 3 -12 20 -15 38 -4 18 -11 53 -16 78 -5 25 -16 74 -25 110 -12 45 -16 95 -13 165 3 110 17 150 59 174 24 13 29 11 85 -27 57 -40 174 -161 174 -180 0 -6 22 -35 49 -64 27 -30 62 -74 78 -100 15 -25 49 -76 75 -114 42 -62 77 -127 169 -306 33 -67 89 -224 89 -253 0 -31 58 -194 79 -224 22 -30 61 -144 61 -176 0 -13 7 -39 16 -60 8 -21 18 -83 21 -141 5 -87 3 -107 -10 -122 -9 -10 -23 -34 -32 -54 -13 -33 -13 -44 -1 -92 8 -30 29 -85 47 -123 33 -70 37 -99 24 -190 -6 -43 -3 -65 24 -141 17 -50 31 -98 31 -109 1 -33 55 -118 76 -118 19 0 21 5 44 93 7 29 31 65 75 114 73 81 80 102 71 210 -6 73 -15 107 -47 190 -11 26 -19 55 -19 65 -1 18 -20 74 -60 173 -21 52 -42 122 -75 250 -8 30 -21 71 -29 90 -29 74 -56 166 -56 191 0 56 -40 183 -78 247 -22 37 -45 89 -51 116 -7 27 -27 81 -46 120 -18 39 -41 101 -49 139 -9 37 -25 85 -36 107 -11 21 -20 45 -20 51 0 15 -69 191 -80 204 -11 14 -68 167 -81 219 -12 49 -112 250 -147 295 -54 71 -159 166 -198 179 -21 7 -79 26 -129 41 -92 29 -150 55 -160 72 -4 5 -16 9 -28 10 -12 0 -42 12 -67 27 -25 15 -60 36 -79 47 -19 11 -48 32 -65 46 -17 14 -87 63 -156 109 -68 46 -143 102 -166 124 -23 23 -73 66 -110 96 -144 117 -370 342 -458 457 -52 67 -117 174 -148 243 -9 19 -37 79 -62 133 -25 55 -46 102 -46 105 0 4 -9 38 -21 77 -11 38 -25 88 -31 110 -6 22 -18 67 -28 100 -17 56 -28 109 -51 260 -10 59 -18 222 -38 725 -6 140 -13 264 -17 275 -9 29 -29 163 -52 350 -6 44 -20 109 -32 145 -13 36 -28 94 -35 130 -18 99 -35 158 -66 235 -15 39 -29 75 -31 80 -2 6 -25 52 -52 103 -45 86 -76 116 -76 73z" fill="#010101" id="010101-000020"/>
    <path stroke="none" d="M7116 7768 c-9 -12 -16 -28 -16 -35 0 -17 -68 -141 -99 -181 -14 -18 -42 -52 -62 -75 -19 -23 -43 -53 -51 -65 -18 -26 -209 -197 -284 -252 -64 -48 -84 -70 -90 -100 -2 -14 -11 -47 -19 -75 -7 -27 -18 -104 -24 -170 -6 -66 -15 -149 -22 -185 -6 -36 -11 -75 -10 -87 0 -12 -6 -37 -14 -57 -10 -22 -15 -68 -15 -124 l0 -89 63 -84 c35 -46 76 -113 92 -149 27 -62 62 -135 197 -405 54 -108 153 -282 167 -295 11 -10 79 -125 106 -180 33 -70 134 -334 145 -380 4 -19 15 -55 23 -80 8 -25 20 -65 27 -90 6 -25 16 -59 21 -76 16 -55 11 -184 -11 -244 -17 -45 -40 -75 -137 -172 -65 -65 -132 -125 -151 -134 -18 -8 -47 -28 -65 -43 -38 -34 -157 -94 -224 -114 -26 -8 -61 -22 -78 -31 -16 -9 -44 -16 -61 -16 -18 0 -66 -7 -108 -16 -190 -39 -422 11 -595 130 -64 43 -72 46 -132 46 -106 -1 -180 -22 -233 -66 -42 -35 -136 -160 -136 -182 0 -10 -56 -63 -95 -89 -32 -21 -111 -51 -159 -60 -17 -3 -53 -29 -86 -62 -44 -44 -62 -70 -80 -121 -13 -36 -31 -76 -40 -90 -35 -51 -80 -205 -80 -272 0 -34 4 -69 9 -77 13 -21 48 -4 56 27 8 32 57 112 84 136 17 16 23 16 97 -4 44 -11 102 -29 129 -39 66 -24 138 -41 175 -41 16 0 50 -5 75 -12 41 -11 46 -10 60 7 8 11 15 26 15 33 0 22 58 135 82 162 23 25 43 37 103 59 37 14 65 67 65 122 0 53 21 101 53 118 26 14 51 12 122 -9 22 -7 69 -16 105 -20 255 -32 255 -32 313 -18 69 18 87 10 67 -28 -8 -14 -21 -29 -30 -31 -8 -3 -44 -18 -80 -34 -65 -28 -107 -34 -307 -43 -103 -4 -136 -26 -172 -113 -32 -77 -44 -89 -111 -114 -63 -23 -87 -48 -118 -125 -38 -93 -52 -148 -40 -161 16 -20 34 -16 93 23 30 20 72 40 92 43 42 7 200 -1 392 -20 99 -10 132 -10 170 0 25 7 59 14 75 17 16 2 46 17 67 34 21 16 42 30 47 30 15 0 96 91 137 155 39 62 61 84 83 85 19 0 14 -35 -10 -77 -79 -138 -85 -170 -28 -165 19 2 53 11 75 19 22 9 65 18 95 20 30 2 64 8 75 13 11 5 38 12 60 16 22 4 45 8 50 9 6 1 16 3 23 3 7 1 37 39 66 85 77 116 138 170 282 248 33 18 78 45 102 60 24 16 48 29 53 29 6 0 30 13 54 30 24 16 49 30 55 30 17 0 87 40 139 78 24 18 70 46 100 62 31 15 69 40 86 54 16 14 43 31 60 38 36 14 138 81 183 120 18 15 39 28 47 28 21 0 116 97 160 164 21 33 42 78 47 100 32 157 3 209 -162 295 -30 16 -67 42 -82 58 -56 60 -127 211 -128 273 -1 14 -7 36 -15 50 -11 19 -14 65 -15 186 0 135 3 170 20 219 11 32 20 67 20 78 0 11 4 34 9 51 5 17 15 51 21 76 7 25 16 54 21 65 4 11 15 43 24 70 17 53 178 379 200 405 7 8 28 47 47 85 63 127 138 226 257 343 135 131 264 229 341 258 8 3 40 15 70 27 30 11 60 24 67 29 37 28 419 27 473 -2 9 -5 20 -6 24 -3 19 19 -3 46 -86 108 -51 38 -126 104 -166 147 -41 43 -78 78 -84 78 -5 0 -22 8 -36 18 -15 10 -59 32 -98 49 -70 30 -72 31 -99 13 -15 -10 -55 -23 -88 -30 -75 -15 -188 -49 -201 -61 -6 -5 -40 -9 -77 -9 -57 0 -80 6 -156 41 -48 22 -101 53 -118 68 -16 15 -44 34 -62 40 -18 7 -69 52 -115 100 -72 75 -92 105 -153 226 -76 150 -99 185 -121 185 -16 0 -20 -45 -4 -55 6 -3 10 -23 10 -44 0 -21 8 -56 17 -77 13 -30 18 -79 21 -219 5 -258 -5 -302 -101 -450 -67 -102 -138 -180 -182 -200 -89 -40 -139 -41 -222 -4 -34 15 -49 31 -69 70 -23 47 -25 58 -21 157 5 108 19 222 31 240 3 6 1 14 -5 17 -6 4 -26 -8 -45 -26 -38 -36 -114 -148 -114 -167 0 -6 -18 -58 -41 -114 -23 -57 -52 -137 -65 -178 -23 -75 -46 -246 -44 -328 1 -42 0 -43 -27 -40 -27 3 -28 5 -35 78 -4 41 -12 89 -19 105 -24 60 -32 145 -32 360 0 199 10 336 26 362 3 5 13 41 21 81 8 39 22 82 31 96 10 14 14 33 11 42 -3 9 1 30 9 48 17 36 27 201 18 309 -6 72 -19 85 -47 45z" fill="#010101" id="010101-000021"/>
    <path stroke="none" d="M7720 5893 c0 -15 -4 -40 -9 -57 -5 -17 -16 -53 -24 -81 -9 -27 -18 -68 -21 -90 -3 -22 -12 -76 -21 -120 -15 -82 -12 -183 7 -240 5 -16 16 -73 23 -125 20 -135 29 -174 48 -201 10 -13 17 -32 17 -42 0 -10 20 -62 45 -116 25 -54 45 -107 45 -118 0 -11 10 -32 21 -47 19 -25 28 -48 46 -126 3 -14 36 -70 74 -126 95 -143 110 -173 98 -196 -43 -80 -380 -348 -438 -348 -27 0 -27 27 0 56 42 45 99 159 111 224 25 133 21 177 -28 285 -38 87 -54 127 -54 140 0 7 -16 47 -35 88 -19 41 -35 84 -35 95 0 12 -10 45 -22 74 -11 29 -22 64 -24 78 -1 14 -7 57 -13 95 -18 113 14 510 46 570 6 11 13 43 16 71 6 54 42 173 58 189 5 5 9 23 9 40 0 35 15 55 42 55 13 0 18 -8 18 -27z" fill="#ffffff" id="ffffff-000008"/>
    <path stroke="none" d="M14198 1777 c-53 -49 -89 -160 -93 -282 -2 -85 -5 -101 -21 -110 -10 -5 -43 -34 -71 -62 -40 -40 -53 -60 -53 -82 0 -16 -4 -41 -10 -56 -5 -14 -11 -81 -12 -148 -1 -67 -6 -130 -12 -139 -8 -13 -7 -23 2 -38 6 -11 12 -30 12 -43 0 -13 9 -32 19 -41 18 -16 20 -16 39 4 11 12 23 38 27 58 8 45 30 88 48 95 7 3 33 -8 57 -24 51 -35 89 -37 163 -9 86 32 101 59 111 200 5 71 65 211 128 297 21 29 38 60 38 70 0 22 -40 84 -89 138 -21 22 -50 60 -66 85 -16 25 -42 60 -59 78 -26 28 -36 32 -82 32 -40 0 -57 -5 -76 -23z" fill="#010101" id="010101-000022"/>
    <path stroke="none" d="M14773 1726 c-15 -13 -44 -55 -63 -92 l-34 -69 1 -152 2 -152 -41 -32 c-68 -54 -78 -93 -78 -295 0 -158 2 -177 22 -219 12 -25 26 -45 30 -45 11 0 23 32 41 112 17 76 58 138 91 138 13 0 39 -18 61 -41 53 -54 83 -69 158 -76 57 -5 65 -3 94 21 30 25 63 101 63 146 0 11 4 28 9 38 10 20 31 149 31 194 0 17 5 46 12 64 16 45 -10 100 -83 180 -31 34 -60 71 -64 84 -9 28 -98 166 -127 198 -29 31 -87 30 -125 -2z" fill="#010101" id="010101-000023"/>
    <path stroke="none" d="M13865 1689 c-40 -20 -109 -145 -131 -239 -15 -64 -62 -145 -110 -191 -21 -20 -24 -32 -24 -93 0 -43 -8 -94 -20 -130 -23 -68 -25 -114 -6 -138 21 -28 44 -21 65 20 28 54 79 97 137 116 29 9 58 25 66 34 9 10 18 48 22 90 7 82 44 167 100 230 76 86 80 104 40 190 -50 111 -84 138 -139 111z" fill="#010101" id="010101-000024"/>
  </g>
</svg>
