<svg xmlns="http://www.w3.org/2000/svg" version="1.0" width="712.000000pt" height="636.000000pt" viewBox="0 0 712.000000 636.000000" preserveAspectRatio="xMidYMid meet">
  <g transform="translate(0.000000,636.000000) scale(0.100000,-0.100000)" stroke="none">
    <mask id="mask-2">
      <g>
        <path d="M 0 0 H 7120.0 V 6360.0 H 0 Z" fill="white" id="background"/>
        <path d="M5598 3217 l2 -1497 -217 2 -218 3 -3 1485 c-1 817 0 1491 3 1498 3 10 53 12 217 10 l213 -3 3 -1498z" fill="black"/>
      </g>
    </mask>
    <mask id="mask-1">
      <g>
        <path d="M 0 0 H 7120.0 V 6360.0 H 0 Z" fill="white" id="background"/>
        <path d="M5893 5005 l27 -34 -2 -1783 -3 -1783 -535 0 -535 0 -3 1805 c-1 993 0 1811 3 1818 3 9 115 12 512 12 l508 0 28 -35z" fill="black"/>
        <path d="M5598 3217 l2 -1497 -217 2 -218 3 -3 1485 c-1 817 0 1491 3 1498 3 10 53 12 217 10 l213 -3 3 -1498z" fill="black"/>
      </g>
    </mask>
    <mask id="mask-0">
      <g>
        <path d="M 0 0 H 7120.0 V 6360.0 H 0 Z" fill="white" id="background"/>
        <path d="M7080 5880 c0 -242 -4 -440 -8 -440 -4 0 -179 171 -387 380 l-379 380 -925 0 -925 0 -408 -407 -408 -407 0 -2186 0 -2186 208 -207 c121 -119 217 -207 227 -207 11 0 104 -85 220 -200 l201 -200 905 0 905 0 379 380 c208 209 383 380 387 380 4 0 8 -207 8 -460 l0 -460 -3520 0 -3520 0 0 440 c0 242 3 440 8 440 4 0 108 -102 232 -226 124 -124 259 -251 300 -282 41 -31 111 -92 156 -135 l81 -77 923 0 923 0 389 387 388 388 0 1106 0 1106 -100 96 -100 96 100 97 100 97 0 926 0 926 -387 387 -388 388 -944 0 -944 0 -231 -232 c-280 -283 -310 -315 -329 -354 -16 -31 -154 -174 -169 -174 -4 0 -8 198 -8 440 l0 440 3520 0 3520 0 0 -440z" fill="black"/>
        <path d="M2592 5963 c28 -21 186 -171 350 -333 l298 -295 0 -835 0 -835 -140 -140 c-85 -85 -140 -147 -140 -159 0 -22 57 -86 76 -86 7 0 31 -22 54 -49 23 -27 55 -56 71 -64 16 -7 41 -29 54 -47 l25 -34 0 -990 0 -991 -351 -352 -350 -353 -818 0 -818 0 -225 223 c-248 245 -344 337 -353 337 -17 0 -80 52 -101 84 l-24 35 2 538 3 538 535 0 535 0 3 -231 c2 -216 4 -232 22 -249 16 -15 20 -31 20 -87 l0 -68 398 2 397 3 3 657 2 658 -477 2 -478 3 0 535 0 535 475 5 475 5 3 498 2 497 -397 -2 -398 -3 -5 -155 -5 -155 -555 0 -555 0 -3 345 -2 346 186 184 c102 102 213 221 245 265 33 44 99 119 146 168 l86 87 839 0 838 0 52 -37z" fill="black"/>
        <path d="M6548 5668 l332 -333 0 -2116 0 -2117 -22 -39 c-34 -59 -62 -91 -92 -104 -14 -7 -26 -17 -26 -22 0 -5 -109 -120 -242 -255 -134 -135 -251 -253 -260 -264 -17 -17 -53 -18 -837 -18 l-819 0 -248 251 c-148 149 -287 280 -344 322 -52 40 -98 77 -102 82 -4 6 -8 971 -8 2145 l0 2136 332 332 333 332 835 0 836 0 332 -332z" fill="black"/>
        <path d="M1918 4418 l2 -298 -477 -2 -478 -3 -3 -729 -2 -730 27 -28 27 -28 450 -2 451 -3 3 -438 2 -437 -197 2 -198 3 -3 25 c-4 47 -25 131 -34 136 -4 3 -8 111 -8 240 l0 234 -720 0 -720 0 0 1020 0 1020 738 2 737 3 3 145 c1 80 4 151 7 158 3 10 48 12 197 10 l193 -3 3 -297z" fill="black"/>
        <path d="M5893 5005 l27 -34 -2 -1783 -3 -1783 -535 0 -535 0 -3 1805 c-1 993 0 1811 3 1818 3 9 115 12 512 12 l508 0 28 -35z" fill="black"/>
        <path d="M5598 3217 l2 -1497 -217 2 -218 3 -3 1485 c-1 817 0 1491 3 1498 3 10 53 12 217 10 l213 -3 3 -1498z" fill="black"/>
      </g>
    </mask>
    <path stroke="none" d="M0 3180 l0 -3180 3560 0 3560 0 0 3180 0 3180 -3560 0 -3560 0 0 -3180z" fill="#000000" id="000000-000001" mask="url(#mask-0)"/>
    <path stroke="none" d="M652 5638 c-158 -158 -245 -252 -248 -269 -4 -15 -24 -44 -45 -65 l-39 -38 0 -273 0 -273 438 2 437 3 5 155 5 155 515 0 515 0 0 -615 0 -615 -475 -5 -475 -5 -3 -417 -2 -418 477 -2 478 -3 0 -775 0 -775 -515 0 -515 0 -3 110 c-2 93 -6 112 -22 127 -19 17 -20 33 -20 208 l0 190 -417 -2 -418 -3 -3 -470 -2 -470 267 -267 c181 -181 275 -268 289 -268 11 0 29 -9 39 -20 18 -20 31 -20 805 -20 758 0 788 1 804 19 9 10 29 21 44 24 18 4 112 92 290 269 l262 264 0 985 0 985 -159 157 -158 157 158 157 159 157 0 806 0 805 -288 288 -287 287 -825 0 -825 0 -243 -242z" fill="#000000" id="000000-000002" mask="url(#mask-1)"/>
    <path stroke="none" d="M4268 5573 l-308 -308 0 -2065 0 -2065 288 -288 c193 -193 294 -287 308 -287 12 0 29 -9 39 -20 18 -20 31 -20 804 -20 l786 0 288 288 287 287 0 2105 0 2105 -288 288 -287 287 -805 0 -804 0 -308 -307z" fill="#000000" id="000000-000003" mask="url(#mask-1)"/>
    <path stroke="none" d="M4967 4913 c-4 -3 -7 -768 -7 -1700 l0 -1693 418 2 417 3 0 1695 0 1695 -411 3 c-226 1 -413 -1 -417 -5z" fill="#000000" id="000000-000004" mask="url(#mask-2)"/>
  </g>
</svg>
