<svg xmlns="http://www.w3.org/2000/svg" version="1.0" width="3340.000000pt" height="1568.000000pt" viewBox="0 0 3340.000000 1568.000000" preserveAspectRatio="xMidYMid meet">
  <g transform="translate(0.000000,1568.000000) scale(0.100000,-0.100000)" stroke="none">
    <path d="M 0 0 H 33400.0 V 15680.0 H 0 Z" fill="#ffffff" id="background"/>
    <path stroke="none" d="M9035 14999 c-100 -89 -393 -351 -420 -376 -11 -10 -58 -52 -105 -93 -47 -41 -87 -77 -90 -80 -3 -3 -21 -18 -40 -34 -19 -16 -78 -68 -130 -116 -52 -48 -115 -104 -140 -126 -25 -21 -52 -46 -60 -54 -8 -8 -49 -44 -90 -80 -41 -35 -77 -67 -80 -70 -11 -11 -201 -181 -285 -255 -49 -44 -92 -82 -95 -85 -8 -9 -101 -91 -180 -160 -91 -80 -157 -139 -230 -206 -30 -28 -107 -96 -170 -150 -63 -54 -126 -110 -140 -124 -14 -14 -99 -91 -190 -170 -91 -79 -194 -172 -230 -206 -36 -34 -81 -75 -100 -90 -19 -16 -37 -31 -40 -34 -3 -3 -43 -39 -90 -80 -47 -41 -87 -77 -90 -80 -3 -3 -43 -39 -90 -80 -46 -41 -114 -103 -150 -136 -36 -34 -117 -106 -180 -160 -63 -54 -144 -126 -180 -160 -36 -34 -121 -110 -190 -170 -69 -60 -127 -111 -130 -114 -9 -9 -300 -270 -431 -385 -68 -60 -131 -117 -139 -125 -8 -8 -53 -49 -100 -90 -47 -41 -110 -98 -140 -126 -30 -28 -111 -100 -180 -160 -68 -60 -156 -138 -195 -174 -123 -113 -239 -216 -275 -246 -19 -16 -37 -31 -40 -34 -3 -3 -43 -39 -90 -80 -47 -41 -87 -77 -90 -80 -3 -3 -88 -79 -190 -169 -207 -184 -300 -271 -300 -284 0 -18 49 20 230 177 14 12 106 86 205 165 99 80 216 176 261 215 45 39 90 78 100 86 11 8 44 36 75 62 31 26 87 71 126 100 92 69 209 165 303 248 41 36 115 97 164 135 73 56 317 256 426 349 14 11 84 68 155 126 72 57 162 131 200 163 85 72 200 166 335 274 8 6 60 49 115 95 84 70 141 117 325 265 8 6 87 72 175 145 88 73 219 180 290 237 122 98 294 239 305 251 3 3 30 25 60 50 30 25 67 56 83 70 15 13 52 42 81 65 67 50 203 162 236 193 14 13 63 53 110 90 47 37 87 69 90 72 3 3 52 44 110 90 58 46 107 87 110 90 11 12 183 153 350 287 8 7 47 38 85 70 39 32 93 76 120 98 66 54 119 99 125 106 3 3 95 78 205 167 110 89 225 182 255 208 62 53 89 74 215 175 107 85 219 181 223 192 11 24 62 0 160 -75 59 -45 154 -118 212 -162 159 -120 226 -172 330 -256 52 -41 156 -122 230 -178 74 -56 196 -149 270 -207 74 -58 166 -129 204 -158 143 -109 311 -240 316 -246 3 -4 59 -47 125 -97 186 -140 290 -218 295 -224 3 -3 21 -17 42 -32 20 -15 42 -33 50 -40 17 -16 61 -51 203 -158 165 -125 235 -179 285 -220 56 -46 154 -122 335 -258 77 -58 142 -108 145 -112 3 -3 25 -21 50 -40 25 -19 47 -37 50 -40 3 -3 43 -34 90 -69 90 -69 149 -114 325 -251 185 -143 215 -167 355 -272 111 -84 286 -221 361 -282 9 -7 92 -71 185 -141 93 -70 192 -147 219 -170 28 -23 118 -93 200 -155 129 -98 238 -182 295 -227 35 -28 143 -112 206 -160 38 -29 115 -88 170 -130 56 -43 116 -89 134 -103 38 -28 92 -72 100 -80 3 -3 43 -34 90 -70 47 -35 112 -85 145 -110 33 -26 83 -63 110 -84 28 -20 57 -43 65 -49 8 -7 35 -28 60 -47 25 -19 51 -40 58 -47 18 -18 156 -123 200 -153 l37 -25 8340 5 8340 5 6 70 c6 57 4 72 -9 82 -13 10 -400 13 -1862 13 l-1847 0 -64 26 c-61 24 -86 35 -161 68 -18 8 -58 24 -88 36 -57 22 -82 33 -162 69 -26 11 -54 21 -62 21 -8 0 -18 5 -21 10 -3 5 -13 10 -20 10 -8 0 -43 13 -77 28 -35 16 -79 34 -98 41 -19 7 -53 21 -75 31 -100 45 -135 60 -140 60 -2 0 -30 12 -62 26 -32 14 -73 32 -90 40 -18 8 -48 20 -65 28 -18 8 -103 42 -188 76 -85 34 -168 68 -185 75 -16 7 -50 20 -75 30 -47 17 -72 28 -152 64 -26 11 -50 21 -53 21 -3 0 -27 10 -53 21 -26 12 -60 27 -77 34 -16 7 -51 22 -76 33 -25 12 -70 30 -99 42 -29 12 -72 29 -94 40 -23 10 -122 50 -221 90 -99 39 -193 78 -209 86 -16 8 -33 14 -37 14 -5 0 -32 11 -61 24 -30 14 -78 34 -108 46 -30 12 -70 28 -87 36 -18 8 -48 20 -65 28 -18 8 -54 23 -79 34 -25 12 -70 31 -100 42 -29 12 -77 32 -107 46 -29 13 -58 24 -65 24 -7 0 -17 4 -22 8 -6 5 -59 28 -120 51 -135 53 -139 54 -197 80 -26 12 -50 21 -53 21 -3 0 -27 10 -53 21 -26 12 -60 27 -77 34 -16 7 -64 27 -105 45 -41 18 -88 38 -105 45 -16 7 -46 20 -65 28 -19 9 -60 25 -90 37 -30 12 -68 28 -85 35 -49 22 -107 46 -155 62 -42 14 -61 22 -175 73 -25 11 -49 20 -54 20 -5 0 -26 8 -48 19 -21 10 -63 29 -93 41 -73 31 -181 78 -202 90 -10 6 -22 10 -28 10 -6 0 -32 10 -58 21 -84 38 -104 46 -287 119 -183 73 -203 81 -287 119 -26 11 -52 21 -56 21 -5 0 -22 6 -38 14 -33 16 -91 42 -184 81 -36 15 -84 36 -107 46 -24 11 -45 19 -48 19 -2 0 -28 11 -58 24 -29 14 -71 31 -92 39 -57 21 -407 163 -490 199 -38 17 -85 36 -102 44 -18 8 -48 20 -65 28 -109 47 -250 106 -253 106 -3 0 -34 14 -70 30 -36 17 -70 30 -75 30 -5 0 -29 9 -52 19 -102 46 -138 61 -148 61 -6 0 -18 4 -28 9 -9 5 -46 21 -82 36 -76 32 -117 50 -162 69 -18 8 -78 33 -133 56 -55 24 -122 52 -150 65 -27 12 -88 36 -135 54 -47 18 -110 43 -140 56 -30 13 -91 38 -135 55 -82 32 -106 42 -187 79 -26 11 -50 21 -53 21 -3 0 -27 10 -53 21 -26 12 -62 28 -80 36 -50 22 -46 24 -197 -116 -33 -31 -89 -81 -125 -111 -88 -75 -144 -125 -215 -191 -33 -31 -118 -107 -190 -170 -71 -62 -132 -116 -135 -119 -3 -3 -48 -43 -100 -90 -52 -47 -102 -92 -110 -100 -8 -8 -49 -44 -90 -80 -106 -92 -132 -115 -249 -221 -57 -52 -147 -132 -200 -178 -53 -47 -159 -141 -236 -211 -77 -69 -178 -159 -225 -200 -47 -41 -91 -81 -98 -88 -38 -36 -46 -34 -229 39 -181 72 -201 80 -285 118 -26 11 -50 21 -53 21 -3 0 -27 10 -53 21 -26 12 -60 27 -77 34 -16 7 -50 22 -75 33 -43 19 -174 73 -345 142 -44 18 -93 38 -110 45 -16 8 -66 28 -110 45 -44 17 -107 43 -140 57 -33 14 -73 31 -90 38 -16 7 -64 27 -105 45 -41 18 -88 38 -105 45 -16 7 -51 22 -77 34 -26 11 -54 21 -61 21 -7 0 -17 4 -23 9 -5 4 -40 20 -79 35 -38 15 -86 35 -105 43 -43 18 -78 33 -105 43 -11 5 -36 15 -55 23 -19 9 -82 34 -140 57 -58 23 -118 47 -135 55 -16 7 -46 19 -65 28 -19 8 -61 27 -93 41 -32 14 -60 26 -62 26 -3 0 -27 10 -53 21 -81 37 -105 47 -187 79 -44 17 -107 43 -140 57 -70 30 -81 34 -160 64 -68 25 -181 74 -207 89 -10 6 -22 10 -28 10 -5 0 -33 11 -62 24 -94 42 -141 63 -233 100 -49 21 -98 42 -107 47 -10 5 -22 9 -28 9 -6 0 -32 10 -58 21 -82 37 -105 46 -212 89 -58 23 -118 47 -135 55 -97 41 -156 66 -200 83 -27 11 -79 34 -115 50 -36 17 -112 49 -170 72 -107 43 -130 52 -212 89 -26 11 -54 21 -61 21 -7 0 -17 4 -22 8 -6 5 -37 19 -70 32 -33 12 -79 31 -102 41 -24 11 -45 19 -48 19 -3 0 -27 9 -53 21 -46 20 -68 30 -114 48 -13 5 -44 18 -70 30 -27 11 -69 31 -95 42 -27 12 -57 25 -68 29 -11 4 -36 15 -55 23 -19 8 -78 32 -130 53 -52 20 -99 41 -104 45 -6 5 -16 9 -23 9 -7 0 -32 9 -56 19 -23 10 -62 26 -87 36 -47 17 -72 28 -152 64 -26 11 -50 21 -53 21 -3 0 -24 8 -48 19 -23 10 -71 31 -107 46 -36 15 -85 36 -110 47 -25 11 -58 26 -75 33 -16 7 -57 24 -90 38 -33 14 -152 62 -265 107 -207 83 -227 91 -312 129 -26 11 -50 21 -53 21 -2 0 -30 12 -62 26 -32 14 -71 32 -88 39 -16 7 -51 22 -77 34 -26 11 -52 21 -58 21 -6 0 -18 4 -28 10 -31 18 -146 67 -193 83 -25 8 -60 22 -79 30 -84 37 -111 48 -210 87 -58 23 -120 48 -137 56 -18 8 -48 20 -65 28 -18 8 -54 23 -80 35 -26 12 -57 21 -70 21 -14 0 -54 -28 -103 -71z" fill="#4b6267" id="4b6267-000001"/>
    <path stroke="none" d="M20051 13117 c30 -23 129 -97 220 -165 90 -67 181 -136 201 -152 20 -17 39 -30 43 -30 5 0 98 -68 155 -113 8 -7 33 -26 55 -43 37 -28 64 -48 215 -158 61 -44 179 -131 195 -144 6 -4 39 -29 75 -55 36 -26 94 -70 130 -97 36 -27 103 -77 150 -111 241 -177 503 -371 510 -379 3 -4 28 -21 55 -40 28 -19 66 -46 85 -60 120 -91 319 -241 363 -273 29 -20 77 -55 107 -77 30 -22 80 -58 110 -80 30 -22 78 -57 107 -77 28 -21 114 -85 190 -142 76 -57 158 -119 183 -137 25 -18 147 -108 272 -201 124 -92 257 -190 295 -217 37 -28 183 -136 324 -240 140 -105 291 -216 333 -246 43 -30 87 -63 99 -73 11 -9 40 -30 64 -45 24 -15 43 -30 43 -34 0 -5 -583 -8 -1295 -8 l-1294 0 -58 26 c-32 14 -73 32 -90 40 -18 8 -48 20 -65 28 -18 8 -64 27 -103 42 -38 15 -74 31 -79 35 -6 5 -16 9 -23 9 -7 0 -32 8 -56 19 -23 10 -69 29 -102 42 -33 12 -88 35 -123 51 -34 15 -68 28 -75 28 -7 0 -17 4 -22 8 -6 5 -30 17 -55 26 -45 18 -82 33 -155 66 -74 33 -110 48 -164 70 -30 11 -73 29 -95 40 -23 10 -133 55 -245 100 -113 44 -229 92 -258 106 -29 13 -57 24 -62 24 -4 0 -21 6 -37 14 -25 12 -93 42 -209 91 -16 7 -51 22 -77 34 -26 11 -50 21 -53 21 -3 0 -27 9 -53 21 -26 12 -56 24 -67 29 -21 8 -110 44 -160 66 -16 7 -77 31 -135 54 -107 43 -130 52 -212 89 -26 11 -52 21 -57 21 -5 0 -26 9 -48 19 -21 11 -54 26 -73 34 -104 45 -252 106 -305 127 -33 13 -64 27 -70 32 -5 4 -15 8 -22 8 -7 0 -42 14 -78 30 -36 17 -70 30 -75 30 -6 0 -19 5 -30 10 -11 6 -29 15 -40 20 -11 6 -24 10 -30 10 -6 0 -32 10 -58 21 -26 12 -60 27 -77 34 -115 48 -256 110 -288 126 -22 10 -45 19 -53 19 -17 0 -18 16 -1 29 6 6 71 56 142 112 72 57 132 105 135 109 3 3 75 62 160 130 85 68 161 130 168 137 8 7 30 26 50 41 21 15 39 29 42 32 9 9 95 77 146 116 27 20 51 40 54 43 3 4 30 26 60 51 30 25 61 51 68 58 8 7 30 25 50 40 21 15 39 29 42 32 3 3 25 21 50 40 25 19 52 40 60 47 8 6 69 56 135 110 151 125 331 270 375 303 41 30 85 66 125 101 71 63 220 187 225 188 3 0 30 -18 61 -42z" fill="#ffffff" id="ffffff-000002"/>
    <path stroke="none" d="M19807 11553 c-4 -3 -7 -160 -7 -349 l0 -342 23 -6 c29 -8 625 -8 655 0 l22 6 -2 347 -3 346 -341 3 c-187 1 -343 -1 -347 -5z" fill="#4b6267" id="4b6267-000003"/>
    <path stroke="none" d="M9190 11560 l-485 -5 0 -510 0 -510 488 -5 c269 -3 497 -2 508 2 18 7 19 22 19 491 0 479 -4 551 -33 545 -7 -2 -230 -5 -497 -8z" fill="#4b6267" id="4b6267-000002"/>
    <path stroke="none" d="M2823 9453 c4 -3 10 -3 14 0 3 4 0 7 -7 7 -7 0 -10 -3 -7 -7z" fill="#4b6267" id="4b6267-000010"/>
    <path stroke="none" d="M20355 7839 c-71 -4 -166 -12 -210 -18 -168 -21 -426 -83 -516 -124 -19 -8 -54 -23 -79 -33 -117 -48 -309 -158 -411 -234 -159 -120 -350 -335 -469 -530 -144 -236 -248 -538 -300 -871 -22 -142 -11 -526 20 -704 31 -176 28 -163 91 -360 134 -423 421 -781 838 -1047 56 -35 162 -89 302 -152 83 -36 333 -112 419 -126 25 -4 86 -15 135 -23 368 -62 882 -60 1255 4 114 19 154 27 190 37 156 45 215 80 239 144 26 69 80 331 101 493 5 39 16 113 24 165 12 74 13 103 4 134 -23 76 -69 50 -94 -54 -45 -195 -91 -306 -164 -405 -34 -45 -55 -66 -120 -118 -66 -53 -224 -124 -325 -145 -116 -25 -379 -52 -505 -52 -91 0 -293 25 -475 60 -38 7 -176 51 -220 69 -11 5 -38 17 -60 26 -309 130 -564 333 -791 630 -182 238 -312 552 -363 875 -29 187 -33 243 -28 420 11 346 37 522 108 745 38 117 136 312 202 400 71 96 259 283 335 334 87 59 247 130 362 163 185 52 299 69 625 93 100 8 394 -18 510 -45 177 -40 283 -71 350 -100 11 -5 50 -22 86 -38 263 -116 403 -331 424 -650 7 -115 17 -142 48 -142 19 0 26 8 35 38 6 20 16 199 22 397 6 198 16 384 21 414 5 30 9 78 9 108 0 68 -14 77 -145 93 -55 6 -140 18 -190 26 -49 9 -115 19 -145 24 -64 11 -154 26 -242 40 -105 18 -234 30 -428 40 -206 10 -286 10 -475 -1z" fill="#0c6e9b" id="0c6e9b-000001"/>
    <path stroke="none" d="M1160 7768 c-38 -14 -51 -46 -26 -67 8 -6 54 -14 103 -17 222 -14 305 -79 334 -264 11 -69 14 -368 14 -1595 0 -1677 -3 -1760 -62 -1944 -30 -94 -92 -140 -188 -141 -56 0 -121 -16 -130 -30 -12 -20 7 -49 39 -60 25 -8 79 -8 197 0 206 13 445 13 757 0 275 -12 297 -8 297 45 0 27 -4 30 -40 37 -22 4 -66 7 -97 7 -68 1 -152 19 -193 41 -33 18 -80 81 -90 120 -40 162 -57 603 -53 1329 2 384 6 525 15 528 6 2 45 -38 86 -89 41 -51 83 -102 94 -113 10 -11 47 -54 83 -95 36 -41 72 -82 80 -90 8 -8 49 -53 90 -100 41 -47 77 -87 80 -90 3 -3 39 -43 80 -90 41 -47 82 -92 90 -100 22 -22 138 -148 190 -205 362 -401 713 -755 875 -880 293 -228 396 -255 955 -258 310 -2 354 4 348 47 -2 16 -14 24 -53 33 -27 6 -71 12 -97 12 -86 2 -221 42 -340 101 -66 33 -222 131 -238 149 -3 3 -25 24 -50 45 -25 22 -88 78 -140 125 -52 47 -115 104 -140 126 -56 50 -494 488 -615 616 -335 352 -485 509 -591 619 -67 69 -148 154 -180 190 -32 36 -94 101 -136 146 -43 44 -78 87 -78 96 0 22 139 167 685 713 478 478 739 734 800 786 143 120 360 218 517 234 44 4 76 13 90 26 l23 19 -23 18 c-21 16 -57 17 -533 16 -347 -1 -514 -5 -521 -12 -17 -17 -3 -39 41 -67 40 -25 71 -69 71 -101 0 -79 -85 -193 -354 -473 -67 -69 -151 -157 -186 -196 -36 -38 -128 -135 -205 -215 -78 -80 -172 -179 -210 -220 -39 -41 -142 -149 -231 -240 -88 -91 -185 -192 -215 -225 -125 -136 -137 -148 -148 -141 -14 9 -15 1205 -1 1432 12 190 29 255 79 305 35 35 118 69 170 69 11 0 43 5 71 11 45 10 50 13 50 38 0 44 -41 51 -227 39 -148 -10 -782 -5 -918 7 -36 3 -74 0 -95 -7z" fill="#0c6e9b" id="0c6e9b-000002"/>
    <path stroke="none" d="M24230 7209 c-183 -21 -236 -31 -375 -71 -127 -36 -189 -59 -295 -110 -87 -42 -241 -135 -260 -157 -3 -3 -38 -33 -78 -65 -242 -196 -473 -535 -567 -831 -66 -210 -99 -435 -92 -620 5 -149 37 -368 67 -465 4 -14 13 -45 20 -70 55 -199 189 -445 342 -627 271 -322 609 -504 1088 -585 102 -17 532 -17 625 0 138 25 181 34 220 44 64 17 108 30 130 38 342 131 489 223 706 439 227 227 390 515 480 851 66 246 77 642 24 885 -64 299 -189 550 -380 767 -87 99 -234 223 -353 297 -85 53 -220 122 -258 133 -10 4 -50 17 -89 31 -180 63 -297 88 -551 117 -105 12 -295 11 -404 -1z" fill="#0c6e9b" id="0c6e9b-000003"/>
    <path stroke="none" d="M24593 7030 c110 -16 234 -46 252 -62 5 -4 15 -8 22 -8 22 0 164 -69 233 -113 116 -73 250 -188 323 -278 64 -78 152 -211 184 -279 38 -81 72 -159 83 -190 7 -19 16 -44 20 -55 4 -11 13 -40 20 -65 7 -25 17 -58 21 -75 45 -159 72 -515 56 -745 -14 -215 -57 -427 -116 -575 -32 -79 -133 -269 -170 -319 -136 -184 -346 -340 -551 -409 -216 -72 -398 -91 -610 -63 -188 25 -300 57 -450 129 -297 142 -553 419 -694 750 -9 20 -23 53 -32 73 -40 90 -84 272 -114 468 -7 45 -12 182 -12 320 1 198 4 264 22 371 12 72 26 144 31 160 69 224 122 337 227 485 132 187 373 356 612 429 36 11 94 24 130 31 36 6 88 15 115 19 72 12 314 13 398 1z" fill="#ffffff" id="ffffff-000003"/>
    <path stroke="none" d="M7060 7176 c-108 -31 -219 -36 -846 -35 -346 0 -726 4 -844 8 -118 4 -226 5 -240 1 -19 -5 -26 -14 -28 -37 -3 -35 -7 -33 167 -49 114 -10 172 -50 198 -137 42 -136 43 -2593 2 -2917 -28 -223 -57 -260 -218 -274 -68 -6 -91 -18 -91 -46 0 -38 27 -45 154 -40 158 7 625 5 1266 -4 501 -7 516 -7 546 12 37 24 62 73 75 150 6 31 14 82 20 112 19 112 30 305 19 334 -23 62 -57 12 -90 -134 -13 -60 -48 -127 -84 -164 -92 -91 -212 -116 -561 -115 -335 0 -445 23 -514 105 -64 78 -72 193 -66 903 5 506 6 547 22 559 13 10 41 12 108 8 50 -3 182 -8 295 -11 490 -13 555 -41 575 -242 10 -98 12 -105 43 -101 37 4 51 49 51 163 1 81 24 331 35 380 11 47 14 111 7 124 -11 17 -38 3 -89 -45 -46 -43 -104 -60 -259 -73 -147 -13 -770 -15 -777 -2 -3 5 -6 305 -7 666 0 518 3 660 13 672 11 13 44 15 253 9 490 -13 635 -32 722 -95 46 -33 68 -91 80 -206 7 -65 10 -70 34 -73 18 -2 28 3 37 20 13 28 32 179 32 264 0 34 9 108 21 164 22 113 22 154 -1 157 -8 1 -35 -4 -60 -11z" fill="#0c6e9b" id="0c6e9b-000004"/>
    <path stroke="none" d="M32440 7174 c-143 -35 -211 -37 -1037 -30 -444 4 -820 8 -834 8 -45 2 -77 -11 -84 -33 -4 -12 -3 -25 3 -31 5 -5 61 -14 123 -19 201 -18 237 -53 258 -253 7 -77 11 -481 10 -1297 0 -1587 -8 -1703 -123 -1759 -23 -11 -62 -20 -87 -21 -57 0 -113 -20 -117 -41 -2 -9 7 -26 20 -38 22 -20 28 -21 138 -13 134 9 552 9 1265 -1 503 -7 510 -7 542 13 48 30 61 70 93 281 7 41 16 97 21 123 5 26 9 77 9 113 0 161 -67 129 -100 -48 -23 -120 -105 -216 -214 -250 -87 -27 -201 -38 -426 -38 -427 0 -510 31 -570 210 -8 25 -11 219 -10 689 0 359 3 657 5 661 10 16 68 17 403 4 413 -16 464 -24 524 -81 37 -35 68 -121 68 -188 0 -35 5 -59 16 -69 22 -22 31 -20 47 12 14 26 19 71 36 327 5 66 16 161 26 211 17 88 16 124 -3 124 -5 0 -38 -22 -73 -49 -75 -56 -110 -67 -276 -81 -155 -13 -760 -13 -768 -1 -3 6 -5 308 -5 672 0 521 3 665 12 671 12 9 395 4 583 -7 241 -14 381 -52 424 -114 20 -29 37 -91 46 -166 9 -75 14 -85 40 -85 14 0 26 7 29 18 13 46 26 139 36 257 6 72 18 169 27 217 13 71 13 90 3 103 -7 8 -15 15 -19 14 -3 0 -31 -7 -61 -15z" fill="#0c6e9b" id="0c6e9b-000005"/>
    <path stroke="none" d="M8078 7154 c-23 -7 -33 -55 -14 -70 9 -6 64 -14 122 -17 122 -8 181 -33 211 -90 41 -78 42 -116 42 -1472 1 -1320 -2 -1437 -37 -1610 -22 -106 -77 -155 -173 -155 -30 0 -65 -6 -79 -13 -35 -17 -38 -52 -6 -72 23 -16 40 -16 188 -4 122 9 269 10 578 3 228 -4 614 -8 857 -9 433 0 442 0 470 21 32 24 53 62 65 119 34 168 47 258 55 392 5 92 4 103 -12 109 -36 14 -56 -11 -75 -96 -7 -30 -16 -62 -20 -70 -4 -8 -17 -35 -29 -60 -39 -80 -137 -168 -206 -184 -146 -33 -178 -36 -425 -36 -365 1 -515 25 -598 95 -58 49 -74 103 -97 325 -12 120 -15 355 -15 1360 1 1248 1 1257 38 1351 19 48 78 87 143 93 197 20 179 15 179 46 0 15 -6 32 -13 38 -9 8 -85 8 -268 1 -224 -9 -543 -7 -784 5 -44 3 -87 2 -97 0z" fill="#0c6e9b" id="0c6e9b-000006"/>
    <path stroke="none" d="M10938 7150 c-11 -7 -18 -23 -18 -40 0 -35 4 -36 137 -45 137 -9 200 -43 223 -122 21 -72 28 -281 35 -1033 7 -787 -6 -1741 -26 -1885 -16 -116 -36 -196 -57 -225 -27 -37 -80 -60 -139 -60 -29 0 -64 -5 -78 -12 -33 -15 -33 -52 -1 -73 22 -15 42 -15 183 -5 105 8 279 10 513 6 1003 -17 1323 -18 1362 -5 71 23 92 70 126 289 30 186 37 323 18 339 -27 22 -53 4 -66 -47 -35 -133 -69 -204 -128 -265 -101 -105 -198 -127 -559 -127 -504 0 -627 40 -671 220 -37 151 -37 154 -37 1510 l0 1325 24 58 c35 85 69 104 212 117 62 6 116 13 120 16 17 10 9 44 -13 58 -20 13 -58 13 -263 5 -219 -9 -600 -6 -800 6 -48 3 -87 1 -97 -5z" fill="#0c6e9b" id="0c6e9b-000007"/>
    <path stroke="none" d="M13077 7147 c-12 -8 -18 -22 -15 -38 2 -19 11 -26 43 -33 142 -30 217 -71 319 -173 66 -66 216 -260 216 -279 0 -3 18 -32 40 -64 22 -32 40 -61 40 -64 0 -3 37 -63 83 -133 115 -176 180 -279 213 -338 15 -27 45 -76 66 -107 21 -31 38 -60 38 -63 0 -3 18 -33 40 -65 22 -32 40 -62 40 -65 0 -3 22 -38 48 -78 111 -164 232 -379 254 -451 36 -116 38 -156 37 -676 0 -608 -6 -668 -75 -731 -36 -32 -83 -49 -141 -49 -87 0 -133 -50 -78 -86 21 -14 42 -15 181 -5 198 14 415 14 713 0 225 -10 236 -9 260 9 64 47 31 70 -117 82 -229 19 -266 55 -288 285 -19 190 -18 1089 0 1168 15 58 54 146 102 227 15 25 35 59 44 75 80 138 123 212 130 220 4 6 17 27 29 48 52 92 61 108 211 347 28 44 72 115 99 159 230 372 371 566 496 683 62 58 165 104 268 119 85 12 87 13 87 39 0 15 -6 32 -12 37 -9 7 -95 7 -253 1 -172 -7 -292 -7 -423 2 -200 12 -216 9 -210 -38 2 -19 14 -29 48 -42 59 -23 74 -48 73 -124 -1 -99 -28 -161 -194 -437 -50 -85 -100 -167 -109 -184 -10 -16 -33 -57 -52 -90 -20 -33 -47 -80 -60 -105 -14 -25 -35 -62 -47 -82 -11 -21 -29 -53 -40 -70 -10 -18 -58 -100 -108 -183 -93 -156 -135 -230 -186 -328 -17 -33 -36 -61 -44 -64 -14 -6 -32 13 -55 57 -7 14 -26 48 -44 75 -17 28 -91 151 -164 275 -73 124 -143 242 -156 262 -13 21 -24 40 -24 42 0 6 -36 67 -110 186 -95 153 -130 212 -130 217 0 3 -8 17 -19 31 -10 15 -28 44 -40 65 -11 20 -31 54 -42 75 -12 20 -33 57 -47 82 -13 25 -33 59 -42 75 -24 39 -50 114 -50 143 0 39 19 62 76 89 59 28 67 44 31 68 -18 12 -42 13 -117 8 -128 -9 -636 -9 -735 1 -61 5 -84 4 -98 -7z" fill="#0c6e9b" id="0c6e9b-000008"/>
    <path stroke="none" d="M26501 7150 c-51 -8 -71 -21 -71 -47 0 -21 32 -30 131 -36 234 -15 314 -97 463 -472 26 -66 54 -133 61 -150 7 -16 25 -61 40 -100 15 -38 33 -83 40 -100 7 -16 29 -73 50 -125 20 -52 42 -108 50 -125 12 -29 53 -126 80 -190 7 -16 22 -51 34 -77 11 -26 21 -54 21 -61 0 -7 4 -17 8 -22 5 -6 17 -30 26 -55 10 -25 24 -58 31 -75 7 -16 20 -50 30 -75 9 -25 23 -58 30 -75 7 -16 25 -61 40 -100 15 -38 34 -86 42 -105 20 -46 26 -61 58 -145 27 -72 37 -95 74 -177 11 -26 21 -50 21 -53 0 -3 10 -27 21 -53 36 -81 46 -105 79 -187 17 -44 38 -93 45 -110 7 -16 20 -50 30 -75 9 -25 23 -61 32 -80 20 -46 23 -54 78 -195 26 -66 53 -133 60 -150 7 -16 21 -50 32 -74 10 -25 41 -90 68 -145 38 -77 57 -104 79 -115 62 -29 84 3 246 364 12 28 42 91 66 142 24 50 44 94 44 97 0 3 11 29 24 58 33 74 116 268 116 273 0 3 14 34 30 70 17 36 30 69 30 74 0 4 6 21 14 37 24 50 54 119 76 175 12 29 32 76 45 104 32 71 65 145 80 180 7 17 26 62 43 100 17 39 45 106 62 150 17 44 37 94 45 110 7 17 18 46 26 65 7 19 23 58 35 85 12 28 33 77 47 110 22 53 152 356 176 410 29 64 91 217 91 223 0 5 9 27 20 50 11 22 20 47 20 55 0 7 4 17 8 22 5 6 24 48 42 95 63 159 143 291 215 352 38 33 101 56 170 63 120 11 125 13 125 45 0 46 -18 50 -216 40 -98 -5 -305 -7 -459 -3 -295 6 -325 3 -325 -37 0 -27 6 -29 116 -40 85 -9 103 -14 124 -35 22 -22 25 -34 24 -88 -1 -61 -15 -108 -84 -297 -17 -47 -38 -105 -46 -130 -8 -25 -19 -55 -25 -67 -17 -41 -27 -67 -39 -103 -7 -19 -16 -44 -21 -55 -4 -11 -15 -40 -23 -65 -8 -25 -26 -76 -41 -115 -15 -38 -45 -117 -67 -175 -22 -58 -44 -114 -48 -125 -4 -11 -20 -51 -35 -90 -15 -38 -34 -86 -42 -105 -8 -19 -19 -45 -24 -57 -5 -13 -13 -33 -18 -45 -5 -13 -17 -43 -26 -68 -9 -25 -23 -58 -30 -75 -7 -16 -36 -91 -65 -165 -59 -155 -69 -178 -81 -202 -5 -10 -9 -23 -9 -28 0 -6 -9 -30 -20 -52 -11 -23 -20 -46 -20 -50 0 -5 -9 -28 -20 -50 -11 -23 -20 -45 -20 -50 0 -4 -11 -32 -25 -63 -14 -30 -36 -80 -50 -110 -14 -31 -25 -58 -25 -60 0 -2 -13 -33 -28 -67 -16 -35 -40 -91 -53 -125 -35 -92 -46 -86 -98 60 -12 31 -30 81 -40 110 -39 106 -103 273 -112 289 -5 10 -9 22 -9 28 0 6 -9 30 -20 55 -11 25 -29 65 -40 90 -11 25 -20 48 -20 52 0 7 -64 176 -90 238 -5 11 -18 49 -30 85 -12 36 -30 84 -41 107 -10 24 -19 47 -19 52 0 7 -16 51 -50 136 -5 11 -31 81 -60 155 -29 74 -56 145 -61 158 -26 64 -32 78 -40 94 -5 10 -9 22 -9 28 0 6 -8 29 -19 53 -10 23 -28 67 -39 97 -11 30 -34 93 -52 140 -18 47 -41 109 -51 138 -43 117 -61 168 -69 187 -5 11 -22 56 -38 100 -79 215 -66 246 106 263 100 10 118 18 108 50 -10 31 -46 35 -236 31 -201 -5 -775 -1 -835 5 -22 2 -64 0 -94 -4z" fill="#0c6e9b" id="0c6e9b-000009"/>
    <path stroke="none" d="M22475 2708 c-175 -57 -273 -144 -321 -283 -36 -100 -12 -258 54 -357 l26 -40 -39 -31 c-22 -17 -76 -67 -120 -112 -101 -102 -140 -176 -166 -317 -31 -165 66 -371 221 -474 101 -67 149 -79 310 -78 112 0 147 4 204 23 113 36 205 91 293 174 l32 30 93 -71 c51 -39 120 -84 153 -99 59 -28 63 -28 250 -28 162 0 190 2 190 15 0 11 -13 16 -50 18 -54 3 -54 3 -165 56 -109 52 -225 128 -310 203 l-44 40 34 53 c65 101 120 210 145 285 6 20 35 164 35 177 0 4 -9 16 -21 26 -34 33 -319 42 -319 11 0 -5 7 -9 15 -9 42 0 99 -27 124 -59 23 -31 26 -43 25 -110 -2 -106 -51 -280 -88 -310 -13 -11 -20 -11 -38 2 -44 28 -349 330 -435 431 -49 55 -90 103 -93 106 -25 24 -93 115 -118 156 -54 92 -75 164 -71 246 7 118 53 192 149 236 109 50 231 28 320 -59 48 -46 59 -71 75 -158 11 -66 26 -86 40 -54 4 10 10 81 12 158 6 164 9 159 -102 193 -77 24 -242 30 -300 10z" fill="#4b6267" id="4b6267-000015"/>
    <path stroke="none" d="M22296 1918 c10 -13 29 -36 42 -52 80 -103 361 -394 497 -514 l70 -63 -38 -33 c-124 -110 -350 -154 -504 -97 -118 43 -215 147 -252 271 -7 25 -17 58 -22 74 -21 69 -4 205 37 292 23 48 112 144 133 144 10 0 26 -10 37 -22z" fill="#ffffff" id="ffffff-000008"/>
    <path stroke="none" d="M24628 2682 c-38 -5 -35 -22 3 -22 49 0 106 -21 131 -47 l23 -25 0 -701 c0 -748 -1 -759 -48 -792 -12 -8 -36 -15 -54 -15 -33 0 -52 -15 -37 -30 5 -5 155 -10 334 -11 l325 -2 73 25 c90 32 155 74 215 137 143 151 166 384 54 551 -35 52 -126 141 -165 161 -15 7 -39 21 -54 31 -14 10 -33 18 -41 18 -29 0 -25 28 9 61 47 45 95 121 124 194 35 88 34 210 -3 281 -37 72 -109 134 -190 163 -63 22 -79 23 -369 24 -167 1 -315 1 -330 -1z" fill="#4b6267" id="4b6267-000016"/>
    <path stroke="none" d="M25233 2590 c116 -73 178 -273 135 -435 -15 -55 -73 -135 -113 -155 -40 -20 -244 -21 -268 -1 -15 12 -17 46 -17 305 0 214 3 295 12 304 8 8 47 12 108 12 89 0 99 -2 143 -30z" fill="#ffffff" id="ffffff-000004"/>
    <path stroke="none" d="M25170 1904 c36 -8 74 -17 85 -20 46 -12 141 -91 180 -149 64 -95 90 -189 89 -315 -1 -147 -36 -214 -142 -276 -44 -26 -55 -28 -162 -28 -100 0 -121 3 -163 23 -26 13 -54 35 -61 50 -10 19 -15 115 -20 362 -4 185 -4 343 0 352 8 22 103 22 194 1z" fill="#ffffff" id="ffffff-000009"/>
    <path stroke="none" d="M26100 2680 c-13 -8 -13 -11 -1 -19 8 -5 19 -7 25 -5 23 8 101 -24 121 -50 19 -26 20 -46 27 -554 7 -583 7 -581 74 -730 63 -138 172 -232 332 -284 57 -19 89 -22 222 -22 138 0 162 2 219 23 181 66 311 192 366 354 7 23 23 89 34 146 19 95 21 139 21 548 0 284 4 460 11 487 12 47 40 70 102 81 43 8 50 25 10 26 -27 0 -406 0 -430 -1 -32 0 -9 -18 30 -23 67 -9 95 -24 117 -59 19 -32 20 -51 20 -510 0 -457 -2 -505 -31 -628 -14 -59 -62 -163 -96 -207 -15 -19 -52 -51 -82 -72 -97 -64 -151 -81 -254 -81 -140 0 -234 39 -328 137 -77 80 -111 157 -135 298 -18 104 -20 973 -3 1041 14 53 37 72 101 80 106 14 37 24 -169 24 -120 0 -234 3 -253 5 -19 3 -42 1 -50 -5z" fill="#4b6267" id="4b6267-000017"/>
    <path stroke="none" d="M28150 2682 c-19 -7 -10 -22 14 -22 28 0 87 -20 102 -34 32 -32 34 -79 33 -725 0 -798 -2 -810 -95 -820 -34 -4 -49 -10 -49 -21 0 -13 36 -15 265 -15 229 0 265 2 265 15 0 11 -17 16 -70 20 -64 5 -71 7 -91 37 -38 57 -44 167 -44 795 0 652 2 684 55 724 20 15 45 24 68 24 36 0 54 19 20 21 -58 3 -465 3 -473 1z" fill="#4b6267" id="4b6267-000018"/>
    <path stroke="none" d="M29213 2682 c-39 -4 -45 -22 -7 -22 48 0 112 -22 136 -47 l23 -25 0 -706 c0 -641 -2 -710 -17 -743 -22 -47 -36 -57 -83 -61 -28 -2 -41 -8 -43 -20 -3 -15 32 -17 430 -20 238 -1 448 -1 466 1 38 4 49 20 68 100 16 66 19 211 4 211 -5 0 -10 -7 -10 -15 0 -8 -4 -23 -9 -33 -5 -9 -15 -32 -22 -50 -35 -96 -114 -132 -291 -132 -128 0 -209 19 -248 59 -23 23 -28 40 -38 129 -16 136 -17 1205 -1 1266 12 50 44 73 113 82 50 7 63 24 19 25 -112 3 -464 3 -490 1z" fill="#4b6267" id="4b6267-000019"/>
    <path stroke="none" d="M30600 2682 c-19 -7 -10 -22 13 -22 31 0 99 -22 125 -40 20 -13 23 -28 30 -120 4 -58 5 -384 2 -725 -6 -657 -6 -660 -54 -684 -11 -6 -37 -12 -56 -13 -23 -2 -35 -8 -35 -18 0 -13 32 -16 205 -22 113 -3 297 -9 409 -13 222 -8 286 -2 421 42 293 96 487 328 549 659 14 78 14 270 -1 331 -84 351 -271 533 -622 609 -57 13 -160 16 -524 17 -248 1 -457 1 -462 -1z" fill="#4b6267" id="4b6267-000020"/>
    <path stroke="none" d="M31298 2610 c176 -19 275 -52 392 -131 67 -45 197 -180 226 -234 11 -22 25 -49 31 -60 98 -185 107 -493 19 -705 -68 -166 -197 -278 -401 -348 -62 -22 -139 -32 -238 -31 -162 0 -289 30 -330 77 -35 42 -37 75 -37 742 0 613 1 658 18 673 30 27 160 34 320 17z" fill="#ffffff" id="ffffff-000005"/>
    <path stroke="none" d="M2005 2463 c-223 -14 -450 -169 -552 -375 -58 -118 -66 -153 -71 -303 -5 -178 7 -242 70 -371 72 -149 238 -289 410 -348 108 -36 191 -46 383 -46 183 1 252 9 328 39 38 15 51 55 78 224 10 66 10 80 -1 87 -18 11 -30 3 -30 -20 0 -24 -34 -104 -60 -140 -11 -15 -50 -43 -87 -60 -67 -33 -70 -33 -208 -33 -141 0 -159 3 -275 46 -96 36 -170 84 -238 157 -33 34 -112 144 -112 155 0 3 -9 24 -19 48 -30 66 -60 208 -61 281 0 126 47 289 110 381 83 121 176 169 392 205 90 15 129 12 309 -26 51 -11 152 -70 180 -104 25 -31 37 -65 54 -152 3 -16 12 -28 20 -28 12 0 15 14 15 63 1 34 5 107 10 162 5 62 5 104 -1 110 -32 32 -428 62 -644 48z" fill="#4b6267" id="4b6267-000021"/>
    <path stroke="none" d="M5070 2462 c-46 -8 -140 -51 -174 -81 -34 -30 -92 -126 -104 -174 -22 -85 -14 -139 32 -236 33 -69 107 -143 288 -288 177 -141 233 -198 254 -260 41 -115 -13 -245 -123 -299 -54 -27 -198 -32 -269 -9 -105 33 -156 90 -179 199 -18 87 -31 66 -45 -69 -16 -164 -8 -178 116 -211 75 -19 305 -19 380 1 117 30 225 128 263 238 7 20 12 82 12 137 0 91 -2 105 -32 167 -41 87 -126 172 -282 282 -139 98 -231 181 -251 225 -27 59 -35 103 -25 148 18 80 52 112 162 157 53 21 161 11 237 -22 61 -27 89 -57 106 -112 9 -34 21 -55 30 -55 11 0 14 20 16 95 1 52 2 105 2 117 1 18 -8 26 -39 36 -45 15 -306 25 -375 14z" fill="#4b6267" id="4b6267-000022"/>
    <path stroke="none" d="M5955 2462 c-12 -8 -55 -184 -55 -220 0 -34 21 -23 48 26 13 23 36 48 50 56 47 24 163 38 292 34 l125 -3 3 -575 c4 -692 4 -691 -88 -702 -14 -2 -26 -10 -28 -20 -3 -17 13 -18 238 -18 225 0 241 1 238 17 -2 14 -15 19 -53 21 -35 2 -59 10 -77 25 -24 20 -27 31 -37 138 -6 64 -11 335 -11 611 0 443 2 497 16 502 26 10 219 7 276 -4 126 -25 168 -48 168 -92 0 -11 5 -29 11 -40 20 -37 29 1 29 126 l0 118 -42 -7 c-83 -13 -857 -18 -963 -5 -55 6 -107 13 -115 16 -8 2 -20 0 -25 -4z" fill="#4b6267" id="4b6267-000027"/>
    <path stroke="none" d="M7970 2460 c-118 -14 -172 -35 -286 -111 -88 -59 -142 -113 -198 -199 -52 -80 -78 -145 -116 -295 -38 -149 27 -417 137 -562 99 -133 221 -211 401 -259 68 -18 307 -18 383 0 50 12 72 20 159 59 50 23 142 90 193 141 125 124 218 360 217 549 -1 104 -39 248 -94 352 -33 64 -152 190 -201 215 -17 8 -41 22 -55 30 -24 16 -98 45 -170 68 -45 15 -286 23 -370 12z" fill="#4b6267" id="4b6267-000023"/>
    <path stroke="none" d="M8234 2382 c68 -19 168 -75 223 -125 94 -87 166 -223 192 -363 14 -78 14 -270 0 -348 -51 -271 -245 -447 -493 -446 -302 2 -520 202 -586 538 -13 68 -13 265 0 317 34 134 40 148 93 228 60 91 171 168 293 201 56 16 218 15 278 -2z" fill="#ffffff" id="ffffff-000006"/>
    <path stroke="none" d="M9473 2458 c-11 -13 -15 -44 -33 -238 -5 -58 -14 -139 -20 -180 -6 -41 -15 -113 -19 -160 -14 -132 -50 -437 -61 -515 -5 -38 -13 -99 -17 -135 -7 -69 -23 -120 -45 -138 -7 -6 -31 -12 -53 -14 -28 -2 -41 -8 -43 -20 -3 -17 11 -18 197 -18 171 0 201 2 201 15 0 15 -20 22 -75 27 -59 6 -61 43 -26 453 6 61 12 142 16 180 3 39 11 127 17 198 6 70 14 127 18 127 7 0 38 -59 115 -225 26 -55 66 -138 90 -185 309 -611 303 -601 341 -570 15 14 191 367 244 490 45 107 244 510 251 510 10 0 19 -56 29 -175 5 -60 14 -150 20 -200 6 -49 15 -137 20 -195 4 -58 14 -167 21 -244 10 -110 10 -142 0 -158 -7 -11 -10 -22 -7 -25 10 -10 155 -22 279 -23 120 0 127 1 127 20 0 18 -7 20 -56 20 -62 0 -88 11 -122 49 -34 39 -48 108 -72 351 -6 58 -15 143 -20 190 -5 47 -14 132 -20 190 -6 58 -15 129 -21 159 -5 30 -9 73 -9 95 0 72 -39 344 -51 351 -25 16 -47 -21 -222 -385 -30 -63 -77 -164 -103 -225 -72 -163 -257 -528 -270 -532 -7 -2 -51 78 -100 179 -241 496 -480 963 -495 966 -9 1 -20 -3 -26 -10z" fill="#4b6267" id="4b6267-000028"/>
    <path stroke="none" d="M15625 2461 c-86 -15 -201 -95 -236 -163 -53 -103 -60 -179 -28 -272 39 -110 100 -178 294 -327 224 -172 285 -247 285 -349 0 -108 -47 -183 -143 -228 -86 -41 -254 -26 -344 29 -47 29 -93 103 -93 148 0 43 -15 70 -29 56 -13 -13 -30 -211 -22 -243 17 -63 114 -92 309 -92 196 0 274 25 366 117 85 84 128 215 107 324 -28 139 -95 229 -261 352 -187 138 -205 153 -251 197 -78 77 -103 152 -79 240 29 109 198 180 329 139 109 -34 157 -75 177 -148 16 -60 31 -47 38 35 3 42 6 96 6 118 0 41 -1 42 -47 55 -54 15 -317 24 -378 12z" fill="#4b6267" id="4b6267-000024"/>
    <path stroke="none" d="M18050 2459 c-98 -10 -147 -23 -230 -62 -164 -77 -299 -226 -354 -389 -81 -244 -53 -465 85 -673 84 -126 187 -201 366 -269 89 -33 186 -46 348 -46 161 -1 207 5 325 43 115 37 110 25 110 283 0 306 12 349 98 363 20 4 36 11 35 16 -4 14 -452 13 -455 0 -1 -5 21 -14 49 -18 91 -15 91 -14 94 -295 1 -133 0 -244 -2 -245 -67 -52 -67 -52 -229 -52 -153 0 -156 0 -238 34 -175 71 -289 172 -359 317 -17 34 -33 72 -37 85 -4 13 -14 49 -23 79 -22 76 -22 293 0 375 28 99 82 199 136 247 42 38 135 92 196 113 91 32 245 44 328 26 23 -5 69 -15 102 -22 59 -12 166 -58 189 -82 29 -30 55 -76 66 -117 22 -80 19 -75 34 -59 9 10 16 59 20 161 l7 146 -28 6 c-176 38 -456 53 -633 35z" fill="#4b6267" id="4b6267-000025"/>
    <path stroke="none" d="M19372 2461 c-7 -4 -12 -223 -14 -663 -3 -649 -3 -657 -24 -685 -16 -21 -32 -29 -65 -33 -31 -4 -45 -10 -47 -22 -3 -17 12 -18 218 -18 206 0 221 1 218 18 -2 13 -15 18 -60 20 -49 3 -61 7 -82 33 -32 38 -33 45 -45 344 -19 457 -23 669 -11 685 8 12 12 12 18 3 4 -7 42 -48 83 -90 41 -43 117 -125 169 -183 239 -263 771 -804 814 -827 17 -9 32 -11 38 -5 5 5 11 278 15 658 4 509 9 655 19 675 9 19 26 30 59 38 28 7 45 16 42 24 -2 8 -56 11 -203 10 -233 -2 -214 -1 -214 -11 0 -5 32 -15 71 -22 111 -21 109 -12 109 -365 0 -159 5 -384 10 -499 6 -115 7 -212 4 -215 -5 -5 -90 80 -224 225 -36 38 -135 144 -220 234 -85 91 -186 199 -225 240 -38 41 -122 129 -186 195 -63 66 -139 145 -168 177 -52 55 -79 72 -99 59z" fill="#4b6267" id="4b6267-000031"/>
    <path stroke="none" d="M14775 2449 c-16 -5 -176 -9 -355 -9 -399 2 -390 2 -390 -9 0 -4 27 -14 60 -21 102 -22 95 24 95 -635 0 -441 -3 -582 -14 -623 -14 -58 -20 -63 -71 -72 -22 -3 -36 -12 -38 -23 -3 -16 22 -17 387 -17 l391 0 15 23 c20 31 48 172 41 203 -9 33 -29 26 -36 -12 -12 -56 -35 -87 -80 -111 -40 -20 -59 -22 -179 -23 -118 0 -138 2 -172 22 -21 11 -41 28 -46 37 -4 9 -9 137 -11 285 -3 215 -1 271 10 278 7 5 79 6 163 2 189 -8 225 -24 216 -100 -1 -6 5 -17 14 -24 12 -10 16 -10 19 1 7 20 26 188 26 227 l0 33 -27 -19 c-45 -32 -126 -44 -278 -40 l-140 3 -5 255 c-3 140 -3 261 -1 268 5 19 268 16 336 -3 62 -18 76 -32 84 -82 3 -20 12 -38 18 -40 20 -7 30 33 36 140 6 108 5 109 -68 86z" fill="#4b6267" id="4b6267-000030"/>
    <path stroke="none" d="M2983 2436 c-8 -13 15 -23 67 -30 26 -4 52 -12 58 -19 25 -32 32 -132 32 -495 0 -464 10 -528 101 -662 66 -98 137 -150 258 -189 81 -26 306 -30 385 -6 175 53 305 179 344 335 6 25 16 68 23 95 8 32 14 199 18 470 7 451 7 457 59 470 12 3 27 3 31 0 11 -6 34 21 28 32 -3 5 -95 8 -204 7 -163 -1 -198 -3 -198 -15 0 -10 19 -16 59 -21 33 -4 63 -11 67 -15 20 -20 29 -165 29 -462 0 -496 -17 -588 -129 -713 -74 -82 -160 -118 -286 -118 -172 0 -305 92 -362 250 -36 101 -45 230 -41 620 4 420 3 415 81 439 50 15 62 30 25 32 -133 5 -441 2 -445 -5z" fill="#4b6267" id="4b6267-000026"/>
    <path stroke="none" d="M12193 2437 c-8 -14 14 -24 67 -31 88 -12 85 13 88 -556 3 -506 -4 -682 -29 -735 -12 -25 -21 -30 -57 -33 -33 -2 -42 -7 -42 -21 0 -17 16 -19 223 -25 122 -3 274 -9 337 -12 308 -17 549 80 703 281 54 71 87 135 118 230 21 62 23 89 23 230 0 141 -3 167 -23 220 -56 148 -126 242 -243 323 -42 28 -79 52 -82 52 -4 0 -25 8 -49 19 -45 20 -93 34 -172 53 -61 14 -854 18 -862 5z" fill="#4b6267" id="4b6267-000029"/>
    <path stroke="none" d="M12930 2352 c14 -6 51 -18 82 -27 151 -44 299 -176 366 -325 54 -122 65 -180 60 -327 -9 -257 -101 -414 -297 -509 -97 -47 -181 -64 -306 -63 -193 1 -283 35 -305 118 -7 25 -9 230 -8 587 l3 549 30 7 c42 10 345 2 375 -10z" fill="#ffffff" id="ffffff-000007"/>
    <path stroke="none" d="M16577 2438 c-17 -11 7 -25 56 -33 68 -12 67 -3 67 -644 -1 -675 -2 -680 -87 -681 -26 0 -33 -4 -33 -20 0 -20 5 -20 232 -18 212 3 233 5 236 21 3 14 -4 17 -47 17 -38 0 -56 6 -75 22 -23 21 -26 34 -36 148 -6 71 -9 334 -8 605 3 548 1 529 81 554 41 13 61 29 40 32 -42 6 -416 3 -426 -3z" fill="#4b6267" id="4b6267-000032"/>
  </g>
</svg>
