<svg xmlns="http://www.w3.org/2000/svg" version="1.0" width="4112.000000pt" height="2376.000000pt" viewBox="0 0 4112.000000 2376.000000" preserveAspectRatio="xMidYMid meet">
  <g transform="translate(0.000000,2376.000000) scale(0.100000,-0.100000)" stroke="none">
    <path d="M 0 0 H 41120.0 V 23760.0 H 0 Z" fill="#feffff" id="background"/>
    <path stroke="none" d="M405 23228 c-3 -7 -4 -5154 -3 -11438 l3 -11425 20135 0 20135 0 0 11435 0 11435 -20133 3 c-16101 2 -20134 0 -20137 -10z" fill="#282425" id="282425-000001"/>
    <path stroke="none" d="M40040 11800 l0 -10800 -19500 0 -19500 0 0 10800 0 10800 19500 0 19500 0 0 -10800z" fill="#fefefe" id="fefefe-000002"/>
    <path stroke="none" d="M11375 21044 c-26 -6 -154 -44 -180 -54 -39 -16 -61 -23 -95 -31 -19 -4 -55 -13 -80 -19 -40 -9 -101 -20 -210 -37 -42 -7 -50 -17 -50 -65 0 -44 -1 -44 145 -52 130 -7 141 -17 138 -119 -1 -40 -9 -103 -18 -142 -9 -38 -20 -92 -25 -120 -5 -27 -14 -72 -20 -100 -6 -27 -15 -77 -20 -110 -5 -33 -14 -80 -20 -105 -6 -25 -15 -67 -20 -95 -5 -27 -13 -70 -19 -95 -18 -80 -50 -236 -61 -300 -5 -25 -14 -65 -20 -90 -7 -25 -16 -70 -20 -100 -4 -30 -13 -73 -20 -95 -6 -22 -16 -65 -20 -95 -5 -30 -14 -73 -20 -95 -7 -22 -15 -62 -20 -90 -4 -27 -15 -81 -24 -120 -10 -38 -22 -92 -28 -120 -6 -27 -14 -60 -19 -73 -5 -13 -9 -35 -9 -49 0 -14 -5 -44 -11 -67 -18 -71 -27 -109 -39 -171 -6 -33 -15 -73 -20 -90 -5 -16 -18 -73 -29 -125 -11 -52 -27 -126 -37 -165 -9 -38 -17 -88 -18 -110 -1 -37 1 -40 27 -43 16 -2 59 6 95 18 111 36 127 40 158 40 50 0 51 2 85 175 6 33 15 71 19 85 5 14 11 48 15 75 3 28 12 77 20 110 7 33 19 89 25 125 7 36 16 76 20 90 4 14 14 54 21 89 9 48 26 85 70 151 31 48 64 96 72 106 9 10 45 55 81 100 65 81 241 264 350 362 111 100 300 212 358 212 49 0 63 -32 61 -134 -1 -50 -9 -118 -18 -151 -14 -54 -43 -182 -66 -290 -4 -22 -13 -60 -19 -85 -6 -25 -15 -63 -20 -85 -4 -22 -16 -71 -25 -110 -9 -38 -21 -92 -26 -120 -6 -27 -15 -63 -19 -80 -8 -30 -42 -177 -62 -270 -6 -27 -14 -63 -19 -79 -5 -16 -9 -83 -9 -150 0 -103 3 -126 20 -153 19 -32 21 -33 92 -33 63 0 81 5 157 41 144 70 213 120 364 265 108 105 110 112 58 174 l-27 33 -43 -42 c-24 -23 -58 -52 -75 -65 -47 -35 -145 -86 -165 -86 -28 0 -44 26 -37 57 4 16 11 51 16 78 5 28 14 68 20 90 6 22 15 60 20 85 5 25 14 65 20 90 6 25 15 65 20 90 5 25 14 63 20 85 6 22 16 60 22 85 5 25 14 63 19 85 6 22 14 60 19 85 6 25 15 65 20 90 6 25 15 65 20 90 5 25 14 63 21 85 22 81 49 260 51 340 2 50 -17 146 -34 182 -20 41 -64 61 -137 62 -87 1 -134 -12 -256 -70 -138 -66 -300 -177 -415 -283 -31 -28 -76 -69 -101 -91 -25 -22 -103 -104 -173 -182 -71 -79 -133 -143 -137 -143 -12 0 -11 16 2 65 6 22 14 60 19 85 5 25 13 65 19 90 41 178 53 231 61 275 6 28 14 70 20 95 6 25 15 65 20 90 6 25 14 65 20 90 6 25 15 68 20 95 5 28 15 70 20 95 6 25 15 65 20 90 6 25 14 63 19 85 24 107 44 198 61 285 5 25 14 65 20 90 6 25 17 77 25 115 7 39 18 84 24 100 5 17 12 56 15 87 5 44 2 60 -10 72 -15 16 -22 17 -59 10z" fill="#282425" id="282425-000002"/>
    <path stroke="none" d="M10055 20485 c-22 -20 -83 -70 -135 -113 -128 -103 -160 -136 -160 -166 0 -14 -4 -35 -9 -48 -11 -29 -42 -149 -68 -268 -11 -47 -18 -50 -147 -50 -120 0 -123 0 -148 -27 -46 -49 -89 -126 -77 -137 6 -7 62 -10 152 -8 78 1 148 -2 155 -6 11 -7 11 -20 2 -68 -7 -32 -16 -80 -20 -105 -5 -26 -14 -64 -20 -85 -7 -22 -16 -61 -20 -89 -5 -27 -14 -70 -20 -95 -6 -25 -15 -67 -20 -95 -6 -27 -14 -70 -20 -95 -6 -25 -15 -65 -20 -90 -6 -25 -15 -65 -21 -90 -6 -25 -14 -67 -19 -95 -5 -27 -14 -70 -20 -95 -6 -25 -13 -58 -16 -75 -3 -16 -14 -66 -24 -110 -38 -162 -50 -377 -26 -468 7 -27 25 -61 40 -78 26 -27 33 -29 101 -29 93 0 166 28 295 114 135 89 330 260 358 313 19 34 14 68 -13 93 -28 26 -15 32 -126 -60 -36 -30 -84 -64 -105 -76 -22 -12 -64 -35 -96 -53 -61 -34 -99 -39 -118 -16 -14 17 -8 207 9 275 7 25 16 65 21 90 6 25 15 65 21 90 5 25 14 68 19 95 6 28 15 70 20 95 6 25 15 68 20 95 5 28 14 68 20 90 7 22 16 63 21 90 5 28 13 70 19 95 6 25 17 81 26 125 8 44 18 91 23 105 5 14 15 59 22 99 15 88 34 112 87 111 20 0 110 3 200 6 l163 6 27 35 c15 20 40 51 55 69 16 18 26 38 22 44 -4 6 -92 10 -246 10 l-239 0 0 28 c0 15 7 50 16 77 9 28 20 70 24 95 4 25 14 70 22 100 8 30 21 82 28 115 6 33 16 71 20 85 50 159 28 218 -55 145z" fill="#282425" id="282425-000003"/>
    <path stroke="none" d="M13700 19888 c-229 -69 -426 -183 -575 -333 -74 -74 -155 -180 -203 -266 -11 -20 -25 -45 -31 -55 -24 -43 -72 -158 -92 -221 -11 -38 -24 -77 -29 -88 -5 -11 -11 -40 -14 -65 -3 -25 -11 -72 -18 -105 -15 -76 -16 -352 -1 -425 24 -113 31 -136 57 -190 50 -104 142 -185 257 -224 53 -19 251 -22 331 -5 137 28 328 117 451 211 78 59 263 228 280 255 7 12 -45 103 -59 103 -10 0 -68 -43 -89 -66 -47 -52 -234 -176 -305 -203 -19 -7 -44 -17 -55 -21 -68 -27 -92 -31 -181 -33 -88 -1 -104 2 -150 25 -90 47 -154 140 -183 268 -8 34 -11 108 -9 195 l3 139 40 9 c81 16 395 117 462 148 24 10 45 19 48 19 3 0 27 10 53 21 244 109 434 258 495 387 27 59 37 89 54 175 5 27 -4 68 -31 144 -21 59 -101 140 -174 175 -63 31 -74 33 -182 35 -63 1 -131 -3 -150 -9z" fill="#282425" id="282425-000004"/>
    <path stroke="none" d="M13786 19699 c156 -74 154 -319 -5 -468 -36 -33 -174 -131 -186 -131 -4 0 -34 -13 -68 -29 -110 -51 -130 -59 -240 -96 -59 -19 -125 -37 -145 -38 -42 -2 -41 -6 -22 96 34 184 142 407 262 537 29 32 125 103 158 117 14 6 36 15 50 21 45 19 146 14 196 -9z" fill="#fefefe" id="fefefe-000003"/>
    <path stroke="none" d="M20515 18580 c-27 -10 -59 -19 -70 -19 -11 -1 -47 -10 -79 -21 -33 -11 -74 -20 -92 -20 -18 0 -35 -4 -38 -9 -3 -4 -20 -11 -38 -14 -82 -15 -146 -28 -188 -38 -25 -6 -67 -14 -95 -18 -49 -8 -175 -32 -265 -51 -25 -5 -81 -14 -125 -20 -44 -6 -116 -18 -160 -27 -44 -8 -114 -19 -155 -24 -103 -11 -223 -28 -226 -32 -6 -6 -7 -39 -6 -144 2 -116 -6 -106 107 -124 39 -6 93 -14 120 -19 114 -18 217 -79 246 -145 11 -24 27 -81 36 -127 16 -76 17 -252 20 -2093 3 -1935 -2 -2431 -27 -2559 -19 -100 -58 -169 -119 -209 -73 -48 -218 -91 -351 -105 l-65 -7 -3 -142 c-1 -79 1 -143 5 -143 5 0 512 -1 1128 -1 l1120 -2 3 133 c2 89 -1 137 -9 146 -7 9 -32 14 -68 14 -31 0 -92 7 -136 16 -44 9 -91 18 -105 21 -39 8 -123 48 -156 76 -37 31 -84 125 -84 167 0 17 -4 40 -10 50 -6 12 -10 980 -10 2751 -1 1954 -4 2737 -12 2746 -13 16 -30 15 -93 -7z" fill="#282425" id="282425-000005"/>
    <path stroke="none" d="M7760 18190 c-8 -4 -35 -14 -60 -21 -135 -38 -260 -136 -335 -264 -65 -112 -84 -182 -85 -310 0 -125 21 -208 79 -308 81 -141 264 -271 417 -298 207 -36 430 34 574 181 171 174 218 474 108 688 -85 163 -202 268 -353 313 -22 6 -50 15 -63 20 -29 11 -262 11 -282 -1z" fill="#282425" id="282425-000006"/>
    <path stroke="none" d="M17370 18190 c-8 -5 -25 -10 -37 -10 -29 0 -145 -53 -197 -90 -115 -81 -182 -171 -231 -307 -21 -58 -25 -85 -25 -183 1 -105 15 -198 33 -216 4 -4 7 -13 7 -19 0 -26 72 -133 127 -188 192 -195 414 -245 678 -155 160 55 330 241 365 398 7 30 16 65 21 78 12 30 12 147 0 186 -5 17 -15 55 -22 85 -17 78 -81 191 -144 256 -39 40 -180 129 -216 138 -13 3 -50 12 -82 21 -65 18 -252 22 -277 6z" fill="#282425" id="282425-000007"/>
    <path stroke="none" d="M24665 18190 c-11 -5 -31 -9 -44 -9 -14 -1 -62 -20 -109 -42 -149 -74 -282 -230 -318 -374 -13 -56 -16 -278 -4 -320 61 -203 166 -329 346 -411 277 -127 634 -17 786 243 65 110 78 163 78 313 0 120 -5 156 -30 225 -46 124 -161 255 -274 309 -132 64 -181 76 -302 75 -60 0 -118 -4 -129 -9z" fill="#282425" id="282425-000008"/>
    <path stroke="none" d="M15525 17726 c-82 -30 -191 -116 -252 -199 -73 -100 -139 -257 -158 -382 -4 -22 -12 -58 -19 -80 -7 -22 -19 -65 -25 -95 -7 -30 -17 -68 -22 -85 -15 -52 -41 -158 -49 -205 -5 -25 -15 -65 -24 -90 -9 -25 -16 -54 -16 -66 0 -11 -8 -47 -18 -80 -11 -32 -24 -84 -31 -114 -7 -30 -17 -68 -21 -85 -5 -16 -18 -75 -31 -130 -12 -55 -30 -129 -39 -165 -10 -36 -23 -90 -30 -120 -6 -30 -16 -68 -21 -85 -13 -46 -40 -155 -50 -205 -5 -25 -13 -63 -18 -85 -6 -22 -15 -62 -21 -90 -7 -27 -16 -68 -21 -90 -6 -22 -14 -60 -19 -85 -6 -25 -15 -65 -21 -90 -5 -25 -14 -67 -19 -95 -6 -27 -14 -70 -20 -95 -6 -25 -15 -72 -20 -105 -5 -33 -14 -80 -20 -105 -6 -25 -15 -74 -20 -110 -5 -36 -14 -92 -20 -125 -6 -33 -15 -91 -20 -130 -5 -38 -14 -99 -20 -135 -6 -36 -15 -96 -20 -135 -5 -38 -14 -97 -19 -130 -6 -33 -16 -97 -21 -142 -5 -46 -14 -109 -20 -140 -6 -32 -15 -94 -20 -138 -5 -44 -14 -100 -20 -125 -6 -25 -15 -83 -21 -129 -6 -47 -17 -103 -25 -125 -7 -23 -14 -53 -14 -67 0 -27 -2 -35 -41 -157 -29 -93 -98 -171 -162 -183 -211 -41 -510 58 -650 214 -46 51 -103 129 -127 172 -94 168 -407 781 -513 1005 -30 63 -84 177 -121 252 -36 75 -66 139 -66 142 0 2 -24 55 -54 118 -30 62 -68 147 -86 188 -18 41 -47 107 -66 147 -19 40 -34 77 -34 83 0 6 -4 18 -10 28 -14 25 -130 302 -130 311 0 5 -9 30 -19 57 -10 27 -33 96 -51 154 -17 58 -35 116 -40 130 -4 14 -12 43 -18 65 -6 22 -20 74 -32 115 -11 41 -25 91 -30 110 -6 19 -23 77 -40 129 -16 51 -30 100 -30 107 0 8 -4 22 -9 32 -11 22 -26 59 -41 102 -7 19 -21 54 -31 77 -11 24 -19 47 -19 51 0 5 -13 36 -30 70 -16 34 -30 65 -30 68 0 3 -23 40 -52 82 -55 82 -158 189 -201 210 -92 43 -132 52 -225 52 -98 0 -179 -24 -252 -74 -47 -32 -150 -135 -150 -149 0 -5 -8 -21 -18 -35 -10 -15 -32 -58 -48 -97 l-28 -70 1 -215 c1 -203 6 -248 33 -345 6 -22 15 -56 19 -75 14 -61 43 -173 61 -240 10 -36 21 -76 23 -90 3 -14 10 -43 16 -65 6 -22 15 -58 20 -80 9 -37 30 -123 51 -205 5 -19 14 -57 20 -85 6 -27 20 -79 30 -115 10 -36 23 -83 28 -105 33 -133 47 -184 78 -290 14 -49 30 -106 34 -125 5 -19 14 -53 20 -75 6 -22 14 -51 16 -65 3 -14 9 -34 14 -45 4 -11 40 -118 79 -238 39 -119 80 -238 92 -265 30 -67 35 -80 57 -142 11 -30 34 -91 52 -135 30 -75 37 -92 59 -147 5 -13 16 -39 24 -58 36 -83 67 -164 67 -175 0 -6 9 -30 20 -53 11 -22 20 -47 20 -55 0 -7 4 -17 9 -22 4 -6 25 -50 46 -100 46 -110 72 -171 91 -209 8 -16 14 -33 14 -38 0 -4 9 -30 21 -56 26 -59 34 -78 49 -122 7 -19 16 -44 20 -55 15 -36 62 -169 70 -200 33 -120 43 -156 57 -200 8 -27 19 -68 23 -90 5 -22 13 -58 20 -80 6 -22 15 -62 19 -90 8 -45 28 -132 51 -225 5 -19 14 -60 21 -90 6 -30 20 -90 30 -133 10 -43 19 -90 19 -105 0 -16 4 -32 8 -38 5 -5 14 -36 21 -69 7 -33 16 -74 22 -91 5 -17 16 -77 25 -135 9 -57 20 -131 26 -164 15 -88 16 -590 0 -710 -50 -396 -52 -1070 -3 -1331 6 -34 16 -101 22 -150 6 -49 15 -118 20 -154 5 -36 13 -112 19 -170 5 -58 14 -148 20 -200 6 -52 15 -142 20 -200 5 -58 14 -143 19 -190 6 -47 15 -125 20 -175 6 -49 15 -112 20 -140 6 -27 13 -70 16 -95 7 -54 16 -86 55 -209 16 -51 30 -101 30 -110 0 -9 4 -21 9 -27 5 -5 37 -92 71 -192 33 -101 74 -213 91 -248 16 -36 29 -69 29 -74 0 -5 9 -25 20 -45 11 -20 20 -42 20 -49 0 -25 50 -63 89 -70 49 -7 4111 -9 4119 -1 3 3 9 29 14 58 20 132 28 175 38 212 6 22 15 56 19 75 5 19 24 82 43 140 20 58 55 166 78 240 24 74 49 155 58 180 22 68 47 160 63 235 6 28 15 68 21 90 16 68 41 224 59 375 5 47 14 301 19 565 8 451 16 584 38 680 6 22 15 63 20 90 6 28 18 72 27 99 18 53 16 201 -3 301 -6 28 -15 77 -21 110 -6 33 -16 85 -22 115 -5 30 -14 80 -19 110 -5 30 -14 80 -20 110 -6 30 -15 82 -20 115 -6 33 -14 83 -20 110 -5 28 -12 75 -16 105 -3 30 -9 66 -14 80 -4 14 -13 52 -20 85 -29 140 -107 261 -235 360 -90 70 -389 270 -449 300 -59 30 -142 110 -177 171 -36 63 -69 149 -69 179 0 27 -38 127 -78 203 -48 92 -168 206 -268 256 -136 67 -133 66 -324 76 -189 10 -253 20 -281 46 -36 32 -40 47 -71 259 -16 104 -15 457 1 560 7 44 16 112 21 150 5 39 14 90 20 115 6 25 16 70 20 100 5 30 14 73 20 95 6 22 14 51 16 65 11 55 26 116 34 135 5 11 11 36 13 55 3 19 10 53 17 75 6 22 16 65 21 95 4 30 13 75 19 100 6 25 15 74 20 109 6 36 15 90 21 120 6 31 15 85 20 121 4 36 13 94 18 130 6 36 15 112 21 170 6 58 15 141 21 185 5 44 14 150 19 235 5 85 14 198 20 250 6 52 15 136 20 185 5 50 14 119 20 155 7 36 16 94 21 130 5 36 13 88 19 115 5 28 14 77 20 110 5 33 14 80 20 105 6 25 15 67 20 95 5 27 16 72 24 100 8 27 19 75 25 105 7 30 16 71 21 90 4 19 13 53 18 75 6 22 15 58 21 80 5 22 13 58 16 80 4 22 11 60 16 85 6 25 14 72 19 105 5 33 14 83 20 110 33 162 49 391 31 451 -40 130 -115 210 -262 282 l-107 52 -143 -1 c-79 -1 -158 -6 -174 -13z" fill="#282425" id="282425-000009"/>
    <path stroke="none" d="M29928 17592 c-36 -26 -102 -71 -145 -101 -43 -30 -103 -72 -133 -94 -30 -21 -127 -87 -215 -147 -88 -60 -191 -131 -230 -158 -38 -26 -91 -63 -118 -81 -26 -18 -52 -42 -58 -53 -8 -14 -10 -111 -7 -315 4 -288 4 -295 -16 -309 -16 -11 -58 -14 -183 -14 l-162 0 -30 -42 c-16 -24 -38 -52 -48 -63 -10 -11 -29 -36 -43 -55 -13 -19 -41 -56 -62 -81 -26 -32 -38 -57 -38 -78 0 -32 24 -90 38 -92 4 0 125 -1 269 -2 144 -1 264 -5 268 -9 3 -3 6 -578 6 -1277 0 -1396 1 -1414 59 -1616 6 -22 14 -52 17 -68 3 -15 9 -30 14 -33 5 -3 9 -11 9 -19 0 -7 23 -51 51 -97 60 -98 192 -237 258 -269 25 -13 57 -31 71 -40 14 -9 54 -26 90 -38 36 -12 74 -26 85 -31 11 -4 52 -13 90 -19 39 -6 86 -13 105 -17 19 -3 81 -8 138 -11 85 -4 118 -1 190 17 104 26 192 55 247 80 22 10 58 26 80 35 48 21 163 75 344 161 73 35 135 64 137 64 19 0 134 63 134 73 0 22 -21 130 -29 152 -18 46 -31 93 -31 113 0 29 -31 36 -76 16 -55 -24 -73 -30 -124 -44 -25 -7 -58 -16 -74 -21 -43 -13 -272 -11 -320 3 -48 14 -135 71 -188 123 -55 54 -112 180 -141 310 -12 56 -27 2433 -15 2449 3 5 185 10 404 12 438 4 422 2 464 70 36 57 50 134 39 210 -9 64 -29 117 -49 129 -6 3 -198 6 -428 6 -229 -1 -421 2 -427 6 -6 5 -10 228 -10 632 l0 624 -50 28 c-27 16 -59 28 -70 28 -11 0 -50 -21 -87 -47z" fill="#282425" id="282425-000010"/>
    <path stroke="none" d="M5435 16424 c-130 -11 -263 -27 -285 -34 -14 -4 -52 -13 -85 -20 -33 -7 -71 -16 -85 -20 -14 -4 -45 -13 -70 -20 -25 -7 -54 -16 -65 -20 -11 -4 -36 -13 -55 -20 -34 -12 -49 -17 -100 -37 -57 -22 -368 -179 -407 -205 -23 -15 -44 -28 -48 -28 -7 0 -125 -79 -141 -94 -6 -6 -40 -31 -75 -56 -87 -61 -382 -358 -447 -450 -116 -164 -205 -322 -262 -465 -44 -109 -64 -166 -71 -200 -4 -22 -13 -58 -19 -80 -27 -94 -53 -308 -53 -450 -1 -147 25 -365 57 -480 65 -233 145 -410 274 -601 63 -94 110 -149 224 -260 123 -120 250 -224 273 -224 4 0 26 -13 50 -30 37 -26 221 -117 280 -140 24 -9 118 -39 163 -51 17 -5 49 -14 70 -20 143 -41 520 -70 647 -49 191 31 363 88 525 173 66 35 276 170 290 186 3 3 43 38 90 78 168 141 440 448 440 496 0 27 -18 55 -82 125 -26 30 -48 57 -48 62 0 22 -35 18 -65 -7 -119 -99 -360 -243 -407 -243 -8 0 -18 -4 -23 -9 -6 -4 -32 -14 -60 -20 -27 -7 -59 -17 -70 -21 -73 -30 -369 -39 -475 -14 -36 8 -81 19 -100 23 -83 18 -288 129 -404 217 -97 75 -267 263 -316 349 -124 217 -198 438 -227 675 -20 167 -4 601 27 745 6 28 15 68 19 90 8 39 31 108 68 210 61 168 220 354 356 419 42 20 100 41 128 47 72 16 262 7 324 -15 146 -51 305 -136 425 -226 19 -15 60 -45 91 -68 31 -23 90 -72 130 -108 85 -76 160 -114 224 -114 104 0 237 103 309 240 54 102 66 146 66 243 0 81 -3 96 -34 160 -20 42 -53 90 -78 114 -45 43 -157 115 -218 140 -19 8 -48 21 -65 27 -51 22 -109 37 -240 64 -52 11 -301 22 -370 16z" fill="#282425" id="282425-000011"/>
    <path stroke="none" d="M18065 16419 c-16 -4 -46 -12 -65 -18 -144 -41 -266 -71 -310 -77 -19 -3 -44 -9 -55 -14 -11 -4 -47 -13 -80 -20 -62 -12 -113 -23 -187 -40 -24 -5 -56 -11 -73 -14 -16 -3 -55 -10 -85 -16 -30 -6 -82 -15 -115 -20 -33 -5 -85 -14 -115 -19 -30 -6 -93 -15 -140 -22 -47 -6 -112 -15 -145 -20 -33 -5 -86 -12 -118 -15 l-58 -6 3 -126 3 -126 35 -9 c19 -5 60 -12 90 -17 180 -27 278 -98 322 -234 l23 -71 0 -1225 c0 -1185 -1 -1227 -19 -1285 -37 -114 -71 -158 -156 -197 -73 -34 -225 -68 -306 -68 -27 0 -55 -5 -62 -12 -14 -14 -17 -264 -3 -272 5 -3 508 -6 1117 -7 l1109 -1 5 132 c3 72 1 138 -3 146 -5 8 -24 14 -50 14 -38 1 -117 14 -222 38 -55 12 -128 45 -170 77 -40 31 -85 116 -99 189 -6 31 -11 694 -13 1702 -2 1304 -6 1653 -16 1656 -6 3 -25 1 -42 -3z" fill="#282425" id="282425-000013"/>
    <path stroke="none" d="M8405 16403 c-27 -8 -81 -23 -120 -33 -38 -10 -96 -26 -128 -34 -32 -9 -71 -16 -87 -16 -16 0 -31 -4 -34 -9 -3 -5 -23 -11 -43 -14 -38 -6 -82 -15 -183 -37 -30 -7 -75 -16 -100 -21 -25 -4 -70 -13 -100 -19 -30 -6 -82 -15 -115 -20 -33 -5 -87 -14 -120 -20 -33 -5 -91 -14 -130 -20 -38 -5 -101 -14 -140 -20 -38 -6 -96 -13 -128 -16 l-58 -6 3 -126 3 -126 35 -9 c19 -5 60 -12 90 -17 54 -8 112 -25 182 -55 45 -18 88 -61 112 -111 10 -22 22 -46 26 -54 29 -59 31 -172 28 -1350 -3 -1296 0 -1208 -53 -1325 -19 -42 -83 -101 -130 -121 -75 -32 -227 -64 -301 -64 -27 0 -55 -5 -62 -12 -14 -14 -17 -264 -3 -272 5 -3 508 -6 1117 -7 l1109 -1 0 143 0 144 -102 12 c-57 6 -117 16 -135 22 -18 5 -53 15 -78 22 -125 35 -188 109 -223 259 -7 30 -13 602 -16 1695 l-6 1650 -30 1 c-16 1 -52 -5 -80 -13z" fill="#282425" id="282425-000012"/>
    <path stroke="none" d="M25347 16414 c-3 -4 -24 -10 -47 -15 -22 -5 -58 -13 -80 -19 -22 -5 -59 -15 -82 -20 -24 -6 -61 -15 -83 -21 -22 -6 -58 -14 -80 -19 -22 -5 -58 -14 -80 -20 -22 -7 -65 -15 -95 -19 -30 -5 -62 -11 -71 -15 -9 -4 -54 -13 -100 -21 -46 -8 -104 -19 -129 -25 -25 -6 -76 -15 -115 -20 -38 -4 -90 -13 -115 -19 -25 -6 -81 -16 -125 -21 -44 -6 -107 -14 -140 -19 -33 -5 -85 -12 -115 -16 -30 -5 -58 -13 -62 -19 -9 -13 -10 -198 -2 -221 9 -23 57 -45 98 -45 33 0 115 -18 161 -36 11 -4 43 -23 72 -41 99 -65 121 -130 144 -423 14 -172 5 -2136 -9 -2195 -6 -22 -15 -68 -22 -103 -11 -65 -37 -120 -72 -158 -21 -24 -129 -79 -168 -88 -14 -2 -43 -9 -65 -15 -22 -6 -77 -13 -123 -17 -45 -4 -85 -11 -89 -17 -4 -6 -8 -66 -10 -133 -2 -95 0 -124 11 -133 10 -9 295 -12 1111 -11 603 0 1101 2 1106 6 12 7 10 241 -2 265 -6 11 -28 18 -71 23 -35 3 -84 10 -110 16 -27 5 -67 14 -90 18 -65 12 -155 61 -188 100 -106 128 -109 184 -109 2055 l-1 1467 -23 0 c-13 0 -26 -3 -30 -6z" fill="#282425" id="282425-000014"/>
    <path stroke="none" d="M32577 16322 l-1058 -2 3 -138 3 -137 40 -7 c99 -16 124 -21 180 -40 141 -46 210 -92 289 -190 53 -65 155 -267 213 -423 8 -22 26 -64 40 -94 13 -30 31 -75 40 -100 8 -25 25 -68 38 -96 12 -27 30 -72 39 -100 19 -55 25 -69 54 -135 10 -25 29 -74 41 -110 13 -36 31 -83 41 -105 10 -22 25 -62 34 -90 10 -27 28 -75 41 -105 13 -30 33 -82 45 -115 12 -33 26 -69 30 -80 4 -11 13 -36 20 -55 7 -19 25 -66 40 -105 28 -69 75 -194 110 -290 10 -27 36 -97 59 -155 23 -58 41 -112 41 -121 0 -8 4 -19 9 -25 8 -9 58 -139 68 -179 3 -11 14 -39 24 -62 10 -24 19 -47 19 -53 0 -6 5 -18 10 -28 6 -9 21 -48 34 -87 39 -114 109 -308 126 -350 14 -34 62 -169 67 -190 2 -11 8 -29 12 -40 30 -75 38 -163 21 -230 -24 -94 -36 -126 -88 -235 -30 -63 -58 -124 -63 -135 -59 -136 -240 -347 -405 -472 -81 -62 -238 -158 -329 -203 -29 -14 -85 -60 -135 -110 -68 -67 -88 -95 -98 -131 -14 -50 -12 -191 4 -244 42 -141 249 -332 409 -379 106 -31 134 -36 193 -36 96 0 158 19 208 63 62 54 96 129 165 357 6 19 14 44 19 55 5 11 23 65 41 120 17 55 35 109 40 120 4 11 19 54 33 95 30 92 74 218 86 245 4 11 13 36 20 55 7 19 16 44 20 55 5 11 19 49 31 85 12 36 30 83 39 105 10 22 23 56 30 75 14 41 24 66 38 100 5 14 33 86 62 160 28 74 61 158 72 185 11 28 24 59 28 70 8 23 65 161 91 220 9 22 27 67 39 100 12 33 29 76 37 95 32 74 41 96 58 140 20 53 43 108 56 132 5 10 9 23 9 28 0 10 47 117 71 162 5 10 9 22 9 28 0 5 12 35 26 67 36 81 49 111 69 163 9 25 23 60 31 78 8 17 20 47 28 65 7 17 20 48 29 67 8 19 20 51 28 70 7 19 23 58 35 85 12 28 37 86 54 130 17 44 42 103 54 130 12 28 28 66 35 85 7 19 26 63 42 98 16 35 29 69 29 77 0 8 5 17 10 20 6 3 10 13 10 20 0 8 14 44 30 80 17 36 30 68 30 70 0 5 23 59 71 163 16 35 29 67 29 72 0 8 49 121 71 162 5 10 9 22 9 28 0 6 18 48 40 95 22 47 40 87 40 89 0 5 29 71 77 176 62 134 188 388 221 444 65 112 203 224 327 266 55 19 96 30 163 41 l72 13 2 116 c1 118 0 151 -6 157 -5 5 -1548 4 -1554 -1 -3 -4 -6 -221 -3 -263 1 -7 11 -13 24 -13 28 -1 114 -23 123 -33 4 -4 18 -7 32 -7 29 0 184 -74 205 -98 41 -46 57 -93 57 -163 0 -67 -10 -112 -57 -249 -8 -25 -19 -58 -23 -75 -4 -16 -16 -52 -25 -80 -42 -119 -53 -153 -66 -195 -7 -25 -16 -49 -21 -54 -4 -6 -8 -17 -8 -27 0 -9 -8 -38 -19 -65 -27 -73 -52 -145 -61 -179 -8 -31 -55 -165 -70 -200 -5 -11 -10 -29 -13 -40 -7 -28 -41 -124 -66 -187 -5 -13 -18 -48 -29 -78 -11 -30 -28 -75 -37 -100 -9 -25 -26 -71 -36 -103 -10 -32 -26 -74 -35 -95 -22 -50 -26 -62 -70 -174 -20 -54 -43 -98 -49 -98 -7 0 -18 19 -25 43 -37 117 -132 404 -140 422 -5 11 -14 38 -21 60 -6 22 -15 49 -20 60 -4 11 -13 38 -20 60 -6 22 -15 49 -20 60 -4 11 -14 40 -20 65 -7 25 -15 50 -19 55 -3 6 -12 30 -19 55 -7 25 -17 54 -22 65 -12 29 -89 259 -166 490 -36 110 -69 209 -73 220 -22 53 -109 327 -120 377 -11 46 -11 63 0 90 17 42 57 86 95 103 49 23 177 62 225 70 25 4 50 11 57 17 12 10 17 236 5 255 -4 5 -18 12 -32 14 -14 2 -501 3 -1083 1z" fill="#282425" id="282425-000015"/>
    <path stroke="none" d="M10115 15166 c-62 -17 -126 -42 -185 -75 -56 -31 -178 -154 -206 -207 -11 -21 -25 -48 -31 -59 -15 -29 -30 -64 -45 -110 -18 -55 -18 -389 0 -407 6 -6 12 -18 12 -26 0 -24 69 -163 97 -196 16 -18 37 -44 48 -57 21 -26 116 -99 150 -117 11 -5 61 -24 111 -41 83 -28 103 -31 212 -31 67 0 131 4 144 9 13 5 43 15 68 22 83 23 191 84 255 144 32 30 98 129 123 186 96 217 91 427 -16 649 -48 99 -204 243 -302 279 -19 7 -44 17 -55 21 -59 25 -305 35 -380 16z" fill="#282425" id="282425-000016"/>
    <path stroke="none" d="M22205 15164 c-102 -28 -196 -83 -278 -163 -43 -42 -84 -87 -91 -101 -55 -106 -75 -153 -85 -205 -7 -33 -17 -79 -23 -101 -10 -43 -6 -124 10 -209 6 -27 14 -68 18 -90 14 -77 82 -193 158 -269 39 -40 85 -79 101 -87 17 -9 46 -25 65 -35 19 -11 55 -26 80 -33 25 -7 57 -18 71 -23 41 -15 275 -5 342 15 115 34 187 77 273 162 98 98 145 186 180 340 12 54 16 218 5 260 -5 22 -15 63 -22 90 -20 84 -88 204 -157 277 -51 54 -82 76 -151 109 -47 23 -95 45 -106 49 -83 31 -299 39 -390 14z" fill="#282425" id="282425-000017"/>
    <path stroke="none" d="M27007 15165 c-209 -47 -398 -227 -456 -435 -7 -25 -17 -55 -22 -68 -5 -13 -9 -81 -9 -152 0 -71 4 -139 9 -152 5 -13 14 -43 21 -68 55 -198 222 -369 420 -428 108 -32 314 -27 425 10 140 47 295 174 346 284 68 146 79 197 79 361 0 154 -10 202 -64 313 -64 129 -148 214 -274 277 -52 25 -115 51 -141 55 -79 16 -271 17 -334 3z" fill="#282425" id="282425-000018"/>
    <path stroke="none" d="M28633 11686 c-85 -31 -179 -128 -203 -211 -7 -22 -16 -50 -21 -63 -13 -32 -11 -73 5 -135 40 -155 115 -232 278 -288 31 -10 50 -10 105 1 90 17 118 30 182 81 43 34 61 59 88 116 30 65 33 80 32 160 0 137 -41 221 -144 299 -22 17 -56 36 -76 42 -44 15 -203 14 -246 -2z" fill="#282425" id="282425-000019"/>
    <path stroke="none" d="M36493 11044 c-143 -146 -216 -227 -223 -250 -8 -22 -11 -113 -9 -261 l3 -228 -155 -5 c-165 -5 -200 -15 -231 -62 -9 -13 -39 -48 -67 -78 -40 -42 -51 -61 -51 -86 0 -18 5 -36 12 -40 7 -4 118 -8 247 -9 l236 -1 6 -1109 c6 -1067 9 -1168 37 -1265 24 -82 33 -105 68 -176 67 -136 226 -260 381 -296 73 -17 231 -21 283 -8 80 22 154 49 215 81 33 17 148 76 255 132 107 55 199 103 203 107 9 8 -23 122 -44 161 -13 25 -37 21 -118 -18 -29 -14 -67 -29 -85 -34 -17 -4 -58 -15 -91 -23 -71 -18 -202 -21 -242 -5 -119 48 -175 96 -218 187 -15 31 -31 64 -35 72 -4 8 -13 40 -19 70 -7 30 -17 71 -22 91 -5 21 -9 464 -9 1031 l0 996 23 6 c12 3 182 6 377 6 195 0 360 4 365 8 25 18 55 96 55 143 0 73 -20 105 -71 113 -23 4 -199 6 -391 6 -193 -1 -352 0 -354 3 -3 2 -5 211 -5 463 -1 516 2 494 -73 494 -40 0 -46 -5 -253 -216z" fill="#282425" id="282425-000020"/>
    <path stroke="none" d="M19335 10418 c-27 -11 -59 -24 -70 -28 -11 -5 -38 -14 -60 -21 -44 -13 -67 -21 -105 -37 -41 -16 -190 -63 -265 -82 -38 -10 -86 -24 -105 -30 -19 -6 -57 -15 -85 -20 -27 -5 -68 -14 -90 -20 -22 -7 -61 -14 -87 -17 -26 -3 -48 -10 -51 -16 -2 -7 -2 -46 1 -87 l4 -76 39 -12 c21 -7 57 -12 80 -12 99 0 240 -59 277 -115 12 -19 22 -43 22 -52 0 -10 8 -38 18 -63 16 -42 17 -159 20 -1720 4 -1714 0 -1915 -34 -2020 -44 -132 -122 -185 -314 -211 -36 -5 -87 -13 -115 -17 l-50 -7 0 -95 0 -95 819 -3 c649 -2 821 0 828 10 10 16 10 159 0 174 -4 6 -29 14 -57 17 -58 7 -168 23 -240 36 -65 10 -138 41 -179 73 -43 34 -93 139 -102 213 -4 33 -8 312 -8 620 l-1 560 29 -3 c16 -2 47 -11 70 -21 41 -19 100 -36 146 -45 14 -2 52 -11 85 -21 73 -20 179 -16 280 10 280 72 548 189 755 327 186 125 254 184 404 350 184 204 334 485 394 738 6 25 14 56 17 70 30 122 46 497 25 605 -24 126 -33 163 -62 255 -63 202 -172 374 -342 537 -111 107 -122 115 -259 182 -78 38 -171 77 -207 86 -210 54 -418 59 -530 13 -14 -6 -34 -14 -45 -18 -60 -22 -136 -59 -185 -91 -30 -19 -86 -52 -125 -73 -38 -21 -103 -59 -144 -83 -41 -25 -88 -53 -105 -63 -17 -10 -62 -36 -99 -59 -38 -23 -76 -41 -85 -39 -15 3 -17 28 -18 258 -1 291 4 276 -89 238z" fill="#282425" id="282425-000021"/>
    <path stroke="none" d="M20330 9935 c171 -54 292 -121 396 -222 60 -58 162 -206 203 -295 41 -90 61 -150 92 -273 42 -165 41 -564 0 -732 -25 -100 -30 -120 -39 -153 -5 -19 -19 -62 -32 -95 -12 -33 -24 -69 -28 -80 -7 -25 -99 -182 -132 -227 -56 -76 -189 -193 -284 -250 -27 -16 -107 -48 -120 -48 -8 0 -17 -4 -20 -9 -11 -18 -167 -43 -271 -44 -158 -2 -289 30 -440 106 -79 40 -162 97 -203 139 l-32 34 2 939 3 939 48 36 c59 45 110 74 257 146 141 70 160 77 275 104 62 14 261 5 325 -15z" fill="#fefefe" id="fefefe-000006"/>
    <path stroke="none" d="M22995 10365 c-33 -14 -69 -29 -80 -35 -24 -11 -300 -102 -365 -119 -82 -23 -186 -47 -235 -55 -16 -3 -50 -10 -75 -16 -25 -6 -64 -13 -88 -17 -46 -6 -51 -14 -51 -83 0 -66 6 -77 46 -85 298 -56 340 -89 380 -290 13 -65 9 -1858 -4 -1940 -21 -125 -46 -174 -116 -220 -47 -30 -181 -64 -258 -65 -78 0 -87 -10 -89 -100 -1 -41 -2 -81 -1 -87 1 -10 168 -13 801 -13 l800 0 0 88 c0 85 -1 89 -25 100 -14 7 -54 12 -88 12 -132 0 -288 38 -354 87 -19 13 -45 50 -62 86 -45 95 -51 211 -51 950 0 627 1 645 21 708 12 35 24 69 29 74 4 6 27 48 50 95 24 47 61 110 84 140 64 88 176 192 242 228 56 29 70 32 148 32 103 0 150 -19 249 -104 83 -70 121 -84 179 -66 94 31 141 66 197 150 46 68 61 103 61 138 0 16 5 33 12 40 16 16 -4 103 -43 186 -36 75 -160 159 -276 187 -66 16 -204 0 -283 -32 -90 -37 -209 -126 -308 -229 -49 -51 -175 -213 -218 -280 -16 -25 -31 -47 -35 -50 -3 -3 -25 -33 -48 -68 -23 -34 -46 -60 -52 -57 -5 4 -9 152 -9 371 0 285 -3 364 -12 364 -7 -1 -40 -12 -73 -25z" fill="#282425" id="282425-000022"/>
    <path stroke="none" d="M29010 10373 c-19 -9 -44 -19 -55 -24 -39 -16 -301 -102 -335 -110 -19 -4 -55 -13 -80 -19 -25 -6 -65 -15 -90 -20 -25 -4 -71 -15 -103 -24 -32 -9 -71 -16 -86 -16 -15 0 -41 -4 -57 -9 -16 -5 -54 -14 -85 -21 l-57 -13 -4 -66 c-3 -36 -3 -71 -1 -77 4 -12 105 -37 204 -51 20 -3 69 -21 109 -41 64 -32 77 -43 100 -87 53 -100 52 -66 47 -1390 -5 -1205 -8 -1390 -27 -1449 -6 -16 -10 -61 -10 -100 0 -39 -7 -109 -16 -156 -8 -47 -19 -107 -24 -135 -15 -91 -70 -251 -102 -297 -10 -14 -18 -29 -18 -32 0 -18 -71 -99 -117 -132 -65 -48 -193 -115 -253 -133 -25 -7 -54 -17 -65 -21 -11 -4 -40 -13 -65 -20 -94 -26 -115 -36 -147 -68 -31 -31 -33 -37 -33 -102 0 -111 52 -206 148 -272 39 -27 53 -31 106 -30 79 1 121 19 190 83 58 53 225 246 284 328 175 245 257 382 368 611 36 74 74 152 85 173 10 22 19 43 19 48 0 5 9 28 19 52 42 90 129 380 157 517 47 236 55 494 60 1889 4 1214 4 1233 -26 1230 -3 0 -21 -7 -40 -16z" fill="#282425" id="282425-000024"/>
    <path stroke="none" d="M25965 10370 c-16 -4 -47 -8 -68 -9 -36 -1 -80 -13 -237 -62 -92 -29 -259 -111 -349 -171 -85 -57 -229 -175 -279 -228 -194 -209 -351 -514 -402 -785 -6 -33 -15 -73 -20 -90 -5 -16 -12 -113 -15 -215 -6 -182 3 -332 25 -420 6 -25 15 -63 19 -85 25 -125 124 -348 215 -485 27 -41 52 -77 55 -80 3 -3 24 -27 45 -54 126 -156 288 -283 487 -379 84 -41 243 -96 309 -107 195 -33 259 -40 386 -40 79 0 145 4 148 9 3 5 29 11 58 15 164 18 344 78 477 158 34 21 65 38 68 38 17 0 191 132 253 193 162 157 279 331 371 552 95 229 144 622 111 880 -6 44 -14 103 -17 130 -4 28 -10 61 -15 75 -4 14 -13 45 -20 70 -40 146 -115 308 -202 439 -28 42 -54 78 -57 81 -3 3 -26 30 -51 60 -53 65 -150 158 -217 208 -27 20 -65 49 -86 65 -77 58 -283 152 -412 187 -16 5 -55 15 -86 24 -87 23 -429 41 -494 26z" fill="#282425" id="282425-000023"/>
    <path stroke="none" d="M26230 10125 c180 -47 355 -176 469 -345 85 -126 199 -401 221 -535 5 -27 14 -70 20 -95 28 -117 50 -466 39 -625 -17 -262 -35 -383 -79 -522 -11 -34 -20 -67 -20 -73 0 -6 -18 -49 -40 -97 -41 -87 -103 -182 -156 -239 -69 -73 -191 -146 -301 -179 -54 -17 -307 -21 -345 -6 -13 5 -43 15 -68 22 -72 22 -130 53 -217 117 -72 54 -110 93 -205 213 -35 44 -160 291 -177 349 -7 25 -17 54 -21 65 -8 19 -16 44 -39 128 -5 17 -14 64 -21 102 -6 39 -15 90 -20 115 -31 151 -42 536 -19 664 34 195 64 319 99 401 48 116 105 216 158 278 20 24 46 55 57 68 50 62 220 169 304 191 113 31 250 32 361 3z" fill="#fefefe" id="fefefe-000004"/>
    <path stroke="none" d="M31230 10370 c-14 -4 -40 -8 -59 -9 -19 -1 -48 -5 -65 -11 -17 -5 -60 -19 -96 -31 -139 -44 -351 -162 -475 -263 -87 -71 -234 -228 -287 -306 -28 -41 -59 -84 -69 -95 -34 -39 -149 -266 -179 -355 -12 -36 -25 -74 -30 -85 -5 -11 -11 -33 -15 -50 -3 -16 -10 -48 -16 -70 -69 -274 -68 -643 2 -890 11 -38 25 -86 30 -105 6 -19 15 -46 21 -60 6 -14 15 -36 21 -50 5 -14 13 -33 18 -42 5 -10 9 -22 9 -27 0 -5 18 -39 40 -75 22 -36 40 -68 40 -72 0 -3 26 -41 57 -83 84 -112 248 -269 334 -321 93 -56 239 -129 259 -130 8 0 38 -8 65 -18 28 -10 77 -23 110 -30 33 -6 76 -14 95 -18 55 -11 320 -8 375 4 258 56 550 221 765 433 124 122 200 210 200 229 0 17 -93 140 -106 140 -6 0 -18 -7 -25 -16 -7 -9 -47 -41 -89 -72 -41 -31 -80 -62 -87 -68 -11 -11 -226 -118 -268 -134 -82 -31 -151 -41 -310 -47 -111 -3 -153 -1 -200 12 -33 10 -71 19 -85 22 -54 11 -229 103 -305 161 -78 59 -110 91 -197 202 -41 53 -56 78 -118 200 -34 66 -83 212 -99 295 -7 33 -16 76 -21 95 -16 62 -24 143 -24 245 l-1 100 95 7 c52 4 221 12 375 18 154 5 341 14 415 20 74 6 209 15 300 20 91 6 206 14 255 19 50 5 142 12 205 16 145 9 256 37 285 71 72 84 54 363 -39 579 -65 153 -216 343 -360 454 -110 85 -283 159 -436 187 -81 15 -269 17 -310 4z" fill="#282425" id="282425-000025"/>
    <path stroke="none" d="M31316 10111 c16 -5 49 -15 74 -22 68 -20 176 -84 226 -134 37 -37 94 -116 118 -164 72 -141 106 -351 72 -433 -17 -39 -30 -51 -66 -63 -29 -10 -413 -23 -906 -31 l-342 -5 -6 26 c-11 43 48 232 119 380 108 226 298 400 485 445 48 11 190 12 226 1z" fill="#fefefe" id="fefefe-000005"/>
    <path stroke="none" d="M34475 10364 c-49 -7 -110 -17 -135 -23 -25 -7 -62 -14 -83 -18 -21 -3 -40 -10 -43 -14 -3 -5 -13 -9 -23 -9 -10 0 -43 -9 -72 -21 -30 -12 -63 -24 -74 -29 -100 -37 -398 -205 -425 -240 -3 -3 -27 -23 -55 -44 -167 -126 -341 -322 -449 -506 -62 -105 -137 -279 -157 -362 -5 -21 -14 -57 -20 -80 -52 -210 -49 -614 5 -798 43 -146 64 -203 109 -294 77 -157 144 -250 281 -387 95 -94 160 -146 241 -190 33 -17 72 -40 87 -51 14 -10 31 -18 37 -18 6 0 19 -4 29 -10 36 -20 181 -64 277 -83 124 -24 349 -33 425 -17 133 28 156 34 225 59 11 4 72 33 135 64 206 101 308 174 476 342 131 129 204 215 204 239 0 19 -83 124 -103 131 -13 5 -37 -10 -83 -52 -172 -153 -375 -260 -574 -303 -86 -19 -363 -6 -425 20 -11 4 -40 13 -65 20 -50 13 -206 92 -272 138 -73 50 -268 251 -268 275 0 3 -14 26 -30 51 -17 25 -44 76 -61 113 -16 37 -34 77 -39 88 -6 11 -17 47 -26 80 -9 33 -20 76 -25 95 -45 159 -45 630 -1 790 41 149 82 239 163 360 103 154 247 266 424 329 110 38 314 42 457 7 157 -39 346 -140 456 -245 51 -50 123 -91 156 -91 38 0 116 57 162 117 37 48 64 131 64 193 0 78 -20 119 -89 187 -35 35 -68 63 -74 63 -5 0 -21 8 -35 18 -15 11 -36 21 -47 25 -11 3 -47 15 -80 27 -176 65 -375 84 -580 54z" fill="#282425" id="282425-000026"/>
    <path stroke="none" d="M13155 4180 c-11 -4 -64 -18 -118 -30 -54 -13 -100 -27 -103 -32 -11 -17 18 -38 52 -38 28 0 38 -6 54 -32 19 -32 20 -52 20 -495 0 -336 -3 -470 -12 -490 -21 -49 -39 -63 -80 -63 -41 0 -61 -21 -39 -43 18 -18 366 -20 382 -1 19 23 3 44 -34 44 -22 0 -41 8 -55 23 -22 23 -22 24 -24 592 -2 368 -7 569 -13 571 -5 1 -19 -1 -30 -6z" fill="#282425" id="282425-000027"/>
    <path stroke="none" d="M31545 4168 c-73 -18 -150 -41 -168 -50 -18 -9 -18 -10 0 -23 10 -8 29 -15 43 -15 32 -1 57 -20 70 -54 15 -39 14 -916 -1 -966 -11 -38 -25 -49 -84 -66 -20 -7 -30 -16 -30 -29 0 -19 7 -20 177 -20 181 0 205 5 192 38 -4 11 -18 17 -40 17 -61 0 -64 13 -64 297 l0 252 34 26 c19 15 57 35 84 45 61 23 121 12 167 -31 47 -44 55 -90 58 -327 l2 -214 -28 -24 c-15 -13 -39 -24 -51 -24 -33 0 -51 -23 -31 -40 23 -19 341 -21 357 -3 18 22 1 43 -36 43 -28 0 -40 6 -53 27 -16 23 -19 60 -23 278 -6 286 -11 308 -87 374 -49 44 -108 58 -185 46 -59 -9 -145 -52 -165 -81 -12 -19 -19 -22 -29 -13 -11 9 -14 65 -14 280 l0 269 -27 -1 c-16 -1 -46 -6 -68 -11z" fill="#282425" id="282425-000028"/>
    <path stroke="none" d="M7515 4102 c-14 -9 -75 -138 -75 -157 0 -7 -9 -30 -19 -52 -11 -21 -29 -65 -41 -98 -12 -33 -32 -85 -45 -115 -13 -30 -31 -77 -40 -105 -9 -27 -25 -69 -36 -92 -10 -24 -19 -45 -19 -48 0 -2 -11 -28 -24 -58 -14 -29 -37 -88 -51 -131 -14 -42 -41 -105 -58 -139 -33 -62 -41 -69 -146 -117 -25 -11 -24 -30 4 -40 26 -10 316 -13 341 -3 8 3 14 16 14 29 0 19 -5 24 -24 24 -13 0 -40 7 -60 15 -31 13 -36 20 -36 48 1 17 20 91 44 162 l44 130 182 3 c117 1 187 -1 195 -8 7 -6 15 -23 18 -38 7 -34 34 -116 55 -162 8 -19 17 -54 20 -78 5 -49 -13 -71 -59 -72 -29 0 -53 -22 -47 -42 6 -18 398 -22 424 -4 25 19 8 37 -50 55 -64 18 -98 61 -136 171 -7 19 -16 44 -20 55 -4 11 -13 36 -20 55 -12 35 -21 59 -39 103 -6 12 -28 78 -51 147 -22 69 -45 134 -49 145 -15 32 -42 107 -57 155 -15 45 -22 64 -42 110 -6 14 -18 48 -27 75 -15 46 -40 85 -54 85 -3 0 -11 -4 -16 -8z" fill="#282425" id="282425-000029"/>
    <path stroke="none" d="M7517 3779 c13 -35 37 -107 54 -159 17 -52 35 -104 39 -115 5 -11 11 -29 12 -40 3 -19 -3 -20 -144 -23 l-148 -3 0 24 c0 12 6 31 14 42 7 11 15 31 18 45 8 37 51 156 69 192 5 10 9 22 9 27 0 22 32 82 42 79 6 -2 22 -33 35 -69z" fill="#fefefe" id="fefefe-000010"/>
    <path stroke="none" d="M18242 4103 c-16 -6 -34 -41 -62 -123 -12 -36 -28 -78 -35 -95 -7 -16 -21 -50 -31 -75 -9 -25 -21 -49 -26 -55 -4 -5 -8 -16 -8 -25 0 -9 -9 -35 -20 -58 -11 -22 -20 -45 -20 -50 0 -5 -6 -22 -14 -38 -28 -58 -45 -100 -60 -146 -8 -26 -27 -70 -41 -99 -14 -29 -25 -59 -25 -66 0 -25 -79 -196 -102 -220 -23 -25 -68 -49 -102 -55 -20 -3 -44 -33 -34 -43 3 -3 85 -7 182 -9 161 -3 177 -2 193 16 22 25 5 42 -44 43 -27 0 -41 7 -56 27 l-21 28 33 97 c17 54 36 107 40 118 5 11 12 34 17 50 l9 30 189 0 189 0 16 -52 c9 -28 20 -55 24 -59 4 -4 7 -17 7 -29 0 -11 4 -25 8 -30 16 -18 44 -124 37 -144 -3 -11 -23 -25 -47 -33 -46 -15 -71 -43 -50 -57 8 -4 102 -8 210 -7 l197 1 3 28 c3 24 0 27 -28 27 -52 0 -87 34 -131 125 -21 46 -39 90 -39 99 0 10 -7 30 -15 45 -8 16 -26 64 -40 107 -14 44 -30 88 -35 99 -5 11 -21 54 -35 95 -52 144 -123 345 -140 395 -24 71 -55 133 -69 138 -6 2 -17 2 -24 0z" fill="#282425" id="282425-000031"/>
    <path stroke="none" d="M18230 3818 c7 -24 16 -52 20 -63 15 -35 62 -169 67 -190 3 -11 14 -39 24 -63 11 -24 17 -47 14 -52 -4 -6 -72 -10 -156 -10 -163 0 -165 1 -135 58 21 40 56 133 56 149 0 8 9 33 20 55 11 23 20 46 20 52 0 15 44 106 51 106 3 0 12 -19 19 -42z" fill="#fefefe" id="fefefe-000011"/>
    <path stroke="none" d="M28656 4068 c-8 -18 -24 -54 -35 -80 -12 -26 -21 -51 -21 -56 0 -5 -9 -27 -20 -50 -11 -22 -20 -46 -20 -52 0 -10 -6 -24 -59 -142 -11 -26 -21 -51 -21 -56 0 -7 -74 -196 -105 -267 -7 -16 -23 -57 -35 -90 -12 -33 -31 -79 -41 -102 -11 -24 -19 -45 -19 -48 0 -3 -11 -23 -25 -43 -25 -38 -88 -82 -118 -82 -8 0 -21 -7 -28 -16 -11 -14 -11 -18 5 -29 13 -10 62 -13 189 -12 l172 2 0 25 c0 19 -6 26 -25 28 -46 5 -80 24 -86 48 -5 21 5 70 26 119 4 11 14 41 20 68 7 26 17 50 21 53 5 3 9 15 9 28 0 43 14 46 200 46 181 0 200 -4 200 -41 0 -9 9 -34 19 -56 11 -21 28 -69 40 -108 35 -122 33 -132 -24 -146 -48 -12 -70 -31 -62 -53 4 -11 44 -13 209 -12 112 0 209 5 216 9 26 17 10 36 -44 53 -55 17 -114 70 -114 102 0 7 -9 32 -20 54 -11 23 -20 48 -20 55 0 7 -4 21 -10 31 -5 9 -20 51 -34 92 -13 41 -38 111 -56 155 -17 44 -47 127 -66 185 -19 58 -39 114 -43 125 -13 29 -48 124 -62 170 -8 22 -19 49 -26 60 -7 11 -13 30 -13 42 0 19 -5 23 -30 23 -25 0 -33 -6 -44 -32z" fill="#282425" id="282425-000032"/>
    <path stroke="none" d="M28669 3813 c7 -21 16 -47 21 -58 15 -31 100 -292 100 -304 0 -13 -296 -16 -304 -3 -3 5 4 23 15 40 10 18 19 39 19 46 0 7 8 35 19 62 10 27 24 65 31 84 65 186 76 200 99 133z" fill="#fefefe" id="fefefe-000012"/>
    <path stroke="none" d="M4946 4080 c-22 -3 -41 -10 -43 -17 -5 -14 46 -42 65 -36 20 8 59 -24 77 -61 14 -30 16 -84 13 -468 -2 -238 -7 -440 -11 -449 -9 -18 -80 -49 -114 -49 -27 0 -50 -27 -35 -42 17 -17 440 -18 454 -1 19 24 0 42 -52 49 -42 5 -56 13 -76 39 -23 31 -24 36 -24 213 l0 182 68 0 c58 -1 71 -4 99 -28 27 -23 113 -152 113 -171 0 -3 38 -58 83 -121 76 -106 88 -118 147 -148 59 -29 72 -32 140 -30 66 3 75 5 75 22 0 12 -15 28 -40 43 -56 32 -55 32 -105 93 -25 30 -47 57 -51 60 -13 11 -148 219 -174 268 -15 29 -25 58 -22 66 3 8 27 27 54 42 26 16 56 37 66 49 60 65 102 200 79 250 -7 14 -12 39 -12 54 0 20 -14 45 -46 80 -87 97 -145 111 -459 114 -126 1 -248 0 -269 -3z" fill="#282425" id="282425-000033"/>
    <path stroke="none" d="M5377 4015 c19 -8 43 -15 53 -15 23 0 92 -66 115 -110 28 -54 26 -190 -5 -253 -44 -93 -130 -137 -264 -137 l-65 0 -6 33 c-3 17 -5 128 -3 245 3 201 4 214 23 225 50 30 100 33 152 12z" fill="#fefefe" id="fefefe-000007"/>
    <path stroke="none" d="M6350 4080 c-195 -3 -354 -8 -352 -12 1 -5 2 -12 2 -18 0 -5 19 -15 43 -21 99 -25 98 -17 99 -515 0 -273 -4 -428 -11 -446 -14 -36 -46 -55 -109 -63 -55 -7 -84 -33 -59 -53 14 -12 815 -10 834 1 31 20 79 266 54 281 -13 8 -45 -33 -76 -97 -48 -99 -138 -142 -283 -134 -48 3 -101 8 -119 12 -76 17 -96 88 -91 325 l3 165 119 -2 c154 -2 189 -13 216 -68 11 -23 20 -49 20 -58 0 -19 35 -24 46 -6 4 6 7 79 8 161 1 170 -7 195 -50 145 -13 -16 -24 -36 -24 -46 0 -45 -51 -61 -213 -68 l-107 -4 -10 26 c-14 37 -13 335 2 390 14 51 -2 48 201 46 152 -2 168 -13 240 -178 6 -13 19 -23 29 -23 16 0 17 8 13 104 -5 129 -11 153 -38 160 -12 3 -24 5 -27 4 -3 -2 -165 -5 -360 -8z" fill="#282425" id="282425-000034"/>
    <path stroke="none" d="M8240 4083 c-25 -2 -49 -9 -55 -14 -15 -15 34 -49 71 -49 30 0 47 -13 72 -57 9 -17 12 -125 12 -440 0 -491 0 -488 -76 -511 -78 -22 -94 -31 -94 -47 0 -8 3 -16 8 -16 38 -6 771 -6 781 0 13 8 20 31 46 151 34 152 8 184 -54 66 -46 -90 -97 -141 -147 -151 -51 -10 -200 -10 -241 0 -44 10 -61 32 -73 95 -15 77 -13 792 2 842 12 42 27 53 98 78 27 9 46 22 48 33 3 16 -10 17 -155 17 -87 0 -167 2 -178 4 -11 1 -40 1 -65 -1z" fill="#282425" id="282425-000030"/>
    <path stroke="none" d="M15650 4082 c-15 -5 -12 -38 5 -52 8 -7 22 -9 31 -6 21 8 69 -21 85 -52 11 -18 13 -121 12 -465 l-1 -442 -38 -32 c-22 -19 -48 -33 -64 -33 -14 0 -35 -6 -46 -14 -16 -12 -17 -17 -6 -28 10 -10 64 -13 230 -13 l217 0 3 28 c3 24 0 27 -27 27 -40 0 -80 16 -102 41 -23 26 -31 110 -27 269 l3 125 62 3 c60 3 123 -16 123 -37 0 -4 14 -25 30 -47 17 -21 38 -54 48 -73 19 -42 121 -195 154 -232 35 -39 97 -82 137 -96 20 -7 69 -13 109 -13 64 0 72 2 72 19 0 12 -13 25 -35 35 -38 18 -141 121 -182 181 -15 22 -30 42 -35 43 -4 2 -8 8 -8 13 0 5 -32 57 -71 115 -85 128 -90 151 -34 177 48 22 111 80 132 122 9 17 20 69 24 116 7 74 5 94 -11 140 -21 56 -92 139 -120 139 -9 0 -20 4 -26 8 -24 22 -136 33 -377 35 -141 1 -262 1 -267 -1z" fill="#282425" id="282425-000035"/>
    <path stroke="none" d="M16124 4011 c6 -4 23 -11 38 -15 34 -8 118 -101 118 -131 0 -13 5 -27 10 -30 14 -8 12 -90 -3 -145 -33 -127 -126 -190 -278 -190 -71 0 -77 2 -83 23 -3 12 -6 108 -6 213 0 237 10 276 76 287 38 6 114 -1 128 -12z" fill="#fefefe" id="fefefe-000008"/>
    <path stroke="none" d="M16720 4060 c0 -15 11 -23 46 -32 25 -7 57 -23 70 -37 27 -27 26 2 27 -581 1 -309 0 -328 -19 -360 -17 -30 -28 -36 -74 -45 -72 -13 -100 -29 -82 -47 10 -10 97 -13 410 -13 218 0 407 4 419 9 31 12 32 17 62 181 11 60 7 95 -9 95 -14 0 -50 -42 -50 -57 0 -20 -78 -130 -98 -138 -75 -32 -257 -44 -324 -22 -73 25 -79 46 -82 279 -1 152 1 202 11 210 17 13 220 1 271 -16 35 -12 47 -33 68 -113 4 -14 43 -18 45 -5 8 39 6 283 -3 305 -17 43 -48 30 -48 -21 0 -9 -14 -32 -31 -50 -23 -24 -36 -31 -53 -26 -13 3 -27 1 -30 -5 -5 -7 -49 -11 -117 -11 l-109 0 -2 163 c-4 234 -2 277 10 289 17 17 248 14 307 -3 53 -16 67 -32 105 -123 16 -37 32 -62 43 -64 17 -3 18 6 16 115 -1 65 -6 124 -12 131 -7 9 -97 12 -388 12 -373 0 -379 0 -379 -20z" fill="#282425" id="282425-000036"/>
    <path stroke="none" d="M18920 4061 c0 -19 34 -37 79 -43 13 -2 32 -14 42 -28 17 -23 18 -58 20 -470 3 -504 5 -487 -74 -509 -108 -31 -116 -56 -19 -63 37 -2 215 -4 397 -3 l329 2 8 29 c4 16 12 47 18 69 18 62 30 148 24 168 -11 34 -39 12 -72 -55 -58 -118 -95 -143 -229 -155 -93 -8 -178 12 -205 50 -21 29 -21 37 -21 474 l1 444 23 25 c13 14 39 27 62 31 40 6 71 28 62 44 -4 5 -103 9 -226 9 -208 0 -219 -1 -219 -19z" fill="#282425" id="282425-000037"/>
    <path stroke="none" d="M26080 4061 c0 -26 22 -41 48 -34 34 9 65 -19 82 -73 12 -40 15 -121 15 -444 0 -217 -3 -407 -7 -422 -5 -14 -20 -40 -34 -57 -20 -25 -34 -31 -64 -31 -43 0 -71 -23 -51 -43 9 -9 72 -12 221 -13 182 -1 211 1 224 15 22 24 8 37 -53 47 -51 8 -56 12 -77 54 -22 42 -23 58 -24 213 l0 167 80 0 79 0 61 -90 c33 -49 60 -92 60 -95 0 -12 139 -211 165 -238 27 -26 53 -40 121 -66 17 -7 62 -11 100 -9 86 4 97 23 31 57 -42 21 -128 109 -177 181 -13 19 -27 37 -30 40 -10 10 -50 69 -50 75 0 4 -13 25 -29 49 -51 74 -81 134 -75 150 3 9 21 23 40 32 50 24 113 90 136 142 23 52 27 163 7 236 -16 61 -87 125 -170 154 -63 21 -83 22 -348 22 -268 0 -281 -1 -281 -19z" fill="#282425" id="282425-000038"/>
    <path stroke="none" d="M26597 3998 c48 -22 87 -59 111 -103 13 -23 17 -56 17 -135 0 -96 -2 -108 -25 -140 -13 -19 -29 -40 -35 -45 -51 -51 -141 -79 -240 -73 l-60 3 -3 225 c-1 124 0 235 3 246 4 20 32 36 80 48 33 8 107 -5 152 -26z" fill="#fefefe" id="fefefe-000009"/>
    <path stroke="none" d="M27160 4061 c0 -24 23 -43 43 -35 22 8 84 -31 94 -59 4 -12 6 -222 5 -467 -3 -356 -6 -448 -17 -460 -8 -8 -35 -21 -62 -29 -138 -37 -140 -56 -5 -63 116 -6 740 0 752 7 4 2 10 17 13 32 3 16 11 46 17 68 7 22 15 69 19 105 13 107 -12 106 -68 -3 -53 -102 -67 -116 -146 -137 -126 -35 -272 -21 -320 30 l-27 28 -3 207 c-2 194 -1 206 17 216 26 14 245 1 279 -17 23 -11 32 -29 55 -111 2 -7 12 -13 23 -13 10 0 21 6 23 13 7 21 2 281 -6 305 -11 34 -34 26 -46 -16 -11 -44 -43 -76 -85 -87 -16 -5 -82 -9 -145 -9 l-115 -1 1 222 c0 123 3 225 6 228 12 12 254 9 293 -4 72 -23 83 -32 105 -90 34 -88 42 -101 62 -101 17 0 19 9 17 118 -1 64 -4 123 -6 130 -4 9 -91 12 -389 12 -369 0 -384 -1 -384 -19z" fill="#282425" id="282425-000039"/>
    <path stroke="none" d="M29342 4064 c2 -10 24 -23 56 -33 81 -25 102 -50 102 -125 0 -33 0 -216 1 -406 1 -476 5 -427 -37 -466 -25 -25 -45 -34 -68 -34 -40 0 -66 -24 -47 -43 14 -14 744 -19 772 -5 9 4 20 20 23 35 15 60 27 131 33 191 5 57 3 64 -11 60 -17 -3 -22 -10 -67 -103 -33 -68 -79 -111 -126 -119 -94 -16 -168 -18 -219 -6 -63 15 -94 41 -95 78 0 15 0 223 0 462 1 478 -2 453 61 466 53 12 80 27 80 45 0 18 -12 19 -231 19 -208 0 -230 -2 -227 -16z" fill="#282425" id="282425-000040"/>
    <path stroke="none" d="M22406 4039 c-62 -49 -11 -164 71 -157 30 2 42 10 60 37 30 44 29 72 -3 110 -32 38 -87 43 -128 10z" fill="#282425" id="282425-000041"/>
    <path stroke="none" d="M21939 3923 c-82 -67 -98 -92 -101 -157 l-3 -61 -37 -5 c-41 -5 -83 -34 -73 -50 3 -6 31 -10 61 -10 l54 0 0 -257 c1 -338 16 -400 107 -443 46 -22 73 -25 101 -12 102 48 157 81 160 94 5 24 -33 32 -70 14 -43 -22 -59 -20 -96 12 -53 45 -63 105 -60 366 l3 221 82 5 c59 4 88 10 103 23 33 28 15 37 -74 37 -113 0 -118 5 -115 139 1 56 -1 104 -4 107 -2 3 -20 -8 -38 -23z" fill="#282425" id="282425-000042"/>
    <path stroke="none" d="M9695 3731 c-21 -9 -55 -19 -138 -42 -61 -17 -79 -36 -52 -55 10 -8 31 -14 45 -14 14 0 31 -5 38 -12 9 -9 12 -134 12 -499 l0 -488 -29 -20 c-16 -12 -41 -21 -55 -21 -26 0 -52 -32 -41 -50 8 -13 395 -13 415 0 25 16 -1 45 -45 48 -52 5 -80 25 -93 71 -14 46 -16 287 -3 296 5 3 29 -1 53 -10 56 -19 65 -19 129 6 138 55 187 85 256 159 89 93 134 274 100 400 -26 99 -128 204 -215 223 -59 13 -136 0 -194 -34 -77 -44 -117 -61 -130 -53 -6 4 -8 26 -6 55 5 52 -1 58 -47 40z" fill="#282425" id="282425-000043"/>
    <path stroke="none" d="M10018 3597 c69 -33 114 -109 133 -220 10 -59 10 -82 1 -102 -7 -15 -10 -31 -7 -36 4 -5 0 -21 -8 -36 -8 -16 -21 -41 -28 -58 -22 -47 -93 -112 -134 -124 -70 -19 -155 0 -207 48 l-28 25 0 226 c0 255 -5 237 80 277 76 37 124 37 198 0z" fill="#fefefe" id="fefefe-000019"/>
    <path stroke="none" d="M10795 3730 c-11 -5 -31 -9 -46 -9 -47 -2 -127 -51 -185 -114 -56 -62 -64 -76 -103 -176 -54 -138 -4 -337 108 -433 66 -57 195 -92 253 -69 13 5 43 15 68 22 51 16 170 120 170 150 0 22 -44 27 -57 6 -23 -36 -141 -75 -190 -62 -74 18 -172 86 -173 120 0 6 -9 21 -20 35 -11 14 -20 34 -20 44 0 11 -5 34 -11 51 -8 22 -9 41 -2 61 l10 29 218 10 219 10 23 34 c29 43 29 58 -2 125 -37 82 -111 149 -175 159 -19 3 -42 8 -50 10 -8 3 -24 2 -35 -3z" fill="#282425" id="282425-000044"/>
    <path stroke="none" d="M10874 3614 c38 -38 46 -52 46 -83 0 -67 -20 -76 -179 -76 -131 0 -136 1 -139 21 -5 33 44 130 80 158 27 21 44 26 90 26 54 0 59 -2 102 -46z" fill="#fefefe" id="fefefe-000016"/>
    <path stroke="none" d="M12245 3731 c-11 -5 -40 -14 -65 -21 -25 -7 -53 -16 -62 -21 -10 -5 -32 -9 -49 -9 -26 0 -30 -3 -27 -22 2 -16 14 -26 37 -34 19 -6 45 -20 58 -32 l23 -20 0 -434 c-1 -238 -5 -453 -9 -478 -10 -51 -40 -80 -81 -80 -36 0 -57 -24 -40 -45 10 -12 46 -15 204 -15 105 0 198 5 206 10 26 17 -1 45 -48 48 -67 5 -89 36 -97 135 -6 84 -1 214 9 225 3 3 31 -1 61 -8 39 -9 62 -10 78 -3 12 6 40 16 62 23 126 40 244 138 300 250 34 68 35 73 35 188 0 105 -3 124 -25 169 -50 105 -144 167 -253 167 -62 0 -74 -4 -165 -52 -107 -58 -110 -57 -105 18 3 47 -8 57 -47 41z" fill="#282425" id="282425-000046"/>
    <path stroke="none" d="M12524 3619 c45 -12 129 -87 144 -127 26 -75 32 -103 32 -160 0 -66 -21 -162 -43 -196 -34 -51 -112 -115 -146 -120 -47 -8 -110 -1 -124 13 -6 6 -18 11 -27 11 -9 0 -27 12 -41 28 -25 27 -25 28 -28 253 l-2 225 39 26 c39 26 114 57 142 57 8 1 32 -4 54 -10z" fill="#fefefe" id="fefefe-000020"/>
    <path stroke="none" d="M13760 3730 c-8 -5 -25 -10 -37 -10 -49 0 -130 -49 -194 -118 -64 -67 -76 -88 -97 -167 -27 -101 -35 -144 -27 -161 4 -11 10 -36 11 -57 4 -37 51 -146 77 -177 49 -58 176 -120 248 -120 46 0 126 30 182 69 44 30 117 107 117 123 0 14 -41 9 -68 -10 -50 -33 -128 -62 -168 -62 -39 0 -132 47 -164 82 -45 49 -73 106 -81 168 -4 30 -8 62 -10 70 -5 20 49 27 264 36 211 9 227 15 227 90 0 107 -98 221 -205 237 -16 2 -37 7 -45 10 -8 4 -22 2 -30 -3z" fill="#282425" id="282425-000047"/>
    <path stroke="none" d="M13795 3654 c42 -19 81 -77 89 -129 10 -62 -9 -70 -176 -71 l-138 -1 0 29 c0 73 82 174 147 181 21 2 40 4 41 5 2 1 19 -5 37 -14z" fill="#fefefe" id="fefefe-000017"/>
    <path stroke="none" d="M35147 3725 c-74 -21 -127 -52 -185 -108 -91 -89 -121 -167 -122 -318 -1 -115 8 -147 59 -227 43 -67 104 -109 202 -141 72 -23 109 -13 261 66 41 21 91 89 83 113 -8 26 -22 25 -49 -1 -12 -12 -49 -32 -82 -46 -66 -27 -108 -25 -180 8 -49 22 -121 97 -130 136 -4 15 -10 33 -15 38 -10 13 -15 123 -5 132 4 4 22 8 39 9 18 0 116 4 219 9 181 8 188 9 203 31 18 28 20 93 3 131 -37 84 -110 154 -174 166 -18 3 -42 8 -55 10 -13 3 -46 -1 -72 -8z" fill="#282425" id="282425-000055"/>
    <path stroke="none" d="M35238 3636 c48 -30 58 -43 70 -90 10 -36 9 -40 -18 -67 -28 -29 -29 -29 -152 -29 -68 0 -129 4 -137 9 -17 11 -7 62 24 117 29 49 44 62 92 80 45 16 71 12 121 -20z" fill="#fefefe" id="fefefe-000018"/>
    <path stroke="none" d="M11495 3720 c-111 -21 -201 -94 -259 -210 -35 -69 -36 -74 -36 -189 0 -129 9 -161 76 -252 43 -59 92 -92 182 -125 100 -36 176 -28 301 30 48 22 119 96 146 153 47 95 66 216 45 287 -27 95 -34 113 -63 156 -66 95 -154 145 -272 153 -44 3 -98 2 -120 -3z" fill="#282425" id="282425-000045"/>
    <path stroke="none" d="M11622 3661 c13 -5 44 -30 69 -55 50 -50 79 -124 97 -246 13 -85 10 -112 -21 -229 -21 -78 -104 -151 -172 -151 -71 0 -151 68 -198 169 -28 60 -32 77 -35 185 -3 80 0 132 9 160 21 65 73 140 110 159 37 18 104 22 141 8z" fill="#fefefe" id="fefefe-000013"/>
    <path stroke="none" d="M20540 3724 c-29 -6 -40 -10 -143 -59 -54 -26 -88 -50 -113 -80 -40 -49 -39 -67 2 -106 24 -22 26 -22 52 -7 15 9 35 33 45 55 35 77 43 87 86 108 52 27 85 19 136 -32 46 -46 62 -156 28 -184 -28 -23 -101 -56 -178 -80 -38 -12 -79 -26 -90 -32 -11 -6 -32 -17 -48 -25 -15 -7 -38 -33 -52 -56 -59 -100 -8 -229 110 -285 73 -34 91 -30 212 46 61 39 81 41 89 9 7 -29 85 -70 117 -62 27 6 137 83 137 95 0 5 -7 14 -16 22 -12 10 -20 10 -35 0 -38 -23 -67 2 -85 74 -4 17 -9 127 -11 245 -3 195 -5 219 -24 257 -37 72 -129 113 -219 97z" fill="#282425" id="282425-000048"/>
    <path stroke="none" d="M20658 3248 c2 -139 -2 -154 -49 -183 -58 -37 -127 -35 -174 6 -32 29 -35 35 -35 88 0 49 4 61 28 83 28 28 128 84 172 98 57 18 57 18 58 -92z" fill="#fefefe" id="fefefe-000021"/>
    <path stroke="none" d="M21375 3723 c-35 -4 -47 -9 -139 -54 -131 -65 -209 -186 -233 -363 -5 -40 4 -79 40 -176 28 -73 114 -160 177 -179 25 -7 55 -17 68 -22 32 -12 96 -11 129 2 74 31 100 44 142 74 65 47 95 89 81 115 -13 25 -22 25 -44 1 -26 -28 -114 -68 -166 -76 -37 -5 -56 -2 -100 19 -72 34 -102 61 -136 121 -55 99 -61 233 -13 330 28 55 39 69 83 99 32 21 50 26 103 26 66 0 101 -12 159 -56 40 -31 48 -30 73 5 28 40 26 64 -8 99 -38 37 -109 49 -216 35z" fill="#282425" id="282425-000056"/>
    <path stroke="none" d="M23088 3723 c-64 -7 -169 -66 -224 -125 -42 -44 -56 -69 -78 -135 -27 -85 -36 -215 -16 -228 6 -3 10 -16 10 -29 0 -92 171 -266 263 -266 13 0 28 -5 34 -11 12 -12 96 -8 154 8 107 30 205 106 244 191 9 20 23 50 31 66 17 36 19 232 3 273 -46 113 -104 180 -199 228 -53 27 -141 38 -222 28z" fill="#282425" id="282425-000049"/>
    <path stroke="none" d="M23197 3655 c51 -24 123 -102 123 -132 0 -7 4 -21 9 -31 22 -44 31 -96 31 -187 0 -139 -23 -216 -82 -271 -60 -57 -104 -67 -170 -40 -39 16 -102 77 -124 118 -42 80 -67 202 -59 285 13 125 88 263 143 263 11 0 24 5 27 10 10 17 49 11 102 -15z" fill="#fefefe" id="fefefe-000014"/>
    <path stroke="none" d="M23850 3723 c-8 -2 -24 -8 -35 -12 -47 -19 -93 -31 -117 -31 -26 0 -63 -32 -51 -44 4 -4 26 -15 49 -25 l42 -19 7 -133 c3 -74 5 -195 3 -269 -4 -158 -16 -190 -73 -190 -18 0 -39 -7 -46 -16 -11 -14 -10 -18 5 -30 27 -19 341 -17 357 2 17 21 3 44 -26 44 -77 0 -85 30 -85 311 l0 228 43 28 c85 57 154 72 216 47 82 -33 101 -92 101 -329 0 -243 -13 -285 -87 -285 -36 0 -54 -23 -34 -43 17 -17 332 -18 355 -1 28 20 13 44 -27 44 -65 0 -68 11 -73 267 -6 304 -8 318 -49 375 -48 66 -83 83 -176 83 -75 0 -76 0 -151 -52 -42 -29 -86 -53 -97 -53 -18 0 -21 6 -21 49 0 52 -5 61 -30 54z" fill="#282425" id="282425-000050"/>
    <path stroke="none" d="M31040 3721 c-74 -16 -212 -98 -260 -155 -140 -166 -135 -403 13 -548 32 -32 65 -58 73 -58 8 0 22 -4 32 -9 88 -44 168 -39 281 18 55 28 143 119 139 144 -4 30 -19 30 -53 1 -41 -35 -137 -74 -183 -74 -29 0 -124 44 -161 75 -88 75 -125 241 -80 367 29 83 44 104 94 133 33 20 56 25 107 25 59 0 71 -4 129 -41 68 -45 77 -44 113 5 19 25 19 29 6 53 -27 47 -59 63 -140 67 -41 3 -91 2 -110 -3z" fill="#282425" id="282425-000051"/>
    <path stroke="none" d="M32630 3724 c-23 -5 -87 -31 -135 -57 -11 -6 -31 -16 -44 -23 -39 -20 -90 -73 -97 -99 -14 -56 23 -92 74 -73 31 12 39 23 62 86 40 107 176 119 228 21 29 -54 32 -167 5 -175 -10 -3 -36 -14 -58 -24 -22 -10 -58 -24 -80 -31 -22 -7 -44 -17 -49 -21 -6 -4 -18 -8 -28 -8 -10 0 -26 -4 -36 -9 -114 -57 -124 -70 -130 -171 -4 -60 -1 -69 30 -115 22 -33 50 -59 83 -77 79 -42 109 -37 215 32 30 20 60 40 67 44 8 4 18 -4 27 -22 20 -39 61 -64 105 -66 27 0 51 10 94 39 67 47 72 71 12 68 -49 -3 -74 15 -84 60 -5 18 -9 134 -10 257 -1 217 -2 225 -25 265 -44 75 -136 115 -226 99z" fill="#282425" id="282425-000052"/>
    <path stroke="none" d="M32745 3230 c0 -63 -1 -122 -3 -130 -6 -32 -65 -60 -125 -60 -49 0 -61 4 -89 29 -30 27 -33 34 -33 90 0 52 4 63 29 90 16 16 54 40 85 52 31 13 67 29 81 36 51 26 55 18 55 -107z" fill="#fefefe" id="fefefe-000022"/>
    <path stroke="none" d="M33546 3723 c-26 -7 -103 -51 -150 -85 -21 -15 -43 -28 -47 -28 -4 0 -9 24 -11 53 -3 45 -6 52 -25 55 -13 2 -49 -6 -81 -17 -32 -12 -67 -21 -78 -21 -29 0 -64 -28 -58 -45 4 -8 14 -15 24 -15 10 0 32 -12 49 -26 l31 -26 0 -248 c0 -161 -4 -258 -11 -273 -13 -28 -48 -47 -85 -47 -28 0 -42 -24 -25 -44 16 -19 372 -17 379 2 6 20 -18 42 -47 42 -17 0 -36 10 -50 25 -21 25 -22 34 -23 270 -1 145 2 249 7 254 26 25 128 72 167 77 33 4 54 -1 88 -18 75 -39 79 -54 80 -335 0 -239 0 -242 -22 -257 -12 -9 -32 -16 -44 -16 -12 0 -27 -7 -34 -15 -27 -32 4 -40 158 -41 136 -1 202 7 202 25 0 14 -25 31 -46 31 -14 0 -33 13 -48 33 l-26 34 0 250 c0 299 -5 317 -97 381 -32 23 -135 37 -177 25z" fill="#282425" id="282425-000053"/>
    <path stroke="none" d="M34287 3723 c-74 -12 -207 -111 -207 -154 0 -10 -4 -21 -10 -24 -5 -3 -10 -46 -10 -95 0 -72 4 -97 21 -127 28 -50 49 -73 77 -84 49 -19 19 -74 -67 -121 -21 -12 -31 -25 -31 -41 0 -36 53 -112 89 -126 17 -8 31 -17 31 -21 0 -4 -26 -30 -57 -57 -67 -58 -103 -119 -103 -174 0 -43 30 -103 67 -135 30 -25 108 -53 175 -61 64 -8 200 14 264 42 84 37 214 171 214 221 0 10 5 32 12 50 15 42 -11 131 -50 166 -66 60 -77 63 -227 64 -211 2 -211 2 -242 28 l-28 25 18 34 c24 45 53 57 119 50 82 -8 187 27 234 80 60 66 77 117 72 212 -3 45 -12 91 -19 103 -20 32 1 51 37 31 26 -13 28 -12 70 36 23 28 39 54 35 58 -5 5 -58 4 -118 -3 -92 -9 -116 -9 -153 4 -49 16 -168 27 -213 19z" fill="#282425" id="282425-000054"/>
    <path stroke="none" d="M34391 3669 c19 -7 42 -18 51 -26 30 -26 56 -98 64 -171 8 -86 -10 -148 -59 -199 -27 -29 -37 -33 -81 -33 -43 0 -56 5 -85 32 -43 40 -81 126 -81 181 0 43 20 131 37 161 13 24 75 65 99 66 12 0 36 -5 55 -11z" fill="#fefefe" id="fefefe-000015"/>
    <path stroke="none" d="M34561 2898 c26 -14 45 -36 60 -67 19 -40 20 -49 8 -85 -20 -60 -50 -99 -95 -122 -117 -61 -275 -40 -348 46 -55 66 -25 175 61 227 34 20 51 23 157 23 103 0 123 -3 157 -22z" fill="#fefefe" id="fefefe-000023"/>
    <path stroke="none" d="M22475 3712 c-15 -13 -88 -32 -122 -32 -17 0 -36 -7 -43 -15 -14 -17 -6 -45 13 -45 8 0 28 -7 45 -16 l32 -15 0 -278 c0 -312 0 -311 -74 -311 -41 0 -57 -20 -36 -45 18 -22 363 -20 381 1 20 24 3 44 -39 44 -84 0 -92 36 -92 413 l0 307 -28 0 c-15 0 -32 -4 -37 -8z" fill="#282425" id="282425-000057"/>
    <path stroke="none" d="M14726 3538 c-46 -23 -52 -29 -94 -90 -29 -42 -32 -54 -32 -122 0 -99 25 -148 101 -193 47 -29 62 -33 124 -33 62 0 77 4 118 30 25 16 58 47 72 69 21 35 25 53 26 126 1 79 -1 89 -30 134 -60 92 -188 128 -285 79z" fill="#282425" id="282425-000058"/>
    <path stroke="none" d="M25166 3540 c-52 -26 -65 -38 -98 -89 -25 -40 -28 -54 -28 -125 0 -86 10 -112 62 -168 40 -42 80 -57 156 -59 60 -2 77 2 116 25 25 14 59 46 76 71 28 40 30 50 30 127 -1 72 -4 90 -28 133 -22 40 -39 56 -83 77 -67 34 -145 37 -203 8z" fill="#282425" id="282425-000059"/>
    <path stroke="none" d="M35660 3124 c-26 -8 -60 -68 -60 -106 0 -30 7 -42 37 -67 51 -42 86 -41 129 5 45 47 47 98 7 136 -27 26 -82 41 -113 32z" fill="#282425" id="282425-000060"/>
  </g>
</svg>
