<svg xmlns="http://www.w3.org/2000/svg" version="1.0" width="1840.000000pt" height="744.000000pt" viewBox="0 0 1840.000000 744.000000" preserveAspectRatio="xMidYMid meet">
  <g transform="translate(0.000000,744.000000) scale(0.100000,-0.100000)" stroke="none">
    <mask id="mask-1">
      <g>
        <path d="M 0 0 H 18400.0 V 7440.0 H 0 Z" fill="white" id="background"/>
        <path d="M6078 5322 l2 -752 -430 -214 c-237 -118 -437 -219 -445 -226 -8 -7 -22 -10 -30 -6 -13 5 -15 119 -15 974 0 533 3 972 7 975 3 4 209 6 457 5 l451 -3 3 -753z" fill="black"/>
      </g>
    </mask>
    <mask id="mask-0">
      <g>
        <path d="M 0 0 H 18400.0 V 7440.0 H 0 Z" fill="white" id="background"/>
        <path d="M2278 3677 l2 -2397 -477 2 -478 3 -3 2385 c-1 1312 0 2391 3 2398 3 10 104 12 477 10 l473 -3 3 -2398z" fill="black"/>
        <path d="M6078 5322 l2 -752 -430 -214 c-237 -118 -437 -219 -445 -226 -8 -7 -22 -10 -30 -6 -13 5 -15 119 -15 974 0 533 3 972 7 975 3 4 209 6 457 5 l451 -3 3 -753z" fill="black"/>
      </g>
    </mask>
    <path stroke="none" d="M247 7154 c-4 -4 -7 -1571 -7 -3482 l0 -3475 568 6 c1160 13 1940 36 2047 61 38 9 80 16 92 16 26 0 126 46 172 79 36 26 121 141 121 164 0 9 4 18 8 21 4 2 32 53 62 113 l55 108 0 2895 0 2895 -31 60 c-17 33 -35 69 -41 80 -73 145 -128 222 -204 287 -118 101 -224 135 -449 143 -91 4 -257 11 -370 17 -251 12 -2012 23 -2023 12z" fill="#040404" id="040404-000001" mask="url(#mask-0)"/>
    <path stroke="none" d="M5135 7149 c-181 -14 -320 -30 -350 -41 -61 -20 -155 -63 -210 -96 -45 -26 -194 -142 -228 -176 -100 -104 -221 -286 -229 -346 -3 -19 -12 -69 -21 -110 -21 -104 -24 -340 -53 -5089 l-7 -1093 169 5 c798 25 900 29 911 40 9 9 13 210 18 797 4 432 8 799 10 815 2 17 7 261 11 543 l7 512 416 207 c229 114 429 215 444 226 61 42 57 157 57 -1569 l0 -1576 168 5 c730 23 898 30 909 39 10 8 13 496 12 2382 -1 2433 -10 3535 -28 3641 -5 33 -13 96 -17 140 -4 44 -10 85 -14 90 -4 6 -15 36 -24 68 -46 149 -300 396 -511 496 -123 58 -145 63 -454 91 -121 12 -840 11 -986 -1z" fill="#040404" id="040404-000002" mask="url(#mask-1)"/>
    <path stroke="none" d="M7687 7153 c-4 -3 -7 -1570 -7 -3481 l0 -3474 168 5 c702 22 898 30 908 38 8 7 13 415 18 1507 3 823 9 1792 12 2152 4 360 10 997 13 1415 l6 760 455 0 455 0 3 -2937 2 -2938 562 0 561 0 -7 1363 c-4 749 -9 1391 -11 1427 -2 36 -6 814 -10 1730 -3 916 -8 1681 -12 1700 -3 19 -9 40 -14 46 -5 6 -28 48 -52 93 -109 205 -371 449 -569 530 -16 6 -38 15 -50 20 -13 5 -54 12 -93 15 -38 3 -133 12 -210 21 -175 18 -288 18 -435 1 -63 -8 -142 -18 -175 -22 -91 -10 -219 -86 -329 -196 -74 -73 -76 -71 -76 92 l0 140 -553 0 c-305 0 -557 -3 -560 -7z" fill="#040404" id="040404-000003"/>
    <path stroke="none" d="M12765 7145 c-729 -26 -706 -25 -765 -47 -112 -41 -162 -71 -229 -137 -61 -59 -131 -148 -131 -166 0 -4 -8 -19 -19 -33 -10 -15 -21 -45 -25 -67 -3 -22 -11 -62 -17 -90 -8 -33 -14 -313 -20 -825 -10 -976 -2 -4883 10 -4930 5 -19 14 -69 21 -110 18 -108 79 -229 155 -305 45 -46 83 -72 155 -107 52 -25 115 -51 140 -58 25 -6 55 -16 67 -21 13 -5 303 -11 645 -14 679 -6 1308 5 1373 24 22 7 51 15 65 18 22 4 67 25 173 80 78 41 174 182 207 303 7 25 16 53 21 62 5 10 9 35 9 55 0 21 7 70 16 108 9 39 20 151 25 250 4 99 13 279 19 400 18 369 24 991 11 1165 -17 217 -17 220 -44 220 -13 0 -27 -4 -33 -8 -5 -5 -25 -15 -44 -22 -19 -7 -53 -21 -75 -31 -22 -10 -80 -37 -130 -60 -49 -23 -234 -113 -410 -200 -177 -87 -326 -159 -331 -159 -6 0 -18 -8 -27 -18 -15 -17 -17 -72 -17 -580 l0 -562 -457 2 -458 3 0 2395 0 2395 455 0 455 0 2 -640 c2 -352 5 -646 8 -652 3 -9 64 18 187 81 326 166 572 295 643 336 22 13 65 36 95 53 30 17 67 38 82 49 14 10 29 18 34 18 4 0 23 12 42 26 l34 27 -5 206 c-3 113 -10 262 -17 331 -6 69 -15 202 -19 295 -5 94 -16 204 -25 245 -9 41 -16 88 -16 103 0 30 -30 132 -64 212 -25 62 -84 151 -122 186 -31 28 -119 89 -128 89 -4 0 -25 8 -49 19 -23 10 -62 24 -87 31 -25 7 -56 16 -70 20 -25 8 -69 12 -380 29 -312 17 -576 19 -935 6z" fill="#040404" id="040404-000004"/>
    <path stroke="none" d="M15327 7153 c-4 -3 -7 -1569 -7 -3480 l0 -3473 1398 2 1397 3 3 537 2 538 -837 2 -838 3 -3 812 -2 811 813 406 c447 223 818 406 823 406 6 0 18 8 27 18 15 17 17 74 17 610 0 473 -3 592 -13 592 -14 0 -1603 -794 -1624 -811 -7 -6 -20 -9 -28 -5 -13 5 -15 116 -13 978 l3 973 835 5 835 5 3 538 2 537 -1393 0 c-767 0 -1397 -3 -1400 -7z" fill="#040404" id="040404-000005"/>
  </g>
</svg>
