<svg xmlns="http://www.w3.org/2000/svg" version="1.0" width="3588.000000pt" height="1324.000000pt" viewBox="0 0 3588.000000 1324.000000" preserveAspectRatio="xMidYMid meet">
  <g transform="translate(0.000000,1324.000000) scale(0.100000,-0.100000)" stroke="none">
    <mask id="mask-0">
      <g>
        <path d="M 0 0 H 35880.0 V 13240.0 H 0 Z" fill="white" id="background"/>
        <path d="M14118 10292 c2 -25 -6 -71 -17 -107 -12 -35 -21 -72 -21 -82 0 -21 -23 -89 -33 -99 -4 -4 -7 -17 -7 -28 0 -23 -22 -92 -33 -102 -4 -4 -7 -17 -7 -28 -1 -30 -54 -121 -71 -121 -28 0 -41 72 -29 160 7 44 15 114 20 155 18 175 90 305 165 298 28 -3 30 -6 33 -46z" fill="black"/>
        <path d="M9441 8868 c58 -17 79 -41 79 -91 0 -23 -9 -62 -20 -86 -11 -24 -20 -49 -20 -57 0 -8 -8 -33 -19 -57 -10 -23 -29 -69 -41 -102 -12 -33 -30 -81 -41 -107 -10 -27 -28 -69 -38 -95 -56 -140 -86 -209 -93 -218 -4 -5 -8 -15 -8 -22 0 -12 -7 -30 -60 -148 -10 -22 -30 -69 -45 -105 -46 -109 -56 -133 -75 -175 -10 -22 -26 -58 -35 -80 -33 -77 -73 -166 -145 -320 -95 -206 -372 -752 -438 -867 -35 -61 -64 -112 -76 -133 -34 -60 -173 -269 -229 -345 -75 -99 -214 -234 -277 -268 -76 -41 -121 -42 -183 -2 -72 45 -144 154 -158 240 -5 25 -13 68 -18 95 -12 63 -12 260 0 340 5 33 13 101 19 150 5 50 14 108 20 130 7 22 15 65 20 95 4 30 15 75 24 100 9 25 16 54 16 65 0 23 23 91 33 101 4 4 7 17 7 28 0 12 9 46 20 76 11 30 20 60 20 67 0 7 8 32 18 56 10 23 24 58 31 77 42 115 43 118 91 225 41 93 145 302 162 327 10 14 18 31 18 37 0 7 8 24 19 39 10 15 31 49 47 76 16 28 38 64 49 81 11 17 34 53 50 79 17 27 48 72 71 100 22 28 51 67 64 86 68 98 295 323 407 403 93 66 304 177 337 177 12 0 26 3 30 8 29 29 290 44 367 20z" fill="black"/>
        <path d="M4514 8388 c10 -92 7 -220 -10 -298 -8 -41 -19 -109 -24 -150 -13 -103 -21 -139 -31 -146 -5 -3 -9 -24 -9 -47 0 -23 -9 -71 -19 -107 -11 -36 -25 -92 -32 -125 -7 -33 -16 -64 -21 -70 -4 -5 -8 -26 -8 -46 0 -21 -5 -50 -11 -66 -10 -26 -11 -27 -21 -9 -13 23 -3 528 12 621 6 33 14 96 19 140 4 44 15 97 24 119 10 21 17 45 17 52 0 24 83 184 95 184 7 0 15 -22 19 -52z" fill="black"/>
        <path d="M19558 4203 c4 -25 -53 -154 -117 -265 -11 -21 -31 -55 -43 -75 -11 -21 -26 -47 -32 -58 -78 -141 -206 -286 -295 -333 -79 -43 -114 -42 -157 4 -31 32 -34 41 -34 95 0 89 41 160 165 285 85 86 253 224 313 259 9 6 33 22 52 36 49 37 123 79 135 75 6 -1 11 -12 13 -23z" fill="black"/>
        <path d="M32358 3103 c1 -69 -5 -183 -14 -265 -9 -78 -20 -213 -25 -298 -4 -85 -12 -184 -18 -220 -6 -36 -16 -123 -21 -195 -5 -71 -15 -152 -21 -180 -6 -27 -14 -79 -19 -115 -11 -92 -21 -140 -31 -146 -5 -3 -9 -20 -9 -37 0 -18 -9 -52 -20 -76 -11 -24 -20 -47 -20 -52 0 -17 -44 -104 -69 -137 -15 -18 -38 -40 -52 -47 -24 -13 -30 -12 -70 14 -51 32 -138 122 -168 172 -33 56 -79 152 -84 179 -3 14 -12 50 -21 80 -25 87 -18 232 15 292 5 10 9 28 9 42 0 13 9 45 19 72 11 27 29 76 41 109 28 78 44 112 124 275 69 141 84 169 136 260 32 56 92 146 171 260 41 60 121 141 134 137 6 -2 11 -53 13 -124z" fill="black"/>
      </g>
    </mask>
    <path stroke="none" d="M27036 12937 c-60 -19 -79 -32 -140 -92 -79 -78 -89 -94 -106 -180 -7 -33 -16 -73 -21 -89 -5 -16 -9 -81 -9 -145 0 -64 -7 -159 -16 -211 -9 -52 -20 -144 -24 -205 -5 -60 -14 -130 -20 -155 -6 -25 -15 -79 -20 -120 -5 -41 -14 -93 -20 -115 -6 -22 -15 -53 -19 -70 l-7 -30 -329 -7 c-182 -3 -355 -11 -385 -17 -30 -6 -76 -13 -101 -17 -28 -4 -63 -19 -91 -39 -38 -28 -47 -42 -66 -102 -26 -82 -28 -132 -6 -210 9 -32 18 -70 21 -84 3 -15 15 -31 26 -37 45 -20 238 -45 417 -53 102 -4 212 -13 245 -18 33 -6 77 -14 97 -17 58 -10 61 -20 42 -116 -9 -46 -20 -121 -25 -168 -4 -47 -13 -103 -20 -125 -6 -22 -15 -74 -19 -115 -5 -41 -14 -95 -20 -120 -6 -25 -15 -76 -20 -115 -5 -38 -14 -88 -20 -110 -7 -22 -16 -74 -21 -115 -4 -41 -13 -93 -20 -115 -6 -22 -15 -74 -20 -115 -4 -41 -13 -93 -20 -115 -6 -22 -15 -76 -20 -120 -4 -44 -13 -98 -19 -120 -6 -22 -15 -76 -20 -120 -5 -44 -14 -100 -20 -125 -7 -25 -16 -83 -21 -130 -4 -47 -13 -105 -19 -130 -6 -25 -15 -85 -20 -135 -5 -49 -14 -110 -20 -135 -6 -25 -15 -90 -20 -145 -5 -55 -14 -120 -20 -145 -6 -25 -15 -94 -21 -155 -5 -60 -14 -132 -19 -160 -6 -27 -15 -102 -20 -165 -5 -63 -14 -140 -20 -170 -6 -30 -15 -116 -20 -190 -5 -74 -14 -162 -20 -195 -6 -33 -15 -139 -20 -235 -5 -96 -14 -209 -20 -250 -6 -41 -15 -113 -19 -160 -12 -116 -46 -205 -155 -405 -6 -11 -28 -46 -49 -78 -20 -31 -37 -60 -37 -63 0 -3 -18 -32 -40 -65 -22 -33 -40 -62 -40 -65 0 -2 -55 -86 -122 -186 -68 -99 -131 -192 -140 -207 -9 -14 -20 -31 -25 -36 -4 -6 -28 -37 -53 -70 -92 -123 -288 -352 -379 -442 -157 -156 -353 -292 -455 -316 -66 -15 -157 -20 -180 -9 -11 6 -36 16 -54 22 -75 29 -141 150 -153 280 -5 47 -13 126 -20 175 -14 113 -14 678 1 875 6 80 15 244 20 365 5 121 14 252 20 290 6 39 14 140 20 225 5 85 14 180 20 210 6 30 15 107 20 170 5 63 14 140 20 170 7 30 15 105 20 165 5 61 14 135 20 165 6 30 15 111 20 180 5 69 14 150 20 180 38 190 45 856 10 905 -4 6 -14 28 -23 51 -57 148 -257 333 -431 397 -82 31 -292 61 -366 53 -25 -3 -90 -10 -145 -16 -127 -14 -222 -43 -309 -95 -61 -36 -156 -127 -156 -151 0 -5 -9 -20 -20 -34 -26 -34 -27 -139 -1 -206 53 -140 61 -177 61 -289 -1 -60 -8 -150 -16 -200 -8 -49 -19 -139 -24 -200 -5 -60 -14 -130 -20 -155 -6 -25 -15 -90 -20 -145 -5 -55 -15 -122 -21 -150 -6 -27 -14 -93 -19 -145 -5 -52 -14 -115 -20 -140 -6 -25 -15 -85 -20 -135 -5 -49 -14 -110 -21 -135 -6 -25 -14 -79 -19 -120 -5 -41 -14 -93 -20 -115 -7 -22 -15 -65 -20 -95 -4 -30 -20 -86 -34 -125 -14 -38 -26 -71 -26 -71 0 -2 -163 -140 -190 -161 -310 -245 -535 -407 -597 -432 -58 -23 -95 10 -234 209 -101 146 -120 172 -222 299 -132 164 -478 512 -607 611 -25 19 -47 37 -50 40 -26 27 -191 158 -385 304 -59 45 -260 190 -320 230 -16 11 -31 24 -33 28 -2 4 -8 8 -14 8 -6 0 -40 22 -77 49 -36 26 -106 76 -156 109 -184 126 -483 347 -620 460 -49 40 -99 81 -110 90 -154 122 -310 295 -362 401 -35 70 -38 84 -41 177 -4 97 -2 104 27 163 30 59 111 151 133 151 5 0 22 8 36 18 15 10 57 28 94 41 59 20 81 22 205 19 108 -2 147 -7 178 -22 22 -10 51 -23 65 -29 72 -33 220 -225 220 -286 0 -11 4 -22 9 -25 16 -10 23 -60 30 -211 9 -215 32 -250 181 -275 41 -7 91 -16 110 -21 56 -14 139 -10 225 11 71 18 84 25 118 62 47 54 73 104 103 198 26 81 29 111 15 156 -5 16 -14 56 -21 89 -36 180 -196 410 -404 580 -179 146 -449 269 -651 295 -246 32 -282 34 -392 21 -194 -24 -217 -28 -268 -44 -27 -10 -66 -22 -85 -28 -62 -20 -203 -91 -280 -142 -142 -94 -269 -240 -357 -412 -116 -227 -127 -254 -152 -362 -23 -103 -25 -144 -12 -259 6 -43 15 -140 21 -214 11 -131 33 -231 71 -317 11 -24 19 -45 19 -48 0 -7 92 -191 118 -237 12 -21 31 -53 41 -72 11 -18 25 -44 33 -57 40 -69 219 -334 268 -394 171 -215 260 -343 260 -376 0 -21 -75 -182 -148 -316 -7 -13 -17 -33 -24 -45 -12 -25 -51 -97 -97 -180 -32 -60 -65 -119 -127 -230 -24 -43 -44 -80 -44 -84 0 -3 -8 -18 -18 -32 -11 -15 -32 -52 -49 -82 -17 -30 -40 -72 -52 -93 -11 -20 -31 -54 -42 -75 -12 -20 -30 -49 -40 -64 -11 -14 -19 -29 -19 -33 0 -3 -13 -26 -30 -50 -16 -24 -30 -46 -30 -49 0 -2 -23 -42 -51 -88 -29 -46 -61 -99 -73 -118 -11 -19 -24 -36 -28 -38 -4 -2 -8 -8 -8 -13 0 -5 -44 -76 -97 -157 -54 -81 -102 -155 -108 -163 -71 -112 -322 -464 -398 -559 -248 -310 -381 -438 -544 -523 -43 -22 -66 -27 -125 -27 l-72 0 -42 46 c-75 80 -123 191 -136 314 -29 272 -37 812 -17 1175 5 99 14 279 19 400 6 121 14 247 20 280 6 33 15 125 20 205 6 80 15 170 21 200 5 30 14 111 19 180 5 69 14 150 20 180 6 30 15 109 20 175 6 66 15 143 20 170 6 28 15 104 20 170 5 66 14 145 20 175 6 30 15 111 20 180 5 69 14 152 20 185 6 33 15 128 20 210 5 83 15 179 21 215 6 36 13 200 16 366 l4 300 -25 44 c-66 117 -161 177 -331 209 l-121 23 -138 -21 c-76 -12 -155 -21 -175 -21 -20 0 -67 -9 -106 -20 -38 -11 -83 -20 -100 -20 -16 0 -50 -7 -75 -16 -25 -9 -67 -20 -95 -24 -50 -8 -131 -28 -235 -58 -30 -9 -73 -19 -95 -23 -22 -4 -58 -12 -80 -19 -22 -6 -62 -15 -90 -19 -27 -5 -77 -16 -109 -25 -79 -22 -204 -18 -220 6 -8 13 -7 26 3 50 7 18 22 58 33 88 11 30 23 64 27 75 13 33 75 246 106 365 9 36 21 94 25 130 5 36 16 88 24 115 9 28 16 73 16 100 0 28 7 104 16 170 9 66 18 183 21 260 l5 141 -125 120 c-69 67 -136 124 -148 127 -13 3 -51 12 -84 21 -69 17 -333 22 -412 7 -26 -5 -77 -15 -113 -21 -114 -21 -228 -71 -370 -165 -50 -33 -182 -161 -222 -215 -80 -108 -152 -275 -168 -390 -35 -250 -36 -273 -9 -477 25 -195 113 -393 246 -553 49 -59 184 -193 308 -307 l99 -90 -21 -44 c-12 -24 -30 -64 -41 -89 -11 -25 -31 -70 -45 -100 -45 -99 -78 -173 -138 -307 -32 -73 -62 -140 -67 -150 -5 -10 -18 -38 -29 -63 -11 -25 -30 -66 -42 -92 -11 -27 -30 -67 -40 -90 -10 -24 -30 -68 -44 -98 -46 -101 -79 -174 -119 -265 -22 -49 -53 -119 -69 -155 -17 -36 -39 -85 -50 -110 -11 -25 -29 -63 -39 -85 -16 -35 -160 -365 -212 -485 -27 -61 -101 -221 -213 -455 -72 -153 -334 -676 -400 -800 -32 -60 -84 -159 -115 -220 -95 -182 -190 -361 -238 -445 -14 -25 -41 -74 -60 -110 -19 -36 -41 -75 -48 -87 -8 -12 -25 -43 -39 -68 -47 -86 -72 -130 -92 -165 -21 -35 -134 -228 -164 -278 -9 -15 -26 -44 -37 -64 -21 -37 -38 -64 -153 -243 -63 -97 -199 -300 -216 -320 -4 -5 -44 -55 -88 -110 -112 -140 -178 -204 -269 -264 -70 -46 -84 -51 -133 -51 -51 0 -58 3 -94 40 -21 22 -41 52 -45 67 -3 16 -9 37 -14 48 -18 44 -22 63 -30 140 -5 44 -16 141 -25 215 -14 114 -16 198 -10 535 3 220 10 438 15 485 5 47 14 180 19 295 6 116 15 239 21 275 6 36 15 126 20 200 5 74 14 160 20 190 6 30 15 111 20 180 5 69 14 145 20 170 6 25 15 95 20 155 5 61 16 136 24 168 9 32 16 81 16 110 0 29 7 84 16 122 9 39 20 108 24 155 5 47 15 111 24 143 9 32 16 77 16 100 1 23 8 69 16 102 9 33 20 92 25 130 4 39 13 88 20 110 6 22 14 67 19 101 5 33 16 80 24 105 9 24 16 57 16 72 0 36 20 119 31 131 5 6 9 25 9 44 0 38 18 111 32 126 4 6 8 25 8 43 0 18 9 56 20 85 11 29 20 63 20 75 0 12 5 35 11 50 6 15 15 37 19 48 5 11 11 35 14 53 3 19 12 48 20 65 8 18 16 43 19 57 7 35 58 173 68 184 5 6 9 18 9 28 0 10 4 26 9 36 6 9 24 49 41 87 17 39 40 88 50 110 28 60 80 177 89 200 45 109 40 289 -10 402 -11 24 -19 47 -19 53 0 36 -111 193 -175 246 -25 22 -60 51 -78 66 -35 30 -185 107 -232 119 -16 4 -48 14 -70 21 -26 8 -105 12 -225 13 -164 0 -191 -2 -237 -21 -129 -51 -220 -174 -270 -364 -8 -30 -18 -59 -24 -64 -5 -6 -9 -18 -9 -27 0 -27 -15 -31 -52 -12 -18 9 -41 20 -50 25 -10 4 -26 12 -35 17 -74 36 -106 51 -114 51 -5 0 -28 8 -52 18 -83 36 -283 90 -379 102 -36 5 -95 15 -130 24 -66 15 -329 32 -483 30 -123 -2 -311 -19 -360 -34 -22 -6 -53 -14 -70 -17 -16 -2 -39 -8 -50 -13 -11 -5 -40 -16 -65 -24 -106 -34 -291 -128 -370 -187 -84 -64 -186 -143 -190 -148 -3 -3 -43 -40 -90 -81 -83 -73 -152 -144 -221 -225 -19 -22 -36 -42 -39 -45 -78 -77 -367 -478 -450 -625 -11 -19 -29 -51 -40 -70 -11 -19 -29 -51 -40 -70 -11 -19 -29 -51 -40 -70 -52 -92 -66 -117 -115 -215 -56 -110 -103 -211 -150 -320 -55 -128 -47 -110 -114 -292 -11 -29 -25 -71 -31 -93 -7 -22 -16 -44 -21 -49 -5 -6 -9 -17 -9 -27 0 -43 -72 -196 -119 -250 -32 -38 -132 -111 -217 -160 -115 -65 -323 -159 -352 -159 -10 0 -22 -3 -26 -7 -15 -15 -84 -33 -132 -33 -71 0 -79 12 -54 86 11 32 20 71 20 86 0 15 9 51 20 80 11 29 20 62 20 73 0 11 8 47 19 80 28 88 58 193 72 250 6 28 16 54 20 59 5 6 9 21 9 35 0 15 8 53 19 86 25 80 51 178 61 240 5 28 14 68 20 90 7 22 15 67 20 101 5 33 16 80 24 105 9 24 16 67 16 94 0 28 8 79 16 115 35 145 51 691 27 900 -15 127 -42 239 -74 302 -5 10 -9 24 -9 31 0 17 -69 153 -101 199 -100 145 -255 264 -406 313 -26 9 -57 20 -68 25 -11 5 -40 11 -65 13 -25 3 -94 13 -153 22 -105 16 -113 16 -250 -5 -266 -39 -369 -85 -525 -234 -74 -70 -155 -169 -199 -243 -38 -62 -113 -219 -113 -234 0 -6 -9 -39 -19 -73 -30 -95 -52 -194 -62 -276 -4 -41 -14 -102 -21 -135 -18 -86 -18 -702 0 -805 8 -41 18 -115 22 -165 4 -49 13 -108 19 -130 7 -22 16 -67 21 -100 9 -64 30 -153 61 -251 10 -34 19 -68 19 -76 0 -9 9 -37 19 -64 11 -27 29 -76 41 -109 40 -106 54 -138 116 -262 78 -154 141 -243 254 -363 54 -58 90 -103 90 -116 0 -12 -7 -39 -16 -60 -9 -22 -20 -52 -24 -69 -4 -16 -16 -52 -25 -80 -33 -92 -52 -150 -64 -190 -7 -22 -16 -49 -21 -60 -4 -11 -14 -40 -21 -65 -7 -25 -16 -49 -19 -55 -4 -5 -10 -21 -13 -35 -2 -14 -19 -63 -37 -110 -17 -47 -38 -105 -47 -130 -8 -25 -19 -49 -24 -54 -5 -6 -9 -17 -9 -25 0 -19 -42 -81 -55 -81 -16 0 -77 68 -122 135 -107 161 -450 847 -598 1195 -15 36 -36 83 -45 105 -49 108 -60 133 -73 165 -24 58 -68 162 -88 207 -11 24 -19 46 -19 51 0 5 -9 27 -20 50 -11 22 -20 47 -20 55 0 7 -4 17 -9 23 -8 8 -21 42 -62 154 -7 19 -21 54 -31 77 -10 24 -18 46 -18 51 0 5 -9 27 -20 50 -11 22 -20 47 -20 55 0 7 -9 32 -20 55 -11 22 -20 47 -20 55 0 7 -9 32 -20 55 -11 22 -20 50 -20 61 0 11 -4 22 -9 25 -4 3 -14 27 -21 53 -7 27 -21 67 -31 90 -10 24 -19 51 -19 61 0 10 -9 37 -20 60 -11 22 -20 52 -20 65 0 13 -3 27 -7 31 -11 10 -33 79 -33 103 0 12 -4 24 -9 27 -4 3 -14 27 -20 53 -15 58 -46 166 -72 248 -11 33 -19 69 -19 80 0 11 -9 47 -20 79 -11 33 -20 71 -20 85 0 14 -8 46 -16 71 -9 25 -20 74 -24 110 -5 36 -15 94 -24 130 -10 44 -15 117 -16 228 0 177 4 194 62 285 25 38 29 55 25 83 -13 79 -190 263 -332 344 -91 53 -216 106 -275 117 -14 2 -67 13 -117 24 -117 24 -130 24 -293 -2 -117 -19 -226 -49 -335 -93 -67 -27 -153 -84 -217 -144 -76 -72 -108 -117 -119 -171 -39 -193 -41 -209 -36 -306 3 -55 11 -134 17 -175 6 -41 15 -122 20 -180 4 -58 13 -125 19 -150 6 -25 15 -79 20 -120 5 -41 16 -102 25 -135 8 -33 16 -76 16 -95 0 -19 9 -62 20 -94 11 -33 20 -73 20 -90 0 -17 9 -58 20 -90 11 -33 20 -71 20 -85 0 -14 9 -53 20 -85 11 -33 20 -72 20 -87 0 -15 4 -30 8 -33 5 -3 14 -31 22 -63 7 -32 21 -83 31 -114 11 -30 19 -67 19 -80 0 -14 4 -29 8 -34 5 -6 14 -30 21 -55 7 -25 21 -72 31 -105 10 -33 28 -94 40 -135 13 -41 27 -84 31 -95 4 -11 13 -38 20 -60 6 -22 15 -49 20 -60 4 -11 13 -38 20 -60 6 -22 15 -49 20 -60 16 -40 61 -171 66 -190 3 -11 14 -39 24 -62 10 -24 19 -51 19 -61 0 -10 4 -22 9 -27 5 -6 16 -30 24 -55 8 -25 23 -65 32 -90 9 -25 26 -70 37 -100 11 -30 29 -74 39 -97 11 -24 19 -46 19 -51 0 -5 9 -27 20 -50 11 -22 20 -45 20 -50 0 -4 9 -27 20 -50 11 -22 20 -47 20 -55 0 -7 4 -17 8 -23 5 -5 19 -36 32 -69 13 -33 27 -64 32 -69 4 -6 8 -16 8 -23 0 -12 9 -35 60 -148 43 -97 60 -135 60 -139 0 -2 18 -44 41 -93 22 -48 47 -104 56 -123 42 -96 169 -364 213 -450 73 -143 177 -338 208 -393 12 -20 30 -52 40 -70 71 -124 187 -299 246 -372 65 -81 162 -168 213 -194 26 -13 65 -32 86 -42 22 -10 43 -19 48 -19 5 0 28 -8 52 -18 57 -25 131 -51 197 -68 30 -8 59 -19 65 -25 5 -5 21 -9 35 -9 14 0 50 -9 80 -20 30 -11 66 -20 81 -20 14 0 52 -8 85 -19 32 -10 91 -22 129 -25 39 -4 95 -11 125 -15 155 -24 153 -24 205 0 45 20 104 73 105 91 0 4 6 13 13 20 17 17 74 104 117 178 11 19 29 49 39 65 18 31 75 135 144 265 136 256 400 800 516 1065 9 22 27 60 39 85 12 25 22 48 22 52 0 4 18 47 41 95 66 144 76 166 89 200 18 48 35 57 124 64 45 4 104 12 131 19 28 6 84 15 125 19 41 5 101 16 133 25 32 9 73 16 90 16 18 0 37 4 42 8 6 5 30 14 55 21 88 24 158 51 194 74 53 35 56 27 56 -190 0 -124 6 -239 16 -308 8 -60 19 -148 23 -195 9 -89 31 -182 62 -264 11 -27 19 -55 19 -62 0 -22 81 -184 124 -249 133 -200 316 -369 502 -463 11 -5 33 -16 49 -25 53 -27 149 -59 200 -67 222 -34 232 -34 460 0 166 25 438 166 603 313 87 78 291 283 359 362 116 135 314 408 383 530 11 19 29 52 41 73 12 20 25 42 29 47 9 12 42 69 77 137 14 26 29 51 34 53 20 13 21 -57 4 -165 -37 -232 -38 -1576 -1 -1735 9 -38 16 -86 16 -105 0 -20 4 -40 9 -46 4 -5 14 -31 21 -59 115 -445 378 -879 665 -1099 98 -74 194 -129 310 -175 126 -51 348 -66 463 -32 38 12 76 21 85 21 16 0 170 72 232 108 112 65 297 215 435 352 188 189 474 546 615 768 6 9 45 69 88 134 42 65 77 121 77 126 0 5 9 17 20 27 11 10 20 22 20 26 0 4 23 44 51 89 28 45 59 97 70 116 10 19 28 50 39 69 11 19 29 51 40 70 11 19 29 51 40 70 11 19 30 52 42 72 11 21 37 67 56 103 19 36 45 83 57 106 12 22 28 50 34 62 6 12 16 32 23 45 51 98 139 269 180 352 47 96 56 113 77 153 6 9 37 76 71 147 34 72 66 138 71 148 14 27 24 48 52 107 41 90 97 211 127 275 16 33 64 142 109 242 44 101 85 191 90 200 5 10 21 47 36 83 15 36 36 85 47 110 11 25 27 61 35 80 8 19 23 53 33 75 10 22 30 69 45 105 34 81 89 202 115 255 11 22 20 43 20 47 0 4 18 47 41 95 22 49 48 106 58 128 10 22 28 61 40 88 11 26 30 67 41 92 27 60 50 112 100 220 23 50 50 108 60 130 141 308 274 593 349 745 l47 95 75 3 c45 2 100 -4 139 -14 36 -8 77 -18 92 -21 31 -6 41 -24 29 -56 -22 -57 -31 -96 -31 -130 0 -20 -7 -62 -16 -94 -9 -32 -20 -89 -25 -128 -5 -38 -13 -88 -20 -110 -6 -22 -15 -74 -20 -115 -4 -41 -13 -93 -20 -115 -6 -22 -15 -78 -20 -125 -4 -47 -13 -105 -19 -130 -6 -25 -15 -90 -20 -145 -5 -55 -14 -125 -20 -155 -6 -30 -15 -113 -20 -185 -5 -71 -14 -161 -20 -200 -16 -108 -35 -572 -34 -850 1 -289 17 -635 34 -715 6 -30 15 -91 20 -135 15 -145 98 -447 170 -620 95 -227 189 -390 335 -579 104 -134 312 -321 415 -373 16 -8 32 -18 35 -23 3 -4 49 -29 103 -55 234 -113 265 -122 477 -129 302 -10 498 11 625 66 104 46 233 125 310 191 246 211 531 499 720 727 96 117 124 152 163 204 21 28 43 58 50 66 7 9 32 42 56 75 25 33 56 76 71 95 41 55 230 339 230 346 0 4 7 15 15 24 14 16 56 82 105 165 10 17 36 61 60 99 23 38 50 84 61 102 10 19 29 51 40 72 12 20 35 62 52 92 17 30 38 67 49 82 10 14 18 32 18 40 0 8 4 18 9 24 19 19 100 173 306 579 155 308 165 325 180 325 6 0 19 -10 29 -22 10 -13 49 -57 86 -98 123 -138 220 -262 430 -545 126 -169 253 -385 297 -505 62 -164 63 -175 63 -473 l0 -278 -24 -22 c-13 -12 -49 -40 -81 -62 -31 -22 -80 -58 -108 -81 -29 -22 -74 -56 -102 -74 -47 -32 -122 -87 -155 -113 -8 -7 -73 -59 -145 -117 -223 -178 -541 -513 -616 -650 -8 -14 -19 -32 -26 -40 -23 -31 -97 -186 -104 -220 -4 -19 -14 -61 -23 -93 -9 -32 -16 -66 -16 -75 0 -30 48 -169 73 -214 14 -24 37 -65 53 -93 34 -61 214 -242 269 -272 114 -61 256 -123 283 -123 9 0 41 -9 71 -19 31 -11 85 -22 121 -25 36 -3 111 -10 167 -15 98 -10 173 -6 408 18 110 12 286 56 409 102 27 11 55 19 62 19 7 0 29 9 49 20 20 11 40 20 46 20 16 0 257 119 328 161 34 22 65 39 67 39 2 0 27 18 56 40 29 22 57 40 62 40 4 0 31 19 59 42 29 24 59 48 67 55 151 117 335 300 432 429 84 113 111 153 121 174 4 8 18 33 32 55 13 22 33 56 43 75 10 19 23 44 29 55 20 36 93 191 93 198 0 4 8 26 19 50 40 90 101 276 101 309 0 13 10 57 22 98 21 72 22 92 22 476 -1 291 -4 419 -14 463 -18 85 -4 124 74 204 77 80 151 146 196 177 19 13 60 45 90 70 68 57 78 66 162 129 52 40 68 47 77 37 7 -9 12 -225 14 -687 2 -485 6 -687 15 -719 7 -25 15 -61 18 -80 6 -39 37 -145 66 -230 132 -374 321 -607 583 -716 139 -59 188 -69 384 -80 203 -12 435 33 604 117 22 10 44 19 50 19 7 0 23 9 37 20 14 11 30 20 36 20 18 0 218 124 293 181 89 67 187 143 191 148 3 4 34 31 70 61 84 70 310 296 381 380 30 35 70 83 91 105 20 22 62 72 93 110 31 39 71 88 88 109 18 21 49 62 70 90 21 28 57 76 80 105 23 30 53 71 66 90 14 20 52 70 85 111 33 41 61 77 63 79 2 3 9 -1 16 -8 8 -8 14 -67 19 -174 3 -89 11 -196 18 -237 6 -41 15 -124 20 -185 4 -60 13 -132 20 -160 6 -27 15 -77 20 -110 4 -33 15 -86 24 -118 9 -32 16 -70 16 -85 0 -16 4 -32 8 -38 5 -5 14 -29 21 -54 7 -25 19 -65 28 -90 8 -25 18 -56 21 -70 2 -14 8 -29 12 -35 4 -5 17 -37 30 -70 43 -109 174 -345 209 -375 4 -3 19 -22 34 -42 106 -142 292 -275 472 -337 121 -41 454 -37 610 7 207 59 448 191 645 352 24 19 68 56 99 81 200 164 524 528 744 837 63 89 507 751 507 756 0 3 18 32 40 65 62 94 83 83 167 -84 78 -156 107 -208 154 -276 53 -80 198 -248 242 -282 17 -13 46 -37 62 -52 52 -46 137 -101 210 -134 39 -18 78 -36 87 -42 10 -5 28 -9 41 -9 13 0 50 -9 83 -19 122 -39 453 -35 601 7 220 63 380 168 618 406 94 94 192 200 218 236 27 36 55 74 64 84 17 21 122 180 139 211 6 11 21 38 34 60 13 22 38 67 56 100 55 100 58 92 68 -195 12 -311 13 -868 3 -1045 -8 -132 -24 -232 -39 -241 -4 -3 -8 -13 -8 -22 0 -22 -65 -108 -166 -218 -44 -49 -98 -109 -120 -134 -21 -25 -41 -47 -44 -50 -107 -104 -406 -511 -512 -697 -10 -18 -28 -50 -40 -70 -100 -175 -241 -497 -289 -663 -7 -25 -16 -49 -21 -54 -4 -6 -8 -22 -8 -36 0 -14 -9 -50 -20 -80 -11 -30 -20 -67 -20 -82 0 -15 -7 -53 -16 -85 -9 -32 -20 -101 -24 -153 -5 -52 -13 -147 -19 -211 -15 -159 12 -557 42 -639 9 -25 17 -51 17 -58 0 -54 128 -250 225 -346 111 -110 184 -149 345 -182 140 -29 205 -30 346 -4 60 11 123 20 139 20 17 0 35 4 40 8 6 5 30 14 55 22 96 28 243 107 326 175 167 136 292 301 416 544 37 74 68 138 68 143 0 5 9 28 20 50 11 23 20 46 20 50 0 5 9 28 20 50 11 23 20 47 20 54 0 6 8 33 19 60 10 27 24 67 30 89 7 22 16 49 21 60 4 11 14 46 21 78 7 32 16 60 21 63 4 3 8 17 8 31 0 30 20 104 32 117 4 6 8 24 8 40 1 35 22 121 33 132 4 4 7 24 7 44 0 20 8 63 19 96 10 32 21 84 24 114 3 30 12 75 21 100 9 25 16 65 16 90 0 25 8 72 16 105 9 33 20 98 24 145 5 47 14 108 20 135 6 28 15 102 20 165 5 63 14 142 20 175 6 33 15 130 20 215 5 85 14 189 20 230 6 41 15 165 20 275 5 110 14 238 20 285 6 47 14 146 18 220 8 147 6 142 85 230 18 19 52 60 77 90 25 30 47 57 50 60 16 15 152 173 190 220 25 30 47 57 50 60 10 9 127 145 143 165 8 11 51 63 94 115 43 52 83 102 90 110 14 18 143 179 160 200 71 88 143 182 163 210 13 19 27 37 30 40 4 3 30 37 58 75 28 39 55 75 59 80 153 199 309 425 476 687 21 32 37 62 37 67 0 5 7 14 15 21 8 7 21 24 28 39 8 14 23 43 35 64 12 20 31 53 42 72 48 85 59 103 83 145 54 93 147 292 147 315 0 7 -16 23 -36 35 -32 21 -48 22 -185 22 -143 0 -151 -1 -194 -27 -25 -14 -64 -52 -87 -83 -50 -67 -84 -115 -89 -128 -2 -5 -26 -46 -54 -92 -27 -46 -54 -91 -60 -101 -26 -45 -84 -135 -144 -224 -36 -54 -77 -116 -91 -137 -33 -50 -109 -159 -126 -179 -7 -9 -41 -54 -76 -101 -115 -153 -139 -184 -171 -224 -18 -22 -59 -74 -92 -116 -117 -151 -324 -399 -375 -450 -3 -3 -23 -27 -45 -55 -22 -27 -80 -94 -129 -148 -65 -73 -92 -95 -100 -87 -17 17 -15 2499 2 2680 7 74 17 212 22 305 5 94 14 190 20 215 6 25 15 65 19 90 4 25 15 62 25 82 32 66 17 172 -46 315 -10 24 -18 45 -18 48 0 14 -75 117 -117 160 -48 50 -146 135 -156 135 -3 0 -34 17 -68 38 -76 44 -119 62 -251 102 -99 30 -304 29 -379 -2 -57 -23 -125 -66 -172 -107 -69 -61 -130 -209 -141 -341 -4 -41 -11 -100 -17 -130 -5 -30 -14 -138 -19 -240 -5 -102 -14 -212 -20 -245 -6 -33 -15 -116 -20 -185 -5 -69 -14 -147 -20 -175 -7 -27 -15 -90 -20 -140 -5 -49 -14 -110 -20 -135 -6 -25 -15 -79 -20 -120 -5 -41 -14 -93 -20 -115 -7 -22 -15 -71 -20 -110 -4 -38 -15 -90 -24 -115 -9 -25 -16 -57 -16 -72 0 -15 -7 -53 -16 -85 -9 -32 -18 -69 -20 -83 -13 -72 -28 -132 -36 -136 -4 -3 -8 -21 -8 -39 0 -19 -9 -58 -20 -87 -11 -29 -20 -61 -20 -72 0 -17 -23 -97 -57 -196 -8 -25 -19 -61 -23 -80 -4 -19 -14 -52 -23 -74 -10 -21 -17 -45 -17 -53 0 -8 -9 -33 -20 -55 -11 -23 -20 -47 -20 -54 0 -25 -99 -262 -171 -409 -85 -172 -150 -268 -249 -365 -109 -107 -193 -144 -241 -107 -43 33 -86 135 -100 237 -4 36 -13 85 -19 110 -6 25 -15 110 -20 190 -5 80 -15 222 -24 315 -21 241 -21 1253 0 1555 9 118 20 307 24 420 5 113 14 234 20 270 5 36 15 126 20 200 6 74 15 158 21 185 7 28 14 151 16 274 4 209 3 226 -16 267 -12 24 -21 47 -21 50 0 15 -93 134 -149 191 -103 104 -285 217 -396 244 -16 4 -50 14 -75 22 -46 16 -302 57 -353 57 -50 0 -269 -41 -342 -63 -98 -30 -221 -93 -243 -125 -40 -58 -41 -76 -46 -577 -3 -269 -10 -528 -15 -575 -6 -47 -15 -179 -20 -295 -6 -115 -15 -244 -21 -285 -30 -215 -42 -983 -25 -1627 l8 -323 -33 -62 c-19 -35 -42 -79 -53 -98 -11 -19 -33 -59 -48 -87 -72 -132 -88 -161 -114 -208 -15 -27 -43 -79 -63 -115 -38 -69 -60 -108 -92 -165 -11 -19 -29 -51 -40 -70 -11 -19 -29 -51 -40 -70 -11 -19 -29 -51 -40 -70 -11 -19 -29 -50 -39 -69 -11 -18 -37 -62 -58 -97 -22 -35 -46 -75 -54 -88 -32 -54 -271 -410 -316 -470 -69 -92 -202 -239 -265 -293 -30 -26 -88 -64 -129 -85 -66 -33 -84 -38 -161 -41 -80 -4 -92 -2 -132 22 -42 24 -105 93 -135 146 -27 47 -71 163 -71 186 0 12 -4 25 -8 28 -9 5 -28 85 -36 146 -2 19 -9 53 -16 75 -6 22 -15 96 -20 165 -5 69 -15 170 -21 225 -17 129 -16 805 0 1005 7 80 16 249 21 375 5 127 14 262 20 300 5 39 14 149 20 245 5 96 14 202 20 235 6 33 15 128 20 210 5 83 14 175 20 205 6 30 15 116 20 190 6 74 15 158 20 185 6 28 15 104 20 170 5 66 14 145 20 175 6 30 15 107 20 170 5 63 14 138 20 165 6 28 15 102 20 165 5 63 14 138 20 165 6 28 15 100 20 160 5 61 14 133 20 160 6 28 15 100 21 160 5 61 14 133 19 160 6 28 15 97 20 155 5 58 14 128 20 155 6 28 15 97 20 155 6 58 15 125 20 150 6 25 15 90 20 145 6 55 15 120 21 145 6 25 14 81 18 125 5 45 16 95 25 112 32 63 30 63 366 63 297 0 326 2 512 37 34 6 79 56 115 126 24 47 27 63 27 157 0 94 -2 109 -22 137 -12 17 -22 35 -22 39 0 4 -12 21 -27 36 -24 25 -33 28 -94 28 -37 0 -70 -4 -73 -9 -15 -24 -132 -32 -411 -29 l-290 3 3 25 c2 14 7 66 12 115 5 50 14 115 20 145 7 30 14 80 16 110 2 30 9 119 15 197 24 288 -36 462 -220 636 -72 68 -210 167 -233 167 -7 0 -24 9 -38 20 -14 11 -33 20 -43 20 -10 0 -37 9 -59 20 -23 11 -53 20 -67 20 -14 0 -62 7 -106 16 -136 26 -249 27 -329 1z" fill="#030303" id="030303-000001" mask="url(#mask-0)"/>
    <path stroke="none" d="M23585 12261 c-22 -5 -62 -12 -90 -16 -27 -3 -59 -10 -70 -15 -11 -4 -36 -13 -55 -20 -61 -21 -163 -72 -207 -101 -23 -16 -45 -29 -48 -29 -14 0 -113 -87 -210 -185 -93 -93 -103 -106 -123 -171 -33 -104 -29 -171 16 -320 16 -53 81 -132 155 -190 61 -47 297 -174 325 -174 5 0 31 -9 58 -19 27 -10 75 -25 107 -32 32 -7 60 -16 63 -21 3 -4 29 -8 57 -8 29 -1 72 -5 97 -10 25 -5 97 -12 160 -16 93 -5 128 -3 185 11 151 38 350 213 405 355 7 19 17 39 22 45 10 12 11 228 0 241 -5 5 -14 29 -21 54 -7 25 -22 62 -32 83 -10 22 -19 43 -19 49 0 17 -141 218 -192 274 -86 93 -224 178 -333 204 -66 15 -200 21 -250 11z" fill="#030303" id="030303-000002"/>
  </g>
</svg>
