<svg xmlns="http://www.w3.org/2000/svg" version="1.0" width="2008.000000pt" height="2008.000000pt" viewBox="0 0 2008.000000 2008.000000" preserveAspectRatio="xMidYMid meet">
  <g transform="translate(0.000000,2008.000000) scale(0.100000,-0.100000)" stroke="none">
    <path d="M 0 0 H 20080.0 V 20080.0 H 0 Z" fill="#ffffff" id="background"/>
    <path stroke="none" d="M12015 16404 c-140 -30 -223 -63 -317 -126 -515 -344 -533 -1094 -36 -1456 91 -66 243 -133 348 -153 92 -17 279 -17 357 1 231 52 418 177 545 365 46 70 100 177 113 225 3 14 13 50 22 80 21 71 24 313 4 385 -45 172 -110 295 -216 413 -48 53 -156 142 -173 142 -5 0 -17 9 -27 20 -10 11 -22 20 -27 20 -4 0 -27 9 -51 19 -49 22 -141 53 -210 69 -62 16 -256 13 -332 -4z" fill="#000000" id="000000-000001"/>
    <path stroke="none" d="M3405 16165 c-126 -15 -252 -38 -365 -65 -25 -6 -61 -15 -80 -19 -19 -5 -57 -17 -85 -26 -402 -142 -679 -319 -906 -578 -44 -51 -88 -105 -96 -122 -9 -16 -27 -46 -42 -65 -67 -90 -165 -305 -199 -435 -37 -143 -48 -203 -63 -355 -24 -241 19 -573 100 -780 81 -205 192 -372 350 -531 105 -104 257 -229 280 -229 5 0 14 -7 21 -15 7 -8 24 -21 39 -28 14 -8 44 -24 66 -37 119 -69 338 -168 455 -206 25 -8 54 -19 65 -24 39 -16 131 -48 175 -60 25 -7 54 -16 65 -20 11 -4 40 -13 65 -20 90 -25 106 -30 165 -48 33 -11 80 -25 105 -32 25 -7 54 -16 65 -20 11 -4 54 -18 95 -30 41 -12 84 -26 95 -30 11 -5 68 -27 126 -50 240 -94 342 -179 408 -343 21 -54 6 -166 -34 -251 -23 -48 -107 -130 -163 -159 -221 -115 -567 -108 -857 18 -217 94 -342 182 -555 393 -85 85 -167 160 -181 168 -55 28 -120 36 -184 23 -73 -15 -111 -35 -195 -105 -36 -30 -193 -156 -350 -281 -299 -238 -325 -261 -367 -332 -23 -38 -27 -56 -27 -125 -1 -104 14 -147 102 -285 81 -128 285 -324 444 -426 8 -5 35 -23 59 -40 24 -16 107 -61 184 -100 197 -101 384 -171 593 -224 23 -6 59 -15 80 -21 154 -39 359 -66 613 -82 318 -19 712 14 979 82 69 18 185 52 205 61 11 4 43 15 70 24 145 47 361 162 536 284 106 74 306 282 386 401 87 130 170 298 211 425 63 196 86 346 86 575 0 197 -14 318 -56 475 -58 216 -177 439 -323 605 -72 81 -196 194 -260 237 -22 15 -49 35 -60 44 -49 42 -313 177 -445 228 -47 18 -94 37 -105 41 -11 5 -38 14 -60 21 -22 7 -44 16 -50 19 -5 4 -30 12 -55 19 -25 7 -54 17 -65 21 -11 4 -40 13 -65 20 -25 7 -70 20 -100 30 -30 10 -75 23 -100 30 -25 7 -54 16 -65 20 -11 4 -40 13 -65 20 -48 13 -92 27 -125 40 -11 4 -38 13 -60 19 -22 7 -49 16 -60 21 -11 5 -49 19 -85 31 -152 51 -343 149 -424 215 -99 82 -136 153 -136 264 0 74 25 153 65 206 93 122 326 190 567 164 57 -6 114 -14 128 -19 14 -5 45 -14 70 -21 152 -42 307 -146 475 -317 96 -97 143 -137 178 -152 74 -32 145 -27 242 15 47 21 75 42 181 140 96 88 182 165 424 383 125 112 174 167 196 220 21 49 18 150 -6 205 -74 173 -345 435 -596 577 -101 56 -273 137 -359 169 -11 4 -31 12 -45 18 -36 15 -60 23 -100 34 -19 5 -51 14 -70 19 -134 39 -266 64 -448 84 -162 18 -520 18 -677 0z" fill="#000000" id="000000-000002"/>
    <path stroke="none" d="M6470 16028 c-30 -18 -63 -49 -74 -68 l-21 -35 0 -2745 c0 -2565 1 -2747 17 -2781 21 -42 40 -60 93 -85 38 -18 74 -19 636 -19 l596 0 48 30 c30 19 56 45 69 70 21 39 21 52 26 885 l5 845 630 6 c393 3 651 10 685 17 30 6 91 16 135 22 44 6 98 16 120 22 22 5 56 13 75 18 66 16 125 32 145 40 11 5 49 18 85 30 83 27 326 146 407 199 214 139 426 354 546 554 72 119 157 311 187 422 71 261 83 352 84 605 0 198 -13 359 -34 435 -5 17 -13 55 -20 85 -16 81 -54 212 -79 275 -5 11 -13 31 -18 45 -20 48 -103 215 -129 259 -139 236 -330 438 -559 591 -78 53 -302 170 -324 170 -6 0 -19 4 -29 10 -30 16 -166 57 -262 79 -25 5 -56 12 -70 16 -14 3 -81 12 -150 20 -103 12 -355 15 -1445 15 l-1321 0 -54 -32z" fill="#000000" id="000000-000003"/>
    <path stroke="none" d="M8890 14709 c138 -22 242 -72 336 -161 74 -70 107 -121 151 -234 25 -63 27 -81 27 -214 1 -156 -10 -204 -73 -325 -39 -76 -153 -184 -236 -225 -160 -77 -138 -75 -715 -75 l-515 0 -3 610 c-1 336 0 616 3 623 6 16 926 17 1025 1z" fill="#ffffff" id="ffffff-000002"/>
    <path stroke="none" d="M13775 16050 c-3 -5 -14 -10 -23 -10 -22 0 -77 -52 -100 -93 -16 -30 -17 -184 -20 -2751 -1 -1895 1 -2730 8 -2758 16 -59 70 -112 133 -132 48 -15 113 -16 628 -14 521 3 577 5 611 20 35 17 75 60 94 103 5 11 11 737 14 1690 4 1471 7 1670 20 1670 8 0 17 -11 20 -25 5 -22 19 -52 67 -145 22 -44 36 -69 52 -99 16 -29 134 -261 761 -1501 139 -275 268 -526 287 -558 18 -32 33 -63 33 -70 0 -7 9 -23 20 -37 11 -14 20 -32 20 -40 0 -8 9 -26 20 -40 11 -14 20 -33 20 -42 0 -9 4 -19 8 -22 4 -2 32 -53 61 -113 29 -59 57 -117 63 -128 6 -11 66 -128 133 -260 133 -262 168 -308 260 -350 111 -51 93 -50 855 -50 653 0 718 1 751 17 48 23 96 78 109 127 7 27 9 881 8 2757 -3 2512 -4 2721 -20 2749 -21 38 -64 78 -107 99 -30 14 -98 16 -622 16 l-588 0 -43 -24 c-24 -13 -56 -42 -73 -66 l-30 -42 -5 -1601 c-3 -881 -6 -1604 -8 -1606 -1 -3 -6 -1 -11 5 -10 9 -400 789 -476 949 -23 50 -245 497 -492 995 -247 498 -488 984 -535 1081 -109 224 -140 260 -257 298 -45 15 -1637 16 -1646 1z" fill="#000000" id="000000-000004"/>
    <path stroke="none" d="M11591 14363 c-35 -7 -105 -82 -119 -129 -18 -60 -18 -3723 0 -3790 18 -67 66 -117 131 -138 48 -15 109 -17 603 -14 596 3 567 0 632 61 66 63 62 -61 62 1993 0 1804 -1 1864 -19 1906 -10 24 -35 59 -55 78 l-37 35 -587 1 c-323 1 -598 0 -611 -3z" fill="#000000" id="000000-000005"/>
    <path stroke="none" d="M3015 8864 c-318 -45 -512 -157 -719 -414 -65 -81 -216 -369 -216 -413 0 -7 -4 -17 -8 -22 -5 -6 -14 -30 -22 -55 -7 -25 -21 -70 -30 -100 -10 -30 -21 -71 -25 -90 -4 -19 -11 -53 -16 -75 -9 -38 -18 -90 -40 -220 -17 -102 -38 -413 -39 -555 0 -202 24 -521 50 -650 18 -93 31 -156 41 -200 12 -52 48 -176 60 -205 4 -11 18 -49 30 -85 59 -174 194 -395 318 -519 62 -62 218 -181 237 -181 2 0 23 -9 47 -19 114 -51 151 -61 292 -82 78 -12 323 -5 370 10 17 5 55 15 85 22 30 7 62 15 70 20 8 4 45 19 82 34 71 29 172 92 252 158 104 87 244 295 295 437 7 19 17 44 21 55 7 19 16 51 38 140 6 22 16 97 23 167 24 244 -19 515 -91 581 l-30 27 -345 0 -345 0 -4 -22 c-3 -13 -7 -149 -10 -303 -2 -176 -8 -295 -16 -320 -6 -22 -18 -62 -26 -90 -39 -135 -121 -215 -221 -215 -30 0 -67 7 -82 14 -66 35 -134 147 -163 271 -79 336 -102 1124 -48 1630 16 149 42 272 77 365 31 82 83 153 127 174 47 22 128 21 175 -4 75 -38 122 -115 161 -265 9 -34 15 -142 17 -335 2 -157 6 -295 9 -307 l4 -23 347 0 346 0 31 33 c18 19 38 54 45 78 7 24 17 53 21 64 4 11 13 82 21 158 13 142 5 297 -23 422 -15 66 -64 218 -90 275 -19 43 -96 180 -108 190 -3 3 -18 22 -33 43 -117 156 -343 313 -517 359 -135 35 -334 55 -425 42z" fill="#000000" id="000000-000006"/>
    <path stroke="none" d="M9145 8864 c-61 -8 -151 -25 -190 -36 -168 -44 -357 -170 -487 -325 -38 -45 -68 -83 -68 -86 0 -3 -18 -33 -40 -66 -22 -33 -40 -63 -40 -66 0 -4 -8 -19 -18 -33 -22 -31 -83 -174 -107 -247 -9 -27 -20 -59 -24 -70 -8 -19 -23 -68 -42 -140 -13 -53 -44 -204 -58 -295 -30 -182 -35 -272 -35 -595 0 -340 2 -365 45 -640 15 -97 36 -200 58 -277 6 -21 15 -53 20 -70 5 -18 19 -60 31 -93 160 -442 423 -724 760 -815 25 -7 59 -17 75 -24 43 -16 375 -14 445 2 77 18 132 33 155 42 11 5 47 18 79 31 144 55 327 207 424 352 53 78 132 234 132 260 0 9 4 18 9 21 5 3 11 18 14 33 3 16 11 46 17 68 24 80 32 154 37 335 5 196 -3 278 -39 385 -11 35 -32 72 -49 88 l-29 27 -345 0 c-249 0 -346 -3 -351 -12 -4 -6 -6 -114 -5 -239 3 -359 -30 -523 -126 -630 -48 -53 -81 -69 -141 -69 -128 0 -205 103 -261 350 -42 183 -56 408 -56 890 0 544 16 744 77 975 34 130 109 235 177 248 88 18 166 -5 214 -63 91 -107 119 -254 115 -610 -1 -135 1 -251 6 -258 5 -9 89 -12 349 -12 309 0 344 2 363 18 44 36 73 106 93 223 14 84 14 352 0 438 -43 264 -149 488 -315 661 -162 169 -315 254 -555 309 -51 11 -266 22 -314 15z" fill="#000000" id="000000-000007"/>
    <path stroke="none" d="M14280 8864 c-82 -7 -212 -33 -265 -54 -181 -70 -276 -130 -401 -254 -50 -50 -113 -125 -141 -166 -84 -125 -195 -367 -235 -510 -85 -309 -117 -573 -118 -971 0 -583 73 -974 250 -1334 164 -333 387 -526 680 -587 87 -17 299 -17 375 1 185 45 353 188 437 374 12 26 27 46 32 44 6 -2 17 -37 23 -78 7 -41 17 -99 23 -129 5 -30 13 -72 16 -93 5 -27 16 -45 39 -63 31 -24 36 -24 222 -24 177 0 192 1 217 21 l26 20 0 1025 c0 926 -2 1027 -16 1049 l-16 25 -547 0 c-471 -1 -549 -3 -566 -16 -19 -14 -20 -28 -23 -319 -4 -377 -20 -345 173 -345 l135 0 0 -198 c0 -243 -13 -331 -65 -447 -46 -103 -115 -154 -208 -155 -58 0 -116 33 -153 89 -30 46 -82 192 -95 271 -6 30 -14 80 -19 110 -49 288 -55 1203 -9 1520 31 217 76 348 142 418 75 78 176 95 259 43 113 -72 140 -167 136 -479 -2 -169 0 -205 12 -213 9 -5 158 -8 367 -7 l351 3 27 25 c36 34 46 54 61 125 19 84 18 323 -1 413 -49 234 -151 430 -304 583 -63 63 -216 179 -236 179 -3 0 -27 9 -53 21 -82 36 -108 45 -212 68 -51 11 -252 21 -320 15z" fill="#000000" id="000000-000008"/>
    <path stroke="none" d="M16860 8864 c-14 -2 -56 -9 -95 -15 -145 -23 -291 -87 -413 -181 -93 -72 -118 -97 -212 -214 -93 -115 -213 -360 -261 -531 -5 -18 -14 -50 -20 -70 -88 -312 -129 -741 -109 -1143 12 -221 37 -436 69 -575 5 -22 12 -56 16 -75 4 -19 10 -46 15 -60 4 -14 13 -45 20 -70 7 -25 16 -54 20 -65 5 -11 19 -49 31 -85 19 -58 98 -222 147 -305 36 -62 142 -193 198 -244 134 -123 282 -199 469 -242 80 -19 350 -19 430 0 206 48 351 122 489 252 141 131 291 370 352 558 8 25 19 55 23 66 5 11 14 40 21 65 7 25 16 56 20 70 5 14 13 45 18 70 6 25 13 56 17 70 40 171 75 527 75 775 -1 147 -21 442 -39 560 -21 134 -31 192 -40 230 -6 22 -15 60 -21 85 -6 25 -14 59 -17 75 -3 17 -9 35 -12 40 -4 6 -13 30 -20 55 -24 81 -36 111 -110 260 -102 207 -235 365 -403 480 -47 33 -89 60 -92 60 -4 0 -28 9 -54 21 -86 38 -123 50 -222 69 -60 12 -250 21 -290 14z" fill="#000000" id="000000-000009"/>
    <path stroke="none" d="M17042 8131 c28 -18 57 -48 74 -76 68 -116 112 -312 136 -600 18 -227 15 -909 -6 -1120 -17 -171 -28 -247 -45 -320 -6 -22 -13 -53 -16 -70 -21 -101 -95 -219 -157 -249 -39 -20 -110 -21 -146 -2 -71 37 -134 146 -163 281 -56 258 -64 381 -64 935 0 632 13 782 88 1025 60 193 180 271 299 196z" fill="#ffffff" id="ffffff-000003"/>
    <path stroke="none" d="M4426 8789 l-26 -20 0 -1850 0 -1850 26 -24 27 -25 381 0 c324 1 384 3 401 16 20 15 20 30 25 807 l5 792 270 0 270 0 5 -792 c5 -777 5 -792 25 -807 17 -13 77 -15 403 -16 l383 0 25 25 24 24 -2 1852 -3 1851 -24 19 c-22 18 -44 19 -405 19 -314 0 -386 -3 -402 -14 -18 -14 -19 -36 -24 -723 l-5 -708 -270 0 -270 0 -5 702 c-5 649 -6 704 -22 723 -17 19 -28 20 -402 20 -373 0 -384 -1 -410 -21z" fill="#000000" id="000000-000010"/>
    <path stroke="none" d="M6960 8790 c-20 -20 -20 -33 -20 -1874 l0 -1855 26 -20 c26 -20 37 -21 404 -21 l377 0 27 25 26 24 0 1835 c0 1271 -3 1843 -11 1863 -5 15 -16 31 -22 35 -7 4 -186 8 -399 8 -375 0 -389 -1 -408 -20z" fill="#000000" id="000000-000011"/>
    <path stroke="none" d="M11192 8785 c-16 -14 -32 -37 -35 -52 -6 -32 -31 -153 -47 -228 -17 -76 -29 -131 -70 -330 -4 -22 -13 -65 -20 -95 -6 -30 -15 -73 -20 -95 -4 -22 -13 -67 -20 -100 -7 -33 -16 -79 -21 -102 -5 -24 -13 -62 -18 -85 -5 -24 -14 -68 -20 -98 -6 -30 -16 -75 -22 -100 -5 -25 -14 -70 -19 -100 -5 -30 -14 -75 -20 -100 -6 -25 -16 -67 -21 -95 -6 -27 -15 -70 -20 -95 -6 -25 -14 -65 -19 -90 -5 -25 -14 -67 -20 -95 -6 -27 -15 -70 -20 -95 -5 -25 -14 -67 -20 -95 -6 -27 -15 -72 -21 -100 -5 -27 -14 -70 -20 -95 -5 -25 -14 -67 -20 -95 -5 -27 -13 -70 -19 -95 -5 -25 -14 -67 -20 -95 -5 -27 -14 -70 -20 -95 -6 -25 -15 -70 -21 -100 -6 -30 -15 -75 -20 -100 -6 -25 -14 -65 -19 -90 -5 -25 -14 -67 -20 -95 -6 -27 -15 -72 -21 -100 -5 -27 -14 -70 -20 -95 -5 -25 -14 -67 -19 -95 -6 -27 -14 -70 -20 -95 -5 -25 -14 -67 -20 -95 -5 -27 -16 -81 -25 -120 -20 -93 -19 -102 11 -130 l27 -25 381 1 c445 1 432 -2 452 90 7 30 18 95 24 144 6 50 15 110 20 135 5 25 14 81 20 125 16 117 32 218 36 233 3 9 75 12 319 12 243 0 317 -3 320 -12 4 -12 41 -243 51 -328 8 -57 44 -293 50 -319 3 -13 19 -37 36 -53 l30 -28 398 0 c365 0 398 1 412 18 32 35 31 73 -2 222 -6 25 -15 70 -21 100 -13 64 -23 115 -39 185 -6 28 -15 73 -21 100 -5 28 -14 70 -20 95 -5 25 -14 68 -19 95 -6 28 -14 70 -20 95 -5 25 -15 70 -21 100 -6 30 -15 74 -20 98 -5 23 -13 61 -18 85 -5 23 -14 67 -20 97 -6 30 -15 73 -20 95 -14 62 -31 145 -42 200 -5 28 -13 70 -19 95 -6 25 -15 68 -20 95 -6 28 -15 68 -20 90 -4 22 -13 65 -19 95 -6 30 -15 75 -21 100 -6 25 -15 68 -20 95 -5 28 -14 70 -20 95 -6 25 -14 65 -19 90 -21 106 -53 259 -65 315 -8 33 -19 87 -26 120 -7 33 -16 83 -22 110 -5 28 -14 66 -18 85 -5 19 -14 62 -20 95 -7 33 -21 101 -31 150 -11 50 -24 111 -29 138 -6 26 -15 68 -20 95 -6 26 -17 81 -26 122 -36 175 -44 197 -79 210 -16 6 -219 10 -515 10 l-488 0 -30 -25z" fill="#000000" id="000000-000012"/>
    <path stroke="none" d="M11715 7908 c3 -18 12 -94 20 -168 15 -140 27 -229 45 -340 6 -36 15 -96 20 -135 5 -38 14 -99 20 -135 6 -36 16 -94 21 -130 5 -36 13 -92 18 -125 5 -33 14 -94 20 -135 6 -41 16 -106 23 -145 6 -38 12 -90 12 -115 l1 -45 -210 0 -210 0 2 40 c1 22 7 69 13 105 5 36 19 126 30 200 20 138 34 223 50 320 5 30 18 118 30 195 32 222 41 277 51 320 7 32 17 199 19 308 0 30 19 18 25 -15z" fill="#ffffff" id="ffffff-000004"/>
  </g>
</svg>
