<svg xmlns="http://www.w3.org/2000/svg" version="1.0" width="480.000000pt" height="608.000000pt" viewBox="0 0 480.000000 608.000000" preserveAspectRatio="xMidYMid meet">
  <g transform="translate(0.000000,608.000000) scale(0.100000,-0.100000)" stroke="none">
    <path stroke="none" d="M1437 5958 c-15 -16 -29 -28 -31 -28 -2 0 -67 -7 -145 -15 -149 -16 -214 -33 -339 -91 -107 -50 -164 -72 -257 -101 -177 -54 -195 -63 -276 -144 -42 -42 -80 -87 -84 -100 -4 -13 -16 -35 -26 -49 -47 -67 -43 -223 8 -322 25 -48 25 -48 76 -48 37 0 56 5 72 20 21 20 23 20 61 4 107 -45 124 -47 532 -51 369 -4 393 -6 402 -23 7 -13 6 -30 -3 -56 -11 -34 -24 -45 -127 -105 -63 -36 -155 -90 -205 -119 -99 -58 -137 -80 -192 -111 -21 -12 -60 -36 -88 -54 -62 -40 -201 -123 -236 -142 -15 -7 -32 -20 -39 -28 -7 -8 -16 -15 -21 -15 -13 0 -220 -138 -259 -174 -90 -80 -120 -150 -120 -277 0 -75 19 -132 57 -175 10 -10 25 -32 33 -47 24 -48 67 -77 111 -77 46 0 79 14 79 34 0 7 6 26 14 42 8 16 21 45 30 64 23 49 61 94 73 87 6 -4 13 -29 17 -56 8 -64 22 -74 94 -69 54 4 64 9 134 65 152 124 198 192 198 290 0 41 0 41 48 53 80 20 174 29 237 24 33 -3 78 -6 100 -7 22 -2 46 -6 53 -10 9 -7 12 -339 12 -1608 l0 -1600 -25 -77 c-50 -151 -150 -310 -297 -473 -52 -57 -102 -110 -111 -118 -12 -10 -17 -29 -17 -71 l0 -57 38 -6 c45 -7 106 4 152 26 18 9 37 17 42 17 17 0 195 89 275 137 43 25 89 52 102 59 26 14 99 65 192 134 33 25 82 61 109 81 134 98 457 413 596 580 61 73 166 209 193 248 13 20 40 59 60 86 20 28 42 59 48 70 142 233 183 303 189 320 4 11 10 22 13 25 3 3 14 21 23 40 9 19 24 46 31 60 19 33 78 159 112 240 15 36 36 82 46 103 10 22 19 47 19 56 0 9 4 21 9 26 10 11 50 120 88 240 14 44 29 89 33 100 5 11 11 31 14 45 2 14 10 43 16 65 80 281 131 627 137 935 6 249 -32 566 -94 790 -8 30 -18 67 -20 83 -3 15 -9 30 -14 33 -5 3 -9 15 -9 28 0 12 -3 26 -7 29 -7 7 -43 106 -43 118 0 6 126 -35 215 -70 67 -27 147 -66 214 -104 20 -11 46 -25 58 -32 205 -109 485 -341 582 -482 41 -60 109 -145 139 -176 23 -24 34 -27 76 -25 46 3 50 5 58 33 9 33 -4 99 -32 155 -29 58 -100 210 -100 215 0 3 -18 44 -41 92 -23 49 -49 106 -59 128 -69 151 -126 276 -167 365 -33 71 -73 158 -113 245 -10 22 -32 69 -48 105 -17 36 -42 92 -57 125 -32 72 -66 147 -99 218 -14 28 -43 92 -64 141 -22 48 -48 99 -58 113 l-19 24 -1175 2 -1174 2 -29 -27z" fill="#ffffff" id="ffffff-000001"/>
  </g>
</svg>
