<?xml version="1.0" standalone="no"?>
<!DOCTYPE svg PUBLIC "-//W3C//DTD SVG 1.1//EN"
 "http://www.w3.org/Graphics/SVG/1.1/DTD/svg11.dtd">
<!-- Created with svg_stack (http://github.com/astraw/svg_stack) -->
<svg xmlns:sodipodi="http://sodipodi.sourceforge.net/DTD/sodipodi-0.dtd" xmlns="http://www.w3.org/2000/svg" version="1.1" width="107.0" height="107.0">
  <defs/>
  <g id="id0:id0" transform="matrix(1.25,0,0,1.25,0.0,0.0)"><g transform="translate(0.000000,85.600000) scale(0.040000,-0.040000)" fill="#d1d3d4" stroke="none">
<path d="M971 2046 c-20 -21 -22 -31 -16 -63 4 -21 13 -45 21 -55 18 -19 11 -25 -36 -29 l-35 -4 2 32 c3 35 -23 90 -50 107 -25 16 -53 -5 -49 -37 3 -27 -11 -42 -28 -32 -7 4 -7 12 0 25 6 12 7 21 0 25 -10 6 -51 -14 -62 -32 -5 -6 -16 -9 -27 -6 -10 3 -22 0 -25 -6 -4 -6 -16 -11 -27 -11 -20 0 -26 -15 -9 -25 6 -4 8 -10 5 -15 -3 -5 -1 -11 5 -15 6 -4 8 -11 4 -16 -3 -5 -10 -7 -15 -3 -5 3 -7 10 -4 15 8 12 -38 29 -63 22 -11 -2 -22 -13 -25 -24 -3 -13 -14 -19 -31 -19 -14 0 -26 -2 -26 -5 0 -8 23 -47 38 -67 10 -11 10 -18 2 -23 -14 -9 -60 21 -60 40 0 18 -12 19 -28 3 -20 -20 -14 -34 28 -63 45 -31 41 -59 -3 -30 -14 9 -34 15 -44 13 -13 -2 -17 2 -15 15 5 29 -31 17 -38 -13 -3 -14 -11 -25 -17 -25 -25 0 -25 -17 0 -43 37 -38 24 -46 -27 -17 -37 21 -43 22 -43 7 0 -9 4 -22 9 -29 16 -20 -12 -26 -33 -7 -14 13 -23 14 -30 7 -8 -8 -1 -18 27 -36 22 -13 45 -32 53 -41 20 -24 -14 -34 -39 -11 -10 9 -24 14 -30 10 -6 -4 -18 -1 -26 6 -22 18 -30 2 -10 -20 10 -11 13 -22 8 -25 -5 -3 -15 1 -22 9 -7 8 -17 12 -22 9 -5 -4 5 -21 23 -40 27 -28 30 -34 16 -40 -18 -7 -40 3 -32 16 3 4 -2 13 -9 19 -10 9 -16 9 -21 1 -4 -6 -4 -14 -1 -17 3 -3 1 -12 -5 -20 -9 -10 -8 -17 1 -28 7 -8 9 -15 5 -15 -17 0 32 -43 69 -62 38 -19 39 -21 21 -34 -25 -19 -29 -18 -65 12 -24 21 -34 24 -43 15 -9 -10 -4 -20 25 -47 37 -33 80 -45 93 -24 11 18 22 1 17 -25 -2 -14 -14 -31 -26 -37 -11 -6 -24 -16 -28 -21 -11 -18 -59 -14 -69 5 -10 18 -49 26 -49 10 0 -5 11 -19 25 -32 28 -26 23 -44 -10 -36 -30 8 -53 -17 -35 -39 7 -8 10 -25 6 -40 -6 -23 3 -33 17 -19 8 8 135 9 143 1 3 -3 10 -42 15 -86 5 -44 14 -92 21 -108 6 -15 12 -35 13 -44 1 -9 5 -21 9 -27 4 -6 -3 -16 -14 -22 -16 -9 -22 -8 -26 5 -3 8 -15 15 -25 15 -25 0 -24 -16 2 -23 19 -5 20 -7 4 -30 -16 -25 -11 -56 11 -70 7 -4 11 -14 8 -22 -4 -8 -2 -15 3 -15 13 0 43 33 43 47 0 6 6 16 14 22 10 9 21 -1 50 -49 20 -32 57 -83 82 -112 l44 -52 -47 -48 c-37 -37 -44 -51 -35 -60 9 -9 20 -4 47 22 19 19 35 41 35 49 0 8 8 23 17 33 l16 18 24 -21 c21 -21 24 -21 41 -6 17 15 19 15 35 -1 15 -14 21 -15 38 -4 16 10 24 11 35 1 11 -9 21 -9 37 -2 16 7 29 8 41 1 13 -8 22 -6 34 6 14 14 17 14 33 0 14 -12 22 -13 38 -4 15 8 27 8 42 0 16 -9 24 -8 38 4 16 14 19 14 33 0 12 -13 20 -14 37 -5 15 9 27 9 42 1 15 -8 24 -8 34 0 10 8 19 8 34 0 15 -8 27 -8 41 0 16 9 22 8 26 -5 9 -23 43 -18 48 8 2 12 9 256 15 542 10 515 16 594 43 567 16 -16 25 -185 32 -607 4 -198 9 -397 12 -442 l6 -81 132 -1 c121 -1 134 0 151 19 10 11 24 20 32 20 7 0 13 6 13 13 0 8 12 24 26 38 14 13 46 56 71 96 l46 72 24 -16 c18 -12 23 -22 18 -40 -8 -34 10 -28 41 12 24 31 25 39 15 61 -6 15 -9 35 -6 45 7 21 -14 26 -32 8 -13 -13 -36 -2 -27 13 4 6 8 18 9 27 1 9 7 29 14 46 7 16 15 59 18 95 8 95 12 99 90 102 l67 3 2 33 c1 23 -4 36 -18 43 -18 10 -18 12 -4 28 22 24 20 40 -6 68 -16 17 -19 26 -10 35 8 8 8 17 1 31 -7 13 -8 22 -1 29 6 6 8 17 5 25 -3 7 2 22 11 32 13 14 14 21 6 26 -7 4 -24 -8 -42 -30 -22 -25 -34 -33 -41 -26 -8 8 -16 6 -28 -5 -10 -9 -20 -11 -23 -6 -3 5 1 15 9 22 8 7 15 9 15 4 0 -4 11 3 25 16 33 31 34 63 1 54 -34 -8 -40 11 -10 31 22 14 24 19 12 33 -15 19 -17 41 -4 60 12 19 -1 27 -19 12 -8 -7 -25 -10 -39 -6 -15 4 -28 0 -36 -9 -7 -8 -17 -12 -22 -9 -5 4 5 22 23 40 l33 34 -27 27 -27 27 -28 -27 c-32 -31 -43 -28 -33 11 5 18 14 26 25 24 13 -2 17 2 14 20 -2 17 -9 23 -28 23 -19 0 -29 -9 -44 -38 -11 -23 -22 -35 -27 -30 -11 11 7 70 29 96 14 16 14 19 -1 34 -15 16 -18 15 -37 -2 -11 -10 -20 -28 -20 -41 0 -26 -17 -41 -31 -27 -6 6 -1 28 12 57 24 55 16 74 -22 54 -42 -22 -81 -57 -75 -67 12 -19 -10 -19 -34 -1 l-24 18 17 20 c9 10 17 31 17 47 0 16 7 36 16 46 9 10 13 23 9 28 -8 14 -42 14 -50 1 -9 -14 -25 -2 -19 13 2 7 -4 22 -16 32 l-20 18 -20 -18 c-11 -10 -20 -23 -20 -29 -1 -21 -37 -59 -49 -51 -9 5 -8 12 5 26 14 15 15 21 4 34 -13 16 -7 30 13 30 7 0 12 7 12 15 0 8 -6 15 -12 14 -7 -1 -20 -2 -28 -2 -8 -1 -15 -12 -15 -24 -1 -29 -34 -73 -49 -64 -17 11 -13 41 10 70 24 31 17 48 -17 40 -16 -4 -31 -1 -42 9 -18 16 -47 8 -47 -13 0 -5 -3 -10 -7 -10 -5 0 -11 0 -14 0 -4 0 -1 6 5 14 9 11 8 18 -5 31 -16 15 -18 15 -35 -2 -10 -10 -20 -32 -22 -48 -5 -47 -22 -40 -22 9 -1 57 -9 65 -40 36 l-25 -23 -23 21 c-29 27 -29 27 -56 -2z m239 -95 c0 -26 -27 -58 -39 -46 -6 7 -5 21 5 43 14 34 34 36 34 3z m-395 -31 c-5 -8 -11 -8 -17 -2 -6 6 -7 16 -3 22 5 8 11 8 17 2 6 -6 7 -16 3 -22z m324 6 c9 -10 9 -16 1 -21 -13 -8 -42 14 -34 26 8 13 20 11 33 -5z m-545 -47 c-3 -5 -10 -7 -15 -3 -5 3 -7 10 -3 15 3 5 10 7 15 3 5 -3 7 -10 3 -15z m914 -15 c-4 -23 -26 -30 -34 -10 -8 20 15 51 29 37 5 -5 7 -17 5 -27z m-674 5 c-3 -5 -10 -7 -15 -3 -5 3 -7 10 -3 15 3 5 10 7 15 3 5 -3 7 -10 3 -15z m-280 -31 c-3 -5 -12 -4 -20 3 -7 6 -11 15 -8 21 3 5 12 4 20 -3 7 -6 11 -15 8 -21z m210 11 c-3 -5 -10 -7 -15 -3 -5 3 -7 10 -3 15 3 5 10 7 15 3 5 -3 7 -10 3 -15z m630 0 c-3 -5 -10 -7 -15 -3 -5 3 -7 10 -3 15 3 5 10 7 15 3 5 -3 7 -10 3 -15z m-780 -10 c-3 -5 -10 -7 -15 -3 -5 3 -7 10 -3 15 3 5 10 7 15 3 5 -3 7 -10 3 -15z m110 0 c-3 -5 -10 -7 -15 -3 -5 3 -7 10 -3 15 3 5 10 7 15 3 5 -3 7 -10 3 -15z m290 -40 c-3 -5 -10 -7 -15 -3 -5 3 -7 10 -3 15 3 5 10 7 15 3 5 -3 7 -10 3 -15z m130 0 c-3 -5 -10 -7 -15 -3 -5 3 -7 10 -3 15 3 5 10 7 15 3 5 -3 7 -10 3 -15z m-530 -30 c-3 -5 -10 -7 -15 -3 -5 3 -7 10 -3 15 3 5 10 7 15 3 5 -3 7 -10 3 -15z m1000 -50 c-3 -5 -10 -7 -15 -3 -5 3 -7 10 -3 15 3 5 10 7 15 3 5 -3 7 -10 3 -15z m-1181 -23 c10 -3 15 -11 12 -17 -4 -5 1 -16 11 -23 13 -10 14 -15 5 -21 -8 -4 -27 7 -51 30 -39 38 -45 63 -12 46 9 -5 25 -12 35 -15z m71 -17 c-3 -5 -10 -7 -15 -3 -5 3 -7 10 -3 15 3 5 10 7 15 3 5 -3 7 -10 3 -15z m150 -10 c-3 -5 -10 -7 -15 -3 -5 3 -7 10 -3 15 3 5 10 7 15 3 5 -3 7 -10 3 -15z m1040 -20 c-3 -5 -10 -7 -15 -3 -5 3 -7 10 -3 15 3 5 10 7 15 3 5 -3 7 -10 3 -15z m-1270 -50 c-3 -5 -10 -7 -15 -3 -5 3 -7 10 -3 15 3 5 10 7 15 3 5 -3 7 -10 3 -15z m1395 -5 c-6 -7 -15 -11 -21 -8 -5 3 -4 12 3 20 6 7 15 11 21 8 5 -3 4 -12 -3 -20z m-75 -5 c-3 -5 -10 -7 -15 -3 -5 3 -7 10 -3 15 3 5 10 7 15 3 5 -3 7 -10 3 -15z m61 -58 c7 -12 -12 -24 -25 -16 -11 7 -4 25 10 25 5 0 11 -4 15 -9z m113 -3 c19 -19 15 -26 -24 -44 -27 -13 -38 -14 -47 -5 -9 10 -5 18 18 37 35 28 37 28 53 12z m-1614 -119 c-3 -5 -10 -7 -15 -3 -5 3 -7 10 -3 15 3 5 10 7 15 3 5 -3 7 -10 3 -15z m110 -30 c-3 -5 -10 -7 -15 -3 -5 3 -7 10 -3 15 3 5 10 7 15 3 5 -3 7 -10 3 -15z m1470 -60 c-3 -5 -10 -7 -15 -3 -5 3 -7 10 -3 15 3 5 10 7 15 3 5 -3 7 -10 3 -15z m100 -20 c-3 -5 -10 -7 -15 -3 -5 3 -7 10 -3 15 3 5 10 7 15 3 5 -3 7 -10 3 -15z m-69 -25 c-10 -7 -22 -11 -28 -7 -6 3 -3 11 8 19 10 7 22 11 28 7 6 -3 3 -11 -8 -19z m-1 -55 c-3 -5 -10 -7 -15 -3 -5 3 -7 10 -3 15 3 5 10 7 15 3 5 -3 7 -10 3 -15z m-1674 -79 c0 -26 -15 -33 -30 -15 -10 12 -10 18 0 30 15 18 30 11 30 -15z m1685 -20 c-5 -8 -11 -8 -17 -2 -6 6 -7 16 -3 22 5 8 11 8 17 2 6 -6 7 -16 3 -22z m-365 -304 c0 -13 7 -29 16 -37 20 -16 64 -103 64 -125 0 -10 6 -25 14 -33 8 -9 16 -34 18 -56 l3 -40 -130 0 -130 0 3 35 c2 19 10 43 18 54 8 11 14 28 14 37 0 26 37 103 60 124 11 10 20 28 20 40 0 12 3 25 6 28 12 11 24 -3 24 -27z m-426 -78 c17 -53 16 -68 -5 -78 -15 -8 -24 -8 -34 0 -10 8 -19 8 -34 0 -15 -8 -27 -8 -42 1 -17 9 -25 8 -37 -5 -14 -14 -17 -14 -33 0 -14 12 -22 13 -38 4 -15 -8 -27 -8 -41 0 -16 8 -23 7 -37 -10 l-18 -20 -16 21 c-13 18 -19 20 -38 10 -14 -8 -27 -9 -38 -2 -11 6 -24 6 -35 0 -12 -6 -25 -6 -36 0 -14 7 -25 6 -39 -4 -18 -13 -22 -13 -34 1 -12 15 -14 68 -2 87 2 4 128 7 279 7 211 0 276 -3 278 -12z m-590 -67 c3 -5 -1 -14 -8 -20 -16 -13 -32 2 -21 19 8 12 22 13 29 1z m650 -12 c-3 -5 -10 -7 -15 -3 -5 3 -7 10 -3 15 3 5 10 7 15 3 5 -3 7 -10 3 -15z"/>
<path d="M1965 1540 c-4 -6 -2 -17 4 -24 6 -7 9 -15 6 -18 -3 -3 1 -11 10 -18 8 -7 15 -19 15 -26 0 -8 5 -14 10 -14 13 0 13 17 0 25 -6 4 -8 10 -5 14 4 8 -22 71 -30 71 -2 0 -7 -5 -10 -10z"/>
<path d="M2045 1320 c-4 -6 -3 -16 3 -22 6 -6 12 -6 17 2 4 6 3 16 -3 22 -6 6 -12 6 -17 -2z"/>
<path d="M2057 1245 c-7 -16 8 -29 23 -20 10 6 2 35 -10 35 -4 0 -10 -7 -13 -15z"/>
<path d="M1560 370 c0 -5 5 -10 10 -10 6 0 10 5 10 10 0 6 -4 10 -10 10 -5 0 -10 -4 -10 -10z"/>
<path d="M1524 342 c-12 -2 -30 -12 -40 -23 -9 -10 -23 -19 -29 -19 -7 0 -15 -6 -18 -14 -3 -9 -15 -12 -31 -9 -22 5 -26 2 -26 -20 0 -15 9 -31 24 -41 17 -11 23 -22 19 -36 -6 -24 18 -28 37 -5 9 11 16 13 23 6 7 -7 6 -15 -2 -25 -22 -27 8 -28 42 -2 19 15 39 26 44 26 13 0 38 29 31 36 -3 3 -21 -4 -41 -15 -19 -11 -38 -17 -41 -14 -8 9 34 53 51 53 19 0 16 14 -7 35 -11 10 -17 22 -14 27 4 5 19 -2 34 -17 38 -36 55 -25 32 20 -10 21 -22 33 -31 30 -7 -3 -19 -2 -25 3 -6 4 -21 6 -32 4z m-30 -73 c-3 -5 -10 -7 -15 -3 -5 3 -7 10 -3 15 3 5 10 7 15 3 5 -3 7 -10 3 -15z m20 -40 c-3 -5 -10 -7 -15 -3 -5 3 -7 10 -3 15 3 5 10 7 15 3 5 -3 7 -10 3 -15z"/>
<path d="M1320 232 c0 -16 3 -32 8 -36 4 -4 7 -18 7 -29 0 -13 6 -22 15 -22 18 0 16 44 -3 88 -15 35 -27 35 -27 -1z"/>
<path d="M816 232 c-8 -13 9 -33 25 -30 8 2 14 -5 14 -17 0 -13 7 -20 20 -20 11 0 21 -7 21 -15 1 -8 2 -23 3 -32 1 -11 9 -18 22 -18 16 0 19 4 14 18 -17 40 -16 51 5 72 18 18 19 24 9 31 -7 4 -18 5 -23 1 -15 -9 -69 -3 -80 8 -12 12 -23 13 -30 2z"/>
<path d="M991 183 c-21 -73 -17 -81 42 -85 28 -2 57 -1 62 3 6 3 40 5 78 3 37 -1 67 -2 67 -1 0 1 -7 20 -16 42 -8 22 -17 47 -20 56 -3 9 -17 16 -35 16 -24 0 -31 -6 -37 -31 -10 -37 -28 -32 -24 7 2 30 -15 36 -48 15 -15 -10 -22 -10 -32 0 -19 19 -26 14 -37 -25z m198 -29 c-6 -7 -15 -11 -21 -8 -5 3 -4 12 3 20 6 7 15 11 21 8 5 -3 4 -12 -3 -20z"/>
<path d="M1300 130 c0 -5 5 -10 10 -10 6 0 10 5 10 10 0 6 -4 10 -10 10 -5 0 -10 -4 -10 -10z"/>
</g>
</g>
  <g id="id1:id1" transform="matrix(1.25,0,0,1.25,0.0,0.0)"><g transform="translate(0.000000,85.600000) scale(0.040000,-0.040000)" fill="#ffffff" stroke="none">
<path d="M0 1070 l0 -1070 1070 0 1070 0 0 1070 0 1070 -1070 0 -1070 0 0 -1070z m1300 971 c131 -34 231 -77 335 -146 70 -46 214 -190 261 -260 54 -80 111 -189 107 -201 -2 -6 3 -17 12 -24 8 -7 15 -27 15 -46 0 -18 4 -35 9 -38 15 -10 22 -76 23 -241 1 -160 -12 -250 -52 -350 l-11 -30 -17 21 c-32 40 -50 37 -57 -9 -4 -23 -14 -51 -21 -62 -8 -11 -14 -22 -14 -25 0 -10 44 -9 56 1 56 47 -42 -125 -124 -217 -48 -54 -53 -57 -59 -36 -3 13 -12 21 -21 20 -8 -2 -22 11 -31 29 -9 18 -21 33 -28 33 -14 0 -63 -46 -63 -60 0 -5 -12 -15 -27 -22 -37 -18 -43 -48 -9 -45 14 1 26 -2 27 -8 1 -5 10 -16 21 -24 17 -11 21 -11 32 5 9 11 19 15 31 10 17 -6 16 -8 -5 -31 -13 -14 -29 -25 -35 -25 -6 0 -23 -12 -38 -28 -64 -67 -291 -142 -472 -157 -93 -7 -282 8 -298 24 -5 5 2 16 17 26 14 10 26 21 26 26 0 12 -37 11 -45 -1 -11 -18 -25 0 -19 24 3 14 -1 27 -10 35 -9 8 -16 22 -16 33 0 15 -6 19 -24 16 -13 -1 -33 5 -44 15 -11 10 -24 17 -30 15 -6 -2 -17 6 -25 16 -18 25 -41 16 -61 -25 -25 -49 -18 -77 11 -48 16 16 33 2 33 -27 0 -13 6 -25 13 -26 6 0 17 -2 23 -2 18 -2 44 -27 39 -37 -10 -15 -136 44 -232 107 -83 55 -227 207 -279 295 -25 43 -46 81 -45 86 0 4 9 9 21 11 17 3 20 11 20 63 0 68 -15 77 -55 32 l-23 -28 -12 30 c-38 94 -53 192 -53 335 -1 145 11 224 49 324 8 21 13 40 11 43 -7 6 53 119 95 184 50 74 200 226 268 271 129 85 286 147 425 168 91 14 288 4 375 -19z m395 -1651 c15 -16 16 -23 6 -33 -10 -9 -16 -7 -32 12 -31 38 -7 57 26 21z m49 -51 c-3 -5 -10 -7 -15 -3 -5 3 -7 10 -3 15 3 5 10 7 15 3 5 -3 7 -10 3 -15z m-944 -204 c0 -21 -19 -28 -36 -14 -14 12 -14 14 2 26 19 14 34 9 34 -12z"/>
<path d="M820 1850 c0 -5 5 -10 10 -10 6 0 10 5 10 10 0 6 -4 10 -10 10 -5 0 -10 -4 -10 -10z"/>
<path d="M1300 1850 c0 -5 5 -10 10 -10 6 0 10 5 10 10 0 6 -4 10 -10 10 -5 0 -10 -4 -10 -10z"/>
<path d="M984 1826 c-15 -12 -17 -18 -8 -33 17 -28 42 -28 50 1 10 43 -8 57 -42 32z"/>
<path d="M1112 1828 c-19 -19 -14 -45 10 -51 27 -7 38 -1 38 22 0 16 -18 41 -30 41 -3 0 -11 -5 -18 -12z"/>
<path d="M860 1794 c-11 -12 -10 -18 3 -32 16 -15 18 -15 34 0 13 14 14 20 3 32 -7 9 -16 16 -20 16 -4 0 -13 -7 -20 -16z"/>
<path d="M1240 1795 c-10 -12 -10 -19 -2 -27 15 -15 48 14 38 31 -10 15 -21 14 -36 -4z"/>
<path d="M740 1754 c-11 -12 -10 -18 3 -32 16 -15 18 -15 34 0 13 14 14 20 3 32 -7 9 -16 16 -20 16 -4 0 -13 -7 -20 -16z"/>
<path d="M1360 1755 c-10 -12 -10 -19 -2 -27 15 -15 48 14 38 31 -10 15 -21 14 -36 -4z"/>
<path d="M570 1725 c-7 -9 -10 -18 -7 -22 8 -7 37 15 37 28 0 14 -16 11 -30 -6z"/>
<path d="M623 1698 c-14 -17 1 -58 20 -58 24 0 42 29 30 48 -13 22 -37 26 -50 10z"/>
<path d="M1464 1699 c-10 -17 23 -46 38 -31 8 8 8 15 -2 27 -15 18 -26 19 -36 4z"/>
<path d="M1560 1614 c-11 -12 -10 -18 3 -32 16 -15 18 -15 34 0 13 14 14 20 3 32 -7 9 -16 16 -20 16 -4 0 -13 -7 -20 -16z"/>
<path d="M527 1613 c-4 -3 -7 -17 -7 -30 0 -18 5 -23 25 -23 14 0 28 7 31 15 11 27 -30 58 -49 38z"/>
<path d="M410 1565 c-7 -9 -10 -18 -7 -22 8 -7 37 15 37 28 0 14 -16 11 -30 -6z"/>
<path d="M1644 1519 c-10 -17 23 -46 38 -31 8 8 8 15 -2 27 -15 18 -26 19 -36 4z"/>
<path d="M447 1513 c-4 -3 -7 -17 -7 -30 0 -18 5 -23 25 -23 14 0 28 7 31 15 11 27 -30 58 -49 38z"/>
<path d="M375 1502 c-16 -11 -37 -53 -31 -60 7 -7 33 26 39 51 6 19 6 19 -8 9z"/>
<path d="M385 1400 c-15 -16 -15 -22 -5 -35 17 -21 37 -19 50 6 9 15 8 24 -1 35 -15 19 -22 18 -44 -6z"/>
<path d="M1720 1395 c-10 -12 -10 -19 -2 -27 15 -15 48 14 38 31 -10 15 -21 14 -36 -4z"/>
<path d="M280 1310 c0 -5 5 -10 10 -10 6 0 10 5 10 10 0 6 -4 10 -10 10 -5 0 -10 -4 -10 -10z"/>
<path d="M1840 1310 c0 -5 5 -10 10 -10 6 0 10 5 10 10 0 6 -4 10 -10 10 -5 0 -10 -4 -10 -10z"/>
<path d="M1754 1289 c-10 -17 23 -46 38 -31 8 8 8 15 -2 27 -15 18 -26 19 -36 4z"/>
<path d="M340 1274 c-11 -12 -10 -18 3 -32 16 -15 18 -15 34 0 13 14 14 20 3 32 -7 9 -16 16 -20 16 -4 0 -13 -7 -20 -16z"/>
<path d="M1777 1174 c-4 -4 -7 -18 -7 -31 0 -21 4 -24 28 -21 21 2 27 8 27 28 0 18 -6 26 -20 28 -12 2 -24 0 -28 -4z"/>
<path d="M321 1161 c-12 -8 -13 -14 -3 -35 15 -33 40 -33 48 -2 10 41 -12 58 -45 37z"/>
<path d="M1781 1041 c-21 -14 -4 -53 22 -49 16 2 22 10 22 28 0 26 -20 36 -44 21z"/>
<path d="M315 1020 c-8 -25 1 -40 24 -40 28 0 46 26 31 45 -18 21 -48 19 -55 -5z"/>
<path d="M280 830 c0 -5 5 -10 10 -10 6 0 10 5 10 10 0 6 -4 10 -10 10 -5 0 -10 -4 -10 -10z"/>
<path d="M1840 830 c0 -5 5 -10 10 -10 6 0 10 5 10 10 0 6 -4 10 -10 10 -5 0 -10 -4 -10 -10z"/>
<path d="M465 400 c-10 -11 -24 -20 -32 -20 -25 0 -10 -44 20 -58 15 -7 27 -20 27 -28 0 -8 10 -14 23 -14 13 0 28 -5 35 -12 6 -6 15 -9 19 -5 4 4 1 13 -5 19 -20 20 -15 69 8 75 30 8 24 23 -10 23 -27 0 -30 -3 -30 -29 0 -41 -16 -47 -45 -18 l-25 24 25 23 c14 13 25 27 25 32 0 14 -16 9 -35 -12z"/>
<path d="M1235 226 c-30 -17 -75 -62 -75 -75 0 -16 6 -14 36 16 l26 26 19 -24 c10 -13 19 -30 19 -36 0 -18 17 -16 24 2 3 8 11 12 18 10 7 -3 18 6 25 20 10 22 8 29 -13 50 -27 27 -47 30 -79 11z"/>
<path d="M1540 230 c0 -5 5 -10 10 -10 6 0 10 5 10 10 0 6 -4 10 -10 10 -5 0 -10 -4 -10 -10z"/>
</g>
</g>
  <g id="id2:id2" transform="matrix(1.25,0,0,1.25,0.0,0.0)"><g transform="translate(0.000000,85.600000) scale(0.040000,-0.040000)" fill="#231f20" stroke="none">
<path d="M1266 1568 c-12 -41 -18 -145 -25 -461 -6 -225 -13 -412 -16 -417 -3 -5 -19 -2 -35 7 -20 10 -30 22 -30 38 0 12 -7 26 -16 29 -9 3 -141 6 -294 6 -292 0 -295 0 -295 -44 0 -18 -13 -29 -47 -40 -16 -5 -18 -19 -18 -109 l0 -103 40 -39 c40 -39 43 -55 9 -55 -14 0 -19 -7 -19 -28 0 -40 -8 -44 -41 -20 l-29 22 25 26 c22 23 24 29 12 53 -17 37 -29 34 -25 -5 2 -26 -2 -35 -20 -43 -30 -13 -25 -46 11 -63 15 -7 27 -20 27 -28 0 -17 31 -19 48 -2 7 7 12 22 12 34 0 15 10 28 31 38 29 15 33 14 61 -5 l29 -21 -18 -22 c-25 -29 -43 -63 -43 -81 0 -18 12 -19 27 -4 16 16 33 2 33 -27 0 -18 5 -24 22 -24 12 0 32 -10 45 -22 21 -20 24 -20 41 -5 22 20 32 13 32 -21 0 -21 3 -23 28 -17 15 3 34 13 43 21 18 16 29 9 29 -18 0 -11 7 -18 20 -18 21 0 27 15 10 25 -5 3 -10 20 -10 37 0 22 6 31 20 35 12 3 19 12 18 22 -2 12 5 16 32 16 46 1 76 -13 61 -28 -8 -8 -14 -8 -23 1 -20 20 -28 14 -28 -22 0 -19 -5 -38 -10 -41 -6 -3 -10 -15 -10 -26 0 -30 57 -27 62 3 2 17 10 22 33 23 25 0 29 4 27 21 -1 12 4 27 13 34 12 10 16 9 21 -5 4 -9 0 -23 -8 -31 -8 -9 -13 -25 -11 -37 4 -20 11 -22 63 -24 61 -1 83 14 55 37 -8 7 -12 16 -9 22 3 5 12 4 20 -3 7 -6 12 -15 9 -19 -3 -5 0 -12 6 -16 6 -4 16 0 21 9 5 9 15 14 22 11 8 -3 16 3 19 15 3 12 12 21 21 21 19 0 21 23 4 49 -12 20 -5 51 12 51 6 0 14 -10 19 -23 5 -12 19 -31 31 -42 l22 -20 10 18 c8 14 13 16 24 6 8 -6 14 -18 14 -25 0 -20 14 -17 34 5 10 11 23 18 29 15 7 -2 18 5 25 17 12 18 11 24 -7 43 -33 36 -11 40 25 5 18 -18 30 -38 27 -46 -4 -11 -1 -12 21 -2 31 15 33 25 5 32 -27 7 -22 44 5 39 13 -3 17 1 13 12 -7 18 8 31 18 16 10 -16 45 -12 45 6 0 9 9 18 20 21 12 3 20 14 20 25 0 13 -5 18 -14 15 -15 -6 -52 32 -48 49 1 7 -7 14 -18 17 -26 7 -26 27 0 34 19 5 20 11 14 52 -3 25 -12 56 -20 68 -8 12 -14 29 -14 38 0 20 -37 94 -60 120 -10 11 -23 47 -29 79 -6 33 -13 61 -15 64 -12 11 -25 -13 -31 -58 -4 -31 -17 -62 -34 -84 -15 -19 -36 -56 -45 -83 -10 -26 -24 -60 -32 -75 -8 -14 -14 -37 -14 -51 0 -29 -27 -58 -34 -36 -2 8 -9 232 -16 499 -11 457 -18 547 -42 578 -18 21 -26 14 -42 -40z m-618 -1014 c-2 -44 -7 -79 -13 -79 -11 0 -20 139 -10 163 13 36 26 -9 23 -84z m70 0 c-2 -44 -7 -79 -13 -79 -11 0 -20 139 -10 163 13 36 26 -9 23 -84z m150 0 c-2 -44 -7 -79 -13 -79 -11 0 -20 139 -10 163 13 36 26 -9 23 -84z m70 0 c-2 -44 -7 -79 -13 -79 -11 0 -20 139 -10 163 13 36 26 -9 23 -84z m220 0 c-2 -44 -7 -79 -13 -79 -11 0 -20 139 -10 163 13 36 26 -9 23 -84z m298 -89 c-5 -13 -10 -14 -28 -4 l-22 12 19 13 c22 16 41 4 31 -21z m48 14 c-3 -5 -10 -7 -15 -3 -5 3 -7 10 -3 15 3 5 10 7 15 3 5 -3 7 -10 3 -15z m140 -11 c10 -20 13 -35 7 -41 -16 -16 -38 -1 -44 30 -10 52 13 59 37 11z m-28 -59 c9 -16 -12 -33 -31 -25 -14 5 -15 9 -5 21 15 18 26 19 36 4z m79 -19 c14 -16 16 -23 7 -32 -10 -10 -17 -7 -33 9 -12 11 -18 26 -15 32 10 16 21 14 41 -9z m-139 -21 c9 -16 -12 -33 -31 -25 -14 5 -15 9 -5 21 15 18 26 19 36 4z m-77 -55 c-6 -8 -18 -14 -25 -14 -13 0 -15 -5 -18 -37 -1 -7 -6 -12 -11 -12 -6 1 -9 6 -7 11 1 6 -2 16 -8 23 -9 11 -3 18 27 33 41 21 61 19 42 -4z m-775 -15 c-3 -5 -10 -7 -15 -3 -5 3 -7 10 -3 15 3 5 10 7 15 3 5 -3 7 -10 3 -15z m63 -11 c15 -6 33 -12 38 -14 131 -33 136 -35 110 -64 -18 -20 -20 -20 -31 -5 -7 10 -18 14 -23 10 -6 -3 -14 1 -17 10 -4 9 -13 14 -20 11 -8 -3 -18 4 -24 14 -9 17 -14 18 -32 9 -16 -9 -24 -8 -35 4 -9 8 -12 20 -9 26 9 14 8 14 43 -1z m727 -19 c-3 -5 -10 -7 -15 -3 -5 3 -7 10 -3 15 3 5 10 7 15 3 5 -3 7 -10 3 -15z m-179 -29 c-5 -8 -11 -8 -17 -2 -6 6 -7 16 -3 22 5 8 11 8 17 2 6 -6 7 -16 3 -22z m-81 -11 c-3 -5 -10 -7 -15 -3 -5 3 -7 10 -3 15 3 5 10 7 15 3 5 -3 7 -10 3 -15z m280 0 c-3 -5 -10 -7 -15 -3 -5 3 -7 10 -3 15 3 5 10 7 15 3 5 -3 7 -10 3 -15z m-665 -65 c-6 -7 -15 -11 -21 -8 -5 3 -4 12 3 20 6 7 15 11 21 8 5 -3 4 -12 -3 -20z"/>
<path d="M540 270 c0 -5 5 -10 10 -10 6 0 10 5 10 10 0 6 -4 10 -10 10 -5 0 -10 -4 -10 -10z"/>
<path d="M1540 190 c0 -5 5 -10 10 -10 6 0 10 5 10 10 0 6 -4 10 -10 10 -5 0 -10 -4 -10 -10z"/>
<path d="M1160 70 c0 -5 5 -10 10 -10 6 0 10 5 10 10 0 6 -4 10 -10 10 -5 0 -10 -4 -10 -10z"/>
</g>
</g>
  <g id="id3:id3" transform="matrix(1.25,0,0,1.25,0.0,0.0)"><g transform="translate(0.000000,85.600000) scale(0.040000,-0.040000)" fill="#134a89" stroke="none">
<path d="M915 2076 c-165 -27 -395 -129 -455 -201 -7 -8 -18 -15 -24 -15 -22 0 -153 -145 -208 -230 -87 -136 -128 -233 -160 -380 -12 -59 -12 -303 0 -360 35 -157 85 -276 167 -396 54 -78 153 -184 205 -220 19 -13 54 -37 78 -54 74 -52 266 -139 280 -126 2 3 17 -1 32 -9 41 -21 227 -38 290 -27 30 6 59 8 66 5 42 -16 310 71 344 112 7 8 21 15 31 15 10 0 33 12 51 27 18 16 49 36 69 46 47 24 165 145 222 229 56 82 109 185 131 258 9 30 21 69 26 85 23 73 32 229 20 343 -7 62 -16 115 -21 118 -5 3 -9 15 -9 27 -1 55 -90 247 -164 349 -130 181 -344 325 -570 382 -121 31 -291 40 -401 22z m280 -196 c186 -27 393 -144 505 -285 145 -183 209 -400 182 -622 -14 -113 -36 -185 -88 -284 -54 -102 -119 -185 -199 -252 -70 -59 -217 -140 -271 -149 -16 -3 -55 -13 -87 -22 -101 -28 -294 -17 -418 24 -206 67 -365 200 -468 391 -55 102 -79 176 -93 292 -30 251 54 497 236 685 33 34 66 62 72 62 6 0 17 7 24 15 12 15 22 20 115 67 151 77 316 103 490 78z m-951 -1191 c-3 -5 -10 -7 -15 -3 -5 3 -7 10 -3 15 3 5 10 7 15 3 5 -3 7 -10 3 -15z m200 -330 c-3 -5 -10 -7 -15 -3 -5 3 -7 10 -3 15 3 5 10 7 15 3 5 -3 7 -10 3 -15z m1215 2 c2 -1 -2 -8 -9 -16 -8 -9 -21 -13 -32 -9 -16 5 -18 2 -13 -19 9 -35 -8 -41 -35 -12 l-23 25 17 19 c16 18 37 20 95 12z m-127 -50 c-2 -8 7 -24 19 -38 17 -17 20 -26 11 -35 -8 -8 -15 -8 -26 1 -21 18 -47 71 -40 83 9 14 39 4 36 -11z m-863 -14 c6 -8 8 -17 5 -20 -10 -9 -45 13 -39 24 9 13 21 11 34 -4z m35 -38 c-3 -5 -10 -7 -15 -3 -5 3 -7 10 -3 15 3 5 10 7 15 3 5 -3 7 -10 3 -15z m-70 -10 c-3 -5 -10 -7 -15 -3 -5 3 -7 10 -3 15 3 5 10 7 15 3 5 -3 7 -10 3 -15z m841 -9 c-3 -5 -1 -11 5 -15 6 -4 8 -10 5 -15 -7 -11 -56 -6 -53 6 1 5 9 8 17 6 9 -2 12 2 8 11 -3 8 -3 18 0 21 8 8 24 -4 18 -14z m-645 -40 c0 -14 -18 -21 -25 -10 -11 17 -25 11 -35 -16 -8 -21 -13 -24 -24 -15 -11 10 -12 17 -3 34 25 46 26 46 57 30 17 -8 30 -18 30 -23z m433 -12 c-3 -6 -12 -3 -20 5 -9 9 -12 20 -8 28 6 9 11 8 21 -6 7 -10 11 -22 7 -27z m83 31 c3 -6 -1 -18 -9 -27 -14 -13 -18 -13 -32 -2 -16 13 -15 15 1 27 22 16 31 16 40 2z m-291 -19 c19 16 46 6 40 -15 -16 -49 -15 -49 -27 -37 -18 18 -28 15 -38 -14 -15 -39 -36 -24 -31 22 4 49 9 58 27 43 11 -9 17 -9 29 1z m160 1 c3 -5 -11 -26 -30 -47 -26 -27 -39 -34 -47 -26 -15 15 -3 41 26 52 13 5 27 14 31 19 8 13 12 14 20 2z m-351 -62 c-3 -5 -10 -7 -15 -3 -5 3 -7 10 -3 15 3 5 10 7 15 3 5 -3 7 -10 3 -15z"/>
</g>
</g>
</svg>
