<?xml version="1.0" standalone="no"?>
<!DOCTYPE svg PUBLIC "-//W3C//DTD SVG 1.1//EN"
 "http://www.w3.org/Graphics/SVG/1.1/DTD/svg11.dtd">
<!-- Created with svg_stack (http://github.com/astraw/svg_stack) -->
<svg xmlns:sodipodi="http://sodipodi.sourceforge.net/DTD/sodipodi-0.dtd" xmlns="http://www.w3.org/2000/svg" version="1.1" width="804.0" height="326.0">
  <defs/>
  <g id="id0:id0" transform="matrix(1.25,0,0,1.25,0.0,0.0)"><g transform="translate(0.000000,260.800000) scale(0.040000,-0.040000)" fill="#f58020" stroke="none">
<path d="M3384 5745 c-8 -20 22 -152 58 -255 56 -159 127 -282 328 -569 148 -212 218 -327 258 -423 122 -294 116 -655 -17 -973 -83 -198 -255 -411 -395 -490 -36 -20 -66 -42 -66 -49 0 -23 24 -36 68 -36 113 0 257 62 612 265 433 248 680 346 965 385 336 46 779 -104 1174 -398 85 -64 121 -78 121 -49 0 17 -238 254 -345 342 -278 229 -584 384 -870 441 -138 27 -389 24 -520 -5 -55 -13 -124 -32 -153 -43 -29 -11 -56 -17 -59 -14 -3 3 -5 58 -4 124 3 198 -26 318 -122 505 -98 194 -228 352 -595 729 -233 240 -336 366 -379 465 -27 61 -48 78 -59 48z"/>
<path d="M4927 4809 c-103 -16 -193 -84 -245 -184 -23 -44 -27 -62 -27 -145 0 -81 4 -102 24 -145 33 -67 100 -131 169 -163 82 -37 193 -37 273 1 66 32 141 108 172 175 31 66 30 197 0 264 -63 138 -217 222 -366 197z"/>
<path d="M8673 3805 c-167 -36 -273 -153 -273 -300 0 -170 99 -271 359 -366 143 -52 194 -107 161 -170 -21 -39 -67 -52 -164 -47 -96 5 -166 30 -263 91 -71 45 -73 42 -73 -83 l0 -110 40 -25 c74 -47 185 -78 300 -83 124 -5 195 7 279 49 106 53 162 138 169 259 5 98 -21 171 -83 234 -57 56 -103 83 -250 141 -176 70 -220 111 -181 169 40 62 181 61 350 -3 60 -22 111 -39 114 -36 11 10 1 210 -11 217 -23 15 -167 58 -229 68 -83 13 -169 11 -245 -5z"/>
<path d="M9885 3811 c-130 -22 -247 -84 -336 -179 -180 -192 -198 -470 -44 -687 101 -143 260 -223 461 -232 200 -10 352 44 475 166 81 82 124 155 151 262 70 281 -110 575 -402 655 -66 18 -236 26 -305 15z m227 -241 c100 -28 185 -121 208 -229 34 -160 -38 -311 -178 -373 -73 -32 -209 -31 -283 4 -68 31 -118 79 -149 144 -21 42 -24 64 -24 149 -1 89 2 106 26 150 39 74 108 133 179 153 46 14 175 14 221 2z"/>
<path d="M13988 3810 c-106 -18 -206 -84 -256 -169 -24 -41 -27 -56 -27 -136 0 -106 20 -157 88 -225 41 -41 176 -113 262 -140 150 -47 212 -124 151 -185 -30 -30 -79 -39 -172 -32 -77 6 -143 30 -236 87 -78 48 -79 47 -76 -82 l3 -113 62 -33 c172 -91 414 -97 566 -14 171 93 211 340 76 480 -56 59 -100 85 -247 143 -183 74 -227 114 -188 173 40 62 182 61 350 -2 60 -23 111 -42 113 -42 2 0 3 49 3 109 l0 109 -72 26 c-142 51 -276 67 -400 46z"/>
<path d="M15540 3814 c-53 -10 -147 -47 -180 -72 -50 -38 -68 -60 -97 -121 -22 -47 -25 -63 -21 -135 3 -65 10 -92 32 -133 16 -29 38 -61 50 -72 41 -39 141 -91 260 -137 83 -32 131 -58 154 -80 36 -36 39 -52 17 -94 -21 -40 -70 -54 -169 -48 -89 6 -155 29 -244 85 -82 51 -82 51 -82 -83 l0 -115 67 -31 c108 -48 151 -59 269 -65 175 -9 282 26 371 120 117 124 108 316 -20 434 -52 48 -113 81 -241 130 -50 19 -110 46 -133 59 -63 36 -71 90 -20 128 60 45 221 28 372 -39 32 -14 62 -25 67 -25 5 0 7 48 6 107 l-3 108 -37 17 c-75 36 -183 59 -288 63 -58 2 -116 2 -130 -1z"/>
<path d="M7398 3803 c-17 -4 -18 -38 -18 -533 0 -438 2 -530 14 -539 9 -8 54 -11 132 -9 l119 3 5 210 5 210 145 6 c173 8 235 27 304 93 135 132 137 336 4 462 -93 90 -156 104 -463 102 -126 0 -238 -2 -247 -5z m454 -223 c48 -14 68 -43 68 -98 0 -86 -36 -111 -167 -114 l-88 -2 -3 99 c-1 54 0 105 2 112 7 16 133 18 188 3z"/>
<path d="M10822 3798 c-9 -9 -12 -140 -12 -529 0 -285 3 -524 6 -533 5 -13 27 -16 135 -16 71 0 130 1 131 3 1 1 4 99 7 217 l6 215 52 0 c91 -1 126 -44 229 -278 31 -72 62 -138 67 -144 7 -9 49 -13 148 -13 129 0 139 1 139 19 0 19 -89 219 -153 346 -19 39 -51 85 -71 104 l-36 34 62 56 c78 70 97 113 98 211 0 162 -102 277 -275 309 -83 16 -517 15 -533 -1z m443 -208 c56 -13 85 -49 85 -108 0 -89 -40 -114 -174 -110 l-89 3 2 104 c1 58 4 109 7 113 7 11 119 10 169 -2z"/>
<path d="M11942 3798 c-9 -9 -12 -140 -12 -529 0 -285 3 -524 6 -533 5 -13 27 -16 134 -16 l128 0 6 23 c3 12 6 250 6 529 0 447 -2 508 -16 522 -20 20 -233 23 -252 4z"/>
<path d="M12821 3796 c-10 -12 -131 -315 -332 -830 -49 -125 -86 -232 -83 -237 3 -5 65 -9 138 -9 l133 0 16 38 c9 20 27 66 40 102 l24 65 232 3 233 2 11 -32 c7 -17 26 -63 42 -102 l30 -71 134 -3 c79 -1 138 1 144 7 7 7 -6 46 -36 113 -25 57 -127 292 -227 523 -100 231 -189 426 -198 433 -23 18 -285 17 -301 -2z m240 -471 c38 -93 67 -175 64 -182 -5 -16 -270 -19 -280 -3 -5 8 105 325 122 353 12 20 29 -10 94 -168z"/>
<path d="M14750 3800 c-13 -8 -15 -79 -17 -523 -1 -283 1 -524 4 -536 l5 -21 128 0 c107 0 129 3 134 16 3 9 6 248 6 533 0 389 -3 520 -12 529 -15 15 -225 16 -248 2z"/>
<path d="M2835 3555 c-115 -25 -216 -73 -525 -250 -253 -145 -383 -210 -546 -275 -209 -84 -377 -120 -560 -120 -323 0 -691 142 -1041 402 -91 68 -123 82 -123 53 0 -21 256 -276 360 -359 378 -299 746 -449 1105 -449 134 0 261 20 385 59 45 14 86 22 90 17 4 -4 10 -78 13 -163 5 -179 27 -269 102 -425 98 -203 211 -345 564 -710 134 -137 267 -280 297 -317 59 -71 154 -223 154 -245 0 -18 29 -17 36 1 8 20 -12 113 -47 218 -57 175 -110 266 -425 728 -102 149 -185 313 -218 430 -68 241 -55 510 35 767 17 48 43 111 56 138 80 158 230 339 338 405 31 19 67 43 78 53 l22 17 -24 20 c-27 23 -43 24 -126 5z"/>
<path d="M1432 2351 c-137 -47 -232 -197 -219 -344 7 -74 54 -174 104 -218 68 -59 137 -84 233 -84 73 0 93 4 142 28 72 35 140 110 169 185 30 81 23 198 -17 272 -80 148 -254 216 -412 161z"/>
</g>
</g>
  <g id="id1:id1" transform="matrix(1.25,0,0,1.25,0.0,0.0)"><g transform="translate(0.000000,260.800000) scale(0.040000,-0.040000)" fill="#67c2ee" stroke="none">
<path d="M3222 6343 c-221 -220 -359 -406 -482 -648 -121 -238 -172 -439 -172 -675 0 -156 16 -268 57 -394 13 -39 25 -77 27 -84 2 -11 -24 -13 -132 -12 -242 2 -416 -55 -655 -214 -143 -96 -238 -178 -551 -480 -268 -259 -372 -344 -486 -402 -37 -19 -68 -38 -68 -43 0 -20 36 -20 114 -2 184 44 364 128 563 263 67 46 190 129 272 185 317 216 522 283 826 270 202 -9 363 -51 545 -142 164 -82 342 -238 410 -358 26 -46 37 -57 54 -55 19 3 21 9 21 73 -1 119 -49 233 -247 575 -268 465 -362 703 -399 1007 -40 335 118 784 409 1161 58 76 72 112 42 112 -5 0 -72 -62 -148 -137z"/>
<path d="M1929 5287 c-72 -30 -110 -58 -149 -107 -130 -164 -72 -414 118 -507 49 -24 69 -28 142 -28 71 0 94 4 140 26 124 58 192 166 194 304 1 69 -3 88 -28 139 -57 117 -161 186 -289 193 -59 3 -82 -1 -128 -20z"/>
<path d="M10385 5011 c-134 -35 -234 -130 -270 -256 -48 -163 49 -352 213 -416 45 -18 78 -23 157 -23 124 -1 190 23 268 94 185 169 140 458 -89 571 -55 27 -77 32 -157 35 -50 2 -105 0 -122 -5z m167 -151 c81 -23 138 -103 138 -195 0 -102 -59 -175 -156 -195 -140 -29 -254 58 -254 195 0 143 128 235 272 195z"/>
<path d="M7335 4998 c-3 -7 -4 -162 -3 -343 l3 -330 81 -3 82 -3 7 28 c4 15 5 105 3 200 -1 94 0 174 3 178 6 5 184 -199 313 -358 l39 -48 71 3 71 3 0 340 0 340 -82 3 c-62 2 -83 0 -84 -10 -1 -7 -1 -93 0 -190 1 -101 -3 -179 -8 -183 -5 -3 -83 81 -173 187 l-164 193 -77 3 c-56 2 -79 -1 -82 -10z"/>
<path d="M8411 4968 c-54 -127 -241 -616 -241 -631 0 -15 12 -17 84 -17 l84 0 21 49 c11 27 21 54 21 60 0 22 43 31 154 31 63 0 122 -3 131 -6 10 -4 30 -36 46 -70 l28 -64 85 0 c47 0 87 4 90 8 2 4 -18 59 -45 122 -28 63 -91 210 -140 325 -50 116 -95 216 -101 223 -7 8 -41 12 -105 12 l-94 0 -18 -42z m171 -268 c21 -52 36 -100 34 -107 -5 -13 -156 -19 -168 -7 -5 5 18 75 61 187 6 16 17 27 23 25 7 -3 29 -47 50 -98z"/>
<path d="M8917 5003 c-13 -12 -8 -123 6 -124 6 0 55 0 108 1 70 1 99 -3 107 -13 8 -9 13 -97 14 -278 l3 -264 80 0 80 0 5 275 5 275 100 2 c55 1 108 2 118 3 16 0 18 8 15 63 l-3 62 -316 3 c-173 1 -318 -1 -322 -5z"/>
<path d="M9747 5004 c-4 -4 -7 -160 -7 -346 l0 -339 83 3 82 3 0 340 0 340 -75 3 c-42 1 -79 0 -83 -4z"/>
<path d="M11056 4994 c-9 -24 -7 -647 3 -662 5 -9 30 -12 87 -10 l79 3 5 200 c3 110 8 200 12 200 4 0 83 -90 176 -200 l168 -200 69 -3 c48 -2 71 1 76 10 5 7 9 160 9 340 l0 328 -23 5 c-12 3 -52 5 -87 3 l-65 -3 -5 -188 c-3 -103 -8 -188 -13 -190 -4 -1 -37 34 -75 79 -37 44 -110 131 -162 192 l-95 112 -76 0 c-61 0 -78 -3 -83 -16z"/>
<path d="M12132 4933 c-17 -43 -76 -193 -131 -333 -56 -140 -101 -260 -101 -267 0 -18 165 -18 177 0 4 6 17 37 29 67 l21 55 144 0 144 0 10 -24 c6 -14 19 -43 30 -65 l20 -41 85 0 c79 0 85 1 84 20 -1 11 -50 130 -109 265 -59 135 -122 279 -139 320 l-32 75 -101 3 -101 3 -30 -78z m184 -229 c24 -59 41 -111 38 -115 -7 -12 -161 -11 -169 1 -3 6 10 54 30 108 20 53 38 103 41 111 7 21 13 11 60 -105z"/>
<path d="M12812 4998 c-14 -14 -17 -644 -4 -666 7 -9 65 -12 258 -10 l249 3 0 60 0 60 -165 5 -165 5 -3 270 c-2 200 -6 271 -15 277 -19 12 -142 9 -155 -4z"/>
<path d="M5630 3120 c-167 -41 -357 -134 -557 -271 -417 -287 -513 -343 -668 -392 -125 -39 -231 -50 -405 -44 -268 9 -472 74 -690 220 -97 65 -227 197 -265 270 -31 59 -44 70 -70 61 -11 -4 -15 -21 -15 -58 0 -118 53 -242 252 -591 237 -415 320 -605 378 -870 40 -180 27 -431 -31 -622 -67 -220 -205 -485 -349 -668 -45 -58 -70 -97 -70 -109 0 -47 299 243 426 414 242 323 358 595 395 923 19 169 -14 416 -75 562 -8 19 -14 35 -13 36 1 0 70 2 152 3 197 3 304 30 481 119 184 93 356 231 669 537 121 119 254 244 295 279 85 73 206 154 256 173 21 7 34 19 34 30 0 23 -30 23 -130 -2z"/>
<path d="M8209 2175 c-121 -33 -220 -117 -258 -220 -77 -206 50 -418 279 -466 189 -39 385 50 458 209 38 84 37 194 -2 275 -33 69 -83 124 -146 160 -91 53 -229 71 -331 42z m171 -146 c92 -21 150 -95 150 -192 0 -69 -19 -116 -64 -155 -103 -90 -283 -57 -337 62 -43 94 -7 221 74 263 62 32 109 38 177 22z"/>
<path d="M13370 2180 c-148 -36 -260 -147 -291 -291 -16 -74 3 -164 50 -237 43 -65 87 -102 169 -140 51 -23 70 -26 172 -26 l115 -1 67 33 c191 93 264 293 173 472 -28 55 -111 135 -163 157 -95 40 -207 53 -292 33z m209 -169 c46 -24 70 -50 87 -98 63 -178 -95 -332 -277 -268 -54 19 -86 49 -110 100 -33 71 -19 175 29 228 58 64 185 82 271 38z"/>
<path d="M14960 2183 c-91 -33 -130 -80 -130 -158 0 -144 171 -216 278 -117 36 34 57 97 48 146 -15 82 -126 154 -196 129z m25 -52 c7 -12 -12 -24 -25 -16 -11 7 -4 25 10 25 5 0 11 -4 15 -9z m58 -7 c4 -1 10 -2 13 -3 3 0 2 -6 -1 -11 -5 -8 -11 -7 -21 1 -8 6 -14 8 -14 5 0 -4 -5 -4 -10 -1 -6 4 -8 11 -4 16 3 5 11 6 17 2 7 -4 15 -8 20 -9z m57 -95 c0 -21 -5 -50 -11 -66 l-10 -28 -19 25 c-24 31 -25 44 -4 60 8 8 14 25 14 39 -3 42 0 47 15 27 8 -11 15 -37 15 -57z m-180 -4 c0 -61 -15 -80 -30 -39 -10 24 -6 75 7 97 11 19 23 -9 23 -58z m90 21 c-13 -13 -35 7 -25 24 5 8 11 8 21 -1 10 -8 12 -15 4 -23z m24 -128 c-6 -9 -68 -11 -77 -2 -3 3 -2 14 3 23 5 9 11 25 15 36 6 18 9 17 35 -15 15 -19 26 -38 24 -42z"/>
<path d="M7335 2168 c-3 -7 -4 -162 -3 -343 l3 -330 85 0 85 0 5 135 5 135 145 5 145 5 0 60 0 60 -145 5 -145 5 0 70 0 70 145 5 145 5 0 60 0 60 -233 3 c-181 2 -234 0 -237 -10z"/>
<path d="M8850 1939 l0 -240 26 -54 c29 -63 67 -98 144 -134 50 -23 67 -26 175 -26 102 0 127 3 167 22 76 35 115 71 145 131 l28 57 0 240 0 240 -87 3 -88 3 0 -203 c0 -112 -5 -220 -10 -240 -30 -107 -190 -144 -278 -63 l-37 33 -3 214 c-1 117 -4 223 -7 236 -5 21 -10 22 -90 22 l-85 0 0 -241z"/>
<path d="M9700 1835 l0 -346 88 3 87 3 5 200 c3 128 9 198 15 195 5 -3 86 -93 179 -200 l169 -195 76 0 76 0 0 340 0 340 -87 3 -88 3 0 -190 c0 -104 -4 -192 -9 -195 -5 -3 -85 81 -178 187 l-169 192 -82 3 -82 3 0 -346z"/>
<path d="M10565 2168 c-3 -7 -4 -162 -3 -343 l3 -330 210 0 c194 1 214 2 266 23 76 30 142 90 176 160 25 50 28 68 28 152 0 82 -4 103 -26 151 -34 72 -88 124 -169 163 l-65 31 -207 3 c-168 3 -209 1 -213 -10z m388 -146 c83 -37 126 -131 106 -235 -11 -60 -20 -77 -63 -115 -40 -35 -117 -55 -198 -50 l-53 3 -3 199 c-2 147 1 202 10 213 17 21 141 12 201 -15z"/>
<path d="M11515 2125 c-14 -30 -60 -143 -104 -252 -44 -109 -93 -231 -110 -272 -47 -113 -47 -112 55 -109 95 3 90 0 124 81 l20 48 147 -3 148 -3 30 -60 30 -60 84 -3 c46 -2 88 1 92 5 8 8 -48 138 -243 571 l-50 112 -100 0 -99 0 -24 -55z m181 -260 c23 -55 40 -103 38 -107 -7 -11 -172 -10 -178 1 -3 4 9 46 28 92 18 46 36 92 40 102 11 34 29 12 72 -88z"/>
<path d="M11974 2166 c-3 -7 -4 -35 -2 -62 l3 -49 115 -5 115 -5 5 -275 5 -275 85 0 85 0 5 275 5 275 123 3 123 3 -3 62 -3 62 -328 3 c-272 2 -328 0 -333 -12z"/>
<path d="M12765 2168 c-3 -7 -4 -162 -3 -343 l3 -330 85 0 85 0 0 340 0 340 -83 3 c-60 2 -84 -1 -87 -10z"/>
<path d="M13996 2164 c-9 -24 -7 -647 3 -662 5 -9 30 -12 87 -10 l79 3 3 195 c1 107 6 198 11 203 9 9 31 -15 225 -241 l140 -162 66 0 c38 0 71 5 78 12 9 9 12 94 12 323 0 170 -3 320 -6 333 -6 21 -12 22 -90 22 -73 0 -84 -2 -84 -17 -1 -10 -2 -94 -3 -188 -1 -102 -6 -172 -12 -174 -9 -5 -64 54 -262 282 l-85 97 -78 0 c-62 0 -79 -3 -84 -16z"/>
<path d="M4434 1869 c-207 -28 -341 -272 -253 -460 35 -73 85 -128 151 -164 70 -38 188 -47 269 -20 76 25 178 128 202 204 78 245 -115 475 -369 440z"/>
<path d="M3673 254 c-7 -18 4 -31 32 -36 18 -3 20 -12 23 -85 3 -87 13 -106 50 -97 19 6 22 14 24 93 l3 86 25 4 c28 3 41 18 33 38 -8 21 -182 19 -190 -3z"/>
<path d="M3907 264 c-4 -4 -7 -56 -7 -115 0 -93 2 -107 18 -111 32 -8 51 3 54 30 3 31 21 35 26 6 4 -19 28 -44 44 -44 5 0 20 12 33 26 21 23 26 24 31 10 8 -22 39 -37 58 -30 13 5 16 26 16 121 l0 114 -42 -3 c-44 -3 -55 -14 -79 -82 -12 -36 -26 -25 -49 37 -14 39 -18 42 -56 45 -22 2 -43 0 -47 -4z"/>
</g>
</g>
  <g id="id2:id2" transform="matrix(1.25,0,0,1.25,0.0,0.0)"><g transform="translate(0.000000,260.800000) scale(0.040000,-0.040000)" fill="#ffffff" stroke="none">
<path d="M3385 5750 c-3 -5 1 -10 9 -10 9 0 16 5 16 10 0 6 -4 10 -9 10 -6 0 -13 -4 -16 -10z"/>
<path d="M3380 5694 c0 -8 5 -12 10 -9 6 3 10 10 10 16 0 5 -4 9 -10 9 -5 0 -10 -7 -10 -16z"/>
<path d="M3400 5610 c0 -5 5 -10 10 -10 6 0 10 5 10 10 0 6 -4 10 -10 10 -5 0 -10 -4 -10 -10z"/>
<path d="M3460 5430 c0 -5 5 -10 11 -10 5 0 7 5 4 10 -3 6 -8 10 -11 10 -2 0 -4 -4 -4 -10z"/>
<path d="M4940 4810 c0 -5 20 -10 45 -10 25 0 45 5 45 10 0 6 -20 10 -45 10 -25 0 -45 -4 -45 -10z"/>
<path d="M4216 4795 c4 -8 11 -15 16 -15 6 0 5 6 -2 15 -7 8 -14 15 -16 15 -2 0 -1 -7 2 -15z"/>
<path d="M4865 4790 c-3 -5 -1 -10 4 -10 6 0 11 5 11 10 0 6 -2 10 -4 10 -3 0 -8 -4 -11 -10z"/>
<path d="M5300 4535 c0 -8 5 -15 10 -15 6 0 10 7 10 15 0 8 -4 15 -10 15 -5 0 -10 -7 -10 -15z"/>
<path d="M4640 4475 c0 -19 5 -35 10 -35 6 0 10 16 10 35 0 19 -4 35 -10 35 -5 0 -10 -16 -10 -35z"/>
<path d="M5300 4425 c0 -8 5 -15 10 -15 6 0 10 7 10 15 0 8 -4 15 -10 15 -5 0 -10 -7 -10 -15z"/>
<path d="M4665 4370 c3 -5 8 -10 11 -10 2 0 4 5 4 10 0 6 -5 10 -11 10 -5 0 -7 -4 -4 -10z"/>
<path d="M4080 4330 c0 -5 5 -10 10 -10 6 0 10 5 10 10 0 6 -4 10 -10 10 -5 0 -10 -4 -10 -10z"/>
<path d="M4500 4260 c0 -5 5 -10 10 -10 6 0 10 5 10 10 0 6 -4 10 -10 10 -5 0 -10 -4 -10 -10z"/>
<path d="M4100 4215 c0 -14 5 -25 10 -25 6 0 10 11 10 25 0 14 -4 25 -10 25 -5 0 -10 -11 -10 -25z"/>
<path d="M4520 4150 c0 -11 5 -20 10 -20 6 0 10 9 10 20 0 11 -4 20 -10 20 -5 0 -10 -9 -10 -20z"/>
<path d="M4930 4150 c0 -5 25 -10 55 -10 30 0 55 5 55 10 0 6 -25 10 -55 10 -30 0 -55 -4 -55 -10z"/>
<path d="M4870 3950 c0 -5 14 -10 30 -10 17 0 30 5 30 10 0 6 -13 10 -30 10 -16 0 -30 -4 -30 -10z"/>
<path d="M4940 3950 c0 -5 14 -10 30 -10 17 0 30 5 30 10 0 6 -13 10 -30 10 -16 0 -30 -4 -30 -10z"/>
<path d="M5050 3950 c0 -5 7 -10 15 -10 8 0 15 5 15 10 0 6 -7 10 -15 10 -8 0 -15 -4 -15 -10z"/>
<path d="M5110 3950 c0 -5 16 -10 35 -10 19 0 35 5 35 10 0 6 -16 10 -35 10 -19 0 -35 -4 -35 -10z"/>
<path d="M4760 3930 c0 -5 7 -10 15 -10 8 0 15 5 15 10 0 6 -7 10 -15 10 -8 0 -15 -4 -15 -10z"/>
<path d="M5260 3930 c0 -5 7 -10 15 -10 8 0 15 5 15 10 0 6 -7 10 -15 10 -8 0 -15 -4 -15 -10z"/>
<path d="M4680 3910 c0 -5 5 -10 10 -10 6 0 10 5 10 10 0 6 -4 10 -10 10 -5 0 -10 -4 -10 -10z"/>
<path d="M5350 3910 c0 -5 7 -10 15 -10 8 0 15 5 15 10 0 6 -7 10 -15 10 -8 0 -15 -4 -15 -10z"/>
<path d="M4520 3885 c0 -14 5 -25 10 -25 6 0 10 11 10 25 0 14 -4 25 -10 25 -5 0 -10 -11 -10 -25z"/>
<path d="M5420 3890 c0 -5 5 -10 10 -10 6 0 10 5 10 10 0 6 -4 10 -10 10 -5 0 -10 -4 -10 -10z"/>
<path d="M4100 3860 c0 -11 5 -20 10 -20 6 0 10 9 10 20 0 11 -4 20 -10 20 -5 0 -10 -9 -10 -20z"/>
<path d="M5540 3850 c0 -5 5 -10 10 -10 6 0 10 5 10 10 0 6 -4 10 -10 10 -5 0 -10 -4 -10 -10z"/>
<path d="M8700 3810 c0 -5 14 -10 30 -10 17 0 30 5 30 10 0 6 -13 10 -30 10 -16 0 -30 -4 -30 -10z"/>
<path d="M8815 3810 c3 -5 26 -10 51 -10 24 0 44 5 44 10 0 6 -23 10 -51 10 -31 0 -48 -4 -44 -10z"/>
<path d="M9890 3810 c0 -5 11 -10 25 -10 14 0 25 5 25 10 0 6 -11 10 -25 10 -14 0 -25 -4 -25 -10z"/>
<path d="M9960 3810 c0 -5 11 -10 25 -10 14 0 25 5 25 10 0 6 -11 10 -25 10 -14 0 -25 -4 -25 -10z"/>
<path d="M10060 3810 c0 -5 11 -10 25 -10 14 0 25 5 25 10 0 6 -11 10 -25 10 -14 0 -25 -4 -25 -10z"/>
<path d="M14000 3810 c0 -5 23 -10 50 -10 28 0 50 5 50 10 0 6 -22 10 -50 10 -27 0 -50 -4 -50 -10z"/>
<path d="M14160 3810 c0 -5 14 -10 30 -10 17 0 30 5 30 10 0 6 -13 10 -30 10 -16 0 -30 -4 -30 -10z"/>
<path d="M15530 3810 c0 -5 11 -10 25 -10 14 0 25 5 25 10 0 6 -11 10 -25 10 -14 0 -25 -4 -25 -10z"/>
<path d="M15690 3810 c0 -5 14 -10 30 -10 17 0 30 5 30 10 0 6 -13 10 -30 10 -16 0 -30 -4 -30 -10z"/>
<path d="M8620 3790 c0 -5 5 -10 10 -10 6 0 10 5 10 10 0 6 -4 10 -10 10 -5 0 -10 -4 -10 -10z"/>
<path d="M8980 3790 c0 -5 7 -10 15 -10 8 0 15 5 15 10 0 6 -7 10 -15 10 -8 0 -15 -4 -15 -10z"/>
<path d="M9805 3790 c-3 -5 -2 -10 4 -10 5 0 13 5 16 10 3 6 2 10 -4 10 -5 0 -13 -4 -16 -10z"/>
<path d="M10180 3790 c0 -5 7 -10 15 -10 8 0 15 5 15 10 0 6 -7 10 -15 10 -8 0 -15 -4 -15 -10z"/>
<path d="M11370 3790 c0 -5 7 -10 15 -10 8 0 15 5 15 10 0 6 -7 10 -15 10 -8 0 -15 -4 -15 -10z"/>
<path d="M13120 3790 c0 -5 5 -10 11 -10 5 0 7 5 4 10 -3 6 -8 10 -11 10 -2 0 -4 -4 -4 -10z"/>
<path d="M13920 3790 c0 -5 5 -10 10 -10 6 0 10 5 10 10 0 6 -4 10 -10 10 -5 0 -10 -4 -10 -10z"/>
<path d="M14285 3790 c3 -5 10 -10 16 -10 5 0 9 5 9 10 0 6 -7 10 -16 10 -8 0 -12 -4 -9 -10z"/>
<path d="M15460 3790 c0 -5 5 -10 10 -10 6 0 10 5 10 10 0 6 -4 10 -10 10 -5 0 -10 -4 -10 -10z"/>
<path d="M15820 3790 c0 -5 7 -10 15 -10 8 0 15 5 15 10 0 6 -7 10 -15 10 -8 0 -15 -4 -15 -10z"/>
<path d="M9050 3770 c0 -5 5 -10 10 -10 6 0 10 5 10 10 0 6 -4 10 -10 10 -5 0 -10 -4 -10 -10z"/>
<path d="M14350 3770 c0 -5 5 -10 10 -10 6 0 10 5 10 10 0 6 -4 10 -10 10 -5 0 -10 -4 -10 -10z"/>
<path d="M15885 3770 c3 -5 10 -10 16 -10 5 0 9 5 9 10 0 6 -7 10 -16 10 -8 0 -12 -4 -9 -10z"/>
<path d="M4080 3750 c0 -5 5 -10 10 -10 6 0 10 5 10 10 0 6 -4 10 -10 10 -5 0 -10 -4 -10 -10z"/>
<path d="M9105 3750 c3 -5 8 -10 11 -10 2 0 4 5 4 10 0 6 -5 10 -11 10 -5 0 -7 -4 -4 -10z"/>
<path d="M9700 3750 c0 -5 5 -10 10 -10 6 0 10 5 10 10 0 6 -4 10 -10 10 -5 0 -10 -4 -10 -10z"/>
<path d="M15940 3750 c0 -5 5 -10 10 -10 6 0 10 5 10 10 0 6 -4 10 -10 10 -5 0 -10 -4 -10 -10z"/>
<path d="M4060 3670 c0 -5 5 -10 10 -10 6 0 10 5 10 10 0 6 -4 10 -10 10 -5 0 -10 -4 -10 -10z"/>
<path d="M9580 3670 c0 -5 5 -10 10 -10 6 0 10 5 10 10 0 6 -4 10 -10 10 -5 0 -10 -4 -10 -10z"/>
<path d="M11565 3670 c3 -5 8 -10 11 -10 2 0 4 5 4 10 0 6 -5 10 -11 10 -5 0 -7 -4 -4 -10z"/>
<path d="M12760 3670 c0 -5 5 -10 10 -10 6 0 10 5 10 10 0 6 -4 10 -10 10 -5 0 -10 -4 -10 -10z"/>
<path d="M4040 3610 c0 -5 5 -10 10 -10 6 0 10 5 10 10 0 6 -4 10 -10 10 -5 0 -10 -4 -10 -10z"/>
<path d="M5230 3610 c0 -6 38 -10 95 -10 57 0 95 4 95 10 0 6 -38 10 -95 10 -57 0 -95 -4 -95 -10z"/>
<path d="M8750 3610 c0 -5 11 -10 25 -10 14 0 25 5 25 10 0 6 -11 10 -25 10 -14 0 -25 -4 -25 -10z"/>
<path d="M8870 3610 c0 -5 9 -10 20 -10 11 0 20 5 20 10 0 6 -9 10 -20 10 -11 0 -20 -4 -20 -10z"/>
<path d="M14050 3610 c0 -5 9 -10 20 -10 11 0 20 5 20 10 0 6 -9 10 -20 10 -11 0 -20 -4 -20 -10z"/>
<path d="M14160 3610 c0 -5 11 -10 25 -10 14 0 25 5 25 10 0 6 -11 10 -25 10 -14 0 -25 -4 -25 -10z"/>
<path d="M15590 3610 c0 -5 9 -10 20 -10 11 0 20 5 20 10 0 6 -9 10 -20 10 -11 0 -20 -4 -20 -10z"/>
<path d="M15695 3610 c3 -5 17 -10 31 -10 13 0 24 5 24 10 0 6 -14 10 -31 10 -17 0 -28 -4 -24 -10z"/>
<path d="M7644 3597 c-2 -7 -3 -65 -2 -128 l3 -114 85 -3 c147 -6 200 25 208 121 4 46 1 57 -23 85 -33 39 -77 52 -183 52 -59 0 -84 -4 -88 -13z"/>
<path d="M5070 3590 c0 -5 11 -10 25 -10 14 0 25 5 25 10 0 6 -11 10 -25 10 -14 0 -25 -4 -25 -10z"/>
<path d="M5530 3590 c0 -5 9 -10 20 -10 11 0 20 5 20 10 0 6 -9 10 -20 10 -11 0 -20 -4 -20 -10z"/>
<path d="M8970 3590 c0 -5 7 -10 16 -10 8 0 12 5 9 10 -3 6 -10 10 -16 10 -5 0 -9 -4 -9 -10z"/>
<path d="M9970 3590 c0 -5 18 -10 40 -10 22 0 40 5 40 10 0 6 -18 10 -40 10 -22 0 -40 -4 -40 -10z"/>
<path d="M14270 3590 c0 -5 7 -10 16 -10 8 0 12 5 9 10 -3 6 -10 10 -16 10 -5 0 -9 -4 -9 -10z"/>
<path d="M15810 3590 c0 -5 5 -10 10 -10 6 0 10 5 10 10 0 6 -4 10 -10 10 -5 0 -10 -4 -10 -10z"/>
<path d="M15240 3580 c0 -5 5 -10 10 -10 6 0 10 5 10 10 0 6 -4 10 -10 10 -5 0 -10 -4 -10 -10z"/>
<path d="M5000 3570 c0 -5 5 -10 10 -10 6 0 10 5 10 10 0 6 -4 10 -10 10 -5 0 -10 -4 -10 -10z"/>
<path d="M5630 3570 c0 -5 7 -10 15 -10 8 0 15 5 15 10 0 6 -7 10 -15 10 -8 0 -15 -4 -15 -10z"/>
<path d="M8400 3560 c0 -11 5 -20 10 -20 6 0 10 9 10 20 0 11 -4 20 -10 20 -5 0 -10 -9 -10 -20z"/>
<path d="M9030 3570 c0 -5 5 -10 10 -10 6 0 10 5 10 10 0 6 -4 10 -10 10 -5 0 -10 -4 -10 -10z"/>
<path d="M13700 3565 c0 -8 5 -15 10 -15 6 0 10 7 10 15 0 8 -4 15 -10 15 -5 0 -10 -7 -10 -15z"/>
<path d="M15870 3570 c0 -5 5 -10 11 -10 5 0 7 5 4 10 -3 6 -8 10 -11 10 -2 0 -4 -4 -4 -10z"/>
<path d="M2820 3550 c0 -5 5 -10 10 -10 6 0 10 5 10 10 0 6 -4 10 -10 10 -5 0 -10 -4 -10 -10z"/>
<path d="M4920 3550 c0 -5 5 -10 10 -10 6 0 10 5 10 10 0 6 -4 10 -10 10 -5 0 -10 -4 -10 -10z"/>
<path d="M14380 3550 c0 -5 5 -10 10 -10 6 0 10 5 10 10 0 6 -4 10 -10 10 -5 0 -10 -4 -10 -10z"/>
<path d="M15920 3550 c0 -5 5 -10 11 -10 5 0 7 5 4 10 -3 6 -8 10 -11 10 -2 0 -4 -4 -4 -10z"/>
<path d="M4860 3530 c0 -5 5 -10 10 -10 6 0 10 5 10 10 0 6 -4 10 -10 10 -5 0 -10 -4 -10 -10z"/>
<path d="M9130 3530 c0 -5 5 -10 10 -10 6 0 10 5 10 10 0 6 -4 10 -10 10 -5 0 -10 -4 -10 -10z"/>
<path d="M14430 3530 c0 -5 4 -10 9 -10 6 0 13 5 16 10 3 6 -1 10 -9 10 -9 0 -16 -4 -16 -10z"/>
<path d="M15500 3530 c0 -5 5 -10 10 -10 6 0 10 5 10 10 0 6 -4 10 -10 10 -5 0 -10 -4 -10 -10z"/>
<path d="M15968 3528 c9 -9 15 -9 24 0 9 9 7 12 -12 12 -19 0 -21 -3 -12 -12z"/>
<path d="M12970 3521 c0 -6 5 -13 10 -16 6 -3 10 1 10 9 0 9 -4 16 -10 16 -5 0 -10 -4 -10 -9z"/>
<path d="M2695 3510 c-3 -5 -1 -10 4 -10 6 0 11 5 11 10 0 6 -2 10 -4 10 -3 0 -8 -4 -11 -10z"/>
<path d="M5820 3510 c0 -5 5 -10 10 -10 6 0 10 5 10 10 0 6 -4 10 -10 10 -5 0 -10 -4 -10 -10z"/>
<path d="M11620 3485 c0 -14 5 -25 10 -25 6 0 10 11 10 25 0 14 -4 25 -10 25 -5 0 -10 -11 -10 -25z"/>
<path d="M5920 3470 c0 -5 5 -10 11 -10 5 0 7 5 4 10 -3 6 -8 10 -11 10 -2 0 -4 -4 -4 -10z"/>
<path d="M13260 3470 c0 -5 5 -10 10 -10 6 0 10 5 10 10 0 6 -4 10 -10 10 -5 0 -10 -4 -10 -10z"/>
<path d="M8400 3445 c0 -8 5 -15 10 -15 6 0 10 7 10 15 0 8 -4 15 -10 15 -5 0 -10 -7 -10 -15z"/>
<path d="M13700 3440 c0 -5 5 -10 10 -10 6 0 10 5 10 10 0 6 -4 10 -10 10 -5 0 -10 -4 -10 -10z"/>
<path d="M15240 3430 c0 -5 5 -10 10 -10 6 0 10 5 10 10 0 6 -4 10 -10 10 -5 0 -10 -4 -10 -10z"/>
<path d="M2780 3389 c0 -5 5 -7 10 -4 6 3 10 8 10 11 0 2 -4 4 -10 4 -5 0 -10 -5 -10 -11z"/>
<path d="M6080 3390 c0 -5 5 -10 11 -10 5 0 7 5 4 10 -3 6 -8 10 -11 10 -2 0 -4 -4 -4 -10z"/>
<path d="M10580 3380 c0 -5 5 -10 10 -10 6 0 10 5 10 10 0 6 -4 10 -10 10 -5 0 -10 -4 -10 -10z"/>
<path d="M45 3369 c-10 -15 3 -25 16 -12 7 7 7 13 1 17 -6 3 -14 1 -17 -5z"/>
<path d="M8920 3370 c0 -5 5 -10 10 -10 6 0 10 5 10 10 0 6 -4 10 -10 10 -5 0 -10 -4 -10 -10z"/>
<path d="M9400 3340 c0 -11 5 -20 10 -20 6 0 10 9 10 20 0 11 -4 20 -10 20 -5 0 -10 -9 -10 -20z"/>
<path d="M15800 3350 c0 -5 5 -10 10 -10 6 0 10 5 10 10 0 6 -4 10 -10 10 -5 0 -10 -4 -10 -10z"/>
<path d="M15840 3330 c0 -5 5 -10 10 -10 6 0 10 5 10 10 0 6 -4 10 -10 10 -5 0 -10 -4 -10 -10z"/>
<path d="M10320 3320 c0 -5 5 -10 10 -10 6 0 10 5 10 10 0 6 -4 10 -10 10 -5 0 -10 -4 -10 -10z"/>
<path d="M11470 3240 c-11 -7 -12 -12 -4 -20 8 -8 13 -6 17 9 3 12 4 21 4 21 -1 0 -9 -5 -17 -10z"/>
<path d="M2180 3229 c0 -5 5 -7 10 -4 6 3 10 8 10 11 0 2 -4 4 -10 4 -5 0 -10 -5 -10 -11z"/>
<path d="M10320 3210 c0 -11 5 -20 10 -20 6 0 10 9 10 20 0 11 -4 20 -10 20 -5 0 -10 -9 -10 -20z"/>
<path d="M9400 3180 c0 -11 5 -20 10 -20 6 0 10 9 10 20 0 11 -4 20 -10 20 -5 0 -10 -9 -10 -20z"/>
<path d="M15520 3170 c0 -5 5 -10 11 -10 5 0 7 5 4 10 -3 6 -8 10 -11 10 -2 0 -4 -4 -4 -10z"/>
<path d="M10580 3150 c0 -5 5 -10 10 -10 6 0 10 5 10 10 0 6 -4 10 -10 10 -5 0 -10 -4 -10 -10z"/>
<path d="M15570 3150 c0 -5 5 -10 10 -10 6 0 10 5 10 10 0 6 -4 10 -10 10 -5 0 -10 -4 -10 -10z"/>
<path d="M12822 3139 c2 -7 10 -15 17 -17 8 -3 12 1 9 9 -2 7 -10 15 -17 17 -8 3 -12 -1 -9 -9z"/>
<path d="M14480 3140 c0 -5 5 -10 10 -10 6 0 10 5 10 10 0 6 -4 10 -10 10 -5 0 -10 -4 -10 -10z"/>
<path d="M4065 3130 c-3 -5 -1 -10 4 -10 6 0 11 5 11 10 0 6 -2 10 -4 10 -3 0 -8 -4 -11 -10z"/>
<path d="M13110 3130 c0 -5 4 -10 9 -10 6 0 13 5 16 10 3 6 -1 10 -9 10 -9 0 -16 -4 -16 -10z"/>
<path d="M16020 3125 c0 -8 5 -15 10 -15 6 0 10 7 10 15 0 8 -4 15 -10 15 -5 0 -10 -7 -10 -15z"/>
<path d="M10560 3080 c0 -5 5 -10 10 -10 6 0 10 5 10 10 0 6 -4 10 -10 10 -5 0 -10 -4 -10 -10z"/>
<path d="M1820 3050 c0 -5 5 -10 10 -10 6 0 10 5 10 10 0 6 -4 10 -10 10 -5 0 -10 -4 -10 -10z"/>
<path d="M8430 3029 c0 -5 5 -7 10 -4 6 3 10 8 10 11 0 2 -4 4 -10 4 -5 0 -10 -5 -10 -11z"/>
<path d="M8920 3030 c0 -5 5 -10 10 -10 6 0 10 5 10 10 0 6 -4 10 -10 10 -5 0 -10 -4 -10 -10z"/>
<path d="M15760 3026 c0 -9 5 -16 10 -16 6 0 10 4 10 9 0 6 -4 13 -10 16 -5 3 -10 -1 -10 -9z"/>
<path d="M680 3010 c0 -5 5 -10 11 -10 5 0 7 5 4 10 -3 6 -8 10 -11 10 -2 0 -4 -4 -4 -10z"/>
<path d="M1720 3010 c0 -5 5 -10 10 -10 6 0 10 5 10 10 0 6 -4 10 -10 10 -5 0 -10 -4 -10 -10z"/>
<path d="M730 2990 c0 -5 5 -10 10 -10 6 0 10 5 10 10 0 6 -4 10 -10 10 -5 0 -10 -4 -10 -10z"/>
<path d="M3780 2989 c0 -5 5 -7 10 -4 6 3 10 8 10 11 0 2 -4 4 -10 4 -5 0 -10 -5 -10 -11z"/>
<path d="M15760 2990 c0 -5 5 -10 10 -10 6 0 10 5 10 10 0 6 -4 10 -10 10 -5 0 -10 -4 -10 -10z"/>
<path d="M14220 2980 c0 -5 5 -10 10 -10 6 0 10 5 10 10 0 6 -4 10 -10 10 -5 0 -10 -4 -10 -10z"/>
<path d="M790 2970 c0 -5 5 -10 10 -10 6 0 10 5 10 10 0 6 -4 10 -10 10 -5 0 -10 -4 -10 -10z"/>
<path d="M1605 2970 c-3 -5 -1 -10 4 -10 6 0 11 5 11 10 0 6 -2 10 -4 10 -3 0 -8 -4 -11 -10z"/>
<path d="M3710 2970 c0 -5 7 -10 15 -10 8 0 15 5 15 10 0 6 -7 10 -15 10 -8 0 -15 -4 -15 -10z"/>
<path d="M860 2950 c0 -5 5 -10 10 -10 6 0 10 5 10 10 0 6 -4 10 -10 10 -5 0 -10 -4 -10 -10z"/>
<path d="M1530 2950 c0 -5 7 -10 15 -10 8 0 15 5 15 10 0 6 -7 10 -15 10 -8 0 -15 -4 -15 -10z"/>
<path d="M3590 2950 c0 -5 11 -10 25 -10 14 0 25 5 25 10 0 6 -11 10 -25 10 -14 0 -25 -4 -25 -10z"/>
<path d="M8595 2950 c-3 -5 -1 -10 4 -10 6 0 11 5 11 10 0 6 -2 10 -4 10 -3 0 -8 -4 -11 -10z"/>
<path d="M16020 2945 c0 -8 5 -15 10 -15 6 0 10 7 10 15 0 8 -4 15 -10 15 -5 0 -10 -7 -10 -15z"/>
<path d="M930 2930 c0 -5 7 -10 15 -10 8 0 15 5 15 10 0 6 -7 10 -15 10 -8 0 -15 -4 -15 -10z"/>
<path d="M1460 2930 c0 -5 5 -10 10 -10 6 0 10 5 10 10 0 6 -4 10 -10 10 -5 0 -10 -4 -10 -10z"/>
<path d="M15480 2930 c0 -5 5 -10 10 -10 6 0 10 5 10 10 0 6 -4 10 -10 10 -5 0 -10 -4 -10 -10z"/>
<path d="M1040 2910 c0 -5 14 -10 30 -10 17 0 30 5 30 10 0 6 -13 10 -30 10 -16 0 -30 -4 -30 -10z"/>
<path d="M1320 2910 c0 -5 11 -10 25 -10 14 0 25 5 25 10 0 6 -11 10 -25 10 -14 0 -25 -4 -25 -10z"/>
<path d="M8730 2910 c0 -5 23 -10 50 -10 28 0 50 5 50 10 0 6 -22 10 -50 10 -27 0 -50 -4 -50 -10z"/>
<path d="M14040 2910 c0 -5 20 -10 45 -10 25 0 45 5 45 10 0 6 -20 10 -45 10 -25 0 -45 -4 -45 -10z"/>
<path d="M15570 2910 c0 -5 20 -10 45 -10 25 0 45 5 45 10 0 6 -20 10 -45 10 -25 0 -45 -4 -45 -10z"/>
<path d="M16000 2890 c0 -5 5 -10 10 -10 6 0 10 5 10 10 0 6 -4 10 -10 10 -5 0 -10 -4 -10 -10z"/>
<path d="M2440 2805 c0 -8 5 -15 10 -15 6 0 10 7 10 15 0 8 -4 15 -10 15 -5 0 -10 -7 -10 -15z"/>
<path d="M15305 2790 c3 -5 8 -10 11 -10 2 0 4 5 4 10 0 6 -5 10 -11 10 -5 0 -7 -4 -4 -10z"/>
<path d="M10275 2770 c-3 -5 -1 -10 4 -10 6 0 11 5 11 10 0 6 -2 10 -4 10 -3 0 -8 -4 -11 -10z"/>
<path d="M8560 2750 c0 -5 5 -10 10 -10 6 0 10 5 10 10 0 6 -4 10 -10 10 -5 0 -10 -4 -10 -10z"/>
<path d="M9000 2750 c0 -5 5 -10 10 -10 6 0 10 5 10 10 0 6 -4 10 -10 10 -5 0 -10 -4 -10 -10z"/>
<path d="M10220 2750 c0 -5 5 -10 10 -10 6 0 10 5 10 10 0 6 -4 10 -10 10 -5 0 -10 -4 -10 -10z"/>
<path d="M13860 2750 c0 -5 5 -10 10 -10 6 0 10 5 10 10 0 6 -4 10 -10 10 -5 0 -10 -4 -10 -10z"/>
<path d="M15390 2750 c0 -5 7 -10 15 -10 8 0 15 5 15 10 0 6 -7 10 -15 10 -8 0 -15 -4 -15 -10z"/>
<path d="M11580 2740 c-80 -3 -138 -9 -129 -13 26 -13 282 -4 287 11 2 6 0 11 -5 10 -4 -1 -73 -5 -153 -8z"/>
<path d="M12402 2739 c4 -11 33 -15 133 -17 79 -2 132 1 139 8 7 7 -30 10 -116 10 -70 0 -134 3 -144 7 -12 4 -15 2 -12 -8z"/>
<path d="M825 2730 c3 -5 8 -10 11 -10 2 0 4 5 4 10 0 6 -5 10 -11 10 -5 0 -7 -4 -4 -10z"/>
<path d="M8630 2730 c0 -5 5 -10 10 -10 6 0 10 5 10 10 0 6 -4 10 -10 10 -5 0 -10 -4 -10 -10z"/>
<path d="M8930 2730 c0 -5 7 -10 15 -10 8 0 15 5 15 10 0 6 -7 10 -15 10 -8 0 -15 -4 -15 -10z"/>
<path d="M9830 2730 c0 -5 7 -10 15 -10 8 0 15 5 15 10 0 6 -7 10 -15 10 -8 0 -15 -4 -15 -10z"/>
<path d="M10140 2730 c0 -5 6 -10 14 -10 8 0 18 5 21 10 3 6 -3 10 -14 10 -12 0 -21 -4 -21 -10z"/>
<path d="M10825 2730 c4 -6 57 -10 125 -10 68 0 121 4 125 10 4 6 -40 10 -125 10 -85 0 -129 -4 -125 -10z"/>
<path d="M11945 2730 c4 -6 57 -10 125 -10 68 0 121 4 125 10 4 6 -40 10 -125 10 -85 0 -129 -4 -125 -10z"/>
<path d="M13305 2730 c4 -6 62 -10 140 -10 78 0 136 4 140 10 4 6 -45 10 -140 10 -95 0 -144 -4 -140 -10z"/>
<path d="M13920 2730 c0 -5 7 -10 15 -10 8 0 15 5 15 10 0 6 -7 10 -15 10 -8 0 -15 -4 -15 -10z"/>
<path d="M14230 2730 c0 -5 7 -10 15 -10 8 0 15 5 15 10 0 6 -7 10 -15 10 -8 0 -15 -4 -15 -10z"/>
<path d="M14750 2730 c0 -6 46 -10 119 -10 69 0 122 4 126 10 4 6 -38 10 -119 10 -77 0 -126 -4 -126 -10z"/>
<path d="M15460 2730 c0 -5 7 -10 15 -10 8 0 15 5 15 10 0 6 -7 10 -15 10 -8 0 -15 -4 -15 -10z"/>
<path d="M15770 2730 c0 -5 7 -10 15 -10 8 0 15 5 15 10 0 6 -7 10 -15 10 -8 0 -15 -4 -15 -10z"/>
<path d="M2420 2710 c0 -11 5 -20 10 -20 6 0 10 9 10 20 0 11 -4 20 -10 20 -5 0 -10 -9 -10 -20z"/>
<path d="M1970 2650 c0 -5 9 -10 21 -10 11 0 17 5 14 10 -3 6 -13 10 -21 10 -8 0 -14 -4 -14 -10z"/>
<path d="M1070 2630 c0 -5 5 -10 10 -10 6 0 10 5 10 10 0 6 -4 10 -10 10 -5 0 -10 -4 -10 -10z"/>
<path d="M1130 2610 c0 -5 7 -10 15 -10 8 0 15 5 15 10 0 6 -7 10 -15 10 -8 0 -15 -4 -15 -10z"/>
<path d="M1850 2610 c0 -5 5 -10 10 -10 6 0 10 5 10 10 0 6 -4 10 -10 10 -5 0 -10 -4 -10 -10z"/>
<path d="M1210 2590 c0 -5 7 -10 15 -10 8 0 15 5 15 10 0 6 -7 10 -15 10 -8 0 -15 -4 -15 -10z"/>
<path d="M1770 2590 c0 -5 5 -10 10 -10 6 0 10 5 10 10 0 6 -4 10 -10 10 -5 0 -10 -4 -10 -10z"/>
<path d="M1320 2570 c0 -5 14 -10 30 -10 17 0 30 5 30 10 0 6 -13 10 -30 10 -16 0 -30 -4 -30 -10z"/>
<path d="M1620 2570 c0 -5 14 -10 30 -10 17 0 30 5 30 10 0 6 -13 10 -30 10 -16 0 -30 -4 -30 -10z"/>
<path d="M2400 2470 c0 -53 4 -90 10 -90 6 0 10 37 10 90 0 53 -4 90 -10 90 -6 0 -10 -37 -10 -90z"/>
<path d="M1980 2500 c0 -27 5 -50 10 -50 6 0 10 23 10 50 0 28 -4 50 -10 50 -5 0 -10 -22 -10 -50z"/>
<path d="M1505 2370 c-4 -6 8 -10 29 -10 20 0 36 5 36 10 0 6 -13 10 -29 10 -17 0 -33 -4 -36 -10z"/>
<path d="M1430 2350 c0 -5 5 -10 10 -10 6 0 10 5 10 10 0 6 -4 10 -10 10 -5 0 -10 -4 -10 -10z"/>
<path d="M1640 2350 c0 -5 7 -10 16 -10 8 0 12 5 9 10 -3 6 -10 10 -16 10 -5 0 -9 -4 -9 -10z"/>
<path d="M2000 2305 c0 -8 5 -15 10 -15 6 0 10 7 10 15 0 8 -4 15 -10 15 -5 0 -10 -7 -10 -15z"/>
<path d="M2420 2235 c0 -8 5 -15 10 -15 6 0 10 7 10 15 0 8 -4 15 -10 15 -5 0 -10 -7 -10 -15z"/>
<path d="M2440 2150 c0 -5 5 -10 10 -10 6 0 10 5 10 10 0 6 -4 10 -10 10 -5 0 -10 -4 -10 -10z"/>
<path d="M1220 2130 c0 -5 5 -10 10 -10 6 0 10 5 10 10 0 6 -4 10 -10 10 -5 0 -10 -4 -10 -10z"/>
<path d="M1860 2100 c0 -5 5 -10 10 -10 6 0 10 5 10 10 0 6 -4 10 -10 10 -5 0 -10 -4 -10 -10z"/>
<path d="M2085 2060 c3 -5 8 -10 11 -10 2 0 4 5 4 10 0 6 -5 10 -11 10 -5 0 -7 -4 -4 -10z"/>
<path d="M11630 1990 c0 -5 5 -10 10 -10 6 0 10 5 10 10 0 6 -4 10 -10 10 -5 0 -10 -4 -10 -10z"/>
<path d="M1860 1965 c0 -8 5 -15 10 -15 6 0 10 7 10 15 0 8 -4 15 -10 15 -5 0 -10 -7 -10 -15z"/>
<path d="M9871 1904 c0 -11 3 -14 6 -6 3 7 2 16 -1 19 -3 4 -6 -2 -5 -13z"/>
<path d="M14505 1770 c3 -5 8 -10 11 -10 2 0 4 5 4 10 0 6 -5 10 -11 10 -5 0 -7 -4 -4 -10z"/>
<path d="M1470 1710 c0 -5 11 -10 25 -10 14 0 25 5 25 10 0 6 -11 10 -25 10 -14 0 -25 -4 -25 -10z"/>
<path d="M1580 1710 c0 -5 9 -10 20 -10 11 0 20 5 20 10 0 6 -9 10 -20 10 -11 0 -20 -4 -20 -10z"/>
<path d="M3120 870 c0 -5 5 -10 10 -10 6 0 10 5 10 10 0 6 -4 10 -10 10 -5 0 -10 -4 -10 -10z"/>
<path d="M3957 173 c-4 -3 -7 -34 -7 -69 0 -62 7 -74 43 -74 35 1 37 16 11 83 -25 65 -33 75 -47 60z"/>
<path d="M4085 128 c-10 -29 -22 -59 -27 -65 -14 -18 33 -38 58 -25 16 9 19 20 16 76 -4 81 -21 86 -47 14z"/>
</g>
</g>
</svg>
