<svg xmlns="http://www.w3.org/2000/svg" version="1.0" width="4288.000000pt" height="3552.000000pt" viewBox="0 0 4288.000000 3552.000000" preserveAspectRatio="xMidYMid meet">
  <g transform="translate(0.000000,3552.000000) scale(0.100000,-0.100000)" stroke="none">
    <mask id="mask-4">
      <g>
        <path d="M 0 0 H 42880.0 V 35520.0 H 0 Z" fill="white" id="background"/>
        <path d="M19065 11546 c171 -36 237 -61 350 -137 127 -84 274 -245 331 -361 50 -101 54 -115 54 -198 0 -113 -23 -151 -125 -207 -78 -43 -140 -69 -205 -84 -19 -4 -66 -15 -105 -24 -49 -12 -116 -17 -220 -17 -129 0 -164 4 -249 26 -213 55 -363 166 -435 321 -50 105 -70 234 -51 327 16 86 28 114 71 178 57 85 148 143 279 179 54 14 227 13 305 -3z" fill="black"/>
        <path d="M17932 8589 c216 -44 351 -142 511 -369 111 -158 167 -285 153 -352 -13 -66 -48 -103 -120 -126 -37 -12 -86 -22 -111 -22 -46 0 -82 -12 -125 -41 -23 -16 -40 -25 -147 -85 -22 -13 -63 -31 -90 -39 -26 -9 -57 -20 -68 -24 -110 -45 -248 -41 -325 9 -14 9 -38 22 -54 30 -71 36 -149 149 -178 258 -43 162 -28 388 34 522 46 97 152 185 263 218 118 34 173 38 257 21z" fill="black"/>
      </g>
    </mask>
    <mask id="mask-3">
      <g>
        <path d="M 0 0 H 42880.0 V 35520.0 H 0 Z" fill="white" id="background"/>
        <path d="M5595 15790 c421 -14 729 -30 805 -40 36 -5 112 -14 170 -20 253 -28 330 -109 330 -350 0 -109 -14 -158 -60 -213 -30 -36 -58 -52 -185 -106 -72 -31 -77 -35 -97 -67 -42 -68 -54 -107 -79 -249 -66 -378 -92 -1750 -119 -6185 -28 -4766 -34 -5401 -53 -5490 -54 -260 -377 -539 -727 -629 -210 -53 -361 -45 -665 39 -173 47 -392 167 -523 285 -50 45 -132 157 -159 215 -6 14 -16 45 -21 70 -6 25 -14 56 -17 70 -7 29 -21 375 -35 870 -5 190 -14 462 -19 605 -18 487 -22 2055 -14 6045 l8 3985 446 6 c429 6 469 9 593 41 93 24 146 86 146 172 0 51 -21 77 -91 111 -99 47 -231 62 -669 75 -377 11 -539 26 -665 60 -16 5 -50 14 -75 21 -78 20 -204 87 -249 131 -92 91 -94 202 -7 333 72 108 122 140 276 174 118 25 171 34 245 41 127 11 1180 11 1510 0z" fill="black"/>
        <path d="M19065 11546 c171 -36 237 -61 350 -137 127 -84 274 -245 331 -361 50 -101 54 -115 54 -198 0 -113 -23 -151 -125 -207 -78 -43 -140 -69 -205 -84 -19 -4 -66 -15 -105 -24 -49 -12 -116 -17 -220 -17 -129 0 -164 4 -249 26 -213 55 -363 166 -435 321 -50 105 -70 234 -51 327 16 86 28 114 71 178 57 85 148 143 279 179 54 14 227 13 305 -3z" fill="black"/>
        <path d="M17932 8589 c216 -44 351 -142 511 -369 111 -158 167 -285 153 -352 -13 -66 -48 -103 -120 -126 -37 -12 -86 -22 -111 -22 -46 0 -82 -12 -125 -41 -23 -16 -40 -25 -147 -85 -22 -13 -63 -31 -90 -39 -26 -9 -57 -20 -68 -24 -110 -45 -248 -41 -325 9 -14 9 -38 22 -54 30 -71 36 -149 149 -178 258 -43 162 -28 388 34 522 46 97 152 185 263 218 118 34 173 38 257 21z" fill="black"/>
      </g>
    </mask>
    <mask id="mask-2">
      <g>
        <path d="M 0 0 H 42880.0 V 35520.0 H 0 Z" fill="white" id="background"/>
        <path d="M33358 15140 c67 -135 148 -293 181 -352 32 -59 73 -131 89 -160 16 -29 39 -71 52 -93 28 -48 56 -100 100 -180 43 -79 72 -131 100 -180 13 -22 34 -60 48 -85 14 -25 42 -74 62 -110 36 -62 59 -104 116 -207 15 -27 34 -61 44 -78 10 -16 29 -50 42 -75 14 -25 35 -62 47 -82 46 -82 62 -110 83 -145 37 -66 107 -200 253 -488 131 -259 168 -330 215 -410 10 -16 29 -50 42 -75 14 -25 35 -62 47 -82 11 -21 31 -55 42 -75 12 -21 33 -58 47 -83 13 -25 32 -58 42 -75 10 -16 29 -50 42 -75 14 -25 37 -66 52 -92 14 -27 37 -67 50 -90 13 -24 33 -61 46 -83 13 -22 34 -60 48 -85 14 -25 59 -106 100 -180 41 -74 84 -151 95 -170 55 -95 284 -547 308 -605 4 -11 18 -50 30 -87 19 -55 20 -70 9 -82 -27 -34 -51 -26 -320 102 -30 14 -73 38 -95 53 -38 25 -57 37 -152 90 -21 12 -42 25 -48 29 -9 7 -130 78 -225 132 -19 11 -47 29 -62 39 -14 11 -29 19 -33 19 -3 0 -25 13 -48 29 -51 34 -177 111 -184 111 -2 0 -31 18 -63 40 -32 22 -61 40 -64 40 -3 0 -40 22 -82 50 -42 27 -85 50 -94 50 -16 0 -41 -31 -220 -275 -20 -27 -83 -113 -140 -190 -57 -77 -122 -165 -144 -195 -22 -30 -144 -161 -270 -290 -127 -130 -282 -291 -345 -358 -62 -68 -127 -130 -143 -138 -27 -14 -31 -14 -49 2 -11 10 -27 34 -36 53 -9 20 -34 62 -55 93 -21 31 -38 60 -38 63 0 10 -120 186 -160 235 -20 25 -51 65 -68 90 -27 38 -89 121 -135 180 -7 9 -32 42 -57 75 -25 33 -108 139 -185 236 -77 97 -166 210 -197 250 -31 41 -65 83 -75 94 -10 11 -31 37 -46 58 -31 42 -55 47 -82 17 -10 -11 -22 -20 -26 -20 -7 0 -268 -170 -634 -413 -11 -8 -54 -34 -95 -59 -41 -25 -113 -69 -160 -98 -47 -29 -98 -61 -115 -70 -16 -10 -61 -37 -100 -61 -102 -63 -261 -139 -289 -139 -42 0 -41 16 2 125 17 42 143 292 182 360 13 22 39 69 58 105 19 36 47 88 62 115 15 28 42 77 60 110 18 33 43 79 56 103 13 23 35 61 48 85 13 23 38 69 56 102 62 113 88 160 140 255 57 104 96 175 143 260 16 30 40 73 52 95 12 22 33 60 47 85 33 60 77 139 123 225 21 39 41 75 45 80 4 6 24 42 45 80 21 39 51 95 68 125 16 30 43 80 60 110 16 30 40 74 53 98 13 23 35 61 48 85 13 23 38 69 56 102 18 33 43 79 56 103 13 23 35 61 48 85 13 23 38 69 56 102 83 152 170 310 216 393 43 75 71 126 104 187 45 82 73 133 100 180 13 22 35 63 50 90 15 28 42 75 60 105 18 30 41 69 50 85 81 139 304 502 338 550 23 33 74 107 114 165 39 58 92 124 116 147 41 39 46 41 57 25 7 -9 67 -127 133 -262z" fill="black"/>
        <path d="M5595 15790 c421 -14 729 -30 805 -40 36 -5 112 -14 170 -20 253 -28 330 -109 330 -350 0 -109 -14 -158 -60 -213 -30 -36 -58 -52 -185 -106 -72 -31 -77 -35 -97 -67 -42 -68 -54 -107 -79 -249 -66 -378 -92 -1750 -119 -6185 -28 -4766 -34 -5401 -53 -5490 -54 -260 -377 -539 -727 -629 -210 -53 -361 -45 -665 39 -173 47 -392 167 -523 285 -50 45 -132 157 -159 215 -6 14 -16 45 -21 70 -6 25 -14 56 -17 70 -7 29 -21 375 -35 870 -5 190 -14 462 -19 605 -18 487 -22 2055 -14 6045 l8 3985 446 6 c429 6 469 9 593 41 93 24 146 86 146 172 0 51 -21 77 -91 111 -99 47 -231 62 -669 75 -377 11 -539 26 -665 60 -16 5 -50 14 -75 21 -78 20 -204 87 -249 131 -92 91 -94 202 -7 333 72 108 122 140 276 174 118 25 171 34 245 41 127 11 1180 11 1510 0z" fill="black"/>
        <path d="M19065 11546 c171 -36 237 -61 350 -137 127 -84 274 -245 331 -361 50 -101 54 -115 54 -198 0 -113 -23 -151 -125 -207 -78 -43 -140 -69 -205 -84 -19 -4 -66 -15 -105 -24 -49 -12 -116 -17 -220 -17 -129 0 -164 4 -249 26 -213 55 -363 166 -435 321 -50 105 -70 234 -51 327 16 86 28 114 71 178 57 85 148 143 279 179 54 14 227 13 305 -3z" fill="black"/>
        <path d="M17932 8589 c216 -44 351 -142 511 -369 111 -158 167 -285 153 -352 -13 -66 -48 -103 -120 -126 -37 -12 -86 -22 -111 -22 -46 0 -82 -12 -125 -41 -23 -16 -40 -25 -147 -85 -22 -13 -63 -31 -90 -39 -26 -9 -57 -20 -68 -24 -110 -45 -248 -41 -325 9 -14 9 -38 22 -54 30 -71 36 -149 149 -178 258 -43 162 -28 388 34 522 46 97 152 185 263 218 118 34 173 38 257 21z" fill="black"/>
      </g>
    </mask>
    <mask id="mask-1">
      <g>
        <path d="M 0 0 H 42880.0 V 35520.0 H 0 Z" fill="white" id="background"/>
        <path d="M32497 31449 c113 -27 207 -105 233 -192 7 -23 16 -52 21 -65 5 -13 9 -59 9 -104 0 -102 -25 -153 -92 -185 -88 -43 -124 -57 -163 -64 -102 -18 -220 -43 -280 -58 -22 -5 -60 -14 -85 -20 -265 -57 -577 -264 -747 -495 -146 -198 -217 -369 -285 -691 -5 -27 -14 -60 -19 -73 -5 -13 -9 -34 -9 -47 0 -13 -5 -37 -11 -52 -6 -15 -15 -37 -19 -48 -23 -61 -59 -123 -90 -153 -51 -50 -93 -66 -175 -64 -156 2 -251 79 -294 238 -14 53 -14 260 0 321 27 117 62 244 79 288 5 11 16 40 25 65 20 54 30 77 89 200 45 94 65 130 154 282 50 85 208 288 256 329 148 127 226 186 302 230 49 28 107 62 129 75 74 44 280 141 370 174 33 12 69 26 80 30 161 69 408 106 522 79z" fill="black"/>
        <path d="M33358 15140 c67 -135 148 -293 181 -352 32 -59 73 -131 89 -160 16 -29 39 -71 52 -93 28 -48 56 -100 100 -180 43 -79 72 -131 100 -180 13 -22 34 -60 48 -85 14 -25 42 -74 62 -110 36 -62 59 -104 116 -207 15 -27 34 -61 44 -78 10 -16 29 -50 42 -75 14 -25 35 -62 47 -82 46 -82 62 -110 83 -145 37 -66 107 -200 253 -488 131 -259 168 -330 215 -410 10 -16 29 -50 42 -75 14 -25 35 -62 47 -82 11 -21 31 -55 42 -75 12 -21 33 -58 47 -83 13 -25 32 -58 42 -75 10 -16 29 -50 42 -75 14 -25 37 -66 52 -92 14 -27 37 -67 50 -90 13 -24 33 -61 46 -83 13 -22 34 -60 48 -85 14 -25 59 -106 100 -180 41 -74 84 -151 95 -170 55 -95 284 -547 308 -605 4 -11 18 -50 30 -87 19 -55 20 -70 9 -82 -27 -34 -51 -26 -320 102 -30 14 -73 38 -95 53 -38 25 -57 37 -152 90 -21 12 -42 25 -48 29 -9 7 -130 78 -225 132 -19 11 -47 29 -62 39 -14 11 -29 19 -33 19 -3 0 -25 13 -48 29 -51 34 -177 111 -184 111 -2 0 -31 18 -63 40 -32 22 -61 40 -64 40 -3 0 -40 22 -82 50 -42 27 -85 50 -94 50 -16 0 -41 -31 -220 -275 -20 -27 -83 -113 -140 -190 -57 -77 -122 -165 -144 -195 -22 -30 -144 -161 -270 -290 -127 -130 -282 -291 -345 -358 -62 -68 -127 -130 -143 -138 -27 -14 -31 -14 -49 2 -11 10 -27 34 -36 53 -9 20 -34 62 -55 93 -21 31 -38 60 -38 63 0 10 -120 186 -160 235 -20 25 -51 65 -68 90 -27 38 -89 121 -135 180 -7 9 -32 42 -57 75 -25 33 -108 139 -185 236 -77 97 -166 210 -197 250 -31 41 -65 83 -75 94 -10 11 -31 37 -46 58 -31 42 -55 47 -82 17 -10 -11 -22 -20 -26 -20 -7 0 -268 -170 -634 -413 -11 -8 -54 -34 -95 -59 -41 -25 -113 -69 -160 -98 -47 -29 -98 -61 -115 -70 -16 -10 -61 -37 -100 -61 -102 -63 -261 -139 -289 -139 -42 0 -41 16 2 125 17 42 143 292 182 360 13 22 39 69 58 105 19 36 47 88 62 115 15 28 42 77 60 110 18 33 43 79 56 103 13 23 35 61 48 85 13 23 38 69 56 102 62 113 88 160 140 255 57 104 96 175 143 260 16 30 40 73 52 95 12 22 33 60 47 85 33 60 77 139 123 225 21 39 41 75 45 80 4 6 24 42 45 80 21 39 51 95 68 125 16 30 43 80 60 110 16 30 40 74 53 98 13 23 35 61 48 85 13 23 38 69 56 102 18 33 43 79 56 103 13 23 35 61 48 85 13 23 38 69 56 102 83 152 170 310 216 393 43 75 71 126 104 187 45 82 73 133 100 180 13 22 35 63 50 90 15 28 42 75 60 105 18 30 41 69 50 85 81 139 304 502 338 550 23 33 74 107 114 165 39 58 92 124 116 147 41 39 46 41 57 25 7 -9 67 -127 133 -262z" fill="black"/>
        <path d="M5595 15790 c421 -14 729 -30 805 -40 36 -5 112 -14 170 -20 253 -28 330 -109 330 -350 0 -109 -14 -158 -60 -213 -30 -36 -58 -52 -185 -106 -72 -31 -77 -35 -97 -67 -42 -68 -54 -107 -79 -249 -66 -378 -92 -1750 -119 -6185 -28 -4766 -34 -5401 -53 -5490 -54 -260 -377 -539 -727 -629 -210 -53 -361 -45 -665 39 -173 47 -392 167 -523 285 -50 45 -132 157 -159 215 -6 14 -16 45 -21 70 -6 25 -14 56 -17 70 -7 29 -21 375 -35 870 -5 190 -14 462 -19 605 -18 487 -22 2055 -14 6045 l8 3985 446 6 c429 6 469 9 593 41 93 24 146 86 146 172 0 51 -21 77 -91 111 -99 47 -231 62 -669 75 -377 11 -539 26 -665 60 -16 5 -50 14 -75 21 -78 20 -204 87 -249 131 -92 91 -94 202 -7 333 72 108 122 140 276 174 118 25 171 34 245 41 127 11 1180 11 1510 0z" fill="black"/>
        <path d="M19065 11546 c171 -36 237 -61 350 -137 127 -84 274 -245 331 -361 50 -101 54 -115 54 -198 0 -113 -23 -151 -125 -207 -78 -43 -140 -69 -205 -84 -19 -4 -66 -15 -105 -24 -49 -12 -116 -17 -220 -17 -129 0 -164 4 -249 26 -213 55 -363 166 -435 321 -50 105 -70 234 -51 327 16 86 28 114 71 178 57 85 148 143 279 179 54 14 227 13 305 -3z" fill="black"/>
        <path d="M17932 8589 c216 -44 351 -142 511 -369 111 -158 167 -285 153 -352 -13 -66 -48 -103 -120 -126 -37 -12 -86 -22 -111 -22 -46 0 -82 -12 -125 -41 -23 -16 -40 -25 -147 -85 -22 -13 -63 -31 -90 -39 -26 -9 -57 -20 -68 -24 -110 -45 -248 -41 -325 9 -14 9 -38 22 -54 30 -71 36 -149 149 -178 258 -43 162 -28 388 34 522 46 97 152 185 263 218 118 34 173 38 257 21z" fill="black"/>
      </g>
    </mask>
    <mask id="mask-0">
      <g>
        <path d="M 0 0 H 42880.0 V 35520.0 H 0 Z" fill="white" id="background"/>
        <path d="M9676 32280 c93 -6 230 -15 304 -20 74 -5 205 -14 290 -20 85 -5 218 -14 295 -20 77 -6 208 -15 290 -20 83 -5 202 -14 265 -20 63 -6 171 -14 240 -20 69 -5 143 -11 165 -14 22 -3 103 -10 180 -16 241 -18 359 -31 386 -41 32 -13 57 -61 77 -149 6 -25 16 -67 22 -95 16 -71 27 -122 40 -185 19 -90 29 -137 41 -187 19 -88 30 -138 39 -178 4 -22 13 -64 19 -92 6 -29 16 -77 22 -105 6 -29 15 -69 19 -88 5 -19 14 -62 20 -95 7 -33 16 -73 20 -90 4 -16 13 -57 20 -90 6 -33 16 -80 22 -105 5 -25 14 -64 19 -87 5 -24 14 -64 20 -90 10 -47 14 -67 38 -183 7 -30 16 -71 21 -90 5 -19 14 -62 20 -95 7 -33 16 -73 20 -90 4 -16 13 -57 20 -90 6 -33 16 -70 21 -83 5 -13 9 -34 9 -47 0 -13 4 -34 9 -47 5 -13 13 -45 19 -73 6 -27 18 -80 27 -118 9 -37 14 -71 11 -76 -3 -5 -34 -11 -68 -15 -71 -8 -117 -21 -168 -50 -19 -11 -46 -25 -60 -32 -60 -32 -159 -147 -194 -228 -47 -106 -63 -213 -46 -298 23 -116 47 -175 102 -256 l29 -42 -28 -13 c-26 -11 -82 -46 -260 -159 -40 -27 -76 -48 -79 -48 -3 0 -32 -18 -64 -40 -32 -22 -61 -40 -65 -40 -5 0 -36 -20 -187 -117 -37 -23 -70 -43 -74 -43 -3 0 -24 -13 -47 -29 -24 -16 -65 -42 -92 -59 -28 -16 -88 -53 -135 -82 -47 -29 -97 -60 -112 -69 -119 -71 -181 -110 -230 -143 -31 -21 -60 -38 -63 -38 -4 0 -26 -13 -50 -30 -24 -16 -47 -30 -50 -30 -4 0 -19 -8 -33 -19 -15 -10 -43 -28 -62 -38 -39 -22 -417 -248 -495 -295 -84 -52 -133 -78 -145 -78 -9 0 -138 106 -170 140 -3 3 -34 30 -70 60 -36 30 -67 57 -70 60 -24 24 -233 208 -280 246 -19 16 -37 31 -40 34 -3 3 -43 39 -90 80 -47 41 -87 77 -90 80 -3 3 -34 30 -70 60 -36 30 -67 57 -70 60 -3 3 -43 39 -90 80 -47 41 -87 77 -90 80 -3 3 -34 30 -70 60 -36 30 -103 89 -150 130 -47 42 -98 88 -115 102 -36 31 -195 169 -285 248 -36 32 -108 95 -160 140 -52 45 -115 101 -140 124 -25 23 -70 61 -100 86 -30 25 -57 47 -60 50 -3 3 -43 39 -90 80 -47 41 -101 89 -120 107 -19 17 -47 41 -62 53 -16 12 -28 26 -28 32 0 5 23 58 51 117 95 197 157 326 187 391 37 81 87 188 142 305 86 182 132 281 155 330 27 60 74 161 115 250 17 36 43 93 59 128 16 34 41 89 56 122 15 33 40 88 56 123 16 34 43 91 59 127 17 36 43 93 59 128 28 60 53 115 107 235 66 147 77 169 90 192 14 27 14 27 89 8 28 -7 93 -13 145 -13 158 0 278 52 386 168 74 78 144 217 144 283 0 31 21 46 56 39 17 -3 107 -10 200 -15z" fill="black"/>
        <path d="M7431 29144 c35 -31 84 -75 109 -98 25 -23 70 -61 100 -86 30 -25 75 -63 100 -86 42 -39 198 -175 265 -232 32 -27 186 -163 195 -172 3 -3 34 -30 70 -60 36 -30 67 -57 70 -60 3 -3 43 -39 90 -80 47 -41 87 -77 90 -80 3 -3 34 -30 70 -60 36 -30 67 -57 70 -60 3 -3 43 -39 90 -80 47 -41 87 -77 90 -80 3 -3 21 -18 40 -34 48 -39 260 -226 280 -246 3 -3 21 -18 40 -34 48 -39 260 -226 280 -246 3 -3 21 -18 40 -34 39 -31 147 -126 225 -196 57 -51 63 -57 99 -87 28 -25 31 -43 16 -113 -6 -25 -15 -70 -21 -100 -6 -30 -15 -73 -19 -95 -4 -22 -13 -67 -20 -100 -7 -33 -16 -78 -20 -100 -4 -22 -13 -67 -20 -100 -7 -33 -16 -78 -20 -100 -4 -22 -13 -67 -20 -100 -7 -33 -16 -78 -20 -100 -4 -22 -13 -67 -20 -100 -7 -33 -16 -78 -20 -100 -4 -22 -13 -67 -20 -100 -7 -33 -16 -78 -20 -100 -4 -22 -13 -65 -19 -95 -6 -30 -16 -77 -21 -105 -6 -27 -15 -72 -20 -100 -6 -27 -15 -72 -20 -100 -6 -27 -15 -72 -20 -100 -6 -27 -15 -72 -20 -100 -6 -27 -15 -72 -20 -100 -6 -27 -15 -72 -20 -100 -6 -27 -15 -72 -20 -100 -6 -27 -15 -72 -20 -100 -6 -27 -15 -72 -21 -100 -5 -27 -14 -70 -19 -95 -6 -25 -15 -70 -20 -100 -5 -30 -14 -75 -20 -100 -6 -25 -15 -70 -20 -100 -5 -30 -14 -75 -20 -100 -6 -25 -15 -70 -20 -100 -5 -30 -14 -75 -20 -100 -6 -25 -15 -70 -20 -100 -20 -114 -31 -155 -43 -167 -6 -6 -88 -37 -182 -68 -93 -30 -178 -60 -187 -65 -10 -6 -25 -10 -33 -10 -8 0 -23 -4 -33 -10 -9 -5 -132 -48 -272 -95 -416 -138 -600 -201 -607 -208 -3 -4 -15 -7 -25 -7 -10 0 -26 -4 -36 -10 -9 -5 -87 -32 -172 -60 -85 -28 -164 -55 -175 -60 -11 -5 -103 -37 -205 -70 -102 -33 -194 -65 -205 -70 -11 -5 -103 -36 -205 -70 -102 -33 -193 -65 -202 -70 -40 -23 -55 -12 -83 58 -36 90 -66 137 -135 202 -207 200 -530 201 -752 2 -20 -18 -51 -55 -68 -83 -28 -43 -60 -65 -60 -41 0 4 -35 37 -77 72 -43 36 -80 67 -83 70 -20 20 -232 207 -280 246 -19 16 -37 31 -40 34 -3 3 -48 43 -100 90 -52 47 -97 87 -100 90 -3 3 -34 30 -70 60 -36 30 -67 57 -70 60 -3 3 -43 39 -90 80 -47 41 -87 77 -90 80 -3 3 -34 30 -70 60 -36 30 -67 57 -70 60 -3 3 -43 39 -90 80 -47 41 -87 77 -90 80 -3 3 -34 30 -70 60 -36 30 -67 57 -70 60 -3 3 -43 39 -90 80 -47 41 -87 77 -90 80 -3 3 -34 30 -70 60 -36 30 -67 57 -70 60 -3 3 -43 39 -90 80 -47 41 -87 77 -90 80 -3 3 -31 27 -62 54 -67 56 -69 65 -36 165 55 169 76 239 86 281 6 25 20 86 32 135 22 95 32 135 49 200 5 22 19 78 30 125 11 47 27 114 36 150 10 36 21 83 25 105 5 22 14 60 20 85 6 25 15 65 20 90 6 25 15 65 21 90 5 25 12 59 15 75 3 17 13 66 24 110 10 44 23 105 29 135 7 30 16 73 21 95 4 22 13 63 18 90 17 81 33 155 52 240 10 44 23 105 29 135 7 30 16 73 21 95 4 22 13 65 20 95 6 30 15 73 20 95 4 22 14 67 20 100 26 128 23 125 93 125 57 1 122 13 202 38 113 35 241 152 297 272 59 125 70 224 42 367 -5 26 -3 34 12 39 11 3 28 10 39 14 11 5 38 14 60 21 22 6 49 15 60 20 11 4 38 13 60 20 22 6 49 15 60 20 11 4 38 13 60 20 22 6 49 15 60 20 11 4 38 13 60 20 57 17 97 30 120 39 11 4 38 13 60 19 22 7 49 16 60 20 11 5 38 14 60 20 22 7 49 16 60 20 11 5 38 14 60 20 22 7 49 16 60 20 11 5 38 14 60 20 22 7 49 16 60 21 11 4 40 14 65 21 25 7 49 16 55 21 5 4 17 8 27 8 10 0 26 4 36 9 23 12 56 25 127 51 33 12 70 26 83 31 12 5 32 13 45 18 12 5 60 23 107 41 47 18 95 36 108 41 12 5 32 13 45 18 12 5 60 23 107 41 104 39 118 45 150 58 14 5 63 24 110 42 95 36 110 42 160 63 112 48 233 103 280 127 19 10 42 19 51 19 9 1 45 -24 80 -55z" fill="black"/>
        <path d="M32497 31449 c113 -27 207 -105 233 -192 7 -23 16 -52 21 -65 5 -13 9 -59 9 -104 0 -102 -25 -153 -92 -185 -88 -43 -124 -57 -163 -64 -102 -18 -220 -43 -280 -58 -22 -5 -60 -14 -85 -20 -265 -57 -577 -264 -747 -495 -146 -198 -217 -369 -285 -691 -5 -27 -14 -60 -19 -73 -5 -13 -9 -34 -9 -47 0 -13 -5 -37 -11 -52 -6 -15 -15 -37 -19 -48 -23 -61 -59 -123 -90 -153 -51 -50 -93 -66 -175 -64 -156 2 -251 79 -294 238 -14 53 -14 260 0 321 27 117 62 244 79 288 5 11 16 40 25 65 20 54 30 77 89 200 45 94 65 130 154 282 50 85 208 288 256 329 148 127 226 186 302 230 49 28 107 62 129 75 74 44 280 141 370 174 33 12 69 26 80 30 161 69 408 106 522 79z" fill="black"/>
        <path d="M33358 15140 c67 -135 148 -293 181 -352 32 -59 73 -131 89 -160 16 -29 39 -71 52 -93 28 -48 56 -100 100 -180 43 -79 72 -131 100 -180 13 -22 34 -60 48 -85 14 -25 42 -74 62 -110 36 -62 59 -104 116 -207 15 -27 34 -61 44 -78 10 -16 29 -50 42 -75 14 -25 35 -62 47 -82 46 -82 62 -110 83 -145 37 -66 107 -200 253 -488 131 -259 168 -330 215 -410 10 -16 29 -50 42 -75 14 -25 35 -62 47 -82 11 -21 31 -55 42 -75 12 -21 33 -58 47 -83 13 -25 32 -58 42 -75 10 -16 29 -50 42 -75 14 -25 37 -66 52 -92 14 -27 37 -67 50 -90 13 -24 33 -61 46 -83 13 -22 34 -60 48 -85 14 -25 59 -106 100 -180 41 -74 84 -151 95 -170 55 -95 284 -547 308 -605 4 -11 18 -50 30 -87 19 -55 20 -70 9 -82 -27 -34 -51 -26 -320 102 -30 14 -73 38 -95 53 -38 25 -57 37 -152 90 -21 12 -42 25 -48 29 -9 7 -130 78 -225 132 -19 11 -47 29 -62 39 -14 11 -29 19 -33 19 -3 0 -25 13 -48 29 -51 34 -177 111 -184 111 -2 0 -31 18 -63 40 -32 22 -61 40 -64 40 -3 0 -40 22 -82 50 -42 27 -85 50 -94 50 -16 0 -41 -31 -220 -275 -20 -27 -83 -113 -140 -190 -57 -77 -122 -165 -144 -195 -22 -30 -144 -161 -270 -290 -127 -130 -282 -291 -345 -358 -62 -68 -127 -130 -143 -138 -27 -14 -31 -14 -49 2 -11 10 -27 34 -36 53 -9 20 -34 62 -55 93 -21 31 -38 60 -38 63 0 10 -120 186 -160 235 -20 25 -51 65 -68 90 -27 38 -89 121 -135 180 -7 9 -32 42 -57 75 -25 33 -108 139 -185 236 -77 97 -166 210 -197 250 -31 41 -65 83 -75 94 -10 11 -31 37 -46 58 -31 42 -55 47 -82 17 -10 -11 -22 -20 -26 -20 -7 0 -268 -170 -634 -413 -11 -8 -54 -34 -95 -59 -41 -25 -113 -69 -160 -98 -47 -29 -98 -61 -115 -70 -16 -10 -61 -37 -100 -61 -102 -63 -261 -139 -289 -139 -42 0 -41 16 2 125 17 42 143 292 182 360 13 22 39 69 58 105 19 36 47 88 62 115 15 28 42 77 60 110 18 33 43 79 56 103 13 23 35 61 48 85 13 23 38 69 56 102 62 113 88 160 140 255 57 104 96 175 143 260 16 30 40 73 52 95 12 22 33 60 47 85 33 60 77 139 123 225 21 39 41 75 45 80 4 6 24 42 45 80 21 39 51 95 68 125 16 30 43 80 60 110 16 30 40 74 53 98 13 23 35 61 48 85 13 23 38 69 56 102 18 33 43 79 56 103 13 23 35 61 48 85 13 23 38 69 56 102 83 152 170 310 216 393 43 75 71 126 104 187 45 82 73 133 100 180 13 22 35 63 50 90 15 28 42 75 60 105 18 30 41 69 50 85 81 139 304 502 338 550 23 33 74 107 114 165 39 58 92 124 116 147 41 39 46 41 57 25 7 -9 67 -127 133 -262z" fill="black"/>
        <path d="M5595 15790 c421 -14 729 -30 805 -40 36 -5 112 -14 170 -20 253 -28 330 -109 330 -350 0 -109 -14 -158 -60 -213 -30 -36 -58 -52 -185 -106 -72 -31 -77 -35 -97 -67 -42 -68 -54 -107 -79 -249 -66 -378 -92 -1750 -119 -6185 -28 -4766 -34 -5401 -53 -5490 -54 -260 -377 -539 -727 -629 -210 -53 -361 -45 -665 39 -173 47 -392 167 -523 285 -50 45 -132 157 -159 215 -6 14 -16 45 -21 70 -6 25 -14 56 -17 70 -7 29 -21 375 -35 870 -5 190 -14 462 -19 605 -18 487 -22 2055 -14 6045 l8 3985 446 6 c429 6 469 9 593 41 93 24 146 86 146 172 0 51 -21 77 -91 111 -99 47 -231 62 -669 75 -377 11 -539 26 -665 60 -16 5 -50 14 -75 21 -78 20 -204 87 -249 131 -92 91 -94 202 -7 333 72 108 122 140 276 174 118 25 171 34 245 41 127 11 1180 11 1510 0z" fill="black"/>
        <path d="M19065 11546 c171 -36 237 -61 350 -137 127 -84 274 -245 331 -361 50 -101 54 -115 54 -198 0 -113 -23 -151 -125 -207 -78 -43 -140 -69 -205 -84 -19 -4 -66 -15 -105 -24 -49 -12 -116 -17 -220 -17 -129 0 -164 4 -249 26 -213 55 -363 166 -435 321 -50 105 -70 234 -51 327 16 86 28 114 71 178 57 85 148 143 279 179 54 14 227 13 305 -3z" fill="black"/>
        <path d="M17932 8589 c216 -44 351 -142 511 -369 111 -158 167 -285 153 -352 -13 -66 -48 -103 -120 -126 -37 -12 -86 -22 -111 -22 -46 0 -82 -12 -125 -41 -23 -16 -40 -25 -147 -85 -22 -13 -63 -31 -90 -39 -26 -9 -57 -20 -68 -24 -110 -45 -248 -41 -325 9 -14 9 -38 22 -54 30 -71 36 -149 149 -178 258 -43 162 -28 388 34 522 46 97 152 185 263 218 118 34 173 38 257 21z" fill="black"/>
      </g>
    </mask>
    <path stroke="none" d="M32321 35442 c-62 -66 -105 -180 -150 -397 -7 -33 -21 -96 -31 -140 -10 -44 -23 -102 -28 -130 -19 -91 -34 -159 -52 -240 -20 -88 -36 -163 -52 -240 -5 -27 -14 -66 -18 -85 -5 -19 -14 -60 -21 -90 -6 -30 -15 -73 -19 -95 -5 -22 -14 -65 -21 -95 -6 -30 -19 -91 -29 -135 -10 -44 -23 -105 -29 -135 -7 -30 -16 -73 -21 -95 -13 -61 -28 -151 -40 -245 -6 -47 -15 -113 -20 -146 -13 -83 -12 -146 2 -194 10 -31 22 -45 60 -65 26 -15 72 -31 100 -37 78 -16 566 -22 665 -9 46 6 120 16 165 22 99 13 189 30 203 39 6 3 30 13 54 20 67 22 81 51 64 142 -7 40 -17 100 -22 133 -6 33 -15 87 -21 120 -6 33 -15 85 -20 115 -6 30 -14 75 -20 100 -6 25 -15 70 -20 100 -5 30 -14 75 -20 100 -6 25 -14 65 -19 90 -13 68 -39 199 -51 253 -5 26 -15 71 -21 100 -21 99 -30 142 -39 177 -5 19 -19 76 -30 125 -25 104 -25 107 -49 200 -11 39 -25 90 -33 115 -9 25 -21 65 -28 90 -35 124 -105 305 -144 374 -13 23 -32 57 -43 76 -25 44 -117 120 -145 120 -12 0 -37 -17 -57 -38z" fill="#000000" id="000000-000001" mask="url(#mask-0)"/>
    <path stroke="none" d="M35520 34577 c-25 -12 -64 -35 -85 -51 -101 -75 -142 -106 -160 -123 -12 -10 -59 -52 -105 -93 -81 -71 -114 -101 -304 -280 -340 -319 -823 -804 -956 -960 -30 -36 -66 -77 -80 -93 -70 -80 -110 -143 -110 -174 0 -43 62 -119 155 -190 93 -71 292 -213 299 -213 3 0 78 -36 168 -79 203 -99 266 -121 347 -121 61 0 94 13 137 55 24 23 124 164 155 220 19 33 42 74 51 90 44 78 154 314 198 425 22 56 52 124 76 174 8 16 14 33 14 37 0 5 12 34 26 66 14 32 32 72 39 88 7 17 22 51 34 77 11 26 21 50 21 53 0 3 10 27 21 53 36 79 47 105 69 162 12 30 32 78 46 108 13 29 24 55 24 57 0 3 9 24 19 48 25 53 109 303 127 377 28 115 15 218 -36 283 -19 24 -27 27 -83 26 -42 0 -76 -7 -107 -22z" fill="#000000" id="000000-000002" mask="url(#mask-0)"/>
    <path stroke="none" d="M29174 34526 c-45 -20 -58 -60 -51 -164 4 -48 11 -109 17 -137 5 -27 13 -68 16 -90 3 -22 9 -51 14 -65 4 -14 22 -70 39 -125 69 -222 129 -400 161 -480 4 -11 18 -47 30 -80 12 -33 26 -69 30 -80 4 -11 18 -47 30 -80 12 -33 26 -68 31 -77 5 -10 9 -22 9 -28 0 -5 11 -33 24 -62 13 -29 38 -87 56 -128 18 -41 41 -95 52 -120 11 -25 27 -61 35 -80 8 -19 23 -53 33 -75 10 -22 25 -56 33 -75 8 -19 26 -60 39 -90 14 -30 31 -71 38 -90 8 -19 21 -48 30 -65 9 -16 36 -66 60 -110 78 -144 112 -185 155 -185 17 0 35 4 40 8 6 5 37 19 70 32 83 33 178 83 325 170 30 18 75 44 100 58 107 59 326 201 384 248 34 28 77 73 95 100 29 44 32 54 26 99 -4 28 -12 61 -19 75 -45 89 -82 143 -165 235 -100 111 -801 800 -961 945 -58 52 -107 97 -110 100 -28 29 -183 160 -252 213 -47 37 -92 73 -100 80 -11 11 -92 57 -199 113 -41 22 -81 25 -115 10z" fill="#000000" id="000000-000003" mask="url(#mask-0)"/>
    <path stroke="none" d="M8795 32881 c-137 -20 -256 -94 -348 -215 -71 -92 -107 -201 -107 -321 0 -92 20 -171 64 -257 l35 -67 -35 -78 c-34 -74 -56 -123 -92 -203 -8 -19 -37 -81 -64 -138 -26 -57 -48 -105 -48 -107 0 -1 -18 -43 -41 -92 -22 -48 -47 -104 -56 -123 -8 -19 -28 -62 -43 -95 -15 -33 -40 -87 -55 -120 -15 -33 -38 -82 -50 -110 -13 -27 -33 -72 -45 -100 -12 -27 -35 -77 -50 -110 -15 -33 -40 -86 -54 -117 -14 -32 -37 -82 -50 -110 -13 -29 -34 -75 -46 -103 -12 -27 -32 -72 -45 -100 -12 -27 -29 -66 -38 -85 -8 -19 -27 -61 -41 -93 -14 -32 -26 -60 -26 -62 0 -2 -11 -28 -24 -57 -42 -94 -78 -175 -111 -253 -16 -37 -49 -112 -81 -183 -13 -29 -24 -55 -24 -57 0 -5 -36 -89 -49 -114 -13 -25 16 -15 -671 -242 -322 -106 -589 -196 -594 -201 -6 -4 -18 -8 -28 -8 -10 0 -26 -4 -36 -10 -9 -5 -87 -32 -172 -60 -85 -28 -164 -55 -175 -60 -11 -5 -103 -37 -205 -70 -102 -33 -194 -65 -205 -70 -21 -9 -140 -51 -215 -76 -25 -8 -54 -19 -65 -23 -11 -5 -36 -14 -55 -21 -19 -7 -44 -16 -55 -20 -11 -4 -36 -13 -55 -20 -19 -7 -54 -21 -78 -32 -76 -33 -93 -33 -137 2 -40 32 -108 66 -180 91 -55 18 -247 18 -305 0 -110 -36 -215 -109 -277 -195 -84 -116 -108 -190 -107 -336 0 -157 42 -259 155 -377 l52 -55 -11 -46 c-6 -26 -20 -90 -32 -142 -28 -122 -39 -168 -51 -206 -5 -17 -9 -40 -9 -52 0 -11 -4 -31 -9 -44 -5 -13 -14 -48 -20 -78 -7 -30 -21 -91 -31 -135 -10 -44 -29 -123 -40 -175 -28 -122 -39 -168 -51 -206 -5 -17 -9 -40 -9 -52 0 -11 -4 -31 -9 -44 -5 -13 -14 -50 -21 -83 -6 -33 -15 -81 -20 -107 -6 -27 -14 -69 -20 -95 -5 -27 -14 -75 -20 -108 -12 -62 -26 -131 -40 -200 -5 -22 -13 -67 -20 -100 -6 -33 -15 -81 -20 -107 -6 -27 -14 -69 -20 -95 -5 -27 -14 -75 -20 -108 -12 -62 -26 -131 -40 -200 -5 -22 -13 -65 -19 -95 -6 -30 -18 -91 -27 -135 -9 -44 -20 -102 -25 -130 -5 -27 -13 -70 -19 -95 -27 -116 -28 -111 36 -165 33 -27 61 -52 64 -55 7 -7 159 -141 195 -172 74 -63 224 -194 265 -232 25 -23 70 -61 100 -86 30 -25 57 -47 60 -50 10 -10 186 -167 215 -192 67 -56 223 -193 265 -232 25 -22 74 -66 110 -96 36 -30 74 -63 85 -73 11 -11 70 -62 130 -116 289 -254 341 -301 360 -318 11 -10 49 -43 85 -73 36 -30 67 -57 70 -60 3 -3 43 -39 90 -80 118 -104 130 -119 130 -160 0 -67 34 -178 77 -250 68 -114 163 -190 299 -239 89 -31 246 -30 343 3 142 48 248 144 320 289 l42 84 162 53 c89 30 166 57 172 62 5 4 17 8 27 8 10 0 26 4 36 10 9 5 181 64 382 130 201 66 373 125 382 130 10 6 25 10 33 10 8 0 23 4 33 10 9 5 127 46 262 90 135 44 253 85 262 90 10 6 25 10 33 10 8 0 23 4 33 10 9 5 100 37 202 70 102 33 193 65 202 70 10 6 25 10 33 10 8 0 23 4 33 10 9 5 100 37 202 70 102 34 194 65 205 69 11 5 39 14 63 22 23 7 46 17 51 23 9 12 23 67 41 161 6 33 15 78 20 100 5 22 12 56 15 75 4 19 11 53 16 75 5 22 14 65 19 95 5 30 14 75 20 100 6 25 14 65 19 90 13 68 39 199 51 253 5 26 15 70 20 97 6 28 15 73 20 100 6 28 15 71 20 98 12 53 38 184 51 252 5 25 13 65 19 90 6 25 15 70 20 100 5 30 14 75 20 100 5 25 14 68 19 95 6 28 15 73 21 100 5 28 14 73 20 100 5 28 14 73 20 100 5 28 15 75 21 105 6 30 15 73 19 95 4 22 13 67 20 100 7 33 16 80 21 105 6 25 14 68 19 95 5 28 14 70 20 95 6 25 15 70 20 100 5 30 14 75 20 100 6 25 15 70 20 100 5 30 14 75 20 100 5 25 14 68 19 95 26 134 32 161 47 182 8 13 22 27 31 30 9 3 97 56 197 116 100 60 197 118 216 129 19 11 46 28 60 38 22 16 62 39 125 74 11 6 46 28 78 49 31 20 60 37 63 37 3 0 32 18 64 40 32 22 61 40 64 40 2 0 42 23 88 51 46 28 112 70 148 92 36 22 108 65 160 97 52 31 133 81 180 110 47 29 128 78 180 110 52 32 133 81 180 110 47 29 99 60 115 70 17 10 68 41 115 70 145 90 212 130 216 130 1 0 22 13 46 29 62 41 77 43 159 26 107 -22 153 -18 284 23 230 71 395 346 355 590 -24 149 -116 293 -244 381 -45 31 -49 41 -76 171 -7 30 -16 73 -20 95 -5 22 -14 65 -20 95 -7 30 -16 73 -20 95 -5 22 -14 65 -20 95 -7 30 -16 73 -20 95 -5 22 -14 65 -20 95 -7 30 -16 73 -20 95 -5 22 -14 65 -20 95 -7 30 -16 73 -20 95 -5 22 -14 65 -20 95 -7 30 -16 73 -20 95 -5 22 -14 65 -20 95 -7 30 -16 73 -20 95 -8 37 -17 77 -40 190 -5 22 -13 60 -18 85 -6 25 -15 70 -22 100 -6 30 -15 74 -20 98 -6 23 -15 63 -21 90 -5 26 -14 63 -19 82 -4 19 -18 78 -30 130 -34 152 -41 183 -50 220 -7 31 -16 71 -60 268 -23 101 -30 130 -41 182 -20 96 -20 96 -91 104 -117 13 -272 27 -393 36 -66 5 -169 14 -230 20 -108 11 -226 21 -475 40 -69 6 -206 15 -305 20 -99 5 -245 14 -325 20 -258 19 -478 30 -796 39 -172 5 -316 11 -321 14 -5 3 -24 36 -43 74 -63 126 -204 243 -340 282 -50 14 -176 20 -235 12z" fill="#000000" id="000000-000004" mask="url(#mask-0)"/>
    <path stroke="none" d="M11711 31683 c-31 -6 -103 -64 -121 -97 -13 -26 -13 -25 20 -156 5 -19 23 -93 40 -165 17 -71 36 -148 41 -170 17 -63 26 -103 49 -200 24 -104 28 -119 40 -160 5 -16 18 -66 30 -110 12 -44 25 -93 30 -110 10 -36 43 -157 69 -257 20 -77 66 -219 81 -253 5 -11 22 -58 37 -104 26 -81 67 -141 97 -141 22 0 92 77 114 124 21 44 21 48 6 103 -43 160 -77 292 -84 323 -5 19 -16 62 -25 95 -15 55 -24 87 -46 170 -4 17 -13 50 -20 75 -6 25 -15 59 -20 75 -18 71 -32 122 -40 150 -5 17 -17 69 -29 118 -11 48 -29 125 -40 172 -11 47 -29 123 -40 170 -11 47 -29 124 -41 173 -41 177 -38 169 -71 176 -32 6 -38 6 -77 -1z" fill="#000000" id="000000-000008" mask="url(#mask-1)"/>
    <path stroke="none" d="M7176 28648 c-36 -40 -66 -77 -66 -83 0 -12 33 -44 140 -135 36 -30 67 -57 70 -60 3 -3 43 -39 90 -80 47 -41 87 -77 90 -80 3 -3 34 -30 70 -60 36 -30 67 -57 70 -60 3 -3 43 -39 90 -80 47 -41 87 -77 90 -80 3 -3 34 -30 70 -60 36 -30 67 -57 70 -60 3 -3 43 -39 90 -80 47 -41 87 -77 90 -80 3 -3 21 -18 40 -34 39 -31 149 -128 220 -192 25 -22 59 -52 75 -66 35 -29 191 -166 285 -248 36 -32 108 -95 160 -140 52 -45 115 -101 140 -124 118 -108 170 -147 184 -139 23 13 126 133 126 147 0 7 -28 37 -62 67 -35 30 -83 72 -108 95 -25 22 -58 52 -75 66 -35 29 -191 166 -285 248 -36 32 -108 95 -160 140 -52 45 -115 101 -140 124 -25 23 -70 61 -100 86 -30 25 -57 47 -60 50 -3 3 -43 39 -90 80 -47 41 -87 77 -90 80 -3 3 -34 30 -70 60 -36 30 -67 57 -70 60 -3 3 -43 39 -90 80 -47 41 -87 77 -90 80 -3 3 -34 30 -70 60 -36 30 -67 57 -70 60 -3 3 -43 39 -90 80 -47 41 -87 77 -90 80 -3 3 -34 30 -70 60 -36 30 -67 57 -70 60 -25 25 -169 150 -173 150 -3 0 -35 -32 -71 -72z" fill="#000000" id="000000-000011" mask="url(#mask-1)"/>
    <path stroke="none" d="M4342 26887 c-12 -13 -22 -31 -22 -40 0 -9 -9 -51 -19 -94 -36 -145 -73 -304 -91 -390 -5 -29 -14 -75 -20 -103 -12 -59 -28 -137 -42 -200 -19 -89 -27 -126 -38 -185 -6 -33 -15 -78 -20 -100 -5 -22 -18 -92 -30 -155 -12 -63 -29 -149 -37 -190 -44 -211 -72 -453 -59 -504 8 -32 27 -33 86 -1 25 13 64 33 86 44 46 22 55 41 73 141 6 36 16 85 21 110 5 25 14 72 20 105 13 66 22 111 46 225 9 41 19 93 24 115 4 22 13 65 20 95 7 30 16 73 21 95 4 22 13 60 18 85 6 25 16 68 21 95 5 28 15 70 20 95 6 25 15 65 20 90 6 25 14 63 19 85 5 22 14 65 21 95 7 30 16 73 21 95 5 22 13 63 19 90 5 28 16 75 24 105 16 61 15 64 -44 115 -19 17 -53 47 -76 68 -23 20 -46 37 -51 37 -5 0 -19 -10 -31 -23z" fill="#000000" id="000000-000014" mask="url(#mask-1)"/>
    <path stroke="none" d="M8635 24131 c-27 -10 -57 -20 -65 -24 -8 -3 -89 -31 -180 -61 -244 -82 -582 -198 -627 -217 -57 -23 -72 -28 -128 -49 -33 -12 -71 -27 -85 -32 -34 -14 -54 -22 -125 -48 -33 -12 -69 -26 -80 -30 -11 -4 -58 -22 -105 -40 -123 -46 -127 -48 -300 -128 -36 -16 -87 -40 -115 -52 -27 -12 -66 -29 -85 -38 -42 -18 -100 -71 -100 -90 0 -15 72 -84 108 -103 19 -11 33 -10 80 6 31 10 62 21 67 25 6 3 28 12 50 19 22 7 49 16 60 21 11 4 46 17 78 29 31 12 83 30 115 42 31 12 66 25 77 29 11 4 36 13 55 20 19 7 44 16 55 20 19 8 57 22 190 70 133 48 171 62 190 70 11 4 36 13 55 20 19 7 44 16 55 20 11 4 36 13 55 20 19 7 44 16 55 20 11 4 36 13 55 20 19 7 44 16 55 21 11 4 40 15 65 23 25 8 83 29 130 46 47 18 96 35 110 40 33 10 122 46 177 71 24 10 64 28 91 40 26 12 63 28 82 37 40 18 90 60 90 77 0 19 -124 126 -143 124 -7 -1 -34 -9 -62 -18z" fill="#000000" id="000000-000018" mask="url(#mask-1)"/>
    <path stroke="none" d="M37290 32408 c-133 -15 -402 -65 -530 -97 -19 -5 -53 -14 -75 -20 -22 -5 -62 -15 -90 -22 -27 -6 -63 -15 -80 -20 -16 -5 -106 -27 -200 -50 -93 -22 -195 -49 -225 -58 -30 -10 -89 -28 -130 -41 -41 -13 -100 -31 -130 -40 -30 -9 -89 -28 -130 -40 -237 -72 -390 -132 -455 -178 -44 -31 -45 -33 -45 -86 0 -30 4 -65 9 -78 5 -13 14 -41 21 -63 18 -60 188 -402 233 -470 120 -180 209 -297 270 -357 83 -83 103 -85 203 -30 116 64 365 239 594 419 8 6 35 27 60 45 108 82 146 110 160 121 8 7 50 38 92 70 42 31 83 63 90 70 7 6 47 41 88 77 41 36 77 67 80 70 3 3 30 25 60 50 30 25 57 47 60 50 3 3 39 34 80 69 194 166 359 360 390 458 11 37 11 46 -4 77 -9 20 -29 42 -44 50 -65 34 -196 43 -352 24z" fill="#000000" id="000000-000005" mask="url(#mask-1)"/>
    <path stroke="none" d="M27154 32381 c-17 -11 -34 -31 -38 -45 -6 -24 13 -95 39 -146 48 -93 246 -311 455 -500 57 -52 111 -101 118 -108 8 -7 30 -25 50 -40 21 -15 39 -29 42 -32 5 -5 100 -84 130 -107 8 -6 51 -40 95 -75 44 -35 99 -77 122 -94 23 -16 66 -47 95 -70 29 -22 105 -79 168 -126 63 -46 161 -119 217 -161 137 -102 358 -250 413 -276 l44 -21 36 28 c32 26 159 196 160 215 0 5 13 27 29 50 26 39 60 95 114 187 49 83 237 451 237 462 0 4 8 27 19 51 26 59 39 96 45 137 5 31 2 38 -27 61 -17 14 -79 44 -137 66 -123 48 -187 67 -440 133 -25 7 -56 16 -70 20 -14 4 -63 18 -110 30 -47 12 -96 26 -110 30 -53 16 -180 48 -327 81 -24 5 -62 13 -85 18 -24 6 -83 19 -133 31 -95 22 -154 36 -220 50 -22 5 -80 18 -130 30 -49 12 -110 26 -135 31 -25 6 -61 14 -80 19 -19 5 -55 13 -80 19 -25 5 -67 15 -95 21 -194 44 -230 50 -308 50 -53 0 -80 -5 -103 -19z" fill="#000000" id="000000-000006" mask="url(#mask-1)"/>
    <path stroke="none" d="M32400 32210 c-113 -4 -232 -12 -265 -18 -33 -6 -96 -16 -140 -22 -74 -10 -122 -21 -185 -40 -14 -4 -45 -13 -70 -20 -25 -7 -56 -16 -70 -20 -14 -4 -45 -13 -70 -20 -75 -20 -86 -25 -252 -99 -27 -11 -69 -30 -95 -42 -103 -46 -120 -54 -183 -94 -36 -23 -103 -66 -150 -95 -47 -29 -92 -58 -102 -64 -74 -49 -341 -291 -418 -381 -115 -132 -184 -220 -232 -295 -79 -121 -188 -298 -188 -305 0 -3 -9 -27 -21 -53 -12 -26 -25 -56 -29 -67 -4 -11 -17 -41 -29 -67 -12 -26 -21 -50 -21 -53 0 -3 -10 -27 -21 -53 -12 -26 -28 -63 -37 -82 -8 -19 -19 -51 -24 -70 -5 -19 -14 -51 -19 -70 -6 -19 -14 -51 -19 -70 -5 -19 -14 -53 -20 -75 -6 -22 -16 -64 -21 -92 -5 -29 -14 -79 -19 -110 -6 -32 -17 -143 -26 -248 -13 -152 -14 -211 -5 -295 6 -58 11 -127 11 -154 0 -27 4 -65 9 -85 5 -20 15 -63 21 -96 7 -33 17 -82 23 -110 15 -71 104 -341 132 -400 13 -27 42 -90 65 -140 62 -134 271 -477 320 -525 3 -3 17 -21 32 -42 15 -20 33 -42 40 -50 7 -7 33 -38 57 -68 69 -86 257 -269 353 -343 47 -37 92 -73 100 -80 15 -16 165 -117 172 -117 3 0 24 -13 48 -29 43 -29 232 -126 298 -154 19 -8 55 -24 80 -35 47 -20 192 -70 270 -92 25 -7 56 -16 70 -20 23 -8 63 -15 223 -41 31 -5 83 -14 115 -20 88 -16 522 -7 667 14 152 23 240 40 338 66 42 12 110 30 150 40 198 53 460 164 680 289 104 59 196 114 205 122 9 9 71 57 138 108 66 50 149 122 184 159 35 38 92 97 125 133 51 53 325 446 325 465 0 3 33 74 74 158 65 133 93 202 137 347 6 19 14 44 19 55 16 38 48 160 54 205 4 25 11 68 16 95 29 153 41 316 36 500 -8 301 -24 415 -96 690 -17 66 -35 134 -39 150 -4 17 -15 46 -23 65 -9 19 -41 100 -73 179 -31 80 -67 164 -81 188 -13 24 -36 64 -50 91 -111 199 -156 270 -211 338 -17 21 -62 77 -100 124 -37 47 -72 91 -78 98 -5 6 -77 74 -160 150 -100 93 -195 169 -287 230 -76 51 -140 92 -142 92 -3 0 -22 11 -42 25 -32 22 -178 95 -190 95 -2 0 -28 11 -59 25 -124 56 -162 72 -205 84 -25 7 -56 17 -70 21 -14 4 -43 13 -65 19 -22 6 -71 19 -110 30 -81 22 -115 28 -448 71 -43 5 -88 9 -100 8 -12 -1 -114 -4 -227 -8z" fill="#000000" id="000000-000007" mask="url(#mask-1)"/>
    <path stroke="none" d="M28660 30209 c-79 -14 -253 -42 -315 -50 -55 -7 -145 -21 -315 -50 -36 -6 -81 -15 -100 -20 -19 -4 -74 -17 -122 -29 -49 -11 -126 -29 -173 -40 -47 -11 -124 -29 -172 -40 -194 -46 -208 -50 -485 -142 -130 -43 -242 -78 -249 -78 -6 0 -58 -23 -116 -51 -96 -48 -153 -94 -153 -126 0 -27 71 -78 182 -132 106 -51 256 -110 323 -128 11 -2 29 -8 40 -13 31 -13 74 -26 155 -49 105 -30 145 -41 260 -71 25 -7 56 -16 70 -20 14 -5 50 -14 80 -20 30 -7 65 -16 78 -21 13 -5 34 -9 47 -9 13 0 34 -4 47 -9 13 -5 50 -15 83 -21 33 -7 92 -21 130 -30 39 -9 97 -23 130 -30 33 -6 70 -16 83 -21 13 -5 34 -9 47 -9 13 0 34 -4 47 -9 33 -13 110 -28 208 -41 47 -6 110 -15 141 -20 73 -11 213 6 267 33 68 33 112 116 133 252 15 98 16 732 1 791 -6 21 -16 63 -22 93 -15 63 -32 87 -79 107 -37 15 -175 17 -251 3z" fill="#000000" id="000000-000009" mask="url(#mask-2)"/>
    <path stroke="none" d="M36198 30168 c-31 -5 -78 -20 -103 -35 -44 -24 -95 -87 -95 -116 0 -7 -4 -17 -9 -22 -24 -27 -33 -153 -33 -477 1 -324 3 -367 34 -498 15 -65 53 -117 97 -132 44 -15 158 -15 226 0 47 10 78 15 238 43 34 6 80 14 102 19 58 13 214 49 258 60 20 6 54 14 75 20 20 5 75 18 122 29 151 35 293 71 370 92 41 11 91 25 110 30 19 6 49 14 65 19 35 10 76 22 160 45 33 8 74 20 90 25 17 5 50 14 75 21 98 26 348 112 398 136 39 18 58 35 70 60 16 33 15 36 -3 71 -25 45 -116 110 -198 141 -34 12 -87 32 -117 43 -30 11 -64 24 -75 28 -57 23 -113 43 -140 51 -16 4 -46 12 -65 18 -19 5 -71 19 -115 31 -44 12 -96 26 -115 31 -19 6 -51 14 -70 19 -19 5 -51 13 -70 19 -69 19 -177 45 -300 72 -25 6 -61 14 -80 19 -19 4 -80 18 -135 30 -111 24 -251 56 -305 69 -82 21 -316 52 -371 50 -18 -1 -60 -6 -91 -11z" fill="#000000" id="000000-000010" mask="url(#mask-2)"/>
    <path stroke="none" d="M28979 28296 c-65 -32 -215 -134 -352 -239 -60 -45 -151 -116 -410 -317 -32 -25 -84 -65 -115 -89 -70 -53 -218 -177 -242 -201 -3 -3 -30 -25 -60 -50 -302 -247 -579 -498 -648 -586 -39 -51 -40 -81 -4 -154 l27 -55 90 -3 c111 -4 238 11 450 54 44 9 103 20 130 25 28 5 70 13 95 19 25 6 70 15 100 20 30 5 75 14 100 20 25 6 70 15 100 20 30 5 73 14 95 19 22 5 63 14 90 20 28 6 66 15 85 20 60 16 69 19 325 81 138 33 259 63 270 66 107 27 167 44 205 56 25 8 79 25 120 38 41 12 89 28 105 35 93 39 125 57 135 74 12 24 13 108 1 147 -5 16 -15 49 -22 74 -7 25 -16 50 -19 55 -4 6 -13 26 -20 45 -7 19 -24 60 -38 90 -13 30 -31 71 -39 90 -45 104 -78 167 -150 285 -44 72 -86 141 -94 155 -42 73 -142 184 -183 204 -46 22 -51 21 -127 -18z" fill="#000000" id="000000-000012" mask="url(#mask-2)"/>
    <path stroke="none" d="M35785 28181 c-49 -30 -118 -109 -190 -215 -37 -55 -75 -111 -85 -125 -51 -76 -99 -152 -109 -176 -5 -11 -43 -90 -85 -176 -42 -86 -76 -161 -76 -168 0 -6 -4 -19 -9 -29 -19 -38 -31 -91 -31 -139 0 -47 3 -54 38 -83 58 -48 192 -109 373 -170 68 -22 133 -45 144 -50 11 -4 31 -11 45 -15 14 -3 75 -19 135 -35 166 -43 304 -78 360 -90 28 -6 69 -15 93 -20 23 -6 61 -14 85 -19 23 -5 63 -14 90 -20 26 -6 68 -16 95 -22 85 -19 126 -27 195 -38 37 -6 97 -16 135 -22 37 -6 85 -15 107 -19 172 -36 483 -39 545 -6 47 25 59 44 60 87 0 52 -98 199 -203 302 -168 166 -289 277 -367 337 -25 19 -47 37 -50 40 -27 29 -278 229 -390 310 -76 55 -404 304 -410 310 -7 10 -126 91 -179 123 -25 16 -55 37 -66 47 -31 28 -174 100 -198 100 -12 0 -35 -9 -52 -19z" fill="#000000" id="000000-000013" mask="url(#mask-2)"/>
    <path stroke="none" d="M30152 26878 c-45 -56 -198 -303 -239 -388 -67 -139 -172 -360 -183 -385 -4 -11 -17 -41 -29 -67 -12 -26 -21 -50 -21 -53 0 -3 -10 -27 -21 -53 -51 -113 -59 -132 -59 -137 0 -3 -10 -27 -21 -53 -36 -80 -47 -105 -69 -162 -12 -30 -28 -71 -37 -90 -21 -48 -25 -59 -73 -185 -23 -60 -46 -120 -51 -132 -5 -13 -13 -33 -18 -45 -5 -13 -19 -50 -31 -83 -12 -33 -31 -79 -41 -102 -11 -24 -19 -47 -19 -53 0 -6 -4 -18 -10 -28 -9 -17 -49 -137 -90 -272 -12 -41 -26 -85 -31 -98 -26 -68 5 -92 123 -95 61 -1 92 3 118 15 19 9 46 21 60 26 22 9 204 134 271 187 28 22 93 78 273 235 67 58 132 115 146 126 153 129 311 278 545 516 292 295 328 334 385 408 19 25 48 61 66 82 43 48 104 172 104 209 0 67 -69 150 -135 162 -100 18 -200 64 -368 169 -59 38 -110 68 -113 68 -6 0 -94 60 -104 70 -3 3 -52 39 -110 79 -58 41 -125 89 -149 108 -49 37 -54 38 -69 21z" fill="#000000" id="000000-000015" mask="url(#mask-2)"/>
    <path stroke="none" d="M34655 26669 c-16 -5 -46 -14 -65 -20 -33 -10 -123 -42 -165 -59 -11 -5 -50 -20 -86 -34 -82 -31 -409 -197 -504 -256 -38 -23 -109 -69 -158 -102 l-87 -59 15 -36 c18 -43 44 -78 134 -183 63 -72 98 -110 241 -264 317 -340 867 -888 1030 -1026 36 -30 67 -57 70 -60 25 -25 142 -118 214 -169 248 -179 386 -176 386 8 0 36 -4 78 -9 95 -56 185 -113 350 -165 475 -14 36 -26 68 -26 73 0 4 -8 27 -19 51 -10 23 -29 69 -41 102 -12 33 -31 79 -41 102 -11 24 -19 47 -19 53 0 6 -4 18 -9 28 -11 22 -23 51 -56 137 -26 69 -40 103 -75 180 -46 103 -60 135 -60 140 0 5 -14 37 -60 140 -10 22 -25 56 -33 75 -8 19 -27 64 -42 100 -15 36 -54 120 -86 187 -33 67 -59 125 -59 128 0 3 -18 35 -40 71 -22 36 -40 70 -40 74 0 5 -14 20 -31 34 -32 27 -63 31 -114 15z" fill="#000000" id="000000-000016" mask="url(#mask-2)"/>
    <path stroke="none" d="M32135 26050 c-206 -10 -309 -40 -340 -99 -17 -34 -20 -136 -5 -220 5 -31 14 -94 21 -141 13 -98 35 -225 50 -290 5 -25 14 -65 19 -90 6 -25 14 -65 20 -90 6 -25 13 -61 16 -80 3 -19 9 -46 14 -60 4 -14 13 -52 20 -85 15 -75 25 -123 60 -277 5 -24 14 -68 20 -98 17 -78 40 -184 60 -272 5 -24 14 -68 20 -98 20 -95 31 -144 40 -180 5 -19 14 -62 21 -95 17 -87 35 -154 53 -205 9 -25 16 -52 16 -61 0 -19 76 -138 99 -156 33 -25 67 -15 125 38 31 28 56 55 56 59 0 4 18 38 40 74 22 36 40 70 40 76 0 6 9 29 19 53 38 86 76 194 112 322 11 39 24 84 29 100 5 17 16 58 24 93 9 34 23 90 32 125 9 34 20 80 24 102 5 22 14 60 20 85 6 25 15 68 20 95 6 28 14 70 20 95 5 25 14 68 19 95 6 28 15 73 21 100 5 28 15 73 20 100 5 28 15 70 20 95 6 25 15 70 20 100 5 30 14 75 20 100 6 25 14 70 20 100 5 30 14 80 20 110 5 30 14 82 20 115 17 113 31 189 36 196 9 16 -20 59 -50 73 -76 36 -148 52 -341 76 -49 6 -120 15 -157 20 -73 11 -203 11 -433 0z" fill="#000000" id="000000-000017" mask="url(#mask-2)"/>
    <path stroke="none" d="M16306 23260 c-14 -22 -26 -42 -26 -45 0 -4 -13 -25 -29 -48 -54 -80 -99 -163 -147 -272 -22 -51 -44 -165 -44 -230 0 -78 25 -178 64 -258 64 -132 216 -256 371 -305 121 -38 183 -44 439 -47 197 -2 250 -6 257 -16 5 -8 9 -1058 9 -2359 l-1 -2345 -28 -55 c-27 -54 -65 -124 -101 -185 -10 -16 -32 -57 -50 -90 -18 -33 -43 -79 -56 -102 -28 -49 -61 -111 -112 -203 -19 -36 -44 -81 -55 -100 -31 -54 -61 -109 -97 -175 -18 -33 -43 -79 -56 -102 -13 -24 -36 -64 -50 -90 -15 -27 -34 -61 -44 -78 -10 -16 -34 -59 -52 -95 -19 -36 -45 -83 -58 -105 -13 -22 -36 -64 -51 -92 -75 -137 -88 -161 -113 -205 -14 -27 -37 -68 -51 -93 -14 -25 -36 -65 -50 -90 -14 -25 -37 -66 -51 -92 -25 -45 -38 -69 -113 -205 -15 -29 -38 -71 -51 -93 -26 -45 -70 -126 -110 -200 -15 -27 -37 -68 -50 -90 -27 -47 -55 -98 -100 -180 -18 -33 -44 -80 -58 -105 -14 -25 -35 -63 -47 -85 -12 -22 -37 -67 -55 -100 -18 -33 -43 -79 -56 -102 -13 -24 -35 -62 -48 -85 -13 -24 -38 -70 -56 -103 -18 -33 -43 -79 -56 -102 -13 -24 -35 -62 -48 -85 -13 -24 -38 -70 -56 -103 -18 -33 -44 -80 -58 -105 -14 -25 -36 -65 -50 -90 -13 -25 -32 -58 -42 -75 -10 -16 -34 -59 -52 -95 -19 -36 -45 -83 -58 -105 -13 -22 -39 -69 -58 -105 -19 -36 -50 -91 -68 -123 -19 -32 -34 -60 -34 -62 0 -2 -13 -26 -28 -52 -16 -26 -48 -84 -72 -128 -24 -44 -52 -96 -63 -115 -30 -52 -60 -108 -97 -175 -18 -33 -43 -79 -56 -102 -13 -24 -35 -62 -48 -85 -13 -24 -38 -70 -56 -103 -18 -33 -43 -79 -56 -102 -13 -24 -36 -64 -50 -90 -15 -27 -34 -61 -44 -78 -10 -16 -34 -59 -52 -95 -19 -36 -45 -83 -58 -105 -39 -68 -92 -165 -165 -300 -21 -38 -41 -74 -45 -80 -4 -5 -27 -46 -50 -90 -24 -44 -52 -96 -63 -115 -30 -52 -60 -108 -97 -175 -18 -33 -44 -80 -58 -105 -14 -25 -35 -63 -47 -85 -12 -22 -37 -67 -55 -100 -18 -33 -43 -78 -55 -100 -12 -22 -35 -62 -50 -90 -15 -27 -35 -63 -45 -80 -10 -16 -34 -59 -52 -95 -19 -36 -45 -83 -58 -105 -27 -48 -56 -99 -100 -180 -18 -33 -43 -79 -56 -102 -13 -24 -35 -62 -48 -85 -13 -24 -38 -70 -56 -103 -18 -33 -44 -80 -58 -105 -14 -25 -35 -63 -47 -85 -12 -22 -37 -67 -55 -100 -18 -33 -40 -73 -50 -90 -25 -43 -68 -120 -108 -195 -19 -36 -45 -84 -58 -107 -13 -24 -36 -64 -50 -90 -15 -27 -34 -61 -44 -78 -10 -16 -34 -59 -52 -95 -19 -36 -45 -83 -58 -105 -27 -48 -56 -99 -100 -180 -18 -33 -43 -79 -56 -102 -13 -24 -35 -62 -48 -85 -13 -24 -38 -70 -56 -103 -18 -33 -43 -79 -56 -103 -13 -23 -35 -61 -48 -85 -13 -23 -38 -69 -56 -102 -18 -33 -40 -73 -50 -90 -27 -46 -61 -108 -160 -290 -15 -27 -37 -68 -50 -90 -28 -48 -56 -100 -100 -180 -18 -33 -43 -79 -56 -102 -13 -24 -35 -63 -49 -88 -14 -25 -37 -66 -52 -92 -14 -27 -38 -70 -53 -98 -15 -27 -37 -68 -50 -90 -27 -47 -55 -98 -100 -180 -43 -79 -72 -131 -100 -180 -28 -49 -57 -101 -100 -180 -43 -79 -72 -131 -100 -180 -22 -39 -37 -66 -108 -195 -19 -36 -44 -80 -54 -97 -10 -18 -26 -48 -36 -65 -10 -18 -35 -62 -54 -98 -96 -174 -138 -250 -158 -285 -10 -16 -32 -57 -50 -90 -18 -33 -43 -79 -56 -102 -13 -24 -36 -64 -50 -90 -15 -27 -34 -61 -44 -78 -10 -16 -32 -57 -50 -90 -18 -33 -44 -80 -58 -105 -14 -25 -36 -65 -50 -90 -13 -25 -32 -58 -42 -75 -10 -16 -32 -57 -50 -90 -18 -33 -44 -80 -58 -105 -14 -25 -35 -63 -47 -85 -12 -22 -37 -67 -55 -100 -39 -72 -70 -128 -97 -175 -11 -19 -41 -76 -68 -125 -57 -108 -104 -194 -177 -325 -14 -25 -43 -76 -63 -115 -21 -38 -51 -94 -66 -123 -16 -28 -42 -76 -57 -105 -16 -28 -40 -72 -54 -97 -14 -25 -41 -74 -60 -110 -19 -36 -46 -85 -60 -110 -14 -25 -39 -70 -55 -100 -17 -30 -44 -80 -60 -110 -17 -30 -46 -84 -65 -120 -19 -36 -46 -85 -60 -110 -14 -25 -39 -71 -57 -102 -17 -32 -44 -82 -60 -110 -16 -29 -44 -82 -63 -118 -19 -36 -46 -85 -60 -110 -14 -25 -40 -72 -58 -105 -18 -33 -44 -80 -58 -105 -14 -25 -41 -74 -60 -110 -19 -36 -46 -85 -60 -110 -41 -73 -266 -521 -286 -570 -10 -25 -32 -74 -48 -110 -43 -95 -44 -97 -76 -195 -54 -167 -71 -230 -83 -307 -28 -181 29 -328 146 -378 22 -10 72 -23 110 -29 54 -9 1554 -11 6430 -9 l6360 3 0 525 0 525 -5585 6 c-3775 4 -5606 9 -5650 16 -341 55 -352 216 -48 670 48 73 88 135 88 138 0 2 48 78 106 167 250 382 414 637 414 644 0 2 27 45 60 94 33 49 60 92 60 95 0 3 27 46 60 96 33 50 60 92 60 95 0 4 28 48 177 276 34 54 63 100 63 103 0 4 18 32 40 64 21 32 52 80 68 107 16 27 61 100 101 162 39 62 71 115 71 118 0 3 13 24 29 47 16 23 38 58 49 77 11 19 38 66 62 104 23 38 50 83 60 100 10 17 55 92 100 166 45 74 91 151 102 170 11 19 24 40 28 45 4 6 17 26 28 45 10 19 43 73 72 120 29 47 60 99 70 115 10 17 40 67 69 113 28 46 51 86 51 88 0 3 18 32 40 64 22 32 40 61 40 64 0 3 27 48 60 101 33 53 60 98 60 101 0 3 13 24 29 47 16 23 38 58 49 77 11 19 38 66 62 104 23 38 50 84 61 102 10 19 28 50 39 69 11 19 29 50 39 69 11 18 38 64 60 101 23 37 41 68 41 70 0 2 18 33 41 70 22 37 49 83 60 101 69 122 92 162 138 236 22 37 41 70 41 74 0 3 8 18 19 32 10 15 28 44 40 65 31 54 52 92 110 190 28 48 74 126 102 175 50 84 67 114 108 185 40 70 96 165 139 236 24 41 53 89 63 107 10 19 28 49 38 68 11 18 38 64 60 101 23 37 41 68 41 70 0 2 28 50 61 107 58 97 71 119 118 202 11 18 38 64 60 101 23 37 41 68 41 70 0 2 18 33 41 70 22 37 49 83 60 101 10 19 28 50 39 69 68 119 62 108 148 265 38 69 59 108 93 168 12 20 32 56 45 80 13 23 36 63 51 90 14 26 38 70 53 97 15 28 37 68 50 90 12 22 33 59 46 83 13 23 36 63 51 90 14 26 38 70 53 97 15 28 37 68 50 90 12 22 33 59 46 83 13 23 36 63 51 90 14 26 38 70 53 97 15 28 37 68 50 90 12 22 33 59 46 82 13 24 36 64 51 91 14 26 38 70 53 97 15 28 37 68 50 90 51 88 122 219 177 323 25 48 62 119 83 157 20 39 61 115 90 170 29 55 67 127 85 160 18 33 54 101 80 150 45 85 79 149 165 310 21 39 62 117 92 175 79 151 148 280 267 503 42 78 117 221 216 412 34 66 88 170 120 230 31 61 91 175 132 255 42 80 107 206 146 280 38 74 103 200 145 280 41 80 99 192 130 250 30 58 85 164 122 235 37 72 98 189 135 260 37 72 96 184 130 250 228 442 289 557 452 855 80 145 98 180 131 240 19 36 47 89 63 118 16 28 43 77 59 107 67 122 94 172 115 210 12 22 43 81 70 130 26 50 59 110 73 135 14 25 38 69 53 98 16 28 43 78 60 110 18 31 47 86 67 122 32 60 44 83 99 180 11 19 35 64 53 100 19 36 42 77 52 92 17 25 18 128 18 2355 0 1280 4 2334 8 2341 7 10 257 12 1229 12 1008 0 1223 3 1232 14 8 9 10 187 9 622 l-3 609 -2391 3 -2391 2 -27 -40z" fill="#000000" id="000000-000019" mask="url(#mask-2)"/>
    <path stroke="none" d="M21766 23024 c-3 -8 -6 -623 -6 -1366 l0 -1351 29 -56 c15 -31 39 -74 51 -96 13 -22 36 -65 53 -95 16 -30 42 -77 57 -105 15 -27 38 -70 52 -95 14 -25 40 -72 58 -105 18 -33 43 -78 55 -100 12 -22 33 -60 47 -85 14 -25 40 -72 58 -105 18 -33 44 -80 58 -105 23 -42 40 -72 112 -205 15 -27 38 -70 52 -95 14 -25 40 -72 58 -105 18 -33 44 -80 58 -105 14 -25 41 -74 60 -110 19 -36 46 -85 60 -110 14 -25 37 -67 52 -95 15 -27 42 -77 60 -110 36 -65 74 -135 118 -217 16 -29 40 -73 54 -98 14 -25 41 -74 60 -110 19 -36 46 -85 60 -110 14 -25 39 -70 55 -100 17 -30 44 -80 60 -110 17 -30 44 -80 60 -110 17 -30 45 -82 63 -115 18 -33 46 -84 61 -112 16 -29 43 -79 60 -110 18 -32 44 -80 59 -108 15 -27 42 -77 60 -110 18 -33 46 -85 63 -115 16 -30 41 -75 55 -100 14 -25 38 -70 55 -100 16 -30 43 -79 58 -107 16 -29 42 -77 58 -105 15 -29 42 -79 60 -110 17 -32 45 -83 61 -113 17 -30 44 -81 61 -112 50 -91 84 -154 116 -213 17 -30 41 -75 55 -100 14 -25 41 -74 60 -110 19 -36 46 -85 60 -110 24 -42 48 -86 121 -220 16 -30 43 -80 60 -110 16 -30 43 -79 58 -107 70 -128 93 -171 117 -213 14 -25 41 -74 60 -110 19 -36 46 -85 60 -110 14 -25 38 -69 53 -97 16 -29 43 -79 60 -110 35 -63 73 -134 117 -215 16 -29 40 -73 54 -98 14 -25 56 -103 93 -175 75 -145 149 -287 250 -480 148 -282 228 -448 241 -499 6 -27 -12 -44 -29 -27 -6 6 -17 11 -24 11 -15 0 -66 24 -128 60 -22 13 -62 35 -90 50 -88 48 -114 63 -367 222 -46 28 -112 69 -148 91 -36 22 -91 57 -122 78 -31 22 -59 39 -63 39 -5 0 -40 22 -232 147 -46 29 -85 53 -88 53 -2 0 -91 57 -197 126 -231 152 -598 392 -760 498 -65 42 -169 110 -231 151 -63 41 -118 75 -124 75 -9 0 -296 -333 -423 -490 -24 -30 -47 -57 -50 -60 -3 -3 -30 -34 -60 -70 -30 -36 -57 -67 -60 -70 -3 -3 -25 -30 -50 -60 -25 -30 -47 -57 -50 -60 -4 -4 -39 -45 -136 -160 -22 -26 -218 -252 -265 -305 -79 -90 -157 -182 -182 -213 l-27 -36 2 -6540 3 -6541 5935 -2 5935 -3 11 23 c6 12 36 65 66 117 89 154 109 189 168 305 90 176 108 255 91 386 -7 52 -16 99 -20 104 -4 6 -14 30 -21 55 -12 41 -89 196 -175 355 -31 58 -77 144 -155 290 -20 39 -56 106 -80 150 -47 88 -102 191 -161 303 -22 39 -57 105 -78 145 -21 39 -61 115 -89 167 -56 106 -108 205 -157 295 -66 123 -114 213 -163 305 -27 52 -66 127 -87 165 -21 39 -57 106 -80 150 -23 44 -56 106 -74 137 -17 32 -44 83 -61 113 -16 30 -43 80 -60 110 -16 30 -43 80 -60 110 -16 30 -43 80 -60 110 -16 30 -43 79 -59 107 -15 29 -39 73 -53 98 -14 25 -41 74 -60 110 -19 36 -46 85 -60 110 -14 25 -41 74 -60 110 -19 36 -46 85 -60 110 -14 25 -41 74 -60 110 -19 36 -46 85 -60 110 -14 25 -41 74 -60 110 -19 36 -46 85 -60 110 -14 25 -40 72 -58 105 -18 33 -44 80 -58 105 -14 25 -41 74 -60 110 -19 36 -48 90 -65 120 -16 30 -43 80 -60 110 -16 30 -41 75 -55 100 -14 25 -41 74 -60 110 -19 36 -46 85 -60 110 -14 25 -38 69 -53 98 -28 50 -50 90 -116 212 -17 30 -44 80 -60 110 -17 30 -41 75 -55 100 -14 25 -41 74 -60 110 -19 36 -46 85 -60 110 -14 25 -41 74 -60 110 -19 36 -46 85 -60 110 -14 25 -41 74 -60 110 -19 36 -46 85 -60 110 -14 25 -41 74 -60 110 -19 36 -46 85 -60 110 -14 25 -40 72 -58 105 -18 33 -44 80 -58 105 -14 25 -41 74 -60 110 -19 36 -47 88 -62 115 -15 28 -42 77 -60 110 -18 33 -44 80 -58 105 -14 25 -41 74 -60 110 -37 69 -81 150 -117 215 -28 49 -76 138 -123 225 -37 71 -82 152 -117 215 -28 49 -76 139 -123 225 -19 36 -46 85 -60 110 -14 25 -38 69 -53 98 -29 52 -58 105 -118 215 -17 31 -44 82 -61 112 -16 30 -43 80 -60 110 -16 30 -43 80 -60 110 -16 30 -43 80 -60 110 -16 30 -43 80 -60 110 -16 30 -43 80 -60 110 -16 30 -43 79 -59 108 -15 28 -39 72 -53 97 -14 25 -41 74 -60 110 -19 36 -46 85 -60 110 -14 25 -41 74 -60 110 -19 36 -46 85 -60 110 -14 25 -40 72 -58 105 -18 33 -44 80 -58 105 -14 25 -41 74 -60 110 -37 69 -81 150 -117 215 -12 22 -37 66 -54 98 -17 31 -44 82 -61 112 -16 30 -43 79 -59 108 -15 28 -39 72 -53 97 -14 25 -41 74 -60 110 -19 36 -46 85 -60 110 -14 25 -41 74 -60 110 -19 36 -46 85 -60 110 -14 25 -41 74 -60 110 -19 36 -46 85 -60 110 -27 49 -47 85 -181 330 -16 30 -41 75 -55 100 -14 25 -41 74 -60 110 -37 69 -81 150 -117 215 -28 49 -76 139 -123 225 -19 36 -46 85 -60 110 -14 25 -38 69 -53 98 -16 28 -42 77 -59 107 -16 30 -43 80 -60 110 -16 30 -43 80 -60 110 -16 30 -43 80 -60 110 -16 30 -43 80 -60 110 -16 30 -43 80 -60 110 -16 30 -43 80 -60 110 -16 30 -43 80 -60 110 -16 30 -43 79 -59 108 -15 28 -39 72 -53 97 -14 25 -41 74 -60 110 -19 36 -46 85 -60 110 -24 43 -60 108 -118 215 -58 107 -94 172 -118 215 -14 25 -41 74 -60 110 -19 36 -46 85 -60 110 -14 25 -38 69 -53 98 -16 28 -43 78 -60 110 -72 132 -93 170 -119 217 -15 28 -38 70 -52 95 -14 25 -41 74 -60 110 -19 36 -46 85 -60 110 -14 25 -41 74 -60 110 -19 36 -46 85 -60 110 -14 25 -39 70 -55 100 -167 305 -183 335 -222 403 -11 20 -31 54 -42 75 -12 20 -33 57 -47 82 -13 25 -32 59 -42 75 -10 17 -32 57 -50 90 -18 33 -43 78 -55 100 -21 37 -30 54 -85 150 -11 19 -30 52 -41 73 -12 20 -32 56 -45 80 -13 23 -35 62 -49 87 -14 25 -37 66 -51 93 -15 26 -34 61 -44 77 -10 17 -29 50 -42 75 -14 25 -35 63 -48 85 -13 22 -34 60 -48 85 -13 25 -32 59 -42 75 -10 17 -29 51 -44 78 -14 26 -37 67 -51 92 -14 25 -36 64 -49 88 -13 23 -33 59 -45 80 -11 20 -31 54 -42 75 -12 20 -33 57 -47 82 -13 25 -32 59 -42 75 -10 17 -32 57 -50 90 -18 33 -43 78 -55 100 -21 37 -30 54 -85 150 -55 96 -64 113 -85 150 -12 22 -37 67 -55 100 -18 33 -49 89 -70 125 -20 36 -48 85 -62 110 -14 25 -35 63 -48 85 -13 22 -34 60 -48 85 -13 25 -32 59 -42 75 -10 17 -29 50 -42 75 -14 25 -49 86 -78 135 -53 91 -74 127 -110 190 -36 62 -57 98 -110 190 -29 50 -60 104 -70 120 -9 17 -32 55 -50 85 -31 52 -40 67 -90 155 -11 19 -29 51 -40 70 -45 78 -168 291 -250 430 -63 107 -93 160 -148 258 -11 17 -51 85 -90 151 -40 65 -72 121 -72 123 0 2 -13 24 -30 48 -16 24 -30 47 -30 50 0 4 -8 19 -19 33 -10 15 -28 44 -40 65 -39 68 -58 102 -101 171 -23 38 -50 83 -60 100 -9 17 -40 68 -69 114 -28 46 -51 85 -51 87 0 2 -23 41 -51 87 -29 46 -59 97 -69 113 -9 17 -58 99 -109 183 -50 84 -91 156 -91 161 0 5 -6 14 -14 20 -11 9 -15 8 -20 -5z" fill="#000000" id="000000-000020" mask="url(#mask-2)"/>
    <path stroke="none" d="M33067 18056 c-55 -26 -190 -154 -248 -236 -21 -30 -57 -80 -79 -110 -67 -92 -140 -199 -140 -205 0 -4 -13 -25 -29 -48 -16 -23 -38 -58 -49 -77 -11 -19 -48 -80 -82 -134 -65 -103 -141 -231 -193 -326 -16 -30 -33 -59 -38 -65 -6 -8 -42 -71 -172 -295 -24 -41 -52 -93 -97 -175 -18 -33 -43 -79 -56 -102 -13 -24 -36 -64 -50 -90 -15 -27 -34 -61 -44 -78 -10 -16 -34 -59 -52 -95 -19 -36 -45 -83 -58 -105 -13 -22 -39 -69 -58 -105 -19 -36 -45 -84 -58 -107 -39 -70 -69 -124 -104 -188 -18 -33 -43 -79 -56 -102 -13 -24 -35 -62 -48 -85 -13 -24 -38 -70 -56 -103 -18 -33 -44 -80 -58 -105 -14 -25 -35 -64 -48 -87 -13 -24 -36 -64 -51 -90 -14 -27 -38 -70 -53 -98 -15 -27 -38 -70 -52 -95 -14 -25 -40 -72 -58 -105 -18 -33 -44 -80 -58 -105 -14 -25 -38 -69 -53 -97 -16 -29 -42 -77 -58 -105 -15 -29 -39 -73 -53 -98 -14 -25 -41 -74 -60 -110 -47 -86 -95 -176 -123 -225 -12 -22 -36 -65 -52 -95 -17 -30 -45 -82 -63 -115 -18 -33 -46 -84 -61 -112 -16 -29 -42 -77 -58 -105 -15 -29 -45 -84 -66 -123 -21 -38 -41 -74 -45 -80 -4 -5 -29 -50 -55 -100 -55 -105 -102 -190 -179 -327 -13 -24 -39 -72 -58 -108 -19 -36 -46 -85 -60 -110 -14 -25 -39 -71 -57 -102 -17 -32 -44 -82 -60 -110 -16 -29 -44 -82 -63 -118 -19 -36 -46 -85 -60 -110 -14 -25 -39 -70 -55 -100 -17 -30 -45 -82 -63 -115 -18 -33 -46 -85 -63 -115 -16 -30 -41 -75 -55 -100 -14 -25 -41 -74 -60 -110 -19 -36 -46 -85 -60 -110 -52 -92 -102 -193 -102 -206 0 -7 10 -30 21 -51 47 -82 68 -121 101 -183 19 -36 46 -85 60 -110 14 -25 42 -75 62 -112 20 -38 52 -98 72 -135 20 -38 49 -92 65 -120 16 -29 43 -79 60 -110 18 -32 43 -78 57 -103 14 -25 41 -74 60 -110 19 -36 47 -89 63 -117 16 -29 43 -79 60 -110 18 -32 44 -80 59 -108 15 -27 43 -79 62 -115 19 -36 46 -85 60 -110 14 -25 41 -74 60 -110 19 -36 46 -85 60 -110 14 -25 41 -74 60 -110 20 -36 49 -91 67 -122 17 -32 44 -82 60 -110 44 -81 88 -162 122 -225 18 -32 47 -87 67 -123 19 -36 45 -84 58 -107 43 -77 70 -127 119 -218 27 -49 58 -108 70 -130 12 -22 36 -65 52 -95 17 -30 45 -82 63 -115 18 -33 46 -85 63 -115 16 -30 43 -80 60 -110 16 -30 42 -77 57 -105 15 -27 44 -80 64 -118 20 -37 52 -97 72 -135 20 -37 50 -92 67 -122 16 -30 40 -73 52 -95 12 -22 43 -80 70 -130 26 -49 59 -110 73 -135 14 -25 41 -74 60 -110 19 -36 47 -87 62 -115 15 -27 44 -80 64 -118 20 -37 52 -97 72 -135 20 -37 50 -92 67 -122 16 -30 43 -79 58 -107 16 -29 42 -77 58 -105 16 -29 45 -83 65 -120 20 -38 52 -98 72 -135 20 -38 49 -92 65 -120 16 -29 43 -78 59 -108 17 -30 43 -79 59 -107 16 -29 48 -89 71 -133 23 -44 55 -104 71 -132 16 -29 42 -77 58 -105 16 -29 44 -82 63 -118 20 -36 49 -91 67 -122 17 -32 45 -84 62 -115 18 -32 47 -87 67 -123 19 -36 47 -87 62 -115 15 -27 44 -80 64 -117 20 -38 52 -98 72 -135 20 -38 49 -90 64 -118 46 -83 132 -243 315 -590 23 -44 63 -118 87 -165 25 -47 65 -121 88 -165 145 -270 216 -409 435 -845 101 -201 193 -386 204 -412 12 -27 31 -69 42 -95 33 -74 60 -134 79 -178 10 -22 28 -62 40 -90 52 -117 62 -143 79 -200 7 -22 16 -49 20 -60 5 -11 14 -38 20 -60 7 -22 16 -49 21 -60 18 -44 42 -139 51 -198 4 -34 15 -107 23 -162 9 -55 16 -148 16 -206 0 -98 -3 -115 -36 -205 -20 -55 -39 -110 -44 -124 -4 -14 -22 -63 -40 -110 -17 -47 -38 -105 -46 -130 -8 -25 -19 -54 -23 -65 -5 -11 -14 -36 -21 -55 -13 -37 -20 -57 -39 -104 -7 -17 -8 -33 -3 -38 10 -10 6748 -5 6832 5 105 13 387 27 542 27 86 0 190 4 230 9 40 6 134 15 208 21 132 10 229 24 300 40 19 5 62 14 95 21 85 17 143 34 198 59 56 25 167 129 167 157 0 10 4 23 10 29 5 5 15 56 21 112 11 99 11 105 -11 155 -52 117 -60 137 -60 145 0 14 -292 603 -420 847 -138 263 -162 310 -232 445 -39 74 -87 167 -108 205 -21 39 -66 124 -100 190 -59 114 -96 184 -237 455 -191 365 -276 527 -378 715 -18 33 -48 89 -67 125 -19 36 -44 81 -55 100 -11 19 -35 64 -53 100 -19 36 -42 77 -52 92 -10 14 -18 31 -18 38 0 7 -8 24 -19 38 -10 15 -41 70 -68 122 -47 89 -64 121 -145 268 -17 31 -48 89 -68 127 -21 39 -51 95 -67 125 -16 30 -51 96 -78 145 -26 50 -59 110 -73 135 -14 25 -42 77 -62 115 -21 39 -51 95 -67 125 -16 30 -51 96 -78 145 -26 50 -59 110 -73 135 -14 25 -41 74 -60 110 -19 36 -50 93 -68 127 -19 35 -49 91 -68 125 -34 63 -75 141 -142 266 -20 37 -47 86 -60 109 -39 70 -69 124 -104 188 -18 33 -43 79 -56 103 -13 23 -35 61 -48 85 -13 23 -38 69 -56 102 -35 64 -65 118 -104 187 -13 24 -39 72 -58 108 -19 36 -45 83 -58 105 -40 70 -67 118 -102 185 -19 36 -44 81 -55 100 -11 19 -36 64 -55 100 -55 100 -83 151 -110 200 -14 25 -40 72 -58 105 -18 33 -44 80 -58 105 -14 25 -35 63 -47 85 -12 22 -37 67 -55 100 -18 33 -44 80 -58 105 -23 42 -36 66 -111 203 -15 28 -37 68 -48 87 -11 19 -36 64 -55 100 -72 130 -86 156 -108 195 -13 22 -39 69 -58 105 -19 36 -45 84 -58 108 -13 23 -35 61 -48 85 -13 23 -39 71 -58 107 -19 36 -44 81 -55 100 -11 19 -36 64 -55 100 -51 92 -84 154 -112 203 -22 39 -35 64 -117 215 -18 31 -42 75 -54 97 -12 22 -37 66 -54 98 -17 31 -45 83 -62 115 -18 31 -44 80 -59 107 -15 28 -38 70 -52 95 -14 25 -41 74 -60 110 -19 36 -46 85 -60 110 -14 25 -40 72 -58 105 -35 64 -65 118 -104 188 -13 23 -39 71 -58 107 -19 36 -46 85 -60 110 -14 25 -40 72 -58 105 -18 33 -44 80 -58 105 -14 25 -38 69 -53 98 -30 54 -63 114 -119 217 -18 33 -45 83 -60 110 -15 28 -38 70 -52 95 -14 25 -40 72 -58 105 -35 64 -65 118 -104 188 -13 23 -39 71 -58 107 -19 36 -46 85 -60 110 -14 25 -40 72 -58 105 -18 33 -44 80 -58 105 -14 25 -41 74 -60 110 -19 36 -46 85 -60 110 -14 25 -38 69 -53 98 -16 28 -42 76 -58 105 -15 28 -39 72 -53 97 -14 25 -40 72 -58 105 -18 33 -44 80 -58 105 -14 25 -38 69 -53 98 -16 28 -42 76 -58 105 -15 28 -39 72 -53 97 -14 25 -40 72 -58 105 -18 33 -44 80 -58 105 -14 25 -41 74 -60 110 -19 36 -45 84 -58 108 -39 69 -69 123 -104 187 -36 66 -66 121 -97 175 -11 19 -36 64 -55 100 -70 128 -85 156 -107 193 -34 59 -55 98 -93 167 -96 174 -138 250 -158 285 -10 17 -32 57 -50 90 -18 33 -43 79 -56 103 -13 23 -35 62 -49 87 -14 25 -36 65 -50 90 -63 114 -84 150 -173 305 -52 91 -108 190 -125 220 -16 30 -33 60 -37 65 -4 6 -17 27 -29 48 -12 20 -30 53 -41 72 -11 19 -29 51 -40 70 -11 19 -28 50 -39 68 -19 33 -270 469 -301 523 -10 17 -37 62 -60 100 -24 38 -51 85 -62 104 -11 19 -28 46 -38 60 -10 14 -27 41 -38 60 -11 19 -38 66 -62 104 -23 38 -50 83 -60 100 -105 184 -294 475 -358 554 -20 24 -48 50 -63 58 -43 22 -135 17 -192 -10z" fill="#000000" id="000000-000021" mask="url(#mask-2)"/>
    <path stroke="none" d="M10100 16254 c-19 -2 -154 -9 -300 -14 -146 -6 -299 -15 -340 -20 -41 -5 -131 -14 -200 -20 -69 -6 -145 -15 -170 -19 -101 -20 -157 -31 -200 -41 -25 -6 -67 -15 -95 -20 -105 -21 -132 -28 -190 -49 -33 -13 -69 -25 -80 -28 -30 -9 -129 -78 -164 -115 -85 -91 -163 -217 -190 -308 -7 -25 -17 -58 -22 -74 -22 -72 -3 -254 36 -342 35 -79 120 -223 144 -244 4 -3 31 -34 61 -70 30 -35 132 -141 225 -235 l170 -170 7 -4661 c4 -3045 10 -4751 17 -4919 6 -142 11 -324 11 -403 0 -265 53 -1062 71 -1062 5 0 17 17 27 38 10 20 31 58 45 84 42 75 70 126 122 223 26 50 56 104 65 120 10 17 32 57 50 89 l32 59 5 1491 c2 820 7 3183 11 5251 l7 3760 45 7 c25 3 110 11 190 17 273 21 375 31 425 41 28 5 78 14 112 20 34 5 81 16 105 23 24 8 75 24 115 37 86 28 167 85 171 121 2 20 -6 33 -40 60 -64 51 -117 72 -278 108 -44 10 -57 12 -170 32 -30 5 -120 14 -200 20 -80 5 -199 14 -265 19 -66 5 -174 12 -240 16 -66 3 -154 13 -195 21 -41 9 -97 19 -124 24 -58 10 -120 48 -145 90 -28 45 -43 198 -39 384 l3 160 1215 3 c805 2 1261 0 1350 -7 74 -6 198 -16 275 -22 142 -10 191 -19 256 -46 97 -40 139 -133 139 -304 0 -187 -50 -248 -260 -319 -122 -42 -159 -86 -201 -240 -9 -33 -14 -82 -39 -430 -10 -126 -22 -1828 -35 -4835 -3 -704 -7 -1324 -9 -1377 -2 -54 0 -98 4 -98 5 0 15 12 23 28 7 15 23 44 35 64 53 92 67 117 100 178 19 36 47 89 63 118 16 28 43 78 60 110 33 60 61 110 113 202 l31 55 3 2847 2 2846 53 50 c28 27 92 87 142 133 122 115 145 140 151 169 7 28 42 144 54 175 4 11 18 54 31 95 12 41 26 80 29 85 4 6 13 30 20 55 7 25 16 50 20 55 10 15 47 144 59 201 13 64 -2 166 -33 233 -30 65 -111 166 -166 206 -69 51 -194 100 -315 125 -33 6 -78 16 -100 20 -219 48 -291 60 -414 70 -64 5 -156 14 -206 20 -166 19 -981 45 -1075 34z" fill="#000000" id="000000-000022" mask="url(#mask-3)"/>
    <path stroke="none" d="M4130 16210 c-30 -5 -94 -8 -142 -9 -102 -1 -270 -17 -348 -32 -175 -35 -273 -102 -380 -259 -92 -135 -143 -246 -170 -370 -13 -58 -9 -193 7 -265 13 -56 85 -204 117 -240 14 -16 26 -34 26 -38 0 -13 62 -80 280 -300 l205 -208 7 -4642 c4 -3082 10 -4723 17 -4882 6 -132 11 -338 11 -457 0 -205 7 -364 30 -648 5 -69 14 -197 20 -285 29 -439 90 -726 198 -945 40 -80 62 -110 142 -190 52 -53 113 -105 135 -116 22 -12 76 -43 120 -70 77 -47 118 -69 223 -115 66 -30 81 -36 127 -50 22 -6 49 -15 60 -19 21 -8 87 -25 140 -35 17 -3 89 -11 160 -18 134 -14 282 -6 443 22 69 13 253 71 317 100 83 39 151 72 180 89 17 10 66 39 110 64 162 95 258 195 338 353 38 75 87 216 106 305 6 30 16 71 21 90 5 19 14 69 20 110 6 41 15 100 20 130 10 59 23 191 39 415 6 77 15 203 21 280 18 234 30 530 30 730 0 105 5 298 11 430 7 158 13 1805 17 4796 l7 4557 235 238 c129 132 251 264 271 294 50 75 99 173 99 198 0 11 5 43 12 71 11 50 1 174 -21 256 -25 92 -35 125 -54 175 -11 30 -28 66 -37 80 -8 14 -22 39 -30 55 -19 38 -144 160 -184 179 -128 60 -186 84 -221 89 -22 4 -60 11 -85 17 -173 39 -262 47 -745 64 -433 16 -1803 20 -1905 6z" fill="#000000" id="000000-000023" mask="url(#mask-3)"/>
    <path stroke="none" d="M4400 9798 c0 -578 -11 -2200 -23 -3248 -21 -1956 -14 -2547 34 -3090 5 -63 14 -133 19 -155 4 -22 14 -67 20 -100 7 -33 17 -71 23 -85 16 -35 99 -160 106 -160 3 0 32 -20 64 -44 58 -44 81 -54 207 -94 152 -47 314 -67 535 -65 123 1 187 6 230 18 94 26 165 46 215 61 43 13 143 76 191 121 25 23 58 68 74 100 l29 58 -2 1500 c-2 825 -8 1671 -13 1880 -6 209 -14 1091 -18 1960 l-6 1580 -842 3 -843 2 0 -242z" fill="#000000" id="000000-000029" mask="url(#mask-4)"/>
    <path stroke="none" d="M18590 13424 c-14 -2 -59 -9 -100 -15 -82 -12 -104 -19 -198 -61 -34 -15 -65 -28 -69 -28 -5 0 -75 -51 -143 -105 -72 -57 -177 -187 -259 -318 -52 -84 -146 -268 -251 -492 -69 -146 -142 -294 -166 -335 -15 -25 -35 -60 -45 -77 -24 -42 -53 -93 -80 -140 -12 -21 -33 -58 -47 -83 -14 -25 -51 -90 -82 -145 -31 -55 -72 -127 -90 -160 -18 -33 -49 -89 -70 -125 -20 -36 -48 -85 -62 -110 -14 -25 -35 -62 -47 -82 -11 -21 -30 -54 -41 -73 -11 -19 -29 -51 -40 -70 -11 -19 -30 -52 -41 -72 -12 -21 -33 -58 -47 -83 -14 -25 -50 -88 -80 -140 -70 -121 -87 -152 -112 -195 -11 -19 -29 -51 -40 -70 -50 -88 -59 -103 -90 -155 -18 -30 -41 -68 -50 -85 -10 -16 -41 -70 -70 -120 -53 -92 -74 -128 -110 -190 -11 -19 -29 -51 -40 -70 -50 -88 -59 -103 -90 -155 -18 -30 -41 -70 -51 -87 -11 -18 -27 -48 -38 -65 -10 -18 -33 -58 -51 -88 -31 -52 -40 -67 -90 -155 -11 -19 -29 -51 -40 -70 -50 -88 -59 -103 -90 -155 -18 -30 -41 -68 -50 -85 -10 -16 -41 -70 -70 -120 -53 -92 -74 -128 -110 -190 -11 -19 -29 -51 -40 -70 -11 -19 -29 -50 -39 -69 -11 -18 -38 -64 -60 -101 -23 -37 -41 -69 -41 -71 0 -2 -20 -37 -43 -77 -64 -105 -133 -225 -216 -371 -10 -18 -39 -66 -63 -107 -43 -71 -99 -166 -139 -236 -11 -18 -27 -48 -38 -65 -40 -71 -96 -166 -139 -237 -24 -41 -53 -89 -63 -107 -39 -69 -57 -100 -89 -154 -18 -30 -41 -68 -50 -85 -10 -16 -41 -70 -70 -120 -29 -49 -60 -103 -70 -120 -51 -89 -98 -168 -138 -234 -24 -41 -53 -89 -63 -107 -10 -19 -28 -50 -39 -69 -11 -19 -29 -50 -39 -69 -10 -18 -39 -66 -63 -107 -56 -92 -106 -178 -177 -301 -40 -72 -155 -265 -177 -300 -13 -21 -24 -40 -24 -42 0 -3 -22 -41 -50 -86 -27 -45 -50 -83 -50 -85 0 -3 -28 -51 -61 -107 -59 -97 -72 -121 -118 -202 -11 -18 -38 -64 -60 -101 -23 -37 -41 -69 -41 -72 0 -3 -8 -17 -19 -31 -10 -15 -28 -44 -40 -64 -11 -21 -30 -54 -41 -73 -11 -19 -29 -50 -39 -69 -11 -18 -38 -64 -60 -101 -23 -37 -41 -68 -41 -70 0 -2 -18 -33 -41 -70 -22 -37 -49 -83 -60 -101 -10 -19 -28 -50 -39 -69 -11 -19 -29 -52 -41 -72 -12 -21 -25 -42 -29 -48 -4 -5 -17 -26 -28 -45 -11 -19 -43 -75 -72 -125 -57 -97 -80 -137 -108 -187 -11 -18 -50 -85 -89 -149 -38 -64 -84 -154 -102 -200 -18 -46 -37 -93 -42 -104 -4 -11 -17 -49 -27 -85 -18 -61 -27 -97 -53 -222 -6 -29 -15 -69 -19 -88 -11 -45 -26 -132 -40 -240 -6 -47 -15 -105 -20 -130 -5 -25 -11 -74 -12 -110 l-3 -65 70 -9 c117 -14 3029 -18 4805 -7 921 6 2222 12 2890 12 812 1 1219 4 1228 11 9 8 12 349 12 1644 0 898 -4 1635 -8 1638 -5 3 -35 -8 -66 -24 -134 -70 -287 -97 -416 -75 -87 15 -128 28 -245 75 -11 4 -36 13 -55 20 -78 27 -276 143 -315 184 -75 80 -150 177 -169 219 -13 29 -33 72 -44 97 -36 79 -47 148 -45 292 1 111 5 147 22 196 40 111 66 169 91 202 98 128 124 155 217 224 57 42 105 76 108 76 5 0 89 36 115 50 9 4 43 13 75 20 33 6 78 16 100 22 21 5 114 10 205 10 155 0 240 -9 372 -41 27 -6 40 -5 48 4 7 8 9 846 8 2641 l-3 2629 -69 0 c-62 0 -70 2 -85 25 -18 27 -55 78 -204 280 -147 197 -188 254 -227 307 -19 26 -41 54 -48 61 -6 8 -16 22 -22 32 -12 23 -151 90 -265 128 -106 35 -164 49 -330 82 -33 7 -71 16 -85 20 -14 5 -41 11 -60 14 -19 3 -55 10 -80 16 -25 5 -85 14 -135 20 -49 5 -121 14 -160 19 -222 30 -680 57 -755 45z" fill="#000000" id="000000-000024" mask="url(#mask-4)"/>
    <path stroke="none" d="M1406 11668 c-7 -21 -31 -2996 -46 -5623 -15 -2675 -30 -4659 -35 -4673 -3 -9 -136 -12 -619 -12 -372 0 -625 -4 -640 -10 l-26 -9 3 -648 2 -648 3497 -3 3496 -2 25 42 c30 52 73 131 119 218 19 36 45 83 58 105 13 22 39 69 58 105 19 36 47 88 62 115 15 28 43 79 62 115 19 36 45 83 58 105 39 68 81 145 190 350 15 28 39 71 53 96 22 38 24 49 13 58 -9 8 -758 11 -2662 11 -1457 0 -2655 0 -2662 0 -10 0 -12 944 -10 4703 l3 4702 368 5 369 5 29 33 29 33 -2 417 -3 417 -893 3 c-709 2 -893 0 -896 -10z" fill="#000000" id="000000-000025"/>
    <path stroke="none" d="M7125 11668 c-3 -7 -4 -211 -3 -453 l3 -440 605 0 605 0 0 450 0 450 -603 3 c-477 2 -604 0 -607 -10z" fill="#000000" id="000000-000026"/>
    <path stroke="none" d="M12254 11666 c-3 -7 -4 -204 -2 -436 l3 -422 29 -25 29 -25 281 7 c182 5 287 11 299 19 17 10 31 32 117 191 18 33 43 78 55 100 12 22 38 69 57 105 50 91 91 168 120 220 14 25 40 72 58 105 18 33 44 80 57 104 13 24 22 50 19 57 -8 21 -1114 21 -1122 0z" fill="#000000" id="000000-000027"/>
    <path stroke="none" d="M9492 11627 c-8 -9 -13 -705 -16 -2403 -2 -1402 -9 -2484 -15 -2619 -12 -271 -28 -1013 -36 -1700 -7 -554 -13 -522 71 -366 22 42 52 96 66 121 14 25 39 70 55 100 17 30 44 81 62 113 17 31 45 82 61 112 17 30 44 80 60 110 80 146 95 173 118 215 28 51 62 113 117 215 20 39 47 88 60 110 21 37 36 65 116 213 16 28 42 76 58 105 15 28 43 79 61 112 76 140 94 173 121 223 16 28 42 76 58 105 15 28 43 79 61 112 97 178 118 216 178 328 16 28 40 72 54 97 14 25 43 77 63 115 21 39 51 94 66 123 16 28 42 76 57 105 16 28 42 75 57 102 16 28 46 84 67 125 l39 75 -7 2020 c-4 1304 -10 2024 -17 2033 -14 18 -1620 18 -1635 -1z" fill="#000000" id="000000-000028"/>
  </g>
</svg>
