<?xml version="1.0" standalone="no"?>
<!DOCTYPE svg PUBLIC "-//W3C//DTD SVG 1.1//EN"
 "http://www.w3.org/Graphics/SVG/1.1/DTD/svg11.dtd">
<!-- Created with svg_stack (http://github.com/astraw/svg_stack) -->
<svg xmlns:sodipodi="http://sodipodi.sourceforge.net/DTD/sodipodi-0.dtd" xmlns="http://www.w3.org/2000/svg" version="1.1" width="483.0" height="170.0">
  <defs/>
  <g id="id0:id0" transform="matrix(1.25,0,0,1.25,0.0,0.0)"><g transform="translate(0.000000,136.000000) scale(0.040000,-0.040000)" fill="#000000" stroke="none">
<path d="M3405 2903 c-100 -4 -251 -23 -315 -39 -144 -36 -304 -146 -512 -351 -132 -129 -151 -185 -152 -438 -1 -234 35 -371 130 -498 30 -40 54 -76 54 -81 0 -6 -11 -21 -24 -35 -20 -22 -25 -40 -31 -111 l-7 -85 32 -43 c41 -57 90 -78 143 -62 31 9 54 9 104 -1 46 -9 69 -10 81 -2 25 15 20 36 -12 52 l-29 14 19 14 c10 9 46 28 79 44 64 31 144 39 163 17 5 -7 8 -51 7 -98 -2 -60 3 -101 15 -140 25 -78 29 -106 45 -372 15 -259 24 -297 75 -318 37 -16 62 -7 84 30 19 33 36 31 36 -4 0 -67 83 -101 117 -49 16 24 19 61 23 303 7 370 23 367 30 -5 4 -202 9 -286 18 -303 15 -27 53 -29 74 -4 16 17 35 75 40 120 5 44 23 22 28 -35 3 -32 11 -69 19 -81 11 -21 18 -23 49 -17 58 11 85 28 94 60 9 34 23 198 38 439 8 133 15 179 31 215 33 73 49 132 49 182 0 68 17 79 122 79 104 0 121 -12 122 -92 1 -47 3 -52 29 -61 56 -18 182 54 227 129 22 39 23 62 5 179 -4 26 -1 63 10 100 9 33 20 76 25 95 4 19 19 76 33 125 75 274 71 389 -20 563 -99 191 -262 341 -495 455 -152 75 -230 96 -391 107 -78 5 -153 9 -167 8 -14 -1 -56 -3 -95 -5z m-683 -924 c59 -23 255 -120 351 -173 34 -19 98 -49 142 -66 115 -46 182 -77 189 -89 9 -14 -6 -21 -77 -38 -175 -42 -530 4 -622 80 -46 37 -82 116 -94 200 -15 109 8 127 111 86z m1722 -74 c-1 -134 -50 -224 -145 -265 -59 -25 -259 -50 -404 -50 -128 0 -257 33 -239 61 6 11 83 49 99 49 6 0 109 50 230 111 232 117 368 171 425 167 l35 -3 -1 -70z m-944 -428 c0 -55 -5 -70 -36 -121 -31 -49 -39 -56 -51 -44 -7 8 -16 31 -20 51 -4 29 1 47 27 94 62 111 80 115 80 20z m130 -12 c27 -41 50 -82 50 -92 0 -45 -59 -104 -60 -60 0 7 -14 39 -30 72 -34 68 -41 155 -14 155 2 0 26 -34 54 -75z m128 -367 c9 -9 9 -15 -2 -27 -8 -9 -16 -27 -18 -41 -5 -38 -23 -30 -26 13 -4 53 20 81 46 55z"/>
<path d="M5675 2875 c-258 -37 -361 -84 -585 -270 -129 -107 -195 -170 -221 -212 -11 -17 -32 -71 -47 -120 -47 -154 -34 -413 29 -588 19 -52 52 -119 70 -140 9 -11 24 -34 34 -52 l19 -32 -27 -27 c-23 -22 -27 -36 -29 -88 -4 -109 0 -137 25 -169 40 -53 68 -63 136 -49 46 10 66 9 102 -1 78 -24 133 17 77 56 l-23 16 25 21 c47 38 105 60 157 60 28 0 55 -5 60 -12 6 -7 13 -51 16 -98 4 -47 13 -116 21 -155 8 -38 19 -186 25 -328 12 -280 22 -330 68 -348 69 -26 76 -12 88 156 6 84 14 145 20 145 6 0 12 -61 15 -154 4 -134 8 -157 24 -175 15 -17 27 -20 50 -15 46 9 58 26 65 91 7 68 24 73 31 10 8 -61 33 -97 69 -97 39 0 53 20 60 85 3 31 11 55 16 55 6 -1 15 -31 22 -67 7 -37 18 -70 25 -75 21 -14 101 1 119 22 17 20 39 191 60 470 7 97 16 158 29 185 29 65 38 96 50 170 7 39 15 77 19 85 14 28 74 50 138 50 55 0 64 -3 82 -26 12 -15 21 -41 21 -61 0 -54 15 -73 58 -73 47 0 111 39 169 102 48 53 61 99 43 154 -17 49 -8 113 36 259 62 209 76 293 72 445 l-4 135 -36 70 c-132 256 -401 471 -688 552 -169 47 -409 63 -585 38z m-540 -943 c49 -20 130 -58 180 -84 115 -60 310 -157 399 -198 79 -36 78 -44 -10 -65 -113 -27 -237 -29 -372 -6 -247 43 -299 78 -338 224 -15 55 -19 159 -7 171 11 10 46 0 148 -42z m1680 4 c16 -11 17 -21 11 -72 -7 -59 -53 -173 -84 -207 -28 -31 -106 -65 -173 -77 -35 -6 -143 -13 -239 -16 -165 -5 -179 -4 -240 18 -36 13 -65 30 -65 37 0 8 18 19 40 26 45 13 242 108 385 185 129 69 239 108 336 119 5 0 18 -5 29 -13z m-957 -495 c-4 -58 -48 -149 -76 -159 -7 -2 -19 13 -28 35 l-16 38 21 41 c31 57 81 115 93 108 6 -4 8 -31 6 -63z m142 -10 c44 -74 48 -97 24 -142 -25 -50 -32 -41 -87 114 -16 47 -18 62 -8 83 6 14 15 22 21 19 5 -3 28 -36 50 -74z m125 -361 c3 -5 0 -20 -7 -32 -7 -13 -17 -59 -23 -103 -6 -46 -15 -78 -20 -75 -16 8 -12 184 4 203 15 19 37 22 46 7z m-407 -64 c-2 -15 -7 -28 -13 -29 -12 -2 -19 38 -10 60 9 25 27 1 23 -31z m356 -307 c-3 -5 -10 -7 -15 -3 -5 3 -7 10 -3 15 3 5 10 7 15 3 5 -3 7 -10 3 -15z m-9 -199 c-5 -8 -11 -8 -17 -2 -6 6 -7 16 -3 22 5 8 11 8 17 2 6 -6 7 -16 3 -22z"/>
<path d="M1582 2860 c-12 -5 -25 -16 -28 -24 -3 -8 -1 -205 5 -438 7 -233 14 -606 18 -829 l6 -407 -22 -43 c-30 -57 -56 -85 -111 -117 -42 -25 -53 -27 -165 -27 -110 0 -124 2 -171 27 -63 33 -129 116 -143 178 -5 25 -12 95 -16 155 -8 154 -14 183 -38 206 -20 18 -37 19 -291 19 -248 0 -274 -2 -302 -19 -29 -18 -31 -22 -27 -72 1 -30 7 -124 13 -209 10 -160 24 -232 64 -332 88 -216 266 -380 493 -452 151 -47 228 -58 399 -58 216 0 286 11 484 74 171 54 338 197 411 352 58 125 69 199 69 463 0 298 -19 1413 -26 1479 -4 43 -9 53 -32 64 -34 16 -555 25 -590 10z"/>
<path d="M8290 2821 c-132 -32 -221 -75 -334 -160 -37 -28 -71 -49 -75 -46 -5 2 -11 38 -13 79 -3 42 -10 81 -16 89 -9 11 -72 15 -287 21 -244 6 -280 5 -310 -10 -32 -15 -35 -20 -35 -58 0 -45 -13 -722 -31 -1654 l-12 -594 24 -24 24 -24 309 -1 309 -1 17 22 c15 20 18 66 24 369 4 190 11 350 16 355 4 4 39 -16 77 -45 77 -59 180 -109 268 -130 40 -9 122 -14 250 -14 l190 0 85 34 c47 19 105 45 130 59 146 81 305 252 366 392 29 69 32 75 42 105 48 144 66 377 42 535 -15 91 -56 215 -96 283 -19 32 -34 62 -34 67 0 4 -44 53 -97 107 -117 118 -232 187 -383 229 -128 35 -337 42 -450 15z m101 -452 c128 -28 215 -115 260 -260 22 -69 26 -267 9 -360 -13 -69 -58 -165 -99 -211 -97 -111 -309 -139 -481 -65 -43 19 -120 99 -148 154 -71 139 -67 405 9 560 30 63 100 135 149 156 82 34 211 45 301 26z"/>
</g>
</g>
  <g id="id1:id1" transform="matrix(1.25,0,0,1.25,0.0,0.0)"><g transform="translate(0.000000,136.000000) scale(0.040000,-0.040000)" fill="#ffffff" stroke="none">
<path d="M0 1700 l0 -1700 4830 0 4830 0 0 1700 0 1700 -4830 0 -4830 0 0 -1700z m3672 1180 c167 -12 260 -39 408 -118 226 -120 374 -260 464 -441 85 -168 83 -287 -14 -636 -50 -182 -55 -212 -42 -262 22 -82 16 -119 -28 -166 -38 -43 -130 -97 -161 -97 -24 0 -42 26 -36 51 8 32 -11 73 -42 92 -36 21 -148 23 -196 3 -36 -15 -37 -18 -49 -129 -3 -26 -17 -72 -32 -103 -29 -61 -39 -128 -48 -309 -12 -230 -28 -376 -45 -395 -9 -10 -33 -20 -54 -23 -34 -5 -39 -3 -47 19 -12 31 -12 444 -1 577 6 63 15 107 26 124 l18 27 -23 18 c-29 24 -46 23 -64 -4 -13 -18 -16 -55 -16 -198 0 -251 -16 -494 -36 -531 -18 -35 -40 -47 -57 -30 -9 9 -14 113 -18 362 -6 362 -10 393 -45 357 -14 -14 -17 -63 -23 -357 -5 -304 -8 -342 -23 -358 -14 -13 -23 -15 -45 -7 -37 12 -38 26 -52 364 -7 151 -13 298 -14 325 -2 46 -4 50 -27 50 l-25 0 1 -70 c0 -38 4 -192 9 -340 7 -244 6 -271 -8 -284 -10 -8 -27 -11 -42 -7 -49 12 -55 37 -70 292 -17 280 -21 311 -45 384 -15 42 -18 77 -16 148 3 85 1 94 -18 108 -44 30 -125 15 -228 -44 -61 -34 -71 -54 -37 -73 15 -8 18 -14 10 -22 -8 -8 -25 -7 -62 2 -41 11 -59 11 -89 1 -51 -17 -87 -6 -128 38 l-35 36 7 91 c6 77 11 94 32 116 13 14 24 29 24 35 0 5 -19 33 -41 63 -81 107 -109 175 -134 331 -27 172 -12 399 34 493 24 50 159 185 296 295 166 135 308 186 554 202 173 11 185 11 333 0z m2475 -36 c113 -23 228 -61 303 -100 66 -35 80 -43 136 -79 31 -20 123 -96 153 -126 90 -91 150 -176 199 -280 l32 -67 0 -133 c-1 -133 -14 -223 -55 -359 -62 -211 -79 -310 -55 -325 18 -11 11 -81 -13 -116 -30 -45 -114 -107 -154 -115 -51 -10 -63 0 -63 49 0 78 -64 117 -166 103 -54 -7 -99 -29 -109 -53 -4 -10 -16 -60 -26 -112 -10 -51 -27 -108 -38 -127 -23 -38 -36 -126 -51 -339 -6 -82 -17 -190 -23 -240 -11 -79 -15 -91 -37 -102 -14 -7 -38 -12 -55 -11 -27 3 -30 7 -37 48 -8 41 4 378 18 510 8 82 25 163 36 178 8 9 6 18 -7 32 -25 27 -51 25 -72 -6 -14 -23 -18 -64 -24 -258 -8 -238 -25 -450 -38 -476 -5 -8 -20 -16 -35 -18 -45 -6 -48 20 -45 387 3 260 1 335 -8 338 -24 9 -33 -49 -43 -300 -14 -362 -19 -405 -44 -422 -30 -22 -55 -18 -66 9 -5 13 -12 180 -16 370 -6 282 -10 348 -21 358 -11 8 -19 9 -31 1 -15 -9 -17 -37 -15 -269 2 -142 -1 -299 -5 -349 l-7 -90 -29 0 c-23 0 -33 7 -47 35 -15 29 -20 78 -29 290 -6 141 -18 288 -26 330 -8 41 -18 117 -21 168 -7 108 -18 122 -93 122 -57 -1 -103 -18 -163 -59 -47 -32 -60 -58 -32 -66 53 -17 52 -15 30 -31 -11 -8 -29 -12 -40 -9 -61 19 -88 21 -139 13 -49 -9 -59 -8 -90 11 -45 28 -57 67 -51 166 5 70 8 83 30 100 14 12 25 27 25 34 0 16 -34 74 -66 113 -33 40 -62 126 -91 263 -32 155 -29 314 10 443 37 122 62 153 257 314 219 180 307 222 550 259 138 22 375 18 497 -7z m-3974 -13 c14 -14 20 -239 32 -1171 7 -515 6 -583 -9 -655 -32 -154 -120 -296 -241 -385 -67 -50 -177 -104 -251 -125 -134 -38 -175 -45 -319 -55 -222 -15 -383 5 -570 73 -72 26 -216 120 -266 173 -83 89 -158 225 -193 351 -20 75 -48 473 -34 488 5 6 120 11 292 13 251 3 284 1 296 -13 9 -11 17 -61 21 -138 11 -173 18 -216 45 -267 32 -62 52 -82 120 -126 l59 -39 125 0 125 0 56 33 c39 22 69 49 95 88 l39 57 -1 361 c0 198 -6 579 -13 846 l-13 484 19 14 c24 19 566 13 586 -7z m6552 -40 c102 -28 184 -66 278 -129 73 -50 173 -151 199 -201 7 -14 25 -47 40 -74 36 -62 76 -182 88 -265 22 -156 5 -391 -39 -532 -85 -268 -322 -493 -596 -566 -71 -19 -334 -18 -433 1 -90 18 -196 68 -267 124 -90 72 -95 75 -108 62 -13 -13 -25 -258 -26 -557 -1 -142 -4 -174 -16 -184 -24 -20 -614 -15 -634 5 -12 11 -12 102 -2 602 6 323 16 836 21 1138 10 501 12 551 28 563 13 10 73 12 292 6 151 -3 280 -11 285 -16 6 -5 12 -46 15 -91 6 -104 16 -107 113 -34 184 138 309 178 542 173 105 -2 160 -9 220 -25z"/>
<path d="M2596 1989 c-16 -39 -12 -91 16 -177 15 -48 32 -76 72 -116 46 -47 59 -55 131 -73 44 -12 114 -27 155 -34 183 -30 460 3 460 55 0 20 -33 39 -166 95 -66 27 -199 91 -297 141 -197 102 -263 130 -320 137 -34 5 -38 3 -51 -28z"/>
<path d="M4335 1985 c-84 -23 -153 -53 -325 -142 -90 -48 -212 -105 -270 -129 -58 -23 -106 -48 -108 -56 -9 -44 123 -88 263 -88 143 1 343 25 400 50 104 44 161 134 172 273 9 104 -18 123 -132 92z"/>
<path d="M3458 1543 c-14 -16 -40 -55 -58 -88 -25 -48 -30 -67 -25 -95 9 -48 23 -70 43 -70 22 0 71 61 91 115 20 52 32 55 48 9 7 -19 19 -44 28 -56 8 -13 15 -29 15 -37 0 -22 30 -50 46 -44 17 6 54 74 54 98 0 18 -89 153 -115 175 -15 12 -19 11 -35 -10 l-19 -25 -7 20 c-7 19 -23 35 -35 35 -3 0 -17 -12 -31 -27z"/>
<path d="M4970 1986 c-9 -12 -11 -37 -7 -94 8 -98 20 -139 60 -199 49 -74 110 -100 317 -134 131 -22 248 -21 348 2 49 11 112 39 112 50 0 15 -44 42 -160 94 -69 32 -192 93 -275 136 -262 136 -369 175 -395 145z"/>
<path d="M6735 1960 c-85 -17 -177 -55 -350 -144 -168 -87 -273 -137 -353 -166 -52 -20 -40 -48 33 -79 l60 -26 180 0 c333 1 433 40 503 193 37 79 51 177 30 204 -17 22 -53 28 -103 18z"/>
<path d="M5835 1522 c-19 -13 -82 -96 -99 -130 -14 -27 -15 -40 -7 -65 13 -36 39 -67 57 -67 16 0 76 103 89 155 13 48 27 48 37 0 4 -19 17 -53 28 -75 11 -21 20 -48 20 -58 0 -11 7 -26 16 -33 14 -11 21 -8 50 24 22 23 34 47 34 64 0 25 -52 122 -89 166 -20 25 -46 21 -59 -9 -13 -27 -32 -24 -32 6 0 10 -7 21 -16 24 -19 7 -17 7 -29 -2z"/>
<path d="M8183 2390 c-131 -28 -246 -130 -284 -252 -71 -226 -42 -462 72 -601 60 -73 190 -127 304 -127 207 1 346 113 400 325 23 90 20 295 -5 374 -39 123 -112 210 -214 257 -46 21 -77 27 -145 30 -47 2 -105 -1 -128 -6z"/>
</g>
</g>
</svg>
