<svg xmlns="http://www.w3.org/2000/svg" version="1.0" width="1748.000000pt" height="726.000000pt" viewBox="0 0 1748.000000 726.000000" preserveAspectRatio="xMidYMid meet">
  <g transform="translate(0.000000,726.000000) scale(0.100000,-0.100000)" stroke="none">
    <path d="M 0 0 H 17480.0 V 7260.0 H 0 Z" fill="#ffffff" id="background"/>
    <path stroke="none" d="M11923 6860 c-54 -6 -87 -33 -77 -63 4 -12 24 -47 45 -77 21 -31 43 -77 49 -105 7 -33 10 -287 8 -762 -3 -705 -3 -713 -24 -733 -29 -30 -49 -17 -75 48 -13 31 -37 72 -54 90 -16 19 -43 57 -58 85 -16 29 -37 61 -47 72 -10 11 -32 49 -48 85 -16 36 -36 71 -45 78 -8 7 -40 16 -69 19 -47 5 -57 2 -83 -20 -17 -13 -64 -41 -106 -60 -41 -20 -83 -45 -93 -56 -9 -10 -32 -25 -49 -32 -79 -31 -114 -49 -132 -69 -19 -21 -74 -50 -125 -65 -14 -4 -32 -16 -41 -27 -9 -10 -50 -35 -90 -56 -106 -54 -104 -43 -90 -432 7 -173 16 -360 22 -415 5 -55 13 -163 18 -240 5 -77 13 -210 19 -295 6 -85 16 -279 22 -430 6 -151 15 -292 21 -313 7 -26 21 -44 47 -61 20 -13 50 -38 66 -55 17 -17 35 -31 41 -31 20 0 90 -43 131 -80 23 -21 52 -41 65 -45 13 -4 43 -24 65 -44 23 -20 54 -43 70 -51 16 -8 39 -23 51 -33 19 -17 27 -18 75 -8 81 17 204 65 237 94 17 14 60 35 96 47 36 12 79 33 96 48 23 19 35 23 47 16 22 -14 42 -89 42 -161 0 -51 4 -67 22 -85 21 -21 24 -21 281 -14 244 6 344 17 358 39 10 14 -1 84 -22 149 -17 50 -19 92 -20 325 -1 291 -15 831 -30 1148 -20 436 -28 604 -33 700 -3 55 -13 425 -22 821 -19 837 -18 855 47 940 21 28 39 56 39 63 0 30 -34 46 -104 48 -149 6 -503 8 -543 3z" fill="#000000" id="000000-000001"/>
    <path stroke="none" d="M11671 5139 c35 -39 69 -80 75 -92 6 -11 29 -32 50 -47 21 -14 44 -36 50 -49 7 -13 28 -39 47 -59 19 -21 40 -55 46 -77 7 -27 11 -283 11 -791 l0 -751 -22 -20 c-13 -11 -34 -24 -48 -28 -14 -4 -52 -22 -85 -40 -33 -18 -82 -40 -110 -48 -27 -8 -78 -26 -112 -41 -34 -14 -70 -26 -78 -26 -16 0 -45 22 -45 34 0 4 -8 25 -19 49 -51 116 -83 223 -92 309 -29 255 18 1457 60 1573 15 41 158 175 186 175 14 0 44 -24 86 -71z" fill="#ffffff" id="ffffff-000002"/>
    <path stroke="none" d="M2120 6227 c-19 -7 -43 -18 -54 -24 -17 -9 -16 -12 12 -32 17 -11 35 -21 41 -21 6 0 11 -4 11 -10 0 -5 7 -10 15 -10 8 0 28 -18 43 -39 15 -22 40 -47 55 -56 37 -22 55 -66 63 -152 8 -90 -12 -309 -35 -375 -25 -74 -48 -210 -61 -358 -14 -161 3 -576 31 -745 10 -66 18 -131 17 -145 -1 -14 4 -63 10 -110 19 -139 33 -458 41 -926 7 -435 7 -441 30 -478 13 -20 28 -42 34 -49 7 -6 20 -29 29 -50 10 -20 35 -56 57 -80 21 -23 48 -60 59 -82 11 -22 36 -56 56 -74 20 -19 36 -40 36 -46 0 -6 18 -29 41 -50 22 -22 50 -58 61 -80 11 -22 36 -57 54 -77 19 -21 47 -62 64 -92 17 -30 37 -57 45 -59 7 -3 28 -27 46 -54 18 -26 50 -68 71 -92 21 -24 38 -49 38 -55 0 -26 78 -93 121 -105 49 -14 95 -1 153 44 17 13 52 33 77 43 26 11 57 31 70 45 13 13 40 33 59 43 19 11 55 37 80 59 25 22 58 49 74 60 32 22 62 50 86 81 8 11 33 42 56 69 22 28 49 72 59 98 10 26 29 56 42 67 13 10 41 53 63 95 22 43 48 85 58 94 10 9 26 32 35 52 9 20 22 41 29 46 23 18 117 45 137 38 10 -3 32 -31 49 -63 17 -31 42 -67 55 -79 14 -12 33 -37 42 -56 9 -19 32 -51 51 -73 20 -21 47 -59 61 -84 14 -25 38 -56 53 -70 14 -14 37 -45 51 -70 13 -25 34 -55 47 -68 12 -13 36 -47 52 -76 16 -28 43 -65 60 -81 17 -17 40 -49 50 -72 12 -27 30 -48 52 -59 18 -9 49 -30 68 -45 46 -37 119 -55 151 -38 40 21 116 102 132 141 8 20 33 55 55 77 22 23 50 61 62 84 12 23 34 54 50 68 15 14 36 41 45 60 9 19 34 50 54 69 20 19 43 49 51 65 7 17 30 48 51 70 20 22 47 59 61 82 13 23 40 60 60 81 19 21 39 49 43 61 4 13 22 40 39 60 18 20 44 56 59 81 14 25 42 63 62 85 19 22 42 55 51 73 8 18 29 45 46 60 16 15 37 40 45 55 8 15 31 46 52 68 22 21 46 55 55 74 9 19 28 46 42 60 14 14 34 45 44 68 19 42 19 71 9 1018 -5 535 -13 1010 -18 1053 -17 154 13 374 61 444 39 57 48 65 110 87 54 19 65 30 48 50 -9 11 -99 14 -493 16 -265 1 -530 3 -589 3 -85 1 -111 -2 -123 -15 -20 -20 -12 -39 28 -64 18 -11 42 -40 53 -64 12 -23 33 -55 47 -69 39 -41 55 -119 68 -322 6 -102 16 -228 21 -280 5 -52 13 -255 17 -450 5 -195 14 -463 19 -595 25 -549 33 -832 27 -860 -4 -17 -24 -48 -44 -70 -20 -22 -47 -60 -60 -84 -13 -24 -35 -55 -50 -70 -15 -14 -35 -43 -46 -65 -11 -21 -34 -50 -51 -65 -17 -14 -41 -42 -54 -61 -13 -19 -42 -53 -64 -76 -23 -22 -74 -75 -114 -117 -40 -43 -77 -77 -82 -77 -6 0 -30 9 -55 21 -35 16 -49 32 -70 72 -14 28 -25 57 -25 65 0 27 -36 78 -108 152 -40 41 -79 89 -88 105 -12 23 -19 97 -30 320 -14 306 -25 437 -49 600 -11 72 -18 266 -25 695 -6 327 -13 624 -16 659 -5 58 -10 68 -49 110 -23 25 -54 70 -69 99 -14 28 -29 52 -32 52 -16 0 -164 -130 -164 -144 0 -10 -81 -101 -193 -218 -43 -45 -84 -96 -92 -113 -10 -25 -14 -209 -20 -871 -8 -904 -5 -858 -62 -919 -15 -16 -34 -42 -42 -57 -8 -15 -36 -53 -63 -85 -26 -31 -48 -63 -48 -70 0 -8 -18 -33 -39 -56 -22 -23 -50 -67 -64 -97 -13 -30 -38 -69 -55 -87 -17 -17 -40 -50 -51 -72 -25 -48 -41 -58 -107 -66 -35 -5 -69 -2 -113 11 -53 15 -66 23 -87 55 -13 21 -24 41 -24 44 0 3 -11 17 -24 30 -14 14 -26 41 -30 67 -16 108 -26 857 -26 1918 0 984 2 1162 15 1203 11 35 29 62 70 100 49 48 55 57 55 94 0 23 5 45 11 49 24 14 -24 26 -144 35 -67 5 -156 13 -197 17 -127 15 -679 14 -720 -1z" fill="#000000" id="000000-000002"/>
    <path stroke="none" d="M7385 5798 c-16 -6 -43 -20 -58 -31 -16 -11 -56 -33 -90 -49 -34 -17 -68 -39 -75 -49 -7 -10 -43 -33 -80 -51 -37 -18 -77 -44 -89 -59 -13 -15 -42 -36 -65 -47 -39 -18 -72 -44 -149 -116 -14 -13 -33 -50 -43 -83 -18 -60 -18 -62 4 -169 24 -117 37 -148 87 -206 18 -20 41 -54 52 -75 10 -21 35 -54 55 -72 20 -19 36 -40 36 -46 0 -22 46 -55 77 -55 100 0 126 28 99 109 -24 73 -21 147 7 181 12 15 30 42 39 59 10 17 32 39 49 49 17 9 55 36 85 60 29 23 75 51 101 63 26 11 62 33 78 49 17 16 55 38 85 49 l55 21 28 -30 28 -31 -3 -979 c-3 -975 -3 -979 -24 -1007 -15 -20 -37 -31 -78 -41 -53 -13 -58 -13 -77 4 -12 11 -28 32 -36 49 -9 16 -31 45 -49 62 -19 18 -34 37 -34 41 0 33 -44 201 -66 253 -24 58 -27 79 -32 216 -6 183 14 314 59 400 16 30 29 63 29 73 0 10 16 34 36 54 19 19 33 40 29 46 -3 5 -31 10 -61 10 -46 0 -62 -5 -92 -29 -20 -16 -62 -34 -92 -41 -72 -16 -109 -32 -142 -61 -15 -13 -54 -35 -87 -48 -41 -16 -69 -36 -91 -62 -17 -22 -37 -39 -44 -39 -14 0 -76 -61 -76 -76 0 -6 -18 -27 -39 -47 -54 -50 -69 -116 -48 -202 8 -33 18 -80 22 -104 4 -25 13 -51 21 -58 17 -17 30 -67 44 -160 10 -72 36 -164 50 -173 14 -10 29 -48 49 -128 11 -46 34 -108 50 -137 17 -30 35 -73 42 -95 11 -35 31 -62 127 -163 24 -25 77 -55 129 -71 11 -4 29 3 47 19 15 13 49 32 75 42 25 9 69 34 96 55 28 20 73 47 100 59 28 12 61 35 74 50 50 60 76 24 89 -118 10 -108 21 -133 64 -133 41 0 92 19 123 45 16 15 44 33 62 42 17 8 44 31 59 50 15 20 45 52 66 71 21 19 38 40 38 47 0 7 16 27 36 45 20 17 50 49 68 70 17 22 60 73 95 115 62 75 99 156 82 184 -4 6 -32 14 -62 18 -41 5 -61 13 -82 35 l-29 28 3 798 c1 604 -1 808 -10 841 -7 25 -26 56 -46 75 -18 17 -44 49 -58 71 -13 22 -50 63 -81 90 -32 28 -81 73 -109 101 -29 27 -65 56 -82 64 -16 8 -44 29 -62 46 -17 17 -56 45 -87 62 -30 18 -60 40 -65 50 -6 11 -35 32 -65 47 -30 15 -67 41 -82 56 -30 31 -42 33 -89 17z" fill="#000000" id="000000-000003"/>
    <path stroke="none" d="M9275 5230 c-16 -11 -40 -20 -52 -20 -22 0 -69 -36 -192 -147 -32 -29 -61 -53 -65 -53 -4 0 -30 -21 -57 -46 -48 -46 -71 -63 -116 -83 -12 -6 -34 -24 -49 -41 -15 -16 -47 -41 -71 -55 -77 -46 -43 -95 66 -95 53 0 62 -3 80 -27 l21 -26 -2 -1009 c-2 -658 -6 -1011 -13 -1016 -5 -4 -16 -17 -23 -30 -17 -31 7 -76 49 -91 44 -15 461 -13 514 3 25 7 45 21 55 38 13 25 13 29 -5 50 -47 55 -49 63 -57 333 -5 143 -7 539 -6 880 2 507 6 625 17 645 30 54 196 237 231 255 44 22 111 25 172 8 87 -24 94 -36 106 -188 5 -71 10 -191 11 -265 1 -73 4 -137 7 -141 2 -4 9 -70 15 -146 6 -76 15 -174 20 -218 22 -203 56 -1460 42 -1575 -5 -46 -12 -60 -41 -86 -37 -33 -41 -66 -8 -72 24 -5 98 23 126 48 12 11 43 27 69 36 25 9 63 30 83 46 21 16 64 41 95 56 89 42 179 107 192 139 15 37 11 2289 -4 2315 -5 9 -25 32 -42 52 -18 19 -33 38 -33 41 0 21 -50 105 -82 137 -21 21 -38 45 -38 53 0 8 -18 32 -41 52 -22 21 -51 61 -63 89 -26 56 -56 90 -111 124 -34 21 -40 22 -93 10 -60 -13 -92 -29 -129 -66 -13 -13 -38 -30 -56 -39 -19 -9 -52 -32 -73 -52 -21 -19 -53 -47 -71 -60 -51 -39 -155 -145 -193 -195 -19 -26 -42 -48 -51 -48 -8 0 -26 12 -40 28 -23 26 -24 34 -30 222 -4 165 -15 250 -31 250 -2 0 -16 -9 -33 -20z" fill="#000000" id="000000-000004"/>
  </g>
</svg>
