<svg xmlns="http://www.w3.org/2000/svg" version="1.0" width="5128.000000pt" height="1820.000000pt" viewBox="0 0 5128.000000 1820.000000" preserveAspectRatio="xMidYMid meet">
  <g transform="translate(0.000000,1820.000000) scale(0.100000,-0.100000)" stroke="none">
    <mask id="mask-4">
      <g>
        <path d="M 0 0 H 51280.0 V 18200.0 H 0 Z" fill="white" id="background"/>
        <path d="M48890 1480 l0 -1200 -1190 2 -1190 3 0 1193 c0 655 0 1194 0 1197 0 3 536 5 1190 5 l1190 0 0 -1200z" fill="black"/>
      </g>
    </mask>
    <mask id="mask-3">
      <g>
        <path d="M 0 0 H 51280.0 V 18200.0 H 0 Z" fill="white" id="background"/>
        <path d="M41372 2529 c69 -11 165 -30 235 -48 94 -25 298 -148 336 -203 9 -13 29 -39 46 -58 57 -64 133 -239 160 -365 27 -127 33 -190 33 -353 0 -162 -6 -226 -33 -357 -20 -96 -31 -127 -88 -245 -105 -221 -305 -376 -566 -439 -152 -36 -220 -41 -594 -41 -327 0 -370 2 -375 16 -8 20 -8 2068 0 2088 5 14 49 16 390 16 231 0 412 -4 456 -11z" fill="black"/>
        <path d="M48890 1480 l0 -1200 -1190 2 -1190 3 0 1193 c0 655 0 1194 0 1197 0 3 536 5 1190 5 l1190 0 0 -1200z" fill="black"/>
      </g>
    </mask>
    <mask id="mask-2">
      <g>
        <path d="M 0 0 H 51280.0 V 18200.0 H 0 Z" fill="white" id="background"/>
        <path d="M32828 2453 c28 -77 65 -171 77 -198 7 -16 25 -61 40 -100 15 -38 33 -83 40 -100 7 -16 25 -61 40 -100 15 -38 33 -83 40 -100 7 -16 25 -61 40 -100 15 -38 33 -83 40 -100 7 -16 25 -61 40 -100 15 -38 33 -83 40 -100 7 -16 23 -57 35 -90 13 -33 27 -64 32 -70 4 -5 8 -19 8 -32 l0 -23 -496 0 -496 0 7 30 c3 16 15 47 26 69 10 22 19 44 19 49 0 4 9 27 20 50 11 22 20 45 20 50 0 4 9 27 20 50 11 22 20 45 20 50 0 4 9 27 20 50 11 22 20 45 20 50 0 4 9 27 20 50 11 22 20 45 20 50 0 4 9 27 20 50 11 22 20 45 20 50 0 4 9 27 20 50 11 22 20 45 20 50 0 4 9 27 20 50 11 22 20 45 20 50 0 4 9 27 20 50 11 22 20 45 20 50 0 4 9 27 20 50 11 22 20 47 20 55 0 7 4 17 8 23 5 5 17 29 26 54 27 70 48 110 56 110 4 0 12 -12 18 -27z" fill="black"/>
        <path d="M41372 2529 c69 -11 165 -30 235 -48 94 -25 298 -148 336 -203 9 -13 29 -39 46 -58 57 -64 133 -239 160 -365 27 -127 33 -190 33 -353 0 -162 -6 -226 -33 -357 -20 -96 -31 -127 -88 -245 -105 -221 -305 -376 -566 -439 -152 -36 -220 -41 -594 -41 -327 0 -370 2 -375 16 -8 20 -8 2068 0 2088 5 14 49 16 390 16 231 0 412 -4 456 -11z" fill="black"/>
        <path d="M48890 1480 l0 -1200 -1190 2 -1190 3 0 1193 c0 655 0 1194 0 1197 0 3 536 5 1190 5 l1190 0 0 -1200z" fill="black"/>
      </g>
    </mask>
    <mask id="mask-1">
      <g>
        <path d="M 0 0 H 51280.0 V 18200.0 H 0 Z" fill="white" id="background"/>
        <path d="M25357 2530 c264 -36 395 -157 432 -402 29 -196 -61 -386 -220 -465 -149 -74 -237 -83 -821 -83 l-488 0 0 480 0 480 509 0 c299 0 542 -4 588 -10z" fill="black"/>
        <path d="M32828 2453 c28 -77 65 -171 77 -198 7 -16 25 -61 40 -100 15 -38 33 -83 40 -100 7 -16 25 -61 40 -100 15 -38 33 -83 40 -100 7 -16 25 -61 40 -100 15 -38 33 -83 40 -100 7 -16 25 -61 40 -100 15 -38 33 -83 40 -100 7 -16 23 -57 35 -90 13 -33 27 -64 32 -70 4 -5 8 -19 8 -32 l0 -23 -496 0 -496 0 7 30 c3 16 15 47 26 69 10 22 19 44 19 49 0 4 9 27 20 50 11 22 20 45 20 50 0 4 9 27 20 50 11 22 20 45 20 50 0 4 9 27 20 50 11 22 20 45 20 50 0 4 9 27 20 50 11 22 20 45 20 50 0 4 9 27 20 50 11 22 20 45 20 50 0 4 9 27 20 50 11 22 20 45 20 50 0 4 9 27 20 50 11 22 20 45 20 50 0 4 9 27 20 50 11 22 20 45 20 50 0 4 9 27 20 50 11 22 20 47 20 55 0 7 4 17 8 23 5 5 17 29 26 54 27 70 48 110 56 110 4 0 12 -12 18 -27z" fill="black"/>
        <path d="M41372 2529 c69 -11 165 -30 235 -48 94 -25 298 -148 336 -203 9 -13 29 -39 46 -58 57 -64 133 -239 160 -365 27 -127 33 -190 33 -353 0 -162 -6 -226 -33 -357 -20 -96 -31 -127 -88 -245 -105 -221 -305 -376 -566 -439 -152 -36 -220 -41 -594 -41 -327 0 -370 2 -375 16 -8 20 -8 2068 0 2088 5 14 49 16 390 16 231 0 412 -4 456 -11z" fill="black"/>
        <path d="M48890 1480 l0 -1200 -1190 2 -1190 3 0 1193 c0 655 0 1194 0 1197 0 3 536 5 1190 5 l1190 0 0 -1200z" fill="black"/>
      </g>
    </mask>
    <mask id="mask-0">
      <g>
        <path d="M 0 0 H 51280.0 V 18200.0 H 0 Z" fill="white" id="background"/>
        <path d="M13290 14285 c166 -23 228 -43 320 -106 85 -57 307 -303 325 -360 4 -10 10 -19 14 -19 10 0 85 -150 100 -199 16 -50 13 -128 -5 -164 -38 -73 -157 -205 -255 -281 -13 -11 -56 -47 -95 -80 -39 -34 -103 -86 -143 -116 -109 -83 -119 -91 -190 -149 -186 -151 -363 -249 -531 -292 -234 -61 -84 -59 -4099 -59 -2788 0 -3674 3 -3705 12 -99 28 -177 114 -191 209 -8 56 3 118 56 324 17 65 27 105 49 200 11 50 24 104 29 120 5 17 14 53 20 80 7 28 17 68 22 90 11 40 15 56 44 175 9 36 21 83 25 105 52 247 179 399 410 492 43 17 215 18 3760 23 2043 3 3765 6 3825 8 61 1 157 -5 215 -13z" fill="black"/>
        <path d="M12110 10122 c276 -19 380 -44 495 -118 118 -76 328 -324 409 -481 59 -116 67 -220 22 -298 -32 -56 -243 -268 -315 -317 -25 -17 -66 -48 -91 -68 -25 -20 -85 -65 -135 -101 -49 -35 -99 -72 -109 -81 -11 -10 -23 -18 -28 -18 -5 0 -68 -40 -141 -90 -235 -158 -390 -213 -668 -239 -81 -8 -1244 -11 -3820 -11 l-3704 1 -45 22 c-81 42 -140 145 -140 246 0 43 22 153 65 321 9 36 21 85 27 110 5 25 14 59 19 75 5 17 18 71 29 120 11 50 24 104 29 120 8 29 18 68 42 173 6 26 14 58 19 72 4 14 13 50 20 80 32 146 73 229 153 313 87 91 171 143 276 172 37 10 784 12 3746 10 2331 -2 3754 -7 3845 -13z" fill="black"/>
        <path d="M25357 2530 c264 -36 395 -157 432 -402 29 -196 -61 -386 -220 -465 -149 -74 -237 -83 -821 -83 l-488 0 0 480 0 480 509 0 c299 0 542 -4 588 -10z" fill="black"/>
        <path d="M32828 2453 c28 -77 65 -171 77 -198 7 -16 25 -61 40 -100 15 -38 33 -83 40 -100 7 -16 25 -61 40 -100 15 -38 33 -83 40 -100 7 -16 25 -61 40 -100 15 -38 33 -83 40 -100 7 -16 25 -61 40 -100 15 -38 33 -83 40 -100 7 -16 23 -57 35 -90 13 -33 27 -64 32 -70 4 -5 8 -19 8 -32 l0 -23 -496 0 -496 0 7 30 c3 16 15 47 26 69 10 22 19 44 19 49 0 4 9 27 20 50 11 22 20 45 20 50 0 4 9 27 20 50 11 22 20 45 20 50 0 4 9 27 20 50 11 22 20 45 20 50 0 4 9 27 20 50 11 22 20 45 20 50 0 4 9 27 20 50 11 22 20 45 20 50 0 4 9 27 20 50 11 22 20 45 20 50 0 4 9 27 20 50 11 22 20 45 20 50 0 4 9 27 20 50 11 22 20 45 20 50 0 4 9 27 20 50 11 22 20 47 20 55 0 7 4 17 8 23 5 5 17 29 26 54 27 70 48 110 56 110 4 0 12 -12 18 -27z" fill="black"/>
        <path d="M41372 2529 c69 -11 165 -30 235 -48 94 -25 298 -148 336 -203 9 -13 29 -39 46 -58 57 -64 133 -239 160 -365 27 -127 33 -190 33 -353 0 -162 -6 -226 -33 -357 -20 -96 -31 -127 -88 -245 -105 -221 -305 -376 -566 -439 -152 -36 -220 -41 -594 -41 -327 0 -370 2 -375 16 -8 20 -8 2068 0 2088 5 14 49 16 390 16 231 0 412 -4 456 -11z" fill="black"/>
        <path d="M48890 1480 l0 -1200 -1190 2 -1190 3 0 1193 c0 655 0 1194 0 1197 0 3 536 5 1190 5 l1190 0 0 -1200z" fill="black"/>
      </g>
    </mask>
    <path stroke="none" d="M3400 18148 c-19 -5 -53 -14 -75 -20 -100 -26 -187 -80 -270 -164 -91 -93 -128 -183 -195 -466 -45 -195 -60 -256 -75 -318 -9 -36 -19 -76 -21 -90 -3 -14 -9 -42 -14 -62 -6 -21 -14 -55 -20 -75 -5 -21 -18 -78 -30 -128 -12 -49 -25 -107 -30 -127 -6 -21 -14 -55 -20 -75 -5 -21 -11 -49 -14 -63 -2 -14 -12 -54 -21 -90 -9 -36 -25 -103 -36 -150 -11 -47 -24 -102 -29 -122 -6 -21 -14 -55 -20 -75 -5 -21 -11 -49 -14 -63 -2 -14 -12 -54 -21 -90 -9 -36 -25 -103 -36 -150 -11 -47 -25 -103 -30 -125 -19 -74 -28 -110 -33 -135 -2 -14 -12 -54 -21 -90 -15 -62 -30 -123 -75 -317 -12 -49 -26 -106 -31 -128 -19 -74 -28 -110 -33 -135 -2 -14 -11 -53 -20 -87 -9 -35 -23 -91 -32 -125 -9 -35 -18 -74 -20 -88 -3 -14 -10 -43 -15 -65 -17 -65 -27 -105 -49 -197 -11 -49 -29 -127 -40 -175 -12 -49 -25 -105 -30 -125 -6 -21 -14 -55 -20 -75 -5 -21 -11 -49 -14 -63 -2 -14 -12 -54 -21 -90 -9 -36 -25 -103 -36 -150 -11 -47 -24 -102 -29 -122 -6 -21 -14 -55 -20 -75 -5 -21 -18 -77 -30 -125 -11 -49 -29 -127 -40 -175 -12 -49 -25 -105 -30 -125 -6 -21 -14 -55 -20 -75 -5 -21 -11 -49 -14 -63 -2 -14 -12 -54 -21 -90 -9 -36 -25 -103 -36 -150 -21 -90 -31 -131 -48 -195 -5 -22 -19 -79 -31 -127 -11 -49 -29 -127 -40 -175 -22 -93 -32 -133 -49 -198 -5 -22 -12 -51 -15 -65 -2 -14 -12 -54 -21 -90 -9 -36 -25 -103 -36 -150 -11 -47 -25 -103 -30 -125 -17 -65 -27 -105 -49 -197 -11 -49 -29 -127 -40 -175 -12 -49 -26 -106 -31 -128 -19 -74 -28 -110 -33 -135 -2 -14 -12 -54 -21 -90 -9 -36 -25 -103 -36 -150 -21 -90 -31 -131 -48 -195 -5 -22 -19 -79 -31 -127 -11 -49 -29 -126 -40 -173 -11 -47 -29 -124 -40 -172 -22 -93 -32 -133 -49 -198 -5 -22 -19 -80 -31 -130 -25 -107 -38 -159 -51 -201 -5 -17 -9 -39 -9 -49 0 -10 -4 -32 -9 -49 -13 -41 -26 -93 -51 -198 -11 -49 -29 -127 -40 -175 -22 -93 -32 -133 -49 -198 -5 -22 -19 -80 -31 -130 -12 -49 -25 -106 -30 -125 -5 -19 -14 -57 -20 -85 -11 -48 -19 -82 -40 -162 -5 -21 -18 -77 -30 -125 -11 -49 -29 -127 -40 -175 -12 -49 -25 -105 -30 -125 -6 -21 -14 -55 -20 -75 -5 -21 -18 -78 -30 -128 -12 -49 -26 -108 -31 -130 -19 -74 -28 -110 -33 -135 -2 -14 -12 -54 -21 -90 -15 -62 -30 -123 -75 -318 -12 -48 -25 -104 -30 -124 -6 -21 -14 -55 -20 -75 -5 -21 -18 -78 -30 -128 -25 -107 -38 -159 -51 -201 -5 -17 -9 -39 -9 -49 0 -10 -4 -32 -9 -49 -65 -213 -88 -408 -60 -497 32 -100 104 -191 183 -231 98 -50 -242 -47 5922 -48 3929 0 5790 3 5830 10 84 15 155 30 184 40 14 4 45 13 70 20 66 18 101 30 170 57 89 36 324 171 350 202 7 8 58 50 100 81 40 30 190 150 206 165 6 5 66 53 134 105 67 52 152 120 189 150 37 31 84 69 106 85 22 17 121 94 220 173 99 78 207 164 240 190 33 26 65 51 71 57 6 5 66 53 134 105 67 52 152 120 189 150 37 31 84 69 106 85 22 17 121 94 220 173 99 78 207 164 240 190 33 26 62 49 65 52 3 3 52 41 109 85 57 44 131 103 165 130 33 28 82 66 107 85 87 66 161 135 218 205 59 72 141 189 141 200 0 4 8 19 18 33 16 24 47 91 87 187 17 41 50 150 64 210 7 28 16 66 21 85 48 194 47 578 -2 790 -22 98 -50 194 -60 205 -4 5 -8 17 -8 27 0 10 -4 26 -10 36 -5 9 -25 51 -45 92 -43 92 -73 143 -125 218 -23 31 -77 111 -122 177 -45 66 -84 122 -88 125 -3 3 -53 75 -110 160 -57 85 -108 160 -112 165 -31 39 -115 178 -130 218 -28 73 -21 182 18 282 19 50 65 103 139 162 44 35 87 70 95 76 8 7 49 39 90 72 116 91 212 168 235 187 11 9 70 55 130 102 61 48 117 92 125 99 78 64 430 341 514 406 185 140 367 379 447 589 5 12 13 32 18 45 5 12 15 40 22 62 6 22 15 51 19 65 10 31 25 94 42 180 20 100 16 443 -7 545 -9 44 -21 96 -25 115 -21 97 -91 267 -156 379 -31 53 -105 164 -114 171 -4 3 -49 67 -101 143 -149 219 -198 291 -212 308 -6 8 -16 22 -22 31 -12 18 -174 254 -195 284 -91 130 -237 339 -400 574 -58 83 -140 202 -183 263 -43 62 -110 159 -149 217 -124 183 -175 239 -313 344 -108 83 -238 152 -359 191 -146 47 76 45 -4363 45 l-4161 0 -71 24 c-108 37 -169 92 -222 201 -22 47 -24 60 -22 203 1 84 7 184 14 221 9 55 9 82 -1 137 -29 155 -116 259 -260 310 -53 18 -95 19 -1185 21 -712 1 -1143 -2 -1165 -9z" fill="#010101" id="010101-000001" mask="url(#mask-0)"/>
    <path stroke="none" d="M20420 17840 c-114 -14 -149 -34 -360 -200 -59 -47 -125 -98 -146 -115 -21 -16 -52 -41 -69 -55 -16 -14 -46 -38 -67 -53 -20 -15 -42 -32 -50 -39 -7 -8 -33 -29 -58 -48 -25 -19 -47 -37 -50 -40 -3 -3 -23 -19 -45 -36 -66 -51 -319 -249 -340 -266 -11 -10 -72 -58 -135 -108 -63 -50 -133 -105 -154 -123 -38 -31 -137 -108 -222 -172 -21 -16 -41 -32 -44 -35 -3 -3 -21 -17 -42 -32 -20 -15 -42 -33 -50 -40 -7 -7 -31 -26 -53 -42 -81 -60 -170 -160 -202 -226 -56 -116 -58 -127 -58 -270 0 -137 2 -149 47 -250 25 -55 139 -224 169 -250 17 -15 129 -193 153 -244 29 -64 67 -173 85 -248 6 -27 16 -69 23 -95 17 -66 17 -403 0 -468 -24 -92 -31 -120 -52 -207 -11 -49 -29 -127 -40 -175 -12 -49 -26 -106 -31 -128 -22 -82 -33 -130 -89 -372 -12 -49 -24 -101 -29 -118 -9 -30 -14 -50 -51 -210 -11 -49 -26 -108 -31 -130 -17 -65 -27 -105 -49 -197 -11 -49 -29 -127 -40 -175 -12 -49 -26 -106 -31 -128 -19 -74 -28 -110 -33 -135 -4 -23 -10 -49 -52 -212 -9 -35 -20 -81 -24 -103 -4 -22 -15 -69 -25 -105 -9 -36 -25 -101 -35 -145 -10 -44 -26 -109 -35 -145 -10 -36 -21 -83 -25 -105 -5 -22 -14 -60 -20 -85 -6 -25 -15 -63 -20 -85 -5 -22 -13 -58 -19 -80 -6 -22 -16 -60 -22 -85 -5 -25 -15 -63 -20 -85 -6 -22 -14 -58 -19 -80 -4 -22 -15 -69 -25 -105 -9 -36 -25 -103 -36 -150 -11 -47 -25 -103 -30 -125 -17 -65 -27 -105 -49 -197 -11 -49 -29 -127 -40 -175 -12 -49 -25 -105 -30 -125 -6 -21 -14 -55 -20 -75 -5 -21 -11 -49 -14 -63 -2 -14 -12 -54 -21 -90 -9 -36 -25 -103 -36 -150 -11 -47 -25 -103 -30 -125 -17 -65 -27 -105 -49 -197 -11 -49 -29 -127 -40 -175 -12 -49 -25 -105 -30 -125 -6 -21 -14 -55 -20 -75 -5 -21 -18 -78 -30 -128 -12 -49 -25 -106 -30 -125 -5 -19 -14 -60 -21 -90 -6 -30 -15 -66 -19 -80 -5 -14 -13 -45 -18 -70 -6 -25 -20 -84 -31 -132 -12 -49 -30 -127 -41 -175 -12 -49 -24 -101 -29 -118 -9 -30 -14 -50 -51 -210 -11 -49 -25 -107 -30 -127 -6 -21 -14 -55 -20 -75 -5 -21 -18 -77 -30 -126 -11 -48 -29 -126 -40 -175 -22 -92 -32 -132 -49 -197 -5 -22 -12 -51 -15 -65 -2 -14 -9 -43 -15 -65 -6 -22 -16 -60 -22 -85 -5 -25 -15 -63 -20 -85 -6 -22 -14 -58 -19 -80 -4 -22 -15 -69 -25 -105 -9 -36 -25 -103 -36 -150 -11 -47 -24 -102 -29 -122 -6 -21 -14 -55 -20 -75 -20 -80 -84 -359 -99 -431 -43 -210 61 -407 248 -469 53 -17 116 -18 1186 -18 1086 0 1132 1 1190 19 141 45 261 128 361 251 48 59 104 158 104 185 0 10 4 21 8 24 5 3 15 31 22 63 7 32 20 83 28 113 8 30 18 73 22 95 4 22 15 69 25 105 9 36 25 103 36 150 24 104 37 155 50 196 5 17 9 39 9 49 0 10 4 32 9 49 13 42 26 94 51 201 12 50 25 107 30 128 6 20 14 54 20 75 5 20 18 76 30 124 11 49 29 127 40 175 12 49 25 105 30 126 6 20 14 54 20 75 5 20 18 75 29 122 11 47 27 114 36 150 10 36 21 83 25 105 4 22 15 69 25 105 9 36 25 101 35 145 10 44 26 109 35 145 10 36 21 84 26 108 21 99 28 129 39 167 13 46 27 102 40 160 5 22 14 60 20 85 6 25 15 63 20 85 4 22 15 69 25 105 15 59 38 158 67 280 5 25 13 56 18 70 4 14 13 50 19 80 7 30 16 71 21 90 5 19 18 76 30 125 12 50 26 108 31 130 17 65 27 105 49 197 45 195 60 256 75 318 9 36 19 76 21 90 5 25 14 61 33 135 5 22 19 81 31 130 22 94 32 134 49 200 5 22 12 51 15 65 2 14 11 53 20 88 9 34 23 90 32 125 9 34 18 73 20 87 3 14 9 42 14 63 6 20 14 54 20 75 5 20 18 76 30 125 11 48 29 126 40 175 12 48 25 104 30 125 6 20 14 54 20 75 5 20 18 75 29 122 11 47 27 114 36 150 10 36 21 83 25 105 4 22 15 69 25 105 9 36 25 101 35 145 10 44 26 109 35 145 9 36 19 76 21 90 3 14 10 43 15 65 17 64 27 105 48 195 11 47 27 114 36 150 10 36 21 83 25 105 4 22 15 68 24 103 40 156 48 189 55 223 14 67 79 183 141 251 96 105 188 165 320 209 l75 24 1250 0 c1027 0 1256 -2 1285 -14 148 -57 208 -113 258 -241 17 -45 20 -211 5 -270 -7 -25 -21 -84 -32 -132 -12 -49 -30 -126 -41 -173 -11 -47 -29 -123 -40 -170 -11 -47 -29 -123 -40 -170 -11 -47 -29 -123 -40 -170 -11 -47 -29 -123 -40 -170 -11 -47 -29 -123 -40 -170 -11 -47 -29 -123 -40 -170 -11 -47 -29 -123 -40 -170 -11 -47 -29 -124 -40 -172 -12 -49 -25 -104 -30 -123 -5 -19 -13 -55 -19 -80 -9 -42 -23 -102 -71 -305 -11 -47 -29 -124 -40 -172 -12 -49 -25 -104 -30 -123 -5 -19 -13 -55 -19 -80 -5 -25 -19 -84 -30 -132 -12 -49 -30 -127 -41 -175 -12 -49 -25 -104 -30 -123 -5 -19 -14 -57 -20 -85 -6 -27 -15 -66 -20 -85 -5 -19 -13 -55 -19 -80 -9 -42 -23 -102 -71 -305 -11 -47 -29 -124 -40 -172 -12 -49 -25 -104 -30 -123 -5 -19 -13 -55 -19 -80 -5 -25 -19 -84 -30 -132 -12 -49 -30 -127 -41 -175 -12 -49 -25 -104 -30 -123 -5 -19 -14 -57 -20 -85 -11 -48 -19 -82 -40 -162 -5 -21 -12 -51 -15 -68 -3 -16 -10 -48 -16 -70 -6 -22 -14 -58 -19 -80 -18 -82 -40 -173 -61 -257 -5 -24 -14 -61 -19 -83 -12 -53 -30 -132 -40 -175 -5 -19 -14 -57 -20 -85 -17 -72 -29 -124 -41 -170 -6 -22 -14 -58 -19 -80 -5 -22 -14 -60 -20 -85 -6 -25 -15 -63 -20 -85 -5 -22 -14 -60 -20 -85 -6 -25 -15 -63 -20 -85 -5 -22 -14 -60 -20 -85 -6 -25 -15 -63 -20 -85 -5 -22 -14 -60 -20 -85 -6 -25 -15 -63 -20 -85 -5 -22 -14 -60 -20 -85 -6 -25 -15 -63 -20 -85 -5 -22 -13 -58 -19 -80 -5 -22 -15 -62 -21 -90 -7 -27 -16 -68 -22 -90 -5 -22 -13 -58 -18 -80 -5 -22 -13 -58 -19 -80 -6 -22 -13 -53 -16 -70 -3 -16 -10 -47 -15 -67 -6 -21 -14 -55 -20 -75 -5 -21 -18 -77 -30 -125 -11 -49 -29 -127 -41 -175 -11 -49 -25 -108 -30 -133 -6 -25 -16 -65 -22 -90 -16 -64 -15 -226 2 -280 34 -105 131 -203 233 -235 61 -19 94 -20 1183 -20 1076 0 1122 1 1180 19 224 72 409 252 478 466 8 25 19 65 25 90 6 25 18 74 28 110 9 36 20 83 24 105 4 22 15 69 25 105 9 36 25 103 36 150 21 90 31 131 48 195 5 22 19 78 30 125 11 47 27 114 36 150 10 36 21 83 25 105 4 22 15 69 25 105 9 36 25 103 36 150 11 47 24 102 29 123 6 20 14 54 20 75 5 20 18 75 29 122 11 47 27 114 36 150 10 36 21 83 25 105 5 22 13 58 19 80 5 22 15 60 20 85 6 25 16 63 22 85 6 22 13 51 15 65 5 25 14 64 33 135 5 22 19 78 30 125 11 47 27 114 36 150 9 36 19 76 21 90 3 14 9 42 14 63 6 20 14 54 20 75 5 20 18 78 30 127 22 94 32 134 49 200 5 22 19 78 30 125 11 47 27 114 36 150 10 36 21 83 25 105 4 22 15 69 25 105 9 36 25 103 36 150 24 104 37 155 50 196 5 17 9 39 9 49 0 10 4 32 9 49 13 42 26 94 51 201 22 94 32 134 49 200 5 22 19 78 30 125 11 47 27 114 36 150 10 36 21 83 25 105 4 22 15 69 25 105 9 36 25 103 36 150 21 90 31 131 48 195 5 22 19 78 30 125 11 47 27 114 36 150 9 36 19 76 21 90 5 25 14 61 33 135 5 22 19 81 31 130 22 94 32 134 49 200 5 22 12 51 15 65 4 23 10 49 52 213 9 34 20 80 24 102 4 22 15 69 25 105 9 36 25 103 36 150 11 47 25 105 31 130 6 25 14 59 19 75 5 17 17 68 28 115 11 47 27 114 36 150 10 36 21 83 25 105 5 22 13 58 19 80 5 22 15 60 20 85 6 25 15 61 20 80 6 19 14 51 19 70 34 133 190 312 333 384 87 43 125 54 229 67 44 6 564 8 1265 7 1188 -3 1190 -3 1242 -25 186 -76 287 -273 242 -471 -5 -26 -14 -65 -19 -87 -13 -60 -50 -215 -60 -257 -6 -21 -14 -55 -20 -75 -5 -21 -18 -78 -30 -128 -12 -49 -25 -107 -30 -127 -6 -21 -14 -55 -20 -75 -5 -21 -18 -77 -30 -125 -11 -49 -29 -127 -40 -175 -12 -49 -25 -105 -30 -125 -6 -21 -14 -55 -20 -75 -5 -21 -18 -78 -30 -128 -12 -49 -25 -107 -30 -127 -6 -21 -14 -55 -20 -75 -5 -21 -11 -49 -14 -63 -2 -14 -12 -54 -21 -90 -9 -36 -25 -103 -36 -150 -11 -47 -23 -98 -28 -115 -5 -16 -13 -50 -19 -75 -6 -25 -20 -83 -31 -130 -11 -47 -27 -114 -36 -150 -10 -36 -21 -83 -25 -105 -4 -22 -15 -69 -25 -105 -9 -36 -25 -103 -36 -150 -21 -90 -31 -131 -48 -195 -5 -22 -19 -80 -31 -130 -12 -49 -26 -108 -31 -130 -19 -74 -28 -110 -33 -135 -2 -14 -12 -54 -21 -90 -9 -36 -25 -101 -35 -145 -10 -44 -26 -109 -35 -145 -10 -36 -21 -83 -25 -105 -4 -22 -15 -69 -25 -105 -9 -36 -25 -103 -36 -150 -11 -47 -25 -103 -30 -125 -17 -64 -27 -105 -48 -195 -11 -47 -27 -114 -36 -150 -10 -36 -21 -83 -25 -105 -4 -22 -15 -69 -25 -105 -9 -36 -25 -103 -36 -150 -11 -47 -24 -102 -29 -122 -6 -21 -14 -55 -20 -75 -5 -21 -18 -78 -30 -128 -12 -49 -25 -106 -30 -125 -5 -19 -14 -60 -21 -90 -6 -30 -15 -66 -19 -80 -5 -14 -13 -45 -18 -70 -30 -127 -54 -229 -62 -262 -6 -21 -14 -55 -20 -75 -5 -21 -11 -49 -14 -63 -2 -14 -9 -43 -15 -65 -6 -22 -16 -60 -22 -85 -5 -25 -15 -63 -20 -85 -6 -22 -14 -58 -19 -80 -4 -22 -15 -69 -25 -105 -9 -36 -25 -103 -36 -150 -11 -47 -25 -103 -30 -125 -17 -65 -27 -105 -49 -197 -11 -49 -29 -127 -40 -175 -12 -49 -25 -105 -30 -125 -6 -21 -14 -55 -20 -75 -5 -21 -18 -78 -30 -128 -12 -49 -25 -107 -30 -127 -32 -123 -43 -171 -61 -265 -30 -156 59 -352 187 -412 16 -7 36 -17 44 -21 59 -29 173 -31 1245 -28 1086 3 1090 3 1151 25 207 73 376 236 455 438 13 34 28 86 49 180 12 50 25 107 30 128 6 20 14 54 20 75 5 20 18 75 29 122 11 47 27 114 36 150 9 36 19 76 21 90 3 14 9 42 14 63 6 20 14 54 20 75 5 20 18 75 29 122 11 47 27 114 36 150 9 36 19 76 21 90 5 25 14 61 33 135 5 22 19 81 31 130 12 50 25 107 30 128 6 20 14 54 20 75 5 20 11 48 14 62 2 14 12 54 21 90 9 36 25 103 36 150 11 47 24 102 29 123 6 20 14 54 20 75 5 20 18 75 29 122 11 47 27 114 36 150 9 36 19 76 21 90 3 14 9 42 14 63 6 20 14 54 20 75 5 20 18 75 29 122 11 47 27 114 36 150 10 36 21 83 25 105 4 22 15 69 25 105 9 36 25 103 36 150 21 90 31 131 48 195 5 22 12 51 15 65 2 14 11 53 20 88 9 34 23 90 32 125 9 34 18 73 20 87 3 14 9 42 14 63 6 20 14 54 20 75 5 20 18 76 30 125 11 48 29 126 40 175 12 48 25 104 30 125 6 20 14 54 20 75 5 20 18 75 29 122 11 47 27 114 36 150 10 36 21 83 25 105 4 22 15 69 25 105 15 59 38 158 67 280 5 25 13 56 18 70 4 14 13 50 19 80 7 30 16 71 21 90 5 19 18 76 30 125 12 50 25 107 30 128 6 20 14 54 20 75 5 20 11 48 14 62 2 14 12 54 21 90 9 36 25 103 36 150 11 47 24 102 29 123 6 20 14 54 20 75 5 20 18 75 29 122 11 47 27 114 36 150 9 36 19 76 21 90 5 25 14 61 33 135 5 22 19 78 30 125 11 47 27 114 36 150 10 36 21 83 25 105 4 22 15 67 23 100 33 133 40 186 40 315 0 148 -18 288 -53 400 -4 14 -13 43 -19 65 -13 43 -18 55 -50 127 -12 26 -21 50 -21 53 0 6 -177 270 -370 550 -71 105 -181 264 -243 355 -157 229 -392 570 -627 910 -52 76 -142 207 -199 291 -124 181 -234 300 -351 379 -95 63 -242 140 -269 140 -9 0 -21 4 -27 9 -11 10 -76 27 -158 41 -40 7 -1755 10 -5210 10 -5494 0 -5220 -2 -5361 45 -68 23 -172 73 -222 107 -23 15 -45 28 -48 28 -6 0 -37 23 -115 85 -32 25 -120 114 -140 140 -126 168 -169 220 -222 271 -121 118 -257 165 -418 144z" fill="#010101" id="010101-000002" mask="url(#mask-1)"/>
    <path stroke="none" d="M40115 17029 c-368 -66 -588 -162 -846 -367 -74 -58 -115 -92 -208 -167 -161 -130 -256 -205 -309 -248 -30 -23 -59 -47 -65 -53 -7 -5 -43 -34 -82 -64 -38 -29 -88 -68 -110 -87 -33 -27 -102 -83 -205 -166 -8 -7 -35 -28 -60 -47 -25 -19 -47 -38 -50 -41 -3 -3 -88 -72 -190 -153 -102 -81 -192 -153 -200 -159 -8 -7 -85 -68 -170 -137 -85 -68 -157 -127 -160 -130 -3 -3 -21 -17 -40 -30 -19 -13 -37 -27 -40 -30 -3 -4 -75 -62 -160 -130 -85 -68 -157 -126 -160 -130 -3 -3 -25 -21 -50 -40 -272 -208 -429 -396 -564 -675 -66 -137 -101 -234 -126 -350 -5 -22 -13 -58 -19 -80 -6 -22 -16 -60 -22 -85 -5 -25 -15 -63 -20 -85 -6 -22 -14 -58 -19 -80 -7 -36 -23 -100 -50 -205 -5 -19 -14 -57 -20 -85 -13 -58 -24 -103 -39 -160 -5 -22 -19 -79 -31 -127 -11 -49 -29 -127 -40 -175 -12 -49 -25 -105 -30 -125 -6 -21 -14 -55 -20 -75 -5 -21 -18 -78 -30 -128 -12 -49 -25 -107 -30 -127 -6 -21 -14 -55 -20 -75 -5 -21 -18 -77 -30 -125 -11 -49 -29 -127 -40 -175 -12 -49 -26 -106 -31 -128 -17 -66 -27 -106 -49 -200 -12 -49 -26 -108 -31 -130 -19 -74 -28 -110 -33 -135 -2 -14 -12 -54 -21 -90 -9 -36 -25 -103 -36 -150 -11 -47 -25 -103 -30 -125 -17 -65 -27 -105 -49 -197 -11 -49 -29 -127 -40 -175 -22 -93 -32 -133 -49 -198 -5 -22 -19 -80 -31 -130 -12 -49 -25 -107 -30 -127 -6 -21 -14 -55 -20 -75 -5 -21 -11 -49 -14 -63 -2 -14 -12 -54 -21 -90 -9 -36 -25 -103 -36 -150 -11 -47 -24 -102 -29 -122 -6 -21 -14 -55 -20 -75 -5 -21 -11 -49 -14 -63 -2 -14 -12 -54 -21 -90 -9 -36 -25 -103 -36 -150 -11 -47 -24 -102 -29 -122 -6 -21 -14 -55 -20 -75 -13 -56 -46 -199 -61 -268 -26 -127 -11 -405 32 -560 6 -22 13 -52 16 -68 3 -15 9 -30 14 -33 5 -3 9 -12 9 -20 0 -32 91 -205 161 -304 22 -30 89 -127 149 -215 60 -88 174 -254 253 -370 80 -115 201 -293 271 -395 69 -102 176 -257 237 -345 60 -88 159 -233 219 -321 107 -159 186 -251 285 -331 126 -102 330 -196 500 -229 59 -12 919 -14 5427 -14 3643 0 5374 3 5410 10 107 21 191 56 271 112 81 56 189 176 236 260 23 42 68 172 81 233 10 49 37 160 49 200 5 17 15 55 21 85 7 30 16 66 21 80 4 14 13 50 20 80 6 30 15 66 20 80 4 14 13 50 20 80 6 30 15 66 20 80 4 14 13 50 20 80 6 30 15 66 20 80 4 14 13 50 20 80 6 30 15 66 20 80 4 14 13 50 20 80 6 30 15 66 20 80 4 14 13 50 20 80 6 30 15 66 19 80 5 14 13 48 20 75 17 74 30 126 41 162 6 18 10 80 10 137 0 95 -3 112 -30 170 -57 127 -163 202 -314 225 -58 8 -1323 11 -4860 11 -3792 1 -4791 3 -4827 13 -120 34 -204 100 -298 237 -260 376 -332 495 -354 580 -29 107 -31 203 -8 300 5 19 13 60 20 90 6 30 15 71 20 90 5 19 18 73 29 120 11 47 27 114 36 150 10 36 21 83 25 105 4 22 15 69 25 105 15 62 30 122 75 318 22 92 32 132 49 197 10 38 28 114 71 303 12 48 24 101 29 117 5 17 13 50 19 75 17 71 50 212 72 308 25 105 38 157 51 198 5 17 9 39 9 49 0 10 4 32 9 49 13 42 26 94 51 201 22 94 32 134 49 200 5 22 12 51 15 65 2 14 12 54 21 90 9 36 25 103 36 150 11 47 24 102 29 123 6 20 14 54 20 75 5 20 18 76 30 125 11 48 29 126 40 175 22 92 32 132 49 197 5 22 19 79 31 128 11 48 29 126 40 175 12 48 26 105 31 127 13 48 24 92 40 160 34 146 83 243 175 343 78 87 255 202 310 202 8 0 25 6 37 13 18 9 1077 13 5167 17 4310 4 5150 7 5175 19 207 93 294 161 378 290 68 105 87 153 126 321 11 47 27 114 36 150 9 36 19 76 21 90 3 14 10 43 15 65 17 65 27 105 49 198 11 48 29 126 40 175 25 105 38 157 51 198 5 17 9 39 9 49 0 10 4 32 9 49 13 41 26 93 51 199 11 48 29 126 40 175 23 94 33 135 49 198 14 54 14 225 0 261 -61 150 -139 225 -275 262 -30 8 -1480 11 -5328 11 -5248 0 -5286 0 -5286 20 0 38 -44 47 -145 29z" fill="#010101" id="010101-000003" mask="url(#mask-1)"/>
    <path stroke="none" d="M1290 2884 c-108 -12 -143 -19 -230 -42 -418 -113 -656 -399 -637 -763 6 -119 17 -163 56 -244 68 -138 189 -235 406 -326 46 -19 209 -69 226 -69 10 0 28 -4 41 -9 13 -5 50 -14 83 -21 33 -6 79 -16 103 -21 57 -12 116 -25 182 -39 97 -20 137 -29 263 -61 51 -13 224 -67 252 -78 119 -50 219 -132 263 -215 24 -47 26 -60 26 -166 -1 -105 -3 -120 -29 -175 -55 -118 -192 -219 -360 -263 -120 -32 -158 -36 -355 -35 -155 1 -222 5 -275 18 -38 9 -82 19 -98 22 -15 3 -30 9 -33 14 -3 5 -12 9 -21 9 -27 0 -158 67 -220 114 -33 25 -73 63 -89 83 -15 21 -31 40 -34 43 -13 11 -50 82 -66 127 -9 27 -22 84 -28 128 l-11 80 -185 0 -185 0 2 -85 c2 -88 11 -132 45 -235 42 -124 104 -219 204 -316 56 -53 201 -159 219 -159 2 0 32 -13 67 -29 112 -52 204 -79 378 -108 128 -22 468 -24 570 -4 36 7 85 17 110 21 154 27 341 100 465 183 86 57 214 191 252 262 62 118 77 185 77 335 0 116 -4 145 -24 205 -13 39 -32 82 -42 97 -10 14 -18 30 -18 35 0 19 -145 165 -199 202 -100 67 -231 123 -401 171 -25 7 -58 17 -75 21 -16 5 -66 16 -110 25 -44 9 -96 20 -115 24 -19 4 -73 15 -120 25 -47 9 -123 25 -170 36 -47 11 -105 25 -130 30 -124 28 -194 51 -284 95 -152 72 -216 162 -216 300 0 243 136 384 430 445 127 27 504 12 555 -21 6 -3 30 -13 55 -20 127 -40 257 -154 317 -280 26 -54 63 -166 63 -191 0 -27 26 -30 200 -27 l155 3 3 50 c3 46 -1 71 -30 180 -61 234 -235 424 -483 530 -49 21 -105 42 -125 47 -233 56 -435 69 -670 42z" fill="#010101" id="010101-000004" mask="url(#mask-1)"/>
    <path stroke="none" d="M4134 2838 c-5 -8 10 -73 46 -193 5 -16 13 -46 19 -65 5 -19 14 -51 20 -70 5 -19 14 -51 20 -70 5 -19 14 -51 20 -70 5 -19 15 -53 21 -75 6 -22 15 -53 20 -70 5 -16 14 -47 19 -67 6 -21 16 -55 22 -75 5 -21 14 -53 20 -70 5 -18 14 -49 19 -68 6 -19 15 -51 20 -70 6 -19 15 -51 20 -70 6 -19 15 -51 20 -70 6 -19 15 -51 20 -70 6 -19 14 -50 19 -67 24 -83 38 -133 66 -233 9 -33 23 -82 31 -110 9 -27 20 -66 24 -85 4 -19 24 -91 44 -160 20 -69 41 -143 47 -165 6 -22 15 -51 19 -65 4 -14 13 -45 20 -70 7 -25 16 -56 20 -70 4 -14 13 -45 20 -70 7 -25 16 -56 20 -70 4 -14 13 -45 20 -70 7 -25 16 -56 20 -70 4 -14 13 -45 20 -70 25 -91 30 -106 38 -135 l9 -30 209 -3 209 -2 24 77 c13 43 31 103 41 133 9 30 27 89 40 130 12 41 26 86 30 100 4 14 13 45 20 70 7 25 20 70 30 100 16 50 23 75 51 175 5 17 17 57 27 90 11 33 29 94 42 135 12 41 26 86 30 100 4 14 13 45 20 70 7 25 20 70 30 100 10 30 23 75 30 100 7 25 16 56 20 70 4 14 18 59 30 100 13 41 31 100 40 130 10 30 23 75 30 100 7 25 16 56 20 70 4 14 18 59 30 100 13 41 31 100 40 130 10 30 25 80 34 110 9 30 21 62 26 70 10 16 8 21 30 -60 7 -25 20 -70 30 -100 10 -30 23 -75 30 -100 7 -25 20 -70 30 -100 10 -30 23 -75 30 -100 7 -25 20 -70 30 -100 10 -30 23 -75 30 -100 7 -25 16 -56 20 -70 5 -14 19 -59 31 -100 38 -130 60 -204 69 -230 4 -14 13 -45 20 -70 7 -25 20 -70 30 -100 10 -30 23 -75 30 -100 7 -25 20 -70 30 -100 10 -30 22 -73 29 -95 14 -50 50 -172 61 -205 4 -14 13 -45 20 -70 7 -25 20 -70 30 -100 10 -30 23 -75 30 -100 12 -43 34 -115 64 -210 l14 -45 211 -3 211 -2 6 27 c3 16 14 53 24 83 16 50 23 73 51 175 5 17 17 57 28 90 10 33 28 94 40 135 20 69 53 180 71 240 4 14 13 45 20 70 7 25 21 70 30 100 10 30 27 88 39 127 11 40 31 106 42 145 12 40 29 98 39 128 16 50 23 74 51 175 5 17 17 57 27 90 17 54 25 79 53 180 5 17 17 57 28 90 10 33 28 94 40 135 27 91 55 183 81 270 11 36 29 99 41 140 12 41 29 100 39 130 33 105 41 135 43 165 l2 30 -170 3 c-93 1 -180 0 -191 -3 -25 -6 -30 -15 -55 -112 -27 -105 -59 -223 -70 -263 -6 -19 -14 -51 -19 -70 -5 -19 -14 -53 -20 -75 -6 -22 -15 -56 -20 -75 -5 -19 -14 -53 -20 -75 -6 -22 -15 -56 -20 -75 -5 -19 -13 -51 -18 -70 -10 -32 -18 -63 -58 -210 -9 -30 -24 -88 -35 -127 -38 -145 -61 -229 -70 -263 -6 -19 -14 -51 -19 -70 -5 -19 -14 -53 -20 -75 -6 -22 -15 -56 -20 -75 -5 -19 -14 -53 -20 -75 -6 -22 -15 -56 -20 -75 -5 -19 -13 -51 -18 -70 -6 -19 -17 -61 -26 -92 -9 -32 -23 -84 -32 -115 -18 -66 -32 -122 -42 -173 -4 -19 -13 -35 -21 -35 -12 0 -23 25 -51 125 -7 25 -16 56 -20 70 -4 14 -13 45 -20 70 -7 25 -16 56 -20 70 -4 14 -13 45 -20 70 -7 25 -16 56 -20 70 -4 14 -13 45 -20 70 -7 25 -16 56 -20 70 -4 14 -13 45 -20 70 -7 25 -16 56 -20 70 -4 14 -13 43 -18 65 -11 38 -28 98 -71 250 -11 39 -30 104 -41 145 -12 41 -30 104 -40 140 -19 65 -44 151 -81 285 -11 39 -28 99 -39 135 -10 36 -28 99 -40 140 -68 244 -100 344 -114 352 -14 9 -398 9 -413 0 -10 -7 -23 -43 -75 -217 -11 -38 -24 -81 -28 -95 -4 -14 -13 -43 -19 -65 -15 -56 -76 -264 -101 -345 -4 -14 -13 -43 -19 -65 -15 -56 -76 -264 -101 -345 -4 -14 -13 -43 -19 -65 -15 -56 -76 -264 -101 -345 -4 -14 -13 -45 -20 -70 -7 -25 -21 -72 -31 -105 -22 -72 -55 -185 -70 -240 -6 -22 -15 -51 -19 -65 -4 -14 -13 -45 -20 -70 -7 -25 -16 -54 -20 -65 -5 -11 -14 -41 -20 -68 -13 -50 -23 -58 -35 -29 -7 16 -56 203 -75 282 -17 70 -41 166 -49 195 -5 17 -15 55 -21 85 -7 30 -16 66 -21 80 -4 14 -13 50 -20 80 -6 30 -15 66 -19 80 -15 48 -49 181 -70 270 -16 67 -41 165 -49 195 -5 17 -15 55 -21 85 -7 30 -16 66 -20 80 -16 53 -53 198 -71 275 -5 22 -14 58 -20 80 -5 22 -14 56 -19 75 -20 85 -41 167 -49 195 -5 17 -15 55 -21 85 -24 106 -25 108 -88 114 -73 8 -342 4 -348 -6z" fill="#010101" id="010101-000005" mask="url(#mask-1)"/>
    <path stroke="none" d="M15730 2836 c-11 -11 -14 -215 -4 -265 l7 -31 848 0 c467 0 849 -3 849 -6 0 -5 -143 -179 -160 -194 -3 -3 -39 -43 -80 -90 -41 -47 -77 -87 -80 -90 -3 -3 -34 -39 -70 -80 -36 -41 -67 -77 -70 -80 -7 -7 -149 -168 -181 -205 -14 -16 -80 -91 -145 -165 -66 -74 -131 -148 -146 -165 -78 -91 -196 -226 -232 -265 -23 -25 -66 -74 -96 -110 -30 -36 -62 -72 -70 -80 -8 -8 -49 -53 -90 -100 -41 -47 -77 -87 -80 -90 -3 -3 -30 -34 -60 -70 -30 -36 -57 -67 -60 -70 -3 -3 -39 -43 -80 -90 -41 -47 -81 -91 -88 -98 -61 -65 -62 -69 -62 -225 l0 -147 1193 2 1192 3 3 75 c2 41 1 108 -3 148 l-7 72 -950 0 -949 0 19 28 c11 15 62 75 114 133 51 58 118 135 148 170 48 56 136 155 150 169 3 3 34 39 70 80 36 41 67 77 70 80 3 3 39 43 80 90 41 47 77 87 80 90 3 3 30 34 60 70 30 36 57 67 60 70 8 7 235 264 305 345 58 67 144 165 155 175 3 3 30 34 60 70 30 36 57 67 60 70 3 3 39 43 80 90 41 47 77 87 80 90 3 3 34 39 70 80 36 41 84 96 108 121 94 101 92 97 92 250 0 99 -3 140 -12 146 -19 12 -2166 11 -2178 -1z" fill="#010101" id="010101-000008" mask="url(#mask-1)"/>
    <path stroke="none" d="M23864 2835 c-2 -5 -3 -615 -2 -1355 l3 -1345 195 0 195 0 5 575 5 575 540 0 c425 0 553 -3 603 -14 34 -8 65 -18 68 -22 3 -5 14 -9 24 -9 26 0 124 -93 154 -147 64 -114 96 -284 117 -618 11 -189 27 -273 58 -315 l18 -25 217 -3 c154 -2 216 1 216 9 0 6 -8 23 -19 37 -25 37 -75 148 -89 197 -24 87 -52 339 -52 461 0 41 -5 96 -11 122 -5 26 -15 67 -21 92 -45 198 -153 320 -333 381 -52 17 -64 27 -45 39 8 5 23 10 32 10 29 0 121 47 184 93 55 40 154 144 154 162 0 4 8 19 18 33 47 68 81 194 88 322 14 251 -76 451 -263 582 -110 78 -221 120 -418 159 -80 16 -1635 20 -1641 4z" fill="#010101" id="010101-000010" mask="url(#mask-1)"/>
    <path stroke="none" d="M32625 2842 c-35 -2 -42 -7 -54 -35 -14 -34 -29 -70 -55 -129 -9 -21 -23 -54 -31 -73 -8 -19 -22 -51 -30 -70 -8 -19 -21 -50 -29 -67 -8 -18 -26 -59 -40 -91 -14 -32 -26 -60 -26 -62 0 -2 -12 -30 -26 -62 -14 -32 -32 -71 -39 -88 -7 -16 -22 -51 -34 -77 -11 -26 -21 -50 -21 -53 0 -2 -12 -30 -26 -62 -14 -32 -32 -71 -39 -88 -7 -16 -22 -51 -34 -77 -11 -26 -21 -50 -21 -53 0 -2 -11 -28 -24 -57 -39 -87 -61 -138 -106 -243 -23 -55 -53 -124 -66 -153 -13 -29 -24 -55 -24 -57 0 -2 -13 -34 -30 -70 -16 -36 -30 -68 -30 -70 0 -2 -13 -34 -30 -70 -16 -36 -30 -68 -30 -70 0 -2 -11 -28 -24 -57 -21 -48 -66 -151 -101 -233 -7 -16 -19 -46 -28 -65 -8 -19 -29 -69 -47 -110 -18 -41 -39 -91 -47 -110 -9 -19 -21 -48 -28 -65 -7 -16 -22 -50 -33 -75 -27 -60 -52 -122 -52 -126 0 -2 95 -4 210 -4 181 0 210 2 210 15 0 8 4 23 10 33 16 29 70 152 70 161 0 4 6 21 14 37 24 50 54 119 76 175 12 29 32 77 46 107 13 29 24 55 24 57 0 3 10 27 21 53 53 117 59 132 59 142 0 27 55 30 647 30 472 0 613 -3 625 -12 9 -7 87 -190 173 -405 l157 -393 214 0 c118 0 214 3 214 6 0 4 -18 50 -41 103 -71 166 -90 212 -123 284 -14 32 -26 60 -26 62 0 2 -13 34 -30 70 -16 36 -30 68 -30 70 0 2 -11 28 -24 57 -21 46 -52 117 -102 236 -8 17 -20 47 -28 65 -8 17 -28 66 -46 107 -18 41 -38 90 -46 108 -8 17 -20 47 -28 65 -8 17 -28 66 -46 107 -18 41 -38 90 -46 108 -8 17 -20 47 -28 65 -8 17 -26 58 -40 90 -14 32 -26 60 -26 62 0 2 -13 34 -30 70 -16 36 -30 68 -30 70 0 2 -11 28 -24 57 -21 46 -52 117 -102 236 -8 17 -20 47 -28 65 -8 17 -28 66 -46 107 -18 41 -39 91 -47 110 -8 19 -23 53 -33 75 -10 22 -33 76 -51 120 -18 44 -37 84 -41 90 -4 5 -8 17 -8 27 0 10 -10 22 -23 27 -22 8 -301 11 -392 3z" fill="#010101" id="010101-000012" mask="url(#mask-2)"/>
    <path stroke="none" d="M35810 2835 c-7 -8 -9 -446 -8 -1361 l3 -1349 190 0 190 0 0 1078 c0 592 3 1077 7 1077 8 0 33 -31 104 -130 26 -36 64 -87 84 -115 20 -27 65 -90 100 -140 35 -49 80 -112 100 -140 85 -117 128 -177 180 -250 30 -43 75 -106 100 -140 25 -35 65 -91 90 -126 25 -35 59 -81 75 -104 17 -22 86 -119 155 -215 68 -96 127 -177 130 -180 4 -3 26 -34 50 -69 23 -35 49 -71 56 -80 8 -9 29 -37 46 -63 18 -26 91 -128 163 -227 l129 -181 217 0 216 0 7 77 c3 42 6 651 6 1354 0 1276 0 1278 -20 1289 -23 13 -337 9 -357 -3 -10 -7 -13 -239 -13 -1108 0 -873 -3 -1099 -12 -1099 -7 0 -32 28 -55 63 -24 34 -70 100 -103 147 -33 47 -87 123 -120 170 -32 47 -86 123 -120 170 -33 47 -87 123 -120 170 -33 47 -87 123 -120 170 -33 47 -87 123 -120 170 -33 47 -87 123 -120 170 -33 47 -87 123 -120 170 -33 47 -86 122 -117 166 -32 45 -82 117 -112 160 -30 44 -57 81 -61 84 -4 3 -36 47 -71 99 -113 165 -163 236 -191 272 l-27 34 -200 1 c-149 1 -203 -1 -211 -11z" fill="#010101" id="010101-000013" mask="url(#mask-3)"/>
    <path stroke="none" d="M40123 2843 c-10 -4 -13 -285 -13 -1364 l0 -1359 628 0 c644 0 653 0 872 40 107 20 270 78 360 130 25 14 57 32 72 39 15 8 36 21 45 30 10 9 34 28 53 42 105 79 223 226 286 358 63 133 95 230 123 381 32 174 42 471 20 639 -56 432 -242 716 -589 897 -101 53 -289 113 -420 133 -36 6 -98 16 -139 22 -71 11 -1269 22 -1298 12z" fill="#010101" id="010101-000014" mask="url(#mask-3)"/>
    <path stroke="none" d="M9657 2833 c-13 -12 -8 -2701 4 -2709 17 -10 268 -18 332 -10 l57 7 0 1360 0 1359 -193 0 c-107 0 -197 -3 -200 -7z" fill="#010101" id="010101-000006" mask="url(#mask-4)"/>
    <path stroke="none" d="M11680 2690 l0 -150 493 -2 492 -3 3 -1199 c1 -918 5 -1202 14 -1214 10 -12 43 -13 198 -9 102 3 186 6 187 6 2 1 4 544 5 1209 l3 1207 503 3 502 2 0 150 0 150 -1200 0 -1200 0 0 -150z" fill="#010101" id="010101-000007" mask="url(#mask-4)"/>
    <path stroke="none" d="M19780 2835 c0 -3 0 -614 0 -1357 l0 -1353 42 -7 c56 -9 2021 -9 2035 0 10 6 17 142 14 259 l-1 43 -847 2 -848 3 0 465 0 465 783 3 c615 2 782 5 783 15 0 9 0 255 -1 290 0 4 -351 7 -780 7 l-780 0 -5 23 c-3 12 -4 207 -3 432 l3 410 837 3 837 2 3 146 c2 80 1 148 -1 150 -6 6 -2071 5 -2071 -1z" fill="#010101" id="010101-000009" mask="url(#mask-4)"/>
    <path stroke="none" d="M28110 1481 l0 -1359 23 -6 c12 -3 448 -6 968 -6 744 0 949 3 962 13 15 11 17 29 15 152 l-3 140 -785 5 -785 5 -3 1208 -2 1207 -195 0 -195 0 0 -1359z" fill="#010101" id="010101-000011" mask="url(#mask-4)"/>
    <path stroke="none" d="M46469 2823 c-41 -6 -104 -66 -117 -111 -18 -59 -17 -2433 1 -2482 17 -49 27 -63 64 -88 l31 -22 1254 0 1253 0 37 31 c71 58 68 -7 68 1321 0 844 -3 1202 -11 1234 -13 52 -60 98 -116 113 -36 10 -2400 14 -2464 4z" fill="#010101" id="010101-000015" mask="url(#mask-4)"/>
    <path stroke="none" d="M47435 2398 c-3 -7 -6 -152 -7 -323 l-3 -310 -320 -5 -320 -5 -3 -277 -2 -278 322 -2 323 -3 5 -320 5 -320 275 0 275 0 5 320 5 320 320 5 320 5 0 275 0 275 -318 3 c-252 2 -319 5 -323 15 -3 8 -6 153 -7 323 l-2 309 -273 3 c-213 2 -274 0 -277 -10z" fill="#010101" id="010101-000016"/>
  </g>
</svg>
