<?xml version="1.0" standalone="no"?>
<!DOCTYPE svg PUBLIC "-//W3C//DTD SVG 1.1//EN"
 "http://www.w3.org/Graphics/SVG/1.1/DTD/svg11.dtd">
<!-- Created with svg_stack (http://github.com/astraw/svg_stack) -->
<svg xmlns:sodipodi="http://sodipodi.sourceforge.net/DTD/sodipodi-0.dtd" xmlns="http://www.w3.org/2000/svg" version="1.1" width="227.0" height="304.0">
  <defs/>
  <g id="id0:id0" transform="matrix(1.25,0,0,1.25,0.0,0.0)"><g transform="translate(0.000000,243.200000) scale(0.040000,-0.040000)" fill="#ffffff" stroke="none">
<path d="M0 3040 l0 -3040 2270 0 2270 0 0 3040 0 3040 -2270 0 -2270 0 0 -3040z m1409 2864 c25 -14 64 -28 88 -31 52 -7 69 -23 53 -52 -11 -22 -63 -30 -75 -11 -3 6 -22 10 -40 10 -19 0 -50 9 -70 20 -20 11 -45 20 -57 20 -27 0 -49 -29 -38 -51 12 -22 -23 -216 -46 -256 l-18 -31 17 -36 c21 -46 45 -46 75 0 19 29 22 44 17 75 -7 40 10 194 26 237 5 12 16 22 26 21 31 -1 128 -54 131 -71 4 -23 -83 -173 -115 -198 -36 -28 -57 -135 -29 -146 23 -9 106 79 107 113 0 34 67 162 92 177 15 9 24 4 55 -32 20 -23 43 -42 50 -42 25 0 11 37 -33 87 -48 55 -52 65 -32 81 10 9 23 2 54 -31 23 -23 50 -60 62 -81 l20 -40 -63 -61 c-63 -59 -101 -84 -160 -101 -19 -6 -32 -19 -40 -41 -6 -17 -33 -50 -61 -72 -48 -40 -73 -49 -89 -33 -4 4 -18 7 -29 7 -17 0 -23 7 -25 33 -4 39 -28 43 -42 6 -6 -14 -14 -22 -20 -19 -17 10 -30 81 -24 126 5 35 1 52 -15 80 -12 20 -26 65 -31 100 -5 35 -10 72 -12 83 -3 20 7 28 65 52 31 12 36 18 27 29 -8 10 -19 11 -43 4 -54 -15 -67 -11 -83 26 -8 19 -14 38 -14 42 0 5 22 7 49 5 38 -3 61 3 107 26 l58 30 40 -14 c22 -8 60 -26 85 -40z m-375 -56 c19 -61 17 -67 -25 -90 -23 -13 -51 -28 -63 -35 -11 -7 -25 -8 -29 -4 -15 15 3 51 45 97 41 44 65 55 72 32z m28 -158 c2 -20 -2 -26 -19 -28 -23 -3 -35 -29 -30 -67 1 -14 -4 -20 -18 -20 -14 0 -24 11 -33 39 -12 36 -11 41 10 63 26 28 70 52 80 44 3 -3 8 -17 10 -31z m-230 -102 c-40 -64 -82 -85 -82 -42 0 18 27 73 48 97 l16 18 19 -20 20 -19 -21 -34z m992 -40 c35 -41 54 -94 43 -123 -10 -23 -55 -30 -77 -10 -17 16 -19 15 -32 -10 -16 -33 -72 -55 -140 -55 -38 0 -52 -5 -77 -31 -36 -36 -65 -35 -69 3 -3 28 27 58 60 58 10 0 25 12 35 28 26 43 65 82 97 99 l30 16 23 -29 c13 -16 23 -32 23 -36 0 -5 5 -8 10 -8 15 0 12 35 -7 74 -13 29 -14 38 -3 51 21 25 47 17 84 -27z m-880 -77 c8 -20 17 -48 20 -63 4 -17 18 -34 35 -43 38 -19 75 -65 62 -78 -6 -6 -18 -3 -32 7 -26 18 -89 94 -89 107 0 5 -8 9 -17 9 -10 0 -29 9 -42 19 -20 15 -24 27 -23 61 1 24 7 49 14 58 10 12 15 10 34 -14 13 -15 29 -44 38 -63z m-223 -27 c15 -14 16 -18 1 -47 -24 -51 -33 -59 -48 -46 -18 15 -18 43 1 79 18 34 22 36 46 14z m116 -81 c19 -15 39 -37 44 -50 5 -15 29 -32 64 -48 32 -14 54 -29 50 -35 -10 -17 -55 -11 -82 10 -14 11 -40 20 -57 20 -61 0 -97 50 -76 104 12 32 13 32 57 -1z m1050 -77 c16 -34 13 -66 -6 -66 -15 0 -44 67 -37 85 9 24 25 17 43 -19z m-63 -18 c21 -30 20 -71 -3 -92 -11 -10 -46 -20 -90 -25 -52 -5 -77 -13 -94 -29 -13 -13 -47 -31 -74 -42 l-51 -19 -17 20 c-15 15 -16 24 -8 42 11 24 96 72 145 82 15 3 35 14 45 24 27 29 85 61 110 61 12 0 29 -10 37 -22z m-529 -88 c8 -16 29 -37 46 -45 38 -20 35 -45 -7 -65 -17 -8 -42 -30 -54 -49 l-22 -34 -52 58 c-28 32 -51 64 -51 69 0 6 12 17 28 24 15 7 37 26 49 43 28 37 43 37 63 -1z m-657 -5 c17 -14 40 -25 53 -25 28 0 67 -24 103 -63 19 -21 34 -27 65 -27 51 0 151 -43 151 -65 0 -32 -19 -53 -42 -48 -78 18 -100 26 -128 50 -23 19 -44 26 -78 27 -58 2 -102 29 -102 62 0 29 -25 32 -52 7 -41 -37 -69 29 -37 88 13 26 32 24 67 -6z m1295 -94 c14 -29 13 -41 -5 -41 -11 0 -30 49 -22 61 8 14 11 11 27 -20z m-111 -36 c9 -21 8 -28 -7 -45 -14 -16 -26 -19 -56 -14 -29 5 -50 0 -90 -20 -29 -14 -63 -26 -74 -26 -25 0 -59 33 -53 51 6 19 89 48 139 48 29 1 51 7 59 16 21 25 69 19 82 -10z m-1248 -83 c-1 -6 -2 -28 -2 -47 -2 -41 -21 -53 -57 -37 -22 10 -24 14 -14 39 6 15 18 36 27 46 17 19 48 19 46 -1z m175 -36 c7 -8 38 -15 79 -18 85 -5 127 -24 127 -58 0 -23 -4 -25 -49 -28 -38 -2 -56 2 -77 17 -16 12 -32 21 -37 21 -18 0 -93 61 -87 70 9 14 31 12 44 -4z m442 -38 c6 -13 27 -38 46 -56 40 -37 39 -51 -4 -72 -17 -8 -39 -27 -48 -42 -21 -36 -43 -35 -56 1 -6 17 -26 39 -46 51 -39 23 -39 37 -1 60 15 8 38 30 53 48 32 38 40 40 56 10z m809 -59 c0 -10 -5 -21 -10 -24 -13 -8 -33 44 -25 64 6 14 8 13 21 -3 8 -11 14 -28 14 -37z m-128 14 c22 -26 27 -45 16 -67 -9 -16 -18 -18 -72 -12 -47 5 -67 3 -81 -9 -21 -15 -57 -20 -68 -9 -14 14 15 43 60 60 27 10 59 26 72 36 30 23 54 23 73 1z m-1342 -108 c25 -18 37 -22 46 -14 19 15 74 1 108 -28 26 -22 36 -24 78 -19 32 5 64 1 100 -10 65 -21 75 -29 58 -49 -16 -19 -72 -19 -125 0 -22 8 -72 14 -112 15 -62 0 -76 3 -102 26 l-31 26 -26 -17 c-40 -26 -58 -13 -50 37 6 37 13 58 20 58 1 0 17 -11 36 -25z m1410 -100 c0 -17 -5 -36 -12 -43 -17 -17 -85 -15 -114 5 -23 15 -28 15 -60 0 -47 -23 -132 -23 -141 0 -4 11 3 24 21 40 24 21 37 23 96 21 41 -1 74 3 82 10 8 6 32 15 54 20 49 11 74 -7 74 -53z m-521 20 c11 -20 29 -38 38 -42 49 -17 48 -55 -2 -67 -13 -3 -32 -20 -40 -36 -9 -17 -21 -30 -28 -30 -18 0 -37 21 -37 41 0 9 -16 27 -36 38 -40 24 -40 40 -1 59 14 7 36 26 47 42 12 17 25 30 30 30 4 0 17 -16 29 -35z m601 -5 c0 -10 -5 -22 -10 -25 -13 -8 -24 20 -16 41 8 20 26 9 26 -16z m-1515 -150 l0 -55 -30 0 -30 0 2 43 c2 48 18 74 42 70 12 -3 16 -16 16 -58z m164 19 c55 -24 44 -42 -26 -43 -49 -1 -63 13 -49 50 7 19 22 18 75 -7z m233 -17 c9 -9 6 -17 -8 -33 -15 -17 -27 -20 -57 -16 -21 3 -48 13 -58 23 l-20 18 18 14 c21 16 108 11 125 -6z m246 -15 c7 -15 29 -39 48 -53 32 -25 33 -28 19 -45 -9 -9 -26 -20 -38 -23 -13 -3 -27 -18 -34 -37 -15 -38 -32 -34 -55 11 -10 18 -31 39 -48 46 -40 17 -38 42 5 60 20 8 39 22 42 32 17 48 40 52 61 9z m721 -51 c17 -20 10 -66 -11 -79 -11 -8 -28 -7 -57 3 -33 11 -48 11 -78 1 -21 -7 -65 -11 -98 -9 -52 3 -60 6 -63 24 -6 42 29 57 137 58 55 1 103 5 107 9 12 12 51 8 63 -7z m-447 -184 l33 -33 -25 -20 c-14 -11 -39 -33 -56 -49 -40 -38 -52 -38 -69 4 -8 19 -27 41 -42 48 -32 16 -35 47 -7 63 10 6 34 25 53 42 l36 33 22 -28 c12 -15 37 -42 55 -60z m-924 22 c4 -52 -22 -80 -44 -49 -15 20 -19 77 -7 89 4 4 16 6 28 4 16 -2 21 -12 23 -44z m160 20 c12 -8 20 -20 17 -25 -10 -15 -51 -10 -68 9 -30 32 10 45 51 16z m246 -16 c17 -28 -5 -52 -48 -56 -43 -4 -89 21 -84 46 6 33 112 41 132 10z m802 -10 c26 -9 41 -9 73 2 37 12 43 11 61 -5 25 -23 25 -33 -2 -62 -25 -27 -45 -29 -73 -7 -15 12 -37 14 -95 9 -121 -9 -177 16 -140 60 15 19 129 20 176 3z m1330 -59 c10 -17 -13 -36 -27 -22 -12 12 -4 33 11 33 5 0 12 -5 16 -11z m538 -53 c48 -28 76 -70 59 -87 -12 -12 -55 15 -115 69 -50 45 -11 57 56 18z m-2654 -21 c17 -21 -23 -46 -84 -52 -46 -5 -57 -3 -62 11 -9 23 9 39 59 51 47 12 71 9 87 -10z m2441 1 c19 -8 37 -17 40 -20 10 -11 -20 -134 -45 -180 -21 -39 -23 -50 -13 -75 12 -34 -4 -86 -25 -79 -17 6 -29 68 -17 90 14 26 11 54 -11 91 -11 18 -23 60 -26 93 -7 63 0 77 41 87 11 2 21 5 21 6 1 0 17 -5 35 -13z m-446 -6 c8 -13 -74 -112 -89 -107 -25 8 -18 49 15 83 33 34 62 43 74 24z m268 -8 c23 -25 43 -145 30 -175 -9 -19 -8 -30 6 -53 20 -33 33 -111 21 -119 -14 -8 -58 77 -58 110 0 20 -8 37 -29 55 -37 31 -106 148 -99 167 13 33 103 44 129 15z m357 -71 l54 -48 -39 -57 c-22 -32 -52 -67 -67 -77 -18 -13 -30 -33 -34 -57 -7 -43 -63 -137 -75 -125 -16 17 10 117 42 161 28 39 30 47 20 65 -24 37 6 187 37 187 5 0 33 -22 62 -49z m-506 -46 c18 -28 36 -68 40 -90 5 -28 18 -49 41 -68 39 -32 88 -114 74 -123 -6 -3 -18 1 -27 9 -9 8 -31 22 -48 30 -21 11 -34 27 -42 55 -11 37 -42 62 -75 62 -16 0 -117 88 -117 102 0 15 49 71 74 85 26 14 37 6 80 -62z m-1402 48 c44 -16 49 -16 87 2 67 30 88 8 51 -52 -22 -37 -44 -41 -79 -16 -21 14 -30 14 -72 4 -53 -14 -132 -6 -149 14 -17 20 5 53 37 58 57 8 79 7 125 -10z m-394 -35 c2 -14 14 -36 27 -48 l25 -23 -36 -35 c-30 -29 -39 -33 -53 -23 -9 6 -31 21 -48 32 -18 12 -33 25 -33 29 0 4 16 17 35 29 19 11 35 26 35 34 0 17 21 38 35 34 5 -2 11 -15 13 -29z m2500 -20 c41 -61 45 -78 26 -99 -10 -11 -21 -19 -25 -19 -11 0 -79 107 -79 123 0 17 20 37 37 37 6 0 25 -19 41 -42z m-67 -104 l31 -46 -41 -39 c-22 -21 -49 -39 -60 -39 -11 0 -52 -32 -96 -77 -52 -52 -79 -73 -86 -66 -15 15 53 118 88 135 20 9 31 25 38 53 17 66 67 141 86 129 5 -3 23 -25 40 -50z m-2701 10 c0 -8 -12 -19 -26 -24 -31 -12 -101 -13 -108 -1 -9 14 27 40 70 49 41 9 64 0 64 -24z m1800 -5 c-6 -11 -15 -17 -21 -14 -5 4 -5 14 1 26 6 11 15 17 21 14 5 -4 5 -14 -1 -26z m-1261 -5 c13 -11 13 -14 -1 -19 -17 -7 -68 10 -68 23 0 26 41 23 69 -4z m1434 -54 c21 -22 37 -44 37 -48 0 -4 17 -14 38 -21 44 -16 135 -89 126 -102 -15 -25 -98 6 -162 62 -24 22 -43 29 -73 29 -35 0 -119 32 -119 46 0 13 33 80 47 96 l16 17 27 -19 c15 -10 43 -37 63 -60z m-1267 29 c10 -17 -13 -36 -27 -22 -12 12 -4 33 11 33 5 0 12 -5 16 -11z m-1087 -66 c10 -35 -7 -60 -33 -50 -21 8 -32 73 -15 93 16 19 35 2 48 -43z m3248 10 c8 -21 20 -48 26 -61 8 -18 7 -26 -5 -39 -25 -24 -41 -11 -67 52 l-24 58 18 13 c28 21 34 18 52 -23z m-2833 -32 c3 -5 -1 -14 -9 -21 -12 -10 -18 -10 -30 0 -18 15 -11 30 15 30 10 0 21 -4 24 -9z m2734 -28 c10 -16 22 -40 26 -55 6 -25 2 -29 -30 -43 -20 -8 -53 -15 -73 -15 -23 0 -51 -11 -80 -30 -46 -31 -108 -53 -123 -44 -12 8 38 61 74 80 15 8 36 14 47 14 12 0 31 16 48 42 22 32 60 65 90 77 1 1 10 -11 21 -26z m-888 -128 c13 -14 48 -32 76 -41 64 -18 78 -33 65 -67 -12 -32 -35 -27 -89 19 -26 22 -51 34 -70 34 -16 0 -37 9 -47 20 l-18 20 18 20 c24 26 37 25 65 -5z m486 -85 c6 0 18 -7 25 -16 12 -14 10 -20 -17 -43 -16 -14 -35 -38 -42 -53 -14 -35 -35 -36 -56 -3 -9 13 -30 32 -46 40 -17 9 -30 20 -30 26 0 6 21 35 48 65 l47 55 30 -35 c17 -20 35 -36 41 -36z m598 -2 c12 -34 -9 -67 -30 -46 -11 11 -18 47 -15 71 2 19 36 0 45 -25z m-1288 -41 c-8 -51 -20 -65 -41 -47 -17 14 -20 62 -5 91 9 16 14 17 32 8 17 -9 19 -17 14 -52z m1193 -2 c15 -54 0 -66 -88 -74 -42 -4 -77 -13 -88 -23 -10 -9 -37 -21 -61 -28 -24 -6 -50 -14 -58 -17 -18 -7 -36 37 -22 54 22 28 95 60 126 55 24 -3 37 2 59 24 15 16 30 29 33 30 11 2 46 16 60 24 20 10 26 3 39 -45z m-1050 -3 c45 -32 66 -42 93 -42 29 0 112 -33 122 -48 3 -5 -6 -19 -19 -32 -29 -27 -80 -23 -122 9 -18 15 -41 21 -77 22 -86 2 -101 10 -100 52 2 68 41 82 103 39z m1215 -104 c32 -45 10 -118 -36 -118 -30 0 -60 98 -38 125 18 22 57 18 74 -7z m-120 -70 c1 -37 -2 -44 -28 -56 -23 -11 -36 -12 -67 -3 -33 10 -43 9 -78 -9 -22 -12 -65 -24 -95 -27 -52 -5 -56 -4 -65 18 -5 15 -5 29 2 37 19 24 78 42 135 42 39 0 61 5 75 17 23 21 98 42 111 31 5 -4 10 -26 10 -50z m-1282 -28 c-2 -13 -8 -35 -13 -48 -8 -20 -12 -22 -24 -12 -18 15 -20 61 -3 78 20 20 43 10 40 -18z m788 -7 c11 -15 34 -35 50 -45 37 -22 38 -45 5 -60 -14 -6 -34 -27 -46 -47 l-21 -36 -27 30 c-14 17 -38 39 -53 48 -33 20 -36 42 -9 56 10 6 28 26 40 46 24 42 33 43 61 8z m-654 -10 c21 -14 66 -32 99 -39 112 -24 128 -29 139 -47 8 -12 8 -22 0 -34 -16 -25 -96 -19 -148 12 -33 19 -51 22 -92 18 -72 -7 -98 8 -91 54 7 38 23 63 42 63 7 0 30 -12 51 -27z m1302 -125 c17 -17 15 -83 -3 -98 -29 -24 -49 -8 -57 44 -4 28 -5 53 -2 58 8 12 48 10 62 -4z m-120 -20 c17 -17 15 -83 -3 -98 -11 -9 -33 -11 -73 -6 -40 5 -69 2 -93 -7 -19 -8 -57 -17 -86 -20 -58 -7 -77 6 -71 45 5 34 52 52 135 53 39 1 77 6 85 12 10 9 63 28 89 32 3 1 10 -4 17 -11z m-1207 -18 c33 -18 39 -25 33 -43 -5 -20 -5 -20 7 -5 19 22 103 30 159 15 42 -11 45 -14 45 -47 0 -33 -2 -35 -35 -38 -19 -2 -62 4 -95 13 -36 9 -88 15 -130 13 l-70 -3 -3 38 c-2 26 2 45 14 58 21 24 26 24 75 -1z m518 -90 l24 -12 -37 -34 c-20 -18 -36 -40 -36 -49 0 -30 -29 -27 -62 7 -18 18 -42 38 -53 44 -18 10 -16 14 30 67 l50 57 30 -34 c17 -18 41 -39 54 -46z m826 -65 c32 -31 29 -84 -6 -102 -15 -8 -27 -9 -35 -2 -18 15 -28 97 -13 115 16 20 26 18 54 -11z m-117 3 c17 -17 15 -83 -2 -97 -11 -10 -30 -9 -82 5 -52 13 -72 14 -86 5 -24 -15 -131 -14 -146 1 -21 21 -14 48 16 59 15 6 34 15 43 19 9 5 35 2 62 -7 43 -14 50 -14 104 6 69 24 75 25 91 9z m-494 -63 c15 -19 33 -35 40 -35 8 0 19 -6 25 -14 9 -11 6 -19 -16 -37 -15 -13 -36 -36 -46 -51 -21 -33 -41 -35 -61 -7 -8 12 -29 30 -46 40 -37 23 -36 48 3 67 15 7 27 21 27 31 0 20 18 41 36 41 6 0 24 -16 38 -35z m-714 -20 c17 -9 58 -13 117 -12 75 1 96 -2 111 -17 25 -22 33 -52 18 -64 -22 -18 -108 -21 -143 -4 -28 13 -41 14 -78 4 -51 -13 -104 -7 -122 16 -14 17 -18 84 -6 96 10 9 70 -2 103 -19z m-790 -1 c8 -8 16 -35 20 -59 9 -57 -4 -69 -90 -84 -48 -9 -73 -9 -94 -1 -21 8 -37 7 -62 -2 -26 -9 -37 -9 -46 0 -16 16 17 52 48 52 12 0 31 11 41 25 10 13 50 38 88 54 84 35 80 35 95 15z m1340 -196 l25 -17 -35 -30 -35 -30 -27 26 c-15 14 -25 29 -23 33 2 3 -3 19 -11 35 -13 25 -13 30 3 47 l17 19 30 -33 c17 -18 42 -41 56 -50z m502 29 c21 -9 35 -7 66 7 21 10 52 16 68 14 26 -3 29 -7 32 -44 5 -63 -15 -74 -89 -47 -48 18 -65 20 -90 11 -36 -12 -124 -4 -146 13 -7 7 -13 22 -11 33 3 18 12 22 58 27 56 6 65 5 112 -14z m-774 -14 c18 -26 10 -36 -44 -57 -41 -15 -57 -16 -94 -7 -28 6 -64 7 -95 2 -27 -5 -53 -7 -57 -4 -14 8 -9 73 6 79 8 3 30 1 50 -4 26 -8 47 -6 78 4 55 18 138 11 156 -13z m1050 -4 c3 -29 -20 -65 -36 -55 -15 9 -15 27 -2 61 12 32 34 28 38 -6z m-2069 -11 c13 -38 20 -97 11 -103 -4 -2 -14 2 -21 11 -37 45 -111 56 -152 24 -31 -25 -44 -25 -56 -1 -15 27 15 50 91 72 88 25 117 24 127 -3z m1137 -33 c-5 -14 -9 -15 -21 -5 -12 10 -13 16 -4 27 15 18 34 1 25 -22z m-1984 -21 c-6 -38 -12 -44 -40 -44 -36 0 -59 22 -39 38 18 15 60 31 72 28 6 -2 9 -12 7 -22z m523 -22 c3 -40 -17 -52 -45 -27 -25 22 -25 41 -2 54 28 17 44 8 47 -27z m1554 -38 c-6 -7 -15 -11 -21 -8 -5 3 -4 12 3 20 6 7 15 11 21 8 5 -3 4 -12 -3 -20z m536 -1 c25 -12 42 -13 79 -5 26 5 59 7 74 3 23 -7 27 -13 26 -44 -1 -39 -18 -67 -40 -67 -8 0 -33 9 -57 19 -25 11 -77 21 -127 25 -65 4 -89 10 -104 25 -17 17 -18 24 -8 47 l13 26 56 -7 c31 -4 71 -14 88 -22z m-2537 -35 c34 -34 -8 -71 -95 -85 -67 -11 -46 62 25 84 49 15 56 15 70 1z m1587 -68 c0 -25 -3 -51 -8 -57 -15 -20 -44 -15 -61 9 -15 21 -22 89 -11 100 3 3 22 2 43 -1 l37 -6 0 -45z m230 39 c23 -36 -35 -90 -75 -69 -19 10 -35 54 -25 70 8 13 92 13 100 -1z m-1542 -28 c48 -10 43 -37 -6 -33 -37 4 -39 2 -32 -20 12 -38 11 -43 -9 -43 -17 0 -20 8 -21 55 -2 64 2 75 21 59 8 -6 29 -15 47 -18z m1407 -45 c-22 -22 -58 18 -45 52 6 15 10 13 30 -13 15 -18 21 -33 15 -39z m450 39 c14 -17 5 -35 -19 -35 -26 0 -44 23 -29 38 16 16 33 15 48 -3z m-1325 -35 c21 -40 19 -52 -12 -83 -34 -32 -100 -37 -155 -13 -21 9 -58 16 -83 16 -50 0 -69 20 -43 46 11 11 23 12 63 3 97 -21 106 -21 133 -10 15 6 35 25 44 41 21 38 33 38 53 0z m-120 11 c3 -5 1 -13 -5 -16 -15 -9 -43 3 -35 15 8 13 32 13 40 1z m-528 -17 c9 -23 -11 -38 -26 -20 -13 16 -7 36 10 36 5 0 12 -7 16 -16z m2053 -39 c0 -8 -13 -21 -28 -30 -15 -9 -35 -30 -44 -46 -20 -34 -42 -30 -64 12 -8 16 -23 29 -33 29 -29 0 -45 25 -26 40 12 10 21 10 41 1 36 -16 109 -14 124 4 14 17 30 11 30 -10z m250 -23 c30 -9 83 -16 116 -17 78 -1 97 -15 88 -64 -4 -20 -11 -42 -17 -49 -15 -18 -58 -9 -105 23 -28 19 -49 25 -90 25 -60 0 -132 31 -132 57 0 9 7 25 16 35 18 19 28 18 124 -10z m-572 -4 c41 -41 -25 -84 -115 -75 -47 5 -64 2 -104 -19 -74 -37 -99 -31 -113 28 -5 21 -2 30 13 38 25 13 72 13 107 0 21 -8 32 -7 53 7 42 27 139 41 159 21z m-1851 -50 c6 -7 13 -26 17 -41 6 -25 3 -29 -36 -47 -45 -20 -113 -26 -122 -11 -7 10 58 82 89 99 26 15 40 15 52 0z m1457 -19 c-3 -5 -10 -7 -15 -3 -5 3 -7 10 -3 15 3 5 10 7 15 3 5 -3 7 -10 3 -15z m1270 -27 c-1 -48 -23 -78 -49 -68 -14 5 -15 14 -10 49 8 49 22 69 44 65 12 -3 16 -15 15 -46z m-1933 -26 c9 -19 7 -29 -7 -52 -39 -63 -55 -75 -93 -68 -20 4 -47 17 -61 30 -14 13 -41 27 -60 30 -54 10 -92 33 -88 52 3 12 12 16 28 14 14 -2 43 -5 65 -8 27 -4 46 0 60 10 13 10 42 15 83 16 56 0 64 -2 73 -24z m1538 12 c20 -6 53 -24 73 -40 24 -18 49 -28 71 -28 34 0 95 -16 110 -29 4 -4 2 -23 -4 -42 -6 -19 -13 -40 -15 -47 -5 -17 -71 11 -102 43 -12 14 -35 27 -50 30 -133 28 -191 72 -150 113 15 15 23 15 67 0z m-2291 -102 c7 -32 -92 -114 -123 -102 -36 14 -6 74 53 106 43 23 65 22 70 -4z m2636 -39 c8 -12 5 -21 -8 -36 -34 -37 -55 -17 -36 33 11 29 27 30 44 3z m-2138 -109 c40 -24 36 -38 -11 -38 -36 0 -100 44 -89 61 8 13 59 2 100 -23z m-448 -83 c-28 -40 -48 -50 -48 -25 0 15 61 80 71 75 4 -3 -6 -26 -23 -50z m343 -32 c5 -13 4 -25 -1 -28 -13 -8 -52 33 -44 46 10 16 36 6 45 -18z m-244 1 c7 -20 -14 -67 -27 -59 -11 7 -14 58 -3 68 11 12 23 8 30 -9z m99 -12 c-3 -3 -1 -11 5 -18 6 -7 8 -18 4 -24 -9 -14 -28 -1 -21 16 3 7 1 16 -5 19 -5 4 -7 11 -3 16 3 5 10 7 15 3 6 -3 8 -9 5 -12z m1176 -533 c29 -11 63 -31 76 -45 18 -19 33 -24 70 -24 81 -1 150 -49 126 -87 -15 -24 -73 -19 -128 9 -29 15 -62 22 -111 23 -38 1 -88 7 -110 14 -22 7 -45 14 -52 16 -15 5 2 72 25 98 20 22 40 22 104 -4z m-15 -175 c15 -3 39 -14 54 -25 21 -15 37 -18 72 -13 25 4 54 3 64 -1 10 -4 26 -8 37 -9 32 -2 43 -31 22 -55 -24 -26 -51 -26 -123 -1 -53 19 -94 18 -118 -1 -6 -4 -35 -4 -65 -1 l-55 7 3 45 c4 51 23 72 59 65 12 -3 35 -8 50 -11z m766 -19 c27 -11 43 -12 62 -5 33 13 192 13 200 1 8 -14 -5 -88 -19 -107 -11 -15 -20 -15 -87 -4 -40 7 -84 20 -97 28 -16 11 -50 16 -106 17 -97 1 -107 6 -97 43 6 21 15 28 42 33 56 10 65 10 102 -6z m-313 -147 c0 -11 14 -33 31 -49 25 -23 28 -32 20 -47 -6 -11 -21 -22 -34 -26 -13 -3 -36 -17 -52 -32 l-29 -27 -18 23 c-10 12 -18 29 -18 38 0 9 -12 26 -27 38 -31 25 -26 50 12 60 14 3 39 20 56 36 24 25 32 28 44 18 8 -7 15 -21 15 -32z m286 9 c18 -9 52 -16 76 -15 80 1 148 -13 158 -32 15 -29 12 -76 -8 -100 l-17 -21 -60 22 c-33 12 -75 35 -93 50 -25 22 -42 28 -71 27 -45 -1 -114 31 -119 56 -9 45 61 51 134 13z m-743 -85 c9 -8 40 -11 84 -10 48 2 75 -1 87 -11 22 -18 3 -41 -35 -41 -15 0 -31 -5 -35 -11 -3 -6 -17 -9 -31 -6 -14 2 -59 1 -101 -4 -42 -5 -80 -5 -85 0 -11 11 -29 90 -23 100 7 11 122 -3 139 -17z m743 -171 c69 -34 133 -81 109 -81 -4 0 -2 -6 4 -14 34 -41 -71 -11 -107 30 -19 21 -33 27 -71 28 -31 1 -58 10 -80 25 -33 24 -32 35 4 44 43 10 64 6 141 -32z m-771 4 c50 -13 59 -13 90 2 28 13 39 14 61 4 21 -9 24 -14 14 -26 -6 -8 -9 -18 -6 -23 12 -20 -24 -35 -70 -29 -37 4 -50 1 -73 -19 -42 -35 -78 -46 -101 -32 -16 10 -22 9 -33 -6 -10 -13 -16 -15 -21 -8 -4 7 -4 17 -1 22 4 6 0 22 -9 35 -29 44 7 93 71 94 12 1 47 -6 78 -14z m209 -36 c-3 -5 -10 -7 -15 -3 -5 3 -7 10 -3 15 3 5 10 7 15 3 5 -3 7 -10 3 -15z m11 -168 c9 -16 -65 -68 -106 -75 -31 -5 -44 -14 -60 -40 -11 -19 -38 -46 -60 -62 l-41 -28 -24 27 c-28 33 -29 40 -9 57 18 15 20 31 4 27 -6 -1 -14 4 -16 11 -8 21 72 50 123 44 36 -4 49 -1 67 15 12 11 29 23 37 26 25 9 78 8 85 -2z m569 -31 c28 -10 35 -40 13 -59 -10 -8 -20 -4 -41 18 -40 41 -25 62 28 41z m-529 -49 c3 -5 -4 -28 -16 -51 -22 -41 -64 -69 -81 -52 -12 12 18 67 50 91 31 23 38 25 47 12z m291 -31 c5 0 32 -18 59 -41 27 -22 57 -45 67 -50 42 -22 7 -132 -36 -116 -22 9 -45 49 -50 85 -2 21 -18 46 -50 76 -25 25 -46 49 -46 54 0 18 14 21 30 7 9 -8 21 -15 26 -15z m-76 -52 c13 -22 18 -42 14 -60 -4 -21 2 -35 29 -65 19 -21 37 -50 41 -66 5 -23 2 -30 -26 -47 -39 -23 -91 -26 -108 -5 -8 10 -10 32 -6 67 8 70 8 96 0 140 -12 72 21 93 56 36z m-126 -11 c7 -19 5 -36 -8 -64 -13 -30 -15 -45 -7 -67 16 -39 14 -53 -9 -76 -24 -24 -40 -18 -40 12 0 11 -7 26 -16 32 -15 11 -14 15 5 47 12 19 21 51 21 72 0 72 35 100 54 44z m-205 -52 c2 -11 10 -25 19 -31 14 -10 13 -15 -4 -45 -36 -62 -114 -44 -114 26 0 58 88 103 99 50z"/>
<path d="M3504 3985 c-15 -20 -24 -38 -21 -41 6 -6 66 56 67 69 0 17 -21 4 -46 -28z"/>
<path d="M2657 693 c-4 -3 -7 -11 -7 -17 0 -6 5 -5 12 2 6 6 9 14 7 17 -3 3 -9 2 -12 -2z"/>
<path d="M2778 263 c-16 -2 -28 -9 -28 -14 0 -13 21 -11 50 6 26 15 25 15 -22 8z"/>
</g>
</g>
  <g id="id1:id1" transform="matrix(1.25,0,0,1.25,0.0,0.0)"><g transform="translate(0.000000,243.200000) scale(0.040000,-0.040000)" fill="#000001" stroke="none">
<path d="M1215 5949 c-44 -26 -57 -29 -103 -25 -44 4 -56 1 -70 -15 -9 -10 -22 -19 -28 -19 -17 0 -154 -152 -154 -170 1 -21 25 -50 42 -50 21 0 29 -11 18 -25 -13 -16 61 -145 93 -161 12 -7 28 -23 34 -36 6 -13 17 -36 25 -53 27 -60 63 -115 76 -115 16 0 15 12 -2 35 -14 20 -8 64 9 65 6 0 14 -12 19 -27 13 -41 26 -55 41 -43 8 6 32 6 73 -1 l61 -11 45 31 c56 39 70 24 17 -19 -50 -39 -46 -65 8 -56 67 11 110 27 138 50 20 16 45 25 84 28 30 2 75 14 100 26 25 12 59 22 75 22 16 0 40 7 53 16 20 15 23 23 19 66 -4 38 -13 58 -45 96 -25 30 -51 49 -69 52 -21 4 -28 11 -26 23 6 35 -109 187 -142 187 -9 0 -21 12 -27 27 -13 34 -26 43 -65 43 -17 0 -66 18 -110 39 -110 55 -128 57 -189 20z m109 -118 c3 -5 -1 -14 -8 -20 -16 -13 -32 2 -21 19 8 12 22 13 29 1z m-221 -38 c4 -3 2 -12 -5 -20 -9 -11 -9 -23 1 -50 9 -25 10 -38 2 -46 -7 -7 -12 -5 -16 9 -3 10 -12 31 -20 46 -11 22 -11 29 2 47 15 22 25 26 36 14z m211 -24 c-3 -5 -10 -7 -15 -3 -5 3 -7 10 -3 15 3 5 10 7 15 3 5 -3 7 -10 3 -15z m241 -19 c0 -27 -22 -39 -31 -16 -8 22 3 49 19 43 6 -2 12 -14 12 -27z m-250 -40 c-5 -8 -11 -8 -17 -2 -6 6 -7 16 -3 22 5 8 11 8 17 2 6 -6 7 -16 3 -22z m-185 -98 c0 -10 9 -36 20 -57 15 -29 19 -50 14 -77 -7 -47 -18 -54 -36 -25 -15 23 -32 169 -21 180 9 10 23 -3 23 -21z m175 -57 c4 -23 0 -38 -19 -60 l-24 -30 -11 28 c-9 23 -7 35 10 69 22 44 35 42 44 -7z m155 5 c-5 -10 -10 -30 -10 -43 0 -26 -43 -63 -60 -52 -20 12 -9 44 28 83 37 40 61 47 42 12z m258 -6 c-24 -24 -44 -7 -22 17 12 13 21 16 28 9 7 -7 5 -15 -6 -26z m-151 -110 c7 -20 -15 -43 -47 -46 -29 -3 -34 18 -12 45 19 21 51 22 59 1z"/>
<path d="M792 5664 c-13 -9 -34 -39 -48 -67 -21 -44 -23 -56 -13 -74 15 -27 45 -39 63 -24 17 14 29 2 14 -16 -14 -18 28 -64 94 -102 45 -26 105 -96 90 -104 -20 -11 -75 17 -93 48 -25 41 -80 85 -109 85 -12 0 -25 10 -31 23 -13 29 -45 50 -67 42 -44 -13 -79 -138 -48 -164 24 -20 62 1 81 44 17 42 40 40 24 -3 -5 -15 -15 -37 -21 -49 -6 -13 -9 -24 -7 -25 43 -26 84 -41 126 -45 33 -4 59 -13 69 -24 10 -11 26 -19 37 -19 11 0 35 -9 53 -21 40 -25 77 -22 82 6 2 11 11 28 20 37 14 16 13 22 -4 60 -10 23 -42 65 -69 93 -31 30 -56 66 -63 90 -15 48 -77 136 -95 132 -7 -1 -11 7 -9 20 3 25 -24 73 -42 73 -6 0 -22 -7 -34 -16z m262 -435 c-3 -5 -10 -7 -15 -3 -5 3 -7 10 -3 15 3 5 10 7 15 3 5 -3 7 -10 3 -15z"/>
<path d="M1835 5330 c-3 -5 -15 -10 -26 -10 -26 0 -109 -43 -133 -69 -10 -11 -43 -27 -73 -36 -111 -33 -160 -84 -134 -141 8 -17 19 -24 40 -24 35 0 47 -13 26 -30 -19 -15 -19 -60 -2 -84 12 -16 22 -18 68 -12 31 4 73 18 94 30 31 19 44 22 65 14 30 -11 94 6 126 34 11 10 23 15 26 12 10 -10 46 6 52 23 6 15 -27 98 -44 108 -15 9 -40 -7 -40 -25 0 -25 -15 -33 -30 -16 -10 13 -17 13 -53 0 -23 -8 -52 -21 -64 -29 -12 -8 -38 -15 -57 -15 -19 0 -47 -5 -62 -10 -18 -7 -31 -7 -37 -1 -6 6 7 17 36 31 25 12 51 28 58 36 7 8 30 14 55 14 49 0 90 14 119 39 11 10 32 21 48 25 22 5 27 12 27 37 0 43 -36 109 -60 109 -10 0 -22 -4 -25 -10z"/>
<path d="M1223 5204 c-9 -14 -34 -37 -55 -50 -22 -14 -38 -32 -38 -43 0 -11 20 -40 45 -65 25 -26 45 -51 45 -55 0 -5 7 -12 16 -15 21 -8 60 17 69 44 4 11 22 27 40 35 46 19 59 62 24 84 -23 15 -49 41 -77 75 -19 24 -49 19 -69 -10z"/>
<path d="M551 5189 c-6 -18 -11 -49 -11 -71 0 -32 5 -40 26 -50 20 -9 30 -9 45 0 16 10 21 10 25 -3 11 -27 88 -65 131 -65 25 0 50 -8 65 -20 38 -29 83 -46 142 -53 26 -3 60 45 53 75 -8 30 -102 76 -164 81 -30 3 -50 12 -67 30 -24 26 -96 67 -117 67 -6 0 -22 9 -36 20 -14 11 -38 20 -53 20 -22 0 -30 -6 -39 -31z"/>
<path d="M506 4969 c-28 -33 -35 -86 -14 -107 16 -16 73 -15 87 2 18 22 25 104 11 121 -20 24 -56 18 -84 -16z"/>
<path d="M665 4964 c-36 -8 -70 -94 -43 -110 6 -4 45 -7 87 -8 61 -2 83 -7 106 -24 20 -14 48 -22 84 -23 48 -3 57 0 73 22 23 30 16 79 -11 79 -9 0 -25 6 -36 13 -11 7 -49 14 -85 16 -37 2 -72 9 -81 17 -17 15 -64 24 -94 18z"/>
<path d="M1119 4893 c-20 -21 -48 -46 -62 -56 -35 -24 -34 -51 3 -79 17 -12 39 -37 50 -55 26 -45 59 -44 94 2 15 19 33 35 40 35 17 0 46 33 46 53 0 9 -17 34 -37 55 -21 21 -46 48 -55 60 -25 30 -38 28 -79 -15z"/>
<path d="M1935 4900 c-4 -6 1 -35 10 -66 15 -51 18 -55 43 -52 25 3 27 7 26 45 0 26 -8 51 -19 63 -19 21 -50 26 -60 10z"/>
<path d="M1789 4857 c-19 -13 -57 -26 -85 -30 -57 -7 -129 -39 -137 -62 -9 -21 1 -43 22 -50 35 -11 132 2 152 21 17 15 25 16 49 7 46 -17 140 7 140 37 0 8 -7 33 -14 55 -13 36 -17 40 -53 43 -28 2 -49 -4 -74 -21z"/>
<path d="M479 4770 c-19 -11 -34 -89 -24 -120 7 -22 53 -28 72 -9 7 7 20 4 44 -10 25 -16 51 -21 100 -21 38 0 83 -7 105 -16 51 -21 129 -24 148 -4 26 28 29 58 6 70 -39 21 -132 40 -165 34 -24 -4 -41 0 -69 19 -36 25 -112 45 -123 33 -4 -3 -13 0 -22 8 -23 20 -54 27 -72 16z"/>
<path d="M1840 4699 c-35 -12 -78 -20 -116 -19 -109 2 -169 -38 -149 -99 6 -19 14 -21 83 -21 45 1 87 6 101 14 21 11 30 11 57 0 53 -22 108 -18 135 10 17 17 27 22 36 15 22 -19 53 8 53 46 0 55 -48 86 -75 48 -11 -15 -13 -15 -24 5 -14 27 -30 27 -101 1z"/>
<path d="M1348 4680 c-12 -17 -37 -39 -55 -50 -19 -11 -33 -27 -33 -38 0 -20 29 -52 47 -52 6 0 20 -17 30 -37 25 -51 62 -57 93 -13 12 16 35 37 51 45 41 22 41 68 -1 90 -16 8 -36 28 -44 44 -14 26 -34 41 -57 41 -4 0 -18 -14 -31 -30z"/>
<path d="M445 4557 c-22 -34 -30 -110 -14 -124 26 -20 67 -24 83 -7 16 16 22 105 10 138 -10 25 -61 20 -79 -7z"/>
<path d="M576 4538 c-9 -12 -16 -33 -16 -45 0 -29 36 -65 58 -59 92 25 122 29 135 18 24 -20 114 -33 142 -20 26 12 45 72 29 88 -17 17 -123 23 -165 10 -36 -12 -43 -11 -78 8 -50 28 -86 28 -105 0z"/>
<path d="M1079 4505 c-12 -19 -26 -35 -33 -35 -7 0 -23 -11 -35 -24 -27 -29 -22 -55 13 -76 14 -8 35 -31 48 -50 31 -46 58 -50 81 -11 10 17 33 38 52 47 54 25 55 51 6 93 -23 20 -41 41 -41 47 0 16 -34 44 -54 44 -9 0 -26 -16 -37 -35z"/>
<path d="M1830 4468 c-19 -5 -75 -10 -125 -12 -49 -2 -102 -7 -116 -11 -28 -7 -49 -41 -49 -80 0 -32 26 -38 122 -31 40 3 89 6 108 6 153 -3 154 -3 168 19 12 17 18 19 34 10 28 -15 40 5 32 56 -9 54 -14 60 -31 35 -13 -19 -17 -20 -32 -7 -22 20 -69 26 -111 15z"/>
<path d="M1300 4329 c-30 -27 -62 -56 -71 -63 -25 -20 -13 -68 21 -88 15 -9 34 -29 42 -44 22 -47 50 -42 118 18 33 29 60 61 60 70 0 9 -16 30 -35 45 -19 15 -42 47 -51 71 -9 23 -19 42 -23 42 -3 0 -31 -23 -61 -51z"/>
<path d="M430 4325 c-18 -22 -7 -105 16 -122 10 -7 24 -13 31 -13 34 0 63 108 37 135 -20 19 -68 19 -84 0z"/>
<path d="M549 4314 c-12 -15 -11 -18 5 -28 10 -6 34 -26 52 -43 38 -38 35 -37 84 -22 30 9 43 8 68 -5 44 -23 134 -21 155 2 19 20 23 77 7 87 -5 3 -41 7 -79 7 -50 1 -76 -3 -95 -16 l-26 -17 -37 26 c-45 30 -113 34 -134 9z"/>
<path d="M1517 4282 c-24 -26 -22 -69 4 -82 31 -17 152 -25 177 -11 19 10 27 9 50 -8 32 -22 114 -30 134 -13 8 6 20 30 27 53 20 67 13 70 -159 69 -19 0 -76 3 -125 6 -80 5 -93 3 -108 -14z"/>
<path d="M2994 4232 c-33 -22 -15 -72 26 -72 19 0 50 25 50 39 0 13 -35 41 -51 41 -8 0 -19 -4 -25 -8z"/>
<path d="M3467 4186 c-3 -7 1 -23 9 -35 14 -20 13 -22 -8 -30 -17 -7 -28 -4 -44 10 -49 45 -152 46 -181 2 l-15 -23 -25 26 c-22 24 -29 26 -85 22 -48 -4 -65 -9 -79 -27 -14 -17 -16 -28 -9 -41 14 -26 0 -32 -27 -10 -13 10 -31 16 -38 14 -23 -9 -36 5 -25 25 6 13 5 24 -4 36 l-13 19 -46 -18 c-88 -33 -123 -156 -45 -156 10 0 23 -10 27 -22 7 -19 4 -27 -18 -45 -31 -25 -40 -22 -34 11 11 58 -49 36 -78 -28 -21 -48 -16 -86 12 -86 10 0 25 -13 33 -29 17 -31 69 -57 138 -67 24 -4 54 -17 68 -29 14 -12 32 -25 40 -29 8 -4 26 -13 40 -21 49 -29 116 -12 108 26 -2 8 3 13 10 11 7 -1 23 3 35 10 32 17 75 18 88 2 6 -8 16 -14 22 -14 24 0 85 -81 102 -135 10 -33 117 -6 182 45 14 11 41 20 59 20 44 0 112 28 124 50 6 12 17 16 34 13 36 -7 66 13 66 45 0 15 -13 52 -28 82 -21 43 -32 55 -52 57 -14 0 -28 1 -33 2 -4 1 0 12 8 25 15 22 15 28 0 63 -9 21 -29 55 -45 75 -19 23 -28 43 -23 53 7 20 -16 38 -32 25 -6 -5 -22 1 -39 15 -25 20 -28 26 -16 40 7 8 10 19 6 23 -4 4 -12 -1 -17 -11 -10 -17 -12 -17 -43 3 -38 23 -101 27 -109 6z m173 -180 c0 -26 -25 -53 -34 -37 -3 5 -4 16 -1 25 3 9 7 23 10 32 7 22 25 7 25 -20z m-350 -96 c0 -10 -6 -23 -14 -29 -11 -10 -17 -7 -30 11 -19 27 -20 50 -3 67 10 10 15 8 30 -10 9 -11 17 -29 17 -39z m-130 -26 c0 -33 -14 -37 -37 -11 -22 24 -37 70 -26 81 11 11 63 -46 63 -70z m254 20 c5 -23 2 -34 -13 -48 l-20 -19 -11 27 c-13 35 -13 37 6 65 19 26 29 19 38 -25z m-368 -80 c35 -52 -20 -52 -60 1 -14 18 -23 35 -20 38 11 11 65 -16 80 -39z m483 3 c-14 -48 -59 -73 -59 -32 0 18 50 76 60 70 5 -3 4 -20 -1 -38z m224 3 c-14 -29 -36 -39 -47 -21 -7 11 42 64 53 56 5 -3 3 -18 -6 -35z m-140 -86 c12 -12 -23 -64 -43 -64 -30 0 -33 18 -6 45 25 25 38 30 49 19z"/>
<path d="M795 4163 c-11 -3 -33 -15 -50 -27 -19 -13 -45 -21 -75 -21 l-45 0 -3 -37 c-4 -45 21 -57 67 -33 22 11 50 14 93 12 79 -5 145 9 157 32 6 10 7 31 2 47 l-7 29 -60 2 c-32 0 -68 -1 -79 -4z"/>
<path d="M3670 4160 c-13 -8 -13 -11 2 -26 16 -17 18 -17 24 0 9 23 -7 38 -26 26z"/>
<path d="M1474 4082 c-17 -11 -34 -48 -34 -75 0 -20 7 -25 51 -35 64 -15 94 -15 135 0 27 9 37 9 58 -5 48 -32 106 -19 131 27 40 73 -15 116 -103 81 -38 -16 -45 -16 -75 -2 -33 15 -144 21 -163 9z"/>
<path d="M1200 4067 c-8 -7 -21 -24 -27 -39 -7 -16 -19 -28 -26 -28 -20 0 -47 -33 -47 -56 0 -11 13 -27 31 -38 17 -10 35 -29 41 -42 15 -31 52 -32 73 -1 8 13 26 29 40 35 13 6 29 20 34 31 10 17 6 26 -24 55 -19 20 -35 42 -35 49 0 13 -31 47 -41 47 -2 0 -11 -6 -19 -13z"/>
<path d="M885 3949 c-23 -5 -56 -23 -74 -40 -22 -20 -39 -28 -50 -23 -9 4 -27 7 -41 8 -22 1 -25 -3 -23 -28 1 -16 9 -36 18 -45 13 -14 18 -14 44 2 18 10 46 16 77 14 115 -4 186 42 150 98 -18 27 -34 29 -101 14z"/>
<path d="M1420 3905 c0 -29 5 -37 28 -46 15 -6 40 -8 56 -5 16 3 35 1 42 -5 7 -5 23 -12 36 -13 57 -8 105 -20 126 -34 17 -11 25 -12 36 -2 18 14 11 36 -14 43 -10 3 -20 15 -22 28 -3 22 -8 24 -63 25 -33 0 -70 6 -82 12 -12 7 -33 12 -47 12 -14 0 -28 5 -31 10 -3 6 -19 10 -36 10 -27 0 -29 -3 -29 -35z"/>
<path d="M530 3862 c-20 -16 -22 -24 -16 -64 9 -59 33 -82 70 -68 15 5 29 16 32 24 8 21 -16 98 -34 113 -22 16 -26 16 -52 -5z"/>
<path d="M950 3802 c-43 -21 -47 -52 -9 -66 57 -20 104 18 79 64 -13 25 -25 25 -70 2z"/>
<path d="M850 3730 c0 -5 4 -10 9 -10 6 0 13 5 16 10 3 6 -1 10 -9 10 -9 0 -16 -4 -16 -10z"/>
<path d="M2656 3716 c-9 -14 -16 -41 -16 -61 0 -29 4 -35 21 -35 23 0 52 58 47 93 -4 31 -32 32 -52 3z"/>
<path d="M2733 3655 c-14 -29 -15 -38 -3 -59 15 -28 83 -60 111 -51 12 4 30 -6 57 -32 22 -21 48 -39 58 -40 11 -1 31 -5 47 -9 34 -8 57 10 57 45 0 43 -78 101 -135 101 -16 0 -37 11 -53 29 -33 35 -63 51 -97 51 -19 0 -29 -8 -42 -35z"/>
<path d="M3232 3608 c-9 -12 -32 -37 -49 -56 -42 -45 -43 -76 -3 -97 16 -8 40 -29 52 -46 29 -38 67 -37 86 4 7 15 26 37 43 49 16 12 29 31 29 43 0 22 -28 55 -46 55 -5 0 -22 16 -37 35 -32 40 -50 44 -75 13z"/>
<path d="M3864 3579 c-11 -12 -26 -18 -38 -15 -10 3 -31 -1 -46 -9 -17 -9 -31 -10 -41 -4 -22 14 -29 11 -29 -14 0 -38 -33 -61 -75 -53 -20 4 -39 14 -42 22 -6 18 -33 19 -33 1 0 -7 5 -18 12 -25 9 -9 3 -16 -30 -29 -49 -19 -64 -52 -41 -92 15 -27 60 -36 86 -18 6 4 14 3 18 -3 3 -5 4 -11 1 -11 -3 -1 -9 -2 -13 -3 -5 -1 -23 -10 -42 -20 -29 -16 -32 -21 -27 -48 11 -54 23 -61 95 -54 36 4 79 13 96 21 17 8 59 14 98 13 37 0 73 4 80 10 6 6 35 10 63 9 31 -1 57 3 67 12 29 23 17 127 -18 154 -11 8 -81 1 -99 -11 -22 -14 -97 -29 -102 -20 -3 4 10 15 29 23 20 8 37 20 39 26 2 6 23 12 47 13 64 3 72 27 36 113 -11 27 -20 33 -43 33 -16 0 -37 -9 -48 -21z m-117 -195 c10 -27 -11 -49 -43 -46 -56 5 -60 11 -29 37 35 28 63 32 72 9z"/>
<path d="M3660 3579 c0 -5 5 -7 10 -4 6 3 10 8 10 11 0 2 -4 4 -10 4 -5 0 -10 -5 -10 -11z"/>
<path d="M2580 3551 c-13 -26 -13 -87 1 -112 7 -14 19 -20 37 -18 15 1 43 -7 62 -19 25 -16 51 -22 91 -22 40 0 63 -5 81 -19 13 -11 52 -25 86 -31 56 -11 64 -11 82 5 20 18 26 51 12 71 -15 21 -98 59 -137 63 -24 2 -63 17 -97 38 -38 24 -66 34 -86 32 -17 -2 -36 3 -46 14 -24 23 -73 22 -86 -2z"/>
<path d="M3660 3529 c0 -5 5 -7 10 -4 6 3 10 8 10 11 0 2 -4 4 -10 4 -5 0 -10 -5 -10 -11z"/>
<path d="M2550 3330 c-42 -42 -10 -156 36 -132 15 8 25 4 46 -18 l28 -29 -31 -15 c-24 -12 -34 -13 -50 -3 -28 17 -44 -5 -44 -63 0 -55 16 -80 38 -61 11 9 17 8 28 -5 11 -14 28 -16 98 -11 59 3 93 1 117 -9 41 -17 136 -18 152 -2 7 7 12 31 12 54 0 34 -4 43 -22 47 l-21 6 31 29 c34 32 39 56 20 97 -8 19 -17 25 -31 21 -10 -2 -37 2 -59 10 -22 8 -51 14 -64 14 -14 0 -50 14 -81 30 -60 32 -92 37 -111 18 -10 -10 -14 -8 -18 10 -4 12 -10 22 -14 22 -5 0 -15 3 -23 6 -9 3 -25 -4 -37 -16z m268 -186 c18 -13 21 -19 11 -30 -6 -8 -22 -14 -35 -14 -29 0 -96 39 -88 51 9 15 88 10 112 -7z m106 -45 c-3 -5 -10 -7 -15 -3 -5 3 -7 10 -3 15 3 5 10 7 15 3 5 -3 7 -10 3 -15z"/>
<path d="M3323 3303 c-9 -16 -29 -40 -45 -55 -15 -15 -28 -36 -28 -47 0 -23 25 -51 45 -51 8 0 22 -14 32 -30 31 -53 67 -49 99 12 11 22 22 28 45 28 28 0 31 3 25 23 -3 12 -6 30 -6 39 0 10 -17 26 -40 38 -22 11 -40 24 -40 29 0 16 -31 41 -50 41 -11 0 -27 -12 -37 -27z"/>
<path d="M3961 3166 c-8 -10 -23 -13 -46 -9 -23 4 -50 -2 -88 -20 -41 -18 -66 -24 -94 -20 -51 7 -120 -13 -149 -42 -29 -30 -20 -74 20 -93 l27 -14 -26 -24 c-21 -20 -26 -30 -20 -52 3 -15 11 -31 16 -37 16 -17 159 -22 180 -7 13 9 24 10 36 4 10 -6 42 -13 71 -17 42 -6 57 -4 71 9 16 15 19 15 34 -2 23 -26 81 -18 97 13 20 38 7 106 -26 132 -27 21 -27 23 -11 41 19 21 23 101 7 133 -13 23 -81 27 -99 5z m44 -156 c10 -16 -39 -38 -65 -28 l-25 9 24 18 c23 17 56 18 66 1z m-152 -19 c16 -16 -47 -41 -87 -34 -49 8 -54 20 -14 38 33 15 84 13 101 -4z"/>
<path d="M3085 3064 c-28 -31 -52 -57 -54 -59 -12 -13 13 -54 39 -63 16 -6 35 -22 41 -36 6 -13 20 -26 30 -29 21 -6 59 18 59 38 0 8 16 26 35 41 19 14 35 33 35 41 0 17 -109 123 -125 123 -6 0 -33 -25 -60 -56z"/>
<path d="M3376 2939 c-14 -11 -26 -25 -26 -31 0 -5 -13 -23 -30 -38 -16 -15 -30 -36 -30 -47 0 -24 116 -127 135 -119 8 3 22 18 32 33 9 15 33 42 52 59 l35 31 -17 26 c-9 14 -25 28 -36 32 -10 3 -26 17 -35 30 -27 41 -50 48 -80 24z"/>
<path d="M2608 2903 c-14 -13 -20 -14 -32 -4 -20 17 -28 -1 -20 -46 5 -27 19 -49 50 -76 38 -33 42 -41 33 -58 -8 -15 -14 -18 -23 -10 -18 15 -39 -9 -26 -29 6 -8 10 -29 10 -46 0 -42 25 -64 44 -39 9 13 15 15 20 7 10 -17 90 -15 132 3 28 11 44 12 77 4 32 -8 56 -7 102 3 53 13 60 18 63 41 4 35 -14 66 -46 78 l-27 11 23 15 c30 21 28 56 -6 94 l-28 32 -100 2 c-58 1 -119 9 -148 19 -62 20 -78 20 -98 -1z m223 -152 c22 -18 23 -20 6 -26 -22 -9 -87 1 -100 14 -7 7 -2 14 14 20 36 15 54 13 80 -8z"/>
<path d="M1865 2889 c-86 -34 -110 -47 -123 -68 -7 -12 -20 -21 -30 -21 -34 0 -154 -45 -163 -62 -15 -28 10 -71 38 -65 35 7 37 -9 3 -33 -36 -26 -37 -40 -7 -76 19 -21 31 -26 66 -26 23 1 48 6 55 11 18 15 94 17 108 3 8 -8 47 -12 104 -12 106 0 119 8 109 67 -14 83 -17 95 -37 113 -15 13 -17 23 -11 35 10 17 -3 124 -16 136 -16 17 -50 16 -96 -2z m-84 -188 l23 -18 -31 -17 c-31 -15 -87 -13 -98 4 -4 7 59 47 76 49 4 1 17 -7 30 -18z"/>
<path d="M3168 2764 c-7 -9 -32 -36 -55 -60 -24 -24 -43 -47 -43 -51 0 -18 32 -53 48 -53 9 0 31 -17 48 -37 30 -35 33 -37 59 -25 18 8 31 10 38 3 12 -12 37 -3 37 15 0 8 -9 14 -19 14 -11 0 -22 4 -26 9 -5 10 36 43 68 54 9 4 17 10 17 15 0 11 -136 132 -149 132 -6 0 -16 -7 -23 -16z"/>
<path d="M3655 2743 c-22 -3 -45 -9 -52 -15 -18 -14 -16 -59 3 -86 16 -23 12 -42 -10 -42 -15 0 -30 -59 -21 -82 10 -25 55 -40 138 -44 51 -3 91 -11 117 -24 65 -33 101 -26 119 23 15 39 14 77 -3 96 -13 14 -11 20 10 46 l25 30 16 -22 c20 -29 34 -29 62 1 17 18 22 33 19 67 -3 41 -5 44 -33 44 -23 0 -33 -7 -43 -28 -15 -31 -32 -27 -32 8 0 12 -7 26 -16 29 -28 11 -88 6 -118 -9 -25 -13 -33 -13 -73 0 -24 8 -49 14 -56 13 -7 -1 -30 -3 -52 -5z m189 -124 c26 -11 44 -24 41 -28 -10 -16 -97 -19 -132 -4 -39 16 -37 22 10 39 18 6 33 12 33 13 1 0 22 -8 48 -20z m-190 -10 c-3 -5 -10 -7 -15 -3 -5 3 -7 10 -3 15 3 5 10 7 15 3 5 -3 7 -10 3 -15z"/>
<path d="M1095 2663 c-11 -3 -35 -16 -53 -28 -34 -23 -46 -23 -87 -4 -14 7 -31 6 -50 -1 l-30 -11 20 -15 c13 -10 19 -24 17 -41 -4 -24 -2 -25 29 -19 18 3 45 12 60 20 23 11 35 12 64 2 20 -7 36 -16 36 -20 0 -4 -11 -20 -23 -36 -21 -27 -30 -31 -93 -34 -92 -5 -130 -17 -130 -42 -1 -10 -4 -25 -9 -32 -10 -17 1 -49 21 -56 9 -4 26 0 39 9 13 8 39 15 59 15 25 0 41 7 57 25 17 20 31 25 67 25 131 1 203 72 136 135 -16 14 -22 26 -15 30 14 9 13 58 -2 73 -12 12 -74 14 -113 5z m90 -92 c7 -12 -12 -24 -25 -16 -11 7 -4 25 10 25 5 0 11 -4 15 -9z m-222 -128 c10 -10 -13 -33 -34 -33 -21 0 -33 15 -24 30 7 11 48 14 58 3z m-64 -69 c-6 -7 -15 -11 -21 -8 -5 3 -4 12 3 20 6 7 15 11 21 8 5 -3 4 -12 -3 -20z"/>
<path d="M1382 2528 c-7 -7 -12 -22 -12 -34 0 -12 -11 -29 -25 -38 -37 -24 -34 -62 8 -79 17 -8 41 -24 51 -36 27 -30 74 -28 82 3 3 13 19 36 35 50 47 42 35 96 -22 96 -17 0 -32 9 -43 25 -18 27 -54 33 -74 13z"/>
<path d="M2719 2533 c-10 -2 -20 -14 -23 -26 l-6 -22 -20 25 c-14 19 -22 22 -30 14 -9 -9 -9 -26 1 -68 13 -60 33 -86 50 -69 7 7 23 3 50 -10 l41 -20 -21 -21 c-16 -16 -23 -18 -33 -8 -7 7 -22 12 -35 12 -18 0 -23 -6 -23 -24 0 -62 32 -94 60 -61 11 13 16 11 40 -15 l27 -29 47 14 c26 8 52 18 59 22 7 4 53 10 104 13 106 6 133 22 133 75 0 24 -7 37 -26 50 -23 15 -25 19 -12 32 18 17 13 50 -11 82 -15 19 -29 24 -77 27 -32 1 -76 -2 -96 -8 -29 -8 -51 -7 -102 6 -67 16 -70 17 -97 9z m256 -143 c3 -5 -5 -16 -19 -25 -19 -13 -36 -15 -82 -8 -32 4 -57 13 -56 18 3 19 146 33 157 15z"/>
<path d="M3290 2490 c-11 -11 -20 -25 -20 -31 0 -6 -16 -26 -36 -45 -34 -32 -36 -35 -22 -56 8 -13 25 -25 37 -28 12 -3 30 -20 41 -37 11 -18 27 -33 36 -33 20 0 124 104 124 124 0 26 -12 46 -27 46 -8 0 -31 18 -50 40 -41 45 -55 48 -83 20z"/>
<path d="M1970 2484 c-8 -1 -36 -6 -62 -9 -30 -4 -59 -16 -78 -32 -26 -21 -34 -23 -59 -15 -16 6 -31 9 -33 6 -2 -2 -28 -7 -58 -11 -66 -10 -78 -26 -62 -81 11 -36 17 -41 45 -44 39 -4 43 -22 5 -26 -29 -3 -43 -28 -32 -56 11 -29 84 -59 146 -61 37 -1 64 -7 76 -18 29 -26 82 -44 153 -51 78 -8 77 -10 73 97 -2 74 -13 94 -50 99 -34 4 -32 21 4 32 38 11 44 34 25 99 -22 76 -33 84 -93 71z m-67 -194 c5 -4 -6 -16 -24 -28 -26 -16 -37 -18 -58 -10 -14 6 -42 14 -61 17 -50 9 -45 32 10 46 36 9 53 8 85 -3 22 -8 44 -18 48 -22z"/>
<path d="M3539 2389 c-17 -17 -20 -29 -16 -60 3 -26 0 -42 -9 -50 -20 -17 -29 -76 -13 -95 21 -26 106 -64 142 -64 22 0 41 -8 53 -21 32 -35 94 -62 130 -56 19 3 36 1 39 -4 11 -17 54 -9 75 13 30 32 27 76 -7 89 -14 5 -31 8 -37 6 -7 -3 -24 5 -40 18 l-28 22 30 16 31 15 16 -24 c21 -32 67 -33 83 -1 26 53 34 97 21 113 -24 30 -49 37 -68 20 -16 -15 -19 -14 -38 8 -23 26 -88 42 -123 31 -11 -4 -43 2 -73 13 -28 11 -73 22 -99 26 -40 6 -50 4 -69 -15z m210 -152 c23 -13 42 -27 42 -32 -2 -17 -84 -4 -112 17 -55 41 -1 53 70 15z"/>
<path d="M1188 2326 c-20 -7 -60 -32 -89 -55 -28 -22 -62 -41 -74 -41 -29 0 -85 -63 -85 -95 0 -19 5 -25 23 -25 40 0 94 20 120 44 19 18 38 25 65 24 22 0 48 5 60 11 12 6 23 7 26 2 6 -10 -5 -20 -46 -41 -15 -7 -30 -22 -34 -32 -3 -10 -16 -31 -30 -47 -29 -35 -41 -85 -23 -96 7 -5 19 2 31 18 11 15 29 27 41 27 47 0 147 79 147 115 0 24 -23 59 -39 61 -6 1 -14 2 -18 3 -4 0 3 10 15 21 26 25 21 75 -10 103 -24 20 -31 20 -80 3z"/>
<path d="M1668 2049 c-10 -5 -18 -16 -18 -23 0 -24 78 -86 107 -86 15 0 41 -5 59 -12 44 -16 127 9 132 40 3 21 -2 23 -98 38 -25 3 -52 12 -60 19 -8 7 -28 15 -45 19 -16 4 -37 9 -45 11 -8 2 -23 0 -32 -6z"/>
<path d="M1327 1960 c-46 -42 -61 -76 -45 -104 13 -23 35 -20 55 10 10 14 28 38 41 54 24 30 26 70 5 77 -7 3 -32 -14 -56 -37z"/>
<path d="M1604 1945 c-9 -23 15 -72 49 -101 42 -35 62 -29 62 21 0 34 -5 42 -40 67 -46 31 -63 34 -71 13z"/>
<path d="M1413 1922 c-20 -13 -30 -55 -21 -89 7 -26 14 -33 32 -33 24 0 30 9 47 64 13 44 -23 80 -58 58z"/>
<path d="M1501 1912 c-23 -43 26 -151 63 -139 18 6 18 79 1 120 -17 41 -47 50 -64 19z"/>
<path d="M2606 1373 c-30 -30 -47 -135 -25 -149 8 -5 4 -13 -11 -24 -16 -12 -25 -33 -31 -71 -10 -65 -5 -85 24 -93 38 -10 165 -7 191 5 20 10 37 8 80 -5 30 -10 72 -16 93 -14 33 3 40 8 56 41 13 26 16 41 9 50 -8 9 -5 20 8 37 22 29 26 69 8 92 -19 22 -97 51 -138 49 -23 0 -43 7 -60 23 -46 42 -182 81 -204 59z m233 -189 c25 -18 20 -28 -20 -38 -19 -4 -31 0 -44 14 l-18 20 24 9 c32 13 31 13 58 -5z"/>
<path d="M3355 1171 c-34 -5 -41 -10 -49 -40 -6 -22 -6 -39 1 -50 8 -12 7 -22 -3 -36 -21 -28 -18 -82 4 -94 40 -21 102 -38 125 -34 17 3 35 -4 58 -24 19 -16 59 -39 89 -51 96 -37 113 -34 128 23 16 61 15 85 -4 106 -16 17 -15 19 8 28 30 11 36 25 44 95 5 40 3 55 -9 64 -24 20 -145 26 -198 9 -26 -8 -53 -11 -60 -7 -23 12 -91 18 -134 11z m153 -127 c40 -28 9 -44 -45 -23 l-28 10 19 15 c25 18 27 17 54 -2z"/>
<path d="M3105 1047 c-11 -7 -24 -18 -28 -25 -5 -7 -26 -20 -48 -28 -49 -20 -52 -52 -9 -101 17 -18 30 -40 30 -47 0 -15 32 -46 47 -46 6 0 22 11 35 25 14 14 39 30 55 36 17 5 36 21 43 34 12 23 10 29 -18 64 -18 22 -32 45 -32 50 0 13 -37 51 -47 50 -5 0 -17 -6 -28 -12z"/>
<path d="M2527 963 c-8 -10 -18 -43 -22 -74 -6 -49 -4 -59 14 -76 l21 -19 -25 -22 c-20 -17 -25 -31 -25 -66 0 -118 23 -140 120 -108 56 18 62 18 68 3 7 -21 22 -30 39 -24 21 8 15 40 -9 47 l-23 6 19 15 c12 9 41 15 72 15 53 0 113 19 131 42 17 22 23 61 11 75 -8 10 -7 18 6 31 10 12 16 36 16 64 0 41 -3 47 -27 53 -16 4 -59 9 -98 10 -43 1 -92 10 -128 23 -71 27 -138 29 -160 5z m249 -157 l19 -15 -29 -11 c-36 -13 -78 -10 -84 8 -4 12 29 30 59 31 8 1 24 -5 35 -13z"/>
<path d="M3261 807 c-7 -9 -11 -28 -9 -44 2 -22 13 -33 48 -51 25 -12 59 -21 77 -20 23 2 40 -5 60 -23 34 -31 127 -71 156 -67 13 2 23 13 28 31 14 52 -2 70 -97 111 -49 21 -100 45 -113 53 -36 23 -133 29 -150 10z"/>
<path d="M3205 687 c-4 -10 -5 -21 -1 -24 10 -10 18 4 13 24 l-4 18 -8 -18z"/>
<path d="M2880 645 c0 -17 2 -18 24 -9 23 9 20 24 -4 24 -11 0 -20 -7 -20 -15z"/>
<path d="M3254 618 c-10 -16 61 -76 94 -80 17 -2 31 -14 44 -38 21 -38 66 -80 86 -80 18 0 42 62 35 89 -6 24 -39 41 -79 41 -15 0 -36 12 -52 29 -41 45 -111 66 -128 39z"/>
<path d="M2785 559 c-25 -13 -62 -22 -101 -24 -69 -3 -121 -26 -133 -58 -16 -43 32 -147 68 -147 28 0 109 57 125 88 15 30 62 51 77 35 16 -16 -19 -72 -58 -92 -51 -25 -64 -42 -70 -89 -5 -34 -2 -42 23 -61 33 -26 66 -35 98 -27 27 7 56 67 56 116 0 19 7 33 19 39 26 14 71 97 71 131 0 30 -18 43 -40 30 -25 -15 -32 2 -10 22 35 33 22 53 -35 56 -36 2 -61 -3 -90 -19z"/>
<path d="M3152 465 c-8 -17 -20 -25 -37 -25 -17 0 -29 -9 -41 -32 l-16 -32 -20 27 c-11 15 -28 27 -39 27 -27 0 -59 -57 -59 -104 0 -26 -8 -47 -25 -68 -59 -70 -2 -173 79 -142 9 3 25 21 37 40 21 35 39 37 39 5 0 -28 33 -51 73 -51 50 0 106 29 113 57 8 32 -14 83 -46 110 -22 18 -26 29 -24 60 1 26 7 37 16 35 27 -7 48 -36 48 -68 0 -23 10 -43 35 -70 33 -34 36 -36 57 -22 13 9 31 29 41 46 16 27 17 37 7 64 -11 33 -77 91 -152 135 -61 35 -73 36 -86 8z m-67 -182 c-19 -79 -39 -89 -51 -28 -4 25 -1 43 11 62 l18 26 14 -19 c8 -10 11 -29 8 -41z"/>
</g>
</g>
</svg>
