<?xml version="1.0" standalone="no"?>
<!DOCTYPE svg PUBLIC "-//W3C//DTD SVG 1.1//EN"
 "http://www.w3.org/Graphics/SVG/1.1/DTD/svg11.dtd">
<!-- Created with svg_stack (http://github.com/astraw/svg_stack) -->
<svg xmlns:sodipodi="http://sodipodi.sourceforge.net/DTD/sodipodi-0.dtd" xmlns="http://www.w3.org/2000/svg" version="1.1" width="2118.0" height="906.0">
  <defs/>
  <g id="id0:id0" transform="matrix(1.25,0,0,1.25,0.0,0.0)"><g transform="translate(0.000000,724.800000) scale(0.040000,-0.040000)" fill="#960032" stroke="none">
<path d="M7095 12095 c-362 -46 -757 -224 -1095 -493 -128 -103 -372 -342 -486 -479 -394 -470 -705 -998 -963 -1633 -24 -58 -49 -120 -57 -138 -19 -43 -18 -52 5 -52 12 0 21 10 26 27 3 14 15 38 26 51 10 14 19 29 19 33 0 5 25 49 56 97 31 48 75 116 97 152 303 478 556 810 822 1076 279 279 487 405 674 408 194 2 316 -127 382 -404 17 -70 22 -138 29 -395 16 -598 83 -1010 284 -1750 13 -49 48 -157 76 -240 29 -82 62 -182 74 -221 12 -38 29 -82 39 -97 9 -14 17 -34 17 -42 0 -9 6 -15 13 -12 6 2 11 13 9 23 -2 10 -7 42 -12 69 -22 128 -32 196 -40 270 -4 44 -11 91 -14 105 -3 14 -12 84 -21 155 -8 72 -19 166 -25 210 -38 292 -51 894 -25 1180 27 296 86 538 176 719 118 236 266 370 494 447 64 22 87 24 255 24 195 0 227 -5 415 -62 213 -64 498 -194 745 -338 327 -193 756 -508 1165 -859 182 -156 545 -493 545 -506 0 -6 7 -10 15 -10 8 0 15 5 15 12 0 40 -396 576 -659 893 -313 377 -702 774 -985 1005 -431 351 -796 560 -1211 694 -265 85 -603 116 -880 81z"/>
<path d="M5951 10825 c-166 -64 -319 -256 -381 -477 -25 -91 -35 -252 -21 -337 23 -138 100 -251 208 -302 91 -43 166 -39 274 14 130 65 265 227 321 384 60 171 72 307 38 437 -52 196 -150 293 -304 302 -58 3 -83 -1 -135 -21z"/>
</g>
</g>
  <g id="id1:id1" transform="matrix(1.25,0,0,1.25,0.0,0.0)"><g transform="translate(0.000000,724.800000) scale(0.040000,-0.040000)" fill="#fa4a0e" stroke="none">
<path d="M15770 11673 c3 -56 -12 -564 -20 -686 -47 -723 -220 -1217 -468 -1339 -58 -29 -76 -33 -142 -32 -95 1 -155 24 -261 101 -95 68 -165 141 -263 273 -118 159 -206 270 -307 385 -116 132 -484 496 -624 617 -114 99 -484 388 -497 388 -22 0 2 -31 113 -147 121 -126 172 -185 367 -416 154 -182 297 -372 367 -487 15 -25 36 -54 45 -65 38 -44 202 -368 236 -467 150 -441 70 -763 -246 -992 -229 -166 -635 -286 -1125 -333 -268 -26 -1006 -26 -1315 0 -302 25 -421 36 -448 44 -20 5 -23 3 -20 -17 3 -19 23 -29 148 -70 131 -44 345 -107 490 -145 286 -74 368 -92 680 -150 318 -58 616 -85 932 -85 534 0 928 80 1287 260 231 115 324 182 507 365 189 188 276 308 395 545 181 361 282 821 295 1337 8 317 -8 635 -42 853 -32 199 -50 270 -70 270 -8 0 -14 -3 -14 -7z"/>
<path d="M14865 10851 c-81 -20 -162 -87 -204 -168 -67 -133 -61 -319 17 -485 73 -153 187 -262 321 -307 145 -48 274 -6 357 114 195 283 -23 790 -364 846 -64 10 -84 10 -127 0z"/>
<path d="M18330 8759 c-77 -36 -248 -102 -305 -119 -22 -6 -49 -15 -60 -20 -21 -9 -143 -45 -185 -54 -14 -4 -86 -22 -160 -40 -146 -37 -315 -69 -450 -86 -47 -6 -123 -15 -169 -21 -52 -7 -220 -9 -445 -6 -329 5 -374 7 -506 30 -246 44 -302 56 -400 87 -51 16 -101 30 -108 30 -8 0 -54 -37 -101 -83 -104 -100 -150 -137 -261 -212 -89 -61 -315 -177 -382 -197 -30 -9 -38 -16 -36 -31 4 -28 121 -56 413 -97 145 -21 463 -24 650 -6 185 18 412 49 515 71 590 125 1173 321 1675 565 66 32 143 68 170 80 114 50 235 116 235 127 0 19 -17 15 -90 -18z"/>
</g>
</g>
  <g id="id2:id2" transform="matrix(1.25,0,0,1.25,0.0,0.0)"><g transform="translate(0.000000,724.800000) scale(0.040000,-0.040000)" fill="#ffffff" stroke="none">
<path d="M0 9060 l0 -9060 21180 0 21180 0 0 9060 0 9060 -21180 0 -21180 0 0 -9060z m21384 5011 c3 -5 -14 -21 -38 -35 -69 -40 -192 -179 -234 -264 -32 -66 -37 -85 -40 -168 -5 -108 11 -164 77 -273 78 -130 313 -332 523 -450 35 -20 111 -62 168 -95 192 -108 509 -310 644 -411 199 -149 260 -201 383 -324 255 -256 378 -480 391 -712 3 -71 0 -116 -12 -170 -19 -80 -65 -182 -81 -181 -6 1 -13 58 -17 133 -9 168 -42 302 -105 429 -40 80 -62 110 -143 190 -77 77 -112 104 -185 142 -98 50 -123 59 -264 88 -166 35 -302 21 -372 -37 -17 -15 -45 -54 -60 -88 -27 -55 -29 -69 -29 -176 0 -232 87 -548 342 -1244 309 -843 331 -905 469 -1320 138 -415 275 -900 258 -911 -5 -3 -16 12 -25 33 -24 63 -55 134 -87 203 -17 36 -56 124 -87 195 -216 494 -578 1211 -775 1535 -90 148 -250 384 -314 463 -85 105 -227 238 -296 277 -50 29 -70 35 -120 34 -90 0 -169 -51 -304 -197 -234 -252 -466 -598 -1330 -1990 -20 -32 -69 -109 -109 -170 -40 -62 -87 -134 -103 -160 -37 -61 -55 -53 -24 10 35 70 200 421 255 543 26 58 78 170 115 250 125 271 341 761 427 965 27 66 56 131 63 145 16 31 103 242 151 365 19 50 41 102 49 116 8 14 28 62 44 105 16 43 36 95 45 114 9 19 44 114 80 210 242 664 340 1122 308 1449 -12 119 -20 149 -96 369 -94 272 -99 516 -16 683 77 153 223 268 405 320 33 10 61 18 62 18 1 1 4 -3 7 -8z m13861 -151 c22 -14 94 -62 160 -105 147 -97 366 -262 550 -414 144 -119 531 -513 640 -651 218 -275 400 -587 489 -838 49 -135 100 -343 117 -467 16 -129 17 -364 0 -485 -61 -451 -268 -884 -631 -1320 -140 -168 -472 -486 -700 -671 -345 -279 -929 -664 -1333 -879 -123 -66 -143 -56 -50 24 38 32 178 163 312 290 570 541 992 1036 1271 1491 62 101 182 346 218 445 56 152 74 243 79 401 l5 147 -36 110 c-70 209 -202 349 -441 469 -85 43 -330 128 -411 143 -438 80 -490 84 -1014 85 -245 0 -516 -2 -602 -5 -88 -3 -159 -1 -160 4 -4 13 128 44 457 105 182 35 400 61 595 73 220 13 723 5 860 -14 147 -20 429 -17 515 6 139 36 238 102 280 187 30 58 48 168 39 234 -23 172 -170 456 -358 693 -187 235 -583 647 -863 897 -158 140 -154 156 12 45z m-12894 -77 c86 -45 147 -115 179 -206 28 -80 28 -230 -1 -323 -46 -151 -158 -288 -287 -352 l-76 -37 -105 0 c-95 0 -111 3 -156 27 -92 49 -162 139 -189 244 -69 268 106 587 369 670 22 7 75 13 117 13 70 1 83 -2 149 -36z m7244 -685 c-100 -101 -201 -210 -224 -243 -22 -33 -65 -87 -94 -121 -67 -78 -137 -176 -172 -239 -16 -28 -47 -79 -69 -115 -50 -79 -89 -158 -117 -236 -12 -33 -27 -75 -35 -94 -8 -22 -13 -79 -14 -151 l0 -116 32 -63 c18 -34 52 -79 75 -100 57 -50 177 -108 249 -121 33 -6 90 -17 128 -26 55 -13 101 -15 236 -10 92 4 190 12 219 18 35 7 140 9 324 5 310 -7 452 -17 452 -31 0 -5 -31 -13 -69 -17 -39 -4 -79 -11 -90 -16 -29 -13 -157 -32 -219 -32 -29 0 -77 -9 -107 -20 -30 -11 -70 -20 -89 -20 -18 0 -61 -9 -95 -19 -33 -11 -97 -31 -141 -45 -180 -56 -348 -131 -404 -180 -20 -18 -58 -46 -86 -64 -151 -95 -262 -283 -311 -526 -29 -148 -29 -153 6 -333 5 -29 14 -74 19 -100 22 -112 92 -307 161 -443 119 -238 371 -622 481 -736 27 -27 66 -75 87 -106 44 -67 104 -132 429 -460 134 -135 240 -248 236 -251 -8 -5 -62 28 -205 124 -46 31 -125 83 -175 117 -51 33 -112 76 -135 95 -24 19 -56 41 -73 50 -16 8 -56 38 -88 66 -32 28 -73 59 -90 68 -18 9 -66 48 -107 88 -41 40 -102 90 -135 113 -72 49 -496 473 -520 521 -9 18 -52 71 -96 118 -43 46 -79 90 -79 98 0 9 -17 34 -38 58 -159 175 -376 625 -438 907 -8 36 -21 83 -29 105 -12 34 -27 231 -28 370 -1 125 16 307 35 375 54 191 101 316 169 445 12 22 37 72 57 110 49 96 189 309 244 370 24 28 59 73 78 100 41 61 486 500 546 537 24 15 74 56 111 91 37 36 86 74 108 85 22 11 56 36 74 56 19 20 40 36 45 36 6 0 40 22 76 49 36 27 68 47 71 45 3 -2 -76 -86 -176 -186z m6240 -431 c88 -35 188 -101 239 -158 148 -164 140 -333 -18 -414 -57 -28 -66 -30 -180 -30 -142 0 -191 13 -310 83 -101 61 -187 151 -216 229 -43 114 -16 220 71 278 58 38 95 45 229 41 103 -4 136 -9 185 -29z m-5898 -242 c28 -14 70 -46 92 -70 l41 -45 0 -66 c0 -62 -3 -73 -45 -140 -56 -90 -89 -118 -206 -182 -142 -76 -198 -92 -327 -92 -95 0 -114 3 -158 25 -27 13 -66 38 -86 55 l-38 31 0 80 c0 66 4 88 26 131 43 85 120 157 226 210 159 81 180 86 309 87 104 1 120 -1 166 -24z m-22324 -410 c188 -26 310 -58 535 -139 96 -35 381 -177 501 -250 479 -292 978 -749 1512 -1386 127 -151 148 -178 348 -445 186 -248 232 -315 224 -328 -3 -5 -44 29 -92 75 -193 190 -632 561 -865 733 -59 44 -126 95 -148 113 -22 18 -120 85 -217 150 -482 323 -851 500 -1216 584 -84 19 -128 23 -270 23 -187 -1 -252 -14 -379 -78 -386 -192 -576 -701 -576 -1542 0 -215 20 -591 40 -750 5 -44 19 -156 31 -250 27 -215 39 -319 44 -370 2 -22 4 -41 4 -42 2 -9 0 -13 -6 -13 -5 0 -8 3 -9 8 0 4 -6 20 -12 35 -23 54 -114 334 -137 422 -199 736 -260 1111 -275 1695 -9 316 -17 394 -56 515 -46 143 -134 256 -234 302 -195 89 -486 -44 -816 -373 -229 -228 -440 -496 -704 -894 -114 -171 -235 -362 -259 -408 -7 -12 -16 -20 -21 -17 -5 3 2 31 16 63 14 31 37 86 51 122 37 95 194 416 265 544 197 357 364 605 623 927 84 105 351 369 475 470 336 274 723 452 1095 504 128 18 400 18 528 0z m8217 -640 c23 -157 29 -213 40 -410 24 -399 1 -820 -61 -1120 -56 -275 -150 -547 -257 -745 -102 -190 -190 -308 -347 -466 -174 -175 -280 -251 -506 -365 -342 -171 -711 -252 -1204 -262 -225 -5 -579 17 -775 48 -466 74 -616 107 -1025 219 -317 87 -423 122 -409 136 9 9 197 -1 399 -20 172 -17 887 -24 1055 -11 566 43 879 111 1163 253 155 76 196 105 294 204 96 98 152 188 184 299 33 114 34 311 1 440 -41 160 -63 217 -162 410 -172 336 -437 695 -812 1097 -65 69 -115 129 -111 131 5 3 46 -27 93 -65 47 -38 108 -86 135 -107 111 -84 390 -339 556 -507 202 -206 272 -287 461 -537 157 -206 220 -275 330 -357 101 -76 170 -103 270 -103 105 -1 182 37 270 132 141 152 267 493 312 841 3 25 13 92 21 150 15 113 32 370 41 625 3 88 8 166 10 174 9 28 22 -5 34 -84z m-760 -624 c120 -45 250 -190 305 -341 40 -109 45 -236 15 -348 -20 -75 -28 -89 -79 -142 -46 -48 -66 -61 -115 -75 -73 -21 -147 -16 -230 15 -91 35 -208 156 -265 274 -84 176 -93 342 -25 477 42 85 95 131 184 160 39 13 150 3 210 -20z m-8875 -9 c127 -65 204 -240 192 -440 -19 -336 -250 -645 -494 -660 -136 -9 -244 71 -304 223 -20 53 -23 77 -23 205 -1 171 12 224 87 375 37 74 67 117 116 168 82 86 108 105 185 134 77 29 179 27 241 -5z m21713 -184 c12 -16 33 -81 68 -208 27 -100 80 -255 121 -354 30 -71 22 -87 -34 -67 -37 14 -117 34 -208 52 -27 6 -80 19 -116 30 -36 10 -90 19 -120 19 -30 0 -86 9 -124 20 -60 17 -100 20 -281 20 -180 0 -222 -3 -275 -19 -35 -11 -80 -22 -99 -26 -19 -4 -71 -25 -116 -47 -133 -64 -217 -164 -270 -321 -21 -63 -24 -88 -24 -226 0 -145 3 -166 34 -291 42 -162 50 -190 66 -220 19 -36 -4 -48 -26 -14 -10 16 -30 43 -45 59 -15 17 -35 44 -46 61 -10 17 -35 56 -56 87 -58 87 -153 278 -172 343 -9 33 -25 86 -36 119 -30 93 -26 196 11 308 32 95 95 200 152 253 126 119 482 290 648 314 31 4 69 14 85 22 17 8 57 18 90 21 34 4 76 13 95 20 19 8 80 17 135 21 55 3 125 13 155 20 73 19 373 21 388 4z m-9854 -2009 c-3 -5 -9 -7 -14 -4 -5 3 -11 1 -14 -4 -7 -11 -161 -86 -240 -115 -34 -13 -86 -35 -116 -49 -148 -70 -568 -218 -827 -291 -277 -79 -440 -115 -673 -151 -300 -46 -462 -58 -708 -53 -226 5 -272 10 -492 50 -126 23 -160 33 -160 47 0 5 64 40 143 78 210 102 387 229 533 381 22 23 48 42 57 42 9 0 59 -13 110 -30 52 -16 132 -37 178 -45 402 -73 450 -77 839 -72 343 4 423 10 690 58 63 11 144 27 180 36 36 9 81 19 100 23 69 15 176 43 210 55 42 15 149 47 167 49 7 1 15 5 19 9 10 9 25 -2 18 -14z m12370 -480 c-3 -5 -10 -7 -15 -3 -5 3 -7 10 -3 15 3 5 10 7 15 3 5 -3 7 -10 3 -15z m3990 -100 c-3 -5 -10 -7 -15 -3 -5 3 -7 10 -3 15 3 5 10 7 15 3 5 -3 7 -10 3 -15z m-27281 -664 c260 -75 391 -291 418 -685 26 -389 -35 -698 -177 -911 -26 -39 -60 -77 -75 -84 -87 -46 -352 -82 -515 -72 -205 14 -337 61 -437 156 -106 100 -164 243 -192 470 -23 179 -16 439 15 595 49 246 144 452 228 495 98 49 271 72 503 65 117 -3 163 -9 232 -29z m6912 25 c83 -5 164 -14 180 -18 27 -8 30 -12 29 -51 -1 -64 -16 -72 -94 -55 -94 21 -408 30 -522 15 -96 -13 -130 -27 -147 -60 -14 -26 -41 -208 -41 -273 0 -107 42 -204 105 -245 44 -29 147 -60 247 -73 244 -33 377 -104 441 -233 39 -80 46 -126 47 -284 0 -217 -41 -414 -93 -447 -58 -36 -448 -64 -635 -46 -160 16 -252 32 -273 49 -23 18 -45 99 -31 113 6 6 35 3 72 -7 166 -43 466 -57 653 -31 103 15 123 24 139 66 24 60 48 218 48 311 0 115 -19 175 -77 245 -74 88 -151 122 -344 154 -253 41 -336 85 -391 205 -30 68 -38 288 -14 415 30 159 36 183 52 201 43 47 335 69 649 49z m14752 -11 c108 -12 121 -22 104 -79 -7 -23 -19 -44 -27 -47 -8 -3 -56 2 -107 12 -135 25 -425 31 -552 11 -55 -8 -117 -20 -139 -27 -78 -22 -171 -151 -228 -314 -53 -154 -62 -228 -62 -485 0 -212 2 -243 22 -315 63 -225 181 -348 377 -391 165 -36 523 3 562 62 30 47 58 607 31 616 -7 2 -80 1 -163 -2 -82 -3 -153 -3 -158 0 -4 4 -4 31 0 61 l8 54 224 0 224 0 10 -30 c16 -48 -25 -698 -49 -778 -16 -51 -298 -110 -524 -110 -369 -1 -588 149 -670 458 -63 241 -45 660 40 915 30 91 92 203 156 283 30 37 58 67 62 67 4 0 41 10 82 21 41 11 120 24 175 29 118 10 475 4 602 -11z m6620 -15 c8 -10 131 -374 274 -809 144 -434 270 -814 280 -844 12 -32 16 -58 11 -63 -5 -5 -36 -8 -68 -6 l-59 3 -79 237 c-66 197 -82 237 -100 242 -27 7 -624 8 -652 0 -16 -4 -28 -32 -63 -147 -23 -78 -51 -174 -62 -214 -34 -128 -30 -123 -98 -123 -33 0 -62 4 -65 8 -2 4 27 111 65 237 86 280 119 390 158 520 39 132 137 458 217 725 36 118 69 226 75 239 l10 24 71 -5 c54 -4 75 -10 85 -24z m-13675 -29 c-2 -22 -9 -49 -16 -59 l-13 -20 -369 0 -369 -1 -3 -329 c-2 -232 1 -333 9 -342 9 -11 68 -14 278 -16 l266 -3 -3 -30 c-2 -16 -9 -41 -15 -55 -11 -22 -18 -25 -57 -23 -92 4 -472 4 -476 1 -2 -2 -4 -159 -4 -347 -1 -275 1 -346 12 -353 13 -9 697 -6 728 3 18 5 19 -50 1 -93 l-11 -28 -423 0 c-316 0 -426 3 -435 12 -16 16 -18 1698 -2 1714 6 6 175 10 457 9 l448 0 -3 -40z"/>
<path d="M6700 7284 c-196 -29 -238 -52 -289 -158 -93 -193 -137 -438 -128 -706 14 -410 127 -618 368 -675 127 -30 445 -15 535 26 47 21 51 25 91 99 41 74 77 178 110 313 25 104 27 128 27 342 1 243 -3 277 -52 430 -30 95 -58 142 -122 206 -94 94 -204 130 -391 128 -68 -1 -135 -3 -149 -5z"/>
<path d="M35320 7206 c0 -2 -23 -83 -51 -178 -28 -95 -62 -213 -75 -263 -14 -49 -37 -130 -53 -180 -53 -168 -91 -313 -85 -329 5 -14 41 -16 295 -16 l289 0 0 26 c0 36 -38 166 -136 466 -47 145 -100 310 -118 368 -23 75 -37 106 -49 108 -9 2 -17 1 -17 -2z"/>
</g>
</g>
  <g id="id3:id3" transform="matrix(1.25,0,0,1.25,0.0,0.0)"><g transform="translate(0.000000,724.800000) scale(0.040000,-0.040000)" fill="#003c82" stroke="none">
<path d="M21370 14094 c-19 -7 -42 -13 -51 -13 -8 -1 -44 -12 -78 -27 -275 -111 -427 -351 -407 -644 8 -123 42 -270 104 -446 73 -205 87 -358 57 -612 -36 -309 -131 -655 -320 -1167 -47 -127 -126 -330 -137 -350 -6 -10 -53 -121 -104 -245 -90 -219 -179 -427 -264 -620 -23 -52 -54 -124 -70 -160 -67 -155 -107 -245 -258 -575 -148 -323 -357 -771 -447 -958 -21 -45 -34 -82 -29 -87 12 -12 25 -2 44 32 32 59 108 179 195 313 51 77 186 291 300 475 114 184 242 389 283 455 42 66 93 149 115 185 84 137 392 602 491 740 182 255 367 454 468 504 70 35 119 34 196 -5 233 -116 589 -632 990 -1434 107 -214 302 -621 302 -630 0 -2 20 -45 44 -97 24 -51 56 -122 71 -158 15 -36 39 -92 55 -125 85 -182 160 -361 160 -383 0 -19 18 -42 33 -42 11 0 0 104 -13 129 -5 9 -21 66 -35 126 -70 292 -329 1111 -460 1455 -43 113 -152 410 -207 565 -21 61 -64 178 -95 260 -135 363 -247 731 -282 929 -6 33 -11 116 -11 185 l0 126 33 60 c25 44 45 67 78 85 41 23 53 25 174 24 160 -1 280 -30 413 -98 283 -147 435 -447 420 -833 -5 -125 2 -137 44 -80 61 80 108 233 108 353 0 88 -37 238 -84 337 -103 219 -343 478 -665 719 -190 143 -434 298 -766 486 -238 136 -348 215 -476 342 -92 91 -112 117 -153 199 l-46 93 0 97 c0 105 20 172 77 254 41 61 154 169 223 214 33 21 60 44 60 51 0 15 -34 14 -80 -4z"/>
<path d="M35080 14011 c0 -13 29 -35 37 -28 7 8 -15 37 -28 37 -5 0 -9 -4 -9 -9z"/>
<path d="M35140 13970 c0 -5 5 -10 10 -10 6 0 10 5 10 10 0 6 -4 10 -10 10 -5 0 -10 -4 -10 -10z"/>
<path d="M22102 13890 c-119 -25 -275 -155 -344 -286 -44 -83 -78 -207 -78 -284 0 -78 34 -193 76 -256 65 -97 156 -151 272 -161 219 -18 435 151 518 405 33 101 34 244 3 329 -40 107 -107 182 -209 233 -51 26 -164 35 -238 20z"/>
<path d="M33680 11690 c0 -5 9 -10 20 -10 11 0 20 5 20 10 0 6 -9 10 -20 10 -11 0 -20 -4 -20 -10z"/>
<path d="M33600 11670 c0 -5 5 -10 10 -10 6 0 10 5 10 10 0 6 -4 10 -10 10 -5 0 -10 -4 -10 -10z"/>
<path d="M13320 11250 c0 -5 5 -10 10 -10 6 0 10 5 10 10 0 6 -4 10 -10 10 -5 0 -10 -4 -10 -10z"/>
<path d="M18220 8690 c0 -5 5 -10 10 -10 6 0 10 5 10 10 0 6 -4 10 -10 10 -5 0 -10 -4 -10 -10z"/>
<path d="M18160 8670 c0 -5 9 -10 20 -10 11 0 20 5 20 10 0 6 -9 10 -20 10 -11 0 -20 -4 -20 -10z"/>
<path d="M18060 8630 c0 -5 9 -10 20 -10 11 0 20 5 20 10 0 6 -9 10 -20 10 -11 0 -20 -4 -20 -10z"/>
<path d="M34380 8030 c0 -5 9 -10 20 -10 11 0 20 5 20 10 0 6 -9 10 -20 10 -11 0 -20 -4 -20 -10z"/>
<path d="M6839 7416 c-2 -3 -56 -6 -119 -7 -118 -3 -133 -5 -259 -42 -55 -16 -83 -31 -109 -57 -37 -38 -91 -130 -117 -200 -10 -25 -23 -58 -30 -75 -7 -16 -17 -48 -20 -70 -4 -22 -11 -47 -15 -55 -5 -8 -10 -36 -13 -62 -3 -26 -8 -51 -11 -56 -24 -39 -32 -388 -12 -532 20 -150 26 -182 37 -202 5 -9 9 -25 9 -36 0 -10 20 -59 44 -108 75 -154 186 -242 361 -290 58 -16 105 -19 270 -19 241 0 379 22 463 74 20 12 132 169 132 185 0 4 9 27 20 52 11 24 23 59 27 77 3 17 9 37 13 42 4 6 10 24 13 40 4 17 16 73 27 125 18 85 20 123 17 350 -2 165 -8 271 -16 300 -7 25 -17 63 -23 85 -22 83 -51 160 -80 209 -28 49 -124 156 -140 156 -4 0 -27 14 -51 30 -25 17 -50 30 -56 30 -7 0 -25 6 -40 14 -33 18 -311 53 -322 42z m211 -163 c141 -35 246 -142 298 -306 41 -126 50 -201 51 -422 2 -159 -2 -206 -19 -290 -12 -55 -23 -109 -26 -120 -7 -38 -56 -170 -82 -224 -48 -96 -84 -118 -222 -137 -89 -12 -310 -11 -375 1 -156 31 -258 125 -326 300 -6 15 -17 70 -20 97 0 2 -7 32 -14 68 -9 42 -14 132 -15 254 0 177 5 237 31 358 6 26 12 53 13 60 13 61 29 113 57 175 11 24 19 45 19 49 0 17 65 96 88 107 60 31 271 56 407 50 39 -2 99 -11 135 -20z"/>
<path d="M28317 7414 c-1 -1 -47 -4 -103 -7 -55 -3 -118 -10 -140 -15 -21 -6 -61 -17 -88 -24 -36 -10 -61 -26 -97 -63 -175 -180 -264 -472 -264 -865 0 -326 62 -526 205 -664 72 -70 192 -136 275 -151 22 -4 54 -10 70 -14 80 -17 421 -3 480 19 13 5 25 6 28 4 3 -3 20 1 39 9 19 8 55 18 79 22 27 5 53 18 71 35 24 24 28 37 28 82 0 29 5 71 10 93 11 47 18 155 29 425 l8 195 -21 32 -21 33 -216 0 c-193 0 -217 -2 -231 -17 -18 -21 -30 -113 -18 -132 9 -15 89 -16 232 -5 112 9 110 13 103 -165 -4 -80 -8 -148 -11 -152 -2 -4 -4 -42 -5 -85 -1 -102 -15 -175 -37 -195 -39 -36 -192 -62 -367 -61 -142 0 -189 9 -282 53 -130 62 -198 154 -247 337 -23 87 -25 110 -25 315 1 300 28 431 126 619 70 132 92 149 250 184 15 3 110 8 210 11 170 5 205 3 433 -27 65 -8 76 -6 85 23 37 122 38 121 -200 137 -115 8 -384 17 -388 14z"/>
<path d="M13532 7399 c-128 -14 -170 -43 -178 -119 -3 -38 -23 -130 -30 -141 -3 -6 -6 -85 -7 -177 -1 -193 11 -244 76 -318 67 -77 137 -102 402 -149 114 -20 214 -61 264 -108 47 -45 92 -148 99 -225 2 -34 -1 -97 -8 -140 -7 -42 -14 -86 -16 -97 -17 -129 -40 -152 -165 -167 -163 -21 -458 -9 -599 22 -136 31 -145 27 -128 -56 12 -57 32 -84 63 -84 12 0 35 -4 51 -10 47 -16 127 -22 354 -27 211 -4 235 -2 457 34 17 3 40 15 51 27 22 23 59 122 66 176 3 19 9 56 14 83 5 26 9 120 8 210 -2 140 -5 169 -24 215 -25 64 -37 82 -91 144 -72 81 -177 121 -426 162 -122 20 -183 42 -227 84 -41 39 -51 60 -68 149 -10 48 -10 76 0 130 6 37 13 86 15 108 6 70 20 99 55 119 29 17 58 20 239 24 185 4 267 -1 423 -25 34 -5 39 -2 57 28 22 35 27 75 12 97 -4 7 -26 18 -47 23 -54 14 -590 20 -692 8z"/>
<path d="M35263 7404 c-17 -8 -35 -50 -72 -174 -18 -58 -39 -125 -48 -150 -8 -25 -23 -76 -33 -115 -10 -38 -23 -83 -29 -100 -6 -16 -18 -57 -27 -90 -9 -33 -23 -78 -31 -100 -9 -22 -24 -71 -33 -110 -10 -38 -23 -83 -29 -100 -6 -16 -18 -57 -27 -90 -9 -33 -25 -84 -36 -114 -10 -30 -25 -80 -33 -110 -7 -31 -18 -69 -24 -86 -6 -16 -17 -55 -26 -85 -24 -84 -76 -251 -90 -290 -20 -56 -6 -70 68 -70 34 0 68 4 75 8 10 7 33 75 58 172 12 48 24 89 33 115 19 55 42 130 49 160 6 22 15 31 38 36 51 10 622 5 632 -6 5 -6 44 -114 87 -242 47 -141 82 -234 92 -237 8 -3 39 -6 68 -6 92 0 92 3 24 205 -32 97 -59 182 -59 188 0 7 -6 23 -13 37 -8 14 -17 41 -20 59 -4 18 -13 47 -21 64 -8 18 -17 46 -21 62 -4 17 -12 44 -19 60 -7 17 -75 219 -150 450 -76 231 -144 436 -151 455 -7 19 -20 61 -30 92 -25 81 -58 109 -131 114 -33 2 -65 1 -71 -2z m111 -319 c31 -103 57 -188 82 -255 12 -36 27 -81 33 -100 5 -19 18 -60 29 -90 11 -30 31 -95 46 -145 14 -49 33 -112 41 -140 8 -27 16 -59 17 -70 l3 -20 -270 -3 c-148 -1 -276 0 -283 3 -10 4 -10 10 1 32 8 16 18 48 22 73 4 25 11 52 16 61 4 9 11 31 14 48 3 18 16 65 29 104 13 40 29 92 36 117 7 25 16 56 20 70 4 14 13 45 20 70 7 25 16 56 20 70 5 14 20 66 35 115 29 96 52 142 64 129 4 -5 16 -36 25 -69z"/>
<path d="M21270 7390 l-444 -5 -7 -34 c-4 -18 -7 -406 -8 -861 0 -686 2 -831 14 -846 13 -18 36 -19 439 -22 262 -2 433 1 444 7 23 12 51 139 33 150 -6 4 -42 3 -79 -2 -37 -5 -198 -10 -359 -11 -248 -1 -294 1 -305 14 -10 12 -12 84 -8 339 l5 324 261 -2 260 -2 17 68 c13 52 14 69 4 76 -7 4 -133 7 -280 5 l-269 -3 0 321 c-1 177 2 326 6 333 8 12 433 14 609 2 54 -3 107 -3 117 1 23 8 43 70 38 118 -2 27 -8 35 -23 35 -11 0 -220 -2 -465 -5z"/>
</g>
</g>
  <g id="id4:id4" transform="matrix(1.25,0,0,1.25,0.0,0.0)"><g transform="translate(0.000000,724.800000) scale(0.040000,-0.040000)" fill="#641e64" stroke="none">
<path d="M35000 14068 c0 -6 17 -26 38 -45 20 -18 89 -79 152 -134 134 -119 453 -430 618 -603 291 -306 516 -636 598 -876 24 -71 29 -100 28 -180 -1 -111 -22 -171 -82 -233 -44 -46 -145 -98 -227 -118 -77 -18 -396 -19 -520 -1 -128 18 -626 27 -830 14 -180 -12 -450 -43 -575 -67 -319 -60 -553 -113 -583 -132 -13 -8 -18 -9 -54 -11 -16 -2 -23 -8 -23 -23 0 -18 4 -20 28 -14 33 9 48 10 332 26 283 16 815 16 1024 0 146 -11 375 -42 521 -72 112 -22 373 -110 452 -151 115 -60 159 -92 246 -177 93 -90 134 -155 176 -274 29 -83 31 -98 31 -225 -1 -252 -80 -497 -265 -817 -145 -251 -310 -475 -620 -842 -184 -218 -861 -883 -1118 -1098 -26 -21 -47 -43 -47 -47 0 -11 38 -10 45 1 3 6 45 29 93 52 351 168 1018 597 1397 898 826 657 1290 1337 1380 2023 19 141 19 381 1 518 -45 333 -190 699 -408 1024 -222 333 -441 572 -865 950 -23 21 -64 54 -91 74 -27 21 -102 78 -167 127 -131 101 -206 154 -314 223 -40 26 -109 70 -153 99 -43 29 -89 55 -100 59 -12 3 -39 19 -61 35 -43 31 -57 36 -57 17z"/>
<path d="M35483 12762 c-106 -38 -161 -104 -170 -202 -12 -125 75 -259 232 -357 108 -68 178 -92 289 -100 160 -10 263 29 331 125 26 38 30 52 30 111 0 158 -143 322 -354 404 -65 25 -93 30 -191 34 -94 3 -124 0 -167 -15z"/>
<path d="M13240 11310 c0 -5 5 -10 10 -10 6 0 10 5 10 10 0 6 -4 10 -10 10 -5 0 -10 -4 -10 -10z"/>
<path d="M13340 11230 c0 -5 5 -10 10 -10 6 0 10 5 10 10 0 6 -4 10 -10 10 -5 0 -10 -4 -10 -10z"/>
<path d="M4560 9470 c0 -5 5 -10 10 -10 6 0 10 5 10 10 0 6 -4 10 -10 10 -5 0 -10 -4 -10 -10z"/>
<path d="M18000 8610 c0 -5 5 -10 10 -10 6 0 10 5 10 10 0 6 -4 10 -10 10 -5 0 -10 -4 -10 -10z"/>
<path d="M7060 8210 c0 -5 5 -10 10 -10 6 0 10 5 10 10 0 6 -4 10 -10 10 -5 0 -10 -4 -10 -10z"/>
<path d="M6615 7390 c-3 -5 -23 -10 -44 -10 -22 0 -44 -6 -51 -15 -11 -13 -6 -14 36 -9 87 10 154 25 154 35 0 12 -87 12 -95 -1z"/>
<path d="M6970 7391 c0 -14 10 -18 63 -26 52 -8 62 3 20 23 -32 14 -83 16 -83 3z"/>
<path d="M13556 7384 c-3 -8 -10 -12 -16 -9 -5 3 -10 1 -10 -5 0 -6 8 -9 18 -7 9 3 38 8 65 12 62 8 61 25 -2 25 -35 0 -51 -4 -55 -16z"/>
<path d="M13990 7391 c0 -5 26 -12 58 -16 31 -3 67 -8 80 -11 l23 -5 -21 21 c-16 16 -33 20 -80 20 -33 0 -60 -4 -60 -9z"/>
<path d="M28153 7389 c-6 -6 -34 -11 -62 -11 -28 1 -51 -3 -51 -9 0 -5 0 -12 0 -16 0 -11 43 -13 55 -3 6 4 43 13 83 20 39 7 72 17 72 22 0 12 -84 10 -97 -3z"/>
<path d="M28570 7391 c0 -5 30 -12 68 -16 37 -3 78 -9 92 -12 l25 -6 -19 22 c-16 18 -30 21 -93 21 -40 0 -73 -4 -73 -9z"/>
<path d="M13465 7370 c-3 -5 -17 -10 -30 -10 -15 0 -29 -9 -36 -22 -10 -20 -10 -21 2 -12 8 6 32 15 54 19 50 9 61 15 44 26 -18 11 -26 11 -34 -1z"/>
<path d="M14200 7374 c0 -11 45 -42 53 -37 11 7 -22 43 -40 43 -7 0 -13 -3 -13 -6z"/>
<path d="M20834 7366 c-15 -12 -17 -17 -7 -27 10 -10 16 -9 28 7 26 35 15 46 -21 20z"/>
<path d="M21670 7375 c0 -3 9 -14 19 -24 15 -15 18 -26 12 -48 -7 -25 -11 -28 -42 -24 l-34 3 19 -21 c29 -32 62 -27 81 13 9 19 15 49 13 67 -3 30 -7 34 -35 36 -18 2 -33 1 -33 -2z"/>
<path d="M28825 7370 c-10 -16 4 -30 30 -30 32 0 39 -15 20 -44 -14 -21 -22 -24 -53 -19 -20 3 -41 10 -46 14 -14 12 -116 11 -116 -1 0 -5 15 -10 34 -10 19 0 38 -4 41 -10 3 -5 28 -10 54 -10 26 0 52 -5 58 -11 16 -16 54 11 51 37 -2 12 3 28 10 37 17 21 8 37 -18 30 -12 -3 -22 1 -26 11 -7 18 -29 21 -39 6z"/>
<path d="M35244 7356 c4 -18 1 -28 -10 -34 -11 -6 -15 -16 -11 -26 8 -21 27 -12 27 13 0 22 30 51 53 51 9 0 17 5 17 10 0 6 -18 10 -41 10 -39 0 -41 -1 -35 -24z"/>
<path d="M35352 7368 c3 -7 14 -14 26 -16 12 -2 28 -12 36 -23 8 -12 17 -16 20 -10 4 5 2 12 -4 16 -5 3 -10 15 -10 26 0 15 -7 19 -36 19 -24 0 -34 -4 -32 -12z"/>
<path d="M7100 7355 c7 -8 16 -13 20 -10 4 3 13 -1 19 -9 7 -8 20 -12 30 -9 10 3 22 0 25 -6 4 -6 15 -11 25 -11 20 0 81 -59 81 -79 0 -20 56 -71 79 -71 17 0 52 -45 51 -65 0 -3 7 -17 16 -31 12 -17 20 -22 27 -15 12 12 -9 60 -31 74 -7 5 -16 17 -20 27 -10 26 -132 151 -142 145 -5 -3 -17 5 -27 17 -29 35 -61 50 -93 43 -16 -3 -31 -2 -35 4 -3 6 -13 11 -22 11 -13 0 -13 -3 -3 -15z"/>
<path d="M6409 7328 c-19 -18 -42 -31 -51 -29 -13 2 -17 -4 -16 -23 l2 -24 47 39 c26 21 56 39 68 39 12 0 21 6 21 15 0 25 -36 17 -71 -17z"/>
<path d="M27942 7346 c-12 -6 -21 -18 -20 -26 3 -17 -71 -100 -88 -100 -7 0 -11 -11 -10 -24 1 -18 4 -22 14 -14 6 6 12 14 12 19 0 16 114 124 130 124 20 0 20 29 0 31 -8 1 -25 -3 -38 -10z"/>
<path d="M6848 7303 c-94 -6 -66 -23 37 -23 52 0 95 4 95 9 0 12 -27 21 -53 19 -12 -1 -48 -3 -79 -5z"/>
<path d="M14236 7301 c-4 -5 -35 -7 -71 -4 -36 2 -65 0 -65 -4 0 -36 114 -48 143 -15 10 10 17 22 17 25 0 10 -18 8 -24 -2z"/>
<path d="M6750 7290 c0 -5 7 -10 15 -10 8 0 15 5 15 10 0 6 -7 10 -15 10 -8 0 -15 -4 -15 -10z"/>
<path d="M7020 7292 c0 -15 24 -32 45 -32 12 0 26 -5 32 -11 13 -13 43 -5 43 10 0 5 -22 16 -49 25 -56 18 -71 20 -71 8z"/>
<path d="M13800 7290 c0 -5 5 -10 10 -10 6 0 10 5 10 10 0 6 -4 10 -10 10 -5 0 -10 -4 -10 -10z"/>
<path d="M13840 7290 c0 -5 5 -10 10 -10 6 0 10 5 10 10 0 6 -4 10 -10 10 -5 0 -10 -4 -10 -10z"/>
<path d="M13880 7290 c0 -5 25 -10 55 -10 30 0 55 5 55 10 0 6 -25 10 -55 10 -30 0 -55 -4 -55 -10z"/>
<path d="M14030 7290 c0 -5 7 -10 15 -10 8 0 15 5 15 10 0 6 -7 10 -15 10 -8 0 -15 -4 -15 -10z"/>
<path d="M28360 7290 c0 -5 5 -10 10 -10 6 0 10 5 10 10 0 6 -4 10 -10 10 -5 0 -10 -4 -10 -10z"/>
<path d="M28400 7290 c0 -5 5 -10 10 -10 6 0 10 5 10 10 0 6 -4 10 -10 10 -5 0 -10 -4 -10 -10z"/>
<path d="M28440 7290 c0 -5 5 -10 10 -10 6 0 10 5 10 10 0 6 -4 10 -10 10 -5 0 -10 -4 -10 -10z"/>
<path d="M28480 7290 c0 -5 5 -10 10 -10 6 0 10 5 10 10 0 6 -4 10 -10 10 -5 0 -10 -4 -10 -10z"/>
<path d="M28520 7290 c0 -5 18 -10 40 -10 22 0 40 5 40 10 0 6 -18 10 -40 10 -22 0 -40 -4 -40 -10z"/>
<path d="M6602 7278 c7 -19 35 -21 41 -3 5 11 0 15 -19 15 -16 0 -24 -5 -22 -12z"/>
<path d="M13518 7273 c-40 -12 -48 -18 -48 -39 0 -21 3 -23 18 -15 10 5 24 17 32 25 7 9 23 16 35 16 13 0 25 7 29 15 6 18 -3 18 -66 -2z"/>
<path d="M28155 7281 c-10 -17 12 -21 25 -6 10 12 10 15 -3 15 -9 0 -18 -4 -22 -9z"/>
<path d="M35430 7284 c0 -23 31 -85 40 -79 6 3 10 12 10 18 0 16 -49 76 -50 61z"/>
<path d="M6538 7269 c-27 -15 -21 -29 7 -16 14 7 25 15 25 20 0 10 -11 8 -32 -4z"/>
<path d="M13362 7263 c5 -25 28 -28 28 -4 0 12 -6 21 -16 21 -9 0 -14 -7 -12 -17z"/>
<path d="M20980 7270 c0 -5 5 -10 10 -10 6 0 10 5 10 10 0 6 -4 10 -10 10 -5 0 -10 -4 -10 -10z"/>
<path d="M21560 7270 c0 -5 14 -10 30 -10 17 0 30 5 30 10 0 6 -13 10 -30 10 -16 0 -30 -4 -30 -10z"/>
<path d="M28054 7266 c-37 -10 -104 -69 -104 -92 0 -4 -10 -19 -22 -32 l-23 -25 37 24 c21 13 38 31 38 40 0 19 20 39 40 39 8 0 26 9 40 20 14 11 35 20 48 20 12 0 22 5 22 10 0 12 -22 11 -76 -4z"/>
<path d="M20945 7257 c-4 -10 -5 -21 -1 -24 10 -10 18 4 13 24 l-4 18 -8 -18z"/>
<path d="M35324 7252 c-10 -7 -54 -132 -54 -153 0 -8 5 -7 15 1 8 7 15 23 15 36 0 12 5 26 10 29 6 3 10 15 10 25 0 25 17 35 36 19 17 -14 29 -6 21 15 -8 19 -40 36 -53 28z"/>
<path d="M6453 7231 c-13 -11 -23 -22 -23 -26 0 -4 -9 -18 -20 -32 -11 -14 -20 -33 -20 -43 0 -9 -9 -25 -20 -35 -12 -11 -20 -31 -20 -51 0 -49 26 -34 33 19 3 23 13 46 21 53 9 6 16 18 16 27 0 9 5 19 10 22 6 4 8 10 5 15 -3 4 7 22 21 39 29 35 29 38 -3 12z"/>
<path d="M7160 7243 c1 -18 28 -43 46 -43 18 0 74 -59 74 -78 0 -5 12 -18 27 -27 l27 -18 -22 28 c-12 15 -22 33 -22 39 0 7 -20 32 -45 56 -25 24 -45 40 -45 35 0 -5 -5 -4 -12 3 -13 13 -28 16 -28 5z"/>
<path d="M35211 7236 c-8 -10 -9 -16 -1 -21 5 -3 13 1 16 10 9 22 -1 29 -15 11z"/>
<path d="M6307 7233 c-10 -9 -9 -23 2 -23 5 0 11 7 15 15 5 15 -5 20 -17 8z"/>
<path d="M13351 7201 c-8 -6 -11 -16 -7 -27 5 -12 10 -14 17 -7 16 16 7 45 -10 34z"/>
<path d="M35182 7168 c6 -18 28 -21 28 -4 0 9 -7 16 -16 16 -9 0 -14 -5 -12 -12z"/>
<path d="M35367 7173 c-13 -12 -7 -33 8 -33 8 0 15 9 15 20 0 20 -11 26 -23 13z"/>
<path d="M6260 7140 c-20 -28 -22 -60 -3 -60 9 0 36 80 30 87 -3 2 -15 -10 -27 -27z"/>
<path d="M13450 7145 c-13 -34 -13 -95 0 -95 6 0 10 13 10 29 0 17 5 33 10 36 13 8 13 42 0 50 -6 3 -15 -6 -20 -20z"/>
<path d="M35470 7156 c0 -4 4 -14 9 -24 5 -9 12 -26 16 -36 4 -15 8 -17 18 -7 9 9 8 18 -5 38 -15 26 -38 42 -38 29z"/>
<path d="M35171 7121 c-8 -5 -11 -16 -8 -25 10 -25 27 -19 27 9 0 28 0 28 -19 16z"/>
<path d="M35387 7113 c-13 -12 -7 -33 8 -33 8 0 15 9 15 20 0 20 -11 26 -23 13z"/>
<path d="M27770 7090 c0 -5 5 -10 10 -10 6 0 10 5 10 10 0 6 -4 10 -10 10 -5 0 -10 -4 -10 -10z"/>
<path d="M27880 7081 c-5 -11 -10 -26 -10 -34 0 -8 -9 -22 -20 -32 -11 -10 -20 -31 -20 -47 0 -42 23 -30 32 17 5 22 15 46 22 54 17 20 27 61 15 61 -4 0 -13 -9 -19 -19z"/>
<path d="M7326 7062 c-3 -6 -1 -14 5 -17 15 -10 25 3 12 16 -7 7 -13 7 -17 1z"/>
<path d="M13333 7063 c-16 -6 -18 -123 -3 -123 6 0 10 11 10 25 0 14 5 34 12 44 14 23 0 61 -19 54z"/>
<path d="M6225 7051 c-6 -11 9 -23 19 -14 9 9 7 23 -3 23 -6 0 -12 -4 -16 -9z"/>
<path d="M35254 7035 c-9 -22 1 -29 15 -11 8 10 9 16 1 21 -5 3 -13 -1 -16 -10z"/>
<path d="M35135 7014 c-17 -27 -13 -58 7 -52 6 2 12 13 13 24 2 10 6 27 10 37 11 26 -11 20 -30 -9z"/>
<path d="M35510 7036 c0 -4 4 -14 9 -24 5 -9 12 -26 16 -36 4 -15 8 -17 18 -7 9 9 8 18 -5 38 -15 26 -38 42 -38 29z"/>
<path d="M7470 7017 c0 -19 16 -31 24 -18 3 5 -1 14 -9 21 -12 10 -15 10 -15 -3z"/>
<path d="M7350 7010 c0 -5 5 -10 11 -10 5 0 7 5 4 10 -3 6 -8 10 -11 10 -2 0 -4 -4 -4 -10z"/>
<path d="M13440 6965 c0 -30 5 -55 10 -55 6 0 10 25 10 55 0 30 -4 55 -10 55 -5 0 -10 -25 -10 -55z"/>
<path d="M6211 6996 c-8 -10 -9 -16 -1 -21 5 -3 13 1 16 10 9 22 -1 29 -15 11z"/>
<path d="M6328 6986 c-22 -16 -29 -86 -8 -86 6 0 13 8 16 18 3 9 11 27 17 40 13 28 -1 46 -25 28z"/>
<path d="M35235 6979 c-4 -6 -5 -13 -2 -16 7 -7 27 6 27 18 0 12 -17 12 -25 -2z"/>
<path d="M35426 6982 c-3 -6 -1 -14 5 -17 15 -10 25 3 12 16 -7 7 -13 7 -17 1z"/>
<path d="M7492 6947 c3 -24 21 -27 26 -4 2 8 -4 17 -13 21 -13 4 -16 1 -13 -17z"/>
<path d="M27705 6951 c-6 -11 9 -23 19 -14 9 9 7 23 -3 23 -6 0 -12 -4 -16 -9z"/>
<path d="M6191 6941 c-8 -6 -11 -16 -7 -27 5 -12 10 -14 17 -7 16 16 7 45 -10 34z"/>
<path d="M35102 6904 c4 -21 22 -23 26 -1 2 10 -3 17 -13 17 -10 0 -15 -6 -13 -16z"/>
<path d="M35206 6896 c-20 -32 -21 -76 -1 -76 8 0 15 9 15 20 0 11 6 29 12 40 20 32 -5 47 -26 16z"/>
<path d="M35550 6916 c0 -4 4 -14 9 -24 5 -9 12 -26 16 -36 4 -15 8 -17 18 -7 9 9 8 18 -5 38 -15 26 -38 42 -38 29z"/>
<path d="M27810 6885 c-13 -33 -13 -45 0 -45 6 0 10 8 10 18 0 10 5 23 11 29 8 8 8 13 0 17 -6 4 -15 -4 -21 -19z"/>
<path d="M7385 6882 c-15 -39 8 -58 49 -42 18 7 22 14 19 34 -4 20 -10 25 -34 23 -16 -1 -31 -8 -34 -15z"/>
<path d="M27684 6884 c3 -9 6 -18 6 -20 0 -3 5 -2 10 1 16 10 12 35 -6 35 -11 0 -14 -5 -10 -16z"/>
<path d="M7507 6870 c-6 -25 18 -47 27 -24 9 24 7 31 -8 37 -8 3 -16 -2 -19 -13z"/>
<path d="M13320 6851 c0 -16 6 -31 15 -35 16 -6 20 18 9 48 -10 26 -24 18 -24 -13z"/>
<path d="M13443 6830 c5 -52 87 -160 122 -160 13 0 27 -4 30 -10 3 -5 13 -10 22 -10 13 0 13 3 3 15 -7 8 -16 12 -21 9 -5 -3 -12 2 -15 10 -3 9 -13 16 -21 16 -27 0 -73 39 -66 57 4 9 -1 19 -10 25 -9 4 -14 15 -11 22 3 8 1 17 -5 21 -6 3 -11 15 -11 26 0 10 -5 19 -11 19 -6 0 -9 -16 -6 -40z"/>
<path d="M35466 6862 c-3 -6 -1 -14 5 -17 15 -10 25 3 12 16 -7 7 -13 7 -17 1z"/>
<path d="M6172 6837 c-10 -11 -11 -21 -3 -34 9 -17 10 -17 16 -1 4 9 5 25 3 34 -3 16 -4 16 -16 1z"/>
<path d="M35091 6836 c-7 -8 -8 -17 -3 -20 6 -3 15 1 21 8 7 8 8 17 3 20 -6 3 -15 -1 -21 -8z"/>
<path d="M6282 6810 c-15 -34 -13 -72 6 -78 8 -2 12 7 12 25 0 16 5 34 11 40 12 12 6 43 -8 43 -5 0 -14 -13 -21 -30z"/>
<path d="M27797 6823 c-4 -3 -7 -13 -7 -21 0 -12 3 -12 15 -2 8 7 15 16 15 21 0 11 -14 12 -23 2z"/>
<path d="M27665 6790 c-3 -5 -2 -10 4 -10 5 0 13 5 16 10 3 6 2 10 -4 10 -5 0 -13 -4 -16 -10z"/>
<path d="M35590 6791 c0 -5 5 -13 10 -16 6 -3 10 -15 10 -25 0 -25 19 -35 27 -15 3 10 0 21 -8 26 -8 4 -14 14 -14 20 0 7 -6 14 -12 17 -7 2 -13 -1 -13 -7z"/>
<path d="M35071 6781 c-7 -5 -11 -15 -9 -22 3 -8 -1 -22 -10 -31 -14 -17 -11 -48 6 -48 9 0 37 98 30 105 -2 2 -10 0 -17 -4z"/>
<path d="M35480 6776 c0 -8 7 -16 15 -20 10 -4 15 1 15 14 0 11 -7 20 -15 20 -8 0 -15 -6 -15 -14z"/>
<path d="M35176 6773 c-13 -13 -6 -42 9 -37 16 7 20 30 6 38 -4 3 -11 3 -15 -1z"/>
<path d="M7532 6745 c4 -32 22 -38 26 -9 2 13 -4 24 -13 28 -13 5 -16 0 -13 -19z"/>
<path d="M13346 6762 c-3 -6 -1 -14 5 -17 14 -9 20 -2 10 14 -6 8 -11 9 -15 3z"/>
<path d="M7406 6743 c-11 -12 -6 -41 9 -47 11 -4 15 1 15 19 0 25 -12 39 -24 28z"/>
<path d="M35510 6730 c0 -5 5 -10 11 -10 5 0 7 5 4 10 -3 6 -8 10 -11 10 -2 0 -4 -4 -4 -10z"/>
<path d="M20950 6710 c0 -13 5 -18 15 -14 8 4 15 10 15 14 0 4 -7 10 -15 14 -10 4 -15 -1 -15 -14z"/>
<path d="M6277 6703 c-13 -12 -7 -43 8 -43 9 0 15 9 15 25 0 24 -10 32 -23 18z"/>
<path d="M35155 6699 c-4 -6 -5 -13 -2 -16 7 -7 27 6 27 18 0 12 -17 12 -25 -2z"/>
<path d="M6145 6690 c-3 -5 -2 -10 4 -10 5 0 13 5 16 10 3 6 2 10 -4 10 -5 0 -13 -4 -16 -10z"/>
<path d="M27653 6683 c-15 -5 -18 -73 -3 -73 9 0 26 68 19 74 -2 2 -10 1 -16 -1z"/>
<path d="M27770 6671 c-13 -25 -13 -181 0 -181 6 0 10 35 10 84 0 47 5 88 10 91 6 3 10 10 10 16 0 16 -19 10 -30 -10z"/>
<path d="M13411 6640 c18 -23 39 -38 46 -36 7 3 15 1 18 -4 8 -13 25 -13 25 0 0 6 -6 10 -14 10 -8 0 -21 8 -28 18 -13 17 -62 52 -73 52 -3 0 9 -18 26 -40z"/>
<path d="M35630 6676 c0 -4 4 -14 9 -24 5 -9 12 -26 16 -36 4 -15 8 -17 18 -7 9 9 8 18 -5 38 -15 26 -38 42 -38 29z"/>
<path d="M35527 6663 c-11 -10 -8 -20 8 -27 10 -4 15 1 15 14 0 20 -11 26 -23 13z"/>
<path d="M13667 6653 c-14 -13 -6 -23 18 -23 18 0 23 4 19 15 -6 16 -26 20 -37 8z"/>
<path d="M35020 6620 c-20 -28 -22 -60 -3 -60 9 0 36 80 30 87 -3 2 -15 -10 -27 -27z"/>
<path d="M13752 6628 c5 -14 86 -33 96 -24 3 4 -3 13 -14 21 -24 18 -87 20 -82 3z"/>
<path d="M35126 6618 c-20 -28 -21 -78 -2 -78 10 0 15 15 18 50 1 28 2 50 1 50 -1 0 -9 -10 -17 -22z"/>
<path d="M35546 6613 c-12 -12 -6 -33 9 -33 8 0 15 6 15 14 0 17 -14 28 -24 19z"/>
<path d="M13902 6599 c2 -7 10 -15 17 -17 8 -3 12 1 9 9 -2 7 -10 15 -17 17 -8 3 -12 -1 -9 -9z"/>
<path d="M20950 6588 c0 -29 46 -56 64 -38 5 5 25 10 43 10 18 0 33 5 33 10 0 6 -20 10 -45 10 -25 0 -57 7 -70 16 l-25 16 0 -24z"/>
<path d="M13957 6593 c-12 -11 13 -31 32 -26 10 3 22 0 25 -6 4 -6 17 -11 29 -11 25 0 122 -70 122 -88 0 -6 10 -19 22 -27 12 -9 27 -33 33 -54 9 -36 44 -80 55 -69 3 3 -8 31 -25 63 -16 31 -30 63 -30 70 0 12 -64 67 -76 64 -3 0 -19 12 -35 27 -16 15 -29 24 -29 18 0 -5 -7 -1 -15 10 -9 12 -21 17 -35 13 -13 -3 -23 0 -27 9 -5 14 -34 19 -46 7z"/>
<path d="M13520 6575 c0 -10 7 -15 18 -13 21 4 19 22 -2 26 -10 2 -16 -3 -16 -13z"/>
<path d="M13583 6573 c-7 -2 -9 -11 -6 -19 6 -16 39 -19 48 -5 7 12 -25 30 -42 24z"/>
<path d="M21130 6570 c0 -5 9 -10 20 -10 11 0 20 5 20 10 0 6 -9 10 -20 10 -11 0 -20 -4 -20 -10z"/>
<path d="M21470 6573 c1 -17 47 -41 61 -33 11 8 10 12 -6 24 -21 16 -55 21 -55 9z"/>
<path d="M13640 6552 c0 -15 24 -32 47 -32 22 0 31 14 16 23 -18 10 -63 17 -63 9z"/>
<path d="M35670 6556 c0 -4 4 -14 9 -24 5 -9 12 -26 16 -36 4 -15 8 -17 18 -7 9 9 8 18 -5 38 -15 26 -38 42 -38 29z"/>
<path d="M13740 6531 c0 -6 17 -11 38 -11 21 0 44 -6 51 -12 10 -11 12 -9 9 7 -2 16 -12 21 -51 23 -28 2 -47 -1 -47 -7z"/>
<path d="M28467 6533 c-2 -5 -5 -27 -6 -51 -2 -30 2 -44 13 -48 29 -11 36 0 21 30 -20 37 -13 56 20 56 14 0 25 5 25 10 0 12 -67 14 -73 3z"/>
<path d="M28550 6530 c0 -6 45 -10 115 -10 70 0 115 4 115 10 0 6 -45 10 -115 10 -70 0 -115 -4 -115 -10z"/>
<path d="M28800 6530 c0 -5 17 -10 39 -10 23 0 44 -6 51 -15 11 -13 15 -13 21 -3 20 30 9 38 -51 38 -33 0 -60 -4 -60 -10z"/>
<path d="M35560 6531 c0 -5 7 -11 15 -15 9 -3 15 0 15 9 0 8 -7 15 -15 15 -8 0 -15 -4 -15 -9z"/>
<path d="M34982 6504 c4 -21 22 -23 26 -1 2 10 -3 17 -13 17 -10 0 -15 -6 -13 -16z"/>
<path d="M13877 6495 c6 -18 34 -16 41 3 2 7 -6 12 -22 12 -19 0 -24 -4 -19 -15z"/>
<path d="M35089 6483 c-6 -15 -13 -43 -16 -61 -5 -26 -3 -31 10 -27 9 4 15 19 15 41 0 19 5 41 11 48 8 10 9 16 1 21 -5 3 -15 -6 -21 -22z"/>
<path d="M13952 6488 c3 -7 17 -19 32 -26 15 -8 30 -20 33 -28 3 -9 13 -12 23 -9 20 7 44 -19 45 -48 0 -13 13 -28 32 -40 l33 -19 -14 27 c-22 43 -63 83 -121 120 -59 38 -69 42 -63 23z"/>
<path d="M21490 6489 c-8 -5 -27 -9 -42 -9 -16 0 -28 -4 -28 -10 0 -5 23 -9 50 -9 34 1 50 6 50 15 0 18 -13 24 -30 13z"/>
<path d="M35582 6479 c2 -7 10 -15 17 -17 8 -3 12 1 9 9 -2 7 -10 15 -17 17 -8 3 -12 -1 -9 -9z"/>
<path d="M20980 6470 c0 -5 5 -10 10 -10 6 0 10 5 10 10 0 6 -4 10 -10 10 -5 0 -10 -4 -10 -10z"/>
<path d="M21320 6470 c0 -5 5 -10 10 -10 6 0 10 5 10 10 0 6 -4 10 -10 10 -5 0 -10 -4 -10 -10z"/>
<path d="M21360 6470 c0 -5 5 -10 10 -10 6 0 10 5 10 10 0 6 -4 10 -10 10 -5 0 -10 -4 -10 -10z"/>
<path d="M20946 6461 c-4 -7 -5 -15 -2 -18 9 -9 19 4 14 18 -4 11 -6 11 -12 0z"/>
<path d="M34976 6435 c-3 -8 -1 -15 4 -15 6 0 10 7 10 15 0 8 -2 15 -4 15 -2 0 -6 -7 -10 -15z"/>
<path d="M28520 6430 c0 -5 16 -10 35 -10 19 0 35 5 35 10 0 6 -16 10 -35 10 -19 0 -35 -4 -35 -10z"/>
<path d="M28760 6430 c0 -5 5 -10 10 -10 6 0 10 5 10 10 0 6 -4 10 -10 10 -5 0 -10 -4 -10 -10z"/>
<path d="M35710 6433 c0 -5 4 -15 10 -23 11 -18 25 -7 17 15 -6 15 -27 21 -27 8z"/>
<path d="M35610 6411 c0 -6 5 -13 10 -16 6 -3 10 1 10 9 0 9 -4 16 -10 16 -5 0 -10 -4 -10 -9z"/>
<path d="M34951 6381 c-7 -5 -10 -14 -6 -21 4 -6 -1 -20 -10 -30 -10 -11 -15 -26 -11 -35 8 -22 29 -14 32 11 1 10 5 34 9 52 8 35 7 36 -14 23z"/>
<path d="M35730 6381 c0 -5 5 -13 10 -16 6 -3 10 -2 10 4 0 5 -4 13 -10 16 -5 3 -10 2 -10 -4z"/>
<path d="M7413 6363 c-15 -5 -18 -83 -4 -83 9 0 27 78 19 84 -1 2 -9 1 -15 -1z"/>
<path d="M35050 6344 c0 -8 5 -12 10 -9 6 3 10 10 10 16 0 5 -4 9 -10 9 -5 0 -10 -7 -10 -16z"/>
<path d="M35624 6346 c-4 -11 -1 -21 7 -27 17 -11 26 18 10 34 -7 7 -12 5 -17 -7z"/>
<path d="M6272 6303 c2 -14 9 -28 16 -31 18 -6 15 45 -4 52 -12 5 -15 0 -12 -21z"/>
<path d="M7527 6303 c-31 -62 -32 -158 -1 -146 10 4 14 24 14 72 0 37 5 72 11 78 7 7 7 13 0 17 -5 4 -16 -6 -24 -21z"/>
<path d="M35745 6310 c-7 -11 34 -70 48 -70 5 0 3 7 -4 16 -8 9 -12 27 -11 40 3 24 -20 34 -33 14z"/>
<path d="M35030 6295 c-10 -12 -9 -20 4 -40 9 -14 18 -25 19 -25 2 0 4 15 5 34 3 39 -10 53 -28 31z"/>
<path d="M14152 6288 c2 -6 10 -14 16 -16 7 -2 10 2 6 12 -7 18 -28 22 -22 4z"/>
<path d="M6156 6267 c3 -10 9 -15 12 -12 3 3 0 11 -7 18 -10 9 -11 8 -5 -6z"/>
<path d="M35633 6253 c-14 -30 -11 -38 12 -30 15 6 22 57 8 57 -5 0 -14 -12 -20 -27z"/>
<path d="M27645 6250 c-4 -7 0 -19 9 -28 15 -15 16 -15 16 1 0 9 0 20 1 24 1 13 -19 15 -26 3z"/>
<path d="M14263 6234 c-3 -8 -1 -20 6 -27 6 -6 11 -43 11 -84 0 -42 4 -73 10 -73 6 0 10 38 10 94 0 75 -3 95 -15 100 -9 3 -18 -1 -22 -10z"/>
<path d="M34912 6238 c-14 -14 -16 -38 -3 -38 10 0 26 39 19 46 -2 2 -10 -2 -16 -8z"/>
<path d="M27772 6229 c2 -7 10 -15 17 -17 8 -3 12 1 9 9 -2 7 -10 15 -17 17 -8 3 -12 -1 -9 -9z"/>
<path d="M14166 6203 c-11 -11 -7 -203 4 -203 6 0 10 28 10 65 0 55 3 66 21 75 26 14 22 50 -8 61 -11 4 -24 5 -27 2z"/>
<path d="M35786 6194 c-3 -8 4 -28 16 -44 21 -29 38 -35 22 -8 -5 7 -7 23 -6 34 4 25 -24 40 -32 18z"/>
<path d="M7385 6189 c-4 -6 -5 -13 -2 -16 7 -7 27 6 27 18 0 12 -17 12 -25 -2z"/>
<path d="M28785 6189 c-4 -6 -5 -13 -2 -16 7 -7 27 6 27 18 0 12 -17 12 -25 -2z"/>
<path d="M34890 6170 c0 -5 5 -10 10 -10 6 0 10 5 10 10 0 6 -4 10 -10 10 -5 0 -10 -4 -10 -10z"/>
<path d="M6290 6158 c0 -18 18 -34 28 -24 3 4 -2 14 -11 23 -16 16 -17 16 -17 1z"/>
<path d="M6166 6142 c-3 -6 -1 -14 5 -17 15 -10 25 3 12 16 -7 7 -13 7 -17 1z"/>
<path d="M35328 6143 c-375 -5 -331 -22 62 -25 176 -2 320 0 320 4 0 15 -41 28 -82 26 -24 -2 -159 -4 -300 -5z"/>
<path d="M27666 6124 c-9 -22 -8 -24 9 -24 8 0 15 6 15 14 0 22 -17 28 -24 10z"/>
<path d="M7371 6121 c-8 -6 -11 -16 -6 -31 9 -27 28 -12 23 19 -2 14 -7 18 -17 12z"/>
<path d="M27788 6112 c-3 -10 5 -31 18 -48 13 -16 24 -24 24 -17 0 6 -5 15 -10 18 -6 4 -8 15 -5 24 3 10 -1 23 -9 30 -11 9 -15 8 -18 -7z"/>
<path d="M34987 6116 c-4 -10 -5 -21 -2 -24 9 -9 17 6 13 25 l-4 18 -7 -19z"/>
<path d="M34862 6104 c4 -21 22 -23 26 -1 2 10 -3 17 -13 17 -10 0 -15 -6 -13 -16z"/>
<path d="M7483 6087 c-15 -16 -19 -31 -16 -55 4 -21 0 -39 -9 -50 -20 -23 -32 -85 -16 -80 7 3 16 24 21 47 5 23 15 45 23 48 9 3 14 19 14 42 0 20 5 42 11 48 6 6 7 13 1 17 -5 3 -18 -5 -29 -17z"/>
<path d="M6310 6070 c0 -29 52 -151 79 -183 8 -9 19 -27 25 -39 6 -13 21 -28 34 -34 12 -6 30 -17 39 -25 30 -24 62 -39 82 -39 11 0 23 -4 26 -10 3 -5 17 -10 30 -10 18 0 23 4 18 16 -4 10 -14 14 -30 11 -13 -2 -27 1 -31 8 -7 12 -39 28 -57 30 -15 1 -125 112 -125 126 0 6 -11 20 -25 31 -18 14 -23 26 -19 42 3 14 -1 27 -9 35 -8 6 -13 20 -10 30 3 11 -2 21 -11 24 -11 5 -16 1 -16 -13z"/>
<path d="M35720 6080 c0 -5 5 -10 10 -10 6 0 10 5 10 10 0 6 -4 10 -10 10 -5 0 -10 -4 -10 -10z"/>
<path d="M35825 6070 c-6 -10 35 -73 43 -66 2 3 0 11 -4 18 -5 7 -7 23 -5 36 3 23 -22 32 -34 12z"/>
<path d="M6186 6062 c-3 -6 -1 -14 5 -17 14 -9 20 -2 10 14 -6 8 -11 9 -15 3z"/>
<path d="M34950 6035 c0 -24 5 -35 15 -35 10 0 15 11 15 35 0 24 -5 35 -15 35 -10 0 -15 -11 -15 -35z"/>
<path d="M27685 6050 c3 -5 10 -10 16 -10 5 0 9 5 9 10 0 6 -7 10 -16 10 -8 0 -12 -4 -9 -10z"/>
<path d="M7352 6038 c-14 -14 -16 -38 -3 -38 10 0 26 39 19 46 -2 2 -10 -2 -16 -8z"/>
<path d="M34851 6036 c-7 -8 -8 -17 -3 -20 6 -3 15 1 21 8 7 8 8 17 3 20 -6 3 -15 -1 -21 -8z"/>
<path d="M28890 6024 c0 -14 3 -14 15 -4 8 7 15 14 15 16 0 2 -7 4 -15 4 -8 0 -15 -7 -15 -16z"/>
<path d="M35736 6025 c4 -8 11 -15 16 -15 6 0 5 6 -2 15 -7 8 -14 15 -16 15 -2 0 -1 -7 2 -15z"/>
<path d="M14277 6023 c-13 -12 -7 -43 8 -43 9 0 15 9 15 25 0 24 -10 32 -23 18z"/>
<path d="M27830 6011 c0 -23 26 -75 45 -91 8 -7 13 -16 10 -20 -7 -11 102 -98 151 -121 24 -10 46 -24 49 -29 4 -6 10 -8 15 -5 5 3 11 1 15 -5 3 -5 17 -10 30 -10 18 0 23 4 18 16 -4 10 -13 14 -28 10 -14 -4 -28 0 -35 9 -7 8 -16 13 -20 10 -4 -3 -13 2 -20 10 -7 8 -16 13 -20 10 -4 -3 -13 2 -20 10 -7 8 -20 15 -29 15 -18 0 -92 72 -95 93 -1 7 -11 22 -23 34 -14 14 -19 29 -16 45 3 17 0 27 -11 31 -11 4 -16 1 -16 -12z"/>
<path d="M27706 6002 c-3 -6 -1 -14 5 -17 14 -9 20 -2 10 14 -6 8 -11 9 -15 3z"/>
<path d="M34831 5981 c-7 -5 -11 -15 -9 -22 3 -8 -1 -22 -10 -31 -14 -17 -11 -48 6 -48 9 0 37 98 30 105 -2 2 -10 0 -17 -4z"/>
<path d="M35746 5982 c-3 -6 -1 -14 5 -17 15 -10 25 3 12 16 -7 7 -13 7 -17 1z"/>
<path d="M7330 5966 c0 -7 -6 -19 -13 -25 -8 -6 -24 -32 -36 -58 -13 -27 -26 -54 -30 -61 -3 -7 -19 -21 -36 -30 -16 -9 -33 -22 -37 -28 -4 -6 -19 -9 -32 -7 -27 5 -86 -16 -86 -31 0 -11 91 1 104 14 6 6 20 10 33 10 16 0 34 16 62 54 23 30 45 57 51 61 5 3 10 16 10 28 0 12 7 35 15 51 18 34 18 36 5 36 -5 0 -10 -6 -10 -14z"/>
<path d="M28880 5960 c0 -11 5 -20 10 -20 6 0 10 9 10 20 0 11 -4 20 -10 20 -5 0 -10 -9 -10 -20z"/>
<path d="M28773 5963 c-15 -5 -18 -103 -4 -103 8 0 26 99 19 105 -2 1 -9 0 -15 -2z"/>
<path d="M35866 5954 c-3 -8 4 -28 16 -44 21 -29 38 -35 22 -8 -5 7 -7 23 -6 34 4 25 -24 40 -32 18z"/>
<path d="M34926 5938 c-20 -28 -21 -78 -2 -78 9 0 15 15 18 48 5 57 4 59 -16 30z"/>
<path d="M27750 5916 c0 -9 5 -16 10 -16 6 0 10 4 10 9 0 6 -4 13 -10 16 -5 3 -10 -1 -10 -9z"/>
<path d="M14145 5909 c-4 -6 -5 -13 -2 -16 7 -7 27 6 27 18 0 12 -17 12 -25 -2z"/>
<path d="M28880 5901 c0 -10 -3 -33 -6 -50 -5 -24 -3 -31 10 -31 13 0 16 11 16 50 0 28 -4 50 -10 50 -5 0 -10 -8 -10 -19z"/>
<path d="M27838 5805 c42 -41 77 -73 79 -72 4 5 -139 147 -148 147 -4 0 27 -34 69 -75z"/>
<path d="M14251 5852 c-5 -9 -13 -35 -17 -57 -10 -53 -41 -103 -76 -121 -16 -8 -26 -19 -23 -24 6 -10 38 5 79 37 20 16 26 28 21 43 -4 13 -1 22 9 26 11 4 16 19 16 44 0 22 5 42 10 45 6 3 10 10 10 16 0 15 -19 10 -29 -9z"/>
<path d="M35786 5862 c-3 -6 -1 -14 5 -17 15 -10 25 3 12 16 -7 7 -13 7 -17 1z"/>
<path d="M14133 5843 c-7 -3 -13 -17 -13 -32 0 -38 -17 -51 -70 -51 -41 0 -70 -13 -70 -31 0 -11 111 -1 127 12 36 30 57 112 26 102z"/>
<path d="M34791 5836 c-8 -9 -11 -19 -7 -23 9 -9 29 13 24 27 -2 8 -8 7 -17 -4z"/>
<path d="M6285 5830 c3 -5 11 -10 16 -10 6 0 7 5 4 10 -3 6 -11 10 -16 10 -6 0 -7 -4 -4 -10z"/>
<path d="M7382 5828 c-7 -7 -12 -17 -12 -23 0 -7 -9 -20 -20 -30 -11 -10 -20 -24 -20 -32 0 -8 8 -5 23 10 12 12 21 25 20 28 -1 4 7 15 17 24 21 19 26 35 12 35 -4 0 -13 -5 -20 -12z"/>
<path d="M35907 5825 c-7 -16 8 -29 23 -20 15 9 12 35 -4 35 -8 0 -16 -7 -19 -15z"/>
<path d="M34891 5808 c-4 -13 -11 -41 -15 -62 -7 -36 -6 -38 8 -27 9 8 16 28 16 45 0 18 5 37 11 43 8 8 8 13 0 17 -6 4 -15 -3 -20 -16z"/>
<path d="M6320 5800 c0 -5 5 -10 11 -10 5 0 7 5 4 10 -3 6 -8 10 -11 10 -2 0 -4 -4 -4 -10z"/>
<path d="M13262 5786 c1 -10 8 -17 13 -17 15 1 12 24 -3 29 -9 3 -13 -2 -10 -12z"/>
<path d="M28744 5785 c-10 -8 -14 -15 -8 -15 6 0 17 7 24 15 16 19 9 19 -16 0z"/>
<path d="M35807 5783 c-11 -10 -8 -20 8 -27 10 -4 15 1 15 14 0 20 -11 26 -23 13z"/>
<path d="M13322 5773 c-9 -4 -10 -8 -2 -18 14 -17 50 -8 43 11 -5 14 -18 16 -41 7z"/>
<path d="M28680 5765 c-10 -12 -10 -15 3 -15 19 0 31 16 18 24 -5 3 -14 -1 -21 -9z"/>
<path d="M34770 5769 c0 -5 5 -7 10 -4 6 3 10 8 10 11 0 2 -4 4 -10 4 -5 0 -10 -5 -10 -11z"/>
<path d="M6371 5750 c9 -14 21 -25 27 -25 6 0 14 -3 18 -7 11 -11 24 -10 24 2 0 6 -5 10 -11 10 -6 0 -25 10 -42 22 l-32 23 16 -25z"/>
<path d="M20953 5756 c2 -6 14 -12 28 -16 39 -9 609 1 609 11 0 5 -141 10 -320 11 -198 2 -319 -1 -317 -6z"/>
<path d="M13415 5751 c-8 -14 15 -25 63 -28 48 -4 54 6 15 25 -32 14 -69 16 -78 3z"/>
<path d="M28563 5746 c-38 -18 -26 -29 23 -22 52 7 67 13 59 27 -8 12 -54 9 -82 -5z"/>
<path d="M21706 5735 c4 -9 11 -14 16 -13 15 5 11 23 -6 26 -11 2 -14 -2 -10 -13z"/>
<path d="M28851 5727 l-13 -22 18 17 c10 10 16 20 13 22 -3 3 -11 -5 -18 -17z"/>
<path d="M6710 5732 c0 -25 29 -32 130 -31 114 1 164 9 164 24 1 15 -36 19 -44 5 -9 -15 -199 -14 -214 1 -12 11 -36 12 -36 1z"/>
<path d="M13630 5732 c0 -4 5 -13 12 -20 15 -15 164 -16 173 -2 3 6 28 10 56 10 27 0 49 5 49 10 0 6 -30 10 -69 10 -39 0 -73 -4 -76 -10 -3 -5 -19 -10 -35 -10 -16 0 -32 5 -35 10 -7 12 -75 14 -75 2z"/>
<path d="M28260 5734 c0 -4 8 -13 18 -20 20 -16 92 -19 92 -4 0 6 -13 10 -29 10 -17 0 -33 5 -36 10 -7 11 -45 14 -45 4z"/>
<path d="M28400 5730 c0 -5 14 -10 30 -10 17 0 30 5 30 10 0 6 -13 10 -30 10 -16 0 -30 -4 -30 -10z"/>
<path d="M27940 5720 c0 -5 5 -10 10 -10 6 0 10 5 10 10 0 6 -4 10 -10 10 -5 0 -10 -4 -10 -10z"/>
<path d="M35826 5722 c-3 -6 -1 -14 5 -17 15 -10 25 3 12 16 -7 7 -13 7 -17 1z"/>
<path d="M7280 5705 c-16 -15 -98 -39 -175 -50 -25 -4 -48 -11 -51 -16 -8 -14 47 -23 67 -10 10 6 29 11 42 11 13 0 28 5 34 11 5 5 25 11 44 11 21 1 40 9 51 22 28 34 18 52 -12 21z"/>
<path d="M28800 5710 c-8 -4 -28 -13 -43 -19 -16 -6 -25 -16 -21 -22 4 -8 9 -8 17 0 6 6 21 11 33 11 23 0 51 25 37 33 -4 3 -15 1 -23 -3z"/>
<path d="M34740 5704 c0 -17 22 -14 28 4 2 7 -3 12 -12 12 -9 0 -16 -7 -16 -16z"/>
<path d="M35947 5705 c-7 -16 8 -29 23 -20 15 9 12 35 -4 35 -8 0 -16 -7 -19 -15z"/>
<path d="M6480 5690 c29 -22 43 -25 38 -8 -3 7 -18 15 -34 20 l-29 7 25 -19z"/>
<path d="M13260 5701 c0 -13 29 -35 37 -28 7 8 -15 37 -28 37 -5 0 -9 -4 -9 -9z"/>
<path d="M28005 5687 c31 -26 55 -26 34 -1 -6 8 -14 12 -17 10 -2 -3 -14 -1 -26 5 -13 7 -9 1 9 -14z"/>
<path d="M28664 5666 c-10 -8 -16 -17 -13 -20 7 -7 59 16 59 27 0 12 -25 8 -46 -7z"/>
<path d="M34849 5663 c-13 -16 -12 -17 4 -4 9 7 17 15 17 17 0 8 -8 3 -21 -13z"/>
<path d="M6542 5659 c2 -7 10 -15 17 -17 8 -3 12 1 9 9 -2 7 -10 15 -17 17 -8 3 -12 -1 -9 -9z"/>
<path d="M13320 5655 c0 -10 7 -15 18 -13 21 4 19 22 -2 26 -10 2 -16 -3 -16 -13z"/>
<path d="M28080 5655 c7 -8 27 -15 46 -15 18 0 36 -4 39 -10 3 -5 44 -10 91 -10 49 0 84 4 84 10 0 6 -33 10 -78 10 -43 0 -82 4 -87 9 -6 4 -32 11 -59 15 -42 5 -47 4 -36 -9z"/>
<path d="M6610 5653 c0 -5 12 -14 27 -20 32 -15 113 -17 113 -3 0 6 -20 10 -44 10 -25 0 -48 5 -51 10 -7 12 -45 14 -45 3z"/>
<path d="M13380 5650 c0 -5 16 -10 35 -10 19 0 44 -5 55 -12 26 -16 39 -2 14 17 -21 16 -104 20 -104 5z"/>
<path d="M14060 5650 c0 -5 5 -10 10 -10 6 0 10 5 10 10 0 6 -4 10 -10 10 -5 0 -10 -4 -10 -10z"/>
<path d="M28552 5649 c-13 -5 -20 -14 -17 -20 5 -8 10 -8 18 0 6 6 19 11 29 11 10 0 18 5 18 10 0 12 -17 12 -48 -1z"/>
<path d="M13976 5641 c-11 -16 27 -22 43 -6 14 13 13 15 -11 15 -15 0 -29 -4 -32 -9z"/>
<path d="M13560 5630 c0 -6 38 -10 95 -10 57 0 95 4 95 10 0 6 -38 10 -95 10 -57 0 -95 -4 -95 -10z"/>
<path d="M13760 5630 c0 -6 27 -10 60 -10 33 0 60 4 60 10 0 6 -27 10 -60 10 -33 0 -60 -4 -60 -10z"/>
</g>
</g>
  <g id="id5:id5" transform="matrix(1.25,0,0,1.25,0.0,0.0)"><g transform="translate(0.000000,724.800000) scale(0.040000,-0.040000)" fill="#a5e100" stroke="none">
<path d="M29832 13410 c-29 -22 -56 -40 -61 -40 -4 0 -28 -15 -52 -33 -24 -19 -58 -41 -74 -50 -17 -8 -53 -34 -80 -57 -28 -23 -67 -50 -88 -61 -21 -11 -70 -50 -110 -87 -40 -37 -92 -81 -117 -97 -70 -46 -467 -441 -516 -515 -25 -36 -68 -92 -97 -125 -128 -146 -345 -543 -413 -754 -69 -216 -72 -233 -79 -371 -8 -174 -8 -166 2 -365 7 -120 15 -181 26 -207 10 -21 17 -51 17 -67 0 -17 9 -53 20 -81 11 -28 20 -57 20 -65 0 -20 74 -211 117 -305 67 -144 249 -447 288 -480 9 -7 26 -32 37 -54 12 -23 51 -72 88 -111 37 -38 77 -88 90 -110 35 -61 444 -469 525 -525 39 -26 93 -72 120 -100 28 -29 75 -68 105 -87 30 -20 73 -53 95 -73 22 -21 66 -54 97 -74 31 -20 59 -40 63 -45 18 -30 711 -471 739 -471 3 0 6 6 6 14 0 8 -28 34 -62 58 -81 55 -736 714 -790 793 -23 33 -69 89 -102 125 -64 69 -74 83 -241 331 -114 170 -229 373 -273 484 -77 190 -122 328 -122 376 0 19 -9 68 -20 109 -24 90 -25 161 -4 255 8 39 19 91 24 118 18 92 112 261 188 340 65 67 227 181 323 227 112 54 442 160 499 160 14 0 52 9 85 19 33 10 109 22 168 25 60 4 130 14 155 22 26 9 98 18 160 21 107 6 113 7 110 26 -2 17 -15 23 -70 33 -208 39 -664 43 -967 10 -156 -17 -256 -13 -325 14 -15 5 -44 10 -64 10 -55 1 -157 40 -239 93 -60 39 -77 56 -108 111 l-36 65 3 128 c4 119 6 134 40 218 43 108 75 170 163 312 89 143 150 230 207 292 25 28 60 72 76 96 47 71 366 399 459 471 80 63 102 94 66 94 -10 0 -42 -18 -71 -40z"/>
<path d="M29590 12502 c-189 -70 -315 -164 -374 -280 -22 -44 -26 -64 -26 -139 1 -94 4 -103 58 -141 81 -57 130 -72 244 -72 127 0 180 15 332 94 114 58 165 104 221 196 l40 65 0 82 0 82 -43 44 c-74 76 -118 92 -257 94 -109 2 -127 0 -195 -25z"/>
<path d="M27505 10630 c-44 -11 -114 -20 -155 -20 -49 0 -96 -7 -133 -20 -31 -11 -76 -20 -99 -20 -24 -1 -61 -9 -83 -20 -22 -11 -58 -20 -80 -20 -22 0 -58 -9 -80 -20 -22 -11 -49 -20 -60 -20 -11 0 -38 -9 -60 -20 -22 -11 -43 -19 -47 -20 -25 -1 -215 -102 -303 -160 -142 -96 -211 -185 -265 -346 -35 -105 -42 -242 -15 -295 9 -16 20 -55 26 -87 15 -80 119 -297 206 -427 86 -128 198 -276 218 -288 22 -12 27 10 11 42 -9 16 -22 48 -31 72 -15 42 -22 65 -60 204 -9 33 -23 83 -31 111 -9 34 -14 102 -14 212 0 172 8 211 70 332 52 101 178 201 300 238 182 55 164 52 395 52 191 0 229 -3 285 -20 36 -11 90 -20 121 -20 31 0 82 -9 115 -20 32 -11 70 -20 82 -20 26 0 141 -29 239 -60 59 -19 93 -18 93 2 0 5 -13 40 -29 76 -59 139 -140 383 -156 472 -3 19 -16 55 -28 80 l-22 45 -165 2 c-131 1 -181 -2 -245 -17z"/>
</g>
</g>
</svg>
