<svg xmlns="http://www.w3.org/2000/svg" version="1.0" width="2456.000000pt" height="3176.000000pt" viewBox="0 0 2456.000000 3176.000000" preserveAspectRatio="xMidYMid meet">
  <g transform="translate(0.000000,3176.000000) scale(0.100000,-0.100000)" stroke="none">
    <path stroke="none" d="M11670 27869 c-459 -29 -618 -43 -915 -80 -199 -24 -505 -72 -645 -100 -42 -8 -161 -31 -255 -49 -22 -4 -65 -13 -95 -20 -30 -7 -73 -16 -95 -21 -22 -4 -58 -12 -80 -18 -22 -5 -60 -15 -85 -20 -63 -15 -294 -74 -465 -121 -16 -4 -50 -14 -75 -22 -25 -8 -65 -21 -90 -28 -135 -39 -541 -173 -605 -200 -11 -4 -56 -22 -100 -38 -105 -39 -312 -120 -350 -137 -16 -7 -51 -22 -77 -34 -26 -11 -50 -21 -53 -21 -2 0 -30 -12 -62 -26 -32 -14 -74 -33 -93 -41 -161 -70 -559 -263 -700 -339 -36 -20 -93 -51 -127 -70 -35 -19 -93 -51 -130 -71 -38 -20 -97 -54 -132 -75 -34 -21 -65 -38 -66 -38 -2 0 -41 -23 -87 -51 -46 -29 -97 -60 -115 -70 -151 -86 -726 -478 -883 -602 -9 -7 -42 -32 -75 -57 -74 -55 -393 -311 -420 -336 -11 -11 -45 -39 -75 -64 -30 -25 -57 -47 -60 -50 -3 -3 -25 -23 -50 -45 -56 -49 -224 -201 -305 -275 -127 -117 -449 -444 -595 -605 -187 -207 -231 -257 -270 -305 -25 -30 -53 -64 -64 -75 -43 -47 -350 -434 -416 -525 -125 -173 -185 -256 -190 -260 -3 -3 -9 -12 -15 -21 -5 -9 -70 -105 -143 -212 -72 -108 -132 -199 -132 -202 0 -3 -17 -32 -39 -63 -41 -62 -181 -292 -181 -299 0 -2 -13 -24 -30 -48 -16 -24 -30 -46 -30 -49 0 -3 -14 -28 -30 -57 -29 -49 -59 -103 -153 -279 -56 -104 -196 -384 -231 -461 -16 -35 -46 -100 -66 -144 -21 -44 -44 -96 -53 -115 -21 -49 -55 -126 -83 -188 -13 -29 -24 -58 -24 -65 0 -7 -4 -17 -8 -22 -5 -6 -33 -71 -61 -145 -29 -74 -57 -145 -62 -157 -23 -57 -28 -70 -39 -103 -7 -19 -16 -44 -20 -55 -12 -27 -74 -210 -107 -310 -52 -162 -80 -251 -93 -295 -7 -25 -20 -65 -28 -90 -15 -47 -17 -53 -52 -185 -12 -44 -25 -93 -30 -110 -12 -41 -15 -56 -40 -160 -23 -100 -27 -114 -41 -165 -5 -19 -14 -57 -19 -85 -6 -27 -14 -70 -20 -95 -6 -25 -15 -67 -20 -95 -5 -27 -15 -72 -21 -100 -5 -27 -14 -75 -20 -105 -5 -30 -14 -80 -20 -110 -5 -30 -14 -82 -20 -115 -5 -33 -14 -85 -19 -115 -5 -30 -14 -91 -19 -135 -6 -44 -15 -109 -21 -145 -6 -36 -15 -110 -21 -165 -5 -55 -14 -140 -20 -190 -33 -312 -59 -813 -59 -1160 0 -367 25 -859 60 -1175 6 -52 15 -135 20 -185 5 -49 14 -121 20 -160 5 -38 15 -104 20 -145 5 -41 14 -102 20 -135 5 -33 14 -87 19 -120 12 -77 41 -229 61 -330 4 -22 13 -65 19 -95 6 -30 15 -73 20 -95 5 -22 12 -56 16 -75 3 -19 11 -53 16 -75 18 -69 27 -107 49 -200 22 -96 37 -154 50 -195 5 -14 13 -47 20 -75 7 -27 15 -61 20 -75 4 -14 13 -45 20 -70 7 -25 20 -70 30 -100 10 -30 23 -75 30 -100 7 -25 16 -54 20 -65 5 -11 27 -78 49 -150 23 -71 46 -139 51 -150 5 -11 18 -49 30 -85 12 -36 25 -74 30 -85 4 -11 13 -36 20 -55 11 -33 17 -48 39 -102 5 -13 39 -99 76 -193 37 -93 76 -190 87 -215 11 -25 31 -69 44 -98 13 -29 24 -55 24 -58 0 -2 20 -46 44 -97 24 -50 53 -114 66 -142 31 -70 192 -394 244 -491 74 -138 128 -237 158 -287 15 -26 28 -49 28 -51 0 -3 171 -286 260 -431 55 -89 261 -398 270 -405 3 -3 26 -34 50 -70 114 -169 476 -642 583 -760 18 -19 52 -60 77 -90 46 -57 98 -117 184 -210 28 -30 94 -102 146 -160 123 -137 469 -482 590 -590 52 -47 120 -108 150 -136 91 -84 152 -137 210 -184 30 -25 71 -59 90 -77 73 -65 404 -325 580 -455 167 -123 613 -428 625 -428 4 0 32 -17 63 -39 50 -34 209 -131 297 -181 17 -10 57 -33 90 -52 33 -20 80 -47 105 -60 25 -14 63 -35 85 -48 116 -66 504 -263 648 -329 215 -99 260 -120 317 -144 19 -8 61 -27 93 -41 32 -14 63 -26 70 -26 7 0 17 -4 23 -8 5 -5 70 -33 144 -61 74 -29 145 -57 158 -62 12 -5 32 -13 45 -18 50 -21 116 -44 187 -67 41 -14 84 -29 95 -34 19 -8 166 -57 245 -81 19 -6 44 -14 55 -19 11 -4 40 -13 65 -20 90 -25 106 -30 165 -48 73 -23 167 -50 250 -72 17 -4 48 -12 70 -18 22 -6 81 -20 130 -32 93 -22 131 -31 200 -49 22 -5 56 -13 75 -16 19 -4 53 -11 75 -16 22 -5 60 -13 85 -18 25 -5 81 -16 125 -25 191 -39 449 -82 635 -106 47 -6 114 -15 150 -20 36 -5 110 -14 165 -20 811 -83 1402 -91 2225 -30 74 5 176 14 225 20 50 5 133 14 185 20 52 5 124 15 160 20 36 6 101 15 145 20 44 5 89 11 100 14 11 2 54 10 95 16 99 16 277 48 370 67 41 9 95 19 120 24 25 5 63 13 85 18 22 5 56 12 75 16 33 6 49 9 148 35 20 5 78 19 127 30 104 24 119 28 160 40 17 5 66 18 110 30 132 35 138 37 185 52 25 8 65 21 90 28 116 33 404 126 435 140 11 5 54 20 96 34 65 21 168 59 234 86 11 4 81 32 155 61 74 28 139 56 144 61 6 4 16 8 23 8 7 0 36 11 65 24 62 28 139 62 188 83 19 9 71 32 115 53 44 20 100 45 124 56 82 35 472 234 601 306 25 14 72 40 105 58 131 71 151 83 177 101 14 11 28 19 31 19 3 0 63 36 135 79 344 210 693 447 1006 684 81 61 412 327 441 353 11 11 45 39 75 64 60 48 93 77 250 220 184 167 241 221 425 406 203 204 246 249 475 504 244 272 619 746 783 990 28 41 53 77 57 80 9 8 250 368 250 375 0 3 17 32 39 63 42 63 181 292 181 299 0 3 8 17 19 31 10 15 30 48 45 75 14 26 38 68 53 95 33 59 74 135 126 232 47 88 203 401 240 480 90 195 119 257 126 275 13 29 35 81 66 155 15 36 33 79 40 95 8 17 34 84 60 150 26 66 51 130 56 143 32 79 22 52 91 247 48 137 87 255 109 325 6 19 14 44 19 55 4 11 18 54 29 95 12 41 30 104 41 140 21 70 55 191 72 255 6 22 14 54 19 70 13 47 40 156 49 200 5 22 14 60 20 85 6 25 15 63 19 85 5 22 14 65 21 95 7 30 16 73 20 95 4 22 15 76 24 120 9 44 21 107 27 140 6 33 13 69 15 80 3 11 9 47 14 80 5 33 14 89 20 125 6 36 15 99 20 140 5 41 14 104 20 140 5 36 15 108 20 160 5 52 14 136 20 185 34 303 60 809 60 1175 0 365 -27 893 -60 1180 -6 52 -15 133 -20 180 -19 197 -85 615 -137 870 -9 41 -19 95 -24 120 -5 25 -13 65 -19 90 -6 25 -14 68 -20 95 -5 28 -14 68 -21 90 -6 22 -14 58 -19 80 -9 42 -34 144 -52 210 -6 22 -14 54 -19 70 -38 145 -44 165 -67 240 -11 33 -25 80 -32 105 -27 95 -33 116 -41 135 -4 11 -12 36 -18 55 -24 79 -73 226 -81 245 -5 11 -20 54 -34 95 -23 71 -47 139 -66 185 -4 11 -36 92 -71 180 -34 88 -66 164 -70 170 -5 5 -9 15 -9 22 0 7 -12 38 -26 70 -14 32 -33 74 -41 93 -20 46 -44 100 -81 180 -17 36 -44 97 -62 135 -57 126 -298 601 -320 630 -4 6 -27 46 -50 90 -62 115 -67 124 -170 295 -51 85 -110 181 -131 212 -22 31 -39 60 -39 63 0 6 -158 242 -295 440 -58 83 -160 223 -208 285 -7 9 -32 42 -57 75 -55 74 -311 393 -336 420 -11 11 -39 45 -64 75 -46 57 -99 117 -184 210 -28 30 -94 102 -146 160 -103 113 -413 425 -525 530 -80 74 -130 120 -265 240 -52 47 -97 87 -100 90 -3 3 -30 25 -60 50 -30 25 -64 53 -75 64 -106 98 -550 440 -785 604 -242 169 -774 512 -795 512 -2 0 -32 17 -66 38 -35 21 -94 55 -131 75 -38 20 -96 52 -130 71 -35 19 -92 50 -128 70 -78 42 -378 191 -472 235 -197 90 -263 120 -318 144 -19 8 -53 22 -75 32 -22 9 -49 21 -60 25 -11 4 -36 15 -55 23 -19 8 -89 36 -155 62 -66 26 -129 50 -140 55 -11 4 -47 18 -80 30 -33 12 -68 26 -77 31 -10 5 -26 9 -36 9 -10 0 -22 3 -25 7 -13 12 -388 138 -552 184 -22 7 -65 20 -95 29 -30 10 -93 28 -140 40 -47 12 -96 26 -110 30 -14 5 -83 23 -155 40 -133 32 -170 41 -240 59 -22 5 -56 13 -75 16 -19 4 -53 11 -75 16 -22 5 -65 14 -95 20 -30 6 -73 15 -95 19 -115 23 -260 50 -330 60 -33 5 -100 15 -150 23 -141 24 -339 50 -495 66 -222 24 -304 31 -460 41 -91 6 -231 15 -312 20 -170 12 -845 11 -1028 -1z" fill="#000000" id="000000-000001"/>
    <path stroke="none" d="M12750 27145 c319 -20 478 -32 585 -45 50 -6 128 -15 175 -20 47 -5 117 -14 155 -20 39 -6 102 -14 140 -19 132 -18 471 -78 620 -111 253 -55 387 -87 513 -121 39 -10 105 -28 145 -38 39 -10 92 -25 117 -33 25 -9 65 -21 90 -28 25 -7 59 -17 75 -21 59 -17 400 -130 420 -139 11 -5 40 -16 65 -24 44 -14 114 -39 155 -56 11 -5 85 -34 165 -65 147 -57 168 -66 252 -104 26 -11 50 -21 53 -21 2 0 28 -11 57 -24 29 -13 76 -34 103 -46 278 -125 721 -352 912 -467 40 -23 74 -43 77 -43 6 0 239 -141 298 -181 31 -22 60 -39 63 -39 7 0 414 -271 465 -310 19 -15 82 -62 140 -104 58 -43 119 -89 137 -102 17 -14 65 -51 107 -82 63 -48 176 -139 251 -201 86 -71 323 -277 380 -331 224 -210 442 -425 585 -576 41 -44 105 -111 141 -149 122 -130 460 -534 565 -675 27 -36 51 -67 54 -70 3 -3 17 -21 30 -40 14 -19 30 -42 37 -50 6 -8 33 -44 59 -80 26 -36 59 -81 74 -100 48 -63 407 -611 436 -664 6 -12 38 -66 71 -121 33 -55 79 -136 103 -180 24 -44 52 -96 63 -115 62 -109 220 -420 297 -585 93 -199 96 -205 155 -345 15 -36 33 -78 40 -95 52 -121 159 -398 191 -495 8 -25 19 -54 24 -65 9 -20 122 -361 139 -420 4 -16 14 -50 21 -75 7 -25 19 -65 28 -90 8 -25 23 -78 33 -117 10 -40 28 -108 40 -150 11 -43 25 -96 30 -118 5 -22 14 -58 20 -80 6 -22 15 -60 20 -85 5 -25 14 -65 19 -90 6 -25 15 -63 19 -85 5 -22 15 -74 24 -115 50 -247 96 -518 126 -755 30 -236 47 -405 61 -610 6 -88 15 -226 20 -307 13 -189 13 -772 0 -970 -22 -358 -32 -491 -47 -618 -8 -74 -19 -173 -23 -220 -5 -47 -14 -116 -20 -155 -6 -38 -15 -99 -20 -135 -5 -36 -14 -94 -20 -130 -6 -36 -15 -90 -19 -120 -15 -96 -61 -329 -101 -505 -10 -44 -21 -91 -24 -105 -2 -14 -9 -43 -15 -65 -6 -22 -15 -58 -20 -80 -9 -39 -43 -167 -62 -235 -6 -19 -14 -51 -19 -70 -4 -19 -22 -82 -40 -140 -17 -58 -35 -118 -40 -135 -11 -43 -119 -366 -130 -390 -5 -11 -16 -40 -24 -65 -14 -44 -39 -114 -56 -155 -5 -11 -34 -85 -65 -165 -57 -147 -66 -168 -104 -252 -11 -26 -21 -50 -21 -53 0 -2 -11 -28 -24 -57 -13 -29 -34 -75 -46 -103 -94 -208 -269 -559 -375 -750 -15 -27 -43 -79 -63 -115 -19 -36 -62 -110 -95 -165 -33 -55 -68 -113 -77 -130 -61 -105 -366 -570 -430 -655 -15 -19 -48 -64 -74 -100 -82 -112 -96 -130 -192 -257 -110 -145 -443 -541 -553 -658 -36 -38 -100 -105 -141 -149 -284 -302 -655 -651 -965 -907 -75 -62 -188 -153 -251 -201 -42 -31 -90 -68 -107 -82 -18 -13 -79 -59 -137 -102 -58 -42 -121 -89 -140 -104 -51 -39 -458 -310 -465 -310 -3 0 -32 -17 -63 -39 -51 -34 -213 -133 -299 -182 -18 -11 -50 -29 -70 -40 -21 -12 -57 -32 -80 -45 -24 -13 -64 -36 -90 -51 -127 -70 -427 -223 -593 -301 -140 -66 -228 -105 -350 -157 -36 -15 -78 -33 -95 -40 -16 -8 -84 -34 -150 -60 -66 -26 -131 -52 -145 -57 -56 -24 -145 -57 -200 -74 -25 -8 -54 -19 -65 -24 -20 -9 -361 -122 -420 -139 -16 -4 -50 -14 -75 -21 -25 -7 -65 -19 -90 -28 -25 -8 -78 -23 -117 -33 -40 -10 -106 -28 -145 -38 -112 -30 -219 -56 -378 -91 -52 -12 -113 -25 -135 -30 -22 -5 -65 -14 -95 -20 -30 -5 -91 -17 -135 -26 -44 -9 -107 -20 -140 -25 -33 -5 -87 -14 -120 -20 -33 -5 -91 -14 -130 -19 -38 -5 -99 -14 -135 -20 -36 -6 -103 -15 -150 -20 -47 -4 -146 -15 -220 -23 -139 -16 -332 -30 -620 -47 -414 -25 -1151 -2 -1610 49 -47 6 -128 15 -180 21 -52 5 -124 15 -160 20 -36 6 -96 15 -135 20 -38 5 -99 14 -135 20 -36 6 -90 15 -120 19 -30 5 -91 16 -135 25 -44 9 -105 21 -135 26 -30 6 -73 15 -95 20 -22 5 -83 18 -135 30 -159 35 -266 61 -377 91 -40 10 -106 28 -145 38 -40 10 -95 26 -123 35 -27 9 -63 20 -80 25 -16 4 -50 14 -75 21 -67 19 -402 129 -425 140 -11 5 -40 16 -65 24 -48 15 -118 41 -160 58 -14 6 -34 14 -45 18 -246 96 -274 107 -367 149 -26 11 -50 21 -53 21 -2 0 -28 11 -57 24 -29 13 -75 34 -103 46 -242 109 -652 316 -847 428 -50 29 -101 58 -141 80 -32 19 -203 122 -332 202 -85 52 -446 293 -495 330 -19 15 -82 62 -140 104 -114 84 -424 324 -495 384 -81 68 -319 275 -360 312 -247 224 -681 666 -875 890 -36 41 -67 77 -70 80 -3 3 -28 32 -56 65 -28 33 -60 71 -72 85 -23 28 -40 50 -192 242 -58 73 -116 149 -130 168 -14 19 -30 42 -37 50 -6 8 -33 44 -59 80 -26 36 -59 81 -74 100 -65 86 -372 554 -430 656 -10 17 -38 64 -62 105 -63 105 -120 203 -163 284 -21 39 -58 106 -81 150 -69 126 -227 448 -302 615 -51 115 -63 142 -104 240 -25 58 -68 166 -97 240 -29 74 -57 144 -61 155 -17 41 -42 112 -56 155 -8 25 -19 54 -24 65 -10 23 -120 356 -140 425 -7 25 -20 65 -28 90 -15 47 -17 54 -51 183 -12 42 -30 110 -40 150 -31 113 -64 254 -102 425 -5 23 -13 61 -19 85 -5 23 -14 67 -20 97 -5 30 -17 91 -26 135 -9 44 -20 107 -25 140 -5 33 -14 87 -20 120 -5 33 -14 92 -19 130 -5 39 -14 99 -20 135 -6 36 -15 106 -20 155 -5 50 -14 131 -20 180 -13 112 -24 257 -45 595 -18 287 -16 922 4 1190 21 272 32 407 41 490 6 47 14 126 20 175 5 50 14 119 20 155 5 36 13 85 16 110 2 25 9 71 14 103 6 31 14 83 20 115 12 77 48 270 67 362 9 41 17 86 20 100 2 14 13 62 24 108 10 45 28 121 39 170 32 135 54 222 70 272 5 14 14 48 20 75 7 28 21 77 31 110 11 33 23 74 28 90 5 17 14 50 21 75 17 60 134 415 155 471 10 24 26 69 37 99 11 30 24 64 28 75 5 11 34 85 65 165 57 147 66 168 104 252 11 26 21 50 21 53 0 2 11 28 24 57 13 29 34 76 46 103 112 248 295 611 427 845 91 161 133 232 283 475 52 85 293 446 330 495 15 19 48 64 74 100 26 36 53 72 59 80 7 8 23 31 37 50 14 19 30 42 37 50 7 8 41 52 75 96 59 76 163 207 211 264 41 50 122 145 127 150 3 3 34 39 70 80 271 313 732 770 1070 1060 206 177 227 195 405 332 66 51 127 98 135 105 8 6 44 33 80 60 36 26 99 72 140 103 86 64 432 297 535 360 186 114 328 200 331 200 2 0 27 14 56 31 29 18 72 42 96 55 23 13 63 36 90 51 166 93 547 283 747 373 28 12 74 33 103 46 29 13 55 24 57 24 3 0 27 10 53 21 84 38 105 47 227 94 66 26 131 52 145 57 56 24 145 57 200 74 25 8 54 19 65 24 11 5 92 32 180 61 88 28 169 55 180 59 11 4 40 13 65 20 80 22 104 30 155 46 69 22 193 55 233 61 18 3 35 9 38 14 3 5 15 9 26 9 12 0 35 4 52 10 28 9 152 38 251 60 56 12 122 27 175 39 140 32 490 94 625 112 39 5 99 13 135 19 36 6 106 15 155 20 50 5 128 14 175 20 420 53 1223 74 1690 45z" fill="#ffffff" id="ffffff-000001"/>
    <path stroke="none" d="M10103 25683 c-67 -3 -95 -8 -104 -19 -11 -14 -61 -151 -129 -356 -10 -31 -30 -82 -44 -112 -14 -31 -26 -63 -26 -71 0 -20 -25 -114 -41 -150 -29 -70 -51 -134 -68 -200 -11 -38 -27 -92 -37 -120 -42 -119 -73 -213 -84 -255 -7 -25 -20 -67 -30 -95 -9 -27 -23 -68 -29 -90 -7 -22 -21 -58 -30 -80 -10 -22 -23 -56 -29 -75 -35 -109 -58 -171 -83 -225 -15 -33 -34 -82 -42 -110 -21 -70 -110 -292 -163 -404 -42 -89 -44 -97 -44 -186 0 -105 5 -125 29 -125 35 0 79 59 144 193 37 75 67 139 67 142 0 6 37 91 51 117 5 10 9 22 9 28 0 5 12 35 26 67 15 32 35 85 44 119 10 34 26 79 35 100 28 64 33 77 46 119 6 22 29 85 49 140 20 55 43 118 49 140 7 22 16 49 21 60 17 40 48 132 70 205 38 123 125 384 149 445 5 11 14 38 20 60 17 59 64 145 79 145 18 0 15 -97 -6 -150 -15 -40 -17 -91 -17 -480 0 -330 -3 -440 -12 -457 -10 -16 -13 -129 -13 -467 0 -363 -3 -456 -15 -503 -11 -40 -15 -110 -15 -238 0 -207 -7 -241 -52 -271 -60 -39 -182 -99 -268 -133 -47 -18 -104 -41 -128 -52 -23 -10 -47 -19 -52 -19 -6 0 -29 -8 -53 -19 -23 -10 -69 -29 -102 -41 -33 -12 -72 -26 -86 -32 -39 -14 -50 -44 -52 -148 -2 -91 -1 -95 20 -98 12 -2 51 10 85 26 35 16 126 53 203 82 248 92 349 131 393 151 24 10 74 24 113 29 84 12 104 23 129 75 18 37 19 66 21 350 1 244 5 324 17 375 17 69 30 594 36 1485 3 401 4 423 24 468 11 26 25 47 30 47 12 0 26 -628 17 -757 -4 -67 -3 -107 5 -128 9 -22 12 -165 10 -535 -1 -360 2 -514 10 -535 8 -21 11 -134 10 -366 l-1 -337 23 -27 24 -27 39 17 c22 9 73 25 113 36 39 10 107 28 150 40 42 12 112 25 154 30 42 4 105 13 140 19 35 6 118 20 185 30 67 10 164 26 215 35 211 35 254 40 536 55 97 6 247 14 332 20 224 13 1052 -15 1270 -44 373 -49 416 -55 515 -66 50 -6 115 -15 145 -21 145 -28 246 -52 257 -61 28 -23 56 -4 77 52 20 53 21 77 23 590 2 326 7 546 13 564 6 18 10 204 10 481 0 380 2 458 15 488 12 30 15 97 15 382 0 325 1 346 18 343 15 -3 17 -21 18 -203 0 -125 5 -219 13 -251 13 -52 19 -434 25 -1519 2 -457 5 -527 20 -579 14 -48 16 -79 11 -170 -8 -128 3 -185 44 -226 22 -23 39 -28 101 -34 77 -8 211 -38 335 -76 39 -12 144 -43 235 -70 91 -26 178 -53 193 -59 51 -20 86 -14 98 17 20 51 22 99 4 151 -27 83 -70 107 -300 170 -96 26 -280 79 -389 112 -16 5 -41 9 -55 9 -39 1 -59 21 -82 86 -20 57 -21 76 -19 574 1 448 -1 523 -15 575 -14 51 -16 124 -17 490 0 269 -4 445 -10 470 -6 22 -14 101 -19 175 -4 74 -10 159 -14 188 -5 35 -4 52 3 52 15 0 56 -56 77 -105 9 -22 21 -48 26 -57 5 -10 9 -22 9 -28 0 -6 9 -32 21 -58 12 -26 25 -56 29 -67 4 -11 15 -36 23 -55 8 -19 32 -78 52 -130 21 -52 55 -137 76 -188 22 -51 39 -97 39 -102 0 -5 11 -34 25 -63 13 -30 32 -76 41 -103 9 -27 34 -87 55 -132 22 -46 39 -87 39 -92 0 -14 41 -114 80 -195 275 -570 289 -595 342 -595 27 0 38 39 38 137 0 95 12 63 -168 433 -44 91 -84 179 -88 195 -4 17 -22 62 -40 100 -18 39 -40 93 -49 120 -9 28 -38 97 -65 155 -26 58 -63 143 -80 190 -18 47 -45 113 -60 146 -16 34 -36 83 -45 110 -9 27 -24 65 -32 84 -59 130 -71 160 -84 200 -7 25 -42 101 -76 168 -34 68 -66 136 -72 150 -5 15 -41 72 -78 127 -46 67 -76 102 -93 106 -14 4 -76 7 -137 8 l-113 1 -112 -114 c-123 -123 -222 -238 -285 -332 -23 -33 -48 -66 -57 -73 -9 -8 -33 -44 -53 -80 -20 -36 -56 -90 -80 -119 -24 -30 -46 -66 -50 -80 -7 -32 -51 -98 -83 -127 -24 -21 -60 -86 -60 -107 0 -7 -28 -51 -62 -98 -34 -47 -92 -132 -131 -190 -38 -58 -87 -126 -108 -151 -22 -26 -57 -73 -79 -105 -76 -113 -220 -284 -325 -387 -38 -37 -117 -99 -175 -137 -58 -38 -123 -83 -146 -99 -46 -35 -64 -38 -99 -15 -28 18 -45 12 -94 -40 -19 -20 -44 -36 -56 -36 -11 0 -39 18 -60 40 -44 45 -59 48 -95 20 -32 -25 -35 -25 -73 4 -18 13 -50 31 -71 40 -21 9 -57 33 -80 54 -23 21 -63 53 -91 72 -27 19 -56 40 -63 47 -7 6 -33 29 -59 50 -48 39 -213 229 -271 311 -18 26 -53 67 -77 92 -39 40 -94 124 -135 204 -8 16 -31 47 -50 70 -79 91 -189 256 -205 307 -4 11 -22 38 -41 59 -19 20 -41 55 -50 76 -9 22 -28 51 -42 67 -14 15 -37 47 -51 70 -52 88 -67 110 -138 200 -39 51 -99 130 -132 177 -32 47 -80 108 -106 135 -25 28 -55 66 -65 85 -40 77 -98 114 -169 108 -14 -1 -67 -4 -118 -5z" fill="#000000" id="000000-000002"/>
    <path stroke="none" d="M14326 25279 c12 -20 4 -545 -9 -581 -8 -22 -14 -190 -19 -513 -23 -1410 -22 -1383 -39 -1401 -16 -15 -21 -14 -80 9 -35 14 -98 30 -139 37 -41 7 -118 21 -172 31 -53 11 -109 19 -125 19 -15 0 -95 8 -178 19 -436 58 -499 62 -935 63 -522 1 -1087 -26 -1200 -58 -61 -16 -157 -33 -630 -108 -93 -15 -175 -43 -273 -93 -84 -42 -81 -51 -90 227 -4 135 -11 486 -15 780 -4 294 -11 541 -16 549 -5 8 -8 111 -8 230 2 340 -12 620 -31 656 -21 38 -22 84 -2 92 23 8 51 -22 92 -97 20 -36 46 -78 58 -95 12 -16 36 -56 54 -87 17 -31 50 -78 71 -105 22 -26 40 -51 40 -56 0 -5 13 -27 29 -50 15 -23 31 -52 35 -64 4 -13 27 -45 50 -73 24 -28 49 -69 56 -93 7 -23 43 -83 80 -133 59 -79 190 -286 190 -301 0 -3 24 -42 54 -86 29 -45 69 -108 87 -139 19 -31 84 -110 144 -175 61 -65 122 -134 135 -153 13 -19 76 -88 139 -153 126 -129 244 -215 339 -249 31 -11 64 -26 73 -34 20 -18 60 -18 85 1 10 8 33 15 51 15 28 0 37 -7 68 -55 21 -30 43 -55 50 -55 7 0 28 23 46 52 44 67 60 76 101 59 59 -24 74 -23 114 1 22 13 61 32 87 42 27 10 81 40 120 66 85 57 278 249 338 335 23 33 67 87 98 120 31 33 68 78 80 100 13 22 43 60 67 85 23 25 52 62 63 83 12 20 30 54 42 75 12 20 31 51 43 67 23 30 100 159 124 205 7 14 33 52 58 85 25 33 63 96 84 140 21 44 58 109 84 144 25 36 46 69 46 75 0 5 11 24 26 43 14 18 38 59 54 91 16 32 36 64 44 71 22 19 90 119 119 178 14 27 32 55 41 62 8 7 29 35 46 62 33 50 44 58 56 38z" fill="#ffffff" id="ffffff-000002"/>
    <path stroke="none" d="M4730 23555 c0 -5 16 -35 100 -190 18 -33 51 -96 75 -140 23 -44 61 -116 85 -160 24 -44 62 -116 85 -160 23 -44 61 -116 85 -160 23 -44 62 -117 86 -162 88 -165 137 -258 155 -289 9 -17 22 -41 28 -53 29 -56 35 -67 56 -105 12 -23 52 -97 87 -166 36 -69 74 -141 85 -160 11 -19 41 -75 66 -123 26 -48 68 -126 94 -174 25 -49 60 -114 77 -146 17 -32 36 -59 41 -60 6 -1 13 14 17 33 12 61 36 162 57 243 12 42 29 110 40 150 10 39 25 88 33 108 17 39 83 99 109 99 9 0 66 -49 125 -110 60 -60 1389 -1392 2954 -2960 2294 -2299 2845 -2856 2846 -2878 2 -22 -24 -52 -155 -177 -86 -83 -367 -357 -624 -610 -258 -253 -472 -462 -477 -465 -5 -3 -157 -151 -337 -330 -420 -414 -747 -736 -1368 -1345 -828 -812 -942 -924 -1360 -1340 -457 -453 -424 -430 -595 -430 -52 0 -212 2 -355 5 l-260 5 -48 -33 c-26 -17 -52 -32 -58 -32 -13 0 -11 -16 4 -27 10 -9 582 -29 705 -25 18 0 32 -3 30 -8 -2 -5 -30 -30 -63 -56 l-60 -47 -367 7 c-396 8 -401 7 -459 -46 -14 -12 -48 -42 -74 -66 -33 -29 -45 -46 -37 -51 6 -4 185 -5 396 -3 420 4 518 -3 549 -39 16 -20 17 -59 17 -510 0 -269 3 -489 6 -489 4 0 31 26 60 57 l54 57 0 468 0 468 52 50 c29 28 55 50 59 50 3 0 9 -194 13 -432 4 -237 9 -435 12 -440 8 -13 94 80 109 117 9 21 13 126 14 365 2 311 10 429 32 472 5 10 9 25 9 33 0 9 28 44 63 78 34 34 157 155 272 268 116 114 224 222 240 240 37 41 1053 1042 1066 1050 6 3 123 118 262 255 139 137 378 373 532 524 154 151 425 417 601 590 480 473 793 779 1174 1150 190 184 385 377 435 428 57 58 98 92 111 92 15 0 655 -637 2090 -2076 1138 -1142 2080 -2086 2094 -2098 44 -37 400 -400 400 -408 0 -4 8 -12 18 -17 9 -5 26 -35 37 -68 18 -54 20 -85 20 -410 0 -343 1 -352 21 -375 12 -12 24 -31 27 -41 9 -24 37 -33 48 -16 5 8 9 175 9 372 0 231 4 357 10 357 6 0 10 -4 10 -10 0 -5 10 -20 23 -33 62 -65 57 -35 62 -443 4 -358 11 -444 35 -444 5 0 30 -27 55 -60 25 -33 55 -65 66 -71 20 -10 20 -9 18 438 -2 397 0 452 14 479 9 17 24 35 34 39 10 4 228 6 486 6 532 -2 514 -5 433 74 l-47 45 -472 0 -473 0 -47 49 c-26 27 -47 54 -47 60 0 8 65 11 213 11 116 0 310 3 430 7 238 7 245 9 187 63 -66 62 -73 63 -440 67 -510 5 -488 -2 -719 232 -97 98 -193 188 -213 200 -22 13 -38 30 -38 41 0 9 -35 51 -77 91 -42 41 -696 695 -1454 1454 -758 759 -1659 1661 -2003 2005 -345 344 -629 634 -632 644 -7 20 110 138 972 981 202 198 502 492 666 654 164 162 302 297 307 300 5 3 251 245 547 536 772 759 917 902 2159 2120 292 286 635 623 763 750 348 344 505 494 525 501 24 8 44 -10 58 -54 6 -20 21 -57 31 -82 26 -59 34 -79 46 -115 26 -82 53 -178 68 -252 10 -48 23 -83 30 -83 6 0 23 24 38 53 14 28 36 70 49 92 13 22 43 76 67 120 23 44 56 105 73 135 16 30 46 87 67 125 20 39 48 90 62 115 25 44 51 92 118 215 18 33 40 74 50 90 10 17 39 71 65 120 56 106 93 173 127 235 14 25 41 74 60 110 33 61 50 92 129 238 18 31 52 95 77 142 24 47 61 114 82 150 35 61 45 81 91 172 10 20 23 40 29 43 16 10 12 45 -5 45 -14 0 -133 -59 -245 -122 -25 -14 -85 -47 -135 -73 -49 -27 -112 -61 -140 -75 -27 -15 -86 -46 -130 -70 -86 -45 -180 -96 -260 -140 -27 -15 -80 -44 -117 -64 -38 -20 -96 -51 -130 -70 -35 -18 -92 -49 -128 -68 -36 -20 -101 -55 -145 -78 -44 -24 -84 -46 -90 -50 -5 -4 -62 -34 -125 -68 -150 -78 -243 -128 -307 -163 -29 -16 -79 -43 -110 -60 -32 -18 -78 -43 -103 -57 -25 -14 -62 -34 -82 -44 -21 -10 -38 -22 -38 -27 0 -5 51 -12 113 -16 128 -8 225 -29 382 -83 124 -42 205 -88 205 -115 0 -10 -33 -51 -73 -90 -40 -40 -291 -286 -557 -547 -267 -261 -600 -587 -740 -725 -506 -498 -798 -785 -964 -946 -164 -160 -361 -353 -756 -742 -306 -302 -1150 -1130 -1273 -1251 -62 -59 -284 -277 -495 -484 -211 -207 -388 -379 -393 -382 -5 -4 -154 -150 -332 -327 -177 -176 -332 -325 -345 -332 -22 -12 -85 49 -1320 1288 -713 715 -2040 2044 -2948 2954 -908 909 -1655 1663 -1658 1675 -15 47 32 88 174 150 89 38 277 82 353 82 15 0 27 4 27 9 0 10 -30 28 -227 137 -135 75 -124 69 -343 192 -119 67 -169 95 -245 137 -25 14 -65 36 -90 50 -25 14 -64 36 -87 49 -24 13 -61 33 -83 46 -22 13 -74 41 -115 63 -41 22 -79 43 -85 47 -5 4 -32 20 -60 35 -27 15 -69 38 -92 51 -109 61 -136 76 -180 101 -27 14 -73 39 -103 55 -30 16 -59 33 -65 38 -6 5 -35 22 -65 38 -77 41 -169 92 -205 114 -16 9 -49 27 -73 39 -23 12 -45 25 -48 30 -6 10 -44 13 -44 4z" fill="#000000" id="000000-000003"/>
    <path stroke="none" d="M12135 22430 c-71 -5 -224 -14 -340 -19 -115 -6 -239 -15 -275 -21 -138 -23 -187 -31 -230 -40 -25 -5 -79 -14 -120 -20 -41 -6 -97 -16 -125 -21 -27 -6 -122 -16 -210 -23 -88 -8 -187 -21 -220 -30 -157 -45 -206 -56 -237 -56 -51 0 -94 -31 -102 -75 -4 -20 -9 -183 -11 -363 -2 -180 -7 -616 -11 -969 -5 -512 -4 -646 6 -658 9 -11 33 -15 94 -15 44 0 87 4 94 9 11 6 13 164 13 832 0 553 3 835 10 857 11 34 58 62 104 62 12 0 42 7 66 16 26 10 99 20 179 24 74 5 218 13 320 19 102 6 235 20 295 30 61 11 233 27 385 36 151 9 334 20 405 26 84 6 192 6 305 -1 164 -9 328 -16 935 -40 258 -11 401 -22 565 -46 52 -8 112 -14 132 -14 28 0 40 -5 48 -21 8 -15 11 -266 10 -886 0 -643 2 -869 11 -879 15 -19 174 -20 186 -1 4 6 9 174 10 372 1 198 4 655 7 1015 2 426 0 668 -6 691 -12 41 -40 59 -91 59 -18 0 -72 7 -122 16 -49 9 -112 20 -140 25 -27 5 -90 13 -140 18 -49 6 -121 15 -160 21 -106 17 -216 29 -360 40 -159 12 -617 32 -665 29 -46 -4 -80 -3 -300 4 -102 3 -243 2 -315 -3z" fill="#000000" id="000000-000004"/>
    <path stroke="none" d="M14654 22155 c-9 -14 -25 -50 -34 -78 -14 -46 -15 -91 -10 -377 3 -179 5 -437 3 -575 -8 -610 -9 -932 -3 -955 8 -31 54 -49 126 -49 91 -1 84 -76 85 851 0 649 3 820 13 834 12 15 19 16 57 6 76 -18 150 -30 269 -42 63 -7 128 -16 144 -21 16 -5 44 -9 63 -9 40 0 124 -19 138 -31 17 -16 61 -9 83 14 36 38 51 85 40 126 -13 46 -52 124 -70 137 -7 6 -53 21 -103 33 -49 13 -117 32 -150 42 -129 42 -173 51 -310 69 -49 6 -124 18 -165 27 -140 28 -156 28 -176 -2z" fill="#000000" id="000000-000005"/>
    <path stroke="none" d="M9959 22099 c-31 -4 -98 -24 -150 -44 -105 -41 -97 -38 -232 -94 -54 -23 -101 -41 -105 -41 -4 0 -41 -13 -82 -29 -41 -15 -115 -34 -165 -41 -49 -7 -94 -17 -100 -22 -5 -4 -10 -50 -10 -101 -1 -50 -5 -113 -10 -138 -9 -57 5 -66 79 -46 28 8 92 20 141 27 50 6 126 20 170 30 44 10 100 21 125 24 78 9 124 22 182 49 31 15 62 27 68 27 8 0 9 -119 3 -427 -4 -236 -8 -590 -8 -788 l0 -360 89 -3 c55 -2 93 1 100 8 8 8 11 119 12 348 0 185 5 616 10 957 5 341 8 632 6 648 -5 30 -17 32 -123 16z" fill="#000000" id="000000-000006"/>
    <path stroke="none" d="M5535 18610 c-16 -4 -51 -8 -77 -9 -55 -1 -107 -13 -232 -53 -49 -15 -95 -28 -104 -28 -8 0 -38 -13 -66 -28 -28 -16 -67 -35 -86 -42 -19 -8 -54 -26 -77 -42 -23 -15 -46 -28 -51 -28 -5 0 -32 -18 -58 -40 -27 -22 -53 -40 -59 -40 -13 0 -192 -182 -231 -235 -52 -71 -136 -230 -158 -298 -89 -280 -96 -475 -24 -712 35 -114 71 -190 138 -290 115 -171 232 -287 454 -451 27 -20 61 -43 75 -52 62 -39 129 -83 167 -111 23 -17 44 -31 49 -31 4 0 28 -14 54 -31 25 -18 60 -40 76 -49 17 -10 68 -41 115 -70 163 -101 215 -133 250 -152 92 -53 251 -172 341 -257 150 -139 231 -257 281 -406 27 -79 31 -104 31 -205 0 -162 -33 -276 -118 -405 -95 -143 -232 -260 -398 -339 -77 -36 -101 -45 -232 -84 -137 -40 -154 -42 -363 -42 -180 -1 -221 2 -284 20 -120 33 -199 63 -263 100 -77 45 -200 168 -246 247 -75 127 -101 305 -78 543 15 165 22 355 14 387 -7 31 -61 90 -98 110 -43 22 -102 12 -189 -30 -114 -56 -207 -172 -276 -343 -43 -108 -52 -163 -52 -331 0 -169 11 -255 50 -378 63 -203 167 -372 327 -532 55 -57 106 -103 111 -103 6 0 29 -16 52 -35 23 -19 47 -35 54 -35 7 0 30 -13 52 -30 21 -16 43 -30 47 -30 5 0 43 -16 85 -36 73 -35 156 -61 322 -103 244 -62 678 -53 900 19 30 10 80 24 110 30 30 7 78 24 105 37 28 14 70 32 95 40 25 8 57 24 71 34 15 10 46 28 70 39 100 45 269 183 381 309 245 276 373 671 338 1050 -6 69 -15 142 -20 161 -57 222 -136 381 -270 545 -63 77 -226 237 -280 275 -19 13 -37 27 -40 30 -7 9 -125 90 -179 123 -25 16 -55 37 -67 48 -11 10 -24 19 -28 19 -5 0 -35 18 -67 40 -32 22 -61 40 -64 40 -3 0 -29 15 -58 33 -75 49 -207 127 -212 127 -2 0 -32 18 -66 40 -34 22 -67 40 -73 40 -6 1 -27 14 -46 30 -19 17 -38 30 -44 30 -5 0 -25 12 -45 28 -20 15 -52 38 -72 52 -84 57 -148 112 -219 186 -76 80 -180 226 -180 254 0 8 -9 40 -21 70 -15 42 -20 79 -21 160 0 95 3 112 30 177 38 90 81 155 141 212 46 44 183 141 199 141 5 0 37 12 73 26 120 49 156 54 386 54 119 0 244 -5 277 -11 75 -14 266 -76 286 -93 8 -7 36 -25 62 -39 120 -69 227 -253 228 -392 0 -46 -24 -167 -45 -228 -8 -23 -15 -47 -15 -54 0 -12 -16 -49 -82 -193 -53 -115 -95 -302 -83 -368 8 -43 41 -102 68 -124 48 -38 178 -14 263 47 118 86 210 218 296 425 52 124 51 121 88 283 24 108 30 187 19 293 -5 60 -14 120 -18 134 -5 14 -14 45 -21 70 -54 192 -135 326 -294 486 -145 144 -298 241 -486 306 -113 39 -145 48 -210 59 -72 13 -446 20 -485 9z" fill="#000000" id="000000-000007"/>
    <path stroke="none" d="M18510 18561 c-36 -4 -101 -20 -145 -34 -44 -15 -96 -32 -115 -38 -19 -7 -46 -19 -60 -29 -14 -9 -41 -23 -60 -30 -19 -7 -44 -21 -55 -31 -11 -9 -44 -29 -72 -43 -29 -15 -53 -30 -53 -35 0 -5 -17 -19 -37 -32 -45 -27 -59 -38 -188 -166 -134 -131 -167 -168 -267 -303 -115 -155 -206 -292 -252 -380 -13 -25 -46 -86 -75 -137 -28 -50 -51 -94 -51 -98 0 -3 -20 -47 -44 -98 -24 -51 -50 -108 -59 -127 -8 -19 -24 -55 -34 -80 -11 -25 -26 -63 -33 -85 -7 -22 -16 -44 -20 -50 -11 -14 -80 -213 -90 -255 -4 -19 -14 -53 -23 -75 -9 -22 -24 -67 -33 -100 -8 -33 -20 -76 -25 -95 -6 -19 -14 -51 -20 -70 -5 -19 -14 -55 -19 -80 -5 -25 -13 -63 -19 -85 -10 -35 -34 -162 -61 -325 -48 -281 -48 -747 -1 -980 35 -169 83 -338 126 -436 22 -51 101 -210 124 -251 90 -157 317 -389 431 -440 25 -11 51 -27 59 -36 7 -10 21 -17 30 -17 9 0 40 -11 70 -25 94 -44 167 -55 364 -55 214 0 373 18 479 54 42 14 83 26 91 26 8 0 45 13 83 28 38 16 85 32 104 36 19 3 50 17 70 29 19 13 55 31 80 41 25 10 52 24 60 31 8 7 34 22 58 34 40 20 66 38 181 123 89 66 268 227 321 289 30 35 62 71 70 79 8 9 35 40 60 70 144 177 368 407 443 453 26 16 52 38 59 50 16 30 15 534 -1 550 -14 14 -90 -23 -173 -83 -26 -19 -71 -51 -99 -70 -28 -19 -70 -51 -93 -71 -22 -20 -91 -80 -153 -133 -102 -88 -313 -280 -423 -385 -25 -24 -61 -55 -80 -70 -19 -14 -70 -56 -114 -93 -43 -38 -84 -68 -90 -68 -7 0 -23 -12 -37 -26 -13 -14 -45 -37 -71 -51 -27 -15 -48 -29 -48 -34 0 -4 -19 -14 -42 -24 -23 -9 -54 -25 -68 -35 -14 -10 -46 -26 -71 -35 -24 -10 -58 -23 -74 -30 -67 -30 -92 -38 -135 -46 -25 -4 -79 -15 -120 -23 -109 -23 -236 -20 -351 8 -53 13 -107 30 -121 37 -14 8 -45 25 -69 38 -80 44 -182 159 -240 271 -94 183 -159 536 -146 790 10 177 48 485 77 610 10 43 22 105 40 195 4 22 14 60 22 85 8 25 21 70 28 100 6 30 19 75 27 100 8 25 23 74 33 110 10 36 32 103 50 150 17 47 38 105 46 130 29 86 144 349 195 445 122 229 165 298 272 440 122 160 201 234 371 347 6 4 45 22 86 40 71 30 82 32 195 32 115 0 123 -2 190 -33 91 -44 176 -131 209 -217 43 -111 56 -187 56 -334 -1 -97 -6 -165 -16 -205 -9 -33 -20 -80 -25 -104 -23 -112 -135 -316 -234 -429 -41 -46 -183 -162 -199 -162 -3 0 -34 -13 -68 -29 -35 -15 -99 -34 -143 -41 -70 -11 -89 -10 -155 5 -126 29 -146 29 -179 6 -45 -32 -61 -101 -61 -264 0 -198 18 -236 140 -295 53 -25 61 -26 215 -26 l160 1 100 43 c55 24 116 55 135 69 19 15 46 32 60 39 42 22 198 167 266 248 119 143 182 243 269 424 31 63 60 123 65 132 6 10 10 24 10 31 0 8 11 41 25 74 26 64 57 193 80 333 28 164 13 450 -29 585 -9 28 -16 59 -16 70 0 31 -94 229 -144 303 -49 74 -169 198 -213 220 -15 8 -37 23 -49 34 -20 18 -104 53 -204 84 -54 18 -230 26 -320 15z" fill="#000000" id="000000-000008"/>
    <path stroke="none" d="M12107 13158 c-13 -13 -35 -43 -47 -68 -21 -41 -22 -50 -11 -101 23 -113 16 -128 -67 -134 -89 -5 -102 -11 -102 -46 0 -43 12 -61 70 -105 28 -22 61 -54 72 -72 20 -33 20 -39 9 -180 -11 -137 -33 -625 -31 -701 0 -44 38 -171 50 -171 12 0 18 24 26 114 4 44 18 114 32 155 21 65 26 105 32 266 9 212 24 343 40 359 15 15 135 9 168 -8 102 -53 251 -160 347 -249 61 -57 135 -126 165 -153 101 -91 356 -348 401 -404 24 -30 69 -84 100 -120 31 -36 73 -91 93 -122 20 -32 56 -82 79 -110 24 -29 46 -61 50 -71 4 -10 27 -47 52 -81 25 -35 45 -67 45 -70 0 -4 13 -26 29 -49 15 -23 40 -64 55 -92 14 -27 35 -62 47 -76 11 -14 28 -61 38 -105 10 -43 28 -101 40 -128 13 -27 25 -65 28 -85 4 -20 14 -55 25 -79 10 -24 18 -60 18 -80 1 -20 8 -66 17 -102 25 -97 29 -445 7 -648 -9 -86 -19 -188 -23 -227 -7 -67 -11 -84 -32 -130 -4 -11 -29 -83 -54 -160 -65 -196 -86 -240 -195 -405 -53 -80 -109 -172 -124 -205 -19 -40 -60 -94 -125 -163 -53 -57 -111 -124 -128 -150 -18 -26 -62 -75 -98 -109 -37 -36 -65 -71 -65 -82 0 -40 42 -131 71 -156 73 -60 143 -17 326 200 37 44 70 82 73 85 13 12 239 319 259 352 32 54 97 207 138 328 38 110 63 167 95 212 12 18 22 58 29 114 5 47 13 94 18 103 5 9 12 48 16 86 4 39 15 95 25 125 11 32 21 101 24 165 3 61 12 133 20 161 10 37 11 62 4 95 -5 24 -14 89 -19 145 -5 55 -18 130 -30 165 -12 35 -25 107 -29 159 -4 52 -14 121 -23 153 -10 32 -17 71 -17 87 0 36 -39 142 -85 232 -19 37 -41 91 -49 121 -14 55 -91 218 -125 266 -10 14 -19 30 -18 35 0 4 -17 29 -37 55 -20 25 -70 96 -111 156 -41 61 -104 154 -141 208 -39 58 -93 121 -132 155 -36 31 -92 84 -126 117 -34 33 -90 85 -126 115 -36 30 -92 80 -125 111 -33 31 -85 76 -115 99 -30 23 -86 66 -125 95 -38 29 -99 79 -135 110 -36 31 -101 75 -144 97 -44 22 -95 50 -115 62 -136 86 -181 118 -195 138 -18 25 -20 68 -7 116 6 18 12 87 15 152 3 66 7 125 8 132 2 9 -13 14 -48 16 -43 2 -56 -1 -77 -20z" fill="#000000" id="000000-000009"/>
    <path stroke="none" d="M12249 12284 c-11 -13 -10 -26 5 -77 9 -34 24 -98 32 -142 8 -44 22 -116 31 -160 35 -175 54 -285 68 -395 8 -63 19 -149 25 -191 13 -91 5 -928 -10 -1154 -19 -270 -23 -295 -57 -360 -18 -33 -37 -72 -42 -87 -6 -16 -15 -28 -20 -28 -18 0 -22 36 -12 124 24 210 41 1190 22 1252 -24 80 -32 113 -35 154 -5 65 -33 136 -78 203 -33 49 -44 58 -66 55 -44 -5 -47 -41 -22 -207 13 -80 30 -162 38 -181 13 -30 15 -102 13 -480 -1 -537 -8 -739 -26 -805 -7 -27 -21 -93 -30 -145 -9 -52 -25 -142 -36 -200 -10 -58 -26 -150 -35 -205 -11 -66 -29 -129 -54 -185 -20 -47 -43 -101 -50 -120 -23 -58 -59 -121 -114 -195 -28 -38 -60 -83 -70 -100 -25 -39 -244 -253 -321 -313 -88 -69 -102 -80 -185 -157 -42 -38 -104 -95 -138 -127 -66 -60 -75 -85 -46 -126 32 -46 90 -62 163 -42 20 5 53 12 75 15 28 5 55 22 105 68 37 34 87 77 112 96 50 40 94 90 149 176 21 33 53 79 69 103 17 24 42 65 56 92 13 27 29 51 35 55 6 3 19 24 30 45 30 59 128 170 151 170 35 0 22 -53 -41 -169 -33 -61 -60 -113 -60 -116 0 -3 -27 -61 -60 -128 -33 -68 -60 -128 -60 -134 0 -6 -11 -31 -25 -54 -14 -24 -30 -62 -36 -84 -6 -22 -25 -62 -42 -90 -30 -47 -32 -55 -33 -149 0 -55 -5 -101 -10 -103 -5 -2 -61 -14 -124 -28 -379 -84 -423 -95 -460 -115 -14 -7 -40 -26 -58 -41 -50 -44 -96 -59 -179 -59 -41 0 -93 -4 -116 -9 -23 -5 -73 -14 -112 -21 -38 -6 -90 -15 -115 -20 -25 -5 -72 -14 -105 -20 -68 -13 -170 -40 -295 -76 -47 -14 -115 -34 -151 -43 -36 -10 -80 -25 -99 -34 -18 -10 -37 -17 -42 -17 -5 0 -48 -18 -96 -41 -48 -22 -102 -43 -119 -46 -20 -3 -35 -13 -38 -24 -12 -37 3 -54 59 -67 58 -13 92 -9 141 18 59 32 163 69 286 100 167 43 194 49 264 59 61 9 148 27 285 61 41 10 114 27 161 39 48 12 113 21 145 21 33 0 82 8 109 17 33 10 109 19 220 24 94 4 204 13 245 18 41 6 120 15 175 20 90 9 191 22 371 51 34 6 110 10 170 10 62 1 135 7 169 16 34 8 130 17 220 20 88 3 178 10 200 16 49 13 1224 11 1485 -2 96 -5 227 -7 291 -3 88 4 118 3 124 -7 11 -18 -86 -106 -133 -121 -20 -6 -107 -14 -193 -16 -137 -4 -165 -2 -233 16 -86 24 -122 26 -163 10 -20 -7 -44 -7 -83 0 -77 15 -722 22 -915 10 -88 -6 -192 -16 -231 -24 -38 -8 -115 -15 -170 -14 -54 0 -151 -6 -214 -15 -63 -9 -198 -21 -300 -25 -102 -5 -197 -14 -212 -20 -14 -5 -73 -15 -130 -21 -56 -6 -131 -18 -166 -26 -35 -8 -91 -14 -124 -14 -66 0 -212 -15 -298 -32 -177 -33 -230 -47 -230 -61 0 -15 205 -1 265 19 28 8 95 20 150 24 134 12 363 38 439 50 33 5 189 19 346 30 157 11 314 22 350 26 73 7 656 14 1190 13 195 0 380 0 410 1 163 6 155 7 158 -21 4 -31 -18 -55 -168 -184 -110 -94 -226 -218 -277 -295 -34 -51 -84 -178 -90 -231 -3 -19 2 -52 11 -72 13 -33 19 -37 50 -37 32 0 36 4 59 53 14 28 33 72 43 97 29 73 65 124 158 226 57 61 120 116 177 155 48 32 91 59 94 59 3 0 45 27 94 60 49 33 92 60 96 60 4 0 19 9 34 19 15 11 68 38 117 59 49 22 128 58 176 81 48 23 92 41 97 41 5 0 55 23 111 52 l102 52 274 -1 274 -2 10 39 c15 57 1 102 -35 113 -17 5 -160 10 -320 13 -159 2 -321 8 -360 13 -66 10 -1080 9 -1678 0 -270 -5 -287 -2 -287 47 0 63 -64 122 -151 141 -33 7 -68 6 -125 -4 -129 -23 -176 -32 -224 -44 -25 -6 -97 -14 -160 -19 -63 -4 -135 -13 -160 -18 -25 -6 -62 -11 -82 -12 -34 0 -38 3 -38 25 0 14 9 44 20 68 38 81 82 233 90 307 6 52 18 95 38 135 16 33 38 92 47 130 9 39 27 93 40 120 12 28 27 66 33 85 31 98 71 230 82 270 7 25 16 56 20 70 17 55 48 169 63 230 8 36 22 90 30 120 14 51 21 87 48 270 20 135 31 196 39 225 4 17 13 64 19 105 7 41 16 98 21 125 6 28 16 92 25 143 8 51 18 99 22 105 4 7 6 239 5 517 -3 424 -6 514 -19 560 -9 30 -19 82 -23 115 -4 33 -15 86 -24 118 -9 32 -16 72 -16 90 0 17 -9 61 -19 97 -33 113 -41 146 -41 177 0 17 -4 43 -9 59 -5 16 -14 54 -21 84 -22 104 -41 149 -71 175 -35 29 -89 34 -110 9z" fill="#000000" id="000000-000010"/>
    <path stroke="none" d="M11930 11163 c-6 -32 -18 -76 -27 -98 -14 -35 -57 -176 -84 -275 -6 -19 -15 -51 -20 -70 -6 -19 -14 -51 -18 -70 -5 -19 -15 -55 -23 -80 -9 -25 -23 -71 -32 -102 -10 -31 -32 -81 -49 -110 -18 -29 -37 -65 -43 -78 -6 -14 -39 -81 -72 -150 -33 -69 -72 -152 -87 -185 -16 -33 -38 -73 -50 -90 -27 -35 -105 -187 -105 -203 0 -12 -35 -78 -51 -98 -6 -7 -36 -63 -68 -125 -69 -135 -113 -208 -235 -388 -50 -73 -109 -168 -131 -211 -44 -84 -123 -188 -224 -292 -35 -37 -77 -87 -92 -110 -16 -24 -118 -135 -228 -248 -230 -236 -311 -337 -311 -386 0 -28 7 -36 50 -63 33 -21 63 -31 89 -31 34 0 45 8 116 79 43 44 102 115 131 159 30 44 70 93 89 109 19 16 67 69 106 119 39 49 103 125 142 168 40 44 90 105 112 137 22 31 59 84 83 116 66 89 145 210 187 288 21 39 59 102 85 140 25 39 54 88 64 110 37 83 59 122 106 185 26 36 78 125 115 198 37 73 88 165 114 205 25 40 66 115 91 167 25 52 57 115 71 140 14 25 33 65 41 90 9 25 37 99 63 165 108 277 115 298 134 410 7 39 16 88 21 110 5 22 11 83 14 136 3 53 13 116 22 140 30 82 29 101 -9 127 -57 38 -74 31 -87 -35z" fill="#000000" id="000000-000011"/>
    <path stroke="none" d="M5870 10684 c-19 -20 -46 -40 -59 -45 -18 -7 -21 -12 -12 -23 8 -10 96 -14 393 -20 211 -4 403 -11 427 -14 l43 -7 -63 -48 -64 -48 -430 6 c-272 4 -439 3 -455 -3 -14 -5 -48 -31 -75 -56 -28 -26 -60 -54 -72 -63 -33 -22 -28 -33 15 -33 20 0 234 -3 475 -6 l437 -6 18 -31 c16 -29 17 -76 14 -569 -1 -320 1 -538 7 -538 5 0 36 30 70 66 42 46 61 75 61 93 0 14 0 242 0 507 l-1 480 52 52 c28 28 54 50 59 47 6 -3 23 -633 24 -882 0 -40 4 -73 7 -73 4 0 27 22 52 50 l45 50 7 114 c11 174 2 983 -11 996 -26 26 -133 33 -524 37 l-405 4 -35 -37z" fill="#000000" id="000000-000012"/>
    <path stroke="none" d="M17728 10664 c-2 -2 -34 -4 -71 -6 -79 -3 -95 -15 -108 -80 -12 -56 -11 -796 0 -835 5 -17 20 -44 34 -59 14 -16 34 -40 45 -54 11 -14 23 -22 26 -19 3 3 6 202 6 442 1 269 5 437 11 437 5 0 9 -5 9 -10 0 -6 10 -21 23 -34 12 -13 32 -37 45 -55 l23 -32 5 -446 c4 -346 8 -450 18 -464 12 -18 135 -149 140 -149 1 0 2 211 1 468 0 370 3 472 13 485 31 37 97 40 619 33 304 -4 503 -3 503 3 0 5 -26 35 -57 67 l-58 59 -516 3 -515 3 -54 54 c-37 37 -49 56 -39 59 15 5 772 19 871 16 31 0 59 3 62 9 10 15 -14 48 -55 77 l-36 25 -471 3 c-259 2 -472 2 -474 0z" fill="#000000" id="000000-000013"/>
    <path stroke="none" d="M5134 10034 c-33 -25 -59 -51 -59 -57 0 -9 95 -14 375 -19 442 -8 537 -12 546 -21 10 -10 -25 -46 -74 -74 l-43 -26 -452 9 c-251 5 -467 5 -486 1 -45 -12 -186 -136 -171 -151 7 -7 183 -13 513 -17 500 -7 576 -11 578 -33 0 -6 0 -260 -1 -563 -1 -304 1 -553 4 -553 5 0 66 63 113 119 l23 26 0 493 c0 485 0 494 20 499 11 3 20 8 20 12 0 14 60 75 67 67 4 -4 11 -155 15 -334 9 -442 14 -571 21 -579 9 -8 73 64 86 97 9 25 31 680 31 943 0 123 -2 139 -20 157 -11 11 -30 22 -42 24 -30 6 -716 26 -879 26 l-127 0 -58 -46z" fill="#000000" id="000000-000014"/>
    <path stroke="none" d="M18228 10054 l-26 -29 -2 -310 c-2 -170 -2 -402 -1 -515 l1 -205 47 -57 c34 -41 50 -53 55 -43 4 7 8 208 9 446 1 438 3 489 19 489 5 0 27 -24 50 -53 l40 -54 0 -471 c0 -378 3 -477 14 -504 22 -51 136 -172 150 -158 8 8 11 156 12 498 1 633 -2 578 33 597 20 10 37 12 53 6 29 -10 1038 -14 1038 -3 0 4 -29 36 -64 70 l-63 62 -492 0 -491 0 -45 46 c-25 25 -45 51 -45 58 0 10 93 14 439 19 242 4 447 10 455 13 13 5 9 14 -21 44 -20 22 -48 43 -62 49 -14 5 -154 12 -311 15 -157 3 -393 9 -525 12 l-240 6 -27 -28z" fill="#000000" id="000000-000015"/>
    <path stroke="none" d="M10620 7125 c-36 -6 -90 -19 -120 -28 -30 -8 -86 -19 -125 -22 -38 -4 -84 -13 -101 -20 -17 -7 -60 -16 -95 -20 -99 -11 -232 -46 -254 -66 -19 -19 -19 -19 0 -19 11 0 55 11 98 25 43 14 90 25 105 25 15 0 74 12 132 26 104 25 176 39 362 73 54 9 103 22 110 29 15 15 -20 14 -112 -3z" fill="#000000" id="000000-000017"/>
  </g>
</svg>
