<?xml version="1.0" standalone="no"?>
<!DOCTYPE svg PUBLIC "-//W3C//DTD SVG 1.1//EN"
 "http://www.w3.org/Graphics/SVG/1.1/DTD/svg11.dtd">
<!-- Created with svg_stack (http://github.com/astraw/svg_stack) -->
<svg xmlns:sodipodi="http://sodipodi.sourceforge.net/DTD/sodipodi-0.dtd" xmlns="http://www.w3.org/2000/svg" version="1.1" width="998.0" height="656.0">
  <defs/>
  <g id="id0:id0" transform="matrix(1.25,0,0,1.25,0.0,0.0)"><g transform="translate(0.000000,524.800000) scale(0.040000,-0.040000)" fill="#000000" stroke="none">
<path d="M9595 12570 c-325 -9 -658 -26 -885 -46 -439 -37 -396 -31 -825 -98 -88 -14 -185 -28 -215 -31 -65 -7 -169 -26 -340 -61 -69 -15 -154 -32 -190 -40 -36 -7 -84 -18 -108 -24 -23 -5 -55 -10 -70 -10 -15 0 -85 -16 -157 -35 -71 -19 -215 -57 -320 -84 -185 -47 -422 -117 -635 -186 -214 -69 -481 -163 -493 -173 -6 -6 -57 -26 -112 -45 -55 -19 -138 -52 -185 -72 -47 -20 -128 -54 -180 -75 -192 -76 -832 -398 -965 -485 -27 -18 -71 -44 -96 -56 -65 -34 -418 -258 -504 -320 -22 -16 -78 -57 -125 -90 -342 -242 -667 -522 -966 -834 -199 -207 -309 -339 -492 -588 -227 -311 -445 -715 -575 -1063 -40 -110 -81 -226 -90 -259 -9 -33 -28 -103 -43 -155 -84 -301 -104 -464 -111 -902 -7 -450 10 -650 78 -928 56 -228 100 -384 135 -474 20 -50 51 -134 70 -186 43 -116 257 -538 324 -637 27 -40 57 -87 66 -105 34 -66 300 -425 419 -564 166 -195 593 -616 735 -724 25 -19 66 -52 91 -74 55 -49 215 -177 238 -191 9 -5 55 -38 101 -71 97 -70 413 -280 552 -367 154 -96 423 -244 653 -359 203 -102 515 -245 581 -268 28 -10 91 -36 140 -59 217 -99 639 -245 1159 -400 154 -46 208 -60 415 -107 36 -8 81 -21 100 -28 33 -13 269 -63 405 -87 33 -6 114 -22 180 -35 266 -55 325 -66 465 -84 47 -5 137 -17 200 -26 669 -89 927 -110 1540 -123 664 -14 1523 17 1885 69 39 6 111 15 160 20 50 6 115 15 145 20 93 16 277 40 309 40 17 0 68 7 113 15 77 14 531 102 658 127 30 6 109 24 175 40 66 16 208 51 315 77 316 78 925 266 1105 341 39 16 115 46 170 65 55 20 145 56 200 80 55 24 138 59 185 78 206 83 743 348 925 457 44 26 103 61 132 76 238 132 678 432 941 642 288 230 663 584 842 796 41 49 93 110 116 135 125 140 388 518 482 691 25 47 55 101 67 120 39 62 165 332 200 425 18 50 42 111 53 136 40 92 140 449 176 629 73 362 79 1032 12 1410 -23 132 -103 440 -149 580 -99 295 -296 710 -435 916 -32 49 -67 104 -76 123 -15 28 -101 146 -246 336 -92 122 -213 261 -342 397 -204 216 -422 414 -713 651 -201 164 -547 402 -850 583 -187 113 -495 284 -540 300 -11 4 -67 33 -125 64 -58 31 -132 67 -165 80 -33 13 -82 36 -110 51 -27 15 -95 46 -150 68 -55 22 -145 59 -200 84 -55 24 -125 52 -155 62 -30 10 -91 33 -135 52 -44 19 -138 54 -210 78 -71 24 -161 56 -200 70 -38 15 -149 49 -245 77 -96 28 -183 54 -193 60 -9 5 -113 34 -230 64 -116 30 -252 65 -302 79 -49 14 -115 29 -145 35 -51 9 -153 30 -460 94 -210 44 -280 55 -686 111 -49 7 -115 17 -145 23 -121 23 -463 54 -854 77 -232 13 -939 37 -990 33 -11 -1 -137 -5 -280 -8z m862 -610 c153 -6 337 -15 408 -20 72 -6 193 -15 270 -20 77 -6 199 -19 270 -30 72 -10 191 -26 265 -35 265 -31 506 -66 590 -84 47 -11 112 -24 145 -30 281 -54 402 -80 662 -145 164 -41 343 -89 398 -107 55 -17 118 -36 140 -41 72 -18 679 -221 715 -239 19 -10 85 -36 146 -58 61 -21 129 -48 151 -60 23 -11 87 -39 143 -61 87 -35 285 -128 590 -279 92 -46 344 -185 379 -210 14 -10 46 -29 71 -41 162 -82 680 -444 885 -620 29 -25 95 -81 146 -125 204 -174 473 -452 661 -682 122 -148 288 -389 389 -563 50 -86 219 -423 219 -437 0 -5 14 -42 31 -83 164 -395 261 -916 244 -1310 -11 -284 -26 -384 -101 -715 -46 -203 -141 -467 -247 -686 -313 -652 -805 -1232 -1513 -1784 -115 -90 -261 -195 -333 -240 -26 -16 -63 -41 -82 -56 -41 -30 -258 -166 -384 -239 -297 -174 -791 -418 -1060 -523 -49 -20 -120 -49 -158 -66 -37 -17 -100 -42 -140 -56 -39 -13 -115 -40 -167 -60 -139 -52 -559 -189 -675 -220 -55 -15 -149 -42 -210 -60 -60 -18 -164 -45 -230 -60 -66 -15 -201 -46 -300 -70 -163 -39 -267 -60 -425 -85 -30 -5 -116 -20 -190 -35 -247 -47 -323 -57 -880 -115 -58 -6 -163 -17 -235 -25 -277 -30 -553 -40 -1110 -40 -575 0 -776 8 -1140 46 -104 11 -215 22 -245 24 -54 5 -136 14 -340 36 -146 15 -358 47 -400 59 -19 6 -78 17 -130 25 -52 9 -117 20 -145 25 -27 5 -115 20 -195 34 -80 14 -167 32 -195 40 -27 7 -122 31 -210 51 -304 71 -692 180 -905 252 -63 22 -160 55 -215 73 -344 112 -1160 462 -1190 510 -3 5 -13 10 -21 10 -25 0 -249 118 -469 247 -310 182 -697 449 -901 623 -29 25 -87 74 -129 110 -177 149 -249 216 -399 372 -374 386 -609 713 -836 1163 -262 520 -400 1170 -361 1702 17 231 24 275 86 546 39 171 70 278 111 385 31 81 63 164 71 185 25 70 138 301 199 406 322 561 753 1043 1359 1524 190 150 620 442 749 509 33 16 82 45 110 63 95 60 310 174 589 310 153 74 282 135 286 135 7 0 131 52 241 103 31 14 85 34 120 45 36 11 101 36 145 55 92 39 549 191 800 266 220 66 752 198 869 216 50 8 168 30 261 50 94 20 208 43 255 51 84 14 109 18 360 49 121 15 276 34 430 54 453 58 1266 84 1907 61z"/>
<path d="M7683 9392 c-20 -3 -62 -64 -361 -532 -29 -47 -105 -164 -167 -260 -63 -96 -133 -206 -156 -245 -23 -38 -71 -115 -107 -170 -99 -153 -135 -208 -231 -360 -49 -77 -114 -178 -144 -225 -30 -47 -96 -150 -147 -230 -51 -80 -136 -212 -189 -293 -53 -81 -107 -167 -120 -190 -23 -40 -121 -192 -218 -338 l-43 -65 2 -560 3 -559 925 -5 925 -5 3 -447 2 -448 442 -2 c283 -2 446 1 454 7 11 8 14 95 16 450 l3 440 225 5 225 5 3 519 c1 370 -1 523 -9 532 -9 11 -61 14 -228 16 l-216 3 -2 1469 c-2 809 -6 1473 -10 1477 -8 7 -835 17 -880 11z m-28 -2262 c0 -491 -3 -682 -11 -690 -8 -8 -138 -11 -454 -10 -244 0 -447 3 -452 6 -10 6 12 50 62 124 48 71 133 201 306 470 75 118 190 296 254 395 64 99 141 218 170 265 64 104 100 144 114 130 8 -8 11 -226 11 -690z"/>
<path d="M4013 9383 c-7 -2 -13 -10 -13 -16 0 -15 -127 -292 -162 -352 -80 -139 -197 -301 -291 -401 -72 -77 -230 -206 -342 -277 -55 -35 -178 -104 -272 -152 -160 -81 -173 -91 -178 -119 -10 -56 -1 -1074 10 -1085 12 -11 346 145 475 222 141 84 296 195 386 276 108 98 172 150 178 144 3 -4 6 -711 6 -1572 0 -861 4 -1571 8 -1578 9 -15 1028 -21 1043 -6 5 5 8 975 7 2464 l-3 2454 -420 2 c-231 1 -426 -1 -432 -4z"/>
<path d="M10530 9375 c-463 -81 -770 -306 -974 -713 -43 -85 -118 -284 -134 -357 -34 -145 -76 -373 -102 -550 -46 -310 -57 -1082 -20 -1468 11 -121 25 -238 30 -260 5 -23 18 -101 29 -174 33 -212 59 -329 107 -473 98 -291 250 -535 443 -711 221 -200 490 -288 886 -289 203 0 437 40 593 101 262 104 468 303 608 586 69 140 91 201 149 413 20 74 40 149 45 165 14 48 30 144 40 235 5 47 18 170 29 273 54 506 49 1036 -14 1567 -65 542 -177 886 -381 1173 -177 247 -377 383 -684 465 -87 23 -116 25 -335 28 -167 2 -263 -1 -315 -11z m383 -934 c68 -30 106 -69 170 -176 33 -54 75 -171 91 -250 74 -373 90 -623 82 -1270 -7 -619 -27 -806 -112 -1080 -57 -185 -174 -313 -317 -345 -67 -15 -142 6 -212 59 -67 51 -94 86 -139 183 -117 251 -145 473 -153 1238 -5 529 1 705 37 1025 23 198 44 281 105 411 35 76 57 107 105 153 71 68 98 79 203 80 65 1 87 -4 140 -28z"/>
<path d="M15680 9383 c-56 -9 -200 -46 -275 -70 -325 -105 -619 -378 -795 -738 -85 -174 -118 -270 -189 -550 -73 -288 -104 -642 -104 -1185 1 -505 27 -796 99 -1095 84 -346 171 -560 321 -785 139 -209 276 -333 483 -438 106 -53 145 -67 260 -91 198 -43 324 -55 512 -48 392 14 646 110 869 330 123 120 168 178 241 312 105 190 180 399 220 615 20 112 23 155 23 410 0 394 -12 480 -110 761 -52 150 -123 290 -215 424 -59 87 -268 288 -340 327 -214 118 -287 138 -495 138 -183 0 -272 -18 -390 -77 -130 -66 -200 -119 -314 -239 -82 -88 -102 -104 -107 -89 -10 26 65 662 87 740 5 16 9 40 9 53 0 64 132 316 192 367 104 88 240 110 347 56 32 -17 71 -45 86 -63 49 -57 104 -187 126 -293 11 -55 24 -104 29 -109 6 -6 64 -1 152 13 79 12 190 28 248 37 58 8 146 24 195 34 50 11 119 24 155 29 36 5 101 15 145 21 116 17 122 19 127 32 5 13 -31 147 -82 304 -62 191 -209 431 -347 566 -78 76 -234 179 -319 211 -101 38 -247 75 -344 87 -80 9 -446 12 -500 3z m357 -2567 c96 -53 156 -116 211 -223 92 -181 116 -306 115 -583 -2 -199 -25 -357 -63 -430 -11 -19 -32 -65 -49 -101 -39 -85 -145 -189 -217 -212 -78 -25 -127 -29 -195 -17 -125 23 -226 103 -313 248 -38 64 -55 109 -78 200 -27 105 -31 138 -35 319 -6 216 6 324 49 460 39 125 139 258 239 319 78 47 105 54 204 50 66 -2 89 -7 132 -30z"/>
<path d="M12747 5823 c-4 -3 -7 -307 -7 -673 0 -550 2 -670 14 -679 9 -8 163 -11 537 -11 288 -1 529 -1 535 0 32 1 34 49 33 705 -1 567 -3 654 -16 659 -21 8 -1088 7 -1096 -1z"/>
<path d="M13545 850 c-3 -5 3 -10 14 -10 11 0 23 5 26 10 3 6 -3 10 -14 10 -11 0 -23 -4 -26 -10z"/>
</g>
</g>
  <g id="id1:id1" transform="matrix(1.25,0,0,1.25,0.0,0.0)"><g transform="translate(0.000000,524.800000) scale(0.040000,-0.040000)" fill="#ffffff" stroke="none">
<path d="M0 6560 l0 -6560 9980 0 9980 0 0 6560 0 6560 -9980 0 -9980 0 0 -6560z m10275 5990 c375 -9 523 -17 905 -46 299 -22 396 -32 505 -50 55 -8 134 -20 175 -25 41 -4 97 -13 125 -18 27 -6 82 -15 120 -20 178 -26 299 -46 405 -67 263 -52 599 -124 650 -139 30 -9 143 -38 250 -66 441 -113 1040 -315 1435 -484 83 -35 173 -73 202 -84 28 -11 101 -45 161 -76 61 -30 115 -55 122 -55 6 0 44 -18 83 -39 40 -22 128 -68 197 -103 172 -89 298 -157 340 -183 19 -12 102 -62 185 -111 281 -167 607 -393 844 -584 449 -362 788 -706 1088 -1105 33 -44 80 -106 104 -138 24 -33 60 -85 79 -117 19 -33 55 -90 78 -127 111 -174 292 -524 337 -653 12 -36 39 -105 58 -155 37 -94 61 -171 120 -390 80 -297 117 -600 117 -957 0 -533 -83 -962 -288 -1489 -75 -192 -255 -542 -363 -706 -30 -45 -66 -101 -81 -125 -34 -54 -140 -198 -235 -320 -243 -312 -513 -587 -897 -913 -270 -229 -723 -545 -1061 -738 -38 -22 -93 -55 -122 -73 -70 -45 -563 -298 -693 -355 -58 -26 -144 -65 -193 -88 -48 -22 -92 -41 -99 -41 -6 0 -65 -24 -132 -54 -67 -30 -157 -66 -201 -81 -44 -15 -105 -39 -135 -53 -30 -13 -116 -44 -190 -68 -74 -24 -193 -63 -265 -88 -71 -25 -182 -59 -245 -76 -63 -18 -155 -45 -205 -60 -49 -15 -153 -42 -230 -60 -77 -18 -174 -43 -215 -55 -41 -12 -133 -34 -205 -48 -648 -130 -722 -143 -965 -172 -74 -9 -158 -21 -187 -26 -28 -6 -89 -14 -135 -19 -45 -5 -117 -14 -158 -20 -379 -53 -1217 -84 -1905 -69 -478 11 -908 37 -1145 69 -74 11 -133 19 -435 59 -313 42 -374 52 -515 81 -80 17 -194 40 -255 51 -251 49 -396 81 -490 109 -55 16 -108 30 -117 30 -79 0 -967 278 -1217 380 -57 23 -127 49 -155 57 -28 8 -73 26 -100 40 -27 14 -90 41 -140 60 -297 115 -1006 473 -1225 619 -42 29 -99 63 -127 77 -28 14 -72 43 -100 64 -27 22 -56 42 -65 45 -21 8 -195 128 -288 197 -40 31 -104 79 -141 106 -115 85 -186 140 -245 191 -381 327 -582 526 -811 804 -57 69 -116 141 -132 160 -44 53 -209 287 -254 360 -22 36 -62 101 -89 145 -62 101 -249 468 -282 555 -87 225 -108 284 -131 365 -14 50 -38 137 -55 195 -126 447 -154 1037 -77 1590 32 233 122 555 234 846 52 135 201 447 239 499 11 17 35 58 52 92 46 92 202 329 298 456 18 23 54 71 80 106 59 79 221 268 362 420 96 104 384 374 507 477 137 114 355 283 473 366 95 67 369 250 416 278 22 13 69 42 105 65 156 101 415 241 748 406 304 150 424 203 687 305 77 30 160 64 185 76 25 11 117 45 205 75 88 30 212 72 275 94 63 21 119 39 126 39 6 0 87 24 180 54 93 30 237 71 319 90 83 20 186 47 230 61 44 13 183 45 310 70 126 26 233 48 236 51 3 2 67 15 140 29 74 13 156 29 182 35 27 5 67 10 89 10 22 0 57 4 77 10 20 5 101 19 181 30 80 12 199 30 265 41 252 40 891 86 1375 98 168 4 316 9 330 9 14 1 196 -3 405 -8z"/>
<path d="M9560 11983 c-295 -5 -852 -42 -1030 -68 -52 -8 -115 -17 -140 -19 -492 -57 -607 -74 -902 -135 -81 -17 -154 -28 -163 -25 -8 4 -21 2 -28 -4 -6 -5 -32 -12 -57 -16 -76 -11 -727 -176 -855 -216 -66 -20 -160 -49 -210 -63 -125 -35 -516 -168 -603 -205 -39 -17 -114 -45 -164 -63 -51 -17 -118 -44 -148 -59 -31 -16 -99 -45 -150 -65 -111 -43 -648 -307 -800 -393 -207 -117 -266 -152 -365 -214 -233 -147 -527 -352 -595 -413 -19 -18 -51 -43 -70 -56 -68 -45 -374 -316 -510 -450 -102 -100 -332 -355 -415 -459 -104 -131 -278 -383 -363 -525 -87 -146 -215 -417 -286 -606 -96 -254 -185 -630 -205 -866 -15 -168 -15 -453 -1 -607 16 -179 99 -577 154 -732 182 -521 396 -899 771 -1361 89 -110 517 -541 640 -646 306 -259 463 -373 900 -658 75 -48 276 -165 395 -229 58 -30 114 -61 125 -68 48 -28 376 -187 464 -224 53 -23 105 -47 116 -54 11 -7 74 -34 140 -59 66 -26 124 -50 130 -54 10 -8 121 -51 300 -116 55 -20 129 -47 165 -60 128 -47 437 -145 555 -176 66 -17 152 -42 190 -54 72 -24 121 -37 400 -100 88 -20 180 -43 205 -50 42 -13 160 -35 450 -85 69 -12 166 -30 215 -40 147 -30 356 -57 710 -90 66 -6 179 -18 250 -26 537 -63 1745 -67 2260 -9 128 15 178 20 465 50 276 28 494 57 599 80 36 8 161 31 276 51 191 32 333 63 780 171 83 19 165 42 184 49 19 8 102 32 185 54 83 21 225 64 315 95 91 30 168 55 173 55 5 0 50 16 101 35 50 20 124 47 162 61 39 14 95 35 125 46 30 11 89 35 130 54 41 18 116 49 165 68 135 52 407 180 659 310 286 147 469 254 744 436 421 278 675 482 1001 804 349 345 592 654 807 1027 89 156 204 393 244 504 94 259 113 316 126 375 45 201 67 303 80 374 36 198 48 537 27 781 -19 224 -102 587 -189 832 -144 405 -368 802 -662 1173 -151 191 -468 526 -632 669 -309 269 -607 495 -850 646 -27 17 -90 56 -142 88 -147 93 -345 207 -503 290 -161 86 -546 268 -673 318 -40 16 -95 40 -121 53 -26 14 -94 41 -152 61 -57 20 -126 46 -154 59 -66 31 -612 210 -835 275 -315 91 -657 172 -970 231 -91 17 -194 38 -230 47 -73 17 -354 60 -475 73 -240 25 -425 49 -436 55 -6 4 -282 28 -519 45 -320 23 -810 32 -1280 23z m-4736 -2613 l26 -10 -2 -2441 -3 -2442 -505 -1 -505 -1 -2 1590 c-2 875 -5 1596 -8 1603 -3 9 -46 -25 -123 -96 -207 -193 -431 -346 -687 -467 -176 -84 -235 -106 -241 -92 -2 7 -3 251 -2 542 l3 530 185 95 c183 95 326 183 417 257 59 48 234 223 293 294 67 79 203 302 250 410 61 141 91 202 108 222 14 16 45 17 393 17 221 0 388 -4 403 -10z m3733 -1250 c2 -690 4 -1358 5 -1483 l3 -229 220 -1 220 -2 0 -510 0 -510 -222 -3 -223 -2 0 -445 c0 -308 -3 -446 -11 -451 -14 -8 -855 -8 -869 1 -8 5 -11 130 -9 441 2 238 -1 437 -5 441 -4 5 -420 10 -924 13 l-917 5 -3 544 -2 545 41 65 c22 36 57 91 77 122 20 31 60 94 89 140 29 46 97 154 152 239 56 85 146 227 202 315 56 88 123 192 148 232 25 39 87 135 136 213 116 181 165 258 257 400 41 63 85 133 98 155 13 22 69 110 125 195 56 85 125 194 154 242 28 48 56 90 62 93 5 4 20 27 34 53 32 62 246 391 273 420 l22 22 432 -2 433 -3 2 -1255z m2486 1245 c264 -40 471 -133 645 -290 149 -135 315 -406 389 -635 74 -230 117 -442 153 -750 7 -52 15 -126 20 -165 5 -38 14 -194 21 -346 12 -282 2 -754 -21 -959 -5 -47 -17 -150 -25 -230 -19 -177 -31 -246 -62 -375 -82 -338 -179 -577 -303 -744 -228 -308 -539 -453 -1000 -468 -434 -13 -718 73 -951 291 -268 250 -443 611 -518 1066 -89 539 -112 907 -91 1450 12 339 30 516 75 765 20 110 41 225 46 255 23 131 141 427 218 550 74 118 89 137 184 232 153 152 301 237 528 302 222 63 481 82 692 51z m5102 0 c220 -25 394 -83 540 -181 256 -171 435 -452 544 -855 12 -41 21 -80 21 -87 0 -20 -34 -31 -171 -52 -74 -12 -172 -30 -219 -40 -81 -18 -162 -31 -315 -51 -68 -8 -148 -20 -230 -34 -53 -9 -58 -1 -79 105 -20 103 -83 240 -134 293 -125 130 -313 129 -457 -4 -74 -68 -175 -263 -195 -375 -17 -100 -57 -383 -69 -494 -7 -58 -17 -145 -22 -193 -11 -88 -6 -157 10 -157 5 0 41 38 80 84 151 178 337 305 496 337 34 8 137 13 240 13 220 1 283 -14 442 -104 177 -101 331 -256 446 -452 80 -136 92 -161 138 -288 100 -276 114 -375 113 -775 0 -364 -13 -452 -100 -705 -59 -172 -76 -212 -152 -345 -91 -159 -270 -347 -407 -427 -157 -92 -246 -123 -452 -158 -130 -23 -367 -27 -518 -10 -114 13 -313 57 -342 76 -12 8 -30 14 -39 14 -31 0 -228 113 -300 171 -262 216 -439 542 -578 1059 -34 126 -53 254 -82 547 -21 205 -25 956 -6 1118 7 55 19 168 27 250 16 159 32 255 66 388 22 87 80 289 100 347 21 64 140 302 176 354 20 28 56 79 80 113 68 95 246 258 360 329 273 169 603 232 988 189z m-2307 -4205 c2 -521 0 -649 -11 -664 -12 -17 -44 -18 -530 -18 -284 1 -521 4 -527 7 -11 7 -15 1307 -3 1318 3 4 245 6 537 5 l531 -3 3 -645z"/>
<path d="M7610 7844 c-25 -36 -54 -80 -64 -97 -11 -18 -65 -102 -121 -187 -56 -85 -121 -186 -145 -225 -69 -110 -329 -514 -369 -573 -20 -30 -58 -89 -86 -133 -27 -43 -67 -106 -89 -140 -31 -49 -36 -63 -25 -70 17 -11 946 -12 952 -1 10 17 12 1485 2 1489 -6 2 -31 -26 -55 -63z"/>
<path d="M10686 8482 c-48 -12 -69 -25 -123 -75 -51 -48 -73 -79 -109 -152 -73 -150 -95 -239 -119 -490 -50 -500 -41 -1521 14 -1835 67 -376 187 -575 376 -625 72 -18 133 -6 219 46 62 37 136 121 178 203 51 99 122 420 138 626 21 253 24 969 6 1261 -19 311 -57 549 -112 712 -28 81 -98 198 -151 249 -79 77 -202 108 -317 80z"/>
<path d="M15802 6859 c-143 -27 -312 -211 -365 -399 -60 -211 -63 -528 -7 -757 32 -135 60 -195 139 -299 49 -65 149 -140 213 -159 76 -22 195 -20 264 6 68 26 187 138 220 209 90 190 105 258 111 510 8 299 -17 439 -113 631 -49 99 -137 190 -227 233 -60 30 -156 40 -235 25z"/>
</g>
</g>
</svg>
