<?xml version="1.0" standalone="no"?>
<!DOCTYPE svg PUBLIC "-//W3C//DTD SVG 1.1//EN"
 "http://www.w3.org/Graphics/SVG/1.1/DTD/svg11.dtd">
<!-- Created with svg_stack (http://github.com/astraw/svg_stack) -->
<svg xmlns:sodipodi="http://sodipodi.sourceforge.net/DTD/sodipodi-0.dtd" xmlns="http://www.w3.org/2000/svg" version="1.1" width="339.0" height="337.0">
  <defs/>
  <g id="id0:id0" transform="matrix(1.25,0,0,1.25,0.0,0.0)"><g transform="translate(0.000000,269.600000) scale(0.040000,-0.040000)" fill="#feffff" stroke="none">
<path d="M3634 5657 c-2 -7 -3 -105 -2 -217 l3 -205 140 -3 c77 -1 144 -7 149 -12 14 -14 100 -12 114 2 13 13 18 361 6 392 -3 9 -14 16 -24 16 -11 0 -22 5 -25 10 -4 6 -60 10 -135 10 -75 0 -131 4 -135 10 -9 15 -85 12 -91 -3z"/>
<path d="M2748 5629 c-16 -17 -18 -41 -18 -197 0 -125 4 -182 12 -190 8 -8 65 -12 188 -12 l177 0 21 23 c21 22 22 33 22 188 0 108 4 169 11 176 28 28 -4 33 -199 32 -181 -1 -198 -2 -214 -20z"/>
<path d="M2205 5581 c-6 -5 -39 -12 -75 -15 -108 -9 -165 -17 -175 -27 -5 -5 -23 -9 -40 -9 -20 -1 -36 -9 -48 -25 -15 -21 -17 -44 -15 -187 l3 -163 54 -3 c30 -2 59 2 64 7 6 6 32 11 58 11 26 0 51 5 54 10 3 6 42 10 86 10 119 0 119 -1 119 208 0 117 -4 172 -12 180 -14 14 -60 16 -73 3z"/>
<path d="M4503 5563 c-9 -3 -13 -30 -13 -83 0 -43 -4 -82 -10 -85 -15 -9 -13 -218 2 -233 7 -7 29 -12 49 -12 21 0 41 -4 44 -10 3 -5 24 -10 45 -10 21 0 42 -4 45 -10 3 -5 30 -10 60 -10 30 0 57 -4 60 -10 9 -14 58 -13 73 2 8 8 12 65 12 193 l0 180 -22 15 c-21 14 -54 22 -151 36 -20 4 -40 10 -43 15 -3 5 -27 9 -54 9 -27 0 -52 5 -55 10 -7 11 -22 12 -42 3z"/>
<path d="M3147 5229 c-16 -17 -17 -39 -15 -207 l3 -187 235 0 235 0 3 130 c1 71 7 134 12 139 18 18 11 86 -11 117 l-20 29 -212 -1 c-196 -1 -213 -2 -230 -20z"/>
<path d="M2485 5220 c-3 -5 -46 -10 -95 -10 -97 0 -100 -2 -100 -69 0 -20 -5 -42 -10 -47 -7 -7 -10 -62 -8 -145 l3 -134 119 -3 c73 -2 123 1 130 8 5 5 47 10 91 10 117 0 115 -4 115 206 0 119 -4 174 -12 182 -15 15 -224 17 -233 2z"/>
<path d="M4062 5198 c-7 -7 -12 -29 -12 -50 0 -21 -5 -47 -12 -58 -10 -15 -9 -24 2 -44 11 -21 11 -31 1 -49 -7 -14 -11 -53 -9 -102 l3 -80 25 -3 c14 -2 29 -8 35 -13 5 -5 43 -9 85 -9 42 0 81 -5 86 -10 7 -7 49 -10 105 -8 l94 3 3 173 c3 214 0 221 -95 222 -34 0 -65 5 -68 10 -3 6 -46 10 -95 10 -49 0 -92 5 -95 10 -8 14 -38 13 -53 -2z"/>
<path d="M1735 5120 c-3 -5 -21 -10 -40 -10 -19 0 -37 -4 -40 -10 -3 -5 -21 -10 -40 -10 -19 0 -37 -4 -40 -10 -3 -5 -17 -10 -30 -10 -13 0 -27 -4 -30 -10 -3 -5 -15 -10 -25 -10 -10 0 -32 -8 -49 -17 l-31 -18 0 -197 c0 -225 -4 -218 84 -173 27 14 60 25 72 25 13 0 26 5 29 10 3 6 19 10 35 10 16 0 32 5 35 10 3 6 25 10 49 10 23 0 46 4 51 9 6 5 26 11 45 13 l35 3 0 195 0 195 -52 3 c-28 2 -54 -2 -58 -8z"/>
<path d="M4875 5058 c-3 -7 -4 -92 -3 -188 l3 -175 25 -3 c14 -2 29 -8 35 -13 5 -5 19 -9 31 -9 13 0 26 -4 29 -10 3 -5 19 -10 35 -10 16 0 32 -4 35 -10 3 -5 21 -10 40 -10 19 0 37 -4 40 -10 3 -5 21 -10 39 -10 17 0 37 -5 43 -11 7 -7 19 -9 27 -6 13 5 16 24 16 96 0 49 5 93 10 96 6 3 10 41 10 84 0 68 -3 80 -23 99 -13 12 -33 22 -45 22 -11 0 -24 5 -27 10 -3 6 -21 10 -40 10 -19 0 -37 5 -40 10 -3 6 -19 10 -35 10 -16 0 -31 4 -34 9 -3 5 -25 12 -48 15 -24 4 -60 9 -80 12 -27 4 -39 2 -43 -8z"/>
<path d="M3037 4676 c-10 -8 -27 -12 -38 -9 -18 5 -38 -1 -91 -28 -10 -5 -45 -9 -77 -9 -33 0 -63 -4 -66 -10 -4 -6 -53 -10 -115 -10 -124 0 -140 -4 -140 -34 0 -12 -5 -27 -12 -34 -9 -9 -5 -19 18 -43 23 -24 29 -40 29 -72 0 -33 4 -42 17 -42 23 0 18 -19 -4 -20 -28 -2 -32 -12 -8 -20 12 -4 27 -1 35 5 22 18 24 5 41 -203 5 -59 9 -69 29 -77 35 -13 39 -29 15 -55 -12 -13 -19 -28 -15 -34 8 -14 82 -14 90 -1 3 6 50 10 105 10 55 0 102 -4 105 -10 3 -5 26 -10 50 -10 24 0 47 5 50 10 3 6 19 10 35 10 16 0 32 5 35 10 8 13 482 14 489 1 6 -9 47 -17 141 -27 28 -3 54 -10 60 -15 5 -5 106 -9 225 -9 246 0 250 1 250 77 0 45 7 58 25 43 9 -8 14 -6 19 5 6 17 91 22 101 5 3 -5 21 -10 40 -10 19 0 37 -4 40 -10 9 -14 109 -12 123 2 7 7 12 36 12 65 l0 53 -41 -6 c-37 -6 -53 -2 -111 27 -10 5 -31 9 -47 9 -17 0 -33 5 -36 10 -3 6 -15 10 -25 10 -11 0 -36 9 -55 20 -20 11 -40 18 -44 16 -5 -3 -17 1 -27 9 -10 8 -27 15 -36 15 -35 0 -29 -23 17 -70 31 -32 46 -54 42 -64 -4 -10 -13 -13 -24 -10 -42 14 -81 35 -93 49 -7 8 -20 15 -28 15 -9 0 -41 18 -72 39 -30 21 -66 41 -80 42 -32 5 -34 35 -2 31 18 -1 22 2 18 16 -8 23 33 61 99 91 28 13 58 27 67 32 21 11 82 12 92 2 4 -4 -8 -20 -25 -34 -28 -23 -31 -29 -20 -42 13 -17 87 -21 97 -6 3 5 16 9 29 9 14 0 39 8 57 18 23 13 57 20 115 21 73 2 83 0 93 -18 10 -19 20 -21 119 -21 59 0 111 -3 115 -7 11 -12 45 -13 51 -2 7 11 -25 53 -33 44 -3 -3 -14 2 -24 12 -10 9 -18 12 -18 8 0 -4 -9 0 -20 10 -11 10 -28 15 -39 12 -22 -5 -73 28 -98 62 -9 14 -25 21 -48 21 -19 0 -37 5 -40 10 -3 6 -30 10 -60 10 -30 0 -56 4 -60 9 -7 12 -66 11 -82 -1 -17 -14 -29 18 -14 36 16 19 -11 40 -44 34 -14 -3 -29 0 -35 7 -13 16 -285 21 -295 5 -3 -5 -17 -10 -30 -10 -13 0 -27 -4 -30 -10 -8 -13 -402 -14 -410 -1 -3 6 -22 9 -43 7 -20 -2 -44 3 -52 10 -18 15 -85 23 -245 29 -94 4 -124 2 -138 -9z m622 -128 c11 -30 6 -38 -28 -38 -15 0 -32 -5 -38 -11 -8 -8 -13 -7 -18 1 -8 13 42 70 62 70 8 0 17 -10 22 -22z m-336 -40 c-3 -6 -12 -3 -20 5 -9 9 -12 20 -8 28 6 9 11 8 21 -6 7 -10 11 -22 7 -27z m127 27 c10 -12 10 -18 0 -30 -10 -12 -15 -12 -36 2 -19 12 -22 19 -13 29 15 18 33 18 49 -1z m-216 -36 c-3 -5 -10 -7 -15 -3 -5 3 -7 10 -3 15 3 5 10 7 15 3 5 -3 7 -10 3 -15z m-127 -40 c9 -9 6 -19 -9 -39 -21 -29 -17 -60 6 -41 15 13 26 4 26 -19 0 -10 7 -23 14 -30 11 -8 12 -18 5 -36 -5 -14 -9 -27 -9 -29 0 -12 70 -75 83 -75 9 0 19 -4 22 -10 3 -5 14 -10 24 -10 23 0 62 -20 85 -43 24 -24 30 -22 77 25 l41 42 17 -21 c10 -13 25 -20 41 -18 14 1 33 -5 43 -13 14 -13 22 -14 36 -5 36 23 30 -1 -11 -43 -32 -33 -45 -41 -55 -32 -9 7 -17 7 -29 -3 -12 -10 -20 -10 -35 -1 -15 10 -23 9 -39 0 -16 -10 -24 -10 -41 0 -15 10 -24 11 -32 3 -6 -6 -26 -11 -45 -11 -26 0 -35 5 -39 20 -6 21 -28 23 -28 3 0 -18 -13 -26 -31 -19 -13 5 -14 9 -4 22 18 21 -2 43 -24 25 -17 -14 -28 -1 -16 19 6 9 -1 23 -22 43 -26 27 -33 29 -50 18 -15 -9 -23 -10 -32 -1 -8 8 -5 15 12 28 l23 18 -16 32 c-9 18 -20 32 -24 32 -16 0 -20 -14 -9 -27 13 -16 -3 -40 -20 -29 -20 12 -7 64 21 86 15 12 27 19 27 15 0 -3 5 -3 10 0 8 5 7 11 -1 21 -10 13 -14 12 -29 -1 -15 -14 -18 -14 -30 0 -12 15 -11 16 12 19 20 2 19 22 -3 42 -12 10 -23 18 -25 17 -2 -2 -4 0 -4 5 0 4 4 7 10 7 5 0 15 6 22 13 15 15 40 16 55 1z m187 -30 c-3 -5 -10 -7 -15 -3 -5 3 -7 10 -3 15 3 5 10 7 15 3 5 -3 7 -10 3 -15z m351 -26 c-4 -19 0 -25 20 -33 22 -8 24 -12 13 -29 -9 -15 -9 -23 1 -35 17 -20 4 -41 -15 -25 -27 22 -39 -6 -14 -29 29 -27 21 -46 -30 -72 l-42 -21 -5 20 c-6 23 -23 27 -40 10 -7 -7 -20 -8 -30 -5 -17 7 -16 9 5 26 13 11 21 24 18 29 -3 5 1 14 9 21 13 11 19 7 17 -11 -1 -4 8 -15 19 -25 25 -23 50 -5 29 21 -9 11 -10 19 -2 27 6 6 8 17 5 24 -3 8 2 17 11 20 20 8 21 38 1 54 -13 11 -12 47 2 73 10 17 34 -17 28 -40z m-251 -44 c-3 -5 -10 -7 -15 -3 -5 3 -7 10 -3 15 3 5 10 7 15 3 5 -3 7 -10 3 -15z m190 -50 c-13 -14 -21 -16 -28 -9 -8 8 -6 15 8 25 26 20 41 7 20 -16z m-299 2 c7 -12 -12 -24 -25 -16 -11 7 -4 25 10 25 5 0 11 -4 15 -9z m99 -52 c-3 -5 -10 -7 -15 -3 -5 3 -7 10 -3 15 3 5 10 7 15 3 5 -3 7 -10 3 -15z m-53 -24 c1 -5 5 -15 10 -22 7 -7 6 -14 -2 -19 -13 -8 -51 35 -42 49 7 11 34 5 34 -8z m-197 -106 c-3 -5 -10 -7 -15 -3 -5 3 -7 10 -3 15 3 5 10 7 15 3 5 -3 7 -10 3 -15z"/>
<path d="M2420 4570 c0 -5 5 -10 10 -10 6 0 10 5 10 10 0 6 -4 10 -10 10 -5 0 -10 -4 -10 -10z"/>
<path d="M2440 4495 c-9 -11 -10 -19 -2 -27 14 -14 32 -1 32 23 0 23 -13 25 -30 4z"/>
<path d="M2462 4438 c-15 -15 -16 -45 -2 -53 6 -3 10 -26 10 -50 0 -24 5 -47 10 -50 6 -3 10 -16 10 -27 0 -23 17 -81 31 -110 5 -10 9 -30 9 -46 0 -15 4 -32 9 -37 5 -6 11 -26 13 -45 2 -23 8 -35 18 -35 18 0 26 53 11 68 -6 6 -11 26 -11 43 0 18 -4 36 -10 39 -5 3 -10 21 -10 40 0 19 -4 37 -10 40 -5 3 -10 21 -10 40 0 19 -5 37 -10 40 -6 4 -9 22 -8 41 1 19 -3 39 -10 46 -7 7 -12 25 -12 40 0 30 -9 35 -28 16z"/>
<path d="M3396 3931 c-10 -11 -30 -21 -45 -23 -14 -2 -27 -10 -27 -18 -1 -8 -2 -19 -3 -25 0 -5 -18 8 -39 28 l-38 37 -30 -15 c-17 -8 -41 -26 -54 -40 -13 -14 -28 -25 -34 -25 -11 0 -96 -80 -96 -90 0 -11 54 -67 70 -72 8 -2 15 -15 15 -29 0 -16 6 -24 18 -24 19 0 39 -24 31 -37 -3 -4 -12 -8 -21 -8 -9 0 -21 -7 -28 -16 -11 -16 -14 -16 -45 0 -38 19 -62 8 -40 -19 10 -12 10 -18 0 -30 -18 -22 -3 -35 39 -35 25 0 44 7 56 20 10 11 26 20 36 20 10 0 27 14 39 31 25 34 57 36 52 2 -2 -12 2 -24 8 -28 17 -11 11 -35 -12 -45 -50 -21 -69 -61 -46 -96 10 -15 -1 -24 -29 -24 -25 0 -73 -26 -86 -47 -5 -9 -35 -13 -92 -13 -74 0 -86 2 -99 21 -11 16 -22 20 -41 17 -14 -3 -29 0 -33 7 -11 19 -100 25 -117 8 -17 -17 -21 -108 -5 -118 6 -3 10 -14 10 -23 0 -9 12 -25 25 -35 l25 -18 29 22 c26 19 33 20 46 9 14 -11 20 -11 37 -1 15 9 23 10 31 2 6 -6 30 -11 54 -11 29 0 46 -5 49 -14 9 -23 35 -28 55 -10 17 16 19 15 28 -8 9 -23 29 -38 51 -38 4 0 17 16 29 36 23 38 41 38 41 -1 0 -36 19 -40 49 -11 20 19 30 23 38 15 21 -21 33 2 33 60 0 64 5 74 29 61 9 -4 33 -16 54 -25 l38 -16 -20 -37 c-11 -20 -22 -44 -24 -53 -3 -9 -19 -23 -35 -30 -16 -7 -35 -21 -41 -32 -10 -16 -7 -23 24 -53 59 -55 103 -86 117 -81 7 2 23 -5 35 -16 18 -16 25 -18 37 -8 12 10 17 8 26 -9 8 -15 18 -20 31 -17 14 4 23 -1 29 -17 5 -13 16 -26 25 -30 13 -5 15 -9 6 -20 -8 -10 -7 -21 5 -45 17 -35 26 -38 44 -16 7 8 19 15 27 15 8 0 28 14 45 30 29 29 80 41 92 21 3 -4 -19 -30 -49 -57 -30 -27 -55 -56 -55 -66 0 -9 -4 -20 -10 -23 -14 -8 -13 -92 1 -101 6 -3 31 13 55 37 30 29 47 40 54 33 7 -7 2 -18 -15 -34 -14 -13 -25 -29 -25 -37 0 -7 -9 -18 -20 -25 -24 -15 -25 -35 -4 -77 17 -34 37 -37 43 -5 1 10 15 34 29 53 20 27 23 37 14 51 -20 32 23 55 48 25 11 -13 9 -21 -10 -47 -19 -25 -21 -35 -11 -49 6 -10 11 -36 11 -57 0 -21 5 -43 11 -49 8 -8 8 -13 0 -17 -14 -9 -14 -89 0 -103 8 -8 6 -18 -6 -37 -15 -22 -25 -26 -64 -26 -26 0 -53 -6 -59 -12 -10 -10 -17 -10 -32 0 -25 15 -102 16 -118 0 -8 -8 -15 -8 -24 -1 -7 6 -24 13 -38 15 l-25 3 -3 95 c-2 57 2 110 9 133 9 29 10 40 1 49 -7 7 -12 20 -12 29 0 20 -52 49 -86 49 -13 0 -28 -9 -34 -20 -14 -25 -33 -16 -24 12 5 17 3 19 -18 12 -26 -8 -52 -12 -148 -20 -36 -3 -71 -11 -77 -16 -17 -13 -17 -140 -1 -156 8 -8 8 -15 0 -24 -6 -8 -12 -43 -14 -78 l-3 -65 -60 -3 c-33 -1 -70 -8 -82 -14 -17 -9 -29 -9 -45 0 -13 7 -54 13 -93 14 l-70 3 -3 30 c-2 17 -8 34 -13 39 -13 14 -11 53 3 76 10 16 10 24 0 40 -15 24 -16 57 -2 65 19 12 10 61 -14 84 -20 19 -31 22 -58 17 -82 -17 -99 -18 -113 -6 -11 9 -19 9 -28 2 -12 -10 -91 -16 -132 -10 -16 2 -20 -4 -22 -35 -4 -45 11 -78 35 -74 9 1 17 -2 17 -8 0 -5 -7 -9 -17 -8 -23 3 -45 -24 -30 -39 16 -16 15 -121 0 -136 -9 -9 -8 -16 5 -30 22 -24 13 -32 -33 -32 -20 0 -41 -5 -48 -12 -9 -9 -15 -9 -24 0 -8 8 -49 12 -118 12 -59 0 -110 3 -114 8 -4 4 -18 7 -29 7 -18 0 -23 7 -25 35 -2 19 -7 39 -12 44 -5 5 -4 17 3 27 9 14 8 22 -6 37 -9 10 -14 22 -11 25 4 4 1 13 -5 21 -8 10 -9 16 -1 21 14 9 13 108 -2 123 -7 7 -35 12 -63 12 -28 0 -56 5 -63 12 -9 9 -15 9 -24 0 -15 -15 -120 -16 -136 0 -8 8 -15 8 -27 -2 -22 -18 -18 -32 15 -60 17 -13 30 -32 30 -42 0 -10 11 -23 25 -28 14 -5 27 -21 31 -35 4 -15 37 -57 75 -94 38 -37 69 -73 69 -78 0 -12 178 -193 189 -193 4 0 20 -14 36 -30 16 -17 34 -30 40 -30 5 0 34 -21 63 -46 42 -37 50 -49 41 -60 -6 -8 -20 -14 -29 -14 -28 0 -80 -33 -80 -50 0 -8 9 -21 20 -28 11 -7 20 -21 20 -31 0 -10 7 -21 15 -24 19 -8 48 -78 37 -89 -5 -5 -14 -2 -22 7 -7 8 -27 15 -46 15 -18 0 -36 5 -39 10 -3 6 -21 10 -40 10 -19 0 -37 5 -40 10 -3 6 -28 10 -55 10 -27 0 -52 5 -55 10 -3 6 -37 10 -75 10 -38 0 -72 5 -75 10 -3 6 -33 10 -65 10 -32 0 -62 5 -65 10 -8 13 -232 13 -240 0 -3 -6 -52 -10 -110 -10 -58 0 -107 -4 -110 -10 -3 -6 -30 -10 -60 -10 -30 0 -57 -5 -60 -10 -3 -6 -19 -10 -35 -10 -16 0 -32 -4 -35 -10 -3 -5 -15 -10 -25 -10 -11 0 -35 -9 -55 -20 -20 -11 -41 -20 -48 -20 -23 0 -104 -45 -121 -68 -34 -45 -18 -52 112 -52 88 0 123 -4 131 -13 13 -16 5 -27 -19 -27 -9 0 -25 -9 -34 -19 -9 -10 -36 -31 -59 -46 -50 -31 -74 -74 -58 -104 6 -11 11 -28 11 -39 0 -29 26 -34 65 -12 20 11 41 20 48 20 7 0 23 9 37 20 14 11 41 20 62 20 20 0 40 5 43 10 3 5 17 10 30 10 13 0 27 5 30 10 3 6 19 10 35 10 16 0 32 5 35 10 3 6 28 10 55 10 27 0 52 5 55 10 3 6 32 10 64 10 31 0 62 5 68 11 17 17 457 -2 478 -22 5 -5 28 -9 51 -9 24 0 46 -5 49 -10 3 -5 21 -10 40 -10 19 0 37 -4 40 -10 3 -5 24 -10 45 -10 21 0 42 -5 45 -10 3 -5 15 -10 26 -10 19 0 28 -4 76 -28 13 -7 36 -12 52 -12 17 0 33 -5 36 -10 10 -16 91 -12 105 5 10 12 7 21 -16 48 -29 34 -67 57 -91 57 -8 0 -28 7 -44 16 -25 12 -28 18 -18 30 6 8 24 14 40 14 15 0 31 5 34 10 3 6 21 10 40 10 19 0 37 5 40 10 3 6 19 10 35 10 16 0 32 5 35 10 3 6 35 10 70 10 35 0 67 5 70 10 3 6 33 10 65 10 32 0 62 4 65 10 3 5 46 10 95 10 49 0 92 5 95 10 8 14 552 14 560 0 3 -5 37 -10 74 -10 37 0 71 -4 76 -9 6 -5 33 -12 60 -15 94 -10 135 -18 141 -27 3 -5 18 -9 34 -9 16 0 32 -4 35 -10 3 -5 17 -10 30 -10 13 0 27 -4 30 -10 3 -5 21 -10 39 -10 18 0 36 -3 40 -7 4 -5 12 -8 17 -8 5 0 10 -4 12 -10 1 -6 -43 -11 -113 -13 -145 -3 -152 -5 -200 -48 -41 -37 -49 -61 -28 -82 15 -15 234 -17 243 -2 3 6 19 10 35 10 16 0 32 5 35 10 3 5 35 10 70 10 35 0 67 5 70 10 3 5 26 10 50 10 24 0 47 5 50 10 3 6 42 10 85 10 43 0 82 5 85 10 3 6 21 10 40 10 19 0 37 5 40 10 3 5 28 10 55 10 27 0 52 5 55 10 3 6 25 10 49 10 23 0 46 4 51 9 11 10 70 19 175 27 36 3 74 9 85 14 37 17 493 36 508 21 6 -6 50 -11 98 -11 48 0 91 -4 94 -10 3 -5 24 -10 45 -10 21 0 42 -4 45 -10 3 -5 21 -10 38 -10 18 0 43 -9 57 -20 31 -24 39 -24 68 0 l24 20 -54 49 c-29 28 -59 50 -65 51 -23 0 -98 48 -98 62 0 9 18 14 65 16 99 3 110 8 110 42 0 24 -5 31 -27 35 -16 4 -36 10 -45 16 -10 5 -26 9 -35 9 -10 0 -29 9 -43 20 -14 11 -32 20 -40 20 -19 0 -87 24 -96 33 -4 4 -29 7 -55 7 -26 0 -51 5 -54 10 -3 6 -49 10 -104 10 -54 0 -102 5 -107 10 -20 20 -557 0 -579 -21 -5 -5 -48 -9 -96 -9 -48 0 -91 -4 -94 -10 -3 -5 -21 -10 -40 -10 -19 0 -37 -5 -40 -10 -3 -5 -19 -10 -35 -10 -16 0 -32 -4 -35 -10 -3 -5 -21 -10 -40 -10 -19 0 -37 -4 -40 -10 -3 -5 -24 -10 -45 -10 -21 0 -42 -4 -45 -10 -8 -13 -72 -13 -80 1 -4 6 6 27 22 47 15 20 35 49 42 65 13 25 13 29 -9 52 -13 14 -33 25 -46 25 -12 0 -27 7 -34 15 -10 12 -9 16 6 22 11 4 25 15 32 25 7 10 19 18 27 18 8 0 29 14 47 31 18 17 53 47 77 67 77 64 311 304 311 318 0 8 7 17 15 20 8 4 15 12 15 19 0 7 16 23 35 36 19 13 35 30 35 38 0 8 7 22 16 32 9 10 13 23 9 28 -7 12 -281 16 -309 5 -20 -7 -22 -84 -4 -102 10 -10 10 -17 0 -32 -15 -24 -16 -82 -1 -97 7 -7 7 -17 1 -29 -6 -11 -13 -27 -16 -36 -3 -10 -14 -18 -25 -18 -11 0 -23 -4 -26 -10 -3 -5 -36 -10 -72 -10 -48 0 -72 -5 -85 -17 -17 -15 -19 -15 -36 0 -10 10 -35 17 -55 17 -42 0 -52 10 -32 36 16 22 20 100 5 109 -13 8 -13 52 0 60 18 11 9 88 -13 113 -19 20 -30 22 -118 22 -54 0 -101 4 -104 10 -3 6 -16 10 -29 10 -29 0 -39 10 -25 27 9 9 8 17 0 27 -6 7 -9 20 -6 28 3 8 -1 21 -9 28 -18 14 -12 32 9 24 7 -3 18 4 24 15 8 13 17 18 28 14 12 -5 15 -2 10 9 -8 22 3 30 20 16 11 -9 17 -8 29 3 13 13 12 19 -2 47 -17 34 -24 38 -40 22 -8 -8 -18 0 -35 25 -25 37 -34 42 -44 25 -11 -17 -25 0 -25 30 0 16 -4 32 -10 35 -5 3 -10 15 -10 25 0 29 -21 35 -39 11 -13 -17 -19 -19 -29 -9 -14 14 -28 3 -34 -27 -2 -11 -10 -20 -18 -20 -12 0 -16 16 -18 71 l-3 71 -39 38 c-33 32 -42 36 -54 25 -18 -15 -24 -5 -28 50 -3 38 -30 50 -36 15 -7 -41 -12 -49 -24 -37 -9 9 -21 4 -49 -24 -20 -20 -39 -31 -43 -26 -3 5 17 31 44 56 28 26 50 52 50 59 0 7 5 18 12 25 9 9 9 15 0 24 -9 9 -17 7 -35 -10 -32 -30 -40 -17 -15 26 l20 36 -25 21 c-20 16 -23 24 -16 43 6 17 4 30 -8 49 -10 15 -16 40 -14 56 3 27 1 29 -23 25 -36 -7 -43 9 -16 37 23 24 20 45 -6 45 -8 0 -17 -6 -20 -13 -8 -21 -62 -58 -69 -47 -3 5 2 18 12 28 40 42 58 111 33 127 -12 8 -13 99 -1 123 32 62 35 74 25 90 -16 25 -47 26 -68 3z m29 -31 c10 -16 -16 -43 -28 -31 -11 11 -2 41 12 41 5 0 13 -5 16 -10z m-179 -51 c2 -27 -5 -41 -32 -67 -39 -38 -69 -34 -33 4 18 20 20 26 9 39 -11 13 -9 20 10 40 30 32 44 27 46 -16z m28 -116 c-33 -24 -52 -7 -34 28 l12 21 19 -18 c19 -17 19 -19 3 -31z m107 -6 c-6 -6 -11 -28 -11 -49 0 -25 -5 -41 -15 -44 -22 -9 -48 4 -38 18 4 7 9 31 10 53 4 63 9 68 38 49 18 -12 23 -20 16 -27z m-171 -47 c25 -35 18 -60 -11 -34 -10 9 -16 20 -14 25 3 4 1 10 -5 14 -9 6 -5 25 5 25 2 0 13 -13 25 -30z m94 -1 c-3 -5 -10 -7 -15 -3 -5 3 -7 10 -3 15 3 5 10 7 15 3 5 -3 7 -10 3 -15z m75 -145 c-6 -7 -15 -11 -21 -8 -5 3 -4 12 3 20 6 7 15 11 21 8 5 -3 4 -12 -3 -20z m-115 -185 c-3 -5 -10 -7 -15 -3 -5 3 -7 10 -3 15 3 5 10 7 15 3 5 -3 7 -10 3 -15z m206 6 c13 -16 12 -17 -20 -17 -11 0 -23 0 -26 1 -9 1 16 31 26 31 4 0 13 -7 20 -15z m-306 -66 c-3 -5 -10 -7 -15 -3 -5 3 -7 10 -3 15 3 5 10 7 15 3 5 -3 7 -10 3 -15z m360 -70 c-9 -10 -21 -16 -26 -13 -5 3 -2 14 8 25 9 10 21 16 26 13 5 -3 2 -14 -8 -25z m80 -100 c-3 -5 -10 -7 -15 -3 -5 3 -7 10 -3 15 3 5 10 7 15 3 5 -3 7 -10 3 -15z m-14 -29 c0 -13 -59 -40 -65 -30 -7 11 45 51 56 44 5 -3 9 -9 9 -14z m160 -80 c0 -10 -4 -22 -10 -25 -5 -3 -10 -24 -10 -45 0 -39 -13 -60 -25 -40 -4 6 -10 8 -15 5 -5 -3 -11 -1 -14 4 -4 5 -2 12 4 16 5 3 10 14 10 24 0 17 12 46 33 79 11 16 27 6 27 -18z m-111 -57 c-15 -18 -34 -1 -25 22 5 14 9 15 21 5 12 -10 13 -16 4 -27z m285 -134 c-3 -5 -10 -7 -15 -3 -5 3 -7 10 -3 15 3 5 10 7 15 3 5 -3 7 -10 3 -15z m98 -41 c-16 -16 -37 4 -28 28 6 16 8 16 23 1 13 -13 15 -19 5 -29z m-73 -21 c15 -19 4 -27 -39 -27 -20 0 -41 -5 -48 -12 -9 -9 -15 -9 -23 -1 -15 15 -3 33 21 33 10 0 22 5 25 10 9 15 51 12 64 -3z m-1374 -377 c-5 -8 -11 -8 -17 -2 -6 6 -7 16 -3 22 5 8 11 8 17 2 6 -6 7 -16 3 -22z m760 21 c7 -12 -12 -24 -25 -16 -11 7 -4 25 10 25 5 0 11 -4 15 -9z m149 -62 c-3 -5 -10 -7 -15 -3 -5 3 -7 10 -3 15 3 5 10 7 15 3 5 -3 7 -10 3 -15z m590 -20 c-3 -5 -10 -7 -15 -3 -5 3 -7 10 -3 15 3 5 10 7 15 3 5 -3 7 -10 3 -15z m-550 -220 c-3 -5 -10 -7 -15 -3 -5 3 -7 10 -3 15 3 5 10 7 15 3 5 -3 7 -10 3 -15z m810 0 c-3 -5 -10 -7 -15 -3 -5 3 -7 10 -3 15 3 5 10 7 15 3 5 -3 7 -10 3 -15z m-919 -68 c7 -12 -12 -24 -25 -16 -11 7 -4 25 10 25 5 0 11 -4 15 -9z m-451 -192 c-3 -5 -10 -7 -15 -3 -5 3 -7 10 -3 15 3 5 10 7 15 3 5 -3 7 -10 3 -15z m510 -60 c-3 -5 -10 -7 -15 -3 -5 3 -7 10 -3 15 3 5 10 7 15 3 5 -3 7 -10 3 -15z m210 0 c-3 -5 -10 -7 -15 -3 -5 3 -7 10 -3 15 3 5 10 7 15 3 5 -3 7 -10 3 -15z m1640 -70 c-3 -5 -10 -7 -15 -3 -5 3 -7 10 -3 15 3 5 10 7 15 3 5 -3 7 -10 3 -15z m-2900 -30 c-3 -5 -10 -7 -15 -3 -5 3 -7 10 -3 15 3 5 10 7 15 3 5 -3 7 -10 3 -15z m-762 -51 c-16 -16 -37 4 -28 28 6 16 8 16 23 1 13 -13 15 -19 5 -29z m382 -9 c-3 -5 -10 -7 -15 -3 -5 3 -7 10 -3 15 3 5 10 7 15 3 5 -3 7 -10 3 -15z m3050 0 c-3 -5 -10 -7 -15 -3 -5 3 -7 10 -3 15 3 5 10 7 15 3 5 -3 7 -10 3 -15z m-2650 -10 c-3 -5 -10 -7 -15 -3 -5 3 -7 10 -3 15 3 5 10 7 15 3 5 -3 7 -10 3 -15z m-1080 -40 c-3 -5 -10 -7 -15 -3 -5 3 -7 10 -3 15 3 5 10 7 15 3 5 -3 7 -10 3 -15z m-90 -30 c-3 -5 -10 -7 -15 -3 -5 3 -7 10 -3 15 3 5 10 7 15 3 5 -3 7 -10 3 -15z m471 11 c11 -17 -5 -32 -21 -19 -7 6 -11 15 -8 20 7 12 21 11 29 -1z m279 -11 c-3 -5 -10 -7 -15 -3 -5 3 -7 10 -3 15 3 5 10 7 15 3 5 -3 7 -10 3 -15z m356 -123 c-15 -15 -34 9 -26 31 l7 18 15 -19 c9 -13 11 -23 4 -30z"/>
<path d="M2594 3885 c-4 -9 -2 -26 4 -38 6 -12 12 -31 14 -41 2 -11 9 -21 15 -24 19 -6 27 26 15 51 -6 12 -12 31 -14 41 -4 25 -26 32 -34 11z"/>
<path d="M2633 3724 c-3 -9 -1 -25 5 -35 7 -10 12 -37 12 -58 0 -22 5 -43 10 -46 6 -3 10 -17 10 -30 0 -13 5 -27 10 -30 6 -3 10 -18 10 -32 0 -35 31 -104 44 -100 15 5 20 47 7 60 -6 6 -11 26 -11 43 0 18 -4 36 -10 39 -5 3 -10 21 -10 40 0 19 -4 37 -10 40 -5 3 -10 19 -10 34 0 32 -27 91 -41 91 -5 0 -12 -7 -16 -16z"/>
<path d="M2980 3510 c0 -5 5 -10 10 -10 6 0 10 5 10 10 0 6 -4 10 -10 10 -5 0 -10 -4 -10 -10z"/>
<path d="M2797 3154 c-13 -13 -7 -61 8 -74 23 -19 35 -1 27 39 -7 34 -22 48 -35 35z"/>
<path d="M4344 3119 c-10 -17 13 -36 27 -22 12 12 4 33 -11 33 -5 0 -12 -5 -16 -11z"/>
<path d="M4414 3089 c-3 -6 5 -23 20 -37 20 -20 28 -24 38 -14 9 9 6 17 -12 37 -26 28 -35 31 -46 14z"/>
<path d="M4500 2990 c0 -5 5 -10 10 -10 6 0 10 5 10 10 0 6 -4 10 -10 10 -5 0 -10 -4 -10 -10z"/>
<path d="M4040 2890 c0 -5 5 -10 10 -10 6 0 10 5 10 10 0 6 -4 10 -10 10 -5 0 -10 -4 -10 -10z"/>
<path d="M4534 2809 c-10 -17 13 -36 27 -22 12 12 4 33 -11 33 -5 0 -12 -5 -16 -11z"/>
<path d="M4134 2786 c-8 -22 3 -49 19 -43 6 2 12 14 12 27 0 27 -22 39 -31 16z"/>
<path d="M4190 2744 c-11 -13 -10 -19 8 -37 21 -20 23 -20 39 -4 16 15 16 18 -2 37 -22 24 -29 25 -45 4z"/>
<path d="M4475 2730 c-10 -16 16 -43 28 -31 11 11 2 41 -12 41 -5 0 -13 -5 -16 -10z"/>
<path d="M4304 2719 c-10 -17 13 -36 27 -22 12 12 4 33 -11 33 -5 0 -12 -5 -16 -11z"/>
<path d="M4394 2709 c-10 -17 13 -36 27 -22 12 12 4 33 -11 33 -5 0 -12 -5 -16 -11z"/>
<path d="M3032 1450 c-9 -15 -9 -25 -1 -38 12 -18 54 -42 76 -42 7 0 18 -9 25 -20 7 -11 20 -20 29 -20 9 0 24 -9 34 -20 10 -11 23 -20 30 -20 7 0 20 -9 30 -20 21 -23 67 -26 84 -6 13 15 111 66 128 66 6 0 13 6 16 13 2 7 24 22 48 35 71 36 85 50 73 70 -10 15 -38 17 -285 20 l-274 2 -13 -20z"/>
</g>
</g>
  <g id="id1:id1" transform="matrix(1.25,0,0,1.25,0.0,0.0)"><g transform="translate(0.000000,269.600000) scale(0.040000,-0.040000)" fill="#8c0406" stroke="none">
<path d="M2716 4832 c-5 -9 -54 -12 -441 -32 -251 -14 -335 -21 -341 -31 -3 -5 -18 -9 -34 -9 -19 0 -33 -7 -40 -21 -9 -16 -18 -19 -39 -14 -18 4 -32 1 -40 -9 -8 -10 -24 -12 -52 -9 -38 6 -53 1 -122 -33 -16 -8 -40 -14 -53 -14 -14 0 -42 -9 -64 -20 -22 -11 -45 -20 -51 -20 -37 0 -38 -17 -39 -642 0 -394 4 -609 10 -613 6 -3 10 -48 10 -100 0 -52 4 -97 10 -100 5 -3 10 -26 10 -50 0 -24 5 -47 10 -50 6 -3 10 -19 10 -35 0 -16 8 -44 18 -62 11 -18 22 -49 26 -69 3 -20 17 -46 31 -59 14 -13 25 -32 25 -41 0 -10 8 -33 19 -51 41 -72 51 -94 56 -129 l5 -36 63 -8 c55 -7 123 -9 175 -5 44 3 126 -14 168 -35 60 -30 74 -59 74 -154 0 -72 15 -141 36 -161 5 -5 63 -11 130 -13 128 -4 154 2 154 40 0 10 5 24 12 31 9 9 9 18 0 36 -14 31 -14 216 0 234 6 6 20 12 32 12 12 0 26 4 32 10 5 5 50 9 99 9 160 0 161 -1 205 -44 l40 -39 0 -92 c0 -69 4 -95 15 -104 8 -7 12 -16 9 -21 -2 -5 3 -20 12 -34 l16 -25 107 0 c68 1 111 5 121 13 31 25 40 67 40 186 l0 117 28 27 c16 15 30 25 33 23 2 -2 36 -6 76 -9 55 -5 74 -3 83 9 7 8 27 14 45 14 17 0 35 3 38 7 4 3 19 8 33 9 14 2 32 8 40 15 21 17 46 74 42 97 -2 10 3 27 11 36 8 9 14 29 15 44 1 20 6 26 19 24 10 -2 17 3 17 13 0 17 -25 21 -35 5 -9 -15 -25 -2 -25 21 0 25 -37 62 -55 55 -8 -3 -17 -1 -20 4 -4 6 -17 10 -30 10 -13 0 -27 5 -30 10 -3 6 -16 10 -29 10 -21 0 -56 27 -56 44 0 4 -13 19 -30 33 -16 13 -30 31 -30 39 0 10 -7 13 -24 8 -32 -8 -52 23 -29 48 13 15 13 16 -6 11 -12 -3 -24 -9 -27 -14 -3 -5 -36 -9 -74 -9 -58 0 -71 3 -79 19 -6 10 -25 21 -43 24 -32 6 -123 23 -143 27 -5 2 -24 -1 -42 -5 -24 -6 -32 -13 -35 -36 -3 -16 0 -33 5 -38 12 -12 -1 -34 -14 -25 -6 3 -8 12 -5 20 3 7 1 16 -5 20 -6 3 -14 17 -19 30 -6 14 -18 24 -28 24 -38 0 -52 32 -52 113 0 42 5 79 10 82 6 3 10 17 10 30 0 13 -4 27 -10 30 -5 3 -10 15 -10 26 0 21 -10 25 -26 9 -7 -7 -20 0 -40 21 -25 26 -29 38 -29 89 0 41 5 64 17 77 10 11 15 27 12 40 -3 11 -1 23 4 27 12 7 38 -31 48 -69 4 -15 14 -29 23 -32 9 -3 32 -18 51 -32 47 -35 79 -51 101 -51 10 0 21 -5 24 -11 4 -6 19 -9 33 -8 15 2 33 0 40 -5 14 -9 34 4 72 48 26 31 39 109 20 121 -6 4 -10 26 -10 50 0 38 4 47 39 74 21 17 43 31 48 31 5 0 20 12 34 26 32 35 83 57 111 49 l23 -6 -27 23 c-38 33 -40 62 -5 66 44 5 31 22 -18 22 -33 0 -45 -4 -45 -14 0 -22 -19 -30 -35 -16 -11 9 -19 9 -27 2 -18 -15 -55 -16 -265 -10 -122 3 -176 -6 -213 -33 -40 -30 -77 -42 -86 -27 -3 5 -17 13 -31 19 -29 11 -30 56 0 51 10 -2 17 3 17 14 0 10 -5 14 -15 11 -8 -4 -17 -2 -20 4 -4 5 1 12 10 15 9 4 14 13 11 21 -10 25 5 35 25 17 21 -19 38 -12 22 8 -6 7 -13 32 -16 55 -4 32 -1 46 13 58 13 12 17 28 15 66 -3 56 -18 79 -50 79 -25 0 -55 45 -55 82 0 10 -4 18 -10 18 -9 0 -11 -5 -14 -37 -2 -27 -21 -16 -21 12 -1 17 -4 37 -7 45 -14 33 -15 70 -2 81 15 12 8 33 -7 23 -6 -3 -13 4 -16 15 -4 17 -8 19 -20 10 -21 -18 -32 1 -24 46 7 45 34 56 39 15 5 -40 35 -47 193 -44 213 3 278 11 315 39 21 16 38 21 58 18 15 -3 38 0 50 7 37 19 354 1 383 -22 7 -6 34 -11 60 -12 27 -2 55 -6 64 -10 26 -11 339 0 394 14 55 15 314 23 330 10 6 -4 28 -11 49 -14 22 -4 54 -18 71 -32 18 -13 45 -24 61 -24 17 0 34 -4 40 -9 5 -5 27 -11 49 -15 102 -14 118 -19 122 -37 3 -11 13 -19 23 -19 9 0 25 -9 35 -20 19 -21 69 -27 80 -10 4 6 11 8 16 4 6 -4 6 -11 -2 -20 -9 -11 -8 -14 4 -14 9 0 19 -5 23 -11 14 -23 -23 -37 -112 -42 -78 -4 -95 -2 -115 14 -27 21 -143 27 -154 9 -4 -6 -15 -8 -24 -5 -10 3 -23 -1 -30 -9 -9 -10 -28 -12 -75 -9 -43 4 -66 2 -71 -6 -10 -17 -45 15 -45 41 0 23 -53 25 -90 3 -14 -8 -32 -17 -40 -21 -41 -19 -60 -48 -60 -91 0 -38 3 -45 28 -54 15 -5 34 -20 44 -32 13 -17 19 -19 31 -9 8 7 27 10 43 6 25 -5 30 -2 41 25 8 23 18 31 36 31 13 0 29 -6 35 -13 6 -7 26 -14 44 -15 19 -1 40 -11 50 -22 10 -13 19 -17 23 -10 4 7 11 7 18 2 13 -10 16 -11 102 -18 33 -3 69 -9 80 -14 11 -5 29 -10 40 -12 30 -5 34 -73 5 -103 -26 -28 -83 -36 -125 -19 -16 6 -58 15 -92 19 -85 9 -121 -6 -129 -57 -12 -70 -17 -71 -265 -70 -121 1 -225 5 -232 9 -7 4 -22 6 -35 4 -13 -1 -30 3 -39 11 -9 7 -21 13 -27 13 -63 4 -158 19 -162 26 -7 12 -44 11 -44 0 0 -6 5 -13 10 -16 20 -13 -11 -35 -49 -35 -35 -1 -71 -18 -71 -36 0 -4 5 -3 12 4 17 17 58 15 65 -4 3 -9 1 -25 -5 -35 -6 -10 -16 -48 -22 -86 -10 -60 -9 -69 6 -80 10 -7 19 -30 21 -50 2 -24 11 -43 23 -52 12 -8 20 -25 20 -42 0 -18 7 -32 19 -39 19 -10 39 -82 33 -123 -1 -11 8 -33 20 -50 29 -40 48 -76 48 -91 0 -6 8 -16 19 -23 10 -6 22 -28 25 -47 5 -25 12 -36 24 -36 22 0 105 -96 96 -111 -4 -7 0 -9 13 -5 12 4 31 -3 52 -19 19 -13 38 -22 42 -19 5 2 16 1 26 -4 10 -6 31 -16 47 -23 16 -8 31 -22 34 -31 2 -10 10 -18 17 -18 15 0 45 -43 45 -65 0 -8 4 -15 10 -15 5 0 16 -13 24 -29 16 -30 7 -51 -22 -51 -8 0 -12 -6 -8 -15 6 -17 -25 -38 -63 -44 -15 -2 -19 -51 -8 -82 7 -18 17 -27 25 -24 8 3 16 -3 19 -15 4 -16 14 -20 44 -20 21 0 41 -5 45 -11 4 -7 24 -9 50 -6 53 6 105 -21 98 -51 -3 -10 2 -24 10 -31 20 -17 20 -44 0 -100 -13 -39 -13 -45 1 -61 8 -9 15 -26 15 -38 0 -11 5 -24 10 -27 6 -4 8 -10 5 -15 -9 -14 13 -22 68 -25 59 -4 117 18 117 44 0 9 5 22 12 29 8 8 12 45 11 110 -2 82 1 104 17 130 l20 32 72 2 c40 1 123 1 183 -1 92 -3 113 -1 124 13 7 9 20 16 27 16 25 0 94 91 94 124 0 15 43 101 62 124 33 40 39 65 75 305 3 20 9 40 14 43 5 3 9 25 9 49 0 24 5 47 10 50 6 3 10 35 10 70 0 35 5 67 10 70 6 4 10 92 10 230 0 138 4 226 10 230 6 4 10 126 10 334 l0 328 -26 27 c-16 15 -38 26 -54 26 -15 0 -33 7 -40 15 -7 8 -29 15 -49 15 -20 0 -56 8 -81 17 -25 8 -57 15 -72 14 -15 -1 -29 3 -33 9 -3 5 -18 10 -32 10 -16 0 -27 7 -30 19 -3 14 -17 21 -46 25 -114 15 -133 19 -141 27 -6 5 -71 9 -145 10 -75 0 -161 5 -191 10 -30 5 -103 12 -162 14 -64 2 -121 10 -143 20 -27 11 -73 15 -166 15 -74 0 -130 4 -134 10 -8 13 -112 13 -120 0 -7 -12 -483 -11 -491 2 -7 11 -401 11 -408 0z m-463 -169 c4 -3 2 -12 -4 -20 -8 -9 -39 -13 -105 -13 -51 0 -96 -4 -99 -10 -3 -5 -25 -10 -49 -10 -23 0 -47 -5 -53 -11 -16 -16 -88 -7 -88 11 0 8 11 16 25 18 14 2 29 8 35 13 5 5 24 9 41 9 18 0 36 5 39 10 7 11 247 14 258 3z m2573 -88 c10 -24 -5 -36 -27 -24 -16 8 -18 13 -8 25 15 18 28 18 35 -1z m-3198 -28 c2 -11 -6 -30 -19 -43 l-22 -24 21 -23 c20 -22 22 -33 22 -159 0 -122 -2 -137 -20 -153 -18 -16 -20 -31 -20 -155 0 -124 2 -139 20 -155 11 -10 17 -22 14 -27 -3 -5 -14 -2 -25 8 -12 11 -29 15 -49 12 -31 -5 -49 5 -30 17 15 9 14 637 -2 653 -20 20 39 74 77 70 20 -2 31 -9 33 -21z m3382 -12 c10 -12 9 -16 -5 -21 -19 -8 -40 9 -31 25 10 15 21 14 36 -4z m158 -149 c4 -44 -10 -65 -30 -49 -7 6 -24 13 -38 15 -56 7 -23 82 34 76 28 -3 31 -7 34 -42z m-304 3 c-3 -5 -10 -7 -15 -3 -5 3 -7 10 -3 15 3 5 10 7 15 3 5 -3 7 -10 3 -15z m-2350 -110 c-3 -5 -10 -7 -15 -3 -5 3 -7 10 -3 15 3 5 10 7 15 3 5 -3 7 -10 3 -15z m2654 -163 c1 -71 -1 -133 -6 -138 -4 -4 -23 -1 -40 8 -30 15 -32 19 -32 71 0 39 5 62 17 75 15 17 15 20 -12 48 -16 16 -26 33 -22 36 16 16 54 32 72 31 19 -2 20 -10 23 -131z m-2780 -80 c4 -35 -42 -88 -73 -84 -16 2 -21 12 -23 45 -3 37 0 43 25 56 43 23 67 17 71 -17z m2417 -37 c9 -14 -24 -49 -47 -49 -21 0 -33 22 -24 45 6 17 61 21 71 4z m-353 -66 c10 -9 18 -29 18 -45 0 -35 13 -36 38 -1 l20 28 22 -20 c11 -10 20 -28 18 -39 -3 -19 -11 -21 -102 -24 -55 -1 -103 1 -108 6 -12 12 41 112 60 112 8 0 24 -7 34 -17z m-1544 -75 c2 -18 -10 -39 -43 -76 -26 -29 -51 -52 -55 -52 -5 0 -16 14 -24 32 -28 55 -15 106 20 77 13 -10 20 -7 47 19 36 36 51 36 55 0z m717 22 c3 -5 17 -10 29 -10 25 0 51 -22 39 -33 -3 -4 -28 -7 -53 -7 -31 0 -52 -6 -60 -15 -23 -28 -35 0 -16 39 17 35 47 48 61 26z m1141 -21 c10 -17 -13 -36 -27 -22 -12 12 -4 33 11 33 5 0 12 -5 16 -11z m-581 -99 l0 -45 -145 0 -145 0 -3 25 c-2 14 -8 30 -14 37 -23 28 4 33 155 31 l152 -3 0 -45z m-1757 -54 c3 -49 0 -62 -19 -83 l-23 -24 -26 33 c-41 53 -52 79 -39 94 18 21 62 42 84 41 17 -2 20 -10 23 -61z m1324 7 c10 -9 18 -24 18 -34 0 -10 9 -35 20 -55 16 -28 18 -39 9 -50 -14 -17 11 -51 49 -65 27 -11 29 -40 2 -64 -14 -12 -20 -31 -20 -58 0 -42 -22 -77 -48 -77 -23 0 -52 30 -52 55 0 11 -5 26 -11 32 -8 8 -7 17 3 32 10 17 10 25 0 41 -6 11 -12 26 -12 33 0 26 -50 114 -85 147 -33 32 -43 58 -28 73 3 4 36 7 71 7 47 0 71 -5 84 -17z m-2179 -226 c15 -6 17 -21 17 -120 0 -63 -3 -117 -7 -120 -13 -13 -33 16 -33 49 0 18 -4 36 -10 39 -5 3 -10 34 -10 69 0 34 -5 67 -11 73 -7 7 -9 19 -5 29 6 15 8 15 24 2 9 -8 25 -18 35 -21z m865 7 c22 -10 32 -23 32 -38 0 -12 5 -27 11 -33 6 -6 9 -23 7 -39 -2 -22 -9 -30 -26 -32 -30 -4 -80 19 -111 52 -14 14 -30 26 -37 26 -22 0 -27 21 -8 41 9 10 27 19 40 19 13 0 26 5 29 10 9 14 27 12 63 -6z m1847 -114 c3 -5 21 -10 40 -10 19 0 37 -4 40 -10 3 -5 21 -10 39 -10 17 0 36 -4 42 -9 5 -5 20 -11 34 -13 22 -3 25 -8 28 -52 3 -53 -10 -78 -30 -58 -7 7 -22 12 -33 12 -12 0 -30 9 -40 20 -10 11 -28 20 -40 20 -11 0 -25 4 -30 9 -6 6 -35 11 -65 13 l-55 3 -3 33 c-2 19 -1 40 2 48 6 16 62 19 71 4z m-242 -78 c33 -34 33 -89 -1 -125 -13 -14 -20 -30 -17 -39 8 -20 -13 -34 -28 -19 -6 6 -18 11 -27 11 -22 0 -75 26 -90 45 -7 8 -18 15 -26 15 -20 0 -27 19 -13 36 10 13 16 10 40 -18 l27 -33 31 29 c25 24 31 38 31 71 0 23 3 45 7 48 14 14 40 6 66 -21z m785 -53 c2 -37 9 -61 23 -75 18 -19 18 -23 3 -52 -8 -17 -20 -34 -25 -38 -17 -10 -39 17 -39 49 0 21 -10 41 -32 64 l-32 33 39 40 c22 22 44 39 50 37 5 -2 11 -28 13 -58z m-3194 -151 c20 -40 20 -82 0 -114 -27 -40 -44 -14 -44 66 0 89 16 106 44 48z m3035 -10 c5 -13 21 -34 35 -47 20 -19 26 -34 26 -66 0 -22 4 -45 9 -50 6 -6 11 -30 13 -55 2 -38 7 -47 31 -58 32 -15 33 -23 8 -46 -14 -12 -32 -16 -67 -14 -43 3 -49 6 -52 27 -2 13 2 35 9 48 10 19 10 28 1 43 -7 11 -12 38 -12 59 0 22 -4 43 -10 46 -5 3 -10 17 -10 30 0 13 -4 27 -10 30 -11 7 -14 58 -3 68 12 13 23 7 32 -15z m-1981 -65 c2 -46 11 -78 33 -120 34 -65 26 -93 -15 -54 -35 33 -96 27 -114 -12 -10 -20 -20 -27 -35 -25 -27 4 -34 26 -10 34 25 9 63 45 63 59 0 7 9 20 20 30 23 20 27 74 8 104 -16 26 -3 53 24 49 21 -3 23 -9 26 -65z m1776 25 c-3 -5 -12 -4 -20 3 -7 6 -11 15 -8 21 3 5 12 4 20 -3 7 -6 11 -15 8 -21z m-1427 -39 c19 -19 25 -20 38 -9 12 10 19 10 27 2 7 -7 33 -12 58 -12 57 0 110 -24 110 -50 0 -11 -13 -25 -32 -34 l-32 -16 -31 30 c-24 24 -40 30 -72 30 -23 0 -45 5 -48 10 -3 6 -26 10 -51 10 -30 0 -46 5 -50 15 -18 45 42 62 83 24z m1970 5 c3 -9 1 -25 -5 -35 -7 -10 -12 -40 -13 -66 0 -48 -26 -107 -44 -104 -10 1 -20 184 -11 208 8 19 65 17 73 -3z m-652 -104 c19 -21 16 -23 -25 -20 -30 2 -45 14 -36 29 11 17 41 13 61 -9z m-2090 -80 c0 -19 -51 -26 -70 -10 -23 19 -7 31 33 28 25 -2 37 -8 37 -18z m840 9 c11 -17 -26 -49 -57 -49 -30 0 -44 19 -34 45 6 18 81 21 91 4z m306 -6 c30 -37 44 -74 33 -91 -18 -27 -67 -50 -109 -51 -23 -1 -46 -6 -53 -13 -8 -8 -15 -8 -27 2 -8 7 -30 13 -47 14 -40 2 -49 33 -18 61 l20 18 23 -21 c30 -28 48 -28 77 3 19 20 21 27 10 40 -7 8 -18 15 -25 15 -16 0 -37 25 -28 33 3 4 34 7 68 7 47 0 65 -4 76 -17z m-1686 -33 c3 -5 24 -10 45 -10 21 0 42 5 45 10 3 6 33 10 65 10 51 0 61 -3 79 -26 11 -14 22 -30 24 -37 3 -8 11 -6 26 7 l21 19 23 -21 c13 -12 32 -22 43 -22 11 0 31 -11 44 -25 27 -28 75 -55 99 -55 8 0 32 -17 53 -37 38 -37 49 -78 28 -99 -5 -5 -10 -43 -12 -84 -3 -66 -5 -75 -22 -75 -18 0 -19 7 -17 60 2 47 -3 70 -23 109 -29 57 -132 166 -157 166 -9 0 -30 7 -45 15 -16 8 -36 12 -45 10 -9 -3 -24 4 -34 15 -16 18 -31 20 -140 20 -108 0 -124 2 -139 19 -10 11 -15 25 -11 30 8 14 42 14 50 1z m620 -20 c3 -5 21 -10 40 -10 19 0 37 -4 40 -10 3 -5 14 -10 24 -10 28 0 82 -31 78 -43 -2 -7 -32 -13 -73 -15 l-69 -3 -39 40 c-21 21 -35 44 -32 50 9 14 23 14 31 1z m2576 -23 c-6 -6 -11 -21 -11 -34 0 -15 -8 -27 -23 -32 -13 -5 -29 -16 -36 -24 -9 -12 -34 -16 -104 -16 -100 0 -114 4 -96 25 8 10 34 14 83 14 64 0 75 3 96 25 13 14 20 25 16 25 -20 0 18 29 42 32 34 5 47 -1 33 -15z m-686 -17 c4 -6 14 -9 23 -8 9 2 17 -3 17 -11 0 -20 -56 -23 -77 -4 -10 9 -15 20 -12 24 7 12 41 11 49 -1z m270 -21 c0 -16 -48 -19 -52 -4 -2 6 1 10 6 10 5 0 13 3 17 8 11 11 29 3 29 -14z m-1360 -40 c10 -16 -26 -51 -47 -46 -10 3 -21 1 -24 -4 -3 -5 -10 -7 -15 -3 -5 3 -7 10 -3 15 3 5 9 7 13 4 5 -2 19 7 31 20 26 27 35 30 45 14z m-166 -52 c12 -13 19 -30 16 -38 -3 -9 7 -27 25 -44 27 -26 30 -34 30 -94 0 -90 -35 -126 -82 -84 -15 13 -18 31 -18 99 0 46 -4 86 -10 89 -5 3 -10 16 -10 29 0 12 -5 27 -11 33 -6 6 -8 16 -5 22 12 18 41 12 65 -12z"/>
<path d="M3440 4010 c0 -5 5 -10 10 -10 6 0 10 5 10 10 0 6 -4 10 -10 10 -5 0 -10 -4 -10 -10z"/>
<path d="M3186 3861 c-4 -7 -5 -15 -2 -18 9 -9 19 4 14 18 -4 11 -6 11 -12 0z"/>
<path d="M3652 2780 c13 -20 28 -27 28 -12 0 10 -22 32 -32 32 -5 0 -3 -9 4 -20z"/>
<path d="M3657 2522 c-10 -10 -17 -24 -17 -30 0 -6 -8 -17 -18 -24 -33 -23 -44 -58 -45 -138 -1 -109 1 -110 134 -110 l108 0 20 29 c17 24 21 44 21 115 0 73 -3 87 -19 95 -10 6 -26 26 -35 46 -18 37 -25 42 -43 24 -8 -8 -13 -8 -17 0 -11 18 -71 13 -89 -7z m88 -153 c0 -30 -3 -34 -25 -34 -31 0 -38 29 -14 56 24 27 39 19 39 -22z"/>
</g>
</g>
  <g id="id2:id2" transform="matrix(1.25,0,0,1.25,0.0,0.0)"><g transform="translate(0.000000,269.600000) scale(0.040000,-0.040000)" fill="#920104" stroke="none">
<path d="M2608 4743 c-9 -11 -8 -17 3 -24 28 -18 83 0 73 24 -7 18 -61 17 -76 0z"/>
<path d="M2920 4750 c0 -5 9 -10 20 -10 11 0 20 5 20 10 0 6 -9 10 -20 10 -11 0 -20 -4 -20 -10z"/>
<path d="M2700 4730 c0 -5 5 -10 10 -10 6 0 10 5 10 10 0 6 -4 10 -10 10 -5 0 -10 -4 -10 -10z"/>
<path d="M2005 4680 c-3 -5 -21 -10 -39 -10 -17 0 -36 -4 -41 -9 -6 -5 -25 -11 -44 -13 -41 -4 -61 -29 -45 -55 13 -21 81 -30 97 -14 6 6 29 11 52 11 23 0 45 4 51 10 5 5 56 11 114 12 l105 3 14 29 c11 24 11 30 0 37 -20 12 -256 11 -264 -1z"/>
<path d="M4464 4679 c-10 -17 13 -36 27 -22 12 12 4 33 -11 33 -5 0 -12 -5 -16 -11z"/>
<path d="M2280 4590 c0 -5 5 -10 10 -10 6 0 10 5 10 10 0 6 -4 10 -10 10 -5 0 -10 -4 -10 -10z"/>
<path d="M4783 4590 c-13 -5 -23 -13 -23 -18 0 -16 35 -41 60 -44 31 -4 39 26 14 53 -19 21 -20 21 -51 9z"/>
<path d="M1552 4575 c-13 -7 -28 -17 -34 -23 -6 -6 -9 -141 -8 -359 0 -192 -2 -352 -6 -355 -9 -9 -10 -349 -1 -355 4 -2 7 -33 7 -68 0 -35 5 -67 10 -70 6 -3 10 -21 10 -40 0 -19 5 -37 10 -40 6 -3 10 -17 10 -30 0 -37 10 -55 32 -55 15 0 18 5 13 19 -3 11 -1 22 5 26 6 4 10 55 10 129 0 110 2 125 20 141 18 17 20 31 20 165 0 134 -2 148 -20 165 -18 17 -20 31 -20 165 0 134 2 148 20 165 18 16 20 31 20 143 0 115 -2 128 -22 149 l-21 23 21 23 c24 26 29 66 10 85 -15 15 -56 14 -86 -3z m33 -915 l0 -145 -22 -3 c-34 -5 -43 31 -43 162 0 118 7 139 45 134 19 -3 20 -10 20 -148z"/>
<path d="M4962 4558 c-29 -29 -5 -68 43 -68 44 0 62 14 46 34 -10 12 -66 46 -76 46 0 0 -6 -5 -13 -12z"/>
<path d="M5080 4530 c0 -5 5 -10 10 -10 6 0 10 5 10 10 0 6 -4 10 -10 10 -5 0 -10 -4 -10 -10z"/>
<path d="M2036 4495 c-11 -8 -28 -15 -38 -15 -30 0 -20 -17 13 -24 17 -3 78 -6 134 -6 79 0 105 3 115 15 10 12 10 18 0 30 -17 21 -196 21 -224 0z"/>
<path d="M5080 4415 l-34 -35 24 -25 c13 -14 33 -25 45 -25 11 0 26 -5 33 -12 8 -8 15 -8 27 2 18 15 21 100 3 118 -23 23 -63 13 -98 -23z"/>
<path d="M4500 4310 c0 -5 5 -10 10 -10 6 0 10 5 10 10 0 6 -4 10 -10 10 -5 0 -10 -4 -10 -10z"/>
<path d="M5125 4260 c-3 -5 -17 -10 -29 -10 -51 0 -61 -55 -13 -78 32 -16 33 -23 7 -47 -16 -14 -20 -31 -20 -75 0 -60 11 -80 45 -80 12 0 26 -5 33 -12 8 -8 15 -8 27 2 12 10 15 38 15 149 0 93 -4 141 -12 149 -15 15 -45 16 -53 2z"/>
<path d="M2276 4224 c-9 -23 -7 -57 4 -74 8 -13 12 -12 30 6 l21 21 -18 31 c-20 36 -28 39 -37 16z"/>
<path d="M2345 4080 c-3 -5 -16 -10 -29 -10 -33 0 -46 -19 -46 -70 0 -81 33 -91 97 -28 44 43 55 82 31 106 -15 15 -45 16 -53 2z"/>
<path d="M4732 4007 c-25 -26 -28 -47 -10 -65 20 -20 43 -14 78 23 28 29 31 37 20 50 -19 22 -63 18 -88 -8z"/>
<path d="M4393 3948 c-11 -13 -28 -40 -37 -62 -10 -21 -27 -41 -37 -43 -10 -3 -19 -10 -19 -15 0 -6 7 -7 16 -4 9 4 22 2 29 -4 8 -7 56 -10 120 -8 126 3 140 12 111 71 -22 47 -33 53 -57 31 l-20 -18 -37 37 c-21 20 -40 37 -43 37 -3 0 -15 -10 -26 -22z"/>
<path d="M2865 3880 c-30 -32 -53 -38 -73 -18 -16 16 -42 -7 -42 -37 0 -26 25 -78 46 -96 13 -10 22 -5 63 35 35 34 52 45 65 40 17 -6 18 -3 11 37 -7 43 -20 69 -34 69 -4 0 -20 -13 -36 -30z"/>
<path d="M3574 3888 c-26 -31 -44 -65 -44 -82 0 -23 20 -29 39 -12 12 11 37 16 78 16 45 0 64 4 76 18 22 24 21 35 -1 28 -12 -4 -26 1 -37 14 -10 11 -28 20 -41 20 -13 0 -26 5 -29 10 -9 15 -20 12 -41 -12z"/>
<path d="M4720 3874 c-11 -13 -10 -19 8 -37 l22 -21 22 21 c18 18 19 24 8 37 -7 9 -20 16 -30 16 -10 0 -23 -7 -30 -16z"/>
<path d="M2309 3844 c-10 -13 -10 -17 2 -25 8 -5 16 -9 19 -9 3 0 11 4 19 9 12 8 12 12 2 25 -8 9 -17 16 -21 16 -4 0 -13 -7 -21 -16z"/>
<path d="M3876 3815 c-11 -9 -41 -15 -68 -15 -65 0 -61 -18 4 -22 44 -2 53 -6 56 -23 2 -11 13 -30 25 -42 19 -22 28 -23 157 -23 92 0 140 4 148 12 7 7 12 33 12 58 0 25 -5 51 -12 58 -19 19 -297 16 -322 -3z"/>
<path d="M2425 3793 c-27 -6 -123 -52 -130 -62 -6 -11 21 -65 40 -81 8 -7 15 -18 15 -25 0 -19 42 -53 47 -37 3 7 15 25 28 41 18 21 25 42 27 87 3 52 5 59 26 62 12 2 22 8 22 13 0 9 -39 10 -75 2z"/>
<path d="M3581 3736 c-21 -25 -9 -68 24 -86 32 -18 83 -100 84 -137 1 -12 5 -24 10 -28 6 -3 9 -33 9 -66 -1 -57 1 -63 35 -97 l37 -36 35 34 c28 28 35 41 35 74 0 27 7 47 22 63 l21 23 -19 21 c-10 12 -30 25 -43 30 -19 8 -22 14 -18 38 3 15 0 40 -9 55 -8 16 -14 36 -15 45 0 9 -8 30 -18 46 l-18 30 -80 3 c-61 2 -83 -1 -92 -12z"/>
<path d="M2385 3520 c-3 -5 -14 -10 -24 -10 -21 0 -78 -27 -87 -41 -7 -12 34 -59 51 -59 6 0 22 -11 35 -25 25 -26 74 -55 95 -55 17 0 55 43 55 63 0 9 -4 19 -10 22 -5 3 -10 16 -10 29 0 22 -25 50 -67 74 -27 15 -30 15 -38 2z"/>
<path d="M4468 3491 c-33 -19 -35 -27 -7 -36 19 -6 59 17 59 35 0 16 -26 16 -52 1z"/>
<path d="M4212 3387 c-51 -54 -10 -117 76 -117 28 0 54 -4 57 -10 3 -5 16 -10 29 -10 13 0 31 -9 40 -19 23 -26 76 -33 99 -13 20 18 24 101 5 120 -7 7 -27 12 -44 12 -18 0 -36 5 -39 10 -3 6 -21 10 -40 10 -19 0 -37 5 -40 10 -3 6 -21 10 -40 10 -19 0 -37 5 -40 10 -11 17 -41 11 -63 -13z"/>
<path d="M3962 3338 c-7 -7 -12 -35 -12 -63 0 -39 -5 -56 -19 -69 -24 -21 -41 -13 -41 18 0 25 -33 61 -48 52 -5 -3 -12 -20 -15 -38 -5 -34 14 -68 38 -68 7 0 18 -7 25 -15 15 -19 68 -45 90 -45 9 0 21 -5 28 -12 10 -10 16 -9 29 4 14 14 14 20 3 33 -11 13 -9 20 15 45 15 15 24 33 20 40 -4 6 -1 18 6 26 10 12 8 19 -11 39 -12 13 -19 29 -15 35 16 27 -68 43 -93 18z"/>
<path d="M4785 3310 c-32 -13 -77 -66 -73 -86 2 -11 16 -25 31 -32 21 -10 27 -20 28 -45 1 -38 30 -92 49 -92 8 0 27 24 42 54 l28 54 -20 22 c-13 14 -20 35 -20 62 0 26 -6 46 -18 56 -21 19 -20 19 -47 7z"/>
<path d="M1582 3138 c-17 -17 -15 -129 3 -165 22 -44 44 -61 56 -42 5 8 9 26 9 41 0 15 5 30 10 33 6 3 10 19 10 35 0 16 -4 32 -10 35 -5 3 -10 16 -10 29 0 26 -17 46 -40 46 -9 0 -21 -5 -28 -12z"/>
<path d="M4622 3118 c-15 -15 -16 -64 -2 -73 6 -3 10 -17 10 -30 0 -13 5 -27 10 -30 6 -3 10 -26 10 -50 0 -24 5 -47 10 -50 6 -3 10 -19 10 -35 0 -16 -4 -32 -10 -35 -18 -11 -11 -41 15 -65 l26 -24 -23 -18 c-13 -10 -28 -18 -34 -18 -15 0 -55 -45 -48 -53 4 -4 13 -2 21 5 10 8 17 8 25 0 16 -16 81 -15 96 0 9 9 15 9 24 0 19 -19 63 -14 83 8 10 11 23 20 30 20 16 0 55 43 55 62 0 18 28 75 40 83 19 12 40 71 40 115 0 25 5 51 12 58 17 17 -28 62 -62 62 -44 0 -50 -15 -50 -136 l0 -113 -45 -22 c-33 -16 -44 -27 -42 -43 2 -22 -22 -32 -50 -22 -13 6 -9 14 21 45 40 41 40 56 0 71 -19 8 -24 17 -24 44 0 19 -4 38 -10 41 -5 3 -10 24 -10 46 0 47 -12 70 -65 127 -43 46 -46 47 -63 30z"/>
<path d="M2630 3085 c-18 -20 -21 -28 -12 -37 19 -19 15 -83 -7 -102 -11 -10 -21 -30 -23 -45 -2 -20 -9 -27 -30 -29 -14 -2 -32 -10 -39 -18 -10 -13 -8 -20 14 -42 l27 -26 33 32 c40 39 89 43 124 10 21 -20 25 -20 39 -7 13 14 12 22 -16 73 -23 45 -30 71 -30 115 0 47 -4 61 -23 79 -29 27 -29 27 -57 -3z"/>
<path d="M2942 3038 c-7 -7 -12 -24 -12 -38 0 -38 18 -50 76 -50 29 0 56 -4 59 -10 3 -5 20 -10 37 -10 19 0 41 -9 55 -21 42 -40 133 -25 133 21 0 17 -29 46 -67 67 -12 7 -53 13 -92 15 -54 1 -76 6 -88 20 -19 21 -82 25 -101 6z"/>
<path d="M4282 2938 c-16 -16 -15 -43 1 -55 6 -6 31 -13 54 -16 35 -4 43 -2 48 14 8 25 1 34 -37 53 -37 19 -50 20 -66 4z"/>
<path d="M4180 2900 c0 -11 5 -20 10 -20 6 0 10 9 10 20 0 11 -4 20 -10 20 -5 0 -10 -9 -10 -20z"/>
<path d="M3243 2858 c-13 -14 -13 -20 -3 -33 7 -8 18 -15 25 -15 18 0 48 -37 40 -49 -10 -17 -56 -13 -78 6 l-19 18 -36 -40 c-20 -22 -42 -39 -47 -37 -6 1 -30 -18 -54 -42 -46 -47 -74 -51 -107 -15 -21 23 -47 24 -64 4 -10 -12 -10 -19 -2 -27 7 -7 12 -21 12 -33 0 -12 4 -25 10 -31 5 -5 10 -52 12 -103 l3 -94 33 -18 32 -19 33 19 32 18 0 84 0 84 -27 13 c-16 7 -28 21 -28 31 0 22 26 46 34 33 9 -16 59 -1 91 27 52 45 70 52 100 37 30 -16 105 -11 150 9 17 8 42 27 58 42 l27 29 -14 30 c-30 60 -65 82 -134 86 -50 2 -67 -1 -79 -14z"/>
<path d="M2161 2856 c-7 -8 -10 -20 -6 -25 10 -18 72 -43 96 -39 30 4 47 33 33 56 -15 23 -105 29 -123 8z"/>
<path d="M3002 2858 c-18 -18 -14 -42 11 -66 31 -29 48 -28 82 8 l28 30 -18 20 c-20 23 -83 28 -103 8z"/>
<path d="M4400 2854 c-19 -21 11 -54 33 -35 8 6 22 9 31 5 11 -4 16 -1 16 14 0 33 -57 45 -80 16z"/>
<path d="M1660 2815 c-18 -21 -8 -46 25 -66 24 -14 55 -18 151 -18 97 -1 124 -4 134 -16 7 -9 19 -14 27 -11 7 3 29 -3 48 -14 20 -11 44 -20 53 -20 25 0 99 -78 128 -136 22 -42 25 -60 22 -124 l-3 -75 28 -3 c47 -6 57 12 57 99 0 44 5 88 12 98 15 25 -14 88 -46 100 -12 5 -28 16 -35 25 -7 9 -21 16 -31 16 -25 0 -73 26 -100 55 -13 14 -32 25 -43 25 -11 0 -29 7 -39 16 -15 14 -20 15 -33 4 -14 -11 -22 -8 -53 23 -33 32 -44 37 -84 37 -26 0 -50 -4 -53 -10 -3 -5 -28 -10 -55 -10 -27 0 -52 5 -55 10 -9 15 -41 12 -55 -5z"/>
<path d="M2300 2794 c-11 -13 -5 -23 41 -70 l53 -54 67 0 c79 0 104 17 74 50 -22 24 -71 50 -96 50 -10 0 -21 5 -24 10 -3 6 -21 10 -40 10 -19 0 -37 5 -40 10 -9 14 -21 12 -35 -6z"/>
<path d="M2620 2715 c-22 -26 5 -45 64 -45 69 0 87 12 62 39 -24 26 -106 30 -126 6z"/>
<path d="M4480 2610 c0 -5 5 -10 10 -10 6 0 10 5 10 10 0 6 -4 10 -10 10 -5 0 -10 -4 -10 -10z"/>
<path d="M4380 2515 c-12 -15 -5 -75 9 -75 10 0 32 71 25 82 -8 12 -20 10 -34 -7z"/>
<path d="M3700 2407 c-34 -17 -36 -48 -5 -77 l25 -23 25 23 c30 28 32 51 7 73 -22 20 -20 20 -52 4z"/>
<path d="M4400 2370 c0 -5 5 -10 10 -10 6 0 10 5 10 10 0 6 -4 10 -10 10 -5 0 -10 -4 -10 -10z"/>
</g>
</g>
  <g id="id3:id3" transform="matrix(1.25,0,0,1.25,0.0,0.0)"><g transform="translate(0.000000,269.600000) scale(0.040000,-0.040000)" fill="#000000" stroke="none">
<path d="M0 3370 l0 -3370 3390 0 3390 0 0 3370 0 3370 -3390 0 -3390 0 0 -3370z m3725 2270 c4 -6 60 -10 133 -10 105 0 131 -3 150 -18 l22 -17 -2 -180 -3 -180 -55 3 c-30 1 -113 6 -185 10 l-130 7 -3 185 c-1 101 0 190 2 197 6 15 62 18 71 3z m-595 -195 c0 -99 -4 -183 -9 -188 -4 -4 -88 -6 -187 -5 l-179 3 -3 175 c-1 96 0 180 3 187 3 11 45 13 191 11 l186 -3 -2 -180z m-865 -55 l0 -175 -90 -3 c-49 -2 -94 -7 -99 -12 -6 -6 -28 -10 -51 -10 -23 0 -46 -5 -52 -11 -5 -5 -30 -9 -54 -7 l-44 3 0 165 0 165 45 8 c25 5 65 11 90 14 25 3 49 9 55 14 5 5 37 9 71 9 35 0 66 5 69 11 4 5 19 9 33 7 l27 -3 0 -175z m2280 150 c3 -5 28 -10 55 -10 27 0 52 -4 55 -10 3 -5 21 -10 39 -10 17 0 36 -4 42 -9 5 -6 32 -11 59 -13 l50 -3 0 -185 0 -185 -24 -3 c-13 -2 -28 1 -34 7 -6 6 -37 11 -68 11 -32 0 -61 5 -64 10 -3 6 -19 10 -34 10 -15 0 -31 4 -37 9 -5 5 -27 11 -49 13 l-40 3 -3 109 c-2 66 1 113 8 120 5 5 10 38 10 71 0 34 3 65 7 68 9 10 21 9 28 -3z m-950 -336 c13 -20 15 -37 10 -68 -4 -22 -10 -95 -13 -161 l-7 -120 -215 0 -215 0 -3 175 c-1 96 0 180 2 187 4 10 53 13 215 13 l209 0 17 -26z m-890 -174 l0 -175 -80 -3 c-44 -1 -89 -7 -100 -12 -11 -6 -67 -9 -125 -8 l-105 3 -3 125 c-1 70 2 134 7 145 6 11 12 34 13 50 l3 30 80 3 c44 2 84 7 90 13 5 5 55 8 115 7 l105 -3 0 -175z m1411 151 c5 -5 47 -12 94 -15 47 -3 119 -9 160 -13 l75 -8 0 -175 0 -175 -85 -6 c-64 -4 -89 -3 -101 8 -10 8 -41 13 -81 13 -39 0 -77 6 -96 16 l-32 15 0 78 c0 46 5 82 12 89 9 9 9 15 0 24 -15 15 -16 64 -2 73 6 3 10 21 10 39 0 44 21 61 46 37z m-2291 -251 l0 -175 -25 -3 c-14 -2 -29 -8 -34 -13 -6 -5 -29 -9 -52 -9 -24 0 -46 -4 -49 -10 -3 -5 -17 -10 -30 -10 -13 0 -27 -4 -30 -10 -3 -5 -19 -10 -35 -10 -15 0 -46 -10 -68 -21 -70 -38 -72 -32 -72 157 0 185 6 204 61 204 15 0 31 5 34 10 3 6 17 10 30 10 13 0 27 5 30 10 3 6 19 10 34 10 16 0 34 6 40 13 6 8 23 12 40 9 16 -2 32 1 36 8 4 6 25 10 48 8 l42 -3 0 -175z m3130 110 c3 -5 24 -10 45 -10 21 0 42 -4 45 -10 3 -5 19 -10 35 -10 16 0 32 -4 35 -10 3 -5 21 -10 39 -10 17 0 36 -4 42 -9 5 -5 23 -11 39 -13 l30 -3 3 -85 c2 -46 -2 -94 -7 -105 -6 -11 -12 -51 -13 -90 -3 -57 -6 -69 -18 -66 -8 3 -29 5 -47 6 -18 0 -38 6 -45 13 -6 6 -22 12 -34 12 -13 0 -26 5 -29 10 -3 6 -21 10 -40 10 -19 0 -37 5 -40 10 -3 6 -14 10 -24 10 -10 0 -32 7 -49 16 l-32 15 0 158 c0 87 3 161 7 164 10 11 51 8 58 -3z m-1254 -246 c6 -3 83 -8 172 -11 88 -2 165 -7 171 -10 6 -4 43 -6 81 -5 39 2 120 -4 180 -13 61 -9 155 -20 210 -25 55 -5 156 -20 225 -35 69 -15 137 -27 151 -28 14 -1 33 -8 42 -15 9 -8 21 -11 26 -8 6 4 39 -2 73 -14 35 -11 80 -22 101 -25 23 -4 40 -13 44 -23 3 -9 19 -28 35 -42 l30 -26 -2 -294 c0 -189 -5 -298 -11 -307 -7 -8 -9 -64 -4 -165 3 -95 2 -182 -5 -228 -6 -41 -13 -100 -16 -130 -3 -30 -9 -64 -14 -75 -5 -11 -11 -40 -14 -65 -23 -229 -47 -325 -96 -385 -9 -11 -27 -47 -40 -80 -13 -33 -34 -79 -47 -102 -13 -24 -21 -43 -17 -43 4 0 1 -7 -6 -15 -7 -9 -19 -14 -27 -11 -7 3 -29 -3 -48 -14 -28 -16 -55 -20 -129 -20 -51 0 -96 3 -99 7 -4 4 -37 6 -73 6 l-65 -1 -20 -38 c-15 -29 -19 -59 -19 -128 0 -83 -2 -93 -31 -138 -27 -41 -36 -48 -64 -48 -25 0 -38 8 -59 34 -16 21 -23 41 -20 51 4 9 1 28 -7 41 -10 20 -10 29 -1 44 18 29 15 69 -10 121 -27 55 -53 69 -133 69 -36 0 -75 7 -93 16 -29 14 -30 17 -20 42 7 15 16 32 20 38 12 17 87 8 109 -12 13 -11 34 -18 57 -17 20 1 44 2 52 2 8 0 41 -2 73 -5 37 -4 63 -2 72 6 8 6 19 9 26 5 10 -7 23 -2 77 24 28 13 59 90 61 153 2 42 -18 94 -50 134 -5 6 -13 33 -19 62 -11 49 -33 82 -47 69 -3 -4 -12 -2 -19 3 -6 6 -16 9 -22 8 -5 -2 -18 8 -29 21 -21 26 -36 29 -155 37 l-78 6 0 -22 c0 -31 18 -60 43 -69 12 -5 25 -8 28 -7 3 0 13 -5 22 -12 9 -8 21 -11 27 -7 6 4 17 2 24 -4 8 -7 20 -10 27 -9 7 2 13 -6 14 -17 0 -11 5 -20 10 -21 6 0 23 -6 38 -12 16 -7 32 -12 36 -12 4 0 18 -11 31 -25 20 -21 25 -39 28 -96 4 -62 2 -73 -18 -94 -12 -13 -28 -21 -35 -19 -7 3 -26 -1 -42 -9 -20 -11 -34 -12 -46 -6 -9 6 -22 7 -28 4 -6 -4 -19 1 -29 10 -13 11 -28 15 -43 11 -25 -6 -49 13 -72 57 -6 12 -19 21 -30 20 -11 -1 -32 8 -47 18 -21 15 -27 26 -22 43 3 15 -2 28 -16 41 -12 11 -25 18 -29 16 -3 -2 -10 6 -16 18 -12 26 -101 71 -152 76 -21 2 -37 7 -36 12 1 6 -27 41 -63 79 -35 38 -64 74 -64 79 0 6 -15 26 -32 44 -18 19 -33 42 -33 50 0 9 -4 16 -10 16 -21 1 -36 17 -30 36 4 13 2 19 -9 19 -22 0 -27 13 -31 91 -3 39 -8 76 -14 83 -5 6 -12 26 -16 44 -4 18 -17 40 -31 48 -24 16 -54 66 -54 91 0 7 4 21 9 31 8 15 26 91 35 147 2 13 10 19 22 18 10 -1 34 8 52 19 22 14 36 17 45 10 7 -5 32 -13 57 -17 25 -4 50 -12 57 -17 7 -5 21 -7 32 -3 11 3 23 0 28 -7 6 -10 62 -13 244 -13 l235 0 17 33 c9 18 17 42 17 53 0 11 8 22 18 25 9 3 25 10 35 15 23 12 135 1 163 -16 22 -14 79 -7 126 16 20 10 28 22 28 41 0 16 8 33 20 41 l20 14 -21 41 c-17 31 -29 41 -53 45 -38 6 -139 2 -153 -6 -9 -6 -77 14 -89 26 -4 4 -18 7 -31 7 -13 0 -31 8 -41 18 -10 9 -33 25 -50 35 l-32 18 -49 -35 c-52 -39 -93 -46 -127 -22 -43 30 -15 114 44 137 29 11 82 -22 82 -51 0 -13 7 -17 28 -16 15 1 33 5 40 9 7 5 34 10 61 11 26 1 58 10 70 19 18 12 27 13 42 4 13 -8 24 -8 44 3 21 11 30 12 45 2 11 -7 28 -12 38 -12 10 0 22 -4 28 -9 5 -6 54 -7 123 -3 99 7 115 5 118 -8 3 -12 20 -16 64 -18 52 -2 59 0 59 16 0 23 -33 53 -81 75 -19 9 -41 27 -48 40 -9 17 -21 23 -46 24 -19 1 -46 10 -61 22 -15 12 -31 21 -37 21 -6 0 -19 8 -30 17 -12 11 -38 19 -70 20 -65 2 -150 29 -185 58 -15 12 -43 25 -62 28 -80 14 -106 20 -118 30 -9 7 -16 7 -24 -1 -15 -15 -160 -16 -175 -1 -7 7 -20 5 -45 -9 -45 -26 -95 -33 -262 -39 -90 -2 -143 0 -149 6 -6 6 -21 11 -33 11 -13 0 -26 5 -29 10 -3 6 -48 10 -100 10 -52 0 -97 4 -100 10 -3 6 -42 10 -86 10 -44 0 -89 5 -100 10 -13 8 -25 7 -39 0 -10 -6 -37 -11 -59 -13 -22 -1 -43 -6 -47 -10 -4 -4 -17 -7 -29 -7 -12 0 -30 -9 -39 -19 -19 -21 -101 -31 -281 -34 -79 -1 -96 2 -128 22 -20 12 -37 27 -37 32 0 5 -19 27 -42 49 -29 26 -40 42 -33 49 18 18 376 28 848 25 251 -2 462 -6 468 -10z m-1383 -40 c29 -20 33 -111 5 -121 -30 -11 -42 -36 -41 -85 1 -43 3 -48 23 -48 12 0 29 10 37 22 13 20 17 21 32 9 9 -8 14 -21 11 -29 -3 -8 -1 -20 4 -26 5 -6 14 -37 20 -68 7 -31 19 -62 26 -68 8 -7 12 -17 9 -22 -3 -5 3 -19 14 -31 15 -16 18 -27 12 -37 -16 -25 -11 -65 14 -111 23 -44 26 -102 5 -115 -5 -3 -9 -32 -9 -65 0 -51 3 -59 19 -59 10 0 35 -18 55 -40 l36 -40 0 -73 c0 -49 -5 -80 -16 -95 -10 -15 -14 -41 -13 -82 l2 -61 60 -65 60 -65 -1 -99 c0 -83 2 -99 16 -103 10 -2 23 -15 29 -28 13 -25 34 -81 34 -89 0 -3 7 -12 14 -20 7 -8 14 -17 14 -20 0 -3 5 -18 11 -35 7 -16 14 -46 17 -65 3 -19 10 -43 15 -52 5 -10 9 -35 9 -55 2 -61 19 -93 51 -93 30 0 35 9 16 28 -8 8 -8 15 2 26 7 10 12 41 10 83 -2 98 -4 106 -28 147 -17 29 -21 46 -16 79 4 23 11 47 16 53 5 7 7 18 6 25 -2 8 3 12 12 10 8 -2 30 -6 48 -9 18 -2 35 -8 38 -13 3 -5 17 -9 31 -9 16 0 27 -7 30 -20 4 -15 11 -18 27 -14 14 3 28 -1 35 -10 9 -10 30 -16 57 -16 37 0 54 -7 101 -45 31 -24 59 -42 62 -40 2 3 13 -2 23 -12 10 -9 28 -21 41 -27 12 -6 26 -21 31 -32 6 -14 19 -21 40 -21 23 0 38 -10 67 -43 28 -32 35 -47 28 -57 -6 -6 -8 -17 -4 -22 3 -6 1 -28 -4 -48 -12 -42 -51 -78 -121 -112 -49 -23 -138 -29 -158 -9 -9 9 -15 9 -24 0 -7 -7 -19 -12 -28 -12 -37 0 -70 -25 -70 -52 0 -15 -5 -39 -12 -53 -9 -19 -9 -28 0 -37 21 -21 14 -118 -12 -168 l-23 -45 -77 -3 c-62 -2 -82 1 -97 14 -10 9 -16 21 -13 25 3 5 2 15 -3 22 -4 6 -8 17 -8 22 -1 12 -13 44 -26 67 -5 9 -5 19 0 22 10 7 9 56 -2 73 -4 6 -3 14 3 18 15 9 12 19 -11 44 -12 12 -27 20 -34 17 -7 -2 -21 4 -31 15 -16 17 -32 19 -194 19 -139 0 -180 -3 -189 -14 -7 -8 -12 -66 -13 -155 -1 -78 -6 -145 -10 -147 -4 -3 -8 -14 -8 -24 0 -28 -31 -40 -102 -40 -55 0 -68 4 -97 28 l-34 28 -5 110 c-5 110 -20 164 -46 164 -7 0 -25 11 -40 25 -15 14 -31 23 -36 20 -5 -3 -13 2 -18 11 -6 11 -14 14 -23 8 -36 -23 -82 -33 -100 -21 -15 9 -24 9 -39 -1 -32 -20 -97 -15 -113 8 -11 16 -21 19 -45 14 -34 -7 -50 11 -50 57 1 29 -54 157 -85 200 -25 34 -75 182 -83 244 -4 28 -8 55 -8 62 -1 7 -5 16 -9 19 -4 4 -7 48 -7 99 0 50 -4 95 -10 101 -11 11 -15 1120 -4 1172 8 38 34 60 84 68 31 5 67 18 122 45 10 5 40 9 67 9 28 0 53 5 57 11 3 6 19 9 35 5 15 -3 31 -1 34 4 3 5 33 12 66 16 32 4 62 11 65 15 3 5 29 9 57 10 29 0 72 4 97 8 79 15 164 12 188 -5z m977 -84 c3 -5 30 -10 60 -10 30 0 57 -4 60 -10 3 -5 25 -10 49 -10 23 0 47 -5 52 -10 15 -15 393 -15 407 -1 6 6 21 11 33 11 13 0 26 5 29 10 4 6 63 10 145 10 82 0 141 -4 145 -10 3 -5 19 -10 34 -10 15 0 30 -2 33 -5 3 -3 -10 -37 -29 -75 l-35 -70 -55 0 c-37 0 -64 -6 -81 -18 -15 -10 -43 -26 -62 -35 -19 -8 -61 -40 -93 -71 l-58 -55 19 -19 c11 -11 38 -23 60 -27 22 -3 48 -15 58 -26 9 -10 23 -19 31 -19 7 0 16 -7 19 -15 4 -8 13 -15 21 -15 8 0 31 -13 51 -29 20 -16 46 -31 57 -33 18 -3 20 -11 20 -78 l0 -75 -215 -3 c-149 -2 -222 1 -237 9 -12 7 -40 9 -62 6 -28 -3 -44 -1 -52 9 -6 8 -24 14 -40 14 -15 0 -31 5 -34 10 -3 6 -17 10 -30 10 -42 0 -37 17 20 65 45 39 54 51 49 71 -4 17 -1 26 10 30 9 3 16 16 16 28 0 12 5 27 12 34 9 9 8 17 -2 37 -10 20 -11 28 -2 37 16 16 15 45 -2 51 -15 6 -46 62 -46 82 0 7 22 27 50 46 52 35 59 54 22 54 -12 0 -27 6 -34 13 -19 19 -58 14 -78 -10 l-18 -23 -42 23 c-51 27 -97 28 -130 2 -29 -23 -52 -25 -80 -8 -15 10 -22 9 -38 -5 -17 -16 -21 -16 -32 -2 -7 8 -17 15 -23 15 -13 0 -57 -40 -57 -52 0 -13 39 -48 54 -48 19 0 29 -17 16 -25 -5 -3 -10 -19 -10 -35 0 -34 -3 -37 -55 -42 l-40 -3 -3 32 c-2 20 -15 45 -33 63 -32 31 -48 37 -64 21 -6 -5 -21 -11 -35 -13 -23 -3 -25 -8 -28 -56 -3 -49 -1 -53 24 -62 25 -10 26 -12 11 -28 -19 -21 -13 -85 9 -103 8 -6 14 -17 14 -24 0 -7 7 -16 15 -19 9 -3 21 -19 26 -35 6 -17 18 -33 28 -36 10 -3 27 -19 40 -35 20 -28 21 -31 4 -36 -10 -3 -26 -10 -35 -15 -10 -5 -26 -9 -37 -9 -10 0 -24 -6 -30 -14 -13 -15 -88 -11 -106 5 -5 5 -53 9 -106 9 -74 0 -100 -4 -109 -15 -7 -8 -18 -15 -26 -15 -19 0 -28 20 -15 33 18 18 12 41 -19 67 -27 21 -30 30 -30 81 0 36 -5 59 -12 61 -8 3 -11 24 -9 60 1 31 -2 64 -7 75 -70 138 -73 145 -62 158 19 22 1 39 -20 20 -10 -9 -21 -12 -24 -7 -6 10 12 30 29 31 6 1 10 9 10 19 0 15 13 17 100 20 55 1 104 7 109 12 6 6 38 10 72 10 35 0 66 5 70 11 3 6 15 9 25 6 10 -3 23 1 30 9 6 8 26 14 45 14 18 0 36 5 39 10 4 6 57 10 125 10 68 0 121 -4 125 -10z m1164 -104 c8 -9 25 -12 56 -8 26 2 51 0 58 -7 8 -6 29 -13 48 -15 39 -4 41 -26 6 -63 -18 -20 -30 -23 -103 -23 -65 0 -91 -4 -119 -20 -20 -11 -44 -20 -54 -20 -10 0 -24 -7 -31 -15 -14 -16 -85 -21 -95 -6 -3 5 14 19 37 31 44 21 68 56 68 96 0 15 12 28 38 42 44 24 75 27 91 8z m-1170 -52 c22 -28 20 -47 -4 -38 -18 7 -46 50 -38 58 11 11 21 6 42 -20z m83 -30 c-2 -10 -4 -29 -5 -41 -1 -12 -5 -25 -9 -29 -5 -4 -8 -17 -8 -28 0 -27 77 -83 92 -68 7 7 0 19 -22 39 l-33 29 17 26 c12 18 23 24 37 21 17 -5 20 -1 17 23 -3 26 0 29 31 32 18 2 38 -1 44 -7 14 -14 50 -14 64 0 7 7 13 7 17 1 3 -5 -1 -15 -9 -22 -8 -7 -15 -18 -15 -25 0 -6 -9 -20 -20 -30 -11 -10 -20 -26 -20 -36 0 -10 -4 -21 -10 -24 -5 -3 -10 -19 -10 -35 0 -39 -19 -48 -42 -20 -15 18 -21 21 -31 11 -9 -10 -5 -18 22 -40 20 -16 31 -33 27 -39 -9 -14 -40 -15 -64 -3 -9 5 -25 12 -36 15 -15 5 -16 9 -6 21 15 18 6 45 -14 45 -7 0 -16 -7 -20 -15 -6 -16 -51 -21 -61 -6 -3 6 2 14 11 19 20 11 10 32 -16 32 -24 0 -35 17 -22 33 6 7 12 23 14 37 2 15 11 26 23 28 30 6 40 19 25 37 -10 12 -10 18 0 30 17 20 36 13 32 -11z m1378 -24 c27 0 125 -44 136 -61 9 -16 -25 -22 -43 -8 -10 9 -52 16 -110 19 -94 5 -115 15 -74 36 13 7 28 17 34 23 7 7 14 8 21 1 6 -5 22 -10 36 -10z m-2236 -182 c-3 -5 -12 -4 -20 3 -7 6 -11 15 -8 21 3 5 12 4 20 -3 7 -6 11 -15 8 -21z m704 7 c4 -23 62 -86 72 -80 4 3 13 -2 19 -9 7 -8 8 -17 3 -20 -6 -3 -15 1 -22 9 -7 8 -16 12 -22 9 -12 -8 -70 20 -93 46 -15 17 -16 24 -6 46 13 30 44 29 49 -1z m1042 -19 c6 -8 18 -12 26 -9 9 3 27 -6 43 -21 16 -15 34 -24 43 -21 8 3 20 -1 27 -9 9 -10 23 -13 48 -9 25 4 40 2 47 -8 19 -24 54 -39 90 -39 40 0 43 -3 48 -50 l3 -34 -55 3 c-30 1 -59 7 -64 12 -6 5 -25 9 -42 9 -18 0 -35 4 -38 9 -3 5 -29 9 -56 9 -60 1 -70 6 -70 37 0 16 -17 40 -50 71 -47 44 -55 64 -26 64 8 0 19 -6 26 -14z m-1726 -68 c-3 -5 -12 -4 -20 3 -7 6 -11 15 -8 21 3 5 12 4 20 -3 7 -6 11 -15 8 -21z m847 -61 c-7 -7 -15 -6 -25 3 -22 17 -9 32 16 19 14 -8 17 -14 9 -22z m103 -109 c-3 -5 -12 -4 -20 3 -7 6 -11 15 -8 21 3 5 12 4 20 -3 7 -6 11 -15 8 -21z m-270 1 c-3 -5 -10 -7 -15 -3 -5 3 -7 10 -3 15 3 5 10 7 15 3 5 -3 7 -10 3 -15z m190 0 c-3 -5 -10 -7 -15 -3 -5 3 -7 10 -3 15 3 5 10 7 15 3 5 -3 7 -10 3 -15z m-409 -72 c28 0 70 2 95 5 24 3 56 2 69 -4 l25 -9 -52 -45 c-29 -25 -52 -52 -52 -60 0 -8 -8 -17 -17 -21 -29 -10 -63 -45 -63 -64 0 -10 -5 -21 -10 -24 -7 -4 -8 -11 -1 -18 5 -7 14 -32 21 -56 10 -40 10 -45 -11 -67 -13 -14 -29 -22 -37 -19 -8 3 -21 0 -28 -6 -20 -17 -108 29 -178 93 -51 47 -59 59 -61 94 -4 53 -4 54 -12 52 -26 -9 -7 73 26 112 32 39 79 51 171 43 36 -2 88 -5 115 -6z m291 -112 c-5 -14 -9 -15 -21 -5 -12 10 -13 16 -4 27 15 18 34 1 25 -22z m-156 -34 c0 -9 -5 -22 -12 -29 -9 -9 -7 -17 10 -35 41 -44 -1 -51 -53 -10 l-35 28 37 37 c37 38 53 41 53 9z m194 -12 c-9 -10 -21 -16 -26 -13 -5 3 -2 14 8 25 9 10 21 16 26 13 5 -3 2 -14 -8 -25z m86 -9 c0 -26 -15 -33 -30 -15 -10 12 -10 18 0 30 15 18 30 11 30 -15z m-186 -81 c-3 -5 -10 -7 -15 -3 -5 3 -7 10 -3 15 3 5 10 7 15 3 5 -3 7 -10 3 -15z m209 -39 c-3 -11 -9 -23 -14 -26 -5 -3 -9 -13 -9 -23 0 -10 -18 -35 -40 -55 -22 -20 -40 -42 -40 -50 0 -25 21 -29 36 -7 8 12 20 21 26 21 7 0 22 9 34 21 12 11 24 17 27 12 8 -13 -11 -53 -25 -53 -7 0 -29 -14 -48 -30 -27 -22 -32 -32 -23 -41 9 -9 18 -7 41 10 17 11 34 21 39 21 5 0 20 11 33 25 14 15 27 22 33 16 10 -10 -8 -51 -23 -51 -6 0 -10 -6 -10 -13 0 -8 -9 -22 -20 -32 -11 -10 -20 -25 -20 -33 0 -9 -10 -26 -21 -39 -20 -20 -20 -23 -5 -29 10 -4 22 -2 28 4 8 8 15 8 24 1 9 -7 19 -7 33 0 12 6 31 16 42 22 37 18 44 -4 15 -49 -26 -41 -58 -67 -70 -55 -3 3 -1 12 5 20 9 10 8 17 -1 28 -11 13 -16 13 -42 -3 l-30 -17 -28 34 c-17 20 -30 48 -32 69 -2 20 -9 37 -15 40 -12 3 -16 -3 -29 -47 -3 -10 -14 -5 -39 19 -38 37 -37 50 5 50 34 0 47 26 20 40 l-19 10 20 36 c14 26 17 40 9 49 -8 9 -4 17 14 29 14 9 28 16 32 16 13 0 43 46 44 66 0 28 9 35 30 24 12 -6 16 -17 13 -30z m-759 9 c-3 -5 -10 -7 -15 -3 -5 3 -7 10 -3 15 3 5 10 7 15 3 5 -3 7 -10 3 -15z m590 -50 c-9 -10 -21 -16 -26 -13 -5 3 -2 14 8 25 9 10 21 16 26 13 5 -3 2 -14 -8 -25z m220 -50 c-3 -5 -10 -7 -15 -3 -5 3 -7 10 -3 15 3 5 10 7 15 3 5 -3 7 -10 3 -15z m-300 -20 c-3 -5 -10 -7 -15 -3 -5 3 -7 10 -3 15 3 5 10 7 15 3 5 -3 7 -10 3 -15z m-84 -14 c15 -19 5 -35 -24 -35 -32 0 -39 10 -19 32 20 22 27 22 43 3z m-366 -106 c-3 -5 -10 -7 -15 -3 -5 3 -7 10 -3 15 3 5 10 7 15 3 5 -3 7 -10 3 -15z m812 0 c7 -12 -45 -71 -57 -63 -10 6 -1 33 19 57 17 20 28 22 38 6z m-738 -117 c4 -25 -23 -41 -41 -23 -15 15 -24 14 -31 -4 -7 -18 3 -47 14 -40 4 2 15 -4 24 -14 15 -16 16 -23 5 -42 l-12 -23 -33 39 c-26 31 -34 49 -34 81 0 22 3 44 7 48 4 4 28 6 53 4 38 -3 45 -6 48 -26z m383 11 c24 -29 42 -70 35 -81 -3 -5 1 -15 9 -22 8 -7 12 -16 9 -22 -3 -5 -12 -4 -20 3 -7 6 -12 15 -9 19 3 4 -2 13 -10 20 -8 7 -15 21 -15 31 0 10 -11 26 -25 35 -14 9 -22 20 -19 25 9 14 30 10 45 -8z m94 -14 c10 17 25 3 25 -23 0 -38 -12 -38 -51 0 -40 39 -43 71 -4 34 15 -14 25 -18 30 -11z m-392 -51 c7 -48 -7 -57 -27 -17 -17 34 -20 61 -9 73 12 11 30 -17 36 -56z m262 -11 c19 -38 19 -56 -1 -96 -23 -46 -38 -33 -44 36 -3 34 -8 64 -12 68 -14 14 -28 -8 -28 -44 0 -22 -6 -44 -15 -51 -18 -15 -23 -5 -27 55 -3 43 -30 57 -36 20 -5 -27 -18 -39 -35 -32 -11 4 -13 14 -8 39 l7 33 59 2 c37 1 64 8 74 17 13 14 17 14 33 -1 10 -9 25 -30 33 -46z m431 -25 c-8 -15 -26 -38 -40 -51 -23 -22 -26 -22 -32 -7 -5 12 5 29 31 56 42 43 63 44 41 2z m-133 -64 c-10 -11 -17 -22 -16 -24 6 -15 -14 -46 -38 -58 -44 -22 -43 -6 3 41 23 24 38 43 34 43 -5 0 -3 7 4 15 7 8 17 12 22 9 5 -3 1 -15 -9 -26z m295 -51 c33 -34 33 -60 0 -31 -13 13 -21 14 -31 5 -17 -13 -27 -5 -27 24 0 45 16 45 58 2z m-98 -12 c0 -19 -20 -29 -32 -17 -8 8 -7 16 2 26 14 17 30 12 30 -9z m-130 3 c11 6 21 8 24 3 7 -11 -24 -38 -49 -43 -25 -4 -26 -32 -2 -36 20 -4 82 22 92 38 11 18 25 0 25 -30 0 -34 -15 -47 -28 -24 -8 15 -11 15 -31 -5 -15 -15 -28 -20 -43 -15 -15 4 -26 0 -37 -15 l-16 -21 -40 40 c-36 37 -38 41 -19 46 11 3 33 21 49 40 23 27 31 31 42 22 11 -9 19 -9 33 0z m-686 -30 c-3 -5 -12 -4 -20 3 -7 6 -11 15 -8 21 3 5 12 4 20 -3 7 -6 11 -15 8 -21z m1630 -30 c-3 -5 -14 -2 -25 8 -10 9 -16 21 -13 26 3 5 14 2 25 -8 10 -9 16 -21 13 -26z m-690 -9 c-3 -5 -10 -7 -15 -3 -5 3 -7 10 -3 15 3 5 10 7 15 3 5 -3 7 -10 3 -15z m-920 -41 c-3 -5 -12 -4 -20 3 -7 6 -11 15 -8 21 3 5 12 4 20 -3 7 -6 11 -15 8 -21z m831 -7 c7 -12 -12 -24 -25 -16 -11 7 -4 25 10 25 5 0 11 -4 15 -9z m-811 -73 c-3 -5 -12 -4 -20 3 -7 6 -11 15 -8 21 3 5 12 4 20 -3 7 -6 11 -15 8 -21z m1016 -23 c0 -17 -17 -28 -30 -20 -7 4 -7 13 0 26 12 21 30 17 30 -6z m-56 -4 c7 -10 -39 -43 -48 -34 -3 3 -1 14 5 24 10 20 34 25 43 10z m-940 -53 c-3 -5 -12 -4 -20 3 -7 6 -11 15 -8 21 3 5 12 4 20 -3 7 -6 11 -15 8 -21z m871 22 c10 -16 -16 -43 -28 -31 -11 11 -2 41 12 41 5 0 13 -5 16 -10z m269 -41 c-3 -5 -10 -7 -15 -3 -5 3 -7 10 -3 15 3 5 10 7 15 3 5 -3 7 -10 3 -15z m55 -3 c8 -10 8 -16 -3 -25 -10 -9 -16 -8 -26 3 -12 15 -6 36 9 36 5 0 14 -6 20 -14z m-205 -15 c8 -12 -21 -34 -34 -26 -8 5 -8 11 1 21 13 16 25 18 33 5z m100 -51 c-14 -14 -39 14 -29 31 5 8 12 6 23 -5 11 -11 13 -19 6 -26z m-150 -1 c-3 -5 -10 -7 -15 -3 -5 3 -7 10 -3 15 3 5 10 7 15 3 5 -3 7 -10 3 -15z m393 -15 c9 -23 -11 -38 -26 -20 -13 16 -7 36 10 36 5 0 12 -7 16 -16z m-428 -40 c-6 -7 -15 -11 -21 -8 -5 3 -4 12 3 20 6 7 15 11 21 8 5 -3 4 -12 -3 -20z m-1996 -135 c29 1 58 7 65 13 8 7 16 7 25 0 7 -6 35 -12 62 -14 l50 -3 0 -50 c0 -46 -2 -50 -25 -53 -14 -2 -29 -8 -35 -13 -5 -5 -17 -9 -27 -9 -22 0 -35 -45 -18 -65 8 -10 31 -15 65 -15 58 0 70 -6 53 -27 -8 -10 -8 -17 0 -25 7 -7 12 -23 12 -37 0 -15 9 -37 19 -51 16 -20 22 -22 34 -12 11 10 17 10 22 1 5 -8 36 -9 107 -4 l100 7 30 -36 c20 -25 37 -36 51 -34 31 5 32 27 2 38 -40 15 -20 33 29 24 22 -4 48 -8 58 -9 9 0 23 -7 32 -14 18 -15 36 -7 36 18 0 26 -20 41 -56 41 -37 0 -62 23 -46 43 6 7 15 35 19 62 10 59 28 67 73 35 26 -18 30 -28 30 -65 0 -53 16 -66 41 -34 18 23 20 23 23 -3 2 -21 70 -21 105 0 l31 19 -24 22 -24 23 -12 -22 c-6 -12 -18 -20 -27 -18 -20 4 -25 84 -6 100 18 15 16 49 -6 75 -17 20 -29 23 -122 25 l-104 3 -3 23 c-7 45 1 50 63 40 48 -9 59 -8 76 7 18 17 20 17 37 2 23 -21 65 -22 82 -2 15 18 61 20 78 3 15 -15 15 -63 0 -88 -10 -15 -10 -27 1 -56 9 -26 10 -39 2 -47 -12 -12 -15 -60 -4 -71 4 -3 8 -17 10 -29 2 -12 5 -33 8 -46 l6 -24 81 6 c68 6 85 4 100 -10 17 -15 19 -15 38 2 16 15 31 17 85 13 81 -7 87 0 79 80 -5 43 -3 66 6 77 10 11 10 18 1 29 -7 9 -11 41 -9 83 l3 68 61 -3 c46 -3 63 0 73 12 19 22 61 20 87 -5 21 -20 24 -20 46 -5 31 22 46 20 85 -10 24 -18 33 -33 33 -54 0 -16 -4 -32 -10 -35 -6 -4 -10 -53 -10 -114 0 -119 8 -137 53 -126 32 8 44 -10 17 -25 -31 -16 -19 -34 26 -40 26 -3 39 -10 39 -20 0 -11 -14 -16 -49 -18 -36 -2 -54 -9 -64 -23 -13 -19 -38 -17 -27 1 3 5 1 18 -5 29 -8 16 -7 22 6 29 21 12 11 42 -13 42 -29 0 -41 -13 -45 -45 -3 -27 -7 -30 -40 -33 -20 -2 -42 -9 -48 -17 -6 -8 -17 -12 -25 -9 -18 7 -29 -14 -16 -30 6 -7 8 -16 4 -19 -3 -4 -89 -7 -189 -7 -111 0 -185 -4 -189 -10 -3 -6 -52 -10 -110 -10 -58 0 -107 -4 -110 -10 -3 -5 -28 -10 -55 -10 -27 0 -52 -4 -55 -10 -3 -5 -30 -10 -60 -10 -30 0 -57 -4 -60 -10 -3 -5 -21 -10 -40 -10 -19 0 -37 -4 -40 -10 -3 -5 -21 -10 -39 -10 -17 0 -37 -5 -43 -11 -16 -16 -68 10 -112 55 -19 20 -40 36 -46 36 -6 0 -24 14 -40 30 -16 17 -34 30 -39 30 -12 0 -106 94 -150 150 -15 19 -54 63 -86 96 -74 78 -88 102 -63 110 38 12 48 22 48 50 0 27 -3 29 -44 32 -25 2 -53 9 -64 17 -11 7 -25 11 -32 9 -15 -6 -39 22 -30 36 5 8 11 7 22 -1 8 -8 36 -12 66 -10z m2242 1 c4 -6 42 -8 103 -4 90 6 98 5 115 -14 15 -16 18 -29 12 -61 -4 -23 -11 -43 -16 -47 -14 -9 -10 -40 7 -55 36 -29 -8 -129 -56 -129 -47 0 -60 -10 -60 -45 0 -42 14 -53 75 -57 29 -2 50 -8 50 -15 0 -6 13 -23 28 -37 23 -21 38 -26 82 -26 30 0 57 -5 61 -11 7 -12 -43 -69 -61 -69 -7 0 -20 -9 -30 -20 -10 -11 -24 -20 -32 -20 -7 0 -22 -5 -32 -12 -15 -9 -28 -7 -65 10 -25 12 -61 22 -80 22 -19 0 -38 5 -41 10 -3 6 -35 10 -70 10 -35 0 -67 5 -70 10 -3 6 -52 10 -110 10 -58 0 -107 4 -110 10 -3 6 -34 10 -69 10 -34 0 -66 3 -69 7 -10 10 13 33 34 33 10 0 34 8 54 18 31 15 35 21 33 51 -3 33 -12 43 -51 55 -32 10 -7 26 40 26 29 0 53 -6 65 -17 14 -13 21 -14 30 -5 7 7 33 12 59 12 59 0 79 7 79 29 0 9 5 22 11 28 8 8 8 17 0 31 -15 28 -14 99 2 109 6 4 19 7 27 5 8 -1 21 2 29 7 12 7 12 13 3 24 -16 19 -5 27 34 27 38 0 52 -14 28 -28 -18 -10 -11 -32 11 -32 13 0 62 58 54 64 -54 37 -133 49 -169 26 -10 -6 -20 -4 -32 7 -37 33 -14 63 48 63 24 0 46 -5 49 -10z m864 -14 c9 -10 9 -16 1 -21 -6 -4 -15 -18 -20 -31 -9 -21 -15 -23 -92 -26 -78 -3 -83 -4 -86 -26 -2 -13 -11 -26 -20 -28 -9 -3 -25 -10 -34 -15 -22 -11 -34 7 -18 26 8 10 8 19 1 34 -12 22 -15 84 -4 94 3 4 64 7 133 7 98 0 130 -3 139 -14z m-1158 -46 c10 -6 19 -17 19 -25 0 -8 13 -29 29 -47 38 -44 36 -100 -5 -152 -27 -33 -33 -36 -83 -36 -55 0 -91 18 -91 45 0 7 -7 16 -15 19 -22 8 -9 74 19 101 12 11 32 37 44 57 13 20 31 39 40 41 9 3 18 5 20 6 2 0 12 -4 23 -9z m-1132 -59 c2 0 -2 -8 -9 -16 -9 -11 -16 -12 -26 -4 -7 6 -18 8 -24 4 -12 -8 -32 3 -25 14 3 7 68 8 84 2z m2116 -50 c7 -12 -12 -24 -25 -16 -11 7 -4 25 10 25 5 0 11 -4 15 -9z m49 -12 c-3 -5 -10 -7 -15 -3 -5 3 -7 10 -3 15 3 5 10 7 15 3 5 -3 7 -10 3 -15z m-2151 -16 c4 -3 2 -12 -4 -19 -13 -16 -54 0 -44 17 7 10 38 12 48 2z m2047 -23 c0 -6 9 -10 19 -10 11 0 23 -5 26 -10 8 -13 -177 -205 -216 -225 -32 -17 -39 -12 -39 32 0 41 -26 46 -40 7 -9 -22 -15 -25 -52 -22 -51 4 -60 30 -14 38 28 5 39 16 50 53 5 15 14 16 74 11 47 -5 71 -3 76 5 4 6 18 11 32 11 14 0 26 6 28 13 2 6 8 27 14 46 8 25 8 38 1 47 -17 20 -2 36 22 24 10 -6 19 -15 19 -20z m-325 -129 c7 -12 -12 -24 -25 -16 -11 7 -4 25 10 25 5 0 11 -4 15 -9z m-820 -161 c0 -19 -85 -26 -115 -10 -35 19 -11 31 53 28 47 -2 62 -7 62 -18z m200 -70 c3 -6 52 -10 110 -10 58 0 107 -4 110 -10 3 -5 35 -10 70 -10 35 0 67 -4 70 -10 3 -5 27 -10 53 -10 31 0 55 -7 72 -20 14 -11 39 -20 57 -20 17 0 35 -4 38 -10 3 -5 20 -10 36 -10 17 0 32 -6 35 -15 8 -19 -23 -84 -42 -92 -8 -3 -14 -13 -14 -23 0 -11 -4 -22 -10 -25 -5 -3 -10 -15 -10 -25 0 -11 -9 -34 -20 -52 -11 -18 -20 -45 -20 -60 0 -15 -4 -30 -10 -33 -5 -3 -10 -24 -10 -45 0 -41 -15 -59 -33 -41 -6 6 -23 11 -38 11 -15 0 -31 5 -34 10 -3 6 -19 10 -35 10 -16 0 -32 5 -35 10 -3 6 -19 10 -35 10 -16 0 -32 5 -35 10 -3 6 -21 10 -40 10 -19 0 -37 5 -40 10 -3 6 -33 10 -65 10 -32 0 -62 5 -65 10 -3 6 -35 10 -70 10 -35 0 -67 5 -70 10 -4 6 -107 10 -275 10 -168 0 -271 -4 -275 -10 -3 -6 -50 -10 -105 -10 -55 0 -102 -4 -105 -10 -3 -5 -28 -10 -55 -10 -27 0 -52 -4 -55 -10 -3 -5 -35 -10 -70 -10 -35 0 -67 -4 -70 -10 -3 -5 -21 -10 -40 -10 -19 0 -37 -4 -40 -10 -3 -5 -18 -10 -33 -10 -15 0 -52 -9 -81 -20 -65 -23 -81 -15 -81 41 0 21 -4 41 -10 44 -5 3 -10 19 -10 35 0 16 -4 32 -10 35 -5 3 -10 15 -10 26 0 24 -20 60 -42 77 -10 7 -18 18 -18 24 0 7 -10 22 -22 36 l-23 23 25 19 c14 11 35 20 47 20 12 0 25 5 28 10 3 6 17 10 30 10 13 0 27 5 30 10 3 6 19 10 35 10 16 0 32 5 35 10 3 6 24 10 45 10 21 0 42 5 45 10 3 6 30 10 60 10 30 0 57 5 60 10 3 6 24 10 45 10 21 0 42 5 45 10 3 6 52 10 110 10 58 0 107 4 110 10 4 6 142 10 380 10 238 0 376 -4 380 -10z m1760 -180 c4 -6 53 -10 115 -10 62 0 111 -4 115 -10 3 -5 24 -10 45 -10 21 0 42 -4 45 -10 3 -5 17 -10 30 -10 13 0 27 -4 30 -10 3 -5 16 -10 28 -10 12 0 37 -9 55 -20 18 -11 41 -20 51 -20 27 0 83 -30 78 -43 -2 -7 -31 -13 -71 -15 -52 -2 -72 -8 -88 -24 -15 -15 -18 -25 -12 -36 13 -19 90 -62 113 -62 24 0 105 -76 96 -90 -10 -16 -38 -11 -65 10 -14 11 -39 20 -57 20 -17 0 -35 5 -38 10 -3 6 -21 10 -40 10 -19 0 -37 5 -40 10 -3 6 -50 10 -105 10 -55 0 -102 4 -105 10 -4 6 -60 10 -135 10 -75 0 -131 -4 -135 -10 -4 -6 -53 -10 -115 -10 -62 0 -111 -4 -115 -10 -3 -5 -39 -10 -80 -10 -41 0 -77 -4 -80 -10 -3 -5 -26 -10 -50 -10 -24 0 -47 -4 -50 -10 -3 -5 -24 -10 -45 -10 -21 0 -42 -4 -45 -10 -3 -5 -30 -10 -60 -10 -30 0 -57 -4 -60 -10 -3 -5 -23 -10 -44 -10 -20 0 -41 -4 -46 -9 -6 -5 -41 -12 -80 -15 -109 -8 -169 -17 -179 -27 -6 -5 -36 -9 -67 -9 -32 0 -60 -4 -63 -9 -13 -20 -290 -41 -308 -23 -18 18 3 52 42 72 33 17 59 20 159 20 l121 0 25 40 c14 22 25 51 25 64 0 14 5 28 10 31 6 3 10 24 10 47 0 57 31 98 75 98 19 0 37 5 40 10 3 6 19 10 35 10 16 0 32 5 35 10 3 6 21 10 40 10 19 0 37 5 40 10 3 6 21 10 40 10 19 0 37 5 40 10 3 6 21 10 40 10 19 0 37 5 40 10 3 6 44 10 90 10 46 0 87 5 90 10 3 6 39 10 78 10 40 0 79 5 87 10 20 13 407 13 415 0z m-3770 -60 c3 -5 33 -10 65 -10 32 0 62 -4 65 -10 3 -5 37 -10 74 -10 37 0 71 -4 77 -9 5 -5 32 -12 59 -15 80 -8 125 -18 131 -27 3 -5 21 -9 41 -9 42 0 73 -24 73 -56 0 -13 5 -26 10 -29 6 -3 10 -34 10 -68 1 -75 21 -107 69 -107 17 0 39 -4 49 -9 9 -5 38 -18 63 -30 74 -32 72 -72 -4 -57 -17 4 -49 10 -70 13 -20 3 -40 9 -43 14 -3 5 -16 9 -29 9 -13 0 -27 5 -30 10 -3 6 -17 10 -30 10 -13 0 -27 5 -30 10 -3 6 -21 10 -40 10 -19 0 -37 5 -40 10 -3 6 -21 10 -40 10 -19 0 -37 5 -40 10 -3 6 -25 10 -49 10 -23 0 -46 4 -52 9 -20 20 -460 39 -477 22 -6 -6 -39 -11 -73 -11 -35 0 -66 -4 -69 -10 -3 -5 -26 -10 -50 -10 -24 0 -47 -4 -50 -10 -3 -5 -21 -10 -39 -10 -18 0 -36 -3 -40 -7 -10 -11 -79 -33 -103 -33 -12 0 -56 -18 -97 -40 -68 -36 -77 -39 -82 -23 -3 10 -10 26 -15 36 -14 25 15 87 40 87 9 0 30 14 46 30 17 18 39 30 54 30 27 0 61 26 61 47 0 7 -10 13 -23 13 -13 0 -27 4 -33 10 -5 5 -58 11 -117 12 -61 2 -108 7 -109 13 -1 6 25 23 58 39 32 16 76 37 97 47 22 11 49 19 62 19 13 0 27 5 30 10 3 6 17 10 30 10 13 0 27 5 30 10 3 6 28 10 55 10 27 0 52 5 55 10 4 6 53 10 115 10 62 0 111 4 115 10 4 6 55 10 120 10 65 0 116 -4 120 -10z m1857 -305 c2 -5 -15 -19 -37 -30 -22 -11 -46 -28 -53 -37 -7 -10 -19 -18 -26 -18 -18 0 -113 -49 -126 -65 -18 -22 -74 -19 -95 5 -10 11 -24 20 -31 20 -8 0 -19 9 -26 20 -7 11 -20 20 -29 20 -9 0 -22 7 -29 15 -7 9 -33 25 -57 36 -42 19 -50 29 -36 42 11 12 543 3 545 -8z"/>
<path d="M3266 2483 c-4 -4 -17 -8 -29 -8 -13 0 -23 -7 -25 -18 -4 -21 34 -67 55 -67 8 0 16 -8 20 -17 17 -48 44 -63 113 -63 58 0 70 3 90 25 l23 25 -18 20 c-10 11 -30 26 -44 33 -13 7 -32 26 -41 42 -15 27 -22 30 -76 33 -33 2 -63 -1 -68 -5z m8 -44 c-3 -5 -10 -7 -15 -3 -5 3 -7 10 -3 15 3 5 10 7 15 3 5 -3 7 -10 3 -15z m171 -69 c0 -11 -13 -16 -49 -18 -50 -3 -74 7 -61 28 11 17 110 9 110 -10z"/>
<path d="M2464 2159 c-10 -17 13 -36 27 -22 12 12 4 33 -11 33 -5 0 -12 -5 -16 -11z"/>
<path d="M2582 2118 c-15 -15 -16 -45 -1 -54 14 -9 64 41 55 55 -9 15 -39 14 -54 -1z"/>
<path d="M2724 2119 c-3 -6 5 -23 20 -37 20 -20 28 -24 38 -14 9 9 6 17 -12 37 -26 28 -35 31 -46 14z"/>
<path d="M2665 2060 c-4 -7 -3 -16 3 -22 14 -14 47 -6 47 12 0 18 -40 26 -50 10z"/>
<path d="M4050 2365 c-25 -26 -25 -37 -2 -58 21 -19 87 -23 98 -6 8 13 -7 29 -30 33 -19 3 -22 21 -3 21 6 0 12 7 12 15 0 23 -52 19 -75 -5z"/>
<path d="M4170 2372 c0 -4 5 -13 12 -20 9 -9 8 -16 -4 -29 -31 -36 4 -60 35 -25 22 24 21 45 -1 65 -20 18 -42 22 -42 9z"/>
<path d="M3234 1889 c-4 -7 -7 -28 -8 -48 -1 -42 -21 -45 -21 -3 -1 36 -13 54 -33 50 -11 -2 -17 -13 -17 -33 0 -23 -5 -30 -20 -30 -27 0 -45 14 -45 36 0 24 -18 33 -35 19 -10 -9 -19 -9 -27 -2 -12 9 -102 1 -147 -14 -21 -7 6 -34 31 -31 22 2 25 -7 29 -81 3 -44 20 -69 40 -57 7 5 10 29 6 72 -4 56 -2 65 16 78 31 22 44 3 49 -70 2 -35 6 -67 10 -70 13 -13 38 9 38 34 0 15 5 32 12 39 16 16 48 -4 48 -31 0 -38 20 -50 45 -27 20 18 23 19 35 5 15 -18 115 -21 126 -4 4 8 9 8 17 0 19 -19 35 -12 47 22 l11 32 29 -33 c16 -20 36 -33 46 -31 11 1 27 -1 37 -6 23 -10 35 2 39 40 3 26 7 30 33 30 28 0 30 -2 27 -36 -2 -21 1 -40 6 -43 17 -10 42 5 42 24 0 31 18 32 32 3 9 -19 27 -33 55 -42 l41 -15 35 27 34 26 30 -37 c26 -32 35 -37 73 -37 34 0 46 6 64 28 26 32 37 27 29 -14 -5 -24 -1 -30 21 -39 60 -22 126 -6 145 37 28 62 5 113 -61 135 -52 17 -78 13 -78 -12 0 -34 -18 -31 -35 4 -28 59 -101 70 -152 24 l-21 -20 -13 23 c-33 62 -111 80 -148 33 -27 -34 -35 -34 -41 1 -7 41 -35 44 -49 5 -8 -25 -15 -31 -33 -28 -17 2 -23 10 -23 27 0 25 -29 51 -42 38 -4 -4 -9 -38 -11 -75 -2 -37 -8 -71 -12 -75 -4 -5 -17 4 -28 20 -18 25 -18 31 -6 48 21 28 17 51 -12 74 -35 28 -90 28 -104 1 -6 -11 -10 -28 -8 -38 2 -14 -3 -16 -32 -13 -19 2 -43 4 -53 5 -9 0 -17 6 -17 11 0 10 6 12 53 14 20 1 27 6 27 21 0 18 -7 20 -59 20 -34 0 -63 -5 -67 -11z m226 -63 c-13 -13 -35 7 -25 24 5 8 11 8 21 -1 10 -8 12 -15 4 -23z m385 -20 c17 -26 9 -62 -19 -85 -14 -12 -19 -11 -36 4 -24 22 -26 62 -3 87 22 24 39 23 58 -6z m-465 -35 c0 -33 -9 -44 -24 -32 -6 5 -24 11 -41 13 -41 4 -39 30 3 39 18 4 36 9 39 13 11 11 23 -5 23 -33z m648 17 c19 -19 14 -73 -7 -92 -45 -41 -86 40 -44 86 19 21 34 23 51 6z m174 -45 c22 -19 24 -66 4 -83 -8 -6 -25 -10 -38 -8 -19 2 -22 8 -20 31 4 35 19 77 28 77 4 0 16 -7 26 -17z"/>
<path d="M2738 1836 c-23 -20 -28 -34 -28 -70 0 -81 71 -127 136 -87 35 22 46 57 33 105 -14 50 -31 67 -74 73 -33 4 -45 1 -67 -21z m81 -32 c25 -32 27 -61 5 -85 -26 -29 -74 1 -74 46 0 22 26 65 40 65 5 0 18 -12 29 -26z"/>
<path d="M2553 1805 c-18 -13 -20 -20 -13 -52 5 -20 6 -41 3 -45 -8 -14 -30 10 -36 41 -3 16 -13 31 -22 35 -19 7 -103 -12 -111 -26 -4 -5 4 -45 16 -89 20 -69 26 -79 46 -79 32 0 75 18 100 41 19 18 22 18 34 4 15 -19 40 -3 40 26 0 28 18 32 46 10 51 -40 84 -16 35 24 -25 22 -29 31 -24 60 3 21 1 41 -7 50 -16 19 -79 19 -107 0z m73 -36 c10 -17 -13 -36 -27 -22 -12 12 -4 33 11 33 5 0 12 -5 16 -11z m-171 -38 c7 -12 -12 -24 -25 -16 -11 7 -4 25 10 25 5 0 11 -4 15 -9z m42 -68 c6 -17 -36 -38 -50 -24 -7 7 -6 15 3 26 15 18 41 17 47 -2z"/>
<path d="M5073 1733 c-19 -4 -22 -12 -25 -56 -4 -69 11 -127 33 -127 18 0 33 26 23 41 -3 5 2 12 11 16 12 4 27 -5 47 -26 26 -28 34 -31 66 -25 20 3 43 15 51 25 18 26 67 25 81 -1 12 -22 50 -27 50 -6 0 18 -19 73 -42 124 -15 31 -26 42 -43 42 -29 0 -38 -12 -65 -80 -29 -74 -35 -78 -65 -50 -22 21 -23 25 -10 40 45 50 -25 102 -112 83z m73 -44 c10 -17 -23 -46 -37 -32 -7 7 -9 19 -6 27 7 18 33 21 43 5z"/>
<path d="M5459 1712 c-34 -30 -42 -79 -19 -121 18 -35 86 -51 145 -35 26 7 44 45 34 71 -9 24 -55 36 -82 21 -22 -11 -17 -33 6 -33 9 0 18 -4 19 -10 2 -5 -13 -10 -32 -10 -26 0 -37 6 -49 26 -12 22 -12 28 4 53 16 24 23 27 59 24 23 -3 49 -8 59 -12 13 -6 17 -3 17 13 0 27 -28 41 -84 41 -36 0 -52 -6 -77 -28z"/>
<path d="M4972 1718 c-7 -7 -9 -35 -5 -74 5 -55 3 -64 -12 -70 -27 -11 -49 9 -58 52 -4 21 -10 49 -13 62 -3 14 -12 22 -25 22 -20 0 -21 -4 -17 -50 6 -61 -6 -73 -26 -26 -17 41 -42 56 -91 56 -100 0 -138 -102 -63 -165 51 -43 122 -28 160 33 20 33 22 34 34 16 27 -39 36 -44 74 -44 46 0 88 32 91 70 4 42 -12 118 -26 124 -7 2 -17 0 -23 -6z m-220 -75 c25 -29 28 -61 9 -85 -23 -28 -68 -18 -82 19 -14 37 -8 55 21 70 32 16 34 16 52 -4z"/>
<path d="M5656 1708 c-3 -13 -6 -40 -6 -60 0 -20 -4 -39 -9 -42 -5 -4 -6 -18 -2 -34 7 -24 14 -28 64 -36 31 -4 63 -6 72 -2 26 10 5 33 -38 42 -63 13 -56 38 11 42 73 4 68 29 -8 42 -50 8 -38 25 15 23 38 -2 45 0 45 16 0 24 -19 31 -85 31 -46 0 -53 -3 -59 -22z"/>
<path d="M4493 1645 c-69 -30 -80 -96 -26 -153 31 -32 36 -34 78 -29 50 7 85 25 85 45 0 21 -27 25 -52 8 -12 -9 -30 -16 -39 -16 -23 0 -50 33 -52 65 -2 22 5 32 32 47 22 13 37 16 44 9 12 -12 37 -3 37 14 0 27 -56 32 -107 10z"/>
<path d="M1625 1674 c-8 -9 -15 -24 -15 -34 0 -28 -17 -33 -30 -9 -15 27 -73 51 -104 43 -75 -19 -91 -132 -24 -178 38 -27 77 -20 114 20 l34 35 10 -25 c14 -38 50 -35 50 3 0 41 16 47 34 13 26 -50 42 -57 67 -28 l22 25 34 -29 c18 -17 40 -30 47 -30 34 0 78 25 92 51 18 35 38 30 24 -6 -18 -47 17 -77 40 -35 15 28 25 25 49 -15 35 -60 70 -36 37 26 -12 24 -12 28 5 43 23 19 25 59 4 80 -18 17 -78 31 -94 21 -6 -3 -14 -20 -19 -38 -10 -39 -24 -38 -35 3 -9 34 -58 70 -96 70 -14 0 -37 -14 -57 -35 l-33 -35 -11 19 c-5 11 -9 26 -8 33 2 7 -7 14 -19 16 -19 3 -23 -1 -23 -22 0 -37 -17 -41 -34 -8 -19 37 -41 46 -61 26z m-103 -51 c25 -22 24 -79 -1 -93 -31 -16 -40 -12 -58 24 -15 32 -15 37 1 60 19 30 32 32 58 9z m380 0 c40 -36 5 -118 -41 -93 -28 14 -30 84 -3 99 23 14 23 14 44 -6z m178 -38 c0 -19 -20 -29 -32 -17 -8 8 -7 16 2 26 14 17 30 12 30 -9z m-296 -26 c-3 -5 -10 -7 -15 -3 -5 3 -7 10 -3 15 3 5 10 7 15 3 5 -3 7 -10 3 -15z"/>
<path d="M1330 1623 c0 -52 -43 -72 -60 -28 -13 34 -55 36 -47 3 3 -13 10 -48 16 -78 15 -73 25 -88 45 -71 10 8 13 22 10 41 -5 22 -1 31 15 40 27 14 37 8 44 -30 5 -22 12 -30 27 -30 19 0 21 5 17 43 -2 23 -6 49 -9 57 -3 8 -9 28 -14 45 -13 41 -44 47 -44 8z"/>
</g>
</g>
</svg>
