<svg xmlns="http://www.w3.org/2000/svg" version="1.0" width="304.000000pt" height="112.000000pt" viewBox="0 0 304.000000 112.000000" preserveAspectRatio="xMidYMid meet">
  <g transform="translate(0.000000,112.000000) scale(0.100000,-0.100000)" stroke="none">
    <mask id="mask-0">
      <g>
        <path d="M 0 0 H 3040.0 V 1120.0 H 0 Z" fill="white" id="background"/>
        <path d="M1552 641 c47 -11 112 -62 146 -115 24 -37 27 -50 26 -131 0 -80 -3 -95 -27 -132 -52 -82 -122 -123 -211 -123 -170 0 -286 169 -234 342 21 70 101 145 173 161 34 8 88 7 127 -2z" fill="black"/>
      </g>
    </mask>
    <path stroke="none" d="M618 1040 c-28 -17 -41 -73 -27 -119 13 -44 40 -58 83 -42 47 18 45 135 -3 160 -24 13 -31 13 -53 1z" fill="#fbae06" id="fbae06-000001" mask="url(#mask-0)"/>
    <path stroke="none" d="M2145 886 c-33 -33 -32 -56 8 -93 40 -38 60 -45 92 -33 47 18 42 90 -9 123 -44 29 -64 30 -91 3z" fill="#fbae06" id="fbae06-000002" mask="url(#mask-0)"/>
    <path stroke="none" d="M2445 841 c-87 -16 -172 -82 -214 -167 -29 -58 -44 -172 -38 -297 3 -82 7 -102 24 -119 17 -16 24 -18 42 -9 23 13 24 20 21 141 -2 90 13 195 35 245 28 62 95 105 174 112 75 7 137 -11 178 -52 27 -27 33 -41 33 -76 0 -73 -52 -114 -183 -146 -83 -20 -116 -36 -151 -72 -25 -26 -30 -39 -30 -81 0 -43 5 -55 32 -83 35 -36 96 -57 165 -57 23 0 79 -5 125 -12 79 -11 82 -12 82 -38 0 -33 17 -50 51 -50 33 0 39 14 39 90 0 74 -15 84 -135 94 -49 5 -126 11 -169 14 -59 5 -82 11 -90 24 -15 24 3 52 35 56 13 2 28 8 34 13 5 5 18 9 30 9 55 1 172 57 209 101 127 151 23 345 -194 362 -36 3 -83 2 -105 -2z" fill="#fbae06" id="fbae06-000005" mask="url(#mask-0)"/>
    <path stroke="none" d="M612 820 c-9 -14 -12 -91 -12 -282 -1 -298 -5 -316 -73 -351 -58 -30 -97 -18 -154 49 -43 50 -51 55 -78 50 -37 -8 -85 -53 -85 -82 0 -31 25 -48 59 -41 20 4 33 1 43 -10 7 -9 33 -29 57 -45 71 -45 185 -36 247 19 54 47 87 138 82 226 -3 52 0 62 15 65 15 3 17 -8 17 -136 0 -77 3 -154 6 -171 7 -31 8 -32 58 -29 43 3 51 6 54 24 2 14 -6 27 -22 38 -26 16 -26 17 -26 162 0 81 -5 154 -10 165 -7 13 -21 19 -44 19 -19 0 -38 6 -43 13 -7 9 -10 149 -4 210 1 4 16 7 34 7 22 0 41 8 53 21 19 21 18 21 -5 40 -13 10 -36 19 -52 19 -18 0 -34 8 -41 20 -17 26 -59 26 -76 0z" fill="#fbae06" id="fbae06-000003" mask="url(#mask-0)"/>
    <path stroke="none" d="M1355 822 c-130 -45 -230 -149 -276 -287 -25 -75 -40 -95 -75 -95 -14 0 -25 -8 -29 -20 -11 -34 11 -56 70 -69 51 -11 58 -11 76 5 10 9 19 28 19 42 0 117 98 267 210 319 79 37 192 37 270 1 60 -29 103 -65 139 -116 33 -48 67 -59 91 -30 15 19 22 21 36 12 34 -20 66 -107 76 -203 4 -31 33 -50 50 -33 15 15 13 122 -4 171 -24 73 -94 141 -144 141 -11 0 -41 19 -66 43 -107 101 -190 137 -313 136 -47 0 -100 -7 -130 -17z" fill="#fbae06" id="fbae06-000004" mask="url(#mask-0)"/>
    <path stroke="none" d="M1415 704 c-78 -19 -165 -92 -205 -171 -29 -57 -41 -197 -20 -242 7 -14 18 -37 24 -51 18 -40 97 -114 148 -138 57 -26 176 -30 229 -8 119 50 191 154 209 301 l6 50 16 -37 c18 -41 47 -55 77 -36 28 17 48 65 32 81 -6 6 -11 18 -11 27 0 23 -45 62 -66 58 -10 -2 -28 -21 -41 -43 -19 -34 -23 -37 -29 -20 -29 88 -98 170 -175 211 -34 17 -152 28 -194 18z" fill="#fbae06" id="fbae06-000006" mask="url(#mask-0)"/>
  </g>
</svg>
