<?xml version="1.0" standalone="no"?>
<!DOCTYPE svg PUBLIC "-//W3C//DTD SVG 1.1//EN"
 "http://www.w3.org/Graphics/SVG/1.1/DTD/svg11.dtd">
<!-- Created with svg_stack (http://github.com/astraw/svg_stack) -->
<svg xmlns:sodipodi="http://sodipodi.sourceforge.net/DTD/sodipodi-0.dtd" xmlns="http://www.w3.org/2000/svg" version="1.1" width="664.0" height="168.0">
  <defs/>
  <g id="id0:id0" transform="matrix(1.25,0,0,1.25,0.0,0.0)"><g transform="translate(0.000000,134.400000) scale(0.040000,-0.040000)" fill="#000000" stroke="none">
<path d="M2450 2592 c0 -5 8 -12 18 -16 9 -3 23 -9 30 -12 6 -3 12 -1 12 4 0 5 -8 12 -17 16 -10 3 -24 9 -30 12 -7 3 -13 1 -13 -4z"/>
<path d="M2530 2550 c0 -5 5 -10 10 -10 6 0 10 5 10 10 0 6 -4 10 -10 10 -5 0 -10 -4 -10 -10z"/>
<path d="M1108 2176 c-122 -36 -202 -104 -247 -210 -30 -68 -28 -165 2 -231 43 -91 161 -180 299 -224 21 -7 40 -16 43 -21 6 -10 -203 -188 -509 -435 -69 -55 -127 -106 -131 -114 -14 -33 13 -36 413 -39 l396 -3 31 23 c16 12 107 89 200 171 94 83 230 202 304 266 74 64 153 133 175 153 l41 37 0 81 c0 60 -4 83 -15 90 -8 6 -88 10 -178 10 -144 0 -169 3 -212 21 -78 33 -103 97 -60 152 40 51 83 58 330 55 l225 -3 5 -518 c4 -446 7 -519 20 -527 9 -6 170 -10 386 -10 305 0 374 2 383 14 9 10 11 170 11 598 -1 444 2 590 11 611 11 24 10 30 -11 52 l-23 25 -906 -1 -906 0 -77 -23z"/>
<path d="M3957 2186 c-3 -7 -7 -230 -8 -494 -2 -383 0 -484 10 -496 12 -14 53 -16 308 -16 244 0 295 2 299 14 3 8 6 194 7 413 l2 398 173 3 c154 2 178 0 217 -17 78 -35 84 -100 13 -138 -26 -13 -64 -18 -173 -21 -160 -4 -165 -7 -165 -84 0 -56 6 -63 185 -218 61 -52 172 -150 248 -217 96 -84 149 -124 170 -128 18 -3 165 -4 327 -3 263 3 295 5 298 19 2 11 -43 54 -129 125 -73 60 -169 141 -214 180 -45 38 -98 83 -118 99 -21 15 -36 32 -35 37 2 5 33 19 70 32 137 46 229 165 213 276 -16 109 -88 192 -200 228 l-65 22 -714 0 c-597 0 -715 -2 -719 -14z"/>
<path d="M6200 2184 c-184 -49 -305 -185 -345 -389 -55 -273 110 -545 365 -604 62 -14 948 -14 1026 0 72 13 161 59 223 115 158 143 204 409 108 625 -35 79 -134 182 -211 218 -103 49 -132 51 -639 50 -382 0 -482 -3 -527 -15z m685 -197 c52 -30 65 -68 72 -222 7 -145 -9 -289 -35 -325 -44 -59 -76 -70 -196 -70 -134 0 -165 14 -199 88 -19 41 -22 68 -24 227 -4 211 8 263 66 302 31 21 46 23 155 23 107 0 126 -3 161 -23z"/>
<path d="M7672 2188 c-16 -16 -15 -116 1 -148 l13 -25 214 -5 215 -5 3 -399 c1 -274 6 -403 13 -413 9 -10 73 -13 311 -13 259 0 299 2 305 15 3 9 6 194 7 413 l1 397 228 5 c188 4 229 8 237 20 5 8 9 42 9 75 -2 106 86 95 -782 95 -580 0 -766 -3 -775 -12z"/>
<path d="M9620 2185 c-76 -21 -163 -71 -211 -122 -66 -69 -85 -100 -113 -184 -71 -214 -26 -419 124 -564 74 -70 143 -109 230 -125 30 -6 246 -10 513 -10 l461 0 78 21 c220 60 364 282 343 532 -4 43 -13 102 -22 130 -31 107 -125 224 -223 280 -96 55 -125 57 -651 56 -351 -1 -496 -5 -529 -14z m697 -201 c45 -33 52 -70 52 -284 1 -184 0 -198 -21 -240 -37 -72 -63 -84 -181 -88 -121 -5 -168 7 -201 51 -34 46 -46 118 -46 285 1 164 11 226 43 261 35 37 54 41 194 38 116 -2 135 -5 160 -23z"/>
<path d="M11414 2185 c-100 -32 -157 -78 -195 -160 -33 -69 -35 -91 -14 -163 26 -87 104 -157 220 -197 33 -12 58 -25 55 -30 -3 -5 -31 -30 -62 -55 -31 -25 -121 -99 -200 -166 -79 -66 -162 -135 -185 -154 -29 -22 -43 -41 -43 -57 0 -27 -35 -24 370 -23 193 1 260 4 275 14 11 7 99 82 195 166 96 83 218 190 271 235 90 78 97 87 103 130 8 48 1 85 -18 97 -6 4 -67 8 -136 8 -145 1 -187 12 -213 57 -17 30 -17 34 -2 63 27 52 63 60 254 60 125 0 172 -3 178 -12 4 -7 8 -191 8 -410 0 -218 2 -399 5 -402 3 -3 138 -6 299 -7 238 -1 295 1 302 12 10 16 12 968 3 993 -6 14 -77 16 -718 15 -550 -1 -720 -4 -752 -14z"/>
<path d="M5183 858 c-43 -20 -56 -38 -29 -38 8 0 18 5 21 10 3 6 14 10 24 10 21 0 71 22 71 33 0 13 -45 6 -87 -15z"/>
<path d="M5088 826 c-23 -17 -23 -26 1 -26 21 0 45 23 34 33 -9 10 -15 8 -35 -7z"/>
<path d="M6313 761 c-10 -16 -9 -22 3 -32 12 -10 18 -9 31 4 13 13 14 19 3 31 -16 21 -23 20 -37 -3z"/>
<path d="M5206 656 c3 -9 11 -16 16 -16 13 0 5 23 -10 28 -7 2 -10 -2 -6 -12z"/>
<path d="M12020 640 c0 -5 5 -10 10 -10 6 0 10 5 10 10 0 6 -4 10 -10 10 -5 0 -10 -4 -10 -10z"/>
<path d="M1380 631 c0 -12 54 -51 69 -51 20 0 11 15 -24 38 -38 24 -45 26 -45 13z"/>
</g>
</g>
  <g id="id1:id1" transform="matrix(1.25,0,0,1.25,0.0,0.0)"><g transform="translate(0.000000,134.400000) scale(0.040000,-0.040000)" fill="#c80e28" stroke="none">
<path d="M1158 2980 c-26 -4 -69 -15 -95 -23 -27 -9 -64 -19 -83 -22 -19 -4 -84 -32 -145 -64 -285 -146 -436 -401 -437 -741 -1 -245 71 -487 220 -740 79 -134 174 -260 197 -260 6 0 33 22 60 50 44 45 47 51 32 62 -43 33 -148 306 -173 454 -12 73 -15 135 -12 258 6 189 25 260 107 397 48 81 148 190 216 236 68 46 198 104 291 130 l99 28 215 0 c190 0 226 -3 315 -23 241 -57 494 -153 640 -242 36 -22 72 -40 80 -40 23 0 18 28 -7 41 -13 7 -43 29 -68 49 -25 21 -58 44 -75 53 -16 8 -54 33 -83 56 -78 58 -350 194 -472 235 -58 19 -172 52 -255 72 -141 34 -161 37 -335 40 -102 1 -206 -1 -232 -6z"/>
<path d="M3006 2118 c-14 -53 -6 -92 23 -123 33 -34 120 -193 157 -286 13 -35 39 -111 56 -169 29 -96 32 -119 36 -276 5 -206 -10 -284 -85 -434 -39 -80 -61 -109 -137 -185 -180 -178 -398 -255 -724 -255 -84 0 -172 4 -195 9 -23 5 -73 14 -112 21 -72 11 -229 56 -325 92 -91 34 -264 110 -280 123 -14 12 -149 85 -157 85 -1 0 -3 -8 -3 -17 0 -11 46 -51 117 -103 193 -140 265 -186 405 -256 163 -82 326 -143 453 -169 17 -4 39 -10 50 -15 26 -11 82 -18 235 -30 152 -11 372 4 435 30 11 4 40 13 65 20 25 7 86 34 135 59 76 38 107 62 195 151 119 118 159 186 206 345 25 81 27 106 28 255 0 146 -3 177 -26 270 -76 303 -226 577 -452 826 -54 59 -89 71 -100 32z"/>
<path d="M3960 901 c-5 -11 -10 -74 -10 -141 0 -67 5 -130 10 -141 10 -18 23 -19 185 -19 l173 0 31 26 31 26 0 108 0 108 -31 26 -31 26 -173 0 c-162 0 -175 -1 -185 -19z m313 -86 c-3 -11 -196 -20 -220 -10 -8 2 -11 10 -8 15 9 14 231 9 228 -5z m-18 -110 c0 -11 -138 -20 -162 -11 -8 3 -11 11 -8 16 9 14 170 9 170 -5z"/>
<path d="M4612 908 c-17 -17 -17 -279 0 -296 20 -20 48 -14 58 14 14 36 13 238 -2 269 -12 27 -36 33 -56 13z"/>
<path d="M4902 908 c-8 -8 -12 -56 -12 -148 0 -124 2 -139 20 -155 26 -24 46 -7 58 48 5 28 13 41 23 40 37 -5 129 -33 179 -53 77 -32 120 -40 142 -29 36 19 10 61 -47 74 -65 15 -127 38 -148 55 -28 23 -14 42 45 60 140 42 168 59 155 94 -9 23 -54 20 -133 -10 -38 -15 -97 -34 -131 -44 -67 -20 -74 -17 -88 30 -14 48 -39 62 -63 38z"/>
<path d="M5552 910 l-23 -10 5 -142 c3 -79 5 -146 5 -150 1 -5 95 -8 210 -8 218 0 221 1 221 43 -1 35 -18 40 -142 44 -132 4 -153 7 -143 23 3 5 47 10 96 10 98 0 129 10 129 40 0 32 -33 40 -159 40 -66 0 -122 4 -126 9 -9 15 6 20 70 21 201 6 256 12 266 32 6 10 7 28 4 38 -6 19 -16 20 -198 19 -106 0 -202 -4 -215 -9z"/>
<path d="M6703 900 c-50 -30 -66 -70 -61 -157 l3 -75 38 -34 37 -34 168 0 c173 0 192 4 192 42 0 31 -35 38 -183 38 -167 0 -177 4 -177 83 0 71 15 77 187 77 115 0 144 3 157 16 9 8 16 19 16 24 0 5 -7 16 -16 24 -13 13 -43 16 -172 16 -138 0 -161 -2 -189 -20z"/>
<path d="M7353 906 c-47 -21 -63 -61 -63 -157 l0 -81 34 -34 34 -34 135 0 c75 0 147 4 161 10 45 17 66 65 66 153 l0 77 -34 38 -34 37 -134 3 c-98 1 -141 -2 -165 -12z m272 -86 c10 -8 15 -31 15 -66 0 -68 -10 -74 -135 -74 -126 0 -135 5 -135 78 0 33 5 64 13 71 16 17 220 9 242 -9z"/>
<path d="M8244 869 c-83 -61 -108 -61 -190 1 -99 74 -124 50 -124 -118 0 -120 9 -152 40 -152 29 0 40 31 40 109 0 38 5 73 10 76 6 3 22 -2 38 -12 15 -10 43 -27 62 -37 l36 -18 57 36 c32 20 62 34 67 31 6 -3 10 -39 10 -80 0 -90 5 -105 36 -105 35 0 44 33 44 158 0 110 -12 154 -41 160 -8 1 -46 -20 -85 -49z"/>
<path d="M8596 898 c-12 -17 -16 -50 -16 -141 0 -124 8 -157 39 -157 20 0 38 36 43 85 l3 30 153 5 154 5 19 24 c13 16 19 39 19 71 0 42 -4 52 -31 74 l-31 26 -168 0 -169 0 -15 -22z m318 -79 c17 -15 -18 -20 -130 -17 -114 3 -144 18 -57 29 58 7 174 0 187 -12z"/>
<path d="M9292 905 c-42 -18 -62 -65 -62 -145 0 -70 18 -120 51 -144 33 -23 276 -23 320 0 39 20 59 68 58 141 -1 138 -35 163 -214 163 -81 -1 -131 -5 -153 -15z m274 -86 c11 -9 14 -28 12 -73 l-3 -61 -97 -3 c-54 -1 -112 1 -130 6 l-33 8 -3 62 c-3 57 -1 63 20 72 31 14 215 5 234 -11z"/>
<path d="M9890 910 c-12 -7 -15 -36 -15 -140 -1 -127 7 -169 31 -177 28 -9 44 28 44 103 0 58 3 76 15 81 14 5 132 -66 235 -142 38 -29 73 -40 95 -31 12 4 15 29 15 138 0 142 -10 178 -49 178 -25 0 -31 -19 -31 -105 0 -41 -4 -76 -9 -80 -11 -6 -62 24 -190 112 -99 68 -119 77 -141 63z"/>
<path d="M10537 902 c-14 -15 -17 -42 -17 -148 0 -88 4 -134 12 -142 9 -9 69 -12 209 -12 164 0 199 3 209 15 10 12 10 22 2 39 -10 22 -18 24 -114 31 -58 3 -127 5 -154 4 -28 -1 -56 1 -62 5 -30 18 8 26 129 26 140 0 148 3 135 55 l-6 25 -130 0 c-76 0 -131 4 -135 10 -10 16 10 19 162 24 149 5 183 14 183 46 0 34 -32 40 -223 40 -165 0 -186 -2 -200 -18z"/>
<path d="M11173 888 c-4 -18 -7 -88 -5 -155 3 -109 5 -124 22 -133 15 -8 24 -6 40 10 16 16 20 33 20 94 0 41 3 77 8 79 4 3 70 -37 147 -89 99 -67 147 -94 165 -92 l25 3 3 135 c3 141 -5 180 -38 180 -25 0 -40 -43 -40 -114 0 -34 -3 -66 -6 -69 -10 -10 -81 32 -227 135 -81 58 -103 61 -114 16z"/>
<path d="M11830 900 c-11 -11 -17 -26 -14 -35 7 -16 15 -19 109 -32 l60 -8 5 -100 c4 -55 9 -106 14 -113 10 -17 53 -15 60 4 3 9 6 58 6 109 0 61 4 96 12 101 6 4 44 9 85 12 67 4 74 7 79 28 13 50 -3 54 -207 54 -175 0 -190 -1 -209 -20z"/>
<path d="M12508 905 c-17 -10 -31 -29 -37 -53 -17 -59 -13 -78 20 -106 l31 -26 138 0 c123 0 168 -8 142 -24 -5 -3 -78 -6 -163 -7 -96 -2 -157 -7 -161 -13 -11 -16 -9 -64 2 -71 9 -6 130 -8 318 -6 60 1 92 36 92 102 0 41 -4 51 -31 73 l-31 26 -138 0 c-82 0 -141 4 -145 10 -10 17 13 20 173 23 159 4 171 8 172 48 0 35 -21 39 -189 39 -126 -1 -172 -4 -193 -15z"/>
<path d="M6317 778 c-9 -5 -17 -20 -17 -33 0 -21 5 -25 30 -25 26 0 30 3 30 29 0 32 -17 44 -43 29z"/>
</g>
</g>
  <g id="id2:id2" transform="matrix(1.25,0,0,1.25,0.0,0.0)"><g transform="translate(0.000000,134.400000) scale(0.040000,-0.040000)" fill="#ffffff" stroke="none">
<path d="M0 1680 l0 -1680 6640 0 6640 0 0 1680 0 1680 -6640 0 -6640 0 0 -1680z m1471 1291 c215 -17 517 -106 742 -220 160 -81 311 -177 302 -192 -4 -5 -41 9 -83 30 -149 74 -393 145 -589 171 -58 8 -150 11 -250 7 -193 -6 -308 -33 -458 -110 -186 -94 -337 -271 -400 -469 -22 -67 -28 -109 -32 -221 -7 -170 7 -286 54 -432 33 -105 108 -290 124 -309 17 -19 63 8 173 102 63 53 131 110 151 125 49 38 42 57 -25 74 -135 34 -248 113 -294 205 -33 66 -36 170 -6 235 24 54 103 139 152 164 95 48 104 49 1056 49 l893 0 51 -42 c105 -89 270 -317 368 -509 112 -219 158 -383 167 -590 6 -151 -4 -231 -44 -349 -107 -314 -376 -502 -775 -542 -100 -10 -139 -9 -265 5 -251 29 -459 92 -688 207 -163 82 -401 238 -386 253 7 7 16 6 28 -4 10 -9 59 -34 108 -56 351 -159 736 -219 1036 -164 212 40 341 104 480 238 115 111 176 215 214 369 30 117 34 313 10 442 -33 171 -134 416 -252 611 -1 2 -9 -2 -18 -9 -13 -11 -15 -85 -17 -564 l-3 -551 -375 0 -375 0 -5 525 -5 525 -229 3 c-264 3 -303 -4 -357 -65 -27 -31 -30 -42 -26 -75 6 -46 27 -72 82 -101 35 -19 60 -22 210 -25 97 -2 175 -8 183 -14 15 -13 16 -94 1 -135 -5 -17 -29 -46 -52 -64 -46 -36 -451 -390 -581 -506 l-81 -73 -395 3 c-294 1 -395 5 -395 14 0 6 43 46 95 88 98 79 120 101 120 120 0 6 -25 40 -55 75 -101 119 -226 353 -283 531 -80 247 -75 544 12 734 104 225 283 370 553 446 153 43 261 53 434 40z m3956 -801 c122 -26 213 -133 213 -250 0 -56 -43 -134 -92 -171 -51 -37 -121 -69 -152 -69 -12 0 -31 -6 -41 -14 l-20 -14 20 -23 c11 -12 46 -43 77 -68 200 -162 415 -347 411 -353 -2 -5 -141 -8 -309 -8 l-304 0 -82 73 c-45 39 -99 86 -119 102 -88 71 -350 309 -359 325 -14 26 -12 96 3 108 7 6 75 12 154 14 125 3 145 5 170 24 71 53 63 117 -20 159 l-51 25 -183 0 c-140 0 -183 -3 -183 -12 0 -7 -1 -193 -3 -413 l-2 -400 -295 0 -295 0 -3 473 c-1 271 2 480 7 490 8 16 59 17 708 15 458 -1 716 -6 750 -13z m1896 -19 c117 -47 221 -160 262 -286 30 -90 28 -278 -4 -358 -40 -101 -98 -177 -177 -229 -116 -78 -119 -78 -670 -78 -444 0 -487 1 -543 19 -113 35 -203 107 -264 212 -34 57 -67 185 -67 256 0 76 27 187 62 257 55 109 175 202 288 225 25 5 272 9 550 8 l505 -2 58 -24z m1882 -46 l0 -70 -228 -3 c-192 -2 -229 -5 -234 -17 -3 -9 -6 -194 -7 -413 l-1 -397 -295 0 -295 0 -5 410 -5 410 -214 3 c-138 1 -219 6 -228 13 -14 12 -19 120 -6 132 3 4 347 6 762 5 l756 -3 0 -70z m1490 60 c113 -30 207 -102 268 -206 38 -64 56 -131 63 -229 12 -166 -35 -297 -145 -403 -131 -127 -132 -127 -727 -127 -368 0 -491 3 -529 14 -163 43 -286 175 -331 356 -30 120 -2 299 64 404 35 57 112 131 163 157 87 44 118 47 629 48 408 1 495 -1 545 -14z m2170 -479 l0 -489 -280 1 c-153 1 -283 6 -287 10 -4 4 -9 190 -10 412 l-3 405 -170 3 c-219 4 -264 -8 -302 -81 -13 -25 -12 -31 4 -60 34 -58 72 -71 218 -75 71 -2 136 -9 143 -14 6 -6 12 -29 12 -51 0 -38 -6 -47 -67 -107 -38 -36 -166 -150 -287 -253 l-218 -187 -249 -2 c-137 -1 -272 -2 -301 -3 -29 0 -53 5 -55 11 -2 6 60 65 138 130 79 66 168 140 198 166 31 26 80 64 108 85 68 49 68 72 -2 88 -58 13 -83 25 -148 72 -87 64 -120 179 -77 268 34 69 94 122 165 145 57 18 96 19 765 17 l705 -2 0 -489z m-8526 -810 c18 -16 20 -30 20 -117 l-1 -99 -25 -20 c-24 -19 -38 -20 -192 -18 l-166 3 -3 124 c-2 85 1 128 9 138 10 12 42 14 175 11 141 -3 165 -5 183 -22z m318 -125 c-2 -104 -5 -126 -17 -126 -12 0 -15 22 -18 124 -3 140 0 160 23 141 12 -10 14 -37 12 -139z m293 98 c0 -46 34 -63 78 -40 9 5 40 17 67 26 28 9 78 25 112 37 58 19 101 19 89 -1 -3 -5 -65 -28 -137 -52 -152 -50 -174 -70 -97 -89 70 -17 232 -78 236 -88 7 -23 -20 -20 -99 9 -118 42 -179 61 -214 62 -26 2 -30 -2 -35 -33 -7 -43 -18 -62 -31 -55 -11 7 -12 258 -2 269 10 9 33 -23 33 -45z m985 31 c0 -12 -23 -15 -135 -17 -175 -3 -198 -7 -206 -38 -3 -13 -3 -29 1 -34 4 -7 58 -11 144 -11 76 0 141 -3 144 -7 4 -3 2 -12 -4 -19 -7 -9 -29 -11 -78 -7 -37 3 -98 2 -135 -1 l-66 -8 0 -39 0 -39 173 -2 c145 -3 172 -5 172 -18 0 -13 -28 -15 -193 -15 l-192 0 -4 128 -3 129 21 8 c11 5 98 8 191 7 144 -2 170 -4 170 -17z m1110 0 c0 -12 -26 -16 -158 -20 -186 -6 -187 -6 -187 -105 0 -92 4 -94 190 -97 130 -3 155 -5 155 -18 0 -13 -25 -15 -158 -18 l-158 -3 -35 35 c-32 32 -34 38 -34 104 0 74 19 114 64 132 11 5 89 8 171 7 126 -2 150 -4 150 -17z m627 -19 l30 -34 -4 -78 c-5 -119 -12 -123 -187 -127 l-138 -3 -31 26 -32 27 0 85 0 85 30 30 30 30 136 -4 136 -3 30 -34z m442 -52 c44 -24 62 -20 117 29 19 16 48 37 66 46 l32 16 11 -19 c13 -26 13 -217 -1 -242 -19 -36 -29 -9 -29 75 0 114 -9 121 -93 69 l-64 -40 -39 20 c-21 11 -50 28 -63 38 -48 38 -57 28 -59 -67 -2 -82 -13 -120 -33 -108 -5 3 -9 57 -9 121 0 94 3 120 16 135 l17 18 46 -35 c25 -20 64 -45 85 -56z m854 75 c18 -12 22 -25 22 -64 0 -75 -12 -80 -197 -80 l-153 0 0 -49 c0 -46 -18 -80 -33 -64 -11 11 -8 233 3 254 10 18 23 19 173 19 131 0 167 -3 185 -16z m617 1 c44 -18 55 -46 55 -136 0 -65 -2 -73 -29 -100 l-29 -29 -139 0 -140 0 -24 26 c-22 23 -24 34 -24 114 0 95 13 124 59 133 57 11 238 6 271 -8z m703 -129 l-3 -121 -24 -3 c-14 -2 -33 6 -50 21 -14 14 -39 32 -56 40 -16 8 -67 40 -113 71 -46 31 -87 56 -92 56 -13 0 -18 -28 -18 -109 0 -77 -13 -108 -30 -75 -5 11 -10 70 -11 132 -1 87 2 114 13 118 16 6 46 -10 191 -105 141 -92 149 -91 153 14 3 99 7 112 27 95 13 -11 15 -36 13 -134z m645 137 c4 -3 2 -12 -4 -20 -9 -10 -49 -13 -164 -13 -85 0 -160 -3 -169 -6 -10 -4 -16 -18 -16 -40 l0 -33 143 -3 c118 -3 142 -6 142 -18 0 -12 -20 -15 -110 -16 -60 -1 -125 -2 -143 -3 l-33 -1 3 -37 3 -38 170 -5 c142 -4 170 -7 170 -20 0 -13 -28 -15 -179 -18 -123 -2 -183 1 -192 9 -18 15 -20 239 -2 257 13 13 369 18 381 5z m466 -121 c68 -46 128 -79 132 -75 4 4 9 49 11 98 2 72 6 90 18 90 13 0 15 -21 15 -130 0 -114 -2 -130 -16 -129 -9 1 -82 45 -161 98 -80 53 -150 96 -156 96 -8 0 -12 -27 -12 -83 0 -55 -5 -90 -14 -102 l-13 -19 -13 24 c-9 17 -10 53 -5 134 4 61 9 115 12 119 5 9 34 -8 202 -121z m821 113 c17 -20 4 -24 -90 -27 l-75 -3 -3 -110 c-1 -60 -7 -114 -12 -119 -17 -17 -32 48 -29 132 4 99 2 102 -93 102 -64 0 -86 9 -73 30 4 6 76 10 184 10 146 0 181 -3 191 -15z m565 5 c5 -8 11 -7 20 0 19 16 60 9 60 -10 0 -18 -50 -26 -68 -12 -7 5 -21 6 -32 1 -11 -4 -60 -8 -110 -8 -49 -1 -100 -4 -112 -7 -25 -7 -37 -32 -27 -58 5 -14 26 -16 154 -16 134 0 150 -2 174 -21 33 -26 37 -88 6 -119 -19 -19 -31 -20 -188 -18 -156 3 -167 4 -167 22 0 18 9 19 161 17 175 -2 174 -3 174 55 0 28 -9 29 -185 25 -100 -3 -112 -1 -137 19 -42 32 -33 111 14 130 33 13 255 12 263 0z m-6439 -131 c10 -17 -13 -36 -27 -22 -12 12 -4 33 11 33 5 0 12 -5 16 -11z"/>
<path d="M6574 2011 c-31 -14 -47 -30 -65 -67 l-24 -49 1 -195 c1 -218 9 -255 73 -315 l32 -30 110 -3 c129 -5 185 11 223 61 41 53 48 108 44 320 -3 223 -7 233 -88 275 -38 19 -60 22 -155 22 -86 0 -119 -5 -151 -19z"/>
<path d="M10000 2015 c-76 -33 -99 -105 -100 -308 0 -186 17 -263 70 -311 47 -42 82 -50 203 -44 118 5 151 22 190 98 l28 55 -3 212 c-3 195 -5 214 -24 239 -46 62 -65 69 -202 71 -96 2 -136 -1 -162 -12z"/>
<path d="M4014 846 c-3 -8 -4 -25 -2 -38 l3 -23 138 -3 c138 -3 177 5 177 33 0 7 -7 21 -16 29 -22 22 -292 24 -300 2z"/>
<path d="M4014 725 c-4 -8 -3 -26 0 -40 l6 -25 128 1 c144 1 175 7 181 34 7 37 -25 45 -171 45 -114 0 -140 -3 -144 -15z"/>
<path d="M7373 848 c-21 -10 -23 -18 -23 -89 0 -67 3 -80 19 -89 28 -15 264 -13 279 2 7 7 12 41 12 84 0 99 -8 104 -155 103 -60 0 -120 -5 -132 -11z"/>
<path d="M8644 846 c-3 -8 -4 -25 -2 -38 l3 -23 147 -3 147 -3 7 26 c13 53 7 55 -151 55 -117 0 -147 -3 -151 -14z"/>
<path d="M9308 846 c-9 -8 -19 -31 -22 -50 -7 -39 9 -117 28 -128 6 -4 65 -8 132 -8 146 0 154 5 154 96 0 95 -6 98 -152 102 -103 3 -127 1 -140 -12z"/>
</g>
</g>
</svg>
