<?xml version="1.0" standalone="no"?>
<!DOCTYPE svg PUBLIC "-//W3C//DTD SVG 1.1//EN"
 "http://www.w3.org/Graphics/SVG/1.1/DTD/svg11.dtd">
<!-- Created with svg_stack (http://github.com/astraw/svg_stack) -->
<svg xmlns:sodipodi="http://sodipodi.sourceforge.net/DTD/sodipodi-0.dtd" xmlns="http://www.w3.org/2000/svg" version="1.1" width="1150.0" height="602.0">
  <defs/>
  <g id="id0:id0" transform="matrix(1.25,0,0,1.25,0.0,0.0)"><g transform="translate(0.000000,481.600000) scale(0.040000,-0.040000)" fill="#000000" stroke="none">
<path d="M16159 12006 c-3 -3 -43 -13 -90 -21 -112 -21 -225 -65 -329 -127 -104 -62 -144 -93 -237 -180 l-72 -68 -7294 0 c-6295 0 -7296 -2 -7306 -14 -7 -8 -11 -36 -9 -63 l3 -48 7235 -3 c4421 -1 7238 -6 7243 -11 6 -6 1 -23 -12 -44 -31 -51 -27 -96 10 -109 24 -9 51 14 103 86 25 35 52 66 61 70 9 3 320 6 692 6 537 0 679 -2 689 -12 6 -7 22 -58 35 -113 22 -92 24 -120 23 -340 -1 -207 -4 -262 -27 -400 -31 -195 -66 -386 -72 -396 -3 -4 -12 -43 -20 -88 -51 -267 -235 -883 -330 -1100 -18 -42 -36 -87 -40 -101 -10 -34 -165 -345 -200 -401 -88 -142 -129 -194 -219 -285 -125 -125 -215 -174 -330 -182 -128 -8 -204 48 -248 182 -21 64 -23 89 -22 241 0 139 4 187 22 264 53 221 179 487 332 701 119 165 325 367 486 475 90 60 252 141 344 170 63 20 126 50 134 64 11 17 -5 39 -35 50 -44 15 -147 -1 -274 -44 -100 -34 -275 -107 -300 -125 -5 -4 -46 -26 -90 -50 -148 -79 -353 -224 -499 -354 -146 -129 -329 -354 -419 -516 -105 -190 -173 -442 -182 -675 -3 -78 -8 -111 -17 -114 -7 -2 -47 -27 -88 -56 -189 -131 -312 -164 -411 -112 -91 48 -103 128 -44 301 39 117 159 411 218 536 127 268 266 638 288 765 12 73 -1 160 -32 211 -88 145 -303 213 -525 168 -290 -59 -651 -394 -973 -902 -19 -29 -38 -49 -42 -45 -10 10 15 84 101 313 123 327 201 550 198 567 -3 16 -21 18 -209 21 -186 2 -208 1 -227 -15 -23 -20 -26 -30 -317 -896 -112 -334 -207 -612 -210 -617 -3 -5 -19 -7 -36 -3 -27 5 -38 -1 -97 -59 -155 -149 -265 -235 -374 -292 -137 -72 -174 -81 -328 -80 -126 0 -139 2 -191 27 -74 36 -140 107 -169 183 -29 73 -39 252 -20 359 14 82 64 243 82 267 8 11 60 29 128 47 327 84 661 230 859 374 94 69 203 187 238 257 105 210 70 422 -80 485 -122 51 -325 20 -527 -80 -281 -139 -613 -441 -836 -760 -98 -142 -117 -173 -195 -330 -107 -215 -169 -436 -169 -601 0 -27 -6 -57 -12 -65 -44 -52 -187 -139 -287 -174 -24 -8 -77 -15 -119 -15 -91 0 -135 22 -163 84 -47 103 -20 206 305 1169 102 301 188 552 191 557 4 6 140 10 358 10 194 0 357 4 364 8 14 9 46 130 39 148 -4 10 -71 13 -343 14 -190 0 -341 4 -347 10 -11 11 11 82 162 515 62 182 116 339 119 351 7 30 -20 37 -81 19 -28 -8 -119 -31 -202 -50 -82 -20 -155 -40 -162 -44 -10 -6 -693 -2030 -840 -2491 -69 -217 -74 -257 -41 -346 54 -143 201 -224 384 -211 44 4 105 13 135 23 70 20 214 81 260 109 19 12 64 39 100 60 36 21 93 60 128 87 34 27 67 46 72 43 5 -3 20 -30 34 -60 43 -95 99 -151 201 -201 174 -85 371 -86 620 -1 163 55 365 166 505 276 90 71 251 215 261 233 6 10 14 16 18 13 12 -7 0 -54 -78 -304 -28 -90 -51 -175 -51 -188 l0 -24 198 3 197 3 51 145 c75 213 86 240 159 410 145 339 390 775 558 995 63 81 189 215 255 268 209 170 451 187 493 34 34 -124 -19 -277 -353 -1032 -63 -144 -158 -395 -174 -460 -40 -173 8 -286 150 -351 101 -46 283 -47 425 -3 142 45 399 185 497 271 37 33 39 32 67 -51 22 -64 83 -157 129 -196 46 -39 143 -83 213 -96 34 -6 98 -9 145 -6 325 22 695 274 1061 722 108 132 202 270 313 459 281 477 451 975 506 1481 12 107 12 395 0 470 -23 155 -42 240 -76 336 -83 242 -218 425 -403 544 -100 65 -170 93 -321 127 -48 12 -362 23 -371 14z m305 -130 c83 -27 128 -51 194 -106 54 -44 126 -136 117 -150 -8 -13 -1171 -14 -1180 0 -9 15 162 145 253 190 131 67 230 89 398 89 123 1 151 -2 218 -23z m-4186 -1996 c35 -22 52 -54 52 -100 0 -41 -42 -153 -76 -202 -80 -116 -269 -266 -449 -356 -98 -49 -223 -88 -236 -75 -14 14 21 105 97 256 126 249 247 404 368 466 50 27 69 31 135 31 58 0 84 -5 109 -20z"/>
<path d="M22140 10210 c0 -5 5 -10 10 -10 6 0 10 5 10 10 0 6 -4 10 -10 10 -5 0 -10 -4 -10 -10z"/>
<path d="M21395 10176 c-144 -25 -365 -120 -480 -206 -98 -73 -172 -159 -215 -253 -59 -126 -73 -286 -36 -424 32 -121 83 -200 222 -343 136 -142 183 -205 243 -330 32 -66 36 -86 39 -167 4 -82 1 -98 -21 -147 -49 -107 -121 -174 -255 -241 -273 -135 -472 -76 -526 155 -14 59 -14 66 1 75 95 60 123 84 161 131 27 36 32 50 32 99 0 72 -19 112 -80 169 -70 66 -156 74 -255 25 -96 -48 -176 -168 -197 -293 -18 -113 14 -288 71 -379 97 -157 377 -247 630 -202 238 42 435 147 614 328 88 87 104 111 150 204 l51 106 0 106 c-1 85 -6 123 -28 195 -48 160 -166 364 -298 516 -186 215 -220 270 -226 366 -4 52 0 69 26 121 71 140 279 263 444 263 78 0 143 -27 197 -81 37 -36 75 -105 66 -119 -3 -6 -39 -25 -78 -43 -125 -58 -181 -126 -179 -217 2 -101 84 -216 174 -246 137 -45 315 41 373 180 9 21 19 75 22 120 14 201 -103 420 -265 497 -100 46 -237 59 -377 35z"/>
<path d="M22062 10178 c-16 -16 -15 -35 2 -41 25 -10 29 -75 7 -113 -19 -32 -19 -64 -1 -64 17 0 40 32 40 55 0 13 5 27 11 31 12 7 69 -43 69 -62 0 -43 55 -17 80 38 22 50 11 112 -26 146 -30 26 -46 28 -80 6 -23 -15 -26 -15 -43 0 -21 19 -42 21 -59 4z m182 -89 c7 -42 -7 -83 -27 -76 -7 2 -13 25 -13 51 -1 25 -7 53 -13 60 -10 11 -8 17 6 25 23 13 38 -6 47 -60z m-77 25 c2 -6 -5 -22 -16 -35 l-19 -24 -11 28 c-6 16 -8 33 -5 38 8 13 46 7 51 -7z"/>
<path d="M18295 10148 c-161 -39 -272 -88 -415 -184 -149 -100 -245 -181 -396 -337 -335 -345 -562 -741 -625 -1087 -23 -126 -24 -203 -5 -302 18 -92 37 -137 87 -204 111 -151 332 -214 591 -169 314 55 711 291 961 573 65 74 74 111 32 130 -24 11 -32 6 -133 -86 -220 -201 -315 -266 -458 -318 -71 -26 -92 -29 -204 -29 -152 0 -206 16 -280 82 -89 80 -120 168 -120 338 0 120 13 192 57 329 l29 90 44 17 c25 9 83 27 130 39 440 118 826 322 987 521 102 126 145 258 124 387 -18 114 -65 172 -164 206 -53 18 -177 20 -242 4z m-85 -268 c61 -43 64 -122 9 -234 -91 -187 -351 -387 -627 -481 -104 -36 -114 -30 -82 52 44 110 158 331 211 410 67 98 182 214 246 247 65 34 199 37 243 6z"/>
<path d="M20038 10144 c-113 -27 -244 -111 -354 -226 -100 -105 -260 -327 -328 -454 -10 -20 -22 -32 -27 -27 -8 8 36 142 86 263 14 36 41 106 59 155 18 50 43 118 56 151 13 34 20 68 17 77 -5 13 -37 15 -209 16 -184 2 -206 0 -220 -16 -9 -10 -38 -83 -63 -163 -140 -433 -575 -1760 -616 -1881 -16 -48 -26 -94 -23 -103 6 -15 28 -16 203 -14 l196 3 111 330 c110 329 182 517 287 755 76 172 162 344 202 405 18 27 49 77 70 110 94 150 210 265 314 313 46 21 63 24 136 20 56 -3 91 -10 110 -22 29 -19 29 -17 -5 -111 -30 -81 -24 -169 14 -224 38 -55 117 -95 186 -96 129 0 221 77 265 221 14 44 25 92 25 108 0 15 5 37 11 48 8 14 8 23 0 31 -6 6 -11 23 -11 37 0 43 -37 138 -70 180 -86 108 -257 155 -422 114z"/>
<path d="M22020 10100 c0 -11 5 -20 10 -20 6 0 10 9 10 20 0 11 -4 20 -10 20 -5 0 -10 -9 -10 -20z"/>
<path d="M22020 10056 c0 -9 5 -16 10 -16 6 0 10 4 10 9 0 6 -4 13 -10 16 -5 3 -10 -1 -10 -9z"/>
<path d="M22123 9964 c-25 -11 -12 -24 23 -24 24 0 34 4 32 13 -5 13 -35 19 -55 11z"/>
<path d="M2372 2208 c-18 -18 -15 -28 8 -28 13 0 20 7 20 20 0 23 -10 26 -28 8z"/>
<path d="M2520 2140 c0 -11 5 -20 10 -20 6 0 10 9 10 20 0 11 -4 20 -10 20 -5 0 -10 -9 -10 -20z"/>
<path d="M2480 2050 c0 -5 5 -10 10 -10 6 0 10 5 10 10 0 6 -4 10 -10 10 -5 0 -10 -4 -10 -10z"/>
<path d="M2620 1770 c0 -5 5 -10 10 -10 6 0 10 5 10 10 0 6 -4 10 -10 10 -5 0 -10 -4 -10 -10z"/>
</g>
</g>
  <g id="id1:id1" transform="matrix(1.25,0,0,1.25,0.0,0.0)"><g transform="translate(0.000000,481.600000) scale(0.040000,-0.040000)" fill="#005ea0" stroke="none">
<path d="M1913 5423 c-23 -9 -14 -20 26 -36 21 -9 41 -22 44 -30 3 -7 45 -36 93 -65 63 -36 128 -88 223 -176 73 -70 141 -126 151 -126 25 0 92 79 88 104 -4 27 -199 174 -300 226 -89 47 -179 80 -217 80 -14 0 -35 7 -45 15 -20 15 -40 18 -63 8z"/>
<path d="M3913 5423 c-23 -9 -14 -20 27 -37 22 -9 40 -20 40 -25 0 -5 34 -28 76 -51 115 -63 187 -121 317 -254 252 -258 382 -535 443 -943 25 -170 16 -455 -20 -622 -15 -69 -29 -127 -31 -131 -2 -3 -13 -38 -23 -76 -28 -98 -84 -249 -125 -335 -19 -41 -38 -85 -42 -99 -4 -14 -16 -36 -26 -49 -11 -13 -19 -32 -19 -41 0 -10 -6 -23 -14 -29 -8 -7 -17 -24 -21 -38 -3 -15 -15 -38 -26 -51 -10 -14 -19 -29 -19 -34 0 -4 -21 -44 -47 -88 -27 -44 -55 -92 -63 -107 -123 -225 -424 -637 -676 -923 -166 -189 -479 -489 -612 -587 -31 -23 -73 -55 -93 -72 -50 -42 -161 -116 -232 -155 -32 -17 -84 -44 -114 -61 -93 -50 -93 -76 1 -123 40 -21 46 -21 84 -8 68 24 250 121 352 187 275 178 586 459 890 803 323 365 603 779 826 1221 98 194 134 278 187 435 108 321 134 480 124 748 -9 225 -35 366 -109 592 -91 280 -309 577 -544 742 -104 73 -278 160 -385 192 -87 26 -104 29 -126 19z"/>
<path d="M1600 5182 c0 -14 12 -25 43 -37 23 -9 53 -27 67 -39 14 -12 38 -31 54 -41 89 -55 253 -209 325 -305 33 -43 79 -64 125 -56 49 9 67 29 57 64 -16 52 -62 147 -84 171 -30 32 -205 147 -264 172 -77 33 -216 76 -272 84 -47 6 -51 5 -51 -13z"/>
<path d="M3667 5164 c-14 -14 -6 -24 56 -65 213 -145 448 -431 502 -613 28 -94 56 -144 84 -151 14 -4 38 -18 54 -33 22 -21 27 -34 27 -73 0 -43 -4 -51 -42 -83 l-42 -36 -8 -78 c-9 -91 -2 -154 23 -203 26 -53 45 -64 108 -63 96 0 104 5 140 84 29 66 31 77 31 193 0 89 -6 142 -20 197 -11 41 -20 87 -20 101 0 30 -41 151 -78 229 -30 64 -105 185 -122 195 -6 4 -23 24 -38 44 -55 76 -281 251 -323 251 -8 0 -27 8 -44 18 -70 43 -271 103 -288 86z"/>
<path d="M4300 4270 c0 -5 5 -10 10 -10 6 0 10 5 10 10 0 6 -4 10 -10 10 -5 0 -10 -4 -10 -10z"/>
<path d="M8595 3303 c-117 -5 -368 -38 -490 -64 -291 -63 -686 -178 -794 -233 -74 -38 -140 -102 -233 -226 -85 -114 -204 -334 -213 -396 -8 -49 6 -88 40 -110 46 -30 70 -25 370 79 72 25 170 52 219 62 155 29 219 74 182 129 -9 14 -16 28 -16 31 0 16 341 136 515 181 288 75 473 99 626 83 114 -11 173 -30 221 -69 51 -42 72 -91 58 -135 -28 -84 -123 -171 -270 -245 -86 -44 -318 -124 -400 -139 -25 -5 -79 -16 -120 -25 -41 -9 -80 -14 -87 -12 -9 4 26 58 105 163 66 87 134 186 153 219 29 54 32 64 20 78 -16 19 -65 15 -161 -11 -161 -45 -268 -129 -560 -440 l-105 -112 -55 -6 c-109 -13 -297 -45 -351 -61 -66 -19 -133 -57 -154 -86 -36 -52 -6 -141 57 -171 44 -21 144 -47 180 -47 15 0 29 -4 33 -10 3 -5 -46 -87 -108 -182 -208 -315 -247 -396 -247 -512 0 -73 30 -192 59 -240 57 -91 186 -173 317 -201 135 -29 398 -12 634 39 91 20 330 106 420 151 248 124 470 337 531 512 90 255 -159 435 -751 543 -63 11 -137 25 -165 30 -27 5 -67 12 -87 15 -21 3 -40 10 -43 15 -11 18 73 49 201 75 445 89 783 206 982 340 106 71 215 188 257 277 112 235 44 478 -166 601 -131 77 -373 121 -604 110z m-495 -1662 c146 -25 189 -35 287 -66 84 -26 167 -80 178 -115 40 -127 -367 -371 -688 -412 -181 -23 -374 37 -426 131 -22 41 -23 48 -12 89 15 58 41 96 182 266 l114 139 125 -6 c69 -4 177 -15 240 -26z"/>
<path d="M17085 3299 c-193 -20 -460 -83 -640 -152 -114 -44 -318 -145 -398 -199 -87 -58 -194 -164 -224 -223 -75 -147 -127 -488 -93 -614 13 -50 94 -143 150 -171 46 -23 195 -59 400 -95 89 -15 143 -27 365 -77 218 -49 456 -140 523 -201 36 -33 29 -68 -25 -119 -167 -155 -419 -248 -823 -304 -111 -15 -606 -31 -635 -20 -14 5 -12 11 15 38 66 66 75 110 25 122 -27 7 -178 -40 -257 -80 -60 -30 -124 -113 -186 -240 -39 -82 -47 -107 -47 -156 0 -53 3 -60 40 -98 56 -57 87 -74 190 -101 84 -22 108 -24 360 -23 200 0 305 4 405 18 236 30 472 80 619 131 97 33 327 151 392 201 183 141 289 342 289 549 0 62 -35 167 -74 223 -88 128 -283 241 -501 291 -22 5 -92 23 -155 40 -63 17 -158 42 -210 56 -160 43 -403 124 -444 148 -61 35 -65 49 -30 99 64 92 292 230 493 298 212 72 661 146 694 114 3 -3 -23 -33 -59 -66 -86 -81 -124 -131 -130 -170 -4 -29 0 -36 32 -61 l37 -27 46 26 c25 15 75 49 111 76 36 27 101 67 145 88 44 21 114 54 155 73 166 79 220 162 235 364 8 99 -5 150 -47 176 -29 19 -143 45 -278 63 -113 15 -336 16 -465 3z"/>
<path d="M5574 3226 l-19 -14 -3 -359 c-3 -388 0 -408 48 -408 14 0 29 8 35 20 23 44 24 45 76 9 48 -32 56 -34 138 -34 109 0 166 25 234 99 104 117 104 305 0 421 -54 60 -112 89 -194 96 -79 8 -134 -6 -184 -46 -21 -17 -42 -27 -46 -23 -4 5 -9 56 -11 114 -4 131 -23 162 -74 125z m362 -282 c112 -53 152 -198 86 -306 -40 -65 -108 -108 -170 -108 -45 0 -127 46 -154 88 -52 78 -57 144 -17 222 18 37 83 104 109 113 32 11 113 6 146 -9z"/>
<path d="M14641 3149 c-209 -84 -734 -579 -1063 -1004 -151 -195 -347 -511 -425 -685 -34 -78 -52 -105 -100 -148 -182 -168 -409 -314 -555 -356 -104 -30 -238 -15 -291 32 -50 44 -77 94 -77 144 0 74 35 133 122 205 40 33 117 97 171 142 54 45 101 79 106 77 5 -3 11 -18 14 -34 7 -36 41 -79 79 -98 51 -26 106 2 208 107 176 181 254 396 187 513 -31 55 -63 75 -132 82 -53 6 -75 2 -170 -30 -209 -70 -442 -217 -630 -398 -97 -94 -130 -132 -160 -189 -39 -74 -65 -154 -65 -201 0 -38 -34 -73 -163 -171 -181 -138 -287 -176 -351 -126 -35 28 -36 90 -1 160 28 54 111 181 158 242 51 65 117 190 117 221 0 46 -21 103 -46 127 l-23 22 44 43 c49 47 53 65 30 122 -34 79 -109 132 -199 139 -180 15 -537 -121 -831 -315 -175 -115 -347 -286 -418 -415 -37 -66 -67 -104 -125 -158 -153 -140 -345 -249 -441 -249 -86 0 -163 96 -169 210 -5 92 12 166 51 217 18 23 84 99 147 170 411 457 613 797 673 1133 36 197 31 285 -18 328 -33 28 -58 28 -112 -1 -134 -70 -516 -503 -739 -838 -269 -405 -399 -1014 -290 -1356 29 -89 54 -125 127 -183 40 -31 58 -39 113 -45 174 -18 357 78 597 314 112 109 119 113 134 61 21 -68 80 -163 146 -234 76 -81 112 -106 153 -106 43 0 206 120 421 310 112 99 206 176 208 172 3 -4 -14 -61 -36 -127 -37 -108 -41 -130 -41 -220 -1 -127 16 -167 89 -208 41 -22 58 -27 95 -23 109 13 342 170 568 382 74 70 124 110 126 102 2 -7 12 -44 22 -83 26 -106 74 -192 137 -253 140 -132 305 -135 546 -12 142 73 231 139 383 281 l118 110 10 -26 c5 -14 10 -38 10 -53 0 -54 31 -186 57 -244 31 -69 53 -88 104 -88 53 0 89 34 145 138 47 87 133 212 146 212 4 0 46 -59 94 -130 156 -236 264 -320 412 -320 68 0 81 4 160 45 132 68 277 184 485 386 166 161 188 187 183 209 -3 14 -10 51 -16 83 -9 44 -15 57 -30 57 -10 0 -61 -37 -115 -82 -214 -182 -374 -296 -453 -324 l-50 -18 -56 17 c-65 21 -104 51 -131 102 l-20 36 25 19 c14 10 61 40 105 66 134 78 297 189 358 244 165 149 232 340 177 506 -26 77 -83 147 -134 164 -60 19 -152 -12 -283 -98 -195 -126 -468 -354 -751 -626 -84 -81 -127 -115 -134 -108 -20 20 -5 38 392 473 482 527 748 844 912 1084 96 140 118 185 125 250 6 61 -5 88 -50 115 -35 22 -59 24 -96 9z m-4690 -803 c-100 -205 -323 -528 -352 -511 -18 12 141 322 246 480 70 104 155 199 167 187 6 -6 -16 -63 -61 -156z m1279 -701 c-2 -14 -281 -313 -396 -425 -196 -189 -371 -309 -413 -283 -75 46 -31 225 83 338 111 110 326 234 568 329 159 62 161 62 158 41z m3107 -31 c16 -41 -82 -138 -302 -300 -22 -16 -64 -48 -93 -71 -29 -24 -59 -43 -67 -43 -16 0 -105 58 -105 69 0 9 93 98 155 147 208 167 390 254 412 198z"/>
<path d="M500 3077 c-70 -24 -77 -93 -25 -247 33 -96 57 -145 160 -335 51 -93 60 -108 126 -206 30 -46 67 -102 82 -124 54 -82 235 -321 269 -355 13 -14 46 -51 71 -83 56 -69 230 -237 246 -237 18 0 14 8 -44 91 -30 43 -55 82 -55 88 0 10 -47 87 -97 159 -18 26 -40 61 -49 77 -10 17 -39 63 -66 103 -26 41 -48 79 -48 85 0 7 -9 23 -20 37 -11 14 -20 30 -20 36 0 6 -6 17 -14 23 -12 10 -43 68 -166 307 -20 40 -51 109 -69 155 -17 46 -41 103 -52 125 -11 23 -26 68 -33 101 -18 90 -101 214 -143 212 -10 0 -34 -5 -53 -12z"/>
<path d="M6160 3035 c-9 -11 -5 -31 20 -97 66 -172 110 -286 145 -379 l37 -96 -36 -83 c-20 -46 -36 -87 -36 -91 0 -5 16 -11 36 -15 41 -7 84 8 84 30 0 9 18 57 39 108 51 122 107 258 135 333 13 33 35 86 50 118 14 32 26 61 26 66 0 5 9 28 20 52 18 41 18 45 3 57 -9 6 -29 12 -43 12 -50 0 -59 -16 -157 -275 -39 -104 -61 -141 -74 -128 -5 5 -30 65 -55 134 -94 254 -95 257 -118 263 -36 10 -63 7 -76 -9z"/>
<path d="M18647 2610 c-87 -22 -159 -85 -236 -207 -70 -110 -81 -120 -137 -127 -282 -33 -341 -75 -485 -334 -76 -136 -82 -151 -69 -172 7 -12 16 -13 55 -2 46 12 217 17 228 6 3 -3 -6 -27 -20 -52 -59 -108 -148 -216 -305 -374 -121 -121 -168 -175 -168 -191 0 -13 7 -47 15 -75 20 -67 37 -67 108 -2 55 50 76 53 57 8 -24 -57 -52 -200 -53 -273 -2 -101 16 -163 61 -216 88 -103 218 -104 411 -4 122 64 234 151 402 313 110 106 149 139 157 129 5 -6 20 -46 32 -87 31 -106 64 -165 129 -233 75 -80 123 -101 227 -101 156 2 319 80 454 218 40 41 73 66 86 66 12 0 61 7 110 15 100 17 210 65 266 114 20 17 38 28 41 24 2 -4 7 -40 11 -79 18 -193 97 -324 193 -324 42 0 82 20 135 68 38 34 69 74 203 257 125 170 358 430 376 419 6 -3 -5 -33 -25 -67 -19 -34 -51 -93 -71 -132 -124 -236 -139 -445 -39 -555 43 -47 88 -64 163 -58 138 11 282 117 564 415 53 57 99 98 102 93 3 -5 10 -42 15 -84 20 -155 85 -288 178 -361 224 -176 658 6 1040 435 119 133 115 126 107 215 -5 52 -12 78 -22 82 -17 7 -54 -21 -183 -132 -129 -112 -240 -189 -348 -243 -83 -41 -101 -46 -176 -50 -100 -5 -141 6 -190 54 l-37 36 3 76 c3 70 5 77 28 88 14 7 90 41 170 76 198 88 331 172 452 287 84 80 105 107 141 179 40 80 42 91 42 171 0 76 -3 90 -25 119 -34 46 -87 71 -180 84 -167 25 -398 -54 -575 -195 -146 -117 -283 -288 -335 -422 -20 -49 -42 -77 -120 -153 -178 -174 -344 -302 -392 -302 -9 0 -28 14 -43 32 -22 26 -26 39 -21 67 14 87 103 220 299 446 37 43 79 102 93 132 23 46 26 62 21 116 -13 140 -70 257 -126 257 -53 0 -288 -158 -517 -349 -97 -81 -389 -370 -416 -412 -28 -43 -119 -139 -133 -139 -51 0 -14 64 147 250 155 180 246 310 255 363 7 47 -11 91 -45 107 -15 7 -71 15 -124 18 -90 4 -100 3 -140 -21 -79 -46 -223 -230 -304 -389 -31 -61 -69 -115 -108 -156 -159 -166 -330 -238 -265 -110 12 24 38 88 57 143 29 84 35 118 39 213 6 130 -8 186 -59 225 l-30 24 26 38 c47 68 26 139 -56 192 -39 25 -51 28 -128 27 -234 -3 -514 -139 -722 -351 -139 -141 -189 -230 -247 -438 -11 -42 -40 -67 -305 -269 -157 -120 -252 -151 -301 -101 -22 21 -25 33 -25 93 0 102 32 211 104 357 68 138 155 286 187 321 17 18 35 22 122 27 58 3 123 12 150 22 70 25 145 98 193 191 63 120 127 271 121 287 -4 10 -30 16 -85 20 -45 3 -85 8 -91 11 -6 4 7 32 32 69 72 105 85 193 35 230 -31 23 -105 31 -161 17z m3860 -766 c22 -58 -217 -298 -379 -380 -40 -20 -49 -22 -54 -10 -14 37 101 204 203 294 105 93 214 138 230 96z m-3113 -262 c-80 -168 -110 -335 -79 -448 l18 -66 -43 -43 c-63 -64 -131 -95 -211 -95 -69 0 -89 12 -118 67 -45 87 37 314 154 429 61 60 283 216 296 209 3 -3 -4 -27 -17 -53z"/>
</g>
</g>
  <g id="id2:id2" transform="matrix(1.25,0,0,1.25,0.0,0.0)"><g transform="translate(0.000000,481.600000) scale(0.040000,-0.040000)" fill="#ffffff" stroke="none">
<path d="M0 6020 l0 -6020 11500 0 11500 0 0 6020 0 6020 -11500 0 -11500 0 0 -6020z m16535 5952 c167 -35 304 -102 422 -205 116 -102 237 -303 291 -485 59 -195 67 -262 66 -547 0 -158 -5 -285 -13 -325 -6 -36 -16 -94 -22 -130 -26 -178 -117 -484 -213 -722 -111 -274 -240 -508 -456 -827 -103 -153 -373 -450 -490 -539 -30 -23 -87 -67 -127 -97 -93 -71 -255 -156 -363 -190 -121 -39 -272 -46 -367 -16 -107 33 -165 72 -216 143 -46 67 -70 117 -87 185 -11 45 -31 66 -39 42 -20 -62 -323 -244 -503 -303 -171 -56 -336 -54 -455 4 -100 49 -133 104 -133 220 0 92 56 267 165 515 288 654 366 851 381 967 22 161 -66 250 -233 235 -288 -27 -641 -436 -988 -1142 -130 -266 -210 -457 -298 -715 l-32 -95 -180 0 -180 0 2 30 c1 17 14 66 28 110 14 44 46 148 71 230 47 155 274 837 466 1405 61 179 118 333 126 343 13 15 37 17 209 17 154 0 195 -3 199 -14 4 -11 -68 -218 -219 -621 -16 -44 -40 -109 -52 -145 -13 -36 -37 -101 -54 -145 -34 -88 -40 -135 -16 -135 8 0 15 7 15 16 0 41 244 415 376 574 237 289 480 473 682 515 298 64 553 -75 552 -299 -1 -107 -83 -342 -260 -746 -285 -646 -327 -783 -267 -871 31 -47 110 -88 168 -89 83 0 198 49 333 144 44 31 87 56 95 56 14 0 16 18 17 118 4 403 173 770 509 1108 234 236 616 481 911 585 180 63 292 82 328 56 18 -13 17 -15 -10 -34 -16 -12 -49 -26 -73 -33 -119 -32 -308 -130 -438 -227 -140 -105 -348 -318 -438 -449 -227 -331 -338 -625 -352 -930 -11 -244 42 -385 169 -450 82 -42 200 -25 318 46 88 52 234 203 314 324 67 101 231 414 259 496 9 25 31 81 50 125 38 90 174 497 207 620 43 160 98 381 109 440 7 33 20 96 31 140 23 100 43 209 72 400 19 124 23 189 23 380 -1 206 -3 238 -23 309 -12 44 -22 88 -22 98 0 10 -9 27 -20 38 l-20 20 -683 0 c-772 0 -699 8 -769 -88 -52 -73 -67 -85 -85 -71 -18 16 -16 46 6 83 10 17 22 41 26 53 l6 23 -7248 2 -7248 3 0 40 0 40 7297 5 7297 5 53 51 c183 175 379 285 570 318 43 8 82 17 86 20 10 10 330 0 387 -12z m-5381 -990 c2 -4 -38 -131 -90 -282 -180 -525 -206 -605 -196 -615 3 -3 160 -5 349 -5 266 0 345 -3 348 -12 3 -7 -1 -35 -8 -63 l-13 -50 -364 -5 c-308 -4 -364 -7 -372 -20 -5 -8 -49 -136 -97 -285 -49 -148 -139 -416 -199 -595 -195 -581 -236 -734 -213 -819 15 -59 38 -90 87 -118 46 -27 143 -31 215 -9 108 33 311 159 323 201 3 11 6 45 6 75 0 115 50 329 107 458 133 304 304 553 548 798 249 250 450 387 690 470 70 25 95 28 205 28 115 1 128 -1 169 -24 67 -38 104 -110 109 -214 10 -197 -112 -377 -368 -541 -84 -54 -278 -153 -355 -180 -27 -10 -54 -22 -60 -26 -15 -10 -247 -84 -360 -114 -55 -14 -109 -32 -121 -40 -26 -17 -76 -157 -98 -274 -42 -219 -6 -399 99 -504 152 -150 439 -143 697 19 58 36 189 146 290 242 76 74 109 87 116 49 5 -25 -122 -163 -238 -260 -415 -345 -877 -482 -1175 -346 -113 51 -184 132 -228 262 -9 26 -35 21 -81 -16 -148 -121 -401 -252 -545 -283 -213 -45 -385 17 -453 163 -32 68 -40 147 -21 199 6 16 41 124 78 239 135 423 794 2388 804 2398 4 4 82 26 172 48 90 21 175 43 189 48 33 12 48 13 54 3z m-6107 -761 c38 -18 42 -23 52 -73 6 -29 15 -147 21 -263 11 -224 50 -964 75 -1409 16 -291 23 -322 81 -377 22 -20 35 -24 89 -23 35 0 84 9 109 18 59 23 117 89 139 158 26 83 129 428 142 478 7 25 45 151 85 280 39 129 78 256 86 283 8 26 21 71 30 100 8 28 22 77 30 107 8 30 31 102 50 160 45 136 60 223 48 275 -12 51 -65 82 -159 94 -82 9 -114 35 -99 78 5 17 24 35 47 46 35 18 51 18 295 6 204 -10 343 -10 658 0 428 13 532 8 674 -30 123 -33 208 -79 276 -151 74 -77 104 -147 111 -264 6 -90 -14 -174 -65 -267 -30 -55 -149 -173 -225 -221 -104 -66 -256 -134 -387 -171 -101 -28 -100 -26 -37 -151 31 -60 59 -122 63 -138 3 -15 30 -85 59 -155 29 -69 62 -148 74 -176 11 -27 36 -90 55 -138 68 -172 115 -219 218 -221 39 -1 52 4 78 29 58 55 63 70 220 585 16 52 45 151 65 220 20 69 47 159 60 200 14 41 37 122 54 180 16 58 47 164 69 235 72 236 92 315 92 374 0 43 -5 62 -17 73 -29 25 -75 45 -123 53 -69 11 -92 29 -88 72 2 24 11 42 28 55 l25 18 256 -12 c196 -9 402 -9 879 0 548 10 626 10 651 -4 16 -8 29 -22 29 -32 0 -16 -69 -227 -125 -382 -28 -78 -66 -130 -95 -130 -30 0 -50 35 -65 111 -30 157 -63 209 -162 259 l-48 25 -219 3 c-120 2 -229 1 -241 -2 -28 -7 -41 -39 -109 -266 -124 -415 -148 -496 -157 -513 -18 -32 31 -40 216 -34 184 6 249 20 338 74 41 24 103 103 137 173 20 40 52 70 75 70 26 0 75 -49 75 -75 0 -10 -26 -95 -59 -189 -57 -165 -114 -382 -126 -478 -9 -68 -42 -112 -87 -116 -56 -5 -68 20 -68 146 0 114 -11 152 -56 193 -47 43 -83 49 -290 49 l-194 0 -14 -22 c-8 -13 -40 -108 -71 -213 -31 -104 -72 -242 -92 -305 -81 -262 -90 -335 -45 -380 46 -45 95 -53 297 -47 149 4 197 10 279 31 179 46 300 136 375 277 44 81 72 109 111 109 34 0 70 -30 70 -58 0 -10 -16 -74 -35 -143 -19 -68 -48 -173 -64 -234 -18 -66 -37 -115 -47 -122 -22 -16 -155 -16 -879 -3 -421 9 -577 8 -710 -2 -199 -14 -311 -14 -406 2 -53 9 -115 9 -270 -1 l-200 -12 -24 24 c-16 16 -47 88 -89 209 -36 102 -83 235 -106 295 -23 61 -60 164 -83 230 -32 92 -51 128 -79 159 l-38 39 -77 -7 c-42 -3 -80 -9 -84 -14 -4 -4 -37 -108 -74 -232 -37 -124 -75 -251 -86 -282 -21 -64 -25 -154 -8 -191 15 -32 70 -62 142 -77 74 -15 113 -46 103 -84 -3 -14 -15 -35 -26 -46 -24 -24 -103 -26 -410 -10 -144 8 -252 7 -410 -2 -270 -15 -286 -15 -505 0 -143 10 -233 10 -437 0 -289 -13 -308 -11 -308 42 0 48 36 77 106 84 71 8 123 23 147 44 9 9 25 41 34 71 13 47 15 85 9 241 -4 102 -10 203 -14 225 l-7 40 -337 3 -337 2 -82 -117 c-98 -141 -189 -304 -196 -354 -7 -48 19 -97 60 -114 18 -7 68 -20 112 -30 44 -9 88 -24 98 -33 23 -21 22 -67 -4 -93 l-22 -22 -166 9 c-209 11 -286 11 -486 0 l-160 -9 -50 26 -50 26 -76 -19 c-186 -46 -547 -71 -740 -52 -165 17 -309 55 -428 113 -86 42 -118 65 -192 136 -99 96 -134 145 -183 259 -80 184 -86 401 -18 639 58 206 153 358 341 545 106 106 165 155 266 222 428 284 891 409 1400 378 273 -16 305 -25 305 -86 0 -13 -25 -123 -55 -246 -52 -211 -57 -225 -90 -255 -40 -38 -71 -42 -108 -13 -33 26 -44 81 -52 260 -7 161 -15 183 -70 206 -71 29 -282 4 -445 -54 -190 -68 -384 -189 -531 -333 -196 -191 -316 -402 -391 -684 -31 -119 -31 -339 0 -448 38 -131 100 -242 179 -318 140 -135 270 -189 459 -189 151 0 265 50 381 167 86 87 124 139 187 261 43 80 94 132 131 132 13 0 36 -10 51 -23 l27 -23 -27 -105 c-15 -57 -38 -138 -51 -179 -31 -99 -40 -166 -25 -175 26 -16 155 103 227 212 44 65 119 172 176 249 89 123 270 372 317 438 25 35 72 101 105 146 62 86 122 169 203 281 49 68 161 223 222 307 19 27 60 83 90 126 30 42 78 109 107 149 29 40 72 102 96 138 69 102 150 132 244 90z m17058 -50 c3 -5 1 -13 -5 -16 -15 -9 -43 3 -35 15 8 13 32 13 40 1z m84 -17 c-6 -7 -15 -11 -21 -8 -5 3 -4 12 3 20 6 7 15 11 21 8 5 -3 4 -12 -3 -20z m-466 -12 c120 -44 201 -127 259 -268 30 -73 32 -87 33 -194 0 -97 -3 -122 -21 -161 -78 -168 -325 -227 -433 -103 -43 49 -69 103 -76 160 -5 40 -2 57 17 94 28 52 105 109 185 136 30 10 55 26 58 35 4 10 -3 36 -15 58 -78 154 -231 208 -409 144 -147 -52 -272 -152 -322 -256 -63 -135 -33 -218 161 -443 185 -215 299 -409 347 -593 20 -80 24 -112 20 -187 -5 -84 -9 -99 -54 -190 -40 -82 -62 -112 -138 -188 -240 -240 -551 -363 -832 -328 -105 13 -171 30 -224 58 -161 81 -233 213 -233 429 0 98 3 117 28 177 53 128 154 208 262 208 29 0 65 -5 81 -11 35 -13 80 -55 100 -93 20 -38 19 -145 -1 -184 -19 -37 -76 -85 -133 -113 -24 -11 -45 -25 -48 -29 -3 -5 4 -43 15 -86 55 -206 200 -281 415 -216 119 36 226 95 300 167 85 81 118 151 123 257 5 88 -10 144 -65 250 -53 101 -86 144 -223 285 -153 157 -202 243 -228 397 -48 284 81 521 366 673 95 51 215 98 297 117 39 8 79 18 90 20 11 3 70 4 130 2 82 -2 125 -8 168 -24z m-3180 -18 c57 -19 123 -90 134 -143 5 -20 8 -74 7 -121 0 -68 -6 -98 -26 -147 -106 -255 -472 -490 -997 -644 -75 -22 -159 -46 -187 -54 -28 -8 -58 -23 -66 -33 -19 -23 -75 -201 -88 -282 -23 -150 -8 -307 40 -400 68 -134 214 -201 408 -187 186 13 354 100 558 286 171 158 175 161 195 150 18 -9 18 -12 4 -38 -21 -42 -117 -142 -220 -231 -192 -165 -445 -307 -655 -370 -201 -59 -421 -52 -555 18 -86 45 -130 89 -173 169 -192 362 85 1051 639 1588 114 111 147 138 288 238 151 106 310 180 443 206 74 15 201 12 251 -5z m1779 -12 c26 -11 70 -42 97 -67 94 -88 121 -246 70 -411 -25 -81 -83 -160 -139 -189 -106 -55 -261 -4 -299 98 -19 48 -13 132 14 202 13 36 22 71 19 79 -10 25 -79 49 -156 54 -110 7 -178 -26 -297 -146 -229 -228 -470 -720 -720 -1466 -55 -164 -105 -304 -112 -312 -9 -11 -48 -14 -185 -14 -95 0 -175 4 -178 9 -3 4 50 177 118 382 67 206 168 514 224 684 56 171 157 479 224 685 l123 375 198 3 c161 2 198 0 203 -12 3 -7 -15 -67 -41 -132 -25 -66 -66 -173 -91 -239 -25 -66 -50 -128 -55 -137 -5 -10 -9 -24 -9 -31 0 -8 -18 -58 -40 -112 -43 -106 -48 -135 -25 -135 8 0 15 4 15 9 0 19 115 214 203 346 65 96 202 268 244 306 102 93 218 162 308 186 75 19 228 11 287 -15z m1868 -51 c0 -25 -11 -33 -26 -20 -10 8 -11 16 -3 30 12 22 29 16 29 -10z m-106 -82 c-3 -5 -10 -7 -15 -3 -5 3 -7 10 -3 15 3 5 10 7 15 3 5 -3 7 -10 3 -15z m140 0 c-3 -5 -10 -7 -15 -3 -5 3 -7 10 -3 15 3 5 10 7 15 3 5 -3 7 -10 3 -15z m-20604 -4514 c188 -26 317 -51 410 -80 162 -51 303 -131 447 -251 28 -24 54 -44 59 -44 4 0 43 35 88 78 242 231 445 303 845 301 181 -1 436 -40 590 -91 114 -37 288 -128 384 -201 220 -166 411 -430 502 -696 76 -221 104 -369 112 -602 10 -279 -16 -436 -122 -746 -50 -148 -91 -245 -179 -420 -128 -253 -181 -346 -330 -573 -109 -166 -321 -451 -414 -558 -275 -315 -307 -348 -502 -526 -256 -233 -487 -397 -718 -509 l-124 -60 -69 34 c-63 30 -72 32 -102 21 -56 -20 -83 -14 -179 39 -406 223 -859 623 -1321 1164 -157 184 -382 500 -520 730 -213 356 -370 752 -412 1044 -16 104 -17 463 -2 566 3 22 8 66 12 97 8 80 58 277 94 374 102 277 301 544 518 697 156 109 354 193 523 220 62 10 315 5 410 -8z m11020 -400 c130 -40 266 -137 350 -249 51 -70 102 -161 93 -169 -3 -4 -77 -7 -164 -7 l-158 0 -60 55 c-88 82 -159 109 -286 109 -92 1 -106 -2 -168 -31 -129 -61 -225 -179 -262 -320 -19 -74 -19 -131 1 -212 25 -99 65 -169 133 -234 104 -100 232 -141 363 -119 96 17 148 42 211 101 l54 51 157 0 c130 0 158 -3 162 -15 10 -26 -76 -156 -153 -232 -96 -95 -215 -155 -352 -178 -118 -19 -166 -19 -276 0 -122 22 -216 63 -312 140 -130 102 -202 210 -255 375 -20 65 -23 95 -22 225 0 135 3 158 27 230 79 239 276 424 515 485 64 17 100 19 212 16 85 -3 155 -11 190 -21z m-6809 -295 c3 -157 6 -286 7 -287 1 -2 105 -3 232 -3 l230 0 2 288 3 287 130 0 130 0 0 -710 0 -710 -130 0 -130 0 -3 279 c-1 186 -6 284 -13 293 -9 10 -60 13 -229 13 l-218 0 -6 -22 c-3 -13 -6 -142 -6 -288 0 -154 -4 -270 -9 -275 -6 -6 -63 -8 -138 -5 l-128 5 -3 700 c-1 385 0 706 3 713 3 9 37 12 137 10 l133 -3 6 -285z m1657 -55 c329 -104 482 -477 330 -804 -43 -92 -151 -201 -242 -246 -193 -95 -418 -81 -584 35 -87 61 -142 128 -195 238 l-40 83 -5 123 c-4 96 -1 135 13 182 55 192 194 334 385 395 87 28 239 25 338 -6z m3077 10 c168 -44 343 -205 391 -359 20 -66 35 -237 22 -253 -8 -10 -107 -13 -434 -13 l-424 0 0 -21 c0 -84 77 -185 168 -220 86 -34 190 -32 263 4 31 15 73 45 95 66 l39 40 123 2 c68 1 126 -1 129 -5 15 -14 -63 -143 -126 -206 -234 -237 -645 -204 -838 67 -169 237 -146 549 54 750 72 71 175 132 258 152 64 15 215 13 280 -4z m3365 -16 c33 -12 80 -39 104 -60 24 -22 49 -39 54 -39 6 0 12 21 14 48 l3 47 115 0 115 0 0 -535 0 -535 -115 0 -115 0 -1 33 c-1 46 -17 59 -46 38 -13 -9 -38 -28 -57 -41 -54 -40 -123 -55 -244 -55 -89 0 -122 4 -184 25 -182 61 -315 205 -358 387 -18 79 -19 237 -1 303 25 96 90 207 155 268 73 67 183 124 266 137 93 14 225 5 295 -21z m1883 16 c116 -30 230 -105 305 -201 79 -100 111 -194 115 -335 l2 -84 -432 -3 -433 -2 0 -29 c0 -15 14 -55 31 -89 38 -77 107 -124 206 -142 111 -19 215 13 288 89 l39 41 122 0 c72 0 125 -4 129 -10 12 -20 -50 -125 -114 -192 -137 -146 -359 -202 -564 -141 -173 50 -307 188 -373 383 -28 83 -26 253 4 341 26 77 80 170 125 218 51 53 143 111 226 142 63 23 92 28 171 29 54 0 121 -6 153 -15z m-7074 -14 c75 -23 151 -71 186 -117 14 -18 32 -34 39 -34 7 0 32 22 55 50 29 34 63 60 116 86 l74 36 104 -4 c96 -3 111 -6 173 -38 54 -28 79 -48 114 -95 83 -110 85 -123 85 -570 l0 -390 -110 0 -110 0 -6 305 c-8 378 -18 435 -89 505 -34 33 -45 38 -104 42 -134 11 -202 -35 -246 -165 -21 -62 -23 -91 -29 -377 l-6 -310 -115 0 -115 0 -5 335 c-5 317 -7 338 -28 391 -13 32 -34 68 -47 82 -35 34 -102 51 -180 45 -99 -8 -154 -58 -192 -173 -13 -40 -17 -112 -22 -365 l-6 -315 -110 0 -110 0 0 535 0 535 110 0 110 0 3 -47 c2 -27 8 -48 14 -48 5 0 30 18 55 40 66 58 129 79 240 79 63 1 110 -5 152 -18z m6329 -90 c3 -106 -4 -131 -37 -131 -42 0 -125 -34 -156 -63 -66 -64 -69 -84 -75 -457 l-5 -335 -115 0 -115 0 0 535 0 535 110 0 109 0 9 -42 c9 -49 24 -54 58 -17 31 33 71 54 134 70 81 20 80 22 83 -95z m-6113 -1363 c205 -40 328 -117 399 -248 l41 -75 0 -120 0 -120 -42 -88 c-71 -148 -194 -257 -411 -366 -179 -90 -491 -185 -787 -241 -184 -35 -278 -74 -257 -107 9 -13 63 -28 162 -43 306 -47 547 -112 691 -186 245 -126 284 -291 120 -512 -212 -286 -601 -476 -1108 -543 -138 -18 -361 -7 -443 21 -96 34 -209 120 -243 187 -42 80 -60 242 -36 326 14 53 99 198 240 411 64 98 115 184 113 191 -3 7 -32 15 -72 18 -143 11 -222 60 -222 136 0 63 76 116 203 140 136 26 167 31 252 41 51 6 101 19 116 28 14 9 74 71 133 137 185 207 301 306 427 365 71 33 218 65 232 51 5 -5 -6 -35 -28 -72 -40 -68 -188 -272 -241 -332 -19 -20 -34 -41 -34 -46 0 -18 56 -21 125 -6 39 8 93 20 120 25 85 17 326 101 410 143 140 70 244 162 274 243 24 65 14 99 -48 157 -153 143 -554 114 -1141 -84 -183 -61 -260 -94 -260 -109 0 -7 8 -25 17 -40 14 -25 15 -31 2 -46 -21 -25 -68 -42 -180 -65 -55 -11 -157 -40 -227 -65 -70 -26 -165 -57 -212 -71 -79 -23 -87 -24 -117 -9 -35 17 -51 63 -39 112 9 34 110 237 139 278 140 201 203 268 294 314 112 56 492 169 748 223 143 31 403 67 520 72 111 6 269 -5 370 -25z m8605 18 c181 -25 246 -43 276 -79 l27 -32 -7 -100 c-13 -198 -63 -279 -219 -354 -45 -21 -116 -55 -157 -74 -41 -20 -107 -60 -146 -90 -39 -29 -90 -63 -114 -76 l-43 -22 -23 22 c-13 12 -24 31 -24 42 0 29 73 119 152 189 90 81 89 89 -9 82 -323 -24 -649 -102 -858 -206 -213 -106 -360 -235 -340 -298 15 -47 225 -126 580 -220 66 -18 170 -45 230 -61 276 -73 390 -126 498 -234 114 -113 149 -242 113 -415 -70 -340 -413 -574 -1011 -689 -220 -42 -370 -55 -655 -56 -257 0 -281 2 -368 24 -148 37 -217 101 -209 193 5 55 68 193 128 278 48 68 107 104 242 145 69 21 91 24 102 15 18 -15 10 -32 -45 -95 -22 -26 -37 -51 -34 -57 10 -15 530 -3 664 16 208 29 308 51 465 103 138 45 230 91 320 158 110 83 136 132 97 182 -27 35 -156 101 -282 144 -111 39 -432 117 -630 153 -370 69 -407 82 -482 164 -39 44 -53 80 -63 162 -12 111 49 418 104 529 121 239 722 511 1241 560 138 13 367 12 480 -3z m-11940 -75 c5 -11 10 -70 10 -131 0 -133 6 -139 79 -81 58 45 109 57 198 47 133 -16 217 -111 229 -260 9 -99 -14 -171 -71 -231 -63 -64 -96 -78 -201 -83 -99 -5 -129 4 -173 52 -33 35 -47 33 -61 -9 -14 -42 -26 -51 -45 -35 -13 11 -15 68 -15 362 0 335 4 388 30 388 5 0 14 -9 20 -19z m9109 -76 c16 -8 31 -22 35 -30 10 -26 7 -89 -5 -126 -12 -36 -153 -255 -213 -329 -20 -25 -66 -84 -103 -131 -128 -163 -438 -515 -868 -989 -121 -133 -225 -251 -232 -263 -15 -27 -17 -74 -2 -82 5 -4 65 46 132 112 358 347 722 638 897 717 116 51 173 43 230 -36 63 -87 78 -222 36 -339 -58 -164 -172 -268 -540 -491 -52 -32 -99 -58 -105 -58 -21 0 -11 -47 18 -86 37 -52 59 -70 106 -90 61 -25 116 -21 187 14 74 37 290 196 413 306 48 42 92 75 98 73 14 -4 39 -114 32 -138 -7 -22 -267 -274 -387 -374 -106 -90 -182 -142 -275 -189 -63 -32 -79 -36 -148 -36 -68 0 -85 4 -137 32 -33 18 -79 50 -102 73 -44 42 -145 181 -208 284 -20 34 -44 61 -52 61 -21 0 -114 -126 -171 -233 -26 -48 -56 -94 -68 -102 -30 -21 -90 -19 -109 3 -42 47 -88 191 -88 272 0 39 -20 130 -29 130 -4 0 -53 -45 -109 -100 -190 -184 -430 -340 -580 -376 -140 -33 -261 -9 -350 71 -77 69 -120 163 -157 337 -3 16 -10 28 -15 28 -6 0 -75 -58 -153 -130 -286 -261 -494 -390 -589 -367 -41 11 -92 51 -110 87 -31 61 -24 178 16 308 19 60 45 131 57 156 25 54 16 77 -20 54 -11 -7 -21 -16 -21 -19 0 -6 -93 -90 -319 -288 -115 -100 -264 -201 -298 -201 -40 0 -77 25 -142 97 -57 62 -94 126 -154 265 -18 42 -36 42 -58 1 -18 -34 -174 -180 -265 -248 -93 -70 -204 -129 -273 -145 -65 -15 -183 -7 -217 15 -130 85 -176 206 -177 465 -1 374 125 782 339 1097 268 393 638 798 750 819 31 6 40 3 62 -20 l27 -27 -2 -102 c-2 -155 -42 -322 -122 -507 -90 -209 -346 -562 -649 -892 -43 -48 -87 -103 -96 -122 -9 -20 -19 -73 -23 -119 -7 -104 16 -173 80 -235 36 -35 52 -43 93 -48 89 -10 223 55 394 192 118 94 150 129 193 206 58 106 119 180 223 274 284 255 770 476 1015 462 80 -4 136 -38 175 -103 35 -61 32 -85 -21 -134 -25 -23 -45 -44 -45 -48 0 -4 15 -22 33 -41 29 -30 32 -39 32 -95 0 -68 -3 -74 -173 -322 -115 -167 -140 -235 -111 -299 14 -30 65 -56 111 -56 52 0 153 54 273 145 159 121 176 141 186 217 6 42 24 94 54 154 39 79 57 103 145 188 190 182 424 332 625 401 161 55 254 44 297 -35 16 -29 19 -49 15 -120 -5 -91 -11 -109 -69 -210 -75 -128 -188 -244 -266 -271 -44 -15 -88 11 -113 64 -10 23 -19 50 -19 59 0 45 -2 44 -315 -218 -110 -92 -150 -194 -110 -278 24 -50 95 -112 148 -130 181 -60 425 50 789 356 41 36 59 62 105 158 117 247 319 561 518 804 338 414 867 883 998 886 10 0 31 -7 46 -15z m-8490 -108 c6 -8 17 -32 25 -53 7 -22 23 -60 34 -85 11 -24 36 -91 56 -149 38 -108 53 -134 72 -122 11 6 71 144 89 202 4 14 21 53 36 87 16 33 29 67 29 75 0 28 31 58 59 58 15 0 30 -2 33 -5 6 -6 -29 -100 -64 -175 -11 -25 -31 -72 -43 -105 -12 -33 -35 -89 -50 -125 -29 -69 -111 -269 -126 -307 -10 -26 -56 -32 -65 -10 -2 7 9 45 25 84 35 81 34 86 -27 233 -17 41 -44 111 -60 155 -17 44 -44 116 -60 159 -17 44 -29 83 -26 88 8 13 50 9 63 -5z m12555 -438 c47 -37 28 -123 -48 -222 -54 -71 -48 -80 59 -92 104 -12 101 -5 51 -123 -90 -210 -151 -293 -244 -334 -35 -16 -74 -22 -152 -26 -61 -2 -114 -9 -125 -17 -44 -27 -238 -382 -281 -513 -30 -94 -42 -214 -25 -265 14 -42 52 -67 100 -67 35 0 156 61 221 111 25 19 109 85 187 147 129 102 144 117 153 155 51 200 111 306 250 441 189 184 400 293 629 326 102 15 152 9 200 -25 65 -45 79 -107 36 -165 -14 -19 -25 -37 -25 -42 0 -4 14 -20 31 -35 48 -42 59 -79 59 -193 0 -84 -5 -115 -31 -197 -17 -54 -44 -128 -60 -165 -34 -77 -30 -98 16 -98 50 0 127 46 231 140 84 76 99 95 146 185 85 167 221 346 296 392 31 19 51 23 125 23 140 0 179 -27 163 -113 -7 -38 -104 -182 -183 -273 -140 -160 -193 -226 -218 -268 l-27 -46 16 -25 c9 -14 22 -25 29 -25 16 0 79 67 138 144 58 79 279 300 404 407 196 167 404 314 498 354 l38 16 28 -30 c32 -35 71 -169 71 -245 0 -58 -37 -129 -109 -208 -105 -116 -231 -283 -267 -356 -51 -102 -53 -152 -6 -193 18 -16 40 -29 49 -29 27 0 135 65 198 121 33 28 111 100 174 158 101 94 118 115 149 181 141 305 442 558 720 604 113 20 162 20 230 2 111 -30 144 -74 140 -187 -8 -209 -200 -407 -563 -584 -71 -34 -160 -73 -198 -86 -61 -22 -68 -27 -73 -57 -4 -18 -4 -60 -2 -92 4 -52 9 -65 38 -95 104 -107 303 -82 522 67 62 41 221 169 305 244 l53 46 9 -25 c5 -14 15 -28 20 -32 24 -14 11 -74 -24 -120 -201 -265 -515 -500 -745 -560 -86 -23 -255 -17 -296 10 -64 42 -118 103 -154 175 -37 73 -47 113 -70 259 -5 35 -11 66 -13 68 -9 8 -34 -11 -65 -50 -58 -74 -294 -307 -362 -358 -36 -27 -96 -65 -134 -84 -57 -29 -79 -35 -133 -35 -74 0 -111 16 -147 62 -70 94 -60 288 27 467 44 92 114 218 148 268 27 39 39 83 21 83 -13 0 -278 -273 -343 -355 -35 -44 -93 -120 -129 -170 -189 -264 -263 -320 -359 -271 -60 32 -120 198 -121 334 0 75 -11 79 -74 27 -82 -67 -244 -123 -360 -125 -22 0 -49 -19 -116 -82 -150 -143 -269 -198 -430 -201 -87 -2 -99 0 -141 25 -65 38 -125 108 -165 191 -19 39 -34 77 -34 83 0 22 -41 144 -48 144 -4 0 -70 -62 -147 -138 -411 -403 -729 -512 -844 -288 -37 71 -35 211 4 351 50 181 49 184 -52 99 -76 -65 -89 -62 -99 22 l-6 49 164 165 c107 107 189 200 235 265 60 87 113 175 113 190 0 10 -229 4 -259 -6 -50 -18 -56 -1 -23 62 156 289 198 335 344 380 35 10 88 19 118 20 97 1 118 14 188 120 73 109 131 171 181 195 81 39 166 44 205 13z m4101 -2474 c0 -17 -8 -20 -60 -23 -33 -1 -69 -7 -80 -12 -13 -7 -3822 -9 -11354 -8 -10418 3 -11335 4 -11344 19 -6 9 -7 24 -4 33 6 15 860 16 11424 14 l11418 -3 0 -20z"/>
<path d="M16022 11895 c-142 -38 -283 -116 -413 -228 -52 -44 -59 -61 -33 -71 9 -3 280 -6 604 -6 324 0 595 3 604 6 24 9 19 32 -18 83 -78 105 -176 174 -304 215 -73 23 -100 26 -215 26 -107 -1 -149 -6 -225 -25z"/>
<path d="M12085 9913 c-84 -22 -213 -138 -309 -281 -84 -125 -202 -366 -243 -494 -8 -27 38 -23 138 11 299 101 586 337 653 538 14 43 26 88 26 101 0 33 -24 75 -60 106 -28 23 -39 26 -108 25 -42 -1 -86 -4 -97 -6z"/>
<path d="M6726 10007 c-8 -12 -49 -139 -91 -282 -73 -246 -115 -387 -171 -569 -26 -88 -31 -145 -11 -147 79 -6 238 31 331 78 195 98 328 225 406 388 96 200 93 364 -8 467 -69 71 -131 89 -306 87 -128 -1 -138 -2 -150 -22z"/>
<path d="M4555 9558 c-8 -18 -46 -78 -85 -133 -39 -55 -106 -151 -148 -212 -42 -62 -97 -141 -122 -177 -111 -158 -123 -177 -113 -187 6 -6 117 -8 279 -7 l269 3 -1 35 c0 19 -4 167 -8 329 -6 294 -16 381 -42 381 -8 0 -20 -15 -29 -32z"/>
<path d="M17993 9905 c-110 -48 -226 -165 -325 -330 -83 -139 -198 -391 -198 -435 0 -20 4 -22 38 -17 71 9 221 72 337 140 172 102 325 248 386 368 65 130 62 201 -11 263 -29 23 -39 26 -113 26 -48 -1 -96 -7 -114 -15z"/>
<path d="M1640 5170 c0 -5 5 -10 10 -10 6 0 10 5 10 10 0 6 -4 10 -10 10 -5 0 -10 -4 -10 -10z"/>
<path d="M2430 4854 c-111 -51 -151 -113 -151 -235 0 -62 4 -85 19 -107 10 -15 22 -34 26 -42 4 -8 13 -26 21 -40 17 -28 20 -145 5 -155 -5 -3 -25 1 -44 9 -40 17 -84 79 -102 146 -23 87 -45 126 -90 164 -24 21 -57 41 -72 46 -16 4 -111 4 -213 0 l-184 -7 -130 -48 c-71 -26 -148 -53 -170 -59 -22 -7 -57 -20 -77 -29 -21 -10 -44 -17 -52 -17 -7 0 -33 -9 -57 -20 -24 -11 -62 -20 -85 -20 -22 0 -67 -9 -99 -20 -32 -11 -83 -20 -114 -20 -81 0 -173 -42 -200 -91 -27 -47 -27 -108 -1 -141 21 -27 103 -70 167 -87 22 -6 48 -20 59 -32 28 -31 61 -45 139 -59 112 -20 145 -30 163 -48 59 -58 69 -62 181 -62 86 0 114 -4 151 -21 27 -13 66 -21 98 -21 29 -1 55 -4 57 -8 3 -4 -11 -20 -30 -34 -79 -60 -115 -194 -76 -282 35 -79 69 -112 155 -154 45 -21 99 -42 121 -46 58 -10 59 -12 21 -54 -53 -59 -66 -91 -66 -165 0 -57 4 -72 29 -108 41 -59 88 -101 149 -132 28 -15 52 -29 52 -32 0 -2 -15 -19 -33 -38 -34 -35 -67 -119 -67 -169 0 -66 83 -170 154 -192 11 -4 33 -15 48 -26 l27 -19 -60 -57 -61 -57 -1 -77 -2 -77 35 -36 c19 -20 63 -52 98 -72 34 -19 62 -40 62 -48 0 -7 -8 -23 -19 -36 -56 -72 -69 -173 -31 -234 22 -36 68 -73 114 -93 l29 -13 -41 -35 c-61 -52 -82 -92 -82 -155 0 -62 18 -96 77 -146 34 -29 36 -33 22 -50 -8 -10 -24 -38 -34 -61 l-19 -44 20 -56 19 -57 67 -35 c37 -19 71 -38 75 -43 3 -4 7 -40 8 -80 1 -39 3 -78 4 -84 1 -9 21 -13 66 -13 81 0 86 8 84 130 -2 100 3 110 60 140 20 10 44 27 55 39 23 25 31 92 17 151 l-10 44 38 41 c79 86 87 213 19 307 -10 14 -6 23 25 57 69 77 87 114 87 184 0 54 -5 71 -35 121 -19 32 -35 63 -35 69 0 5 26 33 58 62 l57 52 0 84 c0 70 -4 90 -22 120 -13 20 -23 41 -23 47 0 6 20 20 44 31 24 12 68 47 98 79 48 50 56 64 62 111 8 62 -1 138 -20 166 -20 29 -17 53 9 67 62 36 120 87 143 126 21 35 26 58 27 116 2 79 -9 101 -91 188 -19 20 -32 41 -28 46 3 5 23 13 43 16 21 4 84 30 141 58 77 39 116 65 157 109 57 60 58 63 55 164 -2 58 -46 137 -89 159 -14 8 -34 23 -44 34 l-19 20 21 11 c11 6 57 11 103 11 66 0 89 4 113 20 17 11 44 20 60 20 17 0 56 9 88 20 31 11 63 20 71 20 7 0 17 7 20 16 5 14 16 16 54 11 59 -7 153 14 188 42 15 12 40 21 56 21 17 0 55 7 86 16 130 37 182 85 182 165 0 42 -5 55 -32 85 -29 31 -42 36 -103 45 -38 5 -92 16 -120 24 -27 7 -75 18 -105 24 -90 16 -182 39 -220 54 -56 22 -132 48 -174 58 -22 5 -51 16 -65 24 -34 19 -88 40 -181 71 -66 23 -92 26 -210 25 -112 0 -143 -3 -180 -19 -77 -34 -125 -85 -186 -198 -54 -102 -110 -164 -134 -149 -5 3 -10 37 -10 75 0 63 3 72 31 105 28 32 69 134 69 172 0 8 -7 39 -15 68 -20 66 -78 128 -153 161 -70 31 -123 30 -192 -2z m187 -73 c36 -23 82 -95 89 -143 4 -24 -2 -49 -21 -90 -34 -73 -83 -108 -149 -108 -58 0 -92 17 -139 69 l-37 41 0 74 c0 71 2 76 32 107 18 18 46 40 63 51 41 24 120 24 162 -1z m-642 -207 c63 -22 120 -80 138 -141 16 -52 49 -121 80 -166 18 -27 68 -55 132 -74 28 -9 30 -13 37 -77 4 -38 3 -86 0 -109 -6 -36 -12 -42 -48 -55 -23 -8 -49 -12 -58 -9 -21 8 -21 55 0 85 32 46 -10 70 -58 33 -82 -65 -260 -143 -280 -123 -6 6 16 25 64 55 106 67 118 76 130 103 11 23 -2 54 -21 54 -4 0 -51 -31 -104 -69 -94 -67 -117 -80 -240 -135 -58 -26 -140 -35 -152 -16 -3 5 7 15 22 22 89 37 183 89 293 163 89 60 90 62 90 95 0 45 -21 39 -134 -38 -229 -155 -442 -236 -566 -214 -52 9 -56 23 -8 35 74 19 176 50 218 67 25 10 59 23 75 30 109 43 293 181 282 213 -9 30 -55 18 -130 -36 -99 -71 -234 -139 -327 -165 -210 -57 -295 -71 -330 -52 -20 11 -21 13 -5 30 9 10 31 20 48 23 75 13 125 25 167 40 25 9 52 17 60 17 23 0 232 93 272 120 55 38 88 73 88 92 0 27 -28 34 -59 14 -14 -9 -69 -38 -121 -63 -52 -25 -106 -52 -121 -59 -33 -17 -187 -68 -269 -89 -42 -11 -106 -17 -186 -17 -108 -1 -127 2 -168 23 -59 29 -70 42 -62 74 8 33 61 65 108 65 20 0 65 9 100 20 34 11 87 20 116 20 32 0 85 12 140 31 48 17 112 39 142 49 30 10 87 30 125 45 39 14 84 30 100 34 17 4 41 13 54 20 13 7 51 17 85 23 33 5 81 13 106 18 75 12 124 11 175 -6z m1325 -14 c25 -5 83 -23 130 -40 232 -87 524 -176 680 -207 204 -39 239 -58 206 -109 -24 -35 -54 -51 -122 -65 -54 -11 -70 -10 -150 9 -49 12 -125 35 -169 52 -44 17 -125 46 -180 64 -119 41 -210 78 -286 117 -31 17 -63 27 -72 23 -21 -8 -32 -42 -18 -58 12 -15 192 -106 209 -106 6 0 48 -13 94 -29 237 -83 314 -113 327 -126 13 -12 11 -16 -15 -25 -34 -14 -169 9 -243 41 -24 11 -48 19 -53 19 -13 0 -244 116 -277 139 -16 12 -34 21 -41 21 -7 0 -25 9 -41 21 -38 27 -73 22 -77 -11 -2 -21 6 -30 55 -59 32 -19 79 -46 104 -61 74 -44 195 -101 265 -124 36 -12 66 -26 67 -32 4 -18 -53 -15 -111 5 -32 12 -65 21 -73 21 -8 0 -32 9 -54 20 -22 11 -44 20 -51 20 -6 0 -17 6 -23 14 -7 8 -34 26 -60 39 -26 14 -83 51 -126 82 -81 58 -100 63 -119 32 -9 -16 -4 -25 36 -61 70 -62 241 -168 331 -205 53 -22 55 -41 4 -41 -36 0 -157 41 -197 67 -14 9 -78 56 -143 105 -86 64 -126 88 -148 88 -21 0 -29 -5 -29 -17 0 -32 206 -207 275 -233 33 -13 22 -34 -14 -27 -78 14 -257 124 -289 176 -15 26 -48 27 -62 2 -16 -30 -13 -36 35 -85 28 -27 41 -47 34 -51 -6 -4 -21 2 -33 14 -12 12 -25 21 -29 21 -4 0 -27 16 -53 35 -46 35 -77 44 -89 25 -22 -35 -36 62 -14 101 5 11 28 27 50 35 55 22 119 99 167 197 44 91 45 93 117 133 75 42 172 54 275 34z m-691 -186 c12 -4 13 -43 6 -247 -4 -133 -9 -343 -10 -466 -3 -181 -6 -226 -18 -238 -11 -11 -20 -12 -34 -5 -11 6 -34 10 -51 10 -65 -2 -62 -23 -62 487 0 254 2 464 5 466 5 6 144 0 164 -7z m132 -407 c-11 -11 -47 7 -55 29 -12 31 6 35 35 8 17 -17 25 -32 20 -37z m334 -57 c9 -14 -45 -34 -58 -21 -7 7 -2 14 14 20 32 13 37 13 44 1z m-359 -31 c10 -17 -13 -36 -27 -22 -12 12 -4 33 11 33 5 0 12 -5 16 -11z m-931 -9 c8 -12 -42 -33 -57 -24 -7 5 -4 12 7 21 22 16 41 17 50 3z m413 -80 c2 -30 8 -60 14 -67 14 -17 -9 -26 -54 -21 l-33 3 -3 59 c-4 78 1 88 40 84 l33 -3 3 -55z m720 -19 l-3 -56 -34 0 c-28 0 -36 5 -43 27 -8 23 -5 34 23 68 43 53 61 40 57 -39z m-123 23 c0 -23 -5 -30 -24 -32 -38 -6 -48 14 -21 43 29 31 45 27 45 -11z m-481 3 c37 -30 29 -44 -24 -39 -44 5 -60 23 -40 47 17 21 30 19 64 -8z m64 -243 c-3 -123 2 -117 -87 -94 -23 6 -68 15 -100 19 -31 5 -83 16 -116 25 -33 8 -72 17 -88 21 -15 3 -41 18 -58 33 -27 24 -30 31 -20 49 17 33 42 37 226 38 139 0 175 3 200 17 17 9 34 13 38 9 4 -4 6 -57 5 -117z m344 107 c21 -17 45 -20 195 -23 l171 -3 26 -24 c33 -31 24 -40 -45 -50 -89 -14 -210 -41 -279 -63 -36 -11 -76 -19 -90 -17 l-25 4 -3 84 c-4 117 3 129 50 92z m-567 -231 c11 -17 -5 -32 -21 -19 -7 6 -11 15 -8 20 7 12 21 11 29 -1z m521 -136 c-5 -13 -10 -14 -18 -6 -6 6 -8 18 -4 28 5 13 10 14 18 6 6 -6 8 -18 4 -28z m-141 -78 l40 -1 0 -125 0 -125 -65 0 -65 0 -3 119 c-3 123 5 154 37 140 9 -4 34 -8 56 -8z m187 -36 c24 -6 60 -16 80 -21 46 -12 98 -54 98 -80 0 -67 -98 -132 -200 -133 l-55 -1 -3 114 c-3 124 1 146 22 138 8 -3 34 -11 58 -17z m-347 -105 l0 -100 -35 3 c-96 7 -190 58 -190 102 0 30 49 63 118 81 109 29 107 31 107 -86z m380 -214 c7 -12 -12 -24 -25 -16 -11 7 -4 25 10 25 5 0 11 -4 15 -9z m-357 -220 c3 -86 -6 -105 -46 -89 -44 19 -72 49 -72 78 0 32 16 53 55 74 52 27 60 19 63 -63z m160 -35 c1 -60 -1 -113 -6 -118 -6 -6 -26 0 -51 16 l-41 26 0 88 c0 49 3 92 7 96 4 4 25 6 48 4 l40 -3 3 -109z m227 45 c45 -30 55 -59 28 -83 -33 -30 -162 -90 -179 -84 -13 5 -15 19 -8 98 3 51 8 96 10 99 9 16 111 -4 149 -30z m10 -371 c-5 -8 -11 -8 -17 -2 -6 6 -7 16 -3 22 5 8 11 8 17 2 6 -6 7 -16 3 -22z m-273 -17 c13 -12 18 -31 18 -74 0 -64 -12 -80 -41 -53 -14 13 -19 30 -19 74 0 73 8 84 42 53z m-124 -74 c-4 -28 -31 -32 -36 -6 -5 23 18 51 30 39 6 -6 8 -20 6 -33z m247 -10 c8 -37 -10 -65 -31 -48 -17 14 -18 43 -3 70 13 25 26 17 34 -22z m-129 -110 c3 -6 1 -16 -4 -21 -13 -13 -45 8 -36 23 7 12 31 11 40 -2z m14 -274 c0 -76 -10 -96 -35 -75 -11 9 -15 34 -15 85 0 39 3 75 6 78 4 3 15 2 25 -4 16 -8 19 -22 19 -84z m102 -40 c-15 -32 -32 -24 -32 14 0 36 10 45 29 27 12 -12 12 -20 3 -41z m-114 -330 c3 -96 -2 -125 -19 -108 -12 12 -24 166 -15 190 3 8 12 13 19 11 8 -3 13 -33 15 -93z"/>
<path d="M7194 4479 c-70 -26 -144 -105 -173 -184 -44 -115 -16 -272 62 -353 61 -64 111 -86 209 -90 111 -6 177 18 239 85 67 73 84 121 84 243 0 91 -3 111 -23 149 -77 143 -249 208 -398 150z"/>
<path d="M10324 4502 c-66 -23 -124 -70 -164 -132 -53 -82 -60 -80 260 -80 311 0 306 -1 275 64 -25 53 -103 120 -168 145 -69 25 -134 26 -203 3z"/>
<path d="M13692 4484 c-75 -20 -102 -36 -154 -92 -65 -69 -81 -105 -86 -192 -5 -98 20 -169 89 -244 151 -165 394 -123 499 87 51 102 37 224 -38 322 -48 63 -103 100 -178 120 -68 18 -64 18 -132 -1z"/>
<path d="M15580 4505 c-25 -8 -67 -32 -94 -52 -50 -39 -113 -134 -101 -153 4 -6 104 -10 286 -10 312 0 306 -2 270 68 -44 86 -90 123 -186 148 -63 17 -117 17 -175 -1z"/>
<path d="M7687 1639 c-193 -224 -277 -346 -277 -402 0 -26 34 -88 62 -113 89 -81 301 -120 468 -85 181 38 421 146 538 242 65 54 112 120 112 157 0 32 -62 95 -123 125 -112 55 -401 113 -613 124 l-120 6 -47 -54z"/>
<path d="M5772 2963 c-89 -43 -157 -181 -132 -267 24 -87 91 -155 174 -177 86 -23 203 44 244 140 19 45 19 136 0 179 -20 44 -85 112 -125 128 -44 19 -121 17 -161 -3z"/>
<path d="M9953 2478 c-105 -111 -187 -237 -303 -473 -91 -185 -105 -224 -86 -243 12 -12 17 -10 33 14 10 16 45 63 78 104 107 133 208 291 287 450 108 214 105 266 -9 148z"/>
<path d="M11079 1626 c-271 -108 -490 -236 -601 -352 -49 -52 -104 -159 -113 -221 -5 -41 -3 -59 14 -91 11 -22 30 -43 40 -47 30 -9 115 32 205 99 106 78 656 629 656 657 0 22 -75 5 -201 -45z"/>
<path d="M14181 1608 c-45 -24 -122 -72 -173 -108 -102 -72 -258 -215 -258 -236 0 -8 19 -26 41 -41 23 -16 48 -32 55 -38 27 -19 45 -8 330 218 166 131 219 207 165 237 -36 19 -80 10 -160 -32z"/>
<path d="M22385 1847 c-72 -39 -191 -149 -251 -232 -77 -109 -115 -205 -81 -205 23 0 128 61 203 117 96 71 249 232 264 277 26 80 -32 99 -135 43z"/>
<path d="M19298 1590 c-168 -113 -249 -193 -298 -294 -89 -181 -91 -301 -7 -368 28 -22 117 -24 178 -3 50 17 132 77 162 117 l20 27 -18 60 c-34 113 -8 269 75 444 32 69 38 98 18 96 -7 0 -66 -36 -130 -79z"/>
</g>
</g>
  <g id="id3:id3" transform="matrix(1.25,0,0,1.25,0.0,0.0)"><g transform="translate(0.000000,481.600000) scale(0.040000,-0.040000)" fill="#7c2c3c" stroke="none">
<path d="M22115 10210 c-3 -5 -17 -10 -31 -10 -31 0 -84 -79 -84 -126 0 -39 47 -114 71 -114 10 0 20 -4 23 -9 18 -29 116 -10 162 31 18 16 22 31 22 81 0 34 -5 73 -11 87 -10 27 -48 50 -78 50 -10 0 -21 5 -24 10 -3 6 -15 10 -25 10 -10 0 -22 -4 -25 -10z m125 -135 c0 -45 -14 -65 -33 -46 -14 14 -13 67 2 85 20 24 31 10 31 -39z m-162 -20 c-4 -43 -32 -40 -36 3 -2 19 -1 41 3 50 6 15 8 15 21 -3 8 -11 14 -33 12 -50z m78 54 c10 -17 -13 -36 -27 -22 -12 12 -4 33 11 33 5 0 12 -5 16 -11z m8 -88 c22 -24 13 -41 -19 -41 -30 0 -35 9 -24 38 10 27 21 28 43 3z"/>
<path d="M1215 5493 c-156 -23 -404 -127 -540 -228 -176 -130 -351 -338 -449 -534 -92 -183 -158 -413 -186 -651 -17 -143 -8 -506 15 -620 127 -638 599 -1416 1280 -2109 284 -289 515 -488 759 -651 196 -131 293 -183 341 -183 83 1 119 11 145 37 15 14 33 26 40 26 7 0 32 16 56 35 23 19 49 35 57 35 7 0 22 9 32 20 10 11 22 20 27 20 13 0 136 83 183 123 22 19 65 51 95 72 142 98 654 609 747 745 17 25 56 73 87 108 31 35 68 82 83 105 14 23 40 58 57 78 17 19 43 55 59 80 40 63 97 149 135 202 17 25 32 50 32 55 0 5 7 16 16 23 9 7 20 22 25 34 5 11 19 36 31 57 48 77 88 148 88 157 0 5 6 14 14 20 15 13 186 350 186 367 0 5 9 27 19 49 33 70 53 119 61 150 5 17 18 57 30 90 32 88 75 265 95 390 27 178 11 587 -28 695 -9 25 -17 57 -17 72 0 14 -9 47 -20 73 -11 26 -20 53 -20 61 0 28 -141 318 -170 349 -10 11 -22 30 -27 41 -23 61 -314 355 -389 394 -47 24 -104 72 -104 88 0 9 -6 12 -15 8 -9 -3 -18 1 -21 9 -4 10 -20 15 -50 15 -33 0 -46 5 -54 20 -6 12 -21 20 -36 20 -15 0 -52 6 -83 14 -151 38 -460 46 -641 16 -216 -36 -397 -136 -565 -311 -38 -40 -76 -74 -84 -75 -7 -2 -26 -14 -40 -28 -15 -14 -31 -26 -36 -26 -5 0 -57 46 -116 103 -132 127 -152 142 -252 195 -21 10 -26 17 -18 25 15 15 14 27 -3 27 -7 0 -19 7 -26 15 -9 11 -22 14 -48 9 -28 -5 -38 -3 -51 13 -17 20 -157 50 -341 73 -82 10 -304 11 -365 3z m499 -344 c-3 -5 -10 -7 -15 -3 -5 3 -7 10 -3 15 3 5 10 7 15 3 5 -3 7 -10 3 -15z m151 -49 c20 -11 44 -20 54 -20 10 0 26 -9 36 -20 10 -11 23 -20 30 -20 7 0 20 -9 30 -20 10 -11 23 -20 30 -20 7 0 20 -9 30 -20 10 -11 23 -20 29 -20 19 0 106 -94 106 -115 0 -11 7 -33 16 -50 14 -28 14 -31 -6 -47 -12 -10 -27 -18 -34 -18 -6 0 -81 70 -166 155 -85 85 -160 155 -166 155 -6 0 -18 7 -25 16 -8 9 -31 28 -52 41 -21 13 -35 28 -32 32 7 12 77 -5 120 -29z m1996 -10 c20 -6 44 -19 54 -30 11 -12 31 -20 50 -20 18 0 38 -6 44 -14 7 -8 23 -17 36 -20 13 -3 29 -15 35 -26 6 -11 16 -20 23 -20 7 0 33 -17 59 -37 26 -21 58 -46 72 -56 52 -36 189 -223 233 -317 59 -125 81 -219 104 -430 14 -132 7 -203 -28 -270 l-28 -55 -54 -7 c-75 -9 -94 1 -121 64 -25 56 -29 103 -16 179 7 37 5 49 -9 63 -11 10 -24 14 -34 10 -26 -11 -92 -25 -141 -31 -26 -3 -57 -15 -73 -29 -30 -25 -87 -40 -113 -30 -21 8 -12 17 29 31 48 15 44 37 -12 63 -26 12 -55 22 -64 22 -9 0 -19 5 -22 10 -3 6 -15 10 -26 10 -10 0 -27 4 -37 9 -19 10 -66 30 -97 41 -11 4 -33 13 -50 20 -16 8 -37 12 -47 11 -9 -1 -19 3 -23 9 -3 5 -17 10 -29 10 -13 0 -52 14 -87 31 -35 18 -80 39 -99 48 -55 25 -62 32 -49 47 9 11 16 11 38 -4 14 -10 37 -23 51 -28 14 -6 45 -21 68 -33 24 -11 49 -21 56 -21 7 0 32 -10 57 -22 24 -12 53 -22 64 -23 19 -2 144 -45 190 -65 17 -8 84 -29 191 -61 94 -28 245 11 282 72 16 28 10 79 -10 79 -6 0 -20 8 -30 17 -10 9 -42 20 -71 25 -175 29 -193 32 -232 47 -46 18 -93 31 -113 31 -12 0 -30 4 -40 9 -9 5 -35 14 -57 20 -22 7 -49 16 -60 20 -11 5 -33 14 -48 20 -15 6 -39 11 -52 11 -13 0 -27 5 -30 10 -3 6 -14 10 -25 10 -16 0 -45 12 -122 51 -10 5 -26 9 -36 9 -11 0 -34 8 -53 18 -49 25 -260 25 -306 0 -18 -10 -47 -25 -63 -34 -38 -20 -67 -59 -114 -156 -41 -84 -107 -155 -156 -164 -16 -4 -37 -15 -46 -25 -9 -10 -21 -16 -25 -13 -5 3 -9 56 -9 117 0 62 -4 118 -9 126 -6 10 2 25 30 51 22 21 42 50 45 69 4 17 11 34 15 37 12 7 11 91 -1 99 -5 3 -10 15 -10 26 0 24 -87 120 -104 113 -6 -2 -20 2 -31 10 -19 14 -19 15 -2 21 10 5 25 1 35 -7 9 -9 23 -13 29 -11 7 2 34 -18 61 -44 51 -51 63 -82 64 -163 1 -57 -12 -92 -54 -146 l-39 -52 3 -93 c2 -51 8 -94 13 -96 23 -7 114 83 149 150 80 150 123 193 231 228 104 33 288 18 377 -31 10 -6 24 -10 32 -10 8 0 43 -13 78 -29 35 -16 83 -34 108 -42 25 -7 50 -15 55 -19 6 -4 30 -12 55 -19 25 -7 54 -17 65 -21 11 -4 39 -13 63 -19 23 -6 59 -15 80 -21 35 -9 139 -31 242 -50 69 -12 97 11 66 55 -7 11 -23 47 -35 80 -32 85 -60 140 -146 280 -39 64 -240 282 -277 301 -16 8 -26 19 -23 24 8 12 11 12 56 0z m-1366 -250 c4 -6 -9 -17 -29 -25 -44 -19 -103 -69 -122 -106 -8 -16 -14 -56 -14 -93 l0 -64 51 -56 51 -56 -15 -38 c-18 -45 -30 -44 -39 3 -5 20 -19 52 -33 73 -14 20 -32 58 -41 85 -13 40 -14 56 -3 100 17 72 59 130 116 160 54 28 69 31 78 17z m-692 -225 c-2 -13 -38 -23 -86 -24 -21 -1 -48 -6 -59 -12 -12 -7 -24 -7 -29 -2 -17 17 18 35 79 43 70 9 98 8 95 -5z m252 -4 c50 -23 89 -65 104 -111 6 -19 18 -57 27 -85 18 -60 71 -145 89 -145 7 0 26 -7 41 -15 51 -26 63 -21 66 33 5 76 23 54 26 -32 3 -86 -9 -116 -29 -73 -8 18 -20 27 -35 27 -13 0 -26 5 -29 10 -3 6 -14 10 -23 10 -35 0 -92 61 -127 135 -19 40 -35 80 -35 89 0 22 -33 75 -58 92 -11 8 -43 26 -71 40 -28 14 -49 29 -46 35 10 15 57 10 100 -10z m-456 -47 c-6 -8 -17 -13 -23 -12 -6 1 -22 -4 -34 -11 -13 -7 -26 -10 -30 -7 -3 3 -13 -1 -23 -10 -10 -9 -25 -14 -33 -11 -8 3 -20 -1 -26 -9 -7 -8 -21 -14 -31 -14 -10 0 -21 -4 -24 -10 -3 -5 -15 -10 -26 -10 -10 0 -38 -9 -62 -19 -41 -19 -91 -34 -113 -36 -6 0 -18 -6 -27 -13 -9 -8 -35 -13 -59 -11 -24 1 -51 -2 -61 -6 -11 -4 -23 -3 -29 3 -8 8 -7 13 6 18 9 4 20 4 23 0 3 -3 12 -1 20 5 7 7 36 13 64 14 27 2 55 8 62 13 7 5 30 15 52 22 47 15 83 29 107 41 10 5 27 9 37 9 11 0 23 5 27 11 3 6 15 9 25 6 10 -3 24 2 30 10 7 8 21 12 30 10 10 -3 24 2 30 10 7 8 20 12 29 10 9 -2 25 2 35 9 22 16 40 8 24 -12z m-655 -183 c3 -5 -1 -14 -8 -20 -17 -14 -111 -11 -111 4 0 18 109 33 119 16z m720 -41 c-36 -35 -183 -113 -200 -106 -8 3 -16 1 -19 -4 -9 -15 -73 -42 -84 -36 -5 4 -12 2 -15 -3 -6 -9 -100 -42 -113 -39 -4 1 -20 -5 -36 -12 -35 -17 -62 1 -28 19 12 7 27 11 34 10 11 -2 34 6 93 33 11 5 27 9 35 7 8 -1 32 6 54 17 22 10 45 19 50 19 6 0 24 10 40 21 17 11 55 32 85 47 30 15 68 35 84 46 41 28 54 14 20 -19z m-859 21 c7 -12 -12 -24 -25 -16 -11 7 -4 25 10 25 5 0 11 -4 15 -9z m-51 -20 c3 -4 -5 -18 -19 -31 -13 -12 -29 -35 -36 -51 -10 -27 -9 -32 12 -55 39 -42 121 -74 188 -74 66 0 75 -5 58 -31 -14 -22 -2 -34 43 -45 32 -8 51 -24 44 -35 -14 -24 -104 3 -138 40 -22 25 -72 51 -96 51 -28 0 -117 48 -134 72 -22 30 -20 60 5 108 26 49 60 73 73 51z m1080 -49 c7 -12 -36 -51 -109 -99 -71 -47 -210 -115 -240 -118 -5 0 -20 -7 -33 -14 -13 -7 -29 -10 -37 -8 -7 3 -18 0 -24 -6 -13 -13 -95 -36 -133 -37 -23 0 -28 -5 -28 -24 0 -41 34 -56 127 -56 64 0 90 4 118 20 20 11 43 20 51 20 31 0 227 102 336 175 98 65 141 84 122 54 -9 -15 -235 -162 -284 -185 -133 -61 -179 -88 -182 -102 -3 -13 -20 -16 -93 -18 -128 -3 -172 9 -218 57 -33 34 -44 39 -82 39 -24 0 -46 4 -49 9 -11 18 21 29 94 34 41 3 100 10 130 17 30 6 65 12 77 14 12 1 29 8 37 15 9 8 25 11 36 8 11 -3 22 -1 25 3 3 5 45 27 93 50 48 23 101 53 119 66 17 13 35 24 40 24 4 0 26 16 48 35 42 36 51 40 59 27z m1501 -42 c3 0 25 -13 48 -28 74 -49 301 -152 336 -152 9 0 22 -5 28 -11 6 -6 29 -13 52 -14 53 -4 66 -12 50 -32 -17 -20 -68 -45 -78 -39 -5 3 -14 -1 -21 -9 -7 -8 -23 -15 -37 -15 -41 0 -117 -22 -144 -42 -18 -13 -38 -18 -65 -16 -50 4 -47 20 5 32 30 6 41 14 41 27 0 11 -7 19 -15 19 -8 0 -25 5 -38 12 -46 24 -57 28 -70 28 -8 0 -42 18 -76 40 -34 22 -65 40 -69 41 -4 0 -27 16 -52 34 -25 19 -66 49 -92 66 -49 33 -56 43 -37 55 6 3 25 -8 43 -25 18 -17 35 -31 40 -31 4 0 34 -18 66 -40 32 -22 63 -40 68 -40 5 0 17 -9 27 -20 10 -11 24 -20 31 -20 7 0 29 -9 49 -20 20 -11 45 -20 56 -20 11 0 39 -9 62 -21 51 -26 211 -34 229 -12 15 19 -7 41 -36 36 -13 -3 -27 0 -30 6 -4 6 -16 11 -27 11 -10 0 -27 4 -37 9 -9 5 -28 13 -42 19 -59 24 -220 105 -226 113 -3 5 -20 15 -38 23 -53 22 -117 66 -111 76 3 5 27 -2 54 -16 27 -13 52 -24 56 -24z m-311 -109 c17 -17 35 -31 42 -31 6 0 17 -6 23 -14 15 -18 167 -117 206 -135 17 -7 38 -17 47 -22 10 -5 26 -9 36 -9 26 0 34 -11 21 -27 -18 -21 -86 -17 -99 7 -6 11 -17 20 -24 20 -7 0 -21 9 -31 20 -10 11 -26 20 -36 20 -10 0 -20 4 -23 9 -4 5 -41 36 -84 68 -103 77 -153 123 -146 134 7 12 33 -3 68 -40z m-1889 -1 c8 -13 -44 -33 -64 -25 -14 6 -13 8 3 21 23 16 52 18 61 4z m960 -21 c9 -13 -31 -56 -59 -65 -11 -4 -37 -19 -56 -35 -19 -15 -51 -36 -70 -46 -20 -12 -36 -29 -38 -41 -3 -20 1 -22 47 -22 28 0 59 4 69 8 9 5 27 14 39 20 13 7 29 12 36 12 8 0 22 9 32 20 10 11 22 17 27 14 5 -4 -2 -18 -16 -33 -27 -28 -33 -55 -16 -66 16 -10 1 -25 -25 -25 -14 0 -29 -9 -35 -20 -7 -12 -21 -20 -38 -20 -57 0 -72 -10 -72 -46 0 -23 -6 -37 -20 -44 -16 -8 -20 -21 -20 -60 0 -27 -5 -52 -10 -55 -15 -10 -1 -46 26 -67 16 -13 24 -31 26 -61 3 -38 6 -42 31 -45 23 -3 27 0 27 22 0 27 15 42 25 25 4 -6 17 -8 29 -5 12 3 32 -1 44 -10 18 -13 22 -25 22 -74 0 -77 6 -90 41 -90 25 0 29 4 29 29 0 16 7 34 15 41 8 7 15 22 15 35 0 30 5 33 48 26 33 -6 37 -9 34 -33 -2 -18 5 -32 24 -47 34 -27 68 -27 93 1 26 27 31 15 28 -77 l-2 -70 -32 3 c-18 2 -43 -4 -55 -12 -12 -9 -35 -16 -50 -16 -16 0 -36 -4 -46 -9 -9 -5 -36 -15 -59 -22 -52 -15 -71 -55 -54 -115 9 -32 8 -37 -9 -41 -10 -3 -20 -13 -23 -24 -3 -12 -14 -19 -30 -19 -41 0 -89 -30 -84 -51 3 -11 2 -21 -3 -24 -11 -7 -83 53 -122 99 -27 33 -32 48 -36 110 l-4 71 47 50 c29 31 49 62 52 83 l6 32 -41 0 c-22 0 -44 5 -47 10 -3 6 -14 10 -25 10 -21 0 -119 50 -158 80 -34 28 -82 115 -82 152 0 55 22 116 51 144 16 15 29 33 29 40 0 21 100 64 147 64 36 0 43 3 43 19 0 25 -15 34 -65 41 -22 3 -39 9 -39 15 2 11 53 43 72 44 19 1 193 112 232 148 38 35 45 38 55 22z m565 -82 c0 -34 4 -67 8 -72 9 -14 61 -37 91 -42 22 -4 23 -2 18 36 -3 22 -3 42 0 45 3 3 25 -8 49 -25 25 -17 63 -32 90 -36 l46 -6 -6 31 c-10 43 5 46 48 10 l38 -31 -23 -18 c-13 -10 -30 -19 -38 -19 -8 0 -25 -10 -38 -22 l-24 -22 -28 17 c-16 9 -32 17 -35 17 -13 0 -24 -45 -14 -57 11 -14 1 -36 -13 -27 -5 3 -8 13 -7 22 5 29 -41 27 -71 -2 -36 -35 -49 -20 -14 16 25 26 26 29 11 45 -20 19 -84 28 -93 13 -3 -6 -11 -8 -16 -5 -10 7 -13 188 -3 198 16 15 24 -8 24 -66z m224 32 c-3 -5 -10 -7 -15 -3 -5 3 -7 10 -3 15 3 5 10 7 15 3 5 -3 7 -10 3 -15z m-666 -80 c-11 -60 -4 -69 53 -69 42 0 51 -6 39 -29 -5 -9 -11 -24 -14 -33 -7 -22 -44 -24 -52 -3 -4 10 -20 15 -49 15 -52 0 -62 11 -35 35 25 22 25 43 3 68 l-18 19 34 29 c19 15 37 26 41 24 4 -3 3 -28 -2 -56z m716 42 c10 -10 13 -22 8 -25 -12 -7 -54 23 -47 35 9 14 20 11 39 -10z m-513 -107 c20 -89 6 -279 -17 -220 -8 20 -23 20 -45 0 -10 -9 -23 -13 -28 -9 -18 11 -12 25 14 35 25 10 34 43 15 55 -17 10 -11 37 9 42 41 11 37 83 -4 83 -33 0 -40 17 -13 31 13 7 27 18 32 26 11 21 26 4 37 -43z m852 -30 c15 -5 33 -20 40 -34 7 -14 21 -26 32 -28 11 -2 28 -11 38 -20 9 -8 27 -20 39 -26 35 -17 78 -96 85 -153 5 -44 2 -58 -20 -95 -14 -24 -41 -55 -60 -71 -35 -29 -227 -131 -227 -121 0 4 -6 2 -12 -4 -7 -5 -34 -13 -60 -16 -27 -4 -48 -12 -48 -17 0 -5 20 -31 43 -57 80 -87 107 -135 107 -192 0 -40 -6 -60 -29 -94 -28 -41 -86 -93 -143 -129 -34 -21 -36 -56 -8 -115 26 -54 25 -116 -3 -169 -27 -50 -127 -143 -155 -143 -39 0 -43 -22 -15 -80 18 -37 28 -77 31 -121 4 -59 2 -68 -24 -98 -15 -18 -45 -44 -66 -57 -36 -23 -39 -28 -32 -57 3 -17 19 -47 33 -67 27 -35 51 -92 51 -122 0 -28 -60 -131 -101 -172 -43 -44 -47 -57 -23 -77 29 -24 44 -68 44 -127 0 -75 -18 -117 -69 -165 -45 -41 -48 -52 -26 -81 19 -25 19 -89 1 -125 -8 -15 -40 -43 -70 -62 -38 -22 -56 -40 -57 -54 0 -11 0 -56 1 -100 1 -69 -2 -84 -18 -99 -40 -35 -115 -5 -98 39 6 17 8 16 31 -5 20 -19 27 -21 40 -10 8 7 13 20 10 29 -2 9 -5 55 -6 103 -2 67 -5 88 -17 93 -25 9 -39 -12 -24 -36 11 -18 11 -24 -4 -41 -15 -16 -20 -17 -29 -6 -5 7 -33 24 -60 37 -75 37 -105 60 -105 82 0 11 -6 28 -12 39 -10 15 -10 22 0 32 6 6 12 18 12 26 0 8 9 26 19 41 29 40 37 81 17 81 -28 0 -95 69 -102 106 -12 63 3 103 62 161 56 57 66 80 37 89 -74 25 -127 70 -139 120 -13 52 2 123 35 164 18 23 31 50 31 67 0 30 -19 46 -113 93 -69 34 -89 66 -85 137 4 69 21 73 28 6 4 -43 8 -48 30 -48 23 0 25 4 28 53 2 40 0 53 -12 57 -53 17 -53 15 -17 45 36 31 51 31 51 -1 0 -11 7 -19 16 -19 9 0 18 -9 21 -20 7 -26 53 -28 53 -2 0 10 7 27 15 38 23 31 19 64 -8 64 -13 0 -28 -5 -34 -11 -14 -14 -34 -3 -27 15 6 15 -21 46 -40 46 -7 0 -21 9 -31 20 -10 11 -28 20 -40 20 -28 0 -88 54 -115 103 -37 70 -19 145 29 115 25 -15 46 1 56 45 6 23 4 27 -15 27 -12 0 -30 -10 -39 -22 -10 -12 -20 -17 -24 -11 -7 11 35 73 58 86 22 12 18 42 -6 59 l-22 14 28 18 27 18 39 -32 c27 -22 48 -30 67 -28 25 3 27 6 28 55 2 67 10 91 26 75 7 -7 28 -12 48 -12 42 0 54 -8 39 -26 -20 -24 -6 -58 26 -64 27 -5 30 -8 27 -38 -3 -28 -1 -32 22 -32 18 0 29 9 40 32 23 46 21 68 -8 68 -13 0 -29 6 -35 14 -10 12 -8 17 7 25 11 6 23 6 28 1 5 -5 46 -11 92 -14 79 -4 118 -18 106 -38 -3 -5 -12 -4 -20 3 -19 15 -37 -1 -32 -27 4 -24 48 -32 48 -9 0 8 11 20 25 25 14 5 24 15 23 22 -2 8 21 16 64 22 37 6 70 14 74 19 15 15 35 6 44 -19 7 -19 16 -25 33 -22 25 3 36 41 18 62 -8 10 -7 17 4 26 15 13 14 14 30 -35 2 -8 11 -15 18 -15 24 0 39 27 35 61 -2 26 -9 35 -28 39 -16 4 -24 13 -23 25 1 10 -3 29 -8 42 -7 20 -5 25 17 33 21 8 25 15 22 42 -2 28 -8 34 -30 36 -24 3 -28 0 -28 -22 0 -27 -15 -43 -25 -26 -4 6 -15 8 -25 5 -10 -3 -21 -1 -25 5 -4 7 2 14 14 17 23 6 28 32 9 51 -10 10 -8 14 10 18 40 11 19 45 -41 67 -23 8 -34 -19 -19 -43 8 -14 8 -21 -2 -29 -7 -6 -11 -22 -9 -35 6 -30 -10 -40 -39 -24 -13 6 -30 11 -39 10 -19 -3 -43 23 -34 38 3 5 24 10 46 10 l40 0 -3 48 -3 47 -73 3 c-58 2 -73 0 -78 -13 -4 -8 0 -23 7 -31 8 -9 12 -30 10 -47 -2 -24 0 -29 13 -24 25 10 26 -7 2 -30 l-22 -21 -31 33 c-17 18 -28 37 -23 41 5 5 10 23 12 39 l3 30 -45 5 c-46 5 -59 21 -46 57 6 14 9 14 30 0 16 -11 36 -14 59 -10 33 5 35 8 43 57 9 53 27 68 32 27 l4 -24 51 8 c29 4 64 8 79 10 15 1 34 8 43 15 8 7 15 9 15 5 0 -4 7 -2 15 5 25 20 45 4 45 -36 0 -27 -5 -37 -20 -41 -11 -3 -20 -9 -20 -13 0 -24 15 -40 35 -40 18 0 24 6 27 27 2 19 10 29 27 33 18 4 24 13 26 38 3 42 27 68 68 76 18 3 52 9 77 13 38 7 45 12 47 33 4 42 -41 69 -124 73 -82 4 -92 9 -85 42 3 16 -2 33 -13 45 -9 10 -14 24 -10 30 5 8 14 5 27 -10 11 -12 26 -19 33 -16 8 3 19 -2 25 -10 15 -17 80 -19 80 -2 0 6 -7 20 -17 30 -15 17 -15 19 0 36 19 20 13 32 -14 32 -23 0 -34 -18 -20 -34 8 -10 7 -16 -3 -26 -18 -14 -36 -5 -36 19 0 11 -10 21 -22 25 l-23 6 30 25 c17 14 42 25 56 25 14 0 35 10 47 23 19 20 27 22 84 16 35 -4 76 -11 91 -15z m-1708 -3 c3 -5 1 -13 -5 -16 -15 -9 -43 3 -35 15 8 13 32 13 40 1z m140 0 c10 -16 -33 -32 -78 -29 -56 4 -50 21 10 29 27 3 51 7 55 7 4 1 9 -2 13 -7z m955 -46 c0 -17 6 -25 23 -27 17 -2 22 -10 22 -32 0 -21 6 -31 23 -37 26 -10 27 -18 8 -44 -13 -18 -16 -18 -41 -5 -15 8 -35 15 -44 15 -13 0 -17 13 -19 69 -2 38 -1 75 2 83 8 21 26 6 26 -22z m294 4 c-3 -5 -10 -7 -15 -3 -5 3 -7 10 -3 15 3 5 10 7 15 3 5 -3 7 -10 3 -15z m-610 -30 c-3 -5 -10 -7 -15 -3 -5 3 -7 10 -3 15 3 5 10 7 15 3 5 -3 7 -10 3 -15z m-251 -47 c-6 -10 -21 -16 -35 -14 -14 1 -31 -4 -38 -13 -14 -17 -36 -20 -45 -5 -3 6 4 15 17 20 13 5 30 14 38 18 46 26 56 29 65 21 6 -6 6 -16 -2 -27z m2 -87 c0 -12 -50 -19 -71 -11 -9 3 -12 11 -9 16 8 14 80 9 80 -5z m333 -101 c-2 -44 -7 -79 -13 -79 -11 0 -20 139 -10 163 13 36 26 -9 23 -84z m-1 -178 c-8 -20 -18 -20 -43 -2 l-19 15 25 9 c28 11 46 1 37 -22z m76 -147 c-17 -17 -37 -1 -22 17 8 10 15 12 23 4 7 -7 7 -13 -1 -21z m-75 -135 c-2 -22 -7 -39 -13 -39 -12 0 -19 60 -10 83 10 28 27 -3 23 -44z m-1845 -92 c15 -15 27 -33 27 -39 0 -6 7 -13 15 -16 17 -7 45 -69 45 -101 0 -22 15 -66 44 -131 47 -104 56 -127 56 -143 0 -9 9 -28 20 -42 11 -14 20 -30 20 -35 0 -13 58 -126 71 -139 5 -6 9 -17 9 -25 0 -9 9 -27 20 -41 11 -14 20 -32 20 -40 0 -8 9 -26 20 -40 11 -14 20 -32 20 -41 0 -9 9 -24 20 -34 11 -10 20 -24 20 -30 0 -7 7 -18 15 -25 8 -7 15 -22 15 -33 0 -11 10 -31 21 -43 24 -26 34 -42 78 -130 17 -33 39 -69 51 -79 24 -22 50 -71 42 -80 -7 -7 -92 75 -92 90 0 6 -22 33 -50 60 -27 27 -50 54 -50 61 0 6 -9 19 -20 29 -11 10 -20 23 -20 29 0 7 -20 32 -45 56 -25 24 -45 49 -45 54 0 5 -18 31 -40 57 -22 26 -40 52 -40 58 0 5 -15 29 -32 53 -54 71 -88 123 -88 134 0 6 -9 19 -20 29 -11 10 -20 25 -20 33 0 9 -6 23 -14 31 -21 24 -146 267 -146 284 0 8 -9 37 -21 63 -11 27 -21 71 -21 98 -1 43 2 52 28 73 38 30 54 29 87 -5z m1842 -12 c-5 -8 -11 -8 -17 -2 -6 6 -7 16 -3 22 5 8 11 8 17 2 6 -6 7 -16 3 -22z m-196 -726 c-6 -7 -15 -11 -21 -8 -5 3 -4 12 3 20 6 7 15 11 21 8 5 -3 4 -12 -3 -20z m-935 -626 c-3 -5 -12 -4 -20 3 -7 6 -11 15 -8 21 3 5 12 4 20 -3 7 -6 11 -15 8 -21z"/>
<path d="M1625 3600 c-8 -13 4 -32 16 -25 12 8 12 35 0 35 -6 0 -13 -4 -16 -10z"/>
<path d="M1785 3570 c-7 -11 4 -60 18 -77 5 -7 20 -13 34 -13 22 0 23 3 17 38 -4 20 -11 43 -17 50 -11 14 -43 16 -52 2z"/>
<path d="M1630 3525 c-17 -20 3 -45 36 -45 14 0 33 -5 43 -12 30 -19 53 -3 49 34 l-3 33 -56 3 c-41 2 -59 -1 -69 -13z"/>
<path d="M3226 3822 c-3 -5 -1 -24 5 -43 6 -19 10 -50 10 -70 -1 -21 5 -41 14 -49 8 -7 15 -22 15 -34 0 -26 18 -46 41 -46 13 0 19 10 21 36 2 24 10 41 23 48 11 6 24 17 28 24 4 6 19 12 33 12 20 0 25 4 22 21 -4 32 -33 47 -58 31 -25 -16 -67 -16 -77 1 -4 6 -8 26 -8 42 0 26 -4 30 -32 33 -17 2 -34 -1 -37 -6z"/>
<path d="M3085 3510 c-3 -5 -4 -19 0 -29 3 -11 1 -22 -5 -26 -19 -12 -12 -63 10 -70 11 -3 24 -3 30 0 6 3 22 -3 36 -14 21 -17 29 -18 45 -8 22 14 25 42 5 50 -8 3 -12 15 -9 30 6 32 -7 39 -40 22 -15 -8 -27 -11 -28 -7 -1 4 -2 18 -2 32 -2 26 -30 40 -42 20z"/>
<path d="M3255 3460 c-22 -25 -20 -60 5 -60 26 0 62 36 58 58 -4 22 -43 24 -63 2z"/>
<path d="M3040 3226 c0 -41 7 -47 38 -35 28 11 28 33 0 53 -32 23 -38 20 -38 -18z"/>
<path d="M3020 3110 c0 -5 5 -10 11 -10 5 0 7 5 4 10 -3 6 -8 10 -11 10 -2 0 -4 -4 -4 -10z"/>
<path d="M3107 3093 c-15 -14 -6 -42 20 -61 35 -25 23 -41 -27 -35 -37 5 -40 4 -40 -18 1 -30 22 -59 43 -59 9 0 23 14 32 30 9 18 23 30 35 30 16 0 20 7 20 38 0 21 -7 48 -16 60 -14 21 -53 30 -67 15z"/>
<path d="M2735 2891 c-33 -7 -46 -41 -25 -66 8 -10 8 -19 -2 -34 -10 -17 -10 -25 0 -42 9 -14 10 -25 4 -31 -16 -16 -47 -4 -50 20 -4 27 -33 29 -56 3 -16 -18 -21 -18 -54 -6 -20 7 -36 17 -35 21 1 5 3 16 5 24 2 9 -6 16 -18 18 -16 2 -28 -7 -45 -35 -12 -21 -23 -41 -23 -45 -1 -12 -21 -10 -21 2 0 28 -24 30 -78 6 -93 -41 -110 -107 -44 -169 23 -21 32 -39 32 -61 0 -25 5 -32 22 -34 17 -2 26 3 32 20 17 46 61 61 61 22 0 -19 28 -29 130 -44 l85 -12 59 31 c32 17 63 31 70 31 6 0 23 12 39 25 40 35 38 92 -4 134 -17 17 -39 31 -49 31 -28 0 -32 14 -9 33 16 14 19 30 19 92 0 41 -3 74 -7 74 -5 -1 -21 -4 -38 -8z"/>
<path d="M2867 2844 c-4 -4 -7 -16 -7 -26 0 -10 -5 -27 -11 -37 -17 -26 -3 -70 25 -81 13 -4 26 -18 29 -29 3 -11 16 -25 30 -30 22 -9 37 -29 37 -52 0 -5 -11 -14 -25 -19 -16 -6 -25 -17 -25 -30 0 -18 5 -21 32 -18 38 4 71 54 66 102 -2 24 -8 31 -25 31 -12 0 -30 10 -38 23 -9 12 -22 22 -30 22 -17 0 -28 17 -20 30 4 6 13 5 24 -2 22 -13 51 -4 51 16 0 8 -15 34 -33 58 -31 40 -64 58 -80 42z"/>
<path d="M2541 2806 c-13 -16 11 -46 38 -46 32 0 29 46 -4 52 -14 3 -29 0 -34 -6z"/>
<path d="M2120 2580 c0 -13 5 -20 13 -17 6 2 12 10 12 17 0 7 -6 15 -12 18 -8 2 -13 -5 -13 -18z"/>
<path d="M2082 2531 c-20 -12 -10 -46 13 -46 14 0 21 8 23 28 3 28 -10 35 -36 18z"/>
<path d="M2760 2302 c0 -36 18 -56 37 -41 16 14 17 41 1 57 -21 21 -38 14 -38 -16z"/>
<path d="M2488 2292 c-29 -2 -37 -8 -40 -25 -3 -19 -8 -22 -43 -19 -22 2 -48 11 -57 19 -24 21 -62 13 -66 -14 -3 -17 3 -26 22 -33 18 -7 24 -14 19 -26 -4 -12 2 -24 21 -39 l27 -22 -25 -17 c-34 -21 -34 -46 -1 -46 18 0 28 7 35 25 5 14 16 25 25 25 9 0 15 9 15 24 0 35 18 78 30 71 13 -8 13 -92 0 -100 -6 -4 -8 -10 -5 -15 5 -9 -37 -42 -68 -53 -27 -10 -17 -42 13 -42 15 0 26 -7 28 -18 2 -12 13 -17 36 -17 18 0 45 -9 59 -20 14 -11 35 -20 46 -20 29 0 28 46 0 76 -31 33 -33 84 -4 120 l23 29 11 -27 c21 -54 82 -21 80 43 -2 74 -10 84 -64 84 -38 0 -50 4 -53 17 -4 20 -16 24 -64 20z m96 -93 c-3 -5 -10 -7 -15 -3 -5 3 -7 10 -3 15 3 5 10 7 15 3 5 -3 7 -10 3 -15z"/>
<path d="M2807 2173 c-4 -3 -7 -17 -7 -30 0 -25 27 -32 48 -11 21 21 14 48 -11 48 -13 0 -27 -3 -30 -7z"/>
<path d="M2385 1930 c-12 -4 -27 -15 -34 -24 -7 -9 -19 -16 -26 -16 -14 0 -25 -22 -25 -52 0 -16 6 -19 36 -16 l36 3 16 -50 c14 -40 22 -51 42 -53 14 -2 30 -10 36 -17 12 -15 73 -23 91 -12 7 5 17 -1 23 -13 16 -31 38 -24 56 18 28 67 29 91 4 117 -24 26 -54 33 -65 15 -10 -17 -25 -1 -25 27 0 33 -26 52 -68 53 -25 0 -35 -5 -39 -19 -6 -24 -60 -64 -68 -51 -3 5 5 21 19 34 40 36 33 72 -9 56z m189 -191 c-3 -5 -10 -7 -15 -3 -5 3 -7 10 -3 15 3 5 10 7 15 3 5 -3 7 -10 3 -15z"/>
<path d="M2784 1830 c3 -18 6 -36 6 -41 0 -14 37 -11 42 4 10 26 -8 62 -31 65 -22 3 -23 1 -17 -28z"/>
<path d="M2477 1533 c-4 -3 -7 -50 -7 -104 0 -75 4 -101 16 -113 35 -36 44 -15 44 109 0 83 -2 96 -19 105 -23 12 -26 12 -34 3z"/>
<path d="M2576 1408 c-7 -43 -4 -54 13 -43 13 7 15 72 2 79 -5 3 -11 -13 -15 -36z"/>
<path d="M2395 1391 c-7 -23 3 -51 20 -51 19 0 27 28 15 51 -13 24 -27 24 -35 0z"/>
<path d="M2711 1376 c-6 -13 -19 -30 -31 -36 -21 -11 -27 -44 -10 -55 18 -11 50 6 50 25 0 11 7 23 16 28 18 10 16 53 -3 60 -7 2 -17 -8 -22 -22z"/>
<path d="M2490 1145 c-14 -36 -13 -58 3 -80 21 -28 33 -12 32 46 0 59 -19 77 -35 34z"/>
<path d="M2555 1120 c-8 -13 3 -50 15 -50 12 0 23 37 15 50 -3 5 -10 10 -15 10 -5 0 -12 -5 -15 -10z"/>
<path d="M12249 5091 c-184 -44 -351 -164 -462 -331 -182 -274 -147 -685 78 -928 129 -139 252 -207 430 -237 233 -40 458 25 620 177 94 89 181 223 171 263 l-6 25 -167 0 -166 0 -52 -49 c-62 -59 -111 -85 -190 -101 -284 -59 -535 177 -512 480 11 150 108 289 252 363 56 29 68 31 165 31 136 1 197 -22 286 -105 l63 -59 166 0 c145 0 166 2 172 16 9 24 -8 62 -63 145 -101 151 -222 245 -379 295 -109 35 -294 42 -406 15z"/>
<path d="M5535 5068 c-3 -7 -4 -337 -3 -733 l3 -720 153 -3 c83 -1 153 -1 154 0 1 2 4 134 7 293 l6 290 210 0 210 0 5 -290 5 -290 150 0 150 0 3 719 c1 531 -1 722 -9 733 -9 11 -42 13 -153 11 l-141 -3 -5 -285 -5 -285 -210 0 -210 0 -5 285 c-3 157 -7 286 -8 288 -1 1 -70 2 -152 2 -111 0 -152 -3 -155 -12z"/>
<path d="M7165 4745 c-204 -58 -368 -222 -419 -421 -20 -77 -20 -209 -1 -292 42 -177 186 -346 353 -411 65 -26 202 -44 266 -36 296 38 483 222 527 519 20 132 -12 270 -90 387 -79 120 -167 191 -291 236 -91 32 -262 42 -345 18z m262 -284 c62 -29 128 -94 153 -153 19 -45 22 -65 18 -147 -3 -73 -9 -106 -26 -137 -58 -112 -129 -154 -263 -154 -72 0 -93 4 -137 26 -99 49 -144 127 -150 261 -4 83 -2 97 22 150 55 118 139 173 266 173 52 0 88 -6 117 -19z"/>
<path d="M10254 4736 c-330 -107 -500 -474 -367 -790 105 -250 353 -393 618 -357 138 20 235 70 333 176 57 61 122 170 122 206 0 24 -9 25 -157 19 l-133 -5 -29 -35 c-16 -20 -53 -49 -82 -65 -48 -26 -63 -30 -139 -29 -103 0 -174 27 -224 85 -33 40 -62 111 -51 129 4 6 159 10 415 10 224 0 415 3 424 6 13 5 16 23 16 93 0 99 -27 211 -67 281 -37 64 -138 166 -207 212 -134 87 -322 113 -472 64z m264 -253 c30 -10 73 -34 97 -55 42 -37 78 -95 69 -110 -7 -11 -521 -10 -528 1 -8 13 57 100 97 128 76 54 168 66 265 36z"/>
<path d="M13625 4745 c-157 -33 -299 -141 -374 -284 -71 -137 -88 -261 -57 -424 39 -203 207 -378 413 -431 140 -37 330 -12 420 53 45 33 53 31 53 -10 0 -37 15 -41 160 -37 l115 3 3 549 c2 433 0 551 -10 558 -15 9 -229 11 -252 2 -10 -4 -16 -18 -16 -38 0 -18 -3 -36 -6 -39 -4 -3 -25 9 -47 28 -80 69 -259 100 -402 70z m250 -295 c54 -26 107 -77 141 -136 22 -37 28 -63 32 -125 4 -71 2 -84 -23 -136 -119 -241 -418 -241 -531 1 -31 66 -33 181 -5 241 71 153 245 223 386 155z"/>
<path d="M15510 4736 c-99 -36 -101 -37 -161 -77 -206 -138 -303 -411 -233 -651 43 -145 157 -289 281 -355 166 -89 389 -89 556 -1 76 41 193 164 231 245 43 91 41 93 -117 93 l-133 0 -43 -44 c-65 -66 -128 -91 -226 -90 -86 1 -135 16 -193 61 -37 28 -88 124 -78 148 5 13 66 15 425 15 l420 0 12 21 c22 42 -11 251 -55 337 -54 106 -170 218 -279 267 -132 61 -292 73 -407 31z m286 -261 c48 -20 100 -68 125 -118 15 -29 17 -39 7 -42 -8 -3 -126 -4 -263 -3 -234 3 -250 4 -253 22 -5 27 103 129 159 149 54 20 167 16 225 -8z"/>
<path d="M8453 4730 c-54 -19 -100 -47 -123 -74 -17 -21 -30 -11 -30 24 0 19 -7 33 -19 40 -28 14 -224 13 -239 -2 -9 -9 -12 -144 -12 -544 0 -293 3 -539 6 -548 5 -13 26 -16 125 -16 107 0 119 2 129 19 6 12 10 121 10 283 1 308 9 390 47 460 41 74 72 92 168 96 107 4 139 -13 180 -94 l30 -59 5 -350 5 -350 132 -3 132 -3 5 23 c3 13 7 160 10 328 5 329 10 364 62 443 14 21 41 45 59 53 52 21 163 18 202 -6 82 -50 93 -107 101 -510 l7 -325 124 -3 c93 -2 126 1 133 10 4 7 8 180 8 383 0 394 -3 428 -51 531 -12 25 -47 72 -78 104 -80 82 -140 104 -286 105 -102 0 -114 -2 -164 -29 -30 -15 -81 -54 -114 -85 l-59 -56 -20 28 c-87 119 -331 183 -485 127z"/>
<path d="M14975 4731 c-69 -20 -116 -43 -134 -65 -17 -20 -31 -12 -31 18 0 40 -18 46 -131 46 -59 0 -114 -3 -123 -6 -14 -6 -16 -64 -16 -554 0 -490 2 -548 16 -554 23 -9 237 -7 251 2 9 6 13 98 15 352 l3 345 26 50 c30 58 64 81 151 101 35 8 69 22 76 31 15 21 17 206 2 234 -13 23 -27 23 -105 0z"/>
<path d="M35 130 c-3 -10 -3 -35 1 -55 l6 -35 11437 2 11436 3 0 50 0 50 -11437 3 -11437 2 -6 -20z"/>
</g>
</g>
  <g id="id4:id4" transform="matrix(1.25,0,0,1.25,0.0,0.0)"><g transform="translate(0.000000,481.600000) scale(0.040000,-0.040000)" fill="#c80e28" stroke="none">
<path d="M4911 10249 c-48 -19 -81 -51 -142 -140 -35 -51 -84 -119 -109 -153 -25 -33 -72 -99 -105 -146 -32 -47 -78 -110 -100 -140 -56 -73 -130 -175 -251 -345 -55 -77 -149 -207 -209 -290 -60 -82 -120 -166 -134 -186 -47 -66 -138 -193 -194 -269 -31 -41 -95 -131 -143 -200 -131 -186 -199 -260 -239 -260 -14 1 -7 51 20 145 13 44 35 124 50 179 l26 99 -28 29 c-36 38 -63 44 -107 23 -38 -18 -73 -58 -103 -120 -48 -101 -113 -193 -183 -264 -115 -116 -221 -161 -380 -161 -179 0 -311 53 -436 175 -87 85 -149 202 -184 344 -20 82 -22 110 -17 220 14 315 161 629 406 870 233 227 597 391 872 391 72 0 81 -2 109 -27 l31 -28 5 -145 c3 -80 11 -168 20 -197 29 -105 115 -133 179 -60 26 30 38 66 88 270 59 240 62 270 28 301 -52 47 -472 65 -721 32 -496 -66 -944 -278 -1264 -600 -118 -119 -191 -217 -258 -349 -101 -202 -150 -462 -118 -629 6 -29 15 -78 21 -108 6 -30 33 -100 59 -155 79 -163 211 -291 386 -372 99 -45 277 -89 419 -104 193 -20 511 2 728 51 l88 20 46 -27 45 -26 208 12 c161 9 247 9 383 0 239 -16 271 -8 283 68 10 63 -17 85 -136 108 -112 22 -150 49 -150 108 0 54 108 248 228 410 l43 57 320 0 319 0 11 -27 c17 -46 23 -421 8 -468 -19 -54 -61 -80 -145 -89 -107 -11 -144 -41 -144 -115 0 -48 21 -56 139 -55 559 5 696 5 762 -3 43 -5 120 -5 175 0 86 7 253 8 871 3 l133 -1 25 25 c13 14 27 39 31 57 10 52 -32 86 -126 102 -145 26 -163 88 -90 325 23 72 52 169 66 216 50 167 57 185 68 198 7 7 42 15 79 19 l66 6 28 -30 c18 -19 46 -80 77 -164 26 -74 62 -170 78 -214 52 -139 129 -358 150 -424 12 -38 32 -76 49 -94 l29 -29 143 9 c184 10 310 10 422 -3 61 -7 114 -8 165 -1 46 6 293 9 635 6 308 -2 683 -4 832 -4 l272 0 20 20 c11 12 33 69 50 135 17 63 45 160 61 215 40 129 42 177 12 207 -30 31 -92 31 -125 0 -13 -12 -42 -55 -63 -95 -74 -137 -189 -221 -364 -267 -67 -18 -123 -23 -267 -27 -207 -6 -241 -2 -283 33 -25 21 -30 33 -30 69 0 50 25 157 68 295 17 52 55 179 86 283 30 103 61 199 68 215 l13 27 200 3 c175 2 204 0 234 -15 65 -34 76 -60 79 -198 3 -114 5 -126 27 -149 25 -28 57 -32 100 -16 31 12 62 76 71 147 11 89 65 287 127 471 59 172 61 184 47 209 -21 37 -74 67 -105 59 -14 -4 -36 -23 -48 -44 -13 -20 -43 -67 -66 -104 -46 -73 -93 -109 -180 -140 -45 -16 -92 -21 -237 -25 -115 -4 -183 -2 -187 4 -4 6 7 55 23 109 17 54 48 160 70 234 99 330 123 406 132 418 8 9 67 12 232 12 l221 0 50 -24 c104 -48 131 -92 165 -264 22 -109 65 -138 128 -84 29 24 43 56 113 261 44 128 79 243 77 255 -2 11 -16 28 -33 36 -36 18 -45 18 -830 7 -401 -6 -638 -5 -768 2 -158 9 -192 9 -221 -3 -40 -17 -56 -42 -56 -89 0 -46 23 -64 104 -81 99 -20 120 -39 124 -109 3 -62 -19 -157 -98 -407 -27 -85 -54 -175 -60 -200 -11 -45 -44 -155 -141 -475 -28 -93 -68 -229 -90 -301 -78 -269 -116 -361 -161 -399 -33 -28 -49 -30 -114 -14 -72 18 -108 75 -197 309 -14 36 -46 115 -72 175 -26 61 -57 139 -70 175 -12 36 -43 106 -69 157 -52 104 -53 100 34 123 63 16 194 67 265 102 106 53 189 115 272 201 69 72 85 96 114 168 30 76 33 93 33 184 -1 137 -32 213 -120 302 -71 70 -122 99 -244 138 -160 50 -257 56 -720 43 -317 -9 -470 -9 -647 0 -303 15 -353 5 -369 -75 -4 -23 0 -36 18 -57 20 -23 35 -29 94 -36 78 -8 128 -29 145 -62 19 -36 4 -134 -44 -293 -25 -82 -76 -249 -112 -370 -37 -121 -72 -238 -80 -260 -7 -22 -32 -105 -55 -185 -23 -80 -60 -203 -82 -275 -22 -71 -52 -173 -67 -226 -51 -177 -90 -223 -209 -241 -89 -14 -123 -2 -157 56 -19 32 -26 62 -30 127 -12 177 -47 834 -80 1484 -16 326 -27 419 -52 447 -18 20 -96 48 -132 47 -14 0 -37 -5 -50 -10z m2170 -258 c94 -35 148 -110 157 -216 12 -159 -61 -344 -189 -476 -148 -152 -361 -260 -534 -270 l-50 -3 -3 27 c-2 16 13 79 32 142 20 62 52 168 71 236 20 68 47 158 60 199 13 41 42 138 65 215 23 77 45 144 50 150 5 6 67 12 147 13 120 3 145 1 194 -17z m-2474 -796 c5 -176 8 -323 6 -327 -5 -9 -487 -11 -496 -2 -7 8 10 35 161 254 67 96 131 189 142 205 126 183 153 216 165 203 10 -9 16 -101 22 -333z"/>
<path d="M3420 3630 c0 -28 3 -31 28 -28 21 2 27 8 27 28 0 20 -6 26 -27 28 -25 3 -28 0 -28 -28z"/>
<path d="M1607 3613 c-4 -3 -7 -17 -7 -30 0 -19 5 -23 30 -23 27 0 30 3 30 30 0 25 -4 30 -23 30 -13 0 -27 -3 -30 -7z"/>
<path d="M2984 3126 c-11 -29 4 -46 41 -46 34 0 36 2 33 28 -2 22 -8 28 -36 30 -22 2 -34 -2 -38 -12z"/>
<path d="M1867 3113 c-4 -3 -7 -17 -7 -30 0 -19 5 -23 30 -23 27 0 30 3 30 30 0 25 -4 30 -23 30 -13 0 -27 -3 -30 -7z"/>
<path d="M2121 2767 c-6 -8 -12 -24 -13 -38 -2 -18 2 -25 18 -27 24 -3 40 12 49 51 6 24 4 27 -18 27 -13 0 -30 -6 -36 -13z"/>
<path d="M2104 2606 c-10 -26 4 -46 31 -46 23 0 26 4 23 28 -3 31 -44 45 -54 18z"/>
<path d="M2570 2391 c-16 -4 -26 -15 -28 -29 -3 -22 0 -23 45 -20 37 2 49 7 51 22 6 31 -19 41 -68 27z"/>
<path d="M2747 2333 c-14 -13 -6 -60 12 -77 31 -28 55 -17 59 27 3 39 -12 51 -21 16 -3 -13 -10 -18 -17 -14 -7 4 -9 18 -6 31 6 23 -11 34 -27 17z"/>
<path d="M2484 1625 c-10 -25 4 -45 31 -45 21 0 26 4 23 21 -4 27 -46 45 -54 24z"/>
<path d="M2465 1538 c-2 -7 -6 -33 -7 -58 -3 -42 -5 -44 -33 -45 -24 0 -31 -5 -33 -24 -2 -14 0 -21 6 -17 19 11 24 -15 8 -33 -23 -25 -20 -29 22 -33 30 -2 38 -7 40 -25 4 -31 56 -32 72 -3 6 11 17 20 25 20 22 0 55 50 55 84 0 34 -24 76 -43 76 -7 0 -25 16 -40 35 -28 35 -64 46 -72 23z m50 -119 c0 -87 -1 -94 -20 -94 -19 0 -20 6 -17 85 3 96 7 113 25 107 8 -2 12 -31 12 -98z"/>
<path d="M1400 1520 c0 -11 5 -20 10 -20 6 0 10 9 10 20 0 11 -4 20 -10 20 -5 0 -10 -9 -10 -20z"/>
<path d="M2486 1172 c-3 -5 -8 -31 -11 -58 -7 -46 -5 -51 19 -63 21 -12 28 -12 42 0 9 8 25 13 35 11 24 -4 31 12 23 52 -5 28 -12 36 -35 41 -16 4 -31 11 -34 16 -8 11 -32 12 -39 1z m38 -93 c-3 -5 -10 -7 -15 -3 -5 3 -7 10 -3 15 3 5 10 7 15 3 5 -3 7 -10 3 -15z"/>
</g>
</g>
</svg>
