<svg xmlns="http://www.w3.org/2000/svg" version="1.0" width="4008.000000pt" height="3208.000000pt" viewBox="0 0 4008.000000 3208.000000" preserveAspectRatio="xMidYMid meet">
  <g transform="translate(0.000000,3208.000000) scale(0.100000,-0.100000)" stroke="none">
    <mask id="mask-2">
      <g>
        <path d="M 0 0 H 40080.0 V 32080.0 H 0 Z" fill="white" id="background"/>
        <path d="M23975 5272 c17 -5 50 -16 75 -23 46 -14 123 -51 196 -95 87 -51 206 -202 236 -299 49 -158 48 -263 -5 -413 -52 -149 -199 -288 -363 -343 -105 -35 -118 -38 -208 -49 -135 -17 -264 1 -406 53 -208 78 -350 235 -409 453 -16 59 -14 203 4 271 43 166 157 302 324 388 42 21 148 53 216 65 61 11 298 5 340 -8z" fill="black"/>
      </g>
    </mask>
    <mask id="mask-1">
      <g>
        <path d="M 0 0 H 40080.0 V 32080.0 H 0 Z" fill="white" id="background"/>
        <path d="M13405 5272 c17 -5 50 -16 75 -23 25 -7 50 -16 55 -19 6 -4 26 -13 45 -20 81 -31 227 -156 270 -231 33 -56 67 -131 81 -179 20 -64 17 -251 -4 -313 -62 -176 -169 -293 -343 -373 -67 -31 -101 -40 -238 -60 -87 -14 -110 -14 -205 0 -149 21 -154 22 -268 77 -164 79 -272 197 -331 361 -22 63 -26 89 -26 193 0 130 17 199 72 295 55 97 185 206 292 245 25 9 54 21 65 25 24 10 99 28 140 34 49 7 288 -2 320 -12z" fill="black"/>
        <path d="M23975 5272 c17 -5 50 -16 75 -23 46 -14 123 -51 196 -95 87 -51 206 -202 236 -299 49 -158 48 -263 -5 -413 -52 -149 -199 -288 -363 -343 -105 -35 -118 -38 -208 -49 -135 -17 -264 1 -406 53 -208 78 -350 235 -409 453 -16 59 -14 203 4 271 43 166 157 302 324 388 42 21 148 53 216 65 61 11 298 5 340 -8z" fill="black"/>
      </g>
    </mask>
    <mask id="mask-0">
      <g>
        <path d="M 0 0 H 40080.0 V 32080.0 H 0 Z" fill="white" id="background"/>
        <path d="M33532 10083 c13 -21 28 -46 33 -56 6 -10 37 -59 69 -110 32 -51 85 -134 117 -184 33 -51 85 -135 118 -185 32 -51 91 -145 131 -208 136 -216 173 -275 215 -340 24 -36 61 -95 83 -131 22 -37 65 -105 95 -150 122 -189 169 -268 162 -278 -4 -8 -334 -11 -1071 -11 -926 0 -1064 2 -1064 15 0 8 39 74 88 148 48 73 92 140 97 149 6 8 17 26 26 39 9 13 58 89 109 169 51 80 123 190 159 245 36 55 83 129 106 165 22 36 48 76 58 90 28 40 174 265 178 275 2 6 47 76 101 157 53 80 108 167 123 192 15 25 31 46 35 46 5 0 19 -17 32 -37z" fill="black"/>
        <path d="M13405 5272 c17 -5 50 -16 75 -23 25 -7 50 -16 55 -19 6 -4 26 -13 45 -20 81 -31 227 -156 270 -231 33 -56 67 -131 81 -179 20 -64 17 -251 -4 -313 -62 -176 -169 -293 -343 -373 -67 -31 -101 -40 -238 -60 -87 -14 -110 -14 -205 0 -149 21 -154 22 -268 77 -164 79 -272 197 -331 361 -22 63 -26 89 -26 193 0 130 17 199 72 295 55 97 185 206 292 245 25 9 54 21 65 25 24 10 99 28 140 34 49 7 288 -2 320 -12z" fill="black"/>
        <path d="M23975 5272 c17 -5 50 -16 75 -23 46 -14 123 -51 196 -95 87 -51 206 -202 236 -299 49 -158 48 -263 -5 -413 -52 -149 -199 -288 -363 -343 -105 -35 -118 -38 -208 -49 -135 -17 -264 1 -406 53 -208 78 -350 235 -409 453 -16 59 -14 203 4 271 43 166 157 302 324 388 42 21 148 53 216 65 61 11 298 5 340 -8z" fill="black"/>
      </g>
    </mask>
    <path stroke="none" d="M12755 27358 c-3 -7 -4 -3170 -3 -7028 l3 -7015 7030 0 7030 0 0 7025 0 7025 -7028 3 c-5617 2 -7029 0 -7032 -10z" fill="#c9c58a" id="c9c58a-000001" mask="url(#mask-0)"/>
    <path stroke="none" d="M24418 20348 l-3 -4233 -2135 0 -2135 0 0 2715 0 2715 1300 0 1300 0 3 -405 c1 -223 0 -415 -3 -427 l-5 -23 -868 -2 -867 -3 -3 -1835 c-1 -1009 0 -1845 3 -1857 l5 -23 1263 0 c969 0 1266 3 1275 12 9 9 12 771 12 3369 0 3052 -1 3357 -16 3363 -9 3 -1704 6 -3768 6 -2905 0 -3755 -3 -3764 -12 -9 -9 -12 -770 -12 -3362 0 -1843 4 -3357 8 -3364 7 -10 274 -12 1303 -10 l1294 3 3 1835 c1 1009 0 1845 -3 1857 l-5 23 -868 2 -867 3 0 425 0 425 1300 0 1300 0 0 -2715 0 -2715 -2144 -3 c-1576 -1 -2147 1 -2157 9 -12 10 -14 692 -14 4229 0 2319 3 4220 7 4223 3 4 2089 7 4635 7 l4628 0 -2 -4232z" fill="#ffffff" id="ffffff-000001" mask="url(#mask-0)"/>
    <path stroke="none" d="M22719 22816 c8 -9 10 -130 9 -427 l-3 -414 -2930 0 -2930 0 -3 415 c-1 228 0 421 3 427 7 20 5838 19 5854 -1z" fill="#ffffff" id="ffffff-000002" mask="url(#mask-0)"/>
    <path stroke="none" d="M14350 11087 l-45 -22 -2390 -5 -2390 -5 -3 -43 c-4 -54 6 -66 66 -82 166 -46 303 -153 358 -280 41 -93 39 -17 42 -1820 3 -1574 1 -1731 -14 -1795 -19 -84 -46 -136 -99 -194 -45 -49 -133 -111 -185 -130 -19 -7 -44 -16 -55 -21 -11 -4 -40 -13 -65 -21 l-45 -14 0 -50 0 -50 2368 -3 c1400 -1 2375 2 2385 7 9 5 23 31 30 58 7 26 18 66 24 88 6 22 14 51 18 65 4 14 18 63 30 110 12 47 30 117 41 155 24 84 39 139 50 183 5 17 13 47 18 65 4 17 13 51 20 75 6 23 16 61 22 85 6 23 15 53 20 67 21 66 21 88 -1 95 -12 4 -37 4 -55 1 -28 -6 -37 -15 -64 -72 -116 -243 -330 -442 -541 -503 -25 -7 -56 -18 -70 -25 -18 -8 -366 -12 -1290 -14 -696 -2 -1279 0 -1296 3 -61 11 -59 -19 -59 844 l0 786 961 3 961 2 27 -21 c52 -41 97 -137 126 -269 28 -125 33 -135 72 -138 45 -4 43 -10 63 193 22 231 45 475 55 590 5 55 14 145 20 200 20 201 30 346 25 355 -4 6 -24 10 -46 10 -43 0 -46 -3 -69 -90 -36 -133 -76 -222 -128 -288 -33 -40 -54 -53 -127 -81 -22 -8 -295 -10 -985 -9 l-955 3 0 760 0 760 1385 0 c762 0 1396 -3 1410 -7 14 -4 42 -23 62 -42 71 -67 126 -211 158 -411 16 -96 22 -106 63 -98 47 9 55 19 62 81 7 64 39 302 55 402 5 36 14 101 20 145 23 171 32 232 41 278 5 26 9 73 9 102 0 50 -2 55 -22 55 -13 -1 -43 -11 -68 -23z" fill="#4c4d4f" id="4c4d4f-000001" mask="url(#mask-0)"/>
    <path stroke="none" d="M2333 11048 c-6 -7 -18 -76 -28 -153 -20 -166 -30 -242 -44 -350 -6 -44 -16 -118 -21 -165 -6 -47 -15 -116 -20 -155 -5 -38 -13 -103 -16 -142 l-7 -73 45 0 c46 0 78 21 78 51 0 8 9 25 20 39 11 14 20 29 20 33 0 10 73 118 113 168 36 46 139 129 192 156 65 33 125 57 180 71 174 47 281 52 1100 52 l755 0 0 -1733 c0 -1221 -3 -1751 -11 -1793 -34 -181 -146 -293 -372 -368 l-102 -34 0 -49 0 -48 1050 0 1050 0 3 48 c3 44 1 48 -25 58 -15 6 -41 13 -58 16 -16 3 -72 25 -123 49 -117 55 -199 129 -245 223 l-32 66 0 1780 0 1780 800 0 c795 0 839 -2 990 -35 28 -6 62 -13 78 -17 15 -3 30 -9 33 -14 3 -5 12 -9 21 -9 25 0 133 -58 191 -103 30 -22 79 -73 110 -112 60 -74 63 -79 124 -190 22 -38 44 -73 51 -77 16 -10 85 -10 90 0 5 8 -4 90 -27 267 -31 240 -55 419 -67 515 -6 52 -17 131 -23 175 l-12 80 -2926 3 c-2333 2 -2928 -1 -2935 -10z" fill="#4c4d4f" id="4c4d4f-000002" mask="url(#mask-0)"/>
    <path stroke="none" d="M15957 11053 c-12 -11 -8 -78 6 -94 6 -9 32 -21 57 -28 82 -23 209 -91 264 -141 78 -72 117 -157 137 -303 6 -42 8 -728 6 -1745 -4 -1812 0 -1697 -55 -1815 -30 -64 -124 -155 -197 -191 -33 -16 -95 -42 -140 -56 l-80 -27 0 -49 0 -49 1025 -3 c564 -1 1035 0 1048 3 21 5 23 11 20 52 -3 45 -4 47 -48 61 -258 85 -351 167 -408 361 -16 51 -17 203 -17 1761 0 1599 1 1707 17 1737 10 17 32 42 50 55 l33 23 885 0 c830 0 890 -1 965 -19 44 -10 91 -21 105 -23 28 -5 33 -7 145 -54 281 -118 465 -391 465 -690 0 -51 -5 -110 -11 -133 -6 -22 -15 -59 -21 -81 -31 -121 -146 -292 -245 -367 -59 -45 -179 -118 -193 -118 -6 0 -18 -4 -28 -9 -69 -35 -190 -65 -327 -81 -54 -6 -414 -10 -902 -10 l-813 0 0 -62 0 -63 98 -82 c53 -45 108 -93 122 -105 14 -13 59 -51 100 -85 126 -103 293 -244 390 -328 46 -40 279 -236 395 -333 113 -94 341 -287 401 -338 32 -28 89 -77 127 -108 230 -192 215 -179 357 -301 124 -107 267 -227 324 -273 42 -34 115 -97 196 -167 43 -37 161 -136 233 -195 l30 -25 796 0 796 0 3 37 c4 53 -10 73 -68 92 -52 17 -169 67 -204 87 -11 6 -40 23 -65 37 -242 133 -358 219 -786 582 -62 52 -132 111 -156 130 -24 19 -75 62 -114 95 -38 34 -104 88 -145 122 -41 34 -88 74 -105 88 -16 15 -46 39 -65 54 -19 14 -46 36 -60 47 -83 71 -191 162 -211 178 -21 16 -62 51 -169 142 -46 40 -184 155 -260 217 -104 86 -125 105 -118 112 3 4 84 11 180 16 164 9 438 41 503 59 17 4 57 13 90 20 33 7 71 16 85 20 14 4 45 13 70 20 25 7 54 16 65 20 11 5 38 14 60 21 22 7 59 20 82 31 24 10 45 18 48 18 19 0 225 112 308 168 115 76 263 217 325 309 54 80 134 247 147 308 28 132 31 383 6 460 -5 17 -15 48 -21 70 -77 264 -308 508 -638 673 -57 29 -108 52 -113 52 -5 0 -28 8 -52 18 -106 47 -275 96 -417 123 -426 79 -410 79 -2496 79 -996 0 -1814 -3 -1817 -7z" fill="#4c4d4f" id="4c4d4f-000003" mask="url(#mask-0)"/>
    <path stroke="none" d="M23207 11053 c-12 -11 -7 -90 6 -100 6 -5 32 -15 57 -22 81 -22 130 -45 213 -100 93 -60 134 -117 173 -236 18 -58 19 -105 19 -1795 0 -1697 0 -1736 -20 -1795 -28 -88 -60 -138 -120 -193 -62 -57 -147 -102 -255 -136 l-75 -23 0 -49 0 -49 1050 0 1050 0 0 49 0 49 -50 14 c-27 8 -60 19 -72 24 -76 30 -78 31 -138 63 -79 43 -146 127 -186 236 l-24 65 0 1730 0 1730 22 31 c44 61 6 59 963 59 812 0 881 -1 955 -18 44 -10 95 -21 113 -24 18 -3 35 -9 38 -14 3 -5 13 -9 23 -9 30 0 192 -84 260 -136 111 -83 223 -243 252 -360 35 -136 42 -208 29 -299 -52 -384 -313 -632 -745 -707 -36 -6 -399 -13 -920 -17 l-860 -6 -3 -61 -3 -61 68 -59 c75 -66 90 -78 183 -156 227 -189 219 -182 360 -303 124 -107 267 -227 324 -273 48 -39 134 -112 191 -162 22 -20 65 -56 95 -80 30 -24 73 -60 95 -80 42 -36 99 -84 220 -186 151 -125 263 -220 330 -278 74 -65 84 -73 188 -160 226 -188 284 -237 357 -301 160 -138 345 -291 359 -297 20 -8 1563 -10 1585 -2 11 4 16 19 16 50 0 38 -4 45 -30 59 -16 8 -34 15 -39 15 -30 0 -318 145 -416 209 -22 14 -48 31 -56 36 -49 30 -179 123 -214 152 -22 18 -87 72 -145 120 -58 48 -145 121 -195 163 -49 42 -120 100 -156 130 -36 30 -114 96 -175 146 -60 51 -143 120 -184 154 -41 35 -108 90 -149 124 -41 34 -125 104 -186 156 -62 52 -132 111 -156 130 -24 19 -78 64 -120 100 -42 36 -87 73 -100 84 -116 92 -215 183 -207 192 4 3 85 10 180 15 162 8 215 14 393 40 96 15 248 48 319 70 33 11 65 19 71 19 13 0 89 29 162 61 24 11 48 19 54 19 11 0 144 68 234 119 124 71 290 216 375 329 54 72 139 231 157 297 32 111 37 150 38 275 0 126 -14 230 -36 272 -5 10 -9 25 -9 35 0 22 -75 176 -115 236 -55 81 -159 190 -244 255 -45 34 -83 62 -86 62 -2 0 -23 13 -47 29 -54 36 -224 121 -303 150 -33 13 -69 26 -80 31 -11 4 -40 13 -65 20 -25 7 -56 16 -70 20 -104 32 -249 63 -400 85 -282 42 -414 44 -2306 45 -996 0 -1814 -3 -1817 -7z" fill="#4c4d4f" id="4c4d4f-000004" mask="url(#mask-0)"/>
    <path stroke="none" d="M32557 11053 c-12 -11 -8 -80 6 -91 6 -6 26 -13 42 -17 17 -4 41 -10 55 -15 14 -4 45 -13 70 -20 149 -41 300 -120 308 -162 3 -16 -26 -68 -85 -153 -18 -25 -33 -50 -33 -54 0 -4 -9 -16 -20 -26 -11 -10 -20 -22 -20 -27 0 -5 -53 -88 -118 -186 -66 -97 -121 -181 -123 -187 -2 -5 -76 -118 -163 -250 -88 -132 -193 -292 -234 -355 -90 -138 -93 -143 -132 -198 -16 -23 -30 -46 -30 -51 0 -4 -9 -16 -20 -26 -11 -10 -20 -22 -20 -27 0 -5 -53 -88 -118 -186 -66 -97 -121 -182 -123 -187 -2 -6 -93 -144 -201 -308 -109 -164 -198 -302 -198 -306 0 -5 -7 -14 -15 -21 -8 -7 -29 -35 -45 -64 -17 -28 -46 -71 -65 -96 -18 -25 -34 -50 -34 -56 -1 -6 -10 -19 -21 -29 -11 -10 -20 -22 -20 -26 0 -11 -352 -548 -464 -707 -55 -78 -172 -205 -261 -283 -121 -106 -306 -205 -505 -271 l-45 -15 0 -49 0 -49 1055 0 1055 0 3 47 c3 46 2 48 -30 62 -18 7 -51 19 -73 26 -65 20 -197 88 -250 128 -61 46 -116 117 -133 172 -14 47 -2 117 30 162 10 14 18 29 18 32 0 4 27 47 60 96 33 49 60 93 60 98 0 5 9 17 20 27 11 10 20 22 20 26 0 4 54 91 120 194 66 103 120 190 120 194 0 5 7 14 15 21 9 7 22 28 31 46 9 18 26 45 39 59 l24 25 1375 0 1375 0 51 -75 c27 -41 50 -76 50 -79 0 -6 292 -442 361 -540 46 -65 79 -145 79 -191 0 -45 -33 -128 -69 -172 -59 -74 -182 -156 -304 -203 -158 -61 -149 -54 -145 -108 l3 -47 1220 -3 c671 -1 1230 0 1243 3 21 5 23 11 20 53 -3 46 -4 47 -48 61 -206 64 -428 186 -573 315 -91 80 -210 224 -269 323 -26 44 -55 86 -63 93 -8 7 -15 16 -15 21 0 5 -54 90 -120 190 -66 99 -120 183 -120 185 0 4 -77 124 -156 243 -16 24 -34 51 -39 61 -6 9 -56 86 -111 171 -205 313 -254 390 -254 397 0 4 -18 31 -40 60 -22 29 -40 54 -40 57 0 2 -51 82 -113 177 -110 168 -222 341 -242 375 -13 22 -197 303 -246 376 -21 32 -39 60 -39 62 0 3 -36 59 -80 126 -44 66 -80 122 -80 124 0 3 -40 64 -88 137 -49 73 -104 158 -124 188 -19 30 -69 108 -111 173 -43 65 -77 121 -77 126 0 4 -9 16 -20 26 -11 10 -20 22 -20 26 0 5 -45 77 -100 159 -55 83 -100 155 -100 159 0 4 -8 15 -18 24 -17 16 -84 17 -759 17 -407 0 -743 -3 -746 -7z" fill="#4c4d4f" id="4c4d4f-000005" mask="url(#mask-0)"/>
    <path stroke="none" d="M8440 5429 c-25 -5 -74 -14 -110 -20 -70 -12 -125 -26 -152 -40 -10 -5 -22 -9 -28 -9 -6 0 -45 -16 -87 -36 -86 -41 -162 -106 -201 -174 -23 -39 -27 -56 -27 -130 0 -75 3 -91 27 -132 52 -87 152 -155 303 -205 87 -29 187 -55 280 -73 33 -6 76 -15 95 -20 19 -5 53 -11 75 -14 43 -6 66 -11 260 -51 17 -4 39 -10 50 -15 11 -5 40 -16 65 -25 62 -22 136 -87 150 -131 19 -58 5 -100 -53 -158 -67 -66 -105 -84 -262 -125 -86 -23 -252 -32 -377 -21 -179 15 -297 44 -412 102 -72 37 -165 123 -197 183 -15 27 -31 45 -41 45 -16 0 -18 -14 -18 -153 0 -175 -3 -168 92 -211 120 -55 149 -63 353 -102 116 -22 557 -26 680 -6 124 21 237 47 267 63 10 5 23 9 29 9 26 0 160 75 205 115 27 23 65 69 84 101 34 56 35 62 35 159 0 95 -2 103 -34 158 -61 107 -166 183 -342 248 -46 17 -93 33 -104 36 -11 2 -36 8 -55 13 -72 18 -151 35 -280 60 -119 22 -207 40 -240 49 -19 5 -46 13 -60 16 -63 17 -153 61 -177 87 -46 51 -6 142 84 193 99 55 179 70 388 70 117 0 205 -5 230 -12 22 -6 67 -17 100 -24 54 -11 102 -28 174 -62 40 -19 91 -76 112 -123 19 -46 33 -55 43 -28 7 19 8 297 1 316 -4 11 -21 13 -65 10 -44 -3 -74 1 -112 16 -50 19 -87 27 -232 52 -72 12 -453 11 -516 -1z" fill="#4c4d4f" id="4c4d4f-000006" mask="url(#mask-1)"/>
    <path stroke="none" d="M12995 5429 c-158 -29 -221 -44 -260 -59 -11 -5 -49 -19 -85 -31 -130 -43 -300 -150 -386 -241 -59 -63 -91 -110 -125 -183 -44 -94 -59 -158 -59 -262 0 -183 60 -316 203 -450 63 -58 148 -123 162 -123 4 0 19 -8 33 -18 33 -23 203 -92 257 -104 228 -52 281 -59 470 -60 208 -1 316 13 490 64 39 11 78 24 87 29 10 5 23 9 29 9 20 0 182 82 239 120 140 95 248 226 300 365 32 83 39 258 16 349 -53 202 -200 361 -434 468 -112 51 -119 53 -172 68 -25 7 -56 16 -70 20 -46 14 -125 29 -203 40 -94 12 -422 11 -492 -1z" fill="#4c4d4f" id="4c4d4f-000007" mask="url(#mask-1)"/>
    <path stroke="none" d="M23615 5434 c-5 -2 -41 -8 -80 -13 -143 -20 -320 -73 -430 -128 -203 -103 -358 -260 -427 -434 -19 -47 -21 -74 -21 -204 0 -130 2 -157 21 -204 48 -122 132 -227 250 -314 70 -51 215 -127 282 -147 25 -7 49 -17 55 -22 5 -4 21 -8 36 -8 15 0 30 -4 33 -9 3 -5 23 -11 43 -14 21 -3 81 -13 133 -22 181 -32 485 -20 680 26 25 5 57 13 73 16 15 3 30 9 33 14 3 5 16 9 29 9 13 0 27 5 30 10 3 6 14 10 23 10 35 0 223 105 304 170 99 79 158 149 202 240 50 102 61 153 61 280 0 146 -19 216 -88 323 -133 209 -409 355 -777 412 -86 13 -438 20 -465 9z" fill="#4c4d4f" id="4c4d4f-000008" mask="url(#mask-2)"/>
    <path stroke="none" d="M30670 5424 c-96 -14 -140 -24 -260 -60 -53 -16 -180 -86 -222 -123 -69 -61 -93 -118 -93 -220 0 -97 13 -130 74 -194 34 -37 133 -107 149 -107 5 0 27 -9 50 -20 22 -11 49 -20 60 -20 10 0 22 -4 28 -8 5 -5 34 -14 64 -21 122 -27 142 -31 183 -40 23 -6 94 -19 157 -31 325 -59 447 -101 513 -180 21 -25 27 -42 27 -81 0 -60 -17 -95 -65 -138 -55 -48 -118 -76 -250 -110 -89 -23 -260 -32 -386 -21 -171 15 -270 38 -389 93 -93 43 -192 136 -235 221 -17 33 -33 30 -41 -9 -11 -63 1 -281 17 -297 16 -16 176 -87 224 -99 211 -55 293 -64 555 -64 258 1 399 15 530 55 14 4 45 14 70 21 75 22 196 88 249 135 30 27 61 68 77 102 24 50 28 69 27 147 0 76 -4 98 -26 142 -55 109 -158 190 -322 253 -11 4 -31 12 -45 17 -26 11 -63 22 -137 42 -92 24 -122 31 -233 51 -221 40 -305 59 -364 81 -27 11 -55 19 -63 19 -24 0 -104 60 -113 85 -29 77 32 149 175 206 148 58 538 46 710 -21 11 -4 36 -14 55 -21 53 -19 136 -93 160 -144 42 -87 52 -56 48 150 l-3 150 -61 -3 c-40 -3 -78 2 -110 13 -71 25 -108 34 -213 50 -117 19 -449 18 -571 -1z" fill="#4c4d4f" id="4c4d4f-000009"/>
    <path stroke="none" d="M19070 5420 c-9 -6 -308 -10 -790 -10 -426 0 -781 -4 -789 -9 -20 -13 -8 -25 52 -55 38 -18 59 -37 75 -65 22 -39 22 -40 22 -615 0 -493 -2 -581 -15 -606 -17 -33 -74 -80 -97 -80 -22 0 -44 -28 -32 -40 7 -7 297 -9 783 -8 l773 3 13 35 c13 38 27 84 43 145 5 22 17 65 26 95 8 30 12 58 7 63 -13 13 -36 -2 -55 -36 -32 -56 -97 -115 -150 -137 -49 -19 -66 -20 -471 -18 l-420 3 0 260 0 260 295 3 c162 1 305 0 317 -3 16 -4 28 -21 44 -65 15 -41 27 -60 38 -60 15 0 19 21 30 148 7 81 17 176 21 211 5 36 7 68 4 73 -14 22 -33 2 -53 -52 -38 -103 -28 -101 -388 -98 l-308 3 0 245 0 245 448 3 448 2 23 -23 c12 -13 31 -50 40 -82 10 -33 20 -66 22 -73 9 -29 29 -3 40 54 13 64 32 198 36 253 3 36 -8 47 -32 31z" fill="#4c4d4f" id="4c4d4f-000010"/>
    <path stroke="none" d="M9866 5401 c-3 -5 -11 -44 -16 -88 -6 -43 -15 -103 -20 -134 -14 -81 -13 -119 5 -119 8 0 22 12 32 28 93 147 151 165 543 160 l225 -3 3 -566 c2 -601 2 -601 -45 -655 -10 -12 -35 -27 -56 -35 -43 -15 -62 -33 -52 -49 7 -11 640 -15 669 -4 27 10 18 23 -33 49 -28 13 -62 41 -78 62 l-28 36 0 581 0 581 285 -1 c285 0 285 0 341 -26 62 -28 105 -67 134 -123 20 -36 39 -45 48 -22 7 18 -22 275 -35 310 l-10 27 -954 0 c-555 0 -955 -4 -958 -9z" fill="#4c4d4f" id="4c4d4f-000014"/>
    <path stroke="none" d="M14802 5402 c-16 -11 -5 -42 15 -42 27 0 100 -59 114 -92 11 -27 14 -139 14 -609 l0 -576 -28 -36 c-16 -21 -50 -49 -78 -62 -97 -50 -74 -55 241 -55 314 0 338 5 243 54 -48 24 -67 42 -90 83 -17 30 -19 973 -3 973 10 0 221 -167 475 -377 66 -54 210 -171 320 -260 110 -88 283 -229 385 -312 102 -84 194 -154 205 -157 11 -3 74 -3 140 -2 l120 3 5 650 c4 516 8 657 19 683 13 33 80 86 116 93 12 3 20 12 20 24 0 19 -8 20 -275 22 -151 2 -281 -1 -289 -6 -18 -12 -7 -27 33 -46 18 -9 48 -28 67 -44 l34 -29 3 -452 3 -451 -21 11 c-12 6 -29 18 -38 25 -9 8 -47 38 -83 67 -36 29 -168 136 -294 238 -125 102 -262 212 -304 245 -43 33 -106 84 -141 113 -36 29 -94 76 -129 105 -35 29 -69 57 -75 62 -6 6 -27 22 -46 35 -19 13 -37 27 -40 30 -3 3 -29 25 -59 50 l-55 45 -255 3 c-141 1 -262 -2 -269 -6z" fill="#4c4d4f" id="4c4d4f-000015"/>
    <path stroke="none" d="M19377 5403 c-14 -13 -6 -23 48 -59 31 -20 69 -53 86 -73 17 -20 122 -220 234 -446 111 -225 250 -506 309 -624 58 -118 106 -219 106 -226 0 -7 8 -19 18 -28 28 -25 242 -25 265 1 17 18 38 58 149 272 279 539 319 612 336 618 6 2 12 -1 12 -8 0 -16 432 -884 444 -892 6 -4 63 -8 127 -8 98 0 118 3 131 18 9 9 52 89 97 177 80 155 401 786 504 990 55 109 141 206 209 238 44 21 56 36 37 48 -21 13 -546 11 -554 -1 -9 -15 14 -40 36 -40 22 0 89 -62 89 -84 0 -12 -179 -377 -431 -881 -19 -39 -39 -59 -47 -49 -5 5 -62 124 -127 264 -132 286 -147 317 -162 345 -6 11 -53 110 -104 220 -51 110 -97 203 -103 207 -19 13 -143 9 -154 -4 -5 -7 -96 -186 -201 -398 -106 -212 -197 -394 -203 -405 -6 -11 -35 -68 -65 -127 -29 -60 -57 -108 -62 -108 -9 0 -75 131 -136 270 -16 36 -37 77 -47 92 -10 14 -18 30 -18 35 0 4 -16 41 -36 82 -20 41 -56 117 -81 170 -148 314 -146 299 -63 349 33 19 55 40 55 50 0 16 -26 17 -346 20 -190 1 -348 -1 -352 -5z" fill="#4c4d4f" id="4c4d4f-000011"/>
    <path stroke="none" d="M25364 5395 c-8 -20 -10 -18 55 -52 97 -51 92 -10 89 -685 -3 -669 4 -618 -94 -669 -27 -14 -49 -32 -49 -40 0 -12 50 -14 320 -17 176 -1 330 0 343 3 34 8 27 22 -27 50 -28 13 -62 41 -78 62 l-28 36 0 573 c0 561 0 573 20 588 17 13 64 15 279 16 145 0 288 -5 325 -11 144 -24 241 -126 241 -252 0 -47 -40 -135 -76 -168 -84 -76 -158 -89 -491 -89 -338 0 -332 9 -122 -166 174 -144 294 -245 379 -319 183 -158 346 -293 373 -307 28 -16 62 -18 277 -18 135 0 251 4 259 9 20 13 2 33 -45 50 -68 25 -166 95 -389 280 -121 101 -247 206 -279 235 -33 28 -66 56 -74 62 -28 21 -2 34 66 34 107 1 299 57 376 109 58 40 132 122 151 167 27 64 30 151 9 224 -36 121 -180 236 -339 270 -33 6 -73 17 -90 23 -20 8 -246 12 -703 15 -610 3 -673 2 -678 -13z" fill="#4c4d4f" id="4c4d4f-000012"/>
    <path stroke="none" d="M27775 5400 c-9 -15 14 -40 36 -40 11 0 39 -20 63 -44 34 -34 46 -54 51 -87 3 -24 5 -295 3 -601 -3 -637 4 -589 -99 -640 -102 -50 -87 -53 271 -56 179 -1 335 0 348 3 35 9 26 22 -35 52 -89 43 -97 65 -101 253 -2 85 1 160 5 165 15 19 172 145 181 145 5 0 42 -30 84 -67 91 -83 376 -334 478 -423 41 -35 77 -67 80 -70 3 -3 20 -18 38 -33 l34 -27 253 0 c139 0 260 3 269 6 29 11 16 31 -31 49 -27 10 -60 26 -75 36 -14 11 -29 19 -33 19 -13 0 -102 76 -416 355 -158 141 -264 235 -345 305 -46 39 -69 80 -46 80 4 0 37 24 73 53 36 28 81 63 99 77 18 14 88 67 154 119 67 52 149 116 183 142 96 75 205 146 265 172 61 27 78 45 57 58 -8 5 -140 9 -294 9 -154 0 -286 -4 -294 -9 -19 -12 -6 -29 31 -39 17 -4 40 -19 51 -34 24 -32 13 -57 -37 -86 -20 -12 -88 -62 -153 -113 -65 -51 -154 -120 -198 -153 -44 -34 -86 -66 -95 -73 -8 -7 -64 -51 -125 -99 -60 -47 -123 -97 -140 -110 -16 -13 -34 -23 -40 -21 -12 4 -20 412 -10 525 6 65 10 77 39 106 18 18 49 40 69 49 43 21 55 36 36 48 -21 13 -676 12 -684 -1z" fill="#4c4d4f" id="4c4d4f-000013"/>
  </g>
</svg>
