<svg xmlns="http://www.w3.org/2000/svg" version="1.0" width="552.000000pt" height="752.000000pt" viewBox="0 0 552.000000 752.000000" preserveAspectRatio="xMidYMid meet">
  <g transform="translate(0.000000,752.000000) scale(0.100000,-0.100000)" stroke="none">
    <mask id="mask-0">
      <g>
        <path d="M 0 0 H 5520.0 V 7520.0 H 0 Z" fill="white" id="background"/>
        <path d="M4142 6939 c-3 -29 -24 -77 -78 -183 -80 -157 -123 -236 -144 -266 -12 -17 -38 -63 -59 -103 -44 -85 -58 -109 -138 -242 -105 -174 -145 -239 -174 -282 -16 -23 -29 -44 -29 -48 0 -11 -177 -270 -197 -288 -15 -13 -58 -21 -186 -34 -176 -17 -217 -13 -217 23 0 14 109 186 129 204 3 3 22 25 41 50 48 63 52 67 110 138 l52 64 47 -7 c56 -7 156 14 206 45 39 24 105 95 121 131 37 80 44 171 19 232 -22 53 -20 60 34 124 101 121 442 471 456 468 6 -1 9 -13 7 -26z" fill="black"/>
        <path d="M1432 6667 c29 -24 69 -54 88 -67 91 -63 572 -531 850 -828 69 -73 149 -158 178 -188 58 -62 64 -89 30 -121 -23 -21 -100 -35 -264 -47 l-71 -6 -106 138 c-184 239 -239 312 -319 427 -23 33 -44 62 -48 65 -13 11 -288 428 -320 485 -113 206 -115 220 -18 142z" fill="black"/>
        <path d="M4825 5289 c55 -6 106 -13 114 -15 22 -7 -4 -29 -51 -43 -24 -8 -52 -17 -63 -21 -11 -5 -31 -11 -45 -13 -14 -3 -61 -15 -105 -27 -44 -11 -102 -25 -130 -31 -53 -10 -100 -21 -175 -38 -72 -17 -232 -47 -330 -62 -36 -5 -90 -14 -120 -19 -30 -5 -102 -16 -160 -24 -58 -8 -127 -19 -155 -25 -27 -5 -83 -13 -123 -16 -70 -6 -73 -5 -95 20 -12 15 -34 41 -49 58 -34 37 -35 47 -5 84 13 15 35 48 49 73 38 65 75 100 106 101 384 19 1164 17 1337 -2z" fill="black"/>
        <path d="M2873 5213 c71 -79 127 -147 127 -157 0 -20 -102 -146 -128 -160 -15 -7 -60 -16 -101 -18 -72 -5 -74 -5 -100 25 -14 17 -45 52 -68 78 -24 25 -43 49 -43 53 0 12 99 153 127 181 23 22 34 25 94 25 61 0 70 -3 92 -27z" fill="black"/>
        <path d="M2208 5095 c28 -34 52 -69 52 -76 -1 -8 -29 -54 -63 -104 l-62 -90 -130 -8 c-235 -15 -1027 -13 -1160 2 -66 8 -145 17 -175 20 -37 4 -55 11 -55 20 0 12 25 23 125 51 25 7 56 16 70 20 29 9 77 21 173 44 l68 17 34 -30 c19 -16 56 -42 82 -58 43 -25 57 -28 138 -27 78 0 97 4 144 28 61 32 120 88 144 138 19 39 40 52 117 66 95 19 414 59 430 54 8 -2 39 -32 68 -67z" fill="black"/>
        <path d="M3326 4667 c49 -56 109 -130 142 -177 17 -25 52 -72 77 -105 159 -208 199 -263 280 -380 215 -312 250 -366 317 -484 46 -82 70 -132 65 -138 -7 -6 -143 91 -197 141 -19 17 -70 60 -114 95 -135 110 -236 214 -236 244 0 14 5 29 10 32 18 11 11 140 -10 197 -36 96 -118 172 -213 198 -46 12 -163 10 -199 -5 -18 -7 -66 36 -158 145 -30 35 -72 81 -92 101 -45 44 -47 61 -12 106 22 29 31 33 72 34 26 0 85 7 132 14 47 7 90 13 96 14 6 0 24 -14 40 -32z" fill="black"/>
        <path d="M2617 4606 c21 -19 25 -28 18 -39 -65 -92 -85 -119 -112 -153 -17 -21 -62 -77 -100 -124 -37 -47 -73 -91 -80 -98 -7 -8 -26 -30 -40 -50 -124 -168 -333 -403 -528 -595 -128 -127 -151 -146 -153 -126 -2 12 1 33 7 45 6 13 15 34 20 47 18 41 140 292 156 317 28 47 158 275 187 330 16 30 33 59 38 65 4 5 17 27 29 48 12 20 29 52 39 70 48 84 165 253 180 259 9 4 76 11 147 16 72 5 138 10 147 11 9 0 30 -10 45 -23z" fill="black"/>
      </g>
    </mask>
    <path stroke="none" d="M4335 7450 c-3 -5 -13 -10 -21 -10 -49 0 -377 -283 -544 -471 -41 -46 -79 -89 -85 -95 -21 -22 -115 -131 -174 -200 l-61 -71 -107 1 -108 1 -62 -43 c-78 -53 -101 -83 -142 -185 -13 -33 -15 -151 -2 -175 5 -9 12 -35 15 -57 7 -38 3 -45 -74 -150 -45 -60 -88 -119 -97 -129 -9 -11 -36 -46 -61 -79 -25 -32 -52 -61 -60 -65 -16 -6 -65 44 -195 193 -179 206 -699 725 -890 890 -7 6 -44 37 -82 71 -122 106 -237 187 -335 238 -83 42 -103 49 -159 50 -62 1 -64 0 -97 -38 -71 -83 -55 -207 58 -424 28 -53 54 -101 58 -107 4 -5 17 -26 28 -45 72 -127 242 -385 356 -540 39 -53 91 -126 116 -160 25 -35 92 -127 150 -203 58 -77 118 -159 135 -181 16 -23 37 -50 47 -60 28 -30 6 -46 -62 -46 -32 0 -94 -7 -137 -15 -124 -24 -135 -22 -174 28 -40 53 -109 100 -177 122 -41 14 -62 15 -116 7 -85 -14 -131 -36 -186 -92 -47 -47 -90 -119 -90 -150 0 -10 -6 -22 -12 -27 -17 -13 -109 -36 -298 -73 -43 -9 -86 -20 -160 -41 -19 -6 -48 -14 -65 -18 -51 -14 -166 -62 -273 -113 -177 -85 -183 -258 -12 -335 35 -16 73 -24 263 -53 213 -32 913 -47 1340 -27 126 6 177 5 177 -2 0 -11 -22 -48 -138 -226 -36 -55 -81 -129 -100 -165 -66 -125 -106 -195 -145 -260 -93 -151 -222 -411 -276 -555 -13 -33 -27 -69 -31 -80 -30 -75 -50 -207 -38 -255 28 -108 133 -141 246 -79 76 41 105 62 187 133 121 105 293 281 445 456 36 41 85 97 110 125 25 27 85 100 135 160 49 61 105 127 124 148 19 21 52 61 73 90 92 123 217 283 237 301 20 18 21 18 109 -75 171 -182 177 -190 150 -217 -8 -8 -12 -42 -10 -98 1 -74 6 -93 28 -132 76 -129 180 -190 305 -179 30 2 63 7 74 11 24 8 76 -34 245 -198 321 -312 528 -470 713 -545 83 -33 183 5 207 80 11 32 11 52 1 107 -21 114 -60 203 -169 395 -12 20 -30 52 -40 70 -11 17 -50 79 -88 137 -38 58 -73 113 -79 122 -48 80 -436 613 -465 638 -5 5 -144 186 -169 221 -23 32 -26 31 224 64 61 8 157 22 215 31 58 9 130 20 160 24 30 5 87 15 125 23 39 8 104 20 145 27 172 27 195 31 308 59 20 6 60 15 87 21 69 15 126 31 150 40 11 4 40 13 65 20 160 44 248 82 337 142 23 15 47 28 53 28 7 0 10 35 8 111 l-3 111 -47 25 c-56 29 -98 41 -268 76 -188 38 -1056 57 -1385 29 -79 -7 -143 -8 -148 -3 -5 5 22 55 62 115 39 59 71 110 71 114 0 4 17 30 38 57 37 49 59 85 110 175 14 25 40 66 59 92 18 26 33 50 33 54 0 3 14 26 31 51 18 25 48 78 69 117 20 39 64 116 96 171 106 177 249 477 296 620 64 196 51 302 -44 351 -31 16 -104 19 -113 4z" fill="#000000" id="000000-000001" mask="url(#mask-0)"/>
    <path stroke="none" d="M1030 2773 c0 -5 10 -13 23 -19 12 -7 97 -50 189 -97 92 -46 174 -90 183 -97 12 -10 15 -40 15 -156 0 -79 5 -165 12 -191 17 -72 47 -162 70 -213 11 -25 25 -56 31 -70 36 -80 161 -240 242 -308 28 -23 62 -52 77 -65 46 -40 147 -111 196 -139 l47 -26 3 -130 3 -130 -56 -28 c-190 -96 -419 -340 -514 -546 -36 -79 -67 -174 -82 -255 -6 -35 -19 -68 -27 -75 -16 -14 -78 -47 -229 -124 -51 -26 -93 -52 -93 -57 0 -6 113 -8 313 -4 240 4 327 9 377 22 36 9 85 15 111 14 25 -2 50 0 56 4 6 4 14 46 18 94 12 154 70 281 182 398 105 109 189 165 358 235 91 38 279 63 415 54 77 -5 225 -34 275 -54 88 -35 202 -99 262 -147 176 -141 265 -297 279 -489 l7 -94 69 0 c40 0 84 -6 106 -16 30 -13 96 -17 360 -21 218 -4 322 -3 322 4 0 6 -24 22 -52 37 -29 14 -82 42 -118 62 -36 20 -81 46 -101 57 -39 21 -59 52 -59 91 0 13 -4 36 -9 52 -5 16 -14 49 -22 74 -34 119 -160 326 -269 443 -60 65 -197 179 -248 207 -15 8 -44 26 -64 38 l-38 24 0 137 c0 149 0 150 60 180 51 25 164 116 245 196 138 139 203 237 264 400 13 33 27 69 31 80 23 59 30 117 30 256 0 85 4 160 8 166 4 7 98 58 207 113 110 56 204 105 210 111 5 5 -170 9 -468 9 l-477 0 0 -217 c-1 -243 -8 -291 -61 -410 -10 -24 -19 -45 -19 -48 0 -4 -18 -32 -39 -63 -76 -112 -224 -233 -357 -293 -98 -45 -104 -43 -104 40 l0 69 59 43 c32 23 70 62 86 86 31 50 51 63 95 63 43 0 46 19 13 76 -16 27 -48 89 -72 137 -25 49 -59 101 -79 118 -34 30 -147 88 -213 108 -118 37 -322 -25 -421 -126 -76 -78 -82 -108 -86 -395 l-3 -248 -24 0 c-13 0 -27 5 -30 10 -3 6 -13 10 -22 10 -39 0 -257 132 -298 181 -86 103 -108 135 -144 205 -23 43 -41 87 -41 97 0 10 -5 28 -11 39 -7 13 -14 117 -18 267 l-6 246 -467 3 c-258 1 -468 -1 -468 -5z" fill="#000000" id="000000-000002"/>
  </g>
</svg>
