<svg xmlns="http://www.w3.org/2000/svg" version="1.0" width="968.000000pt" height="848.000000pt" viewBox="0 0 968.000000 848.000000" preserveAspectRatio="xMidYMid meet">
  <g transform="translate(0.000000,848.000000) scale(0.100000,-0.100000)" stroke="none">
    <path d="M 0 0 H 9680.0 V 8480.0 H 0 Z" fill="#ffffff" id="background"/>
    <path stroke="none" d="M7300 8291 c-28 -23 -39 -27 -54 -19 -38 20 -47 -13 -45 -173 0 -106 -3 -152 -13 -168 -10 -17 -10 -25 0 -41 16 -26 19 -617 3 -633 -21 -21 -11 -46 36 -91 30 -29 56 -46 72 -46 24 0 126 71 134 93 3 7 -9 27 -26 45 l-32 33 0 397 c-1 621 -2 632 -23 632 -10 0 -33 -13 -52 -29z" fill="#000000" id="000000-000001"/>
    <path stroke="none" d="M7661 8302 c-5 -10 -21 -24 -35 -31 -20 -11 -28 -12 -41 -1 -8 7 -22 10 -30 6 -13 -4 -15 -32 -15 -166 0 -98 -4 -169 -11 -182 -8 -14 -8 -27 -1 -42 22 -46 20 -585 -3 -652 -5 -17 3 -32 43 -73 27 -28 59 -51 70 -51 22 0 142 86 142 102 0 5 -13 23 -30 38 l-30 28 0 445 c0 515 -4 597 -31 597 -10 0 -23 -8 -28 -18z" fill="#000000" id="000000-000002"/>
    <path stroke="none" d="M1075 8285 c-123 -12 -181 -25 -355 -75 -41 -13 -104 -28 -140 -36 -36 -7 -84 -18 -108 -24 -61 -15 -197 -13 -236 4 -18 8 -36 23 -39 35 -6 23 15 51 39 51 16 0 19 26 4 35 -27 17 -74 7 -97 -19 -30 -36 -29 -69 5 -101 38 -38 94 -55 183 -55 54 0 80 -4 88 -14 23 -28 19 -475 -5 -650 -8 -55 -14 -121 -14 -147 0 -58 -15 -75 -72 -84 -116 -17 -168 -34 -168 -56 0 -12 52 -11 83 0 14 5 220 12 458 16 239 3 443 6 454 6 40 2 191 29 225 42 59 21 133 68 183 116 54 51 124 152 134 191 3 14 9 30 13 35 32 47 39 273 12 373 -34 121 -131 238 -244 294 -87 43 -120 55 -173 61 -22 3 -53 8 -70 10 -16 3 -88 -1 -160 -8z" fill="#000000" id="000000-000003"/>
    <path stroke="none" d="M1228 8205 c57 -44 118 -124 132 -173 67 -230 39 -519 -66 -668 -71 -101 -139 -142 -257 -155 -69 -8 -84 -7 -120 10 -74 35 -105 74 -136 171 -25 81 -43 264 -30 317 5 21 9 58 9 83 0 79 40 242 76 312 26 50 78 101 129 125 44 21 60 24 134 19 77 -5 87 -8 129 -41z" fill="#ffffff" id="ffffff-000002"/>
    <path stroke="none" d="M1449 8203 c90 -47 171 -125 207 -201 15 -31 31 -66 36 -76 6 -11 13 -74 16 -141 5 -133 -1 -165 -60 -295 -22 -48 -50 -84 -105 -137 -41 -40 -81 -73 -89 -73 -21 0 -18 7 22 56 56 67 100 146 124 220 33 104 29 303 -9 399 -41 105 -85 161 -181 226 -58 39 -74 59 -47 59 6 0 45 -17 86 -37z" fill="#ffffff" id="ffffff-000003"/>
    <path stroke="none" d="M824 8171 c3 -4 -6 -32 -21 -62 -35 -74 -40 -87 -52 -144 -22 -108 -31 -201 -32 -328 -1 -164 18 -263 68 -355 13 -23 21 -47 18 -52 -10 -17 -71 -11 -87 8 -72 81 -103 431 -57 657 35 176 66 250 113 271 37 16 43 17 50 5z" fill="#ffffff" id="ffffff-000004"/>
    <path stroke="none" d="M5650 8266 c-67 -15 -239 -66 -260 -77 -8 -4 -64 -31 -125 -60 -215 -102 -226 -104 -272 -65 -27 23 -27 25 -10 43 33 37 17 59 -31 42 -64 -22 -74 -107 -17 -145 33 -22 130 -14 199 15 61 27 80 26 94 -1 46 -89 42 -578 -6 -769 -13 -52 -18 -58 -60 -64 -108 -16 -162 -35 -162 -56 0 -13 47 -11 72 2 12 7 89 11 202 11 256 0 381 9 381 28 0 10 -16 19 -45 26 l-45 11 -3 444 c-2 314 1 452 9 472 17 40 95 93 166 111 71 18 183 14 247 -10 102 -39 191 -143 222 -260 17 -66 15 -353 -3 -434 -21 -94 -79 -234 -126 -303 -10 -15 -17 -37 -15 -50 3 -21 6 -22 138 -23 74 -1 188 -5 253 -9 111 -6 118 -5 115 12 -4 23 -61 31 -267 35 -158 3 -183 10 -136 38 14 9 63 51 110 94 136 124 204 239 226 383 40 263 -123 478 -412 542 -30 7 -68 17 -85 22 -43 13 -288 9 -354 -5z" fill="#000000" id="000000-000004"/>
    <path stroke="none" d="M5519 7684 c-1 -452 -2 -475 -20 -484 -26 -15 -64 23 -54 53 12 38 16 784 4 814 -7 19 -6 35 2 56 12 27 45 50 62 40 4 -2 7 -218 6 -479z" fill="#ffffff" id="ffffff-000005"/>
    <path stroke="none" d="M8826 8268 c-11 -36 -26 -131 -31 -187 -8 -100 21 -115 73 -37 38 56 84 169 77 188 -6 15 -77 48 -103 48 -7 0 -14 -6 -16 -12z" fill="#000000" id="000000-000005"/>
    <path stroke="none" d="M8015 8263 c-45 -12 -95 -66 -95 -103 0 -23 31 -21 61 4 21 18 42 26 69 26 51 0 70 8 70 30 0 40 -44 58 -105 43z" fill="#000000" id="000000-000006"/>
    <path stroke="none" d="M3240 8145 c-127 -97 -155 -123 -158 -141 -2 -13 10 -32 33 -52 34 -31 35 -35 35 -100 -1 -123 -19 -506 -26 -549 l-6 -42 63 -40 c35 -22 88 -50 116 -62 l53 -21 105 52 c78 39 105 57 105 71 0 16 -8 19 -57 19 -77 0 -125 14 -158 48 l-28 27 5 271 c6 300 9 316 61 313 18 -2 60 -2 95 -1 71 2 102 23 102 71 0 36 -15 41 -135 41 -49 0 -97 5 -105 10 -10 6 -15 26 -15 62 0 45 -3 53 -20 55 -11 2 -40 -13 -65 -32z" fill="#000000" id="000000-000007"/>
    <path stroke="none" d="M3702 8054 c-58 -51 -60 -66 -17 -117 31 -35 35 -47 30 -72 -4 -16 -9 -146 -11 -288 -2 -160 -8 -266 -15 -278 -15 -28 -6 -45 33 -65 34 -17 78 -53 78 -64 0 -3 -27 -19 -61 -34 -75 -36 -99 -65 -99 -120 0 -82 53 -116 181 -116 78 0 160 16 221 44 51 22 152 56 171 56 9 0 28 -5 42 -12 22 -10 26 -17 23 -46 -4 -43 14 -52 30 -17 57 125 -78 211 -211 136 -197 -110 -261 -134 -333 -124 -84 11 -121 79 -69 128 55 50 233 108 429 139 49 8 94 20 101 28 10 10 15 99 20 353 4 187 8 355 9 374 1 33 -3 37 -69 77 -92 56 -119 56 -173 1 -23 -23 -42 -48 -42 -54 0 -7 15 -19 33 -28 55 -26 67 -70 66 -248 -1 -83 -4 -217 -8 -297 l-6 -145 -30 -3 c-48 -4 -93 31 -122 96 l-26 57 7 252 c3 139 11 264 16 279 7 19 7 31 -1 40 -20 24 -130 104 -144 104 -7 0 -31 -16 -53 -36z" fill="#000000" id="000000-000009"/>
    <path stroke="none" d="M2843 8040 c-47 -40 -96 -52 -118 -31 -20 18 -86 51 -104 51 -10 0 -39 -22 -65 -50 -51 -55 -52 -73 -2 -99 45 -25 47 -51 31 -429 -4 -106 -12 -195 -16 -198 -5 -3 -9 -16 -9 -29 0 -18 16 -33 72 -69 39 -25 79 -46 88 -46 9 0 44 13 78 30 71 34 79 56 32 84 -71 42 -70 37 -69 275 1 119 4 259 8 311 6 93 7 95 32 98 31 4 99 -59 131 -121 25 -49 49 -46 64 8 6 22 13 47 16 55 4 8 9 34 12 56 7 52 -16 84 -84 119 l-48 25 -49 -40z" fill="#000000" id="000000-000008"/>
    <path stroke="none" d="M6805 8046 c-27 -14 -73 -34 -102 -46 -89 -37 -84 -16 -84 -368 1 -200 -3 -321 -10 -341 -14 -39 -3 -54 60 -82 25 -12 76 -34 113 -51 49 -22 76 -29 98 -25 48 10 220 96 220 110 0 10 -21 13 -84 13 -55 -1 -89 3 -97 12 -7 6 -19 12 -26 12 -7 0 -30 11 -51 24 -47 29 -61 76 -52 168 8 71 34 115 175 298 124 160 135 175 135 198 0 25 -3 26 -31 11 -17 -9 -33 -2 -98 40 -42 28 -86 51 -97 51 -10 0 -41 -11 -69 -24z" fill="#000000" id="000000-000010"/>
    <path stroke="none" d="M6845 7923 c42 -46 88 -122 81 -138 -14 -37 -109 -166 -119 -162 -8 2 -13 49 -15 152 -3 190 1 203 53 148z" fill="#ffffff" id="ffffff-000006"/>
    <path stroke="none" d="M2185 8019 c-25 -23 -45 -48 -45 -55 0 -8 15 -20 34 -28 67 -28 67 -29 62 -362 l-4 -299 -24 -12 c-50 -27 -109 -10 -134 39 -14 28 -16 67 -15 308 1 151 4 289 7 305 5 28 0 34 -58 78 -84 62 -106 62 -147 -1 -17 -27 -31 -52 -31 -56 0 -4 11 -22 25 -40 l25 -33 0 -277 c0 -226 -3 -283 -15 -313 -9 -20 -14 -42 -11 -49 2 -6 40 -33 83 -59 98 -60 128 -62 204 -11 50 34 88 46 90 29 0 -5 2 -18 3 -30 2 -13 6 -26 9 -30 7 -7 80 30 165 84 57 36 70 69 30 75 l-23 3 3 313 c2 220 6 318 14 332 10 15 9 23 -7 41 -25 26 -147 89 -175 89 -11 0 -41 -19 -65 -41z" fill="#000000" id="000000-000011"/>
    <path stroke="none" d="M7899 8010 c-21 -22 -39 -49 -39 -58 0 -10 14 -34 31 -55 l31 -37 2 -333 c1 -234 5 -338 14 -354 6 -11 28 -31 47 -43 46 -29 89 -21 141 24 l39 34 -21 24 c-44 48 -45 54 -43 398 2 312 1 331 -17 351 -27 30 -67 57 -109 75 l-37 15 -39 -41z" fill="#000000" id="000000-000012"/>
    <path stroke="none" d="M8395 8013 c-165 -68 -174 -74 -181 -107 -3 -18 -3 -126 -1 -242 3 -115 1 -261 -3 -324 -6 -83 -5 -118 4 -127 18 -20 237 -113 266 -113 37 0 240 100 240 119 0 13 -14 16 -82 16 -64 0 -96 5 -141 24 -84 34 -97 56 -97 158 l0 84 51 76 c28 41 59 85 69 97 54 63 184 234 193 254 14 29 3 38 -27 23 -25 -14 -52 -2 -145 65 -42 30 -69 29 -146 -3z" fill="#000000" id="000000-000013"/>
    <path stroke="none" d="M8488 7850 c28 -39 52 -76 52 -83 0 -6 -25 -46 -56 -87 -31 -41 -59 -81 -64 -89 -20 -35 -27 7 -24 151 1 84 3 159 3 166 2 31 40 6 89 -58z" fill="#ffffff" id="ffffff-000007"/>
    <path stroke="none" d="M9051 8019 c-124 -50 -213 -94 -221 -109 -4 -8 -9 -93 -11 -188 l-3 -172 52 -46 c29 -25 52 -51 52 -58 0 -7 -16 -29 -35 -50 -92 -100 -157 -264 -122 -310 20 -27 37 -11 37 35 0 24 5 42 14 45 7 3 40 -5 72 -16 33 -12 93 -33 135 -47 l76 -24 59 26 c223 100 219 95 209 262 -6 87 -4 121 6 139 18 35 5 51 -75 95 -103 56 -103 56 -59 114 36 46 80 118 119 192 16 30 14 63 -5 63 -5 0 -18 -16 -30 -35 -31 -53 -46 -54 -99 -4 -101 95 -124 107 -171 88z" fill="#000000" id="000000-000014"/>
    <path stroke="none" d="M9099 7818 c39 -46 71 -90 71 -98 0 -25 -47 -86 -84 -109 -67 -42 -86 -6 -86 164 0 102 3 125 14 125 8 0 46 -37 85 -82z" fill="#ffffff" id="ffffff-000008"/>
    <path stroke="none" d="M9131 7497 c42 -37 59 -87 59 -174 0 -53 -5 -86 -14 -99 -14 -18 -18 -17 -133 41 -85 43 -119 66 -121 80 -3 25 138 175 165 175 10 0 29 -10 44 -23z" fill="#ffffff" id="ffffff-000009"/>
    <path stroke="none" d="M4809 7093 c-11 -12 -14 -62 -15 -217 0 -212 -10 -272 -54 -321 -10 -11 -23 -30 -29 -43 -7 -12 -34 -52 -62 -89 -77 -104 -103 -168 -135 -331 -4 -21 -9 -23 -32 -16 -36 10 -83 7 -96 -6 -5 -5 -18 -10 -27 -10 -25 0 -118 60 -124 80 -10 32 14 318 30 356 21 52 19 123 -5 159 -11 17 -20 40 -20 53 0 12 -10 38 -22 57 -19 29 -29 35 -60 35 -42 0 -48 -7 -59 -64 -5 -28 -3 -52 7 -75 18 -43 18 -61 0 -61 -32 0 -214 109 -287 173 -43 37 -96 75 -116 84 -62 26 -183 44 -223 33 -50 -14 -96 -65 -107 -120 -8 -42 -11 -45 -43 -47 -88 -7 -142 -26 -192 -71 l-49 -45 -67 65 c-122 118 -251 210 -415 296 -82 44 -106 52 -151 52 -30 0 -67 -7 -82 -15 -16 -8 -38 -15 -50 -15 -30 0 -85 -39 -106 -75 -33 -57 -51 -152 -44 -234 10 -107 25 -178 47 -218 10 -18 19 -44 19 -57 0 -12 17 -58 39 -102 21 -43 46 -96 55 -116 9 -20 21 -40 26 -43 5 -3 15 -18 23 -33 53 -105 102 -190 117 -207 10 -11 36 -48 57 -81 73 -117 140 -209 191 -263 29 -30 52 -61 52 -68 0 -7 -12 -15 -27 -19 -71 -15 -115 -38 -153 -81 -22 -25 -40 -50 -40 -55 0 -5 -9 -28 -20 -50 -25 -52 -25 -54 1 -133 11 -35 19 -82 17 -105 -3 -38 -7 -44 -48 -67 -25 -14 -54 -33 -65 -42 -11 -10 -28 -21 -38 -24 -10 -4 -25 -20 -35 -37 -9 -16 -21 -30 -26 -30 -16 0 -158 -145 -179 -183 -12 -21 -29 -52 -38 -67 -9 -16 -22 -39 -31 -52 -8 -13 -22 -43 -32 -68 -10 -25 -24 -58 -31 -75 -7 -16 -22 -68 -34 -115 -24 -100 -38 -432 -22 -515 36 -186 60 -268 112 -383 16 -34 29 -66 30 -70 0 -4 18 -32 39 -62 22 -30 48 -74 59 -97 26 -54 88 -152 145 -228 25 -33 67 -90 93 -126 110 -152 140 -193 180 -241 34 -41 43 -61 49 -106 9 -76 -2 -181 -26 -237 -39 -91 -22 -244 42 -373 41 -83 106 -126 171 -115 51 8 86 -3 92 -30 3 -12 -1 -65 -10 -117 -20 -114 -34 -259 -35 -357 0 -98 31 -154 112 -198 26 -15 66 -27 213 -65 39 -10 78 -21 88 -25 25 -10 21 -28 -5 -21 -13 3 -97 13 -188 21 -252 23 -252 23 -295 44 -23 13 -58 21 -87 21 -41 0 -48 3 -48 19 0 44 -17 48 -257 54 -125 4 -293 8 -373 11 -154 4 -180 -3 -180 -45 0 -34 39 -49 125 -49 54 -1 86 -5 99 -15 11 -8 28 -15 37 -15 10 0 26 -12 37 -27 19 -26 24 -27 94 -25 64 2 77 0 93 -18 17 -19 29 -20 245 -20 212 0 231 -1 276 -22 46 -20 64 -22 319 -22 l270 -1 18 36 17 36 48 -9 c253 -46 970 -81 1043 -51 14 6 32 7 40 3 34 -19 573 -13 829 10 58 5 159 14 225 19 170 15 283 28 335 42 25 6 70 13 100 16 42 4 63 12 88 34 28 25 41 29 91 29 45 0 62 4 76 20 14 16 31 20 77 20 32 0 58 3 58 8 0 4 9 13 21 20 17 11 31 11 67 2 38 -9 76 -8 187 5 149 17 173 19 246 16 38 -1 48 -5 57 -26 11 -24 15 -25 99 -25 71 0 94 -4 118 -20 40 -27 118 -27 170 0 26 13 61 20 105 21 92 2 124 10 128 34 2 11 8 24 12 29 4 4 77 10 162 12 84 3 170 10 191 16 33 10 38 15 35 37 -3 25 -1 26 62 32 77 7 105 18 149 55 29 24 32 32 27 62 -7 46 13 61 82 62 56 0 142 30 178 62 11 10 26 18 33 18 23 0 71 41 71 61 0 26 -6 24 -54 -15 -48 -38 -128 -76 -163 -76 -19 0 -24 4 -21 22 3 22 35 38 100 52 39 9 84 51 151 140 151 204 184 371 109 545 -8 18 -18 45 -22 60 -44 142 -80 205 -193 336 -140 163 -262 342 -284 415 -52 183 -66 266 -67 410 -1 113 2 130 41 218 16 36 130 152 151 152 17 0 15 -25 -4 -40 -30 -26 -106 -133 -126 -179 -34 -80 -34 -146 1 -391 9 -68 13 -82 38 -140 70 -159 145 -280 173 -280 18 0 10 35 -15 65 -40 49 -132 244 -153 325 -25 94 -39 318 -23 377 14 50 67 130 131 198 60 63 80 94 80 121 0 22 -28 54 -48 54 -7 0 -63 -51 -126 -112 -148 -148 -157 -170 -158 -379 0 -81 5 -170 12 -200 20 -91 62 -222 87 -270 13 -26 23 -50 23 -53 0 -6 130 -185 167 -231 31 -38 118 -140 124 -145 9 -8 69 -98 69 -104 0 -3 11 -29 24 -59 128 -278 117 -457 -37 -646 -84 -104 -96 -93 -36 34 34 72 45 135 30 163 -6 11 -13 38 -16 60 -3 22 -12 53 -20 68 -8 16 -15 37 -15 47 0 9 -11 27 -25 39 -14 12 -25 31 -25 43 0 12 -9 31 -20 43 -11 12 -20 26 -20 31 0 6 -20 33 -45 61 -25 28 -45 56 -45 63 0 25 -63 98 -106 123 -24 14 -44 32 -44 38 0 15 -42 36 -69 36 -10 0 -26 11 -35 24 -8 13 -29 27 -45 31 -16 3 -37 15 -47 26 -9 10 -27 19 -39 19 -12 0 -39 13 -60 30 -22 18 -50 30 -66 30 -31 0 -41 26 -14 36 8 4 15 11 15 18 0 6 9 22 20 36 41 52 20 159 -43 227 -19 21 -19 26 -7 63 11 34 11 47 0 78 -25 70 -42 85 -156 135 -33 14 -184 4 -222 -15 -31 -16 -34 -16 -75 7 -114 64 -287 99 -572 116 -315 18 -337 18 -362 -5 -28 -24 -29 -56 -3 -98 11 -18 20 -44 20 -57 0 -25 16 -83 31 -113 5 -10 9 -24 9 -32 0 -7 9 -25 21 -40 26 -33 18 -56 -19 -56 -22 0 -34 -9 -53 -37 l-24 -38 -95 -2 c-95 -3 -95 -3 -130 30 -20 17 -46 47 -59 65 -25 35 -61 44 -61 13 0 -10 18 -39 40 -64 22 -25 40 -51 40 -59 0 -8 -13 -27 -30 -43 -16 -16 -30 -34 -30 -40 0 -7 -8 -19 -17 -27 -22 -18 -111 -53 -119 -46 -2 3 -5 60 -5 126 0 131 -7 150 -54 138 -24 -6 -25 -10 -25 -82 0 -41 5 -107 12 -145 10 -61 9 -72 -5 -86 -32 -33 -43 -3 -47 134 -1 70 -5 151 -7 178 -7 80 -23 430 -31 675 -4 124 -9 230 -11 235 -2 6 -3 54 -2 109 1 81 3 97 14 87 10 -8 16 -53 21 -153 3 -79 11 -213 16 -298 5 -85 12 -209 15 -275 12 -224 14 -250 23 -285 11 -46 35 -50 53 -8 17 41 17 228 0 378 -7 58 -14 152 -16 210 -2 58 -6 155 -9 217 -7 114 -1 136 27 108 9 -8 27 -15 41 -15 34 0 66 51 66 106 0 22 5 45 11 51 14 14 17 145 4 150 -6 2 -16 -9 -23 -24 -21 -48 -41 -80 -58 -94 -14 -11 -21 -7 -52 31 -43 50 -51 75 -62 185 -8 86 -34 189 -52 214 -32 43 -86 94 -115 107 -38 19 -150 15 -293 -10 -52 -9 -129 -15 -170 -14 -70 3 -76 5 -88 30 -11 24 -15 26 -38 16 -21 -10 -28 -8 -52 16 -41 39 -84 48 -170 36 -40 -5 -81 -14 -90 -19 -9 -5 -37 -11 -62 -15 -25 -4 -54 -14 -65 -22 -17 -13 -18 -16 -5 -25 20 -13 69 -3 103 22 23 17 33 18 60 10 18 -5 57 -15 87 -22 72 -15 170 -68 170 -91 0 -23 -14 -22 -103 2 -41 10 -115 20 -168 22 l-94 3 -65 -45 c-36 -24 -74 -52 -84 -62 -21 -20 -42 -23 -126 -19 -72 4 -169 56 -250 136 l-25 24 -95 -47 c-102 -50 -153 -57 -234 -34 -47 13 -65 30 -82 77 -12 36 -11 37 32 86 70 79 57 108 -52 117 -95 7 -99 33 -11 81 39 22 97 28 97 11 0 -5 13 -10 29 -10 17 0 33 -4 36 -10 12 -19 42 -10 83 25 22 20 61 45 86 56 26 11 46 23 47 27 0 4 2 16 3 28 1 11 15 37 30 57 23 30 35 37 62 37 18 0 49 8 68 17 30 14 41 15 73 4 35 -12 42 -10 98 19 33 17 67 38 75 45 8 7 38 20 65 29 45 15 58 15 127 2 42 -8 94 -23 115 -34 55 -28 138 -38 146 -18 4 10 18 16 39 16 17 0 57 8 87 19 54 18 175 55 236 72 98 27 278 39 290 19 3 -5 31 -10 61 -10 42 0 66 -6 102 -27 26 -16 60 -35 75 -43 17 -9 41 -40 61 -80 37 -72 56 -87 56 -43 -1 65 -45 124 -120 161 -14 7 -40 24 -59 37 -63 46 -130 59 -296 57 -82 -1 -163 -6 -180 -11 -16 -5 -57 -14 -90 -21 -33 -6 -71 -18 -86 -25 -14 -8 -69 -28 -122 -45 l-97 -31 -83 37 c-73 34 -91 38 -167 38 -97 1 -132 -10 -207 -66 -29 -21 -55 -38 -58 -38 -13 0 -3 24 19 41 13 10 38 41 56 69 25 39 38 50 59 50 14 1 50 7 80 13 46 11 57 19 73 48 17 29 18 47 13 129 -7 100 8 184 40 226 17 22 19 77 5 105 -8 13 -21 19 -45 19 -31 0 -36 -4 -56 -47 -12 -27 -25 -59 -29 -72 -3 -14 -12 -27 -19 -29 -16 -5 -6 60 17 105 20 39 11 51 -23 33 -24 -13 -28 -11 -62 23 l-37 36 12 85 c7 47 18 97 25 113 15 35 64 111 87 138 24 27 96 165 121 231 24 64 23 179 -5 339 -9 55 -16 111 -15 125 1 14 1 31 0 38 -1 18 -36 15 -52 -5z" fill="#000000" id="000000-000015"/>
    <path stroke="none" d="M3445 6790 c3 -5 19 -10 34 -10 15 0 36 -6 46 -14 16 -12 17 -16 6 -30 -15 -17 -61 -22 -61 -6 0 6 -8 10 -18 10 -10 0 -27 6 -37 14 -16 12 -17 16 -6 30 15 18 27 20 36 6z" fill="#ffffff" id="ffffff-000015"/>
    <path stroke="none" d="M3580 6770 c0 -5 -4 -10 -10 -10 -5 0 -10 5 -10 10 0 6 5 10 10 10 6 0 10 -4 10 -10z" fill="#ffffff" id="ffffff-000016"/>
    <path stroke="none" d="M4858 6689 c-2 -6 -8 -10 -13 -10 -5 0 -11 4 -13 10 -2 6 4 11 13 11 9 0 15 -5 13 -11z" fill="#ffffff" id="ffffff-000017"/>
    <path stroke="none" d="M3360 6659 c0 -5 -4 -9 -10 -9 -5 0 -10 7 -10 16 0 8 5 12 10 9 6 -3 10 -10 10 -16z" fill="#ffffff" id="ffffff-000018"/>
    <path stroke="none" d="M3580 6642 c0 -32 4 -39 31 -51 26 -11 30 -18 27 -45 -3 -36 -38 -52 -38 -17 0 12 -11 25 -27 33 -24 12 -28 19 -26 53 3 48 9 65 23 65 5 0 10 -17 10 -38z" fill="#ffffff" id="ffffff-000019"/>
    <path stroke="none" d="M3640 6670 c0 -5 -7 -10 -15 -10 -8 0 -15 5 -15 10 0 6 7 10 15 10 8 0 15 -4 15 -10z" fill="#ffffff" id="ffffff-000020"/>
    <path stroke="none" d="M3690 6640 c0 -16 7 -33 16 -38 20 -11 15 -67 -6 -67 -10 0 -14 8 -12 27 2 21 -1 26 -13 22 -16 -6 -19 7 -15 56 4 50 30 50 30 0z" fill="#ffffff" id="ffffff-000021"/>
    <path stroke="none" d="M3318 6633 c19 -16 59 -52 88 -81 46 -46 54 -59 54 -91 0 -28 -7 -44 -30 -66 -16 -16 -30 -35 -30 -42 0 -11 -20 -13 -86 -12 -73 2 -87 5 -91 20 -6 21 -33 33 -46 20 -15 -15 -37 -1 -37 23 0 12 5 27 12 34 9 9 8 16 -5 30 -9 10 -17 24 -17 31 0 20 43 71 77 92 18 12 33 27 33 34 0 12 25 34 39 35 2 0 19 -12 39 -27z" fill="#ffffff" id="ffffff-000022"/>
    <path stroke="none" d="M4244 6575 c0 -24 -6 -50 -12 -57 -6 -8 -13 -49 -16 -93 -7 -110 -16 -215 -22 -244 -5 -25 -14 -25 -94 -3 -76 21 -93 31 -80 47 7 8 20 15 30 15 19 0 70 46 70 64 1 6 14 27 30 46 26 29 30 43 30 92 0 31 -5 60 -11 64 -19 11 -6 124 16 140 30 22 60 -14 59 -71z" fill="#ffffff" id="ffffff-000023"/>
    <path stroke="none" d="M3863 6627 c48 -17 66 -34 44 -42 -8 -4 -24 -2 -36 4 -25 14 -78 14 -86 1 -9 -15 -25 -12 -25 5 0 8 12 21 28 29 33 19 29 18 75 3z" fill="#ffffff" id="ffffff-000025"/>
    <path stroke="none" d="M3970 6555 c9 -11 22 -14 42 -10 17 4 28 2 28 -4 0 -15 -46 -32 -65 -25 -19 8 -19 -1 2 -32 15 -23 21 -25 61 -19 34 5 48 3 63 -11 40 -36 16 -65 -56 -69 -16 -1 -37 -5 -46 -9 -12 -5 -26 3 -48 26 -26 27 -30 38 -24 63 8 36 7 52 -2 83 -6 18 -4 22 13 22 11 0 25 -7 32 -15z" fill="#ffffff" id="ffffff-000028"/>
    <path stroke="none" d="M3821 6547 c-1 -12 -15 -9 -19 4 -3 6 1 10 8 8 6 -3 11 -8 11 -12z" fill="#ffffff" id="ffffff-000029"/>
    <path stroke="none" d="M3800 6485 c0 -13 -6 -25 -12 -28 -10 -3 -10 -9 0 -26 16 -27 16 -28 -8 -34 -15 -4 -20 -14 -20 -39 -1 -21 -10 -44 -26 -62 -28 -32 -44 -28 -26 7 7 12 13 33 14 47 3 21 -2 26 -25 28 -24 3 -27 7 -21 25 9 30 10 30 32 18 23 -12 32 -6 32 24 0 12 7 36 16 54 13 26 19 30 30 20 8 -6 14 -22 14 -34z" fill="#ffffff" id="ffffff-000032"/>
    <path stroke="none" d="M4780 6497 c0 -8 -3 -17 -7 -21 -4 -3 -8 -17 -10 -29 -5 -30 -28 -51 -47 -44 -22 9 -20 17 14 57 16 19 30 38 30 43 0 4 5 7 10 7 6 0 10 -6 10 -13z" fill="#ffffff" id="ffffff-000035"/>
    <path stroke="none" d="M3883 6494 c3 -4 1 -16 -5 -28 -7 -11 -11 -31 -9 -43 2 -15 -3 -23 -13 -23 -11 0 -16 9 -16 31 0 47 24 82 43 63z" fill="#ffffff" id="ffffff-000034"/>
    <path stroke="none" d="M3640 6434 c0 -16 -16 -19 -25 -4 -8 13 4 32 16 25 5 -4 9 -13 9 -21z" fill="#ffffff" id="ffffff-000037"/>
    <path stroke="none" d="M3669 6354 c15 -34 14 -54 -3 -54 -19 0 -23 7 -31 53 -6 31 -5 36 8 32 8 -4 19 -17 26 -31z" fill="#ffffff" id="ffffff-000039"/>
    <path stroke="none" d="M4700 6375 c0 -9 -7 -18 -15 -21 -8 -4 -15 -12 -15 -19 0 -20 -19 -29 -26 -11 -7 18 23 66 42 66 8 0 14 -7 14 -15z" fill="#ffffff" id="ffffff-000038"/>
    <path stroke="none" d="M3973 6328 c29 -28 29 -29 13 -63 -19 -40 -11 -38 -143 -40 -70 -1 -103 2 -103 9 0 17 106 118 137 131 33 14 53 6 96 -37z" fill="#ffffff" id="ffffff-000041"/>
    <path stroke="none" d="M3490 6316 c0 -7 -9 -16 -20 -19 -24 -6 -25 -3 -4 17 19 20 24 20 24 2z" fill="#ffffff" id="ffffff-000042"/>
    <path stroke="none" d="M3025 6265 c22 -11 60 -27 85 -34 25 -7 55 -17 68 -22 13 -5 60 -9 106 -9 73 0 85 -3 104 -23 14 -14 19 -30 16 -44 -3 -11 -2 -23 3 -26 13 -8 53 21 53 39 0 8 5 14 10 14 16 0 12 -30 -5 -36 -8 -4 -15 -17 -15 -30 0 -27 -11 -30 -43 -12 -12 6 -56 15 -97 19 -41 5 -95 13 -120 19 -25 6 -83 15 -130 20 -91 9 -133 16 -165 30 -11 4 -28 11 -37 14 -23 7 -22 14 2 54 24 39 33 40 54 7 9 -14 25 -25 36 -25 24 0 26 13 5 33 -7 8 -17 27 -21 43 l-7 28 29 -19 c16 -10 47 -28 69 -40z" fill="#ffffff" id="ffffff-000044"/>
    <path stroke="none" d="M3560 6266 c0 -20 -28 -39 -46 -32 -15 6 -14 9 6 31 23 25 40 25 40 1z" fill="#ffffff" id="ffffff-000047"/>
    <path stroke="none" d="M4638 6266 c2 -10 -3 -26 -12 -35 -9 -10 -14 -25 -10 -35 3 -9 2 -22 -4 -29 -5 -6 -10 -41 -11 -76 -1 -71 -3 -76 -26 -68 -17 7 -21 57 -4 57 8 0 8 5 -1 15 -7 9 -10 26 -6 42 4 16 9 44 12 63 12 72 53 115 62 66z" fill="#ffffff" id="ffffff-000048"/>
    <path stroke="none" d="M3956 6171 c5 -5 36 -11 70 -14 107 -9 223 -67 328 -162 63 -58 82 -94 56 -110 -5 -3 -10 -15 -10 -26 0 -16 7 -19 39 -19 32 0 43 -5 58 -27 50 -74 52 -132 2 -63 -16 22 -32 40 -37 41 -38 4 -60 8 -77 14 -15 4 -30 -2 -54 -25 -31 -30 -33 -31 -52 -14 -10 9 -19 22 -19 28 0 22 -53 84 -91 105 -30 17 -50 22 -77 18 -87 -13 -87 -13 -90 12 -7 50 -81 140 -174 214 -15 12 -28 25 -28 30 0 10 144 9 156 -2z" fill="#ffffff" id="ffffff-000049"/>
    <path stroke="none" d="M3704 6151 c3 -5 -1 -12 -10 -15 -22 -9 -24 -8 -24 9 0 16 25 21 34 6z" fill="#ffffff" id="ffffff-000051"/>
    <path stroke="none" d="M2484 6115 c16 -24 22 -55 10 -55 -11 0 -54 59 -54 75 0 15 30 2 44 -20z" fill="#ffffff" id="ffffff-000052"/>
    <path stroke="none" d="M3790 6109 c10 -18 9 -20 -7 -17 -10 2 -19 11 -21 21 -5 24 15 21 28 -4z" fill="#ffffff" id="ffffff-000053"/>
    <path stroke="none" d="M3635 6094 c0 -16 -7 -19 -45 -19 -25 -1 -51 1 -57 3 -23 7 -13 22 15 23 15 0 36 4 47 9 28 12 40 7 40 -16z" fill="#ffffff" id="ffffff-000055"/>
    <path stroke="none" d="M3775 6048 c15 -7 25 -19 25 -33 0 -11 6 -27 13 -34 10 -10 8 -15 -10 -29 -23 -18 -24 -32 -8 -118 4 -25 3 -44 -3 -48 -14 -8 -44 87 -49 152 -2 30 -8 62 -13 72 -24 45 -6 61 45 38z" fill="#ffffff" id="ffffff-000057"/>
    <path stroke="none" d="M2577 5976 c27 -35 72 -89 101 -121 29 -32 64 -74 77 -94 12 -20 35 -47 50 -61 15 -14 35 -41 45 -60 10 -19 71 -89 135 -155 64 -66 131 -138 148 -160 51 -66 130 -145 171 -171 27 -19 35 -29 28 -36 -11 -11 -90 34 -144 82 -13 12 -60 53 -105 91 -46 39 -83 74 -83 78 0 3 -33 41 -72 83 -96 99 -168 186 -168 202 0 6 -22 34 -50 61 -27 27 -50 57 -50 66 0 10 -19 41 -42 71 -24 29 -58 82 -75 117 -53 105 -41 107 34 7z" fill="#ffffff" id="ffffff-000056"/>
    <path stroke="none" d="M3649 6005 c11 -14 23 -39 26 -55 4 -17 11 -32 16 -35 5 -4 9 -19 9 -34 0 -15 4 -31 9 -36 4 -6 11 -25 15 -43 9 -48 -16 -36 -28 13 -5 20 -16 45 -25 54 -27 27 -74 129 -68 145 9 23 23 20 46 -9z" fill="#ffffff" id="ffffff-000058"/>
    <path stroke="none" d="M4598 5967 c4 -21 -16 -49 -29 -41 -5 3 -9 19 -9 35 0 24 4 30 17 27 10 -2 19 -11 21 -21z" fill="#ffffff" id="ffffff-000059"/>
    <path stroke="none" d="M3880 5950 c0 -5 -4 -10 -10 -10 -5 0 -10 5 -10 10 0 6 5 10 10 10 6 0 10 -4 10 -10z" fill="#ffffff" id="ffffff-000061"/>
    <path stroke="none" d="M3600 5910 c0 -5 -7 -10 -16 -10 -8 0 -12 5 -9 10 3 6 10 10 16 10 5 0 9 -4 9 -10z" fill="#ffffff" id="ffffff-000062"/>
    <path stroke="none" d="M3960 5916 c0 -2 -7 -9 -15 -16 -12 -10 -15 -10 -15 4 0 9 7 16 15 16 8 0 15 -2 15 -4z" fill="#ffffff" id="ffffff-000063"/>
    <path stroke="none" d="M4600 5879 c0 -24 -23 -21 -28 4 -2 10 3 17 12 17 10 0 16 -9 16 -21z" fill="#ffffff" id="ffffff-000064"/>
    <path stroke="none" d="M3450 5850 c0 -5 -4 -10 -10 -10 -5 0 -10 5 -10 10 0 6 5 10 10 10 6 0 10 -4 10 -10z" fill="#ffffff" id="ffffff-000065"/>
    <path stroke="none" d="M3950 5845 c11 -13 10 -18 -6 -30 -28 -21 -44 -18 -44 8 0 39 27 50 50 22z" fill="#ffffff" id="ffffff-000066"/>
    <path stroke="none" d="M4115 5816 c0 -21 6 -32 20 -35 31 -9 61 -29 53 -36 -3 -4 -15 -2 -26 4 -25 13 -33 5 -26 -25 7 -28 -2 -30 -27 -8 -21 19 -69 12 -69 -10 0 -15 52 -46 77 -46 7 0 13 -4 13 -10 0 -5 -4 -10 -8 -10 -8 0 -4 -150 3 -158 8 -9 47 22 58 46 11 26 12 24 15 -25 2 -32 8 -54 15 -55 7 0 19 -1 27 -2 11 -1 16 -15 18 -47 4 -58 -16 -83 -54 -69 -14 6 -38 10 -54 10 -16 0 -32 5 -35 10 -3 6 -20 10 -36 10 -16 0 -32 6 -35 13 -7 18 -61 58 -82 61 -14 2 -18 17 -20 69 -3 58 -6 69 -27 83 -13 8 -25 25 -27 37 -2 14 -10 22 -23 22 -21 0 -22 11 -9 87 7 44 29 67 46 50 9 -9 7 -16 -6 -31 -23 -25 -18 -66 8 -66 20 0 37 24 77 103 23 45 28 49 47 30 18 -18 14 -46 -8 -58 -19 -10 -28 -40 -12 -40 27 0 51 34 57 80 6 45 10 51 29 48 16 -2 21 -10 21 -32z" fill="#ffffff" id="ffffff-000067"/>
    <path stroke="none" d="M3500 5800 c0 -5 -4 -10 -10 -10 -5 0 -10 5 -10 10 0 6 5 10 10 10 6 0 10 -4 10 -10z" fill="#ffffff" id="ffffff-000069"/>
    <path stroke="none" d="M4620 5765 c6 -8 9 -23 5 -35 -4 -12 -2 -27 5 -35 8 -10 8 -18 -2 -34 -10 -16 -10 -23 0 -33 17 -17 15 -38 -5 -60 -15 -17 -15 -19 1 -37 17 -18 16 -21 -7 -65 -13 -25 -35 -54 -48 -65 -13 -11 -20 -20 -15 -21 14 0 -25 -40 -39 -40 -7 0 -18 -7 -25 -15 -10 -12 -16 -13 -27 -3 -13 10 -14 32 -8 133 6 102 10 123 28 143 11 12 26 22 34 22 19 0 16 -58 -7 -105 -21 -46 -11 -68 18 -42 27 25 47 119 46 220 0 75 2 87 17 87 9 0 22 -7 29 -15z" fill="#ffffff" id="ffffff-000071"/>
    <path stroke="none" d="M4394 5754 c30 -12 18 -34 -19 -34 -38 0 -46 13 -17 29 21 13 17 12 36 5z" fill="#ffffff" id="ffffff-000073"/>
    <path stroke="none" d="M3585 5700 c3 -5 2 -10 -4 -10 -5 0 -13 5 -16 10 -3 6 -2 10 4 10 5 0 13 -4 16 -10z" fill="#ffffff" id="ffffff-000075"/>
    <path stroke="none" d="M3755 5660 c4 -6 15 -8 25 -5 11 4 23 -1 32 -13 7 -10 21 -21 31 -25 15 -6 17 -17 15 -74 -2 -38 -7 -68 -13 -68 -5 0 -10 12 -10 27 -1 15 -9 35 -18 46 -9 10 -17 28 -17 40 0 29 -14 28 -30 -3 -17 -32 -25 -32 -40 5 -19 45 3 105 25 70z" fill="#ffffff" id="ffffff-000076"/>
    <path stroke="none" d="M3458 5641 c3 -8 -1 -12 -9 -9 -7 2 -15 10 -17 17 -3 8 1 12 9 9 7 -2 15 -10 17 -17z" fill="#ffffff" id="ffffff-000077"/>
    <path stroke="none" d="M4400 5630 c0 -5 -4 -10 -10 -10 -5 0 -10 5 -10 10 0 6 5 10 10 10 6 0 10 -4 10 -10z" fill="#ffffff" id="ffffff-000079"/>
    <path stroke="none" d="M4194 5591 c3 -4 3 -11 0 -14 -8 -8 -34 3 -34 14 0 11 27 12 34 0z" fill="#ffffff" id="ffffff-000081"/>
    <path stroke="none" d="M3520 5575 c0 -8 -4 -15 -9 -15 -5 0 -11 7 -15 15 -3 9 0 15 9 15 8 0 15 -7 15 -15z" fill="#ffffff" id="ffffff-000080"/>
    <path stroke="none" d="M3654 5537 c6 -9 7 -19 3 -23 -9 -9 -37 15 -37 33 0 18 20 12 34 -10z" fill="#ffffff" id="ffffff-000082"/>
    <path stroke="none" d="M4320 5475 c0 -74 -11 -100 -28 -68 -9 15 -6 109 4 141 10 34 24 -7 24 -73z" fill="#ffffff" id="ffffff-000083"/>
    <path stroke="none" d="M4800 5530 c0 -25 -29 -38 -41 -19 -6 9 -3 18 8 27 24 17 33 15 33 -8z" fill="#ffffff" id="ffffff-000085"/>
    <path stroke="none" d="M3900 5490 c0 -5 -4 -10 -10 -10 -5 0 -10 5 -10 10 0 6 5 10 10 10 6 0 10 -4 10 -10z" fill="#ffffff" id="ffffff-000087"/>
    <path stroke="none" d="M3856 5335 c82 -76 130 -102 247 -136 42 -12 77 -28 77 -34 0 -19 -23 -35 -52 -35 -16 0 -45 -7 -65 -15 -22 -9 -67 -15 -120 -15 -46 0 -93 -5 -105 -11 -25 -14 -87 -3 -95 17 -3 8 2 29 10 47 37 79 48 114 50 164 1 29 5 53 8 53 4 0 24 -16 45 -35z" fill="#ffffff" id="ffffff-000088"/>
    <path stroke="none" d="M4325 5318 c6 -14 22 -25 40 -28 37 -6 36 -24 -2 -28 -29 -4 -62 28 -63 61 0 24 13 21 25 -5z" fill="#ffffff" id="ffffff-000091"/>
    <path stroke="none" d="M3640 5314 c11 -13 10 -19 -8 -37 -29 -28 -48 -12 -31 26 14 31 21 33 39 11z" fill="#ffffff" id="ffffff-000090"/>
    <path stroke="none" d="M2878 5061 c3 -10 -2 -11 -19 -6 -39 12 -48 27 -15 23 16 -2 31 -9 34 -17z" fill="#ffffff" id="ffffff-000093"/>
    <path stroke="none" d="M3125 5067 c23 -17 12 -37 -21 -37 -28 0 -44 28 -23 41 19 12 22 11 44 -4z" fill="#ffffff" id="ffffff-000094"/>
    <path stroke="none" d="M2890 4952 c41 -35 34 -52 -23 -52 -23 -1 -53 -7 -67 -15 -14 -7 -37 -11 -53 -8 -18 4 -34 0 -47 -12 -21 -19 -40 -13 -40 13 0 28 121 100 170 101 15 1 41 -12 60 -27z" fill="#ffffff" id="ffffff-000095"/>
    <path stroke="none" d="M3366 4947 c13 -43 8 -57 -20 -57 -25 0 -66 26 -66 42 0 20 32 48 54 48 15 0 24 -9 32 -33z" fill="#ffffff" id="ffffff-000096"/>
    <path stroke="none" d="M3080 4835 c0 -8 -4 -15 -10 -15 -5 0 -10 7 -10 15 0 8 5 15 10 15 6 0 10 -7 10 -15z" fill="#ffffff" id="ffffff-000097"/>
    <path stroke="none" d="M3205 4826 c19 -8 35 -22 35 -30 0 -18 -11 -21 -25 -7 -6 5 -21 11 -35 13 -14 2 -26 11 -28 21 -4 21 8 21 53 3z" fill="#ffffff" id="ffffff-000098"/>
    <path stroke="none" d="M3560 4773 c8 -4 51 -18 95 -33 96 -32 114 -55 96 -123 -6 -23 -13 -87 -16 -142 -3 -55 -9 -118 -13 -140 -9 -45 1 -43 -132 -26 l-85 11 -25 -30 c-14 -17 -33 -30 -42 -30 -23 0 -30 -14 -35 -74 -2 -28 -8 -62 -13 -76 -5 -14 -11 -95 -15 -180 -7 -168 -10 -197 -19 -228 -7 -22 -19 -136 -37 -342 -5 -69 -16 -156 -24 -195 -8 -38 -15 -108 -15 -156 0 -47 -4 -89 -9 -95 -11 -12 -18 -63 -35 -294 -15 -183 -31 -306 -45 -345 -5 -11 -9 -56 -10 -99 -1 -44 -6 -102 -12 -129 -5 -27 -9 -76 -9 -109 0 -33 -4 -67 -9 -76 -5 -10 -12 -58 -15 -107 -4 -50 -11 -128 -16 -175 -9 -81 -8 -87 15 -122 14 -21 25 -42 25 -48 0 -6 23 -34 52 -61 l52 -50 -2 -66 c-3 -70 13 -103 48 -103 25 0 40 -22 33 -49 -4 -16 -10 -20 -22 -15 -9 4 -43 10 -76 12 -33 2 -64 8 -69 13 -6 5 -17 9 -26 9 -9 0 -41 16 -71 35 -65 40 -86 84 -75 156 3 24 10 89 15 144 11 116 27 238 41 310 6 28 14 95 19 150 5 55 15 120 21 145 6 25 16 90 20 145 13 143 39 342 53 395 3 14 8 72 11 130 3 58 10 128 17 155 6 28 15 97 20 155 20 230 27 288 43 355 9 38 16 101 16 139 0 38 4 83 9 100 6 17 15 72 21 121 30 234 42 337 50 420 5 50 14 122 20 160 17 119 30 236 35 330 4 85 6 92 35 117 29 27 59 30 110 11z" fill="#ffffff" id="ffffff-000099"/>
    <path stroke="none" d="M2444 4727 c16 -12 17 -16 5 -38 -8 -13 -24 -37 -36 -52 -13 -16 -23 -35 -23 -43 0 -8 -12 -38 -26 -67 -14 -28 -38 -76 -52 -105 -20 -40 -27 -68 -27 -115 0 -43 -6 -70 -18 -89 -26 -37 -59 -247 -52 -323 14 -141 37 -302 49 -330 7 -16 18 -52 25 -80 7 -27 18 -57 25 -65 7 -8 22 -33 33 -55 11 -22 36 -70 56 -108 20 -37 37 -73 37 -81 0 -7 8 -24 19 -37 10 -13 35 -55 55 -94 53 -99 79 -141 103 -167 11 -13 30 -41 41 -64 33 -65 101 -163 121 -173 10 -6 24 -25 31 -43 7 -18 18 -46 25 -63 7 -16 18 -49 24 -72 7 -23 24 -57 39 -74 32 -39 37 -84 21 -209 -16 -128 -53 -165 -99 -100 -19 27 -20 38 -14 135 6 98 4 111 -22 193 -36 110 -86 201 -161 294 -141 174 -164 205 -184 248 -17 36 -72 110 -168 226 -18 21 -91 171 -91 186 0 8 -5 19 -10 24 -6 6 -17 55 -25 110 -8 54 -19 124 -25 154 -30 146 -34 225 -25 518 3 118 12 155 76 290 16 34 29 67 29 73 0 12 105 143 138 172 16 15 55 32 83 36 3 1 13 -5 23 -12z" fill="#ffffff" id="ffffff-000100"/>
    <path stroke="none" d="M3868 4624 c68 -67 142 -87 257 -68 22 3 47 12 55 19 28 25 67 35 79 21 6 -7 8 -15 6 -18 -3 -3 -6 -68 -5 -144 0 -177 -8 -254 -28 -261 -8 -4 -20 0 -26 8 -15 20 -65 40 -96 37 -14 -1 -69 2 -122 6 l-96 8 -30 -29 c-38 -37 -42 -56 -48 -240 -2 -85 -9 -176 -15 -201 -5 -25 -10 -71 -9 -101 1 -115 -16 -455 -30 -601 -25 -264 -29 -335 -35 -575 -4 -142 -10 -266 -15 -275 -4 -8 -10 -85 -14 -170 -9 -251 -12 -285 -31 -314 -9 -14 -25 -26 -36 -26 -16 0 -17 8 -13 87 2 49 7 138 9 198 3 61 10 166 15 235 10 119 12 167 10 200 -1 33 19 239 29 295 9 53 17 242 26 615 1 63 7 169 14 235 6 66 16 192 21 280 6 88 15 183 21 210 6 28 11 77 13 110 1 34 6 66 10 73 9 15 15 86 21 232 3 110 13 190 22 190 2 0 21 -16 41 -36z" fill="#ffffff" id="ffffff-000101"/>
    <path stroke="none" d="M5773 4587 c-8 -13 -23 3 -23 26 0 20 0 20 14 2 8 -11 12 -23 9 -28z" fill="#ffffff" id="ffffff-000102"/>
    <path stroke="none" d="M5408 4607 c6 -7 11 -82 11 -190 1 -145 -1 -177 -13 -177 -20 0 -22 11 -25 165 -2 77 -5 143 -8 148 -7 11 7 67 17 67 4 0 12 -6 18 -13z" fill="#ffffff" id="ffffff-000103"/>
    <path stroke="none" d="M5499 4510 c-1 -61 -5 -113 -9 -115 -14 -9 -27 205 -13 218 19 19 23 -3 22 -103z" fill="#ffffff" id="ffffff-000104"/>
    <path stroke="none" d="M4928 4588 c18 -22 23 -77 27 -328 7 -356 6 -501 -9 -1085 -3 -126 -8 -324 -11 -440 -3 -115 -7 -262 -10 -325 -3 -63 -7 -241 -10 -395 -3 -154 -8 -318 -10 -365 -7 -129 -26 -556 -28 -630 -2 -58 -4 -65 -22 -65 -19 0 -20 5 -15 80 10 165 8 184 -28 214 -43 35 -43 75 -2 110 l30 26 1 210 c1 202 -6 265 -30 265 -15 0 -30 62 -19 83 5 9 15 17 23 17 32 0 36 40 41 433 4 400 6 475 23 747 5 85 10 216 11 290 1 74 3 147 5 161 1 14 5 147 6 295 4 249 3 269 -13 272 -12 2 -21 -6 -28 -22 -11 -30 -32 -26 -48 9 -19 42 -76 63 -172 63 -152 1 -206 -7 -233 -33 -13 -14 -29 -44 -36 -67 -15 -48 -33 -490 -22 -520 4 -11 4 -54 -1 -97 -4 -42 -10 -176 -13 -297 -3 -120 -5 -228 -6 -239 0 -11 0 -31 0 -45 1 -14 -3 -92 -9 -175 -10 -150 -14 -260 -25 -685 -4 -124 -8 -231 -11 -239 -3 -8 -5 -132 -4 -276 0 -212 -3 -265 -14 -281 -10 -13 -18 -16 -25 -9 -11 11 -12 23 -6 170 10 275 8 671 -3 692 -10 18 -8 30 8 68 19 43 20 69 20 355 0 170 4 331 10 357 5 26 12 167 14 313 3 146 7 294 10 330 10 140 16 297 21 582 5 278 15 432 30 446 3 3 36 -9 72 -28 63 -34 71 -35 172 -35 104 0 107 1 155 34 49 34 126 68 157 70 9 1 21 -5 27 -11z" fill="#ffffff" id="ffffff-000105"/>
    <path stroke="none" d="M3081 4442 c74 -49 98 -69 137 -118 57 -71 64 -115 51 -292 -5 -75 -14 -148 -19 -162 -14 -39 -22 -96 -32 -225 -5 -66 -11 -140 -14 -165 -2 -25 -6 -97 -7 -160 -3 -103 -9 -163 -23 -255 -3 -16 -9 -58 -13 -92 -5 -34 -11 -65 -14 -70 -3 -5 -8 -51 -11 -103 -8 -149 -19 -162 -60 -70 -15 33 -37 72 -50 87 -13 16 -36 51 -51 78 -15 28 -35 59 -45 70 -9 11 -35 49 -56 85 -21 36 -44 71 -51 78 -6 6 -15 22 -19 35 -3 12 -16 36 -28 52 -96 130 -241 404 -261 494 -27 117 -12 362 28 455 9 21 17 44 17 52 0 29 41 121 69 154 l29 35 95 -3 c97 -4 163 10 210 43 29 20 86 19 118 -3z" fill="#ffffff" id="ffffff-000106"/>
    <path stroke="none" d="M5927 4233 c-4 -3 -7 0 -7 7 0 7 3 10 7 7 3 -4 3 -10 0 -14z" fill="#ffffff" id="ffffff-000108"/>
    <path stroke="none" d="M5502 4133 c1 -49 3 -104 4 -123 2 -19 6 -129 9 -245 4 -115 11 -214 16 -219 12 -13 12 -133 0 -140 -23 -15 -39 163 -47 527 -5 214 -4 287 4 287 8 0 13 -29 14 -87z" fill="#ffffff" id="ffffff-000107"/>
    <path stroke="none" d="M4846 3962 c-12 -12 -18 8 -10 35 l8 28 4 -28 c2 -16 1 -31 -2 -35z" fill="#ffffff" id="ffffff-000109"/>
    <path stroke="none" d="M4240 3931 c0 -24 -18 -37 -32 -23 -8 8 -7 16 2 27 17 21 30 19 30 -4z" fill="#ffffff" id="ffffff-000110"/>
    <path stroke="none" d="M4230 3767 c0 -39 -14 -62 -30 -52 -11 7 -7 66 7 88 9 16 23 -5 23 -36z" fill="#ffffff" id="ffffff-000113"/>
    <path stroke="none" d="M6869 3346 c51 -4 71 -10 100 -33 20 -16 44 -32 53 -36 11 -4 15 -12 12 -22 -5 -11 1 -15 20 -15 27 0 33 9 17 25 -5 6 -11 21 -13 35 -4 32 22 34 38 3 6 -13 18 -31 27 -41 10 -10 17 -28 17 -40 0 -11 10 -28 22 -36 17 -12 18 -16 6 -16 -8 0 -21 7 -28 15 -7 8 -23 15 -37 15 -39 0 -24 -32 27 -57 51 -27 90 -30 90 -8 0 8 4 15 9 15 5 0 11 -7 15 -15 3 -8 15 -15 26 -15 36 0 21 -19 -17 -22 l-38 -3 53 -53 c28 -30 52 -57 52 -61 0 -4 14 -20 30 -36 17 -16 30 -34 30 -40 0 -6 16 -30 35 -52 19 -23 35 -47 35 -53 0 -7 9 -23 20 -37 16 -20 18 -29 9 -40 -9 -10 -9 -19 1 -37 7 -13 10 -30 8 -38 -3 -7 2 -24 11 -38 19 -29 37 -79 46 -131 5 -29 2 -41 -19 -66 -14 -17 -26 -37 -26 -44 0 -8 -16 -34 -35 -57 -50 -64 -60 -112 -17 -86 23 14 91 124 91 148 1 11 19 36 40 58 22 21 41 46 43 56 2 9 9 17 15 17 7 0 18 9 26 19 21 29 40 11 32 -30 -3 -19 -1 -43 5 -54 8 -14 7 -25 -2 -39 -9 -15 -8 -24 5 -45 22 -32 21 -36 -3 -36 -24 0 -25 -17 -5 -56 8 -16 15 -46 15 -66 0 -30 -4 -38 -18 -38 -10 0 -22 -3 -26 -7 -9 -9 -109 -42 -161 -53 -22 -5 -60 -14 -85 -20 -25 -7 -64 -14 -87 -17 -37 -4 -43 -2 -64 26 -16 22 -31 31 -51 31 -28 0 -39 17 -15 25 6 2 37 6 67 9 64 5 110 21 110 37 0 8 -11 9 -31 5 -39 -7 -59 7 -59 43 0 79 -49 240 -92 303 -10 14 -18 33 -18 40 0 14 39 38 62 38 7 0 22 10 35 22 18 17 23 32 23 73 0 28 5 56 12 63 17 17 -6 55 -51 80 -20 11 -77 34 -127 50 -50 17 -106 39 -125 50 -31 17 -38 18 -54 6 -21 -15 -111 -19 -119 -5 -3 5 1 14 10 21 21 18 1 30 -49 30 -31 0 -38 3 -35 18 3 14 13 17 53 15 52 -3 115 21 123 44 7 23 -44 34 -76 16 -36 -20 -66 -13 -116 28 -47 39 -66 82 -66 148 0 54 -12 70 -36 50 -11 -9 -18 -9 -26 -1 -30 30 24 34 251 18z" fill="#ffffff" id="ffffff-000115"/>
    <path stroke="none" d="M5541 3298 c1 -29 4 -87 6 -128 3 -41 6 -211 8 -377 2 -202 7 -308 15 -323 8 -15 9 -30 1 -51 -6 -18 -7 -39 -1 -53 5 -13 6 -26 4 -29 -3 -3 2 -82 11 -176 9 -94 15 -188 14 -209 -1 -20 2 -80 6 -132 4 -52 11 -153 16 -225 17 -222 16 -259 -3 -263 -14 -3 -17 11 -21 100 -3 57 -10 146 -16 198 -5 52 -13 174 -16 270 -4 96 -8 177 -10 180 -2 4 -6 58 -10 121 -3 63 -10 168 -16 234 -6 66 -9 179 -6 250 2 72 0 245 -5 385 -5 140 -6 260 -4 267 12 30 26 9 27 -39z" fill="#ffffff" id="ffffff-000114"/>
    <path stroke="none" d="M7180 3306 c0 -3 -4 -8 -10 -11 -5 -3 -10 -1 -10 4 0 6 5 11 10 11 6 0 10 -2 10 -4z" fill="#ffffff" id="ffffff-000116"/>
    <path stroke="none" d="M7388 3244 c39 -19 44 -47 8 -38 -29 7 -42 -9 -21 -26 19 -16 19 -36 0 -44 -18 -6 -20 -58 -4 -89 31 -61 74 -82 100 -51 10 13 10 19 0 36 -14 23 -9 33 14 25 24 -10 19 -64 -10 -92 -32 -33 -48 -31 -78 8 -14 17 -39 47 -57 66 -22 23 -28 37 -21 45 6 7 8 21 5 33 -3 12 2 33 11 47 12 18 15 36 11 61 -8 39 -2 42 42 19z" fill="#ffffff" id="ffffff-000118"/>
    <path stroke="none" d="M7310 3200 c0 -15 -7 -20 -25 -20 -18 0 -25 5 -25 20 0 15 7 20 25 20 18 0 25 -5 25 -20z" fill="#ffffff" id="ffffff-000119"/>
    <path stroke="none" d="M6696 3118 l17 -32 -24 16 c-13 8 -25 23 -27 32 -6 28 17 17 34 -16z" fill="#ffffff" id="ffffff-000122"/>
    <path stroke="none" d="M7627 3063 c-4 -3 -7 0 -7 7 0 7 3 10 7 7 3 -4 3 -10 0 -14z" fill="#ffffff" id="ffffff-000124"/>
    <path stroke="none" d="M4140 3005 c0 -8 -4 -15 -10 -15 -5 0 -10 7 -10 15 0 8 5 15 10 15 6 0 10 -7 10 -15z" fill="#ffffff" id="ffffff-000125"/>
    <path stroke="none" d="M6760 2950 c0 -5 -4 -10 -10 -10 -5 0 -10 5 -10 10 0 6 5 10 10 10 6 0 10 -4 10 -10z" fill="#ffffff" id="ffffff-000127"/>
    <path stroke="none" d="M7833 2923 c27 -14 28 -15 13 -38 -20 -30 -20 -36 -1 -29 11 5 15 -1 15 -21 0 -18 -6 -29 -20 -32 -11 -3 -20 -9 -20 -14 0 -14 -71 -26 -135 -23 -63 2 -83 18 -42 33 27 11 57 61 57 97 0 50 63 62 133 27z" fill="#ffffff" id="ffffff-000128"/>
    <path stroke="none" d="M7000 2885 c71 -3 172 -27 208 -51 53 -35 9 -69 -104 -79 -77 -6 -84 -5 -156 26 -63 27 -77 37 -81 58 -2 14 -8 35 -12 45 -8 18 -5 19 36 11 24 -4 73 -8 109 -10z" fill="#ffffff" id="ffffff-000129"/>
    <path stroke="none" d="M7900 2865 c0 -8 -4 -15 -10 -15 -5 0 -10 7 -10 15 0 8 5 15 10 15 6 0 10 -7 10 -15z" fill="#ffffff" id="ffffff-000131"/>
    <path stroke="none" d="M6785 2800 c-3 -5 -13 -10 -21 -10 -8 0 -12 5 -9 10 3 6 13 10 21 10 8 0 12 -4 9 -10z" fill="#ffffff" id="ffffff-000132"/>
    <path stroke="none" d="M6700 2780 c0 -5 -9 -14 -21 -20 -15 -9 -20 -19 -17 -42 4 -43 -12 -44 -52 -3 -39 40 -34 54 27 65 55 11 63 11 63 0z" fill="#ffffff" id="ffffff-000133"/>
    <path stroke="none" d="M6537 2698 c31 -29 29 -38 -9 -38 -33 0 -68 24 -68 47 0 21 51 15 77 -9z" fill="#ffffff" id="ffffff-000134"/>
    <path stroke="none" d="M7210 2695 c0 -19 -20 -29 -32 -17 -8 8 -7 16 2 26 14 17 30 12 30 -9z" fill="#ffffff" id="ffffff-000135"/>
    <path stroke="none" d="M7609 2686 c18 -11 13 -24 -11 -28 -20 -3 -23 -8 -20 -41 3 -33 0 -38 -15 -35 -13 2 -19 14 -21 43 -2 22 -8 45 -14 52 -17 21 0 31 36 23 18 -4 39 -10 45 -14z" fill="#ffffff" id="ffffff-000137"/>
    <path stroke="none" d="M7005 2670 c-5 -8 -11 -8 -17 -2 -6 6 -7 16 -3 22 5 8 11 8 17 2 6 -6 7 -16 3 -22z" fill="#ffffff" id="ffffff-000136"/>
    <path stroke="none" d="M7120 2664 c0 -8 -7 -14 -15 -14 -15 0 -21 21 -9 33 10 9 24 -2 24 -19z" fill="#ffffff" id="ffffff-000138"/>
    <path stroke="none" d="M6364 2642 c11 -14 14 -28 10 -51 -7 -31 -9 -33 -41 -28 -19 4 -41 11 -48 17 -19 16 -7 48 24 65 34 18 35 18 55 -3z" fill="#ffffff" id="ffffff-000139"/>
    <path stroke="none" d="M7995 2651 c7 -12 -12 -24 -25 -16 -11 7 -4 25 10 25 5 0 11 -4 15 -9z" fill="#ffffff" id="ffffff-000142"/>
    <path stroke="none" d="M6888 2644 c34 -10 26 -22 -20 -34 -24 -6 -51 -13 -61 -16 -19 -6 -33 17 -23 41 6 16 60 20 104 9z" fill="#ffffff" id="ffffff-000140"/>
    <path stroke="none" d="M7045 2590 c19 0 43 -9 60 -24 24 -21 29 -33 29 -73 1 -47 1 -48 -29 -46 -16 1 -54 -6 -83 -17 -79 -30 -93 -27 -158 35 -33 30 -62 55 -66 55 -5 0 -8 9 -8 19 0 16 11 22 58 31 31 7 68 16 82 21 14 4 38 6 54 4 16 -3 43 -5 61 -5z" fill="#ffffff" id="ffffff-000145"/>
    <path stroke="none" d="M7750 2580 c11 -7 12 -12 3 -21 -13 -13 -33 -4 -33 17 0 16 9 18 30 4z" fill="#ffffff" id="ffffff-000147"/>
    <path stroke="none" d="M8083 2575 c1 -6 -15 -11 -35 -13 -34 -3 -47 5 -33 20 10 9 65 3 68 -7z" fill="#ffffff" id="ffffff-000146"/>
    <path stroke="none" d="M6222 2540 c18 -11 43 -20 55 -20 12 0 88 -32 168 -71 134 -64 154 -71 237 -80 49 -5 94 -6 99 -3 5 3 35 2 67 -2 56 -6 58 -8 168 -116 109 -107 112 -111 117 -161 5 -59 28 -83 85 -92 73 -12 80 -15 95 -47 9 -18 19 -62 23 -97 4 -36 15 -87 25 -115 30 -80 27 -86 -31 -86 -93 0 -170 -60 -170 -133 0 -41 9 -49 76 -71 46 -15 65 -15 160 -5 60 6 143 11 184 10 82 -2 230 -29 230 -42 0 -5 -53 -9 -117 -10 -195 -1 -190 1 -245 -57 -55 -58 -60 -87 -23 -122 33 -31 32 -37 -12 -43 -21 -3 -50 -9 -65 -12 -22 -6 -28 -4 -28 8 0 25 -39 40 -99 37 -31 -1 -90 -3 -131 -4 -41 -1 -87 -6 -102 -10 l-28 -8 6 48 c3 27 17 70 30 96 27 53 22 84 -18 110 -12 9 -50 43 -84 76 -66 65 -117 95 -179 106 -21 4 -65 21 -97 38 -49 25 -202 68 -245 68 -7 0 -13 -9 -13 -20 0 -20 33 -42 82 -54 26 -6 103 -39 216 -93 48 -23 74 -52 35 -40 -47 14 -139 50 -148 57 -25 20 -187 62 -250 64 -47 1 -65 -21 -46 -58 16 -30 87 -59 184 -77 38 -6 74 -18 80 -26 7 -9 25 -29 40 -45 15 -17 26 -32 24 -35 -9 -8 -103 30 -127 52 -14 13 -56 33 -95 46 -38 12 -81 30 -94 41 -17 13 -33 17 -52 13 l-27 -6 -6 83 c-3 46 -5 97 -6 113 0 17 -4 68 -10 115 -5 47 -12 137 -15 200 -3 63 -8 136 -11 163 -7 59 -13 319 -7 330 8 14 63 7 95 -13z" fill="#ffffff" id="ffffff-000148"/>
    <path stroke="none" d="M6058 2454 c8 -38 15 -94 16 -126 1 -31 8 -68 16 -82 11 -22 11 -30 0 -51 -9 -18 -11 -42 -4 -92 8 -68 10 -117 6 -183 -2 -39 7 -157 14 -179 2 -7 6 -102 8 -210 3 -108 8 -241 11 -296 7 -93 6 -102 -14 -125 -21 -24 -21 -25 -36 -6 -12 15 -15 55 -17 175 -3 218 -5 277 -17 431 -6 74 -13 217 -16 318 -2 100 -8 190 -13 200 -14 26 -14 272 0 289 20 24 32 8 46 -63z" fill="#ffffff" id="ffffff-000149"/>
    <path stroke="none" d="M6749 2492 c47 -35 67 -59 57 -69 -9 -9 -153 -5 -171 4 -11 6 -51 21 -90 33 -82 27 -125 47 -125 59 0 5 63 9 140 9 l139 1 50 -37z" fill="#ffffff" id="ffffff-000150"/>
    <path stroke="none" d="M7950 2516 c0 -16 -18 -31 -27 -22 -8 8 5 36 17 36 5 0 10 -6 10 -14z" fill="#ffffff" id="ffffff-000151"/>
    <path stroke="none" d="M5670 2505 c0 -9 -6 -12 -15 -9 -8 4 -15 10 -15 15 0 5 7 9 15 9 8 0 15 -7 15 -15z" fill="#ffffff" id="ffffff-000152"/>
    <path stroke="none" d="M8172 2487 c4 -23 79 -58 86 -39 6 20 29 14 45 -12 15 -23 15 -24 -6 -30 -44 -12 -74 -5 -107 24 -35 29 -70 39 -70 20 0 -5 -7 -10 -15 -10 -11 0 -14 -7 -9 -25 13 -54 -34 -14 -51 43 -5 18 -2 22 14 22 12 0 21 6 21 13 0 9 14 14 45 14 36 0 45 -4 47 -20z" fill="#ffffff" id="ffffff-000153"/>
    <path stroke="none" d="M4167 2440 c-5 -37 -20 -44 -22 -10 -3 28 2 40 16 40 5 0 7 -14 6 -30z" fill="#ffffff" id="ffffff-000154"/>
    <path stroke="none" d="M7222 2398 c7 -13 16 -50 20 -83 16 -115 17 -110 -22 -113 -19 -2 -40 -7 -45 -12 -7 -5 -45 23 -100 75 -77 72 -87 86 -76 99 9 11 30 16 61 16 25 0 50 3 54 7 8 8 65 30 83 32 7 0 18 -9 25 -21z" fill="#ffffff" id="ffffff-000155"/>
    <path stroke="none" d="M8200 2380 c14 -11 32 -20 40 -20 21 -1 53 -27 42 -34 -5 -3 -28 4 -52 15 -23 11 -44 18 -47 15 -13 -13 8 -32 52 -49 l48 -17 33 35 c29 31 38 35 83 35 28 0 51 -4 51 -10 0 -5 -3 -10 -7 -11 -5 0 -20 -2 -35 -3 -31 -2 -68 -32 -68 -55 0 -21 -108 -55 -136 -44 -33 14 -84 47 -84 55 0 12 38 10 45 -2 3 -5 15 -10 26 -10 10 0 19 5 19 10 0 6 -9 10 -20 10 -11 0 -20 4 -20 8 0 5 -11 15 -25 22 -31 17 -32 42 -2 56 30 16 29 16 57 -6z" fill="#ffffff" id="ffffff-000167"/>
    <path stroke="none" d="M7900 2359 c0 -6 7 -17 15 -25 16 -16 20 -34 8 -34 -16 1 -64 50 -58 60 8 13 35 13 35 -1z" fill="#ffffff" id="ffffff-000158"/>
    <path stroke="none" d="M8060 2294 c0 -7 -13 -18 -30 -26 -36 -15 -37 -24 -8 -55 12 -13 18 -26 14 -30 -4 -5 -20 7 -34 25 -35 41 -54 42 -45 2 4 -24 2 -30 -11 -30 -24 0 -37 41 -20 61 8 9 11 19 7 22 -3 4 3 7 15 7 26 0 38 18 23 33 -6 6 -11 18 -11 27 1 10 8 6 21 -12 11 -16 25 -28 30 -28 12 0 12 47 -1 55 -5 3 -10 12 -10 18 1 15 60 -53 60 -69z" fill="#ffffff" id="ffffff-000164"/>
    <path stroke="none" d="M8100 2334 c0 -8 -4 -14 -10 -14 -5 0 -10 2 -10 4 0 2 -3 12 -6 20 -5 12 -2 15 10 10 9 -3 16 -12 16 -20z" fill="#ffffff" id="ffffff-000160"/>
    <path stroke="none" d="M8520 2234 c0 -8 -2 -14 -5 -14 -11 0 -54 48 -48 53 9 9 53 -24 53 -39z" fill="#ffffff" id="ffffff-000173"/>
    <path stroke="none" d="M7748 2252 c2 -7 -3 -12 -12 -12 -9 0 -16 7 -16 16 0 17 22 14 28 -4z" fill="#ffffff" id="ffffff-000168"/>
    <path stroke="none" d="M8152 2235 c16 -14 36 -25 43 -25 7 0 22 -11 33 -25 26 -33 35 -32 27 5 -8 36 13 42 33 10 7 -11 17 -20 23 -20 6 0 8 9 4 20 -5 14 -2 20 9 20 9 0 16 -4 16 -10 0 -5 5 -10 10 -10 6 0 8 11 4 25 -7 30 5 32 37 6 22 -18 23 -22 11 -53 -16 -46 -17 -45 23 -64 40 -19 59 -12 29 10 -29 22 -10 30 28 12 18 -9 38 -28 45 -42 11 -23 10 -27 -7 -31 -37 -10 -20 -30 43 -52 20 -7 45 -10 55 -7 27 9 49 -9 34 -27 -7 -8 -9 -22 -6 -32 6 -15 4 -16 -13 -7 -11 6 -25 18 -33 26 -13 16 -80 23 -80 8 0 -4 14 -16 30 -25 17 -10 30 -26 30 -36 0 -10 7 -24 15 -31 18 -15 20 -37 3 -42 -9 -3 -8 -12 5 -31 41 -63 -50 -11 -101 58 -45 60 -43 73 3 25 16 -16 32 -30 37 -30 18 0 6 28 -23 56 -37 35 -55 74 -38 84 35 22 -100 119 -168 120 -12 0 -12 -37 1 -58 4 -7 4 -21 1 -32 -4 -12 0 -26 9 -36 12 -12 13 -19 4 -37 -6 -12 -14 -29 -18 -37 -4 -8 -17 -16 -29 -18 -27 -4 -27 -13 4 -42 14 -13 30 -41 37 -62 12 -42 27 -49 35 -18 4 14 11 19 23 15 35 -11 32 17 -4 47 -32 26 -48 58 -28 58 11 0 72 -66 72 -78 0 -6 11 -19 26 -28 14 -9 32 -30 40 -46 8 -16 26 -34 39 -40 14 -6 25 -18 25 -27 0 -12 -3 -12 -12 -3 -7 7 -22 12 -34 12 -15 0 -27 10 -36 30 -7 17 -16 30 -20 30 -12 0 -10 -48 2 -55 6 -3 10 -15 10 -27 0 -17 5 -20 29 -15 23 5 30 2 39 -18 13 -28 6 -38 -19 -22 -21 13 -38 2 -21 -15 13 -13 17 -114 4 -122 -4 -2 -14 -1 -21 4 -10 6 -12 22 -8 56 3 31 0 61 -9 83 -8 18 -14 42 -14 53 0 18 -25 36 -37 25 -3 -4 4 -22 16 -42 22 -37 27 -65 13 -65 -5 0 -15 11 -22 25 -18 34 -34 32 -26 -2 4 -16 10 -40 13 -55 3 -15 14 -35 24 -44 11 -10 19 -30 19 -50 0 -29 -6 -35 -64 -68 -35 -20 -67 -36 -70 -36 -3 0 -6 14 -6 30 0 23 4 30 20 30 16 0 20 7 20 30 0 31 -14 41 -23 16 -4 -9 -14 -12 -27 -9 -20 5 -22 3 -18 -37 2 -33 -1 -45 -15 -54 -14 -8 -20 -8 -27 4 -5 8 -5 19 -1 25 22 27 21 135 0 135 -5 0 -9 -22 -9 -49 0 -46 -13 -76 -22 -50 -2 7 -19 -5 -38 -26 -19 -20 -45 -41 -57 -46 -28 -11 -30 -35 -4 -44 22 -7 18 -35 -5 -35 -8 0 -14 -4 -14 -10 0 -15 96 -12 135 4 21 9 37 11 40 5 9 -14 25 -11 25 4 0 9 12 14 31 15 37 1 34 -16 -7 -40 -19 -11 -61 -19 -124 -22 -52 -3 -125 -9 -162 -12 -61 -5 -67 -4 -73 15 -8 26 -21 27 -34 2 -10 -18 -25 -19 -216 -19 -158 -1 -205 2 -205 12 0 19 23 44 45 48 13 2 20 11 20 25 0 12 3 24 6 27 3 3 72 11 154 16 130 9 153 13 192 35 23 14 43 32 43 38 0 18 -21 37 -41 37 -21 0 -49 42 -49 75 0 15 -6 25 -15 25 -8 0 -17 11 -21 25 -6 24 -24 35 -24 15 0 -13 -27 -13 -35 0 -9 14 20 59 56 88 16 13 29 29 29 36 0 7 11 19 25 26 32 17 32 30 1 30 -35 0 -96 -28 -96 -45 0 -17 -41 -48 -51 -37 -7 7 -13 86 -11 137 l2 31 66 2 c67 2 94 13 94 38 0 16 -3 16 -85 14 -78 -2 -119 -29 -113 -74 3 -17 2 -44 -2 -61 -3 -16 0 -47 7 -69 7 -21 13 -47 13 -58 0 -11 9 -32 20 -46 47 -61 90 -135 84 -144 -7 -10 -42 -7 -107 10 -57 15 -217 127 -217 152 0 16 34 20 50 5 22 -20 70 -20 70 0 0 8 -12 17 -27 21 -16 3 -40 10 -56 16 -22 9 -31 7 -46 -6 -18 -16 -20 -16 -45 17 -14 19 -26 39 -26 46 0 7 -7 34 -16 62 -20 59 -12 96 21 109 34 13 31 30 -10 63 -22 18 -35 36 -35 51 0 25 4 27 122 42 26 4 56 15 67 25 13 12 35 19 63 19 24 0 49 4 57 9 20 13 56 -6 70 -36 17 -38 13 -68 -14 -93 -14 -13 -25 -30 -25 -38 0 -12 4 -12 25 2 17 11 47 16 104 16 44 0 83 5 86 10 3 6 14 10 25 10 10 0 20 7 24 15 10 27 -5 45 -38 46 -85 3 -120 39 -36 39 29 0 61 7 74 15 18 12 29 13 51 5 34 -13 62 -5 75 21 6 10 20 19 30 19 11 0 20 5 20 10 0 6 -4 10 -10 10 -5 0 -10 13 -10 29 0 17 -4 33 -10 36 -14 8 -13 35 1 35 6 0 24 -11 41 -25z" fill="#ffffff" id="ffffff-000170"/>
    <path stroke="none" d="M8454 2228 c21 -29 3 -51 -19 -22 -16 22 -19 44 -6 44 6 0 17 -10 25 -22z" fill="#ffffff" id="ffffff-000172"/>
    <path stroke="none" d="M7770 2130 c0 -5 -7 -10 -15 -10 -8 0 -15 5 -15 10 0 6 7 10 15 10 8 0 15 -4 15 -10z" fill="#ffffff" id="ffffff-000180"/>
    <path stroke="none" d="M8387 2065 c26 -11 33 -19 26 -26 -8 -8 -20 -6 -42 7 -17 10 -31 22 -31 26 0 11 5 10 47 -7z" fill="#ffffff" id="ffffff-000183"/>
    <path stroke="none" d="M5856 1852 c-1 -135 -2 -147 -20 -150 -15 -3 -17 0 -11 14 5 11 8 33 7 49 -16 222 -14 249 12 239 11 -4 14 -33 12 -152z" fill="#ffffff" id="ffffff-000184"/>
    <path stroke="none" d="M8433 1982 c10 -10 14 -27 11 -39 -4 -12 1 -32 10 -45 9 -12 16 -31 16 -42 0 -17 -8 -12 -45 24 -35 34 -42 47 -33 57 8 10 8 17 0 25 -7 7 -12 18 -12 25 0 19 34 16 53 -5z" fill="#ffffff" id="ffffff-000185"/>
    <path stroke="none" d="M2860 1910 c0 -5 -13 -10 -30 -10 -16 0 -30 5 -30 10 0 6 14 10 30 10 17 0 30 -4 30 -10z" fill="#ffffff" id="ffffff-000188"/>
    <path stroke="none" d="M3940 1885 c0 -40 -17 -46 -45 -15 -22 25 -13 50 20 50 22 0 25 -4 25 -35z" fill="#ffffff" id="ffffff-000189"/>
    <path stroke="none" d="M8600 1720 c13 -25 13 -30 -3 -30 -8 0 -20 11 -27 25 -7 14 -16 25 -20 25 -10 0 -50 40 -50 51 0 14 88 -48 100 -71z" fill="#ffffff" id="ffffff-000194"/>
    <path stroke="none" d="M4132 1603 c-2 -26 -6 -92 -9 -146 -3 -68 -8 -97 -16 -94 -14 5 -10 252 5 280 15 29 25 11 20 -40z" fill="#ffffff" id="ffffff-000199"/>
    <path stroke="none" d="M8625 1630 c8 -13 -4 -50 -16 -50 -5 0 -9 14 -9 30 0 30 13 40 25 20z" fill="#ffffff" id="ffffff-000201"/>
    <path stroke="none" d="M7495 1560 c30 -22 55 -45 55 -49 0 -21 -243 -48 -271 -30 -20 12 7 37 44 41 26 2 33 8 35 28 8 61 63 65 137 10z" fill="#ffffff" id="ffffff-000203"/>
    <path stroke="none" d="M3926 1392 c12 -32 8 -52 -12 -52 -10 0 -14 12 -14 40 0 47 11 52 26 12z" fill="#ffffff" id="ffffff-000206"/>
    <path stroke="none" d="M5533 1367 c-10 -17 -20 4 -15 30 l6 28 6 -25 c4 -14 5 -28 3 -33z" fill="#ffffff" id="ffffff-000207"/>
    <path stroke="none" d="M5460 1360 c0 -20 -33 -40 -66 -40 -26 0 -13 45 14 46 12 1 25 4 29 8 12 12 23 6 23 -14z" fill="#ffffff" id="ffffff-000211"/>
    <path stroke="none" d="M5680 1120 c0 -91 -3 -110 -15 -110 -12 0 -15 18 -15 103 0 57 3 107 7 110 18 19 23 -2 23 -103z" fill="#ffffff" id="ffffff-000213"/>
    <path stroke="none" d="M5520 1195 c0 -14 -4 -25 -9 -25 -12 0 -23 29 -15 41 10 18 24 9 24 -16z" fill="#ffffff" id="ffffff-000214"/>
    <path stroke="none" d="M5584 1214 c13 -5 16 -25 16 -120 0 -63 -4 -114 -8 -114 -25 0 -32 30 -32 132 0 59 2 108 4 108 2 0 11 -3 20 -6z" fill="#ffffff" id="ffffff-000215"/>
    <path stroke="none" d="M3572 1188 c21 -6 50 -7 70 -3 74 17 392 -9 424 -36 16 -13 19 -70 4 -85 -20 -20 9 -63 43 -66 33 -3 42 -15 28 -36 -9 -14 0 -15 -435 18 -152 12 -278 46 -296 81 -19 35 -12 98 15 125 21 21 31 23 67 19 24 -3 59 -11 80 -17z" fill="#ffffff" id="ffffff-000216"/>
    <path stroke="none" d="M8030 1190 c8 -5 11 -12 8 -16 -10 -9 -38 3 -38 16 0 12 10 13 30 0z" fill="#ffffff" id="ffffff-000218"/>
    <path stroke="none" d="M5460 1181 c0 -12 -20 -25 -27 -18 -7 7 6 27 18 27 5 0 9 -4 9 -9z" fill="#ffffff" id="ffffff-000217"/>
    <path stroke="none" d="M4688 1088 c5 -7 13 -43 16 -79 6 -55 4 -69 -10 -83 -15 -16 -18 -16 -35 0 -16 14 -19 31 -19 96 0 70 2 78 19 78 10 0 23 -6 29 -12z" fill="#ffffff" id="ffffff-000219"/>
    <path stroke="none" d="M4240 1026 c0 -64 -7 -86 -26 -86 -17 0 -18 81 -1 118 17 37 27 25 27 -32z" fill="#ffffff" id="ffffff-000220"/>
    <path stroke="none" d="M4342 1063 c14 -12 18 -31 18 -75 0 -72 18 -75 35 -7 23 88 69 125 97 79 16 -26 34 -25 48 1 7 13 19 19 33 17 20 -3 22 -9 25 -90 3 -82 2 -87 -20 -94 -28 -10 -220 -6 -268 4 l-35 8 1 71 c0 94 24 125 66 86z" fill="#ffffff" id="ffffff-000221"/>
    <path stroke="none" d="M5525 1040 c7 -21 0 -40 -16 -40 -5 0 -9 14 -9 30 0 34 15 40 25 10z" fill="#ffffff" id="ffffff-000223"/>
    <path stroke="none" d="M3160 6421 c0 -12 5 -21 10 -21 6 0 10 6 10 14 0 8 -4 18 -10 21 -5 3 -10 -3 -10 -14z" fill="#000000" id="000000-000038"/>
    <path stroke="none" d="M4042 5444 c2 -15 10 -30 18 -34 53 -27 70 -31 101 -28 46 4 47 32 0 36 -18 2 -51 14 -72 28 -48 30 -51 30 -47 -2z" fill="#000000" id="000000-000039"/>
    <path stroke="none" d="M6740 3326 c-19 -19 -10 -26 31 -26 33 0 40 3 37 18 -4 19 -51 25 -68 8z" fill="#000000" id="000000-000071"/>
    <path stroke="none" d="M6840 3291 c0 -14 8 -22 28 -27 15 -3 45 -15 67 -26 22 -12 52 -27 67 -35 47 -24 53 -4 12 38 -25 26 -47 39 -64 39 -14 0 -30 4 -35 9 -6 5 -25 12 -42 16 -29 6 -33 4 -33 -14z" fill="#000000" id="000000-000072"/>
    <path stroke="none" d="M7655 2270 c-3 -5 -2 -10 4 -10 5 0 13 5 16 10 3 6 2 10 -4 10 -5 0 -13 -4 -16 -10z" fill="#000000" id="000000-000076"/>
    <path stroke="none" d="M7620 2210 c0 -7 3 -10 7 -7 3 4 3 10 0 14 -4 3 -7 0 -7 -7z" fill="#000000" id="000000-000079"/>
    <path stroke="none" d="M6625 1979 c-141 -10 -255 -26 -292 -39 -27 -10 -33 -17 -33 -41 0 -42 31 -51 144 -43 90 7 94 6 109 -17 14 -19 27 -24 70 -25 28 -2 65 -7 80 -13 16 -6 59 -11 97 -11 58 0 71 -3 80 -19 9 -18 19 -19 131 -16 67 2 127 9 132 14 6 6 32 11 58 11 54 0 79 19 52 41 -9 8 -35 14 -57 14 -34 0 -41 3 -41 20 -1 32 -14 45 -45 45 -33 0 -74 16 -109 42 -18 14 -42 18 -101 18 -57 0 -81 4 -90 15 -13 16 -23 16 -185 4z" fill="#000000" id="000000-000087"/>
    <path stroke="none" d="M6660 1712 c0 -14 32 -44 64 -62 49 -26 78 15 32 45 -31 20 -96 32 -96 17z" fill="#000000" id="000000-000100"/>
    <path stroke="none" d="M8175 2159 c4 -24 11 -54 17 -66 6 -12 8 -29 5 -37 -6 -14 -11 -13 -42 5 -24 14 -40 18 -46 12 -14 -14 4 -25 77 -51 73 -26 81 -27 63 -6 -8 9 -12 27 -11 38 2 12 -6 34 -18 48 -11 14 -20 37 -20 51 0 13 -7 30 -15 37 -14 12 -15 8 -10 -31z" fill="#000000" id="000000-000083"/>
    <path stroke="none" d="M8046 2043 c-3 -3 -3 -10 0 -14 7 -12 44 -12 44 0 0 10 -36 21 -44 14z" fill="#000000" id="000000-000086"/>
    <path stroke="none" d="M8000 1991 c0 -6 10 -11 23 -11 23 0 47 -17 47 -32 0 -4 -11 -8 -24 -8 -14 0 -28 -4 -31 -10 -3 -5 -14 -10 -23 -10 -9 0 -22 -11 -28 -25 -11 -23 -10 -24 24 -27 49 -4 55 -28 7 -28 -39 0 -79 -16 -71 -29 3 -4 38 -2 78 4 65 9 73 13 78 35 5 22 14 26 70 36 62 10 63 11 25 15 -32 3 -41 8 -43 27 -4 27 23 40 49 24 22 -14 49 -16 49 -3 0 13 -37 23 -110 32 -36 4 -77 10 -92 14 -18 5 -28 3 -28 -4z" fill="#000000" id="000000-000089"/>
    <path stroke="none" d="M8143 1847 c-13 -5 -23 -14 -23 -19 0 -11 11 -10 39 6 29 16 15 28 -16 13z" fill="#000000" id="000000-000094"/>
    <path stroke="none" d="M7783 1830 c-13 -5 -23 -14 -23 -20 0 -14 42 -12 63 4 9 7 17 16 17 20 0 9 -31 6 -57 -4z" fill="#000000" id="000000-000095"/>
    <path stroke="none" d="M8244 1823 c2 -10 7 -37 11 -60 7 -44 26 -61 44 -39 23 28 -12 116 -46 116 -9 0 -12 -7 -9 -17z" fill="#000000" id="000000-000096"/>
    <path stroke="none" d="M8140 1785 c-18 -22 -5 -30 19 -13 12 8 18 18 14 21 -10 11 -19 8 -33 -8z" fill="#000000" id="000000-000099"/>
    <path stroke="none" d="M8005 1783 c-40 -4 -65 -18 -65 -34 0 -16 54 -9 88 11 30 18 42 32 25 28 -5 -1 -26 -3 -48 -5z" fill="#000000" id="000000-000098"/>
    <path stroke="none" d="M8021 1707 c-6 -8 -8 -17 -5 -20 7 -7 44 14 44 25 0 13 -27 9 -39 -5z" fill="#000000" id="000000-000101"/>
    <path stroke="none" d="M8220 1705 c0 -8 5 -15 10 -15 6 0 10 7 10 15 0 8 -4 15 -10 15 -5 0 -10 -7 -10 -15z" fill="#000000" id="000000-000102"/>
    <path stroke="none" d="M8315 1646 c9 -13 18 -44 20 -68 3 -23 9 -52 15 -63 5 -11 14 -32 20 -47 10 -30 30 -38 30 -14 0 8 -9 30 -20 48 -11 19 -21 56 -22 83 -2 34 -9 56 -22 68 -27 25 -39 21 -21 -7z" fill="#000000" id="000000-000117"/>
    <path stroke="none" d="M7857 1643 c-4 -3 -7 -13 -7 -21 0 -12 3 -12 15 -2 8 7 15 16 15 21 0 11 -14 12 -23 2z" fill="#000000" id="000000-000109"/>
    <path stroke="none" d="M8051 1619 c-23 -22 -30 -34 -22 -42 16 -16 61 19 61 48 0 14 -2 25 -4 25 -1 0 -18 -14 -35 -31z" fill="#000000" id="000000-000112"/>
    <path stroke="none" d="M8257 1639 c-22 -13 -24 -64 -2 -55 11 4 15 -1 15 -19 0 -16 6 -25 15 -25 11 0 15 12 15 44 0 49 -16 70 -43 55z" fill="#000000" id="000000-000113"/>
    <path stroke="none" d="M8122 1608 c-7 -7 -12 -16 -12 -20 0 -12 28 -10 36 3 10 17 -10 31 -24 17z" fill="#000000" id="000000-000114"/>
    <path stroke="none" d="M7998 1526 c-18 -13 -25 -36 -10 -36 17 1 34 18 30 33 -2 13 -6 14 -20 3z" fill="#000000" id="000000-000120"/>
    <path stroke="none" d="M8062 1524 c4 -21 22 -23 26 -1 2 10 -3 17 -13 17 -10 0 -15 -6 -13 -16z" fill="#000000" id="000000-000121"/>
    <path stroke="none" d="M7920 1520 c0 -5 5 -10 10 -10 6 0 10 5 10 10 0 6 -4 10 -10 10 -5 0 -10 -4 -10 -10z" fill="#000000" id="000000-000119"/>
    <path stroke="none" d="M8131 1521 c-19 -12 -6 -41 17 -41 21 0 56 33 45 43 -9 10 -45 8 -62 -2z" fill="#000000" id="000000-000122"/>
    <path stroke="none" d="M8049 1434 c-12 -14 -11 -16 5 -13 11 2 21 10 24 17 5 17 -13 15 -29 -4z" fill="#000000" id="000000-000126"/>
    <path stroke="none" d="M8109 1434 c-12 -14 -11 -16 5 -13 11 2 21 10 24 17 5 17 -13 15 -29 -4z" fill="#000000" id="000000-000127"/>
    <path stroke="none" d="M8030 1320 c0 -5 5 -10 10 -10 6 0 10 5 10 10 0 6 -4 10 -10 10 -5 0 -10 -4 -10 -10z" fill="#000000" id="000000-000129"/>
    <path stroke="none" d="M3462 1168 c-16 -16 -15 -43 1 -57 16 -13 37 4 37 30 0 25 -24 41 -38 27z" fill="#000000" id="000000-000132"/>
    <path stroke="none" d="M8175 6982 c-6 -4 -11 -59 -13 -122 -1 -63 -9 -169 -17 -235 -8 -66 -15 -121 -15 -123 0 -2 10 -2 23 0 15 2 23 11 24 28 14 134 43 225 88 274 39 42 59 34 85 -33 25 -62 -24 -191 -92 -245 l-33 -26 80 2 c69 3 80 6 83 22 4 16 0 18 -27 13 -33 -7 -40 3 -17 22 55 46 79 233 36 279 -12 12 -28 22 -38 22 -20 0 -77 -20 -109 -38 -12 -7 -24 -8 -27 -4 -3 5 -1 39 5 77 5 38 7 75 5 82 -6 14 -25 17 -41 5z" fill="#000000" id="000000-000020"/>
    <path stroke="none" d="M6007 6974 c-3 -4 0 -16 8 -28 7 -11 19 -48 25 -81 7 -33 15 -76 20 -95 4 -19 15 -71 24 -115 38 -177 50 -191 85 -95 7 19 18 45 23 56 5 12 8 30 6 40 -4 16 -7 14 -17 -10 -15 -36 -36 -22 -45 32 -3 20 -10 60 -15 87 -26 132 -30 168 -21 185 5 10 6 20 3 24 -8 8 -88 8 -96 0z" fill="#000000" id="000000-000016"/>
    <path stroke="none" d="M6190 6970 c0 -6 8 -25 17 -43 12 -22 17 -57 17 -114 0 -69 3 -83 16 -80 9 1 16 -7 18 -23 2 -24 7 -43 33 -157 7 -29 18 -53 25 -53 6 0 19 21 28 48 10 26 22 60 28 75 6 15 8 31 4 34 -4 4 -9 -3 -13 -15 -3 -13 -11 -21 -17 -19 -10 3 -19 37 -56 207 -13 59 -15 111 -6 133 7 15 2 17 -43 17 -29 0 -51 -5 -51 -10z" fill="#000000" id="000000-000017"/>
    <path stroke="none" d="M6425 6970 c-3 -6 1 -13 10 -16 13 -5 15 -15 9 -53 -3 -25 -10 -50 -15 -55 -5 -6 -9 -23 -9 -40 0 -36 11 -25 29 29 7 22 24 62 37 88 13 27 24 51 24 53 0 9 -79 3 -85 -6z" fill="#000000" id="000000-000018"/>
    <path stroke="none" d="M7355 6953 c16 -36 16 -72 5 -204 -16 -195 -20 -222 -38 -241 -8 -10 -13 -18 -11 -19 2 0 26 -2 52 -3 50 -2 67 8 48 27 -14 14 -14 95 -1 201 5 45 14 113 18 151 5 39 12 78 17 88 6 15 1 17 -45 17 -46 0 -51 -2 -45 -17z" fill="#000000" id="000000-000019"/>
    <path stroke="none" d="M8624 6951 c17 -19 18 -31 13 -118 -13 -196 -26 -293 -43 -318 -9 -14 -15 -25 -13 -26 22 -5 102 -3 106 4 3 4 -2 16 -11 26 -20 22 -21 100 -2 146 14 32 19 35 55 35 32 0 47 8 86 43 46 41 47 43 48 104 2 56 -1 66 -26 90 -25 25 -34 28 -129 31 l-103 4 19 -21z" fill="#000000" id="000000-000021"/>
    <path stroke="none" d="M8808 6891 c22 -64 -35 -171 -91 -171 -14 0 -28 4 -31 8 -8 13 15 205 26 219 16 20 84 -20 96 -56z" fill="#ffffff" id="ffffff-000011"/>
    <path stroke="none" d="M7838 6919 c-29 -21 -36 -39 -17 -39 18 0 70 41 64 51 -9 13 -16 11 -47 -12z" fill="#000000" id="000000-000022"/>
    <path stroke="none" d="M7062 6886 c-13 -22 -30 -35 -51 -39 -37 -8 -40 -24 -6 -37 20 -7 24 -15 20 -32 -20 -91 -25 -120 -25 -173 0 -84 16 -105 80 -105 40 0 51 4 60 21 15 26 7 34 -18 20 -33 -18 -51 -13 -67 19 -18 36 -19 87 -1 160 22 87 23 89 77 96 60 8 69 34 13 34 -38 0 -39 4 -19 53 6 13 2 17 -18 17 -18 0 -31 -10 -45 -34z" fill="#000000" id="000000-000023"/>
    <path stroke="none" d="M9368 6884 c-3 -3 -30 -6 -60 -7 l-53 -2 -12 -170 c-6 -93 -13 -179 -15 -190 -3 -19 2 -20 67 -17 84 4 102 17 111 80 5 35 3 54 -10 76 -16 27 -16 30 2 50 11 12 25 31 31 43 15 29 14 95 -1 115 -14 18 -51 31 -60 22z" fill="#000000" id="000000-000024"/>
    <path stroke="none" d="M9384 6834 c15 -60 -27 -144 -73 -144 -30 0 -33 14 -16 73 26 89 75 128 89 71z" fill="#ffffff" id="ffffff-000012"/>
    <path stroke="none" d="M9348 6648 c16 -16 15 -89 -3 -111 -8 -11 -23 -17 -37 -15 -20 3 -23 9 -26 57 -2 29 -1 60 2 67 7 17 48 18 64 2z" fill="#ffffff" id="ffffff-000024"/>
    <path stroke="none" d="M7605 6845 c-18 -8 -45 -11 -69 -8 l-39 6 6 -34 c6 -30 -5 -252 -14 -289 -3 -9 5 -16 18 -18 20 -3 23 2 29 47 9 67 29 67 85 1 34 -41 48 -50 74 -50 17 0 34 3 38 6 3 4 -14 27 -38 51 -51 50 -54 62 -24 89 12 10 27 31 35 46 17 33 18 140 2 156 -16 16 -65 14 -103 -3z" fill="#000000" id="000000-000027"/>
    <path stroke="none" d="M7666 6823 c23 -30 16 -85 -15 -134 -31 -50 -84 -80 -103 -61 -21 21 21 148 65 197 17 19 37 18 53 -2z" fill="#ffffff" id="ffffff-000014"/>
    <path stroke="none" d="M6521 6812 c-22 -23 -41 -56 -48 -85 -18 -65 -16 -162 2 -197 15 -29 18 -30 90 -30 71 0 76 2 87 25 16 35 4 41 -31 15 -17 -12 -41 -20 -53 -18 -27 4 -68 61 -68 94 0 26 7 27 144 28 52 1 76 23 37 33 -22 6 -27 18 -11 28 18 11 29 75 19 103 -14 36 -26 42 -83 42 -44 0 -53 -4 -85 -38z" fill="#000000" id="000000-000025"/>
    <path stroke="none" d="M6626 6826 c19 -20 17 -86 -4 -112 -19 -25 -73 -54 -98 -54 -14 0 -15 7 -10 41 7 44 35 92 70 121 26 21 24 21 42 4z" fill="#ffffff" id="ffffff-000013"/>
    <path stroke="none" d="M6808 6840 c-23 -5 -51 -49 -63 -100 -10 -40 27 -80 74 -80 20 0 42 -5 49 -12 18 -18 14 -67 -9 -99 -32 -45 -73 -35 -81 20 -4 33 -25 38 -38 9 -8 -16 -8 -32 -1 -51 10 -26 14 -27 75 -27 59 0 66 2 84 28 24 34 36 110 23 145 -9 22 -17 27 -46 27 -20 0 -45 5 -56 10 -26 15 -26 73 1 100 30 30 47 24 68 -23 13 -30 29 -32 46 -5 7 12 5 23 -8 42 -14 22 -23 26 -56 24 -21 -2 -49 -5 -62 -8z" fill="#000000" id="000000-000026"/>
    <path stroke="none" d="M7810 6848 c0 -2 -1 -79 -3 -173 -2 -146 0 -170 13 -170 12 0 16 19 21 85 3 47 10 124 14 173 l7 87 -26 0 c-14 0 -26 -1 -26 -2z" fill="#000000" id="000000-000028"/>
    <path stroke="none" d="M8002 6843 c-36 -4 -46 -10 -62 -36 -26 -41 -26 -108 -2 -130 10 -10 34 -17 53 -17 43 0 59 -15 59 -53 0 -81 -71 -117 -94 -47 -12 37 -32 45 -49 19 -7 -12 -7 -26 3 -48 13 -32 13 -32 78 -29 57 3 67 6 85 30 25 33 36 131 17 153 -7 8 -29 15 -49 15 -62 0 -87 34 -65 87 23 53 78 53 86 0 4 -26 26 -29 41 -6 14 22 -16 70 -41 67 -9 -1 -36 -3 -60 -5z" fill="#000000" id="000000-000030"/>
    <path stroke="none" d="M8940 6819 c0 -14 5 -19 15 -16 24 10 28 -11 7 -41 -53 -77 -58 -231 -8 -264 19 -13 74 -9 118 9 30 12 43 13 46 5 2 -7 14 -12 26 -12 22 0 23 4 30 131 3 73 9 150 13 171 5 38 5 40 -18 36 -22 -3 -25 -9 -30 -68 -10 -97 -23 -145 -59 -200 -61 -96 -106 -75 -104 48 1 89 29 153 82 187 17 11 31 23 32 28 0 4 -34 7 -75 7 -70 0 -75 -2 -75 -21z" fill="#000000" id="000000-000031"/>
    <path stroke="none" d="M6408 6774 c-5 -4 -8 -16 -8 -28 0 -14 3 -17 11 -9 6 6 9 19 7 28 -1 9 -6 13 -10 9z" fill="#000000" id="000000-000032"/>
    <path stroke="none" d="M6387 6707 c-11 -29 -9 -43 4 -30 6 6 9 19 7 29 -3 18 -4 18 -11 1z" fill="#000000" id="000000-000033"/>
    <path stroke="none" d="M5538 5194 c-29 -12 -38 -22 -38 -41 0 -24 2 -25 48 -18 40 5 52 3 75 -15 59 -47 103 1 49 53 -36 34 -85 42 -134 21z" fill="#000000" id="000000-000040"/>
    <path stroke="none" d="M5788 5129 c-27 -15 -23 -49 6 -49 33 0 53 25 36 45 -15 17 -19 18 -42 4z" fill="#000000" id="000000-000041"/>
    <path stroke="none" d="M6115 5119 c-9 -27 -1 -33 60 -54 88 -29 126 -56 147 -104 l18 -44 -27 -34 c-71 -88 -83 -107 -74 -116 23 -23 142 59 162 111 18 47 0 91 -65 159 -46 48 -74 68 -116 83 -71 26 -97 26 -105 -1z" fill="#000000" id="000000-000043"/>
    <path stroke="none" d="M6045 5120 c-4 -6 -3 -16 3 -22 6 -6 12 -6 17 2 4 6 3 16 -3 22 -6 6 -12 6 -17 -2z" fill="#000000" id="000000-000042"/>
    <path stroke="none" d="M4337 5083 c-44 -31 -48 -47 -9 -40 117 24 132 30 132 53 0 26 -80 18 -123 -13z" fill="#000000" id="000000-000044"/>
    <path stroke="none" d="M5125 5076 c-28 -23 -29 -26 -13 -42 14 -15 19 -15 33 -4 11 9 39 13 79 12 46 -1 67 2 76 13 16 19 11 25 -37 36 -66 15 -106 11 -138 -15z" fill="#000000" id="000000-000045"/>
    <path stroke="none" d="M7806 5038 c-12 -29 -29 -80 -36 -113 -20 -86 -34 -105 -81 -105 -33 0 -41 -4 -55 -31 -13 -26 -14 -36 -4 -55 30 -55 119 -56 140 -1 7 18 15 41 20 52 19 51 50 154 50 169 0 18 22 21 51 5 22 -11 59 -4 59 13 0 17 -91 118 -107 118 -8 0 -24 -24 -37 -52z" fill="#000000" id="000000-000046"/>
    <path stroke="none" d="M4590 4985 c-17 -20 3 -45 37 -45 28 0 40 24 23 45 -16 19 -44 19 -60 0z" fill="#000000" id="000000-000047"/>
    <path stroke="none" d="M5734 4968 c-10 -15 24 -38 56 -38 14 0 35 -7 46 -15 10 -8 34 -15 52 -15 25 0 32 4 32 19 0 40 -165 84 -186 49z" fill="#000000" id="000000-000048"/>
    <path stroke="none" d="M4203 4960 c-36 -8 -63 -27 -63 -43 0 -6 -7 -18 -16 -28 -27 -30 -11 -51 38 -47 37 3 43 6 43 25 1 42 21 49 120 41 24 -3 30 1 30 17 0 34 -79 53 -152 35z" fill="#000000" id="000000-000050"/>
    <path stroke="none" d="M3910 4939 c0 -14 5 -19 17 -17 26 5 29 38 4 38 -15 0 -21 -6 -21 -21z" fill="#000000" id="000000-000049"/>
    <path stroke="none" d="M7540 4922 c0 -18 44 -72 60 -72 22 0 20 24 -5 55 -28 38 -55 46 -55 17z" fill="#000000" id="000000-000051"/>
    <path stroke="none" d="M4420 4890 c0 -5 5 -10 10 -10 6 0 10 5 10 10 0 6 -4 10 -10 10 -5 0 -10 -4 -10 -10z" fill="#000000" id="000000-000052"/>
    <path stroke="none" d="M4905 4869 c-27 -5 -58 -6 -67 -3 -36 11 -89 -8 -101 -35 -6 -14 -18 -34 -26 -44 -11 -13 -12 -20 -3 -29 14 -14 97 9 163 43 20 11 57 19 81 19 49 0 98 19 98 38 0 6 -3 13 -7 13 -31 6 -96 4 -138 -2z" fill="#000000" id="000000-000053"/>
    <path stroke="none" d="M6920 4808 c1 -66 18 -105 43 -95 19 7 10 115 -11 140 -26 29 -32 20 -32 -45z" fill="#000000" id="000000-000055"/>
    <path stroke="none" d="M7485 4820 c-11 -17 14 -37 58 -44 28 -5 37 -4 37 7 0 20 -21 36 -57 43 -19 4 -33 1 -38 -6z" fill="#000000" id="000000-000057"/>
    <path stroke="none" d="M5625 4810 c3 -5 8 -10 11 -10 2 0 4 5 4 10 0 6 -5 10 -11 10 -5 0 -7 -4 -4 -10z" fill="#000000" id="000000-000056"/>
    <path stroke="none" d="M4376 4765 c-3 -9 4 -21 20 -32 30 -20 57 -9 62 26 3 18 -1 21 -36 21 -26 0 -42 -5 -46 -15z" fill="#000000" id="000000-000059"/>
    <path stroke="none" d="M4533 4760 c-45 -27 -41 -40 12 -40 49 0 67 18 45 45 -16 19 -18 19 -57 -5z" fill="#000000" id="000000-000060"/>
    <path stroke="none" d="M6644 4766 c-9 -24 35 -81 94 -123 21 -15 25 -15 39 0 14 14 13 17 -8 34 -12 10 -37 33 -53 51 -42 45 -65 57 -72 38z" fill="#000000" id="000000-000061"/>
    <path stroke="none" d="M4224 4759 c-8 -13 24 -41 41 -36 5 2 10 12 10 23 0 22 -39 32 -51 13z" fill="#000000" id="000000-000058"/>
    <path stroke="none" d="M6145 4749 c-13 -20 5 -57 45 -95 26 -25 44 -54 54 -87 16 -55 13 -70 -19 -107 -25 -28 -44 -78 -38 -97 8 -23 28 -14 72 31 42 43 43 45 42 112 0 56 -5 75 -28 113 -16 25 -39 67 -53 94 -18 34 -31 47 -47 47 -12 0 -25 -5 -28 -11z" fill="#000000" id="000000-000064"/>
    <path stroke="none" d="M3927 4744 c-9 -10 2 -24 19 -24 8 0 14 7 14 15 0 15 -21 21 -33 9z" fill="#000000" id="000000-000062"/>
    <path stroke="none" d="M4511 4667 c-12 -15 -5 -27 16 -27 7 0 13 9 13 20 0 23 -13 26 -29 7z" fill="#000000" id="000000-000066"/>
    <path stroke="none" d="M4105 4661 c-10 -18 17 -23 33 -7 15 15 15 16 -5 16 -12 0 -24 -4 -28 -9z" fill="#000000" id="000000-000065"/>
    <path stroke="none" d="M6995 4420 c-21 -23 -18 -41 35 -220 31 -107 35 -140 17 -140 -21 0 -67 -49 -67 -71 0 -20 16 -54 37 -76 6 -7 31 -13 56 -13 33 0 49 6 65 23 30 32 28 69 -9 162 -9 25 -21 90 -23 129 -1 28 1 29 44 30 38 1 45 4 45 21 0 13 -13 27 -37 40 -43 23 -47 30 -18 38 24 6 26 39 4 57 -8 8 -34 16 -57 20 -23 4 -49 10 -58 14 -9 4 -22 -1 -34 -14z" fill="#000000" id="000000-000067"/>
    <path stroke="none" d="M8126 4334 c-17 -17 -21 -80 -7 -103 5 -8 16 -11 25 -8 12 5 16 20 16 61 0 60 -10 75 -34 50z" fill="#000000" id="000000-000068"/>
    <path stroke="none" d="M8265 4249 c-46 -24 -65 -45 -65 -71 0 -26 25 -22 76 12 32 23 44 38 44 55 0 30 -4 30 -55 4z" fill="#000000" id="000000-000069"/>
    <path stroke="none" d="M8074 4124 c-22 -20 -50 -43 -64 -52 -14 -9 -44 -32 -68 -51 -42 -34 -43 -34 -81 -19 -40 16 -64 11 -88 -21 -19 -25 -15 -51 13 -88 30 -40 58 -42 105 -8 19 13 45 32 59 42 14 9 49 39 79 67 l54 50 16 -24 c39 -58 48 -65 65 -51 18 15 21 47 6 56 -5 3 -10 28 -10 54 0 34 -5 53 -18 64 -24 22 -24 23 -68 -19z" fill="#000000" id="000000-000070"/>
    <path stroke="none" d="M8615 2731 c-3 -6 38 -69 92 -141 92 -123 135 -184 175 -251 10 -16 32 -71 49 -122 28 -83 32 -104 32 -212 0 -109 -3 -128 -31 -208 -29 -82 -60 -132 -125 -203 -21 -23 -25 -34 -17 -39 12 -8 130 109 130 128 0 4 13 36 29 70 44 94 49 122 47 252 -3 126 -26 249 -56 295 -9 14 -21 36 -27 50 -18 42 -99 163 -127 189 -14 14 -26 29 -26 34 0 14 -82 120 -112 145 -15 13 -29 18 -33 13z" fill="#000000" id="000000-000074"/>
    <path stroke="none" d="M2097 1914 c-5 -5 -345 -27 -447 -28 -47 -1 -91 -6 -98 -10 -8 -5 -12 -22 -10 -44 2 -30 -1 -37 -17 -40 -53 -10 -61 -53 -14 -77 18 -10 69 -19 122 -22 51 -3 104 -12 119 -19 15 -8 41 -14 58 -14 58 0 30 -34 -37 -45 -52 -8 -87 -34 -78 -56 7 -19 47 -29 110 -29 35 0 51 -7 86 -36 l43 -36 115 2 c141 1 268 -11 300 -29 29 -16 247 -24 273 -10 25 13 24 65 -1 79 -11 5 -37 10 -58 10 -39 0 -117 37 -115 55 1 6 30 11 63 12 83 3 91 7 87 45 -4 41 -22 47 -258 88 -114 20 -160 33 -160 47 0 23 42 35 124 36 63 0 91 -4 128 -21 79 -37 194 -27 218 18 9 17 6 25 -19 50 -27 27 -36 30 -95 30 -68 0 -239 24 -279 39 -21 8 -152 12 -160 5z" fill="#000000" id="000000-000091"/>
    <path stroke="none" d="M4175 620 c-15 -10 -32 -26 -37 -34 -5 -9 -19 -16 -32 -16 -13 0 -29 -6 -35 -14 -10 -12 -6 -15 26 -18 l38 -3 1 -125 c2 -121 2 -125 28 -147 55 -47 156 -16 156 48 0 24 -4 29 -25 29 -20 0 -25 -6 -31 -34 -8 -46 -30 -53 -49 -16 -12 23 -15 56 -13 138 l3 107 47 3 c25 2 52 10 58 18 7 7 9 14 4 15 -5 0 -29 1 -54 2 -42 2 -45 4 -45 29 0 37 -7 40 -40 18z" fill="#000000" id="000000-000133"/>
    <path stroke="none" d="M3568 556 c-76 -35 -108 -81 -108 -152 0 -126 135 -206 240 -143 40 24 50 37 50 62 0 27 -28 20 -45 -12 -26 -51 -75 -52 -129 -2 -64 60 -52 91 38 91 37 1 68 6 80 15 17 13 9 14 -70 17 -74 3 -89 6 -92 20 -4 22 26 85 44 92 22 9 71 -4 93 -25 23 -22 42 -24 59 -7 18 18 15 27 -20 48 -42 26 -81 24 -140 -4z" fill="#000000" id="000000-000141"/>
    <path stroke="none" d="M3879 560 l-24 -19 38 -1 c29 0 46 -7 69 -30 29 -29 31 -30 49 -14 27 24 24 36 -16 62 -43 27 -85 28 -116 2z" fill="#000000" id="000000-000135"/>
    <path stroke="none" d="M4932 560 c-37 -23 -72 -75 -72 -108 0 -31 17 -62 49 -89 27 -24 37 -26 84 -23 39 2 34 -15 -25 -71 -51 -49 -51 -64 0 -32 80 50 152 150 152 213 0 100 -104 161 -188 110z" fill="#000000" id="000000-000137"/>
    <path stroke="none" d="M5010 532 c31 -31 46 -86 36 -127 -8 -30 -26 -40 -61 -31 -54 14 -86 126 -48 168 22 25 40 23 73 -10z" fill="#ffffff" id="ffffff-000224"/>
    <path stroke="none" d="M5503 568 c-32 -15 -29 -28 6 -28 44 0 62 -10 76 -43 19 -46 2 -82 -78 -164 -39 -40 -68 -75 -64 -79 3 -4 48 -6 99 -5 81 1 95 4 111 22 31 38 22 45 -44 39 -33 -3 -63 -2 -66 3 -3 4 22 33 56 63 57 52 61 59 61 99 0 37 -5 47 -35 74 -38 33 -80 39 -122 19z" fill="#000000" id="000000-000139"/>
    <path stroke="none" d="M4740 563 c-51 -16 -83 -48 -42 -41 15 3 18 -11 22 -132 l5 -135 34 -3 c40 -4 60 11 42 32 -8 10 -12 54 -11 138 1 67 1 129 1 136 -1 12 -23 15 -51 5z" fill="#000000" id="000000-000136"/>
    <path stroke="none" d="M5180 542 l0 -29 74 5 c40 2 76 1 79 -4 3 -5 -31 -62 -74 -128 -44 -65 -78 -123 -76 -130 2 -6 12 -11 22 -11 13 0 30 21 53 65 19 36 58 105 88 153 30 49 54 93 54 98 0 5 -49 9 -110 9 l-110 0 0 -28z" fill="#000000" id="000000-000138"/>
    <path stroke="none" d="M3831 527 c-18 -22 -24 -73 -12 -96 7 -12 42 -36 79 -54 59 -28 67 -36 70 -63 4 -37 -16 -57 -55 -52 -22 2 -29 9 -33 33 -4 23 -11 31 -30 33 -14 1 -32 -2 -40 -7 -12 -8 -12 -14 -1 -34 17 -33 51 -47 111 -47 41 0 55 5 85 31 28 25 35 38 35 69 0 44 -8 52 -104 100 -63 33 -71 40 -74 68 -4 34 -13 40 -31 19z" fill="#000000" id="000000-000142"/>
    <path stroke="none" d="M5444 516 c-28 -44 -5 -93 33 -68 13 8 6 92 -8 92 -5 0 -16 -11 -25 -24z" fill="#000000" id="000000-000143"/>
    <path stroke="none" d="M4390 305 c-15 -18 -9 -49 10 -53 23 -4 44 36 29 54 -15 18 -23 18 -39 -1z" fill="#000000" id="000000-000146"/>
  </g>
</svg>
