<?xml version="1.0" standalone="no"?>
<!DOCTYPE svg PUBLIC "-//W3C//DTD SVG 1.1//EN"
 "http://www.w3.org/Graphics/SVG/1.1/DTD/svg11.dtd">
<!-- Created with svg_stack (http://github.com/astraw/svg_stack) -->
<svg xmlns:sodipodi="http://sodipodi.sourceforge.net/DTD/sodipodi-0.dtd" xmlns="http://www.w3.org/2000/svg" version="1.1" width="3200.0" height="1789.0">
  <defs/>
  <g id="id0:id0" transform="matrix(1.25,0,0,1.25,0.0,0.0)"><g transform="translate(0.000000,1431.200000) scale(0.040000,-0.040000)" fill="#ffffff" stroke="none">
<path d="M0 17890 l0 -17890 32000 0 32000 0 0 17890 0 17890 -32000 0 -32000 0 0 -17890z m56086 17365 c7 -18 5 -26 -91 -250 -42 -99 -101 -241 -132 -315 -30 -74 -59 -139 -63 -145 -4 -5 -11 -21 -15 -35 -4 -14 -16 -43 -26 -65 -28 -62 -109 -255 -109 -260 0 -3 -13 -34 -30 -69 -16 -36 -64 -148 -106 -248 -41 -101 -87 -207 -100 -236 -13 -29 -24 -55 -24 -57 0 -3 -10 -27 -21 -53 -25 -56 -37 -83 -78 -182 -17 -41 -44 -100 -59 -130 l-27 -55 -110 1 c-60 0 -202 6 -315 13 -113 6 -254 14 -315 16 -60 3 -148 7 -195 10 -47 3 -184 8 -305 11 -121 3 -305 9 -410 13 -457 16 -2125 0 -2300 -23 -22 -3 -103 -8 -180 -11 -77 -3 -162 -7 -190 -10 -27 -3 -124 -9 -215 -15 -404 -27 -990 -83 -1245 -120 -38 -6 -135 -19 -215 -30 -195 -26 -275 -38 -405 -61 -282 -49 -344 -60 -400 -70 -76 -13 -206 -41 -360 -75 -66 -15 -138 -30 -160 -34 -38 -8 -212 -52 -390 -100 -155 -41 -361 -102 -465 -137 -137 -45 -330 -112 -355 -123 -11 -5 -92 -38 -180 -73 -88 -36 -192 -78 -231 -95 -72 -30 -411 -198 -429 -212 -5 -4 -53 -31 -105 -60 -114 -63 -390 -244 -453 -297 -25 -21 -82 -67 -128 -103 -226 -176 -495 -476 -656 -730 -38 -60 -163 -286 -163 -294 0 -3 -15 -37 -34 -78 -151 -322 -238 -722 -237 -1088 0 -382 85 -772 253 -1175 86 -205 277 -574 400 -770 130 -207 350 -529 482 -705 40 -52 78 -105 86 -116 13 -19 131 -174 270 -353 55 -71 251 -316 370 -462 30 -37 75 -93 100 -124 25 -31 83 -102 129 -158 123 -149 228 -279 295 -366 32 -42 68 -85 80 -97 11 -11 50 -57 86 -103 36 -45 82 -103 103 -129 20 -26 62 -78 92 -117 30 -38 97 -124 150 -190 130 -164 638 -841 709 -945 32 -47 86 -125 121 -175 307 -431 683 -1039 955 -1545 87 -162 370 -740 370 -755 0 -3 13 -33 29 -67 77 -169 215 -509 281 -693 18 -49 36 -99 41 -110 18 -40 148 -443 188 -580 81 -283 157 -629 195 -885 62 -421 69 -1006 16 -1360 -40 -264 -42 -278 -97 -500 -150 -612 -484 -1226 -962 -1770 -67 -76 -355 -366 -426 -429 -405 -360 -862 -681 -1370 -962 -33 -18 -82 -46 -110 -61 -73 -41 -511 -259 -575 -288 -30 -13 -96 -43 -146 -66 -144 -67 -640 -269 -799 -325 -44 -15 -138 -49 -210 -74 -151 -54 -313 -108 -475 -159 -63 -20 -142 -45 -175 -56 -110 -36 -546 -159 -635 -180 -19 -5 -75 -19 -125 -33 -49 -13 -117 -30 -150 -37 -33 -6 -69 -16 -80 -20 -11 -5 -45 -14 -75 -20 -30 -7 -71 -16 -90 -21 -96 -24 -255 -61 -335 -78 -49 -11 -155 -34 -235 -51 -168 -37 -555 -112 -715 -140 -60 -10 -150 -26 -200 -35 -213 -38 -646 -106 -820 -130 -66 -9 -181 -25 -255 -35 -74 -11 -211 -28 -305 -40 -93 -11 -204 -25 -245 -30 -181 -24 -769 -83 -1095 -110 -132 -11 -267 -22 -300 -25 -219 -19 -1094 -72 -1340 -80 -88 -3 -171 -8 -185 -10 -14 -2 -160 -7 -325 -11 -165 -3 -303 -8 -308 -11 -15 -9 -28639 -5 -28649 5 -5 5 -3 22 6 43 8 19 39 97 70 174 52 132 136 336 155 380 23 51 44 101 105 250 36 88 81 198 101 245 20 47 65 155 100 240 35 85 77 187 93 225 16 39 39 95 52 125 12 30 26 64 30 75 5 11 32 76 61 145 70 169 108 259 125 297 8 17 14 33 14 36 0 3 16 40 35 81 19 42 35 80 35 85 0 4 14 39 30 77 17 38 35 78 39 89 5 11 23 56 41 100 18 44 43 104 56 132 l23 53 13563 4 c13365 4 13851 5 14623 35 768 31 1532 82 2095 141 58 6 146 15 195 21 50 5 128 14 175 19 47 6 123 15 170 20 171 20 476 61 600 80 36 6 94 15 130 20 36 6 92 15 125 20 33 6 87 15 120 20 81 12 111 17 240 41 179 33 272 51 415 81 25 5 65 13 90 18 25 5 88 18 140 30 52 12 106 23 120 26 14 3 41 9 60 14 19 6 94 24 165 40 138 33 150 36 205 51 19 6 51 14 70 19 168 42 791 236 865 270 11 5 47 19 80 31 121 42 322 123 413 166 51 23 95 43 98 43 13 0 259 120 394 192 532 283 980 634 1286 1005 127 155 160 202 247 348 221 368 335 731 378 1198 27 298 -22 798 -112 1132 -5 22 -14 56 -19 75 -26 108 -148 482 -183 562 -8 18 -31 74 -50 123 -53 135 -107 254 -247 535 -267 536 -621 1093 -1097 1725 -78 105 -176 233 -218 285 -41 52 -90 115 -109 140 -19 25 -110 117 -202 205 -424 404 -828 829 -1089 1145 -33 40 -67 80 -75 89 -9 9 -37 43 -62 76 -26 33 -75 96 -110 140 -52 66 -175 233 -261 355 -20 28 -78 116 -312 470 -260 395 -445 728 -575 1040 -29 69 -61 144 -71 167 -11 24 -19 49 -19 56 0 8 -3 17 -7 20 -9 10 -95 272 -114 350 -5 20 -13 55 -19 77 -25 101 -32 128 -41 170 -59 268 -79 467 -79 779 0 295 11 434 51 651 10 51 14 72 39 185 5 22 16 69 26 105 9 36 19 83 24 105 4 22 17 76 30 120 12 44 25 94 30 110 5 17 18 64 30 105 11 41 25 89 29 105 10 36 60 192 71 220 4 11 13 38 19 60 7 22 16 49 20 60 5 11 23 61 40 110 42 118 149 399 171 450 10 22 30 69 45 105 15 36 35 83 45 105 10 22 32 74 50 115 70 162 305 629 412 820 17 30 47 84 66 120 52 96 120 208 161 265 36 50 195 250 215 271 6 6 62 68 125 137 123 137 412 413 588 563 58 50 421 324 428 324 3 0 31 20 62 43 351 265 1120 683 1733 944 96 41 189 80 205 87 130 57 475 185 610 227 39 12 109 35 156 50 48 16 96 29 107 29 11 0 24 5 27 10 3 6 15 10 26 10 10 0 27 4 37 9 9 5 37 14 62 21 25 7 55 16 68 21 13 5 34 9 47 9 13 0 26 4 29 9 3 5 20 11 38 14 18 3 49 10 68 15 58 17 192 53 235 63 22 5 58 14 80 20 22 6 58 14 80 19 22 4 65 14 95 22 30 8 82 21 115 27 33 7 76 16 95 21 82 20 172 39 285 60 28 5 75 13 105 19 30 6 82 15 115 20 33 6 76 13 95 16 19 4 67 11 105 17 39 5 97 14 130 19 212 32 506 63 760 79 87 6 161 13 164 15 2 3 1448 5 3213 5 2831 0 3209 -2 3214 -15z m-13122 -13 c2 -4 -32 -93 -75 -197 -44 -105 -96 -228 -116 -275 -60 -144 -64 -153 -93 -215 -15 -33 -33 -76 -40 -95 -13 -34 -90 -218 -172 -410 -22 -52 -46 -108 -53 -125 -82 -197 -166 -395 -201 -473 -13 -29 -24 -54 -24 -57 0 -3 -156 -376 -184 -440 -7 -16 -50 -118 -96 -225 -45 -107 -86 -204 -91 -215 -5 -11 -34 -81 -65 -155 -31 -74 -77 -182 -101 -240 -25 -58 -67 -159 -95 -225 -27 -66 -63 -151 -80 -190 -17 -38 -36 -83 -43 -100 -7 -16 -22 -51 -33 -76 -12 -25 -30 -70 -42 -100 -20 -52 -107 -258 -195 -464 -24 -55 -64 -149 -90 -210 -26 -60 -54 -128 -62 -150 -7 -22 -20 -53 -28 -70 -19 -42 -44 -100 -110 -255 -31 -74 -63 -150 -71 -167 -38 -87 -62 -146 -104 -248 -19 -44 -40 -88 -48 -97 -14 -17 -104 -18 -1634 -18 l-1618 0 -11 -27 c-6 -15 -16 -41 -24 -58 -7 -16 -52 -122 -100 -235 -48 -113 -93 -218 -101 -234 -8 -16 -14 -33 -14 -37 0 -4 -13 -36 -29 -71 -16 -35 -64 -146 -106 -248 -42 -102 -89 -214 -105 -250 -16 -36 -52 -121 -81 -190 -74 -180 -122 -293 -164 -390 -20 -47 -47 -112 -60 -145 -13 -33 -37 -91 -55 -130 -17 -38 -52 -119 -77 -180 -25 -60 -53 -128 -63 -150 -35 -78 -220 -516 -220 -520 0 -5 -11 -30 -60 -140 -10 -22 -30 -69 -45 -105 -15 -36 -38 -89 -51 -118 -13 -29 -24 -57 -24 -62 0 -6 -4 -18 -10 -28 -5 -9 -47 -107 -94 -217 -46 -110 -113 -270 -149 -355 -36 -85 -75 -180 -87 -210 -12 -30 -25 -59 -30 -65 -4 -5 -11 -21 -15 -35 -4 -14 -16 -43 -26 -65 -10 -22 -43 -101 -74 -175 -31 -74 -66 -155 -77 -180 -11 -25 -40 -92 -63 -150 -43 -106 -90 -216 -127 -300 -25 -56 -47 -108 -59 -137 -5 -13 -13 -33 -19 -45 -34 -79 -160 -381 -160 -384 0 -2 -12 -29 -26 -61 -14 -32 -30 -67 -34 -78 -4 -11 -20 -46 -34 -78 -14 -32 -26 -60 -26 -63 0 -3 -11 -29 -23 -57 -13 -29 -31 -70 -40 -92 -23 -58 -126 -303 -148 -352 -10 -24 -19 -45 -19 -48 0 -2 -12 -30 -26 -62 -14 -32 -32 -73 -40 -90 -8 -18 -20 -48 -28 -65 -8 -18 -24 -58 -36 -88 -11 -30 -32 -79 -45 -108 -14 -29 -25 -55 -25 -57 0 -3 -10 -27 -21 -53 -12 -26 -27 -60 -34 -77 -49 -116 -157 -372 -230 -545 -48 -113 -101 -239 -117 -280 -16 -41 -36 -86 -43 -100 -7 -14 -50 -115 -96 -225 -45 -110 -86 -204 -91 -210 -4 -5 -8 -15 -8 -22 0 -7 -13 -41 -29 -75 -16 -35 -57 -130 -91 -213 -34 -82 -68 -163 -75 -180 -7 -16 -26 -59 -41 -95 -15 -36 -42 -99 -60 -140 -18 -41 -49 -115 -69 -165 -38 -92 -112 -267 -192 -455 -24 -58 -54 -127 -65 -155 -12 -27 -34 -78 -50 -113 -15 -34 -28 -64 -28 -67 0 -3 -9 -24 -19 -48 -11 -23 -67 -157 -126 -297 -58 -140 -121 -290 -140 -332 -19 -43 -35 -80 -35 -83 0 -3 -10 -27 -21 -53 -28 -63 -39 -88 -93 -217 -50 -118 -53 -125 -85 -197 -12 -26 -21 -50 -21 -52 0 -4 -185 -442 -225 -533 -21 -46 -21 -47 -86 -203 -28 -69 -78 -186 -109 -260 -32 -74 -106 -250 -165 -390 -59 -140 -120 -286 -137 -325 -17 -38 -36 -83 -43 -100 -7 -16 -48 -113 -90 -215 -43 -102 -86 -205 -97 -230 -32 -72 -43 -97 -103 -240 -31 -74 -66 -154 -76 -177 l-19 -43 -3099 0 c-1704 0 -3100 3 -3104 6 -3 3 -2 14 2 23 5 9 13 27 19 41 6 14 24 57 41 95 16 39 55 131 86 205 134 320 183 437 210 495 7 17 30 71 50 120 21 50 46 110 57 135 11 25 26 59 33 75 7 17 25 59 40 95 15 36 33 79 40 95 7 17 61 145 120 285 59 140 113 269 120 285 7 17 35 84 63 150 28 66 76 181 108 255 31 74 62 149 69 165 8 17 46 107 85 200 39 94 75 179 80 190 10 23 26 60 66 155 15 36 44 104 66 153 21 48 38 89 38 92 0 5 8 24 59 137 11 26 21 50 21 53 0 2 14 34 30 70 17 36 30 67 30 70 0 4 73 176 131 310 5 11 40 97 79 190 39 94 75 179 79 190 5 11 16 36 24 55 8 19 40 96 72 170 31 74 63 149 70 165 7 17 49 116 94 222 44 105 91 217 105 248 14 30 26 58 26 60 0 3 9 27 21 53 12 26 25 56 29 67 74 174 190 449 217 515 19 47 44 105 55 130 11 25 35 81 53 125 44 110 174 413 191 449 8 16 14 33 14 37 0 4 13 36 29 71 29 66 40 91 117 273 25 61 51 124 58 140 8 17 32 73 54 125 76 176 152 359 152 364 0 3 12 31 26 63 45 101 61 136 89 203 38 89 64 150 81 184 8 16 14 33 14 37 0 9 131 322 161 383 10 22 19 43 19 48 0 4 11 31 24 60 13 29 40 94 61 143 45 108 52 124 206 485 66 157 130 307 140 334 22 54 171 407 199 471 10 22 34 78 53 125 19 47 46 110 60 140 13 30 28 66 32 80 4 14 20 52 35 85 38 83 53 116 95 219 20 49 40 96 45 105 4 9 32 75 60 146 54 134 71 173 120 285 16 36 36 83 45 105 40 93 46 107 59 138 29 65 49 115 92 221 24 59 51 122 59 140 7 17 48 112 90 211 43 99 86 199 96 222 10 23 19 45 19 48 0 4 7 21 15 38 21 47 135 318 135 322 0 3 14 34 30 70 17 36 30 68 30 70 0 2 11 28 24 57 13 29 45 104 71 167 25 62 59 142 76 177 16 36 29 67 29 70 0 3 34 84 75 179 41 96 75 176 75 179 0 3 11 29 24 58 57 126 166 391 166 403 0 8 -4 16 -9 20 -5 3 -741 5 -1636 5 -1455 0 -1626 2 -1632 16 -5 13 15 70 68 189 10 22 38 90 64 150 25 61 49 119 54 130 78 180 159 371 226 534 25 62 50 121 55 130 4 9 31 72 60 141 29 69 65 153 81 187 16 34 29 66 29 71 0 5 11 34 24 63 13 30 42 99 65 154 23 55 53 123 67 152 13 28 24 55 24 58 0 6 55 136 105 250 32 71 93 222 100 245 4 14 11 30 15 35 7 9 127 288 149 348 5 12 19 45 31 72 12 28 29 65 36 83 8 17 20 47 28 65 8 17 49 115 91 217 74 177 145 343 187 440 11 25 23 54 28 65 4 11 13 34 20 50 7 17 16 39 21 50 12 30 112 267 153 365 20 47 41 94 46 105 5 11 39 92 75 180 35 88 71 173 80 188 8 16 15 33 15 37 0 5 14 40 31 77 17 37 35 77 39 88 4 11 15 36 23 55 8 19 27 64 42 100 14 36 32 79 40 95 7 17 37 86 65 155 29 69 57 133 62 143 l9 17 6379 0 c3508 0 6381 -3 6384 -8z m-13594 -46 c9 -12 8 -22 -4 -48 -12 -28 -49 -115 -123 -288 -8 -19 -19 -44 -23 -55 -4 -11 -15 -36 -23 -55 -8 -19 -52 -123 -97 -230 -45 -107 -93 -219 -106 -248 -13 -29 -24 -55 -24 -58 0 -2 -7 -21 -17 -42 -9 -20 -22 -50 -28 -67 -15 -36 -141 -337 -161 -382 -8 -18 -20 -48 -28 -65 -8 -18 -33 -78 -55 -133 -23 -55 -53 -123 -66 -150 -14 -28 -25 -53 -25 -57 0 -7 -31 -81 -127 -308 -25 -58 -51 -118 -58 -135 -7 -16 -25 -59 -40 -95 -15 -36 -33 -78 -41 -95 -7 -16 -31 -75 -54 -130 -23 -55 -45 -104 -49 -110 -4 -5 -13 -28 -20 -50 -8 -22 -24 -62 -36 -90 -13 -27 -57 -133 -100 -235 -42 -102 -108 -257 -145 -345 -38 -88 -94 -221 -125 -295 -32 -74 -68 -159 -81 -188 -13 -29 -24 -55 -24 -58 0 -3 -13 -36 -29 -72 -16 -37 -55 -128 -86 -202 -31 -74 -65 -153 -75 -175 -10 -22 -34 -80 -54 -130 -21 -49 -43 -103 -50 -120 -8 -16 -44 -102 -81 -190 -37 -88 -73 -173 -80 -190 -7 -16 -24 -57 -38 -90 -14 -33 -47 -109 -72 -170 -25 -60 -51 -114 -56 -120 -7 -7 -632 -12 -1812 -16 -1321 -4 -1817 -9 -1857 -17 -59 -13 -110 -23 -205 -42 -121 -24 -142 -29 -255 -58 -344 -91 -688 -231 -882 -359 -40 -26 -78 -50 -83 -53 -130 -64 -504 -523 -726 -890 -103 -170 -120 -202 -202 -365 -99 -198 -188 -405 -190 -443 l-2 -27 155 1 c85 0 616 6 1180 13 564 7 1392 16 1840 21 448 5 1101 12 1451 16 464 5 638 4 643 -4 4 -6 -24 -85 -62 -174 -38 -90 -100 -235 -137 -323 -37 -88 -74 -176 -82 -195 -9 -19 -21 -48 -28 -65 -28 -66 -132 -311 -217 -515 -49 -118 -103 -246 -120 -285 -17 -38 -36 -83 -43 -100 -7 -16 -22 -51 -34 -77 -12 -27 -34 -81 -50 -120 -28 -71 -62 -151 -156 -373 -26 -60 -65 -152 -87 -204 -22 -52 -53 -124 -69 -159 -16 -36 -29 -69 -29 -75 0 -5 -9 -28 -19 -51 -43 -91 -81 -176 -81 -182 0 -3 -20 -51 -44 -107 -24 -56 -94 -221 -156 -367 -148 -351 -216 -511 -241 -568 -21 -48 -34 -77 -52 -122 -5 -14 -13 -34 -18 -45 -12 -31 -179 -426 -194 -460 -7 -16 -43 -102 -80 -190 -90 -215 -93 -222 -121 -282 l-24 -53 -2629 0 c-2256 0 -2630 -2 -2640 -14 -11 -13 -38 -72 -108 -241 -14 -33 -33 -78 -43 -100 -10 -22 -41 -96 -69 -165 -28 -69 -57 -138 -65 -155 -8 -16 -50 -115 -94 -220 -132 -313 -243 -576 -275 -650 -16 -38 -35 -83 -43 -100 -7 -16 -22 -54 -34 -84 -11 -30 -29 -73 -40 -95 -10 -23 -44 -102 -75 -176 -31 -74 -60 -144 -65 -155 -6 -11 -23 -51 -38 -90 -28 -67 -60 -142 -165 -390 -14 -33 -49 -116 -78 -185 -28 -69 -60 -145 -71 -170 -36 -82 -60 -135 -69 -152 -5 -10 -9 -23 -9 -30 0 -7 -7 -26 -15 -41 -8 -15 -44 -98 -80 -185 -94 -223 -165 -392 -180 -427 -7 -16 -32 -75 -55 -130 -52 -124 -123 -290 -157 -370 -32 -74 -53 -124 -63 -150 -16 -37 -102 -240 -120 -280 -9 -22 -36 -87 -60 -145 -23 -58 -51 -123 -61 -145 -20 -44 -106 -248 -179 -425 -41 -99 -154 -365 -181 -425 -10 -22 -74 -175 -241 -575 -61 -146 -115 -271 -121 -278 -8 -9 -635 -12 -3101 -10 l-3091 3 3 25 c1 14 12 45 23 69 11 23 40 91 64 150 38 93 143 342 180 426 7 17 43 102 80 190 36 88 77 184 91 213 13 29 24 55 24 57 0 3 9 24 19 48 51 114 131 309 131 320 0 7 4 17 9 23 5 5 32 65 61 134 28 69 63 147 76 174 13 28 24 54 24 58 0 8 12 37 62 148 11 25 24 54 28 65 11 28 79 192 100 240 46 104 110 256 110 260 0 2 11 28 24 57 13 29 50 116 81 193 31 77 61 144 66 150 5 5 9 15 9 22 0 6 13 40 29 75 33 71 111 256 111 263 0 2 11 28 24 57 24 52 46 105 173 408 65 157 75 179 111 260 11 25 50 117 87 205 36 88 97 232 135 320 37 88 103 243 145 345 92 222 101 244 126 293 10 22 19 43 19 48 0 9 12 36 71 167 16 34 29 65 29 68 0 5 104 253 151 359 22 51 134 319 165 395 19 47 48 117 66 155 52 119 65 147 101 235 50 121 241 574 268 635 9 21 94 224 173 415 27 63 52 124 57 135 4 11 22 52 39 90 17 39 52 120 77 180 25 61 51 124 58 140 8 17 34 80 60 140 25 61 50 119 54 130 16 34 72 168 91 215 18 42 67 156 112 260 40 90 46 106 74 180 15 41 31 80 35 85 3 6 28 62 54 125 51 123 126 299 155 365 10 22 34 81 54 130 20 50 46 110 58 135 11 25 24 54 28 65 12 32 149 357 190 450 10 22 28 65 40 95 12 30 33 78 45 105 13 28 46 108 74 178 29 71 60 147 70 170 19 42 40 91 101 237 17 41 41 95 52 120 11 25 34 79 50 120 25 61 137 327 193 455 27 61 145 344 155 369 5 14 18 45 28 69 11 23 36 83 56 132 21 50 41 98 46 107 5 9 35 79 66 155 31 76 67 162 80 191 13 29 24 55 24 57 0 3 23 58 51 122 28 65 58 133 65 151 33 78 43 100 63 144 11 26 21 50 21 53 0 5 162 388 195 460 13 30 35 83 102 245 101 246 365 696 648 1105 282 408 687 876 1081 1248 249 236 297 279 524 468 113 94 404 317 545 417 126 90 249 174 331 227 117 76 291 185 325 205 14 8 79 47 145 86 65 39 155 90 199 114 44 24 96 53 115 65 136 84 990 505 1024 505 3 0 33 13 68 28 35 16 104 46 153 67 50 21 104 44 120 51 98 41 345 138 373 145 17 5 47 13 65 18 84 25 110 32 217 61 170 47 164 45 310 83 74 19 146 37 160 40 14 3 50 12 80 20 30 7 82 20 115 27 33 7 73 16 89 21 16 5 44 9 62 9 18 0 35 4 38 9 3 5 23 11 43 14 54 7 222 37 263 47 37 9 111 23 225 40 39 6 95 15 125 20 107 17 338 44 515 59 180 16 454 19 4404 50 695 6 1266 13 1269 16 10 10 40 5 52 -9z m24380 -2481 c123 -3 335 -11 540 -20 95 -4 300 -15 588 -31 71 -4 105 -10 108 -19 3 -7 -4 -32 -15 -56 -12 -23 -21 -47 -21 -52 0 -9 -57 -146 -102 -247 -11 -25 -24 -54 -28 -65 -4 -11 -15 -37 -24 -57 -9 -21 -23 -55 -32 -75 -9 -21 -20 -47 -25 -58 -4 -11 -20 -49 -34 -85 -15 -36 -32 -78 -40 -95 -14 -31 -86 -201 -186 -440 -33 -77 -66 -153 -73 -170 -8 -16 -21 -48 -29 -70 -9 -22 -32 -78 -52 -125 -20 -47 -53 -123 -72 -170 -19 -47 -44 -105 -55 -129 -11 -25 -56 -131 -100 -235 -44 -105 -86 -204 -94 -220 -8 -16 -14 -34 -14 -39 0 -6 -13 -38 -28 -71 -16 -34 -39 -86 -52 -116 -13 -30 -28 -61 -33 -67 -7 -10 -487 -13 -2261 -16 -1604 -3 -2268 -7 -2311 -15 -33 -6 -85 -16 -115 -21 -30 -6 -76 -15 -102 -21 -27 -5 -67 -14 -90 -19 -70 -15 -243 -67 -303 -91 -11 -5 -36 -14 -54 -22 -62 -23 -232 -108 -305 -150 -156 -92 -384 -283 -406 -340 -6 -18 -27 -67 -45 -108 -64 -148 -63 -133 -16 -261 24 -63 48 -127 55 -144 7 -16 35 -88 61 -159 l48 -130 130 -170 c71 -94 176 -234 234 -311 59 -77 118 -156 133 -175 115 -151 180 -238 210 -280 31 -43 168 -227 370 -495 33 -44 123 -165 199 -270 77 -104 171 -233 210 -285 74 -100 322 -440 400 -548 25 -35 63 -87 84 -115 20 -29 50 -70 65 -92 15 -22 68 -96 117 -165 50 -69 98 -136 107 -150 9 -14 32 -46 50 -71 37 -53 248 -351 315 -447 24 -34 77 -111 118 -170 41 -59 89 -127 107 -151 18 -24 37 -52 43 -62 17 -32 277 -406 355 -512 41 -56 82 -112 90 -124 8 -11 46 -65 85 -120 38 -54 86 -123 106 -153 127 -193 196 -303 274 -435 48 -82 95 -161 104 -175 8 -14 25 -43 36 -65 12 -22 54 -98 92 -170 81 -150 230 -452 298 -605 79 -177 165 -381 165 -391 0 -5 4 -17 9 -27 5 -9 13 -28 19 -42 63 -159 72 -183 152 -420 23 -69 46 -134 50 -145 8 -21 53 -167 89 -290 37 -128 59 -209 90 -340 18 -71 36 -146 41 -165 11 -43 27 -116 34 -150 2 -14 14 -70 25 -125 26 -122 40 -196 70 -387 100 -624 137 -1301 103 -1898 -17 -295 -25 -389 -53 -620 -19 -160 -55 -396 -79 -525 -6 -27 -17 -86 -25 -130 -9 -44 -23 -109 -31 -145 -8 -36 -19 -85 -25 -110 -6 -25 -14 -61 -19 -80 -5 -19 -14 -57 -20 -85 -7 -27 -15 -61 -20 -75 -4 -14 -13 -45 -20 -70 -7 -25 -16 -56 -20 -70 -4 -14 -13 -43 -19 -65 -36 -136 -106 -354 -140 -440 -5 -11 -16 -45 -26 -75 -10 -30 -24 -71 -32 -90 -22 -52 -30 -71 -43 -110 -7 -19 -18 -48 -25 -65 -8 -16 -21 -50 -31 -75 -9 -25 -21 -49 -26 -55 -4 -5 -8 -15 -8 -22 0 -7 -15 -45 -34 -85 -18 -40 -46 -102 -61 -138 -39 -88 -285 -573 -323 -635 -17 -27 -49 -82 -71 -121 -63 -112 -203 -334 -307 -488 -139 -204 -488 -661 -600 -786 -17 -19 -74 -82 -125 -139 -52 -57 -113 -126 -137 -153 -154 -179 -744 -729 -952 -888 -25 -19 -61 -48 -80 -66 -73 -65 -462 -356 -610 -455 -414 -278 -760 -492 -1050 -647 -36 -19 -110 -60 -165 -89 -203 -111 -744 -370 -925 -443 -30 -13 -83 -35 -116 -51 -34 -15 -133 -56 -220 -90 -88 -33 -174 -68 -193 -76 -133 -59 -796 -293 -906 -320 -11 -2 -29 -8 -40 -13 -30 -12 -213 -69 -355 -110 -41 -12 -85 -26 -98 -31 -13 -5 -34 -9 -47 -9 -13 0 -27 -4 -30 -10 -3 -5 -19 -10 -35 -10 -16 0 -32 -4 -35 -10 -3 -5 -19 -10 -35 -10 -16 0 -31 -4 -34 -9 -3 -5 -20 -11 -38 -14 -18 -3 -69 -15 -113 -27 -44 -12 -97 -26 -117 -31 -21 -5 -55 -13 -75 -19 -48 -12 -106 -26 -160 -40 -24 -5 -62 -15 -85 -20 -139 -35 -173 -42 -303 -71 -55 -11 -118 -25 -140 -31 -51 -12 -104 -23 -180 -38 -33 -7 -78 -16 -100 -20 -53 -11 -148 -29 -210 -40 -27 -5 -72 -14 -100 -19 -56 -11 -145 -28 -220 -41 -27 -4 -79 -13 -115 -20 -36 -6 -90 -15 -120 -20 -227 -36 -300 -47 -390 -60 -36 -5 -96 -14 -135 -20 -38 -6 -104 -15 -145 -20 -41 -5 -111 -14 -155 -20 -44 -6 -120 -15 -170 -21 -49 -6 -126 -14 -170 -20 -117 -13 -257 -28 -365 -39 -309 -30 -333 -32 -695 -60 -267 -21 -665 -43 -1095 -62 -334 -14 -32920 -22 -32934 -8 -7 7 -6 14 2 22 7 7 12 18 12 25 0 7 14 42 30 78 17 36 30 68 30 70 0 2 14 34 30 70 17 36 30 70 30 75 0 5 11 33 24 62 13 29 36 82 51 118 15 36 31 74 36 85 5 11 32 76 60 145 28 69 74 179 101 245 28 66 65 156 83 200 65 158 72 175 104 247 12 26 21 50 21 53 0 2 11 29 25 59 14 30 25 58 25 61 0 3 11 31 25 61 14 30 25 57 25 61 0 4 13 36 29 72 16 36 43 102 61 146 18 44 40 98 50 120 9 22 31 74 48 115 17 41 49 120 72 175 161 389 192 457 217 482 l22 23 14383 1 c7911 0 14419 2 14463 4 44 3 229 9 410 15 575 18 1001 41 1675 89 426 31 655 51 985 87 72 7 177 18 235 24 191 18 458 49 685 80 44 6 145 19 225 30 218 29 431 60 575 85 44 8 116 19 160 25 78 11 227 36 468 79 66 12 565 107 632 120 76 15 499 108 595 131 193 45 267 63 300 70 19 4 71 18 115 30 44 12 154 41 245 65 890 231 1768 542 2541 898 357 165 842 423 1089 582 424 271 812 559 1050 780 36 33 112 102 168 154 161 146 486 512 618 696 131 182 275 405 348 538 46 85 166 323 166 330 0 3 15 38 34 79 130 281 250 682 315 1048 50 283 64 475 64 845 0 389 -17 606 -74 955 -31 190 -149 717 -179 800 -5 14 -23 72 -40 130 -82 271 -232 696 -333 945 -117 288 -176 425 -295 679 -112 240 -379 752 -502 961 -26 44 -73 125 -105 180 -189 322 -523 836 -762 1170 -141 198 -172 240 -204 283 -20 26 -49 66 -65 88 -48 68 -293 392 -374 494 -41 52 -89 112 -105 133 -17 21 -43 55 -60 76 -16 21 -52 67 -80 103 -72 94 -254 321 -375 468 -58 70 -148 180 -200 245 -52 64 -111 136 -130 159 -19 24 -66 82 -105 130 -38 48 -107 133 -153 189 -45 56 -95 118 -110 137 -15 19 -54 69 -87 110 -369 458 -752 990 -952 1325 -560 933 -683 1673 -399 2391 209 530 528 906 1076 1268 250 165 658 372 946 481 215 82 540 191 699 235 17 5 62 18 100 29 91 28 313 85 390 101 33 7 71 16 85 21 14 4 70 17 125 29 202 42 392 80 450 91 33 6 80 15 105 20 41 8 289 48 520 83 52 9 154 22 225 31 72 8 162 19 200 25 39 5 117 14 175 20 58 6 143 15 190 20 166 19 432 42 680 60 339 23 453 30 600 35 85 3 166 8 180 10 14 2 158 7 320 11 162 3 297 8 300 11 5 5 1445 -5 1680 -12z m-47800 -29120 c320 -52 530 -203 650 -468 67 -149 80 -374 74 -1282 -5 -675 -14 -832 -53 -951 -49 -153 -134 -270 -271 -375 -60 -46 -111 -73 -195 -102 -148 -52 -244 -67 -424 -67 -175 0 -255 12 -406 63 -252 84 -427 267 -495 522 -32 119 -40 322 -40 1065 0 822 7 946 60 1091 41 115 125 237 215 312 74 62 232 145 320 167 163 41 398 52 565 25z m38455 0 c175 -28 248 -51 355 -108 253 -136 315 -283 315 -742 l0 -130 -370 0 -370 0 -6 180 c-9 249 -27 289 -131 286 -53 -1 -83 -13 -110 -45 -75 -89 -57 -377 29 -470 29 -31 151 -122 203 -150 31 -17 257 -166 335 -220 79 -56 240 -194 296 -254 63 -68 118 -167 139 -253 53 -208 71 -444 51 -659 -26 -268 -82 -385 -235 -494 -183 -131 -382 -186 -668 -186 -405 0 -715 146 -841 396 -58 116 -90 340 -85 604 l3 175 370 0 370 0 5 -275 c5 -235 8 -280 23 -307 24 -46 55 -63 119 -66 69 -3 118 28 149 92 38 81 36 301 -5 437 -11 34 -30 65 -58 93 -53 53 -225 182 -378 284 -379 253 -490 360 -561 540 -43 111 -58 203 -62 367 -7 333 27 502 129 639 34 46 131 127 189 159 89 50 233 95 365 115 68 11 353 6 435 -8z m13270 0 c103 -16 166 -30 210 -49 16 -7 50 -21 75 -31 123 -50 285 -188 346 -295 79 -139 117 -412 108 -791 -2 -112 -8 -207 -12 -211 -5 -5 -183 -7 -398 -6 l-389 3 -6 365 c-6 377 -11 432 -49 470 -25 25 -94 43 -133 34 -79 -17 -110 -57 -122 -163 -8 -70 -7 -1817 1 -1890 11 -96 48 -145 114 -152 104 -11 150 21 170 117 8 35 15 181 19 364 l6 305 389 3 c215 1 394 -2 398 -6 15 -15 10 -418 -6 -557 -25 -207 -51 -290 -120 -385 -62 -86 -125 -147 -202 -199 -187 -125 -348 -169 -624 -170 -227 -1 -381 30 -550 112 -89 43 -117 63 -185 131 -115 116 -156 205 -196 427 l-23 124 -4 800 c-5 1050 -1 1086 133 1300 104 168 332 305 575 348 109 19 358 20 475 2z m5459 -9 c176 -40 286 -87 401 -173 145 -109 191 -252 197 -618 l3 -180 -370 0 -370 0 -6 175 c-8 240 -23 279 -109 290 -75 10 -125 -15 -152 -77 -25 -57 -35 -193 -20 -275 25 -133 74 -188 281 -317 69 -44 140 -89 156 -101 17 -11 59 -40 94 -63 93 -62 99 -66 193 -140 47 -37 122 -106 166 -153 65 -70 88 -103 117 -171 76 -176 108 -445 87 -720 -20 -259 -56 -358 -172 -473 -52 -53 -88 -76 -180 -122 -129 -63 -194 -84 -325 -104 -211 -32 -527 -6 -670 55 -190 82 -301 166 -377 286 -73 116 -110 341 -106 635 l3 185 370 0 370 0 6 -265 c5 -288 12 -327 61 -363 35 -26 123 -27 166 -2 17 10 43 41 59 69 l28 51 -1 150 c0 127 -4 161 -23 220 -26 80 -34 91 -116 160 -89 75 -367 275 -381 275 -3 0 -27 16 -52 36 -26 19 -85 63 -133 97 -192 139 -265 225 -324 382 -47 123 -56 194 -57 415 -1 175 2 221 21 313 12 60 25 116 30 125 4 9 19 39 32 66 32 67 127 167 202 214 103 65 244 111 412 136 70 10 422 -3 489 -18z m-61609 -346 l0 -305 -280 -5 c-154 -3 -281 -7 -282 -8 -2 -1 -3 -137 -3 -302 0 -165 1 -301 3 -302 1 -1 115 -5 252 -8 l250 -5 3 -268 c1 -173 -1 -275 -8 -287 -10 -19 -22 -20 -243 -20 -128 0 -238 -4 -244 -8 -10 -6 -13 -153 -15 -658 l-3 -649 -400 0 -400 0 -3 1555 c-1 855 0 1561 3 1568 3 10 146 12 687 10 l683 -3 0 -305z m1833 -948 c1 -688 3 -1253 5 -1254 1 -1 112 -5 247 -8 l245 -5 0 -305 0 -305 -650 0 -650 0 -3 1555 c-1 855 0 1561 3 1568 3 10 89 12 402 10 l398 -3 3 -1253z m5637 1244 c211 -24 330 -68 427 -159 81 -76 136 -169 172 -292 18 -62 36 -259 36 -396 0 -315 -41 -466 -148 -544 -47 -34 -139 -68 -219 -81 -67 -10 -58 -19 62 -65 111 -42 211 -123 245 -199 6 -14 18 -37 26 -52 28 -52 34 -200 32 -768 l-3 -565 -362 -3 c-337 -2 -363 -1 -372 15 -5 11 -9 253 -8 593 0 588 -4 664 -40 733 -21 42 -88 69 -161 65 l-57 -3 -5 -700 -5 -700 -400 0 -400 0 -3 1555 c-1 855 0 1561 3 1568 4 11 105 13 562 9 307 -3 585 -8 618 -11z m2580 -1556 l0 -1565 -400 0 -400 0 -3 1555 c-1 855 0 1561 3 1568 3 10 89 12 402 10 l398 -3 0 -1565z m2370 1551 c322 -47 483 -141 583 -337 66 -129 72 -238 72 -1276 0 -952 -4 -1051 -51 -1183 -41 -115 -89 -171 -198 -232 -151 -85 -263 -95 -1031 -91 l-605 3 -3 1555 c-1 855 0 1561 3 1568 4 11 106 13 578 9 362 -3 601 -9 652 -16z m3183 6 c6 -7 15 -46 21 -87 6 -41 24 -165 41 -275 46 -300 51 -335 60 -400 5 -33 21 -136 35 -230 14 -93 32 -213 40 -265 7 -52 23 -156 35 -230 19 -122 34 -225 115 -765 13 -88 31 -207 39 -265 9 -58 25 -168 37 -245 11 -77 28 -188 38 -248 9 -59 15 -110 12 -112 -8 -9 -810 -5 -815 3 -4 7 -22 223 -40 481 -2 31 -10 57 -17 62 -23 14 -285 11 -297 -4 -6 -7 -18 -109 -27 -227 -9 -118 -20 -237 -23 -265 l-7 -50 -410 0 -410 0 1 45 c1 25 11 119 23 210 24 176 31 230 55 410 9 63 36 266 61 450 79 577 85 622 100 755 8 72 17 139 20 150 3 11 14 88 25 170 70 545 120 915 125 933 6 18 1148 18 1163 -1z m4600 -4 c10 -22 8 -574 -2 -591 -5 -9 -70 -12 -229 -12 -122 0 -228 -4 -234 -8 -10 -6 -13 -273 -15 -1258 l-3 -1249 -405 0 -405 0 -3 1253 c-1 688 -3 1253 -5 1254 -1 1 -108 5 -237 8 l-235 5 -3 295 c-1 162 0 300 3 307 3 10 185 13 884 13 828 0 881 -1 889 -17z m1802 -1273 c5 -1171 6 -1288 22 -1322 20 -45 49 -61 106 -60 54 0 85 26 103 85 10 33 14 326 18 1312 l6 1270 400 0 400 0 3 -1105 c4 -1379 -2 -1498 -79 -1653 -105 -209 -269 -338 -514 -404 -94 -26 -113 -27 -315 -27 -192 0 -224 2 -300 22 -47 13 -98 27 -115 31 -51 13 -179 76 -242 119 -119 81 -224 227 -267 372 -10 31 -21 123 -26 214 -11 184 -14 2419 -3 2429 3 4 185 6 402 5 l396 -3 5 -1285z m3316 1280 c274 -23 376 -55 486 -157 91 -84 134 -149 168 -260 33 -105 50 -252 50 -430 0 -317 -41 -472 -147 -546 -48 -35 -147 -72 -218 -83 -72 -10 -66 -15 84 -75 67 -27 96 -46 145 -94 82 -81 112 -145 126 -265 7 -60 10 -299 8 -655 l-3 -560 -359 -3 c-247 -1 -363 1 -372 9 -10 8 -13 126 -13 595 0 723 -4 749 -101 788 -33 13 -144 23 -152 14 -2 -2 -5 -318 -8 -703 l-5 -700 -400 0 -400 0 -3 1555 c-1 855 0 1561 3 1568 6 16 918 17 1111 2z m2524 -11 c7 -11 18 -44 26 -72 8 -29 19 -61 24 -72 5 -11 50 -148 100 -305 51 -157 107 -330 125 -385 19 -55 62 -188 96 -295 61 -191 73 -220 90 -220 5 0 10 304 11 683 l3 682 330 0 330 0 0 -1565 0 -1565 -347 -3 c-323 -2 -348 -1 -356 15 -6 10 -38 113 -72 228 -34 116 -77 262 -96 325 -20 63 -48 158 -64 210 -15 52 -39 131 -52 175 -14 44 -46 155 -73 248 -31 103 -54 167 -62 167 -10 0 -13 -134 -14 -662 -1 -365 -2 -672 -3 -683 l-1 -20 -335 0 -335 0 -3 1555 c-1 855 0 1561 3 1568 3 9 80 12 334 12 l330 0 11 -21z m3430 6 c164 -21 234 -41 333 -93 114 -59 210 -185 238 -311 24 -109 29 -173 35 -476 13 -619 -29 -760 -261 -883 -109 -57 -201 -74 -465 -81 l-215 -6 -5 -635 -5 -635 -400 0 -400 0 -3 1555 c-1 855 0 1561 3 1568 7 19 990 17 1145 -3z m2475 -1555 l0 -1565 -400 0 -400 0 -3 1555 c-1 855 0 1561 3 1568 3 10 89 12 402 10 l398 -3 0 -1565z m1961 1495 c0 -38 1 -301 2 -582 1 -282 6 -513 11 -513 12 0 51 116 166 490 40 129 156 501 185 590 l27 85 359 3 c197 1 364 0 370 -2 8 -3 2 -35 -21 -103 -18 -54 -63 -190 -99 -303 -37 -113 -71 -213 -76 -222 -6 -10 -10 -25 -10 -33 0 -8 -4 -23 -9 -33 -20 -40 -231 -699 -231 -723 0 -14 4 -39 9 -55 5 -16 23 -74 39 -129 17 -55 42 -140 58 -190 15 -49 30 -103 35 -120 4 -16 30 -104 57 -195 28 -91 66 -219 86 -285 20 -66 40 -133 45 -150 14 -41 92 -307 96 -325 2 -8 10 -35 18 -60 39 -115 58 -193 50 -201 -5 -5 -184 -8 -408 -7 l-398 3 -19 65 c-10 36 -23 83 -28 105 -5 22 -37 146 -71 275 -33 129 -65 251 -69 270 -4 19 -20 78 -34 130 -14 52 -36 133 -47 180 -27 111 -68 252 -74 259 -3 2 -8 2 -11 -2 -4 -3 -6 -286 -6 -628 1 -401 -2 -628 -9 -640 l-10 -19 -392 2 -392 3 -3 1555 c-1 855 0 1561 3 1568 3 10 89 12 402 10 l398 -3 1 -70z m3509 -235 l0 -305 -270 -5 c-148 -3 -271 -7 -272 -8 -2 -1 -3 -137 -3 -302 0 -165 1 -301 3 -302 1 -1 115 -5 252 -8 l250 -5 0 -285 0 -285 -250 -5 c-137 -3 -251 -7 -252 -8 -2 -1 -3 -155 -3 -342 0 -187 1 -341 3 -342 1 -1 135 -5 297 -8 l295 -5 0 -305 0 -305 -700 0 -700 0 -3 1555 c-1 855 0 1561 3 1568 3 10 144 12 677 10 l673 -3 0 -305z m6834 296 c8 -9 11 -99 9 -307 l-3 -294 -270 -5 c-148 -3 -271 -7 -272 -8 -2 -1 -3 -137 -3 -302 0 -165 1 -301 3 -302 1 -1 115 -5 252 -8 l250 -5 0 -285 0 -285 -250 -5 c-137 -3 -251 -7 -252 -8 -2 -1 -3 -155 -3 -342 0 -187 1 -341 3 -342 1 -1 135 -5 297 -8 l295 -5 0 -305 0 -305 -700 0 -700 0 -3 1555 c-1 855 0 1561 3 1568 7 19 1328 18 1344 -2z m2214 4 c265 -22 343 -43 456 -119 95 -65 171 -174 215 -306 56 -172 62 -614 11 -799 -18 -64 -61 -130 -109 -166 -48 -36 -190 -90 -237 -90 -22 0 -25 -13 -6 -27 6 -5 41 -20 75 -33 35 -13 78 -33 95 -45 18 -11 40 -24 49 -27 26 -11 98 -107 132 -178 l31 -65 0 -635 0 -635 -365 0 -364 0 -7 35 c-4 19 -8 288 -8 596 -1 653 -6 702 -75 747 -32 21 -134 37 -163 26 l-23 -8 -2 -698 -3 -698 -400 0 -400 0 -3 1555 c-1 855 0 1561 3 1568 6 15 913 17 1098 2z m2554 -80 c7 -47 24 -195 38 -330 14 -135 32 -303 40 -375 8 -71 19 -182 25 -245 5 -63 14 -160 20 -215 26 -277 40 -429 55 -625 10 -118 20 -222 22 -230 11 -30 31 70 38 186 4 65 8 121 10 124 1 3 6 57 9 120 4 63 9 131 11 150 2 19 7 67 10 105 12 164 36 447 45 535 6 52 21 212 35 355 44 474 48 510 58 523 7 9 104 12 423 12 227 0 415 -3 417 -8 3 -4 -1 -54 -9 -112 -7 -58 -18 -139 -23 -180 -6 -41 -20 -142 -31 -225 -23 -162 -33 -240 -50 -380 -6 -49 -17 -133 -25 -185 -8 -52 -24 -167 -35 -255 -11 -88 -25 -191 -31 -230 -9 -70 -22 -167 -79 -595 -16 -124 -39 -292 -50 -375 -35 -260 -61 -458 -67 -515 -3 -30 -10 -61 -16 -67 -7 -10 -142 -13 -613 -13 l-604 0 -10 23 c-5 12 -21 101 -35 197 -28 198 -79 536 -150 995 -14 94 -37 247 -51 340 -14 94 -29 195 -34 225 -5 30 -18 116 -30 190 -29 187 -59 393 -70 470 -5 36 -14 97 -20 135 -6 39 -15 95 -20 125 -5 30 -21 134 -36 231 -15 97 -24 184 -21 193 6 15 46 16 424 14 l418 -3 12 -85z m3028 -1480 l0 -1565 -400 0 -400 0 -3 1555 c-1 855 0 1561 3 1568 3 10 89 12 402 10 l398 -3 0 -1565z m5510 1260 l0 -305 -270 -5 c-148 -3 -271 -7 -272 -8 -2 -1 -3 -137 -3 -302 0 -165 1 -301 3 -302 1 -1 115 -5 252 -8 l250 -5 0 -285 0 -285 -250 -5 c-137 -3 -251 -7 -252 -8 -2 -1 -3 -155 -3 -342 0 -187 1 -341 3 -342 1 -1 135 -5 297 -8 l295 -5 0 -305 0 -305 -700 0 -700 0 -3 1555 c-1 855 0 1561 3 1568 3 10 144 12 677 10 l673 -3 0 -305z"/>
<path d="M5705 3082 c-34 -8 -63 -32 -82 -70 -17 -35 -18 -89 -21 -992 -2 -583 1 -979 7 -1018 13 -85 38 -118 96 -126 56 -9 103 12 129 55 15 26 20 65 27 218 12 266 11 1701 -1 1784 -11 75 -31 122 -58 135 -24 13 -73 20 -97 14z"/>
<path d="M8642 3020 l-22 -9 2 -343 3 -343 52 -3 c29 -2 70 2 92 8 44 12 94 58 99 93 10 69 16 353 9 416 -13 116 -35 146 -133 176 -56 17 -70 17 -102 5z"/>
<path d="M13536 3018 c-15 -8 -16 -98 -16 -1042 0 -833 2 -1035 13 -1039 16 -6 81 1 131 14 74 20 110 82 122 214 7 77 3 1694 -5 1725 -16 69 -43 101 -101 118 -52 15 -125 21 -144 10z"/>
<path d="M16566 2783 c-3 -10 -14 -88 -26 -173 -11 -85 -27 -204 -35 -265 -62 -458 -96 -810 -81 -825 12 -12 265 -13 284 -1 13 8 14 2 -17 286 -20 178 -68 672 -83 853 -8 101 -15 142 -24 142 -7 0 -15 -8 -18 -17z"/>
<path d="M26563 3020 l-23 -9 0 -339 c0 -288 2 -341 15 -352 19 -15 137 3 175 27 62 41 70 77 72 328 2 231 -15 290 -95 325 -54 23 -116 32 -144 20z"/>
<path d="M32465 3009 c-3 -8 -4 -187 -3 -399 l3 -385 50 -8 c97 -16 174 28 200 116 12 39 15 106 15 302 l0 251 -22 44 c-34 65 -61 81 -156 87 -64 5 -83 3 -87 -8z"/>
<path d="M49518 3023 c-17 -4 -18 -29 -18 -353 l0 -348 24 -6 c13 -3 50 -1 82 5 139 26 149 49 149 354 0 203 -2 234 -18 263 -23 42 -69 70 -127 78 -25 3 -52 7 -60 9 -8 1 -23 0 -32 -2z"/>
</g>
</g>
  <g id="id1:id1" transform="matrix(1.25,0,0,1.25,0.0,0.0)"><g transform="translate(0.000000,1431.200000) scale(0.040000,-0.040000)" fill="#006836" stroke="none">
<path d="M49638 35285 c-2 -3 -78 -10 -169 -15 -283 -19 -644 -59 -884 -99 -33 -6 -89 -15 -125 -21 -36 -5 -90 -15 -120 -20 -30 -6 -77 -15 -105 -20 -27 -5 -72 -14 -100 -19 -27 -6 -75 -15 -105 -21 -30 -5 -75 -15 -100 -20 -25 -6 -64 -15 -87 -21 -24 -5 -63 -13 -88 -19 -25 -5 -64 -14 -87 -19 -24 -6 -61 -14 -83 -20 -22 -6 -58 -14 -80 -20 -22 -5 -75 -19 -117 -30 -43 -12 -113 -30 -155 -42 -43 -11 -94 -24 -113 -29 -66 -16 -105 -28 -150 -44 -25 -8 -55 -16 -67 -16 -12 0 -24 -4 -27 -8 -3 -5 -31 -15 -63 -22 -32 -7 -62 -17 -67 -22 -6 -4 -18 -8 -28 -8 -10 0 -26 -4 -36 -9 -9 -5 -37 -15 -62 -21 -25 -7 -54 -16 -65 -21 -11 -4 -40 -14 -65 -20 -25 -7 -49 -16 -54 -21 -6 -4 -17 -8 -25 -8 -9 0 -40 -10 -71 -21 -30 -12 -65 -26 -77 -30 -44 -17 -78 -31 -95 -40 -10 -5 -25 -9 -33 -9 -8 0 -23 -4 -33 -9 -25 -14 -74 -34 -187 -79 -55 -22 -125 -51 -155 -64 -30 -14 -80 -35 -110 -48 -232 -97 -849 -402 -962 -476 -21 -13 -40 -24 -42 -24 -3 0 -29 -14 -58 -31 -29 -18 -69 -41 -88 -52 -209 -119 -528 -332 -751 -500 -314 -236 -631 -522 -861 -776 -295 -326 -398 -473 -601 -861 -33 -63 -63 -119 -67 -125 -26 -35 -350 -702 -350 -720 0 -5 -14 -38 -60 -140 -39 -87 -50 -113 -50 -120 0 -3 -11 -31 -25 -61 -14 -30 -25 -59 -25 -64 0 -6 -4 -18 -9 -28 -5 -9 -19 -44 -31 -77 -12 -33 -26 -69 -30 -80 -19 -47 -43 -115 -66 -185 -14 -41 -29 -84 -33 -95 -7 -17 -26 -77 -86 -270 -7 -22 -20 -69 -30 -105 -9 -36 -20 -74 -25 -85 -18 -47 -30 -93 -30 -113 0 -11 -4 -23 -9 -26 -5 -3 -11 -20 -14 -38 -7 -38 -22 -106 -36 -163 -37 -147 -62 -266 -81 -390 -30 -193 -35 -268 -35 -580 0 -313 5 -388 35 -585 6 -36 13 -83 16 -105 3 -22 9 -49 14 -60 5 -11 11 -36 14 -55 6 -35 17 -86 36 -157 5 -21 12 -51 15 -68 4 -16 10 -39 15 -50 4 -11 13 -40 20 -65 7 -25 16 -54 21 -65 4 -11 18 -49 29 -85 12 -36 26 -74 30 -85 5 -11 27 -69 51 -130 23 -60 46 -114 51 -120 4 -5 8 -15 8 -23 0 -29 239 -497 326 -637 13 -22 27 -47 31 -55 7 -15 34 -59 127 -205 28 -44 56 -88 61 -97 6 -8 32 -47 58 -84 27 -38 113 -167 192 -286 368 -556 741 -996 1416 -1670 433 -432 509 -512 597 -629 22 -30 84 -110 137 -179 53 -69 118 -156 145 -195 28 -38 67 -93 87 -122 94 -129 220 -307 238 -337 11 -18 66 -101 123 -184 56 -83 102 -154 102 -157 0 -4 13 -25 29 -48 57 -84 165 -266 264 -447 17 -30 41 -73 54 -95 32 -55 246 -482 263 -525 7 -19 24 -60 38 -90 49 -110 64 -147 82 -200 7 -19 19 -50 27 -68 21 -49 74 -192 83 -227 8 -31 16 -56 30 -90 4 -11 13 -40 20 -65 26 -92 33 -116 41 -138 5 -13 9 -32 9 -43 0 -10 4 -27 9 -37 10 -19 27 -94 61 -277 7 -33 16 -80 21 -105 11 -58 26 -183 40 -340 16 -172 2 -493 -31 -680 -19 -114 -44 -228 -60 -285 -6 -22 -14 -52 -17 -68 -3 -15 -9 -30 -14 -33 -5 -3 -9 -13 -9 -23 0 -23 -81 -225 -136 -337 -235 -485 -624 -903 -1189 -1281 -82 -55 -177 -114 -210 -132 -33 -18 -64 -36 -70 -41 -53 -40 -596 -310 -624 -310 -5 0 -26 -8 -48 -19 -37 -18 -75 -35 -175 -80 -26 -12 -54 -21 -61 -21 -7 0 -32 -9 -55 -20 -22 -11 -47 -20 -55 -20 -7 0 -17 -4 -23 -9 -5 -5 -27 -14 -49 -20 -41 -13 -77 -27 -107 -42 -10 -5 -27 -9 -37 -9 -11 0 -23 -4 -26 -10 -3 -5 -16 -10 -29 -10 -12 0 -26 -4 -32 -8 -5 -5 -29 -14 -54 -21 -53 -15 -97 -30 -125 -41 -11 -4 -40 -13 -65 -20 -25 -7 -54 -16 -65 -20 -11 -4 -38 -13 -60 -19 -22 -6 -71 -20 -110 -31 -91 -27 -165 -47 -255 -70 -25 -6 -59 -16 -76 -21 -17 -5 -40 -9 -52 -9 -11 0 -24 -5 -27 -10 -3 -6 -21 -10 -40 -10 -19 0 -36 -4 -39 -9 -3 -4 -22 -11 -43 -14 -21 -4 -58 -11 -83 -17 -25 -6 -63 -15 -85 -20 -22 -5 -60 -14 -85 -19 -25 -6 -67 -16 -95 -21 -27 -5 -70 -15 -95 -21 -25 -6 -63 -13 -85 -15 -22 -3 -49 -9 -60 -14 -11 -5 -36 -11 -55 -14 -19 -3 -57 -10 -85 -15 -27 -6 -77 -16 -110 -21 -60 -10 -136 -23 -230 -41 -27 -5 -81 -14 -120 -20 -38 -6 -96 -15 -127 -20 -32 -5 -84 -13 -115 -18 -75 -12 -189 -29 -283 -42 -41 -6 -106 -15 -145 -20 -38 -5 -108 -14 -155 -20 -47 -6 -114 -14 -150 -19 -83 -10 -240 -29 -350 -40 -47 -5 -132 -14 -190 -20 -574 -60 -1323 -110 -2100 -140 -773 -31 -1287 -32 -14633 -36 -12857 -4 -13558 -5 -13563 -22 -7 -20 -17 -45 -37 -92 -9 -19 -25 -60 -37 -90 -12 -30 -28 -70 -36 -87 -8 -18 -20 -48 -28 -65 -8 -18 -24 -58 -36 -88 -12 -30 -32 -78 -46 -108 -13 -29 -24 -58 -24 -65 0 -7 -4 -17 -8 -22 -5 -6 -15 -26 -22 -45 -8 -19 -26 -63 -42 -98 -15 -34 -28 -68 -28 -75 0 -7 -4 -17 -8 -22 -5 -6 -19 -37 -32 -70 -13 -33 -36 -88 -52 -123 -15 -34 -28 -68 -28 -75 0 -7 -4 -17 -8 -22 -5 -6 -17 -30 -26 -55 -18 -47 -30 -74 -65 -152 -11 -26 -21 -50 -21 -53 0 -3 -9 -27 -21 -53 -12 -26 -24 -56 -29 -67 -20 -52 -29 -73 -49 -113 -11 -24 -21 -48 -21 -53 0 -5 -9 -31 -21 -57 -23 -51 -37 -86 -49 -117 -12 -30 -41 -97 -56 -129 -8 -16 -14 -33 -14 -38 0 -8 -12 -36 -62 -148 -11 -25 -24 -54 -28 -65 -4 -11 -12 -32 -19 -47 -6 -16 -15 -38 -20 -50 -5 -13 -18 -43 -29 -68 -11 -25 -28 -65 -37 -90 -9 -25 -23 -60 -31 -77 -8 -18 -20 -48 -28 -65 -8 -18 -26 -64 -41 -103 -15 -38 -31 -78 -36 -88 -6 -10 -7 -27 -4 -38 l6 -19 14312 3 c13138 3 14345 5 14712 20 920 38 1400 65 1952 112 382 32 440 37 505 46 37 5 91 9 121 9 29 0 78 4 108 9 30 6 106 15 169 21 63 6 149 15 190 20 41 5 120 14 175 20 141 15 632 79 770 100 33 5 94 14 135 20 167 24 513 79 695 112 28 5 77 13 110 18 33 4 83 13 110 19 28 6 77 16 110 21 33 6 83 14 110 20 28 5 75 15 105 20 30 6 76 15 103 20 26 6 68 14 95 19 26 5 92 19 147 31 126 28 152 34 250 54 44 9 96 20 115 26 19 5 65 16 103 25 132 30 203 46 262 61 126 32 403 103 460 119 33 9 92 25 130 35 39 10 117 33 175 50 102 31 134 40 203 59 17 5 77 23 132 41 55 17 123 38 150 46 28 8 59 19 70 23 11 5 83 29 160 54 144 47 275 92 310 107 11 4 45 17 75 28 96 35 224 84 255 97 17 8 52 21 80 30 27 10 78 30 113 46 34 16 68 29 75 29 7 0 17 4 23 8 5 5 29 17 54 26 49 19 94 38 155 67 22 10 92 41 155 69 240 108 723 356 907 466 17 10 80 48 140 84 194 116 477 307 643 435 36 27 94 72 130 99 294 222 725 655 953 956 138 182 270 381 354 535 103 189 118 217 167 330 27 61 59 133 71 160 26 58 111 306 131 383 8 28 21 78 29 110 9 31 20 75 24 97 79 377 100 555 108 905 8 372 -18 691 -87 1065 -6 33 -15 83 -20 110 -5 28 -13 68 -18 90 -6 22 -18 78 -27 125 -10 47 -20 92 -23 100 -3 8 -17 60 -33 115 -50 186 -95 338 -109 370 -4 11 -27 81 -51 155 -23 74 -46 139 -51 145 -4 5 -8 18 -8 30 0 12 -4 25 -9 30 -5 6 -16 35 -26 65 -10 30 -23 69 -30 85 -7 17 -32 80 -55 140 -23 61 -46 118 -51 127 -5 10 -9 22 -9 28 0 5 -13 39 -30 75 -16 36 -30 68 -30 70 0 2 -11 28 -24 57 -13 29 -40 91 -61 138 -150 342 -314 672 -498 1005 -28 50 -64 115 -80 145 -58 105 -305 514 -442 731 -5 9 -59 90 -120 181 -60 90 -114 171 -120 180 -15 22 -128 185 -170 243 -20 28 -47 66 -60 85 -13 19 -47 67 -75 105 -27 39 -58 81 -67 95 -19 27 -209 280 -343 455 -46 61 -106 139 -133 175 -28 36 -75 97 -106 135 -31 39 -66 82 -76 96 -11 15 -63 80 -115 145 -53 66 -116 144 -140 175 -25 30 -98 120 -162 200 -64 79 -142 176 -173 214 -31 39 -73 90 -93 114 -91 107 -670 828 -717 893 -11 15 -72 96 -136 180 -222 293 -431 593 -596 854 -33 51 -81 131 -104 173 -14 25 -47 84 -74 131 -55 96 -180 356 -239 493 -21 49 -72 187 -85 232 -7 22 -16 49 -21 60 -4 11 -13 40 -20 65 -7 25 -16 56 -20 70 -5 14 -13 48 -20 75 -6 28 -16 68 -21 90 -43 185 -63 421 -55 653 6 194 18 292 57 472 21 92 78 288 98 335 5 11 24 58 42 105 44 113 175 369 239 467 331 501 816 910 1465 1237 178 90 261 130 340 162 50 20 87 36 147 63 26 11 52 21 58 21 6 0 18 4 28 9 9 5 55 24 102 41 47 18 107 40 134 51 27 10 56 19 65 19 10 0 21 4 27 8 5 5 56 23 114 41 58 19 114 37 125 41 32 12 150 47 270 80 61 16 124 34 140 39 32 10 287 73 395 97 179 41 230 52 285 63 28 5 64 13 80 16 17 4 53 10 80 15 28 5 75 14 105 20 30 6 80 15 110 20 30 5 82 14 115 20 33 6 87 15 120 20 33 5 89 14 125 20 94 16 308 46 425 60 39 5 108 14 155 20 1014 132 2463 198 3772 171 565 -11 1059 -29 1443 -51 99 -6 241 -14 315 -19 74 -4 141 -6 149 -3 14 5 40 59 117 242 25 58 48 114 53 125 5 11 16 36 24 55 9 19 25 60 37 90 22 57 33 82 69 162 11 26 21 50 21 54 0 5 53 123 71 156 5 10 9 23 9 28 0 6 13 39 29 73 42 89 111 256 111 267 0 5 8 24 18 42 10 18 30 62 44 98 14 36 38 92 53 125 15 33 31 70 36 83 5 12 13 32 18 45 13 32 36 85 59 138 12 25 31 70 42 100 12 30 28 70 37 89 8 19 19 44 23 55 4 11 15 36 24 57 20 46 20 64 0 72 -19 7 -6458 8 -6466 1z"/>
<path d="M30182 35258 c-7 -7 -12 -16 -12 -20 0 -5 -9 -28 -20 -53 -11 -25 -29 -65 -40 -90 -11 -25 -20 -47 -20 -50 0 -3 -10 -27 -21 -53 -12 -26 -27 -60 -34 -77 -7 -16 -24 -55 -37 -85 -14 -30 -30 -71 -38 -90 -7 -19 -17 -39 -22 -44 -4 -6 -8 -16 -8 -24 0 -7 -14 -43 -31 -80 -17 -37 -35 -76 -39 -87 -4 -11 -15 -36 -23 -55 -8 -19 -38 -91 -67 -160 -66 -158 -73 -175 -99 -232 -11 -26 -21 -50 -21 -53 0 -2 -11 -28 -24 -57 -13 -29 -27 -64 -31 -77 -4 -13 -25 -61 -46 -107 -22 -46 -39 -86 -39 -89 0 -3 -9 -27 -21 -53 -12 -26 -25 -56 -29 -67 -4 -11 -15 -36 -23 -55 -9 -19 -31 -73 -50 -120 -44 -107 -63 -151 -93 -218 -13 -29 -24 -55 -24 -57 0 -2 -11 -28 -24 -57 -14 -30 -34 -78 -46 -108 -12 -30 -32 -78 -46 -108 -13 -29 -24 -55 -24 -57 0 -3 -10 -27 -21 -53 -25 -55 -33 -75 -84 -197 -20 -49 -50 -118 -66 -153 -16 -35 -29 -69 -29 -75 0 -7 -4 -17 -8 -23 -5 -5 -17 -29 -26 -54 -10 -25 -25 -61 -33 -80 -25 -56 -38 -88 -87 -205 -64 -151 -62 -147 -73 -175 -6 -14 -20 -45 -32 -68 -11 -24 -21 -48 -21 -53 0 -4 -11 -32 -24 -61 -26 -58 -104 -242 -126 -298 -8 -19 -22 -50 -32 -68 -10 -18 -18 -37 -18 -42 0 -5 -13 -39 -30 -75 -16 -36 -30 -69 -30 -74 0 -4 -6 -21 -14 -37 -13 -28 -32 -69 -62 -141 -14 -33 -35 -81 -59 -138 -8 -16 -28 -66 -45 -110 -17 -44 -45 -111 -62 -150 -17 -38 -36 -83 -43 -100 -7 -16 -20 -47 -29 -67 -9 -21 -23 -54 -31 -73 -8 -19 -21 -50 -29 -67 -8 -18 -24 -58 -36 -88 -12 -30 -32 -77 -44 -105 -13 -27 -36 -83 -51 -123 -24 -62 -26 -75 -14 -83 8 -5 682 -9 1641 -9 1028 0 1629 -4 1633 -10 3 -5 1 -17 -4 -27 -5 -10 -16 -34 -24 -53 -8 -19 -27 -61 -41 -93 -14 -32 -26 -63 -26 -70 0 -7 -4 -17 -8 -22 -5 -6 -15 -26 -22 -45 -8 -19 -23 -57 -36 -85 -12 -27 -45 -106 -74 -175 -29 -69 -58 -140 -66 -157 -8 -18 -20 -48 -28 -65 -7 -18 -21 -51 -31 -73 -22 -50 -36 -84 -45 -110 -4 -11 -22 -51 -39 -88 -17 -37 -31 -74 -31 -80 0 -7 -4 -17 -9 -23 -4 -5 -20 -40 -35 -79 -16 -38 -38 -92 -51 -120 -12 -27 -39 -90 -60 -140 -54 -129 -60 -145 -84 -197 -11 -26 -21 -50 -21 -53 0 -2 -13 -33 -28 -67 -16 -35 -34 -79 -42 -98 -7 -19 -17 -39 -22 -44 -4 -6 -8 -16 -8 -23 0 -7 -12 -38 -26 -70 -30 -65 -52 -118 -64 -148 -4 -11 -18 -42 -30 -70 -12 -27 -26 -60 -31 -72 -20 -52 -28 -71 -58 -135 -17 -37 -31 -72 -31 -78 0 -5 -4 -18 -9 -28 -12 -23 -52 -112 -61 -137 -12 -30 -34 -83 -64 -148 -14 -32 -26 -62 -26 -66 0 -5 -9 -26 -19 -48 -25 -50 -43 -91 -81 -188 -17 -44 -45 -111 -62 -150 -17 -38 -37 -86 -45 -105 -19 -44 -49 -113 -73 -165 -10 -22 -25 -60 -35 -85 -9 -25 -22 -58 -30 -75 -7 -16 -19 -46 -28 -65 -8 -19 -22 -51 -30 -70 -9 -19 -28 -64 -42 -100 -15 -36 -34 -81 -42 -100 -8 -19 -18 -44 -23 -55 -4 -11 -17 -40 -29 -63 -11 -24 -21 -48 -21 -53 0 -4 -11 -32 -24 -61 -14 -30 -34 -78 -46 -108 -12 -30 -32 -78 -46 -108 -13 -29 -24 -55 -24 -57 0 -3 -10 -27 -21 -53 -12 -26 -27 -60 -34 -77 -7 -16 -22 -51 -33 -76 -12 -25 -31 -70 -42 -100 -12 -30 -28 -69 -36 -86 -29 -67 -43 -100 -78 -186 -20 -48 -45 -108 -57 -135 -12 -26 -25 -56 -29 -67 -13 -34 -37 -87 -64 -148 -14 -32 -26 -63 -26 -70 0 -7 -4 -17 -8 -23 -5 -5 -17 -29 -26 -54 -18 -47 -34 -84 -68 -160 -11 -25 -24 -54 -28 -65 -13 -36 -27 -69 -50 -120 -12 -27 -26 -59 -30 -70 -5 -11 -17 -41 -29 -67 -12 -26 -21 -50 -21 -52 0 -3 -14 -36 -31 -73 -17 -37 -35 -77 -39 -88 -10 -26 -68 -168 -93 -225 -10 -25 -23 -54 -27 -65 -4 -11 -15 -37 -24 -57 -9 -21 -22 -53 -30 -70 -7 -18 -23 -54 -35 -80 -11 -26 -21 -50 -21 -53 0 -3 -9 -27 -21 -53 -12 -26 -24 -56 -29 -67 -4 -11 -21 -50 -39 -87 -17 -36 -31 -71 -31 -77 0 -6 -9 -26 -20 -46 -11 -20 -20 -40 -20 -45 0 -6 -9 -30 -20 -55 -11 -25 -29 -65 -40 -90 -11 -25 -20 -47 -20 -51 0 -3 -13 -33 -29 -67 -52 -112 -71 -157 -71 -166 0 -5 -10 -29 -21 -53 -12 -23 -25 -52 -29 -63 -5 -11 -17 -41 -29 -67 -12 -26 -21 -50 -21 -53 0 -3 -9 -27 -21 -53 -12 -26 -25 -56 -29 -67 -4 -11 -17 -41 -29 -67 -12 -26 -21 -50 -21 -53 0 -2 -12 -30 -26 -62 -14 -32 -32 -71 -39 -88 -7 -16 -22 -51 -34 -77 -11 -26 -21 -50 -21 -53 0 -2 -13 -34 -30 -70 -16 -36 -30 -69 -30 -74 0 -4 -6 -21 -14 -37 -14 -30 -42 -94 -56 -129 -4 -11 -19 -45 -33 -75 -14 -30 -44 -102 -67 -160 -23 -58 -50 -123 -60 -146 -11 -22 -28 -65 -40 -94 -12 -29 -30 -74 -42 -99 -28 -64 -49 -112 -57 -136 -7 -18 -18 -44 -71 -160 -10 -22 -24 -56 -31 -75 -7 -19 -23 -57 -35 -85 -12 -27 -37 -86 -54 -130 -17 -44 -43 -104 -56 -133 -13 -29 -24 -55 -24 -57 0 -3 -10 -27 -21 -53 -12 -26 -27 -60 -34 -77 -7 -16 -25 -56 -39 -88 -14 -32 -26 -60 -26 -62 0 -3 -9 -27 -21 -53 -12 -26 -25 -56 -29 -67 -4 -11 -17 -41 -29 -67 -12 -26 -21 -50 -21 -53 0 -3 -10 -27 -21 -53 -12 -26 -27 -60 -34 -77 -7 -16 -25 -56 -39 -88 -14 -32 -26 -63 -26 -70 0 -7 -4 -17 -8 -22 -5 -6 -15 -26 -22 -45 -8 -19 -24 -58 -36 -85 -12 -28 -32 -75 -44 -104 -20 -52 -30 -75 -86 -199 -13 -29 -24 -56 -24 -60 0 -5 -9 -27 -20 -50 -11 -22 -20 -45 -20 -50 0 -5 -13 -36 -30 -70 -16 -34 -30 -64 -30 -67 0 -2 -11 -28 -24 -57 -24 -52 -43 -98 -112 -266 -19 -46 -43 -102 -53 -126 -11 -23 -29 -67 -41 -96 -12 -29 -30 -74 -42 -99 -31 -71 -62 -144 -78 -186 -13 -33 -56 -133 -89 -207 -11 -26 -21 -50 -21 -53 0 -5 -8 -24 -59 -137 -11 -26 -21 -50 -21 -53 0 -2 -12 -30 -26 -62 -14 -32 -32 -71 -39 -88 -7 -16 -22 -51 -34 -77 -11 -26 -21 -52 -21 -56 0 -5 -6 -22 -14 -38 -8 -16 -21 -46 -30 -66 -9 -21 -22 -53 -30 -70 -8 -18 -24 -58 -36 -88 -12 -30 -32 -78 -46 -108 -13 -29 -24 -55 -24 -57 0 -3 -10 -27 -21 -53 -12 -26 -27 -60 -34 -77 -42 -100 -70 -165 -86 -202 -24 -55 -24 -61 4 -68 12 -3 1417 -4 3121 -3 l3099 3 17 30 c9 17 29 62 44 100 35 88 53 130 77 178 10 22 19 43 19 48 0 5 14 38 30 74 17 36 30 68 30 70 0 2 11 28 24 57 13 29 40 94 60 143 21 50 46 109 57 132 10 24 19 45 19 48 0 5 15 39 60 140 45 101 60 135 60 140 0 3 9 27 21 53 12 26 25 56 29 67 4 11 15 37 24 58 9 20 23 54 32 75 9 20 20 46 24 57 12 30 35 84 59 137 12 26 21 50 21 54 0 4 11 30 24 58 34 74 52 114 76 175 11 30 29 73 39 95 10 23 35 82 56 131 46 111 56 135 89 208 14 32 26 62 26 68 0 6 8 28 19 48 10 20 29 61 41 91 27 67 59 139 71 162 5 10 9 22 9 28 0 9 10 34 60 145 10 22 25 56 33 75 8 19 25 58 37 85 26 58 33 75 90 215 24 58 47 109 52 115 4 5 8 15 8 22 0 7 14 42 30 78 17 36 30 68 30 70 0 3 9 25 20 50 11 25 29 65 40 90 11 25 20 47 20 50 0 2 14 34 30 70 17 36 30 68 30 70 0 3 9 27 21 53 12 26 24 56 29 67 4 11 17 40 29 63 11 24 21 48 21 53 0 5 14 38 30 74 17 36 30 68 30 70 0 2 11 28 24 57 35 79 106 247 106 253 0 2 11 28 24 57 13 29 36 82 51 118 15 36 36 85 47 110 33 74 45 103 59 140 7 19 25 63 41 98 15 34 28 65 28 67 0 2 14 34 30 70 17 36 30 68 30 71 0 4 13 34 29 68 15 33 39 88 51 121 27 70 76 183 90 207 6 10 10 22 10 28 0 5 12 35 26 67 27 61 51 114 64 148 4 11 17 41 29 67 12 26 21 50 21 53 0 3 10 27 21 53 12 26 27 61 34 77 49 116 79 184 91 209 8 16 14 33 14 37 0 5 14 38 30 74 17 36 30 68 30 70 0 2 11 28 24 57 13 29 39 89 56 133 17 44 43 104 56 133 13 29 24 55 24 57 0 6 58 135 70 157 6 10 10 22 10 28 0 10 18 52 71 167 16 34 29 67 29 73 0 5 4 18 9 28 13 24 52 113 61 137 4 11 16 40 27 65 11 25 31 70 43 100 12 30 31 73 40 95 39 87 49 112 70 164 11 30 30 73 40 96 10 23 29 66 40 96 12 29 32 77 46 107 13 29 24 55 24 58 0 3 13 33 29 67 16 34 45 103 64 152 20 50 61 149 92 220 31 72 60 139 64 150 5 11 16 36 24 55 9 19 25 60 37 90 22 57 33 82 69 162 11 26 21 50 21 53 0 6 57 135 70 157 6 10 10 22 10 28 0 5 11 33 24 62 46 102 116 269 116 278 0 5 8 24 18 42 10 18 30 62 44 98 14 36 38 92 53 125 15 33 31 70 36 83 5 12 13 32 18 45 14 36 37 88 65 150 14 32 26 63 26 70 0 7 4 17 8 23 4 5 23 45 41 89 18 44 41 98 51 120 51 113 60 136 60 148 0 7 4 17 8 23 5 5 15 25 22 44 7 19 25 62 40 95 51 113 60 133 60 141 0 4 11 30 24 58 35 75 52 115 76 176 12 30 32 78 45 105 12 28 30 70 40 95 9 25 23 60 31 78 8 17 20 47 28 65 8 17 22 52 32 77 9 25 21 49 26 54 4 6 8 16 8 23 0 7 18 51 40 98 22 47 40 89 40 93 0 8 24 64 75 177 7 17 23 54 35 84 11 30 29 73 39 95 16 36 42 97 87 204 28 65 42 98 57 132 9 19 25 60 37 90 22 57 33 82 69 162 11 26 21 50 21 53 0 2 11 28 24 57 51 113 65 147 110 258 26 63 55 132 66 153 11 22 20 43 20 48 0 9 15 45 65 154 13 28 37 86 55 130 17 44 37 93 44 110 8 16 23 53 35 80 12 28 28 61 36 75 l14 25 1617 3 1617 2 16 22 c9 13 31 59 49 103 18 44 41 99 52 122 11 24 20 45 20 48 0 3 9 27 21 53 12 26 25 56 29 67 4 11 15 36 23 55 8 19 27 64 42 100 15 36 40 93 56 128 16 35 29 69 29 75 0 7 4 17 8 22 5 6 15 26 22 45 8 19 24 60 38 90 37 84 48 111 65 155 8 22 27 67 42 100 15 33 31 69 35 80 15 41 28 71 50 120 12 28 26 59 30 70 5 11 17 41 29 67 12 26 21 50 21 53 0 3 10 27 21 53 12 26 28 62 35 80 8 17 21 49 30 70 21 48 35 82 44 107 5 11 22 50 39 87 17 37 31 71 31 75 0 5 13 35 30 68 16 33 30 65 30 71 0 6 6 24 14 40 8 16 21 46 30 67 9 20 22 52 30 70 8 17 24 57 36 87 12 30 28 70 36 88 8 17 20 47 28 65 8 17 26 58 40 90 14 32 26 61 26 66 0 4 6 21 14 37 8 16 21 46 30 67 9 20 23 54 32 75 9 20 22 50 30 66 8 16 14 33 14 37 0 5 14 38 30 74 17 36 30 68 30 70 0 2 13 33 29 67 15 35 32 74 36 88 4 13 23 57 41 97 19 40 34 75 34 78 0 3 9 25 20 50 11 25 29 65 40 90 11 25 20 49 20 55 0 5 8 24 18 42 10 18 31 65 46 103 15 39 35 86 43 105 8 19 19 44 23 55 5 11 17 40 28 65 60 138 83 193 92 215 4 11 17 40 29 63 11 24 21 48 21 53 0 5 14 39 31 76 35 77 42 94 60 143 7 19 23 60 37 90 31 70 52 120 62 145 4 11 18 43 30 70 12 28 26 59 30 70 5 11 17 41 29 67 12 26 21 50 21 53 0 2 14 34 30 70 17 36 30 68 30 70 0 2 11 28 24 57 38 84 76 180 76 194 0 6 -7 15 -16 18 -9 3 -2888 6 -6398 6 -4950 0 -6385 -3 -6394 -12z"/>
<path d="M29278 35224 c-3 -3 -563 -9 -1244 -15 -3515 -27 -4297 -37 -4504 -58 -206 -21 -503 -63 -710 -100 -179 -32 -321 -60 -410 -81 -25 -6 -63 -15 -85 -20 -84 -18 -177 -41 -257 -61 -24 -5 -56 -13 -73 -15 -16 -3 -39 -9 -50 -14 -11 -4 -42 -13 -70 -20 -75 -17 -128 -31 -150 -40 -11 -5 -31 -11 -45 -14 -14 -2 -43 -10 -65 -16 -22 -7 -57 -14 -78 -17 -20 -3 -40 -9 -43 -14 -3 -5 -14 -9 -25 -9 -10 0 -27 -4 -37 -9 -26 -13 -86 -31 -105 -31 -10 0 -27 -5 -40 -12 -44 -23 -57 -28 -67 -28 -10 0 -24 -6 -142 -59 -26 -11 -51 -21 -55 -21 -8 0 -119 -46 -218 -90 -33 -15 -76 -33 -95 -40 -19 -7 -66 -28 -105 -46 -38 -18 -92 -42 -120 -54 -117 -52 -174 -79 -425 -203 -146 -72 -292 -147 -325 -165 -33 -19 -87 -49 -120 -66 -147 -79 -229 -126 -350 -199 -71 -44 -145 -88 -163 -98 -50 -29 -290 -181 -353 -223 -289 -195 -781 -563 -914 -685 -11 -10 -77 -67 -146 -127 -474 -413 -911 -890 -1310 -1432 -74 -101 -309 -449 -309 -457 0 -4 -15 -30 -33 -58 -56 -87 -69 -109 -110 -182 -22 -38 -52 -92 -67 -120 -118 -210 -147 -269 -235 -480 -37 -88 -78 -184 -91 -213 -13 -29 -24 -55 -24 -57 0 -5 -9 -25 -59 -137 -11 -26 -21 -52 -21 -57 0 -5 -10 -29 -21 -53 -12 -23 -26 -53 -30 -65 -18 -48 -28 -70 -58 -135 -17 -37 -31 -71 -31 -76 0 -5 -6 -22 -14 -38 -8 -16 -21 -45 -29 -64 -8 -19 -24 -56 -36 -82 -11 -26 -21 -50 -21 -53 0 -2 -13 -34 -30 -70 -16 -36 -30 -68 -30 -70 0 -3 -9 -27 -21 -53 -23 -51 -37 -86 -49 -117 -7 -19 -16 -40 -55 -130 -8 -19 -22 -51 -30 -70 -8 -19 -21 -50 -29 -67 -7 -18 -23 -54 -35 -80 -11 -26 -21 -50 -21 -53 0 -2 -14 -34 -30 -70 -16 -36 -30 -69 -30 -73 0 -5 -11 -32 -25 -61 -14 -29 -40 -87 -56 -129 -17 -43 -37 -92 -45 -109 -8 -18 -20 -48 -28 -65 -8 -18 -26 -59 -40 -91 -14 -32 -26 -60 -26 -62 0 -3 -9 -24 -19 -48 -10 -23 -26 -60 -34 -82 -8 -22 -27 -67 -42 -100 -15 -33 -31 -69 -35 -80 -4 -11 -15 -37 -24 -57 -9 -21 -23 -55 -32 -75 -9 -21 -20 -47 -24 -58 -4 -11 -17 -41 -29 -67 -12 -26 -21 -50 -21 -53 0 -2 -13 -34 -30 -70 -16 -36 -30 -68 -30 -70 0 -2 -11 -29 -25 -59 -14 -30 -25 -57 -25 -61 0 -3 -16 -43 -36 -88 -20 -45 -43 -98 -51 -117 -36 -85 -45 -106 -53 -125 -4 -11 -17 -40 -28 -65 -11 -25 -26 -61 -33 -80 -7 -19 -30 -73 -51 -118 -21 -46 -38 -87 -38 -91 0 -4 -9 -26 -20 -49 -11 -22 -20 -45 -20 -51 0 -5 -9 -26 -19 -48 -21 -42 -29 -61 -95 -218 -26 -60 -50 -119 -55 -130 -5 -11 -16 -37 -25 -57 -9 -21 -23 -55 -32 -75 -9 -21 -20 -47 -24 -58 -4 -11 -17 -41 -29 -67 -12 -26 -21 -50 -21 -53 0 -5 -16 -41 -62 -145 -11 -25 -24 -54 -28 -65 -5 -11 -17 -41 -29 -67 -12 -26 -21 -50 -21 -53 0 -2 -13 -34 -30 -70 -16 -36 -30 -68 -30 -72 0 -4 -14 -38 -31 -77 -18 -39 -38 -87 -46 -106 -9 -19 -21 -48 -29 -64 -8 -16 -14 -33 -14 -37 0 -5 -11 -32 -24 -61 -43 -95 -84 -192 -116 -273 -17 -44 -38 -91 -45 -105 -12 -25 -31 -66 -45 -105 -5 -11 -17 -41 -29 -67 -12 -26 -21 -50 -21 -53 0 -2 -11 -28 -24 -57 -14 -30 -34 -78 -46 -107 -11 -30 -29 -73 -39 -95 -10 -23 -37 -86 -61 -141 -23 -55 -53 -124 -66 -153 -13 -29 -24 -56 -24 -60 0 -5 -9 -27 -20 -50 -11 -22 -20 -45 -20 -51 0 -5 -9 -26 -19 -48 -11 -21 -26 -54 -34 -73 -8 -19 -27 -64 -42 -100 -15 -36 -36 -85 -47 -110 -11 -25 -24 -54 -28 -65 -9 -24 -34 -80 -85 -200 -8 -16 -28 -66 -45 -110 -17 -44 -43 -104 -56 -133 -13 -29 -24 -55 -24 -57 0 -2 -13 -34 -30 -70 -16 -36 -30 -68 -30 -70 0 -3 -9 -25 -20 -50 -11 -25 -29 -65 -40 -90 -11 -25 -20 -47 -20 -50 0 -3 -10 -27 -21 -53 -12 -26 -28 -62 -35 -79 -8 -18 -20 -48 -28 -65 -7 -18 -23 -54 -35 -80 -11 -26 -21 -53 -21 -59 0 -6 -8 -23 -19 -37 -10 -15 -21 -40 -25 -57 -7 -29 -16 -50 -56 -140 -34 -75 -48 -110 -70 -165 -12 -30 -28 -70 -36 -87 -8 -18 -20 -48 -28 -65 -8 -18 -23 -54 -34 -79 -12 -25 -30 -70 -42 -99 -12 -29 -30 -72 -40 -95 -10 -23 -28 -66 -40 -95 -22 -56 -52 -124 -76 -174 -8 -16 -14 -33 -14 -37 0 -5 -12 -34 -26 -66 -14 -32 -33 -74 -41 -93 -8 -19 -19 -43 -24 -52 -5 -10 -9 -22 -9 -27 0 -5 -15 -42 -34 -83 -19 -40 -44 -98 -56 -128 -12 -30 -32 -78 -46 -108 -13 -29 -24 -57 -24 -61 0 -5 -9 -26 -19 -48 -27 -53 -49 -106 -65 -150 -7 -21 -23 -59 -35 -85 -52 -118 -61 -138 -61 -143 0 -7 -38 -93 -61 -136 -10 -20 -19 -42 -19 -48 0 -10 -11 -36 -62 -151 -11 -25 -24 -54 -28 -65 -4 -11 -12 -31 -18 -45 -6 -14 -32 -74 -58 -135 -25 -60 -53 -126 -61 -145 -8 -19 -19 -44 -23 -55 -13 -33 -36 -87 -64 -148 -14 -32 -26 -62 -26 -66 0 -5 -18 -48 -40 -95 -22 -47 -40 -89 -40 -94 0 -5 -13 -36 -30 -70 -16 -34 -30 -66 -30 -71 0 -4 -6 -21 -14 -37 -20 -42 -53 -119 -111 -259 -20 -49 -45 -108 -55 -130 -41 -92 -60 -135 -60 -140 0 -5 -8 -24 -59 -137 -11 -26 -21 -50 -21 -53 0 -3 -9 -27 -21 -53 -12 -26 -24 -56 -29 -67 -4 -11 -18 -42 -30 -70 -12 -27 -26 -59 -30 -70 -5 -11 -17 -41 -29 -67 -12 -26 -21 -50 -21 -53 0 -2 -11 -28 -24 -57 -13 -29 -40 -93 -61 -143 -20 -49 -43 -105 -51 -122 -33 -78 -47 -109 -54 -128 -9 -25 -49 -114 -61 -137 -5 -10 -9 -22 -9 -27 0 -6 -13 -38 -29 -73 -15 -35 -43 -99 -61 -143 -38 -90 -61 -144 -91 -211 -11 -26 -18 -53 -15 -60 5 -12 477 -14 3118 -12 l3113 3 20 40 c12 22 27 56 35 75 7 19 26 63 42 98 15 34 28 66 28 71 0 4 6 21 14 37 8 16 21 45 29 64 8 19 24 56 36 82 11 26 21 50 21 53 0 3 9 27 21 53 12 26 25 56 29 67 12 30 35 84 58 136 12 25 31 70 42 100 12 30 28 69 36 87 8 17 20 47 28 65 8 17 24 57 36 87 12 30 32 78 46 108 13 29 24 55 24 57 0 2 13 32 29 67 16 35 50 115 76 178 59 143 67 163 94 222 11 26 21 51 21 56 0 4 13 34 30 67 16 33 30 65 30 72 0 7 8 27 18 45 10 18 29 60 42 93 13 33 26 65 30 70 4 6 11 21 15 35 4 14 16 45 27 70 29 65 49 112 58 135 4 11 17 40 29 63 11 24 21 48 21 53 0 5 14 39 31 76 17 38 34 77 39 88 53 133 124 302 152 365 11 25 24 54 28 65 5 11 17 41 29 67 12 26 21 50 21 53 0 2 14 34 30 70 17 36 30 68 30 70 0 2 14 34 30 70 17 36 30 71 30 78 0 7 4 17 8 22 5 6 15 26 22 45 8 19 24 60 38 90 13 30 30 69 37 85 7 17 22 51 34 77 11 26 21 50 21 53 0 2 14 34 30 70 17 36 30 70 30 76 0 6 8 28 19 48 10 20 23 47 29 61 5 14 19 46 31 72 12 26 21 50 21 53 0 5 14 38 60 140 10 22 24 56 31 75 7 19 24 62 39 95 15 33 49 112 75 175 26 63 54 131 62 150 9 19 22 50 29 68 8 17 21 49 30 70 9 20 19 46 24 57 4 11 17 40 29 63 11 24 21 48 21 53 0 5 23 62 51 126 28 65 57 132 64 148 7 17 26 62 43 100 16 39 46 111 66 160 20 50 41 99 46 110 5 11 30 70 56 130 25 61 54 128 64 151 11 22 28 65 40 94 12 29 30 72 40 95 10 23 29 66 40 96 12 29 32 76 44 104 12 27 33 77 46 110 13 33 31 74 40 90 l17 30 2639 5 c1451 3 2640 6 2642 8 1 1 2 9 2 17 0 8 9 30 20 50 11 20 20 40 20 45 0 5 14 39 30 75 17 36 30 68 30 70 0 2 11 29 25 59 14 30 25 58 25 61 0 3 9 27 21 53 24 53 47 107 59 137 4 11 15 36 23 55 8 19 28 67 45 105 16 39 46 111 67 160 20 50 50 118 66 152 16 34 29 67 29 73 0 5 4 18 9 28 21 40 71 154 71 162 0 4 10 28 21 52 12 23 25 52 29 63 5 11 17 41 29 67 12 26 21 50 21 53 0 2 14 34 30 70 17 36 30 68 30 70 0 7 36 89 61 138 10 22 19 43 19 48 0 5 9 31 21 57 12 26 25 56 29 67 4 11 15 36 23 55 8 19 27 64 42 100 15 36 39 90 52 120 14 30 43 100 65 155 22 55 50 123 62 150 13 28 38 86 56 130 18 44 42 100 53 125 10 25 22 54 27 65 4 11 18 43 30 70 12 28 26 59 30 70 5 11 17 41 29 67 12 26 21 50 21 53 0 3 10 27 21 53 12 26 28 62 35 80 8 17 21 49 30 70 9 20 20 46 24 57 13 33 36 87 64 148 14 32 26 61 26 65 0 4 13 34 30 67 16 33 30 65 30 71 0 6 6 24 14 40 8 16 21 45 29 64 8 19 24 56 36 82 11 26 21 50 21 53 0 6 37 91 51 117 5 10 9 22 9 27 0 5 18 48 40 95 22 47 40 90 40 95 0 5 10 29 21 53 12 23 25 52 29 63 5 11 15 36 23 55 9 19 25 60 37 90 12 30 32 78 46 108 13 29 24 55 24 57 0 2 13 33 29 67 15 35 32 74 36 88 4 14 19 50 33 80 57 126 55 122 41 132 -14 9 -430 7 -2144 -12 -462 -5 -1258 -14 -1770 -19 -511 -5 -1021 -13 -1131 -17 -111 -4 -209 -4 -218 -1 -17 7 -16 11 27 107 21 49 28 66 48 120 23 65 178 368 245 482 166 279 361 548 580 800 127 145 241 226 484 344 180 88 370 164 409 164 11 0 22 4 25 9 3 5 16 11 28 14 13 3 39 10 58 16 177 51 364 95 510 121 30 5 80 15 110 21 41 9 503 13 1857 16 l1802 3 19 28 c18 27 30 54 99 222 38 93 50 121 82 192 11 26 21 50 21 54 0 3 13 33 29 67 16 34 39 89 52 122 12 33 31 75 41 93 10 18 18 37 18 42 0 5 11 33 24 62 14 30 34 78 46 108 12 30 28 71 37 90 8 19 22 51 30 70 8 19 21 48 29 64 8 16 14 33 14 38 0 5 13 37 29 71 31 69 83 189 148 347 24 58 52 123 62 145 10 22 31 72 46 110 16 39 36 88 45 110 10 22 34 79 54 128 20 48 45 108 57 135 50 112 59 132 59 137 0 2 11 29 25 59 14 30 25 57 25 60 0 3 11 29 24 58 51 114 66 148 66 153 0 3 9 27 21 53 12 26 25 56 29 67 4 11 19 45 33 75 14 30 35 80 47 110 12 30 28 71 37 90 8 19 19 44 23 55 4 11 18 43 30 70 12 28 26 60 31 73 17 42 27 67 44 107 10 22 24 56 32 75 8 19 23 52 34 73 10 22 19 43 19 48 0 5 10 31 21 57 12 26 27 61 34 77 42 100 70 165 86 202 11 24 19 45 19 48 0 2 11 28 24 57 13 29 40 94 61 143 20 50 46 109 56 132 10 24 19 45 19 48 0 2 12 30 26 62 14 32 32 72 39 88 7 17 22 51 34 77 11 26 21 50 21 53 0 3 9 27 21 53 12 26 25 56 29 67 9 22 28 69 55 130 9 22 21 49 25 60 14 36 42 99 56 129 8 16 14 33 14 38 0 5 15 41 34 81 95 204 112 259 80 271 -20 8 -99 8 -106 0z"/>
<path d="M51785 32739 c-255 -8 -599 -24 -830 -39 -77 -5 -221 -14 -320 -20 -99 -6 -210 -15 -248 -20 -37 -6 -90 -10 -117 -10 -27 0 -82 -4 -122 -10 -40 -5 -122 -14 -183 -20 -60 -6 -148 -15 -195 -21 -47 -5 -123 -14 -170 -20 -47 -5 -114 -14 -150 -19 -36 -5 -103 -14 -150 -20 -47 -6 -114 -15 -150 -21 -138 -21 -197 -31 -245 -39 -27 -5 -84 -14 -125 -20 -79 -12 -159 -26 -225 -40 -22 -5 -69 -14 -105 -20 -36 -7 -94 -18 -129 -27 -35 -8 -85 -19 -110 -23 -88 -17 -227 -48 -351 -80 -69 -17 -141 -35 -160 -40 -82 -19 -166 -42 -185 -49 -44 -18 -93 -31 -113 -31 -11 0 -23 -4 -26 -9 -3 -5 -18 -11 -33 -14 -43 -7 -377 -117 -448 -147 -11 -4 -33 -13 -50 -18 -60 -21 -269 -104 -329 -132 -33 -15 -83 -38 -111 -50 -87 -38 -328 -161 -386 -196 -31 -19 -59 -34 -63 -34 -16 0 -268 -172 -470 -320 -190 -140 -429 -401 -578 -630 -56 -87 -198 -358 -198 -378 0 -5 -9 -27 -20 -50 -11 -22 -20 -46 -20 -52 0 -5 -4 -18 -9 -28 -22 -40 -79 -260 -100 -382 -23 -140 -32 -328 -21 -458 11 -133 25 -240 40 -307 45 -196 90 -352 125 -430 7 -16 21 -52 30 -80 54 -159 254 -542 410 -785 30 -47 58 -92 62 -100 11 -24 251 -372 318 -460 23 -30 93 -125 157 -210 170 -228 395 -515 577 -739 20 -24 47 -58 61 -76 14 -18 93 -116 176 -217 128 -156 266 -326 389 -478 17 -20 66 -81 110 -135 44 -53 102 -125 128 -159 27 -33 66 -83 88 -111 101 -129 180 -230 244 -314 39 -51 97 -127 130 -169 52 -66 130 -170 306 -407 174 -235 597 -853 725 -1060 34 -56 129 -209 147 -240 7 -10 23 -37 37 -60 31 -50 35 -58 107 -185 33 -58 77 -136 100 -175 22 -38 60 -106 83 -150 24 -44 52 -96 63 -115 26 -44 278 -543 298 -590 8 -19 39 -87 68 -150 29 -63 58 -128 66 -145 7 -16 22 -51 33 -76 12 -25 31 -70 42 -100 20 -51 30 -73 65 -154 9 -19 27 -65 41 -102 13 -38 29 -77 34 -88 11 -22 57 -146 70 -185 5 -14 22 -62 38 -107 17 -44 55 -155 85 -245 49 -148 62 -190 88 -283 5 -16 17 -57 27 -90 19 -60 33 -110 52 -185 6 -22 15 -58 20 -80 6 -22 14 -57 19 -77 11 -44 29 -120 41 -178 13 -63 45 -235 59 -320 56 -343 75 -575 75 -940 0 -285 -6 -377 -35 -630 -21 -178 -68 -422 -119 -610 -12 -44 -25 -93 -29 -110 -21 -78 -120 -362 -151 -430 -9 -22 -35 -80 -56 -130 -101 -238 -281 -556 -458 -809 -286 -410 -691 -834 -1127 -1182 -138 -110 -174 -137 -329 -249 -169 -122 -491 -335 -506 -335 -3 0 -25 -13 -49 -30 -24 -16 -47 -30 -50 -30 -4 0 -19 -8 -33 -19 -15 -10 -54 -34 -87 -52 -33 -18 -82 -45 -110 -61 -27 -15 -66 -36 -85 -46 -19 -10 -80 -43 -135 -72 -99 -53 -186 -97 -340 -171 -74 -36 -119 -57 -330 -154 -44 -20 -125 -55 -180 -77 -55 -22 -124 -51 -153 -64 -29 -13 -56 -24 -60 -24 -5 0 -27 -9 -50 -20 -22 -11 -47 -20 -55 -20 -7 0 -17 -4 -23 -9 -5 -5 -29 -16 -54 -24 -56 -19 -126 -45 -165 -62 -16 -8 -52 -21 -80 -30 -27 -9 -57 -19 -65 -22 -56 -22 -197 -71 -400 -138 -129 -43 -244 -81 -255 -86 -18 -7 -146 -46 -230 -69 -16 -5 -61 -18 -100 -30 -38 -12 -83 -26 -100 -30 -120 -35 -192 -55 -275 -76 -52 -13 -124 -33 -160 -43 -36 -11 -76 -21 -90 -24 -14 -3 -86 -21 -160 -40 -115 -29 -277 -68 -445 -107 -22 -5 -69 -16 -105 -24 -36 -8 -101 -22 -145 -31 -44 -8 -96 -19 -115 -25 -19 -5 -73 -17 -120 -26 -47 -9 -105 -20 -130 -26 -51 -10 -229 -44 -307 -59 -123 -22 -171 -30 -218 -39 -27 -6 -75 -14 -105 -20 -30 -5 -82 -14 -115 -20 -33 -5 -89 -15 -125 -20 -36 -6 -92 -15 -125 -21 -33 -6 -87 -14 -120 -19 -33 -5 -93 -13 -132 -19 -40 -6 -106 -16 -145 -22 -40 -6 -100 -15 -133 -20 -33 -5 -96 -14 -140 -19 -75 -9 -120 -15 -292 -39 -96 -14 -223 -29 -328 -41 -49 -6 -128 -15 -175 -21 -47 -5 -128 -14 -180 -19 -52 -5 -140 -14 -195 -20 -106 -11 -241 -25 -415 -40 -58 -5 -159 -14 -225 -20 -115 -10 -211 -18 -520 -40 -373 -27 -892 -55 -1290 -70 -159 -6 -326 -13 -370 -16 -44 -3 -6623 -9 -14620 -12 l-14540 -7 -21 -40 c-11 -22 -38 -80 -59 -130 -21 -49 -48 -112 -60 -140 -13 -27 -39 -93 -60 -145 -37 -96 -50 -127 -87 -210 -20 -44 -32 -73 -49 -117 -5 -13 -13 -34 -19 -48 -5 -14 -14 -35 -19 -47 -5 -13 -18 -44 -30 -70 -12 -26 -21 -50 -21 -53 0 -2 -14 -34 -30 -70 -17 -36 -30 -69 -30 -74 0 -4 -6 -21 -14 -37 -13 -27 -65 -150 -153 -364 -19 -47 -44 -104 -54 -127 -10 -24 -19 -45 -19 -48 0 -2 -13 -34 -30 -70 -16 -36 -30 -71 -30 -78 0 -7 -4 -17 -8 -22 -5 -6 -19 -37 -32 -70 -13 -33 -27 -64 -32 -70 -4 -5 -8 -15 -8 -22 0 -7 -9 -33 -20 -58 -11 -25 -29 -65 -40 -90 -11 -25 -20 -49 -20 -53 0 -5 -6 -22 -14 -38 -26 -54 -54 -119 -86 -199 -17 -44 -38 -96 -47 -115 -8 -19 -19 -44 -23 -55 -4 -11 -18 -42 -30 -70 -47 -104 -63 -153 -56 -170 5 -13 1723 -15 16358 -11 11392 3 16432 7 16613 15 685 28 1222 65 1785 122 58 5 148 14 200 20 169 16 308 33 660 80 169 22 327 44 415 59 33 5 89 14 125 20 101 16 291 47 368 61 28 5 76 13 105 18 28 5 79 14 112 21 33 7 81 16 108 21 26 5 70 14 97 19 28 6 73 15 100 20 28 6 71 14 98 20 89 18 147 29 182 35 19 4 44 10 55 15 11 5 36 11 55 14 32 4 77 14 170 36 19 5 58 14 85 20 59 14 110 26 165 40 22 6 58 15 80 20 22 6 57 14 78 20 20 5 55 13 77 19 22 5 58 15 80 21 22 6 56 15 75 20 19 5 53 14 75 20 22 7 55 14 73 17 18 3 35 9 38 14 3 5 18 9 34 9 16 0 32 5 35 10 3 6 19 10 35 10 16 0 32 4 35 10 3 6 17 10 31 10 13 0 32 4 42 9 9 5 37 15 62 21 74 21 114 32 135 40 11 4 36 12 55 17 115 33 205 62 250 81 14 5 88 30 165 55 192 63 304 103 312 110 3 4 14 7 23 7 9 0 35 9 58 20 22 11 47 20 55 20 7 0 17 4 23 8 5 4 27 14 49 21 42 13 78 27 107 42 10 5 22 9 28 9 6 0 29 9 53 19 23 10 71 30 107 44 65 26 267 109 305 126 11 5 36 16 55 24 33 14 53 23 178 78 26 12 76 35 112 51 36 17 99 46 140 64 41 19 83 39 93 44 32 18 51 28 152 77 114 56 375 192 390 203 6 4 46 26 90 50 111 59 152 83 295 168 69 42 137 82 152 91 117 70 445 282 582 377 76 53 401 292 501 370 92 71 419 346 515 433 153 138 552 535 684 681 198 219 493 578 616 751 32 45 148 212 186 268 44 65 187 287 215 335 19 32 41 70 50 85 9 14 25 42 36 61 11 19 35 59 52 89 18 29 49 86 70 125 21 39 47 87 59 107 33 59 37 67 121 240 45 91 81 168 81 172 0 3 14 37 31 74 61 131 73 158 81 181 15 42 34 90 57 145 6 15 16 38 21 52 6 14 15 36 20 50 24 61 33 81 41 97 5 10 9 26 9 36 0 10 4 22 8 27 4 6 14 28 21 50 7 22 16 49 20 60 5 11 23 67 41 125 18 58 36 114 40 125 8 19 39 126 62 210 5 22 14 51 18 65 13 43 28 102 50 195 12 50 25 107 30 128 22 85 29 115 40 172 6 33 15 78 20 100 5 22 14 69 20 105 6 36 15 88 20 115 12 66 13 71 51 340 43 303 74 794 73 1155 -1 460 -48 1055 -113 1435 -6 33 -15 87 -21 120 -15 92 -28 165 -39 220 -6 28 -15 73 -20 100 -6 28 -14 68 -19 90 -6 22 -15 65 -22 95 -12 53 -17 74 -40 170 -6 25 -14 59 -16 75 -3 17 -9 39 -14 50 -5 11 -11 31 -14 45 -2 14 -10 43 -16 65 -6 22 -14 51 -16 65 -3 14 -9 34 -14 45 -4 11 -13 40 -20 65 -39 138 -210 649 -246 735 -7 17 -24 62 -39 100 -15 39 -33 84 -40 100 -7 17 -32 75 -55 130 -24 55 -53 124 -66 153 -13 29 -24 54 -24 56 0 15 -267 558 -320 651 -12 22 -41 74 -63 115 -21 41 -48 87 -58 102 -11 14 -19 29 -19 33 0 3 -13 26 -30 50 -16 24 -30 46 -30 50 0 4 -13 26 -30 50 -16 24 -30 46 -30 50 0 3 -18 33 -40 66 -22 33 -40 63 -40 66 0 4 -6 14 -14 22 -7 9 -26 39 -41 66 -15 28 -35 59 -45 70 -9 11 -54 74 -98 140 -44 66 -124 179 -176 250 -87 120 -293 414 -460 659 -37 56 -100 146 -139 201 -39 55 -98 139 -131 187 -34 48 -86 122 -116 164 -30 43 -74 105 -98 138 -43 62 -104 147 -189 268 -163 229 -221 309 -257 358 -22 30 -56 78 -76 105 -20 28 -58 79 -84 115 -26 36 -90 124 -141 195 -52 72 -135 184 -183 250 -49 66 -135 183 -192 260 -142 192 -417 562 -450 605 -52 68 -305 405 -320 426 -8 12 -64 87 -125 166 -263 346 -343 455 -355 488 -7 19 -18 49 -25 65 -7 17 -23 56 -34 88 -12 31 -30 83 -42 115 -11 31 -27 71 -34 87 -29 69 -55 138 -55 150 0 6 6 25 14 41 25 53 55 125 77 184 16 46 26 57 144 159 97 85 174 141 266 195 40 24 205 105 254 126 11 4 36 15 55 23 19 8 73 27 120 42 47 15 95 31 108 36 13 5 34 9 47 9 13 0 26 4 29 9 3 5 20 11 38 14 45 8 132 25 193 37 28 6 82 16 120 22 49 8 736 13 2325 17 1240 3 2256 7 2256 9 1 1 9 23 19 50 10 26 27 67 38 92 10 25 26 60 33 78 8 17 21 49 30 70 9 20 20 46 24 57 13 33 36 87 64 148 14 32 26 63 26 70 0 7 4 17 8 23 5 5 17 29 26 54 10 25 24 60 32 78 32 73 44 102 86 202 25 58 51 121 58 140 8 19 22 50 32 68 10 18 18 37 18 42 0 5 11 33 24 62 13 29 39 89 56 133 17 44 43 104 56 133 13 29 24 55 24 57 0 7 36 89 61 138 10 22 19 43 19 48 0 9 53 131 70 161 6 10 10 22 10 28 0 5 12 35 26 67 30 65 52 118 64 148 4 11 18 43 30 70 12 28 26 59 30 70 13 35 27 69 48 115 35 79 50 114 67 160 10 25 24 60 32 79 27 60 30 59 -367 81 -855 46 -2093 63 -2855 39z"/>
<path d="M5495 3617 c-188 -36 -359 -116 -471 -219 -60 -56 -145 -179 -174 -253 -13 -33 -26 -64 -30 -70 -11 -14 -18 -62 -35 -215 -21 -195 -21 -1624 -1 -1785 18 -139 37 -208 80 -293 43 -86 90 -147 167 -220 69 -64 104 -88 204 -135 85 -40 150 -61 275 -87 66 -14 410 -8 485 7 282 60 510 226 608 443 86 191 89 235 90 1184 0 992 -3 1019 -100 1211 -117 228 -306 362 -598 424 -81 17 -131 21 -275 20 -96 -1 -197 -6 -225 -12z m317 -590 c9 -12 21 -51 25 -87 11 -87 10 -1713 0 -1862 -8 -110 -11 -120 -37 -148 -48 -52 -133 -37 -158 27 -23 57 -27 241 -22 1113 l5 895 20 40 c33 66 124 79 167 22z"/>
<path d="M43968 3625 c-2 -3 -31 -9 -64 -14 -94 -14 -171 -38 -259 -82 -109 -53 -174 -102 -236 -180 -109 -137 -140 -262 -142 -589 -2 -254 17 -357 93 -510 78 -154 150 -219 565 -502 189 -129 296 -211 346 -264 63 -68 83 -149 83 -329 0 -117 -2 -135 -23 -179 -27 -54 -64 -76 -129 -76 -45 0 -88 28 -104 69 -7 15 -14 142 -17 301 l-6 275 -390 0 -390 0 -3 -203 c-2 -143 2 -236 13 -310 22 -155 25 -175 35 -197 4 -11 14 -36 21 -55 57 -160 226 -309 429 -380 19 -7 44 -16 55 -20 11 -5 34 -11 50 -15 17 -3 50 -11 75 -17 70 -16 393 -22 480 -8 95 15 196 39 245 60 198 82 328 180 386 294 96 183 118 625 48 931 -45 195 -126 316 -314 471 -133 110 -103 90 -539 371 -99 65 -156 120 -184 183 -23 49 -26 68 -26 180 -1 98 3 132 16 155 26 48 54 68 105 72 98 10 123 -51 123 -300 0 -74 3 -142 6 -151 5 -14 48 -16 383 -16 207 0 381 4 387 8 19 12 22 61 13 221 -13 225 -31 351 -62 421 -26 59 -94 148 -140 184 -61 48 -192 117 -272 144 -57 19 -89 27 -213 51 -53 11 -434 16 -444 6z"/>
<path d="M57210 3618 c-134 -28 -182 -44 -285 -93 -155 -75 -252 -161 -334 -298 -66 -110 -94 -201 -111 -359 -16 -159 -13 -1586 5 -1738 28 -247 57 -341 143 -467 54 -79 101 -122 203 -185 97 -61 133 -76 294 -119 76 -20 175 -29 326 -29 291 1 471 53 660 191 164 120 259 271 288 454 28 178 33 235 37 459 5 192 3 240 -8 247 -7 5 -196 9 -419 9 -362 0 -408 -2 -413 -16 -3 -9 -6 -113 -6 -232 0 -233 -14 -440 -32 -485 -31 -78 -179 -77 -216 2 -16 33 -17 110 -17 1016 l0 980 20 40 c24 48 55 65 117 65 38 0 54 -5 77 -27 28 -26 31 -35 41 -137 5 -60 10 -237 10 -392 0 -155 3 -289 6 -298 5 -14 51 -16 409 -16 222 0 410 3 419 6 14 5 16 34 16 213 0 460 -43 719 -143 862 -54 77 -79 102 -167 166 -141 101 -241 142 -448 183 -65 12 -410 11 -472 -2z"/>
<path d="M62585 3618 c-22 -5 -69 -16 -105 -24 -178 -42 -351 -150 -433 -271 -48 -73 -63 -104 -78 -163 -38 -150 -42 -190 -43 -400 -1 -278 18 -370 111 -540 65 -119 122 -174 342 -329 42 -30 94 -67 116 -83 22 -16 76 -53 121 -82 197 -130 335 -245 356 -296 29 -72 39 -143 40 -270 1 -151 -9 -189 -62 -234 -37 -31 -111 -36 -148 -10 -51 36 -55 59 -59 349 -2 199 -7 271 -16 277 -6 4 -183 7 -392 5 l-380 -2 0 -235 c1 -215 7 -303 33 -430 24 -118 72 -202 172 -300 71 -71 103 -94 190 -137 58 -29 112 -53 120 -53 8 0 33 -7 55 -14 83 -29 225 -46 383 -46 146 0 207 7 352 40 131 30 293 117 397 213 86 79 135 199 158 387 33 260 10 564 -57 760 -39 113 -63 153 -155 250 -116 123 -295 254 -648 475 -106 66 -175 132 -203 194 -22 50 -25 70 -26 181 -1 137 8 168 60 209 35 28 102 28 136 1 33 -26 40 -62 47 -270 l6 -175 382 -3 c307 -2 384 0 395 11 10 11 12 52 6 208 -12 316 -46 446 -147 561 -88 99 -275 195 -446 228 -33 6 -79 16 -102 21 -54 12 -426 10 -478 -3z"/>
<path d="M135 3548 c-3 -13 -4 -727 -3 -1588 l3 -1565 420 0 420 0 5 645 c3 355 9 651 13 658 6 9 67 12 247 12 208 0 239 2 244 16 6 15 9 592 4 596 -2 1 -115 5 -253 8 l-250 5 -3 268 c-1 173 1 275 8 287 l11 20 259 0 c142 0 265 3 274 6 14 5 16 43 16 324 0 281 -2 319 -16 324 -9 3 -326 6 -705 6 l-689 0 -5 -22z"/>
<path d="M2542 3562 c-10 -7 -12 -331 -10 -1588 l3 -1579 664 -3 c399 -1 669 2 674 7 12 12 11 631 0 642 -5 5 -116 10 -248 11 l-240 3 -3 1249 c-2 985 -5 1252 -15 1258 -16 10 -808 10 -825 0z"/>
<path d="M7795 3558 c-3 -7 -4 -722 -3 -1588 l3 -1575 400 -3 c220 -1 410 0 423 3 l22 5 0 689 c0 601 2 690 15 701 21 17 110 5 145 -20 14 -10 32 -36 39 -57 18 -56 29 -456 26 -916 l-2 -397 21 -5 c12 -3 188 -4 391 -3 l370 3 3 595 c4 720 3 727 -81 852 -35 53 -143 148 -168 148 -5 0 -28 10 -51 21 -39 20 -41 22 -23 35 10 7 41 21 69 30 144 48 214 152 246 364 13 87 8 471 -8 565 -30 176 -135 363 -241 429 -70 44 -126 73 -156 80 -16 4 -48 11 -70 17 -112 28 -342 38 -848 39 -405 0 -519 -3 -522 -12z m957 -568 c50 -14 94 -69 103 -129 8 -54 7 -325 -2 -394 -9 -73 -51 -113 -127 -122 -51 -7 -61 -5 -73 11 -17 23 -19 594 -3 625 12 21 45 24 102 9z"/>
<path d="M10755 3558 c-3 -7 -4 -722 -3 -1588 l3 -1575 408 -3 c225 -1 415 1 423 6 12 7 14 217 14 1582 0 1248 -3 1575 -12 1582 -7 4 -197 8 -421 8 -317 0 -409 -3 -412 -12z"/>
<path d="M12695 3558 c-3 -7 -4 -722 -3 -1588 l3 -1575 650 -3 c767 -3 836 3 988 76 118 57 198 147 235 262 48 153 47 134 47 1205 0 1068 0 1077 -47 1210 -65 186 -228 325 -438 373 -25 6 -56 13 -70 17 -14 3 -95 12 -180 20 -209 20 -1178 21 -1185 3z m1019 -592 c55 -42 56 -57 56 -950 0 -928 -3 -979 -69 -1025 -14 -11 -52 -22 -83 -26 -50 -6 -57 -5 -67 13 -16 29 -15 1975 0 2004 10 19 17 20 72 14 41 -4 70 -14 91 -30z"/>
<path d="M15954 3562 c-7 -4 -15 -36 -18 -72 -4 -36 -11 -87 -16 -115 -5 -27 -14 -95 -20 -150 -6 -55 -15 -127 -20 -160 -11 -76 -26 -186 -40 -295 -6 -47 -16 -119 -21 -160 -5 -41 -14 -104 -19 -140 -11 -79 -26 -186 -40 -300 -6 -47 -15 -114 -20 -150 -5 -36 -14 -101 -20 -145 -16 -123 -29 -220 -45 -335 -9 -58 -22 -159 -30 -225 -8 -66 -19 -149 -25 -185 -5 -36 -14 -103 -20 -150 -6 -47 -15 -110 -20 -140 -5 -30 -14 -102 -21 -160 -6 -58 -15 -121 -20 -140 -11 -49 -14 -124 -5 -138 5 -9 109 -12 424 -12 229 0 422 4 429 8 11 7 19 70 44 387 6 71 15 137 20 147 9 16 25 18 134 18 68 0 126 -4 130 -9 7 -13 23 -178 34 -375 7 -111 14 -162 23 -167 7 -5 198 -9 424 -9 468 0 444 -4 425 77 -5 27 -15 84 -21 128 -6 44 -15 105 -20 135 -5 30 -14 91 -20 135 -6 44 -15 103 -20 130 -5 28 -11 68 -14 90 -6 49 -30 210 -55 370 -11 66 -25 156 -31 200 -6 44 -15 105 -20 135 -5 30 -14 91 -20 135 -6 44 -15 105 -20 135 -11 66 -25 157 -40 265 -7 44 -15 103 -20 130 -5 28 -13 84 -19 125 -6 41 -18 122 -27 180 -9 58 -20 133 -25 168 -5 34 -14 92 -19 130 -11 65 -20 131 -39 270 -22 150 -32 204 -41 223 l-11 19 -587 0 c-323 0 -592 -4 -598 -8z m644 -1039 c6 -54 16 -150 22 -213 36 -384 48 -504 61 -605 6 -44 9 -100 7 -125 l-3 -45 -120 0 -120 0 2 85 c1 47 6 121 12 165 6 44 18 145 27 225 19 172 30 270 44 365 5 39 14 106 20 150 6 44 13 86 15 93 11 31 23 -4 33 -95z"/>
<path d="M19935 3557 c-3 -7 -4 -154 -3 -327 l3 -315 235 -5 235 -5 3 -1249 c2 -985 5 -1252 15 -1258 16 -10 818 -10 834 0 10 6 13 273 15 1258 l3 1249 229 3 c149 1 234 6 243 13 18 16 19 619 1 637 -18 18 -1807 17 -1813 -1z"/>
<path d="M22712 3561 c-11 -6 -12 -238 -9 -1277 5 -1426 1 -1349 80 -1508 76 -153 183 -254 353 -335 38 -18 77 -37 86 -42 10 -5 27 -9 37 -9 11 0 22 -4 25 -9 3 -5 20 -11 38 -14 18 -3 69 -12 113 -21 95 -19 400 -22 472 -5 256 59 355 110 492 252 68 71 84 95 135 202 36 76 50 134 64 265 14 132 15 2479 1 2496 -9 12 -82 14 -413 14 -220 0 -406 -4 -413 -8 -9 -6 -13 -306 -15 -1282 -4 -1353 -3 -1321 -50 -1362 -24 -21 -86 -24 -112 -5 -45 33 -46 57 -46 1383 0 959 -3 1253 -12 1262 -14 14 -804 17 -826 3z"/>
<path d="M25715 3558 c-3 -7 -4 -722 -3 -1588 l3 -1575 400 -3 c220 -1 410 0 423 3 l22 5 0 689 c0 601 2 690 15 701 21 17 110 5 145 -20 59 -42 69 -170 67 -848 l-2 -523 20 -5 c11 -2 187 -3 390 -2 l370 3 3 590 c3 582 -2 707 -31 774 -22 51 -103 153 -147 185 -25 18 -71 44 -102 59 -32 14 -58 29 -58 32 0 7 105 55 120 55 23 0 93 56 124 99 70 95 96 233 96 502 0 210 -15 335 -55 454 -42 125 -138 251 -233 307 -88 51 -96 54 -229 87 -85 21 -355 31 -831 31 -393 0 -504 -3 -507 -12z m984 -578 c11 -5 31 -25 45 -43 34 -45 43 -127 35 -335 l-6 -172 -30 -38 c-27 -33 -37 -38 -93 -46 -56 -8 -64 -7 -76 9 -18 24 -20 594 -3 627 10 18 18 20 60 15 27 -3 57 -11 68 -17z"/>
<path d="M28675 3558 c-3 -7 -4 -722 -3 -1588 l3 -1575 346 -3 c282 -2 348 0 358 11 8 10 12 189 13 620 2 378 7 608 13 610 10 2 27 -45 64 -173 12 -41 31 -106 42 -145 11 -38 24 -81 28 -95 10 -29 38 -123 81 -270 17 -58 35 -116 39 -130 5 -14 14 -43 20 -65 14 -53 50 -174 61 -205 5 -14 16 -53 26 -88 13 -46 23 -64 38 -68 12 -2 179 -3 371 -2 l350 3 0 1585 0 1585 -330 3 c-181 1 -340 0 -352 -3 l-23 -5 -2 -633 c-2 -347 -7 -632 -12 -632 -8 0 -84 224 -175 515 -24 74 -47 144 -51 155 -11 25 -36 103 -90 275 -23 74 -50 158 -60 185 -9 28 -23 68 -30 90 -7 22 -18 43 -24 47 -6 4 -165 8 -354 8 -265 0 -344 -3 -347 -12z"/>
<path d="M31635 3558 c-3 -7 -4 -722 -3 -1588 l3 -1575 420 0 420 0 5 635 5 635 215 6 c118 4 229 10 245 14 166 40 266 85 330 150 128 127 154 252 154 730 1 289 -14 507 -37 580 -53 164 -129 257 -266 323 -95 47 -171 68 -316 87 -143 20 -1168 22 -1175 3z m1015 -588 c53 -38 60 -75 60 -341 0 -261 -8 -315 -55 -359 -28 -27 -136 -40 -160 -20 -13 11 -15 62 -15 369 0 272 3 360 13 370 18 19 121 6 157 -19z"/>
<path d="M34455 3558 c-3 -7 -4 -722 -3 -1588 l3 -1575 410 -2 c226 -2 416 1 422 5 19 12 19 3152 1 3164 -7 4 -197 8 -421 8 -317 0 -409 -3 -412 -12z"/>
<path d="M36415 3558 c-3 -7 -4 -722 -3 -1588 l3 -1575 400 -3 c220 -1 410 0 423 3 l22 5 -1 561 c0 380 3 565 10 572 12 12 10 16 41 -103 12 -47 26 -103 32 -125 6 -22 15 -55 19 -72 5 -18 13 -48 18 -65 5 -18 15 -58 21 -88 7 -30 16 -64 20 -75 5 -11 18 -60 30 -110 22 -96 29 -121 59 -230 11 -38 22 -86 26 -105 4 -19 13 -53 20 -75 7 -22 16 -52 19 -67 l6 -28 418 0 c229 0 423 4 430 9 10 6 10 16 -1 52 -8 24 -20 64 -27 89 -7 25 -21 70 -30 100 -10 30 -27 89 -39 130 -26 90 -53 182 -81 269 -11 35 -20 72 -20 81 0 9 -4 20 -9 26 -5 5 -16 36 -24 69 -9 33 -25 92 -37 130 -12 39 -25 84 -30 100 -5 17 -18 62 -30 100 -12 39 -25 84 -30 100 -5 17 -18 62 -30 100 -23 75 -33 109 -48 165 -14 51 -43 141 -53 168 -5 13 -9 34 -9 49 0 14 45 161 100 327 55 165 105 317 111 336 6 19 23 71 39 115 15 44 55 168 90 275 34 107 66 204 71 215 4 11 18 51 30 89 18 57 19 70 8 77 -8 5 -181 9 -385 9 -285 0 -374 -3 -382 -12 -5 -7 -17 -40 -26 -73 -9 -33 -21 -69 -25 -80 -5 -11 -19 -54 -31 -95 -13 -41 -35 -113 -50 -160 -15 -47 -38 -119 -50 -160 -13 -41 -35 -113 -50 -160 -15 -47 -33 -105 -40 -130 -11 -38 -25 -83 -56 -179 -18 -56 -24 57 -24 514 -1 339 -5 514 -12 522 -15 19 -826 19 -833 1z"/>
<path d="M39375 3558 c-3 -7 -4 -722 -3 -1588 l3 -1575 720 0 720 0 0 325 0 325 -295 5 -295 5 0 325 0 325 250 5 250 5 0 305 0 305 -250 5 -250 5 0 285 0 285 270 5 c149 3 271 7 273 8 1 1 2 146 2 321 0 282 -2 320 -16 325 -9 3 -321 6 -695 6 -535 0 -681 -3 -684 -12z"/>
<path d="M46215 3548 c-3 -13 -4 -727 -3 -1588 l3 -1565 710 -2 c391 -2 716 1 724 6 11 7 13 67 12 322 -1 172 -4 316 -7 319 -3 3 -137 7 -297 10 l-292 5 -3 307 c-2 204 1 315 8 328 10 19 23 20 253 22 l242 3 0 305 0 305 -250 5 -250 5 -3 268 c-1 173 1 275 8 287 l11 20 252 0 c184 0 256 3 265 12 9 9 12 93 12 318 0 225 -3 309 -12 318 -9 9 -177 12 -695 12 l-683 0 -5 -22z"/>
<path d="M48675 3558 c-3 -7 -4 -722 -3 -1588 l3 -1575 400 -3 c220 -1 410 0 423 3 l22 5 0 689 c0 601 2 690 15 701 19 16 110 5 142 -16 13 -8 29 -30 37 -49 25 -58 33 -302 29 -805 -3 -314 -1 -485 6 -503 l11 -27 382 2 383 3 3 624 2 625 -21 70 c-15 48 -39 94 -76 144 -55 74 -98 108 -191 149 -29 13 -50 27 -47 32 3 6 29 19 58 29 178 67 232 142 267 372 13 85 13 430 0 506 -43 245 -83 329 -215 452 -52 49 -92 76 -132 92 -32 12 -67 26 -78 30 -29 11 -142 28 -276 40 -174 15 -1138 13 -1144 -2z m1001 -584 c55 -36 59 -59 59 -304 0 -196 -2 -229 -18 -257 -24 -45 -52 -61 -119 -69 l-57 -7 -11 27 c-12 32 -14 618 -2 630 12 13 120 -2 148 -20z"/>
<path d="M51473 3562 c-13 -8 -10 -34 27 -267 11 -71 25 -161 31 -200 5 -38 14 -97 19 -130 17 -109 29 -189 40 -260 5 -38 15 -99 20 -135 6 -36 15 -94 20 -130 5 -36 13 -92 19 -125 5 -33 15 -94 21 -135 6 -41 15 -100 20 -130 9 -55 44 -293 60 -405 5 -33 13 -87 19 -120 18 -114 33 -210 41 -275 5 -36 15 -103 23 -150 8 -47 20 -123 26 -170 7 -47 16 -110 21 -140 5 -30 14 -91 20 -135 6 -44 15 -100 20 -125 5 -25 10 -61 12 -80 1 -19 6 -41 11 -48 7 -9 146 -12 633 -12 342 0 625 3 628 8 5 9 51 321 76 522 14 114 29 221 40 300 5 36 19 135 30 220 11 85 24 184 30 220 9 67 16 116 50 375 19 146 42 322 61 455 4 36 13 99 18 140 6 41 15 111 21 155 13 93 25 179 39 290 6 44 21 168 35 274 18 141 22 199 14 208 -15 18 -858 19 -876 1 -7 -7 -12 -31 -12 -55 0 -23 -4 -75 -9 -115 -5 -40 -15 -129 -21 -198 -15 -173 -29 -309 -41 -415 -9 -89 -24 -261 -54 -645 -21 -263 -33 -378 -40 -390 -14 -22 -24 4 -30 78 -6 67 -22 246 -40 437 -3 33 -10 107 -16 165 -5 58 -14 146 -19 195 -5 50 -14 137 -20 195 -6 58 -15 143 -21 190 -13 115 -37 333 -49 454 -6 58 -15 103 -23 108 -15 10 -858 10 -874 0z"/>
<path d="M54556 3554 c-3 -9 -6 -717 -6 -1574 0 -857 3 -1565 6 -1574 5 -14 52 -16 419 -16 254 0 416 4 420 10 3 5 5 717 5 1582 0 1234 -3 1574 -13 1580 -6 4 -195 8 -418 8 -362 0 -408 -2 -413 -16z"/>
<path d="M59517 3563 c-4 -3 -7 -716 -7 -1584 l0 -1579 23 -5 c12 -3 337 -4 722 -3 l700 3 0 325 0 325 -290 5 -290 5 -8 60 c-4 33 -6 179 -5 325 l3 265 250 5 250 5 0 305 0 305 -242 3 c-220 2 -243 4 -252 20 -5 10 -9 133 -8 287 l2 270 259 3 c171 1 264 6 273 13 18 16 19 619 1 637 -9 9 -177 12 -693 12 -375 0 -685 -3 -688 -7z"/>
</g>
</g>
</svg>
