<?xml version="1.0" standalone="no"?>
<!DOCTYPE svg PUBLIC "-//W3C//DTD SVG 1.1//EN"
 "http://www.w3.org/Graphics/SVG/1.1/DTD/svg11.dtd">
<!-- Created with svg_stack (http://github.com/astraw/svg_stack) -->
<svg xmlns:sodipodi="http://sodipodi.sourceforge.net/DTD/sodipodi-0.dtd" xmlns="http://www.w3.org/2000/svg" version="1.1" width="4667.0" height="3749.0">
  <defs/>
  <g id="id0:id0" transform="matrix(1.25,0,0,1.25,0.0,0.0)"><g transform="translate(0.000000,2999.200000) scale(0.080000,-0.080000)" fill="#ff0091" stroke="none">
<path d="M18825 16980 c-2 -4 8 -32 24 -61 16 -30 52 -107 82 -171 29 -65 60 -120 68 -122 9 -3 562 -163 1229 -356 668 -193 1219 -354 1227 -356 11 -5 285 212 285 226 0 5 -617 185 -2523 736 -213 61 -389 108 -392 104z"/>
<path d="M16990 16458 c-927 -149 -1689 -274 -1693 -278 -5 -4 67 -71 159 -149 141 -119 173 -141 194 -136 14 2 664 106 1445 230 781 124 1426 229 1433 233 7 4 47 79 89 167 98 209 97 205 75 204 -9 -1 -775 -123 -1702 -271z"/>
<path d="M13662 15928 c-611 -415 -1075 -736 -1069 -740 17 -9 312 -88 329 -88 8 0 455 299 994 663 l979 664 3 43 3 43 -73 74 c-40 40 -75 73 -79 73 -3 0 -492 -330 -1087 -732z"/>
<path d="M19153 16268 c3 -7 39 -87 81 -178 l76 -165 806 -233 805 -233 96 78 c125 102 179 150 173 155 -6 5 -2022 588 -2034 588 -4 0 -6 -6 -3 -12z"/>
<path d="M14090 15564 c-443 -300 -806 -549 -808 -554 -2 -5 16 -14 40 -20 24 -6 100 -27 171 -46 l128 -34 637 432 c350 237 638 432 640 433 1 1 1 77 0 168 l-3 166 -805 -545z"/>
<path d="M17145 15804 c-632 -101 -1156 -187 -1163 -189 -7 -3 -10 -9 -7 -15 3 -6 79 -71 167 -145 137 -115 165 -135 187 -130 14 2 438 70 941 151 503 80 918 149 921 152 8 8 169 350 169 357 0 12 -136 -8 -1215 -181z"/>
</g>
</g>
  <g id="id1:id1" transform="matrix(1.25,0,0,1.25,0.0,0.0)"><g transform="translate(0.000000,2999.200000) scale(0.080000,-0.080000)" fill="#91beeb" stroke="none">
<path d="M24606 21584 c-246 -55 -488 -229 -582 -420 -36 -72 -39 -84 -39 -164 0 -79 3 -91 30 -136 105 -171 402 -199 683 -64 192 92 321 212 395 367 28 59 32 78 32 148 0 63 -5 89 -22 121 -30 56 -94 109 -162 135 -74 29 -237 35 -335 13z"/>
</g>
</g>
  <g id="id2:id2" transform="matrix(1.25,0,0,1.25,0.0,0.0)"><g transform="translate(0.000000,2999.200000) scale(0.080000,-0.080000)" fill="#009bb4" stroke="none">
<path d="M25935 22244 c-22 -2 -92 -9 -155 -15 -562 -53 -1170 -256 -1673 -561 -1481 -896 -2224 -2663 -1826 -4338 104 -440 267 -830 507 -1220 155 -251 326 -465 561 -701 336 -335 656 -564 1076 -769 1120 -547 2400 -547 3520 0 400 195 723 423 1039 730 175 171 293 305 428 487 l98 133 78 0 c370 1 13335 190 13339 194 4 3 -34 6 -83 7 -49 0 -3011 42 -6581 92 -4570 65 -6496 96 -6504 104 -7 7 2 35 34 100 135 269 255 617 321 933 l22 105 115 7 c63 4 2209 53 4769 109 2560 56 4664 105 4675 109 13 6 -5 9 -55 9 -311 4 -9434 211 -9438 215 -2 3 -4 106 -3 228 1 123 -3 284 -9 358 -11 129 -50 411 -70 495 -5 22 -6 43 -2 47 4 4 1204 52 2667 108 1463 55 2676 101 2695 103 31 2 32 3 10 9 -14 4 -1253 52 -2755 108 -1918 72 -2733 105 -2741 114 -7 6 -28 55 -48 108 -47 128 -147 354 -198 448 -68 125 -151 264 -163 275 -7 6 -47 62 -90 125 -648 956 -1685 1583 -2860 1726 -123 15 -606 27 -700 18z m-983 -682 c65 -29 134 -95 154 -147 11 -31 15 -65 13 -118 -10 -182 -169 -369 -414 -487 -139 -67 -213 -84 -360 -84 -138 0 -201 18 -272 79 -65 55 -86 109 -82 208 3 68 9 94 36 147 70 142 188 251 368 341 148 73 221 90 380 86 106 -3 139 -8 177 -25z m783 -2361 c127 -26 389 -103 530 -154 424 -155 780 -354 1121 -629 150 -120 201 -176 246 -270 61 -126 73 -190 73 -388 -1 -155 -4 -188 -28 -290 -106 -444 -280 -837 -524 -1182 -102 -145 -272 -345 -324 -384 -108 -79 -240 -114 -431 -114 -149 0 -279 19 -458 66 -563 147 -1073 404 -1505 759 -197 162 -258 246 -290 400 -17 83 -20 314 -4 418 48 318 209 748 403 1075 132 221 343 498 438 572 85 68 210 119 343 140 86 13 305 3 410 -19z"/>
<path d="M25245 18849 c-308 -350 -518 -726 -796 -1426 l-70 -178 53 -49 c29 -27 89 -78 133 -113 l80 -63 20 42 c165 361 411 835 577 1112 88 146 310 481 384 578 l36 48 -24 9 c-12 5 -88 37 -167 70 -79 34 -144 61 -145 61 0 0 -37 -41 -81 -91z"/>
<path d="M26104 18475 c-273 -59 -482 -264 -734 -718 -230 -415 -290 -655 -220 -881 47 -152 192 -303 407 -425 97 -55 404 -186 504 -215 45 -12 84 -29 89 -36 4 -6 10 -8 13 -3 3 5 34 6 69 2 35 -3 91 -4 125 -1 l61 5 36 -72 c20 -39 40 -71 45 -71 24 0 277 106 299 125 1 1 -9 33 -24 71 -46 123 -46 118 -7 155 51 50 173 202 233 293 60 90 170 306 223 441 196 494 96 799 -367 1114 -274 186 -539 262 -752 216z m311 -400 c129 -34 336 -154 435 -253 31 -32 69 -83 84 -115 27 -54 28 -63 23 -150 -7 -116 -37 -206 -132 -392 -109 -213 -237 -416 -253 -400 -3 3 -40 89 -81 191 -42 102 -80 186 -84 187 -11 3 -336 -146 -337 -154 0 -4 43 -97 95 -208 53 -111 93 -207 89 -213 -23 -37 -212 31 -409 147 -138 81 -227 170 -251 251 -33 116 7 250 163 539 168 312 269 451 386 528 88 58 163 70 272 42z"/>
</g>
</g>
  <g id="id3:id3" transform="matrix(1.25,0,0,1.25,0.0,0.0)"><g transform="translate(0.000000,2999.200000) scale(0.080000,-0.080000)" fill="#5a3287" stroke="none">
<path d="M0 18745 l0 -18745 23335 0 23335 0 0 18745 0 18745 -23335 0 -23335 0 0 -18745z m28960 13381 c276 -66 443 -224 512 -486 l23 -85 0 -1305 c0 -1471 5 -1378 -77 -1543 -85 -169 -251 -290 -468 -339 l-95 -22 -1420 -4 c-1486 -3 -1549 -2 -1684 40 -182 56 -318 167 -391 319 -73 153 -70 76 -70 1512 0 1139 2 1297 16 1365 65 315 291 517 629 562 33 4 710 7 1505 6 1351 -2 1450 -3 1520 -20z m-10349 -673 c301 -85 440 -296 456 -693 15 -379 -94 -616 -337 -729 -151 -70 -254 -81 -787 -81 l-433 0 -2 -467 -3 -468 -165 0 -165 0 -3 1220 c-1 671 0 1226 3 1233 4 11 133 12 682 10 l678 -4 76 -21z m1034 -1208 l0 -1230 -160 0 -160 0 -3 1220 c-1 671 0 1226 3 1233 3 10 42 12 162 10 l158 -3 0 -1230z m1245 550 c120 -18 204 -47 278 -95 114 -73 177 -155 216 -280 40 -126 46 -224 46 -760 0 -391 4 -520 14 -570 8 -36 11 -69 7 -73 -4 -4 -72 -6 -152 -5 l-144 3 -3 63 c-2 34 -6 62 -10 62 -4 0 -30 -19 -57 -41 -116 -97 -235 -123 -520 -116 -161 4 -201 8 -260 27 -269 85 -395 248 -395 510 0 158 48 298 128 378 83 83 230 149 382 173 116 18 448 7 531 -18 76 -23 151 -64 173 -95 14 -20 16 -20 22 -4 10 26 -5 231 -22 307 -29 128 -101 212 -221 260 -51 21 -75 24 -208 24 -133 0 -158 -3 -220 -24 -97 -34 -166 -102 -192 -192 l-19 -64 -139 -3 c-77 -1 -143 2 -148 7 -16 16 22 171 60 244 74 140 239 242 453 282 100 18 283 18 400 0z m1790 0 c307 -47 456 -168 505 -411 9 -44 15 -107 13 -140 l-3 -59 -140 0 -139 0 -11 55 c-47 229 -142 294 -430 295 -122 0 -147 -3 -196 -23 -162 -65 -228 -155 -264 -359 -20 -114 -20 -382 0 -499 38 -222 98 -319 218 -358 80 -26 270 -40 367 -27 102 14 153 36 209 92 53 53 76 102 90 188 6 36 14 68 19 73 5 5 69 7 143 6 l134 -3 -2 -78 c-9 -273 -157 -465 -413 -534 -96 -27 -510 -26 -625 0 -177 41 -291 128 -363 277 -73 153 -102 321 -102 610 0 281 32 447 115 597 89 159 267 271 480 302 96 14 292 12 395 -4z m1825 -10 c175 -37 334 -156 408 -306 66 -134 79 -206 81 -434 l1 -200 -625 -5 -625 -5 3 -70 c8 -152 46 -281 108 -367 72 -97 152 -123 389 -123 154 0 175 2 217 22 96 44 176 142 193 236 4 21 11 40 16 43 9 5 276 -23 289 -31 15 -9 -22 -162 -56 -234 -45 -91 -143 -193 -229 -238 -34 -18 -97 -42 -140 -55 -73 -21 -99 -23 -315 -23 -264 0 -307 7 -440 72 -99 48 -212 159 -258 255 -67 138 -95 306 -95 573 0 278 34 450 121 605 85 153 245 254 458 289 38 6 80 13 94 15 51 9 338 -4 405 -19z m-7141 -3066 c-3 -5 -10 -7 -15 -3 -5 3 -7 10 -3 15 3 5 10 7 15 3 5 -3 7 -10 3 -15z m110 0 c-3 -5 -10 -7 -15 -3 -5 3 -7 10 -3 15 3 5 10 7 15 3 5 -3 7 -10 3 -15z m-230 -10 c-3 -5 -10 -7 -15 -3 -5 3 -7 10 -3 15 3 5 10 7 15 3 5 -3 7 -10 3 -15z m350 0 c-3 -5 -10 -7 -15 -3 -5 3 -7 10 -3 15 3 5 10 7 15 3 5 -3 7 -10 3 -15z m-420 -10 c-3 -5 -10 -7 -15 -3 -5 3 -7 10 -3 15 3 5 10 7 15 3 5 -3 7 -10 3 -15z m490 0 c-3 -5 -10 -7 -15 -3 -5 3 -7 10 -3 15 3 5 10 7 15 3 5 -3 7 -10 3 -15z m-540 -10 c-3 -5 -10 -7 -15 -3 -5 3 -7 10 -3 15 3 5 10 7 15 3 5 -3 7 -10 3 -15z m590 0 c-3 -5 -10 -7 -15 -3 -5 3 -7 10 -3 15 3 5 10 7 15 3 5 -3 7 -10 3 -15z m-630 -10 c-3 -5 -10 -7 -15 -3 -5 3 -7 10 -3 15 3 5 10 7 15 3 5 -3 7 -10 3 -15z m681 11 c4 -6 11 -8 16 -4 5 3 16 0 24 -6 8 -7 15 -9 15 -5 0 4 7 2 15 -5 8 -7 15 -9 15 -5 0 4 7 2 15 -5 8 -7 15 -9 15 -5 0 4 7 2 15 -5 8 -7 15 -9 15 -5 0 4 11 0 25 -9 14 -9 25 -14 25 -11 0 3 45 -17 101 -46 221 -113 401 -273 536 -474 42 -62 137 -245 128 -245 -3 0 2 -11 11 -25 9 -14 13 -25 9 -25 -4 0 -2 -7 5 -15 7 -8 9 -15 5 -15 -4 0 -2 -7 5 -15 7 -8 9 -15 5 -15 -4 0 -2 -7 5 -15 7 -8 9 -15 5 -15 -4 0 -2 -7 5 -15 7 -9 10 -18 7 -22 -4 -3 -2 -12 4 -20 6 -7 9 -13 5 -13 -3 0 -9 0 -13 0 -5 0 -9 5 -9 10 -1 6 -3 13 -4 18 -2 4 -4 12 -5 17 -2 6 -4 13 -5 18 -1 4 -4 12 -5 17 -1 6 -4 12 -5 15 -1 3 -4 10 -5 15 -1 6 -4 12 -5 15 -1 3 -3 8 -4 13 -1 4 -7 16 -13 27 -6 11 -11 22 -10 25 0 3 -24 52 -53 109 -137 267 -356 483 -628 620 -45 23 -85 42 -89 42 -5 1 -17 6 -28 12 -11 6 -23 12 -27 13 -5 1 -10 3 -13 4 -3 1 -9 4 -15 5 -5 1 -12 4 -15 5 -3 1 -9 3 -14 4 -5 0 -12 4 -16 8 -4 4 -13 4 -20 2 -7 -3 -16 0 -20 5 -3 6 -11 9 -16 6 -12 -8 -31 4 -24 16 8 12 22 12 30 -1z m-721 -21 c-3 -5 -9 -7 -14 -4 -5 3 -12 0 -15 -6 -4 -5 -13 -8 -21 -5 -7 3 -16 1 -19 -4 -4 -7 -76 -35 -110 -42 -26 -6 -198 -106 -269 -156 -104 -74 -238 -206 -312 -307 -56 -76 -156 -246 -160 -269 -1 -6 -10 -29 -19 -51 -10 -22 -19 -43 -20 -47 -2 -5 -4 -10 -5 -13 -1 -3 -4 -9 -5 -15 -1 -5 -4 -12 -5 -15 -1 -3 -3 -9 -4 -14 0 -5 -4 -12 -8 -16 -4 -4 -4 -13 -2 -20 3 -7 1 -16 -5 -19 -6 -4 -8 -13 -5 -20 7 -17 -12 -30 -21 -16 -4 6 -2 17 4 24 6 7 8 16 4 19 -3 4 0 13 7 22 7 8 9 15 5 15 -4 0 -2 7 5 15 7 8 9 15 5 15 -4 0 -2 7 5 15 7 8 9 15 6 15 -4 0 -4 6 1 13 4 6 9 20 10 30 2 10 10 31 18 47 9 17 15 32 15 35 -1 14 65 132 120 214 109 162 279 324 445 423 59 35 160 88 170 89 2 0 24 9 48 19 24 11 53 21 63 23 10 1 25 6 32 10 6 5 16 6 21 2 5 -3 12 -1 16 5 4 6 11 8 16 4 5 -3 7 -10 3 -15z m-5599 -878 c7 -12 -12 -24 -25 -16 -11 7 -4 25 10 25 5 0 11 -4 15 -9z m309 -12 c-3 -5 -10 -7 -15 -3 -5 3 -7 10 -3 15 3 5 10 7 15 3 5 -3 7 -10 3 -15z m-400 -10 c-3 -5 -10 -7 -15 -3 -5 3 -7 10 -3 15 3 5 10 7 15 3 5 -3 7 -10 3 -15z m490 0 c-3 -5 -10 -7 -15 -3 -5 3 -7 10 -3 15 3 5 10 7 15 3 5 -3 7 -10 3 -15z m-560 -10 c-3 -5 -10 -7 -15 -3 -5 3 -7 10 -3 15 3 5 10 7 15 3 5 -3 7 -10 3 -15z m631 12 c7 -12 -12 -24 -25 -16 -11 7 -4 25 10 25 5 0 11 -4 15 -9z m-681 -22 c-3 -5 -10 -7 -15 -3 -5 3 -7 10 -3 15 3 5 10 7 15 3 5 -3 7 -10 3 -15z m730 0 c-3 -5 -10 -7 -15 -3 -5 3 -7 10 -3 15 3 5 10 7 15 3 5 -3 7 -10 3 -15z m-776 -4 c-2 -6 -7 -10 -13 -10 -5 0 -16 -4 -23 -9 -7 -4 -16 -5 -19 -2 -3 3 -12 1 -20 -5 -7 -6 -13 -8 -13 -4 0 4 -6 2 -14 -4 -8 -6 -18 -11 -22 -10 -5 1 -12 0 -16 -1 -5 -1 -12 -4 -18 -5 -5 -1 -12 -4 -15 -5 -3 -1 -8 -4 -12 -5 -67 -20 -303 -138 -387 -192 -267 -171 -488 -418 -631 -704 -31 -60 -54 -110 -53 -111 1 -2 -5 -14 -12 -28 -8 -14 -15 -30 -16 -37 -5 -27 -37 -119 -47 -130 -5 -7 -6 -13 -3 -13 4 0 4 -5 1 -10 -4 -6 -11 -8 -16 -4 -6 4 -6 10 0 18 6 7 9 15 6 18 -7 6 31 117 46 134 6 8 8 14 5 14 -4 0 -1 10 6 23 6 12 13 27 14 34 5 31 103 209 172 313 139 211 388 437 625 569 71 39 230 110 260 115 12 3 23 5 25 5 1 1 4 0 5 -1 2 -2 11 3 20 11 10 7 17 10 17 6 0 -4 7 -2 15 5 9 7 18 10 22 7 3 -4 12 -2 20 4 7 6 13 8 13 4 0 -4 7 -2 15 5 8 6 19 9 24 6 5 -4 13 -2 16 4 8 13 28 9 23 -5z m827 5 c3 -5 12 -7 19 -4 8 3 17 0 21 -5 3 -6 10 -9 15 -6 5 3 11 1 14 -4 4 -5 2 -12 -3 -15 -5 -4 -12 -2 -16 3 -3 6 -12 8 -19 5 -8 -3 -17 0 -21 5 -3 6 -11 9 -16 6 -12 -8 -31 4 -24 16 8 12 22 12 30 -1z m128 -36 c4 -1 9 -3 12 -4 3 -1 10 -4 15 -5 6 -1 11 -3 13 -4 1 -2 12 -4 24 -7 43 -8 221 -91 318 -149 255 -152 466 -361 621 -615 56 -92 131 -243 138 -278 2 -9 11 -34 20 -56 10 -21 15 -41 12 -44 -3 -3 -1 -11 5 -19 6 -7 8 -13 4 -13 -4 0 -2 -7 5 -15 7 -9 10 -18 7 -22 -4 -3 -2 -12 4 -19 6 -7 8 -18 4 -24 -9 -14 -28 -1 -21 16 3 7 1 16 -5 20 -6 3 -8 12 -5 19 2 7 2 16 -2 20 -4 4 -7 10 -8 13 0 4 -6 20 -13 36 -6 16 -13 36 -15 45 -12 60 -108 246 -191 371 -180 272 -474 522 -752 639 -37 16 -86 37 -108 47 -22 9 -43 18 -47 19 -5 2 -10 4 -13 5 -3 1 -9 4 -15 5 -5 1 -12 4 -15 5 -5 2 -15 5 -31 9 -3 0 -2 6 1 11 4 6 12 7 18 3 7 -4 15 -8 20 -9z m5205 -9 c-2 -6 -7 -10 -13 -10 -24 -1 -124 -55 -159 -85 -32 -28 -98 -126 -102 -152 -1 -5 -2 -11 -3 -14 0 -3 -6 -2 -11 1 -8 5 -7 11 1 21 6 8 9 14 5 14 -16 0 46 99 86 136 45 44 142 99 158 89 5 -3 12 -1 15 5 8 13 28 9 23 -5z m147 5 c4 -6 10 -8 15 -5 17 10 124 -53 166 -97 42 -43 100 -145 90 -156 -3 -3 -1 -11 5 -18 6 -7 8 -18 4 -24 -8 -13 -26 -3 -23 13 4 22 -49 124 -86 165 -35 38 -168 116 -179 105 -9 -8 -28 8 -22 18 8 12 22 12 30 -1z m1310 -110 c-5 -8 -11 -8 -17 -2 -6 6 -7 16 -3 22 5 8 11 8 17 2 6 -6 7 -16 3 -22z m-2771 -11 c-3 -5 -10 -7 -15 -3 -5 3 -7 10 -3 15 3 5 10 7 15 3 5 -3 7 -10 3 -15z m2781 -39 c-5 -8 -11 -8 -17 -2 -6 6 -7 16 -3 22 5 8 11 8 17 2 6 -6 7 -16 3 -22z m-2791 -11 c-3 -5 -10 -7 -15 -3 -5 3 -7 10 -3 15 3 5 10 7 15 3 5 -3 7 -10 3 -15z m2800 -50 c-3 -5 -10 -7 -15 -3 -5 3 -7 10 -3 15 3 5 10 7 15 3 5 -3 7 -10 3 -15z m-2810 -30 c-3 -5 -10 -7 -15 -3 -5 3 -7 10 -3 15 3 5 10 7 15 3 5 -3 7 -10 3 -15z m1050 -50 c-3 -5 -10 -7 -15 -3 -5 3 -7 10 -3 15 3 5 10 7 15 3 5 -3 7 -10 3 -15z m1770 -30 c-3 -5 -10 -7 -15 -3 -5 3 -7 10 -3 15 3 5 10 7 15 3 5 -3 7 -10 3 -15z m-1770 -100 c-3 -5 -10 -7 -15 -3 -5 3 -7 10 -3 15 3 5 10 7 15 3 5 -3 7 -10 3 -15z m708 -12 c-7 -8 -9 -16 -6 -19 12 -12 -56 -126 -99 -165 -43 -40 -127 -91 -127 -77 0 4 -7 1 -15 -6 -8 -7 -15 -10 -15 -6 0 3 0 9 0 14 0 4 3 7 8 7 20 0 122 68 151 100 33 38 93 150 84 159 -3 2 -2 10 2 16 5 8 10 9 18 1 7 -7 7 -14 -1 -24z m1062 -18 c-3 -5 -10 -7 -15 -3 -5 3 -7 10 -3 15 3 5 10 7 15 3 5 -3 7 -10 3 -15z m-1759 -7 c2 -22 53 -100 90 -137 36 -37 109 -84 138 -91 4 -1 10 -2 13 -3 3 0 2 -6 -1 -11 -4 -6 -12 -7 -18 -3 -7 4 -18 8 -25 9 -27 4 -100 55 -135 93 -36 40 -83 121 -71 121 4 0 1 6 -5 13 -6 8 -8 17 -4 20 7 7 18 0 18 -11z m-1060 -92 c-5 -8 -11 -8 -17 -2 -6 6 -7 16 -3 22 5 8 11 8 17 2 6 -6 7 -16 3 -22z m2809 -11 c-3 -5 -10 -7 -15 -3 -5 3 -7 10 -3 15 3 5 10 7 15 3 5 -3 7 -10 3 -15z m-2800 -50 c-3 -5 -10 -7 -15 -3 -5 3 -7 10 -3 15 3 5 10 7 15 3 5 -3 7 -10 3 -15z m2790 -10 c-3 -5 -10 -7 -15 -3 -5 3 -7 10 -3 15 3 5 10 7 15 3 5 -3 7 -10 3 -15z m-2780 -40 c-3 -5 -10 -7 -15 -3 -5 3 -7 10 -3 15 3 5 10 7 15 3 5 -3 7 -10 3 -15z m2768 -12 c-7 -8 -9 -17 -6 -20 3 -3 2 -12 -2 -19 -5 -7 -9 -16 -10 -20 -1 -5 -3 -10 -4 -13 -1 -3 -4 -9 -5 -15 -1 -5 -4 -12 -5 -15 -1 -3 -4 -9 -5 -15 -1 -5 -3 -11 -4 -12 -2 -2 -4 -14 -7 -28 -8 -44 -130 -282 -206 -400 -41 -63 -158 -231 -260 -372 l-186 -257 110 -37 c117 -39 299 -124 413 -194 508 -310 863 -859 941 -1453 22 -171 15 -451 -15 -601 -35 -173 -94 -336 -191 -531 -120 -243 -213 -385 -576 -890 -170 -236 -320 -444 -332 -462 l-22 -31 102 -104 c195 -196 347 -405 493 -675 1 -1 48 43 105 98 292 282 653 486 1035 584 120 31 253 53 418 71 55 5 58 7 52 27 -3 12 -7 27 -8 32 -2 6 -9 20 -15 33 -7 12 -10 22 -6 22 3 0 1 6 -5 13 -13 17 -72 157 -65 157 2 0 -4 12 -13 27 -10 15 -18 30 -17 33 0 3 -8 25 -19 49 -10 24 -20 49 -21 55 -1 6 -8 21 -14 34 -7 12 -10 22 -6 22 3 0 1 6 -5 13 -13 17 -72 157 -65 157 2 0 -3 11 -12 24 -8 14 -16 29 -16 33 -1 4 -9 26 -19 48 -34 78 -59 145 -53 145 4 0 2 6 -4 13 -6 6 -11 15 -12 19 0 4 -8 24 -16 45 -9 20 -17 48 -19 62 -2 14 -4 27 -6 29 -1 1 -3 7 -4 12 -1 6 -4 12 -5 15 -1 3 -3 8 -4 13 -1 4 -5 13 -10 20 -4 7 -5 16 -2 19 3 3 1 12 -5 20 -6 7 -9 13 -5 13 3 0 9 0 14 0 4 0 8 -4 8 -10 1 -5 3 -13 4 -17 2 -5 4 -12 5 -18 2 -5 4 -13 5 -17 1 -5 4 -12 5 -18 1 -5 4 -12 5 -15 1 -3 3 -8 5 -12 1 -5 5 -15 8 -23 17 -40 35 -100 30 -100 -3 0 0 -7 7 -15 7 -8 9 -15 5 -15 -4 0 -3 -6 3 -12 10 -12 72 -162 76 -183 1 -5 8 -20 14 -32 7 -13 10 -23 6 -23 -3 0 -1 -6 5 -13 13 -17 72 -157 65 -157 -2 0 4 -12 13 -27 10 -15 18 -30 17 -33 0 -3 8 -25 19 -49 10 -24 20 -49 21 -55 1 -6 8 -21 14 -33 7 -13 10 -23 6 -23 -3 0 -1 -6 5 -13 13 -17 72 -157 65 -157 -2 0 2 -10 10 -22 8 -13 15 -26 16 -30 0 -5 7 -23 16 -41 l16 -34 162 -6 c296 -11 594 -79 862 -197 l51 -23 354 268 c195 148 383 293 419 324 171 146 319 305 410 440 35 53 141 257 146 284 1 4 3 9 4 12 1 3 4 10 5 15 1 6 4 12 5 15 1 3 3 9 4 14 0 5 4 12 8 16 4 4 4 13 2 20 -3 7 -1 16 5 19 6 4 8 13 5 20 -7 17 12 30 21 16 4 -6 2 -17 -4 -24 -6 -7 -8 -16 -5 -19 3 -3 2 -12 -2 -19 -5 -7 -9 -16 -10 -20 -1 -5 -3 -10 -4 -13 -1 -3 -4 -9 -5 -15 -1 -5 -4 -12 -5 -15 -1 -3 -4 -9 -5 -15 -1 -5 -3 -11 -4 -12 -2 -2 -4 -13 -7 -26 -7 -36 -98 -212 -151 -290 -144 -211 -301 -355 -806 -737 l-355 -269 95 -53 c208 -118 370 -242 542 -416 l94 -96 82 167 c129 264 246 455 414 676 669 887 1689 1453 2810 1561 307 30 721 16 1031 -35 803 -132 1559 -516 2144 -1089 250 -246 395 -426 648 -809 85 -128 261 -499 329 -692 12 -36 24 -67 26 -70 2 -2 1154 -48 2559 -101 2398 -91 2634 -102 2563 -123 -8 -2 -1132 -45 -2499 -96 -1367 -50 -2490 -93 -2496 -95 -7 -2 -3 -43 12 -127 52 -279 78 -623 67 -879 l-6 -146 224 -6 c123 -3 2110 -47 4414 -97 2305 -51 4196 -94 4204 -96 10 -3 11 -8 3 -16 -7 -7 -1374 -41 -4414 -109 -2422 -54 -4421 -99 -4443 -99 l-40 0 -28 -132 c-66 -305 -169 -609 -302 -885 l-74 -153 47 -1 c5798 -79 12263 -176 12265 -184 1 -6 -41 -11 -108 -13 -205 -4 -12139 -172 -12282 -172 l-141 0 -78 -107 c-306 -421 -688 -775 -1139 -1059 -146 -91 -457 -248 -624 -313 -1075 -423 -2243 -375 -3268 134 -857 425 -1530 1140 -1903 2020 -23 55 -44 102 -46 104 -2 2 -81 -72 -176 -165 -102 -99 -303 -277 -488 -431 -1219 -1011 -1866 -1543 -1873 -1540 -5 1 -134 273 -287 604 -153 331 -293 633 -310 670 -18 37 -97 208 -176 380 -78 171 -147 320 -153 330 -5 10 -23 47 -39 83 -16 36 -46 99 -65 140 -19 41 -37 83 -41 93 -12 37 -34 12 -86 -100 -95 -209 -187 -403 -323 -683 -44 -91 -81 -171 -83 -179 -1 -7 -18 -45 -37 -85 -19 -39 -66 -138 -106 -221 -39 -82 -203 -428 -364 -769 -161 -340 -295 -619 -298 -620 -10 -2 -1574 1316 -1571 1325 1 5 -2 8 -7 7 -9 -3 -169 128 -536 437 -77 65 -139 122 -137 127 1 4 -2 7 -6 6 -10 -3 -177 133 -302 246 l-85 77 -6 -48 c-3 -26 -6 -455 -8 -953 -1 -515 -6 -909 -11 -914 -7 -7 -480 113 -1430 366 -102 27 -347 92 -545 144 -385 102 -572 159 -755 231 -153 60 -344 157 -458 232 -78 52 -91 57 -87 38 3 -12 28 -92 55 -177 30 -97 45 -159 39 -165 -15 -15 -2049 -97 -2264 -91 -447 13 -748 93 -1017 269 -653 425 -942 1245 -706 1997 39 124 139 330 223 455 240 362 652 635 1092 724 84 18 307 44 363 43 59 -1 272 -26 350 -43 210 -43 436 -138 625 -264 175 -116 384 -349 498 -555 21 -38 38 -58 40 -50 140 461 385 822 741 1087 110 82 266 177 350 214 31 13 55 27 53 30 -1 4 -76 56 -167 117 -615 411 -902 817 -1007 1427 -24 142 -24 481 0 626 104 619 451 1129 980 1439 l99 58 -124 65 c-67 35 -303 158 -523 272 -220 114 -443 232 -495 263 -423 246 -678 490 -840 803 -34 66 -59 119 -55 119 3 0 -2 11 -11 25 -9 14 -13 25 -9 25 4 0 2 6 -4 14 -15 17 -53 128 -46 134 3 3 0 11 -6 19 -6 7 -9 13 -5 13 3 0 8 0 11 0 3 0 4 -2 3 -3 -2 -2 2 -10 8 -18 10 -13 43 -103 48 -132 1 -7 8 -23 16 -37 7 -14 13 -26 12 -28 -6 -7 99 -198 148 -272 136 -201 307 -362 570 -535 167 -110 222 -140 817 -449 l512 -266 67 30 c237 107 501 166 781 176 81 2 149 6 151 9 2 2 12 0 21 -5 9 -5 61 -13 115 -20 658 -73 1246 -476 1552 -1065 99 -190 158 -363 196 -575 13 -78 18 -495 6 -558 l-6 -33 46 36 c273 208 532 346 832 445 144 48 326 93 428 106 29 4 55 10 57 15 3 4 -16 34 -43 66 -162 195 -330 445 -430 641 -157 307 -214 538 -213 867 0 323 61 593 201 880 214 439 578 786 1028 978 l62 27 -236 287 c-130 159 -276 347 -324 420 -79 117 -186 312 -194 353 -2 8 -11 32 -20 54 -9 21 -15 41 -12 44 3 3 1 11 -5 19 -6 7 -8 13 -4 13 4 0 2 7 -5 15 -6 8 -9 19 -5 25 9 14 28 1 21 -15 -2 -7 -2 -16 2 -20 4 -4 7 -10 8 -13 0 -4 6 -20 13 -36 6 -16 13 -36 14 -45 6 -32 95 -208 150 -296 82 -133 158 -232 401 -529 156 -189 224 -266 235 -262 93 31 249 71 346 89 100 18 157 22 345 22 220 0 298 -8 491 -51 25 -5 39 12 231 278 220 303 316 452 382 588 36 74 74 160 81 183 1 4 4 9 5 12 1 3 4 10 5 15 1 6 4 12 5 15 1 3 3 9 4 14 0 5 4 12 8 16 4 4 4 13 2 20 -3 7 0 16 5 20 6 3 9 11 6 16 -10 15 6 32 18 20 7 -7 7 -14 -1 -24z m-1448 -38 c-3 -5 -10 -7 -15 -3 -5 3 -7 10 -3 15 3 5 10 7 15 3 5 -3 7 -10 3 -15z m130 0 c-3 -5 -10 -7 -15 -3 -5 3 -7 10 -3 15 3 5 10 7 15 3 5 -3 7 -10 3 -15z m-5970 -510 c-3 -5 -10 -7 -15 -3 -5 3 -7 10 -3 15 3 5 10 7 15 3 5 -3 7 -10 3 -15z m131 12 c7 -12 -12 -24 -25 -16 -11 7 -4 25 10 25 5 0 11 -4 15 -9z m-184 -15 c-1 -3 -2 -6 -3 -6 -15 3 -154 -77 -190 -109 -41 -36 -120 -147 -124 -173 -1 -4 -3 -10 -4 -13 -2 -5 -5 -15 -9 -31 0 -3 -6 -2 -11 1 -6 4 -7 12 -3 18 4 7 8 15 9 20 1 4 2 8 4 10 1 1 3 9 5 18 6 35 58 109 109 157 53 50 169 117 186 107 5 -3 12 0 15 6 7 10 18 7 16 -5z m249 -1 c0 4 7 2 15 -5 8 -7 15 -9 15 -6 0 19 126 -63 170 -110 59 -63 129 -199 112 -216 -8 -8 -13 -6 -18 8 -41 122 -117 217 -220 275 -32 19 -62 34 -66 35 -5 1 -10 3 -13 4 -5 2 -15 5 -31 9 -3 0 -2 6 1 11 5 8 11 7 21 -1 8 -6 14 -8 14 -4z m-1866 -56 c-3 -5 -10 -7 -15 -3 -5 3 -7 10 -3 15 3 5 10 7 15 3 5 -3 7 -10 3 -15z m3510 -20 c-3 -5 -10 -7 -15 -3 -5 3 -7 10 -3 15 3 5 10 7 15 3 5 -3 7 -10 3 -15z m-3520 -20 c-3 -5 -10 -7 -15 -3 -5 3 -7 10 -3 15 3 5 10 7 15 3 5 -3 7 -10 3 -15z m3530 -30 c-3 -5 -10 -7 -15 -3 -5 3 -7 10 -3 15 3 5 10 7 15 3 5 -3 7 -10 3 -15z m-3539 -19 c-5 -8 -11 -8 -17 -2 -6 6 -7 16 -3 22 5 8 11 8 17 2 6 -6 7 -16 3 -22z m-11 -51 c-3 -5 -10 -7 -15 -3 -5 3 -7 10 -3 15 3 5 10 7 15 3 5 -3 7 -10 3 -15z m3560 0 c-3 -5 -10 -7 -15 -3 -5 3 -7 10 -3 15 3 5 10 7 15 3 5 -3 7 -10 3 -15z m-3569 -69 c-5 -8 -11 -8 -17 -2 -6 6 -7 16 -3 22 5 8 11 8 17 2 6 -6 7 -16 3 -22z m3579 -21 c-3 -5 -10 -7 -15 -3 -5 3 -7 10 -3 15 3 5 10 7 15 3 5 -3 7 -10 3 -15z m-3590 -70 c-3 -5 -10 -7 -15 -3 -5 3 -7 10 -3 15 3 5 10 7 15 3 5 -3 7 -10 3 -15z m1330 -10 c-3 -5 -10 -7 -15 -3 -5 3 -7 10 -3 15 3 5 10 7 15 3 5 -3 7 -10 3 -15z m910 -10 c-3 -5 -10 -7 -15 -3 -5 3 -7 10 -3 15 3 5 10 7 15 3 5 -3 7 -10 3 -15z m1 -159 c-5 -8 -11 -8 -17 -2 -6 6 -7 16 -3 22 5 8 11 8 17 2 6 -6 7 -16 3 -22z m-911 -11 c-3 -5 -10 -7 -15 -3 -5 3 -7 10 -3 15 3 5 10 7 15 3 5 -3 7 -10 3 -15z m899 -32 c-4 -7 -8 -15 -9 -19 -1 -5 -2 -9 -4 -10 -1 -2 -3 -11 -5 -21 -7 -37 -71 -131 -118 -172 -47 -41 -120 -83 -155 -90 -9 -2 -18 -4 -19 -5 -2 -2 -6 -3 -10 -4 -5 -1 -14 -5 -20 -9 -7 -5 -18 -5 -23 -2 -14 9 -1 27 15 21 7 -2 16 -2 20 2 4 4 10 7 13 7 25 2 124 66 170 109 45 42 113 139 118 169 1 4 3 9 4 12 2 5 5 15 9 31 0 3 6 2 11 -1 6 -4 7 -12 3 -18z m-888 -5 c2 -25 71 -137 109 -175 47 -49 137 -109 171 -115 11 -1 24 -7 29 -12 4 -4 14 -6 21 -4 16 7 29 -12 15 -21 -6 -4 -17 -2 -24 4 -7 6 -15 8 -19 5 -3 -3 -16 0 -29 7 -12 7 -29 14 -36 15 -27 5 -114 68 -155 113 -38 44 -86 124 -91 154 -1 7 -5 17 -9 23 -3 6 -4 14 0 18 7 6 18 -1 18 -12z m2249 -23 c-3 -5 -10 -7 -15 -3 -5 3 -7 10 -3 15 3 5 10 7 15 3 5 -3 7 -10 3 -15z m-3589 -49 c-5 -8 -11 -8 -17 -2 -6 6 -7 16 -3 22 5 8 11 8 17 2 6 -6 7 -16 3 -22z m3579 -61 c-3 -5 -10 -7 -15 -3 -5 3 -7 10 -3 15 3 5 10 7 15 3 5 -3 7 -10 3 -15z m-3570 -30 c-3 -5 -10 -7 -15 -3 -5 3 -7 10 -3 15 3 5 10 7 15 3 5 -3 7 -10 3 -15z m3560 -50 c-3 -5 -10 -7 -15 -3 -5 3 -7 10 -3 15 3 5 10 7 15 3 5 -3 7 -10 3 -15z m-3550 -10 c-3 -5 -10 -7 -15 -3 -5 3 -7 10 -3 15 3 5 10 7 15 3 5 -3 7 -10 3 -15z m11 -59 c-5 -8 -11 -8 -17 -2 -6 6 -7 16 -3 22 5 8 11 8 17 2 6 -6 7 -16 3 -22z m3529 -1 c-3 -5 -10 -7 -15 -3 -5 3 -7 10 -3 15 3 5 10 7 15 3 5 -3 7 -10 3 -15z m-3520 -40 c-3 -5 -10 -7 -15 -3 -5 3 -7 10 -3 15 3 5 10 7 15 3 5 -3 7 -10 3 -15z m1710 -10 c-3 -5 -10 -7 -15 -3 -5 3 -7 10 -3 15 3 5 10 7 15 3 5 -3 7 -10 3 -15z m70 0 c-3 -5 -10 -7 -15 -3 -5 3 -7 10 -3 15 3 5 10 7 15 3 5 -3 7 -10 3 -15z m1731 -19 c-5 -8 -11 -8 -17 -2 -6 6 -7 16 -3 22 5 8 11 8 17 2 6 -6 7 -16 3 -22z m-3501 -11 c-3 -5 -10 -7 -15 -3 -5 3 -7 10 -3 15 3 5 10 7 15 3 5 -3 7 -10 3 -15z m3490 -40 c-3 -5 -10 -7 -15 -3 -5 3 -7 10 -3 15 3 5 10 7 15 3 5 -3 7 -10 3 -15z m-10 -60 c-3 -5 -10 -7 -15 -3 -5 3 -7 10 -3 15 3 5 10 7 15 3 5 -3 7 -10 3 -15z m-9 -49 c-5 -8 -11 -8 -17 -2 -6 6 -7 16 -3 22 5 8 11 8 17 2 6 -6 7 -16 3 -22z m-11 -41 c-3 -5 -10 -7 -15 -3 -5 3 -7 10 -3 15 3 5 10 7 15 3 5 -3 7 -10 3 -15z m-9 -49 c-5 -8 -11 -8 -17 -2 -6 6 -7 16 -3 22 5 8 11 8 17 2 6 -6 7 -16 3 -22z m-11 -41 c-3 -5 -10 -7 -15 -3 -5 3 -7 10 -3 15 3 5 10 7 15 3 5 -3 7 -10 3 -15z m-10 -40 c-3 -5 -10 -7 -15 -3 -5 3 -7 10 -3 15 3 5 10 7 15 3 5 -3 7 -10 3 -15z m-10 -50 c-3 -5 -10 -7 -15 -3 -5 3 -7 10 -3 15 3 5 10 7 15 3 5 -3 7 -10 3 -15z m-10 -40 c-3 -5 -10 -7 -15 -3 -5 3 -7 10 -3 15 3 5 10 7 15 3 5 -3 7 -10 3 -15z m-10 -50 c-3 -5 -10 -7 -15 -3 -5 3 -7 10 -3 15 3 5 10 7 15 3 5 -3 7 -10 3 -15z m-10 -40 c-3 -5 -10 -7 -15 -3 -5 3 -7 10 -3 15 3 5 10 7 15 3 5 -3 7 -10 3 -15z m-9 -49 c-5 -8 -11 -8 -17 -2 -6 6 -7 16 -3 22 5 8 11 8 17 2 6 -6 7 -16 3 -22z m-11 -41 c-3 -5 -10 -7 -15 -3 -5 3 -7 10 -3 15 3 5 10 7 15 3 5 -3 7 -10 3 -15z m-9 -49 c-5 -8 -11 -8 -17 -2 -6 6 -7 16 -3 22 5 8 11 8 17 2 6 -6 7 -16 3 -22z m-11 -41 c-3 -5 -10 -7 -15 -3 -5 3 -7 10 -3 15 3 5 10 7 15 3 5 -3 7 -10 3 -15z m-9 -49 c-5 -8 -11 -8 -17 -2 -6 6 -7 16 -3 22 5 8 11 8 17 2 6 -6 7 -16 3 -22z m-11 -41 c-3 -5 -10 -7 -15 -3 -5 3 -7 10 -3 15 3 5 10 7 15 3 5 -3 7 -10 3 -15z m-10 -40 c-3 -5 -10 -7 -15 -3 -5 3 -7 10 -3 15 3 5 10 7 15 3 5 -3 7 -10 3 -15z m8470 0 c-3 -5 -10 -7 -15 -3 -5 3 -7 10 -3 15 3 5 10 7 15 3 5 -3 7 -10 3 -15z m40 0 c-3 -5 -10 -7 -15 -3 -5 3 -7 10 -3 15 3 5 10 7 15 3 5 -3 7 -10 3 -15z m-189 2 c7 -12 -12 -24 -25 -16 -11 7 -4 25 10 25 5 0 11 -4 15 -9z m339 -12 c-3 -5 -10 -7 -15 -3 -5 3 -7 10 -3 15 3 5 10 7 15 3 5 -3 7 -10 3 -15z m-420 -10 c-3 -5 -10 -7 -15 -3 -5 3 -7 10 -3 15 3 5 10 7 15 3 5 -3 7 -10 3 -15z m501 12 c7 -12 -12 -24 -25 -16 -11 7 -4 25 10 25 5 0 11 -4 15 -9z m-551 -22 c-3 -5 -10 -7 -15 -3 -5 3 -7 10 -3 15 3 5 10 7 15 3 5 -3 7 -10 3 -15z m600 0 c-3 -5 -10 -7 -15 -3 -5 3 -7 10 -3 15 3 5 10 7 15 3 5 -3 7 -10 3 -15z m-646 -4 c-2 -6 -7 -10 -13 -10 -5 0 -16 -4 -23 -9 -7 -4 -16 -5 -19 -2 -3 3 -12 1 -20 -5 -7 -6 -13 -8 -13 -4 0 4 -6 3 -12 -2 -12 -10 -75 -32 -101 -37 -32 -5 -214 -102 -293 -155 -181 -121 -321 -263 -437 -441 -50 -77 -120 -206 -115 -212 1 -2 -5 -14 -12 -28 -8 -14 -15 -33 -17 -43 -2 -10 -9 -28 -15 -40 -7 -12 -11 -25 -10 -29 1 -4 -3 -20 -10 -35 -11 -26 -14 -35 -17 -49 0 -3 -6 -2 -11 1 -8 5 -8 11 -1 19 6 7 8 15 6 18 -3 3 0 18 6 34 7 16 14 38 16 49 2 10 10 30 18 42 9 13 13 23 9 23 -3 0 1 11 10 25 9 14 14 25 11 25 -3 0 12 35 34 78 123 245 333 471 572 616 73 44 195 105 221 110 7 2 31 11 52 20 22 10 51 19 65 21 14 2 27 4 29 6 1 1 5 2 10 3 4 1 13 5 20 9 6 5 16 6 21 2 5 -3 13 -1 16 5 8 13 28 9 23 -5z m697 5 c4 -6 11 -8 16 -5 5 4 15 3 22 -2 6 -4 15 -8 20 -9 4 -1 8 -2 10 -3 1 -2 14 -4 28 -6 14 -2 43 -11 65 -21 21 -9 45 -18 53 -20 36 -7 197 -92 286 -151 135 -90 318 -273 408 -408 66 -101 163 -289 171 -335 2 -14 5 -26 5 -27 1 -2 1 -6 2 -10 0 -5 5 -14 11 -20 6 -7 7 -13 3 -13 -4 0 -2 -7 5 -15 7 -8 10 -15 6 -15 -3 0 -9 0 -13 0 -5 0 -9 5 -9 10 -1 6 -3 12 -4 15 -1 3 -4 10 -5 15 -1 6 -4 12 -5 15 -1 3 -3 8 -4 13 -4 12 -26 62 -77 167 -113 237 -295 445 -522 598 -66 44 -266 148 -294 153 -26 4 -89 27 -100 37 -7 5 -13 6 -13 2 0 -4 -6 -2 -13 4 -8 6 -17 8 -20 4 -4 -3 -13 -1 -20 5 -8 7 -17 9 -20 6 -9 -9 -28 6 -22 17 8 12 22 12 30 -1z m-8851 -21 c-3 -5 -10 -7 -15 -3 -5 3 -7 10 -3 15 3 5 10 7 15 3 5 -3 7 -10 3 -15z m-10 -40 c-3 -5 -10 -7 -15 -3 -5 3 -7 10 -3 15 3 5 10 7 15 3 5 -3 7 -10 3 -15z m-10 -50 c-3 -5 -10 -7 -15 -3 -5 3 -7 10 -3 15 3 5 10 7 15 3 5 -3 7 -10 3 -15z m-10 -40 c-3 -5 -10 -7 -15 -3 -5 3 -7 10 -3 15 3 5 10 7 15 3 5 -3 7 -10 3 -15z m-9 -49 c-5 -8 -11 -8 -17 -2 -6 6 -7 16 -3 22 5 8 11 8 17 2 6 -6 7 -16 3 -22z m-11 -41 c-3 -5 -10 -7 -15 -3 -5 3 -7 10 -3 15 3 5 10 7 15 3 5 -3 7 -10 3 -15z m-9 -49 c-5 -8 -11 -8 -17 -2 -6 6 -7 16 -3 22 5 8 11 8 17 2 6 -6 7 -16 3 -22z m-11 -41 c-3 -5 -10 -7 -15 -3 -5 3 -7 10 -3 15 3 5 10 7 15 3 5 -3 7 -10 3 -15z m-9 -49 c-5 -8 -11 -8 -17 -2 -6 6 -7 16 -3 22 5 8 11 8 17 2 6 -6 7 -16 3 -22z m-11 -41 c-3 -5 -10 -7 -15 -3 -5 3 -7 10 -3 15 3 5 10 7 15 3 5 -3 7 -10 3 -15z m-10 -40 c-3 -5 -10 -7 -15 -3 -5 3 -7 10 -3 15 3 5 10 7 15 3 5 -3 7 -10 3 -15z m-10 -50 c-3 -5 -10 -7 -15 -3 -5 3 -7 10 -3 15 3 5 10 7 15 3 5 -3 7 -10 3 -15z m-10 -40 c-3 -5 -10 -7 -15 -3 -5 3 -7 10 -3 15 3 5 10 7 15 3 5 -3 7 -10 3 -15z m-10 -50 c-3 -5 -10 -7 -15 -3 -5 3 -7 10 -3 15 3 5 10 7 15 3 5 -3 7 -10 3 -15z m-10 -40 c-3 -5 -10 -7 -15 -3 -5 3 -7 10 -3 15 3 5 10 7 15 3 5 -3 7 -10 3 -15z m-9 -49 c-5 -8 -11 -8 -17 -2 -6 6 -7 16 -3 22 5 8 11 8 17 2 6 -6 7 -16 3 -22z m8576 -377 c-1 -4 -4 -8 -8 -9 -5 0 -16 -4 -25 -8 -9 -4 -22 -9 -30 -10 -48 -8 -160 -110 -196 -181 -14 -27 -27 -53 -28 -57 -1 -5 -2 -11 -3 -14 0 -3 -6 -2 -11 1 -6 4 -7 12 -3 18 4 7 9 21 10 32 10 60 140 200 196 209 7 1 22 8 35 14 12 7 27 10 32 7 5 -3 12 0 15 6 7 11 17 6 16 -8z m163 -4 c-3 -5 -10 -7 -15 -3 -5 3 -7 10 -3 15 3 5 10 7 15 3 5 -3 7 -10 3 -15z m64 -5 c28 -5 101 -55 139 -97 43 -46 99 -144 89 -155 -3 -3 -1 -11 5 -19 6 -7 9 -13 5 -13 -3 0 -9 0 -13 0 -5 0 -8 3 -8 8 -1 29 -62 130 -103 171 -41 41 -114 90 -144 97 -5 1 -11 2 -14 3 -3 0 -2 6 1 11 4 6 12 7 18 3 7 -4 18 -8 25 -9z m1316 -25 c-3 -5 -10 -7 -15 -3 -5 3 -7 10 -3 15 3 5 10 7 15 3 5 -3 7 -10 3 -15z m-2950 -40 c-3 -5 -10 -7 -15 -3 -5 3 -7 10 -3 15 3 5 10 7 15 3 5 -3 7 -10 3 -15z m2960 0 c-3 -5 -10 -7 -15 -3 -5 3 -7 10 -3 15 3 5 10 7 15 3 5 -3 7 -10 3 -15z m10 -40 c-3 -5 -10 -7 -15 -3 -5 3 -7 10 -3 15 3 5 10 7 15 3 5 -3 7 -10 3 -15z m-2980 -10 c-3 -5 -10 -7 -15 -3 -5 3 -7 10 -3 15 3 5 10 7 15 3 5 -3 7 -10 3 -15z m2991 -49 c-5 -8 -11 -8 -17 -2 -6 6 -7 16 -3 22 5 8 11 8 17 2 6 -6 7 -16 3 -22z m-3001 -11 c-3 -5 -10 -7 -15 -3 -5 3 -7 10 -3 15 3 5 10 7 15 3 5 -3 7 -10 3 -15z m3010 -50 c-3 -5 -10 -7 -15 -3 -5 3 -7 10 -3 15 3 5 10 7 15 3 5 -3 7 -10 3 -15z m-3020 -50 c-3 -5 -10 -7 -15 -3 -5 3 -7 10 -3 15 3 5 10 7 15 3 5 -3 7 -10 3 -15z m1140 -30 c-3 -5 -10 -7 -15 -3 -5 3 -7 10 -3 15 3 5 10 7 15 3 5 -3 7 -10 3 -15z m1890 -30 c-3 -5 -10 -7 -15 -3 -5 3 -7 10 -3 15 3 5 10 7 15 3 5 -3 7 -10 3 -15z m-1118 -34 c-1 -9 -6 -15 -12 -15 -9 0 -13 19 -6 33 6 12 20 -2 18 -18z m-772 -76 c-3 -5 -10 -7 -15 -3 -5 3 -7 10 -3 15 3 5 10 7 15 3 5 -3 7 -10 3 -15z m-1140 -10 c-3 -5 -10 -7 -15 -3 -5 3 -7 10 -3 15 3 5 10 7 15 3 5 -3 7 -10 3 -15z m1897 -13 c-6 -7 -8 -15 -5 -18 10 -11 -46 -109 -89 -155 -41 -44 -110 -92 -144 -98 -10 -2 -19 -4 -20 -4 -8 -3 -13 0 -13 7 0 4 3 7 8 7 23 2 102 54 144 96 40 40 96 133 104 172 1 4 2 10 3 13 0 3 6 2 11 -1 8 -5 8 -11 1 -19z m-746 -14 c2 -25 61 -116 101 -155 48 -48 127 -92 190 -106 3 0 2 -6 -1 -11 -4 -6 -12 -7 -18 -3 -6 4 -22 8 -35 9 -29 3 -101 45 -147 85 -38 33 -93 115 -98 144 -1 11 -6 25 -10 31 -3 6 -4 14 0 18 7 6 18 -1 18 -12z m1879 -13 c-3 -5 -10 -7 -15 -3 -5 3 -7 10 -3 15 3 5 10 7 15 3 5 -3 7 -10 3 -15z m-3020 -60 c-3 -5 -10 -7 -15 -3 -5 3 -7 10 -3 15 3 5 10 7 15 3 5 -3 7 -10 3 -15z m3010 -50 c-3 -5 -10 -7 -15 -3 -5 3 -7 10 -3 15 3 5 10 7 15 3 5 -3 7 -10 3 -15z m-2999 -19 c-5 -8 -11 -8 -17 -2 -6 6 -7 16 -3 22 5 8 11 8 17 2 6 -6 7 -16 3 -22z m9 -51 c-3 -5 -10 -7 -15 -3 -5 3 -7 10 -3 15 3 5 10 7 15 3 5 -3 7 -10 3 -15z m2980 0 c-3 -5 -10 -7 -15 -3 -5 3 -7 10 -3 15 3 5 10 7 15 3 5 -3 7 -10 3 -15z m-2969 -49 c-5 -8 -11 -8 -17 -2 -6 6 -7 16 -3 22 5 8 11 8 17 2 6 -6 7 -16 3 -22z m2959 -1 c-3 -5 -10 -7 -15 -3 -5 3 -7 10 -3 15 3 5 10 7 15 3 5 -3 7 -10 3 -15z m-1400 -30 c-3 -5 -10 -7 -15 -3 -5 3 -7 10 -3 15 3 5 10 7 15 3 5 -3 7 -10 3 -15z m-1550 -10 c-3 -5 -10 -7 -15 -3 -5 3 -7 10 -3 15 3 5 10 7 15 3 5 -3 7 -10 3 -15z m-13060 -560 c-3 -5 -10 -7 -15 -3 -5 3 -7 10 -3 15 3 5 10 7 15 3 5 -3 7 -10 3 -15z m-40 -10 c-3 -5 -10 -7 -15 -3 -5 3 -7 10 -3 15 3 5 10 7 15 3 5 -3 7 -10 3 -15z m936 -4 c0 4 7 2 15 -5 8 -7 15 -9 15 -5 0 4 7 2 15 -5 8 -7 15 -9 15 -6 0 4 6 4 13 -1 6 -4 15 -8 20 -9 4 -1 10 -2 13 -3 3 0 2 -6 -1 -11 -5 -8 -11 -7 -21 1 -8 6 -14 8 -14 5 0 -4 -6 -4 -12 1 -7 4 -16 8 -20 9 -5 1 -10 3 -13 4 -3 1 -9 4 -15 5 -5 1 -12 4 -15 5 -5 2 -15 5 -31 9 -3 0 -2 6 1 11 5 8 11 7 21 -1 8 -6 14 -8 14 -4z m-1086 -46 c-3 -5 -10 -7 -15 -3 -5 3 -7 10 -3 15 3 5 10 7 15 3 5 -3 7 -10 3 -15z m-50 -20 c-3 -5 -10 -7 -15 -3 -5 3 -7 10 -3 15 3 5 10 7 15 3 5 -3 7 -10 3 -15z m1311 -10 c-4 -5 -14 -5 -26 1 -11 6 -17 15 -14 21 4 5 14 5 26 -1 11 -6 17 -15 14 -21z m-1380 -9 c3 -5 -12 -18 -34 -30 -23 -11 -42 -16 -46 -10 -3 5 11 18 32 29 46 24 41 23 48 11z m1540 -71 c-4 -5 -14 -5 -26 1 -11 6 -17 15 -14 21 4 5 14 5 26 -1 11 -6 17 -15 14 -21z m-1652 1 c-27 -23 -82 -49 -87 -41 -8 12 74 62 87 54 5 -3 5 -9 0 -13z m1702 -31 c-4 -5 -14 -5 -26 1 -11 6 -17 15 -14 21 4 5 14 5 26 -1 11 -6 17 -15 14 -21z m29 -20 c-3 -5 -10 -7 -15 -3 -5 3 -7 10 -3 15 3 5 10 7 15 3 5 -3 7 -10 3 -15z m-1830 2 c4 -5 -24 -30 -60 -56 -101 -72 -257 -228 -341 -340 -42 -55 -77 -101 -78 -103 -2 -2 -6 1 -9 7 -10 16 134 198 236 298 72 70 232 203 245 203 1 0 4 -4 7 -9z m1860 -22 c-3 -5 -10 -7 -15 -3 -5 3 -7 10 -3 15 3 5 10 7 15 3 5 -3 7 -10 3 -15z m128 -87 c92 -75 210 -201 201 -215 -3 -5 -38 26 -78 69 -40 43 -111 110 -158 148 -48 38 -84 73 -81 78 6 10 8 9 116 -80z m232 -254 c-3 -5 -12 -4 -20 3 -7 6 -11 15 -8 21 3 5 12 4 20 -3 7 -6 11 -15 8 -21z m69 -87 c9 -16 13 -32 8 -35 -11 -7 -82 99 -73 109 7 7 37 -27 65 -74z m-2783 -82 c-6 -11 -15 -17 -21 -14 -5 4 -5 14 1 26 6 11 15 17 21 14 5 -4 5 -14 -1 -26z m2855 -48 c19 -39 31 -73 25 -76 -11 -7 -82 129 -73 139 10 10 11 9 48 -63z m-2890 -12 c-9 -16 -20 -27 -25 -24 -6 4 -4 18 5 36 9 16 20 27 25 24 6 -4 4 -18 -5 -36z m-60 -120 c-9 -16 -20 -27 -25 -24 -6 4 -4 18 5 36 9 16 20 27 25 24 6 -4 4 -18 -5 -36z m3009 -10 c-3 -5 -10 -7 -15 -3 -5 3 -7 10 -3 15 3 5 10 7 15 3 5 -3 7 -10 3 -15z m21 -49 c-3 -5 -1 -11 5 -15 6 -4 8 -11 4 -16 -3 -5 -10 -7 -15 -3 -5 3 -7 9 -4 14 3 5 1 11 -5 15 -6 4 -8 11 -4 16 3 5 10 7 15 3 5 -3 7 -9 4 -14z m-3061 -11 c-3 -5 -10 -7 -15 -3 -5 3 -7 10 -3 15 3 5 10 7 15 3 5 -3 7 -10 3 -15z m-50 -150 c-3 -5 -10 -7 -15 -3 -5 3 -7 10 -3 15 3 5 10 7 15 3 5 -3 7 -10 3 -15z m1440 -20 c-3 -5 -9 -7 -14 -4 -5 3 -11 1 -15 -5 -4 -6 -11 -8 -16 -4 -5 3 -7 10 -3 15 3 5 9 7 14 4 5 -3 11 -1 15 5 4 6 11 8 16 4 5 -3 7 -10 3 -15z m1730 0 c-3 -5 -10 -7 -15 -3 -5 3 -7 10 -3 15 3 5 10 7 15 3 5 -3 7 -10 3 -15z m-1377 -41 c30 -24 -1 -24 -42 -1 -50 28 -52 52 -2 27 18 -9 38 -21 44 -26z m-458 -7 c-51 -34 -113 -98 -141 -148 -34 -61 -58 -62 -27 -2 37 74 157 187 182 172 6 -4 1 -13 -14 -22z m1855 -22 c-3 -5 -10 -7 -15 -3 -5 3 -7 10 -3 15 3 5 10 7 15 3 5 -3 7 -10 3 -15z m-1280 -101 c-3 -5 -28 14 -54 44 -26 29 -45 57 -42 62 3 5 27 -14 54 -43 26 -29 45 -57 42 -63z m1290 61 c-3 -5 -10 -7 -15 -3 -5 3 -7 10 -3 15 3 5 10 7 15 3 5 -3 7 -10 3 -15z m10 -40 c-3 -5 -10 -7 -15 -3 -5 3 -7 10 -3 15 3 5 10 7 15 3 5 -3 7 -10 3 -15z m-1270 -70 c-3 -5 -10 -7 -15 -3 -5 3 -7 10 -3 15 3 5 10 7 15 3 5 -3 7 -10 3 -15z m20 -50 c-3 -5 -10 -7 -15 -3 -5 3 -7 10 -3 15 3 5 10 7 15 3 5 -3 7 -10 3 -15z m1280 -10 c-3 -5 -10 -7 -15 -3 -5 3 -7 10 -3 15 3 5 10 7 15 3 5 -3 7 -10 3 -15z m-1281 -262 c-4 -7 -8 -18 -9 -25 -8 -48 -151 -211 -174 -197 -6 3 15 29 46 58 46 42 115 139 120 170 1 4 2 10 3 13 0 3 6 2 11 -1 6 -4 7 -12 3 -18z m-799 -8 c-3 -5 -10 -7 -15 -3 -5 3 -7 10 -3 15 3 5 10 7 15 3 5 -3 7 -10 3 -15z m113 -155 c24 -22 41 -43 37 -47 -18 -17 -141 114 -127 136 3 6 15 -3 26 -19 12 -16 40 -47 64 -70z m146 -90 c4 -1 10 -2 13 -3 3 0 2 -6 -1 -11 -5 -8 -11 -7 -21 1 -8 6 -14 9 -14 5 0 -4 -18 3 -40 14 -23 12 -38 25 -35 30 4 6 24 1 48 -12 23 -12 45 -23 50 -24z m332 10 c-10 -7 -22 -11 -28 -7 -6 3 -3 11 8 19 10 7 22 11 28 7 6 -3 3 -11 -8 -19z m-61 -25 c-3 -5 -10 -7 -15 -3 -5 3 -7 10 -3 15 3 5 10 7 15 3 5 -3 7 -10 3 -15z m-1700 -50 c-3 -5 -10 -7 -15 -3 -5 3 -7 10 -3 15 3 5 10 7 15 3 5 -3 7 -10 3 -15z m22 -70 c1 -5 3 -11 4 -14 1 -3 4 -9 5 -15 1 -5 4 -12 5 -15 1 -3 4 -9 5 -15 1 -5 3 -12 4 -15 2 -11 1 -15 -6 -15 -5 0 -9 5 -9 10 -1 6 -3 12 -4 15 -1 3 -4 10 -5 15 -1 6 -4 12 -5 15 -1 3 -3 8 -4 13 -1 4 -4 12 -8 18 -4 6 -5 14 -1 18 7 7 17 -1 19 -15z m48 -140 c-3 -5 -10 -7 -15 -3 -5 3 -7 10 -3 15 3 5 10 7 15 3 5 -3 7 -10 3 -15z m56 -108 c17 -34 26 -63 20 -66 -11 -7 -72 109 -63 119 10 10 11 8 43 -53z m53 -114 c-3 -6 -11 -3 -19 8 -7 10 -11 22 -7 28 3 6 11 3 19 -8 7 -10 11 -22 7 -28z m101 -132 c32 -44 108 -128 168 -187 59 -59 104 -110 98 -113 -30 -18 -382 387 -363 418 4 6 13 1 22 -13 9 -14 43 -61 75 -105z m430 -407 c-6 -9 -29 4 -109 60 -25 18 -43 36 -40 41 3 5 39 -13 80 -41 41 -28 72 -55 69 -60z m151 -78 c-3 -6 -32 3 -66 20 -33 17 -57 35 -54 40 3 6 32 -3 66 -20 33 -17 57 -35 54 -40z m88 -26 c4 -1 10 -2 13 -3 3 0 2 -6 -1 -11 -5 -8 -11 -7 -21 1 -8 6 -14 8 -14 5 0 -4 -9 -2 -20 4 -11 6 -18 15 -15 21 4 5 15 4 28 -3 12 -7 25 -13 30 -14z m80 -30 c4 -1 10 -2 13 -3 3 0 2 -6 -1 -11 -5 -8 -11 -7 -21 1 -8 6 -14 8 -14 5 0 -4 -5 -4 -10 -1 -6 4 -8 11 -4 16 3 5 11 6 17 2 7 -4 15 -8 20 -9z m81 -35 c-3 -5 -10 -7 -15 -3 -5 3 -7 10 -3 15 3 5 10 7 15 3 5 -3 7 -10 3 -15z m11526 -5341 c56 -117 74 -194 74 -318 1 -120 -13 -185 -60 -288 -44 -97 -109 -187 -185 -256 l-62 -56 -36 22 c-130 79 -141 87 -141 115 0 16 17 53 39 86 105 153 115 325 30 494 -43 86 -49 131 -20 157 16 15 289 124 314 125 4 1 26 -36 47 -81z m1310 -68 c100 -24 288 -113 345 -163 l40 -35 -39 -73 c-139 -262 -147 -266 -331 -174 -60 30 -137 61 -170 70 -127 32 -255 12 -327 -53 -49 -45 -68 -85 -68 -149 0 -117 73 -172 348 -262 258 -85 377 -144 462 -230 113 -115 150 -212 150 -397 0 -178 -46 -320 -145 -447 -223 -284 -697 -349 -1111 -153 -98 47 -195 109 -232 149 l-23 25 78 122 c91 144 115 165 182 164 38 0 61 -9 112 -41 159 -100 254 -134 379 -134 96 0 133 9 195 45 54 32 83 78 95 153 20 117 -33 204 -155 258 -28 13 -121 44 -206 70 -262 79 -372 135 -460 232 -52 58 -101 153 -120 233 -7 30 -13 107 -14 170 0 134 20 214 82 320 94 159 281 283 484 319 90 16 351 5 449 -19z m4920 15 c461 -69 797 -388 895 -850 24 -110 25 -350 2 -466 -88 -447 -398 -759 -849 -855 -118 -25 -391 -26 -508 -1 -443 95 -753 399 -846 830 -36 165 -28 415 17 580 27 98 109 265 168 346 162 218 412 368 692 415 112 19 311 19 429 1z m-12825 -205 l0 -195 -302 -3 -303 -2 -2 -878 -3 -877 -240 0 -240 0 -3 877 -2 878 -303 2 -302 3 -3 185 c-1 101 0 190 2 197 4 11 169 13 853 11 l848 -3 0 -195z m765 -255 l5 -450 442 -3 443 -2 2 452 3 453 245 0 245 0 0 -1075 0 -1075 -245 0 -245 0 -3 453 -2 452 -443 -2 -442 -3 -5 -450 -5 -450 -245 0 -245 0 -3 1065 c-1 586 0 1071 3 1078 3 10 58 12 247 10 l243 -3 5 -450z m2917 443 c17 -26 830 -2133 826 -2140 -2 -5 -102 -8 -221 -8 -298 0 -281 -13 -382 284 l-65 191 -414 0 -413 0 -69 -200 c-41 -116 -79 -209 -92 -223 -46 -49 -62 -52 -291 -52 -118 0 -217 3 -219 8 -4 7 809 2114 826 2140 12 17 502 18 514 0z m2348 -188 l0 -195 -302 -3 -303 -2 -2 -878 -3 -877 -245 0 -245 0 -3 877 -2 878 -303 2 -302 3 -3 185 c-1 101 0 190 2 197 4 11 170 13 858 11 l853 -3 0 -195z m3775 -255 l5 -450 442 -3 443 -2 2 452 3 453 245 0 245 0 0 -1075 0 -1075 -245 0 -245 0 -3 453 -2 452 -443 -2 -442 -3 -5 -450 -5 -450 -245 0 -245 0 -3 1065 c-1 586 0 1071 3 1078 3 10 58 12 247 10 l243 -3 5 -450z m4501 427 c23 -13 43 -37 52 -60 17 -42 317 -1186 343 -1306 17 -81 26 -84 38 -14 4 21 97 326 206 680 180 579 203 645 232 675 42 43 80 53 208 53 123 0 175 -18 208 -71 17 -28 405 -1268 427 -1363 3 -15 8 -26 10 -24 3 2 12 40 21 84 28 137 324 1257 341 1292 9 18 33 42 52 55 34 21 49 22 255 25 120 2 222 0 226 -5 5 -6 -618 -2048 -653 -2135 -6 -16 -26 -18 -231 -18 -124 0 -227 4 -230 8 -6 10 -413 1347 -429 1407 -5 22 -13 43 -16 47 -4 5 -109 -322 -233 -725 l-226 -732 -226 -3 -226 -2 -11 22 c-23 52 -658 2122 -652 2130 3 5 111 8 241 6 l237 -3 36 -23z m3199 -2977 c222 -33 376 -82 585 -186 187 -93 304 -177 461 -334 199 -199 341 -429 429 -700 128 -391 128 -872 -2 -1265 -45 -139 -157 -362 -240 -480 -99 -140 -303 -340 -437 -429 -340 -226 -682 -324 -1126 -324 -360 0 -636 61 -921 204 -528 264 -878 761 -964 1370 -19 134 -22 422 -5 554 69 552 350 1017 788 1303 109 71 323 172 447 212 148 47 306 77 495 94 87 8 386 -4 490 -19z m-14175 -43 c61 -28 107 -72 129 -120 24 -57 531 -1995 571 -2187 20 -93 37 -170 39 -172 1 -2 11 36 21 83 25 119 25 120 374 1244 196 630 323 1021 339 1049 35 57 107 107 178 121 88 18 398 9 449 -13 49 -22 110 -80 135 -128 10 -20 159 -490 331 -1045 366 -1185 355 -1149 370 -1225 6 -32 14 -59 18 -59 3 0 19 64 34 143 35 179 553 2149 578 2198 22 44 69 85 129 113 43 20 64 21 409 24 200 2 368 -1 372 -5 5 -5 -245 -830 -555 -1833 l-564 -1825 -380 -3 c-355 -2 -382 -1 -390 15 -10 18 -699 2280 -734 2408 -11 39 -22 77 -25 85 -2 8 -20 -37 -38 -100 -59 -208 -736 -2395 -744 -2403 -4 -4 -178 -6 -386 -5 l-380 3 -562 1820 c-309 1001 -560 1826 -558 1833 4 11 82 12 397 10 l393 -3 50 -23z m7210 -297 l0 -320 -750 -5 -750 -5 -3 -427 -2 -428 577 -2 578 -3 0 -310 0 -310 -575 -5 -575 -5 0 -435 0 -435 750 -5 750 -5 0 -320 0 -320 -1175 0 -1175 0 -3 1820 c-1 1001 0 1826 3 1833 3 10 244 12 1177 10 l1173 -3 0 -320z m3275 301 c628 -91 975 -364 1065 -839 23 -120 20 -344 -6 -470 -68 -333 -288 -605 -613 -757 -47 -23 -86 -42 -86 -44 0 -2 26 -19 58 -39 58 -36 144 -115 187 -171 60 -80 804 -1311 796 -1319 -5 -5 -197 -7 -427 -5 l-419 3 -57 23 c-31 13 -74 40 -96 61 -26 26 -139 213 -352 587 -172 302 -329 568 -347 592 -61 75 -94 86 -275 90 l-158 4 -2 -679 -3 -678 -420 0 -420 0 -3 1820 c-1 1001 0 1826 3 1833 8 22 1417 11 1575 -12z m6610 -1471 l5 -1490 675 -5 675 -5 0 -335 0 -335 -1095 0 -1095 0 -3 1820 c-1 1001 0 1826 3 1833 3 10 92 12 417 10 l413 -3 5 -1490z m2648 -2 l2 -1493 678 -2 677 -3 0 -335 0 -335 -1100 0 -1100 0 -3 1820 c-1 1001 0 1826 3 1833 3 10 93 12 422 10 l418 -3 3 -1492z"/>
<path d="M27501 31464 c-124 -17 -264 -62 -340 -109 -63 -38 -173 -146 -218 -215 -72 -107 -119 -237 -147 -400 -25 -150 -39 -434 -32 -655 14 -460 91 -709 268 -871 65 -59 128 -94 229 -128 132 -44 243 -58 522 -63 455 -9 660 26 817 142 l49 36 104 -76 c57 -41 108 -75 113 -75 10 1 227 296 232 316 2 6 -48 48 -111 93 -63 44 -120 87 -126 95 -10 12 -9 31 3 93 34 172 41 269 41 633 0 387 -7 474 -50 646 -34 136 -84 225 -174 315 -42 41 -101 89 -131 107 -71 40 -211 86 -325 108 -127 23 -579 29 -724 8z m579 -430 c256 -48 321 -150 339 -529 9 -172 0 -592 -12 -612 -5 -8 -68 34 -194 130 -102 78 -187 142 -189 142 -2 0 -55 -71 -118 -159 l-115 -159 187 -135 c272 -196 255 -182 241 -198 -35 -43 -272 -64 -499 -45 -310 26 -394 89 -447 334 -15 70 -18 133 -18 427 1 388 11 481 66 601 75 162 205 216 520 218 104 1 185 -4 239 -15z"/>
<path d="M25912 30218 l3 -1183 240 0 240 0 3 1183 2 1182 -245 0 -245 0 2 -1182z"/>
<path d="M17510 30715 l0 -485 388 0 c411 1 482 7 608 51 168 59 244 189 244 414 0 236 -71 406 -194 463 -81 38 -133 42 -596 42 l-450 0 0 -485z"/>
<path d="M20498 29829 c-188 -24 -288 -112 -304 -266 -23 -221 122 -332 431 -333 210 0 358 30 426 87 56 47 74 97 74 203 0 120 -19 174 -81 228 -71 63 -194 92 -379 91 -55 -1 -130 -5 -167 -10z"/>
<path d="M24091 30525 c-131 -30 -234 -103 -278 -196 -24 -51 -50 -145 -55 -199 l-3 -35 468 -3 467 -2 0 67 c0 37 -7 93 -16 125 -30 104 -130 190 -274 232 -79 24 -230 29 -309 11z"/>
<path d="M17392 24869 c-128 -11 -321 -49 -429 -86 l-82 -28 296 -360 c162 -198 299 -360 304 -360 7 0 569 769 569 779 0 9 -235 47 -345 56 -135 11 -167 11 -313 -1z"/>
<path d="M17779 24395 l-292 -405 -19 17 c-10 9 -152 179 -315 378 l-296 362 -61 -24 c-294 -120 -613 -364 -807 -618 -362 -473 -503 -1098 -369 -1630 82 -325 287 -696 584 -1052 l82 -98 64 5 c142 11 505 3 617 -13 324 -47 656 -155 923 -300 154 -84 347 -214 464 -313 21 -19 43 -31 47 -28 17 10 691 956 762 1069 151 243 268 494 322 695 48 180 59 263 59 460 0 198 -13 298 -60 485 -141 558 -547 1049 -1069 1296 -106 50 -295 119 -325 119 -13 0 -110 -126 -311 -405z m-78 -941 c139 -41 266 -144 327 -264 193 -385 -116 -828 -538 -772 -214 29 -392 183 -445 387 -19 74 -19 203 0 274 47 180 207 339 381 380 65 15 215 13 275 -5z"/>
<path d="M17453 23425 c-256 -58 -431 -319 -380 -566 22 -109 61 -183 137 -259 101 -101 213 -150 345 -150 318 0 559 308 480 613 -67 257 -329 420 -582 362z"/>
<path d="M12625 22914 c-181 -24 -391 -82 -540 -148 -54 -25 -58 -28 -40 -39 11 -6 191 -100 400 -208 357 -186 380 -197 388 -177 5 14 11 18 18 11 6 -6 6 -19 0 -37 l-11 -26 -77 39 c-43 21 -231 118 -418 215 -228 119 -346 175 -360 172 -32 -8 -177 -95 -277 -166 -111 -79 -286 -245 -374 -354 -292 -365 -445 -792 -445 -1246 0 -249 28 -421 107 -651 94 -276 222 -479 438 -694 159 -159 327 -290 569 -443 l97 -63 88 31 c114 41 252 75 382 96 145 23 448 23 594 0 233 -37 471 -114 653 -212 l82 -44 6 47 c13 91 56 283 86 384 132 444 393 869 735 1194 l94 90 11 85 c17 128 14 397 -5 522 -91 594 -498 1143 -1056 1423 -205 103 -425 170 -649 199 -117 15 -124 15 -137 -1 l-13 -18 -6 18 c-6 15 -21 17 -124 16 -64 -1 -161 -7 -216 -15z m349 -45 c-3 -5 -10 -7 -15 -3 -5 3 -7 10 -3 15 3 5 10 7 15 3 5 -3 7 -10 3 -15z m-9 -49 c-5 -8 -11 -8 -17 -2 -6 6 -7 16 -3 22 5 8 11 8 17 2 6 -6 7 -16 3 -22z m-11 -41 c-3 -5 -10 -7 -15 -3 -5 3 -7 10 -3 15 3 5 10 7 15 3 5 -3 7 -10 3 -15z m-10 -40 c-3 -5 -10 -7 -15 -3 -5 3 -7 10 -3 15 3 5 10 7 15 3 5 -3 7 -10 3 -15z m-10 -50 c-3 -5 -10 -7 -15 -3 -5 3 -7 10 -3 15 3 5 10 7 15 3 5 -3 7 -10 3 -15z m-10 -40 c-3 -5 -10 -7 -15 -3 -5 3 -7 10 -3 15 3 5 10 7 15 3 5 -3 7 -10 3 -15z m-10 -50 c-3 -5 -10 -7 -15 -3 -5 3 -7 10 -3 15 3 5 10 7 15 3 5 -3 7 -10 3 -15z m-10 -40 c-3 -5 -10 -7 -15 -3 -5 3 -7 10 -3 15 3 5 10 7 15 3 5 -3 7 -10 3 -15z m-9 -49 c-5 -8 -11 -8 -17 -2 -6 6 -7 16 -3 22 5 8 11 8 17 2 6 -6 7 -16 3 -22z m-11 -41 c-3 -5 -10 -7 -15 -3 -5 3 -7 10 -3 15 3 5 10 7 15 3 5 -3 7 -10 3 -15z m-9 -49 c-5 -8 -11 -8 -17 -2 -6 6 -7 16 -3 22 5 8 11 8 17 2 6 -6 7 -16 3 -22z m-11 -41 c-3 -5 -10 -7 -15 -3 -5 3 -7 10 -3 15 3 5 10 7 15 3 5 -3 7 -10 3 -15z m137 -875 c175 -52 311 -188 363 -363 10 -33 16 -92 16 -146 0 -240 -135 -427 -365 -507 -86 -30 -236 -29 -325 1 -313 109 -454 445 -309 739 66 134 163 219 309 269 81 28 228 31 311 7z"/>
<path d="M12765 21480 c-111 -23 -198 -73 -275 -156 -181 -199 -171 -495 24 -682 158 -152 374 -184 569 -86 28 15 81 57 118 93 170 171 195 416 61 619 -105 159 -315 249 -497 212z"/>
<path d="M16461 19380 c-232 -49 -410 -189 -510 -400 -48 -100 -64 -193 -58 -323 8 -188 66 -317 201 -453 198 -198 450 -257 719 -168 216 72 405 285 452 509 43 204 -8 418 -136 578 -134 167 -311 256 -519 263 -58 2 -125 -1 -149 -6z"/>
<path d="M20685 18959 c-307 -45 -534 -321 -512 -623 14 -186 123 -369 278 -466 221 -137 512 -111 706 65 233 210 263 557 69 803 -128 162 -344 250 -541 221z"/>
<path d="M9180 18609 c-323 -41 -635 -174 -880 -375 -100 -81 -234 -220 -225 -234 4 -7 -1 -13 -13 -17 -43 -11 -199 -260 -266 -424 -142 -345 -167 -743 -70 -1099 82 -301 225 -545 453 -770 190 -188 373 -303 606 -379 219 -72 430 -101 734 -101 183 0 2131 76 2138 84 2 2 -21 86 -52 187 l-57 184 -98 93 c-208 195 -369 439 -483 727 -128 327 -164 714 -100 1094 l18 104 -39 71 c-94 173 -222 337 -352 451 -252 220 -580 364 -924 404 -101 12 -299 12 -390 0z m354 -740 c-3 -5 -10 -7 -15 -3 -5 3 -7 10 -3 15 3 5 10 7 15 3 5 -3 7 -10 3 -15z m7 -522 c161 -77 259 -235 259 -418 0 -402 -486 -604 -779 -324 -248 236 -151 658 177 766 45 15 79 18 162 16 97 -3 111 -6 181 -40z"/>
<path d="M9243 17345 c-147 -40 -257 -142 -303 -281 -31 -92 -26 -214 13 -298 97 -210 328 -307 540 -226 181 69 296 264 266 453 -28 177 -162 319 -337 356 -68 14 -114 13 -179 -4z"/>
<path d="M12710 17764 c-98 -26 -161 -63 -240 -143 -151 -152 -196 -343 -126 -536 77 -213 265 -345 492 -345 169 0 322 78 420 215 154 217 124 504 -73 687 -123 114 -316 164 -473 122z"/>
<path d="M24440 12314 c-100 -21 -203 -77 -274 -148 -133 -133 -195 -333 -183 -585 6 -119 36 -251 76 -329 126 -247 414 -362 715 -286 186 47 328 187 391 385 71 224 50 495 -52 691 -44 85 -147 184 -235 227 -118 58 -294 76 -438 45z"/>
<path d="M15390 12244 c0 -8 -61 -196 -136 -417 -75 -221 -139 -412 -141 -424 l-5 -23 296 0 295 0 -115 338 c-64 185 -130 383 -147 439 -29 94 -47 127 -47 87z"/>
<path d="M28983 9030 c-328 -46 -581 -218 -723 -491 -205 -394 -197 -1004 18 -1380 157 -273 407 -424 760 -459 334 -34 652 73 849 284 80 85 116 138 168 249 89 187 127 378 127 632 0 383 -96 670 -295 881 -180 191 -398 281 -697 289 -80 2 -173 0 -207 -5z"/>
<path d="M25060 8519 l0 -551 248 5 c274 5 342 16 463 78 86 43 181 139 219 221 103 225 68 492 -85 637 -128 121 -300 161 -691 161 l-154 0 0 -551z"/>
</g>
</g>
  <g id="id4:id4" transform="matrix(1.25,0,0,1.25,0.0,0.0)"><g transform="translate(0.000000,2999.200000) scale(0.080000,-0.080000)" fill="#ffffff" stroke="none">
<path d="M25967 32149 c-206 -22 -367 -94 -487 -219 -99 -103 -165 -244 -190 -408 -7 -44 -10 -505 -8 -1352 l3 -1285 32 -95 c81 -238 249 -379 516 -434 67 -14 245 -16 1535 -16 1600 0 1533 -2 1702 59 212 78 347 230 412 466 l23 80 3 1230 c3 1239 1 1349 -33 1480 -44 171 -175 336 -325 408 -98 47 -203 75 -326 87 -121 12 -2745 11 -2857 -1z m2213 -695 c148 -21 210 -39 329 -96 216 -104 322 -268 371 -580 7 -40 14 -225 17 -411 5 -342 -3 -514 -32 -681 -8 -45 -16 -92 -17 -105 -3 -21 16 -38 121 -115 69 -50 124 -95 123 -101 -1 -8 -222 -315 -227 -315 0 0 -50 35 -109 79 l-109 78 -45 -34 c-145 -110 -322 -145 -742 -145 -333 0 -485 19 -645 81 -236 91 -365 291 -422 653 -25 160 -25 747 0 919 34 228 86 369 185 500 174 228 422 306 937 292 88 -2 207 -11 265 -19z m-1795 -1234 l0 -1175 -230 0 -230 0 -3 1165 c-1 641 0 1171 3 1178 3 10 55 12 232 10 l228 -3 0 -1175z"/>
<path d="M27655 31050 c-282 -44 -378 -173 -405 -543 -22 -306 -9 -607 32 -760 54 -203 166 -270 477 -286 257 -13 445 9 475 57 3 6 -86 77 -202 161 -115 82 -214 156 -219 163 -8 10 14 48 94 158 57 80 108 148 112 153 4 4 90 -56 191 -133 101 -77 187 -140 191 -140 4 0 10 8 15 18 13 30 17 614 4 725 -39 334 -151 424 -540 432 -91 2 -192 0 -225 -5z"/>
<path d="M17170 30245 l0 -1245 170 0 170 0 2 468 3 467 475 6 c430 6 484 9 569 27 258 57 423 209 485 447 62 234 36 553 -60 753 -67 139 -201 245 -359 286 -124 31 -232 36 -842 36 l-613 0 0 -1245z m1187 946 c116 -8 141 -13 196 -39 96 -44 144 -120 172 -268 19 -95 19 -293 1 -359 -27 -104 -80 -171 -166 -215 -130 -65 -285 -82 -730 -78 l-315 3 -3 470 c-1 259 0 476 3 483 5 14 624 17 842 3z"/>
<path d="M19315 31478 c-3 -7 -4 -566 -3 -1243 l3 -1230 173 -3 172 -2 0 1245 0 1245 -170 0 c-127 0 -172 -3 -175 -12z"/>
<path d="M20538 30809 c-174 -25 -315 -88 -418 -185 -93 -88 -132 -172 -154 -331 l-6 -43 155 0 155 0 6 28 c38 175 122 240 339 262 243 25 426 -55 483 -211 35 -94 58 -348 33 -363 -4 -3 -17 4 -27 15 -27 30 -98 63 -179 85 -58 15 -108 19 -285 19 -194 0 -223 -2 -300 -23 -163 -44 -282 -118 -350 -217 -16 -23 -41 -78 -56 -121 -23 -67 -27 -97 -28 -199 -1 -101 3 -131 22 -187 59 -170 190 -282 399 -340 69 -20 102 -22 283 -22 274 0 359 21 473 116 52 44 55 42 59 -37 l3 -50 163 -3 c89 -1 162 0 162 2 0 3 -7 31 -15 63 -12 47 -15 145 -15 558 0 275 -5 543 -10 595 -12 113 -40 222 -77 293 -34 68 -143 175 -218 214 -142 74 -404 110 -597 82z m345 -994 c127 -27 202 -84 227 -174 5 -20 10 -74 10 -122 0 -147 -52 -216 -192 -256 -34 -9 -120 -17 -235 -20 -256 -8 -332 9 -428 98 -55 51 -70 101 -63 214 10 160 86 232 278 265 80 14 330 11 403 -5z"/>
<path d="M22310 30808 c-96 -12 -238 -59 -311 -104 -83 -50 -170 -148 -218 -246 -79 -160 -107 -339 -98 -628 8 -262 40 -421 114 -563 42 -80 136 -173 215 -211 117 -57 300 -82 538 -73 258 9 378 53 498 182 103 110 140 203 157 398 l7 77 -154 0 -155 0 -7 -64 c-9 -87 -31 -146 -72 -195 -78 -90 -176 -118 -384 -108 -142 7 -207 22 -273 60 -39 23 -52 40 -81 100 -57 119 -79 249 -79 467 0 366 57 506 242 594 l66 31 160 0 c142 0 168 -3 228 -24 38 -13 84 -36 101 -52 43 -37 84 -131 92 -208 l7 -61 155 0 155 0 -6 88 c-21 288 -146 442 -414 512 -144 37 -326 48 -483 28z"/>
<path d="M24102 30809 c-191 -18 -351 -81 -455 -178 -156 -147 -227 -377 -227 -740 0 -461 105 -702 362 -831 123 -61 200 -75 433 -75 234 0 311 13 444 77 99 47 189 132 239 226 33 61 72 193 72 242 l0 26 -122 13 c-68 6 -137 14 -154 17 l-32 6 -11 -53 c-26 -118 -111 -214 -219 -245 -73 -21 -361 -15 -437 9 -136 44 -227 213 -237 437 l-3 85 628 3 627 2 0 148 c0 343 -79 565 -247 692 -119 91 -219 125 -407 140 -124 11 -136 11 -254 -1z m269 -293 c120 -26 229 -96 272 -174 27 -50 55 -196 43 -227 -5 -13 -67 -15 -460 -15 -275 0 -457 4 -461 9 -9 16 22 147 51 211 42 93 138 166 259 196 68 17 216 17 296 0z"/>
<path d="M17235 27734 c-432 -65 -785 -286 -1021 -640 -142 -214 -219 -457 -231 -730 -12 -292 68 -557 257 -844 82 -125 138 -197 379 -489 110 -135 199 -247 196 -249 -2 -2 -47 -23 -99 -47 -205 -92 -389 -219 -565 -390 -187 -182 -302 -339 -411 -560 -142 -288 -210 -577 -210 -893 0 -171 12 -273 51 -430 81 -330 268 -672 573 -1047 35 -44 61 -83 57 -87 -3 -4 -45 -15 -91 -23 -446 -83 -842 -261 -1212 -545 -14 -11 -28 -17 -31 -13 -2 4 0 64 6 133 27 320 -39 654 -187 955 -110 225 -228 387 -412 565 -324 314 -722 503 -1173 559 -47 6 -89 15 -94 20 -6 6 53 287 153 733 177 789 204 932 222 1175 31 424 -65 790 -293 1124 -284 414 -710 685 -1219 775 -128 23 -432 25 -555 5 -771 -126 -1365 -688 -1525 -1442 -96 -456 -1 -968 250 -1345 158 -239 402 -452 745 -654 50 -29 320 -172 600 -317 281 -146 516 -271 523 -278 11 -9 -5 -23 -82 -69 -137 -81 -245 -165 -370 -286 -184 -178 -302 -340 -413 -565 -324 -661 -269 -1440 145 -2025 139 -197 410 -441 712 -640 69 -45 126 -83 128 -85 2 -2 -42 -27 -98 -55 -329 -170 -631 -450 -818 -762 -86 -144 -166 -321 -202 -451 -7 -26 -16 -50 -20 -52 -4 -3 -28 30 -52 73 -164 281 -413 510 -708 651 -197 94 -428 155 -633 168 -54 3 -99 9 -102 12 -2 4 -51 272 -109 597 -58 324 -119 644 -136 711 -87 359 -215 629 -394 831 -240 272 -564 453 -951 529 -68 13 -138 18 -290 17 -178 0 -214 -3 -326 -27 -511 -108 -921 -419 -1158 -877 -298 -577 -233 -1275 165 -1787 284 -364 637 -548 1214 -633 40 -6 179 -20 308 -30 128 -11 237 -22 243 -25 5 -3 -19 -47 -52 -97 -297 -441 -375 -1003 -209 -1512 94 -290 237 -516 464 -733 315 -302 651 -434 1178 -463 148 -8 332 -3 1267 35 602 25 1095 46 1097 48 2 1 -21 79 -50 172 -29 94 -51 173 -49 177 2 5 30 -9 61 -31 164 -111 387 -215 652 -304 205 -69 270 -88 267 -77 -1 4 482 336 1074 737 l1075 729 140 -131 c77 -71 197 -179 268 -239 l129 -109 1676 268 c922 148 1692 269 1712 269 l36 1 54 118 c30 64 63 123 74 130 17 12 206 -41 1460 -405 792 -229 1445 -416 1450 -414 13 6 259 210 360 300 113 101 303 286 327 318 l19 28 -41 117 c-301 855 -304 1786 -9 2638 28 83 62 174 75 204 13 29 24 60 24 68 0 20 -205 223 -305 303 -95 75 -232 167 -333 222 -40 22 -72 44 -70 48 2 5 156 124 343 266 381 287 477 368 615 510 214 221 333 432 397 703 37 157 43 419 15 587 -39 225 -134 455 -265 641 -77 109 -247 279 -354 356 -166 118 -384 213 -591 258 -154 32 -394 37 -551 10 -495 -84 -910 -389 -1131 -830 -53 -107 -115 -290 -135 -406 -22 -119 -22 -331 -1 -460 39 -238 88 -383 322 -953 96 -234 172 -432 170 -439 -3 -8 -22 -13 -45 -13 -69 0 -253 -29 -377 -60 -406 -99 -758 -293 -1059 -582 l-114 -109 -14 23 c-8 13 -43 72 -78 131 -94 159 -234 341 -375 487 -68 70 -124 130 -124 134 0 3 143 205 318 448 432 601 503 710 616 943 142 293 202 519 213 800 17 443 -124 892 -394 1258 -95 128 -320 352 -438 436 -180 126 -380 230 -555 286 -30 9 -61 23 -68 30 -11 10 21 60 174 271 103 142 218 306 255 364 139 219 231 439 265 630 20 117 14 374 -11 490 -62 285 -188 514 -395 720 -204 205 -420 324 -709 392 -65 15 -130 21 -266 23 -99 2 -193 1 -210 -1z m452 -53 c555 -113 975 -534 1095 -1094 29 -136 31 -383 5 -504 -39 -181 -125 -381 -249 -578 -61 -96 -411 -587 -451 -632 -16 -18 -24 -20 -50 -12 -76 23 -272 50 -397 56 -218 9 -457 -22 -672 -87 -53 -17 -101 -30 -107 -30 -13 0 -440 519 -526 641 -251 354 -346 651 -315 986 17 192 58 337 137 498 212 427 616 716 1085 775 111 14 328 4 445 -19z m-5742 -941 c560 -120 1018 -477 1259 -980 110 -230 145 -379 153 -656 6 -207 -4 -341 -42 -564 -25 -148 -329 -1511 -345 -1547 l-10 -23 -118 0 c-255 0 -550 -63 -785 -169 -38 -17 -72 -31 -77 -31 -13 0 -1111 574 -1195 625 -412 250 -645 480 -800 790 -74 148 -124 293 -157 457 -20 98 -23 143 -23 338 0 195 3 240 23 338 49 244 164 511 299 702 78 108 226 267 328 350 241 197 549 334 864 385 134 22 496 13 626 -15z m5805 -1880 c141 -15 271 -41 276 -55 5 -13 -532 -765 -545 -765 -4 0 -137 158 -296 351 -244 298 -285 353 -274 365 28 27 325 93 484 107 88 8 265 6 355 -3z m480 -107 c720 -267 1213 -891 1300 -1648 44 -390 -41 -772 -262 -1170 -105 -190 -187 -312 -534 -794 l-337 -469 -84 69 c-381 311 -847 511 -1369 585 -129 18 -454 25 -585 11 l-75 -7 -90 112 c-329 410 -509 752 -584 1103 -27 127 -38 417 -21 561 81 685 492 1266 1106 1564 66 32 129 61 141 64 18 6 64 -46 328 -369 169 -206 311 -377 315 -379 4 -3 115 145 246 327 378 523 351 488 383 481 15 -4 70 -22 122 -41z m3568 -1053 c263 -29 509 -122 732 -278 100 -71 286 -263 359 -372 117 -177 201 -381 238 -583 26 -139 23 -419 -5 -554 -69 -324 -223 -577 -507 -835 -60 -54 -247 -203 -415 -330 -168 -128 -338 -257 -379 -289 l-74 -56 -103 43 c-259 108 -522 166 -822 180 -83 4 -146 12 -151 18 -11 14 -342 822 -388 946 -82 225 -133 480 -133 665 0 456 248 916 638 1183 303 208 657 300 1010 262z m-8852 -794 c6 -15 -113 -556 -124 -568 -6 -6 -202 94 -651 329 -142 75 -142 73 -11 123 230 87 433 127 653 129 102 1 129 -2 133 -13z m264 -12 c269 -44 541 -154 775 -312 290 -195 496 -430 655 -745 115 -229 166 -401 191 -647 11 -113 7 -334 -9 -450 l-8 -55 -108 -105 c-414 -401 -685 -908 -790 -1473 -12 -65 -25 -118 -29 -117 -4 0 -58 24 -120 54 -286 138 -577 205 -892 206 -247 0 -430 -28 -651 -102 l-124 -41 -77 48 c-323 197 -631 465 -787 684 -295 412 -407 958 -306 1485 80 413 312 822 625 1098 96 85 290 220 385 268 l57 29 423 -220 c233 -120 425 -218 426 -216 2 2 35 141 73 309 38 169 72 311 76 318 8 13 71 8 215 -16z m-5512 -1575 c279 -30 522 -120 762 -280 120 -80 316 -274 389 -384 117 -178 209 -401 276 -667 37 -150 248 -1305 240 -1318 -2 -4 -51 -10 -107 -13 -293 -17 -598 -121 -858 -295 -84 -56 -152 -113 -255 -214 l-140 -139 -250 21 c-391 32 -602 69 -812 141 -234 80 -396 182 -574 359 -236 235 -379 499 -450 830 -20 91 -23 135 -24 325 0 248 15 346 81 538 252 722 970 1179 1722 1096z m9056 -1959 c206 -52 380 -200 465 -395 75 -170 68 -413 -16 -578 -128 -254 -392 -405 -672 -383 -447 34 -747 488 -601 910 61 178 202 335 368 409 134 59 312 74 456 37z m4131 -415 c266 -56 465 -301 465 -575 0 -241 -163 -468 -396 -552 -83 -30 -246 -36 -334 -13 -205 53 -372 219 -424 421 -20 78 -21 212 -1 289 27 107 72 184 155 267 146 147 336 205 535 163z m-11508 -347 c14 -18 133 -691 124 -701 -7 -7 -1380 98 -1409 108 -33 12 156 193 318 307 106 74 314 177 439 218 83 26 242 61 336 73 75 10 183 7 192 -5z m342 -18 c478 -97 871 -381 1105 -799 l57 -101 -15 -73 c-59 -291 -44 -663 39 -951 101 -349 274 -638 529 -888 l110 -108 53 -172 c34 -113 49 -176 43 -182 -14 -14 -2041 -97 -2210 -90 -379 15 -618 67 -850 184 -181 92 -367 238 -496 392 -502 599 -549 1431 -115 2075 l66 98 40 2 c22 2 360 -24 750 -56 391 -32 713 -55 716 -52 4 3 -22 167 -58 365 -35 197 -62 365 -58 374 5 13 20 14 100 9 51 -4 139 -16 194 -27z m3252 -826 c199 -59 342 -221 371 -423 41 -280 -156 -543 -437 -583 -307 -43 -584 198 -585 507 0 233 156 438 380 501 65 18 206 17 271 -2z"/>
<path d="M17310 26715 c-71 -20 -155 -77 -200 -138 -54 -70 -75 -137 -75 -232 0 -68 5 -90 32 -146 43 -92 91 -142 181 -186 68 -34 83 -38 156 -38 94 0 159 20 230 72 203 147 203 452 1 605 -90 68 -217 93 -325 63z m258 -60 c61 -33 120 -94 154 -157 20 -37 23 -57 23 -148 0 -98 -2 -109 -30 -158 -113 -206 -382 -246 -546 -83 -77 78 -102 145 -97 261 5 95 24 144 84 210 75 83 146 111 269 107 77 -2 98 -7 143 -32z"/>
<path d="M11474 25495 c-34 -7 -88 -26 -120 -42 -71 -34 -169 -129 -206 -199 -171 -320 59 -704 421 -704 139 0 247 47 345 149 115 121 160 284 121 436 -48 186 -188 321 -374 361 -80 17 -107 16 -187 -1z m225 -44 c122 -38 219 -123 274 -239 30 -64 32 -73 32 -187 l0 -120 -34 -70 c-87 -178 -282 -280 -472 -247 -354 61 -496 485 -250 745 115 121 291 167 450 118z"/>
<path d="M17430 23464 c-398 -105 -542 -583 -265 -882 106 -115 236 -172 388 -172 153 0 278 51 382 155 103 103 156 229 156 375 0 154 -42 257 -149 371 -130 139 -334 200 -512 153z m249 -49 c140 -37 254 -131 316 -259 118 -245 14 -536 -232 -654 -71 -33 -87 -37 -179 -40 -75 -3 -117 0 -160 13 -297 85 -442 426 -296 699 35 65 133 164 198 198 104 56 243 73 353 43z"/>
<path d="M21533 22630 c-114 -37 -221 -142 -260 -252 -25 -75 -24 -205 4 -276 131 -329 584 -350 740 -34 l38 76 0 101 0 101 -38 76 c-44 90 -102 147 -195 191 -85 40 -198 47 -289 17z m264 -42 c65 -24 150 -99 185 -165 82 -151 50 -335 -79 -453 -72 -66 -144 -93 -249 -93 -70 0 -91 4 -147 30 -84 40 -136 88 -178 165 l-34 63 0 110 c0 101 2 114 28 163 39 75 87 124 157 161 101 54 206 60 317 19z"/>
<path d="M12728 21514 c-127 -30 -253 -120 -324 -231 -19 -28 -45 -87 -60 -130 -23 -69 -26 -89 -22 -178 5 -114 28 -189 83 -272 101 -152 244 -232 426 -241 169 -8 303 48 419 174 194 211 186 532 -19 734 -137 136 -321 189 -503 144z m247 -49 c170 -45 306 -180 351 -350 16 -59 18 -172 3 -234 -37 -163 -169 -303 -331 -352 -56 -17 -87 -20 -166 -17 -118 6 -188 30 -275 96 -232 177 -253 532 -42 736 48 48 146 103 214 122 64 17 176 17 246 -1z"/>
<path d="M7411 20150 c-304 -64 -455 -422 -282 -673 171 -249 517 -264 707 -30 87 106 116 265 75 401 -38 127 -140 233 -269 282 -61 23 -169 33 -231 20z m214 -47 c105 -37 207 -132 247 -231 18 -46 22 -77 23 -157 0 -92 -3 -105 -31 -165 -40 -82 -87 -136 -155 -177 -213 -127 -476 -48 -586 175 -26 52 -28 67 -28 167 0 103 2 114 32 177 87 185 307 278 498 211z"/>
<path d="M9221 17384 c-80 -21 -149 -62 -211 -125 -289 -293 -83 -789 329 -789 233 0 420 159 462 392 41 228 -114 462 -346 523 -73 19 -163 18 -234 -1z m293 -72 c127 -59 212 -170 238 -310 33 -176 -71 -371 -239 -450 -52 -24 -69 -27 -173 -27 l-115 0 -67 34 c-208 104 -293 353 -192 560 50 101 164 194 271 221 21 5 77 8 125 6 71 -3 98 -9 152 -34z"/>
<path d="M25365 19230 c-223 -24 -365 -101 -510 -275 -337 -407 -555 -836 -684 -1350 -42 -169 -54 -278 -48 -430 9 -219 60 -342 194 -464 446 -404 1003 -699 1628 -861 349 -91 602 -92 793 -5 73 34 121 74 209 174 349 398 596 878 723 1404 53 220 62 353 35 512 -34 196 -98 303 -258 438 -308 259 -620 449 -996 607 -277 116 -677 232 -868 250 -117 11 -115 11 -218 0z m115 -360 c79 -33 149 -65 156 -71 10 -8 -1 -29 -48 -92 -151 -204 -364 -543 -523 -832 -85 -155 -301 -584 -379 -753 -21 -45 -41 -84 -45 -86 -8 -5 -191 144 -230 187 l-24 27 43 112 c180 465 388 891 563 1153 107 160 314 415 336 415 5 0 73 -27 151 -60z m965 -417 c270 -76 614 -311 752 -513 91 -135 117 -232 110 -410 -8 -194 -59 -348 -213 -650 -87 -169 -170 -289 -287 -415 l-84 -90 33 -85 c18 -47 33 -88 34 -93 0 -4 -15 -16 -32 -27 -41 -25 -231 -100 -253 -100 -11 0 -27 24 -47 68 l-31 67 -121 1 c-91 1 -141 6 -200 22 -175 48 -514 200 -652 292 -102 69 -212 180 -257 261 -52 93 -70 180 -64 309 11 202 80 382 290 750 212 371 414 564 654 625 81 20 275 14 368 -12z"/>
<path d="M26240 18087 c-95 -27 -220 -138 -314 -281 -119 -179 -272 -472 -316 -606 -82 -243 -8 -366 326 -542 163 -86 334 -135 334 -97 0 7 -43 102 -95 212 -53 111 -94 206 -92 212 7 16 319 157 327 148 4 -4 40 -89 80 -188 39 -99 75 -184 79 -188 29 -31 304 456 367 648 39 120 41 237 5 305 -32 61 -132 163 -211 215 -205 136 -379 193 -490 162z"/>
<path d="M19005 16586 c106 -236 145 -311 162 -314 27 -5 1985 -571 2007 -580 16 -7 47 15 158 107 76 63 137 115 136 117 -2 1 -541 157 -1198 348 -657 190 -1216 352 -1241 359 l-47 14 23 -51z"/>
<path d="M13950 15794 c-514 -349 -955 -648 -980 -666 l-45 -31 174 -46 175 -47 221 151 c121 82 487 330 813 550 l591 400 1 163 c0 89 -3 162 -7 161 -5 0 -429 -286 -943 -635z"/>
<path d="M17075 16130 c-781 -126 -1428 -230 -1438 -232 -12 -2 36 -48 154 -147 l171 -143 1186 189 c703 113 1192 187 1198 181 8 -5 20 11 37 49 14 32 55 120 91 196 60 127 64 137 43 136 -12 -1 -661 -104 -1442 -229z"/>
<path d="M19323 15899 c41 -96 580 -1255 587 -1262 4 -5 37 15 73 45 248 202 936 774 936 778 1 3 -356 108 -792 234 -435 126 -798 231 -805 234 -11 4 -10 -2 1 -29z"/>
<path d="M14258 15348 c-351 -237 -637 -433 -635 -434 1 -1 184 -50 407 -109 223 -59 412 -113 421 -121 8 -8 31 -14 50 -14 19 0 114 -21 212 -46 97 -26 180 -45 182 -42 3 3 4 273 3 601 l-3 597 -637 -432z"/>
<path d="M18170 15629 c-14 -5 -437 -74 -940 -154 -503 -80 -919 -146 -923 -148 -4 -1 222 -196 504 -432 613 -516 743 -624 745 -622 1 1 142 301 314 667 172 366 317 673 322 683 5 9 7 17 6 16 -2 -1 -14 -5 -28 -10z"/>
<path d="M18370 12810 c-207 -79 -220 -97 -155 -214 94 -168 85 -359 -25 -520 -41 -60 -45 -72 -34 -100 6 -16 163 -116 182 -116 5 0 50 42 99 93 148 155 213 309 213 503 0 124 -23 221 -79 333 -23 44 -42 81 -44 80 -1 0 -72 -27 -157 -59z"/>
<path d="M19443 12735 c-172 -31 -287 -88 -399 -200 -134 -133 -187 -264 -186 -455 2 -180 50 -309 158 -416 82 -82 211 -145 439 -214 202 -62 263 -90 315 -146 46 -50 59 -110 42 -193 -22 -104 -100 -163 -233 -177 -127 -13 -249 24 -408 123 -57 36 -87 48 -125 51 -74 6 -102 -19 -196 -168 l-79 -125 17 -19 c35 -39 143 -108 243 -155 483 -229 1010 -108 1194 274 46 96 65 172 72 292 7 126 -7 203 -54 302 -76 160 -212 250 -534 356 -201 66 -284 103 -329 150 -95 99 -35 275 109 315 48 13 196 13 246 -1 22 -6 95 -38 163 -72 l122 -60 38 11 c52 16 70 37 148 181 l67 125 -39 32 c-182 153 -531 236 -791 189z"/>
<path d="M24470 12744 c-14 -2 -59 -9 -100 -15 -172 -26 -369 -113 -510 -227 -193 -155 -321 -369 -377 -633 -24 -113 -23 -341 0 -462 84 -421 374 -731 787 -841 254 -68 557 -50 795 49 410 169 655 551 655 1020 0 312 -96 564 -294 772 -179 188 -403 299 -676 332 -80 10 -226 13 -280 5z m295 -439 c206 -52 357 -213 410 -435 23 -96 30 -271 16 -370 -53 -357 -262 -550 -596 -550 -241 0 -434 110 -527 300 -62 129 -72 182 -73 385 0 203 10 254 72 385 66 137 205 249 356 286 75 18 270 17 342 -1z"/>
<path d="M10267 12723 c-4 -3 -7 -96 -7 -205 l0 -198 303 -2 302 -3 3 -882 2 -883 255 0 255 0 2 883 3 882 303 3 302 2 -2 203 -3 202 -856 3 c-470 1 -859 -1 -862 -5z"/>
<path d="M12240 11640 l0 -1090 255 0 255 0 2 453 3 452 430 0 430 0 3 -452 2 -453 260 0 260 0 -2 1088 -3 1087 -255 0 -255 0 -5 -450 -5 -450 -430 0 -430 0 -5 450 -5 450 -252 3 -253 2 0 -1090z"/>
<path d="M15142 12718 c-5 -7 -195 -492 -422 -1078 -227 -586 -414 -1071 -417 -1077 -4 -10 43 -13 217 -13 316 0 305 -8 401 278 l66 197 413 0 413 0 63 -188 c35 -105 74 -204 88 -222 46 -60 69 -65 316 -65 174 0 221 3 217 13 -14 37 -830 2144 -834 2155 -4 9 -65 12 -258 12 -190 0 -255 -3 -263 -12z m408 -914 c76 -219 135 -402 133 -406 -2 -5 -128 -8 -279 -8 -210 0 -276 3 -279 13 -5 12 26 108 260 795 3 8 10 12 17 10 6 -2 73 -184 148 -404z"/>
<path d="M16290 12525 l0 -205 303 -2 302 -3 3 -882 2 -883 255 0 255 0 2 883 3 882 303 3 302 2 -2 203 -3 202 -862 3 -863 2 0 -205z"/>
<path d="M21275 12718 c-3 -7 -4 -497 -3 -1088 l3 -1075 257 -3 258 -2 2 452 3 453 430 0 430 0 3 -453 2 -452 258 2 257 3 0 1085 0 1085 -255 0 -255 0 -5 -450 -5 -450 -430 0 -430 0 -5 450 -5 450 -253 3 c-197 2 -254 0 -257 -10z"/>
<path d="M25757 12723 c-3 -4 134 -458 304 -1008 170 -550 321 -1037 334 -1083 l26 -82 232 2 232 3 215 700 c119 385 219 709 224 720 7 18 9 18 19 4 7 -9 109 -334 226 -723 l214 -706 232 0 231 0 332 1078 c183 592 333 1083 332 1090 0 9 -45 12 -192 12 -258 -1 -299 -10 -349 -81 -16 -21 -312 -1123 -342 -1271 -7 -32 -16 -59 -22 -59 -5 -1 -20 30 -31 67 -12 38 -103 332 -202 654 -100 321 -190 596 -200 610 -34 45 -79 68 -149 76 -81 8 -195 -2 -231 -20 -64 -33 -68 -44 -254 -638 -98 -315 -191 -616 -206 -668 -16 -52 -32 -94 -37 -93 -4 1 -34 105 -66 230 -169 669 -290 1108 -312 1131 -46 51 -75 56 -323 60 -128 2 -234 0 -237 -5z"/>
<path d="M28905 9733 c-384 -47 -705 -175 -980 -388 -307 -239 -542 -613 -635 -1012 -66 -280 -67 -626 -4 -912 100 -448 345 -825 705 -1084 110 -79 356 -204 484 -246 241 -78 451 -106 748 -98 340 8 554 60 842 202 163 81 279 159 405 274 526 477 726 1292 493 2016 -41 129 -131 322 -198 426 -292 454 -774 748 -1345 818 -78 10 -446 13 -515 4z m547 -736 c190 -50 379 -172 487 -313 64 -85 153 -264 181 -364 83 -301 76 -680 -17 -958 -159 -477 -572 -718 -1118 -651 -488 60 -791 398 -856 952 -16 137 -6 412 20 537 83 408 315 686 656 785 125 37 196 44 375 41 148 -3 190 -7 272 -29z"/>
<path d="M14454 9683 c7 -22 1055 -3420 1097 -3555 l31 -98 388 0 389 0 40 128 c83 267 685 2220 700 2273 9 31 21 57 26 59 18 3 -31 159 454 -1440 l307 -1015 390 -3 390 -2 566 1832 566 1833 -367 3 c-229 2 -379 -1 -401 -7 -53 -15 -124 -66 -153 -109 -20 -29 -84 -258 -282 -1012 -142 -536 -272 -1042 -291 -1124 -32 -144 -48 -186 -58 -155 -3 8 -16 55 -29 104 -13 50 -56 189 -94 310 -39 121 -182 583 -318 1027 -274 892 -265 868 -369 933 l-49 30 -231 0 -231 0 -46 -27 c-60 -35 -112 -94 -132 -149 -9 -24 -138 -438 -287 -919 -149 -481 -289 -931 -312 -1000 -22 -69 -52 -174 -67 -233 -15 -59 -31 -108 -36 -108 -6 0 -26 73 -46 163 -49 219 -546 2103 -566 2145 -8 19 -34 49 -55 68 -75 63 -87 65 -530 65 -376 0 -399 -1 -394 -17z"/>
<path d="M20160 7865 l0 -1835 1185 0 1185 0 -2 328 -3 327 -750 5 -750 5 0 425 0 425 573 3 572 2 0 320 0 320 -572 2 -573 3 0 420 0 420 750 5 750 5 3 328 2 327 -1185 0 -1185 0 0 -1835z"/>
<path d="M24200 7865 l0 -1835 430 0 430 0 2 673 3 672 145 3 c167 3 205 -6 262 -66 21 -21 173 -276 353 -592 178 -311 333 -572 354 -593 20 -21 61 -50 91 -65 l55 -27 443 -3 c243 -1 442 0 442 2 0 3 -181 301 -402 663 -355 581 -410 666 -473 729 -38 39 -93 86 -120 103 -28 17 -50 33 -50 36 0 2 46 26 101 54 412 206 629 578 611 1045 -20 520 -312 842 -889 981 -209 50 -304 55 -1075 55 l-713 0 0 -1835z m1445 1171 c256 -58 395 -229 395 -486 -1 -237 -94 -407 -272 -494 -130 -63 -173 -70 -453 -71 l-250 0 -3 525 c-1 289 0 531 3 539 8 20 481 9 580 -13z"/>
<path d="M31550 7865 l0 -1835 1110 0 1110 0 -2 343 -3 342 -675 5 -675 5 -3 1488 -2 1487 -430 0 -430 0 0 -1835z"/>
<path d="M34190 7865 l0 -1835 1110 0 1110 0 0 345 0 345 -677 2 -678 3 -3 1488 -2 1487 -430 0 -430 0 0 -1835z"/>
</g>
</g>
</svg>
