<?xml version="1.0" standalone="no"?>
<!DOCTYPE svg PUBLIC "-//W3C//DTD SVG 1.1//EN"
 "http://www.w3.org/Graphics/SVG/1.1/DTD/svg11.dtd">
<!-- Created with svg_stack (http://github.com/astraw/svg_stack) -->
<svg xmlns:sodipodi="http://sodipodi.sourceforge.net/DTD/sodipodi-0.dtd" xmlns="http://www.w3.org/2000/svg" version="1.1" width="307.0" height="170.0">
  <defs/>
  <g id="id0:id0" transform="matrix(1.25,0,0,1.25,0.0,0.0)"><g transform="translate(0.000000,136.000000) scale(0.040000,-0.040000)" fill="#ffffff" stroke="none">
<path d="M0 1700 l0 -1700 3070 0 3070 0 0 1700 0 1700 -3070 0 -3070 0 0 -1700z m2715 1440 c3 -6 -1 -13 -10 -16 -26 -10 -110 -10 -115 1 -9 19 114 33 125 15z m466 -6 c5 -3 7 -10 3 -16 -4 -6 -29 -7 -68 -3 -69 8 -79 12 -70 27 7 11 116 4 135 -8z m-666 -14 c8 -13 -42 -32 -74 -28 -35 4 -33 21 4 29 46 10 63 10 70 -1z m790 0 c33 -13 23 -32 -13 -24 -46 10 -53 14 -47 24 8 13 27 13 60 0z m-910 -20 c9 -14 -40 -34 -62 -26 l-18 7 19 15 c23 16 52 18 61 4z m1030 -3 c11 -9 14 -16 7 -21 -15 -9 -65 12 -57 24 9 14 28 13 50 -3z m-1120 -16 c7 -12 -30 -33 -53 -30 -9 1 -28 -2 -42 -8 -14 -6 -68 -24 -120 -41 -221 -72 -306 -112 -322 -150 -23 -58 -67 -283 -101 -517 -15 -103 -14 -589 1 -675 19 -112 29 -154 45 -200 9 -25 17 -51 17 -58 0 -7 9 -31 19 -53 11 -22 23 -54 26 -71 8 -34 93 -213 125 -263 11 -16 24 -40 29 -52 5 -11 15 -24 21 -28 6 -4 15 -17 21 -28 5 -12 24 -41 42 -64 17 -22 51 -65 73 -95 63 -80 266 -269 377 -350 15 -11 25 -24 22 -29 -3 -4 -27 7 -53 26 -26 19 -63 46 -82 58 -77 53 -352 342 -396 418 -6 10 -18 27 -27 37 -10 10 -17 21 -17 25 0 3 -14 26 -30 51 -17 24 -48 82 -70 128 -23 45 -47 94 -54 108 -14 27 -53 135 -67 188 -5 17 -14 49 -20 70 -6 20 -14 57 -19 82 -5 25 -16 83 -25 130 -13 70 -15 131 -11 345 2 143 9 287 14 320 26 155 33 193 42 240 6 28 15 73 20 100 5 28 14 68 19 90 5 22 12 55 16 72 4 18 13 37 19 42 13 11 215 94 277 114 128 41 191 58 196 53 3 -3 15 1 27 9 23 17 52 19 61 6z m1204 -5 c7 -8 8 -16 4 -19 -13 -8 -55 12 -48 23 9 14 31 12 44 -4z m-299 -25 c111 -15 190 -28 235 -40 22 -5 58 -14 80 -19 22 -6 65 -17 95 -27 30 -9 73 -22 95 -28 22 -6 45 -14 50 -18 6 -3 21 -10 35 -14 45 -13 145 -62 156 -76 7 -8 14 -32 17 -54 3 -22 10 -62 16 -90 27 -139 42 -237 63 -395 15 -112 15 -496 0 -585 -6 -38 -14 -90 -18 -115 -3 -25 -10 -49 -15 -54 -5 -6 -9 -23 -9 -38 0 -16 -4 -36 -9 -46 -5 -9 -15 -37 -22 -62 -7 -25 -16 -49 -21 -54 -4 -6 -8 -16 -8 -23 0 -7 -13 -42 -30 -78 -16 -36 -30 -71 -31 -78 0 -6 -9 -25 -19 -42 -10 -16 -37 -61 -60 -100 -22 -38 -54 -88 -71 -110 -16 -22 -37 -51 -46 -65 -9 -14 -40 -50 -67 -81 -28 -31 -64 -72 -81 -91 -27 -30 -154 -143 -249 -221 -19 -15 -37 -23 -40 -18 -3 5 10 22 30 38 63 49 224 206 224 218 0 6 25 35 55 65 30 30 55 59 55 64 0 5 10 20 22 33 12 13 18 26 15 30 -8 8 -57 -36 -57 -51 0 -19 -273 -284 -315 -305 -23 -12 -68 -42 -100 -68 -109 -87 -137 -108 -213 -159 l-76 -50 -46 29 c-25 16 -57 38 -72 48 -15 11 -31 19 -36 19 -4 0 -21 14 -37 30 -16 17 -34 30 -40 30 -6 0 -24 14 -41 31 -31 33 -73 58 -107 65 -21 3 -258 239 -322 319 -35 44 -96 147 -131 225 -66 143 -73 159 -104 270 -7 25 -16 56 -20 70 -9 29 -23 89 -41 175 -16 80 -17 589 -1 668 7 31 17 83 23 115 13 67 20 77 68 98 20 8 50 22 66 29 17 8 41 16 55 20 52 12 106 28 125 35 11 5 34 11 50 15 17 3 48 10 70 15 76 17 220 39 289 44 38 3 72 8 77 13 15 15 448 -9 589 -32 159 -27 507 -126 529 -152 11 -11 43 -173 58 -288 10 -74 8 -563 -2 -625 -4 -25 -11 -49 -16 -54 -5 -6 -9 -20 -9 -33 0 -41 -72 -247 -126 -360 -14 -29 -25 -56 -25 -60 0 -4 -8 -17 -18 -28 -43 -47 -52 -97 -11 -60 11 10 18 20 15 23 -2 3 6 17 19 32 26 32 128 235 150 301 48 142 64 225 78 404 21 266 14 502 -22 730 -26 169 -55 313 -65 323 -21 22 -149 80 -191 88 -22 3 -46 12 -54 19 -8 7 -22 13 -30 13 -8 1 -40 8 -70 17 -292 88 -679 104 -1055 45 -88 -13 -246 -51 -305 -72 -8 -3 -45 -15 -81 -27 -141 -45 -189 -82 -189 -144 0 -17 -4 -44 -9 -61 -12 -38 -47 -260 -61 -382 -13 -119 -13 -571 1 -648 30 -173 37 -197 82 -316 34 -91 65 -155 109 -228 21 -34 38 -66 38 -71 0 -4 9 -16 20 -26 11 -10 20 -22 20 -28 0 -5 12 -24 28 -42 15 -19 43 -55 62 -82 19 -26 93 -107 163 -179 71 -73 125 -134 120 -137 -6 -4 -27 12 -48 33 -22 22 -44 40 -50 40 -19 0 -262 259 -305 325 -8 12 -30 44 -47 69 -36 51 -76 121 -118 206 -15 30 -35 72 -46 93 -10 22 -19 43 -19 48 0 5 -9 28 -19 52 -19 41 -69 236 -90 347 -29 155 -16 616 22 790 3 14 10 50 16 80 6 30 18 91 27 135 9 44 20 98 23 119 5 31 11 41 31 46 14 4 49 19 79 34 30 14 62 26 71 26 9 0 20 4 26 8 5 5 29 14 54 21 25 7 53 17 62 22 10 5 27 9 37 9 11 0 23 5 26 10 3 6 19 10 36 10 16 0 37 4 47 9 9 5 49 14 87 21 39 6 90 15 115 20 141 29 550 34 730 11z m387 7 c15 -6 33 -10 39 -9 6 0 17 -5 23 -13 17 -20 -5 -32 -26 -14 -9 7 -24 12 -34 10 -23 -4 -61 16 -54 29 8 12 18 11 52 -3z m125 -37 c13 -5 50 -19 83 -31 33 -12 80 -32 105 -43 25 -11 61 -26 80 -33 27 -9 37 -20 48 -53 15 -45 9 -82 -9 -64 -6 6 -14 26 -18 44 -4 22 -16 38 -36 49 -32 18 -186 80 -197 80 -20 0 -98 41 -93 50 8 12 8 12 37 1z m-594 -177 c12 -2 27 -15 33 -28 16 -34 -2 -61 -56 -81 -35 -14 -44 -22 -42 -39 2 -16 -4 -22 -27 -24 -35 -4 -56 12 -38 30 15 15 16 115 0 124 -8 5 -6 11 6 20 16 11 63 10 124 -2z m-332 -5 c11 -18 -6 -27 -36 -19 -21 6 -32 4 -40 -5 -16 -19 -3 -37 20 -30 25 8 46 -28 26 -44 -7 -6 -20 -9 -29 -5 -23 8 -31 -15 -12 -36 20 -22 13 -27 -40 -31 -35 -4 -40 -2 -36 16 7 41 2 117 -9 130 -7 8 -9 19 -5 24 7 13 153 13 161 0z m-252 -40 l-28 -29 34 -35 c19 -19 40 -35 46 -35 22 0 28 -23 9 -37 -28 -20 -59 -16 -85 12 -28 30 -44 32 -35 6 9 -28 -46 -57 -76 -40 -16 8 -18 14 -10 22 15 15 14 92 -1 118 -11 17 -10 22 7 35 12 9 32 13 50 10 17 -3 46 -2 65 3 49 11 56 3 24 -30z m749 14 c8 -10 23 -43 32 -75 9 -31 23 -62 31 -68 11 -10 12 -16 3 -26 -20 -24 -58 -16 -89 18 l-30 32 -23 -22 c-26 -25 -38 -27 -54 -11 -8 8 -4 21 14 48 13 20 33 55 44 79 21 46 45 54 72 25z m171 -8 c11 -8 35 -15 55 -15 57 0 92 -50 56 -80 -15 -13 -11 -64 8 -88 15 -19 -5 -34 -39 -30 -26 3 -30 8 -34 43 -6 46 -33 56 -38 15 -5 -38 -15 -42 -55 -25 l-36 15 25 38 c21 30 25 45 21 84 -5 62 1 70 37 43z m-1181 -43 c9 -8 17 -20 17 -27 0 -6 18 -28 40 -50 43 -42 41 -59 -8 -68 -19 -4 -35 2 -55 19 -33 28 -58 19 -54 -19 2 -17 -3 -22 -23 -22 -17 0 -24 5 -21 15 10 40 23 108 25 131 2 14 6 31 10 38 9 14 43 6 69 -17z m1787 -33 c0 -10 -4 -21 -10 -24 -14 -9 -34 40 -26 62 l7 18 15 -19 c8 -11 14 -28 14 -37z m-335 0 c5 -6 5 -13 -3 -21 -17 -17 -15 -28 7 -28 10 0 21 7 25 15 7 19 40 19 56 0 10 -12 8 -16 -15 -25 -14 -5 -31 -10 -36 -10 -12 0 -2 -43 22 -94 11 -23 15 -44 10 -49 -12 -12 -71 19 -71 38 0 20 -20 29 -33 16 -15 -15 -49 -14 -70 2 -16 11 -15 16 8 61 14 27 25 61 25 76 0 15 3 30 7 34 9 8 54 -1 68 -15z m-925 -35 c0 -17 -24 -29 -40 -19 -8 5 -6 13 6 26 18 20 34 17 34 -7z m-782 -19 c4 -40 33 -95 51 -95 7 0 20 8 27 18 10 13 15 14 24 5 7 -6 9 -16 5 -22 -9 -16 -84 -50 -115 -53 -22 -3 -25 1 -26 32 -1 20 -13 55 -28 79 -32 51 -23 74 28 69 26 -3 31 -8 34 -33z m2062 -46 c0 -10 -4 -21 -10 -24 -14 -9 -34 40 -26 62 l7 18 15 -19 c8 -11 14 -28 14 -37z m18 -129 c-2 -19 -7 -34 -13 -33 -13 3 -27 72 -20 93 11 26 36 -20 33 -60z m15 -111 c1 -24 -2 -46 -8 -49 -13 -6 -30 73 -21 96 11 28 27 2 29 -47z m24 -156 c4 -40 2 -63 -6 -67 -15 -10 -31 35 -31 88 0 84 29 68 37 -21z m11 -261 c-4 -132 -22 -135 -26 -5 -3 103 2 133 19 116 6 -6 9 -53 7 -111z m-8 -203 c0 -46 -16 -83 -32 -73 -10 6 -4 97 8 116 11 18 24 -5 24 -43z m-20 -138 c0 -29 -21 -57 -33 -44 -10 9 -9 27 3 58 12 32 30 24 30 -14z m-20 -91 c0 -5 -5 -21 -12 -37 -6 -15 -10 -34 -9 -40 1 -7 -4 -23 -11 -35 -6 -13 -12 -27 -13 -33 -2 -30 -18 -75 -30 -85 -8 -6 -12 -17 -9 -24 5 -14 -76 -190 -125 -271 -17 -27 -35 -59 -41 -70 -5 -11 -23 -38 -39 -60 -17 -22 -38 -51 -47 -65 -31 -44 -107 -119 -116 -114 -5 3 10 28 34 54 58 66 98 116 98 124 0 3 16 29 35 56 19 27 35 54 35 59 0 5 7 14 15 21 8 7 13 16 10 20 -3 5 -1 11 4 14 10 6 117 224 126 256 19 69 27 90 34 94 5 3 6 16 4 29 -3 13 2 29 11 36 8 7 13 18 10 25 -7 18 14 68 26 61 5 -3 10 -10 10 -15z m-516 -931 c-26 -26 -52 -46 -57 -42 -5 3 13 27 39 54 26 26 52 46 57 42 5 -3 -13 -27 -39 -54z m-145 -125 c-23 -24 -46 -41 -52 -37 -5 3 10 25 34 49 23 24 46 41 52 37 5 -3 -10 -25 -34 -49z m-905 -76 c-3 -5 -14 -2 -25 8 -10 9 -16 21 -13 26 3 5 14 2 25 -8 10 -9 16 -21 13 -26z m805 -4 c-12 -13 -26 -21 -31 -18 -5 4 0 17 13 30 12 13 26 21 31 18 5 -4 0 -17 -13 -30z m-130 -10 c-6 -7 -15 -11 -21 -8 -5 3 -4 12 3 20 6 7 15 11 21 8 5 -3 4 -12 -3 -20z m60 -40 c-6 -7 -15 -11 -21 -8 -5 3 -4 12 3 20 6 7 15 11 21 8 5 -3 4 -12 -3 -20z m-735 -26 c-3 -5 -12 -4 -20 3 -7 6 -11 15 -8 21 3 5 12 4 20 -3 7 -6 11 -15 8 -21z m675 -14 c-6 -7 -15 -11 -21 -8 -5 3 -4 12 3 20 6 7 15 11 21 8 5 -3 4 -12 -3 -20z m-615 -26 c-3 -5 -12 -4 -20 3 -7 6 -11 15 -8 21 3 5 12 4 20 -3 7 -6 11 -15 8 -21z m40 -19 c-3 -5 -10 -7 -15 -3 -5 3 -7 10 -3 15 3 5 10 7 15 3 5 -3 7 -10 3 -15z m470 -20 c-3 -5 -10 -7 -15 -3 -5 3 -7 10 -3 15 3 5 10 7 15 3 5 -3 7 -10 3 -15z m-420 -10 c-3 -5 -10 -7 -15 -3 -5 3 -7 10 -3 15 3 5 10 7 15 3 5 -3 7 -10 3 -15z"/>
<path d="M2840 2530 c0 -5 5 -10 10 -10 6 0 10 5 10 10 0 6 -4 10 -10 10 -5 0 -10 -4 -10 -10z"/>
<path d="M2880 2511 c0 -13 29 -35 37 -28 7 8 -15 37 -28 37 -5 0 -9 -4 -9 -9z"/>
<path d="M2838 2475 c-5 -26 5 -41 21 -31 10 6 2 56 -9 56 -4 0 -10 -11 -12 -25z"/>
<path d="M2940 2470 c0 -5 5 -10 10 -10 6 0 10 5 10 10 0 6 -4 10 -10 10 -5 0 -10 -4 -10 -10z"/>
<path d="M2937 2434 c-7 -8 28 -79 44 -89 17 -11 23 3 9 20 -7 8 -9 15 -5 15 5 0 0 9 -11 21 -10 12 -18 24 -16 27 5 9 -13 14 -21 6z"/>
<path d="M2815 2412 c-16 -9 -36 -25 -43 -35 -11 -14 -17 -16 -28 -6 -11 9 -18 9 -26 1 -7 -7 -21 -12 -32 -12 -14 0 -28 -13 -41 -38 -13 -22 -27 -36 -38 -36 -9 1 -15 -2 -12 -6 3 -5 -6 -17 -20 -28 -14 -11 -25 -23 -25 -26 0 -12 42 -6 73 11 18 9 37 17 42 18 6 0 10 8 10 18 0 10 6 21 13 26 7 4 12 14 10 22 -2 10 9 15 37 17 28 2 49 12 71 33 l31 30 38 -21 c49 -28 59 -16 17 21 -38 34 -38 34 -77 11z"/>
<path d="M2833 2333 c-9 -19 -10 -30 -2 -40 19 -22 25 -15 26 27 2 46 -7 51 -24 13z"/>
<path d="M2920 2330 c0 -5 5 -10 10 -10 6 0 10 5 10 10 0 6 -4 10 -10 10 -5 0 -10 -4 -10 -10z"/>
<path d="M3000 2316 c0 -3 9 -21 20 -41 11 -19 20 -38 21 -43 9 -50 39 -76 78 -67 36 8 48 22 32 38 -7 7 -16 6 -29 -6 -20 -18 -34 -14 -26 8 3 7 -2 15 -12 19 -23 9 1 36 32 36 13 0 24 5 24 10 0 6 -13 10 -29 10 -17 0 -33 -4 -36 -10 -10 -17 -23 -11 -37 17 -11 23 -38 44 -38 29z"/>
<path d="M3336 2312 c-8 -13 30 -59 40 -50 4 4 1 15 -7 24 -8 10 -13 20 -11 23 6 10 -16 12 -22 3z"/>
<path d="M3219 2291 c-20 -18 -22 -22 -9 -30 20 -13 60 23 44 39 -8 8 -18 5 -35 -9z"/>
<path d="M2940 2290 c0 -5 5 -10 10 -10 6 0 10 5 10 10 0 6 -4 10 -10 10 -5 0 -10 -4 -10 -10z"/>
<path d="M3279 2296 c-1 -3 -2 -9 -3 -13 -1 -5 -4 -13 -8 -19 -4 -5 -3 -28 2 -49 8 -33 6 -43 -11 -61 -24 -25 -24 -36 -2 -32 21 4 30 -29 13 -46 -8 -8 -15 -6 -26 9 -13 17 -16 18 -30 3 -15 -15 -14 -18 5 -37 12 -12 19 -27 15 -33 -5 -7 -11 -6 -19 5 -7 10 -21 17 -32 17 -17 0 -20 -6 -19 -32 1 -29 5 -33 33 -36 18 -2 42 3 55 9 13 7 29 12 36 11 14 -3 16 24 2 33 -7 4 -6 14 2 28 6 12 11 38 9 58 -1 21 2 39 6 42 10 7 9 74 -1 98 -4 9 -6 22 -4 29 2 7 -3 15 -9 17 -7 3 -14 2 -14 -1z"/>
<path d="M2700 2270 c0 -5 5 -10 10 -10 6 0 10 5 10 10 0 6 -4 10 -10 10 -5 0 -10 -4 -10 -10z"/>
<path d="M3160 2270 c0 -5 5 -10 10 -10 6 0 10 5 10 10 0 6 -4 10 -10 10 -5 0 -10 -4 -10 -10z"/>
<path d="M2880 2250 c0 -5 5 -10 10 -10 6 0 10 5 10 10 0 6 -4 10 -10 10 -5 0 -10 -4 -10 -10z"/>
<path d="M2960 2251 c0 -13 29 -35 37 -28 7 8 -15 37 -28 37 -5 0 -9 -4 -9 -9z"/>
<path d="M2650 2225 c-7 -9 -10 -18 -7 -22 8 -7 37 15 37 28 0 14 -16 11 -30 -6z"/>
<path d="M2900 2160 c0 -33 4 -60 10 -60 6 0 10 27 10 60 0 33 -4 60 -10 60 -6 0 -10 -27 -10 -60z"/>
<path d="M3385 2201 c3 -10 -1 -24 -10 -31 -23 -19 -19 -50 6 -50 16 0 19 4 15 16 -4 10 1 25 10 35 14 15 14 21 4 34 -17 21 -33 19 -25 -4z"/>
<path d="M3000 2196 c0 -3 9 -21 19 -40 11 -19 18 -36 15 -38 -2 -3 5 -13 16 -23 33 -29 34 -10 3 46 -24 45 -53 74 -53 55z"/>
<path d="M2500 2170 c0 -5 5 -10 10 -10 6 0 10 5 10 10 0 6 -4 10 -10 10 -5 0 -10 -4 -10 -10z"/>
<path d="M2463 2142 c-13 -2 -23 -7 -23 -12 0 -12 50 -19 56 -8 9 14 -8 25 -33 20z"/>
<path d="M2412 2088 c-14 -14 -16 -48 -3 -48 5 0 11 8 15 18 3 9 9 23 12 30 7 15 -8 16 -24 0z"/>
<path d="M2874 2069 c-3 -6 -1 -16 5 -22 9 -9 14 -8 21 3 9 15 4 30 -10 30 -5 0 -12 -5 -16 -11z"/>
<path d="M3090 2065 c-7 -9 -10 -18 -7 -22 8 -7 37 15 37 28 0 14 -16 11 -30 -6z"/>
<path d="M2452 2048 c-14 -14 -16 -48 -3 -48 5 0 11 8 15 18 3 9 9 23 12 30 7 15 -8 16 -24 0z"/>
<path d="M2925 2034 c-22 -13 -47 -24 -56 -24 -9 0 -28 -9 -42 -20 -26 -21 -42 -14 -31 14 5 12 0 16 -20 16 -20 0 -26 -4 -24 -17 2 -13 -5 -19 -24 -21 -40 -5 -34 -22 7 -22 22 0 38 -6 41 -15 4 -8 12 -15 20 -15 17 0 36 -34 28 -54 -3 -9 6 -26 24 -43 26 -24 29 -31 21 -53 l-10 -25 -14 19 c-23 30 -38 9 -33 -48 6 -66 27 -110 56 -114 12 -2 27 -12 32 -22 l10 -19 40 20 c21 11 44 26 50 34 6 8 17 12 23 10 7 -2 26 14 42 36 17 22 41 53 54 70 13 16 20 33 16 37 -4 4 -17 -6 -28 -22 -46 -59 -97 -107 -108 -101 -7 5 2 18 25 37 20 16 36 35 36 42 0 7 11 23 25 36 14 13 23 26 20 28 -3 3 2 13 11 23 8 9 16 27 18 40 2 27 20 42 22 19 2 -35 5 -40 23 -40 11 0 23 5 26 10 4 7 16 5 33 -4 15 -8 35 -17 45 -20 9 -3 17 -15 17 -26 0 -11 4 -20 9 -20 19 0 22 21 8 44 -12 17 -13 26 -5 34 18 18 5 23 -30 13 -23 -7 -34 -6 -43 5 -8 10 -16 11 -29 4 -14 -8 -21 -4 -35 16 -11 17 -22 23 -35 19 -22 -7 -36 11 -16 22 8 4 16 19 18 33 3 21 -1 24 -30 26 -18 1 -41 8 -50 16 -15 12 -90 49 -95 47 -1 0 -20 -12 -42 -25z m0 -74 c14 -22 -53 -69 -76 -54 -14 8 9 44 34 54 30 12 35 12 42 0z m115 -15 c17 -18 21 -28 13 -36 -12 -12 -77 37 -67 52 9 16 30 10 54 -16z m-52 -88 c18 -14 15 -41 -8 -62 l-20 -18 -20 18 c-22 20 -25 37 -10 65 10 19 30 18 58 -3z m91 -49 c-8 -14 -14 -17 -22 -9 -7 7 -6 15 3 25 17 22 32 9 19 -16z m-105 -79 c-3 -5 -10 -7 -15 -3 -5 3 -7 10 -3 15 3 5 10 7 15 3 5 -3 7 -10 3 -15z m5 -95 c-6 -7 -15 -11 -21 -8 -5 3 -4 12 3 20 6 7 15 11 21 8 5 -3 4 -12 -3 -20z m-45 -25 c-3 -5 -10 -7 -15 -3 -5 3 -7 10 -3 15 3 5 10 7 15 3 5 -3 7 -10 3 -15z"/>
<path d="M3320 2030 c0 -5 14 -10 30 -10 17 0 30 5 30 10 0 6 -13 10 -30 10 -16 0 -30 -4 -30 -10z"/>
<path d="M2520 2010 c0 -5 5 -10 10 -10 6 0 10 5 10 10 0 6 -4 10 -10 10 -5 0 -10 -4 -10 -10z"/>
<path d="M2559 2015 c-1 -3 -2 -11 -3 -17 0 -7 -6 -13 -13 -13 -23 0 -26 -15 -8 -36 14 -14 29 -20 55 -18 19 2 44 -2 55 -8 32 -18 95 -27 95 -14 0 12 -55 43 -73 40 -6 -1 -29 6 -51 15 -29 13 -36 20 -27 29 6 6 11 15 11 19 0 9 -39 11 -41 3z"/>
<path d="M2480 1990 c0 -5 5 -10 10 -10 6 0 10 5 10 10 0 6 -4 10 -10 10 -5 0 -10 -4 -10 -10z"/>
<path d="M2483 1910 c0 -33 8 -38 27 -15 10 12 10 18 0 30 -19 23 -27 18 -27 -15z"/>
<path d="M3300 1910 c0 -5 5 -10 10 -10 6 0 10 5 10 10 0 6 -4 10 -10 10 -5 0 -10 -4 -10 -10z"/>
<path d="M2380 1852 c0 -4 19 -26 43 -49 44 -44 82 -59 107 -44 17 11 8 24 -18 26 -9 0 -24 5 -32 10 -8 5 -19 10 -25 10 -5 0 -10 6 -10 13 0 7 -13 19 -29 27 -33 17 -36 18 -36 7z"/>
<path d="M2457 1846 c-6 -15 1 -26 15 -26 4 0 8 9 8 20 0 23 -15 27 -23 6z"/>
<path d="M3140 1810 c0 -5 5 -10 10 -10 6 0 10 5 10 10 0 6 -4 10 -10 10 -5 0 -10 -4 -10 -10z"/>
<path d="M2240 1780 c0 -11 5 -20 10 -20 6 0 10 9 10 20 0 11 -4 20 -10 20 -5 0 -10 -9 -10 -20z"/>
<path d="M2760 1770 c0 -5 5 -10 10 -10 6 0 10 5 10 10 0 6 -4 10 -10 10 -5 0 -10 -4 -10 -10z"/>
<path d="M2340 1740 c0 -23 10 -26 28 -8 18 18 15 28 -8 28 -13 0 -20 -7 -20 -20z"/>
<path d="M2712 1748 c-7 -7 -12 -20 -12 -29 0 -10 -4 -21 -10 -24 -5 -3 -10 -17 -10 -31 0 -13 5 -24 10 -24 6 0 10 9 10 20 0 11 9 35 20 55 11 20 20 38 20 40 0 9 -16 5 -28 -7z"/>
<path d="M3200 1750 c0 -5 9 -10 20 -10 11 0 20 5 20 10 0 6 -9 10 -20 10 -11 0 -20 -4 -20 -10z"/>
<path d="M3317 1745 c-7 -16 8 -29 23 -20 10 6 2 35 -10 35 -4 0 -10 -7 -13 -15z"/>
<path d="M3256 1732 c-8 -13 30 -59 40 -50 4 4 1 15 -7 24 -8 10 -13 20 -11 23 6 10 -16 12 -22 3z"/>
<path d="M2217 1707 c-6 -17 3 -67 13 -67 10 0 19 50 13 67 -3 7 -9 13 -13 13 -4 0 -10 -6 -13 -13z"/>
<path d="M3155 1670 c-4 -6 -10 -8 -15 -5 -11 7 -23 -12 -15 -25 6 -10 74 19 75 33 0 11 -38 9 -45 -3z"/>
<path d="M3300 1651 c0 -13 29 -35 37 -28 7 8 -15 37 -28 37 -5 0 -9 -4 -9 -9z"/>
<path d="M2460 1630 c0 -5 9 -10 20 -10 11 0 20 5 20 10 0 6 -9 10 -20 10 -11 0 -20 -4 -20 -10z"/>
<path d="M3240 1630 c0 -5 5 -10 10 -10 6 0 10 5 10 10 0 6 -4 10 -10 10 -5 0 -10 -4 -10 -10z"/>
<path d="M2240 1610 c0 -5 5 -10 10 -10 6 0 10 5 10 10 0 6 -4 10 -10 10 -5 0 -10 -4 -10 -10z"/>
<path d="M2520 1610 c0 -5 5 -10 10 -10 6 0 10 5 10 10 0 6 -4 10 -10 10 -5 0 -10 -4 -10 -10z"/>
<path d="M2792 1595 c-7 -14 -12 -32 -12 -40 0 -18 17 -20 22 -3 3 8 19 12 41 10 22 -2 37 1 37 7 0 6 -9 11 -20 11 -11 0 -25 9 -32 20 -17 26 -22 25 -36 -5z"/>
<path d="M3280 1612 c0 -4 18 -26 40 -47 22 -21 40 -45 40 -52 0 -7 9 -13 20 -13 27 0 25 12 -5 40 -17 16 -23 30 -19 43 5 15 2 18 -14 13 -11 -4 -24 0 -32 9 -13 16 -30 20 -30 7z"/>
<path d="M3400 1590 c0 -5 5 -10 10 -10 6 0 10 5 10 10 0 6 -4 10 -10 10 -5 0 -10 -4 -10 -10z"/>
<path d="M2380 1570 c0 -5 5 -10 10 -10 6 0 10 5 10 10 0 6 -4 10 -10 10 -5 0 -10 -4 -10 -10z"/>
<path d="M2540 1560 c0 -11 5 -20 10 -20 6 0 10 9 10 20 0 11 -4 20 -10 20 -5 0 -10 -9 -10 -20z"/>
<path d="M2260 1530 c0 -16 5 -30 10 -30 6 0 10 14 10 30 0 17 -4 30 -10 30 -5 0 -10 -13 -10 -30z"/>
<path d="M3420 1550 c0 -5 5 -10 10 -10 6 0 10 5 10 10 0 6 -4 10 -10 10 -5 0 -10 -4 -10 -10z"/>
<path d="M2360 1520 c0 -11 5 -20 10 -20 6 0 10 9 10 20 0 11 -4 20 -10 20 -5 0 -10 -9 -10 -20z"/>
<path d="M2580 1530 c0 -5 11 -10 24 -10 29 0 49 -22 40 -44 -9 -25 9 -19 39 12 19 19 24 31 17 42 -8 13 -11 12 -23 -3 -12 -17 -14 -17 -26 -3 -15 17 -71 22 -71 6z"/>
<path d="M3440 1511 c0 -13 29 -35 37 -28 7 8 -15 37 -28 37 -5 0 -9 -4 -9 -9z"/>
<path d="M2280 1470 c0 -5 5 -10 10 -10 6 0 10 5 10 10 0 6 -4 10 -10 10 -5 0 -10 -4 -10 -10z"/>
<path d="M2410 1465 c-7 -9 -10 -18 -7 -22 8 -7 37 15 37 28 0 14 -16 11 -30 -6z"/>
<path d="M2552 1468 c-7 -7 -12 -24 -12 -38 0 -34 17 -50 52 -50 36 0 37 18 1 22 -36 4 -46 46 -14 55 12 3 21 9 21 14 0 13 -34 11 -48 -3z"/>
<path d="M2751 1443 c-14 -48 -14 -63 -1 -63 6 0 10 5 10 12 0 6 7 19 16 29 10 11 13 25 9 38 -10 32 -23 25 -34 -16z"/>
<path d="M3417 1445 c-7 -16 8 -29 23 -20 10 6 2 35 -10 35 -4 0 -10 -7 -13 -15z"/>
<path d="M3480 1450 c0 -5 5 -10 10 -10 6 0 10 5 10 10 0 6 -4 10 -10 10 -5 0 -10 -4 -10 -10z"/>
<path d="M2304 1428 c3 -7 9 -21 12 -30 7 -21 34 -24 52 -6 18 18 14 30 -7 23 -10 -3 -24 1 -31 10 -15 18 -34 20 -26 3z"/>
<path d="M2840 1410 c0 -5 18 -10 40 -10 22 0 40 5 40 10 0 6 -18 10 -40 10 -22 0 -40 -4 -40 -10z"/>
<path d="M3500 1410 c0 -5 5 -10 10 -10 6 0 10 5 10 10 0 6 -4 10 -10 10 -5 0 -10 -4 -10 -10z"/>
<path d="M2940 1393 c0 -3 8 -15 17 -25 9 -10 17 -28 18 -41 1 -12 8 -22 16 -22 22 0 17 37 -10 68 -24 26 -41 35 -41 20z"/>
<path d="M3480 1330 c0 -11 7 -20 15 -20 17 0 18 2 9 24 -9 23 -24 20 -24 -4z"/>
<path d="M3372 1327 c-9 -10 -9 -20 1 -40 6 -15 15 -27 18 -27 14 0 30 30 27 52 -4 26 -30 35 -46 15z"/>
<path d="M2998 1275 c-8 -8 3 -55 13 -55 5 0 9 9 9 20 0 11 0 23 1 27 1 10 -16 15 -23 8z"/>
<path d="M3320 1251 c0 -13 29 -35 37 -28 7 8 -15 37 -28 37 -5 0 -9 -4 -9 -9z"/>
<path d="M3417 1208 c-27 -37 -61 -118 -52 -126 8 -8 46 31 41 43 -2 6 2 19 10 29 7 11 11 22 9 26 -3 4 4 15 15 25 21 19 26 35 11 35 -6 0 -21 -15 -34 -32z"/>
<path d="M3265 1219 c-10 -15 3 -25 16 -12 7 7 7 13 1 17 -6 3 -14 1 -17 -5z"/>
<path d="M3040 1190 c0 -5 5 -10 10 -10 6 0 10 5 10 10 0 6 -4 10 -10 10 -5 0 -10 -4 -10 -10z"/>
<path d="M3320 1190 c0 -5 5 -10 10 -10 6 0 10 5 10 10 0 6 -4 10 -10 10 -5 0 -10 -4 -10 -10z"/>
<path d="M3216 1172 c-2 -4 0 -14 5 -22 8 -13 10 -13 18 0 10 15 6 30 -9 30 -5 0 -11 -4 -14 -8z"/>
<path d="M3300 1150 c0 -5 5 -10 10 -10 6 0 10 5 10 10 0 6 -4 10 -10 10 -5 0 -10 -4 -10 -10z"/>
<path d="M3120 1090 c0 -5 5 -10 10 -10 6 0 10 5 10 10 0 6 -4 10 -10 10 -5 0 -10 -4 -10 -10z"/>
<path d="M3460 1070 c0 -5 5 -10 10 -10 6 0 10 5 10 10 0 6 -4 10 -10 10 -5 0 -10 -4 -10 -10z"/>
<path d="M3120 1050 c0 -5 5 -10 10 -10 6 0 10 5 10 10 0 6 -4 10 -10 10 -5 0 -10 -4 -10 -10z"/>
<path d="M3205 1020 c-10 -11 -23 -20 -30 -20 -17 0 -55 -44 -55 -63 0 -9 5 -17 10 -17 6 0 10 7 10 15 0 9 8 18 18 22 20 7 82 63 82 75 0 14 -16 9 -35 -12z"/>
<path d="M3280 1030 c0 -5 5 -10 10 -10 6 0 10 5 10 10 0 6 -4 10 -10 10 -5 0 -10 -4 -10 -10z"/>
<path d="M3080 995 c-13 -14 -20 -28 -17 -32 8 -7 57 35 57 49 0 15 -16 8 -40 -17z"/>
<path d="M3320 990 c0 -5 23 -10 50 -10 28 0 50 5 50 10 0 6 -22 10 -50 10 -27 0 -50 -4 -50 -10z"/>
<path d="M2969 900 c-18 -22 -41 -40 -51 -40 -31 0 -24 -53 10 -67 50 -21 80 -21 98 -2 23 26 14 31 -24 17 -23 -9 -37 -9 -49 -2 -24 15 -16 29 15 26 15 -1 34 2 41 7 13 8 11 13 -8 28 l-23 18 21 19 c12 11 21 23 21 28 0 19 -21 6 -51 -32z"/>
<path d="M3100 890 c0 -5 5 -10 10 -10 6 0 10 5 10 10 0 6 -4 10 -10 10 -5 0 -10 -4 -10 -10z"/>
<path d="M3076 2812 c-7 -11 4 -52 14 -52 10 0 21 41 14 52 -3 4 -9 8 -14 8 -5 0 -11 -4 -14 -8z"/>
<path d="M3234 2749 c-10 -17 13 -36 27 -22 12 12 4 33 -11 33 -5 0 -12 -5 -16 -11z"/>
<path d="M3494 2749 c-10 -17 13 -36 27 -22 12 12 4 33 -11 33 -5 0 -12 -5 -16 -11z"/>
<path d="M2224 2699 c-10 -17 13 -36 27 -22 12 12 4 33 -11 33 -5 0 -12 -5 -16 -11z"/>
</g>
</g>
  <g id="id1:id1" transform="matrix(1.25,0,0,1.25,0.0,0.0)"><g transform="translate(0.000000,136.000000) scale(0.040000,-0.040000)" fill="#b4b5b7" stroke="none">
<path d="M2685 3160 c-3 -5 -44 -10 -90 -10 -46 0 -87 -4 -90 -10 -3 -5 -39 -10 -80 -10 -41 0 -77 -4 -80 -10 -3 -5 -17 -10 -30 -10 -30 0 -113 -19 -137 -31 -10 -5 -27 -9 -37 -9 -11 0 -23 -4 -26 -10 -3 -5 -19 -10 -35 -10 -16 0 -32 -4 -35 -10 -3 -5 -17 -10 -30 -10 -13 0 -27 -4 -30 -10 -3 -5 -13 -10 -21 -10 -8 0 -36 -10 -62 -21 -115 -52 -132 -59 -139 -59 -20 -1 -46 -32 -55 -67 -44 -173 -65 -317 -49 -337 10 -12 8 -17 -8 -26 -17 -9 -21 -20 -21 -65 0 -29 -4 -57 -10 -60 -5 -3 -10 -44 -10 -90 0 -46 -4 -87 -10 -90 -6 -4 -10 -83 -10 -205 l0 -199 21 -12 c15 -8 18 -14 10 -22 -23 -23 -10 -149 20 -209 5 -10 9 -31 9 -47 0 -17 5 -33 10 -36 6 -3 10 -17 10 -30 0 -13 5 -27 10 -30 6 -3 10 -24 10 -45 0 -21 4 -41 9 -44 5 -3 12 -18 16 -33 9 -39 111 -250 124 -258 6 -3 11 -15 11 -26 0 -10 4 -19 9 -19 7 0 71 -94 71 -105 0 -3 9 -15 21 -27 11 -13 42 -50 68 -83 67 -84 211 -235 224 -235 6 0 30 -19 52 -42 63 -65 178 -146 252 -178 12 -5 25 -15 30 -23 8 -13 148 -97 162 -97 4 0 32 -13 62 -30 78 -43 70 -44 239 39 36 17 71 31 78 31 6 0 12 5 12 11 0 5 15 16 33 24 17 7 58 34 91 59 32 25 63 46 70 46 16 1 51 32 65 58 6 12 18 22 25 22 40 0 321 274 365 355 9 17 32 51 52 75 57 73 100 145 164 280 20 41 40 83 45 92 6 10 10 26 10 36 0 10 4 22 8 28 5 5 14 29 21 54 7 25 17 54 21 65 9 22 19 62 27 115 3 19 9 40 12 45 4 6 9 44 10 85 1 41 7 80 12 87 14 17 14 470 0 506 -6 16 -11 43 -11 62 0 19 -4 37 -10 40 -5 3 -10 35 -10 70 0 35 -4 67 -10 70 -5 3 -10 30 -10 59 0 28 -4 56 -9 62 -5 5 -12 32 -14 59 -16 148 -44 224 -88 236 -24 6 -38 12 -141 58 -26 11 -54 21 -62 21 -8 0 -18 5 -21 10 -3 6 -15 10 -26 10 -10 0 -27 4 -37 9 -27 15 -155 51 -179 51 -12 0 -25 5 -28 10 -3 6 -23 10 -44 10 -20 0 -41 4 -47 9 -11 11 -88 21 -224 27 -58 3 -109 9 -115 15 -13 12 -382 12 -390 -1z m68 -57 c4 -3 2 -12 -4 -19 -23 -28 3 -34 141 -34 138 0 164 6 141 34 -17 21 -2 26 74 26 49 0 76 -4 84 -13 16 -20 3 -27 -50 -27 -56 0 -69 -14 -40 -43 16 -17 23 -19 33 -9 14 14 124 16 133 2 8 -13 82 -13 90 0 4 6 1 17 -5 25 -18 21 14 31 48 16 l26 -13 -23 -17 c-30 -23 -20 -41 24 -41 19 0 37 -4 40 -10 3 -5 21 -10 40 -10 19 0 37 -5 41 -11 3 -6 19 -9 35 -7 17 3 34 -1 40 -9 6 -7 22 -13 35 -13 12 0 26 -4 29 -10 3 -5 17 -10 30 -10 13 0 27 -5 31 -11 3 -6 15 -9 25 -6 10 3 21 1 24 -3 3 -5 31 -21 63 -36 82 -39 92 -50 92 -99 0 -22 5 -46 12 -53 6 -6 12 -30 12 -53 1 -41 21 -66 30 -37 15 50 16 51 32 37 10 -8 14 -26 13 -50 -2 -20 3 -44 10 -52 7 -9 11 -35 10 -61 -2 -26 2 -51 9 -58 13 -13 17 -110 5 -121 -3 -4 -12 -2 -19 4 -20 16 -34 2 -34 -36 0 -19 -4 -37 -10 -40 -5 -3 -10 -19 -10 -34 0 -34 -9 -44 -26 -30 -25 21 -34 -2 -34 -90 0 -92 -5 -108 -26 -90 -29 24 -34 -3 -34 -190 l0 -189 22 -14 c13 -9 18 -19 14 -27 -6 -9 -11 -9 -21 -1 -22 19 -35 2 -35 -45 0 -24 -4 -47 -10 -50 -5 -3 -10 -21 -10 -40 0 -19 -4 -37 -10 -40 -5 -3 -10 -17 -10 -30 0 -13 -5 -27 -11 -30 -6 -4 -9 -19 -7 -35 1 -15 -3 -35 -11 -44 -7 -8 -11 -22 -8 -30 3 -8 -1 -20 -9 -26 -8 -7 -14 -18 -14 -25 0 -7 -7 -18 -15 -25 -8 -6 -14 -15 -13 -18 1 -4 -4 -19 -10 -34 -12 -29 -26 -36 -37 -18 -8 13 -27 2 -22 -13 2 -7 9 -12 15 -12 13 0 14 -10 1 -43 -9 -24 -24 -29 -35 -11 -4 7 -10 7 -16 1 -12 -12 -1 -35 12 -27 19 11 18 -13 0 -30 -11 -10 -20 -23 -20 -30 0 -6 -14 -24 -30 -40 -35 -34 -54 -24 -55 28 0 46 -29 44 -33 -3 -1 -19 -4 -48 -5 -65 -4 -39 -43 -98 -106 -160 -28 -27 -51 -54 -51 -61 0 -6 -9 -19 -20 -29 -15 -14 -23 -15 -34 -6 -10 9 -16 9 -21 1 -5 -8 -13 -6 -26 6 -18 16 -20 16 -39 -1 -11 -10 -20 -26 -20 -37 0 -22 -17 -54 -49 -90 -24 -27 -53 -29 -30 -2 6 8 9 18 5 22 -9 9 -46 -39 -39 -51 8 -13 -28 -47 -72 -67 -22 -10 -51 -30 -64 -44 -30 -31 -71 -34 -96 -6 -10 11 -23 20 -30 20 -17 0 -78 67 -71 78 10 17 -12 24 -33 10 -17 -11 -24 -9 -47 12 -14 14 -30 35 -35 48 -7 17 -14 22 -28 17 -11 -3 -22 -1 -26 5 -3 6 -11 7 -17 4 -11 -7 69 -94 87 -94 6 0 24 -13 40 -30 16 -16 34 -30 40 -30 7 0 20 -9 30 -20 10 -11 23 -20 30 -20 6 0 22 -11 35 -25 12 -13 26 -22 31 -20 4 3 10 1 14 -5 3 -5 15 -10 25 -10 11 0 24 -9 30 -20 6 -11 15 -18 21 -14 6 4 6 11 -2 20 -10 12 -8 19 9 37 l22 21 26 -26 c15 -14 23 -31 20 -37 -10 -16 -97 -55 -128 -57 -35 -2 -56 20 -38 41 12 15 5 39 -10 30 -4 -3 -13 2 -20 9 -6 8 -24 18 -40 21 -16 3 -34 12 -40 20 -12 14 -40 10 -40 -6 0 -5 11 -11 25 -15 28 -7 50 -30 37 -38 -5 -3 -36 11 -68 30 -32 20 -77 44 -100 54 -22 11 -47 26 -54 35 -7 8 -18 15 -24 15 -18 0 -137 111 -130 121 3 6 21 -1 39 -15 19 -15 38 -26 43 -26 5 0 17 -9 27 -20 10 -11 24 -20 31 -20 7 0 18 -9 25 -21 8 -15 14 -18 22 -10 8 8 3 19 -18 41 -16 16 -34 30 -40 30 -16 0 -137 125 -128 133 4 4 26 -11 49 -34 37 -36 45 -40 59 -29 11 9 18 10 29 1 8 -7 16 -8 19 -4 3 4 -17 32 -43 61 -28 29 -52 48 -55 42 -7 -11 -69 54 -111 116 l-24 34 19 34 c18 31 18 36 4 55 -22 32 -58 24 -58 -11 -1 -37 -9 -42 -30 -18 -10 11 -23 20 -30 20 -13 0 -52 39 -42 41 4 1 11 2 16 3 22 3 21 17 -5 55 -21 32 -30 39 -40 30 -18 -15 -34 -3 -34 25 0 13 -9 31 -20 41 -11 10 -20 26 -20 36 0 9 -13 43 -30 74 -16 31 -30 65 -30 75 0 11 -5 22 -10 25 -6 4 -8 15 -5 24 3 10 -1 24 -10 31 -8 7 -15 27 -15 46 0 18 -4 36 -10 39 -5 3 -10 21 -10 39 0 17 -5 37 -12 44 -9 9 -9 15 0 24 20 20 15 83 -8 103 -15 14 -20 31 -20 70 0 63 7 71 36 44 29 -27 44 -17 44 31 0 48 -15 58 -44 31 -12 -12 -26 -18 -29 -14 -4 3 -7 93 -7 198 0 179 1 193 20 210 24 22 25 51 4 94 -24 47 -39 33 -42 -40 -2 -35 -7 -68 -13 -74 -5 -5 -9 -124 -9 -285 0 -272 7 -341 37 -371 6 -6 9 -27 6 -49 -3 -22 -1 -40 6 -44 6 -4 11 -22 11 -41 0 -19 5 -37 10 -40 6 -3 10 -17 10 -30 0 -13 5 -27 10 -30 6 -3 10 -15 10 -25 0 -11 9 -35 20 -55 11 -20 20 -41 20 -48 0 -18 89 -194 106 -207 8 -7 14 -18 14 -25 0 -6 9 -20 20 -30 11 -10 20 -23 20 -30 0 -6 16 -27 35 -45 38 -37 67 -85 57 -94 -7 -8 -52 34 -52 49 0 6 -18 29 -40 50 -22 21 -40 44 -40 50 0 7 -9 20 -20 30 -11 10 -20 24 -20 30 0 7 -7 18 -15 25 -8 7 -33 49 -55 95 -22 46 -47 88 -55 95 -8 7 -15 21 -15 31 0 10 -9 34 -20 54 -11 20 -20 44 -20 55 0 10 -4 22 -10 25 -5 3 -10 17 -10 30 0 13 -4 27 -10 30 -5 3 -10 17 -10 30 0 29 -16 41 -35 25 -10 -8 -15 -8 -21 1 -4 8 1 18 14 27 16 11 22 25 22 53 0 46 -17 59 -40 30 -14 -20 -18 -21 -29 -7 -7 8 -11 31 -10 50 2 20 -2 41 -9 48 -15 15 -16 60 -1 75 7 7 4 21 -10 47 -22 38 -28 101 -11 111 6 4 10 61 10 139 0 106 3 136 15 146 12 10 16 9 20 -4 3 -9 7 -23 10 -32 3 -9 11 -14 18 -12 8 3 13 31 15 83 3 83 -6 107 -32 85 -13 -10 -17 -9 -22 6 -3 11 -10 27 -15 36 -5 10 -9 31 -9 47 0 17 -5 33 -11 37 -20 12 -33 -16 -30 -66 2 -50 -12 -85 -30 -74 -5 3 -9 20 -9 38 0 17 -5 37 -11 43 -7 7 -3 15 14 26 19 12 23 22 19 49 -2 18 -9 38 -13 44 -6 8 -1 17 16 28 22 15 26 15 30 1 3 -8 7 -22 10 -31 10 -31 30 -7 33 38 2 26 9 52 17 58 9 8 12 22 8 43 -7 41 -19 53 -36 39 -8 -7 -17 -9 -20 -5 -13 12 -7 60 8 73 12 10 16 8 25 -15 13 -33 34 -28 38 9 4 36 -12 54 -32 36 -21 -17 -32 10 -16 40 11 20 13 21 30 5 25 -23 40 -11 40 30 0 28 6 36 32 49 17 9 37 16 44 16 7 0 29 9 49 20 20 11 44 20 55 20 10 0 22 5 25 10 3 6 17 10 30 10 13 0 27 5 30 10 3 6 17 10 30 10 13 0 27 5 30 10 3 6 17 10 30 10 13 0 27 5 30 10 3 6 21 10 39 10 19 0 39 6 45 14 8 10 23 13 47 9 20 -3 40 -1 49 7 9 7 39 13 68 14 39 1 52 5 52 16 0 20 -91 32 -107 13 -6 -7 -28 -13 -49 -13 -21 0 -41 -4 -44 -10 -8 -13 -42 -13 -50 0 -3 5 7 15 22 21 15 6 38 16 50 21 12 6 35 8 52 6 19 -3 36 1 42 9 12 13 110 19 122 6 4 -3 2 -12 -5 -20 -17 -21 1 -30 70 -35 43 -3 66 0 73 8 18 22 0 34 -50 34 -53 0 -66 7 -50 27 12 14 149 19 162 6z m538 -46 c-7 -7 -15 -6 -25 3 -22 17 -9 32 16 19 14 -8 17 -14 9 -22z m205 -21 c18 -14 18 -15 1 -21 -19 -8 -50 12 -41 26 7 13 17 11 40 -5z m-1262 -15 c8 -12 -21 -34 -34 -26 -8 5 -8 11 1 21 13 16 25 18 33 5z m1345 -5 c7 -8 20 -12 30 -9 9 2 23 -2 30 -10 17 -21 -3 -31 -31 -15 -13 7 -27 11 -31 10 -14 -4 -48 19 -42 29 9 13 31 11 44 -5z m-1406 -13 c12 -11 -14 -33 -39 -33 -12 0 -26 -4 -29 -10 -3 -5 -17 -10 -30 -10 -13 0 -27 -5 -30 -11 -4 -5 -17 -9 -30 -7 -12 1 -29 -3 -38 -10 -9 -8 -18 -9 -21 -3 -5 8 8 23 24 27 3 0 23 9 45 19 68 32 137 50 148 38z m1538 -46 c-7 -7 -15 -6 -25 3 -22 17 -9 32 16 19 14 -8 17 -14 9 -22z m53 -19 c-3 -5 -12 -4 -20 3 -7 6 -11 15 -8 21 3 5 12 4 20 -3 7 -6 11 -15 8 -21z m55 0 c6 -7 15 -13 19 -14 27 -3 70 -19 85 -32 9 -8 17 -12 17 -8 0 3 11 -1 25 -10 14 -9 25 -24 25 -33 0 -9 5 -22 11 -28 17 -17 1 -37 -17 -22 -8 6 -14 16 -14 21 0 15 -43 68 -51 63 -9 -6 -76 22 -84 35 -4 6 -11 8 -16 4 -13 -7 -41 15 -33 27 7 12 18 11 33 -3z m-1890 -34 c-7 -8 -18 -13 -24 -10 -7 2 -38 -18 -69 -46 -44 -39 -57 -46 -62 -34 -10 27 4 46 51 67 24 11 48 20 52 21 5 0 17 6 27 14 24 16 41 8 25 -12z m2101 -190 c0 -18 -4 -35 -9 -39 -20 -12 -43 70 -24 88 13 13 33 -16 33 -49z m-2280 -173 c0 -22 -26 -46 -34 -32 -9 14 12 63 24 56 5 -3 10 -14 10 -24z m2358 -350 c-2 -37 -8 -44 -24 -30 -14 12 -19 60 -7 72 12 13 33 -15 31 -42z m-58 -217 c0 -122 7 -147 34 -125 20 17 26 3 26 -64 0 -43 -5 -66 -15 -75 -16 -14 -21 -6 -27 40 -2 14 -9 25 -18 25 -11 0 -15 -13 -16 -53 -1 -31 -7 -59 -16 -70 -10 -11 -14 -28 -11 -50 3 -19 0 -39 -8 -48 -8 -9 -12 -28 -11 -41 2 -13 -2 -30 -8 -38 -10 -12 -17 -10 -42 15 -29 30 -31 63 -2 39 10 -8 18 -8 27 -1 19 16 5 142 -17 154 -10 6 -16 22 -16 47 0 43 8 55 26 40 29 -24 34 3 34 180 0 98 3 181 7 184 3 4 17 -3 30 -15 22 -20 23 -29 23 -144z m-2360 2 c0 -78 -3 -145 -6 -149 -4 -3 -17 1 -30 10 -17 11 -24 25 -24 49 0 18 5 36 10 39 14 9 13 118 -1 132 -13 13 -4 47 10 39 5 -3 11 4 14 15 3 12 10 18 16 14 7 -4 11 -59 11 -149z m20 -261 c0 -29 -10 -38 -27 -24 -14 12 -18 51 -6 62 11 11 33 -14 33 -38z m2380 -74 c0 -21 -6 -44 -14 -51 -8 -6 -12 -18 -10 -25 7 -18 -14 -57 -27 -50 -13 9 -11 39 3 53 7 7 11 28 10 47 -4 37 14 79 29 70 5 -4 9 -23 9 -44z m-2362 -55 c-2 -17 -7 -31 -12 -31 -12 0 -28 56 -21 74 10 25 36 -9 33 -43z m22 -92 c0 -12 5 -26 10 -29 6 -3 10 -21 10 -40 0 -19 5 -37 10 -40 6 -3 10 -13 10 -21 0 -8 9 -34 20 -56 11 -23 20 -47 20 -54 0 -7 14 -38 30 -69 17 -32 28 -60 25 -63 -3 -3 10 -24 28 -46 18 -23 41 -57 50 -77 9 -20 23 -42 32 -49 8 -7 15 -18 15 -24 0 -7 14 -25 30 -41 17 -16 30 -36 30 -45 0 -9 9 -25 20 -35 21 -19 18 -40 -5 -28 -36 22 -204 281 -209 325 -1 4 -7 13 -13 20 -7 6 -13 17 -13 22 0 6 -9 22 -20 36 -11 14 -20 31 -20 39 0 13 -28 80 -51 123 -5 10 -9 24 -9 32 0 7 -7 19 -15 26 -9 7 -12 22 -9 40 4 15 1 31 -5 34 -12 8 -15 49 -4 59 11 12 33 -14 33 -39z m2300 -29 c0 -13 -4 -27 -10 -30 -5 -3 -10 -19 -10 -34 0 -27 -44 -126 -61 -137 -14 -8 -23 26 -10 39 6 6 11 21 11 33 0 13 5 26 10 29 6 3 10 17 10 30 0 13 5 27 10 30 6 3 10 16 10 29 0 24 19 48 32 40 4 -3 8 -16 8 -29z m-151 -71 c-6 -7 -15 -11 -21 -8 -5 3 -4 12 3 20 6 7 15 11 21 8 5 -3 4 -12 -3 -20z m6 -50 c26 -17 24 -40 -2 -30 -9 4 -21 2 -28 -4 -19 -16 -29 5 -15 30 13 24 14 24 45 4z m49 -125 c-9 -10 -14 -19 -10 -19 4 0 4 -5 1 -10 -4 -6 -11 -8 -16 -4 -6 4 -6 11 2 20 6 8 8 14 4 14 -4 0 -2 7 5 15 7 8 17 12 22 9 5 -3 2 -14 -8 -25z m-48 -108 c-71 -142 -176 -300 -258 -387 -20 -21 -49 -54 -65 -73 -17 -19 -33 -30 -36 -24 -3 5 31 54 76 109 107 128 150 188 175 245 12 25 28 52 37 59 8 7 15 18 15 24 0 6 9 22 20 36 11 14 20 32 20 41 0 21 22 41 33 30 5 -5 -1 -30 -17 -60z m-107 3 c-6 -7 -15 -11 -21 -8 -5 3 -4 12 3 20 6 7 15 11 21 8 5 -3 4 -12 -3 -20z m-1625 -195 c-3 -5 -10 -7 -15 -3 -5 3 -7 10 -3 15 3 5 10 7 15 3 5 -3 7 -10 3 -15z m120 -140 c-3 -5 -10 -7 -15 -3 -5 3 -7 10 -3 15 3 5 10 7 15 3 5 -3 7 -10 3 -15z m-160 -40 c-3 -5 -10 -7 -15 -3 -5 3 -7 10 -3 15 3 5 10 7 15 3 5 -3 7 -10 3 -15z m108 -100 c48 -50 86 -95 82 -100 -7 -11 -57 31 -136 114 -50 53 -63 77 -41 77 4 0 46 -41 95 -91z m1267 45 c-12 -13 -26 -21 -31 -18 -5 4 0 17 13 30 12 13 26 21 31 18 5 -4 0 -17 -13 -30z m-1145 -76 c-4 -5 -17 0 -30 13 -13 12 -21 26 -18 31 4 5 17 0 30 -13 13 -12 21 -26 18 -31z m1013 -56 c-48 -48 -70 -63 -83 -58 -15 6 -15 9 6 31 13 14 29 25 35 25 6 0 28 18 50 40 21 21 43 37 48 33 5 -3 -20 -35 -56 -71z m122 22 c-12 -13 -26 -21 -31 -18 -5 4 0 17 13 30 12 13 26 21 31 18 5 -4 0 -17 -13 -30z m-76 -76 c-21 -21 -48 -45 -60 -51 -12 -7 -49 -31 -83 -54 -34 -24 -66 -40 -72 -37 -13 8 31 54 53 54 10 0 33 18 52 40 19 22 37 40 41 40 3 0 25 13 47 30 56 40 70 27 22 -22z m-1059 11 c-3 -5 -10 -7 -15 -3 -5 3 -7 10 -3 15 3 5 10 7 15 3 5 -3 7 -10 3 -15z m886 -64 c-19 -19 -39 -35 -45 -35 -7 0 -20 -9 -30 -20 -10 -11 -23 -20 -30 -20 -7 0 -20 -9 -30 -20 -10 -11 -23 -20 -30 -20 -7 0 -20 -9 -30 -20 -14 -15 -15 -23 -6 -33 9 -11 8 -17 -4 -27 -8 -7 -15 -10 -15 -6 0 16 -3 22 -17 38 -13 14 -13 20 -3 33 7 8 18 15 24 15 7 0 25 14 41 30 16 17 34 30 40 30 6 0 24 14 40 30 16 17 34 30 39 30 6 0 25 11 41 24 45 37 57 14 15 -29z m-66 -116 c-3 -5 -10 -7 -15 -3 -5 3 -7 10 -3 15 3 5 10 7 15 3 5 -3 7 -10 3 -15z m-39 -25 c-10 -7 -22 -11 -28 -7 -6 3 -3 11 8 19 10 7 22 11 28 7 6 -3 3 -11 -8 -19z"/>
<path d="M2625 2961 c-6 -6 -35 -11 -65 -13 -41 -2 -55 -7 -55 -18 0 -22 79 -25 122 -5 19 9 32 22 30 28 -5 15 -21 19 -32 8z"/>
<path d="M2685 2959 c-16 -25 20 -29 231 -27 187 3 219 5 219 18 0 13 -33 15 -222 18 -154 2 -224 -1 -228 -9z"/>
<path d="M3185 2940 c-13 -21 11 -31 61 -28 36 2 49 7 49 18 0 19 -99 27 -110 10z"/>
<path d="M2385 2920 c-12 -19 10 -32 51 -28 27 2 39 8 39 18 0 19 -79 27 -90 10z"/>
<path d="M3325 2920 c-12 -19 6 -30 50 -30 24 0 47 -4 50 -10 3 -5 21 -10 40 -10 19 0 37 -4 40 -10 3 -5 21 -10 40 -10 19 0 37 -4 40 -10 3 -5 17 -10 30 -10 13 0 27 -4 30 -10 3 -5 15 -10 25 -10 11 0 35 -9 55 -20 20 -11 43 -20 52 -20 9 0 31 -12 50 -26 36 -28 63 -26 63 4 0 27 -20 42 -56 42 -18 0 -36 5 -39 10 -3 6 -15 10 -25 10 -11 0 -35 9 -55 20 -20 11 -44 20 -54 20 -10 0 -24 7 -31 15 -7 9 -21 13 -31 10 -9 -3 -20 -1 -24 5 -3 5 -21 10 -40 10 -19 0 -37 5 -40 10 -3 6 -21 10 -40 10 -19 0 -37 5 -40 10 -3 6 -24 10 -45 10 -21 0 -42 -4 -45 -10z"/>
<path d="M2285 2901 c-3 -6 -21 -11 -40 -11 -19 0 -37 -4 -40 -10 -3 -5 -17 -10 -30 -10 -13 0 -27 -4 -30 -10 -3 -5 -17 -10 -30 -10 -13 0 -27 -4 -30 -10 -3 -5 -14 -10 -24 -10 -23 0 -81 -29 -81 -40 0 -15 21 -23 33 -11 6 6 21 11 33 11 13 0 26 5 29 10 3 6 17 10 30 10 13 0 27 5 30 10 3 6 17 10 30 10 13 0 27 5 30 10 3 6 21 10 39 10 17 0 36 4 42 9 5 5 25 11 44 13 46 4 48 32 3 36 -17 2 -34 -2 -38 -7z"/>
<path d="M2626 2855 c-12 -13 -14 -21 -5 -36 13 -25 16 -125 4 -120 -6 2 -19 7 -30 11 -11 4 -31 20 -45 35 l-25 27 34 28 c18 16 30 33 26 39 -8 15 -164 8 -193 -8 -27 -14 -27 -23 -4 -72 17 -39 32 -50 32 -26 0 7 13 26 30 42 31 30 29 30 44 -19 4 -14 -44 -56 -64 -56 -6 0 -15 -11 -20 -25 -5 -14 -13 -25 -18 -25 -4 0 -39 32 -77 70 -38 39 -77 70 -85 70 -27 0 -40 -22 -40 -70 0 -26 -7 -62 -17 -80 -14 -29 -17 -31 -28 -17 -17 23 -38 21 -53 -4 -11 -16 -16 -18 -28 -9 -8 7 -14 18 -14 26 0 19 -19 27 -35 14 -25 -20 -25 7 0 30 35 33 32 50 -10 50 -33 0 -75 -27 -75 -49 0 -4 9 -20 20 -34 11 -14 20 -32 20 -40 0 -9 5 -19 11 -23 6 -4 9 -19 5 -36 -7 -34 15 -48 45 -30 10 7 29 12 41 12 13 0 38 9 56 20 18 11 45 20 60 20 20 0 33 8 46 31 l19 32 18 -24 c17 -22 20 -23 56 -10 21 7 45 20 54 28 12 10 23 11 43 4 28 -11 51 -6 79 17 12 10 21 12 27 6 6 -6 49 -9 101 -6 101 4 127 -1 111 -21 -7 -8 -41 -14 -89 -16 -43 -1 -82 -7 -87 -12 -6 -5 -34 -9 -62 -9 -29 0 -56 -4 -59 -10 -3 -5 -26 -10 -50 -10 -24 0 -47 -4 -50 -10 -3 -5 -23 -10 -43 -10 -36 0 -105 -19 -118 -33 -4 -4 -18 -7 -30 -7 -13 0 -26 -4 -29 -10 -3 -5 -15 -10 -25 -10 -11 0 -35 -9 -55 -20 -20 -11 -44 -20 -54 -20 -33 0 -89 -84 -77 -115 9 -23 30 -13 34 16 2 13 8 30 14 36 16 20 69 43 98 43 15 0 35 9 45 20 19 21 50 26 60 10 3 -5 23 -10 44 -10 27 0 44 7 61 25 33 35 76 55 121 55 21 0 41 5 44 10 9 14 58 13 73 -2 9 -9 17 -7 35 10 28 26 44 28 69 5 17 -15 19 -15 36 1 23 20 89 16 83 -5 -13 -49 -23 -87 -28 -109 -7 -29 -32 -62 -43 -55 -10 6 -26 -14 -35 -45 -9 -30 -44 -70 -61 -70 -22 0 -24 -16 -8 -49 9 -19 23 -31 35 -31 11 0 22 -7 26 -16 3 -8 12 -13 20 -10 7 3 16 -1 19 -9 9 -21 26 -19 20 3 -4 12 7 30 34 57 23 23 40 49 40 61 0 41 21 37 71 -12 l49 -48 0 -56 c0 -31 -5 -61 -12 -68 -8 -8 -8 -15 1 -26 14 -17 7 -36 -13 -36 -7 0 -21 -9 -31 -20 -20 -22 -43 -17 -25 5 7 8 9 19 5 25 -10 17 -44 11 -55 -10 -6 -11 -19 -20 -30 -20 -11 0 -24 -9 -30 -20 -10 -19 -12 -19 -35 -4 -14 9 -22 20 -19 26 9 14 -16 38 -42 38 -14 0 -39 16 -64 42 l-40 42 -32 -31 c-30 -30 -31 -33 -16 -50 25 -27 30 -74 12 -94 -23 -25 -14 -54 16 -54 27 0 40 -29 21 -48 -18 -18 -13 -42 14 -67 14 -13 23 -30 21 -37 -6 -15 10 -27 24 -18 8 5 7 11 0 20 -7 8 -9 19 -5 25 4 6 -1 20 -11 31 l-17 19 22 24 c25 27 21 43 -15 56 -24 10 -48 68 -34 83 4 5 23 10 41 10 29 2 34 -1 35 -23 1 -14 -3 -31 -9 -38 -16 -20 8 -36 53 -35 22 1 42 -2 45 -8 4 -5 14 -9 24 -9 10 0 32 -7 49 -16 35 -17 52 -12 52 16 0 22 16 35 25 19 4 -5 13 -8 21 -5 7 3 17 -1 21 -8 5 -7 22 -12 38 -12 26 1 30 -3 33 -27 4 -35 -21 -46 -49 -21 -17 16 -21 16 -35 3 -13 -13 -13 -19 1 -46 24 -48 56 -77 102 -92 l42 -14 35 27 c40 30 57 20 22 -13 -19 -18 -150 -91 -162 -91 -10 0 -34 70 -34 100 0 23 -7 43 -18 53 -26 23 -33 21 -26 -7 8 -32 -9 -40 -31 -16 -17 19 -17 21 -1 39 12 13 14 21 6 26 -17 10 -85 -48 -85 -73 0 -12 -6 -27 -13 -34 -15 -15 -16 -84 0 -94 6 -4 17 2 25 12 8 10 19 18 25 16 5 -1 16 2 23 8 7 6 19 8 28 4 8 -3 18 0 22 5 7 12 25 6 25 -8 0 -4 -14 -17 -31 -30 -22 -16 -34 -20 -43 -12 -17 14 -29 2 -15 -16 9 -9 8 -17 0 -27 -8 -9 -8 -16 -2 -20 5 -4 12 -2 16 4 4 6 11 8 16 4 6 -4 6 -11 -2 -20 -8 -10 -15 -11 -24 -4 -6 5 -15 7 -18 3 -4 -3 -14 0 -23 7 -8 8 -34 23 -57 34 -23 12 -48 33 -55 48 -17 36 -73 63 -100 49 -32 -17 -47 -40 -34 -53 9 -9 16 -7 30 5 10 9 25 17 34 17 16 0 48 -30 48 -45 0 -5 9 -18 20 -30 l21 -22 -37 -33 c-33 -28 -35 -34 -20 -42 14 -8 16 -20 12 -73 -4 -57 -2 -65 20 -86 32 -30 46 -16 34 36 -10 45 2 68 20 36 6 -12 15 -19 21 -15 6 4 6 11 -2 20 -9 11 -9 18 1 29 10 13 10 19 -4 33 -15 17 -14 20 13 40 29 21 49 19 30 -4 -14 -17 7 -29 26 -14 20 17 30 -7 11 -29 -13 -15 -14 -22 -3 -44 6 -14 21 -28 32 -29 11 -2 20 -10 21 -18 1 -8 2 -17 4 -20 1 -3 4 -14 5 -25 2 -11 8 -58 14 -104 8 -66 15 -87 32 -99 13 -9 18 -20 13 -31 -3 -9 -8 -59 -10 -111 -2 -52 -5 -106 -7 -120 -2 -20 3 -25 20 -25 13 0 28 -6 35 -13 17 -17 45 -15 52 5 5 12 9 14 18 5 7 -7 19 -12 27 -12 8 0 25 -12 37 -27 l22 -28 35 34 c29 27 35 39 32 68 -1 23 3 37 12 40 8 3 12 12 9 19 -3 7 -1 16 4 19 6 4 10 14 10 24 0 10 7 24 15 31 9 7 13 20 10 28 -12 31 9 32 35 1 23 -29 30 -32 43 -20 9 7 21 10 27 6 6 -4 20 1 30 10 16 15 22 15 35 5 8 -7 15 -18 15 -25 0 -25 80 -36 96 -13 23 32 3 68 -37 68 -16 0 -32 6 -35 14 -4 9 -22 12 -62 11 -31 -1 -63 2 -70 8 -9 7 -18 4 -32 -8 -21 -19 -26 -14 -32 35 -2 17 -9 25 -23 25 -11 0 -25 3 -32 8 -18 11 -43 66 -37 81 3 7 -2 19 -11 26 -8 7 -15 23 -15 36 0 12 -4 26 -10 29 -5 3 -10 21 -10 39 0 51 -80 116 -143 116 -47 0 -119 36 -115 58 2 9 12 17 23 17 11 0 25 3 32 8 6 4 18 4 27 1 17 -7 156 57 176 81 6 8 9 19 6 24 -4 5 -2 12 3 15 5 4 13 2 16 -4 4 -6 16 -8 27 -4 15 5 26 0 39 -17 l17 -23 20 17 c15 14 18 29 16 85 -1 48 3 72 13 84 17 19 40 14 25 -5 -11 -14 -10 -57 1 -75 5 -7 4 -18 -1 -25 -17 -20 1 -80 27 -93 30 -16 91 -75 91 -90 0 -19 24 -34 40 -24 12 7 11 12 -4 29 -27 30 -9 47 20 18 19 -19 23 -33 21 -65 -3 -48 -11 -59 -31 -43 -10 8 -16 9 -21 1 -9 -14 3 -30 19 -24 7 3 19 -2 26 -11 12 -15 10 -17 -20 -19 -23 -2 -18 -31 5 -31 11 0 20 -7 20 -15 0 -8 -9 -15 -20 -15 -10 0 -24 -10 -30 -21 -24 -48 -50 -64 -50 -31 0 24 -24 15 -68 -24 -35 -30 -47 -48 -47 -69 0 -33 16 -48 33 -31 9 9 16 6 28 -11 13 -17 20 -19 31 -11 20 16 64 9 60 -11 -3 -18 13 -22 24 -5 5 8 13 4 24 -11 21 -28 40 -19 40 20 0 16 9 46 21 66 l20 37 -22 23 -23 24 30 31 c16 17 39 35 52 40 36 14 21 34 -26 34 -52 0 -73 18 -49 42 15 15 18 15 34 1 10 -8 32 -14 48 -14 25 1 30 5 30 28 1 14 7 33 15 42 9 12 10 20 2 28 -13 13 -35 0 -28 -17 2 -7 -3 -20 -13 -29 -17 -16 -19 -15 -32 6 -38 61 -43 79 -31 99 13 20 6 40 -26 81 -8 9 -11 21 -8 27 8 12 -11 24 -24 16 -8 -5 -8 -11 0 -20 8 -10 8 -15 -1 -21 -21 -12 -50 37 -46 77 4 29 1 37 -17 45 -11 5 -23 20 -24 34 -2 14 -11 33 -19 42 -14 15 -13 20 7 45 12 15 26 28 31 28 20 0 12 16 -16 31 -27 14 -30 14 -43 -3 -13 -18 -58 -20 -76 -3 -11 11 29 31 47 24 23 -9 31 15 11 37 -9 10 -13 19 -9 19 4 0 -9 17 -30 37 -42 41 -82 48 -113 19 -15 -13 -25 -14 -46 -7 -29 12 -30 14 -15 42 10 19 12 20 29 4 22 -20 43 -11 35 14 -5 18 20 49 31 38 3 -3 18 -1 34 3 36 10 45 2 24 -22 -14 -14 -14 -20 -4 -33 7 -9 20 -13 30 -10 26 8 54 -28 41 -54 -12 -21 -1 -35 29 -36 8 0 19 -10 25 -22 13 -30 27 -30 23 0 -2 16 3 23 20 25 13 2 22 10 22 21 0 9 7 26 15 37 20 27 19 40 -10 67 l-26 23 20 18 c29 26 17 72 -31 122 -35 37 -45 42 -82 40 -29 -1 -41 -5 -41 -16 0 -10 10 -15 30 -15 22 -1 31 -6 34 -20 2 -11 7 -25 13 -32 5 -7 5 -13 0 -17 -6 -3 -16 2 -23 11 -8 9 -29 22 -46 30 -18 7 -33 18 -33 24 0 6 -6 9 -12 7 -7 -3 -13 -10 -13 -16 0 -7 -4 -11 -10 -9 -5 1 -9 7 -7 14 4 18 -17 26 -33 13 -24 -20 -31 -3 -28 67 5 115 2 167 -9 180 -15 19 13 26 78 21 63 -5 74 2 42 32 l-22 20 26 26 26 27 11 -22 c8 -15 21 -21 44 -21 18 0 38 -5 45 -12 8 -8 15 -8 27 2 12 10 20 10 38 1 12 -6 40 -13 61 -14 23 -2 43 -10 51 -20 9 -13 24 -17 53 -16 22 2 48 -3 56 -10 10 -9 29 -11 51 -8 28 5 38 1 52 -16 10 -12 31 -28 46 -36 25 -13 29 -13 45 2 15 15 15 20 2 40 -7 12 -20 34 -28 50 -7 15 -15 27 -17 27 -3 0 -20 -9 -40 -20 -27 -15 -41 -17 -60 -10 -28 11 -29 13 -16 38 5 9 12 25 15 36 5 15 9 16 22 5 20 -17 65 -21 81 -7 7 5 24 7 37 4 33 -8 42 9 21 40 -14 21 -23 25 -48 21 -19 -3 -38 1 -47 8 -8 7 -31 15 -50 17 -32 3 -35 1 -38 -27 -1 -16 -7 -39 -12 -50 -5 -11 -10 -29 -12 -40 -5 -32 -33 -24 -36 10 -2 17 -8 35 -13 41 -5 6 -4 15 2 21 6 6 9 23 7 38 -4 40 -58 67 -153 78 -18 2 -20 -5 -25 -73 -4 -60 -8 -75 -22 -78 -12 -2 -23 10 -37 39 -12 24 -21 48 -21 55 0 29 -42 84 -64 84 -26 0 -56 -29 -56 -53 0 -9 -4 -19 -10 -22 -5 -3 -10 -14 -10 -23 0 -9 -15 -31 -32 -50 l-33 -33 28 -21 c15 -11 25 -24 21 -29 -7 -12 -56 -11 -90 1 -25 10 -26 12 -10 29 22 24 20 45 -9 79 -13 16 -22 32 -19 35 8 8 35 -3 57 -21 16 -14 20 -13 42 8 30 28 32 66 6 98 -17 19 -29 22 -95 22 -60 0 -78 -3 -83 -16 -3 -8 -1 -20 6 -27 15 -15 14 -120 -1 -135 -9 -9 -8 -16 5 -30 9 -10 14 -22 10 -25 -10 -11 -181 -8 -188 3 -3 6 1 13 9 16 26 10 21 78 -6 96 -21 14 -22 18 -10 40 8 14 12 36 10 49 l-3 24 -81 3 c-65 2 -85 -1 -98 -13z m679 -135 c-5 -8 -11 -8 -17 -2 -6 6 -7 16 -3 22 5 8 11 8 17 2 6 -6 7 -16 3 -22z m-391 -161 c11 9 18 6 36 -19 12 -16 18 -35 15 -40 -4 -6 -2 -17 5 -25 8 -9 8 -15 0 -20 -8 -5 -8 -11 1 -21 6 -8 9 -14 5 -14 -3 0 -9 0 -13 0 -5 0 -8 4 -8 8 0 5 -15 26 -34 47 -29 33 -36 37 -52 26 -30 -18 -63 3 -48 30 8 16 13 18 25 8 8 -6 15 -9 15 -5 1 3 3 11 4 16 1 6 3 13 4 16 0 4 8 1 16 -6 11 -10 18 -10 29 -1z m-55 -132 c6 -8 8 -17 5 -20 -10 -9 -45 13 -39 24 9 13 21 11 34 -4z m45 -38 c-3 -5 -10 -7 -15 -3 -5 3 -7 10 -3 15 3 5 10 7 15 3 5 -3 7 -10 3 -15z m-199 -29 c3 -5 0 -18 -7 -30 -10 -16 -10 -24 -1 -40 11 -16 10 -21 -7 -30 -11 -6 -25 -8 -31 -4 -6 3 -19 -2 -29 -11 -24 -22 -59 -13 -40 10 7 8 18 15 26 15 12 0 29 25 53 78 11 23 26 29 36 12z m219 -11 c-3 -5 -10 -7 -15 -3 -5 3 -7 10 -3 15 3 5 10 7 15 3 5 -3 7 -10 3 -15z m-49 -46 c0 -6 3 -15 7 -19 4 -4 5 -11 2 -16 -4 -5 -17 0 -30 13 -13 12 -21 26 -18 31 8 12 39 5 39 -9z m50 -73 c11 -17 -5 -32 -21 -19 -7 6 -11 15 -8 20 7 12 21 11 29 -1z m321 -11 c3 -6 -3 -21 -15 -32 -20 -20 -22 -20 -38 -5 -13 14 -14 20 -3 32 15 18 46 21 56 5z m-242 -20 c-3 -5 -10 -7 -15 -3 -5 3 -7 10 -3 15 3 5 10 7 15 3 5 -3 7 -10 3 -15z m124 -7 c2 -7 -4 -15 -13 -18 -19 -8 -51 19 -41 35 8 12 48 -1 54 -17z m-106 -80 l-15 -23 -20 19 -19 20 18 27 18 27 17 -23 c15 -21 16 -25 1 -47z m302 -13 c-13 -14 -21 -16 -28 -9 -8 8 -6 15 8 25 26 20 41 7 20 -16z m-398 0 c3 -6 -3 -20 -14 -31 -23 -23 -34 -13 -21 20 9 24 24 29 35 11z m124 -86 c23 -6 36 -15 38 -28 2 -11 12 -39 24 -62 11 -23 18 -49 14 -58 -7 -18 -26 -11 -26 10 0 23 -39 82 -65 99 -13 9 -34 16 -45 16 -30 0 -62 19 -54 31 6 11 51 8 114 -8z m84 -4 c-3 -5 -10 -7 -15 -3 -5 3 -7 10 -3 15 3 5 10 7 15 3 5 -3 7 -10 3 -15z m-230 -7 c2 -4 -11 -20 -30 -36 -29 -23 -35 -25 -40 -11 -12 30 53 74 70 47z m81 -87 c0 -22 -31 -33 -47 -17 -17 17 -1 44 24 40 15 -2 23 -10 23 -23z m60 -63 c0 -18 -4 -31 -10 -30 -5 2 -10 8 -10 13 0 6 -4 16 -8 23 -10 15 1 34 16 29 7 -2 12 -18 12 -35z m134 -18 c-6 -7 -15 -11 -21 -8 -5 3 -4 12 3 20 6 7 15 11 21 8 5 -3 4 -12 -3 -20z m85 -45 c-3 -5 -10 -7 -15 -3 -5 3 -7 10 -3 15 3 5 10 7 15 3 5 -3 7 -10 3 -15z m-238 -1 c9 -15 -27 -41 -40 -28 -6 6 -5 15 4 25 15 18 26 19 36 3z m-86 -13 c10 -12 9 -16 -4 -21 -18 -7 -49 13 -40 27 8 14 30 11 44 -6z m174 -77 c-3 -4 -14 -3 -25 3 -17 9 -18 13 -8 26 12 13 14 13 26 -3 7 -9 10 -21 7 -26z m177 8 c0 -3 8 -22 19 -41 35 -62 23 -85 -29 -59 -36 18 -36 16 -16 54 8 16 15 33 14 37 -3 15 1 26 7 21 3 -4 5 -9 5 -12z m-447 -146 c-8 -8 -16 -4 -27 13 -21 32 -9 43 17 17 14 -14 17 -23 10 -30z m-75 -156 c-12 -13 -26 -21 -31 -18 -5 4 0 17 13 30 12 13 26 21 31 18 5 -4 0 -17 -13 -30z m185 -13 c17 -18 17 -20 0 -29 -15 -8 -16 -13 -5 -26 17 -20 9 -41 -15 -41 -13 0 -20 -8 -22 -25 -10 -83 -30 -57 -35 47 -3 45 -2 85 1 88 12 12 60 4 76 -14z m50 -102 c-3 -5 -10 -7 -15 -3 -5 3 -7 10 -3 15 3 5 10 7 15 3 5 -3 7 -10 3 -15z m41 -109 c-3 -10 5 -26 20 -40 36 -34 36 -96 0 -110 -32 -12 -42 -37 -26 -62 11 -17 9 -24 -10 -44 -23 -24 -42 -24 -32 1 8 23 -8 18 -39 -12 -23 -22 -30 -24 -43 -13 -14 12 -14 15 1 31 9 10 13 23 9 29 -4 6 -2 16 3 23 16 21 21 60 10 80 -9 17 -6 24 16 40 14 10 26 26 26 36 0 9 6 26 14 36 9 13 11 25 5 36 -14 27 3 31 28 7 13 -12 21 -29 18 -38z m-70 -309 c7 -12 -12 -24 -25 -16 -11 7 -4 25 10 25 5 0 11 -4 15 -9z m99 -22 c-3 -5 -10 -7 -15 -3 -5 3 -7 10 -3 15 3 5 10 7 15 3 5 -3 7 -10 3 -15z"/>
<path d="M1902 2757 c-32 -33 -43 -79 -22 -92 19 -12 37 13 32 45 -4 25 0 31 23 40 15 6 25 15 23 22 -8 22 -24 18 -56 -15z"/>
<path d="M3873 2688 c-13 -17 -1 -63 17 -63 10 0 15 11 15 34 0 36 -15 50 -32 29z"/>
<path d="M1857 2634 c-4 -4 -7 -26 -7 -49 0 -22 -5 -46 -11 -52 -16 -16 -7 -88 11 -88 10 0 16 12 18 40 1 22 7 49 13 61 20 40 0 112 -24 88z"/>
<path d="M3894 2587 c-9 -25 0 -62 16 -62 10 0 15 10 15 34 0 36 -21 54 -31 28z"/>
<path d="M3245 2580 c-13 -21 15 -39 51 -33 27 5 40 1 58 -16 21 -20 27 -21 45 -9 17 10 25 10 41 0 11 -6 33 -12 49 -12 16 0 34 -7 41 -15 7 -9 21 -13 30 -10 9 3 23 -1 29 -9 8 -10 23 -13 41 -10 15 4 31 1 34 -5 4 -6 15 -11 25 -11 21 0 78 -27 87 -41 3 -6 17 -14 30 -19 16 -6 24 -17 24 -33 0 -13 4 -27 9 -32 6 -6 11 -30 13 -55 2 -32 7 -45 18 -45 18 0 27 72 11 88 -6 6 -11 25 -12 42 -1 39 -30 89 -55 93 -19 3 -52 16 -86 33 -10 5 -29 9 -42 9 -14 0 -28 5 -31 10 -3 6 -17 10 -30 10 -13 0 -27 5 -30 10 -3 6 -17 10 -30 10 -13 0 -27 5 -30 10 -3 6 -26 10 -50 10 -24 0 -47 5 -50 10 -3 6 -26 10 -50 10 -24 0 -47 5 -50 10 -8 13 -82 13 -90 0z"/>
<path d="M3994 2566 c-9 -24 0 -61 16 -61 8 0 17 11 20 25 10 38 -23 70 -36 36z"/>
<path d="M3914 2486 c-10 -27 12 -225 27 -240 5 -6 17 -2 29 9 28 25 28 105 1 130 -13 11 -21 33 -23 63 -3 46 -23 68 -34 38z"/>
<path d="M2280 2455 c-20 -21 -21 -27 -9 -41 7 -9 24 -20 36 -25 30 -11 38 -32 59 -165 10 -60 19 -111 21 -113 1 -2 14 -1 28 3 29 7 34 39 10 65 -15 18 -23 80 -12 97 3 6 2 26 -3 44 -6 22 -6 39 2 53 10 19 5 26 -37 64 -26 24 -52 43 -59 43 -7 0 -23 -11 -36 -25z"/>
<path d="M4014 2446 c-10 -27 0 -81 16 -81 18 0 32 69 16 85 -14 14 -26 13 -32 -4z"/>
<path d="M3330 2425 c-6 -8 -9 -19 -5 -25 4 -6 1 -17 -5 -25 -10 -12 -10 -18 1 -31 17 -20 85 -64 99 -64 31 0 46 119 18 136 -15 10 -49 -29 -53 -62 -2 -16 -4 -31 -4 -33 -1 -2 -8 2 -16 9 -20 16 -19 39 1 62 14 14 14 20 4 33 -16 19 -24 19 -40 0z"/>
<path d="M1814 2407 c-11 -29 0 -102 16 -102 19 0 22 106 3 112 -7 3 -16 -2 -19 -10z"/>
<path d="M2454 2319 c-10 -17 13 -36 27 -22 12 12 4 33 -11 33 -5 0 -12 -5 -16 -11z"/>
<path d="M3481 2316 c-9 -10 -9 -16 -1 -21 17 -10 37 12 24 25 -8 8 -15 6 -23 -4z"/>
<path d="M2294 2259 c-10 -17 13 -36 27 -22 12 12 4 33 -11 33 -5 0 -12 -5 -16 -11z"/>
<path d="M3454 2239 c-8 -14 18 -31 30 -19 9 9 0 30 -14 30 -5 0 -12 -5 -16 -11z"/>
<path d="M2114 2199 c-10 -17 13 -36 27 -22 12 12 4 33 -11 33 -5 0 -12 -5 -16 -11z"/>
<path d="M2475 2200 c-11 -17 5 -32 21 -19 7 6 11 15 8 20 -7 12 -21 11 -29 -1z"/>
<path d="M3874 2187 c-3 -8 -4 -39 -2 -68 2 -40 7 -54 18 -54 20 0 22 126 3 132 -7 3 -15 -2 -19 -10z"/>
<path d="M2510 2165 c-10 -12 -10 -19 -2 -27 15 -15 48 14 38 31 -10 15 -21 14 -36 -4z"/>
<path d="M2705 2160 c-4 -6 -3 -16 3 -22 6 -6 12 -6 17 2 4 6 3 16 -3 22 -6 6 -12 6 -17 -2z"/>
<path d="M3614 2159 c-10 -17 13 -36 27 -22 12 12 4 33 -11 33 -5 0 -12 -5 -16 -11z"/>
<path d="M3400 2150 c0 -5 5 -10 10 -10 6 0 10 5 10 10 0 6 -4 10 -10 10 -5 0 -10 -4 -10 -10z"/>
<path d="M3677 2153 c-12 -12 -7 -51 8 -67 19 -18 34 -13 58 20 15 20 16 28 7 39 -13 15 -61 20 -73 8z"/>
<path d="M2066 2135 c-9 -9 -16 -23 -16 -32 0 -8 -9 -27 -21 -41 -24 -31 -24 -91 1 -137 19 -35 40 -39 55 -10 6 11 18 31 26 45 19 28 18 94 0 128 -7 13 -10 26 -7 31 3 5 0 14 -8 20 -11 9 -18 8 -30 -4z"/>
<path d="M2615 2131 c-7 -12 12 -24 25 -16 11 7 4 25 -10 25 -5 0 -11 -4 -15 -9z"/>
<path d="M3136 2122 c-3 -6 -1 -14 5 -17 15 -10 25 3 12 16 -7 7 -13 7 -17 1z"/>
<path d="M2704 2099 c-3 -6 1 -18 10 -27 15 -15 17 -15 32 0 19 19 11 38 -16 38 -10 0 -22 -5 -26 -11z"/>
<path d="M3595 2080 c-11 -17 5 -32 21 -19 7 6 11 15 8 20 -7 12 -21 11 -29 -1z"/>
<path d="M3636 2038 c-3 -13 -13 -68 -22 -123 -8 -55 -20 -105 -26 -112 -5 -7 -7 -17 -4 -22 4 -5 0 -13 -7 -18 -18 -11 -29 -54 -17 -73 7 -11 19 -4 58 35 57 59 78 100 50 100 -15 0 -23 59 -12 83 4 10 8 26 9 37 1 11 5 41 9 68 7 43 6 47 -13 47 -13 0 -22 -8 -25 -22z"/>
<path d="M3734 2029 c-10 -17 13 -36 27 -22 12 12 4 33 -11 33 -5 0 -12 -5 -16 -11z"/>
<path d="M2354 1979 c-10 -17 13 -36 27 -22 12 12 4 33 -11 33 -5 0 -12 -5 -16 -11z"/>
<path d="M2360 1915 c-7 -9 -10 -18 -6 -22 3 -3 -2 -15 -11 -25 -11 -12 -13 -22 -7 -28 7 -7 22 2 44 25 28 29 31 37 20 50 -16 19 -24 19 -40 0z"/>
<path d="M1796 1912 c-11 -19 -9 -313 2 -324 26 -26 33 9 30 167 -2 109 -7 160 -15 162 -6 2 -14 0 -17 -5z"/>
<path d="M2574 1879 c-10 -17 13 -36 27 -22 12 12 4 33 -11 33 -5 0 -12 -5 -16 -11z"/>
<path d="M2155 1848 c-5 -16 -9 -57 -7 -80 1 -9 16 -24 34 -32 39 -20 41 -20 33 3 -3 10 1 23 9 30 12 10 17 8 26 -8 9 -17 6 -27 -12 -51 -12 -16 -25 -30 -30 -30 -18 0 -6 -28 14 -34 18 -4 20 -8 10 -18 -18 -18 -15 -28 11 -25 19 2 22 -3 25 -38 3 -46 35 -118 70 -157 13 -14 23 -30 22 -34 -4 -19 18 -13 40 11 18 19 20 28 12 38 -16 18 -4 29 18 17 20 -11 33 0 44 36 4 14 -2 28 -23 48 -17 16 -27 35 -24 45 2 10 -3 23 -11 30 -11 10 -13 18 -6 31 11 21 5 46 -18 73 -14 16 -14 20 5 39 26 25 52 15 28 -12 -13 -14 -13 -19 -2 -28 11 -9 19 -5 36 19 l23 30 -46 49 c-35 37 -47 45 -56 35 -6 -7 -8 -19 -5 -27 7 -18 -20 -43 -35 -33 -6 4 -17 2 -24 -5 -23 -18 2 -84 28 -74 19 7 51 -45 37 -59 -8 -8 -6 -16 5 -29 16 -16 15 -18 -9 -27 -31 -12 -43 -29 -29 -43 8 -8 16 -7 28 3 14 11 18 11 30 -6 12 -16 12 -21 0 -34 -7 -9 -16 -24 -19 -33 -4 -12 -14 -17 -29 -14 -22 3 -29 21 -9 21 15 0 23 13 16 25 -5 8 -10 8 -20 0 -22 -18 -35 -2 -35 40 0 22 -9 55 -20 75 -21 38 -24 119 -4 136 12 10 7 56 -8 65 -5 3 -15 1 -23 -6 -10 -8 -21 -4 -48 20 -38 33 -46 36 -52 18z"/>
<path d="M3374 1839 c-10 -17 13 -36 27 -22 12 12 4 33 -11 33 -5 0 -12 -5 -16 -11z"/>
<path d="M3474 1719 c-10 -17 13 -36 27 -22 12 12 4 33 -11 33 -5 0 -12 -5 -16 -11z"/>
<path d="M3621 1696 c-9 -10 -9 -16 -1 -21 17 -10 37 12 24 25 -8 8 -15 6 -23 -4z"/>
<path d="M2134 1689 c-10 -17 13 -36 27 -22 12 12 4 33 -11 33 -5 0 -12 -5 -16 -11z"/>
<path d="M3754 1669 c-10 -17 13 -36 27 -22 12 12 4 33 -11 33 -5 0 -12 -5 -16 -11z"/>
<path d="M3454 1659 c-10 -17 13 -36 27 -22 12 12 4 33 -11 33 -5 0 -12 -5 -16 -11z"/>
<path d="M3574 1599 c-10 -17 13 -36 27 -22 12 12 4 33 -11 33 -5 0 -12 -5 -16 -11z"/>
<path d="M2056 1541 c-7 -11 22 -71 34 -71 18 0 19 18 4 49 -16 31 -28 39 -38 22z"/>
<path d="M3674 1499 c-10 -17 13 -36 27 -22 12 12 4 33 -11 33 -5 0 -12 -5 -16 -11z"/>
<path d="M3794 1489 c-10 -17 13 -36 27 -22 12 12 4 33 -11 33 -5 0 -12 -5 -16 -11z"/>
<path d="M2260 1450 c0 -5 5 -10 10 -10 6 0 10 5 10 10 0 6 -4 10 -10 10 -5 0 -10 -4 -10 -10z"/>
<path d="M3642 1438 c-15 -15 -16 -45 -1 -54 6 -3 20 3 32 14 17 17 18 23 7 36 -15 19 -22 20 -38 4z"/>
<path d="M2037 1413 c-12 -12 -7 -34 13 -60 11 -14 20 -36 20 -50 0 -13 11 -41 25 -62 13 -22 27 -51 31 -65 7 -29 19 -41 51 -50 19 -6 25 -2 33 20 9 22 7 31 -9 48 -10 12 -29 44 -41 73 -12 28 -28 54 -36 57 -8 3 -14 12 -14 20 0 43 -51 91 -73 69z"/>
<path d="M2280 1412 c0 -14 49 -56 57 -49 3 4 -4 18 -17 32 -24 25 -40 32 -40 17z"/>
<path d="M2235 1400 c-10 -17 12 -37 25 -24 8 8 6 15 -4 23 -10 9 -16 9 -21 1z"/>
<path d="M2394 1339 c-10 -17 13 -36 27 -22 12 12 4 33 -11 33 -5 0 -12 -5 -16 -11z"/>
<path d="M3594 1339 c-10 -17 13 -36 27 -22 12 12 4 33 -11 33 -5 0 -12 -5 -16 -11z"/>
<path d="M2015 1300 c-4 -6 -3 -16 3 -22 6 -6 12 -6 17 2 4 6 3 16 -3 22 -6 6 -12 6 -17 -2z"/>
<path d="M2200 1256 c0 -8 5 -18 10 -21 6 -4 8 -10 5 -15 -3 -4 2 -13 10 -20 7 -6 12 -17 9 -24 -3 -7 2 -19 11 -26 14 -12 13 -15 -6 -36 -18 -20 -21 -29 -13 -55 14 -48 30 -46 54 6 l21 47 -18 20 c-10 11 -18 25 -18 31 0 7 -11 33 -23 60 -22 46 -42 62 -42 33z"/>
<path d="M2294 1239 c-10 -17 13 -36 27 -22 12 12 4 33 -11 33 -5 0 -12 -5 -16 -11z"/>
<path d="M3640 1235 c-9 -11 -9 -19 -2 -28 9 -10 6 -18 -9 -31 -23 -19 -21 -39 4 -44 22 -4 57 33 57 61 0 13 -8 31 -19 41 -16 15 -19 15 -31 1z"/>
<path d="M2314 1179 c-10 -17 13 -36 27 -22 12 12 4 33 -11 33 -5 0 -12 -5 -16 -11z"/>
<path d="M3701 1136 c-7 -8 -8 -17 -3 -20 6 -3 15 1 21 8 7 8 8 17 3 20 -6 3 -15 -1 -21 -8z"/>
<path d="M3482 1118 c-15 -15 -16 -64 -1 -73 5 -4 18 0 28 9 17 15 19 15 34 -6 l15 -23 33 32 33 32 -19 21 c-17 19 -20 19 -42 4 -23 -14 -26 -14 -42 0 -21 19 -24 19 -39 4z"/>
<path d="M2417 1113 c-9 -8 -9 -56 -1 -77 3 -9 15 -16 26 -16 18 0 19 4 13 43 -10 56 -19 69 -38 50z"/>
<path d="M2600 1070 c0 -5 5 -10 10 -10 6 0 10 5 10 10 0 6 -4 10 -10 10 -5 0 -10 -4 -10 -10z"/>
<path d="M2514 959 c-10 -17 13 -36 27 -22 12 12 4 33 -11 33 -5 0 -12 -5 -16 -11z"/>
<path d="M3334 919 c-10 -17 13 -36 27 -22 12 12 4 33 -11 33 -5 0 -12 -5 -16 -11z"/>
<path d="M2474 885 c-3 -14 -7 -38 -8 -53 -1 -16 -9 -40 -19 -55 l-18 -28 21 -28 c11 -16 18 -36 15 -43 -3 -8 3 -23 15 -33 11 -10 20 -23 20 -30 0 -16 35 -47 43 -38 4 3 -3 17 -15 30 l-21 23 19 21 19 21 -36 32 c-20 17 -39 38 -42 47 -7 20 10 39 34 39 10 0 27 13 38 29 18 24 19 32 8 55 -7 14 -17 26 -24 26 -6 0 -18 3 -27 6 -10 4 -17 -2 -22 -21z"/>
<path d="M2581 799 c-21 -28 -21 -32 -7 -48 9 -10 16 -22 16 -28 0 -6 7 -16 15 -23 12 -10 18 -10 30 0 24 20 18 49 -11 61 l-27 10 18 19 c16 17 14 40 -4 40 -4 0 -17 -14 -30 -31z"/>
<path d="M3300 815 c-10 -12 -10 -18 0 -30 7 -8 10 -16 6 -16 -3 -1 -10 -2 -15 -3 -16 -2 -23 -14 -16 -26 5 -8 11 -8 21 1 11 9 17 9 29 -1 12 -10 18 -10 30 0 22 18 19 43 -8 68 -28 26 -31 27 -47 7z"/>
<path d="M2743 798 c-23 -32 -35 -67 -27 -80 8 -12 15 -49 32 -171 5 -32 16 -65 25 -74 15 -15 18 -15 38 2 17 16 20 27 14 60 -3 22 -9 83 -13 136 -5 75 -11 102 -26 118 -22 24 -30 26 -43 9z"/>
<path d="M3174 749 c-10 -17 13 -36 27 -22 12 12 4 33 -11 33 -5 0 -12 -5 -16 -11z"/>
<path d="M3022 698 c-7 -7 -12 -20 -12 -30 0 -10 -4 -26 -9 -36 -13 -26 -31 -109 -31 -146 0 -29 24 -66 43 -66 3 0 13 15 22 33 12 23 15 53 13 104 -1 47 2 77 10 85 20 20 8 68 -18 68 -3 0 -11 -5 -18 -12z"/>
<path d="M2620 655 c-10 -13 -10 -19 5 -35 9 -10 14 -23 11 -28 -3 -5 1 -15 9 -22 7 -6 12 -17 9 -25 -7 -17 15 -30 29 -16 7 7 5 16 -8 31 -10 11 -15 20 -10 20 4 0 2 7 -5 15 -10 12 -10 18 0 30 10 12 10 18 0 30 -16 19 -24 19 -40 0z"/>
<path d="M3124 619 c-10 -17 13 -36 27 -22 12 12 4 33 -11 33 -5 0 -12 -5 -16 -11z"/>
<path d="M3256 621 c-3 -5 1 -14 8 -20 16 -13 32 2 21 19 -8 12 -22 13 -29 1z"/>
<path d="M3094 529 c-10 -17 13 -36 27 -22 12 12 4 33 -11 33 -5 0 -12 -5 -16 -11z"/>
<path d="M2867 471 c-6 -29 -2 -36 29 -45 17 -5 20 -2 21 28 1 28 -3 35 -22 38 -19 4 -24 0 -28 -21z"/>
<path d="M2606 382 c-9 -15 12 -54 25 -47 12 8 11 18 -4 40 -10 12 -16 14 -21 7z"/>
<path d="M2661 336 c-9 -10 -9 -16 -1 -21 17 -10 37 12 24 25 -8 8 -15 6 -23 -4z"/>
<path d="M2960 250 c0 -5 5 -10 10 -10 6 0 10 5 10 10 0 6 -4 10 -10 10 -5 0 -10 -4 -10 -10z"/>
<path d="M2875 211 c-7 -12 12 -24 25 -16 11 7 4 25 -10 25 -5 0 -11 -4 -15 -9z"/>
</g>
</g>
  <g id="id2:id2" transform="matrix(1.25,0,0,1.25,0.0,0.0)"><g transform="translate(0.000000,136.000000) scale(0.040000,-0.040000)" fill="#b0b7bf" stroke="none">
<path d="M2622 3163 c-14 -3 -22 -10 -19 -18 3 -7 0 -18 -6 -24 -9 -9 -6 -16 12 -30 30 -23 20 -41 -23 -41 -42 0 -90 41 -81 69 8 25 -6 32 -43 25 -25 -5 -29 -10 -28 -35 1 -15 10 -35 20 -42 27 -19 11 -41 -23 -32 -14 4 -33 8 -41 10 -8 1 -14 10 -12 19 4 20 -25 33 -40 18 -9 -9 -7 -16 5 -30 24 -26 4 -45 -31 -29 -22 10 -27 9 -40 -11 -15 -23 -46 -29 -57 -11 -5 7 -13 5 -25 -6 -10 -9 -24 -14 -30 -10 -6 4 -20 -1 -31 -11 -15 -14 -22 -15 -32 -5 -9 10 -8 15 6 25 23 17 22 24 -5 28 -13 2 -31 -5 -42 -16 -17 -17 -17 -19 -2 -28 13 -7 14 -13 6 -23 -6 -8 -18 -11 -25 -9 -7 3 -19 -4 -25 -16 -8 -16 -15 -19 -23 -11 -11 11 -65 -13 -80 -36 -4 -7 -14 -10 -22 -6 -9 3 -21 0 -29 -6 -7 -6 -16 -8 -20 -4 -4 4 -16 -3 -26 -17 -14 -18 -16 -30 -9 -48 8 -20 5 -29 -11 -44 -16 -15 -20 -27 -15 -48 7 -32 -9 -48 -30 -30 -8 6 -19 9 -25 5 -15 -9 -2 -26 18 -23 12 2 16 -3 15 -17 -1 -10 3 -27 8 -37 7 -13 4 -25 -11 -46 -18 -24 -19 -33 -10 -57 9 -25 8 -31 -6 -42 -22 -16 -31 -10 -39 27 -8 34 -43 60 -55 40 -4 -7 -3 -25 3 -41 10 -25 8 -31 -11 -49 -23 -22 -29 -54 -12 -65 6 -3 10 -17 10 -30 0 -13 5 -27 10 -30 6 -3 10 -15 10 -26 0 -11 8 -22 18 -26 9 -3 25 -13 35 -21 9 -8 17 -12 17 -7 0 4 7 2 15 -5 17 -14 21 -85 5 -95 -5 -3 -10 -19 -10 -35 0 -39 -11 -43 -44 -16 -23 17 -29 31 -31 70 -2 26 -8 53 -13 59 -5 7 -12 29 -16 50 -4 20 -11 37 -15 37 -14 0 -22 -83 -11 -120 5 -19 10 -54 10 -77 0 -23 5 -45 10 -48 13 -8 13 -122 0 -130 -5 -3 -10 -23 -10 -43 0 -20 -5 -54 -9 -76 -10 -42 -4 -106 10 -106 5 0 9 11 9 25 0 14 7 28 15 31 9 4 15 19 15 35 0 16 4 37 9 47 5 9 12 25 15 34 2 9 13 15 23 14 16 -3 18 -11 14 -67 -3 -58 -21 -102 -40 -96 -3 1 -6 -2 -6 -8 0 -5 5 -9 12 -9 6 1 22 -9 34 -22 20 -21 20 -26 9 -54 -12 -28 -11 -34 10 -62 24 -33 19 -63 -12 -63 -22 0 -71 -56 -59 -68 7 -7 15 -6 25 2 22 19 28 -4 6 -24 -23 -20 -23 -24 -10 -45 7 -12 12 -12 28 4 20 17 40 7 27 -14 -10 -17 26 -62 47 -57 18 5 32 -8 33 -30 0 -6 11 -24 25 -40 13 -15 23 -36 22 -45 -3 -19 42 -111 64 -129 7 -6 11 -15 8 -20 -7 -11 27 -58 42 -59 21 0 35 -25 21 -39 -9 -9 -9 -14 3 -21 11 -7 23 -1 46 21 26 26 33 28 43 15 10 -11 9 -16 -2 -23 -23 -13 -48 -59 -42 -75 8 -21 52 -40 61 -27 4 7 17 0 34 -16 18 -17 30 -23 35 -16 3 6 11 9 16 5 6 -3 -1 -20 -15 -39 -22 -29 -24 -35 -11 -45 10 -9 19 -9 28 -2 6 5 28 8 47 7 22 -1 40 4 48 14 11 14 14 13 30 -9 9 -14 26 -34 38 -45 11 -11 30 -36 41 -55 12 -20 33 -46 47 -59 13 -13 23 -28 20 -35 -2 -6 2 -20 10 -31 13 -18 11 -23 -15 -56 -24 -31 -27 -39 -15 -48 10 -9 16 -9 21 -1 4 6 4 14 1 17 -3 3 -1 12 5 20 9 10 15 10 25 2 18 -15 18 -39 -2 -67 -23 -34 -6 -42 20 -9 20 24 24 26 41 13 l19 -14 -18 -27 c-27 -41 -8 -45 25 -5 31 38 34 47 20 69 -8 12 -13 12 -24 3 -12 -10 -18 -7 -31 14 -17 25 -16 54 3 54 5 0 13 -5 16 -10 5 -8 11 -7 21 1 19 16 44 -5 44 -37 0 -28 15 -38 55 -39 24 0 30 -4 31 -23 2 -33 -23 -39 -51 -12 -23 21 -25 22 -31 5 -8 -20 25 -51 66 -62 14 -3 49 -17 78 -31 39 -18 55 -22 65 -13 19 15 28 3 14 -20 -15 -25 5 -48 26 -31 8 7 16 9 19 6 3 -3 22 4 42 16 20 11 44 20 54 20 23 0 46 37 49 79 3 54 10 66 28 51 13 -11 20 -9 41 11 13 12 22 29 20 35 -3 7 2 18 10 24 16 14 44 -2 44 -26 0 -18 20 -28 32 -16 6 6 17 8 24 5 27 -10 14 15 -21 41 -39 30 -42 40 -19 85 13 25 19 29 30 21 7 -7 18 -9 23 -6 5 4 12 2 15 -3 4 -5 2 -12 -4 -16 -5 -3 -10 -9 -10 -13 0 -11 66 -53 77 -50 6 2 19 -7 29 -20 18 -21 22 -22 47 -11 15 7 27 16 27 20 0 13 -32 20 -45 9 -14 -12 -36 6 -29 25 3 7 0 16 -6 20 -8 5 -6 13 6 26 16 18 16 20 0 32 -15 11 -15 16 -4 37 7 14 28 41 46 60 31 33 34 34 46 17 17 -22 56 -15 82 15 16 16 16 21 4 28 -10 6 -23 2 -41 -16 -39 -38 -43 -14 -9 52 17 32 29 63 26 70 -3 7 2 18 9 24 12 10 17 7 24 -13 15 -38 46 -52 73 -33 16 12 25 13 35 4 7 -6 17 -8 21 -4 4 4 -1 12 -11 17 -23 13 -22 36 4 50 14 7 19 17 16 31 -4 14 0 22 14 25 11 3 25 17 31 32 9 25 10 25 23 8 9 -13 20 -17 35 -12 12 4 19 9 16 12 -3 3 4 17 14 31 11 13 20 29 20 35 0 6 12 25 26 44 14 19 23 37 20 40 -3 4 1 14 10 24 19 21 1 37 -22 18 -24 -20 -41 4 -24 35 7 14 10 32 7 40 -4 9 1 20 11 25 14 8 15 13 5 30 -7 11 -9 22 -3 26 5 3 11 1 15 -4 3 -5 20 -17 37 -26 36 -17 60 -6 39 19 -10 12 -9 17 8 25 16 9 22 8 30 -6 5 -10 11 -16 13 -13 24 36 35 68 29 79 -6 9 -10 10 -15 2 -4 -6 -12 -9 -17 -5 -5 3 -7 10 -3 15 3 5 0 16 -6 24 -17 20 14 32 36 15 11 -10 18 -10 26 -2 9 9 4 19 -22 40 -33 28 -35 52 -4 52 17 0 18 9 4 46 -14 37 2 54 29 30 l19 -18 31 23 c30 22 33 46 4 34 -24 -9 -61 21 -68 56 -10 44 10 62 34 30 11 -14 23 -21 30 -17 7 4 18 2 26 -4 21 -17 30 11 19 53 -8 26 -15 31 -39 32 -27 0 -31 4 -41 50 -7 28 -13 96 -13 151 -1 79 -5 104 -16 114 -21 17 -15 56 7 52 9 -1 22 7 28 18 6 11 15 18 20 15 14 -8 23 16 11 28 -8 8 -14 8 -23 -1 -16 -16 -48 13 -48 45 0 44 47 107 80 108 11 0 14 8 12 30 -4 37 -8 41 -25 27 -8 -7 -17 -9 -20 -5 -4 3 -16 -2 -27 -12 -14 -13 -24 -15 -31 -8 -21 21 34 107 70 108 18 0 23 16 12 34 -8 12 -12 12 -24 2 -12 -9 -17 -9 -22 0 -6 8 -10 7 -17 -5 -10 -18 -34 -21 -43 -6 -7 12 11 49 37 73 15 15 17 22 7 33 -11 13 -14 13 -21 0 -7 -12 -14 -14 -28 -6 -21 12 -17 44 10 63 23 16 34 53 19 63 -7 4 -19 -3 -30 -17 -25 -33 -42 -15 -29 30 7 26 6 38 -8 57 -9 13 -23 24 -30 24 -14 0 -48 18 -74 38 -9 8 -21 11 -26 8 -5 -3 -15 1 -22 10 -7 8 -18 13 -25 11 -6 -3 -19 1 -29 8 -10 8 -24 11 -30 9 -7 -3 -19 2 -26 10 -7 10 -21 14 -35 10 -13 -3 -26 -1 -29 5 -4 6 -20 11 -36 11 -16 0 -32 4 -35 10 -3 5 -19 7 -35 3 -21 -4 -31 -1 -36 10 -8 22 -30 28 -58 17 -20 -7 -27 -5 -39 13 -13 20 -17 20 -57 8 -41 -12 -44 -12 -60 9 -10 13 -20 19 -23 14 -3 -5 -31 -9 -63 -9 -63 0 -84 18 -40 35 31 11 32 18 6 48 -22 27 -83 41 -95 22 -5 -8 -1 -16 9 -22 28 -16 2 -43 -54 -56 -61 -14 -160 -15 -250 -2 -66 9 -94 30 -95 69 0 17 -24 22 -63 14z m476 -230 c10 -16 78 -27 86 -14 11 16 47 13 68 -6 10 -9 35 -17 56 -18 20 -1 50 -7 67 -14 23 -10 34 -10 52 0 23 13 38 7 38 -14 0 -7 13 -11 32 -10 24 2 35 -2 43 -17 11 -21 36 -17 57 9 12 15 13 13 17 -16 1 -16 74 -54 82 -42 3 5 12 5 22 0 9 -5 24 -12 32 -15 8 -4 30 -15 49 -26 23 -15 37 -18 45 -10 17 13 29 0 15 -16 -8 -9 -6 -23 6 -48 10 -20 14 -44 10 -56 -4 -13 0 -31 10 -46 10 -16 14 -35 10 -57 -5 -24 -1 -39 14 -59 12 -14 21 -33 21 -41 0 -7 8 -21 18 -30 15 -14 17 -26 12 -72 -3 -31 -13 -63 -23 -72 -15 -16 -18 -15 -38 3 -16 15 -20 27 -16 56 3 23 0 44 -8 55 -8 10 -11 28 -9 39 6 25 -13 41 -29 25 -14 -14 -44 -14 -52 0 -4 6 2 13 14 16 29 7 26 23 -3 23 -14 0 -28 5 -31 10 -3 6 -15 10 -26 10 -11 0 -30 7 -43 15 -13 9 -28 15 -32 13 -5 -1 -19 4 -32 11 -19 10 -26 10 -39 0 -13 -11 -17 -10 -28 5 -10 14 -21 16 -44 11 -23 -5 -33 -3 -37 8 -9 25 -32 28 -70 7 -39 -22 -70 -16 -38 7 16 12 17 15 4 23 -20 13 -37 12 -45 0 -10 -16 -39 -11 -58 10 -18 21 -56 27 -73 11 -5 -6 -38 -11 -74 -13 l-65 -3 -1 -30 c0 -16 3 -35 8 -42 7 -8 6 -147 -1 -182 -2 -9 -54 45 -65 69 -7 14 -12 46 -10 73 1 38 -2 50 -17 58 -11 5 -19 18 -19 29 0 22 -19 31 -42 18 -11 -5 -25 -4 -37 4 -15 9 -23 9 -35 -1 -11 -10 -20 -10 -28 -3 -7 6 -26 12 -43 14 -17 2 -29 8 -27 16 4 20 -25 14 -30 -6 -4 -15 -12 -18 -38 -14 -24 3 -35 0 -42 -12 -8 -15 -12 -15 -26 -4 -39 31 -62 39 -82 28 -11 -6 -19 -16 -17 -23 3 -16 -53 -10 -73 8 -12 11 -18 11 -32 1 -10 -7 -15 -16 -11 -19 13 -13 -29 -19 -52 -7 -28 15 -48 5 -40 -19 8 -27 -51 -67 -95 -65 -53 2 -53 3 -40 19 7 9 10 18 6 22 -3 4 -12 -2 -20 -12 -10 -15 -17 -17 -27 -8 -10 8 -26 5 -59 -10 -25 -11 -51 -19 -58 -18 -6 1 -17 -10 -22 -25 -8 -20 -13 -24 -23 -15 -17 14 -61 -24 -53 -46 3 -8 -1 -25 -10 -39 -15 -22 -15 -27 0 -59 18 -37 14 -58 -9 -49 -18 7 -33 -62 -16 -79 14 -14 15 -159 1 -173 -5 -5 -12 -35 -16 -66 -5 -46 -3 -63 10 -84 14 -20 17 -44 15 -114 -2 -72 0 -93 14 -108 21 -23 22 -85 2 -102 -22 -18 -18 -55 7 -72 20 -14 21 -17 8 -33 -12 -15 -12 -19 8 -33 16 -13 20 -23 15 -41 -4 -16 -1 -26 11 -33 14 -8 15 -13 5 -24 -9 -11 -8 -19 7 -35 11 -12 18 -29 16 -39 -2 -10 2 -21 7 -24 6 -4 8 -13 5 -20 -3 -7 2 -19 11 -26 8 -7 15 -20 15 -29 0 -9 5 -22 12 -29 7 -7 8 -12 3 -12 -4 0 0 -9 9 -19 10 -11 13 -22 8 -25 -5 -3 -15 1 -22 9 -7 8 -9 15 -5 15 3 0 -10 19 -29 42 -24 27 -34 48 -30 60 4 13 -2 21 -21 28 -23 9 -25 13 -15 26 10 11 10 18 2 26 -6 6 -8 16 -5 23 2 8 -5 18 -16 24 -12 7 -18 17 -14 27 3 8 -2 21 -13 28 -16 12 -16 16 -4 31 12 15 11 19 -8 34 -18 13 -20 19 -11 28 10 10 9 19 -2 40 -7 16 -14 52 -14 81 0 40 -4 56 -17 63 -15 8 -17 29 -17 156 0 94 4 152 11 160 7 9 9 49 5 124 -5 87 -3 126 10 176 12 51 14 70 5 84 -17 27 -15 56 4 67 12 6 18 25 20 58 1 27 7 61 13 76 6 16 7 38 1 57 -6 24 -4 33 11 47 10 9 19 23 19 31 0 7 7 16 15 19 8 4 15 12 15 20 0 19 -10 18 -26 -3 -12 -17 -13 -17 -20 0 -5 13 2 26 27 47 19 16 41 29 50 30 9 0 22 7 29 15 7 8 21 15 31 15 10 0 21 5 24 10 4 6 15 8 24 5 10 -3 24 1 31 10 7 9 21 13 31 10 12 -4 22 1 29 15 9 17 14 19 26 9 12 -10 20 -8 44 9 17 13 31 18 35 12 9 -15 35 -12 35 4 0 22 16 27 44 15 21 -10 30 -9 52 6 18 11 38 15 59 12 18 -3 44 0 57 7 37 19 80 25 98 14 21 -13 86 -2 93 16 7 18 374 17 385 -1z m-301 -442 c1 -30 -2 -60 -8 -67 -15 -19 -1 -38 17 -23 20 17 43 4 37 -20 -3 -12 0 -28 6 -35 10 -12 8 -17 -8 -25 -21 -12 -35 0 -36 29 0 10 -10 15 -30 15 -20 0 -29 4 -27 14 2 7 -4 21 -13 31 -11 12 -13 20 -6 25 6 3 11 25 11 49 0 44 15 68 39 64 10 -2 15 -20 18 -57z m87 -22 c-3 -5 -10 -7 -15 -3 -5 3 -7 10 -3 15 3 5 10 7 15 3 5 -3 7 -10 3 -15z m-484 -80 c0 -4 -7 -13 -16 -20 -14 -11 -19 -9 -36 14 -11 15 -28 27 -39 27 -27 0 -37 30 -14 46 15 11 23 8 61 -24 24 -20 44 -39 44 -43z m524 50 c-3 -5 -10 -7 -15 -3 -5 3 -7 10 -3 15 3 5 10 7 15 3 5 -3 7 -10 3 -15z m-1233 -31 c12 3 41 -64 37 -86 -6 -30 -30 -18 -46 23 -9 22 -22 45 -31 51 -9 7 -12 18 -7 30 l7 19 15 -20 c9 -11 20 -19 25 -17z m1275 -34 c26 -38 3 -54 -24 -16 -20 27 -20 42 -1 42 5 0 16 -11 25 -26z m474 -24 c0 -37 -13 -45 -35 -20 l-18 20 18 20 c22 25 35 17 35 -20z m-716 -41 c-3 -5 -10 -7 -15 -3 -5 3 -7 10 -3 15 3 5 10 7 15 3 5 -3 7 -10 3 -15z m294 -34 c4 -1 17 -6 30 -13 17 -10 27 -10 43 -1 17 9 25 8 37 -5 14 -14 13 -16 -9 -25 -15 -5 -29 -5 -37 2 -16 13 -29 0 -15 -14 12 -12 8 -34 -10 -57 -15 -20 -48 15 -41 43 4 17 0 24 -16 28 -12 3 -19 10 -16 16 4 6 2 19 -3 29 -14 26 0 38 17 15 7 -10 16 -18 20 -18z m-1274 4 c-3 -5 -10 -7 -15 -3 -5 3 -7 10 -3 15 3 5 10 7 15 3 5 -3 7 -10 3 -15z m1591 -10 c-4 -5 -14 -5 -26 1 -11 6 -17 15 -14 21 4 5 14 5 26 -1 11 -6 17 -15 14 -21z m-30 -40 c4 -6 -3 -21 -15 -34 -24 -25 -19 -55 5 -35 15 12 30 -3 20 -20 -7 -11 -65 -4 -78 9 -10 10 9 51 22 51 5 0 11 9 14 20 6 22 22 26 32 9z m-341 -40 c-3 -5 -10 -7 -15 -3 -5 3 -7 10 -3 15 3 5 10 7 15 3 5 -3 7 -10 3 -15z m976 -23 c0 -5 7 -17 15 -26 12 -13 13 -29 6 -86 -4 -38 -5 -105 -1 -149 5 -59 4 -83 -5 -90 -7 -6 -15 -22 -17 -35 -1 -14 -7 -24 -13 -22 -10 2 -12 86 -4 250 3 81 2 95 -13 103 -21 12 -24 69 -6 87 10 10 15 9 25 -5 7 -9 13 -21 13 -27z m-224 -62 c-5 -13 -10 -14 -18 -6 -6 6 -8 18 -4 28 5 13 10 14 18 6 6 -6 8 -18 4 -28z m-337 -8 c8 -10 7 -21 -5 -45 -17 -34 -35 -39 -54 -16 -15 18 -32 10 -28 -12 2 -9 -4 -17 -13 -18 -10 -2 -26 -12 -38 -24 -18 -18 -25 -20 -43 -10 -17 9 -23 8 -30 -5 -5 -9 -13 -14 -19 -11 -14 9 -11 23 11 45 14 14 27 18 50 14 25 -5 31 -3 39 18 11 29 37 52 50 44 5 -3 20 3 32 14 29 23 33 24 48 6z m-1283 -7 c4 -6 8 -35 10 -63 3 -45 0 -56 -20 -75 -14 -13 -29 -20 -35 -16 -14 8 -14 72 -1 80 6 3 10 21 10 39 0 43 19 62 36 35z m948 -64 c9 -19 22 -36 29 -37 7 0 18 -2 26 -2 21 -2 24 -21 7 -36 -13 -10 -13 -16 -4 -34 7 -11 13 -31 13 -42 0 -12 6 -28 13 -37 10 -11 9 -17 -3 -27 -9 -7 -13 -21 -9 -35 7 -28 -11 -41 -32 -24 -12 10 -21 6 -52 -23 -72 -69 -95 -88 -107 -88 -7 0 -15 -7 -19 -15 -4 -11 -10 -13 -23 -6 -10 5 -26 12 -36 15 -13 4 -16 12 -12 25 3 12 0 21 -10 25 -20 7 -20 60 1 77 10 9 14 22 10 41 -4 19 -1 30 11 36 22 13 10 54 -24 86 -25 24 -27 66 -2 50 6 -3 15 0 20 7 4 7 18 14 31 14 18 0 22 5 21 22 -2 16 6 27 25 37 16 8 34 22 41 30 12 14 16 14 41 -4 15 -11 35 -35 44 -55z m-569 39 c0 -15 7 -19 37 -19 21 0 37 -4 35 -10 -1 -5 -22 -10 -47 -10 -32 1 -44 5 -42 14 1 7 -2 19 -8 25 -5 7 -7 16 -3 20 12 11 28 0 28 -20z m140 -114 c0 -16 -28 -25 -52 -16 -12 5 -13 9 -3 22 16 18 55 15 55 -6z m149 -21 c-13 -14 -21 -16 -28 -9 -8 8 -6 15 8 25 26 20 41 7 20 -16z m-80 -10 c-3 -5 -10 -7 -15 -3 -5 3 -7 10 -3 15 3 5 10 7 15 3 5 -3 7 -10 3 -15z m-500 -120 c-3 -5 -10 -7 -15 -3 -5 3 -7 10 -3 15 3 5 10 7 15 3 5 -3 7 -10 3 -15z m1460 -10 c-3 -5 -10 -7 -15 -3 -5 3 -7 10 -3 15 3 5 10 7 15 3 5 -3 7 -10 3 -15z m-380 -69 c-14 -14 -39 14 -29 31 5 8 12 6 23 -5 11 -11 13 -19 6 -26z m-110 9 c-3 -5 -10 -7 -15 -3 -5 3 -7 10 -3 15 3 5 10 7 15 3 5 -3 7 -10 3 -15z m-94 -53 c-13 -13 -35 7 -25 24 5 8 11 8 21 -1 10 -8 12 -15 4 -23z m184 -17 c-3 -5 -10 -7 -15 -3 -5 3 -7 10 -3 15 3 5 10 7 15 3 5 -3 7 -10 3 -15z m60 -80 c-3 -5 -10 -7 -15 -3 -5 3 -7 10 -3 15 3 5 10 7 15 3 5 -3 7 -10 3 -15z m109 -42 c-3 -6 -11 -3 -19 8 -7 10 -11 22 -7 28 3 6 11 3 19 -8 7 -10 11 -22 7 -28z m531 12 c-3 -5 -10 -7 -15 -3 -5 3 -7 10 -3 15 3 5 10 7 15 3 5 -3 7 -10 3 -15z m-30 -20 c-3 -5 -10 -7 -15 -3 -5 3 -7 10 -3 15 3 5 10 7 15 3 5 -3 7 -10 3 -15z m-1311 -40 c-17 -17 -37 -1 -22 17 8 10 15 12 23 4 7 -7 7 -13 -1 -21z m1322 -21 c-1 -13 -6 -21 -11 -19 -5 1 -8 8 -6 13 1 6 -2 16 -8 22 -5 7 -7 16 -3 19 11 12 30 -12 28 -35z m-2161 13 c3 -4 -3 -16 -13 -25 -21 -19 -37 -7 -27 19 6 16 32 20 40 6z m850 -40 l17 -19 -22 -16 c-25 -17 -49 -6 -49 24 0 35 28 40 54 11z m150 -12 c-3 -5 -10 -7 -15 -3 -5 3 -7 10 -3 15 3 5 10 7 15 3 5 -3 7 -10 3 -15z m60 0 c-3 -5 -10 -7 -15 -3 -5 3 -7 10 -3 15 3 5 10 7 15 3 5 -3 7 -10 3 -15z m-1039 -19 c4 -6 1 -17 -5 -26 -10 -11 -16 -12 -26 -3 -11 9 -11 15 -3 25 14 17 25 18 34 4z m1063 -53 c1 -6 6 -54 10 -105 5 -51 14 -98 20 -104 19 -19 42 10 42 52 0 20 3 40 8 44 4 4 7 12 7 17 0 5 3 9 8 9 4 0 6 -1 5 -2 -2 -2 8 -18 21 -37 19 -27 22 -37 13 -50 -7 -9 -16 -25 -21 -36 -5 -12 -16 -27 -26 -35 -12 -10 -15 -23 -10 -46 4 -25 1 -35 -11 -42 -12 -7 -15 -18 -11 -43 3 -23 0 -40 -11 -51 -10 -12 -12 -22 -5 -30 15 -20 -13 -80 -35 -76 -10 2 -16 12 -15 23 2 11 5 74 7 140 3 88 1 124 -9 135 -7 8 -18 53 -25 100 -6 47 -14 92 -17 100 -11 31 -12 64 -1 77 9 11 15 10 33 -7 12 -11 22 -26 23 -33z m-758 2 c0 -19 -20 -18 -30 1 -15 28 -1 49 17 25 7 -11 13 -22 13 -26z m914 0 c-3 -5 -10 -7 -15 -3 -5 3 -7 10 -3 15 3 5 10 7 15 3 5 -3 7 -10 3 -15z m1010 -11 c-3 -5 -12 -4 -20 3 -7 6 -11 15 -8 21 3 5 12 4 20 -3 7 -6 11 -15 8 -21z m-2220 -19 c-3 -5 -10 -7 -15 -3 -5 3 -7 10 -3 15 3 5 10 7 15 3 5 -3 7 -10 3 -15z m345 -59 c9 -19 25 -47 35 -62 18 -28 16 -58 -4 -58 -6 0 -17 15 -25 33 -7 17 -25 47 -39 66 -26 34 -32 61 -19 74 10 10 35 -15 52 -53z m1525 -111 c-3 -5 -10 -7 -15 -3 -5 3 -7 10 -3 15 3 5 10 7 15 3 5 -3 7 -10 3 -15z m-1720 -49 c-14 -14 -39 14 -29 31 5 8 12 6 23 -5 11 -11 13 -19 6 -26z m326 -34 c-11 -29 -30 -27 -30 3 0 22 21 44 32 33 5 -5 4 -21 -2 -36z m1325 24 c3 -5 1 -19 -6 -31 -10 -19 -12 -20 -27 -6 -13 13 -13 19 -2 31 14 18 26 20 35 6z m-91 -31 c-3 -5 -10 -7 -15 -3 -5 3 -7 10 -3 15 3 5 10 7 15 3 5 -3 7 -10 3 -15z m-404 -142 c-11 -19 -32 -38 -45 -41 -20 -5 -25 -13 -27 -39 -1 -17 -2 -39 -4 -47 -1 -8 -2 -19 -3 -24 -1 -5 -9 -2 -18 6 -19 17 -59 32 -83 33 -26 0 -16 28 11 30 23 3 47 21 138 102 44 39 60 29 31 -20z m-976 -48 c-3 -5 -10 -7 -15 -3 -5 3 -7 10 -3 15 3 5 10 7 15 3 5 -3 7 -10 3 -15z m402 -58 c-23 -25 -36 -19 -36 18 0 38 10 45 34 22 l20 -20 -18 -20z m-206 -5 c-17 -22 -32 -9 -19 16 8 14 14 17 22 9 7 -7 6 -15 -3 -25z m765 -5 c7 -12 -12 -24 -25 -16 -11 7 -4 25 10 25 5 0 11 -4 15 -9z m259 -41 c-14 -14 -39 14 -29 31 5 8 12 6 23 -5 11 -11 13 -19 6 -26z m-555 -90 c1 -43 -3 -81 -8 -85 -15 -8 -31 28 -31 69 0 20 -5 44 -11 54 -9 15 -8 24 7 46 16 25 19 26 30 12 6 -9 12 -52 13 -96z m-273 -1 c10 -17 -13 -36 -27 -22 -12 12 -4 33 11 33 5 0 12 -5 16 -11z m514 -139 c0 -46 -16 -93 -29 -85 -11 6 -8 105 3 124 13 20 26 1 26 -39z m-222 -19 c-4 -48 -32 -50 -36 -3 -5 49 4 68 24 51 10 -8 14 -25 12 -48z m96 -62 c-3 -5 -10 -7 -15 -3 -5 3 -7 10 -3 15 3 5 10 7 15 3 5 -3 7 -10 3 -15z m-150 -150 c-3 -5 -10 -7 -15 -3 -5 3 -7 10 -3 15 3 5 10 7 15 3 5 -3 7 -10 3 -15z m240 0 c-3 -5 -10 -7 -15 -3 -5 3 -7 10 -3 15 3 5 10 7 15 3 5 -3 7 -10 3 -15z"/>
<path d="M2204 2805 c-4 -8 -1 -22 6 -30 12 -14 7 -19 -13 -16 -23 4 4 -26 37 -43 34 -17 37 -22 32 -47 -5 -28 -4 -29 22 -23 15 4 32 11 38 15 7 6 21 2 35 -8 52 -38 71 -46 80 -32 5 8 2 20 -7 30 -20 22 -8 29 27 17 21 -7 33 -7 43 1 10 8 18 5 36 -14 25 -27 60 -34 60 -12 0 7 -5 18 -12 25 -8 8 -8 15 1 26 14 16 7 36 -12 36 -14 0 -67 54 -67 69 0 20 -17 20 -59 -1 -44 -22 -61 -49 -61 -98 0 -16 -4 -31 -9 -35 -10 -6 -61 55 -61 73 0 11 -49 51 -88 71 -18 10 -23 9 -28 -4z"/>
<path d="M2560 2800 c0 -11 5 -20 10 -20 6 0 10 9 10 20 0 11 -4 20 -10 20 -5 0 -10 -9 -10 -20z"/>
<path d="M3150 2805 c-7 -9 -19 -14 -26 -11 -7 3 -16 1 -20 -5 -4 -7 -10 -6 -18 1 -7 5 -27 7 -44 4 -24 -5 -31 -12 -34 -35 -4 -23 -1 -29 14 -29 11 0 29 -5 40 -11 16 -8 31 -8 59 1 30 10 41 10 53 1 17 -14 39 -6 33 12 -2 7 -10 12 -18 12 -8 1 -12 7 -10 15 13 49 -4 75 -29 45z"/>
<path d="M3518 2790 c-15 -11 -33 -20 -41 -20 -16 0 -47 -31 -47 -48 0 -6 -9 -16 -20 -22 -11 -6 -20 -19 -20 -28 0 -10 -5 -23 -11 -29 -8 -8 -7 -13 2 -18 7 -5 19 1 30 16 15 20 20 22 31 11 11 -11 10 -16 -6 -28 l-20 -14 20 -14 c16 -13 21 -13 33 -1 12 11 12 17 1 29 -19 23 4 50 30 34 25 -16 48 -3 52 29 2 22 8 28 28 28 20 0 25 5 25 25 0 18 -5 25 -20 25 -13 0 -20 7 -20 19 0 27 -18 30 -47 6z"/>
<path d="M3260 2745 c0 -38 11 -55 36 -55 24 0 44 25 44 57 0 15 -8 19 -40 20 -36 2 -40 -1 -40 -22z"/>
<path d="M3661 2749 c-24 -20 -24 -38 1 -23 7 4 21 9 30 9 26 2 35 15 18 25 -20 13 -21 12 -49 -11z"/>
<path d="M3737 2708 l-6 -22 -20 18 c-13 12 -21 14 -26 6 -3 -6 -14 -9 -23 -8 -10 2 -18 -5 -20 -17 -2 -11 -18 -33 -35 -49 -27 -24 -28 -29 -14 -37 9 -5 14 -16 11 -24 -4 -10 0 -15 14 -15 12 0 24 -4 27 -10 10 -16 52 -12 59 6 8 22 25 8 19 -16 -7 -28 0 -25 40 15 21 21 30 38 25 43 -11 11 7 52 22 52 18 0 10 29 -10 40 -11 6 -17 16 -14 22 4 6 3 8 -4 4 -6 -3 -13 -2 -17 4 -10 16 -22 11 -28 -12z"/>
<path d="M2177 2703 c-10 -9 -8 -25 3 -43 8 -12 11 -13 19 -1 16 24 -3 63 -22 44z"/>
<path d="M3208 2680 c-10 -17 -13 -32 -7 -35 12 -8 31 4 24 15 -3 4 2 13 10 20 8 7 12 16 9 21 -9 15 -18 10 -36 -21z"/>
<path d="M1999 2682 c-42 -25 -54 -50 -34 -72 12 -14 15 -27 10 -51 -7 -30 -6 -32 16 -26 15 4 30 0 41 -10 24 -22 49 -3 28 21 -8 10 -10 28 -6 50 5 25 3 35 -9 40 -12 4 -14 10 -5 25 22 43 6 52 -41 23z"/>
<path d="M3302 2633 c4 -21 33 -25 33 -3 0 8 -8 16 -18 18 -14 3 -18 -1 -15 -15z"/>
<path d="M2340 2610 c0 -5 5 -10 10 -10 6 0 10 5 10 10 0 6 -4 10 -10 10 -5 0 -10 -4 -10 -10z"/>
<path d="M2220 2595 c0 -8 5 -15 10 -15 6 0 10 7 10 15 0 8 -4 15 -10 15 -5 0 -10 -7 -10 -15z"/>
<path d="M3560 3030 c0 -5 5 -10 10 -10 6 0 10 5 10 10 0 6 -4 10 -10 10 -5 0 -10 -4 -10 -10z"/>
<path d="M2000 3010 c0 -5 5 -10 10 -10 6 0 10 5 10 10 0 6 -4 10 -10 10 -5 0 -10 -4 -10 -10z"/>
<path d="M1755 2860 c-4 -6 -3 -16 3 -22 6 -6 12 -6 17 2 4 6 3 16 -3 22 -6 6 -12 6 -17 -2z"/>
<path d="M4077 2656 c-6 -15 1 -26 15 -26 4 0 8 9 8 20 0 23 -15 27 -23 6z"/>
<path d="M4120 1976 c0 -97 10 -138 24 -101 3 8 11 14 18 13 9 -2 14 14 16 55 3 51 1 58 -15 55 -15 -2 -19 5 -21 40 -2 23 -7 42 -13 42 -5 0 -9 -46 -9 -104z"/>
<path d="M1656 1559 c-28 -22 -30 -27 -17 -48 7 -11 14 -9 35 14 44 48 31 73 -18 34z"/>
<path d="M1800 1210 c0 -5 5 -10 11 -10 5 0 7 5 4 10 -3 6 -8 10 -11 10 -2 0 -4 -4 -4 -10z"/>
<path d="M1765 1190 c3 -5 8 -10 11 -10 2 0 4 5 4 10 0 6 -5 10 -11 10 -5 0 -7 -4 -4 -10z"/>
<path d="M3140 370 c0 -5 5 -10 10 -10 6 0 10 5 10 10 0 6 -4 10 -10 10 -5 0 -10 -4 -10 -10z"/>
<path d="M3086 343 c-11 -11 -6 -23 9 -23 8 0 15 4 15 9 0 13 -16 22 -24 14z"/>
<path d="M2900 170 c0 -5 5 -10 10 -10 6 0 10 5 10 10 0 6 -4 10 -10 10 -5 0 -10 -4 -10 -10z"/>
<path d="M2960 170 c0 -5 5 -10 10 -10 6 0 10 5 10 10 0 6 -4 10 -10 10 -5 0 -10 -4 -10 -10z"/>
</g>
</g>
</svg>
