<svg xmlns="http://www.w3.org/2000/svg" version="1.0" width="1696.000000pt" height="1832.000000pt" viewBox="0 0 1696.000000 1832.000000" preserveAspectRatio="xMidYMid meet">
  <g transform="translate(0.000000,1832.000000) scale(0.100000,-0.100000)" stroke="none">
    <path d="M 0 0 H 16960.0 V 18320.0 H 0 Z" fill="#ffffff" id="background"/>
    <path stroke="none" d="M7600 18029 c-117 -18 -217 -44 -285 -74 -16 -7 -46 -19 -65 -26 -19 -7 -79 -39 -133 -71 -53 -32 -101 -58 -106 -58 -5 0 -11 -3 -13 -8 -1 -4 -39 -34 -83 -67 -100 -75 -322 -296 -395 -394 -30 -40 -60 -78 -66 -85 -26 -27 -221 -327 -257 -396 -22 -41 -60 -111 -84 -155 -42 -77 -82 -157 -108 -220 -7 -16 -27 -64 -45 -105 -75 -175 -100 -239 -100 -256 0 -8 -4 -22 -10 -32 -14 -26 -86 -249 -100 -312 -7 -30 -16 -66 -20 -80 -4 -14 -13 -45 -20 -70 -6 -25 -15 -58 -20 -75 -4 -16 -13 -59 -19 -95 -12 -65 -25 -136 -42 -220 -8 -42 -15 -94 -39 -285 -25 -203 -30 -254 -31 -329 0 -45 -4 -112 -8 -151 -5 -38 -4 -131 0 -205 5 -74 13 -214 19 -310 14 -230 41 -418 88 -625 16 -69 63 -238 69 -248 3 -5 9 -23 13 -41 12 -47 61 -180 71 -191 5 -5 9 -15 9 -22 0 -15 94 -208 150 -308 113 -204 332 -432 516 -536 55 -31 115 -62 134 -68 19 -6 62 -19 95 -30 122 -40 286 -51 427 -30 132 20 328 86 413 140 25 16 48 29 51 29 8 0 116 72 184 124 233 174 439 399 584 636 33 52 74 119 92 147 19 29 34 55 34 58 0 4 17 32 38 63 47 70 262 503 281 568 5 16 24 67 41 114 38 100 114 326 131 390 6 25 15 59 20 75 50 177 85 354 131 665 11 73 24 270 34 499 7 152 -8 538 -26 676 -5 39 -14 113 -20 165 -19 159 -39 280 -65 400 -31 146 -43 190 -73 260 -6 14 -13 34 -15 45 -26 107 -193 448 -251 515 -12 14 -61 77 -109 141 -144 192 -284 304 -500 398 -148 65 -362 94 -517 70z" fill="#2b2e34" id="2b2e34-000001"/>
    <path stroke="none" d="M11945 17110 c-16 -5 -57 -14 -90 -20 -33 -7 -71 -16 -85 -20 -14 -4 -45 -14 -70 -21 -25 -7 -70 -25 -100 -39 -30 -15 -71 -33 -90 -40 -19 -7 -53 -25 -75 -40 -22 -14 -53 -31 -69 -38 -26 -11 -123 -86 -217 -166 -19 -17 -52 -44 -73 -61 -36 -27 -117 -115 -241 -260 -27 -32 -79 -102 -115 -154 -36 -53 -109 -160 -163 -237 -53 -78 -97 -144 -97 -147 0 -3 -40 -78 -90 -167 -49 -89 -90 -164 -90 -167 0 -3 -8 -17 -18 -31 -10 -15 -33 -63 -51 -107 -18 -44 -42 -99 -52 -122 -11 -24 -19 -45 -19 -48 0 -3 -10 -27 -21 -53 -37 -81 -47 -106 -64 -152 -9 -25 -20 -54 -25 -65 -7 -18 -34 -109 -62 -210 -22 -81 -28 -101 -47 -160 -19 -58 -37 -143 -80 -380 -11 -60 -23 -123 -26 -140 -3 -16 -10 -77 -15 -135 -5 -58 -15 -172 -22 -255 -17 -195 -10 -696 12 -855 4 -36 13 -112 20 -170 13 -122 27 -227 40 -290 53 -255 62 -294 80 -335 5 -11 23 -63 40 -115 34 -100 71 -183 143 -315 55 -101 71 -129 77 -135 3 -3 17 -21 30 -40 14 -19 30 -42 37 -50 6 -8 50 -62 96 -120 70 -88 137 -153 237 -233 209 -167 510 -256 766 -228 154 18 318 57 419 101 129 56 287 140 320 170 11 10 33 25 48 33 15 8 45 30 65 48 20 19 71 63 112 99 163 140 322 326 488 570 39 58 80 116 91 130 11 14 21 28 21 32 0 7 49 93 132 232 33 56 106 207 187 389 45 100 54 121 61 146 5 14 22 64 40 111 52 141 94 279 140 460 12 47 25 101 30 120 14 54 21 90 31 150 5 30 14 78 19 105 16 71 30 158 40 245 5 41 14 118 20 170 34 294 47 633 31 814 -28 317 -33 363 -41 406 -5 25 -14 77 -20 115 -22 134 -32 190 -41 220 -5 17 -17 59 -27 95 -11 36 -25 85 -32 110 -30 107 -40 134 -90 245 -10 22 -25 57 -34 78 -54 127 -122 245 -208 365 -98 136 -251 296 -332 349 -22 14 -48 33 -58 42 -26 25 -213 116 -278 136 -120 37 -184 45 -350 44 -91 -1 -178 -5 -195 -9z" fill="#2b2e34" id="2b2e34-000002"/>
    <path stroke="none" d="M3230 14928 c-186 -26 -419 -126 -582 -249 -102 -77 -276 -250 -343 -342 -139 -190 -253 -375 -305 -492 -32 -73 -57 -129 -79 -177 -11 -24 -34 -86 -51 -138 -17 -52 -35 -104 -40 -115 -38 -92 -107 -396 -139 -620 -35 -247 -43 -668 -16 -940 24 -251 26 -269 35 -310 4 -22 13 -65 19 -95 6 -30 18 -91 27 -135 9 -44 20 -98 24 -120 4 -22 24 -89 44 -150 20 -60 45 -139 57 -175 11 -36 29 -84 40 -107 10 -24 28 -62 38 -85 102 -222 162 -334 231 -430 96 -132 121 -162 221 -271 156 -167 170 -180 299 -265 221 -145 392 -195 662 -194 150 0 194 5 318 39 30 8 69 18 87 23 40 10 193 88 258 132 63 42 213 165 223 183 4 7 43 53 87 101 44 48 87 97 96 108 26 34 179 264 179 269 0 3 17 34 38 68 100 168 205 422 272 659 7 25 16 56 20 70 4 14 13 52 20 85 6 33 15 74 19 90 15 52 40 206 61 370 16 130 30 352 30 486 0 126 -23 460 -40 579 -5 36 -13 100 -19 142 -6 42 -13 90 -16 105 -27 129 -65 281 -88 353 -48 152 -81 248 -102 295 -13 28 -33 73 -45 100 -105 234 -283 515 -438 690 -78 89 -291 275 -315 275 -5 0 -21 8 -35 19 -44 30 -183 97 -247 119 -164 54 -348 72 -505 50z" fill="#2b2e34" id="2b2e34-000003"/>
    <path stroke="none" d="M15175 12400 c-60 -8 -115 -20 -260 -60 -69 -18 -199 -77 -340 -153 -71 -38 -298 -185 -343 -222 -9 -8 -51 -42 -92 -76 -112 -92 -256 -236 -340 -340 -41 -51 -80 -97 -85 -103 -6 -6 -32 -38 -58 -71 -26 -33 -58 -73 -71 -90 -20 -25 -142 -220 -206 -330 -10 -16 -34 -57 -54 -89 -37 -62 -122 -231 -175 -351 -17 -38 -36 -78 -41 -87 -6 -10 -10 -22 -10 -27 0 -6 -13 -38 -29 -73 -50 -106 -143 -387 -172 -518 -5 -25 -14 -63 -20 -85 -16 -66 -56 -303 -69 -410 -14 -116 -8 -618 8 -705 6 -30 16 -89 22 -130 7 -41 16 -95 20 -120 10 -57 57 -239 69 -265 5 -11 20 -49 34 -85 39 -102 77 -180 119 -242 21 -31 38 -60 38 -63 0 -10 111 -139 153 -178 61 -56 144 -118 212 -158 64 -39 91 -52 200 -94 250 -98 603 -101 860 -6 33 13 73 26 88 31 40 13 204 97 254 131 23 16 44 29 48 29 7 0 88 54 115 77 8 7 38 29 67 50 120 87 172 132 306 261 247 237 274 267 417 452 91 119 168 230 231 339 24 41 56 95 72 120 24 41 85 163 122 246 105 232 107 239 194 510 59 186 58 184 71 250 12 62 21 106 38 185 11 48 28 135 42 210 5 25 14 92 20 150 7 58 16 129 21 159 12 72 11 253 -1 366 -5 50 -15 135 -21 190 -6 55 -19 141 -30 190 -10 50 -24 113 -30 140 -9 45 -24 86 -92 265 -12 30 -34 78 -50 105 -17 28 -38 64 -47 80 -43 75 -65 110 -70 115 -3 3 -39 43 -80 90 -92 105 -98 110 -185 174 -77 56 -104 73 -185 112 -98 47 -158 68 -260 91 -78 18 -327 25 -425 13z" fill="#2b2e34" id="2b2e34-000004"/>
    <path stroke="none" d="M7640 11059 c-84 -11 -164 -25 -220 -39 -25 -6 -58 -14 -75 -16 -16 -3 -39 -9 -50 -14 -27 -11 -120 -44 -170 -60 -42 -13 -242 -110 -307 -148 -21 -12 -54 -31 -74 -43 -57 -32 -292 -194 -369 -255 -69 -54 -153 -127 -270 -234 -33 -30 -87 -80 -120 -110 -133 -122 -474 -471 -575 -590 -30 -36 -57 -67 -60 -70 -5 -5 -120 -137 -156 -180 -12 -14 -53 -61 -90 -106 -87 -102 -171 -203 -307 -374 -166 -206 -402 -458 -532 -568 -55 -47 -307 -217 -370 -250 -34 -18 -133 -63 -200 -92 -48 -20 -175 -63 -227 -76 -32 -8 -86 -21 -120 -30 -35 -9 -80 -20 -100 -25 -78 -19 -114 -28 -148 -38 -19 -5 -66 -19 -105 -30 -95 -26 -109 -31 -185 -64 -19 -9 -55 -23 -80 -33 -25 -9 -49 -21 -55 -26 -5 -4 -15 -8 -22 -8 -18 0 -111 -47 -236 -118 -20 -12 -54 -32 -74 -43 -101 -57 -376 -258 -423 -309 -3 -3 -30 -25 -60 -50 -69 -56 -248 -240 -330 -340 -34 -41 -77 -91 -95 -110 -28 -30 -118 -152 -237 -322 -18 -27 -60 -85 -94 -130 -33 -46 -74 -108 -91 -138 -17 -30 -40 -73 -53 -95 -27 -47 -61 -108 -93 -167 -13 -24 -34 -70 -46 -103 -13 -33 -29 -73 -36 -90 -53 -120 -86 -222 -115 -350 -13 -58 -24 -104 -39 -160 -6 -22 -15 -85 -21 -140 -6 -55 -15 -136 -20 -181 -29 -232 18 -753 90 -1004 10 -36 28 -99 40 -140 51 -178 56 -193 137 -370 14 -30 29 -64 33 -75 47 -120 228 -412 355 -575 37 -47 84 -107 105 -135 49 -64 343 -363 439 -446 41 -35 94 -82 118 -103 39 -35 113 -90 307 -229 90 -64 209 -129 370 -202 102 -45 267 -86 427 -104 84 -10 279 1 539 29 52 5 140 14 195 20 55 5 138 14 185 19 47 6 126 15 175 20 50 6 127 15 173 21 145 18 245 30 332 40 109 12 225 26 320 40 103 14 220 29 315 40 44 5 118 14 165 20 126 16 243 29 355 40 55 5 138 14 185 20 407 48 1263 48 1590 1 36 -6 83 -13 105 -16 22 -3 74 -10 115 -16 96 -13 346 -58 450 -80 84 -19 205 -51 290 -79 47 -15 119 -38 160 -50 41 -13 80 -27 85 -30 6 -4 37 -17 70 -30 57 -23 308 -148 405 -202 42 -23 68 -38 215 -118 30 -16 79 -43 108 -59 28 -16 81 -44 117 -63 109 -59 183 -99 230 -126 25 -15 72 -40 105 -57 33 -17 69 -36 80 -42 11 -7 88 -44 170 -83 83 -39 175 -84 205 -99 30 -15 93 -42 140 -60 47 -18 128 -50 180 -71 174 -70 349 -130 440 -150 30 -6 71 -16 90 -20 19 -5 60 -13 90 -19 30 -6 80 -16 110 -22 69 -16 480 -15 635 1 138 14 406 62 450 80 11 4 54 18 95 30 41 12 89 28 105 35 17 7 51 21 76 29 66 23 279 134 345 181 205 146 240 177 440 387 95 99 317 379 363 459 8 13 37 60 64 104 27 44 58 95 69 113 10 18 25 43 32 55 38 61 183 355 218 442 22 55 46 114 53 130 27 62 48 121 55 155 12 53 39 161 49 195 66 219 71 679 11 945 -5 25 -15 68 -20 95 -5 28 -14 70 -19 95 -9 43 -111 361 -130 405 -136 314 -275 585 -401 780 -31 50 -95 150 -140 224 -46 73 -102 159 -125 190 -113 153 -186 252 -230 315 -46 63 -90 118 -265 332 -36 43 -81 99 -100 124 -19 25 -39 50 -45 56 -9 11 -59 67 -169 193 -70 80 -113 129 -165 186 -61 68 -88 98 -211 245 -57 69 -114 136 -126 150 -110 128 -142 170 -283 375 -30 44 -58 82 -61 85 -14 11 -162 243 -222 345 -75 130 -228 435 -228 456 0 8 -4 19 -8 25 -4 5 -23 45 -41 89 -18 44 -37 89 -41 100 -5 11 -14 38 -21 60 -13 44 -46 139 -59 170 -5 11 -18 49 -30 85 -11 36 -25 73 -30 82 -6 10 -10 24 -10 31 0 15 -82 220 -127 317 -60 128 -83 175 -101 205 -98 167 -165 277 -175 287 -7 7 -50 63 -96 123 -97 128 -353 391 -461 473 -41 31 -77 59 -80 62 -13 15 -215 163 -229 168 -9 3 -35 18 -58 34 -23 15 -44 28 -48 28 -3 0 -38 22 -78 48 -40 27 -88 54 -107 62 -19 7 -84 37 -145 65 -161 76 -171 81 -275 115 -52 17 -104 34 -115 39 -23 10 -138 46 -175 56 -14 3 -59 15 -100 26 -41 11 -97 24 -125 30 -27 6 -68 15 -90 20 -44 10 -128 25 -220 39 -33 5 -89 14 -125 20 -36 6 -110 15 -165 20 -55 5 -143 14 -195 19 -111 12 -357 12 -450 0z" fill="#2b2e34" id="2b2e34-000005"/>
    <path stroke="none" d="M4822 7448 c56 -17 149 -104 181 -170 84 -174 117 -420 82 -613 -32 -172 -53 -228 -145 -390 -65 -114 -162 -219 -236 -255 -71 -34 -192 -35 -258 -1 -133 69 -229 272 -251 531 -6 75 5 207 25 290 6 25 15 61 19 80 14 60 77 206 110 253 17 25 31 49 31 52 0 11 61 87 100 124 44 42 104 83 144 97 43 16 148 17 198 2z" fill="#ffffff" id="ffffff-000002"/>
    <path stroke="none" d="M5969 7249 c59 -19 81 -32 128 -72 75 -67 103 -119 153 -282 31 -105 37 -305 12 -425 -29 -137 -75 -251 -141 -349 -20 -31 -49 -77 -64 -102 -34 -59 -131 -149 -193 -179 -38 -18 -67 -24 -129 -24 -116 -1 -169 18 -235 84 -87 87 -118 165 -160 411 -13 72 -1 184 38 375 31 150 141 346 255 455 100 96 236 139 336 108z" fill="#ffffff" id="ffffff-000003"/>
    <path stroke="none" d="M3547 6528 c128 -55 232 -194 278 -373 7 -27 19 -95 26 -150 8 -64 19 -108 30 -123 13 -17 16 -30 9 -45 -4 -12 -18 -48 -29 -79 -12 -32 -31 -84 -42 -115 -83 -225 -164 -348 -255 -389 -25 -11 -66 -17 -115 -18 -66 -1 -84 3 -131 28 -111 58 -182 146 -248 311 -9 23 -24 84 -40 163 -22 113 -5 328 35 447 67 196 183 327 315 356 44 10 130 3 167 -13z" fill="#ffffff" id="ffffff-000004"/>
    <path stroke="none" d="M6819 6009 c152 -49 214 -129 252 -327 26 -138 -30 -384 -128 -554 -53 -93 -165 -221 -250 -284 -151 -113 -329 -109 -449 11 -95 96 -122 223 -93 446 28 213 117 393 272 546 149 148 277 200 396 162z" fill="#ffffff" id="ffffff-000005"/>
    <path stroke="none" d="M5158 5840 c204 -55 321 -120 450 -255 88 -92 117 -136 208 -325 81 -169 121 -243 191 -356 67 -110 150 -234 163 -244 3 -3 20 -25 37 -50 17 -25 61 -81 97 -125 37 -44 72 -87 79 -95 7 -8 40 -50 75 -92 34 -42 62 -79 62 -83 0 -3 18 -32 40 -64 58 -87 131 -249 149 -336 7 -33 17 -73 22 -89 5 -16 9 -71 9 -123 0 -106 -22 -204 -70 -308 -16 -36 -30 -68 -30 -71 0 -3 -22 -37 -49 -77 -95 -141 -257 -284 -374 -329 -191 -74 -250 -79 -372 -32 -44 17 -98 37 -120 43 -22 7 -59 21 -82 32 -24 10 -47 19 -53 19 -6 0 -18 4 -28 9 -9 6 -40 21 -67 34 -28 13 -75 38 -105 54 -116 64 -187 100 -245 122 -33 13 -69 26 -80 31 -34 13 -88 28 -140 39 -27 6 -71 15 -97 21 -26 5 -82 10 -125 11 -43 0 -116 4 -163 8 -86 7 -156 3 -420 -26 -257 -28 -294 -32 -365 -43 -127 -20 -251 -23 -318 -10 -117 24 -270 111 -357 204 -59 62 -175 226 -209 293 -47 94 -56 119 -77 203 -19 78 -18 284 2 357 9 32 18 69 21 82 10 41 91 193 144 266 84 118 208 234 323 303 56 34 108 62 114 62 7 0 20 4 30 9 9 5 55 24 102 41 88 33 189 81 218 105 190 152 236 197 515 511 20 22 64 60 98 85 33 24 71 52 82 63 19 15 71 42 192 96 72 32 170 47 318 49 100 1 144 -3 205 -19z" fill="#ffffff" id="ffffff-000006"/>
    <path stroke="none" d="M3699 4668 c-79 -128 -110 -179 -164 -268 -32 -52 -67 -111 -77 -130 -11 -19 -28 -46 -38 -60 -10 -14 -28 -43 -41 -66 -13 -22 -50 -84 -83 -138 -48 -79 -56 -99 -46 -111 7 -8 24 -15 39 -15 14 0 57 -9 95 -19 38 -11 74 -17 80 -15 6 3 25 33 41 67 19 38 36 61 45 60 8 -1 38 -6 65 -13 28 -6 68 -15 90 -19 22 -5 52 -13 68 -19 26 -11 27 -15 27 -80 0 -77 12 -95 65 -105 17 -3 50 -11 75 -17 97 -25 95 -26 95 65 0 44 -6 170 -13 280 -7 110 -17 285 -22 388 -6 104 -15 197 -20 208 -6 10 -21 19 -33 19 -12 0 -53 9 -92 20 -109 30 -118 28 -156 -32z" fill="#2b2e34" id="2b2e34-000006"/>
    <path stroke="none" d="M3800 4275 c0 -79 -4 -146 -9 -150 -5 -3 -20 -1 -33 4 -13 4 -41 14 -63 21 -51 16 -58 28 -35 59 10 15 27 43 39 64 11 20 30 53 41 72 11 20 20 41 20 48 0 17 21 38 32 31 4 -3 8 -70 8 -149z" fill="#ffffff" id="ffffff-000007"/>
    <path stroke="none" d="M4197 4533 c-33 -138 -33 -141 -1 -154 30 -11 96 -27 151 -36 42 -7 48 -28 28 -105 -9 -35 -20 -79 -25 -98 -5 -19 -18 -72 -29 -117 -12 -46 -30 -118 -40 -160 -11 -43 -27 -105 -35 -137 -17 -66 -12 -80 32 -89 15 -3 47 -11 72 -17 25 -7 61 -13 80 -13 34 -2 35 0 48 48 7 28 17 70 21 95 10 48 36 156 50 205 5 17 15 55 22 85 6 30 20 85 30 121 11 36 19 74 19 84 0 15 6 17 43 12 23 -4 65 -12 92 -18 94 -22 108 -19 123 26 7 22 17 58 22 80 5 22 12 50 15 62 8 25 -12 37 -90 53 -22 4 -68 15 -102 24 -35 9 -91 23 -125 32 -35 9 -81 20 -103 25 -42 9 -74 17 -168 43 -32 9 -71 16 -86 16 -27 0 -29 -4 -44 -67z" fill="#2b2e34" id="2b2e34-000007"/>
    <path stroke="none" d="M5145 4346 c-81 -25 -150 -72 -185 -126 -32 -48 -75 -130 -84 -160 -4 -14 -14 -50 -23 -80 -20 -67 -24 -294 -7 -331 7 -13 19 -40 28 -59 31 -69 110 -135 191 -160 22 -7 50 -16 63 -21 46 -18 159 -10 210 13 51 24 129 96 162 150 34 57 28 72 -52 124 -40 26 -79 47 -87 48 -8 1 -28 -19 -44 -42 -53 -78 -115 -99 -187 -64 -69 34 -88 133 -50 272 49 180 132 258 231 216 41 -17 62 -45 81 -105 7 -22 17 -42 23 -44 5 -2 52 -2 103 1 l94 5 -7 61 c-6 64 -9 73 -44 146 -55 115 -279 199 -416 156z" fill="#2b2e34" id="2b2e34-000008"/>
    <path stroke="none" d="M5930 4163 c-84 -10 -156 -71 -190 -161 -54 -143 -3 -252 172 -370 57 -38 110 -77 118 -87 8 -10 15 -35 15 -57 0 -51 -39 -88 -91 -88 -69 0 -110 38 -120 112 -4 26 -12 54 -18 63 -6 8 -40 19 -76 24 -36 5 -79 13 -96 16 -27 6 -32 4 -37 -17 -10 -35 -8 -84 4 -136 34 -149 114 -211 324 -251 96 -18 209 20 270 92 61 71 79 122 80 217 0 80 -2 90 -33 140 -34 56 -81 95 -224 183 -73 45 -90 69 -76 107 12 32 25 40 71 40 52 0 97 -43 97 -93 0 -41 12 -52 65 -61 22 -3 64 -10 94 -16 30 -5 58 -7 63 -4 14 9 9 109 -9 164 -14 43 -27 61 -71 95 -29 23 -72 48 -95 55 -23 8 -46 17 -52 21 -13 9 -140 17 -185 12z" fill="#2b2e34" id="2b2e34-000009"/>
  </g>
</svg>
