<svg xmlns="http://www.w3.org/2000/svg" version="1.0" width="3008.000000pt" height="3008.000000pt" viewBox="0 0 3008.000000 3008.000000" preserveAspectRatio="xMidYMid meet">
  <g transform="translate(0.000000,3008.000000) scale(0.100000,-0.100000)" stroke="none">
    <path d="M 0 0 H 30080.0 V 30080.0 H 0 Z" fill="#ffffff" id="background"/>
    <path stroke="none" d="M14320 30029 c-214 -12 -576 -37 -690 -49 -127 -13 -287 -29 -385 -39 -94 -10 -331 -43 -510 -71 -311 -48 -364 -57 -470 -80 -22 -5 -69 -14 -105 -20 -36 -6 -81 -15 -100 -20 -19 -5 -51 -11 -70 -14 -19 -3 -53 -10 -75 -15 -22 -5 -65 -14 -95 -21 -30 -7 -73 -16 -95 -22 -22 -5 -58 -13 -80 -17 -22 -5 -71 -16 -110 -26 -38 -9 -106 -26 -150 -37 -44 -11 -109 -28 -145 -39 -36 -10 -73 -19 -82 -19 -10 0 -27 -4 -40 -9 -13 -5 -43 -14 -68 -21 -25 -7 -56 -16 -70 -20 -14 -4 -43 -13 -65 -18 -68 -19 -187 -54 -245 -72 -30 -9 -89 -27 -130 -40 -41 -12 -84 -26 -95 -30 -11 -4 -40 -14 -65 -21 -25 -7 -49 -16 -55 -21 -5 -4 -17 -8 -27 -8 -10 0 -26 -4 -36 -9 -9 -5 -48 -18 -87 -30 -63 -20 -145 -49 -200 -71 -11 -4 -36 -13 -55 -20 -19 -7 -44 -16 -55 -20 -11 -4 -45 -17 -75 -28 -76 -28 -426 -166 -530 -209 -114 -47 -116 -48 -290 -125 -25 -11 -65 -29 -90 -40 -145 -64 -261 -120 -580 -281 -348 -175 -475 -240 -535 -277 -16 -9 -50 -29 -75 -42 -44 -25 -89 -50 -152 -87 -18 -10 -64 -37 -102 -61 -38 -23 -83 -50 -100 -60 -163 -93 -673 -423 -869 -562 -49 -35 -121 -85 -161 -113 -39 -27 -87 -62 -106 -76 -19 -14 -69 -51 -110 -81 -132 -99 -357 -274 -454 -353 -34 -28 -81 -66 -106 -85 -25 -19 -47 -37 -50 -40 -3 -3 -50 -43 -105 -90 -654 -550 -1329 -1228 -1844 -1850 -57 -69 -114 -137 -127 -153 -22 -24 -196 -245 -278 -352 -17 -22 -33 -42 -36 -45 -10 -10 -148 -197 -247 -335 -108 -151 -477 -703 -558 -835 -27 -45 -68 -112 -91 -148 -66 -108 -150 -250 -192 -324 -77 -137 -138 -247 -181 -328 -60 -111 -351 -693 -398 -795 -52 -114 -89 -197 -113 -250 -12 -27 -33 -74 -46 -103 -13 -29 -24 -55 -24 -57 0 -3 -10 -27 -21 -53 -38 -83 -46 -105 -94 -227 -26 -66 -56 -139 -66 -162 -10 -24 -19 -49 -19 -56 0 -7 -4 -17 -9 -23 -5 -5 -16 -29 -24 -54 -9 -25 -30 -83 -47 -130 -18 -47 -35 -96 -40 -110 -4 -14 -15 -45 -25 -70 -32 -84 -52 -145 -115 -340 -35 -107 -66 -204 -70 -215 -4 -11 -13 -40 -20 -65 -7 -25 -20 -65 -28 -90 -8 -25 -18 -60 -23 -77 -11 -40 -27 -97 -40 -140 -21 -73 -31 -110 -39 -143 -8 -33 -23 -90 -71 -267 -11 -43 -25 -96 -29 -118 -10 -45 -28 -123 -40 -175 -9 -35 -24 -98 -41 -175 -5 -22 -14 -65 -20 -95 -6 -30 -15 -75 -20 -100 -12 -54 -24 -115 -38 -195 -6 -33 -16 -82 -21 -110 -6 -27 -15 -77 -20 -110 -6 -33 -15 -87 -20 -120 -13 -72 -23 -142 -90 -610 -5 -38 -14 -117 -20 -175 -6 -58 -15 -143 -20 -190 -11 -102 -28 -314 -34 -425 -2 -44 -12 -197 -21 -340 -14 -216 -15 -366 -10 -880 3 -341 10 -665 15 -720 5 -55 13 -179 19 -275 6 -96 15 -221 21 -277 5 -57 14 -147 20 -200 5 -54 15 -136 21 -183 6 -47 14 -116 19 -155 7 -61 28 -205 62 -425 11 -75 26 -163 38 -235 5 -27 14 -77 19 -110 5 -33 15 -85 21 -115 7 -30 16 -75 20 -100 11 -59 36 -178 56 -265 9 -38 21 -89 25 -112 21 -100 60 -269 89 -378 12 -44 28 -109 37 -145 8 -36 19 -73 24 -82 5 -10 9 -27 9 -37 0 -11 4 -30 9 -43 5 -13 14 -43 21 -68 7 -25 16 -56 20 -70 4 -14 13 -45 20 -70 28 -101 33 -116 41 -132 5 -10 9 -23 9 -30 0 -13 56 -198 70 -233 5 -11 14 -38 21 -60 6 -22 15 -49 20 -60 4 -11 13 -38 20 -60 6 -22 15 -49 20 -60 4 -11 22 -63 39 -115 17 -52 35 -104 40 -115 4 -11 17 -46 29 -77 12 -32 30 -84 42 -115 12 -32 25 -67 29 -78 5 -11 34 -85 65 -165 31 -80 63 -158 70 -175 7 -16 18 -46 26 -65 7 -19 22 -57 35 -85 12 -27 36 -84 54 -125 18 -41 44 -100 57 -130 14 -30 43 -93 64 -140 21 -47 46 -103 56 -125 29 -65 329 -663 376 -750 75 -140 208 -377 270 -480 33 -55 68 -113 77 -130 10 -16 41 -68 70 -115 29 -47 66 -107 82 -135 17 -27 43 -68 59 -92 16 -23 29 -45 29 -50 0 -4 18 -30 40 -58 22 -27 40 -54 40 -58 0 -5 13 -25 29 -45 16 -20 38 -51 48 -68 47 -79 81 -131 119 -183 22 -31 100 -139 172 -241 73 -102 153 -212 178 -245 67 -89 186 -243 208 -268 10 -12 30 -38 45 -57 57 -75 278 -345 365 -445 474 -545 943 -1023 1432 -1457 167 -148 504 -432 628 -528 18 -14 50 -38 71 -55 21 -16 65 -52 99 -78 33 -26 68 -53 76 -60 42 -33 215 -161 295 -217 50 -35 106 -76 126 -91 99 -76 725 -488 863 -568 23 -13 53 -32 68 -42 14 -11 28 -19 31 -19 2 0 56 -31 118 -68 63 -38 141 -83 174 -101 33 -18 65 -36 70 -41 10 -7 86 -49 250 -137 89 -48 687 -348 750 -376 22 -10 78 -35 125 -56 47 -21 110 -50 140 -64 97 -44 401 -172 515 -216 61 -24 129 -52 152 -62 24 -11 47 -19 53 -19 6 0 18 -4 28 -9 9 -5 43 -19 74 -30 127 -46 174 -63 193 -71 11 -5 76 -27 145 -50 69 -23 134 -45 145 -49 17 -7 112 -38 375 -121 45 -14 164 -49 240 -71 41 -11 86 -25 100 -29 14 -4 43 -12 65 -18 22 -6 60 -16 85 -23 51 -13 85 -22 150 -39 25 -7 56 -16 70 -20 14 -4 52 -13 85 -20 33 -7 71 -16 85 -20 14 -4 52 -13 85 -20 33 -7 71 -16 85 -20 40 -12 288 -65 430 -91 75 -14 163 -30 210 -40 154 -31 522 -88 765 -119 310 -40 685 -76 883 -84 62 -3 118 -9 125 -13 22 -14 153 -16 1007 -16 769 0 848 1 875 16 23 13 56 17 142 17 62 0 159 5 215 10 440 43 682 71 928 110 36 6 97 15 135 21 39 5 95 14 125 19 30 6 82 14 115 20 33 6 83 14 110 19 28 4 84 15 125 24 41 8 86 17 100 20 14 3 72 15 130 27 58 12 116 24 130 27 31 5 104 21 150 33 52 13 197 47 260 61 30 6 66 15 80 19 14 4 63 18 110 30 123 31 162 41 190 50 14 4 45 13 70 20 25 7 59 16 75 21 109 30 302 88 330 99 11 4 40 13 65 20 25 7 68 20 95 30 28 10 68 24 90 31 22 6 49 15 60 19 11 4 38 13 60 19 22 7 49 16 60 21 11 5 49 18 85 30 36 12 74 25 85 30 11 4 36 13 55 20 19 7 44 16 55 20 11 4 45 17 75 28 81 29 191 72 225 87 17 7 50 20 75 30 25 9 59 22 75 30 17 7 46 18 65 26 19 7 63 25 98 41 34 15 66 28 71 28 4 0 21 6 37 14 16 8 52 24 79 36 28 12 75 33 105 47 30 14 64 29 75 34 26 11 154 69 253 115 93 44 513 254 597 299 33 18 96 52 140 75 44 24 85 46 90 50 9 7 63 36 180 100 28 15 80 46 117 69 37 22 70 41 74 41 3 0 25 14 49 30 24 17 47 30 50 30 4 0 19 8 33 19 15 10 45 29 68 42 92 53 639 409 729 474 91 66 259 185 320 227 33 23 62 44 65 48 3 3 21 17 40 30 19 13 37 27 40 30 3 3 43 34 90 69 123 93 161 122 201 156 20 16 44 37 55 45 210 167 592 488 654 550 3 3 57 52 120 110 288 262 623 596 920 915 97 104 224 245 256 285 16 19 31 37 34 40 3 3 30 34 60 70 30 36 57 67 60 70 13 13 158 189 251 305 57 72 109 137 116 145 53 65 156 199 193 251 25 34 50 67 56 73 5 6 29 38 52 71 22 33 69 98 103 145 70 96 435 640 496 740 22 36 64 103 93 150 29 47 60 99 70 115 46 79 97 167 137 232 23 40 43 75 43 77 0 3 15 31 34 63 41 71 76 133 133 238 62 112 394 784 433 875 18 41 45 102 60 135 16 33 47 105 70 160 24 55 51 118 60 140 10 22 53 128 95 235 42 107 80 204 85 215 4 11 17 45 28 75 11 30 32 87 47 125 15 39 31 84 35 100 5 17 22 68 40 115 18 47 36 99 40 115 4 17 16 53 25 80 48 137 74 217 105 325 7 25 20 70 30 100 10 30 22 73 28 95 6 22 21 73 32 112 50 176 60 212 75 273 9 36 25 99 37 140 11 41 24 95 29 120 4 25 13 63 19 85 6 22 15 60 20 85 5 25 15 70 23 100 18 72 30 125 77 370 22 113 44 228 50 255 5 28 11 66 14 85 3 19 10 62 16 95 12 64 19 110 44 295 9 63 20 142 26 175 38 247 90 773 90 930 0 73 5 119 14 136 10 20 11 37 3 76 -9 41 -7 57 5 84 15 30 17 119 18 766 1 631 -1 744 -15 817 -12 61 -13 91 -6 105 8 14 7 26 -3 46 -10 18 -14 63 -15 134 0 58 -7 178 -16 266 -8 88 -20 203 -25 255 -18 187 -49 429 -80 630 -6 41 -15 102 -20 135 -5 33 -14 87 -20 120 -6 33 -15 87 -20 120 -5 33 -11 69 -14 80 -2 11 -10 49 -16 85 -6 36 -15 83 -20 105 -5 22 -14 67 -20 100 -6 33 -15 78 -20 100 -5 22 -14 67 -21 100 -6 33 -18 85 -26 115 -8 30 -18 75 -23 100 -5 25 -14 63 -20 85 -6 22 -15 60 -20 85 -13 64 -25 116 -45 185 -9 33 -28 103 -42 155 -31 119 -49 184 -73 265 -13 44 -28 95 -38 135 -23 82 -242 744 -278 837 -14 37 -35 93 -46 123 -11 30 -24 63 -29 72 -5 10 -9 22 -9 28 0 6 -9 29 -19 53 -10 23 -44 107 -76 187 -31 80 -65 163 -75 186 -11 22 -28 65 -40 94 -21 54 -41 99 -90 205 -15 33 -53 119 -85 190 -60 133 -385 784 -432 865 -14 25 -38 68 -53 95 -15 28 -39 71 -53 98 -15 26 -39 68 -53 95 -15 26 -35 59 -45 74 -11 14 -19 28 -19 31 0 3 -22 42 -50 87 -27 45 -50 83 -50 86 0 2 -15 28 -34 57 -18 28 -69 108 -112 177 -42 69 -94 151 -113 182 -54 86 -328 491 -380 562 -25 35 -84 116 -131 181 -47 64 -89 122 -95 129 -5 6 -30 38 -55 71 -40 53 -185 239 -227 289 -9 11 -30 38 -48 61 -34 45 -225 277 -235 285 -3 3 -18 21 -34 40 -288 352 -851 934 -1296 1340 -63 58 -117 107 -120 110 -17 18 -256 224 -365 315 -71 59 -141 117 -155 129 -14 11 -45 37 -70 56 -25 19 -47 37 -50 40 -3 3 -21 17 -42 32 -20 15 -42 33 -50 40 -20 19 -188 150 -228 178 -19 13 -37 27 -40 30 -8 8 -107 81 -205 150 -49 35 -115 82 -146 105 -31 22 -80 57 -110 77 -30 21 -76 54 -104 73 -27 19 -66 44 -85 55 -19 11 -57 36 -85 55 -94 65 -140 96 -230 152 -49 31 -120 75 -157 99 -37 24 -70 44 -74 44 -3 0 -25 14 -49 30 -24 17 -46 30 -50 30 -4 0 -26 14 -50 30 -24 17 -46 30 -49 30 -4 0 -37 19 -74 41 -73 45 -81 50 -227 131 -191 107 -291 159 -595 311 -327 164 -420 208 -737 348 -27 11 -61 27 -77 35 -16 8 -33 14 -37 14 -5 0 -37 13 -71 28 -35 16 -146 61 -248 101 -102 40 -194 76 -205 81 -11 4 -47 18 -80 30 -33 12 -69 26 -80 30 -23 10 -150 55 -215 76 -25 8 -54 19 -65 24 -11 5 -38 14 -60 21 -22 6 -49 15 -60 19 -11 4 -51 17 -90 29 -38 12 -79 26 -90 30 -22 9 -124 41 -195 61 -25 7 -54 16 -65 20 -11 5 -31 11 -45 15 -27 7 -75 20 -127 36 -18 5 -49 14 -68 19 -19 6 -50 14 -67 19 -49 14 -188 51 -228 61 -19 5 -53 14 -75 20 -54 15 -112 30 -160 39 -22 5 -71 16 -110 26 -112 27 -124 30 -275 63 -25 6 -72 16 -105 22 -33 6 -78 15 -100 20 -22 5 -67 14 -100 20 -33 6 -74 15 -91 21 -17 5 -43 9 -59 9 -15 0 -44 4 -64 9 -20 5 -70 15 -111 21 -41 6 -95 15 -120 20 -99 19 -492 73 -725 100 -580 66 -1058 90 -1740 88 -291 0 -600 -5 -685 -9z" fill="#f4d233" id="f4d233-000001"/>
    <path stroke="none" d="M15765 29290 c99 -6 216 -12 260 -15 44 -2 100 -6 125 -9 25 -3 104 -10 175 -16 72 -6 168 -15 215 -20 225 -26 351 -41 410 -50 140 -19 218 -30 280 -40 36 -6 94 -15 130 -20 73 -11 137 -23 225 -39 33 -7 85 -16 115 -21 66 -12 139 -26 200 -40 25 -6 68 -15 95 -20 28 -5 68 -14 90 -19 22 -5 65 -14 95 -21 30 -7 71 -16 90 -21 50 -12 107 -25 165 -39 82 -18 220 -54 310 -80 17 -5 66 -18 110 -30 132 -35 138 -37 185 -52 25 -8 65 -21 90 -28 108 -31 635 -202 675 -219 11 -5 36 -14 55 -21 19 -7 44 -16 55 -20 11 -4 36 -13 55 -20 19 -7 44 -16 55 -20 11 -4 70 -27 130 -50 164 -62 168 -64 235 -93 19 -9 60 -25 90 -37 30 -12 78 -32 108 -46 29 -13 55 -24 57 -24 2 0 34 -13 70 -30 36 -16 68 -30 71 -30 3 0 47 -20 97 -44 51 -24 115 -54 142 -66 231 -102 667 -324 948 -484 173 -98 176 -100 272 -156 50 -29 106 -62 125 -72 19 -11 54 -33 77 -49 23 -16 44 -29 47 -29 4 0 30 -15 59 -34 147 -94 415 -270 521 -344 233 -159 298 -204 314 -217 10 -8 100 -76 202 -152 102 -76 194 -145 205 -154 46 -38 181 -147 228 -182 27 -22 66 -54 86 -72 20 -18 65 -57 101 -85 36 -29 97 -80 135 -114 39 -34 133 -118 210 -187 77 -68 187 -169 245 -225 58 -55 134 -127 170 -160 165 -150 598 -610 865 -919 71 -82 132 -152 135 -155 8 -7 270 -335 339 -424 30 -38 60 -76 67 -85 27 -34 206 -275 246 -333 24 -33 69 -97 100 -142 94 -132 318 -465 318 -471 0 -3 27 -46 60 -95 33 -49 60 -92 60 -95 0 -3 18 -33 40 -65 22 -32 40 -62 40 -65 0 -4 14 -26 30 -50 17 -24 30 -47 30 -50 0 -4 8 -19 19 -33 10 -15 28 -44 40 -64 11 -21 30 -54 41 -73 11 -19 29 -51 40 -70 11 -19 29 -51 40 -70 69 -120 55 -94 203 -375 97 -183 317 -631 317 -645 0 -2 23 -52 51 -112 27 -59 54 -117 59 -128 4 -11 15 -36 23 -55 8 -19 27 -64 42 -100 15 -36 33 -78 40 -95 8 -16 21 -50 31 -75 9 -25 21 -49 26 -54 4 -6 8 -16 8 -23 0 -7 8 -32 19 -56 10 -23 33 -80 51 -127 17 -47 36 -94 40 -105 4 -11 13 -36 20 -55 7 -19 16 -44 20 -55 18 -44 43 -112 56 -155 8 -25 19 -54 24 -65 10 -22 113 -336 150 -455 12 -41 31 -100 40 -130 10 -30 23 -75 30 -100 7 -25 16 -56 20 -70 4 -14 13 -45 20 -70 7 -25 16 -56 20 -70 5 -14 13 -47 20 -75 7 -27 15 -61 20 -75 16 -51 38 -139 70 -275 12 -49 25 -106 30 -125 5 -19 14 -60 21 -90 6 -30 19 -91 29 -135 10 -44 23 -107 30 -140 6 -33 15 -76 20 -95 10 -43 40 -196 50 -265 5 -27 14 -81 20 -120 26 -155 30 -183 40 -245 5 -36 14 -99 20 -140 5 -41 14 -106 20 -145 6 -38 15 -110 21 -160 6 -49 14 -124 19 -165 5 -41 14 -131 19 -200 6 -69 16 -177 22 -240 34 -348 47 -1251 25 -1755 -15 -335 -40 -680 -66 -905 -6 -52 -15 -131 -20 -175 -20 -172 -54 -405 -100 -680 -5 -27 -13 -79 -19 -115 -5 -36 -12 -74 -15 -85 -2 -11 -10 -47 -16 -80 -6 -33 -15 -78 -20 -100 -5 -22 -14 -67 -20 -100 -6 -33 -15 -76 -20 -95 -4 -19 -13 -60 -20 -90 -14 -70 -29 -136 -40 -180 -5 -19 -19 -75 -30 -125 -26 -109 -26 -112 -51 -202 -10 -40 -28 -108 -40 -150 -11 -43 -24 -91 -29 -108 -5 -16 -14 -48 -20 -70 -6 -22 -16 -56 -21 -75 -6 -19 -14 -48 -18 -65 -5 -16 -16 -50 -25 -75 -8 -25 -16 -54 -16 -65 0 -12 -4 -25 -8 -30 -5 -6 -14 -30 -22 -55 -22 -75 -130 -404 -140 -425 -5 -11 -16 -40 -24 -65 -8 -25 -22 -65 -31 -90 -9 -25 -26 -70 -37 -100 -11 -30 -24 -64 -28 -75 -4 -11 -13 -36 -20 -55 -7 -19 -21 -54 -31 -77 -11 -24 -19 -46 -19 -51 0 -5 -9 -27 -20 -50 -11 -22 -20 -47 -20 -55 0 -7 -4 -17 -8 -22 -5 -6 -17 -30 -26 -55 -10 -25 -23 -58 -31 -75 -7 -16 -25 -59 -40 -95 -44 -105 -56 -132 -80 -185 -13 -27 -31 -68 -40 -90 -96 -221 -364 -763 -469 -949 -13 -23 -37 -66 -53 -96 -17 -30 -40 -73 -53 -95 -13 -22 -36 -65 -53 -95 -17 -30 -38 -67 -49 -82 -10 -14 -18 -28 -18 -31 0 -3 -23 -43 -51 -89 -29 -46 -59 -96 -69 -113 -82 -142 -377 -593 -517 -791 -32 -45 -78 -110 -102 -144 -39 -57 -112 -154 -321 -430 -36 -47 -67 -87 -70 -90 -3 -3 -43 -52 -89 -110 -47 -58 -99 -121 -115 -140 -17 -20 -51 -60 -76 -90 -58 -70 -243 -282 -296 -340 -23 -25 -53 -59 -67 -76 -79 -94 -539 -563 -772 -785 -159 -151 -453 -412 -635 -564 -52 -43 -97 -81 -100 -85 -3 -3 -25 -21 -50 -40 -25 -19 -61 -48 -81 -65 -51 -43 -115 -94 -169 -135 -477 -358 -554 -413 -855 -613 -132 -87 -252 -168 -267 -178 -15 -10 -30 -19 -33 -19 -5 0 -26 -13 -168 -104 -32 -20 -74 -46 -93 -57 -19 -10 -49 -28 -68 -38 -18 -11 -64 -38 -101 -60 -37 -23 -69 -41 -71 -41 -2 0 -27 -14 -56 -31 -29 -18 -72 -42 -95 -55 -24 -13 -64 -36 -90 -50 -69 -39 -171 -93 -303 -161 -63 -33 -142 -74 -175 -91 -33 -17 -94 -47 -135 -65 -81 -37 -278 -130 -375 -177 -33 -16 -109 -50 -170 -76 -60 -25 -134 -57 -163 -70 -29 -13 -58 -24 -65 -24 -7 0 -17 -4 -22 -8 -6 -5 -30 -17 -55 -26 -25 -10 -58 -24 -75 -31 -39 -17 -149 -60 -247 -96 -43 -16 -115 -43 -160 -60 -46 -17 -103 -37 -128 -45 -25 -8 -54 -19 -65 -24 -23 -10 -402 -135 -515 -170 -41 -12 -86 -26 -100 -30 -60 -19 -170 -51 -225 -66 -33 -8 -76 -20 -95 -26 -19 -5 -51 -13 -70 -18 -19 -5 -53 -14 -75 -20 -22 -6 -56 -15 -75 -20 -19 -5 -53 -14 -75 -19 -22 -6 -60 -16 -85 -22 -25 -5 -63 -15 -85 -20 -22 -6 -58 -14 -80 -19 -22 -5 -60 -14 -85 -19 -25 -6 -67 -16 -95 -21 -27 -5 -70 -14 -95 -20 -45 -10 -65 -14 -220 -44 -47 -9 -105 -20 -130 -25 -196 -39 -611 -103 -845 -131 -691 -81 -1070 -103 -1760 -103 -459 0 -626 5 -1050 33 -368 25 -888 86 -1265 149 -30 5 -84 14 -120 20 -36 6 -87 16 -115 21 -27 5 -75 14 -105 20 -30 5 -80 14 -110 20 -30 6 -75 15 -100 19 -47 9 -126 26 -195 43 -22 5 -60 13 -85 18 -25 6 -63 14 -85 19 -22 6 -60 15 -85 20 -75 17 -446 113 -545 141 -16 5 -77 23 -135 40 -58 17 -118 35 -135 40 -75 21 -177 54 -400 128 -219 73 -293 99 -350 122 -11 4 -46 17 -77 29 -32 12 -84 30 -115 42 -68 25 -89 32 -125 48 -16 6 -38 15 -50 20 -13 5 -39 16 -58 24 -19 9 -55 23 -80 32 -25 10 -58 23 -75 30 -16 7 -79 34 -140 59 -60 26 -128 55 -150 65 -22 11 -62 29 -90 41 -46 21 -96 44 -295 137 -151 70 -459 227 -615 313 -27 15 -86 47 -130 70 -185 100 -437 248 -622 367 -29 18 -56 33 -61 33 -4 0 -23 13 -42 30 -19 16 -38 29 -43 30 -8 0 -525 344 -591 393 -23 17 -78 57 -120 87 -43 30 -87 63 -99 73 -11 9 -23 17 -26 17 -3 0 -17 10 -31 23 -14 12 -41 33 -60 47 -19 13 -37 27 -40 30 -3 3 -32 25 -65 50 -33 24 -94 72 -135 105 -41 33 -82 65 -90 72 -68 53 -270 220 -336 277 -44 39 -96 84 -115 100 -336 287 -856 794 -1188 1161 -85 94 -171 188 -190 210 -29 32 -291 342 -363 430 -169 206 -479 621 -636 850 -144 209 -382 571 -382 580 0 5 -20 38 -117 187 -23 37 -43 70 -43 72 0 3 -14 29 -31 58 -18 29 -40 67 -49 83 -10 17 -41 70 -69 118 -28 49 -51 90 -51 92 0 2 -14 27 -30 55 -88 150 -490 948 -490 974 0 2 -15 37 -34 78 -55 118 -86 188 -86 193 0 2 -14 34 -30 70 -17 36 -30 68 -30 70 0 3 -9 27 -21 53 -25 56 -32 73 -54 132 -9 25 -23 61 -32 80 -21 48 -29 69 -43 110 -7 19 -16 44 -20 55 -4 11 -13 36 -20 55 -7 19 -18 49 -25 65 -8 17 -21 53 -30 80 -9 28 -20 59 -25 70 -5 11 -18 49 -30 85 -12 36 -25 74 -30 85 -5 11 -14 38 -21 60 -6 22 -15 49 -19 60 -11 28 -23 64 -60 185 -18 58 -35 112 -38 120 -5 13 -28 92 -52 175 -4 17 -20 71 -34 120 -15 50 -30 106 -35 125 -5 19 -17 60 -26 90 -10 30 -21 73 -25 95 -5 22 -13 58 -19 80 -6 22 -15 58 -20 80 -5 22 -17 69 -26 105 -26 102 -53 222 -59 255 -3 17 -10 50 -15 75 -6 25 -16 68 -21 95 -5 28 -15 73 -21 100 -5 28 -15 75 -20 105 -5 30 -14 78 -19 105 -6 28 -15 77 -20 110 -6 33 -15 85 -20 115 -6 30 -14 84 -19 120 -6 36 -15 94 -21 130 -6 36 -15 99 -20 140 -5 41 -14 111 -20 155 -44 330 -84 822 -101 1215 -15 356 -6 1220 15 1510 24 319 35 457 46 555 5 50 12 122 16 160 3 39 14 129 24 200 10 72 28 198 40 280 11 83 25 170 30 195 5 25 14 77 20 115 11 70 28 163 36 200 3 11 9 47 14 80 5 33 14 83 20 110 6 28 15 70 20 95 5 25 14 65 20 90 6 25 15 65 20 90 5 25 14 65 19 90 6 25 15 65 20 90 5 25 15 63 21 85 6 22 15 58 20 80 5 22 14 58 20 80 6 22 15 56 20 75 5 19 14 53 20 75 6 22 15 56 20 75 5 19 14 53 20 75 6 22 15 56 19 75 5 19 15 55 23 80 8 25 21 65 28 90 7 25 20 70 30 100 9 30 32 102 50 160 51 163 95 295 140 420 23 63 45 126 50 140 8 25 35 97 50 135 4 11 32 81 60 155 29 74 58 149 65 165 7 17 28 66 45 110 17 44 43 104 56 133 13 29 24 55 24 57 0 5 10 27 124 278 13 28 34 75 46 102 26 60 167 352 183 380 6 11 41 79 78 150 99 195 148 287 158 299 5 6 26 45 48 86 22 41 58 106 81 144 23 37 42 70 42 72 0 2 14 27 31 56 31 52 51 86 88 152 20 34 60 98 178 278 34 54 63 100 63 102 0 6 221 335 289 431 28 39 72 100 98 137 26 36 73 102 105 146 31 43 62 85 70 93 8 8 29 36 48 63 18 27 86 115 149 195 64 80 125 158 136 172 35 47 197 239 310 369 61 69 127 146 148 170 21 25 125 137 232 250 330 351 758 763 1080 1040 61 52 116 100 123 107 7 7 34 29 60 50 26 21 49 40 52 44 4 4 112 90 190 152 8 7 38 30 65 53 96 78 378 292 494 374 35 25 83 60 107 77 61 45 672 453 680 453 3 0 24 13 47 29 23 16 58 38 77 49 19 11 66 38 104 62 38 23 84 50 102 61 55 31 95 54 159 91 33 20 80 47 105 60 25 14 65 36 90 50 114 63 170 94 249 136 139 72 429 217 524 261 48 23 125 59 171 81 46 22 87 40 90 40 4 0 44 18 91 40 47 22 87 40 90 40 3 0 27 10 53 21 26 12 62 28 80 35 17 8 49 21 70 30 50 21 69 29 122 49 25 9 59 23 75 30 17 7 80 32 140 55 61 23 119 46 130 50 42 17 112 42 155 56 25 8 54 19 65 24 23 10 207 74 280 97 28 9 88 28 135 43 47 15 119 37 160 50 41 13 95 30 120 38 25 8 59 18 75 23 36 9 93 25 138 38 17 5 68 19 112 31 44 12 94 25 110 30 44 13 54 15 240 60 162 39 195 47 300 70 25 6 64 14 88 20 23 5 69 14 102 20 33 6 76 15 95 20 19 5 64 14 100 20 36 6 81 15 100 20 35 9 50 12 170 30 36 5 90 15 120 21 30 5 82 14 115 19 33 5 94 13 135 20 41 6 109 15 150 20 41 5 131 16 200 24 69 9 161 20 205 26 44 5 145 14 225 20 80 6 181 15 225 20 68 8 367 22 745 34 165 6 867 -4 1055 -14z" fill="#ffffff" id="ffffff-000002"/>
    <path stroke="none" d="M14305 28929 c-33 -4 -150 -13 -260 -19 -110 -6 -234 -15 -275 -20 -41 -5 -131 -14 -200 -20 -69 -6 -152 -15 -185 -20 -33 -6 -118 -17 -190 -26 -176 -22 -311 -41 -447 -64 -32 -6 -84 -14 -115 -19 -32 -5 -107 -19 -168 -31 -60 -12 -135 -26 -165 -31 -30 -5 -82 -16 -115 -23 -33 -8 -87 -19 -120 -26 -33 -7 -71 -16 -85 -20 -14 -4 -50 -13 -80 -19 -30 -7 -73 -17 -95 -22 -22 -6 -58 -15 -80 -21 -22 -5 -56 -14 -75 -18 -19 -5 -64 -16 -100 -25 -61 -15 -124 -32 -265 -69 -33 -9 -71 -20 -85 -25 -14 -5 -45 -14 -70 -21 -25 -7 -56 -16 -70 -20 -14 -4 -72 -22 -130 -40 -58 -17 -114 -35 -125 -40 -11 -4 -40 -13 -65 -20 -25 -7 -54 -16 -65 -20 -11 -4 -40 -14 -65 -21 -25 -7 -49 -15 -55 -19 -5 -4 -30 -13 -55 -20 -25 -7 -49 -17 -55 -20 -5 -4 -21 -10 -35 -13 -28 -6 -130 -42 -175 -62 -16 -8 -50 -20 -75 -28 -38 -13 -178 -66 -257 -98 -13 -5 -33 -13 -45 -18 -13 -4 -34 -13 -48 -19 -14 -6 -74 -32 -135 -58 -60 -25 -130 -55 -155 -66 -25 -11 -61 -27 -80 -35 -94 -40 -222 -99 -345 -158 -214 -103 -421 -206 -505 -251 -47 -25 -112 -60 -145 -77 -33 -17 -97 -52 -143 -79 -46 -26 -86 -48 -89 -48 -3 0 -17 -8 -31 -18 -15 -11 -52 -32 -82 -49 -95 -52 -134 -75 -162 -94 -14 -11 -29 -19 -33 -19 -3 0 -26 -13 -50 -30 -24 -16 -46 -30 -50 -30 -3 0 -46 -27 -95 -60 -49 -33 -92 -60 -95 -60 -3 0 -58 -35 -123 -77 -65 -43 -125 -82 -133 -88 -61 -38 -408 -280 -430 -299 -9 -8 -50 -37 -90 -65 -41 -28 -101 -71 -134 -96 -160 -122 -262 -201 -280 -218 -11 -10 -52 -43 -92 -73 -39 -30 -78 -60 -85 -67 -7 -6 -43 -37 -78 -67 -36 -30 -67 -57 -70 -60 -3 -3 -21 -17 -42 -32 -20 -15 -42 -33 -50 -40 -25 -24 -193 -173 -268 -238 -41 -36 -131 -119 -200 -186 -69 -67 -143 -137 -165 -157 -100 -89 -630 -637 -703 -727 -20 -25 -61 -72 -92 -105 -69 -76 -95 -106 -194 -225 -43 -52 -89 -107 -102 -122 -13 -15 -40 -49 -60 -75 -20 -26 -55 -70 -78 -98 -70 -83 -301 -387 -381 -501 -22 -31 -65 -91 -95 -133 -62 -85 -120 -170 -165 -240 -16 -25 -35 -52 -42 -59 -7 -7 -25 -34 -40 -60 -15 -26 -35 -56 -45 -66 -10 -11 -18 -24 -18 -28 0 -5 -22 -42 -50 -83 -27 -41 -63 -96 -79 -122 -15 -26 -52 -86 -81 -133 -29 -47 -60 -98 -70 -115 -9 -16 -32 -55 -50 -85 -164 -275 -469 -856 -612 -1166 -73 -158 -127 -278 -151 -334 -8 -19 -27 -61 -41 -93 -14 -32 -26 -63 -26 -70 0 -7 -4 -17 -8 -22 -5 -6 -28 -59 -52 -120 -24 -60 -47 -114 -52 -119 -4 -6 -8 -17 -8 -26 0 -9 -9 -35 -20 -58 -11 -22 -20 -46 -20 -52 0 -5 -4 -18 -9 -28 -5 -9 -24 -55 -41 -102 -17 -47 -36 -93 -41 -102 -5 -10 -9 -24 -9 -31 0 -8 -12 -42 -26 -78 -15 -35 -30 -77 -34 -94 -4 -16 -16 -52 -25 -80 -42 -118 -54 -154 -75 -225 -12 -41 -26 -84 -30 -95 -5 -11 -11 -31 -15 -45 -11 -42 -22 -82 -45 -155 -25 -80 -38 -125 -50 -175 -5 -19 -18 -69 -30 -110 -12 -41 -28 -102 -36 -135 -8 -33 -18 -73 -23 -90 -5 -16 -15 -55 -21 -85 -7 -30 -16 -66 -21 -80 -4 -14 -13 -52 -19 -85 -7 -33 -16 -71 -20 -85 -4 -14 -13 -52 -20 -85 -6 -33 -15 -76 -20 -95 -8 -33 -31 -144 -51 -250 -4 -25 -12 -67 -18 -95 -5 -27 -16 -93 -25 -145 -9 -52 -20 -115 -25 -140 -5 -25 -15 -83 -21 -130 -6 -47 -15 -110 -20 -140 -5 -30 -14 -98 -20 -150 -6 -52 -15 -117 -20 -145 -5 -27 -14 -104 -20 -170 -6 -66 -13 -136 -15 -155 -5 -40 -21 -233 -35 -435 -6 -77 -13 -207 -16 -290 -2 -82 -8 -226 -13 -320 -12 -243 1 -1062 19 -1165 5 -30 12 -109 15 -175 10 -206 39 -504 74 -770 6 -38 15 -106 20 -150 16 -120 78 -503 101 -625 6 -30 15 -77 20 -105 5 -27 14 -72 20 -100 6 -27 15 -70 20 -95 5 -25 18 -85 29 -135 11 -49 27 -121 35 -160 8 -38 20 -86 25 -105 12 -43 40 -151 52 -205 5 -22 13 -56 18 -75 5 -19 17 -64 26 -100 9 -36 20 -74 25 -85 5 -11 15 -47 24 -80 8 -33 24 -91 36 -130 26 -85 40 -132 47 -165 3 -14 9 -29 13 -35 4 -5 13 -35 21 -65 7 -30 16 -59 19 -65 4 -5 12 -30 19 -55 7 -25 17 -54 21 -65 5 -11 14 -38 20 -60 6 -22 15 -49 20 -60 4 -11 13 -36 20 -55 7 -19 16 -44 21 -55 4 -11 19 -54 33 -96 21 -65 58 -166 86 -234 4 -11 23 -58 40 -105 34 -90 53 -136 76 -184 8 -16 14 -33 14 -38 0 -5 9 -28 20 -50 11 -23 20 -45 20 -50 0 -5 10 -30 21 -56 12 -26 31 -67 41 -92 11 -25 30 -67 43 -95 13 -27 33 -72 45 -100 55 -127 348 -720 416 -845 20 -36 53 -96 74 -135 20 -38 79 -142 130 -230 51 -88 101 -176 112 -195 11 -19 29 -47 39 -62 11 -14 19 -29 19 -32 0 -4 20 -37 43 -74 24 -37 73 -112 108 -166 35 -55 68 -107 74 -116 11 -20 21 -34 135 -206 31 -46 118 -171 211 -304 57 -81 191 -263 199 -270 3 -3 17 -21 30 -40 13 -19 27 -37 30 -40 3 -3 31 -39 62 -80 31 -41 64 -85 74 -97 11 -12 39 -47 64 -79 104 -131 204 -251 325 -389 48 -55 128 -147 179 -205 210 -241 844 -878 1066 -1070 41 -36 82 -72 90 -80 8 -9 31 -28 50 -44 19 -16 66 -56 104 -90 38 -33 78 -68 90 -76 12 -8 32 -25 46 -38 35 -32 170 -142 331 -269 141 -112 151 -119 259 -199 36 -27 67 -51 70 -54 3 -4 34 -26 69 -50 35 -23 71 -49 80 -56 40 -34 601 -411 772 -518 52 -33 118 -74 146 -93 29 -18 55 -33 57 -33 3 0 41 -22 86 -50 45 -27 83 -50 85 -50 2 0 28 -14 57 -31 144 -86 543 -300 718 -385 231 -113 463 -222 590 -277 19 -8 61 -27 93 -41 32 -14 60 -26 62 -26 3 0 27 -10 53 -21 80 -36 105 -47 152 -64 25 -10 59 -23 75 -30 17 -7 73 -30 125 -50 97 -38 123 -48 163 -64 75 -32 841 -286 967 -321 25 -7 56 -16 70 -21 14 -5 52 -16 85 -25 33 -8 94 -25 135 -36 71 -19 99 -26 188 -47 53 -13 161 -40 202 -51 19 -5 60 -14 90 -21 30 -6 66 -15 80 -19 14 -5 57 -14 95 -20 39 -7 81 -16 95 -20 14 -4 52 -13 85 -19 33 -7 80 -16 105 -21 25 -5 77 -14 115 -20 39 -6 86 -15 105 -20 19 -5 69 -14 110 -20 41 -6 98 -15 125 -21 28 -5 102 -17 165 -25 63 -9 144 -20 180 -25 75 -11 196 -25 325 -39 349 -38 452 -47 665 -55 85 -4 169 -10 185 -15 39 -12 1208 -10 1390 1 460 30 756 55 1025 89 47 6 119 15 160 20 41 5 91 12 110 15 19 4 78 13 130 20 126 19 275 43 330 54 25 5 77 15 115 21 39 6 86 15 105 20 19 5 62 14 95 20 72 13 236 48 285 60 19 5 60 14 90 20 30 6 71 15 90 20 34 9 130 33 200 50 19 5 49 12 65 15 17 4 39 10 50 15 11 4 43 13 70 20 52 12 172 45 215 60 14 4 48 13 75 20 28 7 59 15 70 20 11 4 54 18 95 30 145 44 686 225 745 250 11 4 36 13 55 20 19 7 54 21 77 31 24 11 49 19 57 19 8 0 18 5 21 10 3 6 13 10 21 10 8 0 34 9 56 20 23 11 46 20 50 20 5 0 28 9 50 20 23 11 45 20 50 20 4 0 31 11 60 24 30 14 78 34 107 46 54 21 101 41 196 85 28 12 68 30 90 40 117 50 698 337 835 412 36 19 97 52 135 73 196 105 396 222 665 390 47 29 105 65 130 80 56 34 409 271 510 343 41 29 104 74 140 100 36 26 92 66 125 89 33 23 62 44 65 47 3 4 43 35 90 70 106 81 164 125 170 131 3 3 21 17 42 32 20 15 42 33 50 40 7 8 33 29 58 48 25 19 56 45 70 56 14 12 68 57 120 100 52 43 97 81 100 84 3 3 34 30 70 60 36 30 90 78 120 106 30 28 113 102 184 165 169 148 771 750 880 879 35 41 172 195 235 262 24 26 51 58 59 70 9 13 18 25 22 28 3 3 30 34 60 70 30 35 61 71 68 78 7 8 25 30 40 50 15 21 32 43 39 50 7 7 29 34 50 60 21 26 44 53 51 61 7 7 38 48 69 90 31 42 59 78 62 81 4 3 28 34 54 70 27 36 53 72 60 80 17 22 90 121 139 188 23 31 53 73 68 92 15 19 50 69 78 110 28 41 60 86 71 100 11 14 21 30 21 35 0 6 14 26 30 45 17 19 37 49 45 65 7 17 30 51 49 75 20 25 36 49 36 53 0 4 27 48 60 97 33 48 68 103 79 122 10 18 65 110 121 203 57 94 111 185 122 203 10 17 28 49 39 70 12 20 33 57 47 82 14 25 41 74 62 110 20 36 44 79 52 95 9 17 39 75 68 130 125 237 288 572 378 775 34 77 63 143 88 198 13 29 24 57 24 62 0 5 8 24 18 42 10 18 42 94 71 168 29 74 57 145 62 158 5 12 13 32 18 45 14 33 70 184 93 247 11 30 24 63 29 72 5 10 9 25 9 33 0 8 4 23 9 33 15 30 28 64 60 167 18 55 36 109 41 120 8 18 27 79 62 200 6 22 15 44 20 50 4 5 8 18 8 29 0 11 8 45 19 75 10 31 24 76 31 101 7 25 16 56 20 70 13 41 31 108 60 220 7 25 16 56 20 70 4 14 13 50 20 80 6 30 16 69 21 85 8 28 35 144 60 255 6 25 14 61 20 80 15 57 66 311 100 500 71 395 123 765 154 1100 8 91 19 192 24 225 6 33 15 173 21 310 6 138 15 284 20 325 12 93 12 1029 -1 1125 -5 39 -13 183 -19 320 -6 138 -15 275 -20 305 -5 30 -14 120 -20 200 -6 80 -15 170 -20 200 -5 30 -14 102 -20 160 -6 58 -15 128 -20 155 -5 28 -16 100 -24 160 -19 135 -58 372 -84 510 -6 28 -17 91 -26 140 -9 50 -19 97 -22 105 -3 8 -14 58 -25 110 -37 172 -61 278 -89 388 -14 57 -28 113 -39 157 -10 43 -46 179 -62 233 -5 17 -13 48 -19 67 -5 19 -14 51 -20 70 -5 19 -14 50 -19 68 -6 17 -18 61 -29 97 -10 36 -22 74 -26 85 -11 28 -22 63 -36 115 -7 25 -21 68 -31 95 -10 28 -28 82 -40 120 -28 91 -58 176 -70 197 -5 10 -9 26 -9 36 0 10 -4 22 -8 28 -4 5 -14 27 -21 49 -7 22 -16 49 -21 60 -4 11 -22 58 -40 105 -18 47 -36 94 -40 105 -5 11 -20 52 -35 90 -15 39 -33 84 -40 100 -7 17 -18 46 -26 65 -7 19 -25 62 -41 94 -15 33 -28 63 -28 68 0 4 -13 37 -30 73 -16 36 -30 67 -30 69 0 2 -18 44 -41 93 -155 337 -251 535 -379 778 -34 66 -70 134 -78 150 -8 17 -32 59 -52 95 -21 36 -48 85 -62 110 -149 269 -426 724 -506 830 -10 14 -29 43 -42 65 -13 22 -36 56 -51 75 -15 19 -36 49 -46 66 -26 44 -178 261 -302 431 -55 74 -103 137 -164 213 -7 8 -41 53 -77 100 -35 47 -67 87 -70 90 -3 3 -44 52 -90 110 -46 58 -109 134 -140 170 -31 36 -65 76 -76 89 -10 14 -60 70 -109 125 -50 56 -144 161 -210 235 -161 181 -674 694 -860 860 -82 73 -173 154 -200 180 -58 53 -108 97 -185 161 -29 25 -86 72 -125 105 -106 89 -157 131 -227 186 -35 27 -97 76 -138 109 -79 63 -169 131 -250 190 -176 127 -291 210 -336 240 -29 19 -126 86 -218 148 -91 61 -169 112 -173 112 -5 1 -24 14 -43 30 -19 17 -38 30 -43 30 -4 0 -34 17 -65 39 -31 21 -149 94 -262 161 -212 128 -274 163 -450 258 -19 11 -73 40 -120 66 -87 47 -606 306 -740 369 -69 32 -97 45 -215 97 -36 16 -116 50 -200 85 -16 7 -56 25 -88 39 -32 14 -61 26 -65 26 -5 0 -27 9 -50 20 -22 11 -45 20 -50 20 -4 0 -27 9 -50 20 -22 11 -47 20 -55 20 -7 0 -17 4 -22 9 -6 5 -30 16 -55 24 -44 15 -115 41 -155 57 -11 4 -36 13 -55 20 -19 7 -44 16 -55 21 -11 5 -96 34 -190 65 -93 31 -186 62 -205 69 -19 7 -69 23 -110 35 -41 13 -84 27 -95 31 -11 4 -51 17 -90 28 -38 11 -115 33 -170 50 -55 16 -111 32 -125 36 -29 7 -158 42 -210 56 -19 5 -53 13 -75 18 -41 9 -142 35 -205 51 -19 5 -60 14 -90 21 -30 6 -66 15 -80 19 -14 5 -56 14 -95 20 -38 7 -81 16 -95 20 -14 5 -54 13 -90 20 -36 6 -83 15 -105 20 -22 5 -71 14 -110 20 -38 6 -83 15 -100 20 -16 4 -68 13 -115 20 -47 6 -103 15 -125 21 -120 28 -766 105 -1085 129 -74 6 -202 15 -285 21 -176 13 -1492 20 -1580 8z" fill="#27365c" id="27365c-000001"/>
    <path stroke="none" d="M15641 28774 c4 -2 83 -7 176 -10 92 -3 175 -8 183 -11 8 -3 51 -7 95 -9 164 -9 558 -51 790 -84 39 -6 104 -14 145 -20 173 -22 601 -97 795 -140 22 -4 63 -13 90 -19 28 -5 70 -15 95 -21 25 -5 65 -14 90 -19 25 -5 63 -14 85 -20 22 -6 60 -16 85 -22 25 -5 61 -14 80 -19 19 -5 53 -13 75 -19 22 -5 76 -19 120 -31 44 -12 96 -25 115 -30 36 -9 92 -24 145 -40 17 -5 46 -13 65 -18 19 -6 71 -21 115 -35 44 -14 127 -40 185 -58 58 -17 123 -38 145 -46 22 -9 54 -19 70 -23 27 -8 162 -55 385 -135 41 -15 89 -33 105 -40 17 -8 53 -21 80 -30 28 -10 68 -25 90 -35 22 -10 60 -25 85 -35 25 -9 61 -23 80 -32 33 -14 44 -19 103 -42 12 -5 47 -20 77 -34 30 -14 78 -34 105 -45 61 -24 133 -57 285 -129 63 -30 133 -62 154 -71 41 -16 390 -192 511 -257 189 -101 221 -118 230 -125 6 -4 46 -26 90 -50 44 -24 92 -51 107 -61 14 -11 28 -19 31 -19 3 0 35 -18 72 -41 37 -22 82 -49 99 -59 17 -9 69 -41 116 -70 47 -29 99 -60 115 -70 39 -23 277 -177 292 -189 6 -6 35 -25 65 -43 29 -17 55 -35 58 -38 3 -4 46 -34 95 -68 188 -128 211 -145 435 -312 139 -104 203 -152 210 -160 3 -3 21 -17 40 -30 19 -13 37 -27 40 -30 3 -3 52 -44 110 -90 58 -46 107 -87 110 -90 3 -3 48 -41 100 -84 149 -123 246 -207 336 -291 11 -11 54 -49 95 -85 247 -215 730 -704 999 -1010 36 -41 85 -97 110 -125 25 -27 90 -104 145 -170 55 -66 102 -122 105 -125 3 -3 21 -25 40 -50 19 -25 37 -47 40 -50 5 -5 72 -89 171 -215 30 -38 66 -86 79 -105 13 -19 27 -37 30 -40 7 -7 138 -183 181 -244 19 -26 60 -85 92 -130 81 -113 306 -448 354 -526 22 -36 64 -103 93 -150 29 -47 60 -98 70 -115 10 -16 40 -67 69 -113 28 -46 51 -86 51 -89 0 -3 8 -17 18 -31 11 -15 32 -52 49 -82 17 -30 40 -73 53 -95 12 -22 37 -67 55 -100 17 -33 51 -96 75 -140 91 -169 315 -622 380 -770 12 -27 31 -69 41 -92 46 -103 63 -141 85 -191 13 -29 24 -55 24 -57 0 -3 10 -27 21 -53 37 -81 47 -106 64 -152 22 -59 29 -76 54 -132 12 -26 21 -54 21 -61 0 -7 4 -17 8 -23 4 -5 14 -27 21 -49 7 -22 16 -49 21 -60 5 -11 23 -60 41 -110 17 -49 35 -99 40 -110 4 -11 13 -38 20 -60 7 -22 16 -44 19 -50 4 -5 12 -30 19 -55 7 -25 17 -54 21 -65 5 -11 14 -38 21 -60 6 -22 15 -49 20 -60 4 -11 13 -38 20 -60 6 -22 15 -49 19 -60 10 -26 75 -246 101 -340 6 -22 15 -51 19 -65 5 -14 13 -47 20 -75 7 -27 16 -59 20 -70 5 -11 16 -51 25 -90 9 -38 20 -86 26 -105 5 -19 13 -53 19 -75 5 -22 14 -58 19 -80 6 -22 16 -60 21 -85 69 -317 87 -402 120 -575 29 -149 87 -503 100 -605 6 -41 14 -106 20 -145 10 -68 20 -149 41 -340 19 -178 27 -272 34 -405 3 -74 11 -155 16 -180 31 -145 30 -1453 0 -1790 -6 -58 -15 -172 -21 -255 -6 -82 -15 -179 -20 -215 -5 -36 -14 -119 -20 -185 -6 -66 -15 -142 -20 -170 -5 -27 -14 -93 -20 -145 -6 -52 -15 -120 -21 -150 -5 -30 -16 -95 -24 -145 -15 -97 -49 -299 -65 -380 -5 -27 -14 -75 -20 -105 -5 -30 -14 -75 -20 -100 -6 -25 -14 -65 -19 -90 -28 -136 -64 -292 -91 -402 -6 -21 -14 -56 -20 -78 -5 -22 -14 -58 -20 -80 -5 -22 -14 -58 -20 -80 -16 -65 -32 -123 -40 -150 -4 -14 -13 -43 -19 -65 -12 -45 -61 -214 -93 -320 -11 -38 -25 -78 -29 -87 -5 -10 -9 -27 -9 -37 0 -11 -4 -23 -10 -26 -5 -3 -10 -16 -10 -29 0 -12 -4 -26 -8 -31 -5 -6 -14 -30 -21 -55 -7 -25 -17 -54 -21 -65 -4 -11 -13 -38 -19 -60 -7 -22 -16 -49 -21 -60 -5 -11 -23 -63 -40 -115 -18 -52 -41 -114 -51 -137 -10 -24 -19 -47 -19 -52 0 -9 -32 -93 -61 -158 -11 -24 -19 -47 -19 -53 0 -6 -9 -32 -21 -58 -12 -26 -25 -57 -30 -69 -5 -13 -13 -33 -18 -45 -5 -13 -18 -44 -30 -70 -12 -26 -21 -50 -21 -53 0 -3 -9 -25 -20 -50 -11 -25 -29 -65 -40 -90 -11 -25 -20 -47 -20 -49 0 -2 -18 -44 -41 -93 -22 -48 -47 -104 -56 -123 -59 -132 -302 -625 -370 -750 -16 -30 -48 -89 -70 -130 -38 -70 -54 -99 -103 -185 -11 -19 -29 -51 -40 -70 -11 -19 -29 -50 -39 -69 -11 -18 -38 -64 -61 -102 -24 -38 -51 -83 -60 -100 -10 -18 -41 -67 -68 -110 -27 -44 -73 -117 -102 -164 -85 -136 -340 -512 -421 -620 -14 -19 -47 -64 -73 -100 -26 -36 -69 -94 -96 -130 -27 -36 -70 -92 -95 -125 -64 -85 -129 -168 -208 -266 -38 -46 -75 -93 -84 -104 -9 -11 -37 -45 -63 -75 -25 -30 -55 -66 -66 -79 -42 -53 -233 -269 -296 -336 -36 -38 -85 -95 -109 -125 -56 -71 -677 -692 -749 -749 -30 -24 -104 -89 -165 -146 -94 -88 -159 -144 -295 -258 -55 -45 -145 -122 -150 -127 -20 -22 -429 -341 -575 -449 -153 -114 -170 -125 -420 -297 -66 -46 -133 -92 -150 -103 -68 -47 -276 -181 -281 -181 -3 0 -24 -13 -47 -29 -23 -16 -58 -38 -77 -49 -19 -11 -66 -38 -104 -62 -38 -23 -83 -50 -100 -60 -17 -9 -71 -41 -119 -69 -49 -28 -91 -51 -94 -51 -3 0 -17 -8 -31 -18 -29 -20 -96 -58 -232 -130 -47 -25 -119 -64 -160 -86 -79 -43 -365 -185 -460 -229 -30 -14 -100 -46 -155 -72 -55 -25 -109 -50 -120 -55 -11 -4 -49 -21 -85 -37 -36 -17 -81 -36 -100 -43 -19 -8 -50 -22 -68 -32 -18 -10 -37 -18 -42 -18 -6 0 -32 -9 -58 -21 -26 -12 -56 -25 -67 -29 -11 -4 -41 -17 -67 -29 -26 -12 -52 -21 -58 -21 -6 0 -18 -4 -28 -9 -32 -16 -80 -36 -177 -71 -33 -12 -82 -30 -109 -41 -27 -10 -53 -19 -57 -19 -5 0 -28 -9 -52 -19 -23 -11 -62 -25 -87 -32 -25 -7 -49 -16 -55 -21 -5 -4 -17 -8 -27 -8 -10 0 -26 -4 -36 -9 -37 -19 -71 -31 -172 -61 -58 -17 -114 -35 -125 -40 -11 -6 -45 -16 -75 -24 -30 -8 -89 -25 -130 -39 -41 -13 -97 -30 -125 -37 -27 -6 -59 -16 -70 -20 -11 -5 -31 -11 -45 -14 -14 -2 -41 -9 -60 -15 -67 -19 -195 -53 -235 -62 -22 -5 -58 -14 -80 -19 -22 -6 -58 -15 -80 -20 -22 -6 -58 -15 -80 -21 -22 -6 -60 -15 -85 -20 -25 -5 -65 -14 -90 -19 -25 -6 -65 -15 -90 -20 -25 -5 -67 -14 -95 -20 -61 -14 -134 -28 -200 -40 -27 -5 -99 -18 -160 -29 -60 -12 -157 -28 -215 -36 -58 -8 -123 -19 -145 -24 -22 -5 -87 -15 -145 -21 -58 -6 -123 -15 -145 -20 -22 -5 -89 -14 -150 -20 -60 -6 -141 -15 -180 -20 -65 -9 -239 -24 -395 -35 -480 -35 -550 -37 -1050 -37 -500 0 -594 4 -1070 38 -89 7 -378 34 -470 44 -41 5 -115 13 -165 19 -49 5 -121 15 -160 21 -38 6 -101 15 -140 20 -120 16 -438 69 -595 101 -25 5 -70 13 -100 19 -30 5 -75 14 -100 20 -25 6 -65 14 -90 19 -56 12 -223 49 -270 61 -19 4 -57 13 -85 20 -48 11 -89 21 -165 40 -19 5 -69 18 -110 30 -41 12 -109 31 -150 42 -108 28 -129 34 -190 53 -30 10 -84 26 -120 37 -161 47 -269 81 -314 99 -27 10 -53 19 -59 19 -8 0 -110 35 -292 100 -27 10 -99 37 -160 60 -60 23 -135 51 -165 62 -30 11 -74 29 -97 39 -24 11 -47 19 -53 19 -5 0 -25 9 -45 20 -20 11 -40 20 -45 20 -6 0 -32 10 -58 21 -26 12 -63 28 -82 36 -19 8 -48 21 -64 29 -16 8 -33 14 -38 14 -5 0 -41 15 -81 34 -40 19 -94 44 -122 56 -115 52 -253 118 -470 226 -211 105 -285 144 -447 233 -32 17 -82 44 -110 60 -29 15 -70 38 -90 50 -21 11 -53 30 -72 40 -18 11 -64 38 -102 61 -38 24 -83 51 -100 60 -17 10 -62 37 -100 60 -38 24 -82 50 -99 60 -39 22 -241 153 -280 180 -16 12 -52 36 -79 53 -111 72 -264 178 -386 267 -30 22 -89 63 -130 92 -41 28 -77 54 -80 58 -7 8 -161 127 -215 165 -41 29 -114 87 -165 132 -14 11 -50 41 -82 65 -67 52 -331 273 -373 314 -17 16 -59 54 -95 84 -272 231 -939 899 -1160 1160 -30 36 -57 67 -60 70 -3 3 -35 39 -70 80 -36 41 -67 77 -70 80 -3 3 -25 30 -50 60 -25 30 -47 57 -50 60 -8 7 -239 296 -272 342 -15 20 -33 42 -40 50 -7 7 -36 45 -64 84 -28 38 -58 79 -67 90 -9 10 -37 48 -63 84 -26 36 -64 88 -84 115 -108 147 -385 559 -495 736 -75 123 -167 274 -194 324 -16 28 -53 93 -83 145 -141 243 -230 409 -366 685 -126 253 -169 344 -279 595 -31 69 -66 149 -79 178 -13 29 -24 58 -24 65 0 7 -4 17 -8 22 -5 6 -17 30 -26 55 -10 25 -24 59 -31 75 -7 17 -32 80 -55 140 -23 61 -46 119 -50 130 -8 19 -21 56 -70 190 -11 30 -29 79 -39 108 -11 28 -25 70 -32 92 -6 22 -15 49 -20 60 -4 11 -13 38 -20 60 -6 22 -15 49 -20 60 -4 11 -13 38 -20 60 -6 22 -15 49 -19 60 -4 11 -18 54 -30 95 -13 41 -31 100 -40 130 -10 30 -23 78 -30 105 -6 28 -16 59 -20 70 -5 11 -16 49 -25 85 -16 64 -35 136 -76 288 -20 76 -27 104 -47 192 -6 25 -20 88 -32 140 -46 199 -71 317 -90 425 -5 28 -18 100 -30 160 -23 120 -57 325 -70 420 -5 33 -13 94 -20 135 -6 41 -15 113 -21 160 -6 47 -14 119 -19 160 -5 41 -16 154 -25 250 -9 96 -20 209 -25 250 -19 152 -41 695 -43 1090 -2 328 20 885 43 1095 5 50 14 151 20 225 6 74 15 162 20 195 6 33 17 121 25 195 9 74 20 164 25 200 5 36 14 97 19 135 15 106 49 307 72 425 11 58 24 130 29 160 5 30 14 78 20 105 6 28 15 71 20 96 4 25 16 77 25 115 9 38 20 89 26 114 6 25 14 61 19 80 5 19 13 55 19 80 13 59 18 80 42 170 11 41 25 93 30 115 9 42 22 91 40 153 6 20 13 49 16 65 3 15 9 30 14 33 5 3 9 16 9 29 0 13 4 34 9 47 5 13 19 57 31 98 12 41 26 84 30 95 4 11 13 40 20 65 7 25 16 54 20 65 4 11 13 38 19 60 7 22 16 49 20 60 5 11 14 38 20 60 7 22 16 49 20 60 5 11 14 38 20 60 7 22 16 49 21 60 5 11 16 40 24 65 8 25 29 83 46 130 17 47 38 105 47 130 8 25 23 63 33 85 10 22 28 67 40 100 12 33 28 74 35 90 7 17 21 50 31 75 9 25 21 49 26 55 4 5 8 15 8 22 0 7 12 38 26 70 14 32 33 74 41 93 9 19 28 63 44 97 16 34 29 64 29 68 0 3 18 45 41 93 23 48 59 125 81 172 80 171 285 576 356 700 14 25 37 68 52 95 15 28 51 91 80 140 29 50 66 115 83 145 16 30 38 67 49 82 10 14 18 29 18 32 0 4 38 65 90 146 51 78 90 142 90 146 0 6 307 464 374 559 100 140 326 445 344 463 7 8 25 30 40 50 33 46 264 335 272 342 3 3 25 30 50 60 25 30 47 57 50 60 3 3 18 21 34 40 16 19 65 75 110 124 44 49 88 98 95 110 65 93 811 844 1030 1036 41 36 122 108 181 160 119 106 293 252 379 319 31 24 78 62 105 84 93 79 462 357 566 427 36 24 67 46 70 50 3 3 41 31 85 61 44 30 94 64 110 75 43 30 112 77 139 94 13 8 34 22 47 31 141 95 555 350 694 429 339 191 439 244 740 393 243 121 315 156 440 212 33 15 93 42 133 61 41 19 78 34 83 34 5 0 17 4 27 10 29 16 152 70 161 70 4 0 21 6 37 14 49 24 94 42 234 96 74 28 144 55 155 60 11 4 36 13 55 20 19 7 44 16 55 20 79 32 278 102 305 107 14 3 30 9 35 13 6 3 30 12 55 19 25 7 54 17 65 21 49 19 320 102 460 141 22 6 51 15 65 19 14 4 43 12 65 18 22 6 72 20 110 31 39 12 80 21 91 21 11 0 24 4 30 8 5 5 36 14 69 21 33 7 71 17 85 22 23 8 74 19 245 55 39 8 86 18 105 23 68 18 127 31 345 71 303 57 312 58 385 69 36 6 94 15 130 21 101 17 469 65 565 74 28 2 95 9 150 15 97 11 202 19 505 41 290 21 584 28 1014 24 242 -3 443 -7 447 -10z" fill="#ffffff" id="ffffff-000003"/>
    <path stroke="none" d="M16915 27608 c-16 -5 -46 -14 -65 -20 -100 -28 -221 -127 -260 -214 -77 -168 -82 -312 -16 -447 34 -70 132 -172 246 -257 77 -57 178 -145 217 -189 57 -66 78 -106 92 -181 10 -54 10 -76 -2 -125 -22 -89 -32 -110 -79 -161 -56 -61 -95 -77 -193 -77 -153 -1 -266 57 -315 161 -20 40 -23 63 -22 157 0 61 -4 116 -10 123 -6 6 -28 12 -49 12 -43 0 -42 2 -58 -110 -17 -121 -42 -265 -50 -291 -12 -37 -4 -45 70 -75 35 -14 82 -34 104 -44 86 -39 112 -47 180 -59 39 -7 86 -17 105 -21 44 -12 203 11 257 36 59 27 124 74 165 118 81 87 148 268 148 397 -1 166 -100 312 -334 488 -199 151 -266 244 -266 371 0 115 58 219 140 248 86 31 100 33 158 22 108 -21 145 -35 188 -73 56 -49 77 -111 74 -215 -3 -100 -4 -97 25 -110 52 -24 62 -13 84 98 6 30 18 89 27 130 34 163 37 189 24 205 -7 8 -19 15 -26 15 -8 0 -54 13 -102 29 -187 62 -373 86 -457 59z" fill="#27365c" id="27365c-000002"/>
    <path stroke="none" d="M14971 27328 c-16 -5 -325 -17 -641 -23 -134 -3 -125 -1 -139 -31 -10 -23 -9 -30 11 -51 14 -15 32 -23 48 -22 126 7 129 1 136 -244 3 -100 9 -310 14 -467 10 -346 7 -384 -30 -410 -16 -11 -39 -20 -53 -20 -38 0 -86 -20 -97 -40 -15 -27 4 -66 35 -74 14 -4 45 -2 68 5 24 6 141 12 285 12 263 2 262 2 254 57 -6 44 -27 55 -120 60 -124 7 -122 4 -125 292 l-2 223 125 3 c147 3 159 -3 185 -92 14 -49 19 -54 48 -59 69 -10 77 14 56 170 -6 48 -7 99 -2 129 5 27 6 65 3 84 -4 31 -9 35 -43 41 -46 7 -59 -6 -67 -69 -8 -68 -33 -79 -190 -84 l-125 -3 -6 196 c-4 109 -4 212 0 230 10 48 46 57 234 58 138 1 162 -1 201 -19 49 -24 66 -61 66 -147 0 -63 14 -75 77 -71 l48 3 -4 115 c-3 63 -5 147 -5 185 l-1 70 -113 0 c-62 0 -121 -3 -131 -7z" fill="#27365c" id="27365c-000003"/>
    <path stroke="none" d="M13185 27204 c-69 -6 -176 -27 -181 -36 -3 -4 -13 -8 -24 -8 -19 0 -112 -46 -163 -82 -103 -71 -203 -206 -239 -322 -36 -116 -51 -320 -29 -392 5 -16 14 -53 21 -82 29 -126 125 -269 237 -354 93 -70 169 -102 290 -118 185 -25 415 28 538 124 83 65 152 150 192 236 28 61 35 81 62 186 14 53 14 241 0 302 -32 144 -51 194 -111 283 -77 117 -227 222 -353 248 -59 12 -184 20 -240 15z" fill="#27365c" id="27365c-000004"/>
    <path stroke="none" d="M13290 27009 c142 -41 294 -171 364 -312 79 -161 93 -300 44 -442 -48 -140 -153 -231 -306 -265 -256 -58 -492 84 -615 370 -29 68 -41 136 -40 231 1 124 14 171 79 274 82 130 294 194 474 144z" fill="#ffffff" id="ffffff-000004"/>
    <path stroke="none" d="M18431 26821 c-11 -11 -26 -34 -35 -53 -9 -18 -47 -72 -84 -119 -37 -48 -76 -99 -87 -114 -11 -16 -40 -54 -65 -85 -25 -31 -56 -72 -70 -90 -14 -19 -34 -45 -46 -59 -26 -33 -107 -138 -208 -271 -44 -58 -107 -134 -141 -169 l-60 -63 -82 5 c-79 5 -83 4 -98 -20 -31 -47 -7 -69 105 -93 30 -7 63 -16 72 -21 10 -5 27 -9 37 -9 11 0 33 -5 48 -11 43 -18 65 -25 108 -38 22 -7 55 -20 74 -28 34 -15 35 -15 58 13 36 46 30 59 -44 94 -38 18 -73 37 -80 42 -16 13 -17 12 146 231 28 37 51 57 64 57 22 0 81 -17 109 -31 10 -5 23 -9 30 -9 7 0 57 -14 113 -30 55 -17 117 -36 137 -42 21 -6 44 -18 52 -27 14 -16 29 -155 30 -281 l1 -65 -40 0 c-22 1 -59 4 -81 9 -47 8 -74 -9 -74 -48 0 -28 19 -45 62 -56 160 -41 250 -67 343 -100 138 -49 158 -49 175 -5 13 34 4 52 -36 71 -19 9 -52 33 -74 53 -53 47 -64 94 -79 336 -18 272 -19 286 -31 430 -5 72 -15 202 -20 290 -12 191 -23 281 -34 292 -7 8 -120 30 -158 32 -10 1 -27 -8 -37 -18z" fill="#27365c" id="27365c-000005"/>
    <path stroke="none" d="M18449 26506 c6 -25 11 -84 11 -133 0 -48 5 -106 9 -128 5 -22 11 -78 13 -125 l3 -85 -35 3 c-19 1 -44 6 -55 11 -11 5 -42 14 -70 21 -27 7 -59 15 -70 20 -11 4 -40 13 -65 20 -25 7 -51 14 -57 16 -19 5 -16 29 7 49 11 10 20 22 20 27 0 5 35 53 78 106 43 53 89 113 102 132 13 19 30 41 38 49 7 8 20 24 29 37 22 34 29 30 42 -20z" fill="#ffffff" id="ffffff-000005"/>
    <path stroke="none" d="M11315 26765 c-27 -13 -57 -24 -66 -24 -9 -1 -19 -4 -22 -8 -7 -6 -70 -30 -157 -59 -25 -8 -54 -19 -65 -24 -11 -5 -32 -11 -47 -14 -15 -4 -39 -16 -54 -29 -24 -21 -25 -25 -13 -45 19 -31 52 -37 90 -18 18 9 48 16 67 16 l35 0 -7 -62 c-11 -108 -43 -286 -77 -428 -5 -25 -13 -57 -16 -72 -3 -16 -9 -28 -14 -28 -15 0 -56 28 -144 98 -44 34 -107 84 -140 110 -33 26 -62 49 -65 52 -3 3 -31 27 -63 54 -32 27 -56 54 -54 59 2 6 29 24 62 41 75 40 87 58 57 88 l-22 22 -57 -19 c-32 -10 -65 -22 -73 -26 -61 -27 -190 -76 -265 -100 -22 -7 -44 -17 -50 -21 -5 -4 -19 -8 -30 -8 -21 0 -65 -33 -65 -49 0 -5 9 -19 19 -32 18 -22 21 -23 65 -11 91 24 132 13 231 -63 22 -16 42 -32 45 -36 3 -3 61 -48 128 -100 68 -51 149 -114 180 -137 32 -24 70 -56 86 -70 36 -35 99 -127 115 -172 7 -19 17 -44 21 -55 25 -61 69 -184 74 -210 9 -46 -13 -77 -79 -111 -52 -26 -60 -34 -63 -61 -2 -23 2 -34 17 -42 20 -11 30 -9 96 20 101 44 271 109 285 109 9 0 20 4 26 8 5 4 27 14 49 21 22 7 49 16 60 20 11 5 33 14 48 20 36 14 42 33 21 66 -14 21 -22 25 -43 20 -14 -3 -52 -11 -84 -17 -75 -14 -100 -3 -128 59 -22 49 -77 192 -86 228 -3 11 -9 25 -13 30 -4 6 -13 33 -20 62 -16 62 -3 162 60 456 5 26 15 71 21 100 6 28 15 66 20 83 5 17 9 39 9 50 1 49 29 100 76 136 27 21 55 38 63 38 33 0 55 72 29 98 -15 15 -14 16 -73 -13z" fill="#27365c" id="27365c-000006"/>
    <path stroke="none" d="M19487 26473 c-4 -3 -7 -19 -7 -35 0 -21 10 -35 43 -58 23 -17 50 -37 60 -45 18 -16 22 -55 8 -83 -5 -9 -13 -28 -19 -42 -5 -14 -17 -41 -25 -60 -55 -126 -107 -252 -107 -256 0 -2 -10 -26 -21 -52 -12 -26 -28 -63 -36 -82 -8 -19 -21 -48 -29 -64 -8 -16 -14 -33 -14 -37 0 -9 -54 -132 -70 -161 -6 -10 -10 -23 -10 -28 0 -23 -63 -140 -88 -165 -28 -28 -40 -29 -131 -6 -54 14 -81 7 -81 -23 0 -30 18 -51 60 -65 19 -7 44 -17 55 -21 11 -4 36 -13 55 -20 53 -19 140 -57 267 -116 85 -40 96 -41 112 -10 19 34 10 57 -29 78 -73 39 -93 84 -69 145 6 15 15 37 19 48 5 11 17 41 29 67 12 26 21 50 21 53 0 2 14 34 30 70 17 36 30 68 30 70 0 3 9 27 21 53 12 26 24 56 29 67 4 11 18 43 30 70 12 28 26 59 30 70 5 11 17 41 29 67 12 26 21 50 21 53 0 3 9 27 21 53 12 26 25 57 30 70 23 56 35 79 57 111 27 36 18 35 143 15 30 -5 39 -2 52 17 11 15 13 27 7 39 -5 10 -69 41 -142 70 -73 29 -164 68 -203 86 -137 63 -164 72 -178 57z" fill="#27365c" id="27365c-000007"/>
    <path stroke="none" d="M9730 26140 c-14 -11 -29 -20 -33 -20 -5 0 -21 -8 -35 -18 -26 -19 -76 -46 -217 -122 -38 -21 -88 -48 -110 -60 -39 -22 -78 -43 -250 -135 -44 -23 -96 -52 -116 -63 -59 -33 -232 -119 -266 -132 -41 -16 -46 -30 -21 -71 22 -35 102 -194 132 -261 22 -50 48 -64 81 -42 16 11 25 25 25 43 0 25 -18 85 -32 106 -12 19 -20 85 -14 110 8 32 55 63 256 172 l45 24 22 -27 c12 -16 38 -60 58 -98 20 -39 51 -98 69 -131 18 -33 56 -105 85 -159 30 -55 62 -116 74 -135 33 -59 97 -180 150 -284 45 -89 48 -100 37 -127 -7 -16 -40 -50 -76 -76 -35 -26 -64 -54 -64 -63 1 -20 34 -61 50 -61 10 0 92 42 115 60 6 4 36 21 68 39 31 17 83 45 115 63 31 18 107 57 167 88 119 60 132 76 94 116 -24 26 -39 29 -67 15 -92 -47 -139 -48 -187 -5 -25 22 -64 90 -175 299 -23 44 -55 103 -70 130 -15 28 -45 82 -65 120 -21 39 -50 93 -65 120 -91 167 -118 222 -112 232 11 17 237 130 276 137 55 11 95 -14 144 -89 48 -72 68 -83 110 -61 53 27 51 46 -9 137 -46 69 -81 131 -129 229 -11 22 -32 22 -60 0z" fill="#27365c" id="27365c-000008"/>
    <path stroke="none" d="M20376 26095 c-9 -9 -16 -29 -16 -45 0 -22 9 -35 41 -57 134 -91 134 -116 -3 -342 -21 -34 -38 -64 -38 -66 0 -2 -32 -59 -71 -127 -39 -67 -80 -138 -90 -155 -42 -73 -63 -111 -92 -163 -45 -81 -93 -154 -111 -169 -23 -19 -94 -15 -143 9 -54 26 -69 25 -89 -5 -31 -48 -20 -57 186 -162 19 -9 71 -40 115 -67 44 -27 99 -60 122 -73 24 -14 45 -29 48 -34 18 -28 94 23 82 54 -3 8 -34 36 -69 63 -35 27 -69 55 -77 62 -23 23 -19 103 7 139 12 17 22 34 22 37 0 3 14 29 31 58 18 29 45 78 62 108 17 30 38 67 49 82 10 14 18 29 18 32 0 3 14 29 31 58 38 63 63 107 97 168 50 91 86 140 95 131 5 -5 13 -39 18 -77 10 -80 20 -134 49 -294 12 -63 26 -137 31 -165 5 -27 13 -70 19 -95 5 -25 14 -68 19 -97 6 -28 17 -80 25 -115 8 -35 22 -97 31 -138 21 -98 54 -246 65 -290 4 -19 11 -49 15 -67 8 -33 52 -63 92 -63 18 0 53 28 53 43 0 3 14 30 31 59 18 29 42 72 55 96 13 23 35 61 48 85 13 23 38 67 56 97 18 30 41 70 51 88 11 17 29 49 40 70 12 20 35 62 52 92 17 30 38 67 49 82 10 14 18 29 18 32 0 3 14 29 31 58 18 29 45 78 62 108 46 85 94 140 123 140 21 0 85 -24 136 -51 29 -15 43 -10 61 20 29 49 28 49 -203 173 -25 13 -64 36 -88 51 -41 27 -61 38 -160 94 -42 23 -45 24 -63 7 -33 -30 -25 -69 22 -101 116 -79 123 -117 46 -247 -16 -28 -43 -76 -60 -106 -17 -30 -38 -67 -49 -82 -10 -14 -18 -29 -18 -32 0 -3 -14 -29 -31 -58 -18 -29 -40 -68 -50 -85 -11 -18 -29 -50 -40 -70 -12 -21 -35 -63 -52 -93 -55 -101 -58 -100 -76 10 -7 41 -16 91 -21 110 -5 19 -14 64 -20 100 -6 36 -15 81 -20 100 -5 19 -14 62 -20 95 -6 33 -16 78 -20 100 -5 22 -14 67 -20 100 -6 33 -15 76 -20 95 -5 19 -14 64 -20 100 -6 36 -15 81 -20 100 -5 19 -14 64 -20 100 -35 200 -42 216 -99 244 -72 36 -162 87 -207 117 -55 38 -87 45 -108 24z" fill="#27365c" id="27365c-000009"/>
    <path stroke="none" d="M8280 25298 c-19 -12 -55 -38 -80 -58 -56 -45 -287 -200 -299 -200 -18 0 -32 -29 -25 -54 9 -39 43 -42 104 -11 76 38 94 33 152 -50 27 -38 81 -116 121 -173 39 -57 83 -120 97 -141 14 -21 63 -94 110 -161 207 -299 220 -321 220 -359 0 -31 -9 -47 -50 -91 -52 -56 -60 -84 -29 -103 20 -13 58 -3 84 20 46 43 338 243 353 243 5 0 19 11 31 24 46 49 2 103 -59 73 -84 -43 -128 -31 -185 50 -22 31 -59 82 -82 113 -24 32 -43 62 -43 66 0 5 -10 20 -21 34 -24 30 -131 182 -179 255 -19 29 -73 107 -120 174 -47 67 -91 132 -98 144 -21 37 -6 78 45 124 47 42 48 43 33 70 -20 36 -37 38 -80 11z" fill="#27365c" id="27365c-000010"/>
    <path stroke="none" d="M22135 25062 c-6 -4 -26 -27 -45 -52 -37 -48 -141 -170 -177 -208 -30 -30 -29 -46 4 -71 36 -29 56 -21 130 52 79 77 101 79 193 17 105 -71 200 -151 200 -169 0 -9 -13 -29 -28 -46 -16 -16 -45 -52 -66 -79 -20 -27 -148 -188 -283 -357 -167 -210 -256 -313 -278 -323 -37 -18 -78 -10 -134 27 -58 38 -70 39 -97 12 -13 -13 -24 -28 -24 -33 0 -13 31 -45 70 -72 32 -22 93 -70 250 -194 30 -24 80 -67 110 -95 71 -66 96 -73 127 -36 28 31 24 39 -44 112 -59 62 -64 113 -19 178 11 17 23 32 26 35 4 3 24 28 45 55 21 28 150 191 287 362 174 218 254 311 263 305 51 -29 211 -174 233 -211 23 -40 24 -46 12 -80 -7 -20 -25 -54 -41 -77 -39 -57 -44 -85 -22 -112 10 -11 30 -24 44 -27 24 -6 31 -1 60 42 53 79 136 188 154 203 14 12 45 62 45 74 0 2 -15 13 -32 25 -57 36 -124 85 -174 127 -27 23 -72 59 -100 80 -28 22 -71 55 -95 75 -68 57 -447 360 -493 395 -23 17 -50 41 -60 53 -21 23 -26 24 -41 13z" fill="#27365c" id="27365c-000011"/>
    <path stroke="none" d="M7406 24660 c-239 -146 -363 -278 -415 -441 -14 -46 -14 -160 0 -196 31 -76 41 -92 82 -134 25 -24 64 -54 88 -66 52 -24 164 -47 182 -36 6 4 39 11 72 15 68 8 98 15 240 53 119 32 245 37 297 12 34 -16 94 -75 116 -114 39 -71 -18 -190 -133 -279 -47 -36 -107 -68 -154 -83 -59 -19 -135 13 -209 86 -39 39 -61 41 -98 10 -34 -29 -29 -56 21 -112 20 -22 63 -76 96 -120 34 -44 66 -83 73 -87 7 -4 24 0 37 10 13 9 57 34 97 54 158 81 217 123 312 224 63 67 94 119 119 195 14 46 14 200 0 236 -30 75 -54 114 -93 151 -88 86 -183 112 -329 92 -50 -7 -117 -19 -147 -27 -30 -8 -82 -21 -115 -29 -33 -8 -74 -19 -91 -24 -57 -18 -162 -12 -205 12 -51 28 -92 91 -92 139 0 56 24 96 100 170 86 84 118 105 169 113 68 12 107 -1 167 -55 30 -27 62 -49 69 -49 16 0 58 41 58 56 0 18 -185 279 -200 281 -8 2 -59 -24 -114 -57z" fill="#27365c" id="27365c-000012"/>
    <path stroke="none" d="M24275 23670 c-18 -20 -17 -21 14 -65 42 -59 63 -110 55 -139 -6 -25 -83 -103 -194 -196 -36 -30 -72 -62 -80 -70 -30 -30 -217 -196 -280 -250 -36 -30 -72 -61 -80 -70 -18 -18 -178 -161 -269 -240 -35 -30 -73 -64 -85 -75 -12 -11 -60 -54 -106 -95 -47 -41 -87 -77 -90 -80 -25 -25 -132 -110 -160 -126 -61 -36 -125 -47 -189 -33 -31 7 -65 18 -76 26 -40 27 -70 11 -81 -44 -7 -38 13 -58 99 -100 90 -45 124 -53 214 -53 96 0 163 24 238 84 28 23 52 43 55 46 3 3 39 34 80 70 41 36 77 67 80 70 30 30 210 190 226 201 12 8 68 57 125 109 57 52 126 115 154 140 27 25 52 48 55 51 3 3 14 12 26 20 12 8 63 52 115 99 51 47 116 105 144 130 27 25 52 47 55 50 18 18 131 110 158 129 43 30 66 24 139 -39 63 -54 74 -58 97 -34 28 27 18 52 -46 117 -75 75 -138 145 -194 212 -23 28 -65 78 -93 113 -55 66 -77 74 -106 42z" fill="#27365c" id="27365c-000013"/>
    <path stroke="none" d="M6343 23605 c-121 -38 -213 -110 -353 -275 -90 -106 -123 -143 -155 -175 -17 -16 -54 -56 -84 -87 l-54 -58 27 -35 c15 -19 31 -35 36 -35 5 0 33 18 62 40 29 22 59 40 65 40 24 0 73 -37 179 -136 59 -54 139 -128 178 -164 39 -36 91 -85 116 -110 25 -25 61 -58 80 -74 19 -15 81 -73 138 -127 118 -116 125 -136 72 -214 -16 -24 -30 -47 -30 -52 0 -4 11 -21 24 -38 22 -27 26 -28 47 -16 13 7 42 35 64 63 97 121 186 216 263 281 37 32 41 58 10 87 -31 29 -48 25 -98 -20 -25 -23 -54 -40 -68 -40 -27 0 -95 44 -133 86 -14 16 -39 40 -55 53 -16 13 -63 56 -104 95 -41 39 -136 127 -210 196 -256 238 -300 285 -300 320 0 41 71 112 160 159 55 30 74 34 134 34 168 1 290 -128 255 -269 -7 -27 -34 -82 -61 -123 -26 -41 -48 -78 -48 -82 0 -18 37 -32 112 -44 46 -7 110 -18 143 -25 81 -15 141 -25 265 -45 58 -9 124 -20 148 -25 23 -6 66 -10 95 -10 68 0 121 33 198 121 81 93 93 113 79 138 -20 38 -55 37 -117 -4 l-55 -37 -97 5 c-53 3 -132 10 -176 16 -105 15 -235 31 -308 38 -67 6 -76 18 -54 66 76 165 56 316 -58 416 -32 27 -52 39 -128 70 -37 15 -151 12 -204 -4z" fill="#27365c" id="27365c-000014"/>
    <path stroke="none" d="M5363 22598 c-11 -13 -48 -63 -81 -113 -34 -49 -76 -110 -93 -135 -18 -25 -59 -85 -92 -135 -34 -49 -64 -92 -67 -95 -4 -3 -25 -32 -48 -65 -23 -33 -64 -91 -92 -130 -100 -139 -102 -145 -45 -175 25 -14 28 -12 80 44 64 70 72 70 175 -2 99 -68 554 -395 560 -402 3 -3 21 -17 40 -30 115 -78 180 -133 180 -151 0 -12 -16 -49 -35 -83 -19 -35 -35 -68 -35 -74 0 -19 43 -52 67 -52 17 0 31 12 51 45 15 25 56 87 92 138 65 92 99 138 284 387 188 254 206 279 206 287 0 13 -46 54 -101 91 -26 17 -71 53 -100 80 -73 66 -85 69 -120 31 -16 -17 -29 -35 -29 -41 0 -10 96 -126 115 -140 6 -4 10 -29 9 -56 0 -43 -9 -60 -80 -167 -43 -65 -102 -143 -131 -173 -45 -48 -55 -54 -78 -48 -26 7 -102 56 -225 146 -30 22 -76 55 -102 73 -26 17 -48 38 -48 45 0 7 21 41 48 76 26 35 56 77 67 93 35 50 82 93 102 93 11 0 38 -9 61 -20 55 -27 86 -26 106 5 26 39 20 62 -24 90 -22 14 -42 25 -45 25 -7 0 -127 80 -135 89 -3 4 -29 26 -58 50 -48 40 -55 43 -76 31 -13 -7 -29 -24 -35 -37 -12 -26 -4 -47 31 -84 37 -39 39 -46 26 -75 -12 -29 -86 -144 -98 -154 -3 -3 -17 -21 -30 -40 -52 -75 -52 -75 -101 -37 -24 18 -73 53 -108 76 -35 24 -71 50 -80 57 -9 7 -36 28 -61 46 -68 51 -67 81 9 183 33 44 75 100 93 125 39 53 44 58 82 88 40 30 69 28 143 -13 35 -19 70 -35 77 -35 18 0 68 74 61 91 -3 8 -27 27 -53 44 -26 16 -86 57 -133 92 -48 35 -91 63 -96 63 -5 0 -19 -10 -30 -22z" fill="#27365c" id="27365c-000015"/>
    <path stroke="none" d="M24345 22410 c-11 -4 -40 -14 -65 -21 -54 -16 -183 -80 -205 -103 -9 -9 -20 -16 -24 -16 -16 0 -133 -124 -169 -179 -44 -66 -54 -86 -82 -168 -18 -54 -21 -80 -17 -195 4 -143 9 -171 51 -261 75 -164 201 -297 346 -364 79 -36 96 -41 180 -54 139 -22 305 12 460 94 87 46 126 73 185 132 79 80 137 172 164 265 7 25 17 58 22 74 19 61 7 244 -20 311 -68 167 -185 323 -293 391 -137 87 -200 104 -375 103 -76 0 -147 -4 -158 -9z" fill="#27365c" id="27365c-000016"/>
    <path stroke="none" d="M24680 22248 c52 -16 141 -80 183 -131 67 -82 117 -221 117 -326 0 -191 -150 -436 -325 -529 -102 -55 -136 -64 -242 -63 -56 0 -110 5 -120 10 -10 5 -34 16 -53 25 -19 8 -58 36 -86 63 -127 121 -188 278 -164 427 27 171 117 317 264 429 128 99 293 135 426 95z" fill="#ffffff" id="ffffff-000006"/>
    <path stroke="none" d="M8567 21653 c-4 -3 -7 -1219 -7 -2702 0 -2811 1 -2849 45 -3776 21 -448 55 -1013 75 -1277 26 -341 31 -398 41 -482 5 -50 14 -138 19 -196 14 -155 41 -370 61 -475 6 -33 15 -82 19 -110 5 -27 11 -63 15 -80 3 -16 11 -52 16 -80 6 -27 18 -86 29 -130 10 -44 28 -125 41 -180 33 -148 80 -333 119 -470 5 -16 14 -48 20 -70 6 -22 16 -56 21 -75 6 -19 14 -48 18 -65 5 -16 20 -66 35 -110 14 -44 35 -109 47 -145 11 -36 24 -74 29 -85 5 -11 20 -54 34 -95 39 -116 62 -179 69 -187 4 -3 7 -12 7 -20 0 -7 9 -35 21 -61 25 -56 32 -73 54 -132 17 -47 31 -79 70 -165 13 -27 30 -68 40 -90 34 -83 216 -445 280 -559 91 -163 241 -401 315 -501 179 -243 231 -309 340 -440 314 -375 760 -825 1161 -1169 63 -54 141 -121 173 -150 33 -28 91 -76 130 -106 39 -30 98 -77 131 -105 33 -27 150 -117 260 -199 110 -82 223 -166 250 -187 63 -47 532 -359 540 -359 3 0 39 -22 80 -50 41 -27 76 -50 79 -50 2 0 33 -17 67 -38 35 -21 89 -52 119 -69 30 -16 73 -40 95 -53 122 -70 179 -100 370 -194 328 -161 394 -190 555 -242 41 -14 84 -29 95 -34 11 -4 29 -11 40 -13 11 -3 56 -15 100 -27 93 -25 143 -35 278 -55 128 -18 197 -8 472 65 17 4 99 31 183 59 192 64 220 76 567 248 247 122 347 175 555 298 63 37 145 87 182 111 37 24 70 44 73 44 10 0 464 305 606 407 109 78 435 328 478 365 14 13 46 39 71 58 40 31 157 127 170 140 3 3 34 30 70 60 36 30 67 57 70 60 3 3 21 18 40 34 80 65 315 283 503 466 177 171 473 488 608 651 34 41 80 96 103 123 108 128 406 540 406 561 0 4 13 25 29 48 16 23 38 59 50 80 32 57 56 99 79 137 60 103 237 450 302 595 45 99 60 135 60 140 0 2 13 33 28 67 16 35 38 88 49 118 12 30 33 87 48 125 15 39 31 81 36 95 4 14 35 104 69 200 34 96 64 189 67 205 3 17 9 35 12 40 4 6 13 30 20 55 14 50 49 172 61 210 4 14 12 43 18 65 6 22 19 67 28 100 10 33 21 78 25 100 8 44 34 153 49 200 5 17 16 64 24 105 9 41 21 93 26 115 6 22 15 65 20 95 5 30 14 75 20 100 6 25 15 70 20 100 6 30 15 80 20 110 6 30 15 89 19 130 5 41 16 131 25 200 54 427 107 1192 156 2235 40 870 41 991 38 3705 l-3 2635 -6471 3 c-3559 1 -6474 -1 -6477 -5z" fill="#f4d233" id="f4d233-000002"/>
    <path stroke="none" d="M21317 18678 c3 -2426 1 -2831 -13 -3083 -8 -159 -19 -409 -24 -555 -5 -146 -14 -319 -20 -385 -6 -66 -15 -214 -20 -330 -5 -115 -14 -255 -20 -310 -6 -55 -15 -174 -20 -265 -5 -91 -14 -201 -20 -245 -6 -44 -15 -138 -20 -210 -5 -71 -16 -168 -24 -215 -9 -47 -16 -103 -16 -125 0 -22 -7 -74 -15 -115 -9 -41 -20 -102 -24 -135 -9 -62 -16 -94 -31 -155 -5 -19 -14 -62 -20 -95 -11 -63 -16 -87 -49 -225 -11 -47 -22 -96 -24 -110 -6 -28 -33 -138 -46 -185 -5 -16 -13 -48 -19 -70 -27 -98 -88 -308 -123 -420 -28 -90 -102 -311 -129 -385 -18 -47 -47 -127 -65 -179 -19 -52 -39 -99 -44 -104 -6 -6 -11 -17 -11 -24 0 -7 -10 -35 -21 -61 -12 -26 -27 -60 -34 -77 -7 -16 -25 -56 -39 -88 -14 -32 -26 -59 -26 -62 0 -10 -172 -359 -215 -435 -26 -47 -61 -110 -78 -140 -59 -105 -149 -255 -166 -275 -10 -11 -35 -47 -55 -80 -40 -64 -113 -167 -186 -262 -57 -74 -163 -206 -170 -213 -3 -3 -21 -25 -40 -50 -19 -25 -53 -65 -76 -90 -22 -25 -83 -92 -134 -150 -133 -149 -577 -591 -760 -755 -85 -77 -172 -155 -192 -174 -21 -18 -48 -41 -60 -49 -13 -9 -25 -18 -28 -21 -7 -8 -78 -69 -135 -117 -99 -82 -381 -301 -515 -400 -58 -42 -121 -89 -140 -104 -19 -14 -84 -59 -143 -99 -60 -40 -132 -90 -160 -112 -29 -21 -56 -39 -60 -39 -4 0 -47 -26 -95 -58 -48 -31 -96 -62 -107 -69 -11 -6 -78 -47 -149 -90 -159 -96 -152 -93 -316 -182 -74 -41 -155 -85 -180 -99 -60 -33 -177 -91 -275 -137 -44 -21 -102 -48 -129 -61 -28 -13 -53 -24 -58 -24 -4 0 -37 -13 -73 -30 -36 -16 -69 -30 -74 -30 -5 0 -30 -8 -57 -19 -127 -48 -365 -111 -482 -127 -95 -12 -377 50 -576 127 -27 10 -55 19 -62 19 -8 0 -36 9 -62 21 -26 12 -56 25 -67 29 -84 34 -182 81 -390 185 -248 126 -267 136 -380 204 -37 23 -68 41 -70 41 -8 0 -179 102 -234 139 -33 23 -62 41 -66 41 -4 0 -67 39 -169 106 -170 111 -449 306 -563 393 -89 68 -124 94 -178 135 -61 46 -76 57 -145 115 -30 26 -71 59 -92 74 -20 15 -42 32 -50 39 -7 7 -43 38 -78 68 -36 30 -67 57 -70 60 -3 3 -31 27 -63 53 -116 93 -443 396 -630 584 -350 349 -602 641 -881 1019 -164 222 -435 697 -566 994 -21 47 -49 110 -63 140 -14 30 -40 91 -57 135 -17 44 -37 94 -45 110 -7 17 -23 57 -35 90 -26 72 -39 104 -51 127 -5 10 -9 25 -9 33 0 8 -4 23 -10 33 -13 24 -147 435 -181 557 -6 22 -15 51 -19 65 -4 14 -13 44 -19 68 -6 23 -16 61 -22 85 -6 23 -15 53 -19 67 -4 14 -13 50 -20 80 -6 30 -16 69 -21 85 -14 50 -64 273 -108 485 -34 166 -54 283 -62 365 -4 44 -12 107 -19 140 -6 33 -15 119 -20 190 -5 72 -14 166 -20 210 -5 44 -14 154 -20 245 -5 91 -14 208 -20 260 -6 52 -15 192 -20 310 -5 118 -14 271 -20 340 -5 69 -15 244 -20 390 -6 146 -15 333 -21 415 -6 83 -12 184 -14 225 -4 127 -6 5791 -1 5798 2 4 2827 6 6278 5 l6273 -3 2 -2792z" fill="#27365c" id="27365c-000018"/>
    <path stroke="none" d="M13650 20752 c-159 -80 -280 -206 -380 -397 -51 -98 -110 -263 -127 -358 -3 -15 -9 -30 -14 -33 -4 -2 -52 41 -105 96 -143 148 -318 276 -489 359 -240 115 -436 161 -695 161 -142 0 -194 -6 -380 -40 -25 -4 -93 -24 -152 -44 -468 -155 -836 -491 -1006 -916 -63 -158 -104 -420 -88 -552 l7 -53 177 3 c97 2 178 5 179 6 1 1 7 66 13 146 10 135 15 169 41 260 23 81 115 264 152 302 7 7 28 33 47 58 41 53 94 106 158 157 26 21 49 41 52 44 3 4 33 24 67 47 133 85 331 165 473 192 36 6 87 16 113 21 62 12 236 12 290 0 23 -5 69 -15 102 -21 97 -20 218 -70 360 -149 132 -75 364 -288 477 -441 92 -124 172 -263 241 -420 40 -89 93 -278 107 -379 6 -41 16 -81 22 -88 8 -11 52 -13 197 -11 l186 3 -1 55 c-3 101 -52 300 -104 425 -4 11 -18 47 -31 80 -12 33 -25 65 -29 70 -3 6 -12 30 -19 55 -7 25 -17 55 -22 68 -5 13 -9 92 -9 176 0 350 73 661 223 951 87 170 92 188 47 192 -14 2 -50 -10 -80 -25z" fill="#81b14e" id="81b14e-000001"/>
    <path stroke="none" d="M16327 20773 c-16 -16 -3 -57 51 -164 32 -63 73 -153 91 -199 18 -47 37 -94 41 -105 5 -11 11 -31 15 -45 3 -14 16 -65 29 -115 39 -151 51 -266 51 -485 0 -231 -2 -241 -73 -401 -73 -163 -157 -508 -133 -547 6 -9 53 -12 202 -10 l194 3 2 30 c11 135 51 289 119 461 26 65 36 86 99 200 26 46 123 195 134 204 3 3 32 37 63 75 182 225 427 400 693 494 120 42 354 62 480 41 113 -18 179 -32 200 -40 11 -4 38 -13 60 -19 86 -27 258 -112 348 -173 75 -51 234 -203 285 -272 75 -102 123 -193 160 -301 26 -78 32 -113 46 -280 l11 -140 175 -5 c96 -3 178 -4 183 -2 12 5 7 213 -8 302 -30 177 -59 275 -116 397 -186 393 -580 713 -1034 841 -273 77 -533 84 -825 23 -119 -25 -347 -121 -455 -191 -22 -14 -52 -32 -67 -39 -52 -27 -246 -191 -319 -270 -41 -45 -77 -81 -81 -81 -4 0 -12 19 -18 43 -66 268 -164 461 -305 602 -71 71 -120 107 -196 144 -67 31 -90 37 -102 24z" fill="#81b14e" id="81b14e-000002"/>
    <path stroke="none" d="M14295 20550 c-4 -6 16 -32 44 -58 90 -84 195 -227 222 -300 l24 -67 5 -790 c3 -443 1 -795 -4 -802 -11 -17 -2036 -19 -2118 -2 -138 28 -216 72 -358 205 -101 94 -130 116 -145 110 -13 -5 -15 -92 -15 -700 0 -382 3 -701 6 -710 10 -27 31 -18 96 42 113 105 208 180 261 205 123 60 46 57 1215 57 l1072 0 0 -589 c0 -336 4 -592 9 -595 5 -3 28 13 52 37 66 64 341 308 366 324 21 14 27 12 95 -47 40 -34 98 -85 128 -114 129 -120 232 -206 241 -201 5 4 9 238 9 596 l0 589 1073 -3 c737 -2 1083 -6 1108 -13 99 -30 152 -66 323 -218 89 -79 104 -89 122 -82 12 5 14 100 12 713 -3 654 -4 708 -20 711 -10 2 -45 -24 -86 -62 -38 -36 -101 -92 -141 -125 -66 -53 -92 -69 -186 -112 -25 -12 -220 -14 -1118 -17 l-1087 -2 3 797 c2 538 6 810 13 834 30 98 85 178 216 313 32 33 58 65 58 73 0 11 -129 13 -744 13 -499 0 -747 -3 -751 -10z" fill="#f4d233" id="f4d233-000003"/>
    <path stroke="none" d="M10265 18821 c-51 -9 -95 -31 -170 -84 -104 -74 -156 -159 -223 -362 -60 -182 -70 -265 -82 -665 -12 -408 -19 -458 -78 -577 -44 -88 -103 -137 -196 -163 -63 -17 -182 -18 -226 -1 -92 35 -148 69 -209 126 -90 84 -110 96 -132 84 -44 -23 -54 -65 -54 -224 0 -160 9 -212 53 -300 45 -90 132 -186 215 -233 85 -49 154 -64 290 -63 125 1 128 2 194 36 115 62 176 123 259 260 87 145 148 342 184 590 12 87 30 405 30 539 0 142 15 225 46 256 29 29 47 22 79 -31 19 -32 20 -50 20 -259 0 -247 -18 -413 -62 -580 -8 -30 -17 -66 -20 -80 -2 -14 -8 -34 -13 -45 -4 -11 -13 -40 -20 -65 -23 -81 -30 -103 -74 -240 -76 -233 -98 -351 -98 -528 0 -114 13 -240 32 -314 6 -21 15 -57 21 -80 44 -169 204 -444 296 -510 62 -45 96 -36 172 42 101 105 206 278 256 425 71 205 86 529 35 728 -28 106 -33 124 -40 142 -4 11 -13 36 -20 55 -7 19 -16 44 -20 55 -8 20 -52 163 -90 290 -11 39 -25 85 -31 103 -38 119 -69 386 -69 603 0 189 9 241 52 286 64 68 108 -29 108 -238 0 -266 33 -628 69 -764 44 -164 48 -175 111 -310 51 -109 136 -224 199 -271 25 -19 74 -48 107 -64 58 -28 69 -30 185 -30 129 0 162 7 270 54 102 45 218 183 260 311 21 61 24 90 24 225 0 129 -3 160 -18 187 -31 58 -51 60 -105 10 -159 -146 -249 -191 -378 -190 -152 0 -250 52 -310 163 -68 126 -78 213 -88 760 -4 208 -29 372 -76 495 -5 11 -18 47 -30 80 -47 128 -98 206 -176 270 -98 79 -149 97 -294 101 -69 1 -143 -1 -165 -5z" fill="#cfd2d7" id="cfd2d7-000001"/>
    <path stroke="none" d="M19534 18821 c-22 -4 -65 -20 -95 -35 -145 -76 -216 -176 -296 -415 -60 -182 -70 -266 -83 -696 -5 -176 -12 -333 -15 -350 -25 -127 -39 -165 -83 -233 -59 -89 -160 -135 -297 -135 -121 0 -214 45 -348 170 -37 35 -72 63 -78 63 -20 0 -54 -49 -67 -94 -6 -25 -12 -89 -12 -141 0 -228 81 -401 236 -506 40 -27 78 -49 84 -49 6 0 18 -4 28 -9 49 -25 104 -33 217 -33 117 0 126 2 187 31 115 56 236 194 316 363 18 37 32 73 32 80 0 8 4 18 8 24 5 5 14 29 21 54 8 25 17 56 21 70 7 24 18 76 40 193 17 91 30 264 40 529 10 252 18 306 48 341 58 66 121 -72 122 -263 0 -170 -39 -512 -70 -610 -4 -14 -13 -45 -20 -70 -29 -102 -123 -396 -139 -435 -5 -11 -14 -40 -21 -65 -7 -25 -16 -56 -20 -70 -35 -108 -47 -433 -22 -560 23 -114 58 -229 95 -310 34 -73 123 -211 171 -265 25 -27 46 -53 46 -56 0 -12 80 -59 100 -59 20 0 100 47 100 59 0 3 13 20 28 36 78 84 169 247 217 390 35 105 43 145 62 300 14 111 14 149 4 260 -11 116 -38 255 -61 310 -4 11 -14 40 -21 65 -7 25 -15 50 -18 55 -3 6 -13 37 -22 70 -10 33 -27 92 -39 130 -45 146 -76 272 -90 365 -40 262 -51 529 -26 630 19 74 23 83 48 99 20 13 24 11 49 -19 33 -38 36 -66 44 -335 13 -432 56 -700 142 -895 52 -117 108 -219 133 -240 3 -3 18 -21 34 -40 39 -47 117 -106 184 -136 51 -23 63 -25 186 -21 72 2 147 8 167 14 172 49 318 204 363 386 43 167 17 404 -45 420 -15 4 -39 -12 -91 -59 -119 -109 -188 -147 -300 -165 -66 -11 -170 1 -221 26 -87 41 -154 127 -183 235 -34 124 -43 238 -44 507 0 147 -5 286 -10 308 -5 22 -10 60 -10 85 0 53 -17 126 -62 265 -68 211 -162 336 -303 404 -67 33 -76 34 -195 37 -69 2 -143 -1 -166 -5z" fill="#cfd2d7" id="cfd2d7-000002"/>
    <path stroke="none" d="M13363 17564 c-3 -9 -1 -46 5 -82 30 -175 110 -822 137 -1102 8 -85 19 -198 25 -250 11 -92 34 -360 47 -527 4 -56 10 -83 18 -83 13 0 217 208 239 244 10 16 12 53 5 161 -15 281 -29 576 -39 860 -17 469 -29 728 -36 763 l-6 32 -195 0 c-168 0 -194 -2 -200 -16z" fill="#81b14e" id="81b14e-000003"/>
    <path stroke="none" d="M16306 17568 c-3 -7 -7 -85 -10 -173 -24 -655 -38 -1012 -52 -1282 -9 -172 -13 -323 -10 -335 3 -13 58 -77 120 -143 84 -88 118 -117 126 -109 6 6 15 62 20 125 5 63 14 166 20 229 6 63 15 165 20 225 17 194 45 463 59 575 6 41 15 116 21 165 6 50 15 122 20 160 5 39 14 108 19 155 6 47 15 117 21 155 19 131 30 247 24 256 -9 15 -394 12 -398 -3z" fill="#81b14e" id="81b14e-000004"/>
    <path stroke="none" d="M12677 16949 c-9 -6 -17 -21 -17 -34 0 -23 5 -38 36 -110 83 -195 189 -488 232 -640 7 -22 19 -65 28 -95 19 -68 53 -193 64 -240 15 -67 67 -340 77 -405 2 -16 11 -70 20 -120 8 -49 18 -114 22 -143 13 -94 15 -93 196 88 104 104 165 172 165 185 0 11 -7 52 -15 90 -9 39 -20 93 -25 120 -14 74 -51 208 -70 250 -15 35 -61 158 -77 205 -26 76 -124 286 -154 330 -9 14 -27 44 -40 67 -38 67 -197 270 -274 349 -78 80 -140 118 -168 103z" fill="#81b14e" id="81b14e-000005"/>
    <path stroke="none" d="M17340 16941 c-36 -20 -170 -154 -226 -226 -122 -158 -254 -357 -254 -383 0 -5 -11 -30 -24 -58 -23 -47 -47 -102 -67 -151 -5 -13 -13 -33 -18 -45 -49 -123 -126 -362 -140 -438 -6 -30 -17 -86 -25 -124 -8 -37 -11 -77 -8 -87 7 -19 320 -339 332 -339 7 0 26 78 35 145 3 22 10 67 15 100 6 33 15 85 20 115 5 30 14 78 19 105 5 28 12 68 16 90 13 78 60 272 76 313 5 13 9 34 9 47 0 13 4 34 9 47 5 13 19 57 31 98 29 96 98 309 109 335 5 11 13 31 19 45 5 14 22 57 37 95 15 39 34 86 42 105 8 19 19 44 23 55 4 11 18 42 30 70 17 37 20 56 13 75 -11 32 -29 34 -73 11z" fill="#81b14e" id="81b14e-000006"/>
    <path stroke="none" d="M12318 13985 c-1490 -1487 -2708 -2711 -2708 -2719 0 -15 25 -83 56 -153 8 -18 21 -50 30 -70 19 -44 59 -132 116 -253 22 -47 107 -220 190 -385 198 -398 223 -443 329 -602 71 -106 214 -298 252 -340 11 -13 25 -23 32 -23 6 0 1319 1312 2919 2915 2828 2836 2908 2916 2893 2938 -23 35 -1381 1398 -1392 1397 -5 0 -1228 -1217 -2717 -2705z" fill="#cfd2d7" id="cfd2d7-000003"/>
    <path stroke="none" d="M16339 14900 c-129 -132 -437 -444 -686 -695 -248 -250 -455 -465 -458 -477 -6 -18 303 -331 2126 -2154 1174 -1174 2139 -2134 2146 -2134 7 0 38 36 70 81 32 44 68 93 81 107 29 35 202 289 202 297 0 4 8 19 19 33 34 49 248 467 374 732 105 222 147 311 147 316 0 2 10 26 21 52 12 26 28 63 36 82 8 19 21 48 29 64 8 16 14 41 14 55 0 21 -356 382 -1927 1953 -1061 1061 -1935 1928 -1944 1928 -9 0 -121 -108 -250 -240z" fill="#cfd2d7" id="cfd2d7-000004"/>
    <path stroke="none" d="M14926 13395 c-76 -75 -167 -161 -202 -191 -45 -40 -65 -65 -69 -87 -3 -18 -4 -682 -3 -1477 l3 -1445 20 25 c55 68 177 180 230 210 54 31 68 34 135 35 63 0 84 -5 130 -29 59 -31 163 -125 206 -187 15 -21 31 -39 35 -39 5 0 9 645 9 1458 0 1405 -1 1458 -19 1487 -10 17 -40 55 -67 86 -62 70 -127 146 -193 227 -29 34 -57 62 -64 62 -7 0 -74 -61 -151 -135z" fill="#f4d233" id="f4d233-000004"/>
    <path stroke="none" d="M14080 12632 c-30 -31 -117 -126 -194 -211 l-138 -153 6 -52 c4 -28 11 -67 16 -86 5 -19 19 -87 30 -150 12 -63 25 -135 30 -160 8 -41 14 -79 40 -240 25 -151 31 -198 50 -360 22 -190 24 -230 13 -230 -8 0 -39 45 -72 103 -64 113 -135 223 -191 297 -15 19 -53 71 -86 115 -83 113 -227 255 -259 255 -41 0 -33 -54 26 -178 27 -59 54 -116 58 -127 5 -11 18 -40 29 -65 11 -25 27 -62 36 -82 41 -97 49 -114 56 -133 4 -11 17 -40 28 -65 27 -62 126 -361 142 -430 5 -19 14 -53 20 -75 6 -22 16 -57 21 -77 5 -21 14 -57 20 -80 26 -108 55 -298 69 -468 6 -74 15 -176 21 -227 5 -51 9 -127 9 -170 0 -103 14 -129 64 -126 21 2 44 7 50 12 6 5 40 18 75 30 50 16 90 21 181 21 140 0 151 6 155 76 1 27 8 135 15 239 23 374 -3 1215 -56 1805 -21 229 -54 506 -73 605 -5 28 -15 77 -21 110 -6 33 -15 78 -20 100 -4 22 -14 67 -20 100 -20 99 -37 134 -65 135 -5 0 -34 -26 -65 -58z" fill="#81b14e" id="81b14e-000007"/>
    <path stroke="none" d="M15896 12668 c-15 -24 -35 -107 -61 -258 -9 -47 -19 -105 -24 -130 -6 -25 -15 -83 -21 -130 -6 -47 -15 -105 -20 -130 -5 -25 -14 -94 -20 -155 -6 -60 -15 -150 -20 -200 -11 -95 -35 -442 -45 -635 -17 -326 -23 -890 -13 -1135 6 -143 12 -281 12 -307 1 -44 2 -47 37 -57 20 -6 81 -11 135 -11 99 0 140 -9 243 -50 31 -12 65 -19 77 -16 27 7 28 17 44 241 14 207 48 539 61 605 20 101 27 135 39 175 6 22 15 58 20 80 5 22 13 57 19 78 6 20 15 52 20 70 29 103 94 304 110 342 5 11 18 41 30 67 12 26 21 50 21 53 0 3 10 27 21 53 20 44 27 59 63 145 31 73 50 116 84 187 77 165 87 202 58 213 -27 10 -133 -80 -221 -188 -77 -94 -73 -89 -139 -185 -95 -136 -132 -192 -161 -245 -15 -27 -40 -68 -56 -91 -16 -24 -29 -47 -29 -53 0 -6 -7 -11 -15 -11 -13 0 -14 12 -10 73 3 39 10 104 16 142 5 39 16 124 25 190 8 66 19 147 25 180 5 33 14 85 19 115 5 30 14 82 20 115 7 33 15 80 20 105 4 25 18 95 30 155 38 187 37 198 -3 242 -19 21 -90 101 -159 178 -206 231 -203 228 -232 183z" fill="#81b14e" id="81b14e-000008"/>
    <path stroke="none" d="M14949 10200 c-121 -84 -181 -164 -220 -290 -17 -55 -19 -272 -3 -315 7 -16 17 -50 24 -75 23 -80 52 -164 81 -228 39 -85 38 -92 -14 -92 -24 0 -47 4 -53 8 -5 5 -36 19 -69 32 -33 13 -64 26 -70 30 -5 4 -32 12 -60 19 -27 7 -66 16 -85 22 -209 55 -426 12 -549 -109 -71 -70 -131 -164 -131 -206 0 -55 122 -203 207 -251 96 -53 160 -68 288 -68 66 0 136 5 155 11 19 6 69 20 110 32 41 12 99 33 128 46 29 13 57 22 63 19 18 -12 8 -72 -26 -150 -7 -16 -20 -46 -28 -65 -55 -134 -228 -306 -382 -378 -147 -70 -188 -77 -435 -77 -243 1 -275 6 -413 75 -81 40 -137 70 -147 80 -3 3 -34 25 -70 49 -98 67 -240 218 -240 255 0 7 19 20 43 30 114 48 157 75 218 133 110 106 163 248 113 304 -29 32 -124 95 -164 107 -153 47 -261 44 -420 -12 -62 -22 -87 -20 -101 6 -19 35 -100 118 -149 151 -25 17 -47 33 -50 36 -27 31 -192 118 -275 146 -120 40 -269 55 -360 37 -27 -6 -86 -16 -130 -22 -44 -7 -84 -16 -90 -21 -5 -5 -15 -9 -22 -9 -19 0 -160 -66 -167 -79 -8 -12 68 -70 134 -103 27 -13 101 -78 186 -162 111 -112 159 -169 232 -278 51 -75 92 -140 92 -143 0 -4 8 -19 19 -33 23 -34 93 -166 111 -212 7 -19 24 -57 36 -85 61 -136 116 -290 135 -375 26 -114 47 -251 59 -370 6 -57 14 -108 18 -112 5 -5 1162 -7 2573 -6 l2564 3 2 55 c4 89 29 255 53 350 5 19 14 58 21 85 11 48 81 268 98 310 22 54 34 79 92 200 98 201 171 322 261 430 129 158 261 281 386 364 61 40 109 78 106 83 -14 22 -182 86 -279 107 -133 27 -162 31 -241 31 -225 0 -479 -118 -665 -311 -52 -54 -94 -89 -106 -89 -11 0 -38 7 -59 16 -97 42 -261 55 -357 30 -128 -34 -247 -116 -247 -172 0 -48 43 -152 86 -209 67 -90 147 -142 287 -189 26 -8 21 -33 -17 -85 -106 -143 -331 -299 -531 -366 -123 -41 -355 -58 -463 -35 -26 6 -69 15 -97 21 -136 28 -258 95 -372 203 -141 133 -214 255 -248 414 -8 40 11 51 52 29 118 -62 273 -100 408 -101 92 -1 118 3 225 36 115 35 270 208 270 301 0 64 -133 217 -231 263 -75 36 -92 41 -184 54 -75 10 -104 9 -175 -4 -171 -31 -229 -48 -333 -102 -32 -17 -61 -24 -85 -22 -33 3 -37 6 -34 28 1 14 18 65 38 115 85 214 111 348 94 480 -26 187 -96 294 -262 398 -46 28 -95 21 -159 -23z" fill="#f4d233" id="f4d233-000005"/>
    <path stroke="none" d="M13914 8444 c4 -76 10 -142 13 -147 8 -13 215 -1 278 16 67 19 141 53 165 77 16 16 20 34 20 86 l0 66 -102 -6 c-103 -7 -197 2 -273 24 -22 7 -55 14 -74 17 l-34 6 7 -139z" fill="#81b14e" id="81b14e-000009"/>
    <path stroke="none" d="M16118 8575 c-3 -3 -32 -13 -64 -22 -43 -12 -99 -16 -206 -16 l-148 1 0 -69 c0 -63 2 -69 28 -87 39 -27 98 -53 157 -69 59 -16 255 -28 271 -16 6 5 14 65 18 146 l7 137 -29 0 c-16 0 -31 -2 -34 -5z" fill="#81b14e" id="81b14e-000010"/>
    <path stroke="none" d="M15726 7353 c-11 -12 -7 -1001 5 -1009 6 -3 32 4 57 16 26 12 56 26 67 30 52 20 236 114 253 130 18 17 19 41 26 409 3 216 4 396 1 402 -4 5 -85 9 -186 9 -99 0 -188 4 -198 10 -10 5 -21 6 -25 3z" fill="#81b14e" id="81b14e-000011"/>
    <path stroke="none" d="M14153 7343 c-186 -3 -192 -4 -199 -25 -3 -11 -3 -193 1 -404 6 -304 10 -386 21 -395 12 -10 48 -29 154 -84 14 -7 36 -17 50 -23 14 -5 41 -17 60 -25 106 -46 113 -48 122 -35 9 15 11 958 2 982 -3 9 -9 15 -13 14 -3 -2 -92 -4 -198 -5z" fill="#81b14e" id="81b14e-000012"/>
    <path stroke="none" d="M14663 7343 c-10 -4 -13 -119 -13 -527 0 -486 1 -524 18 -538 15 -13 37 -21 142 -51 19 -5 45 -13 57 -18 12 -4 66 -11 120 -14 94 -6 177 2 273 25 25 6 62 13 82 16 20 4 46 15 57 26 21 18 21 27 21 547 0 473 -2 530 -16 535 -19 7 -723 7 -741 -1z" fill="#f4d233" id="f4d233-000006"/>
    <path stroke="none" d="M4603 21513 c-7 -2 -41 -62 -77 -131 -35 -70 -87 -167 -115 -215 -28 -49 -51 -101 -51 -117 0 -50 50 -67 74 -25 76 137 103 142 188 38 22 -26 64 -75 93 -108 29 -33 65 -76 81 -95 16 -19 33 -40 39 -47 13 -15 155 -193 250 -313 l75 -95 -83 -3 c-45 -2 -101 2 -124 8 -23 5 -72 10 -110 10 -79 0 -384 25 -493 40 -179 25 -181 26 -160 93 8 23 17 46 22 52 16 18 9 63 -12 70 -39 12 -55 -5 -113 -122 -32 -65 -65 -131 -75 -148 -9 -16 -33 -57 -52 -90 -55 -97 -60 -106 -60 -126 0 -21 41 -42 64 -33 7 3 19 17 27 32 20 39 30 48 73 62 27 9 65 11 125 6 47 -4 151 -11 231 -16 80 -6 197 -14 260 -20 63 -6 171 -15 240 -20 69 -5 163 -14 210 -20 47 -6 133 -13 192 -17 l106 -6 22 47 c11 26 18 52 14 59 -7 11 -101 124 -114 137 -3 3 -25 30 -50 60 -25 30 -47 57 -50 60 -7 7 -102 119 -123 145 -9 11 -40 50 -69 86 -29 36 -66 83 -83 104 -16 21 -59 75 -95 120 -250 317 -244 307 -242 368 0 27 6 54 12 62 15 18 16 81 0 100 -13 15 -25 17 -47 8z" fill="#27365c" id="27365c-000017"/>
    <path stroke="none" d="M25425 21024 c-61 -15 -148 -74 -185 -125 -60 -83 -87 -243 -68 -410 9 -86 9 -127 -1 -201 -15 -111 -42 -164 -109 -213 -101 -74 -215 -31 -298 111 -70 120 -85 231 -41 306 14 24 37 50 51 58 14 7 26 17 26 20 0 4 13 13 30 20 36 15 46 41 28 76 -25 52 -39 52 -145 0 -54 -27 -107 -52 -118 -56 -87 -34 -97 -41 -92 -68 7 -34 48 -187 73 -271 26 -87 120 -241 183 -299 50 -46 121 -92 142 -92 10 0 21 -4 24 -10 3 -6 51 -10 108 -10 164 0 247 41 320 157 49 79 67 202 65 458 -1 228 4 256 57 310 29 29 86 55 120 55 47 0 113 -49 158 -118 119 -182 116 -283 -12 -372 -27 -19 -52 -41 -55 -48 -4 -8 4 -27 15 -44 25 -34 35 -34 135 12 35 17 70 30 78 30 7 0 16 3 19 7 4 4 28 14 54 23 70 24 72 32 28 156 -93 270 -210 439 -352 508 -45 23 -74 29 -137 32 -45 1 -90 1 -101 -2z" fill="#27365c" id="27365c-000019"/>
    <path stroke="none" d="M3807 19933 c-8 -10 -23 -38 -32 -63 -21 -57 -30 -78 -90 -225 -21 -49 -45 -108 -55 -130 -30 -68 -32 -82 -15 -99 32 -31 64 -14 101 54 15 27 35 52 46 56 17 5 120 -20 143 -36 6 -4 48 -22 95 -40 47 -18 99 -38 115 -45 17 -8 55 -23 85 -35 30 -12 71 -28 90 -37 45 -19 65 -27 120 -48 25 -9 61 -23 80 -32 43 -19 60 -25 135 -54 60 -23 104 -45 151 -76 24 -15 25 -21 20 -72 -2 -31 -8 -73 -11 -93 -6 -34 -4 -39 18 -49 36 -16 53 -6 67 38 6 21 15 47 20 58 4 11 23 58 41 105 31 81 49 123 104 245 31 69 31 81 1 100 -31 20 -44 13 -86 -45 -56 -78 -81 -82 -197 -29 -24 10 -46 19 -51 19 -5 0 -27 9 -50 20 -22 11 -47 20 -55 20 -7 0 -17 4 -22 9 -6 4 -53 25 -105 45 -52 21 -108 44 -125 51 -16 7 -61 25 -100 40 -64 25 -108 43 -160 66 -11 5 -57 24 -103 42 -114 46 -125 57 -119 115 3 26 8 60 12 75 5 20 3 33 -10 47 -22 25 -37 25 -58 3z" fill="#27365c" id="27365c-000020"/>
    <path stroke="none" d="M26207 19924 c-23 -12 -27 -20 -22 -37 15 -48 28 -126 22 -140 -7 -18 -196 -107 -228 -107 -5 0 -28 -8 -52 -19 -23 -10 -58 -24 -77 -31 -19 -7 -44 -16 -55 -20 -11 -4 -58 -22 -105 -40 -47 -18 -94 -36 -105 -40 -11 -4 -36 -13 -55 -20 -41 -14 -62 -22 -110 -43 -95 -41 -159 -61 -204 -61 l-49 -1 -35 68 c-34 64 -37 67 -72 67 -28 0 -40 -5 -49 -23 -11 -20 -9 -31 9 -73 12 -27 26 -58 30 -69 4 -11 16 -37 25 -58 16 -37 68 -176 85 -227 5 -14 22 -63 40 -110 17 -47 38 -105 46 -130 8 -25 19 -54 24 -65 4 -11 17 -45 28 -75 54 -149 76 -200 83 -200 12 0 101 29 119 39 8 4 40 14 70 21 30 8 59 17 65 22 5 4 21 8 35 8 36 0 50 17 50 61 0 49 -19 63 -73 55 -187 -30 -199 -22 -276 174 -18 47 -37 94 -42 105 -4 11 -17 49 -29 84 -16 52 -18 67 -7 80 22 29 49 50 71 56 11 4 30 10 41 15 11 4 58 22 105 40 91 34 109 41 153 59 37 15 72 14 84 -1 5 -7 15 -31 22 -53 7 -22 16 -49 21 -60 60 -147 63 -173 21 -213 -15 -15 -42 -35 -60 -44 -17 -9 -31 -25 -31 -35 0 -21 36 -83 48 -83 5 0 44 18 86 39 87 45 172 76 233 86 55 9 69 26 57 73 l-9 37 -75 5 -75 5 -42 85 c-24 47 -43 92 -43 101 0 8 -4 19 -8 25 -17 19 -36 94 -26 104 6 6 37 20 70 31 32 11 73 27 89 34 102 46 227 85 243 76 26 -14 47 -42 61 -81 7 -19 17 -44 21 -55 25 -62 44 -114 52 -145 28 -108 29 -110 12 -145 -8 -18 -21 -36 -27 -39 -42 -20 -113 -66 -121 -79 -7 -11 -4 -28 9 -56 18 -42 38 -50 73 -32 25 13 80 37 132 56 25 9 54 20 65 25 11 4 35 13 53 20 17 7 32 19 32 26 0 8 -16 56 -36 106 -45 117 -48 123 -73 180 -12 26 -21 52 -21 58 0 6 -4 18 -9 28 -23 43 -112 266 -162 407 -40 115 -51 137 -69 152 -19 15 -19 15 -53 -3z" fill="#27365c" id="27365c-000021"/>
    <path stroke="none" d="M3440 19050 c-11 -11 -20 -30 -20 -41 0 -12 -5 -40 -11 -63 -70 -268 -98 -364 -124 -428 -5 -13 2 -23 27 -38 46 -28 56 -25 74 18 9 20 20 45 25 54 5 10 9 24 9 32 0 8 13 28 29 45 41 44 52 43 284 -18 94 -25 201 -54 305 -82 42 -11 112 -29 156 -39 69 -16 109 -34 95 -42 -35 -22 -133 -72 -514 -262 -247 -123 -493 -244 -545 -269 -53 -24 -102 -52 -109 -61 -7 -9 -18 -38 -23 -64 -15 -71 -25 -110 -48 -192 -36 -121 -35 -121 -9 -141 48 -37 73 -19 105 76 21 63 49 103 77 111 13 3 43 0 67 -6 25 -6 61 -15 80 -20 19 -5 51 -13 70 -19 33 -9 68 -19 265 -71 41 -11 109 -29 150 -40 198 -53 232 -62 265 -71 19 -6 45 -13 58 -16 13 -3 37 -19 53 -36 l31 -30 -7 -87 -7 -87 31 -13 c44 -18 57 -8 70 52 7 29 16 69 21 88 5 19 14 58 21 85 13 58 22 88 47 170 40 126 44 141 40 175 -3 31 -7 35 -34 38 -37 4 -55 -16 -74 -78 -24 -77 -56 -117 -98 -123 -43 -6 -111 4 -197 28 -33 9 -89 25 -125 35 -36 10 -76 21 -90 23 -14 3 -59 15 -100 27 -41 12 -102 28 -135 36 -92 22 -195 57 -195 64 0 4 15 13 33 20 31 13 85 37 241 109 67 31 555 274 863 430 121 62 133 73 133 128 0 36 -4 45 -22 52 -27 11 -153 47 -188 54 -14 3 -43 11 -65 17 -22 6 -56 15 -75 20 -19 5 -69 18 -110 30 -41 12 -108 30 -147 41 -40 10 -107 28 -148 39 -178 47 -224 59 -285 75 -86 22 -127 41 -141 66 -7 13 -8 51 -3 109 6 82 5 89 -14 99 -29 15 -39 14 -62 -9z" fill="#27365c" id="27365c-000022"/>
    <path stroke="none" d="M26690 18526 c-8 -10 -9 -33 -5 -70 11 -84 0 -129 -37 -151 -28 -16 -122 -42 -238 -65 -25 -5 -61 -14 -80 -19 -49 -14 -78 -21 -130 -32 -25 -6 -61 -14 -80 -19 -112 -29 -170 -43 -210 -51 -25 -5 -63 -13 -85 -20 -22 -6 -71 -15 -108 -21 -82 -12 -106 0 -126 60 -8 22 -23 52 -35 67 -20 24 -26 27 -51 18 -39 -13 -52 -35 -38 -65 6 -13 16 -43 23 -68 7 -25 16 -58 21 -75 16 -58 41 -161 49 -205 5 -25 14 -67 20 -95 6 -27 14 -62 17 -77 3 -15 13 -34 23 -43 17 -15 21 -15 48 -1 43 22 43 20 16 159 -13 72 33 111 166 137 36 7 79 16 95 21 37 11 145 37 205 51 88 20 116 26 170 41 30 8 82 20 115 27 33 7 85 19 115 27 112 30 142 35 174 29 27 -5 37 -15 57 -58 21 -45 24 -65 23 -153 -2 -83 -6 -110 -24 -146 -51 -102 -116 -156 -213 -179 -76 -18 -143 -3 -201 44 -52 43 -79 94 -102 188 -9 40 -23 79 -30 87 -18 19 -58 7 -79 -25 -18 -28 -14 -67 16 -189 30 -117 127 -243 219 -283 19 -8 44 -19 56 -24 12 -6 72 -8 135 -6 101 3 121 6 171 31 66 33 132 95 154 147 9 19 21 44 27 55 15 26 21 279 9 330 -35 136 -44 172 -51 190 -15 36 -50 159 -61 215 -7 30 -16 69 -21 86 -5 17 -9 40 -9 53 0 12 -7 37 -14 56 -13 30 -20 35 -49 35 -19 0 -40 -7 -47 -14z" fill="#27365c" id="27365c-000023"/>
    <path stroke="none" d="M2535 17190 c-4 -6 -11 -75 -15 -153 -5 -78 -16 -187 -24 -242 -9 -55 -16 -126 -16 -158 0 -51 3 -59 25 -69 34 -15 75 12 76 50 1 68 25 145 53 168 35 31 93 30 401 -6 50 -6 137 -15 195 -20 58 -5 125 -12 150 -15 25 -3 97 -10 160 -16 216 -21 373 -74 455 -154 77 -74 109 -184 93 -315 -5 -41 -13 -84 -18 -95 -4 -11 -14 -36 -21 -55 -35 -96 -106 -159 -224 -198 -119 -39 -201 -40 -560 -2 -110 11 -288 29 -395 40 -107 11 -204 21 -215 24 -11 3 -32 7 -47 11 -52 10 -68 40 -68 125 0 88 -16 120 -58 120 -50 0 -53 -7 -63 -181 -13 -206 -22 -281 -55 -436 -5 -26 -2 -36 20 -58 39 -38 66 -30 84 25 54 161 59 166 160 156 37 -4 110 -11 162 -16 52 -5 142 -14 200 -20 58 -6 148 -15 200 -20 52 -5 145 -14 205 -20 292 -31 435 -13 595 71 30 16 71 44 90 62 63 56 125 164 150 257 6 25 16 59 21 76 14 47 11 266 -5 326 -46 173 -124 273 -269 346 -46 23 -91 42 -99 42 -8 0 -18 4 -23 8 -20 18 -183 45 -375 62 -69 6 -154 15 -190 20 -36 5 -130 14 -210 20 -80 7 -164 16 -187 21 -23 5 -63 9 -90 9 -75 1 -155 23 -164 46 -4 10 -8 45 -8 77 -1 77 -13 97 -56 97 -18 0 -37 -5 -40 -10z" fill="#27365c" id="27365c-000024"/>
    <path stroke="none" d="M27057 16943 c-3 -5 -8 -38 -11 -74 -10 -92 -25 -104 -146 -118 -52 -6 -126 -13 -165 -16 -93 -6 -402 -33 -621 -54 -153 -15 -183 -8 -211 49 -12 25 -22 54 -23 65 0 29 -28 65 -49 65 -10 0 -26 -12 -36 -26 -14 -22 -15 -33 -6 -63 13 -46 32 -245 34 -377 3 -118 19 -157 65 -152 25 3 27 7 33 63 6 65 19 104 40 122 8 6 61 16 119 23 58 6 141 15 184 21 44 5 105 9 138 9 l58 0 0 -41 c0 -22 4 -48 9 -57 4 -9 12 -69 15 -132 4 -63 12 -160 17 -215 6 -55 11 -134 12 -175 l2 -75 -65 -7 c-36 -4 -119 -12 -185 -17 -66 -6 -137 -13 -157 -16 -21 -4 -53 -2 -71 4 -35 12 -48 30 -68 96 -17 60 -24 70 -48 73 -50 8 -54 -14 -30 -208 5 -47 12 -134 14 -195 3 -60 8 -128 13 -150 7 -37 10 -40 45 -43 46 -4 49 2 56 119 0 15 12 38 26 52 27 27 39 29 269 48 56 4 151 13 211 18 61 6 162 15 225 21 63 5 160 14 215 20 110 10 168 2 181 -28 4 -9 15 -39 24 -67 14 -44 19 -50 45 -53 57 -5 60 4 46 125 -6 59 -16 173 -22 253 -12 176 -17 192 -61 188 -41 -4 -58 -34 -58 -104 0 -29 -6 -56 -12 -62 -25 -20 -210 -43 -377 -46 l-74 -1 -3 40 c-1 22 -7 92 -13 155 -28 291 -33 350 -35 420 l-1 75 65 7 c362 38 390 35 406 -42 17 -77 47 -110 83 -90 28 15 31 35 21 130 -9 77 -16 148 -35 373 l-7 77 -38 0 c-22 0 -41 -3 -43 -7z" fill="#27365c" id="27365c-000025"/>
    <path stroke="none" d="M25394 10948 c-6 -7 -15 -24 -21 -38 -27 -63 -56 -125 -117 -249 -36 -74 -66 -142 -66 -151 0 -27 38 -56 58 -44 14 9 50 62 68 102 16 34 62 0 133 -98 79 -110 231 -356 231 -374 0 -9 -36 -17 -122 -25 -68 -7 -152 -16 -188 -21 -100 -15 -263 -20 -280 -10 -13 8 -12 15 4 57 29 75 30 96 6 118 -36 32 -50 15 -130 -160 -18 -38 -61 -129 -96 -200 -35 -72 -64 -138 -64 -148 0 -21 42 -49 63 -42 8 4 31 30 50 59 59 88 61 89 497 136 52 5 133 14 180 20 141 16 168 10 344 -76 49 -24 93 -44 98 -44 12 0 100 -60 110 -74 11 -15 10 -83 -1 -104 -32 -63 -34 -71 -21 -87 27 -33 81 -13 100 37 6 18 20 51 30 73 10 22 26 58 35 80 23 54 72 153 123 248 49 90 53 119 16 135 -33 16 -58 2 -79 -41 -29 -61 -74 -107 -105 -107 -16 0 -32 5 -35 10 -3 6 -13 10 -21 10 -32 0 -310 143 -346 178 -44 41 -305 436 -382 576 -30 53 -31 89 -6 171 6 22 13 51 13 65 2 22 -3 25 -34 28 -21 2 -40 -2 -45 -10z" fill="#27365c" id="27365c-000026"/>
    <path stroke="none" d="M4554 10396 c-91 -42 -149 -108 -180 -208 -16 -52 -26 -187 -28 -373 -2 -185 -15 -237 -74 -299 -37 -39 -107 -76 -143 -76 -28 0 -110 44 -137 73 -24 26 -51 69 -78 127 -9 19 -21 45 -26 57 -6 12 -11 55 -12 95 -1 94 18 129 104 187 36 24 65 47 64 52 -1 5 -2 22 -2 37 -2 20 -10 33 -28 42 -23 13 -30 12 -67 -7 -23 -12 -73 -36 -112 -53 -38 -17 -78 -35 -87 -40 -10 -6 -24 -10 -32 -10 -7 0 -19 -7 -27 -16 -12 -15 -5 -64 21 -144 4 -14 14 -52 21 -85 7 -33 16 -64 21 -69 4 -6 8 -16 8 -23 0 -8 9 -33 20 -55 11 -23 20 -46 20 -50 0 -19 86 -136 134 -181 84 -80 172 -117 282 -117 142 0 268 69 318 175 28 58 37 99 47 205 4 52 9 102 11 110 1 8 -1 45 -6 81 -10 82 9 239 35 291 10 20 35 50 56 67 33 27 45 31 100 31 61 0 63 -1 110 -48 56 -56 105 -145 123 -220 22 -95 -22 -182 -115 -226 -39 -19 -42 -33 -20 -76 18 -36 26 -36 96 -9 30 12 63 25 74 29 107 42 129 50 139 50 7 0 20 6 30 13 17 13 16 21 -28 153 -88 262 -166 387 -296 473 -75 50 -113 61 -206 60 -60 0 -91 -6 -130 -23z" fill="#27365c" id="27365c-000027"/>
    <path stroke="none" d="M24612 9372 c-128 -133 -172 -191 -232 -307 -43 -81 -46 -92 -65 -205 -23 -136 -21 -169 28 -334 36 -122 150 -267 284 -363 102 -73 223 -114 356 -121 90 -4 204 9 232 27 6 4 28 13 50 20 93 32 227 142 298 246 22 33 44 62 47 65 15 10 89 160 110 221 12 35 30 83 41 107 41 90 41 90 -58 162 -48 36 -104 79 -123 96 -54 47 -67 49 -101 12 -16 -18 -29 -38 -29 -44 0 -7 14 -27 31 -45 88 -94 110 -151 90 -232 -45 -186 -220 -363 -403 -406 -119 -28 -308 4 -408 69 -14 8 -38 22 -54 30 -86 44 -190 173 -226 281 -49 150 -17 301 93 443 109 140 214 179 349 128 44 -16 59 -18 70 -9 23 19 49 67 43 77 -4 6 -32 28 -63 50 -31 21 -94 66 -140 100 -46 33 -86 60 -90 59 -4 0 -62 -57 -130 -127z" fill="#27365c" id="27365c-000028"/>
    <path stroke="none" d="M5170 9210 c-14 -4 -40 -8 -59 -9 -31 -1 -69 -10 -126 -31 -11 -4 -60 -27 -109 -51 -121 -60 -244 -179 -298 -289 -66 -136 -86 -257 -63 -382 25 -139 24 -136 85 -258 52 -103 77 -137 195 -260 51 -52 108 -113 128 -135 33 -37 38 -39 58 -26 12 7 42 24 66 37 24 13 64 36 91 51 26 14 64 35 84 46 44 24 56 51 34 76 -9 10 -16 23 -16 29 0 19 -40 24 -64 9 -13 -9 -51 -21 -84 -28 -50 -11 -68 -10 -103 1 -60 20 -112 61 -160 126 -104 141 -144 280 -120 421 7 42 16 83 21 92 4 9 18 37 30 63 48 100 164 214 291 286 53 30 177 62 238 62 92 0 185 -31 256 -86 122 -92 218 -255 217 -367 0 -65 -20 -112 -72 -172 -46 -53 -51 -89 -19 -124 24 -25 43 -22 104 19 22 14 82 51 132 81 51 29 95 59 97 65 2 6 -2 23 -9 37 -7 15 -28 66 -46 114 -58 160 -117 264 -216 380 -46 55 -212 173 -242 173 -9 0 -21 4 -26 8 -16 13 -254 59 -268 51 -1 -1 -13 -5 -27 -9z" fill="#27365c" id="27365c-000029"/>
    <path stroke="none" d="M6200 8190 c-27 -27 -25 -49 6 -85 69 -80 51 -121 -116 -257 -25 -20 -61 -51 -80 -70 -75 -69 -258 -236 -330 -298 -41 -36 -97 -86 -125 -112 -27 -26 -69 -58 -92 -70 l-41 -22 -54 41 c-72 54 -73 55 -102 43 -20 -7 -26 -17 -26 -38 0 -22 19 -48 88 -118 48 -49 108 -114 132 -144 25 -30 47 -57 50 -60 3 -3 22 -26 43 -51 20 -25 48 -51 62 -59 22 -12 27 -11 45 5 28 25 25 43 -15 105 -19 30 -35 65 -35 78 0 25 69 99 180 192 35 30 89 79 120 108 30 28 60 52 66 52 12 0 70 -60 154 -160 30 -36 62 -72 70 -80 8 -8 62 -67 120 -130 58 -63 108 -116 113 -118 19 -9 3 -43 -34 -71 -23 -17 -89 -74 -147 -128 -179 -167 -193 -173 -272 -114 -30 23 -62 41 -71 41 -18 0 -49 -30 -49 -48 0 -6 30 -42 66 -79 36 -37 109 -120 162 -183 156 -186 147 -178 179 -160 38 21 40 52 5 102 -59 87 -52 111 65 214 43 38 80 71 83 74 3 3 39 34 80 70 41 36 108 97 150 136 41 40 118 109 170 154 52 46 115 101 140 123 74 65 91 67 167 15 23 -15 51 -28 63 -28 26 0 47 42 34 69 -5 10 -64 77 -131 147 -67 71 -140 153 -163 182 -42 53 -63 62 -101 42 -27 -15 -24 -48 11 -100 50 -75 40 -102 -70 -192 -25 -20 -76 -66 -115 -102 -38 -35 -80 -70 -93 -77 -21 -12 -26 -10 -49 20 -15 19 -36 43 -47 55 -12 12 -43 46 -70 76 -27 30 -72 80 -101 110 -28 30 -61 69 -74 85 -12 17 -44 53 -69 80 -82 87 -82 75 5 147 43 36 103 89 133 117 30 29 72 64 92 78 33 23 41 24 67 14 16 -7 41 -26 57 -42 15 -16 38 -29 50 -29 24 0 54 34 54 60 0 9 -30 47 -67 86 -38 39 -117 127 -178 197 -62 72 -118 127 -127 127 -10 0 -27 -9 -38 -20z" fill="#27365c" id="27365c-000030"/>
    <path stroke="none" d="M23528 7933 c-29 -34 -88 -134 -88 -149 0 -9 16 -39 35 -66 20 -27 51 -78 70 -113 19 -36 51 -95 71 -132 20 -38 48 -88 62 -113 14 -25 41 -74 60 -110 19 -36 46 -85 59 -110 14 -25 48 -88 76 -140 27 -52 58 -106 67 -120 9 -14 41 -74 70 -133 51 -104 53 -110 41 -144 -7 -19 -24 -51 -37 -70 -35 -51 -31 -78 13 -102 25 -13 45 2 96 71 14 20 32 42 39 50 7 7 38 43 67 78 30 36 72 83 94 104 21 21 46 50 54 63 15 23 14 25 -12 53 -16 17 -34 30 -40 30 -6 0 -33 -22 -60 -50 -79 -80 -76 -81 -202 150 -14 25 -29 49 -34 55 -20 21 -6 54 58 130 143 172 217 257 233 265 15 8 140 -26 157 -43 3 -4 17 -7 29 -7 13 0 25 -4 28 -9 3 -4 18 -11 34 -14 33 -7 82 -43 82 -61 0 -7 -16 -33 -35 -57 -39 -49 -44 -78 -17 -102 41 -38 61 -23 179 133 23 30 87 102 142 160 55 58 100 112 101 121 0 19 -26 44 -56 53 -16 5 -34 -3 -67 -28 -61 -47 -81 -56 -117 -56 -27 0 -229 61 -295 89 -11 5 -36 14 -55 21 -19 7 -44 16 -55 21 -11 4 -40 15 -65 23 -25 8 -65 22 -90 31 -25 9 -70 26 -100 37 -30 11 -64 24 -75 28 -11 5 -40 16 -65 24 -25 8 -83 29 -130 46 -47 18 -96 35 -110 37 -14 3 -29 9 -35 13 -5 3 -30 13 -55 20 -25 8 -54 20 -65 27 -26 17 -39 16 -57 -4z" fill="#27365c" id="27365c-000031"/>
    <path stroke="none" d="M23742 7654 c24 -9 52 -19 63 -24 11 -4 40 -14 65 -21 25 -7 50 -16 55 -19 6 -4 19 -10 30 -13 97 -28 221 -77 223 -89 2 -12 -23 -46 -131 -172 -23 -27 -53 -64 -67 -82 -14 -18 -30 -33 -37 -34 -6 0 -27 30 -45 68 -42 82 -100 187 -144 265 -19 32 -34 61 -34 63 0 3 -9 18 -20 34 -11 15 -17 30 -13 34 8 8 6 8 55 -10z" fill="#ffffff" id="ffffff-000007"/>
    <path stroke="none" d="M22809 7088 c-46 -39 -86 -74 -89 -78 -3 -3 -30 -25 -60 -50 -102 -83 -103 -85 -97 -121 2 -19 24 -86 47 -149 23 -63 44 -126 47 -140 3 -14 9 -29 13 -35 3 -5 13 -30 20 -55 7 -25 17 -49 20 -55 4 -5 13 -32 20 -60 7 -27 16 -54 20 -60 3 -5 13 -30 20 -55 7 -25 17 -49 20 -55 4 -5 12 -30 19 -55 6 -25 16 -54 20 -65 22 -50 50 -133 56 -162 6 -29 4 -32 -12 -27 -25 9 -221 103 -528 254 -244 121 -324 158 -402 189 -32 13 -34 12 -100 -46 -38 -33 -77 -67 -88 -76 -11 -9 -57 -46 -102 -82 -86 -68 -94 -84 -67 -123 16 -23 61 -30 80 -13 5 5 35 23 66 41 44 23 62 29 76 21 19 -10 31 -26 204 -271 57 -80 122 -172 145 -205 24 -33 71 -100 105 -150 34 -49 77 -109 95 -133 19 -25 41 -61 49 -80 18 -43 8 -73 -43 -134 -37 -45 -42 -73 -14 -88 35 -18 57 -11 112 41 30 29 95 85 144 126 50 40 109 89 133 109 48 40 52 61 18 93 l-24 23 -57 -31 c-108 -59 -144 -44 -248 107 -29 41 -77 109 -107 152 -30 43 -79 113 -109 156 -92 133 -176 249 -183 252 -11 5 -10 22 2 22 16 0 106 -42 473 -219 115 -56 211 -101 214 -101 2 0 46 -20 96 -44 96 -46 157 -74 218 -99 34 -14 38 -14 64 7 34 27 36 68 7 137 -10 24 -37 105 -61 179 -24 74 -51 158 -61 185 -9 28 -23 68 -29 90 -7 22 -16 49 -20 60 -16 40 -43 121 -51 150 -4 17 -19 62 -33 100 -13 39 -30 90 -38 115 -7 25 -17 51 -22 58 -23 30 5 21 45 -14 112 -100 608 -590 608 -600 0 -14 -41 -77 -60 -94 -30 -27 -52 -69 -46 -88 4 -10 17 -25 31 -32 22 -12 28 -10 57 12 18 14 53 45 78 69 66 64 177 159 240 206 30 23 71 58 89 77 l35 36 -21 27 c-11 16 -27 29 -35 31 -9 2 -42 -15 -73 -37 -34 -24 -70 -41 -86 -41 -27 0 -80 39 -153 113 -17 18 -45 43 -61 56 -33 27 -334 313 -488 463 -71 69 -98 102 -93 113 3 9 6 21 6 25 0 5 23 35 50 66 28 31 50 67 50 79 0 25 -29 55 -52 55 -9 0 -53 -32 -99 -72z" fill="#27365c" id="27365c-000032"/>
    <path stroke="none" d="M7475 6648 c-22 -5 -62 -14 -88 -20 -54 -11 -182 -74 -235 -115 -61 -46 -160 -151 -195 -205 -18 -29 -43 -80 -56 -113 -12 -33 -26 -69 -31 -81 -4 -12 -14 -55 -21 -98 -10 -61 -11 -93 -1 -161 7 -47 18 -98 24 -113 62 -152 128 -246 224 -318 21 -16 48 -37 59 -47 30 -27 154 -85 219 -102 63 -17 261 -21 298 -6 13 5 43 15 68 22 183 54 403 255 474 434 43 109 48 135 48 255 0 97 -4 130 -22 181 -38 105 -79 171 -164 257 -144 149 -249 204 -436 230 -79 12 -113 12 -165 0z" fill="#27365c" id="27365c-000033"/>
    <path stroke="none" d="M7694 6488 c56 -16 152 -80 204 -136 59 -64 111 -172 123 -256 5 -38 12 -73 15 -78 6 -9 -9 -110 -28 -183 -25 -99 -93 -221 -162 -289 -214 -214 -490 -191 -679 57 -68 90 -90 162 -90 297 0 110 8 146 61 265 57 131 219 284 342 322 48 15 164 16 214 1z" fill="#ffffff" id="ffffff-000009"/>
    <path stroke="none" d="M8828 5666 c-37 -6 -70 -14 -74 -18 -4 -5 -13 -8 -21 -8 -21 0 -104 -41 -163 -81 -133 -90 -226 -212 -300 -394 -40 -99 -41 -328 0 -430 35 -90 73 -147 150 -226 47 -48 105 -100 130 -116 48 -32 133 -73 150 -73 6 0 18 -4 28 -9 75 -41 308 -41 407 -1 11 4 35 14 54 21 54 20 171 101 224 154 90 90 182 246 213 362 29 106 18 346 -18 388 -4 5 -8 15 -8 23 0 21 -78 132 -134 190 -28 30 -76 71 -106 91 -60 41 -181 101 -202 101 -8 0 -18 4 -23 9 -14 13 -133 31 -191 30 -27 -1 -79 -6 -116 -13z" fill="#27365c" id="27365c-000034"/>
    <path stroke="none" d="M9085 5504 c37 -15 130 -77 169 -113 41 -38 99 -127 124 -191 117 -303 -62 -694 -353 -769 -120 -32 -260 7 -382 106 -131 105 -197 298 -168 484 21 136 52 210 129 312 65 87 193 175 276 190 40 8 171 -5 205 -19z" fill="#ffffff" id="ffffff-000010"/>
    <path stroke="none" d="M20999 5655 c-3 -3 -31 -12 -61 -20 -68 -17 -140 -56 -290 -157 -65 -43 -119 -78 -122 -78 -2 0 -33 -17 -67 -38 -35 -21 -75 -43 -89 -50 -53 -28 -62 -39 -55 -71 11 -49 29 -58 85 -38 74 26 105 23 134 -16 21 -27 322 -521 388 -637 11 -19 35 -57 53 -85 19 -27 45 -74 60 -103 32 -65 25 -93 -35 -138 -47 -35 -55 -82 -18 -108 24 -17 16 -21 129 55 89 59 161 104 219 136 112 61 125 70 128 87 4 20 -34 66 -55 66 -8 0 -33 -9 -55 -20 -91 -44 -101 -36 -228 185 -10 17 -41 68 -70 115 -91 147 -316 523 -334 559 -10 19 -15 43 -12 57 13 51 168 124 265 124 62 0 160 -42 203 -87 111 -118 87 -255 -64 -371 -80 -61 -77 -65 145 -175 105 -52 239 -117 297 -145 58 -27 123 -58 145 -68 27 -13 62 -19 105 -19 56 0 71 5 110 31 25 17 65 41 90 55 67 35 80 49 80 84 0 54 -21 62 -94 37 -35 -12 -72 -22 -82 -22 -21 0 -88 22 -148 49 -36 16 -106 46 -201 86 -16 7 -55 24 -85 38 -30 13 -71 30 -91 37 -20 7 -47 22 -60 32 l-24 18 22 19 c12 10 39 45 61 79 86 134 77 285 -24 398 -28 31 -105 80 -139 89 -38 10 -208 18 -216 10z" fill="#27365c" id="27365c-000035"/>
    <path stroke="none" d="M10106 5059 c-22 -32 -6 -60 55 -94 75 -42 77 -64 13 -200 -12 -27 -31 -72 -42 -100 -11 -27 -32 -77 -47 -110 -26 -57 -38 -85 -72 -165 -8 -19 -23 -53 -33 -75 -10 -22 -25 -56 -33 -75 -94 -223 -134 -302 -162 -323 -13 -10 -117 1 -129 13 -6 6 -17 10 -26 10 -20 0 -60 -41 -60 -61 0 -23 39 -55 85 -70 22 -7 44 -17 49 -21 6 -4 16 -8 23 -8 7 0 42 -13 78 -30 36 -16 67 -30 70 -30 2 0 35 -14 72 -31 37 -17 77 -35 88 -39 11 -5 63 -28 115 -53 52 -24 113 -52 135 -62 22 -9 84 -39 138 -66 54 -27 103 -49 108 -49 5 0 19 21 31 48 12 26 29 58 38 72 9 14 32 52 50 85 18 33 46 83 62 111 l28 51 -41 27 c-22 15 -47 25 -54 22 -7 -2 -39 -39 -71 -82 -32 -42 -71 -85 -88 -95 -49 -30 -69 -27 -193 27 -18 8 -50 21 -70 30 -89 38 -144 68 -169 91 -23 21 -26 29 -20 66 4 22 10 46 15 52 4 5 18 37 31 70 13 33 32 75 42 93 10 18 18 37 18 42 0 5 11 33 24 62 24 54 53 118 88 198 19 42 26 58 63 145 8 19 22 51 30 70 8 19 21 50 29 68 33 79 49 106 70 126 22 21 24 21 85 6 34 -9 70 -13 81 -10 24 8 37 50 21 69 -7 8 -62 35 -124 59 -62 25 -141 59 -177 75 -207 95 -201 93 -224 61z" fill="#27365c" id="27365c-000036"/>
    <path stroke="none" d="M19470 4899 c-95 -59 -97 -61 -80 -106 7 -21 14 -87 16 -148 1 -60 7 -191 13 -290 6 -99 9 -191 6 -204 -3 -12 -1 -37 4 -55 11 -36 24 -471 15 -527 -7 -42 -36 -79 -79 -101 -17 -9 -38 -25 -48 -36 -16 -17 -17 -24 -6 -44 24 -46 43 -45 149 7 36 18 81 39 100 48 19 8 56 24 82 36 26 11 52 21 58 21 6 0 18 4 28 9 9 5 34 16 55 25 20 8 37 23 37 31 0 24 -29 75 -43 75 -16 0 -85 -25 -93 -33 -12 -12 -61 -8 -71 6 -12 14 -26 317 -15 334 6 10 60 36 162 80 19 8 53 23 75 34 112 51 179 79 193 79 17 0 172 -148 213 -203 37 -51 27 -79 -39 -106 -19 -8 -40 -24 -48 -37 -14 -20 -14 -26 1 -53 19 -38 35 -36 141 19 39 20 91 45 115 54 24 10 60 24 79 33 46 20 63 27 135 54 33 12 68 29 77 38 17 15 17 18 -3 50 -20 32 -22 33 -67 26 -126 -18 -116 -20 -179 24 -32 22 -103 87 -158 144 -355 368 -740 757 -749 756 -6 0 -40 -18 -76 -40z" fill="#27365c" id="27365c-000037"/>
    <path stroke="none" d="M19755 4436 c213 -212 207 -184 50 -251 -22 -9 -62 -27 -90 -40 -136 -61 -135 -61 -135 13 0 33 -4 94 -10 138 -12 103 -18 324 -8 324 4 0 91 -83 193 -184z" fill="#ffffff" id="ffffff-000011"/>
    <path stroke="none" d="M18555 4514 c-193 -56 -227 -65 -320 -88 -123 -29 -145 -47 -120 -95 16 -31 56 -43 70 -21 3 6 24 10 45 10 32 0 43 -6 63 -32 14 -18 27 -44 30 -58 3 -14 10 -41 16 -60 20 -72 52 -197 61 -239 11 -51 3 -66 -38 -74 -15 -3 -62 -15 -104 -26 -160 -43 -234 -63 -268 -71 -19 -5 -53 -14 -75 -20 -74 -21 -130 -33 -160 -34 -27 -1 -30 2 -36 39 -6 36 -32 135 -60 235 -20 67 -27 125 -18 148 5 13 31 32 63 48 58 27 76 57 56 94 -13 25 -19 25 -111 0 -145 -40 -225 -62 -264 -71 -22 -5 -58 -14 -80 -20 -22 -5 -53 -14 -70 -18 -24 -5 -31 -13 -33 -36 -2 -17 3 -39 11 -49 13 -18 18 -18 76 -6 l62 13 29 -28 c31 -29 36 -43 71 -172 10 -40 28 -107 39 -148 11 -41 29 -109 40 -150 11 -41 29 -109 40 -150 11 -41 29 -108 39 -147 11 -40 26 -98 34 -128 29 -109 30 -128 7 -165 -12 -19 -29 -35 -37 -35 -8 0 -33 -10 -54 -22 -33 -18 -39 -27 -39 -55 0 -22 6 -36 16 -40 16 -6 103 12 134 28 8 4 35 13 60 19 25 7 59 17 75 21 57 17 198 49 214 49 9 0 33 5 54 11 33 9 37 13 37 43 0 50 -17 58 -99 50 -102 -10 -106 -4 -162 201 -4 17 -15 57 -24 90 -18 64 -31 121 -41 171 -6 32 -6 32 62 52 89 26 180 52 224 62 19 5 53 14 75 20 22 6 51 14 65 17 14 2 54 13 90 23 135 38 139 38 148 26 13 -15 22 -46 83 -276 54 -202 49 -229 -49 -260 -51 -16 -64 -30 -60 -66 6 -50 41 -54 143 -14 11 4 40 13 65 20 25 7 56 16 70 20 14 4 50 13 80 19 30 7 71 16 90 20 19 5 58 14 85 21 64 14 71 22 55 60 -15 37 -38 50 -65 39 -30 -11 -91 -11 -118 2 -28 12 -51 71 -87 219 -10 40 -46 178 -61 230 -6 19 -14 51 -19 70 -5 19 -18 70 -29 113 -12 42 -30 110 -40 150 -11 39 -27 99 -36 132 -21 79 -22 142 -1 163 9 9 37 28 63 42 53 29 63 52 37 81 -20 22 -32 23 -99 3z" fill="#27365c" id="27365c-000038"/>
    <path stroke="none" d="M12530 4225 c-142 -21 -192 -40 -290 -106 -97 -65 -176 -160 -235 -282 -39 -81 -47 -105 -71 -222 -17 -84 -18 -141 -3 -221 38 -212 156 -380 329 -470 127 -67 210 -86 365 -87 209 0 301 39 451 188 86 85 106 112 141 185 22 47 45 105 53 130 7 25 17 59 24 75 6 17 11 87 10 165 0 113 -4 145 -23 200 -30 86 -39 105 -82 170 -85 128 -193 197 -404 259 -16 5 -52 12 -80 15 -27 4 -61 8 -75 10 -14 2 -63 -2 -110 -9z" fill="#27365c" id="27365c-000039"/>
    <path stroke="none" d="M12710 4049 c131 -43 190 -85 266 -189 63 -86 93 -161 115 -288 15 -86 2 -203 -33 -292 -25 -63 -90 -165 -127 -197 -62 -54 -185 -103 -261 -103 -58 0 -165 26 -227 56 -111 54 -234 203 -265 323 -32 124 -33 291 -2 381 51 148 123 243 223 295 103 53 183 57 311 14z" fill="#ffffff" id="ffffff-000012"/>
    <path stroke="none" d="M16325 4049 c-27 -6 -81 -15 -120 -20 -38 -6 -83 -14 -100 -19 -16 -4 -93 -14 -170 -20 -77 -7 -152 -16 -167 -22 -30 -11 -41 -39 -28 -73 9 -25 32 -31 115 -34 92 -3 108 -24 125 -166 5 -38 18 -146 29 -240 82 -665 81 -651 52 -682 -12 -12 -48 -29 -81 -39 -77 -22 -88 -34 -67 -79 18 -37 29 -40 86 -26 20 6 77 15 126 21 50 6 119 15 155 20 36 6 106 12 155 15 76 4 93 8 108 26 21 26 21 39 3 65 -12 16 -27 19 -110 19 -109 1 -125 9 -143 77 -6 24 -17 97 -23 163 -6 66 -15 140 -20 165 -5 25 -14 101 -20 170 -6 69 -15 148 -20 175 -12 68 -30 235 -30 284 0 34 5 44 36 67 33 26 42 28 129 27 141 0 227 -40 301 -137 72 -96 71 -239 -3 -326 -49 -57 -91 -74 -246 -99 -54 -8 -66 -20 -59 -57 8 -43 35 -53 131 -48 103 6 146 17 229 57 70 34 142 105 180 178 29 53 43 182 30 264 -22 142 -131 252 -283 286 -67 15 -238 19 -300 8z" fill="#27365c" id="27365c-000040"/>
    <path stroke="none" d="M13686 4023 c-3 -4 -6 -23 -6 -44 0 -46 18 -59 82 -59 78 -1 83 -12 81 -158 -1 -70 -7 -176 -12 -237 -6 -60 -15 -177 -21 -260 -33 -470 -36 -484 -132 -485 -79 0 -119 -30 -103 -78 7 -26 99 -45 168 -37 28 4 99 1 157 -5 58 -6 141 -15 185 -19 44 -4 87 -11 96 -15 24 -10 41 17 37 60 -4 44 -11 48 -103 65 -38 6 -78 17 -88 23 -33 20 -38 65 -26 207 6 74 14 170 18 214 l6 80 50 3 c50 4 127 -9 199 -32 37 -12 40 -15 55 -76 15 -58 20 -65 49 -74 52 -15 60 0 65 122 2 59 10 140 16 181 17 102 11 121 -37 121 -44 0 -62 -14 -62 -48 0 -13 -5 -32 -10 -43 -14 -25 -68 -52 -88 -44 -10 4 -62 9 -117 11 -55 3 -103 8 -107 12 -3 4 -2 54 3 112 6 58 12 143 15 190 6 112 18 146 52 155 51 13 348 -18 393 -41 43 -21 59 -56 59 -126 0 -101 30 -136 90 -105 23 12 25 19 32 107 3 52 9 131 13 176 l7 81 -83 8 c-46 4 -129 9 -184 11 -55 1 -127 6 -160 9 -33 4 -116 8 -185 11 -69 2 -150 8 -180 13 -72 13 -216 22 -224 14z" fill="#27365c" id="27365c-000041"/>
  </g>
</svg>
