<svg xmlns="http://www.w3.org/2000/svg" version="1.0" width="6288.000000pt" height="4444.000000pt" viewBox="0 0 6288.000000 4444.000000" preserveAspectRatio="xMidYMid meet">
  <g transform="translate(0.000000,4444.000000) scale(0.100000,-0.100000)" stroke="none">
    <mask id="mask-0">
      <g>
        <path d="M 0 0 H 62880.0 V 44440.0 H 0 Z" fill="white" id="background"/>
        <path d="M58719 40484 c87 -30 144 -69 249 -168 122 -116 201 -278 189 -388 -7 -65 -35 -154 -59 -190 -10 -14 -18 -31 -18 -37 0 -5 -54 -66 -120 -134 -66 -69 -120 -127 -120 -129 0 -3 72 -77 161 -166 177 -175 168 -159 129 -247 -10 -22 -37 -87 -60 -145 -23 -58 -49 -113 -57 -122 -41 -46 -35 -51 -700 614 -517 517 -633 638 -633 659 0 30 5 35 80 76 30 17 72 40 93 52 20 11 54 31 75 42 20 12 62 35 92 52 30 16 60 33 65 37 16 13 288 146 320 158 17 5 39 14 50 18 92 35 194 43 264 18z" fill="black"/>
        <path d="M57948 38997 c551 -551 1005 -1012 1008 -1024 4 -15 -13 -64 -54 -150 -33 -71 -63 -136 -66 -145 -3 -9 -16 -24 -30 -33 -21 -14 -31 -15 -58 -6 -46 15 -2164 2134 -2174 2174 -8 35 11 58 74 88 83 39 207 96 222 102 51 21 49 22 1078 -1006z" fill="black"/>
        <path d="M56145 39538 c39 -40 600 -603 1245 -1250 1295 -1300 1199 -1193 1149 -1276 -12 -20 -29 -50 -39 -67 -57 -100 -84 -141 -98 -152 -46 -34 -43 -37 -669 589 l-603 603 -145 -145 c-80 -80 -145 -152 -145 -160 0 -8 288 -303 640 -655 480 -480 640 -646 640 -664 0 -26 -16 -51 -118 -179 -82 -102 -106 -115 -149 -84 -15 12 -657 650 -1425 1419 -975 976 -1399 1406 -1404 1426 -9 38 14 61 146 150 77 52 114 71 138 71 30 0 82 -49 635 -602 331 -331 606 -602 612 -602 13 0 295 282 295 295 0 5 -239 249 -531 540 -292 292 -544 548 -560 569 -16 21 -29 47 -29 57 0 21 28 49 68 70 15 8 52 28 82 45 170 97 169 97 265 2z" fill="black"/>
        <path d="M54662 38406 c129 -44 190 -90 446 -340 62 -61 122 -123 133 -138 18 -25 19 -30 5 -55 -20 -39 -216 -229 -244 -238 -25 -7 -42 7 -278 237 -129 125 -133 128 -176 128 -55 0 -142 -53 -206 -125 -76 -87 -57 -152 87 -287 38 -37 94 -86 123 -109 59 -46 284 -199 294 -199 3 0 19 -9 34 -20 16 -11 52 -33 82 -49 29 -15 71 -38 93 -51 48 -28 429 -218 500 -250 184 -82 792 -381 898 -441 113 -64 273 -172 347 -234 156 -129 209 -178 290 -262 115 -120 181 -219 219 -328 20 -57 17 -160 -6 -221 -16 -42 -93 -167 -112 -184 -4 -3 -19 -23 -35 -45 -51 -69 -179 -196 -236 -234 -69 -46 -139 -76 -210 -90 -115 -23 -259 29 -395 142 -130 109 -415 397 -415 420 0 14 42 66 116 145 95 100 121 122 144 122 23 0 61 -31 207 -174 99 -95 193 -181 210 -190 64 -33 147 -13 215 51 37 35 88 135 88 173 0 95 -240 301 -559 483 -98 55 -133 74 -216 119 -156 84 -695 352 -810 402 -167 74 -479 227 -575 283 -81 47 -269 169 -280 182 -3 3 -34 31 -70 61 -178 148 -320 304 -426 465 -74 111 -84 139 -91 242 -9 132 29 228 137 346 112 121 269 227 389 263 31 9 67 20 81 25 35 12 124 1 202 -25z" fill="black"/>
        <path d="M53432 37543 c63 -51 160 -148 174 -176 8 -15 12 -37 9 -47 -3 -11 -78 -88 -166 -173 -87 -85 -159 -158 -159 -163 0 -5 637 -646 1415 -1424 995 -995 1415 -1422 1415 -1437 0 -22 -170 -218 -215 -247 -61 -40 24 -120 -1490 1394 -775 776 -1417 1410 -1425 1410 -8 0 -82 -72 -165 -159 -82 -88 -160 -162 -172 -165 -37 -10 -65 9 -166 112 -109 111 -109 112 -60 184 87 129 638 687 833 844 105 85 120 89 172 47z" fill="black"/>
        <path d="M52292 36171 c60 -60 108 -115 108 -122 0 -16 -90 -137 -247 -333 -57 -70 -103 -133 -103 -139 0 -18 1043 -1057 1060 -1057 8 0 87 72 175 160 204 205 190 202 333 56 80 -81 102 -109 102 -131 0 -22 -31 -59 -160 -189 -88 -89 -160 -169 -160 -178 0 -16 1048 -1081 1082 -1099 22 -12 17 -16 234 176 199 177 235 205 257 205 23 0 226 -196 233 -225 9 -38 -10 -62 -156 -196 -80 -73 -192 -176 -250 -229 -293 -271 -292 -270 -324 -270 -28 0 -184 153 -1483 1453 -1130 1130 -1454 1459 -1458 1482 -8 38 -20 21 313 419 253 302 276 326 305 326 27 0 47 -16 139 -109z" fill="black"/>
        <path d="M51216 35075 c12 -8 32 -40 44 -72 23 -57 46 -110 95 -218 14 -31 25 -58 25 -60 0 -3 10 -27 21 -53 12 -26 27 -60 34 -77 7 -16 25 -56 39 -88 14 -32 26 -60 26 -62 0 -3 10 -27 21 -53 12 -26 27 -60 34 -77 7 -16 25 -56 39 -88 14 -32 26 -60 26 -62 0 -3 10 -27 21 -53 12 -26 27 -60 34 -77 7 -16 25 -56 39 -88 14 -32 26 -60 26 -62 0 -3 10 -27 21 -53 12 -26 27 -60 34 -77 7 -16 25 -56 39 -88 14 -32 26 -60 26 -62 0 -3 10 -27 21 -53 12 -26 27 -60 34 -77 19 -43 55 -125 72 -162 9 -20 30 -39 56 -51 51 -24 168 -79 340 -161 70 -34 184 -88 255 -121 70 -34 182 -88 250 -120 68 -33 125 -60 128 -60 2 0 61 -27 129 -60 69 -33 182 -87 253 -121 70 -33 177 -84 237 -113 61 -29 153 -73 205 -97 209 -97 215 -100 217 -139 4 -44 0 -48 -122 -146 -120 -96 -159 -124 -174 -124 -12 0 -258 121 -1088 534 -276 137 -506 247 -510 243 -4 -4 236 -250 532 -547 297 -297 543 -549 547 -561 15 -41 -2 -67 -84 -126 -44 -32 -89 -66 -101 -76 -48 -41 -88 -59 -114 -52 -36 9 -2570 2541 -2578 2576 -5 21 10 51 80 158 91 139 119 167 157 156 13 -4 231 -215 485 -468 254 -254 465 -458 468 -455 6 6 -2 25 -117 273 -74 160 -88 189 -105 220 -6 11 -27 54 -46 95 -106 229 -173 374 -210 450 -22 47 -44 93 -49 103 -4 9 -12 25 -17 35 -35 66 -91 195 -91 210 0 21 15 44 179 264 43 59 77 71 117 43z" fill="black"/>
        <path d="M50109 33229 c57 -17 180 -81 232 -119 62 -46 559 -529 559 -543 0 -16 -242 -257 -258 -257 -7 0 -123 107 -258 238 -134 130 -254 241 -267 246 -38 14 -72 -1 -125 -53 -65 -66 -106 -142 -97 -180 4 -21 65 -87 203 -222 108 -106 461 -454 785 -774 323 -319 598 -584 611 -588 14 -5 42 -4 65 3 48 13 141 86 171 135 40 65 34 73 -257 366 -229 231 -264 269 -255 285 6 11 65 73 131 139 l120 119 193 -188 c370 -361 421 -423 479 -586 33 -91 32 -216 -1 -280 -41 -81 -97 -155 -159 -212 -79 -73 -241 -185 -311 -214 -108 -46 -227 -27 -374 60 -92 54 -314 266 -1082 1038 -382 383 -626 636 -651 673 -77 117 -106 202 -106 310 -1 106 20 151 167 365 66 95 176 196 246 225 62 26 178 33 239 14z" fill="black"/>
        <path d="M49187 31814 c26 -9 75 -34 108 -56 91 -61 1330 -1306 1374 -1381 42 -72 71 -157 71 -210 0 -190 -189 -414 -455 -541 -94 -45 -119 -51 -215 -50 -97 0 -148 12 -228 53 -46 24 -1294 1274 -1316 1318 -37 75 -50 129 -49 219 0 84 3 96 40 176 82 174 205 325 338 414 58 39 98 58 140 67 47 11 148 6 192 -9z" fill="black"/>
        <path d="M48248 30445 c100 -35 182 -91 290 -197 157 -154 232 -294 237 -443 1 -27 3 -55 3 -61 1 -6 30 -23 65 -39 153 -71 684 -338 700 -352 25 -23 21 -56 -10 -85 -55 -50 -249 -178 -271 -178 -15 0 -34 8 -172 73 -47 22 -116 54 -155 72 -38 18 -110 52 -160 75 -49 23 -110 51 -135 62 -25 11 -60 27 -79 36 l-34 16 -39 -45 c-21 -24 -38 -51 -38 -60 0 -9 88 -102 195 -205 174 -168 195 -193 195 -221 0 -27 -7 -37 -47 -64 -27 -18 -50 -35 -53 -39 -22 -27 -159 -110 -181 -110 -23 0 -113 84 -528 491 -276 270 -501 493 -501 494 0 4 69 146 81 169 6 10 20 35 31 55 11 20 43 79 70 131 28 52 59 107 69 122 11 14 19 29 19 33 0 25 138 188 192 226 76 54 177 71 256 44z" fill="black"/>
      </g>
    </mask>
    <path stroke="none" d="M62195 44379 c-253 -70 -447 -298 -462 -544 -11 -177 63 -326 219 -441 70 -51 179 -105 243 -119 282 -61 497 23 604 237 l41 81 0 278 0 278 -29 43 c-57 83 -147 149 -241 177 -25 7 -58 17 -74 22 -52 16 -225 9 -301 -12z" fill="#542989" id="542989-000001" mask="url(#mask-0)"/>
    <path stroke="none" d="M61325 42994 c-44 -36 -118 -98 -165 -138 -47 -40 -141 -119 -210 -176 -69 -58 -136 -114 -150 -126 -14 -12 -54 -46 -90 -76 -36 -29 -121 -101 -189 -158 -68 -58 -154 -130 -191 -160 -70 -57 -157 -130 -395 -330 -188 -158 -285 -239 -375 -313 -41 -34 -120 -100 -175 -147 -55 -47 -140 -119 -190 -160 -49 -41 -96 -80 -103 -87 -36 -35 -44 -35 -262 6 -213 41 -364 62 -485 68 -273 13 -810 -47 -1125 -127 -19 -5 -48 -12 -65 -15 -35 -7 -84 -19 -137 -34 -21 -6 -55 -16 -75 -22 -21 -5 -53 -14 -70 -20 -18 -5 -48 -13 -65 -18 -29 -8 -75 -23 -153 -51 -11 -4 -38 -13 -60 -19 -22 -7 -49 -16 -60 -21 -11 -4 -47 -18 -80 -31 -33 -12 -85 -33 -115 -47 -30 -13 -68 -30 -85 -37 -113 -48 -185 -82 -375 -177 -232 -116 -383 -195 -442 -234 -21 -13 -40 -24 -42 -24 -3 0 -29 -14 -58 -31 -29 -18 -66 -40 -83 -49 -62 -36 -171 -104 -212 -131 -23 -16 -45 -29 -48 -29 -4 0 -20 -10 -35 -22 -15 -13 -47 -35 -71 -50 -108 -68 -272 -181 -461 -320 -223 -163 -292 -217 -643 -503 -53 -43 -351 -300 -365 -315 -3 -3 -57 -52 -120 -110 -436 -398 -839 -802 -1405 -1410 -50 -54 -435 -487 -485 -546 -14 -16 -59 -68 -100 -115 -41 -47 -119 -137 -172 -200 -53 -63 -105 -123 -115 -134 -10 -11 -47 -56 -83 -100 -35 -44 -89 -109 -120 -145 -63 -73 -172 -205 -210 -255 -14 -18 -133 -167 -265 -331 -132 -164 -260 -325 -285 -356 -25 -32 -78 -100 -118 -150 -86 -109 -201 -257 -257 -332 -22 -30 -83 -108 -135 -176 -52 -67 -111 -143 -130 -170 -19 -27 -53 -73 -76 -102 -101 -133 -131 -173 -158 -211 -37 -53 -325 -486 -348 -524 -10 -15 -22 -35 -27 -43 -29 -43 -156 -249 -168 -271 -7 -15 -20 -32 -28 -39 -8 -7 -15 -17 -15 -22 0 -5 -17 -35 -38 -66 -22 -31 -41 -62 -43 -67 -2 -6 -31 -51 -64 -102 -42 -65 -67 -93 -85 -98 -41 -10 -111 -25 -165 -35 -27 -5 -70 -14 -95 -20 -25 -6 -63 -15 -85 -20 -40 -9 -93 -22 -170 -41 -84 -21 -111 -28 -150 -39 -22 -6 -51 -14 -65 -16 -14 -3 -34 -9 -45 -13 -11 -5 -81 -28 -155 -51 -125 -41 -168 -56 -275 -99 -50 -20 -294 -142 -354 -177 -325 -189 -648 -507 -1007 -989 -142 -191 -186 -254 -491 -715 -129 -195 -253 -381 -274 -413 -21 -32 -39 -61 -39 -66 0 -4 -9 -16 -20 -26 -11 -10 -20 -21 -20 -26 0 -6 -105 -173 -242 -384 -132 -204 -194 -301 -203 -317 -12 -21 -220 -342 -265 -408 -58 -85 -210 -320 -210 -325 0 -11 -1116 -1673 -1145 -1705 -25 -28 -26 -101 -1 -129 24 -26 76 -28 104 -3 11 9 55 58 97 107 123 144 177 206 225 261 25 28 83 95 130 150 47 54 132 153 190 219 58 66 161 186 230 265 69 79 159 183 200 230 41 47 84 96 96 110 47 55 258 295 264 300 3 3 54 61 115 130 60 69 143 163 185 210 42 47 121 135 176 195 749 834 1214 1264 1474 1362 96 36 125 43 171 43 48 0 119 -19 170 -46 52 -26 170 -109 207 -144 34 -33 39 -45 22 -55 -5 -3 -10 -16 -10 -27 0 -12 -4 -35 -10 -52 -19 -61 -53 -222 -80 -371 -38 -219 -25 -693 26 -920 30 -137 49 -191 104 -304 121 -247 295 -405 550 -499 54 -20 88 -28 205 -53 85 -18 415 -15 535 5 187 30 303 54 415 86 22 6 56 15 75 19 36 9 190 57 225 71 36 15 88 30 101 30 16 0 86 -102 116 -167 17 -38 22 -68 22 -143 1 -94 -3 -113 -45 -207 -11 -24 -19 -45 -19 -48 0 -9 -130 -205 -179 -270 -57 -75 -165 -202 -291 -340 -320 -352 -1331 -1311 -2405 -2280 -55 -49 -102 -92 -105 -95 -3 -3 -57 -52 -120 -110 -63 -58 -117 -107 -120 -110 -3 -3 -48 -43 -100 -90 -143 -128 -150 -135 -150 -173 0 -53 20 -72 78 -71 38 0 57 7 88 31 87 66 402 292 667 476 62 43 150 104 197 137 159 111 308 215 446 309 76 52 161 112 189 133 27 21 54 38 58 38 5 0 25 13 45 29 20 16 51 38 68 48 17 10 160 105 317 211 158 105 289 192 292 192 2 0 28 18 57 40 29 22 56 40 60 40 4 0 31 18 60 40 29 22 58 40 64 40 6 0 19 9 29 20 10 11 22 20 26 20 7 0 234 146 383 246 16 10 36 24 45 29 8 6 82 54 163 108 81 53 151 97 156 97 5 0 17 9 27 20 10 11 22 20 26 20 7 0 326 206 404 261 17 11 52 35 79 52 79 51 147 98 242 164 49 35 130 91 179 126 234 164 449 335 630 503 285 263 511 587 624 894 8 19 19 49 26 65 21 46 41 114 76 248 6 23 15 52 20 65 5 13 9 33 9 44 0 12 4 35 9 52 9 29 14 53 41 199 18 102 29 173 41 287 7 69 18 122 26 132 15 16 97 71 303 201 58 37 119 76 135 87 67 46 336 220 340 220 3 0 28 18 57 40 29 22 56 40 60 40 4 0 31 18 60 40 29 22 56 40 60 40 4 0 31 18 60 40 29 22 56 40 60 40 4 0 31 18 60 40 29 22 57 40 61 40 5 0 25 13 45 29 20 16 51 38 68 48 26 15 288 192 360 243 176 124 382 268 485 339 35 25 66 47 69 51 3 3 34 26 70 50 36 25 85 61 109 80 45 36 80 61 192 139 35 25 66 47 69 51 3 3 34 27 70 53 36 27 72 53 80 60 8 7 44 34 80 60 111 83 120 90 244 186 67 52 150 117 186 145 73 56 412 329 561 451 127 104 256 214 399 339 63 56 128 112 144 126 16 14 106 95 200 180 860 781 1548 1534 2135 2338 134 183 418 613 501 758 10 17 37 62 59 99 23 37 41 69 41 71 0 3 10 21 23 42 13 20 45 78 72 127 26 50 56 102 66 117 11 14 19 29 19 32 0 3 44 94 98 203 81 165 150 315 237 518 18 42 103 259 127 325 11 30 24 64 28 75 5 11 14 38 21 60 6 22 15 49 20 60 4 11 13 38 20 60 6 22 15 49 19 60 14 36 22 60 31 93 5 17 13 47 18 65 37 124 51 178 61 232 6 28 14 73 20 100 13 64 36 220 51 355 16 135 16 742 1 915 -17 187 -31 323 -48 460 -8 66 -19 154 -24 195 -5 42 -16 96 -24 120 -9 25 -16 52 -16 61 0 9 -7 30 -15 47 -22 42 -13 67 52 148 30 38 86 110 123 159 38 50 96 126 130 170 88 113 198 257 245 319 22 30 87 116 145 191 58 75 121 158 140 185 33 45 55 75 180 240 27 36 69 92 93 125 24 33 75 103 113 155 39 52 94 129 123 170 95 137 170 245 201 288 16 23 30 45 30 48 0 3 18 32 40 64 22 32 40 61 40 64 0 3 14 34 30 68 41 85 40 127 -5 173 -32 31 -41 35 -88 35 -50 0 -56 -3 -132 -66z" fill="#542989" id="542989-000002" mask="url(#mask-0)"/>
    <path stroke="none" d="M58496 40065 c-38 -19 -76 -41 -86 -50 -9 -8 -21 -15 -26 -15 -5 -1 -26 -16 -48 -34 l-39 -33 29 -34 c47 -55 198 -198 210 -199 6 0 59 49 117 109 104 106 107 111 107 154 0 40 -4 48 -42 79 -87 69 -124 73 -222 23z" fill="#542989" id="542989-000003"/>
    <path stroke="none" d="M49014 31381 c-59 -36 -143 -165 -144 -221 -1 -26 257 -286 927 -936 l271 -263 45 15 c58 20 142 78 181 127 22 27 30 47 29 74 -1 40 44 -7 -498 523 -121 118 -317 310 -435 425 -118 116 -232 225 -253 243 -43 37 -78 40 -123 13z" fill="#542989" id="542989-000004"/>
    <path stroke="none" d="M48135 29968 c-36 -31 -125 -198 -125 -233 0 -17 142 -157 164 -163 6 -1 58 44 114 101 112 115 117 126 83 200 -20 43 -69 96 -108 116 -41 21 -90 13 -128 -21z" fill="#542989" id="542989-000005"/>
    <path stroke="none" d="M21755 32469 c-410 -18 -898 -58 -1225 -99 -41 -6 -131 -17 -200 -26 -195 -24 -252 -32 -321 -44 -35 -6 -91 -15 -124 -20 -33 -5 -88 -14 -122 -20 -35 -5 -89 -14 -120 -20 -54 -8 -108 -18 -223 -40 -25 -5 -72 -14 -105 -20 -56 -11 -78 -16 -187 -39 -24 -5 -65 -14 -93 -20 -27 -5 -70 -15 -95 -21 -25 -5 -65 -14 -90 -20 -25 -5 -65 -14 -90 -20 -25 -6 -63 -15 -85 -20 -22 -5 -58 -13 -80 -19 -73 -18 -120 -30 -160 -40 -22 -5 -76 -19 -120 -31 -44 -12 -96 -25 -115 -30 -19 -5 -51 -13 -70 -19 -19 -5 -53 -15 -75 -21 -44 -12 -93 -26 -142 -41 -18 -5 -48 -13 -65 -18 -18 -5 -53 -15 -78 -23 -25 -8 -65 -21 -90 -28 -25 -7 -54 -16 -65 -20 -11 -5 -36 -13 -55 -19 -67 -21 -525 -172 -545 -180 -11 -5 -36 -14 -55 -21 -19 -7 -44 -16 -55 -20 -11 -4 -46 -17 -77 -29 -32 -12 -84 -30 -115 -42 -32 -12 -69 -26 -83 -31 -14 -6 -34 -14 -45 -18 -116 -45 -367 -145 -390 -155 -16 -7 -46 -19 -65 -28 -19 -8 -52 -22 -72 -31 -21 -9 -54 -23 -73 -31 -427 -183 -1127 -529 -1475 -728 -19 -11 -64 -37 -100 -57 -67 -38 -73 -41 -225 -130 -49 -29 -106 -62 -125 -72 -19 -11 -54 -33 -77 -49 -23 -16 -44 -29 -47 -29 -4 0 -37 -20 -74 -44 -37 -23 -119 -76 -182 -116 -63 -40 -126 -80 -139 -89 -59 -40 -132 -89 -177 -118 -27 -17 -62 -41 -79 -52 -16 -12 -106 -75 -200 -141 -93 -65 -175 -123 -180 -127 -6 -4 -30 -23 -55 -41 -80 -58 -303 -226 -388 -292 -46 -36 -109 -85 -141 -110 -83 -64 -300 -244 -470 -389 -678 -579 -1428 -1348 -1968 -2017 -230 -285 -202 -249 -377 -478 -92 -120 -115 -151 -228 -309 -144 -202 -226 -322 -342 -497 -188 -283 -256 -389 -256 -398 0 -5 -9 -17 -20 -27 -11 -10 -20 -22 -20 -26 0 -4 -23 -45 -51 -91 -29 -46 -60 -96 -69 -113 -10 -16 -49 -84 -87 -150 -39 -66 -84 -144 -102 -173 -17 -29 -31 -55 -31 -57 0 -2 -14 -28 -31 -57 -18 -29 -53 -93 -79 -143 -26 -49 -58 -108 -70 -130 -87 -154 -480 -956 -480 -979 0 -2 -18 -43 -40 -90 -22 -47 -40 -88 -40 -91 0 -2 -13 -34 -30 -70 -17 -36 -30 -68 -30 -70 0 -3 -10 -27 -21 -53 -38 -85 -47 -105 -124 -302 -42 -107 -80 -204 -85 -215 -4 -11 -13 -36 -20 -55 -7 -19 -17 -46 -22 -60 -6 -14 -14 -34 -18 -45 -4 -11 -17 -44 -29 -74 -12 -29 -21 -60 -21 -67 0 -8 -4 -22 -9 -32 -21 -40 -34 -80 -112 -317 -45 -137 -85 -259 -89 -270 -4 -11 -13 -40 -20 -65 -7 -25 -20 -70 -30 -100 -10 -30 -23 -75 -30 -100 -7 -25 -16 -56 -20 -70 -4 -14 -13 -45 -20 -70 -7 -25 -16 -56 -20 -70 -8 -27 -28 -97 -41 -145 -4 -16 -13 -50 -20 -75 -31 -116 -46 -174 -59 -230 -5 -19 -13 -53 -19 -75 -5 -22 -15 -65 -22 -95 -6 -30 -15 -66 -19 -80 -4 -14 -13 -52 -20 -85 -14 -73 -28 -138 -40 -185 -5 -19 -14 -62 -20 -95 -6 -33 -15 -78 -20 -100 -5 -22 -14 -67 -20 -100 -6 -33 -15 -78 -20 -100 -4 -22 -13 -71 -20 -110 -6 -38 -16 -92 -21 -120 -23 -125 -73 -446 -88 -565 -69 -527 -95 -806 -127 -1340 -21 -342 -24 -1276 -6 -1610 33 -599 87 -1151 153 -1575 5 -33 13 -91 19 -130 5 -38 14 -97 20 -130 6 -33 15 -87 21 -120 5 -33 13 -82 18 -110 25 -139 32 -174 40 -215 5 -25 14 -72 21 -105 7 -33 16 -78 20 -100 4 -22 13 -65 19 -95 6 -30 15 -75 21 -100 6 -25 14 -65 20 -90 5 -25 14 -65 20 -90 6 -25 15 -63 20 -85 5 -22 13 -58 19 -80 6 -22 15 -60 21 -85 6 -25 15 -61 20 -80 5 -19 14 -54 20 -77 22 -93 29 -119 39 -153 5 -19 19 -71 31 -115 12 -44 26 -95 31 -112 5 -18 13 -48 18 -65 5 -18 24 -80 41 -138 17 -58 34 -114 37 -125 2 -11 8 -29 13 -40 4 -11 13 -40 21 -65 36 -127 212 -646 222 -657 4 -3 7 -15 7 -25 0 -10 4 -26 9 -36 5 -9 23 -53 39 -97 34 -91 109 -289 123 -322 5 -13 14 -34 19 -48 26 -64 97 -237 117 -285 9 -19 21 -48 28 -65 75 -176 110 -256 218 -490 86 -188 424 -854 506 -998 11 -20 30 -53 41 -72 11 -19 29 -51 40 -70 11 -19 29 -51 40 -70 11 -19 29 -51 40 -70 11 -19 29 -50 39 -69 11 -18 38 -64 61 -102 41 -66 71 -117 94 -159 6 -11 24 -40 40 -65 37 -58 77 -121 156 -245 106 -168 330 -500 405 -601 16 -23 50 -70 75 -105 77 -109 310 -418 420 -557 58 -73 116 -148 130 -165 56 -72 284 -342 424 -502 332 -380 807 -867 1196 -1226 301 -277 673 -593 990 -840 320 -249 643 -483 958 -694 90 -60 313 -205 317 -205 2 0 44 -27 94 -60 50 -33 93 -60 96 -60 4 0 32 -17 63 -38 31 -22 62 -41 67 -43 6 -2 62 -35 125 -73 63 -38 130 -77 147 -87 18 -11 49 -28 68 -39 87 -50 114 -65 180 -100 39 -21 88 -48 110 -60 227 -129 769 -400 1050 -525 33 -15 93 -42 133 -61 41 -19 75 -34 78 -34 2 0 29 -12 61 -26 32 -14 72 -32 88 -39 17 -7 46 -20 65 -28 19 -9 60 -25 90 -37 30 -12 71 -28 90 -37 19 -8 44 -18 55 -23 11 -4 31 -12 45 -18 14 -5 75 -29 135 -52 61 -23 120 -46 133 -51 12 -5 32 -13 45 -18 45 -19 113 -43 157 -57 25 -8 54 -19 65 -23 64 -28 129 -51 140 -51 7 0 34 -9 61 -19 96 -38 161 -60 264 -91 58 -17 114 -35 125 -40 27 -11 251 -79 363 -111 17 -5 47 -13 65 -18 17 -6 49 -15 70 -20 20 -6 53 -15 72 -21 94 -27 113 -32 145 -40 30 -7 104 -27 230 -61 36 -9 93 -23 165 -39 48 -11 125 -28 180 -42 22 -5 58 -13 80 -18 22 -5 60 -14 85 -19 25 -6 68 -15 95 -20 28 -5 82 -16 120 -24 141 -31 277 -57 395 -77 30 -5 82 -14 115 -19 264 -45 397 -65 525 -81 41 -5 109 -14 150 -20 328 -46 980 -100 1251 -103 111 -2 150 -5 163 -16 25 -21 1174 -21 1221 -1 20 9 110 16 270 21 302 9 822 54 1150 99 44 6 114 15 155 20 41 5 107 14 145 19 39 6 88 13 110 16 22 3 63 10 90 15 28 5 82 14 120 20 68 10 113 18 225 39 30 6 109 20 175 32 66 11 136 25 155 29 35 9 69 17 210 46 219 46 431 95 583 135 87 24 103 28 142 37 55 14 125 33 155 42 14 4 45 13 70 20 25 7 56 16 70 20 14 4 45 13 70 20 71 20 101 29 169 50 35 11 70 20 76 20 7 0 34 9 61 19 27 10 69 24 94 31 25 7 54 16 65 20 11 5 38 14 60 21 22 6 49 15 60 20 11 4 38 13 60 20 22 6 49 15 60 20 11 4 38 13 60 20 22 6 49 15 60 19 69 27 119 45 185 66 41 14 84 29 95 33 11 5 31 13 45 19 14 5 41 15 60 22 19 7 54 21 77 31 24 11 47 19 53 19 6 0 18 4 28 9 9 5 82 35 162 66 80 31 161 64 180 72 19 8 44 19 55 24 11 5 70 29 130 55 61 25 143 61 183 80 41 19 75 34 78 34 13 0 313 143 599 285 336 168 488 248 759 402 71 40 131 73 133 73 3 0 17 9 32 19 15 11 66 42 112 69 46 27 121 72 167 101 46 28 85 51 87 51 2 0 44 27 94 60 50 33 93 60 96 60 6 0 499 330 645 432 110 77 230 164 340 248 36 27 94 71 130 97 36 26 71 53 78 60 8 8 30 26 50 41 65 48 334 264 432 346 52 44 122 103 155 131 489 412 1140 1055 1622 1600 267 303 551 653 791 975 47 63 111 149 141 190 31 41 89 122 129 180 40 58 101 145 135 194 34 49 69 99 77 112 8 13 60 92 114 176 156 239 206 318 226 352 9 17 41 69 70 116 29 47 61 100 71 117 29 51 52 90 111 193 164 283 248 440 418 775 186 369 312 637 419 890 5 11 18 40 29 65 32 72 68 159 102 245 17 44 38 96 47 115 24 56 91 229 135 350 11 30 24 64 28 75 4 11 13 36 20 55 7 19 21 54 31 77 11 24 19 51 19 61 0 10 3 22 7 25 9 10 113 311 143 417 7 25 16 54 20 65 12 29 25 71 48 150 11 39 33 108 47 155 28 87 40 128 55 190 5 19 13 52 19 73 6 20 16 54 22 75 6 20 14 53 19 72 4 19 18 71 30 115 13 44 26 96 31 115 4 19 13 53 18 75 6 22 16 63 22 90 6 28 15 68 21 90 5 22 13 58 18 80 5 22 14 60 20 85 6 25 15 65 20 90 5 25 13 65 19 90 5 25 14 72 21 105 7 33 16 78 20 100 28 138 46 231 60 315 5 30 14 82 20 115 9 56 15 91 40 250 6 33 14 92 19 130 6 39 15 102 21 140 12 80 13 89 39 315 11 91 25 219 31 285 6 66 13 136 15 156 6 49 31 414 46 674 16 270 16 1238 1 1505 -32 545 -77 1056 -122 1360 -5 36 -14 101 -20 145 -6 44 -15 109 -21 145 -5 36 -15 94 -20 130 -6 36 -14 88 -19 115 -5 28 -14 82 -20 120 -11 65 -19 114 -40 225 -5 25 -14 72 -20 105 -12 61 -21 104 -38 185 -6 25 -16 72 -22 105 -7 33 -21 98 -31 145 -11 47 -25 105 -30 130 -6 25 -14 61 -19 80 -21 82 -42 168 -51 205 -5 22 -14 58 -20 80 -5 22 -14 56 -19 75 -10 40 -47 179 -61 228 -5 17 -13 47 -18 65 -16 52 -29 100 -36 127 -4 14 -15 52 -25 85 -10 33 -28 94 -40 135 -12 41 -26 84 -30 95 -4 11 -22 67 -40 125 -18 58 -39 123 -48 145 -8 22 -18 54 -22 70 -10 35 -77 231 -90 260 -5 11 -16 40 -24 65 -15 48 -41 118 -58 160 -6 14 -14 34 -18 45 -4 11 -17 44 -29 74 -12 29 -21 58 -21 62 0 5 -9 28 -19 52 -10 23 -31 74 -46 112 -27 72 -37 96 -74 177 -11 26 -21 54 -21 61 0 7 -4 17 -8 23 -5 5 -17 29 -26 54 -25 63 -54 131 -115 262 -17 37 -31 69 -31 71 0 3 -20 47 -43 99 -24 51 -57 122 -72 158 -16 36 -36 76 -45 90 -9 14 -23 41 -30 60 -13 33 -180 368 -216 435 -10 17 -22 39 -27 50 -6 11 -28 54 -50 95 -21 41 -54 102 -72 135 -72 132 -83 151 -104 188 -11 20 -30 53 -41 72 -11 19 -29 51 -40 70 -11 19 -30 52 -41 73 -12 20 -30 49 -40 64 -11 14 -19 29 -19 32 0 6 -112 190 -210 347 -40 63 -80 128 -90 144 -27 47 -394 591 -423 625 -6 9 -32 45 -56 80 -43 62 -339 460 -351 470 -3 3 -25 32 -50 65 -83 112 -303 377 -322 388 -10 7 -18 17 -18 23 0 11 -54 75 -244 294 -213 244 -432 476 -721 765 -465 465 -807 772 -1305 1172 -113 90 -212 169 -220 176 -47 38 -344 260 -395 295 -33 23 -85 60 -115 82 -115 84 -282 199 -371 257 -19 11 -54 35 -79 52 -25 17 -72 48 -105 70 -33 21 -102 66 -153 100 -51 33 -96 61 -98 61 -3 0 -32 18 -64 40 -32 22 -62 40 -65 40 -4 0 -26 14 -50 30 -24 17 -46 30 -50 30 -4 0 -26 14 -50 30 -24 17 -46 30 -50 30 -4 0 -26 14 -50 30 -24 17 -46 30 -49 30 -3 0 -40 21 -83 46 -43 25 -103 60 -133 76 -30 17 -75 42 -100 56 -25 14 -70 38 -100 55 -30 16 -80 43 -110 60 -90 49 -646 329 -765 384 -115 54 -207 96 -287 132 -95 42 -139 61 -181 80 -24 11 -68 30 -98 41 -29 12 -76 32 -104 44 -27 12 -66 28 -85 35 -19 8 -48 19 -65 26 -16 7 -84 34 -150 60 -66 26 -130 51 -142 56 -57 23 -72 28 -125 48 -32 12 -84 30 -115 42 -32 12 -67 25 -78 29 -11 5 -51 18 -90 31 -38 13 -74 26 -80 31 -5 4 -19 8 -31 8 -13 0 -26 5 -29 10 -3 6 -15 10 -26 10 -10 0 -27 4 -37 9 -9 5 -35 14 -57 20 -22 7 -49 16 -60 20 -11 5 -38 14 -60 20 -22 7 -49 16 -60 21 -11 4 -54 18 -95 30 -41 12 -84 25 -95 30 -11 4 -40 13 -65 20 -25 7 -65 20 -90 28 -47 15 -90 27 -150 42 -32 8 -56 15 -142 39 -18 5 -68 19 -110 30 -43 12 -113 30 -155 42 -106 28 -204 52 -278 69 -22 5 -58 13 -80 18 -22 6 -56 13 -75 17 -19 4 -46 10 -60 15 -14 4 -50 13 -80 19 -30 6 -89 18 -130 27 -155 32 -231 47 -320 63 -30 5 -80 15 -110 21 -30 6 -82 16 -115 21 -33 6 -85 15 -115 20 -30 5 -83 14 -117 19 -35 6 -93 15 -130 20 -38 6 -97 15 -133 20 -36 4 -117 15 -180 24 -107 15 -149 20 -370 46 -246 29 -724 64 -1085 80 -251 11 -1086 11 -1340 -1z" fill="#f47321" id="f47321-000001"/>
    <path stroke="none" d="M23015 29990 c104 -12 222 -37 280 -60 11 -5 47 -18 80 -31 33 -12 72 -31 87 -41 14 -10 29 -18 32 -18 32 0 306 -226 306 -252 0 -11 -33 -60 -77 -114 -18 -21 -55 -68 -83 -104 -28 -36 -56 -72 -63 -80 -7 -8 -45 -59 -86 -113 -40 -53 -75 -97 -77 -97 -2 0 -32 25 -66 56 -165 148 -265 202 -426 234 -153 29 -324 -23 -444 -137 -57 -55 -158 -190 -158 -213 0 -6 -4 -18 -9 -28 -14 -28 -29 -66 -36 -92 -3 -14 -11 -41 -16 -60 -50 -183 -49 -460 1 -642 5 -21 14 -54 19 -73 5 -19 25 -67 45 -108 112 -231 297 -357 521 -357 167 0 325 74 490 231 40 38 79 69 86 69 8 0 20 -10 27 -21 8 -12 59 -75 115 -141 203 -239 247 -293 247 -303 0 -15 -169 -174 -231 -218 -132 -93 -257 -158 -349 -182 -14 -3 -41 -11 -60 -16 -132 -36 -447 -53 -553 -30 -23 5 -69 15 -102 21 -190 38 -408 156 -555 301 -106 104 -171 195 -242 339 -69 140 -68 139 -96 235 -50 170 -59 227 -73 414 -12 164 -2 394 21 500 6 25 15 69 21 96 12 54 27 109 40 140 4 11 15 41 23 66 23 71 99 222 149 294 50 73 163 197 227 251 114 95 229 160 395 224 18 7 62 19 125 35 119 30 324 41 465 25z" fill="#ffffff" id="ffffff-000001"/>
    <path stroke="none" d="M19731 29273 c257 -384 431 -642 706 -1049 100 -148 300 -445 445 -660 145 -215 275 -407 291 -427 15 -19 27 -44 27 -55 0 -14 -9 -21 -27 -25 -16 -3 -47 -11 -70 -16 -24 -6 -60 -15 -80 -20 -21 -5 -56 -15 -78 -21 -22 -6 -56 -15 -75 -20 -87 -21 -167 -41 -195 -49 -89 -27 -148 -24 -159 7 -16 48 -313 492 -328 492 -17 -1 -82 -16 -133 -30 -22 -6 -57 -16 -77 -21 -21 -5 -55 -13 -75 -19 -21 -5 -56 -13 -78 -19 -22 -5 -58 -15 -80 -21 -22 -6 -56 -15 -75 -20 -48 -11 -158 -39 -200 -50 -19 -5 -59 -15 -87 -21 -31 -8 -55 -19 -58 -28 -8 -26 -23 -193 -36 -406 -8 -139 -16 -205 -26 -216 -7 -9 -39 -22 -71 -29 -31 -6 -68 -16 -82 -20 -14 -4 -45 -13 -70 -18 -59 -14 -87 -21 -130 -33 -19 -6 -51 -14 -70 -19 -19 -4 -60 -15 -90 -23 -30 -8 -71 -17 -90 -19 -33 -3 -35 -2 -33 27 10 113 94 1048 102 1125 6 52 15 151 21 220 6 69 15 170 20 225 14 142 67 712 95 1025 38 423 37 422 59 430 37 14 174 51 381 102 22 5 54 14 71 19 17 5 40 9 52 9 11 0 24 5 27 10 22 35 49 1 276 -337z" fill="#ffffff" id="ffffff-000002"/>
    <path stroke="none" d="M26022 29551 c13 -5 42 -14 66 -20 96 -25 128 -34 152 -41 14 -4 43 -12 65 -18 80 -21 131 -34 155 -42 14 -5 37 -11 52 -14 39 -9 44 -35 68 -386 11 -168 29 -422 40 -565 18 -235 54 -719 111 -1490 11 -154 26 -356 33 -450 8 -93 11 -174 9 -178 -3 -5 -15 -6 -27 -2 -11 4 -37 10 -56 15 -34 9 -84 22 -147 41 -74 21 -101 29 -173 48 -41 10 -102 27 -135 35 -100 27 -114 35 -120 70 -3 17 -9 112 -15 211 -5 99 -13 228 -16 287 l-7 107 -31 9 c-17 5 -49 14 -71 20 -79 21 -130 34 -155 42 -14 4 -43 13 -65 19 -57 15 -184 50 -225 61 -19 5 -69 19 -110 30 -41 12 -93 26 -115 32 -22 5 -50 14 -62 19 -29 11 -64 -17 -100 -79 -15 -26 -41 -66 -58 -88 -16 -23 -38 -54 -48 -70 -16 -28 -32 -52 -137 -208 l-45 -67 -45 4 c-25 3 -62 10 -82 16 -21 6 -54 16 -73 21 -19 6 -50 14 -67 19 -18 5 -69 19 -113 31 -44 12 -96 26 -115 31 -19 6 -52 14 -72 18 -20 5 -49 16 -64 25 -26 18 -26 18 -6 39 11 12 37 47 58 77 21 30 69 100 108 155 38 55 94 136 125 180 30 44 58 82 61 85 4 3 39 52 78 110 40 58 104 150 142 205 39 55 102 145 140 200 39 55 102 145 140 200 39 55 102 145 140 200 39 55 102 145 140 200 39 55 102 145 140 200 38 55 94 134 123 175 118 166 170 240 238 340 107 157 115 163 171 141z" fill="#ffffff" id="ffffff-000003"/>
    <path stroke="none" d="M28808 28531 c15 -10 59 -37 97 -61 39 -24 94 -58 122 -77 29 -18 55 -33 58 -33 4 0 33 -18 65 -40 32 -22 61 -40 63 -40 5 0 63 -35 217 -130 47 -29 100 -61 119 -72 322 -183 578 -495 659 -803 6 -22 17 -62 24 -90 21 -80 17 -452 -6 -535 -10 -36 -21 -81 -25 -100 -20 -87 -122 -316 -193 -432 -130 -212 -306 -403 -494 -534 -51 -36 -277 -144 -300 -144 -13 0 -25 -4 -28 -9 -3 -5 -20 -11 -38 -14 -18 -2 -71 -12 -118 -22 -67 -13 -118 -16 -240 -12 -85 3 -177 10 -205 16 -94 19 -110 23 -130 30 -11 5 -38 14 -60 20 -22 7 -49 16 -60 21 -58 25 -214 102 -240 117 -16 10 -57 35 -90 54 -33 20 -98 60 -145 89 -47 29 -98 60 -115 70 -80 46 -143 85 -182 111 -23 16 -44 29 -48 29 -4 0 -26 14 -50 30 -24 17 -46 30 -49 30 -15 0 -136 86 -136 97 0 6 23 49 52 95 28 46 78 128 111 183 33 55 73 119 88 142 16 23 29 44 29 46 0 7 76 133 111 184 16 23 29 45 29 48 0 4 8 19 19 33 10 15 28 43 39 62 11 19 69 116 129 215 60 99 156 257 212 350 57 94 112 182 122 197 11 14 19 28 19 31 0 7 76 132 111 184 16 23 29 45 29 48 0 4 8 19 19 33 10 15 28 43 39 62 11 19 70 118 132 220 62 102 126 208 142 235 29 48 57 85 65 85 2 0 16 -8 31 -19z" fill="#ffffff" id="ffffff-000004"/>
    <path stroke="none" d="M15447 27974 c5 -14 -5 -440 -28 -1189 l-10 -329 22 -16 c12 -9 38 -23 58 -30 40 -14 117 -47 143 -61 10 -5 22 -9 28 -9 6 0 32 -9 58 -21 26 -12 58 -26 72 -31 14 -6 33 -14 42 -19 10 -5 22 -9 28 -9 6 0 32 -9 58 -21 26 -12 57 -25 70 -30 12 -5 32 -13 45 -18 12 -5 38 -16 57 -24 19 -8 150 -61 290 -117 140 -56 268 -108 284 -116 16 -8 33 -14 38 -14 8 0 23 -7 140 -59 26 -11 52 -21 58 -21 9 0 53 -18 125 -51 11 -5 49 -20 85 -33 36 -12 66 -30 68 -38 2 -8 -20 -32 -50 -55 -29 -22 -145 -109 -258 -193 -113 -84 -221 -166 -240 -182 -19 -15 -42 -28 -50 -28 -16 0 -501 191 -532 210 -10 5 -22 10 -28 10 -6 0 -30 9 -55 20 -25 11 -65 29 -90 40 -25 11 -49 20 -55 20 -6 0 -30 9 -55 20 -25 11 -65 29 -90 40 -25 11 -51 20 -58 20 -7 0 -17 4 -22 9 -6 4 -41 20 -80 35 -38 15 -85 35 -103 43 -19 9 -37 12 -42 7 -5 -5 -10 -83 -12 -174 l-3 -165 228 -305 c126 -168 238 -316 248 -330 11 -14 18 -31 17 -39 -3 -14 -186 -157 -407 -318 -70 -51 -109 -73 -117 -67 -10 7 -222 290 -622 829 -37 49 -72 97 -79 105 -7 8 -34 44 -60 80 -26 36 -53 72 -60 80 -7 8 -33 44 -60 80 -26 36 -50 67 -53 70 -4 3 -20 25 -37 50 -34 50 -519 700 -668 895 -86 113 -83 105 -55 127 115 91 494 368 503 368 7 0 34 -30 62 -68 27 -37 55 -74 62 -82 6 -8 33 -44 60 -80 26 -36 52 -70 58 -77 5 -6 100 -133 210 -282 110 -148 205 -270 211 -271 15 0 24 343 24 916 l0 462 63 47 c65 48 150 112 252 190 33 25 85 63 115 85 30 22 81 60 113 85 64 49 75 53 84 29z" fill="#ffffff" id="ffffff-000005"/>
    <path stroke="none" d="M32501 25744 c354 -367 644 -669 644 -673 0 -11 -418 -411 -430 -411 -12 0 -43 31 -525 530 -173 179 -320 326 -328 328 -17 5 -357 -328 -357 -349 0 -9 160 -182 355 -384 195 -202 359 -374 364 -383 6 -11 -42 -63 -199 -216 -115 -110 -213 -202 -220 -204 -7 -2 -178 168 -380 378 -203 209 -370 380 -371 380 -9 0 -112 -95 -236 -217 -120 -119 -146 -149 -138 -163 5 -9 165 -179 356 -376 191 -197 379 -392 417 -432 l70 -73 -49 -50 c-27 -28 -125 -123 -217 -212 l-168 -160 -97 99 c-251 256 -1208 1248 -1214 1259 -8 14 -7 14 1447 1419 160 155 358 347 441 428 93 92 159 148 171 148 14 0 231 -218 664 -666z" fill="#ffffff" id="ffffff-000006"/>
    <path stroke="none" d="M12855 25266 c206 -43 316 -97 503 -249 113 -92 211 -218 272 -352 62 -135 74 -205 68 -394 l-5 -150 46 -10 c50 -10 114 -20 326 -51 77 -12 165 -25 195 -30 54 -9 122 -19 263 -40 39 -6 94 -15 120 -20 27 -6 62 -10 79 -10 53 0 158 -23 158 -34 0 -6 -13 -27 -28 -46 -16 -19 -52 -66 -82 -104 -29 -38 -61 -79 -71 -90 -29 -35 -80 -98 -179 -226 -89 -114 -97 -121 -125 -116 -78 12 -166 26 -222 36 -74 12 -151 24 -248 40 -38 6 -95 15 -125 20 -30 5 -89 14 -130 21 -41 6 -97 15 -125 20 -27 5 -77 12 -110 15 l-60 6 -45 -58 c-98 -125 -120 -157 -120 -169 0 -7 55 -56 123 -110 67 -53 133 -105 147 -116 14 -11 60 -48 104 -82 43 -34 121 -97 173 -139 52 -43 103 -83 113 -88 44 -24 42 -44 -8 -108 -26 -32 -60 -77 -77 -98 -16 -21 -41 -52 -55 -69 -14 -16 -38 -46 -53 -67 -15 -20 -33 -42 -40 -50 -7 -7 -39 -46 -71 -85 -32 -40 -61 -73 -65 -73 -7 0 -53 30 -61 40 -6 7 -153 125 -200 160 -37 28 -92 72 -100 80 -7 8 -62 51 -100 80 -33 25 -327 257 -365 289 -11 9 -40 32 -65 51 -25 19 -47 37 -50 40 -3 3 -25 21 -50 40 -25 19 -52 40 -60 47 -61 50 -343 273 -370 293 -38 28 -92 72 -100 80 -7 8 -62 51 -100 80 -18 14 -103 81 -189 149 -86 68 -174 137 -196 155 -21 17 -53 42 -70 56 -16 14 -46 37 -65 51 -19 15 -53 42 -75 62 l-39 35 39 47 c22 27 58 71 79 99 22 28 86 109 143 181 57 71 123 154 146 183 23 30 47 59 52 65 6 7 17 21 25 33 8 11 31 41 51 65 20 24 74 91 120 149 137 174 275 297 420 374 171 91 371 125 534 92z" fill="#ffffff" id="ffffff-000007"/>
    <path stroke="none" d="M34100 23825 c84 -160 142 -266 199 -369 35 -62 61 -122 61 -138 0 -18 -22 -61 -57 -116 -32 -48 -60 -91 -62 -97 -2 -5 -29 -48 -60 -95 -31 -47 -60 -93 -66 -101 -5 -9 -22 -34 -36 -55 -26 -38 -174 -269 -194 -302 -5 -9 -45 -70 -87 -135 -43 -66 -78 -126 -78 -133 0 -12 104 -14 612 -16 l613 -3 65 -120 c36 -66 81 -147 99 -180 36 -65 103 -189 131 -245 20 -38 13 -67 -18 -76 -17 -6 -23 -8 -96 -49 -76 -42 -151 -82 -216 -117 -173 -93 -208 -112 -245 -133 -22 -12 -71 -39 -110 -60 -119 -64 -184 -99 -355 -192 -91 -50 -205 -112 -255 -138 -49 -26 -116 -63 -148 -81 -32 -19 -60 -34 -61 -34 -2 0 -39 -20 -82 -43 -82 -46 -153 -84 -289 -157 -44 -24 -93 -51 -110 -60 -16 -9 -70 -38 -120 -65 -49 -26 -108 -58 -130 -70 -22 -12 -76 -41 -120 -65 -44 -24 -92 -52 -107 -62 -29 -20 -53 -16 -62 10 -3 9 -16 36 -30 59 -57 95 -247 449 -252 468 -4 16 5 25 43 45 26 14 109 58 183 99 74 40 173 94 220 119 47 25 98 53 115 62 16 9 71 38 120 65 50 26 104 56 120 65 17 10 56 32 88 49 31 17 81 44 110 60 28 15 102 54 162 86 61 32 137 75 170 95 34 20 69 39 78 43 63 24 -38 30 -785 43 -196 4 -362 10 -369 15 -35 21 -1 92 167 351 24 37 44 70 44 73 0 3 20 36 44 73 44 67 172 274 212 341 12 20 42 70 67 111 26 42 42 79 37 84 -4 4 -28 -6 -53 -23 -25 -17 -48 -31 -52 -31 -4 0 -54 -26 -113 -59 -59 -32 -138 -75 -177 -96 -38 -21 -92 -50 -120 -65 -60 -33 -151 -82 -260 -140 -44 -24 -84 -46 -90 -50 -5 -4 -54 -30 -109 -59 -54 -29 -113 -61 -131 -71 -18 -10 -77 -42 -131 -71 -55 -29 -111 -61 -126 -71 -16 -11 -40 -18 -55 -16 -30 3 -37 14 -162 253 -32 61 -70 130 -84 155 -51 88 -70 129 -64 143 3 8 34 28 69 45 34 18 92 48 128 68 36 20 108 59 160 87 52 27 100 53 105 57 6 4 46 26 90 50 107 57 199 107 263 141 28 16 76 42 105 58 28 15 84 45 122 66 39 21 93 50 120 65 28 15 82 44 120 65 39 21 93 50 120 65 84 46 162 89 218 119 28 15 84 45 122 66 39 21 93 50 120 65 28 15 82 44 120 65 39 21 93 50 120 65 28 15 115 62 195 105 80 44 159 87 175 96 17 10 36 17 44 16 8 -1 31 -33 51 -72z" fill="#ffffff" id="ffffff-000008"/>
    <path stroke="none" d="M10330 21900 c80 -5 219 -14 310 -19 150 -9 929 -56 1325 -81 88 -5 313 -19 500 -30 187 -11 410 -25 495 -30 85 -6 167 -10 183 -10 41 0 39 -9 -44 -197 -11 -24 -19 -45 -19 -48 0 -5 -14 -37 -60 -140 -31 -70 -48 -109 -66 -155 -10 -25 -24 -56 -33 -69 -17 -27 0 -26 -346 -1 -77 5 -176 11 -220 13 l-80 2 -20 -40 c-11 -22 -28 -61 -38 -85 -25 -59 -39 -93 -71 -163 -14 -32 -26 -60 -26 -62 0 -3 -10 -27 -21 -53 -12 -26 -27 -60 -34 -77 -7 -16 -22 -51 -33 -76 -12 -25 -31 -70 -42 -100 -12 -29 -32 -77 -46 -107 -29 -64 -30 -62 79 -157 45 -38 143 -126 219 -194 158 -141 157 -139 108 -246 -16 -36 -30 -68 -30 -70 0 -3 -10 -27 -21 -53 -12 -26 -27 -60 -34 -77 -7 -16 -25 -56 -39 -88 -14 -32 -26 -62 -26 -67 0 -6 -5 -18 -10 -28 -6 -9 -19 -38 -30 -64 -10 -27 -25 -48 -32 -48 -16 1 93 -99 -1172 1069 -663 613 -1076 1001 -1076 1012 0 15 51 141 90 224 5 11 37 85 70 165 34 79 67 148 73 152 16 10 42 10 217 -2z" fill="#ffffff" id="ffffff-000009"/>
    <path stroke="none" d="M35727 20418 c6 -7 13 -31 17 -53 3 -22 10 -60 15 -85 6 -25 13 -58 16 -75 3 -16 10 -46 15 -65 10 -41 24 -101 41 -185 6 -33 20 -93 30 -132 11 -40 19 -83 19 -96 0 -18 -35 -52 -161 -152 -88 -70 -166 -133 -172 -139 -7 -6 -82 -67 -167 -136 -85 -68 -173 -139 -195 -157 -22 -18 -74 -61 -115 -94 -41 -34 -75 -66 -75 -72 0 -9 48 -26 138 -48 95 -23 121 -30 225 -58 23 -6 60 -15 82 -21 122 -31 125 -31 228 -59 23 -6 60 -15 82 -21 22 -5 58 -14 80 -20 90 -22 126 -33 148 -41 13 -5 33 -9 45 -9 12 -1 38 -9 57 -18 27 -13 36 -25 41 -52 4 -19 12 -57 19 -85 6 -27 15 -68 19 -90 10 -45 29 -132 41 -185 26 -115 49 -224 57 -269 l6 -34 -39 7 c-39 7 -57 12 -149 42 -27 9 -84 25 -125 36 -95 25 -126 33 -170 48 -19 6 -69 20 -110 31 -99 27 -128 35 -170 49 -19 6 -69 20 -110 31 -123 33 -133 36 -180 51 -25 8 -65 21 -90 28 -25 7 -56 16 -70 20 -14 4 -45 13 -70 20 -25 7 -56 16 -70 20 -35 10 -88 25 -140 40 -25 7 -56 16 -70 20 -14 4 -45 13 -70 20 -25 7 -56 16 -70 20 -14 4 -45 13 -70 20 -25 7 -55 16 -68 21 -29 12 -91 12 -128 0 -16 -5 -56 -14 -89 -21 -70 -14 -136 -28 -185 -40 -19 -4 -59 -13 -87 -19 -29 -6 -77 -16 -105 -22 -29 -6 -69 -15 -88 -19 -19 -5 -55 -13 -80 -18 -25 -6 -90 -20 -145 -32 -55 -12 -113 -25 -130 -30 -64 -19 -121 -22 -132 -8 -10 11 -24 70 -54 213 -4 22 -13 60 -19 85 -5 25 -15 66 -20 93 -6 26 -15 71 -21 100 -7 28 -12 72 -13 96 l-1 45 70 14 c39 7 86 17 105 22 48 12 160 37 270 59 30 7 71 16 90 21 19 4 59 13 88 19 28 6 76 16 105 22 28 6 68 15 87 19 50 12 116 27 180 41 89 18 110 31 266 165 188 162 245 212 454 390 14 12 77 66 140 120 63 54 126 108 140 120 14 12 77 66 140 120 63 54 126 108 140 120 14 12 88 76 165 143 76 66 142 121 146 121 4 0 11 -6 16 -12z" fill="#ffffff" id="ffffff-000010"/>
    <path stroke="none" d="M10286 19410 c173 -39 206 -50 311 -102 91 -44 153 -87 226 -157 49 -46 137 -153 137 -166 0 -4 8 -19 18 -33 22 -33 76 -162 90 -217 6 -22 17 -62 24 -90 9 -34 13 -117 13 -255 0 -170 -4 -227 -24 -332 -30 -167 -29 -171 34 -179 45 -5 123 -18 308 -49 31 -6 84 -14 117 -20 33 -5 86 -14 118 -20 31 -5 89 -14 127 -21 39 -6 77 -14 85 -19 17 -9 17 -43 1 -140 -31 -176 -43 -250 -51 -305 -23 -156 -30 -189 -39 -198 -7 -7 -27 -7 -63 1 -29 7 -111 21 -183 32 -71 11 -156 25 -187 30 -57 10 -123 21 -235 40 -32 5 -74 12 -93 15 -19 4 -62 10 -95 15 -33 5 -88 14 -122 20 -35 5 -91 15 -125 20 -35 6 -90 15 -123 21 -33 5 -87 14 -120 19 -57 9 -115 18 -247 40 -127 21 -177 30 -273 44 -55 8 -125 20 -155 25 -66 13 -201 35 -370 62 -69 11 -150 24 -180 29 -30 5 -84 14 -120 20 -80 13 -140 26 -147 34 -4 3 -1 23 5 43 6 21 16 72 22 113 13 90 28 187 40 255 5 28 14 82 20 120 6 39 15 93 20 120 5 28 14 84 20 125 64 428 151 641 337 821 151 147 309 223 528 253 53 8 300 -2 351 -14z" fill="#ffffff" id="ffffff-000011"/>
    <path stroke="none" d="M37759 18839 c77 -42 121 -132 121 -247 0 -133 -63 -199 -205 -217 -94 -12 -184 35 -226 117 -10 20 -30 53 -43 73 -50 74 -46 168 12 235 53 62 79 71 197 66 81 -3 109 -8 144 -27z" fill="#542989" id="542989-000011"/>
    <path stroke="none" d="M36341 17286 c54 -23 88 -54 117 -109 24 -47 27 -62 27 -157 0 -97 -2 -108 -27 -147 -35 -54 -95 -87 -185 -102 -139 -24 -239 24 -291 139 -31 68 -35 183 -8 243 33 75 106 137 176 151 41 8 155 -3 191 -18z" fill="#542989" id="542989-000012"/>
    <path stroke="none" d="M11190 16350 c19 -6 51 -15 70 -21 34 -10 66 -23 133 -54 57 -27 170 -120 227 -187 59 -70 128 -180 149 -238 7 -19 17 -44 21 -55 4 -11 13 -40 20 -65 7 -25 16 -56 21 -70 40 -120 39 -498 -1 -652 -43 -164 -63 -223 -116 -333 -58 -121 -180 -309 -213 -330 -9 -5 -129 73 -400 259 -129 89 -130 90 -104 118 24 27 123 174 123 184 0 3 8 18 18 32 10 15 29 54 42 87 13 33 26 65 30 70 4 6 12 37 20 70 7 33 16 76 21 95 21 84 2 246 -39 326 -36 71 -126 134 -191 134 -53 0 -119 -31 -157 -72 -33 -37 -104 -171 -104 -197 0 -6 -4 -19 -10 -29 -10 -18 -30 -79 -80 -242 -17 -58 -35 -114 -40 -125 -4 -11 -23 -58 -41 -105 -69 -179 -138 -291 -248 -400 -60 -59 -96 -85 -171 -122 -123 -61 -196 -79 -353 -85 -167 -7 -286 16 -422 85 -244 122 -386 330 -467 682 -16 71 -16 385 0 465 32 154 57 233 113 354 42 90 165 281 181 281 10 0 113 -61 228 -135 147 -95 183 -117 214 -135 89 -49 93 -61 49 -119 -38 -49 -57 -81 -107 -186 -61 -128 -86 -222 -86 -323 0 -165 65 -284 171 -312 68 -19 148 7 195 63 29 35 99 176 134 272 12 33 25 69 30 80 4 11 13 38 19 60 7 22 16 49 21 60 4 11 15 43 23 70 113 367 299 619 517 700 25 9 54 20 65 25 18 7 87 22 155 34 46 8 304 -2 340 -14z" fill="#ffffff" id="ffffff-000012"/>
    <path stroke="none" d="M34939 15955 c138 -70 178 -217 105 -382 -15 -34 -58 -74 -108 -101 -43 -23 -229 -23 -278 1 -62 29 -103 88 -124 177 -16 69 -8 123 29 199 23 46 91 111 117 111 9 0 20 4 26 9 27 28 168 19 233 -14z" fill="#542989" id="542989-000013"/>
    <path stroke="none" d="M33396 14646 c55 -28 110 -98 129 -162 15 -51 15 -67 5 -114 -7 -30 -28 -78 -46 -106 -33 -50 -99 -104 -127 -104 -7 0 -18 -5 -24 -11 -18 -18 -143 -12 -202 10 -104 39 -155 116 -154 234 1 73 12 105 65 179 24 34 95 84 128 91 49 11 194 -1 226 -17z" fill="#542989" id="542989-000014"/>
    <path stroke="none" d="M31870 13205 c52 -27 112 -87 131 -133 53 -124 -10 -283 -138 -347 -110 -56 -233 -36 -315 52 -58 62 -73 102 -73 193 0 74 3 90 24 120 78 113 138 143 273 135 36 -2 81 -11 98 -20z" fill="#542989" id="542989-000015"/>
    <path stroke="none" d="M30332 11868 c87 -49 110 -99 110 -234 0 -91 -4 -108 -32 -170 -39 -86 -61 -111 -128 -140 -83 -38 -180 -28 -268 27 -61 37 -114 128 -114 192 0 44 28 135 63 206 24 48 98 110 133 111 11 0 24 4 30 9 23 23 164 22 206 -1z" fill="#542989" id="542989-000016"/>
    <path stroke="none" d="M28560 10467 c77 -27 121 -64 158 -133 46 -87 51 -134 26 -222 -29 -100 -145 -192 -242 -192 -46 0 -162 28 -190 45 -34 22 -79 71 -100 110 -25 47 -21 168 6 226 64 131 223 208 342 166z" fill="#542989" id="542989-000018"/>
    <path stroke="none" d="M26851 9128 c69 -23 169 -101 197 -153 25 -47 22 -150 -6 -210 -45 -95 -103 -141 -220 -171 -130 -34 -260 2 -318 88 -27 40 -29 49 -29 143 0 91 2 104 27 146 30 52 102 116 163 147 46 23 134 28 186 10z" fill="#542989" id="542989-000020"/>
    <path stroke="none" d="M25110 7859 c139 -67 196 -175 158 -300 -16 -52 -76 -121 -136 -157 -42 -24 -57 -27 -135 -26 -53 0 -92 5 -99 12 -7 7 -21 12 -33 12 -36 0 -112 56 -139 103 -58 98 -17 254 86 325 96 66 203 77 298 31z" fill="#542989" id="542989-000022"/>
    <path stroke="none" d="M23341 6694 c33 -20 79 -72 79 -88 0 -3 8 -25 18 -49 66 -150 53 -229 -56 -340 -59 -60 -133 -97 -192 -97 -97 0 -223 119 -256 241 -15 58 -7 132 21 195 28 61 139 144 220 165 46 12 125 -1 166 -27z" fill="#542989" id="542989-000023"/>
    <path stroke="none" d="M21329 5548 c53 -18 98 -54 114 -91 32 -74 37 -90 43 -151 11 -111 0 -151 -59 -211 -61 -60 -110 -77 -220 -79 -111 -2 -179 42 -212 133 -28 79 -21 136 28 239 64 133 190 199 306 160z" fill="#542989" id="542989-000025"/>
    <path stroke="none" d="M19498 4498 c113 -51 157 -118 169 -253 8 -98 -11 -150 -75 -203 -74 -62 -122 -82 -195 -82 -56 0 -71 4 -113 33 -60 39 -99 102 -115 184 -10 48 -10 70 -1 100 6 21 19 62 29 92 19 61 62 116 107 136 49 21 139 18 194 -7z" fill="#542989" id="542989-000026"/>
    <path stroke="none" d="M17546 3590 c129 -58 158 -103 159 -240 0 -86 -3 -100 -27 -142 -15 -25 -45 -57 -65 -70 -34 -20 -50 -23 -148 -23 -102 0 -113 2 -157 28 -89 52 -128 128 -128 248 0 116 48 204 126 229 55 18 165 4 240 -30z" fill="#542989" id="542989-000028"/>
    <path stroke="none" d="M15495 2789 c75 -20 102 -38 152 -106 76 -104 90 -181 53 -283 -23 -64 -64 -117 -111 -145 -49 -29 -186 -27 -249 3 -106 51 -144 109 -170 258 -11 63 -11 77 5 118 19 50 95 131 142 152 35 16 125 17 178 3z" fill="#542989" id="542989-000029"/>
    <path stroke="none" d="M19426 28588 c-2 -7 -9 -89 -15 -183 -24 -359 -33 -481 -41 -507 -5 -17 -4 -32 4 -43 12 -17 9 -18 166 27 19 5 52 14 73 19 20 5 55 14 77 19 22 6 57 14 78 19 57 13 72 22 72 41 0 10 -4 20 -8 22 -5 2 -29 35 -54 73 -25 39 -93 143 -152 233 -58 89 -106 164 -106 167 0 6 -62 98 -77 113 -11 11 -14 11 -17 0z" fill="#f47321" id="f47321-000002"/>
    <path stroke="none" d="M25962 28523 c-4 -10 -30 -51 -57 -91 -28 -40 -66 -97 -85 -126 -19 -29 -84 -126 -144 -215 -77 -113 -106 -165 -99 -172 6 -6 26 -14 44 -19 41 -10 182 -48 224 -60 137 -38 181 -48 187 -42 4 4 3 77 -2 162 -5 85 -14 244 -20 354 -7 109 -14 205 -17 212 -7 19 -22 17 -31 -3z" fill="#f47321" id="f47321-000003"/>
    <path stroke="none" d="M28938 27558 c-40 -66 -80 -133 -88 -147 -41 -69 -92 -154 -140 -231 -29 -47 -62 -101 -73 -120 -25 -44 -37 -64 -112 -186 -33 -53 -70 -114 -82 -135 -12 -20 -41 -68 -64 -106 -246 -397 -234 -369 -159 -411 19 -11 73 -43 120 -72 182 -112 300 -147 460 -136 217 15 415 150 579 395 143 212 203 382 204 576 1 122 -5 152 -59 280 -20 48 -100 149 -155 197 -60 52 -326 218 -349 218 -5 0 -42 -55 -82 -122z" fill="#f47321" id="f47321-000004"/>
    <path stroke="none" d="M12610 24593 c-53 -19 -121 -60 -160 -96 -47 -43 -278 -325 -298 -364 -11 -20 -5 -26 66 -83 42 -33 88 -70 102 -81 14 -11 60 -48 104 -82 43 -34 121 -97 173 -139 52 -43 103 -83 113 -88 21 -11 34 -2 80 60 14 18 61 79 106 134 113 143 139 183 163 256 42 127 18 238 -71 336 -95 104 -196 155 -303 153 -33 0 -67 -3 -75 -6z" fill="#f47321" id="f47321-000005"/>
    <path stroke="none" d="M10899 21233 c5 -10 42 -47 82 -83 40 -36 121 -108 179 -160 276 -248 288 -257 294 -248 5 7 157 368 167 397 7 19 8 36 3 41 -9 9 -107 18 -499 50 -71 6 -154 13 -183 15 -48 5 -52 4 -43 -12z" fill="#f47321" id="f47321-000006"/>
    <path stroke="none" d="M9960 18748 c-14 -6 -41 -17 -60 -25 -116 -47 -189 -188 -224 -428 -2 -16 -9 -59 -15 -94 -7 -35 -8 -68 -4 -72 10 -9 73 -24 168 -39 39 -6 96 -15 128 -20 333 -56 423 -70 466 -73 34 -2 35 -1 47 53 29 127 39 211 39 316 0 106 -2 114 -33 177 -72 143 -212 217 -407 216 -44 0 -91 -5 -105 -11z" fill="#f47321" id="f47321-000007"/>
    <path stroke="none" d="M45195 26897 c-53 -25 -158 -129 -185 -182 -8 -17 -22 -41 -30 -55 -22 -33 -60 -158 -60 -194 0 -82 52 -163 128 -198 222 -101 592 -33 726 135 26 33 30 45 30 105 1 83 -27 136 -119 225 -65 63 -114 95 -225 150 -88 43 -190 48 -265 14z" fill="#542989" id="542989-000006"/>
    <path stroke="none" d="M43370 24971 c-8 -5 -28 -15 -43 -22 -55 -26 -72 -64 -72 -164 0 -82 3 -96 34 -160 59 -121 164 -205 256 -205 76 0 176 87 228 200 25 53 30 79 31 142 1 71 -1 79 -30 114 -36 45 -83 71 -161 89 -63 16 -219 19 -243 6z" fill="#542989" id="542989-000007"/>
    <path stroke="none" d="M41905 23406 c-5 -2 -22 -7 -37 -10 -38 -9 -96 -62 -113 -104 -31 -73 -10 -205 44 -281 53 -75 130 -110 199 -92 53 15 77 34 120 99 94 139 92 285 -3 358 -30 22 -47 27 -117 30 -46 2 -87 2 -93 0z" fill="#542989" id="542989-000008"/>
    <path stroke="none" d="M40521 22003 c-14 -3 -53 -33 -87 -67 -66 -67 -76 -88 -96 -212 -10 -61 -9 -79 6 -125 44 -134 169 -188 278 -118 48 31 141 144 166 202 20 47 15 140 -12 199 -48 107 -128 145 -255 121z" fill="#542989" id="542989-000009"/>
    <path stroke="none" d="M39095 20460 c-79 -20 -125 -59 -143 -120 -52 -178 -42 -245 51 -332 59 -54 93 -70 152 -72 131 -3 225 114 225 279 0 135 -50 208 -162 238 -72 18 -78 19 -123 7z" fill="#542989" id="542989-000010"/>
    <path stroke="none" d="M5738 11120 c-69 -13 -151 -79 -182 -145 -32 -69 -38 -98 -39 -177 -1 -167 71 -286 196 -322 70 -20 115 -20 184 0 93 27 161 102 188 209 20 74 19 100 -4 163 -70 190 -207 299 -343 272z" fill="#542989" id="542989-000017"/>
    <path stroke="none" d="M4005 9731 c-66 -30 -99 -65 -143 -153 -36 -71 -43 -97 -49 -166 -7 -100 10 -154 67 -206 52 -47 104 -60 213 -52 177 12 286 102 287 235 0 53 -21 163 -37 195 -26 50 -96 118 -148 142 -61 29 -134 31 -190 5z" fill="#542989" id="542989-000019"/>
    <path stroke="none" d="M2407 8196 c-58 -22 -102 -61 -127 -113 -31 -66 -35 -249 -6 -303 28 -54 65 -88 126 -118 50 -25 65 -27 172 -27 l117 0 36 35 c56 54 75 98 75 177 0 57 -5 78 -32 132 -37 71 -107 154 -165 194 -48 33 -139 44 -196 23z" fill="#542989" id="542989-000021"/>
    <path stroke="none" d="M1145 6489 c-82 -11 -127 -41 -162 -110 -30 -59 -31 -151 -2 -217 65 -146 82 -166 186 -214 124 -56 213 -30 290 87 48 74 63 217 30 288 -23 47 -133 145 -177 156 -65 17 -95 19 -165 10z" fill="#542989" id="542989-000024"/>
    <path stroke="none" d="M290 4413 c-131 -30 -190 -74 -217 -165 -33 -110 -1 -191 112 -286 96 -80 201 -97 295 -48 85 44 111 66 131 110 32 70 22 181 -27 292 -16 36 -74 91 -111 105 -34 13 -107 10 -183 -8z" fill="#542989" id="542989-000027"/>
    <path stroke="none" d="M640 2452 c-125 -61 -175 -221 -111 -356 40 -83 84 -129 157 -166 105 -51 197 -37 276 43 70 71 98 219 59 309 -31 69 -92 141 -141 166 -57 28 -186 31 -240 4z" fill="#542989" id="542989-000030"/>
    <path stroke="none" d="M13267 2082 c-103 -36 -139 -66 -160 -132 -9 -29 -17 -63 -17 -75 0 -22 21 -99 42 -158 15 -39 98 -110 146 -124 64 -20 86 -18 215 19 129 38 216 234 158 360 -36 80 -119 128 -231 134 -63 4 -87 0 -153 -24z" fill="#542989" id="542989-000031"/>
    <path stroke="none" d="M11107 1565 c-60 -16 -88 -35 -123 -81 -37 -48 -39 -138 -4 -199 34 -60 75 -117 101 -142 57 -53 173 -80 272 -63 151 24 245 167 193 291 -23 55 -95 138 -139 160 -91 47 -205 60 -300 34z" fill="#542989" id="542989-000032"/>
    <path stroke="none" d="M2535 1420 c-86 -22 -117 -52 -164 -159 -39 -89 -47 -193 -19 -251 33 -68 94 -114 215 -160 50 -19 148 -8 218 24 88 41 110 60 140 121 25 52 26 61 20 142 -8 96 -21 135 -60 181 -70 83 -236 132 -350 102z" fill="#542989" id="542989-000033"/>
    <path stroke="none" d="M9021 1199 c-41 -25 -48 -31 -94 -92 -59 -77 -72 -113 -72 -197 0 -68 3 -81 37 -140 43 -76 78 -112 132 -134 46 -19 79 -20 126 -3 113 41 193 113 221 198 24 72 24 173 0 224 -23 53 -94 121 -149 146 -61 26 -156 26 -201 -2z" fill="#542989" id="542989-000034"/>
    <path stroke="none" d="M4575 1059 c-51 -25 -102 -74 -123 -119 -20 -43 -22 -171 -2 -195 7 -9 30 -48 49 -87 27 -53 47 -79 81 -103 54 -37 137 -65 194 -65 92 0 179 77 211 187 22 76 16 144 -20 216 -24 51 -77 107 -99 107 -4 0 -28 12 -54 28 -97 56 -168 66 -237 31z" fill="#542989" id="542989-000035"/>
    <path stroke="none" d="M6862 1019 c-45 -23 -102 -83 -102 -109 0 -9 -6 -22 -12 -29 -17 -16 -17 -216 0 -233 7 -7 12 -20 12 -30 0 -23 54 -83 91 -102 52 -26 112 -29 196 -11 43 9 88 19 101 21 35 7 111 82 135 134 26 52 31 190 10 212 -7 6 -13 20 -13 30 0 10 -19 37 -42 62 -54 55 -121 76 -245 76 -69 0 -97 -4 -131 -21z" fill="#542989" id="542989-000036"/>
  </g>
</svg>
