<svg xmlns="http://www.w3.org/2000/svg" version="1.0" width="6076.000000pt" height="1824.000000pt" viewBox="0 0 6076.000000 1824.000000" preserveAspectRatio="xMidYMid meet">
  <g transform="translate(0.000000,1824.000000) scale(0.100000,-0.100000)" stroke="none">
    <mask id="mask-3">
      <g>
        <path d="M 0 0 H 60760.0 V 18240.0 H 0 Z" fill="white" id="background"/>
        <path d="M53079 5298 c20 -56 89 -239 111 -293 4 -11 18 -47 30 -80 12 -33 26 -68 31 -77 5 -10 9 -22 9 -28 0 -6 8 -29 19 -53 10 -23 24 -58 31 -77 7 -19 16 -44 20 -55 4 -11 22 -58 40 -105 18 -47 36 -94 40 -105 4 -11 18 -47 30 -80 12 -33 26 -69 30 -80 4 -11 22 -58 40 -105 39 -103 44 -118 58 -150 5 -14 20 -52 32 -85 12 -33 26 -69 30 -80 4 -11 27 -69 50 -130 23 -60 46 -119 50 -130 4 -11 13 -36 20 -55 7 -19 17 -46 22 -60 15 -35 23 -56 48 -125 12 -33 28 -73 37 -88 32 -60 78 -57 -791 -57 -444 0 -797 4 -800 9 -3 5 7 42 23 82 16 41 39 101 51 134 12 33 30 82 41 109 10 27 19 54 19 60 0 7 9 31 20 54 11 22 20 49 20 60 0 10 4 22 9 28 5 5 18 38 30 74 12 36 26 73 31 82 6 10 10 24 10 32 0 7 9 35 19 62 11 27 29 76 41 109 12 33 26 69 30 80 19 48 43 114 60 165 10 30 26 75 35 100 9 25 26 70 37 100 11 30 24 64 28 75 5 11 16 40 24 65 17 50 39 113 86 240 18 47 34 94 37 105 3 11 14 39 24 62 10 24 19 51 19 61 0 10 4 22 9 28 5 5 16 29 24 54 26 77 49 130 57 130 4 0 17 -28 29 -62z" fill="black"/>
      </g>
    </mask>
    <mask id="mask-2">
      <g>
        <path d="M 0 0 H 60760.0 V 18240.0 H 0 Z" fill="white" id="background"/>
        <path d="M37415 5429 c88 -5 198 -17 245 -25 47 -8 99 -17 115 -20 123 -21 283 -133 366 -256 45 -65 107 -194 121 -248 32 -125 39 -189 35 -319 -7 -202 -19 -254 -91 -404 -69 -143 -184 -251 -349 -326 -37 -17 -76 -31 -87 -31 -10 0 -21 -4 -24 -9 -3 -5 -20 -11 -38 -14 -18 -3 -55 -11 -83 -16 -174 -36 -302 -41 -970 -39 l-660 3 -3 845 c-1 465 0 851 3 858 6 16 1181 17 1420 1z" fill="black"/>
        <path d="M53079 5298 c20 -56 89 -239 111 -293 4 -11 18 -47 30 -80 12 -33 26 -68 31 -77 5 -10 9 -22 9 -28 0 -6 8 -29 19 -53 10 -23 24 -58 31 -77 7 -19 16 -44 20 -55 4 -11 22 -58 40 -105 18 -47 36 -94 40 -105 4 -11 18 -47 30 -80 12 -33 26 -69 30 -80 4 -11 22 -58 40 -105 39 -103 44 -118 58 -150 5 -14 20 -52 32 -85 12 -33 26 -69 30 -80 4 -11 27 -69 50 -130 23 -60 46 -119 50 -130 4 -11 13 -36 20 -55 7 -19 17 -46 22 -60 15 -35 23 -56 48 -125 12 -33 28 -73 37 -88 32 -60 78 -57 -791 -57 -444 0 -797 4 -800 9 -3 5 7 42 23 82 16 41 39 101 51 134 12 33 30 82 41 109 10 27 19 54 19 60 0 7 9 31 20 54 11 22 20 49 20 60 0 10 4 22 9 28 5 5 18 38 30 74 12 36 26 73 31 82 6 10 10 24 10 32 0 7 9 35 19 62 11 27 29 76 41 109 12 33 26 69 30 80 19 48 43 114 60 165 10 30 26 75 35 100 9 25 26 70 37 100 11 30 24 64 28 75 5 11 16 40 24 65 17 50 39 113 86 240 18 47 34 94 37 105 3 11 14 39 24 62 10 24 19 51 19 61 0 10 4 22 9 28 5 5 16 29 24 54 26 77 49 130 57 130 4 0 17 -28 29 -62z" fill="black"/>
      </g>
    </mask>
    <mask id="mask-1">
      <g>
        <path d="M 0 0 H 60760.0 V 18240.0 H 0 Z" fill="white" id="background"/>
        <path d="M30651 5333 c18 -43 24 -60 69 -178 23 -60 46 -119 50 -130 4 -11 18 -47 30 -80 12 -33 26 -69 30 -80 4 -11 22 -58 40 -105 18 -47 36 -94 40 -105 4 -11 18 -47 30 -80 12 -33 26 -69 30 -80 4 -11 22 -58 40 -105 18 -47 36 -94 40 -105 4 -11 18 -47 30 -80 12 -33 26 -69 30 -80 4 -11 27 -69 50 -130 23 -60 46 -119 50 -130 4 -11 13 -36 20 -55 7 -19 16 -44 20 -55 4 -11 22 -58 40 -105 18 -47 36 -94 40 -105 4 -11 18 -47 30 -80 12 -33 26 -69 30 -80 4 -11 18 -47 31 -80 12 -33 26 -65 31 -72 6 -7 7 -17 3 -23 -4 -7 -259 -10 -800 -10 -726 0 -793 1 -799 16 -4 9 0 27 9 40 8 13 15 32 15 42 0 10 4 22 8 28 4 5 14 27 21 49 7 22 21 64 32 93 10 28 28 78 40 110 12 31 25 66 29 77 5 11 16 40 24 65 16 49 38 109 86 240 18 47 35 96 40 110 5 14 22 63 40 110 17 47 38 105 46 130 8 25 19 54 24 65 5 11 18 49 30 85 12 36 30 84 41 107 10 24 19 51 19 61 0 10 4 22 9 28 5 5 25 56 44 115 20 58 43 125 52 150 9 24 26 69 37 99 11 30 24 64 28 75 17 42 50 133 72 198 13 37 26 67 31 67 4 0 12 -12 18 -27z" fill="black"/>
        <path d="M37415 5429 c88 -5 198 -17 245 -25 47 -8 99 -17 115 -20 123 -21 283 -133 366 -256 45 -65 107 -194 121 -248 32 -125 39 -189 35 -319 -7 -202 -19 -254 -91 -404 -69 -143 -184 -251 -349 -326 -37 -17 -76 -31 -87 -31 -10 0 -21 -4 -24 -9 -3 -5 -20 -11 -38 -14 -18 -3 -55 -11 -83 -16 -174 -36 -302 -41 -970 -39 l-660 3 -3 845 c-1 465 0 851 3 858 6 16 1181 17 1420 1z" fill="black"/>
        <path d="M53079 5298 c20 -56 89 -239 111 -293 4 -11 18 -47 30 -80 12 -33 26 -68 31 -77 5 -10 9 -22 9 -28 0 -6 8 -29 19 -53 10 -23 24 -58 31 -77 7 -19 16 -44 20 -55 4 -11 22 -58 40 -105 18 -47 36 -94 40 -105 4 -11 18 -47 30 -80 12 -33 26 -69 30 -80 4 -11 22 -58 40 -105 39 -103 44 -118 58 -150 5 -14 20 -52 32 -85 12 -33 26 -69 30 -80 4 -11 27 -69 50 -130 23 -60 46 -119 50 -130 4 -11 13 -36 20 -55 7 -19 17 -46 22 -60 15 -35 23 -56 48 -125 12 -33 28 -73 37 -88 32 -60 78 -57 -791 -57 -444 0 -797 4 -800 9 -3 5 7 42 23 82 16 41 39 101 51 134 12 33 30 82 41 109 10 27 19 54 19 60 0 7 9 31 20 54 11 22 20 49 20 60 0 10 4 22 9 28 5 5 18 38 30 74 12 36 26 73 31 82 6 10 10 24 10 32 0 7 9 35 19 62 11 27 29 76 41 109 12 33 26 69 30 80 19 48 43 114 60 165 10 30 26 75 35 100 9 25 26 70 37 100 11 30 24 64 28 75 5 11 16 40 24 65 17 50 39 113 86 240 18 47 34 94 37 105 3 11 14 39 24 62 10 24 19 51 19 61 0 10 4 22 9 28 5 5 16 29 24 54 26 77 49 130 57 130 4 0 17 -28 29 -62z" fill="black"/>
      </g>
    </mask>
    <mask id="mask-0">
      <g>
        <path d="M 0 0 H 60760.0 V 18240.0 H 0 Z" fill="white" id="background"/>
        <path d="M25500 13410 c0 -11 4 -28 9 -38 19 -36 51 -112 51 -122 0 -6 4 -18 9 -28 5 -9 19 -44 31 -77 12 -33 26 -69 30 -80 4 -11 18 -47 30 -80 26 -71 34 -91 48 -125 5 -14 20 -52 32 -85 12 -33 26 -69 30 -80 4 -11 22 -58 40 -105 18 -47 36 -94 40 -105 4 -11 18 -47 30 -80 12 -33 26 -69 30 -80 4 -11 27 -69 50 -130 23 -60 46 -119 50 -130 4 -11 18 -47 30 -80 12 -33 26 -69 30 -80 4 -11 22 -58 40 -105 18 -47 36 -94 40 -105 4 -11 18 -47 30 -80 12 -33 27 -71 32 -85 15 -35 23 -56 48 -125 12 -33 26 -68 31 -77 5 -10 9 -22 9 -28 0 -6 8 -29 19 -53 10 -23 24 -58 31 -77 7 -19 16 -44 20 -55 4 -11 22 -58 40 -105 18 -47 36 -94 40 -105 4 -11 18 -47 30 -80 12 -33 26 -69 30 -80 4 -11 22 -58 40 -105 18 -47 36 -94 40 -105 4 -11 22 -58 40 -105 18 -47 36 -94 40 -105 4 -11 27 -69 50 -130 23 -60 46 -119 51 -130 5 -11 10 -38 12 -60 2 -33 -1 -40 -15 -39 -10 0 -583 1 -1274 2 l-1256 2 5 33 c2 17 19 70 37 117 17 47 34 94 37 105 3 11 14 39 24 62 10 24 19 51 19 61 0 10 4 22 9 28 5 5 18 38 30 74 12 36 26 74 31 85 5 11 14 38 21 60 7 22 17 44 21 49 4 6 8 17 8 27 0 14 10 42 50 144 4 11 13 36 20 55 7 19 16 44 21 55 4 11 15 40 23 65 8 25 22 65 31 90 9 25 26 70 37 100 11 30 24 64 28 75 5 11 16 40 24 65 8 25 29 83 46 130 18 47 35 96 40 110 5 14 23 63 40 110 17 47 35 96 40 110 5 14 23 63 40 110 17 47 35 96 40 110 5 14 23 63 40 110 18 47 35 96 37 110 3 14 9 30 13 35 4 6 17 39 29 75 12 36 26 74 31 85 5 11 18 49 30 85 12 36 30 84 41 107 10 24 19 51 19 61 0 10 4 22 8 28 5 5 15 29 22 54 8 25 16 50 20 55 3 6 12 28 19 50 7 22 21 64 32 93 10 28 28 78 40 110 12 31 25 66 29 77 5 11 16 40 24 65 17 53 63 176 79 208 13 27 27 29 27 2z" fill="black"/>
        <path d="M30651 5333 c18 -43 24 -60 69 -178 23 -60 46 -119 50 -130 4 -11 18 -47 30 -80 12 -33 26 -69 30 -80 4 -11 22 -58 40 -105 18 -47 36 -94 40 -105 4 -11 18 -47 30 -80 12 -33 26 -69 30 -80 4 -11 22 -58 40 -105 18 -47 36 -94 40 -105 4 -11 18 -47 30 -80 12 -33 26 -69 30 -80 4 -11 27 -69 50 -130 23 -60 46 -119 50 -130 4 -11 13 -36 20 -55 7 -19 16 -44 20 -55 4 -11 22 -58 40 -105 18 -47 36 -94 40 -105 4 -11 18 -47 30 -80 12 -33 26 -69 30 -80 4 -11 18 -47 31 -80 12 -33 26 -65 31 -72 6 -7 7 -17 3 -23 -4 -7 -259 -10 -800 -10 -726 0 -793 1 -799 16 -4 9 0 27 9 40 8 13 15 32 15 42 0 10 4 22 8 28 4 5 14 27 21 49 7 22 21 64 32 93 10 28 28 78 40 110 12 31 25 66 29 77 5 11 16 40 24 65 16 49 38 109 86 240 18 47 35 96 40 110 5 14 22 63 40 110 17 47 38 105 46 130 8 25 19 54 24 65 5 11 18 49 30 85 12 36 30 84 41 107 10 24 19 51 19 61 0 10 4 22 9 28 5 5 25 56 44 115 20 58 43 125 52 150 9 24 26 69 37 99 11 30 24 64 28 75 17 42 50 133 72 198 13 37 26 67 31 67 4 0 12 -12 18 -27z" fill="black"/>
        <path d="M37415 5429 c88 -5 198 -17 245 -25 47 -8 99 -17 115 -20 123 -21 283 -133 366 -256 45 -65 107 -194 121 -248 32 -125 39 -189 35 -319 -7 -202 -19 -254 -91 -404 -69 -143 -184 -251 -349 -326 -37 -17 -76 -31 -87 -31 -10 0 -21 -4 -24 -9 -3 -5 -20 -11 -38 -14 -18 -3 -55 -11 -83 -16 -174 -36 -302 -41 -970 -39 l-660 3 -3 845 c-1 465 0 851 3 858 6 16 1181 17 1420 1z" fill="black"/>
        <path d="M53079 5298 c20 -56 89 -239 111 -293 4 -11 18 -47 30 -80 12 -33 26 -68 31 -77 5 -10 9 -22 9 -28 0 -6 8 -29 19 -53 10 -23 24 -58 31 -77 7 -19 16 -44 20 -55 4 -11 22 -58 40 -105 18 -47 36 -94 40 -105 4 -11 18 -47 30 -80 12 -33 26 -69 30 -80 4 -11 22 -58 40 -105 39 -103 44 -118 58 -150 5 -14 20 -52 32 -85 12 -33 26 -69 30 -80 4 -11 27 -69 50 -130 23 -60 46 -119 50 -130 4 -11 13 -36 20 -55 7 -19 17 -46 22 -60 15 -35 23 -56 48 -125 12 -33 28 -73 37 -88 32 -60 78 -57 -791 -57 -444 0 -797 4 -800 9 -3 5 7 42 23 82 16 41 39 101 51 134 12 33 30 82 41 109 10 27 19 54 19 60 0 7 9 31 20 54 11 22 20 49 20 60 0 10 4 22 9 28 5 5 18 38 30 74 12 36 26 73 31 82 6 10 10 24 10 32 0 7 9 35 19 62 11 27 29 76 41 109 12 33 26 69 30 80 19 48 43 114 60 165 10 30 26 75 35 100 9 25 26 70 37 100 11 30 24 64 28 75 5 11 16 40 24 65 17 50 39 113 86 240 18 47 34 94 37 105 3 11 14 39 24 62 10 24 19 51 19 61 0 10 4 22 9 28 5 5 16 29 24 54 26 77 49 130 57 130 4 0 17 -28 29 -62z" fill="black"/>
      </g>
    </mask>
    <path stroke="none" d="M8115 18190 c-33 -5 -103 -14 -155 -20 -52 -6 -140 -18 -195 -26 -55 -8 -127 -19 -160 -24 -33 -4 -71 -10 -85 -13 -24 -5 -71 -14 -197 -38 -32 -6 -78 -15 -103 -21 -25 -5 -63 -13 -85 -18 -70 -15 -128 -29 -195 -45 -36 -9 -81 -21 -100 -25 -19 -5 -69 -18 -110 -29 -41 -11 -86 -23 -100 -26 -14 -4 -34 -10 -45 -14 -46 -18 -93 -31 -113 -31 -11 0 -24 -4 -27 -10 -3 -5 -17 -10 -30 -10 -13 0 -27 -4 -30 -10 -3 -5 -17 -10 -30 -10 -13 0 -27 -4 -30 -10 -3 -5 -17 -10 -30 -10 -13 0 -27 -4 -30 -10 -3 -5 -17 -10 -30 -10 -13 0 -27 -4 -30 -10 -3 -5 -17 -10 -30 -10 -13 0 -27 -4 -30 -10 -3 -5 -14 -10 -24 -10 -16 0 -52 -13 -146 -50 -11 -5 -85 -34 -165 -65 -80 -31 -158 -63 -175 -70 -72 -33 -163 -73 -205 -90 -61 -26 -500 -246 -575 -288 -33 -19 -87 -49 -120 -67 -33 -18 -72 -41 -87 -52 -14 -10 -29 -18 -32 -18 -21 0 -616 -389 -721 -472 -5 -5 -70 -53 -143 -108 -172 -128 -434 -342 -567 -461 -275 -246 -584 -548 -785 -769 -62 -69 -132 -145 -154 -170 -23 -25 -69 -79 -103 -120 -34 -41 -91 -111 -128 -155 -91 -109 -240 -301 -317 -409 -120 -167 -418 -617 -418 -631 0 -2 -22 -39 -49 -83 -53 -86 -73 -123 -189 -337 -89 -164 -282 -565 -282 -584 0 -5 -6 -21 -14 -37 -14 -30 -42 -93 -57 -131 -5 -13 -14 -35 -20 -50 -7 -16 -16 -38 -20 -50 -5 -13 -14 -35 -20 -50 -16 -37 -23 -57 -49 -128 -12 -33 -30 -82 -41 -109 -10 -27 -19 -56 -19 -65 0 -10 -4 -21 -8 -26 -5 -6 -14 -30 -21 -55 -7 -25 -17 -54 -21 -65 -5 -11 -13 -36 -19 -55 -6 -19 -19 -62 -29 -95 -19 -60 -37 -120 -53 -182 -5 -18 -13 -48 -18 -65 -4 -18 -14 -53 -20 -78 -7 -25 -16 -61 -21 -80 -14 -60 -31 -124 -41 -156 -5 -17 -9 -39 -9 -49 0 -10 -4 -32 -9 -49 -13 -42 -42 -179 -52 -246 -4 -30 -13 -80 -19 -110 -6 -30 -15 -84 -20 -120 -5 -36 -14 -94 -20 -130 -106 -626 -132 -1650 -60 -2410 27 -290 83 -672 130 -895 5 -22 14 -67 20 -100 6 -33 15 -76 20 -95 5 -19 14 -57 20 -85 6 -27 16 -68 21 -90 14 -51 28 -110 40 -157 14 -57 30 -120 39 -148 4 -14 13 -45 20 -70 24 -86 30 -106 90 -290 34 -102 65 -194 70 -205 5 -11 14 -38 21 -60 7 -22 17 -44 21 -50 4 -5 8 -15 8 -22 0 -7 9 -32 19 -56 10 -23 31 -73 46 -112 15 -38 34 -86 42 -105 8 -19 19 -44 24 -55 4 -11 26 -60 49 -108 22 -49 40 -91 40 -93 0 -2 22 -49 50 -105 28 -56 50 -105 50 -110 0 -4 15 -34 34 -66 18 -32 58 -105 88 -163 62 -119 117 -220 128 -235 4 -5 17 -27 29 -47 54 -97 65 -116 92 -155 16 -23 29 -44 29 -47 0 -15 261 -406 360 -539 38 -51 223 -293 243 -317 7 -8 41 -51 76 -95 36 -44 97 -116 135 -161 39 -44 84 -96 100 -115 120 -140 445 -476 619 -640 234 -221 265 -249 337 -309 36 -30 67 -57 70 -60 7 -8 122 -104 145 -123 11 -8 63 -51 117 -94 114 -93 199 -157 403 -303 107 -78 394 -270 401 -270 4 0 15 -7 24 -15 17 -15 96 -65 170 -107 19 -11 47 -29 62 -39 14 -11 28 -19 31 -19 3 0 43 -22 89 -49 158 -93 453 -245 668 -344 30 -13 85 -39 123 -56 37 -17 70 -31 72 -31 3 0 27 -9 53 -21 26 -12 57 -25 70 -30 12 -5 33 -13 47 -19 14 -5 36 -14 50 -20 14 -5 36 -14 50 -20 14 -5 35 -14 48 -19 12 -5 49 -19 82 -31 33 -12 82 -30 109 -41 27 -10 56 -19 65 -19 10 0 21 -4 27 -8 5 -5 29 -14 54 -21 25 -7 54 -17 65 -21 33 -13 59 -22 90 -30 17 -5 62 -18 100 -30 68 -21 94 -29 165 -49 47 -13 179 -48 210 -56 14 -3 41 -10 60 -15 161 -41 535 -116 695 -140 44 -6 89 -13 100 -16 11 -2 54 -9 95 -14 41 -5 127 -16 190 -24 63 -8 155 -17 204 -20 48 -3 93 -10 100 -15 6 -5 27 -11 46 -11 139 -7 8656 -8 8662 -2 4 4 -801 816 -1790 1804 l-1797 1797 -2290 4 c-2008 4 -2310 6 -2450 20 -163 17 -424 51 -505 66 -92 18 -156 31 -195 40 -22 5 -62 14 -90 20 -59 13 -102 24 -235 62 -19 6 -48 14 -65 18 -32 9 -58 18 -90 31 -11 4 -40 14 -65 21 -25 7 -49 16 -54 21 -6 4 -18 8 -28 8 -10 0 -40 9 -66 21 -44 20 -58 26 -114 48 -191 75 -463 208 -590 288 -21 13 -40 23 -43 23 -4 0 -26 14 -50 30 -24 17 -48 30 -53 30 -5 0 -17 9 -27 20 -10 11 -22 20 -27 20 -19 0 -327 219 -444 315 -34 28 -81 66 -105 85 -24 19 -97 85 -162 145 -65 61 -131 121 -147 134 -38 30 -330 345 -410 441 -35 41 -81 97 -104 124 -22 27 -52 65 -66 85 -14 21 -46 64 -71 97 -25 32 -65 88 -89 124 -24 36 -48 70 -52 75 -12 14 -116 176 -126 195 -4 8 -23 42 -42 75 -19 33 -43 74 -52 90 -29 49 -211 415 -236 474 -13 30 -39 96 -59 145 -19 50 -38 100 -43 111 -4 11 -13 36 -20 55 -7 19 -16 44 -20 55 -4 11 -18 54 -30 95 -12 41 -26 84 -30 95 -5 11 -11 31 -15 45 -3 14 -15 59 -26 100 -11 41 -25 93 -30 115 -5 22 -14 58 -20 80 -6 22 -13 51 -16 65 -2 14 -12 59 -20 100 -9 41 -19 98 -23 125 -5 28 -15 95 -23 150 -47 311 -60 503 -60 880 0 386 14 587 64 905 11 69 22 141 25 160 7 45 55 266 80 365 19 76 45 168 60 215 59 188 108 329 144 421 44 110 46 115 109 252 23 49 41 91 41 93 0 6 55 117 80 159 13 22 37 67 54 100 26 50 90 161 139 240 22 36 226 340 259 385 157 219 509 614 728 817 226 208 483 415 650 523 184 120 239 155 268 171 31 18 59 34 140 80 49 28 349 179 356 179 3 0 34 13 68 28 35 16 90 39 123 51 76 29 105 41 127 52 10 5 27 9 37 9 11 0 23 5 26 10 3 6 17 10 30 10 13 0 27 5 30 10 3 6 15 10 26 10 10 0 27 4 37 9 9 5 37 15 62 21 25 7 65 20 90 28 25 8 62 18 83 23 20 5 56 14 80 20 56 14 106 24 202 43 44 9 99 21 123 26 23 6 53 10 66 10 13 0 29 6 35 14 8 10 10 495 9 1827 l-3 1814 -55 1 c-30 1 -82 -2 -115 -6z" fill="#ffffff" id="ffffff-000001" mask="url(#mask-0)"/>
    <path stroke="none" d="M10075 18188 c-3 -7 -4 -829 -3 -1827 l3 -1814 50 -13 c28 -7 88 -20 135 -29 127 -24 206 -42 280 -64 19 -5 53 -15 75 -21 22 -6 56 -16 75 -21 19 -6 47 -13 63 -16 15 -3 30 -9 33 -14 3 -5 16 -9 29 -9 13 0 27 -4 30 -10 3 -5 15 -10 26 -10 10 0 27 -4 37 -9 9 -5 44 -19 77 -31 33 -12 79 -31 102 -41 24 -11 47 -19 53 -19 6 0 18 -4 28 -10 9 -5 60 -28 112 -51 186 -80 430 -210 592 -315 37 -24 71 -44 74 -44 4 0 23 -12 43 -27 20 -16 65 -48 101 -72 36 -25 101 -72 144 -105 44 -34 103 -79 131 -101 161 -123 493 -438 686 -650 145 -160 335 -397 430 -535 24 -36 61 -87 81 -115 21 -27 38 -53 38 -57 0 -4 26 -46 58 -95 99 -150 141 -226 260 -463 83 -166 99 -202 137 -295 10 -22 24 -56 32 -75 40 -93 131 -344 154 -427 5 -18 13 -48 18 -65 28 -98 53 -195 81 -313 33 -143 38 -166 50 -240 6 -38 15 -95 20 -125 29 -179 37 -242 62 -500 7 -78 12 -808 15 -2295 l4 -2180 1907 -1908 c1049 -1049 1913 -1907 1920 -1907 10 0 12 783 9 4178 -3 3800 -5 4194 -20 4367 -37 419 -55 579 -98 845 -20 123 -51 295 -59 330 -5 19 -14 62 -20 95 -7 33 -19 87 -27 120 -8 33 -19 80 -24 105 -5 25 -13 63 -19 85 -6 22 -15 56 -20 75 -5 19 -13 51 -19 70 -5 19 -15 52 -20 73 -6 20 -15 53 -21 72 -5 19 -14 50 -19 68 -5 17 -17 57 -26 87 -16 52 -28 88 -70 205 -9 28 -21 64 -25 80 -4 17 -15 50 -25 75 -9 25 -26 70 -37 100 -11 30 -24 65 -29 78 -5 12 -13 33 -19 47 -5 14 -14 36 -20 50 -5 14 -14 35 -19 48 -8 22 -19 48 -38 97 -6 14 -20 45 -31 70 -11 25 -33 74 -49 110 -37 86 -296 603 -329 660 -15 25 -35 60 -45 78 -11 17 -28 48 -39 67 -50 87 -59 103 -87 150 -16 28 -65 104 -109 170 -43 66 -83 128 -89 137 -16 27 -135 199 -175 253 -154 210 -241 323 -367 480 -228 283 -638 717 -932 988 -97 89 -178 164 -181 167 -3 3 -34 30 -70 60 -35 30 -80 69 -100 87 -36 32 -108 91 -267 219 -77 63 -143 113 -348 264 -66 49 -224 157 -286 196 -27 17 -57 38 -67 47 -10 9 -22 17 -26 17 -4 0 -40 23 -81 50 -41 28 -76 50 -79 50 -3 0 -36 20 -73 44 -37 24 -88 54 -113 68 -25 14 -99 56 -165 93 -161 91 -649 335 -669 335 -2 0 -42 17 -88 38 -45 21 -110 49 -143 62 -33 12 -73 28 -90 35 -16 7 -50 21 -75 30 -25 9 -54 21 -65 25 -11 4 -46 17 -77 29 -32 12 -82 30 -110 40 -29 11 -84 30 -123 42 -38 12 -79 25 -90 30 -11 4 -36 12 -55 18 -19 6 -57 18 -85 27 -27 9 -66 21 -85 26 -19 5 -51 14 -70 19 -19 6 -51 14 -70 19 -19 5 -53 14 -75 20 -44 12 -91 24 -235 59 -88 22 -313 69 -380 81 -30 5 -82 14 -115 20 -33 6 -87 15 -120 20 -33 5 -89 14 -125 20 -36 6 -101 14 -145 19 -44 5 -116 14 -160 19 -44 6 -87 11 -95 12 -8 0 -39 3 -67 6 -39 4 -54 2 -58 -8z" fill="#a9a9aa" id="a9a9aa-000001" mask="url(#mask-0)"/>
    <path stroke="none" d="M32740 14549 c-191 -16 -413 -50 -535 -81 -22 -5 -57 -14 -77 -19 -91 -22 -233 -64 -273 -80 -11 -4 -49 -18 -85 -30 -90 -30 -133 -49 -305 -135 -204 -101 -318 -171 -481 -294 -255 -192 -525 -477 -715 -755 -122 -178 -264 -436 -332 -605 -10 -25 -23 -56 -29 -70 -6 -14 -15 -35 -19 -47 -5 -13 -13 -33 -19 -45 -5 -13 -23 -68 -41 -123 -17 -55 -35 -109 -39 -120 -4 -11 -13 -40 -20 -65 -6 -25 -15 -58 -20 -75 -22 -82 -67 -288 -74 -345 -4 -25 -11 -67 -16 -95 -13 -69 -27 -181 -47 -370 -21 -199 -24 -864 -5 -1050 20 -195 46 -389 62 -475 5 -25 14 -72 20 -105 22 -114 55 -253 80 -335 4 -14 13 -45 21 -70 74 -263 248 -664 351 -812 10 -14 18 -29 18 -32 0 -15 197 -301 238 -344 7 -8 25 -30 40 -50 41 -56 105 -126 232 -252 148 -148 179 -175 308 -270 59 -44 118 -88 132 -98 66 -50 249 -155 380 -218 125 -60 142 -68 225 -99 39 -15 79 -31 90 -35 11 -5 38 -14 60 -21 22 -6 49 -15 60 -20 11 -4 31 -10 45 -14 14 -3 41 -11 60 -16 19 -6 52 -15 73 -20 20 -5 56 -14 80 -20 66 -16 176 -36 327 -59 143 -21 416 -40 595 -40 181 0 490 20 620 41 120 18 178 28 225 39 25 5 68 14 95 20 48 9 67 14 160 40 22 6 51 14 65 17 14 3 30 9 35 13 6 3 30 12 55 19 47 14 66 21 113 40 15 6 38 16 52 21 545 218 996 586 1276 1039 68 111 140 254 190 379 5 12 13 32 18 45 5 12 15 40 22 62 6 22 15 49 19 60 17 43 23 61 30 95 5 19 16 64 25 100 44 176 92 481 79 502 -3 4 -234 8 -513 8 -395 0 -511 -3 -518 -12 -6 -7 -13 -40 -17 -73 -18 -164 -65 -362 -111 -470 -8 -16 -21 -50 -31 -75 -33 -83 -98 -200 -162 -290 -113 -158 -267 -305 -432 -413 -71 -46 -269 -148 -345 -177 -80 -31 -114 -44 -142 -51 -18 -5 -50 -14 -70 -20 -71 -19 -218 -49 -328 -66 -84 -13 -179 -17 -400 -18 -289 0 -382 7 -555 42 -130 27 -144 30 -190 47 -25 8 -52 16 -61 16 -9 0 -41 9 -70 21 -30 12 -63 24 -74 29 -45 16 -283 135 -320 159 -22 14 -48 31 -56 36 -178 110 -405 323 -551 515 -75 99 -175 256 -227 359 -6 11 -16 31 -23 44 -24 47 -63 133 -79 175 -5 12 -13 32 -18 45 -19 47 -49 134 -62 177 -7 25 -16 49 -21 55 -4 5 -8 19 -8 32 0 12 -4 32 -9 45 -10 26 -24 80 -41 153 -6 28 -15 66 -20 85 -55 224 -90 611 -90 1000 0 354 14 547 56 805 35 209 35 208 64 325 6 22 14 57 19 78 26 101 69 232 112 340 5 12 13 32 18 45 41 106 178 363 246 463 217 320 521 590 835 742 139 67 197 92 213 92 7 0 17 4 23 8 5 5 29 14 54 21 25 8 56 17 70 21 186 57 342 83 597 101 236 16 559 -6 753 -52 25 -5 63 -14 85 -19 82 -18 197 -53 227 -70 10 -6 22 -10 28 -10 31 0 242 -105 371 -185 145 -89 318 -248 435 -400 116 -150 222 -385 263 -580 25 -122 31 -159 31 -189 0 -17 5 -37 12 -44 9 -9 138 -12 519 -12 279 0 510 3 512 8 12 18 -45 341 -83 477 -6 22 -15 54 -19 70 -10 35 -36 103 -62 162 -10 24 -19 47 -19 52 0 5 -9 26 -20 48 -10 21 -32 65 -48 98 -39 81 -64 125 -128 221 -49 74 -141 202 -154 214 -3 3 -41 45 -85 94 -241 268 -621 540 -965 690 -100 44 -120 52 -185 76 -33 12 -69 26 -80 30 -32 13 -58 22 -92 31 -43 12 -99 28 -143 40 -79 23 -282 64 -395 80 -269 37 -709 50 -965 28z" fill="#ffffff" id="ffffff-000002" mask="url(#mask-0)"/>
    <path stroke="none" d="M59493 14427 c-8 -5 -41 -50 -73 -100 -33 -51 -68 -103 -78 -117 -10 -14 -25 -36 -32 -50 -7 -14 -53 -85 -102 -159 -48 -73 -88 -136 -88 -141 0 -4 -9 -15 -20 -25 -11 -10 -20 -22 -20 -27 0 -5 -27 -49 -60 -98 -33 -49 -60 -91 -60 -94 0 -3 -44 -72 -97 -153 -54 -82 -104 -158 -111 -169 -6 -10 -25 -39 -41 -64 -92 -142 -227 -351 -303 -469 -49 -75 -102 -156 -119 -181 -16 -25 -61 -94 -99 -155 -38 -60 -79 -123 -90 -140 -64 -93 -212 -323 -219 -340 -5 -12 -16 -27 -25 -34 -9 -7 -16 -18 -16 -23 0 -5 -27 -49 -60 -98 -33 -49 -60 -91 -60 -94 0 -2 -44 -71 -97 -153 -129 -196 -120 -182 -151 -231 -15 -24 -64 -99 -109 -168 -46 -69 -83 -129 -83 -133 0 -5 -7 -14 -15 -21 -12 -10 -18 -10 -30 0 -18 15 -75 98 -75 109 0 4 -9 16 -20 26 -11 10 -20 22 -20 27 0 7 -55 94 -156 247 -16 24 -33 51 -39 59 -5 9 -53 82 -105 162 -52 81 -99 154 -105 162 -5 9 -25 37 -42 62 -18 26 -33 49 -33 51 0 3 -36 59 -80 126 -44 66 -80 123 -80 127 0 4 -18 31 -40 60 -22 29 -40 54 -40 57 0 2 -52 84 -116 182 -64 98 -148 228 -187 288 -39 61 -82 128 -96 149 -14 21 -30 46 -36 54 -35 55 -202 312 -213 328 -7 10 -20 32 -30 47 -9 15 -59 91 -109 168 -51 77 -93 142 -93 144 0 3 -49 78 -108 167 -60 90 -124 188 -144 218 -19 30 -69 108 -111 172 -42 65 -83 131 -92 148 -8 16 -29 46 -46 65 l-31 35 -604 0 c-411 0 -604 -3 -604 -10 0 -9 108 -176 132 -205 5 -5 21 -29 36 -52 28 -42 212 -314 311 -458 30 -44 97 -143 150 -220 52 -77 99 -144 103 -150 5 -5 23 -32 41 -59 68 -105 323 -481 380 -561 40 -56 239 -347 277 -405 35 -54 282 -416 320 -470 41 -59 246 -359 290 -426 19 -29 82 -121 140 -206 57 -84 129 -190 160 -234 30 -45 102 -150 160 -234 58 -84 118 -173 133 -199 16 -25 37 -55 47 -66 18 -21 231 -334 262 -387 17 -27 18 -126 20 -1621 l3 -1592 500 0 500 0 5 1605 5 1605 55 78 c30 43 71 102 90 131 19 30 82 122 140 206 58 84 119 174 136 201 17 27 37 57 46 66 13 16 177 255 278 408 19 29 82 121 140 205 58 84 119 174 136 201 17 27 37 57 46 66 13 16 177 255 278 408 19 29 82 121 140 205 58 84 121 176 140 205 19 29 82 121 140 205 58 84 112 163 120 175 8 12 28 42 43 66 16 24 40 60 54 79 36 51 202 294 243 355 99 150 225 332 241 351 11 11 19 24 19 29 0 5 8 17 17 27 9 10 30 40 47 67 17 27 77 116 133 198 120 173 154 224 168 245 6 9 25 37 43 62 17 26 32 51 32 56 0 5 9 14 21 20 11 7 18 15 14 18 -10 10 -1204 18 -1222 9z" fill="#ffffff" id="ffffff-000007" mask="url(#mask-0)"/>
    <path stroke="none" d="M24936 14405 c-9 -13 -16 -33 -16 -43 0 -10 -4 -22 -9 -27 -5 -6 -16 -30 -24 -55 -13 -38 -70 -189 -97 -255 -4 -11 -23 -58 -40 -105 -18 -47 -41 -104 -51 -127 -11 -24 -19 -46 -19 -50 0 -7 -45 -128 -72 -193 -13 -31 -18 -43 -58 -150 -18 -47 -41 -104 -51 -127 -11 -24 -19 -46 -19 -50 0 -5 -14 -44 -31 -88 -17 -44 -34 -89 -39 -100 -4 -11 -12 -31 -18 -45 -5 -14 -15 -41 -22 -60 -16 -47 -31 -86 -58 -150 -5 -14 -20 -52 -32 -85 -12 -33 -27 -71 -32 -85 -26 -61 -39 -94 -68 -175 -12 -33 -26 -70 -31 -82 -5 -13 -13 -34 -19 -48 -5 -14 -14 -35 -19 -47 -5 -13 -19 -50 -31 -83 -12 -33 -27 -71 -32 -85 -6 -14 -15 -35 -19 -47 -5 -13 -13 -33 -18 -45 -5 -13 -19 -50 -31 -83 -12 -33 -26 -70 -31 -82 -9 -24 -23 -57 -38 -95 -5 -13 -14 -39 -21 -58 -14 -40 -23 -65 -38 -100 -30 -72 -92 -236 -92 -243 0 -4 -8 -26 -19 -50 -10 -23 -29 -69 -41 -102 -12 -33 -26 -70 -31 -82 -5 -13 -13 -33 -18 -45 -41 -101 -91 -234 -91 -241 0 -4 -8 -26 -19 -50 -10 -23 -33 -80 -51 -127 -17 -47 -36 -94 -40 -105 -4 -11 -18 -47 -30 -80 -12 -33 -31 -79 -41 -102 -11 -24 -19 -46 -19 -50 0 -5 -18 -55 -41 -113 -22 -58 -44 -114 -49 -125 -4 -11 -12 -31 -18 -45 -5 -14 -20 -52 -32 -85 -12 -33 -31 -79 -41 -102 -11 -24 -19 -46 -19 -50 0 -7 -50 -140 -91 -240 -5 -13 -13 -33 -18 -45 -5 -13 -19 -50 -31 -83 -12 -33 -31 -79 -41 -102 -11 -24 -19 -46 -19 -50 0 -7 -45 -128 -72 -193 -13 -31 -18 -43 -58 -150 -18 -47 -41 -104 -51 -127 -11 -24 -19 -46 -19 -50 0 -7 -45 -128 -72 -193 -13 -31 -18 -43 -58 -150 -18 -47 -41 -104 -51 -127 -11 -24 -19 -46 -19 -50 0 -7 -38 -109 -70 -188 -4 -11 -18 -47 -30 -80 -22 -60 -30 -80 -51 -132 -15 -37 -23 -57 -49 -128 -12 -33 -26 -70 -31 -82 -5 -13 -13 -34 -19 -48 -5 -14 -14 -35 -19 -47 -5 -13 -19 -50 -31 -83 -12 -33 -26 -70 -31 -82 -5 -13 -13 -33 -18 -45 -4 -13 -13 -34 -19 -48 -5 -14 -20 -52 -32 -85 -28 -75 -34 -93 -50 -130 -7 -16 -16 -39 -20 -50 -4 -11 -13 -33 -19 -48 -6 -15 -11 -39 -11 -52 l0 -25 525 0 525 0 11 28 c6 15 17 40 25 56 8 16 14 34 14 41 0 6 9 30 20 53 11 22 20 49 20 60 0 10 4 22 9 28 5 5 18 38 30 74 12 36 26 74 31 85 5 11 18 49 30 85 12 36 30 84 41 107 10 24 19 51 19 61 0 10 4 22 8 28 5 5 15 29 22 54 8 25 16 50 20 55 3 6 12 28 19 50 7 22 21 64 32 93 10 28 28 78 40 110 12 31 25 66 29 77 4 11 13 36 20 55 7 19 16 44 21 55 4 11 15 40 23 65 8 25 22 65 31 90 9 25 26 70 37 100 11 30 24 64 28 75 4 11 13 36 20 55 7 19 16 44 21 55 4 11 15 40 23 65 8 25 22 65 31 90 9 25 26 70 37 100 11 30 24 64 28 75 4 11 13 36 20 55 7 19 16 44 20 55 5 11 19 49 31 85 12 36 27 68 33 72 6 4 713 8 1572 8 1500 0 1562 -1 1577 -18 10 -10 17 -23 17 -28 0 -7 36 -106 70 -189 4 -11 22 -58 40 -105 18 -47 36 -94 40 -105 4 -11 27 -69 50 -130 23 -60 46 -119 50 -130 4 -11 18 -47 30 -80 12 -33 26 -69 30 -80 4 -11 22 -58 40 -105 18 -47 36 -95 41 -107 5 -13 13 -33 18 -45 5 -13 19 -50 31 -83 12 -33 26 -69 30 -80 4 -11 27 -69 50 -130 23 -60 46 -119 50 -130 4 -11 22 -58 40 -105 18 -47 36 -94 40 -105 4 -11 22 -58 40 -105 18 -47 36 -94 40 -105 4 -11 22 -58 40 -105 18 -47 40 -107 51 -134 10 -27 19 -55 19 -62 0 -32 39 -34 592 -32 l553 3 -3 30 c-2 17 -8 34 -13 39 -5 6 -9 16 -9 23 0 7 -11 36 -24 65 -13 29 -43 100 -66 158 -23 58 -49 121 -57 140 -35 80 -42 97 -56 135 -16 42 -118 296 -144 355 -8 19 -18 44 -23 55 -10 26 -24 62 -43 105 -26 59 -128 313 -144 355 -15 41 -24 63 -62 147 -11 26 -21 54 -21 61 0 7 -4 17 -9 23 -4 5 -25 52 -45 104 -21 52 -45 111 -53 130 -8 19 -18 44 -23 55 -17 46 -41 104 -63 155 -9 19 -23 55 -32 80 -10 25 -26 64 -36 87 -10 24 -19 45 -19 48 0 3 -9 25 -20 50 -11 25 -29 65 -40 90 -11 25 -20 49 -20 55 0 5 -11 33 -24 62 -13 29 -43 100 -66 158 -23 58 -48 121 -57 140 -18 43 -33 78 -44 108 -5 12 -13 33 -19 47 -5 14 -14 35 -19 48 -5 12 -16 38 -24 57 -29 67 -89 215 -104 255 -15 41 -24 63 -62 147 -11 26 -21 54 -21 61 0 7 -4 17 -8 22 -5 6 -24 48 -42 95 -18 47 -39 101 -47 120 -28 64 -45 105 -53 125 -10 27 -25 63 -43 105 -9 19 -23 55 -32 80 -10 25 -23 59 -30 75 -8 17 -23 55 -35 85 -12 30 -32 78 -46 108 -13 29 -24 57 -24 62 0 5 -13 38 -28 72 -16 35 -34 79 -41 98 -8 19 -19 49 -26 65 -8 17 -23 55 -35 85 -12 30 -28 71 -37 90 -20 46 -34 81 -43 105 -9 24 -23 58 -43 105 -8 19 -27 67 -42 105 -15 39 -35 87 -46 108 -10 22 -19 43 -19 48 0 9 -6 24 -59 141 -11 26 -21 54 -21 61 0 7 -4 17 -8 23 -5 5 -24 47 -42 94 -18 47 -39 101 -47 120 -28 64 -45 105 -53 125 -17 46 -41 104 -63 155 -9 19 -34 82 -57 140 -23 58 -53 129 -66 158 -13 29 -24 57 -24 62 0 6 -10 32 -21 58 -37 82 -46 105 -89 212 -23 58 -48 121 -57 140 -8 19 -19 45 -24 58 -23 57 -32 78 -40 94 -5 10 -9 22 -9 28 0 5 -13 38 -29 72 -15 35 -34 81 -42 103 -7 22 -22 55 -31 73 -10 18 -18 37 -18 42 0 10 -10 34 -66 158 l-24 52 -539 0 -539 0 -16 -25z" fill="#ffffff" id="ffffff-000003" mask="url(#mask-0)"/>
    <path stroke="none" d="M37567 14423 c-11 -10 -8 -4481 3 -4723 20 -437 61 -788 130 -1100 42 -193 67 -277 111 -387 5 -13 13 -33 18 -45 41 -104 223 -416 260 -448 3 -3 19 -23 36 -45 16 -22 85 -98 154 -169 203 -208 407 -361 611 -458 99 -47 116 -54 173 -77 356 -143 768 -213 1337 -227 420 -11 825 24 1145 97 22 5 57 12 78 16 21 3 40 10 43 14 3 5 14 9 26 9 28 0 237 68 280 91 10 5 22 9 28 9 19 0 219 94 310 146 382 217 672 523 868 914 46 92 118 276 143 368 5 17 14 49 20 70 6 20 15 56 20 80 5 23 14 63 19 90 37 164 62 328 90 587 29 266 31 539 28 2840 l-3 2350 -500 0 -500 0 -6 -2400 c-5 -2147 -7 -2415 -22 -2545 -29 -251 -36 -303 -48 -365 -6 -33 -13 -73 -16 -90 -11 -77 -71 -305 -94 -360 -4 -11 -15 -41 -23 -66 -17 -53 -83 -194 -122 -259 -73 -124 -208 -262 -354 -360 -93 -63 -324 -180 -353 -180 -9 0 -19 -4 -22 -10 -3 -5 -17 -10 -30 -10 -13 0 -26 -4 -29 -9 -3 -5 -18 -11 -33 -14 -16 -3 -48 -11 -73 -17 -125 -31 -198 -44 -360 -66 -153 -20 -555 -23 -715 -5 -167 18 -366 56 -433 82 -13 5 -31 9 -41 9 -16 0 -64 17 -151 52 -14 6 -34 14 -45 18 -153 58 -370 205 -492 332 -128 134 -250 374 -323 638 -7 25 -16 59 -21 75 -11 41 -40 187 -50 255 -65 452 -61 296 -68 2915 l-6 2380 -496 3 c-272 1 -499 -1 -502 -5z" fill="#ffffff" id="ffffff-000004" mask="url(#mask-1)"/>
    <path stroke="none" d="M45315 14418 c-3 -7 -4 -1707 -3 -3778 l3 -3765 500 0 500 0 0 3775 0 3775 -498 3 c-393 2 -499 0 -502 -10z" fill="#ffffff" id="ffffff-000005" mask="url(#mask-1)"/>
    <path stroke="none" d="M47505 14418 c-3 -7 -4 -209 -3 -448 l3 -435 1235 -5 1235 -5 5 -3325 5 -3325 505 0 505 0 5 3325 5 3325 1245 5 1245 5 0 445 0 445 -2993 3 c-2389 2 -2994 0 -2997 -10z" fill="#ffffff" id="ffffff-000006" mask="url(#mask-1)"/>
    <path stroke="none" d="M24025 6080 c-49 -5 -116 -13 -147 -19 -32 -6 -82 -15 -110 -20 -229 -40 -490 -145 -710 -286 -204 -131 -418 -346 -571 -575 -58 -88 -182 -325 -220 -420 -5 -14 -13 -33 -18 -42 -5 -10 -9 -26 -9 -36 0 -10 -4 -22 -8 -27 -17 -20 -69 -218 -100 -385 -43 -222 -55 -410 -49 -726 5 -257 21 -442 52 -579 32 -149 61 -263 75 -300 4 -11 13 -38 19 -60 7 -22 17 -50 22 -62 23 -56 32 -79 39 -98 128 -334 402 -682 710 -902 94 -67 296 -179 385 -213 180 -70 337 -111 535 -142 116 -18 634 -18 750 0 341 53 565 133 831 297 237 145 445 379 565 635 51 109 51 109 74 180 52 163 79 291 83 395 l2 60 -325 0 -325 0 -8 -50 c-14 -85 -50 -239 -59 -250 -4 -5 -8 -16 -8 -25 0 -28 -93 -201 -142 -266 -222 -290 -586 -445 -1053 -446 -170 -1 -292 10 -377 32 -183 48 -219 61 -348 125 -95 47 -133 72 -225 146 -75 60 -181 169 -230 234 -16 22 -32 42 -35 45 -30 28 -148 249 -185 345 -15 39 -31 79 -35 90 -5 11 -11 31 -15 45 -3 14 -15 59 -26 100 -12 41 -23 86 -26 100 -28 139 -36 197 -49 335 -28 319 -12 644 45 945 19 97 71 276 91 312 6 10 10 23 10 29 0 23 104 225 153 299 97 145 190 248 297 330 25 19 47 38 50 41 23 26 177 112 275 154 63 27 77 32 125 45 25 7 56 16 70 20 200 62 582 67 820 9 25 -6 60 -13 78 -16 18 -3 35 -9 38 -14 3 -5 14 -9 25 -9 10 0 27 -4 37 -9 9 -5 35 -17 57 -26 279 -117 498 -337 585 -585 7 -19 16 -44 20 -55 7 -19 19 -71 37 -175 l8 -45 319 -3 c176 -1 324 2 328 6 13 13 -12 183 -42 287 -6 22 -15 54 -19 70 -8 29 -13 42 -60 147 -11 26 -21 50 -21 53 0 3 -18 35 -40 71 -22 36 -40 68 -40 71 0 2 -27 39 -59 82 -205 269 -488 476 -831 606 -120 46 -247 78 -435 110 -106 19 -513 28 -650 15z" fill="#a9a9aa" id="a9a9aa-000002" mask="url(#mask-1)"/>
    <path stroke="none" d="M30293 5998 c-5 -7 -15 -29 -22 -48 -7 -19 -17 -44 -21 -55 -40 -99 -90 -231 -90 -238 0 -4 -8 -26 -19 -50 -10 -23 -29 -69 -41 -102 -12 -33 -26 -70 -31 -82 -5 -13 -13 -33 -18 -45 -5 -13 -27 -70 -49 -128 -92 -243 -124 -326 -134 -350 -14 -32 -21 -52 -48 -125 -12 -33 -31 -79 -41 -102 -11 -24 -19 -46 -19 -50 0 -7 -50 -140 -91 -240 -5 -13 -13 -33 -18 -45 -5 -13 -19 -50 -31 -83 -12 -33 -31 -79 -41 -102 -11 -24 -19 -46 -19 -50 0 -7 -37 -105 -71 -190 -5 -13 -13 -33 -18 -45 -5 -13 -24 -61 -41 -108 -18 -47 -41 -104 -51 -127 -11 -24 -19 -46 -19 -50 0 -7 -45 -128 -72 -193 -15 -35 -24 -60 -38 -100 -7 -19 -17 -46 -22 -60 -6 -14 -14 -34 -18 -45 -4 -11 -12 -31 -18 -45 -5 -14 -20 -52 -32 -85 -12 -33 -27 -71 -32 -85 -26 -61 -39 -94 -68 -175 -12 -33 -26 -70 -31 -82 -5 -13 -13 -34 -19 -48 -5 -14 -14 -35 -19 -47 -5 -13 -19 -50 -31 -83 -12 -33 -26 -69 -30 -80 -38 -93 -90 -231 -90 -238 0 -4 -8 -26 -19 -50 -10 -23 -29 -69 -41 -102 -27 -73 -34 -93 -48 -125 -30 -72 -92 -236 -92 -243 0 -4 -8 -26 -19 -50 -10 -23 -29 -69 -41 -102 -12 -33 -27 -71 -32 -85 -6 -14 -14 -34 -18 -45 -4 -11 -17 -44 -29 -74 -39 -99 -67 -91 308 -91 345 0 341 0 354 45 3 11 19 58 37 105 18 47 34 94 37 105 3 11 14 39 24 62 10 24 19 51 19 61 0 10 4 22 9 27 5 6 18 39 30 75 12 36 26 74 31 85 5 11 18 49 30 85 12 36 30 84 41 107 10 24 19 51 19 61 0 10 4 22 9 27 5 6 18 39 30 75 12 36 26 74 31 85 5 11 18 49 30 85 12 36 30 84 41 107 10 24 19 49 19 56 0 7 9 32 20 55 11 22 20 48 20 57 0 20 19 57 34 67 14 10 1958 10 1972 0 5 -4 21 -34 33 -67 13 -33 28 -71 33 -85 14 -34 22 -54 48 -125 12 -33 26 -69 30 -80 4 -11 27 -69 50 -130 23 -60 46 -119 50 -130 4 -11 18 -47 30 -80 12 -33 26 -69 30 -80 4 -11 27 -69 50 -130 23 -60 46 -119 50 -130 7 -18 63 -163 113 -295 11 -30 27 -65 35 -78 l14 -22 350 0 350 0 -7 36 c-3 20 -10 44 -15 53 -21 40 -50 112 -50 124 0 7 -4 17 -8 22 -5 6 -24 48 -42 95 -32 83 -40 104 -75 185 -25 59 -48 114 -65 160 -5 11 -15 36 -23 55 -9 19 -34 82 -57 140 -23 58 -53 129 -66 158 -13 29 -24 57 -24 62 0 6 -10 32 -21 58 -37 83 -46 104 -99 237 -28 72 -58 146 -67 165 -8 19 -18 44 -23 55 -4 11 -13 34 -20 50 -7 17 -16 39 -20 50 -5 11 -15 36 -23 55 -9 19 -23 55 -32 80 -10 25 -26 64 -36 87 -10 24 -19 45 -19 48 0 3 -9 25 -20 50 -11 25 -29 65 -40 90 -11 25 -20 49 -20 55 0 5 -13 38 -28 72 -16 35 -34 79 -41 98 -8 19 -19 49 -26 65 -8 17 -23 55 -35 85 -12 30 -28 71 -37 90 -8 19 -19 45 -24 58 -23 57 -32 78 -40 94 -5 10 -9 22 -9 28 0 5 -13 38 -29 72 -15 35 -34 81 -42 103 -7 22 -22 55 -31 73 -10 18 -18 37 -18 42 0 6 -10 32 -21 58 -38 84 -47 106 -62 147 -16 42 -118 296 -144 355 -8 19 -18 44 -23 55 -10 26 -24 62 -43 105 -26 59 -128 313 -144 355 -15 41 -24 63 -62 147 -11 26 -21 54 -21 61 0 7 -4 17 -8 23 -5 5 -24 47 -42 94 -18 47 -38 100 -46 118 -8 17 -21 49 -30 70 -9 20 -21 48 -26 62 -6 14 -14 32 -18 40 -6 13 -57 15 -347 18 -265 2 -342 -1 -350 -10z" fill="#a9a9aa" id="a9a9aa-000003" mask="url(#mask-1)"/>
    <path stroke="none" d="M35355 5998 c-3 -7 -4 -1077 -3 -2378 l3 -2365 315 0 315 0 5 945 5 945 775 6 c674 5 787 9 870 24 165 30 184 33 228 44 23 6 59 15 80 20 130 31 368 141 487 226 360 256 527 620 526 1145 0 188 -6 247 -41 390 -6 25 -14 57 -17 73 -3 15 -9 30 -14 33 -5 3 -9 14 -9 25 0 32 -95 225 -158 318 -135 204 -332 361 -537 429 -84 27 -119 36 -260 67 -31 7 -83 15 -275 42 -159 22 -2287 32 -2295 11z" fill="#a9a9aa" id="a9a9aa-000004" mask="url(#mask-2)"/>
    <path stroke="none" d="M41775 5998 c-3 -7 -4 -1077 -3 -2378 l3 -2365 315 0 315 0 3 2355 c1 1295 0 2365 -3 2378 l-5 22 -311 0 c-238 0 -311 -3 -314 -12z" fill="#a9a9aa" id="a9a9aa-000005" mask="url(#mask-3)"/>
    <path stroke="none" d="M45075 5997 c-3 -7 -4 -134 -3 -282 l3 -270 770 -5 770 -5 5 -2090 5 -2090 320 0 320 0 5 2090 5 2090 780 5 780 5 0 280 0 280 -1878 3 c-1509 2 -1879 0 -1882 -11z" fill="#a9a9aa" id="a9a9aa-000006" mask="url(#mask-3)"/>
    <path stroke="none" d="M52718 6003 c-9 -2 -21 -16 -26 -31 -47 -126 -86 -228 -100 -262 -5 -14 -24 -62 -41 -107 -17 -46 -45 -120 -62 -165 -17 -46 -36 -94 -41 -108 -6 -14 -14 -34 -18 -45 -4 -11 -12 -31 -18 -45 -5 -14 -20 -52 -32 -85 -12 -33 -27 -71 -32 -85 -26 -61 -39 -94 -68 -175 -22 -60 -30 -80 -51 -132 -15 -37 -23 -57 -49 -128 -12 -33 -26 -70 -31 -82 -5 -13 -13 -34 -19 -48 -5 -14 -14 -35 -19 -47 -5 -13 -19 -50 -31 -83 -28 -75 -34 -93 -50 -130 -16 -37 -22 -55 -50 -130 -12 -33 -27 -71 -32 -85 -6 -14 -14 -34 -18 -45 -4 -11 -12 -31 -18 -45 -5 -14 -20 -52 -32 -85 -12 -33 -26 -70 -31 -82 -5 -13 -13 -34 -19 -48 -5 -14 -14 -35 -19 -47 -5 -13 -19 -50 -31 -83 -12 -33 -26 -70 -31 -82 -9 -24 -23 -57 -38 -95 -5 -13 -14 -39 -21 -58 -7 -19 -17 -46 -22 -60 -6 -14 -14 -34 -18 -45 -5 -11 -27 -67 -49 -125 -23 -58 -41 -108 -41 -113 0 -4 -8 -26 -19 -50 -10 -23 -29 -69 -41 -102 -12 -33 -26 -70 -31 -82 -5 -13 -13 -33 -18 -45 -41 -101 -91 -234 -91 -241 0 -4 -8 -26 -19 -50 -10 -23 -29 -69 -41 -102 -27 -73 -34 -93 -48 -125 -30 -72 -92 -236 -92 -243 0 -4 -8 -26 -19 -50 -10 -23 -29 -69 -41 -102 -27 -73 -34 -93 -48 -125 -30 -72 -92 -236 -92 -243 0 -4 -9 -26 -19 -50 -29 -66 -51 -126 -51 -142 0 -13 45 -15 330 -15 l330 0 25 52 c14 28 25 57 25 64 0 6 9 33 19 60 11 27 29 76 41 109 12 33 26 69 30 80 4 11 13 36 20 55 7 19 16 44 21 55 4 11 15 40 23 65 8 25 22 65 31 90 9 25 26 70 37 100 11 30 24 64 28 75 4 11 13 36 20 55 7 19 16 44 21 55 4 11 15 40 23 65 8 25 22 65 31 90 9 25 26 70 37 100 11 30 24 64 28 75 5 11 19 49 31 85 12 36 29 75 37 88 l14 22 986 -2 c864 -3 986 -5 992 -18 11 -22 26 -60 40 -100 11 -33 16 -44 39 -102 5 -13 23 -61 41 -108 18 -47 36 -94 40 -105 4 -11 22 -58 40 -105 18 -47 36 -94 40 -105 4 -11 27 -69 50 -130 23 -60 46 -119 50 -130 4 -11 18 -47 30 -80 12 -33 26 -69 30 -80 4 -11 22 -58 40 -105 18 -47 37 -96 42 -110 13 -31 22 -55 39 -100 23 -63 1 -60 380 -60 l349 0 0 25 c0 14 -9 47 -21 73 -12 26 -26 58 -31 72 -6 14 -14 33 -19 42 -5 10 -9 22 -9 28 0 5 -11 33 -24 62 -13 29 -43 100 -66 158 -40 102 -50 125 -83 200 -9 19 -22 53 -30 75 -16 42 -118 296 -144 355 -8 19 -19 45 -24 58 -5 12 -13 32 -18 45 -5 12 -16 38 -24 57 -9 19 -34 82 -57 140 -23 58 -53 129 -66 158 -13 29 -24 57 -24 62 0 6 -10 32 -21 58 -37 82 -46 105 -89 212 -23 58 -48 121 -57 140 -8 19 -19 45 -24 58 -23 57 -32 78 -40 94 -5 10 -9 22 -9 28 0 5 -13 38 -29 72 -15 35 -34 81 -42 103 -7 22 -22 55 -31 73 -10 18 -18 37 -18 42 0 6 -10 32 -21 58 -38 84 -47 106 -62 147 -21 59 -78 198 -122 300 -23 54 -36 86 -45 110 -9 24 -23 58 -43 105 -9 19 -34 82 -57 140 -23 58 -53 129 -66 158 -13 29 -24 57 -24 62 0 6 -10 32 -21 58 -37 82 -46 105 -89 212 -23 58 -48 121 -57 140 -8 19 -19 45 -24 58 -23 57 -32 78 -40 94 -5 10 -9 22 -9 28 0 5 -13 38 -29 72 -15 35 -34 81 -42 103 -7 22 -22 55 -31 73 -10 18 -18 37 -18 42 0 6 -9 30 -20 55 -11 25 -29 65 -40 90 -11 25 -20 49 -20 55 0 6 -12 33 -26 60 l-26 50 -327 -1 c-179 -1 -333 -3 -343 -6z" fill="#a9a9aa" id="a9a9aa-000007" mask="url(#mask-3)"/>
    <path stroke="none" d="M57765 5998 c-3 -7 -4 -1077 -3 -2378 l3 -2365 1464 -3 c1046 -1 1468 1 1477 9 10 8 13 68 11 282 l-2 272 -1155 5 -1155 5 -5 2090 -5 2090 -313 3 c-245 2 -314 0 -317 -10z" fill="#a9a9aa" id="a9a9aa-000008"/>
  </g>
</svg>
