<?xml version="1.0" standalone="no"?>
<!DOCTYPE svg PUBLIC "-//W3C//DTD SVG 1.1//EN"
 "http://www.w3.org/Graphics/SVG/1.1/DTD/svg11.dtd">
<!-- Created with svg_stack (http://github.com/astraw/svg_stack) -->
<svg xmlns:sodipodi="http://sodipodi.sourceforge.net/DTD/sodipodi-0.dtd" xmlns="http://www.w3.org/2000/svg" version="1.1" width="322.0" height="246.0">
  <defs/>
  <g id="id0:id0" transform="matrix(1.25,0,0,1.25,0.0,0.0)"><g transform="translate(0.000000,196.800000) scale(0.040000,-0.040000)" fill="#303030" stroke="none">
<path d="M0 2460 l0 -2460 3220 0 3220 0 0 2460 0 2460 -3220 0 -3220 0 0 -2460z m1688 1935 c6 -26 -16 -43 -24 -19 -4 10 -14 23 -21 27 -7 5 -11 12 -8 17 9 14 50 -5 53 -25z m155 28 c4 -3 2 -12 -3 -18 -12 -15 -26 -242 -16 -278 4 -16 14 -27 29 -29 12 -2 21 -7 20 -13 -3 -11 -78 -19 -101 -10 -13 5 -13 8 2 23 13 15 16 43 16 160 0 85 -4 143 -10 147 -6 4 -8 11 -5 16 7 10 58 12 68 2z m813 -8 c10 -26 -6 -38 -27 -19 -10 9 -16 21 -13 25 8 14 34 10 40 -6z m1005 -5 c-3 -8 -7 -39 -9 -68 -3 -43 0 -56 14 -67 l19 -13 -18 -19 c-22 -25 -24 -125 -2 -143 21 -18 9 -30 -29 -30 -42 0 -49 8 -31 34 11 15 15 52 15 151 0 71 -4 137 -9 145 -14 21 -3 32 27 28 19 -2 26 -8 23 -18z m164 10 c11 -17 -5 -32 -21 -19 -7 6 -11 15 -8 20 7 12 21 11 29 -1z m398 -22 c31 -37 20 -105 -26 -155 -28 -32 -40 -18 -17 20 11 18 20 49 20 70 0 32 -5 41 -35 58 -19 12 -33 25 -30 30 9 14 69 -2 88 -23z m762 19 c20 -16 12 -24 -25 -27 -41 -4 -44 -1 -25 20 21 24 25 24 50 7z m-3491 -6 c3 -4 -4 -17 -16 -27 -69 -62 -61 -212 16 -267 17 -12 34 -23 39 -23 17 -3 18 -4 12 -14 -5 -8 -11 -7 -21 1 -8 6 -14 9 -14 5 0 -13 -59 25 -84 54 -61 73 -56 173 12 243 37 38 47 43 56 28z m796 -111 c18 -52 44 -121 60 -153 l27 -59 -24 -9 c-31 -12 -46 -3 -37 23 8 28 -24 95 -49 102 -17 4 -18 8 -8 20 19 23 -15 109 -40 101 -26 -9 -28 5 -7 54 16 38 21 43 32 30 8 -8 28 -57 46 -109z m645 110 c11 -17 -5 -32 -21 -19 -7 6 -11 15 -8 20 7 12 21 11 29 -1z m518 -9 c81 -53 96 -183 31 -268 -33 -43 -47 -34 -23 14 37 72 18 185 -40 237 -11 10 -18 23 -15 27 8 13 16 11 47 -10z m1112 -98 c8 -65 -2 -132 -26 -172 -22 -36 -47 -34 -27 2 21 37 15 188 -9 236 -26 53 -16 61 23 18 23 -25 34 -48 39 -84z m196 97 c-2 -8 -6 -72 -8 -142 -5 -106 -3 -131 10 -151 20 -30 14 -37 -33 -37 -46 0 -55 8 -33 33 26 28 33 260 9 286 -20 22 -10 33 29 29 21 -2 29 -8 26 -18z m372 13 c9 -14 -44 -116 -54 -106 -7 7 -6 20 2 37 10 21 10 32 2 46 -7 10 -9 21 -6 24 9 9 51 7 56 -1z m-2644 -40 c-14 -38 9 -67 81 -99 70 -31 100 -64 100 -108 0 -36 -26 -80 -42 -70 -6 4 -6 10 1 17 15 15 13 58 -3 79 -7 10 -42 31 -78 47 -93 41 -121 93 -82 149 20 29 36 19 23 -15z m279 2 c-16 -36 10 -69 80 -101 79 -36 102 -59 102 -104 0 -37 -25 -84 -40 -75 -5 3 -4 19 2 35 14 43 -10 76 -80 107 -77 34 -102 58 -102 101 0 35 25 76 41 66 5 -2 3 -16 -3 -29z m1615 -6 c-35 -70 -23 -204 24 -259 29 -35 15 -47 -21 -19 -43 34 -58 74 -58 158 0 67 3 83 26 120 30 47 53 47 29 0z m-1152 7 c-6 -7 -17 -31 -25 -54 -27 -75 18 -182 90 -217 25 -12 33 -20 26 -27 -27 -27 -109 27 -142 93 -30 58 -26 125 10 183 17 26 35 44 41 41 7 -5 7 -11 0 -19z m567 -122 c-24 -24 -44 -7 -22 17 12 13 21 16 28 9 7 -7 5 -15 -6 -26z m1240 -71 c-44 -108 -53 -122 -68 -107 -12 12 85 218 99 210 5 -3 -9 -50 -31 -103z m-2857 74 c-8 -8 -6 -16 6 -29 15 -16 14 -18 -8 -27 -32 -12 -44 1 -28 30 7 13 14 27 15 32 1 4 2 10 3 13 0 3 6 2 12 -2 8 -4 8 -9 0 -17z m-501 -151 c-17 -22 -32 -9 -19 16 8 14 14 17 22 9 7 -7 6 -15 -3 -25z m2490 4 c25 0 55 7 66 15 12 8 24 12 27 9 8 -8 -24 -67 -49 -89 -13 -11 -24 -31 -26 -45 -4 -37 -38 -37 -73 0 -22 23 -26 33 -17 42 20 20 14 28 -21 28 -47 0 -51 9 -21 41 25 26 29 27 48 14 11 -8 41 -15 66 -15z m-2026 -32 c-6 -9 -48 -11 -57 -2 -3 4 1 17 10 31 l17 25 17 -23 c10 -13 15 -27 13 -31z m359 21 c31 -7 18 -24 -16 -21 -38 3 -52 15 -43 38 6 15 8 15 24 1 9 -8 25 -17 35 -18z m280 0 c31 -7 18 -24 -16 -21 -38 3 -52 15 -43 38 6 15 8 15 24 1 9 -8 25 -17 35 -18z m-767 -14 c-4 -13 -17 -15 -58 -13 -62 4 -71 22 -13 26 22 2 44 8 50 13 13 13 29 -6 21 -26z m2160 -212 c27 -23 34 -35 34 -64 0 -20 -3 -39 -7 -42 -11 -11 -33 14 -33 38 0 35 -47 61 -77 42 -13 -8 -27 8 -18 23 3 5 12 7 19 4 7 -3 19 2 26 11 16 19 15 20 56 -12z m29 -194 c0 -32 -4 -44 -15 -44 -16 0 -26 54 -16 82 12 30 31 6 31 -38z m-135 -60 c0 -20 -55 -73 -69 -65 -6 4 -11 31 -11 60 0 28 -5 57 -12 64 -8 8 -8 15 2 27 11 13 17 9 51 -28 21 -23 38 -49 39 -58z m-2440 26 c-3 -11 -5 -184 -5 -385 0 -201 2 -376 5 -390 l5 -25 -85 0 c-71 0 -84 2 -80 15 10 30 11 760 1 779 -6 10 -7 21 -4 25 4 4 43 5 88 4 74 -3 80 -4 75 -23z m468 -59 c4 -96 -8 -114 -38 -56 -12 23 -39 61 -61 84 -21 24 -36 46 -32 50 4 4 34 6 68 4 l60 -3 3 -79z m378 76 c11 -7 228 -283 374 -476 41 -54 85 -105 98 -114 20 -13 22 -22 22 -118 0 -56 -4 -105 -9 -108 -7 -5 -225 276 -477 615 -27 37 -56 69 -66 72 -9 2 -25 24 -35 48 -11 24 -27 50 -36 58 -9 7 -14 17 -11 22 6 11 124 12 140 1z m546 2 c4 -3 -6 -28 -20 -56 -23 -44 -28 -48 -37 -33 -5 10 -20 32 -32 50 -12 19 -19 36 -15 39 7 8 97 8 104 0z m438 -393 c0 -282 3 -397 11 -407 17 -20 -5 -25 -90 -22 l-72 3 0 410 c1 226 1 411 1 413 0 2 34 2 76 0 l75 -3 -1 -394z m1204 -1 c0 -217 3 -402 6 -410 4 -12 -12 -16 -95 -21 -55 -4 -104 -3 -109 2 -5 5 5 16 23 26 26 15 31 23 27 44 -3 15 -2 29 1 33 9 9 11 286 1 292 -4 3 -8 16 -8 29 0 34 -18 40 -45 15 -27 -25 -99 -39 -110 -20 -4 7 1 21 13 33 18 17 23 18 37 7 14 -12 23 -7 67 37 l50 51 -13 28 c-10 20 -23 30 -42 32 -19 2 -31 11 -37 27 -5 13 -19 29 -31 35 -15 9 -18 15 -10 23 8 8 19 4 39 -16 34 -33 52 -34 79 -4 17 18 20 33 18 82 -1 33 0 64 2 68 3 4 34 7 70 5 l65 -3 2 -395z m361 364 c131 -61 161 -188 66 -276 -22 -21 -52 -40 -68 -43 -15 -3 -47 -15 -70 -25 -52 -24 -66 -10 -19 18 19 11 43 36 53 54 34 63 16 246 -27 273 -10 6 -5 25 6 25 3 0 30 -12 59 -26z m-3895 -54 c0 -32 -4 -61 -9 -64 -7 -5 -44 43 -60 78 -4 10 51 56 61 49 5 -2 8 -31 8 -63z m4640 0 c0 -59 -14 -87 -27 -53 -3 10 -15 31 -26 47 l-20 28 29 23 c16 13 32 21 36 18 5 -2 8 -31 8 -63z m-1897 12 c18 -20 14 -33 -9 -26 -47 14 -47 14 -34 29 16 19 23 19 43 -3z m-3202 -46 c-4 -76 44 -136 134 -169 68 -24 111 -37 125 -37 8 0 52 -12 99 -27 144 -44 189 -111 178 -259 -4 -54 -12 -82 -31 -113 -32 -50 -47 -46 -33 7 14 53 1 106 -35 148 -43 49 -90 70 -278 124 -148 43 -196 83 -219 185 -13 54 0 120 34 171 22 33 30 24 26 -30z m4640 5 c-5 -77 44 -141 134 -174 69 -25 111 -37 126 -37 8 0 52 -12 99 -27 137 -45 180 -102 180 -238 -1 -65 -18 -125 -45 -155 -23 -25 -37 -16 -25 16 15 39 12 84 -10 128 -23 47 -64 78 -135 102 -27 9 -59 21 -70 25 -11 4 -54 18 -95 29 -87 25 -167 66 -186 95 -7 11 -20 42 -29 68 -14 41 -14 56 -4 103 13 57 46 121 57 110 3 -4 5 -24 3 -45z m-1161 -15 c0 -8 -7 -19 -15 -26 -12 -10 -16 -9 -21 4 -7 18 13 49 27 40 5 -3 9 -11 9 -18z m-262 -77 c-4 -30 -33 -36 -59 -14 -20 19 -17 37 5 29 7 -3 19 2 26 11 17 20 33 5 28 -26z m335 -40 c-28 -28 -64 8 -48 48 5 14 10 13 33 -10 19 -20 23 -30 15 -38z m-2346 -142 c-1 -59 -6 -102 -12 -102 -5 0 -17 15 -26 34 -9 19 -28 40 -44 49 l-28 14 35 32 c19 17 40 44 46 59 21 51 32 19 29 -86z m2068 63 c4 -6 76 -10 184 -10 98 0 181 -3 184 -7 9 -8 -32 -53 -48 -53 -7 0 -20 -9 -30 -20 -10 -11 -23 -20 -28 -20 -6 0 -21 -10 -34 -22 -24 -23 -33 -91 -13 -103 6 -3 10 -17 10 -30 0 -13 5 -27 10 -30 6 -3 10 -21 10 -39 0 -17 5 -37 12 -44 9 -9 9 -15 0 -24 -9 -9 -19 -5 -45 20 -18 18 -38 32 -43 32 -6 0 -21 11 -34 25 -25 26 -74 55 -95 55 -7 0 -20 -9 -30 -20 -10 -11 -23 -20 -30 -20 -6 0 -24 -13 -40 -30 -16 -16 -34 -30 -41 -30 -6 0 -17 -7 -24 -15 -7 -8 -16 -12 -21 -9 -12 7 -11 51 1 59 6 3 10 17 10 30 0 13 5 27 10 30 6 3 10 31 10 62 0 44 -5 62 -22 80 -12 13 -26 23 -32 23 -5 0 -22 12 -37 26 -15 15 -38 32 -50 38 -45 23 -23 31 96 34 66 1 124 7 129 12 13 13 23 13 31 0z m-357 -62 c8 -8 15 -8 26 1 19 16 39 5 31 -18 -8 -26 30 -58 49 -42 19 16 39 5 32 -17 -3 -10 1 -29 8 -44 28 -53 -28 -116 -64 -73 -11 13 -9 20 10 41 l24 24 -53 54 c-36 36 -59 52 -71 49 -20 -5 -35 11 -25 27 8 13 18 13 33 -2z m1460 -96 c34 -49 52 -121 52 -212 0 -59 5 -92 15 -106 18 -26 11 -34 -30 -34 -38 0 -78 29 -94 67 -11 28 -33 331 -24 346 6 10 58 -28 81 -61z m-578 2 c0 -16 -8 -27 -22 -33 -13 -5 -31 -18 -42 -30 -21 -24 -36 -19 -36 11 0 24 27 58 45 58 7 0 18 7 25 15 16 19 30 10 30 -21z m-216 -35 c-3 -5 -10 -7 -15 -3 -5 3 -7 10 -3 15 3 5 10 7 15 3 5 -3 7 -10 3 -15z m-620 -48 c9 -14 -22 -34 -40 -27 -13 5 -14 9 -4 21 14 17 36 20 44 6z m1680 -47 c4 -14 16 -46 28 -70 l20 -44 -33 -37 c-18 -21 -35 -38 -38 -38 -7 0 -10 206 -4 218 7 13 20 -1 27 -29z m-4644 3 c0 -7 11 -34 24 -62 l23 -50 -30 -42 c-16 -23 -34 -40 -38 -37 -10 6 -12 197 -3 207 9 9 24 -1 24 -16z m3656 -56 c-15 -17 -16 -24 -7 -35 13 -15 7 -36 -9 -36 -25 0 -54 123 -33 144 4 3 20 -7 37 -23 l30 -30 -18 -20z m-2188 -52 l-3 -104 -84 -3 c-94 -3 -120 8 -73 32 32 17 91 81 109 118 6 13 16 36 22 52 21 51 32 15 29 -95z m2252 86 c0 -19 -20 -29 -32 -17 -8 8 -7 16 2 26 14 17 30 12 30 -9z m-421 -91 c-6 -7 -15 -11 -21 -8 -5 3 -4 12 3 20 6 7 15 11 21 8 5 -3 4 -12 -3 -20z m-1520 -65 c11 -15 17 -29 14 -33 -9 -9 -121 -8 -127 2 -2 4 6 18 20 31 13 13 24 31 24 40 0 30 14 33 32 9 9 -13 26 -35 37 -49z m2019 17 c-2 -12 -10 -21 -18 -21 -16 0 -25 28 -16 52 9 23 38 -4 34 -31z m-561 -3 c3 -10 15 -28 25 -39 11 -13 15 -24 10 -28 -5 -3 -15 1 -22 9 -7 8 -23 15 -36 15 -31 0 -39 17 -18 41 21 24 33 24 41 2z m223 -18 c11 -13 9 -20 -10 -40 -24 -25 -54 -33 -64 -16 -3 5 1 23 10 40 17 34 44 40 64 16z m115 -76 c4 -6 -2 -20 -13 -32 -11 -12 -22 -33 -24 -47 -2 -19 -9 -25 -28 -25 -37 0 -41 41 -6 55 15 5 31 21 36 35 10 26 24 32 35 14z m-217 -39 c2 -14 13 -35 24 -47 21 -23 21 -58 0 -58 -15 0 -73 115 -65 128 10 16 38 1 41 -23z m-142 -1 c10 -17 -13 -36 -27 -22 -12 12 -4 33 11 33 5 0 12 -5 16 -11z m-164 -61 c-16 -16 -37 4 -28 28 6 16 8 16 23 1 13 -13 15 -19 5 -29z m587 -21 c6 -8 8 -17 4 -20 -10 -11 -51 -8 -58 3 -17 27 33 42 54 17z m-2324 -217 c3 -5 1 -19 -6 -32 -11 -20 -13 -20 -24 -5 -9 13 -28 17 -77 17 -60 0 -66 -2 -72 -22 -3 -13 -6 -100 -6 -195 l0 -172 21 -11 c29 -16 17 -23 -41 -25 -50 -2 -75 10 -47 21 11 4 16 38 20 152 3 81 3 170 -1 197 l-7 50 -63 3 c-36 2 -69 -2 -77 -8 -16 -13 -30 3 -21 25 4 12 39 15 200 15 116 0 197 -4 201 -10z m548 4 c3 -4 0 -16 -8 -28 -9 -14 -15 -76 -20 -189 -6 -144 -5 -171 9 -192 19 -28 14 -32 -39 -35 -59 -3 -61 -2 -37 20 l22 21 0 183 c0 150 -3 186 -15 196 -8 7 -12 16 -9 21 6 10 87 12 97 3z m382 -4 c3 -6 0 -13 -8 -16 -9 -3 -17 -28 -21 -70 -7 -70 5 -110 30 -100 9 3 18 -2 22 -12 8 -20 158 -164 215 -206 46 -34 38 -49 -24 -44 -38 3 -44 6 -51 33 -6 20 -34 51 -85 93 -42 34 -82 62 -89 62 -33 0 -27 -144 7 -168 13 -9 16 -18 10 -35 -8 -22 -30 -31 -32 -12 -2 22 -24 37 -51 33 -35 -6 -46 7 -18 22 l20 11 0 194 c0 120 -4 196 -10 200 -6 4 -8 11 -5 16 8 12 82 12 90 -1z m209 2 c7 -11 -62 -64 -74 -57 -5 3 -7 12 -4 19 3 8 0 17 -5 21 -6 3 -9 11 -6 16 7 11 82 12 89 1z m421 -2 c3 -6 0 -13 -8 -16 -11 -4 -15 -42 -21 -173 -7 -199 -3 -229 30 -233 42 -5 31 -23 -16 -28 -39 -4 -45 -8 -43 -27 1 -11 -4 -26 -11 -32 -8 -7 -12 -21 -9 -31 6 -21 -18 -37 -37 -25 -8 5 -6 13 5 25 9 10 14 24 10 30 -4 6 0 19 9 29 14 16 15 20 2 30 -12 10 -12 16 0 39 16 31 20 367 5 392 -6 8 -7 18 -5 22 7 12 82 10 89 -2z m380 1 c3 -6 -1 -13 -9 -18 -10 -6 -17 -34 -22 -88 -5 -68 -4 -83 10 -94 15 -13 15 -15 0 -32 -13 -15 -16 -33 -12 -92 3 -41 8 -79 12 -85 5 -8 38 -12 90 -12 76 0 86 2 109 25 31 32 44 17 22 -25 l-16 -30 -117 -1 c-181 -2 -194 1 -165 33 16 18 18 40 18 203 0 130 -4 186 -12 197 -7 8 -10 18 -6 21 10 11 91 8 98 -2z m191 -6 c4 -8 3 -23 -1 -32 l-6 -18 -13 18 c-7 9 -20 17 -29 17 -18 0 -30 14 -20 24 13 12 64 6 69 -9z m165 -19 c-55 -59 -31 -120 68 -165 82 -36 117 -72 124 -128 7 -55 -31 -122 -56 -97 -3 4 1 17 10 31 13 20 14 30 4 63 -11 36 -18 42 -96 79 -96 46 -118 72 -118 137 0 37 5 50 33 79 35 36 65 38 31 1z m175 19 c4 -8 3 -22 0 -31 -6 -15 -8 -15 -24 -2 -9 8 -25 18 -35 21 -26 10 -11 27 24 27 17 0 32 -6 35 -15z m168 -6 c-3 -5 -10 -7 -15 -3 -5 3 -7 10 -3 15 3 5 10 7 15 3 5 -3 7 -10 3 -15z m164 -8 c5 -30 -15 -52 -24 -27 -4 10 -18 22 -31 27 -33 12 -19 31 20 27 25 -2 33 -8 35 -27z m-2544 -173 c35 -103 71 -199 80 -213 14 -22 15 -26 2 -31 -8 -3 -27 -4 -43 -2 -23 2 -27 7 -25 26 5 34 -27 121 -49 133 -15 8 -17 14 -9 28 7 13 5 33 -7 67 -19 59 -32 77 -49 70 -22 -8 -24 8 -8 54 19 54 23 62 35 58 5 -2 38 -87 73 -190z m2344 134 c-22 -57 -4 -81 97 -132 105 -53 132 -89 120 -159 -6 -38 -39 -80 -66 -85 -8 -2 -22 -6 -32 -11 -10 -4 -41 -4 -70 -1 -29 4 -63 8 -77 9 -26 2 -37 25 -25 55 6 15 8 15 18 2 17 -22 64 -39 119 -42 63 -3 88 19 88 77 0 51 -20 72 -110 114 -36 16 -74 39 -85 51 -25 28 -26 106 -1 143 24 35 40 22 24 -21z m-1599 -78 c-18 -18 -36 -31 -41 -27 -6 3 5 20 23 39 18 18 36 31 41 27 6 -3 -5 -20 -23 -39z m1091 -79 c0 -21 -16 -26 -46 -15 -29 11 -24 25 11 32 25 6 35 1 35 -17z m-1975 -35 l18 -19 -29 -11 c-16 -6 -31 -11 -34 -10 -11 3 12 60 25 60 1 0 10 -9 20 -20z m-51 -81 c-3 -5 -10 -7 -15 -3 -5 3 -7 10 -3 15 3 5 10 7 15 3 5 -3 7 -10 3 -15z m-14 -64 c0 -12 7 -26 16 -29 28 -11 5 -24 -39 -23 -44 2 -45 3 -14 54 21 36 37 35 37 -2z m701 11 c-6 -7 -8 -15 -5 -19 3 -3 0 -15 -6 -27 -10 -18 -19 -21 -73 -18 -70 3 -82 20 -22 29 48 7 96 26 94 36 -3 17 2 24 11 18 8 -5 8 -11 1 -19z m1573 -37 c17 -1 40 -2 51 -3 11 -1 21 -5 23 -11 2 -10 -92 -12 -153 -4 -30 4 -42 26 -31 55 4 11 13 9 42 -11 20 -14 51 -26 68 -26z m-572 -4 c-11 -24 -16 -26 -65 -23 -58 3 -69 19 -20 29 18 3 43 13 55 22 30 20 45 6 30 -28z m-2352 -40 c10 -12 9 -16 -5 -21 -19 -8 -40 9 -31 25 10 15 21 14 36 -4z m215 -25 c0 -18 -33 -26 -47 -12 -6 6 -7 15 -3 22 10 16 50 8 50 -10z m1456 -13 c-7 -7 -15 -6 -25 3 -22 17 -9 32 16 19 14 -8 17 -14 9 -22z m-316 -28 c0 -30 -3 -34 -25 -34 -31 0 -38 29 -14 56 24 27 39 19 39 -22z m629 2 c21 -23 14 -41 -15 -41 -22 0 -34 22 -25 45 7 20 19 19 40 -4z m1500 10 c9 -15 -23 -36 -36 -23 -5 5 -7 15 -4 21 9 13 33 14 40 2z m-992 -83 c-16 -16 -37 4 -28 28 6 16 8 16 23 1 13 -13 15 -19 5 -29z m-2497 2 c0 -18 -6 -26 -23 -28 -24 -4 -38 18 -28 44 3 9 15 14 28 12 17 -2 23 -10 23 -28z m120 -11 c0 -24 -5 -34 -15 -34 -16 0 -25 37 -16 62 10 26 31 8 31 -28z m3525 26 c10 -12 9 -16 -5 -21 -19 -8 -40 9 -31 25 10 15 21 14 36 -4z m-2145 -15 c4 -6 15 -8 24 -5 24 7 49 -21 33 -37 -9 -9 -16 -8 -29 4 -20 17 -29 16 -90 -14 -42 -21 -78 -18 -71 5 3 6 16 13 30 15 14 2 34 12 44 23 19 21 49 25 59 9z m283 -14 c7 -33 -15 -42 -43 -16 -29 27 -24 42 13 38 17 -2 28 -10 30 -22z m447 4 c11 -10 31 -20 44 -22 14 -1 26 -9 29 -15 6 -19 -27 -28 -49 -15 -10 7 -26 12 -36 12 -9 0 -27 10 -40 22 l-23 21 -19 -17 c-20 -18 -37 -7 -28 18 8 21 98 18 122 -4z m890 -20 c0 -13 -25 -15 -149 -18 -140 -2 -176 3 -163 25 3 5 74 8 159 8 129 0 153 -2 153 -15z m-1435 -19 c0 -9 5 -22 11 -28 6 -6 7 -13 1 -17 -5 -3 -19 6 -32 19 -19 20 -21 27 -10 40 15 18 30 11 30 -14z m-1654 -85 c-16 -34 -39 -46 -50 -27 -3 5 1 14 9 21 8 7 15 18 15 24 0 19 23 37 33 27 6 -6 4 -23 -7 -45z m1895 -41 c-4 -43 -10 -49 -31 -30 -10 9 -27 15 -38 13 -12 -2 -28 7 -40 22 l-20 25 36 31 37 31 29 -31 c22 -23 29 -39 27 -61z m1724 56 c7 -12 -12 -24 -25 -16 -11 7 -4 25 10 25 5 0 11 -4 15 -9z m-1947 -45 c7 -4 10 -12 6 -17 -4 -6 -11 -6 -20 2 -24 19 -52 -13 -46 -53 6 -40 19 -59 41 -56 12 2 16 -5 16 -26 0 -34 -22 -47 -31 -19 -21 58 -84 81 -119 43 -22 -24 -106 -28 -124 -7 -14 18 -4 27 30 27 15 0 31 5 35 11 3 6 19 9 34 5 18 -3 33 0 40 9 7 8 18 15 25 15 6 0 20 9 30 20 10 11 14 20 10 20 -4 0 -1 8 8 18 17 19 42 22 65 8z m420 -10 c6 -30 -11 -38 -46 -20 -18 8 -32 19 -32 23 0 29 73 26 78 -3z m57 -66 c3 -5 26 -10 49 -10 57 0 76 -21 42 -44 -14 -9 -36 -16 -49 -16 -27 0 -82 53 -73 69 9 14 23 14 31 1z m-980 -30 c0 -13 -25 -15 -154 -17 -94 -1 -158 -6 -164 -12 -18 -18 -282 -15 -296 3 -8 10 -9 16 -2 21 6 3 79 5 162 4 100 0 155 3 162 10 8 8 58 11 152 9 117 -3 140 -6 140 -18z m-940 -11 c4 -5 -1 -19 -11 -30 -13 -15 -30 -19 -79 -19 -49 0 -66 -4 -80 -20 -10 -11 -23 -20 -30 -20 -7 0 -20 -9 -30 -20 -13 -14 -29 -20 -49 -18 l-31 3 0 45 0 45 46 3 c31 2 53 10 64 23 15 16 32 19 106 19 51 0 91 -4 94 -11z m2228 4 c10 -10 -13 -33 -33 -33 -20 0 -43 23 -33 33 3 4 18 7 33 7 15 0 30 -3 33 -7z m1173 -4 c3 -6 -3 -21 -15 -32 l-21 -21 -21 21 c-26 26 -18 43 21 43 16 0 32 -5 36 -11z m-1608 -46 c-16 -15 -18 -15 -24 0 -3 9 -3 25 0 34 6 15 8 15 24 0 15 -16 15 -18 0 -34z m-1742 -14 c3 -6 16 -8 29 -5 25 6 54 -17 35 -29 -5 -3 -14 -3 -20 0 -5 3 -24 -2 -42 -12 -18 -9 -37 -17 -43 -17 -5 -1 -19 -6 -30 -13 -17 -10 -18 -15 -8 -32 11 -17 10 -22 -6 -30 -30 -17 -35 -80 -9 -116 39 -53 182 -220 200 -233 10 -7 16 -17 13 -22 -3 -5 1 -34 9 -65 11 -43 12 -63 3 -92 -13 -43 -68 -99 -103 -106 -34 -6 -40 9 -10 28 37 25 57 84 45 131 -6 22 -19 48 -29 59 -9 11 -20 35 -24 54 -7 39 -34 77 -122 173 -70 76 -80 111 -57 190 10 34 24 55 51 75 20 15 40 33 45 40 4 7 14 10 21 7 7 -3 16 2 19 10 7 18 23 21 33 5z m1561 -11 c13 -12 23 -27 23 -34 0 -6 7 -17 15 -24 8 -7 12 -17 9 -22 -3 -5 -13 -3 -23 6 -10 9 -27 16 -38 16 -11 0 -28 9 -38 20 l-18 20 18 20 c23 25 24 25 52 -2z m-689 -12 c30 -18 -8 -26 -123 -26 -115 0 -145 6 -131 28 6 10 237 9 254 -2z m1957 4 c3 -5 39 -10 79 -10 49 0 77 -4 85 -13 6 -8 8 -17 4 -20 -3 -4 -185 -7 -404 -7 -254 0 -400 -4 -404 -10 -7 -11 -88 -14 -98 -3 -13 13 16 33 49 33 18 0 36 5 39 10 4 6 68 10 160 10 92 0 156 4 160 10 4 6 70 10 165 10 95 0 161 -4 165 -10z m-1574 -71 c-8 -39 -24 -38 -32 0 -4 17 -11 37 -18 44 -19 23 0 27 29 6 22 -17 26 -26 21 -50z m-118 45 c3 -3 -3 -20 -13 -37 -47 -81 -85 -283 -85 -448 0 -97 3 -120 18 -136 19 -21 14 -33 -14 -33 -27 0 -49 40 -55 101 -3 30 -11 64 -17 77 -8 17 -8 25 1 34 7 7 12 28 12 48 0 45 36 210 55 257 8 20 15 45 15 56 0 12 14 36 32 54 32 34 40 38 51 27z m292 -14 c10 -16 -16 -43 -28 -31 -11 11 -2 41 12 41 5 0 13 -5 16 -10z m460 -1 c4 -6 -2 -21 -14 -33 -12 -12 -21 -27 -21 -34 0 -24 -23 -23 -51 4 -28 27 -37 53 -22 67 11 11 101 8 108 -4z m-501 -80 c-3 -5 -10 -7 -15 -3 -5 3 -7 10 -3 15 3 5 10 7 15 3 5 -3 7 -10 3 -15z m322 0 c10 -17 -13 -36 -27 -22 -12 12 -4 33 11 33 5 0 12 -5 16 -11z m612 -41 c17 -17 15 -122 -4 -259 -25 -183 -28 -247 -10 -274 17 -26 12 -35 -19 -35 -78 0 -84 145 -20 460 8 41 15 82 14 90 -1 8 -1 18 0 23 2 11 26 8 39 -5z m-129 -44 c-6 -7 -15 -11 -21 -8 -5 3 -4 12 3 20 6 7 15 11 21 8 5 -3 4 -12 -3 -20z m-1335 -35 c-3 -5 -10 -7 -15 -3 -5 3 -7 10 -3 15 3 5 10 7 15 3 5 -3 7 -10 3 -15z m1002 0 c15 -17 19 -36 19 -93 0 -57 3 -72 17 -78 14 -6 15 -12 7 -40 -14 -44 -29 -105 -36 -146 -3 -18 -9 -35 -14 -38 -5 -3 -9 -18 -9 -33 0 -15 -6 -36 -14 -46 -12 -16 -16 -17 -30 -6 -20 16 -20 70 -5 298 8 119 8 167 0 177 -26 31 36 36 65 5z m-1165 -9 c25 -14 25 -68 0 -114 -37 -65 -68 -247 -51 -295 3 -7 -1 -16 -8 -18 -7 -3 -19 11 -28 34 -22 50 -13 146 22 244 35 100 38 117 25 132 -20 24 6 35 40 17z m-388 -106 c-5 -66 -4 -76 13 -88 l19 -14 -21 -49 c-16 -39 -24 -48 -44 -48 l-25 0 1 80 c2 70 15 161 30 204 3 10 7 11 19 1 12 -10 13 -28 8 -86z m2447 75 c-11 -34 -3 -90 18 -118 25 -35 14 -49 -21 -26 -24 15 -47 54 -47 79 0 27 31 87 43 83 7 -3 10 -11 7 -18z m-616 -10 c-3 -5 -10 -7 -15 -3 -5 3 -7 10 -3 15 3 5 10 7 15 3 5 -3 7 -10 3 -15z m-1644 -52 c0 -24 5 -48 11 -54 9 -9 4 -24 -17 -60 -16 -26 -34 -61 -41 -76 -32 -73 -42 25 -13 121 7 20 16 50 21 66 5 18 5 34 -1 41 -14 17 -1 26 21 14 14 -7 19 -21 19 -52z m790 33 c-21 -40 -37 -244 -21 -264 7 -8 8 -17 3 -19 -14 -10 -57 18 -60 38 -2 11 -8 30 -14 41 -7 15 -7 28 1 42 6 11 11 32 11 45 0 33 27 97 52 124 24 26 43 21 28 -7z m768 18 c7 -7 12 -20 12 -30 0 -20 15 -24 25 -8 4 6 10 8 15 5 5 -3 0 -31 -10 -63 -10 -31 -28 -91 -41 -132 -30 -103 -37 -114 -55 -99 -11 9 -14 42 -14 146 0 112 -2 134 -14 130 -27 -10 -26 7 1 35 28 30 61 36 81 16z m997 -32 c-4 -11 -8 -34 -10 -51 -1 -16 -8 -59 -14 -95 -9 -54 -8 -68 5 -87 21 -33 9 -46 -26 -28 -16 8 -31 19 -34 24 -6 8 8 138 19 186 8 34 45 86 56 79 6 -3 8 -16 4 -28z m-523 1 c-13 -15 -60 -154 -64 -187 -2 -14 -10 -25 -18 -25 -12 0 -14 11 -11 55 4 66 23 115 58 152 25 26 55 30 35 5z m-1662 -112 c0 -116 -12 -152 -31 -97 -6 17 -17 33 -25 36 -13 5 -13 9 1 36 8 16 18 51 21 77 8 63 12 76 24 68 6 -4 10 -54 10 -120z m1723 99 c9 -10 -22 -66 -33 -59 -14 9 -12 39 2 53 13 13 22 15 31 6z m-19 -95 c-3 -5 -10 -7 -15 -3 -5 3 -7 10 -3 15 3 5 10 7 15 3 5 -3 7 -10 3 -15z m279 -60 c-1 -19 -5 -66 -8 -105 -5 -47 -4 -78 4 -93 10 -17 9 -22 -4 -28 -9 -3 -24 2 -33 11 -18 18 -20 68 -9 201 4 39 7 72 7 74 0 2 10 -3 23 -12 16 -11 22 -23 20 -48z m-229 20 c-3 -5 -10 -7 -15 -3 -5 3 -7 10 -3 15 3 5 10 7 15 3 5 -3 7 -10 3 -15z"/>
</g>
</g>
  <g id="id1:id1" transform="matrix(1.25,0,0,1.25,0.0,0.0)"><g transform="translate(0.000000,196.800000) scale(0.040000,-0.040000)" fill="#fdfdfd" stroke="none">
<path d="M2206 4409 c-21 -58 -14 -75 27 -60 38 15 48 40 32 79 -20 46 -38 40 -59 -19z"/>
<path d="M2761 4415 c-43 -40 -51 -54 -51 -83 0 -43 47 -91 109 -112 23 -7 50 -24 60 -36 39 -49 98 -39 86 15 -8 37 -50 71 -119 96 -55 21 -75 50 -57 84 22 41 121 19 121 -27 0 -16 16 -23 34 -16 12 4 16 20 16 54 0 27 -4 51 -8 54 -5 3 -38 8 -74 12 l-66 7 -51 -48z"/>
<path d="M3264 4445 c-35 -16 -101 -85 -114 -121 -26 -66 0 -173 51 -221 28 -25 89 -53 118 -53 20 0 33 22 26 43 -3 7 -19 18 -36 26 -17 7 -44 32 -60 54 -24 33 -29 50 -29 100 0 54 3 62 34 93 27 27 42 34 72 34 66 0 124 -59 139 -143 8 -41 32 -55 65 -37 19 10 21 17 15 53 -13 78 -53 135 -117 168 -43 22 -118 24 -164 4z"/>
<path d="M3567 4453 c-12 -11 -7 -36 11 -56 14 -16 17 -39 17 -149 0 -112 -2 -131 -17 -142 -21 -15 -24 -46 -5 -47 25 -1 123 -1 140 0 25 1 21 28 -8 47 -23 15 -26 23 -23 68 l3 51 39 3 c32 3 43 -1 57 -19 15 -20 19 -21 34 -9 24 20 17 103 -9 108 -10 2 -23 -2 -27 -10 -6 -11 -20 -13 -51 -9 l-43 6 0 50 0 50 50 0 c43 0 51 -3 60 -23 17 -38 49 -25 53 21 5 63 -4 67 -148 67 -69 0 -130 -3 -133 -7z"/>
<path d="M2482 4434 c-26 -18 -52 -65 -52 -94 0 -45 29 -78 97 -112 40 -19 73 -43 82 -60 24 -41 55 -51 93 -30 43 24 45 38 8 50 -16 6 -30 18 -30 26 0 20 -54 59 -114 81 -55 21 -75 50 -57 84 7 11 21 21 31 21 25 0 25 12 2 33 -23 21 -32 21 -60 1z"/>
<path d="M4110 4443 c-36 -14 -70 -46 -70 -64 0 -28 24 -34 59 -13 25 15 35 16 55 6 15 -6 26 -18 26 -26 0 -22 28 -39 55 -32 20 5 25 13 25 39 0 51 -37 88 -90 93 -25 2 -52 1 -60 -3z"/>
<path d="M4730 4443 c-78 -6 -92 -11 -88 -36 2 -12 11 -23 23 -25 11 -2 29 -12 40 -22 25 -23 75 -16 75 10 0 10 10 24 22 32 25 17 19 49 -9 46 -10 -1 -38 -3 -63 -5z"/>
<path d="M5000 4431 c-16 -31 -2 -51 35 -51 19 0 37 -4 40 -10 12 -20 66 -6 82 21 28 47 13 59 -71 59 -64 0 -77 -3 -86 -19z"/>
<path d="M4460 4416 c0 -13 6 -29 14 -35 32 -27 46 -182 22 -241 -9 -22 31 -45 50 -29 24 19 47 117 41 170 -10 82 -60 159 -104 159 -18 0 -23 -6 -23 -24z"/>
<path d="M1408 4383 c-30 -34 -38 -62 -38 -126 0 -47 5 -71 18 -87 16 -20 19 -21 31 -6 7 9 19 16 27 16 9 0 11 13 7 54 -3 31 0 69 7 90 10 32 10 40 -6 57 -21 23 -27 24 -46 2z"/>
<path d="M5064 4308 c-12 -5 -28 -25 -37 -43 -14 -28 -14 -35 -2 -45 20 -17 51 3 64 41 20 58 15 67 -25 47z"/>
<path d="M2284 4279 c-3 -5 -15 -7 -25 -4 -16 5 -20 3 -17 -12 2 -12 -4 -19 -20 -21 -19 -3 -23 -9 -20 -30 2 -22 9 -28 36 -30 24 -3 36 -11 48 -34 11 -22 13 -33 5 -41 -6 -6 -11 -19 -11 -29 0 -16 10 -18 99 -17 93 1 100 2 105 22 6 23 -29 107 -45 107 -13 0 -30 -37 -23 -54 3 -8 3 -20 -1 -26 -12 -20 -32 7 -65 90 -30 75 -52 101 -66 79z"/>
<path d="M4318 4243 c-21 -5 -23 -26 -5 -42 11 -8 18 -6 31 8 10 11 15 25 11 30 -6 11 -9 12 -37 4z"/>
<path d="M4708 4219 c-13 -7 -18 -23 -18 -55 0 -38 -4 -46 -25 -56 -27 -12 -34 -48 -10 -48 9 0 29 7 46 15 27 15 31 14 58 -6 19 -14 36 -19 50 -14 30 9 26 41 -6 57 -24 11 -29 20 -31 58 -4 57 -25 72 -64 49z"/>
<path d="M4240 4155 c-13 -14 -29 -25 -35 -25 -7 0 -20 -9 -30 -20 l-19 -21 20 -19 c34 -35 64 -30 90 15 26 45 32 95 11 95 -8 0 -24 -11 -37 -25z"/>
<path d="M2244 3691 c-14 -14 2 -32 41 -47 26 -9 54 -27 63 -38 20 -24 62 -50 69 -43 2 3 -1 14 -8 25 -15 24 2 52 31 52 20 0 44 24 38 40 -3 10 -224 20 -234 11z"/>
<path d="M3015 3675 c-22 -14 -47 -22 -57 -19 -20 6 -33 -12 -21 -29 5 -7 10 -70 12 -142 3 -137 4 -145 25 -145 10 0 15 29 18 115 5 126 15 153 74 185 34 19 39 54 9 57 -11 2 -38 -8 -60 -22z"/>
<path d="M3449 3693 c-20 -2 -45 -13 -55 -24 l-17 -19 23 -25 c13 -14 30 -23 37 -20 8 2 16 -2 19 -10 9 -24 24 -17 24 10 0 17 9 29 31 40 19 10 29 22 27 33 -3 18 -27 22 -89 15z"/>
<path d="M4444 3691 c-13 -13 0 -33 30 -45 26 -11 35 -21 38 -42 5 -46 25 -43 62 10 19 28 56 5 56 -36 0 -27 3 -30 23 -24 12 3 25 6 30 6 4 0 7 17 7 38 0 21 7 48 16 60 9 13 13 26 10 29 -6 7 -265 10 -272 4z"/>
<path d="M4843 3684 c-7 -18 10 -32 49 -40 38 -9 77 -47 84 -83 5 -25 11 -30 31 -29 22 2 57 28 37 28 -4 0 3 11 16 24 12 14 20 31 17 38 -7 21 -85 55 -151 67 -76 14 -75 14 -83 -5z"/>
<path d="M5376 3680 c-54 -27 -83 -56 -117 -115 -37 -65 -41 -140 -7 -148 l22 -6 -19 -21 c-16 -18 -17 -23 -5 -45 7 -14 24 -32 38 -41 22 -14 26 -15 40 0 14 14 14 17 -1 34 -9 10 -14 22 -10 25 3 4 -2 13 -12 21 -13 9 -15 15 -6 20 7 5 31 -8 59 -31 27 -22 67 -43 97 -51 27 -7 55 -20 62 -29 9 -11 16 -13 25 -6 7 5 22 8 33 8 35 -3 115 -45 115 -60 0 -17 26 -20 35 -4 10 15 52 -27 58 -57 6 -32 -1 -36 -29 -18 -13 9 -20 22 -17 30 4 11 -2 13 -26 8 -19 -4 -37 -2 -47 7 -9 7 -28 13 -42 14 -20 0 -26 5 -24 18 3 20 -14 47 -30 47 -6 0 -8 -7 -5 -15 10 -25 -12 -27 -43 -5 -16 12 -38 20 -48 18 -11 -2 -26 3 -35 11 -10 7 -17 10 -17 6 0 -4 -12 0 -26 10 -14 9 -27 15 -28 13 -9 -10 -14 -55 -8 -63 17 -25 118 -64 177 -69 19 -2 40 -8 47 -13 7 -6 37 -21 65 -33 29 -12 69 -40 89 -62 l36 -41 -4 -58 c-4 -49 -1 -60 12 -64 52 -17 85 47 85 165 0 103 -26 168 -84 205 -50 32 -158 68 -187 62 -14 -2 -28 1 -32 7 -4 6 -34 20 -67 31 -118 38 -165 81 -165 151 0 46 25 86 69 109 44 22 140 27 181 8 84 -39 148 -113 171 -198 12 -41 45 -47 43 -7 0 12 -1 72 -2 132 -2 120 -9 131 -52 85 -29 -30 -41 -31 -94 -4 -22 12 -49 25 -58 30 -34 17 -170 10 -212 -11z"/>
<path d="M1500 3610 c0 -5 5 -10 10 -10 6 0 10 5 10 10 0 6 -4 10 -10 10 -5 0 -10 -4 -10 -10z"/>
<path d="M2490 3603 c0 -7 73 -83 80 -83 12 0 6 56 -8 73 -11 13 -72 21 -72 10z"/>
<path d="M5072 3567 c-22 -23 -17 -51 8 -45 17 4 20 -21 7 -40 -7 -8 -7 -16 0 -23 11 -11 6 -56 -8 -64 -11 -8 -30 31 -23 48 3 8 -2 17 -12 21 -13 5 -14 9 -4 22 10 12 11 17 1 27 -17 17 -50 -28 -51 -68 0 -16 -8 -48 -18 -70 -10 -22 -16 -47 -14 -57 4 -19 29 -31 45 -21 7 4 20 6 30 4 13 -2 18 3 15 16 -3 22 2 26 23 18 20 -7 74 42 89 79 5 15 10 43 10 62 0 28 -5 36 -26 44 -20 8 -24 15 -19 31 5 14 2 25 -6 30 -20 12 -23 11 -47 -14z"/>
<path d="M1500 3430 c0 -5 5 -10 10 -10 6 0 10 5 10 10 0 6 -4 10 -10 10 -5 0 -10 -4 -10 -10z"/>
<path d="M1800 3325 c-7 -8 -28 -17 -47 -21 -27 -5 -33 -11 -31 -27 2 -15 13 -23 35 -28 38 -8 63 -26 63 -45 0 -19 24 -18 40 1 7 8 19 15 26 15 9 0 14 12 14 34 0 62 -68 110 -100 71z"/>
<path d="M4937 3246 c-2 -6 -1 -20 4 -31 4 -11 8 -44 8 -72 1 -57 2 -58 29 -44 24 13 56 23 62 19 3 -2 5 -14 5 -28 0 -14 3 -25 6 -25 4 0 16 -8 26 -18 23 -20 33 -13 33 24 0 72 -83 182 -140 185 -16 1 -31 -3 -33 -10z"/>
<path d="M4623 3180 c-1 -33 2 -60 6 -60 13 1 61 50 61 62 0 23 -30 58 -49 58 -15 0 -18 -9 -18 -60z"/>
<path d="M5270 3006 c0 -119 4 -177 11 -182 7 -4 16 1 21 10 5 9 20 28 33 44 l23 27 24 -22 c37 -34 96 -63 128 -63 36 0 41 25 8 35 -106 31 -167 108 -204 258 -11 42 -22 67 -30 67 -11 0 -14 -34 -14 -174z"/>
<path d="M5040 3030 c0 -5 5 -10 10 -10 6 0 10 5 10 10 0 6 -4 10 -10 10 -5 0 -10 -4 -10 -10z"/>
<path d="M1157 2992 c-15 -15 -27 -33 -27 -40 0 -20 -62 -83 -97 -97 -41 -18 -39 -41 3 -37 64 8 152 82 160 136 2 12 5 30 6 40 5 30 -15 29 -45 -2z"/>
<path d="M5040 2975 c0 -3 7 -16 15 -28 10 -16 12 -32 6 -59 -10 -45 8 -70 34 -48 13 10 19 10 33 -4 27 -24 48 -20 71 13 28 39 30 134 4 129 -14 -2 -19 -16 -23 -53 -4 -36 -10 -51 -22 -53 -17 -3 -43 32 -34 47 3 4 -6 19 -19 31 -14 13 -25 20 -25 15 0 -5 -5 -4 -12 3 -12 12 -28 16 -28 7z"/>
<path d="M4610 2960 c-13 -8 -12 -11 4 -23 24 -17 15 -47 -14 -47 -29 0 -26 -34 5 -54 33 -21 255 -24 255 -3 0 10 -25 16 -82 23 l-83 9 -3 36 c-2 26 -10 39 -32 52 -33 20 -31 19 -50 7z"/>
<path d="M1540 2870 c0 -5 5 -10 10 -10 6 0 10 5 10 10 0 6 -4 10 -10 10 -5 0 -10 -4 -10 -10z"/>
<path d="M2793 2483 c-20 -8 -15 -40 7 -46 17 -4 20 -14 20 -60 0 -64 10 -72 57 -44 27 15 33 25 33 53 0 25 6 38 25 50 28 19 32 39 9 48 -18 7 -133 7 -151 -1z"/>
<path d="M3024 2479 c-3 -6 9 -27 29 -46 l35 -35 33 23 c46 33 51 42 32 57 -21 15 -119 16 -129 1z"/>
<path d="M3423 2483 c-20 -7 -15 -37 7 -51 19 -11 20 -23 20 -184 l0 -172 -26 -27 c-14 -15 -23 -32 -20 -38 5 -7 66 -11 176 -11 l168 0 11 31 c14 41 14 86 0 95 -6 3 -23 -8 -37 -25 -33 -39 -124 -62 -166 -43 l-26 12 0 113 c0 63 3 142 7 176 5 53 10 65 30 74 26 12 31 42 7 51 -18 7 -133 7 -151 -1z"/>
<path d="M3798 2483 c-23 -6 -23 -16 2 -38 11 -10 20 -26 20 -37 0 -18 11 -24 24 -11 12 12 48 10 53 -4 8 -20 21 -15 25 10 3 20 9 22 66 25 67 3 92 -7 92 -39 0 -10 5 -21 11 -25 19 -11 41 22 46 69 5 40 3 45 -18 50 -27 7 -294 7 -321 0z"/>
<path d="M4263 2470 c-39 -24 -62 -57 -70 -102 -10 -63 34 -118 126 -159 54 -24 91 -56 91 -79 0 -9 9 -25 20 -35 l20 -18 14 18 c12 16 16 17 30 6 9 -7 16 -21 16 -30 0 -22 51 -71 72 -71 28 0 33 39 9 69 -12 14 -29 41 -38 59 -12 23 -22 31 -35 27 -13 -5 -21 3 -32 28 -17 41 -61 76 -138 110 -31 14 -62 35 -68 47 -16 30 -5 67 28 87 15 9 29 18 31 20 5 4 -30 43 -38 43 -3 0 -20 -9 -38 -20z"/>
<path d="M1764 2385 c3 -8 -1 -18 -9 -22 -11 -7 -15 -40 -17 -152 l-3 -144 -30 -17 c-17 -10 -30 -25 -30 -36 0 -18 7 -19 104 -16 58 1 107 4 109 7 10 9 -9 36 -31 44 -33 13 -39 51 -31 188 6 95 4 116 -10 138 -18 27 -62 36 -52 10z"/>
<path d="M4536 2377 c-14 -10 -17 -21 -11 -45 11 -51 53 -91 131 -127 62 -28 73 -38 83 -68 9 -26 21 -38 43 -46 17 -6 32 -11 34 -11 10 0 14 66 5 93 -16 46 -54 79 -134 117 -49 23 -71 40 -78 58 -16 42 -41 52 -73 29z"/>
<path d="M3855 2371 c-7 -12 12 -24 25 -16 11 7 4 25 -10 25 -5 0 -11 -4 -15 -9z"/>
<path d="M2174 2325 c-9 -23 4 -81 22 -95 12 -11 19 -9 39 10 33 31 32 40 -9 73 -40 31 -45 32 -52 12z"/>
<path d="M3848 2326 c-15 -11 -18 -29 -18 -99 l0 -87 24 -6 c36 -9 64 11 68 49 l3 32 55 3 c46 3 60 8 88 35 33 32 41 62 20 70 -7 2 -22 -6 -33 -20 -16 -19 -31 -24 -75 -26 -49 -2 -55 0 -58 19 -2 12 -11 25 -20 28 -9 3 -21 8 -27 11 -5 2 -18 -2 -27 -9z"/>
<path d="M2453 2243 c-9 -3 -13 -32 -13 -93 0 -79 -2 -91 -20 -100 -11 -6 -20 -20 -20 -30 0 -19 7 -20 99 -20 70 0 100 4 103 13 8 21 -3 37 -27 37 -38 0 -48 24 -46 105 2 64 0 75 -18 84 -21 12 -38 13 -58 4z"/>
<path d="M2914 2219 c-10 -17 13 -36 27 -22 12 12 4 33 -11 33 -5 0 -12 -5 -16 -11z"/>
<path d="M2120 2210 c0 -5 9 -10 20 -10 11 0 20 5 20 10 0 6 -9 10 -20 10 -11 0 -20 -4 -20 -10z"/>
<path d="M2833 2203 c-9 -3 -13 -28 -13 -73 0 -59 -3 -71 -20 -80 -11 -6 -20 -20 -20 -30 0 -18 7 -20 90 -20 73 0 90 3 90 15 0 8 -11 22 -25 31 -21 14 -25 24 -25 69 0 46 -4 57 -26 74 -28 22 -31 23 -51 14z"/>
<path d="M2971 2181 c-12 -8 -12 -12 -2 -25 8 -9 10 -16 5 -16 -18 0 44 -53 83 -71 23 -10 43 -24 45 -31 3 -9 11 -8 31 5 15 10 27 21 27 26 0 5 -30 34 -66 65 -64 54 -93 66 -123 47z"/>
<path d="M3855 2092 c-3 -3 -5 -16 -5 -28 0 -13 -5 -26 -10 -29 -6 -4 -8 -11 -4 -16 4 -6 11 -6 20 2 11 9 19 8 34 -6 26 -24 39 -11 15 15 -17 19 -15 50 5 50 5 0 10 4 10 8 0 9 -57 12 -65 4z"/>
<path d="M4033 2058 c-33 -11 -46 -27 -35 -46 6 -9 70 -16 125 -13 23 1 22 33 -1 54 -21 19 -42 20 -89 5z"/>
<path d="M1665 1519 c-56 -17 -129 -64 -146 -94 -27 -47 -33 -119 -13 -139 15 -16 18 -16 35 0 11 9 19 13 19 9 0 -4 9 0 20 10 12 11 20 31 20 51 0 61 83 114 179 114 39 0 66 -46 57 -96 -3 -19 -9 -50 -12 -69 -8 -47 19 -46 45 2 15 30 14 154 -3 175 -31 41 -129 59 -201 37z"/>
<path d="M2788 1479 c-41 -23 -104 -217 -124 -377 -4 -31 -18 -70 -35 -97 -38 -60 -39 -111 -1 -73 16 16 42 -8 42 -41 0 -14 9 -41 20 -58 37 -62 89 -40 155 66 l27 43 27 -26 c54 -52 135 -23 195 69 26 39 34 75 16 75 -5 0 -23 -20 -39 -44 -68 -99 -119 -106 -107 -15 5 35 3 49 -9 59 -11 9 -12 17 -4 32 14 26 8 31 -23 19 -16 -6 -37 -31 -56 -68 -16 -32 -43 -83 -59 -113 -45 -85 -57 -75 -61 51 l-3 106 26 17 c29 19 35 59 8 54 -15 -2 -17 3 -15 27 6 49 28 136 53 203 l23 62 -19 20 c-15 14 -24 16 -37 9z"/>
<path d="M3973 1368 c-4 -7 -13 -47 -20 -88 -6 -41 -18 -105 -27 -142 -8 -36 -18 -97 -21 -135 -6 -57 -4 -71 9 -82 13 -11 20 -11 28 -3 7 7 20 12 30 12 31 0 47 43 64 171 20 154 16 243 -11 264 -25 18 -41 19 -52 3z"/>
<path d="M3477 1293 c-35 -5 -140 -106 -135 -130 6 -29 23 -24 71 22 26 26 52 43 58 39 8 -5 9 -39 4 -114 -4 -68 -3 -110 3 -114 17 -10 42 5 42 25 0 10 9 23 20 29 12 6 19 19 17 33 -1 17 3 22 18 20 20 -2 21 3 18 75 -2 68 -5 79 -28 100 -26 22 -33 23 -88 15z"/>
<path d="M1553 1266 c-19 -28 -9 -62 32 -106 23 -25 54 -61 70 -80 18 -23 37 -35 54 -36 26 -1 61 21 61 39 0 5 -29 43 -64 83 -35 40 -70 81 -78 91 -15 21 -64 27 -75 9z"/>
<path d="M2340 1273 c-24 -9 -60 -45 -60 -60 0 -7 11 -18 25 -23 l24 -9 -24 -66 c-13 -37 -27 -102 -31 -145 -6 -74 -5 -79 16 -90 39 -21 67 0 73 57 8 70 22 130 46 195 24 65 27 111 8 126 -16 14 -58 22 -77 15z"/>
<path d="M3660 1215 c-19 -20 -21 -27 -10 -39 6 -9 22 -14 33 -13 17 2 21 -3 20 -21 -2 -17 2 -22 15 -20 12 2 17 -4 17 -22 0 -18 -5 -24 -17 -22 -20 3 -24 -18 -7 -35 15 -15 3 -34 -16 -27 -29 12 -46 -85 -25 -140 14 -37 44 -33 63 7 8 17 23 59 32 92 9 33 24 83 33 112 15 48 15 54 -1 71 -9 10 -17 24 -17 30 0 22 -40 52 -68 52 -17 0 -38 -10 -52 -25z"/>
<path d="M4733 1225 c-17 -7 -39 -28 -49 -47 -23 -43 -43 -140 -44 -204 l0 -50 35 -17 c49 -24 85 -21 125 8 37 27 100 111 100 132 0 28 -30 7 -67 -47 -29 -41 -45 -55 -63 -55 -24 0 -25 4 -28 62 l-3 61 40 23 c42 23 72 76 64 110 -5 17 -43 39 -66 39 -7 -1 -26 -7 -44 -15z m67 -49 c0 -13 -9 -31 -20 -41 -21 -19 -24 -16 -20 25 4 49 40 64 40 16z"/>
<path d="M2106 1209 c-19 -15 -26 -30 -26 -56 0 -27 3 -34 15 -30 23 9 26 -7 10 -53 -20 -56 -19 -124 1 -141 22 -18 42 -3 66 55 17 39 19 52 10 67 -17 27 -15 53 9 95 16 30 18 42 10 61 -14 30 -58 31 -95 2z"/>
<path d="M4402 1214 c-17 -12 -22 -25 -22 -59 0 -24 5 -47 10 -50 6 -4 8 -15 5 -26 -4 -13 -2 -19 8 -19 9 0 17 6 19 12 3 7 13 13 23 13 10 0 26 14 36 30 22 38 23 45 4 45 -9 0 -19 10 -24 23 -15 39 -34 49 -59 31z"/>
<path d="M4172 1186 c-38 -33 -62 -85 -73 -155 -4 -31 -11 -68 -15 -83 -6 -25 -4 -28 18 -28 13 0 29 5 35 11 8 8 17 7 34 -5 35 -24 62 -20 97 17 50 51 36 79 -18 37 -53 -42 -82 -17 -60 53 18 57 20 59 34 48 18 -15 45 4 28 21 -6 6 -12 26 -12 43 0 18 -8 39 -19 49 -17 16 -20 15 -49 -8z"/>
<path d="M4513 1047 c-32 -35 -45 -81 -46 -159 -2 -92 16 -128 66 -128 17 0 40 7 51 15 l18 14 -28 25 c-25 21 -29 31 -28 74 1 28 7 67 14 87 22 67 -9 114 -47 72z"/>
<path d="M3551 1018 c-5 -13 -10 -32 -13 -43 -2 -13 -10 -19 -22 -17 -16 3 -18 -1 -13 -26 5 -23 1 -35 -19 -52 -27 -26 -29 -38 -14 -92 11 -37 29 -52 55 -42 17 7 26 31 30 83 1 21 10 49 19 64 10 14 16 31 15 39 -1 7 1 21 5 30 9 21 -5 70 -22 76 -7 2 -16 -7 -21 -20z"/>
<path d="M1925 980 c1 -16 8 -36 15 -45 16 -19 54 -21 47 -1 -3 7 0 19 6 25 9 10 7 17 -12 32 -36 29 -58 25 -56 -11z"/>
<path d="M1777 896 c-13 -20 -14 -29 -4 -50 7 -14 17 -24 24 -21 7 2 15 0 18 -5 10 -17 20 -11 31 18 9 24 8 32 -12 55 -28 33 -37 34 -57 3z"/>
<path d="M3955 890 c-4 -6 -10 -8 -15 -5 -11 7 -26 -14 -34 -47 -5 -21 0 -34 21 -57 32 -34 45 -38 91 -27 41 10 40 24 -3 66 -19 19 -35 45 -35 58 0 23 -14 30 -25 12z"/>
</g>
</g>
  <g id="id2:id2" transform="matrix(1.25,0,0,1.25,0.0,0.0)"><g transform="translate(0.000000,196.800000) scale(0.040000,-0.040000)" fill="#f3f3f3" stroke="none">
<path d="M1484 4441 c-54 -24 -61 -38 -36 -63 l20 -21 30 22 c20 14 45 21 76 21 39 0 49 -4 68 -30 30 -41 54 -39 62 4 8 42 -1 66 -24 66 -11 0 -22 5 -25 10 -11 17 -127 11 -171 -9z"/>
<path d="M1747 4453 c-12 -11 -8 -40 8 -53 21 -18 21 -244 0 -280 -23 -41 -28 -51 -24 -55 2 -2 69 -4 149 -4 80 -1 156 -1 170 -2 122 -5 125 -4 128 14 2 10 -4 24 -13 31 -22 16 -11 60 21 81 19 12 22 21 18 44 -3 16 -1 39 6 51 l12 22 23 -22 c22 -21 24 -21 48 -5 l25 16 -17 40 c-24 53 -25 53 -61 36 -17 -9 -36 -14 -43 -11 -8 3 -30 -38 -60 -109 -26 -62 -53 -122 -61 -133 -16 -21 -14 -22 -31 31 -7 22 -34 18 -55 -7 -15 -18 -28 -22 -76 -23 l-59 0 -3 138 c-2 131 -1 139 17 144 27 7 33 29 15 48 -16 15 -124 22 -137 8z"/>
<path d="M2530 4447 c0 -18 32 -47 52 -47 17 0 48 -31 48 -47 0 -6 6 -13 13 -15 27 -11 37 4 37 56 l0 53 -52 7 c-78 9 -98 7 -98 -7z"/>
<path d="M4935 4452 c-32 -23 -49 -112 -21 -112 7 0 19 7 26 15 7 8 21 15 31 15 26 0 43 34 29 60 -6 11 -15 20 -20 20 -4 0 -14 2 -22 5 -7 3 -17 1 -23 -3z"/>
<path d="M4395 4435 c-40 -20 -72 -69 -86 -133 l-13 -53 23 -15 c20 -14 21 -18 7 -33 -12 -14 -12 -21 -1 -56 26 -76 102 -111 169 -80 37 18 44 33 25 52 -8 8 -20 8 -40 1 -16 -5 -36 -7 -45 -4 -26 10 -44 71 -44 148 0 80 14 118 47 133 12 5 23 19 26 32 3 18 0 23 -17 23 -11 0 -34 -7 -51 -15z"/>
<path d="M2740 4415 c-13 -14 -20 -28 -17 -32 8 -7 57 35 57 49 0 15 -16 8 -40 -17z"/>
<path d="M5089 4367 c-26 -20 -40 -52 -27 -65 17 -17 70 24 66 51 -4 25 -18 30 -39 14z"/>
<path d="M4700 4290 c0 -72 11 -87 52 -74 16 5 19 14 16 72 l-3 66 -32 2 -33 2 0 -68z"/>
<path d="M4195 4322 c-6 -4 -23 -27 -37 -52 -14 -25 -53 -75 -87 -112 -59 -63 -75 -97 -48 -99 48 -3 148 0 156 6 6 3 11 19 11 36 0 22 -5 29 -19 29 -37 0 -33 21 12 69 58 62 84 110 65 122 -16 11 -39 11 -53 1z"/>
<path d="M3472 4218 c-7 -7 -12 -20 -12 -31 0 -30 -54 -77 -88 -77 -31 0 -46 -19 -36 -45 8 -19 35 -19 82 1 49 20 85 56 108 105 15 35 16 42 3 50 -20 12 -43 11 -57 -3z"/>
<path d="M5014 4222 c-15 -9 -74 -127 -74 -146 0 -21 17 -29 45 -22 18 5 29 22 50 80 15 41 24 79 20 85 -7 13 -25 14 -41 3z"/>
<path d="M1414 4169 c-22 -24 -13 -43 36 -77 66 -44 171 -52 227 -16 26 16 41 80 24 97 -9 9 -20 3 -46 -26 -27 -30 -41 -37 -70 -37 -43 0 -82 19 -112 54 -28 31 -34 32 -59 5z"/>
<path d="M2912 4163 c-7 -3 -17 -16 -22 -29 -14 -35 -86 -34 -128 1 -37 31 -38 31 -57 2 -12 -19 -13 -28 -3 -49 11 -23 20 -27 79 -32 72 -7 111 -2 147 22 58 37 44 109 -16 85z"/>
<path d="M2616 4129 c-23 -18 -36 -21 -81 -16 -42 4 -55 2 -59 -10 -8 -20 -8 -19 10 -37 28 -29 124 -18 170 19 l29 24 -21 21 -20 21 -28 -22z"/>
<path d="M4745 4122 c-4 -4 -15 -7 -26 -7 -10 0 -19 -4 -20 -10 0 -5 -5 -15 -11 -22 -16 -19 1 -34 35 -30 24 2 32 8 32 23 0 10 3 24 8 31 8 13 -6 26 -18 15z"/>
<path d="M3975 3921 c-3 -12 -3 -35 0 -52 5 -23 2 -35 -12 -49 -18 -16 -20 -30 -17 -121 2 -107 -25 -288 -47 -316 -9 -10 -52 -13 -180 -13 -142 0 -169 -2 -169 -15 0 -8 10 -19 21 -26 12 -6 40 -25 63 -43 23 -17 70 -51 104 -76 64 -46 72 -63 53 -112 -5 -13 -19 -57 -31 -98 -12 -41 -26 -85 -31 -98 -12 -29 -12 -72 0 -72 5 0 14 7 21 15 6 8 61 51 121 96 85 63 114 80 132 75 12 -3 76 -46 142 -96 65 -49 123 -86 127 -82 4 4 -1 32 -11 62 -10 30 -24 75 -31 100 -7 25 -21 69 -31 99 -14 41 -16 58 -7 68 6 8 62 50 125 95 62 44 113 86 113 94 0 11 -31 14 -165 14 -152 0 -165 1 -175 19 -5 11 -10 33 -10 49 0 16 -5 44 -12 62 -10 30 -9 35 10 51 12 9 22 21 22 25 0 4 7 15 16 25 19 22 9 45 -40 86 -28 24 -34 36 -39 83 -9 84 -23 140 -40 157 -13 14 -16 13 -22 -6z m50 -438 c9 -21 15 -53 13 -73 -3 -31 -6 -35 -36 -38 -42 -4 -49 15 -32 82 20 81 31 87 55 29z"/>
<path d="M730 3678 c-92 -53 -140 -132 -140 -231 0 -82 29 -140 91 -182 39 -27 77 -41 234 -91 132 -41 203 -95 214 -161 4 -26 12 -38 23 -38 9 0 20 -4 24 -8 31 -31 58 42 52 138 -5 79 -39 149 -88 180 -40 25 -150 64 -240 85 -80 19 -154 55 -184 91 -20 24 -26 41 -26 79 0 42 4 52 35 79 20 17 48 33 63 36 15 3 40 10 55 15 16 5 36 6 45 3 125 -44 191 -113 228 -241 2 -8 11 -12 20 -10 14 3 16 20 15 128 -1 69 -6 129 -11 134 -6 6 -20 0 -38 -17 -28 -27 -66 -36 -76 -18 -3 5 -25 18 -48 29 -61 28 -199 28 -248 0z"/>
<path d="M1363 3683 c-8 -19 2 -26 50 -38 l42 -10 3 -374 c2 -267 -1 -378 -9 -387 -7 -9 -33 -14 -69 -14 -67 0 -90 -7 -90 -26 0 -12 70 -14 435 -14 l435 0 0 205 c0 113 -4 205 -9 205 -17 0 -28 -26 -44 -102 -21 -104 -48 -159 -100 -205 -56 -48 -110 -63 -236 -63 -137 0 -132 -9 -129 216 l3 179 38 3 c30 3 37 7 35 20 -2 12 -14 17 -38 17 l-35 0 -3 167 -2 167 30 16 c19 10 30 23 28 32 -3 14 -25 16 -167 18 -129 1 -164 -1 -168 -12z"/>
<path d="M1886 3692 c-15 -15 -2 -34 32 -48 76 -32 128 -106 152 -219 14 -64 27 -88 41 -79 15 9 11 334 -3 339 -23 6 -216 13 -222 7z"/>
<path d="M2823 3684 c-7 -19 3 -29 48 -43 20 -7 45 -21 54 -32 l18 -19 23 21 c18 17 27 19 37 11 18 -15 30 -3 16 15 -9 10 -8 17 1 28 7 9 11 17 9 19 -2 2 -48 6 -102 9 -83 6 -99 4 -104 -9z"/>
<path d="M3224 3686 c-8 -21 -2 -28 39 -41 l32 -10 3 -369 c3 -426 7 -406 -85 -406 -57 0 -98 -14 -88 -31 4 -5 111 -9 261 -9 238 0 255 1 252 18 -3 14 -16 18 -68 20 -35 2 -70 8 -77 14 -10 8 -13 88 -14 357 -1 190 -4 360 -8 376 -4 21 -12 30 -26 30 -31 0 -47 14 -40 36 6 17 1 19 -38 19 -24 0 -65 3 -90 6 -38 6 -48 4 -53 -10z"/>
<path d="M2452 3666 c-18 -7 -42 -22 -54 -33 l-21 -22 2 -288 c2 -341 -5 -396 -51 -435 -22 -20 -43 -28 -69 -28 -35 0 -66 -20 -52 -33 8 -9 378 -9 386 0 13 12 -16 33 -47 33 -17 0 -46 9 -64 20 -59 36 -63 60 -60 348 2 163 7 257 13 256 6 0 35 -35 65 -76 30 -41 142 -191 249 -332 158 -209 198 -256 215 -254 l21 3 3 258 c2 243 1 258 -15 255 -16 -3 -18 -17 -21 -108 -1 -58 -6 -108 -11 -113 -6 -6 -149 173 -285 356 -41 56 -95 108 -109 105 -16 -4 -20 4 -12 24 6 15 -31 80 -44 77 -3 -1 -21 -7 -39 -13z"/>
<path d="M4576 3653 c-4 -5 -13 -8 -19 -8 -7 0 -13 -12 -15 -27 -2 -14 -10 -32 -18 -38 -12 -10 -14 -68 -14 -347 0 -211 -4 -341 -10 -354 -9 -16 -22 -19 -80 -19 -77 0 -100 -6 -100 -26 0 -19 272 -20 314 -1 25 11 27 15 21 54 -5 35 -3 43 14 53 19 10 21 20 21 106 0 88 -2 99 -25 126 -27 32 -25 48 4 48 10 0 21 9 24 20 5 18 13 20 89 20 45 -1 106 -7 133 -14 54 -15 69 -12 61 11 -8 20 12 53 28 47 8 -3 17 0 21 6 4 6 15 8 26 5 23 -8 37 19 20 39 -7 9 -8 17 -3 20 6 3 15 -1 22 -9 18 -21 33 -18 27 5 -3 14 1 24 15 31 18 10 18 12 4 28 -12 13 -13 20 -4 29 8 8 8 15 -1 26 -10 11 -8 17 9 29 28 19 17 51 -16 43 -28 -7 -41 9 -17 23 l18 10 -17 18 c-14 13 -21 15 -30 5 -7 -7 -22 -12 -35 -12 -15 0 -23 -6 -23 -17 0 -10 -7 -27 -15 -37 -21 -28 -19 -46 12 -78 21 -22 24 -30 14 -41 -6 -8 -9 -21 -5 -30 3 -8 0 -18 -5 -22 -6 -3 -9 -11 -5 -16 3 -6 -2 -19 -12 -30 -16 -18 -19 -18 -35 -3 -16 14 -20 14 -44 -2 -30 -20 -209 -36 -225 -20 -6 6 -10 60 -10 122 0 96 -3 115 -20 137 -11 14 -20 34 -20 45 0 13 -12 26 -32 36 -36 19 -33 18 -42 9z"/>
<path d="M1861 3518 c-4 -13 -12 -45 -15 -72 -4 -27 -13 -60 -19 -73 -9 -21 -8 -27 6 -34 9 -6 17 -19 17 -29 0 -25 17 -35 35 -20 22 19 22 250 0 250 -9 0 -19 -10 -24 -22z"/>
<path d="M5259 3473 c-1 -1 -2 -6 -3 -10 -2 -5 -8 -20 -16 -35 -11 -24 -11 -30 3 -45 8 -10 16 -22 16 -28 1 -5 7 -11 14 -11 6 -1 16 -2 21 -3 5 0 3 -8 -4 -16 -11 -13 -8 -21 15 -45 31 -32 50 -38 58 -17 7 19 37 15 80 -10 19 -12 44 -19 55 -16 22 5 75 -24 66 -38 -12 -20 8 -28 31 -13 27 18 57 13 50 -8 -7 -19 84 -61 102 -47 18 16 45 -8 38 -32 -7 -21 5 -25 23 -7 26 26 5 93 -42 137 -30 28 -113 71 -137 71 -10 0 -26 12 -36 28 -9 15 -18 29 -19 31 -2 1 -13 -4 -26 -13 -28 -20 -55 -20 -92 -1 -15 8 -35 15 -44 15 -8 0 -24 7 -34 17 -10 9 -28 21 -41 28 -16 8 -22 19 -21 41 1 27 -2 31 -27 31 -16 0 -30 -2 -30 -4z"/>
<path d="M5380 3250 c0 -5 5 -10 10 -10 6 0 10 5 10 10 0 6 -4 10 -10 10 -5 0 -10 -4 -10 -10z"/>
<path d="M1846 3210 c-13 -27 -13 -39 2 -110 13 -64 20 -80 34 -80 16 0 18 11 18 98 0 91 -8 122 -31 122 -4 0 -14 -14 -23 -30z"/>
<path d="M637 3173 c-13 -12 -8 -341 5 -349 6 -4 14 -2 16 5 3 8 17 28 32 45 l28 31 24 -22 c37 -34 96 -63 128 -63 45 0 36 18 -23 44 -89 39 -146 125 -179 268 -11 47 -18 55 -31 41z"/>
<path d="M4983 3146 c3 -8 -3 -26 -14 -39 -36 -47 -18 -200 30 -257 22 -26 35 -32 84 -37 47 -5 57 -3 57 9 0 26 -27 43 -45 28 -8 -7 -16 -9 -16 -4 -4 32 -3 42 9 67 7 15 17 27 22 27 6 0 10 20 10 44 0 36 -6 50 -31 75 -17 17 -27 36 -24 41 13 21 -24 60 -56 60 -23 0 -30 -4 -26 -14z"/>
<path d="M5731 2895 c-21 -19 -45 -35 -53 -35 -17 0 -38 -20 -38 -37 0 -30 121 19 165 67 16 18 17 23 5 30 -25 16 -38 11 -79 -25z"/>
<path d="M2146 2478 c-9 -12 -16 -27 -16 -33 0 -5 -15 -48 -34 -95 -19 -47 -51 -128 -71 -179 -20 -52 -48 -108 -61 -124 -16 -19 -22 -33 -16 -39 9 -9 59 -12 135 -9 25 1 21 36 -5 54 l-23 14 16 44 16 44 63 0 62 0 16 -39 c12 -30 13 -43 4 -57 -7 -10 -12 -28 -12 -39 0 -18 6 -20 80 -20 74 0 80 2 80 20 0 11 -7 23 -16 27 -17 6 -53 80 -81 163 -20 62 -28 67 -55 38 -30 -32 -95 -46 -105 -23 -8 21 24 88 38 80 5 -4 16 -2 23 4 10 8 17 7 26 -4 9 -11 16 -12 25 -5 10 8 7 27 -12 88 -37 117 -49 131 -77 90z"/>
<path d="M1571 2476 c-5 -6 -12 -28 -16 -48 -9 -48 14 -61 49 -29 19 18 33 22 77 19 51 -3 54 -5 59 -32 6 -34 22 -43 40 -21 7 8 21 15 31 15 11 0 19 9 21 23 2 18 10 23 41 25 31 3 42 -2 67 -30 26 -28 32 -31 40 -18 17 25 34 90 26 98 -13 12 -425 11 -435 -2z"/>
<path d="M2413 2483 c-19 -7 -16 -27 7 -48 17 -15 20 -31 20 -106 l0 -89 24 -6 c13 -3 34 -1 45 6 19 10 21 20 21 96 l0 84 25 12 c28 13 33 43 9 52 -18 7 -133 7 -151 -1z"/>
<path d="M4320 2476 c0 -18 22 -36 57 -45 19 -5 34 -19 46 -44 12 -23 26 -37 38 -37 17 0 19 8 19 64 0 75 -2 76 -96 76 -48 0 -64 -4 -64 -14z"/>
<path d="M4593 2473 c-17 -9 -40 -31 -50 -50 -16 -30 -16 -35 -3 -43 25 -16 38 -12 75 26 33 32 40 35 73 29 37 -6 72 -36 72 -60 0 -7 7 -18 16 -26 24 -20 35 6 32 76 l-3 60 -90 2 c-66 2 -98 -2 -122 -14z"/>
<path d="M3012 2449 l15 -24 -50 -57 -50 -57 -25 19 c-23 18 -27 19 -42 5 -9 -8 -22 -15 -28 -15 -8 0 -12 -20 -12 -58 l0 -58 33 -12 c18 -7 40 -12 49 -12 8 0 23 -9 33 -20 24 -27 46 -25 69 6 l18 26 -32 33 c-38 39 -42 31 59 139 l64 69 -28 15 c-16 8 -42 16 -58 19 l-31 5 16 -23z"/>
<path d="M3878 2428 c-3 -7 -13 -13 -23 -13 -12 0 -21 -10 -27 -30 -15 -56 11 -83 66 -69 29 7 32 26 15 87 -10 37 -24 48 -31 25z"/>
<path d="M4060 2255 c-21 -22 -22 -27 -10 -57 18 -46 27 -53 45 -38 10 8 15 30 15 66 0 61 -13 69 -50 29z"/>
<path d="M4181 2146 c-7 -8 -20 -12 -30 -9 -13 3 -27 -7 -46 -31 -15 -20 -26 -38 -24 -39 2 -2 17 -9 32 -17 27 -13 30 -13 46 8 20 28 31 20 31 -23 l0 -32 80 -7 c121 -10 199 19 214 80 8 32 -8 54 -26 36 -7 -7 -18 -12 -26 -12 -8 0 -23 -11 -34 -25 -38 -48 -138 -20 -171 48 -20 40 -28 44 -46 23z"/>
<path d="M3838 2139 c-12 -6 -18 -22 -18 -44 0 -24 -6 -39 -20 -47 -47 -29 4 -71 62 -52 13 4 49 7 80 6 31 -2 59 2 62 7 12 18 -6 41 -32 41 -37 0 -62 26 -56 60 5 22 2 28 -18 33 -31 9 -40 8 -60 -4z"/>
<path d="M2712 2100 c-16 -21 -34 -32 -62 -36 -45 -7 -63 -24 -54 -48 5 -13 21 -16 74 -16 l68 0 16 46 c11 33 13 52 5 65 -13 26 -22 24 -47 -11z"/>
<path d="M4735 2080 c-30 -32 -70 -39 -106 -20 -16 9 -21 6 -31 -16 -18 -39 10 -57 78 -51 91 9 157 63 124 102 -18 22 -33 19 -65 -15z"/>
<path d="M3040 2070 c0 -5 5 -12 10 -15 6 -3 10 -17 10 -30 0 -28 12 -31 87 -27 61 4 76 21 48 52 -21 23 -45 26 -64 8 -10 -11 -15 -10 -24 2 -13 16 -67 24 -67 10z"/>
<path d="M4520 2020 c0 -13 7 -20 20 -20 23 0 26 10 8 28 -18 18 -28 15 -28 -8z"/>
<path d="M3230 1853 c-14 -50 -53 -98 -70 -88 -13 8 -100 -5 -100 -15 0 -5 9 -12 21 -15 11 -4 35 -20 54 -36 l33 -29 -18 -61 c-16 -53 -17 -61 -4 -66 10 -4 32 10 58 36 23 22 46 41 51 41 5 0 31 -21 57 -47 64 -63 79 -50 49 37 l-22 63 22 23 c11 12 34 28 50 34 53 22 32 37 -61 42 l-44 3 -16 50 c-27 90 -40 96 -60 28z"/>
<path d="M1458 1726 c-25 -18 -22 -45 5 -51 12 -3 337 -4 722 -3 l700 3 0 30 0 30 -705 2 c-574 2 -708 0 -722 -11z"/>
<path d="M3610 1719 c-27 -50 -39 -49 670 -49 362 0 665 3 674 6 19 7 21 35 4 52 -9 9 -173 12 -675 12 l-662 0 -11 -21z"/>
<path d="M2838 1508 c-31 -11 -36 -29 -12 -49 12 -10 20 -10 35 -1 27 17 43 -18 35 -75 -5 -41 -48 -138 -81 -186 -16 -23 -20 -57 -7 -57 28 0 111 131 137 216 19 61 19 85 1 119 -24 46 -51 54 -108 33z"/>
<path d="M3931 1367 c-40 -13 -88 -60 -116 -114 -53 -102 -56 -105 -76 -87 -21 19 -97 25 -111 10 -5 -6 -15 -20 -22 -30 -12 -18 -15 -18 -46 -2 -34 17 -59 12 -27 -5 22 -13 11 -32 -14 -24 -23 8 -24 -2 -2 -27 15 -17 15 -19 0 -36 -10 -10 -17 -22 -17 -27 0 -5 -6 -16 -14 -24 -8 -9 -18 -44 -21 -78 l-7 -62 41 4 c22 2 43 -1 47 -6 3 -5 10 -7 15 -3 6 4 4 13 -6 24 -20 22 -16 65 5 66 29 2 31 4 20 25 -10 17 -8 21 9 26 11 3 23 15 26 27 13 43 36 86 45 81 4 -3 6 -32 3 -65 -4 -38 -2 -60 5 -60 5 0 13 7 16 16 5 13 9 14 21 4 8 -7 15 -9 15 -5 0 4 7 2 15 -5 20 -16 32 -5 16 14 -10 12 -9 17 8 28 24 15 27 33 7 41 -9 4 -12 14 -9 29 7 28 30 48 48 42 8 -3 24 16 41 52 16 31 48 73 71 93 23 21 45 49 48 64 4 15 6 27 4 26 -2 -1 -19 -6 -38 -12z"/>
<path d="M1541 1336 c-13 -14 -20 -29 -17 -35 4 -5 -1 -14 -11 -19 -15 -9 -16 -13 -4 -36 15 -27 44 -42 62 -31 6 4 8 13 5 21 -8 20 10 26 24 9 16 -19 32 -9 21 13 -15 30 -35 77 -35 86 -2 19 -23 15 -45 -8z"/>
<path d="M2533 1293 c-7 -3 -13 -16 -13 -29 0 -22 4 -25 27 -22 16 2 29 10 31 20 4 18 -26 38 -45 31z"/>
<path d="M1967 1264 c-3 -4 -12 -40 -19 -81 l-12 -74 -60 -29 c-51 -25 -62 -28 -75 -16 -20 16 -93 18 -103 3 -4 -7 -8 -24 -8 -39 0 -23 -8 -31 -47 -48 -96 -42 -143 -96 -143 -163 0 -58 63 -100 150 -100 117 1 199 70 165 137 -14 27 -9 41 10 26 9 -7 16 -6 25 5 10 12 9 23 -3 59 -17 49 -15 53 42 84 21 13 25 11 52 -20 15 -18 26 -40 23 -49 -7 -24 25 -33 47 -13 11 10 19 22 19 28 0 6 12 34 25 61 24 48 35 135 17 135 -5 0 -14 -12 -20 -26 -18 -38 -32 -20 -25 31 8 61 -31 118 -60 89z m-227 -386 c0 -41 -5 -54 -29 -79 -24 -23 -38 -29 -73 -29 -51 0 -88 22 -88 54 0 27 61 89 115 115 37 18 42 18 58 4 12 -11 17 -31 17 -65z"/>
<path d="M4414 1246 c-22 -16 -22 -17 29 -40 20 -9 37 -23 37 -31 0 -8 4 -15 8 -15 15 0 32 24 32 45 0 47 -64 71 -106 41z"/>
<path d="M2962 1225 c-24 -10 -39 -28 -57 -67 -30 -64 -33 -102 -7 -94 9 3 23 2 31 -3 19 -12 105 36 125 71 25 41 21 83 -9 96 -33 15 -42 15 -83 -3z m64 -39 c7 -17 -25 -68 -37 -60 -8 5 -3 47 8 67 7 12 23 8 29 -7z"/>
<path d="M4215 1210 c-4 -6 -1 -17 5 -25 7 -8 13 -42 14 -75 1 -51 6 -64 28 -87 l27 -27 53 14 c29 7 63 20 76 28 18 12 27 12 53 2 27 -12 33 -11 52 8 11 12 19 23 16 24 -2 2 -24 14 -48 26 -41 21 -45 21 -62 6 -10 -9 -17 -21 -16 -28 1 -6 -12 -11 -32 -11 -31 0 -34 3 -37 34 -6 47 -27 77 -61 86 -15 3 -35 13 -45 21 -11 11 -18 12 -23 4z"/>
<path d="M2240 1181 c-18 -26 -26 -29 -60 -26 -39 4 -61 -7 -40 -20 5 -3 10 -17 10 -31 0 -33 17 -64 35 -64 8 0 27 19 41 43 15 23 38 54 52 69 25 28 25 58 -2 58 -8 0 -24 -13 -36 -29z"/>
<path d="M2511 1160 c-6 -28 -11 -60 -11 -71 0 -18 -33 -87 -81 -169 -11 -19 -24 -43 -30 -53 -9 -16 -11 -16 -38 4 -54 40 -96 -1 -51 -49 14 -15 33 -22 59 -22 45 0 70 23 101 92 26 59 34 64 66 39 35 -27 74 -28 74 -2 0 11 -4 23 -10 26 -6 4 -10 54 -10 119 0 115 -6 136 -41 136 -13 0 -20 -14 -28 -50z"/>
<path d="M3941 941 c-7 -12 -18 -21 -26 -21 -10 0 -15 -11 -15 -35 0 -36 8 -43 27 -24 15 15 33 3 33 -22 0 -22 8 -24 31 -6 19 14 31 117 14 117 -5 0 -20 3 -32 6 -15 4 -24 0 -32 -15z"/>
<path d="M4620 920 c0 -6 -9 -30 -20 -52 -23 -49 -25 -68 -6 -68 18 0 31 17 52 68 14 37 15 45 3 53 -19 12 -29 11 -29 -1z"/>
<path d="M4064 903 c-3 -10 -14 -36 -24 -57 -20 -40 -14 -66 15 -66 11 0 65 107 65 130 0 18 -50 11 -56 -7z"/>
</g>
</g>
  <g id="id3:id3" transform="matrix(1.25,0,0,1.25,0.0,0.0)"><g transform="translate(0.000000,196.800000) scale(0.040000,-0.040000)" fill="#312f34" stroke="none">
<path d="M4096 4051 c-22 -24 -7 -67 29 -81 14 -5 25 -13 25 -18 0 -17 -52 -57 -73 -57 -18 0 -22 -6 -22 -35 l0 -35 42 3 c35 3 44 0 49 -15 4 -10 16 -28 27 -40 l20 -23 -22 -24 c-43 -45 -11 -140 37 -110 21 13 28 79 11 100 -9 11 -9 18 -1 26 13 13 16 106 4 125 -4 6 -16 11 -26 10 -13 -1 -22 7 -27 28 -8 26 -5 33 16 48 17 12 25 28 25 47 0 17 7 33 16 38 30 17 4 32 -55 32 -44 0 -62 -5 -75 -19z"/>
<path d="M4083 3738 c-18 -24 -23 -51 -12 -64 14 -17 29 -18 29 -2 0 6 7 20 16 30 14 14 14 20 4 33 -15 18 -25 19 -37 3z"/>
<path d="M3876 3678 c-6 -26 9 -47 24 -32 10 10 2 54 -10 54 -4 0 -10 -10 -14 -22z"/>
<path d="M3823 3608 c-13 -6 -23 -14 -23 -18 0 -16 38 -38 70 -42 29 -2 35 0 38 18 5 36 -46 61 -85 42z"/>
<path d="M4290 3600 c-13 -9 -13 -11 0 -20 22 -15 65 -8 65 10 0 18 -43 25 -65 10z"/>
<path d="M3640 3590 c0 -5 5 -10 10 -10 6 0 10 5 10 10 0 6 -4 10 -10 10 -5 0 -10 -4 -10 -10z"/>
<path d="M4117 3552 c-50 -52 -25 -95 25 -44 22 22 28 35 23 51 -8 28 -16 27 -48 -7z"/>
<path d="M4380 3535 c-14 -15 -30 -23 -40 -20 -20 6 -45 -19 -35 -35 8 -13 42 -13 50 0 11 19 41 10 70 -20 16 -16 34 -30 41 -30 6 0 17 -7 24 -15 10 -13 10 -19 -4 -33 -9 -10 -16 -23 -16 -29 0 -21 -39 -45 -64 -39 -14 3 -28 1 -31 -5 -4 -5 -18 -14 -31 -19 -13 -5 -24 -14 -24 -19 0 -15 67 -44 85 -38 30 12 23 -11 -15 -48 -34 -33 -40 -45 -40 -81 0 -47 -13 -62 -36 -43 -23 19 -46 76 -39 98 10 31 -15 36 -43 8 l-26 -26 22 -24 c16 -17 22 -36 22 -69 0 -49 18 -94 50 -123 19 -17 22 -17 36 -3 13 13 14 19 3 35 -16 26 -5 57 18 49 28 -11 53 22 53 71 0 33 4 45 18 50 49 17 83 89 52 108 -6 4 -8 11 -4 16 4 6 11 6 19 -1 8 -7 19 -9 24 -5 12 7 9 114 -3 134 -4 6 -3 18 4 26 6 7 10 35 8 62 l-3 48 -42 -3 c-38 -3 -44 -1 -53 22 -12 32 -20 33 -50 1z"/>
<path d="M4234 3539 c-10 -17 13 -36 27 -22 12 12 4 33 -11 33 -5 0 -12 -5 -16 -11z"/>
<path d="M3870 3504 c-9 -10 -23 -14 -42 -10 -42 8 -44 -12 -5 -52 l36 -36 26 24 c19 18 25 33 23 54 -4 35 -20 43 -38 20z"/>
<path d="M4161 3496 c-17 -21 -10 -87 11 -100 13 -8 23 -7 39 2 15 10 24 11 32 3 17 -17 42 -13 61 8 25 28 12 41 -39 41 -38 0 -46 4 -57 27 -16 32 -31 38 -47 19z"/>
<path d="M3560 3455 c-22 -26 5 -45 64 -45 60 0 90 14 66 30 -8 5 -32 10 -52 10 -20 0 -40 5 -43 10 -9 14 -21 12 -35 -5z"/>
<path d="M4344 3439 c-3 -6 3 -21 15 -32 l21 -21 21 21 c26 26 18 43 -21 43 -16 0 -32 -5 -36 -11z"/>
<path d="M3548 3283 c-14 -18 17 -53 47 -53 25 0 100 -74 91 -89 -4 -6 -22 -11 -39 -12 -37 -1 -92 -30 -92 -49 0 -23 32 -36 55 -22 11 6 29 12 40 12 11 0 29 -6 40 -12 44 -28 83 47 55 105 -8 15 -12 34 -9 42 7 17 -14 30 -51 30 -24 0 -30 4 -30 22 0 11 -4 25 -8 29 -13 13 -87 11 -99 -3z"/>
<path d="M3562 2998 c-15 -15 -16 -64 -1 -73 13 -9 49 23 49 45 0 16 -18 40 -30 40 -3 0 -11 -5 -18 -12z"/>
<path d="M3945 2960 c-16 -16 -34 -30 -40 -30 -6 0 -26 -16 -45 -35 -28 -29 -31 -37 -20 -50 7 -8 22 -15 35 -15 12 0 30 -9 40 -20 10 -11 24 -20 31 -20 13 0 60 -89 66 -124 4 -28 34 -44 56 -30 25 16 26 47 2 69 -11 10 -20 28 -20 40 0 21 -37 65 -55 65 -15 0 -65 53 -65 69 0 8 16 32 36 52 20 21 33 42 30 48 -11 17 -20 13 -51 -19z"/>
<path d="M4427 2942 c-10 -10 -17 -25 -17 -33 0 -15 77 -97 82 -88 28 44 28 48 3 75 -13 14 -27 35 -30 45 -8 24 -17 24 -38 1z"/>
<path d="M4032 2934 c-42 -21 -48 -32 -29 -51 16 -16 19 -16 47 15 17 18 30 35 30 37 0 10 -28 10 -48 -1z"/>
<path d="M4496 2941 c-3 -5 1 -14 8 -20 16 -13 32 2 21 19 -8 12 -22 13 -29 1z"/>
<path d="M3640 2914 c-11 -12 -10 -18 3 -32 16 -15 18 -15 34 0 13 14 14 20 3 32 -7 9 -16 16 -20 16 -4 0 -13 -7 -20 -16z"/>
<path d="M4074 2888 c-36 -43 -46 -68 -33 -84 16 -20 43 -17 64 6 10 11 24 20 31 20 26 0 25 22 -2 51 -33 35 -35 35 -60 7z"/>
<path d="M3720 2815 c-10 -12 -10 -18 0 -30 17 -21 44 -19 66 6 16 17 16 22 4 29 -23 14 -56 12 -70 -5z"/>
<path d="M4192 2822 c-7 -5 -10 -16 -7 -24 5 -11 -2 -20 -22 -30 -36 -17 -41 -44 -12 -74 38 -41 79 -26 79 30 0 17 9 40 21 53 18 18 20 25 9 38 -13 16 -47 20 -68 7z"/>
<path d="M3604 2799 c-3 -6 -2 -15 4 -21 13 -13 32 -2 32 18 0 16 -26 19 -36 3z"/>
<path d="M4360 2795 c-22 -26 5 -45 64 -45 29 0 57 -5 64 -12 10 -9 16 -9 29 4 23 24 1 48 -43 48 -18 0 -36 5 -39 10 -9 15 -61 12 -75 -5z"/>
<path d="M3845 2760 c-15 -16 -15 -22 -5 -35 7 -8 20 -15 30 -15 10 0 23 7 30 15 10 13 10 19 -5 35 -10 11 -21 20 -25 20 -4 0 -15 -9 -25 -20z"/>
<path d="M3682 2758 c-19 -19 -14 -42 13 -68 19 -18 27 -20 38 -11 8 6 22 9 31 5 9 -3 16 -2 16 4 0 5 -8 12 -19 15 -10 2 -25 17 -32 33 -16 32 -30 39 -47 22z"/>
<path d="M4250 2685 c-19 -20 -21 -27 -10 -40 14 -17 85 -21 96 -4 6 10 -42 69 -56 69 -4 0 -17 -11 -30 -25z"/>
<path d="M3560 2675 c-18 -21 4 -45 41 -45 36 0 46 16 23 41 -21 23 -47 25 -64 4z"/>
<path d="M4420 2650 c0 -5 5 -10 10 -10 6 0 10 5 10 10 0 6 -4 10 -10 10 -5 0 -10 -4 -10 -10z"/>
<path d="M1349 2004 c-17 -20 15 -54 51 -54 36 0 59 26 39 44 -23 21 -75 27 -90 10z"/>
<path d="M2865 1995 c-33 -27 -27 -42 20 -47 27 -3 30 -6 27 -33 -5 -40 -17 -51 -37 -35 -13 11 -19 10 -38 -9 -13 -11 -32 -21 -43 -21 -11 0 -31 -11 -44 -25 -19 -20 -21 -27 -10 -40 17 -20 32 -19 75 5 40 22 95 26 113 8 10 -10 16 -9 28 4 13 13 14 19 3 36 -11 17 -11 25 0 46 9 15 10 32 5 43 -4 10 -8 26 -8 36 -1 10 -14 26 -31 37 l-30 18 -30 -23z"/>
<path d="M3020 2007 c-34 -17 -31 -37 9 -59 l34 -19 21 20 20 21 -24 25 c-27 29 -27 29 -60 12z"/>
<path d="M3450 1998 c-14 -11 -25 -30 -25 -41 0 -38 -34 -32 -80 13 l-43 43 -26 -21 c-27 -20 -23 -31 17 -45 9 -4 17 -12 17 -20 0 -7 11 -24 25 -37 20 -19 27 -21 40 -10 10 9 19 9 28 2 6 -5 23 -12 37 -14 19 -2 26 -10 30 -32 6 -34 22 -43 40 -21 17 21 43 19 65 -5 10 -11 28 -20 41 -20 13 0 26 -4 29 -10 9 -15 41 -12 55 5 11 13 9 20 -10 40 -13 14 -29 25 -35 25 -7 0 -20 9 -30 20 -12 14 -33 20 -74 22 -62 3 -78 23 -46 58 9 10 14 24 10 30 -4 7 2 14 14 17 34 9 24 23 -16 23 -23 -1 -48 -9 -63 -22z"/>
<path d="M3650 2010 c0 -6 -11 -15 -25 -20 -29 -11 -31 -22 -10 -40 19 -16 49 5 40 28 -3 8 3 16 15 19 26 7 26 23 0 23 -11 0 -20 -5 -20 -10z"/>
<path d="M3780 2010 c0 -5 5 -10 10 -10 6 0 10 5 10 10 0 6 -4 10 -10 10 -5 0 -10 -4 -10 -10z"/>
<path d="M3863 1996 c-23 -20 -25 -26 -14 -40 17 -20 56 -3 47 21 -4 9 1 17 14 20 11 3 20 9 20 14 0 17 -39 9 -67 -15z"/>
<path d="M1540 1994 c-11 -13 -9 -19 13 -42 l27 -27 33 33 c27 27 30 34 17 42 -23 15 -76 12 -90 -6z"/>
<path d="M2703 1958 c-37 -40 -48 -69 -31 -80 19 -12 72 -10 86 4 24 24 10 108 -18 108 -3 0 -20 -15 -37 -32z"/>
<path d="M3723 1978 c-28 -44 -33 -61 -22 -74 14 -17 45 -18 55 -3 3 6 1 16 -5 22 -9 9 -6 16 10 28 12 9 19 21 15 28 -10 15 -43 14 -53 -1z"/>
<path d="M4835 1950 c-30 -33 -6 -45 78 -42 80 4 110 20 87 46 -9 12 -31 16 -80 16 -54 0 -70 -4 -85 -20z"/>
<path d="M5122 1938 c-28 -28 3 -83 33 -58 8 7 15 20 15 29 0 17 -18 41 -30 41 -3 0 -11 -5 -18 -12z"/>
<path d="M3842 1918 c-7 -7 -12 -20 -12 -30 0 -9 -9 -22 -21 -28 -24 -14 -22 -48 4 -64 15 -9 22 -7 34 12 16 23 47 30 58 12 4 -6 65 -10 150 -10 85 0 146 -4 150 -10 4 -6 63 -10 144 -10 125 0 140 2 156 20 38 42 16 45 -282 45 -153 -1 -288 2 -300 6 -12 4 -27 20 -35 35 -15 32 -29 39 -46 22z"/>
<path d="M1322 1898 c-7 -7 -12 -24 -12 -38 0 -14 5 -31 12 -38 7 -7 24 -12 38 -12 51 0 66 42 27 78 -26 25 -47 28 -65 10z"/>
<path d="M1467 1882 c-22 -24 -22 -66 -1 -83 14 -11 20 -9 46 20 l30 33 -23 24 c-27 29 -31 29 -52 6z"/>
<path d="M2320 1890 c0 -5 5 -10 10 -10 6 0 10 5 10 10 0 6 -4 10 -10 10 -5 0 -10 -4 -10 -10z"/>
<path d="M2360 1890 c0 -5 5 -10 10 -10 6 0 10 5 10 10 0 6 -4 10 -10 10 -5 0 -10 -4 -10 -10z"/>
<path d="M2400 1890 c0 -5 5 -10 10 -10 6 0 10 5 10 10 0 6 -4 10 -10 10 -5 0 -10 -4 -10 -10z"/>
<path d="M2440 1890 c0 -5 5 -10 10 -10 6 0 10 5 10 10 0 6 -4 10 -10 10 -5 0 -10 -4 -10 -10z"/>
<path d="M2480 1890 c0 -5 5 -10 10 -10 6 0 10 5 10 10 0 6 -4 10 -10 10 -5 0 -10 -4 -10 -10z"/>
<path d="M2520 1890 c0 -5 5 -10 10 -10 6 0 10 5 10 10 0 6 -4 10 -10 10 -5 0 -10 -4 -10 -10z"/>
<path d="M2560 1890 c0 -5 5 -10 10 -10 6 0 10 5 10 10 0 6 -4 10 -10 10 -5 0 -10 -4 -10 -10z"/>
<path d="M4985 1880 c-14 -16 -15 -22 -5 -35 7 -8 22 -15 33 -15 12 0 34 -12 49 -27 24 -23 30 -25 38 -13 15 24 12 34 -22 67 -45 42 -70 48 -93 23z"/>
<path d="M1560 1874 c-11 -12 -10 -18 3 -32 16 -15 18 -15 34 0 13 14 14 20 3 32 -7 9 -16 16 -20 16 -4 0 -13 -7 -20 -16z"/>
<path d="M3041 1856 c-39 -41 -38 -63 7 -88 39 -22 54 -16 46 18 -3 13 -3 31 0 40 6 15 9 14 31 -6 l25 -23 20 18 c43 38 18 75 -50 75 -39 0 -51 -5 -79 -34z"/>
<path d="M1667 1842 c-8 -10 -7 -16 4 -23 19 -12 580 -11 599 1 12 7 12 12 2 22 -19 19 -589 19 -605 0z"/>
<path d="M2600 1835 c-10 -12 -10 -18 0 -30 17 -20 49 -16 64 8 20 32 -39 52 -64 22z"/>
<path d="M1403 1798 c-4 -7 -13 -22 -18 -33 -6 -11 -21 -25 -34 -31 -38 -19 -46 -31 -31 -49 18 -22 63 -19 86 8 34 38 49 76 38 95 -14 22 -30 26 -41 10z"/>
<path d="M4850 1800 c-13 -8 -13 -11 3 -27 16 -16 18 -16 33 -1 28 27 -1 50 -36 28z"/>
<path d="M1520 1790 c0 -5 5 -10 10 -10 6 0 10 5 10 10 0 6 -4 10 -10 10 -5 0 -10 -4 -10 -10z"/>
<path d="M3424 1779 c-10 -17 13 -36 27 -22 12 12 4 33 -11 33 -5 0 -12 -5 -16 -11z"/>
<path d="M4988 1764 c-10 -10 2 -67 18 -84 12 -13 16 -13 28 0 8 8 16 31 18 50 3 33 1 35 -27 38 -17 2 -34 0 -37 -4z"/>
<path d="M3554 1746 c-8 -22 3 -49 19 -43 6 2 12 14 12 27 0 27 -22 39 -31 16z"/>
<path d="M3424 1719 c-16 -18 -16 -20 1 -39 29 -32 76 -52 91 -39 20 17 17 43 -8 66 -34 30 -64 34 -84 12z"/>
<path d="M5125 1720 c-17 -19 -17 -22 -2 -37 13 -14 19 -14 32 -3 17 14 17 51 -1 57 -6 2 -19 -6 -29 -17z"/>
<path d="M2993 1668 c-54 -53 -64 -60 -78 -48 -12 10 -19 10 -27 2 -7 -7 -24 -12 -38 -12 -35 0 -92 -29 -87 -43 2 -7 14 -14 28 -15 33 -5 45 -18 30 -36 -9 -10 -9 -16 -1 -21 13 -8 25 1 25 18 0 7 12 13 26 15 19 2 31 -4 45 -25 21 -32 21 -32 23 -72 1 -26 4 -28 33 -27 48 2 47 28 -6 88 -52 60 -48 78 15 78 32 0 41 -4 48 -23 5 -13 16 -29 25 -36 14 -12 19 -11 36 4 15 14 23 15 34 6 10 -9 16 -9 21 -1 8 13 -1 25 -18 25 -6 0 -15 19 -20 43 -9 46 -21 54 -30 21 -8 -29 -27 -14 -27 21 0 34 15 47 36 29 12 -10 18 -9 31 3 8 9 12 21 9 26 -5 8 -62 42 -70 42 -1 0 -29 -28 -63 -62z"/>
<path d="M3402 1638 c-18 -18 -16 -142 4 -158 28 -24 47 10 46 80 -1 76 -21 107 -50 78z"/>
<path d="M3528 1623 c-9 -11 -3 -22 27 -53 38 -39 68 -50 80 -30 3 6 16 10 29 10 12 0 26 3 30 7 11 11 65 12 72 2 3 -5 15 -9 28 -9 12 0 27 -5 33 -11 7 -7 20 -4 44 10 19 12 43 24 54 29 11 5 217 8 458 8 310 -1 437 2 437 10 0 6 -20 10 -52 9 -29 -1 -57 1 -63 4 -5 3 -184 6 -397 6 -327 0 -389 -2 -393 -14 -4 -11 -8 -12 -17 -3 -14 14 -84 16 -92 3 -4 -5 -23 -8 -44 -6 -20 1 -43 -2 -50 -8 -9 -7 -20 -3 -40 15 -33 31 -124 44 -144 21z"/>
<path d="M2305 1620 c-4 -6 -72 -10 -170 -10 -103 0 -166 -4 -170 -10 -4 -6 -15 -8 -25 -5 -10 3 -21 2 -24 -3 -6 -10 -36 -9 -55 2 -15 10 -36 -8 -27 -22 4 -6 24 -9 46 -7 22 2 42 -1 45 -6 4 -5 17 -9 30 -9 13 0 27 -4 30 -10 4 -6 60 -10 135 -10 75 0 131 4 135 10 4 6 71 10 169 10 135 0 166 3 176 15 11 13 9 20 -10 40 l-23 25 -128 0 c-74 0 -130 -4 -134 -10z"/>
<path d="M1435 1590 c-13 -14 -31 -20 -60 -20 -53 0 -65 -13 -65 -70 0 -25 5 -51 12 -58 19 -19 63 -14 83 8 10 11 23 20 30 20 7 0 20 9 30 20 15 16 29 20 64 18 27 -2 46 -8 46 -15 0 -20 12 -24 24 -9 7 8 18 13 26 10 7 -3 16 -1 19 5 4 6 13 8 20 5 19 -7 42 24 28 38 -9 9 -16 7 -30 -5 -27 -25 -36 -8 -11 19 18 19 20 26 9 39 -10 12 -35 15 -110 15 -84 0 -99 -3 -115 -20z"/>
<path d="M4970 1585 c-21 -22 -22 -27 -9 -39 29 -29 54 -27 84 4 23 24 26 32 15 45 -19 23 -63 18 -90 -10z"/>
<path d="M1714 1589 c-10 -17 13 -36 27 -22 12 12 4 33 -11 33 -5 0 -12 -5 -16 -11z"/>
<path d="M2680 1570 c0 -5 5 -10 10 -10 6 0 10 5 10 10 0 6 -4 10 -10 10 -5 0 -10 -4 -10 -10z"/>
<path d="M2720 1570 c0 -5 5 -10 10 -10 6 0 10 5 10 10 0 6 -4 10 -10 10 -5 0 -10 -4 -10 -10z"/>
<path d="M1784 1539 c-10 -17 13 -36 27 -22 12 12 4 33 -11 33 -5 0 -12 -5 -16 -11z"/>
<path d="M3202 1538 c-24 -31 -22 -54 5 -80 16 -14 36 -28 45 -31 9 -3 18 -18 20 -33 4 -38 33 -55 51 -30 17 23 11 53 -16 83 -15 17 -17 26 -9 36 14 16 6 27 -18 27 -9 0 -25 9 -35 20 -21 23 -29 25 -43 8z"/>
<path d="M4205 1520 c-4 -6 -68 -10 -160 -10 -92 0 -156 -4 -160 -10 -3 -5 -21 -10 -39 -10 -17 0 -37 -5 -43 -11 -18 -18 -211 -15 -229 4 -17 17 -81 7 -102 -16 -30 -32 -28 -48 11 -85 47 -45 87 -39 87 14 0 30 5 33 88 40 57 5 76 4 96 -10 28 -18 111 -22 121 -6 4 6 171 10 469 10 400 0 465 2 476 15 23 28 -5 45 -76 45 -34 0 -66 5 -69 10 -3 6 -39 10 -80 10 -41 0 -77 5 -80 10 -4 6 -67 10 -155 10 -88 0 -151 -4 -155 -10z"/>
<path d="M2297 1492 c-18 -20 -19 -24 -7 -32 19 -12 297 -13 304 -1 4 5 2 20 -3 33 l-8 23 -132 0 -132 1 -22 -24z"/>
<path d="M1734 1479 c-10 -17 13 -36 27 -22 12 12 4 33 -11 33 -5 0 -12 -5 -16 -11z"/>
<path d="M3092 1467 c-12 -13 -22 -27 -22 -32 0 -5 -10 -19 -21 -32 -18 -18 -20 -25 -9 -38 25 -30 70 -11 70 29 0 11 10 30 21 43 18 18 20 25 9 38 -17 20 -23 19 -48 -8z"/>
<path d="M2760 1470 c0 -5 5 -10 10 -10 6 0 10 5 10 10 0 6 -4 10 -10 10 -5 0 -10 -4 -10 -10z"/>
<path d="M1654 1459 c-10 -17 13 -36 27 -22 12 12 4 33 -11 33 -5 0 -12 -5 -16 -11z"/>
<path d="M1925 1460 c-4 -6 -3 -16 3 -22 6 -6 12 -6 17 2 4 6 3 16 -3 22 -6 6 -12 6 -17 -2z"/>
<path d="M2665 1459 c-10 -15 26 -51 47 -46 9 3 23 -2 29 -10 11 -12 14 -12 22 2 20 37 -76 90 -98 54z"/>
<path d="M1586 1404 c-9 -24 -7 -84 3 -84 5 0 11 10 13 23 2 14 9 21 20 19 25 -4 32 17 12 39 -21 23 -40 24 -48 3z"/>
<path d="M1814 1407 c-9 -25 0 -62 16 -62 10 0 15 10 15 34 0 36 -21 54 -31 28z"/>
<path d="M3360 1394 c-11 -13 -10 -19 8 -37 l22 -21 22 21 c18 18 19 24 8 37 -7 9 -20 16 -30 16 -10 0 -23 -7 -30 -16z"/>
<path d="M5040 1394 c-11 -12 -10 -18 3 -32 16 -15 18 -15 34 0 13 14 14 20 3 32 -7 9 -16 16 -20 16 -4 0 -13 -7 -20 -16z"/>
<path d="M3172 1388 c-18 -18 -15 -28 8 -28 13 0 20 7 20 20 0 23 -10 26 -28 8z"/>
<path d="M1795 1300 c-11 -17 5 -32 21 -19 7 6 11 15 8 20 -7 12 -21 11 -29 -1z"/>
<path d="M1841 1276 c-9 -10 -9 -16 -1 -21 17 -10 37 12 24 25 -8 8 -15 6 -23 -4z"/>
</g>
</g>
</svg>
