<svg xmlns="http://www.w3.org/2000/svg" version="1.0" width="1216.000000pt" height="396.000000pt" viewBox="0 0 1216.000000 396.000000" preserveAspectRatio="xMidYMid meet">
  <g transform="translate(0.000000,396.000000) scale(0.100000,-0.100000)" stroke="none">
    <mask id="mask-9">
      <g>
        <path d="M 0 0 H 12160.0 V 3960.0 H 0 Z" fill="white" id="background"/>
        <path d="M9652 1388 c29 -11 38 -32 38 -95 0 -47 -1 -48 -53 -57 l-39 -7 3 35 c4 43 -1 49 -35 40 -20 -5 -26 -12 -26 -34 0 -37 -37 -52 -57 -24 -12 17 -11 21 12 39 20 17 25 29 25 66 0 25 3 49 6 52 8 8 91 -2 126 -15z" fill="black"/>
      </g>
    </mask>
    <mask id="mask-8">
      <g>
        <path d="M 0 0 H 12160.0 V 3960.0 H 0 Z" fill="white" id="background"/>
        <path d="M9031 910 c49 -23 68 -89 36 -125 -19 -21 -35 -26 -111 -33 -167 -15 -276 25 -276 103 0 37 23 61 65 68 54 9 259 0 286 -13z" fill="black"/>
        <path d="M9652 1388 c29 -11 38 -32 38 -95 0 -47 -1 -48 -53 -57 l-39 -7 3 35 c4 43 -1 49 -35 40 -20 -5 -26 -12 -26 -34 0 -37 -37 -52 -57 -24 -12 17 -11 21 12 39 20 17 25 29 25 66 0 25 3 49 6 52 8 8 91 -2 126 -15z" fill="black"/>
      </g>
    </mask>
    <mask id="mask-7">
      <g>
        <path d="M 0 0 H 12160.0 V 3960.0 H 0 Z" fill="white" id="background"/>
        <path d="M5601 1409 c51 -16 95 -64 119 -130 23 -63 24 -82 8 -146 -29 -112 -75 -153 -173 -153 -58 0 -65 3 -106 39 -55 48 -83 131 -77 226 5 75 35 122 100 153 50 24 76 26 129 11z" fill="black"/>
        <path d="M9031 910 c49 -23 68 -89 36 -125 -19 -21 -35 -26 -111 -33 -167 -15 -276 25 -276 103 0 37 23 61 65 68 54 9 259 0 286 -13z" fill="black"/>
        <path d="M9652 1388 c29 -11 38 -32 38 -95 0 -47 -1 -48 -53 -57 l-39 -7 3 35 c4 43 -1 49 -35 40 -20 -5 -26 -12 -26 -34 0 -37 -37 -52 -57 -24 -12 17 -11 21 12 39 20 17 25 29 25 66 0 25 3 49 6 52 8 8 91 -2 126 -15z" fill="black"/>
      </g>
    </mask>
    <mask id="mask-6">
      <g>
        <path d="M 0 0 H 12160.0 V 3960.0 H 0 Z" fill="white" id="background"/>
        <path d="M3988 2468 c7 -7 12 -24 12 -38 0 -14 5 -31 10 -36 6 -6 11 -39 11 -75 1 -35 4 -68 9 -74 4 -5 10 -35 13 -65 7 -56 -9 -100 -35 -100 -5 0 -23 -9 -38 -20 l-29 -20 -68 22 c-37 12 -73 25 -80 30 -6 5 -14 35 -16 66 -3 31 -9 73 -12 92 -7 37 -12 30 104 162 50 57 96 79 119 56z" fill="black"/>
        <path d="M5601 1409 c51 -16 95 -64 119 -130 23 -63 24 -82 8 -146 -29 -112 -75 -153 -173 -153 -58 0 -65 3 -106 39 -55 48 -83 131 -77 226 5 75 35 122 100 153 50 24 76 26 129 11z" fill="black"/>
        <path d="M9031 910 c49 -23 68 -89 36 -125 -19 -21 -35 -26 -111 -33 -167 -15 -276 25 -276 103 0 37 23 61 65 68 54 9 259 0 286 -13z" fill="black"/>
        <path d="M9652 1388 c29 -11 38 -32 38 -95 0 -47 -1 -48 -53 -57 l-39 -7 3 35 c4 43 -1 49 -35 40 -20 -5 -26 -12 -26 -34 0 -37 -37 -52 -57 -24 -12 17 -11 21 12 39 20 17 25 29 25 66 0 25 3 49 6 52 8 8 91 -2 126 -15z" fill="black"/>
      </g>
    </mask>
    <mask id="mask-5">
      <g>
        <path d="M 0 0 H 12160.0 V 3960.0 H 0 Z" fill="white" id="background"/>
        <path d="M1707 2510 c9 -16 21 -30 25 -30 12 0 10 -34 -3 -47 -9 -9 -9 -19 1 -42 11 -27 9 -34 -11 -62 -18 -26 -20 -35 -10 -50 9 -16 8 -25 -6 -46 l-18 -27 -3 32 c-2 19 -11 36 -23 42 -11 7 -19 21 -19 37 0 27 -15 84 -31 115 -16 32 -9 56 24 82 41 33 52 33 74 -4z" fill="black"/>
        <path d="M1557 2214 c9 -23 -11 -38 -26 -20 -13 16 -7 36 10 36 5 0 12 -7 16 -16z" fill="black"/>
        <path d="M1400 1990 c0 -5 -7 -10 -15 -10 -8 0 -15 5 -15 10 0 6 7 10 15 10 8 0 15 -4 15 -10z" fill="black"/>
        <path d="M3988 2468 c7 -7 12 -24 12 -38 0 -14 5 -31 10 -36 6 -6 11 -39 11 -75 1 -35 4 -68 9 -74 4 -5 10 -35 13 -65 7 -56 -9 -100 -35 -100 -5 0 -23 -9 -38 -20 l-29 -20 -68 22 c-37 12 -73 25 -80 30 -6 5 -14 35 -16 66 -3 31 -9 73 -12 92 -7 37 -12 30 104 162 50 57 96 79 119 56z" fill="black"/>
        <path d="M5601 1409 c51 -16 95 -64 119 -130 23 -63 24 -82 8 -146 -29 -112 -75 -153 -173 -153 -58 0 -65 3 -106 39 -55 48 -83 131 -77 226 5 75 35 122 100 153 50 24 76 26 129 11z" fill="black"/>
        <path d="M9031 910 c49 -23 68 -89 36 -125 -19 -21 -35 -26 -111 -33 -167 -15 -276 25 -276 103 0 37 23 61 65 68 54 9 259 0 286 -13z" fill="black"/>
        <path d="M9652 1388 c29 -11 38 -32 38 -95 0 -47 -1 -48 -53 -57 l-39 -7 3 35 c4 43 -1 49 -35 40 -20 -5 -26 -12 -26 -34 0 -37 -37 -52 -57 -24 -12 17 -11 21 12 39 20 17 25 29 25 66 0 25 3 49 6 52 8 8 91 -2 126 -15z" fill="black"/>
      </g>
    </mask>
    <mask id="mask-4">
      <g>
        <path d="M 0 0 H 12160.0 V 3960.0 H 0 Z" fill="white" id="background"/>
        <path d="M4760 2685 c15 -8 38 -30 49 -49 12 -19 28 -37 36 -40 24 -9 18 -45 -9 -56 -13 -5 -28 -16 -33 -24 -9 -16 -140 -57 -193 -60 -19 -1 -42 -5 -50 -8 -8 -4 -32 -9 -53 -13 -29 -5 -39 -2 -44 11 -3 9 -1 25 5 35 7 10 12 29 12 41 1 29 22 58 44 58 9 0 16 8 16 19 0 10 23 36 53 59 42 34 60 42 95 42 24 0 56 -7 72 -15z" fill="black"/>
        <path d="M1707 2510 c9 -16 21 -30 25 -30 12 0 10 -34 -3 -47 -9 -9 -9 -19 1 -42 11 -27 9 -34 -11 -62 -18 -26 -20 -35 -10 -50 9 -16 8 -25 -6 -46 l-18 -27 -3 32 c-2 19 -11 36 -23 42 -11 7 -19 21 -19 37 0 27 -15 84 -31 115 -16 32 -9 56 24 82 41 33 52 33 74 -4z" fill="black"/>
        <path d="M1557 2214 c9 -23 -11 -38 -26 -20 -13 16 -7 36 10 36 5 0 12 -7 16 -16z" fill="black"/>
        <path d="M1400 1990 c0 -5 -7 -10 -15 -10 -8 0 -15 5 -15 10 0 6 7 10 15 10 8 0 15 -4 15 -10z" fill="black"/>
        <path d="M3988 2468 c7 -7 12 -24 12 -38 0 -14 5 -31 10 -36 6 -6 11 -39 11 -75 1 -35 4 -68 9 -74 4 -5 10 -35 13 -65 7 -56 -9 -100 -35 -100 -5 0 -23 -9 -38 -20 l-29 -20 -68 22 c-37 12 -73 25 -80 30 -6 5 -14 35 -16 66 -3 31 -9 73 -12 92 -7 37 -12 30 104 162 50 57 96 79 119 56z" fill="black"/>
        <path d="M5601 1409 c51 -16 95 -64 119 -130 23 -63 24 -82 8 -146 -29 -112 -75 -153 -173 -153 -58 0 -65 3 -106 39 -55 48 -83 131 -77 226 5 75 35 122 100 153 50 24 76 26 129 11z" fill="black"/>
        <path d="M9031 910 c49 -23 68 -89 36 -125 -19 -21 -35 -26 -111 -33 -167 -15 -276 25 -276 103 0 37 23 61 65 68 54 9 259 0 286 -13z" fill="black"/>
        <path d="M9652 1388 c29 -11 38 -32 38 -95 0 -47 -1 -48 -53 -57 l-39 -7 3 35 c4 43 -1 49 -35 40 -20 -5 -26 -12 -26 -34 0 -37 -37 -52 -57 -24 -12 17 -11 21 12 39 20 17 25 29 25 66 0 25 3 49 6 52 8 8 91 -2 126 -15z" fill="black"/>
      </g>
    </mask>
    <mask id="mask-3">
      <g>
        <path d="M 0 0 H 12160.0 V 3960.0 H 0 Z" fill="white" id="background"/>
        <path d="M5467 2663 c7 -3 13 -11 13 -18 0 -6 9 -20 20 -30 45 -41 12 -67 -100 -80 -35 -4 -66 -2 -85 6 -16 7 -50 15 -75 18 -39 5 -45 10 -48 31 -2 18 7 36 30 59 l33 33 99 -7 c54 -4 105 -9 113 -12z" fill="black"/>
        <path d="M5503 2393 c3 -5 8 -30 11 -58 6 -46 4 -52 -19 -68 -21 -15 -36 -17 -85 -11 -49 5 -66 12 -90 38 -35 35 -35 60 0 64 14 2 33 11 43 20 17 15 21 15 50 -2 31 -17 32 -17 46 3 13 21 36 28 44 14z" fill="black"/>
        <path d="M4760 2685 c15 -8 38 -30 49 -49 12 -19 28 -37 36 -40 24 -9 18 -45 -9 -56 -13 -5 -28 -16 -33 -24 -9 -16 -140 -57 -193 -60 -19 -1 -42 -5 -50 -8 -8 -4 -32 -9 -53 -13 -29 -5 -39 -2 -44 11 -3 9 -1 25 5 35 7 10 12 29 12 41 1 29 22 58 44 58 9 0 16 8 16 19 0 10 23 36 53 59 42 34 60 42 95 42 24 0 56 -7 72 -15z" fill="black"/>
        <path d="M1707 2510 c9 -16 21 -30 25 -30 12 0 10 -34 -3 -47 -9 -9 -9 -19 1 -42 11 -27 9 -34 -11 -62 -18 -26 -20 -35 -10 -50 9 -16 8 -25 -6 -46 l-18 -27 -3 32 c-2 19 -11 36 -23 42 -11 7 -19 21 -19 37 0 27 -15 84 -31 115 -16 32 -9 56 24 82 41 33 52 33 74 -4z" fill="black"/>
        <path d="M1557 2214 c9 -23 -11 -38 -26 -20 -13 16 -7 36 10 36 5 0 12 -7 16 -16z" fill="black"/>
        <path d="M1400 1990 c0 -5 -7 -10 -15 -10 -8 0 -15 5 -15 10 0 6 7 10 15 10 8 0 15 -4 15 -10z" fill="black"/>
        <path d="M3988 2468 c7 -7 12 -24 12 -38 0 -14 5 -31 10 -36 6 -6 11 -39 11 -75 1 -35 4 -68 9 -74 4 -5 10 -35 13 -65 7 -56 -9 -100 -35 -100 -5 0 -23 -9 -38 -20 l-29 -20 -68 22 c-37 12 -73 25 -80 30 -6 5 -14 35 -16 66 -3 31 -9 73 -12 92 -7 37 -12 30 104 162 50 57 96 79 119 56z" fill="black"/>
        <path d="M5601 1409 c51 -16 95 -64 119 -130 23 -63 24 -82 8 -146 -29 -112 -75 -153 -173 -153 -58 0 -65 3 -106 39 -55 48 -83 131 -77 226 5 75 35 122 100 153 50 24 76 26 129 11z" fill="black"/>
        <path d="M9031 910 c49 -23 68 -89 36 -125 -19 -21 -35 -26 -111 -33 -167 -15 -276 25 -276 103 0 37 23 61 65 68 54 9 259 0 286 -13z" fill="black"/>
        <path d="M9652 1388 c29 -11 38 -32 38 -95 0 -47 -1 -48 -53 -57 l-39 -7 3 35 c4 43 -1 49 -35 40 -20 -5 -26 -12 -26 -34 0 -37 -37 -52 -57 -24 -12 17 -11 21 12 39 20 17 25 29 25 66 0 25 3 49 6 52 8 8 91 -2 126 -15z" fill="black"/>
      </g>
    </mask>
    <mask id="mask-2">
      <g>
        <path d="M 0 0 H 12160.0 V 3960.0 H 0 Z" fill="white" id="background"/>
        <path d="M6095 2760 c37 0 45 -5 75 -41 41 -51 34 -67 -35 -85 -67 -17 -115 -17 -158 1 -20 8 -49 15 -65 15 -45 0 -54 17 -32 61 27 52 45 61 114 54 32 -3 78 -5 101 -5z" fill="black"/>
        <path d="M6190 2464 c18 -47 12 -90 -15 -108 -50 -33 -154 -11 -185 39 -24 40 -25 45 -2 45 9 0 28 9 42 20 27 21 55 26 65 10 9 -15 42 -12 49 5 9 24 36 18 46 -11z" fill="black"/>
        <path d="M5467 2663 c7 -3 13 -11 13 -18 0 -6 9 -20 20 -30 45 -41 12 -67 -100 -80 -35 -4 -66 -2 -85 6 -16 7 -50 15 -75 18 -39 5 -45 10 -48 31 -2 18 7 36 30 59 l33 33 99 -7 c54 -4 105 -9 113 -12z" fill="black"/>
        <path d="M5503 2393 c3 -5 8 -30 11 -58 6 -46 4 -52 -19 -68 -21 -15 -36 -17 -85 -11 -49 5 -66 12 -90 38 -35 35 -35 60 0 64 14 2 33 11 43 20 17 15 21 15 50 -2 31 -17 32 -17 46 3 13 21 36 28 44 14z" fill="black"/>
        <path d="M4760 2685 c15 -8 38 -30 49 -49 12 -19 28 -37 36 -40 24 -9 18 -45 -9 -56 -13 -5 -28 -16 -33 -24 -9 -16 -140 -57 -193 -60 -19 -1 -42 -5 -50 -8 -8 -4 -32 -9 -53 -13 -29 -5 -39 -2 -44 11 -3 9 -1 25 5 35 7 10 12 29 12 41 1 29 22 58 44 58 9 0 16 8 16 19 0 10 23 36 53 59 42 34 60 42 95 42 24 0 56 -7 72 -15z" fill="black"/>
        <path d="M1707 2510 c9 -16 21 -30 25 -30 12 0 10 -34 -3 -47 -9 -9 -9 -19 1 -42 11 -27 9 -34 -11 -62 -18 -26 -20 -35 -10 -50 9 -16 8 -25 -6 -46 l-18 -27 -3 32 c-2 19 -11 36 -23 42 -11 7 -19 21 -19 37 0 27 -15 84 -31 115 -16 32 -9 56 24 82 41 33 52 33 74 -4z" fill="black"/>
        <path d="M1557 2214 c9 -23 -11 -38 -26 -20 -13 16 -7 36 10 36 5 0 12 -7 16 -16z" fill="black"/>
        <path d="M1400 1990 c0 -5 -7 -10 -15 -10 -8 0 -15 5 -15 10 0 6 7 10 15 10 8 0 15 -4 15 -10z" fill="black"/>
        <path d="M3988 2468 c7 -7 12 -24 12 -38 0 -14 5 -31 10 -36 6 -6 11 -39 11 -75 1 -35 4 -68 9 -74 4 -5 10 -35 13 -65 7 -56 -9 -100 -35 -100 -5 0 -23 -9 -38 -20 l-29 -20 -68 22 c-37 12 -73 25 -80 30 -6 5 -14 35 -16 66 -3 31 -9 73 -12 92 -7 37 -12 30 104 162 50 57 96 79 119 56z" fill="black"/>
        <path d="M5601 1409 c51 -16 95 -64 119 -130 23 -63 24 -82 8 -146 -29 -112 -75 -153 -173 -153 -58 0 -65 3 -106 39 -55 48 -83 131 -77 226 5 75 35 122 100 153 50 24 76 26 129 11z" fill="black"/>
        <path d="M9031 910 c49 -23 68 -89 36 -125 -19 -21 -35 -26 -111 -33 -167 -15 -276 25 -276 103 0 37 23 61 65 68 54 9 259 0 286 -13z" fill="black"/>
        <path d="M9652 1388 c29 -11 38 -32 38 -95 0 -47 -1 -48 -53 -57 l-39 -7 3 35 c4 43 -1 49 -35 40 -20 -5 -26 -12 -26 -34 0 -37 -37 -52 -57 -24 -12 17 -11 21 12 39 20 17 25 29 25 66 0 25 3 49 6 52 8 8 91 -2 126 -15z" fill="black"/>
      </g>
    </mask>
    <mask id="mask-1">
      <g>
        <path d="M 0 0 H 12160.0 V 3960.0 H 0 Z" fill="white" id="background"/>
        <path d="M6883 2908 c15 -18 40 -46 55 -61 27 -27 27 -28 7 -43 -11 -8 -29 -22 -40 -31 -31 -27 -128 -58 -225 -74 -30 -4 -71 -11 -91 -15 -41 -7 -55 5 -40 33 6 10 15 36 20 58 7 26 18 43 33 50 13 6 29 22 36 38 7 15 25 35 40 44 15 9 34 24 43 33 14 14 27 16 75 9 50 -7 64 -13 87 -41z" fill="black"/>
        <path d="M6095 2760 c37 0 45 -5 75 -41 41 -51 34 -67 -35 -85 -67 -17 -115 -17 -158 1 -20 8 -49 15 -65 15 -45 0 -54 17 -32 61 27 52 45 61 114 54 32 -3 78 -5 101 -5z" fill="black"/>
        <path d="M6190 2464 c18 -47 12 -90 -15 -108 -50 -33 -154 -11 -185 39 -24 40 -25 45 -2 45 9 0 28 9 42 20 27 21 55 26 65 10 9 -15 42 -12 49 5 9 24 36 18 46 -11z" fill="black"/>
        <path d="M5467 2663 c7 -3 13 -11 13 -18 0 -6 9 -20 20 -30 45 -41 12 -67 -100 -80 -35 -4 -66 -2 -85 6 -16 7 -50 15 -75 18 -39 5 -45 10 -48 31 -2 18 7 36 30 59 l33 33 99 -7 c54 -4 105 -9 113 -12z" fill="black"/>
        <path d="M5503 2393 c3 -5 8 -30 11 -58 6 -46 4 -52 -19 -68 -21 -15 -36 -17 -85 -11 -49 5 -66 12 -90 38 -35 35 -35 60 0 64 14 2 33 11 43 20 17 15 21 15 50 -2 31 -17 32 -17 46 3 13 21 36 28 44 14z" fill="black"/>
        <path d="M4760 2685 c15 -8 38 -30 49 -49 12 -19 28 -37 36 -40 24 -9 18 -45 -9 -56 -13 -5 -28 -16 -33 -24 -9 -16 -140 -57 -193 -60 -19 -1 -42 -5 -50 -8 -8 -4 -32 -9 -53 -13 -29 -5 -39 -2 -44 11 -3 9 -1 25 5 35 7 10 12 29 12 41 1 29 22 58 44 58 9 0 16 8 16 19 0 10 23 36 53 59 42 34 60 42 95 42 24 0 56 -7 72 -15z" fill="black"/>
        <path d="M1707 2510 c9 -16 21 -30 25 -30 12 0 10 -34 -3 -47 -9 -9 -9 -19 1 -42 11 -27 9 -34 -11 -62 -18 -26 -20 -35 -10 -50 9 -16 8 -25 -6 -46 l-18 -27 -3 32 c-2 19 -11 36 -23 42 -11 7 -19 21 -19 37 0 27 -15 84 -31 115 -16 32 -9 56 24 82 41 33 52 33 74 -4z" fill="black"/>
        <path d="M1557 2214 c9 -23 -11 -38 -26 -20 -13 16 -7 36 10 36 5 0 12 -7 16 -16z" fill="black"/>
        <path d="M1400 1990 c0 -5 -7 -10 -15 -10 -8 0 -15 5 -15 10 0 6 7 10 15 10 8 0 15 -4 15 -10z" fill="black"/>
        <path d="M3988 2468 c7 -7 12 -24 12 -38 0 -14 5 -31 10 -36 6 -6 11 -39 11 -75 1 -35 4 -68 9 -74 4 -5 10 -35 13 -65 7 -56 -9 -100 -35 -100 -5 0 -23 -9 -38 -20 l-29 -20 -68 22 c-37 12 -73 25 -80 30 -6 5 -14 35 -16 66 -3 31 -9 73 -12 92 -7 37 -12 30 104 162 50 57 96 79 119 56z" fill="black"/>
        <path d="M5601 1409 c51 -16 95 -64 119 -130 23 -63 24 -82 8 -146 -29 -112 -75 -153 -173 -153 -58 0 -65 3 -106 39 -55 48 -83 131 -77 226 5 75 35 122 100 153 50 24 76 26 129 11z" fill="black"/>
        <path d="M9031 910 c49 -23 68 -89 36 -125 -19 -21 -35 -26 -111 -33 -167 -15 -276 25 -276 103 0 37 23 61 65 68 54 9 259 0 286 -13z" fill="black"/>
        <path d="M9652 1388 c29 -11 38 -32 38 -95 0 -47 -1 -48 -53 -57 l-39 -7 3 35 c4 43 -1 49 -35 40 -20 -5 -26 -12 -26 -34 0 -37 -37 -52 -57 -24 -12 17 -11 21 12 39 20 17 25 29 25 66 0 25 3 49 6 52 8 8 91 -2 126 -15z" fill="black"/>
      </g>
    </mask>
    <mask id="mask-0">
      <g>
        <path d="M 0 0 H 12160.0 V 3960.0 H 0 Z" fill="white" id="background"/>
        <path d="M7582 2877 c34 -37 36 -42 22 -58 -29 -32 -159 -46 -218 -24 -24 9 -49 14 -55 10 -6 -3 -20 -3 -31 0 -31 10 -26 56 10 94 l31 32 102 -7 102 -7 37 -40z" fill="black"/>
        <path d="M7603 2597 c7 -75 -9 -97 -73 -97 -27 0 -52 5 -55 10 -3 6 -17 10 -31 10 -17 0 -30 10 -44 33 -25 40 -25 47 0 47 11 0 28 9 37 20 18 21 58 27 68 10 10 -17 44 -11 55 10 17 32 37 13 43 -43z" fill="black"/>
        <path d="M6883 2908 c15 -18 40 -46 55 -61 27 -27 27 -28 7 -43 -11 -8 -29 -22 -40 -31 -31 -27 -128 -58 -225 -74 -30 -4 -71 -11 -91 -15 -41 -7 -55 5 -40 33 6 10 15 36 20 58 7 26 18 43 33 50 13 6 29 22 36 38 7 15 25 35 40 44 15 9 34 24 43 33 14 14 27 16 75 9 50 -7 64 -13 87 -41z" fill="black"/>
        <path d="M6095 2760 c37 0 45 -5 75 -41 41 -51 34 -67 -35 -85 -67 -17 -115 -17 -158 1 -20 8 -49 15 -65 15 -45 0 -54 17 -32 61 27 52 45 61 114 54 32 -3 78 -5 101 -5z" fill="black"/>
        <path d="M6190 2464 c18 -47 12 -90 -15 -108 -50 -33 -154 -11 -185 39 -24 40 -25 45 -2 45 9 0 28 9 42 20 27 21 55 26 65 10 9 -15 42 -12 49 5 9 24 36 18 46 -11z" fill="black"/>
        <path d="M5467 2663 c7 -3 13 -11 13 -18 0 -6 9 -20 20 -30 45 -41 12 -67 -100 -80 -35 -4 -66 -2 -85 6 -16 7 -50 15 -75 18 -39 5 -45 10 -48 31 -2 18 7 36 30 59 l33 33 99 -7 c54 -4 105 -9 113 -12z" fill="black"/>
        <path d="M5503 2393 c3 -5 8 -30 11 -58 6 -46 4 -52 -19 -68 -21 -15 -36 -17 -85 -11 -49 5 -66 12 -90 38 -35 35 -35 60 0 64 14 2 33 11 43 20 17 15 21 15 50 -2 31 -17 32 -17 46 3 13 21 36 28 44 14z" fill="black"/>
        <path d="M4760 2685 c15 -8 38 -30 49 -49 12 -19 28 -37 36 -40 24 -9 18 -45 -9 -56 -13 -5 -28 -16 -33 -24 -9 -16 -140 -57 -193 -60 -19 -1 -42 -5 -50 -8 -8 -4 -32 -9 -53 -13 -29 -5 -39 -2 -44 11 -3 9 -1 25 5 35 7 10 12 29 12 41 1 29 22 58 44 58 9 0 16 8 16 19 0 10 23 36 53 59 42 34 60 42 95 42 24 0 56 -7 72 -15z" fill="black"/>
        <path d="M1707 2510 c9 -16 21 -30 25 -30 12 0 10 -34 -3 -47 -9 -9 -9 -19 1 -42 11 -27 9 -34 -11 -62 -18 -26 -20 -35 -10 -50 9 -16 8 -25 -6 -46 l-18 -27 -3 32 c-2 19 -11 36 -23 42 -11 7 -19 21 -19 37 0 27 -15 84 -31 115 -16 32 -9 56 24 82 41 33 52 33 74 -4z" fill="black"/>
        <path d="M1557 2214 c9 -23 -11 -38 -26 -20 -13 16 -7 36 10 36 5 0 12 -7 16 -16z" fill="black"/>
        <path d="M1400 1990 c0 -5 -7 -10 -15 -10 -8 0 -15 5 -15 10 0 6 7 10 15 10 8 0 15 -4 15 -10z" fill="black"/>
        <path d="M3988 2468 c7 -7 12 -24 12 -38 0 -14 5 -31 10 -36 6 -6 11 -39 11 -75 1 -35 4 -68 9 -74 4 -5 10 -35 13 -65 7 -56 -9 -100 -35 -100 -5 0 -23 -9 -38 -20 l-29 -20 -68 22 c-37 12 -73 25 -80 30 -6 5 -14 35 -16 66 -3 31 -9 73 -12 92 -7 37 -12 30 104 162 50 57 96 79 119 56z" fill="black"/>
        <path d="M5601 1409 c51 -16 95 -64 119 -130 23 -63 24 -82 8 -146 -29 -112 -75 -153 -173 -153 -58 0 -65 3 -106 39 -55 48 -83 131 -77 226 5 75 35 122 100 153 50 24 76 26 129 11z" fill="black"/>
        <path d="M9031 910 c49 -23 68 -89 36 -125 -19 -21 -35 -26 -111 -33 -167 -15 -276 25 -276 103 0 37 23 61 65 68 54 9 259 0 286 -13z" fill="black"/>
        <path d="M9652 1388 c29 -11 38 -32 38 -95 0 -47 -1 -48 -53 -57 l-39 -7 3 35 c4 43 -1 49 -35 40 -20 -5 -26 -12 -26 -34 0 -37 -37 -52 -57 -24 -12 17 -11 21 12 39 20 17 25 29 25 66 0 25 3 49 6 52 8 8 91 -2 126 -15z" fill="black"/>
      </g>
    </mask>
    <path stroke="none" d="M7365 3044 c-50 -8 -80 -23 -90 -47 -6 -12 -22 -28 -36 -34 -53 -26 -79 -99 -52 -149 9 -16 26 -50 39 -75 19 -39 26 -46 47 -42 20 4 27 -2 45 -41 12 -25 22 -48 22 -51 0 -13 -28 -1 -60 25 -41 35 -65 38 -81 9 -12 -23 -4 -105 12 -114 5 -4 9 -28 9 -54 0 -57 24 -111 49 -111 10 0 26 9 36 20 20 22 46 25 75 10 10 -5 71 -14 135 -20 110 -10 118 -9 145 10 15 11 33 20 38 20 15 0 78 75 96 115 20 41 20 101 2 137 -8 15 -17 40 -21 56 -3 16 -17 35 -30 42 -26 14 -34 53 -14 66 6 3 9 20 6 38 -9 51 -18 90 -27 111 -32 81 -25 75 -83 75 -30 0 -94 2 -143 4 -49 2 -102 2 -119 0z" fill="#ffffff" id="ffffff-000002" mask="url(#mask-0)"/>
    <path stroke="none" d="M6730 3030 c-8 -5 -22 -10 -31 -10 -20 0 -123 -61 -155 -91 -13 -12 -30 -37 -38 -55 -9 -19 -23 -49 -32 -68 -12 -26 -13 -43 -6 -72 6 -22 10 -77 9 -124 0 -99 16 -138 87 -205 53 -50 79 -65 111 -65 13 0 45 -12 71 -26 71 -40 130 -31 257 39 46 24 78 81 84 147 9 97 -21 90 -139 -34 l-67 -70 -63 2 c-65 3 -151 36 -181 70 -11 13 -47 103 -47 119 0 10 65 33 94 33 19 0 37 4 40 9 5 8 92 21 141 22 51 0 191 31 205 45 11 10 15 33 13 77 -1 69 -35 144 -80 175 -13 9 -37 28 -54 40 -48 39 -184 64 -219 42z" fill="#ffffff" id="ffffff-000001" mask="url(#mask-1)"/>
    <path stroke="none" d="M5942 2881 c-30 -5 -54 -18 -77 -42 -18 -19 -44 -41 -57 -51 -13 -9 -30 -35 -38 -58 -12 -35 -12 -45 0 -63 8 -12 24 -43 36 -68 16 -33 34 -52 61 -65 43 -22 75 -80 48 -90 -8 -4 -27 7 -46 25 -35 35 -56 39 -75 14 -18 -25 -17 -50 5 -110 10 -28 16 -63 14 -78 -7 -32 25 -95 48 -95 9 0 24 9 34 20 20 22 55 26 86 10 10 -6 69 -15 130 -21 103 -9 112 -8 139 11 15 11 32 20 38 20 13 0 78 72 96 109 22 42 20 114 -4 153 -11 18 -20 40 -20 49 0 8 -10 25 -23 37 -21 19 -23 29 -19 82 3 46 -1 80 -19 135 l-24 75 -50 0 c-27 0 -93 2 -145 4 -52 3 -115 1 -138 -3z" fill="#ffffff" id="ffffff-000003" mask="url(#mask-2)"/>
    <path stroke="none" d="M5250 2788 c-34 -9 -56 -26 -126 -96 -49 -48 -52 -73 -18 -145 38 -79 61 -107 87 -107 24 0 47 -38 47 -77 0 -31 -14 -29 -40 6 -25 36 -52 46 -80 31 -25 -13 -27 -61 -5 -113 8 -20 15 -53 15 -73 0 -35 24 -99 41 -110 5 -3 23 6 40 20 35 30 43 31 101 12 24 -8 86 -16 138 -17 83 -2 100 1 135 21 57 33 74 49 107 99 35 56 39 132 8 171 -11 14 -20 38 -20 53 0 20 -6 30 -19 34 -25 6 -33 27 -22 56 10 27 0 105 -23 172 -23 64 -38 80 -62 67 -12 -6 -41 -6 -74 -1 -75 10 -188 9 -230 -3z" fill="#ffffff" id="ffffff-000004" mask="url(#mask-3)"/>
    <path stroke="none" d="M4650 2783 c-14 -2 -57 -20 -97 -39 -70 -34 -117 -77 -142 -130 -6 -13 -16 -35 -22 -48 -6 -14 -9 -46 -5 -77 7 -67 7 -74 0 -129 -14 -108 83 -240 197 -269 30 -8 66 -22 81 -32 81 -57 287 29 328 137 6 14 10 48 10 75 0 71 -23 66 -117 -30 -43 -43 -87 -83 -98 -89 -32 -16 -136 -7 -147 12 -5 9 -16 16 -24 16 -27 0 -71 38 -84 72 -6 18 -17 43 -22 55 -16 33 -4 50 44 57 23 3 68 11 98 17 30 6 84 13 120 16 36 3 70 9 76 14 7 5 25 8 42 7 33 -2 79 17 99 42 20 25 15 94 -12 152 -38 84 -110 140 -207 163 -64 15 -73 16 -118 8z" fill="#ffffff" id="ffffff-000005" mask="url(#mask-4)"/>
    <path stroke="none" d="M2927 2728 c-10 -23 -13 -52 -9 -96 6 -82 -7 -108 -58 -115 -32 -4 -82 -22 -129 -46 -29 -14 -36 -38 -21 -66 13 -25 18 -27 60 -21 166 21 156 22 176 -15 13 -26 18 -59 18 -136 1 -56 4 -105 9 -109 4 -4 7 -22 7 -40 0 -19 9 -49 20 -69 11 -20 20 -46 20 -58 0 -27 42 -69 85 -85 77 -27 152 -18 205 24 8 7 40 21 70 31 l55 18 5 93 5 94 -33 20 c-18 11 -39 32 -47 48 -18 34 -31 39 -72 28 -28 -7 -33 -13 -33 -37 0 -37 -22 -56 -49 -42 -29 16 -31 14 -31 -20 0 -38 -18 -34 -43 9 -15 26 -19 53 -19 142 1 60 3 114 7 120 8 13 81 32 135 34 47 2 100 29 100 51 0 8 -12 28 -27 46 l-27 32 -86 -5 c-47 -3 -98 -2 -115 1 -26 5 -30 11 -30 38 0 17 -8 40 -17 50 -10 11 -18 29 -18 41 0 12 -9 26 -20 32 -11 6 -20 17 -20 25 0 10 -10 15 -29 15 -23 0 -32 -7 -44 -32z" fill="#ffffff" id="ffffff-000006" mask="url(#mask-5)"/>
    <path stroke="none" d="M2220 2658 c-47 -28 -59 -46 -60 -94 0 -63 72 -151 95 -114 3 6 20 10 36 10 37 0 69 16 69 34 0 7 9 21 20 31 39 35 20 74 -67 133 -38 26 -48 26 -93 0z" fill="#ffffff" id="ffffff-000007" mask="url(#mask-5)"/>
    <path stroke="none" d="M1696 2608 l-37 -30 -36 17 c-34 17 -41 17 -113 1 -41 -9 -92 -16 -112 -16 -34 0 -48 -12 -48 -41 0 -5 21 -29 47 -53 44 -41 46 -46 35 -71 -8 -17 -9 -32 -3 -43 10 -18 7 -170 -4 -254 -8 -55 -29 -79 -49 -57 -7 8 -23 48 -35 89 -13 41 -27 83 -32 92 -5 10 -9 33 -9 53 0 19 -9 58 -20 87 l-21 53 43 37 42 37 -24 26 c-22 23 -31 26 -67 21 -24 -3 -62 -9 -86 -12 -23 -3 -54 -14 -67 -25 l-25 -19 25 -20 c14 -10 37 -29 53 -40 21 -17 27 -30 27 -59 0 -25 7 -44 20 -56 11 -10 20 -26 20 -36 0 -10 11 -39 25 -65 16 -31 23 -55 19 -71 -7 -27 21 -127 42 -147 7 -8 17 -40 20 -73 4 -32 17 -82 30 -111 13 -29 24 -70 24 -91 0 -34 5 -42 40 -65 22 -14 46 -26 53 -26 14 0 75 62 95 97 19 35 15 50 -18 62 -28 9 -30 14 -30 58 0 27 5 54 12 61 9 9 9 20 -1 47 -9 26 -9 39 -1 56 7 11 9 32 5 46 -4 16 0 34 10 49 19 29 35 31 35 4 0 -12 7 -32 16 -45 9 -14 18 -54 21 -93 2 -37 10 -80 18 -97 19 -43 45 -131 45 -153 0 -25 41 -52 79 -52 26 0 33 6 51 46 11 26 20 52 20 59 0 8 6 16 13 18 9 4 9 8 -2 15 -16 12 -24 272 -9 312 15 40 23 228 14 319 -5 51 -3 58 31 108 26 38 34 56 26 64 -6 6 -47 12 -91 14 -76 3 -82 1 -116 -27z" fill="#ffffff" id="ffffff-000008" mask="url(#mask-5)"/>
    <path stroke="none" d="M3881 2601 c-18 -5 -54 -30 -80 -55 -26 -25 -51 -46 -57 -46 -16 0 -64 24 -64 32 0 18 -72 19 -125 3 -30 -10 -55 -19 -55 -21 0 -2 7 -19 16 -38 11 -22 32 -42 60 -56 45 -24 54 -39 75 -127 10 -40 10 -58 1 -78 -16 -35 -15 -61 5 -114 17 -43 16 -44 -6 -62 -13 -11 -36 -19 -51 -19 -31 0 -60 -27 -60 -57 0 -11 11 -30 25 -43 22 -20 31 -22 83 -17 101 11 226 39 246 56 10 9 22 26 27 39 12 30 33 23 37 -11 5 -43 65 -50 223 -25 102 15 152 40 165 80 5 17 -7 34 -69 92 -81 76 -97 99 -97 141 0 14 -8 37 -17 52 -11 16 -17 48 -18 90 -1 35 -7 69 -13 75 -15 15 -16 68 -1 68 6 0 9 6 7 13 -7 19 -204 41 -257 28z" fill="#ffffff" id="ffffff-000009" mask="url(#mask-6)"/>
    <path stroke="none" d="M2242 2408 c-8 -8 -43 -13 -90 -14 -111 -2 -167 -30 -141 -71 25 -40 111 -53 185 -28 52 17 78 -71 88 -288 4 -98 3 -109 -15 -126 -22 -20 -108 -51 -143 -51 -59 0 -87 -64 -41 -94 26 -17 109 -14 450 16 121 11 132 14 158 39 41 42 33 85 -23 114 -31 16 -86 20 -94 7 -3 -5 -25 -4 -49 2 -41 9 -45 13 -61 60 -9 28 -21 89 -27 136 -16 138 -21 164 -30 175 -5 5 -9 24 -9 41 0 20 -10 44 -26 63 -22 27 -33 31 -73 31 -26 0 -53 -6 -59 -12z" fill="#ffffff" id="ffffff-000010" mask="url(#mask-7)"/>
    <path stroke="none" d="M4772 1670 c-6 -11 -12 -37 -13 -57 0 -21 -6 -60 -12 -88 l-12 -50 -73 -6 c-77 -6 -98 -19 -82 -50 7 -13 24 -16 79 -17 104 0 106 -2 101 -114 -3 -51 -5 -142 -5 -203 0 -101 2 -113 24 -143 37 -48 68 -65 125 -65 62 -1 90 16 137 81 38 52 59 103 59 145 0 42 -28 34 -106 -28 -38 -30 -76 -55 -85 -55 -21 0 -40 23 -56 69 -15 43 -17 244 -3 271 17 31 49 43 135 49 77 6 80 7 80 31 0 25 -1 25 -110 31 -60 4 -111 7 -112 8 -2 0 -3 43 -3 94 0 94 -8 117 -40 117 -8 0 -21 -9 -28 -20z" fill="#ffffff" id="ffffff-000012" mask="url(#mask-7)"/>
    <path stroke="none" d="M6401 1681 c-39 -11 -35 -28 11 -49 76 -33 73 -19 73 -361 l0 -306 -40 -5 c-27 -3 -40 -10 -40 -20 0 -12 16 -15 82 -15 74 0 117 11 85 22 -37 14 -42 32 -42 171 0 190 -8 182 174 182 132 0 146 -2 171 -22 l27 -21 -4 -116 c-5 -127 -19 -174 -55 -179 -12 -2 -27 -10 -33 -18 -11 -12 4 -14 104 -14 114 0 153 12 81 26 -20 3 -40 15 -45 25 -13 24 -13 207 1 409 11 173 19 210 43 210 28 0 66 23 66 40 0 35 -24 41 -161 38 -116 -3 -134 -5 -137 -20 -2 -11 11 -27 37 -43 51 -34 71 -77 71 -153 0 -44 -5 -66 -19 -83 -18 -23 -25 -24 -135 -24 -144 0 -153 6 -167 117 -9 61 -8 82 5 112 13 31 19 36 49 36 38 0 67 24 50 41 -25 25 -189 38 -252 20z" fill="#ffffff" id="ffffff-000013" mask="url(#mask-7)"/>
    <path stroke="none" d="M7086 1477 c-19 -14 -15 -37 7 -37 31 0 86 -22 93 -38 5 -9 11 -109 14 -222 l5 -205 50 -27 c59 -31 99 -34 145 -11 54 26 120 28 194 4 76 -25 182 -28 212 -7 19 14 19 15 -3 38 -13 13 -45 35 -72 48 -27 14 -54 32 -59 41 -16 25 -33 197 -30 298 3 82 1 94 -16 107 -20 14 -136 20 -149 7 -13 -13 16 -33 48 -33 53 0 69 -27 61 -102 -15 -139 -80 -263 -158 -304 -53 -28 -145 -9 -163 33 -4 10 -11 102 -14 205 -4 118 -10 191 -17 198 -19 19 -126 24 -148 7z" fill="#ffffff" id="ffffff-000014" mask="url(#mask-7)"/>
    <path stroke="none" d="M7853 1483 c-26 -10 -12 -42 36 -82 58 -49 71 -90 71 -230 0 -112 -16 -155 -64 -171 -41 -13 -71 -44 -63 -65 5 -12 28 -15 131 -15 105 0 127 3 146 18 28 23 19 42 -20 42 -38 0 -45 24 -37 134 10 138 62 237 146 272 55 23 86 18 124 -20 40 -40 47 -75 47 -240 0 -75 -4 -118 -12 -128 -7 -9 -35 -23 -62 -31 -87 -24 -69 -37 53 -37 89 0 111 3 111 14 0 8 -6 16 -12 18 -10 4 -15 59 -19 210 l-5 206 -35 48 c-30 42 -42 50 -80 57 -37 7 -57 4 -105 -14 -74 -28 -123 -29 -196 -1 -53 20 -126 27 -155 15z" fill="#ffffff" id="ffffff-000015" mask="url(#mask-7)"/>
    <path stroke="none" d="M5490 1463 c-28 -5 -114 -85 -134 -123 -7 -14 -17 -34 -23 -45 -35 -66 -44 -195 -18 -257 21 -52 112 -130 171 -147 66 -20 142 -19 185 2 86 40 169 174 169 270 0 40 -19 109 -33 123 -4 4 -7 15 -7 24 0 21 -84 120 -118 138 -28 15 -147 24 -192 15z" fill="#ffffff" id="ffffff-000016" mask="url(#mask-7)"/>
    <path stroke="none" d="M8810 1461 c0 -30 14 -41 55 -41 57 0 108 -22 125 -55 8 -15 14 -54 15 -87 0 -53 -3 -62 -28 -84 -25 -21 -38 -24 -110 -24 -45 0 -88 4 -95 8 -8 6 -15 44 -19 110 -5 87 -9 102 -23 102 -9 0 -25 -9 -35 -20 -15 -17 -17 -32 -13 -104 6 -87 -5 -126 -36 -126 -22 0 -44 -33 -49 -75 -29 -222 -31 -259 -12 -299 26 -55 85 -80 265 -113 71 -13 93 -14 135 -3 119 30 215 102 215 161 0 95 -55 172 -140 194 -66 18 -121 19 -245 4 -90 -11 -95 -10 -124 11 -34 24 -39 53 -15 85 14 18 25 20 129 17 125 -3 152 4 200 56 35 37 43 74 36 161 l-6 73 -85 29 c-87 29 -140 36 -140 20z" fill="#ffffff" id="ffffff-000017" mask="url(#mask-8)"/>
    <path stroke="none" d="M9093 1463 c-21 -8 -15 -32 19 -74 35 -44 40 -46 62 -24 17 17 13 35 -16 78 -18 26 -37 32 -65 20z" fill="#ffffff" id="ffffff-000018" mask="url(#mask-9)"/>
    <path stroke="none" d="M10065 1462 c-12 -12 -4 -42 14 -52 11 -5 47 -10 80 -10 l60 0 5 -32 c22 -142 12 -293 -23 -353 -15 -26 -24 -31 -72 -36 -99 -10 -131 -36 -91 -72 16 -15 45 -17 201 -17 156 0 187 3 212 17 16 10 28 24 27 31 -3 15 -69 42 -103 42 -11 0 -33 11 -50 24 -29 24 -30 26 -30 113 0 98 11 133 62 207 27 37 32 51 23 60 -9 8 -14 8 -17 -2 -3 -7 -15 -25 -27 -39 -29 -34 -56 -26 -56 17 0 38 -24 86 -50 100 -19 10 -154 12 -165 2z" fill="#ffffff" id="ffffff-000020" mask="url(#mask-9)"/>
    <path stroke="none" d="M10495 1460 c-77 -14 -119 -40 -98 -61 6 -6 27 -4 57 6 58 20 74 15 109 -36 20 -30 33 -39 50 -37 18 2 23 10 25 44 2 31 -2 46 -22 67 -26 28 -45 31 -121 17z" fill="#ffffff" id="ffffff-000021" mask="url(#mask-9)"/>
    <path stroke="none" d="M9535 1450 c-11 -5 -31 -11 -45 -14 -69 -15 -150 -130 -150 -215 0 -84 60 -212 121 -259 38 -30 150 -48 205 -34 53 14 117 55 139 88 37 57 1 59 -84 4 -56 -36 -68 -40 -126 -40 -62 0 -65 1 -115 48 -50 46 -77 103 -64 137 4 8 52 14 162 19 200 8 252 15 259 34 9 21 -16 112 -39 144 -27 39 -93 75 -162 87 -69 13 -74 13 -101 1z" fill="#ffffff" id="ffffff-000019" mask="url(#mask-9)"/>
  </g>
</svg>
