<svg xmlns="http://www.w3.org/2000/svg" version="1.0" width="6608.000000pt" height="2536.000000pt" viewBox="0 0 6608.000000 2536.000000" preserveAspectRatio="xMidYMid meet">
  <g transform="translate(0.000000,2536.000000) scale(0.100000,-0.100000)" stroke="none">
    <mask id="mask-9">
      <g>
        <path d="M 0 0 H 66080.0 V 25360.0 H 0 Z" fill="white" id="background"/>
        <path d="M58520 7245 c92 -17 121 -25 138 -38 9 -7 12 -77 12 -288 l0 -279 -22 -9 c-35 -14 -213 -31 -315 -31 -220 0 -357 59 -417 179 -26 52 -38 148 -26 209 37 180 186 267 465 271 50 0 124 -6 165 -14z" fill="black"/>
      </g>
    </mask>
    <mask id="mask-8">
      <g>
        <path d="M 0 0 H 66080.0 V 25360.0 H 0 Z" fill="white" id="background"/>
        <path d="M54055 7945 c85 -22 141 -53 194 -109 80 -86 126 -203 133 -341 l3 -70 -462 -3 c-457 -2 -463 -2 -463 18 0 68 55 223 107 302 112 170 306 251 488 203z" fill="black"/>
        <path d="M58520 7245 c92 -17 121 -25 138 -38 9 -7 12 -77 12 -288 l0 -279 -22 -9 c-35 -14 -213 -31 -315 -31 -220 0 -357 59 -417 179 -26 52 -38 148 -26 209 37 180 186 267 465 271 50 0 124 -6 165 -14z" fill="black"/>
      </g>
    </mask>
    <mask id="mask-7">
      <g>
        <path d="M 0 0 H 66080.0 V 25360.0 H 0 Z" fill="white" id="background"/>
        <path d="M47492 7946 c205 -49 339 -207 394 -466 17 -77 19 -320 3 -388 -17 -76 -31 -125 -45 -157 -7 -17 -17 -41 -22 -55 -17 -45 -102 -148 -151 -185 -221 -161 -540 -109 -690 114 -90 135 -121 253 -121 466 0 158 16 262 55 350 8 17 18 41 23 55 17 45 102 148 151 185 114 83 265 114 403 81z" fill="black"/>
        <path d="M54055 7945 c85 -22 141 -53 194 -109 80 -86 126 -203 133 -341 l3 -70 -462 -3 c-457 -2 -463 -2 -463 18 0 68 55 223 107 302 112 170 306 251 488 203z" fill="black"/>
        <path d="M58520 7245 c92 -17 121 -25 138 -38 9 -7 12 -77 12 -288 l0 -279 -22 -9 c-35 -14 -213 -31 -315 -31 -220 0 -357 59 -417 179 -26 52 -38 148 -26 209 37 180 186 267 465 271 50 0 124 -6 165 -14z" fill="black"/>
      </g>
    </mask>
    <mask id="mask-6">
      <g>
        <path d="M 0 0 H 66080.0 V 25360.0 H 0 Z" fill="white" id="background"/>
        <path d="M51843 8470 c185 -27 336 -79 442 -153 96 -67 206 -197 252 -297 69 -153 88 -252 88 -470 0 -189 -7 -243 -47 -365 -44 -132 -105 -231 -194 -315 -103 -97 -181 -145 -309 -188 -175 -59 -431 -78 -645 -48 l-85 11 0 905 0 905 80 11 c106 15 328 17 418 4z" fill="black"/>
        <path d="M47492 7946 c205 -49 339 -207 394 -466 17 -77 19 -320 3 -388 -17 -76 -31 -125 -45 -157 -7 -17 -17 -41 -22 -55 -17 -45 -102 -148 -151 -185 -221 -161 -540 -109 -690 114 -90 135 -121 253 -121 466 0 158 16 262 55 350 8 17 18 41 23 55 17 45 102 148 151 185 114 83 265 114 403 81z" fill="black"/>
        <path d="M54055 7945 c85 -22 141 -53 194 -109 80 -86 126 -203 133 -341 l3 -70 -462 -3 c-457 -2 -463 -2 -463 18 0 68 55 223 107 302 112 170 306 251 488 203z" fill="black"/>
        <path d="M58520 7245 c92 -17 121 -25 138 -38 9 -7 12 -77 12 -288 l0 -279 -22 -9 c-35 -14 -213 -31 -315 -31 -220 0 -357 59 -417 179 -26 52 -38 148 -26 209 37 180 186 267 465 271 50 0 124 -6 165 -14z" fill="black"/>
      </g>
    </mask>
    <mask id="mask-5">
      <g>
        <path d="M 0 0 H 66080.0 V 25360.0 H 0 Z" fill="white" id="background"/>
        <path d="M61990 7926 c109 -23 189 -54 263 -101 l47 -30 -2 -574 -3 -575 -30 -8 c-61 -18 -223 -37 -310 -38 -83 0 -171 13 -252 38 -139 43 -286 203 -330 357 -6 22 -16 59 -22 81 -6 23 -11 108 -11 190 0 138 4 175 37 313 3 13 21 55 40 94 98 202 331 305 573 253z" fill="black"/>
        <path d="M51843 8470 c185 -27 336 -79 442 -153 96 -67 206 -197 252 -297 69 -153 88 -252 88 -470 0 -189 -7 -243 -47 -365 -44 -132 -105 -231 -194 -315 -103 -97 -181 -145 -309 -188 -175 -59 -431 -78 -645 -48 l-85 11 0 905 0 905 80 11 c106 15 328 17 418 4z" fill="black"/>
        <path d="M47492 7946 c205 -49 339 -207 394 -466 17 -77 19 -320 3 -388 -17 -76 -31 -125 -45 -157 -7 -17 -17 -41 -22 -55 -17 -45 -102 -148 -151 -185 -221 -161 -540 -109 -690 114 -90 135 -121 253 -121 466 0 158 16 262 55 350 8 17 18 41 23 55 17 45 102 148 151 185 114 83 265 114 403 81z" fill="black"/>
        <path d="M54055 7945 c85 -22 141 -53 194 -109 80 -86 126 -203 133 -341 l3 -70 -462 -3 c-457 -2 -463 -2 -463 18 0 68 55 223 107 302 112 170 306 251 488 203z" fill="black"/>
        <path d="M58520 7245 c92 -17 121 -25 138 -38 9 -7 12 -77 12 -288 l0 -279 -22 -9 c-35 -14 -213 -31 -315 -31 -220 0 -357 59 -417 179 -26 52 -38 148 -26 209 37 180 186 267 465 271 50 0 124 -6 165 -14z" fill="black"/>
      </g>
    </mask>
    <mask id="mask-4">
      <g>
        <path d="M 0 0 H 66080.0 V 25360.0 H 0 Z" fill="white" id="background"/>
        <path d="M57028 13319 c191 -51 370 -198 457 -375 50 -102 95 -277 95 -371 l0 -53 -800 0 -800 0 0 24 c0 27 40 187 65 261 63 186 182 339 333 431 128 79 222 101 420 103 125 1 166 -3 230 -20z" fill="black"/>
        <path d="M61990 7926 c109 -23 189 -54 263 -101 l47 -30 -2 -574 -3 -575 -30 -8 c-61 -18 -223 -37 -310 -38 -83 0 -171 13 -252 38 -139 43 -286 203 -330 357 -6 22 -16 59 -22 81 -6 23 -11 108 -11 190 0 138 4 175 37 313 3 13 21 55 40 94 98 202 331 305 573 253z" fill="black"/>
        <path d="M51843 8470 c185 -27 336 -79 442 -153 96 -67 206 -197 252 -297 69 -153 88 -252 88 -470 0 -189 -7 -243 -47 -365 -44 -132 -105 -231 -194 -315 -103 -97 -181 -145 -309 -188 -175 -59 -431 -78 -645 -48 l-85 11 0 905 0 905 80 11 c106 15 328 17 418 4z" fill="black"/>
        <path d="M47492 7946 c205 -49 339 -207 394 -466 17 -77 19 -320 3 -388 -17 -76 -31 -125 -45 -157 -7 -17 -17 -41 -22 -55 -17 -45 -102 -148 -151 -185 -221 -161 -540 -109 -690 114 -90 135 -121 253 -121 466 0 158 16 262 55 350 8 17 18 41 23 55 17 45 102 148 151 185 114 83 265 114 403 81z" fill="black"/>
        <path d="M54055 7945 c85 -22 141 -53 194 -109 80 -86 126 -203 133 -341 l3 -70 -462 -3 c-457 -2 -463 -2 -463 18 0 68 55 223 107 302 112 170 306 251 488 203z" fill="black"/>
        <path d="M58520 7245 c92 -17 121 -25 138 -38 9 -7 12 -77 12 -288 l0 -279 -22 -9 c-35 -14 -213 -31 -315 -31 -220 0 -357 59 -417 179 -26 52 -38 148 -26 209 37 180 186 267 465 271 50 0 124 -6 165 -14z" fill="black"/>
      </g>
    </mask>
    <mask id="mask-3">
      <g>
        <path d="M 0 0 H 66080.0 V 25360.0 H 0 Z" fill="white" id="background"/>
        <path d="M39914 13289 c100 -26 125 -35 198 -71 225 -113 391 -378 457 -728 25 -135 31 -211 31 -396 0 -109 -5 -227 -10 -263 -6 -36 -15 -97 -21 -136 -6 -38 -15 -81 -19 -95 -4 -14 -13 -45 -20 -70 -21 -75 -31 -101 -81 -205 -127 -262 -307 -404 -574 -451 -264 -47 -537 39 -704 222 -210 230 -311 552 -311 994 0 314 41 527 145 745 103 218 279 379 470 432 22 7 56 16 75 21 48 14 314 14 364 1z" fill="black"/>
        <path d="M57028 13319 c191 -51 370 -198 457 -375 50 -102 95 -277 95 -371 l0 -53 -800 0 -800 0 0 24 c0 27 40 187 65 261 63 186 182 339 333 431 128 79 222 101 420 103 125 1 166 -3 230 -20z" fill="black"/>
        <path d="M61990 7926 c109 -23 189 -54 263 -101 l47 -30 -2 -574 -3 -575 -30 -8 c-61 -18 -223 -37 -310 -38 -83 0 -171 13 -252 38 -139 43 -286 203 -330 357 -6 22 -16 59 -22 81 -6 23 -11 108 -11 190 0 138 4 175 37 313 3 13 21 55 40 94 98 202 331 305 573 253z" fill="black"/>
        <path d="M51843 8470 c185 -27 336 -79 442 -153 96 -67 206 -197 252 -297 69 -153 88 -252 88 -470 0 -189 -7 -243 -47 -365 -44 -132 -105 -231 -194 -315 -103 -97 -181 -145 -309 -188 -175 -59 -431 -78 -645 -48 l-85 11 0 905 0 905 80 11 c106 15 328 17 418 4z" fill="black"/>
        <path d="M47492 7946 c205 -49 339 -207 394 -466 17 -77 19 -320 3 -388 -17 -76 -31 -125 -45 -157 -7 -17 -17 -41 -22 -55 -17 -45 -102 -148 -151 -185 -221 -161 -540 -109 -690 114 -90 135 -121 253 -121 466 0 158 16 262 55 350 8 17 18 41 23 55 17 45 102 148 151 185 114 83 265 114 403 81z" fill="black"/>
        <path d="M54055 7945 c85 -22 141 -53 194 -109 80 -86 126 -203 133 -341 l3 -70 -462 -3 c-457 -2 -463 -2 -463 18 0 68 55 223 107 302 112 170 306 251 488 203z" fill="black"/>
        <path d="M58520 7245 c92 -17 121 -25 138 -38 9 -7 12 -77 12 -288 l0 -279 -22 -9 c-35 -14 -213 -31 -315 -31 -220 0 -357 59 -417 179 -26 52 -38 148 -26 209 37 180 186 267 465 271 50 0 124 -6 165 -14z" fill="black"/>
      </g>
    </mask>
    <mask id="mask-2">
      <g>
        <path d="M 0 0 H 66080.0 V 25360.0 H 0 Z" fill="white" id="background"/>
        <path d="M31107 13329 c290 -69 498 -290 562 -594 25 -121 31 -158 31 -186 l0 -29 -802 2 -803 3 3 40 c8 95 66 274 126 390 31 60 63 102 131 170 112 113 195 159 365 204 51 13 331 13 387 0z" fill="black"/>
        <path d="M39914 13289 c100 -26 125 -35 198 -71 225 -113 391 -378 457 -728 25 -135 31 -211 31 -396 0 -109 -5 -227 -10 -263 -6 -36 -15 -97 -21 -136 -6 -38 -15 -81 -19 -95 -4 -14 -13 -45 -20 -70 -21 -75 -31 -101 -81 -205 -127 -262 -307 -404 -574 -451 -264 -47 -537 39 -704 222 -210 230 -311 552 -311 994 0 314 41 527 145 745 103 218 279 379 470 432 22 7 56 16 75 21 48 14 314 14 364 1z" fill="black"/>
        <path d="M57028 13319 c191 -51 370 -198 457 -375 50 -102 95 -277 95 -371 l0 -53 -800 0 -800 0 0 24 c0 27 40 187 65 261 63 186 182 339 333 431 128 79 222 101 420 103 125 1 166 -3 230 -20z" fill="black"/>
        <path d="M61990 7926 c109 -23 189 -54 263 -101 l47 -30 -2 -574 -3 -575 -30 -8 c-61 -18 -223 -37 -310 -38 -83 0 -171 13 -252 38 -139 43 -286 203 -330 357 -6 22 -16 59 -22 81 -6 23 -11 108 -11 190 0 138 4 175 37 313 3 13 21 55 40 94 98 202 331 305 573 253z" fill="black"/>
        <path d="M51843 8470 c185 -27 336 -79 442 -153 96 -67 206 -197 252 -297 69 -153 88 -252 88 -470 0 -189 -7 -243 -47 -365 -44 -132 -105 -231 -194 -315 -103 -97 -181 -145 -309 -188 -175 -59 -431 -78 -645 -48 l-85 11 0 905 0 905 80 11 c106 15 328 17 418 4z" fill="black"/>
        <path d="M47492 7946 c205 -49 339 -207 394 -466 17 -77 19 -320 3 -388 -17 -76 -31 -125 -45 -157 -7 -17 -17 -41 -22 -55 -17 -45 -102 -148 -151 -185 -221 -161 -540 -109 -690 114 -90 135 -121 253 -121 466 0 158 16 262 55 350 8 17 18 41 23 55 17 45 102 148 151 185 114 83 265 114 403 81z" fill="black"/>
        <path d="M54055 7945 c85 -22 141 -53 194 -109 80 -86 126 -203 133 -341 l3 -70 -462 -3 c-457 -2 -463 -2 -463 18 0 68 55 223 107 302 112 170 306 251 488 203z" fill="black"/>
        <path d="M58520 7245 c92 -17 121 -25 138 -38 9 -7 12 -77 12 -288 l0 -279 -22 -9 c-35 -14 -213 -31 -315 -31 -220 0 -357 59 -417 179 -26 52 -38 148 -26 209 37 180 186 267 465 271 50 0 124 -6 165 -14z" fill="black"/>
      </g>
    </mask>
    <mask id="mask-1">
      <g>
        <path d="M 0 0 H 66080.0 V 25360.0 H 0 Z" fill="white" id="background"/>
        <path d="M21034 13329 c175 -45 298 -120 404 -247 97 -116 176 -328 184 -497 l3 -60 -802 -3 c-777 -2 -803 -2 -803 16 0 11 4 32 9 48 5 16 14 54 21 84 27 125 86 265 148 358 82 120 247 242 377 279 22 6 56 16 75 21 48 14 333 14 384 1z" fill="black"/>
        <path d="M31107 13329 c290 -69 498 -290 562 -594 25 -121 31 -158 31 -186 l0 -29 -802 2 -803 3 3 40 c8 95 66 274 126 390 31 60 63 102 131 170 112 113 195 159 365 204 51 13 331 13 387 0z" fill="black"/>
        <path d="M39914 13289 c100 -26 125 -35 198 -71 225 -113 391 -378 457 -728 25 -135 31 -211 31 -396 0 -109 -5 -227 -10 -263 -6 -36 -15 -97 -21 -136 -6 -38 -15 -81 -19 -95 -4 -14 -13 -45 -20 -70 -21 -75 -31 -101 -81 -205 -127 -262 -307 -404 -574 -451 -264 -47 -537 39 -704 222 -210 230 -311 552 -311 994 0 314 41 527 145 745 103 218 279 379 470 432 22 7 56 16 75 21 48 14 314 14 364 1z" fill="black"/>
        <path d="M57028 13319 c191 -51 370 -198 457 -375 50 -102 95 -277 95 -371 l0 -53 -800 0 -800 0 0 24 c0 27 40 187 65 261 63 186 182 339 333 431 128 79 222 101 420 103 125 1 166 -3 230 -20z" fill="black"/>
        <path d="M61990 7926 c109 -23 189 -54 263 -101 l47 -30 -2 -574 -3 -575 -30 -8 c-61 -18 -223 -37 -310 -38 -83 0 -171 13 -252 38 -139 43 -286 203 -330 357 -6 22 -16 59 -22 81 -6 23 -11 108 -11 190 0 138 4 175 37 313 3 13 21 55 40 94 98 202 331 305 573 253z" fill="black"/>
        <path d="M51843 8470 c185 -27 336 -79 442 -153 96 -67 206 -197 252 -297 69 -153 88 -252 88 -470 0 -189 -7 -243 -47 -365 -44 -132 -105 -231 -194 -315 -103 -97 -181 -145 -309 -188 -175 -59 -431 -78 -645 -48 l-85 11 0 905 0 905 80 11 c106 15 328 17 418 4z" fill="black"/>
        <path d="M47492 7946 c205 -49 339 -207 394 -466 17 -77 19 -320 3 -388 -17 -76 -31 -125 -45 -157 -7 -17 -17 -41 -22 -55 -17 -45 -102 -148 -151 -185 -221 -161 -540 -109 -690 114 -90 135 -121 253 -121 466 0 158 16 262 55 350 8 17 18 41 23 55 17 45 102 148 151 185 114 83 265 114 403 81z" fill="black"/>
        <path d="M54055 7945 c85 -22 141 -53 194 -109 80 -86 126 -203 133 -341 l3 -70 -462 -3 c-457 -2 -463 -2 -463 18 0 68 55 223 107 302 112 170 306 251 488 203z" fill="black"/>
        <path d="M58520 7245 c92 -17 121 -25 138 -38 9 -7 12 -77 12 -288 l0 -279 -22 -9 c-35 -14 -213 -31 -315 -31 -220 0 -357 59 -417 179 -26 52 -38 148 -26 209 37 180 186 267 465 271 50 0 124 -6 165 -14z" fill="black"/>
      </g>
    </mask>
    <mask id="mask-0">
      <g>
        <path d="M 0 0 H 66080.0 V 25360.0 H 0 Z" fill="white" id="background"/>
        <path d="M25943 14570 c188 -28 208 -31 352 -70 52 -14 89 -28 160 -61 186 -87 297 -219 352 -419 20 -71 22 -323 4 -400 -41 -176 -122 -300 -257 -391 -40 -27 -76 -49 -79 -49 -3 0 -24 -9 -48 -19 -128 -59 -304 -98 -547 -122 -52 -5 -238 -12 -413 -15 -244 -5 -321 -3 -332 6 -13 11 -15 111 -15 767 0 594 3 755 13 758 61 24 672 34 810 15z" fill="black"/>
        <path d="M21034 13329 c175 -45 298 -120 404 -247 97 -116 176 -328 184 -497 l3 -60 -802 -3 c-777 -2 -803 -2 -803 16 0 11 4 32 9 48 5 16 14 54 21 84 27 125 86 265 148 358 82 120 247 242 377 279 22 6 56 16 75 21 48 14 333 14 384 1z" fill="black"/>
        <path d="M31107 13329 c290 -69 498 -290 562 -594 25 -121 31 -158 31 -186 l0 -29 -802 2 -803 3 3 40 c8 95 66 274 126 390 31 60 63 102 131 170 112 113 195 159 365 204 51 13 331 13 387 0z" fill="black"/>
        <path d="M39914 13289 c100 -26 125 -35 198 -71 225 -113 391 -378 457 -728 25 -135 31 -211 31 -396 0 -109 -5 -227 -10 -263 -6 -36 -15 -97 -21 -136 -6 -38 -15 -81 -19 -95 -4 -14 -13 -45 -20 -70 -21 -75 -31 -101 -81 -205 -127 -262 -307 -404 -574 -451 -264 -47 -537 39 -704 222 -210 230 -311 552 -311 994 0 314 41 527 145 745 103 218 279 379 470 432 22 7 56 16 75 21 48 14 314 14 364 1z" fill="black"/>
        <path d="M57028 13319 c191 -51 370 -198 457 -375 50 -102 95 -277 95 -371 l0 -53 -800 0 -800 0 0 24 c0 27 40 187 65 261 63 186 182 339 333 431 128 79 222 101 420 103 125 1 166 -3 230 -20z" fill="black"/>
        <path d="M61990 7926 c109 -23 189 -54 263 -101 l47 -30 -2 -574 -3 -575 -30 -8 c-61 -18 -223 -37 -310 -38 -83 0 -171 13 -252 38 -139 43 -286 203 -330 357 -6 22 -16 59 -22 81 -6 23 -11 108 -11 190 0 138 4 175 37 313 3 13 21 55 40 94 98 202 331 305 573 253z" fill="black"/>
        <path d="M51843 8470 c185 -27 336 -79 442 -153 96 -67 206 -197 252 -297 69 -153 88 -252 88 -470 0 -189 -7 -243 -47 -365 -44 -132 -105 -231 -194 -315 -103 -97 -181 -145 -309 -188 -175 -59 -431 -78 -645 -48 l-85 11 0 905 0 905 80 11 c106 15 328 17 418 4z" fill="black"/>
        <path d="M47492 7946 c205 -49 339 -207 394 -466 17 -77 19 -320 3 -388 -17 -76 -31 -125 -45 -157 -7 -17 -17 -41 -22 -55 -17 -45 -102 -148 -151 -185 -221 -161 -540 -109 -690 114 -90 135 -121 253 -121 466 0 158 16 262 55 350 8 17 18 41 23 55 17 45 102 148 151 185 114 83 265 114 403 81z" fill="black"/>
        <path d="M54055 7945 c85 -22 141 -53 194 -109 80 -86 126 -203 133 -341 l3 -70 -462 -3 c-457 -2 -463 -2 -463 18 0 68 55 223 107 302 112 170 306 251 488 203z" fill="black"/>
        <path d="M58520 7245 c92 -17 121 -25 138 -38 9 -7 12 -77 12 -288 l0 -279 -22 -9 c-35 -14 -213 -31 -315 -31 -220 0 -357 59 -417 179 -26 52 -38 148 -26 209 37 180 186 267 465 271 50 0 124 -6 165 -14z" fill="black"/>
      </g>
    </mask>
    <path stroke="none" d="M9070 19645 c-120 -27 -210 -65 -359 -152 -100 -58 -138 -80 -193 -112 -18 -10 -57 -32 -86 -50 -29 -17 -55 -31 -57 -31 -2 0 -40 -22 -85 -50 -45 -27 -83 -50 -85 -50 -2 0 -28 -14 -57 -31 -29 -18 -68 -40 -85 -50 -49 -28 -86 -50 -223 -129 -69 -40 -150 -86 -180 -103 -30 -16 -59 -33 -65 -37 -5 -4 -27 -17 -47 -29 -44 -24 -61 -34 -228 -131 -146 -84 -177 -103 -225 -130 -19 -11 -51 -29 -70 -40 -48 -27 -79 -46 -225 -130 -140 -81 -176 -102 -222 -129 -18 -10 -57 -32 -86 -50 -29 -17 -55 -31 -57 -31 -2 0 -40 -22 -85 -50 -45 -27 -83 -50 -85 -50 -2 0 -28 -14 -57 -31 -29 -18 -68 -40 -85 -50 -49 -28 -86 -50 -223 -129 -69 -40 -150 -86 -180 -103 -30 -16 -59 -33 -65 -37 -5 -4 -27 -17 -47 -29 -44 -24 -61 -34 -228 -131 -167 -97 -184 -107 -227 -131 -21 -12 -42 -25 -48 -29 -5 -4 -35 -21 -65 -37 -30 -17 -111 -63 -180 -103 -137 -79 -174 -101 -222 -129 -18 -10 -57 -32 -86 -50 -29 -17 -55 -31 -57 -31 -2 0 -40 -22 -85 -50 -45 -27 -83 -50 -85 -50 -2 0 -28 -14 -57 -31 -29 -18 -68 -40 -85 -50 -47 -27 -83 -48 -223 -129 -136 -79 -173 -100 -222 -129 -18 -10 -51 -29 -73 -42 -150 -87 -292 -241 -368 -400 -35 -72 -71 -194 -86 -287 -15 -96 -16 -6065 -1 -6144 40 -211 85 -322 182 -452 101 -134 209 -216 488 -369 30 -16 60 -33 65 -37 6 -4 27 -17 48 -29 43 -24 60 -34 227 -131 167 -97 184 -107 228 -131 20 -12 42 -25 47 -29 6 -4 35 -21 65 -37 30 -17 111 -63 180 -103 137 -79 174 -101 222 -129 18 -10 57 -32 86 -50 29 -17 55 -31 57 -31 2 0 40 -22 85 -50 45 -27 83 -50 85 -50 2 0 28 -14 57 -31 29 -18 68 -40 86 -50 46 -27 82 -48 222 -129 146 -84 177 -103 225 -130 19 -11 51 -29 70 -40 48 -27 79 -46 225 -130 167 -97 184 -107 228 -131 20 -12 42 -25 47 -29 6 -4 35 -21 65 -37 30 -17 111 -63 180 -103 137 -79 174 -101 222 -129 18 -10 57 -32 86 -50 29 -17 55 -31 57 -31 2 0 40 -22 85 -50 45 -27 83 -50 85 -50 2 0 28 -14 57 -31 29 -18 68 -40 86 -50 46 -27 82 -48 222 -129 146 -84 177 -103 225 -130 19 -11 51 -29 70 -40 48 -27 79 -46 225 -130 140 -81 176 -102 222 -129 18 -10 57 -32 86 -50 29 -17 55 -31 57 -31 2 0 40 -22 85 -50 45 -27 83 -50 86 -50 2 0 35 -18 72 -41 93 -57 224 -119 250 -119 l22 0 0 1474 0 1474 -24 16 c-14 8 -41 25 -60 36 -82 46 -116 66 -296 170 -167 97 -184 107 -227 131 -21 12 -42 25 -48 29 -5 4 -35 21 -65 37 -30 17 -111 63 -180 103 -137 79 -174 101 -222 129 -18 10 -57 32 -86 50 -29 17 -55 31 -57 31 -2 0 -40 23 -85 50 -45 28 -83 50 -85 50 -2 0 -28 14 -57 31 -29 18 -68 40 -85 50 -47 27 -83 48 -223 129 -146 84 -177 103 -225 130 -19 11 -51 29 -70 40 -48 27 -79 46 -225 130 -140 81 -176 102 -222 129 -18 10 -57 32 -86 50 -29 17 -55 31 -57 31 -2 0 -40 23 -85 50 -45 28 -83 50 -85 50 -2 0 -30 15 -62 34 -108 64 -195 168 -244 291 l-24 60 -3 1153 c-2 861 0 1152 9 1152 14 0 90 -41 192 -102 43 -27 80 -48 82 -48 2 0 28 -14 57 -31 29 -18 68 -40 86 -50 46 -27 82 -48 222 -129 146 -84 177 -103 225 -130 19 -11 51 -29 70 -40 48 -27 79 -46 225 -130 140 -81 176 -102 223 -129 17 -10 56 -32 85 -50 29 -17 55 -31 57 -31 2 0 40 -22 85 -50 45 -27 83 -50 85 -50 2 0 28 -14 57 -31 124 -74 159 -91 171 -81 7 5 29 19 50 31 60 34 99 56 155 90 29 17 55 31 57 31 2 0 40 23 85 50 45 28 83 50 85 50 2 0 28 14 57 31 29 18 68 40 86 50 48 28 85 50 222 129 69 40 150 86 180 103 30 16 60 33 65 37 6 4 27 17 48 29 43 24 60 34 227 131 167 97 184 107 228 131 20 12 42 25 47 29 6 4 35 21 65 37 30 17 111 63 180 103 137 79 174 101 223 129 17 10 56 32 85 50 29 17 55 31 57 31 2 0 40 23 85 50 45 28 83 50 86 50 2 0 34 18 70 40 36 22 70 40 74 40 19 0 21 23 3 42 -19 21 -106 83 -164 116 -19 11 -90 52 -159 92 -69 40 -150 86 -180 103 -30 16 -59 33 -65 37 -5 4 -27 17 -47 29 -44 24 -61 34 -228 131 -167 97 -184 107 -227 131 -21 12 -42 25 -48 29 -5 4 -35 21 -65 37 -30 17 -111 63 -180 103 -137 79 -174 101 -222 129 -18 10 -57 32 -86 50 -29 17 -55 31 -57 31 -2 0 -40 23 -85 50 -45 28 -83 50 -85 50 -2 0 -28 14 -57 31 -29 18 -68 40 -85 50 -49 28 -86 50 -223 129 -69 40 -150 86 -180 103 -30 16 -59 33 -65 37 -5 4 -27 17 -47 29 -44 24 -61 34 -228 131 -138 80 -174 101 -222 129 -97 55 -132 78 -135 87 -2 6 9 17 24 25 15 8 56 31 90 52 35 20 65 37 67 37 3 0 41 23 86 50 45 28 83 50 85 50 2 0 28 14 57 31 29 18 68 40 86 50 46 27 82 48 222 129 146 84 177 103 225 130 19 11 51 29 70 40 48 27 79 46 225 130 140 81 176 102 223 129 17 10 56 32 85 50 29 17 55 31 57 31 2 0 40 23 85 50 45 28 83 50 86 50 2 0 32 17 67 38 136 82 219 106 342 99 44 -3 94 -8 112 -12 41 -9 146 -63 303 -154 126 -74 163 -96 223 -130 17 -10 56 -32 85 -50 29 -17 55 -31 57 -31 2 0 40 -22 85 -50 45 -27 83 -50 85 -50 2 0 28 -14 57 -31 29 -18 68 -40 86 -50 46 -27 82 -48 222 -129 146 -84 177 -103 225 -130 19 -11 51 -29 70 -40 48 -27 79 -46 225 -130 140 -81 176 -102 223 -129 17 -10 56 -32 85 -50 29 -17 55 -31 57 -31 2 0 40 -22 85 -50 45 -27 83 -50 85 -50 2 0 28 -14 57 -31 29 -18 68 -40 86 -50 17 -11 47 -27 65 -38 17 -10 56 -32 85 -50 29 -17 55 -31 57 -31 2 0 40 -22 85 -50 45 -27 83 -50 85 -50 2 0 28 -14 57 -31 56 -34 95 -56 156 -90 20 -12 42 -26 49 -31 13 -10 28 -3 243 122 137 79 174 101 223 129 17 10 56 32 85 50 29 17 55 31 57 31 2 0 40 23 85 50 45 28 83 50 85 50 2 0 28 14 57 31 29 18 68 40 86 50 17 11 47 27 65 38 17 10 56 32 85 50 29 17 55 31 57 31 2 0 40 23 85 50 45 28 83 50 85 50 2 0 28 14 57 31 29 18 68 40 86 50 46 27 82 48 222 129 146 84 177 103 225 130 19 11 51 29 70 40 48 27 79 46 225 130 140 81 176 102 223 129 17 10 56 32 85 50 29 17 57 31 61 31 5 0 11 6 14 14 8 21 -67 84 -176 145 -68 39 -102 58 -155 90 -29 17 -55 31 -57 31 -2 0 -40 23 -85 50 -45 28 -83 50 -85 50 -2 0 -28 14 -57 31 -29 18 -68 40 -85 50 -49 28 -86 50 -223 129 -69 40 -150 86 -180 103 -30 16 -59 33 -65 37 -5 4 -27 17 -47 29 -44 24 -61 34 -228 131 -167 97 -184 107 -227 131 -21 12 -42 25 -48 29 -5 4 -35 21 -65 37 -30 17 -111 63 -180 103 -137 79 -174 101 -222 129 -18 10 -57 32 -86 50 -29 17 -55 31 -57 31 -2 0 -40 23 -85 50 -45 28 -83 50 -85 50 -2 0 -28 14 -57 31 -29 18 -68 40 -85 50 -47 27 -83 48 -223 129 -146 84 -177 103 -225 130 -19 11 -51 29 -70 40 -48 27 -79 46 -225 130 -167 97 -184 107 -227 131 -21 12 -42 25 -48 29 -5 4 -35 21 -65 37 -30 17 -111 63 -180 103 -137 79 -174 101 -222 129 -18 10 -57 32 -86 50 -29 17 -55 31 -57 31 -2 0 -40 23 -85 50 -45 28 -83 50 -85 50 -2 0 -28 14 -57 31 -29 18 -68 40 -85 50 -47 27 -83 48 -223 129 -146 84 -177 103 -225 130 -19 11 -51 29 -70 40 -84 48 -103 59 -150 87 -97 56 -183 90 -318 122 -61 14 -296 12 -367 -4z" fill="#ffffff" id="ffffff-000001" mask="url(#mask-0)"/>
    <path stroke="none" d="M15170 15904 c-63 -37 -130 -75 -147 -85 -18 -11 -49 -28 -68 -39 -19 -11 -51 -29 -70 -40 -48 -27 -79 -46 -225 -130 -167 -97 -184 -107 -227 -131 -21 -12 -42 -25 -48 -29 -5 -4 -35 -21 -65 -37 -30 -17 -111 -63 -180 -103 -137 -79 -174 -101 -222 -129 -18 -10 -57 -32 -86 -50 -29 -17 -55 -31 -57 -31 -2 0 -40 -22 -85 -50 -45 -27 -83 -50 -85 -50 -2 0 -28 -14 -57 -31 -29 -18 -68 -40 -85 -50 -47 -27 -83 -48 -223 -129 -146 -84 -177 -103 -225 -130 -19 -11 -51 -29 -70 -40 -82 -47 -103 -59 -150 -87 l-50 -29 -6 -1725 c-3 -1126 -9 -1740 -16 -1769 -36 -160 -128 -279 -283 -368 -19 -11 -91 -52 -160 -92 -146 -84 -177 -103 -225 -130 -19 -11 -51 -29 -70 -40 -48 -27 -79 -46 -225 -130 -140 -81 -176 -102 -222 -129 -18 -10 -57 -32 -86 -50 -29 -17 -55 -31 -57 -31 -2 0 -40 -22 -85 -50 -45 -27 -83 -50 -85 -50 -2 0 -28 -14 -57 -31 -29 -18 -68 -40 -85 -50 -49 -28 -86 -50 -223 -129 -69 -40 -150 -86 -180 -103 -30 -16 -59 -33 -65 -37 -5 -4 -27 -17 -47 -29 -44 -24 -61 -34 -228 -131 -167 -97 -184 -107 -227 -131 -21 -12 -42 -25 -48 -29 -5 -4 -35 -21 -65 -37 -30 -17 -111 -63 -180 -103 -169 -98 -178 -103 -230 -133 l-45 -25 0 -1479 c0 -1472 0 -1478 20 -1475 42 6 172 71 319 161 38 22 70 41 72 41 2 0 27 14 56 31 29 18 68 40 86 50 17 11 47 27 65 38 17 10 56 32 85 50 29 17 55 31 57 31 2 0 40 23 85 50 45 28 83 50 85 50 2 0 28 14 57 31 29 18 68 40 86 50 46 27 82 48 222 129 146 84 177 103 225 130 19 11 51 29 70 40 48 27 79 46 225 130 140 81 176 102 223 129 17 10 56 32 85 50 29 17 55 31 57 31 2 0 40 23 85 50 45 28 83 50 85 50 2 0 28 14 57 31 29 18 68 40 86 50 48 28 85 50 222 129 69 40 150 86 180 103 30 16 60 33 65 37 6 4 27 17 48 29 43 24 60 34 227 131 146 84 177 103 225 130 19 11 51 29 70 40 48 27 79 46 225 130 140 81 176 102 223 129 17 10 56 32 85 50 29 17 55 31 57 31 2 0 40 23 85 50 45 28 83 50 85 50 2 0 28 14 57 31 29 18 68 40 86 50 48 28 85 50 222 129 69 40 150 86 180 103 30 16 60 33 65 37 6 4 27 17 48 29 20 12 52 29 70 40 75 44 275 160 312 182 135 79 276 233 343 374 52 107 66 150 91 273 8 38 11 958 11 3100 0 2996 -2 3162 -30 3162 -3 0 -57 -30 -120 -66z" fill="#5c8ab5" id="5c8ab5-000001" mask="url(#mask-0)"/>
    <path stroke="none" d="M25059 15675 c-3 -2 -90 -9 -194 -15 -247 -14 -460 -33 -635 -59 -36 -5 -99 -15 -140 -21 -41 -6 -97 -15 -125 -20 -27 -6 -67 -13 -87 -16 l-38 -7 0 -2808 0 -2809 640 0 640 0 2 1038 3 1037 313 3 312 2 29 -32 c16 -18 46 -55 67 -83 20 -27 58 -77 84 -110 133 -174 362 -521 583 -885 67 -110 80 -133 128 -217 12 -21 25 -42 29 -48 4 -5 21 -35 37 -65 44 -80 81 -146 123 -220 20 -36 48 -85 62 -110 51 -91 76 -136 103 -185 15 -27 37 -67 48 -87 l21 -38 718 0 c395 0 718 4 718 8 0 9 -271 548 -335 667 -66 124 -108 198 -158 285 -27 47 -58 101 -69 120 -11 19 -24 40 -28 45 -4 6 -17 26 -28 45 -10 19 -43 73 -72 120 -29 47 -71 114 -93 150 -122 198 -330 499 -510 739 -59 79 -106 145 -104 147 2 2 62 33 133 68 298 148 518 331 674 561 109 160 188 371 219 580 43 289 42 473 -4 740 -22 128 -31 164 -69 276 -111 333 -332 607 -641 796 -164 100 -408 207 -580 253 -309 84 -471 112 -870 150 -107 10 -897 15 -906 5z" fill="#ffffff" id="ffffff-000002" mask="url(#mask-0)"/>
    <path stroke="none" d="M20585 14349 c-175 -26 -278 -50 -411 -94 -381 -128 -673 -331 -930 -650 -154 -190 -316 -509 -384 -755 -47 -170 -60 -240 -90 -465 -13 -102 -13 -554 0 -648 6 -40 15 -106 21 -147 21 -157 88 -416 139 -535 112 -267 215 -428 389 -608 190 -196 388 -331 651 -444 97 -41 171 -69 225 -83 133 -36 198 -52 250 -61 33 -5 85 -14 115 -19 30 -5 150 -16 265 -25 169 -12 245 -13 390 -5 427 25 745 74 1090 170 91 25 225 78 244 96 12 11 13 24 3 76 -6 35 -16 95 -22 133 -6 39 -16 96 -21 128 -5 31 -13 84 -19 117 -5 33 -14 87 -20 120 -5 33 -14 86 -20 118 -5 31 -14 89 -20 127 -20 127 -31 175 -41 175 -8 0 -70 -22 -114 -40 -36 -15 -188 -57 -285 -79 -115 -25 -139 -30 -200 -40 -474 -75 -810 -67 -1125 29 -189 58 -378 187 -497 340 -33 42 -100 179 -116 235 -27 99 -32 124 -32 144 l0 21 1388 2 1387 3 7 95 c17 238 20 490 9 630 -14 174 -39 358 -61 450 -5 19 -14 58 -21 85 -55 237 -168 493 -297 674 -212 298 -516 519 -876 635 -156 51 -191 58 -453 96 -85 12 -432 11 -518 -1z" fill="#5c8ab5" id="5c8ab5-000002" mask="url(#mask-1)"/>
    <path stroke="none" d="M30655 14349 c-27 -5 -81 -14 -120 -20 -257 -43 -553 -159 -764 -302 -329 -221 -563 -505 -739 -898 -116 -257 -171 -497 -202 -874 -13 -163 -13 -227 0 -390 19 -237 32 -321 82 -535 11 -47 45 -160 58 -195 5 -11 23 -58 41 -105 45 -117 98 -215 187 -350 107 -162 321 -376 483 -482 204 -134 404 -228 619 -288 25 -7 56 -16 70 -20 111 -34 330 -64 576 -80 348 -22 904 36 1299 136 178 45 344 102 373 129 13 11 10 37 -18 205 -5 30 -14 84 -20 120 -6 36 -15 90 -20 120 -9 51 -13 77 -39 235 -15 89 -32 193 -40 252 -4 29 -10 56 -13 59 -4 3 -62 -13 -130 -37 -67 -23 -140 -46 -160 -50 -21 -5 -55 -13 -75 -18 -43 -10 -173 -36 -248 -50 -129 -24 -431 -51 -570 -51 -102 0 -289 19 -395 39 -334 64 -603 253 -727 511 -31 63 -62 167 -65 220 l-3 45 1383 3 c1095 2 1382 5 1382 15 0 6 5 41 10 77 14 89 14 660 0 762 -34 259 -54 364 -100 518 -24 82 -32 107 -40 125 -4 11 -18 47 -31 80 -116 302 -355 602 -625 783 -56 37 -78 50 -166 100 -52 29 -196 88 -278 115 -166 53 -255 72 -460 97 -100 12 -443 11 -515 -1z" fill="#ffffff" id="ffffff-000003" mask="url(#mask-2)"/>
    <path stroke="none" d="M35075 14348 c-301 -38 -474 -84 -675 -180 -376 -181 -601 -458 -687 -845 -22 -100 -25 -450 -5 -563 38 -208 121 -395 240 -539 202 -243 396 -355 1057 -611 11 -4 32 -12 48 -19 15 -6 37 -15 50 -20 256 -102 450 -209 511 -282 50 -58 66 -103 66 -177 0 -153 -80 -241 -251 -276 -328 -67 -784 -29 -1269 105 -19 6 -48 14 -65 18 -35 10 -225 74 -272 93 -42 16 -51 7 -64 -68 -12 -65 -26 -137 -40 -201 -23 -106 -28 -132 -39 -188 -21 -105 -30 -149 -40 -195 -6 -25 -15 -70 -21 -100 -6 -30 -15 -75 -20 -100 -22 -105 -23 -137 -3 -143 11 -3 51 -16 89 -30 269 -95 594 -169 860 -197 251 -25 524 -31 750 -15 265 19 306 24 510 65 77 15 235 63 300 90 215 89 335 163 462 283 94 90 162 180 212 282 91 187 121 328 121 581 0 453 -115 728 -404 963 -67 54 -190 141 -199 141 -3 0 -34 17 -68 38 -76 45 -357 182 -374 182 -3 0 -27 9 -53 21 -26 12 -57 25 -69 30 -13 5 -33 13 -45 18 -13 5 -61 23 -108 41 -47 18 -96 37 -110 42 -14 6 -34 14 -45 19 -84 33 -125 51 -233 105 -227 115 -291 189 -292 336 0 126 80 226 220 271 115 38 154 42 390 42 242 -1 375 -15 543 -56 20 -5 54 -13 75 -18 107 -27 291 -81 353 -106 16 -6 29 24 44 100 8 37 21 98 33 150 6 22 15 65 22 95 7 30 16 71 20 90 4 19 13 60 20 90 7 30 16 71 20 90 4 19 13 60 20 90 7 30 16 71 20 90 23 99 31 153 23 161 -20 19 -273 91 -453 129 -30 6 -73 15 -95 20 -78 17 -285 45 -430 59 -130 13 -549 12 -650 -1z" fill="#ffffff" id="ffffff-000004" mask="url(#mask-3)"/>
    <path stroke="none" d="M39465 14349 c-347 -51 -542 -115 -813 -266 -266 -147 -559 -435 -715 -701 -15 -26 -52 -99 -83 -162 -77 -159 -82 -172 -122 -295 -93 -286 -144 -650 -128 -913 14 -241 36 -418 66 -542 5 -19 14 -57 21 -85 45 -192 152 -445 266 -634 264 -435 718 -764 1213 -879 114 -27 140 -32 215 -41 205 -27 356 -32 535 -16 96 8 189 18 205 20 266 47 418 96 630 205 298 152 541 371 724 649 57 87 152 265 179 336 58 152 69 185 92 265 7 25 16 56 20 70 4 14 13 52 20 85 6 33 15 78 20 100 23 107 50 402 50 541 0 109 -15 312 -31 414 -17 113 -30 184 -40 223 -44 178 -76 274 -132 407 -161 377 -415 686 -739 897 -66 43 -292 161 -353 184 -116 43 -186 64 -320 97 -48 12 -141 27 -250 42 -94 12 -444 11 -530 -1z" fill="#ffffff" id="ffffff-000005" mask="url(#mask-3)"/>
    <path stroke="none" d="M52750 14349 c-140 -19 -283 -44 -330 -59 -14 -4 -45 -13 -70 -20 -365 -102 -728 -330 -981 -615 -193 -218 -338 -476 -430 -764 -61 -192 -68 -223 -110 -481 -15 -96 -15 -577 0 -685 28 -196 33 -223 42 -270 21 -105 52 -223 81 -310 182 -551 559 -949 1103 -1165 253 -101 433 -138 795 -165 259 -19 558 -6 800 36 202 34 386 79 525 129 50 17 98 34 109 37 16 5 18 13 12 67 -3 34 -10 86 -16 116 -6 30 -16 82 -21 115 -6 33 -15 83 -19 110 -9 48 -18 105 -40 233 -5 31 -14 84 -20 117 -10 56 -21 117 -36 208 -4 21 -10 39 -14 42 -4 2 -52 -11 -106 -29 -207 -70 -324 -93 -636 -126 -284 -30 -613 13 -806 106 -240 116 -381 313 -471 659 -23 90 -51 335 -51 448 0 108 28 325 55 432 43 166 120 331 205 439 143 182 316 280 588 335 68 14 424 14 511 1 83 -14 154 -28 206 -41 101 -27 127 -34 235 -70 63 -21 116 -37 117 -36 3 3 32 108 43 157 5 19 18 71 30 115 12 44 25 96 30 115 5 19 18 71 30 115 12 44 25 96 30 115 5 19 18 71 30 115 12 44 25 96 30 115 5 19 14 55 20 79 8 35 8 47 -2 56 -25 23 -287 115 -413 144 -27 7 -66 16 -85 21 -71 17 -137 29 -215 39 -44 6 -116 15 -160 21 -94 12 -501 11 -595 -1z" fill="#ffffff" id="ffffff-000006" mask="url(#mask-4)"/>
    <path stroke="none" d="M56540 14348 c-191 -31 -202 -33 -305 -60 -69 -19 -113 -34 -260 -90 -147 -57 -381 -203 -525 -330 -235 -207 -442 -506 -559 -808 -18 -47 -37 -94 -41 -105 -9 -20 -44 -140 -60 -205 -20 -76 -40 -196 -60 -345 -13 -103 -13 -604 0 -698 34 -235 43 -278 81 -417 127 -464 369 -818 741 -1083 36 -26 69 -47 72 -47 4 0 26 -13 49 -28 36 -25 217 -115 285 -143 12 -5 32 -13 45 -18 63 -27 208 -71 302 -92 148 -34 245 -47 480 -64 161 -13 236 -14 385 -5 290 16 526 44 740 87 41 9 86 17 100 20 14 2 41 8 60 13 19 5 58 14 85 21 56 13 262 80 317 103 20 9 39 20 43 26 3 5 1 38 -5 72 -6 35 -15 89 -20 121 -6 31 -14 84 -20 117 -5 33 -14 87 -20 120 -5 33 -14 86 -20 118 -5 31 -14 89 -20 127 -22 144 -51 308 -55 313 -2 2 -65 -17 -141 -41 -153 -50 -192 -61 -274 -78 -30 -6 -73 -15 -95 -19 -197 -42 -431 -65 -665 -65 -242 0 -398 21 -565 77 -302 102 -528 315 -604 568 -7 25 -17 58 -22 74 -5 16 -9 44 -9 62 l0 34 1379 0 c1091 0 1381 3 1388 13 6 6 13 68 17 137 3 69 9 179 13 244 8 155 -15 471 -48 671 -67 399 -216 736 -442 1003 -97 115 -268 260 -394 334 -143 85 -357 174 -498 207 -27 7 -66 16 -85 21 -33 8 -73 14 -247 40 -85 12 -445 11 -523 -2z" fill="#ffffff" id="ffffff-000007" mask="url(#mask-4)"/>
    <path stroke="none" d="M60955 14348 c-470 -59 -796 -198 -1041 -442 -156 -156 -261 -343 -303 -541 -6 -27 -15 -71 -21 -97 -13 -62 -13 -393 1 -477 70 -434 302 -729 740 -944 119 -58 226 -107 234 -107 3 0 27 -9 53 -21 26 -12 56 -24 67 -29 11 -4 31 -12 45 -18 14 -5 108 -43 210 -83 192 -75 394 -171 468 -221 119 -81 156 -141 157 -253 1 -207 -101 -276 -452 -305 -190 -16 -383 -4 -673 41 -36 5 -84 14 -107 20 -159 35 -157 34 -293 73 -47 13 -139 43 -205 66 -66 23 -131 44 -145 47 -28 5 -23 19 -62 -172 -11 -53 -22 -108 -37 -177 -5 -24 -15 -70 -21 -103 -6 -33 -16 -79 -21 -102 -5 -24 -13 -62 -18 -85 -5 -24 -15 -70 -21 -103 -23 -115 -33 -160 -41 -189 -17 -57 -17 -58 116 -104 58 -20 138 -45 200 -62 360 -101 551 -131 955 -150 250 -12 605 6 805 41 392 68 701 203 904 395 169 159 262 330 323 594 17 75 17 472 0 560 -56 281 -127 424 -290 588 -139 140 -269 227 -527 352 -195 95 -195 95 -375 165 -80 31 -154 60 -165 65 -11 4 -38 15 -60 23 -144 53 -365 164 -442 221 -37 27 -73 64 -90 93 -25 44 -28 57 -28 143 0 85 3 99 26 135 54 83 143 135 284 167 80 17 499 17 610 -1 139 -22 254 -47 380 -81 120 -32 134 -36 208 -60 37 -12 73 -20 81 -17 7 3 16 23 19 44 6 35 14 73 37 173 4 19 13 60 20 90 7 30 16 71 20 90 4 19 13 60 20 90 7 30 16 73 22 95 8 37 14 62 37 168 6 23 15 65 22 92 6 28 12 63 13 80 1 28 -3 31 -67 52 -70 23 -193 58 -257 73 -239 55 -421 85 -660 109 -122 13 -552 12 -655 -1z" fill="#ffffff" id="ffffff-000008" mask="url(#mask-5)"/>
    <path stroke="none" d="M49179 14336 c-2 -3 -76 -10 -164 -16 -274 -19 -391 -37 -665 -99 -48 -11 -234 -59 -335 -86 -110 -29 -286 -83 -347 -107 l-28 -10 0 -2049 0 -2049 610 0 610 0 0 1649 c0 908 4 1652 8 1655 11 6 129 29 242 47 50 8 169 13 290 13 220 -1 316 -11 515 -54 22 -4 67 -14 100 -21 33 -6 93 -20 132 -30 40 -11 77 -19 82 -19 11 0 23 39 41 135 6 33 15 78 20 100 5 22 14 67 20 100 25 125 32 161 40 195 5 19 14 62 20 95 6 33 15 78 20 100 5 22 14 67 20 100 6 33 16 76 21 96 5 20 9 50 9 66 0 27 -5 32 -52 47 -110 36 -191 54 -445 95 -73 12 -197 27 -338 40 -108 11 -417 15 -426 7z" fill="#ffffff" id="ffffff-000009" mask="url(#mask-5)"/>
    <path stroke="none" d="M42760 12895 c0 -854 4 -1373 10 -1422 6 -43 15 -116 21 -163 9 -79 15 -112 41 -230 45 -213 140 -439 251 -605 69 -102 208 -246 312 -323 80 -59 318 -181 415 -212 197 -63 314 -84 606 -111 226 -21 787 5 1114 50 174 25 281 42 380 61 30 5 80 14 110 20 30 5 73 14 95 19 22 5 65 14 95 21 67 15 124 28 170 40 19 5 49 12 65 16 17 4 33 12 37 18 4 6 8 946 8 2089 l0 2077 -615 0 -615 0 0 -1659 c0 -1276 -3 -1662 -12 -1667 -30 -18 -481 -47 -608 -38 -149 10 -257 42 -350 104 -154 104 -231 264 -279 580 -28 179 -31 345 -31 1489 l0 1191 -610 0 -610 0 0 -1345z" fill="#ffffff" id="ffffff-000010" mask="url(#mask-5)"/>
    <path stroke="none" d="M62420 8908 c-25 -5 -62 -14 -82 -19 l-38 -10 0 -439 c0 -242 -2 -440 -4 -440 -2 0 -23 11 -47 24 -123 69 -238 96 -399 96 -193 -1 -332 -47 -462 -154 -127 -105 -201 -239 -259 -470 -18 -71 -15 -373 4 -456 59 -260 202 -448 412 -545 66 -30 95 -39 207 -64 70 -16 340 -13 449 4 145 24 177 30 284 63 l30 8 0 1205 0 1204 -25 2 c-14 0 -45 -3 -70 -9z" fill="#ffffff" id="ffffff-000011" mask="url(#mask-5)"/>
    <path stroke="none" d="M43500 7560 l0 -1100 110 0 110 0 0 1100 0 1100 -110 0 -110 0 0 -1100z" fill="#ffffff" id="ffffff-000012" mask="url(#mask-6)"/>
    <path stroke="none" d="M44060 8570 l0 -90 348 -2 347 -3 3 -1008 2 -1008 108 3 107 3 3 1007 2 1008 348 2 347 3 0 85 0 85 -807 3 -808 2 0 -90z" fill="#ffffff" id="ffffff-000013" mask="url(#mask-6)"/>
    <path stroke="none" d="M51425 8655 c-5 -2 -48 -9 -95 -14 -98 -12 -167 -25 -192 -36 -17 -7 -18 -67 -18 -1056 l0 -1049 23 -9 c22 -9 99 -22 240 -41 101 -13 421 -13 506 0 196 32 279 55 416 120 264 125 465 376 524 655 27 127 31 167 31 325 0 158 -4 198 -31 325 -59 279 -260 530 -524 655 -137 65 -220 88 -416 120 -61 9 -441 13 -464 5z" fill="#ffffff" id="ffffff-000014" mask="url(#mask-6)"/>
    <path stroke="none" d="M47210 8125 c-212 -48 -395 -200 -488 -405 -66 -146 -86 -249 -85 -445 0 -207 19 -298 94 -452 128 -261 358 -403 654 -403 368 1 629 231 725 639 17 75 15 367 -3 451 -60 267 -211 473 -415 566 -133 61 -339 81 -482 49z" fill="#ffffff" id="ffffff-000015" mask="url(#mask-7)"/>
    <path stroke="none" d="M53795 8125 c-90 -24 -115 -34 -180 -70 -182 -101 -314 -301 -366 -555 -19 -90 -16 -393 5 -480 28 -121 33 -137 59 -193 99 -217 270 -343 535 -396 78 -16 314 -14 397 4 98 20 233 65 238 79 3 7 1 32 -5 57 -5 24 -12 59 -15 77 -5 34 -26 42 -61 22 -106 -59 -346 -86 -503 -55 -177 33 -277 103 -357 246 -45 81 -82 226 -82 321 l0 58 570 0 570 0 2 43 c6 154 -6 281 -41 421 -41 166 -196 338 -353 393 -129 45 -302 57 -413 28z" fill="#ffffff" id="ffffff-000016" mask="url(#mask-8)"/>
    <path stroke="none" d="M58060 8129 c-120 -24 -157 -33 -182 -46 -26 -12 -27 -16 -22 -61 11 -84 23 -122 42 -122 9 0 37 7 62 16 121 42 331 57 434 30 85 -22 122 -44 174 -100 68 -75 89 -146 94 -311 3 -147 12 -135 -87 -114 -79 17 -330 23 -410 9 -74 -12 -183 -43 -225 -63 -53 -25 -139 -88 -168 -123 -30 -36 -58 -88 -83 -154 -19 -48 -19 -282 0 -330 73 -192 195 -288 418 -330 107 -21 454 -4 628 30 33 7 78 15 100 19 l40 6 3 560 c3 637 0 676 -70 823 -63 132 -187 225 -344 257 -77 17 -329 19 -404 4z" fill="#ffffff" id="ffffff-000017" mask="url(#mask-9)"/>
    <path stroke="none" d="M48920 8108 c-129 -21 -251 -47 -305 -64 l-40 -12 0 -783 0 -784 102 -3 103 -3 2 717 3 717 50 13 c141 35 354 44 469 20 160 -34 240 -105 292 -261 31 -95 36 -181 41 -693 l4 -513 102 3 102 3 -1 545 c0 561 -2 587 -43 726 -21 74 -94 196 -142 241 -35 32 -138 92 -179 104 -107 32 -171 39 -335 38 -93 -1 -195 -6 -225 -11z" fill="#ffffff" id="ffffff-000018"/>
    <path stroke="none" d="M55390 8105 c-97 -16 -225 -44 -285 -62 l-30 -9 0 -785 0 -784 102 -3 103 -3 2 717 3 718 30 8 c57 17 241 38 325 38 193 -1 309 -60 367 -187 51 -111 54 -149 61 -738 l7 -550 100 0 100 0 3 495 c3 512 -2 623 -38 762 l-17 68 31 23 c92 70 275 127 409 127 168 0 288 -65 343 -185 45 -99 47 -124 53 -720 l6 -570 105 0 105 0 3 495 c3 479 -2 605 -30 745 -38 192 -143 324 -303 380 -118 41 -334 48 -473 14 -84 -20 -233 -84 -299 -129 l-31 -21 -50 44 c-63 56 -141 94 -228 113 -85 17 -366 17 -474 -1z" fill="#ffffff" id="ffffff-000019"/>
    <path stroke="none" d="M59760 8108 c-129 -21 -251 -47 -305 -64 l-40 -12 0 -783 0 -784 102 -3 103 -3 2 717 3 717 50 13 c141 35 354 44 469 20 160 -34 240 -105 292 -261 31 -95 36 -181 41 -693 l4 -513 102 3 102 3 -1 545 c0 561 -2 587 -43 726 -21 74 -94 196 -142 241 -35 32 -138 92 -179 104 -107 32 -171 39 -335 38 -93 -1 -195 -6 -225 -11z" fill="#ffffff" id="ffffff-000020"/>
  </g>
</svg>
