<?xml version="1.0" standalone="no"?>
<!DOCTYPE svg PUBLIC "-//W3C//DTD SVG 1.1//EN"
 "http://www.w3.org/Graphics/SVG/1.1/DTD/svg11.dtd">
<!-- Created with svg_stack (http://github.com/astraw/svg_stack) -->
<svg xmlns:sodipodi="http://sodipodi.sourceforge.net/DTD/sodipodi-0.dtd" xmlns="http://www.w3.org/2000/svg" version="1.1" width="1760.0" height="2052.0">
  <defs/>
  <g id="id0:id0" transform="matrix(1.25,0,0,1.25,0.0,0.0)"><g transform="translate(0.000000,1641.600000) scale(0.040000,-0.040000)" fill="#00325a" stroke="none">
<path d="M7475 32851 c-29 -12 -51 -40 -73 -91 -24 -55 -62 -92 -122 -119 -55 -24 -130 -101 -154 -158 -10 -23 -33 -56 -52 -74 -19 -18 -34 -40 -34 -49 0 -24 -28 -59 -70 -85 -22 -14 -55 -49 -74 -79 -19 -29 -50 -66 -70 -81 -20 -15 -36 -33 -36 -40 0 -7 -13 -37 -30 -68 l-30 -57 0 -141 c0 -126 -2 -144 -20 -166 -18 -23 -20 -41 -20 -152 0 -89 -4 -133 -14 -151 -49 -88 -79 -162 -85 -210 -4 -30 -15 -69 -24 -87 -12 -23 -17 -57 -17 -117 0 -73 -3 -87 -20 -99 -16 -11 -20 -27 -22 -112 l-3 -99 -33 -7 c-19 -4 -39 -12 -45 -18 -6 -6 -12 -48 -15 -93 -3 -74 -1 -88 22 -130 l25 -47 -20 -26 c-20 -24 -21 -41 -22 -319 l-2 -294 -22 -31 -23 -30 0 -283 c0 -254 -2 -286 -17 -308 -15 -21 -19 -57 -23 -245 -5 -206 -6 -222 -27 -256 -13 -20 -23 -52 -23 -70 0 -19 -9 -48 -19 -66 -18 -28 -20 -55 -23 -251 -3 -204 -4 -222 -23 -242 -18 -20 -20 -39 -23 -178 -4 -140 -6 -158 -25 -185 -18 -24 -22 -42 -22 -111 0 -69 -3 -86 -22 -110 -22 -27 -23 -37 -23 -201 l0 -171 -23 -21 -24 -20 3 -205 3 -205 -24 -34 c-16 -21 -25 -46 -25 -70 0 -21 -8 -47 -20 -62 -18 -23 -20 -41 -20 -219 l-1 -193 -24 -40 c-21 -33 -25 -53 -25 -115 0 -59 -5 -82 -22 -110 -20 -33 -21 -47 -19 -200 l2 -165 -25 -38 c-24 -34 -26 -47 -26 -138 0 -86 -3 -105 -20 -126 -18 -23 -20 -41 -20 -157 0 -125 -1 -134 -25 -166 l-25 -34 0 -192 0 -191 -22 -29 c-21 -26 -23 -39 -24 -160 0 -119 -2 -134 -22 -159 -20 -25 -22 -40 -22 -135 0 -92 -3 -111 -20 -133 -18 -23 -20 -40 -20 -190 0 -156 -1 -166 -25 -211 -23 -43 -25 -58 -25 -169 0 -104 -3 -127 -20 -155 -17 -28 -20 -50 -20 -156 0 -113 -2 -126 -22 -152 l-23 -28 -3 -202 c-3 -185 -5 -203 -23 -220 -16 -14 -19 -31 -19 -99 0 -71 -3 -87 -25 -119 l-25 -37 0 -158 c0 -143 -2 -160 -19 -175 -16 -15 -20 -35 -23 -133 -3 -105 -5 -116 -25 -133 l-23 -18 0 -140 c0 -126 -2 -142 -21 -166 -19 -24 -20 -38 -20 -258 l0 -233 -24 -47 c-22 -43 -25 -60 -25 -165 0 -106 -3 -123 -25 -167 -20 -39 -25 -65 -25 -120 0 -57 -4 -74 -21 -92 l-20 -22 1 -226 1 -225 -21 -21 c-18 -18 -22 -35 -23 -110 -2 -69 -6 -92 -20 -108 -14 -15 -18 -34 -16 -88 3 -115 -11 -206 -35 -232 l-21 -24 0 -223 c0 -211 -1 -225 -20 -247 -54 -61 -60 -89 -65 -323 -5 -203 -7 -223 -28 -262 -21 -40 -22 -54 -22 -234 l0 -192 -45 -48 c-38 -41 -45 -54 -45 -89 0 -22 9 -56 19 -76 19 -36 16 -67 -11 -99 -4 -5 -8 -58 -8 -118 0 -96 -3 -113 -22 -140 -20 -28 -22 -43 -22 -182 -1 -140 -2 -152 -23 -179 -18 -23 -23 -42 -23 -89 0 -48 -4 -65 -21 -83 l-21 -22 -2 -253 -3 -253 -42 -36 -43 -37 -1 -229 -2 -229 -22 -29 c-22 -27 -23 -37 -23 -202 l0 -174 -22 -22 c-20 -20 -22 -32 -22 -159 -1 -130 -2 -139 -24 -162 l-24 -25 16 -46 c23 -68 20 -96 -20 -162 l-36 -59 -2 -177 -1 -176 -22 -24 c-22 -23 -23 -32 -23 -181 l0 -156 -25 -27 c-23 -24 -25 -35 -25 -113 0 -69 -4 -92 -20 -116 -11 -16 -20 -46 -20 -65 0 -20 -8 -47 -17 -60 -16 -21 -19 -57 -23 -250 -4 -203 -7 -229 -25 -255 -12 -19 -22 -56 -26 -99 l-6 -69 -85 -78 c-56 -51 -91 -92 -102 -118 -10 -26 -29 -49 -53 -64 -50 -32 -67 -52 -92 -113 l-22 -50 5 -560 c3 -307 6 -570 7 -584 1 -14 -2 -79 -6 -145 -6 -114 -6 -122 16 -160 l24 -40 5 -405 5 -405 33 -47 c18 -27 38 -48 45 -48 7 0 1509 0 3339 0 l3327 0 37 22 c31 18 51 22 114 21 54 -2 87 3 120 16 25 11 60 25 78 32 18 6 49 32 70 57 20 24 56 54 81 66 33 15 50 32 66 64 12 24 56 77 99 119 42 41 83 88 91 104 9 16 20 29 26 29 5 0 43 32 84 70 41 39 82 70 93 70 10 0 26 8 35 18 15 17 17 64 17 468 l0 449 -25 49 -25 49 1 346 c0 190 4 367 8 393 7 43 5 52 -21 90 l-29 43 2 281 c1 154 -2 288 -7 296 -7 13 -32 17 -126 20 l-118 3 -52 53 -53 52 2 75 c2 47 9 87 19 107 15 29 17 69 15 353 -1 332 6 434 35 466 14 16 16 42 15 199 l-2 180 23 23 23 23 0 200 0 200 23 28 22 29 0 261 1 261 24 40 c22 36 25 51 25 144 0 93 2 107 22 128 20 21 21 34 22 169 1 99 5 148 12 151 6 2 38 -20 70 -49 46 -42 66 -72 100 -144 23 -49 50 -97 60 -105 9 -8 26 -34 37 -57 10 -24 34 -61 53 -82 19 -21 50 -73 70 -116 24 -52 54 -98 89 -134 61 -63 92 -118 109 -193 10 -45 16 -54 46 -69 52 -24 84 -65 120 -148 17 -41 46 -91 65 -110 19 -19 61 -93 96 -165 50 -105 71 -138 110 -173 29 -26 50 -54 54 -74 4 -17 24 -50 45 -72 34 -37 110 -174 153 -277 8 -20 33 -51 56 -69 27 -22 52 -57 76 -106 19 -41 35 -77 35 -82 0 -4 16 -24 36 -43 41 -38 64 -84 64 -127 0 -23 17 -46 80 -110 47 -47 82 -92 86 -109 21 -93 26 -104 70 -140 33 -28 57 -62 90 -129 24 -50 56 -102 71 -115 14 -13 45 -64 68 -114 24 -49 55 -101 70 -115 53 -48 85 -101 85 -141 0 -33 8 -45 70 -106 60 -59 70 -74 70 -104 0 -19 11 -54 25 -78 14 -23 25 -49 25 -55 0 -7 14 -28 31 -47 17 -19 40 -52 51 -74 11 -22 36 -57 54 -78 19 -20 34 -45 34 -55 0 -9 9 -28 20 -42 11 -14 20 -33 20 -43 0 -10 31 -50 68 -90 48 -51 79 -96 106 -152 21 -44 48 -91 61 -105 13 -14 42 -63 64 -110 22 -47 52 -97 67 -110 14 -14 35 -45 46 -70 10 -25 43 -70 73 -100 52 -54 134 -197 151 -264 4 -16 31 -52 60 -80 30 -28 66 -74 81 -102 16 -27 41 -68 56 -90 58 -81 77 -110 104 -158 16 -27 45 -68 66 -91 20 -23 37 -51 37 -62 0 -11 8 -28 19 -37 10 -9 21 -36 24 -60 8 -53 67 -170 110 -214 18 -19 63 -49 100 -68 l68 -34 1062 0 1062 0 306 308 c189 191 317 327 334 358 16 27 43 65 61 84 18 19 39 53 48 74 9 22 36 60 60 86 24 25 62 84 85 130 24 47 58 100 77 119 19 18 37 45 41 60 3 14 25 64 49 111 24 47 70 141 103 210 90 184 133 261 164 294 26 28 87 142 87 164 0 5 20 31 45 58 40 41 45 53 45 92 0 43 4 48 65 105 50 46 65 66 65 87 0 46 25 92 83 151 61 64 120 170 111 203 -3 15 7 39 34 76 21 30 60 102 87 160 30 68 63 122 91 152 24 26 44 52 44 58 0 22 153 316 182 349 16 18 37 50 46 70 9 20 31 52 48 71 18 19 47 69 65 110 18 41 40 86 50 100 9 14 19 34 23 46 3 11 20 36 37 55 28 32 89 146 89 168 0 5 13 22 28 38 16 16 63 94 105 174 42 80 88 156 102 169 35 33 85 140 85 182 0 42 14 62 84 118 31 25 56 49 56 53 0 27 65 165 92 196 17 20 65 106 106 191 133 278 162 331 200 375 21 24 44 61 50 83 7 22 22 54 35 73 13 19 40 70 62 114 21 44 51 96 66 116 15 19 49 78 75 130 27 52 65 114 86 138 21 24 38 50 38 57 0 14 45 103 60 118 6 6 15 4 25 -4 12 -10 15 -38 15 -143 0 -122 2 -132 23 -155 19 -20 22 -36 24 -107 2 -63 7 -91 23 -117 17 -28 20 -50 20 -155 0 -114 2 -125 25 -159 l25 -37 0 -243 c0 -226 1 -246 20 -276 12 -20 20 -51 20 -78 0 -29 9 -60 25 -89 l25 -43 0 -298 0 -298 26 -56 26 -57 -3 -287 -4 -287 23 -38 24 -37 -3 -260 -3 -260 24 -25 24 -25 -2 -126 -2 -125 -42 -42 c-24 -23 -61 -51 -83 -62 -28 -14 -46 -33 -60 -62 -11 -23 -35 -57 -53 -76 -30 -31 -32 -36 -26 -83 4 -27 15 -60 26 -73 17 -22 18 -49 18 -398 l0 -375 20 -25 c26 -33 26 -91 1 -140 -14 -26 -21 -63 -22 -120 -3 -74 -1 -85 20 -107 21 -22 22 -30 17 -98 -9 -113 -9 -118 4 -203 8 -54 11 -183 8 -395 l-4 -315 21 -17 c19 -15 20 -29 23 -224 4 -225 7 -241 63 -270 24 -12 465 -14 3323 -14 l3294 0 32 -26 c20 -17 41 -26 58 -25 15 1 280 4 589 6 l562 4 30 22 30 22 142 -5 142 -5 44 40 c40 36 43 43 43 89 0 36 -6 59 -22 81 -18 25 -23 46 -23 92 0 48 -5 67 -23 89 l-22 29 0 657 0 657 21 27 c19 24 20 41 22 205 2 169 3 181 25 210 l22 30 0 478 0 478 22 35 c18 30 22 51 23 140 2 104 13 150 38 150 17 0 10 148 -9 177 -8 12 -14 31 -14 43 0 11 -19 38 -41 60 -33 32 -49 40 -78 40 -20 0 -117 1 -217 1 -257 0 -264 5 -264 174 0 117 -3 128 -58 187 -22 24 -25 38 -27 107 -2 63 -7 87 -25 117 -19 30 -24 55 -28 138 -3 75 -9 109 -23 132 -15 24 -19 51 -19 113 0 71 -3 86 -26 121 l-27 40 6 94 c6 88 5 95 -18 126 -24 32 -25 42 -25 161 0 120 -2 130 -25 165 -21 32 -25 48 -25 116 0 65 -4 85 -21 106 -12 16 -19 38 -18 57 2 20 -5 43 -21 66 l-25 34 -3 270 c-3 231 -5 272 -19 287 -10 11 -19 46 -23 91 -3 41 -14 87 -25 107 -16 29 -20 63 -25 186 -4 126 -8 155 -22 171 -16 17 -18 43 -18 207 l0 187 -26 56 c-24 50 -26 63 -21 127 6 63 3 78 -18 121 -22 45 -24 63 -25 174 0 115 -2 127 -22 149 -18 19 -23 36 -24 87 -2 49 -7 71 -23 91 -17 22 -21 41 -21 106 0 65 -5 88 -26 129 -23 47 -25 60 -23 163 2 98 0 116 -19 153 -18 34 -22 59 -22 133 0 81 -3 95 -25 128 -23 34 -25 45 -25 162 0 108 -3 129 -20 155 -14 21 -20 47 -20 86 0 42 -5 63 -21 83 -17 22 -21 43 -23 120 -2 79 -6 98 -24 121 -19 24 -22 41 -22 129 -1 90 -3 106 -25 141 -23 38 -25 49 -25 183 0 129 -2 147 -20 169 -19 24 -20 41 -20 285 l0 259 -25 49 -25 50 2 178 c2 168 1 180 -20 214 -18 28 -22 51 -22 112 0 57 -5 87 -20 116 -11 22 -22 65 -25 94 -3 30 -14 70 -25 88 -18 31 -20 50 -20 269 0 224 -1 238 -21 263 -15 19 -21 43 -23 89 -2 39 -11 77 -24 104 -16 31 -22 60 -22 112 0 56 -5 77 -25 112 l-25 44 1 257 1 257 -21 27 c-18 23 -21 40 -21 127 0 86 -3 105 -22 136 l-23 36 -2 261 c-2 245 -3 264 -22 295 -14 22 -21 51 -21 82 0 32 -8 64 -25 95 -18 33 -25 63 -25 102 0 39 -6 62 -20 80 -14 18 -20 41 -20 84 0 43 -6 68 -22 95 -18 29 -23 51 -24 111 0 59 -5 82 -22 110 -19 31 -22 49 -22 160 -1 115 -3 128 -25 165 l-25 40 0 193 c0 180 -1 196 -21 220 -13 17 -19 38 -17 58 1 21 -4 40 -16 53 -28 30 -36 85 -34 217 1 109 -1 125 -20 156 -19 30 -22 50 -22 132 0 86 -3 102 -25 141 l-26 43 2 161 c1 147 -1 164 -20 195 -17 27 -21 50 -21 114 0 71 -3 86 -26 119 -24 35 -25 44 -20 108 6 65 4 73 -19 105 l-25 34 0 173 c0 165 -1 175 -22 204 -19 25 -23 45 -25 115 -1 67 -6 90 -22 113 -19 26 -21 44 -21 154 0 114 -2 127 -22 153 -21 26 -23 41 -26 182 -3 131 -6 159 -23 185 -15 26 -19 51 -19 132 -1 88 -3 105 -25 140 -23 37 -25 50 -25 165 0 108 -3 129 -20 155 -15 23 -20 47 -20 103 0 61 -4 81 -26 119 l-27 45 6 163 5 164 -24 32 -24 33 0 168 0 169 -25 37 -25 37 0 189 c0 174 -2 191 -21 222 -16 27 -20 47 -17 93 2 44 -1 64 -13 77 -38 43 -41 63 -38 242 2 165 1 180 -19 219 -20 38 -22 58 -22 205 -1 127 -4 167 -15 182 -8 11 -15 30 -15 43 0 13 -13 50 -30 83 l-30 59 0 174 0 173 -26 35 -25 34 3 192 c2 164 1 194 -13 210 -9 10 -30 46 -48 81 l-31 63 0 185 c0 171 -2 188 -20 211 -15 20 -20 41 -20 93 0 63 -2 69 -35 103 l-36 37 -659 0 -659 0 -38 -26 -38 -25 -137 3 c-125 3 -138 5 -160 26 l-24 22 -202 0 -202 0 -42 -26 -41 -26 -113 4 c-102 3 -115 5 -138 27 l-25 24 -115 -5 -115 -5 -93 -48 c-144 -74 -175 -99 -205 -162 -20 -42 -62 -90 -174 -201 -109 -107 -149 -154 -158 -181 -8 -27 -45 -71 -136 -161 -88 -85 -128 -132 -132 -152 -3 -18 -29 -51 -64 -86 -41 -39 -65 -73 -80 -111 -43 -108 -223 -457 -257 -494 -18 -21 -42 -60 -53 -85 -62 -144 -146 -299 -176 -325 -18 -16 -33 -34 -33 -40 0 -26 -63 -144 -94 -177 -41 -43 -186 -344 -186 -385 0 -21 -12 -41 -42 -72 -34 -35 -42 -50 -44 -85 -2 -46 -38 -118 -91 -183 -18 -22 -49 -74 -71 -115 -21 -41 -54 -96 -74 -122 -20 -26 -40 -58 -44 -70 -3 -13 -26 -44 -50 -70 -24 -26 -44 -55 -44 -64 0 -9 -18 -36 -40 -60 -21 -23 -42 -55 -46 -71 -4 -15 -21 -44 -40 -63 -18 -19 -47 -69 -64 -110 -24 -58 -44 -88 -90 -133 -33 -32 -60 -64 -60 -71 0 -21 -60 -128 -93 -166 -17 -19 -53 -82 -80 -140 -89 -191 -118 -244 -158 -287 -21 -23 -39 -49 -39 -56 0 -27 -63 -138 -87 -154 -14 -9 -35 -39 -48 -67 -12 -28 -36 -64 -54 -80 -17 -17 -31 -39 -31 -50 -1 -31 -63 -141 -80 -141 -8 0 -17 -13 -20 -30 -4 -16 -14 -44 -23 -61 -9 -17 -28 -62 -42 -100 -16 -43 -40 -84 -65 -109 -21 -22 -42 -52 -45 -67 -4 -15 -25 -47 -46 -72 -21 -24 -39 -48 -39 -52 0 -22 -112 -232 -135 -254 -36 -33 -55 -72 -55 -111 0 -22 -9 -41 -31 -63 -17 -17 -68 -109 -115 -206 -64 -132 -94 -184 -124 -211 -22 -20 -40 -45 -40 -56 0 -11 -23 -48 -50 -82 -28 -34 -50 -68 -50 -74 0 -25 -363 -737 -394 -773 -18 -22 -41 -55 -51 -74 -9 -19 -26 -44 -36 -55 -10 -11 -37 -59 -60 -105 -22 -47 -58 -104 -80 -127 -21 -23 -41 -54 -45 -70 -4 -15 -24 -46 -45 -68 -21 -22 -41 -53 -45 -70 -4 -16 -27 -65 -50 -107 -24 -43 -44 -82 -44 -88 0 -6 -18 -30 -40 -54 -22 -24 -40 -51 -40 -60 0 -9 -16 -33 -35 -55 -19 -21 -74 -116 -121 -210 -47 -95 -98 -187 -114 -204 -15 -18 -46 -70 -68 -117 -23 -47 -53 -97 -68 -110 -14 -14 -46 -66 -70 -116 -24 -49 -53 -99 -65 -110 -12 -10 -42 -59 -66 -109 -25 -49 -63 -109 -84 -132 -22 -24 -39 -49 -39 -56 0 -27 -98 -212 -125 -237 -15 -14 -47 -66 -71 -116 -24 -50 -53 -99 -65 -110 -30 -27 -49 -68 -49 -107 0 -19 -8 -45 -19 -58 -10 -13 -27 -42 -39 -64 -11 -22 -39 -58 -62 -80 -23 -22 -51 -60 -62 -84 -10 -25 -36 -63 -57 -86 -21 -23 -42 -53 -46 -66 -4 -13 -19 -37 -32 -53 -13 -16 -62 -107 -109 -201 -47 -95 -96 -183 -110 -196 -14 -13 -53 -82 -88 -154 -35 -73 -78 -147 -99 -168 -20 -21 -41 -55 -48 -75 -6 -21 -17 -41 -23 -47 -7 -5 -15 -18 -19 -27 -3 -10 -11 -18 -16 -18 -14 0 -40 41 -46 70 -5 25 -37 76 -97 153 -21 27 -38 55 -38 61 0 7 -17 33 -38 57 -21 24 -57 82 -79 129 -22 47 -50 94 -62 104 -12 11 -40 58 -63 104 -22 47 -55 101 -73 121 -17 20 -61 97 -98 171 -36 75 -77 146 -91 159 -14 14 -26 34 -26 46 0 11 -19 41 -42 65 -23 25 -58 81 -79 125 -21 44 -50 92 -65 105 -14 14 -57 88 -95 164 -38 77 -80 151 -93 165 -13 14 -31 42 -41 61 -9 19 -30 49 -46 66 -16 16 -56 86 -89 155 -33 68 -73 138 -89 155 -16 17 -47 70 -70 119 -22 48 -57 105 -76 126 -28 31 -35 47 -35 80 0 37 -6 48 -59 101 -45 44 -73 86 -115 169 -31 61 -56 116 -56 123 0 7 -14 25 -31 42 -17 16 -49 67 -72 114 -22 47 -56 103 -74 125 -19 22 -65 101 -103 176 -38 75 -77 142 -86 150 -9 7 -36 53 -60 102 -24 48 -52 96 -63 105 -12 9 -41 58 -65 109 -25 51 -60 109 -79 130 -18 21 -48 72 -66 113 -19 41 -48 91 -66 110 -18 19 -72 115 -120 212 -76 153 -95 183 -137 218 -26 23 -48 47 -48 53 0 24 -74 163 -105 197 -29 32 -85 143 -85 168 0 6 -9 16 -20 22 -30 16 -70 81 -70 114 0 36 -32 89 -70 116 -30 22 -79 106 -132 225 -16 39 -45 86 -63 105 -18 19 -50 70 -70 113 -21 44 -50 94 -66 112 -16 18 -36 48 -44 67 -7 19 -30 54 -49 77 -24 28 -37 56 -42 88 -5 33 -17 58 -43 87 -20 23 -56 81 -80 129 -33 65 -57 99 -93 128 -26 23 -51 53 -55 67 -3 15 -15 44 -25 64 -11 20 -19 45 -18 55 4 39 -2 50 -70 122 -39 41 -70 80 -70 85 0 6 -14 38 -31 71 -17 33 -53 103 -79 155 -27 53 -58 104 -70 115 -12 11 -32 43 -45 70 -12 28 -32 58 -43 69 -12 10 -40 57 -64 105 -23 47 -57 103 -75 123 -18 21 -60 94 -94 164 -35 70 -75 142 -91 159 -15 18 -41 63 -58 101 -17 38 -46 85 -64 104 -19 19 -50 71 -69 115 -20 44 -49 93 -65 110 -16 16 -48 71 -71 120 -24 50 -54 99 -67 110 -13 11 -55 83 -93 161 -39 77 -80 149 -92 160 -12 10 -33 42 -46 69 -14 28 -39 65 -55 84 -25 28 -29 40 -24 69 5 32 1 39 -47 86 -61 59 -117 146 -117 180 0 13 -7 29 -16 37 -10 8 -13 21 -9 36 3 14 1 23 -6 23 -26 0 -79 51 -79 76 0 31 -14 59 -51 101 -15 18 -45 69 -67 115 -22 46 -54 96 -70 112 -17 16 -34 41 -37 57 -4 15 -24 48 -46 73 -22 24 -65 98 -96 163 -31 65 -70 133 -86 152 -16 19 -37 52 -47 75 -10 23 -29 52 -43 65 -14 13 -54 80 -88 149 -34 69 -77 142 -94 161 -29 34 -135 239 -135 262 0 6 -26 38 -59 72 -70 74 -83 96 -75 134 5 26 -3 37 -80 111 l-86 82 -1257 -1 c-692 0 -1267 -4 -1278 -8z"/>
</g>
</g>
  <g id="id1:id1" transform="matrix(1.25,0,0,1.25,0.0,0.0)"><g transform="translate(0.000000,1641.600000) scale(0.040000,-0.040000)" fill="#ffffff" stroke="none">
<path d="M0 20520 l0 -20520 17600 0 17600 0 0 20520 0 20520 -17600 0 -17600 0 0 -20520z m9993 12306 c48 -20 157 -138 157 -170 0 -42 24 -88 70 -131 30 -28 61 -79 107 -170 35 -71 77 -143 93 -160 15 -16 58 -91 95 -165 37 -74 79 -148 95 -165 15 -16 33 -46 39 -66 6 -20 25 -49 42 -65 17 -16 58 -82 90 -148 32 -65 75 -136 94 -157 19 -22 35 -48 35 -59 0 -11 16 -38 36 -59 19 -22 53 -77 75 -123 22 -45 58 -101 80 -125 31 -34 39 -50 39 -82 0 -34 6 -43 45 -75 31 -26 45 -45 45 -62 0 -14 11 -47 25 -74 14 -27 25 -55 25 -63 0 -7 27 -38 59 -69 51 -48 60 -62 67 -103 4 -31 17 -59 35 -80 16 -18 38 -54 50 -79 11 -25 33 -56 49 -68 16 -12 37 -37 46 -57 94 -200 118 -245 143 -273 15 -18 47 -71 69 -118 22 -47 52 -96 67 -110 15 -14 43 -59 63 -100 19 -41 50 -91 68 -110 18 -19 47 -69 65 -110 18 -41 48 -92 66 -113 18 -20 62 -97 97 -170 35 -72 74 -141 86 -152 12 -11 42 -60 66 -109 24 -48 60 -106 79 -127 19 -22 35 -46 35 -54 0 -9 17 -34 39 -58 32 -36 98 -160 196 -369 9 -21 36 -54 59 -75 49 -44 65 -69 66 -104 0 -50 51 -143 115 -209 44 -47 71 -86 94 -140 18 -41 48 -91 67 -110 25 -27 35 -48 41 -85 5 -38 15 -59 45 -91 21 -23 38 -48 38 -56 0 -9 20 -40 45 -70 25 -30 60 -88 79 -129 19 -41 49 -89 65 -107 32 -35 75 -115 117 -217 17 -41 44 -79 83 -120 51 -52 61 -68 71 -116 6 -33 20 -65 31 -75 26 -23 99 -147 99 -167 0 -8 17 -34 38 -58 36 -41 102 -160 102 -183 0 -6 27 -38 60 -71 51 -51 72 -85 144 -234 47 -95 96 -185 109 -200 14 -14 44 -64 67 -111 23 -47 55 -98 71 -115 15 -16 44 -66 65 -110 20 -44 53 -98 73 -120 22 -23 50 -71 66 -112 15 -40 41 -84 58 -100 16 -15 60 -91 98 -167 38 -77 80 -151 94 -166 13 -14 42 -63 63 -110 22 -47 52 -96 67 -110 15 -14 56 -83 91 -153 47 -96 77 -144 118 -187 38 -39 56 -67 56 -84 0 -37 17 -75 52 -114 16 -20 47 -71 68 -114 21 -43 53 -95 71 -115 18 -21 60 -96 94 -168 34 -71 70 -136 79 -144 10 -8 28 -35 41 -60 13 -25 37 -59 54 -75 17 -16 36 -45 42 -65 7 -20 20 -48 30 -63 11 -14 32 -55 48 -90 16 -36 43 -81 60 -100 29 -34 81 -131 81 -154 0 -5 20 -34 45 -63 25 -29 45 -59 45 -67 0 -8 15 -31 34 -51 40 -45 80 -112 126 -213 18 -41 53 -100 75 -130 23 -30 54 -84 70 -120 15 -36 42 -81 60 -100 18 -19 48 -67 67 -106 19 -40 51 -91 71 -115 20 -23 37 -51 37 -60 0 -10 15 -35 33 -55 17 -19 57 -84 87 -142 30 -58 63 -111 73 -116 26 -16 48 3 85 75 18 35 46 80 61 99 15 19 55 93 89 164 35 72 79 150 100 175 20 25 69 113 109 196 44 92 90 170 118 203 25 29 48 65 51 80 4 15 21 43 39 62 18 19 36 46 40 58 4 13 34 53 67 90 69 76 102 137 112 206 6 38 17 59 50 95 23 25 61 85 84 132 23 47 48 92 56 99 9 6 43 68 76 136 33 68 75 141 93 161 18 21 50 74 72 118 21 44 53 98 72 120 19 22 49 72 66 111 18 39 45 85 59 103 15 18 43 65 62 105 19 40 55 97 80 126 25 30 46 59 46 66 0 23 142 299 171 331 16 19 40 55 53 81 13 26 34 56 46 67 12 11 50 79 85 150 34 72 72 139 84 150 13 11 33 40 46 65 13 25 33 54 45 65 12 11 44 64 71 118 26 54 64 116 84 138 19 21 35 45 35 53 0 8 15 32 34 55 19 22 123 219 232 437 120 238 212 411 232 433 19 20 39 50 47 67 7 17 29 52 49 78 20 26 36 53 36 59 0 7 7 26 16 42 9 17 41 80 71 140 31 61 74 129 95 152 26 29 38 52 38 72 0 42 17 81 50 116 16 17 54 84 86 150 32 65 72 135 90 155 17 19 40 53 52 75 11 22 30 49 42 60 12 11 34 47 49 80 15 33 35 66 44 74 9 7 17 20 17 29 0 8 6 23 14 31 7 9 23 42 35 74 35 97 82 180 127 229 24 26 44 55 44 65 0 9 11 28 25 43 13 14 42 62 64 106 22 45 52 97 68 115 16 19 66 110 112 202 46 92 98 186 117 208 19 22 51 78 73 124 28 60 54 98 94 137 31 30 59 67 63 83 4 17 15 42 25 57 11 14 19 31 19 36 0 6 16 29 36 53 19 23 42 56 51 72 8 17 33 53 54 80 22 27 39 53 39 58 0 5 23 39 50 75 28 36 50 71 50 79 0 7 19 36 43 63 23 28 53 79 67 114 14 34 39 79 57 99 34 37 93 163 93 197 0 11 18 41 39 67 26 31 42 63 46 89 9 49 147 328 186 373 15 18 43 63 61 100 18 37 46 86 64 108 17 22 70 119 118 215 48 96 100 189 115 205 16 17 86 147 156 290 106 214 138 270 181 315 28 30 61 74 73 98 12 24 74 96 138 160 63 64 124 135 135 157 11 22 82 103 158 180 91 93 144 155 157 185 27 59 47 76 178 146 l110 59 97 0 c84 0 100 -3 127 -22 27 -21 41 -23 154 -23 113 0 130 2 182 26 l57 26 174 -4 c160 -4 176 -6 203 -26 28 -20 41 -22 183 -22 141 0 156 2 188 23 l35 22 637 0 636 0 26 -24 c29 -27 46 -77 46 -132 0 -21 8 -47 20 -62 18 -23 20 -40 20 -218 l0 -192 45 -88 45 -88 0 -187 c0 -176 1 -189 23 -223 20 -33 22 -49 24 -209 2 -156 5 -176 23 -202 12 -16 20 -44 20 -66 0 -25 7 -46 22 -61 21 -22 22 -35 26 -206 4 -159 7 -185 23 -206 17 -21 19 -43 19 -218 0 -170 2 -198 19 -231 10 -20 22 -62 26 -92 4 -30 16 -66 26 -79 17 -21 19 -43 19 -221 l0 -197 23 -29 c21 -27 22 -38 24 -205 1 -157 4 -181 22 -218 19 -36 21 -58 21 -197 l0 -157 25 -44 c22 -36 25 -53 23 -113 -2 -58 2 -74 20 -99 20 -27 22 -42 22 -159 0 -119 2 -132 23 -158 19 -25 23 -44 27 -145 4 -90 9 -121 22 -135 14 -16 17 -46 20 -176 3 -144 5 -159 25 -187 21 -28 23 -41 23 -159 0 -114 2 -132 20 -155 16 -20 20 -40 20 -104 0 -64 4 -84 22 -113 21 -32 23 -49 25 -209 3 -154 5 -176 23 -201 16 -22 20 -44 20 -108 0 -67 3 -84 22 -108 19 -23 24 -45 28 -125 4 -73 9 -102 23 -116 15 -17 17 -42 17 -189 l0 -170 26 -35 c24 -32 25 -40 22 -141 -2 -99 -1 -109 20 -131 21 -22 22 -32 22 -178 0 -128 3 -159 17 -178 9 -13 20 -45 25 -70 4 -25 17 -58 28 -73 18 -25 20 -43 20 -224 l0 -198 22 -23 c20 -21 22 -36 26 -163 4 -120 7 -142 23 -156 16 -14 19 -32 19 -101 0 -71 4 -91 24 -126 18 -31 24 -56 23 -94 -1 -41 4 -58 21 -76 18 -19 22 -35 22 -86 0 -46 5 -70 19 -90 13 -17 22 -53 27 -101 4 -49 13 -83 25 -99 17 -22 19 -46 19 -283 l0 -259 23 -30 c19 -27 22 -43 23 -139 1 -93 4 -112 23 -138 l21 -30 0 -257 0 -256 26 -45 c24 -40 26 -53 21 -108 -5 -54 -3 -67 18 -102 18 -29 24 -54 25 -97 0 -44 6 -66 25 -96 l26 -38 -2 -231 c-1 -219 0 -233 20 -265 16 -26 21 -51 21 -99 0 -56 3 -68 21 -80 19 -12 23 -27 28 -115 5 -76 10 -106 24 -120 15 -17 17 -43 17 -219 l0 -200 25 -34 25 -34 0 -261 0 -262 20 -18 c18 -17 20 -31 20 -170 0 -143 1 -154 23 -181 20 -25 22 -41 24 -141 1 -96 4 -117 22 -142 17 -24 21 -44 21 -114 0 -72 3 -88 23 -113 16 -21 22 -43 23 -85 1 -41 7 -66 23 -87 19 -27 21 -43 21 -159 0 -122 1 -131 25 -163 23 -31 25 -42 25 -143 0 -94 3 -112 20 -134 18 -23 20 -41 20 -152 0 -120 1 -129 25 -161 21 -29 25 -45 25 -109 0 -59 5 -83 20 -106 14 -21 20 -47 20 -88 0 -45 6 -66 26 -96 l25 -39 -2 -126 c-2 -119 -1 -128 20 -150 21 -22 23 -33 22 -129 -1 -100 0 -107 25 -136 l26 -31 -3 -201 -4 -200 24 -18 23 -18 -1 -163 c-1 -153 0 -165 20 -186 15 -16 22 -41 26 -85 4 -35 14 -77 25 -94 16 -27 18 -56 18 -293 0 -249 1 -265 20 -289 11 -14 20 -38 20 -53 0 -15 11 -48 25 -74 20 -38 25 -61 25 -123 0 -61 4 -83 22 -111 19 -31 23 -54 26 -162 3 -102 8 -131 24 -157 16 -27 20 -51 20 -132 0 -89 2 -103 24 -132 21 -29 24 -44 24 -118 0 -70 4 -91 20 -111 17 -21 20 -41 20 -133 0 -91 3 -112 20 -135 12 -16 20 -45 21 -72 4 -116 10 -140 45 -174 44 -42 54 -79 54 -188 l0 -87 34 -35 33 -36 219 0 c245 0 249 -1 283 -69 11 -20 26 -43 34 -49 8 -7 18 -37 21 -66 6 -46 4 -62 -18 -105 -23 -44 -26 -63 -26 -148 0 -85 -3 -100 -21 -119 l-21 -22 1 -499 2 -499 -24 -20 -24 -21 -2 -184 c-1 -164 -4 -187 -21 -211 l-19 -26 -1 -676 -1 -676 20 -29 c15 -21 21 -45 21 -84 0 -39 6 -61 19 -79 12 -15 21 -43 22 -73 3 -42 -1 -51 -28 -75 l-31 -28 -151 -1 c-131 -2 -156 -4 -185 -22 l-34 -20 -551 1 c-504 0 -555 1 -589 17 -35 17 -220 18 -3355 23 l-3319 5 -29 33 -30 33 2 199 1 199 -23 33 -24 33 -5 390 c-3 215 -1 432 4 483 l9 93 -22 23 c-18 19 -24 40 -28 99 -5 69 -3 79 20 120 23 39 25 50 18 94 -4 27 -15 60 -24 74 -15 21 -17 63 -17 391 l0 368 -20 32 c-26 43 -26 90 0 113 11 10 36 42 55 71 20 30 53 63 77 77 24 14 59 42 78 62 l35 36 3 133 c3 124 2 137 -22 194 l-26 61 0 242 0 241 -22 31 -23 32 -1 316 0 316 -22 28 -22 28 0 305 1 305 -20 21 c-17 18 -21 35 -21 90 0 56 -4 73 -25 100 l-25 33 0 233 c0 196 -2 236 -15 250 -22 25 -38 134 -30 212 6 61 4 72 -21 113 -24 41 -26 53 -22 115 5 60 2 74 -18 107 -21 34 -23 50 -24 162 0 101 -3 128 -17 143 -22 24 -82 25 -89 1 -15 -49 -70 -153 -103 -193 -20 -25 -50 -74 -65 -110 -16 -36 -43 -81 -60 -100 -44 -47 -53 -64 -126 -220 -34 -74 -84 -164 -111 -199 -27 -35 -49 -69 -49 -75 0 -6 -23 -56 -52 -111 -28 -55 -84 -165 -123 -245 -40 -80 -85 -156 -100 -170 -15 -14 -33 -40 -40 -58 -8 -18 -21 -35 -30 -38 -8 -3 -15 -16 -15 -28 0 -26 -20 -58 -71 -111 -39 -41 -69 -99 -69 -134 0 -25 -51 -121 -91 -171 -16 -20 -38 -57 -47 -81 -33 -84 -100 -204 -127 -229 -15 -14 -44 -61 -65 -106 -20 -45 -53 -99 -72 -120 -20 -21 -39 -50 -43 -64 -15 -51 -100 -204 -136 -246 -20 -24 -40 -57 -44 -74 -4 -17 -18 -38 -32 -47 -16 -11 -56 -79 -114 -197 -49 -99 -99 -190 -110 -202 -17 -19 -55 -88 -137 -249 -8 -16 -30 -46 -48 -65 -22 -24 -42 -65 -64 -130 -39 -116 -48 -133 -113 -191 -46 -42 -51 -50 -52 -93 -2 -43 -7 -51 -68 -115 -58 -59 -67 -74 -67 -106 0 -41 -22 -90 -45 -98 -8 -4 -33 -45 -54 -92 -22 -47 -55 -103 -73 -125 -18 -21 -52 -76 -74 -122 -177 -358 -263 -519 -300 -567 -24 -31 -44 -61 -44 -68 0 -31 -64 -133 -115 -183 -32 -30 -67 -77 -79 -105 -13 -27 -33 -58 -44 -69 -12 -10 -26 -33 -32 -50 -7 -21 -117 -138 -328 -349 l-318 -317 -1037 0 -1036 0 -68 34 c-37 19 -84 52 -104 73 -48 51 -89 128 -89 168 0 39 -57 152 -106 209 -19 22 -34 45 -34 52 0 7 -18 35 -39 62 -22 28 -46 65 -54 84 -8 18 -29 48 -46 66 -16 18 -38 49 -47 69 -10 19 -41 61 -69 92 -35 37 -73 97 -114 181 -45 90 -78 141 -117 182 -30 31 -54 64 -54 72 0 9 -15 33 -34 53 -18 21 -53 76 -76 123 -23 47 -55 99 -70 115 -16 17 -51 76 -79 131 -33 67 -62 110 -84 127 -29 22 -107 156 -107 184 0 5 -16 25 -36 44 -19 18 -44 54 -55 79 -11 25 -33 59 -49 75 -34 36 -90 150 -90 185 0 29 -20 59 -73 114 -43 44 -57 73 -57 118 0 23 -14 44 -64 96 -43 45 -76 92 -100 141 -20 41 -50 93 -68 114 -17 22 -48 74 -68 116 -21 44 -55 93 -78 116 -49 46 -72 90 -72 139 0 28 -7 42 -32 63 -101 88 -148 141 -148 167 0 37 -21 85 -62 138 -19 24 -45 71 -58 104 -15 39 -42 79 -81 119 -42 45 -73 92 -120 185 -34 69 -74 141 -89 160 -15 19 -37 54 -50 77 -13 23 -40 56 -60 72 -27 22 -56 68 -109 173 -40 79 -82 153 -93 165 -12 13 -42 64 -68 115 -40 80 -54 98 -98 127 -42 27 -53 40 -58 69 -13 66 -61 156 -109 202 -31 29 -63 76 -92 135 -24 50 -57 104 -73 120 -16 17 -32 42 -35 58 -4 15 -27 49 -51 77 -25 27 -61 84 -81 127 -38 83 -141 203 -173 203 -37 0 -43 -26 -44 -178 -1 -136 -3 -149 -23 -179 -20 -27 -23 -44 -23 -125 0 -75 -4 -102 -20 -133 -19 -37 -21 -57 -20 -301 l1 -261 -22 -27 c-21 -26 -22 -40 -25 -227 -3 -184 -5 -202 -23 -226 -19 -23 -21 -40 -21 -184 0 -146 -2 -161 -24 -206 l-24 -48 1 -366 2 -366 -27 -39 -28 -40 7 -98 6 -98 36 -33 c81 -75 81 -75 187 -75 145 0 134 25 134 -323 0 -263 2 -292 18 -310 15 -17 17 -55 20 -439 l3 -419 24 -40 25 -39 -2 -427 -3 -427 -53 -37 c-30 -20 -70 -53 -90 -72 -21 -20 -54 -43 -75 -52 -28 -12 -42 -26 -54 -53 -8 -20 -48 -71 -88 -112 -41 -41 -79 -87 -84 -102 -6 -15 -30 -40 -53 -55 -24 -15 -69 -51 -100 -80 -31 -29 -63 -53 -71 -53 -8 0 -27 -10 -43 -22 -26 -21 -37 -23 -140 -20 l-112 3 -30 -26 -30 -25 -3305 2 -3305 3 -21 19 c-12 11 -32 40 -44 65 l-22 46 -1 396 -1 395 -23 32 -23 31 7 108 c5 59 7 119 6 133 -1 14 -4 276 -6 582 l-5 557 22 43 c28 56 46 76 91 99 26 13 49 38 77 86 22 38 69 97 105 133 l66 64 0 61 c0 42 6 70 20 93 18 30 20 50 20 245 l0 212 25 37 c14 20 25 50 25 65 0 15 11 46 25 68 20 33 24 53 25 119 0 63 4 86 22 114 20 32 22 47 19 166 -2 123 -1 134 23 181 l26 50 -1 161 -2 160 43 82 42 83 -13 64 c-10 52 -10 70 0 92 8 17 14 77 16 148 2 102 6 126 24 155 19 32 21 49 21 211 l0 176 22 29 23 29 0 220 0 221 48 45 47 46 0 237 c0 217 2 240 20 276 12 23 22 67 24 106 3 45 10 72 23 86 15 17 18 41 19 168 1 132 4 152 23 183 17 29 21 50 21 126 0 81 3 98 25 136 29 48 27 76 -7 132 -17 29 -18 38 -7 70 6 20 28 51 48 69 l35 33 -3 194 -3 193 25 30 24 29 0 220 0 220 46 81 47 81 0 209 c0 176 3 214 17 239 17 32 32 122 38 243 3 40 11 85 20 102 9 18 15 56 15 101 0 55 4 77 18 92 15 17 18 48 22 247 5 211 7 231 26 257 16 22 21 45 22 112 1 64 6 91 22 116 17 28 20 50 20 152 0 104 3 124 22 158 l22 40 1 243 0 244 23 18 c22 18 23 27 25 147 2 115 4 131 25 160 20 28 22 43 22 144 0 93 3 116 18 132 14 16 18 45 22 176 5 141 7 159 28 188 19 26 22 44 22 117 0 72 3 89 19 105 18 18 20 38 23 224 3 179 5 207 21 224 14 16 18 46 24 159 4 102 10 146 22 163 12 19 17 60 21 157 5 112 8 136 24 153 18 19 20 41 23 202 2 163 5 183 23 206 17 22 20 41 20 134 0 99 2 110 24 136 22 26 24 39 28 158 3 107 7 135 22 158 17 25 19 50 20 225 1 184 2 200 24 239 19 37 22 57 22 161 0 106 2 121 20 137 18 16 20 31 20 124 0 97 2 110 25 143 l25 37 0 175 0 176 22 22 c19 19 21 31 20 107 -2 74 1 91 20 121 21 33 22 47 23 226 2 178 3 194 23 221 12 17 24 50 28 74 3 24 14 55 23 69 13 20 17 63 21 220 5 166 8 200 25 230 16 30 19 57 19 205 1 161 2 172 24 199 18 24 22 41 22 105 0 57 5 84 19 108 17 26 20 54 23 185 3 138 5 156 24 180 20 26 21 40 23 250 2 208 3 225 22 252 12 15 24 47 27 70 3 22 13 52 23 65 17 21 19 45 19 243 0 202 2 222 19 247 18 25 20 49 23 317 l3 290 23 28 22 29 0 277 0 277 26 47 26 46 -26 52 c-14 29 -26 67 -26 84 0 45 16 84 36 84 9 0 24 10 35 23 15 18 18 39 19 120 0 81 4 104 19 125 14 20 20 49 22 114 3 71 8 90 25 110 17 18 23 39 26 98 4 66 10 84 46 147 l42 72 0 118 c1 106 3 122 24 156 l23 38 -5 132 -5 132 36 73 c19 40 59 99 89 131 29 32 67 73 84 92 17 19 47 45 67 59 21 14 46 44 58 70 11 25 33 59 49 75 15 17 33 46 39 66 14 44 53 83 106 104 55 23 132 100 159 160 27 59 40 72 81 78 17 2 574 5 1238 6 1001 1 1213 -1 1240 -13z"/>
</g>
</g>
</svg>
