<?xml version="1.0" standalone="no"?>
<!DOCTYPE svg PUBLIC "-//W3C//DTD SVG 1.1//EN"
 "http://www.w3.org/Graphics/SVG/1.1/DTD/svg11.dtd">
<!-- Created with svg_stack (http://github.com/astraw/svg_stack) -->
<svg xmlns:sodipodi="http://sodipodi.sourceforge.net/DTD/sodipodi-0.dtd" xmlns="http://www.w3.org/2000/svg" version="1.1" width="876.0" height="586.0">
  <defs/>
  <g id="id0:id0" transform="matrix(1.25,0,0,1.25,0.0,0.0)"><g transform="translate(0.000000,468.800000) scale(0.040000,-0.040000)" fill="#ffffff" stroke="none">
<path d="M0 5860 l0 -5860 8760 0 8760 0 0 5860 0 5860 -8760 0 -8760 0 0 -5860z m10362 4955 c213 -45 382 -134 516 -274 30 -32 90 -118 139 -201 47 -80 99 -167 116 -195 16 -27 95 -162 175 -300 80 -137 151 -260 159 -272 20 -34 56 -29 142 21 42 24 119 67 171 96 52 29 127 71 165 94 110 63 253 135 259 129 3 -3 -3 -22 -14 -42 -19 -38 -127 -277 -185 -411 -57 -130 -156 -352 -187 -420 -55 -119 -75 -164 -122 -272 -26 -59 -59 -133 -75 -165 -15 -32 -52 -112 -81 -178 -142 -322 -243 -547 -277 -615 l-38 -75 -85 1 c-47 0 -141 6 -210 12 -69 7 -181 17 -250 22 -69 5 -197 16 -285 25 -281 26 -597 54 -690 60 -49 3 -121 10 -160 15 -38 6 -131 15 -205 20 -74 5 -202 17 -285 25 -82 8 -169 15 -192 15 -23 0 -44 4 -47 9 -6 10 4 17 241 167 340 214 358 228 356 256 -1 25 -235 507 -329 678 -320 586 -601 988 -886 1267 -105 103 -215 181 -348 248 -115 58 -406 158 -565 195 -55 12 -106 25 -114 27 -57 15 86 22 664 33 363 6 703 12 755 13 52 2 456 4 897 5 684 2 812 0 875 -13z m-3147 -164 c288 -65 577 -204 805 -387 141 -113 261 -244 368 -402 95 -140 192 -330 192 -377 0 -25 -29 -77 -122 -216 -67 -101 -263 -398 -436 -659 -173 -261 -321 -484 -328 -495 -56 -83 -185 -276 -411 -617 -155 -234 -269 -398 -278 -398 -18 0 -76 28 -225 110 -58 31 -190 103 -295 160 -104 57 -224 122 -265 145 -41 23 -140 77 -220 120 -80 43 -174 95 -210 115 -36 21 -148 83 -250 138 -102 55 -239 129 -305 165 -203 110 -270 151 -273 168 -2 9 61 124 139 255 214 361 263 443 299 509 18 33 63 110 100 170 37 61 82 137 100 170 18 33 54 94 80 135 50 80 165 274 315 535 220 380 226 389 317 465 122 103 313 186 481 210 98 14 320 4 422 -19z m5286 -2831 c48 -83 235 -420 284 -510 34 -63 79 -144 100 -180 41 -70 86 -150 219 -390 47 -85 122 -220 167 -300 215 -385 271 -487 337 -617 90 -178 112 -254 112 -394 0 -128 -19 -199 -91 -339 -116 -226 -407 -555 -619 -699 -92 -62 -252 -147 -360 -189 -148 -59 -375 -114 -527 -127 l-72 -7 -57 89 c-31 48 -85 131 -119 183 -158 242 -496 767 -560 870 -27 44 -106 166 -175 272 -69 105 -156 240 -193 301 -37 60 -123 193 -191 296 -67 102 -129 197 -136 211 -7 14 -53 85 -102 159 -49 74 -87 142 -86 150 3 15 85 68 364 235 55 33 126 77 160 98 33 21 64 38 68 38 4 0 33 18 64 39 32 21 89 57 127 79 71 40 218 129 510 307 88 53 266 160 395 237 129 77 253 153 275 168 64 43 90 48 106 20z m-6571 -710 c10 -5 65 -103 123 -217 57 -115 160 -316 229 -448 69 -132 176 -339 238 -460 62 -121 120 -233 130 -250 10 -16 82 -156 160 -310 79 -154 149 -290 157 -302 8 -12 10 -24 5 -27 -12 -7 -53 10 -312 132 -47 22 -132 61 -190 87 -58 26 -120 54 -139 63 l-33 15 -44 -49 c-211 -236 -385 -452 -439 -544 -70 -121 -82 -203 -44 -305 24 -66 112 -166 172 -196 57 -29 35 -42 -75 -44 -812 -18 -811 -18 -1003 20 -202 40 -430 134 -595 243 -153 102 -304 279 -379 445 -61 137 -84 245 -89 432 -2 101 0 206 7 257 14 103 70 310 107 393 68 152 108 234 136 280 71 115 138 212 162 234 14 14 26 28 26 32 0 5 -98 73 -217 153 -366 245 -414 280 -398 294 9 9 318 21 1075 42 184 5 472 14 640 20 168 6 359 12 425 13 66 2 126 4 133 5 7 1 22 -2 32 -8z m7626 -2494 c-25 -53 -46 -98 -46 -101 0 -2 -60 -129 -134 -282 -73 -153 -150 -314 -171 -358 -86 -182 -139 -292 -253 -525 -285 -583 -361 -739 -387 -795 -31 -66 -136 -257 -177 -320 -14 -22 -37 -61 -51 -86 -45 -79 -178 -251 -257 -330 -88 -88 -181 -159 -264 -201 -129 -65 -82 -61 -791 -67 l-650 -6 -5 -405 c-3 -223 -9 -404 -13 -403 -11 3 -120 171 -221 343 -108 182 -287 477 -332 546 -51 79 -241 391 -331 544 -51 87 -90 149 -148 240 -23 36 -50 81 -60 100 -10 19 -32 55 -50 80 -44 61 -85 144 -85 172 0 13 44 90 98 171 53 82 164 253 245 380 878 1373 869 1359 877 1350 4 -4 12 -164 18 -356 7 -246 13 -352 22 -362 11 -13 128 -15 889 -15 1036 0 1037 0 1334 96 121 39 288 116 375 174 31 21 76 49 99 63 114 71 426 357 475 435 13 22 24 30 30 24 7 -7 -6 -43 -36 -106z m-9405 -254 c196 -123 431 -207 737 -262 l107 -20 1740 0 c1341 0 1744 -3 1753 -12 18 -18 17 -2471 0 -2485 -8 -7 -393 -13 -1063 -17 -1434 -9 -1625 -8 -1662 3 -83 24 -160 78 -267 186 -186 187 -305 362 -499 735 -33 63 -85 165 -117 225 -32 61 -84 160 -115 220 -32 61 -61 115 -65 120 -4 6 -63 118 -131 250 -67 132 -133 257 -146 277 -13 21 -23 40 -23 43 0 4 -95 185 -195 370 -110 204 -264 513 -259 518 4 3 36 -20 73 -52 36 -32 96 -77 132 -99z"/>
<path d="M10225 8921 c-86 -21 -155 -108 -155 -197 0 -42 49 -120 91 -143 49 -28 142 -38 192 -22 57 19 112 80 127 139 15 66 2 110 -52 168 -51 55 -122 74 -203 55z m74 -105 c7 -9 11 -42 9 -88 l-3 -73 -25 0 -25 0 -3 73 c-3 69 6 102 28 102 4 0 13 -6 19 -14z"/>
<path d="M10656 8920 c-81 -15 -145 -122 -131 -218 8 -51 61 -117 112 -139 43 -18 125 -17 171 2 85 36 105 89 51 141 l-30 29 -35 -43 c-39 -46 -62 -52 -87 -24 -35 39 -13 162 29 162 8 0 33 -13 56 -30 70 -51 98 -37 98 52 0 68 -13 80 -73 66 -26 -6 -51 -5 -70 2 -33 11 -35 11 -91 0z"/>
<path d="M10970 8922 c-41 -8 -50 -34 -26 -81 21 -40 21 -168 1 -207 -34 -66 -12 -82 102 -78 48 2 138 4 200 3 105 0 112 1 118 21 7 21 -37 98 -89 158 l-20 22 52 51 c53 52 67 91 36 103 -9 3 -53 6 -99 6 -67 0 -84 -3 -89 -16 -6 -15 -8 -15 -25 0 -21 19 -106 28 -161 18z m198 -85 c8 -10 5 -21 -13 -42 -21 -27 -24 -28 -31 -12 -7 20 10 67 25 67 5 0 13 -6 19 -13z m2 -192 c0 -7 -7 -18 -15 -25 -12 -10 -16 -8 -25 15 -12 31 -13 49 -3 59 9 9 43 -30 43 -49z"/>
<path d="M9636 8905 c-3 -9 1 -35 9 -58 8 -23 15 -71 15 -107 0 -36 -7 -84 -15 -107 -8 -23 -12 -49 -9 -57 8 -22 62 -29 135 -19 76 10 89 25 64 76 -16 34 -13 61 6 55 5 -2 26 -32 47 -68 l38 -65 64 1 c95 2 109 33 45 104 -34 38 -38 63 -15 93 39 49 16 118 -50 152 -43 22 -325 22 -334 0z m225 -85 c25 -14 24 -29 -3 -39 -31 -12 -57 11 -38 33 15 19 16 19 41 6z"/>
<path d="M6351 9619 c-101 -7 -145 -14 -175 -29 -41 -19 -277 -266 -284 -296 -6 -25 51 -71 96 -79 53 -9 100 7 176 58 82 55 157 77 266 77 96 0 132 -9 168 -43 49 -45 66 -136 37 -187 -21 -37 -18 -59 15 -96 34 -40 45 -84 37 -164 -6 -65 -2 -71 56 -114 46 -34 67 -73 67 -126 0 -42 14 -62 75 -104 15 -10 34 -34 41 -53 13 -30 13 -42 -1 -95 -20 -79 -13 -86 62 -70 75 16 105 37 272 194 79 73 150 136 159 140 10 4 67 7 127 7 61 1 115 5 121 9 6 4 20 25 31 47 55 110 78 339 49 484 -21 102 -57 179 -89 186 -12 2 -103 6 -202 7 l-180 3 -100 51 c-294 151 -454 205 -605 202 -47 0 -145 -5 -219 -9z"/>
<path d="M6353 9280 c-47 -10 -89 -30 -149 -71 -53 -36 -106 -56 -172 -64 -64 -7 -128 18 -184 72 -46 45 -76 40 -114 -17 -35 -53 -30 -118 13 -161 38 -38 98 -48 318 -51 l170 -3 80 41 c44 23 100 45 124 48 57 9 120 44 127 71 3 12 4 39 2 61 -6 69 -90 98 -215 74z"/>
<path d="M6330 8959 l-103 -52 -178 6 c-201 6 -196 8 -206 -70 -5 -45 -3 -53 26 -86 53 -60 115 -77 294 -80 l152 -2 95 47 c52 26 115 52 139 59 55 16 75 46 75 116 1 49 -2 57 -32 84 -28 26 -40 29 -96 29 -56 0 -74 -6 -166 -51z"/>
<path d="M6520 8697 c-14 -6 -61 -28 -105 -49 l-79 -38 -158 0 c-145 0 -160 -2 -178 -20 -36 -36 -16 -122 36 -157 25 -16 50 -18 209 -18 201 1 212 3 385 87 75 36 92 48 105 79 15 32 15 39 2 72 -9 19 -24 40 -35 46 -27 14 -150 13 -182 -2z"/>
<path d="M6740 8476 c-19 -7 -67 -29 -106 -49 -117 -59 -183 -77 -281 -77 -105 0 -130 -6 -138 -31 -8 -23 18 -63 51 -77 15 -8 82 -12 172 -12 136 0 152 2 207 26 33 15 89 38 124 53 64 26 101 64 101 102 0 19 -64 79 -83 78 -7 0 -28 -6 -47 -13z"/>
<path d="M11222 6594 c-70 -29 -78 -103 -17 -150 42 -32 66 -41 460 -176 176 -60 349 -119 383 -131 35 -12 63 -26 62 -32 -2 -5 -28 -20 -59 -33 -31 -13 -92 -38 -136 -57 -44 -18 -129 -52 -190 -75 -60 -22 -146 -56 -190 -75 -44 -19 -116 -47 -161 -63 -105 -38 -186 -90 -206 -133 -19 -38 -12 -60 27 -85 49 -32 127 -15 425 90 151 54 290 107 308 118 26 16 66 22 210 33 109 8 194 19 221 29 53 20 170 21 214 3 18 -8 49 -33 71 -57 l39 -43 -6 -76 c-5 -60 -3 -79 10 -93 8 -9 18 -37 20 -61 l5 -43 -44 -36 c-25 -20 -57 -40 -72 -44 -32 -8 -45 -32 -25 -45 49 -31 137 20 289 168 69 67 138 126 153 132 16 6 64 11 107 11 98 0 110 10 138 110 39 139 38 307 -3 428 -25 72 -25 72 -140 72 l-103 0 -497 165 c-273 91 -506 165 -518 165 -50 0 -60 -45 -27 -118 16 -35 29 -47 74 -68 31 -14 90 -32 133 -41 l78 -16 99 -95 c128 -122 198 -158 301 -155 39 1 81 4 95 5 19 2 26 -2 28 -18 5 -38 -23 -49 -127 -49 -91 0 -101 2 -166 35 -46 23 -101 65 -166 127 -54 51 -108 94 -121 97 -100 21 -158 37 -333 97 -110 37 -271 92 -358 123 -190 66 -244 78 -285 60z"/>
<path d="M12368 5790 c-29 -16 -65 -21 -180 -25 -228 -10 -272 -30 -247 -114 7 -22 23 -51 36 -63 22 -21 34 -23 126 -23 147 0 329 37 454 91 63 27 78 60 46 102 -39 52 -165 69 -235 32z"/>
<path d="M12480 5561 c-41 -15 -129 -36 -195 -46 -66 -10 -126 -23 -132 -28 -23 -17 -15 -67 16 -98 42 -41 89 -39 204 10 51 21 124 49 162 61 120 38 144 68 86 109 -36 26 -48 25 -141 -8z"/>
<path d="M4290 6011 l-95 -6 -3 -28 c-2 -16 4 -44 12 -62 21 -43 20 -101 -1 -180 -22 -83 -13 -95 68 -95 69 0 102 13 120 47 13 23 11 27 -16 49 -38 30 -26 44 51 53 33 4 69 13 81 19 35 19 53 62 44 103 -21 92 -70 111 -261 100z m109 -105 c9 -10 7 -17 -5 -27 -14 -11 -18 -10 -30 5 -23 32 10 52 35 22z"/>
<path d="M4629 6004 c-7 -8 -8 -35 -4 -77 l7 -64 -41 -80 c-23 -44 -41 -86 -41 -94 0 -29 24 -39 92 -39 79 0 86 8 63 63 -19 46 -13 58 28 53 34 -4 35 -6 23 -49 -5 -18 -4 -38 3 -54 l12 -26 82 8 c45 5 132 7 194 6 l112 -3 6 25 c4 13 0 40 -8 60 -9 19 -13 38 -10 41 3 3 33 8 67 12 80 9 116 44 116 111 0 37 -5 50 -33 78 l-32 32 -100 6 c-178 11 -225 -9 -192 -78 22 -46 23 -163 2 -191 l-15 -19 -25 30 c-39 48 -56 110 -49 181 5 46 3 63 -7 70 -24 15 -237 14 -250 -2z m546 -94 c10 -16 -16 -43 -28 -31 -11 11 -2 41 12 41 5 0 13 -5 16 -10z"/>
<path d="M5450 6010 l-95 -5 -3 -28 c-2 -16 4 -40 13 -53 20 -30 17 -131 -5 -206 -11 -36 -11 -51 -3 -59 13 -13 323 -13 335 -1 6 6 11 68 9 100 -1 18 -92 15 -120 -4 -20 -15 -24 -15 -38 -1 -19 19 -9 37 21 37 51 0 65 63 19 81 -16 5 -35 12 -43 15 -13 5 -12 8 4 19 16 12 24 12 54 0 73 -31 102 -15 102 57 0 63 9 62 -250 48z"/>
<path d="M5744 5995 c-4 -9 -1 -40 6 -68 12 -50 9 -158 -5 -223 -10 -46 9 -55 102 -52 72 3 78 5 81 25 2 12 -4 38 -13 57 -16 34 -13 62 6 50 5 -3 23 -32 39 -64 17 -33 38 -64 48 -69 16 -8 53 -9 105 -2 18 3 6 78 -20 115 -24 36 -25 42 -13 70 24 54 18 112 -13 144 l-27 27 -145 3 c-128 3 -146 1 -151 -13z m196 -81 c11 -12 11 -18 -2 -31 -19 -18 -38 -10 -38 16 0 33 20 40 40 15z"/>
<path d="M9988 2909 c-78 -21 -118 -84 -118 -185 0 -109 50 -168 153 -180 73 -9 99 -1 147 42 49 44 52 74 11 103 -39 28 -46 27 -70 -14 -12 -21 -28 -35 -40 -35 -51 0 -70 107 -27 156 l23 28 33 -28 c25 -21 41 -26 69 -24 l36 3 3 55 c1 30 -2 61 -6 68 -10 15 -170 23 -214 11z"/>
<path d="M10247 2908 c-8 -5 -7 -25 6 -72 21 -79 22 -174 2 -200 -8 -11 -15 -32 -15 -47 0 -24 6 -30 38 -38 57 -17 157 -14 172 4 10 12 16 13 27 3 17 -14 200 -20 225 -6 28 14 68 80 68 112 0 23 -12 41 -50 77 -51 48 -55 63 -12 52 15 -3 27 -1 33 8 12 19 11 96 -1 104 -22 13 -185 13 -212 -1 -78 -40 -75 -159 4 -200 33 -17 30 -33 -5 -27 -19 4 -30 -3 -47 -27 -21 -29 -23 -30 -40 -15 -27 25 -31 108 -8 175 31 91 28 94 -81 100 -51 3 -98 2 -104 -2z m402 -92 c8 -10 9 -16 2 -21 -14 -8 -53 13 -46 26 9 13 31 11 44 -5z m-24 -176 c-9 -15 -41 -12 -55 5 -20 25 -2 37 31 20 16 -9 27 -20 24 -25z"/>
<path d="M10864 2905 c-67 -30 -92 -97 -58 -154 9 -15 41 -40 71 -56 64 -35 81 -51 66 -66 -7 -7 -20 -2 -39 14 -55 45 -72 50 -88 25 -16 -27 -29 -89 -21 -109 4 -11 28 -14 103 -13 133 2 126 0 162 37 29 29 31 36 26 81 -6 55 -25 81 -74 102 -41 17 -33 39 11 30 17 -3 36 -1 43 5 17 14 18 59 2 94 -10 22 -16 25 -37 20 -33 -8 -57 -9 -101 -2 -21 4 -48 1 -66 -8z m100 -84 c20 -22 10 -32 -21 -20 -23 8 -29 20 -16 32 10 11 19 8 37 -12z"/>
<path d="M11260 2911 c-61 -20 -91 -43 -115 -91 -44 -87 -29 -178 39 -238 86 -75 231 -45 284 58 34 68 31 137 -10 191 -18 23 -45 51 -59 62 -30 21 -100 31 -139 18z m71 -118 c5 -15 9 -54 7 -87 -3 -58 -4 -61 -28 -61 l-25 0 -3 67 c-4 94 25 143 49 81z"/>
<path d="M11981 2901 c-93 -49 -77 -166 28 -212 57 -24 78 -43 61 -54 -7 -4 -25 2 -40 13 -48 36 -76 38 -104 8 l-24 -27 -21 27 c-25 32 -27 76 -5 95 21 17 13 82 -13 111 -33 38 -76 48 -200 48 -65 0 -124 -4 -131 -9 -11 -6 -10 -20 2 -75 20 -84 20 -139 0 -195 -8 -25 -13 -55 -9 -68 5 -21 10 -23 78 -23 89 1 113 15 104 62 -4 18 -8 40 -9 48 -7 35 18 18 44 -31 38 -72 53 -82 108 -75 60 8 70 8 180 3 143 -7 180 16 180 112 0 49 -25 81 -95 121 -31 17 -53 36 -50 41 9 14 23 11 54 -12 16 -11 39 -19 52 -17 21 3 24 9 27 49 2 35 -1 49 -18 64 -18 16 -25 17 -51 8 -20 -8 -39 -9 -55 -2 -35 13 -54 11 -93 -10z m-243 -104 c4 -20 -25 -34 -40 -19 -15 15 -1 44 19 40 10 -2 19 -11 21 -21z"/>
<path d="M9574 2876 c-63 -63 -40 -135 60 -191 62 -35 76 -55 38 -55 -10 0 -25 9 -35 20 -20 24 -60 26 -81 4 -17 -16 -19 -42 -7 -84 l7 -24 89 -1 c50 -1 104 4 120 11 39 14 65 54 65 98 0 59 -14 79 -81 115 -78 41 -87 49 -67 56 9 4 31 -3 49 -14 42 -26 65 -26 79 -2 14 27 13 77 -2 88 -7 5 -55 10 -106 11 l-94 2 -34 -34z"/>
<path d="M6810 3810 c-16 -17 -34 -46 -40 -65 -10 -31 -8 -42 14 -90 25 -54 128 -169 204 -226 28 -21 33 -32 41 -89 19 -139 68 -226 172 -306 32 -25 59 -48 59 -51 0 -4 -10 -17 -21 -29 l-22 -23 -41 29 c-46 32 -132 119 -165 168 l-22 32 -543 0 c-299 0 -558 -3 -575 -6 -49 -10 -91 -55 -91 -97 0 -46 18 -94 38 -104 9 -4 193 -10 407 -13 l390 -5 0 -30 0 -30 -456 -5 c-494 -5 -475 -3 -505 -61 -18 -36 -18 -73 1 -109 31 -59 33 -60 499 -61 453 -1 452 -1 444 -49 l-3 -21 -378 -2 -379 -2 -19 -23 c-24 -31 -34 -87 -21 -117 6 -13 29 -33 50 -44 37 -19 61 -20 440 -22 423 -1 429 -2 420 -46 -3 -17 -26 -18 -333 -23 -290 -5 -334 -7 -362 -23 -36 -19 -63 -63 -63 -101 0 -27 42 -73 75 -82 11 -3 315 -3 675 -2 l655 3 95 33 c110 39 239 120 300 190 55 62 75 72 130 66 68 -8 110 18 133 81 26 70 37 201 26 327 -8 100 -31 223 -43 235 -3 3 -45 7 -93 8 -48 2 -113 8 -143 15 -61 14 -79 30 -274 243 -54 60 -135 136 -180 170 -45 34 -158 135 -253 224 -112 107 -180 163 -194 163 -11 0 -34 -14 -49 -30z"/>
</g>
</g>
  <g id="id1:id1" transform="matrix(1.25,0,0,1.25,0.0,0.0)"><g transform="translate(0.000000,468.800000) scale(0.040000,-0.040000)" fill="#006836" stroke="none">
<path d="M8719 10846 c-2 -2 -330 -9 -729 -15 -399 -7 -776 -13 -837 -14 -68 -1 -113 -6 -113 -12 1 -24 20 -36 61 -40 257 -22 755 -205 944 -347 82 -62 241 -219 339 -336 163 -193 417 -569 573 -847 176 -314 430 -820 435 -866 3 -26 -28 -49 -307 -225 -77 -49 -154 -98 -172 -109 -17 -11 -57 -35 -87 -54 -31 -18 -56 -39 -56 -47 0 -8 19 -15 53 -18 102 -11 414 -37 542 -46 72 -6 162 -14 200 -19 39 -6 111 -13 160 -16 116 -8 501 -42 630 -55 55 -6 183 -17 285 -25 102 -8 241 -20 310 -27 69 -7 161 -13 205 -13 l80 0 24 44 c23 42 47 94 180 396 152 344 163 368 213 475 22 47 59 130 83 185 24 55 62 141 85 190 38 80 73 158 195 435 71 161 176 393 201 442 19 37 23 53 15 61 -9 9 -17 8 -33 -2 -12 -7 -53 -30 -92 -50 -70 -37 -114 -61 -419 -233 -95 -54 -166 -88 -179 -86 -22 3 -29 14 -237 373 -48 83 -101 173 -118 200 -32 54 -123 210 -167 287 -80 141 -284 297 -476 361 -170 57 -163 57 -1008 57 -428 0 -781 -2 -783 -4z m1238 -1957 c62 -20 83 -91 42 -135 -27 -29 -20 -60 21 -108 17 -18 30 -39 30 -44 0 -31 -98 -44 -121 -16 -8 9 -25 39 -39 68 -22 44 -29 51 -55 51 -37 0 -44 -24 -19 -71 25 -45 12 -55 -73 -61 -86 -7 -101 5 -78 60 20 47 20 167 0 214 -9 20 -12 40 -8 44 18 18 242 16 300 -2z m422 -3 c38 -20 80 -81 87 -128 8 -49 -24 -118 -72 -154 -34 -26 -45 -29 -113 -29 -97 1 -132 19 -166 85 -14 27 -25 62 -25 77 0 35 31 102 57 125 52 47 165 58 232 24z m371 13 c27 -8 47 -9 68 -1 24 8 33 7 42 -3 14 -16 9 -97 -6 -102 -6 -2 -30 10 -55 27 -80 54 -118 32 -126 -72 -4 -54 -2 -67 17 -90 32 -41 71 -38 109 8 33 41 56 41 67 -1 7 -29 -13 -58 -58 -81 -36 -19 -141 -18 -178 1 -124 64 -114 268 15 313 40 14 61 14 105 1z m350 -4 c8 -10 10 -27 4 -52 -4 -21 -6 -72 -5 -113 2 -41 4 -93 5 -115 l1 -40 -73 -2 c-82 -2 -96 9 -68 52 22 34 22 184 0 227 -15 30 -15 32 2 45 25 18 118 17 134 -2z m238 -13 c2 -7 -20 -35 -49 -63 l-54 -49 15 -24 c8 -14 35 -53 58 -87 39 -55 42 -63 29 -77 -13 -12 -28 -13 -84 -6 l-68 9 -1 35 c-1 53 -2 56 -30 89 l-26 31 36 40 c40 45 43 56 20 81 -27 30 -8 40 74 37 51 -2 77 -7 80 -16z"/>
<path d="M9800 8829 c-14 -25 -6 -65 15 -72 21 -9 74 12 85 32 10 20 3 34 -27 50 -33 17 -61 13 -73 -10z"/>
<path d="M10253 8843 c-20 -7 -35 -79 -28 -131 11 -80 13 -82 55 -82 47 0 50 7 50 110 0 97 -22 126 -77 103z"/>
<path d="M6810 10689 c-205 -22 -430 -129 -561 -265 -50 -52 -175 -249 -276 -434 -16 -30 -49 -86 -73 -125 -45 -74 -137 -230 -179 -305 -14 -25 -45 -77 -69 -115 -41 -66 -162 -272 -331 -562 -41 -71 -146 -248 -233 -394 -87 -146 -158 -270 -158 -276 0 -12 39 -36 185 -113 55 -29 129 -69 165 -90 36 -21 155 -86 265 -145 110 -59 220 -120 245 -135 25 -15 88 -50 140 -77 52 -28 136 -73 185 -100 50 -27 144 -79 210 -115 66 -36 192 -105 280 -153 350 -191 400 -216 418 -202 8 6 45 57 81 112 35 55 78 120 95 145 17 25 108 162 203 305 94 143 196 296 225 340 30 44 100 150 156 235 199 301 667 1007 741 1115 95 139 96 142 16 304 -124 252 -307 479 -520 646 -150 117 -207 153 -360 228 -299 147 -581 205 -850 176z m-50 -1104 c87 -24 372 -146 430 -184 59 -40 84 -44 280 -50 l195 -6 23 -42 c79 -144 64 -527 -25 -625 -13 -15 -33 -18 -119 -18 -56 0 -115 -5 -130 -10 -15 -6 -86 -68 -159 -138 -149 -144 -196 -180 -256 -193 -64 -15 -70 -9 -52 50 15 46 15 53 -1 95 -13 33 -30 55 -62 77 -36 25 -44 35 -44 62 0 48 -43 131 -81 157 -52 35 -59 48 -48 79 19 49 -10 162 -53 208 l-21 22 17 44 c33 88 8 175 -65 224 -82 54 -291 41 -397 -25 -116 -72 -116 -72 -178 -72 -52 0 -64 4 -84 25 l-24 25 25 28 c169 186 227 246 252 258 31 16 189 30 372 33 89 1 128 -4 205 -24z m-250 -333 c19 -11 37 -30 41 -43 15 -57 -31 -102 -120 -117 -33 -6 -91 -27 -130 -47 -87 -45 -136 -51 -331 -36 -161 11 -201 21 -224 56 -30 46 -16 122 29 151 l25 16 39 -35 c48 -44 122 -77 170 -77 57 0 128 26 206 75 114 71 227 93 295 57z m64 -283 c23 -18 26 -28 26 -79 0 -49 -4 -61 -22 -74 -12 -9 -29 -16 -36 -16 -8 0 -68 -25 -134 -56 l-120 -57 -141 7 c-210 11 -274 40 -284 131 -9 75 -7 75 195 69 l177 -6 100 50 c83 42 109 51 156 51 43 1 63 -4 83 -20z m104 -285 c32 -6 53 -58 40 -96 -8 -22 -29 -37 -101 -72 -153 -73 -169 -77 -373 -79 l-183 -2 -26 26 c-30 29 -44 92 -25 114 10 12 42 15 169 15 l157 0 74 36 c41 20 100 45 130 54 50 17 73 17 138 4z m151 -250 c35 -45 12 -70 -122 -131 l-114 -53 -160 0 -160 0 -23 25 c-36 38 -16 49 92 50 105 2 155 16 313 89 116 53 145 57 174 20z"/>
<path d="M12448 7850 c-15 -4 -42 -19 -60 -32 -18 -14 -100 -64 -183 -113 -82 -48 -177 -105 -210 -125 -100 -63 -327 -201 -447 -273 -62 -37 -140 -84 -173 -104 -33 -20 -96 -58 -140 -84 -44 -26 -111 -67 -150 -91 -38 -25 -101 -63 -140 -85 -38 -23 -110 -65 -158 -94 -48 -30 -152 -92 -230 -139 -99 -60 -143 -92 -145 -106 -2 -12 36 -80 95 -171 271 -417 330 -508 348 -542 11 -21 47 -78 79 -127 73 -109 252 -384 312 -479 25 -38 67 -104 93 -145 27 -41 96 -149 154 -240 58 -91 139 -217 181 -280 101 -156 253 -391 304 -471 67 -105 63 -103 184 -90 57 7 164 28 238 47 389 102 665 260 900 515 180 196 294 352 366 502 64 134 77 198 71 337 -7 164 -41 252 -230 590 -39 69 -86 154 -105 190 -45 84 -294 530 -435 780 -61 107 -134 238 -162 290 -28 52 -95 173 -149 268 -54 96 -110 197 -124 225 -28 54 -40 61 -84 47z m-1133 -1274 c33 -8 132 -39 220 -70 353 -125 514 -178 595 -197 l85 -20 75 -74 c85 -83 178 -146 252 -171 39 -13 70 -15 131 -11 98 8 127 24 127 72 0 42 -20 50 -85 34 -110 -28 -212 15 -345 146 -77 75 -103 95 -140 104 -139 35 -170 44 -198 61 -58 36 -84 131 -36 138 11 2 245 -72 519 -163 l499 -165 97 0 c67 0 100 -4 107 -13 21 -25 43 -132 49 -232 5 -83 2 -115 -17 -190 -32 -133 -31 -131 -142 -137 -52 -3 -105 -11 -118 -18 -14 -7 -79 -65 -145 -130 -118 -116 -207 -181 -220 -161 -3 6 16 26 44 46 67 48 77 81 44 153 -11 26 -16 58 -14 108 3 66 1 73 -31 114 -48 64 -87 83 -178 88 -61 3 -92 0 -141 -16 -47 -16 -108 -24 -225 -30 -142 -8 -167 -12 -200 -32 -22 -12 -82 -37 -134 -56 -87 -30 -315 -110 -419 -148 -24 -9 -69 -16 -101 -16 -47 0 -60 4 -79 24 -26 28 -21 44 26 87 36 34 86 59 195 98 48 16 101 37 118 46 16 8 65 28 107 44 113 42 244 94 353 139 53 22 110 43 128 46 17 4 34 11 37 16 11 18 -38 48 -118 72 -98 31 -668 226 -749 257 -59 23 -108 68 -108 101 0 17 53 70 68 70 4 -1 34 -7 67 -14z m1225 -802 c53 -22 69 -49 42 -76 -29 -30 -173 -76 -305 -99 -220 -38 -292 -27 -315 47 -23 76 7 90 227 98 128 5 159 9 185 25 39 24 112 26 166 5z m70 -224 c22 -17 23 -21 10 -34 -8 -8 -55 -28 -105 -44 -49 -17 -122 -44 -162 -61 -40 -17 -87 -31 -106 -31 -47 0 -89 34 -85 69 l3 26 130 22 c72 12 162 33 200 47 85 30 84 30 115 6z"/>
<path d="M5615 7129 c-148 -4 -382 -12 -520 -18 -137 -6 -446 -16 -685 -22 -704 -18 -833 -23 -837 -35 -7 -21 114 -110 447 -330 96 -64 179 -119 184 -124 5 -5 -4 -25 -21 -47 -191 -249 -341 -589 -388 -878 -17 -102 -19 -291 -5 -412 27 -236 137 -455 320 -634 183 -179 445 -307 770 -376 117 -25 142 -26 380 -26 140 0 350 3 465 6 116 3 234 6 263 7 28 0 52 4 52 10 0 5 -30 29 -67 53 -87 56 -164 139 -188 199 -13 36 -16 66 -13 121 5 79 31 137 120 263 50 72 278 342 358 426 l55 58 135 -61 c74 -33 196 -90 270 -126 74 -36 158 -74 185 -85 28 -11 54 -24 60 -29 5 -5 17 -9 27 -9 22 0 23 25 2 65 -9 17 -75 145 -147 285 -72 140 -159 309 -194 375 -35 66 -109 210 -165 320 -55 110 -104 205 -108 210 -9 13 -158 302 -300 583 -62 122 -121 227 -131 232 -10 6 -26 9 -36 8 -10 0 -139 -5 -288 -9z m-1165 -1140 c60 -13 80 -37 80 -95 0 -57 -28 -79 -112 -88 -74 -7 -97 -24 -80 -58 7 -13 18 -31 24 -41 21 -29 -11 -45 -85 -43 l-62 2 2 30 c1 16 8 57 14 92 11 51 10 71 0 105 -7 23 -13 53 -14 67 -2 23 2 25 58 31 101 10 122 9 175 -2z m406 0 c17 -14 18 -43 3 -67 -9 -14 -7 -32 11 -83 13 -35 31 -76 42 -92 11 -15 18 -37 16 -50 -3 -20 -9 -22 -76 -25 -81 -3 -96 8 -68 51 19 28 13 53 -16 68 -15 8 -17 14 -9 22 17 17 13 63 -9 88 -17 21 -21 22 -30 9 -13 -21 -13 -83 2 -98 8 -8 5 -14 -16 -21 -35 -14 -42 -36 -23 -76 9 -18 13 -36 10 -39 -13 -12 -114 -6 -119 7 -3 8 14 51 37 97 39 79 41 87 35 145 -3 34 -4 64 -1 66 10 11 198 9 211 -2z m414 -14 c34 -17 45 -49 36 -99 -9 -48 -34 -66 -97 -68 -30 -1 -62 -5 -71 -10 -22 -11 -23 -41 -2 -73 29 -44 13 -56 -68 -53 l-73 3 3 35 c14 188 14 198 -3 224 -36 54 -4 67 152 60 57 -2 104 -9 123 -19z m405 -20 l0 -40 -30 2 c-16 1 -48 5 -71 9 -70 10 -91 -48 -24 -70 43 -13 46 -39 6 -46 -66 -12 -59 -77 8 -72 20 1 53 3 74 5 l37 2 0 -35 0 -35 -139 -5 c-170 -6 -176 -3 -152 65 21 63 21 163 0 193 -29 41 -16 56 56 63 36 3 103 5 150 5 l85 -1 0 -40z m363 21 c40 -21 52 -72 28 -122 -22 -47 -20 -61 9 -96 22 -26 33 -76 20 -90 -3 -2 -24 -2 -47 1 -40 6 -45 9 -78 71 -29 53 -40 65 -60 65 -32 0 -38 -29 -15 -72 29 -52 16 -64 -62 -61 l-68 3 3 25 c12 114 13 195 2 234 -7 25 -9 49 -6 55 11 17 236 6 274 -13z"/>
<path d="M4335 5920 c-7 -22 18 -70 36 -70 20 0 59 33 59 50 0 18 -38 40 -70 40 -10 0 -22 -9 -25 -20z"/>
<path d="M5132 5938 c-17 -17 -15 -63 3 -78 12 -10 21 -10 40 -2 32 15 33 55 3 76 -27 19 -31 19 -46 4z"/>
<path d="M5888 5925 c-13 -29 2 -75 25 -75 19 0 67 38 67 53 0 12 -53 47 -71 47 -5 0 -15 -11 -21 -25z"/>
<path d="M13598 4777 c-83 -114 -262 -299 -388 -399 -299 -237 -604 -371 -945 -414 -153 -19 -1850 -21 -1862 -1 -4 6 -8 26 -9 42 -14 613 -20 705 -44 705 -5 0 -19 -17 -30 -37 -11 -21 -43 -74 -72 -118 -28 -44 -106 -165 -173 -270 -67 -104 -189 -294 -271 -422 -82 -128 -166 -259 -187 -293 -32 -53 -174 -273 -391 -610 -37 -58 -79 -120 -92 -139 -13 -19 -24 -45 -24 -58 0 -28 40 -111 84 -173 18 -25 46 -70 63 -100 30 -55 65 -112 148 -240 24 -36 53 -85 65 -110 12 -24 37 -65 54 -91 17 -26 51 -82 76 -124 25 -42 92 -152 150 -245 58 -93 146 -237 195 -320 50 -83 113 -186 140 -229 28 -44 62 -101 77 -127 15 -27 52 -87 82 -134 30 -47 69 -109 86 -138 17 -29 36 -52 43 -49 9 3 12 105 14 418 l2 414 23 12 c18 10 171 13 646 13 l623 0 77 32 c108 45 233 133 334 235 87 88 242 292 280 367 11 23 26 48 33 56 21 25 143 249 188 345 23 50 100 207 170 350 128 257 394 805 457 940 18 39 97 204 176 368 79 164 144 300 144 303 0 5 53 121 101 219 37 76 48 115 32 115 -5 -1 -38 -42 -75 -93z m-3858 -1891 c14 0 32 2 40 5 20 5 26 -53 7 -69 -10 -9 -22 -7 -50 8 -39 21 -64 25 -85 12 -22 -15 -1 -42 52 -69 95 -48 106 -59 106 -109 0 -37 -6 -51 -28 -74 l-28 -28 -90 4 c-77 3 -90 6 -98 23 -20 46 19 74 60 42 28 -22 78 -28 89 -11 12 19 -6 48 -36 60 -61 26 -108 68 -114 104 -9 47 1 74 38 96 24 15 41 18 72 13 22 -4 51 -7 65 -7z m445 -41 c0 -43 -3 -50 -20 -53 -12 -2 -31 8 -45 23 -32 34 -62 32 -95 -7 -24 -29 -27 -38 -23 -92 4 -49 9 -63 32 -83 36 -30 43 -29 82 12 36 39 46 42 64 20 10 -12 10 -21 2 -40 -37 -81 -191 -88 -262 -11 -21 23 -25 39 -28 100 -4 78 7 114 48 151 18 16 41 21 118 26 136 8 127 11 127 -46z m229 42 l19 -14 -22 -61 c-23 -68 -21 -134 6 -188 27 -53 14 -65 -68 -62 -86 4 -104 19 -76 67 22 37 23 133 2 192 -9 24 -13 49 -11 56 3 7 29 13 63 16 32 2 61 4 64 5 3 1 13 -4 23 -11z m576 -1 c14 0 32 2 40 5 11 3 16 -5 18 -29 4 -41 -17 -51 -64 -28 -43 20 -73 21 -80 1 -9 -22 11 -41 72 -71 68 -33 94 -65 94 -114 0 -30 -6 -44 -30 -63 -28 -24 -35 -25 -127 -22 l-98 4 -3 23 c-2 13 4 32 12 43 13 18 17 19 38 6 59 -37 78 -43 93 -31 30 25 17 49 -46 87 -91 57 -90 56 -96 98 -4 35 -1 44 24 67 33 31 57 38 98 30 17 -3 41 -6 55 -6z m395 -4 c17 -10 43 -37 59 -60 25 -37 28 -48 24 -102 -5 -64 -22 -97 -72 -134 -21 -17 -42 -21 -96 -21 -63 0 -72 3 -101 30 -62 59 -75 135 -36 215 38 78 151 115 222 72z m720 4 c17 0 36 2 44 5 9 2 20 -8 29 -25 12 -25 12 -30 -1 -43 -13 -14 -19 -13 -54 7 -84 47 -128 1 -46 -49 91 -56 113 -79 113 -121 0 -84 -27 -99 -158 -92 -101 5 -114 13 -94 58 14 30 47 31 82 4 30 -24 53 -25 70 -5 19 23 7 38 -51 69 -30 16 -62 36 -71 44 -23 20 -33 77 -19 108 14 31 68 56 101 47 14 -4 39 -7 55 -7z m-1377 -30 c5 -43 -10 -51 -56 -27 -45 23 -69 26 -92 11 -12 -7 -11 -13 10 -35 13 -14 44 -36 68 -48 54 -26 92 -70 92 -104 0 -15 -13 -38 -33 -58 l-34 -34 -87 4 c-48 3 -91 7 -96 10 -15 9 -12 49 5 71 l15 19 20 -24 c27 -31 102 -37 108 -8 3 16 -32 56 -51 57 -4 0 -25 11 -46 25 -62 42 -77 95 -40 146 l21 30 96 -3 97 -3 3 -29z m1086 20 c20 -8 37 -25 46 -45 11 -29 10 -37 -10 -80 l-22 -48 27 -51 c35 -66 31 -86 -18 -90 -33 -3 -39 0 -55 28 -48 89 -73 121 -90 118 -23 -4 -27 -33 -12 -79 18 -55 4 -69 -72 -69 -69 0 -78 11 -54 70 20 50 20 130 1 194 -8 26 -12 52 -9 57 9 15 230 11 268 -5z"/>
<path d="M11277 2814 c-22 -31 -24 -43 -20 -102 3 -37 10 -73 16 -79 16 -22 55 -15 73 12 31 48 3 205 -37 205 -5 0 -19 -16 -32 -36z"/>
<path d="M11688 2829 c-23 -13 -24 -65 -2 -73 51 -20 88 17 59 60 -17 26 -30 29 -57 13z"/>
<path d="M3880 4585 c0 -8 13 -36 28 -62 15 -26 48 -86 71 -133 24 -47 144 -274 266 -505 122 -231 268 -510 325 -620 57 -110 111 -212 122 -227 10 -14 18 -28 18 -31 0 -6 309 -597 377 -722 126 -228 243 -387 402 -545 129 -128 202 -174 309 -197 35 -7 67 -11 71 -8 4 2 588 7 1297 10 709 3 1304 8 1322 11 l32 5 0 1258 c0 1189 -1 1259 -17 1267 -10 5 -803 9 -1763 10 l-1745 1 -136 27 c-242 47 -419 104 -589 192 -122 63 -187 108 -289 202 -49 45 -92 82 -95 82 -3 0 -6 -7 -6 -15z m3162 -921 c90 -86 197 -183 238 -214 78 -60 198 -179 314 -312 91 -103 142 -125 310 -130 l80 -3 12 -46 c20 -79 37 -277 30 -347 -9 -91 -34 -177 -58 -199 -16 -14 -34 -17 -86 -15 l-66 3 -56 -59 c-98 -103 -184 -159 -325 -213 l-60 -23 -670 -3 -670 -3 -32 20 c-25 15 -33 27 -33 49 0 41 37 80 85 91 22 5 178 10 346 10 345 0 340 -1 323 68 l-9 37 -422 5 -422 5 -28 21 c-23 18 -28 29 -27 65 1 31 7 47 24 61 22 18 45 19 393 18 299 -2 371 1 378 12 14 22 10 57 -9 76 -18 18 -40 19 -358 17 -186 -1 -384 1 -438 5 -91 6 -101 9 -123 34 -31 36 -30 86 1 123 l24 28 459 2 c252 2 462 3 466 3 4 0 7 24 5 53 l-3 52 -402 5 c-304 4 -405 8 -415 18 -7 6 -12 35 -13 64 0 48 3 54 34 75 l34 23 553 0 553 0 30 -44 c33 -47 147 -155 188 -177 22 -12 27 -10 60 23 l36 37 -39 33 c-21 18 -67 60 -100 93 -53 51 -65 70 -83 129 -12 37 -21 80 -21 95 0 54 -20 99 -53 120 -54 33 -176 166 -198 215 -12 29 -18 55 -13 69 11 37 54 87 74 87 12 0 86 -64 182 -156z"/>
</g>
</g>
</svg>
