<?xml version="1.0" standalone="no"?>
<!DOCTYPE svg PUBLIC "-//W3C//DTD SVG 1.1//EN"
 "http://www.w3.org/Graphics/SVG/1.1/DTD/svg11.dtd">
<!-- Created with svg_stack (http://github.com/astraw/svg_stack) -->
<svg xmlns:sodipodi="http://sodipodi.sourceforge.net/DTD/sodipodi-0.dtd" xmlns="http://www.w3.org/2000/svg" version="1.1" width="1121.0" height="702.0">
  <defs/>
  <g id="id0:id0" transform="matrix(1.25,0,0,1.25,0.0,0.0)"><g transform="translate(0.000000,561.600000) scale(0.040000,-0.040000)" fill="#005ea0" stroke="none">
<path d="M11991 13981 c-8 -5 -42 -12 -75 -16 -34 -3 -70 -10 -81 -14 -47 -19 -92 -33 -125 -41 -19 -4 -48 -14 -63 -23 -47 -25 -277 -224 -277 -239 0 -19 -52 -76 -79 -88 -49 -20 -289 3 -334 33 -12 8 -52 41 -89 73 -132 116 -200 169 -256 200 -31 18 -84 47 -117 66 l-60 33 -190 0 c-238 0 -293 -14 -432 -112 -17 -13 -35 -23 -40 -23 -5 0 -43 -35 -85 -77 -73 -75 -101 -110 -185 -233 -58 -86 -105 -139 -141 -162 -30 -18 -33 -25 -28 -52 4 -17 20 -44 36 -61 l30 -31 -31 -30 c-17 -16 -41 -45 -54 -64 -13 -19 -72 -87 -132 -150 -82 -86 -119 -134 -146 -188 -21 -40 -37 -81 -37 -90 0 -10 -31 -49 -70 -87 -38 -38 -70 -76 -70 -85 0 -8 -155 -168 -345 -356 -365 -360 -362 -356 -333 -419 l11 -25 114 0 c115 0 134 -5 181 -44 29 -26 28 -37 -9 -72 -32 -29 -109 -177 -109 -208 0 -9 4 -24 9 -34 8 -15 15 -42 41 -142 5 -19 16 -60 26 -90 9 -30 22 -80 28 -110 7 -30 16 -64 20 -75 4 -11 13 -32 18 -48 13 -34 70 -84 105 -93 14 -4 81 -4 147 0 l122 6 39 -40 c31 -32 39 -48 41 -81 1 -24 11 -54 23 -70 27 -37 27 -45 -6 -84 -16 -19 -48 -61 -73 -94 -25 -34 -56 -76 -70 -94 -52 -66 -54 -77 -26 -141 14 -32 26 -68 26 -80 0 -12 4 -26 8 -31 15 -17 34 -97 25 -105 -4 -4 -29 -13 -54 -20 -26 -6 -67 -28 -93 -48 -64 -52 -116 -84 -151 -93 -16 -4 -68 -17 -115 -29 -47 -12 -93 -26 -102 -31 -10 -5 -25 -9 -33 -9 -27 0 -105 -80 -105 -107 0 -13 -5 -33 -11 -45 -21 -39 9 -106 82 -183 63 -67 82 -98 151 -255 47 -106 48 -103 -36 -181 -80 -75 -75 -62 -96 -224 -10 -77 -15 -107 -30 -175 -5 -25 -14 -72 -20 -105 -6 -33 -16 -73 -21 -90 -16 -47 -21 -261 -10 -365 6 -52 15 -140 21 -195 6 -55 15 -108 20 -117 6 -10 10 -33 10 -51 0 -39 10 -73 52 -177 16 -41 37 -93 45 -115 32 -86 77 -163 164 -280 16 -22 33 -49 38 -59 10 -25 117 -149 197 -230 118 -118 276 -244 380 -302 38 -21 76 -43 86 -49 9 -5 72 -41 140 -78 68 -38 148 -83 178 -102 54 -33 188 -101 282 -143 l47 -21 6 -48 c3 -26 10 -62 15 -79 6 -17 10 -49 10 -72 0 -53 31 -89 120 -136 36 -19 85 -46 110 -59 65 -36 342 -127 383 -127 20 0 38 -4 41 -9 3 -5 36 -12 73 -16 38 -4 75 -11 84 -16 28 -14 245 -31 404 -31 135 0 336 18 375 34 8 4 36 9 61 13 25 3 77 17 115 30 38 14 77 25 86 25 9 0 29 6 45 14 15 8 48 22 73 31 25 9 59 23 75 30 17 8 59 23 94 35 80 25 106 42 131 83 22 35 27 125 10 157 -14 26 23 51 225 149 210 102 743 367 771 384 11 7 43 31 71 55 28 23 56 42 62 42 9 0 145 125 346 319 36 34 105 125 105 138 0 5 10 19 23 31 38 36 106 197 192 455 30 92 58 189 62 214 3 26 13 68 22 93 14 39 15 86 10 335 -4 213 -9 296 -18 314 -10 18 -14 70 -13 185 0 89 -4 175 -9 191 -11 37 -59 68 -114 75 -29 4 -39 9 -36 20 2 8 6 26 9 39 6 31 61 110 130 190 32 36 75 92 95 123 l37 56 0 107 0 106 -30 28 c-17 15 -59 40 -93 56 -182 82 -398 194 -439 229 -60 50 -61 70 -8 177 22 44 40 88 40 97 -1 9 -48 67 -105 127 -87 92 -107 119 -123 167 -27 82 -24 86 147 225 l35 28 125 0 126 0 32 65 c50 102 91 203 98 244 4 20 11 39 16 42 5 3 9 91 9 195 0 165 3 198 21 255 25 78 45 92 100 74 34 -12 43 -11 72 5 18 9 39 31 46 47 11 25 11 32 -3 47 -9 10 -16 21 -16 25 0 4 -68 79 -152 166 -83 88 -156 167 -162 177 -5 10 -46 59 -90 110 -99 113 -136 158 -157 193 -9 14 -40 53 -70 85 -30 33 -58 67 -64 76 -5 9 -25 35 -42 59 -25 33 -30 46 -23 60 17 32 11 90 -12 122 -13 17 -78 87 -144 157 -148 153 -160 183 -120 281 4 11 -14 38 -56 82 -35 37 -91 100 -126 140 -139 162 -277 311 -355 384 -93 87 -186 137 -289 155 -82 15 -349 22 -367 10z"/>
<path d="M5805 4796 c-299 -51 -497 -147 -675 -328 -183 -186 -284 -422 -297 -697 -10 -214 27 -367 137 -576 79 -148 136 -216 255 -303 256 -186 461 -257 785 -269 361 -13 559 41 840 232 106 71 120 78 176 83 48 3 67 1 88 -14 l28 -18 33 18 c19 10 36 25 39 32 7 18 -290 464 -309 464 -19 0 -75 -28 -76 -38 0 -4 -2 -25 -3 -47 -4 -55 -67 -109 -198 -172 -192 -93 -297 -118 -503 -117 -214 0 -357 36 -518 127 -104 60 -183 180 -223 337 -26 103 -26 327 1 420 23 83 78 193 123 248 68 83 247 166 421 196 248 42 481 7 711 -109 141 -71 190 -120 190 -192 0 -21 8 -32 31 -45 17 -10 36 -18 43 -18 7 0 82 104 167 231 l154 231 -30 24 c-35 28 -53 30 -92 7 l-29 -16 -179 97 c-205 110 -350 170 -480 198 -118 26 -488 34 -610 14z"/>
<path d="M13965 4794 c-191 -29 -379 -100 -563 -211 l-93 -57 -52 11 c-48 10 -54 9 -84 -14 -18 -14 -33 -28 -33 -32 0 -6 47 -65 258 -326 58 -71 107 -132 108 -133 5 -8 41 9 62 28 18 17 20 27 15 73 -5 50 -3 55 27 86 61 60 220 127 373 156 90 17 273 20 362 5 80 -13 178 -62 212 -106 31 -41 42 -122 24 -177 -19 -57 -88 -112 -173 -139 -62 -19 -95 -23 -223 -23 -170 0 -193 7 -220 71 l-14 35 -53 -3 -53 -3 -3 -274 c-2 -193 1 -278 9 -287 16 -20 85 -18 101 2 59 74 70 81 153 87 92 8 270 -7 339 -27 138 -42 210 -139 192 -261 -15 -98 -86 -160 -236 -206 -66 -21 -94 -23 -240 -23 -147 1 -179 4 -296 32 -279 65 -431 164 -428 279 1 39 -2 42 -38 59 -29 13 -44 15 -56 7 -19 -11 -251 -546 -252 -579 0 -13 10 -25 25 -32 37 -17 63 -15 92 8 40 31 79 24 228 -41 274 -119 438 -153 740 -153 232 0 327 12 476 63 276 93 432 242 490 469 44 172 12 344 -85 465 -30 38 -133 111 -191 136 l-30 13 30 21 c60 41 142 134 168 189 67 142 51 367 -35 492 -125 181 -296 280 -558 322 -107 18 -356 17 -475 -2z"/>
<path d="M8120 4727 c0 -51 2 -55 38 -78 70 -46 80 -18 -352 -939 -213 -454 -400 -841 -415 -860 -15 -19 -53 -48 -84 -63 l-57 -28 0 -48 c0 -35 4 -51 16 -55 20 -8 698 -8 718 0 12 4 16 20 16 55 l0 50 -44 19 c-24 10 -47 27 -50 38 -8 24 18 91 92 242 l57 115 434 3 c312 1 438 -1 447 -9 15 -12 141 -267 154 -312 13 -40 3 -56 -46 -78 l-44 -18 0 -50 c0 -35 4 -51 16 -55 24 -9 787 -7 802 3 9 5 12 25 10 57 l-3 49 -43 14 c-23 7 -55 26 -71 41 -28 29 -834 1635 -868 1731 -21 57 -14 76 36 98 34 16 44 39 39 92 l-3 34 -397 3 -398 2 0 -53z m531 -878 c75 -167 135 -307 132 -311 -6 -11 -561 -10 -567 0 -3 5 54 136 125 293 72 156 135 294 140 307 5 13 14 22 21 20 6 -2 73 -141 149 -309z"/>
<path d="M9936 4764 c-8 -22 -7 -77 2 -90 4 -5 22 -16 40 -23 18 -8 37 -22 42 -32 6 -11 10 -356 10 -904 0 -548 -4 -893 -10 -904 -5 -10 -24 -24 -42 -32 -18 -7 -36 -18 -40 -23 -12 -17 -9 -81 4 -94 9 -9 99 -12 344 -12 183 0 339 3 348 6 12 4 16 20 16 55 l0 48 -44 20 c-37 16 -46 25 -51 53 -3 18 -4 173 -3 343 l3 310 245 3 245 2 214 -296 c206 -286 258 -371 247 -399 -2 -7 -18 -16 -35 -20 l-31 -7 0 -53 c0 -39 4 -54 16 -59 20 -8 758 -8 778 0 12 4 16 20 16 55 0 53 -6 59 -74 74 -15 3 -48 25 -72 48 -57 55 -515 670 -505 679 4 4 42 17 85 28 96 24 184 67 256 124 179 142 241 422 156 698 -59 191 -206 321 -428 377 -135 35 -289 41 -1019 41 -635 0 -707 -2 -713 -16z m1539 -418 c60 -22 111 -67 126 -115 7 -19 12 -65 11 -102 0 -111 -52 -180 -156 -211 -30 -9 -158 -13 -471 -13 l-430 0 -3 220 c-1 121 0 226 3 233 4 11 79 13 438 10 383 -4 438 -6 482 -22z"/>
<path d="M16100 4727 c0 -51 2 -55 38 -78 42 -27 51 -61 31 -113 -41 -105 -776 -1657 -798 -1686 -15 -19 -52 -47 -84 -63 l-57 -28 0 -48 c0 -35 4 -51 16 -55 20 -8 698 -8 718 0 12 4 16 20 16 55 l0 49 -47 22 c-33 16 -49 30 -51 45 -3 20 125 309 150 341 16 18 871 18 887 -1 15 -19 142 -277 152 -310 12 -40 2 -57 -47 -78 l-44 -18 0 -50 c0 -35 4 -51 16 -55 9 -3 190 -6 403 -6 288 0 390 3 399 12 13 13 16 66 6 92 -3 9 -23 20 -45 26 -21 6 -52 25 -69 42 -35 34 -852 1670 -873 1745 -9 37 -9 45 7 62 10 11 28 23 40 27 11 4 24 12 28 18 12 18 9 81 -4 94 -9 9 -112 12 -400 12 l-388 0 0 -53z m531 -878 c75 -167 135 -307 132 -311 -6 -11 -561 -10 -567 1 -3 4 53 136 125 292 72 156 135 294 140 307 5 13 14 22 21 20 6 -2 73 -141 149 -309z"/>
</g>
</g>
</svg>
