<?xml version="1.0" standalone="no"?>
<!DOCTYPE svg PUBLIC "-//W3C//DTD SVG 1.1//EN"
 "http://www.w3.org/Graphics/SVG/1.1/DTD/svg11.dtd">
<!-- Created with svg_stack (http://github.com/astraw/svg_stack) -->
<svg xmlns:sodipodi="http://sodipodi.sourceforge.net/DTD/sodipodi-0.dtd" xmlns="http://www.w3.org/2000/svg" version="1.1" width="743.0" height="626.0">
  <defs/>
  <g id="id0:id0" transform="matrix(1.25,0,0,1.25,0.0,0.0)"><g transform="translate(0.000000,500.800000) scale(0.040000,-0.040000)" fill="#ffffff" stroke="none">
<path d="M12791 12185 c-23 -13 -57 -37 -75 -54 -18 -17 -36 -31 -42 -31 -5 0 -68 -58 -139 -130 -71 -71 -134 -130 -140 -130 -6 0 -75 -65 -155 -145 -80 -80 -149 -145 -155 -145 -6 0 -73 -63 -150 -140 -77 -77 -144 -140 -150 -140 -6 0 -78 -67 -160 -150 -82 -82 -154 -150 -160 -150 -6 0 -80 -70 -165 -155 -85 -85 -159 -155 -165 -155 -6 0 -75 -65 -155 -145 -80 -80 -149 -145 -155 -145 -6 0 -78 -67 -160 -150 -82 -82 -154 -150 -160 -150 -6 0 -73 -63 -150 -140 -77 -77 -144 -140 -150 -140 -6 0 -78 -67 -160 -150 -82 -82 -154 -150 -160 -150 -6 0 -80 -70 -165 -155 -85 -85 -159 -155 -165 -155 -6 0 -75 -65 -155 -145 -80 -80 -149 -145 -155 -145 -6 0 -73 -63 -150 -140 -77 -77 -144 -140 -150 -140 -6 0 -78 -67 -160 -150 -82 -82 -154 -150 -160 -150 -6 0 -80 -70 -165 -155 -85 -85 -159 -155 -165 -155 -6 0 -75 -65 -155 -145 -80 -80 -149 -145 -155 -145 -6 0 -73 -63 -150 -140 -77 -77 -145 -140 -150 -140 -6 0 -29 -18 -50 -41 l-40 -41 93 -89 c51 -49 98 -89 105 -89 7 0 31 18 52 40 21 22 44 40 50 40 6 0 60 50 120 110 60 61 114 110 120 110 6 0 60 50 120 110 60 61 114 110 120 110 6 0 66 56 135 125 69 69 129 125 135 125 6 0 57 47 115 105 58 58 109 105 115 105 6 0 64 54 130 120 66 66 124 120 130 120 6 0 60 50 120 110 60 61 114 110 120 110 6 0 60 50 120 110 60 61 114 110 120 110 6 0 66 56 135 125 69 69 129 125 135 125 6 0 57 47 115 105 58 58 109 105 115 105 6 0 64 54 130 120 66 66 124 120 130 120 6 0 60 50 120 110 60 61 114 110 120 110 6 0 64 54 130 120 66 66 124 120 130 120 6 0 62 52 125 115 63 63 119 115 125 115 6 0 57 47 115 105 58 58 109 105 115 105 6 0 64 54 130 120 66 66 124 120 130 120 6 0 60 50 120 110 60 61 114 110 120 110 6 0 64 54 130 120 66 66 124 120 130 120 6 0 62 52 125 115 63 63 119 115 125 115 6 0 57 47 115 105 58 58 109 105 115 105 6 0 66 56 135 125 69 69 129 125 135 125 19 0 124 114 130 142 4 15 13 32 21 39 17 14 18 52 2 82 -21 36 -81 97 -112 113 -38 19 -62 17 -115 -11z"/>
<path d="M7080 6855 c-13 -14 -28 -25 -34 -25 -6 0 -81 -70 -166 -155 -85 -85 -159 -155 -165 -155 -6 0 -75 -65 -155 -145 -80 -80 -149 -145 -155 -145 -16 0 -195 -184 -195 -200 0 -22 176 -194 189 -186 6 4 11 12 11 19 0 14 231 247 245 247 6 0 60 50 120 110 60 61 114 110 120 110 6 0 60 50 120 110 60 61 114 110 120 110 10 0 155 140 155 151 0 7 -167 172 -179 177 -4 1 -18 -9 -31 -23z"/>
<path d="M8400 6592 c0 -14 89 -96 97 -89 4 4 -13 28 -37 52 -42 43 -60 54 -60 37z"/>
<path d="M5772 6366 c-10 -12 -17 -29 -15 -38 6 -24 19 -23 26 2 6 24 29 34 61 26 13 -3 61 -40 105 -82 45 -42 85 -74 88 -70 8 8 -117 136 -133 136 -6 0 -19 9 -28 19 -26 28 -82 32 -104 7z"/>
<path d="M9032 6365 c-39 -21 -202 -169 -202 -184 0 -3 -68 -76 -150 -161 -83 -85 -184 -190 -226 -232 -41 -43 -76 -78 -78 -78 -12 0 -143 -146 -172 -191 -39 -61 -42 -79 -15 -103 27 -25 129 -31 153 -9 15 14 20 13 49 -1 18 -9 46 -16 63 -16 27 0 50 -19 161 -130 71 -71 135 -130 141 -130 7 0 36 19 64 41 l52 41 73 -72 72 -72 30 15 c16 9 35 23 42 31 8 9 19 16 27 16 7 0 50 -35 96 -78 46 -42 104 -94 131 -115 26 -21 47 -46 47 -56 0 -9 -22 -39 -50 -66 -27 -27 -50 -56 -50 -65 0 -8 47 -63 105 -120 l106 -105 -6 -33 c-4 -20 -1 -39 6 -48 15 -19 83 -18 99 1 7 8 17 15 23 15 5 0 32 20 58 45 26 25 53 45 60 45 6 0 75 -62 153 -138 77 -75 167 -159 199 -186 31 -27 57 -54 57 -62 0 -7 -12 -28 -27 -46 -41 -49 -53 -74 -53 -111 0 -44 51 -94 100 -99 l35 -3 3 -45 c4 -59 33 -90 82 -90 52 0 80 -23 80 -66 0 -47 52 -98 91 -90 33 6 49 -10 49 -49 0 -40 49 -95 84 -95 20 0 29 -8 41 -36 8 -20 15 -46 15 -58 0 -35 42 -68 81 -64 28 3 33 -1 40 -25 4 -16 13 -35 19 -42 7 -8 9 -18 6 -23 -11 -19 22 -45 65 -51 38 -5 44 -9 47 -33 2 -14 10 -32 18 -38 8 -7 14 -18 14 -25 0 -23 35 -44 80 -47 l45 -3 6 -40 c10 -75 39 -104 114 -114 37 -6 40 -8 43 -41 4 -38 36 -80 62 -80 9 0 31 -7 48 -16 28 -14 32 -20 32 -57 0 -33 8 -50 40 -88 22 -26 40 -51 40 -55 0 -5 -14 -23 -32 -41 l-32 -33 334 -336 c487 -487 704 -694 731 -694 15 0 53 -29 109 -82 48 -46 178 -168 290 -273 429 -401 484 -459 450 -480 -6 -3 -10 -16 -10 -29 0 -12 -5 -27 -12 -34 -9 -9 22 -47 142 -170 85 -86 163 -161 173 -166 11 -6 26 -5 43 2 46 22 110 15 146 -15 61 -52 98 -74 111 -67 17 10 164 109 212 144 22 16 67 56 100 89 l59 61 -53 54 c-39 40 -52 59 -47 72 6 15 17 8 67 -42 l60 -59 52 57 c86 95 127 145 127 155 0 5 9 18 20 28 11 10 20 24 20 30 0 7 6 18 14 24 8 7 26 35 41 62 29 57 27 67 -36 136 l-39 43 0 89 0 90 -61 53 c-34 29 -102 90 -151 136 -98 90 -128 104 -158 77 -10 -9 -24 -14 -30 -10 -6 4 -18 1 -26 -6 -13 -11 -75 47 -426 398 l-410 410 18 29 c10 16 42 55 72 88 30 33 52 66 50 75 -4 26 -1018 1011 -1039 1011 -8 0 -64 -50 -126 -112 l-113 -112 -42 41 c-39 38 -49 42 -98 45 -51 3 -55 5 -58 30 -2 14 -10 32 -18 38 -8 7 -14 18 -14 25 0 21 -34 43 -70 47 -32 3 -35 6 -40 38 -3 19 -13 46 -22 61 -21 29 -85 60 -119 57 -21 -3 -23 0 -20 36 2 32 -3 44 -30 72 -24 25 -42 34 -64 34 -39 0 -62 24 -67 69 -3 39 -42 67 -100 73 -30 3 -33 6 -36 38 -4 44 -37 80 -72 80 -43 0 -90 28 -90 54 0 29 -39 66 -71 66 -35 0 -69 27 -69 55 0 13 -5 27 -11 30 -5 4 -14 18 -19 31 -8 20 -17 24 -48 24 -53 0 -82 23 -82 65 0 19 -5 37 -11 40 -5 4 -14 18 -19 30 -8 21 -17 24 -67 27 l-58 3 -5 41 c-8 55 -49 94 -100 94 -24 0 -43 -7 -55 -20 -10 -11 -23 -20 -30 -20 -7 0 -20 -9 -30 -20 -10 -11 -25 -20 -34 -20 -19 0 -391 369 -391 388 0 7 21 40 48 75 81 107 86 121 48 156 -20 18 -31 22 -56 16 l-33 -7 -108 108 -108 107 -27 -18 c-15 -10 -47 -36 -71 -58 l-44 -40 -55 54 c-31 30 -87 89 -126 132 l-71 78 14 27 c7 15 22 38 34 51 l20 23 -78 72 c-42 39 -77 76 -77 82 0 6 7 18 16 25 25 21 65 89 59 99 -3 5 -64 62 -135 125 -114 102 -130 120 -130 147 0 19 -9 41 -21 55 -18 18 -20 25 -9 38 7 8 10 21 7 29 -3 8 1 20 9 26 8 7 14 29 14 49 0 29 -7 44 -33 69 -18 18 -35 32 -37 31 -3 -1 -24 -11 -48 -24z m18 -127 c0 -16 -9 -43 -20 -59 l-21 -28 21 -21 c11 -11 20 -24 20 -28 0 -4 -30 -33 -68 -65 -37 -32 -80 -73 -95 -92 -15 -19 -33 -35 -40 -35 -13 0 -177 -160 -177 -173 0 -4 -26 -34 -57 -65 -32 -32 -76 -81 -98 -110 l-39 -52 -46 0 c-26 0 -65 -9 -88 -20 -39 -19 -62 -20 -62 -2 0 4 124 133 275 287 151 154 275 283 275 288 0 13 204 215 213 210 4 -2 7 -18 7 -35z m65 -248 c10 -11 22 -20 27 -20 14 0 168 -157 168 -171 0 -7 -124 -136 -276 -287 l-276 -275 -67 67 c-36 36 -71 66 -76 66 -11 0 -85 71 -85 82 0 11 140 186 174 217 14 14 26 29 26 35 0 13 111 126 123 126 5 0 39 26 75 58 94 82 145 121 158 122 6 0 19 -9 29 -20z m196 -396 c7 -9 23 -20 36 -25 49 -18 30 -48 -134 -217 -117 -120 -164 -162 -182 -162 -14 0 -39 16 -61 38 l-38 38 29 34 c16 19 29 39 29 43 0 12 229 239 254 254 30 16 52 15 67 -3z m120 -284 c43 -45 79 -84 79 -88 0 -4 20 -28 45 -52 25 -24 45 -49 45 -55 -1 -16 -126 -145 -142 -145 -13 0 -74 47 -138 107 -19 18 -40 33 -45 33 -12 0 -85 84 -85 97 0 5 27 35 60 68 33 33 60 64 60 69 0 10 30 46 38 46 2 0 40 -36 83 -80z m493 -238 c58 -57 106 -107 106 -112 0 -5 -97 -107 -215 -226 -154 -154 -220 -214 -231 -210 -13 5 -14 9 -3 22 10 13 4 23 -42 70 -29 29 -58 54 -64 54 -6 0 -28 18 -50 40 l-39 40 100 100 c54 55 100 106 102 113 4 15 215 217 224 214 3 -1 54 -48 112 -105z m235 -492 l182 -190 -19 -27 c-11 -16 -40 -47 -64 -71 -41 -39 -46 -42 -69 -30 -13 7 -73 61 -134 121 -60 59 -115 107 -121 107 -6 0 -36 29 -67 64 l-56 63 30 29 c16 15 29 33 29 40 0 15 76 84 93 84 7 0 95 -85 196 -190z m2296 -1410 c66 -66 123 -120 128 -120 4 0 146 -138 315 -306 169 -168 317 -310 330 -315 27 -11 28 -21 2 -44 l-21 -19 -42 42 c-24 23 -46 42 -50 42 -4 0 -98 90 -209 200 -112 110 -206 200 -210 200 -5 0 -99 90 -210 200 l-202 199 19 21 c10 11 21 20 24 20 3 0 60 -54 126 -120z m-54 -130 c83 -80 156 -147 161 -149 6 -2 101 -93 211 -202 111 -110 206 -199 213 -199 7 0 49 -40 94 -90 l82 -90 -50 -62 c-28 -35 -61 -73 -74 -85 l-24 -23 -54 55 c-30 30 -58 55 -62 55 -4 0 -63 54 -130 120 -67 66 -125 120 -129 120 -4 0 -59 49 -121 110 -62 60 -116 110 -121 110 -4 0 -57 50 -119 110 -61 61 -117 110 -124 110 -7 0 -29 20 -50 45 l-37 46 29 32 c81 91 130 137 141 135 7 -2 81 -68 164 -148z m-361 -95 c7 -8 16 -15 21 -15 5 0 59 -49 121 -110 61 -60 115 -110 120 -110 4 0 63 -54 130 -120 68 -66 126 -120 131 -120 4 0 57 -49 119 -110 61 -60 115 -110 120 -110 13 0 168 -156 168 -169 0 -12 -120 -151 -130 -151 -5 0 -42 32 -83 70 -41 39 -78 70 -81 70 -3 0 -61 54 -128 120 -67 66 -126 120 -130 120 -5 0 -59 50 -120 110 -62 61 -116 110 -120 110 -5 0 -58 50 -120 110 -61 61 -117 110 -124 110 -14 0 -64 56 -64 72 0 13 131 137 146 138 6 0 17 -7 24 -15z m-128 -315 c68 -66 127 -120 131 -120 4 0 72 -63 150 -140 78 -77 145 -140 149 -140 4 0 67 -58 140 -130 72 -71 137 -130 143 -130 6 0 37 -29 69 -65 l58 -65 -33 -38 c-18 -20 -53 -58 -77 -84 -25 -26 -50 -57 -56 -69 -6 -12 -20 -27 -31 -33 -11 -6 -40 -28 -64 -49 l-45 -38 -311 311 c-170 170 -315 310 -320 310 -6 0 -80 70 -165 155 l-154 155 47 48 c26 26 47 52 47 57 -1 11 180 184 193 185 4 0 62 -54 129 -120z m2049 -1270 c40 -38 75 -70 79 -70 4 0 18 8 31 18 13 11 39 22 57 25 l32 7 125 -125 125 -124 0 -77 0 -78 42 -49 41 -49 -13 -37 c-7 -20 -26 -52 -41 -71 -16 -19 -29 -40 -29 -47 0 -20 -102 -113 -124 -113 -11 0 -38 21 -62 47 -39 45 -43 47 -66 34 -14 -7 -49 -40 -78 -72 -42 -49 -50 -62 -40 -74 7 -8 18 -15 24 -15 7 0 29 -21 50 -46 41 -49 41 -66 0 -88 -10 -6 -38 -28 -61 -49 -24 -20 -48 -37 -54 -37 -6 0 -31 -14 -56 -30 -49 -34 -56 -33 -126 23 l-38 30 -81 -5 -82 -5 -104 104 -105 104 1 88 0 88 -59 59 c-32 32 -59 65 -59 73 0 15 133 151 147 151 4 0 22 15 41 33 l34 32 76 -83 77 -82 37 6 c48 8 74 35 59 62 -5 10 -7 28 -4 40 4 16 -9 35 -59 85 -68 67 -85 99 -62 118 8 6 14 16 14 22 0 6 17 27 38 46 20 20 68 73 105 119 38 45 75 82 83 82 8 0 46 -31 85 -70z"/>
<path d="M6230 6345 c-18 -19 -30 -38 -27 -42 8 -7 77 55 77 69 0 16 -17 7 -50 -27z"/>
<path d="M8660 6352 c0 -14 129 -136 137 -129 4 4 -22 37 -57 72 -61 61 -80 75 -80 57z"/>
<path d="M5834 6248 c9 -74 9 -99 1 -131 -6 -23 -3 -31 16 -45 13 -9 61 -49 106 -89 45 -40 86 -73 90 -73 12 0 163 -154 163 -166 0 -6 10 -19 21 -30 12 -10 49 -53 82 -94 94 -116 114 -133 153 -125 25 4 46 -1 83 -20 56 -28 81 -24 81 11 0 19 -66 90 -270 294 -148 148 -270 273 -270 277 0 17 -229 243 -245 243 -15 0 -16 -7 -11 -52z"/>
<path d="M5758 6260 c-3 -17 1 -35 9 -43 11 -10 11 -20 2 -46 -6 -17 -8 -35 -4 -39 10 -11 45 41 38 58 -3 8 -11 34 -17 58 -12 49 -22 54 -28 12z"/>
<path d="M7900 6131 c0 -13 29 -35 37 -28 7 8 -15 37 -28 37 -5 0 -9 -4 -9 -9z"/>
<path d="M5650 5985 c-52 -52 -91 -98 -87 -102 8 -7 197 175 197 189 0 19 -21 2 -110 -87z"/>
<path d="M5740 5983 c-23 -27 -48 -50 -55 -53 -17 -6 -125 -109 -125 -118 0 -12 572 -583 581 -580 22 8 229 223 229 239 0 21 -108 158 -139 177 -12 7 -21 18 -21 25 0 16 -181 197 -197 197 -7 0 -20 11 -28 24 -23 35 -159 136 -183 136 -12 0 -38 -20 -62 -47z"/>
<path d="M8080 5972 c0 -14 129 -136 137 -129 4 4 -22 37 -57 72 -61 61 -80 75 -80 57z"/>
<path d="M5486 5821 c-4 -7 -5 -15 -2 -18 9 -9 19 4 14 18 -4 11 -6 11 -12 0z"/>
<path d="M5520 5758 c0 -6 10 -22 22 -35 l22 -24 -72 -72 c-74 -75 -84 -95 -56 -118 9 -7 20 -24 26 -38 8 -23 0 -33 -87 -121 -80 -80 -110 -120 -91 -120 11 0 192 195 199 215 7 19 2 32 -19 60 l-27 36 71 72 c40 40 72 79 72 87 -1 15 -44 70 -55 70 -3 0 -5 -5 -5 -12z"/>
<path d="M6562 5651 c4 -11 87 -101 93 -101 16 0 -1 30 -37 67 -39 40 -64 55 -56 34z"/>
<path d="M5556 5594 c-31 -31 -56 -60 -56 -63 0 -14 349 -361 363 -361 19 0 108 100 105 117 -6 23 -152 184 -237 261 -130 117 -112 112 -175 46z"/>
<path d="M6680 5510 c0 -5 5 -10 10 -10 6 0 10 5 10 10 0 6 -4 10 -10 10 -5 0 -10 -4 -10 -10z"/>
<path d="M6697 5473 c-10 -9 -8 -43 2 -43 5 0 14 7 21 15 17 21 -4 48 -23 28z"/>
<path d="M6516 5443 c-3 -3 -3 -10 0 -14 7 -12 44 -12 44 0 0 10 -36 21 -44 14z"/>
<path d="M6475 5430 c-3 -5 -21 -10 -38 -10 -28 0 -50 -17 -162 -130 -71 -71 -135 -130 -142 -130 -7 0 -13 -4 -13 -10 0 -32 50 5 165 120 108 109 134 130 156 128 26 -2 59 16 59 33 0 12 -17 11 -25 -1z"/>
<path d="M6580 5410 c0 -5 23 -10 50 -10 28 0 50 5 50 10 0 6 -22 10 -50 10 -27 0 -50 -4 -50 -10z"/>
<path d="M5478 5356 c-27 -29 -48 -58 -48 -64 0 -6 -13 -20 -29 -31 -16 -12 -52 -48 -81 -81 l-52 -60 78 -83 c42 -45 83 -82 90 -82 17 0 294 237 294 252 0 6 -27 35 -60 64 -33 29 -60 57 -60 64 0 14 -62 75 -75 74 -6 -1 -31 -25 -57 -53z"/>
<path d="M5110 5256 c0 -10 96 -96 108 -96 19 0 15 6 -35 54 -41 39 -73 57 -73 42z"/>
<path d="M6010 5235 c0 -10 55 -54 68 -55 18 0 15 9 -15 35 -26 23 -53 33 -53 20z"/>
<path d="M4975 5110 c-54 -54 -108 -100 -119 -102 -10 -2 -21 -8 -23 -15 -4 -12 218 -247 379 -402 92 -87 118 -97 118 -43 0 23 18 46 90 116 50 49 90 94 90 100 0 6 -34 42 -76 80 -42 38 -79 77 -82 86 -8 21 -258 280 -269 280 -5 0 -53 -45 -108 -100z"/>
<path d="M5915 5150 l-50 -50 -35 29 c-19 17 -42 30 -50 30 -23 0 -93 -66 -85 -79 5 -8 20 1 46 26 l39 38 22 -20 c60 -51 66 -51 124 7 51 51 64 69 46 69 -4 0 -30 -23 -57 -50z"/>
<path d="M4893 5128 l-52 -52 -21 19 -20 18 -20 -18 c-12 -11 -20 -31 -20 -50 0 -48 40 -119 57 -102 3 3 -5 20 -17 36 -13 19 -20 42 -18 58 3 25 7 28 39 26 31 -2 43 5 94 57 33 33 53 60 45 60 -9 0 -39 -23 -67 -52z"/>
<path d="M5588 5004 c-62 -59 -65 -64 -45 -64 13 0 117 100 117 113 0 16 -18 4 -72 -49z"/>
<path d="M5485 4910 c-3 -5 -1 -10 4 -10 6 0 11 5 11 10 0 6 -2 10 -4 10 -3 0 -8 -4 -11 -10z"/>
<path d="M4840 4901 c0 -8 8 -23 17 -33 l17 -19 -199 -199 c-110 -110 -196 -203 -192 -207 4 -4 101 86 215 200 l207 207 -33 32 c-19 19 -32 27 -32 19z"/>
<path d="M5500 4854 c0 -4 19 -27 41 -51 l41 -45 -113 -114 c-62 -62 -110 -117 -106 -121 10 -9 237 217 237 236 0 9 -19 35 -42 58 -39 40 -58 52 -58 37z"/>
<path d="M4753 4631 c-90 -92 -163 -171 -163 -176 0 -5 -12 -22 -27 -38 l-28 -29 72 -69 c40 -38 80 -69 90 -69 9 0 47 32 84 70 38 39 71 70 75 70 9 0 192 172 214 202 17 23 18 30 6 53 -19 35 -135 155 -149 154 -7 -1 -85 -77 -174 -168z"/>
<path d="M5115 4550 c-33 -35 -14 -42 22 -8 l23 22 53 -50 c64 -61 88 -74 130 -74 42 0 78 33 58 53 -10 9 -16 7 -28 -10 -26 -39 -61 -29 -137 37 -38 33 -75 60 -81 60 -6 0 -24 -13 -40 -30z"/>
<path d="M4267 4522 c-24 -25 -36 -52 -22 -52 2 0 15 11 29 25 14 14 32 25 41 25 9 0 43 -18 76 -41 33 -22 63 -38 66 -35 8 8 -17 36 -32 36 -7 0 -18 7 -25 15 -11 13 -89 55 -103 55 -2 0 -15 -13 -30 -28z"/>
<path d="M4868 4323 c-65 -64 -118 -118 -118 -120 0 -1 6 -3 13 -3 13 0 237 220 237 233 0 18 -23 -1 -132 -110z"/>
<path d="M4214 4409 c-4 -7 -22 -9 -44 -6 -36 5 -60 -6 -60 -25 0 -11 101 2 118 15 6 5 12 13 12 18 0 13 -18 11 -26 -2z"/>
<path d="M4080 4330 c0 -16 5 -30 10 -30 6 0 10 14 10 30 0 17 -4 30 -10 30 -5 0 -10 -13 -10 -30z"/>
<path d="M4060 4265 c0 -8 5 -15 10 -15 6 0 10 7 10 15 0 8 -4 15 -10 15 -5 0 -10 -7 -10 -15z"/>
<path d="M3960 4230 c0 -5 18 -10 40 -10 22 0 40 5 40 10 0 6 -18 10 -40 10 -22 0 -40 -4 -40 -10z"/>
<path d="M3920 4170 c0 -16 5 -30 10 -30 6 0 10 14 10 30 0 17 -4 30 -10 30 -5 0 -10 -13 -10 -30z"/>
<path d="M4720 4175 c0 -8 5 -15 10 -15 6 0 10 7 10 15 0 8 -4 15 -10 15 -5 0 -10 -7 -10 -15z"/>
<path d="M4752 4120 c13 -20 28 -27 28 -12 0 10 -22 32 -32 32 -5 0 -3 -9 4 -20z"/>
<path d="M3900 4109 c0 -5 5 -7 10 -4 6 3 10 8 10 11 0 2 -4 4 -10 4 -5 0 -10 -5 -10 -11z"/>
<path d="M3798 4086 c-19 -14 -24 -36 -9 -36 5 0 11 7 15 15 3 9 19 15 41 15 19 0 35 5 35 10 0 15 -62 12 -82 -4z"/>
<path d="M4790 4061 c5 -11 10 -36 10 -56 0 -22 4 -34 10 -30 14 9 13 78 -2 93 -19 19 -30 14 -18 -7z"/>
<path d="M3755 3989 c-4 -6 -26 -9 -49 -7 -31 2 -41 -1 -41 -12 0 -11 9 -14 35 -12 38 3 80 21 80 34 0 12 -18 10 -25 -3z"/>
<path d="M4760 3950 c0 -5 5 -10 10 -10 6 0 10 5 10 10 0 6 -4 10 -10 10 -5 0 -10 -4 -10 -10z"/>
<path d="M4673 3928 c-6 -7 -13 -33 -16 -58 -6 -50 -26 -70 -69 -70 -39 0 -35 -17 5 -23 26 -4 38 1 63 25 28 26 31 35 27 68 -3 22 -1 40 6 44 13 8 15 26 2 26 -5 0 -13 -6 -18 -12z"/>
<path d="M3602 3918 c-11 -15 -4 -78 9 -78 5 0 9 6 9 14 0 7 3 28 6 45 7 32 -5 41 -24 19z"/>
<path d="M3475 3824 c-17 -26 -20 -94 -5 -94 6 0 10 15 10 33 0 39 15 57 47 57 34 0 28 17 -7 22 -23 4 -33 -1 -45 -18z"/>
<path d="M4512 3768 c-5 -7 -12 -29 -14 -48 -2 -26 1 -35 12 -35 11 0 14 9 12 32 -2 17 1 34 7 38 13 8 14 25 2 25 -5 0 -13 -6 -19 -12z"/>
<path d="M3420 3710 c0 -5 7 -10 15 -10 8 0 15 5 15 10 0 6 -7 10 -15 10 -8 0 -15 -4 -15 -10z"/>
<path d="M3332 3688 c-15 -15 -16 -58 -2 -58 6 0 10 6 10 14 0 7 7 19 15 26 8 7 15 16 15 21 0 13 -24 11 -38 -3z"/>
<path d="M4470 3650 c0 -5 7 -10 15 -10 8 0 15 5 15 10 0 6 -7 10 -15 10 -8 0 -15 -4 -15 -10z"/>
<path d="M4395 3630 c-3 -5 1 -10 9 -10 8 0 18 5 21 10 3 6 -1 10 -9 10 -8 0 -18 -4 -21 -10z"/>
<path d="M4360 3595 c0 -8 5 -15 10 -15 6 0 10 7 10 15 0 8 -4 15 -10 15 -5 0 -10 -7 -10 -15z"/>
<path d="M3300 3570 c0 -5 5 -10 10 -10 6 0 10 5 10 10 0 6 -4 10 -10 10 -5 0 -10 -4 -10 -10z"/>
<path d="M3185 3540 c-25 -26 -34 -70 -15 -70 6 0 10 8 10 18 0 26 32 52 63 52 37 0 34 17 -3 22 -22 3 -36 -2 -55 -22z"/>
<path d="M4330 3515 c-7 -8 -25 -15 -40 -15 -15 0 -33 -7 -40 -15 -16 -19 -5 -34 12 -17 7 7 23 12 38 12 28 1 60 21 60 39 0 16 -15 14 -30 -4z"/>
<path d="M2560 3412 c0 -4 53 -61 119 -126 l119 -118 38 36 c22 20 33 36 25 36 -8 0 -25 -10 -38 -22 l-24 -22 -112 112 c-106 105 -127 123 -127 104z"/>
<path d="M3140 3410 c0 -5 5 -10 10 -10 6 0 10 5 10 10 0 6 -4 10 -10 10 -5 0 -10 -4 -10 -10z"/>
<path d="M4220 3392 c0 -29 -33 -52 -73 -52 -20 0 -37 -4 -37 -10 0 -18 71 -11 101 11 28 20 42 69 19 69 -5 0 -10 -8 -10 -18z"/>
<path d="M3060 3390 c0 -5 5 -10 10 -10 6 0 10 5 10 10 0 6 -4 10 -10 10 -5 0 -10 -4 -10 -10z"/>
<path d="M3020 3330 c0 -16 5 -30 10 -30 6 0 10 14 10 30 0 17 -4 30 -10 30 -5 0 -10 -13 -10 -30z"/>
<path d="M2320 3080 c-124 -126 -229 -229 -233 -230 -17 0 -447 -425 -447 -441 0 -8 10 -25 23 -37 l23 -22 173 170 c95 93 175 170 179 170 4 0 98 89 208 199 111 109 206 200 212 202 17 6 162 150 162 161 0 15 -48 58 -63 57 -7 0 -113 -104 -237 -229z"/>
<path d="M2900 3270 c0 -5 16 -10 35 -10 19 0 35 5 35 10 0 6 -16 10 -35 10 -19 0 -35 -4 -35 -10z"/>
<path d="M3000 3270 c0 -5 5 -10 10 -10 6 0 10 5 10 10 0 6 -4 10 -10 10 -5 0 -10 -4 -10 -10z"/>
<path d="M2180 3055 c-112 -112 -201 -207 -197 -211 4 -4 103 88 219 204 117 117 206 212 198 212 -8 0 -107 -92 -220 -205z"/>
<path d="M4075 3228 c-8 -17 -20 -24 -50 -26 -46 -4 -65 -17 -65 -43 0 -25 16 -24 23 1 4 15 14 20 41 20 48 0 86 24 79 50 -7 26 -16 25 -28 -2z"/>
<path d="M2635 3190 c-10 -11 -23 -20 -29 -20 -7 0 -103 -90 -214 -200 -111 -110 -205 -200 -210 -200 -4 0 -94 -85 -200 -190 -106 -104 -196 -190 -201 -190 -4 0 -22 -15 -40 -34 -38 -39 -43 -27 58 -149 35 -42 67 -77 72 -77 11 0 204 179 240 223 17 20 36 37 43 37 7 0 63 50 124 110 62 61 116 110 120 110 4 0 63 54 130 120 67 66 125 120 128 120 14 0 184 166 184 180 0 17 -159 180 -176 180 -6 0 -19 -9 -29 -20z"/>
<path d="M3940 3095 c0 -8 5 -15 10 -15 6 0 10 7 10 15 0 8 -4 15 -10 15 -5 0 -10 -7 -10 -15z"/>
<path d="M3840 3050 c0 -5 18 -10 40 -10 22 0 40 5 40 10 0 6 -18 10 -40 10 -22 0 -40 -4 -40 -10z"/>
<path d="M3800 2990 c0 -16 5 -30 10 -30 6 0 10 14 10 30 0 17 -4 30 -10 30 -5 0 -10 -13 -10 -30z"/>
<path d="M2818 2940 c-24 -27 -48 -50 -53 -50 -6 0 -66 -54 -133 -120 -67 -66 -126 -120 -130 -120 -4 0 -58 -50 -121 -110 -62 -61 -116 -110 -120 -110 -4 0 -61 -53 -128 -119 -66 -65 -125 -120 -131 -122 -21 -8 -102 -90 -102 -104 0 -8 3 -15 8 -15 4 0 34 -34 67 -75 33 -41 67 -74 76 -75 9 0 24 11 33 25 9 14 22 25 29 25 7 0 68 54 135 120 67 66 126 120 130 120 4 0 58 50 121 110 62 61 116 110 120 110 4 0 62 54 129 120 67 66 125 120 128 120 11 0 164 145 164 156 0 15 -151 164 -166 164 -7 0 -32 -22 -56 -50z"/>
<path d="M3770 2925 c-7 -9 -10 -18 -7 -22 8 -7 37 15 37 28 0 14 -16 11 -30 -6z"/>
<path d="M3670 2890 c0 -5 7 -10 15 -10 8 0 15 5 15 10 0 6 -7 10 -15 10 -8 0 -15 -4 -15 -10z"/>
<path d="M3636 2838 c-8 -39 -23 -58 -47 -58 -11 0 -19 -4 -19 -10 0 -20 47 -9 72 18 20 20 25 34 21 55 -7 36 -19 34 -27 -5z"/>
<path d="M3082 2739 c-13 -16 -29 -29 -35 -29 -7 0 -72 -58 -145 -130 -73 -71 -136 -130 -140 -130 -4 0 -72 -63 -150 -140 -79 -77 -146 -140 -151 -140 -4 0 -67 -58 -139 -130 -73 -71 -137 -130 -141 -130 -13 0 -51 -46 -51 -62 0 -18 308 -330 321 -326 12 4 949 941 949 949 0 3 -10 14 -21 25 -12 10 -24 26 -28 36 -9 24 -220 238 -234 237 -7 0 -22 -13 -35 -30z"/>
<path d="M3507 2753 c-4 -3 -7 -31 -7 -61 0 -51 -3 -58 -46 -104 l-46 -49 39 -44 c21 -24 41 -44 46 -44 16 -2 5 23 -24 56 l-31 35 29 32 c41 46 53 71 53 115 0 22 5 43 10 46 6 3 10 10 10 16 0 10 -23 12 -33 2z"/>
<path d="M1671 2566 c-84 -85 -151 -158 -148 -163 5 -8 327 302 327 314 0 20 -51 -23 -179 -151z"/>
<path d="M2925 1920 c-268 -268 -467 -460 -478 -460 -10 0 -15 -4 -12 -10 3 -5 14 -10 23 -10 16 0 942 917 942 933 0 4 -3 7 -8 7 -4 0 -214 -207 -467 -460z"/>
<path d="M1560 2359 c0 -19 67 -85 77 -75 4 3 -12 26 -35 49 -26 26 -42 36 -42 26z"/>
<path d="M1655 2228 c-8 -28 -804 -828 -824 -828 -8 0 -22 7 -30 14 -11 10 -21 12 -31 5 -13 -8 -13 -10 0 -19 8 -5 30 -13 49 -16 l33 -7 419 419 c231 231 418 425 417 433 -5 24 -26 23 -33 -1z"/>
<path d="M992 1430 c-7 -11 -18 -20 -25 -20 -7 0 -31 -18 -52 -40 -44 -45 -48 -46 -116 -24 l-51 17 -56 -55 c-31 -31 -62 -57 -69 -59 -6 -2 -43 -35 -82 -72 l-71 -69 0 -76 0 -77 -40 -50 c-46 -58 -48 -71 -19 -128 39 -76 167 -227 192 -227 7 0 35 23 62 50 27 28 54 50 60 50 6 0 33 -25 60 -56 42 -49 47 -59 39 -82 -5 -15 -18 -31 -30 -37 -32 -16 -74 -52 -74 -63 0 -17 141 -132 186 -153 23 -10 47 -26 54 -34 20 -24 67 -18 108 15 34 27 44 29 132 32 86 3 95 5 105 25 6 12 55 64 108 116 l97 94 0 50 c0 27 -5 54 -12 61 -17 17 5 52 74 118 32 30 58 59 58 64 0 11 -161 172 -207 207 l-32 24 -77 -80 c-59 -62 -83 -81 -104 -81 -35 0 -60 28 -60 67 0 44 19 74 83 133 31 29 57 60 57 69 0 18 -181 238 -233 283 -38 33 -48 34 -65 8z"/>
<path d="M690 1405 c-18 -19 -31 -37 -29 -40 7 -6 79 54 79 66 0 17 -16 9 -50 -26z"/>
<path d="M2258 1313 c-71 -69 -128 -128 -128 -130 0 -2 6 -3 13 -3 13 0 257 240 257 253 0 18 -23 -1 -142 -120z"/>
<path d="M545 1280 c-38 -38 -66 -73 -62 -76 4 -4 37 22 74 57 75 70 78 75 65 83 -5 3 -39 -26 -77 -64z"/>
<path d="M1922 999 c-71 -68 -130 -127 -131 -131 0 -5 5 -8 12 -8 16 0 263 247 255 256 -4 3 -65 -49 -136 -117z"/>
<path d="M400 1032 c0 -49 -4 -62 -25 -82 -14 -13 -23 -26 -20 -29 3 -2 -9 -19 -26 -37 -27 -28 -30 -36 -19 -49 17 -21 33 -19 25 4 -4 12 9 35 40 73 43 52 45 58 45 117 0 34 -4 61 -10 61 -6 0 -10 -26 -10 -58z"/>
<path d="M340 797 c0 -11 33 -67 45 -77 8 -7 15 -18 15 -25 0 -6 9 -20 20 -30 11 -10 20 -23 20 -30 0 -15 48 -60 56 -53 3 3 -10 26 -28 50 -18 24 -51 71 -73 106 -33 52 -55 75 -55 59z"/>
<path d="M1636 730 c-60 -58 -76 -78 -76 -101 0 -16 5 -29 10 -29 6 0 10 10 10 22 0 15 26 49 72 95 40 40 69 75 66 79 -4 3 -40 -27 -82 -66z"/>
<path d="M715 570 c-3 -5 1 -10 9 -10 9 0 16 5 16 10 0 6 -4 10 -9 10 -6 0 -13 -4 -16 -10z"/>
<path d="M1580 560 c0 -11 5 -20 10 -20 6 0 10 9 10 20 0 11 -4 20 -10 20 -5 0 -10 -9 -10 -20z"/>
<path d="M520 538 c0 -17 61 -78 78 -78 20 0 12 13 -34 54 -27 23 -44 33 -44 24z"/>
<path d="M740 510 c0 -5 5 -10 10 -10 6 0 10 5 10 10 0 6 -4 10 -10 10 -5 0 -10 -4 -10 -10z"/>
<path d="M1520 455 c-35 -35 -61 -68 -57 -72 8 -7 137 115 137 129 0 18 -19 4 -80 -57z"/>
<path d="M640 417 c0 -17 105 -120 119 -116 8 3 -103 129 -115 129 -2 0 -4 -6 -4 -13z"/>
<path d="M1338 258 c-32 -35 -33 -38 -15 -38 17 0 69 54 60 63 -10 11 -16 8 -45 -25z"/>
<path d="M800 272 c0 -12 44 -52 57 -52 5 0 18 -9 28 -20 10 -11 24 -20 30 -20 7 0 18 -7 25 -15 7 -9 28 -22 46 -31 31 -15 35 -15 62 5 16 11 35 27 42 37 8 9 24 20 37 25 23 9 32 29 12 29 -6 0 -35 -20 -63 -45 -29 -25 -56 -45 -60 -45 -10 0 -184 118 -191 130 -7 12 -25 13 -25 2z"/>
</g>
</g>
  <g id="id1:id1" transform="matrix(1.25,0,0,1.25,0.0,0.0)"><g transform="translate(0.000000,500.800000) scale(0.040000,-0.040000)" fill="#eceaea" stroke="none">
<path d="M2023 12338 c-2 -5 -2 -11 0 -15 7 -11 177 -4 177 7 0 11 -170 18 -177 8z"/>
<path d="M12745 12340 c-3 -5 -19 -10 -34 -10 -35 0 -80 -22 -111 -55 -13 -14 -28 -25 -34 -25 -6 0 -74 -63 -151 -140 -77 -77 -144 -140 -150 -140 -6 0 -73 -63 -150 -140 -77 -77 -144 -140 -150 -140 -6 0 -73 -63 -150 -140 -77 -77 -144 -140 -150 -140 -6 0 -73 -63 -150 -140 -77 -77 -144 -140 -150 -140 -6 0 -73 -63 -150 -140 -77 -77 -144 -140 -150 -140 -6 0 -73 -63 -150 -140 -77 -77 -144 -140 -150 -140 -6 0 -71 -61 -145 -135 -74 -74 -139 -135 -145 -135 -6 0 -73 -63 -150 -140 -77 -77 -144 -140 -150 -140 -6 0 -73 -63 -150 -140 -77 -77 -144 -140 -150 -140 -6 0 -73 -63 -150 -140 -77 -77 -144 -140 -150 -140 -6 0 -73 -63 -150 -140 -77 -77 -144 -140 -150 -140 -6 0 -71 -61 -145 -135 -74 -74 -139 -135 -145 -135 -6 0 -73 -63 -150 -140 -77 -77 -144 -140 -150 -140 -6 0 -73 -63 -150 -140 -77 -77 -144 -140 -150 -140 -6 0 -73 -63 -150 -140 -77 -77 -144 -140 -150 -140 -6 0 -73 -63 -150 -140 -77 -77 -144 -140 -150 -140 -6 0 -73 -63 -150 -140 -77 -77 -145 -140 -151 -140 -6 0 -18 -7 -25 -16 -12 -15 -6 -24 56 -80 38 -35 74 -64 80 -64 6 0 24 14 40 30 16 17 34 30 40 30 5 0 73 63 150 140 77 77 144 140 150 140 6 0 78 68 160 150 82 83 155 150 161 150 6 0 77 68 159 150 82 83 154 150 160 150 5 0 78 68 160 150 82 83 154 150 160 150 6 0 73 63 150 140 77 77 144 140 150 140 6 0 78 68 160 150 82 83 155 150 161 150 6 0 77 68 159 150 82 83 154 150 160 150 5 0 78 68 160 150 82 83 154 150 160 150 6 0 73 63 150 140 77 77 144 140 150 140 6 0 78 68 160 150 82 83 154 150 160 150 6 0 78 68 160 150 82 83 155 150 161 150 6 0 77 68 159 150 82 83 154 150 160 150 5 0 78 68 160 150 82 83 154 150 160 150 6 0 73 63 150 140 77 77 144 140 150 140 6 0 78 68 160 150 82 83 155 150 161 150 6 0 69 59 139 130 71 72 135 130 143 130 8 0 23 11 33 24 24 30 114 76 149 76 90 0 177 -116 141 -188 -5 -9 -15 -30 -22 -47 -15 -35 -98 -125 -115 -125 -6 0 -64 -54 -129 -120 -66 -66 -124 -120 -130 -120 -6 0 -60 -49 -120 -110 -60 -60 -115 -110 -121 -110 -6 0 -60 -49 -119 -110 -60 -60 -114 -110 -120 -110 -5 0 -64 -54 -130 -120 -66 -66 -124 -120 -130 -120 -6 0 -60 -49 -120 -110 -60 -60 -114 -110 -120 -110 -6 0 -64 -54 -130 -120 -66 -66 -124 -120 -130 -120 -6 0 -60 -49 -120 -110 -60 -60 -115 -110 -121 -110 -6 0 -60 -49 -119 -110 -60 -60 -114 -110 -120 -110 -5 0 -64 -54 -130 -120 -66 -66 -124 -120 -130 -120 -6 0 -60 -49 -120 -110 -60 -60 -114 -110 -120 -110 -6 0 -64 -54 -130 -120 -66 -66 -124 -120 -130 -120 -6 0 -60 -49 -120 -110 -60 -60 -115 -110 -121 -110 -6 0 -64 -54 -129 -120 -66 -66 -124 -120 -130 -120 -6 0 -60 -49 -120 -110 -60 -60 -114 -110 -120 -110 -6 0 -60 -49 -120 -110 -60 -60 -114 -110 -120 -110 -6 0 -64 -54 -130 -120 -66 -66 -124 -120 -130 -120 -6 0 -60 -49 -120 -110 -60 -60 -115 -110 -121 -110 -6 0 -64 -54 -129 -120 -66 -66 -124 -120 -130 -120 -6 0 -60 -49 -120 -110 -60 -60 -114 -110 -120 -110 -6 0 -58 -48 -115 -106 -58 -58 -112 -109 -121 -112 -20 -8 -119 -100 -119 -110 0 -10 156 -152 167 -152 5 0 55 47 113 105 58 58 109 105 115 105 6 0 71 61 145 135 74 74 139 135 145 135 6 0 73 63 150 140 77 77 144 140 150 140 6 0 73 63 150 140 77 77 144 140 150 140 6 0 71 61 145 135 74 74 139 135 145 135 6 0 71 61 145 135 74 74 139 135 145 135 6 0 73 63 150 140 77 77 144 140 150 140 6 0 73 63 150 140 77 77 144 140 150 140 6 0 73 63 150 140 77 77 144 140 150 140 6 0 71 61 145 135 74 74 139 135 145 135 6 0 71 61 145 135 74 74 139 135 145 135 6 0 73 63 150 140 77 77 144 140 150 140 6 0 73 63 150 140 77 77 144 140 150 140 6 0 71 61 145 135 74 74 139 135 145 135 6 0 71 61 145 135 74 74 139 135 145 135 6 0 73 63 150 140 77 77 144 140 150 140 6 0 73 63 150 140 77 77 144 140 150 140 6 0 45 35 88 78 74 75 127 155 127 193 0 10 5 21 10 24 27 17 -1 197 -36 226 -8 6 -14 17 -14 23 0 20 -103 111 -150 133 -92 42 -180 57 -195 33z"/>
<path d="M1945 12300 c-10 -11 -23 -20 -30 -20 -15 0 -80 -68 -72 -76 3 -4 27 12 52 34 26 23 60 47 76 54 16 7 29 16 29 20 0 16 -37 7 -55 -12z"/>
<path d="M2230 12310 c0 -5 7 -10 15 -10 8 0 15 5 15 10 0 6 -7 10 -15 10 -8 0 -15 -4 -15 -10z"/>
<path d="M2280 12290 c0 -5 5 -10 10 -10 6 0 10 5 10 10 0 6 -4 10 -10 10 -5 0 -10 -4 -10 -10z"/>
<path d="M2371 12213 c3 -15 139 -136 146 -129 9 8 -117 136 -134 136 -7 0 -12 -3 -12 -7z"/>
<path d="M1803 12155 c-8 -22 6 -33 17 -15 13 20 12 30 0 30 -6 0 -13 -7 -17 -15z"/>
<path d="M1780 12085 c0 -8 5 -15 10 -15 6 0 10 7 10 15 0 8 -4 15 -10 15 -5 0 -10 -7 -10 -15z"/>
<path d="M2680 11932 c0 -14 129 -136 137 -129 4 4 -22 37 -57 72 -61 61 -80 75 -80 57z"/>
<path d="M1780 11915 c0 -8 5 -15 10 -15 6 0 10 7 10 15 0 8 -4 15 -10 15 -5 0 -10 -7 -10 -15z"/>
<path d="M1800 11862 c0 -5 7 -22 15 -38 18 -37 192 -210 201 -201 4 4 -39 54 -94 111 -56 58 -102 112 -102 120 0 9 -4 16 -10 16 -5 0 -10 -4 -10 -8z"/>
<path d="M2980 11652 c0 -14 129 -136 137 -129 4 4 -22 37 -57 72 -61 61 -80 75 -80 57z"/>
<path d="M2160 11493 c0 -13 144 -153 158 -153 6 0 12 2 12 4 0 6 -150 151 -161 154 -5 2 -9 0 -9 -5z"/>
<path d="M3280 11372 c0 -14 129 -136 137 -129 4 4 -22 37 -57 72 -61 61 -80 75 -80 57z"/>
<path d="M2460 11213 c0 -13 144 -153 158 -153 6 0 12 2 12 4 0 6 -150 151 -161 154 -5 2 -9 0 -9 -5z"/>
<path d="M3580 11092 c0 -14 129 -136 137 -129 4 4 -22 37 -57 72 -61 61 -80 75 -80 57z"/>
<path d="M2760 10932 c0 -14 149 -156 157 -149 4 4 -26 41 -67 82 -70 71 -90 85 -90 67z"/>
<path d="M3860 10832 c0 -14 149 -156 157 -149 4 4 -26 41 -67 82 -70 71 -90 85 -90 67z"/>
<path d="M3060 10652 c0 -14 129 -136 137 -129 4 4 -22 37 -57 72 -61 61 -80 75 -80 57z"/>
<path d="M4160 10552 c0 -14 149 -156 157 -149 4 4 -26 41 -67 82 -70 71 -90 85 -90 67z"/>
<path d="M3340 10393 c0 -13 144 -153 158 -153 6 0 12 2 12 4 0 6 -150 151 -161 154 -5 2 -9 0 -9 -5z"/>
<path d="M4460 10272 c0 -14 149 -156 157 -149 4 4 -26 41 -67 82 -70 71 -90 85 -90 67z"/>
<path d="M3640 10113 c0 -13 144 -153 158 -153 6 0 12 2 12 4 0 6 -150 151 -161 154 -5 2 -9 0 -9 -5z"/>
<path d="M4760 9992 c0 -14 149 -156 157 -149 4 4 -26 41 -67 82 -70 71 -90 85 -90 67z"/>
<path d="M3940 9832 c0 -14 149 -156 157 -149 4 4 -26 41 -67 82 -70 71 -90 85 -90 67z"/>
<path d="M5060 9712 c0 -14 149 -156 157 -149 4 4 -26 41 -67 82 -70 71 -90 85 -90 67z"/>
<path d="M4240 9552 c0 -14 129 -136 137 -129 4 4 -22 37 -57 72 -61 61 -80 75 -80 57z"/>
<path d="M5351 9433 c3 -16 159 -156 166 -149 9 8 -137 156 -154 156 -7 0 -12 -3 -12 -7z"/>
<path d="M4540 9273 c0 -13 124 -133 138 -133 6 0 12 2 12 4 0 6 -130 130 -141 134 -5 2 -9 0 -9 -5z"/>
<path d="M5651 9153 c3 -16 159 -156 166 -149 9 8 -137 156 -154 156 -7 0 -12 -3 -12 -7z"/>
<path d="M4820 9013 c0 -13 144 -153 158 -153 6 0 12 2 12 4 0 6 -150 151 -161 154 -5 2 -9 0 -9 -5z"/>
<path d="M5951 8873 c3 -16 159 -156 166 -149 9 8 -137 156 -154 156 -7 0 -12 -3 -12 -7z"/>
<path d="M5120 8732 c0 -14 149 -156 157 -149 4 4 -26 41 -67 82 -70 71 -90 85 -90 67z"/>
<path d="M6251 8593 c3 -16 159 -156 166 -149 9 8 -137 156 -154 156 -7 0 -12 -3 -12 -7z"/>
<path d="M5420 8452 c0 -14 129 -136 137 -129 4 4 -22 37 -57 72 -61 61 -80 75 -80 57z"/>
<path d="M6551 8313 c3 -16 159 -156 166 -149 9 8 -137 156 -154 156 -7 0 -12 -3 -12 -7z"/>
<path d="M5720 8173 c0 -13 124 -133 138 -133 6 0 12 2 12 4 0 6 -130 130 -141 134 -5 2 -9 0 -9 -5z"/>
<path d="M6851 8033 c3 -16 159 -156 166 -149 9 8 -137 156 -154 156 -7 0 -12 -3 -12 -7z"/>
<path d="M6000 7913 c0 -13 144 -153 158 -153 6 0 12 2 12 4 0 6 -150 151 -161 154 -5 2 -9 0 -9 -5z"/>
<path d="M7151 7753 c3 -16 159 -156 166 -149 9 8 -137 156 -154 156 -7 0 -12 -3 -12 -7z"/>
<path d="M6300 7632 c0 -14 149 -156 157 -149 4 4 -26 41 -67 82 -70 71 -90 85 -90 67z"/>
<path d="M6600 7352 c0 -14 129 -136 137 -129 4 4 -22 37 -57 72 -61 61 -80 75 -80 57z"/>
<path d="M6900 7073 c0 -4 12 -20 27 -35 l27 -28 -29 -30 c-16 -16 -34 -30 -40 -30 -5 0 -73 -63 -150 -140 -77 -77 -144 -140 -150 -140 -6 0 -75 -65 -155 -145 -80 -80 -149 -145 -155 -145 -6 0 -53 -43 -105 -95 -69 -69 -99 -93 -112 -89 -33 10 -18 -11 66 -95 77 -76 106 -92 106 -58 0 15 151 167 165 167 6 0 78 68 160 150 82 83 155 150 161 150 6 0 77 68 159 150 82 83 154 150 160 150 13 0 75 62 75 75 0 10 -194 195 -204 195 -3 0 -6 -3 -6 -7z"/>
<path d="M8060 6912 c0 -14 129 -136 137 -129 4 4 -22 37 -57 72 -61 61 -80 75 -80 57z"/>
<path d="M7221 6639 c-35 -38 -69 -69 -75 -69 -6 0 -61 -49 -121 -110 -60 -60 -114 -110 -120 -110 -6 0 -60 -49 -120 -110 -60 -60 -114 -110 -120 -110 -6 0 -69 -58 -140 -130 -95 -95 -134 -128 -147 -124 -23 7 -23 -1 0 -24 9 -10 51 -57 92 -105 72 -84 99 -106 86 -70 -5 12 15 38 71 95 43 43 82 78 88 78 6 0 71 61 145 135 74 74 139 135 145 135 6 0 71 61 145 135 74 74 139 135 145 135 5 0 45 35 87 77 l78 78 83 -83 c73 -73 109 -98 106 -74 -1 12 -336 317 -350 319 -8 1 -43 -29 -78 -68z"/>
<path d="M8360 6631 c0 -13 29 -35 37 -28 7 8 -15 37 -28 37 -5 0 -9 -4 -9 -9z"/>
<path d="M5880 6271 c0 -13 29 -35 37 -28 7 8 -15 37 -28 37 -5 0 -9 -4 -9 -9z"/>
<path d="M7780 6252 c0 -14 109 -116 117 -109 4 4 -18 32 -47 62 -52 52 -70 65 -70 47z"/>
<path d="M5880 6050 c0 -5 5 -10 10 -10 6 0 10 5 10 10 0 6 -4 10 -10 10 -5 0 -10 -4 -10 -10z"/>
<path d="M6080 6052 c0 -14 89 -96 97 -89 4 4 -13 28 -37 52 -42 43 -60 54 -60 37z"/>
<path d="M5800 6030 c0 -5 5 -10 10 -10 6 0 10 5 10 10 0 6 -4 10 -10 10 -5 0 -10 -4 -10 -10z"/>
<path d="M5880 5970 c0 -5 5 -10 10 -10 6 0 10 5 10 10 0 6 -4 10 -10 10 -5 0 -10 -4 -10 -10z"/>
<path d="M5690 5945 c-7 -9 -10 -18 -7 -22 8 -7 37 15 37 28 0 14 -16 11 -30 -6z"/>
<path d="M6040 5912 c0 -14 169 -176 177 -169 4 4 -31 46 -77 92 -79 80 -100 96 -100 77z"/>
<path d="M5980 5891 c0 -13 29 -35 37 -28 7 8 -15 37 -28 37 -5 0 -9 -4 -9 -9z"/>
<path d="M6200 5671 c0 -13 29 -35 37 -28 7 8 -15 37 -28 37 -5 0 -9 -4 -9 -9z"/>
<path d="M5510 5565 c-7 -9 -10 -18 -7 -22 8 -7 37 15 37 28 0 14 -16 11 -30 -6z"/>
<path d="M6400 5510 c0 -5 5 -10 10 -10 6 0 10 5 10 10 0 6 -4 10 -10 10 -5 0 -10 -4 -10 -10z"/>
<path d="M6360 5470 c0 -5 5 -10 10 -10 6 0 10 5 10 10 0 6 -4 10 -10 10 -5 0 -10 -4 -10 -10z"/>
<path d="M5600 5332 c0 -14 49 -56 57 -49 3 4 -4 18 -17 32 -24 25 -40 32 -40 17z"/>
<path d="M5920 5330 c0 -5 5 -10 10 -10 6 0 10 5 10 10 0 6 -4 10 -10 10 -5 0 -10 -4 -10 -10z"/>
<path d="M5410 5285 c-7 -9 -10 -18 -7 -22 8 -7 37 15 37 28 0 14 -16 11 -30 -6z"/>
<path d="M5950 5265 c-7 -9 -10 -18 -7 -22 8 -7 37 15 37 28 0 14 -16 11 -30 -6z"/>
<path d="M5780 5232 c0 -14 49 -56 57 -49 3 4 -4 18 -17 32 -24 25 -40 32 -40 17z"/>
<path d="M5680 5170 c0 -5 5 -10 10 -10 6 0 10 5 10 10 0 6 -4 10 -10 10 -5 0 -10 -4 -10 -10z"/>
<path d="M5540 5050 c0 -5 5 -10 10 -10 6 0 10 5 10 10 0 6 -4 10 -10 10 -5 0 -10 -4 -10 -10z"/>
<path d="M4840 4970 c0 -5 5 -10 10 -10 6 0 10 5 10 10 0 6 -4 10 -10 10 -5 0 -10 -4 -10 -10z"/>
<path d="M5340 4932 c0 -14 109 -116 117 -109 4 4 -18 32 -47 62 -52 52 -70 65 -70 47z"/>
<path d="M5060 4652 c0 -4 5 -13 12 -20 8 -8 8 -15 -2 -27 -17 -20 -5 -32 15 -15 18 15 20 41 3 58 -14 14 -28 16 -28 4z"/>
<path d="M4560 4435 c-13 -14 -20 -28 -17 -32 8 -7 57 35 57 49 0 15 -16 8 -40 -17z"/>
<path d="M4830 4385 c-7 -9 -10 -18 -7 -22 8 -7 37 15 37 28 0 14 -16 11 -30 -6z"/>
<path d="M4660 4270 c0 -5 5 -10 10 -10 6 0 10 5 10 10 0 6 -4 10 -10 10 -5 0 -10 -4 -10 -10z"/>
<path d="M2580 3290 c0 -5 5 -10 10 -10 6 0 10 5 10 10 0 6 -4 10 -10 10 -5 0 -10 -4 -10 -10z"/>
<path d="M2620 3195 c-13 -14 -20 -28 -17 -32 8 -7 57 35 57 49 0 15 -16 8 -40 -17z"/>
<path d="M2400 3055 c-24 -24 -41 -48 -37 -52 8 -7 97 75 97 89 0 17 -18 6 -60 -37z"/>
<path d="M2150 2925 c-41 -41 -71 -78 -67 -82 8 -7 157 135 157 149 0 18 -20 4 -90 -67z"/>
<path d="M2770 2905 c-7 -9 -10 -18 -7 -22 8 -7 37 15 37 28 0 14 -16 11 -30 -6z"/>
<path d="M2220 2815 c-24 -24 -41 -48 -37 -52 8 -7 97 75 97 89 0 17 -18 6 -60 -37z"/>
<path d="M2620 2835 c-13 -14 -20 -28 -17 -32 8 -7 57 35 57 49 0 15 -16 8 -40 -17z"/>
<path d="M3060 2735 c-13 -14 -20 -28 -17 -32 8 -7 57 35 57 49 0 15 -16 8 -40 -17z"/>
<path d="M1990 2665 c-18 -19 -30 -38 -27 -42 8 -7 77 55 77 69 0 16 -17 7 -50 -27z"/>
<path d="M2520 2675 c-13 -14 -20 -28 -17 -32 8 -7 57 35 57 49 0 15 -16 8 -40 -17z"/>
<path d="M2840 2655 c-13 -14 -20 -28 -17 -32 8 -7 57 35 57 49 0 15 -16 8 -40 -17z"/>
<path d="M2360 2595 c-13 -14 -20 -28 -17 -32 8 -7 57 35 57 49 0 15 -16 8 -40 -17z"/>
<path d="M3340 2532 c0 -14 49 -56 57 -49 3 4 -4 18 -17 32 -24 25 -40 32 -40 17z"/>
<path d="M2780 2475 c-13 -14 -20 -28 -17 -32 8 -7 57 35 57 49 0 15 -16 8 -40 -17z"/>
<path d="M1810 2425 c-18 -19 -30 -38 -27 -42 8 -7 77 55 77 69 0 16 -17 7 -50 -27z"/>
<path d="M2270 2445 c-7 -9 -10 -18 -7 -22 8 -7 37 15 37 28 0 14 -16 11 -30 -6z"/>
<path d="M2590 2425 c-7 -9 -10 -18 -7 -22 8 -7 37 15 37 28 0 14 -16 11 -30 -6z"/>
<path d="M2120 2375 c-13 -14 -20 -28 -17 -32 8 -7 57 35 57 49 0 15 -16 8 -40 -17z"/>
<path d="M1780 2230 c0 -5 5 -10 10 -10 6 0 10 5 10 10 0 6 -4 10 -10 10 -5 0 -10 -4 -10 -10z"/>
<path d="M2020 2215 c-13 -14 -20 -28 -17 -32 8 -7 57 35 57 49 0 15 -16 8 -40 -17z"/>
<path d="M2340 2195 c-13 -14 -20 -28 -17 -32 8 -7 57 35 57 49 0 15 -16 8 -40 -17z"/>
<path d="M2480 2195 c-13 -14 -20 -28 -17 -32 8 -7 57 35 57 49 0 15 -16 8 -40 -17z"/>
<path d="M1880 2150 c0 -5 5 -10 10 -10 6 0 10 5 10 10 0 6 -4 10 -10 10 -5 0 -10 -4 -10 -10z"/>
<path d="M1960 2010 c0 -5 5 -10 10 -10 6 0 10 5 10 10 0 6 -4 10 -10 10 -5 0 -10 -4 -10 -10z"/>
<path d="M2090 1965 c-7 -9 -10 -18 -7 -22 8 -7 37 15 37 28 0 14 -16 11 -30 -6z"/>
<path d="M2200 1935 c-13 -14 -20 -28 -17 -32 8 -7 57 35 57 49 0 15 -16 8 -40 -17z"/>
<path d="M2240 1712 c0 -14 149 -156 157 -149 4 4 -26 41 -67 82 -70 71 -90 85 -90 67z"/>
<path d="M1020 1451 c0 -13 29 -35 37 -28 7 8 -15 37 -28 37 -5 0 -9 -4 -9 -9z"/>
<path d="M970 1425 c-7 -9 -10 -18 -7 -22 8 -7 37 15 37 28 0 14 -16 11 -30 -6z"/>
<path d="M670 1305 c-29 -30 -51 -58 -47 -62 8 -7 117 95 117 109 0 18 -18 5 -70 -47z"/>
<path d="M1140 1310 c0 -5 5 -10 10 -10 6 0 10 5 10 10 0 6 -4 10 -10 10 -5 0 -10 -4 -10 -10z"/>
<path d="M1260 1170 c0 -5 5 -10 10 -10 6 0 10 5 10 10 0 6 -4 10 -10 10 -5 0 -10 -4 -10 -10z"/>
<path d="M1170 1025 c-7 -9 -10 -18 -7 -22 8 -7 37 15 37 28 0 14 -16 11 -30 -6z"/>
<path d="M1290 945 c-41 -41 -71 -78 -67 -82 8 -7 157 135 157 149 0 18 -20 4 -90 -67z"/>
<path d="M1400 1010 c0 -5 5 -10 10 -10 6 0 10 5 10 10 0 6 -4 10 -10 10 -5 0 -10 -4 -10 -10z"/>
<path d="M400 870 c0 -5 5 -10 10 -10 6 0 10 5 10 10 0 6 -4 10 -10 10 -5 0 -10 -4 -10 -10z"/>
<path d="M1180 870 c0 -5 5 -10 10 -10 6 0 10 5 10 10 0 6 -4 10 -10 10 -5 0 -10 -4 -10 -10z"/>
<path d="M1580 852 c0 -14 49 -56 57 -49 3 4 -4 18 -17 32 -24 25 -40 32 -40 17z"/>
<path d="M480 670 c0 -5 5 -10 10 -10 6 0 10 5 10 10 0 6 -4 10 -10 10 -5 0 -10 -4 -10 -10z"/>
<path d="M700 650 c0 -5 5 -10 10 -10 6 0 10 5 10 10 0 6 -4 10 -10 10 -5 0 -10 -4 -10 -10z"/>
<path d="M1480 630 c0 -5 5 -10 10 -10 6 0 10 5 10 10 0 6 -4 10 -10 10 -5 0 -10 -4 -10 -10z"/>
<path d="M820 550 c0 -5 5 -10 10 -10 6 0 10 5 10 10 0 6 -4 10 -10 10 -5 0 -10 -4 -10 -10z"/>
<path d="M790 485 c-7 -9 -10 -18 -7 -22 8 -7 37 15 37 28 0 14 -16 11 -30 -6z"/>
<path d="M1330 345 c-18 -19 -30 -38 -27 -42 8 -7 77 55 77 69 0 16 -17 7 -50 -27z"/>
<path d="M780 350 c0 -5 5 -10 10 -10 6 0 10 5 10 10 0 6 -4 10 -10 10 -5 0 -10 -4 -10 -10z"/>
<path d="M920 250 c0 -5 5 -10 10 -10 6 0 10 5 10 10 0 6 -4 10 -10 10 -5 0 -10 -4 -10 -10z"/>
<path d="M1000 210 c0 -5 5 -10 10 -10 6 0 10 5 10 10 0 6 -4 10 -10 10 -5 0 -10 -4 -10 -10z"/>
</g>
</g>
  <g id="id2:id2" transform="matrix(1.25,0,0,1.25,0.0,0.0)"><g transform="translate(0.000000,500.800000) scale(0.040000,-0.040000)" fill="#000000" stroke="none">
<path d="M1965 12169 c-67 -59 -82 -126 -46 -197 24 -46 68 -88 541 -523 415 -381 2030 -1864 2720 -2499 129 -119 438 -403 685 -630 248 -228 641 -590 875 -804 233 -215 510 -470 615 -566 104 -96 383 -353 620 -570 551 -508 554 -510 563 -510 16 0 164 158 160 171 -1 8 -106 111 -233 230 -482 452 -914 856 -1595 1494 -737 690 -1214 1137 -1585 1485 -121 113 -470 440 -775 726 -708 662 -1770 1657 -1965 1840 -385 361 -415 384 -496 384 -40 0 -55 -6 -84 -31z"/>
<path d="M5781 6361 c-25 -25 -28 -94 -6 -147 13 -32 13 -37 -5 -67 -11 -18 -20 -41 -20 -52 0 -13 -49 -67 -137 -151 l-137 -130 42 -53 c23 -29 42 -56 42 -60 0 -3 -31 -38 -70 -76 -38 -38 -70 -73 -70 -78 0 -5 13 -27 29 -51 l29 -42 -124 -135 c-68 -74 -129 -136 -135 -138 -6 -2 -30 14 -52 36 -23 21 -52 47 -64 57 l-22 19 -114 -107 c-106 -98 -117 -106 -146 -100 -58 12 -78 -34 -45 -99 10 -18 37 -56 62 -85 l45 -53 -199 -199 c-109 -110 -203 -200 -209 -200 -5 0 -36 18 -69 40 -94 64 -161 49 -173 -38 -6 -48 -26 -62 -88 -62 -38 0 -65 -28 -65 -68 0 -13 -7 -36 -15 -52 -13 -25 -23 -30 -65 -36 -54 -7 -80 -30 -80 -69 0 -32 -28 -65 -56 -65 -41 0 -83 -27 -89 -58 -10 -47 -21 -57 -73 -65 -59 -10 -83 -32 -97 -91 l-10 -41 -53 -5 c-58 -6 -67 -14 -76 -71 -7 -42 -20 -53 -79 -63 -42 -8 -61 -32 -71 -88 -7 -40 -29 -58 -70 -58 -38 0 -86 -46 -86 -82 0 -46 -15 -65 -59 -72 -46 -7 -81 -44 -81 -86 0 -39 -22 -53 -68 -45 -35 6 -44 2 -97 -40 l-59 -46 -112 112 c-61 61 -117 110 -123 108 -5 -2 -218 -204 -471 -449 -253 -245 -486 -468 -517 -496 l-56 -51 64 -78 c35 -42 70 -86 78 -97 14 -18 -11 -45 -399 -433 l-413 -413 -55 19 c-30 10 -59 19 -63 19 -9 0 -271 -232 -301 -266 -11 -14 -17 -43 -20 -105 l-3 -85 -41 -50 c-58 -70 -58 -69 -30 -119 69 -123 226 -328 263 -342 9 -4 35 14 69 48 51 50 55 52 71 36 16 -16 14 -20 -35 -70 -29 -29 -52 -58 -52 -64 0 -20 152 -152 257 -224 l103 -70 46 33 c96 68 94 68 183 68 l84 0 121 127 c169 177 168 174 149 228 -8 24 -13 53 -11 63 5 31 835 807 863 807 16 0 160 135 534 504 281 277 511 508 511 514 0 6 -14 25 -31 43 l-30 31 46 54 c41 48 46 58 43 98 -3 51 17 71 69 71 37 0 58 25 69 78 7 36 29 52 69 52 54 0 80 30 94 110 6 33 9 35 53 40 58 7 85 30 93 81 7 43 35 69 75 69 39 0 51 13 63 71 l12 53 41 9 c53 10 77 36 89 100 l10 50 50 16 50 16 12 50 c14 56 33 75 75 75 36 0 68 32 68 69 0 44 33 78 82 85 61 9 68 16 81 82 l12 59 42 6 c54 7 93 42 93 83 0 20 -15 52 -41 89 -22 33 -39 64 -37 71 4 15 398 386 410 386 6 0 32 -20 59 -44 105 -94 193 -101 175 -14 l-6 32 110 106 c61 58 110 109 110 114 0 5 -25 37 -55 71 -30 35 -55 65 -55 67 0 8 278 248 287 248 5 0 28 -14 52 -31 l43 -32 72 72 c39 39 75 71 80 71 4 0 30 -18 56 -40 26 -22 52 -40 57 -40 5 0 68 59 138 130 90 91 136 130 152 130 12 0 38 8 58 17 33 16 37 16 70 0 20 -9 55 -17 79 -17 77 0 98 54 49 128 -27 39 -273 313 -302 336 -8 6 -48 45 -88 86 -395 399 -414 417 -460 426 -24 5 -36 1 -52 -15z m562 -574 c147 -150 267 -280 267 -289 0 -28 -15 -29 -67 -3 -39 20 -55 23 -80 16 -28 -8 -34 -5 -72 33 -23 23 -41 46 -41 51 0 29 -449 475 -479 475 -22 0 -30 36 -16 64 13 24 13 34 -1 77 -9 27 -13 57 -10 66 6 14 30 -6 119 -100 62 -64 232 -240 380 -390z m-481 199 c108 -86 166 -137 246 -218 99 -99 180 -188 202 -222 8 -13 23 -35 33 -49 24 -34 20 -41 -103 -161 l-101 -100 -287 287 -287 288 57 52 c106 97 178 157 187 157 5 0 29 -15 53 -34z m-224 -370 c37 -20 254 -240 291 -296 l30 -45 -49 -50 -50 -50 -177 177 -178 178 50 50 c27 27 51 50 53 50 1 0 15 -6 30 -14z m-61 -252 c10 -15 44 -55 76 -89 31 -34 57 -66 56 -71 0 -5 -33 -37 -72 -72 -40 -34 -101 -88 -136 -118 l-63 -56 -74 73 c-41 40 -74 80 -74 88 0 8 35 52 78 97 42 46 94 103 116 129 44 51 67 56 93 19z m-164 -507 c42 -46 77 -90 77 -98 0 -8 -39 -53 -86 -99 -47 -47 -90 -95 -95 -107 -4 -13 -12 -23 -17 -23 -14 0 -432 426 -432 441 0 8 50 64 111 124 l110 109 127 -132 c70 -72 162 -169 205 -215z m-422 -124 c31 -32 64 -71 74 -87 l18 -29 -112 -106 c-61 -58 -146 -139 -190 -179 l-79 -74 -38 25 c-22 14 -57 43 -78 65 l-39 41 29 37 c35 44 346 364 354 364 3 0 31 -26 61 -57z m-2400 -1459 l24 -25 -80 -74 c-114 -106 -464 -440 -670 -640 l-175 -169 -22 22 -23 22 215 210 c118 116 323 316 455 445 132 129 243 235 246 235 3 0 16 -12 30 -26z m159 -159 l85 -86 -85 -79 c-96 -90 -291 -271 -470 -435 -66 -60 -175 -162 -243 -226 -67 -64 -133 -122 -146 -129 -23 -12 -27 -10 -58 26 -18 22 -48 57 -68 80 -42 49 -44 67 -8 91 15 10 116 104 225 208 636 610 661 633 678 635 3 0 44 -38 90 -85z m220 -220 l65 -66 -77 -72 c-95 -88 -296 -274 -458 -422 -66 -60 -178 -164 -249 -230 -71 -66 -146 -133 -166 -150 l-37 -29 -34 39 c-18 22 -50 60 -71 83 l-37 44 47 41 c26 23 106 96 177 162 72 66 184 170 250 230 66 61 178 164 250 230 235 218 243 224 260 215 8 -5 44 -38 80 -75z m261 -244 c57 -60 117 -126 133 -146 l29 -37 -471 -471 -472 -472 -150 150 c-120 120 -150 155 -150 177 0 18 7 31 23 39 12 6 82 68 154 138 73 69 199 188 280 264 82 75 212 197 290 270 149 139 214 196 224 197 3 0 52 -49 110 -109z m-2150 -1271 c126 -140 166 -187 183 -213 l17 -28 -59 -62 c-74 -79 -92 -108 -92 -150 0 -41 15 -56 65 -64 l37 -6 77 78 78 77 29 -15 c16 -9 69 -56 118 -106 l89 -90 -71 -74 -72 -74 9 -64 c5 -35 6 -69 2 -76 -3 -6 -52 -59 -109 -117 l-103 -106 -80 0 c-67 0 -85 -4 -118 -25 -22 -13 -42 -29 -46 -35 -10 -17 -61 -2 -110 31 -24 16 -46 29 -50 29 -4 0 -27 17 -51 37 -24 21 -56 48 -71 61 l-28 22 28 23 c87 69 99 83 93 103 -3 11 -33 46 -65 78 l-59 59 -55 -52 c-29 -28 -61 -51 -69 -51 -27 0 -125 120 -171 208 l-29 56 18 31 c9 16 30 44 46 61 l28 30 -6 72 -7 73 71 67 c168 158 202 186 214 174 7 -7 22 -12 34 -12 13 0 26 -4 29 -10 12 -19 39 -9 86 33 59 52 102 86 110 87 3 0 30 -27 60 -60z"/>
<path d="M8920 6173 c-58 -62 -228 -239 -377 -391 -268 -273 -298 -310 -258 -326 8 -3 32 4 53 16 24 13 53 21 82 20 25 0 51 2 57 6 6 4 34 36 63 72 101 127 288 330 304 330 5 0 47 35 92 78 45 42 95 87 110 99 l29 21 -23 25 -23 24 22 45 c25 52 21 99 -9 97 -9 -1 -64 -53 -122 -116z"/>
<path d="M9042 5996 c-22 -20 -44 -36 -49 -36 -5 0 -35 -27 -68 -60 -33 -33 -64 -60 -71 -60 -24 0 -334 -354 -334 -382 0 -16 81 -98 96 -98 5 0 39 -29 74 -65 35 -36 69 -64 75 -63 5 0 136 129 290 285 l280 283 -90 90 c-49 49 -94 90 -99 90 -6 0 -22 12 -37 26 l-27 26 -40 -36z"/>
<path d="M9260 5615 c-7 -8 -18 -15 -24 -15 -13 0 -240 -231 -290 -294 l-29 -37 44 -45 c24 -24 52 -47 62 -50 15 -5 55 29 184 157 90 90 169 172 174 182 12 21 -12 67 -34 67 -8 0 -24 11 -37 25 -27 29 -33 30 -50 10z"/>
<path d="M9318 5369 c-13 -17 -52 -62 -87 -100 l-65 -69 49 -50 c27 -28 53 -50 58 -50 4 0 36 -27 70 -60 34 -33 66 -60 71 -60 5 0 18 -8 28 -17 l19 -17 82 82 82 82 -46 47 c-26 27 -50 56 -55 65 -12 22 -164 178 -174 178 -5 0 -19 -14 -32 -31z"/>
<path d="M9689 5080 c-62 -66 -159 -167 -214 -225 l-99 -105 44 -45 c24 -25 49 -45 54 -45 6 0 30 -19 53 -42 31 -30 43 -50 43 -70 0 -65 26 -47 247 173 118 118 221 227 229 242 17 31 10 50 -15 42 -11 -3 -46 25 -116 95 -55 55 -102 100 -105 100 -3 0 -58 -54 -121 -120z"/>
<path d="M9904 4736 c-27 -30 -62 -71 -78 -91 l-29 -36 64 -65 c35 -35 68 -64 74 -64 6 0 58 -48 115 -106 58 -58 118 -112 134 -121 l29 -15 76 76 76 76 -200 200 c-110 110 -203 200 -206 200 -3 0 -28 -25 -55 -54z"/>
<path d="M12300 3275 l-24 -26 204 -204 c113 -113 209 -205 215 -205 6 0 100 -90 210 -200 110 -110 205 -200 210 -200 6 0 29 -18 50 -40 46 -47 57 -49 80 -14 13 20 14 28 4 40 -6 8 -16 14 -22 14 -6 0 -150 138 -319 307 -169 169 -316 311 -325 314 -10 4 -69 60 -132 123 -63 64 -117 116 -121 116 -4 0 -17 -11 -30 -25z"/>
<path d="M12140 3115 l-94 -95 49 -50 c27 -27 53 -50 58 -50 5 0 58 -48 119 -107 60 -59 116 -111 126 -115 9 -3 64 -54 122 -112 57 -58 109 -106 115 -106 5 0 64 -54 130 -120 66 -66 125 -120 130 -120 6 0 35 -25 65 -55 30 -30 58 -55 62 -55 9 0 40 33 113 123 l48 59 -94 94 c-51 52 -98 94 -104 94 -6 0 -100 90 -210 200 -110 110 -204 200 -209 200 -5 0 -76 66 -157 147 -81 81 -154 150 -162 154 -9 6 -43 -21 -107 -86z"/>
<path d="M11932 2907 c-39 -40 -72 -79 -72 -88 0 -15 59 -79 74 -79 5 0 57 -48 118 -107 60 -59 116 -111 126 -115 9 -3 64 -54 122 -112 57 -58 109 -106 115 -106 6 0 64 -54 130 -120 66 -66 124 -120 130 -120 5 0 45 -35 88 -77 l78 -78 34 40 c19 22 53 62 77 88 l42 48 -89 89 c-49 50 -94 90 -98 90 -5 0 -58 48 -119 107 -60 59 -116 111 -126 115 -9 3 -69 58 -132 122 -63 64 -119 116 -124 116 -4 0 -57 48 -118 107 -60 59 -117 111 -126 114 -10 4 -24 14 -31 23 -7 9 -16 16 -20 16 -4 0 -39 -33 -79 -73z"/>
<path d="M11669 2660 c-52 -54 -114 -122 -138 -150 l-44 -50 159 -160 c87 -88 163 -160 169 -160 5 0 150 -140 321 -311 l312 -312 21 15 c11 8 30 26 41 41 12 15 28 27 35 27 7 0 24 14 37 31 13 17 58 68 101 113 42 45 77 89 77 97 0 15 -119 139 -134 139 -5 0 -67 57 -138 127 -70 70 -136 131 -146 134 -9 4 -78 68 -152 143 -74 75 -139 136 -145 136 -6 0 -64 54 -130 120 -66 66 -127 120 -135 120 -9 0 -59 -45 -111 -100z"/>
<path d="M13814 1387 c-130 -139 -204 -232 -204 -258 0 -6 32 -44 71 -84 l70 -73 -3 -48 -3 -49 -39 -3 c-37 -3 -44 1 -117 74 l-79 78 -33 -32 c-18 -18 -37 -32 -43 -32 -5 0 -45 -36 -89 -80 l-79 -79 66 -68 65 -68 -5 -83 -5 -82 114 -115 113 -115 91 0 c84 0 93 -2 114 -24 13 -14 36 -30 52 -36 26 -11 34 -9 101 33 40 25 84 57 97 71 14 14 30 26 37 26 7 0 24 14 39 32 l27 32 -61 58 c-33 32 -61 61 -61 66 0 4 27 34 60 67 l59 59 55 -52 c30 -29 61 -52 68 -52 21 0 158 151 158 174 0 3 14 25 30 49 17 25 30 50 30 56 0 6 -19 32 -42 58 l-43 46 0 78 0 79 -130 130 c-82 82 -137 130 -150 130 -12 0 -38 -9 -60 -20 -22 -11 -44 -20 -50 -20 -6 0 -37 27 -70 61 -88 89 -83 88 -151 16z"/>
</g>
</g>
  <g id="id3:id3" transform="matrix(1.25,0,0,1.25,0.0,0.0)"><g transform="translate(0.000000,500.800000) scale(0.040000,-0.040000)" fill="#b2b2b2" stroke="none">
<path d="M2023 12331 c-62 -16 -143 -74 -184 -131 -79 -112 -89 -236 -28 -356 25 -50 53 -84 123 -147 50 -44 138 -126 196 -182 58 -55 189 -176 290 -270 101 -93 236 -219 300 -280 64 -60 197 -184 295 -275 99 -91 229 -212 290 -270 61 -58 194 -181 295 -275 101 -93 236 -219 300 -280 64 -60 197 -184 295 -275 99 -91 229 -212 290 -270 61 -58 194 -181 295 -275 101 -93 236 -219 300 -280 64 -60 197 -184 295 -275 99 -91 229 -212 290 -270 61 -58 194 -181 295 -275 101 -93 236 -219 300 -280 64 -60 197 -184 295 -275 98 -91 244 -229 325 -307 80 -79 150 -143 155 -143 5 0 71 -60 146 -132 76 -73 206 -196 290 -273 84 -77 204 -189 269 -250 64 -60 196 -184 295 -275 98 -91 212 -198 255 -237 42 -40 83 -73 92 -73 9 0 31 18 49 40 19 22 51 60 72 84 20 24 37 47 36 52 0 5 -55 59 -121 119 -67 61 -164 151 -218 200 -53 50 -166 153 -250 230 -85 77 -197 181 -250 230 -53 50 -163 151 -245 225 -82 74 -190 173 -240 220 -50 47 -163 150 -250 230 -87 80 -200 183 -250 230 -50 47 -163 150 -250 230 -87 80 -200 183 -250 230 -50 47 -163 150 -250 230 -88 80 -200 183 -250 230 -50 47 -163 150 -250 230 -88 80 -200 183 -250 230 -50 47 -161 148 -245 225 -85 77 -193 176 -240 220 -47 44 -157 145 -245 225 -87 80 -200 183 -250 230 -50 47 -162 150 -250 230 -87 80 -200 183 -250 230 -50 47 -163 150 -250 230 -88 80 -200 183 -250 230 -50 47 -163 150 -250 230 -88 80 -200 183 -250 230 -50 47 -161 148 -245 225 -85 77 -192 176 -240 220 -47 44 -130 120 -184 169 -54 49 -109 107 -123 129 -35 55 -33 116 3 164 78 102 173 69 383 -130 59 -56 199 -187 311 -292 112 -104 256 -239 320 -300 64 -60 206 -193 315 -295 109 -102 253 -237 320 -300 66 -63 208 -196 315 -295 107 -99 246 -229 310 -290 64 -60 205 -193 315 -295 109 -102 253 -237 320 -300 67 -63 211 -198 320 -300 110 -102 249 -232 310 -290 61 -58 200 -188 310 -290 109 -102 253 -237 320 -300 67 -63 211 -198 320 -300 110 -102 249 -232 310 -290 61 -58 200 -188 310 -290 109 -102 244 -228 300 -280 55 -52 199 -187 320 -300 120 -113 269 -252 330 -310 61 -58 203 -190 315 -295 112 -104 240 -225 285 -267 l80 -77 -64 -65 c-36 -36 -62 -69 -58 -73 11 -10 277 258 277 279 0 9 -39 52 -87 95 -48 43 -144 132 -213 198 -70 66 -205 192 -301 280 -95 88 -244 228 -330 310 -311 297 -437 415 -445 415 -4 0 -56 46 -114 103 -58 56 -191 181 -295 277 -104 96 -239 222 -300 280 -61 58 -194 182 -295 275 -101 94 -236 220 -300 280 -64 61 -199 187 -300 280 -101 94 -236 220 -300 280 -64 61 -197 184 -295 275 -98 91 -233 217 -300 280 -67 63 -202 189 -300 280 -98 91 -233 217 -300 280 -67 63 -202 189 -300 280 -98 91 -228 212 -290 270 -61 58 -196 184 -300 280 -104 96 -239 222 -300 280 -61 58 -196 184 -300 280 -104 96 -237 220 -295 276 -171 163 -272 250 -320 274 -49 26 -176 36 -237 21z"/>
<path d="M12680 12090 c0 -5 5 -10 10 -10 6 0 10 5 10 10 0 6 -4 10 -10 10 -5 0 -10 -4 -10 -10z"/>
<path d="M12980 11990 c0 -5 5 -10 10 -10 6 0 10 5 10 10 0 6 -4 10 -10 10 -5 0 -10 -4 -10 -10z"/>
<path d="M12400 11830 c0 -5 5 -10 10 -10 6 0 10 5 10 10 0 6 -4 10 -10 10 -5 0 -10 -4 -10 -10z"/>
<path d="M12840 11830 c0 -5 5 -10 10 -10 6 0 10 5 10 10 0 6 -4 10 -10 10 -5 0 -10 -4 -10 -10z"/>
<path d="M12340 11370 c0 -5 5 -10 10 -10 6 0 10 5 10 10 0 6 -4 10 -10 10 -5 0 -10 -4 -10 -10z"/>
<path d="M11140 10650 c0 -5 5 -10 10 -10 6 0 10 5 10 10 0 6 -4 10 -10 10 -5 0 -10 -4 -10 -10z"/>
<path d="M11100 10230 c0 -5 5 -10 10 -10 6 0 10 5 10 10 0 6 -4 10 -10 10 -5 0 -10 -4 -10 -10z"/>
<path d="M9560 9170 c0 -5 5 -10 10 -10 6 0 10 5 10 10 0 6 -4 10 -10 10 -5 0 -10 -4 -10 -10z"/>
<path d="M9860 9090 c0 -5 5 -10 10 -10 6 0 10 5 10 10 0 6 -4 10 -10 10 -5 0 -10 -4 -10 -10z"/>
<path d="M8300 7990 c0 -5 5 -10 10 -10 6 0 10 5 10 10 0 6 -4 10 -10 10 -5 0 -10 -4 -10 -10z"/>
<path d="M8620 7950 c0 -5 5 -10 10 -10 6 0 10 5 10 10 0 6 -4 10 -10 10 -5 0 -10 -4 -10 -10z"/>
<path d="M6720 6510 c0 -5 5 -10 10 -10 6 0 10 5 10 10 0 6 -4 10 -10 10 -5 0 -10 -4 -10 -10z"/>
<path d="M9020 6290 c0 -5 9 -10 20 -10 11 0 20 5 20 10 0 6 -9 10 -20 10 -11 0 -20 -4 -20 -10z"/>
<path d="M9100 6230 c0 -5 5 -10 10 -10 6 0 10 5 10 10 0 6 -4 10 -10 10 -5 0 -10 -4 -10 -10z"/>
<path d="M8860 6210 c0 -5 5 -10 10 -10 6 0 10 5 10 10 0 6 -4 10 -10 10 -5 0 -10 -4 -10 -10z"/>
<path d="M9040 6210 c0 -5 5 -10 10 -10 6 0 10 5 10 10 0 6 -4 10 -10 10 -5 0 -10 -4 -10 -10z"/>
<path d="M9020 6170 c0 -5 5 -10 10 -10 6 0 10 5 10 10 0 6 -4 10 -10 10 -5 0 -10 -4 -10 -10z"/>
<path d="M8850 6105 c-18 -19 -30 -38 -27 -42 8 -7 77 55 77 69 0 16 -17 7 -50 -27z"/>
<path d="M9020 6070 c0 -5 5 -10 10 -10 6 0 10 5 10 10 0 6 -4 10 -10 10 -5 0 -10 -4 -10 -10z"/>
<path d="M9060 6010 c0 -5 5 -10 10 -10 6 0 10 5 10 10 0 6 -4 10 -10 10 -5 0 -10 -4 -10 -10z"/>
<path d="M8720 5970 c0 -5 5 -10 10 -10 6 0 10 5 10 10 0 6 -4 10 -10 10 -5 0 -10 -4 -10 -10z"/>
<path d="M9140 5972 c0 -14 49 -56 57 -49 3 4 -4 18 -17 32 -24 25 -40 32 -40 17z"/>
<path d="M8860 5935 c-13 -14 -20 -28 -17 -32 8 -7 57 35 57 49 0 15 -16 8 -40 -17z"/>
<path d="M8980 5950 c0 -5 5 -10 10 -10 6 0 10 5 10 10 0 6 -4 10 -10 10 -5 0 -10 -4 -10 -10z"/>
<path d="M9300 5890 c0 -5 5 -10 10 -10 6 0 10 5 10 10 0 6 -4 10 -10 10 -5 0 -10 -4 -10 -10z"/>
<path d="M8780 5775 c-35 -35 -61 -68 -57 -72 8 -7 137 115 137 129 0 18 -19 4 -80 -57z"/>
<path d="M9360 5770 c0 -5 5 -10 10 -10 6 0 10 5 10 10 0 6 -4 10 -10 10 -5 0 -10 -4 -10 -10z"/>
<path d="M8650 5725 c-7 -9 -10 -18 -7 -22 8 -7 37 15 37 28 0 14 -16 11 -30 -6z"/>
<path d="M9070 5565 c-96 -96 -171 -178 -167 -182 8 -7 357 335 357 349 0 20 -27 -4 -190 -167z"/>
<path d="M8560 5610 c0 -5 5 -10 10 -10 6 0 10 5 10 10 0 6 -4 10 -10 10 -5 0 -10 -4 -10 -10z"/>
<path d="M9300 5610 c0 -5 5 -10 10 -10 6 0 10 5 10 10 0 6 -4 10 -10 10 -5 0 -10 -4 -10 -10z"/>
<path d="M9210 5585 c-7 -9 -10 -18 -7 -22 8 -7 37 15 37 28 0 14 -16 11 -30 -6z"/>
<path d="M8520 5570 c0 -5 5 -10 10 -10 6 0 10 5 10 10 0 6 -4 10 -10 10 -5 0 -10 -4 -10 -10z"/>
<path d="M8600 5570 c0 -5 5 -10 10 -10 6 0 10 5 10 10 0 6 -4 10 -10 10 -5 0 -10 -4 -10 -10z"/>
<path d="M9340 5571 c0 -13 29 -35 37 -28 7 8 -15 37 -28 37 -5 0 -9 -4 -9 -9z"/>
<path d="M8560 5530 c0 -5 5 -10 10 -10 6 0 10 5 10 10 0 6 -4 10 -10 10 -5 0 -10 -4 -10 -10z"/>
<path d="M8270 5505 c-7 -9 -10 -18 -7 -22 8 -7 37 15 37 28 0 14 -16 11 -30 -6z"/>
<path d="M8400 5510 c0 -5 5 -10 10 -10 6 0 10 5 10 10 0 6 -4 10 -10 10 -5 0 -10 -4 -10 -10z"/>
<path d="M8480 5510 c0 -5 5 -10 10 -10 6 0 10 5 10 10 0 6 -4 10 -10 10 -5 0 -10 -4 -10 -10z"/>
<path d="M9350 5505 c-7 -9 -10 -18 -7 -22 8 -7 37 15 37 28 0 14 -16 11 -30 -6z"/>
<path d="M8520 5462 c0 -21 86 -109 97 -99 4 4 -12 27 -35 50 -23 24 -42 48 -42 55 0 7 -4 12 -10 12 -5 0 -10 -8 -10 -18z"/>
<path d="M8340 5430 c0 -5 5 -10 10 -10 6 0 10 5 10 10 0 6 -4 10 -10 10 -5 0 -10 -4 -10 -10z"/>
<path d="M8220 5410 c0 -5 5 -10 10 -10 6 0 10 5 10 10 0 6 -4 10 -10 10 -5 0 -10 -4 -10 -10z"/>
<path d="M8280 5410 c0 -5 5 -10 10 -10 6 0 10 5 10 10 0 6 -4 10 -10 10 -5 0 -10 -4 -10 -10z"/>
<path d="M9320 5375 c-29 -31 -18 -46 13 -17 13 12 29 22 35 22 7 0 12 5 12 10 0 19 -37 10 -60 -15z"/>
<path d="M8990 5365 c-7 -9 -10 -18 -7 -22 8 -7 37 15 37 28 0 14 -16 11 -30 -6z"/>
<path d="M8920 5270 c0 -5 5 -10 10 -10 6 0 10 5 10 10 0 6 -4 10 -10 10 -5 0 -10 -4 -10 -10z"/>
<path d="M9480 5251 c0 -13 29 -35 37 -28 7 8 -15 37 -28 37 -5 0 -9 -4 -9 -9z"/>
<path d="M8760 5230 c0 -5 5 -10 10 -10 6 0 10 5 10 10 0 6 -4 10 -10 10 -5 0 -10 -4 -10 -10z"/>
<path d="M8980 5211 c0 -13 29 -35 37 -28 7 8 -15 37 -28 37 -5 0 -9 -4 -9 -9z"/>
<path d="M9800 5190 c0 -5 5 -10 10 -10 6 0 10 5 10 10 0 6 -4 10 -10 10 -5 0 -10 -4 -10 -10z"/>
<path d="M9240 5131 c0 -13 29 -35 37 -28 7 8 -15 37 -28 37 -5 0 -9 -4 -9 -9z"/>
<path d="M9300 5070 c0 -5 5 -10 10 -10 6 0 10 5 10 10 0 6 -4 10 -10 10 -5 0 -10 -4 -10 -10z"/>
<path d="M9630 5025 c-29 -30 -51 -58 -47 -62 8 -7 117 95 117 109 0 18 -18 5 -70 -47z"/>
<path d="M9400 4990 c0 -5 5 -10 10 -10 6 0 10 5 10 10 0 6 -4 10 -10 10 -5 0 -10 -4 -10 -10z"/>
<path d="M10000 4935 c-13 -14 -20 -28 -17 -32 8 -7 57 35 57 49 0 15 -16 8 -40 -17z"/>
<path d="M9440 4830 c0 -5 5 -10 10 -10 6 0 10 5 10 10 0 6 -4 10 -10 10 -5 0 -10 -4 -10 -10z"/>
<path d="M9380 4752 c0 -14 89 -96 97 -89 4 4 -13 28 -37 52 -42 43 -60 54 -60 37z"/>
<path d="M9890 4725 c-18 -19 -30 -38 -27 -42 8 -7 77 55 77 69 0 16 -17 7 -50 -27z"/>
<path d="M9560 4530 c0 -4 7 -13 15 -20 12 -10 18 -10 30 0 23 19 18 27 -15 27 -16 0 -30 -4 -30 -7z"/>
<path d="M9880 4532 c0 -14 49 -56 57 -49 3 4 -4 18 -17 32 -24 25 -40 32 -40 17z"/>
<path d="M10620 4490 c0 -5 5 -10 10 -10 6 0 10 5 10 10 0 6 -4 10 -10 10 -5 0 -10 -4 -10 -10z"/>
<path d="M9600 4470 c0 -5 5 -10 10 -10 6 0 10 5 10 10 0 6 -4 10 -10 10 -5 0 -10 -4 -10 -10z"/>
<path d="M10340 4390 c0 -5 5 -10 10 -10 6 0 10 5 10 10 0 6 -4 10 -10 10 -5 0 -10 -4 -10 -10z"/>
<path d="M10250 4305 c-29 -30 -51 -58 -47 -62 8 -7 117 95 117 109 0 18 -18 5 -70 -47z"/>
<path d="M10780 4350 c0 -5 5 -10 10 -10 6 0 10 5 10 10 0 6 -4 10 -10 10 -5 0 -10 -4 -10 -10z"/>
<path d="M10120 4312 c0 -14 49 -56 57 -49 3 4 -4 18 -17 32 -24 25 -40 32 -40 17z"/>
<path d="M10940 4190 c0 -5 5 -10 10 -10 6 0 10 5 10 10 0 6 -4 10 -10 10 -5 0 -10 -4 -10 -10z"/>
<path d="M11100 3990 c0 -5 5 -10 10 -10 6 0 10 5 10 10 0 6 -4 10 -10 10 -5 0 -10 -4 -10 -10z"/>
<path d="M10480 3630 c0 -5 5 -10 10 -10 6 0 10 5 10 10 0 6 -4 10 -10 10 -5 0 -10 -4 -10 -10z"/>
<path d="M11560 3571 c0 -13 29 -35 37 -28 7 8 -15 37 -28 37 -5 0 -9 -4 -9 -9z"/>
<path d="M10620 3490 c0 -5 5 -10 10 -10 6 0 10 5 10 10 0 6 -4 10 -10 10 -5 0 -10 -4 -10 -10z"/>
<path d="M11840 3350 c0 -5 5 -10 10 -10 6 0 10 5 10 10 0 6 -4 10 -10 10 -5 0 -10 -4 -10 -10z"/>
<path d="M10760 3330 c0 -5 5 -10 10 -10 6 0 10 5 10 10 0 6 -4 10 -10 10 -5 0 -10 -4 -10 -10z"/>
<path d="M10800 3230 c0 -5 5 -10 10 -10 6 0 10 5 10 10 0 6 -4 10 -10 10 -5 0 -10 -4 -10 -10z"/>
<path d="M12420 3210 c0 -5 5 -10 10 -10 6 0 10 5 10 10 0 6 -4 10 -10 10 -5 0 -10 -4 -10 -10z"/>
<path d="M12240 3190 c0 -5 5 -10 10 -10 6 0 10 5 10 10 0 6 -4 10 -10 10 -5 0 -10 -4 -10 -10z"/>
<path d="M12380 3130 c0 -5 5 -10 10 -10 6 0 10 5 10 10 0 6 -4 10 -10 10 -5 0 -10 -4 -10 -10z"/>
<path d="M10940 3090 c0 -5 5 -10 10 -10 6 0 10 5 10 10 0 6 -4 10 -10 10 -5 0 -10 -4 -10 -10z"/>
<path d="M12580 3052 c0 -14 149 -156 157 -149 4 4 -26 41 -67 82 -70 71 -90 85 -90 67z"/>
<path d="M12460 2990 c0 -5 5 -10 10 -10 6 0 10 5 10 10 0 6 -4 10 -10 10 -5 0 -10 -4 -10 -10z"/>
<path d="M12100 2972 c0 -14 49 -56 57 -49 3 4 -4 18 -17 32 -24 25 -40 32 -40 17z"/>
<path d="M12060 2932 c0 -14 49 -56 57 -49 3 4 -4 18 -17 32 -24 25 -40 32 -40 17z"/>
<path d="M12600 2932 c0 -14 89 -96 97 -89 4 4 -13 28 -37 52 -42 43 -60 54 -60 37z"/>
<path d="M12560 2892 c0 -14 89 -96 97 -89 4 4 -13 28 -37 52 -42 43 -60 54 -60 37z"/>
<path d="M12840 2890 c0 -5 5 -10 10 -10 6 0 10 5 10 10 0 6 -4 10 -10 10 -5 0 -10 -4 -10 -10z"/>
<path d="M12200 2870 c0 -5 5 -10 10 -10 6 0 10 5 10 10 0 6 -4 10 -10 10 -5 0 -10 -4 -10 -10z"/>
<path d="M11870 2845 c-7 -9 -10 -18 -7 -22 8 -7 37 15 37 28 0 14 -16 11 -30 -6z"/>
<path d="M11880 2792 c0 -14 49 -56 57 -49 3 4 -4 18 -17 32 -24 25 -40 32 -40 17z"/>
<path d="M12240 2770 c0 -5 5 -10 10 -10 6 0 10 5 10 10 0 6 -4 10 -10 10 -5 0 -10 -4 -10 -10z"/>
<path d="M11780 2752 c0 -14 49 -56 57 -49 3 4 -4 18 -17 32 -24 25 -40 32 -40 17z"/>
<path d="M12340 2752 c0 -14 49 -56 57 -49 3 4 -4 18 -17 32 -24 25 -40 32 -40 17z"/>
<path d="M12300 2712 c0 -14 49 -56 57 -49 3 4 -4 18 -17 32 -24 25 -40 32 -40 17z"/>
<path d="M11980 2690 c0 -5 5 -10 10 -10 6 0 10 5 10 10 0 6 -4 10 -10 10 -5 0 -10 -4 -10 -10z"/>
<path d="M11620 2615 c-24 -24 -41 -48 -37 -52 8 -7 97 75 97 89 0 17 -18 6 -60 -37z"/>
<path d="M13060 2590 c0 -5 5 -10 10 -10 6 0 10 5 10 10 0 6 -4 10 -10 10 -5 0 -10 -4 -10 -10z"/>
<path d="M12120 2572 c0 -14 49 -56 57 -49 3 4 -4 18 -17 32 -24 25 -40 32 -40 17z"/>
<path d="M13020 2532 c0 -14 89 -96 97 -89 4 4 -13 28 -37 52 -42 43 -60 54 -60 37z"/>
<path d="M12040 2512 c0 -14 69 -76 77 -69 3 4 -9 23 -27 42 -33 34 -50 43 -50 27z"/>
<path d="M12600 2511 c0 -13 29 -35 37 -28 7 8 -15 37 -28 37 -5 0 -9 -4 -9 -9z"/>
<path d="M12980 2492 c0 -14 89 -96 97 -89 4 4 -13 28 -37 52 -42 43 -60 54 -60 37z"/>
<path d="M11480 2472 c0 -14 329 -336 337 -329 7 8 -315 337 -329 337 -5 0 -8 -3 -8 -8z"/>
<path d="M12560 2472 c0 -14 49 -56 57 -49 3 4 -4 18 -17 32 -24 25 -40 32 -40 17z"/>
<path d="M13220 2431 c0 -13 29 -35 37 -28 7 8 -15 37 -28 37 -5 0 -9 -4 -9 -9z"/>
<path d="M12700 2410 c0 -5 5 -10 10 -10 6 0 10 5 10 10 0 6 -4 10 -10 10 -5 0 -10 -4 -10 -10z"/>
<path d="M13220 2370 c0 -5 5 -10 10 -10 6 0 10 5 10 10 0 6 -4 10 -10 10 -5 0 -10 -4 -10 -10z"/>
<path d="M12360 2352 c0 -14 49 -56 57 -49 3 4 -4 18 -17 32 -24 25 -40 32 -40 17z"/>
<path d="M12740 2310 c0 -5 5 -10 10 -10 6 0 10 5 10 10 0 6 -4 10 -10 10 -5 0 -10 -4 -10 -10z"/>
<path d="M13160 2310 c0 -5 5 -10 10 -10 6 0 10 5 10 10 0 6 -4 10 -10 10 -5 0 -10 -4 -10 -10z"/>
<path d="M12840 2292 c0 -14 49 -56 57 -49 3 4 -4 18 -17 32 -24 25 -40 32 -40 17z"/>
<path d="M12800 2252 c0 -14 49 -56 57 -49 3 4 -4 18 -17 32 -24 25 -40 32 -40 17z"/>
<path d="M13120 2250 c0 -5 5 -10 10 -10 6 0 10 5 10 10 0 6 -4 10 -10 10 -5 0 -10 -4 -10 -10z"/>
<path d="M12340 2232 c0 -14 49 -56 57 -49 3 4 -4 18 -17 32 -24 25 -40 32 -40 17z"/>
<path d="M12480 2230 c0 -5 5 -10 10 -10 6 0 10 5 10 10 0 6 -4 10 -10 10 -5 0 -10 -4 -10 -10z"/>
<path d="M13080 2210 c0 -5 5 -10 10 -10 6 0 10 5 10 10 0 6 -4 10 -10 10 -5 0 -10 -4 -10 -10z"/>
<path d="M13020 2130 c0 -5 5 -10 10 -10 6 0 10 5 10 10 0 6 -4 10 -10 10 -5 0 -10 -4 -10 -10z"/>
<path d="M12620 2112 c0 -14 49 -56 57 -49 3 4 -4 18 -17 32 -24 25 -40 32 -40 17z"/>
<path d="M12540 2050 c0 -5 5 -10 10 -10 6 0 10 5 10 10 0 6 -4 10 -10 10 -5 0 -10 -4 -10 -10z"/>
<path d="M12620 1972 c0 -14 49 -56 57 -49 3 4 -4 18 -17 32 -24 25 -40 32 -40 17z"/>
<path d="M12880 1970 c0 -5 5 -10 10 -10 6 0 10 5 10 10 0 6 -4 10 -10 10 -5 0 -10 -4 -10 -10z"/>
<path d="M12740 1830 c0 -5 5 -10 10 -10 6 0 10 5 10 10 0 6 -4 10 -10 10 -5 0 -10 -4 -10 -10z"/>
<path d="M12660 1730 c0 -5 5 -10 10 -10 6 0 10 5 10 10 0 6 -4 10 -10 10 -5 0 -10 -4 -10 -10z"/>
<path d="M12560 1635 c-13 -14 -20 -28 -17 -32 8 -7 57 35 57 49 0 15 -16 8 -40 -17z"/>
<path d="M12240 1630 c0 -5 5 -10 10 -10 6 0 10 5 10 10 0 6 -4 10 -10 10 -5 0 -10 -4 -10 -10z"/>
<path d="M12480 1550 c0 -5 5 -10 10 -10 6 0 10 5 10 10 0 6 -4 10 -10 10 -5 0 -10 -4 -10 -10z"/>
<path d="M13880 1431 c0 -13 29 -35 37 -28 7 8 -15 37 -28 37 -5 0 -9 -4 -9 -9z"/>
<path d="M14100 1390 c0 -5 5 -10 10 -10 6 0 10 5 10 10 0 6 -4 10 -10 10 -5 0 -10 -4 -10 -10z"/>
<path d="M14040 1370 c0 -5 5 -10 10 -10 6 0 10 5 10 10 0 6 -4 10 -10 10 -5 0 -10 -4 -10 -10z"/>
<path d="M14140 1352 c0 -14 69 -76 77 -69 3 4 -9 23 -27 42 -33 34 -50 43 -50 27z"/>
<path d="M13760 1330 c0 -5 5 -10 10 -10 6 0 10 5 10 10 0 6 -4 10 -10 10 -5 0 -10 -4 -10 -10z"/>
<path d="M14000 1330 c0 -5 5 -10 10 -10 6 0 10 5 10 10 0 6 -4 10 -10 10 -5 0 -10 -4 -10 -10z"/>
<path d="M14080 1330 c0 -5 9 -10 20 -10 11 0 20 5 20 10 0 6 -9 10 -20 10 -11 0 -20 -4 -20 -10z"/>
<path d="M13720 1290 c0 -5 5 -10 10 -10 6 0 10 5 10 10 0 6 -4 10 -10 10 -5 0 -10 -4 -10 -10z"/>
<path d="M13650 1205 c-7 -9 -10 -18 -7 -22 8 -7 37 15 37 28 0 14 -16 11 -30 -6z"/>
<path d="M13600 1150 c0 -5 5 -10 10 -10 6 0 10 5 10 10 0 6 -4 10 -10 10 -5 0 -10 -4 -10 -10z"/>
<path d="M13620 1111 c0 -13 29 -35 37 -28 7 8 -15 37 -28 37 -5 0 -9 -4 -9 -9z"/>
<path d="M13500 1012 c0 -14 89 -96 97 -89 4 4 -13 28 -37 52 -42 43 -60 54 -60 37z"/>
<path d="M13410 945 c-7 -9 -10 -18 -7 -22 8 -7 37 15 37 28 0 14 -16 11 -30 -6z"/>
<path d="M13740 940 c0 -11 5 -20 10 -20 6 0 10 9 10 20 0 11 -4 20 -10 20 -5 0 -10 -9 -10 -20z"/>
<path d="M13700 870 c0 -5 5 -10 10 -10 6 0 10 5 10 10 0 6 -4 10 -10 10 -5 0 -10 -4 -10 -10z"/>
<path d="M13740 870 c0 -5 5 -10 10 -10 6 0 10 5 10 10 0 6 -4 10 -10 10 -5 0 -10 -4 -10 -10z"/>
<path d="M14480 850 c0 -5 5 -10 10 -10 6 0 10 5 10 10 0 6 -4 10 -10 10 -5 0 -10 -4 -10 -10z"/>
<path d="M14460 770 c0 -5 5 -10 10 -10 6 0 10 5 10 10 0 6 -4 10 -10 10 -5 0 -10 -4 -10 -10z"/>
<path d="M14390 665 c-7 -9 -10 -18 -7 -22 8 -7 37 15 37 28 0 14 -16 11 -30 -6z"/>
<path d="M13400 650 c0 -5 5 -10 10 -10 6 0 10 5 10 10 0 6 -4 10 -10 10 -5 0 -10 -4 -10 -10z"/>
<path d="M14140 650 c0 -5 5 -10 10 -10 6 0 10 5 10 10 0 6 -4 10 -10 10 -5 0 -10 -4 -10 -10z"/>
<path d="M14240 591 c0 -13 29 -35 37 -28 7 8 -15 37 -28 37 -5 0 -9 -4 -9 -9z"/>
<path d="M13380 570 c0 -5 5 -10 10 -10 6 0 10 5 10 10 0 6 -4 10 -10 10 -5 0 -10 -4 -10 -10z"/>
<path d="M14160 570 c0 -5 5 -10 10 -10 6 0 10 5 10 10 0 6 -4 10 -10 10 -5 0 -10 -4 -10 -10z"/>
<path d="M14120 520 c0 -11 5 -20 10 -20 6 0 10 9 10 20 0 11 -4 20 -10 20 -5 0 -10 -9 -10 -20z"/>
<path d="M13400 492 c0 -14 69 -76 77 -69 3 4 -9 23 -27 42 -33 34 -50 43 -50 27z"/>
<path d="M14060 491 c0 -13 29 -35 37 -28 7 8 -15 37 -28 37 -5 0 -9 -4 -9 -9z"/>
<path d="M14120 375 c-13 -14 -20 -28 -17 -32 8 -7 57 35 57 49 0 15 -16 8 -40 -17z"/>
<path d="M14010 285 c-7 -9 -10 -18 -7 -22 8 -7 37 15 37 28 0 14 -16 11 -30 -6z"/>
<path d="M14100 290 c0 -5 5 -10 10 -10 6 0 10 5 10 10 0 6 -4 10 -10 10 -5 0 -10 -4 -10 -10z"/>
<path d="M13620 270 c0 -5 5 -10 10 -10 6 0 10 5 10 10 0 6 -4 10 -10 10 -5 0 -10 -4 -10 -10z"/>
<path d="M13960 250 c0 -5 5 -10 10 -10 6 0 10 5 10 10 0 6 -4 10 -10 10 -5 0 -10 -4 -10 -10z"/>
<path d="M13840 230 c0 -5 5 -10 10 -10 6 0 10 5 10 10 0 6 -4 10 -10 10 -5 0 -10 -4 -10 -10z"/>
<path d="M13900 210 c0 -5 5 -10 10 -10 6 0 10 5 10 10 0 6 -4 10 -10 10 -5 0 -10 -4 -10 -10z"/>
</g>
</g>
</svg>
