<svg xmlns="http://www.w3.org/2000/svg" version="1.0" width="1240.000000pt" height="200.000000pt" viewBox="0 0 1240.000000 200.000000" preserveAspectRatio="xMidYMid meet">
  <g transform="translate(0.000000,200.000000) scale(0.100000,-0.100000)" stroke="none">
    <mask id="mask-1">
      <g>
        <path d="M 0 0 H 12400.0 V 2000.0 H 0 Z" fill="white" id="background"/>
        <path d="M10284 1005 c3 -8 3 -21 0 -29 -3 -9 3 -20 15 -28 12 -7 21 -21 21 -31 0 -9 16 -51 36 -92 19 -40 34 -84 32 -96 -3 -21 -7 -22 -128 -22 -83 0 -125 4 -128 12 -5 15 27 108 50 146 10 16 18 40 18 51 0 12 6 27 14 33 7 6 16 25 20 41 6 33 39 42 50 15z" fill="black"/>
      </g>
    </mask>
    <mask id="mask-0">
      <g>
        <path d="M 0 0 H 12400.0 V 2000.0 H 0 Z" fill="white" id="background"/>
        <path d="M7134 1405 c97 -46 149 -109 197 -235 31 -80 9 -319 -33 -364 -10 -11 -18 -25 -18 -32 0 -25 -119 -122 -175 -143 -71 -27 -220 -29 -291 -5 -103 35 -192 124 -230 231 -21 59 -32 269 -15 286 6 6 11 21 11 33 0 13 5 26 10 29 6 3 10 12 10 20 0 47 133 180 192 192 16 3 31 10 34 14 3 5 57 9 120 9 111 0 118 -1 188 -35z" fill="black"/>
        <path d="M8478 1425 c59 -18 108 -65 128 -122 18 -49 17 -177 0 -227 -7 -21 -31 -56 -53 -77 -33 -31 -52 -40 -104 -49 -35 -6 -99 -10 -142 -8 l-78 3 0 243 c1 133 1 244 1 247 0 12 200 4 248 -10z" fill="black"/>
        <path d="M10284 1005 c3 -8 3 -21 0 -29 -3 -9 3 -20 15 -28 12 -7 21 -21 21 -31 0 -9 16 -51 36 -92 19 -40 34 -84 32 -96 -3 -21 -7 -22 -128 -22 -83 0 -125 4 -128 12 -5 15 27 108 50 146 10 16 18 40 18 51 0 12 6 27 14 33 7 6 16 25 20 41 6 33 39 42 50 15z" fill="black"/>
      </g>
    </mask>
    <path stroke="none" d="M567 1803 c-59 -9 -84 -107 -52 -198 8 -22 15 -48 15 -57 0 -15 31 -82 85 -186 9 -18 21 -29 27 -25 7 4 9 0 5 -10 -4 -11 7 -31 33 -59 54 -59 78 -104 63 -119 -9 -9 -16 -9 -26 -1 -19 16 -281 23 -381 11 -79 -10 -177 -46 -193 -71 -4 -7 -17 -18 -28 -24 -51 -28 -13 -134 47 -134 17 0 28 -6 30 -17 7 -37 255 -72 380 -54 138 20 143 19 146 -8 4 -25 -25 -91 -45 -104 -7 -4 -13 -12 -13 -17 0 -6 -15 -30 -34 -54 -67 -88 -115 -218 -123 -331 -4 -52 -2 -63 16 -79 12 -11 21 -25 21 -31 0 -18 27 -26 57 -19 35 9 113 54 113 65 0 5 6 9 13 9 16 0 67 52 67 68 0 7 8 20 18 31 45 48 71 84 67 91 -3 5 6 21 20 36 14 15 25 32 25 39 0 7 7 26 15 41 8 16 15 36 15 44 0 25 21 40 55 40 33 0 55 -28 55 -70 0 -10 5 -22 10 -25 6 -3 10 -14 10 -24 0 -10 11 -30 25 -45 14 -15 25 -35 25 -44 0 -9 18 -36 40 -60 22 -24 40 -50 40 -58 0 -9 9 -18 19 -21 11 -3 21 -13 24 -24 3 -11 14 -19 26 -19 12 0 20 -5 18 -11 -4 -18 110 -72 138 -65 14 4 25 12 25 20 0 7 9 21 21 32 18 16 20 27 16 79 -8 111 -36 191 -113 322 -10 18 -22 33 -26 33 -5 0 -8 9 -8 19 0 13 -8 21 -22 23 -13 2 -22 9 -20 17 1 7 -4 24 -13 38 -9 13 -15 36 -13 51 3 30 2 30 128 12 81 -12 185 -9 200 6 5 5 12 63 15 129 9 172 7 168 58 162 68 -8 116 -23 158 -51 21 -15 39 -23 39 -19 0 5 9 -10 19 -32 21 -48 12 -79 -34 -116 -52 -42 -100 -61 -194 -76 -25 -4 -36 -13 -46 -37 -12 -30 -37 -462 -30 -516 2 -14 4 -28 4 -32 1 -3 80 -7 176 -8 l176 -1 13 33 c9 21 18 129 26 301 10 208 16 270 27 274 22 9 83 -25 76 -43 -4 -10 2 -17 15 -21 11 -2 23 -14 25 -25 4 -14 11 -19 21 -15 11 5 16 0 16 -13 0 -10 46 -66 103 -125 56 -59 105 -115 109 -126 14 -36 37 -34 72 7 18 22 56 64 84 94 29 30 52 60 52 66 0 7 9 14 20 17 11 3 20 12 20 21 0 8 10 26 23 38 12 13 44 47 70 76 48 52 72 61 88 32 4 -8 13 -123 19 -255 7 -132 15 -260 19 -285 l6 -45 185 0 185 0 3 60 c2 33 -2 130 -8 215 -6 85 -15 238 -20 340 -5 102 -17 298 -26 435 -8 138 -17 300 -18 360 -2 61 -7 110 -12 110 -5 0 -27 -20 -49 -45 -22 -24 -57 -62 -77 -83 -20 -21 -40 -47 -43 -58 -4 -10 -12 -19 -20 -19 -8 0 -16 -9 -20 -20 -3 -11 -23 -37 -43 -58 -110 -113 -202 -218 -202 -229 0 -7 -6 -13 -14 -13 -8 0 -17 -9 -21 -20 -3 -11 -23 -37 -43 -58 -20 -21 -69 -73 -109 -115 -39 -42 -77 -77 -85 -77 -7 0 -21 7 -31 15 -11 7 -26 11 -34 8 -12 -5 -14 -1 -9 15 7 21 1 28 -196 234 -20 21 -40 48 -43 59 -4 13 -12 18 -22 15 -10 -4 -13 -2 -10 8 3 8 -3 22 -14 32 -11 10 -19 12 -19 6 0 -7 -5 -12 -11 -12 -6 0 -8 8 -4 19 5 17 -33 62 -197 233 -20 21 -40 47 -43 59 -5 14 -12 18 -27 13 -16 -5 -19 -2 -14 13 5 18 -34 73 -52 73 -14 0 -18 -42 -37 -345 -10 -148 -19 -271 -20 -273 -1 -1 -75 -5 -163 -7 -89 -2 -170 -9 -181 -15 -71 -38 -43 44 50 143 9 11 15 25 12 33 -3 8 1 14 10 14 8 0 20 14 27 30 7 17 16 30 21 30 5 0 12 12 15 28 4 15 17 50 29 77 27 60 45 141 45 198 0 47 -32 94 -65 98 -56 6 -104 -14 -157 -65 -66 -62 -138 -149 -138 -166 0 -7 -11 -25 -25 -42 -14 -16 -25 -36 -25 -45 0 -8 -6 -27 -14 -41 -7 -15 -19 -39 -26 -54 -11 -23 -20 -28 -48 -28 -38 0 -61 21 -62 56 0 12 -7 27 -15 34 -8 7 -15 20 -15 30 0 9 -8 28 -17 41 -10 13 -27 41 -38 63 -29 58 -180 206 -210 206 -13 0 -27 5 -30 10 -3 6 -9 9 -13 9 -4 -1 -20 -4 -35 -6z" fill="#000000" id="000000-000003" mask="url(#mask-0)"/>
    <path stroke="none" d="M1046 1134 c31 -18 52 -24 69 -20 33 8 43 -15 21 -46 -21 -30 -20 -56 5 -102 24 -45 15 -57 -38 -49 -37 6 -65 -10 -61 -36 2 -13 -6 -16 -42 -16 -36 0 -45 3 -45 18 0 25 -23 37 -72 37 -46 0 -51 6 -28 36 19 24 19 94 1 120 -19 25 -2 48 25 34 14 -8 29 -3 65 20 27 16 50 30 52 30 2 0 23 -12 48 -26z" fill="#000000" id="000000-000001" mask="url(#mask-0)"/>
    <path stroke="none" d="M4551 1688 c-6 -62 -16 -205 -22 -318 -5 -113 -12 -245 -15 -295 -3 -49 -11 -184 -17 -300 -11 -189 -14 -210 -30 -213 -10 -2 -30 5 -45 15 -24 16 -59 18 -357 23 l-330 5 0 80 0 80 273 3 273 2 -3 158 -3 157 -262 0 c-173 0 -266 4 -273 11 -7 7 -10 69 -8 180 l3 169 324 2 c178 1 326 5 330 10 3 4 5 79 3 166 l-3 157 -525 0 -524 0 2 -752 3 -753 747 0 c410 0 750 3 754 8 8 8 17 130 29 420 6 129 11 170 21 174 22 8 81 -24 87 -48 3 -12 10 -18 16 -15 5 4 11 -4 13 -16 2 -13 10 -23 18 -23 8 0 16 -5 18 -10 7 -23 39 -62 120 -147 48 -49 90 -98 94 -109 15 -39 38 -34 83 17 23 27 61 69 84 94 22 25 41 50 41 56 0 7 9 14 20 17 11 3 20 11 20 19 0 8 33 49 73 92 111 119 109 122 124 -164 7 -129 16 -264 20 -300 l8 -65 182 -2 c131 -1 184 1 190 10 5 7 4 98 -3 217 -6 113 -13 243 -15 290 l-4 85 28 3 c35 4 57 -13 57 -45 0 -13 9 -41 20 -63 11 -22 20 -48 20 -58 0 -10 9 -27 20 -37 11 -10 20 -26 20 -36 0 -34 186 -224 255 -260 22 -11 51 -27 65 -34 120 -63 293 -100 425 -91 96 6 238 38 297 68 24 11 54 26 66 32 13 5 35 21 48 33 14 13 31 23 38 23 22 0 165 146 181 183 8 18 21 39 29 46 20 16 44 66 56 111 5 19 15 53 24 75 8 22 15 54 16 72 0 51 9 63 46 63 20 0 34 -5 35 -12 0 -7 0 -157 -1 -334 -1 -276 1 -323 14 -333 12 -10 60 -12 193 -9 l178 3 3 173 2 172 78 0 78 0 37 -44 c20 -25 37 -51 37 -59 0 -8 11 -27 25 -43 14 -16 25 -33 25 -38 0 -5 15 -29 33 -55 19 -26 37 -58 40 -73 9 -36 42 -40 261 -37 l181 3 -19 41 c-11 22 -28 49 -38 59 -10 11 -18 25 -18 32 0 6 -9 14 -19 17 -13 3 -18 11 -15 24 3 11 -4 27 -20 42 -14 14 -26 31 -26 39 0 16 -36 71 -58 89 -9 7 -17 21 -18 30 0 10 -5 30 -9 45 -6 24 -3 28 28 41 44 19 125 99 143 143 7 18 18 35 23 38 5 3 20 39 33 78 19 61 23 94 23 203 0 81 -5 145 -13 170 -21 62 -75 167 -89 172 -7 3 -13 13 -13 22 0 24 -19 41 -38 34 -10 -4 -13 -2 -8 6 10 16 -12 41 -30 34 -8 -3 -14 1 -14 10 0 9 -8 18 -19 22 -10 3 -29 14 -41 25 -13 11 -30 20 -39 20 -9 0 -26 7 -37 15 -12 7 -66 23 -122 35 -88 18 -137 20 -410 20 -259 0 -311 -2 -315 -14 -3 -8 -6 -153 -6 -322 0 -178 -4 -311 -9 -316 -5 -5 -22 -8 -38 -6 -26 3 -29 7 -36 52 -4 27 -12 63 -18 80 -56 148 -92 206 -195 310 -54 55 -119 106 -134 106 -9 0 -24 9 -34 20 -9 11 -27 20 -39 20 -12 0 -29 6 -37 14 -22 19 -140 53 -231 66 -93 14 -234 4 -315 -21 -33 -10 -66 -19 -74 -19 -24 0 -153 -68 -205 -108 -27 -20 -57 -42 -68 -48 -31 -18 -68 -57 -68 -70 0 -7 -18 -32 -40 -56 -22 -24 -40 -53 -40 -65 0 -13 -6 -23 -14 -23 -7 0 -16 -8 -19 -17 -4 -10 -13 -36 -22 -58 -14 -36 -28 -94 -42 -180 -3 -16 -6 -57 -8 -90 -2 -33 -4 -64 -4 -68 -1 -5 -16 -7 -33 -5 -32 3 -33 4 -35 53 -2 28 -10 172 -18 320 -9 149 -17 313 -18 365 -2 59 -7 95 -13 95 -6 0 -24 -16 -40 -35 -16 -19 -53 -59 -81 -89 -29 -30 -53 -60 -53 -68 0 -7 -6 -13 -14 -13 -8 0 -17 -9 -21 -20 -3 -11 -37 -52 -75 -92 -149 -159 -170 -183 -170 -195 0 -7 -6 -13 -14 -13 -8 0 -17 -8 -21 -19 -10 -34 -217 -251 -239 -251 -7 0 -62 53 -122 117 -60 64 -126 134 -146 155 -21 21 -38 44 -38 52 0 7 -7 19 -15 26 -10 9 -15 9 -15 1 0 -6 -4 -11 -10 -11 -5 0 -7 7 -4 15 8 21 -16 51 -27 33 -4 -7 -11 -9 -16 -5 -4 5 -2 12 6 16 12 8 -38 66 -201 233 -21 21 -38 44 -38 52 0 7 -7 19 -15 26 -10 9 -15 9 -15 1 0 -6 -5 -11 -11 -11 -6 0 -8 7 -5 16 6 15 -38 84 -54 84 -4 0 -13 -51 -19 -112z" fill="#000000" id="000000-000005" mask="url(#mask-0)"/>
    <path stroke="none" d="M10257 1794 c-4 -4 -7 -17 -7 -28 0 -12 -9 -29 -20 -39 -11 -9 -20 -26 -20 -38 0 -11 -9 -32 -20 -46 -11 -14 -20 -32 -20 -40 0 -8 -9 -26 -20 -40 -11 -14 -20 -34 -20 -43 0 -10 -7 -23 -15 -30 -8 -7 -15 -17 -15 -23 0 -11 -32 -85 -53 -122 -12 -23 -12 -22 -102 -210 -37 -77 -73 -152 -81 -167 -8 -14 -14 -35 -14 -45 0 -10 -9 -27 -21 -37 -12 -10 -19 -25 -16 -36 3 -11 -4 -26 -19 -39 -13 -12 -24 -30 -24 -42 0 -11 -9 -32 -20 -46 -11 -14 -20 -32 -20 -40 0 -8 -9 -26 -20 -40 -11 -14 -20 -34 -20 -43 0 -10 -7 -23 -15 -30 -8 -7 -15 -17 -15 -23 0 -10 -30 -80 -51 -119 -14 -28 -26 -51 -40 -81 -10 -22 -19 -27 -38 -25 l-26 3 -3 728 -2 727 -189 0 c-156 0 -190 -3 -194 -15 -3 -7 -6 -342 -7 -743 0 -593 2 -731 13 -740 17 -14 762 -16 788 -1 10 5 24 28 30 52 7 23 19 48 28 55 11 9 86 12 297 12 300 0 306 -1 309 -50 1 -10 12 -31 26 -48 l24 -30 725 2 725 1 3 151 c2 118 0 154 -11 162 -9 8 -112 13 -323 14 l-309 3 -3 588 -2 587 -195 0 -195 0 -2 -707 c-3 -667 -4 -708 -21 -711 -9 -2 -31 2 -47 10 -23 10 -28 17 -24 34 4 15 -2 30 -15 43 -12 12 -20 28 -19 35 3 11 -32 85 -173 368 -22 43 -39 84 -39 92 0 7 -7 19 -15 26 -8 7 -15 20 -15 30 0 9 -9 29 -20 43 -11 14 -20 32 -20 40 0 8 -9 26 -20 40 -11 14 -20 35 -20 46 0 12 -10 31 -22 43 -12 12 -22 33 -23 46 0 13 -10 31 -20 39 -11 8 -19 21 -17 29 2 8 -26 75 -62 148 -37 74 -66 138 -66 142 0 5 -9 20 -20 34 -11 14 -20 31 -20 38 0 8 -8 26 -19 40 -10 15 -20 36 -22 47 -4 20 -29 31 -42 19z" fill="#000000" id="000000-000006" mask="url(#mask-1)"/>
  </g>
</svg>
