<svg xmlns="http://www.w3.org/2000/svg" version="1.0" width="5468.000000pt" height="2676.000000pt" viewBox="0 0 5468.000000 2676.000000" preserveAspectRatio="xMidYMid meet">
  <g transform="translate(0.000000,2676.000000) scale(0.100000,-0.100000)" stroke="none">
    <mask id="mask-15">
      <g>
        <path d="M 0 0 H 54680.0 V 26760.0 H 0 Z" fill="white" id="background"/>
        <path d="M44869 6049 c184 -59 272 -191 271 -407 -1 -185 -79 -332 -192 -363 -50 -13 -236 -6 -268 11 -20 10 -20 18 -20 380 l0 368 28 10 c37 14 138 14 181 1z" fill="black"/>
      </g>
    </mask>
    <mask id="mask-14">
      <g>
        <path d="M 0 0 H 54680.0 V 26760.0 H 0 Z" fill="white" id="background"/>
        <path d="M35429 6049 c184 -59 272 -191 271 -407 -1 -185 -79 -332 -192 -363 -50 -13 -236 -6 -268 11 -20 10 -20 18 -20 380 l0 368 28 10 c37 14 138 14 181 1z" fill="black"/>
        <path d="M44869 6049 c184 -59 272 -191 271 -407 -1 -185 -79 -332 -192 -363 -50 -13 -236 -6 -268 11 -20 10 -20 18 -20 380 l0 368 28 10 c37 14 138 14 181 1z" fill="black"/>
      </g>
    </mask>
    <mask id="mask-13">
      <g>
        <path d="M 0 0 H 54680.0 V 26760.0 H 0 Z" fill="white" id="background"/>
        <path d="M27589 6049 c184 -59 272 -191 271 -407 -1 -185 -79 -332 -192 -363 -50 -13 -236 -6 -268 11 -20 10 -20 18 -20 380 l0 368 28 10 c37 14 138 14 181 1z" fill="black"/>
        <path d="M35429 6049 c184 -59 272 -191 271 -407 -1 -185 -79 -332 -192 -363 -50 -13 -236 -6 -268 11 -20 10 -20 18 -20 380 l0 368 28 10 c37 14 138 14 181 1z" fill="black"/>
        <path d="M44869 6049 c184 -59 272 -191 271 -407 -1 -185 -79 -332 -192 -363 -50 -13 -236 -6 -268 11 -20 10 -20 18 -20 380 l0 368 28 10 c37 14 138 14 181 1z" fill="black"/>
      </g>
    </mask>
    <mask id="mask-12">
      <g>
        <path d="M 0 0 H 54680.0 V 26760.0 H 0 Z" fill="white" id="background"/>
        <path d="M8465 6044 c50 -8 105 -18 123 -21 18 -3 35 -9 38 -14 3 -5 14 -9 24 -9 35 0 175 -80 238 -137 109 -97 192 -232 222 -363 7 -30 16 -68 21 -84 12 -40 11 -255 -1 -335 -27 -168 -65 -255 -153 -347 -53 -56 -85 -80 -150 -112 -102 -49 -130 -58 -243 -72 -187 -25 -386 10 -428 75 -32 49 -36 153 -34 785 l3 624 45 12 c64 17 189 16 295 -2z" fill="black"/>
        <path d="M27589 6049 c184 -59 272 -191 271 -407 -1 -185 -79 -332 -192 -363 -50 -13 -236 -6 -268 11 -20 10 -20 18 -20 380 l0 368 28 10 c37 14 138 14 181 1z" fill="black"/>
        <path d="M35429 6049 c184 -59 272 -191 271 -407 -1 -185 -79 -332 -192 -363 -50 -13 -236 -6 -268 11 -20 10 -20 18 -20 380 l0 368 28 10 c37 14 138 14 181 1z" fill="black"/>
        <path d="M44869 6049 c184 -59 272 -191 271 -407 -1 -185 -79 -332 -192 -363 -50 -13 -236 -6 -268 11 -20 10 -20 18 -20 380 l0 368 28 10 c37 14 138 14 181 1z" fill="black"/>
      </g>
    </mask>
    <mask id="mask-11">
      <g>
        <path d="M 0 0 H 54680.0 V 26760.0 H 0 Z" fill="white" id="background"/>
        <path d="M46989 5628 c18 -51 41 -117 52 -145 10 -29 28 -77 38 -105 11 -29 31 -84 46 -122 14 -38 24 -75 21 -82 -4 -11 -46 -14 -205 -14 -223 0 -224 0 -194 68 25 59 31 74 48 127 9 28 22 64 30 80 7 17 18 46 25 65 15 43 30 79 41 102 5 10 9 25 9 33 0 8 4 23 9 33 5 9 12 25 15 35 12 38 33 14 65 -75z" fill="black"/>
        <path d="M8465 6044 c50 -8 105 -18 123 -21 18 -3 35 -9 38 -14 3 -5 14 -9 24 -9 35 0 175 -80 238 -137 109 -97 192 -232 222 -363 7 -30 16 -68 21 -84 12 -40 11 -255 -1 -335 -27 -168 -65 -255 -153 -347 -53 -56 -85 -80 -150 -112 -102 -49 -130 -58 -243 -72 -187 -25 -386 10 -428 75 -32 49 -36 153 -34 785 l3 624 45 12 c64 17 189 16 295 -2z" fill="black"/>
        <path d="M27589 6049 c184 -59 272 -191 271 -407 -1 -185 -79 -332 -192 -363 -50 -13 -236 -6 -268 11 -20 10 -20 18 -20 380 l0 368 28 10 c37 14 138 14 181 1z" fill="black"/>
        <path d="M35429 6049 c184 -59 272 -191 271 -407 -1 -185 -79 -332 -192 -363 -50 -13 -236 -6 -268 11 -20 10 -20 18 -20 380 l0 368 28 10 c37 14 138 14 181 1z" fill="black"/>
        <path d="M44869 6049 c184 -59 272 -191 271 -407 -1 -185 -79 -332 -192 -363 -50 -13 -236 -6 -268 11 -20 10 -20 18 -20 380 l0 368 28 10 c37 14 138 14 181 1z" fill="black"/>
      </g>
    </mask>
    <mask id="mask-10">
      <g>
        <path d="M 0 0 H 54680.0 V 26760.0 H 0 Z" fill="white" id="background"/>
        <path d="M5549 5628 c18 -51 41 -117 52 -145 10 -29 28 -77 38 -105 11 -29 31 -84 46 -122 14 -38 24 -75 21 -82 -4 -11 -46 -14 -205 -14 -223 0 -224 0 -194 68 25 59 31 74 48 127 9 28 22 64 30 80 7 17 18 46 25 65 15 43 30 79 41 102 5 10 9 25 9 33 0 8 4 23 9 33 5 9 12 25 15 35 12 38 33 14 65 -75z" fill="black"/>
        <path d="M46989 5628 c18 -51 41 -117 52 -145 10 -29 28 -77 38 -105 11 -29 31 -84 46 -122 14 -38 24 -75 21 -82 -4 -11 -46 -14 -205 -14 -223 0 -224 0 -194 68 25 59 31 74 48 127 9 28 22 64 30 80 7 17 18 46 25 65 15 43 30 79 41 102 5 10 9 25 9 33 0 8 4 23 9 33 5 9 12 25 15 35 12 38 33 14 65 -75z" fill="black"/>
        <path d="M8465 6044 c50 -8 105 -18 123 -21 18 -3 35 -9 38 -14 3 -5 14 -9 24 -9 35 0 175 -80 238 -137 109 -97 192 -232 222 -363 7 -30 16 -68 21 -84 12 -40 11 -255 -1 -335 -27 -168 -65 -255 -153 -347 -53 -56 -85 -80 -150 -112 -102 -49 -130 -58 -243 -72 -187 -25 -386 10 -428 75 -32 49 -36 153 -34 785 l3 624 45 12 c64 17 189 16 295 -2z" fill="black"/>
        <path d="M27589 6049 c184 -59 272 -191 271 -407 -1 -185 -79 -332 -192 -363 -50 -13 -236 -6 -268 11 -20 10 -20 18 -20 380 l0 368 28 10 c37 14 138 14 181 1z" fill="black"/>
        <path d="M35429 6049 c184 -59 272 -191 271 -407 -1 -185 -79 -332 -192 -363 -50 -13 -236 -6 -268 11 -20 10 -20 18 -20 380 l0 368 28 10 c37 14 138 14 181 1z" fill="black"/>
        <path d="M44869 6049 c184 -59 272 -191 271 -407 -1 -185 -79 -332 -192 -363 -50 -13 -236 -6 -268 11 -20 10 -20 18 -20 380 l0 368 28 10 c37 14 138 14 181 1z" fill="black"/>
      </g>
    </mask>
    <mask id="mask-9">
      <g>
        <path d="M 0 0 H 54680.0 V 26760.0 H 0 Z" fill="white" id="background"/>
        <path d="M39573 5340 c48 -69 303 -339 442 -469 91 -85 164 -159 162 -165 -2 -5 -12 -14 -23 -20 -10 -6 -30 -18 -44 -27 -102 -65 -294 -98 -389 -68 -104 33 -190 94 -241 169 -22 32 -40 64 -40 70 0 5 -4 18 -9 28 -18 32 -31 110 -31 179 0 112 36 214 101 288 35 40 52 43 72 15z" fill="black"/>
        <path d="M5549 5628 c18 -51 41 -117 52 -145 10 -29 28 -77 38 -105 11 -29 31 -84 46 -122 14 -38 24 -75 21 -82 -4 -11 -46 -14 -205 -14 -223 0 -224 0 -194 68 25 59 31 74 48 127 9 28 22 64 30 80 7 17 18 46 25 65 15 43 30 79 41 102 5 10 9 25 9 33 0 8 4 23 9 33 5 9 12 25 15 35 12 38 33 14 65 -75z" fill="black"/>
        <path d="M46989 5628 c18 -51 41 -117 52 -145 10 -29 28 -77 38 -105 11 -29 31 -84 46 -122 14 -38 24 -75 21 -82 -4 -11 -46 -14 -205 -14 -223 0 -224 0 -194 68 25 59 31 74 48 127 9 28 22 64 30 80 7 17 18 46 25 65 15 43 30 79 41 102 5 10 9 25 9 33 0 8 4 23 9 33 5 9 12 25 15 35 12 38 33 14 65 -75z" fill="black"/>
        <path d="M8465 6044 c50 -8 105 -18 123 -21 18 -3 35 -9 38 -14 3 -5 14 -9 24 -9 35 0 175 -80 238 -137 109 -97 192 -232 222 -363 7 -30 16 -68 21 -84 12 -40 11 -255 -1 -335 -27 -168 -65 -255 -153 -347 -53 -56 -85 -80 -150 -112 -102 -49 -130 -58 -243 -72 -187 -25 -386 10 -428 75 -32 49 -36 153 -34 785 l3 624 45 12 c64 17 189 16 295 -2z" fill="black"/>
        <path d="M27589 6049 c184 -59 272 -191 271 -407 -1 -185 -79 -332 -192 -363 -50 -13 -236 -6 -268 11 -20 10 -20 18 -20 380 l0 368 28 10 c37 14 138 14 181 1z" fill="black"/>
        <path d="M35429 6049 c184 -59 272 -191 271 -407 -1 -185 -79 -332 -192 -363 -50 -13 -236 -6 -268 11 -20 10 -20 18 -20 380 l0 368 28 10 c37 14 138 14 181 1z" fill="black"/>
        <path d="M44869 6049 c184 -59 272 -191 271 -407 -1 -185 -79 -332 -192 -363 -50 -13 -236 -6 -268 11 -20 10 -20 18 -20 380 l0 368 28 10 c37 14 138 14 181 1z" fill="black"/>
      </g>
    </mask>
    <mask id="mask-8">
      <g>
        <path d="M 0 0 H 54680.0 V 26760.0 H 0 Z" fill="white" id="background"/>
        <path d="M29790 6065 c126 -45 226 -121 300 -230 73 -108 99 -169 136 -315 32 -129 27 -437 -10 -552 -7 -24 -19 -63 -27 -88 -18 -58 -95 -176 -143 -217 -41 -37 -91 -64 -163 -90 -60 -22 -237 -24 -303 -4 -182 55 -315 170 -409 349 -98 186 -127 485 -73 742 49 231 192 381 402 424 49 9 245 -3 290 -19z" fill="black"/>
        <path d="M39573 5340 c48 -69 303 -339 442 -469 91 -85 164 -159 162 -165 -2 -5 -12 -14 -23 -20 -10 -6 -30 -18 -44 -27 -102 -65 -294 -98 -389 -68 -104 33 -190 94 -241 169 -22 32 -40 64 -40 70 0 5 -4 18 -9 28 -18 32 -31 110 -31 179 0 112 36 214 101 288 35 40 52 43 72 15z" fill="black"/>
        <path d="M5549 5628 c18 -51 41 -117 52 -145 10 -29 28 -77 38 -105 11 -29 31 -84 46 -122 14 -38 24 -75 21 -82 -4 -11 -46 -14 -205 -14 -223 0 -224 0 -194 68 25 59 31 74 48 127 9 28 22 64 30 80 7 17 18 46 25 65 15 43 30 79 41 102 5 10 9 25 9 33 0 8 4 23 9 33 5 9 12 25 15 35 12 38 33 14 65 -75z" fill="black"/>
        <path d="M46989 5628 c18 -51 41 -117 52 -145 10 -29 28 -77 38 -105 11 -29 31 -84 46 -122 14 -38 24 -75 21 -82 -4 -11 -46 -14 -205 -14 -223 0 -224 0 -194 68 25 59 31 74 48 127 9 28 22 64 30 80 7 17 18 46 25 65 15 43 30 79 41 102 5 10 9 25 9 33 0 8 4 23 9 33 5 9 12 25 15 35 12 38 33 14 65 -75z" fill="black"/>
        <path d="M8465 6044 c50 -8 105 -18 123 -21 18 -3 35 -9 38 -14 3 -5 14 -9 24 -9 35 0 175 -80 238 -137 109 -97 192 -232 222 -363 7 -30 16 -68 21 -84 12 -40 11 -255 -1 -335 -27 -168 -65 -255 -153 -347 -53 -56 -85 -80 -150 -112 -102 -49 -130 -58 -243 -72 -187 -25 -386 10 -428 75 -32 49 -36 153 -34 785 l3 624 45 12 c64 17 189 16 295 -2z" fill="black"/>
        <path d="M27589 6049 c184 -59 272 -191 271 -407 -1 -185 -79 -332 -192 -363 -50 -13 -236 -6 -268 11 -20 10 -20 18 -20 380 l0 368 28 10 c37 14 138 14 181 1z" fill="black"/>
        <path d="M35429 6049 c184 -59 272 -191 271 -407 -1 -185 -79 -332 -192 -363 -50 -13 -236 -6 -268 11 -20 10 -20 18 -20 380 l0 368 28 10 c37 14 138 14 181 1z" fill="black"/>
        <path d="M44869 6049 c184 -59 272 -191 271 -407 -1 -185 -79 -332 -192 -363 -50 -13 -236 -6 -268 11 -20 10 -20 18 -20 380 l0 368 28 10 c37 14 138 14 181 1z" fill="black"/>
      </g>
    </mask>
    <mask id="mask-7">
      <g>
        <path d="M 0 0 H 54680.0 V 26760.0 H 0 Z" fill="white" id="background"/>
        <path d="M23230 6065 c126 -45 226 -121 300 -230 73 -108 99 -169 136 -315 32 -129 27 -437 -10 -552 -7 -24 -19 -63 -27 -88 -18 -58 -95 -176 -143 -217 -41 -37 -91 -64 -163 -90 -60 -22 -237 -24 -303 -4 -182 55 -315 170 -409 349 -98 186 -127 485 -73 742 49 231 192 381 402 424 49 9 245 -3 290 -19z" fill="black"/>
        <path d="M29790 6065 c126 -45 226 -121 300 -230 73 -108 99 -169 136 -315 32 -129 27 -437 -10 -552 -7 -24 -19 -63 -27 -88 -18 -58 -95 -176 -143 -217 -41 -37 -91 -64 -163 -90 -60 -22 -237 -24 -303 -4 -182 55 -315 170 -409 349 -98 186 -127 485 -73 742 49 231 192 381 402 424 49 9 245 -3 290 -19z" fill="black"/>
        <path d="M39573 5340 c48 -69 303 -339 442 -469 91 -85 164 -159 162 -165 -2 -5 -12 -14 -23 -20 -10 -6 -30 -18 -44 -27 -102 -65 -294 -98 -389 -68 -104 33 -190 94 -241 169 -22 32 -40 64 -40 70 0 5 -4 18 -9 28 -18 32 -31 110 -31 179 0 112 36 214 101 288 35 40 52 43 72 15z" fill="black"/>
        <path d="M5549 5628 c18 -51 41 -117 52 -145 10 -29 28 -77 38 -105 11 -29 31 -84 46 -122 14 -38 24 -75 21 -82 -4 -11 -46 -14 -205 -14 -223 0 -224 0 -194 68 25 59 31 74 48 127 9 28 22 64 30 80 7 17 18 46 25 65 15 43 30 79 41 102 5 10 9 25 9 33 0 8 4 23 9 33 5 9 12 25 15 35 12 38 33 14 65 -75z" fill="black"/>
        <path d="M46989 5628 c18 -51 41 -117 52 -145 10 -29 28 -77 38 -105 11 -29 31 -84 46 -122 14 -38 24 -75 21 -82 -4 -11 -46 -14 -205 -14 -223 0 -224 0 -194 68 25 59 31 74 48 127 9 28 22 64 30 80 7 17 18 46 25 65 15 43 30 79 41 102 5 10 9 25 9 33 0 8 4 23 9 33 5 9 12 25 15 35 12 38 33 14 65 -75z" fill="black"/>
        <path d="M8465 6044 c50 -8 105 -18 123 -21 18 -3 35 -9 38 -14 3 -5 14 -9 24 -9 35 0 175 -80 238 -137 109 -97 192 -232 222 -363 7 -30 16 -68 21 -84 12 -40 11 -255 -1 -335 -27 -168 -65 -255 -153 -347 -53 -56 -85 -80 -150 -112 -102 -49 -130 -58 -243 -72 -187 -25 -386 10 -428 75 -32 49 -36 153 -34 785 l3 624 45 12 c64 17 189 16 295 -2z" fill="black"/>
        <path d="M27589 6049 c184 -59 272 -191 271 -407 -1 -185 -79 -332 -192 -363 -50 -13 -236 -6 -268 11 -20 10 -20 18 -20 380 l0 368 28 10 c37 14 138 14 181 1z" fill="black"/>
        <path d="M35429 6049 c184 -59 272 -191 271 -407 -1 -185 -79 -332 -192 -363 -50 -13 -236 -6 -268 11 -20 10 -20 18 -20 380 l0 368 28 10 c37 14 138 14 181 1z" fill="black"/>
        <path d="M44869 6049 c184 -59 272 -191 271 -407 -1 -185 -79 -332 -192 -363 -50 -13 -236 -6 -268 11 -20 10 -20 18 -20 380 l0 368 28 10 c37 14 138 14 181 1z" fill="black"/>
      </g>
    </mask>
    <mask id="mask-6">
      <g>
        <path d="M 0 0 H 54680.0 V 26760.0 H 0 Z" fill="white" id="background"/>
        <path d="M17830 6065 c126 -45 226 -121 300 -230 73 -108 99 -169 136 -315 32 -129 27 -437 -10 -552 -7 -24 -19 -63 -27 -88 -18 -58 -95 -176 -143 -217 -41 -37 -91 -64 -163 -90 -60 -22 -237 -24 -303 -4 -182 55 -315 170 -409 349 -98 186 -127 485 -73 742 49 231 192 381 402 424 49 9 245 -3 290 -19z" fill="black"/>
        <path d="M23230 6065 c126 -45 226 -121 300 -230 73 -108 99 -169 136 -315 32 -129 27 -437 -10 -552 -7 -24 -19 -63 -27 -88 -18 -58 -95 -176 -143 -217 -41 -37 -91 -64 -163 -90 -60 -22 -237 -24 -303 -4 -182 55 -315 170 -409 349 -98 186 -127 485 -73 742 49 231 192 381 402 424 49 9 245 -3 290 -19z" fill="black"/>
        <path d="M29790 6065 c126 -45 226 -121 300 -230 73 -108 99 -169 136 -315 32 -129 27 -437 -10 -552 -7 -24 -19 -63 -27 -88 -18 -58 -95 -176 -143 -217 -41 -37 -91 -64 -163 -90 -60 -22 -237 -24 -303 -4 -182 55 -315 170 -409 349 -98 186 -127 485 -73 742 49 231 192 381 402 424 49 9 245 -3 290 -19z" fill="black"/>
        <path d="M39573 5340 c48 -69 303 -339 442 -469 91 -85 164 -159 162 -165 -2 -5 -12 -14 -23 -20 -10 -6 -30 -18 -44 -27 -102 -65 -294 -98 -389 -68 -104 33 -190 94 -241 169 -22 32 -40 64 -40 70 0 5 -4 18 -9 28 -18 32 -31 110 -31 179 0 112 36 214 101 288 35 40 52 43 72 15z" fill="black"/>
        <path d="M5549 5628 c18 -51 41 -117 52 -145 10 -29 28 -77 38 -105 11 -29 31 -84 46 -122 14 -38 24 -75 21 -82 -4 -11 -46 -14 -205 -14 -223 0 -224 0 -194 68 25 59 31 74 48 127 9 28 22 64 30 80 7 17 18 46 25 65 15 43 30 79 41 102 5 10 9 25 9 33 0 8 4 23 9 33 5 9 12 25 15 35 12 38 33 14 65 -75z" fill="black"/>
        <path d="M46989 5628 c18 -51 41 -117 52 -145 10 -29 28 -77 38 -105 11 -29 31 -84 46 -122 14 -38 24 -75 21 -82 -4 -11 -46 -14 -205 -14 -223 0 -224 0 -194 68 25 59 31 74 48 127 9 28 22 64 30 80 7 17 18 46 25 65 15 43 30 79 41 102 5 10 9 25 9 33 0 8 4 23 9 33 5 9 12 25 15 35 12 38 33 14 65 -75z" fill="black"/>
        <path d="M8465 6044 c50 -8 105 -18 123 -21 18 -3 35 -9 38 -14 3 -5 14 -9 24 -9 35 0 175 -80 238 -137 109 -97 192 -232 222 -363 7 -30 16 -68 21 -84 12 -40 11 -255 -1 -335 -27 -168 -65 -255 -153 -347 -53 -56 -85 -80 -150 -112 -102 -49 -130 -58 -243 -72 -187 -25 -386 10 -428 75 -32 49 -36 153 -34 785 l3 624 45 12 c64 17 189 16 295 -2z" fill="black"/>
        <path d="M27589 6049 c184 -59 272 -191 271 -407 -1 -185 -79 -332 -192 -363 -50 -13 -236 -6 -268 11 -20 10 -20 18 -20 380 l0 368 28 10 c37 14 138 14 181 1z" fill="black"/>
        <path d="M35429 6049 c184 -59 272 -191 271 -407 -1 -185 -79 -332 -192 -363 -50 -13 -236 -6 -268 11 -20 10 -20 18 -20 380 l0 368 28 10 c37 14 138 14 181 1z" fill="black"/>
        <path d="M44869 6049 c184 -59 272 -191 271 -407 -1 -185 -79 -332 -192 -363 -50 -13 -236 -6 -268 11 -20 10 -20 18 -20 380 l0 368 28 10 c37 14 138 14 181 1z" fill="black"/>
      </g>
    </mask>
    <mask id="mask-5">
      <g>
        <path d="M 0 0 H 54680.0 V 26760.0 H 0 Z" fill="white" id="background"/>
        <path d="M32155 11060 c112 -44 175 -116 221 -251 38 -114 31 -252 -19 -372 -23 -54 -107 -138 -169 -168 -132 -66 -177 -71 -673 -67 l-420 3 -3 430 c-1 237 0 436 3 443 4 11 99 12 502 10 495 -4 498 -4 558 -28z" fill="black"/>
        <path d="M17830 6065 c126 -45 226 -121 300 -230 73 -108 99 -169 136 -315 32 -129 27 -437 -10 -552 -7 -24 -19 -63 -27 -88 -18 -58 -95 -176 -143 -217 -41 -37 -91 -64 -163 -90 -60 -22 -237 -24 -303 -4 -182 55 -315 170 -409 349 -98 186 -127 485 -73 742 49 231 192 381 402 424 49 9 245 -3 290 -19z" fill="black"/>
        <path d="M23230 6065 c126 -45 226 -121 300 -230 73 -108 99 -169 136 -315 32 -129 27 -437 -10 -552 -7 -24 -19 -63 -27 -88 -18 -58 -95 -176 -143 -217 -41 -37 -91 -64 -163 -90 -60 -22 -237 -24 -303 -4 -182 55 -315 170 -409 349 -98 186 -127 485 -73 742 49 231 192 381 402 424 49 9 245 -3 290 -19z" fill="black"/>
        <path d="M29790 6065 c126 -45 226 -121 300 -230 73 -108 99 -169 136 -315 32 -129 27 -437 -10 -552 -7 -24 -19 -63 -27 -88 -18 -58 -95 -176 -143 -217 -41 -37 -91 -64 -163 -90 -60 -22 -237 -24 -303 -4 -182 55 -315 170 -409 349 -98 186 -127 485 -73 742 49 231 192 381 402 424 49 9 245 -3 290 -19z" fill="black"/>
        <path d="M39573 5340 c48 -69 303 -339 442 -469 91 -85 164 -159 162 -165 -2 -5 -12 -14 -23 -20 -10 -6 -30 -18 -44 -27 -102 -65 -294 -98 -389 -68 -104 33 -190 94 -241 169 -22 32 -40 64 -40 70 0 5 -4 18 -9 28 -18 32 -31 110 -31 179 0 112 36 214 101 288 35 40 52 43 72 15z" fill="black"/>
        <path d="M5549 5628 c18 -51 41 -117 52 -145 10 -29 28 -77 38 -105 11 -29 31 -84 46 -122 14 -38 24 -75 21 -82 -4 -11 -46 -14 -205 -14 -223 0 -224 0 -194 68 25 59 31 74 48 127 9 28 22 64 30 80 7 17 18 46 25 65 15 43 30 79 41 102 5 10 9 25 9 33 0 8 4 23 9 33 5 9 12 25 15 35 12 38 33 14 65 -75z" fill="black"/>
        <path d="M46989 5628 c18 -51 41 -117 52 -145 10 -29 28 -77 38 -105 11 -29 31 -84 46 -122 14 -38 24 -75 21 -82 -4 -11 -46 -14 -205 -14 -223 0 -224 0 -194 68 25 59 31 74 48 127 9 28 22 64 30 80 7 17 18 46 25 65 15 43 30 79 41 102 5 10 9 25 9 33 0 8 4 23 9 33 5 9 12 25 15 35 12 38 33 14 65 -75z" fill="black"/>
        <path d="M8465 6044 c50 -8 105 -18 123 -21 18 -3 35 -9 38 -14 3 -5 14 -9 24 -9 35 0 175 -80 238 -137 109 -97 192 -232 222 -363 7 -30 16 -68 21 -84 12 -40 11 -255 -1 -335 -27 -168 -65 -255 -153 -347 -53 -56 -85 -80 -150 -112 -102 -49 -130 -58 -243 -72 -187 -25 -386 10 -428 75 -32 49 -36 153 -34 785 l3 624 45 12 c64 17 189 16 295 -2z" fill="black"/>
        <path d="M27589 6049 c184 -59 272 -191 271 -407 -1 -185 -79 -332 -192 -363 -50 -13 -236 -6 -268 11 -20 10 -20 18 -20 380 l0 368 28 10 c37 14 138 14 181 1z" fill="black"/>
        <path d="M35429 6049 c184 -59 272 -191 271 -407 -1 -185 -79 -332 -192 -363 -50 -13 -236 -6 -268 11 -20 10 -20 18 -20 380 l0 368 28 10 c37 14 138 14 181 1z" fill="black"/>
        <path d="M44869 6049 c184 -59 272 -191 271 -407 -1 -185 -79 -332 -192 -363 -50 -13 -236 -6 -268 11 -20 10 -20 18 -20 380 l0 368 28 10 c37 14 138 14 181 1z" fill="black"/>
      </g>
    </mask>
    <mask id="mask-4">
      <g>
        <path d="M 0 0 H 54680.0 V 26760.0 H 0 Z" fill="white" id="background"/>
        <path d="M35978 10992 c12 -27 22 -55 22 -64 0 -8 3 -18 7 -21 5 -6 38 -96 79 -217 8 -25 19 -54 24 -65 16 -38 42 -110 66 -185 14 -41 29 -84 33 -95 16 -37 42 -109 67 -185 14 -41 29 -84 33 -95 24 -55 52 -134 57 -162 l7 -33 -415 0 c-282 0 -417 3 -425 11 -7 7 -5 22 8 49 11 22 19 47 19 58 0 10 4 22 9 27 5 6 18 39 30 75 12 36 26 74 31 85 5 11 18 49 30 85 12 36 30 84 41 107 10 24 19 51 19 61 0 10 4 22 9 28 5 5 18 38 30 74 12 36 26 74 31 85 5 11 18 49 30 85 12 36 30 84 41 107 10 24 19 50 19 58 0 8 4 23 9 33 6 9 20 45 33 80 13 34 25 62 29 62 3 0 15 -22 27 -48z" fill="black"/>
        <path d="M32155 11060 c112 -44 175 -116 221 -251 38 -114 31 -252 -19 -372 -23 -54 -107 -138 -169 -168 -132 -66 -177 -71 -673 -67 l-420 3 -3 430 c-1 237 0 436 3 443 4 11 99 12 502 10 495 -4 498 -4 558 -28z" fill="black"/>
        <path d="M17830 6065 c126 -45 226 -121 300 -230 73 -108 99 -169 136 -315 32 -129 27 -437 -10 -552 -7 -24 -19 -63 -27 -88 -18 -58 -95 -176 -143 -217 -41 -37 -91 -64 -163 -90 -60 -22 -237 -24 -303 -4 -182 55 -315 170 -409 349 -98 186 -127 485 -73 742 49 231 192 381 402 424 49 9 245 -3 290 -19z" fill="black"/>
        <path d="M23230 6065 c126 -45 226 -121 300 -230 73 -108 99 -169 136 -315 32 -129 27 -437 -10 -552 -7 -24 -19 -63 -27 -88 -18 -58 -95 -176 -143 -217 -41 -37 -91 -64 -163 -90 -60 -22 -237 -24 -303 -4 -182 55 -315 170 -409 349 -98 186 -127 485 -73 742 49 231 192 381 402 424 49 9 245 -3 290 -19z" fill="black"/>
        <path d="M29790 6065 c126 -45 226 -121 300 -230 73 -108 99 -169 136 -315 32 -129 27 -437 -10 -552 -7 -24 -19 -63 -27 -88 -18 -58 -95 -176 -143 -217 -41 -37 -91 -64 -163 -90 -60 -22 -237 -24 -303 -4 -182 55 -315 170 -409 349 -98 186 -127 485 -73 742 49 231 192 381 402 424 49 9 245 -3 290 -19z" fill="black"/>
        <path d="M39573 5340 c48 -69 303 -339 442 -469 91 -85 164 -159 162 -165 -2 -5 -12 -14 -23 -20 -10 -6 -30 -18 -44 -27 -102 -65 -294 -98 -389 -68 -104 33 -190 94 -241 169 -22 32 -40 64 -40 70 0 5 -4 18 -9 28 -18 32 -31 110 -31 179 0 112 36 214 101 288 35 40 52 43 72 15z" fill="black"/>
        <path d="M5549 5628 c18 -51 41 -117 52 -145 10 -29 28 -77 38 -105 11 -29 31 -84 46 -122 14 -38 24 -75 21 -82 -4 -11 -46 -14 -205 -14 -223 0 -224 0 -194 68 25 59 31 74 48 127 9 28 22 64 30 80 7 17 18 46 25 65 15 43 30 79 41 102 5 10 9 25 9 33 0 8 4 23 9 33 5 9 12 25 15 35 12 38 33 14 65 -75z" fill="black"/>
        <path d="M46989 5628 c18 -51 41 -117 52 -145 10 -29 28 -77 38 -105 11 -29 31 -84 46 -122 14 -38 24 -75 21 -82 -4 -11 -46 -14 -205 -14 -223 0 -224 0 -194 68 25 59 31 74 48 127 9 28 22 64 30 80 7 17 18 46 25 65 15 43 30 79 41 102 5 10 9 25 9 33 0 8 4 23 9 33 5 9 12 25 15 35 12 38 33 14 65 -75z" fill="black"/>
        <path d="M8465 6044 c50 -8 105 -18 123 -21 18 -3 35 -9 38 -14 3 -5 14 -9 24 -9 35 0 175 -80 238 -137 109 -97 192 -232 222 -363 7 -30 16 -68 21 -84 12 -40 11 -255 -1 -335 -27 -168 -65 -255 -153 -347 -53 -56 -85 -80 -150 -112 -102 -49 -130 -58 -243 -72 -187 -25 -386 10 -428 75 -32 49 -36 153 -34 785 l3 624 45 12 c64 17 189 16 295 -2z" fill="black"/>
        <path d="M27589 6049 c184 -59 272 -191 271 -407 -1 -185 -79 -332 -192 -363 -50 -13 -236 -6 -268 11 -20 10 -20 18 -20 380 l0 368 28 10 c37 14 138 14 181 1z" fill="black"/>
        <path d="M35429 6049 c184 -59 272 -191 271 -407 -1 -185 -79 -332 -192 -363 -50 -13 -236 -6 -268 11 -20 10 -20 18 -20 380 l0 368 28 10 c37 14 138 14 181 1z" fill="black"/>
        <path d="M44869 6049 c184 -59 272 -191 271 -407 -1 -185 -79 -332 -192 -363 -50 -13 -236 -6 -268 11 -20 10 -20 18 -20 380 l0 368 28 10 c37 14 138 14 181 1z" fill="black"/>
      </g>
    </mask>
    <mask id="mask-3">
      <g>
        <path d="M 0 0 H 54680.0 V 26760.0 H 0 Z" fill="white" id="background"/>
        <path d="M23450 20425 c121 -23 232 -56 288 -87 18 -10 37 -18 42 -18 9 0 127 -73 190 -117 134 -95 289 -285 369 -454 41 -86 91 -229 109 -309 6 -25 15 -65 21 -90 20 -91 32 -244 32 -413 0 -214 -18 -376 -58 -527 -9 -30 -18 -67 -20 -83 -3 -15 -9 -30 -14 -33 -5 -3 -9 -14 -9 -25 0 -10 -4 -27 -9 -37 -5 -9 -28 -57 -51 -107 -23 -49 -55 -109 -71 -133 -16 -24 -29 -47 -29 -51 0 -15 -153 -172 -212 -216 -150 -115 -267 -145 -564 -145 -169 0 -401 19 -489 40 -22 5 -58 13 -80 18 -50 11 -110 39 -127 59 -10 13 -14 271 -16 1329 -1 854 1 1321 8 1338 20 54 128 74 405 75 143 0 234 -4 285 -14z" fill="black"/>
        <path d="M35978 10992 c12 -27 22 -55 22 -64 0 -8 3 -18 7 -21 5 -6 38 -96 79 -217 8 -25 19 -54 24 -65 16 -38 42 -110 66 -185 14 -41 29 -84 33 -95 16 -37 42 -109 67 -185 14 -41 29 -84 33 -95 24 -55 52 -134 57 -162 l7 -33 -415 0 c-282 0 -417 3 -425 11 -7 7 -5 22 8 49 11 22 19 47 19 58 0 10 4 22 9 27 5 6 18 39 30 75 12 36 26 74 31 85 5 11 18 49 30 85 12 36 30 84 41 107 10 24 19 51 19 61 0 10 4 22 9 28 5 5 18 38 30 74 12 36 26 74 31 85 5 11 18 49 30 85 12 36 30 84 41 107 10 24 19 50 19 58 0 8 4 23 9 33 6 9 20 45 33 80 13 34 25 62 29 62 3 0 15 -22 27 -48z" fill="black"/>
        <path d="M32155 11060 c112 -44 175 -116 221 -251 38 -114 31 -252 -19 -372 -23 -54 -107 -138 -169 -168 -132 -66 -177 -71 -673 -67 l-420 3 -3 430 c-1 237 0 436 3 443 4 11 99 12 502 10 495 -4 498 -4 558 -28z" fill="black"/>
        <path d="M17830 6065 c126 -45 226 -121 300 -230 73 -108 99 -169 136 -315 32 -129 27 -437 -10 -552 -7 -24 -19 -63 -27 -88 -18 -58 -95 -176 -143 -217 -41 -37 -91 -64 -163 -90 -60 -22 -237 -24 -303 -4 -182 55 -315 170 -409 349 -98 186 -127 485 -73 742 49 231 192 381 402 424 49 9 245 -3 290 -19z" fill="black"/>
        <path d="M23230 6065 c126 -45 226 -121 300 -230 73 -108 99 -169 136 -315 32 -129 27 -437 -10 -552 -7 -24 -19 -63 -27 -88 -18 -58 -95 -176 -143 -217 -41 -37 -91 -64 -163 -90 -60 -22 -237 -24 -303 -4 -182 55 -315 170 -409 349 -98 186 -127 485 -73 742 49 231 192 381 402 424 49 9 245 -3 290 -19z" fill="black"/>
        <path d="M29790 6065 c126 -45 226 -121 300 -230 73 -108 99 -169 136 -315 32 -129 27 -437 -10 -552 -7 -24 -19 -63 -27 -88 -18 -58 -95 -176 -143 -217 -41 -37 -91 -64 -163 -90 -60 -22 -237 -24 -303 -4 -182 55 -315 170 -409 349 -98 186 -127 485 -73 742 49 231 192 381 402 424 49 9 245 -3 290 -19z" fill="black"/>
        <path d="M39573 5340 c48 -69 303 -339 442 -469 91 -85 164 -159 162 -165 -2 -5 -12 -14 -23 -20 -10 -6 -30 -18 -44 -27 -102 -65 -294 -98 -389 -68 -104 33 -190 94 -241 169 -22 32 -40 64 -40 70 0 5 -4 18 -9 28 -18 32 -31 110 -31 179 0 112 36 214 101 288 35 40 52 43 72 15z" fill="black"/>
        <path d="M5549 5628 c18 -51 41 -117 52 -145 10 -29 28 -77 38 -105 11 -29 31 -84 46 -122 14 -38 24 -75 21 -82 -4 -11 -46 -14 -205 -14 -223 0 -224 0 -194 68 25 59 31 74 48 127 9 28 22 64 30 80 7 17 18 46 25 65 15 43 30 79 41 102 5 10 9 25 9 33 0 8 4 23 9 33 5 9 12 25 15 35 12 38 33 14 65 -75z" fill="black"/>
        <path d="M46989 5628 c18 -51 41 -117 52 -145 10 -29 28 -77 38 -105 11 -29 31 -84 46 -122 14 -38 24 -75 21 -82 -4 -11 -46 -14 -205 -14 -223 0 -224 0 -194 68 25 59 31 74 48 127 9 28 22 64 30 80 7 17 18 46 25 65 15 43 30 79 41 102 5 10 9 25 9 33 0 8 4 23 9 33 5 9 12 25 15 35 12 38 33 14 65 -75z" fill="black"/>
        <path d="M8465 6044 c50 -8 105 -18 123 -21 18 -3 35 -9 38 -14 3 -5 14 -9 24 -9 35 0 175 -80 238 -137 109 -97 192 -232 222 -363 7 -30 16 -68 21 -84 12 -40 11 -255 -1 -335 -27 -168 -65 -255 -153 -347 -53 -56 -85 -80 -150 -112 -102 -49 -130 -58 -243 -72 -187 -25 -386 10 -428 75 -32 49 -36 153 -34 785 l3 624 45 12 c64 17 189 16 295 -2z" fill="black"/>
        <path d="M27589 6049 c184 -59 272 -191 271 -407 -1 -185 -79 -332 -192 -363 -50 -13 -236 -6 -268 11 -20 10 -20 18 -20 380 l0 368 28 10 c37 14 138 14 181 1z" fill="black"/>
        <path d="M35429 6049 c184 -59 272 -191 271 -407 -1 -185 -79 -332 -192 -363 -50 -13 -236 -6 -268 11 -20 10 -20 18 -20 380 l0 368 28 10 c37 14 138 14 181 1z" fill="black"/>
        <path d="M44869 6049 c184 -59 272 -191 271 -407 -1 -185 -79 -332 -192 -363 -50 -13 -236 -6 -268 11 -20 10 -20 18 -20 380 l0 368 28 10 c37 14 138 14 181 1z" fill="black"/>
      </g>
    </mask>
    <mask id="mask-2">
      <g>
        <path d="M 0 0 H 54680.0 V 26760.0 H 0 Z" fill="white" id="background"/>
        <path d="M17220 20473 c14 -6 45 -17 70 -24 75 -21 201 -90 277 -151 128 -103 234 -243 313 -413 67 -141 102 -256 132 -425 17 -97 17 -403 0 -495 -30 -162 -72 -278 -153 -424 -13 -24 -64 -84 -112 -132 -92 -92 -189 -151 -281 -171 -136 -30 -267 -40 -451 -34 -236 8 -285 13 -316 37 l-24 18 0 1086 0 1087 30 23 c16 13 45 26 65 28 66 9 425 0 450 -10z" fill="black"/>
        <path d="M17280 17826 c255 -45 369 -96 559 -249 170 -139 282 -266 409 -466 20 -33 123 -239 142 -286 19 -46 48 -133 60 -175 7 -25 16 -56 20 -70 4 -14 13 -52 20 -85 6 -33 14 -69 16 -80 13 -59 34 -295 34 -392 0 -109 -12 -232 -30 -303 -32 -129 -33 -132 -85 -240 -65 -137 -159 -247 -280 -329 -69 -47 -192 -111 -214 -111 -6 0 -19 -4 -29 -9 -21 -11 -76 -25 -162 -43 -126 -25 -495 -12 -600 22 -14 4 -45 13 -70 20 -53 14 -67 20 -140 53 -116 53 -185 124 -214 220 -8 29 -21 70 -28 92 -17 57 -24 2404 -7 2436 11 22 12 22 263 16 147 -4 286 -13 336 -21z" fill="black"/>
        <path d="M23450 20425 c121 -23 232 -56 288 -87 18 -10 37 -18 42 -18 9 0 127 -73 190 -117 134 -95 289 -285 369 -454 41 -86 91 -229 109 -309 6 -25 15 -65 21 -90 20 -91 32 -244 32 -413 0 -214 -18 -376 -58 -527 -9 -30 -18 -67 -20 -83 -3 -15 -9 -30 -14 -33 -5 -3 -9 -14 -9 -25 0 -10 -4 -27 -9 -37 -5 -9 -28 -57 -51 -107 -23 -49 -55 -109 -71 -133 -16 -24 -29 -47 -29 -51 0 -15 -153 -172 -212 -216 -150 -115 -267 -145 -564 -145 -169 0 -401 19 -489 40 -22 5 -58 13 -80 18 -50 11 -110 39 -127 59 -10 13 -14 271 -16 1329 -1 854 1 1321 8 1338 20 54 128 74 405 75 143 0 234 -4 285 -14z" fill="black"/>
        <path d="M35978 10992 c12 -27 22 -55 22 -64 0 -8 3 -18 7 -21 5 -6 38 -96 79 -217 8 -25 19 -54 24 -65 16 -38 42 -110 66 -185 14 -41 29 -84 33 -95 16 -37 42 -109 67 -185 14 -41 29 -84 33 -95 24 -55 52 -134 57 -162 l7 -33 -415 0 c-282 0 -417 3 -425 11 -7 7 -5 22 8 49 11 22 19 47 19 58 0 10 4 22 9 27 5 6 18 39 30 75 12 36 26 74 31 85 5 11 18 49 30 85 12 36 30 84 41 107 10 24 19 51 19 61 0 10 4 22 9 28 5 5 18 38 30 74 12 36 26 74 31 85 5 11 18 49 30 85 12 36 30 84 41 107 10 24 19 50 19 58 0 8 4 23 9 33 6 9 20 45 33 80 13 34 25 62 29 62 3 0 15 -22 27 -48z" fill="black"/>
        <path d="M32155 11060 c112 -44 175 -116 221 -251 38 -114 31 -252 -19 -372 -23 -54 -107 -138 -169 -168 -132 -66 -177 -71 -673 -67 l-420 3 -3 430 c-1 237 0 436 3 443 4 11 99 12 502 10 495 -4 498 -4 558 -28z" fill="black"/>
        <path d="M17830 6065 c126 -45 226 -121 300 -230 73 -108 99 -169 136 -315 32 -129 27 -437 -10 -552 -7 -24 -19 -63 -27 -88 -18 -58 -95 -176 -143 -217 -41 -37 -91 -64 -163 -90 -60 -22 -237 -24 -303 -4 -182 55 -315 170 -409 349 -98 186 -127 485 -73 742 49 231 192 381 402 424 49 9 245 -3 290 -19z" fill="black"/>
        <path d="M23230 6065 c126 -45 226 -121 300 -230 73 -108 99 -169 136 -315 32 -129 27 -437 -10 -552 -7 -24 -19 -63 -27 -88 -18 -58 -95 -176 -143 -217 -41 -37 -91 -64 -163 -90 -60 -22 -237 -24 -303 -4 -182 55 -315 170 -409 349 -98 186 -127 485 -73 742 49 231 192 381 402 424 49 9 245 -3 290 -19z" fill="black"/>
        <path d="M29790 6065 c126 -45 226 -121 300 -230 73 -108 99 -169 136 -315 32 -129 27 -437 -10 -552 -7 -24 -19 -63 -27 -88 -18 -58 -95 -176 -143 -217 -41 -37 -91 -64 -163 -90 -60 -22 -237 -24 -303 -4 -182 55 -315 170 -409 349 -98 186 -127 485 -73 742 49 231 192 381 402 424 49 9 245 -3 290 -19z" fill="black"/>
        <path d="M39573 5340 c48 -69 303 -339 442 -469 91 -85 164 -159 162 -165 -2 -5 -12 -14 -23 -20 -10 -6 -30 -18 -44 -27 -102 -65 -294 -98 -389 -68 -104 33 -190 94 -241 169 -22 32 -40 64 -40 70 0 5 -4 18 -9 28 -18 32 -31 110 -31 179 0 112 36 214 101 288 35 40 52 43 72 15z" fill="black"/>
        <path d="M5549 5628 c18 -51 41 -117 52 -145 10 -29 28 -77 38 -105 11 -29 31 -84 46 -122 14 -38 24 -75 21 -82 -4 -11 -46 -14 -205 -14 -223 0 -224 0 -194 68 25 59 31 74 48 127 9 28 22 64 30 80 7 17 18 46 25 65 15 43 30 79 41 102 5 10 9 25 9 33 0 8 4 23 9 33 5 9 12 25 15 35 12 38 33 14 65 -75z" fill="black"/>
        <path d="M46989 5628 c18 -51 41 -117 52 -145 10 -29 28 -77 38 -105 11 -29 31 -84 46 -122 14 -38 24 -75 21 -82 -4 -11 -46 -14 -205 -14 -223 0 -224 0 -194 68 25 59 31 74 48 127 9 28 22 64 30 80 7 17 18 46 25 65 15 43 30 79 41 102 5 10 9 25 9 33 0 8 4 23 9 33 5 9 12 25 15 35 12 38 33 14 65 -75z" fill="black"/>
        <path d="M8465 6044 c50 -8 105 -18 123 -21 18 -3 35 -9 38 -14 3 -5 14 -9 24 -9 35 0 175 -80 238 -137 109 -97 192 -232 222 -363 7 -30 16 -68 21 -84 12 -40 11 -255 -1 -335 -27 -168 -65 -255 -153 -347 -53 -56 -85 -80 -150 -112 -102 -49 -130 -58 -243 -72 -187 -25 -386 10 -428 75 -32 49 -36 153 -34 785 l3 624 45 12 c64 17 189 16 295 -2z" fill="black"/>
        <path d="M27589 6049 c184 -59 272 -191 271 -407 -1 -185 -79 -332 -192 -363 -50 -13 -236 -6 -268 11 -20 10 -20 18 -20 380 l0 368 28 10 c37 14 138 14 181 1z" fill="black"/>
        <path d="M35429 6049 c184 -59 272 -191 271 -407 -1 -185 -79 -332 -192 -363 -50 -13 -236 -6 -268 11 -20 10 -20 18 -20 380 l0 368 28 10 c37 14 138 14 181 1z" fill="black"/>
        <path d="M44869 6049 c184 -59 272 -191 271 -407 -1 -185 -79 -332 -192 -363 -50 -13 -236 -6 -268 11 -20 10 -20 18 -20 380 l0 368 28 10 c37 14 138 14 181 1z" fill="black"/>
      </g>
    </mask>
    <mask id="mask-1">
      <g>
        <path d="M 0 0 H 54680.0 V 26760.0 H 0 Z" fill="white" id="background"/>
        <path d="M31200 20530 c90 -15 165 -30 230 -48 30 -8 67 -17 83 -19 15 -3 30 -9 33 -14 3 -5 13 -9 23 -9 10 0 43 -9 72 -21 30 -12 63 -25 74 -29 37 -14 250 -119 295 -146 198 -117 501 -387 632 -564 66 -90 166 -238 202 -300 39 -66 161 -320 187 -387 5 -13 13 -33 19 -45 5 -13 23 -68 41 -123 17 -55 35 -109 40 -120 9 -25 38 -134 50 -195 5 -25 13 -65 19 -90 98 -434 107 -1194 20 -1665 -6 -33 -15 -85 -20 -115 -12 -67 -36 -169 -59 -252 -6 -21 -15 -53 -20 -70 -10 -35 -57 -170 -71 -203 -5 -11 -17 -40 -27 -65 -10 -25 -41 -90 -69 -145 -119 -232 -242 -394 -423 -558 -63 -57 -240 -187 -254 -187 -2 0 -35 -17 -73 -38 -171 -94 -409 -165 -644 -192 -213 -25 -524 0 -765 61 -100 26 -121 32 -140 39 -11 4 -38 13 -60 19 -22 7 -50 17 -62 22 -13 5 -33 13 -45 18 -52 19 -297 143 -344 173 -281 180 -533 424 -713 692 -119 177 -249 426 -316 606 -9 25 -21 54 -25 65 -40 94 -119 381 -151 545 -94 490 -101 1029 -18 1565 13 90 25 145 58 280 20 84 56 203 72 240 4 11 15 42 24 68 31 98 169 369 227 447 130 175 211 265 321 358 73 61 198 152 210 152 3 0 35 18 71 40 36 22 70 40 75 40 5 0 29 10 53 21 46 23 54 27 138 57 111 40 259 74 400 92 47 5 99 12 115 14 56 8 450 -3 515 -14z" fill="black"/>
        <path d="M17220 20473 c14 -6 45 -17 70 -24 75 -21 201 -90 277 -151 128 -103 234 -243 313 -413 67 -141 102 -256 132 -425 17 -97 17 -403 0 -495 -30 -162 -72 -278 -153 -424 -13 -24 -64 -84 -112 -132 -92 -92 -189 -151 -281 -171 -136 -30 -267 -40 -451 -34 -236 8 -285 13 -316 37 l-24 18 0 1086 0 1087 30 23 c16 13 45 26 65 28 66 9 425 0 450 -10z" fill="black"/>
        <path d="M17280 17826 c255 -45 369 -96 559 -249 170 -139 282 -266 409 -466 20 -33 123 -239 142 -286 19 -46 48 -133 60 -175 7 -25 16 -56 20 -70 4 -14 13 -52 20 -85 6 -33 14 -69 16 -80 13 -59 34 -295 34 -392 0 -109 -12 -232 -30 -303 -32 -129 -33 -132 -85 -240 -65 -137 -159 -247 -280 -329 -69 -47 -192 -111 -214 -111 -6 0 -19 -4 -29 -9 -21 -11 -76 -25 -162 -43 -126 -25 -495 -12 -600 22 -14 4 -45 13 -70 20 -53 14 -67 20 -140 53 -116 53 -185 124 -214 220 -8 29 -21 70 -28 92 -17 57 -24 2404 -7 2436 11 22 12 22 263 16 147 -4 286 -13 336 -21z" fill="black"/>
        <path d="M23450 20425 c121 -23 232 -56 288 -87 18 -10 37 -18 42 -18 9 0 127 -73 190 -117 134 -95 289 -285 369 -454 41 -86 91 -229 109 -309 6 -25 15 -65 21 -90 20 -91 32 -244 32 -413 0 -214 -18 -376 -58 -527 -9 -30 -18 -67 -20 -83 -3 -15 -9 -30 -14 -33 -5 -3 -9 -14 -9 -25 0 -10 -4 -27 -9 -37 -5 -9 -28 -57 -51 -107 -23 -49 -55 -109 -71 -133 -16 -24 -29 -47 -29 -51 0 -15 -153 -172 -212 -216 -150 -115 -267 -145 -564 -145 -169 0 -401 19 -489 40 -22 5 -58 13 -80 18 -50 11 -110 39 -127 59 -10 13 -14 271 -16 1329 -1 854 1 1321 8 1338 20 54 128 74 405 75 143 0 234 -4 285 -14z" fill="black"/>
        <path d="M35978 10992 c12 -27 22 -55 22 -64 0 -8 3 -18 7 -21 5 -6 38 -96 79 -217 8 -25 19 -54 24 -65 16 -38 42 -110 66 -185 14 -41 29 -84 33 -95 16 -37 42 -109 67 -185 14 -41 29 -84 33 -95 24 -55 52 -134 57 -162 l7 -33 -415 0 c-282 0 -417 3 -425 11 -7 7 -5 22 8 49 11 22 19 47 19 58 0 10 4 22 9 27 5 6 18 39 30 75 12 36 26 74 31 85 5 11 18 49 30 85 12 36 30 84 41 107 10 24 19 51 19 61 0 10 4 22 9 28 5 5 18 38 30 74 12 36 26 74 31 85 5 11 18 49 30 85 12 36 30 84 41 107 10 24 19 50 19 58 0 8 4 23 9 33 6 9 20 45 33 80 13 34 25 62 29 62 3 0 15 -22 27 -48z" fill="black"/>
        <path d="M32155 11060 c112 -44 175 -116 221 -251 38 -114 31 -252 -19 -372 -23 -54 -107 -138 -169 -168 -132 -66 -177 -71 -673 -67 l-420 3 -3 430 c-1 237 0 436 3 443 4 11 99 12 502 10 495 -4 498 -4 558 -28z" fill="black"/>
        <path d="M17830 6065 c126 -45 226 -121 300 -230 73 -108 99 -169 136 -315 32 -129 27 -437 -10 -552 -7 -24 -19 -63 -27 -88 -18 -58 -95 -176 -143 -217 -41 -37 -91 -64 -163 -90 -60 -22 -237 -24 -303 -4 -182 55 -315 170 -409 349 -98 186 -127 485 -73 742 49 231 192 381 402 424 49 9 245 -3 290 -19z" fill="black"/>
        <path d="M23230 6065 c126 -45 226 -121 300 -230 73 -108 99 -169 136 -315 32 -129 27 -437 -10 -552 -7 -24 -19 -63 -27 -88 -18 -58 -95 -176 -143 -217 -41 -37 -91 -64 -163 -90 -60 -22 -237 -24 -303 -4 -182 55 -315 170 -409 349 -98 186 -127 485 -73 742 49 231 192 381 402 424 49 9 245 -3 290 -19z" fill="black"/>
        <path d="M29790 6065 c126 -45 226 -121 300 -230 73 -108 99 -169 136 -315 32 -129 27 -437 -10 -552 -7 -24 -19 -63 -27 -88 -18 -58 -95 -176 -143 -217 -41 -37 -91 -64 -163 -90 -60 -22 -237 -24 -303 -4 -182 55 -315 170 -409 349 -98 186 -127 485 -73 742 49 231 192 381 402 424 49 9 245 -3 290 -19z" fill="black"/>
        <path d="M39573 5340 c48 -69 303 -339 442 -469 91 -85 164 -159 162 -165 -2 -5 -12 -14 -23 -20 -10 -6 -30 -18 -44 -27 -102 -65 -294 -98 -389 -68 -104 33 -190 94 -241 169 -22 32 -40 64 -40 70 0 5 -4 18 -9 28 -18 32 -31 110 -31 179 0 112 36 214 101 288 35 40 52 43 72 15z" fill="black"/>
        <path d="M5549 5628 c18 -51 41 -117 52 -145 10 -29 28 -77 38 -105 11 -29 31 -84 46 -122 14 -38 24 -75 21 -82 -4 -11 -46 -14 -205 -14 -223 0 -224 0 -194 68 25 59 31 74 48 127 9 28 22 64 30 80 7 17 18 46 25 65 15 43 30 79 41 102 5 10 9 25 9 33 0 8 4 23 9 33 5 9 12 25 15 35 12 38 33 14 65 -75z" fill="black"/>
        <path d="M46989 5628 c18 -51 41 -117 52 -145 10 -29 28 -77 38 -105 11 -29 31 -84 46 -122 14 -38 24 -75 21 -82 -4 -11 -46 -14 -205 -14 -223 0 -224 0 -194 68 25 59 31 74 48 127 9 28 22 64 30 80 7 17 18 46 25 65 15 43 30 79 41 102 5 10 9 25 9 33 0 8 4 23 9 33 5 9 12 25 15 35 12 38 33 14 65 -75z" fill="black"/>
        <path d="M8465 6044 c50 -8 105 -18 123 -21 18 -3 35 -9 38 -14 3 -5 14 -9 24 -9 35 0 175 -80 238 -137 109 -97 192 -232 222 -363 7 -30 16 -68 21 -84 12 -40 11 -255 -1 -335 -27 -168 -65 -255 -153 -347 -53 -56 -85 -80 -150 -112 -102 -49 -130 -58 -243 -72 -187 -25 -386 10 -428 75 -32 49 -36 153 -34 785 l3 624 45 12 c64 17 189 16 295 -2z" fill="black"/>
        <path d="M27589 6049 c184 -59 272 -191 271 -407 -1 -185 -79 -332 -192 -363 -50 -13 -236 -6 -268 11 -20 10 -20 18 -20 380 l0 368 28 10 c37 14 138 14 181 1z" fill="black"/>
        <path d="M35429 6049 c184 -59 272 -191 271 -407 -1 -185 -79 -332 -192 -363 -50 -13 -236 -6 -268 11 -20 10 -20 18 -20 380 l0 368 28 10 c37 14 138 14 181 1z" fill="black"/>
        <path d="M44869 6049 c184 -59 272 -191 271 -407 -1 -185 -79 -332 -192 -363 -50 -13 -236 -6 -268 11 -20 10 -20 18 -20 380 l0 368 28 10 c37 14 138 14 181 1z" fill="black"/>
      </g>
    </mask>
    <mask id="mask-0">
      <g>
        <path d="M 0 0 H 54680.0 V 26760.0 H 0 Z" fill="white" id="background"/>
        <path d="M8420 20886 l25 -11 0 -605 0 -605 -417 -5 c-229 -3 -420 -9 -424 -13 -4 -3 -15 -2 -25 4 -18 9 -19 34 -19 615 l0 604 28 11 c63 25 781 29 832 5z" fill="black"/>
        <path d="M7330 20256 c0 -498 -2 -606 -14 -615 -7 -6 -58 -15 -112 -21 -258 -24 -414 -51 -517 -89 -32 -12 -62 -19 -68 -16 -5 4 -9 237 -9 601 l0 595 48 21 c49 22 63 26 197 53 44 9 112 23 150 31 95 20 231 41 283 43 l42 1 0 -604z" fill="black"/>
        <path d="M8866 20845 c55 -8 122 -19 149 -25 28 -6 73 -14 100 -20 45 -8 83 -16 185 -39 19 -4 56 -17 83 -29 l47 -21 0 -595 c0 -364 -4 -597 -9 -601 -6 -3 -36 4 -68 16 -32 12 -76 25 -98 29 -163 32 -250 44 -464 64 -29 3 -59 11 -67 17 -12 10 -14 111 -14 615 l0 604 28 0 c16 0 73 -7 128 -15z" fill="black"/>
        <path d="M9785 19039 c22 -6 56 -13 75 -16 19 -3 41 -10 48 -15 18 -15 18 -824 0 -830 -7 -3 -33 1 -58 8 -25 7 -72 19 -105 26 l-60 13 -3 395 c-1 217 0 406 3 419 6 25 3 25 100 0z" fill="black"/>
        <path d="M6348 19008 c18 -18 17 -821 0 -836 -7 -5 -26 -12 -43 -15 -16 -3 -48 -11 -70 -17 -22 -7 -51 -13 -65 -13 l-25 -2 0 419 c0 362 2 420 15 426 8 5 35 13 60 20 25 6 56 15 70 20 36 12 45 11 58 -2z" fill="black"/>
        <path d="M10175 18930 c3 -5 14 -10 24 -10 21 0 208 -75 227 -91 11 -9 14 -86 14 -415 0 -275 -3 -405 -11 -409 -6 -4 -31 3 -57 16 -43 21 -60 28 -117 49 -11 4 -40 14 -65 21 -86 24 -80 -9 -80 446 l0 403 29 0 c17 0 33 -4 36 -10z" fill="black"/>
        <path d="M5950 18481 c0 -323 -3 -421 -12 -428 -7 -5 -44 -19 -83 -32 -38 -13 -98 -36 -133 -52 -34 -16 -69 -29 -77 -29 -13 0 -15 56 -15 414 0 228 3 421 6 429 3 9 42 30 87 47 45 18 91 36 102 40 41 17 81 28 103 29 l22 1 0 -419z" fill="black"/>
        <path d="M31200 20530 c90 -15 165 -30 230 -48 30 -8 67 -17 83 -19 15 -3 30 -9 33 -14 3 -5 13 -9 23 -9 10 0 43 -9 72 -21 30 -12 63 -25 74 -29 37 -14 250 -119 295 -146 198 -117 501 -387 632 -564 66 -90 166 -238 202 -300 39 -66 161 -320 187 -387 5 -13 13 -33 19 -45 5 -13 23 -68 41 -123 17 -55 35 -109 40 -120 9 -25 38 -134 50 -195 5 -25 13 -65 19 -90 98 -434 107 -1194 20 -1665 -6 -33 -15 -85 -20 -115 -12 -67 -36 -169 -59 -252 -6 -21 -15 -53 -20 -70 -10 -35 -57 -170 -71 -203 -5 -11 -17 -40 -27 -65 -10 -25 -41 -90 -69 -145 -119 -232 -242 -394 -423 -558 -63 -57 -240 -187 -254 -187 -2 0 -35 -17 -73 -38 -171 -94 -409 -165 -644 -192 -213 -25 -524 0 -765 61 -100 26 -121 32 -140 39 -11 4 -38 13 -60 19 -22 7 -50 17 -62 22 -13 5 -33 13 -45 18 -52 19 -297 143 -344 173 -281 180 -533 424 -713 692 -119 177 -249 426 -316 606 -9 25 -21 54 -25 65 -40 94 -119 381 -151 545 -94 490 -101 1029 -18 1565 13 90 25 145 58 280 20 84 56 203 72 240 4 11 15 42 24 68 31 98 169 369 227 447 130 175 211 265 321 358 73 61 198 152 210 152 3 0 35 18 71 40 36 22 70 40 75 40 5 0 29 10 53 21 46 23 54 27 138 57 111 40 259 74 400 92 47 5 99 12 115 14 56 8 450 -3 515 -14z" fill="black"/>
        <path d="M17220 20473 c14 -6 45 -17 70 -24 75 -21 201 -90 277 -151 128 -103 234 -243 313 -413 67 -141 102 -256 132 -425 17 -97 17 -403 0 -495 -30 -162 -72 -278 -153 -424 -13 -24 -64 -84 -112 -132 -92 -92 -189 -151 -281 -171 -136 -30 -267 -40 -451 -34 -236 8 -285 13 -316 37 l-24 18 0 1086 0 1087 30 23 c16 13 45 26 65 28 66 9 425 0 450 -10z" fill="black"/>
        <path d="M17280 17826 c255 -45 369 -96 559 -249 170 -139 282 -266 409 -466 20 -33 123 -239 142 -286 19 -46 48 -133 60 -175 7 -25 16 -56 20 -70 4 -14 13 -52 20 -85 6 -33 14 -69 16 -80 13 -59 34 -295 34 -392 0 -109 -12 -232 -30 -303 -32 -129 -33 -132 -85 -240 -65 -137 -159 -247 -280 -329 -69 -47 -192 -111 -214 -111 -6 0 -19 -4 -29 -9 -21 -11 -76 -25 -162 -43 -126 -25 -495 -12 -600 22 -14 4 -45 13 -70 20 -53 14 -67 20 -140 53 -116 53 -185 124 -214 220 -8 29 -21 70 -28 92 -17 57 -24 2404 -7 2436 11 22 12 22 263 16 147 -4 286 -13 336 -21z" fill="black"/>
        <path d="M23450 20425 c121 -23 232 -56 288 -87 18 -10 37 -18 42 -18 9 0 127 -73 190 -117 134 -95 289 -285 369 -454 41 -86 91 -229 109 -309 6 -25 15 -65 21 -90 20 -91 32 -244 32 -413 0 -214 -18 -376 -58 -527 -9 -30 -18 -67 -20 -83 -3 -15 -9 -30 -14 -33 -5 -3 -9 -14 -9 -25 0 -10 -4 -27 -9 -37 -5 -9 -28 -57 -51 -107 -23 -49 -55 -109 -71 -133 -16 -24 -29 -47 -29 -51 0 -15 -153 -172 -212 -216 -150 -115 -267 -145 -564 -145 -169 0 -401 19 -489 40 -22 5 -58 13 -80 18 -50 11 -110 39 -127 59 -10 13 -14 271 -16 1329 -1 854 1 1321 8 1338 20 54 128 74 405 75 143 0 234 -4 285 -14z" fill="black"/>
        <path d="M35978 10992 c12 -27 22 -55 22 -64 0 -8 3 -18 7 -21 5 -6 38 -96 79 -217 8 -25 19 -54 24 -65 16 -38 42 -110 66 -185 14 -41 29 -84 33 -95 16 -37 42 -109 67 -185 14 -41 29 -84 33 -95 24 -55 52 -134 57 -162 l7 -33 -415 0 c-282 0 -417 3 -425 11 -7 7 -5 22 8 49 11 22 19 47 19 58 0 10 4 22 9 27 5 6 18 39 30 75 12 36 26 74 31 85 5 11 18 49 30 85 12 36 30 84 41 107 10 24 19 51 19 61 0 10 4 22 9 28 5 5 18 38 30 74 12 36 26 74 31 85 5 11 18 49 30 85 12 36 30 84 41 107 10 24 19 50 19 58 0 8 4 23 9 33 6 9 20 45 33 80 13 34 25 62 29 62 3 0 15 -22 27 -48z" fill="black"/>
        <path d="M32155 11060 c112 -44 175 -116 221 -251 38 -114 31 -252 -19 -372 -23 -54 -107 -138 -169 -168 -132 -66 -177 -71 -673 -67 l-420 3 -3 430 c-1 237 0 436 3 443 4 11 99 12 502 10 495 -4 498 -4 558 -28z" fill="black"/>
        <path d="M17830 6065 c126 -45 226 -121 300 -230 73 -108 99 -169 136 -315 32 -129 27 -437 -10 -552 -7 -24 -19 -63 -27 -88 -18 -58 -95 -176 -143 -217 -41 -37 -91 -64 -163 -90 -60 -22 -237 -24 -303 -4 -182 55 -315 170 -409 349 -98 186 -127 485 -73 742 49 231 192 381 402 424 49 9 245 -3 290 -19z" fill="black"/>
        <path d="M23230 6065 c126 -45 226 -121 300 -230 73 -108 99 -169 136 -315 32 -129 27 -437 -10 -552 -7 -24 -19 -63 -27 -88 -18 -58 -95 -176 -143 -217 -41 -37 -91 -64 -163 -90 -60 -22 -237 -24 -303 -4 -182 55 -315 170 -409 349 -98 186 -127 485 -73 742 49 231 192 381 402 424 49 9 245 -3 290 -19z" fill="black"/>
        <path d="M29790 6065 c126 -45 226 -121 300 -230 73 -108 99 -169 136 -315 32 -129 27 -437 -10 -552 -7 -24 -19 -63 -27 -88 -18 -58 -95 -176 -143 -217 -41 -37 -91 -64 -163 -90 -60 -22 -237 -24 -303 -4 -182 55 -315 170 -409 349 -98 186 -127 485 -73 742 49 231 192 381 402 424 49 9 245 -3 290 -19z" fill="black"/>
        <path d="M39573 5340 c48 -69 303 -339 442 -469 91 -85 164 -159 162 -165 -2 -5 -12 -14 -23 -20 -10 -6 -30 -18 -44 -27 -102 -65 -294 -98 -389 -68 -104 33 -190 94 -241 169 -22 32 -40 64 -40 70 0 5 -4 18 -9 28 -18 32 -31 110 -31 179 0 112 36 214 101 288 35 40 52 43 72 15z" fill="black"/>
        <path d="M5549 5628 c18 -51 41 -117 52 -145 10 -29 28 -77 38 -105 11 -29 31 -84 46 -122 14 -38 24 -75 21 -82 -4 -11 -46 -14 -205 -14 -223 0 -224 0 -194 68 25 59 31 74 48 127 9 28 22 64 30 80 7 17 18 46 25 65 15 43 30 79 41 102 5 10 9 25 9 33 0 8 4 23 9 33 5 9 12 25 15 35 12 38 33 14 65 -75z" fill="black"/>
        <path d="M46989 5628 c18 -51 41 -117 52 -145 10 -29 28 -77 38 -105 11 -29 31 -84 46 -122 14 -38 24 -75 21 -82 -4 -11 -46 -14 -205 -14 -223 0 -224 0 -194 68 25 59 31 74 48 127 9 28 22 64 30 80 7 17 18 46 25 65 15 43 30 79 41 102 5 10 9 25 9 33 0 8 4 23 9 33 5 9 12 25 15 35 12 38 33 14 65 -75z" fill="black"/>
        <path d="M8465 6044 c50 -8 105 -18 123 -21 18 -3 35 -9 38 -14 3 -5 14 -9 24 -9 35 0 175 -80 238 -137 109 -97 192 -232 222 -363 7 -30 16 -68 21 -84 12 -40 11 -255 -1 -335 -27 -168 -65 -255 -153 -347 -53 -56 -85 -80 -150 -112 -102 -49 -130 -58 -243 -72 -187 -25 -386 10 -428 75 -32 49 -36 153 -34 785 l3 624 45 12 c64 17 189 16 295 -2z" fill="black"/>
        <path d="M27589 6049 c184 -59 272 -191 271 -407 -1 -185 -79 -332 -192 -363 -50 -13 -236 -6 -268 11 -20 10 -20 18 -20 380 l0 368 28 10 c37 14 138 14 181 1z" fill="black"/>
        <path d="M35429 6049 c184 -59 272 -191 271 -407 -1 -185 -79 -332 -192 -363 -50 -13 -236 -6 -268 11 -20 10 -20 18 -20 380 l0 368 28 10 c37 14 138 14 181 1z" fill="black"/>
        <path d="M44869 6049 c184 -59 272 -191 271 -407 -1 -185 -79 -332 -192 -363 -50 -13 -236 -6 -268 11 -20 10 -20 18 -20 380 l0 368 28 10 c37 14 138 14 181 1z" fill="black"/>
      </g>
    </mask>
    <path stroke="none" d="M8053 22795 c-12 -23 -44 -287 -59 -485 -7 -92 -17 -118 -62 -165 -52 -55 -53 -62 -29 -179 14 -73 18 -112 12 -122 -6 -9 -393 -208 -860 -442 -578 -291 -851 -433 -853 -444 -5 -28 75 -133 142 -186 15 -12 16 -81 16 -788 0 -611 -3 -775 -12 -778 -7 -2 -40 -9 -73 -16 -33 -7 -71 -16 -85 -20 -14 -4 -45 -13 -70 -20 -25 -7 -56 -16 -70 -20 -14 -4 -45 -13 -70 -20 -25 -6 -53 -16 -62 -21 -10 -5 -24 -9 -32 -9 -13 0 -66 -20 -188 -69 -69 -28 -280 -134 -323 -163 l-50 -33 -3 -685 c-1 -446 1 -687 8 -694 7 -7 19 -1 37 15 65 60 234 163 323 199 19 7 63 26 98 42 34 15 69 28 77 28 9 0 23 4 33 9 41 21 143 55 212 71 19 5 53 14 75 20 22 6 57 16 78 21 20 5 56 14 80 20 295 73 636 123 1162 171 193 18 1120 18 1310 0 238 -22 421 -42 497 -53 252 -37 368 -60 633 -125 68 -16 230 -67 270 -84 11 -4 36 -13 55 -20 130 -44 285 -129 417 -226 12 -9 27 -13 33 -9 7 4 10 215 10 660 l0 654 -59 49 c-35 29 -116 78 -198 117 -155 76 -154 76 -243 105 -36 12 -74 26 -85 30 -11 5 -31 11 -45 15 -14 3 -41 11 -60 16 -19 6 -51 14 -70 19 -19 4 -60 15 -90 23 -30 8 -82 20 -115 27 -33 7 -66 18 -72 23 -10 7 -13 171 -13 758 0 666 2 749 16 763 8 9 21 16 29 16 18 0 115 113 115 134 0 9 -12 22 -27 28 -16 7 -35 17 -43 24 -8 6 -62 36 -120 67 -98 51 -127 66 -255 137 -99 54 -162 88 -265 142 -108 57 -183 97 -235 128 -16 10 -75 41 -130 70 -55 29 -113 60 -130 70 -16 10 -73 40 -125 68 -256 134 -301 160 -324 182 -17 17 -18 21 -3 72 23 81 37 146 37 170 0 12 -22 44 -48 72 -47 50 -49 54 -55 126 -4 41 -14 138 -22 215 -8 77 -16 171 -17 210 0 38 -4 79 -8 90 -7 19 -7 19 -17 0z" fill="#221e1f" id="221e1f-000001" mask="url(#mask-0)"/>
    <path stroke="none" d="M30851 20949 c-181 -10 -426 -38 -511 -59 -19 -4 -66 -14 -105 -20 -38 -7 -83 -16 -100 -20 -16 -5 -50 -14 -75 -20 -25 -7 -56 -16 -70 -20 -14 -4 -45 -13 -70 -20 -25 -7 -54 -16 -65 -21 -11 -4 -40 -15 -65 -23 -156 -50 -335 -130 -525 -236 -59 -33 -295 -187 -305 -199 -3 -3 -32 -26 -64 -51 -151 -114 -381 -345 -498 -500 -131 -173 -215 -308 -316 -510 -88 -176 -100 -204 -142 -315 -12 -33 -26 -69 -30 -80 -5 -11 -13 -36 -19 -55 -6 -19 -18 -57 -27 -85 -9 -27 -20 -66 -25 -85 -4 -19 -13 -53 -19 -75 -10 -37 -15 -63 -40 -185 -80 -400 -80 -874 0 -1295 22 -111 38 -183 59 -257 16 -56 31 -109 40 -143 10 -33 18 -59 31 -90 4 -11 27 -69 51 -130 50 -130 172 -378 241 -490 255 -412 595 -757 972 -983 107 -65 316 -173 396 -205 67 -27 88 -36 113 -47 35 -16 239 -82 277 -90 19 -5 64 -16 100 -25 61 -15 89 -21 193 -44 23 -6 62 -13 87 -16 25 -4 72 -11 105 -16 116 -18 432 -39 590 -39 143 1 489 22 540 34 11 3 56 10 100 16 77 12 193 34 265 51 156 37 279 72 312 90 10 5 26 9 36 9 10 0 22 4 28 8 5 4 27 14 49 21 22 7 55 19 72 27 18 8 50 21 70 30 61 25 294 142 348 174 28 17 57 33 65 37 20 9 189 121 221 147 14 12 40 32 59 46 233 175 496 455 668 712 72 107 88 134 145 238 17 30 38 67 49 82 10 14 18 29 18 32 0 3 16 41 36 83 20 43 56 130 81 193 25 63 53 137 64 164 10 27 19 56 19 65 0 9 8 36 16 61 9 25 20 61 25 80 4 19 13 55 19 80 69 282 91 472 97 829 7 414 -18 648 -103 976 -13 50 -26 101 -29 115 -4 14 -10 34 -15 45 -4 11 -14 40 -21 65 -7 25 -16 49 -21 54 -4 6 -8 16 -8 23 0 7 -10 35 -21 61 -12 26 -28 63 -36 82 -17 40 -117 238 -144 288 -45 80 -184 275 -257 362 -91 109 -272 286 -382 376 -74 60 -248 180 -332 229 -95 55 -299 154 -403 194 -60 24 -119 47 -130 51 -11 5 -36 13 -55 19 -19 6 -62 19 -95 29 -58 19 -118 36 -180 53 -16 4 -57 13 -90 19 -33 6 -76 16 -95 20 -123 32 -413 67 -660 80 -204 11 -295 11 -509 -1z" fill="#221e1f" id="221e1f-000002" mask="url(#mask-1)"/>
    <path stroke="none" d="M39320 20949 c-180 -8 -343 -24 -485 -46 -55 -8 -125 -19 -155 -23 -76 -10 -238 -47 -350 -79 -19 -5 -51 -14 -70 -19 -49 -14 -141 -43 -165 -52 -11 -5 -69 -27 -130 -51 -144 -56 -347 -158 -475 -239 -30 -19 -63 -39 -72 -45 -25 -15 -167 -114 -186 -130 -9 -7 -46 -37 -82 -66 -129 -103 -382 -369 -485 -509 -55 -75 -106 -147 -114 -160 -8 -14 -31 -52 -51 -85 -86 -141 -180 -337 -240 -500 -12 -33 -25 -69 -30 -80 -4 -11 -13 -40 -20 -65 -7 -25 -16 -56 -20 -70 -9 -28 -25 -91 -39 -147 -5 -21 -14 -56 -20 -78 -5 -22 -12 -56 -15 -75 -3 -19 -10 -62 -16 -95 -51 -284 -51 -820 0 -1100 6 -33 15 -87 20 -120 18 -116 48 -235 108 -435 58 -192 210 -507 335 -695 264 -395 649 -748 1068 -977 89 -49 285 -148 293 -148 3 0 28 -9 54 -21 26 -12 57 -25 70 -30 12 -5 32 -13 45 -18 12 -5 40 -15 62 -22 22 -7 45 -16 50 -19 6 -4 30 -12 55 -19 25 -7 56 -17 70 -22 14 -5 52 -16 85 -25 33 -9 76 -20 95 -26 37 -10 81 -20 170 -38 30 -7 75 -16 100 -21 115 -25 415 -65 590 -79 335 -27 910 -22 1210 11 298 32 459 58 610 98 41 11 86 23 100 26 59 16 173 69 216 102 34 26 79 105 95 168 5 19 14 52 19 73 6 20 14 57 19 82 5 25 16 83 25 130 36 182 46 240 72 420 24 166 34 248 40 357 6 94 5 103 -15 132 -19 26 -29 31 -65 31 -46 0 -63 -13 -84 -63 -7 -15 -12 -39 -12 -52 0 -13 -4 -34 -9 -47 -5 -13 -14 -43 -21 -68 -14 -52 -16 -56 -69 -173 -95 -206 -259 -397 -446 -518 -55 -35 -116 -70 -135 -78 -19 -7 -64 -24 -100 -38 -121 -47 -193 -63 -440 -99 -89 -13 -192 -17 -460 -18 -322 -1 -353 1 -460 22 -122 24 -181 39 -218 53 -13 5 -31 9 -41 9 -10 0 -40 9 -67 19 -27 11 -76 29 -109 41 -261 96 -507 237 -740 424 -342 274 -626 646 -798 1046 -8 19 -21 51 -30 70 -33 77 -77 205 -107 310 -7 25 -16 56 -20 70 -5 14 -11 41 -14 60 -3 19 -10 55 -16 80 -11 48 -20 101 -47 275 -25 157 -24 784 0 960 9 66 21 153 27 194 5 41 16 102 24 135 8 34 17 72 19 86 13 64 68 256 88 308 5 12 14 33 19 47 6 14 14 35 19 48 27 71 139 290 183 360 73 116 227 304 318 390 83 79 240 201 305 238 86 49 223 116 280 138 33 13 69 26 80 31 11 4 40 13 65 20 25 7 56 16 70 20 317 97 921 120 1340 49 36 -6 88 -15 115 -19 28 -5 68 -13 90 -19 22 -5 58 -14 80 -20 39 -9 85 -22 155 -42 19 -6 45 -13 58 -16 12 -3 25 -9 28 -14 3 -5 12 -9 20 -9 33 0 286 -124 386 -189 174 -113 333 -321 415 -541 43 -114 58 -193 73 -370 9 -111 13 -127 33 -142 31 -25 89 -23 113 3 37 41 44 110 54 574 6 250 17 526 26 620 9 94 19 212 21 263 7 136 3 139 -232 172 -44 7 -116 19 -160 27 -44 8 -100 19 -125 23 -25 5 -67 14 -95 20 -27 7 -77 16 -110 20 -33 5 -103 15 -155 24 -488 76 -1082 109 -1560 85z" fill="#221e1f" id="221e1f-000003" mask="url(#mask-2)"/>
    <path stroke="none" d="M14880 20823 c-29 -15 -36 -24 -38 -54 -6 -67 50 -89 223 -89 173 0 270 -18 382 -72 66 -31 153 -115 153 -147 0 -9 4 -21 9 -26 4 -6 13 -30 19 -55 36 -144 37 -198 37 -2450 0 -2289 -3 -2492 -42 -2710 -8 -47 -19 -105 -23 -130 -17 -106 -70 -208 -129 -248 -49 -34 -157 -56 -356 -72 -104 -8 -122 -12 -137 -31 -35 -42 -19 -80 45 -107 36 -16 276 -16 802 -1 358 11 452 10 745 -5 184 -9 432 -21 550 -27 369 -19 688 5 960 71 47 11 100 23 118 27 18 3 35 10 38 14 3 5 16 9 29 9 13 0 27 5 30 10 3 6 15 10 26 10 10 0 27 4 37 9 9 5 58 26 107 46 193 80 366 186 517 319 135 118 259 266 342 407 62 105 156 315 156 350 0 10 4 20 9 23 5 3 11 20 14 38 3 18 10 53 16 78 49 203 53 512 11 700 -12 52 -24 107 -27 123 -3 15 -9 30 -14 33 -5 3 -9 14 -9 24 0 11 -19 63 -42 117 -149 348 -409 638 -793 885 -95 61 -313 174 -405 210 -110 43 -150 62 -150 70 0 9 10 18 75 68 158 124 386 365 481 510 78 120 179 326 195 400 4 19 13 53 19 75 34 116 52 448 30 559 -17 88 -31 148 -40 171 -4 11 -14 36 -20 55 -23 63 -77 165 -126 236 -82 118 -171 202 -331 313 -42 29 -217 115 -268 132 -22 7 -44 17 -49 21 -6 4 -18 8 -28 8 -10 0 -26 4 -36 9 -18 10 -147 42 -242 59 -258 48 -400 56 -810 46 -441 -11 -999 -11 -1580 -1 -417 7 -447 7 -480 -10z" fill="#221e1f" id="221e1f-000004" mask="url(#mask-2)"/>
    <path stroke="none" d="M20992 20830 c-38 -16 -52 -36 -52 -74 0 -61 25 -69 229 -78 164 -7 197 -11 291 -36 112 -30 185 -85 228 -174 79 -163 77 -113 77 -2538 0 -1623 -3 -2177 -13 -2345 -30 -514 -82 -700 -211 -758 -58 -26 -98 -33 -294 -51 -171 -16 -186 -22 -186 -76 0 -33 16 -53 57 -70 28 -11 107 -12 455 -4 528 11 759 11 1414 0 571 -10 595 -8 614 43 14 35 1 81 -25 90 -12 5 -66 12 -121 15 -225 15 -431 41 -441 58 -3 4 -12 8 -20 8 -35 0 -102 71 -137 143 -48 100 -66 199 -88 487 -12 152 -25 1634 -15 1674 3 14 15 30 26 36 20 11 745 -3 809 -16 40 -8 91 -56 150 -140 22 -33 81 -115 130 -184 50 -69 114 -159 143 -200 28 -41 71 -102 95 -135 23 -33 122 -172 220 -310 97 -137 180 -252 183 -255 4 -3 22 -27 40 -55 109 -160 374 -497 523 -664 247 -276 523 -476 743 -537 211 -58 302 -64 964 -64 566 0 586 1 618 20 27 17 32 25 32 59 0 23 -6 44 -15 51 -9 7 -69 19 -133 25 -162 17 -176 20 -314 56 -65 17 -104 32 -193 76 -177 88 -326 195 -494 358 -103 100 -280 287 -355 375 -16 19 -59 69 -96 110 -85 97 -196 229 -290 345 -195 240 -244 300 -250 305 -3 3 -36 43 -74 90 -37 47 -73 92 -79 100 -84 104 -147 183 -167 210 -27 36 -192 245 -320 405 -195 245 -230 291 -230 306 0 8 53 60 117 115 164 139 365 343 483 489 55 68 100 128 100 134 0 5 4 11 8 13 9 3 72 93 72 102 0 3 13 24 29 48 29 44 131 250 131 266 0 5 7 24 16 42 9 18 21 49 26 69 5 20 14 52 19 71 47 159 71 409 58 605 -9 148 -45 302 -100 422 -10 24 -19 46 -19 51 0 17 -65 132 -126 223 -79 118 -191 240 -283 308 -38 28 -72 51 -76 51 -5 0 -16 6 -24 14 -44 39 -302 154 -416 186 -16 5 -48 14 -70 20 -138 39 -360 73 -595 91 -124 9 -278 10 -620 3 -557 -11 -1103 -11 -1690 -1 -295 5 -453 4 -468 -3z" fill="#221e1f" id="221e1f-000005" mask="url(#mask-3)"/>
    <path stroke="none" d="M43435 20822 c-26 -16 -30 -25 -30 -63 0 -65 32 -78 194 -79 281 -1 444 -57 530 -184 15 -22 31 -52 35 -66 4 -14 13 -47 21 -75 7 -27 18 -127 24 -222 15 -230 15 -4089 0 -4449 -21 -539 -68 -753 -181 -837 -59 -43 -132 -58 -367 -77 -81 -6 -127 -14 -133 -22 -4 -7 -7 -31 -6 -53 3 -34 8 -42 38 -58 33 -17 63 -17 470 -10 551 10 843 10 1455 -1 444 -7 494 -7 528 8 46 20 65 55 49 91 -16 34 -39 41 -157 49 -406 26 -498 56 -567 182 -59 109 -75 201 -88 514 -12 270 -13 2267 -2 2274 12 7 23 -3 91 -94 79 -105 123 -161 136 -175 6 -7 48 -58 95 -115 47 -57 128 -154 180 -215 52 -62 104 -123 114 -136 20 -25 137 -160 146 -169 3 -3 25 -30 50 -60 25 -30 47 -57 50 -60 3 -3 34 -39 70 -80 36 -41 67 -77 70 -80 3 -3 25 -30 50 -60 25 -30 47 -57 50 -60 3 -3 39 -43 80 -90 41 -47 77 -87 80 -90 3 -3 18 -21 34 -40 109 -134 533 -605 759 -843 213 -225 458 -435 643 -553 78 -50 206 -110 289 -135 22 -6 51 -15 65 -20 37 -11 141 -27 252 -39 55 -6 379 -10 741 -10 543 0 650 2 680 15 37 15 47 31 47 75 0 46 -14 52 -180 70 -83 9 -125 17 -202 39 -21 6 -53 15 -70 20 -49 14 -186 65 -248 93 -30 14 -59 27 -65 29 -8 3 -68 39 -193 114 -71 43 -262 186 -353 265 -334 291 -730 687 -1312 1313 -273 294 -411 443 -451 487 -23 25 -88 97 -146 160 -465 508 -790 883 -790 909 0 16 1874 1874 1980 1963 112 94 300 234 350 260 14 7 53 30 87 51 35 20 65 37 68 37 2 0 30 12 62 26 121 55 143 63 196 75 20 5 56 14 80 20 85 21 145 30 266 38 114 7 125 10 142 32 30 38 25 84 -12 110 l-31 22 -337 -9 c-428 -11 -978 -12 -1336 0 -253 8 -283 7 -313 -8 -29 -15 -32 -21 -32 -61 0 -40 4 -47 33 -65 17 -11 39 -20 49 -20 9 0 34 -10 57 -22 42 -22 81 -85 81 -131 0 -97 -98 -248 -366 -567 -113 -135 -464 -507 -1069 -1135 -385 -400 -457 -476 -580 -606 -61 -64 -117 -116 -125 -115 -13 1 -15 113 -18 926 -3 899 4 1186 29 1323 13 72 57 170 94 209 66 71 215 118 375 118 117 0 159 22 160 84 0 35 -30 63 -78 72 -20 4 -194 3 -386 -2 -430 -11 -927 -11 -1521 -1 -428 7 -451 6 -480 -11z" fill="#221e1f" id="221e1f-000006" mask="url(#mask-4)"/>
    <path stroke="none" d="M9096 17373 c-3 -203 -11 -588 -16 -858 -6 -269 -24 -1190 -40 -2045 -16 -855 -34 -1787 -40 -2070 -22 -1082 -60 -3067 -60 -3101 l0 -36 -102 -11 c-648 -72 -1321 -65 -1958 19 -71 9 -112 15 -267 40 -107 17 -252 45 -358 70 -22 5 -60 13 -85 19 -56 11 -113 25 -165 40 -22 6 -51 14 -65 16 -14 3 -34 9 -45 14 -11 4 -40 13 -65 20 -90 25 -116 33 -165 51 -27 10 -90 32 -140 49 -49 17 -101 36 -115 42 -14 6 -34 14 -45 18 -11 5 -36 15 -56 24 -187 81 -177 72 -159 148 16 71 41 199 51 258 5 30 14 78 20 105 5 28 14 73 18 100 5 28 16 88 25 135 30 152 46 235 66 345 6 33 15 76 20 95 4 19 18 89 30 155 34 188 41 227 50 270 5 22 14 69 20 105 6 36 15 81 20 100 5 19 12 55 15 80 3 25 12 74 20 110 17 76 44 216 55 280 5 25 13 71 19 103 6 31 16 83 22 115 24 125 29 149 39 202 5 30 14 78 20 105 5 28 14 75 19 105 5 30 15 78 21 105 7 28 15 73 20 100 7 45 37 204 61 325 5 25 13 70 19 100 6 30 15 78 20 105 5 28 14 75 20 105 6 30 15 78 21 105 5 28 14 73 18 100 5 28 14 75 20 105 7 30 16 78 20 105 5 28 16 86 25 130 9 44 21 107 27 140 5 33 14 76 19 95 5 19 12 55 15 80 3 25 12 74 20 110 8 36 23 117 35 180 12 63 26 138 31 165 5 28 14 75 20 105 6 30 15 73 19 95 5 22 12 56 15 75 6 35 19 105 35 190 5 25 14 70 19 100 5 30 15 80 21 110 7 30 16 75 20 100 8 43 42 223 61 320 5 25 13 70 19 100 6 30 15 78 20 105 5 28 14 75 19 105 5 30 15 78 21 105 6 28 16 75 21 105 5 30 14 78 20 105 5 28 14 73 18 100 5 28 16 88 25 135 30 152 46 235 66 345 6 33 15 76 20 95 4 19 18 91 31 160 12 69 30 165 41 214 21 104 23 146 6 146 -27 0 -220 -40 -340 -70 -21 -6 -57 -15 -80 -21 -24 -6 -70 -18 -103 -28 -33 -10 -80 -24 -105 -31 -25 -7 -54 -16 -65 -20 -11 -5 -47 -18 -80 -30 -33 -12 -83 -32 -112 -45 l-51 -24 -6 -78 c-4 -43 -11 -105 -16 -138 -5 -33 -14 -107 -20 -165 -10 -99 -15 -142 -39 -350 -6 -47 -15 -130 -21 -185 -6 -55 -15 -136 -21 -180 -9 -80 -30 -264 -69 -615 -11 -102 -29 -261 -40 -355 -11 -93 -25 -213 -30 -265 -6 -52 -15 -133 -21 -180 -17 -146 -28 -242 -39 -340 -5 -52 -19 -171 -30 -265 -20 -175 -45 -397 -80 -717 -11 -101 -24 -217 -30 -258 -5 -41 -14 -120 -20 -175 -6 -55 -15 -137 -20 -182 -6 -46 -14 -120 -20 -165 -5 -46 -14 -128 -20 -183 -6 -55 -15 -136 -21 -180 -9 -80 -30 -264 -69 -615 -11 -102 -29 -261 -40 -355 -11 -93 -25 -213 -30 -265 -6 -52 -15 -132 -20 -177 -6 -46 -14 -120 -20 -165 -5 -46 -14 -126 -20 -178 -5 -52 -19 -171 -30 -265 -11 -93 -28 -253 -40 -355 -19 -180 -31 -278 -50 -410 -6 -36 -17 -119 -26 -185 l-16 -119 28 -23 c16 -13 35 -23 41 -23 7 0 86 -35 175 -79 175 -84 255 -121 263 -121 3 0 24 -8 48 -19 23 -10 69 -29 102 -41 33 -12 69 -26 80 -30 11 -5 38 -14 60 -21 22 -6 63 -20 90 -29 97 -34 217 -69 345 -100 19 -5 53 -14 75 -19 78 -21 337 -74 495 -101 180 -31 459 -65 715 -87 281 -24 998 -23 1283 0 288 24 651 71 822 106 25 5 70 14 100 20 30 6 75 15 100 21 25 6 68 14 95 20 28 5 68 14 90 20 22 6 56 15 75 20 19 5 53 14 75 20 22 6 56 15 75 19 37 9 192 58 225 71 11 5 38 14 60 21 22 6 49 15 60 19 248 96 241 93 425 182 147 71 300 156 300 167 0 3 -5 44 -10 91 -6 47 -15 126 -20 175 -5 50 -14 128 -20 175 -6 47 -15 128 -20 180 -5 52 -14 133 -20 180 -6 47 -15 128 -20 180 -5 52 -14 133 -20 180 -6 47 -15 128 -20 180 -5 52 -14 133 -20 180 -6 47 -15 128 -20 180 -5 52 -14 133 -20 180 -6 47 -15 128 -20 180 -5 52 -14 136 -20 185 -6 50 -15 133 -20 185 -5 52 -14 133 -20 180 -6 47 -15 128 -20 180 -5 52 -14 133 -20 180 -6 47 -15 128 -20 180 -5 52 -14 133 -20 180 -6 47 -15 128 -20 180 -5 52 -14 133 -20 180 -6 47 -15 128 -20 180 -5 52 -14 133 -20 180 -6 47 -14 126 -19 175 -10 95 -29 266 -61 557 -11 98 -29 259 -40 358 -11 99 -29 261 -40 360 -11 99 -29 261 -40 360 -11 99 -29 262 -40 362 -12 101 -27 239 -35 308 -8 69 -16 150 -19 180 -5 51 -13 122 -66 595 -10 94 -28 258 -40 365 -40 366 -61 515 -73 527 -7 7 -33 17 -57 22 -25 5 -62 15 -82 20 -21 6 -55 16 -75 22 -48 13 -106 27 -163 38 -25 5 -79 15 -120 24 -171 34 -457 77 -513 77 l-34 0 -7 -367z" fill="#221e1f" id="221e1f-000007" mask="url(#mask-4)"/>
    <path stroke="none" d="M22925 11449 c-112 -10 -175 -23 -290 -61 -295 -98 -476 -293 -521 -563 -25 -150 -10 -294 44 -409 34 -72 138 -186 207 -224 68 -38 178 -89 230 -107 90 -31 304 -85 500 -126 22 -4 58 -12 80 -17 77 -19 140 -33 168 -39 15 -3 30 -9 33 -14 3 -5 14 -9 25 -9 10 0 27 -4 37 -9 9 -5 32 -15 51 -22 55 -20 176 -104 204 -140 54 -72 69 -124 65 -239 -2 -89 -7 -114 -30 -162 -47 -100 -129 -174 -248 -222 -219 -88 -559 -80 -775 20 -205 95 -328 276 -348 509 l-2 30 -165 0 -165 0 -4 -25 c-4 -29 15 -177 30 -235 46 -175 168 -356 299 -445 98 -67 177 -109 245 -130 22 -7 49 -16 60 -20 25 -10 84 -25 155 -40 30 -7 136 -15 235 -17 171 -5 259 2 380 28 28 5 65 13 83 16 18 3 35 9 38 14 3 5 15 9 28 9 12 0 26 4 31 8 6 5 33 18 60 29 82 33 222 131 278 194 70 80 121 166 149 252 20 62 23 93 23 222 0 199 -23 278 -119 404 -82 108 -252 216 -426 270 -114 36 -122 38 -165 49 -22 6 -60 16 -85 22 -62 16 -106 26 -167 39 -278 58 -429 103 -520 156 -121 71 -173 155 -173 277 0 182 96 313 285 389 99 39 420 51 515 18 19 -7 44 -15 55 -19 77 -26 162 -80 211 -133 79 -85 115 -161 137 -287 l12 -65 163 -3 c138 -2 163 0 168 13 10 25 -16 221 -35 270 -50 124 -83 181 -153 267 -95 115 -273 211 -473 256 -45 11 -292 34 -319 31 -6 -1 -51 -5 -101 -10z" fill="#221e1f" id="221e1f-000008" mask="url(#mask-4)"/>
    <path stroke="none" d="M44475 11449 c-134 -11 -240 -34 -322 -70 -24 -11 -47 -19 -52 -19 -10 0 -95 -44 -147 -76 -129 -79 -241 -184 -326 -304 -39 -56 -137 -244 -159 -305 -69 -192 -93 -348 -93 -595 0 -264 26 -420 103 -629 122 -331 371 -570 696 -668 39 -12 97 -28 130 -35 82 -18 468 -18 550 0 93 21 138 33 157 43 10 5 22 9 28 9 21 0 148 64 213 108 65 44 227 197 227 214 0 5 9 19 20 31 25 26 111 201 136 272 34 101 63 244 64 308 l0 37 -169 0 -169 0 -11 -31 c-6 -18 -11 -46 -11 -62 0 -17 -4 -44 -10 -61 -70 -221 -110 -294 -215 -394 -123 -118 -243 -172 -422 -192 -102 -12 -242 -3 -318 21 -134 41 -171 58 -265 122 -139 96 -270 291 -320 477 -31 117 -32 125 -51 270 -13 100 -6 382 11 455 48 200 70 263 132 374 41 73 77 118 156 193 65 62 100 86 184 127 103 49 120 55 213 71 120 21 362 5 450 -29 106 -42 186 -92 255 -161 82 -81 123 -149 164 -270 l25 -75 171 -3 c194 -3 191 -4 171 76 -26 100 -34 128 -52 169 -11 24 -19 48 -19 55 0 7 -9 24 -20 38 -11 14 -20 30 -20 36 0 6 -9 19 -20 29 -11 10 -20 23 -20 30 0 6 -34 48 -76 93 -97 104 -217 185 -361 243 -13 5 -33 13 -45 18 -13 5 -36 12 -53 16 -16 3 -48 10 -70 16 -120 29 -296 40 -440 28z" fill="#221e1f" id="221e1f-000009" mask="url(#mask-4)"/>
    <path stroke="none" d="M35768 11378 c-9 -9 -23 -31 -31 -50 -26 -59 -57 -140 -57 -149 0 -5 -9 -31 -21 -57 -27 -60 -27 -61 -89 -222 -68 -177 -66 -171 -78 -200 -5 -14 -29 -74 -52 -135 -23 -60 -46 -120 -51 -132 -5 -13 -13 -33 -18 -45 -5 -13 -18 -44 -30 -70 -12 -26 -21 -51 -21 -55 0 -5 -18 -55 -41 -113 -22 -58 -44 -114 -49 -125 -4 -11 -12 -32 -19 -47 -6 -16 -15 -39 -21 -53 -5 -14 -14 -35 -19 -47 -5 -13 -28 -72 -51 -133 -23 -60 -51 -129 -61 -152 -11 -24 -19 -46 -19 -50 0 -7 -62 -171 -92 -243 -6 -14 -15 -35 -19 -47 -5 -13 -13 -33 -18 -45 -4 -13 -13 -34 -19 -48 -5 -14 -29 -74 -52 -135 -23 -60 -51 -129 -61 -152 -11 -24 -19 -54 -19 -68 l0 -25 173 0 173 0 27 61 c15 33 27 65 27 70 0 5 4 17 9 27 5 9 19 44 31 77 12 33 26 69 30 80 4 11 13 36 20 55 7 19 16 44 20 55 4 11 17 46 29 78 12 31 30 83 42 115 25 68 32 85 53 135 l17 37 534 0 c584 0 558 3 571 -58 3 -15 9 -36 14 -47 4 -11 17 -45 28 -75 11 -30 28 -75 37 -100 9 -25 23 -65 31 -90 8 -25 19 -54 23 -65 5 -11 14 -36 21 -55 7 -19 16 -44 20 -55 5 -11 23 -60 40 -110 53 -151 24 -135 242 -135 l188 0 0 25 c0 14 -8 44 -19 68 -10 23 -38 92 -61 152 -42 110 -50 131 -71 183 -7 15 -15 36 -19 47 -4 11 -12 31 -18 45 -30 72 -92 236 -92 243 0 4 -9 27 -20 52 -11 25 -29 65 -40 90 -11 25 -20 49 -20 54 0 9 -32 93 -61 158 -11 24 -19 47 -19 53 0 6 -4 18 -9 28 -9 17 -23 51 -40 95 -4 12 -13 33 -19 47 -5 14 -20 52 -32 85 -12 33 -28 74 -35 90 -30 70 -65 159 -65 167 0 4 -8 27 -19 51 -10 23 -38 92 -61 152 -23 61 -51 129 -61 152 -11 24 -19 47 -19 53 0 6 -4 18 -9 28 -9 17 -23 51 -40 95 -4 12 -13 33 -19 47 -5 14 -24 63 -42 110 -41 108 -43 114 -74 182 l-25 57 -183 3 c-160 3 -185 1 -200 -14z" fill="#221e1f" id="221e1f-000014" mask="url(#mask-4)"/>
    <path stroke="none" d="M15095 11378 c-3 -7 -4 -593 -3 -1303 l3 -1290 170 0 170 0 0 1300 0 1300 -168 3 c-128 2 -169 0 -172 -10z" fill="#221e1f" id="221e1f-000010" mask="url(#mask-5)"/>
    <path stroke="none" d="M17765 11378 c-3 -7 -4 -593 -3 -1303 l3 -1290 168 -3 167 -2 0 1030 c0 566 3 1030 8 1030 6 -1 114 -158 167 -244 11 -18 29 -46 39 -62 11 -16 62 -96 115 -177 53 -82 154 -237 224 -344 71 -108 151 -232 179 -277 28 -44 59 -92 70 -106 24 -33 178 -269 178 -274 0 -3 62 -98 138 -213 76 -114 144 -219 152 -233 7 -14 31 -49 53 -78 l40 -52 186 2 186 3 0 1300 0 1300 -165 0 -165 0 -3 -1032 c-1 -568 -5 -1033 -10 -1033 -6 0 -242 350 -251 375 -2 5 -39 63 -83 127 -43 65 -78 121 -78 125 0 4 -18 32 -40 61 -22 29 -40 55 -40 57 0 4 -117 185 -208 321 -7 10 -20 32 -30 47 -9 15 -59 91 -109 168 -51 77 -93 143 -93 147 0 4 -18 31 -40 60 -22 29 -40 55 -40 57 0 3 -45 73 -100 155 -55 83 -100 155 -100 159 0 4 -9 16 -20 26 -11 10 -20 22 -20 27 0 5 -23 42 -50 83 l-51 75 -185 0 c-138 0 -186 -3 -189 -12z" fill="#221e1f" id="221e1f-000011" mask="url(#mask-5)"/>
    <path stroke="none" d="M26287 11384 c-11 -12 -8 -1791 3 -1864 58 -370 205 -568 520 -703 70 -29 109 -40 250 -69 88 -18 482 -18 570 0 75 15 136 31 165 42 11 5 47 18 80 31 33 13 92 44 130 70 75 49 200 175 225 224 8 17 22 41 30 55 19 29 52 114 70 180 7 25 16 56 20 70 26 79 31 287 28 1110 l-3 855 -175 0 -175 0 -6 -915 c-6 -920 -7 -950 -44 -1055 -49 -140 -149 -257 -268 -315 -82 -40 -113 -48 -251 -67 -97 -13 -122 -13 -225 0 -147 19 -177 27 -268 72 -108 53 -190 134 -241 237 -22 46 -47 108 -55 138 -9 30 -19 66 -23 80 -4 14 -10 430 -13 925 l-6 900 -166 3 c-91 1 -168 -1 -172 -4z" fill="#221e1f" id="221e1f-000012" mask="url(#mask-5)"/>
    <path stroke="none" d="M30735 11378 c-3 -7 -4 -593 -3 -1303 l3 -1290 175 0 175 0 5 550 5 550 485 0 485 0 70 -35 c120 -61 181 -168 215 -385 6 -38 16 -94 21 -124 5 -30 9 -90 9 -133 0 -111 19 -318 32 -348 6 -14 16 -36 24 -50 l13 -25 195 -3 c211 -3 215 -2 176 48 -11 14 -20 28 -20 33 0 4 -9 26 -19 50 -10 23 -24 65 -30 92 -7 28 -16 66 -21 85 -5 19 -14 112 -20 205 -12 194 -27 326 -41 371 -5 17 -9 38 -9 47 0 10 -4 25 -8 35 -78 160 -123 212 -231 263 -39 18 -71 36 -71 39 0 3 15 11 33 19 132 54 236 148 287 258 41 89 46 101 58 148 80 297 2 593 -198 749 -94 73 -137 94 -295 144 -43 13 -152 16 -773 19 -586 3 -723 2 -727 -9z" fill="#221e1f" id="221e1f-000013" mask="url(#mask-5)"/>
    <path stroke="none" d="M39165 11378 c-3 -7 -4 -593 -3 -1303 l3 -1290 160 0 160 0 5 1024 c4 807 8 1025 18 1029 6 2 12 -1 12 -7 0 -5 45 -78 100 -161 55 -82 100 -152 100 -154 0 -3 62 -98 138 -213 76 -114 150 -228 165 -253 15 -25 35 -56 46 -70 10 -14 63 -95 118 -180 81 -126 327 -504 381 -586 7 -10 20 -32 30 -48 9 -16 32 -48 50 -72 17 -25 32 -46 32 -49 0 -3 39 -64 87 -135 l86 -130 191 2 191 3 0 1300 0 1300 -165 0 -165 0 -5 -1038 c-5 -982 -6 -1037 -22 -1018 -24 28 -118 171 -118 179 0 4 -18 31 -40 60 -22 29 -40 55 -40 57 0 3 -45 73 -100 155 -55 83 -100 155 -100 159 0 4 -9 16 -20 26 -11 10 -20 22 -20 27 0 5 -36 62 -80 128 -44 66 -80 123 -80 128 0 5 -9 17 -20 27 -11 10 -20 22 -20 26 0 5 -40 68 -88 141 -108 163 -174 264 -282 433 -46 72 -95 148 -109 169 -14 21 -31 47 -36 56 -33 55 -181 276 -190 282 -5 4 -90 8 -188 8 -133 0 -179 -3 -182 -12z" fill="#221e1f" id="221e1f-000015" mask="url(#mask-6)"/>
    <path stroke="none" d="M47935 11378 c-3 -7 -4 -593 -3 -1303 l3 -1290 905 0 905 0 0 150 0 150 -725 5 -725 5 0 435 0 435 670 5 670 5 3 152 3 153 -673 2 -673 3 0 400 0 400 720 5 720 5 0 145 0 145 -898 3 c-713 2 -899 0 -902 -10z" fill="#221e1f" id="221e1f-000016" mask="url(#mask-6)"/>
    <path stroke="none" d="M14700 6185 c-91 -21 -151 -45 -210 -85 -80 -54 -123 -117 -159 -231 -25 -81 -6 -223 42 -314 6 -11 16 -30 22 -42 35 -66 145 -180 278 -287 239 -191 290 -263 291 -411 1 -70 -2 -86 -26 -126 -59 -99 -123 -132 -263 -133 -111 -1 -162 15 -228 74 -53 46 -101 158 -109 255 -3 33 -31 47 -41 20 -4 -8 -10 -94 -13 -190 -8 -191 -7 -194 50 -219 82 -36 191 -56 315 -56 87 0 119 5 211 31 210 62 354 266 337 479 -9 112 -15 135 -58 223 -45 91 -184 238 -319 337 -248 183 -320 309 -256 454 68 153 322 184 459 57 41 -38 66 -82 83 -148 17 -66 26 -79 42 -61 12 15 20 317 9 335 -7 12 -22 15 -152 37 -107 18 -229 19 -305 1z" fill="#221e1f" id="221e1f-000017" mask="url(#mask-6)"/>
    <path stroke="none" d="M17525 6185 c-64 -12 -93 -20 -164 -41 -13 -4 -51 -20 -84 -36 -218 -106 -374 -297 -439 -538 -40 -149 -46 -267 -22 -400 23 -130 26 -140 35 -146 5 -3 9 -13 9 -23 0 -27 55 -135 111 -217 79 -118 255 -251 379 -288 78 -23 103 -29 185 -41 170 -27 318 -14 481 41 128 43 204 89 314 191 174 162 279 440 267 704 -3 63 -10 134 -16 159 -5 25 -13 59 -16 75 -9 40 -15 55 -64 155 -107 220 -334 368 -628 410 -95 13 -260 11 -348 -5z" fill="#221e1f" id="221e1f-000018" mask="url(#mask-6)"/>
    <path stroke="none" d="M19226 6177 c-12 -18 -16 -158 -26 -767 -6 -410 -13 -756 -16 -770 -17 -84 -25 -98 -68 -109 -22 -6 -57 -12 -76 -13 -23 -2 -36 -9 -38 -19 -3 -15 26 -16 290 -15 253 1 293 3 293 16 0 11 -16 17 -60 21 -106 10 -129 29 -153 129 -6 27 -14 249 -18 548 -6 456 -6 502 9 496 9 -3 85 -81 169 -172 84 -92 354 -369 599 -615 406 -408 449 -448 475 -445 l29 3 3 90 c1 50 9 398 16 775 14 740 13 736 68 772 14 9 45 18 69 20 31 2 44 7 44 18 0 13 -38 15 -280 15 -242 0 -280 -2 -280 -15 0 -11 16 -16 65 -20 107 -9 133 -36 144 -150 3 -36 11 -279 16 -540 6 -261 13 -483 16 -492 13 -43 -32 -10 -148 109 -67 70 -254 260 -413 423 -160 163 -380 391 -489 508 -109 116 -205 213 -212 216 -8 3 -20 -5 -28 -17z" fill="#221e1f" id="221e1f-000019" mask="url(#mask-7)"/>
    <path stroke="none" d="M22925 6185 c-64 -12 -93 -20 -164 -41 -13 -4 -51 -20 -84 -36 -218 -106 -374 -297 -439 -538 -40 -149 -46 -267 -22 -400 23 -130 26 -140 35 -146 5 -3 9 -13 9 -23 0 -27 55 -135 111 -217 79 -118 255 -251 379 -288 78 -23 103 -29 185 -41 170 -27 318 -14 481 41 128 43 204 89 314 191 174 162 279 440 267 704 -3 63 -10 134 -16 159 -5 25 -13 59 -16 75 -9 40 -15 55 -64 155 -107 220 -334 368 -628 410 -95 13 -260 11 -348 -5z" fill="#221e1f" id="221e1f-000020" mask="url(#mask-7)"/>
    <path stroke="none" d="M29485 6185 c-64 -12 -93 -20 -164 -41 -13 -4 -51 -20 -84 -36 -218 -106 -374 -297 -439 -538 -40 -149 -46 -267 -22 -400 23 -130 26 -140 35 -146 5 -3 9 -13 9 -23 0 -27 55 -135 111 -217 79 -118 255 -251 379 -288 78 -23 103 -29 185 -41 170 -27 318 -14 481 41 128 43 204 89 314 191 174 162 279 440 267 704 -3 63 -10 134 -16 159 -5 25 -13 59 -16 75 -9 40 -15 55 -64 155 -107 220 -334 368 -628 410 -95 13 -260 11 -348 -5z" fill="#221e1f" id="221e1f-000021" mask="url(#mask-8)"/>
    <path stroke="none" d="M31800 6184 c-141 -24 -150 -26 -156 -35 -3 -5 -14 -9 -25 -9 -10 0 -27 -4 -37 -9 -9 -5 -43 -21 -74 -35 -112 -50 -239 -155 -307 -256 -47 -68 -109 -193 -122 -246 -38 -147 -46 -257 -29 -395 16 -127 26 -160 88 -289 69 -143 203 -272 362 -347 111 -53 106 -51 228 -83 138 -37 418 -52 548 -30 185 31 201 36 284 72 86 38 80 13 80 353 0 375 4 389 115 404 26 4 40 11 40 21 0 13 -43 15 -320 15 -278 0 -320 -2 -320 -15 0 -11 16 -17 60 -21 145 -14 146 -17 143 -387 l-3 -285 -45 -23 c-40 -21 -60 -23 -167 -24 -200 0 -329 39 -479 146 -34 24 -79 65 -101 91 -48 58 -123 168 -123 181 0 5 -7 24 -16 42 -9 18 -20 46 -25 64 -4 17 -16 60 -25 96 -21 77 -26 385 -8 435 7 17 17 50 24 75 44 159 175 299 335 360 116 44 313 50 480 15 95 -20 257 -110 292 -163 34 -50 63 -127 63 -168 0 -30 20 -42 35 -21 16 23 28 396 13 414 -6 7 -31 13 -57 13 -25 0 -78 7 -116 16 -192 42 -473 55 -635 28z" fill="#221e1f" id="221e1f-000022" mask="url(#mask-9)"/>
    <path stroke="none" d="M34105 6189 c-191 -24 -303 -29 -609 -28 -240 1 -341 -2 -349 -10 -18 -18 10 -31 69 -31 63 0 112 -30 130 -80 9 -27 13 -191 13 -687 1 -827 3 -817 -124 -832 -35 -4 -50 -10 -50 -21 0 -13 20 -15 125 -14 69 0 280 -4 470 -8 190 -5 361 -6 381 -3 29 5 38 12 46 38 18 53 38 276 25 289 -16 16 -29 2 -35 -39 -22 -147 -48 -163 -278 -163 -151 0 -198 8 -235 42 -41 36 -45 77 -42 383 l3 290 150 3 c158 3 246 -8 278 -36 22 -20 47 -76 47 -107 0 -28 27 -55 34 -34 3 8 7 87 11 177 5 117 3 162 -5 162 -6 0 -25 -10 -41 -22 -30 -22 -38 -23 -252 -23 l-222 0 0 305 0 305 180 -1 c158 0 185 -3 220 -20 43 -21 64 -54 72 -115 6 -41 19 -57 33 -43 7 7 24 155 33 303 2 29 -2 30 -78 20z" fill="#221e1f" id="221e1f-000023" mask="url(#mask-9)"/>
    <path stroke="none" d="M37220 6185 c-91 -21 -151 -45 -210 -85 -80 -54 -123 -117 -159 -231 -25 -81 -6 -223 42 -314 6 -11 16 -30 22 -42 35 -66 145 -180 278 -287 239 -191 290 -263 291 -411 1 -70 -2 -86 -26 -126 -59 -99 -123 -132 -263 -133 -111 -1 -162 15 -228 74 -53 46 -101 158 -109 255 -3 33 -31 47 -41 20 -4 -8 -10 -94 -13 -190 -8 -191 -7 -194 50 -219 82 -36 191 -56 315 -56 87 0 119 5 211 31 210 62 354 266 337 479 -9 112 -15 135 -58 223 -45 91 -184 238 -319 337 -248 183 -320 309 -256 454 68 153 322 184 459 57 41 -38 66 -82 83 -148 17 -66 26 -79 42 -61 12 15 20 317 9 335 -7 12 -22 15 -152 37 -107 18 -229 19 -305 1z" fill="#221e1f" id="221e1f-000024" mask="url(#mask-9)"/>
    <path stroke="none" d="M39765 6186 c-69 -14 -75 -16 -171 -61 -81 -38 -148 -106 -191 -195 -25 -50 -27 -65 -26 -160 0 -95 3 -112 31 -173 17 -37 40 -80 51 -95 21 -30 13 -62 -14 -62 -24 0 -194 -171 -229 -229 -65 -113 -80 -166 -79 -276 1 -73 7 -114 21 -151 26 -70 93 -165 144 -207 46 -38 161 -97 188 -97 9 0 20 -4 25 -9 12 -11 71 -19 194 -27 185 -12 357 37 496 141 33 25 64 45 70 45 5 0 28 -11 50 -25 177 -107 271 -129 545 -123 139 2 165 5 165 18 0 10 -15 17 -45 22 -66 9 -108 22 -173 52 -69 31 -244 148 -306 202 l-43 39 45 65 c74 107 122 216 155 353 19 77 16 114 -12 132 -26 17 -163 34 -279 35 -60 0 -68 -2 -65 -17 2 -13 16 -20 44 -23 89 -12 129 -67 120 -164 -7 -76 -15 -125 -25 -151 -65 -162 -67 -163 -117 -126 -138 103 -530 504 -611 626 -25 39 -49 72 -53 75 -26 19 -70 162 -70 226 0 50 4 65 37 141 42 99 197 141 337 92 112 -39 186 -143 186 -260 0 -35 14 -58 27 -45 13 13 32 158 32 252 1 85 -2 103 -17 117 -10 10 -25 17 -33 17 -8 0 -34 7 -59 16 -59 21 -264 27 -345 10z" fill="#221e1f" id="221e1f-000025" mask="url(#mask-9)"/>
    <path stroke="none" d="M42840 6184 c-141 -24 -150 -26 -156 -35 -3 -5 -14 -9 -25 -9 -10 0 -27 -4 -37 -9 -9 -5 -43 -21 -74 -35 -112 -50 -239 -155 -307 -256 -47 -68 -109 -193 -122 -246 -38 -147 -46 -257 -29 -395 16 -127 26 -160 88 -289 69 -143 203 -272 362 -347 111 -53 106 -51 228 -83 138 -37 418 -52 548 -30 185 31 201 36 284 72 86 38 80 13 80 353 0 375 4 389 115 404 26 4 40 11 40 21 0 13 -43 15 -320 15 -278 0 -320 -2 -320 -15 0 -11 16 -17 60 -21 145 -14 146 -17 143 -387 l-3 -285 -45 -23 c-40 -21 -60 -23 -167 -24 -200 0 -329 39 -479 146 -34 24 -79 65 -101 91 -48 58 -123 168 -123 181 0 5 -7 24 -16 42 -9 18 -20 46 -25 64 -4 17 -16 60 -25 96 -21 77 -26 385 -8 435 7 17 17 50 24 75 44 159 175 299 335 360 116 44 313 50 480 15 95 -20 257 -110 292 -163 34 -50 63 -127 63 -168 0 -30 20 -42 35 -21 16 23 28 396 13 414 -6 7 -31 13 -57 13 -25 0 -78 7 -116 16 -192 42 -473 55 -635 28z" fill="#221e1f" id="221e1f-000026" mask="url(#mask-10)"/>
    <path stroke="none" d="M5538 6173 c-20 -24 -58 -105 -88 -188 -8 -22 -21 -55 -39 -97 -6 -16 -15 -39 -21 -53 -5 -14 -15 -37 -21 -52 -7 -16 -15 -37 -19 -48 -4 -11 -12 -31 -17 -45 -6 -14 -16 -38 -23 -55 -7 -16 -17 -41 -23 -55 -5 -14 -13 -34 -17 -45 -4 -11 -12 -32 -19 -47 -6 -16 -15 -39 -21 -53 -5 -14 -14 -36 -20 -50 -5 -14 -15 -37 -21 -52 -7 -16 -16 -38 -20 -50 -5 -13 -14 -35 -20 -50 -7 -16 -16 -38 -20 -50 -5 -13 -14 -35 -20 -50 -7 -16 -16 -38 -20 -50 -5 -13 -14 -35 -20 -50 -18 -43 -31 -76 -39 -98 -4 -11 -12 -32 -19 -47 -6 -16 -16 -40 -22 -55 -7 -16 -15 -37 -19 -48 -10 -25 -38 -91 -57 -131 -22 -50 -80 -111 -110 -119 -16 -3 -50 -10 -78 -13 -35 -5 -50 -12 -50 -22 0 -13 37 -15 275 -15 238 0 275 2 275 15 0 11 -14 16 -55 18 -65 4 -90 22 -90 67 0 35 30 136 61 202 10 24 19 47 19 52 0 10 37 107 51 133 5 10 9 24 9 31 0 8 8 21 18 30 16 15 50 17 265 17 210 0 248 -2 261 -16 9 -8 16 -22 16 -29 0 -8 9 -34 19 -57 11 -24 29 -70 41 -103 12 -33 27 -71 32 -85 6 -14 14 -34 18 -45 4 -11 17 -44 29 -74 28 -73 28 -117 -1 -125 -18 -4 -20 -8 -10 -18 10 -10 77 -13 285 -13 235 0 272 2 272 15 0 11 -15 17 -50 21 -111 12 -161 57 -232 208 -25 53 -49 105 -53 116 -4 11 -12 32 -19 48 -6 15 -15 37 -20 50 -5 12 -16 38 -24 57 -8 19 -27 67 -42 105 -15 39 -33 84 -40 100 -7 17 -25 62 -40 100 -15 39 -33 84 -40 100 -7 17 -25 62 -40 100 -15 39 -33 84 -40 100 -7 17 -25 62 -40 100 -15 39 -33 84 -40 100 -7 17 -25 62 -40 100 -69 181 -122 285 -145 285 -4 0 -13 -8 -22 -17z" fill="#221e1f" id="221e1f-000027" mask="url(#mask-10)"/>
    <path stroke="none" d="M25450 6174 c-21 -12 -97 -14 -517 -12 -390 2 -495 0 -505 -10 -19 -19 7 -32 68 -32 63 0 112 -30 130 -80 16 -46 20 -1311 3 -1392 -21 -104 -41 -128 -112 -128 -36 0 -62 -13 -54 -27 3 -5 156 -9 349 -8 298 0 343 2 343 15 0 9 -11 16 -30 18 -112 9 -139 15 -159 35 -37 37 -48 154 -44 477 l3 285 164 3 c226 4 273 -12 301 -103 16 -53 25 -70 36 -70 9 0 25 314 17 328 -3 5 -16 -2 -30 -15 -24 -23 -28 -23 -256 -23 l-232 0 0 300 0 300 180 3 c181 3 244 -5 292 -35 24 -16 43 -61 43 -104 0 -29 16 -47 30 -33 4 5 13 70 19 144 6 74 14 145 17 158 8 27 -17 30 -56 6z" fill="#221e1f" id="221e1f-000028" mask="url(#mask-11)"/>
    <path stroke="none" d="M46978 6173 c-20 -24 -58 -105 -88 -188 -8 -22 -21 -55 -39 -97 -6 -16 -15 -39 -21 -53 -5 -14 -15 -37 -21 -52 -7 -16 -15 -37 -19 -48 -9 -25 -24 -62 -40 -100 -16 -38 -31 -75 -40 -100 -4 -11 -12 -32 -19 -47 -6 -16 -15 -39 -21 -53 -5 -14 -14 -36 -20 -50 -5 -14 -15 -37 -21 -52 -7 -16 -16 -38 -20 -50 -5 -13 -14 -35 -20 -50 -7 -16 -16 -38 -20 -50 -5 -13 -14 -35 -20 -50 -7 -16 -16 -38 -20 -50 -5 -13 -14 -35 -20 -50 -18 -43 -31 -76 -39 -98 -4 -11 -12 -32 -19 -47 -6 -16 -16 -40 -22 -55 -7 -16 -15 -37 -19 -48 -10 -25 -38 -91 -57 -131 -22 -50 -80 -111 -110 -119 -16 -3 -50 -10 -78 -13 -35 -5 -50 -12 -50 -22 0 -13 37 -15 275 -15 238 0 275 2 275 15 0 11 -14 16 -55 18 -65 4 -90 22 -90 67 0 35 30 136 61 202 10 24 19 47 19 52 0 10 37 107 51 133 5 10 9 24 9 31 0 8 8 21 18 30 16 15 50 17 265 17 210 0 248 -2 261 -16 9 -8 16 -22 16 -29 0 -8 9 -34 19 -57 11 -24 29 -70 41 -103 12 -33 27 -71 32 -85 6 -14 14 -34 18 -45 4 -11 17 -44 29 -74 28 -73 28 -117 -1 -125 -18 -4 -20 -8 -10 -18 10 -10 77 -13 285 -13 235 0 272 2 272 15 0 11 -15 17 -50 21 -111 12 -161 57 -232 208 -25 53 -49 105 -53 116 -4 11 -12 32 -19 48 -6 15 -15 37 -20 50 -5 12 -16 38 -24 57 -8 19 -27 67 -42 105 -15 39 -33 84 -40 100 -7 17 -25 62 -40 100 -15 39 -33 84 -40 100 -7 17 -25 62 -40 100 -15 39 -33 84 -40 100 -7 17 -25 62 -40 100 -15 39 -33 84 -40 100 -7 17 -25 62 -40 100 -69 181 -122 285 -145 285 -4 0 -13 -8 -22 -17z" fill="#221e1f" id="221e1f-000029" mask="url(#mask-11)"/>
    <path stroke="none" d="M7634 6148 c-11 -18 10 -28 60 -28 65 0 114 -29 132 -80 16 -45 19 -1280 4 -1380 -19 -118 -28 -129 -115 -139 -35 -4 -50 -10 -50 -21 0 -13 27 -15 180 -16 99 0 205 -5 235 -11 30 -6 136 -17 235 -23 151 -10 199 -9 300 3 66 8 138 20 160 27 22 6 51 14 65 16 28 6 41 11 124 48 204 93 322 225 426 481 19 46 39 165 46 270 7 113 -19 277 -58 365 -9 19 -18 42 -22 50 -6 16 -32 58 -77 127 -75 112 -254 229 -414 271 -93 25 -136 32 -240 42 -124 11 -984 9 -991 -2z" fill="#221e1f" id="221e1f-000030" mask="url(#mask-12)"/>
    <path stroke="none" d="M9864 6148 c-10 -16 8 -28 44 -28 20 -1 52 -9 71 -18 62 -31 62 -30 59 -800 -4 -730 -4 -738 -52 -764 -11 -7 -43 -15 -71 -18 -35 -3 -50 -9 -50 -20 0 -13 44 -15 340 -15 304 0 340 2 343 16 2 13 -11 17 -73 22 -84 6 -119 23 -138 65 -17 39 -23 1389 -6 1451 14 51 55 81 109 81 39 0 69 15 56 27 -10 11 -626 12 -632 1z" fill="#221e1f" id="221e1f-000031" mask="url(#mask-13)"/>
    <path stroke="none" d="M10884 6149 c-10 -17 8 -29 44 -29 44 0 137 -32 164 -57 16 -14 88 -152 88 -168 0 -3 8 -24 19 -48 20 -47 60 -142 71 -172 5 -11 15 -36 23 -55 9 -19 39 -93 67 -165 28 -71 58 -146 67 -165 8 -19 19 -45 24 -57 5 -13 14 -35 20 -50 7 -16 15 -37 19 -48 5 -11 15 -36 23 -55 8 -19 27 -66 42 -105 15 -38 36 -90 47 -115 19 -43 31 -69 48 -115 13 -33 81 -197 100 -240 19 -46 44 -70 64 -62 14 6 53 70 76 127 7 19 26 63 42 98 15 34 28 65 28 67 0 3 16 40 36 82 20 43 49 112 66 153 16 41 43 104 60 140 16 36 42 94 56 130 14 36 34 80 44 98 10 18 18 37 18 42 0 4 23 56 50 115 28 59 50 108 50 110 0 3 11 28 24 57 13 29 35 79 50 111 14 32 26 60 26 62 0 7 39 94 63 140 37 72 78 125 95 125 10 0 22 4 28 9 5 5 27 11 49 13 27 2 40 8 40 18 0 13 -36 15 -260 15 -224 0 -260 -2 -260 -15 0 -11 15 -17 50 -21 83 -10 88 -14 82 -73 -3 -28 -15 -76 -27 -106 -12 -30 -26 -64 -30 -75 -5 -11 -36 -92 -70 -180 -34 -88 -66 -170 -71 -182 -5 -13 -13 -34 -19 -48 -5 -14 -14 -36 -20 -50 -5 -14 -15 -37 -21 -52 -7 -16 -15 -37 -19 -48 -46 -117 -124 -316 -134 -340 -7 -16 -18 -42 -24 -57 -16 -39 -26 -35 -41 20 -8 26 -18 54 -22 62 -4 8 -17 42 -29 75 -12 33 -26 69 -30 80 -4 11 -18 47 -30 80 -12 33 -26 69 -30 80 -4 11 -18 47 -30 80 -12 33 -26 69 -30 80 -4 11 -18 47 -30 80 -12 33 -26 69 -30 80 -4 11 -18 47 -30 80 -12 33 -26 69 -30 80 -45 112 -90 250 -90 279 0 31 34 56 75 56 35 0 63 15 51 27 -10 11 -675 12 -682 2z" fill="#221e1f" id="221e1f-000032" mask="url(#mask-13)"/>
    <path stroke="none" d="M13104 6148 c-10 -16 8 -28 44 -28 20 -1 52 -9 71 -18 62 -31 62 -30 59 -800 -4 -730 -4 -738 -52 -764 -11 -7 -43 -15 -71 -18 -35 -3 -50 -9 -50 -20 0 -13 44 -15 340 -15 304 0 340 2 343 16 2 13 -11 17 -73 22 -84 6 -119 23 -138 65 -17 39 -23 1389 -6 1451 14 51 55 81 109 81 39 0 69 15 56 27 -10 11 -626 12 -632 1z" fill="#221e1f" id="221e1f-000033" mask="url(#mask-13)"/>
    <path stroke="none" d="M15704 6148 c-10 -16 8 -28 44 -28 20 -1 52 -9 71 -18 62 -31 62 -30 59 -800 -4 -730 -4 -738 -52 -764 -11 -7 -43 -15 -71 -18 -35 -3 -50 -9 -50 -20 0 -13 44 -15 340 -15 304 0 340 2 343 16 2 13 -11 17 -73 22 -84 6 -119 23 -138 65 -17 39 -23 1389 -6 1451 14 51 55 81 109 81 39 0 69 15 56 27 -10 11 -626 12 -632 1z" fill="#221e1f" id="221e1f-000034" mask="url(#mask-13)"/>
    <path stroke="none" d="M26914 6148 c-11 -17 8 -26 66 -30 71 -5 108 -28 126 -79 16 -43 19 -1266 4 -1374 -18 -122 -27 -134 -115 -144 -35 -4 -50 -10 -50 -21 0 -13 43 -15 325 -15 282 0 325 2 325 15 0 9 -11 16 -30 17 -77 7 -134 25 -148 47 -25 38 -37 164 -37 386 0 157 3 209 13 212 6 2 62 2 122 -1 l110 -6 60 -81 c255 -345 315 -421 380 -482 46 -43 87 -72 111 -79 22 -6 57 -16 79 -23 25 -7 104 -10 210 -8 143 3 170 5 170 18 0 10 -14 17 -45 21 -62 8 -137 36 -186 69 -59 41 -193 186 -328 355 -66 83 -123 152 -126 155 -17 13 -110 141 -110 150 0 7 25 34 55 62 235 215 292 495 138 685 -56 69 -156 126 -263 149 -48 10 -850 12 -856 2z" fill="#221e1f" id="221e1f-000035" mask="url(#mask-13)"/>
    <path stroke="none" d="M34754 6148 c-11 -17 8 -26 66 -30 71 -5 108 -28 126 -79 16 -43 19 -1266 4 -1374 -18 -122 -27 -134 -115 -144 -35 -4 -50 -10 -50 -21 0 -13 43 -15 325 -15 282 0 325 2 325 15 0 9 -11 16 -30 17 -77 7 -134 25 -148 47 -25 38 -37 164 -37 386 0 157 3 209 13 212 6 2 62 2 122 -1 l110 -6 60 -81 c255 -345 315 -421 380 -482 46 -43 87 -72 111 -79 22 -6 57 -16 79 -23 25 -7 104 -10 210 -8 143 3 170 5 170 18 0 10 -14 17 -45 21 -62 8 -137 36 -186 69 -59 41 -193 186 -328 355 -66 83 -123 152 -126 155 -17 13 -110 141 -110 150 0 7 25 34 55 62 235 215 292 495 138 685 -56 69 -156 126 -263 149 -48 10 -850 12 -856 2z" fill="#221e1f" id="221e1f-000036" mask="url(#mask-14)"/>
    <path stroke="none" d="M44194 6148 c-11 -17 8 -26 66 -30 71 -5 108 -28 126 -79 16 -43 19 -1266 4 -1374 -18 -122 -27 -134 -115 -144 -35 -4 -50 -10 -50 -21 0 -13 43 -15 325 -15 282 0 325 2 325 15 0 9 -11 16 -30 17 -77 7 -134 25 -148 47 -25 38 -37 164 -37 386 0 157 3 209 13 212 6 2 62 2 122 -1 l110 -6 60 -81 c255 -345 315 -421 380 -482 46 -43 87 -72 111 -79 22 -6 57 -16 79 -23 25 -7 104 -10 210 -8 143 3 170 5 170 18 0 10 -14 17 -45 21 -62 8 -137 36 -186 69 -59 41 -193 186 -328 355 -66 83 -123 152 -126 155 -17 13 -110 141 -110 150 0 7 25 34 55 62 235 215 292 495 138 685 -56 69 -156 126 -263 149 -48 10 -850 12 -856 2z" fill="#221e1f" id="221e1f-000037" mask="url(#mask-15)"/>
    <path stroke="none" d="M47884 6148 c-9 -15 7 -28 35 -28 58 0 139 -57 207 -145 31 -39 156 -234 196 -305 11 -19 33 -54 49 -77 16 -23 29 -44 29 -46 0 -2 31 -56 70 -120 128 -214 130 -221 130 -531 0 -201 -3 -256 -16 -297 -19 -56 -50 -79 -107 -79 -32 0 -68 -23 -50 -32 4 -3 159 -4 343 -4 299 1 335 3 338 17 2 13 -11 17 -74 22 -91 7 -123 26 -141 83 -16 55 -17 547 -1 611 7 27 33 89 59 138 52 102 282 489 308 520 9 11 23 33 31 50 23 45 154 175 178 175 12 0 24 5 27 10 3 6 18 10 33 10 32 0 60 16 48 27 -4 4 -118 8 -252 9 -214 0 -244 -2 -242 -15 2 -8 13 -18 26 -21 13 -3 31 -17 39 -32 15 -23 15 -32 4 -70 -12 -39 -102 -228 -121 -253 -4 -5 -21 -35 -37 -65 -17 -30 -40 -73 -53 -95 -12 -22 -42 -78 -67 -124 -42 -82 -80 -138 -86 -130 -4 5 -78 134 -115 199 -14 25 -50 88 -80 140 -83 144 -87 151 -142 254 -60 112 -63 149 -16 175 16 9 28 21 27 26 -1 12 -570 15 -577 3z" fill="#221e1f" id="221e1f-000038"/>
  </g>
</svg>
