<?xml version="1.0" standalone="no"?>
<!DOCTYPE svg PUBLIC "-//W3C//DTD SVG 1.1//EN"
 "http://www.w3.org/Graphics/SVG/1.1/DTD/svg11.dtd">
<!-- Created with svg_stack (http://github.com/astraw/svg_stack) -->
<svg xmlns:sodipodi="http://sodipodi.sourceforge.net/DTD/sodipodi-0.dtd" xmlns="http://www.w3.org/2000/svg" version="1.1" width="394.0" height="164.0">
  <defs/>
  <g id="id0:id0" transform="matrix(1.25,0,0,1.25,0.0,0.0)"><g transform="translate(0.000000,131.200000) scale(0.040000,-0.040000)" fill="#d54048" stroke="none">
<path d="M2002 3178 c-7 -7 -12 -22 -12 -34 0 -13 -4 -26 -10 -29 -5 -3 -17 -23 -26 -43 -10 -20 -24 -45 -32 -54 -8 -10 -11 -18 -7 -18 4 0 1 -8 -9 -19 -15 -16 -15 -19 -1 -31 19 -16 19 -25 -1 -56 -12 -17 -20 -21 -29 -14 -16 13 -28 0 -14 -16 8 -9 5 -16 -11 -24 -16 -9 -19 -15 -11 -23 19 -19 12 -45 -19 -67 -17 -12 -28 -25 -25 -30 3 -4 -2 -13 -10 -20 -8 -7 -13 -16 -10 -20 3 -4 -2 -13 -10 -20 -8 -7 -12 -16 -9 -22 3 -5 -1 -20 -10 -33 -9 -13 -16 -29 -16 -35 0 -6 -9 -30 -20 -52 -11 -23 -20 -46 -20 -50 0 -5 -9 -28 -20 -50 -11 -23 -20 -50 -20 -59 0 -10 -4 -21 -10 -24 -5 -3 -10 -14 -10 -24 0 -9 -9 -36 -20 -59 -11 -22 -20 -48 -20 -56 0 -8 -4 -18 -10 -21 -5 -3 -10 -14 -10 -24 0 -9 -9 -36 -20 -59 -11 -22 -20 -48 -20 -56 0 -8 -4 -18 -10 -21 -5 -3 -10 -15 -10 -25 0 -11 -9 -35 -20 -55 -11 -20 -20 -44 -20 -55 0 -10 -4 -21 -9 -24 -12 -8 -20 -55 -11 -61 13 -8 -1 -48 -25 -75 -12 -14 -25 -32 -29 -40 -3 -8 -14 -27 -24 -41 -56 -83 -61 -93 -51 -105 6 -7 17 -10 25 -7 7 3 17 -2 20 -11 9 -23 23 -20 46 9 14 18 29 25 54 25 19 0 44 5 57 12 50 25 58 28 95 28 26 0 43 -7 55 -21 21 -24 41 -21 43 7 1 10 2 23 3 28 1 5 7 3 14 -3 11 -8 18 -6 32 9 12 13 25 18 37 14 16 -5 18 -2 13 23 -4 15 -8 33 -10 40 -5 16 -93 56 -105 48 -6 -4 -24 3 -40 15 -28 20 -30 26 -30 85 0 35 4 66 9 69 4 3 11 28 15 55 4 28 11 53 17 57 6 3 15 18 21 32 10 25 13 33 16 56 1 6 11 0 22 -12 24 -26 33 -27 49 -8 8 10 9 16 1 21 -18 11 0 25 33 25 21 0 39 -8 50 -21 26 -30 72 -23 72 11 0 19 6 25 25 27 14 1 64 5 113 8 97 8 100 11 67 70 -11 20 -20 49 -20 65 0 31 -9 37 -26 20 -6 -6 -19 -4 -37 5 -25 13 -31 13 -53 -1 -13 -9 -30 -14 -39 -11 -8 4 -17 2 -20 -3 -4 -6 -38 -10 -76 -10 -75 0 -94 14 -71 51 7 10 12 32 12 47 0 16 9 37 20 47 11 10 20 26 20 37 0 19 15 51 39 80 10 13 18 15 32 7 11 -5 19 -16 19 -24 0 -8 5 -15 10 -15 16 0 12 22 -15 74 -24 46 -24 51 -8 68 11 13 20 15 27 8 5 -5 14 -10 18 -10 12 0 10 38 -2 45 -5 3 -10 17 -10 30 0 13 -4 27 -10 30 -15 9 -12 88 5 122 23 45 40 55 94 55 57 0 71 -6 71 -33 0 -10 4 -27 9 -37 37 -74 51 -106 51 -118 0 -8 4 -22 9 -32 5 -9 19 -39 31 -67 12 -27 31 -67 41 -88 11 -22 19 -45 19 -53 0 -8 4 -22 9 -32 39 -77 51 -106 51 -123 0 -11 5 -28 10 -39 6 -11 15 -29 20 -40 6 -11 10 -26 10 -35 0 -8 9 -30 19 -48 33 -60 39 -71 70 -138 17 -36 31 -74 31 -85 0 -11 5 -25 11 -31 15 -15 -15 -83 -35 -83 -7 0 -21 -9 -31 -20 -13 -14 -31 -20 -64 -20 -37 0 -51 6 -76 30 -28 27 -34 29 -62 19 -17 -6 -34 -17 -37 -26 -5 -12 -9 -13 -21 -3 -12 10 -16 9 -21 -6 -10 -27 -65 -84 -91 -95 -25 -9 -27 -16 -13 -39 8 -12 11 -12 28 3 l19 17 36 -35 c38 -37 63 -38 54 -4 -8 28 12 34 34 10 11 -12 23 -21 27 -21 15 0 30 23 25 36 -9 25 27 28 48 5 26 -27 64 -25 64 4 0 11 -6 20 -12 20 -7 0 -13 3 -13 8 0 4 0 10 0 13 0 4 6 1 13 -5 8 -6 16 -9 18 -7 2 3 42 6 89 7 73 1 85 0 82 -14 -2 -10 7 -19 22 -23 21 -5 35 2 73 36 39 34 48 48 49 76 1 31 -2 36 -28 41 -15 3 -31 10 -34 14 -3 5 -16 9 -30 9 -14 0 -27 7 -31 18 -3 9 -13 25 -21 34 -22 26 -62 109 -62 129 0 10 -4 21 -10 24 -5 3 -10 16 -10 29 0 12 -11 33 -24 45 -14 13 -22 29 -19 37 3 8 0 21 -7 29 -6 8 -9 19 -5 25 4 7 -6 25 -21 41 -21 21 -28 38 -26 58 2 16 -1 32 -7 36 -6 3 -11 13 -11 21 0 8 -9 34 -20 56 -11 23 -20 47 -20 53 0 7 -13 39 -29 71 -16 32 -39 84 -51 114 -12 30 -27 61 -34 69 -6 8 -10 22 -8 32 2 9 -2 20 -8 24 -5 3 -10 17 -10 30 0 13 -5 27 -10 30 -6 4 -8 15 -5 25 3 10 1 21 -5 25 -16 10 -52 95 -46 110 2 7 -4 21 -15 31 -11 10 -19 30 -19 49 0 38 -16 55 -50 55 -14 0 -31 -5 -38 -12z"/>
<path d="M335 3170 c-4 -6 -18 -15 -31 -20 -14 -6 -27 -18 -31 -27 -3 -10 -15 -28 -25 -39 -21 -24 -8 -45 16 -25 9 8 20 3 41 -19 16 -17 36 -30 46 -30 9 0 30 -7 45 -15 16 -8 36 -15 45 -15 20 0 38 34 41 80 l3 35 109 3 c129 3 146 -5 146 -74 0 -24 -4 -46 -10 -49 -5 -3 -10 -24 -10 -45 0 -21 -4 -42 -10 -45 -5 -3 -10 -26 -10 -50 0 -24 -4 -47 -10 -50 -15 -10 -13 -298 3 -313 9 -10 13 -124 17 -472 4 -348 8 -462 18 -472 6 -6 12 -30 12 -53 0 -35 -6 -47 -48 -88 l-48 -47 -56 0 c-53 0 -57 2 -72 32 -9 17 -16 44 -16 60 0 24 -4 28 -28 28 -21 0 -32 -7 -40 -25 -7 -14 -24 -30 -38 -35 -20 -8 -24 -13 -15 -24 8 -10 8 -16 -4 -26 -8 -7 -15 -18 -15 -24 0 -7 -14 -25 -30 -41 -17 -16 -29 -34 -28 -39 0 -6 -2 -19 -7 -29 -4 -10 -1 -26 8 -41 12 -17 13 -26 5 -34 -7 -7 -9 -15 -5 -18 4 -4 16 5 28 20 15 19 28 26 42 22 19 -5 46 6 80 33 9 8 17 10 17 6 0 -5 6 -1 13 7 6 9 27 20 45 25 18 5 33 13 33 18 1 19 32 45 55 45 13 0 26 5 29 11 11 17 40 5 40 -16 0 -11 7 -20 15 -20 8 0 15 7 15 16 0 21 25 50 36 44 4 -3 6 -12 2 -20 -3 -11 2 -15 17 -15 15 0 20 5 17 14 -9 22 5 28 23 11 15 -14 18 -14 30 0 7 8 17 15 23 15 6 0 21 10 33 21 13 12 34 27 46 33 17 9 24 21 26 52 4 52 -15 69 -78 69 -26 0 -54 6 -62 13 -9 7 -22 10 -31 6 -17 -6 -28 7 -35 45 -11 48 -13 674 -3 684 6 6 6 18 -1 33 -8 17 -8 27 0 36 7 9 11 112 11 306 0 162 3 298 6 303 4 5 25 9 48 9 53 0 75 13 59 33 -7 7 -9 17 -5 20 10 11 61 8 68 -3 3 -5 14 -10 24 -10 11 0 29 -8 41 -18 13 -11 33 -17 46 -14 19 3 23 11 26 51 3 41 6 46 28 49 14 2 31 9 38 15 9 7 16 7 24 -1 7 -7 23 -12 36 -12 29 0 115 -86 138 -138 8 -20 20 -45 25 -54 5 -10 9 -78 9 -151 l0 -133 -44 -88 c-25 -49 -56 -100 -69 -115 -13 -14 -27 -33 -30 -42 -4 -12 -20 -18 -57 -20 -28 -2 -54 -2 -56 0 -2 2 -4 35 -4 72 0 50 5 78 20 104 27 47 27 85 0 85 -11 0 -20 -6 -20 -14 0 -22 -19 -29 -36 -15 -11 9 -18 9 -26 1 -14 -14 0 -35 18 -28 22 9 28 -19 9 -47 -11 -17 -22 -23 -35 -20 -22 6 -26 -7 -8 -25 10 -10 4 -19 -27 -45 -53 -44 -80 -56 -126 -59 -30 -2 -48 -11 -71 -35 l-32 -33 34 -35 c19 -19 39 -35 45 -35 23 0 34 -22 22 -41 -9 -14 -9 -21 0 -30 16 -16 35 -1 31 24 -4 31 47 36 73 8 24 -25 32 -26 49 -6 7 9 18 14 24 12 6 -3 26 6 44 20 17 13 36 21 42 18 5 -3 17 3 27 15 10 11 23 20 29 20 6 0 19 11 28 25 10 14 28 30 41 35 15 6 34 31 54 73 17 35 38 70 46 77 8 7 12 16 9 22 -3 5 2 20 11 34 9 14 15 36 13 48 -1 13 2 29 8 37 6 8 15 28 19 44 11 39 12 185 3 192 -5 2 -8 17 -8 33 0 16 -4 32 -10 35 -5 3 -10 19 -10 35 0 16 -4 32 -10 35 -5 3 -10 12 -10 20 0 14 -92 107 -113 114 -7 2 -22 13 -34 24 -14 13 -31 18 -47 15 -15 -3 -31 1 -38 9 -6 8 -24 13 -38 11 -15 -1 -35 3 -44 11 -12 10 -47 12 -163 7 -284 -13 -477 -10 -544 9 -17 4 -30 2 -34 -5z"/>
<path d="M2738 3113 c-42 -42 -50 -55 -40 -65 11 -11 17 -8 31 11 l18 24 24 -17 c13 -9 31 -16 40 -16 21 0 74 -27 89 -45 7 -8 16 -13 20 -10 5 3 11 1 15 -5 15 -24 25 -6 25 44 0 34 5 58 14 65 21 18 147 10 156 -9 4 -8 12 -25 18 -37 7 -13 12 -32 12 -42 0 -11 5 -23 10 -26 6 -3 10 -35 10 -70 0 -35 -4 -67 -10 -70 -6 -3 -10 -48 -10 -100 0 -52 4 -97 10 -100 6 -4 10 -53 10 -116 0 -99 9 -133 24 -94 3 10 19 15 42 15 43 0 104 -41 104 -69 0 -11 7 -21 15 -25 8 -3 14 -9 13 -13 -4 -12 31 -58 38 -51 3 4 22 -2 41 -13 44 -25 51 -19 24 19 -12 17 -21 34 -21 39 0 4 -9 19 -20 33 -13 16 -20 41 -20 70 0 43 4 50 60 105 60 60 76 95 42 95 -10 0 -31 -13 -46 -29 -16 -16 -35 -27 -42 -24 -8 3 -21 0 -30 -7 -22 -19 -154 -13 -176 7 -13 11 -15 20 -8 28 7 9 6 16 -5 25 -11 10 -15 35 -15 109 0 54 5 102 10 107 6 6 12 51 14 100 l4 89 29 3 c15 2 34 8 41 14 9 8 18 6 31 -6 10 -10 25 -14 35 -10 32 12 126 -52 126 -87 0 -13 8 -17 35 -16 25 1 35 5 35 17 0 10 7 31 16 48 12 25 22 32 42 31 35 -1 85 -30 97 -56 5 -12 17 -24 27 -26 15 -4 18 -16 18 -60 0 -31 5 -59 10 -62 6 -3 10 -24 10 -45 0 -21 -4 -42 -10 -45 -5 -3 -10 -15 -10 -26 0 -31 -29 -68 -69 -85 -20 -9 -52 -24 -71 -33 l-35 -17 -3 -68 c-2 -39 2 -74 8 -80 5 -5 10 -20 10 -32 0 -12 7 -27 15 -34 8 -7 21 -24 29 -39 48 -92 65 -121 89 -158 15 -24 27 -46 27 -50 0 -5 9 -19 20 -33 26 -33 27 -110 2 -133 -25 -23 -88 -21 -122 3 -26 18 -80 109 -80 134 0 6 -9 22 -20 36 -11 14 -20 33 -20 43 0 19 -20 58 -35 69 -5 4 -15 3 -21 -3 -6 -5 -19 -6 -29 -3 -16 6 -17 3 -11 -22 13 -55 78 -175 91 -170 19 7 27 -5 14 -21 -9 -10 -8 -17 1 -28 7 -8 9 -15 4 -15 -4 0 3 -11 16 -25 12 -13 25 -23 29 -22 3 1 6 -1 6 -4 0 -13 40 -51 68 -65 39 -21 23 -37 -29 -31 -48 5 -54 -1 -25 -27 14 -12 32 -16 67 -14 45 3 49 5 49 28 0 22 5 25 42 28 34 3 44 -1 53 -18 9 -17 14 -19 26 -9 10 8 11 15 4 24 -8 10 -8 15 1 21 7 4 19 -2 28 -15 l17 -22 19 20 c10 12 23 21 30 21 23 0 66 56 59 76 -14 37 -47 64 -80 64 -39 0 -88 51 -129 135 -14 29 -32 58 -40 65 -8 7 -15 22 -15 34 -1 11 -14 37 -30 56 -17 19 -30 42 -30 51 0 9 -9 24 -20 34 -11 10 -20 28 -20 41 0 13 -4 25 -9 29 -6 3 -9 22 -7 42 3 36 27 60 46 48 11 -7 129 94 130 111 0 6 7 26 16 44 17 34 27 163 14 190 -4 8 -13 33 -20 55 -23 76 -169 193 -228 183 -10 -2 -26 3 -34 10 -8 6 -33 13 -54 15 -21 1 -44 5 -49 9 -17 10 -339 6 -352 -5 -9 -6 -23 -6 -40 1 -30 11 -61 11 -81 -2 -6 -4 -18 -4 -24 1 -7 4 -48 8 -90 9 l-77 1 -53 -54z"/>
<path d="M4145 3161 c-3 -6 -20 -11 -36 -11 -65 0 -93 -38 -58 -77 15 -15 34 -23 54 -23 35 0 85 -33 85 -55 0 -17 17 -23 47 -17 20 4 23 11 23 46 0 58 30 86 92 86 73 0 82 -8 113 -95 4 -11 6 -123 5 -249 l-1 -230 20 -15 c18 -14 19 -19 7 -46 -28 -64 -36 -101 -27 -130 4 -17 6 -46 4 -65 -2 -19 1 -42 7 -50 17 -26 28 6 28 83 0 58 4 73 20 86 10 9 29 31 41 49 12 17 29 32 37 32 19 0 18 10 -6 35 -18 19 -19 25 -8 46 24 45 92 119 110 119 43 0 103 -50 129 -107 10 -23 24 -45 30 -48 5 -4 21 -31 35 -60 14 -29 34 -61 45 -71 10 -9 19 -24 19 -33 0 -9 9 -22 20 -29 11 -7 20 -17 20 -23 0 -5 24 -44 53 -86 28 -41 57 -83 62 -93 6 -10 17 -26 25 -35 37 -45 70 -119 63 -144 -11 -42 -99 -65 -146 -39 -35 20 -97 81 -97 95 0 21 -18 15 -36 -12 -15 -23 -15 -28 0 -59 8 -18 22 -39 31 -46 8 -7 15 -18 15 -25 0 -7 16 -27 35 -44 33 -29 42 -31 113 -32 42 -1 94 -1 115 1 21 1 45 -4 53 -11 14 -11 13 -15 -7 -29 -12 -10 -19 -22 -15 -29 11 -16 57 -13 78 5 14 13 21 14 32 5 8 -6 19 -10 24 -9 6 2 17 -6 26 -17 11 -15 17 -17 26 -8 14 13 5 33 -14 33 -21 0 -51 39 -39 51 7 7 22 4 47 -10 20 -12 47 -21 59 -21 33 0 61 -24 62 -52 0 -25 29 -35 54 -19 12 8 12 12 2 25 -11 13 -9 17 15 26 16 5 37 15 47 20 20 12 37 5 37 -15 0 -7 8 -16 18 -20 16 -6 16 -7 -2 -20 -36 -27 4 -60 43 -36 12 7 12 13 3 24 -7 7 -9 17 -5 20 10 11 91 8 98 -3 3 -5 24 -10 45 -10 21 0 42 -4 45 -10 3 -5 19 -10 35 -10 16 0 32 -4 35 -10 3 -5 21 -10 40 -10 19 0 37 -5 40 -10 3 -5 19 -10 34 -10 16 0 34 -7 41 -16 11 -13 10 -16 -9 -21 -36 -9 -22 -38 19 -38 31 0 35 3 35 25 1 23 4 25 53 25 29 -1 52 3 52 8 0 4 20 30 45 56 25 26 45 57 45 69 0 11 5 24 10 27 6 3 10 21 10 40 0 19 5 37 10 40 14 9 13 138 -2 153 -34 34 -81 6 -152 -90 -15 -21 -33 -38 -40 -38 -7 0 -21 -9 -31 -20 -10 -11 -24 -20 -30 -20 -7 0 -18 -6 -24 -14 -8 -10 -20 -12 -39 -7 -15 5 -56 7 -91 5 -47 -3 -69 0 -81 11 -10 9 -24 13 -32 10 -18 -7 -40 19 -57 67 -8 26 -10 64 -6 120 11 133 12 197 3 210 -12 19 -29 -11 -22 -38 3 -12 -1 -26 -11 -34 -14 -11 -16 -34 -15 -144 3 -161 -4 -187 -56 -217 -42 -25 -82 -23 -121 7 l-33 25 0 74 c0 41 5 77 10 80 6 3 10 30 10 60 0 30 5 57 10 60 6 4 10 113 10 296 0 276 -1 293 -27 338 -2 2 -9 -2 -18 -9 -8 -7 -15 -9 -15 -5 0 4 -7 1 -16 -6 -14 -12 -16 -54 -13 -399 3 -250 0 -386 -6 -388 -6 -1 -12 12 -15 30 -3 20 -11 33 -20 33 -11 0 -15 -11 -15 -45 1 -25 3 -52 5 -60 3 -10 -3 -16 -20 -18 -14 -2 -40 -18 -58 -35 l-32 -31 -50 49 c-28 27 -50 54 -50 60 0 6 -16 26 -35 45 -19 18 -32 36 -30 40 3 4 -2 13 -11 21 -8 7 -24 32 -34 55 -11 24 -24 46 -30 49 -6 3 -19 25 -30 49 -10 23 -26 49 -35 56 -8 7 -15 18 -15 24 0 7 -16 27 -35 46 -19 18 -32 36 -30 40 6 10 -20 32 -28 24 -6 -6 -24 31 -25 49 0 5 -13 22 -28 38 -15 16 -24 29 -19 29 4 0 1 8 -7 18 -14 16 -24 36 -27 57 -1 6 -18 26 -37 46 -26 26 -34 42 -30 56 15 46 309 302 415 360 102 57 131 94 98 122 -9 7 -69 10 -180 8 -122 -1 -169 1 -178 11 -17 16 -49 15 -85 -2 -40 -20 -108 -92 -100 -105 11 -18 33 -13 39 9 6 24 29 26 47 5 7 -8 20 -15 29 -15 28 -1 65 -36 57 -55 -4 -10 -12 -15 -22 -11 -16 6 -53 -28 -54 -49 0 -14 -100 -113 -131 -131 -13 -7 -34 -18 -46 -23 -13 -6 -23 -17 -23 -24 0 -19 -147 -160 -162 -155 -10 4 -14 52 -18 187 -5 169 -4 184 14 199 10 9 22 27 27 39 5 14 14 21 23 17 9 -3 29 4 46 16 23 16 30 29 30 54 0 19 -6 38 -12 44 -15 11 -194 10 -220 -2 -10 -5 -39 -5 -65 -1 -101 13 -201 16 -208 6z"/>
<path d="M5418 3149 c-16 -11 -28 -25 -28 -31 0 -5 -9 -21 -20 -35 -15 -20 -17 -29 -9 -39 16 -20 29 -17 29 5 0 30 18 35 48 15 15 -10 39 -17 53 -15 19 1 33 -6 53 -29 14 -17 26 -38 26 -46 0 -8 5 -15 10 -15 6 -1 14 -2 19 -3 5 0 13 -4 17 -8 18 -19 24 -3 24 67 0 66 2 76 22 86 24 13 135 6 150 -9 6 -6 9 -105 9 -240 -1 -146 2 -233 9 -237 5 -3 10 -25 10 -49 0 -23 6 -48 12 -54 10 -10 10 -17 0 -32 -6 -11 -12 -40 -12 -64 0 -25 -4 -48 -10 -51 -16 -10 -11 -28 6 -21 11 4 18 -1 21 -14 7 -25 19 -26 26 0 3 10 -2 25 -9 31 -58 48 101 58 203 13 33 -15 73 -72 73 -104 0 -10 5 -22 10 -25 6 -3 10 -16 10 -29 0 -42 36 -59 64 -30 13 13 16 45 16 194 0 108 4 181 10 185 6 3 10 28 10 54 0 37 -5 52 -24 70 l-23 22 -42 -27 c-22 -15 -41 -32 -41 -38 0 -6 -18 -31 -40 -56 l-40 -45 -76 1 c-41 1 -80 6 -85 11 -6 6 -10 97 -10 229 l0 219 98 0 98 0 0 -24 c0 -27 13 -35 34 -22 12 7 12 13 3 24 -7 7 -9 17 -5 20 10 11 71 8 78 -3 3 -5 15 -10 25 -10 35 0 80 -79 66 -116 -5 -13 -9 -14 -22 -4 -20 18 -45 -3 -26 -22 10 -10 17 -10 31 -1 23 14 41 0 41 -33 0 -12 7 -27 15 -34 14 -12 14 -15 -2 -32 -13 -14 -14 -21 -5 -30 9 -9 19 -4 42 22 16 19 29 45 30 57 0 12 5 25 10 28 13 8 13 82 0 90 -12 7 -8 128 5 158 5 13 -1 29 -22 55 l-30 37 -128 3 c-70 1 -132 -1 -139 -6 -17 -14 -542 -16 -551 -3 -11 19 -88 12 -117 -10z"/>
<path d="M6503 3116 c-29 -30 -53 -60 -53 -68 0 -20 46 -62 54 -49 4 6 1 19 -5 29 -7 11 -9 27 -6 36 6 14 11 13 43 -9 20 -14 44 -25 53 -25 10 0 26 -7 37 -15 31 -24 67 -19 82 12 6 15 12 34 12 43 0 30 23 40 91 40 37 0 75 -3 83 -6 25 -10 44 -63 49 -137 5 -77 10 -85 32 -67 12 10 16 27 14 60 -4 65 3 71 74 69 71 -2 112 -17 146 -53 13 -14 27 -23 32 -21 4 3 10 1 14 -5 14 -22 24 -8 27 38 l3 47 50 3 c48 3 53 0 95 -40 47 -45 90 -117 90 -148 0 -11 5 -22 10 -25 6 -3 10 -37 10 -75 0 -38 -4 -72 -10 -75 -6 -3 -10 -48 -10 -99 0 -78 -4 -100 -24 -141 -27 -52 -122 -155 -143 -155 -16 0 -19 -145 -3 -155 6 -3 10 -19 10 -35 0 -16 5 -32 10 -35 6 -3 10 -17 10 -30 0 -13 5 -27 10 -30 6 -3 10 -21 10 -40 0 -19 5 -37 10 -40 6 -3 10 -17 10 -30 0 -13 5 -27 10 -30 6 -3 10 -17 10 -30 0 -13 5 -27 10 -30 6 -3 10 -15 10 -26 0 -19 4 -28 28 -76 7 -13 12 -31 12 -42 0 -10 10 -39 21 -63 12 -23 26 -54 32 -68 5 -14 14 -36 20 -50 5 -14 13 -33 18 -42 5 -10 9 -28 9 -41 0 -13 5 -28 10 -33 7 -7 5 -21 -6 -42 -16 -33 -28 -40 -39 -22 -3 6 -16 10 -29 10 -12 0 -38 17 -61 40 -48 49 -70 51 -79 8 -6 -30 -2 -37 48 -86 36 -35 63 -52 80 -52 29 0 41 -15 41 -50 0 -22 5 -25 38 -28 25 -2 45 2 57 13 10 9 21 15 26 13 5 -2 25 10 46 25 l36 28 0 59 c0 54 -3 62 -28 80 -15 11 -37 20 -47 20 -23 0 -65 53 -57 73 3 8 -2 20 -11 27 -8 7 -15 21 -15 31 0 11 -4 27 -10 37 -5 9 -19 46 -30 82 -21 66 -35 100 -51 132 -5 10 -9 27 -9 37 0 11 -4 23 -10 26 -5 3 -10 17 -10 29 0 13 -6 29 -14 35 -8 7 -12 20 -9 30 2 9 -2 23 -11 30 -8 7 -12 19 -9 27 3 8 -1 21 -8 30 -7 9 -12 33 -10 54 1 21 -2 41 -8 45 -6 3 -11 17 -11 30 0 13 -4 27 -10 30 -5 3 -10 22 -10 41 0 30 5 37 33 50 71 34 77 39 72 56 -4 11 7 27 35 49 34 27 40 38 40 69 0 20 3 40 8 44 13 14 10 345 -4 357 -6 5 -10 18 -7 29 6 21 -38 120 -62 140 -8 7 -15 18 -15 24 0 29 -120 118 -161 120 -15 1 -31 5 -35 9 -4 4 -22 7 -40 7 -18 0 -36 5 -40 11 -6 11 -83 9 -402 -8 -51 -2 -99 0 -105 5 -7 5 -43 10 -82 10 l-70 2 -52 -54z"/>
<path d="M5444 3026 c-7 -18 3 -36 20 -36 20 0 59 -47 53 -64 -7 -17 8 -30 23 -21 7 4 6 14 -2 28 -7 12 -11 27 -10 33 1 7 -16 26 -38 44 -33 26 -41 29 -46 16z"/>
<path d="M2775 3020 c-11 -17 5 -32 21 -19 7 6 11 15 8 20 -7 12 -21 11 -29 -1z"/>
<path d="M3335 3020 c-3 -6 4 -14 17 -19 13 -5 39 -25 57 -45 34 -35 51 -44 51 -27 0 11 -63 77 -72 74 -3 -1 -12 4 -18 12 -14 17 -26 19 -35 5z"/>
<path d="M4876 3021 c-3 -5 1 -14 8 -20 16 -13 32 2 21 19 -8 12 -22 13 -29 1z"/>
<path d="M255 3000 c-11 -17 5 -32 20 -20 10 9 16 6 25 -10 6 -11 15 -18 21 -15 17 11 10 23 -23 39 -37 19 -35 19 -43 6z"/>
<path d="M2825 3000 c-4 -6 2 -21 13 -33 11 -12 18 -27 15 -34 -6 -15 16 -28 29 -15 6 6 0 23 -17 48 -33 49 -32 47 -40 34z"/>
<path d="M4120 2997 c0 -7 5 -18 12 -25 7 -7 8 -12 4 -12 -5 0 -3 -7 5 -16 8 -10 14 -53 16 -121 2 -83 6 -110 20 -125 15 -16 17 -56 21 -337 4 -290 3 -320 -13 -344 -9 -15 -21 -24 -26 -21 -5 3 -25 -8 -45 -25 -19 -17 -39 -31 -43 -31 -5 0 -14 -14 -20 -31 -6 -17 -15 -28 -20 -25 -5 4 -16 -7 -24 -23 -14 -28 -13 -31 8 -51 18 -17 33 -21 71 -18 45 3 49 5 49 28 l0 25 105 0 105 0 0 -24 c0 -28 13 -35 35 -21 13 9 13 12 -3 21 -9 6 -15 14 -12 20 8 12 112 12 120 -1 3 -5 24 -10 45 -10 26 0 42 -6 50 -17 9 -17 11 -17 20 -1 6 9 17 15 24 12 9 -3 20 7 30 27 l16 33 -31 32 c-17 18 -43 35 -58 39 -43 11 -71 44 -71 85 0 20 -7 45 -15 56 -8 10 -15 38 -15 62 0 35 -3 42 -20 42 -18 0 -20 -7 -20 -55 0 -30 5 -64 12 -75 14 -22 0 -57 -41 -102 -20 -23 -33 -28 -71 -28 -48 0 -75 20 -107 77 -16 28 -18 309 -3 318 6 3 10 21 10 40 0 19 5 37 10 40 6 3 10 52 10 110 0 65 4 106 11 111 6 3 9 19 6 34 -4 16 0 35 8 46 18 24 19 58 3 84 -10 16 -10 24 0 41 10 15 11 24 3 32 -6 6 -11 19 -11 29 0 18 -11 24 -24 11 -3 -4 -12 -8 -19 -9 -7 -1 -20 -5 -29 -9 -16 -6 -40 22 -43 50 -4 40 -45 88 -45 52z m84 -188 c-3 -5 -10 -7 -15 -3 -5 3 -7 10 -3 15 3 5 10 7 15 3 5 -3 7 -10 3 -15z m-133 -972 c-5 -5 -17 -7 -26 -3 -14 5 -15 9 -5 21 10 12 16 13 27 4 9 -8 10 -16 4 -22z"/>
<path d="M7075 3000 c-6 -10 73 -65 82 -56 8 8 -7 27 -17 21 -5 -3 -17 6 -26 20 -17 26 -29 31 -39 15z"/>
<path d="M6577 2984 c-4 -4 2 -19 12 -33 10 -14 21 -34 24 -43 7 -20 22 -24 32 -8 6 9 -9 41 -34 73 -15 18 -24 21 -34 11z"/>
<path d="M920 2955 c0 -9 5 -15 11 -13 6 2 11 8 11 13 0 5 -5 11 -11 13 -6 2 -11 -4 -11 -13z"/>
<path d="M6154 2956 c-9 -23 0 -51 16 -51 10 0 15 10 15 29 0 32 -21 47 -31 22z"/>
<path d="M376 2921 c-7 -11 22 -71 34 -71 18 0 19 18 4 49 -16 31 -28 39 -38 22z"/>
<path d="M975 2911 c-7 -12 12 -24 25 -16 11 7 4 25 -10 25 -5 0 -11 -4 -15 -9z"/>
<path d="M6220 2910 c0 -5 5 -10 10 -10 6 0 10 5 10 10 0 6 -4 10 -10 10 -5 0 -10 -4 -10 -10z"/>
<path d="M7176 2901 c-7 -11 22 -71 34 -71 18 0 19 18 4 49 -16 31 -28 39 -38 22z"/>
<path d="M1016 2861 c-7 -11 22 -71 34 -71 18 0 19 18 4 49 -16 31 -28 39 -38 22z"/>
<path d="M3454 2859 c-10 -17 13 -36 27 -22 12 12 4 33 -11 33 -5 0 -12 -5 -16 -11z"/>
<path d="M6949 2803 c-4 -252 3 -429 17 -450 8 -12 14 -43 14 -68 0 -34 4 -45 16 -45 8 0 34 -10 57 -22 71 -36 79 -40 84 -34 3 3 0 13 -7 21 -10 12 -10 19 -2 27 7 7 12 22 12 35 0 16 10 27 38 39 55 25 82 54 82 85 0 15 -4 30 -10 34 -5 3 -7 12 -4 19 7 18 -15 31 -29 17 -7 -7 -6 -16 7 -30 21 -23 13 -49 -10 -30 -14 11 -15 10 -18 -13 0 -7 -10 -14 -21 -16 -11 -2 -26 -9 -33 -15 -9 -7 -16 -7 -24 1 -7 7 -30 12 -53 12 -76 0 -75 -3 -76 250 -1 212 -6 250 -30 250 -5 0 -9 -30 -10 -67z"/>
<path d="M7214 2799 c-10 -17 13 -36 27 -22 12 12 4 33 -11 33 -5 0 -12 -5 -16 -11z"/>
<path d="M6254 2759 c-8 -14 18 -31 30 -19 9 9 0 30 -14 30 -5 0 -12 -5 -16 -11z"/>
<path d="M1054 2739 c-10 -17 13 -36 27 -22 12 12 4 33 -11 33 -5 0 -12 -5 -16 -11z"/>
<path d="M457 2693 c-9 -8 -9 -186 0 -370 6 -130 8 -143 25 -143 15 0 18 8 18 54 0 30 5 58 10 61 6 3 10 32 10 64 0 31 5 62 12 69 8 8 8 15 -1 26 -8 10 -9 16 -1 21 13 8 13 152 0 160 -5 3 -10 19 -10 36 0 25 -4 29 -28 29 -16 0 -32 -3 -35 -7z"/>
<path d="M3455 2660 c-11 -17 5 -32 21 -19 7 6 11 15 8 20 -7 12 -21 11 -29 -1z"/>
<path d="M7234 2639 c-10 -17 13 -36 27 -22 12 12 4 33 -11 33 -5 0 -12 -5 -16 -11z"/>
<path d="M2921 2310 c1 -205 -1 -294 -9 -302 -19 -19 -22 6 -24 222 -3 174 -5 205 -18 205 -13 0 -15 -30 -18 -200 -3 -218 1 -270 23 -262 19 8 26 -3 14 -24 -5 -11 -19 -19 -30 -19 -11 0 -22 -7 -26 -16 -3 -8 -16 -20 -30 -25 -13 -5 -28 -21 -34 -35 -8 -23 -6 -31 12 -50 l22 -23 -26 -10 c-15 -6 -34 -8 -43 -4 -12 4 -15 1 -12 -13 2 -14 12 -18 48 -19 41 0 45 2 45 25 0 34 48 42 65 10 14 -27 35 -21 35 11 0 22 4 24 60 27 32 2 66 8 73 15 14 11 167 11 185 0 4 -3 3 -11 -3 -18 -7 -8 -9 -19 -5 -25 9 -15 41 -12 55 5 7 8 18 15 24 15 7 0 29 18 51 40 35 36 37 42 27 65 -8 17 -20 25 -36 25 -14 0 -28 5 -31 10 -3 6 -19 10 -34 10 -19 0 -34 9 -50 31 -22 29 -23 39 -21 167 1 76 3 163 4 194 1 58 -12 80 -32 55 -15 -19 -24 -346 -10 -385 l12 -32 -39 -40 c-31 -32 -46 -40 -75 -40 -37 0 -52 11 -77 56 -8 15 -9 24 -1 32 8 8 8 15 -1 26 -9 11 -10 20 -2 35 14 25 14 198 1 206 -5 3 -10 17 -10 30 0 13 -4 27 -10 30 -5 3 -10 17 -10 30 0 13 -4 27 -10 30 -5 3 -10 39 -10 80 0 41 5 77 10 80 6 3 10 19 10 36 0 23 -4 29 -21 29 l-20 0 2 -290z"/>
<path d="M1954 2479 c-10 -17 13 -36 27 -22 12 12 4 33 -11 33 -5 0 -12 -5 -16 -11z"/>
<path d="M4558 2394 c-8 -7 21 -64 32 -64 17 0 19 17 7 44 -11 24 -27 33 -39 20z"/>
<path d="M3276 2353 c-9 -22 10 -41 25 -26 13 13 5 43 -10 43 -5 0 -12 -8 -15 -17z"/>
<path d="M5976 2361 c-7 -11 54 -52 66 -45 16 10 8 23 -24 38 -37 19 -35 19 -42 7z"/>
<path d="M6680 2300 c0 -33 3 -40 20 -40 15 0 20 7 20 28 0 27 -15 52 -32 52 -4 0 -8 -18 -8 -40z"/>
<path d="M6615 2308 c-3 -8 -4 -88 -3 -178 3 -139 5 -165 18 -165 13 0 15 26 15 174 0 131 -3 175 -12 178 -7 3 -15 -2 -18 -9z"/>
<path d="M3340 2270 c0 -5 5 -10 10 -10 6 0 10 5 10 10 0 6 -4 10 -10 10 -5 0 -10 -4 -10 -10z"/>
<path d="M3360 2210 c0 -5 5 -10 10 -10 6 0 10 5 10 10 0 6 -4 10 -10 10 -5 0 -10 -4 -10 -10z"/>
<path d="M6947 2180 c-9 -17 -11 -32 -6 -36 12 -7 31 5 24 16 -3 4 2 13 10 20 8 7 12 16 9 21 -10 16 -22 9 -37 -21z"/>
<path d="M7006 2181 c-8 -12 10 -51 24 -51 20 0 21 23 2 42 -13 13 -22 16 -26 9z"/>
<path d="M394 2167 c-3 -8 -4 -39 -2 -68 2 -40 7 -54 18 -54 20 0 22 126 3 132 -7 3 -15 -2 -19 -10z"/>
<path d="M794 2149 c-10 -17 13 -36 27 -22 12 12 4 33 -11 33 -5 0 -12 -5 -16 -11z"/>
<path d="M3400 2150 c0 -5 5 -10 10 -10 6 0 10 5 10 10 0 6 -4 10 -10 10 -5 0 -10 -4 -10 -10z"/>
<path d="M6941 2117 c-13 -13 -15 -373 -2 -482 10 -83 3 -95 -57 -98 -27 -1 -42 -6 -42 -15 0 -19 42 -72 57 -72 7 0 28 -9 48 -20 20 -11 44 -20 55 -20 10 0 27 -11 38 -25 25 -32 32 -31 65 3 43 45 36 69 -43 147 -56 56 -70 75 -70 100 0 17 -5 36 -11 42 -7 7 -10 80 -7 227 3 216 -1 243 -31 213z"/>
<path d="M2074 2109 c-10 -17 13 -36 27 -22 12 12 4 33 -11 33 -5 0 -12 -5 -16 -11z"/>
<path d="M3420 2111 c0 -6 4 -12 10 -16 5 -3 7 -12 4 -19 -7 -18 15 -31 28 -18 7 7 4 18 -8 36 -19 26 -34 33 -34 17z"/>
<path d="M7054 2079 c-10 -17 13 -36 27 -22 12 12 4 33 -11 33 -5 0 -12 -5 -16 -11z"/>
<path d="M5525 2040 c-4 -6 -3 -16 3 -22 6 -6 12 -6 17 2 4 6 3 16 -3 22 -6 6 -12 6 -17 -2z"/>
<path d="M2134 2019 c-10 -17 13 -36 27 -22 12 12 4 33 -11 33 -5 0 -12 -5 -16 -11z"/>
<path d="M7080 1970 c0 -5 5 -10 10 -10 6 0 10 5 10 10 0 6 -4 10 -10 10 -5 0 -10 -4 -10 -10z"/>
<path d="M6614 1929 c-10 -17 13 -36 27 -22 12 12 4 33 -11 33 -5 0 -12 -5 -16 -11z"/>
<path d="M3514 1919 c-10 -17 13 -36 27 -22 12 12 4 33 -11 33 -5 0 -12 -5 -16 -11z"/>
<path d="M7114 1899 c-10 -17 13 -36 27 -22 12 12 4 33 -11 33 -5 0 -12 -5 -16 -11z"/>
<path d="M4880 1890 c0 -5 5 -10 10 -10 6 0 10 5 10 10 0 6 -4 10 -10 10 -5 0 -10 -4 -10 -10z"/>
<path d="M4900 1851 c0 -6 5 -13 10 -16 6 -4 8 -10 5 -15 -3 -4 2 -13 9 -19 23 -19 29 6 9 34 -19 25 -33 32 -33 16z"/>
<path d="M7140 1830 c0 -5 5 -10 10 -10 6 0 10 5 10 10 0 6 -4 10 -10 10 -5 0 -10 -4 -10 -10z"/>
<path d="M6617 1814 c-16 -16 -7 -83 13 -102 24 -22 14 -36 -32 -47 -15 -4 -39 -23 -54 -42 l-26 -35 28 -29 c19 -20 38 -29 59 -29 41 0 57 -16 42 -41 -9 -14 -9 -21 0 -30 16 -16 35 -1 31 24 -2 18 4 24 37 32 22 6 46 14 53 18 16 11 15 27 -1 27 -28 0 -47 36 -47 88 0 28 5 54 10 57 6 3 10 22 10 41 0 32 -8 42 -24 27 -3 -4 -12 -8 -19 -9 -7 -1 -18 -3 -26 -5 -10 -3 -17 6 -20 25 -6 29 -21 43 -34 30z"/>
<path d="M5184 1759 c-10 -17 13 -36 27 -22 12 12 4 33 -11 33 -5 0 -12 -5 -16 -11z"/>
<path d="M2074 1659 c-9 -15 12 -33 30 -26 9 4 16 13 16 22 0 17 -35 21 -46 4z"/>
<path d="M5862 1653 c2 -10 10 -18 18 -18 22 0 18 29 -3 33 -14 3 -18 -1 -15 -15z"/>
<path d="M5942 1633 c2 -10 10 -18 18 -18 22 0 18 29 -3 33 -14 3 -18 -1 -15 -15z"/>
<path d="M7194 1639 c-10 -17 13 -36 27 -22 12 12 4 33 -11 33 -5 0 -12 -5 -16 -11z"/>
<path d="M6014 1619 c-10 -17 13 -36 27 -22 12 12 4 33 -11 33 -5 0 -12 -5 -16 -11z"/>
<path d="M6100 1590 c0 -5 5 -10 10 -10 6 0 10 5 10 10 0 6 -4 10 -10 10 -5 0 -10 -4 -10 -10z"/>
<path d="M7214 1579 c-10 -17 13 -36 27 -22 12 12 4 33 -11 33 -5 0 -12 -5 -16 -11z"/>
<path d="M4478 1543 c-29 -7 -21 -22 17 -29 41 -7 68 1 63 19 -5 13 -50 19 -80 10z"/>
<path d="M4810 1520 c-13 -9 -13 -11 0 -20 20 -14 45 -8 45 10 0 18 -25 24 -45 10z"/>
<path d="M1320 1495 c0 -8 5 -15 10 -15 6 0 10 7 10 15 0 8 -4 15 -10 15 -5 0 -10 -7 -10 -15z"/>
<path d="M2944 1499 c-10 -17 13 -36 27 -22 12 12 4 33 -11 33 -5 0 -12 -5 -16 -11z"/>
<path d="M5039 1499 c-12 -8 -12 -10 0 -18 15 -10 41 -4 41 9 0 13 -26 19 -41 9z"/>
<path d="M6534 1499 c-10 -17 13 -36 27 -22 12 12 4 33 -11 33 -5 0 -12 -5 -16 -11z"/>
<path d="M2745 1480 c-4 -7 -3 -16 3 -22 14 -14 45 -2 40 15 -6 16 -34 21 -43 7z"/>
<path d="M5224 1479 c-10 -17 13 -36 27 -22 12 12 4 33 -11 33 -5 0 -12 -5 -16 -11z"/>
<path d="M2595 1460 c-4 -7 -3 -16 3 -22 14 -14 45 -2 40 15 -6 16 -34 21 -43 7z"/>
<path d="M5375 1460 c-4 -7 -3 -16 3 -22 14 -14 57 -6 57 12 0 18 -50 26 -60 10z"/>
<path d="M6736 1461 c-3 -5 1 -14 8 -20 16 -13 32 2 21 19 -8 12 -22 13 -29 1z"/>
<path d="M7254 1459 c-10 -17 13 -36 27 -22 12 12 4 33 -11 33 -5 0 -12 -5 -16 -11z"/>
<path d="M2445 1440 c-4 -7 -3 -16 3 -22 14 -14 47 -6 47 12 0 18 -40 26 -50 10z"/>
<path d="M5520 1440 c-13 -9 -13 -11 0 -20 19 -12 35 -8 35 10 0 18 -16 22 -35 10z"/>
<path d="M2345 1420 c-9 -15 4 -30 20 -23 8 3 15 9 15 13 0 12 -29 20 -35 10z"/>
<path d="M5644 1419 c-10 -17 13 -36 27 -22 12 12 4 33 -11 33 -5 0 -12 -5 -16 -11z"/>
<path d="M6835 1410 c-3 -5 -3 -11 2 -12 4 0 13 -2 18 -3 21 -4 51 -19 68 -33 13 -11 21 -12 28 -5 14 14 1 36 -16 29 -8 -3 -19 2 -25 9 -7 8 -16 13 -20 10 -5 -3 -11 -1 -15 5 -8 13 -32 13 -40 0z"/>
<path d="M2227 1404 c-14 -14 -7 -35 11 -32 9 2 17 10 17 17 0 16 -18 25 -28 15z"/>
<path d="M5750 1400 c-13 -9 -13 -11 0 -20 18 -11 39 5 24 20 -6 6 -15 6 -24 0z"/>
<path d="M7274 1399 c-10 -17 13 -36 27 -22 12 12 4 33 -11 33 -5 0 -12 -5 -16 -11z"/>
<path d="M2123 1374 c-7 -19 0 -26 21 -18 20 8 21 20 1 28 -9 3 -18 -1 -22 -10z"/>
<path d="M2025 1360 c-9 -15 4 -30 20 -23 8 3 15 9 15 13 0 12 -29 20 -35 10z"/>
<path d="M7005 1360 c-4 -6 -3 -16 3 -22 6 -6 12 -6 17 2 4 6 3 16 -3 22 -6 6 -12 6 -17 -2z"/>
<path d="M1945 1340 c-4 -6 -3 -16 3 -22 6 -6 12 -6 17 2 4 6 3 16 -3 22 -6 6 -12 6 -17 -2z"/>
<path d="M1865 1320 c-4 -6 -3 -16 3 -22 6 -6 12 -6 17 2 4 6 3 16 -3 22 -6 6 -12 6 -17 -2z"/>
<path d="M1702 1298 c-7 -7 -12 -16 -12 -20 0 -11 32 -10 50 2 13 9 13 11 0 20 -19 13 -24 12 -38 -2z"/>
<path d="M7334 1279 c-8 -14 18 -31 30 -19 9 9 0 30 -14 30 -5 0 -12 -5 -16 -11z"/>
<path d="M1580 1250 c0 -5 5 -10 10 -10 6 0 10 5 10 10 0 6 -4 10 -10 10 -5 0 -10 -4 -10 -10z"/>
<path d="M1540 1230 c0 -5 5 -10 10 -10 6 0 10 5 10 10 0 6 -4 10 -10 10 -5 0 -10 -4 -10 -10z"/>
<path d="M7440 1190 c0 -5 5 -10 10 -10 6 0 10 5 10 10 0 6 -4 10 -10 10 -5 0 -10 -4 -10 -10z"/>
<path d="M7481 1176 c-9 -10 -9 -16 -1 -21 17 -10 37 12 24 25 -8 8 -15 6 -23 -4z"/>
</g>
</g>
  <g id="id1:id1" transform="matrix(1.25,0,0,1.25,0.0,0.0)"><g transform="translate(0.000000,131.200000) scale(0.040000,-0.040000)" fill="#e03943" stroke="none">
<path d="M453 3125 c4 -8 2 -17 -3 -20 -6 -4 -10 -21 -10 -40 0 -19 -4 -37 -10 -40 -14 -9 -12 -35 5 -69 8 -15 15 -44 15 -64 0 -20 5 -51 12 -69 9 -26 9 -40 -1 -68 -10 -28 -10 -39 1 -57 7 -13 11 -28 10 -34 -1 -6 5 -17 13 -24 22 -18 22 -205 0 -217 -12 -7 -17 -48 -26 -193 -12 -212 -13 -217 -34 -200 -20 16 -35 4 -35 -28 0 -39 15 -59 33 -44 7 7 17 9 20 5 13 -12 8 -442 -5 -463 -9 -15 -9 -24 1 -43 7 -14 11 -29 8 -34 -3 -5 12 -33 34 -61 21 -29 39 -61 39 -72 0 -17 4 -19 28 -14 15 4 32 10 37 14 6 3 30 12 55 19 25 7 53 17 62 22 10 5 36 9 58 9 42 0 56 16 18 22 -18 2 -22 8 -20 28 2 14 7 30 12 35 4 6 10 25 13 43 6 27 1 38 -27 70 l-33 37 3 420 c2 231 4 420 4 420 1 0 3 119 6 263 l4 264 32 39 c23 28 28 42 20 51 -6 7 -12 29 -14 48 l-3 35 -145 3 c-79 1 -149 7 -154 12 -15 15 -29 12 -23 -5z"/>
<path d="M1080 3112 c0 -9 -9 -25 -19 -36 -25 -27 -31 -117 -10 -143 23 -30 39 -62 39 -81 0 -10 4 -22 9 -27 16 -17 18 -280 3 -298 -8 -9 -11 -21 -8 -26 4 -5 2 -12 -4 -16 -5 -3 -10 -15 -10 -26 0 -11 -7 -31 -16 -45 -15 -23 -15 -26 -1 -37 9 -7 17 -28 19 -47 2 -25 10 -38 28 -47 14 -7 24 -19 22 -28 -6 -33 37 -12 105 50 54 49 80 83 107 138 20 40 36 79 36 88 0 8 4 19 9 25 20 21 39 240 22 257 -6 6 -11 28 -11 48 0 21 -4 41 -10 44 -5 3 -10 16 -10 28 0 30 -111 137 -170 164 -61 29 -130 37 -130 15z"/>
<path d="M2975 3123 c-22 -2 -44 -9 -50 -14 -6 -7 -10 -211 -10 -574 l0 -563 18 9 c20 11 25 3 29 -51 3 -30 9 -37 56 -61 61 -32 72 -29 145 38 39 36 43 45 39 74 -2 19 -9 39 -13 45 -12 14 0 355 13 370 5 7 8 16 7 20 -1 5 0 16 4 24 13 36 14 100 1 117 -17 22 -21 448 -4 458 17 11 11 36 -7 33 -13 -2 -19 5 -21 24 -2 14 -9 31 -15 36 -14 12 -136 22 -192 15z"/>
<path d="M4240 3103 c0 -12 -4 -25 -10 -28 -5 -3 -10 -24 -10 -45 0 -21 -5 -42 -10 -45 -15 -9 -1 -77 19 -91 10 -8 15 -26 14 -53 -1 -22 2 -43 8 -46 12 -8 12 -62 -1 -70 -5 -3 -10 -20 -10 -37 0 -17 -8 -40 -17 -50 -15 -17 -17 -54 -21 -311 -2 -161 -9 -300 -14 -310 -7 -14 1 -27 44 -67 50 -47 56 -49 108 -49 51 -1 58 2 100 42 l45 44 0 203 c0 179 2 204 16 207 9 3 23 16 30 30 18 33 46 48 65 32 8 -6 14 -17 14 -23 0 -7 13 -27 30 -46 16 -19 29 -40 30 -46 0 -6 9 -19 20 -29 11 -10 20 -23 20 -30 0 -7 9 -20 20 -30 11 -10 20 -23 20 -30 0 -7 9 -20 20 -30 11 -10 20 -22 20 -28 0 -5 12 -28 28 -51 15 -22 40 -67 55 -98 31 -62 42 -75 52 -57 5 7 24 -5 54 -33 60 -56 82 -68 130 -68 43 0 69 11 120 52 l34 26 -16 34 c-9 19 -25 43 -37 53 -12 10 -28 35 -37 54 -9 20 -29 55 -45 78 -15 23 -28 46 -28 51 0 5 -9 17 -20 27 -11 10 -20 24 -20 30 0 7 -7 18 -15 25 -9 7 -24 32 -35 54 -10 23 -32 54 -49 70 -17 17 -31 35 -31 42 0 6 -7 17 -15 24 -8 7 -15 22 -15 35 0 12 -9 30 -20 40 -11 10 -20 27 -20 37 0 22 -77 108 -97 108 -7 0 -16 7 -19 15 -9 22 -20 19 -63 -20 -21 -19 -42 -35 -47 -35 -5 0 -36 -28 -70 -61 -35 -34 -67 -58 -73 -55 -13 9 -16 402 -2 410 5 3 11 23 14 43 3 29 -2 48 -22 80 -23 39 -30 43 -66 44 -22 0 -70 1 -108 2 -63 2 -67 1 -67 -20z"/>
<path d="M6733 3123 l-53 -4 0 -34 c0 -19 -4 -36 -9 -39 -12 -8 -20 -55 -10 -62 5 -3 9 -20 9 -38 0 -17 5 -37 11 -43 7 -7 9 -27 4 -55 -4 -23 -9 -221 -11 -438 -5 -541 -3 -515 -34 -515 -22 0 -25 -4 -25 -35 0 -31 3 -35 25 -35 20 0 26 -6 28 -27 2 -15 10 -32 18 -38 16 -14 19 -66 4 -75 -5 -3 -10 -28 -10 -54 0 -35 5 -53 20 -66 11 -10 20 -24 20 -32 0 -7 6 -13 14 -13 7 0 19 -7 26 -15 7 -8 21 -15 31 -15 11 0 27 -5 37 -11 18 -11 50 -2 114 32 10 5 27 9 38 9 23 0 25 11 8 43 -25 49 -28 58 -28 86 0 17 -5 33 -11 37 -7 4 -9 26 -5 63 3 31 6 136 7 234 1 97 5 180 10 183 5 3 9 19 9 35 0 22 6 32 25 39 19 7 25 17 25 38 0 15 5 33 12 40 13 13 -5 42 -27 42 -6 0 -19 8 -28 18 -13 15 -15 58 -16 309 0 233 3 298 14 320 12 24 12 29 0 43 -8 9 -15 24 -15 32 0 9 -6 20 -12 25 -15 12 -141 21 -215 16z"/>
<path d="M5607 3113 c-4 -3 -7 -37 -7 -73 0 -50 -4 -71 -16 -81 -12 -10 -14 -22 -9 -53 4 -23 8 -74 9 -114 1 -58 5 -76 19 -83 15 -9 17 -36 17 -298 0 -244 -2 -293 -16 -320 -9 -18 -18 -60 -21 -94 -3 -34 -10 -67 -15 -74 -26 -33 51 -163 114 -190 23 -10 34 -8 72 11 24 12 60 36 78 52 30 26 34 35 30 67 -2 21 -8 39 -12 42 -10 6 0 248 12 262 5 7 8 57 7 112 -2 55 0 104 4 107 4 4 7 22 7 41 0 19 7 45 16 58 l16 25 -26 21 -26 20 0 209 c0 115 4 211 9 214 15 10 19 55 5 67 -19 15 -18 48 1 55 8 4 15 10 15 15 0 10 -273 12 -283 2z"/>
<path d="M3569 3068 c-54 -74 -60 -107 -44 -252 5 -37 3 -62 -4 -69 -6 -6 -11 -26 -11 -43 0 -18 -5 -36 -11 -39 -6 -4 -8 -13 -5 -20 5 -14 -56 -74 -96 -95 -15 -7 -24 -18 -21 -24 4 -6 6 -48 4 -94 -2 -75 -1 -83 15 -80 15 2 18 -5 18 -44 1 -42 5 -51 41 -82 22 -20 40 -41 40 -48 2 -21 17 -52 30 -60 7 -4 11 -23 9 -44 -2 -28 5 -47 33 -85 19 -27 32 -49 28 -49 -4 0 -2 -6 4 -13 6 -8 25 -13 41 -12 17 1 33 -2 36 -7 3 -4 27 -8 53 -8 40 0 51 5 77 33 58 62 58 63 35 96 -12 16 -21 38 -21 48 0 11 -9 28 -20 38 -11 10 -20 24 -20 30 0 7 -7 18 -15 25 -8 7 -29 41 -45 76 -17 35 -35 66 -39 69 -5 3 -26 39 -46 80 -47 94 -43 113 30 159 104 67 155 150 155 252 0 35 -4 66 -10 69 -5 3 -10 17 -10 31 0 13 -6 34 -12 47 -22 39 -112 127 -130 127 -9 0 -20 5 -23 10 -12 20 -42 9 -66 -22z"/>
<path d="M7273 3068 c-23 -25 -32 -45 -36 -85 -3 -29 -2 -55 4 -58 5 -4 9 -17 9 -30 0 -13 5 -27 10 -30 6 -3 10 -19 10 -35 0 -16 5 -32 10 -35 11 -7 14 -108 3 -118 -3 -4 -12 -2 -18 3 -19 16 -41 -15 -25 -35 9 -11 10 -18 1 -29 -11 -13 -5 -46 8 -46 4 0 12 5 18 11 7 7 13 7 17 1 3 -6 2 -13 -4 -17 -5 -3 -10 -26 -10 -50 0 -24 -4 -46 -9 -49 -4 -3 -11 -20 -15 -38 -10 -51 -52 -88 -99 -88 -31 0 -38 -3 -33 -15 3 -9 2 -23 -3 -33 -16 -31 -30 -67 -33 -82 -3 -14 19 -77 43 -122 5 -10 9 -27 9 -37 0 -11 5 -23 10 -26 6 -3 10 -17 10 -30 0 -13 5 -27 10 -30 6 -3 10 -17 10 -30 0 -13 5 -27 10 -30 6 -3 10 -17 10 -30 0 -13 5 -27 10 -30 6 -3 10 -17 10 -30 0 -13 5 -27 10 -30 6 -3 10 -17 10 -30 0 -13 5 -27 10 -30 6 -3 10 -21 10 -40 0 -19 5 -37 10 -40 6 -3 10 -14 10 -24 0 -9 9 -36 20 -59 11 -22 20 -49 20 -59 0 -10 17 -52 38 -93 30 -60 41 -75 58 -73 13 1 35 -13 59 -37 23 -23 49 -40 61 -40 13 0 26 -5 29 -10 9 -14 61 -12 73 2 5 7 12 24 14 38 2 17 10 26 26 28 27 4 28 13 3 29 -18 12 -91 147 -91 170 0 7 -9 28 -20 48 -11 20 -20 44 -20 55 0 10 -4 22 -10 25 -5 3 -10 17 -10 30 0 13 -4 27 -10 30 -5 3 -10 15 -10 26 0 10 -5 29 -12 42 -25 49 -28 58 -28 91 0 19 -4 38 -10 41 -5 3 -10 17 -10 30 0 13 -4 27 -10 30 -5 3 -10 17 -10 30 0 13 -4 27 -10 30 -5 3 -10 17 -10 30 0 13 -4 27 -10 30 -5 3 -10 17 -10 30 0 13 -4 27 -10 30 -5 3 -10 28 -10 55 l0 49 38 17 c42 19 102 72 102 89 0 7 9 20 20 30 11 10 20 28 20 41 0 13 5 26 10 29 6 3 10 30 11 58 0 29 4 76 8 105 4 29 4 55 -1 58 -4 3 -8 41 -8 84 0 43 -4 82 -10 85 -5 3 -10 14 -10 24 0 53 -121 211 -162 211 -9 0 -20 5 -23 10 -12 20 -52 9 -82 -22z m12 -448 c-5 -8 -11 -8 -17 -2 -6 6 -7 16 -3 22 5 8 11 8 17 2 6 -6 7 -16 3 -22z"/>
<path d="M5060 3070 c0 -5 5 -10 10 -10 6 0 10 5 10 10 0 6 -4 10 -10 10 -5 0 -10 -4 -10 -10z"/>
<path d="M2075 2990 c-3 -5 -25 -10 -48 -10 -50 0 -94 -32 -126 -93 -26 -48 -27 -89 -1 -112 11 -10 20 -30 20 -45 0 -15 9 -35 20 -45 11 -10 17 -21 15 -26 -3 -4 4 -24 15 -44 11 -19 20 -44 20 -54 0 -11 10 -39 21 -63 12 -23 26 -54 32 -68 5 -14 13 -33 18 -42 5 -10 9 -24 9 -32 0 -7 7 -19 15 -26 11 -9 12 -16 2 -31 -9 -15 -9 -23 1 -39 6 -11 12 -27 12 -35 0 -19 21 -57 38 -68 16 -10 52 -85 52 -108 0 -10 5 -21 10 -24 6 -3 10 -21 10 -40 0 -19 5 -37 10 -40 6 -3 10 -24 10 -46 0 -21 5 -39 10 -39 6 0 15 -11 20 -25 5 -14 18 -28 27 -32 10 -3 31 -15 46 -26 37 -26 91 -18 118 17 11 15 26 26 33 26 7 0 27 18 45 41 l33 40 -41 82 c-23 45 -41 87 -41 94 0 7 -9 28 -20 48 -11 20 -20 42 -20 50 0 8 -9 30 -20 50 -11 20 -20 42 -20 50 0 8 -9 30 -20 50 -11 20 -20 44 -20 55 0 10 -4 22 -10 25 -5 3 -10 15 -10 25 0 11 -9 35 -20 55 -11 20 -20 42 -20 49 0 8 -13 40 -30 71 -16 31 -30 63 -30 71 0 7 -9 29 -20 49 -11 20 -20 42 -20 50 0 8 -9 30 -20 50 -11 20 -20 44 -20 55 0 10 -4 22 -10 25 -5 3 -10 16 -10 28 -1 24 -32 67 -49 67 -5 0 -13 -4 -16 -10z"/>
<path d="M3460 2876 c0 -9 7 -16 16 -16 9 0 14 5 12 12 -6 18 -28 21 -28 4z"/>
<path d="M1060 2750 c0 -5 5 -10 10 -10 6 0 10 5 10 10 0 6 -4 10 -10 10 -5 0 -10 -4 -10 -10z"/>
<path d="M1060 2510 c0 -5 5 -10 10 -10 6 0 10 5 10 10 0 6 -4 10 -10 10 -5 0 -10 -4 -10 -10z"/>
<path d="M1980 2430 c0 -5 7 -10 15 -10 8 0 15 5 15 10 0 6 -7 10 -15 10 -8 0 -15 -4 -15 -10z"/>
<path d="M2000 2376 c0 -9 7 -16 16 -16 9 0 14 5 12 12 -6 18 -28 21 -28 4z"/>
<path d="M4600 2330 c0 -5 5 -10 10 -10 6 0 10 5 10 10 0 6 -4 10 -10 10 -5 0 -10 -4 -10 -10z"/>
<path d="M4640 2270 c0 -5 5 -10 10 -10 6 0 10 5 10 10 0 6 -4 10 -10 10 -5 0 -10 -4 -10 -10z"/>
<path d="M760 2230 c0 -5 5 -10 10 -10 6 0 10 5 10 10 0 6 -4 10 -10 10 -5 0 -10 -4 -10 -10z"/>
<path d="M3360 2230 c0 -5 5 -10 10 -10 6 0 10 5 10 10 0 6 -4 10 -10 10 -5 0 -10 -4 -10 -10z"/>
<path d="M3380 2190 c0 -5 5 -10 10 -10 6 0 10 5 10 10 0 6 -4 10 -10 10 -5 0 -10 -4 -10 -10z"/>
<path d="M2120 2070 c0 -5 5 -10 10 -10 6 0 10 5 10 10 0 6 -4 10 -10 10 -5 0 -10 -4 -10 -10z"/>
<path d="M4780 2050 c0 -5 5 -10 10 -10 6 0 10 5 10 10 0 6 -4 10 -10 10 -5 0 -10 -4 -10 -10z"/>
<path d="M7080 2010 c0 -5 5 -10 10 -10 6 0 10 5 10 10 0 6 -4 10 -10 10 -5 0 -10 -4 -10 -10z"/>
<path d="M2160 1950 c0 -5 5 -10 10 -10 6 0 10 5 10 10 0 6 -4 10 -10 10 -5 0 -10 -4 -10 -10z"/>
<path d="M4840 1950 c0 -5 5 -10 10 -10 6 0 10 5 10 10 0 6 -4 10 -10 10 -5 0 -10 -4 -10 -10z"/>
<path d="M6620 1950 c0 -5 7 -10 15 -10 8 0 15 5 15 10 0 6 -7 10 -15 10 -8 0 -15 -4 -15 -10z"/>
<path d="M7100 1950 c0 -5 5 -10 10 -10 6 0 10 5 10 10 0 6 -4 10 -10 10 -5 0 -10 -4 -10 -10z"/>
<path d="M6255 1822 c-11 -2 -24 -8 -29 -13 -6 -5 -18 -9 -28 -9 -10 0 -18 -4 -18 -10 0 -17 54 -11 80 10 27 21 26 29 -5 22z"/>
<path d="M7160 1770 c0 -5 5 -10 10 -10 6 0 10 5 10 10 0 6 -4 10 -10 10 -5 0 -10 -4 -10 -10z"/>
<path d="M7186 1723 c-11 -11 -6 -23 9 -23 8 0 15 4 15 9 0 13 -16 22 -24 14z"/>
<path d="M3464 1539 c-11 -19 12 -31 50 -24 44 9 46 20 5 29 -42 8 -47 8 -55 -5z"/>
<path d="M3144 1519 c-10 -18 11 -31 40 -23 32 8 34 20 4 28 -32 8 -36 8 -44 -5z"/>
<path d="M6800 1430 c0 -5 5 -10 10 -10 6 0 10 5 10 10 0 6 -4 10 -10 10 -5 0 -10 -4 -10 -10z"/>
<path d="M7300 1350 c0 -5 5 -10 10 -10 6 0 10 5 10 10 0 6 -4 10 -10 10 -5 0 -10 -4 -10 -10z"/>
<path d="M7320 1310 c0 -5 5 -10 10 -10 6 0 10 5 10 10 0 6 -4 10 -10 10 -5 0 -10 -4 -10 -10z"/>
</g>
</g>
  <g id="id2:id2" transform="matrix(1.25,0,0,1.25,0.0,0.0)"><g transform="translate(0.000000,131.200000) scale(0.040000,-0.040000)" fill="#fcfcfc" stroke="none">
<path d="M2508 1094 c-39 -12 -49 -21 -67 -57 -23 -48 -26 -79 -11 -107 8 -15 3 -23 -35 -48 -86 -57 -115 -134 -81 -215 15 -37 79 -97 103 -97 9 0 25 -8 36 -18 30 -27 197 -23 254 6 52 27 89 28 131 2 53 -32 102 -35 153 -10 24 13 47 27 51 33 12 20 -4 37 -37 37 -18 0 -38 7 -45 15 -7 8 -18 15 -25 15 -7 0 -18 7 -25 15 -10 12 -9 23 8 58 38 78 54 125 48 136 -9 14 -192 15 -201 1 -10 -16 14 -40 40 -40 44 0 73 -63 41 -89 -21 -17 -70 17 -188 131 -110 106 -125 136 -86 175 l25 25 36 -16 c49 -20 87 -60 87 -90 0 -28 29 -49 50 -36 10 6 12 25 7 80 -3 40 -8 74 -10 76 -5 6 -169 34 -192 33 -11 0 -41 -7 -67 -15z m20 -300 c32 -30 80 -70 108 -89 62 -42 78 -60 70 -81 -13 -35 -143 8 -207 68 -45 43 -77 121 -59 143 19 23 27 19 88 -41z"/>
<path d="M5145 952 c-63 -31 -88 -64 -89 -120 -2 -81 23 -104 169 -159 l50 -19 3 -42 c3 -37 0 -43 -23 -52 -37 -14 -102 -12 -112 2 -4 7 -15 31 -23 52 -27 71 -50 54 -65 -47 l-7 -46 53 -15 c170 -51 314 38 277 171 -11 39 -61 75 -146 104 -94 32 -116 69 -66 108 37 29 98 28 118 -1 9 -12 16 -31 16 -41 0 -18 26 -35 37 -23 3 3 12 27 18 53 12 43 11 50 -5 67 -28 29 -151 33 -205 8z"/>
<path d="M3580 952 c0 -4 5 -13 12 -20 8 -8 8 -15 -1 -25 -21 -27 6 -61 75 -95 35 -18 77 -32 92 -32 15 0 33 -5 40 -12 19 -19 27 0 8 21 -14 16 -15 23 -6 41 9 18 9 25 -2 35 -26 25 -158 87 -172 82 -9 -4 -18 -2 -21 3 -7 12 -25 13 -25 2z"/>
<path d="M4860 814 c0 -13 -4 -26 -10 -29 -5 -3 -10 -15 -10 -27 0 -16 5 -19 25 -16 17 4 29 0 34 -10 8 -14 12 -14 25 -3 18 15 21 47 6 56 -5 3 -10 16 -10 29 0 19 -5 23 -30 23 -25 0 -30 -4 -30 -23z"/>
</g>
</g>
  <g id="id3:id3" transform="matrix(1.25,0,0,1.25,0.0,0.0)"><g transform="translate(0.000000,131.200000) scale(0.040000,-0.040000)" fill="#181617" stroke="none">
<path d="M4344 1819 c-10 -17 13 -36 27 -22 12 12 4 33 -11 33 -5 0 -12 -5 -16 -11z"/>
<path d="M1448 1803 c-18 -22 -40 -82 -33 -93 3 -5 1 -11 -5 -15 -5 -3 -10 -15 -10 -27 0 -15 3 -18 13 -10 10 9 22 30 69 125 17 34 -9 49 -34 20z"/>
<path d="M1768 1668 c-2 -27 -8 -34 -28 -36 -14 -2 -29 -8 -34 -13 -6 -5 -38 -9 -72 -9 -35 0 -66 -4 -69 -10 -3 -5 -17 -10 -30 -10 -13 0 -27 -4 -30 -10 -3 -5 -21 -10 -40 -10 -19 0 -37 -4 -40 -10 -10 -16 -65 -12 -71 5 -9 22 -27 18 -57 -13 -29 -31 -34 -54 -14 -70 9 -8 31 -4 80 12 37 12 70 25 74 29 3 4 17 7 29 7 13 0 26 5 29 10 3 6 51 10 109 10 l102 0 39 40 c27 28 45 38 57 34 16 -5 18 -2 13 23 -11 48 -14 53 -29 53 -9 0 -16 -12 -18 -32z"/>
<path d="M3464 1540 c-5 -5 -77 -10 -159 -11 -83 -1 -155 -5 -160 -9 -6 -5 -46 -11 -90 -14 -111 -8 -323 -32 -495 -56 -41 -6 -104 -13 -140 -16 -36 -3 -69 -10 -75 -15 -5 -5 -33 -9 -61 -9 -29 0 -56 -4 -59 -10 -3 -5 -26 -10 -50 -10 -24 0 -47 -4 -50 -10 -3 -5 -25 -10 -49 -10 -23 0 -46 -4 -52 -10 -5 -5 -24 -11 -42 -13 -18 -2 -35 -7 -39 -10 -3 -4 -20 -7 -38 -7 -17 0 -35 -4 -41 -10 -5 -5 -42 -11 -82 -12 -55 -1 -76 -6 -89 -20 -10 -11 -30 -18 -52 -18 -20 0 -65 -14 -99 -30 -35 -17 -74 -30 -86 -30 -13 0 -50 -13 -82 -30 -32 -16 -66 -30 -74 -30 -8 0 -35 -14 -59 -30 -24 -17 -51 -30 -60 -30 -27 0 -167 -141 -187 -189 l-18 -43 29 -56 c29 -54 132 -150 163 -151 7 -1 31 -15 54 -31 22 -17 51 -30 64 -30 13 0 25 -4 28 -9 9 -14 86 -48 123 -54 17 -4 55 -18 84 -32 29 -14 62 -25 74 -25 12 0 59 -14 105 -30 46 -17 97 -30 114 -30 17 0 66 -11 107 -25 42 -13 114 -29 160 -34 46 -6 117 -20 158 -31 41 -12 120 -25 175 -30 56 -6 148 -19 206 -30 58 -11 184 -24 280 -30 96 -5 207 -14 245 -19 360 -50 1307 -50 1660 -1 39 6 144 14 235 20 91 5 215 18 275 30 61 11 156 25 211 30 56 6 147 21 202 35 56 14 121 25 145 25 24 0 83 13 132 30 49 16 106 30 127 30 21 0 46 4 56 9 36 20 129 50 170 55 24 4 66 18 92 31 27 14 58 25 68 25 11 0 43 13 73 29 30 15 68 32 86 35 17 4 37 14 45 23 7 8 36 27 65 40 29 14 53 29 53 34 0 5 11 14 24 20 23 11 71 76 96 130 10 22 8 33 -10 69 -23 46 -109 135 -144 151 -12 5 -34 18 -51 28 -55 35 -105 61 -120 61 -17 0 -93 38 -101 51 -3 5 -18 9 -34 9 -25 0 -78 19 -142 51 -10 5 -31 9 -48 9 -16 0 -65 12 -107 27 -43 14 -96 30 -118 34 -22 4 -60 13 -85 19 -76 17 -143 31 -183 37 -20 3 -40 9 -43 14 -3 5 -25 9 -49 9 -24 0 -47 5 -50 10 -3 5 -30 10 -60 10 -30 0 -56 4 -59 8 -3 5 -28 9 -56 10 -29 0 -57 5 -63 10 -7 5 -48 10 -91 11 -43 0 -84 5 -90 10 -6 5 -49 12 -96 15 -47 2 -132 8 -190 11 -58 4 -109 11 -115 16 -5 5 -73 9 -151 9 -80 0 -145 4 -149 10 -8 12 -1078 13 -1091 0z m221 -360 c3 -5 -13 -19 -35 -30 -81 -42 -91 -133 -22 -199 20 -19 73 -51 117 -71 49 -23 95 -54 120 -79 38 -40 40 -45 40 -104 0 -79 -27 -127 -91 -157 -25 -12 -48 -20 -51 -16 -3 3 -12 1 -20 -5 -7 -6 -13 -9 -13 -5 0 3 0 9 0 14 0 4 3 7 8 8 25 2 62 31 81 64 25 45 26 65 6 114 -17 39 -56 68 -168 122 -86 41 -112 64 -133 120 -25 66 -12 129 35 175 21 19 53 40 72 46 45 14 47 15 54 3z m188 -7 c11 -6 -1 -94 -13 -107 -6 -6 -12 -2 -15 10 -18 56 -36 84 -54 84 -22 0 -34 13 -23 24 7 8 90 -1 105 -11z m-1318 -125 c-14 -16 -25 -36 -25 -44 0 -29 38 -89 75 -119 21 -16 66 -58 100 -92 35 -35 70 -63 78 -63 8 0 20 -7 27 -15 7 -8 21 -15 31 -15 10 0 26 -11 35 -25 9 -14 32 -32 50 -40 19 -8 34 -19 34 -24 0 -6 9 -11 19 -11 33 0 33 -18 2 -35 -40 -20 -54 -19 -128 11 -36 14 -78 24 -96 22 -28 -3 -32 0 -29 19 5 34 -13 59 -71 97 -28 19 -79 61 -112 92 -40 37 -70 57 -90 59 -16 2 -32 4 -34 4 -2 1 3 9 11 19 10 10 17 43 20 85 5 78 18 97 75 107 52 9 58 3 28 -32z m197 -27 c4 -24 5 -48 2 -53 -8 -13 -24 1 -24 21 0 10 -16 31 -35 45 -43 33 -39 45 12 37 35 -6 38 -9 45 -50z m1373 -124 c-41 -38 -47 -48 -56 -106 -20 -126 23 -230 105 -256 14 -4 16 -9 8 -17 -21 -21 -98 10 -141 57 -44 48 -57 97 -49 189 7 83 70 162 144 178 37 9 34 -4 -11 -45z m163 43 c7 0 32 -18 56 -40 53 -49 71 -103 64 -193 -7 -86 -42 -140 -110 -172 -65 -30 -81 -22 -34 17 20 16 43 43 52 60 17 33 23 143 11 200 -9 43 -50 96 -84 109 -29 11 -20 33 11 25 11 -3 27 -6 34 -6z m604 -27 l30 -30 0 -146 c0 -100 4 -153 13 -170 17 -32 11 -37 -41 -37 -45 0 -64 14 -45 33 7 7 11 58 11 137 0 107 -3 130 -20 158 -21 34 -54 52 -95 52 -13 0 -27 5 -30 10 -10 17 37 30 93 27 44 -3 59 -9 84 -34z m299 23 c-1 -3 -4 -6 -7 -5 -11 2 -64 -54 -64 -67 0 -7 5 -24 11 -37 10 -23 31 -35 147 -83 51 -21 92 -66 92 -101 0 -49 -31 -94 -78 -115 -57 -26 -79 -10 -28 20 31 19 36 26 36 60 0 49 -14 61 -107 96 -96 36 -127 72 -120 135 4 35 13 52 37 74 18 16 38 26 46 23 7 -3 16 -1 20 5 6 10 16 6 15 -5z m150 -2 c8 -4 -2 -73 -12 -79 -5 -3 -15 10 -23 28 -8 19 -19 38 -25 41 -31 19 25 29 60 10z m-707 -16 c11 -15 12 -26 5 -40 -10 -18 -9 -298 1 -328 4 -11 -5 -16 -34 -18 -49 -4 -74 4 -58 20 8 8 12 64 12 174 0 138 -2 163 -16 168 -22 8 -13 29 17 37 42 12 58 10 73 -13z m-2218 -107 c1 -23 9 -50 18 -60 9 -10 16 -22 16 -27 0 -23 80 -84 145 -111 39 -17 69 -34 68 -39 -6 -29 -153 -29 -208 0 -16 9 -35 16 -40 16 -6 0 -28 17 -49 39 -39 40 -55 94 -43 143 8 30 64 91 79 86 7 -3 13 -23 14 -47z m528 40 c4 -5 -1 -22 -9 -38 -8 -15 -16 -39 -19 -53 -7 -35 -31 -64 -45 -56 -8 5 -8 13 -1 26 17 31 11 65 -15 90 -13 12 -22 27 -19 31 7 12 101 11 108 0z m616 -245 c0 -31 20 -55 55 -64 17 -5 28 -13 25 -18 -6 -12 -91 -6 -107 8 -16 13 -17 80 -1 96 15 15 28 6 28 -22z m1555 -26 c4 -17 15 -35 26 -41 27 -14 15 -27 -18 -21 -43 7 -55 21 -47 56 12 56 27 58 39 6z"/>
<path d="M839 1373 c-31 -5 -84 -57 -74 -72 4 -8 15 -6 33 7 15 10 39 23 55 30 23 10 40 45 20 41 -5 -1 -20 -4 -34 -6z"/>
</g>
</g>
  <g id="id4:id4" transform="matrix(1.25,0,0,1.25,0.0,0.0)"><g transform="translate(0.000000,131.200000) scale(0.040000,-0.040000)" fill="#fee4e3" stroke="none">
<path d="M4984 3159 c-10 -17 13 -36 27 -22 12 12 4 33 -11 33 -5 0 -12 -5 -16 -11z"/>
<path d="M5208 3162 c-35 -4 -37 -21 -3 -24 87 -5 110 -3 110 12 0 15 -46 21 -107 12z"/>
<path d="M5037 3154 c-3 -3 -3 -12 0 -20 4 -10 23 -14 64 -14 64 0 74 8 32 27 -20 10 -30 10 -40 1 -10 -8 -17 -8 -25 0 -13 13 -22 15 -31 6z"/>
<path d="M5336 3113 c-8 -21 10 -41 24 -27 11 11 3 44 -10 44 -4 0 -11 -8 -14 -17z"/>
<path d="M5300 3070 c0 -5 5 -10 10 -10 6 0 10 5 10 10 0 6 -4 10 -10 10 -5 0 -10 -4 -10 -10z"/>
<path d="M5220 3010 c0 -5 5 -10 10 -10 6 0 10 5 10 10 0 6 -4 10 -10 10 -5 0 -10 -4 -10 -10z"/>
<path d="M5180 2990 c0 -5 5 -10 10 -10 6 0 10 5 10 10 0 6 -4 10 -10 10 -5 0 -10 -4 -10 -10z"/>
<path d="M5102 2937 c-29 -30 -28 -34 8 -34 30 0 49 25 35 47 -9 15 -19 12 -43 -13z"/>
<path d="M4936 2791 c-49 -49 -64 -71 -55 -76 8 -6 18 -1 27 13 8 12 23 22 33 22 11 0 16 5 13 13 -2 7 11 28 31 47 34 33 43 50 27 50 -4 0 -38 -31 -76 -69z"/>
<path d="M4825 2695 c-3 -8 -7 -22 -10 -31 -3 -9 7 -33 22 -53 31 -40 44 -60 69 -111 9 -19 27 -45 38 -58 12 -13 20 -27 20 -30 -2 -14 19 -51 32 -56 20 -8 28 13 11 32 -8 9 -23 33 -32 52 -10 19 -28 48 -41 63 -13 16 -24 36 -24 45 0 9 -10 27 -23 41 -30 34 -49 78 -37 86 6 4 10 13 10 21 0 19 -29 18 -35 -1z"/>
</g>
</g>
  <g id="id5:id5" transform="matrix(1.25,0,0,1.25,0.0,0.0)"><g transform="translate(0.000000,131.200000) scale(0.040000,-0.040000)" fill="#eeebee" stroke="none">
<path d="M4660 2230 c0 -5 5 -10 10 -10 6 0 10 5 10 10 0 6 -4 10 -10 10 -5 0 -10 -4 -10 -10z"/>
<path d="M4700 2165 c0 -8 5 -15 10 -15 6 0 10 7 10 15 0 8 -4 15 -10 15 -5 0 -10 -7 -10 -15z"/>
<path d="M4740 2110 c0 -5 5 -10 10 -10 6 0 10 5 10 10 0 6 -4 10 -10 10 -5 0 -10 -4 -10 -10z"/>
<path d="M4757 2065 c-7 -16 8 -29 23 -20 10 6 2 35 -10 35 -4 0 -10 -7 -13 -15z"/>
<path d="M4800 2010 c0 -5 5 -10 10 -10 6 0 10 5 10 10 0 6 -4 10 -10 10 -5 0 -10 -4 -10 -10z"/>
</g>
</g>
  <g id="id6:id6" transform="matrix(1.25,0,0,1.25,0.0,0.0)"><g transform="translate(0.000000,131.200000) scale(0.040000,-0.040000)" fill="#b7b6b6" stroke="none">
<path d="M5864 1379 c-10 -17 13 -36 27 -22 12 12 4 33 -11 33 -5 0 -12 -5 -16 -11z"/>
<path d="M5950 1350 c0 -5 7 -10 15 -10 8 0 15 5 15 10 0 6 -7 10 -15 10 -8 0 -15 -4 -15 -10z"/>
<path d="M6040 1330 c0 -5 5 -10 10 -10 6 0 10 5 10 10 0 6 -4 10 -10 10 -5 0 -10 -4 -10 -10z"/>
<path d="M6120 1310 c0 -5 5 -10 10 -10 6 0 10 5 10 10 0 6 -4 10 -10 10 -5 0 -10 -4 -10 -10z"/>
<path d="M6208 1303 c-29 -7 -21 -18 29 -36 29 -11 50 -14 56 -8 13 13 -2 33 -20 26 -9 -3 -23 1 -32 8 -9 7 -24 12 -33 10z"/>
<path d="M1644 1279 c-10 -17 13 -36 27 -22 12 12 4 33 -11 33 -5 0 -12 -5 -16 -11z"/>
<path d="M6360 1260 c-18 -11 -18 -11 52 -43 32 -14 60 -22 63 -16 8 12 -4 31 -15 24 -4 -3 -13 2 -20 10 -7 8 -16 13 -20 10 -4 -3 -13 2 -20 10 -14 17 -20 18 -40 5z"/>
<path d="M1560 1250 c0 -5 5 -10 10 -10 6 0 10 5 10 10 0 6 -4 10 -10 10 -5 0 -10 -4 -10 -10z"/>
<path d="M1500 1235 c-7 -8 -16 -13 -20 -10 -13 8 -24 -15 -13 -26 12 -12 75 21 70 35 -6 17 -24 17 -37 1z"/>
<path d="M1369 1193 c-30 -15 -54 -41 -46 -49 7 -7 97 36 97 47 0 14 -26 15 -51 2z"/>
<path d="M6537 1203 c-14 -13 -6 -22 39 -47 44 -25 64 -26 64 -5 0 9 -53 34 -56 27 -1 -2 -11 5 -21 15 -11 9 -23 14 -26 10z"/>
<path d="M6670 1139 c-10 -7 -11 -12 -4 -15 6 -3 26 -16 44 -29 23 -17 37 -22 44 -15 7 7 6 14 -2 22 -7 7 -12 8 -12 3 0 -5 -12 3 -28 18 -21 20 -31 24 -42 16z"/>
<path d="M1220 1115 c-7 -9 -11 -18 -8 -20 7 -8 38 5 38 15 0 17 -18 19 -30 5z"/>
<path d="M6785 1080 c-8 -13 1 -27 26 -41 l20 -10 -16 30 c-17 34 -21 36 -30 21z"/>
<path d="M1120 1055 c-13 -14 -20 -28 -17 -32 8 -7 57 35 57 49 0 15 -16 8 -40 -17z"/>
<path d="M1042 1000 c-12 -16 -21 -32 -20 -34 2 -2 -6 -13 -16 -25 -11 -12 -15 -21 -11 -21 4 0 0 -9 -10 -20 -10 -11 -14 -20 -10 -20 5 0 -2 -12 -16 -27 -14 -16 -31 -45 -38 -67 -12 -36 -11 -42 15 -93 18 -34 44 -66 69 -83 22 -15 51 -40 64 -54 14 -14 34 -26 47 -26 12 0 27 -7 34 -15 14 -17 67 -45 86 -45 7 0 37 -14 67 -30 30 -17 66 -30 80 -30 14 0 51 -13 82 -30 35 -18 72 -30 95 -30 22 0 42 -4 45 -10 3 -5 13 -10 21 -10 8 0 34 -9 56 -20 27 -13 62 -20 99 -20 32 0 61 -4 64 -10 3 -5 17 -10 30 -10 13 0 26 -4 29 -9 7 -10 43 -18 136 -31 119 -17 145 -21 165 -30 32 -14 84 -22 175 -26 47 -3 94 -9 105 -14 11 -5 38 -11 60 -14 22 -3 69 -10 105 -17 36 -6 137 -15 225 -20 88 -4 210 -13 270 -19 485 -46 986 -45 1530 1 66 5 185 12 265 15 80 3 149 9 155 15 5 5 33 9 61 9 29 0 56 5 59 10 3 6 30 10 60 10 30 0 57 5 60 10 3 6 48 10 100 10 52 0 97 4 100 10 3 6 21 10 40 10 19 0 37 4 40 10 3 5 21 10 40 10 19 0 37 5 40 10 3 6 39 10 80 10 41 0 77 4 80 10 3 5 17 10 30 10 13 0 26 4 29 9 6 10 54 20 136 27 30 3 59 10 65 15 5 5 17 9 27 9 9 0 33 9 53 20 20 11 51 20 70 20 19 0 49 8 67 18 18 10 53 24 78 31 58 17 89 31 119 53 13 10 34 18 46 18 24 0 81 26 90 41 4 5 25 18 49 29 23 10 49 26 56 35 7 8 18 15 24 15 14 0 56 42 56 55 0 5 12 21 26 36 14 14 26 34 28 42 1 9 16 34 34 56 19 24 29 46 26 55 -9 23 -22 20 -29 -6 -4 -13 -16 -32 -26 -43 -10 -11 -17 -24 -17 -30 0 -5 -9 -15 -21 -21 -12 -6 -32 -20 -44 -31 -20 -19 -40 -31 -127 -77 -58 -31 -161 -76 -175 -76 -13 0 -67 -21 -109 -42 -10 -5 -39 -13 -65 -18 -25 -4 -77 -19 -116 -34 -38 -14 -82 -26 -96 -26 -14 0 -70 -13 -125 -29 -54 -16 -129 -31 -165 -34 -36 -3 -77 -10 -90 -15 -45 -18 -125 -33 -215 -41 -49 -4 -163 -19 -254 -34 -91 -15 -232 -31 -315 -36 -82 -6 -229 -18 -325 -27 -137 -14 -283 -18 -675 -18 -497 0 -608 5 -950 44 -44 5 -115 9 -157 9 -42 1 -143 13 -225 27 -81 14 -191 30 -243 34 -52 5 -138 20 -192 34 -53 14 -114 26 -135 26 -22 0 -84 13 -139 30 -54 16 -110 30 -124 30 -22 -1 -142 34 -270 77 -25 9 -65 22 -90 31 -58 19 -198 83 -267 121 -126 70 -199 168 -173 230 6 17 12 34 12 38 0 4 14 25 30 46 19 24 27 42 21 48 -6 6 -17 -2 -31 -21z"/>
<path d="M6860 1011 c0 -13 29 -35 37 -28 7 8 -15 37 -28 37 -5 0 -9 -4 -9 -9z"/>
<path d="M6918 955 c-7 -8 21 -65 31 -65 18 0 20 15 4 33 -10 10 -17 22 -15 25 5 9 -13 14 -20 7z"/>
</g>
</g>
  <g id="id7:id7" transform="matrix(1.25,0,0,1.25,0.0,0.0)"><g transform="translate(0.000000,131.200000) scale(0.040000,-0.040000)" fill="#f6e7e9" stroke="none">
<path d="M4076 3161 c-4 -6 -13 -8 -21 -4 -10 3 -15 -2 -15 -16 0 -21 10 -27 24 -13 4 4 22 7 39 7 22 0 32 5 32 15 0 17 -50 27 -59 11z"/>
<path d="M4020 3090 c0 -5 5 -10 10 -10 6 0 10 5 10 10 0 6 -4 10 -10 10 -5 0 -10 -4 -10 -10z"/>
<path d="M3985 3020 c-3 -5 -4 -14 0 -20 8 -13 35 -1 35 16 0 16 -26 19 -35 4z"/>
<path d="M4080 3010 c0 -5 5 -10 10 -10 6 0 10 5 10 10 0 6 -4 10 -10 10 -5 0 -10 -4 -10 -10z"/>
<path d="M1720 2550 c0 -5 5 -10 10 -10 6 0 10 5 10 10 0 6 -4 10 -10 10 -5 0 -10 -4 -10 -10z"/>
<path d="M1680 2450 c0 -5 5 -10 10 -10 6 0 10 5 10 10 0 6 -4 10 -10 10 -5 0 -10 -4 -10 -10z"/>
<path d="M1660 2410 c0 -5 5 -10 10 -10 6 0 10 5 10 10 0 6 -4 10 -10 10 -5 0 -10 -4 -10 -10z"/>
<path d="M1632 2359 c2 -7 10 -15 17 -17 8 -3 12 1 9 9 -2 7 -10 15 -17 17 -8 3 -12 -1 -9 -9z"/>
<path d="M1620 2290 c0 -5 5 -10 10 -10 6 0 10 5 10 10 0 6 -4 10 -10 10 -5 0 -10 -4 -10 -10z"/>
<path d="M1600 2230 c0 -5 5 -10 10 -10 6 0 10 5 10 10 0 6 -4 10 -10 10 -5 0 -10 -4 -10 -10z"/>
<path d="M1560 2130 c0 -5 5 -10 10 -10 6 0 10 5 10 10 0 6 -4 10 -10 10 -5 0 -10 -4 -10 -10z"/>
<path d="M1540 2070 c0 -5 5 -10 10 -10 6 0 10 5 10 10 0 6 -4 10 -10 10 -5 0 -10 -4 -10 -10z"/>
<path d="M1440 1810 c0 -5 5 -10 10 -10 6 0 10 5 10 10 0 6 -4 10 -10 10 -5 0 -10 -4 -10 -10z"/>
<path d="M1420 1750 c0 -5 5 -10 10 -10 6 0 10 5 10 10 0 6 -4 10 -10 10 -5 0 -10 -4 -10 -10z"/>
<path d="M1400 1710 c0 -5 5 -10 10 -10 6 0 10 5 10 10 0 6 -4 10 -10 10 -5 0 -10 -4 -10 -10z"/>
<path d="M1343 1630 c-25 -10 -30 -25 -12 -35 11 -7 49 22 49 37 0 10 -8 9 -37 -2z"/>
<path d="M1280 1550 c0 -5 5 -10 10 -10 6 0 10 5 10 10 0 6 -4 10 -10 10 -5 0 -10 -4 -10 -10z"/>
<path d="M1500 1550 c0 -5 9 -10 20 -10 11 0 20 5 20 10 0 6 -9 10 -20 10 -11 0 -20 -4 -20 -10z"/>
<path d="M1440 1530 c0 -5 5 -10 10 -10 6 0 10 5 10 10 0 6 -4 10 -10 10 -5 0 -10 -4 -10 -10z"/>
</g>
</g>
  <g id="id8:id8" transform="matrix(1.25,0,0,1.25,0.0,0.0)"><g transform="translate(0.000000,131.200000) scale(0.040000,-0.040000)" fill="#faece7" stroke="none">
<path d="M6240 2540 c0 -11 5 -20 10 -20 6 0 10 9 10 20 0 11 -4 20 -10 20 -5 0 -10 -9 -10 -20z"/>
<path d="M6240 2340 c0 -5 5 -10 10 -10 6 0 10 5 10 10 0 6 -4 10 -10 10 -5 0 -10 -4 -10 -10z"/>
<path d="M6240 2250 c0 -35 -4 -43 -30 -58 -33 -19 -37 -27 -15 -36 23 -8 45 4 45 24 0 11 5 22 10 25 6 3 10 24 10 46 0 21 -4 39 -10 39 -5 0 -10 -18 -10 -40z"/>
<path d="M6080 2270 c0 -5 5 -10 10 -10 6 0 10 5 10 10 0 6 -4 10 -10 10 -5 0 -10 -4 -10 -10z"/>
<path d="M6100 2230 c0 -5 5 -10 10 -10 6 0 10 5 10 10 0 6 -4 10 -10 10 -5 0 -10 -4 -10 -10z"/>
<path d="M6144 2139 c-10 -17 13 -36 27 -22 12 12 4 33 -11 33 -5 0 -12 -5 -16 -11z"/>
<path d="M6200 2130 c0 -5 5 -10 10 -10 6 0 10 5 10 10 0 6 -4 10 -10 10 -5 0 -10 -4 -10 -10z"/>
</g>
</g>
  <g id="id9:id9" transform="matrix(1.25,0,0,1.25,0.0,0.0)"><g transform="translate(0.000000,131.200000) scale(0.040000,-0.040000)" fill="#260f10" stroke="none">
<path d="M255 3076 c-14 -14 -25 -29 -25 -34 0 -15 57 -64 102 -86 80 -40 79 -32 73 -544 -9 -792 -15 -1025 -27 -1039 -8 -10 -8 -17 0 -25 16 -16 52 18 52 48 0 13 4 26 10 29 5 3 10 21 10 39 0 17 4 36 10 42 6 6 11 242 14 629 3 341 5 636 6 655 5 135 -43 221 -131 239 -27 5 -35 12 -39 36 -7 38 -24 42 -55 11z"/>
<path d="M1968 3083 c-18 -21 -98 -182 -98 -197 0 -6 -14 -38 -30 -71 -17 -33 -30 -64 -30 -70 0 -6 -12 -35 -26 -64 -22 -43 -24 -55 -13 -61 7 -5 16 -7 20 -4 11 6 39 65 39 80 0 6 14 38 30 69 17 31 30 62 30 69 0 6 13 38 30 71 16 33 30 65 30 71 0 6 11 33 25 60 14 27 25 52 25 57 0 13 -16 8 -32 -10z"/>
<path d="M2726 3084 c-31 -31 -13 -74 31 -74 37 0 81 -27 98 -60 13 -25 15 -97 15 -481 0 -315 -4 -463 -12 -491 -8 -29 -9 -41 0 -50 16 -16 52 18 52 48 0 13 5 26 10 29 6 4 10 179 10 494 l0 487 -32 30 c-41 36 -72 54 -97 54 -10 0 -24 7 -31 15 -16 19 -25 19 -44 -1z"/>
<path d="M4828 3086 c-21 -15 -23 -47 -6 -64 7 -7 27 -12 44 -12 23 0 38 -8 52 -25 24 -30 33 -31 56 -6 26 28 16 53 -29 74 -22 11 -52 26 -67 33 -31 17 -29 17 -50 0z"/>
<path d="M5383 3086 c-43 -21 -5 -76 52 -76 42 0 65 -19 81 -66 19 -53 21 -1033 2 -1052 -19 -19 6 -39 27 -22 42 35 44 59 50 480 2 223 5 430 5 460 1 30 -2 83 -7 116 -7 51 -14 68 -45 103 -27 29 -46 41 -65 41 -16 0 -37 7 -47 15 -22 17 -22 17 -53 1z"/>
<path d="M6487 3082 c-10 -10 -17 -26 -17 -35 0 -18 46 -57 67 -57 7 0 25 -7 39 -16 55 -37 54 -24 54 -663 0 -382 -4 -592 -10 -596 -13 -8 -13 -42 1 -50 15 -10 49 24 49 50 0 11 4 25 10 31 6 6 11 210 13 534 3 289 8 544 12 566 4 27 3 44 -4 48 -6 4 -11 23 -11 42 0 27 -9 42 -41 74 -24 23 -51 40 -64 40 -13 0 -32 11 -43 25 -24 30 -33 31 -55 7z"/>
<path d="M4002 3078 c-31 -31 -5 -68 49 -68 78 0 129 -87 114 -193 -7 -46 -23 -846 -18 -856 5 -9 34 24 48 53 12 25 15 103 18 411 1 209 6 413 9 452 4 42 3 75 -3 78 -5 4 -9 17 -9 30 0 34 -62 85 -105 85 -18 0 -37 5 -40 10 -9 14 -48 13 -63 -2z"/>
<path d="M3268 3073 c-45 -5 -66 -26 -48 -48 8 -10 31 -15 71 -15 78 0 122 -27 155 -93 21 -44 24 -65 24 -162 0 -73 -4 -115 -12 -123 -19 -19 6 -40 26 -23 23 19 46 70 46 102 0 15 5 31 10 34 23 14 10 117 -27 202 -19 45 -109 123 -142 123 -14 0 -35 2 -46 4 -11 2 -37 1 -57 -1z"/>
<path d="M4534 3049 c-15 -17 -16 -22 -4 -29 18 -11 56 22 46 39 -10 16 -21 14 -42 -10z"/>
<path d="M5255 3050 c-14 -16 -16 -23 -7 -32 10 -10 17 -7 33 9 12 11 18 26 15 32 -10 16 -21 14 -41 -9z"/>
<path d="M6996 3031 c-26 -28 -12 -41 45 -41 45 0 54 -4 98 -45 52 -49 77 -104 93 -210 14 -90 8 -256 -12 -300 -14 -34 -21 -75 -11 -75 25 0 81 110 81 161 0 21 5 41 10 44 12 8 13 209 1 233 -5 9 -14 35 -21 57 -26 86 -70 145 -137 183 -37 20 -127 16 -147 -7z"/>
<path d="M796 3011 c-25 -28 -12 -41 39 -41 24 0 47 -4 50 -10 3 -5 16 -10 29 -10 13 0 39 -17 63 -42 45 -47 55 -64 77 -129 28 -79 17 -294 -18 -347 -5 -8 -4 -18 3 -25 15 -15 51 19 51 49 0 13 5 26 10 29 6 3 10 17 10 30 0 13 5 27 10 30 6 4 10 60 10 135 0 75 -4 131 -10 135 -5 3 -10 14 -10 24 0 48 -107 171 -149 171 -11 0 -23 5 -26 10 -3 6 -32 10 -64 10 -45 0 -62 -4 -75 -19z"/>
<path d="M5880 3015 c-10 -12 -10 -18 0 -30 10 -12 37 -15 126 -15 64 0 115 -4 119 -10 3 -5 17 -10 29 -10 15 0 37 -15 60 -40 31 -34 36 -47 36 -88 0 -47 29 -112 50 -112 15 0 50 38 50 54 0 8 -4 18 -10 21 -5 3 -10 17 -10 30 0 13 -4 27 -10 30 -5 3 -10 22 -10 41 0 39 -51 103 -102 129 -44 22 -310 22 -328 0z"/>
<path d="M5200 3010 c0 -5 5 -10 10 -10 6 0 10 5 10 10 0 6 -4 10 -10 10 -5 0 -10 -4 -10 -10z"/>
<path d="M5160 2990 c0 -5 5 -10 10 -10 6 0 10 5 10 10 0 6 -4 10 -10 10 -5 0 -10 -4 -10 -10z"/>
<path d="M1904 2665 c-11 -24 -13 -39 -6 -48 22 -27 52 -89 52 -107 0 -10 4 -21 8 -24 5 -3 19 -38 32 -78 25 -78 53 -118 81 -118 25 0 42 25 31 47 -11 20 -31 68 -42 98 -4 11 -17 40 -29 63 -11 24 -21 52 -21 61 0 19 -39 100 -60 126 -19 22 -27 19 -46 -20z"/>
<path d="M6126 2609 c-15 -31 -14 -49 4 -49 12 0 41 60 34 71 -10 17 -22 9 -38 -22z"/>
<path d="M3650 2553 c-21 -8 -50 -34 -50 -45 0 -12 41 1 63 20 28 25 22 38 -13 25z"/>
<path d="M4560 2455 c-22 -23 -22 -26 -7 -43 10 -10 17 -22 17 -25 0 -4 15 -29 33 -55 18 -26 50 -76 70 -112 21 -36 56 -93 80 -127 69 -103 133 -205 162 -260 14 -28 34 -58 42 -65 10 -8 63 -16 142 -21 242 -14 236 -14 236 7 0 39 -50 54 -180 55 -123 1 -165 13 -165 45 0 7 -9 21 -20 31 -11 10 -20 23 -20 30 0 7 -9 20 -20 30 -11 10 -20 24 -20 31 0 16 -31 72 -71 131 -16 23 -29 46 -29 51 0 5 -9 17 -20 27 -11 10 -20 23 -20 30 0 7 -9 20 -20 30 -11 10 -20 23 -20 30 0 7 -9 20 -20 30 -11 10 -20 25 -20 34 0 9 -9 22 -20 29 -11 7 -20 20 -20 29 0 18 -46 83 -59 83 -4 0 -18 -11 -31 -25z"/>
<path d="M3210 2445 c-19 -20 -21 -27 -10 -40 7 -8 22 -15 34 -15 21 0 76 -47 76 -65 0 -5 6 -16 14 -24 18 -20 126 -232 126 -247 0 -14 38 -87 72 -139 27 -42 57 -71 95 -92 27 -16 209 -18 218 -3 3 6 16 10 29 10 21 0 66 37 66 54 0 5 -19 5 -42 1 -104 -16 -189 -17 -221 -1 -39 18 -88 70 -106 111 -7 17 -18 39 -24 50 -6 11 -23 44 -39 74 -15 29 -28 59 -28 65 0 15 -43 101 -62 124 -8 9 -20 31 -28 47 -8 17 -32 49 -54 73 -47 49 -81 55 -116 17z"/>
<path d="M5887 2411 c-39 -26 -41 -29 -27 -46 9 -10 31 -15 71 -15 57 0 84 -9 123 -40 24 -20 56 -83 56 -112 1 -26 32 -68 51 -68 33 0 43 57 19 115 -46 114 -72 139 -181 174 -48 15 -79 13 -112 -8z"/>
<path d="M4500 2410 c0 -5 5 -10 10 -10 6 0 10 5 10 10 0 6 -4 10 -10 10 -5 0 -10 -4 -10 -10z"/>
<path d="M7383 2270 c-25 -10 -32 -40 -10 -40 14 0 47 31 47 43 0 9 -9 8 -37 -3z"/>
<path d="M770 2225 l-23 -25 18 -20 c33 -36 75 -50 151 -50 40 0 76 5 79 10 3 6 14 10 24 10 22 0 116 47 132 66 19 23 3 28 -32 10 -18 -9 -40 -16 -50 -16 -10 0 -21 -4 -24 -10 -3 -5 -39 -10 -80 -10 -41 0 -77 5 -80 10 -3 6 -14 10 -24 10 -10 0 -26 9 -36 20 -23 25 -27 25 -55 -5z"/>
<path d="M6960 2235 c-11 -13 -9 -20 10 -40 13 -14 29 -25 36 -25 7 0 23 -24 37 -52 28 -61 147 -419 147 -443 0 -8 4 -23 9 -33 5 -9 15 -37 22 -62 7 -25 16 -49 21 -54 4 -6 8 -20 8 -32 0 -13 5 -26 10 -29 6 -3 10 -14 10 -24 0 -30 80 -184 113 -218 17 -18 39 -33 49 -33 9 0 33 -9 53 -20 50 -28 174 -29 199 -1 26 29 11 41 -50 41 -70 0 -151 25 -187 59 -31 29 -86 132 -106 201 -7 25 -22 62 -32 83 -10 22 -19 49 -19 62 0 13 -4 27 -10 30 -5 3 -10 21 -10 40 0 19 -4 37 -10 40 -5 3 -10 17 -10 30 0 13 -4 27 -10 30 -5 3 -10 17 -10 30 0 13 -4 27 -10 30 -5 3 -10 17 -10 30 0 13 -4 27 -10 30 -5 3 -10 17 -10 30 0 13 -4 27 -10 30 -5 3 -10 15 -10 26 0 19 -4 28 -28 76 -7 13 -12 29 -12 36 0 8 -11 35 -24 61 -37 72 -114 110 -146 71z"/>
<path d="M2000 2172 c-47 -2 -89 -7 -94 -12 -6 -6 -38 -10 -72 -10 -35 0 -66 -4 -69 -10 -3 -5 -16 -10 -29 -10 -26 0 -61 -34 -51 -49 8 -13 38 -14 50 -2 12 11 96 20 251 27 85 4 113 2 122 -8 23 -29 62 -168 62 -225 0 -32 5 -65 10 -73 8 -13 12 -11 27 10 42 59 56 111 33 125 -5 3 -10 24 -10 45 0 21 -4 42 -10 45 -5 3 -10 14 -10 24 0 22 -35 94 -52 108 -18 15 -60 19 -158 15z"/>
<path d="M6325 1899 c-4 -6 -5 -13 -2 -16 7 -7 27 6 27 18 0 12 -17 12 -25 -2z"/>
<path d="M4023 1858 c-13 -14 -13 -20 -3 -33 10 -12 43 -15 186 -15 104 0 175 -4 179 -10 3 -5 46 -10 96 -10 76 0 92 3 109 20 30 30 17 40 -49 40 -31 0 -61 4 -67 9 -5 6 -105 11 -222 13 -192 3 -215 1 -229 -14z"/>
<path d="M3045 1840 c-3 -5 -30 -10 -60 -10 -30 0 -57 -4 -60 -10 -9 -14 -138 -13 -153 2 -10 10 -18 6 -39 -15 l-27 -27 19 -19 c18 -16 28 -17 90 -9 39 5 144 13 235 18 91 4 182 11 202 15 42 8 63 27 54 50 -4 12 -28 15 -130 15 -72 0 -127 -4 -131 -10z"/>
<path d="M2585 1780 c-11 -5 -64 -9 -117 -9 -53 -1 -100 -5 -103 -11 -3 -5 -21 -10 -40 -10 -19 0 -37 -4 -40 -10 -3 -5 -26 -10 -50 -10 -24 0 -47 -4 -50 -10 -8 -14 -41 -13 -65 2 -17 11 -24 9 -47 -14 -23 -23 -25 -29 -13 -43 10 -13 24 -15 54 -11 81 10 116 18 122 27 3 5 25 9 49 9 24 0 47 5 50 10 4 6 53 10 116 10 60 0 117 4 127 9 9 6 29 12 45 16 29 6 35 23 15 43 -14 14 -25 14 -53 2z"/>
<path d="M5402 1778 c-44 -44 28 -88 149 -88 36 0 69 -4 75 -9 5 -5 41 -12 79 -15 115 -8 213 -26 325 -60 30 -10 69 -21 86 -27 54 -16 149 -11 167 9 30 33 21 42 -42 42 -33 0 -63 5 -66 10 -3 6 -17 10 -30 10 -13 0 -27 5 -30 10 -3 6 -21 10 -40 10 -19 0 -36 4 -39 9 -3 5 -20 11 -38 14 -18 3 -55 11 -83 17 -67 15 -171 29 -280 36 -49 3 -94 10 -99 15 -6 5 -22 9 -37 9 -15 0 -31 5 -34 10 -9 14 -48 13 -63 -2z"/>
<path d="M6490 1565 l-24 -25 21 -22 c29 -28 87 -48 145 -48 26 0 50 -4 53 -10 3 -5 17 -10 29 -10 24 0 104 -29 169 -61 22 -10 47 -19 57 -19 11 0 22 -4 25 -10 3 -5 16 -10 29 -10 12 0 27 -5 34 -12 16 -16 44 9 40 35 -3 21 -51 55 -79 56 -14 1 -78 30 -161 72 -10 5 -29 9 -42 9 -14 0 -28 5 -31 10 -3 6 -30 10 -60 10 -30 0 -57 5 -60 10 -3 6 -21 10 -39 10 -20 0 -40 8 -51 20 -23 26 -27 25 -55 -5z"/>
<path d="M725 1340 c-3 -5 -21 -10 -40 -10 -19 0 -37 -4 -40 -10 -3 -5 -15 -10 -26 -10 -23 0 -55 -17 -91 -49 -16 -14 -28 -21 -28 -16 0 4 -8 1 -17 -8 -10 -8 -21 -16 -26 -16 -18 -1 -63 -14 -72 -21 -19 -14 -64 -20 -70 -10 -4 6 -1 18 6 26 8 10 9 18 2 25 -14 14 -73 -55 -73 -85 0 -37 24 -51 62 -36 18 7 42 22 54 32 11 10 25 18 32 18 6 0 16 9 23 21 7 15 14 18 21 11 11 -11 80 17 93 38 3 5 21 10 40 10 19 0 37 5 40 10 3 6 17 10 30 10 13 0 27 5 30 10 3 6 21 10 39 10 35 0 73 31 61 49 -8 14 -42 14 -50 1z"/>
<path d="M357 1314 c-8 -8 1 -24 14 -24 5 0 9 7 9 15 0 15 -12 20 -23 9z"/>
</g>
</g>
  <g id="id10:id10" transform="matrix(1.25,0,0,1.25,0.0,0.0)"><g transform="translate(0.000000,131.200000) scale(0.040000,-0.040000)" fill="#f9fcf4" stroke="none">
<path d="M3636 1196 c-93 -35 -136 -92 -136 -178 0 -64 9 -88 48 -130 42 -45 120 -29 82 17 -10 11 -10 18 -1 29 9 11 7 21 -9 48 -29 47 -26 91 8 129 24 27 37 33 84 37 74 6 93 -7 114 -73 10 -30 20 -55 23 -55 19 1 30 23 41 83 17 92 12 96 -116 103 -73 3 -109 1 -138 -10z"/>
<path d="M4127 956 c-183 -66 -216 -332 -53 -431 43 -26 59 -30 121 -30 62 0 78 4 121 30 29 19 60 49 77 77 54 87 46 226 -17 297 -53 60 -167 86 -249 57z m129 -62 c43 -29 58 -70 58 -164 0 -60 -5 -94 -17 -117 -32 -60 -87 -79 -146 -48 -83 43 -96 256 -19 320 35 29 87 33 124 9z"/>
<path d="M4563 950 c-95 -28 -104 -39 -53 -65 l30 -16 0 -149 0 -149 -30 -16 c-60 -31 -33 -45 85 -45 118 0 145 14 85 45 l-30 16 0 150 0 149 28 11 c15 6 49 9 76 6 56 -5 86 -31 86 -76 0 -15 5 -32 12 -39 9 -9 9 -15 0 -24 -7 -7 -12 -44 -12 -95 l0 -82 -30 -16 c-60 -31 -33 -45 85 -45 120 0 149 17 80 46 l-35 14 0 83 c0 51 -5 88 -12 95 -9 9 -9 15 0 24 17 17 15 93 -3 128 -19 37 -82 70 -133 70 -21 0 -59 -10 -85 -23 l-46 -24 -18 22 -18 22 -62 -17z"/>
<path d="M3754 845 c3 -9 0 -24 -6 -35 -10 -16 -6 -25 30 -64 34 -37 42 -53 42 -84 0 -69 -56 -113 -142 -111 -83 2 -91 7 -106 82 -12 52 -19 67 -32 67 -23 0 -28 -14 -36 -103 l-7 -74 34 -12 c64 -23 180 -26 245 -5 145 45 197 201 103 309 -35 39 -64 52 -84 35 -9 -7 -15 -8 -20 0 -10 16 -28 12 -21 -5z"/>
</g>
</g>
</svg>
