<?xml version="1.0" standalone="no"?>
<!DOCTYPE svg PUBLIC "-//W3C//DTD SVG 1.1//EN"
 "http://www.w3.org/Graphics/SVG/1.1/DTD/svg11.dtd">
<!-- Created with svg_stack (http://github.com/astraw/svg_stack) -->
<svg xmlns:sodipodi="http://sodipodi.sourceforge.net/DTD/sodipodi-0.dtd" xmlns="http://www.w3.org/2000/svg" version="1.1" width="1004.0" height="670.0">
  <defs/>
  <g id="id0:id0" transform="matrix(1.25,0,0,1.25,0.0,0.0)"><g transform="translate(0.000000,536.000000) scale(0.040000,-0.040000)" fill="#000000" stroke="none">
<path d="M7186 10723 c-6 -14 -5 -15 5 -6 7 7 10 15 7 18 -3 3 -9 -2 -12 -12z"/>
<path d="M7943 5956 c-13 -6 -23 -16 -23 -23 0 -20 14 -15 40 12 25 26 20 30 -17 11z"/>
<path d="M7897 5903 c-4 -3 -7 -11 -7 -17 0 -6 5 -5 12 2 6 6 9 14 7 17 -3 3 -9 2 -12 -2z"/>
<path d="M7850 5849 c0 -5 5 -7 10 -4 6 3 10 8 10 11 0 2 -4 4 -10 4 -5 0 -10 -5 -10 -11z"/>
<path d="M4903 4093 c-49 -35 -201 -196 -270 -288 -144 -192 -167 -223 -189 -265 -13 -25 -50 -82 -83 -128 -32 -46 -64 -95 -72 -110 -7 -15 -24 -40 -37 -56 -16 -20 -20 -32 -13 -39 6 -6 12 -9 14 -6 12 13 217 318 240 357 16 26 41 61 56 77 15 17 35 42 44 57 25 40 198 237 251 286 25 24 51 40 57 37 9 -6 -16 -57 -46 -95 -27 -33 -336 -501 -389 -589 -201 -331 -264 -566 -192 -714 34 -70 72 -97 136 -97 66 0 111 29 261 165 127 115 159 138 150 105 -2 -8 -6 -46 -8 -85 -3 -55 0 -77 15 -104 40 -74 144 -93 243 -44 74 36 197 163 285 293 l71 105 64 6 c35 3 67 3 71 0 7 -6 -103 -255 -166 -379 -15 -30 -25 -57 -21 -60 11 -11 169 -21 186 -12 9 5 31 46 49 92 55 141 145 320 193 383 72 97 251 245 294 245 29 0 63 -17 63 -31 0 -5 -19 -18 -42 -28 -51 -22 -75 -47 -88 -90 -7 -26 -5 -36 11 -52 31 -31 65 -24 113 25 35 35 46 55 56 100 14 67 9 87 -33 122 -45 38 -88 29 -210 -46 -58 -36 -104 -57 -109 -52 -5 5 -12 32 -17 61 -6 39 -16 61 -39 84 -28 28 -33 29 -60 18 -30 -13 -155 -136 -223 -220 -20 -24 -38 -40 -41 -35 -3 5 0 31 7 57 40 156 -94 227 -270 142 -58 -27 -89 -52 -155 -122 -45 -48 -106 -123 -136 -167 -31 -48 -66 -89 -86 -100 -18 -10 -89 -74 -158 -141 -122 -119 -179 -161 -204 -152 -9 4 -11 24 -9 68 7 106 49 255 138 484 25 66 55 143 65 170 10 28 39 97 65 155 26 58 57 132 70 165 12 33 45 107 73 165 101 213 124 272 116 295 -9 23 -47 18 -91 -12z m512 -869 c13 -21 16 -38 10 -81 -8 -69 -31 -123 -51 -123 -25 0 -77 30 -101 59 -42 50 -20 111 55 151 50 26 67 25 87 -6z m228 -104 c-2 -46 -30 -79 -81 -97 -62 -21 -97 -15 -97 17 0 20 4 25 24 22 17 -2 39 12 78 49 29 28 59 49 66 46 7 -2 11 -19 10 -37z m-405 -75 c12 -13 38 -33 60 -44 64 -32 65 -38 21 -111 -56 -92 -128 -164 -184 -186 -49 -18 -68 -14 -89 19 -24 38 117 347 158 347 7 0 22 -11 34 -25z"/>
<path d="M4270 4028 c-181 -193 -381 -468 -726 -998 -167 -256 -300 -408 -392 -450 -47 -21 -64 -42 -44 -53 4 -3 32 4 62 16 44 16 74 39 151 117 78 78 123 138 234 306 75 115 170 259 210 319 40 61 88 135 108 165 19 30 58 87 86 125 29 39 59 83 69 98 34 56 204 267 250 310 55 53 44 9 -25 -97 -230 -354 -480 -819 -536 -997 -31 -99 -34 -169 -10 -247 30 -93 86 -133 144 -102 32 18 96 112 177 260 93 173 121 221 180 314 37 58 39 66 12 66 -11 0 -20 -5 -20 -11 0 -6 -20 -41 -44 -77 -24 -37 -64 -103 -89 -147 -26 -44 -59 -100 -74 -125 -15 -25 -32 -56 -38 -70 -14 -35 -57 -90 -66 -85 -19 12 71 280 191 570 23 55 61 147 85 205 24 58 60 143 80 190 20 47 48 112 61 145 13 33 31 74 39 90 31 64 86 225 80 235 -3 5 -22 10 -42 10 -31 0 -44 -9 -113 -82z"/>
<path d="M15227 3922 c-23 -13 -50 -63 -127 -228 -54 -116 -110 -244 -123 -283 -29 -82 -52 -121 -71 -121 -8 0 -27 7 -42 15 -64 33 -163 8 -255 -66 -127 -101 -309 -327 -351 -434 -9 -22 -19 -65 -23 -95 -6 -50 -4 -59 23 -99 37 -55 64 -70 123 -71 49 0 89 21 141 73 15 15 32 27 37 27 6 0 20 -18 31 -40 23 -46 46 -60 92 -60 70 1 160 65 277 196 91 102 129 189 79 182 -14 -2 -32 -21 -51 -53 -55 -95 -142 -164 -170 -136 -15 15 49 143 149 296 71 108 160 281 281 545 148 323 146 317 114 349 -26 26 -94 28 -134 3z m-351 -686 c10 -25 -35 -110 -180 -343 -78 -126 -163 -208 -195 -189 -35 22 -10 138 53 246 59 101 154 218 214 265 47 36 98 47 108 21z"/>
<path d="M7621 3900 c-4 -3 -16 -23 -28 -45 -25 -48 -91 -169 -247 -455 -221 -403 -265 -508 -291 -706 -13 -101 27 -171 104 -181 34 -5 48 0 91 27 28 18 76 61 106 96 63 72 87 76 49 8 -26 -46 -31 -69 -17 -78 9 -5 169 18 194 29 10 4 64 100 120 213 105 210 200 374 247 425 40 44 57 50 86 31 21 -14 25 -24 25 -63 0 -75 -25 -144 -120 -327 -107 -206 -120 -247 -94 -301 11 -21 32 -44 49 -52 39 -19 125 -18 199 2 52 14 69 26 137 93 67 66 79 75 84 58 45 -147 174 -177 294 -69 39 36 61 39 61 9 0 -9 13 -29 29 -45 35 -35 76 -38 140 -9 110 50 276 219 300 305 14 52 14 55 -6 55 -11 0 -32 -23 -53 -56 -41 -65 -124 -144 -151 -144 -11 0 -22 7 -25 15 -7 17 50 126 135 258 108 171 166 288 156 315 -7 18 -136 16 -161 -3 -25 -19 -49 -19 -80 1 -36 24 -128 14 -196 -22 -114 -62 -309 -278 -388 -430 -51 -98 -105 -150 -189 -183 -62 -25 -129 -28 -137 -6 -4 9 35 99 90 208 109 217 135 299 117 364 -6 22 -20 52 -30 65 -18 22 -25 23 -115 21 -52 -2 -97 1 -100 6 -3 5 23 69 58 142 155 326 176 373 176 400 l0 29 -65 0 c-123 0 -109 19 -356 -467 -289 -568 -253 -508 -384 -637 -65 -64 -125 -116 -135 -116 -27 0 -50 33 -50 72 0 62 25 121 157 369 72 134 146 276 166 314 49 98 57 104 152 107 72 3 80 5 80 23 0 17 -8 20 -53 23 -33 2 -55 8 -58 17 -3 7 25 74 62 149 38 74 65 139 60 143 -8 9 -183 11 -195 3z m1338 -708 c-14 -37 -143 -254 -197 -332 -58 -84 -131 -160 -154 -160 -59 0 -38 122 45 266 54 93 209 264 257 283 36 14 63 -19 49 -57z"/>
<path d="M16148 3359 c-10 -5 -29 -29 -43 -52 -13 -24 -94 -111 -180 -195 -85 -83 -155 -158 -155 -166 0 -36 27 -20 131 81 61 59 118 108 128 108 13 0 16 -15 19 -94 2 -75 -2 -115 -24 -200 -46 -184 -113 -271 -208 -271 -51 0 -52 15 -6 58 36 35 39 43 34 73 -10 57 -25 78 -61 85 -130 24 -190 -117 -91 -213 59 -57 143 -77 252 -58 111 18 244 129 303 253 32 65 35 79 31 140 -2 42 -11 82 -24 107 -45 86 -87 161 -100 180 -22 31 -16 69 17 115 24 34 28 44 17 51 -16 11 -19 11 -40 -2z"/>
<path d="M9394 3330 c-58 -37 -234 -224 -234 -249 0 -24 35 -9 82 35 40 38 52 44 64 33 20 -16 16 -26 -86 -234 -154 -314 -181 -375 -175 -386 5 -7 43 -8 113 -4 92 6 110 10 127 29 19 21 38 65 105 246 58 155 105 241 176 320 37 41 83 86 101 98 l35 24 20 -19 c18 -16 20 -26 14 -85 -7 -78 -20 -114 -110 -300 -51 -105 -66 -147 -66 -181 0 -84 56 -123 168 -115 103 8 157 37 252 133 105 108 99 135 -13 54 -46 -34 -126 -62 -163 -57 -55 6 -52 25 25 183 78 159 116 278 107 329 -20 105 -108 139 -231 90 -19 -8 -85 -49 -126 -79 -38 -27 -42 -28 -54 -12 -7 10 -15 39 -19 66 -10 75 -62 113 -112 81z"/>
<path d="M13125 3332 c-42 -26 -183 -179 -206 -224 -28 -55 -8 -54 51 4 l52 52 14 -19 c18 -25 15 -33 -70 -200 -48 -95 -79 -144 -97 -155 -15 -8 -42 -27 -60 -42 -103 -81 -229 -103 -229 -40 0 8 31 81 70 161 109 231 124 331 59 392 -63 59 -162 44 -276 -43 -36 -27 -72 -48 -80 -46 -8 2 -21 21 -29 43 -15 46 -33 61 -88 76 -46 13 -119 -3 -152 -32 -11 -11 -24 -19 -30 -19 -5 0 -32 -16 -61 -36 -63 -43 -78 -38 -86 32 -10 89 -67 126 -133 85 -44 -27 -204 -216 -204 -240 0 -32 14 -26 68 31 53 55 72 57 72 5 0 -62 -62 -106 -148 -107 -33 0 -37 22 -17 106 22 92 15 137 -28 177 l-31 29 -81 -4 c-73 -3 -86 -7 -145 -43 -100 -61 -224 -194 -300 -322 -11 -18 -34 -39 -53 -46 -20 -9 -60 -47 -100 -95 -100 -121 -191 -182 -271 -182 -59 0 -69 33 -40 131 36 124 173 351 255 421 51 45 111 65 129 43 7 -8 -3 -20 -33 -42 -24 -16 -51 -46 -61 -66 -15 -33 -15 -39 -2 -66 9 -16 23 -31 32 -35 43 -17 136 85 149 164 22 132 -123 183 -289 101 -205 -101 -396 -398 -396 -617 0 -84 26 -123 100 -147 51 -16 60 -16 122 -3 37 9 87 25 110 37 49 25 190 163 234 228 27 42 55 55 44 21 -3 -8 -5 -56 -5 -107 0 -81 2 -94 23 -116 57 -61 164 -62 262 -1 83 51 244 237 300 345 l19 37 63 4 c35 3 67 2 72 -3 10 -9 -10 -56 -111 -267 -35 -74 -63 -141 -61 -150 3 -15 17 -17 108 -14 93 2 107 5 127 25 12 12 42 82 68 162 26 77 68 183 94 235 39 82 60 109 144 193 l98 99 22 -15 c20 -13 22 -23 20 -86 -2 -76 -11 -103 -127 -363 -56 -127 -81 -214 -69 -244 5 -13 21 -15 107 -11 l101 4 1 59 c1 66 77 284 141 407 35 67 127 171 190 215 68 48 94 -21 57 -149 -8 -30 -48 -121 -87 -203 -57 -120 -71 -158 -71 -198 -1 -45 3 -53 36 -84 36 -32 42 -34 111 -34 100 0 193 44 262 123 75 87 79 65 13 -71 -16 -35 -27 -66 -23 -70 11 -12 159 -20 181 -10 14 7 36 48 69 126 64 155 144 306 197 371 64 79 222 209 264 217 73 14 86 -25 20 -60 -43 -23 -72 -57 -81 -97 -6 -23 -1 -30 30 -49 33 -20 37 -21 60 -6 36 24 39 3 5 -40 -17 -21 -51 -78 -75 -127 -37 -73 -45 -99 -45 -144 0 -64 18 -103 63 -137 62 -47 143 -33 214 36 36 35 44 39 58 28 8 -7 15 -19 15 -27 0 -8 12 -25 26 -38 34 -32 91 -33 150 -4 103 49 304 277 304 344 0 32 -31 12 -80 -52 -76 -101 -154 -157 -175 -123 -8 12 58 135 139 260 36 55 89 145 116 201 62 123 60 133 -39 126 -36 -2 -81 -10 -98 -17 -29 -13 -36 -12 -62 3 -83 49 -216 -7 -355 -151 -64 -65 -99 -85 -77 -44 5 9 11 37 15 62 7 53 -17 103 -60 122 -35 16 -105 -8 -207 -73 -42 -28 -81 -48 -85 -45 -5 3 -14 31 -21 62 -9 38 -23 67 -41 86 -34 33 -36 33 -75 10z m-1645 -108 c26 -25 12 -160 -20 -189 -27 -24 -81 -4 -120 43 -37 44 -34 71 13 121 50 52 90 60 127 25z m2558 -1 c7 -49 -189 -372 -292 -480 -42 -45 -65 -53 -86 -28 -55 66 130 395 284 507 47 34 89 35 94 1z m-2726 -189 c22 -20 55 -42 74 -50 21 -9 34 -21 34 -32 0 -23 -68 -123 -123 -180 -91 -95 -187 -110 -187 -29 0 62 128 327 158 327 2 0 22 -16 44 -36z"/>
<path d="M6519 3306 c-70 -19 -136 -66 -229 -164 -126 -132 -187 -240 -216 -386 -20 -104 -10 -157 40 -203 45 -43 98 -55 177 -42 72 13 106 31 190 101 78 64 229 255 229 288 0 26 -32 1 -109 -83 -133 -146 -209 -196 -282 -185 -37 5 -55 47 -41 95 18 60 31 71 127 105 173 61 294 159 332 271 20 57 8 150 -24 188 -23 26 -30 29 -86 28 -34 0 -83 -6 -108 -13z m136 -80 c36 -54 -38 -196 -146 -281 -64 -50 -154 -91 -164 -75 -21 33 167 317 239 361 41 25 52 24 71 -5z"/>
<path d="M15441 3279 c-157 -78 -320 -280 -376 -464 -35 -118 -28 -220 18 -263 13 -12 49 -29 80 -37 51 -13 63 -13 119 1 119 30 245 135 352 293 44 65 57 101 36 101 -6 0 -20 -12 -33 -27 -65 -80 -188 -199 -232 -224 -56 -32 -124 -39 -145 -14 -25 30 5 140 42 154 13 5 55 21 93 35 95 37 197 98 246 149 59 60 79 108 79 194 0 67 -2 75 -31 108 l-31 35 -68 0 c-59 0 -78 -5 -149 -41z m197 -81 c5 -63 -40 -148 -117 -221 -70 -66 -176 -126 -194 -108 -23 23 106 237 196 324 41 40 55 48 81 45 28 -3 31 -7 34 -40z"/>
<path d="M2965 2974 c-87 -45 -129 -123 -128 -235 1 -70 4 -82 33 -123 22 -33 45 -52 80 -67 58 -25 64 -25 68 -5 2 10 -4 16 -17 16 -11 0 -36 14 -56 31 -29 26 -35 38 -35 70 0 34 5 42 33 59 17 11 62 30 99 41 81 25 118 61 118 116 0 44 -32 99 -63 107 -40 11 -101 6 -132 -10z"/>
</g>
</g>
  <g id="id1:id1" transform="matrix(1.25,0,0,1.25,0.0,0.0)"><g transform="translate(0.000000,536.000000) scale(0.040000,-0.040000)" fill="#fa4a0e" stroke="none">
<path d="M8575 12004 c-67 -6 -177 -25 -235 -41 -144 -41 -194 -60 -312 -119 -111 -55 -149 -78 -258 -151 -14 -9 -76 -66 -139 -127 -89 -87 -133 -140 -203 -246 -77 -116 -188 -323 -188 -350 0 -5 -13 -42 -30 -83 -16 -41 -36 -102 -44 -136 -20 -86 -3 -90 72 -19 105 99 225 191 442 338 112 76 376 207 520 258 259 91 350 107 605 107 206 -1 261 -9 411 -60 223 -76 370 -171 547 -352 137 -139 205 -228 307 -399 65 -110 188 -365 215 -447 8 -23 28 -80 45 -127 17 -47 36 -100 41 -118 13 -41 33 -50 69 -29 33 20 138 57 245 88 73 21 100 23 320 24 l240 0 115 -28 c146 -36 275 -79 354 -119 395 -199 648 -435 797 -744 32 -68 59 -128 59 -136 0 -7 10 -42 22 -78 19 -57 22 -88 22 -245 l1 -180 -34 -100 c-18 -55 -53 -136 -77 -180 -41 -76 -62 -107 -160 -236 -43 -57 -138 -149 -202 -196 -20 -15 -59 -45 -87 -68 -51 -42 -236 -161 -290 -187 -114 -56 -529 -173 -785 -222 -246 -48 -510 -94 -595 -106 -38 -5 -121 -16 -183 -25 -63 -9 -120 -14 -128 -11 -8 3 -57 72 -110 153 -53 81 -134 204 -179 273 -45 69 -107 163 -137 210 -30 47 -120 184 -200 306 -175 266 -201 310 -193 324 6 10 60 42 280 165 241 135 456 256 562 317 56 32 106 58 111 58 4 0 23 13 42 28 42 36 36 56 -24 83 -24 10 -106 52 -182 92 -77 41 -224 118 -329 172 -104 54 -237 123 -295 155 -58 31 -152 80 -210 109 -121 60 -119 61 -230 -14 -70 -46 -220 -142 -297 -189 -27 -16 -84 -53 -128 -81 -44 -28 -124 -78 -177 -111 -54 -32 -167 -104 -252 -159 -85 -55 -176 -112 -203 -128 -53 -31 -58 -33 -319 -202 -102 -66 -208 -134 -237 -152 -29 -17 -61 -41 -72 -53 l-19 -21 33 -62 c19 -34 42 -71 51 -82 9 -11 88 -132 175 -270 87 -137 186 -295 221 -350 34 -55 71 -113 81 -130 39 -65 45 -62 303 111 427 286 514 344 521 344 13 0 65 -74 136 -190 70 -117 179 -293 240 -387 18 -29 33 -56 33 -61 0 -4 12 -24 26 -43 14 -19 62 -94 106 -167 67 -112 78 -136 67 -147 -9 -8 -72 -17 -164 -24 -82 -7 -204 -19 -270 -26 -66 -8 -142 -15 -170 -15 -91 0 -120 -15 -209 -106 l-83 -84 -100 0 -101 0 -68 -72 c-101 -109 -101 -109 -221 -106 -56 1 -104 0 -106 -2 -3 -3 -17 -36 -32 -75 -50 -126 -104 -204 -220 -321 -113 -114 -201 -184 -467 -374 -194 -137 -331 -265 -423 -394 -70 -98 -99 -156 -114 -224 -38 -181 24 -322 174 -393 50 -24 73 -29 137 -29 95 0 140 16 233 86 109 80 305 294 405 441 8 12 42 56 75 98 33 43 89 117 125 165 168 227 247 309 378 397 86 57 118 72 194 88 15 3 35 17 44 31 14 21 15 31 5 63 -16 54 -14 75 9 96 22 20 260 105 378 136 41 10 77 21 82 24 10 6 132 38 230 60 36 8 103 24 150 35 111 26 363 70 400 70 36 0 57 -27 181 -235 49 -82 117 -193 151 -245 33 -52 70 -113 82 -135 21 -40 48 -84 154 -248 29 -45 65 -104 79 -132 14 -27 38 -68 53 -90 15 -22 51 -78 80 -125 30 -47 72 -114 95 -150 55 -85 231 -375 309 -507 l25 -42 33 11 c18 6 45 20 60 30 15 11 76 44 135 75 60 30 131 68 158 84 28 17 102 58 165 92 92 50 115 66 114 83 0 12 -56 106 -124 210 -371 565 -592 904 -745 1139 -42 66 -97 149 -122 185 -24 36 -45 79 -46 95 l-2 29 95 12 c196 23 425 54 438 59 7 2 52 9 100 15 93 11 220 33 317 55 33 8 80 17 105 20 25 4 72 14 105 24 33 10 98 29 145 41 200 55 460 165 626 265 458 277 796 755 853 1210 27 209 8 483 -45 655 -14 47 -30 101 -36 120 -19 65 -126 278 -183 366 -212 325 -552 598 -914 734 -244 91 -399 120 -649 120 -240 0 -424 -32 -615 -108 -59 -23 -92 -31 -99 -24 -5 5 -14 58 -19 118 -22 255 -132 547 -300 798 -79 117 -266 317 -373 397 -310 232 -635 367 -957 398 -105 10 -295 12 -394 5z"/>
<path d="M16360 4456 c-130 -38 -184 -83 -241 -200 l-39 -80 0 -96 c0 -123 23 -193 152 -465 94 -198 125 -275 149 -368 15 -59 33 -80 57 -67 99 54 212 93 437 151 369 95 493 168 559 334 71 176 -14 385 -189 465 -118 54 -191 62 -300 34 -99 -25 -83 -34 -136 79 -39 84 -107 145 -210 188 -86 35 -173 45 -239 25z"/>
</g>
</g>
  <g id="id2:id2" transform="matrix(1.25,0,0,1.25,0.0,0.0)"><g transform="translate(0.000000,536.000000) scale(0.040000,-0.040000)" fill="#ffffff" stroke="none">
<path d="M0 6700 l0 -6700 10040 0 10040 0 0 6700 0 6700 -10040 0 -10040 0 0 -6700z m8975 5279 c438 -44 894 -287 1194 -635 44 -51 85 -102 91 -115 7 -13 26 -41 42 -62 47 -59 172 -314 201 -407 55 -180 66 -229 76 -344 7 -65 16 -127 22 -138 12 -23 28 -21 134 21 308 120 729 140 1040 50 183 -54 291 -95 405 -157 570 -306 941 -863 977 -1467 5 -90 0 -157 -27 -365 -14 -113 -101 -338 -186 -480 -122 -205 -290 -392 -479 -534 -132 -99 -213 -147 -365 -220 -177 -84 -533 -201 -670 -221 -25 -3 -59 -11 -77 -16 -50 -16 -363 -66 -588 -94 -66 -8 -146 -19 -177 -25 -31 -6 -93 -13 -137 -17 -61 -4 -85 -11 -98 -25 -16 -17 -15 -21 7 -61 13 -23 42 -68 64 -99 23 -32 57 -84 77 -115 20 -32 93 -146 163 -253 236 -360 281 -428 390 -597 61 -92 161 -246 224 -342 63 -95 115 -180 116 -188 1 -9 -34 -35 -89 -66 -49 -27 -119 -67 -155 -87 -36 -21 -117 -65 -180 -97 -63 -33 -131 -69 -150 -81 -51 -32 -65 -28 -95 26 -39 67 -209 343 -266 432 -26 41 -70 112 -96 156 -26 45 -69 114 -95 152 -26 39 -55 86 -64 104 -9 18 -58 97 -108 175 -50 79 -102 162 -115 185 -26 46 -103 171 -156 253 -18 28 -75 121 -126 208 -52 87 -102 167 -111 177 -19 20 -38 20 -148 -1 -30 -6 -77 -15 -105 -20 -143 -27 -489 -108 -600 -141 -172 -51 -411 -134 -439 -153 l-31 -21 3 -69 c3 -75 -12 -105 -54 -105 -31 0 -136 -57 -209 -112 -98 -75 -247 -238 -373 -406 -361 -486 -437 -573 -593 -683 -81 -58 -114 -69 -207 -69 -62 0 -85 5 -138 30 -145 70 -197 215 -145 405 10 37 35 82 105 187 73 108 253 270 476 427 58 41 119 85 135 98 17 13 55 42 85 65 98 74 251 221 295 283 44 62 109 184 130 244 l11 34 113 1 113 1 83 88 82 87 94 0 c111 0 118 4 217 108 60 63 72 71 112 76 110 12 377 37 510 47 160 13 190 20 190 46 0 18 -119 223 -177 304 -18 26 -33 50 -33 54 0 3 -15 30 -34 58 -18 29 -40 64 -47 78 -8 14 -47 77 -87 140 -40 63 -95 152 -123 199 -87 145 -112 180 -129 180 -9 0 -73 -38 -141 -83 -458 -308 -624 -417 -634 -417 -15 0 -49 37 -68 75 -8 17 -35 60 -59 96 -23 37 -58 91 -77 120 -186 295 -231 365 -280 439 -31 47 -58 90 -60 95 -2 6 -15 27 -29 49 l-26 38 36 32 c20 17 72 54 117 81 45 28 130 82 190 120 216 139 307 196 361 229 30 18 134 83 230 144 289 184 361 230 445 281 107 66 232 146 319 204 48 32 81 47 103 47 29 0 243 -102 423 -202 25 -14 160 -85 300 -158 246 -128 416 -217 433 -227 13 -8 -12 -31 -67 -61 -229 -128 -385 -216 -405 -229 -14 -9 -68 -39 -120 -68 -257 -140 -407 -227 -419 -242 -6 -9 -9 -26 -6 -37 4 -11 72 -119 152 -241 79 -121 170 -258 200 -305 30 -47 105 -161 167 -255 234 -357 263 -402 279 -433 15 -28 21 -32 59 -32 23 0 78 7 122 15 44 9 127 22 185 30 58 7 157 23 220 35 266 48 330 60 427 79 56 11 106 22 111 25 5 3 40 12 78 20 198 44 483 137 569 185 78 44 243 156 320 217 154 122 298 288 390 450 161 282 164 645 9 956 -96 193 -282 413 -440 522 -17 11 -67 46 -110 76 -111 76 -321 180 -439 217 -228 71 -278 78 -530 77 -202 0 -240 -3 -316 -22 -91 -23 -166 -50 -237 -84 -25 -13 -46 -17 -51 -12 -5 5 -22 50 -39 99 -54 157 -98 266 -164 405 -123 256 -245 437 -418 614 -125 128 -258 227 -401 296 -96 46 -278 104 -377 119 -163 25 -418 8 -607 -40 -74 -19 -114 -32 -270 -89 -80 -29 -407 -195 -442 -224 -16 -12 -71 -51 -123 -87 -90 -60 -343 -259 -355 -280 -4 -5 -10 -7 -15 -4 -8 5 -5 34 8 65 3 8 11 33 18 55 46 149 128 317 228 470 73 110 220 276 292 328 22 15 63 46 92 67 73 54 333 183 412 205 36 9 85 23 110 30 68 20 104 26 235 41 124 13 200 12 390 -7z m7590 -7556 c113 -34 202 -115 244 -222 33 -83 39 -87 103 -65 36 13 82 19 143 19 78 0 99 -4 160 -30 231 -99 300 -382 136 -559 -95 -102 -194 -147 -486 -220 -157 -39 -291 -81 -379 -121 -35 -16 -63 -22 -68 -17 -5 5 -16 35 -24 66 -18 69 -78 209 -172 406 -99 205 -114 254 -120 383 l-4 107 35 74 c60 126 136 181 272 196 67 7 88 5 160 -17z m-12160 -342 c3 -5 1 -12 -5 -16 -5 -3 -10 -15 -10 -26 0 -10 -4 -27 -10 -37 -5 -9 -19 -42 -31 -72 -39 -102 -77 -194 -114 -280 -177 -404 -314 -762 -356 -924 -18 -72 -19 -80 -4 -96 15 -16 14 -20 -10 -49 -49 -57 -107 -33 -140 58 -31 89 -12 216 54 364 62 138 75 164 155 310 93 171 255 446 326 552 25 39 59 94 76 123 27 50 28 54 11 63 -14 8 -16 14 -6 25 13 16 55 19 64 5z m553 -6 c-3 -14 -67 -35 -73 -24 -7 10 45 39 63 36 7 -1 12 -6 10 -12z m-34 -116 c-3 -5 -10 -7 -15 -3 -5 3 -7 10 -3 15 3 5 10 7 15 3 5 -3 7 -10 3 -15z m-66 -147 c-28 -59 -65 -145 -83 -192 -18 -47 -49 -119 -69 -161 -19 -42 -47 -107 -61 -145 -14 -38 -42 -112 -61 -164 -96 -258 -134 -396 -134 -492 0 -59 3 -69 22 -79 l22 -12 -19 -13 c-10 -8 -41 -14 -68 -14 -42 0 -54 5 -82 33 -120 120 -63 389 158 753 91 151 355 544 389 581 41 44 36 11 -14 -95z m10490 96 c18 -18 15 -40 -17 -109 -16 -35 -64 -140 -106 -234 -123 -270 -202 -421 -283 -545 -77 -117 -152 -261 -152 -291 0 -9 6 -22 14 -28 23 -20 75 9 138 77 71 77 86 65 19 -15 -102 -123 -212 -203 -278 -203 -48 0 -60 8 -83 56 -27 54 -45 56 -91 8 -18 -20 -46 -42 -61 -50 -35 -18 -108 -18 -135 1 -32 23 -63 78 -63 114 0 50 36 145 85 219 85 133 271 324 358 369 34 17 150 23 155 8 1 -5 -8 -11 -22 -13 -58 -7 -230 -204 -304 -347 -71 -137 -73 -245 -5 -245 32 0 119 89 178 179 151 236 210 349 200 382 -5 14 0 22 19 29 29 11 45 39 85 148 43 115 201 454 224 480 16 17 31 22 67 22 25 0 51 -5 58 -12z m-7555 -24 c3 -3 -24 -64 -59 -135 -41 -81 -64 -139 -62 -154 2 -20 -4 -29 -32 -43 -25 -12 -43 -33 -65 -77 -17 -33 -96 -184 -177 -335 -87 -164 -151 -296 -158 -328 -16 -71 -7 -116 31 -142 l29 -22 38 33 c20 17 66 61 102 98 36 36 77 73 91 83 17 11 68 101 164 290 76 150 168 332 205 403 169 327 161 317 249 323 49 4 62 1 67 -12 6 -16 -65 -178 -182 -415 -38 -76 -59 -130 -54 -136 5 -7 -4 -26 -26 -50 -68 -79 -149 -214 -255 -426 -60 -119 -115 -222 -123 -228 -14 -12 -162 -32 -171 -23 -2 2 14 40 35 83 55 108 36 114 -54 18 -95 -101 -170 -159 -206 -159 -49 0 -80 18 -95 55 -19 44 -19 87 1 183 36 177 87 286 368 797 177 321 172 313 209 318 55 7 123 7 130 1z m-1994 -580 c12 -15 21 -40 21 -56 0 -38 26 -98 42 -98 7 0 48 23 91 50 143 91 178 100 223 55 33 -33 21 -52 -16 -25 -35 25 -61 25 -108 1 -52 -27 -205 -162 -256 -228 -47 -59 -145 -249 -196 -378 -44 -110 -42 -108 -120 -100 -36 4 -68 10 -72 14 -7 6 136 329 178 404 9 15 13 35 10 43 -3 8 1 17 10 21 8 3 24 24 36 47 34 67 23 159 -16 127 -8 -7 -17 -8 -19 -4 -13 21 125 153 159 153 7 0 22 -12 33 -26z m3660 7 c17 -17 41 -97 41 -136 0 -13 28 -27 46 -24 26 4 22 -6 -20 -52 -60 -67 -115 -181 -201 -424 -10 -27 -26 -66 -36 -86 l-18 -36 -92 -8 c-52 -4 -95 -3 -100 2 -12 12 -2 36 137 320 115 236 135 297 99 308 -8 3 -23 7 -32 10 -13 5 -7 16 33 57 46 47 100 88 117 88 4 0 16 -9 26 -19z m2391 9 c20 -11 35 -49 45 -117 5 -35 11 -43 37 -52 l31 -11 -41 -44 c-62 -67 -133 -218 -194 -406 -11 -36 -28 -81 -39 -101 -17 -34 -21 -36 -80 -43 -87 -9 -127 -8 -134 4 -3 6 35 96 84 201 50 105 91 201 91 215 0 13 13 38 29 56 37 43 51 71 51 102 0 37 -10 56 -30 56 -11 0 -21 4 -24 8 -8 14 127 139 152 142 2 0 12 -4 22 -10z m1339 -9 c18 -18 27 -42 45 -124 4 -15 13 -30 21 -33 8 -4 51 17 96 46 141 90 181 99 224 48 23 -28 26 -37 20 -77 -8 -54 -46 -117 -80 -133 -37 -17 -79 4 -70 35 9 27 54 77 71 77 6 0 22 8 34 18 18 14 21 25 16 45 -13 55 -89 44 -179 -25 -73 -57 -173 -155 -207 -203 -32 -47 -120 -218 -149 -290 -43 -110 -73 -164 -93 -171 -24 -7 -126 4 -133 16 -6 10 66 170 172 382 67 133 83 175 83 210 0 52 -6 61 -31 48 -59 -32 9 67 84 121 47 34 51 35 76 10z m-4976 -33 c28 -37 33 -105 12 -169 -16 -48 -62 -145 -164 -344 -39 -77 -41 -122 -5 -131 38 -10 95 1 153 28 28 14 54 22 56 18 3 -5 -25 -35 -61 -68 -58 -53 -74 -61 -139 -77 -93 -22 -148 -14 -188 27 -26 26 -29 34 -23 71 3 23 51 132 106 242 54 110 104 221 109 247 17 74 14 119 -10 145 -24 25 -24 25 41 41 49 12 90 1 113 -30z m-2783 7 c17 -9 31 -23 32 -33 2 -25 4 -35 13 -55 4 -10 2 -23 -5 -32 -7 -8 -9 -15 -6 -15 4 0 4 -5 1 -10 -4 -6 -11 -8 -16 -4 -5 3 -6 11 -2 17 14 22 7 54 -19 87 -24 30 -29 32 -64 25 -27 -5 -53 -21 -87 -55 -43 -44 -48 -53 -45 -87 l3 -37 -30 -1 c-27 0 -35 -8 -73 -75 -23 -41 -58 -116 -78 -167 -41 -101 -40 -132 1 -159 38 -25 107 -2 167 53 78 74 62 32 -22 -54 -96 -99 -158 -133 -243 -133 -54 0 -62 3 -94 35 l-35 35 6 88 c10 142 10 140 -23 123 -11 -6 -22 -7 -25 -2 -3 5 18 24 47 42 31 20 65 54 84 84 149 230 290 345 425 345 33 0 72 -7 88 -15z m1275 -22 c18 -27 25 -51 25 -86 0 -95 -56 -177 -177 -256 -78 -51 -123 -60 -62 -12 120 92 178 176 186 269 5 56 4 61 -20 76 -35 23 -67 13 -120 -40 -87 -85 -224 -315 -213 -356 3 -15 -4 -32 -24 -55 -51 -57 -60 -132 -22 -175 38 -44 154 -5 248 84 29 27 55 45 58 40 9 -15 -165 -175 -209 -193 -74 -31 -140 -41 -181 -30 -107 29 -135 104 -95 256 36 139 96 241 211 354 132 130 188 159 312 160 l57 1 26 -37z m2238 22 c-1 -5 -16 -13 -33 -18 -20 -5 -64 -40 -120 -96 -196 -196 -303 -476 -186 -489 48 -6 118 77 258 303 95 155 118 201 118 238 0 32 4 37 43 56 40 19 135 29 149 16 7 -7 -31 -102 -55 -138 -9 -15 -17 -29 -17 -32 0 -3 -36 -62 -80 -131 -108 -168 -148 -249 -134 -272 19 -30 57 -26 107 12 77 59 62 22 -22 -55 -90 -83 -151 -119 -198 -119 -49 0 -64 10 -84 56 -10 25 -25 44 -34 44 -8 0 -34 -17 -58 -39 -56 -51 -77 -61 -133 -61 -41 0 -51 5 -86 40 -33 33 -39 45 -35 68 6 31 -5 58 -21 48 -20 -12 -21 11 -2 29 11 10 40 55 64 101 105 198 321 415 441 445 41 10 120 6 118 -6z m1978 -14 c26 -26 28 -35 24 -76 -8 -82 -79 -173 -123 -158 -23 9 -34 41 -21 66 18 36 61 77 80 77 10 0 25 7 34 16 15 15 14 18 -7 41 -19 20 -28 23 -63 17 -95 -15 -214 -154 -319 -374 -67 -139 -80 -236 -36 -260 59 -32 149 3 249 96 100 93 99 60 -1 -40 -90 -89 -129 -114 -223 -141 -78 -23 -152 -9 -190 36 -47 57 -29 211 42 353 115 230 293 375 461 376 57 0 67 -3 93 -29z m590 -1 c24 -23 30 -37 27 -62 -3 -37 -21 -41 -26 -6 -5 32 -28 55 -63 62 -38 7 -76 -12 -118 -59 -29 -34 -33 -43 -35 -90 -1 -11 -8 -20 -16 -21 -8 -1 -21 -2 -27 -2 -18 -3 -154 -282 -160 -330 -14 -106 77 -121 184 -33 20 17 41 27 46 24 14 -8 -99 -120 -167 -164 -50 -33 -67 -39 -113 -39 -70 0 -120 21 -134 57 -10 26 -9 53 5 242 2 19 12 41 23 50 11 9 36 41 55 71 41 66 143 189 184 223 51 41 125 89 152 97 15 5 55 9 90 9 58 1 66 -2 93 -29z m2504 20 c3 -6 -13 -19 -37 -29 -24 -11 -72 -49 -109 -88 -164 -169 -273 -395 -225 -468 46 -70 116 -5 287 265 85 136 129 225 129 262 0 22 8 32 40 48 38 19 138 28 153 14 4 -4 0 -19 -8 -33 -8 -14 -26 -51 -40 -82 -14 -32 -56 -104 -94 -160 -37 -57 -89 -143 -115 -192 -38 -71 -45 -91 -36 -107 21 -38 67 -23 141 47 20 19 39 31 42 26 10 -16 -166 -188 -215 -211 -55 -27 -119 -29 -140 -4 -9 9 -20 31 -25 47 -14 44 -39 43 -87 -3 -54 -52 -75 -62 -134 -62 -45 0 -53 4 -86 40 -33 36 -36 45 -36 98 0 49 7 73 45 148 61 121 109 186 213 286 97 93 150 133 209 154 45 16 119 18 128 4z m1656 -16 c29 -30 40 -88 27 -148 -19 -84 -74 -150 -180 -214 -60 -37 -52 -9 15 50 71 63 115 140 124 218 7 61 -6 80 -56 80 -31 0 -44 -8 -92 -57 -99 -103 -209 -285 -209 -347 0 -13 -9 -31 -20 -41 -11 -10 -27 -41 -35 -68 -32 -108 -14 -141 75 -135 64 5 121 38 206 120 77 74 73 42 -4 -39 -145 -152 -285 -201 -407 -142 -65 31 -71 165 -16 304 69 172 217 345 352 410 66 32 81 36 137 33 46 -3 68 -9 83 -24z m-5784 -29 c54 -62 37 -153 -68 -373 -85 -178 -87 -185 -58 -206 30 -20 76 -20 124 0 56 23 63 4 16 -39 -47 -42 -121 -67 -202 -67 -47 0 -63 5 -88 26 -51 42 -44 92 30 244 111 227 138 325 105 388 l-16 32 32 15 c45 20 98 12 125 -20z m2388 11 c13 -9 30 -34 36 -57 9 -27 21 -44 37 -50 l23 -9 -34 -40 c-19 -23 -49 -68 -67 -101 -47 -90 -141 -348 -144 -399 -2 -41 -5 -46 -32 -51 -58 -13 -134 -10 -140 5 -9 22 20 111 77 237 90 201 120 282 126 347 5 56 4 65 -17 87 -25 26 -21 39 15 48 32 9 94 0 120 -17z m427 -15 c52 -58 33 -152 -72 -375 -76 -160 -81 -179 -46 -201 32 -21 89 -16 145 13 22 12 42 18 45 15 14 -14 -41 -65 -106 -97 -61 -31 -81 -36 -140 -36 -80 0 -102 9 -124 52 -23 45 -14 81 60 237 77 163 96 217 103 293 4 43 2 64 -11 82 -9 14 -16 28 -16 31 0 13 48 25 90 21 34 -3 51 -11 72 -35z m3418 -5 c0 -12 13 -43 30 -69 16 -25 46 -79 67 -119 35 -67 38 -80 38 -153 0 -63 -5 -90 -23 -125 -31 -63 -101 -141 -165 -183 -64 -42 -170 -71 -201 -55 l-21 11 19 11 c40 23 98 81 122 122 68 115 110 430 65 485 l-19 23 37 42 c38 44 51 47 51 10z m-9930 -82 c0 -26 -38 -91 -64 -107 -73 -48 -113 18 -47 77 26 23 93 55 104 49 4 -2 7 -11 7 -19z m5334 -55 c-3 -5 -10 -7 -15 -3 -5 3 -7 10 -3 15 3 5 10 7 15 3 5 -3 7 -10 3 -15z m-6081 -79 c11 -22 12 -31 4 -38 -21 -16 -60 -22 -73 -11 -10 8 -6 18 19 44 18 19 33 34 34 34 1 1 8 -12 16 -29z m6066 -8 c8 -15 3 -23 -25 -46 l-34 -27 -9 23 c-8 19 -5 27 17 45 33 28 39 28 51 5z m-8394 -67 c18 -17 25 -35 25 -62 0 -58 -21 -80 -99 -103 -97 -29 -138 -59 -156 -114 -9 -30 -26 -5 -32 47 -11 96 39 206 108 240 53 26 125 22 154 -8z m2264 -31 c-6 -7 -15 -11 -21 -8 -5 3 -4 12 3 20 6 7 15 11 21 8 5 -3 4 -12 -3 -20z m6055 -25 c-3 -5 -10 -7 -15 -3 -5 3 -7 10 -3 15 3 5 10 7 15 3 5 -3 7 -10 3 -15z m-6080 -10 c-3 -5 -10 -7 -15 -3 -5 3 -7 10 -3 15 3 5 10 7 15 3 5 -3 7 -10 3 -15z m3750 -52 c-4 -7 -16 -22 -27 -34 -31 -35 -40 -16 -10 22 25 31 52 40 37 12z m2280 -8 c-3 -5 -10 -7 -15 -3 -5 3 -7 10 -3 15 3 5 10 7 15 3 5 -3 7 -10 3 -15z m2780 -10 c-3 -5 -10 -7 -15 -3 -5 3 -7 10 -3 15 3 5 10 7 15 3 5 -3 7 -10 3 -15z m-3330 -20 c-3 -5 -10 -7 -15 -3 -5 3 -7 10 -3 15 3 5 10 7 15 3 5 -3 7 -10 3 -15z m520 -10 c-9 -10 -21 -16 -26 -13 -5 3 -2 14 8 25 9 10 21 16 26 13 5 -3 2 -14 -8 -25z m-4745 -5 c-6 -7 -15 -11 -21 -8 -5 3 -4 12 3 20 6 7 15 11 21 8 5 -3 4 -12 -3 -20z m9200 -18 c7 -8 14 -29 17 -48 5 -27 1 -38 -23 -60 -15 -14 -37 -28 -48 -30 -13 -2 -20 -11 -20 -25 -1 -35 -11 -36 -38 -3 -49 57 -45 149 6 170 34 14 93 11 106 -4z m-5835 -67 c-9 -10 -21 -16 -26 -13 -5 3 -2 14 8 25 9 10 21 16 26 13 5 -3 2 -14 -8 -25z"/>
</g>
</g>
</svg>
