<?xml version="1.0" standalone="no"?>
<!DOCTYPE svg PUBLIC "-//W3C//DTD SVG 1.1//EN"
 "http://www.w3.org/Graphics/SVG/1.1/DTD/svg11.dtd">
<!-- Created with svg_stack (http://github.com/astraw/svg_stack) -->
<svg xmlns:sodipodi="http://sodipodi.sourceforge.net/DTD/sodipodi-0.dtd" xmlns="http://www.w3.org/2000/svg" version="1.1" width="1010.0" height="1066.0">
  <defs/>
  <g id="id0:id0" transform="matrix(1.25,0,0,1.25,0.0,0.0)"><g transform="translate(0.000000,852.800000) scale(0.040000,-0.040000)" fill="#005ea0" stroke="none">
<path d="M14887 18919 c-74 -74 -707 -730 -1348 -1397 -118 -123 -218 -231 -223 -240 -11 -21 -83 -97 -406 -432 -141 -146 -370 -384 -510 -529 -140 -145 -283 -289 -318 -320 -34 -31 -205 -203 -378 -383 -174 -181 -322 -328 -330 -328 -8 0 -19 9 -26 20 -18 28 -28 25 -28 -9 0 -18 13 -43 38 -72 48 -55 102 -147 347 -584 43 -77 105 -181 137 -231 103 -161 98 -165 -262 -263 -63 -17 -140 -36 -170 -41 -55 -11 -99 -34 -87 -46 4 -4 13 -2 21 5 11 10 40 -13 152 -122 77 -74 159 -151 184 -173 54 -46 557 -531 826 -796 105 -103 193 -188 196 -188 3 0 68 33 146 74 154 81 366 221 488 322 110 91 325 305 322 320 -4 17 -955 936 -1021 987 -75 58 -187 169 -187 185 0 8 15 33 32 56 36 46 447 474 832 866 138 141 359 370 491 510 132 139 382 399 555 576 173 177 392 403 485 502 94 100 174 181 179 181 5 1 109 -97 232 -216 122 -120 304 -296 405 -392 101 -96 396 -380 654 -632 259 -252 675 -655 925 -897 260 -250 456 -447 458 -459 2 -16 -94 -118 -395 -419 -342 -342 -679 -689 -1968 -2026 -130 -135 -207 -208 -220 -208 -12 0 -52 32 -99 79 -82 82 -119 103 -140 78 -6 -8 -43 -57 -82 -108 -75 -99 -433 -457 -544 -546 -36 -29 -90 -72 -120 -96 -30 -24 -56 -50 -58 -59 -2 -9 21 -36 55 -64 63 -53 523 -495 824 -791 113 -112 193 -183 205 -183 12 0 103 88 254 247 129 136 370 385 535 554 165 169 406 419 535 554 129 136 368 384 530 550 162 166 396 410 520 540 124 131 362 379 530 551 168 172 377 389 465 481 87 92 289 302 448 466 228 234 294 296 308 292 12 -4 19 -1 19 7 0 8 11 29 25 48 14 19 25 39 25 46 0 6 -244 247 -542 535 -738 713 -3754 3623 -3800 3667 l-37 35 -84 -84z"/>
<path d="M13918 9053 c-22 -6 -32 -35 -63 -188 -15 -71 -35 -168 -45 -215 -20 -93 -73 -342 -115 -540 -14 -69 -35 -165 -46 -215 -10 -49 -37 -175 -59 -280 -22 -104 -49 -230 -60 -280 -10 -49 -21 -101 -23 -115 -3 -14 -24 -113 -47 -220 -23 -107 -52 -244 -65 -305 -28 -135 -85 -398 -120 -560 -15 -66 -32 -151 -40 -190 -13 -71 -58 -283 -97 -455 -11 -52 -26 -124 -33 -160 -7 -36 -29 -141 -50 -235 -72 -331 -86 -401 -99 -470 -8 -38 -28 -135 -45 -215 -18 -80 -43 -199 -57 -265 -14 -66 -34 -158 -45 -205 -10 -47 -25 -121 -34 -165 -9 -44 -23 -109 -32 -144 -15 -61 -15 -65 3 -78 15 -11 382 -13 2091 -13 l2072 0 10 18 c5 10 19 65 30 123 12 57 30 145 41 194 30 136 76 353 110 515 17 80 42 195 55 255 13 61 29 137 36 170 6 33 20 93 30 134 14 53 16 78 9 85 -8 8 -322 13 -993 16 l-982 5 3 35 c2 32 29 167 97 475 26 119 83 390 116 550 11 55 31 150 44 210 13 61 40 187 60 280 20 94 47 220 60 280 13 61 40 187 59 280 20 94 45 211 55 260 23 105 68 320 111 525 17 80 41 195 55 255 13 61 40 189 60 285 20 96 45 213 55 260 59 269 61 282 49 296 -10 12 -176 14 -1078 13 -586 -1 -1073 -3 -1083 -6z"/>
<path d="M4131 9027 c-6 -8 -14 -29 -17 -48 -3 -19 -21 -106 -40 -194 -19 -88 -46 -214 -60 -280 -14 -66 -34 -160 -45 -210 -10 -49 -37 -175 -59 -280 -22 -104 -49 -233 -60 -285 -12 -52 -25 -115 -30 -140 -5 -25 -21 -99 -35 -165 -14 -66 -37 -174 -51 -240 -14 -66 -36 -169 -49 -230 -14 -60 -36 -166 -51 -235 -14 -69 -35 -165 -46 -215 -10 -49 -25 -121 -32 -160 -8 -38 -28 -135 -45 -215 -18 -80 -43 -199 -57 -265 -14 -66 -36 -169 -49 -230 -13 -60 -40 -186 -60 -280 -20 -93 -42 -199 -50 -235 -8 -36 -26 -119 -39 -185 -14 -66 -32 -151 -41 -190 -9 -38 -21 -92 -25 -120 -5 -27 -20 -102 -34 -165 -147 -683 -186 -871 -186 -900 l0 -20 1084 0 c906 0 1085 2 1095 14 6 7 29 98 51 202 21 104 53 254 70 334 18 80 42 197 56 260 13 63 35 169 49 235 15 66 37 174 51 240 13 66 33 161 44 210 11 50 27 124 36 165 63 299 76 355 85 367 9 11 187 13 984 13 l972 0 16 18 c10 11 29 79 47 163 16 79 43 207 59 284 17 77 43 203 60 280 27 128 42 197 117 545 14 63 26 126 27 140 l2 25 -980 3 c-538 1 -983 6 -988 11 -4 4 1 50 13 102 11 52 37 171 58 264 l37 170 986 3 c773 2 989 5 997 15 10 13 52 174 52 202 0 10 13 74 29 144 16 69 43 194 61 276 62 297 70 332 105 500 20 94 42 195 49 226 8 36 10 63 4 73 -8 15 -181 16 -2082 16 -1725 0 -2075 -2 -2085 -13z"/>
<path d="M17454 4250 c-70 -15 -112 -37 -168 -90 -75 -71 -99 -130 -99 -242 0 -78 3 -94 32 -152 34 -69 71 -108 148 -153 45 -26 55 -28 163 -28 102 0 120 3 163 24 61 32 141 117 167 176 30 70 28 197 -4 269 -53 119 -161 193 -294 201 -37 2 -85 0 -108 -5z m153 -105 c44 -19 75 -44 67 -56 -3 -5 -17 -1 -31 8 -18 12 -55 19 -110 23 -85 5 -112 20 -58 31 53 11 95 9 132 -6z m-217 -233 c1 -94 0 -173 -3 -174 -2 -2 -16 12 -32 30 -30 36 -55 107 -55 158 0 62 61 187 81 167 5 -5 9 -86 9 -181z m356 101 c19 -44 18 -157 -2 -199 -34 -70 -56 -67 -94 13 l-21 46 31 32 c36 37 51 106 31 142 -5 11 -7 23 -4 27 10 10 44 -26 59 -61z m-162 -5 c15 -25 -4 -40 -50 -42 -40 -1 -53 16 -40 50 8 21 75 15 90 -8z m-37 -192 c8 -17 31 -50 50 -73 l34 -43 -26 -10 c-35 -13 -111 -13 -136 1 l-21 11 18 19 c10 11 19 41 21 71 6 75 10 83 29 67 8 -7 22 -26 31 -43z"/>
<path d="M6195 1907 c-101 -34 -163 -85 -208 -171 -28 -55 -31 -70 -31 -151 -1 -74 4 -100 23 -145 57 -129 171 -200 326 -200 102 0 169 25 241 92 71 65 98 131 98 243 1 84 -2 96 -33 158 -61 119 -156 179 -296 184 -48 2 -96 -3 -120 -10z m164 -98 c130 -30 209 -199 152 -324 -29 -65 -44 -71 -73 -33 -13 18 -29 45 -36 61 -11 25 -10 29 11 38 22 10 57 78 57 112 0 24 -23 68 -49 91 -16 15 -41 20 -101 24 -84 5 -107 16 -68 31 30 13 54 13 107 0z m-209 -244 c1 -94 -2 -169 -7 -167 -4 2 -20 21 -35 43 -30 45 -43 108 -36 174 6 49 55 142 69 128 4 -4 9 -85 9 -178z m200 110 c10 -13 9 -19 -6 -36 -37 -41 -109 -6 -74 36 16 20 64 19 80 0z m-30 -213 c18 -31 41 -67 52 -79 l20 -21 -20 -11 c-26 -14 -107 -14 -133 0 l-20 10 21 26 c14 18 20 41 20 78 0 84 12 83 60 -3z"/>
<path d="M12620 1897 c-85 -28 -175 -114 -204 -196 -27 -77 -26 -181 3 -254 30 -78 109 -156 186 -185 80 -31 204 -30 280 1 82 32 168 124 191 203 85 288 -166 526 -456 431z m195 -92 c112 -33 183 -161 156 -281 -7 -30 -23 -67 -37 -82 l-24 -27 -21 25 c-11 14 -27 41 -36 60 -14 32 -14 35 3 50 35 28 54 69 54 114 0 38 -5 48 -35 74 -36 32 -64 40 -155 45 -56 2 -70 17 -28 29 38 10 72 9 123 -7z m-215 -225 c0 -93 -4 -171 -8 -174 -15 -9 -50 49 -68 110 -14 48 -15 66 -5 108 14 58 58 139 72 131 5 -4 9 -80 9 -175z m195 97 l18 -14 -22 -22 c-42 -42 -107 -16 -87 35 7 18 66 19 91 1z m-20 -233 c15 -30 37 -60 48 -66 l21 -11 -19 -13 c-22 -16 -112 -18 -151 -4 l-26 10 26 25 c22 20 26 33 26 78 0 29 3 57 7 60 11 12 38 -20 68 -79z"/>
<path d="M3865 1900 c-186 -29 -349 -138 -412 -277 -24 -51 -27 -71 -27 -168 -1 -101 1 -115 27 -166 44 -90 161 -184 267 -213 89 -26 311 -102 343 -118 77 -38 99 -125 51 -198 -50 -75 -126 -104 -262 -98 -164 6 -236 59 -257 187 l-11 66 -151 3 c-116 2 -153 -1 -161 -11 -8 -10 -9 -37 -2 -96 15 -132 78 -248 171 -317 158 -115 478 -145 698 -65 180 66 272 162 315 329 31 122 13 245 -49 339 -61 92 -156 141 -380 198 -167 42 -228 72 -255 125 -11 21 -20 49 -20 60 0 45 39 99 90 125 42 21 63 25 142 25 77 0 102 -4 145 -24 57 -27 93 -79 93 -134 0 -49 15 -54 170 -50 111 2 143 6 151 18 13 19 4 93 -22 175 -37 122 -164 228 -323 272 -65 17 -254 25 -331 13z"/>
<path d="M10025 1895 c-347 -66 -591 -357 -636 -756 -28 -238 35 -461 163 -586 96 -93 213 -143 385 -164 159 -19 278 10 383 94 48 39 60 39 60 1 0 -57 12 -64 115 -64 110 0 104 -7 133 125 32 139 79 361 97 450 8 44 22 104 30 134 10 38 11 60 4 73 l-10 19 -299 -3 c-182 -2 -303 -7 -309 -13 -13 -13 -54 -213 -47 -231 4 -11 34 -14 151 -14 174 0 175 -1 126 -97 -63 -120 -157 -175 -313 -181 -87 -4 -102 -2 -151 21 -128 58 -180 160 -179 344 2 239 106 441 272 526 68 35 77 37 167 37 131 0 174 -13 222 -65 36 -39 46 -61 65 -147 l6 -28 166 0 c132 0 166 3 170 14 10 26 -24 187 -52 243 -58 119 -196 219 -354 258 -89 22 -278 27 -365 10z"/>
<path d="M11549 1895 c-180 -39 -292 -99 -406 -216 -153 -160 -243 -393 -243 -637 0 -348 161 -572 460 -639 100 -22 293 -21 380 1 260 67 466 270 549 540 72 235 64 509 -21 669 -68 128 -216 239 -355 267 -32 6 -77 16 -100 21 -56 12 -195 9 -264 -6z m287 -311 c58 -27 86 -58 130 -144 27 -52 29 -62 28 -180 0 -102 -4 -139 -23 -200 -50 -165 -141 -287 -257 -345 -48 -24 -74 -31 -141 -34 -104 -4 -166 16 -230 74 -71 63 -97 143 -97 290 0 128 18 201 76 318 43 87 90 144 156 189 63 43 113 57 215 57 75 1 96 -3 143 -25z"/>
<path d="M332 1868 c-7 -7 -12 -20 -12 -31 0 -10 -11 -66 -24 -125 -13 -59 -33 -154 -45 -212 -24 -116 -29 -142 -66 -315 -65 -306 -76 -358 -100 -475 -14 -69 -33 -155 -41 -191 -23 -102 -27 -99 151 -99 110 0 155 3 163 13 10 13 24 66 66 262 15 66 37 163 49 215 l22 95 296 3 c221 2 299 5 306 15 14 17 56 225 49 242 -5 13 -50 15 -295 15 -159 0 -292 4 -295 9 -6 9 47 262 59 280 4 8 111 11 334 11 299 0 331 2 349 18 24 20 62 167 62 238 l0 44 -508 0 c-382 0 -511 -3 -520 -12z"/>
<path d="M1515 1847 c-8 -19 -25 -90 -39 -158 -14 -68 -35 -167 -46 -219 -12 -52 -27 -126 -35 -165 -7 -38 -32 -158 -55 -265 -41 -186 -67 -311 -106 -502 -25 -121 -29 -118 162 -118 l153 0 10 38 c5 20 19 82 31 137 11 55 30 138 40 185 11 47 29 130 40 185 21 109 52 260 100 485 70 329 88 415 83 423 -2 4 -76 7 -164 7 l-160 0 -14 -33z"/>
<path d="M2111 1867 c-6 -8 -18 -47 -26 -88 -9 -41 -25 -119 -36 -174 -11 -55 -27 -129 -35 -165 -7 -36 -37 -175 -64 -310 -28 -135 -55 -261 -60 -281 -6 -19 -17 -71 -25 -115 -8 -43 -24 -122 -35 -174 -11 -52 -20 -105 -20 -118 l0 -23 160 3 c95 2 163 7 170 14 9 9 28 92 95 424 10 47 19 91 21 98 3 9 48 12 184 12 192 0 227 -6 265 -50 19 -21 20 -36 20 -246 0 -169 3 -226 13 -236 16 -16 289 -25 304 -10 15 15 15 489 -1 540 -7 24 -30 64 -53 88 l-40 44 28 10 c121 43 206 134 245 264 22 70 24 127 8 211 -21 114 -89 204 -187 248 -85 38 -191 47 -578 47 -274 0 -344 -3 -353 -13z m693 -283 c69 -24 88 -58 84 -151 -4 -92 -22 -117 -113 -163 l-69 -35 -188 -3 c-157 -3 -189 -1 -194 11 -3 8 6 66 20 128 13 63 27 132 31 154 12 74 16 75 210 75 132 0 182 -4 219 -16z"/>
<path d="M4716 1858 c-4 -13 -18 -74 -32 -137 -19 -87 -22 -117 -13 -127 9 -11 54 -14 215 -14 111 0 205 -3 207 -8 5 -7 -10 -92 -38 -212 -8 -36 -19 -90 -25 -120 -9 -58 -104 -506 -141 -671 -13 -55 -19 -107 -15 -123 l6 -26 155 0 c179 0 162 -11 193 125 22 96 22 99 83 388 21 103 43 206 48 230 5 23 19 89 31 147 40 198 53 250 65 260 6 5 102 11 216 12 l204 3 8 40 c5 22 17 77 28 123 11 45 16 94 13 107 l-6 25 -598 0 -598 0 -6 -22z"/>
<path d="M7126 1872 c-5 -8 -38 -153 -77 -342 -11 -52 -26 -126 -34 -165 -8 -38 -31 -144 -51 -235 -19 -91 -42 -201 -50 -245 -8 -44 -17 -87 -20 -95 -3 -8 -14 -60 -25 -115 -10 -55 -26 -129 -33 -165 -11 -46 -12 -68 -4 -77 8 -10 113 -13 503 -13 459 0 493 1 508 18 9 10 23 54 32 97 9 44 20 97 25 117 5 27 4 41 -5 48 -8 7 -125 10 -341 10 -262 0 -328 2 -326 12 2 7 8 40 14 73 6 33 21 110 33 170 43 200 95 449 115 550 12 55 29 138 40 185 31 140 33 150 20 165 -10 12 -44 15 -166 15 -84 0 -155 -4 -158 -8z"/>
<path d="M8276 1858 c-14 -21 -87 -341 -122 -533 -8 -44 -17 -87 -20 -95 -3 -8 -14 -60 -25 -115 -10 -55 -39 -194 -64 -310 -25 -116 -48 -223 -51 -240 -3 -16 -10 -49 -16 -72 -19 -77 -53 -73 552 -73 l537 0 18 20 c19 21 69 235 60 258 -4 10 -85 12 -382 12 -410 -1 -411 -1 -386 52 6 13 21 75 33 138 12 63 24 118 27 123 2 4 158 7 347 7 258 0 346 3 359 13 20 14 65 223 54 250 -6 15 -38 17 -347 17 -281 0 -342 2 -346 14 -3 8 4 53 15 101 12 47 21 97 21 109 0 46 3 46 395 46 415 0 398 -3 407 70 3 19 13 72 22 118 14 65 15 86 6 97 -11 13 -89 15 -546 15 l-534 0 -14 -22z"/>
<path d="M13494 1872 c-11 -7 -71 -266 -101 -432 -7 -41 -17 -88 -23 -105 -5 -16 -14 -57 -19 -90 -10 -60 -101 -493 -142 -676 -13 -55 -19 -107 -15 -123 l6 -26 498 0 497 0 12 19 c14 22 52 180 55 231 l3 35 -333 3 c-254 2 -334 5 -338 15 -2 7 14 98 36 202 23 105 48 224 55 265 17 88 62 304 101 480 15 69 28 143 28 165 l1 40 -155 2 c-85 2 -160 0 -166 -5z"/>
<path d="M14830 1499 c-93 -15 -210 -81 -287 -163 -126 -132 -183 -281 -183 -478 0 -99 4 -125 25 -182 42 -112 86 -168 169 -215 85 -49 138 -62 256 -68 191 -9 333 38 438 146 30 31 68 85 89 127 51 104 48 106 -127 102 l-136 -3 -55 -56 c-84 -85 -165 -100 -268 -46 -26 13 -54 37 -65 56 -24 42 -38 121 -24 139 8 9 95 12 374 12 307 0 365 2 377 15 10 9 18 46 22 99 13 152 -33 301 -121 392 -101 104 -294 153 -484 123z m227 -259 c40 -24 75 -90 71 -133 l-3 -32 -200 -3 c-110 -1 -205 0 -212 2 -14 6 17 78 51 115 60 67 222 95 293 51z"/>
<path d="M15960 1496 c-127 -22 -246 -94 -300 -180 -23 -38 -50 -120 -50 -153 l0 -23 128 0 c142 0 147 2 191 73 26 43 79 69 148 75 63 5 106 -9 151 -52 34 -32 39 -59 20 -101 -22 -49 -70 -63 -302 -85 -242 -23 -377 -93 -443 -229 -24 -48 -28 -68 -28 -141 0 -96 11 -125 77 -196 102 -111 369 -125 511 -28 40 27 52 24 59 -11 3 -19 12 -20 140 -23 167 -3 168 -3 168 102 0 68 9 118 60 341 78 338 79 436 5 522 -37 43 -98 77 -180 100 -72 19 -265 25 -355 9z m214 -650 c-1 -21 -17 -68 -35 -104 -29 -56 -43 -72 -89 -99 -45 -27 -64 -33 -113 -33 -113 0 -170 53 -147 136 22 78 79 108 227 120 48 4 99 11 113 15 38 11 45 5 44 -35z"/>
<path d="M17090 1496 c-202 -56 -342 -211 -401 -445 -17 -67 -20 -106 -18 -200 l4 -117 37 -76 c45 -90 103 -148 194 -190 57 -27 76 -30 162 -31 102 -1 152 13 222 63 16 11 31 17 34 12 6 -11 -37 -115 -71 -171 -41 -66 -90 -91 -179 -91 -87 0 -126 22 -161 92 l-24 48 -144 0 c-170 0 -169 0 -136 -109 25 -83 88 -159 159 -191 26 -12 61 -29 77 -38 25 -14 61 -17 225 -17 l195 0 85 42 c54 27 102 60 132 90 63 65 120 184 147 308 60 274 83 381 162 760 11 55 27 128 35 163 8 35 12 67 9 73 -4 5 -67 9 -140 9 l-135 0 -14 -22 c-8 -13 -18 -36 -22 -53 -11 -48 -15 -49 -46 -10 -17 20 -48 47 -68 60 -79 50 -222 68 -320 41z m270 -260 c19 -13 46 -45 59 -71 22 -43 23 -56 18 -141 -7 -119 -46 -212 -117 -278 -58 -54 -105 -70 -183 -63 -47 4 -65 11 -89 34 -49 46 -68 94 -68 170 0 150 66 287 165 344 67 39 162 41 215 5z"/>
<path d="M19553 1494 c-96 -21 -189 -73 -263 -148 -78 -79 -118 -145 -154 -252 -115 -348 20 -646 316 -694 138 -22 305 -3 406 46 83 41 165 124 219 221 37 68 43 87 32 94 -8 5 -76 9 -152 9 l-137 0 -56 -59 c-56 -60 -101 -81 -171 -81 -115 0 -207 92 -193 194 l5 41 373 5 c316 4 374 7 383 20 6 9 9 75 7 160 l-3 145 -38 71 c-47 88 -102 142 -192 188 -106 54 -250 69 -382 40z m249 -259 c39 -26 72 -94 66 -136 l-3 -24 -210 0 -210 0 3 20 c7 39 68 110 118 137 41 23 61 28 124 28 64 0 81 -4 112 -25z"/>
<path d="M18060 1458 c-8 -21 -44 -186 -101 -468 -10 -52 -26 -122 -35 -155 -9 -33 -17 -101 -18 -150 0 -82 2 -97 29 -150 53 -106 156 -152 320 -143 93 6 176 34 239 83 48 36 59 36 50 -2 -12 -46 7 -53 152 -53 l134 0 9 23 c5 12 22 92 39 177 25 130 98 483 155 749 7 36 12 75 9 88 l-4 23 -137 0 c-75 0 -142 -4 -149 -8 -11 -8 -54 -193 -112 -482 -25 -127 -55 -201 -103 -256 -65 -74 -159 -108 -232 -84 -68 22 -89 79 -66 183 5 23 21 96 35 162 13 66 39 183 55 260 17 77 31 159 31 183 l0 42 -145 0 -145 0 -10 -22z"/>
</g>
</g>
  <g id="id1:id1" transform="matrix(1.25,0,0,1.25,0.0,0.0)"><g transform="translate(0.000000,852.800000) scale(0.040000,-0.040000)" fill="#c80e28" stroke="none">
<path d="M8096 20960 c-14 -22 -26 -43 -26 -48 0 -5 -40 -89 -88 -188 -49 -98 -203 -413 -342 -699 -139 -286 -319 -653 -398 -815 -241 -490 -426 -869 -584 -1195 -83 -170 -210 -429 -281 -575 -413 -842 -697 -1423 -697 -1426 0 -2 -84 -174 -186 -381 -102 -208 -312 -637 -466 -953 -154 -316 -354 -726 -445 -910 -91 -184 -280 -571 -420 -860 -141 -289 -325 -666 -410 -839 -102 -206 -151 -317 -145 -323 10 -10 50 -1 282 70 63 19 167 50 230 68 63 18 153 45 200 60 47 14 137 41 200 60 63 18 153 45 200 60 47 14 137 41 200 59 63 19 165 49 225 68 61 20 151 47 200 61 50 14 128 37 175 52 47 14 137 41 200 60 63 18 153 45 200 59 47 15 137 42 200 60 63 18 194 58 290 88 96 30 254 78 350 107 96 29 183 59 193 68 18 16 23 51 9 68 -13 14 -58 158 -85 274 -43 182 -57 307 -66 577 -5 144 -12 266 -15 272 -4 5 -19 6 -39 1 -69 -18 -325 -93 -377 -110 -30 -10 -120 -37 -200 -60 -80 -23 -170 -50 -200 -60 -128 -42 -209 -63 -223 -57 -11 4 7 47 83 197 54 105 105 199 114 209 9 10 16 21 16 25 0 4 77 163 171 354 94 191 295 601 446 912 152 311 350 716 440 900 91 184 286 585 435 890 259 533 315 649 501 1026 46 94 91 195 101 224 10 29 49 116 88 193 l70 141 19 -25 c10 -13 37 -60 60 -104 23 -44 64 -118 92 -165 47 -79 85 -148 272 -485 40 -71 87 -155 105 -185 18 -30 67 -116 108 -190 41 -74 107 -193 147 -265 40 -71 87 -155 105 -185 18 -30 67 -116 108 -190 152 -273 210 -376 247 -440 38 -64 96 -169 252 -450 44 -80 105 -186 134 -237 30 -51 97 -169 149 -264 52 -94 124 -221 159 -283 35 -61 79 -139 98 -173 l34 -62 -19 -10 c-22 -12 -190 -66 -247 -80 -22 -5 -98 -28 -170 -51 -71 -23 -161 -50 -200 -60 -38 -10 -142 -41 -230 -69 -88 -27 -178 -54 -200 -60 -22 -5 -112 -32 -200 -59 -88 -27 -261 -80 -385 -117 -124 -37 -252 -75 -285 -86 -33 -11 -112 -35 -176 -54 l-115 -35 -22 -53 c-12 -29 -22 -68 -22 -87 0 -53 42 -166 119 -320 106 -212 250 -410 415 -569 78 -74 58 -73 266 -9 201 63 564 172 1235 373 121 36 271 81 334 100 62 19 121 35 130 35 19 0 92 24 138 45 17 8 36 15 43 15 7 0 71 18 143 40 73 22 170 52 217 66 47 14 130 42 185 61 55 19 127 38 160 42 33 4 82 17 108 29 27 12 105 36 175 53 151 38 186 52 206 81 28 40 19 76 -38 162 -29 45 -95 155 -146 246 -51 91 -140 248 -198 349 -76 134 -106 196 -110 228 -4 34 -8 43 -20 38 -15 -5 -52 20 -52 37 0 10 -127 249 -207 388 -123 215 -196 346 -211 375 -8 17 -27 44 -43 60 -29 31 -100 151 -204 345 -34 63 -81 147 -104 185 -23 39 -63 113 -89 165 -27 52 -60 111 -73 131 -13 20 -41 68 -62 105 -22 38 -71 125 -110 194 -113 201 -154 278 -211 396 -29 62 -85 165 -123 230 -83 142 -199 346 -263 464 -26 47 -73 132 -107 190 -118 207 -197 346 -245 435 -51 93 -139 248 -249 440 -34 61 -83 148 -109 195 -25 47 -76 137 -112 200 -154 272 -205 362 -271 480 -38 69 -73 130 -77 135 -4 6 -27 46 -50 90 -46 87 -110 199 -146 256 -12 20 -38 67 -57 106 -35 69 -81 133 -97 133 -4 0 -19 -18 -34 -40z"/>
<path d="M9231 9042 c-9 -17 -46 -184 -76 -337 -7 -38 -27 -135 -44 -215 -18 -80 -43 -199 -57 -265 -14 -66 -37 -169 -50 -230 -13 -60 -29 -132 -34 -160 -10 -47 -33 -157 -80 -375 -11 -52 -38 -180 -60 -285 -67 -320 -81 -387 -101 -475 -10 -47 -31 -141 -45 -210 -14 -69 -37 -174 -50 -235 -12 -60 -34 -164 -48 -230 -24 -116 -54 -260 -96 -450 -10 -49 -21 -101 -23 -115 -2 -14 -18 -90 -36 -170 -53 -243 -104 -481 -166 -775 -19 -93 -44 -210 -54 -260 -11 -49 -29 -133 -40 -185 -11 -52 -27 -131 -37 -175 -9 -44 -27 -125 -40 -180 -27 -113 -29 -146 -12 -163 9 -9 486 -12 2085 -12 l2072 0 12 22 c11 20 72 292 119 528 10 52 25 124 34 160 13 58 38 174 107 505 12 55 30 138 41 183 14 65 16 87 7 98 -10 12 -162 14 -990 14 -576 0 -980 4 -983 9 -4 5 3 47 13 93 11 45 36 162 56 258 20 96 45 213 55 260 10 47 32 150 49 230 61 288 91 428 126 595 34 157 52 242 105 495 11 52 31 147 45 210 41 192 75 350 95 450 16 82 64 307 140 660 11 52 36 169 55 260 19 91 46 215 59 275 36 161 39 185 25 201 -10 12 -169 14 -1090 14 l-1078 0 -10 -18z"/>
</g>
</g>
  <g id="id2:id2" transform="matrix(1.25,0,0,1.25,0.0,0.0)"><g transform="translate(0.000000,852.800000) scale(0.040000,-0.040000)" fill="#bdbbbb" stroke="none">
<path d="M7379 21283 c-9 -2 -34 -41 -54 -86 -21 -45 -131 -271 -245 -502 -199 -402 -268 -544 -423 -865 -101 -210 -660 -1345 -697 -1415 -11 -22 -37 -76 -57 -120 -21 -44 -90 -186 -155 -316 -65 -129 -118 -239 -118 -244 0 -4 -85 -179 -189 -389 -104 -210 -250 -507 -325 -661 -76 -154 -146 -296 -157 -315 -11 -19 -27 -51 -35 -70 -9 -19 -69 -143 -135 -276 -65 -132 -119 -244 -119 -249 0 -4 -126 -261 -279 -571 -153 -309 -282 -572 -286 -585 -4 -13 -20 -43 -36 -68 -15 -26 -46 -86 -69 -136 -62 -132 -277 -575 -501 -1030 -620 -1262 -629 -1280 -629 -1298 0 -24 11 -47 22 -47 10 0 166 -66 268 -112 25 -12 97 -44 160 -73 63 -29 136 -62 162 -74 26 -11 52 -21 58 -21 7 0 28 -7 47 -16 25 -13 37 -14 46 -5 7 7 8 14 1 21 -6 6 32 94 105 242 62 128 198 406 301 618 103 212 247 507 320 655 239 486 379 774 560 1145 98 201 237 487 310 635 330 672 393 802 560 1145 98 201 237 487 310 635 73 149 181 369 240 490 59 121 195 400 302 620 108 220 249 508 313 640 65 132 181 368 257 525 77 157 217 443 310 635 94 193 238 487 320 655 83 168 177 360 209 427 34 69 71 131 86 142 l26 21 -17 19 c-10 11 -32 25 -49 31 -18 7 -45 18 -62 25 -16 8 -70 27 -120 44 -49 17 -128 44 -175 61 -47 17 -107 38 -135 46 -27 9 -54 20 -59 25 -6 5 -17 9 -26 9 -9 0 -33 9 -55 20 -39 20 -54 22 -86 13z"/>
<path d="M8137 18597 c-41 -84 -80 -170 -86 -190 l-13 -37 44 -49 c24 -26 64 -85 88 -130 25 -45 69 -123 97 -174 29 -51 78 -139 109 -197 31 -58 82 -148 114 -200 31 -52 72 -124 90 -160 18 -36 40 -76 50 -90 9 -14 35 -59 58 -101 23 -41 51 -84 63 -95 12 -10 39 -55 61 -99 22 -44 50 -94 63 -110 12 -17 46 -75 75 -130 56 -108 151 -273 181 -317 38 -55 13 -96 -85 -142 -28 -14 -60 -34 -71 -46 -11 -13 -45 -38 -75 -57 -30 -20 -83 -62 -117 -94 -34 -33 -66 -59 -72 -59 -17 0 -198 -178 -222 -218 -13 -21 -50 -67 -83 -103 -70 -75 -187 -255 -250 -386 -133 -274 -202 -617 -177 -885 14 -149 29 -239 43 -255 19 -24 48 -15 63 20 14 35 -4 28 290 118 65 20 318 96 675 203 124 37 308 93 410 123 102 31 273 82 380 114 107 33 218 65 245 73 160 46 227 70 235 86 7 13 -8 47 -62 141 -72 125 -155 273 -278 494 -36 66 -86 154 -110 195 -44 76 -128 225 -250 445 -36 66 -86 154 -110 195 -46 81 -133 235 -252 450 -42 74 -90 160 -108 190 -19 30 -66 114 -105 185 -167 300 -224 403 -255 455 -19 30 -66 114 -105 185 -190 342 -227 409 -268 477 -24 40 -65 114 -92 163 -54 102 -94 165 -105 165 -5 0 -42 -69 -83 -153z m1457 -2939 c28 -48 78 -135 111 -194 33 -58 72 -127 87 -153 41 -70 41 -70 34 -86 -3 -8 -13 -15 -23 -15 -10 0 -40 -8 -68 -19 -82 -30 -183 -61 -202 -61 -10 -1 -36 -9 -58 -20 -22 -11 -50 -19 -63 -20 -12 0 -39 -7 -60 -15 -20 -9 -57 -20 -82 -26 -25 -5 -61 -15 -80 -23 -19 -7 -66 -23 -105 -34 -161 -48 -214 -64 -280 -84 -38 -11 -93 -29 -120 -39 -28 -11 -56 -19 -63 -19 -7 0 -65 -16 -130 -36 -64 -20 -125 -38 -134 -41 -10 -3 -25 -3 -33 1 -22 8 82 158 194 278 188 202 317 315 501 437 233 155 431 261 484 258 l40 -2 50 -87z"/>
<path d="M15000 17382 c0 -9 -227 -247 -626 -658 -144 -148 -393 -406 -555 -574 -161 -168 -404 -420 -540 -560 -516 -532 -790 -819 -819 -855 -16 -21 -30 -46 -30 -56 0 -19 129 -149 199 -201 40 -29 61 -30 61 -4 0 8 55 70 123 138 67 68 245 249 394 401 150 152 279 277 286 277 19 0 152 -133 184 -183 14 -23 47 -64 73 -92 95 -101 254 -378 311 -540 30 -85 54 -107 64 -58 3 15 13 49 21 75 23 69 23 386 1 486 -10 40 -17 88 -17 105 0 17 -9 54 -19 82 -10 27 -31 88 -46 135 -29 91 -121 289 -167 357 -15 23 -28 47 -28 53 0 7 107 121 238 254 130 132 255 264 276 291 21 28 71 79 113 115 41 36 112 100 157 143 l84 78 46 -40 c26 -23 51 -41 55 -41 5 0 84 -75 177 -168 432 -428 995 -975 1049 -1019 52 -42 570 -548 994 -971 l134 -133 59 58 c33 32 154 156 270 275 160 166 207 221 201 232 -5 9 -92 96 -194 193 -230 221 -707 682 -1109 1074 -168 163 -438 424 -600 580 -162 156 -404 390 -537 521 -158 155 -249 238 -262 238 -12 0 -21 -4 -21 -8z"/>
<path d="M10800 16955 c-213 -24 -294 -34 -317 -41 -48 -14 -33 -73 53 -214 43 -71 103 -177 146 -260 25 -47 62 -114 83 -150 21 -36 49 -86 63 -112 13 -26 31 -53 39 -60 10 -8 91 -11 291 -9 211 1 299 -2 372 -14 52 -9 140 -20 195 -25 55 -5 120 -16 144 -24 24 -9 65 -16 92 -16 39 0 55 -6 83 -30 l34 -30 298 306 c165 168 302 312 307 319 16 30 -11 63 -78 94 -37 18 -81 35 -98 38 -18 3 -49 14 -69 24 -21 11 -46 19 -57 19 -11 0 -44 8 -73 19 -98 34 -188 61 -208 61 -11 0 -46 9 -77 20 -32 11 -75 20 -98 20 -22 0 -65 7 -95 16 -30 8 -102 19 -160 24 -58 6 -136 14 -175 20 -119 18 -554 21 -695 5z"/>
<path d="M19168 14598 c-51 -52 -250 -259 -443 -459 -192 -200 -446 -463 -565 -584 -119 -121 -243 -249 -275 -284 -102 -110 -549 -575 -771 -801 -115 -118 -239 -246 -275 -284 -108 -117 -572 -599 -799 -831 -119 -121 -243 -249 -275 -285 -145 -156 -599 -620 -607 -620 -10 0 -180 161 -692 656 -155 149 -302 290 -328 313 -31 28 -45 48 -40 56 4 7 41 39 82 71 220 171 505 450 634 622 70 93 81 103 103 98 23 -6 24 -5 18 28 -6 28 -1 42 27 82 52 74 160 262 187 324 13 30 38 89 56 130 18 41 45 113 60 160 15 47 34 100 41 118 8 18 19 64 24 101 5 38 15 82 21 97 6 16 15 67 20 114 28 270 29 309 18 530 -6 124 -13 297 -17 385 -7 158 -12 185 -35 185 -8 0 -13 -32 -14 -108 -3 -141 -32 -314 -67 -402 -8 -19 -29 -80 -46 -135 -18 -55 -38 -109 -44 -120 -7 -11 -27 -57 -45 -103 -52 -130 -273 -498 -326 -542 -9 -7 -36 -43 -59 -79 -54 -82 -430 -455 -537 -534 -43 -31 -80 -61 -84 -66 -3 -6 -32 -27 -63 -47 -31 -20 -68 -47 -82 -60 -14 -12 -41 -30 -60 -38 -19 -8 -46 -26 -58 -39 -13 -14 -38 -31 -55 -38 -18 -7 -41 -20 -52 -30 -19 -16 -139 -84 -230 -129 -22 -11 -47 -24 -55 -29 -8 -5 -26 -14 -40 -20 -14 -6 -32 -15 -40 -20 -33 -20 -189 -90 -255 -115 -38 -15 -78 -31 -89 -37 -10 -6 -37 -17 -60 -24 -22 -7 -66 -23 -96 -35 -30 -11 -100 -35 -155 -51 -55 -17 -123 -39 -150 -50 -28 -10 -60 -19 -71 -19 -12 0 -47 -9 -79 -20 -32 -11 -68 -20 -80 -20 -12 0 -46 -8 -76 -18 -30 -11 -81 -22 -114 -25 -33 -3 -80 -13 -104 -22 -24 -8 -62 -15 -85 -15 -22 -1 -68 -7 -101 -16 -33 -8 -112 -19 -175 -24 -63 -5 -169 -16 -235 -24 -174 -22 -798 -22 -955 0 -63 9 -164 19 -225 24 -60 4 -135 15 -165 24 -30 9 -81 16 -112 16 -33 0 -78 8 -108 20 -28 11 -69 20 -90 20 -22 0 -66 8 -97 19 -32 10 -80 23 -108 29 -72 15 -133 32 -190 51 -27 10 -84 28 -125 40 -41 13 -94 31 -118 42 -23 10 -50 19 -60 19 -10 0 -35 9 -57 20 -22 11 -45 20 -52 20 -24 0 -366 161 -538 253 -11 6 -33 17 -50 25 -48 24 -399 258 -414 276 -8 10 -44 37 -80 60 -84 54 -509 478 -575 573 -26 37 -64 89 -84 115 -20 26 -48 69 -62 95 -14 26 -44 77 -67 112 -49 72 -120 216 -158 317 -42 113 -84 235 -99 294 -21 78 -56 279 -56 320 0 55 -9 61 -62 45 -25 -7 -60 -21 -76 -29 -17 -9 -41 -16 -54 -16 -12 0 -45 -9 -73 -19 -27 -11 -86 -29 -130 -41 -44 -12 -104 -31 -133 -41 -30 -10 -61 -19 -70 -19 -9 0 -39 -9 -67 -19 -27 -11 -76 -25 -108 -32 -32 -7 -60 -16 -63 -21 -3 -5 -12 -4 -19 2 -10 8 -18 4 -33 -17 -34 -48 -203 -394 -197 -404 10 -14 54 -11 119 10 34 11 108 34 166 51 58 18 148 45 200 61 52 16 124 38 160 49 36 10 124 37 195 59 72 22 150 41 175 43 l45 3 6 -243 c8 -327 40 -523 126 -785 28 -85 32 -111 23 -122 -10 -12 -6 -20 17 -42 27 -25 48 -64 113 -203 11 -25 38 -72 60 -105 22 -33 47 -73 56 -90 40 -72 111 -174 153 -221 25 -28 57 -70 71 -93 31 -53 343 -362 425 -420 33 -24 76 -58 95 -76 19 -17 67 -53 105 -80 39 -26 105 -72 148 -102 43 -30 86 -57 95 -61 10 -3 35 -18 57 -33 100 -67 541 -289 575 -289 5 0 35 -12 67 -26 58 -27 311 -119 368 -134 17 -4 50 -15 75 -23 25 -9 64 -20 88 -26 23 -6 61 -16 85 -22 23 -6 72 -19 108 -30 36 -10 79 -19 95 -19 16 0 62 -9 102 -20 39 -11 86 -20 104 -20 17 0 79 -9 137 -19 104 -19 205 -32 426 -52 170 -16 960 -4 1055 15 41 9 102 16 135 16 33 0 96 9 140 20 44 11 101 20 126 20 26 0 75 9 110 19 35 10 87 21 116 24 29 3 65 13 82 21 16 9 43 16 58 16 15 0 57 9 93 20 36 11 112 33 170 49 58 16 121 35 140 42 86 29 181 65 255 96 45 18 85 33 91 33 6 0 61 23 122 50 61 28 119 50 128 50 9 0 55 -37 103 -83 47 -46 108 -101 136 -122 27 -22 97 -87 155 -145 95 -95 503 -497 896 -882 83 -82 158 -148 168 -148 21 0 628 613 738 745 41 50 101 115 134 145 33 30 199 199 369 375 170 176 349 358 398 405 49 46 112 114 140 150 28 36 277 295 552 575 275 281 525 539 555 575 52 62 185 199 766 790 144 146 282 292 307 326 25 34 88 100 139 147 98 89 94 83 179 277 16 36 40 97 55 135 14 39 32 84 40 100 27 61 84 217 84 229 0 7 -9 21 -20 31 l-19 17 -93 -94z"/>
<path d="M11255 14050 c-60 -22 -118 -39 -128 -39 -10 -1 -39 -9 -65 -20 -54 -21 -325 -101 -344 -101 -7 0 -26 -7 -43 -16 -16 -9 -43 -20 -60 -23 -23 -5 -31 -13 -33 -34 -3 -24 25 -56 235 -263 131 -129 272 -263 313 -297 41 -34 220 -206 397 -381 178 -176 338 -330 356 -343 l32 -23 65 19 c270 80 443 138 530 178 55 26 140 60 173 70 9 3 17 13 17 22 0 16 -230 249 -381 386 -176 159 -872 842 -885 867 -8 15 -21 28 -28 28 -8 0 -20 2 -28 4 -7 2 -62 -13 -123 -34z"/>
</g>
</g>
  <g id="id3:id3" transform="matrix(1.25,0,0,1.25,0.0,0.0)"><g transform="translate(0.000000,852.800000) scale(0.040000,-0.040000)" fill="#ffffff" stroke="none">
<path d="M0 10660 l0 -10660 10100 0 10100 0 0 10660 0 10660 -10100 0 -10100 0 0 -10660z m7455 10596 c11 -7 61 -27 110 -44 50 -17 128 -45 175 -62 47 -17 123 -44 170 -60 47 -16 104 -38 127 -49 23 -12 48 -21 56 -21 7 0 22 -10 33 -22 19 -23 29 -39 69 -113 12 -22 48 -85 80 -140 32 -55 78 -138 103 -185 25 -47 61 -112 82 -145 21 -33 51 -87 68 -120 16 -33 52 -96 78 -141 27 -44 64 -107 82 -140 19 -32 75 -133 126 -224 51 -91 95 -170 97 -176 2 -6 39 -71 82 -145 91 -156 146 -254 255 -451 43 -79 104 -186 134 -238 57 -99 225 -396 274 -488 37 -66 134 -238 235 -412 43 -74 103 -187 133 -250 62 -128 129 -254 167 -315 14 -22 45 -76 68 -120 58 -106 148 -262 169 -291 18 -24 41 -30 58 -15 11 11 182 35 368 52 247 23 690 -1 956 -51 58 -11 117 -20 131 -20 14 0 52 -9 84 -20 32 -11 67 -20 78 -20 17 0 213 -57 307 -90 124 -42 213 -80 225 -94 6 -7 21 -19 35 -26 l24 -13 214 219 c208 213 390 407 463 495 20 24 384 404 808 844 525 545 778 800 792 800 12 0 86 -64 197 -172 97 -94 368 -356 602 -581 234 -225 497 -479 585 -565 88 -86 293 -283 455 -438 162 -156 408 -393 545 -529 138 -136 273 -266 300 -290 51 -44 447 -425 881 -849 133 -130 366 -355 518 -500 152 -145 276 -269 276 -276 0 -6 -13 -24 -30 -40 -22 -21 -28 -34 -24 -51 3 -13 1 -40 -6 -61 -17 -57 -127 -337 -165 -423 -18 -41 -43 -98 -55 -127 -16 -36 -50 -78 -118 -145 -52 -51 -117 -120 -145 -153 -43 -52 -686 -715 -907 -935 -41 -41 -104 -109 -139 -150 -35 -41 -269 -284 -520 -540 -480 -489 -573 -586 -610 -635 -19 -25 -550 -571 -920 -945 -57 -58 -122 -127 -144 -155 -64 -82 -690 -716 -703 -713 -7 2 -225 212 -485 468 -697 685 -701 688 -744 718 -23 15 -77 64 -121 110 -51 51 -89 82 -102 82 -24 0 -47 -9 -159 -61 -46 -22 -89 -39 -96 -39 -8 0 -45 -14 -83 -31 -71 -32 -149 -62 -219 -83 -22 -6 -60 -19 -85 -28 -78 -28 -184 -58 -202 -58 -10 0 -40 -9 -68 -20 -28 -11 -66 -20 -84 -20 -19 0 -53 -9 -77 -20 -24 -11 -60 -20 -79 -20 -19 0 -64 -9 -98 -20 -35 -11 -87 -20 -115 -20 -29 0 -84 -9 -122 -20 -38 -11 -98 -20 -132 -20 -33 0 -97 -7 -140 -15 -91 -18 -584 -37 -768 -30 -66 3 -176 7 -245 10 -69 2 -147 8 -175 14 -27 5 -88 12 -135 16 -124 9 -464 68 -605 105 -137 36 -161 42 -225 56 -35 8 -69 19 -75 24 -6 5 -33 14 -60 21 -28 6 -54 15 -60 19 -5 5 -30 13 -55 20 -50 13 -205 72 -263 101 -21 11 -45 19 -53 19 -13 0 -301 134 -367 171 -10 5 -48 26 -85 46 -37 19 -88 51 -113 69 -26 19 -53 34 -61 34 -7 0 -35 18 -62 40 -26 22 -54 40 -60 40 -7 0 -30 15 -52 34 -21 18 -54 41 -73 51 -19 9 -55 36 -80 59 -25 24 -68 58 -96 76 -66 45 -428 411 -470 475 -18 28 -42 59 -55 70 -26 23 -89 117 -172 255 -75 125 -158 293 -158 319 0 6 -16 19 -35 27 l-36 15 -152 -47 c-84 -25 -161 -48 -172 -51 -11 -3 -112 -33 -225 -68 -113 -34 -299 -90 -415 -125 -115 -34 -289 -86 -385 -115 -96 -29 -276 -83 -400 -120 -124 -37 -304 -91 -400 -120 -375 -113 -623 -187 -820 -245 -113 -34 -230 -68 -260 -77 -30 -9 -63 -24 -73 -32 -17 -14 -20 -14 -31 1 -7 10 -30 21 -52 26 -36 9 -153 58 -264 112 -78 38 -163 76 -220 100 -60 24 -136 57 -160 70 -8 4 -14 19 -13 32 1 19 314 673 365 763 17 30 124 247 222 450 48 99 91 187 96 195 6 8 15 26 21 40 17 39 57 120 89 179 16 30 35 70 41 89 11 32 302 635 335 692 19 34 338 678 379 765 47 100 91 190 129 265 19 36 40 80 47 99 7 18 22 48 34 66 13 18 28 50 35 71 7 22 65 145 129 274 64 129 121 245 126 258 6 12 112 227 238 478 125 250 227 461 228 467 0 7 13 35 29 62 16 28 42 77 58 110 54 112 83 170 113 225 17 30 35 70 41 88 5 18 71 158 146 311 75 152 142 287 147 298 6 12 57 115 114 230 384 773 543 1096 565 1148 13 33 133 281 266 550 133 270 288 583 343 696 56 113 112 229 124 257 19 45 25 52 50 52 16 0 37 -6 48 -14z m3937 -12266 c-1 -25 -13 -94 -27 -155 -13 -60 -40 -184 -60 -275 -19 -91 -44 -205 -55 -255 -10 -49 -26 -124 -34 -165 -9 -41 -31 -149 -51 -240 -20 -91 -45 -208 -55 -260 -25 -122 -73 -351 -99 -471 -12 -52 -31 -139 -42 -194 -11 -55 -25 -118 -30 -140 -23 -103 -131 -616 -155 -735 -8 -41 -28 -135 -44 -210 -17 -74 -39 -180 -51 -235 -11 -55 -25 -118 -30 -140 -5 -22 -25 -116 -44 -210 -20 -93 -41 -190 -47 -214 -9 -35 -8 -45 3 -52 8 -5 444 -9 991 -9 608 0 979 -4 983 -10 3 -5 -3 -46 -14 -92 -20 -87 -38 -172 -97 -453 -19 -93 -46 -219 -59 -280 -13 -60 -35 -164 -49 -230 -61 -289 -77 -361 -86 -383 l-10 -22 -2067 2 -2068 3 -3 27 c-2 15 8 74 21 130 14 57 32 139 41 183 39 185 58 275 76 355 11 47 21 99 23 115 3 17 19 95 36 175 42 191 74 339 105 485 14 66 40 185 57 265 18 80 35 168 40 195 4 28 14 77 22 110 9 33 32 139 52 235 19 96 45 216 57 265 12 50 24 110 28 135 4 25 21 110 39 190 50 230 88 409 157 735 19 94 46 220 59 280 13 61 26 121 28 135 3 14 19 90 36 170 17 80 43 197 56 260 14 63 34 156 45 205 11 50 27 126 35 170 9 44 26 127 39 185 13 58 34 155 46 215 26 131 50 237 57 248 2 4 487 6 1076 5 l1072 -3 -3 -45z m4673 41 c3 -6 -4 -54 -16 -108 -49 -232 -61 -287 -95 -448 -19 -93 -46 -219 -59 -280 -13 -60 -36 -166 -50 -235 -36 -170 -92 -436 -116 -545 -10 -49 -35 -166 -55 -260 -19 -93 -46 -219 -59 -280 -13 -60 -40 -186 -60 -280 -20 -93 -47 -219 -60 -280 -13 -60 -33 -155 -44 -210 -39 -189 -92 -440 -116 -550 -82 -372 -106 -497 -101 -510 5 -13 124 -15 986 -15 875 0 981 -2 987 -15 5 -15 -13 -112 -72 -380 -14 -60 -41 -186 -60 -280 -20 -93 -46 -219 -60 -280 -13 -60 -35 -166 -50 -235 -14 -69 -34 -159 -43 -200 l-17 -75 -2069 -3 c-1139 -1 -2074 2 -2078 6 -8 8 3 66 66 357 13 61 35 164 49 230 14 66 42 194 61 285 19 91 45 212 57 270 11 58 27 132 35 165 7 33 27 123 43 200 16 77 37 174 46 215 8 41 26 127 40 190 13 63 39 187 58 275 19 88 45 210 57 270 12 61 30 146 40 190 11 44 28 127 40 185 11 58 29 143 40 190 10 47 30 139 44 205 53 249 97 453 113 525 9 41 20 95 23 120 4 25 22 110 39 190 57 260 96 441 166 775 20 94 45 208 55 255 10 47 31 146 46 220 16 80 34 140 43 148 19 15 2136 18 2146 3z m-7784 -16 c5 -5 -31 -195 -70 -370 -20 -89 -27 -121 -96 -450 -20 -93 -46 -219 -60 -280 -13 -60 -29 -139 -36 -175 -7 -36 -18 -80 -26 -97 l-13 -33 -993 -2 -992 -3 -3 -25 c-3 -25 -57 -280 -93 -444 -11 -49 -18 -95 -15 -102 5 -12 162 -14 980 -14 695 0 977 -3 982 -11 8 -13 -14 -125 -111 -574 -13 -60 -40 -186 -60 -280 -46 -217 -79 -369 -102 -470 l-18 -80 -988 -3 -988 -2 -8 -23 c-5 -12 -18 -69 -30 -127 -12 -58 -33 -157 -47 -220 -13 -63 -35 -167 -49 -230 -13 -63 -38 -180 -56 -260 -17 -80 -34 -156 -36 -170 -2 -14 -13 -65 -23 -115 -11 -49 -35 -166 -55 -260 -20 -93 -46 -219 -59 -280 -14 -60 -35 -157 -47 -215 -12 -58 -26 -113 -31 -123 -8 -16 -67 -17 -1081 -15 -947 3 -1072 5 -1069 18 2 8 10 50 17 93 8 43 16 81 19 86 3 4 12 44 19 87 8 43 29 144 46 224 50 227 85 393 156 735 20 94 45 208 56 255 11 47 23 108 28 135 4 28 22 115 40 195 38 173 70 322 105 485 14 66 40 192 59 280 19 88 45 210 57 270 12 61 28 137 36 170 7 33 25 116 39 185 14 69 34 163 45 210 10 47 31 141 45 210 51 241 77 364 111 515 10 44 21 100 25 125 3 25 23 119 43 210 42 191 65 298 100 465 14 66 41 192 61 280 19 88 35 169 35 181 0 11 5 25 12 32 9 9 483 12 2073 12 1134 0 2064 -2 2066 -5z m9412 -4813 c112 -52 167 -148 167 -290 0 -100 -17 -146 -75 -210 -65 -72 -115 -95 -225 -100 -114 -5 -159 5 -231 56 -43 30 -61 52 -89 106 -32 64 -35 74 -34 160 1 100 16 144 75 210 92 106 270 135 412 68z m-11240 -2332 c53 -25 116 -89 148 -152 57 -110 28 -280 -63 -370 -64 -62 -133 -88 -238 -88 -140 0 -242 58 -296 167 -25 51 -29 69 -29 153 0 81 4 102 24 140 43 84 106 137 196 167 59 19 200 10 258 -17z m6439 0 c70 -32 113 -75 147 -144 27 -54 33 -76 33 -138 2 -143 -57 -243 -177 -299 -51 -25 -72 -29 -145 -29 -107 0 -167 20 -232 79 -58 52 -82 95 -99 179 -24 114 25 248 115 317 86 66 257 83 358 35z m-8741 6 c104 -19 201 -67 267 -132 60 -60 84 -109 102 -205 20 -102 24 -100 -137 -97 l-138 3 -5 35 c-19 113 -107 170 -262 170 -114 0 -185 -32 -222 -100 -31 -58 -32 -77 -5 -134 28 -60 95 -94 277 -140 305 -77 407 -168 420 -372 9 -143 -38 -265 -134 -353 -65 -59 -97 -77 -209 -116 -75 -27 -91 -28 -240 -28 -174 -1 -263 16 -363 67 -111 57 -195 189 -212 332 -5 44 -5 83 -1 87 4 4 68 6 142 5 l134 -3 3 -25 c14 -110 70 -179 169 -210 87 -27 190 -26 271 1 51 17 70 31 107 74 38 44 45 59 45 95 0 61 -35 117 -90 145 -25 12 -119 46 -210 75 -256 81 -334 130 -392 249 -20 40 -23 61 -22 161 1 104 3 120 28 168 52 102 132 169 258 216 117 44 280 57 419 32z m6189 0 c260 -46 418 -206 432 -436 l3 -45 -149 0 -150 0 -18 60 c-24 82 -65 129 -136 155 -49 19 -72 21 -163 18 -99 -4 -110 -7 -170 -40 -173 -97 -279 -306 -279 -548 1 -180 50 -278 174 -346 47 -27 59 -29 161 -29 99 0 116 3 171 28 74 34 132 91 173 171 34 64 39 101 15 110 -9 3 -76 6 -149 6 -79 0 -136 4 -140 10 -10 16 25 173 43 193 14 15 41 17 298 17 156 0 285 -4 288 -9 3 -5 -5 -58 -19 -117 -23 -105 -79 -364 -109 -509 -8 -38 -19 -83 -25 -98 l-11 -28 -87 3 -88 3 -3 50 c-2 28 -7 54 -11 58 -5 4 -32 -13 -62 -38 -106 -91 -207 -122 -359 -110 -351 27 -543 216 -565 556 -21 313 100 618 306 773 79 59 177 110 244 124 28 7 68 16 90 21 60 14 210 12 295 -3z m1488 4 c26 -6 70 -15 97 -21 67 -15 170 -71 223 -122 78 -75 121 -149 149 -255 22 -88 24 -110 20 -242 -8 -225 -58 -383 -173 -547 -86 -122 -221 -214 -384 -264 -99 -30 -308 -33 -415 -5 -207 54 -334 174 -396 376 -21 66 -24 94 -24 245 l1 170 33 105 c40 123 68 183 126 265 138 195 350 300 608 304 49 0 109 -4 135 -9z m-10482 -34 c3 -7 -4 -52 -15 -99 -12 -46 -21 -91 -21 -98 0 -7 -7 -21 -17 -31 -15 -17 -39 -18 -354 -18 l-337 0 -10 -32 c-6 -18 -13 -51 -17 -73 -3 -22 -16 -78 -27 -124 -15 -62 -17 -86 -9 -95 8 -7 102 -13 299 -16 l287 -5 -2 -40 c-2 -22 -11 -71 -20 -110 l-18 -70 -298 -3 -298 -2 -9 -23 c-13 -31 -41 -143 -50 -202 -10 -71 -71 -327 -82 -347 -8 -16 -25 -18 -148 -18 -82 0 -141 4 -145 10 -6 10 2 52 50 261 14 58 25 114 25 125 0 10 11 69 25 129 33 146 88 404 115 540 23 117 68 322 75 343 7 19 993 18 1001 -2z m480 -1 c6 -15 -15 -129 -76 -410 -17 -77 -39 -183 -50 -235 -11 -52 -33 -158 -49 -235 -16 -77 -41 -194 -55 -260 -38 -182 -54 -247 -64 -257 -5 -5 -71 -7 -148 -6 l-139 3 2 54 c2 30 8 70 14 88 9 28 22 91 43 203 1 8 11 51 20 95 46 213 86 400 106 500 12 61 28 135 35 165 8 30 23 104 35 164 12 60 25 118 31 128 9 16 24 18 150 18 115 0 141 -3 145 -15z m1066 5 c206 -21 310 -123 325 -319 14 -191 -85 -355 -244 -402 -24 -7 -43 -18 -43 -24 0 -7 18 -30 39 -52 63 -63 70 -101 65 -374 l-4 -234 -131 -3 c-92 -2 -136 1 -146 10 -12 10 -14 43 -9 217 7 241 3 260 -74 298 -42 21 -56 22 -235 20 l-190 -2 -6 -25 c-4 -14 -12 -50 -18 -80 -40 -215 -85 -408 -99 -423 -14 -15 -32 -17 -156 -15 -118 3 -140 5 -138 18 2 8 8 39 13 70 6 30 19 93 29 140 21 96 54 253 100 475 17 83 42 202 56 265 40 188 62 291 75 360 6 36 16 71 22 78 12 15 630 17 769 2z m3014 -5 c4 -8 -3 -54 -15 -103 -11 -48 -22 -98 -23 -112 l-3 -25 -212 -3 -212 -2 -14 -48 c-9 -26 -20 -69 -25 -97 -6 -27 -20 -95 -31 -150 -12 -55 -37 -176 -56 -270 -76 -368 -114 -542 -126 -573 l-9 -23 -142 3 -143 3 -3 24 c-2 13 5 62 17 110 11 47 27 120 35 161 20 100 81 393 94 450 10 44 38 180 66 314 8 39 12 76 9 83 -4 10 -51 13 -213 13 -115 0 -211 4 -214 9 -6 10 37 221 48 240 5 8 172 11 587 11 507 0 580 -2 585 -15z m1526 -30 c-1 -22 -11 -78 -22 -125 -10 -47 -28 -130 -39 -185 -46 -222 -93 -445 -113 -530 -17 -76 -31 -151 -50 -260 l-3 -20 335 -5 335 -5 -3 -56 c-2 -31 -11 -85 -20 -120 l-17 -64 -495 0 -495 0 2 25 c2 23 10 59 63 305 11 50 21 104 23 120 4 27 48 236 97 455 10 47 28 135 40 195 23 113 59 280 66 303 3 10 38 12 151 10 l148 -3 -3 -40z m1924 32 c2 -7 -6 -65 -19 -128 l-23 -114 -379 -2 -380 -3 -17 -21 c-10 -12 -18 -34 -18 -49 0 -16 -9 -67 -21 -115 -11 -48 -19 -94 -17 -103 3 -15 37 -17 348 -22 l345 -5 -1 -42 c-1 -45 -21 -148 -33 -173 -7 -13 -61 -16 -359 -20 -193 -3 -353 -8 -357 -12 -4 -3 -17 -55 -30 -115 -13 -59 -29 -129 -35 -154 -20 -84 -47 -79 380 -79 209 0 381 -4 384 -8 6 -11 -31 -199 -45 -224 l-10 -18 -534 0 c-326 0 -536 4 -540 9 -3 6 -1 32 5 58 6 26 15 68 20 93 5 25 28 131 50 235 23 105 48 226 56 269 8 44 19 98 25 120 6 23 15 64 19 91 18 115 109 517 120 531 18 20 1058 21 1066 1z m4440 -2 c6 -14 -4 -63 -61 -330 -13 -60 -33 -155 -44 -210 -44 -214 -71 -345 -96 -456 -29 -137 -30 -145 -9 -153 9 -3 159 -6 334 -6 175 0 321 -4 324 -8 6 -10 -29 -187 -44 -220 l-10 -22 -487 2 -488 3 -3 24 c-2 13 5 62 17 110 11 47 27 120 35 161 20 100 81 393 94 450 6 25 20 92 32 150 12 58 30 143 40 190 10 47 28 135 41 195 12 61 27 116 32 123 15 19 286 17 293 -3z m1290 -370 c179 -42 290 -156 325 -334 11 -60 8 -219 -6 -241 -4 -6 -144 -10 -373 -10 -202 0 -373 -4 -381 -9 -10 -6 -12 -26 -9 -74 6 -102 63 -163 176 -188 79 -18 144 5 217 76 l56 55 124 0 c71 0 126 -4 130 -10 3 -5 -10 -42 -31 -80 -40 -77 -125 -164 -190 -195 -127 -60 -344 -74 -468 -30 -139 49 -211 120 -256 250 -28 81 -28 271 -1 367 49 172 165 318 305 384 111 53 260 68 382 39z m1185 1 c103 -19 186 -61 224 -115 25 -36 30 -53 34 -119 4 -83 -6 -147 -51 -347 -59 -262 -68 -310 -68 -371 0 -40 -5 -66 -14 -73 -9 -8 -54 -11 -132 -9 l-119 3 -3 27 c-4 36 -29 37 -80 3 -101 -67 -256 -85 -387 -44 -193 59 -248 285 -110 453 57 69 186 127 315 140 300 30 345 41 380 98 43 71 9 135 -93 173 -95 36 -195 4 -258 -82 l-40 -54 -117 3 -117 3 3 35 c7 91 85 188 192 238 105 49 289 65 441 38z m1049 -1 c69 -18 131 -61 149 -103 22 -48 52 -40 71 18 24 72 20 70 146 70 94 0 116 -3 121 -15 6 -16 -2 -65 -38 -230 -29 -133 -97 -455 -120 -570 -40 -191 -69 -296 -100 -356 -58 -115 -169 -200 -282 -215 -26 -4 -50 -11 -53 -15 -7 -12 -311 -12 -318 0 -3 5 -27 14 -53 20 -106 26 -189 105 -219 208 -24 83 -24 83 120 83 l124 0 36 -50 c51 -72 86 -90 169 -90 127 0 201 68 262 242 28 81 17 96 -39 53 -78 -59 -177 -82 -286 -67 -156 23 -274 129 -312 282 -4 19 -8 84 -8 144 0 186 58 341 174 460 121 125 293 174 456 131z m2480 5 c137 -22 250 -100 301 -208 17 -37 35 -75 40 -84 14 -27 11 -272 -3 -286 -9 -9 -106 -12 -372 -12 -199 0 -366 -4 -373 -8 -16 -10 -19 -90 -4 -134 7 -20 31 -54 55 -76 57 -53 130 -71 212 -53 49 11 64 21 112 72 l56 59 127 0 c70 0 130 -4 133 -9 12 -18 -59 -137 -114 -192 -94 -94 -219 -138 -393 -139 -228 0 -367 85 -438 268 -19 48 -22 76 -22 182 1 107 5 137 28 210 97 306 342 459 655 410z m-1462 -57 c2 -18 -11 -97 -28 -175 -17 -79 -42 -195 -56 -258 -13 -63 -29 -138 -36 -167 -28 -132 45 -215 172 -194 64 11 101 33 155 93 63 70 81 114 120 303 71 341 87 410 97 423 15 17 257 17 263 -1 6 -13 3 -29 -40 -222 -14 -66 -37 -176 -51 -244 -13 -69 -33 -163 -43 -210 -11 -47 -30 -135 -42 -196 -12 -60 -23 -116 -25 -123 -3 -10 -34 -12 -131 -10 l-128 3 1 25 c0 14 4 35 8 48 11 34 -18 28 -68 -13 -23 -19 -69 -47 -102 -62 -55 -26 -68 -28 -184 -28 -103 0 -131 3 -160 19 -49 26 -88 64 -113 111 -29 55 -29 195 0 320 12 50 26 115 33 145 40 186 62 294 76 360 9 41 18 78 21 83 2 4 62 6 131 5 l127 -3 3 -32z"/>
<path d="M8016 18314 c-14 -26 -26 -48 -26 -50 0 -2 -53 -113 -119 -246 -65 -134 -201 -412 -301 -618 -319 -655 -404 -828 -552 -1130 -80 -162 -223 -455 -318 -650 -277 -569 -386 -792 -579 -1184 -220 -447 -218 -422 -21 -362 25 8 59 18 75 24 17 6 64 20 105 33 113 33 190 57 245 74 28 9 72 21 99 26 27 6 58 17 70 24 12 7 36 15 55 17 l34 3 27 -155 c36 -209 46 -247 95 -375 13 -33 41 -107 63 -165 46 -120 67 -161 122 -245 22 -33 47 -75 56 -94 21 -46 90 -149 124 -186 15 -16 45 -57 65 -89 53 -83 464 -493 552 -550 38 -25 76 -52 83 -61 25 -30 412 -280 510 -329 52 -26 106 -54 120 -62 50 -27 278 -134 287 -134 4 0 52 -18 106 -40 53 -22 103 -40 110 -40 6 -1 30 -9 52 -20 22 -11 45 -19 50 -20 6 0 66 -17 135 -39 195 -60 328 -95 430 -113 36 -6 92 -19 124 -29 33 -11 83 -19 111 -19 28 0 75 -7 105 -16 30 -8 107 -19 170 -24 63 -4 151 -14 195 -21 110 -18 896 -19 1010 -1 44 7 127 17 185 21 96 8 216 26 345 52 28 6 88 17 135 24 46 8 96 19 110 24 14 6 54 17 90 25 146 33 191 45 232 59 24 8 84 27 133 42 50 15 106 33 125 40 19 7 62 23 95 35 57 21 90 34 208 81 75 30 218 94 247 111 8 4 26 13 40 19 14 6 32 15 40 20 8 5 33 18 55 29 22 11 58 31 80 43 22 13 63 36 90 52 28 15 57 33 65 40 8 7 31 21 50 30 19 10 51 31 70 46 19 16 40 29 48 29 7 0 31 17 55 38 23 21 60 49 82 62 22 14 58 41 80 61 22 19 72 59 110 88 100 74 438 413 491 492 24 37 51 72 60 80 18 15 137 190 179 264 15 28 43 73 60 100 18 28 56 104 85 170 29 66 56 125 61 130 4 6 13 33 20 60 6 28 15 55 20 60 4 6 13 33 20 60 7 28 18 59 25 70 7 11 16 44 20 74 9 67 29 136 39 136 24 0 35 -101 37 -355 3 -254 -6 -393 -33 -520 -6 -25 -17 -79 -25 -120 -8 -41 -21 -91 -28 -110 -7 -19 -26 -75 -41 -125 -16 -49 -41 -116 -56 -147 -16 -31 -37 -79 -48 -108 -23 -61 -118 -231 -175 -314 -63 -91 -66 -97 -54 -120 17 -31 189 -206 204 -206 6 0 56 47 111 104 54 57 213 222 353 367 140 145 378 392 529 549 152 157 339 350 416 430 550 566 652 676 658 706 5 24 2 33 -12 40 -11 5 -187 173 -392 374 -206 201 -452 440 -547 530 -95 91 -309 298 -475 460 -353 346 -885 857 -955 918 -27 23 -56 42 -65 42 -8 0 -46 -33 -84 -74 -37 -40 -81 -80 -98 -89 -31 -16 -147 -131 -228 -227 -25 -30 -141 -152 -257 -270 -115 -118 -213 -223 -216 -233 -3 -10 6 -38 22 -65 58 -98 154 -300 175 -367 12 -38 30 -97 40 -130 10 -33 28 -118 40 -189 19 -110 21 -150 15 -270 -7 -144 -24 -246 -41 -249 -5 -1 -20 27 -33 63 -13 36 -38 92 -54 125 -17 33 -38 74 -46 90 -8 17 -27 48 -42 70 -15 22 -53 78 -83 125 -31 47 -75 105 -98 130 -23 25 -50 58 -59 73 -22 36 -154 173 -180 187 -16 9 -31 -1 -102 -68 -148 -139 -723 -732 -731 -754 -5 -13 -2 -29 7 -42 18 -28 188 -201 252 -257 76 -67 698 -670 703 -681 5 -13 -160 -180 -274 -276 -202 -172 -511 -362 -725 -447 -25 -10 -82 -35 -126 -57 -45 -21 -88 -38 -95 -38 -8 0 -45 -13 -84 -29 -81 -35 -258 -91 -284 -91 -10 0 -44 -9 -76 -20 -32 -11 -60 -20 -63 -20 -3 0 -152 146 -331 324 -324 322 -372 367 -443 420 -37 28 -494 484 -541 541 l-25 30 -38 -12 c-22 -6 -104 -31 -184 -56 -139 -43 -289 -88 -725 -218 -250 -75 -370 -111 -510 -154 -323 -100 -442 -135 -461 -135 -14 0 -50 30 -105 88 -171 180 -283 340 -384 548 -79 162 -105 240 -105 320 0 50 -4 64 -20 75 -17 12 -22 36 -36 179 -25 252 -2 455 78 700 33 98 123 292 172 370 16 25 45 72 65 104 20 33 59 85 87 115 28 31 71 83 95 116 49 67 169 184 239 232 25 17 63 50 85 73 22 23 63 54 91 70 28 16 59 39 70 51 10 12 37 30 59 39 22 10 59 34 83 55 47 41 55 76 24 116 -10 13 -37 58 -61 99 -23 41 -46 82 -51 90 -6 8 -31 56 -56 105 -26 50 -64 115 -84 146 -21 31 -53 90 -73 131 -20 40 -45 82 -57 93 -20 19 -99 148 -168 278 -18 34 -57 103 -86 152 -30 50 -71 124 -93 165 -22 41 -57 104 -79 140 -63 106 -73 123 -89 157 -32 69 -129 229 -153 256 -37 39 -56 34 -86 -19z"/>
<path d="M10911 16122 c-20 -14 -9 -45 61 -165 35 -59 108 -188 163 -288 178 -321 220 -392 236 -402 12 -7 27 4 70 49 252 269 338 359 473 499 149 153 184 203 156 220 -6 4 -51 11 -98 16 -48 4 -116 15 -152 23 -36 8 -88 15 -115 16 -28 0 -82 7 -120 16 -82 19 -650 32 -674 16z"/>
<path d="M9435 15760 c-6 -10 -49 -35 -105 -61 -14 -6 -32 -15 -40 -20 -8 -5 -30 -16 -48 -24 -18 -9 -54 -30 -80 -48 -26 -18 -54 -36 -63 -42 -9 -5 -76 -50 -149 -99 -112 -75 -161 -117 -323 -280 -147 -146 -210 -218 -270 -305 -61 -87 -76 -116 -65 -122 20 -13 63 -11 105 5 49 18 198 62 241 71 18 4 45 13 60 21 15 8 34 14 44 14 9 0 40 9 70 19 59 21 137 45 278 86 52 14 104 30 115 35 11 5 31 11 45 15 36 8 157 44 210 61 25 9 63 20 85 25 22 5 49 14 60 19 11 5 47 16 80 25 95 26 139 40 153 48 16 11 15 48 -2 72 -20 29 -123 209 -169 295 -22 41 -48 86 -57 100 -10 14 -25 42 -33 63 l-16 37 -60 0 c-33 0 -63 -5 -66 -10z"/>
<path d="M17462 4169 c-63 -15 -142 -97 -165 -170 -21 -69 -21 -91 -1 -159 21 -71 101 -157 159 -170 131 -31 212 0 288 109 25 37 31 57 35 116 3 44 -1 87 -8 110 -15 47 -81 120 -131 145 -46 24 -121 32 -177 19z m163 -83 c45 -19 59 -51 51 -110 -6 -37 -13 -49 -37 -61 -36 -19 -36 -31 -3 -101 24 -52 26 -84 5 -84 -12 0 -71 68 -71 82 0 6 -16 31 -36 55 -47 57 -64 46 -64 -41 0 -73 -18 -108 -44 -87 -14 11 -16 39 -16 181 0 91 3 170 7 173 13 13 173 7 208 -7z"/>
<path d="M17477 4043 c-9 -9 -9 -75 1 -90 10 -16 31 -18 77 -9 43 9 55 19 55 53 0 35 -26 53 -79 53 -26 0 -51 -3 -54 -7z"/>
<path d="M6199 1816 c-66 -36 -105 -78 -128 -141 -35 -94 -23 -194 31 -259 16 -20 57 -50 90 -66 108 -54 193 -36 287 58 119 120 85 308 -73 407 -19 11 -55 19 -95 22 -56 3 -73 -1 -112 -21z m218 -90 c32 -37 38 -70 20 -113 -10 -26 -23 -40 -43 -46 -16 -6 -30 -11 -32 -12 -4 -4 39 -88 56 -107 18 -22 9 -48 -17 -48 -13 0 -31 19 -55 58 -54 88 -65 102 -86 102 -17 0 -19 -9 -22 -71 -3 -75 -17 -99 -52 -86 -14 6 -16 28 -16 171 0 146 2 166 18 176 10 7 53 9 111 7 88 -4 96 -6 118 -31z"/>
<path d="M6244 1696 c-3 -8 -4 -31 -2 -52 l3 -39 41 -3 c71 -5 119 52 76 91 -24 21 -110 23 -118 3z"/>
<path d="M12645 1815 c-69 -38 -100 -69 -126 -129 -41 -94 -26 -207 38 -277 80 -88 195 -114 291 -65 79 41 123 98 142 187 11 51 10 64 -9 127 -32 108 -112 171 -226 179 -51 4 -67 0 -110 -22z m216 -91 c39 -37 41 -98 4 -138 -13 -14 -31 -26 -40 -26 -8 0 -15 -5 -15 -10 0 -15 29 -70 51 -99 15 -18 16 -27 8 -37 -16 -20 -48 -17 -57 4 -14 34 -67 117 -82 129 -8 7 -23 13 -32 13 -14 0 -18 -12 -20 -77 l-3 -78 -25 0 -25 0 -3 164 c-2 119 1 167 10 178 10 13 31 15 106 11 85 -5 96 -8 123 -34z"/>
<path d="M12693 1703 c-20 -7 -17 -89 3 -97 33 -13 74 -5 103 20 37 31 39 47 9 68 -21 15 -88 20 -115 9z"/>
<path d="M11575 1616 c-72 -23 -119 -53 -176 -113 -148 -155 -214 -434 -149 -631 21 -64 32 -81 83 -128 73 -68 135 -88 246 -82 124 8 234 73 308 182 53 79 65 103 98 206 23 72 28 104 29 206 l1 120 -38 76 c-63 128 -145 179 -287 177 -41 0 -93 -6 -115 -13z"/>
<path d="M2387 1606 c-8 -9 -21 -42 -27 -73 -7 -32 -20 -98 -31 -146 -24 -110 -25 -163 -3 -171 31 -12 328 -6 379 8 99 26 171 78 194 139 20 51 14 140 -12 178 -43 64 -78 73 -293 77 -164 3 -193 1 -207 -12z"/>
<path d="M14844 1261 c-22 -10 -57 -33 -78 -51 -41 -37 -90 -124 -82 -146 5 -12 44 -14 233 -12 l228 3 3 34 c5 52 -24 116 -71 156 l-41 35 -75 0 c-52 0 -89 -6 -117 -19z"/>
<path d="M16125 900 c-16 -5 -73 -13 -125 -18 -129 -12 -202 -45 -218 -101 -17 -54 -15 -102 4 -130 24 -34 91 -61 154 -61 124 0 242 122 257 266 l6 54 -24 -1 c-13 -1 -37 -5 -54 -9z"/>
<path d="M17152 1254 c-85 -42 -144 -126 -176 -251 -35 -134 -8 -250 72 -311 32 -24 44 -27 111 -26 88 0 125 16 184 77 60 63 97 146 110 249 17 132 -6 201 -87 259 -54 40 -139 41 -214 3z"/>
<path d="M19569 1255 c-25 -13 -61 -41 -79 -61 -37 -43 -74 -119 -65 -134 4 -6 93 -10 230 -10 l224 0 6 21 c17 54 -18 137 -77 179 -37 27 -48 30 -117 30 -60 -1 -86 -6 -122 -25z"/>
</g>
</g>
</svg>
