<svg xmlns="http://www.w3.org/2000/svg" version="1.0" width="4808.000000pt" height="2408.000000pt" viewBox="0 0 4808.000000 2408.000000" preserveAspectRatio="xMidYMid meet">
  <g transform="translate(0.000000,2408.000000) scale(0.100000,-0.100000)" stroke="none">
    <path d="M 0 0 H 48080.0 V 24080.0 H 0 Z" fill="#ffffff" id="background"/>
    <path stroke="none" d="M19570 19941 c-25 -9 -70 -22 -100 -29 -185 -43 -268 -73 -350 -126 -87 -56 -186 -153 -253 -247 -50 -71 -167 -294 -167 -320 0 -8 -4 -19 -8 -25 -8 -8 -62 -178 -82 -254 -32 -125 -63 -302 -75 -426 -4 -33 -11 -67 -15 -75 -8 -12 -70 -14 -387 -14 -264 0 -402 -4 -458 -14 -133 -22 -257 -53 -323 -83 -34 -15 -65 -28 -69 -28 -16 0 -109 -81 -143 -125 -68 -89 -102 -254 -68 -332 49 -112 153 -188 313 -228 187 -46 284 -55 605 -55 164 0 301 -4 304 -9 4 -6 -308 -1283 -385 -1576 -6 -22 -15 -58 -21 -80 -5 -22 -14 -58 -20 -80 -5 -22 -13 -56 -18 -75 -5 -19 -14 -55 -20 -80 -6 -25 -16 -62 -21 -82 -5 -21 -14 -57 -20 -80 -22 -88 -29 -118 -79 -323 -45 -184 -82 -300 -137 -425 -21 -49 -240 -488 -261 -525 -9 -16 -35 -61 -56 -100 -22 -38 -66 -115 -99 -170 -33 -55 -68 -113 -77 -130 -23 -40 -164 -269 -228 -372 -29 -46 -75 -120 -104 -165 -28 -46 -86 -139 -128 -208 -160 -261 -183 -297 -243 -380 -232 -324 -420 -480 -582 -483 -108 -3 -232 62 -354 184 -104 104 -218 293 -291 484 -4 11 -12 31 -18 45 -14 33 -85 246 -111 335 -24 82 -42 149 -81 300 -65 249 -92 352 -101 383 -20 69 -28 98 -34 119 -6 18 38 73 272 340 153 175 407 464 563 643 156 179 287 327 290 330 3 3 34 39 70 80 36 41 67 77 70 80 3 3 34 39 70 80 36 41 67 77 70 80 3 3 34 39 70 80 36 41 67 77 70 80 3 3 34 39 70 80 36 41 67 77 70 80 3 3 34 39 70 80 36 41 67 77 70 80 3 3 23 25 44 50 22 25 143 151 270 280 241 245 327 348 383 459 54 107 45 157 -44 243 -142 137 -384 208 -713 208 -338 0 -542 -62 -765 -230 -49 -38 -130 -110 -180 -162 -161 -167 -203 -223 -544 -728 -218 -324 -290 -418 -413 -540 l-62 -62 -12 29 c-28 66 -37 169 -30 364 6 186 11 242 36 444 6 50 15 124 20 165 5 41 14 148 21 237 25 342 -20 460 -230 596 -122 80 -222 116 -431 159 -84 17 -440 17 -535 0 -316 -56 -569 -176 -686 -324 -21 -28 -72 -118 -113 -201 -41 -84 -120 -246 -176 -362 -142 -292 -144 -296 -168 -337 -57 -99 -79 -138 -156 -278 -45 -83 -416 -823 -478 -955 -103 -219 -153 -325 -200 -425 -28 -58 -71 -148 -95 -200 -122 -257 -284 -585 -403 -815 -78 -151 -108 -208 -168 -315 -14 -25 -38 -70 -55 -100 -16 -30 -33 -59 -37 -65 -4 -5 -17 -27 -29 -47 -12 -21 -31 -55 -42 -75 -12 -21 -35 -63 -52 -93 -17 -30 -38 -67 -49 -82 -10 -14 -18 -29 -18 -32 0 -13 -255 -427 -280 -454 -9 -9 -31 -39 -50 -67 -56 -84 -172 -216 -235 -268 -67 -56 -150 -97 -196 -97 -64 0 -116 67 -150 195 -18 64 -18 415 0 535 7 47 17 117 22 155 20 139 42 253 79 418 13 60 89 375 100 417 12 47 40 157 50 200 10 42 62 242 84 323 9 31 22 81 30 110 8 28 29 99 46 157 18 58 35 119 40 135 21 79 119 378 130 397 6 10 10 22 10 28 0 9 23 62 80 185 104 224 123 287 124 410 0 94 -2 104 -33 168 -65 133 -248 276 -456 357 -87 34 -171 61 -250 80 -27 6 -70 17 -95 23 -25 7 -110 12 -190 12 -134 0 -151 -2 -220 -28 -189 -70 -313 -203 -440 -471 -71 -150 -100 -214 -100 -221 0 -2 -11 -28 -24 -57 -23 -51 -46 -103 -87 -195 -24 -55 -53 -120 -80 -180 -12 -27 -30 -68 -41 -93 -11 -25 -31 -69 -44 -97 -13 -29 -36 -79 -50 -110 -14 -32 -39 -85 -54 -118 -15 -33 -38 -82 -50 -110 -13 -27 -45 -97 -72 -155 -27 -58 -61 -130 -75 -160 -47 -101 -412 -834 -459 -920 -25 -47 -62 -116 -83 -155 -43 -80 -78 -142 -131 -235 -54 -95 -88 -156 -133 -240 -62 -116 -117 -220 -147 -275 -189 -349 -370 -577 -494 -624 -69 -26 -83 -26 -121 -2 -30 17 -31 23 -44 124 -10 81 -10 128 -2 204 14 121 39 253 61 323 4 14 17 57 29 95 11 39 51 160 87 270 37 110 70 215 75 233 16 60 27 97 49 167 12 39 25 84 30 100 5 17 23 77 40 135 17 58 36 120 41 138 5 17 13 47 18 65 5 17 24 79 41 137 32 108 42 139 59 200 5 19 24 82 41 140 17 58 36 121 41 140 17 61 27 92 59 200 32 108 42 139 59 200 5 19 24 82 41 140 32 108 42 139 59 200 5 19 24 82 41 140 17 58 35 119 40 135 5 17 18 62 30 100 27 87 34 113 55 195 9 36 20 81 25 100 5 19 14 58 20 85 6 28 15 66 20 85 5 19 14 58 20 85 6 28 15 66 20 85 16 61 61 242 77 310 8 36 16 116 17 180 1 98 -2 122 -20 160 -56 117 -184 188 -424 235 -89 18 -335 20 -412 4 -104 -22 -180 -41 -238 -59 -52 -17 -78 -27 -190 -78 -19 -9 -64 -33 -99 -54 -34 -21 -65 -38 -68 -38 -2 0 -23 -14 -46 -32 -205 -157 -290 -334 -377 -783 -6 -33 -15 -78 -20 -100 -5 -22 -14 -67 -21 -100 -7 -33 -41 -175 -77 -315 -35 -140 -68 -271 -72 -290 -10 -43 -97 -390 -111 -445 -6 -22 -15 -57 -20 -77 -5 -21 -13 -56 -19 -78 -5 -22 -14 -58 -20 -80 -5 -22 -14 -57 -20 -77 -5 -21 -28 -114 -50 -208 -22 -93 -45 -186 -50 -205 -5 -19 -18 -74 -30 -122 -11 -49 -29 -127 -40 -175 -12 -49 -25 -104 -30 -123 -5 -19 -13 -55 -19 -80 -5 -25 -19 -85 -31 -135 -12 -49 -25 -108 -30 -130 -5 -22 -18 -80 -30 -130 -12 -49 -25 -108 -30 -130 -16 -75 -36 -165 -60 -267 -5 -24 -14 -70 -20 -103 -6 -33 -16 -85 -21 -115 -24 -126 -28 -149 -38 -232 -6 -49 -17 -125 -23 -170 -16 -114 -16 -534 0 -623 51 -277 125 -426 300 -604 243 -245 580 -378 864 -341 97 12 179 30 193 42 5 4 16 8 25 8 9 0 61 23 115 51 352 179 737 592 1092 1169 22 36 63 102 91 148 29 46 52 86 52 89 0 3 8 17 19 31 10 15 28 44 40 65 38 67 58 101 91 157 34 57 54 93 109 193 17 31 44 81 60 110 82 150 102 187 133 246 41 76 61 91 47 34 -12 -48 -28 -124 -40 -183 -5 -25 -15 -113 -23 -197 -17 -204 -3 -403 41 -573 33 -124 34 -129 54 -177 5 -13 13 -33 18 -45 110 -282 343 -549 586 -671 115 -58 170 -79 250 -96 163 -35 226 -39 362 -21 87 12 239 46 265 61 10 5 23 9 29 9 15 0 168 74 238 115 137 81 440 329 552 453 23 26 65 72 93 102 74 79 206 239 288 350 39 52 83 111 98 130 39 52 197 290 272 410 95 154 178 291 178 295 0 2 14 28 31 57 18 29 42 72 55 95 13 24 36 64 50 90 15 27 45 82 67 123 22 41 58 109 80 150 22 41 68 130 103 198 35 67 93 177 128 245 35 67 79 151 98 187 96 178 126 234 182 345 34 66 74 149 90 185 16 36 34 79 42 95 41 93 94 287 94 344 0 30 28 97 116 276 66 134 121 234 128 232 6 -2 14 -30 17 -63 4 -32 12 -97 18 -144 6 -47 15 -123 21 -170 26 -209 29 -228 70 -420 12 -58 24 -116 27 -130 2 -14 9 -45 14 -70 6 -25 15 -64 20 -87 61 -279 125 -522 180 -684 16 -48 29 -94 29 -104 0 -14 -62 -99 -90 -125 -3 -3 -53 -63 -111 -135 -58 -71 -154 -191 -214 -265 -60 -74 -112 -137 -115 -140 -3 -3 -44 -52 -90 -110 -129 -160 -228 -280 -274 -330 -22 -25 -79 -88 -126 -140 -47 -52 -87 -97 -90 -100 -3 -3 -80 -88 -170 -190 -90 -102 -167 -187 -170 -190 -3 -3 -43 -48 -90 -100 -47 -52 -87 -97 -90 -100 -3 -3 -43 -48 -90 -100 -47 -52 -87 -97 -90 -100 -52 -49 -172 -215 -238 -327 -61 -105 -92 -212 -92 -321 0 -164 85 -290 229 -340 47 -16 199 -15 263 2 87 24 110 32 173 62 94 44 136 76 247 191 310 324 302 314 468 503 51 58 147 161 214 230 218 227 279 293 436 475 85 99 165 191 177 205 12 14 91 103 175 199 84 96 158 176 163 178 9 3 28 -28 115 -187 14 -25 35 -61 46 -80 12 -19 33 -55 46 -80 55 -99 71 -125 128 -208 109 -158 128 -183 213 -287 285 -342 625 -598 932 -700 217 -72 465 -87 665 -39 413 100 773 373 1210 919 57 72 139 172 182 222 116 137 198 250 243 336 22 42 44 77 49 77 5 0 5 -25 0 -57 -16 -101 -10 -504 9 -683 9 -91 17 -195 17 -232 0 -102 41 -286 90 -403 58 -141 72 -167 133 -260 110 -168 257 -287 417 -338 117 -38 148 -42 295 -41 305 1 625 109 933 315 154 103 231 167 393 329 146 145 195 202 406 465 213 266 198 247 243 305 19 25 37 47 40 50 3 3 25 30 50 60 25 30 50 61 57 67 6 7 21 25 32 39 11 14 25 23 30 20 5 -4 12 -32 15 -64 3 -31 10 -97 16 -147 5 -49 14 -142 20 -205 12 -119 26 -213 41 -265 4 -16 18 -70 30 -120 97 -408 255 -742 440 -937 146 -152 393 -296 599 -349 195 -51 479 -50 673 1 20 6 52 14 70 19 151 40 419 161 539 242 31 22 59 39 62 39 10 0 151 104 254 188 118 97 314 286 393 382 30 36 57 67 60 70 11 10 127 167 168 228 95 141 186 316 236 455 17 46 45 64 45 29 0 -51 83 -223 151 -315 246 -327 668 -529 1022 -486 83 10 157 25 212 44 73 25 275 125 337 167 31 21 60 38 63 38 6 0 69 43 185 126 229 165 490 431 565 577 11 21 25 43 32 49 20 16 33 0 24 -30 -5 -15 -14 -58 -20 -97 -7 -38 -16 -88 -21 -110 -5 -22 -14 -69 -20 -105 -6 -36 -15 -83 -20 -105 -5 -22 -14 -69 -20 -105 -6 -36 -15 -83 -20 -105 -5 -22 -14 -69 -20 -105 -6 -36 -16 -87 -21 -115 -5 -27 -14 -72 -19 -100 -5 -27 -14 -72 -19 -100 -5 -27 -14 -75 -20 -105 -23 -119 -30 -157 -41 -220 -6 -36 -15 -83 -20 -105 -5 -22 -14 -69 -20 -105 -6 -36 -15 -83 -20 -105 -5 -22 -14 -69 -20 -105 -6 -36 -15 -83 -20 -105 -5 -22 -14 -69 -20 -105 -51 -285 -40 -261 -135 -290 -86 -25 -204 -83 -295 -144 -148 -98 -328 -303 -393 -448 -38 -85 -46 -106 -65 -163 -57 -175 -67 -246 -66 -455 0 -221 25 -355 96 -535 93 -232 225 -412 413 -560 141 -110 326 -202 465 -230 19 -4 53 -11 75 -17 22 -5 94 -15 160 -23 521 -57 1031 229 1276 716 55 110 76 168 108 294 32 129 42 384 21 497 -25 131 -34 167 -52 223 -24 70 -87 202 -158 330 -28 50 -59 108 -69 130 -20 42 -20 43 9 213 18 111 30 181 40 240 5 31 14 86 20 122 6 36 15 91 20 123 6 31 14 83 20 115 5 31 14 85 20 120 5 34 15 90 20 125 6 34 15 88 20 120 6 31 15 84 20 117 6 33 15 87 20 120 6 33 15 87 20 120 6 33 14 86 20 118 5 31 14 87 19 123 6 37 15 78 20 92 10 24 12 25 38 12 15 -7 48 -22 73 -33 25 -11 66 -29 91 -40 74 -34 246 -87 354 -111 193 -42 327 -66 506 -91 99 -14 520 -14 618 0 162 23 219 32 291 47 41 8 91 19 110 23 96 20 305 83 455 138 76 28 105 40 200 80 81 35 342 166 404 203 34 22 65 39 67 39 21 0 432 291 499 353 17 15 49 42 72 60 60 45 287 278 359 367 100 124 196 275 255 399 18 39 36 71 40 71 4 0 12 -37 18 -82 98 -674 559 -1197 1322 -1498 332 -131 755 -209 1144 -209 141 -1 411 20 518 39 31 5 81 14 110 19 98 18 204 42 267 60 19 5 51 14 70 19 196 53 570 209 745 310 104 60 142 84 250 156 103 68 187 128 205 146 3 3 30 25 60 50 285 231 591 592 785 925 16 28 37 64 47 80 20 34 178 352 201 405 8 19 32 78 52 130 20 52 40 104 45 115 29 72 74 201 90 260 5 17 23 77 40 135 36 120 45 152 81 315 21 93 38 208 50 333 7 72 16 132 20 132 22 0 140 -100 299 -255 112 -107 164 -149 243 -194 20 -11 54 -31 75 -43 20 -12 199 -104 397 -203 523 -264 594 -303 767 -427 157 -112 238 -209 281 -338 34 -102 33 -184 -5 -320 -69 -249 -285 -460 -553 -541 -22 -6 -51 -15 -65 -19 -171 -53 -535 -53 -750 0 -236 58 -405 130 -521 222 -36 29 -81 64 -99 78 -19 14 -45 34 -59 46 -47 38 -175 120 -209 134 -19 7 -37 9 -42 4 -5 -5 -32 -54 -61 -109 -28 -55 -80 -155 -115 -222 -35 -68 -93 -179 -129 -248 -36 -69 -95 -182 -131 -252 -37 -71 -100 -193 -141 -273 -42 -80 -79 -149 -84 -154 -17 -19 -9 -53 19 -76 27 -24 147 -100 157 -100 3 0 24 -9 48 -19 107 -48 188 -74 422 -136 217 -57 293 -76 365 -90 110 -22 155 -29 395 -66 33 -4 87 -13 120 -18 150 -25 374 -34 533 -22 86 6 183 16 215 21 220 38 249 44 387 82 170 48 313 99 455 162 28 12 66 29 85 36 35 14 185 91 250 127 280 160 533 367 673 550 44 57 116 191 182 338 52 114 128 265 134 265 3 0 17 -35 30 -78 14 -42 28 -84 32 -92 136 -298 247 -459 461 -665 116 -113 166 -154 298 -242 131 -89 166 -109 315 -182 169 -84 259 -119 460 -179 167 -50 257 -69 480 -101 95 -14 355 -31 473 -31 93 0 316 19 452 39 36 5 88 13 115 16 104 14 317 62 470 105 75 22 103 30 140 40 69 19 98 28 170 50 39 12 84 25 100 30 17 5 62 18 100 30 39 12 80 24 91 27 33 8 64 120 64 233 1 67 9 159 40 443 16 137 29 259 40 355 24 216 30 273 39 357 5 50 12 107 16 128 10 53 1 50 -110 -34 -27 -20 -88 -61 -135 -89 -81 -50 -98 -60 -187 -111 -91 -52 -356 -179 -373 -179 -6 0 -18 -4 -28 -9 -28 -15 -142 -57 -207 -76 -33 -9 -71 -21 -85 -25 -162 -50 -418 -90 -580 -90 -146 0 -354 33 -495 78 -314 101 -573 310 -703 568 -99 197 -157 508 -150 809 l3 150 25 -2 c35 -3 157 -23 208 -34 187 -41 276 -60 392 -88 288 -69 265 -66 645 -63 193 1 391 7 440 12 181 20 271 31 325 40 30 5 87 14 125 20 86 14 215 40 298 61 20 5 54 13 75 18 400 99 772 267 1077 484 142 101 390 351 489 492 65 93 151 250 189 345 32 82 43 114 65 195 89 326 106 678 47 950 -38 177 -83 294 -165 431 -88 146 -256 305 -448 423 -160 98 -399 202 -577 251 -252 70 -395 97 -675 125 -168 17 -579 20 -714 5 -266 -29 -274 -31 -456 -66 -216 -42 -386 -92 -605 -180 -163 -65 -444 -207 -527 -265 -14 -11 -29 -19 -32 -19 -10 0 -213 -138 -286 -194 -181 -139 -279 -225 -440 -386 -230 -230 -410 -467 -582 -765 -37 -64 -158 -309 -158 -319 0 -3 -9 -25 -19 -49 -26 -57 -48 -119 -75 -202 -21 -63 -31 -97 -57 -190 -16 -56 -46 -200 -57 -270 -27 -176 -32 -219 -38 -362 -5 -116 -10 -153 -20 -153 -20 0 -116 85 -244 215 -141 143 -155 153 -350 257 -47 25 -121 65 -165 88 -44 23 -117 62 -162 86 -46 24 -120 64 -165 88 -46 24 -118 62 -160 85 -43 22 -112 59 -153 81 -41 22 -109 58 -150 80 -41 22 -110 58 -152 81 -100 53 -133 77 -219 163 -88 88 -146 174 -173 256 -25 75 -26 110 -6 187 68 263 296 443 655 515 84 17 386 17 460 0 120 -28 147 -35 205 -55 68 -23 255 -117 335 -169 30 -19 96 -61 145 -93 154 -100 184 -115 192 -102 4 7 26 48 49 92 66 128 247 482 367 715 60 118 134 262 163 319 60 115 65 136 32 144 -13 3 -75 24 -138 47 -63 23 -126 45 -140 50 -14 4 -63 22 -110 40 -168 62 -341 116 -450 140 -565 124 -1127 124 -1660 -2 -119 -28 -306 -83 -365 -108 -11 -4 -47 -18 -80 -31 -69 -26 -260 -117 -323 -154 -51 -30 -225 -146 -232 -154 -3 -4 -25 -22 -50 -41 -57 -44 -174 -160 -226 -225 -100 -124 -193 -295 -234 -427 -19 -61 -14 -66 -150 152 -119 189 -178 274 -271 385 -74 88 -182 195 -244 240 -22 17 -42 33 -45 36 -16 19 -199 133 -275 172 -126 64 -302 131 -417 158 -21 5 -57 14 -80 19 -97 23 -277 53 -428 71 -133 16 -689 16 -820 0 -155 -19 -310 -42 -420 -63 -144 -26 -439 -106 -520 -140 -24 -10 -39 -16 -92 -37 -36 -13 -249 -119 -294 -145 -143 -84 -451 -298 -526 -366 -9 -8 -41 -35 -71 -60 -83 -67 -345 -335 -414 -420 -33 -41 -78 -102 -101 -135 -23 -33 -73 -105 -112 -160 -39 -55 -88 -126 -110 -157 -44 -62 -60 -72 -60 -34 0 12 -4 36 -9 52 -5 16 -14 56 -21 89 -12 61 -62 231 -80 273 -6 12 -14 32 -19 45 -79 205 -209 424 -331 559 -98 108 -309 277 -432 347 -21 11 -55 31 -75 42 -268 152 -604 268 -928 320 -121 19 -353 39 -460 39 -97 -1 -346 -21 -400 -34 -11 -3 -49 -10 -85 -17 -64 -11 -181 -40 -250 -60 -72 -21 -198 -74 -300 -126 -111 -56 -124 -63 -290 -163 -132 -79 -162 -96 -284 -159 -101 -52 -115 -53 -116 -9 0 10 -9 52 -19 95 -11 43 -29 116 -40 163 -11 47 -30 127 -43 179 l-22 93 -41 -6 c-22 -4 -62 -11 -90 -16 -27 -6 -75 -14 -105 -20 -30 -5 -80 -14 -110 -20 -30 -5 -82 -15 -115 -21 -33 -6 -80 -14 -105 -19 -25 -5 -72 -13 -105 -19 -33 -5 -85 -15 -115 -21 -30 -5 -80 -14 -110 -20 -30 -5 -80 -14 -110 -20 -30 -5 -80 -14 -110 -20 -30 -5 -80 -14 -110 -20 -30 -5 -84 -15 -120 -20 -35 -6 -68 -14 -73 -19 -16 -16 25 -416 83 -796 33 -217 36 -467 10 -645 -34 -222 -51 -311 -120 -615 -5 -22 -18 -78 -29 -125 -11 -47 -25 -110 -30 -140 -9 -51 -14 -78 -41 -240 -5 -33 -14 -86 -20 -117 -5 -32 -14 -89 -21 -128 -17 -107 -21 -117 -119 -318 -39 -81 -93 -184 -121 -228 -27 -44 -49 -82 -49 -85 0 -2 -20 -35 -43 -72 -24 -37 -75 -116 -114 -177 -39 -60 -100 -156 -137 -213 -36 -56 -66 -104 -66 -106 0 -2 -18 -34 -41 -71 -22 -37 -49 -83 -60 -101 -10 -19 -28 -50 -39 -70 -22 -39 -20 -34 -115 -189 -107 -172 -165 -246 -290 -370 -107 -105 -189 -159 -242 -157 -53 2 -103 46 -133 118 -24 58 -25 65 -25 299 1 136 6 277 13 325 34 231 46 305 63 395 11 55 45 200 59 255 5 19 44 172 85 340 42 168 85 338 96 378 43 162 61 229 70 260 5 17 14 48 19 67 6 19 14 50 19 68 6 17 14 48 20 67 19 71 63 217 82 275 11 33 24 76 30 95 19 64 181 487 200 522 5 10 9 27 9 37 0 11 4 22 9 25 5 3 11 18 14 33 3 16 10 46 17 68 47 167 53 292 19 389 -58 162 -205 310 -396 397 -103 47 -103 47 -188 70 -65 18 -109 22 -240 23 -142 1 -168 -2 -229 -22 -101 -34 -150 -59 -259 -131 -53 -35 -99 -62 -101 -60 -23 29 -166 256 -166 265 0 18 -151 225 -202 276 -84 86 -125 116 -238 171 -107 52 -158 70 -245 87 -33 6 -80 16 -105 22 -57 12 -393 12 -451 -1 -24 -5 -78 -15 -119 -21 -41 -7 -100 -19 -130 -27 -30 -8 -68 -18 -85 -23 -56 -14 -190 -61 -232 -81 -24 -10 -46 -19 -51 -19 -5 0 -26 -8 -48 -19 -140 -67 -194 -94 -234 -117 -57 -34 -239 -157 -265 -181 -12 -10 -41 -34 -65 -53 -161 -124 -395 -366 -586 -605 -98 -123 -118 -150 -248 -345 -163 -245 -175 -267 -345 -610 -88 -179 -171 -343 -184 -365 -13 -22 -52 -87 -87 -145 -62 -103 -79 -132 -121 -207 -12 -21 -25 -42 -29 -48 -4 -5 -17 -26 -27 -45 -26 -47 -225 -379 -274 -457 -21 -35 -58 -93 -81 -130 -57 -93 -135 -216 -268 -423 -62 -96 -140 -218 -173 -270 -290 -457 -352 -550 -493 -731 -190 -244 -372 -396 -464 -387 -51 5 -79 68 -100 221 -20 150 -5 420 41 742 22 150 56 350 79 460 5 22 14 67 20 100 6 33 16 80 22 105 16 76 26 123 38 185 6 33 15 78 20 100 5 22 14 67 20 100 6 33 15 78 20 100 5 22 14 67 20 100 6 33 15 78 20 100 5 22 14 67 20 100 6 33 15 78 20 100 5 22 14 67 20 100 7 33 16 80 21 105 5 25 21 104 35 175 15 72 30 148 35 170 5 22 14 63 19 90 5 28 14 68 19 90 5 22 14 65 21 95 21 96 32 144 40 180 5 19 14 55 19 80 10 45 85 339 101 395 4 17 18 64 29 105 24 83 43 151 67 238 9 31 20 71 24 87 5 17 18 64 29 105 10 41 26 100 35 130 34 126 49 179 67 250 11 41 24 89 29 105 5 17 18 65 29 108 12 42 30 112 42 155 11 42 24 91 29 107 5 17 18 64 29 105 42 159 49 182 59 192 6 6 159 14 398 19 448 11 533 19 694 65 93 27 240 104 288 151 8 7 29 25 47 39 69 52 125 176 125 274 0 179 -188 313 -505 360 -133 19 -329 30 -555 30 -125 0 -229 3 -233 6 -3 3 2 20 12 37 39 70 125 298 159 422 53 193 70 337 53 458 -42 298 -208 450 -550 503 -122 18 -234 17 -291 -5z" fill="#000000" id="000000-000001"/>
    <path stroke="none" d="M36010 16109 c278 -37 463 -111 605 -242 176 -162 276 -374 336 -712 16 -89 17 -339 2 -430 -7 -38 -17 -162 -23 -275 -14 -266 -29 -398 -60 -520 -23 -89 -81 -277 -100 -325 -5 -11 -32 -81 -61 -155 -79 -201 -181 -398 -303 -583 -145 -221 -301 -394 -493 -548 -175 -140 -424 -247 -674 -288 -223 -37 -571 13 -789 112 -100 46 -241 156 -320 252 -47 56 -63 80 -128 198 -54 96 -115 282 -142 432 -64 353 -49 703 49 1138 24 106 33 143 41 167 4 14 13 45 20 70 17 58 88 279 99 305 5 11 15 36 22 55 35 95 132 297 200 416 175 305 382 533 634 701 138 91 204 117 410 164 82 18 192 48 250 68 53 18 76 20 205 15 80 -3 179 -10 220 -15z" fill="#ffffff" id="ffffff-000002"/>
    <path stroke="none" d="M45510 16089 c151 -14 239 -28 370 -61 247 -61 393 -146 470 -274 33 -55 35 -63 35 -148 0 -113 -19 -177 -87 -288 -111 -183 -232 -293 -428 -389 -147 -72 -225 -101 -365 -133 -38 -9 -86 -21 -105 -26 -68 -17 -238 -42 -420 -60 -135 -13 -557 -13 -725 0 -231 18 -341 31 -522 61 l-73 12 0 33 c0 36 32 129 63 184 11 19 25 44 31 55 28 51 133 191 203 271 125 143 262 277 413 404 36 30 67 57 70 60 17 17 126 96 190 137 112 72 112 72 300 121 41 11 102 29 135 40 51 17 80 19 200 15 77 -2 187 -8 245 -14z" fill="#ffffff" id="ffffff-000003"/>
    <path stroke="none" d="M30195 16049 c227 -30 384 -74 544 -155 314 -157 528 -430 625 -799 79 -296 73 -696 -15 -1095 -14 -64 -46 -189 -59 -230 -4 -14 -13 -45 -20 -70 -14 -51 -28 -95 -40 -125 -4 -11 -13 -36 -20 -55 -7 -19 -16 -45 -21 -57 -5 -13 -13 -33 -18 -45 -199 -500 -527 -862 -976 -1077 -175 -84 -320 -135 -542 -190 -103 -26 -160 -36 -330 -61 -92 -13 -486 -13 -555 0 -215 41 -287 70 -453 182 -152 103 -145 93 -126 181 5 23 15 71 21 107 6 36 15 83 20 105 5 22 14 69 20 105 6 36 15 83 20 105 5 22 14 69 20 105 6 36 15 83 20 105 5 22 14 69 20 105 6 36 15 83 20 105 5 22 14 69 20 105 6 36 15 83 20 105 5 22 14 69 20 105 6 36 15 83 20 105 8 39 16 82 40 215 6 36 15 83 20 105 5 22 14 69 20 105 6 36 15 83 20 105 5 22 14 69 20 105 6 36 15 83 20 105 5 22 14 69 20 105 6 36 15 83 20 105 5 22 14 69 20 105 6 36 15 83 20 105 5 22 14 69 20 105 6 36 15 83 20 105 5 22 14 69 20 105 40 225 52 272 81 315 50 74 152 160 279 238 167 101 489 241 615 267 33 7 89 21 125 30 77 21 265 25 385 9z" fill="#ffffff" id="ffffff-000004"/>
    <path stroke="none" d="M23874 16029 c44 -12 69 -21 113 -41 37 -18 146 -120 163 -155 8 -15 22 -39 30 -53 41 -63 80 -193 105 -347 18 -109 21 -499 5 -620 -26 -200 -40 -279 -80 -458 -25 -112 -32 -142 -40 -175 -16 -62 -42 -164 -50 -200 -9 -37 -45 -174 -61 -227 -5 -18 -13 -48 -18 -65 -9 -32 -32 -109 -66 -218 -10 -30 -21 -64 -25 -75 -4 -11 -15 -42 -23 -70 -17 -55 -63 -188 -77 -220 -4 -11 -29 -74 -55 -140 -26 -66 -56 -140 -67 -165 -11 -25 -26 -60 -34 -77 -8 -18 -20 -48 -28 -65 -50 -118 -147 -316 -207 -425 -16 -29 -43 -79 -60 -110 -81 -147 -273 -444 -395 -610 -171 -230 -330 -382 -467 -446 -100 -47 -120 -52 -217 -51 -84 0 -102 4 -154 30 -129 63 -226 209 -274 414 -78 329 -67 797 29 1305 11 55 24 118 29 140 47 204 126 530 151 620 11 39 24 88 30 110 6 22 15 51 19 65 4 14 18 59 30 100 26 87 137 426 149 455 5 11 14 36 21 55 15 42 29 79 41 102 5 10 9 22 9 28 0 6 10 32 21 58 12 26 27 61 34 77 20 48 41 97 60 140 27 60 139 284 165 330 13 22 37 65 53 95 29 52 172 271 202 308 122 153 251 290 360 383 77 64 156 109 251 139 54 18 119 41 144 50 52 21 125 25 184 9z" fill="#ffffff" id="ffffff-000005"/>
    <path stroke="none" d="M26710 9046 c220 -47 371 -153 468 -327 102 -184 109 -455 16 -655 -80 -174 -227 -302 -420 -365 -85 -29 -280 -33 -354 -9 -43 14 -149 67 -160 79 -3 4 -20 19 -38 33 -81 67 -170 203 -203 310 -52 167 -52 349 0 516 53 171 184 291 407 371 32 11 82 29 109 40 62 24 92 25 175 7z" fill="#ffffff" id="ffffff-000008"/>
    <path stroke="none" d="M4870 19910 c-30 -4 -108 -13 -174 -20 -65 -6 -128 -15 -140 -20 -11 -4 -46 -13 -76 -20 -30 -6 -66 -15 -80 -20 -14 -4 -59 -18 -100 -31 -41 -12 -79 -26 -84 -31 -6 -4 -16 -8 -24 -8 -39 0 -277 -130 -366 -199 -56 -44 -193 -183 -236 -240 -150 -199 -230 -463 -201 -662 31 -209 102 -350 252 -500 123 -123 288 -226 419 -261 19 -5 51 -13 70 -19 19 -5 58 -14 85 -20 28 -6 68 -15 90 -20 22 -5 65 -14 95 -20 30 -6 75 -15 100 -20 178 -35 542 -50 707 -29 197 25 435 82 505 120 10 6 23 10 29 10 26 0 221 102 319 168 189 124 339 287 429 462 72 140 90 198 116 364 30 199 -41 402 -194 555 -257 257 -717 422 -1286 461 -156 11 -176 11 -255 0z" fill="#000000" id="000000-000002"/>
    <path stroke="none" d="M4455 16940 c-49 -17 -124 -40 -165 -51 -41 -11 -100 -27 -130 -35 -183 -49 -324 -120 -394 -198 -103 -116 -131 -180 -175 -406 -6 -30 -18 -91 -27 -135 -9 -44 -18 -91 -21 -105 -2 -14 -8 -43 -13 -65 -11 -50 -22 -110 -60 -305 -35 -181 -48 -250 -60 -305 -10 -50 -24 -120 -50 -255 -26 -135 -40 -205 -50 -255 -12 -57 -26 -129 -60 -305 -34 -177 -47 -240 -60 -290 -10 -37 -57 -234 -91 -380 -11 -47 -24 -101 -29 -120 -5 -19 -13 -55 -19 -80 -5 -25 -19 -84 -30 -132 -12 -49 -30 -127 -42 -175 -11 -49 -25 -108 -30 -133 -6 -25 -14 -61 -19 -80 -5 -19 -13 -55 -19 -80 -5 -25 -19 -84 -30 -132 -20 -82 -32 -133 -80 -340 -36 -150 -82 -342 -91 -380 -20 -77 -32 -124 -42 -163 -5 -22 -14 -57 -19 -77 -5 -21 -13 -55 -18 -75 -6 -21 -13 -49 -16 -63 -10 -42 -63 -242 -79 -300 -19 -72 -44 -161 -62 -230 -20 -73 -53 -189 -63 -220 -5 -14 -14 -45 -21 -70 -7 -25 -20 -70 -30 -100 -9 -30 -27 -86 -39 -125 -61 -201 -213 -648 -253 -745 -6 -14 -14 -34 -18 -45 -96 -246 -107 -274 -149 -367 -11 -26 -21 -50 -21 -53 0 -2 -11 -28 -24 -57 -13 -29 -34 -75 -46 -103 -58 -132 -161 -342 -234 -478 -89 -166 -275 -456 -326 -507 -3 -3 -30 -34 -60 -70 -80 -96 -180 -192 -271 -261 -19 -15 -69 -54 -112 -88 -79 -63 -120 -85 -262 -141 -129 -51 -187 -82 -227 -122 -44 -44 -46 -60 -17 -149 72 -220 370 -465 738 -606 36 -14 75 -29 86 -33 90 -39 321 -85 495 -99 453 -37 863 128 1097 439 101 134 224 370 302 575 13 33 27 69 31 80 5 11 18 49 30 85 12 36 25 74 29 85 5 11 23 67 41 125 18 58 36 116 41 130 4 14 17 59 29 100 12 41 26 86 30 100 4 14 13 43 19 65 6 22 20 69 30 105 11 36 29 99 41 140 12 41 26 86 30 100 4 14 18 59 30 100 13 41 58 181 100 310 42 129 87 269 100 310 13 41 30 95 38 120 8 25 18 59 22 75 5 17 23 77 40 135 17 58 36 120 41 138 26 92 46 164 74 267 8 30 22 81 31 113 58 212 212 830 295 1180 61 259 70 299 89 387 5 22 18 81 30 130 26 109 38 165 71 315 6 25 14 61 19 80 5 19 13 55 19 80 18 85 30 135 41 185 6 28 15 68 20 90 5 22 18 81 30 130 22 93 34 148 51 225 6 25 14 61 19 80 5 19 13 55 19 80 5 25 19 86 31 135 12 50 26 110 31 135 6 25 14 61 19 80 5 19 18 76 30 125 12 50 25 106 30 125 5 19 46 184 90 365 44 182 85 346 90 365 5 19 32 130 60 245 28 116 55 226 60 245 5 19 32 130 60 245 28 116 55 226 60 245 5 19 23 94 40 165 30 125 42 167 61 210 44 104 89 293 89 374 0 241 -219 384 -609 397 -143 4 -148 4 -236 -26z" fill="#000000" id="000000-000003"/>
    <path stroke="none" d="M19330 9684 c-230 -29 -465 -141 -591 -283 -113 -126 -199 -343 -199 -503 0 -92 34 -255 72 -348 26 -61 35 -78 69 -130 87 -131 224 -212 444 -264 100 -24 108 -26 235 -47 233 -40 323 -58 430 -87 95 -26 122 -54 137 -143 14 -82 2 -101 -99 -157 -83 -47 -231 -82 -346 -82 -66 0 -151 19 -201 44 -49 26 -107 89 -121 132 -7 21 -17 45 -23 52 -7 9 -82 12 -313 12 l-304 0 0 -72 c1 -210 114 -414 310 -560 31 -23 171 -97 225 -119 33 -13 155 -46 225 -60 89 -18 403 -18 500 0 78 14 200 46 235 60 115 49 131 57 190 90 102 58 220 171 269 257 28 50 61 136 74 194 6 25 16 66 21 92 22 94 5 240 -39 353 -4 11 -14 36 -21 55 -49 133 -155 241 -299 306 -71 32 -181 58 -320 74 -372 42 -442 57 -575 121 -33 16 -77 45 -98 65 -34 34 -37 40 -37 95 0 124 65 201 219 260 20 7 75 13 131 13 56 0 111 -6 131 -13 131 -51 182 -99 203 -192 5 -25 9 -26 97 -32 51 -4 190 -7 310 -7 l217 0 7 29 c12 54 -29 219 -78 316 -79 157 -216 284 -403 371 -93 44 -136 58 -274 90 -64 15 -339 27 -410 18z" fill="#000000" id="000000-000004"/>
    <path stroke="none" d="M11753 9668 c-9 -13 -16 -27 -63 -133 -12 -27 -35 -77 -50 -110 -15 -33 -38 -82 -50 -110 -12 -27 -33 -74 -46 -102 -13 -29 -35 -77 -48 -105 -13 -29 -34 -75 -46 -103 -12 -27 -35 -77 -50 -110 -15 -33 -38 -82 -50 -110 -12 -27 -35 -77 -50 -110 -15 -33 -38 -82 -50 -110 -12 -27 -33 -74 -46 -102 -13 -29 -35 -78 -49 -108 -14 -30 -36 -80 -50 -110 -14 -30 -36 -79 -49 -107 -13 -29 -34 -75 -46 -103 -22 -50 -60 -132 -108 -235 -14 -30 -33 -66 -42 -80 -54 -81 -192 -352 -209 -410 -7 -25 -17 -58 -22 -74 -5 -16 -9 -53 -9 -82 l0 -54 323 0 323 0 19 43 c10 23 30 69 45 102 14 33 33 76 40 95 8 19 20 45 28 58 l14 22 492 -2 491 -3 75 -151 74 -152 45 -6 c24 -3 171 -6 327 -6 324 0 293 -12 270 105 -26 132 -72 238 -198 458 -37 66 -68 120 -68 122 0 2 -20 46 -44 97 -24 51 -56 119 -70 151 -14 31 -37 82 -51 112 -14 30 -36 80 -50 110 -14 30 -37 81 -51 113 -14 31 -39 84 -54 117 -15 33 -40 86 -54 118 -14 31 -37 82 -51 112 -14 30 -36 80 -50 110 -14 30 -37 81 -51 113 -14 31 -39 84 -54 117 -15 33 -40 87 -55 120 -26 57 -43 94 -98 215 -13 30 -39 87 -56 125 -18 39 -42 91 -54 117 l-22 48 -146 0 c-106 0 -149 -3 -156 -12z" fill="#000000" id="000000-000005"/>
    <path stroke="none" d="M11936 8543 c49 -106 87 -187 117 -253 43 -95 88 -194 108 -234 39 -80 53 -76 -251 -76 -264 0 -270 0 -270 20 0 11 4 28 9 38 14 26 35 75 91 217 28 72 58 146 67 165 8 19 19 44 23 55 4 11 15 36 23 55 9 19 20 48 26 63 6 15 13 27 16 27 2 0 21 -35 41 -77z" fill="#ffffff" id="ffffff-000009"/>
    <path stroke="none" d="M23530 9663 c-84 -3 -220 -22 -290 -40 -30 -8 -68 -18 -85 -23 -124 -32 -338 -136 -440 -213 -387 -290 -545 -724 -445 -1219 36 -176 74 -295 133 -418 82 -170 214 -333 356 -441 141 -105 362 -195 591 -241 85 -16 374 -16 465 1 127 24 269 72 380 128 131 67 300 208 391 328 61 79 139 244 163 345 15 63 31 159 31 187 l0 23 -319 0 -319 0 -12 -37 c-44 -145 -153 -285 -260 -335 -95 -45 -130 -53 -236 -52 -176 2 -320 62 -457 193 -60 57 -138 164 -171 236 -17 37 -23 57 -57 165 -10 31 -14 93 -13 195 1 138 3 155 28 220 58 149 154 260 286 330 78 40 102 48 220 71 122 24 284 -5 403 -72 73 -40 174 -140 218 -215 l40 -69 314 0 c245 0 315 3 316 13 4 56 -25 216 -50 272 -76 173 -129 253 -230 353 -117 114 -309 222 -466 261 -191 47 -304 60 -485 54z" fill="#000000" id="000000-000007"/>
    <path stroke="none" d="M36500 9663 c-86 -3 -222 -22 -290 -40 -30 -8 -68 -18 -85 -23 -128 -33 -327 -130 -438 -213 -219 -162 -370 -377 -435 -622 -29 -108 -36 -162 -36 -310 0 -262 49 -477 162 -715 62 -128 117 -206 227 -316 102 -104 175 -157 300 -218 129 -63 173 -80 315 -116 154 -39 433 -47 586 -17 306 61 577 223 744 445 104 140 185 349 192 497 l3 60 -317 3 -317 2 -6 -22 c-79 -281 -297 -434 -565 -399 -131 16 -180 35 -292 108 -134 88 -248 237 -303 398 -54 157 -61 368 -16 490 57 154 163 275 301 342 102 49 133 59 227 73 122 17 275 -13 388 -77 87 -48 178 -146 241 -258 11 -19 24 -20 328 -23 358 -3 336 -8 317 80 -7 29 -17 78 -23 108 -60 283 -302 550 -608 671 -88 34 -94 36 -270 72 -76 16 -212 24 -330 20z" fill="#000000" id="000000-000008"/>
    <path stroke="none" d="M13860 9650 l-135 -5 -3 -1272 -2 -1273 325 0 325 0 2 368 3 367 165 3 165 2 54 -92 c30 -51 83 -142 119 -203 36 -60 73 -125 83 -142 94 -164 161 -278 171 -290 8 -10 96 -13 379 -13 l369 0 0 37 c0 39 -32 137 -60 188 -51 90 -88 148 -144 225 -33 47 -64 87 -67 90 -18 15 -146 213 -169 263 -15 31 -33 64 -40 73 -11 13 -5 24 46 76 109 113 119 124 155 169 39 48 91 139 103 179 48 166 60 295 42 450 -26 223 -104 391 -251 535 -162 160 -331 224 -700 265 -91 10 -689 10 -935 0z" fill="#000000" id="000000-000006"/>
    <path stroke="none" d="M14899 9039 c117 -37 175 -92 206 -195 18 -61 19 -176 1 -227 -26 -76 -113 -141 -221 -166 -136 -30 -481 -35 -505 -6 -7 8 -9 120 -8 311 l3 299 95 6 c162 10 357 0 429 -22z" fill="#ffffff" id="ffffff-000007"/>
    <path stroke="none" d="M16207 9643 c-4 -3 -7 -136 -7 -295 l0 -288 308 -2 307 -3 3 -978 2 -977 323 2 322 3 3 977 2 978 308 2 307 3 7 285 c6 221 5 286 -5 292 -15 9 -1871 11 -1880 1z" fill="#000000" id="000000-000009"/>
    <path stroke="none" d="M28602 9642 c-10 -7 -12 -268 -10 -1273 l3 -1264 793 -3 792 -2 0 290 0 290 -460 0 c-253 0 -461 1 -462 3 -2 1 -5 443 -8 982 l-5 980 -315 2 c-173 2 -321 -1 -328 -5z" fill="#000000" id="000000-000010"/>
    <path stroke="none" d="M30807 9643 c-4 -3 -7 -577 -7 -1275 l0 -1268 795 0 795 0 0 290 0 290 -462 2 -463 3 -5 980 -5 980 -321 3 c-176 1 -323 -1 -327 -5z" fill="#000000" id="000000-000011"/>
    <path stroke="none" d="M33022 9642 c-10 -7 -12 -268 -10 -1273 l3 -1264 813 -3 812 -2 0 285 c0 264 -1 285 -17 286 -10 1 -229 5 -488 8 l-470 6 -3 217 -2 218 437 2 438 3 0 285 0 285 -437 3 -438 2 0 180 0 180 469 0 469 0 7 284 c4 156 4 289 1 295 -8 13 -1563 16 -1584 3z" fill="#000000" id="000000-000012"/>
    <path stroke="none" d="M38197 9643 c-4 -3 -7 -136 -7 -295 l0 -288 308 -2 307 -3 3 -977 2 -978 325 0 325 0 0 980 0 980 309 0 309 0 4 283 c2 160 0 287 -5 295 -8 9 -207 12 -942 12 -512 0 -935 -3 -938 -7z" fill="#000000" id="000000-000013"/>
    <path stroke="none" d="M40493 9643 c-10 -3 -13 -70 -13 -283 0 -244 2 -279 16 -284 9 -3 76 -6 150 -6 l134 0 -2 -697 -3 -698 -155 -5 -155 -5 -6 -275 c-4 -151 -3 -278 0 -283 4 -4 297 -6 652 -5 l644 3 3 260 c1 143 0 270 -3 283 -5 22 -8 22 -153 22 -102 0 -152 4 -160 12 -9 9 -12 175 -12 687 0 372 4 681 8 688 5 9 50 13 142 15 l135 3 9 272 c4 150 6 279 3 288 -6 13 -77 15 -614 14 -334 0 -614 -3 -620 -6z" fill="#000000" id="000000-000014"/>
    <path stroke="none" d="M42107 9643 c-11 -11 -7 -94 7 -153 29 -118 46 -156 203 -460 44 -85 86 -171 93 -190 13 -34 39 -94 86 -198 13 -29 24 -55 24 -57 0 -2 12 -30 26 -62 14 -32 32 -73 40 -90 8 -18 20 -48 28 -65 8 -18 26 -59 40 -91 14 -32 26 -60 26 -62 0 -2 14 -34 30 -70 17 -36 30 -68 30 -70 0 -2 11 -29 25 -60 14 -30 36 -80 50 -110 14 -31 25 -58 25 -60 0 -2 14 -34 30 -70 17 -36 30 -68 30 -70 0 -2 12 -30 26 -62 15 -32 37 -82 50 -111 13 -29 24 -55 24 -57 0 -2 12 -30 26 -62 25 -56 43 -96 69 -158 7 -16 22 -51 34 -77 12 -27 26 -59 31 -72 11 -30 29 -33 193 -39 l117 -4 15 33 c8 19 22 50 30 69 8 19 22 51 30 70 8 19 22 51 30 70 8 19 22 51 30 70 8 19 22 52 31 73 9 20 23 52 30 70 8 17 21 48 29 67 8 19 22 51 30 70 8 19 21 50 29 68 17 41 39 92 60 140 9 20 22 52 30 70 27 64 44 103 70 160 14 32 26 60 26 62 0 2 14 34 30 70 17 36 30 68 30 70 0 2 14 34 30 70 17 36 30 68 30 70 0 2 14 34 30 70 17 36 30 68 30 70 0 2 11 28 24 57 13 29 31 71 40 93 48 115 73 167 229 467 76 146 121 273 132 372 5 53 4 71 -7 77 -7 5 -146 9 -309 9 -225 0 -299 -3 -307 -12 -6 -7 -136 -328 -290 -713 -182 -456 -285 -701 -295 -703 -26 -5 -73 78 -116 208 -23 69 -46 134 -50 145 -5 11 -16 36 -24 55 -9 19 -30 71 -47 115 -17 44 -39 96 -47 115 -34 77 -42 97 -63 150 -12 30 -28 70 -36 88 -8 17 -20 47 -28 65 -8 17 -24 57 -36 87 -21 53 -28 71 -63 150 -8 19 -32 78 -53 130 -20 52 -44 101 -52 108 -12 9 -90 12 -312 12 -163 0 -300 -3 -303 -7z" fill="#000000" id="000000-000015"/>
    <path stroke="none" d="M45111 9636 c-8 -10 -10 -350 -9 -1272 l3 -1259 818 -3 817 -2 0 285 c0 264 -1 285 -17 286 -10 1 -229 5 -488 8 l-470 6 -3 218 -2 217 435 0 435 0 -2 288 -3 287 -432 3 -433 2 0 180 0 180 468 2 467 3 5 283 c3 173 1 287 -5 293 -5 5 -311 9 -791 9 -646 0 -784 -2 -793 -14z" fill="#000000" id="000000-000016"/>
  </g>
</svg>
