<?xml version="1.0" standalone="no"?>
<!DOCTYPE svg PUBLIC "-//W3C//DTD SVG 1.1//EN"
 "http://www.w3.org/Graphics/SVG/1.1/DTD/svg11.dtd">
<!-- Created with svg_stack (http://github.com/astraw/svg_stack) -->
<svg xmlns:sodipodi="http://sodipodi.sourceforge.net/DTD/sodipodi-0.dtd" xmlns="http://www.w3.org/2000/svg" version="1.1" width="424.0" height="132.0">
  <defs/>
  <g id="id0:id0" transform="matrix(1.25,0,0,1.25,0.0,0.0)"><g transform="translate(0.000000,105.600000) scale(0.040000,-0.040000)" fill="#1a6c2a" stroke="none">
<path d="M5601 2188 c-56 -57 -101 -110 -101 -120 0 -11 9 -18 27 -20 14 -2 28 -8 30 -14 2 -6 -35 -51 -82 -99 -48 -49 -84 -96 -83 -104 2 -11 18 -18 48 -21 29 -3 46 -10 48 -20 1 -8 -32 -49 -73 -90 l-76 -75 -75 77 c-42 43 -74 83 -72 90 3 7 23 14 46 16 38 3 42 6 42 30 0 20 -21 48 -84 112 -46 47 -82 88 -80 92 3 5 18 8 35 8 24 0 29 4 29 24 0 31 -175 206 -206 206 -27 0 -209 -181 -209 -207 0 -12 9 -19 25 -21 14 -2 29 -7 33 -11 4 -4 -31 -48 -78 -98 -51 -55 -85 -99 -85 -112 0 -18 6 -21 48 -21 27 0 52 -3 55 -6 3 -4 -41 -56 -98 -117 -58 -60 -105 -117 -105 -127 0 -23 48 -29 186 -23 132 6 167 -4 162 -45 l-3 -27 -71 3 c-58 3 -72 1 -77 -12 -10 -26 3 -46 32 -46 49 0 116 -26 119 -46 10 -64 8 -62 69 -61 52 2 58 4 63 27 6 23 10 25 56 22 56 -4 77 10 67 46 -4 18 -12 22 -49 22 -35 0 -47 5 -59 24 -9 14 -15 37 -13 52 2 22 10 30 35 36 18 5 153 5 300 1 l268 -8 3 -42 c4 -61 -8 -65 -240 -71 -203 -5 -226 -10 -212 -46 3 -9 18 -19 32 -23 29 -7 331 3 380 13 29 6 33 4 43 -25 l11 -31 54 0 c56 0 74 14 74 59 0 32 -3 31 235 62 84 10 160 8 420 -16 17 -2 38 4 47 12 23 21 56 9 38 -12 -7 -9 -20 -15 -29 -13 -48 7 -81 -51 -42 -72 39 -20 121 -8 121 18 0 9 12 26 26 37 23 18 25 24 15 43 -6 12 -17 21 -24 19 -7 -1 -13 13 -15 38 -4 44 -14 55 -54 55 -15 0 -30 5 -33 10 -4 6 -13 9 -20 8 -8 -2 -13 1 -12 6 1 6 15 11 31 13 16 2 34 7 40 12 6 5 31 11 55 13 53 4 73 26 53 59 -10 15 -11 24 -3 32 26 26 5 61 -58 95 -18 9 -32 22 -33 27 0 6 17 19 40 31 22 11 47 26 55 32 12 10 18 8 31 -13 13 -20 25 -25 60 -25 45 0 68 22 46 44 -5 5 -10 18 -10 27 0 21 -74 109 -103 124 -29 15 -23 29 15 35 58 9 49 34 -46 126 -77 75 -91 84 -124 84 -30 0 -48 -10 -98 -53 -130 -110 -143 -149 -56 -157 43 -5 56 -2 69 12 21 23 26 17 27 -29 1 -29 7 -40 31 -54 17 -10 40 -18 51 -18 12 -1 27 -8 34 -16 17 -21 -3 -27 -76 -23 l-59 3 -3 37 c-4 47 -22 62 -67 54 -27 -5 -40 -16 -60 -51 -14 -24 -32 -49 -40 -55 -28 -23 -10 -108 20 -96 8 3 17 1 20 -3 7 -12 -179 -201 -198 -201 -8 0 -49 37 -92 82 -73 75 -77 82 -60 95 11 7 33 13 51 13 59 0 50 24 -46 126 -50 53 -88 100 -84 105 3 5 18 9 35 9 20 0 29 5 29 16 0 23 -199 224 -221 224 -10 0 -63 -46 -118 -102z m989 -54 c0 -17 -24 -29 -40 -19 -8 5 -6 13 6 26 18 20 34 17 34 -7z m-141 -318 c13 -15 10 -18 -54 -51 -30 -16 -33 -80 -5 -110 12 -13 19 -28 15 -34 -11 -18 -97 -13 -124 8 -25 19 -24 22 24 46 14 7 21 23 23 48 3 30 9 40 28 47 13 5 29 21 34 35 11 28 41 33 59 11z m-11 -310 c2 -16 0 -32 -5 -36 -4 -4 -55 -1 -113 6 -137 17 -237 17 -390 -1 -105 -12 -127 -12 -138 -1 -11 11 -11 18 -3 35 11 19 21 21 189 24 97 1 240 3 317 2 l140 0 3 -29z"/>
<path d="M4603 1482 c-40 -3 -58 -18 -45 -39 4 -5 28 -13 53 -16 42 -6 47 -4 53 16 8 30 -11 43 -61 39z"/>
<path d="M7578 1483 c-19 -5 -30 -27 -22 -48 4 -10 20 -15 50 -15 34 0 46 5 54 21 21 38 -20 59 -82 42z"/>
<path d="M6655 1400 c-10 -33 12 -50 65 -50 50 0 75 16 64 43 -6 18 -35 27 -86 27 -28 0 -38 -5 -43 -20z"/>
<path d="M6817 1393 c-25 -29 0 -53 56 -53 37 0 47 4 52 20 4 12 1 27 -5 35 -17 21 -83 19 -103 -2z"/>
<path d="M4460 1190 c-22 -5 -25 -11 -25 -50 l0 -45 55 -5 55 -5 5 -125 5 -125 65 0 65 0 5 125 5 125 55 5 c30 3 60 9 67 13 21 13 26 -14 27 -142 l1 -126 60 0 60 0 5 55 c4 45 8 55 24 55 16 0 36 -28 66 -95 6 -12 31 -15 136 -15 l128 0 6 25 c6 24 10 25 75 25 66 0 70 -1 83 -27 12 -26 18 -28 71 -28 31 0 62 5 68 11 8 8 13 8 17 0 10 -16 116 -14 121 2 2 6 6 85 7 174 3 137 1 164 -12 169 -27 11 -95 12 -107 2 -9 -8 -13 -52 -13 -159 0 -82 -4 -150 -9 -154 -6 -3 -17 12 -27 32 -9 21 -29 66 -45 100 -16 34 -29 66 -29 71 0 5 -11 31 -25 58 l-25 49 -57 6 c-32 3 -63 4 -70 1 -17 -6 -63 -79 -63 -101 0 -11 -4 -23 -10 -26 -5 -3 -10 -14 -10 -24 0 -10 -9 -26 -20 -36 -11 -10 -20 -27 -20 -37 0 -10 -7 -30 -16 -44 -20 -29 -36 -20 -63 36 l-18 37 18 24 c10 13 19 37 19 52 0 36 -34 102 -57 112 -10 4 -66 9 -126 12 -89 4 -112 2 -133 -12 -21 -14 -28 -14 -41 -3 -12 9 -58 13 -172 14 -86 0 -167 -3 -181 -6z m566 -101 c3 -6 -1 -18 -10 -27 -15 -15 -17 -15 -32 0 -19 19 -11 38 16 38 10 0 22 -5 26 -11z m388 -90 c-3 -5 -10 -7 -15 -3 -5 3 -7 10 -3 15 3 5 10 7 15 3 5 -3 7 -10 3 -15z"/>
<path d="M5845 1187 c-21 -12 -22 -329 -1 -346 9 -8 57 -11 147 -9 l133 3 6 23 c7 33 24 32 28 0 3 -26 6 -28 52 -28 51 0 71 19 49 46 -8 10 -8 18 -1 27 19 23 18 74 -2 96 l-19 21 20 23 c11 12 23 30 26 40 4 9 16 17 29 17 12 0 32 10 44 21 22 20 22 24 8 50 -13 26 -20 29 -62 29 -27 0 -57 -7 -68 -15 -10 -8 -28 -15 -39 -15 -39 0 -45 -19 -45 -135 0 -113 -4 -132 -24 -115 -7 5 -43 10 -81 12 l-70 3 -3 119 c-1 66 -7 126 -13 133 -12 14 -89 14 -114 0z"/>
<path d="M6631 1186 c-6 -7 -12 -31 -14 -54 -2 -27 -10 -46 -24 -59 -12 -10 -29 -36 -37 -58 -7 -22 -20 -55 -27 -72 -12 -31 -12 -34 16 -63 45 -46 72 -41 119 25 l14 20 19 -18 c11 -9 30 -17 42 -17 12 0 35 -10 50 -21 16 -12 34 -18 41 -14 6 4 20 -1 30 -10 20 -18 60 -13 60 8 0 26 -20 81 -32 89 -7 4 -24 8 -38 9 -32 1 -85 32 -85 49 0 7 14 21 30 30 25 15 30 23 27 50 -3 39 -17 59 -50 71 -13 5 -26 18 -29 29 -4 16 -14 20 -53 20 -28 0 -52 -6 -59 -14z m89 -111 c-12 -15 -3 -45 19 -62 14 -10 13 -13 -11 -22 -14 -5 -29 -15 -33 -21 -12 -19 -25 0 -25 37 0 20 -7 45 -16 55 -18 19 -13 24 36 31 33 4 43 -2 30 -18z"/>
<path d="M7031 1181 c-16 -16 -21 -32 -19 -54 2 -25 -1 -32 -17 -35 -53 -8 -66 -14 -75 -37 -14 -36 -1 -92 22 -98 15 -4 18 -11 13 -26 -8 -26 36 -70 77 -78 16 -3 31 -10 34 -14 7 -12 111 -11 156 2 65 17 62 89 -3 89 -15 0 -31 -4 -34 -10 -9 -15 -41 -12 -56 6 -7 8 -29 24 -49 34 l-37 19 6 42 6 43 50 13 c30 8 71 11 101 7 29 -3 54 -2 57 2 3 5 7 27 8 48 l4 40 -35 7 c-19 4 -69 11 -111 15 -70 6 -78 5 -98 -15z"/>
<path d="M7333 1193 c-20 -8 -16 -83 5 -99 l17 -14 -17 -14 c-12 -9 -18 -27 -18 -56 0 -29 6 -47 18 -56 l17 -14 -17 -14 c-23 -17 -24 -81 -2 -90 20 -8 212 -8 242 0 19 6 23 12 20 43 l-3 36 -85 1 c-104 0 -109 1 -90 17 8 7 21 25 28 41 12 27 14 27 31 12 21 -19 70 -21 95 -3 12 9 17 23 14 42 -3 28 -6 30 -51 33 -27 2 -55 -2 -63 -9 -11 -9 -15 -8 -20 5 -13 34 3 46 64 46 32 0 63 5 70 12 18 18 15 75 -4 82 -29 11 -90 6 -110 -9 -25 -19 -58 -19 -74 0 -12 15 -43 18 -67 8z"/>
<path d="M7777 1183 c-14 -14 -20 -15 -40 -4 -28 15 -68 2 -91 -31 -21 -30 -20 -56 4 -106 22 -45 59 -64 85 -42 8 6 19 9 25 5 15 -10 12 -71 -5 -85 -13 -11 -20 -8 -40 14 -34 37 -79 33 -83 -7 -4 -34 13 -57 43 -57 12 0 30 -9 40 -20 19 -21 89 -29 100 -11 3 5 18 12 33 15 27 6 72 60 72 85 0 20 -41 84 -65 101 -11 8 -33 20 -50 25 -16 6 -29 15 -28 20 3 16 33 18 59 5 36 -20 54 -6 54 40 0 36 -3 41 -36 55 -46 19 -56 19 -77 -2z"/>
<path d="M6398 1154 c-15 -15 -15 -20 4 -55 24 -47 28 -50 57 -42 20 5 22 10 17 42 -5 32 -35 71 -55 71 -4 0 -14 -7 -23 -16z"/>
<path d="M6318 1050 c-38 -29 -40 -63 -8 -102 15 -18 35 -50 45 -71 25 -54 57 -59 102 -15 32 33 33 36 21 64 -7 16 -21 35 -30 42 -10 7 -18 23 -18 36 0 28 -39 66 -67 66 -11 0 -32 -9 -45 -20z"/>
<path d="M4229 593 c-8 -2 -23 -17 -33 -34 l-18 -31 -29 32 c-20 21 -37 30 -52 28 l-22 -3 0 -100 c0 -90 2 -100 19 -103 23 -5 36 14 36 50 0 29 15 45 25 28 3 -5 15 -10 26 -10 11 0 24 -11 31 -25 9 -19 18 -25 36 -23 l25 3 -2 85 c-2 86 -12 110 -42 103z"/>
<path d="M6455 592 c-37 -5 -45 -16 -45 -68 0 -34 5 -45 25 -58 14 -9 23 -21 20 -27 -4 -5 -10 -7 -14 -4 -5 2 -16 -4 -25 -14 -15 -17 -16 -20 -1 -34 22 -22 74 -12 103 21 30 32 23 77 -15 108 l-27 21 22 12 c12 6 22 16 22 21 0 15 -33 26 -65 22z"/>
<path d="M7152 587 c-15 -19 -22 -97 -14 -152 6 -41 11 -51 30 -53 28 -4 30 3 34 110 4 82 3 87 -18 97 -16 7 -25 7 -32 -2z"/>
<path d="M596 575 c-8 -21 -8 -158 0 -179 11 -29 43 -19 52 17 7 27 13 32 38 32 22 0 30 -5 32 -22 4 -27 27 -47 45 -40 18 7 26 76 18 147 -5 50 -8 55 -31 55 -19 0 -26 -6 -28 -25 -5 -35 -21 -52 -46 -48 -16 2 -22 12 -26 38 -4 26 -10 36 -26 38 -13 2 -24 -4 -28 -13z"/>
<path d="M912 559 c-17 -17 -28 -38 -25 -46 3 -7 -2 -34 -12 -59 -16 -43 -16 -47 -1 -62 16 -16 19 -15 37 11 27 36 56 34 90 -5 26 -31 29 -32 45 -16 18 18 17 22 -47 166 -24 51 -45 54 -87 11z"/>
<path d="M1137 542 c-7 -56 1 -131 16 -149 5 -7 31 -13 59 -13 45 0 49 2 46 22 -2 16 -12 24 -33 28 l-30 5 -1 65 c0 73 -7 90 -33 90 -14 0 -19 -11 -24 -48z"/>
<path d="M1356 575 c-11 -30 -7 -170 6 -183 21 -21 37 -13 46 20 5 21 16 34 28 37 27 5 54 30 47 46 -2 8 -19 15 -36 17 -39 4 -46 25 -12 38 39 15 25 35 -27 38 -35 2 -47 -1 -52 -13z"/>
<path d="M1737 583 c-4 -3 -7 -48 -7 -100 0 -74 3 -95 15 -99 21 -9 43 12 47 44 2 19 9 27 23 27 11 0 26 4 33 8 7 5 14 3 16 -5 17 -62 23 -73 44 -76 l22 -3 0 89 c0 50 -3 97 -6 106 -9 23 -38 20 -73 -9 l-30 -26 -17 26 c-15 24 -52 34 -67 18z"/>
<path d="M2074 573 c-3 -10 -10 -26 -15 -35 -5 -10 -9 -24 -9 -32 0 -8 -9 -30 -20 -48 -11 -20 -17 -42 -13 -56 8 -30 41 -29 53 3 7 18 17 25 36 25 16 0 36 -10 50 -25 26 -28 39 -31 47 -11 7 18 -7 62 -42 136 -21 44 -32 56 -54 58 -19 2 -29 -2 -33 -15z"/>
<path d="M2292 573 c-6 -10 -9 -54 -8 -97 1 -64 5 -81 20 -90 14 -9 22 -6 41 18 l23 29 17 -27 c22 -33 55 -35 55 -3 0 12 -7 33 -17 46 -14 20 -14 29 -4 58 12 32 11 37 -10 59 -28 30 -103 35 -117 7z"/>
<path d="M2576 550 c-14 -22 -26 -49 -26 -60 0 -12 -7 -35 -16 -51 -27 -53 20 -83 52 -34 10 15 26 25 39 25 13 0 32 -11 43 -25 42 -52 70 -15 37 49 -8 15 -15 35 -15 42 0 25 -52 94 -70 94 -10 0 -29 -18 -44 -40z"/>
<path d="M2800 577 c0 -8 3 -17 8 -21 4 -4 12 -44 17 -89 8 -62 14 -82 25 -82 12 0 16 17 20 74 5 74 9 81 53 95 9 3 17 12 17 21 0 12 -14 15 -70 15 -52 0 -70 -3 -70 -13z"/>
<path d="M3022 577 c-12 -14 -10 -166 2 -185 16 -26 61 1 61 37 0 11 9 16 30 16 23 0 30 -5 35 -25 4 -18 13 -25 30 -25 l25 0 0 95 0 95 -25 0 c-21 0 -26 -6 -30 -35 -4 -31 -8 -35 -35 -35 -25 0 -30 4 -31 25 0 14 -3 31 -8 38 -9 16 -41 15 -54 -1z"/>
<path d="M3335 571 c-55 -47 -59 -102 -11 -154 32 -35 38 -37 88 -36 47 2 57 6 87 37 30 32 33 40 28 79 -7 69 -69 117 -103 83 -6 -6 -21 -6 -40 -1 -23 6 -35 4 -49 -8z m122 -61 c13 -18 13 -26 3 -46 -8 -13 -23 -30 -36 -38 -20 -14 -24 -13 -40 5 -25 28 -26 79 -1 106 17 20 22 21 39 9 11 -8 27 -24 35 -36z"/>
<path d="M3617 583 c-10 -9 -8 -176 2 -191 16 -26 46 -9 49 28 5 54 17 55 58 6 35 -43 66 -57 78 -38 2 4 6 48 7 97 l2 90 -26 3 c-25 3 -27 0 -27 -31 0 -18 -3 -37 -7 -40 -3 -4 -25 13 -49 38 -39 41 -70 55 -87 38z"/>
<path d="M4434 582 c-6 -4 -19 -25 -28 -47 -10 -22 -26 -58 -37 -81 -11 -22 -17 -48 -13 -57 9 -25 39 -21 58 8 10 15 26 25 39 25 13 0 33 -11 45 -25 45 -51 62 -15 30 64 -43 108 -64 134 -94 113z"/>
<path d="M4637 583 c-9 -8 -9 -150 -1 -180 9 -32 38 -29 53 5 l13 27 22 -27 c44 -56 87 -15 45 43 -16 23 -19 33 -10 42 17 17 13 62 -7 80 -19 17 -102 24 -115 10z"/>
<path d="M4925 553 c-9 -21 -21 -46 -26 -55 -5 -10 -9 -25 -9 -35 0 -9 -7 -24 -15 -33 -9 -10 -13 -25 -9 -34 9 -24 41 -19 60 9 11 17 25 25 45 25 22 0 32 -7 41 -25 13 -29 43 -33 52 -8 4 9 -3 37 -15 62 -13 25 -27 57 -33 71 -29 69 -67 79 -91 23z"/>
<path d="M5140 577 c0 -8 3 -16 6 -20 4 -3 8 -41 10 -84 4 -80 12 -100 38 -90 13 5 16 22 16 80 0 54 4 78 15 87 30 25 17 40 -35 40 -35 0 -50 -4 -50 -13z"/>
<path d="M5372 578 c-13 -16 -9 -175 5 -189 14 -14 43 0 44 22 3 40 4 44 17 43 6 -1 19 -2 28 -2 8 -1 22 -18 30 -37 15 -37 38 -46 48 -19 9 24 7 167 -3 183 -13 21 -33 8 -46 -30 -9 -26 -17 -34 -36 -34 -19 0 -27 8 -35 35 -12 37 -34 49 -52 28z"/>
<path d="M5669 564 c-20 -21 -24 -36 -23 -81 0 -48 4 -59 28 -79 18 -16 40 -24 66 -24 83 0 129 38 130 108 0 35 -6 49 -29 73 -26 25 -37 29 -88 29 -51 0 -63 -4 -84 -26z m118 -36 c25 -23 30 -67 11 -86 -22 -22 -74 -14 -92 13 -18 27 -16 36 17 73 25 27 35 28 64 0z"/>
<path d="M5956 574 c-3 -9 -6 -44 -6 -79 0 -76 6 -95 31 -95 12 0 21 10 25 28 10 40 14 44 30 31 7 -6 11 -15 8 -20 -3 -5 2 -9 10 -9 8 0 19 -6 23 -14 14 -23 54 -39 66 -27 15 15 22 187 8 196 -6 3 -20 3 -32 0 -16 -5 -19 -12 -14 -34 4 -18 1 -32 -9 -40 -12 -10 -21 -4 -52 34 -40 47 -76 59 -88 29z"/>
<path d="M6652 574 c-12 -8 -22 -24 -22 -34 0 -10 -4 -22 -10 -25 -5 -3 -10 -17 -10 -30 0 -13 5 -27 10 -30 6 -3 10 -17 10 -30 0 -50 76 -61 117 -17 23 24 25 33 20 85 -3 35 -12 66 -23 78 -21 23 -62 25 -92 3z"/>
<path d="M6857 583 c-4 -3 -7 -48 -7 -100 0 -74 3 -95 15 -99 21 -9 43 12 47 44 2 20 8 26 21 24 10 -2 25 2 33 9 11 9 15 8 18 -2 17 -64 23 -74 44 -77 l22 -3 0 89 c0 50 -3 97 -6 106 -9 23 -38 20 -72 -9 l-29 -24 -21 24 c-21 24 -51 32 -65 18z"/>
<path d="M7302 581 c-10 -6 -13 -31 -11 -87 2 -99 10 -114 54 -114 28 0 35 4 35 19 0 11 -4 23 -10 26 -5 3 -10 35 -10 70 0 35 -3 70 -6 79 -7 17 -31 21 -52 7z"/>
<path d="M7523 584 c-9 -4 -13 -33 -13 -94 0 -78 2 -91 19 -100 37 -19 53 -13 49 21 -3 28 1 32 32 43 25 8 35 17 35 31 0 15 -8 21 -35 25 -44 6 -47 33 -5 40 52 9 38 35 -20 37 -27 1 -56 0 -62 -3z"/>
<path d="M7736 568 c-23 -32 -20 -43 19 -86 32 -36 39 -66 9 -41 -15 12 -44 5 -44 -10 0 -5 10 -22 23 -37 22 -25 25 -26 60 -15 68 23 73 80 12 127 -38 29 -39 44 -1 37 28 -6 43 12 26 32 -20 24 -86 19 -104 -7z"/>
<path d="M3940 556 c0 -14 -4 -28 -10 -31 -5 -3 -10 -19 -10 -35 0 -16 -4 -32 -10 -35 -17 -10 -11 -35 8 -35 19 0 42 42 42 76 0 13 5 26 10 29 6 3 10 17 10 31 0 17 -5 24 -20 24 -15 0 -20 -7 -20 -24z"/>
<path d="M6280 536 c0 -14 -4 -28 -10 -31 -5 -3 -10 -17 -10 -30 0 -13 -4 -27 -10 -30 -17 -11 -11 -45 8 -45 19 0 37 36 45 90 3 19 8 43 12 53 5 13 2 17 -14 17 -16 0 -21 -6 -21 -24z"/>
</g>
</g>
  <g id="id1:id1" transform="matrix(1.25,0,0,1.25,0.0,0.0)"><g transform="translate(0.000000,105.600000) scale(0.040000,-0.040000)" fill="#f6921f" stroke="none">
<path d="M628 2277 l-38 -35 0 -599 0 -600 -20 -18 c-20 -18 -25 -41 -14 -69 8 -20 40 -21 47 -2 8 19 61 5 92 -24 20 -19 36 -20 305 -22 l285 -3 10 -23 10 -24 75 7 c71 6 140 29 140 48 0 4 14 13 31 19 26 9 29 14 24 38 -4 19 -2 31 8 37 7 4 16 16 20 26 9 23 20 22 57 -9 17 -15 34 -24 37 -20 3 3 12 1 20 -6 21 -17 42 6 26 30 -7 9 -26 41 -42 70 -28 49 -28 54 -14 82 16 34 31 38 40 13 3 -10 15 -28 26 -40 15 -17 24 -20 38 -13 13 8 20 6 28 -7 9 -16 12 -16 21 -3 21 30 24 62 6 72 -9 5 -16 17 -16 27 0 19 -24 44 -52 54 -23 8 -23 28 0 34 12 3 22 19 28 41 11 46 28 48 32 5 4 -38 17 -43 25 -11 5 18 8 19 22 8 21 -18 30 -4 39 59 5 40 3 48 -16 63 l-23 18 24 19 c21 16 23 24 18 62 -3 24 -9 64 -12 89 -15 110 -15 111 -35 105 -22 -7 -55 32 -65 74 -9 43 -38 65 -64 51 -29 -15 -68 -79 -76 -124 -4 -20 -16 -47 -25 -59 l-19 -22 -21 48 c-21 46 -20 76 2 104 7 9 14 9 28 1 28 -18 50 6 50 53 0 33 4 41 25 49 14 5 25 16 25 24 0 7 7 19 15 26 19 16 20 40 1 40 -7 0 -19 -7 -27 -16 -11 -13 -15 -12 -36 15 -14 17 -31 31 -39 31 -8 0 -19 11 -25 24 -8 17 -22 25 -52 29 -22 3 -53 15 -68 26 -16 12 -36 21 -47 21 -10 0 -23 5 -30 12 -9 9 -20 9 -49 -1 -33 -12 -38 -12 -50 5 -42 60 -62 74 -109 74 -37 0 -45 -3 -40 -15 6 -17 -15 -31 -66 -40 -21 -4 -42 -13 -49 -21 -12 -15 -65 -19 -73 -6 -10 16 24 51 52 54 24 3 27 7 27 38 0 32 -3 35 -32 38 -24 2 -34 -2 -43 -17 -10 -19 -20 -21 -130 -21 -96 0 -121 3 -128 15 -4 9 -24 18 -43 21 -29 5 -40 0 -71 -29z m146 -77 c14 -5 26 -14 26 -20 0 -13 -88 -52 -100 -45 -15 9 -12 36 7 57 18 21 31 22 67 8z m81 -29 c7 -12 -12 -24 -25 -16 -11 7 -4 25 10 25 5 0 11 -4 15 -9z m434 -61 l25 -13 -19 -13 c-25 -19 -114 -18 -160 1 -32 14 -35 18 -24 32 11 12 28 14 84 11 38 -3 81 -11 94 -18z m-234 -120 c6 0 16 9 23 20 8 14 22 20 45 19 49 -2 82 -14 79 -30 -4 -17 25 -39 52 -39 11 0 28 8 38 17 14 12 21 14 30 5 8 -8 7 -13 -5 -18 -23 -8 -21 -24 2 -24 10 0 21 7 25 15 8 21 30 19 51 -5 10 -11 24 -20 32 -20 12 0 23 -20 84 -156 11 -23 19 -64 19 -92 0 -28 5 -54 10 -57 6 -3 10 -46 10 -95 0 -49 -4 -92 -10 -95 -5 -3 -10 -38 -10 -78 l0 -72 -87 -87 c-96 -97 -117 -105 -183 -71 -21 10 -35 12 -37 6 -14 -41 -31 -48 -115 -49 -50 -1 -92 -6 -105 -14 -18 -11 -25 -10 -54 6 l-34 20 -3 107 c-2 98 -1 107 18 117 l20 11 0 278 0 278 -20 18 c-11 10 -22 26 -25 36 -4 13 -16 19 -34 19 -39 0 -41 -13 -41 -347 0 -260 -2 -289 -21 -348 -11 -36 -25 -67 -30 -71 -5 -3 -9 -15 -9 -28 0 -35 -33 -60 -59 -46 -24 12 -29 58 -7 66 7 3 21 29 30 59 10 29 26 61 37 71 18 16 19 33 19 331 0 290 1 314 18 320 9 4 37 22 61 40 24 18 49 33 56 33 7 0 18 7 25 15 12 14 18 11 55 -25 22 -22 45 -40 50 -40z m751 -295 c20 -31 15 -61 -11 -57 -36 6 -50 28 -37 57 15 31 27 32 48 0z m-141 -395 c10 -15 -46 -103 -58 -91 -6 6 -3 25 12 55 21 45 34 56 46 36z m-117 -164 c5 -22 -16 -46 -39 -46 -29 0 -33 20 -8 46 25 27 42 27 47 0z m-690 -92 c0 -28 -23 -43 -40 -26 -7 7 -4 18 7 36 20 30 33 27 33 -10z m286 -25 c-3 -5 -10 -7 -15 -3 -5 3 -7 10 -3 15 3 5 10 7 15 3 5 -3 7 -10 3 -15z m306 1 c10 -18 7 -22 -27 -36 -21 -8 -46 -19 -56 -25 -15 -8 -23 -6 -38 7 -24 22 -21 33 17 55 41 25 91 24 104 -1z"/>
<path d="M2623 2291 c-12 -14 -29 -21 -54 -21 -35 0 -57 -13 -58 -35 0 -15 -36 -17 -78 -4 -51 15 -146 28 -269 35 -86 5 -103 4 -117 -11 -16 -16 -17 -67 -17 -648 1 -558 -1 -633 -15 -643 -21 -16 -19 -20 19 -38 23 -11 61 -16 118 -16 l84 0 29 -30 c26 -27 30 -28 46 -14 29 26 32 74 7 101 l-22 24 21 5 c12 3 26 19 32 35 5 16 15 29 20 29 7 0 11 37 11 100 0 58 -4 100 -10 100 -5 0 -17 14 -26 31 -11 23 -21 30 -35 26 -10 -3 -21 -2 -24 3 -6 10 14 26 44 33 17 4 24 1 28 -14 6 -22 19 -25 26 -5 3 8 16 16 29 18 16 2 23 10 23 25 0 30 7 34 41 24 18 -5 28 -14 26 -23 -3 -17 42 -28 120 -28 50 0 67 12 48 35 -7 8 -9 15 -4 15 4 0 -3 11 -16 25 -19 21 -33 25 -76 25 -57 0 -76 13 -44 30 46 25 8 74 -75 96 -33 8 -76 13 -95 10 -19 -4 -42 -7 -50 -9 -19 -3 -26 16 -8 24 51 23 73 40 76 58 2 14 -2 21 -12 21 -8 0 -20 9 -26 21 -7 11 -14 18 -17 15 -3 -3 -14 -1 -24 5 -30 15 -23 45 16 68 30 18 37 18 41 6 14 -35 24 -10 24 55 0 56 -3 70 -15 70 -9 0 -18 6 -21 14 -3 8 -15 16 -26 19 -19 5 -16 10 26 52 25 26 46 50 46 55 0 16 -27 29 -70 32 -40 3 -45 6 -45 28 0 39 55 40 103 3 20 -15 41 -27 45 -25 5 1 11 -6 14 -17 3 -12 21 -25 47 -34 28 -10 40 -19 38 -31 -4 -20 7 -21 22 -1 7 11 30 16 69 17 54 1 60 -1 94 -35 33 -33 37 -41 40 -103 3 -59 1 -70 -22 -100 -30 -39 -31 -46 -5 -61 l19 -13 -16 -32 c-9 -18 -20 -40 -23 -48 -4 -8 -18 -15 -31 -15 -15 0 -24 -6 -24 -15 0 -10 10 -15 27 -15 44 0 32 -20 -13 -22 -49 -2 -74 -22 -64 -52 5 -16 14 -21 42 -21 20 0 45 -7 55 -17 17 -15 17 -17 1 -35 -13 -14 -14 -21 -5 -30 9 -9 15 -9 24 0 19 19 135 16 146 -4 6 -11 16 -13 35 -9 41 11 52 29 37 65 -13 31 -20 35 -90 45 -46 7 -84 31 -74 46 7 12 59 12 82 0 9 -5 34 -14 54 -20 33 -11 41 -9 75 12 76 49 88 82 37 106 l-25 11 21 27 c11 15 28 28 36 30 7 2 21 4 29 6 8 2 20 8 26 14 6 6 18 9 25 6 10 -3 14 3 14 20 0 14 -7 27 -15 31 -10 4 -15 19 -15 49 0 29 -7 53 -20 70 -11 14 -20 35 -20 47 0 12 -5 30 -10 41 -9 15 -7 21 5 25 22 9 19 26 -4 19 -14 -4 -27 4 -47 28 -38 44 -63 57 -110 54 -33 -2 -39 1 -42 20 -2 12 -12 25 -22 28 -26 8 -70 62 -70 85 0 20 -11 25 -82 35 -40 5 -50 3 -65 -14z m-50 -93 l15 -23 21 19 c20 18 22 18 39 3 10 -10 23 -17 29 -17 6 0 16 -7 23 -15 7 -8 18 -15 26 -15 7 0 25 -5 40 -10 34 -13 19 -32 -28 -36 -18 -1 -42 -4 -52 -6 -14 -2 -21 4 -26 22 -7 27 -21 29 -101 14 -41 -7 -58 8 -39 31 7 8 9 15 6 15 -4 0 -2 9 4 20 14 26 24 25 43 -2z m390 -226 c-3 -9 -8 -20 -10 -24 -5 -10 -93 80 -93 96 0 27 15 24 61 -15 34 -28 46 -45 42 -57z m-96 -180 c-2 -110 -5 -137 -16 -137 -19 0 -47 133 -32 148 6 6 11 34 11 62 0 49 14 80 31 69 5 -3 8 -67 6 -142z m101 -129 c-8 -10 -18 -26 -21 -36 -13 -34 -29 -7 -22 37 10 57 14 61 38 37 19 -18 19 -22 5 -38z m-607 -184 c30 -15 13 -29 -36 -29 -44 0 -62 11 -50 30 8 13 61 13 86 -1z"/>
<path d="M3856 2285 c-3 -10 -19 -15 -45 -15 -44 0 -59 -13 -41 -35 17 -20 -4 -27 -66 -23 -45 3 -49 5 -49 28 l0 25 -199 3 c-142 2 -203 -1 -213 -9 -10 -9 -12 -25 -8 -64 6 -46 4 -58 -20 -95 -28 -44 -28 -83 0 -104 12 -9 11 -17 -3 -51 -22 -54 -23 -198 -1 -241 15 -30 15 -33 -2 -48 -11 -9 -19 -22 -19 -31 0 -8 -9 -19 -21 -25 -22 -12 -21 -35 2 -35 8 -1 24 -7 37 -14 22 -12 23 -17 21 -100 -2 -47 -1 -91 2 -96 3 -6 2 -81 -1 -169 l-5 -158 -38 -33 c-40 -35 -47 -70 -15 -70 10 0 24 -9 31 -20 13 -17 19 -18 54 -7 22 7 92 12 155 12 73 0 118 4 126 12 9 9 13 7 18 -5 18 -48 24 4 24 217 0 156 4 237 11 241 6 4 8 13 5 21 -9 23 61 47 95 33 15 -6 36 -8 46 -5 40 13 118 -107 84 -128 -16 -10 -13 -28 9 -56 l19 -25 15 20 15 20 9 -25 c5 -14 20 -34 32 -45 31 -28 47 -62 59 -128 6 -33 23 -77 39 -101 16 -23 32 -54 36 -69 3 -15 17 -34 31 -43 22 -15 28 -15 68 1 27 10 49 26 56 41 13 30 25 30 45 2 22 -31 86 -52 104 -34 10 10 11 19 4 32 -5 11 -13 44 -16 75 -6 47 -11 58 -32 67 -21 10 -24 18 -24 66 0 40 4 57 16 64 11 6 13 16 9 35 -8 30 -29 36 -39 11 -6 -15 -8 -15 -25 0 -11 10 -22 34 -26 54 -4 20 -12 43 -18 51 -6 7 -16 23 -22 35 -7 14 -24 23 -50 27 -22 3 -55 14 -73 24 -29 15 -32 19 -19 34 8 9 17 24 20 33 3 9 18 24 32 34 24 16 27 16 44 0 17 -16 21 -15 60 18 41 35 41 53 -2 40 -12 -3 -32 -15 -43 -26 -42 -38 -34 1 8 42 37 35 43 47 48 93 4 42 9 52 23 52 37 0 58 43 56 109 -2 54 -1 61 17 61 15 0 19 7 17 33 -1 37 -30 75 -50 68 -7 -3 -18 5 -24 17 -6 12 -24 32 -40 45 -16 13 -27 28 -24 32 3 5 3 20 0 33 -5 18 -17 26 -54 36 -70 18 -144 69 -155 108 -10 33 -28 43 -82 43 -19 0 -34 -6 -38 -15z m34 -120 c-17 -20 11 -60 60 -86 25 -13 45 -28 45 -34 0 -5 -17 -11 -37 -13 -31 -3 -38 1 -50 25 -11 24 -20 29 -68 33 -30 3 -53 8 -52 12 2 3 22 27 45 52 31 34 44 43 54 34 9 -7 10 -14 3 -23z m-247 -49 c60 -12 79 -29 40 -34 -40 -6 -23 -21 49 -45 10 -4 15 -13 12 -24 -7 -25 60 -47 77 -26 7 7 14 11 17 8 3 -3 10 0 17 5 8 7 20 1 38 -20 15 -17 31 -30 36 -30 20 0 41 -65 41 -124 0 -43 -6 -71 -20 -93 -22 -37 -23 -38 -50 -21 -25 16 -38 3 -21 -24 11 -17 10 -23 -8 -42 -11 -11 -21 -36 -23 -55 -3 -34 -6 -37 -67 -65 -40 -19 -65 -19 -146 -2 -88 18 -81 40 14 46 91 6 108 22 66 64 -21 21 -39 28 -79 31 l-51 3 0 164 c0 117 3 163 12 163 21 0 28 16 10 26 -9 6 -15 15 -11 20 3 6 -4 21 -16 34 -13 14 -20 31 -17 39 7 18 5 18 80 2z m465 -179 c4 -35 -22 -46 -49 -21 l-21 19 23 18 c28 23 43 18 47 -16z m70 -89 c23 -23 13 -54 -27 -86 -36 -29 -40 -37 -43 -84 l-3 -53 -42 -15 c-24 -9 -48 -21 -54 -27 -11 -11 -14 -64 -7 -118 4 -28 -24 -26 -37 3 -5 12 -18 22 -28 22 -29 0 -33 30 -6 50 13 10 28 33 34 52 6 18 21 37 33 43 11 5 23 19 26 30 3 12 28 41 56 64 44 37 50 47 50 80 0 51 20 67 48 39z m-188 -495 c0 -9 10 -27 21 -40 18 -18 20 -25 9 -38 -19 -23 -41 -18 -90 24 l-45 39 30 12 c17 7 37 16 45 20 19 10 30 3 30 -17z m139 -273 c5 -53 12 -74 24 -82 10 -5 15 -13 12 -19 -11 -17 -37 -9 -67 23 -27 29 -29 35 -22 87 13 108 43 103 53 -9z"/>
<path d="M3870 1930 c0 -5 7 -10 15 -10 8 0 15 5 15 10 0 6 -7 10 -15 10 -8 0 -15 -4 -15 -10z"/>
<path d="M7342 2223 c2 -15 -3 -17 -28 -15 -57 5 -73 -49 -19 -62 51 -13 88 29 69 78 -8 22 -26 20 -22 -1z"/>
<path d="M7202 2118 c-8 -8 -5 -23 14 -56 16 -28 22 -48 15 -56 -11 -13 -12 -66 -1 -66 5 0 13 14 19 30 5 17 16 30 23 30 25 0 88 21 88 29 0 12 -47 31 -76 31 -16 0 -27 8 -33 23 -13 33 -35 49 -49 35z"/>
<path d="M4300 1730 c0 -5 5 -10 10 -10 6 0 10 5 10 10 0 6 -4 10 -10 10 -5 0 -10 -4 -10 -10z"/>
<path d="M7151 1628 c-8 -18 -15 -38 -15 -45 -1 -6 -5 -15 -9 -19 -17 -17 -4 -24 43 -24 49 0 66 12 33 24 -10 4 -13 10 -7 16 6 6 8 26 6 45 -5 46 -33 47 -51 3z"/>
<path d="M542 863 c-37 -57 -27 -63 93 -63 63 0 105 4 105 10 0 6 -10 10 -23 10 -33 0 -40 10 -22 30 23 26 -1 40 -72 45 l-58 3 -23 -35z"/>
<path d="M2200 870 c0 -5 5 -10 10 -10 6 0 10 5 10 10 0 6 -4 10 -10 10 -5 0 -10 -4 -10 -10z"/>
<path d="M4000 845 c0 -8 5 -15 10 -15 6 0 10 7 10 15 0 8 -4 15 -10 15 -5 0 -10 -7 -10 -15z"/>
</g>
</g>
  <g id="id2:id2" transform="matrix(1.25,0,0,1.25,0.0,0.0)"><g transform="translate(0.000000,105.600000) scale(0.040000,-0.040000)" fill="#000000" stroke="none">
<path d="M0 1320 l0 -1320 4240 0 4240 0 0 1320 0 1320 -4240 0 -4240 0 0 -1320z m1337 947 c27 -9 81 -26 122 -38 162 -47 340 -222 391 -384 7 -22 16 -44 20 -50 7 -10 16 -51 28 -135 10 -72 5 -300 -8 -344 -29 -98 -76 -193 -133 -267 -44 -59 -143 -149 -163 -149 -6 0 -17 -6 -23 -14 -13 -15 -98 -39 -206 -56 -46 -7 -201 -10 -450 -8 l-380 3 -3 723 -3 722 20 8 c11 4 182 6 380 6 295 -2 369 -5 408 -17z m1491 -14 c80 -29 143 -69 189 -123 33 -38 83 -131 83 -154 0 -7 10 -16 22 -19 43 -12 48 6 48 164 0 81 4 150 8 153 5 3 181 6 393 7 357 1 387 0 434 -18 120 -46 198 -109 247 -199 31 -57 68 -188 68 -240 0 -55 -38 -173 -71 -221 -17 -24 -54 -62 -84 -85 -30 -24 -54 -48 -54 -54 -1 -7 23 -36 52 -66 28 -29 59 -67 67 -83 8 -17 19 -37 25 -45 6 -8 31 -62 55 -120 23 -58 63 -152 87 -209 24 -58 40 -108 35 -113 -5 -5 -97 -7 -206 -6 l-197 3 -50 120 c-28 66 -56 136 -63 155 -23 62 -84 178 -111 214 -39 51 -115 86 -187 86 l-58 0 -2 -287 -3 -288 -190 0 -190 0 -3 479 c-1 320 -6 483 -13 492 -19 23 -39 4 -39 -37 0 -38 -4 -52 -43 -139 -21 -50 -93 -132 -147 -169 -19 -13 -68 -34 -109 -47 -64 -20 -98 -23 -250 -25 -97 -1 -184 -5 -193 -10 -16 -9 -18 -35 -20 -277 l-3 -267 -187 0 -188 0 0 724 c-1 447 3 726 9 730 5 3 179 5 388 3 l378 -3 73 -26z m2993 -74 l96 -101 -24 -9 c-13 -5 -35 -9 -49 -9 -13 0 -24 -3 -24 -7 0 -4 46 -54 102 -110 l102 -102 -28 -11 c-15 -5 -43 -10 -62 -10 -22 0 -34 -5 -34 -14 0 -7 44 -59 98 -115 88 -92 122 -117 122 -92 0 5 16 18 35 30 19 11 35 26 35 34 0 19 96 110 109 103 17 -11 13 -61 -6 -78 -10 -8 -35 -22 -56 -32 -47 -22 -43 -40 9 -44 21 -1 48 -7 59 -12 11 -5 43 -11 70 -12 37 -2 50 -7 50 -18 0 -13 -46 -16 -330 -20 -181 -3 -331 -7 -333 -8 -2 -1 -2 -23 0 -49 l3 -48 30 1 c72 2 181 13 197 19 19 7 268 0 396 -11 l72 -6 0 35 c0 42 13 53 43 39 12 -6 30 -13 40 -16 9 -3 17 -15 17 -26 0 -11 -8 -23 -17 -26 -10 -4 -33 -13 -52 -21 -26 -12 -51 -14 -105 -8 -122 12 -407 20 -415 12 -4 -4 -43 -12 -87 -17 -118 -14 -122 -16 -126 -59 l-3 -36 -40 0 c-35 0 -40 3 -43 26 l-3 25 -85 -3 c-47 -1 -89 -5 -94 -8 -14 -8 -32 4 -24 16 3 6 12 8 20 5 7 -3 16 -1 19 4 4 6 30 10 60 10 30 0 66 5 80 12 24 11 26 15 23 72 l-3 61 -308 8 c-170 5 -315 6 -323 3 -10 -4 -14 -23 -14 -69 l0 -64 38 -11 c20 -7 47 -13 60 -14 48 -6 14 -23 -40 -21 l-57 3 -3 -28 c-3 -24 -7 -27 -43 -27 l-40 0 -3 37 c-3 31 -8 38 -34 47 -33 12 -30 26 7 33 22 3 32 50 21 94 l-6 24 -160 0 c-87 0 -161 4 -164 9 -3 5 47 60 111 124 68 68 113 119 109 126 -4 6 -33 11 -65 11 -32 0 -61 3 -64 6 -4 4 37 51 91 106 53 54 97 104 97 111 0 7 -13 13 -30 15 -56 6 -52 19 35 107 47 47 90 85 95 85 6 0 50 -40 99 -90 92 -92 93 -96 32 -102 -16 -2 -31 -8 -33 -14 -2 -5 42 -55 97 -111 54 -55 97 -103 93 -107 -3 -3 -33 -6 -65 -6 -46 0 -58 -3 -58 -15 0 -21 178 -205 198 -205 17 0 202 182 202 199 0 7 -22 11 -59 11 -33 0 -62 4 -65 8 -3 5 15 28 39 52 25 24 45 49 45 55 1 5 27 33 60 60 32 28 59 53 59 58 1 4 -13 7 -30 7 -17 0 -40 5 -51 11 -19 10 -14 18 78 110 54 54 101 99 103 99 3 0 49 -45 102 -101z m1565 -5 c48 -47 83 -89 78 -94 -5 -5 -20 -10 -34 -12 -14 -1 -26 -10 -27 -18 -2 -8 37 -57 86 -109 50 -52 88 -98 85 -103 -3 -4 -32 -8 -65 -8 -47 0 -60 -3 -57 -14 2 -8 52 -65 112 -126 66 -67 105 -115 100 -120 -5 -5 -79 -11 -164 -12 l-155 -3 -5 -115 -5 -115 -34 -3 c-18 -2 -38 1 -43 6 -6 6 -9 53 -9 105 1 52 -2 102 -5 111 -5 14 -29 16 -164 16 -88 0 -161 4 -164 9 -4 5 46 62 109 126 63 65 112 121 109 126 -3 5 -32 9 -64 9 -32 0 -61 4 -64 8 -3 4 36 50 85 101 l91 92 -18 20 c-9 10 -25 19 -35 19 -10 0 -20 4 -23 9 -6 9 168 181 184 181 5 0 49 -39 96 -86z m-814 59 c36 -32 8 -83 -47 -83 -23 0 -41 -10 -69 -39 -35 -36 -41 -38 -79 -34 -23 3 -46 9 -52 14 -5 6 21 38 68 84 71 69 82 75 119 75 25 0 49 -7 60 -17z m107 -109 c27 -34 18 -46 -30 -43 -48 4 -57 -5 -34 -31 13 -15 15 -23 6 -33 -15 -19 -3 -28 19 -15 15 10 25 5 59 -31 77 -80 90 -146 24 -124 -20 7 -29 18 -33 39 -4 22 -16 34 -48 50 -23 12 -51 29 -60 38 -10 9 -32 16 -49 16 -38 0 -66 29 -61 67 3 26 6 28 58 31 61 4 80 14 80 47 0 12 3 25 6 28 10 9 40 -9 63 -39z m-271 -154 c6 -55 14 -60 118 -60 94 0 116 -8 94 -35 -34 -40 -146 -60 -189 -33 -25 15 -49 4 -61 -28 -12 -30 -36 -27 -33 4 2 17 -4 21 -30 24 -28 3 -32 7 -35 35 -5 46 69 135 107 131 22 -2 27 -9 29 -38z m190 -216 c40 -19 40 -36 2 -84 -16 -20 -27 -39 -24 -42 2 -3 -7 -13 -21 -22 -17 -12 -41 -16 -73 -14 -42 3 -47 6 -50 29 -2 15 -12 35 -23 45 -23 21 -25 61 -2 86 21 24 145 26 191 2z m26 -135 c-3 -5 -10 -7 -15 -3 -5 3 -7 10 -3 15 3 5 10 7 15 3 5 -3 7 -10 3 -15z m-1979 -164 c0 -12 -40 -19 -61 -11 -9 3 -12 11 -9 16 8 14 70 9 70 -5z m3000 0 c0 -12 -40 -19 -61 -11 -9 3 -12 11 -9 16 8 14 70 9 70 -5z m-2812 -2 c10 -10 -13 -33 -34 -33 -21 0 -33 15 -24 30 7 11 48 14 58 3z m1771 -54 c-3 -5 -10 -7 -15 -3 -5 3 -7 10 -3 15 3 5 10 7 15 3 5 -3 7 -10 3 -15z m161 -14 c0 -11 -59 -19 -82 -11 -8 3 -11 11 -8 16 8 14 90 9 90 -5z m-1330 -10 c0 -11 -188 -20 -212 -10 -8 2 -11 10 -8 15 9 14 220 9 220 -5z m1120 -15 c0 -23 -4 -25 -44 -25 -46 0 -68 20 -34 31 10 3 25 9 33 14 25 15 45 6 45 -20z m350 15 c0 -12 -40 -19 -61 -11 -9 3 -12 11 -9 16 8 14 70 9 70 -5z m-2110 -233 l0 -34 -53 -2 c-29 -2 -55 -5 -58 -8 -2 -3 -8 -60 -12 -128 l-7 -123 -28 -4 c-15 -2 -36 1 -47 7 -17 9 -20 23 -22 128 l-3 117 -55 11 c-58 11 -74 30 -49 60 10 12 41 14 173 12 l161 -3 0 -33z m307 26 c46 -38 61 -97 33 -134 -21 -28 -18 -52 16 -112 17 -30 27 -58 22 -62 -4 -4 -25 -10 -45 -13 -31 -5 -40 -2 -53 16 -8 12 -15 28 -15 37 -1 27 -48 72 -73 68 -19 -3 -23 -10 -27 -63 l-5 -60 -45 0 -45 0 -3 155 c-1 85 0 160 2 167 7 18 216 18 238 1z m373 -14 c9 -14 27 -53 40 -87 13 -34 38 -93 55 -131 17 -38 28 -72 23 -76 -4 -5 -26 -10 -48 -12 -33 -2 -40 0 -43 17 -6 32 -32 45 -93 45 -65 0 -89 -7 -89 -25 0 -26 -34 -44 -70 -36 -43 9 -42 16 11 129 21 45 39 86 39 90 0 5 12 31 26 60 l26 52 53 0 c46 0 55 -3 70 -26z m280 -144 l0 -165 -45 0 -45 0 -3 155 c-1 85 0 160 3 168 3 9 19 12 47 10 l43 -3 0 -165z m193 42 l3 -123 27 -10 c15 -6 50 -9 77 -7 l50 3 0 -30 0 -30 -125 0 -125 0 -3 150 c-1 82 0 155 3 163 3 9 19 12 47 10 l43 -3 3 -123z m397 98 c0 -21 -6 -26 -35 -30 -25 -4 -36 -11 -38 -25 -2 -11 -15 -30 -30 -42 l-26 -22 17 -19 c14 -16 17 -34 15 -93 -3 -69 -5 -74 -26 -77 -47 -7 -52 10 -52 158 l0 138 38 21 c26 14 52 20 87 18 46 -2 50 -4 50 -27z m382 15 c8 -23 -26 -55 -58 -55 -35 0 -42 11 -29 44 8 21 16 26 45 26 23 0 38 -6 42 -15z m521 -8 c7 -6 12 -22 10 -36 -3 -22 -7 -26 -33 -23 -30 3 -62 3 -145 -1 -43 -2 -45 0 -48 26 -6 52 11 60 112 52 50 -4 97 -12 104 -18z m152 8 c16 -19 35 -19 65 1 14 9 40 14 67 12 38 -3 43 -6 43 -28 l0 -25 -70 -5 -70 -5 -5 -80 c-4 -71 -7 -80 -26 -83 -26 -4 -74 40 -74 68 0 12 9 24 24 30 38 14 42 31 13 54 -22 18 -32 43 -28 69 2 13 48 7 61 -8z m451 5 c21 -12 26 -54 8 -66 -6 -3 -16 -1 -22 5 -18 18 -87 14 -94 -6 -7 -18 29 -53 56 -53 22 -1 64 -38 87 -78 17 -30 17 -34 2 -60 -31 -53 -125 -78 -162 -43 -12 11 -34 21 -51 23 -22 2 -30 8 -30 23 0 30 33 30 65 0 l28 -27 26 18 c52 38 24 117 -38 107 -28 -4 -36 -1 -55 25 -27 38 -27 86 -1 112 22 22 60 26 78 8 10 -9 16 -8 29 5 20 19 45 22 74 7z m-1391 -70 c0 -26 -12 -31 -32 -13 -18 16 -24 44 -11 56 9 10 43 -23 43 -43z m343 -3 c10 -32 -13 -67 -45 -67 -27 0 -33 25 -13 66 20 42 44 42 58 1z m-155 -106 c3 -65 0 -77 -20 -98 -27 -28 -64 -27 -84 2 -12 18 -10 27 11 67 14 26 25 53 25 59 0 20 32 50 49 47 13 -3 17 -20 19 -77z m380 42 c3 -28 -1 -34 -32 -48 -41 -19 -66 -9 -66 27 0 41 19 59 58 56 33 -3 37 -6 40 -35z m-620 -26 c2 -26 10 -42 27 -53 40 -26 45 -75 6 -54 -23 12 -35 1 -19 -17 8 -10 8 -17 -1 -26 -17 -17 -42 2 -56 42 -6 18 -21 43 -33 56 -44 46 -20 98 43 92 27 -2 30 -6 33 -40z m1160 31 c19 -19 -4 -48 -39 -48 -31 0 -46 18 -35 45 6 18 57 20 74 3z m-763 -88 c20 -11 44 -20 55 -20 13 0 25 -12 34 -32 16 -39 4 -59 -22 -35 -11 10 -26 14 -40 10 -15 -3 -24 0 -28 11 -4 9 -23 19 -46 22 -41 7 -55 22 -44 49 8 21 49 19 91 -5z m300 -30 c30 -31 53 -38 72 -19 6 6 23 9 39 7 21 -2 29 -8 29 -23 0 -16 -11 -22 -59 -33 -52 -11 -66 -11 -115 4 -31 9 -67 27 -80 39 l-23 23 28 15 c46 24 77 20 109 -13z m300 -21 c5 -7 34 -8 86 -3 69 6 79 4 85 -10 12 -30 -11 -38 -116 -39 -85 -2 -104 1 -113 14 -6 9 -7 24 -4 33 7 18 52 22 62 5z m515 -204 c0 -7 -1228 -10 -3665 -10 -2437 0 -3665 3 -3665 10 0 14 2753 21 5318 15 1331 -3 2012 -8 2012 -15z m-6518 -203 c0 -74 -8 -100 -23 -85 -11 11 -15 145 -4 162 15 26 27 -8 27 -77z m382 69 c17 -18 17 -21 1 -45 -21 -31 -30 -27 -39 15 -10 50 8 64 38 30z m131 -21 c10 -45 -3 -55 -32 -25 l-26 25 18 20 c22 24 31 19 40 -20z m417 -3 c-3 -33 -1 -37 21 -37 32 0 37 7 27 36 -12 30 5 42 20 14 7 -14 8 -26 2 -33 -14 -17 -6 -66 13 -87 10 -11 12 -20 6 -24 -5 -4 -22 10 -37 29 -31 41 -47 41 -54 0 -9 -55 -25 -30 -28 44 -3 81 2 105 20 99 8 -3 12 -19 10 -41z m1169 0 c8 -72 7 -87 -12 -111 -29 -36 -41 -23 -19 20 21 40 18 57 -17 95 -13 14 -20 28 -17 32 9 9 64 -21 65 -36z m167 -18 c-28 -21 -38 -16 -38 20 0 39 10 44 37 19 l24 -22 -23 -17z m505 1 c25 0 31 -20 13 -38 -16 -16 -19 -15 -38 8 -18 22 -21 23 -29 7 -15 -26 -29 -11 -29 32 0 52 11 58 41 22 14 -17 33 -31 42 -31z m81 16 c4 -35 -4 -39 -34 -16 l-24 18 19 21 c21 24 35 16 39 -23z m430 35 c3 -5 -1 -14 -8 -20 -16 -13 -32 2 -21 19 8 12 22 13 29 1z m61 -57 c-4 -29 0 -54 10 -73 8 -17 11 -32 6 -35 -9 -6 -29 14 -46 47 -14 29 -31 32 -38 6 -8 -29 -27 -15 -27 20 0 36 10 45 30 26 13 -12 20 -13 34 -2 14 10 15 18 7 39 -11 30 -4 43 15 27 10 -8 12 -25 9 -55z m245 36 c0 -5 9 -29 20 -54 11 -26 18 -48 17 -50 -1 -1 4 -10 12 -19 7 -10 11 -17 7 -17 -3 0 -9 0 -13 0 -5 0 -8 6 -8 13 0 18 -72 34 -95 20 -10 -7 -20 -9 -23 -7 -6 7 14 68 38 114 13 26 19 29 31 19 8 -6 14 -15 14 -19z m713 -15 c-15 -19 -31 -32 -35 -29 -10 7 18 61 34 67 27 9 27 -5 1 -38z m1199 28 c22 -20 23 -36 3 -53 -9 -7 -14 -22 -13 -34 2 -13 -3 -21 -12 -21 -11 0 -15 13 -17 50 -2 78 5 89 39 58z m128 -23 c0 -31 -14 -47 -25 -29 -4 5 -13 8 -20 5 -26 -9 -25 8 1 35 31 33 44 29 44 -11z m530 15 c-7 -8 -7 -21 -2 -36 11 -29 1 -111 -13 -107 -13 4 -15 139 -2 155 5 7 13 10 19 7 5 -3 5 -11 -2 -19z m-6796 -6 c-3 -5 -10 -7 -15 -3 -5 3 -7 10 -3 15 3 5 10 7 15 3 5 -3 7 -10 3 -15z m222 -28 c-4 -6 -12 -9 -17 -5 -17 10 -39 -4 -32 -22 4 -12 14 -14 34 -10 26 5 31 1 49 -34 23 -44 11 -63 -15 -24 -15 23 -21 26 -56 20 -46 -7 -58 8 -38 46 7 13 14 29 15 36 1 7 8 20 15 28 11 13 15 13 32 -4 11 -11 16 -25 13 -31z m1144 29 c13 -24 5 -41 -14 -34 -7 3 -19 -2 -26 -10 -19 -24 15 -33 40 -11 l19 17 14 -33 c15 -36 12 -58 -6 -40 -6 6 -28 11 -49 11 -32 0 -40 -4 -49 -27 -7 -18 -13 -23 -20 -16 -7 7 -4 24 12 54 13 24 22 48 21 53 -4 12 26 56 38 56 5 0 14 -9 20 -20z m514 -5 c9 -14 14 -25 11 -25 -2 0 4 -15 14 -34 11 -19 17 -37 14 -40 -3 -3 -25 -3 -48 1 -38 5 -45 3 -60 -21 -27 -41 -37 -20 -13 27 12 23 21 48 20 54 -3 14 27 63 38 63 4 0 15 -11 24 -25z m411 -5 c-5 -8 -11 -8 -17 -2 -6 6 -7 16 -3 22 5 8 11 8 17 2 6 -6 7 -16 3 -22z m301 -6 c-20 -29 -20 -57 -1 -94 18 -34 5 -48 -19 -21 -27 30 -30 81 -6 119 11 18 25 30 31 27 6 -5 5 -15 -5 -31z m1119 6 c8 -16 15 -32 15 -35 0 -3 9 -20 19 -39 23 -40 18 -51 -15 -30 -29 20 -80 10 -95 -18 -7 -14 -14 -17 -21 -10 -7 7 -4 21 10 44 19 30 25 34 57 30 19 -2 35 0 35 6 0 15 -28 35 -39 28 -15 -9 -20 6 -10 32 11 30 26 28 44 -8z m719 9 c-3 -5 -10 -7 -15 -3 -5 3 -7 10 -3 15 3 5 10 7 15 3 5 -3 7 -10 3 -15z m211 -9 c-5 -8 -11 -8 -17 -2 -6 6 -7 16 -3 22 5 8 11 8 17 2 6 -6 7 -16 3 -22z m436 -7 c5 -13 9 -37 9 -52 0 -32 -36 -84 -51 -75 -6 4 -4 13 5 23 20 22 21 94 1 111 -8 7 -12 16 -10 21 9 14 36 -2 46 -28z m196 -6 c22 -24 42 -49 45 -57 2 -7 15 -14 29 -15 27 -2 38 -30 19 -49 -12 -11 -48 22 -96 90 -17 24 -24 27 -36 17 -18 -15 -28 -7 -28 22 0 22 8 35 20 35 4 0 25 -19 47 -43z m420 19 c-7 -16 2 -27 36 -49 16 -11 27 -26 27 -40 0 -30 -24 -62 -39 -53 -9 6 -9 11 -1 21 16 19 5 48 -22 60 -16 7 -23 19 -24 40 -1 17 0 33 3 38 7 12 25 -4 20 -17z m212 -2 c-6 -8 -9 -14 -6 -14 3 0 1 -15 -3 -34 -5 -22 -3 -39 3 -45 6 -6 7 -11 3 -11 -5 0 -3 -7 4 -15 7 -8 10 -15 6 -15 -3 0 -9 0 -13 0 -5 0 -9 5 -9 10 -1 6 -3 12 -4 15 -1 3 -3 8 -5 13 -1 4 -5 15 -10 25 -4 11 -2 29 5 45 13 25 15 32 19 48 0 3 6 2 11 -1 8 -5 7 -11 -1 -21z m65 5 c-3 -5 -10 -7 -15 -3 -5 3 -7 10 -3 15 3 5 10 7 15 3 5 -3 7 -10 3 -15z m604 -35 c-2 -22 -7 -39 -13 -39 -12 0 -19 60 -10 83 10 28 27 -3 23 -44z m-6160 -40 c-2 -38 -7 -69 -13 -69 -11 0 -19 119 -10 143 13 34 26 -8 23 -74z m2012 16 c0 -36 -16 -47 -30 -20 -8 14 -8 26 0 40 14 27 30 16 30 -20z m3554 19 c-3 -5 -10 -7 -15 -3 -5 3 -7 10 -3 15 3 5 10 7 15 3 5 -3 7 -10 3 -15z m1053 -9 c17 0 41 -34 39 -55 -3 -28 -15 -47 -27 -39 -6 3 -5 12 3 21 10 13 6 21 -31 52 -23 20 -39 40 -35 44 4 4 15 0 24 -8 9 -8 21 -15 27 -15z m-7117 -15 c0 -8 -59 -33 -64 -27 -3 3 -6 15 -6 27 0 12 3 24 6 27 5 6 64 -19 64 -27z m3098 -41 c16 10 23 -9 9 -28 -11 -15 -17 -11 -61 33 -31 32 -46 54 -41 62 6 8 19 -1 45 -31 20 -24 42 -40 48 -36z m1416 55 c-3 -5 -10 -7 -15 -3 -5 3 -7 10 -3 15 3 5 10 7 15 3 5 -3 7 -10 3 -15z m220 -30 c-9 -10 -20 -16 -25 -14 -6 4 -6 42 0 64 0 2 10 -4 21 -14 19 -17 19 -19 4 -36z m1545 15 c-11 -13 -14 -13 -27 0 -21 20 -7 39 19 25 17 -8 18 -13 8 -25z m-6199 -4 c0 -28 -12 -31 -40 -10 l-25 19 25 9 c30 12 40 7 40 -18z m1081 -3 c-7 -7 -15 -6 -25 3 -22 17 -9 32 16 19 14 -8 17 -14 9 -22z m1254 13 c3 -4 -6 -15 -20 -24 -23 -15 -26 -15 -31 -1 -10 25 3 44 26 38 11 -3 22 -9 25 -13z m2436 -11 c17 -32 -4 -46 -24 -16 -15 23 -13 37 4 37 5 0 13 -9 20 -21z m-3757 -20 c-3 -5 -10 -7 -15 -3 -5 3 -7 10 -3 15 3 5 10 7 15 3 5 -3 7 -10 3 -15z m2341 -19 c-5 -8 -11 -8 -17 -2 -6 6 -7 16 -3 22 5 8 11 8 17 2 6 -6 7 -16 3 -22z m1578 -13 c-3 -6 -11 -3 -19 8 -7 10 -11 22 -7 28 3 6 11 3 19 -8 7 -10 11 -22 7 -28z m1040 -18 c-17 -17 -37 -1 -22 17 8 10 15 12 23 4 7 -7 7 -13 -1 -21z m607 -3 c-13 -13 -35 7 -25 24 5 8 11 8 21 -1 10 -8 12 -15 4 -23z m-5576 3 c-3 -5 -10 -7 -15 -3 -5 3 -7 10 -3 15 3 5 10 7 15 3 5 -3 7 -10 3 -15z m940 0 c-3 -5 -10 -7 -15 -3 -5 3 -7 10 -3 15 3 5 10 7 15 3 5 -3 7 -10 3 -15z m490 0 c-3 -5 -10 -7 -15 -3 -5 3 -7 10 -3 15 3 5 10 7 15 3 5 -3 7 -10 3 -15z m2210 0 c-3 -5 -10 -7 -15 -3 -5 3 -7 10 -3 15 3 5 10 7 15 3 5 -3 7 -10 3 -15z m1480 0 c-3 -5 -10 -7 -15 -3 -5 3 -7 10 -3 15 3 5 10 7 15 3 5 -3 7 -10 3 -15z m890 -10 c-3 -5 -10 -7 -15 -3 -5 3 -7 10 -3 15 3 5 10 7 15 3 5 -3 7 -10 3 -15z"/>
<path d="M937 1993 c-4 -3 -7 -198 -7 -433 0 -318 3 -429 12 -438 15 -15 178 -16 268 -1 101 16 196 73 240 144 44 71 54 123 53 280 0 137 -3 156 -27 219 -66 175 -172 236 -406 236 -70 0 -130 -3 -133 -7z"/>
<path d="M2383 2007 l-23 -12 0 -165 c0 -116 4 -170 12 -178 24 -24 236 -5 296 27 38 20 60 78 57 151 -5 134 -62 177 -245 185 -43 2 -85 -2 -97 -8z"/>
<path d="M3567 2013 c-13 -12 -8 -348 5 -361 24 -24 206 -6 280 28 40 19 63 74 62 145 -1 105 -35 148 -141 180 -49 15 -194 21 -206 8z"/>
<path d="M6454 2199 c-10 -17 13 -36 27 -22 12 12 4 33 -11 33 -5 0 -12 -5 -16 -11z"/>
<path d="M6454 1679 c-10 -17 13 -36 27 -22 12 12 4 33 -11 33 -5 0 -12 -5 -16 -11z"/>
<path d="M6514 1659 c-10 -17 13 -36 27 -22 12 12 4 33 -11 33 -5 0 -12 -5 -16 -11z"/>
<path d="M4960 1081 c0 -31 4 -40 22 -44 24 -7 78 20 78 39 0 20 -36 44 -68 44 l-32 0 0 -39z"/>
<path d="M5383 1033 c-18 -36 -20 -49 -10 -55 10 -7 66 -1 76 8 5 4 -32 94 -39 94 -3 0 -15 -22 -27 -47z"/>
<path d="M7775 891 c-7 -12 12 -24 25 -16 11 7 4 25 -10 25 -5 0 -11 -4 -15 -9z"/>
<path d="M2612 508 c-17 -17 -15 -28 7 -28 19 0 35 23 24 34 -9 9 -18 7 -31 -6z"/>
</g>
</g>
  <g id="id3:id3" transform="matrix(1.25,0,0,1.25,0.0,0.0)"><g transform="translate(0.000000,105.600000) scale(0.040000,-0.040000)" fill="#ef9525" stroke="none">
<path d="M545 2303 c-11 -3 -23 -10 -27 -17 -4 -6 -8 -332 -8 -723 l0 -713 19 -19 c13 -13 22 -16 30 -8 7 7 15 6 27 -4 14 -12 89 -14 423 -14 278 0 415 4 436 11 17 7 50 17 75 25 25 7 56 23 71 36 14 13 30 23 37 23 18 0 93 71 103 97 5 13 14 23 21 23 18 1 64 68 76 113 6 20 22 51 36 67 37 44 60 140 37 154 -15 10 -19 55 -5 67 8 6 14 21 14 33 0 12 5 27 12 34 10 10 8 17 -9 33 -26 26 -43 18 -43 -21 0 -44 -19 -46 -36 -3 -9 21 -18 40 -21 43 -12 13 -23 -34 -23 -104 0 -67 -3 -83 -21 -102 -27 -29 -20 -71 14 -76 28 -4 34 -36 12 -77 -20 -39 -33 -39 -47 -1 -11 34 -38 53 -56 41 -27 -17 -32 -69 -10 -121 11 -27 17 -57 14 -66 -5 -14 -12 -11 -43 20 l-37 36 -34 -32 c-28 -28 -33 -38 -28 -66 4 -25 1 -34 -12 -39 -9 -3 -26 -17 -38 -31 -14 -17 -36 -28 -70 -33 -27 -4 -62 -11 -77 -15 -24 -5 -29 -3 -34 15 -3 13 -17 27 -30 32 -13 5 -148 9 -298 9 l-274 0 -37 25 c-42 29 -69 33 -60 9 3 -9 6 -27 6 -40 0 -13 9 -32 19 -41 11 -9 18 -20 15 -25 -7 -11 -51 -10 -74 2 -17 9 -18 14 -8 35 8 19 8 31 0 50 -17 37 -15 58 8 78 l20 17 0 598 0 599 20 18 c42 38 -10 67 -85 48z"/>
<path d="M741 2292 c-18 -35 6 -42 135 -42 118 0 153 -8 118 -28 -10 -6 -14 -19 -12 -38 2 -24 8 -29 34 -32 19 -2 48 6 70 17 21 12 42 21 46 21 5 0 28 10 53 21 40 19 49 20 78 9 17 -8 39 -19 48 -27 22 -19 29 -16 26 10 -3 30 27 30 31 0 2 -16 12 -25 30 -29 15 -3 35 -9 44 -15 10 -5 26 -9 37 -9 10 0 24 -7 31 -15 7 -8 31 -20 54 -27 42 -12 54 -21 118 -85 43 -43 46 -53 18 -60 -13 -4 -21 -17 -26 -42 -9 -59 -11 -61 -42 -55 -22 4 -31 2 -36 -11 -5 -13 -9 -15 -20 -6 -10 9 -16 2 -29 -30 -16 -40 -37 -46 -37 -11 -1 41 -41 102 -96 146 -32 25 -62 43 -66 40 -5 -3 -15 -1 -22 5 -10 8 -17 6 -30 -8 -18 -20 -15 -41 6 -41 12 0 71 -59 111 -111 15 -20 38 -69 52 -109 34 -99 36 -269 4 -362 -36 -108 -56 -135 -134 -179 -87 -49 -98 -52 -199 -56 -105 -4 -132 -15 -120 -46 3 -9 16 -17 28 -17 12 0 30 -6 41 -13 l18 -14 -24 -17 c-35 -25 -10 -36 83 -36 79 0 109 14 74 34 -10 6 -28 19 -40 28 l-21 17 20 7 c11 5 27 16 35 26 14 17 17 17 44 3 50 -26 95 -14 137 40 9 11 44 48 77 82 l60 63 6 77 c16 209 17 235 8 246 -8 10 -17 117 -13 151 2 21 49 -37 60 -75 7 -23 17 -39 24 -36 15 4 43 59 57 112 15 53 58 125 74 125 8 0 19 -7 26 -15 18 -22 29 -19 41 13 9 23 6 35 -18 79 -15 29 -34 53 -41 53 -7 0 -17 11 -22 24 -11 29 -117 134 -145 142 -11 4 -27 13 -36 20 -18 16 -133 57 -204 72 -106 23 -250 35 -272 23 -27 -14 -90 -15 -98 -1 -4 6 -57 10 -125 10 -106 0 -120 -2 -129 -18z"/>
<path d="M1978 2303 c-9 -2 -19 -12 -22 -21 -3 -9 -5 -145 -4 -302 0 -157 0 -343 0 -415 -2 -335 4 -741 11 -752 6 -10 59 -13 207 -13 223 0 218 -2 212 73 -3 36 -9 47 -30 56 -27 13 -42 3 -42 -31 0 -31 -22 -31 -47 1 l-24 31 -93 0 c-51 0 -95 3 -99 6 -3 3 0 15 6 25 8 13 9 24 2 35 -7 10 -8 233 -5 632 l5 617 95 -1 c52 0 136 -6 185 -13 125 -17 181 -16 189 5 3 9 20 14 44 14 46 0 65 15 51 42 -9 17 -28 18 -317 17 -169 -1 -315 -3 -324 -6z"/>
<path d="M3162 2298 c-18 -18 -16 -242 2 -257 15 -13 46 -5 46 12 0 5 12 25 26 44 22 29 25 42 22 91 l-3 57 180 0 180 0 3 -22 c4 -24 21 -28 152 -36 62 -4 66 -3 77 20 7 13 10 30 7 38 -3 7 -1 16 5 20 8 4 8 12 1 26 l-11 19 -337 0 c-250 0 -341 -3 -350 -12z"/>
<path d="M2762 2278 c-20 -20 -14 -34 23 -63 29 -21 34 -30 24 -41 -6 -8 -20 -14 -30 -14 -29 0 -102 31 -122 52 -10 10 -26 17 -35 14 -9 -3 -30 -8 -47 -11 -16 -4 -37 -9 -46 -11 -8 -2 -21 -20 -28 -40 -16 -44 -5 -56 51 -52 27 2 44 -4 60 -20 l23 -21 44 24 c42 25 73 23 83 -5 4 -13 59 12 78 35 7 8 17 15 23 15 5 0 15 7 22 16 10 15 15 14 43 -12 17 -16 42 -37 56 -47 29 -20 66 -89 66 -123 0 -12 9 -33 20 -47 27 -34 28 -127 2 -150 -10 -10 -23 -17 -29 -17 -6 0 -21 -11 -35 -25 l-25 -25 -17 19 c-21 23 -44 17 -48 -12 -2 -12 -7 -21 -13 -20 -18 3 -23 45 -17 140 5 100 -2 123 -43 123 -26 0 -35 -30 -35 -111 0 -26 -5 -51 -11 -54 -6 -4 -7 -14 -3 -24 4 -9 10 -40 13 -70 7 -61 28 -84 60 -64 16 10 22 6 45 -29 28 -43 27 -64 -4 -48 -10 5 -30 10 -44 10 -14 0 -28 5 -31 10 -3 6 -23 10 -43 10 -21 0 -47 7 -59 15 -19 13 -20 18 -9 47 6 18 17 43 24 56 27 48 -28 59 -72 13 -34 -35 -114 -56 -219 -56 l-79 0 -1 66 c-1 37 -8 73 -15 81 -11 14 -17 14 -55 -6 -34 -18 -43 -28 -45 -54 -3 -29 1 -34 33 -48 31 -12 36 -19 33 -42 -2 -21 -11 -29 -35 -36 -35 -11 -46 -27 -36 -52 5 -14 16 -15 71 -10 76 8 164 -9 188 -35 18 -20 11 -39 -15 -39 -9 0 -22 -5 -28 -11 -8 -8 -21 -8 -45 -1 -126 39 -161 40 -173 1 -11 -33 12 -48 76 -51 88 -4 81 -16 -41 -72 -27 -13 -39 -51 -21 -69 6 -6 11 -39 11 -74 0 -35 4 -63 10 -63 6 0 10 28 10 64 0 69 14 93 30 52 20 -53 56 -17 46 45 -9 58 2 68 64 55 43 -8 53 -7 67 6 13 13 14 20 5 31 -15 18 -6 27 28 27 33 0 43 -9 29 -26 -19 -23 0 -36 41 -29 26 4 48 1 70 -10 30 -16 36 -15 103 5 45 14 77 30 89 46 11 13 23 22 28 19 5 -3 12 -1 15 5 4 6 14 8 24 5 31 -9 170 156 182 219 6 29 24 23 27 -9 1 -16 8 -40 14 -53 9 -18 9 -28 0 -42 -9 -14 -12 -98 -12 -294 0 -238 2 -275 16 -287 23 -19 65 7 76 46 4 17 9 139 9 273 l2 243 -22 23 c-26 28 -27 58 -2 80 l19 17 -20 52 c-17 43 -19 67 -15 144 l5 92 -23 15 c-12 8 -32 12 -43 9 -17 -4 -26 7 -56 70 -39 82 -112 164 -174 196 -27 14 -134 51 -147 51 0 0 -6 -5 -13 -12z m258 -643 c17 -20 6 -43 -26 -55 -19 -7 -30 -7 -40 1 -18 15 -8 30 13 22 13 -5 15 -2 10 11 -13 34 19 50 43 21z m-275 -94 c10 -17 69 -42 113 -48 23 -3 45 -10 48 -14 9 -15 -44 -29 -105 -29 -44 0 -62 5 -75 19 -10 11 -25 17 -37 14 -22 -6 -83 43 -73 59 7 11 121 10 129 -1z m-100 -120 c3 -5 1 -13 -5 -16 -15 -9 -43 3 -35 15 8 13 32 13 40 1z"/>
<path d="M3959 2274 c-28 -33 47 -95 181 -149 18 -7 26 -19 28 -43 2 -23 11 -36 31 -47 19 -9 30 -25 35 -46 5 -25 9 -30 23 -24 10 5 26 8 36 9 23 1 22 8 -13 80 -41 87 -117 161 -207 203 -81 37 -95 40 -114 17z"/>
<path d="M7246 2254 l-38 -35 22 -24 c18 -20 27 -22 42 -14 11 6 30 8 43 5 14 -4 27 0 35 9 11 13 8 22 -17 52 -16 20 -33 38 -39 40 -5 2 -26 -13 -48 -33z"/>
<path d="M6520 2252 c0 -12 19 -26 26 -19 2 2 -2 10 -11 17 -9 8 -15 8 -15 2z"/>
<path d="M708 2217 c-29 -11 -42 -50 -26 -80 10 -19 25 -19 99 -1 15 3 30 1 33 -5 14 -21 56 -12 66 14 14 36 3 55 -34 55 -17 1 -49 7 -71 15 -22 8 -40 14 -40 14 0 -1 -12 -6 -27 -12z"/>
<path d="M6435 2199 c-4 -6 -5 -12 -2 -15 2 -3 7 2 10 11 7 17 1 20 -8 4z"/>
<path d="M7116 2125 c-26 -30 -45 -59 -41 -65 3 -5 23 -10 44 -10 20 0 42 -5 47 -10 16 -16 75 20 68 42 -2 9 0 19 6 23 16 10 11 29 -13 46 -49 36 -61 33 -111 -26z"/>
<path d="M7378 2155 c-21 -18 -28 -33 -28 -61 l0 -36 34 6 c20 4 37 2 41 -4 3 -6 11 -8 16 -4 6 4 4 13 -6 24 -14 15 -14 18 0 30 12 10 18 10 30 0 8 -7 15 -8 15 -3 0 9 -62 73 -70 73 -3 0 -17 -12 -32 -25z"/>
<path d="M2265 2153 c-12 -11 -15 -25 -11 -46 3 -16 6 -33 6 -37 0 -5 18 -6 40 -3 21 3 47 2 57 -1 17 -7 17 -8 -2 -22 l-19 -14 20 -20 c18 -19 26 -20 99 -11 46 5 84 5 90 0 5 -5 18 -9 28 -9 10 0 41 -12 68 -27 l48 -28 14 19 c10 13 16 16 21 7 7 -11 26 -6 26 7 0 4 -21 25 -47 47 -43 36 -51 39 -102 37 -56 -3 -147 13 -167 29 -6 5 -14 6 -17 3 -11 -12 -28 7 -18 20 12 14 5 26 -29 49 -31 22 -84 22 -105 0z"/>
<path d="M1126 2141 c-4 -6 -16 -11 -27 -11 -30 0 -36 -30 -9 -50 25 -19 20 -40 -9 -40 -9 0 -21 -4 -27 -10 -6 -6 -22 0 -46 20 l-35 29 -41 -19 c-23 -11 -45 -20 -50 -20 -5 0 -17 -11 -26 -25 -9 -14 -22 -25 -29 -25 -8 0 -23 -10 -35 -23 l-22 -23 0 -305 0 -305 -20 -17 c-11 -9 -20 -25 -20 -36 0 -10 -11 -34 -24 -54 -31 -45 -38 -69 -31 -100 10 -39 48 -40 84 -3 17 18 31 42 31 53 0 12 4 24 9 27 5 4 19 35 30 71 19 59 21 87 21 359 0 311 4 336 42 283 28 -38 58 -36 58 3 0 36 31 70 64 70 14 0 28 5 31 10 4 7 11 7 18 2 7 -5 40 -12 74 -15 46 -4 65 -1 74 9 9 11 9 18 -1 29 -15 18 -9 20 62 30 51 7 65 5 60 -9 -5 -14 19 -35 34 -29 24 9 16 34 -23 73 -39 38 -65 47 -159 57 -32 3 -54 1 -58 -6z"/>
<path d="M3563 2140 c-17 -7 -23 -18 -23 -39 0 -16 4 -32 9 -36 6 -3 3 -18 -7 -35 -13 -23 -14 -32 -5 -41 10 -10 16 -9 31 4 15 14 30 15 90 9 63 -7 74 -6 89 10 12 13 13 21 4 31 -17 21 -3 27 63 27 56 0 64 -3 88 -30 19 -21 36 -30 60 -31 53 -2 83 -14 80 -31 -1 -9 2 -19 8 -23 5 -3 10 -22 10 -42 0 -26 4 -34 14 -30 24 10 37 -19 34 -75 -3 -47 -5 -53 -25 -51 -29 3 -50 -22 -33 -42 19 -23 5 -47 -25 -39 -17 4 -25 2 -25 -6 0 -7 -25 -41 -55 -75 -30 -35 -55 -67 -55 -72 0 -6 9 -18 21 -29 23 -21 60 -95 53 -106 -3 -5 -18 -8 -35 -8 -29 0 -39 -13 -19 -25 6 -3 10 -21 10 -39 0 -66 83 -101 117 -50 12 18 11 24 -7 47 -41 52 -15 95 38 61 15 -10 43 -20 62 -24 27 -4 37 -12 45 -35 5 -17 15 -34 21 -40 6 -5 14 -22 18 -37 3 -14 17 -40 31 -56 20 -23 25 -41 25 -81 0 -43 5 -56 25 -75 14 -13 25 -28 25 -35 0 -18 15 -13 40 14 l23 24 -23 57 c-13 32 -34 66 -47 78 -16 14 -23 29 -22 50 2 18 -10 54 -27 86 -28 54 -39 69 -95 125 -25 26 -28 36 -23 63 5 27 16 37 57 57 52 25 105 88 109 129 1 12 2 28 3 36 0 8 5 21 9 29 5 7 11 41 13 76 l6 62 -30 15 c-44 22 -49 15 -45 -56 5 -75 -9 -110 -40 -100 -28 8 -38 -10 -38 -70 0 -43 -4 -54 -37 -87 -21 -21 -56 -58 -78 -83 -21 -24 -43 -42 -47 -40 -4 3 -8 29 -8 58 0 59 16 82 49 71 12 -3 31 1 45 10 19 13 23 22 18 38 -5 12 -5 40 -2 62 4 32 10 41 27 43 68 10 68 134 1 144 -18 2 -24 12 -29 43 -4 24 -15 45 -28 53 -11 8 -21 24 -21 37 0 17 -9 25 -41 35 -22 8 -42 17 -45 22 -3 5 -21 15 -40 23 -19 8 -34 20 -34 27 0 20 -99 22 -151 4 -24 -8 -47 -12 -53 -8 -6 3 -31 9 -56 13 -25 3 -52 9 -60 12 -8 3 -25 2 -37 -3z"/>
<path d="M1463 2103 c-26 -5 -29 -13 -11 -31 16 -16 29 -15 53 4 17 13 18 16 5 24 -8 5 -17 9 -20 8 -3 0 -15 -3 -27 -5z"/>
<path d="M6333 2103 c-7 -3 -13 -9 -13 -14 0 -12 37 -12 44 0 7 11 -14 20 -31 14z"/>
<path d="M6660 2100 c0 -13 28 -25 38 -16 3 4 0 11 -8 16 -20 13 -30 12 -30 0z"/>
<path d="M2842 2053 c-31 -35 -25 -57 18 -63 27 -4 38 -12 50 -37 17 -37 40 -42 58 -13 7 11 22 20 33 20 11 0 19 4 17 8 -7 17 -86 82 -100 82 -9 0 -21 7 -28 15 -17 20 -21 19 -48 -12z"/>
<path d="M1580 2034 c0 -3 5 -14 11 -25 8 -16 13 -18 24 -9 18 15 8 40 -16 40 -10 0 -19 -3 -19 -6z"/>
<path d="M3815 2003 c-7 -19 10 -40 47 -59 l28 -14 -3 -112 -2 -111 -52 -15 c-29 -8 -53 -18 -53 -23 0 -5 -14 -24 -31 -44 l-31 -35 -73 0 c-76 0 -100 -12 -93 -46 4 -23 21 -30 106 -45 55 -9 78 -10 95 -1 12 7 33 13 47 14 21 3 26 -2 34 -39 5 -24 12 -43 16 -43 14 0 22 71 10 85 -8 10 -8 19 -1 34 6 11 11 35 11 54 0 42 7 49 33 36 17 -10 19 -9 14 10 -3 11 -1 24 5 27 5 3 23 24 39 46 24 34 29 51 29 97 0 54 -25 141 -41 141 -4 0 -22 12 -40 27 -37 31 -85 39 -94 16z"/>
<path d="M693 2003 c-18 -7 -16 -40 2 -46 7 -3 24 3 37 13 20 17 21 21 8 30 -16 10 -28 11 -47 3z"/>
<path d="M6700 1930 c0 -5 5 -10 11 -10 5 0 7 5 4 10 -3 6 -8 10 -11 10 -2 0 -4 -4 -4 -10z"/>
<path d="M2719 1903 c-13 -3 -16 -14 -12 -51 6 -58 10 -72 22 -72 13 0 41 58 41 85 0 20 -18 46 -29 44 -4 -1 -13 -3 -22 -6z"/>
<path d="M6740 1860 c-12 -8 -12 -10 2 -15 20 -8 41 2 33 16 -8 11 -16 11 -35 -1z"/>
<path d="M1756 1721 c-9 -10 -21 -32 -25 -47 -4 -17 -16 -31 -27 -33 -10 -2 -22 -8 -26 -15 -4 -6 -8 -70 -8 -142 0 -105 3 -134 15 -144 12 -10 18 -10 30 0 13 11 16 38 14 152 0 77 1 141 3 144 3 2 21 -3 41 -11 50 -21 71 -11 64 31 -6 37 -36 83 -53 84 -6 0 -19 -9 -28 -19z"/>
<path d="M7593 1631 c-10 -11 -30 -22 -45 -26 -16 -4 -28 -11 -28 -16 0 -8 9 -10 65 -13 13 -1 19 -7 17 -18 -2 -14 4 -18 28 -18 20 0 30 5 28 13 -4 17 3 20 25 11 34 -13 29 5 -14 45 -23 23 -46 41 -50 41 -5 0 -16 -9 -26 -19z"/>
<path d="M7306 1608 l-30 -30 -13 18 c-12 16 -15 17 -23 4 -5 -8 -15 -15 -22 -15 -16 0 -16 -13 2 -47 13 -28 34 -36 45 -19 3 6 18 6 36 1 31 -9 59 -4 59 10 0 4 -10 15 -22 23 l-23 16 23 7 c18 5 22 13 20 32 -4 36 -18 36 -52 0z"/>
<path d="M6100 1570 c0 -5 4 -10 9 -10 6 0 13 5 16 10 3 6 -1 10 -9 10 -9 0 -16 -4 -16 -10z"/>
<path d="M4585 1450 c3 -5 19 -10 36 -10 16 0 29 5 29 10 0 6 -16 10 -36 10 -21 0 -33 -4 -29 -10z"/>
<path d="M3725 1434 c-11 -12 -13 -20 -5 -29 6 -7 8 -19 4 -28 -9 -23 71 -92 107 -92 35 0 35 2 9 63 -14 30 -35 57 -60 74 -36 25 -41 26 -55 12z"/>
<path d="M7290 1440 c-8 -5 -23 -7 -32 -4 -23 7 -23 -8 0 -29 23 -21 46 -22 62 -1 18 20 -7 48 -30 34z"/>
<path d="M7345 1410 c3 -5 8 -10 11 -10 2 0 4 5 4 10 0 6 -5 10 -11 10 -5 0 -7 -4 -4 -10z"/>
<path d="M5565 1390 c-4 -6 8 -10 29 -10 19 0 38 5 41 10 4 6 -8 10 -29 10 -19 0 -38 -4 -41 -10z"/>
<path d="M6670 1390 c0 -5 12 -10 28 -10 21 0 24 2 12 10 -20 13 -40 13 -40 0z"/>
<path d="M6541 1364 c0 -11 3 -14 6 -6 3 7 2 16 -1 19 -3 4 -6 -2 -5 -13z"/>
<path d="M6470 1360 c0 -5 5 -10 11 -10 5 0 7 5 4 10 -3 6 -8 10 -11 10 -2 0 -4 -4 -4 -10z"/>
<path d="M897 1334 c-4 -4 -7 -56 -7 -116 l0 -110 29 -29 c31 -30 61 -38 61 -16 0 8 -3 17 -7 21 -9 9 -12 31 -19 154 -3 50 -9 92 -14 92 -5 0 -15 2 -22 5 -8 3 -17 2 -21 -1z"/>
<path d="M1621 1304 c-26 -34 -26 -36 4 -64 19 -18 27 -20 39 -11 22 18 27 63 9 84 -21 23 -28 22 -52 -9z"/>
<path d="M3861 1257 c-16 -16 -13 -53 8 -95 10 -20 21 -49 25 -64 5 -20 13 -28 29 -28 12 0 33 -3 46 -7 23 -6 24 -4 18 28 -9 53 -36 109 -53 109 -8 0 -20 13 -25 29 -12 33 -31 45 -48 28z"/>
<path d="M4073 1188 c-6 -7 -13 -44 -16 -81 -5 -57 -3 -74 14 -107 22 -42 37 -47 128 -42 42 2 45 5 31 31 -8 15 -17 20 -34 15 -32 -8 -42 11 -49 84 -4 47 -11 70 -28 88 -26 27 -33 29 -46 12z"/>
<path d="M7715 1170 c-3 -5 -1 -10 4 -10 6 0 11 5 11 10 0 6 -2 10 -4 10 -3 0 -8 -4 -11 -10z"/>
<path d="M4195 1160 c-8 -12 16 -50 32 -50 16 0 17 32 1 48 -14 14 -25 15 -33 2z"/>
<path d="M7350 1161 c0 -5 9 -7 20 -4 11 3 20 7 20 9 0 2 -9 4 -20 4 -11 0 -20 -4 -20 -9z"/>
<path d="M7557 1149 c-8 -28 -3 -34 11 -16 6 7 7 19 3 26 -6 9 -10 6 -14 -10z"/>
<path d="M7225 1140 c3 -6 -1 -13 -11 -17 -16 -6 -15 -7 2 -20 27 -20 33 -16 31 17 -1 17 -8 30 -15 30 -7 0 -10 -5 -7 -10z"/>
<path d="M7843 1142 c-8 -5 -7 -12 2 -26 18 -25 34 -16 20 11 -6 12 -16 19 -22 15z"/>
<path d="M4990 1130 c0 -5 11 -10 25 -10 14 0 25 5 25 10 0 6 -11 10 -25 10 -14 0 -25 -4 -25 -10z"/>
<path d="M6635 1120 c-3 -5 -1 -10 4 -10 6 0 11 5 11 10 0 6 -2 10 -4 10 -3 0 -8 -4 -11 -10z"/>
<path d="M4940 1080 c0 -16 5 -30 10 -30 6 0 10 14 10 30 0 17 -4 30 -10 30 -5 0 -10 -13 -10 -30z"/>
<path d="M6442 1090 c0 -14 2 -19 5 -12 2 6 2 18 0 25 -3 6 -5 1 -5 -13z"/>
<path d="M6611 1054 c0 -11 3 -14 6 -6 3 7 2 16 -1 19 -3 4 -6 -2 -5 -13z"/>
<path d="M7670 1050 c0 -5 5 -10 10 -10 6 0 10 5 10 10 0 6 -4 10 -10 10 -5 0 -10 -4 -10 -10z"/>
<path d="M7740 1050 c0 -5 7 -10 16 -10 8 0 12 5 9 10 -3 6 -10 10 -16 10 -5 0 -9 -4 -9 -10z"/>
<path d="M1417 1032 c-13 -13 -19 -13 -29 -4 -20 20 -55 14 -77 -14 -22 -29 -20 -44 10 -63 18 -11 32 -9 91 10 51 16 68 26 64 36 -4 8 -6 19 -6 23 0 5 -8 14 -18 19 -14 7 -23 6 -35 -7z"/>
<path d="M1500 1030 c0 -5 5 -10 10 -10 6 0 10 5 10 10 0 6 -4 10 -10 10 -5 0 -10 -4 -10 -10z"/>
<path d="M5000 1030 c0 -5 9 -10 20 -10 11 0 20 5 20 10 0 6 -9 10 -20 10 -11 0 -20 -4 -20 -10z"/>
<path d="M5440 1030 c0 -5 5 -10 10 -10 6 0 10 5 10 10 0 6 -4 10 -10 10 -5 0 -10 -4 -10 -10z"/>
<path d="M7536 1031 c-4 -5 -2 -12 3 -15 5 -4 12 -2 15 3 4 5 2 12 -3 15 -5 4 -12 2 -15 -3z"/>
<path d="M3963 1006 c-26 -12 -25 -20 17 -111 15 -33 30 -68 33 -77 5 -14 18 -18 56 -18 61 0 73 20 31 50 -17 12 -30 29 -30 39 0 9 -12 33 -26 52 -14 19 -30 44 -35 57 -9 24 -13 25 -46 8z"/>
<path d="M6950 985 c0 -8 4 -15 10 -15 5 0 7 7 4 15 -4 8 -8 15 -10 15 -2 0 -4 -7 -4 -15z"/>
<path d="M7400 954 c0 -8 5 -12 10 -9 6 4 8 11 5 16 -9 14 -15 11 -15 -7z"/>
<path d="M6420 946 c0 -2 7 -9 15 -16 13 -11 14 -10 9 4 -5 14 -24 23 -24 12z"/>
<path d="M7046 935 c4 -8 16 -15 27 -15 l21 0 -20 15 c-25 19 -35 19 -28 0z"/>
<path d="M3168 926 c-12 -9 -18 -27 -18 -54 0 -76 -11 -72 215 -72 223 0 216 -2 214 63 -1 71 -1 70 -150 68 -74 -1 -149 -7 -167 -12 -27 -9 -37 -8 -51 5 -21 19 -21 19 -43 2z"/>
<path d="M4336 931 c-4 -5 -2 -21 4 -36 6 -15 8 -30 5 -35 -3 -5 0 -20 6 -34 11 -23 18 -26 61 -26 57 0 71 18 44 59 -10 14 -20 34 -23 44 -4 12 -12 17 -24 14 -10 -3 -23 1 -30 9 -13 16 -35 18 -43 5z"/>
<path d="M6775 930 c3 -5 10 -10 16 -10 5 0 9 5 9 10 0 6 -7 10 -16 10 -8 0 -12 -4 -9 -10z"/>
<path d="M4206 914 c-18 -18 -21 -60 -6 -69 6 -4 8 -15 5 -26 -5 -16 -1 -19 25 -19 24 0 31 4 27 14 -3 8 3 22 14 32 25 22 24 30 -6 59 -28 29 -38 31 -59 9z"/>
<path d="M6982 918 c5 -15 28 -18 29 -3 0 6 -7 12 -17 13 -10 3 -15 -1 -12 -10z"/>
<path d="M7663 911 c1 -17 8 -21 32 -20 16 0 23 3 15 6 -8 3 -23 12 -32 20 -15 14 -17 13 -15 -6z"/>
<path d="M7210 889 c9 -16 14 -18 26 -8 21 17 17 29 -11 29 -23 0 -24 -2 -15 -21z"/>
<path d="M7525 870 c38 -25 55 -25 55 0 0 17 -7 20 -42 20 l-43 0 30 -20z"/>
<path d="M6880 866 c0 -9 5 -16 10 -16 6 0 10 4 10 9 0 6 -4 13 -10 16 -5 3 -10 -1 -10 -9z"/>
<path d="M2350 730 c0 -5 7 -10 15 -10 8 0 15 5 15 10 0 6 -7 10 -15 10 -8 0 -15 -4 -15 -10z"/>
<path d="M7880 730 c0 -5 5 -10 10 -10 6 0 10 5 10 10 0 6 -4 10 -10 10 -5 0 -10 -4 -10 -10z"/>
<path d="M560 700 c0 -5 5 -10 10 -10 6 0 10 5 10 10 0 6 -4 10 -10 10 -5 0 -10 -4 -10 -10z"/>
<path d="M720 670 c0 -6 27 -10 60 -10 33 0 60 4 60 10 0 6 -27 10 -60 10 -33 0 -60 -4 -60 -10z"/>
<path d="M860 670 c0 -5 9 -10 20 -10 11 0 20 5 20 10 0 6 -9 10 -20 10 -11 0 -20 -4 -20 -10z"/>
<path d="M1000 670 c0 -5 16 -10 35 -10 19 0 35 5 35 10 0 6 -16 10 -35 10 -19 0 -35 -4 -35 -10z"/>
<path d="M1130 670 c0 -6 33 -10 80 -10 47 0 80 4 80 10 0 6 -33 10 -80 10 -47 0 -80 -4 -80 -10z"/>
<path d="M1400 670 c0 -6 28 -10 65 -10 37 0 65 4 65 10 0 6 -28 10 -65 10 -37 0 -65 -4 -65 -10z"/>
<path d="M1630 670 c0 -5 14 -10 30 -10 17 0 30 5 30 10 0 6 -13 10 -30 10 -16 0 -30 -4 -30 -10z"/>
<path d="M1880 670 c0 -6 37 -10 90 -10 53 0 90 4 90 10 0 6 -37 10 -90 10 -53 0 -90 -4 -90 -10z"/>
<path d="M2200 670 c0 -5 18 -10 40 -10 22 0 40 5 40 10 0 6 -18 10 -40 10 -22 0 -40 -4 -40 -10z"/>
<path d="M2330 670 c0 -6 32 -10 75 -10 43 0 75 4 75 10 0 6 -32 10 -75 10 -43 0 -75 -4 -75 -10z"/>
<path d="M2700 670 c0 -6 48 -10 125 -10 77 0 125 4 125 10 0 6 -48 10 -125 10 -77 0 -125 -4 -125 -10z"/>
<path d="M3030 670 c0 -5 11 -10 25 -10 14 0 25 5 25 10 0 6 -11 10 -25 10 -14 0 -25 -4 -25 -10z"/>
<path d="M3160 670 c0 -5 9 -10 20 -10 11 0 20 5 20 10 0 6 -9 10 -20 10 -11 0 -20 -4 -20 -10z"/>
<path d="M3310 670 c0 -6 52 -10 135 -10 83 0 135 4 135 10 0 6 -52 10 -135 10 -83 0 -135 -4 -135 -10z"/>
<path d="M3600 670 c0 -5 14 -10 30 -10 17 0 30 5 30 10 0 6 -13 10 -30 10 -16 0 -30 -4 -30 -10z"/>
<path d="M3760 670 c0 -6 38 -10 95 -10 57 0 95 4 95 10 0 6 -38 10 -95 10 -57 0 -95 -4 -95 -10z"/>
<path d="M3990 670 c0 -6 28 -10 65 -10 37 0 65 4 65 10 0 6 -28 10 -65 10 -37 0 -65 -4 -65 -10z"/>
<path d="M4240 670 c0 -6 45 -10 115 -10 70 0 115 4 115 10 0 6 -45 10 -115 10 -70 0 -115 -4 -115 -10z"/>
<path d="M4510 670 c0 -5 18 -10 40 -10 22 0 40 5 40 10 0 6 -18 10 -40 10 -22 0 -40 -4 -40 -10z"/>
<path d="M4710 670 c0 -5 25 -10 55 -10 30 0 55 5 55 10 0 6 -25 10 -55 10 -30 0 -55 -4 -55 -10z"/>
<path d="M4840 670 c0 -5 16 -10 35 -10 19 0 35 5 35 10 0 6 -16 10 -35 10 -19 0 -35 -4 -35 -10z"/>
<path d="M4950 670 c0 -5 5 -10 10 -10 6 0 10 5 10 10 0 6 -4 10 -10 10 -5 0 -10 -4 -10 -10z"/>
<path d="M5060 670 c0 -6 40 -10 100 -10 60 0 100 4 100 10 0 6 -40 10 -100 10 -60 0 -100 -4 -100 -10z"/>
<path d="M5300 670 c0 -6 52 -10 135 -10 83 0 135 4 135 10 0 6 -52 10 -135 10 -83 0 -135 -4 -135 -10z"/>
<path d="M5640 670 c0 -6 35 -10 85 -10 50 0 85 4 85 10 0 6 -35 10 -85 10 -50 0 -85 -4 -85 -10z"/>
<path d="M5950 670 c0 -6 27 -10 60 -10 33 0 60 4 60 10 0 6 -27 10 -60 10 -33 0 -60 -4 -60 -10z"/>
<path d="M6110 670 c0 -5 11 -10 25 -10 14 0 25 5 25 10 0 6 -11 10 -25 10 -14 0 -25 -4 -25 -10z"/>
<path d="M6250 670 c0 -5 18 -10 40 -10 22 0 40 5 40 10 0 6 -18 10 -40 10 -22 0 -40 -4 -40 -10z"/>
<path d="M6420 670 c0 -5 16 -10 35 -10 19 0 35 5 35 10 0 6 -16 10 -35 10 -19 0 -35 -4 -35 -10z"/>
<path d="M6600 670 c0 -6 27 -10 60 -10 33 0 60 4 60 10 0 6 -27 10 -60 10 -33 0 -60 -4 -60 -10z"/>
<path d="M6750 670 c0 -6 28 -10 65 -10 37 0 65 4 65 10 0 6 -28 10 -65 10 -37 0 -65 -4 -65 -10z"/>
<path d="M6990 670 c0 -5 18 -10 40 -10 22 0 40 5 40 10 0 6 -18 10 -40 10 -22 0 -40 -4 -40 -10z"/>
<path d="M7140 670 c0 -5 16 -10 35 -10 19 0 35 5 35 10 0 6 -16 10 -35 10 -19 0 -35 -4 -35 -10z"/>
<path d="M7300 670 c0 -6 42 -10 105 -10 63 0 105 4 105 10 0 6 -42 10 -105 10 -63 0 -105 -4 -105 -10z"/>
<path d="M7600 670 c0 -6 40 -10 100 -10 60 0 100 4 100 10 0 6 -40 10 -100 10 -60 0 -100 -4 -100 -10z"/>
<path d="M7820 670 c0 -5 5 -10 10 -10 6 0 10 5 10 10 0 6 -4 10 -10 10 -5 0 -10 -4 -10 -10z"/>
<path d="M5176 553 c4 -16 8 -30 10 -32 6 -7 11 2 18 32 5 23 3 27 -14 27 -17 0 -19 -4 -14 -27z"/>
<path d="M5180 450 c0 -22 5 -40 10 -40 6 0 10 18 10 40 0 22 -4 40 -10 40 -5 0 -10 -18 -10 -40z"/>
</g>
</g>
  <g id="id4:id4" transform="matrix(1.25,0,0,1.25,0.0,0.0)"><g transform="translate(0.000000,105.600000) scale(0.040000,-0.040000)" fill="#f59130" stroke="none">
<path d="M5616 2175 c-49 -51 -88 -96 -87 -101 0 -5 9 -9 19 -9 9 0 16 5 15 11 -1 6 33 46 77 89 l78 78 29 -21 c42 -29 129 -133 125 -149 -2 -7 6 -13 18 -13 11 0 20 5 20 11 0 13 -187 200 -198 198 -4 -1 -47 -43 -96 -94z"/>
<path d="M1328 2233 c-23 -27 -18 -77 8 -81 42 -6 72 56 42 86 -17 17 -32 15 -50 -5z"/>
<path d="M2458 2243 c-44 -11 -9 -38 60 -47 43 -6 53 -4 59 9 3 9 2 20 -3 24 -11 10 -93 20 -116 14z"/>
<path d="M3843 2213 c-3 -10 -15 -28 -26 -40 -16 -19 -18 -25 -7 -38 21 -25 83 -19 111 11 22 23 23 26 6 35 -9 6 -17 16 -17 23 0 8 -10 16 -22 20 -34 9 -38 8 -45 -11z"/>
<path d="M887 2213 c-4 -3 -7 -21 -7 -40 0 -28 3 -33 24 -33 14 0 28 5 31 10 3 6 15 10 26 10 14 0 19 7 19 30 l0 30 -43 0 c-24 0 -47 -3 -50 -7z"/>
<path d="M7177 2180 c-28 -41 -22 -59 12 -38 13 8 24 9 30 3 13 -14 18 -77 6 -77 -5 0 -17 -5 -25 -13 -8 -7 -22 -15 -30 -16 -24 -6 -213 -207 -205 -218 3 -6 28 -11 54 -11 26 0 51 -3 54 -6 12 -12 -15 -47 -97 -128 l-81 -81 -34 11 c-27 9 -35 17 -35 36 -2 28 -114 148 -138 148 -25 0 -38 -24 -38 -70 0 -34 5 -52 20 -65 14 -13 20 -31 20 -60 0 -24 6 -47 13 -53 20 -17 462 -2 492 16 16 11 65 10 71 0 3 -5 -3 -19 -14 -31 -12 -13 -22 -39 -24 -62 l-3 -40 -75 -7 c-75 -8 -120 -21 -120 -35 1 -29 18 -33 101 -24 46 4 87 6 92 4 4 -2 7 -15 7 -28 0 -26 17 -35 65 -35 55 0 65 8 65 51 0 33 4 41 26 49 14 6 40 10 59 10 38 0 54 25 31 48 -10 10 -25 12 -55 7 -22 -4 -44 -7 -48 -6 -10 0 -22 70 -13 76 3 2 81 5 173 7 92 1 167 6 167 9 0 15 -39 39 -63 39 -34 0 -43 16 -26 46 12 23 9 28 -55 91 -37 36 -63 70 -59 74 4 4 33 9 63 11 34 2 55 8 55 15 0 6 -30 43 -67 81 -113 118 -132 142 -121 153 8 8 13 7 17 0 9 -15 43 -14 52 1 5 7 -9 27 -35 50 -44 38 -67 42 -56 8 8 -26 -15 -37 -32 -15 -11 17 -10 22 12 45 22 23 24 28 11 45 -13 18 -16 19 -33 4 -10 -9 -34 -19 -54 -23 -30 -5 -42 -2 -67 19 -16 14 -32 25 -35 25 -2 0 -16 -18 -30 -40z"/>
<path d="M2916 2191 c-3 -5 -15 -7 -26 -4 -14 4 -22 -1 -29 -20 -5 -14 -15 -28 -20 -32 -27 -16 -9 -27 36 -22 50 5 76 28 71 61 -3 22 -23 32 -32 17z"/>
<path d="M2688 2122 c-16 -9 -28 -22 -28 -29 0 -19 19 -26 35 -13 8 7 26 9 40 6 20 -5 25 -3 25 12 0 20 -18 42 -34 42 -6 0 -23 -8 -38 -18z"/>
<path d="M2401 2107 c-13 -6 -23 -15 -22 -19 0 -5 1 -16 1 -26 0 -26 25 -56 39 -48 9 6 9 12 -3 25 -18 20 -12 31 18 31 12 0 27 4 35 9 12 8 12 12 2 25 -16 19 -38 20 -70 3z"/>
<path d="M7100 2095 c-27 -29 -17 -49 21 -43 19 2 24 9 24 32 0 38 -16 42 -45 11z"/>
<path d="M3162 2038 c-29 -29 1 -90 49 -102 23 -5 28 -2 33 20 9 36 0 57 -33 77 -35 20 -34 20 -49 5z"/>
<path d="M2335 2010 c-3 -5 -14 -10 -23 -10 -9 0 -26 -7 -36 -15 -17 -13 -18 -18 -6 -40 8 -15 22 -25 35 -25 11 0 26 -5 33 -12 29 -29 61 62 33 96 -15 18 -27 20 -36 6z"/>
<path d="M2635 2000 c-11 -17 5 -32 21 -19 7 6 11 15 8 20 -7 12 -21 11 -29 -1z"/>
<path d="M5548 1981 c-18 -16 -30 -33 -26 -37 9 -8 45 21 59 48 14 26 4 22 -33 -11z"/>
<path d="M2687 1983 c-5 -9 -2 -71 4 -77 2 -2 14 -7 26 -10 16 -5 30 1 54 22 30 26 32 32 19 47 -9 11 -23 15 -42 11 -15 -3 -30 -1 -33 4 -7 12 -22 13 -28 3z"/>
<path d="M5877 1965 c5 -25 17 -32 27 -16 3 4 -3 16 -13 25 -17 16 -18 15 -14 -9z"/>
<path d="M4017 1953 c-4 -24 18 -72 34 -73 5 0 29 45 29 55 0 7 -43 45 -51 45 -4 0 -9 -12 -12 -27z"/>
<path d="M1596 1945 c-8 -22 4 -45 24 -45 20 0 32 23 24 45 -4 8 -14 15 -24 15 -10 0 -20 -7 -24 -15z"/>
<path d="M2916 1924 c-6 -16 2 -64 11 -64 12 0 32 36 33 58 0 26 -34 31 -44 6z"/>
<path d="M1816 1888 c-18 -25 -21 -64 -6 -73 6 -3 10 -14 10 -24 0 -21 48 -36 64 -21 11 11 -22 116 -40 131 -9 7 -17 3 -28 -13z"/>
<path d="M5940 1895 c0 -9 5 -15 11 -13 6 2 11 8 11 13 0 5 -5 11 -11 13 -6 2 -11 -4 -11 -13z"/>
<path d="M5460 1890 c0 -5 5 -10 10 -10 6 0 10 5 10 10 0 6 -4 10 -10 10 -5 0 -10 -4 -10 -10z"/>
<path d="M5976 1845 c-9 -24 -8 -25 20 -25 19 0 25 5 22 17 -4 23 -34 28 -42 8z"/>
<path d="M5420 1836 c0 -9 7 -16 16 -16 17 0 14 22 -4 28 -7 2 -12 -3 -12 -12z"/>
<path d="M5944 1728 c3 -7 9 -21 12 -30 7 -19 20 -23 28 -10 7 11 -22 52 -35 52 -6 0 -8 -6 -5 -12z"/>
<path d="M5473 1723 c-15 -5 -17 -23 -4 -23 5 0 11 7 15 15 3 8 4 15 3 14 -1 0 -8 -3 -14 -6z"/>
<path d="M4016 1704 c-10 -27 -7 -34 19 -44 16 -6 23 -14 19 -25 -4 -9 0 -15 9 -15 25 0 29 16 16 60 -10 31 -17 40 -35 40 -12 0 -25 -7 -28 -16z"/>
<path d="M3737 1672 c-15 -2 -32 -12 -37 -22 -8 -15 -5 -24 17 -45 43 -39 66 -30 69 27 2 33 -12 45 -49 40z"/>
<path d="M6008 1668 c7 -7 12 -20 12 -30 0 -10 7 -18 15 -18 8 0 15 3 15 8 -1 11 -37 52 -46 52 -4 0 -3 -5 4 -12z"/>
<path d="M6471 1514 c0 -11 3 -14 6 -6 3 7 2 16 -1 19 -3 4 -6 -2 -5 -13z"/>
<path d="M2636 1503 c-3 -10 -9 -24 -12 -30 -9 -20 70 -17 87 3 11 14 10 18 -6 30 -26 19 -61 18 -69 -3z"/>
<path d="M6542 1485 c0 -16 2 -22 5 -12 2 9 2 23 0 30 -3 6 -5 -1 -5 -18z"/>
<path d="M5960 1450 c0 -5 16 -10 35 -10 19 0 35 5 35 10 0 6 -16 10 -35 10 -19 0 -35 -4 -35 -10z"/>
<path d="M6250 1452 c0 -6 24 -13 53 -15 28 -3 68 -9 88 -12 21 -4 39 -3 43 3 6 10 -19 16 -126 28 -37 4 -58 3 -58 -4z"/>
<path d="M3600 1436 c-43 -16 -45 -38 -5 -47 17 -4 50 -12 75 -17 31 -7 49 -7 57 0 18 15 16 21 -12 52 -27 29 -58 32 -115 12z"/>
<path d="M4770 1441 c0 -10 50 -25 58 -16 8 7 1 11 -30 19 -16 3 -28 2 -28 -3z"/>
<path d="M5860 1440 c0 -5 12 -10 26 -10 14 0 23 4 19 10 -3 6 -15 10 -26 10 -10 0 -19 -4 -19 -10z"/>
<path d="M4870 1430 c0 -5 7 -10 16 -10 8 0 12 5 9 10 -3 6 -10 10 -16 10 -5 0 -9 -4 -9 -10z"/>
<path d="M5780 1430 c0 -5 7 -10 15 -10 8 0 15 5 15 10 0 6 -7 10 -15 10 -8 0 -15 -4 -15 -10z"/>
<path d="M5095 1390 c-4 -6 7 -10 25 -10 18 0 29 4 25 10 -3 6 -15 10 -25 10 -10 0 -22 -4 -25 -10z"/>
<path d="M3872 1353 c-11 -25 -10 -30 12 -52 21 -20 27 -22 40 -11 22 18 20 46 -6 70 -28 26 -30 25 -46 -7z"/>
<path d="M5735 1350 c-3 -5 -17 -10 -31 -10 -13 0 -24 -4 -24 -10 0 -5 18 -10 40 -10 33 0 40 3 40 20 0 21 -15 27 -25 10z"/>
<path d="M1495 1159 c-55 -54 -106 -99 -113 -99 -19 0 -26 -28 -12 -45 17 -21 74 -20 66 0 -4 11 12 23 59 45 52 24 69 38 83 67 9 20 31 44 47 53 31 17 33 21 20 58 -14 41 -46 25 -150 -79z"/>
<path d="M4460 1170 c0 -6 45 -10 115 -10 70 0 115 4 115 10 0 6 -45 10 -115 10 -70 0 -115 -4 -115 -10z"/>
<path d="M4730 1171 c0 -5 10 -11 23 -13 15 -2 22 -10 22 -25 0 -13 5 -23 10 -23 6 0 10 15 10 33 0 29 -3 32 -32 35 -18 2 -33 -1 -33 -7z"/>
<path d="M4867 1173 c-10 -10 -8 -53 2 -53 5 0 11 9 14 20 5 18 14 20 101 20 57 0 96 4 96 10 0 11 -202 14 -213 3z"/>
<path d="M5346 1164 c-5 -12 -2 -15 10 -10 8 3 36 6 60 6 24 0 44 5 44 10 0 6 -24 10 -54 10 -40 0 -55 -4 -60 -16z"/>
<path d="M5670 1171 c0 -6 14 -11 31 -11 22 0 32 -5 36 -20 8 -30 25 -24 21 8 -3 24 -7 27 -45 30 -26 2 -43 -1 -43 -7z"/>
<path d="M5860 1170 c0 -5 18 -10 40 -10 22 0 40 5 40 10 0 6 -18 10 -40 10 -22 0 -40 -4 -40 -10z"/>
<path d="M5104 1148 c3 -7 9 -21 12 -30 7 -21 24 -24 24 -5 -1 14 -24 47 -34 47 -4 0 -5 -6 -2 -12z"/>
<path d="M955 1110 l-19 -21 26 -26 c15 -15 33 -23 41 -20 17 6 32 61 22 77 -10 17 -51 11 -70 -10z"/>
<path d="M5320 1115 c0 -8 5 -15 10 -15 6 0 10 7 10 15 0 8 -4 15 -10 15 -5 0 -10 -7 -10 -15z"/>
<path d="M4470 1110 c0 -5 9 -10 20 -10 11 0 20 5 20 10 0 6 -9 10 -20 10 -11 0 -20 -4 -20 -10z"/>
<path d="M5480 1100 c0 -5 5 -10 10 -10 6 0 10 5 10 10 0 6 -4 10 -10 10 -5 0 -10 -4 -10 -10z"/>
<path d="M812 1088 c-6 -7 -12 -33 -14 -58 l-3 -45 28 -3 c39 -5 56 13 53 54 -5 54 -39 82 -64 52z"/>
<path d="M3920 1075 c-16 -19 -1 -58 29 -74 16 -9 23 -7 35 11 22 31 20 43 -11 59 -16 7 -31 15 -34 17 -3 1 -12 -4 -19 -13z"/>
<path d="M2317 1027 c-20 -22 -37 -42 -37 -43 0 -2 17 -18 37 -37 51 -48 63 -40 63 43 0 84 -13 92 -63 37z"/>
<path d="M4860 990 c0 -47 4 -80 10 -80 6 0 10 33 10 80 0 47 -4 80 -10 80 -6 0 -10 -33 -10 -80z"/>
<path d="M5293 1043 c-15 -31 -16 -43 -5 -43 7 0 32 47 32 62 0 17 -16 6 -27 -19z"/>
<path d="M5120 1045 c0 -8 5 -15 10 -15 6 0 10 7 10 15 0 8 -4 15 -10 15 -5 0 -10 -7 -10 -15z"/>
<path d="M5500 1050 c0 -5 5 -10 10 -10 6 0 10 5 10 10 0 6 -4 10 -10 10 -5 0 -10 -4 -10 -10z"/>
<path d="M5740 1010 c0 -11 5 -20 10 -20 6 0 10 9 10 20 0 11 -4 20 -10 20 -5 0 -10 -9 -10 -20z"/>
<path d="M4347 1002 c-24 -26 -21 -44 13 -77 25 -24 32 -26 45 -15 17 14 13 58 -9 92 -14 23 -29 23 -49 0z"/>
<path d="M5660 980 c0 -22 5 -40 10 -40 6 0 10 18 10 40 0 22 -4 40 -10 40 -5 0 -10 -18 -10 -40z"/>
<path d="M5520 1000 c0 -5 5 -10 10 -10 6 0 10 5 10 10 0 6 -4 10 -10 10 -5 0 -10 -4 -10 -10z"/>
<path d="M586 958 c-17 -24 -11 -68 10 -81 7 -4 11 -14 8 -22 -11 -26 11 -16 29 14 22 38 22 74 -1 94 -24 22 -28 21 -46 -5z"/>
<path d="M5540 961 c0 -6 5 -13 10 -16 6 -3 10 -15 10 -26 0 -10 5 -19 10 -19 13 0 13 10 -2 43 -13 26 -28 36 -28 18z"/>
<path d="M1332 948 c-16 -16 -16 -68 1 -68 19 1 47 25 47 42 0 14 -19 38 -30 38 -3 0 -11 -5 -18 -12z"/>
<path d="M1574 933 c-4 -15 -11 -33 -16 -40 -5 -7 -5 -14 1 -17 5 -4 12 -2 16 4 3 5 14 10 23 10 20 0 47 39 35 50 -4 4 -18 11 -30 14 -19 6 -23 2 -29 -21z"/>
<path d="M5040 950 c0 -5 5 -10 10 -10 6 0 10 5 10 10 0 6 -4 10 -10 10 -5 0 -10 -4 -10 -10z"/>
<path d="M4938 908 l-3 -43 -38 1 c-55 2 -41 -20 16 -24 l47 -3 0 55 c0 65 -17 76 -22 14z"/>
<path d="M5120 941 c0 -6 4 -12 9 -15 16 -10 19 -57 5 -63 -25 -9 -15 -23 16 -23 36 0 36 1 8 62 -21 44 -38 61 -38 39z"/>
<path d="M5306 911 c-4 -7 -5 -15 -2 -18 9 -9 19 4 14 18 -4 11 -6 11 -12 0z"/>
<path d="M5660 879 l0 -40 42 3 c49 4 63 23 16 23 -29 0 -33 4 -36 28 -5 42 -22 32 -22 -14z"/>
<path d="M5990 910 c0 -5 23 -10 50 -10 28 0 50 5 50 10 0 6 -22 10 -50 10 -27 0 -50 -4 -50 -10z"/>
<path d="M5501 890 c0 -31 25 -50 68 -50 30 0 41 4 38 13 -2 7 -17 11 -37 9 -26 -3 -38 2 -52 20 -12 15 -18 18 -17 8z"/>
<path d="M5220 881 c0 -5 -2 -15 -5 -23 -4 -9 6 -14 35 -16 22 -1 40 2 40 8 0 5 -9 10 -20 10 -11 0 -23 7 -26 15 -7 16 -24 21 -24 6z"/>
<path d="M4145 858 c-47 -27 -39 -58 15 -58 50 0 70 23 45 50 -21 23 -32 24 -60 8z"/>
<path d="M4259 851 c-35 -28 -11 -51 51 -51 56 0 69 18 36 49 -28 26 -57 27 -87 2z"/>
<path d="M4580 850 c0 -5 18 -10 40 -10 22 0 40 5 40 10 0 6 -18 10 -40 10 -22 0 -40 -4 -40 -10z"/>
<path d="M5080 850 c0 -5 7 -10 15 -10 8 0 15 5 15 10 0 6 -7 10 -15 10 -8 0 -15 -4 -15 -10z"/>
<path d="M5870 850 c0 -5 7 -10 15 -10 8 0 15 5 15 10 0 6 -7 10 -15 10 -8 0 -15 -4 -15 -10z"/>
<path d="M5940 850 c0 -5 23 -10 50 -10 28 0 50 5 50 10 0 6 -22 10 -50 10 -27 0 -50 -4 -50 -10z"/>
<path d="M6070 850 c0 -5 5 -10 10 -10 6 0 10 5 10 10 0 6 -4 10 -10 10 -5 0 -10 -4 -10 -10z"/>
<path d="M573 714 c-18 -47 -226 -44 3686 -45 2267 0 3678 4 3684 10 5 5 7 17 5 27 l-3 19 -3683 3 c-3403 2 -3683 1 -3689 -14z"/>
<path d="M1158 515 c-1 -36 -2 -75 -2 -87 -1 -12 5 -23 12 -25 9 -4 12 18 12 86 0 105 -19 127 -22 26z"/>
<path d="M1373 568 c-4 -7 -8 -48 -9 -91 -2 -68 0 -78 15 -75 10 2 18 16 21 38 4 31 9 35 38 38 44 4 41 20 -5 24 l-38 3 3 38 c3 36 -9 49 -25 25z"/>
<path d="M2096 565 c-3 -8 6 -27 20 -42 13 -15 22 -33 19 -41 -6 -15 11 -42 27 -42 11 0 3 30 -25 92 -23 51 -31 57 -41 33z"/>
<path d="M2300 490 c0 -53 4 -90 10 -90 6 0 10 15 10 34 0 38 15 55 33 37 16 -16 23 -14 35 13 l10 23 -36 -1 -37 -1 1 38 c1 25 -3 37 -12 37 -11 0 -14 -21 -14 -90z"/>
<path d="M2360 571 c0 -12 29 -35 36 -28 11 10 -5 37 -21 37 -8 0 -15 -4 -15 -9z"/>
<path d="M2839 493 c3 -84 6 -102 15 -92 2 2 6 43 7 92 3 72 1 87 -11 87 -12 0 -14 -15 -11 -87z"/>
<path d="M3346 553 c-10 -14 -15 -24 -10 -22 43 20 64 34 64 41 0 18 -36 6 -54 -19z"/>
<path d="M3420 570 c0 -5 7 -10 15 -10 8 0 15 5 15 10 0 6 -7 10 -15 10 -8 0 -15 -4 -15 -10z"/>
<path d="M4093 573 c-16 -6 -18 -99 -2 -108 16 -11 19 -1 10 31 -4 16 -4 40 1 53 10 27 8 30 -9 24z"/>
<path d="M4430 555 c-15 -28 -7 -44 13 -27 8 7 17 9 20 5 9 -8 9 10 1 31 -9 23 -19 20 -34 -9z"/>
<path d="M4700 570 c0 -5 5 -10 10 -10 6 0 10 5 10 10 0 6 -4 10 -10 10 -5 0 -10 -4 -10 -10z"/>
<path d="M4941 533 c-12 -27 -27 -56 -33 -66 -12 -24 -3 -34 17 -17 8 7 15 25 15 40 0 15 7 33 15 40 12 10 17 5 32 -29 10 -23 21 -41 25 -41 11 0 10 17 -1 38 -5 9 -16 32 -23 50 -7 17 -15 32 -18 32 -3 0 -16 -21 -29 -47z"/>
<path d="M5388 574 c-12 -11 -10 -174 2 -174 6 0 10 13 10 29 0 39 20 53 72 49 l43 -3 3 -37 c6 -74 22 -36 22 52 0 88 -16 126 -22 53 l-3 -38 -55 0 -55 0 -5 38 c-3 22 -8 35 -12 31z"/>
<path d="M5705 569 c-21 -11 -45 -52 -45 -79 0 -25 30 -81 47 -87 25 -10 25 4 -1 32 -15 16 -26 37 -26 47 0 26 37 78 56 78 8 0 14 5 14 10 0 12 -18 12 -45 -1z"/>
<path d="M5770 572 c0 -12 49 -37 57 -29 8 8 -26 36 -44 37 -7 0 -13 -4 -13 -8z"/>
<path d="M5980 562 c0 -20 46 -69 56 -60 6 7 -37 78 -48 78 -5 0 -8 -8 -8 -18z"/>
<path d="M6670 567 c-22 -11 -25 -20 -28 -78 -2 -50 1 -69 13 -79 19 -15 34 -5 17 12 -18 18 -15 113 4 129 13 10 19 10 36 0 24 -15 35 -7 18 14 -15 18 -27 19 -60 2z"/>
<path d="M7547 573 c-11 -18 -10 -167 1 -171 6 -2 12 13 14 35 3 35 6 38 36 41 17 2 32 7 32 12 0 5 -15 10 -32 12 -30 3 -33 6 -34 35 0 34 -8 50 -17 36z"/>
<path d="M7752 560 c-17 -27 -15 -50 6 -66 20 -16 52 -18 52 -4 0 6 -6 10 -14 10 -25 0 -41 29 -28 51 14 22 15 29 4 29 -4 0 -13 -9 -20 -20z"/>
<path d="M7800 570 c0 -5 7 -10 15 -10 8 0 15 5 15 10 0 6 -7 10 -15 10 -8 0 -15 -4 -15 -10z"/>
<path d="M738 538 l-3 -33 -55 0 -55 0 -3 28 c-2 15 -8 27 -13 27 -5 0 -9 -36 -9 -80 0 -81 16 -112 22 -42 l3 37 65 1 65 1 3 47 c3 52 -15 65 -20 14z"/>
<path d="M937 550 c-3 -11 -1 -17 4 -14 14 8 39 -15 39 -37 0 -11 5 -19 10 -19 17 0 11 30 -11 61 -24 34 -35 36 -42 9z"/>
<path d="M1740 556 c0 -8 4 -17 8 -20 13 -8 35 11 28 23 -10 16 -36 14 -36 -3z"/>
<path d="M1872 549 c-16 -25 -8 -37 13 -19 17 14 17 15 15 -67 -1 -39 3 -63 9 -63 7 0 11 31 11 85 0 74 -2 85 -18 85 -9 0 -23 -9 -30 -21z"/>
<path d="M2610 560 c-13 -8 -11 -12 8 -26 17 -12 23 -23 19 -40 -3 -16 4 -31 19 -45 13 -13 24 -28 24 -36 0 -7 7 -13 15 -13 20 0 19 2 -9 58 -14 26 -30 62 -38 80 -14 35 -16 36 -38 22z"/>
<path d="M3040 555 c0 -8 5 -15 10 -15 6 0 10 7 10 15 0 8 -4 15 -10 15 -5 0 -10 -7 -10 -15z"/>
<path d="M3928 517 c-30 -97 -30 -97 -14 -97 20 0 42 44 51 103 10 67 -15 63 -37 -6z"/>
<path d="M4202 537 c-38 -29 -54 -57 -34 -57 15 0 92 79 83 84 -5 3 -27 -9 -49 -27z"/>
<path d="M4655 556 c-11 -8 -14 -15 -8 -19 6 -4 16 0 23 8 17 21 8 28 -15 11z"/>
<path d="M6120 517 c0 -63 -7 -73 -32 -50 -30 27 -33 6 -4 -32 45 -58 56 -48 56 50 0 50 -4 85 -10 85 -5 0 -10 -24 -10 -53z"/>
<path d="M6437 564 c-13 -13 6 -57 36 -84 27 -24 28 -28 16 -48 -16 -25 -6 -40 16 -22 29 24 13 78 -27 93 -12 4 -18 17 -18 37 0 29 -9 38 -23 24z"/>
<path d="M6860 556 c0 -8 4 -17 8 -20 13 -8 35 11 28 23 -10 16 -36 14 -36 -3z"/>
<path d="M7000 556 c0 -17 27 -29 35 -16 4 6 3 15 0 20 -9 15 -35 12 -35 -4z"/>
<path d="M7320 545 c0 -14 5 -25 10 -25 6 0 10 11 10 25 0 14 -4 25 -10 25 -5 0 -10 -11 -10 -25z"/>
<path d="M3620 480 c0 -94 18 -108 22 -17 3 53 6 62 21 59 9 -2 17 1 17 6 0 14 -23 32 -42 32 -16 0 -18 -10 -18 -80z"/>
<path d="M6280 538 c-1 -13 -7 -34 -15 -48 -17 -29 -20 -90 -4 -90 13 0 38 59 42 100 2 16 7 33 10 37 13 12 7 23 -13 23 -14 0 -20 -7 -20 -22z"/>
<path d="M3480 530 c0 -5 5 -10 10 -10 6 0 10 5 10 10 0 6 -4 10 -10 10 -5 0 -10 -4 -10 -10z"/>
<path d="M3780 530 c0 -5 5 -10 10 -10 6 0 10 5 10 10 0 6 -4 10 -10 10 -5 0 -10 -4 -10 -10z"/>
<path d="M4120 530 c0 -5 5 -10 10 -10 6 0 10 5 10 10 0 6 -4 10 -10 10 -5 0 -10 -4 -10 -10z"/>
<path d="M1740 460 c0 -49 3 -60 16 -60 13 0 15 7 10 31 -3 17 -6 44 -6 60 0 16 -4 29 -10 29 -6 0 -10 -27 -10 -60z"/>
<path d="M4480 506 c0 -9 5 -16 10 -16 6 0 10 4 10 9 0 6 -4 13 -10 16 -5 3 -10 -1 -10 -9z"/>
<path d="M5835 497 c5 -17 -2 -32 -25 -57 -17 -18 -28 -35 -25 -38 9 -9 55 20 55 35 0 7 5 22 12 32 12 20 5 51 -12 51 -6 0 -8 -10 -5 -23z"/>
<path d="M6860 460 c0 -49 3 -60 16 -60 13 0 15 7 10 31 -3 17 -6 44 -6 60 0 16 -4 29 -10 29 -6 0 -10 -27 -10 -60z"/>
<path d="M2060 491 c0 -11 -5 -23 -11 -26 -6 -4 -8 -13 -5 -21 3 -7 1 -16 -4 -19 -15 -9 -12 -25 5 -25 9 0 15 7 13 16 -2 13 18 33 39 40 6 1 -23 54 -29 54 -5 0 -8 -9 -8 -19z"/>
<path d="M2580 495 c0 -8 5 -15 10 -15 6 0 10 7 10 15 0 8 -4 15 -10 15 -5 0 -10 -7 -10 -15z"/>
<path d="M3486 503 c-9 -9 -7 -43 2 -43 10 0 32 21 32 31 0 10 -27 19 -34 12z"/>
<path d="M4240 460 c0 -27 5 -50 10 -50 6 0 10 23 10 50 0 28 -4 50 -10 50 -5 0 -10 -22 -10 -50z"/>
<path d="M4640 505 c0 -3 5 -15 11 -26 8 -16 14 -18 24 -9 9 8 15 8 20 0 10 -17 25 -11 25 10 0 14 -7 20 -24 20 -13 0 -31 3 -40 6 -9 3 -16 3 -16 -1z"/>
<path d="M7020 455 c0 -30 5 -55 10 -55 6 0 10 25 10 55 0 30 -4 55 -10 55 -5 0 -10 -25 -10 -55z"/>
<path d="M1820 480 c0 -11 5 -20 10 -20 6 0 10 9 10 20 0 11 -4 20 -10 20 -5 0 -10 -9 -10 -20z"/>
<path d="M3058 486 c-19 -14 -25 -46 -9 -46 5 0 11 10 14 21 5 20 11 21 66 16 48 -4 59 -2 54 9 -7 18 -101 18 -125 0z"/>
<path d="M3320 480 c0 -11 5 -20 10 -20 6 0 10 9 10 20 0 11 -4 20 -10 20 -5 0 -10 -9 -10 -20z"/>
<path d="M6940 480 c0 -11 5 -20 10 -20 6 0 10 9 10 20 0 11 -4 20 -10 20 -5 0 -10 -9 -10 -20z"/>
<path d="M910 480 c-8 -5 -11 -12 -7 -16 4 -4 13 -2 19 4 15 15 7 24 -12 12z"/>
<path d="M3720 468 c0 -7 11 -26 23 -42 17 -20 29 -27 41 -23 22 9 16 43 -7 39 -9 -1 -22 6 -29 18 -14 23 -28 26 -28 8z"/>
<path d="M4400 470 c0 -5 5 -10 10 -10 6 0 10 5 10 10 0 6 -4 10 -10 10 -5 0 -10 -4 -10 -10z"/>
<path d="M7820 452 c0 -10 -5 -23 -12 -30 -15 -15 -4 -26 17 -19 17 7 22 67 5 67 -5 0 -10 -8 -10 -18z"/>
<path d="M740 430 c0 -16 5 -30 10 -30 6 0 10 14 10 30 0 17 -4 30 -10 30 -5 0 -10 -13 -10 -30z"/>
<path d="M1000 448 c1 -16 28 -53 35 -47 6 7 -18 59 -27 59 -5 0 -8 -6 -8 -12z"/>
<path d="M2560 450 c0 -5 5 -10 10 -10 6 0 10 5 10 10 0 6 -4 10 -10 10 -5 0 -10 -4 -10 -10z"/>
<path d="M6720 450 c0 -5 5 -10 10 -10 6 0 10 5 10 10 0 6 -4 10 -10 10 -5 0 -10 -4 -10 -10z"/>
<path d="M7320 430 c0 -16 5 -30 10 -30 6 0 10 14 10 30 0 17 -4 30 -10 30 -5 0 -10 -13 -10 -30z"/>
<path d="M3470 435 c-7 -8 -19 -15 -26 -15 -8 0 -14 -4 -14 -10 0 -5 4 -10 8 -10 14 0 62 25 62 32 0 15 -18 17 -30 3z"/>
<path d="M4500 436 c0 -8 6 -16 14 -19 10 -4 12 0 9 14 -6 22 -23 26 -23 5z"/>
<path d="M2400 420 c0 -11 7 -20 15 -20 17 0 18 2 9 24 -9 23 -24 20 -24 -4z"/>
<path d="M3340 433 c0 -15 23 -33 42 -33 23 0 23 16 1 24 -10 3 -24 9 -30 12 -7 3 -13 2 -13 -3z"/>
<path d="M4086 433 c-12 -12 -6 -33 9 -33 8 0 15 6 15 14 0 17 -14 28 -24 19z"/>
<path d="M4380 420 c0 -11 5 -20 10 -20 6 0 10 9 10 20 0 11 -4 20 -10 20 -5 0 -10 -9 -10 -20z"/>
<path d="M4640 426 c0 -21 21 -31 30 -15 5 7 6 17 4 21 -9 14 -34 9 -34 -6z"/>
<path d="M7160 420 c0 -11 5 -20 10 -20 6 0 10 9 10 20 0 11 -4 20 -10 20 -5 0 -10 -9 -10 -20z"/>
<path d="M877 423 c-12 -11 -8 -23 8 -23 8 0 15 7 15 15 0 16 -12 20 -23 8z"/>
<path d="M4742 419 c2 -7 10 -15 17 -17 8 -3 12 1 9 9 -2 7 -10 15 -17 17 -8 3 -12 -1 -9 -9z"/>
<path d="M2540 410 c0 -5 4 -10 9 -10 6 0 13 5 16 10 3 6 -1 10 -9 10 -9 0 -16 -4 -16 -10z"/>
<path d="M3040 410 c0 -5 5 -10 10 -10 6 0 10 5 10 10 0 6 -4 10 -10 10 -5 0 -10 -4 -10 -10z"/>
<path d="M5020 410 c0 -5 7 -10 15 -10 8 0 15 5 15 10 0 6 -7 10 -15 10 -8 0 -15 -4 -15 -10z"/>
<path d="M7750 410 c0 -5 5 -10 10 -10 6 0 10 5 10 10 0 6 -4 10 -10 10 -5 0 -10 -4 -10 -10z"/>
</g>
</g>
</svg>
