<?xml version="1.0" standalone="no"?>
<!DOCTYPE svg PUBLIC "-//W3C//DTD SVG 1.1//EN"
 "http://www.w3.org/Graphics/SVG/1.1/DTD/svg11.dtd">
<!-- Created with svg_stack (http://github.com/astraw/svg_stack) -->
<svg xmlns:sodipodi="http://sodipodi.sourceforge.net/DTD/sodipodi-0.dtd" xmlns="http://www.w3.org/2000/svg" version="1.1" width="294.0" height="252.0">
  <defs/>
  <g id="id0:id0" transform="matrix(1.25,0,0,1.25,0.0,0.0)"><g transform="translate(0.000000,201.600000) scale(0.040000,-0.040000)" fill="#222432" stroke="none">
<path d="M0 2520 l0 -2520 2940 0 2940 0 0 2520 0 2520 -2940 0 -2940 0 0 -2520z m2724 2309 c-3 -5 -10 -7 -15 -3 -5 3 -7 10 -3 15 3 5 10 7 15 3 5 -3 7 -10 3 -15z m820 0 c-3 -5 -10 -7 -15 -3 -5 3 -7 10 -3 15 3 5 10 7 15 3 5 -3 7 -10 3 -15z m-1220 -30 c-3 -5 -10 -7 -15 -3 -5 3 -7 10 -3 15 3 5 10 7 15 3 5 -3 7 -10 3 -15z m450 -70 c-3 -5 -10 -7 -15 -3 -5 3 -7 10 -3 15 3 5 10 7 15 3 5 -3 7 -10 3 -15z m770 0 c-3 -5 -10 -7 -15 -3 -5 3 -7 10 -3 15 3 5 10 7 15 3 5 -3 7 -10 3 -15z m210 0 c-3 -5 -10 -7 -15 -3 -5 3 -7 10 -3 15 3 5 10 7 15 3 5 -3 7 -10 3 -15z m-3471 -399 c70 -24 106 -30 171 -30 72 0 93 -4 152 -31 101 -46 147 -89 187 -172 41 -87 57 -155 57 -246 0 -49 -4 -72 -15 -81 -33 -27 -42 -5 -50 112 -7 123 -15 143 -82 223 -39 47 -113 100 -155 110 -15 4 -62 8 -105 9 -68 1 -89 7 -161 40 -49 24 -86 36 -92 30 -5 -5 -16 -92 -25 -194 -9 -102 -19 -204 -22 -228 -8 -61 27 -142 84 -191 73 -65 106 -76 275 -97 60 -7 94 -28 64 -40 -8 -3 -59 -4 -113 -2 -109 4 -146 17 -243 87 -40 29 -61 54 -83 98 -27 54 -28 64 -23 143 3 47 10 119 16 160 5 41 12 104 15 140 9 99 34 190 53 190 4 0 47 -13 95 -30z m1182 -139 c7 -12 -12 -24 -25 -16 -11 7 -4 25 10 25 5 0 11 -4 15 -9z m1579 -12 c-3 -5 -10 -7 -15 -3 -5 3 -7 10 -3 15 3 5 10 7 15 3 5 -3 7 -10 3 -15z m2031 12 c7 -12 -12 -24 -25 -16 -11 7 -4 25 10 25 5 0 11 -4 15 -9z m130 0 c7 -12 -12 -24 -25 -16 -11 7 -4 25 10 25 5 0 11 -4 15 -9z m-3151 -42 c-3 -5 -14 -4 -25 1 -20 11 -24 22 -12 33 9 9 44 -23 37 -34z m686 7 c-13 -13 -35 7 -25 24 5 8 11 8 21 -1 10 -8 12 -15 4 -23z m1234 13 c-3 -5 -10 -7 -15 -3 -5 3 -7 10 -3 15 3 5 10 7 15 3 5 -3 7 -10 3 -15z m1575 -16 c-15 -18 -34 -1 -25 22 5 14 9 15 21 5 12 -10 13 -16 4 -27z m-2504 -33 c-5 -8 -11 -8 -17 -2 -6 6 -7 16 -3 22 5 8 11 8 17 2 6 -6 7 -16 3 -22z m-2711 -52 c7 -43 30 -78 50 -78 6 0 18 15 26 33 23 50 44 42 48 -18 4 -79 10 -93 52 -120 22 -14 42 -25 45 -25 3 0 5 22 5 50 0 41 5 55 29 82 27 30 31 32 46 17 14 -13 14 -25 6 -80 -25 -152 -13 -189 99 -304 96 -98 117 -129 98 -141 -7 -4 -50 33 -111 96 l-99 103 -87 -8 c-148 -12 -155 -12 -159 7 -4 21 20 33 101 48 68 14 75 33 25 75 -49 42 -76 48 -137 35 -39 -9 -56 -9 -64 -1 -17 17 4 44 42 55 17 5 31 13 31 17 0 5 -16 27 -36 49 -30 33 -43 40 -75 40 -49 0 -60 18 -20 33 27 10 31 16 31 47 0 79 41 69 54 -12z m3130 21 c-3 -5 -10 -7 -15 -3 -5 3 -7 10 -3 15 3 5 10 7 15 3 5 -3 7 -10 3 -15z m70 0 c-3 -5 -10 -7 -15 -3 -5 3 -7 10 -3 15 3 5 10 7 15 3 5 -3 7 -10 3 -15z m670 0 c-3 -5 -10 -7 -15 -3 -5 3 -7 10 -3 15 3 5 10 7 15 3 5 -3 7 -10 3 -15z m70 0 c-3 -5 -10 -7 -15 -3 -5 3 -7 10 -3 15 3 5 10 7 15 3 5 -3 7 -10 3 -15z m755 -5 c-6 -7 -15 -11 -21 -8 -5 3 -4 12 3 20 6 7 15 11 21 8 5 -3 4 -12 -3 -20z m85 -6 c-3 -5 -12 -4 -20 3 -7 6 -11 15 -8 21 3 5 12 4 20 -3 7 -6 11 -15 8 -21z m521 2 c-5 -8 -11 -8 -17 -2 -6 6 -7 16 -3 22 5 8 11 8 17 2 6 -6 7 -16 3 -22z m-3510 10 c11 -17 -5 -32 -21 -19 -7 6 -11 15 -8 20 7 12 21 11 29 -1z m700 -20 c-5 -8 -11 -8 -17 -2 -6 6 -7 16 -3 22 5 8 11 8 17 2 6 -6 7 -16 3 -22z m1240 0 c-5 -8 -11 -8 -17 -2 -6 6 -7 16 -3 22 5 8 11 8 17 2 6 -6 7 -16 3 -22z m-2395 -219 l35 -16 -3 -45 c-2 -25 -6 -48 -8 -52 -3 -5 -24 2 -46 13 -78 40 -205 2 -257 -76 -60 -88 -63 -142 -17 -233 53 -105 185 -152 286 -103 21 10 41 16 44 13 4 -3 6 -27 6 -53 0 -40 -4 -51 -24 -64 -54 -36 -235 -28 -267 11 -6 8 -22 14 -35 14 -28 0 -88 51 -118 100 -50 81 -66 205 -38 301 18 60 121 169 160 169 14 0 34 8 44 17 37 33 172 35 238 4z m1491 19 c29 0 113 -56 105 -69 -3 -5 -26 -4 -52 1 -50 11 -63 6 -45 -16 7 -8 8 -17 3 -20 -15 -9 -37 24 -34 50 4 26 -4 29 -42 14 -14 -5 -26 -17 -26 -27 0 -9 -12 -30 -27 -45 -34 -35 -36 -84 -5 -123 12 -15 22 -25 22 -22 0 3 33 -8 73 -24 78 -34 127 -72 127 -101 0 -10 5 -27 12 -37 16 -26 -7 -58 -28 -40 -8 6 -25 8 -39 5 -20 -5 -27 -2 -37 19 -10 22 -59 53 -109 68 -11 4 -15 13 -12 30 6 32 -13 43 -38 21 l-19 -18 -28 21 c-51 37 -75 128 -53 195 18 55 80 108 137 118 27 4 58 6 69 4 11 -2 32 -4 46 -4z m769 -2 c8 -2 25 -9 37 -16 12 -7 26 -11 30 -11 4 1 16 -1 26 -6 9 -4 30 -2 46 4 84 35 161 -66 145 -191 -4 -29 -13 -65 -20 -79 -14 -27 -72 -83 -96 -91 -10 -4 -10 -11 3 -34 22 -38 18 -110 -8 -135 l-19 -19 -27 28 c-15 15 -46 57 -70 92 -65 97 -72 90 -72 -65 l0 -130 -50 -3 c-79 -5 -77 -14 -69 338 4 168 10 310 15 315 7 10 98 12 129 3z m-224 -10 c2 -3 -5 -26 -16 -51 l-21 -47 -47 6 c-26 3 -52 7 -59 9 -7 2 -26 -1 -42 -6 l-31 -11 6 -51 c3 -29 5 -69 5 -89 -1 -49 14 -55 121 -52 76 3 89 1 97 -15 18 -32 -5 -40 -103 -34 -116 7 -121 2 -120 -109 1 -57 5 -82 15 -89 8 -5 46 -9 84 -9 61 0 73 -3 93 -25 13 -13 22 -32 20 -42 -3 -16 -19 -19 -128 -24 -104 -5 -128 -4 -142 9 -10 8 -18 20 -18 27 0 6 -11 17 -25 23 -21 10 -25 18 -25 58 0 51 20 84 50 84 17 0 30 19 30 44 0 15 -47 39 -60 31 -13 -8 -30 29 -30 68 0 40 8 51 26 36 16 -13 54 -2 54 16 0 45 -31 60 -50 24 -9 -16 -14 -18 -26 -9 -7 7 -11 16 -8 21 3 5 7 35 10 67 3 43 9 60 24 71 l21 14 -22 23 c-11 12 -18 27 -15 33 6 9 322 8 332 -1z m1473 -2 c8 -6 -15 -76 -30 -91 -3 -2 -31 0 -64 4 -35 5 -71 4 -87 -1 l-28 -10 6 -56 c3 -32 5 -71 5 -89 -1 -44 16 -50 121 -47 76 3 89 1 97 -15 18 -33 -5 -41 -103 -34 -116 7 -121 3 -120 -109 1 -57 5 -82 15 -89 8 -5 45 -9 83 -9 57 0 72 -4 92 -22 26 -25 32 -56 12 -62 -7 -3 -69 -7 -137 -10 l-123 -5 -11 29 c-6 16 -21 33 -34 39 -19 9 -23 18 -23 57 0 51 20 84 50 84 17 0 30 19 30 44 0 15 -47 39 -60 31 -13 -8 -30 29 -30 68 0 40 8 51 26 36 16 -13 54 -2 54 16 0 45 -31 60 -50 24 -9 -16 -14 -18 -26 -9 -7 7 -11 16 -8 21 3 5 8 39 11 77 6 90 11 137 12 139 3 5 312 -6 320 -11z m-826 -28 c9 -11 17 -33 17 -49 0 -15 10 -44 21 -64 16 -26 19 -39 11 -47 -8 -8 -14 -4 -21 14 -13 35 -30 44 -48 25 -13 -13 -13 -17 2 -40 17 -27 17 -93 0 -91 -5 0 -14 14 -19 30 -5 16 -22 57 -38 92 -15 34 -28 67 -28 73 0 5 -7 23 -15 40 -9 16 -14 33 -11 38 10 16 110 0 129 -21z m-1139 -89 c-3 -5 -10 -7 -15 -3 -5 3 -7 10 -3 15 3 5 10 7 15 3 5 -3 7 -10 3 -15z m1520 7 l33 -14 -15 -60 c-9 -38 -25 -72 -44 -92 -18 -20 -26 -36 -20 -42 6 -6 5 -23 -3 -44 -17 -50 -27 -57 -61 -42 -16 6 -36 12 -44 12 -19 1 -19 8 6 86 12 36 24 77 28 92 3 14 15 47 26 72 21 51 37 56 94 32z m-2578 -42 c23 -13 48 -33 56 -46 20 -30 30 -86 17 -93 -5 -4 -8 -14 -7 -23 2 -10 -4 -17 -12 -17 -10 0 -15 10 -15 30 0 38 -41 93 -57 77 -8 -8 -19 -7 -42 5 -35 19 -113 21 -143 5 -29 -16 -37 -2 -13 23 12 12 20 29 18 36 -3 13 2 14 44 2 9 -3 25 4 35 16 22 26 56 21 119 -15z m679 -229 l0 -260 -50 -3 -50 -3 -30 41 c-17 22 -58 77 -93 122 -35 45 -70 94 -78 110 -16 31 -16 32 46 42 l35 6 55 -70 c30 -39 59 -69 65 -67 5 2 12 34 15 72 4 57 8 69 24 71 26 4 36 22 36 67 0 36 -20 52 -35 27 -13 -22 -25 3 -22 46 3 49 18 66 57 62 l25 -3 0 -260z m-355 205 c22 -31 20 -50 -6 -50 -10 0 -14 -12 -14 -43 0 -24 -4 -47 -10 -53 -5 -5 -11 -72 -12 -149 l-3 -140 -25 -3 c-14 -2 -30 -8 -36 -13 -7 -6 -16 -4 -24 6 -8 10 -11 61 -9 182 1 92 4 172 7 176 2 5 14 -1 27 -13 27 -25 38 -15 42 37 1 23 -4 36 -16 43 -10 5 -21 7 -24 3 -9 -8 -38 18 -31 28 3 5 12 5 22 0 11 -6 28 -4 47 4 42 18 41 19 65 -15z m-610 -45 c37 12 41 -6 11 -41 -100 -114 -19 -283 139 -288 95 -3 158 50 184 151 13 52 23 60 51 39 44 -32 11 -164 -54 -219 -77 -64 -226 -75 -316 -23 -131 77 -170 258 -82 383 7 9 14 10 28 2 11 -5 29 -7 39 -4z m2555 -35 c-5 -8 -11 -8 -17 -2 -6 6 -7 16 -3 22 5 8 11 8 17 2 6 -6 7 -16 3 -22z m8 -39 c20 -8 29 -23 42 -68 9 -32 18 -66 21 -75 6 -19 39 -25 48 -9 8 12 99 7 103 -6 2 -6 -1 -14 -6 -18 -6 -3 -11 -17 -11 -31 0 -13 -4 -32 -9 -42 -11 -21 -27 -62 -35 -84 -4 -15 -17 -18 -66 -18 -53 0 -61 3 -69 23 -72 180 -93 249 -80 262 14 14 11 22 -12 28 -29 8 -19 31 17 38 16 4 30 7 31 8 1 0 13 -3 26 -8z m-3859 -183 c-4 -5 -17 0 -30 13 -13 12 -21 26 -18 31 4 5 17 0 30 -13 13 -12 21 -26 18 -31z m221 22 c-3 -5 -1 -11 5 -15 5 -3 10 -39 10 -79 0 -39 5 -77 11 -83 17 -17 -5 -24 -27 -9 -17 12 -19 25 -17 85 1 39 4 75 8 80 3 6 -4 15 -15 21 -11 6 -18 15 -15 21 4 5 14 5 26 -1 11 -6 17 -15 14 -20z m-586 -6 c-6 -7 -15 -11 -21 -8 -5 3 -4 12 3 20 6 7 15 11 21 8 5 -3 4 -12 -3 -20z m115 5 c-3 -5 -10 -7 -15 -3 -5 3 -7 10 -3 15 3 5 10 7 15 3 5 -3 7 -10 3 -15z m115 -24 c-12 -19 -25 -32 -30 -29 -14 8 -11 19 12 48 29 37 42 23 18 -19z m235 24 c-3 -5 -10 -7 -15 -3 -5 3 -7 10 -3 15 3 5 10 7 15 3 5 -3 7 -10 3 -15z m2609 -27 c11 -16 -24 -87 -52 -109 -39 -31 -45 -30 -52 6 -6 27 -2 33 28 51 27 16 33 24 24 34 -6 7 -8 16 -4 19 9 9 51 9 56 -1z m-3038 -37 c11 -5 23 -9 28 -10 4 -2 8 -3 10 -5 1 -1 10 -3 20 -5 26 -5 47 -25 47 -44 0 -24 -29 -63 -42 -55 -6 4 -6 10 1 17 26 26 10 61 -31 72 -5 2 -11 4 -15 5 -5 1 -12 2 -16 1 -12 -2 -67 29 -67 38 0 17 14 20 29 8 9 -8 25 -18 36 -22z m2805 -50 c24 5 30 1 48 -29 11 -19 18 -37 15 -40 -12 -12 -100 -6 -119 9 -10 8 -28 15 -40 15 -11 0 -29 9 -38 19 -19 21 -13 44 22 84 15 17 18 16 50 -23 29 -35 39 -40 62 -35z m-2396 -6 c-3 -5 -10 -7 -15 -3 -5 3 -7 10 -3 15 3 5 10 7 15 3 5 -3 7 -10 3 -15z m-224 -13 c0 -8 7 -19 15 -26 8 -7 12 -16 9 -22 -7 -11 -31 7 -45 34 -11 20 -3 42 12 33 5 -4 9 -12 9 -19z m134 -31 c-16 -24 -38 -38 -48 -28 -8 8 46 63 56 57 4 -3 1 -16 -8 -29z m109 -28 c-3 -5 -14 0 -25 11 -12 12 -17 25 -13 32 6 9 13 6 26 -11 9 -13 15 -27 12 -32z m-449 1 c-3 -5 -14 -2 -25 8 -10 9 -16 21 -13 26 3 5 14 2 25 -8 10 -9 16 -21 13 -26z m2960 -739 c-3 -5 -10 -7 -15 -3 -5 3 -7 10 -3 15 3 5 10 7 15 3 5 -3 7 -10 3 -15z m81 -49 c-5 -8 -11 -8 -17 -2 -6 6 -7 16 -3 22 5 8 11 8 17 2 6 -6 7 -16 3 -22z m589 -41 c-3 -5 -10 -7 -15 -3 -5 3 -7 10 -3 15 3 5 10 7 15 3 5 -3 7 -10 3 -15z m-1450 -10 c-3 -5 -10 -7 -15 -3 -5 3 -7 10 -3 15 3 5 10 7 15 3 5 -3 7 -10 3 -15z m1465 -593 c8 -9 10 -230 8 -802 l-2 -789 -795 0 -795 0 -3 399 c-1 286 1 403 9 412 8 10 8 18 1 27 -11 13 -18 740 -7 757 4 6 288 10 789 10 646 0 786 -2 795 -14z"/>
<path d="M3938 3786 c-15 -5 -29 -14 -31 -20 -3 -6 -2 -51 2 -100 7 -104 14 -112 85 -102 60 9 94 40 102 91 5 33 1 46 -20 75 -14 19 -29 42 -32 50 -6 18 -64 21 -106 6z"/>
<path d="M4620 3540 c0 -11 7 -20 15 -20 17 0 18 2 9 24 -9 23 -24 20 -24 -4z"/>
</g>
</g>
  <g id="id1:id1" transform="matrix(1.25,0,0,1.25,0.0,0.0)"><g transform="translate(0.000000,201.600000) scale(0.040000,-0.040000)" fill="#0076ac" stroke="none">
<path d="M2302 4930 l-23 -10 3 -107 c3 -91 6 -108 20 -111 11 -2 18 7 23 30 9 41 22 58 45 58 10 0 23 7 30 15 17 21 30 9 30 -26 0 -41 39 -79 82 -79 40 1 64 17 78 54 12 33 25 27 45 -20 17 -42 39 -44 55 -4 18 44 28 45 44 5 20 -47 40 -44 61 8 16 38 18 40 29 23 29 -50 55 -67 99 -64 30 2 43 8 45 20 3 13 -6 17 -40 20 -52 4 -53 22 -1 26 21 2 43 8 49 13 16 13 24 0 24 -38 0 -22 6 -36 16 -40 23 -8 34 14 34 69 0 37 4 50 20 58 22 12 23 11 20 -42 -2 -55 35 -90 93 -86 30 2 43 8 45 21 3 14 -4 17 -37 17 -22 0 -42 4 -46 9 -8 13 4 18 52 22 38 4 44 1 65 -31 l24 -35 59 0 60 0 3 118 3 118 -23 -3 c-16 -2 -24 -11 -28 -32 -4 -23 -10 -30 -32 -30 -15 -1 -38 -12 -52 -25 l-25 -24 -31 27 c-37 30 -45 31 -84 11 -25 -13 -32 -13 -43 -2 -19 19 -81 9 -94 -15 l-10 -19 -31 26 c-33 28 -67 28 -99 -1 -13 -12 -17 -11 -32 3 -13 13 -19 14 -31 3 -9 -7 -16 -21 -16 -31 0 -33 -19 -30 -34 6 -19 45 -43 45 -62 0 -17 -41 -29 -39 -37 5 -7 33 -40 42 -51 14 -6 -15 -8 -15 -27 2 -26 23 -82 23 -108 0 -21 -19 -25 -16 -35 27 -5 20 -17 33 -41 43 -39 16 -51 16 -83 4z m73 -70 c0 -16 -6 -26 -18 -28 -19 -4 -32 20 -23 44 9 25 41 13 41 -16z m173 -78 c-4 -29 -28 -48 -52 -39 -23 9 -22 73 1 86 25 13 55 -15 51 -47z m377 49 c7 -12 -12 -24 -25 -16 -11 7 -4 25 10 25 5 0 11 -4 15 -9z m249 -12 c-3 -5 -10 -7 -15 -3 -5 3 -7 10 -3 15 3 5 10 7 15 3 5 -3 7 -10 3 -15z m181 -34 c0 -36 -2 -40 -25 -40 -20 0 -26 6 -28 28 -5 42 5 59 30 55 20 -3 23 -9 23 -43z"/>
<path d="M3507 4933 c-13 -12 -8 -211 6 -220 20 -12 96 -14 117 -3 11 6 27 27 35 46 17 41 29 38 46 -13 11 -33 10 -38 -10 -54 -26 -21 -28 -49 -3 -49 30 0 59 40 91 125 36 93 38 105 12 105 -13 0 -24 -13 -35 -41 -18 -45 -31 -44 -41 2 -8 34 -28 47 -49 29 -11 -9 -21 -8 -45 4 -16 9 -40 15 -53 13 -19 -2 -24 3 -26 31 -2 23 -8 32 -21 32 -10 0 -21 -3 -24 -7z m108 -142 c0 -41 -25 -62 -49 -42 -33 27 -12 85 29 79 16 -2 20 -11 20 -37z"/>
<path d="M1505 3889 c-126 -15 -245 -101 -286 -208 -32 -83 -31 -197 4 -273 72 -160 242 -245 414 -207 76 16 87 29 89 104 1 36 -2 68 -7 71 -5 3 -30 -4 -55 -16 -64 -32 -157 -25 -208 14 -116 88 -125 234 -20 325 63 55 168 65 239 21 18 -11 35 -20 39 -20 3 0 6 34 6 75 l0 74 -28 15 c-43 22 -121 32 -187 25z"/>
<path d="M3036 3884 c-68 -18 -96 -41 -130 -108 -27 -53 -30 -55 -47 -40 -18 16 -103 24 -116 10 -4 -4 -8 -73 -10 -153 -1 -80 -6 -150 -10 -154 -5 -5 -24 12 -43 36 -19 25 -48 59 -64 76 l-28 31 -33 -18 c-28 -15 -36 -16 -49 -5 -22 18 -20 37 5 55 25 17 21 38 -23 102 l-29 44 -60 0 c-53 0 -59 -2 -64 -22 -3 -13 -7 -138 -8 -278 l-2 -255 53 1 c81 3 82 5 82 165 0 76 4 140 8 143 8 5 130 -143 215 -260 42 -59 52 -64 111 -64 47 0 66 13 66 45 0 34 10 36 45 10 17 -14 38 -25 46 -25 8 0 20 -5 26 -11 19 -19 116 -22 176 -5 104 30 147 89 147 202 0 51 -5 73 -24 102 -29 47 -49 60 -149 102 -76 32 -97 50 -97 88 0 53 97 84 135 42 10 -11 26 -20 37 -20 22 0 77 58 78 81 0 26 -65 77 -107 84 -78 12 -89 12 -137 -1z m-161 -194 c-3 -5 -1 -11 5 -15 5 -3 10 -16 10 -28 0 -32 41 -97 70 -113 14 -7 59 -30 100 -49 41 -20 79 -40 84 -45 14 -13 25 -103 15 -116 -5 -6 -37 -10 -75 -9 -60 2 -68 5 -94 34 -16 17 -33 31 -39 31 -6 0 -24 -20 -41 -45 -17 -25 -36 -43 -41 -39 -6 3 -9 81 -9 194 1 104 -1 193 -4 198 -3 5 -3 12 1 15 8 9 24 -3 18 -13z"/>
<path d="M3853 3892 c-65 -3 -72 -5 -77 -26 -5 -20 -9 -284 -8 -585 0 -85 5 -91 74 -91 79 0 78 -2 78 125 0 63 4 116 8 119 7 4 104 -119 143 -181 18 -30 36 -29 61 2 11 14 26 25 34 25 19 0 18 7 -6 40 -11 16 -17 35 -14 44 3 9 -3 34 -15 57 l-21 41 49 44 c53 48 69 82 75 158 6 81 11 77 61 -59 14 -38 30 -78 36 -87 5 -10 9 -25 9 -33 0 -8 4 -23 9 -33 5 -9 23 -57 41 -107 59 -169 48 -157 144 -148 46 4 67 10 72 22 3 9 32 90 63 181 32 91 65 179 74 196 18 35 38 106 40 144 2 19 -3 25 -18 26 -21 0 -48 9 -77 25 -10 5 -23 6 -31 4 -7 -3 -37 -79 -66 -170 -49 -154 -75 -207 -85 -174 -2 8 -27 77 -55 154 -28 77 -58 163 -66 191 -8 29 -21 57 -29 63 -9 7 -41 11 -83 9 -60 -3 -68 -5 -69 -23 -1 -11 -2 -24 -3 -28 0 -5 -20 7 -42 27 -44 37 -101 53 -161 43 -18 -2 -42 -2 -53 2 -11 3 -52 5 -92 3z m184 -142 c37 -22 48 -54 39 -106 -6 -29 -14 -38 -43 -50 -19 -8 -49 -14 -67 -12 l-31 3 -8 78 c-6 57 -5 82 3 93 17 20 69 17 107 -6z"/>
<path d="M3415 3881 l-60 -6 -2 -45 c-8 -184 -1 -615 10 -627 4 -3 13 0 22 7 12 10 18 10 31 -1 17 -14 164 -15 259 -1 44 6 50 10 52 32 2 15 -7 36 -24 55 -24 28 -33 30 -107 35 l-81 5 -3 62 c-5 99 0 103 123 103 l105 0 0 40 c0 45 5 43 -100 44 -63 1 -75 4 -72 17 1 9 -6 19 -16 21 -29 8 -44 106 -19 125 7 6 39 7 75 4 68 -7 92 0 92 29 0 10 5 22 10 25 6 3 10 22 10 41 l0 34 -64 0 c-34 0 -90 2 -122 4 -32 2 -86 1 -119 -3z"/>
<path d="M4851 3878 c-16 -6 -19 -19 -21 -90 -1 -46 -5 -117 -8 -158 -5 -49 -3 -88 5 -112 8 -23 12 -85 10 -168 -3 -141 1 -162 27 -141 13 11 19 11 32 0 12 -10 42 -13 98 -12 114 3 193 10 205 18 19 11 11 49 -16 80 -24 28 -33 30 -107 35 l-81 5 -3 62 c-5 94 4 105 91 103 40 -1 87 -1 105 -1 l32 1 0 40 c0 45 5 43 -100 44 -63 1 -75 4 -72 17 1 9 -6 19 -16 21 -29 8 -44 106 -19 125 7 6 39 7 75 4 68 -7 92 0 92 29 0 10 5 22 10 25 6 3 10 22 10 41 l0 34 -87 2 c-172 4 -244 3 -262 -4z"/>
<path d="M5303 3863 c-61 -8 -83 -74 -38 -118 67 -68 190 21 128 93 -21 23 -45 30 -90 25z"/>
<path d="M2031 3740 l-33 -21 -20 18 c-26 23 -53 6 -53 -33 -1 -22 -8 -32 -30 -43 -25 -12 -30 -12 -40 3 -18 23 -29 20 -63 -18 -42 -48 -55 -96 -50 -180 9 -142 111 -248 251 -263 119 -12 227 40 272 130 36 74 42 160 13 186 -13 13 -18 26 -14 39 8 25 -25 101 -55 128 -79 69 -128 84 -178 54z m74 -128 c59 -32 79 -67 79 -139 0 -65 -22 -99 -88 -132 -45 -23 -53 -24 -104 -13 -135 28 -183 169 -89 259 58 57 129 65 202 25z"/>
<path d="M3496 2569 c-3 -8 -6 -23 -8 -34 -2 -13 -14 -21 -37 -26 -18 -4 -43 -16 -54 -28 l-21 -20 -22 24 c-26 28 -60 32 -91 10 -18 -13 -23 -13 -33 -1 -14 18 -81 10 -93 -11 -7 -11 -13 -10 -34 7 -48 37 -105 21 -129 -36 l-14 -34 -25 16 c-31 20 -31 22 1 34 22 9 24 13 14 25 -22 26 -90 11 -90 -20 0 -26 -20 -26 -32 0 -6 14 -21 28 -32 31 -32 8 -101 -10 -102 -26 -2 -31 -5 -31 -33 -1 -36 39 -79 41 -112 7 l-23 -24 -30 25 c-24 20 -37 24 -65 19 -20 -3 -44 -6 -53 -6 -13 0 -18 -8 -18 -29 0 -34 -15 -48 -27 -28 -4 8 -23 22 -41 31 -42 22 -40 51 3 51 20 0 31 6 33 17 5 24 -44 35 -76 17 -58 -33 -55 -83 8 -118 22 -12 40 -26 40 -30 0 -18 -29 -32 -53 -26 -29 8 -44 -9 -27 -30 18 -22 73 -18 104 6 29 22 33 19 38 -36 4 -37 30 -44 45 -12 7 15 23 26 41 30 17 3 40 16 51 28 l21 23 20 -22 c11 -12 31 -24 44 -28 28 -7 81 18 90 41 8 21 26 10 26 -16 0 -12 7 -19 20 -19 17 0 20 7 20 49 0 30 5 53 15 61 23 19 35 2 35 -49 0 -56 19 -81 41 -55 8 9 12 27 11 40 -5 39 6 44 43 23 35 -21 38 -42 7 -37 -28 4 -45 -11 -31 -28 16 -20 59 -17 89 5 l24 19 24 -19 c37 -29 89 -21 118 19 9 12 13 10 28 -13 24 -36 46 -17 46 40 0 40 19 73 33 58 4 -3 7 -22 7 -40 0 -59 59 -98 114 -77 30 12 18 34 -18 34 -19 0 -38 5 -41 10 -7 11 3 15 53 24 27 5 34 2 41 -17 5 -13 17 -29 27 -37 19 -17 105 -20 116 -5 4 6 8 53 8 106 0 73 -4 100 -15 109 -12 10 -16 10 -19 -1z m-1038 -111 c30 -30 -1 -94 -33 -68 -15 13 -21 61 -8 73 10 11 28 8 41 -5z m170 -24 c4 -38 -20 -63 -43 -44 -15 13 -21 61 -8 74 4 4 16 6 28 4 14 -2 21 -12 23 -34z m440 24 c28 -28 2 -88 -33 -74 -15 5 -22 66 -8 79 10 11 28 8 41 -5z m410 0 c17 -17 15 -42 -6 -62 -18 -15 -20 -15 -37 4 -32 36 9 92 43 58z"/>
<path d="M3620 2461 l0 -108 47 -7 c53 -7 95 14 101 50 7 37 21 37 38 1 l18 -37 -23 -24 c-14 -15 -21 -32 -18 -40 17 -44 65 8 106 114 26 66 30 85 19 91 -13 9 -29 -5 -54 -47 -11 -18 -13 -17 -25 11 -17 38 -29 46 -51 34 -12 -6 -25 -6 -39 1 -11 6 -32 10 -47 8 -24 -3 -27 1 -30 30 -2 24 -8 32 -23 32 -18 0 -19 -8 -19 -109z m98 -3 c25 -25 8 -78 -25 -78 -22 0 -37 44 -24 69 13 24 31 27 49 9z"/>
<path d="M2260 1470 c0 -181 4 -330 8 -330 13 0 46 39 48 57 4 24 21 36 41 29 16 -7 16 -9 -7 -26 -14 -10 -25 -22 -26 -27 -2 -20 -18 -68 -35 -101 l-18 -37 19 -19 19 -19 19 23 c11 14 24 20 31 16 9 -6 7 -14 -10 -32 -12 -13 -26 -21 -31 -18 -5 3 -20 -2 -33 -10 l-25 -16 0 -394 c0 -350 2 -395 16 -400 20 -8 1578 -8 1598 0 14 5 16 37 16 255 0 209 -2 248 -14 243 -8 -3 -17 -1 -21 5 -3 6 5 15 19 21 22 8 26 16 26 49 0 50 -8 71 -25 65 -7 -3 -16 0 -20 6 -4 7 2 14 14 17 l21 5 0 484 0 484 -815 0 -815 0 0 -330z m255 -251 c4 -5 -1 -12 -9 -15 -11 -4 -16 -19 -16 -49 0 -62 -16 -64 -41 -6 -11 27 -27 52 -36 55 -8 3 -12 10 -9 14 7 12 104 13 111 1z m89 -14 c9 -14 21 -25 26 -25 6 0 15 11 20 25 10 25 34 33 45 15 3 -6 0 -13 -9 -16 -8 -3 -21 -23 -30 -44 -22 -56 -34 -57 -55 -7 -11 24 -27 47 -36 50 -9 4 -13 11 -10 17 11 17 32 11 49 -15z m199 18 c4 -3 0 -15 -10 -25 -15 -17 -18 -17 -34 -2 -10 9 -16 21 -13 25 6 11 48 12 57 2z m192 -2 c10 -17 -33 -33 -55 -21 -27 14 -16 30 20 30 16 0 31 -4 35 -9z m199 0 c3 -4 -3 -16 -13 -25 -18 -17 -21 -17 -45 -1 -14 10 -24 20 -22 24 6 10 74 12 80 2z m81 -1 c5 -8 11 -7 21 1 8 6 14 9 14 5 0 -3 0 -8 0 -11 0 -3 -2 -4 -4 -2 -3 1 -15 -8 -28 -20 l-23 -22 -22 23 c-12 13 -20 26 -16 30 10 10 51 7 58 -4z m159 1 c3 -5 -1 -14 -8 -21 -17 -13 -61 4 -51 21 8 11 52 12 59 0z m151 -1 c3 -4 -2 -13 -10 -20 -8 -7 -15 -25 -15 -41 0 -44 -18 -44 -36 0 -8 22 -22 42 -30 45 -9 3 -13 10 -10 14 7 11 94 13 101 2z m149 1 c3 -5 -1 -14 -9 -21 -8 -7 -15 -21 -15 -31 0 -30 -18 -31 -37 -2 -10 15 -23 32 -30 36 -8 5 -11 11 -9 15 6 11 94 13 100 3z m61 -1 c11 -18 -5 -31 -26 -20 -11 6 -17 15 -14 21 8 12 32 12 40 -1z m-827 -115 c0 -58 -8 -74 -28 -51 -8 11 -9 20 0 35 7 14 7 27 1 39 -7 13 -7 22 1 30 19 19 25 5 26 -53z m412 5 c-11 -21 -24 -42 -30 -45 -19 -12 -41 17 -38 49 3 27 8 32 38 37 49 7 52 3 30 -41z m-986 -1 c-3 -5 -10 -7 -15 -3 -5 3 -7 10 -3 15 3 5 10 7 15 3 5 -3 7 -10 3 -15z m1080 0 c-3 -5 -10 -7 -15 -3 -5 3 -7 10 -3 15 3 5 10 7 15 3 5 -3 7 -10 3 -15z m205 -69 c30 -44 32 -72 4 -49 -11 10 -19 10 -34 1 -26 -17 -42 -6 -29 18 5 10 10 29 10 43 0 22 9 41 16 34 2 -2 17 -23 33 -47z m-1085 -12 c14 -21 22 -39 18 -41 -12 -6 -72 -1 -72 6 0 11 12 61 17 70 6 10 6 10 37 -35z m106 13 c0 -10 7 -24 15 -31 8 -7 13 -16 10 -20 -4 -7 -56 -7 -95 0 -3 0 3 6 12 14 10 7 22 25 28 40 11 29 30 27 30 -3z m395 7 c0 -9 8 -25 18 -36 13 -14 15 -22 7 -27 -19 -12 -41 4 -38 27 2 11 -3 23 -9 25 -8 3 -13 -5 -13 -21 0 -27 -20 -43 -39 -32 -6 4 -7 15 -1 29 4 12 11 30 14 40 8 24 61 20 61 -5z m197 -48 c-4 -8 -54 -20 -63 -14 -4 2 -1 18 8 35 l15 30 22 -23 c11 -12 20 -25 18 -28z m-848 16 c11 -18 13 -27 5 -32 -13 -8 -50 36 -43 48 9 14 21 9 38 -16z m360 -28 c-7 -10 -41 -10 -47 0 -3 4 0 18 5 32 l9 25 19 -25 c10 -13 16 -28 14 -32z m640 43 c3 -4 -5 -18 -18 -30 -28 -26 -42 -14 -20 17 16 23 29 28 38 13z m85 -45 c-7 -8 -16 -4 -30 13 -26 32 -13 48 17 20 17 -16 21 -26 13 -33z m271 18 c0 -17 -24 -29 -40 -19 -8 5 -6 13 6 26 18 20 34 17 34 -7z m-820 1 c10 -12 9 -16 -4 -21 -9 -3 -23 -3 -32 0 -13 5 -14 9 -4 21 7 8 16 15 20 15 4 0 13 -7 20 -15z m210 0 c10 -12 9 -16 -4 -21 -9 -3 -23 -3 -32 0 -13 5 -14 9 -4 21 7 8 16 15 20 15 4 0 13 -7 20 -15z m-556 -114 c3 -5 -1 -14 -8 -20 -16 -13 -32 2 -21 19 8 12 22 13 29 1z m218 -8 c17 -15 19 -15 38 2 35 32 45 3 10 -30 l-30 -29 -30 29 c-16 15 -27 32 -24 37 8 12 15 10 36 -9z m321 10 c4 -3 0 -15 -10 -25 -15 -17 -18 -17 -34 -2 -10 9 -16 21 -13 25 6 11 48 12 57 2z m211 -2 c3 -4 -1 -17 -8 -27 l-14 -19 -21 19 c-11 10 -18 23 -15 27 7 12 51 12 58 0z m201 0 c10 -17 -34 -34 -51 -21 -7 7 -11 16 -8 21 7 12 51 11 59 0z m179 0 c3 -5 -5 -16 -19 -25 -23 -15 -25 -15 -34 3 -6 10 -7 21 -4 25 9 9 51 7 57 -3z m-947 -98 c7 -19 -40 -68 -57 -58 -8 5 -5 13 10 27 19 18 20 21 6 37 -9 10 -13 20 -10 24 9 9 44 -11 51 -30z m264 22 c0 -5 -7 -12 -16 -13 -23 -5 -47 6 -40 19 8 13 56 8 56 -6z m204 5 c8 -13 -20 -24 -41 -16 -20 8 -9 26 16 26 10 0 22 -5 25 -10z m250 1 c7 -12 -12 -24 -25 -16 -11 7 -4 25 10 25 5 0 11 -4 15 -9z m180 -1 c11 -17 -5 -32 -21 -19 -7 6 -11 15 -8 20 7 12 21 11 29 -1z m-755 -39 c0 -34 -9 -44 -27 -30 -16 14 -17 41 -1 57 16 16 28 5 28 -27z m405 -21 c-5 -8 -11 -8 -17 -2 -6 6 -7 16 -3 22 5 8 11 8 17 2 6 -6 7 -16 3 -22z m205 5 c10 -13 10 -19 -5 -35 -16 -18 -19 -18 -42 -3 l-25 17 24 18 c28 22 32 22 48 3z m183 -26 c-8 -8 -14 -6 -22 9 -13 25 -2 37 18 17 11 -11 12 -18 4 -26z m-593 1 c0 -25 -10 -30 -40 -18 l-25 9 25 19 c28 21 40 18 40 -10z m-97 -6 c8 -8 -33 -75 -43 -69 -7 5 -5 27 6 63 3 12 26 16 37 6z m227 -14 c6 -11 8 -20 4 -20 -3 0 -1 -7 6 -15 12 -14 9 -18 -7 -12 -5 1 -7 5 -6 9 1 3 -4 12 -13 19 -12 9 -17 10 -27 0 -7 -7 -13 -16 -13 -21 -3 -20 -4 -21 -14 -15 -8 5 -7 11 1 21 6 8 8 14 5 14 -4 0 -2 9 4 20 6 11 19 20 30 20 11 0 24 -9 30 -20z m-386 -19 c31 -32 18 -55 -14 -26 -18 16 -21 16 -44 2 -13 -9 -27 -13 -30 -10 -6 7 42 63 54 63 3 0 19 -13 34 -29z m-274 -35 c-13 -13 -35 7 -25 24 5 8 11 8 21 -1 10 -8 12 -15 4 -23z m540 0 c-13 -13 -35 7 -25 24 5 8 11 8 21 -1 10 -8 12 -15 4 -23z m560 19 c10 -12 9 -16 -4 -21 -9 -3 -23 -3 -32 0 -13 5 -14 9 -4 21 7 8 16 15 20 15 4 0 13 -7 20 -15z m-345 -4 c7 -12 -12 -24 -25 -16 -11 7 -4 25 10 25 5 0 11 -4 15 -9z m169 -12 c-3 -5 -10 -7 -15 -3 -5 3 -7 10 -3 15 3 5 10 7 15 3 5 -3 7 -10 3 -15z"/>
<path d="M2066 298 c-40 -57 -1 -138 66 -138 74 1 112 77 67 134 -17 22 -28 26 -69 26 -39 0 -52 -4 -64 -22z m85 -111 c-5 -5 -17 -7 -26 -3 -14 5 -15 9 -5 21 10 12 16 13 27 4 9 -8 10 -16 4 -22z"/>
</g>
</g>
  <g id="id2:id2" transform="matrix(1.25,0,0,1.25,0.0,0.0)"><g transform="translate(0.000000,201.600000) scale(0.040000,-0.040000)" fill="#ffffff" stroke="none">
<path d="M172 4363 c-26 -21 -47 -98 -56 -203 -3 -41 -10 -106 -16 -145 -6 -38 -13 -104 -16 -145 -6 -69 -3 -81 24 -141 16 -36 41 -74 55 -85 140 -104 166 -113 306 -117 89 -2 105 0 115 16 22 34 -4 51 -90 60 -43 4 -86 11 -94 14 -8 3 -24 5 -36 4 -11 -1 -50 17 -85 41 -50 34 -70 55 -92 98 -26 50 -28 62 -23 126 3 39 10 84 16 99 10 26 12 27 29 11 10 -9 35 -16 58 -16 30 0 46 -6 64 -26 l24 -26 -37 -30 c-40 -32 -48 -58 -23 -78 12 -10 24 -10 54 -1 21 6 51 11 66 11 31 0 90 -33 99 -56 7 -17 -30 -34 -73 -34 -33 0 -81 -34 -81 -57 0 -9 7 -24 15 -33 14 -15 21 -16 67 -3 29 7 82 13 118 13 l65 0 96 -100 c74 -78 102 -100 122 -100 58 0 23 65 -102 188 -70 70 -80 84 -86 125 -8 49 -2 167 10 203 9 28 -20 56 -53 52 -33 -4 -62 -44 -66 -91 -4 -50 -11 -55 -41 -27 -21 20 -25 33 -25 80 0 31 -5 61 -12 68 -20 20 -56 14 -74 -13 -22 -34 -40 -18 -47 41 -5 49 -19 66 -52 62 -16 -2 -21 -13 -25 -48 -4 -35 -9 -46 -25 -48 -11 -2 -28 -11 -37 -19 -15 -14 -18 -14 -23 -1 -8 20 13 230 24 241 5 5 18 3 32 -7 54 -35 163 -68 204 -61 54 8 138 -11 161 -36 9 -10 23 -19 29 -19 7 0 19 -9 26 -19 8 -10 32 -40 54 -66 35 -42 40 -56 48 -124 5 -42 9 -94 8 -115 -1 -50 23 -88 52 -84 97 14 32 356 -89 468 -24 22 -73 53 -111 71 -58 27 -82 32 -165 34 -89 4 -153 19 -249 59 -9 4 -25 -1 -37 -11z"/>
<path d="M1259 4189 c-17 -33 -3 -67 31 -76 37 -10 35 -29 -2 -26 -34 4 -47 -16 -23 -34 63 -45 149 23 98 79 -15 17 -15 20 0 35 13 13 21 14 41 5 22 -10 25 -18 28 -69 2 -44 7 -58 18 -58 11 0 16 14 18 57 2 45 7 60 23 68 22 12 24 9 33 -54 3 -21 13 -47 22 -57 24 -26 81 -25 110 2 l23 21 13 -21 c19 -32 87 -29 127 5 l31 26 10 -26 c8 -23 15 -26 59 -26 27 0 53 4 56 10 4 6 13 5 26 -3 16 -10 21 -9 29 3 5 8 10 23 10 32 0 31 17 28 41 -7 13 -19 32 -35 42 -35 14 0 17 10 17 64 0 69 8 83 39 66 16 -8 21 -23 23 -68 2 -43 7 -57 18 -57 11 0 16 14 18 58 3 50 6 59 28 69 45 21 20 33 -70 34 -66 1 -89 -2 -92 -12 -15 -51 -14 -50 -43 -16 -28 33 -49 40 -68 21 -8 -8 -13 -8 -17 0 -4 6 -30 11 -57 11 -44 0 -51 -3 -59 -26 l-10 -26 -25 26 c-20 21 -33 26 -73 26 -37 0 -51 -4 -56 -16 -6 -15 -8 -15 -26 1 -28 25 -38 11 -42 -55 -3 -51 -5 -55 -28 -55 -23 0 -25 4 -30 60 l-5 60 -147 2 c-140 2 -148 1 -159 -18z m726 -19 c11 -17 -5 -32 -21 -19 -7 6 -11 15 -8 20 7 12 21 11 29 -1z m-197 -12 c19 -19 14 -56 -8 -68 -28 -15 -40 -5 -40 34 0 46 21 61 48 34z m195 -69 c-13 -13 -79 -8 -76 6 3 13 65 24 78 13 5 -5 5 -12 -2 -19z"/>
<path d="M2375 4185 c-37 -36 -30 -98 14 -132 27 -21 80 -16 104 11 l23 24 21 -24 c32 -36 86 -33 123 6 30 32 40 30 40 -7 0 -33 34 -27 38 7 6 41 18 43 46 5 29 -38 50 -45 60 -19 5 14 8 14 28 0 12 -9 36 -16 53 -16 17 0 41 7 53 16 20 14 23 14 28 0 7 -19 103 -23 121 -5 8 8 13 8 17 0 12 -19 26 -12 37 17 l11 27 22 -27 c32 -41 49 -37 41 10 -4 28 -2 42 9 51 21 17 30 9 46 -38 17 -51 46 -63 72 -30 l18 24 6 -22 c7 -26 26 -30 44 -8 16 20 45 19 76 -1 18 -12 28 -14 36 -6 15 15 -42 156 -66 160 -17 4 -57 -24 -53 -37 1 -3 -1 -7 -6 -8 -16 -6 -19 -2 -8 11 9 10 8 16 -3 26 -20 16 -35 5 -52 -37 -17 -39 -30 -35 -50 13 -14 33 -37 44 -49 24 -4 -7 -12 -7 -25 0 -25 13 -93 13 -107 -1 -8 -8 -13 -8 -17 0 -10 15 -109 14 -124 -1 -9 -9 -15 -9 -24 0 -18 18 -93 15 -109 -4 -12 -14 -14 -14 -25 1 -16 22 -44 13 -44 -14 0 -33 -17 -33 -40 -1 -24 34 -60 41 -60 11 0 -31 -15 -33 -38 -6 -29 33 -100 35 -127 5 l-18 -20 -22 20 c-31 29 -89 27 -120 -5z m765 -25 c0 -26 -15 -33 -30 -15 -10 12 -10 18 0 30 15 18 30 11 30 -15z m-637 -9 c5 -5 7 -19 5 -31 -3 -23 -18 -30 -67 -33 -31 -3 -52 30 -40 62 8 21 13 23 52 17 23 -4 46 -11 50 -15z m127 3 c20 -24 1 -69 -29 -69 -31 0 -52 33 -40 63 10 26 50 30 69 6z m366 3 c4 -3 4 -13 0 -22 -5 -14 -8 -14 -31 1 -14 9 -23 19 -20 23 5 9 42 8 51 -2z m229 4 c3 -5 1 -13 -5 -16 -15 -9 -43 3 -35 15 8 13 32 13 40 1z m-312 -52 c31 -7 18 -24 -16 -21 -38 3 -52 15 -43 38 6 15 8 15 24 1 9 -8 25 -17 35 -18z m511 0 c-3 -5 -10 -7 -15 -3 -5 3 -7 10 -3 15 3 5 10 7 15 3 5 -3 7 -10 3 -15z m-287 -22 c-4 -10 -15 -12 -42 -8 -45 7 -47 24 -3 32 37 6 53 -3 45 -24z"/>
<path d="M3557 4204 c-12 -12 -8 -20 17 -32 22 -10 25 -19 28 -69 2 -44 7 -58 18 -58 11 0 16 14 18 57 2 45 7 60 23 68 31 17 39 3 39 -66 0 -51 3 -64 15 -64 9 0 20 12 25 26 l10 26 25 -26 c35 -37 88 -36 125 4 30 32 40 30 40 -7 0 -41 28 -21 45 32 6 18 9 17 37 -17 52 -65 72 -45 66 67 -2 48 -7 60 -21 63 -9 2 -19 -2 -21 -10 -17 -56 -15 -55 -44 -20 -30 36 -62 43 -62 13 0 -31 -15 -33 -40 -6 -31 33 -94 35 -126 4 l-22 -21 -11 19 c-8 17 -22 20 -94 22 -46 1 -86 -2 -90 -5z m313 -50 c18 -21 1 -68 -26 -72 -11 -2 -28 6 -39 18 -15 17 -16 24 -7 45 13 29 52 34 72 9z"/>
<path d="M4201 4188 c-5 -13 -19 -47 -30 -77 -25 -63 -17 -84 23 -57 30 19 60 21 74 3 14 -16 141 -21 159 -5 10 8 20 8 39 -1 38 -17 75 -13 100 10 l23 21 27 -21 c37 -29 85 -27 117 5 l26 26 32 -26 c35 -29 89 -35 109 -11 10 12 16 13 28 3 22 -19 89 -21 96 -3 7 20 65 20 72 0 4 -8 15 -15 26 -15 17 0 20 5 15 28 -3 16 -17 54 -31 85 -34 78 -58 78 -92 1 -28 -63 -44 -63 -44 1 0 47 -13 64 -35 45 -10 -8 -19 -8 -34 -1 -36 20 -90 13 -114 -13 l-22 -24 -28 24 c-52 45 -124 29 -148 -33 -4 -12 -13 -23 -18 -23 -17 0 -23 20 -11 35 22 26 4 45 -43 45 -24 0 -48 -5 -54 -11 -8 -8 -17 -8 -31 0 -38 20 -90 14 -107 -13 -21 -32 -7 -60 36 -75 40 -14 30 -29 -18 -26 -35 2 -39 6 -58 51 -11 27 -24 55 -28 62 -13 20 -47 14 -56 -10z m251 -44 c7 -14 24 -28 42 -32 17 -5 30 -12 28 -18 -5 -15 -56 -6 -72 14 -9 11 -26 24 -38 31 -26 14 -23 26 8 28 14 1 25 -7 32 -23z m253 -13 c0 -41 -25 -62 -52 -45 -41 26 -21 87 26 82 22 -3 26 -8 26 -37z m217 23 c10 -6 11 -58 1 -67 -3 -4 -12 -2 -19 4 -9 7 -19 6 -33 -3 -26 -16 -54 -1 -59 31 -6 37 17 54 62 47 21 -4 43 -9 48 -12z"/>
<path d="M5127 4203 c-12 -11 -8 -20 17 -31 22 -10 25 -19 28 -69 2 -44 7 -58 18 -58 11 0 16 14 18 57 2 46 7 60 24 69 29 15 36 3 40 -65 3 -65 18 -81 37 -40 l12 26 26 -26 c34 -35 81 -35 122 0 l31 26 10 -27 c12 -32 34 -28 38 6 6 40 18 42 46 4 48 -63 70 -40 64 70 -2 48 -7 60 -21 63 -9 2 -19 -2 -21 -10 -17 -55 -15 -55 -42 -20 -31 39 -51 41 -64 6 l-10 -26 -25 26 c-30 33 -90 36 -128 6 l-25 -20 -15 23 c-12 18 -17 20 -30 9 -10 -9 -17 -10 -22 -2 -7 11 -117 14 -128 3z m313 -47 c28 -35 -11 -93 -47 -70 -19 12 -28 46 -19 70 7 18 50 18 66 0z"/>
<path d="M189 3421 c-54 -55 -34 -98 61 -129 61 -19 73 -37 36 -52 -30 -11 -70 1 -79 24 -10 24 -47 20 -47 -5 0 -34 18 -57 56 -69 65 -22 144 12 144 61 0 33 19 30 34 -6 30 -71 132 -84 179 -23 l25 31 16 -25 c17 -26 55 -48 84 -48 9 0 30 7 46 15 20 11 33 12 40 5 13 -13 53 -13 61 0 3 5 -1 20 -9 32 -11 16 -16 46 -16 99 0 92 -14 109 -90 117 -48 4 -52 3 -85 -33 -19 -20 -33 -41 -30 -46 11 -17 54 -9 65 11 13 24 62 27 80 5 18 -22 5 -32 -52 -40 -39 -6 -59 -15 -80 -37 -19 -20 -33 -28 -46 -24 -13 4 -29 -4 -50 -24 -33 -31 -55 -32 -79 -2 -21 25 -16 99 7 122 27 27 46 25 75 -6 23 -25 55 -30 62 -9 1 6 -6 24 -17 42 -20 34 -68 51 -113 39 -36 -9 -76 -54 -83 -95 -10 -64 -12 -66 -35 -43 -11 12 -40 27 -64 33 -47 12 -71 31 -60 49 10 17 51 11 70 -10 26 -28 55 -26 55 4 0 35 -44 66 -92 66 -30 0 -46 -7 -69 -29z m576 -140 c0 -8 -13 -23 -28 -35 -21 -16 -32 -18 -45 -10 -26 17 -26 43 0 54 32 13 73 8 73 -9z"/>
<path d="M893 3263 c-7 -2 -13 -17 -13 -33 0 -22 5 -29 26 -33 24 -4 54 14 54 33 0 13 -30 40 -43 39 -7 0 -18 -3 -24 -6z"/>
<path d="M2318 1232 c-8 -9 -24 -39 -37 -67 -18 -40 -21 -64 -19 -125 l3 -75 31 -3 c22 -2 40 5 61 22 l30 25 22 -22 21 -23 306 -2 c217 -2 311 1 320 9 10 8 18 8 27 0 9 -7 69 -10 176 -8 l163 3 18 24 18 24 28 -27 c23 -23 35 -27 86 -27 33 0 69 5 80 11 14 8 23 8 31 0 14 -14 92 -14 118 -1 17 10 19 22 19 140 0 114 -2 129 -17 134 -10 2 -271 5 -580 5 l-563 1 -18 -20 -19 -20 -18 19 c-16 18 -31 20 -145 20 -108 0 -130 -3 -142 -17z m128 -118 c23 -49 32 -80 26 -86 -6 -6 -15 -2 -25 12 -22 32 -103 32 -127 0 -10 -13 -22 -20 -29 -16 -8 5 -9 12 -3 19 6 7 20 37 33 67 29 71 36 80 66 80 21 0 30 -12 59 -76z m144 22 c14 -27 31 -51 38 -54 6 -2 22 21 37 53 22 51 27 56 52 53 l28 -3 0 -77 c0 -94 -19 -110 -23 -20 -2 34 -7 62 -12 62 -5 0 -23 -30 -40 -66 -17 -37 -36 -64 -43 -62 -7 2 -25 32 -42 66 -16 34 -33 62 -37 62 -4 0 -11 -14 -15 -31 -12 -43 -27 -41 -31 5 -5 54 3 68 35 64 22 -2 33 -14 53 -52z m253 47 c4 -3 2 -12 -4 -19 -7 -9 -7 -19 1 -33 8 -15 8 -27 0 -41 -8 -14 -8 -26 0 -40 9 -16 8 -22 -4 -26 -8 -3 -20 -3 -26 1 -11 7 -14 147 -3 158 8 9 28 9 36 0z m190 0 c4 -3 0 -15 -10 -25 -15 -17 -15 -19 2 -38 16 -18 17 -22 3 -37 -9 -10 -18 -26 -19 -36 -2 -10 -8 -19 -14 -20 -11 -2 -20 126 -11 150 6 14 38 18 49 6z m108 -9 c10 -12 10 -22 1 -46 -8 -21 -8 -36 0 -53 12 -26 4 -60 -12 -50 -5 3 -10 14 -10 24 0 10 -10 25 -22 34 l-23 15 23 22 c21 20 22 23 8 39 -9 10 -13 21 -9 24 11 12 30 8 44 -9z m77 -75 c-2 -41 -7 -74 -13 -74 -11 0 -20 129 -10 153 13 35 26 -9 23 -79z m105 85 c3 -4 -3 -18 -13 -32 -27 -34 -25 -68 5 -97 29 -26 18 -43 -15 -25 -42 23 -52 92 -19 134 21 26 31 31 42 20z m193 -51 c13 -32 29 -66 35 -77 8 -13 7 -22 -1 -30 -8 -8 -16 -5 -29 13 -25 33 -96 34 -121 1 -11 -15 -23 -21 -34 -17 -14 6 -13 11 9 43 14 20 25 42 25 48 0 6 9 26 20 44 14 23 27 32 45 32 22 0 30 -9 51 -57z m157 0 c16 -29 32 -53 37 -53 10 0 18 25 22 73 2 15 8 27 13 27 6 0 10 -33 10 -77 l0 -78 -24 0 c-19 0 -32 12 -58 55 -18 30 -38 55 -45 55 -8 0 -15 -20 -18 -55 -7 -77 -24 -69 -28 14 -4 87 1 98 35 94 22 -2 34 -14 56 -55z m-1147 -99 c-5 -13 -10 -14 -18 -6 -6 6 -8 18 -4 28 5 13 10 14 18 6 6 -6 8 -18 4 -28z"/>
<path d="M2361 1138 c-9 -23 2 -58 17 -58 5 0 16 6 26 13 15 11 16 17 5 40 -15 33 -37 35 -48 5z"/>
<path d="M3436 1134 c-6 -24 7 -54 23 -54 22 1 33 20 26 49 -8 39 -40 43 -49 5z"/>
<path d="M2584 907 c-2 -7 -3 -69 -2 -138 l3 -124 124 -3 c105 -2 127 0 142 14 18 16 20 16 37 1 14 -13 38 -17 95 -17 l76 0 3 28 c4 37 49 39 58 2 l6 -25 371 -2 c312 -2 373 0 383 12 24 29 6 40 -63 40 -74 0 -93 18 -25 23 49 4 64 19 42 43 -18 20 -4 33 25 24 27 -8 39 30 17 54 -14 15 -14 19 0 32 8 9 12 23 8 32 -5 15 -49 17 -492 16 -432 0 -489 -2 -504 -16 -17 -15 -20 -15 -36 0 -15 14 -41 17 -141 17 -91 0 -123 -3 -127 -13z m931 -46 c7 -12 -12 -24 -25 -16 -11 7 -4 25 10 25 5 0 11 -4 15 -9z m180 0 c7 -12 -12 -24 -25 -16 -11 7 -4 25 10 25 5 0 11 -4 15 -9z m-1012 -7 c3 -3 0 -15 -6 -26 -10 -16 -9 -21 6 -29 17 -10 17 -12 2 -30 -30 -32 -12 -49 52 -49 44 0 62 5 80 22 30 28 29 49 -2 78 -17 16 -22 27 -15 34 7 7 20 0 40 -19 l30 -29 30 29 c20 19 33 26 40 19 7 -7 2 -18 -15 -34 -33 -31 -32 -50 5 -85 20 -19 27 -32 20 -39 -7 -7 -21 1 -44 23 -37 36 -47 35 -80 -6 -17 -22 -24 -24 -100 -21 l-81 3 -3 69 c-2 38 -1 75 2 83 6 13 28 18 39 7z m330 0 c3 -4 2 -14 -3 -24 -6 -11 -4 -25 4 -42 11 -22 11 -28 -4 -48 -11 -14 -20 -19 -24 -12 -7 11 -6 112 1 125 5 9 17 9 26 1z m115 -6 c18 -18 14 -53 -7 -72 -26 -24 -49 -11 -26 14 13 14 14 23 6 38 -15 29 4 43 27 20z m95 6 c3 -3 1 -14 -6 -25 -9 -14 -8 -22 6 -37 15 -17 16 -21 3 -31 -8 -7 -16 -25 -18 -39 -2 -15 -7 -27 -13 -27 -11 0 -20 128 -11 152 6 13 28 18 39 7z m115 -27 c2 -16 -2 -35 -9 -43 -9 -11 -9 -17 1 -28 13 -17 10 -62 -5 -59 -5 1 -13 16 -18 32 -4 17 -14 31 -22 31 -26 0 -26 20 -1 30 28 10 31 17 17 40 -12 18 -4 32 17 28 10 -2 18 -15 20 -31z m84 4 c-2 -12 2 -29 9 -37 9 -11 9 -18 1 -26 -7 -7 -12 -20 -12 -29 0 -14 10 -19 45 -21 66 -4 55 -23 -12 -23 l-58 0 -3 69 c-2 38 -1 75 3 83 8 22 30 9 27 -16z m182 21 c2 -4 1 -14 -4 -22 -6 -10 -4 -20 6 -31 10 -11 12 -19 5 -23 -18 -11 -51 13 -51 37 0 33 31 60 44 39z m180 0 c2 -4 1 -14 -4 -22 -6 -10 -4 -21 7 -32 14 -16 14 -18 -1 -24 -9 -3 -23 -1 -31 6 -15 13 -21 61 -8 73 9 9 31 9 37 -1z m-83 -86 c22 -47 -30 -85 -100 -74 -39 6 -27 23 17 26 45 3 63 22 43 46 -6 7 -8 16 -4 19 13 14 34 6 44 -17z"/>
</g>
</g>
  <g id="id3:id3" transform="matrix(1.25,0,0,1.25,0.0,0.0)"><g transform="translate(0.000000,201.600000) scale(0.040000,-0.040000)" fill="#aeacb2" stroke="none">
</g>
</g>
</svg>
