<?xml version="1.0" standalone="no"?>
<!DOCTYPE svg PUBLIC "-//W3C//DTD SVG 1.1//EN"
 "http://www.w3.org/Graphics/SVG/1.1/DTD/svg11.dtd">
<!-- Created with svg_stack (http://github.com/astraw/svg_stack) -->
<svg xmlns:sodipodi="http://sodipodi.sourceforge.net/DTD/sodipodi-0.dtd" xmlns="http://www.w3.org/2000/svg" version="1.1" width="3010.0" height="3238.0">
  <defs/>
  <g id="id0:id0" transform="matrix(1.25,0,0,1.25,0.0,0.0)"><g transform="translate(0.000000,2590.400000) scale(0.040000,-0.040000)" fill="#482c1d" stroke="none">
<path d="M530 64470 l-20 -20 0 -4867 0 -4867 22 -23 21 -23 29607 0 c23626 0 29610 3 29623 13 16 11 17 308 17 4897 0 4584 -1 4886 -17 4897 -13 10 -5978 13 -29625 13 l-29608 0 -20 -20z m59217 -43 c1 -2 3 -2183 3 -4848 l1 -4844 -28 -5 c-45 -9 -59137 -5 -59150 3 -10 7 -13 987 -13 4848 l0 4840 19 7 c19 7 59161 6 59168 -1z"/>
<path d="M763 64282 c-11 -11 -13 -833 -10 -4713 2 -4165 4 -4701 17 -4709 8 -6 24 -8 35 -5 11 2 13222 5 29358 5 l29337 0 -2 4718 -3 4717 -29359 0 c-24294 0 -29362 -2 -29373 -13z m7173 -696 c12 -5 14 -603 12 -4008 l-3 -4003 -3239 -3 c-1782 -1 -3244 2 -3248 6 -5 5 -13 7680 -8 7985 0 10 9 21 19 25 22 8 6446 6 6467 -2z m50722 -1 c10 -3 12 -810 10 -4007 l-3 -4003 -3239 -3 c-1782 -1 -3244 2 -3248 6 -11 11 -11 7993 0 8004 4 4 158 9 342 10 556 5 6124 -2 6138 -7z m-7135 -26 c16 -9 17 -209 17 -3982 0 -3077 -3 -3976 -12 -3985 -19 -19 -42791 -17 -42807 2 -14 17 -16 7943 -1 7961 12 14 42775 18 42803 4z"/>
<path d="M1810 63160 c-13 -8 -15 -141 -18 -1076 -2 -785 1 -1070 9 -1080 17 -21 5781 -21 5798 0 15 18 14 2135 -1 2153 -12 15 -5764 18 -5788 3z m3735 -280 l0 -105 -839 -3 c-469 -1 -844 2 -849 7 -14 14 -20 153 -8 184 l11 27 842 -2 843 -3 0 -105z"/>
<path d="M1808 60639 c-17 -9 -18 -71 -18 -1077 0 -817 3 -1071 12 -1080 19 -19 5781 -17 5797 1 15 19 15 2135 0 2154 -10 11 -504 13 -2893 13 -1938 -1 -2887 -4 -2898 -11z m3730 -254 c9 -3 12 -38 12 -124 0 -105 -2 -121 -17 -128 -10 -4 -391 -6 -848 -3 l-830 5 -3 123 c-2 114 -1 123 17 130 21 7 1647 5 1669 -3z"/>
<path d="M1802 58118 c-17 -17 -17 -2139 0 -2156 17 -17 5779 -17 5796 0 17 17 17 2139 0 2156 -17 17 -5779 17 -5796 0z m3741 -218 c4 -3 6 -60 5 -126 l-3 -119 -845 0 -845 0 -7 104 c-4 57 -3 114 2 127 l9 24 813 2 c803 3 855 2 871 -12z"/>
<path d="M52530 63160 c-13 -8 -15 -141 -18 -1076 -2 -785 1 -1070 9 -1080 16 -20 5781 -21 5797 -1 15 18 16 2135 1 2153 -9 10 -552 13 -2892 13 -1776 0 -2888 -3 -2897 -9z m3615 -280 l0 -105 -835 -5 c-549 -3 -839 -2 -847 5 -17 14 -27 154 -14 188 l11 27 842 -2 843 -3 0 -105z"/>
<path d="M52528 60639 c-17 -9 -18 -71 -18 -1077 0 -817 3 -1071 12 -1080 18 -18 5781 -17 5796 1 15 18 16 2135 1 2154 -10 11 -514 13 -2893 13 -1938 -1 -2887 -4 -2898 -11z m3610 -254 c9 -3 12 -37 12 -124 0 -105 -2 -121 -17 -128 -10 -4 -391 -6 -848 -3 l-830 5 -5 29 c-3 15 -4 71 -2 123 3 81 6 95 22 101 20 8 1647 5 1668 -3z"/>
<path d="M52522 58118 c-17 -17 -17 -2139 0 -2156 17 -17 5779 -17 5796 0 17 17 17 2139 0 2156 -17 17 -5779 17 -5796 0z m3616 -213 c9 -3 12 -35 10 -127 l-3 -123 -843 -3 -842 -2 -9 22 c-10 27 -4 219 7 229 4 4 18 9 32 11 39 5 1633 -2 1648 -7z"/>
<path d="M22220 62573 c-73 -6 -239 -42 -323 -69 -80 -27 -258 -113 -287 -139 -11 -10 -20 -39 -24 -78 -7 -77 -32 -204 -53 -277 -9 -30 -21 -77 -28 -105 -7 -27 -23 -75 -35 -105 -12 -30 -28 -72 -36 -92 -36 -99 -97 -205 -178 -313 -36 -49 -69 -100 -73 -113 -3 -13 5 -53 17 -90 51 -153 139 -290 261 -408 165 -159 356 -261 784 -419 121 -45 281 -116 330 -147 109 -69 155 -161 120 -244 -51 -124 -209 -182 -415 -154 -227 31 -380 100 -579 263 -63 52 -76 59 -97 51 -36 -14 -596 -591 -592 -611 3 -16 205 -176 318 -251 170 -113 427 -222 585 -247 22 -3 78 -13 125 -22 61 -11 155 -16 340 -17 238 -1 262 1 355 23 173 42 347 123 480 222 190 141 348 388 390 607 31 159 11 420 -40 537 -80 183 -117 245 -196 333 -98 107 -276 234 -434 308 -94 44 -285 124 -297 124 -19 0 -255 97 -353 145 -140 69 -220 142 -230 209 -4 24 -4 58 0 74 10 45 67 105 137 143 l63 34 130 -1 c110 -1 142 -6 210 -28 109 -35 195 -87 286 -173 42 -40 83 -73 91 -73 17 0 608 589 608 605 0 14 -131 131 -220 197 -142 104 -307 184 -500 242 -143 43 -470 73 -640 59z"/>
<path d="M11034 62560 c-11 -4 -52 -11 -90 -15 -260 -25 -614 -175 -865 -366 -101 -76 -271 -248 -344 -345 -167 -223 -277 -477 -325 -749 -22 -126 -30 -488 -12 -565 6 -25 16 -76 23 -115 29 -167 138 -429 250 -601 61 -94 171 -227 251 -306 75 -72 261 -212 356 -267 147 -85 407 -188 522 -206 25 -3 81 -14 125 -22 59 -12 141 -17 310 -17 203 0 242 2 335 22 238 52 401 111 574 208 140 78 385 266 438 336 14 19 51 61 82 93 l56 58 0 626 0 626 -747 -3 c-412 -1 -752 -3 -756 -5 -8 -2 -10 -757 -3 -764 2 -2 145 -4 318 -3 244 0 317 -2 325 -12 5 -7 10 -35 11 -62 2 -44 -2 -52 -34 -81 -49 -45 -234 -139 -324 -165 -123 -36 -160 -41 -276 -41 -299 -1 -601 146 -774 376 -233 310 -271 661 -107 990 109 220 311 401 542 485 84 31 245 59 340 60 94 0 275 -30 359 -59 180 -63 345 -199 486 -400 24 -34 49 -61 56 -61 7 0 52 44 101 97 93 103 394 406 456 460 20 17 37 40 37 51 0 10 -16 34 -35 53 -19 19 -54 58 -78 87 -52 67 -253 237 -364 309 -241 158 -471 243 -773 288 -112 16 -410 20 -446 5z"/>
<path d="M18384 62550 c-614 -99 -1104 -447 -1368 -969 -90 -179 -134 -305 -161 -463 -9 -51 -18 -95 -21 -99 -7 -12 -8 -474 -1 -485 3 -6 13 -52 22 -104 33 -193 142 -457 261 -635 190 -284 452 -506 770 -651 131 -60 272 -107 369 -123 33 -6 96 -17 140 -25 122 -22 468 -15 600 13 377 79 672 231 924 475 138 132 193 196 267 309 151 228 268 541 294 787 12 116 13 350 1 368 -6 10 -28 3 -100 -33 -103 -52 -183 -82 -256 -97 -27 -5 -79 -16 -115 -24 -79 -18 -147 -21 -161 -7 -14 14 93 109 129 116 34 6 46 -1 32 -18 -22 -26 8 -45 39 -26 12 7 12 13 3 24 -18 22 -4 27 70 27 64 0 135 19 188 51 8 5 43 25 77 44 34 20 65 44 68 54 16 53 -68 327 -152 495 -171 340 -410 591 -755 789 -97 56 -294 134 -425 168 -213 55 -535 72 -739 39z m446 -839 c186 -39 316 -104 457 -229 260 -230 378 -577 304 -899 -67 -295 -249 -528 -518 -663 -270 -135 -550 -137 -828 -6 -263 125 -447 349 -527 643 -16 61 -21 109 -21 218 -1 122 2 152 25 230 64 222 177 389 360 531 204 159 498 227 748 175z"/>
<path d="M27968 62565 c-3 -4 -55 -13 -115 -21 -109 -14 -136 -20 -316 -75 -127 -39 -346 -149 -472 -238 -179 -127 -395 -358 -508 -548 -52 -85 -130 -253 -161 -344 -65 -194 -105 -517 -86 -699 28 -266 76 -439 178 -645 186 -376 460 -645 842 -829 165 -79 285 -119 455 -154 118 -23 151 -26 370 -25 205 0 255 3 340 21 347 72 602 197 870 424 97 82 295 291 295 311 0 8 -31 46 -68 83 -37 38 -172 177 -300 309 -196 202 -236 238 -250 229 -9 -6 -44 -48 -77 -94 -167 -232 -363 -370 -606 -426 -209 -48 -423 -22 -624 76 -270 130 -454 356 -531 649 -48 182 -31 368 51 570 32 77 41 92 124 204 132 177 347 315 566 363 272 59 531 5 767 -160 91 -63 155 -128 237 -239 39 -54 79 -101 88 -104 15 -6 104 81 403 397 63 66 134 135 157 153 71 54 73 49 -66 204 -147 165 -344 313 -561 422 -180 90 -332 138 -530 168 -108 16 -460 30 -472 18z"/>
<path d="M49118 62555 c-159 -30 -261 -65 -393 -135 -262 -140 -450 -374 -521 -650 l-26 -101 5 -192 c5 -209 15 -263 76 -393 146 -311 383 -491 917 -694 343 -131 448 -186 512 -269 67 -89 27 -205 -92 -266 l-60 -30 -160 1 c-132 0 -174 4 -231 21 -159 46 -291 120 -450 252 -27 22 -54 41 -60 41 -6 0 -147 -138 -315 -306 l-305 -305 50 -46 c27 -25 95 -79 152 -121 367 -273 658 -373 1128 -389 338 -11 556 41 808 194 284 171 471 475 491 798 22 343 -127 670 -397 872 -164 123 -295 192 -548 287 -376 141 -488 195 -561 268 -109 111 -84 229 65 305 62 32 83 37 157 41 209 10 379 -57 549 -215 36 -34 73 -63 83 -63 9 0 152 135 318 300 240 238 300 302 293 315 -19 33 -191 180 -278 238 -178 117 -355 188 -568 228 -150 27 -523 36 -639 14z"/>
<path d="M37122 62518 c-17 -17 -17 -3459 0 -3476 9 -9 120 -12 440 -12 l427 0 11 19 c15 28 14 3450 -1 3468 -16 18 -859 19 -877 1z"/>
<path d="M34495 62512 c-258 -1 -473 -6 -478 -11 -4 -4 -8 -783 -7 -1731 0 -1369 3 -1725 12 -1732 7 -5 375 -7 818 -5 l805 3 76 22 c293 84 487 217 662 452 47 64 128 232 153 319 30 102 42 281 25 386 -32 210 -136 412 -288 561 -40 40 -73 77 -73 83 0 6 18 38 40 70 56 82 115 211 141 311 32 120 31 352 -1 488 -42 177 -105 301 -221 431 -157 175 -350 281 -599 329 -123 24 -323 29 -1065 24z m760 -747 c119 -28 216 -98 253 -184 20 -47 22 -206 3 -241 -54 -98 -151 -163 -267 -180 -92 -13 -341 -13 -349 0 -8 14 -9 596 0 610 10 16 282 13 360 -5z m40 -1324 c132 -10 198 -36 266 -104 59 -59 79 -101 86 -187 8 -90 -9 -148 -58 -204 -93 -105 -204 -136 -491 -136 -136 0 -199 4 -204 11 -9 15 -6 601 4 611 16 15 238 20 397 9z"/>
<path d="M41595 62510 c-11 -5 -197 -9 -412 -9 -307 -1 -393 -4 -393 -13 -1 -7 -2 -399 -3 -870 -1 -606 -5 -860 -13 -868 -11 -11 -24 5 -129 170 -63 98 -161 249 -250 385 -73 111 -181 277 -270 415 -26 41 -76 118 -110 170 -34 52 -93 142 -130 200 -38 58 -92 141 -120 185 -29 44 -73 113 -99 152 l-45 73 -437 2 c-240 2 -440 1 -445 -3 -5 -3 -9 -729 -9 -1729 0 -1384 2 -1725 12 -1732 7 -4 194 -8 416 -8 326 0 404 3 408 13 3 8 6 439 7 960 1 667 5 949 13 957 8 8 34 -25 95 -120 46 -72 126 -195 176 -273 51 -78 101 -155 112 -172 10 -16 43 -68 74 -115 30 -47 92 -143 137 -215 128 -199 210 -327 309 -480 50 -77 144 -223 210 -325 65 -102 128 -195 139 -207 l21 -23 384 0 c310 0 387 3 396 13 8 10 11 479 11 1730 0 1543 -2 1717 -16 1731 -8 9 -16 16 -17 15 -1 0 -11 -4 -22 -9z"/>
<path d="M47729 62516 c-2 -2 -580 -7 -1284 -10 -704 -4 -1282 -10 -1285 -12 -3 -3 -6 -171 -8 -372 -1 -279 1 -373 10 -391 l13 -24 424 2 c310 1 427 -1 437 -10 12 -10 14 -209 14 -1332 0 -1062 2 -1322 12 -1329 7 -4 200 -8 429 -8 343 0 419 2 428 14 9 10 11 349 10 1324 -1 720 2 1315 6 1321 5 9 123 11 442 11 353 -1 437 1 444 12 13 19 11 765 -1 789 -8 14 -21 19 -49 19 -21 0 -40 -2 -42 -4z"/>
<path d="M43528 62503 l-1148 -3 0 -1698 c0 -933 -3 -1706 -6 -1718 -3 -13 1 -28 11 -38 15 -15 112 -16 1178 -16 639 0 1168 4 1175 9 11 7 14 82 12 397 0 213 -3 390 -5 392 -2 2 -343 5 -757 6 l-753 1 0 310 0 310 60 8 c33 4 367 6 742 5 l682 -3 5 20 c8 27 7 684 0 712 l-6 22 -447 -5 c-245 -2 -579 -1 -741 3 l-295 8 -3 249 c-1 167 1 253 8 260 8 8 242 11 758 11 l747 0 0 380 0 380 -35 0 c-19 0 -551 -1 -1182 -2z"/>
<path d="M14510 62433 c-29 -61 -302 -638 -540 -1143 -48 -102 -205 -435 -350 -740 -417 -882 -426 -901 -557 -1180 -69 -146 -129 -269 -134 -275 -15 -15 -10 -52 7 -59 26 -10 890 -7 917 3 14 6 28 20 32 32 12 38 274 592 285 603 8 8 226 12 694 14 640 2 685 1 703 -15 11 -10 51 -85 88 -168 37 -82 88 -193 113 -245 24 -52 53 -115 64 -140 11 -25 29 -55 40 -67 l21 -23 456 0 c251 0 462 4 469 9 10 6 -8 52 -76 192 -50 101 -161 335 -247 519 -318 675 -857 1816 -1073 2270 -27 58 -84 179 -127 270 -42 91 -83 175 -91 188 l-14 22 -324 0 -323 0 -33 -67z m520 -1588 c182 -395 172 -372 158 -381 -13 -8 -635 -7 -648 1 -4 3 63 157 149 343 87 185 161 346 165 356 6 17 9 18 20 5 8 -8 78 -153 156 -324z"/>
<path d="M31336 62475 c-9 -13 -25 -46 -35 -72 -11 -26 -64 -142 -119 -258 -106 -224 -364 -769 -572 -1210 -156 -331 -605 -1281 -728 -1540 -49 -104 -104 -219 -121 -254 -39 -82 -39 -97 0 -105 44 -9 892 -7 905 2 11 6 49 84 237 487 33 72 67 138 75 147 13 16 66 17 696 17 528 1 686 -2 699 -12 9 -6 79 -149 157 -317 77 -168 148 -311 157 -317 13 -10 123 -13 469 -13 249 0 459 3 468 6 21 8 20 26 -3 55 -10 13 -69 132 -131 264 -62 132 -193 409 -290 615 -270 570 -853 1804 -1028 2175 -85 182 -160 336 -165 343 -7 9 -86 12 -332 12 l-323 0 -16 -25z m509 -1645 c80 -173 148 -325 151 -337 4 -14 0 -24 -13 -31 -20 -11 -624 -5 -634 6 -4 4 48 124 115 267 68 143 141 300 164 349 37 78 44 88 57 75 8 -8 80 -156 160 -329z"/>
<path d="M11442 58518 c-16 -16 -16 -180 0 -196 18 -18 37858 -18 37876 0 7 7 12 44 12 98 0 54 -5 91 -12 98 -18 18 -37858 18 -37876 0z"/>
<path d="M18880 57927 c-3 -3 -45 -12 -94 -21 -242 -42 -452 -223 -533 -459 -25 -74 -28 -95 -28 -212 1 -145 14 -203 71 -315 67 -132 169 -232 309 -302 106 -54 174 -68 330 -68 202 0 273 25 444 153 134 102 134 99 26 207 -49 50 -94 90 -99 90 -5 0 -39 -29 -75 -64 -37 -35 -91 -76 -121 -92 -52 -27 -62 -29 -175 -29 -114 0 -123 2 -185 31 -90 43 -159 109 -204 193 -46 88 -57 145 -46 244 17 144 109 268 250 336 l75 36 105 0 c97 0 110 -3 173 -32 43 -20 92 -55 133 -95 l65 -62 97 97 97 97 -45 45 c-97 98 -266 187 -395 206 -95 15 -170 21 -175 16z"/>
<path d="M21955 57920 c-16 -5 -52 -14 -79 -21 -70 -18 -175 -91 -215 -148 -78 -115 -90 -253 -32 -376 44 -96 103 -148 234 -210 62 -29 130 -58 152 -65 70 -22 151 -68 179 -100 29 -35 36 -103 14 -132 -32 -41 -81 -58 -164 -58 -97 0 -165 19 -234 65 -29 19 -60 35 -69 35 -9 0 -54 -38 -100 -84 -63 -63 -82 -88 -77 -102 3 -11 32 -35 64 -55 153 -98 256 -126 445 -123 l128 3 82 39 c109 53 195 140 221 225 27 86 19 205 -18 280 -45 94 -162 181 -325 244 -242 92 -302 145 -271 238 34 104 205 124 343 39 31 -19 64 -34 71 -32 8 2 53 40 100 86 72 69 85 86 76 101 -11 21 -102 77 -177 109 -85 36 -285 61 -348 42z"/>
<path d="M24850 57910 c-186 -40 -304 -110 -428 -255 -96 -111 -160 -309 -149 -455 24 -297 216 -541 493 -625 110 -34 316 -36 420 -4 194 59 344 190 442 386 52 103 67 184 59 327 -6 93 -11 119 -39 180 -118 262 -296 404 -566 450 -111 19 -124 19 -232 -4z m257 -271 c165 -55 287 -207 301 -373 5 -64 -10 -145 -39 -214 -27 -62 -132 -168 -204 -206 l-60 -31 -125 0 -125 0 -60 31 c-64 34 -170 136 -199 192 -9 18 -25 67 -36 108 -23 92 -15 163 29 258 52 112 119 176 240 227 84 36 187 39 278 8z"/>
<path d="M29455 57910 c-112 -23 -162 -41 -244 -87 -85 -47 -208 -170 -253 -253 -189 -342 -62 -764 282 -944 114 -59 185 -76 339 -78 151 -2 214 12 328 71 83 44 216 151 228 185 8 25 6 31 -20 53 -17 14 -61 52 -98 85 l-69 61 -66 -66 c-37 -36 -92 -78 -122 -93 -51 -27 -63 -29 -175 -29 -114 0 -123 2 -186 31 -144 69 -259 239 -259 385 0 111 73 257 167 331 179 142 411 130 572 -29 35 -35 64 -63 65 -63 1 0 28 25 60 55 31 30 73 67 92 81 36 28 44 58 22 86 -18 22 -166 132 -205 151 -141 73 -313 98 -458 67z"/>
<path d="M33806 57914 c-14 -14 -16 -89 -16 -678 0 -501 3 -665 12 -674 18 -18 262 -17 277 2 15 18 15 1334 -1 1353 -17 21 -251 18 -272 -3z"/>
<path d="M19923 57882 c-10 -11 -13 -93 -13 -400 0 -344 3 -397 20 -473 27 -123 74 -211 158 -295 122 -122 236 -167 422 -167 97 0 128 5 197 27 138 45 252 146 326 288 63 124 68 164 65 625 l-3 408 -127 0 c-69 0 -129 -3 -132 -6 -3 -3 -7 -181 -9 -395 -4 -435 -8 -466 -73 -560 -25 -37 -51 -60 -94 -83 -51 -28 -68 -31 -147 -33 -127 -2 -204 36 -264 131 -61 95 -63 109 -69 546 l-5 400 -119 0 c-86 0 -123 -4 -133 -13z"/>
<path d="M22935 57889 c-6 -9 -8 -220 -2 -225 3 -3 78 -5 167 -5 112 1 166 -2 176 -10 12 -10 14 -93 14 -540 -1 -291 1 -532 4 -537 2 -4 62 -8 131 -7 98 1 129 5 135 16 5 8 10 250 10 538 0 288 3 527 6 532 9 14 281 11 305 -3 35 -22 49 11 49 116 0 50 -3 100 -6 111 l-5 20 -490 0 c-270 0 -492 -2 -494 -6z"/>
<path d="M26203 57882 c-10 -11 -13 -135 -13 -648 0 -401 4 -642 10 -654 9 -16 22 -18 129 -17 66 1 122 5 125 8 3 3 6 184 6 402 1 218 5 399 9 402 10 5 41 -42 118 -180 28 -49 83 -148 123 -220 94 -167 130 -225 141 -225 4 0 41 55 80 123 259 440 308 519 320 512 4 -3 8 -186 8 -407 1 -221 3 -403 6 -406 3 -3 49 -6 103 -6 53 -1 104 -5 113 -9 11 -5 22 -2 33 8 15 15 16 74 14 670 -2 359 -5 655 -8 658 -3 2 -71 2 -152 -1 l-147 -4 -107 -182 c-58 -99 -140 -239 -182 -309 -61 -104 -77 -126 -87 -115 -7 7 -48 76 -91 153 -206 371 -255 455 -267 456 -7 1 -70 2 -141 3 -95 1 -133 -2 -143 -12z"/>
<path d="M31099 57893 c-18 -5 -3 27 -350 -710 -157 -332 -278 -600 -275 -609 5 -12 28 -14 133 -13 71 1 134 4 142 7 7 3 39 60 71 127 32 67 65 125 75 128 9 4 146 7 304 7 264 0 289 -1 304 -18 18 -19 97 -183 97 -200 0 -6 11 -19 25 -30 23 -18 40 -20 160 -19 157 1 161 4 114 80 -27 44 -311 640 -517 1082 -35 77 -73 148 -84 158 -16 13 -37 17 -102 16 -44 -1 -88 -3 -97 -6z m196 -616 c48 -103 85 -195 83 -204 -3 -16 -23 -18 -186 -21 -155 -3 -183 -1 -188 12 -5 13 153 369 179 404 6 7 14 9 18 5 4 -4 46 -92 94 -196z"/>
<path d="M32374 57891 c-10 -10 -4 -1310 7 -1316 5 -4 144 -7 307 -6 319 0 350 4 434 54 74 44 155 135 178 200 26 74 26 169 0 250 -17 52 -31 71 -87 123 l-66 62 26 34 c41 53 79 147 84 209 6 66 -24 170 -67 234 -49 71 -139 130 -230 150 -36 8 -578 13 -586 6z m451 -216 c105 -25 150 -75 150 -165 0 -70 -20 -103 -86 -140 -36 -20 -62 -25 -137 -28 -64 -3 -97 -1 -107 8 -12 10 -15 42 -15 164 0 105 4 156 12 164 16 16 109 15 183 -3z m80 -546 c51 -14 110 -75 119 -123 17 -90 -35 -167 -129 -192 -84 -22 -230 -30 -250 -14 -20 17 -22 318 -2 339 14 15 195 8 262 -10z"/>
<path d="M34643 57888 c-13 -20 -17 -1283 -4 -1307 10 -19 19 -20 129 -17 64 2 120 4 125 5 4 0 7 192 7 425 0 267 4 427 10 431 5 3 45 -49 89 -117 123 -191 210 -327 259 -403 25 -38 71 -109 102 -156 32 -47 65 -99 74 -117 33 -63 51 -72 138 -68 42 2 94 0 115 -4 24 -6 42 -5 50 2 11 8 13 141 11 672 l-3 661 -122 1 c-67 1 -127 -3 -135 -7 -10 -7 -14 -88 -18 -389 -3 -213 -9 -381 -14 -383 -9 -2 -81 103 -287 420 -64 98 -141 217 -173 266 -31 48 -62 87 -69 87 -7 0 -71 3 -144 6 -101 4 -133 2 -140 -8z"/>
<path d="M36304 57891 c-2 -2 -4 -301 -4 -663 l0 -658 68 0 c493 -2 724 -5 757 -11 27 -5 44 -4 51 4 16 16 24 225 10 235 -6 4 -146 9 -311 12 l-300 5 -3 154 c-1 85 1 158 6 163 5 5 141 11 303 13 l294 4 0 113 0 113 -300 1 -300 2 -5 38 c-3 22 -3 86 0 144 l5 105 304 0 304 0 6 20 c4 11 4 62 1 114 l-5 95 -438 0 c-241 1 -440 -1 -443 -3z"/>
<path d="M37613 57886 c-4 -6 -6 -124 -3 -213 0 -10 41 -13 170 -13 157 0 170 -1 180 -19 6 -13 10 -202 10 -545 0 -289 3 -526 8 -526 113 -4 254 -1 260 4 4 4 9 249 12 544 l5 537 140 3 c98 2 147 -1 164 -10 38 -20 51 9 51 116 0 50 -3 100 -6 111 l-5 20 -490 0 c-270 0 -493 -4 -496 -9z"/>
<path d="M39095 57892 c-8 -8 -6 -1322 3 -1322 107 -5 245 -3 249 4 3 4 5 116 4 248 -2 172 1 243 10 254 15 18 63 18 133 0 72 -19 88 -28 128 -75 44 -51 59 -91 139 -349 12 -40 29 -77 38 -81 27 -15 280 -9 285 6 3 7 -10 42 -29 78 -19 36 -35 71 -35 78 0 22 -107 304 -129 340 -11 19 -39 47 -62 63 -36 25 -39 30 -24 39 53 31 125 101 147 142 39 71 61 167 55 235 -12 133 -109 263 -235 313 l-66 27 -303 2 c-166 2 -305 1 -308 -2z m476 -212 c83 -25 104 -41 134 -100 58 -115 3 -235 -124 -270 -51 -14 -204 -13 -219 2 -8 8 -12 64 -12 188 0 124 4 180 12 188 19 19 138 14 209 -8z"/>
<path d="M40376 57885 c-2 -5 1 -19 7 -30 13 -27 232 -360 370 -565 l112 -165 1 -272 c1 -149 4 -275 7 -281 6 -9 218 -14 249 -6 15 5 17 31 20 272 l3 267 159 230 c88 127 174 250 191 275 17 25 61 89 99 142 37 54 71 100 77 103 5 4 9 14 9 24 0 16 -13 18 -141 19 -78 0 -152 -3 -165 -8 -25 -10 -37 -26 -133 -175 -136 -211 -188 -292 -204 -317 -29 -46 -7 -74 -236 295 -68 108 -128 198 -135 198 -63 7 -287 2 -290 -6z"/>
</g>
</g>
  <g id="id1:id1" transform="matrix(1.25,0,0,1.25,0.0,0.0)"><g transform="translate(0.000000,2590.400000) scale(0.040000,-0.040000)" fill="#000000" stroke="none">
<path d="M82 64678 c-16 -16 -16 -100 0 -116 18 -18 60018 -18 60036 0 16 16 16 100 0 116 -18 18 -60018 18 -60036 0z"/>
<path d="M3987 64133 c-4 -3 -7 -12 -7 -20 0 -9 15 -13 50 -13 43 0 50 3 50 20 0 17 -7 20 -43 20 -24 0 -47 -3 -50 -7z"/>
<path d="M58340 64126 c0 -19 29 -48 43 -43 6 2 11 14 11 28 1 19 -5 25 -27 27 -19 2 -27 -1 -27 -12z"/>
<path d="M3062 62958 c4 -31 58 -40 58 -10 0 12 -9 22 -22 26 -36 9 -40 7 -36 -16z"/>
<path d="M53782 62958 c4 -31 58 -40 58 -10 0 12 -9 22 -22 26 -36 9 -40 7 -36 -16z"/>
<path d="M39154 62286 c-9 -24 3 -46 26 -46 17 0 21 5 18 27 -3 31 -34 44 -44 19z"/>
<path d="M45474 62286 c-9 -24 3 -46 26 -46 17 0 21 5 18 27 -3 31 -34 44 -44 19z"/>
<path d="M28665 61740 c-9 -14 -6 -17 29 -26 24 -6 27 -4 24 12 -4 21 -42 31 -53 14z"/>
<path d="M4147 61364 c-4 -4 -7 -16 -7 -26 0 -13 8 -18 31 -18 26 0 30 3 27 23 -3 22 -36 36 -51 21z"/>
<path d="M54867 61364 c-4 -4 -7 -16 -7 -26 0 -13 8 -18 31 -18 26 0 30 3 27 23 -3 22 -36 36 -51 21z"/>
<path d="M51732 61338 c-31 -31 2 -73 39 -50 10 7 27 12 37 12 27 0 44 20 31 37 -14 16 -91 17 -107 1z"/>
<path d="M51863 61329 c-21 -21 3 -49 43 -49 33 0 35 2 32 28 -2 22 -9 28 -33 30 -17 2 -35 -2 -42 -9z"/>
<path d="M2505 61175 c-16 -7 -42 -18 -57 -24 -35 -14 -39 -51 -5 -51 38 1 112 44 115 68 4 25 -9 27 -53 7z"/>
<path d="M53225 61175 c-16 -7 -42 -18 -57 -24 -35 -14 -39 -51 -5 -51 38 1 112 44 115 68 4 25 -9 27 -53 7z"/>
<path d="M19914 61166 c-3 -8 -4 -25 -2 -38 2 -18 9 -23 33 -23 28 0 30 3 30 35 0 31 -3 35 -28 38 -17 2 -29 -2 -33 -12z"/>
<path d="M41112 61143 c3 -35 5 -38 33 -38 28 0 30 3 30 35 0 32 -3 35 -33 38 l-33 3 3 -38z"/>
<path d="M15562 60773 c2 -22 8 -28 28 -28 20 0 25 5 25 25 0 20 -6 26 -28 28 -26 3 -28 1 -25 -25z"/>
<path d="M22642 60773 c2 -22 8 -28 28 -28 20 0 25 5 25 25 0 20 -6 26 -28 28 -26 3 -28 1 -25 -25z"/>
<path d="M32202 60773 c2 -22 8 -28 28 -28 20 0 25 5 25 25 0 20 -6 26 -28 28 -26 3 -28 1 -25 -25z"/>
<path d="M40242 60773 c2 -22 8 -28 28 -28 20 0 25 5 25 25 0 20 -6 26 -28 28 -26 3 -28 1 -25 -25z"/>
<path d="M43202 60773 c2 -22 8 -28 28 -28 20 0 25 5 25 25 0 20 -6 26 -28 28 -26 3 -28 1 -25 -25z"/>
<path d="M49642 60773 c2 -22 8 -28 28 -28 20 0 25 5 25 25 0 20 -6 26 -28 28 -26 3 -28 1 -25 -25z"/>
<path d="M11724 60745 c-8 -19 1 -31 26 -38 29 -7 39 22 15 39 -24 18 -34 18 -41 -1z"/>
<path d="M15722 60739 c4 -29 46 -45 55 -22 4 9 -1 21 -12 29 -28 21 -47 17 -43 -7z"/>
<path d="M22802 60739 c4 -29 46 -45 55 -22 4 9 -1 21 -12 29 -28 21 -47 17 -43 -7z"/>
<path d="M32362 60739 c4 -29 46 -45 55 -22 4 9 -1 21 -12 29 -28 21 -47 17 -43 -7z"/>
<path d="M40402 60739 c4 -29 46 -45 55 -22 4 9 -1 21 -12 29 -28 21 -47 17 -43 -7z"/>
<path d="M43362 60739 c4 -29 46 -45 55 -22 4 9 -1 21 -12 29 -28 21 -47 17 -43 -7z"/>
<path d="M49802 60739 c4 -29 46 -45 55 -22 4 9 -1 21 -12 29 -28 21 -47 17 -43 -7z"/>
<path d="M22022 60613 c2 -21 9 -29 28 -31 14 -2 29 -8 35 -13 5 -5 24 -9 42 -9 30 0 33 3 33 30 0 27 -3 30 -29 30 -17 0 -33 5 -36 10 -3 6 -22 10 -41 10 -33 0 -35 -2 -32 -27z"/>
<path d="M36000 60616 c0 -32 47 -56 112 -56 l48 0 0 30 c0 27 -3 30 -29 30 -17 0 -33 5 -36 10 -3 6 -26 10 -51 10 -40 0 -44 -2 -44 -24z"/>
<path d="M37600 60616 c0 -32 47 -56 112 -56 l48 0 0 30 c0 27 -3 30 -29 30 -17 0 -33 5 -36 10 -3 6 -26 10 -51 10 -40 0 -44 -2 -44 -24z"/>
<path d="M42567 60633 c-31 -30 30 -73 104 -73 l49 0 0 30 c0 27 -3 30 -29 30 -17 0 -33 5 -36 10 -7 11 -78 14 -88 3z"/>
<path d="M49022 60613 c2 -21 9 -29 28 -31 14 -2 29 -8 35 -13 5 -5 24 -9 42 -9 30 0 33 3 33 30 0 27 -3 30 -29 30 -17 0 -33 5 -36 10 -3 6 -22 10 -41 10 -33 0 -35 -2 -32 -27z"/>
<path d="M22207 60594 c-4 -4 -7 -18 -7 -31 0 -19 5 -23 31 -23 27 0 30 3 27 28 -3 26 -34 43 -51 26z"/>
<path d="M37800 60571 c0 -28 3 -31 31 -31 27 0 30 3 27 28 -2 21 -9 28 -30 30 -25 3 -28 0 -28 -27z"/>
<path d="M49207 60594 c-4 -4 -7 -18 -7 -31 0 -19 5 -23 31 -23 27 0 30 3 27 28 -3 26 -34 43 -51 26z"/>
<path d="M26524 60506 c-10 -26 4 -48 28 -44 17 2 23 10 23 28 0 18 -6 26 -23 28 -13 2 -25 -3 -28 -12z"/>
<path d="M11664 60465 c-10 -25 4 -45 31 -45 20 0 25 5 25 24 0 34 -45 50 -56 21z"/>
<path d="M15664 60465 c-10 -25 4 -45 31 -45 20 0 25 5 25 24 0 34 -45 50 -56 21z"/>
<path d="M22744 60465 c-10 -25 4 -45 31 -45 20 0 25 5 25 24 0 34 -45 50 -56 21z"/>
<path d="M32304 60465 c-10 -25 4 -45 31 -45 20 0 25 5 25 24 0 34 -45 50 -56 21z"/>
<path d="M40344 60465 c-10 -25 4 -45 31 -45 20 0 25 5 25 24 0 34 -45 50 -56 21z"/>
<path d="M49744 60465 c-10 -25 4 -45 31 -45 20 0 25 5 25 24 0 34 -45 50 -56 21z"/>
<path d="M35662 60433 c2 -22 9 -29 31 -31 24 -3 27 0 27 27 0 28 -3 31 -31 31 -27 0 -30 -3 -27 -27z"/>
<path d="M39260 60430 c0 -27 3 -30 30 -30 27 0 30 3 30 30 0 27 -3 30 -30 30 -27 0 -30 -3 -30 -30z"/>
<path d="M15584 60326 c-8 -21 13 -46 38 -46 30 0 21 54 -10 58 -13 2 -25 -3 -28 -12z"/>
<path d="M32224 60326 c-8 -21 13 -46 38 -46 30 0 21 54 -10 58 -13 2 -25 -3 -28 -12z"/>
<path d="M40264 60326 c-8 -21 13 -46 38 -46 30 0 21 54 -10 58 -13 2 -25 -3 -28 -12z"/>
<path d="M20104 60275 c-8 -20 -4 -24 27 -27 18 -2 24 2 24 17 0 25 -42 34 -51 10z"/>
<path d="M41304 60275 c-8 -20 -4 -24 27 -27 18 -2 24 2 24 17 0 25 -42 34 -51 10z"/>
<path d="M15120 59964 c0 -22 4 -25 28 -22 19 2 28 9 30 26 3 19 -1 22 -27 22 -27 0 -31 -4 -31 -26z"/>
<path d="M31760 59964 c0 -22 4 -25 28 -22 19 2 28 9 30 26 3 19 -1 22 -27 22 -27 0 -31 -4 -31 -26z"/>
<path d="M36200 59964 c0 -22 4 -25 28 -22 19 2 28 9 30 26 3 19 -1 22 -27 22 -27 0 -31 -4 -31 -26z"/>
<path d="M37800 59965 c0 -23 4 -26 28 -23 19 2 27 9 27 23 0 14 -8 21 -27 23 -24 3 -28 0 -28 -23z"/>
<path d="M42760 59964 c0 -22 4 -25 28 -22 19 2 28 9 30 26 3 19 -1 22 -27 22 -27 0 -31 -4 -31 -26z"/>
<path d="M6066 59912 c-22 -21 11 -45 78 -57 29 -6 36 -4 36 8 0 9 -4 19 -10 22 -19 12 -99 33 -104 27z"/>
<path d="M56746 59912 c-22 -21 11 -45 78 -57 29 -6 36 -4 36 8 0 9 -4 19 -10 22 -19 12 -99 33 -104 27z"/>
<path d="M6300 59861 c0 -23 4 -26 48 -36 28 -6 32 -4 32 14 0 22 -27 41 -59 41 -14 0 -21 -6 -21 -19z"/>
<path d="M56980 59861 c0 -23 4 -26 48 -36 28 -6 32 -4 32 14 0 22 -27 41 -59 41 -14 0 -21 -6 -21 -19z"/>
<path d="M27304 59445 c-7 -18 13 -45 33 -45 19 0 28 27 13 45 -16 19 -39 19 -46 0z"/>
<path d="M35304 59445 c-7 -18 13 -45 33 -45 19 0 28 27 13 45 -16 19 -39 19 -46 0z"/>
<path d="M38904 59445 c-7 -18 13 -45 33 -45 19 0 28 27 13 45 -16 19 -39 19 -46 0z"/>
<path d="M13270 59311 c-37 -5 -46 -10 -54 -34 -13 -36 2 -46 64 -48 25 0 55 -2 67 -5 12 -2 25 1 28 6 3 6 15 10 26 10 25 0 27 48 2 56 -10 3 -26 10 -35 15 -19 10 -26 10 -98 0z"/>
<path d="M34294 59286 c-10 -24 -10 -34 -1 -43 13 -13 152 -22 163 -10 4 4 16 7 26 7 15 0 19 6 16 27 -4 32 -33 43 -127 47 l-63 2 -14 -30z"/>
<path d="M28567 59273 c-16 -16 -6 -50 18 -61 40 -18 55 -15 55 12 0 35 -53 70 -73 49z"/>
<path d="M11480 59242 c0 -19 37 -42 66 -42 11 0 14 8 12 28 -3 23 -8 27 -40 30 -32 3 -38 0 -38 -16z"/>
<path d="M18980 59243 c0 -24 19 -43 43 -43 14 0 18 6 15 28 -2 21 -9 28 -30 30 -22 3 -28 -1 -28 -15z"/>
<path d="M22580 59243 c0 -24 19 -43 43 -43 14 0 18 6 15 28 -2 21 -9 28 -30 30 -22 3 -28 -1 -28 -15z"/>
<path d="M43120 59242 c0 -19 37 -42 66 -42 11 0 14 8 12 28 -3 23 -8 27 -40 30 -32 3 -38 0 -38 -16z"/>
<path d="M49580 59243 c0 -11 5 -24 12 -31 7 -7 20 -12 31 -12 14 0 18 6 15 28 -2 21 -9 28 -30 30 -22 3 -28 -1 -28 -15z"/>
<path d="M2920 57695 c0 -15 7 -28 18 -32 9 -3 37 -22 62 -42 63 -51 85 -61 126 -61 31 0 35 3 32 22 -2 12 -12 27 -23 33 -11 6 -39 23 -63 38 -116 75 -152 85 -152 42z"/>
<path d="M53640 57695 c0 -15 7 -28 18 -32 9 -3 37 -22 62 -42 63 -51 85 -61 126 -61 31 0 35 3 32 22 -2 12 -12 27 -23 33 -11 6 -39 23 -63 38 -116 75 -152 85 -152 42z"/>
<path d="M3680 57214 c0 -31 25 -53 58 -54 17 0 22 6 22 23 0 29 -29 57 -58 57 -17 0 -22 -6 -22 -26z"/>
<path d="M54400 57214 c0 -31 25 -53 58 -54 17 0 22 6 22 23 0 29 -29 57 -58 57 -17 0 -22 -6 -22 -26z"/>
<path d="M4764 56906 c-11 -30 2 -42 40 -38 27 3 36 9 36 23 0 10 -6 19 -12 19 -7 0 -23 3 -35 6 -16 4 -25 1 -29 -10z"/>
<path d="M55484 56906 c-11 -30 2 -42 40 -38 27 3 36 9 36 23 0 10 -6 19 -12 19 -7 0 -23 3 -35 6 -16 4 -25 1 -29 -10z"/>
<path d="M7414 56894 c3 -9 6 -18 6 -20 0 -2 7 -4 15 -4 8 0 15 9 15 20 0 14 -7 20 -21 20 -15 0 -19 -4 -15 -16z"/>
<path d="M58134 56894 c3 -9 6 -18 6 -20 0 -2 7 -4 15 -4 8 0 15 9 15 20 0 14 -7 20 -21 20 -15 0 -19 -4 -15 -16z"/>
<path d="M5960 56815 c0 -30 20 -41 49 -26 17 9 22 8 31 -9 17 -32 54 -23 58 13 3 27 2 29 -32 26 -20 -2 -41 2 -48 9 -6 6 -22 12 -35 12 -18 0 -23 -6 -23 -25z"/>
<path d="M56680 56815 c0 -30 20 -41 49 -26 17 9 22 8 31 -9 17 -32 54 -23 58 13 3 27 2 29 -32 26 -20 -2 -41 2 -48 9 -6 6 -22 12 -35 12 -18 0 -23 -6 -23 -25z"/>
<path d="M46960 55914 c-19 -22 9 -50 36 -35 11 5 36 13 57 16 66 11 40 35 -38 35 -26 0 -47 -6 -55 -16z"/>
<path d="M47156 55915 c-3 -8 -17 -20 -31 -27 -22 -10 -24 -15 -19 -48 5 -32 2 -40 -17 -54 -13 -9 -42 -16 -64 -16 -54 0 -74 -13 -55 -35 21 -26 100 -8 153 34 15 12 20 12 37 -4 27 -24 25 -47 -5 -75 -32 -30 -34 -52 -2 -41 37 14 46 45 41 158 -2 58 -6 109 -10 114 -8 14 -21 11 -28 -6z"/>
<path d="M46898 55856 c-11 -26 -5 -56 11 -56 13 0 42 60 35 71 -10 17 -35 9 -46 -15z"/>
<path d="M47000 55650 c0 -5 5 -10 10 -10 6 0 10 5 10 10 0 6 -4 10 -10 10 -5 0 -10 -4 -10 -10z"/>
<path d="M47060 55650 c0 -5 9 -10 20 -10 11 0 20 5 20 10 0 6 -9 10 -20 10 -11 0 -20 -4 -20 -10z"/>
<path d="M51233 55208 c-28 -7 -33 -13 -33 -38 l0 -30 50 0 50 0 0 28 c0 36 -26 51 -67 40z"/>
</g>
</g>
  <g id="id2:id2" transform="matrix(1.25,0,0,1.25,0.0,0.0)"><g transform="translate(0.000000,2590.400000) scale(0.040000,-0.040000)" fill="#40632f" stroke="none">
<path d="M520 64470 c0 -5 5 -10 10 -10 6 0 10 5 10 10 0 6 -4 10 -10 10 -5 0 -10 -4 -10 -10z"/>
<path d="M560 64470 c0 -5 7 -10 15 -10 8 0 24 -5 35 -12 26 -16 39 -2 14 17 -22 16 -64 20 -64 5z"/>
<path d="M59705 64470 c-3 -5 -17 -10 -31 -10 -13 0 -24 -4 -24 -10 0 -19 66 -11 85 10 l18 20 -21 0 c-11 0 -24 -4 -27 -10z"/>
<path d="M59770 64470 c0 -5 7 -10 15 -10 8 0 15 5 15 10 0 6 -7 10 -15 10 -8 0 -15 -4 -15 -10z"/>
<path d="M20453 64458 c2 -7 10 -13 17 -13 7 0 15 6 18 13 2 7 -5 12 -18 12 -13 0 -20 -5 -17 -12z"/>
<path d="M40930 64454 c0 -9 7 -14 17 -12 25 5 28 28 4 28 -12 0 -21 -6 -21 -16z"/>
<path d="M529 59613 c0 -2645 -3 -4836 -5 -4870 -2 -38 0 -63 6 -63 6 0 10 9 10 19 0 11 5 23 11 27 8 5 10 33 5 93 -9 107 -12 9428 -3 9529 5 59 4 72 -8 72 -13 0 -15 -598 -16 -4807z"/>
<path d="M59777 64383 c-4 -3 -7 -20 -6 -37 l1 -31 9 34 c10 33 8 47 -4 34z"/>
<path d="M59777 64303 c-12 -11 -8 -9423 3 -9423 7 0 10 1588 10 4715 0 2593 -1 4715 -3 4715 -2 0 -7 -3 -10 -7z"/>
<path d="M21520 62848 c0 -6 -12 -36 -26 -67 -140 -302 -203 -386 -554 -746 -299 -306 -368 -401 -410 -565 -22 -86 -23 -207 -3 -325 7 -42 12 -50 29 -50 12 -1 29 -7 38 -14 14 -12 29 -12 89 -2 209 36 394 162 551 375 54 74 139 244 176 356 12 36 26 74 30 85 16 40 53 213 66 310 8 55 18 127 24 160 8 47 17 426 11 483 -1 15 -21 16 -21 0z m-816 -1649 c-3 -5 -10 -7 -15 -3 -5 3 -7 10 -3 15 3 5 10 7 15 3 5 -3 7 -10 3 -15z"/>
<path d="M46898 55961 c-7 -2 -16 -9 -20 -15 -10 -15 -7 -255 3 -284 l9 -23 115 4 115 3 35 34 c41 40 44 59 11 89 -25 24 -40 21 -88 -17 -9 -8 -22 -11 -28 -7 -6 4 -17 1 -25 -5 -18 -15 -47 3 -39 24 3 7 -4 21 -16 31 -23 21 -25 38 -6 54 8 7 12 20 9 30 -6 23 15 38 23 17 3 -9 16 -16 27 -16 12 0 47 -3 78 -5 52 -4 57 -2 67 20 7 14 16 25 22 25 14 0 13 27 -2 37 -13 7 -268 11 -290 4z m36 -112 c-3 -5 -10 -7 -15 -3 -5 3 -7 10 -3 15 3 5 10 7 15 3 5 -3 7 -10 3 -15z"/>
<path d="M16770 55151 c0 -11 38 -21 56 -14 8 3 11 9 8 14 -7 12 -64 12 -64 0z"/>
<path d="M59764 54855 c-4 -8 -4 -29 0 -46 3 -17 1 -39 -5 -50 -12 -23 8 -79 27 -79 15 0 16 80 2 97 -6 7 -8 29 -5 48 6 36 -8 58 -19 30z"/>
<path d="M645 54714 c-5 -1 -22 -5 -37 -8 -16 -4 -28 -11 -28 -16 0 -14 47 -13 56 1 4 8 9 8 17 0 15 -15 24 -14 30 3 5 14 -17 25 -38 20z"/>
<path d="M20432 54698 c7 -20 68 -23 68 -4 0 12 -10 16 -36 16 -24 0 -34 -4 -32 -12z"/>
<path d="M40912 54698 c7 -20 68 -23 68 -4 0 12 -10 16 -36 16 -24 0 -34 -4 -32 -12z"/>
<path d="M59689 54696 c16 -19 55 -22 49 -3 -3 6 -17 14 -33 15 -25 3 -27 2 -16 -12z"/>
</g>
</g>
  <g id="id3:id3" transform="matrix(1.25,0,0,1.25,0.0,0.0)"><g transform="translate(0.000000,2590.400000) scale(0.040000,-0.040000)" fill="#ffffff" stroke="none">
<path d="M0 32380 l0 -32380 30100 0 30100 0 0 32380 0 32380 -30100 0 -30100 0 0 -32380z m60105 32240 l0 -45 -30005 0 -30005 0 -3 33 c-2 19 -1 40 2 48 5 12 4249 14 30008 12 l30003 -3 0 -45z m-59531 -159 c3 -4 -3 -16 -13 -25 -21 -19 -37 -7 -27 19 6 16 32 20 40 6z m59212 -6 c10 -26 -6 -38 -27 -19 -10 9 -16 21 -13 25 8 14 34 10 40 -6z m-312 -184 c7 -11 11 -9376 3 -9387 -3 -5 -12512 -9 -29354 -9 l-29348 0 -3 4690 c-1 2580 0 4695 2 4702 6 14 58691 18 58700 4z m-58900 -9572 c-7 -12 -31 -11 -39 1 -4 6 -4 18 -1 27 6 14 8 14 26 -2 11 -10 17 -22 14 -26z m59216 15 c0 -17 -24 -29 -40 -19 -8 5 -6 13 6 26 18 20 34 17 34 -7z"/>
<path d="M1437 63603 c-4 -3 -7 -1811 -7 -4018 0 -3106 3 -4014 12 -4023 9 -9 746 -12 3258 -12 1785 0 3251 4 3258 8 10 7 12 819 10 4028 l-3 4019 -3261 3 c-1793 1 -3264 -1 -3267 -5z m6148 -1523 l0 -1065 -2885 0 -2885 0 -3 1055 c-1 580 0 1061 3 1068 3 10 586 12 2887 10 l2883 -3 0 -1065z m0 -2520 l0 -1065 -2885 0 -2885 0 -3 1055 c-1 580 0 1061 3 1068 3 10 586 12 2887 10 l2883 -3 0 -1065z m0 -2520 l0 -1065 -2885 0 -2885 0 -3 1055 c-1 580 0 1061 3 1068 3 10 586 12 2887 10 l2883 -3 0 -1065z"/>
<path d="M3837 63003 c-9 -8 -9 -216 -1 -237 6 -14 90 -16 858 -16 468 0 857 4 864 8 9 7 12 39 10 128 l-3 119 -861 3 c-473 1 -864 -1 -867 -5z"/>
<path d="M3839 60406 c-15 -16 -12 -271 5 -285 10 -8 245 -10 867 -9 l854 3 3 125 c1 69 0 135 -3 147 l-5 23 -856 2 c-530 2 -859 -1 -865 -6z"/>
<path d="M3837 57923 c-9 -8 -9 -256 -1 -277 6 -14 90 -16 858 -16 468 0 857 4 864 8 9 7 12 43 10 148 l-3 139 -861 3 c-473 1 -864 -1 -867 -5z"/>
<path d="M52157 63603 c-9 -8 -9 -8015 -1 -8037 6 -15 302 -16 3259 -16 2723 0 3254 2 3264 14 8 10 10 1068 9 4027 l-3 4014 -3261 3 c-1793 1 -3264 -1 -3267 -5z m6148 -1523 l0 -1065 -2885 0 -2885 0 -3 1055 c-1 580 0 1061 3 1068 3 10 586 12 2887 10 l2883 -3 0 -1065z m0 -2520 l0 -1065 -2885 0 -2885 0 -3 1055 c-1 580 0 1061 3 1068 3 10 586 12 2887 10 l2883 -3 0 -1065z m0 -2520 l0 -1065 -2885 0 -2885 0 -3 1055 c-1 580 0 1061 3 1068 3 10 586 12 2887 10 l2883 -3 0 -1065z"/>
<path d="M54434 62998 c-9 -14 -8 -223 1 -238 8 -12 1703 -14 1723 -2 9 7 12 39 10 128 l-3 119 -862 3 c-651 1 -864 -1 -869 -10z"/>
<path d="M54437 60403 c-4 -3 -7 -66 -7 -138 0 -100 3 -135 14 -144 10 -8 245 -10 867 -9 l854 3 0 145 0 145 -861 3 c-473 1 -864 -1 -867 -5z"/>
<path d="M54437 57923 c-9 -8 -9 -256 -1 -277 6 -14 90 -16 858 -16 468 0 857 4 864 8 9 7 12 43 10 148 l-3 139 -861 3 c-473 1 -864 -1 -867 -5z"/>
<path d="M9094 63582 c-363 -2 -392 -4 -396 -20 -6 -28 1 -7984 7 -7991 10 -9 42808 -7 42831 2 l22 9 0 3987 c1 2193 -2 3992 -6 3999 -6 9 -4895 12 -21037 14 -11567 2 -21206 2 -21421 0z m12429 -1000 c-1 -81 -6 -176 -12 -212 -6 -36 -16 -101 -22 -145 -5 -44 -14 -100 -20 -125 -5 -25 -16 -74 -24 -110 -32 -154 -126 -380 -206 -500 -44 -65 -127 -163 -172 -203 -57 -51 -175 -126 -229 -147 -126 -46 -274 -59 -190 -16 16 8 45 35 63 58 18 24 40 50 49 58 24 22 130 155 181 228 83 119 98 145 93 153 -9 16 -22 10 -41 -20 -81 -128 -401 -487 -426 -478 -39 13 -49 232 -16 354 44 161 93 227 398 539 108 111 219 228 248 261 90 104 201 267 254 373 67 134 75 126 72 -68z m987 -32 c248 -24 349 -46 518 -112 167 -66 316 -162 465 -300 l67 -63 -291 -298 -291 -297 -64 59 c-67 63 -156 127 -214 153 -125 58 -141 61 -292 66 l-147 4 -55 -25 c-76 -35 -153 -109 -167 -160 -18 -68 -4 -123 47 -178 87 -92 162 -128 644 -314 383 -147 636 -340 754 -574 91 -179 116 -286 116 -491 0 -170 -18 -247 -89 -392 -76 -153 -103 -191 -213 -300 -104 -103 -226 -181 -369 -239 -94 -37 -147 -52 -289 -80 -68 -14 -522 -5 -595 11 -27 6 -79 15 -115 20 -177 25 -458 149 -645 283 -102 74 -223 168 -239 186 l-20 22 213 217 c338 345 365 372 380 372 7 0 39 -22 70 -49 59 -51 198 -145 266 -179 22 -11 87 -35 145 -53 100 -31 113 -33 260 -34 l155 0 65 31 c60 29 91 58 127 119 7 11 12 47 13 81 0 52 -4 67 -30 103 -36 49 -135 116 -240 160 -41 18 -88 38 -105 45 -16 7 -57 23 -90 35 -297 110 -507 208 -633 294 -141 96 -287 261 -359 407 -31 61 -63 158 -63 188 0 15 27 60 69 116 38 50 81 114 96 141 40 73 85 164 85 172 0 4 15 46 34 93 57 146 80 237 112 440 9 58 22 112 30 121 20 23 178 103 259 132 70 25 245 63 320 70 79 7 212 6 305 -3z m-11020 -16 c375 -55 666 -186 945 -426 96 -83 275 -268 275 -285 0 -4 -130 -140 -290 -301 l-289 -294 -33 48 c-225 326 -480 464 -858 464 -263 0 -450 -66 -657 -233 -131 -105 -261 -306 -314 -483 -24 -82 -37 -321 -21 -399 64 -312 239 -554 504 -699 87 -48 156 -74 273 -103 89 -22 115 -24 235 -20 188 6 324 48 505 155 106 62 115 75 115 158 0 56 -3 73 -15 78 -9 3 -156 6 -328 5 l-312 0 0 368 0 368 729 3 c402 1 734 -2 738 -6 5 -5 9 -282 9 -616 l-1 -608 -92 -100 c-402 -436 -925 -644 -1523 -606 -60 4 -141 14 -180 22 -38 8 -88 17 -111 20 -69 10 -290 89 -414 149 -176 85 -386 248 -538 417 -70 78 -202 257 -202 274 0 2 -16 33 -36 68 -67 118 -151 356 -174 498 -26 158 -30 193 -30 325 0 154 23 324 67 484 47 175 172 424 291 576 68 88 266 283 352 347 73 54 204 138 216 138 3 0 18 8 32 18 87 59 395 164 539 183 43 5 96 14 118 18 71 15 363 12 475 -5z m7435 -3 c306 -48 523 -134 775 -305 173 -117 380 -331 493 -509 110 -173 219 -446 242 -609 l7 -46 -49 -28 c-26 -15 -56 -34 -65 -42 -10 -8 -44 -26 -75 -40 -48 -20 -80 -25 -184 -29 l-126 -5 -72 -68 c-42 -39 -70 -73 -67 -79 10 -16 143 -14 202 3 27 8 69 17 94 20 67 10 163 45 268 97 75 37 95 43 99 31 4 -8 3 -100 0 -206 -5 -169 -9 -205 -37 -311 -65 -253 -141 -428 -268 -619 -74 -111 -245 -294 -361 -388 -171 -138 -375 -247 -586 -312 -224 -69 -283 -79 -526 -83 -190 -4 -230 -2 -335 17 -119 21 -296 66 -324 81 -8 5 -44 20 -80 34 -131 53 -195 87 -350 191 -76 51 -268 216 -301 259 -13 17 -43 52 -66 79 -88 99 -227 338 -278 476 -31 84 -73 235 -91 325 -21 110 -30 409 -15 510 39 254 75 378 166 564 190 390 505 691 898 859 54 23 103 42 110 42 7 0 24 7 39 14 39 21 184 56 313 76 154 25 395 25 550 1z m9474 4 c300 -41 566 -145 818 -322 103 -72 374 -328 401 -379 9 -18 -20 -51 -281 -317 -161 -164 -295 -297 -299 -297 -4 0 -33 37 -65 83 -151 218 -376 371 -623 423 -85 17 -282 19 -375 3 -235 -40 -453 -174 -607 -373 -85 -110 -148 -238 -183 -376 -25 -96 -27 -116 -22 -230 9 -202 65 -360 188 -533 73 -103 138 -165 253 -242 160 -106 329 -163 516 -172 90 -5 122 -2 222 21 145 32 200 54 308 119 104 64 256 211 329 320 29 43 59 81 66 83 8 4 41 -24 81 -68 76 -82 393 -407 467 -477 26 -25 47 -50 47 -54 0 -4 -34 -46 -76 -93 -303 -341 -628 -534 -1051 -625 -120 -26 -486 -38 -599 -20 -268 43 -392 80 -588 177 -221 110 -337 195 -516 380 -132 135 -220 262 -309 440 -56 112 -141 358 -141 407 0 12 -7 54 -15 92 -50 242 -12 619 90 892 39 104 144 298 215 398 35 50 127 153 205 231 108 108 166 157 255 215 244 159 499 256 760 288 52 7 96 14 99 17 11 11 326 2 430 -11z m21371 -15 c200 -37 389 -115 568 -235 72 -48 242 -201 242 -217 0 -17 -572 -588 -590 -588 -9 0 -36 21 -60 46 -154 158 -362 243 -570 231 -138 -7 -254 -76 -295 -174 -28 -66 -13 -122 51 -192 69 -77 181 -133 519 -261 236 -89 332 -132 435 -193 342 -204 497 -425 552 -792 24 -163 -11 -385 -86 -533 -155 -308 -441 -520 -806 -599 -131 -28 -528 -25 -702 6 -350 61 -556 159 -890 425 -49 38 -88 74 -88 80 0 9 381 398 532 543 l56 55 64 -50 c176 -136 298 -203 448 -243 70 -19 111 -23 235 -24 l150 0 57 29 c119 59 174 166 134 259 -17 40 -85 104 -154 145 -29 18 -54 32 -57 32 -2 0 -28 11 -57 24 -29 14 -107 46 -173 71 -287 111 -357 141 -467 197 -198 100 -324 200 -430 343 -130 172 -186 332 -194 546 -11 319 71 541 282 759 164 170 369 276 629 324 122 23 511 15 665 -14z m-11785 -1740 l0 -1725 -425 0 -425 0 -3 1715 c-1 943 0 1721 3 1728 3 10 94 12 427 10 l423 -3 0 -1725z m-2441 1694 c247 -48 420 -139 577 -301 125 -130 197 -260 241 -441 18 -73 21 -116 21 -262 0 -163 -2 -181 -28 -260 -32 -101 -92 -224 -140 -290 -19 -26 -35 -54 -35 -62 0 -7 34 -47 76 -88 149 -147 244 -325 284 -530 15 -75 12 -280 -5 -340 -8 -30 -20 -77 -26 -104 -27 -117 -216 -403 -315 -476 -165 -122 -225 -157 -349 -203 -177 -66 -120 -62 -1010 -62 l-810 0 -2 1705 c-2 1550 0 1706 14 1723 15 16 59 17 696 17 l680 -1 131 -25z m12261 -367 l0 -389 -442 1 c-244 1 -444 1 -445 -1 -2 -2 -5 -601 -8 -1333 l-5 -1330 -420 0 -420 0 -2 1329 c-1 730 -3 1330 -5 1332 -2 2 -198 4 -435 5 -336 1 -435 4 -443 14 -7 8 -9 134 -8 381 l3 369 578 1 c317 0 580 4 584 8 4 4 336 6 738 4 l730 -3 0 -388z m-32622 366 c8 -10 92 -180 185 -378 141 -298 432 -915 652 -1380 26 -55 104 -219 173 -365 68 -146 145 -308 170 -360 24 -52 99 -210 165 -350 66 -140 154 -326 196 -413 42 -87 74 -163 71 -168 -10 -15 -900 -12 -913 4 -5 6 -40 77 -77 157 -37 80 -84 181 -105 225 -20 44 -52 114 -70 155 -19 41 -38 81 -43 88 -7 9 -162 12 -712 12 l-702 0 -17 -18 c-9 -11 -75 -144 -146 -298 -71 -153 -135 -290 -143 -304 l-13 -25 -449 -3 c-248 -1 -455 0 -462 2 -7 3 -2 24 18 63 36 72 131 273 284 598 64 138 140 297 167 355 51 105 187 395 258 545 46 98 101 214 173 365 157 330 594 1257 672 1427 31 65 37 72 67 76 18 2 157 5 309 5 251 2 277 0 292 -15z m16811 -4 c7 -8 43 -77 79 -154 36 -77 88 -187 115 -245 28 -58 127 -267 220 -465 149 -317 439 -930 562 -1190 23 -49 86 -182 140 -295 53 -113 182 -385 285 -605 103 -220 197 -412 207 -428 15 -21 16 -28 6 -32 -7 -3 -215 -4 -463 -3 l-450 3 -45 90 c-25 50 -58 119 -74 155 -77 174 -170 367 -184 383 -14 16 -61 17 -717 17 -550 0 -705 -3 -712 -12 -6 -7 -72 -146 -147 -308 -75 -162 -140 -302 -145 -310 -7 -13 -70 -15 -456 -18 -259 -1 -453 2 -458 7 -5 5 21 73 66 167 365 779 470 1001 478 1017 9 17 345 726 579 1222 67 143 139 296 160 340 21 44 86 181 145 305 59 124 115 247 126 273 25 62 46 95 67 101 9 2 149 3 310 2 237 -2 296 -6 306 -17z m7627 -9 c19 -23 76 -111 244 -370 37 -58 100 -154 139 -215 40 -60 108 -165 152 -233 43 -68 127 -196 185 -285 121 -187 252 -387 358 -552 41 -63 81 -115 88 -115 11 0 13 161 13 889 0 699 3 891 13 898 7 6 174 9 412 9 l400 -1 0 -1715 0 -1715 -382 -3 -381 -2 -24 29 c-12 16 -63 93 -113 171 -49 78 -128 201 -175 273 -47 73 -101 156 -120 186 -19 30 -87 135 -150 232 -63 98 -155 242 -205 319 -49 78 -117 183 -150 233 -59 91 -123 191 -216 337 -77 119 -128 190 -139 190 -6 0 -11 -337 -12 -982 l-3 -983 -405 0 -405 0 -1 1705 c-1 938 2 1710 6 1715 5 6 161 10 430 10 l422 0 19 -25z m5110 3 c11 -29 8 -663 -3 -685 -8 -17 -54 -18 -758 -18 l-750 0 -1 -27 c-2 -70 -2 -300 -1 -410 l2 -123 743 -2 742 -3 0 -355 0 -355 -742 -3 -742 -2 -3 -313 c-2 -171 -1 -320 1 -330 3 -16 44 -17 753 -17 412 0 753 -2 759 -5 15 -10 10 -742 -6 -755 -8 -7 -399 -9 -1169 -8 l-1157 3 0 1707 c0 939 2 1711 5 1716 3 5 526 8 1162 8 l1157 -1 8 -22z m4574 -4043 l0 -85 -18925 0 -18925 0 -3 74 c-2 41 -1 80 2 88 5 11 3093 13 18928 11 l18923 -3 0 -85z m-30235 -530 c119 -21 243 -86 359 -188 l45 -39 -88 -85 -87 -86 -53 53 c-33 33 -81 66 -132 91 l-79 39 -105 0 -105 0 -80 -39 c-101 -50 -179 -125 -225 -220 -30 -61 -35 -81 -38 -166 -4 -91 -2 -101 29 -176 45 -108 141 -206 244 -249 63 -26 82 -29 180 -30 l110 0 68 33 c39 19 93 58 128 92 l62 60 81 -76 c44 -42 83 -81 85 -86 4 -13 -33 -52 -100 -103 -79 -62 -145 -98 -224 -126 -61 -21 -88 -24 -210 -24 -146 0 -182 7 -300 58 -179 77 -320 242 -375 437 -31 112 -29 262 5 366 38 115 87 196 172 280 162 161 392 228 633 184z m3124 0 c38 -6 96 -25 130 -40 68 -32 142 -82 139 -93 -1 -4 -40 -44 -87 -88 l-84 -79 -30 25 c-53 45 -116 65 -203 65 -89 0 -122 -12 -162 -60 -39 -46 -44 -90 -16 -142 21 -37 37 -50 119 -91 52 -26 115 -54 140 -61 91 -27 183 -80 254 -147 84 -78 106 -131 107 -251 1 -111 -26 -173 -107 -247 -97 -89 -165 -114 -325 -119 -107 -3 -138 -1 -205 18 -116 31 -284 123 -284 154 0 12 153 156 166 156 6 0 26 -10 45 -23 80 -54 156 -76 258 -77 156 0 238 106 164 213 -20 28 -47 48 -109 78 -46 21 -87 39 -92 39 -12 0 -107 42 -190 83 -72 35 -148 110 -181 179 -13 27 -24 75 -28 117 -12 145 50 267 172 341 111 66 232 81 409 50z m2951 -5 c207 -47 376 -190 474 -399 43 -91 54 -158 49 -297 l-4 -117 -51 -103 c-60 -123 -117 -196 -210 -265 -89 -67 -152 -98 -254 -125 -105 -27 -278 -23 -376 10 -191 63 -333 185 -414 356 -69 144 -84 288 -49 441 26 111 79 212 154 292 179 191 425 266 681 207z m4572 5 c148 -31 242 -80 363 -188 l45 -40 -90 -85 -90 -85 -50 50 c-132 132 -300 171 -463 108 -183 -71 -303 -234 -306 -415 -2 -158 108 -327 259 -399 175 -83 366 -52 506 81 31 29 60 53 65 53 5 -1 44 -34 88 -74 63 -58 77 -77 72 -93 -6 -20 -104 -100 -189 -155 -124 -80 -354 -111 -515 -69 -264 68 -437 237 -503 489 -94 359 126 723 489 812 142 35 196 36 319 10z m4348 -650 l0 -665 -125 0 -125 0 -3 655 c-1 360 0 661 3 668 3 9 35 12 127 10 l123 -3 0 -665z m-13910 629 c4 -5 6 -169 6 -362 -1 -398 6 -456 70 -562 63 -104 140 -144 275 -145 82 0 97 3 152 31 72 36 104 71 146 159 l31 65 5 410 5 410 115 0 115 0 3 -408 c3 -464 0 -487 -70 -615 -49 -89 -140 -184 -215 -225 -114 -62 -303 -84 -432 -51 -153 40 -292 147 -356 275 -70 138 -75 180 -75 621 0 217 3 398 7 401 11 12 211 8 218 -4z m3750 -99 c0 -89 -2 -104 -15 -100 -16 5 -329 13 -332 8 -2 -2 -5 -248 -8 -548 l-5 -545 -120 0 -120 0 -3 543 c-1 298 -3 543 -5 544 -1 1 -81 4 -177 7 l-175 6 -1 90 c-1 50 1 93 3 97 2 4 219 6 481 5 l477 -2 0 -105z m2584 95 c12 -13 90 -150 221 -386 108 -193 136 -239 149 -239 5 0 19 21 33 48 26 51 134 238 260 449 l78 132 43 6 c23 3 85 5 137 3 l95 -3 0 -650 0 -650 -20 3 c-11 2 -59 3 -106 2 -60 -1 -89 2 -95 11 -4 7 -7 201 -6 431 1 233 -3 418 -7 418 -15 0 -58 -57 -103 -133 -23 -40 -53 -92 -68 -117 -15 -25 -73 -122 -129 -216 -55 -94 -107 -177 -115 -183 -16 -13 -9 -23 -118 169 -248 437 -262 460 -280 460 l-19 0 1 -411 c1 -239 -2 -415 -8 -421 -5 -5 -56 -7 -113 -6 l-104 3 -3 634 c-1 378 2 638 7 645 12 14 257 15 270 1z m4808 3 c6 -7 15 -26 21 -43 5 -16 99 -217 207 -445 108 -228 226 -478 262 -554 36 -76 78 -161 95 -187 30 -49 30 -76 -1 -63 -9 3 -62 6 -117 5 -94 -2 -103 0 -126 21 -14 13 -37 52 -52 88 -14 36 -37 83 -49 105 l-23 40 -322 3 -322 2 -63 -127 -62 -128 -114 0 c-90 0 -116 3 -123 15 -10 15 17 73 459 1004 62 132 120 248 130 258 13 15 32 18 103 18 58 0 91 -4 97 -12z m1718 -17 c87 -34 174 -124 203 -211 27 -79 28 -150 3 -222 -20 -58 -68 -138 -82 -138 -24 0 -3 -34 52 -87 74 -70 96 -111 109 -200 20 -142 -41 -262 -177 -350 -89 -57 -149 -65 -463 -61 l-275 3 -3 635 c-1 349 0 641 3 648 4 11 62 13 287 10 l283 -3 60 -24z m1900 22 c18 -6 301 -430 472 -704 69 -112 80 -125 89 -116 5 5 11 192 14 415 l5 407 120 0 120 0 2 -641 c2 -499 0 -644 -10 -651 -7 -5 -61 -7 -126 -4 -98 5 -115 9 -128 26 -8 11 -42 63 -75 115 -34 52 -79 121 -100 153 -21 32 -49 75 -61 95 -12 21 -49 79 -82 130 -186 287 -242 367 -258 370 -17 3 -18 -20 -17 -434 1 -246 -3 -441 -8 -446 -5 -5 -56 -7 -113 -6 l-104 3 -3 634 c-1 460 1 638 9 647 8 10 41 14 124 14 63 0 121 -3 130 -7z m2253 -5 c18 -18 16 -162 -2 -177 -10 -8 -97 -12 -303 -11 -158 0 -294 1 -300 0 -10 0 -13 -36 -13 -147 0 -82 4 -154 8 -160 6 -10 82 -13 302 -15 l295 -3 0 -95 0 -95 -295 -3 c-220 -2 -296 -5 -302 -15 -4 -6 -8 -85 -8 -173 0 -123 3 -164 13 -173 9 -7 112 -12 313 -13 l299 -3 3 -45 c1 -25 -1 -71 -5 -103 l-8 -59 -415 2 c-228 0 -418 4 -423 9 -9 9 -11 1267 -2 1282 10 14 828 12 843 -3z m1417 -98 c0 -89 -2 -104 -15 -100 -17 5 -329 13 -332 8 -2 -2 -5 -248 -8 -548 l-5 -545 -120 0 -120 0 -3 539 c-2 417 -5 542 -15 548 -6 5 -83 8 -170 7 -87 0 -162 2 -165 6 -8 7 -12 175 -5 188 2 4 219 6 481 5 l477 -3 0 -105z m1192 76 c74 -34 153 -112 185 -183 29 -63 31 -192 5 -277 -15 -48 -31 -72 -82 -123 -38 -38 -72 -63 -84 -63 -43 0 -36 -30 18 -77 28 -25 61 -63 72 -85 23 -45 83 -208 105 -283 8 -27 28 -76 45 -108 30 -58 31 -84 0 -71 -9 4 -61 6 -116 5 -70 -2 -105 2 -116 11 -10 7 -36 76 -60 153 -63 206 -95 270 -159 310 -52 33 -137 53 -199 47 l-51 -5 0 -247 c0 -206 -2 -250 -15 -260 -10 -8 -45 -11 -117 -7 l-103 4 -2 634 c-2 349 0 640 2 647 4 10 66 12 307 10 l303 -3 62 -29z m895 17 c8 -10 39 -57 69 -106 30 -48 91 -147 137 -220 45 -72 88 -142 94 -154 24 -48 52 -40 92 25 46 74 134 210 185 287 26 39 60 91 75 117 14 26 36 53 47 58 12 7 71 10 150 9 121 -3 154 -9 130 -24 -9 -5 -66 -84 -181 -251 -19 -28 -98 -141 -175 -252 -77 -111 -148 -216 -158 -234 -15 -29 -17 -61 -16 -277 0 -139 -3 -247 -8 -252 -6 -6 -59 -8 -119 -7 l-109 3 -5 276 -5 275 -106 160 c-288 432 -377 569 -373 576 3 5 63 8 133 8 109 0 130 -3 143 -17z m6252 -1922 c3 -5 -1 -14 -8 -20 -16 -13 -32 2 -21 19 8 12 22 13 29 1z m251 -1 c11 -18 -5 -31 -26 -20 -11 6 -17 15 -14 21 8 12 32 12 40 -1z m-62 -7 c4 -3 2 -12 -4 -20 -6 -7 -8 -13 -5 -13 4 0 4 -4 1 -10 -4 -6 -17 -5 -35 5 -25 13 -33 13 -73 -1 -57 -19 -71 -35 -62 -71 10 -44 31 -66 72 -72 41 -7 48 -24 11 -29 -33 -5 -43 -18 -28 -36 16 -20 -3 -29 -56 -24 -44 3 -55 24 -34 64 10 17 10 30 1 55 -18 52 -14 90 9 96 12 3 27 18 36 34 l15 29 73 0 c40 0 76 -3 79 -7z m58 -118 c1 -40 -1 -68 -7 -66 -5 2 -20 7 -33 12 -19 8 -21 12 -11 24 7 8 10 29 7 47 -5 34 19 76 34 61 4 -5 9 -39 10 -78z m-67 -66 c-3 -5 -10 -7 -15 -3 -5 3 -7 10 -3 15 3 5 10 7 15 3 5 -3 7 -10 3 -15z"/>
<path d="M18435 61721 c-179 -39 -368 -148 -494 -287 -118 -129 -190 -263 -237 -438 -32 -118 -34 -314 -5 -427 93 -365 345 -627 706 -734 70 -21 118 -28 220 -32 121 -4 138 -2 248 26 380 97 657 383 737 762 28 129 28 245 2 364 -86 392 -381 689 -765 770 -94 20 -309 18 -412 -4z"/>
<path d="M34879 61796 c-15 -16 -12 -641 4 -653 7 -6 87 -8 212 -4 l200 7 61 28 c70 31 145 103 169 159 18 43 21 183 6 235 -31 104 -136 184 -286 216 -80 18 -351 26 -366 12z"/>
<path d="M34875 60439 c-3 -13 -4 -163 -3 -334 l3 -310 195 -3 c147 -2 215 1 275 13 148 30 247 92 297 188 18 35 22 56 20 127 -3 108 -14 143 -69 207 -32 38 -65 63 -120 90 l-76 38 -258 3 -258 4 -6 -23z"/>
<path d="M14830 61154 c-11 -25 -20 -47 -20 -49 0 -1 -65 -141 -145 -311 -80 -169 -145 -318 -145 -331 l0 -23 348 0 c192 0 351 3 354 6 6 5 -74 196 -91 219 -4 6 -15 28 -23 50 -9 22 -41 92 -71 155 -30 63 -71 153 -92 200 -66 148 -83 160 -115 84z"/>
<path d="M31506 60863 c-87 -186 -164 -351 -173 -366 -31 -58 -37 -57 352 -57 195 0 355 2 355 5 0 3 -4 13 -10 23 -5 9 -45 96 -89 192 -199 438 -249 540 -263 540 -9 0 -76 -132 -172 -337z"/>
<path d="M24845 57657 c-233 -87 -359 -315 -297 -535 37 -132 122 -231 250 -294 l67 -33 116 0 116 0 77 39 c87 44 169 124 205 200 28 61 51 150 51 201 0 55 -31 163 -63 217 -106 181 -340 272 -522 205z"/>
<path d="M31167 57503 c-4 -3 -7 -13 -7 -22 0 -12 -106 -250 -176 -395 -8 -16 -14 -33 -14 -38 0 -4 97 -8 215 -8 l215 0 0 27 c0 32 -164 388 -193 421 -22 23 -29 26 -40 15z"/>
<path d="M32683 57703 c-51 -3 -63 -7 -63 -21 -4 -154 3 -348 13 -355 7 -4 56 -6 109 -4 83 4 106 9 154 34 95 48 127 135 82 229 -26 57 -72 88 -161 108 -38 9 -69 15 -70 14 -1 -1 -30 -3 -64 -5z"/>
<path d="M32620 56971 l0 -191 103 0 c219 0 317 58 317 188 0 75 -28 122 -94 158 -47 26 -61 29 -188 32 l-138 4 0 -191z"/>
<path d="M39353 57714 c-10 -4 -13 -56 -13 -209 l0 -204 22 -12 c31 -17 202 -6 253 15 77 33 134 112 135 186 0 47 -40 130 -79 163 -18 14 -55 34 -84 43 -53 16 -212 28 -234 18z"/>
</g>
</g>
</svg>
