<svg xmlns="http://www.w3.org/2000/svg" version="1.0" width="474.000000pt" height="590.000000pt" viewBox="0 0 474.000000 590.000000" preserveAspectRatio="xMidYMid meet">
  <g transform="translate(0.000000,590.000000) scale(0.100000,-0.100000)" stroke="none">
    <path d="M 0 0 H 4740.0 V 5900.0 H 0 Z" fill="#f3f3f3" id="background"/>
    <path stroke="none" d="M1990 5851 c-8 -5 -51 -12 -95 -15 -98 -8 -302 -42 -371 -62 -28 -8 -57 -12 -65 -9 -8 3 -42 -8 -74 -25 -33 -16 -68 -30 -77 -30 -10 0 -18 -4 -18 -9 0 -5 -32 -9 -71 -9 -39 -1 -76 -5 -83 -11 -15 -13 -96 -10 -96 3 0 5 -8 2 -17 -7 -12 -10 -28 -13 -45 -10 -17 3 -28 1 -28 -6 0 -16 -19 -14 -37 5 -11 11 -19 12 -26 5 -6 -6 -21 -11 -33 -11 -24 0 -94 -27 -94 -36 0 -4 19 -4 42 -1 26 4 37 2 28 -3 -11 -7 -12 -12 -3 -21 8 -8 19 -3 44 20 36 35 54 33 21 -2 -29 -31 -29 -52 1 -42 12 4 35 7 52 6 16 0 39 6 52 14 15 10 24 11 29 4 8 -14 102 -3 123 14 11 10 13 8 7 -10 -7 -22 -7 -22 35 -8 53 19 60 19 52 -2 -5 -13 -2 -15 18 -9 13 5 40 10 59 13 19 3 40 9 45 13 6 3 37 13 70 20 33 7 72 19 88 27 15 8 46 18 70 23 75 16 131 31 162 45 17 8 59 19 95 25 59 11 146 37 257 77 24 9 40 19 37 24 -7 12 -134 11 -154 0z" fill="#c4c4c4" id="c4c4c4-000001"/>
    <path stroke="none" d="M1407 5714 c-3 -3 -12 -4 -19 -1 -8 3 -5 6 6 6 11 1 17 -2 13 -5z" fill="#e8e8e8" id="e8e8e8-000002"/>
    <path stroke="none" d="M3385 5849 c-8 -12 54 -19 118 -12 59 6 60 7 27 15 -41 9 -139 8 -145 -3z" fill="#c4c4c4" id="c4c4c4-000003"/>
    <path stroke="none" d="M3601 5851 c-18 -12 3 -25 44 -28 17 -2 56 -6 87 -9 44 -4 61 -2 73 9 8 9 15 18 15 22 0 3 -39 5 -87 4 -49 -1 -95 1 -103 5 -8 3 -21 2 -29 -3z" fill="#c4c4c4" id="c4c4c4-000004"/>
    <path stroke="none" d="M2289 5733 c-1 -5 -1 -11 0 -15 0 -5 -10 -8 -23 -8 -19 0 -22 -4 -18 -25 4 -21 1 -25 -19 -23 -13 1 -42 -8 -64 -20 -22 -12 -45 -22 -52 -22 -7 0 -13 -7 -13 -15 0 -17 27 -19 63 -6 13 5 30 6 37 1 22 -14 67 10 83 43 9 17 13 35 11 39 -3 5 2 15 10 24 9 9 14 20 11 25 -7 11 -25 12 -26 2z" fill="#c4c4c4" id="c4c4c4-000006"/>
    <path stroke="none" d="M2606 5690 c-35 -31 -40 -58 -7 -45 28 11 110 15 133 6 12 -4 39 -4 61 1 25 5 52 4 78 -3 39 -12 65 -5 40 10 -7 5 -11 14 -7 19 13 21 -37 34 -148 39 l-113 5 -37 -32z" fill="#c4c4c4" id="c4c4c4-000009"/>
    <path stroke="none" d="M2938 5663 c7 -3 16 -2 19 1 4 3 -2 6 -13 5 -11 0 -14 -3 -6 -6z" fill="#c4c4c4" id="c4c4c4-000012"/>
    <path stroke="none" d="M383 5588 c-26 -13 -29 -23 -9 -31 8 -3 17 1 20 9 3 8 12 14 21 14 8 0 15 5 15 10 0 13 -19 12 -47 -2z" fill="#c4c4c4" id="c4c4c4-000015"/>
    <path stroke="none" d="M3350 5210 c-8 -5 -25 -10 -37 -10 -12 0 -38 -9 -58 -20 -20 -11 -49 -20 -65 -20 -16 0 -31 -4 -34 -9 -6 -10 -75 -26 -91 -21 -5 1 -28 2 -50 1 -74 -3 -80 -2 -83 9 -6 16 -49 12 -56 -5 -3 -8 -15 -15 -27 -15 -14 0 -19 5 -16 14 4 9 -4 14 -21 15 -78 5 -121 3 -162 -8 -25 -7 -65 -10 -90 -7 -58 8 -60 8 -163 0 -65 -5 -95 -3 -113 7 -20 10 -32 11 -56 1 -26 -10 -35 -9 -48 3 -24 22 -67 19 -80 -5 -11 -20 -11 -20 -50 0 -35 18 -42 18 -84 6 -26 -8 -48 -10 -52 -5 -3 5 -25 9 -50 9 -25 0 -54 5 -65 11 -15 7 -24 7 -34 -1 -8 -7 -20 -8 -26 -4 -7 4 -24 8 -38 10 -14 1 -46 8 -71 15 -56 15 -436 24 -465 10 -23 -11 -64 -20 -119 -27 -21 -2 -51 -13 -66 -24 -15 -11 -36 -20 -47 -20 -10 0 -29 -9 -43 -20 -14 -11 -34 -20 -44 -20 -11 0 -37 -18 -58 -40 -22 -22 -46 -40 -54 -40 -8 0 -14 -4 -14 -8 0 -5 -12 -15 -27 -23 -34 -17 -42 -24 -73 -71 -14 -21 -28 -38 -32 -38 -5 0 -8 -9 -8 -20 0 -11 -4 -20 -10 -20 -5 0 -10 -7 -10 -15 0 -9 -9 -25 -20 -37 -12 -14 -20 -36 -20 -58 0 -20 -6 -42 -12 -48 -16 -16 -14 -135 1 -140 6 -2 11 -13 11 -25 0 -12 9 -33 20 -47 11 -14 20 -30 20 -35 0 -6 9 -16 20 -23 27 -17 17 -32 -21 -32 -17 0 -37 -7 -45 -15 -9 -8 -24 -15 -35 -15 -10 0 -19 -6 -19 -12 0 -7 -14 -24 -30 -37 -29 -23 -30 -25 -27 -100 2 -70 4 -78 34 -108 17 -18 35 -33 41 -33 5 0 29 -18 52 -40 23 -22 47 -40 52 -40 5 0 20 -11 34 -25 21 -21 23 -29 14 -40 -7 -8 -19 -15 -26 -15 -31 0 -84 -40 -84 -64 0 -9 -4 -16 -9 -16 -5 0 -12 -18 -16 -39 -6 -39 2 -66 28 -93 16 -16 57 -75 57 -81 0 -2 -14 -7 -32 -11 -35 -7 -68 -32 -68 -52 0 -7 -9 -19 -20 -27 -18 -12 -21 -26 -23 -95 -1 -53 4 -90 13 -109 17 -35 96 -113 114 -113 19 0 72 -28 87 -46 11 -14 9 -15 -22 -12 -30 3 -34 0 -37 -24 -2 -14 -10 -32 -18 -38 -8 -7 -14 -18 -14 -25 0 -6 -9 -20 -20 -30 -11 -10 -20 -24 -20 -30 0 -20 -32 -43 -37 -27 -3 6 -10 12 -16 12 -7 0 -23 9 -37 20 -54 42 -200 15 -208 -38 -2 -12 -8 -22 -13 -22 -12 0 -12 -37 1 -45 6 -3 10 -24 10 -46 0 -46 38 -128 60 -129 9 0 22 -9 30 -20 8 -11 19 -20 25 -20 5 -1 26 -14 45 -30 19 -17 39 -30 45 -30 5 0 21 -9 35 -20 14 -11 32 -20 41 -20 9 0 19 -7 23 -15 3 -8 13 -15 23 -15 17 -1 17 -1 1 -14 -10 -7 -21 -28 -25 -47 -3 -19 -9 -36 -12 -39 -13 -10 -31 -62 -25 -71 3 -6 12 -6 22 0 11 6 19 5 27 -6 8 -11 17 -12 38 -4 23 9 27 8 28 -7 0 -13 3 -11 9 6 11 25 30 30 30 7 0 -8 5 -15 10 -15 6 0 10 6 10 13 0 12 42 57 54 57 3 0 6 -7 6 -15 0 -9 9 -15 25 -15 14 0 25 5 25 10 0 39 160 -34 175 -80 4 -12 12 -17 21 -13 14 5 34 -1 86 -28 10 -5 25 -9 33 -9 8 0 15 -4 15 -9 0 -5 10 -12 22 -16 23 -8 23 -8 -2 -12 -14 -2 -37 -9 -52 -15 -27 -10 -28 -14 -28 -78 0 -54 4 -73 22 -96 32 -41 45 -54 56 -54 6 0 13 -7 16 -16 4 -10 13 -13 25 -9 11 3 22 1 26 -5 3 -5 19 -10 35 -10 16 0 32 -4 35 -10 3 -5 1 -10 -4 -10 -6 0 -11 -5 -11 -11 0 -6 9 -8 20 -4 12 4 20 2 20 -5 0 -7 6 -10 14 -7 7 3 29 -10 49 -29 37 -36 103 -84 115 -84 4 0 21 -14 39 -30 18 -17 39 -30 47 -30 9 0 16 -4 16 -10 0 -5 6 -10 13 -10 8 0 22 -10 33 -21 10 -12 39 -35 64 -52 57 -40 161 -144 180 -183 8 -16 23 -39 33 -51 11 -12 16 -26 13 -32 -4 -6 2 -21 13 -33 12 -12 20 -31 20 -42 -1 -17 -2 -18 -6 -3 -2 9 -9 17 -15 17 -5 0 -8 -7 -4 -15 8 -21 -3 -45 -20 -45 -23 0 -16 -18 9 -22 14 -2 22 -10 22 -22 0 -11 6 -21 13 -23 6 -3 12 0 12 6 0 6 6 11 14 11 9 0 12 9 9 28 -4 26 -4 26 12 7 8 -11 22 -28 30 -38 8 -9 15 -22 15 -27 0 -5 9 -14 20 -20 11 -6 20 -17 20 -25 0 -7 3 -15 8 -17 18 -8 44 -77 37 -99 -6 -20 -5 -22 6 -12 10 10 16 9 31 -4 10 -9 18 -23 18 -32 0 -9 17 -38 38 -66 41 -54 72 -114 72 -138 0 -9 5 -17 11 -19 7 -2 9 -13 4 -27 -4 -14 -12 -20 -22 -17 -8 3 -19 3 -24 0 -6 -3 -34 -7 -64 -8 -34 -2 -62 -9 -73 -19 -10 -10 -24 -17 -31 -17 -7 0 -11 -8 -9 -17 2 -14 14 -18 46 -20 34 -1 42 2 38 13 -7 19 40 42 87 42 34 0 36 -2 31 -23 -4 -17 1 -32 19 -51 23 -24 27 -25 60 -15 27 9 40 22 53 52 16 35 21 39 53 38 l36 -1 -27 -11 c-29 -11 -38 -27 -15 -27 20 0 40 -17 33 -28 -4 -7 -15 -7 -35 1 -37 14 -61 -7 -54 -46 6 -29 29 -35 63 -17 14 7 23 6 34 -6 22 -22 20 -33 -10 -40 -39 -10 -27 -40 14 -36 18 2 32 -1 32 -6 0 -11 -30 -37 -51 -45 -13 -4 -16 -15 -11 -52 3 -34 1 -50 -9 -56 -22 -14 -29 -11 -29 11 0 24 -22 26 -41 4 -10 -13 -10 -17 2 -25 12 -8 11 -11 -3 -20 -29 -16 -21 -27 30 -41 l47 -14 -22 -19 c-25 -21 -22 -35 8 -35 21 0 64 -42 75 -73 4 -12 11 -16 22 -12 10 4 60 9 112 10 52 2 97 5 100 6 3 1 12 3 20 3 66 6 129 20 150 34 14 8 47 16 75 17 27 1 64 7 80 14 58 25 86 30 113 20 21 -8 43 -4 117 24 49 19 124 39 165 45 41 6 86 14 99 18 18 5 23 4 19 -7 -2 -8 -27 -18 -55 -24 -28 -5 -55 -13 -59 -18 -4 -4 -17 -7 -28 -7 -12 0 -34 -7 -49 -15 -15 -8 -45 -17 -65 -21 -20 -4 -46 -13 -57 -20 -11 -8 -30 -14 -42 -14 -13 0 -23 -4 -23 -9 0 -4 -11 -6 -25 -4 -13 3 -48 -4 -77 -15 -100 -38 -124 -42 -189 -36 -54 6 -62 4 -51 -7 11 -12 96 -14 477 -14 425 0 465 1 477 17 15 19 68 42 68 29 0 -5 -9 -11 -20 -14 -11 -3 -20 -10 -20 -15 0 -17 82 -25 197 -19 60 4 114 6 121 7 6 0 12 7 12 16 0 11 8 14 28 12 15 -2 26 -8 25 -15 -4 -17 75 -23 282 -20 l180 2 1 415 c0 228 -1 425 -4 438 -2 13 -11 22 -22 22 -16 0 -18 6 -13 35 4 23 2 35 -6 35 -6 0 -11 -7 -11 -16 0 -20 -34 -14 -38 7 -1 8 7 27 18 42 16 20 27 26 44 21 20 -5 24 -1 30 26 8 45 -3 110 -20 110 -8 0 -14 5 -14 10 0 6 7 10 15 10 22 0 31 65 12 94 -9 13 -13 33 -10 45 4 17 1 21 -17 21 -15 0 -20 -5 -17 -14 4 -10 0 -12 -14 -9 -12 3 -21 -1 -25 -11 -6 -15 -8 -15 -23 -2 -17 16 -137 26 -158 13 -6 -4 -16 0 -23 8 -16 19 -44 19 -60 0 -14 -17 -66 -20 -75 -5 -4 6 -1 18 6 26 11 13 6 14 -42 9 -43 -5 -60 -13 -83 -38 -32 -34 -32 -30 4 30 19 32 37 46 79 64 38 16 56 19 59 11 5 -17 22 -15 22 3 0 8 7 15 15 15 8 0 15 5 15 10 0 14 47 13 73 -2 12 -6 54 -20 92 -29 50 -12 61 -18 40 -19 l-30 -2 30 -10 c21 -8 30 -8 33 0 5 15 26 15 52 2 11 -5 29 -14 39 -20 14 -7 21 -5 25 5 3 8 5 158 5 332 0 265 -2 321 -15 340 -13 21 -13 26 1 54 14 26 16 69 14 297 -3 259 -9 336 -25 285 -3 -13 -10 -23 -15 -23 -5 0 -9 -11 -9 -25 0 -14 -4 -25 -9 -25 -5 0 -17 -23 -26 -51 -18 -54 -13 -68 25 -69 8 -1 0 -7 -17 -15 -34 -14 -42 -30 -20 -38 9 -3 8 -8 -3 -22 -8 -10 -15 -27 -15 -38 0 -19 -13 -30 -47 -41 -32 -10 -22 -53 17 -78 41 -27 42 -32 13 -53 -22 -15 -22 -17 -4 -30 24 -18 12 -39 -14 -25 -23 12 -97 13 -104 1 -13 -21 7 -40 45 -43 49 -4 47 -23 -3 -23 -25 0 -43 -7 -58 -23 -12 -13 -26 -19 -33 -15 -8 5 -7 9 6 11 33 7 17 19 -23 18 -40 -1 -51 -9 -27 -20 10 -5 10 -7 0 -12 -19 -9 -17 -48 2 -40 9 3 21 -4 31 -19 9 -14 22 -25 29 -25 7 0 19 -7 26 -16 12 -14 8 -15 -43 -9 -62 8 -81 -4 -54 -34 16 -17 15 -19 -6 -24 -26 -7 -16 -22 15 -22 13 0 23 -7 25 -18 2 -11 -3 -17 -14 -17 -24 0 -2 -23 23 -25 10 0 19 -5 20 -10 0 -6 -3 -9 -8 -7 -26 7 -32 6 -36 -5 -3 -7 2 -13 11 -13 9 0 16 -4 16 -10 0 -15 -19 -12 -37 6 -10 10 -25 13 -41 9 -27 -7 -74 9 -111 37 -12 9 -38 20 -57 24 -39 7 -53 21 -29 30 9 4 31 -1 49 -11 32 -18 66 -15 66 4 0 5 -14 14 -31 20 -21 7 -29 15 -26 25 5 11 -1 15 -21 14 -75 -2 -159 6 -177 18 -26 16 -69 22 -73 9 -1 -5 9 -11 23 -13 29 -4 34 -22 6 -22 -30 0 -35 -19 -8 -29 14 -6 27 -15 29 -21 2 -6 24 -13 48 -14 28 -2 69 -17 110 -40 36 -20 80 -43 98 -51 17 -9 32 -21 33 -28 0 -6 2 -26 3 -44 3 -29 1 -32 -31 -38 -24 -4 -42 -1 -60 10 -13 9 -31 14 -39 11 -17 -6 -29 17 -19 34 5 8 13 6 25 -5 18 -17 60 -13 60 5 0 9 -55 30 -80 30 -22 0 -77 -50 -81 -75 -6 -27 -27 -30 -31 -3 -2 16 -11 24 -30 26 -62 7 -58 51 8 72 40 14 42 22 10 39 -29 16 -70 6 -62 -15 9 -23 -21 -28 -60 -9 -36 17 -71 14 -59 -5 3 -5 15 -10 25 -10 10 0 22 -5 26 -11 5 -8 -5 -9 -34 -4 -25 4 -49 2 -62 -5 -33 -17 -10 -34 48 -35 47 0 47 0 49 -35 1 -26 -3 -39 -18 -48 -17 -11 -19 -9 -19 12 0 48 -37 44 -59 -6 -11 -24 -11 -35 -2 -49 6 -10 11 -37 11 -59 0 -22 5 -40 10 -40 6 0 10 5 10 10 0 6 5 10 10 10 6 0 10 -12 10 -26 0 -16 5 -24 13 -21 12 4 13 28 1 84 -6 32 -6 33 29 33 44 0 47 -5 40 -59 -5 -36 -11 -45 -34 -53 -27 -9 -41 -38 -19 -38 6 0 10 -5 10 -12 0 -9 -3 -9 -12 0 -7 7 -24 12 -38 12 -21 0 -27 7 -38 40 -6 22 -12 49 -12 60 0 11 -4 20 -9 20 -13 0 -40 -61 -34 -77 4 -9 -3 -13 -22 -13 -22 0 -25 3 -16 14 13 16 0 61 -21 69 -9 4 -4 13 17 31 l30 25 -25 23 c-46 42 -54 56 -40 73 15 18 60 20 60 3 0 -9 3 -9 13 1 10 10 7 16 -13 31 -28 22 -46 25 -55 10 -9 -14 -35 -12 -35 3 0 7 9 18 20 24 18 12 19 14 2 43 -14 26 -21 30 -46 26 -16 -4 -37 -6 -47 -6 -11 0 -19 -4 -19 -10 0 -5 13 -10 29 -10 42 0 48 -17 9 -22 -30 -5 -65 6 -79 25 -9 13 -68 26 -74 17 -3 -5 -28 -12 -55 -16 -28 -4 -50 -10 -50 -15 0 -5 7 -9 15 -9 7 0 18 -8 24 -17 7 -14 12 -15 24 -5 14 12 33 11 91 -5 34 -9 0 -25 -63 -27 -69 -3 -80 -9 -61 -31 16 -19 29 -19 49 -1 14 12 30 12 109 1 51 -7 96 -16 99 -19 7 -6 -17 -106 -25 -106 -4 0 -17 23 -30 50 -22 48 -24 50 -64 50 -74 0 -168 -21 -168 -37 0 -12 16 -14 97 -11 70 2 97 0 100 -9 3 -10 -11 -13 -54 -13 -72 -1 -131 -14 -151 -34 -19 -18 -9 -34 11 -18 30 25 63 -57 35 -87 -23 -22 19 -43 82 -40 70 3 110 -8 110 -30 0 -15 -10 -17 -87 -13 -60 3 -91 9 -96 18 -4 8 -13 14 -18 14 -6 0 -22 9 -36 20 -14 11 -35 20 -46 20 -11 0 -31 10 -44 22 -23 21 -23 21 -38 2 -8 -10 -15 -14 -15 -8 0 7 -11 15 -25 18 -13 3 -37 22 -52 41 -25 32 -29 33 -45 18 -14 -13 -20 -13 -33 -3 -36 30 -6 75 45 68 33 -5 38 6 14 33 -26 29 -11 51 31 43 32 -6 35 -4 35 17 0 58 -23 89 -37 52 -8 -20 -43 -56 -43 -44 0 5 7 14 15 21 9 7 13 21 10 31 -9 27 97 130 172 166 17 9 33 23 36 33 2 9 20 24 39 33 19 9 41 23 48 32 7 8 18 15 26 15 7 0 19 8 26 18 7 9 27 26 43 36 37 23 56 43 74 78 8 15 21 30 30 33 9 4 32 26 51 50 19 24 41 44 48 44 7 1 10 6 7 11 -7 11 63 110 77 110 4 0 38 30 74 66 56 56 68 64 76 50 5 -10 22 -16 41 -16 37 0 51 8 60 32 3 9 16 18 29 20 15 2 24 11 26 26 2 12 8 20 13 17 5 -4 9 -2 9 4 0 5 -9 13 -20 16 -25 8 -80 -3 -80 -16 0 -5 -4 -9 -10 -9 -20 0 -9 38 15 54 14 9 25 22 25 29 0 7 14 26 30 42 17 16 30 34 30 41 0 6 18 30 40 53 22 22 40 45 40 49 0 5 9 17 20 27 11 10 20 26 20 35 0 10 7 20 15 24 8 3 14 9 13 13 -1 4 6 25 15 47 9 21 17 42 17 47 0 11 38 79 55 99 11 14 31 55 56 118 44 109 51 126 60 144 5 10 9 28 9 41 0 13 7 38 16 55 8 17 18 48 20 69 3 21 9 47 14 58 4 11 13 33 19 49 15 36 15 313 1 351 -6 15 -10 41 -10 60 0 19 -4 37 -10 40 -5 3 -10 33 -10 65 0 32 -4 62 -10 65 -5 3 -10 17 -10 30 0 13 -4 26 -9 29 -5 3 -12 24 -15 46 -3 22 -9 58 -12 80 -3 22 -10 43 -15 46 -5 3 -9 23 -9 45 0 28 -4 39 -15 39 -9 0 -18 8 -21 18 -19 59 -58 119 -165 257 -47 60 -90 105 -108 113 -17 8 -31 19 -31 26 0 7 -13 22 -30 34 -16 12 -33 34 -36 47 -6 26 -29 34 -37 13 -3 -10 -9 -10 -26 0 -11 6 -26 12 -33 12 -7 0 -24 9 -38 20 -14 11 -33 20 -42 20 -10 0 -18 5 -18 10 0 6 -13 10 -29 10 -17 0 -33 5 -36 10 -3 6 -33 10 -65 10 -32 0 -62 5 -65 10 -8 13 -195 13 -215 0z" fill="#c4c4c4" id="c4c4c4-000020"/>
    <path stroke="none" d="M1249 5049 c36 -6 74 -15 83 -20 10 -5 28 -5 44 1 21 9 29 7 39 -7 10 -14 16 -15 27 -5 11 9 18 7 31 -8 13 -16 22 -18 41 -10 13 5 46 6 72 3 27 -3 68 -7 92 -10 23 -3 42 -9 42 -14 0 -5 16 -9 36 -9 21 0 33 -4 29 -10 -4 -6 6 -10 22 -10 16 0 45 -11 65 -25 20 -14 43 -25 50 -25 8 0 20 -9 28 -20 8 -11 22 -20 32 -20 10 0 18 -3 18 -8 0 -4 18 -18 40 -32 22 -14 40 -28 40 -32 0 -5 7 -8 15 -8 8 0 24 -13 36 -29 12 -16 32 -32 46 -36 28 -7 143 -122 169 -170 16 -30 16 -34 1 -49 -8 -9 -19 -25 -22 -36 -3 -11 -11 -20 -16 -20 -5 0 -9 -9 -9 -20 0 -11 -4 -20 -9 -20 -8 0 -14 -27 -27 -125 -4 -34 -1 -45 25 -75 25 -28 31 -44 31 -82 0 -27 4 -48 8 -48 5 0 22 -11 38 -25 29 -25 52 -29 149 -26 46 2 125 38 125 58 0 7 4 13 9 13 5 0 12 23 15 50 3 28 9 73 12 101 4 32 1 61 -6 78 -7 14 -18 37 -24 51 -14 31 -87 143 -98 151 -7 5 116 139 128 139 4 0 23 17 131 118 26 23 50 42 55 42 5 0 29 14 53 30 24 17 48 30 54 30 6 0 11 5 11 10 0 6 6 10 13 10 7 0 23 9 35 20 12 11 27 20 33 20 7 0 22 8 33 18 41 36 197 74 211 52 3 -6 -1 -10 -9 -10 -19 0 -32 -20 -17 -29 14 -9 178 7 202 19 10 6 27 10 39 10 21 0 60 28 43 31 -19 4 -40 6 -67 8 -40 2 -30 7 24 15 58 7 88 -11 70 -44 -10 -18 -9 -24 1 -31 23 -14 93 -10 117 7 22 15 27 14 85 -15 34 -17 66 -31 70 -31 4 0 21 -13 39 -30 17 -16 37 -30 44 -30 8 0 14 -4 14 -10 0 -5 6 -10 14 -10 17 0 69 -50 92 -89 10 -17 22 -31 26 -31 4 0 8 -7 8 -15 0 -9 7 -27 16 -40 12 -18 14 -37 9 -74 -6 -48 -6 -49 33 -80 26 -22 43 -46 52 -74 7 -23 15 -51 19 -61 4 -11 1 -39 -7 -64 -14 -40 -14 -45 1 -54 10 -5 17 -21 17 -38 0 -16 4 -32 10 -35 6 -3 10 -35 10 -70 0 -35 4 -67 10 -70 6 -3 10 -17 10 -30 0 -13 4 -27 10 -30 13 -8 13 -62 0 -67 -6 -2 -11 -29 -12 -61 -1 -32 -5 -60 -10 -63 -4 -3 -8 -20 -8 -39 0 -19 -4 -37 -10 -40 -5 -3 -10 -28 -10 -55 0 -27 -4 -52 -10 -55 -6 -3 -10 -24 -10 -46 0 -21 -4 -47 -9 -57 -26 -50 -35 -80 -32 -109 1 -19 -2 -33 -8 -33 -6 0 -11 -9 -11 -20 0 -11 -4 -28 -9 -38 -5 -9 -20 -39 -32 -67 -13 -27 -26 -52 -29 -55 -7 -7 -29 -46 -68 -120 -34 -64 -80 -132 -94 -138 -5 -2 -8 -8 -8 -14 0 -6 -13 -26 -30 -45 -16 -18 -30 -38 -30 -44 0 -5 -12 -22 -26 -37 -14 -15 -33 -39 -42 -54 -9 -16 -20 -28 -24 -28 -4 0 -21 -21 -39 -46 -34 -50 -87 -104 -100 -104 -5 0 -9 -7 -9 -15 0 -8 -4 -15 -8 -15 -5 0 -14 -11 -21 -24 -7 -12 -35 -39 -61 -59 -41 -31 -50 -34 -60 -22 -19 23 -60 19 -60 -5 0 -13 7 -20 20 -20 11 0 20 -5 20 -11 0 -12 -119 -139 -131 -139 -3 0 -34 -27 -68 -60 -34 -33 -68 -60 -76 -60 -8 0 -20 -8 -27 -18 -7 -10 -25 -26 -40 -36 -15 -10 -33 -30 -39 -46 -7 -15 -25 -36 -40 -46 -16 -10 -33 -28 -40 -40 -16 -30 -316 -274 -337 -274 -4 0 -28 -20 -52 -45 -30 -30 -51 -44 -63 -41 -10 2 -16 -1 -15 -8 2 -7 -25 -39 -59 -73 -35 -33 -63 -64 -63 -69 0 -10 -41 -54 -51 -54 -4 0 -9 12 -11 26 -4 32 -28 50 -54 40 -18 -7 -17 -9 6 -26 25 -19 25 -19 5 -34 -11 -9 -25 -16 -32 -16 -16 0 -36 -37 -27 -51 3 -6 17 -8 29 -5 36 9 40 -11 8 -51 -15 -20 -31 -41 -34 -46 -7 -9 -59 37 -59 52 0 5 -13 23 -30 41 -16 18 -30 35 -30 38 0 3 -12 21 -27 41 -15 20 -28 42 -28 49 0 7 -11 22 -25 32 -14 11 -19 20 -12 20 6 0 12 5 12 11 0 6 -8 8 -19 4 -11 -3 -25 1 -34 10 -9 8 -20 15 -25 15 -5 0 -17 11 -25 23 -24 36 -138 151 -177 178 -19 13 -48 36 -64 51 -16 16 -33 28 -38 28 -5 0 -18 8 -28 18 -28 26 -98 62 -121 62 -10 0 -23 9 -29 19 -5 11 -17 26 -25 35 -14 14 -13 18 12 43 16 15 35 40 42 56 15 28 30 34 46 18 6 -5 57 -11 115 -12 58 -1 113 -7 122 -13 9 -6 21 -7 25 -3 4 5 1 12 -6 16 -10 7 -6 16 18 38 26 25 31 38 31 74 -1 37 -7 50 -40 84 l-39 39 -95 4 c-112 5 -132 1 -172 -33 -21 -18 -41 -25 -71 -25 -23 0 -45 5 -48 10 -3 6 -17 10 -31 10 -13 0 -24 4 -24 10 0 5 -19 14 -42 20 -24 6 -60 20 -81 30 -22 11 -44 20 -50 20 -7 1 -25 11 -41 24 -16 14 -36 21 -47 19 -11 -3 -19 -1 -19 5 0 5 -10 13 -22 18 -16 5 5 9 67 11 49 2 99 -1 110 -6 19 -9 42 -15 110 -28 17 -3 32 -9 35 -13 12 -17 48 -20 60 -5 7 8 19 15 26 15 10 0 14 12 14 38 0 23 12 62 30 97 17 32 30 71 30 86 0 27 -38 111 -52 117 -5 2 -8 9 -8 15 -1 14 -46 67 -57 67 -4 0 -22 12 -38 28 -44 39 -70 54 -248 137 -55 26 -97 56 -97 70 0 16 33 45 51 45 26 0 86 41 98 68 6 13 11 32 11 43 0 25 -86 109 -111 109 -21 0 -101 -41 -112 -57 -4 -7 -23 -20 -42 -29 -19 -9 -35 -20 -35 -25 0 -12 -26 -11 -48 0 -9 5 -42 21 -73 35 -30 14 -83 52 -117 84 -59 54 -62 60 -62 104 0 28 5 48 13 51 6 2 50 2 97 -1 61 -3 93 -10 112 -23 14 -11 35 -19 46 -19 12 0 24 -4 27 -10 3 -5 17 -10 30 -10 13 0 27 -4 30 -10 3 -5 13 -10 21 -10 8 0 24 -9 36 -20 12 -11 30 -20 41 -20 24 0 69 -32 125 -87 37 -37 42 -48 42 -87 0 -49 14 -61 51 -42 20 9 25 20 27 61 2 27 -1 58 -6 69 -5 12 -15 35 -23 51 -22 48 -183 195 -214 195 -3 0 -15 9 -27 20 -12 11 -30 20 -40 20 -9 0 -33 9 -53 20 -20 11 -46 20 -60 20 -13 0 -27 5 -30 10 -3 6 -19 10 -34 10 -16 0 -40 6 -54 13 -44 23 -117 94 -117 114 1 27 24 53 48 53 11 0 24 5 27 10 3 6 19 10 34 10 15 0 32 5 39 12 9 9 15 9 24 0 7 -7 19 -12 27 -12 9 0 27 -9 41 -20 14 -11 37 -20 53 -20 15 0 27 -4 27 -10 0 -5 8 -10 18 -10 9 0 32 -9 50 -20 18 -11 38 -20 45 -20 6 0 23 -9 37 -20 14 -11 35 -20 48 -20 12 0 22 -3 22 -8 0 -7 37 -25 80 -38 42 -12 70 -35 70 -58 0 -16 12 -27 43 -41 24 -12 47 -32 55 -47 7 -16 20 -28 29 -28 24 0 83 -23 83 -32 0 -4 5 -8 10 -8 6 0 10 7 10 15 0 17 16 20 25 5 3 -5 19 -10 35 -10 16 0 48 -7 70 -16 23 -9 44 -14 47 -10 14 13 -26 61 -57 69 -21 5 -30 13 -28 25 2 11 -5 18 -20 20 -15 2 -22 9 -20 20 3 14 18 18 83 20 76 3 81 4 112 37 18 19 33 39 33 44 0 14 -64 74 -96 91 -16 8 -41 22 -56 32 -14 10 -36 18 -47 18 -12 0 -21 5 -21 10 0 6 -9 10 -19 10 -11 0 -23 5 -26 10 -3 6 -20 10 -36 10 -17 0 -49 9 -71 20 -23 11 -48 20 -55 20 -7 0 -21 4 -31 9 -36 18 -90 31 -130 31 -22 0 -44 5 -47 10 -3 6 -17 10 -31 10 -22 0 -24 3 -18 28 4 15 11 33 17 40 5 7 10 43 10 81 0 54 -5 75 -22 99 -11 17 -21 33 -21 36 0 11 -48 56 -60 56 -6 0 -20 9 -32 20 -12 11 -28 20 -35 20 -7 0 -13 5 -13 10 0 6 -9 10 -19 10 -11 0 -23 5 -26 10 -3 6 -21 10 -40 10 -19 0 -37 5 -40 10 -3 6 -14 10 -23 10 -9 0 -33 14 -52 30 -19 16 -39 30 -44 30 -14 0 -46 42 -62 79 -15 36 -20 181 -6 181 5 0 14 16 22 35 8 20 22 43 32 52 10 9 18 21 18 28 0 7 9 20 20 30 11 10 20 25 20 33 0 17 88 102 107 102 7 0 13 4 13 8 0 5 12 15 28 23 15 8 29 16 32 19 15 15 51 29 63 24 8 -3 17 2 20 10 4 9 17 16 29 16 13 0 30 5 38 10 20 13 59 12 139 -1z" fill="#e8e8e8" id="e8e8e8-000009"/>
    <path stroke="none" d="M2765 5050 c3 -5 1 -10 -4 -10 -6 0 -11 5 -11 10 0 6 2 10 4 10 3 0 8 -4 11 -10z" fill="#e8e8e8" id="e8e8e8-000010"/>
    <path stroke="none" d="M2924 5041 c10 -16 -22 -33 -46 -25 -19 6 -21 4 -11 -7 9 -11 8 -18 -2 -32 -7 -10 -17 -16 -23 -15 -12 3 -104 -77 -228 -199 -47 -46 -87 -83 -90 -83 -3 0 -20 -11 -36 -25 l-31 -26 -67 68 c-37 37 -95 93 -130 123 -34 30 -73 65 -86 78 -12 12 -26 22 -30 22 -10 0 -44 31 -44 40 0 13 41 19 59 10 17 -9 72 -24 82 -22 5 1 181 13 199 14 3 0 10 -1 15 -2 6 -1 46 -1 90 0 70 2 88 6 141 35 56 31 67 33 133 31 54 -2 74 0 78 10 6 16 19 18 27 5z" fill="#e8e8e8" id="e8e8e8-000019"/>
    <path stroke="none" d="M2494 4317 c34 -35 44 -53 49 -90 4 -26 9 -58 13 -72 5 -20 1 -26 -20 -35 -33 -12 -56 -3 -56 21 0 10 -4 19 -9 19 -5 0 -12 19 -15 43 -12 75 -18 157 -12 157 4 0 26 -19 50 -43z" fill="#e8e8e8" id="e8e8e8-000022"/>
    <path stroke="none" d="M805 4251 c3 -6 14 -11 23 -11 9 0 33 -14 52 -30 19 -16 39 -30 43 -30 5 0 21 -12 35 -28 15 -15 39 -33 54 -41 20 -10 28 -24 33 -55 3 -22 9 -55 12 -72 3 -24 0 -33 -13 -38 -11 -4 -20 -2 -22 3 -2 6 -12 11 -22 11 -10 0 -22 9 -25 21 -5 16 -12 19 -35 14 -22 -5 -28 -2 -33 15 -3 12 -15 24 -26 27 -21 5 -29 23 -11 23 6 0 10 5 10 10 0 6 -5 10 -11 10 -10 0 -51 16 -106 43 -25 11 -53 -4 -53 -29 0 -8 -7 -14 -15 -14 -8 0 -15 -5 -15 -11 0 -6 7 -9 15 -5 8 3 15 1 15 -4 0 -10 57 -40 77 -40 23 0 9 -25 -17 -28 -17 -3 -21 0 -17 12 7 19 3 20 -25 5 -12 -6 -23 -7 -27 -2 -3 5 -22 16 -41 26 -19 9 -54 35 -78 57 -40 38 -43 44 -40 88 3 43 5 47 33 53 17 4 26 7 22 8 -5 0 -6 5 -3 9 8 13 203 15 211 3z" fill="#e8e8e8" id="e8e8e8-000024"/>
    <path stroke="none" d="M845 3980 c3 -5 -1 -10 -10 -10 -9 0 -13 5 -10 10 3 6 8 10 10 10 2 0 7 -4 10 -10z" fill="#e8e8e8" id="e8e8e8-000031"/>
    <path stroke="none" d="M907 3933 c-4 -3 -10 -3 -14 0 -3 4 0 7 7 7 7 0 10 -3 7 -7z" fill="#e8e8e8" id="e8e8e8-000033"/>
    <path stroke="none" d="M1300 3730 c0 -5 -4 -10 -10 -10 -5 0 -10 5 -10 10 0 6 5 10 10 10 6 0 10 -4 10 -10z" fill="#e8e8e8" id="e8e8e8-000036"/>
    <path stroke="none" d="M1365 3710 c3 -5 24 -10 45 -10 21 0 42 -4 45 -10 3 -5 15 -10 26 -10 10 0 19 -4 19 -10 0 -5 8 -10 18 -10 22 0 72 -22 72 -32 0 -12 -28 -10 -35 2 -3 6 -16 10 -27 10 -27 0 -82 17 -131 41 -22 11 -47 19 -57 19 -11 0 -22 5 -25 10 -3 6 5 10 19 10 14 0 28 -4 31 -10z" fill="#e8e8e8" id="e8e8e8-000037"/>
    <path stroke="none" d="M1430 3571 c0 -11 -48 -24 -61 -16 -5 4 -7 11 -4 16 8 12 65 12 65 0z" fill="#e8e8e8" id="e8e8e8-000039"/>
    <path stroke="none" d="M1537 3539 c16 -7 23 -13 15 -16 -7 -3 -19 1 -27 7 -9 7 -26 10 -41 6 -17 -5 -23 -3 -19 4 8 13 37 13 72 -1z" fill="#e8e8e8" id="e8e8e8-000042"/>
    <path stroke="none" d="M1063 3204 c9 -4 17 -15 17 -25 0 -15 -7 -19 -40 -19 -29 0 -40 4 -40 15 0 21 22 45 35 40 6 -3 18 -8 28 -11z" fill="#e8e8e8" id="e8e8e8-000048"/>
    <path stroke="none" d="M720 3090 c0 -5 -2 -10 -4 -10 -3 0 -8 5 -11 10 -3 6 -1 10 4 10 6 0 11 -4 11 -10z" fill="#e8e8e8" id="e8e8e8-000049"/>
    <path stroke="none" d="M906 3063 c7 -10 14 -28 14 -40 0 -12 5 -25 10 -28 15 -9 12 -35 -3 -35 -8 0 -27 -6 -43 -14 -16 -8 -45 -21 -64 -30 -45 -21 -100 -103 -100 -149 0 -42 23 -90 56 -116 28 -22 24 -44 -5 -33 -31 12 -71 46 -71 60 0 13 -44 71 -97 129 -13 13 -23 29 -23 35 0 6 -8 18 -18 27 -27 24 -33 47 -18 76 13 25 29 25 19 -1 -9 -25 13 -15 28 12 15 29 46 44 90 44 34 0 114 43 123 65 8 22 85 20 102 -2z" fill="#e8e8e8" id="e8e8e8-000051"/>
    <path stroke="none" d="M399 2860 c31 -22 59 -40 62 -40 11 0 154 -145 167 -169 14 -27 9 -39 -10 -24 -7 5 -33 16 -58 23 -25 8 -70 30 -100 50 -30 20 -70 43 -87 51 -18 8 -33 18 -33 24 0 5 -14 24 -30 42 -17 18 -30 43 -30 57 0 41 49 35 119 -14z" fill="#e8e8e8" id="e8e8e8-000052"/>
    <path stroke="none" d="M1005 2810 c3 -5 24 -10 45 -10 21 0 42 -4 45 -10 3 -5 19 -10 35 -10 30 0 74 -21 147 -71 23 -16 45 -29 49 -29 12 0 33 -34 34 -56 0 -11 9 -29 20 -39 19 -17 26 -45 14 -57 -5 -6 -55 8 -86 23 -10 5 -36 9 -57 9 -22 0 -42 4 -45 9 -3 4 -41 11 -83 14 -136 11 -187 20 -219 38 -17 9 -42 23 -55 31 -35 20 -60 50 -54 66 3 7 5 24 5 36 0 17 9 24 48 34 26 8 54 17 62 22 21 12 87 12 95 0z" fill="#e8e8e8" id="e8e8e8-000053"/>
    <path stroke="none" d="M3917 2573 c-3 -3 -11 -2 -17 2 -8 5 -7 11 2 22 12 15 13 14 16 -1 2 -10 1 -20 -1 -23z" fill="#e8e8e8" id="e8e8e8-000055"/>
    <path stroke="none" d="M622 2498 c-9 -9 -15 -9 -24 0 -9 9 -7 12 12 12 19 0 21 -3 12 -12z" fill="#e8e8e8" id="e8e8e8-000056"/>
    <path stroke="none" d="M4647 2313 c-4 -3 -10 -3 -14 0 -3 4 0 7 7 7 7 0 10 -3 7 -7z" fill="#e8e8e8" id="e8e8e8-000062"/>
    <path stroke="none" d="M4650 2225 c0 -8 -7 -15 -15 -15 -8 0 -15 7 -15 15 0 8 7 15 15 15 8 0 15 -7 15 -15z" fill="#e8e8e8" id="e8e8e8-000064"/>
    <path stroke="none" d="M1190 2210 c0 -5 -6 -10 -14 -10 -8 0 -18 5 -21 10 -3 6 3 10 14 10 12 0 21 -4 21 -10z" fill="#e8e8e8" id="e8e8e8-000065"/>
    <path stroke="none" d="M1758 2176 c4 -17 -1 -18 -36 -13 -29 3 -42 1 -46 -9 -7 -18 -17 -18 -41 0 -16 11 -17 15 -4 30 21 24 122 18 127 -8z" fill="#e8e8e8" id="e8e8e8-000068"/>
    <path stroke="none" d="M1323 2147 c32 -14 35 -32 7 -47 -17 -9 -25 -5 -50 22 -46 52 -36 58 43 25z" fill="#e8e8e8" id="e8e8e8-000070"/>
    <path stroke="none" d="M1175 2075 c28 -27 31 -35 12 -35 -16 0 -57 37 -57 50 0 17 20 11 45 -15z" fill="#e8e8e8" id="e8e8e8-000071"/>
    <path stroke="none" d="M4554 1866 c-7 -19 -34 -29 -34 -12 0 16 10 26 26 26 8 0 11 -6 8 -14z" fill="#e8e8e8" id="e8e8e8-000080"/>
    <path stroke="none" d="M4508 1793 c-14 -16 -24 -33 -21 -39 2 -6 -8 -19 -22 -28 -14 -9 -23 -22 -19 -28 4 -5 3 -13 -2 -17 -5 -3 -14 -19 -19 -36 -6 -18 -20 -32 -35 -36 -24 -7 -24 -7 -2 -8 12 -1 22 -7 22 -16 0 -8 7 -15 15 -15 8 0 15 -9 15 -20 0 -31 -42 -36 -90 -9 -32 18 -39 27 -34 43 4 12 14 26 23 33 14 11 14 13 -4 28 -20 16 -20 16 1 10 18 -5 27 3 53 45 17 28 42 56 56 62 14 6 25 19 25 29 0 19 13 27 44 28 18 1 17 -2 -6 -26z" fill="#e8e8e8" id="e8e8e8-000081"/>
    <path stroke="none" d="M2981 1694 c16 -20 -1 -50 -25 -46 -14 3 -15 0 -7 -17 8 -14 8 -22 0 -26 -5 -4 -9 -19 -7 -33 2 -22 -3 -30 -29 -41 -18 -8 -33 -18 -33 -22 0 -5 19 -14 43 -20 50 -15 70 -29 39 -29 -12 0 -22 -5 -22 -10 0 -6 29 -10 73 -9 43 1 84 -4 102 -12 41 -19 88 -51 98 -66 4 -7 24 -13 42 -13 26 0 35 -4 35 -16 0 -12 -5 -14 -17 -9 -10 5 -38 13 -62 20 -25 7 -47 17 -49 23 -6 18 -58 14 -77 -4 -15 -15 -17 -15 -35 1 -14 13 -30 16 -59 12 -29 -3 -41 -1 -45 9 -4 9 -21 14 -50 14 -35 0 -48 5 -56 19 -9 17 -14 18 -40 9 -17 -5 -39 -8 -50 -5 -13 3 -20 0 -20 -9 0 -9 11 -14 30 -14 42 0 38 -16 -6 -25 -24 -4 -39 -2 -44 5 -5 8 -9 7 -13 -5 -5 -12 -11 -14 -26 -5 -13 7 -22 7 -26 0 -8 -13 -55 -13 -55 0 0 6 14 13 31 17 17 3 26 9 19 13 -22 13 10 62 92 141 45 43 90 82 101 85 11 4 32 20 45 36 39 46 80 59 103 32z" fill="#e8e8e8" id="e8e8e8-000109"/>
    <path stroke="none" d="M3938 1608 c-5 -15 -23 -11 -26 6 -2 11 2 14 13 10 9 -4 14 -11 13 -16z" fill="#e8e8e8" id="e8e8e8-000090"/>
    <path stroke="none" d="M4076 1530 c76 1 84 0 84 -16 0 -8 -5 -14 -11 -14 -6 0 -9 -6 -6 -13 5 -14 -21 -42 -65 -70 -16 -10 -28 -24 -28 -31 0 -18 -27 -28 -52 -20 -43 13 -67 52 -74 120 -6 61 -6 65 15 71 13 3 21 13 21 27 1 18 5 16 34 -17 31 -34 38 -38 82 -37z" fill="#e8e8e8" id="e8e8e8-000091"/>
    <path stroke="none" d="M3480 1525 c-7 -8 -23 -15 -36 -15 -25 0 -40 -15 -24 -25 18 -11 10 -25 -14 -25 -30 0 -36 8 -29 42 4 23 12 28 57 36 59 10 64 8 46 -13z" fill="#e8e8e8" id="e8e8e8-000093"/>
    <path stroke="none" d="M4308 1521 c3 -21 1 -23 -20 -16 -12 4 -38 8 -55 9 -18 1 -33 2 -33 4 0 2 15 9 33 17 45 20 71 15 75 -14z" fill="#e8e8e8" id="e8e8e8-000094"/>
    <path stroke="none" d="M3505 1450 c-3 -5 -11 -10 -16 -10 -6 0 -7 5 -4 10 3 6 11 10 16 10 6 0 7 -4 4 -10z" fill="#e8e8e8" id="e8e8e8-000101"/>
    <path stroke="none" d="M3740 1409 c0 -6 -6 -9 -14 -6 -8 3 -22 -1 -33 -8 -21 -16 -113 -20 -113 -5 0 6 17 10 38 11 20 0 45 4 55 8 30 11 67 12 67 0z" fill="#e8e8e8" id="e8e8e8-000104"/>
    <path stroke="none" d="M3815 1380 c0 -19 -35 -26 -46 -8 -15 23 -10 29 19 26 16 -2 27 -9 27 -18z" fill="#e8e8e8" id="e8e8e8-000110"/>
    <path stroke="none" d="M2325 1360 c-20 -22 -35 -26 -35 -10 0 6 7 10 15 10 8 0 15 5 15 10 0 6 5 10 12 10 6 0 3 -9 -7 -20z" fill="#e8e8e8" id="e8e8e8-000112"/>
    <path stroke="none" d="M3416 1351 c-3 -5 -14 -11 -25 -14 -14 -3 -18 -1 -14 9 3 8 14 14 25 14 10 0 17 -4 14 -9z" fill="#e8e8e8" id="e8e8e8-000113"/>
    <path stroke="none" d="M3950 1350 c0 -5 -2 -10 -4 -10 -3 0 -8 5 -11 10 -3 6 -1 10 4 10 6 0 11 -4 11 -10z" fill="#e8e8e8" id="e8e8e8-000115"/>
    <path stroke="none" d="M3002 1325 c16 -14 39 -25 50 -25 14 0 18 -5 14 -16 -7 -19 10 -44 31 -44 11 0 14 7 11 25 -4 20 -1 26 18 31 14 4 31 1 39 -6 10 -8 31 -11 56 -7 59 8 79 -15 79 -91 0 -52 -3 -60 -24 -70 -36 -16 -38 -4 -10 44 30 51 26 79 -8 68 -12 -3 -28 -13 -36 -20 -7 -8 -23 -14 -36 -14 -31 0 -49 -19 -34 -37 17 -21 1 -28 -28 -12 -26 13 -26 14 -5 23 28 12 22 28 -14 38 -15 4 -32 13 -36 19 -5 9 -22 8 -68 -5 -46 -13 -66 -14 -81 -6 -21 11 -40 6 -40 -10 0 -16 100 -41 121 -29 10 5 19 14 19 19 0 6 9 10 21 10 18 0 20 -4 15 -25 -4 -14 -2 -25 3 -25 11 0 1 -94 -10 -98 -17 -7 2 -22 27 -22 13 0 24 -5 24 -12 0 -18 31 -48 50 -48 10 0 23 -7 30 -15 8 -9 22 -12 41 -8 17 3 29 1 29 -5 0 -6 7 -18 16 -27 15 -14 12 -15 -28 -9 l-43 6 25 -21 c14 -11 31 -21 38 -21 6 0 12 -6 12 -14 0 -29 30 -46 80 -46 27 0 51 4 54 9 3 4 17 6 31 3 27 -5 30 -16 19 -96 -7 -51 -29 -62 -52 -26 -7 11 -18 20 -26 20 -7 0 -32 17 -54 38 -66 61 -80 71 -109 78 -36 9 -150 68 -186 96 -17 14 -40 22 -62 21 -19 -1 -35 2 -35 6 0 4 -28 21 -62 37 -35 16 -65 32 -66 37 -2 4 -20 14 -39 22 -28 12 -33 19 -28 35 5 16 2 20 -19 20 -14 0 -26 -4 -26 -10 0 -5 -21 -10 -46 -10 -32 0 -44 4 -42 13 3 6 14 13 26 15 23 4 29 17 11 27 -5 4 -18 0 -28 -9 -22 -20 -35 -20 -51 -1 -10 12 -10 15 3 15 9 0 26 10 37 23 l21 22 18 -21 c19 -24 63 -38 105 -35 26 3 28 0 22 -22 -8 -33 15 -42 47 -16 18 13 41 19 78 19 49 0 52 1 37 16 -14 15 -84 37 -162 51 -16 3 -37 14 -46 23 -10 10 -33 21 -51 25 -42 9 -59 22 -52 41 3 8 0 14 -6 14 -6 0 -11 -7 -11 -15 0 -14 -37 -35 -61 -35 -16 0 -9 24 16 54 23 28 24 29 49 13 14 -9 27 -13 31 -8 9 15 156 36 274 39 54 2 67 -2 93 -23z" fill="#e8e8e8" id="e8e8e8-000087"/>
    <path stroke="none" d="M4261 1274 c9 -11 23 -13 56 -8 23 3 43 2 43 -3 0 -5 40 -8 90 -6 118 3 133 -14 28 -33 -45 -7 -49 -21 -10 -30 91 -20 102 -36 37 -54 -50 -14 -70 -6 -70 28 0 13 -12 18 -55 22 -48 4 -55 8 -58 28 -4 27 -22 30 -22 3 0 -28 -20 -37 -27 -12 -10 38 -54 23 -116 -40 -21 -21 -36 -43 -32 -49 3 -5 -1 -10 -10 -10 -9 0 -13 5 -10 11 4 6 -3 13 -14 16 -15 4 -20 11 -16 24 5 14 0 20 -19 25 -13 3 -33 3 -43 0 -10 -3 -25 -1 -33 4 -11 7 -7 10 18 10 29 0 32 2 26 24 -8 33 21 48 80 40 37 -6 46 -4 46 9 0 21 93 22 111 1z" fill="#e8e8e8" id="e8e8e8-000128"/>
    <path stroke="none" d="M3596 1266 c4 -11 11 -11 45 1 47 16 239 16 282 1 33 -13 30 -34 -4 -30 -13 1 -45 2 -71 2 -25 -1 -49 3 -52 9 -9 13 -46 1 -46 -15 0 -20 39 -31 113 -33 37 -1 35 -21 -3 -21 -16 0 -30 -4 -30 -10 0 -5 13 -10 29 -10 36 0 61 -25 34 -34 -10 -3 -34 -5 -52 -4 -19 1 -37 -4 -39 -10 -2 -7 -10 -12 -18 -12 -18 0 -37 46 -28 72 6 21 -11 48 -32 48 -7 0 -20 -7 -29 -16 -14 -15 -17 -15 -28 -1 -7 8 -24 17 -39 21 -16 4 -28 10 -28 14 0 4 -15 6 -34 4 -34 -4 -53 9 -41 28 9 15 65 12 71 -4z" fill="#e8e8e8" id="e8e8e8-000131"/>
    <path stroke="none" d="M3430 1250 c0 -16 -7 -20 -30 -20 -23 0 -30 4 -30 20 0 16 7 20 30 20 23 0 30 -4 30 -20z" fill="#e8e8e8" id="e8e8e8-000130"/>
    <path stroke="none" d="M2550 1185 c0 -7 -11 -20 -24 -29 -14 -8 -25 -24 -25 -33 1 -24 -9 -82 -14 -91 -7 -10 19 -130 31 -145 10 -14 -4 -77 -17 -77 -5 0 -11 7 -15 15 -3 8 -1 15 4 15 6 0 10 5 10 11 0 6 -9 9 -20 6 -11 -3 -18 -1 -14 4 6 10 -7 12 -30 3 -9 -3 -16 -12 -16 -18 0 -7 -6 -21 -14 -32 -13 -17 -14 -12 -10 51 2 38 9 74 14 79 6 6 10 31 10 56 0 25 5 51 11 57 8 8 8 17 0 31 -9 17 -6 25 19 49 17 15 30 31 30 36 0 4 7 19 16 33 16 23 18 24 35 8 11 -10 19 -23 19 -29z" fill="#e8e8e8" id="e8e8e8-000134"/>
    <path stroke="none" d="M3510 1200 c0 -5 -4 -10 -10 -10 -5 0 -10 5 -10 10 0 6 5 10 10 10 6 0 10 -4 10 -10z" fill="#e8e8e8" id="e8e8e8-000135"/>
    <path stroke="none" d="M4655 1160 c-3 -5 -15 -10 -26 -10 -10 0 -19 5 -19 10 0 6 12 10 26 10 14 0 23 -4 19 -10z" fill="#e8e8e8" id="e8e8e8-000138"/>
    <path stroke="none" d="M3975 1151 c7 -12 -12 -24 -25 -16 -11 7 -4 25 10 25 5 0 11 -4 15 -9z" fill="#e8e8e8" id="e8e8e8-000140"/>
    <path stroke="none" d="M3210 1120 c0 -5 -4 -10 -9 -10 -6 0 -13 5 -16 10 -3 6 1 10 9 10 9 0 16 -4 16 -10z" fill="#e8e8e8" id="e8e8e8-000141"/>
    <path stroke="none" d="M3122 1105 c0 -5 -5 -11 -11 -13 -6 -2 -11 4 -11 13 0 9 5 15 11 13 6 -2 11 -8 11 -13z" fill="#e8e8e8" id="e8e8e8-000143"/>
    <path stroke="none" d="M3375 1110 c3 -5 -1 -10 -9 -10 -9 0 -16 5 -16 10 0 6 4 10 9 10 6 0 13 -4 16 -10z" fill="#e8e8e8" id="e8e8e8-000145"/>
    <path stroke="none" d="M3936 1081 c-3 -5 1 -14 9 -21 8 -7 15 -9 15 -4 0 4 5 3 12 -4 7 -7 21 -12 31 -12 16 0 18 -5 12 -27 -4 -16 -8 -29 -9 -30 -7 -8 -76 34 -84 51 -7 17 -16 20 -51 17 -24 -1 -49 3 -58 11 -14 11 -7 14 48 19 35 3 68 6 72 7 5 1 6 -2 3 -7z" fill="#e8e8e8" id="e8e8e8-000146"/>
    <path stroke="none" d="M2620 1070 c8 -5 12 -12 8 -15 -10 -10 -49 5 -43 16 8 11 16 11 35 -1z" fill="#e8e8e8" id="e8e8e8-000147"/>
    <path stroke="none" d="M3750 1071 c0 -12 -29 -23 -41 -15 -18 10 -9 24 16 24 14 0 25 -4 25 -9z" fill="#e8e8e8" id="e8e8e8-000149"/>
    <path stroke="none" d="M4510 1070 c0 -5 -4 -10 -10 -10 -5 0 -10 5 -10 10 0 6 5 10 10 10 6 0 10 -4 10 -10z" fill="#e8e8e8" id="e8e8e8-000151"/>
    <path stroke="none" d="M4163 1058 c2 -7 17 -13 33 -13 19 0 29 -5 29 -14 0 -11 -13 -15 -43 -16 -49 -1 -53 2 -45 33 6 24 19 29 26 10z" fill="#e8e8e8" id="e8e8e8-000150"/>
    <path stroke="none" d="M2698 1033 c2 -8 -6 -13 -22 -13 -25 0 -33 10 -19 24 10 10 36 3 41 -11z" fill="#e8e8e8" id="e8e8e8-000154"/>
    <path stroke="none" d="M2790 1000 c0 -5 -9 -11 -19 -15 -24 -7 -64 28 -49 43 11 11 68 -13 68 -28z" fill="#e8e8e8" id="e8e8e8-000155"/>
    <path stroke="none" d="M3414 1032 c3 -4 -11 -9 -30 -9 -19 -1 -34 3 -34 8 0 11 57 12 64 1z" fill="#e8e8e8" id="e8e8e8-000156"/>
    <path stroke="none" d="M2580 1020 c0 -5 14 -25 30 -44 19 -21 28 -40 24 -50 -7 -19 -14 -19 -48 -6 -21 8 -26 16 -26 44 0 35 -21 63 -40 51 -5 -3 -10 -1 -10 4 0 6 16 11 35 11 19 0 35 -4 35 -10z" fill="#e8e8e8" id="e8e8e8-000153"/>
    <path stroke="none" d="M3304 993 c4 -9 0 -23 -8 -31 -12 -12 -15 -11 -21 7 -11 35 16 58 29 24z" fill="#e8e8e8" id="e8e8e8-000159"/>
    <path stroke="none" d="M2719 961 c7 -5 10 -14 6 -20 -4 -7 -1 -19 6 -27 15 -19 9 -25 -19 -17 -14 3 -22 13 -22 27 0 12 -5 27 -12 34 -9 9 -8 12 8 12 10 0 25 -4 33 -9z" fill="#e8e8e8" id="e8e8e8-000161"/>
    <path stroke="none" d="M4586 955 c16 -12 17 -16 4 -24 -17 -11 -26 -7 -40 20 -13 24 7 26 36 4z" fill="#e8e8e8" id="e8e8e8-000164"/>
    <path stroke="none" d="M3398 948 c23 -19 12 -29 -28 -25 -42 4 -55 10 -47 24 8 12 60 13 75 1z" fill="#e8e8e8" id="e8e8e8-000162"/>
    <path stroke="none" d="M3724 929 c-3 -5 -10 -7 -15 -3 -5 3 -7 10 -3 15 3 5 10 7 15 3 5 -3 7 -10 3 -15z" fill="#e8e8e8" id="e8e8e8-000167"/>
    <path stroke="none" d="M4185 840 c3 -5 1 -10 -4 -10 -6 0 -11 5 -11 10 0 6 2 10 4 10 3 0 8 -4 11 -10z" fill="#e8e8e8" id="e8e8e8-000177"/>
    <path stroke="none" d="M2730 789 c0 -23 28 -26 36 -4 9 23 40 18 58 -10 18 -28 15 -31 -14 -13 -17 11 -23 9 -46 -15 -32 -35 -25 -57 18 -57 l33 0 -25 -13 c-14 -7 -24 -21 -24 -30 1 -9 -4 -17 -12 -17 -8 0 -14 4 -14 9 0 4 -20 14 -45 21 -25 7 -48 17 -51 21 -7 11 -105 11 -122 0 -7 -4 -24 -6 -38 -3 -19 3 -23 9 -19 23 5 14 1 19 -14 19 -14 0 -21 -6 -21 -19 0 -11 -4 -22 -9 -26 -13 -8 -25 58 -17 91 6 21 11 25 29 20 12 -3 34 -6 50 -6 19 0 31 -7 39 -25 14 -31 57 -34 78 -5 8 11 20 20 27 20 7 0 13 9 13 19 0 21 20 29 63 23 18 -3 27 -10 27 -23z" fill="#e8e8e8" id="e8e8e8-000171"/>
    <path stroke="none" d="M3024 804 c22 -9 20 -24 -3 -24 -21 0 -34 13 -24 24 8 7 8 7 27 0z" fill="#e8e8e8" id="e8e8e8-000179"/>
    <path stroke="none" d="M3480 685 c0 -8 -4 -15 -10 -15 -5 0 -10 7 -10 15 0 8 5 15 10 15 6 0 10 -7 10 -15z" fill="#e8e8e8" id="e8e8e8-000185"/>
    <path stroke="none" d="M4187 673 c-4 -3 -10 -3 -14 0 -3 4 0 7 7 7 7 0 10 -3 7 -7z" fill="#e8e8e8" id="e8e8e8-000187"/>
    <path stroke="none" d="M3552 640 c-1 -6 7 -14 18 -17 26 -7 26 -33 1 -33 -22 0 -26 4 -35 43 -5 22 -4 28 6 24 7 -2 12 -10 10 -17z" fill="#e8e8e8" id="e8e8e8-000190"/>
    <path stroke="none" d="M2867 620 c3 -11 14 -20 24 -20 10 0 21 -4 24 -10 3 -5 -3 -10 -14 -10 -12 0 -21 -5 -21 -11 0 -8 -20 -10 -67 -6 -50 4 -73 2 -87 -8 -10 -8 -23 -12 -29 -8 -5 3 -26 7 -45 9 -20 1 -39 10 -44 18 -5 9 -22 16 -38 16 -16 0 -32 4 -35 10 -10 16 45 23 73 10 40 -19 158 -21 173 -4 6 8 8 15 3 15 -7 1 38 13 69 18 5 0 11 -8 14 -19z" fill="#e8e8e8" id="e8e8e8-000196"/>
    <path stroke="none" d="M3190 611 c0 -5 -7 -12 -16 -15 -8 -3 -12 -10 -9 -16 4 -7 12 -7 25 0 24 13 73 13 86 0 6 -6 36 -11 67 -11 31 -1 57 -5 57 -10 0 -17 -53 -22 -144 -13 -50 5 -119 9 -153 9 -85 0 -92 20 -12 36 33 6 62 16 65 20 7 12 34 12 34 0z" fill="#e8e8e8" id="e8e8e8-000194"/>
    <path stroke="none" d="M3010 600 c0 -5 -4 -10 -9 -10 -6 0 -13 5 -16 10 -3 6 1 10 9 10 9 0 16 -4 16 -10z" fill="#e8e8e8" id="e8e8e8-000191"/>
    <path stroke="none" d="M2947 573 c-4 -3 -10 -3 -14 0 -3 4 0 7 7 7 7 0 10 -3 7 -7z" fill="#e8e8e8" id="e8e8e8-000195"/>
    <path stroke="none" d="M2635 510 c3 -5 -1 -10 -9 -10 -9 0 -16 5 -16 10 0 6 4 10 9 10 6 0 13 -4 16 -10z" fill="#e8e8e8" id="e8e8e8-000198"/>
    <path stroke="none" d="M2840 479 c0 -8 18 -10 58 -5 32 4 66 4 75 0 20 -7 23 -50 5 -57 -7 -3 -3 -6 9 -6 12 -1 26 -7 30 -15 10 -19 111 -66 140 -66 12 0 25 -5 29 -11 4 -8 -13 -9 -60 -4 -56 6 -66 5 -66 -8 0 -25 -15 -28 -51 -9 l-34 17 45 5 44 5 -29 20 c-20 12 -52 20 -95 23 -36 2 -72 6 -80 9 -8 3 -36 5 -62 4 -29 -2 -48 2 -48 8 0 6 16 11 35 11 19 0 35 4 35 8 0 12 -43 34 -59 30 -8 -2 -16 3 -18 10 -3 8 5 12 25 12 16 0 35 7 42 15 15 18 30 20 30 4z" fill="#e8e8e8" id="e8e8e8-000202"/>
    <path stroke="none" d="M3221 435 c0 -5 -12 -11 -26 -13 -18 -2 -25 1 -25 13 0 12 7 15 25 13 14 -2 26 -7 26 -13z" fill="#e8e8e8" id="e8e8e8-000204"/>
    <path stroke="none" d="M3529 436 c9 -10 8 -15 -4 -20 -17 -6 -45 2 -45 13 0 23 32 28 49 7z" fill="#e8e8e8" id="e8e8e8-000208"/>
    <path stroke="none" d="M3456 432 c6 -4 16 -17 23 -29 17 -33 56 -30 75 5 8 15 15 22 16 16 0 -6 12 -17 28 -24 25 -11 25 -13 7 -20 -19 -7 -19 -7 3 -19 12 -6 22 -18 22 -26 0 -10 10 -15 29 -15 46 0 46 -17 0 -22 -31 -3 -43 0 -50 14 -12 22 -55 34 -72 19 -32 -26 -165 56 -151 94 6 16 51 20 70 7z" fill="#e8e8e8" id="e8e8e8-000207"/>
    <path stroke="none" d="M3195 390 c-3 -5 -13 -10 -21 -10 -8 0 -14 5 -14 10 0 6 9 10 21 10 11 0 17 -4 14 -10z" fill="#e8e8e8" id="e8e8e8-000209"/>
    <path stroke="none" d="M4010 320 c0 -5 -4 -10 -10 -10 -5 0 -10 5 -10 10 0 6 5 10 10 10 6 0 10 -4 10 -10z" fill="#e8e8e8" id="e8e8e8-000218"/>
    <path stroke="none" d="M4050 310 c0 -11 -4 -20 -9 -20 -5 0 -7 9 -4 20 3 11 7 20 9 20 2 0 4 -9 4 -20z" fill="#e8e8e8" id="e8e8e8-000222"/>
    <path stroke="none" d="M3325 275 l30 -8 -33 -9 c-28 -8 -37 -5 -57 14 -28 27 -23 43 8 24 12 -7 36 -17 52 -21z" fill="#e8e8e8" id="e8e8e8-000227"/>
    <path stroke="none" d="M2655 290 c3 -5 1 -10 -4 -10 -6 0 -11 5 -11 10 0 6 2 10 4 10 3 0 8 -4 11 -10z" fill="#e8e8e8" id="e8e8e8-000226"/>
    <path stroke="none" d="M2711 210 c5 0 9 -7 9 -15 0 -20 -121 -17 -128 4 -4 11 3 13 31 8 21 -3 39 -1 43 4 3 6 13 8 21 5 8 -3 19 -6 24 -6z" fill="#e8e8e8" id="e8e8e8-000233"/>
    <path stroke="none" d="M2810 192 c0 -10 -57 -32 -64 -24 -7 6 32 30 52 31 6 1 12 -3 12 -7z" fill="#e8e8e8" id="e8e8e8-000237"/>
    <path stroke="none" d="M2884 174 c24 -9 19 -24 -8 -24 -26 0 -40 12 -29 24 8 8 17 8 37 0z" fill="#e8e8e8" id="e8e8e8-000238"/>
    <path stroke="none" d="M2555 130 c-3 -5 -13 -10 -21 -10 -8 0 -12 5 -9 10 3 6 13 10 21 10 8 0 12 -4 9 -10z" fill="#e8e8e8" id="e8e8e8-000242"/>
    <path stroke="none" d="M3974 84 c18 -7 12 -24 -8 -24 -7 0 -21 7 -32 15 -19 14 -19 14 3 15 12 0 28 -3 37 -6z" fill="#e8e8e8" id="e8e8e8-000244"/>
    <path stroke="none" d="M4095 70 c4 -6 -10 -10 -34 -10 -23 0 -41 5 -41 10 0 6 15 10 34 10 19 0 38 -4 41 -10z" fill="#e8e8e8" id="e8e8e8-000248"/>
    <path stroke="none" d="M1853 4653 c9 -2 23 -2 30 0 6 3 -1 5 -18 5 -16 0 -22 -2 -12 -5z" fill="#c4c4c4" id="c4c4c4-000046"/>
    <path stroke="none" d="M1990 4651 c0 -9 24 -21 42 -21 6 0 6 6 -2 15 -14 16 -40 20 -40 6z" fill="#c4c4c4" id="c4c4c4-000047"/>
    <path stroke="none" d="M755 4592 c-13 -34 51 -44 80 -12 10 11 16 20 14 21 -66 8 -88 6 -94 -9z" fill="#c4c4c4" id="c4c4c4-000050"/>
    <path stroke="none" d="M892 4528 c-18 -18 -15 -35 10 -58 13 -12 35 -20 55 -20 19 0 32 -4 28 -9 -6 -11 74 -90 91 -91 6 0 25 -7 42 -16 26 -12 52 -14 135 -9 85 5 106 4 116 -9 10 -12 9 -14 -8 -9 -12 3 -27 1 -34 -5 -6 -6 -29 -13 -50 -17 -20 -4 -39 -11 -42 -15 -6 -10 51 -31 68 -24 7 2 37 -3 67 -11 30 -9 82 -22 115 -30 33 -8 109 -34 170 -59 81 -33 113 -42 123 -34 9 8 19 8 36 0 13 -6 34 -8 45 -5 12 3 41 0 66 -7 83 -23 129 13 82 64 -26 28 -49 32 -94 16 -28 -10 -28 -9 -5 6 48 35 5 74 -61 56 -39 -11 -47 -8 -47 20 0 20 -11 23 -27 7 -8 -8 -16 -5 -29 9 -19 20 -154 62 -198 62 -13 0 -41 9 -63 19 -21 11 -65 27 -98 37 -33 9 -64 21 -69 26 -6 4 -34 8 -62 8 -36 0 -58 5 -69 17 -12 11 -19 13 -24 5 -4 -7 -21 -9 -46 -5 -38 6 -38 6 -17 24 30 24 27 39 -7 39 -16 0 -34 7 -41 15 -16 19 -140 21 -158 3z" fill="#c4c4c4" id="c4c4c4-000051"/>
    <path stroke="none" d="M2000 4136 c0 -11 -19 -15 -25 -6 -3 5 1 10 9 10 9 0 16 -2 16 -4z" fill="#e8e8e8" id="e8e8e8-000026"/>
    <path stroke="none" d="M3360 4410 c0 -5 5 -10 10 -10 6 0 10 5 10 10 0 6 -4 10 -10 10 -5 0 -10 -4 -10 -10z" fill="#c4c4c4" id="c4c4c4-000053"/>
    <path stroke="none" d="M2075 4040 c-3 -5 -1 -10 4 -10 6 0 11 5 11 10 0 6 -2 10 -4 10 -3 0 -8 -4 -11 -10z" fill="#c4c4c4" id="c4c4c4-000066"/>
    <path stroke="none" d="M2180 4030 c0 -7 3 -10 7 -7 3 4 3 10 0 14 -4 3 -7 0 -7 -7z" fill="#c4c4c4" id="c4c4c4-000068"/>
    <path stroke="none" d="M2500 3860 c0 -5 4 -10 9 -10 6 0 13 5 16 10 3 6 -1 10 -9 10 -9 0 -16 -4 -16 -10z" fill="#c4c4c4" id="c4c4c4-000070"/>
    <path stroke="none" d="M2153 3653 c4 -3 10 -3 14 0 3 4 0 7 -7 7 -7 0 -10 -3 -7 -7z" fill="#c4c4c4" id="c4c4c4-000071"/>
    <path stroke="none" d="M1720 3219 c0 -14 5 -19 17 -17 26 5 29 38 4 38 -15 0 -21 -6 -21 -21z" fill="#c4c4c4" id="c4c4c4-000078"/>
    <path stroke="none" d="M1810 3220 c0 -5 5 -10 10 -10 6 0 10 5 10 10 0 6 -4 10 -10 10 -5 0 -10 -4 -10 -10z" fill="#c4c4c4" id="c4c4c4-000079"/>
    <path stroke="none" d="M1096 3051 c15 -15 66 -17 71 -3 3 8 -8 12 -38 12 -27 0 -39 -4 -33 -9z" fill="#c4c4c4" id="c4c4c4-000081"/>
    <path stroke="none" d="M1876 3025 c9 -13 25 -27 36 -31 19 -6 19 -6 1 -26 -18 -20 -17 -20 32 -12 62 9 118 32 110 44 -14 22 -79 41 -121 34 -26 -4 -44 -2 -48 5 -4 6 -12 11 -17 11 -5 0 -2 -11 7 -25z" fill="#c4c4c4" id="c4c4c4-000082"/>
    <path stroke="none" d="M3495 2910 c-4 -7 -3 -16 3 -22 14 -14 47 -6 47 12 0 18 -40 26 -50 10z" fill="#c4c4c4" id="c4c4c4-000086"/>
    <path stroke="none" d="M3480 2828 c0 -6 -9 -31 -21 -55 -17 -35 -19 -46 -9 -58 15 -18 30 -10 30 15 0 10 8 23 17 29 15 8 15 11 3 25 -10 13 -10 20 -2 28 16 16 15 28 -3 28 -8 0 -15 -5 -15 -12z" fill="#c4c4c4" id="c4c4c4-000087"/>
    <path stroke="none" d="M2113 2753 c4 -3 10 -3 14 0 3 4 0 7 -7 7 -7 0 -10 -3 -7 -7z" fill="#c4c4c4" id="c4c4c4-000093"/>
    <path stroke="none" d="M1700 2655 c0 -8 5 -15 10 -15 6 0 10 7 10 15 0 8 -4 15 -10 15 -5 0 -10 -7 -10 -15z" fill="#c4c4c4" id="c4c4c4-000102"/>
    <path stroke="none" d="M3442 2643 c-23 -4 -23 -5 -6 -24 16 -18 16 -20 -1 -39 -17 -19 -17 -21 0 -40 21 -24 48 -26 65 -6 6 8 21 16 33 18 19 3 17 6 -16 27 -31 19 -38 28 -34 47 4 24 2 25 -41 17z" fill="#c4c4c4" id="c4c4c4-000110"/>
    <path stroke="none" d="M2285 2630 c3 -5 10 -10 16 -10 5 0 9 5 9 10 0 6 -7 10 -16 10 -8 0 -12 -4 -9 -10z" fill="#c4c4c4" id="c4c4c4-000107"/>
    <path stroke="none" d="M1625 2589 c-10 -15 1 -23 20 -15 9 3 13 10 10 16 -8 13 -22 13 -30 -1z" fill="#c4c4c4" id="c4c4c4-000111"/>
    <path stroke="none" d="M1534 2569 c-3 -6 -2 -15 3 -20 13 -13 43 -1 43 17 0 16 -36 19 -46 3z" fill="#c4c4c4" id="c4c4c4-000113"/>
    <path stroke="none" d="M2530 2500 c0 -5 5 -10 11 -10 5 0 7 5 4 10 -3 6 -8 10 -11 10 -2 0 -4 -4 -4 -10z" fill="#c4c4c4" id="c4c4c4-000121"/>
    <path stroke="none" d="M2973 2458 c-13 -6 -23 -15 -23 -20 0 -12 11 -9 50 12 26 14 30 19 15 19 -11 0 -30 -5 -42 -11z" fill="#c4c4c4" id="c4c4c4-000124"/>
    <path stroke="none" d="M3480 2455 c0 -8 5 -15 10 -15 6 0 10 7 10 15 0 8 -4 15 -10 15 -5 0 -10 -7 -10 -15z" fill="#c4c4c4" id="c4c4c4-000125"/>
    <path stroke="none" d="M2846 2433 c-11 -11 -6 -23 9 -23 8 0 15 4 15 9 0 13 -16 22 -24 14z" fill="#c4c4c4" id="c4c4c4-000126"/>
    <path stroke="none" d="M3000 2281 c0 -6 -11 -11 -25 -11 -18 0 -23 -4 -19 -15 6 -15 55 -21 68 -8 4 4 15 8 24 8 32 0 18 30 -15 33 -19 2 -33 -1 -33 -7z" fill="#c4c4c4" id="c4c4c4-000138"/>
    <path stroke="none" d="M2853 2253 c-22 -8 -14 -23 11 -23 30 0 42 15 20 24 -9 3 -16 6 -17 5 -1 0 -8 -3 -14 -6z" fill="#c4c4c4" id="c4c4c4-000144"/>
    <path stroke="none" d="M2535 2170 c4 -6 11 -8 16 -5 14 9 11 15 -7 15 -8 0 -12 -5 -9 -10z" fill="#c4c4c4" id="c4c4c4-000152"/>
    <path stroke="none" d="M2915 2060 c3 -5 13 -10 21 -10 8 0 14 5 14 10 0 6 -9 10 -21 10 -11 0 -17 -4 -14 -10z" fill="#c4c4c4" id="c4c4c4-000159"/>
    <path stroke="none" d="M3013 2063 c4 -3 10 -3 14 0 3 4 0 7 -7 7 -7 0 -10 -3 -7 -7z" fill="#c4c4c4" id="c4c4c4-000165"/>
    <path stroke="none" d="M2928 1988 c9 -9 15 -9 24 0 9 9 7 12 -12 12 -19 0 -21 -3 -12 -12z" fill="#c4c4c4" id="c4c4c4-000172"/>
    <path stroke="none" d="M2820 1875 c0 -8 9 -15 20 -15 24 0 27 15 4 24 -22 9 -24 8 -24 -9z" fill="#c4c4c4" id="c4c4c4-000186"/>
    <path stroke="none" d="M2780 1842 c-27 -4 -73 -36 -64 -45 4 -4 67 23 93 40 9 6 -5 9 -29 5z" fill="#c4c4c4" id="c4c4c4-000187"/>
    <path stroke="none" d="M2140 1710 c0 -5 7 -10 15 -10 8 0 15 5 15 10 0 6 -7 10 -15 10 -8 0 -15 -4 -15 -10z" fill="#c4c4c4" id="c4c4c4-000201"/>
    <path stroke="none" d="M2495 1710 c3 -5 10 -10 16 -10 5 0 9 5 9 10 0 6 -7 10 -16 10 -8 0 -12 -4 -9 -10z" fill="#c4c4c4" id="c4c4c4-000202"/>
    <path stroke="none" d="M2425 1559 c-4 -6 -5 -13 -2 -16 7 -7 27 6 27 18 0 12 -17 12 -25 -2z" fill="#c4c4c4" id="c4c4c4-000219"/>
    <path stroke="none" d="M2030 1550 c0 -11 40 -34 47 -26 7 7 -22 36 -36 36 -6 0 -11 -4 -11 -10z" fill="#c4c4c4" id="c4c4c4-000222"/>
    <path stroke="none" d="M2205 1541 c-3 -5 -1 -12 5 -16 14 -9 52 4 45 16 -8 12 -42 12 -50 0z" fill="#c4c4c4" id="c4c4c4-000223"/>
    <path stroke="none" d="M2092 1498 c5 -15 28 -18 29 -3 0 6 -7 12 -17 13 -10 3 -15 -1 -12 -10z" fill="#c4c4c4" id="c4c4c4-000225"/>
    <path stroke="none" d="M2144 1463 c-3 -10 -9 -25 -14 -34 -9 -17 -4 -29 12 -29 4 0 8 12 8 26 0 17 6 28 20 31 11 3 17 9 14 14 -9 15 -34 10 -40 -8z" fill="#c4c4c4" id="c4c4c4-000230"/>
    <path stroke="none" d="M2180 1356 c0 -9 8 -16 18 -16 16 -1 16 -1 0 -14 -24 -17 -23 -26 3 -26 17 0 20 5 17 32 -3 34 -38 55 -38 24z" fill="#c4c4c4" id="c4c4c4-000253"/>
    <path stroke="none" d="M630 4212 c0 -12 23 -32 37 -32 22 0 15 16 -12 28 -14 6 -25 8 -25 4z" fill="#c4c4c4" id="c4c4c4-000056"/>
    <path stroke="none" d="M693 4183 c-18 -7 -16 -43 2 -43 18 0 31 28 19 39 -5 5 -15 6 -21 4z" fill="#c4c4c4" id="c4c4c4-000058"/>
    <path stroke="none" d="M625 4150 c3 -5 8 -10 11 -10 2 0 4 5 4 10 0 6 -5 10 -11 10 -5 0 -7 -4 -4 -10z" fill="#c4c4c4" id="c4c4c4-000060"/>
    <path stroke="none" d="M610 4090 c0 -5 14 -10 30 -10 17 0 30 5 30 10 0 6 -13 10 -30 10 -16 0 -30 -4 -30 -10z" fill="#e8e8e8" id="e8e8e8-000027"/>
    <path stroke="none" d="M594 2936 c-13 -10 -16 -18 -9 -25 16 -16 55 -1 55 20 0 23 -19 24 -46 5z" fill="#c4c4c4" id="c4c4c4-000084"/>
    <path stroke="none" d="M940 2780 c0 -5 5 -10 10 -10 6 0 10 5 10 10 0 6 -4 10 -10 10 -5 0 -10 -4 -10 -10z" fill="#c4c4c4" id="c4c4c4-000089"/>
    <path stroke="none" d="M2908 1613 c7 -3 16 -2 19 1 4 3 -2 6 -13 5 -11 0 -14 -3 -6 -6z" fill="#c4c4c4" id="c4c4c4-000215"/>
    <path stroke="none" d="M2760 1510 c0 -5 9 -10 20 -10 11 0 20 5 20 10 0 6 -9 10 -20 10 -11 0 -20 -4 -20 -10z" fill="#c4c4c4" id="c4c4c4-000226"/>
    <path stroke="none" d="M2737 1493 c-4 -3 -2 -12 4 -20 13 -15 59 -18 59 -3 0 6 -9 10 -20 10 -11 0 -20 5 -20 10 0 11 -13 13 -23 3z" fill="#c4c4c4" id="c4c4c4-000227"/>
    <path stroke="none" d="M2660 1415 c0 -8 5 -15 10 -15 6 0 10 7 10 15 0 8 -4 15 -10 15 -5 0 -10 -7 -10 -15z" fill="#c4c4c4" id="c4c4c4-000234"/>
    <path stroke="none" d="M3080 974 c0 -8 5 -12 10 -9 6 3 10 10 10 16 0 5 -4 9 -10 9 -5 0 -10 -7 -10 -16z" fill="#c4c4c4" id="c4c4c4-000294"/>
    <path stroke="none" d="M3363 773 c4 -3 10 -3 14 0 3 4 0 7 -7 7 -7 0 -10 -3 -7 -7z" fill="#e8e8e8" id="e8e8e8-000174"/>
    <path stroke="none" d="M4344 5179 c-8 -14 11 -33 25 -25 6 4 11 11 11 16 0 13 -29 20 -36 9z" fill="#c4c4c4" id="c4c4c4-000024"/>
    <path stroke="none" d="M813 5173 c-7 -3 -13 -15 -13 -28 0 -21 2 -22 25 -12 14 7 25 15 25 18 0 12 -25 26 -37 22z" fill="#c4c4c4" id="c4c4c4-000022"/>
    <path stroke="none" d="M626 5132 c16 -14 77 -30 134 -36 l55 -6 -65 25 c-61 23 -146 35 -124 17z" fill="#c4c4c4" id="c4c4c4-000027"/>
    <path stroke="none" d="M4015 5070 c-3 -5 3 -10 14 -10 12 0 21 5 21 10 0 6 -6 10 -14 10 -8 0 -18 -4 -21 -10z" fill="#c4c4c4" id="c4c4c4-000032"/>
    <path stroke="none" d="M4083 5033 c4 -3 10 -3 14 0 3 4 0 7 -7 7 -7 0 -10 -3 -7 -7z" fill="#c4c4c4" id="c4c4c4-000034"/>
    <path stroke="none" d="M40 4036 c0 -52 3 -59 80 -163 44 -59 87 -115 95 -124 8 -9 15 -23 15 -33 0 -9 5 -14 10 -11 6 3 10 -2 10 -12 0 -37 45 -122 68 -128 23 -6 29 -24 12 -41 -21 -21 30 -104 63 -104 3 0 7 13 10 29 3 16 19 48 35 72 48 73 48 119 0 119 -11 0 -37 15 -58 33 -41 35 -200 230 -200 245 0 5 -7 15 -15 22 -9 7 -14 15 -11 17 11 11 -87 133 -106 133 -5 0 -8 -24 -8 -54z" fill="#c4c4c4" id="c4c4c4-000062"/>
    <path stroke="none" d="M154 2764 c3 -9 6 -20 6 -25 0 -5 9 -4 20 3 19 12 19 14 3 26 -23 17 -36 15 -29 -4z" fill="#c4c4c4" id="c4c4c4-000090"/>
    <path stroke="none" d="M4180 2710 c0 -5 5 -10 10 -10 6 0 10 5 10 10 0 6 -4 10 -10 10 -5 0 -10 -4 -10 -10z" fill="#c4c4c4" id="c4c4c4-000099"/>
    <path stroke="none" d="M158 2678 c-9 -18 -20 -48 -23 -65 -6 -30 -4 -33 18 -33 19 0 26 8 36 38 24 72 0 119 -31 60z" fill="#c4c4c4" id="c4c4c4-000097"/>
    <path stroke="none" d="M4052 2663 c4 -22 43 -25 43 -3 0 8 -11 16 -23 18 -19 3 -23 0 -20 -15z" fill="#c4c4c4" id="c4c4c4-000104"/>
    <path stroke="none" d="M120 2521 c0 -26 -28 -91 -40 -91 -18 0 -11 -19 22 -56 l32 -36 23 26 c13 16 32 26 48 26 15 0 35 5 46 11 20 10 20 11 -3 29 -13 10 -35 20 -48 22 -20 2 -27 11 -34 46 -7 30 -15 42 -28 42 -11 0 -18 -7 -18 -19z" fill="#c4c4c4" id="c4c4c4-000118"/>
    <path stroke="none" d="M4124 2366 c-3 -8 -19 -14 -38 -13 -19 0 -41 -6 -50 -16 -15 -15 -55 -23 -93 -18 -6 1 -14 -3 -18 -9 -10 -17 157 -13 181 5 10 8 32 15 47 15 50 0 45 49 -6 50 -10 0 -20 -6 -23 -14z" fill="#c4c4c4" id="c4c4c4-000129"/>
    <path stroke="none" d="M197 2353 c-14 -13 -6 -23 18 -23 16 0 25 6 25 15 0 15 -31 21 -43 8z" fill="#c4c4c4" id="c4c4c4-000131"/>
    <path stroke="none" d="M3820 2304 c0 -11 9 -14 37 -12 52 4 56 28 4 28 -30 0 -41 -4 -41 -16z" fill="#c4c4c4" id="c4c4c4-000137"/>
    <path stroke="none" d="M3680 2296 c0 -20 13 -27 29 -16 11 6 9 10 -8 19 -17 10 -21 9 -21 -3z" fill="#c4c4c4" id="c4c4c4-000140"/>
    <path stroke="none" d="M3780 2301 c0 -6 5 -13 10 -16 6 -3 10 1 10 9 0 9 -4 16 -10 16 -5 0 -10 -4 -10 -9z" fill="#c4c4c4" id="c4c4c4-000136"/>
    <path stroke="none" d="M4470 2283 c0 -5 14 -21 31 -38 24 -23 32 -27 39 -16 6 10 -2 21 -26 38 -37 25 -44 27 -44 16z" fill="#c4c4c4" id="c4c4c4-000146"/>
    <path stroke="none" d="M3585 2220 c-8 -13 20 -24 36 -15 8 6 7 10 -2 16 -18 11 -26 11 -34 -1z" fill="#c4c4c4" id="c4c4c4-000147"/>
    <path stroke="none" d="M980 2180 c0 -5 5 -10 10 -10 6 0 10 5 10 10 0 6 -4 10 -10 10 -5 0 -10 -4 -10 -10z" fill="#c4c4c4" id="c4c4c4-000151"/>
    <path stroke="none" d="M3560 2160 c0 -5 5 -10 10 -10 6 0 10 5 10 10 0 6 -4 10 -10 10 -5 0 -10 -4 -10 -10z" fill="#c4c4c4" id="c4c4c4-000153"/>
    <path stroke="none" d="M3750 2080 c-12 -7 -11 -10 5 -15 11 -4 28 -11 37 -16 10 -5 22 -9 27 -9 12 0 41 29 41 41 0 12 -91 12 -110 -1z" fill="#c4c4c4" id="c4c4c4-000157"/>
    <path stroke="none" d="M3533 2073 c-50 -3 -63 -7 -63 -20 0 -38 81 -51 120 -18 8 7 34 16 58 20 23 4 42 11 42 16 0 9 -27 9 -157 2z" fill="#c4c4c4" id="c4c4c4-000161"/>
    <path stroke="none" d="M4210 2055 c0 -13 47 -49 60 -46 24 5 24 10 0 31 -21 18 -60 28 -60 15z" fill="#c4c4c4" id="c4c4c4-000162"/>
    <path stroke="none" d="M3896 2042 c-4 -6 -13 -9 -21 -5 -20 7 -19 -6 1 -28 14 -15 28 -17 103 -13 47 3 97 7 110 10 22 5 23 7 9 21 -20 19 -191 32 -202 15z" fill="#c4c4c4" id="c4c4c4-000166"/>
    <path stroke="none" d="M3385 2030 c3 -5 8 -10 11 -10 2 0 4 5 4 10 0 6 -5 10 -11 10 -5 0 -7 -4 -4 -10z" fill="#c4c4c4" id="c4c4c4-000171"/>
    <path stroke="none" d="M3765 2031 c-7 -12 12 -24 25 -16 11 7 4 25 -10 25 -5 0 -11 -4 -15 -9z" fill="#c4c4c4" id="c4c4c4-000169"/>
    <path stroke="none" d="M3700 1974 c0 -9 5 -14 12 -12 18 6 21 28 4 28 -9 0 -16 -7 -16 -16z" fill="#c4c4c4" id="c4c4c4-000173"/>
    <path stroke="none" d="M3507 1966 c-8 -20 -71 -46 -113 -46 -19 0 -34 -4 -34 -9 0 -5 10 -9 23 -8 12 0 62 -3 110 -6 73 -6 89 -4 93 8 4 10 21 15 54 15 43 0 60 10 60 35 0 2 -33 5 -72 8 -40 2 -83 7 -94 11 -15 5 -23 3 -27 -8z" fill="#c4c4c4" id="c4c4c4-000176"/>
    <path stroke="none" d="M4120 1950 c0 -5 7 -10 16 -10 8 0 12 5 9 10 -3 6 -10 10 -16 10 -5 0 -9 -4 -9 -10z" fill="#e8e8e8" id="e8e8e8-000076"/>
    <path stroke="none" d="M1185 1900 c-7 -11 38 -21 48 -11 5 5 -3 11 -18 13 -14 3 -28 2 -30 -2z" fill="#c4c4c4" id="c4c4c4-000183"/>
    <path stroke="none" d="M3910 1830 c0 -5 7 -10 15 -10 8 0 15 5 15 10 0 6 -7 10 -15 10 -8 0 -15 -4 -15 -10z" fill="#c4c4c4" id="c4c4c4-000189"/>
    <path stroke="none" d="M1343 1813 c4 -3 10 -3 14 0 3 4 0 7 -7 7 -7 0 -10 -3 -7 -7z" fill="#c4c4c4" id="c4c4c4-000190"/>
    <path stroke="none" d="M4040 1760 c0 -5 5 -10 10 -10 6 0 10 5 10 10 0 6 -4 10 -10 10 -5 0 -10 -4 -10 -10z" fill="#c4c4c4" id="c4c4c4-000199"/>
    <path stroke="none" d="M60 1656 c0 -43 27 -98 47 -95 22 3 54 -10 68 -27 13 -16 114 -21 140 -7 11 5 25 9 30 7 6 -2 26 9 45 25 39 32 35 45 -16 54 -26 5 -33 2 -37 -13 -3 -11 -13 -20 -22 -20 -13 0 -16 6 -12 20 8 32 -33 54 -87 46 -29 -5 -47 -3 -51 4 -4 6 -22 10 -40 9 -18 -2 -40 3 -49 10 -14 12 -16 10 -16 -13z" fill="#c4c4c4" id="c4c4c4-000204"/>
    <path stroke="none" d="M3160 1571 c0 -12 29 -23 41 -15 5 3 7 10 4 15 -8 12 -45 12 -45 0z" fill="#c4c4c4" id="c4c4c4-000220"/>
    <path stroke="none" d="M1473 1453 c4 -3 10 -3 14 0 3 4 0 7 -7 7 -7 0 -10 -3 -7 -7z" fill="#c4c4c4" id="c4c4c4-000231"/>
    <path stroke="none" d="M108 1417 c-53 -9 -58 -13 -58 -35 0 -14 3 -22 7 -19 3 4 14 0 24 -9 19 -18 54 -15 54 3 0 27 45 45 91 38 36 -5 44 -3 44 9 0 12 -10 16 -39 16 -22 0 -45 2 -53 3 -7 2 -39 -1 -70 -6z" fill="#c4c4c4" id="c4c4c4-000233"/>
    <path stroke="none" d="M730 1415 c-8 -9 -30 -15 -60 -15 -31 0 -52 -5 -61 -16 -10 -12 -23 -14 -58 -9 -25 4 -49 12 -52 17 -10 16 -26 2 -31 -27 -8 -40 18 -55 87 -49 42 4 67 12 82 26 19 18 27 19 47 10 36 -16 76 5 76 40 0 33 -13 43 -30 23z" fill="#c4c4c4" id="c4c4c4-000236"/>
    <path stroke="none" d="M780 1395 c0 -8 5 -15 10 -15 6 0 10 7 10 15 0 8 -4 15 -10 15 -5 0 -10 -7 -10 -15z" fill="#c4c4c4" id="c4c4c4-000237"/>
    <path stroke="none" d="M1780 1379 c0 -5 5 -7 10 -4 6 3 10 8 10 11 0 2 -4 4 -10 4 -5 0 -10 -5 -10 -11z" fill="#c4c4c4" id="c4c4c4-000247"/>
    <path stroke="none" d="M1370 1341 c0 -16 4 -19 21 -13 28 11 29 26 2 30 -18 3 -23 -2 -23 -17z" fill="#c4c4c4" id="c4c4c4-000250"/>
    <path stroke="none" d="M180 1320 c0 -11 5 -20 10 -20 6 0 10 9 10 20 0 11 -4 20 -10 20 -5 0 -10 -9 -10 -20z" fill="#c4c4c4" id="c4c4c4-000254"/>
    <path stroke="none" d="M55 1310 c3 -5 13 -10 21 -10 8 0 14 5 14 10 0 6 -9 10 -21 10 -11 0 -17 -4 -14 -10z" fill="#c4c4c4" id="c4c4c4-000257"/>
    <path stroke="none" d="M1574 1309 c-3 -6 -1 -16 4 -21 13 -13 45 8 36 23 -7 12 -31 11 -40 -2z" fill="#c4c4c4" id="c4c4c4-000259"/>
    <path stroke="none" d="M1329 1241 c-33 -33 -45 -39 -68 -35 -34 7 -50 -19 -23 -36 16 -9 16 -11 -2 -25 -11 -8 -16 -21 -13 -30 8 -20 57 -20 57 0 0 18 58 85 74 86 6 0 21 13 34 29 l23 29 -21 11 c-18 10 -26 6 -61 -29z" fill="#c4c4c4" id="c4c4c4-000263"/>
    <path stroke="none" d="M44 1236 c-3 -8 -3 -97 0 -198 3 -101 5 -203 6 -228 0 -33 3 -41 10 -30 8 12 12 12 18 2 10 -16 42 -5 42 14 0 8 -9 14 -20 14 -11 0 -20 6 -20 14 0 8 -2 21 -5 28 -8 19 56 48 105 48 43 0 60 -14 34 -28 -11 -6 -15 -16 -11 -26 4 -10 11 -15 16 -11 5 3 13 0 16 -6 4 -5 21 -9 39 -8 17 2 42 -4 56 -13 14 -9 49 -19 78 -22 47 -6 53 -5 50 10 -2 12 5 20 22 24 29 7 19 15 -32 24 -33 6 -38 10 -38 35 0 24 6 30 40 41 22 7 45 19 51 27 6 7 19 13 29 13 10 0 35 7 56 16 55 23 32 30 -121 38 -207 11 -233 15 -228 37 4 15 -2 22 -26 30 -36 13 -39 24 -11 39 22 12 27 30 8 30 -7 0 -23 23 -35 51 -21 47 -23 49 -44 37 -17 -10 -23 -10 -26 0 -6 17 -52 15 -59 -2z" fill="#c4c4c4" id="c4c4c4-000264"/>
    <path stroke="none" d="M360 901 c0 -6 -4 -13 -10 -16 -5 -3 -10 1 -10 9 0 9 5 16 10 16 6 0 10 -4 10 -9z" fill="#e8e8e8" id="e8e8e8-000168"/>
    <path stroke="none" d="M390 830 c0 -5 -5 -10 -11 -10 -5 0 -7 5 -4 10 3 6 8 10 11 10 2 0 4 -4 4 -10z" fill="#e8e8e8" id="e8e8e8-000172"/>
    <path stroke="none" d="M473 1234 c-10 -26 -26 -41 -49 -46 -10 -2 -20 -12 -22 -23 -3 -20 3 -20 136 -20 106 0 143 -3 156 -14 15 -13 19 -13 26 0 6 8 21 13 39 11 23 -3 31 1 36 18 4 12 2 27 -4 33 -16 16 -102 13 -139 -5 -18 -9 -30 -13 -27 -8 3 4 2 15 -1 24 -5 12 -20 16 -57 16 -33 0 -57 6 -69 16 -16 16 -18 15 -25 -2z" fill="#c4c4c4" id="c4c4c4-000265"/>
    <path stroke="none" d="M1713 1194 c-10 -26 14 -41 35 -21 15 16 15 19 2 27 -21 14 -30 12 -37 -6z" fill="#c4c4c4" id="c4c4c4-000267"/>
    <path stroke="none" d="M1940 1156 c0 -9 -8 -16 -17 -16 -17 -1 -17 -1 0 -14 9 -7 17 -18 17 -23 0 -6 9 -13 20 -16 11 -3 20 -12 20 -21 0 -9 5 -16 11 -16 5 0 9 -10 7 -22 -2 -14 2 -23 10 -22 6 1 19 2 27 3 16 1 21 41 5 41 -5 0 -10 6 -10 14 0 8 -10 16 -22 18 -12 2 -23 9 -26 15 -2 9 6 11 30 7 l33 -6 -25 21 c-14 11 -33 18 -42 15 -12 -3 -18 0 -18 10 0 8 -4 18 -10 21 -5 3 -10 -1 -10 -9z" fill="#e8e8e8" id="e8e8e8-000133"/>
    <path stroke="none" d="M1150 1150 c0 -5 4 -10 9 -10 6 0 13 5 16 10 3 6 -1 10 -9 10 -9 0 -16 -4 -16 -10z" fill="#c4c4c4" id="c4c4c4-000269"/>
    <path stroke="none" d="M1320 1086 c0 -7 10 -16 23 -20 36 -9 107 -7 107 4 0 6 -18 10 -39 10 -22 0 -43 5 -46 10 -9 15 -45 12 -45 -4z" fill="#c4c4c4" id="c4c4c4-000277"/>
    <path stroke="none" d="M1920 1069 c0 -5 5 -7 10 -4 6 3 10 8 10 11 0 2 -4 4 -10 4 -5 0 -10 -5 -10 -11z" fill="#c4c4c4" id="c4c4c4-000283"/>
    <path stroke="none" d="M1830 1030 c0 -5 14 -10 31 -10 17 0 28 4 24 10 -3 6 -17 10 -31 10 -13 0 -24 -4 -24 -10z" fill="#c4c4c4" id="c4c4c4-000288"/>
    <path stroke="none" d="M1352 1020 c-36 -8 -49 -17 -39 -26 9 -10 98 10 98 21 0 13 -19 15 -59 5z" fill="#c4c4c4" id="c4c4c4-000286"/>
    <path stroke="none" d="M1733 1008 c-41 -11 -42 -23 -2 -37 24 -8 36 -8 46 1 11 9 18 7 31 -7 13 -13 14 -19 5 -22 -15 -5 -18 -43 -4 -43 5 0 14 7 21 15 7 8 22 15 34 15 11 0 28 4 36 10 11 7 9 11 -13 19 -15 6 -27 18 -27 27 0 14 -7 15 -39 10 -28 -4 -42 -2 -48 7 -6 10 -17 11 -40 5z" fill="#c4c4c4" id="c4c4c4-000290"/>
    <path stroke="none" d="M4670 1010 c0 -5 5 -10 10 -10 6 0 10 5 10 10 0 6 -4 10 -10 10 -5 0 -10 -4 -10 -10z" fill="#c4c4c4" id="c4c4c4-000291"/>
    <path stroke="none" d="M1990 960 c-24 -15 0 -28 55 -31 62 -3 90 7 74 27 -13 16 -106 19 -129 4z" fill="#c4c4c4" id="c4c4c4-000295"/>
    <path stroke="none" d="M1110 950 c-14 -4 -62 -5 -107 -2 -57 3 -87 1 -97 -7 -8 -7 -38 -13 -67 -14 -39 -2 -55 -7 -63 -21 -8 -14 -8 -20 3 -24 7 -2 22 -13 33 -24 20 -20 68 -19 68 1 0 5 18 12 40 16 22 4 42 11 46 16 8 14 34 11 40 -6 4 -9 -4 -23 -17 -34 l-24 -19 21 -24 c12 -12 19 -29 17 -36 -8 -22 40 -10 52 13 5 11 19 30 30 41 11 11 27 31 35 44 8 12 23 33 33 46 29 38 12 51 -43 34z" fill="#c4c4c4" id="c4c4c4-000296"/>
    <path stroke="none" d="M1236 911 c-3 -5 1 -11 9 -15 8 -3 15 -13 15 -22 0 -20 24 -13 28 9 2 10 -3 17 -12 17 -9 0 -16 5 -16 10 0 12 -17 13 -24 1z" fill="#c4c4c4" id="c4c4c4-000306"/>
    <path stroke="none" d="M1170 885 c0 -9 -9 -28 -20 -43 -24 -34 -37 -82 -21 -82 6 0 11 5 11 10 0 6 7 10 15 10 11 0 77 38 93 55 2 2 -6 18 -18 34 -22 33 -60 42 -60 16z" fill="#c4c4c4" id="c4c4c4-000303"/>
    <path stroke="none" d="M1200 830 c0 -5 -4 -10 -9 -10 -6 0 -13 5 -16 10 -3 6 1 10 9 10 9 0 16 -4 16 -10z" fill="#e8e8e8" id="e8e8e8-000173"/>
    <path stroke="none" d="M1540 881 c0 -12 6 -21 15 -21 8 0 15 4 15 9 0 5 -7 14 -15 21 -13 10 -15 9 -15 -9z" fill="#c4c4c4" id="c4c4c4-000308"/>
    <path stroke="none" d="M1724 874 c1 -23 4 -25 30 -20 16 4 32 8 34 11 10 10 -21 35 -43 35 -18 0 -23 -5 -21 -26z" fill="#c4c4c4" id="c4c4c4-000309"/>
    <path stroke="none" d="M1981 876 l-23 -13 23 -6 c27 -7 49 8 34 22 -6 6 -19 5 -34 -3z" fill="#c4c4c4" id="c4c4c4-000314"/>
    <path stroke="none" d="M1837 863 c-3 -5 -2 -15 3 -22 10 -17 43 -6 38 12 -6 15 -34 22 -41 10z" fill="#c4c4c4" id="c4c4c4-000311"/>
    <path stroke="none" d="M1648 843 c7 -3 16 -2 19 1 4 3 -2 6 -13 5 -11 0 -14 -3 -6 -6z" fill="#c4c4c4" id="c4c4c4-000318"/>
    <path stroke="none" d="M776 831 c-8 -13 21 -34 39 -27 20 7 8 36 -15 36 -11 0 -21 -4 -24 -9z" fill="#c4c4c4" id="c4c4c4-000316"/>
    <path stroke="none" d="M300 750 c0 -5 5 -10 11 -10 5 0 7 5 4 10 -3 6 -8 10 -11 10 -2 0 -4 -4 -4 -10z" fill="#c4c4c4" id="c4c4c4-000330"/>
    <path stroke="none" d="M455 741 l-30 -15 44 -13 c36 -10 47 -10 54 0 7 9 10 9 14 0 5 -15 33 -18 33 -4 0 16 -30 33 -46 27 -9 -4 -22 0 -28 7 -9 12 -16 11 -41 -2z" fill="#c4c4c4" id="c4c4c4-000331"/>
    <path stroke="none" d="M635 690 c-4 -6 -14 -10 -23 -8 -19 3 -72 -39 -72 -58 0 -6 -10 -18 -22 -27 -18 -11 -20 -18 -12 -27 9 -9 17 -5 35 19 12 17 36 35 53 41 34 11 72 55 57 65 -5 3 -13 1 -16 -5z" fill="#c4c4c4" id="c4c4c4-000338"/>
    <path stroke="none" d="M763 570 c-23 -14 -45 -18 -82 -16 -57 4 -62 -4 -27 -39 20 -20 32 -24 68 -21 24 2 48 0 54 -5 16 -13 96 0 87 14 -4 6 0 8 11 4 10 -4 26 -7 36 -7 25 0 38 -79 15 -96 -21 -16 -19 -24 8 -24 39 0 57 30 63 106 5 61 4 67 -9 51 -8 -9 -21 -15 -30 -11 -8 3 -18 1 -21 -4 -10 -17 -48 -1 -40 17 20 50 20 51 -42 51 -41 0 -69 -6 -91 -20z" fill="#c4c4c4" id="c4c4c4-000345"/>
    <path stroke="none" d="M46 550 c-7 -40 5 -333 15 -344 5 -5 13 -5 21 1 7 6 32 14 56 18 23 4 42 11 42 16 0 5 5 9 10 9 6 0 10 -18 10 -41 0 -34 -3 -40 -17 -35 -9 4 -32 -4 -55 -19 l-38 -25 -10 25 c-5 14 -14 25 -19 25 -13 0 -25 -120 -13 -132 5 -5 34 -6 71 -2 56 6 61 9 55 27 -5 17 -3 19 19 13 33 -8 87 20 87 45 0 12 -10 23 -26 29 -20 8 -24 14 -16 23 6 7 14 36 18 64 7 58 27 73 92 73 21 0 43 5 50 12 9 9 17 6 37 -12 20 -19 25 -20 25 -7 0 9 -9 21 -20 27 -11 6 -20 16 -20 23 0 14 -144 16 -193 2 -30 -8 -67 15 -67 42 0 7 -4 13 -10 13 -5 0 -10 -4 -10 -10 0 -5 -18 -10 -40 -10 -22 0 -40 4 -40 9 0 19 28 30 62 25 21 -4 38 -2 42 5 4 6 17 11 29 11 12 1 33 7 46 14 33 18 54 10 40 -15 -9 -18 -7 -19 31 -13 37 6 42 4 47 -15 4 -18 12 -21 37 -19 22 2 32 9 34 23 2 11 11 28 19 37 17 19 14 49 -5 56 -7 2 -15 -9 -18 -28 -9 -43 -38 -37 -42 10 -4 44 -16 57 -37 40 -12 -10 -25 -8 -72 15 -32 16 -58 24 -60 18 -7 -20 -32 -48 -33 -36 0 17 -62 42 -99 41 -23 -1 -30 -6 -35 -28z" fill="#c4c4c4" id="c4c4c4-000333"/>
    <path stroke="none" d="M190 500 c-12 -22 -25 -26 -35 -10 -3 6 1 10 9 10 9 0 16 5 16 10 0 6 5 10 10 10 7 0 7 -6 0 -20z" fill="#e8e8e8" id="e8e8e8-000201"/>
    <path stroke="none" d="M115 370 c3 -5 -1 -10 -9 -10 -9 0 -16 5 -16 10 0 6 4 10 9 10 6 0 13 -4 16 -10z" fill="#e8e8e8" id="e8e8e8-000212"/>
    <path stroke="none" d="M114 315 c3 -9 0 -15 -9 -15 -8 0 -15 7 -15 15 0 8 4 15 9 15 5 0 11 -7 15 -15z" fill="#e8e8e8" id="e8e8e8-000216"/>
    <path stroke="none" d="M1017 554 c-9 -9 4 -35 14 -28 5 3 9 12 9 20 0 14 -12 19 -23 8z" fill="#c4c4c4" id="c4c4c4-000348"/>
    <path stroke="none" d="M560 530 c-12 -8 -12 -10 2 -15 23 -9 50 -3 56 13 4 14 -36 16 -58 2z" fill="#c4c4c4" id="c4c4c4-000350"/>
    <path stroke="none" d="M2220 520 c0 -5 5 -10 10 -10 6 0 10 5 10 10 0 6 -4 10 -10 10 -5 0 -10 -4 -10 -10z" fill="#c4c4c4" id="c4c4c4-000351"/>
    <path stroke="none" d="M2162 468 c-22 -22 -12 -28 53 -28 58 0 65 -2 65 -20 0 -27 16 -26 23 2 9 31 2 37 -41 33 -20 -1 -46 4 -57 11 -24 17 -28 17 -43 2z" fill="#c4c4c4" id="c4c4c4-000353"/>
    <path stroke="none" d="M486 414 c-15 -39 -8 -47 37 -40 23 4 47 12 52 18 7 8 5 9 -7 5 -9 -3 -28 3 -41 14 -30 23 -33 23 -41 3z" fill="#c4c4c4" id="c4c4c4-000355"/>
    <path stroke="none" d="M584 419 c-3 -6 2 -19 12 -29 15 -14 40 -19 111 -23 58 -3 95 -1 102 6 16 16 13 27 -8 27 -10 0 -21 6 -24 14 -5 12 -19 14 -63 10 -32 -2 -64 -10 -72 -16 -11 -10 -16 -8 -23 5 -11 20 -25 22 -35 6z" fill="#c4c4c4" id="c4c4c4-000356"/>
    <path stroke="none" d="M2317 383 c-11 -18 9 -31 56 -38 75 -11 58 23 -20 39 -17 4 -33 3 -36 -1z" fill="#c4c4c4" id="c4c4c4-000362"/>
    <path stroke="none" d="M845 321 c-32 -7 -45 -35 -26 -54 9 -9 14 -8 21 3 7 12 12 12 22 2 13 -13 106 -16 126 -4 16 11 6 40 -16 46 -36 10 -99 14 -127 7z" fill="#c4c4c4" id="c4c4c4-000364"/>
    <path stroke="none" d="M1112 289 c2 -6 8 -10 13 -10 5 0 11 4 13 10 2 6 -4 11 -13 11 -9 0 -15 -5 -13 -11z" fill="#c4c4c4" id="c4c4c4-000368"/>
    <path stroke="none" d="M292 272 c-8 -23 0 -25 116 -23 71 1 82 3 82 19 0 15 -11 17 -96 17 -70 0 -98 -4 -102 -13z" fill="#c4c4c4" id="c4c4c4-000367"/>
    <path stroke="none" d="M1220 210 c-11 -11 -24 -20 -30 -20 -5 0 -10 -5 -10 -11 0 -6 -8 -8 -19 -4 -12 3 -21 0 -25 -10 -3 -10 -19 -15 -44 -15 -21 0 -43 -5 -49 -11 -8 -8 -17 -8 -32 1 -29 15 -38 7 -46 -40 -4 -22 -12 -41 -18 -41 -7 -1 6 -5 27 -9 48 -9 1255 -13 1279 -4 26 10 20 21 -15 28 -20 4 -34 2 -39 -6 -6 -9 -13 -9 -31 -1 -18 9 -19 12 -5 12 9 1 17 6 17 12 0 6 -8 8 -19 4 -11 -3 -28 -2 -38 4 -10 5 -30 12 -44 15 -15 3 -29 14 -32 26 -4 16 -13 20 -45 20 -23 0 -44 5 -47 10 -3 6 -26 10 -51 10 -25 0 -57 6 -72 14 -57 28 -442 39 -484 12 -15 -9 -25 -7 -49 7 -39 22 -54 22 -79 -3z" fill="#c4c4c4" id="c4c4c4-000370"/>
    <path stroke="none" d="M883 213 c4 -3 10 -3 14 0 3 4 0 7 -7 7 -7 0 -10 -3 -7 -7z" fill="#c4c4c4" id="c4c4c4-000372"/>
    <path stroke="none" d="M488 182 c-34 -4 -35 -16 -6 -36 30 -21 35 -20 40 9 6 29 3 32 -34 27z" fill="#c4c4c4" id="c4c4c4-000373"/>
    <path stroke="none" d="M960 166 c0 -9 5 -16 10 -16 6 0 10 4 10 9 0 6 -4 13 -10 16 -5 3 -10 -1 -10 -9z" fill="#c4c4c4" id="c4c4c4-000374"/>
    <path stroke="none" d="M534 118 c-4 -14 -1 -25 10 -33 22 -16 20 -23 -6 -28 -13 -2 11 -5 53 -6 60 -1 78 2 83 14 3 8 12 15 21 15 8 0 15 5 15 11 0 7 -16 8 -45 3 -25 -3 -61 -3 -80 0 -30 6 -35 10 -30 27 4 10 2 19 -4 19 -5 0 -13 -10 -17 -22z" fill="#c4c4c4" id="c4c4c4-000379"/>
  </g>
</svg>
