<?xml version="1.0" standalone="no"?>
<!DOCTYPE svg PUBLIC "-//W3C//DTD SVG 1.1//EN"
 "http://www.w3.org/Graphics/SVG/1.1/DTD/svg11.dtd">
<!-- Created with svg_stack (http://github.com/astraw/svg_stack) -->
<svg xmlns:sodipodi="http://sodipodi.sourceforge.net/DTD/sodipodi-0.dtd" xmlns="http://www.w3.org/2000/svg" version="1.1" width="301.0" height="302.0">
  <defs/>
  <g id="id0:id0" transform="matrix(1.25,0,0,1.25,0.0,0.0)"><g transform="translate(0.000000,241.600000) scale(0.040000,-0.040000)" fill="#cdb037" stroke="none">
<path d="M1543 5995 c-186 -30 -518 -149 -543 -195 -5 -10 -10 -116 -10 -236 -1 -184 1 -221 13 -228 10 -7 21 -5 31 3 13 11 16 41 16 187 0 105 4 175 10 179 6 3 22 -3 36 -14 15 -12 33 -21 40 -21 7 0 30 -9 50 -21 33 -18 38 -19 52 -5 14 14 14 18 -8 41 -13 14 -31 25 -40 25 -22 0 -120 50 -120 61 0 27 75 30 700 29 l645 0 18 -25 c28 -37 85 -33 100 6 5 15 29 18 174 21 151 4 170 3 187 -13 l20 -18 -19 -21 -19 -21 46 -46 c25 -25 51 -42 57 -39 6 4 11 36 11 75 0 79 -7 88 -110 145 -133 72 -229 95 -560 131 -170 18 -658 18 -777 0z"/>
<path d="M2645 5456 l-20 -15 18 -18 c16 -16 18 -16 34 0 15 15 16 19 2 32 -13 13 -17 13 -34 1z"/>
<path d="M1076 3355 c-4 -118 -4 -285 0 -371 8 -182 9 -184 127 -261 70 -46 238 -129 310 -154 l39 -14 31 40 c17 22 51 60 76 84 l44 44 81 -7 c251 -19 330 -34 283 -52 -36 -14 -13 -21 75 -23 50 -1 97 -5 102 -10 22 -16 87 -10 107 10 17 17 29 19 82 14 82 -9 94 -12 79 -27 -18 -18 -14 -28 8 -28 14 0 20 6 18 18 -3 14 7 18 67 22 78 6 143 34 233 102 l54 40 -7 266 c-4 147 -11 271 -16 277 -5 5 -9 62 -9 127 0 146 -18 159 -22 16 l-3 -103 -193 -3 -194 -2 -5 20 c-6 23 -14 25 -31 8 -9 -9 -17 -6 -37 12 -14 13 -28 20 -32 16 -5 -5 12 -27 37 -49 35 -32 46 -50 48 -76 3 -45 5 -47 60 -65 108 -36 152 -90 152 -186 0 -60 -19 -100 -60 -130 -26 -19 -30 -27 -30 -69 0 -34 -6 -56 -21 -75 -41 -53 -142 -25 -223 63 -31 32 -66 41 -66 17 0 -8 -11 -23 -24 -34 -21 -16 -33 -17 -87 -11 -57 7 -68 12 -101 47 -23 26 -43 60 -53 96 -15 50 -22 60 -68 90 -106 68 -150 140 -140 228 l5 46 -41 26 c-22 14 -45 26 -50 26 -5 0 -14 6 -20 14 -7 8 -20 12 -30 9 -10 -3 -22 0 -25 6 -11 17 -27 13 -24 -6 3 -17 -14 -18 -237 -18 l-240 0 -3 103 c-5 173 -19 113 -26 -113z"/>
<path d="M2432 3165 c-13 -13 -30 -21 -38 -18 -9 3 -14 -2 -14 -14 0 -22 45 -49 55 -33 4 6 18 10 33 10 51 0 72 11 72 36 0 17 -6 24 -19 24 -11 0 -23 5 -26 10 -10 16 -38 9 -63 -15z"/>
<path d="M2303 3085 c-10 -7 -16 -15 -13 -18 43 -36 120 -75 138 -70 28 7 28 12 -5 51 -33 39 -92 57 -120 37z"/>
<path d="M2260 3010 c0 -5 5 -10 10 -10 6 0 10 5 10 10 0 6 -4 10 -10 10 -5 0 -10 -4 -10 -10z"/>
<path d="M2170 2885 c-7 -9 -10 -18 -7 -22 8 -7 37 15 37 28 0 14 -16 11 -30 -6z"/>
<path d="M1083 2638 c4 -51 10 -194 13 -317 l7 -224 37 -36 c46 -46 186 -119 201 -104 5 5 12 23 14 39 19 119 28 145 56 160 17 8 31 25 34 42 4 15 10 35 16 44 5 10 9 24 9 33 0 15 34 82 51 100 17 17 9 35 -15 35 -34 0 -38 11 -15 46 33 50 27 57 -83 104 -119 50 -240 113 -281 147 -47 38 -51 32 -44 -69z"/>
<path d="M2820 2692 c-63 -37 -95 -61 -89 -66 2 -2 40 -6 84 -8 l80 -3 3 53 c4 63 -8 66 -78 24z"/>
<path d="M1850 2670 c0 -5 7 -10 15 -10 8 0 15 5 15 10 0 6 -7 10 -15 10 -8 0 -15 -4 -15 -10z"/>
<path d="M2850 2570 c0 -5 7 -10 15 -10 8 0 15 5 15 10 0 6 -7 10 -15 10 -8 0 -15 -4 -15 -10z"/>
<path d="M5313 2344 c-12 -33 11 -49 83 -56 152 -15 251 -27 294 -35 41 -7 45 -10 42 -35 -4 -34 14 -45 39 -22 l19 17 20 -18 c11 -10 20 -28 20 -41 0 -13 5 -26 11 -30 13 -7 2 -193 -12 -208 -5 -6 -9 -34 -9 -62 0 -29 -4 -56 -10 -59 -5 -3 -10 -30 -10 -60 0 -30 -4 -57 -10 -60 -5 -3 -10 -26 -10 -50 0 -24 -4 -47 -10 -50 -5 -3 -10 -30 -10 -60 0 -30 -4 -57 -10 -60 -5 -3 -10 -30 -10 -60 0 -30 -4 -57 -10 -60 -5 -3 -10 -26 -10 -50 0 -24 -4 -47 -10 -50 -5 -3 -10 -30 -10 -60 0 -30 -4 -57 -10 -60 -5 -3 -10 -30 -10 -60 0 -30 -4 -57 -10 -60 -5 -3 -10 -24 -10 -46 0 -26 -9 -53 -27 -80 -25 -38 -26 -42 -10 -51 20 -11 13 -30 -8 -21 -17 6 -22 -32 -5 -42 6 -3 10 -26 10 -50 0 -24 -4 -47 -10 -50 -5 -3 -10 -30 -10 -60 0 -30 -4 -57 -10 -60 -5 -3 -10 -26 -10 -51 0 -39 -3 -46 -27 -55 -14 -5 -31 -8 -38 -6 -32 13 -94 328 -95 483 0 62 3 73 22 86 26 17 16 42 -14 35 -14 -4 -22 0 -25 11 -6 24 -50 42 -104 42 -26 0 -51 5 -54 10 -3 6 -26 10 -50 10 -24 0 -47 5 -50 10 -3 6 -30 10 -60 10 -30 0 -57 5 -60 10 -3 6 -30 10 -60 10 -30 0 -57 5 -60 10 -4 7 -39 10 -86 9 l-79 -3 -11 -40 c-48 -187 -154 -392 -264 -515 -46 -50 -48 -54 -29 -65 10 -6 27 -11 36 -11 10 0 18 -4 18 -10 0 -5 -10 -10 -23 -10 -13 0 -22 -6 -22 -15 0 -8 6 -15 13 -14 6 1 24 2 38 2 19 2 25 6 20 17 -7 19 17 30 42 20 9 -5 22 -9 27 -9 16 -2 11 -21 -5 -21 -8 0 -15 -6 -15 -13 0 -6 3 -12 8 -12 4 0 21 0 38 0 24 0 30 4 25 15 -7 19 17 30 42 19 9 -4 25 -8 34 -8 26 -1 21 -21 -5 -21 -13 0 -22 -6 -22 -15 0 -8 6 -15 13 -14 6 1 26 2 43 2 24 2 30 6 25 17 -7 19 17 30 42 20 9 -4 25 -8 34 -9 29 -2 20 -21 -10 -21 -17 0 -27 -5 -27 -15 0 -8 8 -15 18 -14 77 4 79 4 73 19 -7 19 17 30 42 19 9 -4 25 -8 34 -8 26 -1 21 -21 -5 -21 -13 0 -22 -6 -22 -15 0 -8 6 -15 13 -14 6 1 26 2 43 3 24 1 30 5 25 16 -7 19 17 30 42 20 9 -4 25 -8 34 -9 29 -2 20 -21 -10 -21 -17 0 -27 -5 -27 -15 0 -8 6 -15 13 -14 6 1 26 2 42 2 23 2 30 6 28 19 -3 19 24 29 50 17 9 -4 25 -7 34 -8 26 -2 21 -21 -5 -21 -12 0 -22 -6 -22 -13 0 -6 3 -12 8 -12 4 0 23 0 42 0 28 0 35 4 33 16 -4 24 18 28 39 7 23 -22 80 -43 118 -43 16 0 55 -5 86 -12 69 -14 94 -2 85 43 -3 15 -2 30 2 34 4 4 7 10 7 13 0 4 12 18 26 32 29 29 135 274 174 402 27 90 75 324 75 366 0 17 8 26 30 33 17 6 30 14 31 17 24 202 36 525 21 585 -6 23 -16 74 -23 112 -11 67 -52 203 -84 279 -19 46 -35 53 -141 66 -49 6 -118 15 -154 20 -113 15 -235 30 -248 30 -7 0 -15 -7 -19 -16z m-543 -1458 c0 -17 -27 -40 -33 -29 -8 13 12 55 23 48 5 -3 10 -12 10 -19z m224 -237 c-3 -5 -10 -7 -15 -3 -5 3 -7 10 -3 15 3 5 10 7 15 3 5 -3 7 -10 3 -15z"/>
<path d="M5080 2234 c-11 -12 -10 -18 3 -32 16 -15 18 -15 34 0 13 14 14 20 3 32 -7 9 -16 16 -20 16 -4 0 -13 -7 -20 -16z"/>
<path d="M1405 2100 c-4 -6 -3 -16 3 -22 6 -6 12 -6 17 2 4 6 3 16 -3 22 -6 6 -12 6 -17 -2z"/>
<path d="M1077 2043 c-9 -8 33 -54 43 -48 4 3 15 -4 25 -15 10 -11 24 -20 30 -20 7 0 18 -7 25 -15 7 -8 16 -13 20 -10 4 3 13 -2 20 -10 11 -13 40 -11 40 4 0 4 -31 22 -69 40 -37 17 -79 43 -91 56 -25 26 -32 29 -43 18z"/>
<path d="M2386 2018 c11 -39 34 -78 45 -78 10 0 29 42 29 64 0 14 -41 36 -66 36 -11 0 -14 -6 -8 -22z"/>
<path d="M1376 1992 c-8 -13 11 -35 23 -28 16 10 14 36 -3 36 -8 0 -17 -4 -20 -8z"/>
<path d="M1300 1910 c0 -5 5 -10 10 -10 6 0 10 5 10 10 0 6 -4 10 -10 10 -5 0 -10 -4 -10 -10z"/>
<path d="M1314 1778 c-11 -61 -9 -371 5 -448 6 -36 13 -84 17 -108 3 -23 10 -45 15 -48 5 -3 9 -16 9 -30 0 -13 4 -32 9 -42 5 -9 14 -30 21 -47 7 -16 19 -41 27 -55 8 -14 17 -33 20 -42 4 -13 12 -16 28 -12 24 6 43 -10 25 -21 -15 -9 -12 -25 4 -25 7 0 19 -6 25 -14 13 -16 52 -10 64 11 11 18 48 -2 41 -22 -5 -11 1 -15 24 -15 18 0 32 6 36 16 8 20 41 3 41 -23 0 -15 7 -17 40 -14 21 1 45 10 51 20 15 19 29 8 29 -22 0 -20 4 -22 55 -18 33 2 58 9 63 17 8 14 58 19 70 7 4 -3 2 -12 -5 -20 -17 -21 2 -30 55 -25 37 3 47 8 45 21 -3 13 4 15 37 12 51 -4 59 -9 44 -27 -19 -23 1 -32 61 -25 34 4 50 9 42 14 -18 12 -5 27 24 27 30 0 30 9 -1 70 -85 168 -162 437 -172 605 -3 50 -11 100 -19 112 -20 31 -70 53 -125 53 -26 0 -51 5 -54 10 -3 6 -26 10 -50 10 -24 0 -47 5 -50 10 -3 6 -30 10 -60 10 -30 0 -57 5 -60 10 -3 6 -30 10 -60 10 -30 0 -57 5 -60 10 -3 6 -26 10 -50 10 -24 0 -47 5 -50 10 -3 6 -28 10 -54 10 -53 0 -111 24 -111 46 0 8 -8 14 -19 14 -14 0 -20 -11 -27 -42z"/>
<path d="M2212 1608 c-19 -19 -14 -161 8 -261 30 -137 95 -329 157 -469 19 -44 32 -59 56 -68 24 -8 28 -13 19 -22 -20 -20 -14 -28 23 -28 29 0 35 4 33 18 -2 12 5 18 25 20 16 2 36 0 45 -3 10 -4 31 -8 47 -9 17 0 32 -5 35 -11 7 -14 -48 -19 -64 -6 -10 8 -17 7 -26 -4 -20 -25 -1 -33 63 -28 46 4 57 9 55 22 -4 20 35 25 111 14 67 -10 68 -28 2 -28 -27 0 -53 -4 -57 -8 -12 -12 18 -28 41 -22 11 2 37 5 58 5 30 0 37 3 35 18 -4 21 33 26 112 15 66 -10 68 -28 2 -28 -35 0 -47 -4 -47 -15 0 -8 8 -15 18 -14 9 0 37 1 62 2 38 2 45 5 43 20 -2 13 5 18 30 20 19 2 41 0 50 -4 10 -4 27 -6 39 -5 13 1 28 -1 35 -5 7 -5 27 -7 45 -5 18 1 38 -1 45 -5 7 -4 22 -8 33 -8 32 -1 23 -21 -10 -21 -20 0 -30 -5 -30 -15 0 -8 6 -15 13 -14 6 1 30 2 52 3 33 1 40 4 38 18 -3 20 24 29 50 17 9 -4 26 -8 37 -8 29 -1 24 -21 -5 -21 -16 0 -25 -6 -25 -15 0 -8 6 -15 13 -14 6 1 30 2 52 3 33 1 40 4 38 19 -2 11 5 18 20 20 l23 4 -8 56 c-12 86 -7 152 15 181 23 32 89 71 120 71 27 0 133 -52 151 -74 15 -18 51 -22 51 -5 0 92 -122 274 -169 253 -37 -17 -116 -15 -153 4 l-37 19 -30 -37 c-37 -46 -102 -65 -197 -57 -115 9 -193 78 -178 156 6 26 3 32 -20 41 -14 5 -39 19 -55 31 l-28 20 -48 -30 c-37 -24 -61 -31 -97 -31 l-47 0 -41 -55 c-45 -61 -111 -105 -158 -105 -38 0 -112 31 -133 56 -9 11 -23 32 -30 49 -11 22 -25 33 -60 42 -25 8 -55 23 -65 34 -22 25 -22 78 1 113 18 27 95 86 113 86 4 0 19 11 32 25 31 33 17 48 -52 52 -28 1 -56 7 -62 13 -5 5 -34 10 -62 10 -29 0 -56 5 -59 10 -9 14 -78 13 -93 -2z m258 -603 c0 -30 -14 -39 -30 -21 -8 11 -9 20 0 36 14 25 30 17 30 -15z"/>
<path d="M2560 1490 c0 -5 5 -10 10 -10 6 0 10 5 10 10 0 6 -4 10 -10 10 -5 0 -10 -4 -10 -10z"/>
<path d="M3320 1490 c0 -5 5 -10 10 -10 6 0 10 5 10 10 0 6 -4 10 -10 10 -5 0 -10 -4 -10 -10z"/>
<path d="M2681 1416 c-65 -66 -44 -113 30 -64 28 20 34 31 37 66 4 55 -11 55 -67 -2z"/>
<path d="M2840 1450 c0 -5 5 -10 10 -10 6 0 10 5 10 10 0 6 -4 10 -10 10 -5 0 -10 -4 -10 -10z"/>
<path d="M5247 1418 c-20 -49 -11 -63 27 -49 35 14 42 35 22 66 -23 34 -30 32 -49 -17z"/>
<path d="M2950 1430 c0 -5 14 -10 30 -10 17 0 30 5 30 10 0 6 -13 10 -30 10 -16 0 -30 -4 -30 -10z"/>
<path d="M2776 1353 c-4 -5 -13 -8 -19 -8 -15 0 -26 -112 -13 -125 6 -6 20 -3 38 8 25 15 27 20 21 52 -4 19 -7 45 -6 58 1 22 -7 28 -21 15z"/>
<path d="M3140 1350 c0 -5 5 -10 10 -10 6 0 10 5 10 10 0 6 -4 10 -10 10 -5 0 -10 -4 -10 -10z"/>
<path d="M2910 1330 c0 -5 5 -10 10 -10 6 0 10 5 10 10 0 6 -4 10 -10 10 -5 0 -10 -4 -10 -10z"/>
<path d="M2590 1310 c0 -5 5 -10 10 -10 6 0 10 5 10 10 0 6 -4 10 -10 10 -5 0 -10 -4 -10 -10z"/>
<path d="M3897 1306 c-14 -35 60 -136 99 -136 34 0 91 27 108 52 9 12 16 35 16 50 l0 28 -54 0 c-30 0 -58 5 -61 10 -10 16 -102 12 -108 -4z"/>
<path d="M3600 1290 c0 -5 5 -10 10 -10 6 0 10 5 10 10 0 6 -4 10 -10 10 -5 0 -10 -4 -10 -10z"/>
<path d="M2580 1260 c0 -5 5 -10 10 -10 6 0 10 5 10 10 0 6 -4 10 -10 10 -5 0 -10 -4 -10 -10z"/>
<path d="M3452 1248 c-7 -7 -12 -17 -12 -23 0 -7 -9 -20 -20 -30 -11 -10 -20 -27 -20 -38 0 -17 5 -18 38 -12 20 4 37 8 37 8 0 1 7 16 17 34 14 28 14 34 1 52 -16 24 -24 26 -41 9z"/>
<path d="M4368 1243 c-9 -10 -13 -24 -11 -30 3 -7 0 -28 -7 -47 -20 -62 -128 -115 -253 -124 l-79 -5 5 -31 c3 -17 10 -51 16 -76 27 -120 5 -201 -70 -255 -32 -23 -49 -42 -47 -53 2 -13 -4 -17 -27 -17 -17 -1 -30 -6 -30 -13 0 -7 3 -12 8 -12 4 0 21 0 38 0 24 0 30 4 25 15 -7 19 17 30 42 20 9 -4 40 -8 67 -9 28 -1 57 -6 65 -11 8 -5 22 -8 32 -7 9 2 19 -2 22 -7 4 -6 13 -8 21 -4 8 3 23 2 33 -2 9 -5 23 -9 29 -9 20 -2 15 -21 -5 -21 -9 0 -17 -6 -17 -13 0 -6 3 -12 8 -12 4 0 21 0 37 0 24 0 30 4 28 18 -2 13 5 18 30 20 25 3 47 18 92 65 111 113 194 259 250 439 23 73 26 93 16 113 -10 22 -18 25 -63 25 -28 0 -55 5 -58 10 -3 6 -26 10 -50 10 -24 0 -47 5 -50 10 -3 6 -17 10 -30 10 -13 0 -27 5 -30 10 -9 15 -20 12 -37 -7z"/>
<path d="M3520 1210 c0 -5 5 -10 10 -10 6 0 10 5 10 10 0 6 -4 10 -10 10 -5 0 -10 -4 -10 -10z"/>
<path d="M3240 1190 c0 -5 5 -10 10 -10 6 0 10 5 10 10 0 6 -4 10 -10 10 -5 0 -10 -4 -10 -10z"/>
<path d="M2720 1170 c0 -5 5 -10 10 -10 6 0 10 5 10 10 0 6 -4 10 -10 10 -5 0 -10 -4 -10 -10z"/>
<path d="M3320 1150 c0 -5 5 -10 10 -10 6 0 10 5 10 10 0 6 -4 10 -10 10 -5 0 -10 -4 -10 -10z"/>
<path d="M2380 770 c0 -5 9 -10 20 -10 11 0 20 5 20 10 0 6 -9 10 -20 10 -11 0 -20 -4 -20 -10z"/>
<path d="M3143 697 c-3 -5 -1 -12 3 -16 13 -11 96 -1 92 11 -5 13 -87 17 -95 5z"/>
<path d="M3985 580 c-11 -18 7 -29 38 -23 28 6 38 23 13 23 -8 0 -21 3 -29 6 -8 3 -18 0 -22 -6z"/>
<path d="M4104 558 c-4 -5 -2 -13 2 -18 12 -11 76 0 71 13 -4 13 -66 17 -73 5z"/>
<path d="M4344 518 c-10 -16 5 -25 36 -20 16 2 30 8 30 12 0 11 -60 18 -66 8z"/>
</g>
</g>
  <g id="id1:id1" transform="matrix(1.25,0,0,1.25,0.0,0.0)"><g transform="translate(0.000000,241.600000) scale(0.040000,-0.040000)" fill="#ddc35b" stroke="none">
<path d="M1220 5851 c-35 -20 -67 -32 -76 -30 -15 4 -59 -17 -73 -35 -12 -14 -11 -19 4 -36 9 -10 20 -19 24 -18 12 2 61 -22 61 -31 0 -4 -7 -14 -15 -21 -8 -7 -12 -17 -8 -23 4 -6 16 2 29 19 21 25 26 27 44 16 11 -6 27 -12 37 -12 9 0 24 -7 33 -15 16 -14 19 -13 34 10 15 23 22 25 101 25 46 0 87 -4 90 -10 3 -5 28 -10 55 -10 27 0 52 5 55 10 10 16 270 13 284 -4 6 -7 29 -13 51 -13 22 0 45 6 51 13 8 10 36 14 90 14 73 0 80 -2 95 -25 15 -23 18 -24 34 -10 9 8 26 15 38 15 11 0 24 5 27 10 4 6 63 10 144 10 115 0 144 -3 177 -19 l40 -20 85 26 c46 13 101 29 121 35 20 6 45 19 54 29 l17 19 -29 31 c-17 18 -36 28 -46 25 -10 -2 -21 0 -24 5 -3 5 -16 9 -30 9 -13 0 -33 6 -44 12 -16 10 -24 10 -40 0 -25 -16 -1425 -18 -1435 -2 -7 12 -34 12 -55 1z m1280 -66 c10 -12 9 -16 -4 -21 -9 -3 -23 -3 -32 0 -13 5 -14 9 -4 21 7 8 16 15 20 15 4 0 13 -7 20 -15z"/>
<path d="M1060 5710 c0 -5 5 -10 10 -10 6 0 10 5 10 10 0 6 -4 10 -10 10 -5 0 -10 -4 -10 -10z"/>
<path d="M2880 5690 c0 -5 5 -10 10 -10 6 0 10 5 10 10 0 6 -4 10 -10 10 -5 0 -10 -4 -10 -10z"/>
<path d="M1360 5655 c0 -8 5 -15 10 -15 6 0 10 7 10 15 0 8 -4 15 -10 15 -5 0 -10 -7 -10 -15z"/>
<path d="M2780 5650 c0 -5 5 -10 10 -10 6 0 10 5 10 10 0 6 -4 10 -10 10 -5 0 -10 -4 -10 -10z"/>
<path d="M2914 5629 c-10 -17 13 -36 27 -22 12 12 4 33 -11 33 -5 0 -12 -5 -16 -11z"/>
<path d="M1300 5610 c0 -5 5 -10 10 -10 6 0 10 5 10 10 0 6 -4 10 -10 10 -5 0 -10 -4 -10 -10z"/>
<path d="M2858 4553 c-3 -27 -6 -28 -60 -31 -54 -3 -71 -13 -48 -27 5 -3 7 -11 4 -18 -2 -7 14 -37 37 -67 22 -30 48 -72 56 -92 37 -91 53 -9 37 185 -7 77 -20 102 -26 50z"/>
<path d="M1060 4516 c0 -14 -4 -27 -9 -31 -13 -8 -13 -252 0 -292 13 -40 26 -42 35 -7 16 65 93 183 134 207 38 23 38 33 0 72 -27 28 -29 33 -15 45 8 7 15 16 15 21 0 12 -37 11 -45 -1 -3 -5 -24 -10 -45 -10 -21 0 -42 5 -45 10 -11 18 -25 10 -25 -14z"/>
<path d="M2040 4515 c-11 -13 -10 -22 3 -51 22 -45 22 -145 1 -201 -30 -77 2 -118 57 -74 13 10 47 28 74 41 51 23 105 80 105 110 0 44 -114 150 -161 150 -9 0 -24 9 -34 20 -22 24 -29 25 -45 5z"/>
<path d="M2515 4360 c-12 -4 -27 -15 -34 -24 -7 -9 -19 -16 -25 -16 -18 0 -80 -69 -111 -123 l-28 -48 24 -25 c21 -23 22 -27 10 -60 -9 -26 -10 -39 -2 -47 6 -6 11 -25 11 -43 0 -28 4 -33 29 -39 64 -14 115 -111 116 -220 0 -38 -6 -85 -14 -102 -15 -38 -66 -73 -105 -73 -20 0 -26 -5 -26 -22 0 -12 -5 -37 -12 -55 l-12 -33 42 -43 c23 -23 42 -48 42 -55 0 -8 55 -12 208 -14 l207 -3 3 -102 c4 -133 22 -136 22 -5 0 54 3 102 7 106 4 4 8 187 8 407 0 432 2 419 -53 380 -43 -29 -159 -63 -196 -56 -18 4 -52 24 -76 46 l-43 39 6 65 c3 35 16 83 27 106 20 38 21 70 3 68 -4 0 -17 -4 -28 -9z"/>
<path d="M2740 4351 c0 -13 29 -35 37 -28 7 8 -15 37 -28 37 -5 0 -9 -4 -9 -9z"/>
<path d="M1108 4053 c-26 -9 -50 -23 -52 -32 -5 -16 10 -593 20 -793 3 -60 9 -108 14 -108 5 0 11 44 12 98 l3 97 278 3 c308 3 295 -1 255 69 -59 103 -67 121 -73 155 -6 34 -12 39 -49 49 -120 33 -167 64 -196 131 -27 62 -34 205 -11 231 17 22 8 55 -24 90 -22 23 -34 27 -78 26 -29 0 -73 -7 -99 -16z"/>
<path d="M2002 3977 c-38 -40 -29 -55 28 -49 l50 5 21 -47 c23 -53 42 -56 47 -6 5 52 -6 79 -41 100 -42 26 -79 25 -105 -3z"/>
<path d="M2240 3950 c0 -5 9 -10 20 -10 11 0 20 5 20 10 0 6 -9 10 -20 10 -11 0 -20 -4 -20 -10z"/>
<path d="M2270 3885 c-7 -9 -10 -18 -7 -22 8 -7 37 15 37 28 0 14 -16 11 -30 -6z"/>
<path d="M2360 3887 c0 -8 -11 -24 -24 -36 -30 -28 -24 -53 10 -45 15 4 32 1 42 -7 27 -22 63 -41 68 -36 14 14 -13 61 -47 84 -23 15 -36 30 -32 39 3 8 0 14 -6 14 -6 0 -11 -6 -11 -13z"/>
<path d="M2160 3810 c0 -5 5 -10 10 -10 6 0 10 5 10 10 0 6 -4 10 -10 10 -5 0 -10 -4 -10 -10z"/>
<path d="M2120 3730 c0 -5 5 -10 10 -10 6 0 10 5 10 10 0 6 -4 10 -10 10 -5 0 -10 -4 -10 -10z"/>
<path d="M1380 3710 c0 -5 5 -10 10 -10 6 0 10 5 10 10 0 6 -4 10 -10 10 -5 0 -10 -4 -10 -10z"/>
<path d="M1400 3670 c0 -5 5 -10 10 -10 6 0 10 5 10 10 0 6 -4 10 -10 10 -5 0 -10 -4 -10 -10z"/>
<path d="M2440 3670 c0 -5 5 -10 10 -10 6 0 10 5 10 10 0 6 -4 10 -10 10 -5 0 -10 -4 -10 -10z"/>
<path d="M1540 3648 c-20 -22 -21 -36 -1 -23 12 7 34 45 27 45 -3 0 -14 -10 -26 -22z"/>
<path d="M2280 3550 c0 -5 5 -10 10 -10 6 0 10 5 10 10 0 6 -4 10 -10 10 -5 0 -10 -4 -10 -10z"/>
<path d="M1640 3490 c0 -5 5 -10 10 -10 6 0 10 5 10 10 0 6 -4 10 -10 10 -5 0 -10 -4 -10 -10z"/>
<path d="M1660 3450 c0 -5 5 -10 10 -10 6 0 10 5 10 10 0 6 -4 10 -10 10 -5 0 -10 -4 -10 -10z"/>
<path d="M2320 3351 c0 -13 29 -35 37 -28 7 8 -15 37 -28 37 -5 0 -9 -4 -9 -9z"/>
<path d="M2260 3240 c0 -5 5 -10 10 -10 6 0 10 5 10 10 0 6 -4 10 -10 10 -5 0 -10 -4 -10 -10z"/>
<path d="M1651 2426 c-6 -7 -9 -20 -6 -28 3 -8 -1 -21 -10 -28 -8 -7 -16 -9 -16 -4 -1 5 -2 15 -3 21 0 7 -4 13 -8 13 -5 0 -12 0 -18 0 -5 0 -10 -6 -10 -14 0 -21 -20 -30 -33 -17 -6 6 -18 11 -26 11 -18 0 -71 -90 -71 -119 0 -11 -4 -23 -10 -26 -5 -3 -10 -16 -10 -29 0 -12 -5 -27 -12 -34 -6 -6 -12 -26 -13 -44 -2 -18 -8 -46 -15 -63 -6 -16 -9 -40 -7 -53 7 -35 -28 -118 -47 -114 -9 2 -16 -4 -16 -14 0 -10 5 -14 15 -10 21 8 28 -15 15 -48 -9 -24 -13 -26 -26 -16 -22 19 -35 0 -28 -38 8 -37 21 -42 26 -9 2 12 10 22 18 22 11 0 16 -14 18 -52 3 -54 15 -70 25 -33 4 16 14 20 45 20 23 0 44 -4 47 -10 3 -5 26 -10 50 -10 24 0 47 -4 50 -10 3 -5 30 -10 60 -10 30 0 57 -4 60 -10 3 -5 30 -10 60 -10 30 0 57 -4 60 -10 3 -5 26 -10 50 -10 24 0 47 -4 50 -10 3 -5 30 -10 60 -10 30 0 57 -4 60 -10 3 -5 30 -10 59 -10 l54 0 6 98 c11 155 46 301 101 426 14 31 25 70 25 86 0 27 -3 30 -34 30 -19 0 -38 5 -41 10 -3 6 -30 10 -60 10 -30 0 -57 5 -60 10 -3 6 -30 10 -60 10 -30 0 -57 5 -60 10 -3 6 -26 10 -50 10 -24 0 -47 5 -50 10 -3 6 -30 10 -59 10 -28 0 -56 4 -61 9 -6 5 -21 11 -35 13 -22 3 -25 8 -28 51 -3 48 -11 57 -31 33z"/>
<path d="M5275 2320 c-4 -6 -3 -16 3 -22 6 -6 12 -6 17 2 4 6 3 16 -3 22 -6 6 -12 6 -17 -2z"/>
<path d="M5440 2290 c0 -5 9 -10 20 -10 11 0 20 5 20 10 0 6 -9 10 -20 10 -11 0 -20 -4 -20 -10z"/>
<path d="M5610 2270 c0 -5 9 -10 20 -10 11 0 20 5 20 10 0 6 -9 10 -20 10 -11 0 -20 -4 -20 -10z"/>
<path d="M5720 2210 c0 -5 5 -10 10 -10 6 0 10 5 10 10 0 6 -4 10 -10 10 -5 0 -10 -4 -10 -10z"/>
<path d="M5762 2197 c-12 -13 -22 -30 -22 -38 0 -8 -5 -20 -12 -27 -8 -8 -11 -42 -10 -97 1 -46 -3 -87 -8 -90 -6 -3 -10 -28 -10 -54 0 -26 -4 -51 -8 -56 -26 -30 -43 -106 -36 -163 4 -40 3 -62 -5 -66 -6 -4 -11 -29 -11 -56 0 -27 -4 -52 -10 -55 -5 -3 -10 -22 -10 -42 0 -20 -6 -44 -14 -52 -16 -18 -22 -77 -11 -105 5 -11 3 -26 -3 -37 -7 -10 -12 -34 -12 -53 0 -18 -6 -46 -14 -62 -9 -15 -12 -40 -9 -56 3 -16 0 -34 -8 -44 -8 -9 -12 -36 -10 -69 1 -29 -2 -56 -8 -60 -6 -3 -11 -23 -11 -44 0 -20 -9 -56 -20 -79 -25 -52 -25 -59 5 -220 23 -122 47 -192 67 -192 5 0 16 9 25 20 10 11 23 20 30 20 16 0 16 10 3 46 -8 19 -8 30 0 38 5 5 10 34 10 62 0 29 5 56 10 59 6 3 10 30 10 60 0 30 5 57 10 60 6 3 10 18 10 32 0 18 -4 24 -15 19 -19 -7 -41 32 -26 47 7 7 12 5 17 -6 8 -23 24 -21 24 2 0 11 5 23 10 26 6 3 10 26 10 50 0 24 5 47 10 50 6 3 10 30 10 60 0 30 5 57 10 60 6 3 10 30 10 60 0 30 5 57 10 60 6 3 10 26 10 50 0 24 5 47 10 50 6 3 10 30 10 60 0 30 5 57 10 60 6 3 10 30 10 60 0 30 5 57 10 60 6 3 10 26 10 50 0 24 5 47 10 50 6 3 10 30 10 60 0 30 5 57 10 60 6 3 10 28 10 54 0 32 5 53 16 62 13 10 14 25 9 83 -4 39 -10 75 -13 81 -4 5 -5 22 -3 37 1 14 -2 29 -8 33 -6 3 -11 17 -11 29 0 13 -7 29 -15 36 -8 7 -15 19 -15 26 0 22 -34 16 -58 -9z m-118 -838 c-3 -5 -10 -7 -15 -3 -5 3 -7 10 -3 15 3 5 10 7 15 3 5 -3 7 -10 3 -15z"/>
<path d="M2319 2153 c-57 -134 -109 -354 -112 -478 l-2 -78 30 -18 c18 -10 51 -18 82 -18 28 -1 55 -5 58 -11 3 -5 26 -10 50 -10 24 0 47 -4 50 -10 3 -5 12 -10 20 -10 10 0 13 14 10 58 -9 132 66 222 184 222 47 0 87 19 126 60 17 18 54 43 83 57 55 26 65 26 182 7 31 -5 39 -1 75 35 21 23 47 41 56 41 14 0 29 36 29 71 0 5 -29 9 -64 9 -36 0 -68 5 -71 10 -3 6 -30 10 -60 10 -30 0 -57 5 -60 10 -3 6 -26 10 -50 10 -24 0 -47 5 -50 10 -3 6 -30 10 -60 10 -30 0 -57 5 -60 10 -3 6 -30 10 -60 10 -30 0 -57 5 -60 10 -3 6 -26 10 -50 10 -24 0 -47 5 -50 11 -4 6 -45 9 -107 8 l-100 -2 -19 -44z m117 -169 c-5 -13 -10 -14 -18 -6 -6 6 -8 18 -4 28 5 13 10 14 18 6 6 -6 8 -18 4 -28z"/>
<path d="M5640 2090 c0 -5 5 -10 10 -10 6 0 10 5 10 10 0 6 -4 10 -10 10 -5 0 -10 -4 -10 -10z"/>
<path d="M3240 1970 c0 -5 5 -10 10 -10 6 0 10 5 10 10 0 6 -4 10 -10 10 -5 0 -10 -4 -10 -10z"/>
<path d="M2960 1890 c0 -5 7 -10 15 -10 8 0 15 5 15 10 0 6 -7 10 -15 10 -8 0 -15 -4 -15 -10z"/>
<path d="M3180 1875 c0 -14 5 -25 10 -25 6 0 10 11 10 25 0 14 -4 25 -10 25 -5 0 -10 -11 -10 -25z"/>
<path d="M2880 1870 c0 -5 5 -10 10 -10 6 0 10 5 10 10 0 6 -4 10 -10 10 -5 0 -10 -4 -10 -10z"/>
<path d="M4460 1854 c0 -15 8 -32 17 -39 14 -11 15 -16 5 -28 -7 -8 -12 -19 -11 -23 2 -5 -6 -25 -16 -46 -27 -54 -17 -66 45 -58 28 4 53 3 56 -1 8 -14 -82 -144 -130 -186 -64 -56 -125 -83 -230 -101 -109 -18 -183 -6 -231 40 -27 25 -37 28 -88 25 -51 -2 -57 -4 -55 -22 2 -11 14 -24 27 -30 15 -6 34 -33 52 -72 32 -68 45 -81 62 -64 15 15 92 14 117 -1 24 -15 63 3 79 38 9 20 18 24 55 24 25 0 57 -5 73 -11 31 -11 93 -67 93 -83 0 -17 50 -36 91 -36 21 0 41 -4 44 -10 3 -5 28 -10 56 -10 27 0 58 -6 69 -12 32 -21 53 1 73 78 25 92 34 317 18 444 -15 117 -37 150 -100 150 -22 0 -43 5 -46 10 -3 6 -15 10 -25 10 -11 0 -35 9 -55 20 -45 25 -45 25 -45 -6z"/>
<path d="M3100 1810 c0 -5 5 -10 10 -10 6 0 10 5 10 10 0 6 -4 10 -10 10 -5 0 -10 -4 -10 -10z"/>
<path d="M3200 1810 c0 -5 5 -10 10 -10 6 0 10 5 10 10 0 6 -4 10 -10 10 -5 0 -10 -4 -10 -10z"/>
<path d="M4830 1805 c-8 -10 -21 -13 -38 -8 l-25 6 7 -34 c31 -144 33 -280 5 -436 -12 -65 -23 -137 -24 -161 -2 -24 -6 -46 -9 -49 -10 -10 -7 -63 3 -63 5 0 11 12 13 28 3 24 8 27 42 30 21 2 43 -1 49 -7 6 -6 35 -11 63 -11 29 0 56 -4 59 -10 3 -5 30 -10 60 -10 30 0 57 -4 60 -10 3 -5 26 -10 50 -10 24 0 47 -4 50 -10 3 -5 30 -10 60 -10 30 0 57 -4 60 -10 3 -5 16 -10 29 -10 12 0 27 -5 34 -12 22 -22 42 10 42 69 0 30 4 84 9 121 5 37 15 110 21 162 7 52 18 131 26 174 8 44 11 94 8 113 l-6 33 -54 0 c-29 0 -56 5 -59 10 -3 6 -26 10 -50 10 -24 0 -47 5 -50 10 -3 6 -30 10 -60 10 -30 0 -57 5 -60 10 -3 6 -30 10 -60 10 -30 0 -57 5 -60 10 -3 6 -26 10 -50 10 -24 0 -47 5 -50 10 -3 6 -18 10 -32 10 -16 0 -27 7 -30 20 -6 24 -16 25 -33 5z m449 -411 c-6 -7 -15 -11 -21 -8 -5 3 -4 12 3 20 6 7 15 11 21 8 5 -3 4 -12 -3 -20z"/>
<path d="M2980 1750 c0 -5 9 -10 20 -10 11 0 20 5 20 10 0 6 -9 10 -20 10 -11 0 -20 -4 -20 -10z"/>
<path d="M2880 1730 c0 -5 7 -10 15 -10 8 0 15 5 15 10 0 6 -7 10 -15 10 -8 0 -15 -4 -15 -10z"/>
<path d="M2720 1710 c0 -5 5 -10 10 -10 6 0 10 5 10 10 0 6 -4 10 -10 10 -5 0 -10 -4 -10 -10z"/>
<path d="M2820 1710 c0 -5 7 -10 15 -10 8 0 15 5 15 10 0 6 -7 10 -15 10 -8 0 -15 -4 -15 -10z"/>
<path d="M2945 1690 c-3 -5 3 -10 14 -10 12 0 21 5 21 10 0 6 -6 10 -14 10 -8 0 -18 -4 -21 -10z"/>
<path d="M3020 1690 c0 -5 7 -10 15 -10 8 0 15 5 15 10 0 6 -7 10 -15 10 -8 0 -15 -4 -15 -10z"/>
<path d="M2850 1645 c-7 -9 -10 -18 -7 -22 8 -7 37 15 37 28 0 14 -16 11 -30 -6z"/>
<path d="M2580 1612 c0 -14 49 -56 57 -49 3 4 -4 18 -17 32 -24 25 -40 32 -40 17z"/>
<path d="M2805 1590 c3 -5 8 -10 11 -10 2 0 4 5 4 10 0 6 -5 10 -11 10 -5 0 -7 -4 -4 -10z"/>
<path d="M2705 1500 c-4 -6 -3 -16 3 -22 6 -6 12 -6 17 2 4 6 3 16 -3 22 -6 6 -12 6 -17 -2z"/>
<path d="M1298 1375 c-5 -26 5 -41 21 -31 10 6 2 56 -9 56 -4 0 -10 -11 -12 -25z"/>
<path d="M1317 1245 c-7 -16 8 -29 23 -20 10 6 2 35 -10 35 -4 0 -10 -7 -13 -15z"/>
<path d="M1337 1165 c-7 -16 8 -29 23 -20 10 6 2 35 -10 35 -4 0 -10 -7 -13 -15z"/>
<path d="M1355 1101 c-7 -12 12 -24 25 -16 11 7 4 25 -10 25 -5 0 -11 -4 -15 -9z"/>
<path d="M1380 1050 c0 -5 5 -10 10 -10 6 0 10 5 10 10 0 6 -4 10 -10 10 -5 0 -10 -4 -10 -10z"/>
<path d="M4720 1025 c0 -8 5 -15 10 -15 6 0 10 7 10 15 0 8 -4 15 -10 15 -5 0 -10 -7 -10 -15z"/>
<path d="M1420 970 c0 -5 5 -10 10 -10 6 0 10 5 10 10 0 6 -4 10 -10 10 -5 0 -10 -4 -10 -10z"/>
<path d="M5345 360 c-11 -17 7 -30 33 -24 21 6 31 24 13 24 -5 0 -16 3 -24 6 -8 3 -18 0 -22 -6z"/>
<path d="M5480 330 c0 -5 5 -10 10 -10 6 0 10 5 10 10 0 6 -4 10 -10 10 -5 0 -10 -4 -10 -10z"/>
<path d="M5440 290 c0 -5 5 -10 10 -10 6 0 10 5 10 10 0 6 -4 10 -10 10 -5 0 -10 -4 -10 -10z"/>
</g>
</g>
  <g id="id2:id2" transform="matrix(1.25,0,0,1.25,0.0,0.0)"><g transform="translate(0.000000,241.600000) scale(0.040000,-0.040000)" fill="#408000" stroke="none">
<path d="M1890 5912 c0 -15 24 -32 47 -32 25 0 29 10 11 28 -13 13 -58 16 -58 4z"/>
<path d="M1840 4736 c0 -9 9 -16 19 -16 11 0 27 -10 35 -22 9 -12 19 -19 22 -15 9 9 -8 28 -45 50 -27 16 -31 16 -31 3z"/>
<path d="M1717 4701 c-3 -14 -11 -18 -25 -14 -14 3 -24 -2 -31 -16 -8 -15 -21 -21 -44 -21 -18 0 -38 -5 -43 -10 -8 -8 -15 -6 -24 5 -20 24 -28 18 -26 -22 l1 -37 -70 -11 c-115 -17 -225 -84 -225 -136 0 -7 -21 -35 -47 -61 -45 -45 -46 -49 -28 -62 l19 -13 -20 -34 c-26 -43 -78 -179 -71 -185 2 -3 32 4 66 16 72 24 81 24 150 6 l53 -14 19 32 c10 17 19 38 19 47 0 26 63 75 113 89 66 18 153 8 183 -21 13 -12 25 -21 27 -18 50 68 78 95 113 111 63 28 105 5 139 -75 12 -30 20 -37 43 -37 28 0 52 16 52 33 0 5 -6 4 -13 -2 -22 -17 -28 -1 -12 30 10 18 20 26 30 23 8 -4 15 -2 15 4 0 5 -7 12 -15 16 -9 3 -15 18 -15 36 0 18 6 33 15 36 23 9 18 22 -17 54 -25 23 -30 32 -20 42 14 14 16 48 3 48 -6 0 -13 -5 -16 -10 -4 -6 -41 22 -86 64 -115 109 -200 151 -212 107z m-3 -52 c-3 -5 -10 -7 -15 -3 -5 3 -7 10 -3 15 3 5 10 7 15 3 5 -3 7 -10 3 -15z m-141 -70 c-17 -17 -37 -1 -22 17 8 10 15 12 23 4 7 -7 7 -13 -1 -21z"/>
<path d="M2200 4710 c0 -5 -13 -16 -30 -25 -26 -13 -29 -20 -28 -58 0 -24 -3 -57 -6 -74 -6 -25 -1 -39 21 -72 15 -22 35 -39 43 -38 9 1 25 -18 40 -48 14 -27 32 -55 40 -61 12 -10 10 -17 -14 -49 -24 -32 -33 -36 -57 -31 -20 4 -28 2 -26 -7 1 -6 -9 -13 -23 -15 -14 -2 -34 -13 -45 -26 -11 -12 -32 -30 -47 -39 -26 -16 -36 -45 -22 -59 7 -8 122 31 197 67 40 18 66 39 84 66 14 21 34 39 44 39 10 0 21 5 24 10 5 8 11 7 21 -1 12 -10 20 -7 40 12 13 12 22 29 20 35 -6 16 39 46 73 49 14 1 33 5 42 9 20 9 84 -6 84 -20 0 -5 -11 -11 -25 -12 -50 -7 -97 -77 -107 -160 -5 -42 -2 -50 22 -75 40 -39 94 -53 147 -38 86 26 138 78 138 137 0 13 7 27 15 30 8 4 15 11 15 16 0 6 -7 7 -16 4 -10 -4 -19 4 -29 27 -14 34 -115 137 -152 156 -31 16 -109 14 -144 -4 -32 -17 -51 -13 -42 10 7 19 2 19 -43 -2 -32 -16 -37 -16 -47 -2 -7 8 -20 18 -29 22 -20 7 -23 22 -8 32 16 10 12 28 -5 22 -17 -7 -30 9 -15 18 5 3 10 13 10 22 0 12 -3 13 -13 4 -20 -16 -52 20 -35 37 10 10 6 18 -15 39 -21 21 -29 25 -39 15 -15 -15 -49 13 -41 34 3 8 0 14 -6 14 -6 0 -11 -4 -11 -10z m194 -291 c-3 -5 -1 -16 5 -23 8 -10 8 -16 -3 -25 -8 -7 -17 -8 -20 -3 -4 7 -2 45 3 70 1 2 6 0 11 -3 6 -4 8 -11 4 -16z m329 -148 c15 -15 -11 -23 -35 -10 -18 10 -24 8 -35 -7 -23 -32 -12 -59 26 -62 55 -5 78 5 90 40 8 24 14 29 23 20 15 -15 -7 -66 -40 -92 -78 -62 -201 41 -132 110 14 14 28 18 57 14 21 -2 41 -8 46 -13z"/>
<path d="M1522 4689 c2 -6 7 -10 11 -10 4 1 21 1 37 1 17 0 30 5 30 10 0 6 -18 10 -41 10 -25 0 -39 -4 -37 -11z"/>
<path d="M1940 4652 c0 -13 23 -32 39 -32 11 0 10 4 -4 20 -19 21 -35 26 -35 12z"/>
<path d="M2000 4570 c0 -5 5 -10 10 -10 6 0 10 5 10 10 0 6 -4 10 -10 10 -5 0 -10 -4 -10 -10z"/>
<path d="M2592 4523 c-19 -7 -4 -23 24 -23 27 0 32 15 8 24 -9 3 -16 6 -17 5 -1 0 -8 -3 -15 -6z"/>
<path d="M2520 4490 c0 -5 5 -10 10 -10 6 0 10 5 10 10 0 6 -4 10 -10 10 -5 0 -10 -4 -10 -10z"/>
<path d="M1013 4423 c-8 -3 -13 -24 -13 -53 0 -40 4 -50 20 -55 31 -10 40 2 40 55 0 34 -4 50 -16 54 -9 3 -16 6 -17 5 -1 0 -8 -3 -14 -6z"/>
<path d="M2560 4355 c0 -8 5 -15 10 -15 6 0 10 7 10 15 0 8 -4 15 -10 15 -5 0 -10 -7 -10 -15z"/>
<path d="M1100 4270 c0 -5 5 -10 10 -10 6 0 10 5 10 10 0 6 -4 10 -10 10 -5 0 -10 -4 -10 -10z"/>
<path d="M1817 4242 c-25 -28 -21 -33 24 -30 29 1 45 -3 54 -15 15 -20 45 -23 45 -3 0 7 -9 25 -21 40 -25 32 -77 36 -102 8z"/>
<path d="M2500 4250 c0 -5 5 -10 10 -10 6 0 10 5 10 10 0 6 -4 10 -10 10 -5 0 -10 -4 -10 -10z"/>
<path d="M1080 4215 c0 -8 5 -15 10 -15 6 0 10 7 10 15 0 8 -4 15 -10 15 -5 0 -10 -7 -10 -15z"/>
<path d="M1513 4205 c-6 -18 -9 -15 44 -49 40 -24 73 -34 73 -20 0 20 -39 65 -63 74 -40 13 -47 13 -54 -5z"/>
<path d="M1040 4170 c0 -21 5 -30 16 -30 11 0 14 5 10 16 -3 9 -6 22 -6 30 0 8 -4 14 -10 14 -5 0 -10 -13 -10 -30z"/>
<path d="M2330 4185 c-7 -9 -10 -18 -7 -22 8 -7 37 15 37 28 0 14 -16 11 -30 -6z"/>
<path d="M1740 4150 c0 -5 5 -10 10 -10 6 0 10 5 10 10 0 6 -4 10 -10 10 -5 0 -10 -4 -10 -10z"/>
<path d="M2470 4125 c-7 -9 -10 -18 -7 -22 8 -7 37 15 37 28 0 14 -16 11 -30 -6z"/>
<path d="M2860 4130 c0 -5 5 -10 10 -10 6 0 10 5 10 10 0 6 -4 10 -10 10 -5 0 -10 -4 -10 -10z"/>
<path d="M2780 4070 c0 -5 5 -10 10 -10 6 0 10 5 10 10 0 6 -4 10 -10 10 -5 0 -10 -4 -10 -10z"/>
<path d="M2580 4050 c0 -5 5 -10 10 -10 6 0 10 5 10 10 0 6 -4 10 -10 10 -5 0 -10 -4 -10 -10z"/>
<path d="M1440 3990 c0 -5 5 -10 10 -10 6 0 10 5 10 10 0 6 -4 10 -10 10 -5 0 -10 -4 -10 -10z"/>
<path d="M1940 3970 c0 -5 5 -10 10 -10 6 0 10 5 10 10 0 6 -4 10 -10 10 -5 0 -10 -4 -10 -10z"/>
<path d="M2718 3023 c-25 -6 -22 -18 7 -31 49 -23 67 -13 41 21 -13 17 -18 18 -48 10z"/>
<path d="M3460 2510 c0 -5 9 -10 20 -10 11 0 20 5 20 10 0 6 -9 10 -20 10 -11 0 -20 -4 -20 -10z"/>
<path d="M3630 2490 c0 -5 16 -10 35 -10 19 0 35 5 35 10 0 6 -16 10 -35 10 -19 0 -35 -4 -35 -10z"/>
<path d="M3830 2470 c0 -5 16 -10 35 -10 19 0 35 5 35 10 0 6 -16 10 -35 10 -19 0 -35 -4 -35 -10z"/>
<path d="M4000 2451 c0 -5 12 -11 28 -13 19 -2 26 -8 24 -20 -2 -10 3 -18 11 -18 9 0 14 11 14 30 0 28 -3 30 -39 30 -21 0 -38 -4 -38 -9z"/>
<path d="M4210 2430 c0 -5 7 -10 15 -10 8 0 15 5 15 10 0 6 -7 10 -15 10 -8 0 -15 -4 -15 -10z"/>
<path d="M3953 2375 c-8 -19 -8 -31 0 -50 18 -37 25 -30 25 25 0 55 -7 62 -25 25z"/>
<path d="M4017 2384 c-3 -4 -3 -34 0 -69 5 -61 -4 -94 -54 -186 -2 -4 18 -22 45 -41 77 -56 94 -110 71 -220 -8 -37 -22 -63 -45 -86 l-34 -34 30 -38 c36 -45 50 -81 50 -125 0 -44 -44 -81 -105 -91 -25 -3 -48 -11 -52 -17 -3 -6 8 -23 26 -37 18 -16 29 -33 26 -41 -3 -8 4 -20 16 -27 18 -11 23 -11 34 4 11 16 17 16 40 6 22 -10 25 -15 15 -27 -11 -13 -7 -15 25 -15 29 0 36 3 31 15 -7 20 21 32 37 16 18 -18 48 -14 45 6 -2 13 14 27 53 48 107 58 209 147 209 183 0 6 -15 15 -32 20 -40 10 -48 49 -10 45 15 -2 22 3 22 15 0 10 4 22 9 27 5 6 16 29 24 52 15 45 12 53 -27 67 -13 4 -17 12 -12 29 16 55 18 92 6 145 -19 86 -61 192 -77 192 -7 0 -32 -12 -54 -27 -29 -19 -43 -23 -51 -15 -8 8 -7 13 5 18 9 3 17 11 17 18 -1 17 -29 51 -36 43 -4 -4 -1 -13 5 -21 7 -8 8 -17 3 -20 -5 -3 -24 13 -42 35 -30 38 -182 159 -199 159 -4 0 -10 -3 -14 -6z"/>
<path d="M4120 2371 c0 -13 29 -35 37 -28 7 8 -15 37 -28 37 -5 0 -9 -4 -9 -9z"/>
<path d="M3970 1904 c-23 -25 -39 -48 -37 -51 3 -3 19 -2 36 2 32 7 71 51 71 79 0 28 -26 17 -70 -30z"/>
<path d="M3960 1622 c0 -21 -29 -52 -48 -52 -7 0 -12 -7 -12 -16 0 -11 9 -14 37 -12 44 4 79 43 68 77 -8 26 -45 29 -45 3z"/>
<path d="M3640 1517 c0 -44 -21 -77 -49 -77 -7 0 -11 -8 -9 -17 5 -28 50 -28 81 1 37 34 44 71 20 104 -31 42 -43 39 -43 -11z"/>
<path d="M4323 1406 c-22 -10 -31 -26 -15 -26 15 0 62 25 62 33 0 10 -20 7 -47 -7z"/>
<path d="M3817 1393 c-14 -13 -6 -112 13 -169 11 -32 34 -72 50 -89 20 -20 26 -35 21 -44 -5 -8 0 -28 15 -54 24 -43 23 -67 -4 -45 -13 11 -14 11 -9 -2 4 -8 10 -23 13 -33 4 -9 14 -16 23 -15 11 2 16 -4 16 -22 0 -21 -4 -24 -24 -22 -16 3 -22 -1 -19 -10 3 -7 13 -13 24 -13 22 -1 22 -26 -1 -81 -18 -43 -36 -37 -28 10 4 27 -1 39 -27 70 -39 43 -97 76 -138 76 -28 0 -72 -38 -99 -87 -33 -58 0 -179 57 -208 32 -17 32 -35 -1 -35 -10 0 -19 -4 -19 -10 0 -6 30 -10 70 -10 59 0 70 3 68 16 -4 22 68 47 93 31 22 -13 36 -3 21 15 -8 10 0 24 34 58 46 46 64 89 64 153 0 24 5 40 15 43 8 4 15 15 15 25 0 20 -15 26 -25 9 -9 -15 -25 -2 -25 19 0 25 42 51 83 51 25 0 36 5 39 18 5 18 42 23 66 8 12 -7 52 12 65 31 4 7 13 10 20 7 7 -2 28 12 47 31 30 31 33 38 19 45 -11 6 -15 18 -12 34 5 22 1 25 -33 32 -22 4 -57 16 -78 27 -32 15 -44 17 -58 8 -11 -6 -23 -9 -29 -5 -6 3 -23 -4 -37 -17 -98 -86 -175 -53 -192 81 -4 33 -9 45 -22 45 -9 0 -25 8 -35 18 -22 19 -26 20 -36 10z m225 -341 c4 -4 -4 -17 -17 -30 l-24 -23 -15 29 c-8 16 -12 33 -8 36 7 8 53 -1 64 -12z m-219 -194 c27 -37 13 -53 -23 -27 -36 27 -52 21 -68 -24 -16 -44 -2 -84 34 -98 19 -7 24 -13 17 -20 -14 -14 -65 12 -87 45 -27 42 -21 83 19 123 41 41 78 42 108 1z m-4 -90 c-8 -14 -14 -17 -22 -9 -7 7 -6 15 3 25 17 22 32 9 19 -16z"/>
<path d="M4240 1370 c0 -5 7 -10 15 -10 8 0 15 5 15 10 0 6 -7 10 -15 10 -8 0 -15 -4 -15 -10z"/>
<path d="M2045 1077 c-22 -17 -14 -47 14 -47 24 0 36 29 18 47 -11 11 -16 11 -32 0z"/>
<path d="M3860 1070 c0 -5 5 -10 10 -10 6 0 10 5 10 10 0 6 -4 10 -10 10 -5 0 -10 -4 -10 -10z"/>
<path d="M2424 1035 c-20 -30 -12 -71 16 -80 31 -10 40 2 40 56 0 42 -3 49 -20 49 -11 0 -27 -11 -36 -25z"/>
<path d="M2532 960 c-24 -39 -9 -63 27 -41 9 6 11 18 7 35 -8 31 -17 33 -34 6z"/>
<path d="M4000 690 c0 -5 5 -10 10 -10 6 0 10 5 10 10 0 6 -4 10 -10 10 -5 0 -10 -4 -10 -10z"/>
<path d="M3620 630 c0 -5 9 -10 20 -10 11 0 20 5 20 10 0 6 -9 10 -20 10 -11 0 -20 -4 -20 -10z"/>
<path d="M4004 618 c-7 -12 6 -29 17 -23 17 11 31 -6 18 -21 -9 -11 -7 -14 11 -14 15 0 20 4 17 15 -4 8 -2 17 3 20 20 12 9 23 -26 27 -19 2 -37 0 -40 -4z"/>
<path d="M3890 590 c0 -5 7 -10 15 -10 8 0 15 5 15 10 0 6 -7 10 -15 10 -8 0 -15 -4 -15 -10z"/>
<path d="M4130 590 c0 -5 7 -10 15 -10 8 0 15 5 15 10 0 6 -7 10 -15 10 -8 0 -15 -4 -15 -10z"/>
</g>
</g>
  <g id="id3:id3" transform="matrix(1.25,0,0,1.25,0.0,0.0)"><g transform="translate(0.000000,241.600000) scale(0.040000,-0.040000)" fill="#f1db8a" stroke="none">
<path d="M1117 5733 c3 -7 14 -13 24 -13 32 0 123 -56 114 -70 -6 -9 -53 -1 -61 11 -3 5 -13 9 -23 9 -10 0 -39 12 -65 26 -82 46 -77 78 -74 -490 2 -277 6 -508 10 -512 4 -4 17 5 29 20 44 56 210 151 399 228 218 90 339 113 550 105 332 -12 662 -121 832 -275 46 -42 55 -27 62 100 5 104 14 389 21 649 2 59 6 116 10 128 3 11 3 30 0 42 -6 18 -12 20 -43 14 -19 -4 -54 -15 -76 -25 -62 -28 -236 -75 -376 -101 -115 -22 -151 -24 -460 -23 -269 0 -357 3 -445 17 -60 10 -113 21 -118 26 -19 19 16 20 115 5 77 -12 179 -17 403 -17 l300 -1 180 32 c218 40 218 40 210 59 -3 9 2 24 11 35 10 10 15 20 13 22 -7 7 -225 11 -456 9 -193 -3 -223 -5 -223 -18 0 -16 -39 -36 -52 -28 -5 2 -8 14 -8 26 l0 22 -171 0 c-159 0 -170 -1 -165 -18 2 -10 -2 -21 -9 -23 -14 -6 -75 22 -75 34 0 4 -87 7 -194 7 -151 0 -192 -3 -189 -12z m240 -96 c7 2 22 -1 34 -7 32 -18 9 -34 -27 -19 -16 6 -39 12 -51 13 -27 2 -48 20 -39 35 4 7 18 4 39 -8 18 -10 37 -16 44 -14z m1367 -428 c-3 -5 -10 -7 -15 -3 -5 3 -7 10 -3 15 3 5 10 7 15 3 5 -3 7 -10 3 -15z"/>
<path d="M2790 5740 c-8 -5 -11 -12 -8 -16 10 -9 38 3 38 16 0 12 -10 13 -30 0z"/>
<path d="M1880 4994 c-223 -41 -352 -82 -501 -158 -123 -62 -190 -109 -277 -195 l-62 -61 0 -49 c0 -28 5 -53 10 -56 6 -3 10 -31 10 -61 0 -72 18 -70 22 4 l3 57 33 3 c27 3 35 -1 39 -17 3 -12 14 -21 25 -21 15 0 18 5 13 19 -8 26 77 91 166 127 55 23 74 26 132 21 37 -3 67 -4 67 -1 0 3 -7 18 -15 33 -8 16 -11 31 -8 35 10 10 57 7 93 -6 28 -9 35 -9 46 7 11 14 10 24 -3 57 -21 52 -10 62 48 45 125 -39 230 -118 280 -211 25 -48 39 -59 64 -50 11 5 15 23 15 71 0 55 4 67 25 88 19 19 35 25 70 25 43 0 51 -4 104 -58 58 -58 101 -141 101 -197 0 -31 33 -34 70 -8 40 28 121 56 178 61 40 3 60 -1 87 -17 19 -11 41 -18 48 -15 8 3 20 -2 27 -11 17 -20 32 -19 28 3 -2 11 3 17 17 17 17 0 20 -8 23 -47 2 -27 7 -48 12 -48 9 0 18 69 26 202 l5 87 -42 41 c-91 88 -256 180 -397 221 -156 46 -246 60 -402 64 -85 2 -166 2 -180 -1z"/>
<path d="M1760 3950 c0 -5 5 -10 10 -10 6 0 10 5 10 10 0 6 -4 10 -10 10 -5 0 -10 -4 -10 -10z"/>
<path d="M1820 3930 c0 -5 5 -10 10 -10 6 0 10 5 10 10 0 6 -4 10 -10 10 -5 0 -10 -4 -10 -10z"/>
<path d="M1580 3756 c0 -25 5 -46 10 -46 6 0 10 16 10 35 0 19 0 38 1 42 0 4 -4 9 -10 11 -7 2 -11 -14 -11 -42z"/>
<path d="M1620 3790 c0 -5 5 -10 10 -10 6 0 10 5 10 10 0 6 -4 10 -10 10 -5 0 -10 -4 -10 -10z"/>
<path d="M1700 3790 c0 -5 5 -10 10 -10 6 0 10 5 10 10 0 6 -4 10 -10 10 -5 0 -10 -4 -10 -10z"/>
<path d="M1800 3789 c0 -5 5 -7 10 -4 6 3 10 8 10 11 0 2 -4 4 -10 4 -5 0 -10 -5 -10 -11z"/>
<path d="M1845 3710 c3 -5 8 -10 11 -10 2 0 4 5 4 10 0 6 -5 10 -11 10 -5 0 -7 -4 -4 -10z"/>
<path d="M2100 3710 c0 -5 5 -10 10 -10 6 0 10 5 10 10 0 6 -4 10 -10 10 -5 0 -10 -4 -10 -10z"/>
<path d="M1717 3690 c-14 -11 -32 -17 -41 -14 -22 9 -20 -9 4 -31 15 -13 30 -16 60 -12 30 4 46 0 65 -15 14 -11 25 -25 25 -33 0 -7 7 -18 15 -25 20 -16 45 3 38 29 -3 10 0 22 6 25 14 9 14 26 0 26 -6 0 -29 16 -50 35 -45 41 -83 45 -122 15z"/>
<path d="M1980 3690 c0 -5 5 -10 10 -10 6 0 10 5 10 10 0 6 -4 10 -10 10 -5 0 -10 -4 -10 -10z"/>
<path d="M2060 3690 c0 -5 5 -10 10 -10 6 0 10 5 10 10 0 6 -4 10 -10 10 -5 0 -10 -4 -10 -10z"/>
<path d="M1952 3628 c-15 -15 -16 -48 -2 -48 6 0 10 7 10 16 0 9 9 18 20 21 11 3 20 9 20 14 0 13 -34 11 -48 -3z"/>
<path d="M1640 3610 c0 -5 5 -10 10 -10 6 0 10 5 10 10 0 6 -4 10 -10 10 -5 0 -10 -4 -10 -10z"/>
<path d="M2100 3585 c0 -14 5 -25 10 -25 6 0 10 11 10 25 0 14 -4 25 -10 25 -5 0 -10 -11 -10 -25z"/>
<path d="M2020 3590 c0 -5 5 -10 10 -10 6 0 10 5 10 10 0 6 -4 10 -10 10 -5 0 -10 -4 -10 -10z"/>
<path d="M1870 3525 c-6 -8 -8 -20 -4 -26 5 -9 11 -7 21 6 23 33 9 51 -17 20z"/>
<path d="M2040 3510 c0 -5 5 -10 10 -10 6 0 10 5 10 10 0 6 -4 10 -10 10 -5 0 -10 -4 -10 -10z"/>
<path d="M1920 3490 c0 -5 5 -10 10 -10 6 0 10 5 10 10 0 6 -4 10 -10 10 -5 0 -10 -4 -10 -10z"/>
<path d="M1860 3470 c0 -5 5 -10 10 -10 6 0 10 5 10 10 0 6 -4 10 -10 10 -5 0 -10 -4 -10 -10z"/>
<path d="M2010 3465 c-7 -9 -10 -18 -7 -22 8 -7 37 15 37 28 0 14 -16 11 -30 -6z"/>
<path d="M2055 3410 c-11 -13 -25 -18 -37 -14 -11 3 -18 0 -18 -7 0 -7 3 -9 7 -6 3 4 16 -2 29 -14 19 -18 25 -19 42 -8 18 11 27 10 63 -9 l42 -23 29 28 c35 34 36 44 0 37 -20 -4 -33 0 -46 15 -26 28 -86 28 -111 1z"/>
<path d="M1724 2680 c-64 -32 -206 -223 -220 -295 -3 -19 -10 -38 -15 -41 -12 -7 -12 -64 0 -64 5 0 11 9 14 20 4 14 14 20 35 20 17 0 34 -4 37 -10 3 -5 30 -10 60 -10 30 0 57 -4 60 -10 3 -5 30 -10 60 -10 30 0 57 -4 60 -10 3 -5 26 -10 50 -10 24 0 47 -4 50 -10 3 -5 30 -10 60 -10 30 0 57 -4 60 -10 3 -5 30 -10 59 -10 28 0 57 -5 63 -11 5 -5 36 -9 68 -7 l59 3 64 115 c71 127 125 213 155 247 37 41 -9 63 -148 69 -96 4 -294 22 -303 28 -5 3 -66 10 -135 16 -70 6 -133 13 -140 15 -6 3 -31 -4 -53 -15z"/>
<path d="M2603 2588 c-18 -13 -51 -47 -74 -77 -53 -68 -179 -280 -179 -302 0 -30 34 -49 88 -49 28 0 54 -4 57 -10 3 -5 26 -10 50 -10 24 0 47 -4 50 -10 3 -5 30 -10 60 -10 30 0 57 -4 60 -10 3 -5 30 -10 60 -10 30 0 57 -4 60 -10 3 -5 26 -10 50 -10 24 0 47 -4 50 -10 3 -5 30 -10 59 -10 28 0 56 -4 62 -9 5 -5 27 -11 49 -13 32 -2 39 -7 37 -20 -4 -22 25 -23 52 -3 10 8 23 12 28 9 5 -3 14 -2 21 4 16 12 93 31 142 34 31 2 42 9 52 28 7 14 19 24 27 22 10 -2 13 4 9 18 -6 24 43 82 92 107 62 33 230 10 280 -37 l23 -22 46 21 c30 13 50 29 56 46 13 35 13 154 -1 193 -13 38 25 31 -379 72 -58 6 -143 15 -190 20 -89 10 -226 24 -395 41 -55 5 -138 14 -185 19 -196 22 -183 22 -217 -2z"/>
<path d="M3990 2453 c0 -5 12 -16 28 -23 103 -52 240 -179 267 -247 19 -49 25 -51 50 -23 39 44 65 15 96 -111 22 -87 21 -140 -3 -206 -15 -41 -9 -47 27 -29 16 8 32 13 37 10 11 -7 10 -52 -2 -59 -17 -10 -11 -25 9 -25 13 0 21 8 23 22 3 20 8 22 53 19 28 -1 54 -7 60 -12 14 -13 36 -11 56 6 20 19 16 42 -32 193 -53 164 -129 299 -232 407 l-52 55 -105 10 c-188 19 -280 23 -280 13z"/>
<path d="M4490 2415 c0 -4 20 -29 43 -55 24 -27 60 -80 80 -117 36 -69 147 -380 147 -413 0 -9 9 -25 20 -35 11 -10 20 -26 20 -37 0 -14 8 -18 34 -18 19 0 38 -4 41 -10 3 -5 26 -10 50 -10 24 0 47 -4 50 -10 3 -5 30 -10 60 -10 30 0 57 -4 60 -10 3 -5 30 -10 60 -10 30 0 57 -4 60 -10 3 -5 26 -10 50 -10 24 0 47 -4 50 -10 3 -5 30 -10 59 -10 28 0 57 -5 64 -12 9 -9 15 -9 23 -1 6 6 18 9 25 6 10 -4 14 3 14 21 0 37 72 251 109 324 41 82 58 71 20 -13 -42 -93 -74 -210 -108 -401 -45 -246 -54 -347 -55 -559 0 -225 3 -243 41 -241 44 2 53 13 53 66 0 27 5 52 10 55 6 3 10 30 10 60 0 30 5 57 10 60 6 3 10 28 10 55 0 27 5 52 10 55 6 3 10 28 10 55 0 27 4 51 9 54 17 11 19 90 3 102 -9 6 -13 18 -9 28 6 14 11 15 28 6 l21 -12 -7 50 c-4 32 -3 52 4 57 6 3 11 28 11 55 0 27 5 52 10 55 6 3 10 33 10 65 0 46 4 61 18 69 16 9 16 11 -3 26 l-20 16 23 15 c19 14 22 25 22 80 0 34 5 66 10 69 6 3 10 30 10 60 0 30 5 57 10 60 6 3 10 28 10 54 0 31 5 53 15 61 19 16 20 80 2 80 -8 0 -22 -9 -32 -20 -24 -27 -40 -14 -20 17 26 38 13 51 -57 57 -198 18 -234 22 -243 28 -6 3 -44 8 -85 9 -41 1 -82 6 -91 11 -16 7 -55 12 -286 39 -46 5 -120 13 -165 18 -46 6 -126 15 -178 20 -52 6 -107 14 -122 17 -16 3 -28 3 -28 -1z m614 -206 c-3 -5 -10 -7 -15 -3 -5 3 -7 10 -3 15 3 5 10 7 15 3 5 -3 7 -10 3 -15z m571 -139 c-5 -8 -11 -8 -17 -2 -6 6 -7 16 -3 22 5 8 11 8 17 2 6 -6 7 -16 3 -22z"/>
<path d="M3580 2190 c0 -5 14 -10 30 -10 17 0 30 5 30 10 0 6 -13 10 -30 10 -16 0 -30 -4 -30 -10z"/>
<path d="M3520 2170 c0 -5 5 -10 10 -10 6 0 10 5 10 10 0 6 -4 10 -10 10 -5 0 -10 -4 -10 -10z"/>
<path d="M3720 2150 c0 -5 5 -10 10 -10 6 0 10 5 10 10 0 6 -4 10 -10 10 -5 0 -10 -4 -10 -10z"/>
<path d="M3760 2110 c0 -5 5 -10 10 -10 6 0 10 5 10 10 0 6 -4 10 -10 10 -5 0 -10 -4 -10 -10z"/>
<path d="M2365 2050 c-7 -11 0 -13 27 -11 9 1 31 -5 47 -14 24 -12 31 -12 31 -3 0 27 -91 51 -105 28z"/>
<path d="M3540 1990 c0 -5 5 -10 10 -10 6 0 10 5 10 10 0 6 -4 10 -10 10 -5 0 -10 -4 -10 -10z"/>
<path d="M3380 1970 c0 -5 5 -10 10 -10 6 0 10 5 10 10 0 6 -4 10 -10 10 -5 0 -10 -4 -10 -10z"/>
<path d="M3420 1950 c0 -5 5 -10 10 -10 6 0 10 5 10 10 0 6 -4 10 -10 10 -5 0 -10 -4 -10 -10z"/>
<path d="M3550 1931 c0 -15 16 -22 34 -15 25 9 19 24 -9 24 -14 0 -25 -4 -25 -9z"/>
<path d="M3620 1930 c0 -5 11 -10 25 -10 14 0 25 5 25 10 0 6 -11 10 -25 10 -14 0 -25 -4 -25 -10z"/>
<path d="M3432 1908 c-7 -7 -12 -28 -12 -47 0 -29 -7 -42 -37 -67 -33 -28 -36 -33 -23 -49 9 -11 24 -15 42 -13 16 3 31 1 34 -4 9 -15 26 -8 20 8 -3 9 3 27 14 41 24 31 26 90 4 121 -17 25 -25 27 -42 10z"/>
<path d="M3700 1910 c0 -5 5 -10 10 -10 6 0 10 5 10 10 0 6 -4 10 -10 10 -5 0 -10 -4 -10 -10z"/>
<path d="M3560 1890 c0 -5 5 -10 10 -10 6 0 10 5 10 10 0 6 -4 10 -10 10 -5 0 -10 -4 -10 -10z"/>
<path d="M3560 1775 c0 -8 5 -15 10 -15 6 0 10 7 10 15 0 8 -4 15 -10 15 -5 0 -10 -7 -10 -15z"/>
<path d="M3260 1765 c0 -8 5 -15 10 -15 6 0 10 7 10 15 0 8 -4 15 -10 15 -5 0 -10 -7 -10 -15z"/>
<path d="M3710 1765 c-7 -9 -10 -18 -7 -22 8 -7 37 15 37 28 0 14 -16 11 -30 -6z"/>
<path d="M3300 1745 c0 -8 5 -15 10 -15 6 0 10 7 10 15 0 8 -4 15 -10 15 -5 0 -10 -7 -10 -15z"/>
<path d="M3485 1750 c-3 -5 -1 -10 4 -10 6 0 11 5 11 10 0 6 -2 10 -4 10 -3 0 -8 -4 -11 -10z"/>
<path d="M3680 1710 c0 -5 5 -10 10 -10 6 0 10 5 10 10 0 6 -4 10 -10 10 -5 0 -10 -4 -10 -10z"/>
<path d="M3260 1690 c0 -5 5 -10 10 -10 6 0 10 5 10 10 0 6 -4 10 -10 10 -5 0 -10 -4 -10 -10z"/>
<path d="M3320 1670 c0 -5 7 -10 15 -10 8 0 15 5 15 10 0 6 -7 10 -15 10 -8 0 -15 -4 -15 -10z"/>
<path d="M3480 1650 c0 -5 16 -10 35 -10 19 0 35 5 35 10 0 6 -16 10 -35 10 -19 0 -35 -4 -35 -10z"/>
<path d="M3077 1633 c-4 -3 -7 -21 -7 -38 0 -36 -23 -62 -60 -67 -20 -2 -25 -9 -26 -35 l-2 -31 47 -4 c31 -3 49 0 54 9 4 7 16 13 27 13 14 0 20 8 22 33 2 26 7 32 25 30 24 -3 38 23 28 50 -4 8 -2 18 4 22 20 12 11 22 -19 22 -32 0 -37 -6 -19 -24 6 -6 7 -13 1 -17 -5 -3 -20 6 -32 19 -25 26 -32 29 -43 18z"/>
<path d="M3600 1630 c0 -5 5 -10 10 -10 6 0 10 5 10 10 0 6 -4 10 -10 10 -5 0 -10 -4 -10 -10z"/>
<path d="M3340 1610 c0 -5 5 -10 10 -10 6 0 10 5 10 10 0 6 -4 10 -10 10 -5 0 -10 -4 -10 -10z"/>
<path d="M3640 1610 c0 -5 5 -10 10 -10 6 0 10 5 10 10 0 6 -4 10 -10 10 -5 0 -10 -4 -10 -10z"/>
<path d="M3220 1590 c0 -5 5 -10 10 -10 6 0 10 5 10 10 0 6 -4 10 -10 10 -5 0 -10 -4 -10 -10z"/>
<path d="M3300 1590 c0 -5 5 -10 10 -10 6 0 10 5 10 10 0 6 -4 10 -10 10 -5 0 -10 -4 -10 -10z"/>
</g>
</g>
  <g id="id4:id4" transform="matrix(1.25,0,0,1.25,0.0,0.0)"><g transform="translate(0.000000,241.600000) scale(0.040000,-0.040000)" fill="#000000" stroke="none">
<path d="M1533 5743 c-21 -8 -15 -20 12 -25 30 -6 39 1 24 19 -12 14 -16 15 -36 6z"/>
<path d="M2727 5705 c-285 -82 -517 -110 -852 -102 -259 6 -390 20 -543 59 -70 18 -85 19 -92 8 -17 -27 9 -45 97 -68 225 -59 296 -66 658 -66 243 1 330 4 400 17 50 9 108 19 130 23 104 17 335 93 364 120 12 11 12 16 1 28 -17 21 -25 20 -163 -19z"/>
<path d="M1925 5720 c-4 -7 -3 -16 3 -22 14 -14 45 -2 40 15 -6 16 -34 21 -43 7z"/>
<path d="M2217 5666 c-7 -18 1 -26 25 -26 11 0 18 7 18 20 0 23 -35 28 -43 6z"/>
<path d="M2935 5650 c-8 -13 -21 -253 -34 -602 -5 -135 -12 -251 -15 -257 -5 -7 -29 5 -69 33 -196 139 -493 229 -798 243 -164 7 -276 -10 -449 -69 -150 -51 -384 -166 -454 -223 -36 -29 -58 -41 -60 -33 -3 7 -7 143 -10 303 -6 291 -9 311 -43 298 -10 -4 -13 -67 -13 -327 0 -409 8 -593 27 -600 33 -13 43 5 43 81 l0 74 58 61 c148 155 426 286 711 333 248 42 579 -8 800 -119 78 -39 185 -112 225 -155 l29 -30 -5 -145 c-2 -81 -9 -151 -14 -156 -7 -7 -25 10 -55 51 -65 90 -89 104 -172 102 -70 -2 -142 -31 -194 -76 -19 -17 -25 -18 -38 -7 -8 7 -15 23 -15 36 0 45 -48 129 -110 189 l-61 60 -49 0 c-69 0 -101 -32 -108 -108 -2 -30 1 -71 7 -90 11 -32 17 -36 64 -47 81 -19 147 -92 128 -143 -9 -24 -68 -81 -93 -90 -9 -3 -10 -8 -2 -16 15 -16 64 10 108 59 29 33 35 45 30 67 -9 33 -46 92 -59 93 -5 0 -29 18 -52 39 l-43 38 8 74 c6 68 9 74 31 77 31 5 103 -65 136 -132 20 -39 25 -65 25 -120 0 -145 -35 -196 -173 -252 -92 -37 -129 -37 -81 1 32 25 26 52 -7 34 -42 -22 -65 14 -35 57 33 47 28 169 -10 247 -39 76 -50 95 -76 125 -15 18 -28 37 -28 42 0 6 -5 10 -12 10 -6 0 -22 10 -34 21 -66 62 -240 130 -258 101 -3 -6 5 -36 18 -66 14 -31 21 -58 16 -61 -5 -3 -11 -1 -15 5 -8 13 -122 13 -130 0 -4 -6 0 -22 9 -35 18 -27 4 -44 -19 -25 -23 19 -112 7 -176 -22 -66 -30 -159 -97 -159 -114 0 -16 48 -46 61 -38 6 3 19 -2 30 -12 26 -23 37 -10 13 17 l-19 21 27 23 c48 41 130 65 224 65 l85 0 -3 33 -3 32 60 0 c70 0 85 7 85 40 0 35 12 37 65 10 66 -33 172 -139 201 -200 28 -59 32 -144 9 -199 -17 -41 -22 -44 -33 -18 -20 45 -49 83 -74 93 -33 13 -91 5 -108 -16 -7 -8 -19 -15 -26 -15 -8 0 -14 -4 -14 -9 0 -5 -12 -24 -26 -41 -25 -29 -28 -30 -44 -15 -32 29 -86 37 -162 25 -57 -10 -78 -19 -109 -47 -22 -20 -42 -47 -45 -62 -11 -46 -31 -61 -66 -49 -26 9 -135 7 -178 -3 -23 -6 -15 31 24 116 30 64 32 76 20 86 -20 16 -52 -15 -74 -72 -9 -22 -20 -41 -26 -42 -5 -1 -10 23 -12 55 -3 58 -15 74 -48 61 -15 -6 -16 -24 -10 -172 3 -91 11 -355 16 -586 11 -467 26 -995 36 -1303 l7 -202 41 -38 c23 -21 81 -57 130 -81 l88 -43 -5 -33 c-4 -23 -1 -38 9 -46 21 -18 41 4 48 54 4 23 16 95 28 160 17 91 19 120 9 130 -20 20 -45 -6 -53 -54 -12 -78 -33 -124 -56 -122 -21 2 -121 59 -159 90 l-22 18 -10 294 c-6 161 -8 298 -5 303 4 5 13 3 22 -6 29 -26 154 -92 247 -131 123 -52 123 -51 88 -113 -15 -28 -25 -53 -22 -56 3 -3 22 -1 43 5 31 8 44 22 83 82 60 95 128 174 165 193 25 13 44 14 116 5 191 -22 218 -23 231 -7 24 28 -3 44 -87 51 -124 10 -226 25 -235 34 -4 4 -1 14 8 21 23 19 18 30 -15 30 -26 0 -31 -5 -37 -31 -3 -19 -18 -38 -38 -52 -18 -12 -54 -48 -80 -80 -53 -66 -52 -66 -151 -22 -33 14 -53 29 -49 35 4 6 16 8 27 4 15 -5 19 -2 16 12 -5 26 -34 29 -54 5 l-17 -20 -51 26 c-74 37 -186 113 -203 139 -17 27 -30 337 -35 864 l-3 344 55 17 c85 27 114 24 145 -13 21 -25 25 -37 19 -57 -4 -14 -8 -71 -8 -126 -1 -85 3 -106 22 -143 24 -45 99 -101 136 -103 41 -1 100 -42 106 -74 15 -71 66 -132 174 -208 22 -15 26 -26 26 -64 0 -97 26 -136 163 -245 21 -17 38 -42 46 -70 18 -61 59 -116 102 -139 69 -35 189 -19 189 26 0 30 19 22 76 -28 76 -67 95 -77 143 -77 61 0 92 32 98 101 4 44 11 61 38 89 40 42 59 107 50 168 -9 60 -71 126 -145 156 -46 19 -55 27 -63 56 -5 21 -26 49 -53 73 -24 21 -44 46 -43 55 0 10 10 37 22 61 16 32 30 47 51 52 16 5 39 18 53 31 32 30 57 119 49 176 -8 57 -63 178 -85 186 -9 4 -28 13 -43 22 -24 13 -26 18 -17 41 13 34 3 98 -24 145 -23 41 -26 34 50 131 35 44 113 94 127 80 2 -3 -1 -19 -9 -37 -26 -61 -38 -115 -32 -145 4 -17 2 -33 -3 -36 -18 -11 -10 -25 13 -25 13 0 34 -11 47 -25 13 -14 29 -25 36 -25 8 0 23 -13 36 -30 26 -36 55 -39 60 -8 2 16 13 25 43 33 22 5 59 20 82 31 23 12 44 19 47 16 4 -3 6 -215 6 -471 0 -256 5 -547 10 -646 l10 -180 -33 -28 c-17 -15 -72 -47 -122 -72 l-90 -44 -100 9 c-55 6 -110 12 -121 15 -21 5 -74 -27 -74 -45 0 -5 34 -11 75 -15 41 -4 78 -11 81 -16 3 -5 -8 -26 -23 -47 -134 -174 -275 -477 -314 -673 -42 -218 -23 -484 52 -719 27 -87 100 -272 112 -288 6 -8 7 -16 1 -22 -10 -10 -316 11 -459 30 -44 6 -107 15 -140 20 -104 14 -203 38 -229 56 -27 18 -50 0 -36 -27 14 -24 112 -53 270 -79 117 -19 595 -78 705 -87 106 -9 638 -65 795 -84 323 -38 400 -49 422 -59 13 -5 84 -16 158 -25 74 -8 212 -28 305 -45 324 -58 641 -111 925 -155 242 -37 287 -41 299 -30 20 20 -1 43 -48 50 -20 4 -65 12 -101 20 -36 7 -96 17 -135 20 -38 4 -97 13 -130 20 -33 7 -87 16 -120 19 -127 14 -321 49 -334 62 -12 11 -8 19 27 55 23 23 42 43 42 46 0 2 22 41 50 86 155 255 253 657 220 907 -19 140 -18 145 7 148 24 4 35 24 26 48 -3 9 -12 13 -22 8 -36 -15 -42 -6 -96 151 -62 180 -113 290 -156 340 -17 19 -25 36 -20 40 6 3 52 1 103 -4 132 -15 260 -29 353 -41 303 -36 334 -36 320 2 -6 16 -39 22 -257 48 -46 5 -123 14 -173 20 -233 28 -357 42 -527 60 -54 5 -141 15 -193 20 -52 6 -137 14 -187 20 -51 5 -140 14 -198 20 -58 6 -143 15 -190 20 -47 5 -137 14 -200 20 -210 21 -244 28 -259 50 -17 25 -29 25 -55 1 -19 -18 -26 -19 -81 -8 l-60 12 -8 170 c-14 292 -13 1456 1 1700 15 256 28 562 38 897 6 186 4 240 -6 253 -15 18 -26 19 -35 5z m-250 -1214 c53 -25 114 -84 133 -128 18 -43 -5 -44 -27 -1 -32 64 -117 108 -200 105 -38 -2 -134 -44 -167 -74 -39 -35 -34 -2 4 35 24 23 63 46 107 61 87 31 89 31 150 2z m34 -109 c40 -20 25 -32 -37 -29 -44 3 -61 0 -71 -12 -23 -28 -32 -6 -11 25 17 23 29 29 58 29 20 0 48 -6 61 -13z m-814 -39 c32 -25 65 -97 65 -140 0 -17 -5 -48 -12 -70 -26 -86 -120 -117 -179 -59 -27 27 -29 35 -29 103 1 146 76 228 155 166z m848 -54 c-9 -23 -50 -36 -74 -23 -29 15 -18 35 18 31 17 -2 34 2 38 8 9 15 25 2 18 -16z m-1135 -23 c98 -50 78 -183 -33 -224 -71 -27 -121 -18 -162 27 -37 40 -42 79 -19 125 19 35 39 52 90 73 54 22 79 22 124 -1z m999 -55 c10 -10 29 -22 42 -27 18 -7 21 -13 13 -21 -25 -25 -112 26 -112 66 0 32 12 40 27 19 7 -10 20 -26 30 -37z m207 31 c-15 -26 -37 -46 -45 -41 -5 3 1 18 13 34 20 27 46 33 32 7z m-525 -77 c61 -31 70 -88 22 -135 -26 -24 -35 -27 -73 -22 -80 11 -129 106 -81 159 22 24 83 23 132 -2z m-189 -96 c17 -15 37 -42 45 -61 19 -46 19 -141 0 -186 -38 -92 -161 -115 -211 -40 -9 14 -18 51 -21 83 -16 169 90 285 187 204z m-381 -23 c11 -16 41 -38 66 -50 42 -20 45 -24 44 -59 -1 -20 -4 -48 -8 -62 -6 -23 -12 -25 -52 -22 -35 3 -53 -2 -83 -23 -48 -33 -62 -23 -71 49 -8 64 7 125 41 166 32 37 37 37 63 1z m-207 -84 c107 -89 81 -287 -37 -287 -55 0 -115 89 -115 169 0 44 31 115 57 130 29 17 66 13 95 -12z m884 -51 c46 -46 50 -60 45 -156 -10 -166 -170 -154 -211 15 -23 98 20 185 93 185 22 0 41 -12 73 -44z m-590 -123 c49 -24 74 -75 74 -153 0 -74 -17 -117 -59 -153 -66 -55 -158 -22 -181 64 -22 81 16 205 74 240 38 23 46 23 92 2z m389 -89 c34 -16 76 -68 95 -118 29 -79 -48 -108 -128 -49 -60 45 -81 124 -42 163 24 24 32 25 75 4z m-181 -45 c54 -64 19 -163 -58 -163 -53 0 -62 14 -37 62 12 23 21 59 21 80 0 21 3 42 7 45 15 15 43 5 67 -24z m119 -150 c12 -6 32 -21 44 -32 18 -16 25 -18 37 -8 16 14 48 -1 99 -48 61 -55 76 -138 34 -186 l-23 -27 -36 15 -37 15 6 56 c6 57 -17 146 -38 146 -10 0 -11 -8 -9 -71 2 -63 -16 -126 -45 -155 -65 -65 -159 12 -172 141 -12 117 59 196 140 154z m-192 -150 c4 -50 14 -82 43 -134 35 -65 37 -70 20 -82 -40 -29 -115 -10 -164 42 -22 23 -25 35 -25 99 1 51 6 79 18 96 21 30 56 50 82 47 17 -2 21 -12 26 -68z m579 -128 c48 -25 80 -75 80 -123 0 -33 -5 -41 -32 -58 -18 -11 -38 -20 -45 -20 -7 0 -28 24 -47 53 -19 29 -49 63 -65 75 -80 59 16 123 109 73z m-326 -93 c38 -61 26 -150 -29 -205 -38 -38 -62 -41 -98 -13 -53 42 -44 130 20 201 42 46 84 53 107 17z m200 -12 c52 -39 88 -117 90 -193 1 -74 -13 -93 -64 -85 -39 6 -115 78 -140 135 -24 51 -25 115 -4 145 21 30 77 30 118 -2z m474 -412 c-3 -27 -6 -29 -38 -26 -52 5 -56 17 -14 46 43 29 57 23 52 -20z m-128 -74 c52 -5 140 -14 195 -20 55 -6 141 -15 190 -20 329 -32 411 -40 505 -50 58 -6 148 -15 200 -20 52 -5 96 -9 98 -10 7 0 32 -71 32 -90 0 -13 -10 -24 -25 -30 -18 -7 -25 -17 -25 -36 0 -19 4 -25 15 -20 23 9 30 -22 10 -43 -9 -11 -30 -25 -46 -31 -26 -11 -33 -10 -52 7 -35 31 -75 43 -157 50 -120 9 -192 -26 -240 -120 -36 -69 -47 -77 -107 -77 -56 0 -123 -21 -123 -39 0 -6 -15 -17 -32 -25 -18 -7 -46 -27 -62 -44 l-28 -30 -45 13 c-80 24 -187 -10 -252 -79 -15 -16 -31 -24 -42 -21 -10 3 -19 -1 -23 -10 -3 -10 -19 -15 -45 -15 -93 0 -179 -68 -201 -158 -13 -56 -5 -83 31 -103 l21 -11 -18 -19 c-9 -10 -23 -19 -29 -19 -18 0 -84 -55 -112 -92 -47 -64 -19 -147 54 -163 49 -11 52 -13 73 -55 27 -53 100 -90 176 -90 43 0 58 5 92 33 23 17 56 51 74 75 29 37 37 42 74 42 43 0 93 20 114 45 16 20 44 19 61 -1 7 -9 23 -20 36 -25 18 -7 23 -16 23 -46 1 -48 15 -74 62 -111 51 -40 114 -56 193 -49 73 7 114 25 151 67 24 26 28 28 48 15 34 -21 117 -28 148 -11 l27 14 44 -51 c66 -78 102 -158 81 -180 -6 -6 -114 63 -114 74 0 4 6 12 14 18 14 12 11 51 -5 51 -5 0 -15 -14 -24 -30 -10 -20 -23 -30 -38 -30 -37 -1 -100 -35 -133 -72 -37 -42 -49 -100 -35 -173 5 -27 7 -53 4 -58 -2 -4 -25 -5 -51 -3 -108 11 -235 27 -242 31 -10 6 -158 23 -353 40 -93 8 -172 17 -177 20 -5 3 -65 10 -133 15 -197 15 -205 17 -226 59 -47 92 -139 362 -165 486 -24 113 -27 178 -16 303 26 277 81 450 221 689 80 136 168 243 199 243 8 0 58 -5 110 -10z m1490 -154 l135 -14 46 -50 c58 -63 110 -142 159 -240 34 -69 56 -133 104 -307 27 -95 39 -201 39 -335 0 -111 -6 -157 -28 -255 -64 -278 -166 -481 -309 -613 -48 -44 -48 -44 -166 -22 -25 4 -54 9 -65 9 -96 6 -152 15 -173 29 l-24 16 46 43 c26 23 51 54 56 69 15 39 11 112 -10 189 -10 38 -17 72 -15 76 3 3 37 9 77 12 78 5 152 32 183 67 10 11 23 20 29 20 6 0 21 17 33 38 18 32 20 45 13 78 -14 60 -61 88 -165 96 l-40 3 -25 -52 c-14 -28 -34 -61 -44 -72 -34 -37 -8 -34 38 4 l46 37 49 -21 c28 -11 56 -21 65 -21 21 0 28 -15 20 -45 -8 -32 -76 -68 -162 -86 -100 -21 -214 10 -266 71 -32 39 -58 119 -54 170 3 42 21 56 26 20 2 -11 7 -20 12 -20 10 0 23 67 16 79 -3 5 1 14 9 21 11 9 26 4 76 -27 52 -32 74 -39 132 -43 38 -3 70 -3 73 1 2 3 23 9 48 12 24 4 69 18 99 32 31 14 60 25 64 25 17 0 122 117 161 180 49 78 44 89 -30 79 -58 -7 -78 1 -58 26 10 12 10 18 0 29 -17 22 -36 9 -54 -35 -21 -53 -21 -79 2 -79 10 0 26 -6 36 -13 17 -12 13 -18 -47 -73 -138 -126 -276 -169 -382 -116 -66 32 -79 62 -27 62 33 0 112 75 112 106 0 35 -21 87 -50 124 l-27 35 28 28 c56 55 72 203 29 269 -14 20 -29 37 -34 38 -6 0 -22 11 -36 25 l-27 26 26 52 c18 36 26 70 28 112 2 71 15 80 58 35 16 -16 34 -30 40 -30 28 0 111 -107 135 -173 6 -16 16 -27 23 -25 23 8 19 51 -9 105 -38 71 -81 113 -207 198 -41 28 -41 50 1 40 15 -3 88 -12 162 -19z m-544 -256 c56 -28 78 -54 78 -96 0 -45 -34 -79 -96 -95 -41 -11 -55 -10 -104 5 -71 22 -104 56 -104 106 0 83 126 128 226 80z m290 -95 c57 -36 78 -163 36 -222 -49 -69 -154 -65 -197 7 -28 48 -27 149 2 188 35 48 106 60 159 27z m-609 -101 c62 -18 137 -82 148 -126 10 -39 -21 -97 -61 -114 -75 -32 -170 -11 -231 51 -35 35 -43 49 -43 80 0 67 50 121 113 124 11 1 44 -6 74 -15z m344 -69 c47 -24 93 -78 86 -99 -2 -6 -17 -13 -33 -18 -16 -4 -45 -25 -64 -47 -32 -37 -39 -40 -71 -35 -19 3 -46 14 -59 24 l-23 17 17 42 16 42 -19 44 c-11 24 -17 46 -13 49 16 17 116 5 163 -19z m-670 -36 c50 -25 87 -95 69 -130 -8 -14 -17 -18 -28 -14 -69 29 -72 29 -150 12 -123 -28 -117 -30 -115 27 1 38 7 55 30 78 15 17 37 34 48 38 37 16 105 11 146 -11z m867 -136 c72 -23 132 -80 132 -126 0 -53 -63 -97 -138 -97 -54 0 -137 42 -156 79 -31 59 -14 124 36 146 43 19 61 18 126 -2z m-1172 -34 c20 -19 45 -51 56 -72 18 -36 18 -40 3 -57 -42 -46 -154 -31 -205 26 -38 44 -42 104 -7 129 37 27 111 15 153 -26z m574 -24 c73 -16 59 -67 -24 -86 -46 -10 -57 -9 -77 4 -29 21 -49 7 -49 -34 0 -21 -11 -37 -46 -65 -28 -23 -47 -48 -51 -66 -17 -86 -175 -127 -239 -63 -26 26 -24 46 9 82 l19 22 38 -20 c47 -24 135 -24 135 1 0 9 -11 16 -30 18 -68 7 -149 64 -160 113 -14 64 51 109 157 109 65 0 113 -16 142 -49 27 -30 40 -26 32 10 -3 19 0 42 9 59 l15 29 46 -29 c25 -16 59 -32 74 -35z m327 -62 c104 -54 131 -129 69 -188 -122 -115 -359 0 -313 151 25 81 130 97 244 37z m-322 -118 c40 -39 29 -70 -43 -116 -36 -23 -58 -29 -99 -29 -54 0 -73 14 -73 56 0 23 82 101 112 107 55 10 80 6 103 -18z m-633 5 c42 -12 61 -39 60 -83 -1 -38 -17 -56 -77 -83 -37 -18 -68 -24 -120 -24 -85 0 -119 15 -123 54 -6 47 58 102 153 132 50 16 61 16 107 4z m1076 -146 c48 -33 16 -135 -56 -177 l-32 -19 -32 19 c-41 24 -54 64 -36 118 21 63 104 95 156 59z m-969 -10 c20 -14 23 -23 18 -61 -7 -69 -78 -133 -147 -133 -44 0 -82 40 -78 83 3 29 8 34 53 49 28 9 66 30 85 47 42 36 39 35 69 15z m654 0 c106 -36 119 -142 23 -188 -67 -31 -179 -15 -228 34 -40 41 -38 83 7 126 49 46 117 56 198 28z m537 -362 c17 -58 23 -127 16 -166 -12 -63 -100 -144 -173 -160 -48 -11 -49 10 -1 32 55 24 107 68 120 101 30 74 26 170 -10 238 -6 11 -8 24 -4 27 10 11 40 -31 52 -72z m-223 -59 c2 -6 -12 -19 -32 -29 -20 -9 -44 -28 -52 -41 -25 -38 -40 -12 -16 29 28 49 89 74 100 41z m123 -100 c0 -46 -47 -112 -70 -98 -8 5 -7 12 3 23 23 27 38 82 27 102 -5 9 -6 20 -3 24 11 11 43 -26 43 -51z m-105 -2 c3 -5 0 -21 -6 -35 -9 -19 -9 -29 -1 -39 18 -21 1 -29 -20 -10 -21 18 -22 31 -8 67 10 27 24 33 35 17z m-61 -153 c-4 -5 -19 3 -35 18 -15 15 -26 31 -23 36 4 5 19 -3 35 -18 15 -15 26 -31 23 -36z"/>
<path d="M2435 1038 c-3 -7 -6 -24 -7 -38 -3 -21 2 -26 25 -28 l28 -3 -3 38 c-2 27 -8 39 -21 41 -9 2 -19 -2 -22 -10z"/>
<path d="M2537 950 c-3 -13 0 -20 9 -20 8 0 14 9 14 20 0 11 -4 20 -9 20 -5 0 -11 -9 -14 -20z"/>
<path d="M1916 5397 c-17 -13 -16 -14 13 -27 36 -14 50 -7 35 17 -14 23 -27 26 -48 10z"/>
<path d="M2696 5228 c-35 -50 -3 -66 49 -24 l30 24 -28 11 c-36 14 -33 15 -51 -11z"/>
<path d="M1142 5147 c-14 -16 -6 -27 20 -27 13 0 18 6 16 17 -4 22 -22 27 -36 10z"/>
<path d="M1897 2473 c-16 -15 -6 -33 18 -33 18 0 25 5 25 20 0 20 -28 28 -43 13z"/>
<path d="M1620 2411 c0 -11 -4 -23 -10 -26 -16 -10 -11 -25 9 -25 30 0 45 24 29 49 -16 26 -28 27 -28 2z"/>
<path d="M5708 2183 c-20 -24 -79 -125 -116 -199 -66 -131 -127 -359 -153 -569 -45 -362 -48 -455 -24 -655 32 -265 74 -386 119 -340 13 13 12 31 -10 145 -60 323 -58 579 7 955 50 288 83 391 181 582 36 70 41 98 19 98 -4 0 -15 -8 -23 -17z"/>
<path d="M1600 1935 c-16 -19 -5 -47 17 -43 11 2 18 12 18 27 0 29 -17 37 -35 16z"/>
<path d="M5692 1768 c-7 -7 -12 -20 -12 -31 0 -30 34 -16 38 16 4 29 -6 35 -26 15z"/>
<path d="M5613 1364 c-9 -23 13 -40 32 -24 8 7 15 19 15 26 0 19 -39 18 -47 -2z"/>
<path d="M1530 1315 c0 -13 35 -75 42 -75 5 0 13 11 20 25 8 19 8 28 -2 40 -11 13 -60 22 -60 10z"/>
<path d="M5901 1256 c-7 -8 -21 -65 -32 -128 -20 -120 -45 -223 -78 -327 -31 -96 -111 -281 -142 -328 -48 -73 -52 -83 -38 -99 19 -23 32 -16 73 39 101 137 184 367 232 642 34 201 34 199 21 207 -17 11 -23 10 -36 -6z"/>
<path d="M5516 1085 c-8 -23 4 -45 25 -45 14 0 19 7 19 30 0 23 -5 30 -19 30 -10 0 -21 -7 -25 -15z"/>
<path d="M4737 953 c-3 -4 -10 -34 -17 -67 -16 -78 -2 -93 42 -48 l32 32 -15 42 c-15 41 -32 57 -42 41z"/>
<path d="M5632 828 c-13 -13 -16 -48 -4 -48 14 0 32 23 32 42 0 21 -11 23 -28 6z"/>
<path d="M4950 675 c0 -13 19 -51 38 -75 7 -9 32 34 32 56 0 12 -7 25 -16 28 -28 11 -54 6 -54 -9z"/>
</g>
</g>
  <g id="id5:id5" transform="matrix(1.25,0,0,1.25,0.0,0.0)"><g transform="translate(0.000000,241.600000) scale(0.040000,-0.040000)" fill="#b4051e" stroke="none">
<path d="M1900 5906 c0 -14 37 -33 46 -23 2 2 2 12 -2 21 -8 20 -44 21 -44 2z"/>
<path d="M1809 4306 c-53 -36 -74 -86 -76 -181 -1 -70 -4 -80 -20 -80 -15 0 -18 9 -18 57 0 51 -4 61 -33 91 -58 60 -134 65 -211 14 -42 -28 -81 -90 -81 -129 0 -28 29 -74 66 -103 l28 -22 -29 -14 c-102 -49 -102 -227 0 -321 31 -28 41 -28 97 -5 31 13 81 97 72 120 -9 25 14 29 30 5 l16 -22 33 32 c33 33 51 39 61 23 3 -5 -9 -18 -28 -29 -86 -51 -117 -238 -52 -310 27 -30 68 -52 98 -52 27 0 88 35 106 62 l13 18 26 -20 c14 -11 39 -20 55 -20 33 0 47 -23 28 -46 -9 -10 -16 -12 -24 -4 -5 5 -26 10 -46 10 -49 0 -95 -48 -111 -115 -26 -114 41 -205 151 -205 52 0 90 13 90 30 0 5 -14 32 -31 60 -17 28 -32 56 -33 63 -1 6 -8 23 -15 36 -9 16 -10 26 -2 34 10 10 20 -3 25 -35 4 -27 45 -86 79 -113 l35 -28 -33 -46 c-18 -25 -38 -65 -45 -88 -11 -37 -10 -46 9 -86 22 -45 40 -57 90 -57 26 0 87 58 102 97 13 34 24 29 57 -31 52 -91 138 -145 190 -117 29 16 45 70 34 119 -11 46 -1 62 36 62 31 0 82 52 82 84 0 87 -72 152 -175 158 l-50 3 -6 42 c-6 50 -45 112 -94 149 l-36 27 27 22 c28 22 27 20 12 110 -2 14 2 19 12 16 78 -20 133 20 145 108 15 107 -16 182 -88 221 l-47 25 -37 -20 c-22 -11 -45 -35 -55 -55 -20 -39 -24 -130 -8 -161 16 -30 4 -39 -33 -25 -35 14 -52 12 -79 -12 -25 -21 -24 -97 1 -139 23 -37 20 -42 -21 -34 -29 6 -32 10 -33 46 -1 24 -11 55 -26 77 -21 33 -29 38 -61 38 -35 0 -38 -2 -38 -29 0 -31 -17 -51 -25 -29 -2 7 -9 33 -15 58 -9 32 -25 58 -57 88 -38 37 -42 44 -26 48 30 8 56 119 35 150 -4 5 -23 16 -42 23 -39 15 -73 48 -64 62 3 5 20 -2 38 -16 37 -28 74 -32 115 -10 16 8 31 12 33 10 3 -3 -3 -29 -13 -58 -23 -65 -24 -120 -3 -179 18 -53 35 -71 86 -87 31 -10 42 -9 82 10 26 12 55 33 65 48 27 37 43 106 39 165 l-3 51 62 -3 c56 -3 65 -1 88 22 19 19 25 35 25 70 0 38 -5 48 -35 74 -76 68 -195 45 -195 -36 0 -39 -8 -44 -41 -27 -35 19 -57 19 -91 1 -15 -8 -29 -12 -31 -9 -3 2 2 27 11 54 26 81 -5 167 -78 217 -41 28 -47 28 -91 -2z m-188 -347 c-2 -8 -7 -29 -11 -48 -13 -51 -22 -53 -58 -10 -35 41 -35 59 1 59 12 0 29 5 37 10 19 12 36 6 31 -11z m477 5 c31 -21 19 -34 -21 -22 -17 6 -38 13 -45 14 -20 6 -4 24 21 24 13 0 33 -7 45 -16z m-278 -284 c24 -13 43 -47 35 -60 -4 -6 -17 -2 -32 10 -15 12 -41 20 -63 20 -43 0 -54 8 -39 27 13 15 72 17 99 3z m105 -160 c-5 -8 -11 -8 -17 -2 -6 6 -7 16 -3 22 5 8 11 8 17 2 6 -6 7 -16 3 -22z m300 -89 c7 -12 -12 -24 -25 -16 -11 7 -4 25 10 25 5 0 11 -4 15 -9z m-62 -39 c10 -10 15 -21 11 -24 -8 -9 -65 23 -59 33 10 14 31 11 48 -9z m87 -181 c-6 -12 -8 -26 -5 -31 11 -18 74 -42 102 -38 22 2 28 -1 28 -17 0 -16 -6 -19 -27 -17 -19 2 -38 -7 -67 -33 l-40 -36 -16 30 c-8 17 -24 35 -35 41 l-21 11 30 38 c17 21 28 41 25 44 -3 3 0 15 6 27 8 15 15 19 22 12 7 -7 6 -17 -2 -31z m255 -61 c8 -13 -20 -24 -41 -16 -20 8 -9 26 16 26 10 0 22 -5 25 -10z m-110 -99 c7 -12 -12 -24 -25 -16 -11 7 -4 25 10 25 5 0 11 -4 15 -9z"/>
<path d="M2125 4209 c-4 -6 -5 -12 -3 -14 7 -7 48 7 48 16 0 13 -37 11 -45 -2z"/>
<path d="M2420 3930 c0 -5 5 -10 10 -10 6 0 10 5 10 10 0 6 -4 10 -10 10 -5 0 -10 -4 -10 -10z"/>
<path d="M2400 3530 c0 -5 5 -10 10 -10 6 0 10 5 10 10 0 6 -4 10 -10 10 -5 0 -10 -4 -10 -10z"/>
<path d="M2340 3417 c0 -13 60 -77 73 -77 15 0 6 19 -27 54 -37 39 -46 43 -46 23z"/>
<path d="M1880 3030 c0 -5 5 -10 10 -10 6 0 10 5 10 10 0 6 -4 10 -10 10 -5 0 -10 -4 -10 -10z"/>
<path d="M2250 2870 c0 -5 5 -10 10 -10 6 0 10 5 10 10 0 6 -4 10 -10 10 -5 0 -10 -4 -10 -10z"/>
<path d="M2300 2811 c0 -5 7 -11 14 -14 10 -4 13 -1 9 9 -6 15 -23 19 -23 5z"/>
<path d="M2077 2693 c-3 -5 -3 -19 0 -31 5 -19 12 -22 60 -22 30 0 86 -5 124 -12 l70 -11 24 23 c14 13 25 27 25 30 0 14 -295 36 -303 23z"/>
<path d="M1100 2310 c0 -16 5 -30 10 -30 6 0 10 14 10 30 0 17 -4 30 -10 30 -5 0 -10 -13 -10 -30z"/>
<path d="M3519 2184 c-44 -23 -62 -51 -62 -94 0 -33 7 -48 32 -74 18 -19 46 -37 63 -42 34 -10 39 -27 8 -32 -21 -4 -28 -36 -10 -47 6 -4 10 -12 9 -18 -1 -7 1 -20 5 -29 10 -23 0 -51 -15 -42 -6 3 -9 17 -6 30 6 33 -61 108 -122 136 -48 22 -129 35 -156 25 -21 -9 -30 -5 -30 12 0 18 -16 23 -35 11 -13 -8 -12 -11 4 -23 l19 -14 -21 -31 c-27 -37 -29 -108 -5 -150 l17 -29 -27 -32 c-15 -18 -27 -40 -27 -50 0 -27 -10 -31 -37 -14 l-24 16 21 22 c32 34 25 83 -20 138 -38 48 -159 65 -220 30 -57 -32 -100 -139 -68 -171 15 -15 53 -15 78 0 15 10 22 10 31 1 10 -10 7 -14 -13 -22 -13 -5 -38 -23 -55 -40 l-31 -30 -29 48 c-32 50 -96 91 -144 91 -35 0 -88 -36 -95 -65 -10 -41 4 -74 51 -119 46 -45 48 -56 8 -56 -13 0 -32 -5 -43 -12 -15 -10 -24 -9 -44 2 -29 15 -45 8 -28 -13 12 -14 -1 -36 -23 -38 -20 -1 -58 -61 -58 -92 0 -39 27 -59 102 -72 l56 -11 5 -51 c9 -87 45 -110 137 -88 52 12 117 93 125 154 l3 25 62 -3 c66 -3 97 9 152 54 l31 27 10 -26 c11 -30 50 -48 95 -44 25 2 29 0 27 -17 -2 -11 -8 -24 -13 -30 -5 -5 -9 -22 -9 -37 0 -37 65 -103 111 -112 83 -17 103 -18 144 -6 49 14 72 34 96 88 16 34 16 39 1 65 -9 16 -29 38 -44 48 -32 23 -120 51 -151 49 -39 -4 -41 0 -18 24 62 66 -23 155 -116 123 -19 -7 -25 -4 -35 18 -16 37 2 54 35 32 48 -31 157 17 157 69 0 13 -5 26 -10 29 -17 11 0 25 29 25 37 0 80 22 115 59 29 30 59 33 34 4 -10 -13 -8 -19 17 -38 24 -20 93 -45 122 -45 4 0 14 14 22 30 16 38 57 68 73 52 7 -7 4 -13 -11 -21 -45 -25 -65 -106 -36 -148 22 -32 2 -37 -26 -7 -60 64 -201 94 -269 59 -51 -26 -74 -97 -51 -158 14 -35 88 -104 119 -111 15 -3 43 -8 62 -11 62 -11 65 -13 48 -33 -28 -32 -37 -75 -23 -115 7 -20 10 -39 7 -42 -3 -3 3 -5 14 -5 10 0 27 -7 37 -14 55 -42 164 67 155 155 -2 27 -12 39 -46 62 l-43 29 22 24 c16 17 23 38 24 67 1 47 4 48 60 23 63 -29 115 -31 162 -7 48 24 83 65 83 96 0 60 -99 140 -186 151 -76 9 -77 10 -58 39 15 22 19 24 33 12 42 -37 124 -25 165 24 60 71 54 159 -16 235 -37 40 -45 44 -89 44 -42 0 -53 -5 -84 -35 -32 -32 -40 -35 -36 -12 1 4 -8 26 -19 50 -28 58 -87 87 -172 86 -35 -1 -75 -7 -89 -15z m267 -228 c-2 -63 -9 -75 -33 -55 -10 9 -30 20 -45 27 -37 15 -35 29 5 45 17 8 38 21 46 30 21 26 29 12 27 -47z m-316 -117 c0 -30 -6 -46 -26 -64 -28 -26 -58 -32 -69 -16 -3 6 5 15 17 22 32 17 47 40 48 70 0 14 3 29 6 32 14 13 24 -6 24 -44z m-407 -116 c19 -12 -8 -21 -58 -19 -55 2 -72 14 -38 28 17 7 79 2 96 -9z m221 -15 c-3 -5 -12 -4 -20 3 -7 6 -11 15 -8 21 3 5 12 4 20 -3 7 -6 11 -15 8 -21z m61 -19 c-4 -5 -14 -5 -26 1 -11 6 -17 15 -14 21 4 5 14 5 26 -1 11 -6 17 -15 14 -21z m-421 -215 c31 -16 3 -25 -28 -8 -16 7 -34 14 -40 14 -12 0 -47 -52 -56 -83 -10 -35 -25 -22 -30 25 -3 26 -14 55 -23 66 -19 21 -11 34 30 46 11 4 26 13 33 21 9 11 19 7 53 -28 23 -23 51 -47 61 -53z m176 51 c-31 -33 -45 -21 -18 16 14 19 25 26 32 19 6 -6 2 -18 -14 -35z m-391 -141 c-12 -13 -26 -21 -31 -18 -5 4 0 17 13 30 12 13 26 21 31 18 5 -4 0 -17 -13 -30z m755 -205 c-3 -5 -10 -7 -15 -3 -5 3 -7 10 -3 15 3 5 10 7 15 3 5 -3 7 -10 3 -15z"/>
<path d="M1025 2040 c-16 -16 -34 -30 -39 -30 -15 0 -856 -842 -856 -856 0 -6 -9 -19 -20 -29 -11 -10 -20 -23 -20 -30 0 -7 -9 -20 -20 -30 -11 -10 -20 -28 -20 -41 0 -13 -4 -26 -10 -29 -13 -8 -13 -182 0 -190 6 -3 10 -14 10 -24 0 -23 26 -75 45 -91 8 -7 15 -17 15 -23 0 -15 141 -157 156 -157 6 0 17 -7 24 -15 15 -18 150 -85 172 -85 9 0 20 -4 23 -10 8 -13 202 -13 210 0 3 6 21 10 40 10 19 0 37 5 40 10 3 6 26 10 50 10 24 0 47 5 50 10 3 6 21 10 40 10 19 0 37 4 40 10 3 5 21 10 40 10 19 0 37 5 40 10 3 6 21 10 40 10 19 0 37 5 40 10 3 6 30 10 60 10 30 0 57 5 60 10 4 6 70 10 165 10 95 0 161 -4 165 -10 3 -5 39 -10 80 -10 41 0 77 -4 80 -10 3 -5 35 -10 70 -10 35 0 67 -4 70 -10 3 -5 26 -10 50 -10 24 0 47 -4 50 -10 3 -5 26 -10 50 -10 24 0 47 -4 50 -10 3 -5 30 -10 60 -10 30 0 57 -4 60 -10 3 -5 26 -10 50 -10 24 0 47 -4 50 -10 3 -5 21 -10 40 -10 19 0 37 -4 40 -10 3 -5 26 -10 50 -10 24 0 47 -4 50 -10 3 -5 26 -10 50 -10 24 0 47 -4 50 -10 3 -5 26 -10 50 -10 24 0 47 -4 50 -10 3 -5 30 -10 60 -10 30 0 57 -5 60 -10 3 -6 26 -10 50 -10 24 0 47 -4 50 -10 3 -5 30 -10 60 -10 30 0 57 -5 60 -10 3 -6 26 -10 50 -10 24 0 47 -5 50 -10 3 -6 30 -10 60 -10 30 0 57 -4 60 -10 3 -5 26 -10 50 -10 24 0 47 -5 50 -10 3 -5 30 -10 60 -10 30 0 57 -5 60 -10 3 -6 26 -10 50 -10 24 0 47 -4 50 -10 3 -5 30 -10 60 -10 30 0 57 -4 60 -10 3 -5 26 -10 50 -10 24 0 47 -4 50 -10 3 -5 30 -10 60 -10 30 0 57 -4 60 -10 3 -5 35 -10 70 -10 35 0 67 -4 70 -10 3 -5 30 -10 60 -10 30 0 57 -4 60 -10 3 -5 35 -10 70 -10 35 0 67 -4 70 -10 8 -14 562 -14 570 0 3 6 30 10 60 10 30 0 57 5 60 10 3 6 26 10 50 10 24 0 47 4 50 10 3 5 17 10 30 10 13 0 27 4 30 10 3 5 15 10 25 10 11 0 35 9 55 20 20 11 42 20 49 20 19 0 72 28 86 45 7 8 18 15 24 15 7 0 27 16 46 35 18 19 36 32 40 30 4 -2 18 7 30 20 19 20 33 25 71 25 54 0 80 20 62 48 -6 10 -21 16 -34 14 -15 -2 -30 7 -45 25 -19 24 -24 26 -38 14 -9 -7 -14 -17 -11 -21 13 -21 -13 -19 -121 5 -26 6 -32 4 -37 -14 -5 -19 -13 -21 -70 -21 -36 0 -69 4 -72 10 -3 5 -33 10 -65 10 -32 0 -62 5 -65 10 -3 6 -33 10 -65 10 -32 0 -62 5 -65 10 -3 6 -33 10 -65 10 -32 0 -62 4 -65 10 -3 5 -30 10 -60 10 -30 0 -57 5 -60 10 -3 6 -30 10 -60 10 -30 0 -57 4 -60 10 -3 5 -30 10 -60 10 -30 0 -57 5 -60 10 -3 6 -28 10 -55 10 -27 0 -52 4 -55 10 -3 5 -28 10 -55 10 -27 0 -52 4 -55 10 -3 6 -33 10 -65 10 -32 0 -62 5 -65 10 -3 6 -28 10 -54 10 -26 0 -51 4 -57 9 -5 5 -34 12 -64 15 -170 17 -229 25 -270 40 -25 9 -77 16 -117 16 -39 0 -75 5 -78 10 -3 6 -39 10 -80 10 -41 0 -77 5 -80 10 -3 6 -39 10 -80 10 -41 0 -77 5 -80 10 -3 6 -48 10 -99 10 -50 0 -96 4 -102 9 -8 9 -53 13 -269 26 -49 3 -99 10 -110 15 -19 9 -51 12 -265 26 -47 3 -89 10 -94 15 -6 5 -47 9 -92 9 -46 0 -86 5 -89 10 -3 6 -42 10 -85 10 -43 0 -82 5 -85 10 -3 6 -30 10 -60 10 -30 0 -57 4 -60 10 -3 5 -28 10 -55 10 -27 0 -52 4 -55 10 -3 6 -25 10 -47 10 -29 0 -51 8 -76 27 -32 24 -33 27 -17 39 16 12 16 14 -2 41 -103 150 -147 432 -114 727 10 84 9 90 -9 103 -12 8 -20 26 -20 42 0 30 -27 61 -52 61 -9 0 -26 6 -39 13 -99 54 -142 83 -151 103 -15 32 -28 30 -63 -6z"/>
<path d="M4052 1520 c-7 -11 -9 -20 -4 -20 10 0 32 22 32 32 0 15 -15 8 -28 -12z"/>
<path d="M2820 1190 c0 -5 5 -10 10 -10 6 0 10 5 10 10 0 6 -4 10 -10 10 -5 0 -10 -4 -10 -10z"/>
<path d="M3780 1170 c0 -5 5 -10 10 -10 6 0 10 5 10 10 0 6 -4 10 -10 10 -5 0 -10 -4 -10 -10z"/>
<path d="M1645 910 c3 -5 8 -10 11 -10 2 0 4 5 4 10 0 6 -5 10 -11 10 -5 0 -7 -4 -4 -10z"/>
<path d="M1920 870 c0 -5 4 -10 9 -10 6 0 13 5 16 10 3 6 -1 10 -9 10 -9 0 -16 -4 -16 -10z"/>
<path d="M2120 850 c0 -5 7 -10 15 -10 8 0 15 5 15 10 0 6 -7 10 -15 10 -8 0 -15 -4 -15 -10z"/>
<path d="M2940 770 c0 -5 5 -10 10 -10 6 0 10 5 10 10 0 6 -4 10 -10 10 -5 0 -10 -4 -10 -10z"/>
<path d="M3440 710 c0 -5 5 -10 10 -10 6 0 10 5 10 10 0 6 -4 10 -10 10 -5 0 -10 -4 -10 -10z"/>
<path d="M3900 630 c0 -5 5 -10 10 -10 6 0 10 5 10 10 0 6 -4 10 -10 10 -5 0 -10 -4 -10 -10z"/>
<path d="M4000 610 c0 -5 11 -10 24 -10 14 0 28 5 31 10 4 6 -7 10 -24 10 -17 0 -31 -4 -31 -10z"/>
<path d="M4080 610 c0 -5 5 -10 10 -10 6 0 10 5 10 10 0 6 -4 10 -10 10 -5 0 -10 -4 -10 -10z"/>
<path d="M4200 590 c0 -5 5 -10 10 -10 6 0 10 5 10 10 0 6 -4 10 -10 10 -5 0 -10 -4 -10 -10z"/>
<path d="M4540 530 c0 -5 5 -10 10 -10 6 0 10 5 10 10 0 6 -4 10 -10 10 -5 0 -10 -4 -10 -10z"/>
<path d="M4665 510 c3 -5 8 -10 11 -10 2 0 4 5 4 10 0 6 -5 10 -11 10 -5 0 -7 -4 -4 -10z"/>
</g>
</g>
</svg>
