<?xml version="1.0" standalone="no"?>
<!DOCTYPE svg PUBLIC "-//W3C//DTD SVG 1.1//EN"
 "http://www.w3.org/Graphics/SVG/1.1/DTD/svg11.dtd">
<!-- Created with svg_stack (http://github.com/astraw/svg_stack) -->
<svg xmlns:sodipodi="http://sodipodi.sourceforge.net/DTD/sodipodi-0.dtd" xmlns="http://www.w3.org/2000/svg" version="1.1" width="222.0" height="102.0">
  <defs/>
  <g id="id0:id0" transform="matrix(1.25,0,0,1.25,0.0,0.0)"><g transform="translate(0.000000,81.600000) scale(0.040000,-0.040000)" fill="#385d8a" stroke="none">
<path d="M4003 1694 c-3 -8 0 -27 6 -42 11 -22 10 -28 -5 -39 -10 -7 -32 -13 -49 -13 -17 0 -35 -4 -40 -9 -6 -4 -31 -16 -58 -26 -26 -10 -59 -29 -75 -44 -20 -19 -38 -25 -72 -26 l-45 0 -3 -37 c-3 -33 0 -38 23 -44 15 -4 44 -1 65 5 29 9 45 8 64 0 20 -10 38 -9 80 1 67 16 84 8 56 -27 -34 -44 -22 -97 21 -91 20 2 25 10 27 41 2 21 -2 45 -8 52 -9 11 -7 16 9 24 34 19 66 12 97 -20 l29 -30 -23 -39 c-12 -21 -22 -46 -22 -55 0 -9 -16 -22 -34 -30 -19 -8 -43 -26 -53 -41 -65 -92 -77 -97 -178 -70 l-50 13 0 39 c0 35 -3 39 -28 42 -33 4 -55 -11 -59 -41 -2 -17 -9 -21 -28 -19 -14 2 -45 6 -68 9 -41 5 -43 4 -40 -18 3 -26 61 -62 133 -84 30 -10 39 -17 37 -31 -2 -11 -5 -29 -6 -41 -3 -27 -22 -50 -56 -68 -24 -12 -30 -12 -59 6 -17 10 -40 19 -51 19 -27 0 -26 -39 1 -74 19 -24 26 -26 98 -26 62 0 83 4 103 19 13 11 39 21 57 23 28 2 35 9 45 38 l11 35 75 5 c87 6 104 14 140 66 14 22 43 48 64 59 27 14 42 31 50 57 7 20 27 53 44 74 39 47 40 63 3 139 -16 33 -41 101 -56 150 -14 50 -34 104 -42 122 -25 50 -116 84 -130 47z m-50 -192 c22 -24 13 -32 -38 -32 -23 0 -45 3 -48 7 -11 11 25 43 48 43 12 0 29 -8 38 -18z"/>
<path d="M3630 1612 c0 -16 7 -35 16 -43 23 -19 49 1 49 37 0 25 -4 29 -32 32 -31 3 -33 1 -33 -26z"/>
<path d="M1035 1005 c-44 -19 -87 -34 -95 -35 -8 0 -33 -10 -55 -22 -38 -21 -55 -23 -296 -28 -196 -4 -260 -8 -272 -19 -23 -19 -21 -73 3 -99 l21 -22 279 0 279 0 63 28 c35 16 105 43 156 61 l92 32 264 -8 264 -9 43 -36 c74 -62 99 -90 99 -109 0 -9 12 -27 26 -38 25 -20 39 -21 242 -21 l216 0 251 -250 c181 -180 258 -250 276 -251 13 -1 71 -1 129 0 148 4 196 33 232 139 30 90 87 149 202 211 32 17 77 44 100 60 28 20 59 31 96 35 30 3 81 8 112 12 l58 6 55 61 c31 34 58 71 61 83 10 39 -45 94 -94 94 -9 0 -37 -23 -62 -51 -40 -46 -48 -51 -66 -41 -16 8 -27 7 -50 -5 -19 -10 -59 -15 -116 -16 -73 -1 -88 -4 -88 -17 0 -28 -29 -57 -62 -63 -20 -3 -51 -22 -78 -47 -25 -22 -58 -47 -75 -54 -42 -19 -61 -43 -88 -115 -16 -41 -32 -66 -47 -74 -13 -7 -27 -23 -30 -37 -5 -23 -13 -26 -90 -37 -158 -22 -125 -40 -361 199 -115 117 -209 217 -209 222 0 10 -23 30 -65 54 -25 14 -66 18 -260 22 l-230 5 -3 20 c-5 28 -60 105 -99 139 -18 15 -50 32 -71 36 -20 5 -158 11 -307 14 l-270 6 -80 -35z"/>
</g>
</g>
  <g id="id1:id1" transform="matrix(1.25,0,0,1.25,0.0,0.0)"><g transform="translate(0.000000,81.600000) scale(0.040000,-0.040000)" fill="#a8bbd3" stroke="none">
<path d="M1434 1785 c-3 -13 -12 -29 -20 -36 -8 -6 -14 -21 -14 -33 0 -12 -27 -50 -63 -88 l-63 -68 -64 0 c-60 0 -66 -2 -102 -37 -33 -32 -43 -37 -79 -34 -22 1 -48 -4 -56 -11 -18 -15 -50 -33 -80 -47 -13 -6 -23 -19 -23 -29 0 -25 -53 -62 -89 -62 -20 0 -42 -11 -68 -35 -21 -19 -45 -35 -53 -35 -26 0 -88 -25 -108 -43 -10 -9 -27 -17 -38 -17 -38 0 -97 -39 -121 -80 -18 -29 -31 -40 -48 -40 -14 0 -29 -8 -35 -20 -6 -11 -19 -20 -29 -20 -30 0 -40 -22 -36 -85 9 -148 19 -171 89 -206 39 -19 56 -20 296 -16 255 3 315 10 349 41 10 9 29 16 43 16 14 0 31 7 38 15 7 8 16 12 21 9 5 -2 23 3 41 13 29 15 65 17 319 18 l287 0 58 -51 c39 -34 60 -60 62 -78 2 -17 13 -31 32 -41 15 -8 30 -20 32 -27 4 -10 60 -14 229 -18 180 -4 228 -8 244 -20 11 -9 115 -112 230 -230 116 -117 229 -224 252 -237 35 -19 57 -23 133 -23 77 0 97 4 139 26 27 14 64 40 83 58 34 33 88 129 88 157 0 16 62 79 77 79 6 0 16 7 23 15 7 9 34 25 59 37 25 11 61 32 79 46 26 20 46 26 93 27 39 1 65 7 77 18 12 11 36 17 70 17 44 0 54 4 69 26 10 14 34 45 54 68 71 81 77 119 26 162 -19 16 -42 34 -53 40 -16 10 -17 13 -5 28 10 12 31 16 85 16 l73 0 44 61 c30 41 52 62 71 66 29 6 58 41 58 70 0 10 20 41 45 70 48 55 59 99 30 123 -8 7 -15 18 -15 25 0 7 -7 18 -15 25 -8 7 -17 27 -21 46 -3 19 -10 37 -15 40 -5 3 -9 25 -9 48 0 27 -6 48 -15 56 -8 7 -15 26 -15 42 0 36 -50 87 -120 123 -42 21 -57 23 -264 24 -121 1 -227 6 -237 12 -10 5 -123 9 -253 9 -146 0 -237 4 -241 10 -4 7 -287 10 -815 10 l-810 0 -6 -25z m2675 -141 c12 -15 21 -36 21 -48 0 -11 7 -40 15 -63 23 -65 34 -123 25 -128 -4 -3 -31 11 -60 31 -43 30 -56 34 -83 28 -18 -5 -52 -9 -77 -10 -25 0 -63 -4 -85 -9 -33 -6 -45 -3 -65 13 -24 20 -24 22 -8 38 20 21 83 44 119 44 15 0 29 6 32 14 3 7 18 17 33 20 22 6 31 3 44 -14 10 -13 25 -21 36 -18 26 4 32 63 9 88 -18 20 -13 40 10 40 7 0 23 -12 34 -26z m-374 -183 c3 -5 1 -13 -5 -16 -15 -9 -43 3 -35 15 8 13 32 13 40 1z m495 -153 c0 -11 -11 -34 -25 -52 -14 -18 -31 -50 -38 -72 -10 -28 -23 -44 -49 -56 -19 -9 -52 -40 -72 -67 l-36 -51 -84 0 -84 0 -21 -35 c-12 -20 -28 -35 -39 -35 -11 0 -31 -11 -46 -25 -15 -14 -33 -25 -41 -25 -28 0 -26 21 4 47 17 15 31 37 31 49 0 11 9 29 19 38 11 10 21 32 23 50 l3 31 86 -4 86 -3 24 32 c13 18 49 58 79 90 30 32 75 79 99 105 l45 47 18 -22 c10 -12 18 -31 18 -42z m-494 -197 c-8 -12 -49 -15 -60 -4 -4 4 3 15 16 25 19 14 25 15 37 3 7 -7 10 -18 7 -24z m-2024 -125 c30 -13 119 -116 111 -129 -3 -5 -15 0 -27 11 -39 35 -50 37 -251 44 -110 4 -226 10 -258 14 -40 4 -72 1 -105 -10 -26 -9 -82 -28 -126 -42 -43 -14 -95 -36 -115 -47 -30 -19 -55 -23 -156 -26 -66 -2 -193 0 -283 4 l-163 7 -12 25 c-22 48 1 53 259 53 182 0 239 3 267 15 20 8 38 19 41 24 4 5 28 14 54 20 26 5 72 22 102 36 l55 26 290 -7 c178 -4 300 -11 317 -18z m1872 -87 c-3 -5 -10 -7 -15 -3 -5 3 -7 10 -3 15 3 5 10 7 15 3 5 -3 7 -10 3 -15z m310 -71 c23 -33 21 -41 -29 -100 -49 -57 -48 -57 -205 -76 -62 -8 -122 -31 -135 -52 -3 -5 -42 -28 -87 -52 -105 -54 -179 -128 -202 -200 -38 -116 -74 -137 -240 -140 l-115 -3 -40 39 c-39 38 -47 66 -14 47 10 -5 29 -5 47 0 17 5 56 9 86 9 81 0 131 11 138 29 3 9 18 28 34 43 15 14 28 32 28 40 0 7 11 40 24 73 20 50 31 63 63 80 22 11 62 37 90 58 28 20 58 37 67 37 28 0 55 19 71 50 l15 29 82 5 c158 9 183 16 223 64 42 48 75 55 99 20z m-1534 -56 c29 -14 35 -23 35 -47 0 -22 -4 -29 -15 -26 -8 3 -114 6 -235 9 -128 2 -225 8 -232 14 -12 10 -18 60 -8 69 2 3 98 3 212 1 167 -3 215 -7 243 -20z m153 -185 c-3 -5 -25 10 -49 34 -24 23 -41 46 -37 52 3 5 25 -10 49 -34 24 -23 41 -46 37 -52z m120 -120 c-3 -5 -25 10 -49 34 -24 23 -41 46 -37 52 3 5 25 -10 49 -34 24 -23 41 -46 37 -52z m161 -159 c-3 -5 -12 -4 -20 3 -7 6 -11 15 -8 21 3 5 12 4 20 -3 7 -6 11 -15 8 -21z"/>
</g>
</g>
  <g id="id2:id2" transform="matrix(1.25,0,0,1.25,0.0,0.0)"><g transform="translate(0.000000,81.600000) scale(0.040000,-0.040000)" fill="#f7f9fb" stroke="none">
<path d="M1413 1803 c-7 -2 -13 -18 -13 -34 0 -26 4 -29 30 -29 33 0 40 21 16 53 -14 18 -14 18 -33 10z"/>
<path d="M3065 1800 c-4 -6 -1 -17 5 -25 11 -13 77 -15 436 -15 271 0 425 -4 429 -10 3 -5 28 -10 56 -10 56 0 78 -10 132 -60 28 -25 37 -42 37 -65 0 -19 8 -39 20 -50 14 -13 20 -31 20 -61 0 -24 5 -46 10 -49 6 -3 10 -17 10 -29 0 -13 7 -29 15 -36 8 -7 15 -17 15 -22 0 -6 8 -26 17 -45 13 -28 14 -39 5 -52 -7 -9 -16 -25 -21 -36 -5 -11 -18 -29 -30 -39 -11 -11 -21 -29 -21 -41 0 -25 -21 -46 -67 -66 -18 -8 -33 -19 -33 -25 0 -6 -12 -21 -26 -35 -14 -13 -30 -33 -34 -44 -6 -18 -15 -19 -76 -17 -59 3 -72 1 -88 -16 -22 -25 -18 -53 12 -68 77 -38 82 -98 13 -168 -23 -23 -41 -47 -41 -53 0 -22 -31 -35 -89 -36 -47 -2 -65 -7 -84 -25 -21 -20 -28 -22 -45 -11 -17 11 -28 8 -75 -15 -30 -14 -60 -33 -67 -41 -6 -7 -24 -16 -39 -20 -16 -3 -39 -17 -51 -31 -13 -13 -29 -24 -35 -24 -19 0 -75 -65 -75 -86 0 -12 -9 -29 -20 -39 -11 -10 -20 -28 -20 -39 0 -29 -74 -101 -135 -132 -39 -19 -64 -24 -126 -24 -47 0 -88 6 -105 15 -16 7 -135 120 -264 249 -141 141 -244 237 -257 239 -12 2 -26 6 -29 10 -4 4 -98 7 -209 7 -174 0 -204 2 -216 16 -7 9 -23 20 -36 25 -18 7 -23 16 -23 44 0 22 -5 35 -13 35 -7 0 -29 16 -47 35 -56 58 -79 65 -212 65 -106 0 -127 -3 -167 -27 -2 -2 4 -12 14 -23 16 -18 31 -20 159 -20 l142 0 48 -49 c38 -39 49 -58 52 -87 1 -20 9 -41 16 -45 7 -5 117 -9 243 -9 l230 0 250 -250 250 -250 176 0 c145 0 179 3 189 15 7 8 18 15 25 15 26 0 75 51 75 78 0 65 111 212 160 212 9 0 29 13 45 30 16 16 36 30 45 30 9 0 29 13 45 30 l29 30 106 0 105 0 93 93 92 92 0 46 c0 32 -7 55 -21 73 -23 30 -18 46 15 46 13 0 29 7 36 15 7 8 21 15 30 15 20 0 60 44 60 66 0 8 16 20 35 28 24 11 40 27 55 59 11 24 38 61 60 82 l40 39 0 77 c0 69 -4 83 -40 154 -22 43 -45 84 -51 91 -6 8 -8 25 -5 40 12 46 -65 174 -104 174 -9 0 -29 14 -45 30 l-29 30 -487 0 c-328 0 -490 -3 -494 -10z"/>
<path d="M1340 1662 c-12 -10 -28 -35 -35 -56 -12 -35 -12 -37 4 -22 10 9 24 16 32 16 12 0 26 20 46 68 8 18 -22 15 -47 -6z"/>
<path d="M943 1486 c-62 -31 -75 -50 -51 -74 17 -17 25 -15 31 8 3 13 14 20 30 20 16 0 26 7 30 20 6 22 36 27 55 8 21 -21 35 12 15 34 -21 24 -36 22 -110 -16z"/>
<path d="M840 1385 c-7 -8 -21 -15 -31 -15 -26 0 -34 -19 -15 -38 14 -15 18 -14 39 6 13 12 29 22 35 22 7 0 12 9 12 20 0 24 -22 26 -40 5z"/>
<path d="M720 1310 c0 -5 5 -10 10 -10 6 0 10 5 10 10 0 6 -4 10 -10 10 -5 0 -10 -4 -10 -10z"/>
<path d="M659 1294 c-7 -9 -23 -20 -36 -25 -13 -5 -23 -13 -23 -19 0 -13 37 -13 45 0 3 6 17 10 31 10 19 0 24 5 24 25 0 29 -21 33 -41 9z"/>
<path d="M505 1230 c-13 -15 -26 -19 -44 -15 -20 4 -34 -2 -58 -25 -18 -17 -33 -37 -33 -45 0 -27 12 -45 31 -45 14 0 19 7 19 25 0 18 7 28 24 35 14 5 29 17 35 28 7 14 18 17 46 14 34 -4 36 -3 33 19 -4 31 -29 35 -53 9z"/>
<path d="M257 1084 c-26 -26 21 -76 49 -53 23 19 13 54 -16 57 -14 2 -29 0 -33 -4z"/>
<path d="M249 838 c-2 -62 0 -70 24 -95 l20 -23 323 0 c274 0 323 2 334 15 7 8 25 15 40 15 15 0 52 13 83 30 31 16 67 30 80 30 13 0 32 7 43 15 13 10 46 14 108 15 l89 0 -18 20 c-15 17 -31 20 -96 20 -43 0 -81 -5 -84 -10 -4 -6 -14 -8 -23 -6 -10 3 -30 -1 -46 -9 -15 -8 -37 -15 -47 -15 -10 0 -21 -4 -24 -10 -3 -5 -16 -10 -28 -10 -12 0 -37 -9 -55 -20 -18 -11 -41 -20 -52 -20 -10 0 -22 -4 -25 -10 -4 -6 -107 -10 -275 -10 l-269 0 -36 35 c-21 22 -35 45 -35 60 0 16 -6 25 -15 25 -11 0 -15 -12 -16 -42z"/>
</g>
</g>
  <g id="id3:id3" transform="matrix(1.25,0,0,1.25,0.0,0.0)"><g transform="translate(0.000000,81.600000) scale(0.040000,-0.040000)" fill="#c8d5e6" stroke="none">
</g>
</g>
</svg>
