<?xml version="1.0" standalone="no"?>
<!DOCTYPE svg PUBLIC "-//W3C//DTD SVG 1.1//EN"
 "http://www.w3.org/Graphics/SVG/1.1/DTD/svg11.dtd">
<!-- Created with svg_stack (http://github.com/astraw/svg_stack) -->
<svg xmlns:sodipodi="http://sodipodi.sourceforge.net/DTD/sodipodi-0.dtd" xmlns="http://www.w3.org/2000/svg" version="1.1" width="8008.0" height="8008.0">
  <defs/>
  <g id="id0:id0" transform="matrix(1.25,0,0,1.25,0.0,0.0)"><g transform="translate(0.000000,6406.400000) scale(0.080000,-0.080000)" fill="#44000c" stroke="none">
<path d="M29121 62584 c-317 -34 -590 -116 -872 -260 -328 -168 -658 -430 -902 -717 -257 -303 -486 -710 -616 -1095 -116 -347 -165 -670 -165 -1097 0 -435 52 -768 180 -1143 199 -588 567 -1089 1054 -1437 377 -269 750 -414 1245 -486 406 -59 884 -22 1260 97 368 117 714 333 930 581 266 306 431 691 486 1133 11 91 23 185 27 210 l7 45 310 5 310 5 0 110 0 110 -1407 3 -1408 2 0 -115 0 -115 453 -2 452 -3 0 -445 c0 -293 -5 -476 -13 -536 -34 -257 -123 -474 -241 -594 -194 -196 -462 -290 -828 -290 -410 0 -736 105 -967 313 -275 245 -433 684 -508 1407 -18 178 -19 2304 0 2470 48 439 140 750 304 1025 117 197 307 371 502 460 234 106 505 153 826 142 248 -9 407 -48 615 -154 454 -230 742 -613 980 -1305 l48 -138 128 0 129 0 0 870 0 870 -104 0 -104 0 -183 -189 -183 -189 -50 38 c-242 182 -623 337 -971 395 -219 36 -498 44 -724 19z"/>
<path d="M50255 62094 c-143 -35 -357 -88 -475 -117 l-215 -53 -5 -370 -5 -369 -285 -5 -285 -5 0 -135 0 -135 285 -5 285 -5 5 -2030 5 -2030 23 -75 c49 -159 125 -257 247 -322 160 -84 386 -123 665 -115 263 8 448 49 620 138 227 117 433 359 485 571 l7 27 -91 46 c-82 41 -92 44 -98 28 -22 -65 -87 -187 -126 -239 -62 -82 -156 -157 -231 -185 -73 -28 -241 -38 -322 -20 -115 26 -184 117 -204 272 -7 59 -10 657 -8 2009 l3 1925 420 5 420 5 3 137 3 138 -423 2 -423 3 -3 488 c-1 268 -6 487 -10 486 -4 -1 -124 -30 -267 -65z"/>
<path d="M54395 61237 c-33 -79 -123 -278 -128 -284 -3 -3 -39 17 -79 44 -41 27 -123 70 -182 97 -242 106 -368 130 -636 123 -150 -3 -189 -8 -274 -31 -292 -79 -512 -258 -669 -546 -131 -239 -194 -551 -184 -910 8 -287 44 -456 141 -655 80 -166 135 -231 317 -370 242 -186 451 -278 834 -369 613 -145 823 -325 867 -743 20 -189 -15 -426 -87 -587 -59 -132 -192 -289 -319 -375 -70 -48 -190 -98 -270 -112 -111 -19 -312 -7 -421 26 -408 121 -716 519 -834 1074 l-26 126 -120 0 -120 0 -3 -657 -2 -658 79 0 79 0 125 132 126 131 88 -65 c166 -123 298 -195 463 -251 357 -121 750 -77 1080 120 66 40 241 218 292 298 179 278 252 582 252 1050 0 384 -42 626 -148 859 -142 310 -404 470 -1019 621 -538 131 -815 290 -909 520 -40 97 -43 118 -42 310 0 171 3 200 26 285 69 257 218 459 393 535 139 60 291 78 442 51 191 -33 322 -103 464 -247 176 -177 284 -372 324 -584 8 -42 15 -79 15 -81 0 -2 52 -4 115 -4 l115 0 0 580 0 580 -76 0 -75 0 -14 -33z"/>
<path d="M33760 61205 c-145 -18 -191 -28 -338 -76 -230 -75 -384 -169 -533 -325 -152 -160 -222 -320 -222 -504 0 -257 150 -404 425 -417 96 -5 115 -3 192 21 162 50 243 144 275 318 10 52 10 86 2 152 -13 96 -31 150 -95 291 -25 55 -46 109 -46 120 0 27 81 105 145 140 28 15 55 30 60 34 14 10 138 47 205 61 102 20 268 24 350 6 233 -49 431 -235 470 -441 7 -42 10 -285 8 -810 l-3 -750 -250 -6 c-383 -9 -622 -39 -860 -108 -565 -163 -949 -529 -1078 -1027 -40 -155 -51 -246 -51 -424 1 -343 90 -628 261 -839 178 -222 418 -322 732 -308 427 20 806 195 1148 531 51 49 95 87 99 83 4 -4 17 -47 30 -95 62 -249 221 -415 459 -484 67 -19 104 -23 230 -23 158 0 245 16 361 65 45 19 71 34 161 95 64 42 192 158 257 231 75 85 74 81 4 159 l-44 48 -98 -82 c-130 -108 -145 -116 -236 -116 -62 0 -82 4 -113 24 -79 49 -71 -128 -77 1791 l-5 1715 -26 95 c-62 224 -163 374 -364 546 -183 155 -464 267 -775 309 -130 18 -512 18 -660 0z m590 -2429 c50 -15 154 -69 248 -129 l62 -39 0 -350 c0 -349 -7 -474 -36 -623 -69 -354 -231 -655 -420 -780 -121 -80 -287 -108 -419 -70 -204 60 -337 264 -394 605 -79 481 4 913 220 1144 122 131 289 221 451 245 98 14 238 12 288 -3z"/>
<path d="M37423 61197 l-693 -21 0 -113 0 -113 293 -2 292 -3 0 -2130 0 -2130 -262 -3 -263 -2 0 -115 0 -115 1158 2 1157 3 3 112 3 113 -403 2 -403 3 0 1090 c0 1189 1 1211 61 1564 98 584 325 1139 570 1397 86 90 172 133 281 141 l72 6 12 -26 c10 -21 8 -57 -10 -185 l-21 -159 20 -79 c27 -106 75 -174 160 -225 91 -55 116 -61 292 -66 142 -5 164 -3 234 18 131 39 229 126 273 244 66 177 42 393 -60 542 -101 147 -215 218 -412 259 -126 25 -369 16 -502 -20 -104 -28 -235 -85 -320 -139 -194 -122 -406 -363 -585 -665 -40 -67 -76 -119 -81 -116 -5 3 -9 217 -9 480 l0 474 -82 -2 c-46 0 -395 -10 -775 -21z"/>
<path d="M41365 61196 l-700 -21 -3 -112 -3 -113 308 -2 308 -3 0 -2130 0 -2130 -305 -5 -305 -5 0 -110 0 -110 1068 -3 1067 -2 0 115 0 115 -277 2 -278 3 -3 1145 c-2 736 1 1202 8 1305 45 681 204 1161 494 1496 169 195 331 278 522 266 276 -16 391 -222 446 -802 10 -110 13 -494 13 -1775 l0 -1635 -277 -3 -278 -2 0 -115 0 -115 1043 2 1042 3 3 112 3 113 -288 2 -288 3 -6 1575 c-5 1404 -7 1589 -22 1700 -50 368 -95 537 -197 745 -140 285 -345 442 -658 501 -135 25 -441 15 -579 -20 -111 -28 -212 -61 -285 -95 -26 -11 -49 -21 -53 -21 -14 0 -207 -135 -267 -187 -109 -95 -219 -230 -313 -386 -27 -44 -51 -75 -56 -70 -5 5 -10 184 -11 398 l-3 390 -85 1 c-47 1 -400 -8 -785 -20z"/>
<path d="M46975 61205 c-178 -33 -373 -112 -523 -211 -168 -113 -389 -332 -516 -513 -341 -487 -526 -1112 -526 -1776 0 -493 92 -892 304 -1315 280 -558 686 -926 1150 -1041 117 -29 350 -36 481 -15 455 75 827 335 1086 757 96 157 203 392 276 604 31 91 123 431 123 455 0 14 -217 13 -225 -1 -4 -5 -20 -67 -35 -137 -38 -169 -69 -264 -147 -451 -101 -243 -221 -471 -312 -591 -149 -198 -327 -342 -496 -403 -135 -48 -213 -60 -368 -55 -123 4 -151 8 -209 31 -236 91 -388 313 -472 688 -69 312 -81 477 -81 1184 l0 600 1142 5 c628 3 1144 8 1148 11 27 27 32 294 9 489 -60 528 -255 956 -583 1280 -206 204 -427 328 -699 391 -117 28 -410 35 -527 14z m359 -194 c151 -54 261 -168 339 -351 68 -162 99 -304 118 -540 12 -156 -2 -845 -18 -861 -6 -6 -252 -8 -649 -7 l-639 3 -3 110 c-5 160 16 570 38 768 24 204 50 346 92 482 41 135 77 202 147 278 103 109 217 150 406 143 78 -3 127 -10 169 -25z"/>
<path d="M43165 55664 c-216 -39 -407 -132 -561 -274 -91 -84 -223 -260 -283 -378 -12 -23 -26 -40 -31 -37 -6 4 -10 141 -10 351 l0 344 -142 -1 c-79 0 -393 -8 -698 -17 l-555 -17 0 -100 0 -100 270 -5 270 -5 0 -1890 0 -1890 -270 -5 -270 -5 0 -95 0 -95 928 -3 927 -2 0 100 0 100 -222 2 -223 3 0 1215 c0 1119 1 1226 18 1350 21 152 65 348 104 460 95 273 350 634 496 700 54 25 199 27 278 4 73 -22 148 -96 177 -177 34 -90 62 -267 73 -462 6 -111 9 -734 7 -1635 l-3 -1455 -200 -5 -200 -5 0 -95 0 -95 855 0 855 0 3 97 3 98 -218 2 -218 3 -3 1175 c-3 1185 0 1336 34 1565 26 180 84 376 151 510 52 103 174 274 243 339 128 121 212 156 369 156 119 0 162 -12 211 -56 48 -44 75 -100 94 -200 39 -207 41 -316 41 -1929 l0 -1560 -207 -3 -208 -2 0 -100 0 -100 905 0 905 0 0 100 0 100 -262 2 -263 3 -6 1455 c-5 1297 -7 1468 -22 1570 -48 326 -132 583 -236 720 -227 302 -776 382 -1206 175 -155 -74 -365 -266 -476 -435 -29 -44 -57 -79 -63 -77 -5 2 -23 34 -38 71 -70 171 -240 366 -387 444 -184 98 -498 138 -736 96z"/>
<path d="M48665 55674 c-328 -33 -596 -128 -782 -278 -203 -164 -300 -352 -291 -562 3 -82 8 -101 38 -160 64 -126 178 -184 359 -184 204 0 326 76 380 237 41 122 23 257 -60 434 -27 58 -49 116 -49 129 0 54 152 154 294 192 93 26 321 36 397 18 132 -31 285 -143 349 -254 61 -109 60 -95 58 -841 l-3 -680 -240 -7 c-386 -10 -555 -33 -795 -109 -297 -93 -545 -261 -709 -479 -292 -388 -331 -1011 -90 -1436 63 -112 190 -237 294 -291 210 -109 470 -122 755 -37 279 83 478 203 707 427 55 54 84 76 87 66 2 -8 9 -39 15 -69 46 -219 188 -376 401 -441 63 -20 97 -24 210 -24 210 0 335 42 509 172 71 54 224 201 241 233 6 11 -3 30 -32 68 -22 29 -46 52 -53 52 -7 0 -45 -29 -84 -64 -92 -83 -140 -106 -217 -106 -67 0 -117 21 -149 64 l-20 27 -5 1542 -5 1542 -28 88 c-58 186 -134 295 -302 436 -168 141 -377 230 -650 277 -86 15 -442 27 -530 18z m503 -2208 c48 -25 110 -60 137 -78 l50 -33 0 -360 c-1 -381 -5 -431 -56 -630 -74 -290 -229 -520 -409 -608 l-65 -32 -120 0 c-112 0 -124 2 -178 28 -164 81 -269 285 -307 597 -13 106 -13 353 0 445 52 373 226 599 531 689 69 20 106 25 207 25 l122 1 88 -44z"/>
<path d="M53540 55661 c-365 -79 -599 -275 -884 -739 -32 -51 -62 -90 -67 -87 -5 4 -9 176 -9 421 l0 414 -137 -1 c-76 0 -385 -8 -688 -17 l-550 -17 0 -100 0 -100 260 -5 260 -5 0 -1890 0 -1890 -230 -5 -230 -5 -3 -98 -3 -97 1028 2 1028 3 3 97 3 98 -358 2 -358 3 -3 890 c-3 948 1 1103 43 1390 54 369 146 677 287 959 136 272 237 396 372 460 69 33 148 41 175 18 l20 -17 -16 -153 c-16 -145 -16 -157 0 -220 44 -168 163 -250 378 -260 61 -2 136 1 174 7 215 38 329 185 329 426 1 120 -17 186 -73 270 -83 127 -188 202 -336 240 -96 26 -312 29 -415 6z"/>
<path d="M55919 55665 c-222 -36 -395 -106 -588 -239 -101 -70 -322 -290 -410 -408 -256 -347 -416 -749 -477 -1198 -23 -166 -23 -461 0 -635 50 -389 191 -776 391 -1074 99 -147 145 -204 263 -324 426 -432 936 -569 1446 -387 241 86 527 301 719 540 183 228 346 545 432 841 71 245 99 453 98 734 -1 399 -76 733 -243 1082 -133 277 -257 454 -456 650 -231 227 -459 352 -744 409 -107 22 -326 26 -431 9z m353 -166 c99 -20 197 -75 273 -153 39 -39 82 -94 98 -123 64 -120 119 -312 151 -530 33 -222 38 -406 33 -1298 -3 -752 -6 -897 -21 -1000 -58 -417 -132 -613 -284 -757 -117 -110 -224 -148 -417 -148 -197 0 -311 43 -425 159 -138 140 -219 369 -267 751 -16 131 -18 239 -18 1100 0 1028 1 1053 55 1323 27 131 99 342 142 414 73 124 205 226 334 257 71 17 273 20 346 5z"/>
<path d="M59919 55665 c-222 -36 -395 -106 -588 -239 -101 -70 -322 -290 -410 -408 -256 -347 -416 -749 -477 -1198 -23 -166 -23 -461 0 -635 50 -389 191 -776 391 -1074 99 -147 145 -204 263 -324 426 -432 936 -569 1446 -387 241 86 528 302 719 540 235 294 416 690 486 1066 36 192 45 294 44 509 -1 408 -76 735 -253 1102 -130 269 -277 474 -476 660 -217 205 -444 325 -714 379 -107 22 -326 26 -431 9z m353 -166 c99 -20 197 -75 273 -153 39 -39 82 -94 98 -123 64 -120 119 -312 151 -530 33 -222 38 -406 33 -1298 -3 -752 -6 -897 -21 -1000 -58 -417 -132 -613 -284 -757 -117 -110 -224 -148 -417 -148 -197 0 -311 43 -425 159 -138 140 -219 369 -267 751 -16 131 -18 239 -18 1100 0 1028 1 1053 55 1323 27 131 99 342 142 414 73 124 205 226 334 257 71 17 273 20 346 5z"/>
<path d="M64265 55661 c-404 -77 -675 -265 -890 -617 -23 -37 -45 -66 -50 -65 -6 0 -11 135 -13 346 l-2 345 -143 -1 c-78 0 -392 -8 -697 -17 l-555 -17 -3 -102 -3 -103 273 -2 273 -3 0 -1890 0 -1890 -272 -3 -273 -2 0 -100 0 -100 950 0 950 0 0 100 0 100 -247 2 -248 3 0 1115 c0 1017 2 1128 18 1260 41 324 108 579 208 790 107 225 295 457 421 521 201 101 409 70 514 -77 45 -62 71 -135 99 -274 60 -290 66 -500 63 -2055 l-3 -1280 -245 -5 -245 -5 -3 -98 -3 -97 928 2 928 3 3 97 3 98 -258 2 -258 3 -6 1425 c-6 1519 -4 1471 -54 1725 -43 213 -134 447 -223 567 -101 138 -260 242 -437 288 -119 31 -365 36 -500 11z"/>
<path d="M19760 44935 c-250 -46 -442 -173 -593 -394 -169 -245 -201 -555 -90 -842 81 -208 278 -408 490 -497 223 -94 458 -94 691 1 133 55 315 206 402 337 147 219 190 526 108 780 -41 128 -93 215 -200 339 -192 220 -512 329 -808 276z"/>
<path d="M56601 44657 c-29 -179 -118 -276 -313 -341 l-77 -26 -2024 0 -2025 0 -6 -62 c-12 -134 -218 -4777 -214 -4835 5 -79 24 -103 83 -103 49 0 250 44 268 58 28 23 188 106 285 148 100 44 176 71 264 94 65 18 404 71 518 82 122 11 550 4 660 -12 292 -41 463 -92 677 -201 183 -92 303 -180 444 -319 490 -487 722 -1304 670 -2362 -37 -772 -177 -1327 -441 -1758 -169 -275 -440 -509 -731 -631 -310 -129 -572 -179 -939 -179 -312 0 -564 37 -830 122 -309 99 -470 236 -511 434 -10 52 -10 64 5 95 38 82 182 206 351 304 55 32 126 78 158 103 108 82 190 210 222 343 40 171 -2 507 -89 702 -30 69 -113 192 -157 233 -90 84 -235 151 -379 174 -85 13 -298 13 -397 -1 -508 -69 -753 -460 -730 -1167 10 -304 75 -498 253 -752 128 -184 296 -344 509 -485 319 -211 715 -344 1225 -412 111 -15 207 -18 535 -18 380 0 484 5 715 36 41 5 111 14 155 20 44 6 100 14 125 19 25 5 74 14 110 20 153 29 534 128 613 160 12 5 60 23 107 40 578 215 1085 592 1406 1045 284 400 456 874 530 1460 22 173 26 606 6 765 -49 402 -146 740 -297 1041 -294 587 -820 1066 -1480 1347 -268 114 -513 186 -835 245 -245 45 -302 49 -755 54 -452 5 -633 -3 -895 -42 -52 -8 -156 -21 -230 -30 -192 -23 -481 -88 -644 -145 -34 -11 -64 -16 -69 -11 -6 6 106 2801 116 2873 2 17 78 18 1317 21 1173 3 1330 5 1450 20 177 23 252 35 325 52 33 7 78 16 100 19 107 15 392 118 525 189 285 155 455 370 574 729 75 225 108 432 122 751 l7 167 -175 0 -175 0 -12 -73z"/>
<path d="M39020 44224 c-987 -81 -1257 -94 -2255 -103 l-640 -6 -3 -196 -2 -197 772 -5 c726 -4 778 -6 863 -25 121 -26 186 -60 230 -120 46 -63 82 -184 95 -317 8 -77 10 -1405 8 -4420 l-3 -4310 -938 -3 -937 -2 2 -198 3 -197 2700 0 2700 0 3 197 2 198 -912 2 -913 3 -3 4878 -2 4877 -63 -1 c-34 -1 -352 -25 -707 -55z"/>
<path d="M46305 44274 c-625 -62 -1139 -245 -1645 -587 -341 -230 -645 -526 -887 -865 -140 -197 -289 -471 -377 -695 -149 -379 -224 -871 -196 -1292 36 -565 151 -1018 366 -1448 324 -647 832 -1151 1430 -1421 498 -225 1045 -298 1589 -210 188 30 400 88 550 149 287 119 610 315 807 491 33 30 65 51 70 48 13 -8 4 -69 -48 -324 -173 -855 -470 -1615 -819 -2103 -320 -447 -758 -842 -1245 -1122 -336 -194 -811 -388 -1270 -520 -227 -66 -461 -125 -702 -180 l-78 -17 0 -174 0 -174 44 0 c56 0 311 26 441 46 55 8 147 21 205 30 899 133 1880 513 2660 1029 1003 665 1831 1606 2274 2587 301 667 442 1198 523 1968 24 230 24 795 0 1040 -56 573 -156 1015 -328 1450 -215 547 -507 1000 -888 1380 -354 353 -734 595 -1196 762 -177 64 -324 101 -540 134 -96 15 -637 28 -740 18z m595 -324 c228 -38 387 -97 542 -202 204 -139 347 -324 426 -553 182 -531 285 -1773 269 -3264 -7 -654 -16 -801 -49 -845 -174 -237 -490 -543 -703 -679 -310 -198 -642 -297 -996 -297 -317 0 -566 95 -759 290 -302 305 -476 853 -530 1665 -13 193 -13 952 0 1250 27 635 98 1204 201 1621 51 207 80 297 134 410 163 348 437 555 815 615 156 25 468 20 650 -11z"/>
<path d="M61890 44266 c-144 -14 -176 -18 -310 -42 -348 -62 -617 -152 -910 -302 -544 -280 -968 -699 -1201 -1187 -125 -263 -192 -522 -220 -855 -20 -237 0 -438 67 -657 108 -358 284 -577 579 -719 288 -139 618 -161 883 -59 37 15 81 32 97 38 50 18 147 88 200 143 95 99 170 254 211 436 24 103 26 127 21 278 -5 188 -17 245 -77 365 -52 103 -149 207 -245 261 -205 114 -504 160 -704 109 -320 -82 -412 -85 -477 -13 -59 64 -79 151 -64 276 49 404 282 761 675 1034 87 60 252 150 355 193 36 15 85 35 110 46 144 60 488 118 706 119 90 0 266 -19 359 -40 143 -31 292 -90 425 -168 496 -290 847 -817 979 -1469 50 -248 65 -407 64 -698 -1 -819 -162 -1501 -479 -2035 -164 -277 -590 -853 -843 -1140 -234 -265 -447 -478 -966 -960 -110 -102 -249 -232 -310 -290 -61 -58 -198 -186 -305 -285 -288 -269 -491 -458 -610 -570 -58 -55 -193 -181 -300 -280 -106 -99 -246 -229 -310 -290 -64 -60 -175 -164 -248 -230 l-131 -120 0 -517 -1 -518 3109 0 c2349 0 3112 3 3117 12 4 6 26 601 50 1322 23 721 44 1373 47 1449 l6 137 -183 0 -183 0 -7 -192 c-13 -348 -47 -625 -100 -810 -65 -224 -166 -350 -338 -419 -150 -62 -42 -59 -2324 -59 -1227 0 -2085 4 -2088 9 -3 5 22 33 56 63 34 29 166 145 293 258 128 113 321 284 430 380 110 96 262 231 340 300 78 69 271 240 430 380 159 140 352 311 430 380 78 69 231 204 340 300 109 96 303 267 430 380 128 113 321 284 430 380 539 474 681 605 936 860 325 323 436 453 606 710 143 216 289 491 357 674 70 187 130 433 161 666 22 163 31 517 16 665 -57 565 -283 1041 -692 1453 -273 276 -595 485 -969 629 -63 24 -136 53 -161 63 -25 11 -63 24 -85 29 -21 5 -93 23 -159 40 -133 34 -235 53 -412 77 -159 22 -715 28 -903 10z"/>
<path d="M27195 42464 c-345 -41 -712 -174 -1033 -375 -327 -204 -626 -535 -874 -969 -30 -52 -59 -95 -64 -95 -5 0 -10 293 -12 724 l-2 723 -163 -6 c-89 -4 -556 -18 -1037 -31 -481 -14 -1014 -30 -1185 -35 -170 -5 -320 -10 -332 -10 l-23 0 0 -200 0 -200 533 -2 532 -3 0 -3730 0 -3730 -532 -3 -533 -2 0 -200 0 -200 1868 2 1867 3 3 197 2 198 -497 2 -498 3 0 2035 c0 1540 3 2079 13 2215 82 1176 319 1951 780 2555 145 189 322 360 452 436 247 145 559 184 780 98 116 -45 239 -154 315 -280 122 -202 205 -584 249 -1144 34 -427 37 -689 34 -3315 l-3 -2600 -492 -3 -493 -2 0 -200 0 -200 1830 0 1830 0 0 200 0 200 -502 2 -503 3 -5 2660 c-6 2851 -4 2735 -56 3170 -78 662 -262 1192 -533 1540 -93 118 -217 231 -353 321 -216 144 -404 212 -687 250 -134 17 -525 17 -676 -2z"/>
<path d="M19305 42430 c-709 -21 -1311 -39 -1338 -39 l-47 -1 2 -197 3 -198 565 -5 565 -5 0 -3730 0 -3730 -585 -5 -585 -5 0 -195 0 -195 2015 0 2015 0 3 197 2 198 -572 2 -573 3 -5 3970 -5 3970 -85 1 c-47 1 -665 -15 -1375 -36z"/>
</g>
</g>
  <g id="id1:id1" transform="matrix(1.25,0,0,1.25,0.0,0.0)"><g transform="translate(0.000000,6406.400000) scale(0.080000,-0.080000)" fill="#040404" stroke="none">
<path d="M18855 72964 c-115 -7 -226 -15 -245 -17 -354 -51 -626 -99 -744 -131 -351 -98 -528 -157 -731 -244 -243 -103 -425 -202 -690 -377 -809 -533 -1356 -1244 -1664 -2163 -156 -465 -220 -896 -208 -1407 14 -620 132 -1130 363 -1575 260 -499 661 -897 1142 -1131 98 -48 138 -64 302 -124 173 -64 411 -119 650 -151 181 -25 600 -26 740 -2 265 45 493 115 675 205 84 42 80 39 68 55 -6 7 -59 121 -118 253 -58 132 -113 250 -120 261 l-14 21 -107 -55 c-221 -113 -421 -159 -729 -169 -355 -11 -601 32 -969 171 -276 104 -588 347 -802 626 -327 424 -504 1056 -504 1794 0 622 136 1189 421 1757 180 360 352 607 611 875 205 211 401 372 668 549 342 225 660 366 1115 493 177 49 391 87 690 123 326 38 944 37 1253 -2 39 -5 107 -13 150 -19 312 -39 705 -152 1008 -288 469 -212 937 -586 1237 -987 332 -446 550 -1020 633 -1665 22 -173 29 -549 15 -740 -43 -568 -187 -1144 -398 -1592 -209 -445 -479 -825 -829 -1168 -422 -413 -900 -664 -1479 -775 -66 -13 -123 -21 -127 -19 -4 2 -5 19 -2 37 2 17 18 127 34 242 53 379 101 744 215 1635 80 630 106 817 151 1089 186 1135 458 2079 786 2735 33 65 58 119 56 121 -2 1 -77 27 -168 58 -91 31 -234 81 -319 111 -84 31 -158 56 -163 56 -20 0 -182 -369 -291 -662 -297 -799 -569 -2109 -717 -3448 -72 -658 -222 -1906 -229 -1920 -10 -17 -19 -17 -106 -1 -32 6 -63 7 -67 3 -8 -8 -77 -594 -71 -604 2 -5 40 -8 83 -8 43 0 81 -4 84 -9 12 -19 -106 -644 -195 -1036 -151 -663 -299 -1139 -498 -1603 -351 -817 -773 -1279 -1323 -1446 -363 -111 -861 -51 -1203 145 -114 65 -177 115 -290 226 -220 216 -352 502 -396 857 -16 132 -6 373 20 494 63 289 199 544 391 732 154 151 324 239 532 276 l96 17 -5 286 c-3 157 -9 290 -14 295 -10 11 -203 -17 -309 -45 -429 -113 -750 -370 -984 -788 -312 -556 -338 -1277 -66 -1848 209 -438 539 -742 980 -900 249 -89 500 -133 799 -140 309 -8 505 18 761 99 91 29 254 93 275 109 6 4 44 24 85 44 204 102 443 292 627 500 267 300 495 698 715 1250 224 561 419 1293 578 2170 23 127 45 234 50 238 15 17 164 -187 283 -388 86 -146 229 -435 305 -615 89 -211 330 -845 489 -1285 36 -99 102 -283 148 -410 212 -585 385 -993 615 -1450 319 -632 528 -936 899 -1305 379 -378 647 -538 1131 -674 242 -67 608 -101 835 -77 609 66 1001 343 1285 910 58 116 150 354 150 389 0 15 -20 24 -97 46 -54 15 -173 50 -264 77 -92 27 -173 49 -181 49 -9 0 -18 -21 -27 -62 -47 -232 -189 -523 -343 -700 -196 -227 -502 -348 -876 -348 -159 0 -227 9 -374 50 -258 73 -462 196 -669 403 -313 314 -620 800 -874 1382 -251 574 -394 938 -624 1583 -306 858 -645 1641 -870 2007 -174 285 -377 527 -581 693 -16 13 -22 24 -15 30 6 5 60 19 120 31 778 155 1449 529 1964 1094 529 582 878 1264 1046 2041 80 376 111 686 102 1054 -6 271 -24 436 -72 677 -194 967 -656 1715 -1395 2256 -338 248 -664 417 -1055 548 -289 96 -584 165 -885 206 -63 8 -142 20 -175 25 -186 30 -787 37 -1160 14z"/>
<path d="M55900 71834 c-192 -41 -340 -131 -470 -285 -188 -225 -377 -728 -584 -1556 -189 -753 -262 -1116 -530 -2608 -42 -231 -96 -541 -121 -690 -162 -974 -181 -1075 -225 -1180 -229 -548 -483 -852 -780 -934 -168 -47 -356 -5 -459 102 l-33 35 57 139 c402 980 672 2041 735 2893 13 174 13 413 0 517 -35 274 -141 468 -299 546 l-66 32 -120 0 -120 0 -78 -39 c-196 -98 -366 -355 -501 -756 -128 -385 -190 -735 -227 -1300 -17 -246 -17 -862 -1 -1030 25 -257 84 -546 153 -753 l30 -92 -65 -162 c-231 -573 -493 -1050 -680 -1239 -84 -85 -137 -114 -204 -114 -42 0 -52 4 -84 38 -45 45 -72 107 -95 215 -15 68 -18 129 -17 367 1 517 79 1140 289 2310 13 74 40 227 60 340 20 113 56 313 81 445 73 392 184 979 188 998 4 16 -13 17 -292 15 l-296 -3 -13 -65 c-7 -36 -50 -261 -97 -500 -153 -779 -194 -1003 -271 -1490 -52 -329 -64 -385 -151 -692 -171 -605 -369 -1089 -593 -1453 -115 -187 -181 -273 -288 -376 -101 -98 -175 -139 -248 -139 -60 0 -80 12 -106 61 -105 208 -63 883 132 2089 53 328 247 1381 407 2210 l69 355 -300 3 c-165 1 -301 1 -302 0 -14 -15 -402 -2025 -470 -2438 -106 -634 -150 -1216 -126 -1662 34 -649 140 -947 380 -1066 67 -33 83 -37 171 -40 107 -5 174 10 264 55 291 147 645 652 914 1303 37 89 71 162 77 161 6 -1 8 -42 5 -109 -35 -761 105 -1233 408 -1375 58 -27 81 -32 165 -35 61 -3 116 0 145 8 354 96 743 554 1155 1360 60 118 111 217 113 219 2 2 25 -12 51 -31 107 -77 207 -102 408 -102 150 -1 205 9 332 60 151 61 312 185 438 338 21 26 42 43 46 39 9 -9 -79 -533 -140 -838 -74 -373 -125 -760 -119 -915 l3 -85 283 -3 282 -2 9 23 c5 13 48 298 95 633 100 703 130 848 306 1450 184 627 527 1428 815 1904 289 476 518 710 696 710 134 0 195 -114 193 -360 -3 -267 -67 -553 -279 -1250 -145 -475 -333 -1136 -379 -1330 -108 -463 -158 -918 -126 -1166 42 -337 193 -557 439 -641 99 -34 255 -32 359 3 139 46 250 120 381 253 254 258 491 633 742 1174 53 115 100 208 105 207 5 0 7 -67 4 -153 -11 -321 -3 -624 19 -774 56 -376 177 -605 368 -696 60 -28 80 -32 169 -35 81 -3 118 1 180 18 238 65 449 246 639 546 125 199 345 669 552 1178 26 66 53 119 58 118 6 -1 12 -121 16 -319 10 -510 59 -866 155 -1135 76 -212 189 -346 345 -409 83 -33 222 -38 324 -10 154 42 274 118 416 261 246 250 459 622 784 1368 56 129 105 234 111 235 5 1 12 -84 16 -203 12 -372 67 -655 181 -931 171 -415 386 -618 756 -716 84 -23 116 -26 256 -26 144 -1 170 2 260 27 310 84 548 262 818 609 203 260 367 524 512 822 181 374 516 1201 502 1239 -10 25 -87 75 -143 93 -30 9 -56 15 -58 12 -2 -2 -43 -103 -91 -224 -294 -741 -573 -1252 -886 -1620 -236 -279 -496 -425 -755 -425 -121 0 -181 13 -284 62 -123 59 -227 165 -298 305 -144 281 -200 597 -189 1053 6 231 38 566 55 581 4 3 47 16 97 28 399 98 875 404 1196 769 306 349 479 654 557 987 23 96 26 133 26 285 1 138 -3 189 -17 240 -60 219 -184 363 -368 425 -116 39 -298 46 -439 17 -363 -75 -666 -320 -963 -779 -269 -415 -487 -979 -617 -1598 -47 -223 -479 -1246 -702 -1660 -234 -436 -400 -643 -580 -725 -64 -29 -169 -27 -222 4 -108 63 -178 237 -210 518 -42 372 -22 869 68 1713 l24 220 220 465 c297 628 387 831 589 1320 l39 95 229 3 c126 1 233 6 238 11 4 4 23 86 41 182 l33 174 -196 5 c-121 3 -196 9 -196 15 0 6 46 147 102 315 158 473 256 833 310 1137 25 143 27 181 28 408 0 264 -4 303 -52 448 -69 212 -209 308 -432 294 -315 -19 -519 -276 -746 -937 -137 -402 -225 -742 -356 -1375 -33 -159 -63 -293 -67 -297 -4 -4 -102 -9 -217 -10 l-209 -3 -31 -175 c-18 -96 -30 -178 -28 -182 2 -5 96 -8 209 -8 167 0 206 -3 210 -14 3 -8 -10 -103 -30 -213 -99 -557 -179 -1104 -241 -1646 -28 -248 -20 -223 -221 -719 -145 -359 -258 -615 -388 -883 -192 -394 -305 -574 -456 -726 -114 -115 -174 -149 -264 -149 l-60 0 -47 51 c-57 59 -74 110 -90 261 -27 254 32 903 142 1563 87 525 333 1776 518 2639 23 103 41 192 41 197 0 5 -127 8 -302 7 l-302 -3 -8 -35 c-4 -19 -28 -129 -53 -245 -173 -790 -335 -1583 -391 -1914 -49 -289 -55 -309 -209 -681 -261 -629 -534 -1185 -720 -1465 -169 -253 -312 -375 -440 -375 -120 0 -202 84 -242 247 -22 91 -21 344 1 518 41 311 88 502 305 1245 265 906 330 1136 365 1301 136 638 128 988 -29 1219 -203 299 -601 290 -950 -21 -327 -291 -689 -838 -1012 -1524 -118 -252 -120 -243 -33 130 l67 290 158 320 c192 390 542 1123 637 1335 261 578 556 1330 673 1715 136 448 207 835 208 1145 2 228 -27 325 -127 436 -96 108 -290 151 -486 108z m181 -390 c65 -33 92 -166 70 -340 -53 -397 -191 -895 -470 -1691 -235 -669 -355 -985 -588 -1547 -140 -337 -151 -362 -163 -350 -17 18 296 1628 455 2339 159 715 323 1239 453 1445 85 137 166 184 243 144z m5169 -1187 c64 -31 88 -164 71 -394 -22 -309 -74 -575 -193 -993 -48 -169 -230 -727 -249 -762 -9 -16 -28 -18 -179 -18 -93 0 -171 4 -175 9 -10 17 115 698 196 1066 131 596 250 942 362 1060 40 41 47 45 93 45 27 0 60 -6 74 -13z m-8282 -1750 c64 -66 98 -230 87 -426 -39 -707 -203 -1472 -541 -2521 -82 -254 -107 -313 -118 -279 -9 25 -35 172 -46 254 -6 44 -14 231 -17 415 -15 839 72 1618 238 2132 53 166 135 332 193 392 52 53 75 64 132 65 33 1 46 -5 72 -32z m10620 -671 c46 -24 72 -60 99 -137 35 -97 43 -296 19 -436 -45 -262 -196 -572 -411 -848 -84 -108 -292 -307 -420 -402 -178 -133 -506 -326 -519 -305 -5 9 47 256 93 440 168 661 431 1244 680 1504 131 137 241 197 364 198 39 0 79 -6 95 -14z m-2864 -125 c3 -4 -80 -224 -185 -487 -105 -264 -195 -490 -200 -503 -6 -15 -13 -21 -19 -15 -5 5 -1 61 11 139 23 150 69 457 104 693 13 89 27 167 30 172 8 12 252 14 259 1z"/>
<path d="M58723 69820 c-121 -24 -229 -109 -291 -228 -63 -120 -85 -214 -80 -336 5 -123 36 -203 104 -266 68 -62 103 -74 229 -74 104 -1 114 1 179 32 260 123 372 509 217 751 -68 105 -204 151 -358 121z"/>
<path d="M27871 69521 c-84 -303 -130 -526 -152 -736 -23 -228 -3 -747 42 -1101 l13 -101 -58 -169 c-149 -434 -236 -682 -338 -959 -60 -165 -156 -426 -213 -580 -225 -614 -371 -874 -631 -1125 -132 -128 -340 -266 -339 -225 0 6 33 107 72 225 334 1009 375 2043 109 2736 -142 369 -361 571 -696 639 -67 14 -114 16 -225 12 -191 -8 -344 -47 -510 -130 -393 -196 -733 -719 -870 -1340 -9 -42 -21 -79 -25 -82 -5 -3 -78 13 -163 35 -85 22 -162 40 -170 40 -8 0 -17 -10 -20 -22 -2 -13 -34 -138 -70 -278 -180 -697 -256 -1282 -244 -1860 8 -359 40 -575 124 -830 141 -426 369 -676 705 -774 174 -50 329 -58 491 -25 229 46 438 158 661 356 229 202 466 511 627 817 l60 115 52 17 c521 170 925 643 1217 1424 15 41 49 131 75 200 80 216 294 825 371 1060 41 124 77 231 80 239 11 31 26 -12 64 -181 98 -437 193 -798 326 -1230 132 -432 189 -669 236 -991 31 -213 31 -509 0 -647 -43 -197 -106 -341 -208 -476 -130 -173 -311 -263 -504 -251 -263 15 -438 192 -481 487 l-11 80 -63 0 c-34 0 -150 -3 -258 -7 l-197 -6 0 -97 c0 -175 49 -375 121 -497 97 -163 309 -316 534 -386 285 -88 635 -48 948 108 240 120 427 295 686 639 196 260 342 518 516 906 55 124 105 226 110 228 6 1 12 -84 16 -225 12 -391 65 -671 182 -954 171 -415 386 -618 756 -716 84 -23 116 -26 256 -26 144 -1 170 2 260 27 315 86 545 259 830 624 423 541 690 1125 1296 2822 34 96 106 307 160 469 54 161 102 298 108 304 13 13 9 29 76 -268 95 -424 203 -820 350 -1290 132 -423 217 -894 218 -1205 2 -576 -308 -1019 -712 -1020 -191 0 -364 110 -448 285 -35 74 -63 183 -63 249 l0 39 -197 -6 c-108 -4 -227 -7 -265 -7 l-68 0 0 -62 c0 -252 71 -481 195 -630 66 -79 207 -182 331 -240 403 -188 934 -99 1344 227 251 199 596 667 813 1100 94 189 326 723 468 1079 l80 198 -17 19 c-21 24 -150 89 -175 89 -12 0 -24 -16 -37 -52 -136 -364 -304 -753 -457 -1058 -121 -243 -165 -322 -179 -324 -5 -1 -10 73 -11 164 -4 289 -50 560 -151 904 -44 148 -242 680 -470 1261 -217 556 -307 877 -358 1278 l-13 109 38 140 c104 376 179 807 228 1304 11 104 18 190 17 191 -2 3 -225 46 -391 77 -44 8 -83 12 -87 8 -9 -10 -102 -361 -137 -522 -55 -248 -65 -355 -64 -680 1 -298 18 -565 49 -763 l15 -98 -57 -172 c-84 -255 -240 -700 -339 -967 -48 -129 -144 -392 -215 -585 -147 -404 -219 -585 -337 -850 -247 -552 -456 -906 -714 -1210 -236 -279 -496 -425 -755 -425 -121 0 -181 13 -284 62 -123 59 -227 165 -298 305 -144 281 -200 597 -189 1053 6 231 38 566 55 581 4 3 47 16 97 28 400 99 874 403 1198 771 303 344 477 652 555 985 23 96 26 133 26 285 1 138 -3 189 -17 240 -60 219 -184 363 -368 425 -159 54 -396 45 -582 -22 -356 -127 -654 -427 -946 -949 -200 -358 -390 -899 -497 -1414 -32 -156 -302 -808 -489 -1180 -128 -256 -177 -345 -189 -345 -5 0 -8 65 -7 145 4 283 -57 646 -166 985 -42 132 -261 716 -414 1107 -245 624 -340 952 -395 1360 l-17 127 42 155 c81 297 148 650 195 1026 30 232 50 449 44 455 -2 3 -49 14 -104 25 -109 21 -365 70 -369 70 -1 0 -21 -67 -44 -149z m3717 -1685 c46 -24 72 -60 99 -137 35 -97 43 -296 19 -436 -45 -262 -196 -572 -411 -848 -111 -142 -313 -328 -505 -465 -142 -101 -424 -258 -434 -242 -6 9 47 259 93 440 168 662 431 1244 680 1504 131 137 241 197 364 198 39 0 79 -6 95 -14z m-5943 -31 c239 -116 355 -474 355 -1095 0 -513 -72 -1011 -232 -1595 -39 -144 -137 -452 -187 -585 l-39 -105 -53 -3 c-103 -6 -311 42 -444 103 -81 37 -203 126 -271 197 -280 295 -435 843 -396 1400 32 448 126 792 309 1136 204 382 491 588 803 579 82 -2 104 -7 155 -32z m-1615 -2035 c0 -56 31 -266 56 -380 53 -240 170 -525 288 -703 167 -251 383 -416 670 -513 106 -35 277 -74 325 -74 15 0 30 -2 33 -6 9 -8 -28 -97 -98 -237 -178 -357 -407 -591 -639 -653 -68 -19 -204 -17 -279 2 -192 49 -347 217 -414 449 -118 402 -126 928 -26 1735 24 199 51 381 60 408 7 22 24 2 24 -28z"/>
<path d="M41830 69656 c0 -2 -18 -75 -39 -162 -111 -447 -161 -810 -161 -1173 0 -292 26 -473 88 -629 l25 -63 -37 -187 c-110 -552 -257 -1122 -413 -1597 -172 -526 -608 -1520 -836 -1905 -245 -414 -396 -580 -529 -580 -42 0 -48 3 -67 34 -82 132 -90 414 -26 911 30 230 85 616 119 837 72 458 285 1616 431 2346 63 315 115 577 115 582 0 13 -497 13 -505 0 -3 -5 -35 -157 -71 -337 -36 -180 -71 -334 -76 -340 -14 -17 -28 -7 -28 20 0 67 -64 269 -122 387 -92 185 -184 270 -363 331 -27 10 -89 14 -195 14 -146 0 -160 -2 -235 -29 -44 -16 -113 -47 -154 -70 -84 -47 -239 -172 -294 -237 -100 -119 -130 -158 -195 -249 -201 -281 -374 -627 -555 -1110 -83 -224 -105 -295 -171 -553 -146 -570 -214 -994 -238 -1484 -13 -280 -1 -570 32 -763 70 -402 223 -650 459 -741 86 -34 271 -39 374 -10 222 61 408 198 579 428 190 255 373 600 525 992 75 193 82 178 53 -111 -20 -194 -21 -230 -11 -408 6 -107 18 -241 26 -298 45 -319 142 -521 282 -592 43 -22 60 -25 168 -25 l120 0 71 38 c291 155 522 510 994 1522 185 398 450 1029 534 1275 125 362 282 887 389 1294 18 72 39 132 46 134 21 7 265 -533 311 -691 61 -209 87 -450 70 -646 -23 -279 -56 -409 -261 -1035 -217 -662 -246 -789 -256 -1106 -8 -271 31 -441 135 -584 107 -147 236 -206 445 -206 248 0 449 104 650 335 192 221 397 624 741 1458 8 21 19 36 24 33 5 -3 12 -81 16 -173 13 -318 52 -553 132 -793 50 -152 140 -343 209 -446 165 -243 419 -395 730 -435 324 -42 674 86 947 346 232 221 470 552 686 950 140 259 394 848 547 1270 l47 129 -29 24 c-32 27 -145 82 -168 82 -18 0 -13 10 -101 -215 -201 -516 -458 -1032 -662 -1330 -266 -388 -491 -593 -764 -692 -66 -25 -86 -27 -213 -28 -172 0 -245 19 -359 95 -98 66 -165 143 -225 260 -113 219 -167 434 -192 763 -12 172 1 507 29 741 l17 139 112 28 c295 75 610 246 906 494 411 344 735 823 832 1228 78 330 48 586 -95 796 -70 105 -198 182 -348 211 -82 17 -306 8 -391 -15 -295 -80 -554 -268 -772 -562 -95 -128 -193 -276 -258 -390 -199 -351 -374 -832 -495 -1368 -35 -152 -92 -309 -255 -705 -176 -426 -443 -1000 -551 -1185 -166 -284 -325 -472 -445 -526 -24 -11 -64 -19 -101 -19 -51 0 -68 5 -107 31 -99 65 -128 213 -93 459 26 175 55 286 169 645 224 703 260 829 296 1035 80 461 50 829 -95 1162 -66 151 -105 211 -453 706 -95 136 -180 257 -188 268 -12 19 -9 37 27 165 43 157 92 405 139 709 52 338 68 489 86 837 l6 112 -43 11 c-24 7 -143 41 -265 76 -222 64 -233 67 -233 60z m3916 -1833 c35 -25 74 -100 95 -183 20 -79 18 -303 -5 -410 -25 -123 -69 -248 -136 -385 -184 -379 -449 -676 -832 -933 -127 -86 -361 -213 -372 -202 -21 21 110 549 213 860 93 279 127 364 236 585 194 393 375 609 567 676 75 26 191 22 234 -8z m-6441 -158 c98 -47 177 -151 225 -295 101 -304 102 -709 4 -1270 -131 -751 -473 -1716 -784 -2215 -148 -237 -302 -406 -422 -464 -74 -35 -163 -42 -221 -17 -109 46 -191 216 -229 474 -16 110 -16 519 1 702 51 564 192 1215 389 1800 95 282 148 412 262 645 196 399 349 587 535 657 68 25 168 18 240 -17z"/>
<path d="M64792 63263 c-22 -369 -83 -673 -193 -954 -45 -117 -156 -340 -217 -441 l-41 -67 126 -108 126 -107 45 49 c25 28 78 94 118 147 334 447 537 1006 561 1546 l6 132 -259 0 -260 0 -12 -197z"/>
<path d="M29073 62573 c9 -2 23 -2 30 0 6 3 -1 5 -18 5 -16 0 -22 -2 -12 -5z"/>
<path d="M29718 62573 c6 -2 18 -2 25 0 6 3 1 5 -13 5 -14 0 -19 -2 -12 -5z"/>
<path d="M30058 62513 c7 -3 16 -2 19 1 4 3 -2 6 -13 5 -11 0 -14 -3 -6 -6z"/>
<path d="M29218 62363 c6 -2 18 -2 25 0 6 3 1 5 -13 5 -14 0 -19 -2 -12 -5z"/>
<path d="M29688 62363 c7 -3 16 -2 19 1 4 3 -2 6 -13 5 -11 0 -14 -3 -6 -6z"/>
<path d="M49562 61900 c0 -14 2 -19 5 -12 2 6 2 18 0 25 -3 6 -5 1 -5 -13z"/>
<path d="M49562 61205 c0 -16 2 -22 5 -12 2 9 2 23 0 30 -3 6 -5 -1 -5 -18z"/>
<path d="M34008 61213 c50 -2 134 -2 185 0 50 1 9 3 -93 3 -102 0 -143 -2 -92 -3z"/>
<path d="M39518 61213 c34 -2 88 -2 120 0 31 2 3 3 -63 3 -66 0 -92 -1 -57 -3z"/>
<path d="M43503 61213 c37 -2 97 -2 135 0 37 2 6 3 -68 3 -74 0 -105 -1 -67 -3z"/>
<path d="M47153 61213 c32 -2 81 -2 110 0 29 2 3 3 -58 3 -60 0 -84 -1 -52 -3z"/>
<path d="M53343 61213 c37 -2 97 -2 135 0 37 2 6 3 -68 3 -74 0 -105 -1 -67 -3z"/>
<path d="M33728 61193 c7 -3 16 -2 19 1 4 3 -2 6 -13 5 -11 0 -14 -3 -6 -6z"/>
<path d="M37623 61193 c26 -2 67 -2 90 0 23 2 2 3 -48 3 -49 0 -68 -1 -42 -3z"/>
<path d="M41578 61193 c23 -2 59 -2 80 0 20 2 1 4 -43 4 -44 0 -61 -2 -37 -4z"/>
<path d="M46948 61193 c7 -3 16 -2 19 1 4 3 -2 6 -13 5 -11 0 -14 -3 -6 -6z"/>
<path d="M53678 61193 c7 -3 16 -2 19 1 4 3 -2 6 -13 5 -11 0 -14 -3 -6 -6z"/>
<path d="M33588 61173 c7 -3 16 -2 19 1 4 3 -2 6 -13 5 -11 0 -14 -3 -6 -6z"/>
<path d="M36938 61173 c23 -2 59 -2 80 0 20 2 1 4 -43 4 -44 0 -61 -2 -37 -4z"/>
<path d="M40868 61173 c18 -2 45 -2 60 0 15 2 0 4 -33 4 -33 0 -45 -2 -27 -4z"/>
<path d="M40968 61173 c7 -3 16 -2 19 1 4 3 -2 6 -13 5 -11 0 -14 -3 -6 -6z"/>
<path d="M51208 61173 c7 -3 16 -2 19 1 4 3 -2 6 -13 5 -11 0 -14 -3 -6 -6z"/>
<path d="M34003 61043 c20 -2 54 -2 75 0 20 2 3 4 -38 4 -41 0 -58 -2 -37 -4z"/>
<path d="M47103 61043 c20 -2 54 -2 75 0 20 2 3 4 -38 4 -41 0 -58 -2 -37 -4z"/>
<path d="M53358 61043 c17 -2 47 -2 65 0 17 2 3 4 -33 4 -36 0 -50 -2 -32 -4z"/>
<path d="M52679 60963 c-13 -16 -12 -17 4 -4 16 13 21 21 13 21 -2 0 -10 -8 -17 -17z"/>
<path d="M51372 60920 c0 -14 2 -19 5 -12 2 6 2 18 0 25 -3 6 -5 1 -5 -13z"/>
<path d="M41281 60894 c0 -11 3 -14 6 -6 3 7 2 16 -1 19 -3 4 -6 -2 -5 -13z"/>
<path d="M43198 60903 c17 -2 47 -2 65 0 17 2 3 4 -33 4 -36 0 -50 -2 -32 -4z"/>
<path d="M50553 60903 c9 -2 23 -2 30 0 6 3 -1 5 -18 5 -16 0 -22 -2 -12 -5z"/>
<path d="M51193 60903 c9 -2 23 -2 30 0 6 3 -1 5 -18 5 -16 0 -22 -2 -12 -5z"/>
<path d="M39203 60883 c9 -2 23 -2 30 0 6 3 -1 5 -18 5 -16 0 -22 -2 -12 -5z"/>
<path d="M49561 60854 c0 -11 3 -14 6 -6 3 7 2 16 -1 19 -3 4 -6 -2 -5 -13z"/>
<path d="M31431 60824 c0 -11 3 -14 6 -6 3 7 2 16 -1 19 -3 4 -6 -2 -5 -13z"/>
<path d="M46199 60783 c-13 -16 -12 -17 4 -4 9 7 17 15 17 17 0 8 -8 3 -21 -13z"/>
<path d="M38271 60284 c0 -11 3 -14 6 -6 3 7 2 16 -1 19 -3 4 -6 -2 -5 -13z"/>
<path d="M39703 60143 c37 -2 96 -2 130 0 34 2 4 3 -68 3 -71 0 -99 -1 -62 -3z"/>
<path d="M54551 60124 c0 -11 3 -14 6 -6 3 7 2 16 -1 19 -3 4 -6 -2 -5 -13z"/>
<path d="M47802 60020 c0 -14 2 -19 5 -12 2 6 2 18 0 25 -3 6 -5 1 -5 -13z"/>
<path d="M43721 59994 c0 -11 3 -14 6 -6 3 7 2 16 -1 19 -3 4 -6 -2 -5 -13z"/>
<path d="M41281 59654 c0 -11 3 -14 6 -6 3 7 2 16 -1 19 -3 4 -6 -2 -5 -13z"/>
<path d="M49561 59654 c0 -11 3 -14 6 -6 3 7 2 16 -1 19 -3 4 -6 -2 -5 -13z"/>
<path d="M41283 59575 c0 -33 2 -45 4 -27 2 18 2 45 0 60 -2 15 -4 0 -4 -33z"/>
<path d="M49563 59575 c0 -33 2 -45 4 -27 2 18 2 45 0 60 -2 15 -4 0 -4 -33z"/>
<path d="M44672 59600 c0 -14 2 -19 5 -12 2 6 2 18 0 25 -3 6 -5 1 -5 -13z"/>
<path d="M34662 59585 c0 -16 2 -22 5 -12 2 9 2 23 0 30 -3 6 -5 -1 -5 -18z"/>
<path d="M37322 59585 c0 -16 2 -22 5 -12 2 9 2 23 0 30 -3 6 -5 -1 -5 -18z"/>
<path d="M46471 59594 c0 -11 3 -14 6 -6 3 7 2 16 -1 19 -3 4 -6 -2 -5 -13z"/>
<path d="M46477 59023 c-4 -3 -7 -13 -7 -22 0 -12 2 -12 13 2 11 16 94 17 1142 20 l1130 2 -1136 3 c-625 1 -1139 -1 -1142 -5z"/>
<path d="M34403 59013 c48 -2 126 -2 175 0 48 1 8 3 -88 3 -96 0 -136 -2 -87 -3z"/>
<path d="M34048 58993 c7 -3 16 -2 19 1 4 3 -2 6 -13 5 -11 0 -14 -3 -6 -6z"/>
<path d="M34058 58783 c6 -2 18 -2 25 0 6 3 1 5 -13 5 -14 0 -19 -2 -12 -5z"/>
<path d="M29562 58620 c0 -14 2 -19 5 -12 2 6 2 18 0 25 -3 6 -5 1 -5 -13z"/>
<path d="M29563 58468 l1 -48 450 2 451 3 -445 5 -445 5 -6 40 -7 40 1 -47z"/>
<path d="M45421 58434 c0 -11 3 -14 6 -6 3 7 2 16 -1 19 -3 4 -6 -2 -5 -13z"/>
<path d="M31898 58423 c78 -2 206 -2 285 0 78 1 14 3 -143 3 -157 0 -221 -2 -142 -3z"/>
<path d="M48658 58153 c34 -2 88 -2 120 0 31 2 3 3 -63 3 -66 0 -92 -1 -57 -3z"/>
<path d="M56685 57993 c-69 -10 -153 -37 -229 -74 -80 -40 -226 -142 -226 -158 0 -19 53 -102 77 -121 39 -31 75 -25 153 26 117 76 191 104 284 111 98 7 172 -7 226 -43 76 -51 125 -194 118 -350 l-3 -69 -55 -2 c-111 -5 -346 -35 -395 -50 -262 -80 -409 -178 -456 -302 -30 -81 -24 -232 12 -311 34 -72 71 -115 136 -157 72 -46 147 -63 273 -63 165 0 301 50 440 162 68 54 72 52 90 -39 18 -92 36 -105 141 -101 l84 3 3 510 c2 553 -2 612 -51 733 -14 35 -40 84 -58 111 -56 81 -175 158 -277 180 -50 10 -222 13 -287 4z m403 -1019 l3 -151 -60 -56 c-113 -104 -266 -157 -409 -143 -73 8 -105 22 -144 63 -37 39 -58 93 -58 153 0 138 106 218 345 264 116 22 131 23 230 22 l90 -1 3 -151z"/>
<path d="M58355 57986 c-106 -26 -214 -110 -286 -221 -23 -36 -45 -62 -49 -60 -4 3 -11 51 -15 107 -9 133 -20 153 -81 162 -26 3 -73 6 -105 6 l-59 0 0 -765 0 -766 133 3 132 3 5 495 5 495 34 64 c19 35 62 92 96 126 79 83 130 99 278 91 56 -3 120 -8 143 -11 30 -5 43 -3 53 8 12 16 52 216 44 229 -2 4 -28 16 -59 27 -63 24 -187 27 -269 7z"/>
<path d="M59445 57994 c-130 -27 -246 -80 -339 -154 -60 -49 -121 -132 -166 -225 -66 -139 -75 -187 -75 -385 0 -204 14 -270 92 -430 117 -244 374 -384 671 -367 207 12 389 78 501 182 l54 51 -42 56 c-57 76 -79 83 -141 48 -63 -35 -162 -81 -221 -100 -114 -39 -317 -21 -414 35 -127 74 -222 254 -228 433 l-2 67 515 2 515 3 18 21 c22 28 23 168 2 277 -47 236 -233 430 -457 476 -70 14 -232 20 -283 10z m301 -233 c76 -36 128 -85 162 -154 26 -52 57 -189 48 -212 -5 -13 -62 -15 -405 -15 -268 0 -402 3 -406 10 -10 17 14 108 48 180 45 95 124 171 207 198 90 29 104 31 197 27 67 -2 95 -9 149 -34z"/>
<path d="M32421 57334 c0 -11 3 -14 6 -6 3 7 2 16 -1 19 -3 4 -6 -2 -5 -13z"/>
<path d="M35763 56713 c9 -2 25 -2 35 0 9 3 1 5 -18 5 -19 0 -27 -2 -17 -5z"/>
<path d="M41120 56680 l-165 -6 162 -2 c99 -1 164 2 168 8 3 6 5 9 3 8 -2 -1 -77 -5 -168 -8z"/>
<path d="M36928 56673 c72 -2 192 -2 265 0 72 1 13 3 -133 3 -146 0 -205 -2 -132 -3z"/>
<path d="M38492 56673 c108 -2 288 -2 400 0 112 1 23 2 -197 2 -220 0 -311 -1 -203 -2z"/>
<path d="M40660 56673 c0 -5 44 -7 97 -5 181 5 199 8 51 10 -82 1 -148 -1 -148 -5z"/>
<path d="M42373 56673 c76 -2 198 -2 270 0 73 1 11 3 -138 3 -148 0 -208 -2 -132 -3z"/>
<path d="M43308 56673 c79 -2 205 -2 280 0 75 1 11 3 -143 3 -154 0 -216 -2 -137 -3z"/>
<path d="M44818 56673 c79 -2 205 -2 280 0 75 1 11 3 -143 3 -154 0 -216 -2 -137 -3z"/>
<path d="M29138 56553 c6 -2 18 -2 25 0 6 3 1 5 -13 5 -14 0 -19 -2 -12 -5z"/>
<path d="M42791 56504 c0 -11 3 -14 6 -6 3 7 2 16 -1 19 -3 4 -6 -2 -5 -13z"/>
<path d="M53398 56513 c7 -3 16 -2 19 1 4 3 -2 6 -13 5 -11 0 -14 -3 -6 -6z"/>
<path d="M28968 56363 c7 -3 16 -2 19 1 4 3 -2 6 -13 5 -11 0 -14 -3 -6 -6z"/>
<path d="M29938 56363 c7 -3 16 -2 19 1 4 3 -2 6 -13 5 -11 0 -14 -3 -6 -6z"/>
<path d="M29778 56343 c6 -2 18 -2 25 0 6 3 1 5 -13 5 -14 0 -19 -2 -12 -5z"/>
<path d="M47378 56343 c7 -3 16 -2 19 1 4 3 -2 6 -13 5 -11 0 -14 -3 -6 -6z"/>
<path d="M50718 56343 c6 -2 18 -2 25 0 6 3 1 5 -13 5 -14 0 -19 -2 -12 -5z"/>
<path d="M33503 56323 c9 -2 23 -2 30 0 6 3 -1 5 -18 5 -16 0 -22 -2 -12 -5z"/>
<path d="M53718 56323 c6 -2 18 -2 25 0 6 3 1 5 -13 5 -14 0 -19 -2 -12 -5z"/>
<path d="M41798 55653 c23 -2 59 -2 80 0 20 2 1 4 -43 4 -44 0 -61 -2 -37 -4z"/>
<path d="M45138 55653 c6 -2 18 -2 25 0 6 3 1 5 -13 5 -14 0 -19 -2 -12 -5z"/>
<path d="M48548 55653 c7 -3 16 -2 19 1 4 3 -2 6 -13 5 -11 0 -14 -3 -6 -6z"/>
<path d="M49158 55653 c7 -3 16 -2 19 1 4 3 -2 6 -13 5 -11 0 -14 -3 -6 -6z"/>
<path d="M52098 55653 c23 -2 59 -2 80 0 20 2 1 4 -43 4 -44 0 -61 -2 -37 -4z"/>
<path d="M56318 55653 c7 -3 16 -2 19 1 4 3 -2 6 -13 5 -11 0 -14 -3 -6 -6z"/>
<path d="M60318 55653 c7 -3 16 -2 19 1 4 3 -2 6 -13 5 -11 0 -14 -3 -6 -6z"/>
<path d="M62823 55653 c26 -2 67 -2 90 0 23 2 2 3 -48 3 -49 0 -68 -1 -42 -3z"/>
<path d="M64248 55653 c7 -3 16 -2 19 1 4 3 -2 6 -13 5 -11 0 -14 -3 -6 -6z"/>
<path d="M40880 55622 c0 -10 4 -12 13 -4 6 5 23 12 37 15 16 3 12 4 -12 4 -26 -1 -38 -6 -38 -15z"/>
<path d="M40968 55633 c7 -3 16 -2 19 1 4 3 -2 6 -13 5 -11 0 -14 -3 -6 -6z"/>
<path d="M41098 55633 c23 -2 59 -2 80 0 20 2 1 4 -43 4 -44 0 -61 -2 -37 -4z"/>
<path d="M48408 55633 c7 -3 16 -2 19 1 4 3 -2 6 -13 5 -11 0 -14 -3 -6 -6z"/>
<path d="M51418 55633 c23 -2 59 -2 80 0 20 2 1 4 -43 4 -44 0 -61 -2 -37 -4z"/>
<path d="M62123 55633 c26 -2 67 -2 90 0 23 2 2 3 -48 3 -49 0 -68 -1 -42 -3z"/>
<path d="M48638 55503 c6 -2 18 -2 25 0 6 3 1 5 -13 5 -14 0 -19 -2 -12 -5z"/>
<path d="M62462 55390 c0 -19 2 -27 5 -17 2 9 2 25 0 35 -3 9 -5 1 -5 -18z"/>
<path d="M63679 55403 c-13 -16 -12 -17 4 -4 9 7 17 15 17 17 0 8 -8 3 -21 -13z"/>
<path d="M52572 54850 c0 -14 2 -19 5 -12 2 6 2 18 0 25 -3 6 -5 1 -5 -13z"/>
<path d="M43441 54794 c0 -11 3 -14 6 -6 3 7 2 16 -1 19 -3 4 -6 -2 -5 -13z"/>
<path d="M45461 54794 c0 -11 3 -14 6 -6 3 7 2 16 -1 19 -3 4 -6 -2 -5 -13z"/>
<path d="M64641 54294 c0 -11 3 -14 6 -6 3 7 2 16 -1 19 -3 4 -6 -2 -5 -13z"/>
<path d="M49133 53713 c42 -2 112 -2 155 0 42 1 7 3 -78 3 -85 0 -120 -2 -77 -3z"/>
<path d="M48773 53693 c9 -2 23 -2 30 0 6 3 -1 5 -18 5 -16 0 -22 -2 -12 -5z"/>
<path d="M48608 53673 c7 -3 16 -2 19 1 4 3 -2 6 -13 5 -11 0 -14 -3 -6 -6z"/>
<path d="M48628 51713 c7 -3 16 -2 19 1 4 3 -2 6 -13 5 -11 0 -14 -3 -6 -6z"/>
<path d="M48768 51713 c7 -3 16 -2 19 1 4 3 -2 6 -13 5 -11 0 -14 -3 -6 -6z"/>
<path d="M62190 51640 l-275 -5 272 -3 c173 -1 274 2 278 8 3 6 5 9 3 8 -2 -1 -127 -5 -278 -8z"/>
<path d="M64393 51643 l-253 -3 1 -33 c1 -30 2 -30 8 -7 l7 25 239 3 c139 1 243 6 249 12 6 6 8 9 6 8 -3 -2 -119 -4 -257 -5z"/>
<path d="M40880 51624 c0 -13 3 -14 13 -5 9 7 102 12 273 14 l259 2 -272 3 c-246 2 -273 0 -273 -14z"/>
<path d="M42403 51633 c59 -2 154 -2 210 0 56 1 8 3 -108 3 -115 0 -161 -2 -102 -3z"/>
<path d="M43040 51633 c0 -5 60 -7 132 -5 249 4 273 8 71 10 -112 1 -203 -1 -203 -5z"/>
<path d="M44423 51633 c59 -2 154 -2 210 0 56 1 8 3 -108 3 -115 0 -161 -2 -102 -3z"/>
<path d="M45153 51633 c59 -2 154 -2 210 0 56 1 8 3 -108 3 -115 0 -161 -2 -102 -3z"/>
<path d="M46463 51633 c71 -2 183 -2 250 0 67 1 10 3 -128 3 -137 0 -192 -2 -122 -3z"/>
<path d="M51261 51608 c1 -30 2 -31 8 -8 l7 25 224 5 225 6 -232 2 -233 2 1 -32z"/>
<path d="M52767 51633 c94 -2 252 -2 350 0 98 1 21 2 -172 2 -192 1 -273 -1 -178 -2z"/>
<path d="M63438 51633 c68 -2 176 -2 240 0 64 1 9 3 -123 3 -132 0 -185 -2 -117 -3z"/>
<path d="M65603 51633 c71 -2 183 -2 250 0 67 1 10 3 -128 3 -137 0 -192 -2 -122 -3z"/>
<path d="M51261 51554 c0 -11 3 -14 6 -6 3 7 2 16 -1 19 -3 4 -6 -2 -5 -13z"/>
<path d="M51263 51488 l1 -48 1000 2 1001 3 -995 5 -995 5 -6 40 -7 40 1 -47z"/>
<path d="M64143 51488 l1 -48 900 2 901 3 -895 5 -895 5 -6 40 -7 40 1 -47z"/>
<path d="M55928 51493 c7 -3 16 -2 19 1 4 3 -2 6 -13 5 -11 0 -14 -3 -6 -6z"/>
<path d="M59928 51493 c7 -3 16 -2 19 1 4 3 -2 6 -13 5 -11 0 -14 -3 -6 -6z"/>
<path d="M42718 51459 l-18 -19 20 0 c13 0 20 7 20 20 0 24 0 24 -22 -1z"/>
<path d="M46838 51459 l-18 -19 20 0 c13 0 20 7 20 20 0 24 0 24 -22 -1z"/>
<path d="M40877 51456 c-6 -14 -51 -16 -374 -18 l-368 -3 0 -465 0 -465 465 0 465 0 5 465 5 465 800 5 800 6 -889 1 c-674 1 -890 4 -896 13 -5 8 -9 7 -13 -4z"/>
<path d="M43453 51443 c229 -2 605 -2 835 0 229 1 41 2 -418 2 -459 0 -647 -1 -417 -2z"/>
<path d="M45493 51443 c240 -2 634 -2 875 0 240 1 43 2 -438 2 -481 0 -678 -1 -437 -2z"/>
<path d="M62378 51443 c254 -2 670 -2 925 0 254 1 46 2 -463 2 -509 0 -717 -1 -462 -2z"/>
<path d="M48358 51323 c7 -3 16 -2 19 1 4 3 -2 6 -13 5 -11 0 -14 -3 -6 -6z"/>
<path d="M18025 51313 c-137 -12 -330 -63 -445 -116 -89 -42 -229 -139 -319 -222 -263 -245 -459 -684 -550 -1235 -40 -239 -53 -399 -58 -740 -17 -1056 129 -1809 442 -2280 197 -295 478 -481 830 -548 139 -26 418 -23 554 7 546 117 872 471 1086 1176 183 604 229 1732 99 2445 -73 402 -203 746 -367 968 -127 174 -303 328 -469 413 -206 105 -524 157 -803 132z m247 -784 c72 -15 123 -46 189 -115 89 -95 144 -205 192 -389 82 -314 107 -586 107 -1155 0 -914 -49 -1352 -181 -1617 -41 -82 -63 -114 -114 -162 -89 -82 -149 -105 -280 -106 -92 0 -105 3 -168 32 -157 75 -255 239 -316 530 -58 273 -76 579 -76 1288 0 593 6 703 56 994 44 264 126 469 235 590 90 100 216 139 356 110z"/>
<path d="M49992 51171 l-432 -56 2 -2410 3 -2410 320 -37 c176 -20 336 -37 355 -37 l35 -1 105 237 c58 129 109 235 114 235 5 -1 19 -26 31 -57 32 -76 100 -180 160 -240 107 -107 233 -170 410 -206 212 -42 435 -15 613 75 288 145 484 467 582 955 110 549 103 1388 -15 1914 -85 379 -219 625 -425 781 -175 133 -446 164 -675 79 -200 -74 -394 -197 -562 -357 -55 -52 -103 -93 -107 -89 -3 3 -6 384 -6 845 l0 838 -37 -1 c-21 -1 -233 -27 -471 -58z m1228 -1953 c102 -52 159 -185 190 -448 17 -142 25 -932 11 -1131 -29 -434 -124 -676 -298 -760 -98 -47 -288 -35 -363 23 -35 27 -106 115 -135 167 -49 87 -95 267 -115 453 -6 57 -10 380 -10 782 l0 686 40 25 c92 58 361 189 435 211 22 7 76 12 120 13 65 1 89 -3 125 -21z"/>
<path d="M59130 50190 c-42 -4 -87 -11 -100 -15 -75 -23 -225 -94 -295 -140 -83 -54 -106 -72 -248 -193 l-86 -73 -91 54 c-175 105 -425 188 -625 208 -113 11 -323 10 -435 -1 -134 -14 -228 -36 -355 -83 -349 -128 -571 -314 -706 -592 -144 -297 -142 -611 7 -925 76 -160 210 -318 375 -440 46 -34 84 -66 84 -71 0 -5 -43 -34 -95 -65 -260 -154 -464 -367 -545 -569 -39 -98 -46 -236 -16 -315 26 -68 96 -159 159 -204 61 -45 207 -122 274 -145 28 -10 53 -22 55 -28 2 -6 -40 -34 -94 -63 -235 -122 -431 -320 -484 -489 -26 -83 -35 -210 -20 -281 60 -279 353 -492 811 -588 271 -58 409 -72 700 -72 333 0 551 28 834 105 418 115 693 313 831 600 63 129 76 187 82 360 4 125 2 166 -15 245 -40 192 -104 313 -242 451 -110 111 -189 161 -337 213 -194 69 -263 79 -943 131 -503 39 -525 43 -592 103 -63 57 -73 83 -73 197 0 88 3 107 26 150 21 42 35 55 85 80 l59 30 400 0 c442 0 429 -1 610 70 151 59 269 140 396 271 165 173 272 374 319 602 41 203 16 389 -88 669 -36 94 -37 91 58 123 90 30 145 24 312 -38 74 -28 147 -54 162 -58 l26 -6 0 390 c0 215 -3 393 -7 395 -18 10 -104 14 -173 7z m-1494 -763 c106 -63 164 -145 203 -287 53 -192 29 -476 -55 -641 -30 -60 -103 -133 -168 -167 -47 -25 -60 -27 -166 -27 l-115 0 -68 33 c-50 24 -78 47 -109 85 -81 104 -113 203 -128 407 -10 132 -9 155 8 241 32 154 113 291 209 350 63 39 112 49 223 45 l105 -3 61 -36z m179 -2927 c221 -29 370 -108 411 -217 21 -55 15 -149 -15 -219 -46 -107 -183 -202 -352 -245 -121 -30 -404 -37 -589 -15 -287 35 -447 107 -513 231 -30 56 -29 180 1 248 48 108 122 180 225 218 49 19 72 20 402 15 193 -3 386 -10 430 -16z"/>
<path d="M25895 50033 c-128 -16 -296 -73 -433 -149 -145 -79 -374 -277 -477 -413 -21 -28 -42 -48 -47 -45 -4 3 -8 128 -8 279 0 151 -4 276 -8 279 -5 3 -216 -12 -470 -32 l-462 -37 0 -1847 0 -1848 48 1 c26 0 236 17 467 37 l420 37 3 1225 2 1225 58 58 c31 32 84 78 117 101 161 114 260 146 454 146 134 0 212 -13 332 -53 41 -14 115 -38 164 -53 50 -14 96 -29 103 -31 9 -4 12 111 12 555 l0 560 -31 6 c-32 6 -191 6 -244 -1z"/>
<path d="M29140 50025 c-428 -60 -781 -315 -935 -675 -165 -386 -104 -887 149 -1206 139 -176 216 -220 781 -449 252 -102 484 -200 513 -218 70 -41 145 -123 160 -174 15 -49 15 -125 2 -174 -7 -23 -30 -55 -65 -88 -82 -78 -182 -115 -341 -127 -172 -12 -317 38 -428 149 -62 63 -123 164 -147 245 -7 23 -16 42 -21 42 -4 0 -92 -28 -195 -61 -104 -34 -260 -85 -348 -113 -134 -44 -160 -56 -163 -74 -2 -11 11 -62 28 -114 132 -396 415 -660 814 -760 158 -39 223 -48 386 -54 192 -7 298 3 464 46 186 48 297 98 450 203 188 129 322 299 404 513 56 148 67 218 67 439 0 187 -2 207 -29 310 -82 317 -220 492 -538 683 -103 62 -102 61 -493 222 -374 154 -408 170 -497 228 -203 131 -233 296 -78 435 72 65 144 87 285 87 166 0 201 -13 302 -115 82 -81 112 -132 181 -296 l11 -27 93 28 c51 15 161 49 243 75 83 26 207 64 278 86 70 21 132 41 137 44 22 14 -63 217 -141 336 -191 290 -522 503 -862 553 -128 19 -333 19 -467 1z"/>
<path d="M32290 50025 c-138 -20 -324 -80 -389 -125 -14 -10 -57 -38 -96 -63 -305 -198 -509 -535 -615 -1017 -44 -197 -61 -357 -67 -616 -10 -446 32 -767 143 -1084 181 -521 497 -824 964 -926 119 -26 422 -27 530 -1 306 73 516 204 691 432 101 131 247 426 273 551 l7 31 -63 23 c-35 12 -192 72 -350 132 -158 60 -292 107 -296 104 -5 -3 -17 -27 -27 -53 -81 -217 -264 -471 -381 -529 -59 -29 -166 -27 -219 5 -98 59 -169 159 -225 318 -65 185 -106 432 -112 683 l-3 105 889 5 889 5 14 45 c11 35 13 86 9 225 -18 645 -214 1178 -541 1475 -126 114 -269 197 -415 240 -161 48 -422 63 -610 35z m342 -651 c56 -19 153 -116 192 -191 58 -116 103 -339 108 -538 l3 -100 -438 -3 c-378 -2 -438 0 -443 13 -10 25 15 225 42 335 16 68 45 145 81 220 47 97 67 126 127 186 42 42 85 75 106 81 53 17 170 15 222 -3z"/>
<path d="M36325 50033 c-186 -24 -378 -103 -549 -224 -129 -93 -241 -194 -326 -297 -41 -50 -78 -88 -82 -86 -5 3 -8 128 -8 279 0 151 -4 276 -8 279 -4 2 -216 -12 -470 -32 l-462 -37 0 -1847 0 -1848 48 1 c26 0 236 17 467 37 l420 37 3 1225 2 1225 58 58 c105 108 228 185 356 223 67 20 101 24 215 24 143 0 211 -11 336 -55 39 -13 111 -36 160 -51 50 -15 96 -29 103 -32 9 -3 12 112 12 556 l0 560 -31 6 c-33 6 -192 6 -244 -1z"/>
<path d="M42859 50030 c-146 -23 -275 -65 -369 -119 -145 -83 -314 -239 -417 -384 -81 -114 -202 -361 -251 -512 -152 -461 -182 -1079 -77 -1548 129 -574 390 -978 755 -1170 179 -95 362 -133 590 -124 435 16 739 213 914 590 87 186 172 508 201 757 l7 55 -388 43 c-213 23 -389 40 -390 39 -2 -1 -8 -51 -14 -110 -28 -282 -126 -495 -255 -556 -62 -29 -168 -29 -231 1 -97 45 -168 147 -223 321 -48 150 -71 312 -82 577 -19 447 15 880 86 1096 40 121 67 171 130 236 96 100 243 105 334 11 81 -85 126 -222 153 -460 9 -90 15 -113 27 -113 9 0 203 9 431 20 228 11 421 20 429 20 19 0 8 166 -20 304 -76 375 -269 687 -527 853 -200 129 -343 172 -597 178 -88 2 -185 0 -216 -5z"/>
<path d="M45820 50025 c-169 -25 -296 -68 -420 -143 -231 -139 -389 -312 -515 -562 -297 -591 -326 -1619 -65 -2277 199 -501 523 -781 995 -858 102 -17 274 -19 385 -5 95 12 273 63 353 100 238 110 446 328 587 615 58 119 123 302 110 310 -14 8 -691 265 -700 265 -4 0 -24 -40 -44 -88 -90 -217 -251 -439 -360 -494 -22 -11 -65 -23 -96 -25 -157 -15 -298 140 -380 417 -50 170 -96 512 -88 655 l3 60 886 3 886 2 18 66 c19 69 17 166 -6 424 -47 517 -221 950 -489 1220 -228 230 -491 332 -847 329 -71 -1 -166 -7 -213 -14z m334 -651 c109 -37 197 -159 250 -345 30 -106 58 -320 54 -414 l-3 -70 -435 0 -435 0 -3 54 c-7 124 50 375 114 504 71 142 147 231 229 268 51 24 164 25 229 3z"/>
<path d="M54020 50025 c-169 -25 -296 -68 -420 -143 -231 -139 -389 -312 -515 -562 -297 -591 -326 -1619 -65 -2277 199 -501 523 -781 995 -858 102 -17 274 -19 385 -5 95 12 273 63 353 100 238 110 446 328 587 615 58 119 123 302 110 310 -14 8 -691 265 -700 265 -4 0 -24 -40 -44 -88 -90 -217 -251 -439 -360 -494 -22 -11 -65 -23 -96 -25 -157 -15 -298 140 -380 417 -50 170 -96 512 -88 655 l3 60 886 3 886 2 18 66 c19 69 17 166 -6 424 -47 517 -221 950 -489 1220 -228 230 -491 332 -847 329 -71 -1 -166 -7 -213 -14z m334 -651 c109 -37 197 -159 250 -345 30 -106 58 -320 54 -414 l-3 -70 -435 0 -435 0 -3 54 c-7 124 50 375 114 504 71 142 147 231 229 268 51 24 164 25 229 3z"/>
<path d="M60605 50026 c-396 -52 -707 -255 -860 -561 -42 -84 -105 -293 -105 -349 l0 -21 413 -72 c527 -93 496 -88 501 -72 2 8 9 43 15 79 19 101 66 193 128 250 67 61 104 74 204 68 70 -4 84 -8 117 -35 88 -71 125 -210 126 -473 l1 -175 -35 -2 c-153 -11 -371 -48 -555 -94 -260 -66 -532 -207 -688 -358 -174 -167 -278 -359 -334 -613 -28 -128 -25 -475 5 -615 78 -361 266 -633 514 -747 154 -71 307 -84 473 -41 122 32 175 54 295 124 103 61 263 208 314 290 19 30 31 40 38 33 6 -6 31 -102 57 -214 44 -189 48 -203 70 -206 23 -4 854 66 878 73 8 3 4 34 -13 107 -14 57 -34 157 -46 223 l-22 120 -6 1170 -6 1170 -22 95 c-46 205 -110 343 -220 480 -87 110 -171 176 -312 249 -124 64 -176 81 -315 107 -120 22 -474 27 -610 10z m543 -2446 l2 -514 -52 -54 c-61 -62 -145 -121 -206 -145 -27 -11 -71 -17 -121 -17 -67 0 -86 4 -139 31 -146 72 -210 237 -199 514 13 340 139 551 388 651 82 33 187 53 264 51 l60 -2 3 -515z"/>
<path d="M64695 50025 c-239 -47 -531 -203 -806 -431 -42 -35 -79 -61 -83 -57 -3 3 -6 107 -6 231 l0 225 -47 -6 c-27 -3 -238 -21 -470 -39 l-423 -33 0 -1847 0 -1848 23 0 c12 -1 223 16 470 37 l447 37 0 1347 0 1346 82 48 c302 176 375 205 507 205 179 0 261 -65 314 -250 l22 -75 3 -1347 3 -1348 47 1 c26 0 236 17 467 37 l420 37 0 1480 c0 1393 -1 1485 -18 1570 -23 114 -85 271 -139 355 -94 146 -258 270 -413 312 -92 26 -303 32 -400 13z"/>
<path d="M20823 49952 l-443 -36 0 -1431 c0 -914 4 -1462 10 -1520 29 -246 117 -434 275 -584 81 -76 133 -110 236 -152 359 -146 776 -16 1263 392 38 32 73 56 77 53 5 -3 9 -106 9 -230 l0 -224 48 1 c26 0 236 17 467 37 l420 37 3 1839 c1 1012 -1 1843 -5 1847 -5 5 -216 -9 -471 -29 l-462 -37 0 -1312 0 -1311 -87 -58 c-124 -82 -356 -199 -431 -218 -135 -34 -212 -17 -293 64 -46 46 -59 67 -77 125 -12 39 -26 108 -32 155 -6 53 -10 562 -10 1357 l0 1273 -27 -1 c-16 -1 -227 -18 -470 -37z"/>
<path d="M37263 49952 c-288 -20 -523 -39 -523 -44 0 -16 967 -3437 1026 -3630 5 -17 35 -18 439 -18 404 0 434 1 439 18 65 224 149 517 301 1047 217 757 296 1029 561 1943 108 371 194 676 192 678 -6 6 -832 -68 -840 -75 -6 -6 -126 -505 -328 -1366 -22 -93 -57 -244 -79 -335 -21 -91 -55 -235 -75 -320 -45 -191 -43 -187 -59 -171 -6 6 -113 528 -237 1159 l-226 1147 -35 1 c-19 1 -269 -14 -556 -34z"/>
<path d="M40568 49952 l-438 -37 0 -1847 0 -1848 33 0 c27 0 548 43 822 68 l80 7 0 1845 0 1845 -30 1 c-16 1 -227 -15 -467 -34z"/>
<path d="M19778 44933 c6 -2 18 -2 25 0 6 3 1 5 -13 5 -14 0 -19 -2 -12 -5z"/>
<path d="M20018 44933 c6 -2 18 -2 25 0 6 3 1 5 -13 5 -14 0 -19 -2 -12 -5z"/>
<path d="M39733 44273 c9 -2 23 -2 30 0 6 3 -1 5 -18 5 -16 0 -22 -2 -12 -5z"/>
<path d="M46513 44273 c53 -2 141 -2 195 0 53 1 9 3 -98 3 -107 0 -151 -2 -97 -3z"/>
<path d="M52161 44264 c0 -11 3 -14 6 -6 3 7 2 16 -1 19 -3 4 -6 -2 -5 -13z"/>
<path d="M62198 44273 c56 -2 148 -2 205 0 56 1 10 3 -103 3 -113 0 -159 -2 -102 -3z"/>
<path d="M39493 44253 c9 -2 23 -2 30 0 6 3 -1 5 -18 5 -16 0 -22 -2 -12 -5z"/>
<path d="M46188 44253 c7 -3 16 -2 19 1 4 3 -2 6 -13 5 -11 0 -14 -3 -6 -6z"/>
<path d="M46998 44253 c6 -2 18 -2 25 0 6 3 1 5 -13 5 -14 0 -19 -2 -12 -5z"/>
<path d="M61833 44253 c9 -2 23 -2 30 0 6 3 -1 5 -18 5 -16 0 -22 -2 -12 -5z"/>
<path d="M62738 44253 c6 -2 18 -2 25 0 6 3 1 5 -13 5 -14 0 -19 -2 -12 -5z"/>
<path d="M39233 44233 c9 -2 23 -2 30 0 6 3 -1 5 -18 5 -16 0 -22 -2 -12 -5z"/>
<path d="M46028 44233 c7 -3 16 -2 19 1 4 3 -2 6 -13 5 -11 0 -14 -3 -6 -6z"/>
<path d="M47138 44233 c7 -3 16 -2 19 1 4 3 -2 6 -13 5 -11 0 -14 -3 -6 -6z"/>
<path d="M62898 44233 c7 -3 16 -2 19 1 4 3 -2 6 -13 5 -11 0 -14 -3 -6 -6z"/>
<path d="M38993 44213 c9 -2 23 -2 30 0 6 3 -1 5 -18 5 -16 0 -22 -2 -12 -5z"/>
<path d="M47238 44213 c7 -3 16 -2 19 1 4 3 -2 6 -13 5 -11 0 -14 -3 -6 -6z"/>
<path d="M61548 44213 c7 -3 16 -2 19 1 4 3 -2 6 -13 5 -11 0 -14 -3 -6 -6z"/>
<path d="M38733 44193 c9 -2 23 -2 30 0 6 3 -1 5 -18 5 -16 0 -22 -2 -12 -5z"/>
<path d="M38493 44173 c9 -2 23 -2 30 0 6 3 -1 5 -18 5 -16 0 -22 -2 -12 -5z"/>
<path d="M38233 44153 c9 -2 23 -2 30 0 6 3 -1 5 -18 5 -16 0 -22 -2 -12 -5z"/>
<path d="M37787 44133 c18 -2 50 -2 70 0 21 2 7 4 -32 4 -38 0 -55 -2 -38 -4z"/>
<path d="M36121 44086 c1 -21 3 -25 6 -11 3 11 9 25 14 31 5 7 3 11 -6 11 -10 0 -15 -10 -14 -31z"/>
<path d="M36873 44113 c54 -2 139 -2 190 0 51 1 7 3 -98 3 -104 0 -146 -2 -92 -3z"/>
<path d="M61128 44113 c7 -3 16 -2 19 1 4 3 -2 6 -13 5 -11 0 -14 -3 -6 -6z"/>
<path d="M46443 43983 c42 -2 112 -2 155 0 42 1 7 3 -78 3 -85 0 -120 -2 -77 -3z"/>
<path d="M46238 43963 c7 -3 16 -2 19 1 4 3 -2 6 -13 5 -11 0 -14 -3 -6 -6z"/>
<path d="M36123 43768 l1 -48 665 2 666 3 -660 5 -660 5 -6 40 -7 40 1 -47z"/>
<path d="M61393 43723 c15 -2 37 -2 50 0 12 2 0 4 -28 4 -27 0 -38 -2 -22 -4z"/>
<path d="M60039 43483 c-13 -16 -12 -17 4 -4 16 13 21 21 13 21 -2 0 -10 -8 -17 -17z"/>
<path d="M55438 42843 c7 -3 16 -2 19 1 4 3 -2 6 -13 5 -11 0 -14 -3 -6 -6z"/>
<path d="M55243 42823 c9 -2 23 -2 30 0 6 3 -1 5 -18 5 -16 0 -22 -2 -12 -5z"/>
<path d="M52537 42803 c-4 -3 -7 -18 -6 -32 l1 -26 7 25 c4 14 17 27 31 31 l25 7 -26 1 c-14 1 -29 -2 -32 -6z"/>
<path d="M27453 42473 c53 -2 141 -2 195 0 53 1 9 3 -98 3 -107 0 -151 -2 -97 -3z"/>
<path d="M20418 42453 c12 -2 30 -2 40 0 9 3 -1 5 -23 4 -22 0 -30 -2 -17 -4z"/>
<path d="M20503 42453 c15 -2 37 -2 50 0 12 2 0 4 -28 4 -27 0 -38 -2 -22 -4z"/>
<path d="M24903 42453 c26 -2 67 -2 90 0 23 2 2 3 -48 3 -49 0 -68 -1 -42 -3z"/>
<path d="M27158 42453 c6 -2 18 -2 25 0 6 3 1 5 -13 5 -14 0 -19 -2 -12 -5z"/>
<path d="M27898 42453 c7 -3 16 -2 19 1 4 3 -2 6 -13 5 -11 0 -14 -3 -6 -6z"/>
<path d="M19743 42433 c26 -2 67 -2 90 0 23 2 2 3 -48 3 -49 0 -68 -1 -42 -3z"/>
<path d="M24218 42433 c23 -2 59 -2 80 0 20 2 1 4 -43 4 -44 0 -61 -2 -37 -4z"/>
<path d="M19023 42413 c26 -2 67 -2 90 0 23 2 2 3 -48 3 -49 0 -68 -1 -42 -3z"/>
<path d="M23538 42413 c23 -2 59 -2 80 0 20 2 1 4 -43 4 -44 0 -61 -2 -37 -4z"/>
<path d="M18323 42393 c26 -2 67 -2 90 0 23 2 2 3 -48 3 -49 0 -68 -1 -42 -3z"/>
<path d="M22843 42393 c26 -2 67 -2 90 0 23 2 2 3 -48 3 -49 0 -68 -1 -42 -3z"/>
<path d="M60638 42073 c6 -2 18 -2 25 0 6 3 1 5 -13 5 -14 0 -19 -2 -12 -5z"/>
<path d="M19062 41950 c0 -19 2 -27 5 -17 2 9 2 25 0 35 -3 9 -5 1 -5 -18z"/>
<path d="M23542 41950 c0 -19 2 -27 5 -17 2 9 2 25 0 35 -3 9 -5 1 -5 -18z"/>
<path d="M26818 41903 c6 -2 18 -2 25 0 6 3 1 5 -13 5 -14 0 -19 -2 -12 -5z"/>
<path d="M48101 41634 c0 -11 3 -14 6 -6 3 7 2 16 -1 19 -3 4 -6 -2 -5 -13z"/>
<path d="M63421 41454 c0 -11 3 -14 6 -6 3 7 2 16 -1 19 -3 4 -6 -2 -5 -13z"/>
<path d="M48121 41254 c0 -11 3 -14 6 -6 3 7 2 16 -1 19 -3 4 -6 -2 -5 -13z"/>
<path d="M43201 40874 c0 -11 3 -14 6 -6 3 7 2 16 -1 19 -3 4 -6 -2 -5 -13z"/>
<path d="M48141 40654 c0 -11 3 -14 6 -6 3 7 2 16 -1 19 -3 4 -6 -2 -5 -13z"/>
<path d="M27801 40514 c0 -11 3 -14 6 -6 3 7 2 16 -1 19 -3 4 -6 -2 -5 -13z"/>
<path d="M27821 40254 c0 -11 3 -14 6 -6 3 7 2 16 -1 19 -3 4 -6 -2 -5 -13z"/>
<path d="M54048 40133 c84 -2 219 -2 300 0 81 1 12 3 -153 3 -165 0 -231 -2 -147 -3z"/>
<path d="M53608 40113 c7 -3 16 -2 19 1 4 3 -2 6 -13 5 -11 0 -14 -3 -6 -6z"/>
<path d="M54758 40113 c7 -3 16 -2 19 1 4 3 -2 6 -13 5 -11 0 -14 -3 -6 -6z"/>
<path d="M53408 40093 c7 -3 16 -2 19 1 4 3 -2 6 -13 5 -11 0 -14 -3 -6 -6z"/>
<path d="M53088 40053 c7 -3 16 -2 19 1 4 3 -2 6 -13 5 -11 0 -14 -3 -6 -6z"/>
<path d="M55138 40053 c7 -3 16 -2 19 1 4 3 -2 6 -13 5 -11 0 -14 -3 -6 -6z"/>
<path d="M27841 39834 c0 -11 3 -14 6 -6 3 7 2 16 -1 19 -3 4 -6 -2 -5 -13z"/>
<path d="M53513 39683 c59 -2 155 -2 215 0 59 1 10 3 -108 3 -118 0 -167 -2 -107 -3z"/>
<path d="M53118 39643 c6 -2 18 -2 25 0 6 3 1 5 -13 5 -14 0 -19 -2 -12 -5z"/>
<path d="M52998 39623 c7 -3 16 -2 19 1 4 3 -2 6 -13 5 -11 0 -14 -3 -6 -6z"/>
<path d="M52878 39603 c7 -3 16 -2 19 1 4 3 -2 6 -13 5 -11 0 -14 -3 -6 -6z"/>
<path d="M52198 39323 c7 -3 16 -2 19 1 4 3 -2 6 -13 5 -11 0 -14 -3 -6 -6z"/>
<path d="M19061 39174 c0 -11 3 -14 6 -6 3 7 2 16 -1 19 -3 4 -6 -2 -5 -13z"/>
<path d="M23541 39174 c0 -11 3 -14 6 -6 3 7 2 16 -1 19 -3 4 -6 -2 -5 -13z"/>
<path d="M25251 39164 c0 -11 3 -14 6 -6 3 7 2 16 -1 19 -3 4 -6 -2 -5 -13z"/>
<path d="M29493 39140 c0 -25 2 -35 4 -22 2 12 2 32 0 45 -2 12 -4 2 -4 -23z"/>
<path d="M19063 39095 c0 -33 2 -45 4 -27 2 18 2 45 0 60 -2 15 -4 0 -4 -33z"/>
<path d="M23543 39095 c0 -33 2 -45 4 -27 2 18 2 45 0 60 -2 15 -4 0 -4 -33z"/>
<path d="M27842 39105 c0 -16 2 -22 5 -12 2 9 2 23 0 30 -3 6 -5 -1 -5 -18z"/>
<path d="M46718 37783 c7 -3 16 -2 19 1 4 3 -2 6 -13 5 -11 0 -14 -3 -6 -6z"/>
<path d="M46598 37763 c6 -2 18 -2 25 0 6 3 1 5 -13 5 -14 0 -19 -2 -12 -5z"/>
<path d="M46463 37743 c9 -2 23 -2 30 0 6 3 -1 5 -18 5 -16 0 -22 -2 -12 -5z"/>
<path d="M46053 37723 c43 -2 110 -2 150 0 40 1 5 3 -78 3 -82 0 -115 -2 -72 -3z"/>
<path d="M61239 37323 c-13 -16 -12 -17 4 -4 16 13 21 21 13 21 -2 0 -10 -8 -17 -17z"/>
<path d="M55821 37194 c0 -11 3 -14 6 -6 3 7 2 16 -1 19 -3 4 -6 -2 -5 -13z"/>
<path d="M60939 37043 c-13 -16 -12 -17 4 -4 9 7 17 15 17 17 0 8 -8 3 -21 -13z"/>
<path d="M64953 37033 c48 -2 126 -2 175 0 48 1 8 3 -88 3 -96 0 -136 -2 -87 -3z"/>
<path d="M60639 36763 c-13 -16 -12 -17 4 -4 9 7 17 15 17 17 0 8 -8 3 -21 -13z"/>
<path d="M52068 36713 c7 -3 16 -2 19 1 4 3 -2 6 -13 5 -11 0 -14 -3 -6 -6z"/>
<path d="M52448 36713 c7 -3 16 -2 19 1 4 3 -2 6 -13 5 -11 0 -14 -3 -6 -6z"/>
<path d="M55801 36554 c0 -11 3 -14 6 -6 3 7 2 16 -1 19 -3 4 -6 -2 -5 -13z"/>
<path d="M47416 36463 c-6 -14 -5 -15 5 -6 7 7 10 15 7 18 -3 3 -9 -2 -12 -12z"/>
<path d="M59719 35903 c-13 -16 -12 -17 4 -4 16 13 21 21 13 21 -2 0 -10 -8 -17 -17z"/>
<path d="M59419 35623 c-13 -16 -12 -17 4 -4 16 13 21 21 13 21 -2 0 -10 -8 -17 -17z"/>
<path d="M60038 35553 c12 -2 30 -2 40 0 9 3 -1 5 -23 4 -22 0 -30 -2 -17 -4z"/>
<path d="M60433 35553 c186 -2 488 -2 670 0 183 1 31 2 -338 2 -368 0 -518 -1 -332 -2z"/>
<path d="M62128 35553 c382 -2 1003 -2 1380 0 378 1 66 2 -693 2 -759 0 -1068 -1 -687 -2z"/>
<path d="M45910 34900 c-9 -6 -10 -10 -3 -10 6 0 15 5 18 10 8 12 4 12 -15 0z"/>
<path d="M18473 34523 l-593 -3 1 -33 c1 -30 2 -30 8 -7 l7 25 579 3 c366 1 583 6 589 12 6 6 8 9 6 8 -3 -2 -272 -4 -597 -5z"/>
<path d="M23005 34520 l-540 -5 537 -3 c350 -1 539 1 543 8 3 6 5 9 3 8 -2 -2 -246 -5 -543 -8z"/>
<path d="M21058 34513 c156 -2 408 -2 560 0 152 1 25 2 -283 2 -308 0 -433 -1 -277 -2z"/>
<path d="M25457 34513 c133 -2 353 -2 490 0 136 1 28 2 -242 2 -269 0 -381 -1 -248 -2z"/>
<path d="M27098 34513 c139 -2 364 -2 500 0 136 1 22 2 -253 2 -275 0 -386 -1 -247 -2z"/>
<path d="M29748 34513 c139 -2 364 -2 500 0 136 1 22 2 -253 2 -275 0 -386 -1 -247 -2z"/>
<path d="M36683 34513 c257 -2 677 -2 935 0 257 1 46 2 -468 2 -514 0 -725 -1 -467 -2z"/>
<path d="M40088 34513 c161 -2 422 -2 580 0 158 1 26 2 -293 2 -319 0 -448 -1 -287 -2z"/>
<path d="M41118 34513 c90 -2 234 -2 320 0 86 1 13 3 -163 3 -176 0 -247 -2 -157 -3z"/>
<path d="M53248 34233 c6 -2 18 -2 25 0 6 3 1 5 -13 5 -14 0 -19 -2 -12 -5z"/>
<path d="M54118 34233 c6 -2 18 -2 25 0 6 3 1 5 -13 5 -14 0 -19 -2 -12 -5z"/>
<path d="M53398 34213 c6 -2 18 -2 25 0 6 3 1 5 -13 5 -14 0 -19 -2 -12 -5z"/>
<path d="M53968 34213 c7 -3 16 -2 19 1 4 3 -2 6 -13 5 -11 0 -14 -3 -6 -6z"/>
<path d="M17883 34175 c0 -22 2 -30 4 -17 2 12 2 30 0 40 -3 9 -5 -1 -4 -23z"/>
<path d="M65132 34150 c0 -19 2 -27 5 -17 2 9 2 25 0 35 -3 9 -5 1 -5 -18z"/>
<path d="M41612 34140 c0 -14 2 -19 5 -12 2 6 2 18 0 25 -3 6 -5 1 -5 -13z"/>
<path d="M20473 34123 c9 -2 23 -2 30 0 6 3 -1 5 -18 5 -16 0 -22 -2 -12 -5z"/>
<path d="M40953 34123 c9 -2 23 -2 30 0 6 3 -1 5 -18 5 -16 0 -22 -2 -12 -5z"/>
<path d="M61433 34123 c9 -2 23 -2 30 0 6 3 -1 5 -18 5 -16 0 -22 -2 -12 -5z"/>
<path d="M45018 34003 c7 -3 16 -2 19 1 4 3 -2 6 -13 5 -11 0 -14 -3 -6 -6z"/>
<path d="M54858 33963 c7 -3 16 -2 19 1 4 3 -2 6 -13 5 -11 0 -14 -3 -6 -6z"/>
<path d="M54738 33943 c7 -3 16 -2 19 1 4 3 -2 6 -13 5 -11 0 -14 -3 -6 -6z"/>
<path d="M44618 33923 c6 -2 18 -2 25 0 6 3 1 5 -13 5 -14 0 -19 -2 -12 -5z"/>
<path d="M54558 33923 c6 -2 18 -2 25 0 6 3 1 5 -13 5 -14 0 -19 -2 -12 -5z"/>
<path d="M44478 33903 c6 -2 18 -2 25 0 6 3 1 5 -13 5 -14 0 -19 -2 -12 -5z"/>
<path d="M54363 33903 c9 -2 25 -2 35 0 9 3 1 5 -18 5 -19 0 -27 -2 -17 -5z"/>
<path d="M44358 33883 c6 -2 18 -2 25 0 6 3 1 5 -13 5 -14 0 -19 -2 -12 -5z"/>
<path d="M53738 33883 c68 -2 176 -2 240 0 64 1 9 3 -123 3 -132 0 -185 -2 -117 -3z"/>
<path d="M44198 33863 c6 -2 18 -2 25 0 6 3 1 5 -13 5 -14 0 -19 -2 -12 -5z"/>
<path d="M44003 33843 c9 -2 23 -2 30 0 6 3 -1 5 -18 5 -16 0 -22 -2 -12 -5z"/>
<path d="M23865 31849 c-299 -43 -600 -216 -776 -448 -99 -131 -189 -349 -225 -546 -27 -150 -25 -413 5 -565 100 -508 442 -859 941 -966 158 -33 494 -28 688 12 166 33 370 116 482 195 l60 42 0 483 0 484 -390 0 -390 0 0 -102 c0 -63 5 -113 13 -128 l13 -25 219 -5 220 -5 3 -273 2 -272 -32 -20 c-48 -29 -176 -77 -271 -101 -105 -27 -377 -38 -481 -19 -205 37 -344 106 -477 239 -134 134 -215 293 -255 498 -22 110 -24 366 -5 473 57 322 221 556 476 679 133 65 227 81 464 81 156 0 187 -3 268 -25 96 -26 188 -67 310 -141 80 -49 135 -57 171 -26 12 9 44 54 71 99 l50 82 -35 31 c-41 36 -172 123 -223 150 -83 41 -203 83 -305 106 -98 22 -131 24 -320 23 -116 -1 -238 -5 -271 -10z"/>
<path d="M37885 31843 c-40 -8 -112 -36 -170 -66 -79 -40 -116 -67 -175 -127 -136 -136 -189 -259 -197 -450 -12 -280 84 -459 317 -588 71 -39 149 -69 345 -132 296 -95 362 -128 452 -223 98 -103 108 -274 26 -437 -77 -155 -226 -230 -453 -230 -190 0 -314 42 -466 157 -101 76 -113 83 -152 83 -51 0 -65 -12 -128 -111 l-58 -92 57 -53 c203 -189 476 -284 780 -271 444 18 738 272 788 681 28 233 -25 403 -170 538 -96 90 -237 159 -511 252 -237 81 -338 128 -408 191 -82 74 -97 110 -97 230 0 93 2 105 33 167 50 103 156 180 283 207 65 14 213 14 281 0 67 -14 224 -87 288 -134 63 -46 112 -56 143 -27 23 22 115 198 106 205 -2 2 -31 26 -65 53 -64 53 -224 141 -284 156 -159 41 -427 51 -565 21z"/>
<path d="M41220 31845 c-180 -30 -331 -91 -495 -200 -202 -135 -337 -311 -423 -556 -63 -177 -77 -272 -77 -504 0 -226 10 -301 61 -459 120 -369 405 -656 759 -765 163 -50 209 -56 440 -55 215 0 298 8 434 40 152 37 349 121 444 190 l47 34 0 485 0 485 -385 0 -385 0 0 -113 c0 -75 4 -119 13 -130 10 -15 39 -17 227 -19 l215 -3 0 -275 0 -275 -53 -28 c-142 -77 -275 -107 -492 -114 -189 -6 -254 3 -407 53 -247 82 -454 313 -531 594 -52 189 -56 480 -8 665 67 259 217 459 428 570 94 50 117 57 233 80 81 16 422 20 469 6 17 -5 60 -18 96 -27 66 -18 132 -50 271 -130 131 -76 168 -62 253 90 l38 68 -28 24 c-87 74 -263 178 -334 199 -14 4 -29 11 -35 15 -12 10 -98 32 -205 54 -93 20 -458 20 -570 1z"/>
<path d="M49715 31855 c-5 -1 -37 -9 -70 -16 -138 -30 -299 -135 -388 -252 -108 -143 -141 -240 -141 -422 0 -138 17 -215 66 -308 65 -121 188 -225 340 -288 40 -16 165 -59 278 -96 275 -88 367 -135 444 -225 112 -130 80 -397 -62 -530 -98 -92 -202 -127 -378 -128 -190 0 -310 41 -473 162 -91 68 -109 78 -146 78 -50 0 -65 -14 -136 -126 l-50 -79 53 -48 c203 -182 457 -277 743 -277 102 0 184 13 319 48 117 31 282 143 357 242 50 65 112 193 135 276 24 89 30 302 10 387 -46 196 -166 316 -436 435 -40 18 -145 55 -390 139 -182 62 -312 161 -341 259 -21 73 -16 177 11 249 44 114 160 205 298 234 69 14 216 14 284 0 68 -15 194 -74 283 -133 76 -51 114 -57 145 -26 11 11 40 60 65 109 l44 90 -47 39 c-188 157 -360 213 -652 211 -85 0 -159 -2 -165 -4z"/>
<path d="M53000 31845 c-325 -52 -634 -244 -794 -493 -230 -356 -280 -870 -126 -1281 149 -394 458 -656 880 -747 158 -33 494 -28 688 12 166 34 370 116 482 195 l60 42 -2 481 -3 481 -385 0 -385 0 -3 -100 c-1 -66 2 -108 11 -125 l13 -25 219 -5 220 -5 0 -275 0 -275 -50 -27 c-53 -29 -168 -70 -263 -95 -33 -8 -132 -16 -232 -20 -142 -4 -191 -2 -258 12 -200 40 -321 103 -453 234 -134 133 -215 292 -255 498 -22 110 -24 366 -5 473 48 271 179 489 369 618 161 110 290 142 569 142 249 0 347 -28 569 -161 90 -54 145 -64 182 -31 24 20 112 161 112 179 0 32 -209 168 -344 224 -52 21 -145 50 -207 64 -102 23 -131 25 -323 24 -116 -1 -245 -7 -286 -14z"/>
<path d="M25772 30588 l-502 -1253 147 -3 c162 -3 194 4 219 48 9 15 69 162 133 326 l116 299 556 3 c458 2 558 0 568 -11 6 -8 29 -61 50 -118 131 -345 194 -496 217 -519 l24 -25 160 -5 c104 -3 160 -1 160 5 0 6 -224 570 -498 1255 l-498 1245 -175 3 -174 2 -503 -1252z m711 792 c15 -47 116 -314 225 -595 109 -280 197 -513 195 -517 -6 -11 -901 -10 -907 1 -3 5 35 114 85 242 232 598 309 800 329 869 12 41 24 81 26 89 8 24 20 1 47 -89z"/>
<path d="M27940 30587 c0 -690 2 -1256 4 -1258 2 -2 70 -3 150 -1 l146 3 2 967 c2 637 6 967 13 966 6 0 200 -340 432 -755 232 -415 436 -769 453 -786 l31 -33 81 0 81 0 35 38 c20 21 213 363 447 790 227 414 416 754 421 755 5 1 10 -416 12 -970 l2 -973 150 0 150 0 0 1255 0 1255 -159 0 -160 0 -24 -22 c-13 -13 -74 -115 -135 -228 -60 -113 -166 -306 -234 -430 -68 -124 -145 -263 -170 -310 -26 -47 -99 -179 -163 -295 -64 -115 -146 -270 -182 -343 -43 -85 -70 -129 -76 -123 -5 5 -22 38 -37 73 -15 35 -217 400 -449 812 -232 412 -431 766 -441 787 -40 77 -45 79 -222 79 l-158 0 0 -1253z"/>
<path d="M31160 30587 c0 -690 2 -1256 4 -1258 2 -2 70 -3 150 -1 l146 3 2 967 c2 637 6 967 13 966 6 0 200 -340 432 -755 232 -415 436 -769 453 -786 l31 -33 81 0 81 0 35 38 c20 21 213 363 447 790 227 414 416 754 421 755 5 1 10 -416 12 -970 l2 -973 150 0 150 0 0 1255 0 1255 -159 0 -160 0 -24 -22 c-13 -13 -74 -115 -135 -228 -60 -113 -166 -306 -234 -430 -68 -124 -145 -263 -170 -310 -26 -47 -99 -179 -163 -295 -64 -115 -146 -270 -182 -343 -43 -85 -70 -129 -76 -123 -5 5 -22 38 -37 73 -15 35 -217 400 -449 812 -232 412 -431 766 -441 787 -40 77 -45 79 -222 79 l-158 0 0 -1253z"/>
<path d="M34592 30588 l-502 -1253 147 -3 c162 -3 194 4 219 48 9 15 69 162 133 326 l116 299 556 3 c458 2 558 0 568 -11 6 -8 29 -61 50 -118 131 -345 194 -496 217 -519 l24 -25 160 -5 c104 -3 160 -1 160 5 0 6 -224 570 -498 1255 l-498 1245 -175 3 -174 2 -503 -1252z m711 792 c15 -47 116 -314 225 -595 109 -280 197 -513 195 -517 -6 -11 -901 -10 -907 1 -3 5 35 114 85 242 232 598 309 800 329 869 12 41 24 81 26 89 8 24 20 1 47 -89z"/>
<path d="M39350 30585 l0 -1255 170 0 170 0 0 1255 0 1255 -170 0 -170 0 0 -1255z"/>
<path d="M42930 30585 l0 -1255 150 0 150 0 2 973 c2 640 6 972 13 971 9 -1 63 -94 367 -639 55 -99 142 -254 193 -345 51 -91 139 -248 196 -350 57 -102 117 -200 135 -217 l32 -33 81 0 80 0 32 33 c17 18 219 376 449 795 229 420 421 764 425 765 3 1 6 -438 5 -975 l-1 -978 156 0 155 0 0 1255 0 1255 -163 0 -163 0 -26 -27 c-14 -16 -32 -41 -40 -58 -8 -16 -66 -124 -130 -240 -63 -115 -179 -327 -258 -470 -78 -143 -190 -345 -248 -450 -58 -104 -143 -263 -190 -353 -46 -90 -87 -161 -90 -158 -3 3 -20 39 -37 78 -36 81 -891 1607 -925 1651 l-22 27 -164 0 -164 0 0 -1255z"/>
<path d="M46867 31833 c-10 -17 -997 -2485 -997 -2494 0 -5 67 -9 155 -9 l155 0 30 28 c29 26 59 97 221 521 21 57 44 110 50 118 10 11 110 13 568 11 l556 -3 121 -310 c83 -215 129 -318 147 -337 l27 -27 156 -3 c86 -2 158 0 160 3 2 3 -222 569 -497 1257 l-501 1252 -173 0 c-96 0 -176 -3 -178 -7z m233 -513 c38 -110 354 -933 390 -1018 6 -13 8 -28 5 -33 -7 -11 -902 -13 -908 -1 -2 4 83 230 189 502 163 417 206 533 250 678 10 32 30 -3 74 -128z"/>
<path d="M51120 30585 l0 -1255 175 0 175 0 0 1255 0 1255 -175 0 -175 0 0 -1255z"/>
<path d="M54700 30585 l0 -1255 150 0 150 0 2 973 c2 557 7 972 12 972 9 0 41 -54 251 -430 71 -126 177 -318 237 -425 60 -107 167 -298 236 -424 70 -126 143 -246 163 -267 l36 -39 81 0 81 0 32 33 c17 18 219 376 449 795 229 420 421 764 425 765 3 1 6 -438 5 -975 l-1 -978 156 0 155 0 0 1255 0 1255 -159 0 c-144 0 -161 -2 -184 -20 -14 -11 -61 -87 -105 -168 -43 -81 -140 -257 -214 -392 -74 -135 -152 -276 -173 -315 -74 -135 -253 -461 -303 -551 -28 -50 -73 -136 -101 -192 -28 -55 -55 -103 -61 -107 -6 -4 -22 20 -39 57 -45 102 -920 1651 -943 1671 -17 15 -42 17 -179 17 l-159 0 0 -1255z"/>
<path d="M58637 31833 c-7 -12 -989 -2465 -994 -2485 -5 -17 7 -18 151 -18 l156 0 30 28 c21 18 43 60 69 127 110 289 173 450 189 483 l17 37 560 0 560 0 117 -300 c64 -165 124 -312 132 -326 25 -43 58 -50 219 -47 l147 3 -502 1253 -502 1252 -173 0 c-94 0 -174 -3 -176 -7z m224 -489 c20 -60 120 -324 223 -588 102 -263 183 -482 180 -487 -6 -11 -901 -12 -907 -1 -2 4 24 79 59 167 177 451 345 890 359 942 9 32 18 64 21 71 10 31 30 -1 65 -104z"/>
<path d="M27795 27644 c-121 -22 -209 -52 -325 -110 -329 -167 -539 -453 -626 -854 -27 -120 -27 -467 -1 -590 55 -264 166 -480 332 -645 172 -173 347 -266 605 -321 120 -26 430 -27 548 -1 261 56 458 162 623 334 165 172 270 380 320 633 30 149 32 414 5 560 -20 112 -72 273 -117 362 -104 207 -292 405 -474 501 -158 83 -220 104 -379 132 -113 19 -399 19 -511 -1z m541 -311 c151 -42 312 -150 403 -270 149 -196 209 -420 198 -743 -6 -194 -32 -312 -97 -449 -122 -255 -314 -402 -598 -460 -89 -18 -316 -14 -402 8 -192 48 -297 108 -420 238 -67 70 -90 105 -135 197 -108 221 -140 501 -90 787 52 295 209 518 447 635 147 73 207 84 438 80 147 -3 200 -7 256 -23z"/>
<path d="M45675 27654 c-11 -3 -56 -12 -100 -20 -98 -19 -137 -32 -245 -82 -296 -138 -506 -379 -614 -703 -54 -160 -70 -267 -70 -469 0 -205 23 -344 81 -500 46 -123 69 -167 142 -276 135 -203 342 -360 571 -434 169 -55 238 -65 450 -64 208 0 282 12 446 68 387 133 672 475 761 914 26 127 25 473 -1 592 -58 268 -163 467 -341 646 -100 101 -186 162 -320 224 -189 87 -262 102 -530 106 -115 1 -219 1 -230 -2z m401 -304 c91 -16 132 -29 222 -74 161 -79 280 -201 362 -371 87 -180 124 -412 102 -646 -16 -173 -43 -275 -107 -405 -89 -183 -233 -320 -411 -390 -128 -50 -206 -64 -358 -64 -74 0 -159 5 -188 11 -67 14 -191 55 -243 81 -232 118 -390 356 -440 659 -17 107 -20 329 -5 434 41 284 174 517 365 640 115 73 177 97 330 129 42 8 314 6 371 -4z"/>
<path d="M50680 27641 c-135 -30 -304 -136 -385 -241 -111 -145 -149 -255 -149 -435 0 -194 45 -316 159 -431 113 -114 200 -157 535 -264 230 -73 333 -124 412 -200 66 -65 88 -123 88 -234 0 -155 -67 -289 -180 -363 -105 -68 -191 -87 -366 -81 -113 4 -139 9 -213 36 -90 34 -135 60 -250 146 -62 47 -81 56 -116 56 -32 0 -47 -6 -66 -27 -34 -37 -109 -159 -109 -176 0 -18 106 -108 194 -165 316 -205 804 -216 1098 -23 128 84 206 179 267 326 43 102 61 198 61 320 0 128 -12 189 -55 280 -81 170 -231 272 -576 390 -323 111 -364 129 -446 194 -96 76 -137 185 -114 308 16 88 49 149 110 206 56 53 126 88 209 106 68 14 216 14 284 0 71 -15 199 -76 283 -133 70 -48 106 -56 140 -32 27 19 110 189 102 210 -16 41 -240 177 -342 208 -136 41 -434 51 -575 19z"/>
<path d="M60740 27653 c-79 -12 -191 -36 -228 -49 -86 -28 -268 -123 -337 -174 -256 -191 -419 -470 -470 -810 -19 -125 -19 -356 1 -487 48 -324 205 -613 427 -787 149 -116 277 -175 482 -222 126 -29 435 -27 573 4 223 50 399 142 536 281 50 50 58 63 50 80 -17 39 -146 161 -169 161 -12 0 -48 -21 -81 -46 -144 -113 -257 -167 -408 -193 -91 -17 -323 -14 -403 5 -172 39 -300 110 -418 231 -92 94 -180 261 -221 418 -32 126 -44 355 -24 497 45 336 216 588 490 723 115 56 220 75 423 75 245 0 350 -34 571 -184 48 -33 95 -34 123 -3 44 48 124 170 120 181 -10 25 -164 132 -272 189 -176 92 -300 118 -560 116 -99 -1 -191 -4 -205 -6z"/>
<path d="M19030 26385 l0 -1255 150 0 150 0 0 949 c0 523 4 952 8 955 8 5 260 -321 1127 -1454 157 -206 304 -392 325 -412 l39 -38 121 0 120 0 0 1255 0 1255 -155 0 -155 0 0 -956 c1 -526 -1 -958 -3 -960 -2 -2 -325 413 -717 923 -392 511 -727 943 -743 961 l-31 32 -118 0 -118 0 0 -1255z"/>
<path d="M22387 27633 c-10 -17 -997 -2485 -997 -2494 0 -5 67 -9 155 -9 l155 0 30 28 c29 26 59 97 221 521 21 57 44 110 50 118 10 11 110 13 568 11 l556 -3 121 -310 c83 -215 129 -318 147 -337 l27 -27 156 -3 c86 -2 158 0 160 3 2 3 -222 569 -497 1257 l-501 1252 -173 0 c-96 0 -176 -3 -178 -7z m233 -513 c38 -110 354 -933 390 -1018 6 -13 8 -28 5 -33 -7 -11 -902 -13 -908 -1 -2 4 83 230 189 502 163 417 206 533 250 678 10 32 30 -3 74 -128z"/>
<path d="M23570 27495 l0 -145 403 -2 402 -3 3 -1107 2 -1108 170 0 170 0 2 1108 3 1107 405 5 405 5 3 143 3 142 -986 0 -985 0 0 -145z"/>
<path d="M25950 26385 l0 -1255 170 0 170 0 0 1255 0 1255 -170 0 -170 0 0 -1255z"/>
<path d="M29760 26387 c0 -690 2 -1256 4 -1258 2 -2 70 -3 150 -1 l146 3 0 949 c0 522 4 951 8 954 5 3 330 -414 723 -927 410 -534 730 -942 749 -954 29 -21 45 -23 146 -23 l114 0 0 1255 0 1255 -155 0 -155 0 0 -957 c1 -527 -3 -956 -7 -954 -11 5 -61 70 -777 1001 -345 448 -645 836 -667 863 l-40 47 -120 0 -119 0 0 -1253z"/>
<path d="M33117 27633 c-7 -12 -989 -2465 -994 -2485 -5 -17 7 -18 151 -18 l156 0 30 28 c21 18 43 60 69 127 110 289 173 450 189 483 l17 37 560 0 560 0 117 -300 c64 -165 124 -312 132 -326 25 -43 58 -50 219 -47 l147 3 -502 1253 -502 1252 -173 0 c-94 0 -174 -3 -176 -7z m224 -489 c20 -60 120 -324 223 -588 102 -263 183 -482 180 -487 -6 -11 -901 -12 -907 -1 -2 4 24 79 59 167 177 451 345 890 359 942 9 32 18 64 21 71 10 31 30 -1 65 -104z"/>
<path d="M34780 26385 l0 -1255 715 0 715 0 0 145 0 145 -537 2 -538 3 -3 1108 -2 1107 -175 0 -175 0 0 -1255z"/>
<path d="M37262 26385 l3 -1256 547 1 c610 0 644 3 828 66 192 67 317 144 453 279 279 280 396 704 321 1165 -50 301 -205 574 -429 752 -33 27 -161 108 -170 108 -3 0 -37 16 -75 35 -87 43 -236 83 -354 95 -50 5 -324 10 -609 10 l-517 0 2 -1255z m1183 951 c229 -52 425 -214 530 -439 138 -292 142 -713 10 -1012 -89 -201 -264 -365 -454 -425 -144 -45 -141 -45 -541 -45 l-385 0 -3 960 c-1 528 0 966 3 973 4 11 77 13 382 10 320 -3 390 -7 458 -22z"/>
<path d="M40032 26388 l-502 -1253 147 -3 c162 -3 194 4 219 48 9 15 69 162 133 326 l116 299 556 3 c458 2 558 0 568 -11 6 -8 29 -61 50 -118 131 -345 194 -496 217 -519 l24 -25 160 -5 c104 -3 160 -1 160 5 0 6 -224 570 -498 1255 l-498 1245 -175 3 -174 2 -503 -1252z m703 817 c16 -58 92 -259 323 -852 60 -155 107 -285 104 -288 -9 -9 -901 -5 -906 4 -3 5 35 114 85 242 232 598 309 800 329 869 12 41 24 81 26 89 7 23 20 1 39 -64z"/>
<path d="M41747 27433 c69 -115 143 -235 163 -268 21 -33 171 -279 334 -547 l296 -487 0 -500 0 -501 170 0 170 0 0 498 0 498 59 94 c55 89 271 444 594 975 77 127 149 246 162 265 52 82 105 170 105 175 0 3 -77 5 -172 5 l-171 0 -37 -38 c-20 -21 -79 -113 -131 -203 -53 -90 -191 -327 -307 -526 -116 -199 -222 -388 -235 -420 -13 -32 -27 -58 -32 -58 -5 0 -23 32 -40 70 -27 63 -579 1014 -644 1110 -41 61 -55 65 -243 65 l-168 0 127 -207z"/>
<path d="M47580 26385 l0 -1255 175 0 175 0 2 538 3 537 513 3 513 2 -3 138 -3 137 -510 5 -510 5 0 430 0 430 598 3 597 2 0 140 0 140 -775 0 -775 0 0 -1255z"/>
<path d="M52090 26385 l0 -1255 775 0 775 0 0 140 0 140 -597 2 -598 3 0 420 0 420 483 3 482 2 0 135 0 135 -482 2 -483 3 0 410 0 410 598 3 597 2 0 140 0 140 -775 0 -775 0 0 -1255z"/>
<path d="M54160 26386 l0 -1256 170 0 170 0 2 518 3 517 177 0 176 0 26 -24 c14 -13 182 -240 373 -504 218 -300 358 -484 375 -493 22 -11 67 -14 207 -12 l179 3 -384 520 c-211 286 -396 530 -411 542 -32 26 -26 34 37 52 25 7 74 27 110 44 199 95 320 222 383 406 25 73 31 106 35 212 8 214 -36 353 -151 475 -82 89 -161 140 -276 181 -178 64 -189 65 -718 70 l-483 5 0 -1256z m958 954 c108 -26 166 -57 229 -122 62 -63 89 -120 105 -222 14 -93 -1 -214 -37 -293 -44 -97 -150 -190 -265 -231 -96 -35 -183 -44 -420 -40 l-225 3 -3 455 c-1 250 0 461 3 469 9 23 502 8 613 -19z"/>
<path d="M56106 27603 c8 -21 225 -553 481 -1183 256 -630 478 -1178 495 -1217 l30 -73 154 0 c136 0 154 2 163 18 8 16 129 310 656 1602 125 305 258 630 295 723 l69 167 -161 0 -161 0 -36 -38 c-31 -32 -85 -161 -388 -922 -390 -979 -392 -984 -407 -1055 -18 -81 -29 -70 -74 75 -17 52 -192 498 -390 990 -302 750 -366 899 -391 922 l-31 28 -160 0 -160 0 16 -37z"/>
<path d="M58820 26387 c0 -690 2 -1256 4 -1258 2 -2 79 -3 170 -1 l166 3 0 1254 0 1255 -170 0 -170 0 0 -1253z"/>
<path d="M62230 26385 l0 -1255 775 0 775 0 0 140 0 140 -597 2 -598 3 0 420 0 420 483 3 482 2 0 135 0 135 -482 2 -483 3 0 410 0 410 598 3 597 2 0 140 0 140 -775 0 -775 0 0 -1255z"/>
</g>
</g>
</svg>
