<svg xmlns="http://www.w3.org/2000/svg" version="1.0" width="648.000000pt" height="500.000000pt" viewBox="0 0 648.000000 500.000000" preserveAspectRatio="xMidYMid meet">
  <g transform="translate(0.000000,500.000000) scale(0.100000,-0.100000)" stroke="none">
    <path stroke="none" d="M 3123.0,4145.0 C 3100.0,4135.0 3092.0,4126.0 3096.0,4116.0 C 3099.0,4107.0 3105.0,4100.0 3109.0,4100.0 C 3120.0,4100.0 3140.0,4013.0 3140.0,3962.0 C 3140.0,3936.0 3145.0,3898.0 3151.0,3877.0 C 3160.0,3845.0 3158.0,3836.0 3140.0,3810.0 C 3128.0,3793.0 3113.0,3780.0 3105.0,3780.0 C 3082.0,3780.0 3060.0,3840.0 3060.0,3901.0 C 3060.0,3933.0 3056.0,3962.0 3050.0,3965.0 C 3036.0,3973.0 3037.0,4063.0 3051.0,4077.0 C 3059.0,4085.0 3057.0,4095.0 3044.0,4115.0 C 3029.0,4137.0 3022.0,4141.0 2996.0,4136.0 C 2979.0,4133.0 2946.0,4127.0 2923.0,4124.0 C 2868.0,4116.0 2849.0,4095.0 2877.0,4075.0 C 2898.0,4060.0 2903.0,4039.0 2916.0,3918.0 C 2923.0,3852.0 2912.0,3843.0 2871.0,3882.0 C 2852.0,3899.0 2844.0,3901.0 2829.0,3892.0 C 2819.0,3885.0 2801.0,3880.0 2791.0,3880.0 C 2780.0,3880.0 2768.0,3876.0 2765.0,3870.0 C 2762.0,3865.0 2751.0,3860.0 2741.0,3860.0 C 2731.0,3860.0 2717.0,3853.0 2710.0,3845.0 C 2699.0,3832.0 2702.0,3825.0 2728.0,3803.0 C 2752.0,3783.0 2760.0,3769.0 2760.0,3743.0 C 2760.0,3705.0 2737.0,3689.0 2715.0,3711.0 C 2693.0,3734.0 2660.0,3799.0 2660.0,3820.0 C 2660.0,3830.0 2656.0,3842.0 2650.0,3845.0 C 2632.0,3856.0 2638.0,3945.0 2658.0,3963.0 C 2678.0,3982.0 2725.0,3986.0 2735.0,3970.0 C 2744.0,3955.0 2796.0,3958.0 2809.0,3974.0 C 2822.0,3990.0 2812.0,4015.0 2776.0,4058.0 C 2754.0,4083.0 2741.0,4085.0 2691.0,4069.0 C 2549.0,4024.0 2515.0,3986.0 2517.0,3870.0 C 2517.0,3822.0 2523.0,3784.0 2533.0,3766.0 C 2542.0,3750.0 2547.0,3733.0 2544.0,3728.0 C 2535.0,3714.0 2506.0,3720.0 2480.0,3740.0 C 2461.0,3755.0 2439.0,3760.0 2388.0,3760.0 L 2320.0,3760.0 L 2320.0,3790.0 C 2320.0,3819.0 2321.0,3820.0 2369.0,3820.0 C 2429.0,3820.0 2446.0,3836.0 2426.0,3874.0 C 2418.0,3889.0 2402.0,3911.0 2390.0,3922.0 C 2372.0,3939.0 2364.0,3941.0 2344.0,3931.0 C 2331.0,3925.0 2308.0,3915.0 2293.0,3908.0 C 2277.0,3901.0 2246.0,3876.0 2223.0,3852.0 C 2188.0,3817.0 2180.0,3802.0 2180.0,3772.0 C 2180.0,3730.0 2229.0,3660.0 2259.0,3660.0 C 2268.0,3660.0 2280.0,3656.0 2285.0,3651.0 C 2291.0,3645.0 2324.0,3640.0 2359.0,3638.0 C 2430.0,3635.0 2455.0,3616.0 2434.0,3583.0 C 2421.0,3562.0 2372.0,3554.0 2357.0,3569.0 C 2342.0,3584.0 2311.0,3583.0 2294.0,3565.0 C 2282.0,3553.0 2282.0,3547.0 2292.0,3528.0 C 2319.0,3480.0 2343.0,3460.0 2375.0,3460.0 C 2408.0,3460.0 2465.0,3483.0 2476.0,3501.0 C 2479.0,3507.0 2492.0,3515.0 2505.0,3520.0 C 2533.0,3531.0 2560.0,3582.0 2560.0,3627.0 C 2560.0,3656.0 2563.0,3660.0 2585.0,3660.0 C 2609.0,3660.0 2618.0,3657.0 2667.0,3632.0 C 2695.0,3617.0 2757.0,3616.0 2765.0,3630.0 C 2768.0,3636.0 2782.0,3640.0 2795.0,3640.0 C 2808.0,3640.0 2822.0,3645.0 2825.0,3650.0 C 2828.0,3656.0 2841.0,3660.0 2854.0,3660.0 C 2885.0,3660.0 2928.0,3706.0 2912.0,3722.0 C 2905.0,3729.0 2900.0,3744.0 2900.0,3756.0 C 2900.0,3769.0 2896.0,3782.0 2890.0,3785.0 C 2875.0,3795.0 2878.0,3830.0 2895.0,3836.0 C 2914.0,3844.0 2940.0,3823.0 2940.0,3800.0 C 2940.0,3776.0 3008.0,3720.0 3037.0,3720.0 C 3050.0,3720.0 3069.0,3714.0 3080.0,3708.0 C 3096.0,3698.0 3104.0,3698.0 3120.0,3708.0 C 3131.0,3714.0 3152.0,3720.0 3168.0,3720.0 C 3186.0,3720.0 3206.0,3731.0 3225.0,3750.0 C 3259.0,3785.0 3264.0,3786.0 3292.0,3760.0 C 3304.0,3749.0 3326.0,3740.0 3341.0,3740.0 C 3356.0,3740.0 3372.0,3736.0 3375.0,3730.0 C 3384.0,3716.0 3486.0,3718.0 3513.0,3733.0 C 3552.0,3755.0 3571.0,3773.0 3587.0,3807.0 C 3601.0,3838.0 3601.0,3843.0 3579.0,3888.0 C 3565.0,3917.0 3537.0,3951.0 3508.0,3974.0 C 3471.0,4003.0 3460.0,4018.0 3460.0,4040.0 C 3460.0,4083.0 3479.0,4087.0 3507.0,4051.0 C 3560.0,3984.0 3625.0,4032.0 3588.0,4111.0 C 3575.0,4139.0 3518.0,4160.0 3456.0,4160.0 C 3352.0,4160.0 3270.0,4062.0 3313.0,3988.0 C 3327.0,3962.0 3379.0,3910.0 3390.0,3910.0 C 3404.0,3910.0 3460.0,3852.0 3460.0,3838.0 C 3460.0,3817.0 3439.0,3800.0 3415.0,3800.0 C 3391.0,3800.0 3360.0,3828.0 3360.0,3849.0 C 3360.0,3861.0 3325.0,3861.0 3280.0,3849.0 C 3268.0,3846.0 3264.0,3859.0 3262.0,3920.0 C 3260.0,3961.0 3255.0,3999.0 3250.0,4004.0 C 3237.0,4017.0 3237.0,4083.0 3250.0,4096.0 C 3257.0,4103.0 3256.0,4115.0 3248.0,4133.0 C 3237.0,4156.0 3229.0,4160.0 3195.0,4160.0 C 3173.0,4159.0 3140.0,4153.0 3123.0,4145.0" fill="#000000" id="000000-000001"/>
    <path stroke="none" d="M 3649.0,4124.0 C 3641.0,4114.0 3640.0,4106.0 3647.0,4102.0 C 3662.0,4092.0 3680.0,3931.0 3680.0,3807.0 C 3680.0,3711.0 3682.0,3700.0 3698.0,3700.0 C 3708.0,3700.0 3721.0,3695.0 3727.0,3689.0 C 3745.0,3671.0 3803.0,3683.0 3816.0,3707.0 C 3822.0,3720.0 3834.0,3738.0 3843.0,3748.0 C 3853.0,3758.0 3860.0,3771.0 3860.0,3777.0 C 3860.0,3782.0 3869.0,3795.0 3880.0,3805.0 C 3891.0,3815.0 3900.0,3828.0 3900.0,3835.0 C 3900.0,3842.0 3909.0,3855.0 3920.0,3865.0 C 3931.0,3875.0 3940.0,3888.0 3940.0,3894.0 C 3940.0,3900.0 3963.0,3928.0 3991.0,3956.0 C 4041.0,4007.0 4042.0,4008.0 4026.0,4033.0 C 4010.0,4056.0 3995.0,4062.0 3913.0,4077.0 C 3884.0,4081.0 3880.0,4079.0 3880.0,4061.0 C 3880.0,4049.0 3885.0,4040.0 3890.0,4040.0 C 3904.0,4040.0 3903.0,4014.0 3888.0,3988.0 C 3869.0,3956.0 3838.0,3920.0 3828.0,3920.0 C 3824.0,3920.0 3820.0,3960.0 3820.0,4008.0 L 3820.0,4097.0 L 3778.0,4109.0 C 3754.0,4116.0 3721.0,4126.0 3704.0,4131.0 C 3665.0,4143.0 3665.0,4143.0 3649.0,4124.0" fill="#000000" id="000000-000002"/>
    <path stroke="none" d="M 4067.0,4014.0 C 4064.0,4011.0 4066.0,4000.0 4072.0,3990.0 C 4081.0,3975.0 4071.0,3947.0 4016.0,3836.0 C 3978.0,3761.0 3942.0,3700.0 3935.0,3700.0 C 3928.0,3700.0 3917.0,3693.0 3910.0,3685.0 C 3896.0,3668.0 3909.0,3653.0 3958.0,3631.0 C 3970.0,3625.0 3991.0,3615.0 4005.0,3608.0 C 4025.0,3599.0 4033.0,3599.0 4042.0,3608.0 C 4057.0,3623.0 4100.0,3624.0 4100.0,3610.0 C 4100.0,3605.0 4110.0,3600.0 4123.0,3600.0 C 4152.0,3599.0 4182.0,3576.0 4175.0,3559.0 C 4167.0,3537.0 4181.0,3524.0 4244.0,3491.0 C 4318.0,3452.0 4340.0,3451.0 4340.0,3487.0 C 4340.0,3524.0 4468.0,3780.0 4486.0,3780.0 C 4508.0,3780.0 4502.0,3814.0 4478.0,3836.0 C 4465.0,3847.0 4442.0,3862.0 4425.0,3869.0 C 4409.0,3876.0 4387.0,3886.0 4377.0,3891.0 C 4363.0,3899.0 4348.0,3890.0 4306.0,3850.0 C 4277.0,3823.0 4250.0,3800.0 4247.0,3800.0 C 4243.0,3800.0 4240.0,3830.0 4240.0,3868.0 C 4240.0,3905.0 4234.0,3942.0 4227.0,3951.0 C 4197.0,3991.0 4087.0,4034.0 4067.0,4014.0" fill="#000000" id="000000-000003"/>
    <path stroke="none" d="M 4545.0,1507.0 C 4481.0,1467.0 4443.0,1388.0 4457.0,1320.0 C 4464.0,1284.0 4524.0,1220.0 4550.0,1220.0 C 4561.0,1220.0 4572.0,1216.0 4575.0,1210.0 C 4590.0,1186.0 4648.0,1202.0 4697.0,1244.0 C 4729.0,1271.0 4751.0,1259.0 4743.0,1218.0 C 4740.0,1200.0 4733.0,1184.0 4728.0,1182.0 C 4724.0,1180.0 4720.0,1172.0 4720.0,1164.0 C 4720.0,1148.0 4785.0,1116.0 4800.0,1125.0 C 4813.0,1133.0 4840.0,1191.0 4840.0,1211.0 C 4840.0,1221.0 4845.0,1232.0 4850.0,1235.0 C 4898.0,1264.0 4776.0,1454.0 4676.0,1505.0 C 4642.0,1523.0 4573.0,1524.0 4545.0,1507.0M 4633.0,1396.0 C 4662.0,1371.0 4667.0,1351.0 4648.0,1332.0 C 4622.0,1306.0 4560.0,1332.0 4560.0,1368.0 C 4560.0,1383.0 4588.0,1420.0 4599.0,1420.0 C 4602.0,1420.0 4617.0,1409.0 4633.0,1396.0" fill="#000000" id="000000-000004"/>
    <path stroke="none" d="M 1935.0,1482.0 C 1919.0,1474.0 1883.0,1444.0 1855.0,1416.0 C 1794.0,1354.0 1776.0,1304.0 1793.0,1245.0 C 1809.0,1193.0 1915.0,1080.0 1948.0,1080.0 C 1966.0,1080.0 1971.0,1076.0 1966.0,1064.0 C 1958.0,1043.0 2052.0,954.0 2090.0,947.0 C 2107.0,943.0 2125.0,928.0 2138.0,906.0 C 2149.0,887.0 2175.0,864.0 2197.0,854.0 C 2218.0,844.0 2258.0,819.0 2285.0,798.0 C 2313.0,777.0 2345.0,760.0 2357.0,760.0 C 2370.0,760.0 2403.0,742.0 2432.0,720.0 C 2461.0,698.0 2495.0,680.0 2507.0,680.0 C 2519.0,680.0 2532.0,676.0 2535.0,670.0 C 2538.0,664.0 2566.0,660.0 2596.0,660.0 C 2645.0,660.0 2654.0,657.0 2677.0,630.0 C 2690.0,614.0 2710.0,600.0 2720.0,600.0 C 2730.0,600.0 2742.0,596.0 2745.0,590.0 C 2748.0,584.0 2762.0,580.0 2776.0,580.0 C 2789.0,580.0 2809.0,575.0 2820.0,568.0 C 2835.0,558.0 2845.0,559.0 2867.0,570.0 C 2929.0,601.0 2940.0,619.0 2940.0,685.0 C 2940.0,734.0 2944.0,751.0 2960.0,765.0 C 2983.0,786.0 2984.0,797.0 2968.0,831.0 C 2956.0,857.0 2919.0,880.0 2889.0,880.0 C 2879.0,880.0 2868.0,885.0 2865.0,890.0 C 2857.0,903.0 2794.0,903.0 2769.0,890.0 C 2753.0,881.0 2745.0,884.0 2726.0,908.0 C 2687.0,953.0 2623.0,981.0 2549.0,983.0 C 2488.0,985.0 2485.0,986.0 2482.0,1011.0 C 2480.0,1026.0 2469.0,1047.0 2457.0,1058.0 C 2428.0,1084.0 2364.0,1120.0 2345.0,1120.0 C 2332.0,1120.0 2321.0,1125.0 2281.0,1147.0 C 2274.0,1151.0 2309.0,1217.0 2325.0,1230.0 C 2333.0,1237.0 2340.0,1255.0 2340.0,1271.0 C 2340.0,1298.0 2314.0,1322.0 2235.0,1366.0 C 2224.0,1372.0 2209.0,1388.0 2200.0,1403.0 C 2184.0,1430.0 2140.0,1469.0 2103.0,1489.0 C 2072.0,1505.0 1971.0,1501.0 1935.0,1482.0M 2127.0,1384.0 C 2140.0,1371.0 2141.0,1365.0 2130.0,1345.0 C 2114.0,1315.0 2123.0,1292.0 2155.0,1280.0 L 2181.0,1270.0 L 2162.0,1242.0 C 2134.0,1204.0 2036.0,1100.0 2027.0,1100.0 C 2023.0,1100.0 2020.0,1113.0 2020.0,1128.0 C 2020.0,1166.0 1974.0,1207.0 1949.0,1192.0 C 1936.0,1184.0 1928.0,1185.0 1916.0,1199.0 C 1896.0,1221.0 1896.0,1229.0 1915.0,1266.0 C 1934.0,1306.0 1979.0,1347.0 2032.0,1375.0 C 2084.0,1403.0 2106.0,1405.0 2127.0,1384.0 M 2246.0,1066.0 C 2273.0,1038.0 2263.0,1020.0 2220.0,1020.0 C 2185.0,1020.0 2180.0,1023.0 2180.0,1043.0 C 2180.0,1056.0 2183.0,1070.0 2187.0,1073.0 C 2198.0,1085.0 2231.0,1081.0 2246.0,1066.0 M 2486.0,845.0 C 2495.0,825.0 2500.0,807.0 2497.0,803.0 C 2485.0,792.0 2420.0,831.0 2420.0,849.0 C 2420.0,894.0 2464.0,891.0 2486.0,845.0 M 2719.0,777.0 C 2724.0,764.0 2735.0,748.0 2744.0,741.0 C 2766.0,722.0 2765.0,696.0 2743.0,705.0 C 2733.0,709.0 2715.0,715.0 2703.0,717.0 C 2684.0,721.0 2680.0,729.0 2680.0,761.0 C 2680.0,806.0 2705.0,816.0 2719.0,777.0" fill="#000000" id="000000-000005"/>
    <path stroke="none" d="M 4315.0,1287.0 C 4309.0,1280.0 4298.0,1255.0 4291.0,1230.0 C 4283.0,1205.0 4273.0,1181.0 4268.0,1176.0 C 4264.0,1170.0 4260.0,1159.0 4260.0,1150.0 C 4260.0,1141.0 4254.0,1125.0 4246.0,1115.0 C 4233.0,1097.0 4231.0,1097.0 4185.0,1119.0 C 4144.0,1138.0 4134.0,1139.0 4102.0,1129.0 C 4022.0,1103.0 3980.0,1051.0 3980.0,978.0 C 3980.0,931.0 3967.0,930.0 3922.0,973.0 C 3891.0,1003.0 3884.0,1005.0 3826.0,1004.0 C 3762.0,1002.0 3703.0,978.0 3669.0,939.0 C 3648.0,915.0 3639.0,915.0 3617.0,940.0 C 3604.0,955.0 3588.0,960.0 3547.0,960.0 C 3501.0,960.0 3489.0,956.0 3457.0,926.0 C 3431.0,902.0 3420.0,884.0 3420.0,864.0 C 3420.0,834.0 3382.0,780.0 3361.0,780.0 C 3354.0,780.0 3335.0,790.0 3319.0,803.0 C 3294.0,821.0 3275.0,825.0 3222.0,825.0 C 3147.0,825.0 3112.0,808.0 3090.0,762.0 C 3083.0,747.0 3074.0,727.0 3069.0,718.0 C 3035.0,652.0 3101.0,521.0 3167.0,520.0 C 3179.0,520.0 3192.0,515.0 3195.0,510.0 C 3198.0,504.0 3223.0,500.0 3249.0,500.0 C 3284.0,500.0 3302.0,505.0 3315.0,520.0 C 3325.0,531.0 3338.0,540.0 3344.0,540.0 C 3350.0,540.0 3363.0,558.0 3373.0,580.0 C 3385.0,608.0 3396.0,620.0 3410.0,620.0 C 3434.0,620.0 3447.0,593.0 3431.0,577.0 C 3411.0,557.0 3419.0,526.0 3447.0,512.0 C 3506.0,485.0 3580.0,507.0 3580.0,552.0 C 3580.0,567.0 3576.0,582.0 3570.0,585.0 C 3565.0,588.0 3560.0,626.0 3560.0,669.0 C 3560.0,734.0 3563.0,750.0 3579.0,765.0 C 3592.0,776.0 3600.0,798.0 3602.0,829.0 C 3605.0,868.0 3608.0,875.0 3628.0,878.0 C 3642.0,880.0 3658.0,873.0 3669.0,861.0 C 3702.0,823.0 3763.0,845.0 3783.0,903.0 C 3792.0,927.0 3809.0,924.0 3819.0,897.0 C 3833.0,860.0 3813.0,781.0 3769.0,698.0 C 3764.0,688.0 3760.0,671.0 3760.0,661.0 C 3760.0,650.0 3756.0,638.0 3750.0,635.0 C 3736.0,626.0 3737.0,587.0 3752.0,572.0 C 3766.0,558.0 3856.0,556.0 3865.0,570.0 C 3868.0,576.0 3886.0,580.0 3905.0,580.0 C 3924.0,580.0 3942.0,585.0 3945.0,590.0 C 3948.0,596.0 3961.0,600.0 3974.0,600.0 C 4002.0,600.0 4040.0,639.0 4040.0,669.0 C 4040.0,694.0 3992.0,760.0 3973.0,760.0 C 3967.0,760.0 3952.0,747.0 3940.0,730.0 C 3893.0,664.0 3886.0,711.0 3929.0,794.0 C 3945.0,824.0 3960.0,864.0 3962.0,882.0 C 3967.0,932.0 3986.0,926.0 4016.0,863.0 C 4048.0,796.0 4118.0,720.0 4148.0,720.0 C 4159.0,720.0 4172.0,716.0 4175.0,710.0 C 4199.0,672.0 4310.0,733.0 4345.0,804.0 C 4362.0,838.0 4364.0,876.0 4350.0,885.0 C 4345.0,888.0 4340.0,900.0 4340.0,910.0 C 4340.0,921.0 4331.0,945.0 4320.0,965.0 C 4295.0,1010.0 4294.0,1068.0 4318.0,1086.0 C 4347.0,1108.0 4374.0,1102.0 4397.0,1067.0 C 4410.0,1050.0 4433.0,1019.0 4450.0,1000.0 C 4485.0,959.0 4487.0,949.0 4460.0,930.0 C 4432.0,910.0 4435.0,885.0 4466.0,871.0 C 4489.0,861.0 4496.0,862.0 4515.0,880.0 C 4527.0,891.0 4541.0,900.0 4546.0,900.0 C 4552.0,900.0 4569.0,914.0 4585.0,930.0 C 4601.0,947.0 4619.0,960.0 4625.0,960.0 C 4631.0,960.0 4646.0,970.0 4658.0,983.0 C 4677.0,1003.0 4678.0,1009.0 4667.0,1033.0 C 4655.0,1060.0 4627.0,1069.0 4615.0,1050.0 C 4612.0,1045.0 4601.0,1040.0 4592.0,1040.0 C 4574.0,1040.0 4520.0,1088.0 4520.0,1105.0 C 4520.0,1111.0 4502.0,1134.0 4480.0,1155.0 C 4458.0,1176.0 4440.0,1199.0 4440.0,1204.0 C 4440.0,1221.0 4357.0,1300.0 4340.0,1300.0 C 4332.0,1299.0 4320.0,1294.0 4315.0,1287.0M 4157.0,1003.0 C 4161.0,993.0 4166.0,983.0 4169.0,980.0 C 4173.0,977.0 4186.0,953.0 4199.0,925.0 C 4212.0,898.0 4226.0,867.0 4231.0,858.0 C 4236.0,848.0 4240.0,831.0 4240.0,820.0 C 4240.0,789.0 4192.0,793.0 4180.0,824.0 C 4175.0,837.0 4167.0,851.0 4161.0,854.0 C 4148.0,862.0 4120.0,919.0 4120.0,937.0 C 4120.0,944.0 4115.0,959.0 4108.0,969.0 C 4102.0,979.0 4100.0,995.0 4103.0,1004.0 C 4111.0,1025.0 4149.0,1025.0 4157.0,1003.0 M 3258.0,686.0 C 3262.0,628.0 3244.0,578.0 3221.0,582.0 C 3200.0,586.0 3193.0,684.0 3211.0,717.0 C 3232.0,756.0 3255.0,741.0 3258.0,686.0" fill="#000000" id="000000-000006"/>
  </g>
</svg>
