<svg xmlns="http://www.w3.org/2000/svg" version="1.0" width="296.000000pt" height="296.000000pt" viewBox="0 0 296.000000 296.000000" preserveAspectRatio="xMidYMid meet">
  <g transform="translate(0.000000,296.000000) scale(0.100000,-0.100000)" stroke="none">
    <path stroke="none" d="M 1477.0,2735.0 C 1439.0,2722.0 1390.0,2700.0 1368.0,2685.0 C 1323.0,2655.0 1273.0,2588.0 1253.0,2533.0 C 1237.0,2486.0 1236.0,2361.0 1251.0,2323.0 C 1271.0,2275.0 1300.0,2216.0 1315.0,2196.0 C 1338.0,2166.0 1345.0,2185.0 1323.0,2217.0 C 1292.0,2262.0 1275.0,2330.0 1276.0,2406.0 C 1276.0,2469.0 1280.0,2484.0 1311.0,2535.0 C 1330.0,2566.0 1361.0,2605.0 1380.0,2620.0 C 1550.0,2755.0 1818.0,2752.0 1913.0,2613.0 C 1945.0,2564.0 1954.0,2522.0 1940.0,2472.0 C 1924.0,2412.0 1899.0,2386.0 1867.0,2394.0 C 1837.0,2401.0 1832.0,2427.0 1850.0,2476.0 C 1873.0,2537.0 1824.0,2585.0 1739.0,2585.0 C 1677.0,2585.0 1640.0,2553.0 1640.0,2500.0 C 1640.0,2435.0 1682.0,2402.0 1729.0,2432.0 C 1764.0,2453.0 1844.0,2401.0 1825.0,2370.0 C 1817.0,2357.0 1724.0,2357.0 1699.0,2370.0 C 1689.0,2376.0 1652.0,2383.0 1617.0,2387.0 C 1560.0,2392.0 1551.0,2390.0 1525.0,2368.0 C 1502.0,2348.0 1496.0,2335.0 1497.0,2306.0 C 1498.0,2263.0 1514.0,2242.0 1584.0,2196.0 C 1648.0,2153.0 1683.0,2116.0 1755.0,2016.0 C 1877.0,1844.0 1938.0,1629.0 1911.0,1468.0 C 1861.0,1175.0 1710.0,975.0 1488.0,906.0 C 1430.0,888.0 1400.0,859.0 1400.0,822.0 C 1400.0,812.0 1390.0,794.0 1377.0,782.0 C 1321.0,729.0 1239.0,753.0 1211.0,830.0 C 1200.0,860.0 1188.0,876.0 1175.0,878.0 C 1149.0,881.0 1056.0,899.0 1000.0,912.0 C 945.0,924.0 860.0,960.0 860.0,972.0 C 860.0,976.0 878.0,980.0 899.0,980.0 C 943.0,980.0 999.0,991.0 1145.0,1027.0 C 1200.0,1041.0 1256.0,1054.0 1270.0,1057.0 C 1340.0,1071.0 1439.0,1107.0 1479.0,1134.0 C 1601.0,1217.0 1642.0,1356.0 1578.0,1473.0 C 1559.0,1507.0 1549.0,1516.0 1522.0,1518.0 C 1505.0,1520.0 1490.0,1519.0 1490.0,1516.0 C 1490.0,1513.0 1501.0,1494.0 1515.0,1474.0 C 1602.0,1346.0 1462.0,1175.0 1195.0,1084.0 C 1096.0,1051.0 926.0,1021.0 831.0,1020.0 C 722.0,1020.0 569.0,1050.0 475.0,1091.0 C 464.0,1095.0 410.0,1114.0 355.0,1132.0 C 300.0,1151.0 246.0,1170.0 236.0,1177.0 C 207.0,1193.0 223.0,1218.0 272.0,1230.0 C 424.0,1267.0 548.0,1318.0 643.0,1382.0 C 712.0,1429.0 889.0,1520.0 911.0,1520.0 C 919.0,1520.0 930.0,1524.0 936.0,1528.0 C 955.0,1545.0 1142.0,1590.0 1280.0,1610.0 C 1507.0,1643.0 1528.0,1649.0 1565.0,1689.0 C 1588.0,1716.0 1591.0,1795.0 1571.0,1858.0 C 1555.0,1904.0 1534.0,1916.0 1544.0,1873.0 C 1562.0,1799.0 1562.0,1763.0 1545.0,1731.0 C 1524.0,1689.0 1477.0,1670.0 1370.0,1659.0 C 1181.0,1641.0 1076.0,1620.0 945.0,1575.0 C 860.0,1547.0 822.0,1529.0 615.0,1424.0 C 428.0,1330.0 335.0,1288.0 232.0,1254.0 C 137.0,1221.0 98.0,1181.0 133.0,1152.0 C 140.0,1146.0 171.0,1134.0 201.0,1126.0 C 287.0,1103.0 337.0,1086.0 428.0,1049.0 C 440.0,1044.0 461.0,1036.0 475.0,1030.0 C 489.0,1025.0 510.0,1016.0 523.0,1011.0 C 697.0,940.0 881.0,876.0 955.0,860.0 C 1102.0,828.0 1147.0,815.0 1162.0,802.0 C 1187.0,781.0 1240.0,666.0 1240.0,633.0 C 1239.0,577.0 1187.0,538.0 1078.0,510.0 C 931.0,473.0 911.0,464.0 880.0,420.0 C 854.0,383.0 866.0,360.0 911.0,360.0 C 942.0,360.0 946.0,350.0 930.0,320.0 C 922.0,306.0 923.0,294.0 932.0,279.0 C 945.0,258.0 961.0,257.0 1090.0,272.0 C 1112.0,275.0 1115.0,271.0 1118.0,237.0 C 1121.0,204.0 1124.0,200.0 1148.0,200.0 C 1178.0,200.0 1229.0,217.0 1276.0,242.0 C 1308.0,260.0 1400.0,355.0 1400.0,371.0 C 1400.0,384.0 1424.0,382.0 1456.0,365.0 C 1495.0,345.0 1520.0,346.0 1546.0,371.0 C 1567.0,391.0 1569.0,391.0 1600.0,375.0 C 1632.0,359.0 1680.0,361.0 1680.0,379.0 C 1680.0,384.0 1691.0,398.0 1704.0,411.0 C 1722.0,428.0 1726.0,438.0 1718.0,447.0 C 1698.0,471.0 1670.0,462.0 1664.0,430.0 C 1660.0,414.0 1652.0,400.0 1646.0,400.0 C 1640.0,400.0 1613.0,421.0 1587.0,445.0 C 1540.0,489.0 1520.0,499.0 1520.0,481.0 C 1520.0,476.0 1527.0,467.0 1535.0,460.0 C 1543.0,453.0 1550.0,441.0 1550.0,434.0 C 1550.0,426.0 1543.0,420.0 1535.0,420.0 C 1527.0,420.0 1520.0,411.0 1520.0,400.0 C 1520.0,369.0 1505.0,376.0 1459.0,431.0 C 1417.0,481.0 1417.0,482.0 1407.0,591.0 C 1402.0,651.0 1401.0,707.0 1404.0,716.0 C 1408.0,726.0 1420.0,730.0 1442.0,728.0 L 1475.0,725.0 L 1472.0,653.0 C 1467.0,552.0 1470.0,545.0 1538.0,531.0 C 1569.0,524.0 1605.0,514.0 1618.0,509.0 C 1631.0,504.0 1652.0,500.0 1666.0,500.0 C 1700.0,500.0 1780.0,461.0 1780.0,444.0 C 1780.0,427.0 1806.0,425.0 1816.0,442.0 C 1827.0,459.0 1778.0,494.0 1723.0,508.0 C 1696.0,515.0 1661.0,525.0 1644.0,530.0 C 1627.0,536.0 1608.0,540.0 1600.0,540.0 C 1577.0,540.0 1524.0,587.0 1510.0,619.0 C 1492.0,664.0 1505.0,697.0 1566.0,757.0 C 1606.0,797.0 1620.0,818.0 1620.0,839.0 C 1620.0,871.0 1636.0,887.0 1704.0,921.0 C 1904.0,1019.0 2029.0,1331.0 1986.0,1625.0 C 1971.0,1729.0 1934.0,1855.0 1900.0,1916.0 C 1889.0,1935.0 1880.0,1953.0 1880.0,1955.0 C 1880.0,1958.0 1916.0,1960.0 1960.0,1960.0 C 2044.0,1960.0 2130.0,1978.0 2189.0,2008.0 C 2215.0,2021.0 2233.0,2042.0 2254.0,2083.0 C 2270.0,2114.0 2290.0,2142.0 2299.0,2145.0 C 2308.0,2149.0 2401.0,2154.0 2505.0,2157.0 C 2686.0,2163.0 2697.0,2162.0 2746.0,2141.0 C 2795.0,2120.0 2800.0,2119.0 2828.0,2134.0 C 2870.0,2156.0 2880.0,2203.0 2850.0,2235.0 C 2826.0,2261.0 2731.0,2292.0 2620.0,2310.0 C 2556.0,2321.0 2411.0,2362.0 2345.0,2389.0 C 2334.0,2394.0 2314.0,2402.0 2300.0,2407.0 C 2286.0,2413.0 2264.0,2422.0 2250.0,2428.0 C 2236.0,2433.0 2200.0,2447.0 2170.0,2458.0 C 1997.0,2521.0 2002.0,2518.0 1959.0,2607.0 C 1906.0,2718.0 1821.0,2760.0 1650.0,2759.0 C 1567.0,2759.0 1531.0,2754.0 1477.0,2735.0M 1740.0,2550.0 C 1740.0,2545.0 1733.0,2540.0 1725.0,2540.0 C 1711.0,2540.0 1708.0,2535.0 1706.0,2501.0 C 1705.0,2493.0 1699.0,2485.0 1692.0,2482.0 C 1670.0,2475.0 1679.0,2527.0 1703.0,2543.0 C 1729.0,2562.0 1740.0,2564.0 1740.0,2550.0 M 1810.0,2530.0 C 1834.0,2506.0 1835.0,2491.0 1815.0,2484.0 C 1793.0,2475.0 1777.0,2489.0 1790.0,2505.0 C 1798.0,2514.0 1796.0,2522.0 1785.0,2534.0 C 1776.0,2543.0 1773.0,2550.0 1779.0,2550.0 C 1785.0,2550.0 1799.0,2541.0 1810.0,2530.0 M 2116.0,2441.0 C 2211.0,2406.0 2245.0,2393.0 2285.0,2375.0 C 2332.0,2354.0 2430.0,2324.0 2490.0,2311.0 C 2520.0,2305.0 2592.0,2291.0 2650.0,2279.0 C 2726.0,2264.0 2759.0,2253.0 2769.0,2239.0 C 2776.0,2229.0 2788.0,2220.0 2795.0,2220.0 C 2801.0,2220.0 2815.0,2211.0 2825.0,2200.0 C 2843.0,2180.0 2842.0,2180.0 2519.0,2180.0 C 2273.0,2180.0 2176.0,2184.0 2117.0,2195.0 C 2024.0,2213.0 2027.0,2212.0 2035.0,2201.0 C 2049.0,2178.0 2107.0,2160.0 2166.0,2160.0 C 2201.0,2160.0 2231.0,2156.0 2234.0,2152.0 C 2241.0,2140.0 2196.0,2076.0 2168.0,2059.0 C 2124.0,2031.0 1957.0,1993.0 1923.0,2004.0 C 1913.0,2007.0 1896.0,2023.0 1887.0,2040.0 C 1877.0,2056.0 1854.0,2077.0 1835.0,2086.0 C 1816.0,2095.0 1781.0,2119.0 1758.0,2140.0 C 1734.0,2160.0 1695.0,2187.0 1670.0,2200.0 C 1594.0,2238.0 1562.0,2279.0 1576.0,2322.0 C 1583.0,2345.0 1605.0,2344.0 1703.0,2316.0 C 1735.0,2307.0 1794.0,2300.0 1834.0,2300.0 C 1881.0,2300.0 1918.0,2294.0 1940.0,2284.0 C 1958.0,2275.0 1989.0,2263.0 2009.0,2258.0 C 2099.0,2233.0 2650.0,2209.0 2650.0,2229.0 C 2650.0,2236.0 2623.0,2240.0 2573.0,2240.0 C 2496.0,2240.0 2384.0,2251.0 2235.0,2272.0 C 2110.0,2289.0 1975.0,2338.0 1982.0,2363.0 C 1984.0,2370.0 1992.0,2396.0 1999.0,2423.0 C 2006.0,2449.0 2018.0,2470.0 2025.0,2470.0 C 2031.0,2470.0 2072.0,2457.0 2116.0,2441.0 M 1553.0,853.0 C 1561.0,837.0 1531.0,784.0 1507.0,771.0 C 1455.0,743.0 1440.0,779.0 1478.0,838.0 C 1492.0,859.0 1543.0,870.0 1553.0,853.0 M 1337.0,628.0 C 1335.0,575.0 1340.0,545.0 1353.0,517.0 C 1375.0,473.0 1370.0,425.0 1342.0,394.0 C 1332.0,384.0 1310.0,354.0 1292.0,328.0 C 1260.0,282.0 1174.0,212.0 1163.0,224.0 C 1160.0,227.0 1164.0,244.0 1173.0,262.0 C 1192.0,300.0 1189.0,306.0 1161.0,290.0 C 1134.0,276.0 1120.0,285.0 1120.0,316.0 C 1120.0,345.0 1116.0,346.0 1082.0,321.0 C 1044.0,295.0 986.0,276.0 966.0,283.0 C 943.0,292.0 956.0,316.0 996.0,335.0 C 1027.0,350.0 1043.0,380.0 1020.0,380.0 C 1015.0,380.0 1010.0,386.0 1010.0,394.0 C 1010.0,406.0 1004.0,407.0 978.0,398.0 C 915.0,378.0 890.0,377.0 890.0,393.0 C 890.0,413.0 925.0,434.0 985.0,449.0 C 1081.0,474.0 1235.0,524.0 1258.0,538.0 C 1278.0,551.0 1280.0,560.0 1280.0,626.0 L 1280.0,700.0 L 1309.0,700.0 L 1339.0,700.0 L 1337.0,628.0" fill="#000000" id="000000-000001"/>
    <path stroke="none" d="M1107 437 c-11 -8 -14 -17 -8 -26 11 -17 41 -7 41 13 0 21 -15 27 -33 13z" fill="#000000" id="000000-000016"/>
    <path stroke="none" d="M1170 380 c-13 -8 -12 -11 5 -24 29 -22 47 -20 43 6 -3 25 -25 33 -48 18z" fill="#000000" id="000000-000020"/>
    <path stroke="none" d="M1340 2170 c0 -5 5 -10 11 -10 5 0 7 5 4 10 -3 6 -8 10 -11 10 -2 0 -4 -4 -4 -10z" fill="#000000" id="000000-000005"/>
    <path stroke="none" d="M1520 1926 c0 -8 5 -18 10 -21 6 -3 10 1 10 9 0 8 -4 18 -10 21 -5 3 -10 -1 -10 -9z" fill="#000000" id="000000-000013"/>
    <path stroke="none" d="M1480 465 c0 -8 5 -15 10 -15 6 0 10 7 10 15 0 8 -4 15 -10 15 -5 0 -10 -7 -10 -15z" fill="#000000" id="000000-000014"/>
  </g>
</svg>
