<?xml version="1.0" standalone="no"?>
<!DOCTYPE svg PUBLIC "-//W3C//DTD SVG 1.1//EN"
 "http://www.w3.org/Graphics/SVG/1.1/DTD/svg11.dtd">
<!-- Created with svg_stack (http://github.com/astraw/svg_stack) -->
<svg xmlns:sodipodi="http://sodipodi.sourceforge.net/DTD/sodipodi-0.dtd" xmlns="http://www.w3.org/2000/svg" version="1.1" width="4620.0" height="6740.0">
  <defs/>
  <g id="id0:id0" transform="matrix(1.25,0,0,1.25,0.0,0.0)"><g transform="translate(0.000000,5392.000000) scale(0.080000,-0.080000)" fill="#1a1a1a" stroke="none">
<path d="M26290 67290 c19 -13 30 -13 30 0 0 6 -10 10 -22 10 -19 0 -20 -2 -8 -10z"/>
<path d="M26355 67291 l30 -6 3 -999 c1 -674 -1 -1003 -8 -1011 -8 -9 -6 -14 5 -19 13 -5 15 105 15 1019 l0 1025 -37 -1 -38 -1 30 -7z"/>
<path d="M363 61635 c0 -22 2 -30 4 -17 2 12 2 30 0 40 -3 9 -5 -1 -4 -23z"/>
<path d="M343 61455 c0 -22 2 -30 4 -17 2 12 2 30 0 40 -3 9 -5 -1 -4 -23z"/>
<path d="M323 61275 c0 -22 2 -30 4 -17 2 12 2 30 0 40 -3 9 -5 -1 -4 -23z"/>
<path d="M303 61055 c0 -22 2 -30 4 -17 2 12 2 30 0 40 -3 9 -5 -1 -4 -23z"/>
<path d="M283 60815 c0 -22 2 -30 4 -17 2 12 2 30 0 40 -3 9 -5 -1 -4 -23z"/>
<path d="M263 60535 c0 -22 2 -30 4 -17 2 12 2 30 0 40 -3 9 -5 -1 -4 -23z"/>
<path d="M243 60225 c0 -27 2 -38 4 -22 2 15 2 37 0 50 -2 12 -4 0 -4 -28z"/>
<path d="M223 59825 c0 -27 2 -38 4 -22 2 15 2 37 0 50 -2 12 -4 0 -4 -28z"/>
<path d="M203 59135 c0 -33 2 -45 4 -27 2 18 2 45 0 60 -2 15 -4 0 -4 -33z"/>
<path d="M199 58193 l5 -58 6 40 c6 42 2 75 -9 75 -3 0 -4 -26 -2 -57z"/>
<path d="M220 57540 c0 -29 2 -51 5 -48 8 7 9 87 2 95 -4 3 -7 -18 -7 -47z"/>
<path d="M241 57190 c0 -25 3 -51 8 -59 5 -8 7 5 4 35 -6 68 -11 77 -12 24z"/>
<path d="M261 56913 c0 -29 2 -33 8 -18 7 18 4 55 -5 55 -2 0 -4 -17 -3 -37z"/>
<path d="M278 56693 c4 -30 6 -34 12 -18 7 21 2 55 -9 55 -4 0 -5 -17 -3 -37z"/>
<path d="M298 56493 c4 -30 6 -34 12 -18 7 21 2 55 -9 55 -4 0 -5 -17 -3 -37z"/>
<path d="M311 56394 c0 -11 3 -14 6 -6 3 7 2 16 -1 19 -3 4 -6 -2 -5 -13z"/>
<path d="M318 56313 c4 -30 6 -34 12 -18 7 21 2 55 -9 55 -4 0 -5 -17 -3 -37z"/>
<path d="M331 56234 c0 -11 3 -14 6 -6 3 7 2 16 -1 19 -3 4 -6 -2 -5 -13z"/>
<path d="M338 56153 c4 -30 6 -34 12 -18 7 21 2 55 -9 55 -4 0 -5 -17 -3 -37z"/>
<path d="M351 56074 c0 -11 3 -14 6 -6 3 7 2 16 -1 19 -3 4 -6 -2 -5 -13z"/>
<path d="M361 55993 c0 -29 2 -33 8 -18 7 18 4 55 -5 55 -2 0 -4 -17 -3 -37z"/>
<path d="M36510 46336 c0 -19 3 -37 8 -40 4 -2 6 13 4 35 -5 48 -12 51 -12 5z"/>
<path d="M36533 46180 c0 -25 2 -35 4 -22 2 12 2 32 0 45 -2 12 -4 2 -4 -23z"/>
<path d="M36553 45990 c0 -30 2 -43 4 -27 2 15 2 39 0 55 -2 15 -4 2 -4 -28z"/>
<path d="M36574 45685 c0 -60 1 -84 3 -52 2 32 2 81 0 110 -2 29 -3 3 -3 -58z"/>
<path d="M36574 45220 c0 -58 1 -81 3 -52 2 28 2 76 0 105 -2 28 -3 5 -3 -53z"/>
<path d="M36553 44940 c0 -25 2 -35 4 -22 2 12 2 32 0 45 -2 12 -4 2 -4 -23z"/>
<path d="M36532 44770 c0 -19 2 -27 5 -17 2 9 2 25 0 35 -3 9 -5 1 -5 -18z"/>
<path d="M36512 44635 c0 -16 2 -22 5 -12 2 9 2 23 0 30 -3 6 -5 -1 -5 -18z"/>
<path d="M36556 34630 c22 -43 38 -48 17 -6 -9 20 -20 36 -24 36 -4 0 -1 -13 7 -30z"/>
<path d="M36600 34550 c0 -5 5 -10 11 -10 5 0 7 5 4 10 -3 6 -8 10 -11 10 -2 0 -4 -4 -4 -10z"/>
<path d="M36623 34495 c0 -8 7 -15 15 -15 7 0 12 5 10 12 -6 18 -25 21 -25 3z"/>
<path d="M30718 34488 c5 -5 16 -8 23 -6 8 3 3 7 -10 11 -17 4 -21 3 -13 -5z"/>
<path d="M46148 25103 c1 -5604 -1 -7800 -9 -7809 -11 -14 -4 -34 12 -34 11 0 13 15626 2 15633 -5 3 -7 -3503 -5 -7790z"/>
<path d="M182 32840 c0 -19 2 -27 5 -17 2 9 2 25 0 35 -3 9 -5 1 -5 -18z"/>
<path d="M186 30866 c-8 -32 -5 -38 10 -28 6 4 8 18 4 32 l-6 25 -8 -29z"/>
<path d="M338 30833 c7 -3 16 -2 19 1 4 3 -2 6 -13 5 -11 0 -14 -3 -6 -6z"/>
<path d="M4968 15713 c12 -2 30 -2 40 0 9 3 -1 5 -23 4 -22 0 -30 -2 -17 -4z"/>
<path d="M5113 15713 c48 -2 126 -2 175 0 48 1 8 3 -88 3 -96 0 -136 -2 -87 -3z"/>
<path d="M5398 15713 c12 -2 32 -2 45 0 12 2 2 4 -23 4 -25 0 -35 -2 -22 -4z"/>
<path d="M11738 15713 c321 -2 843 -2 1160 0 317 1 55 2 -583 2 -638 0 -898 -1 -577 -2z"/>
<path d="M19052 15715 c6 -6 1439 -7 1446 0 3 3 -322 5 -723 5 -401 0 -726 -2 -723 -5z"/>
<path d="M20825 15710 l320 -5 3 -7789 c1 -5314 -1 -7793 -8 -7801 -8 -9 -6 -14 5 -19 13 -5 15 809 15 7809 l0 7815 -327 -2 -328 -3 320 -5z"/>
<path d="M362 9720 c0 -14 2 -19 5 -12 2 6 2 18 0 25 -3 6 -5 1 -5 -13z"/>
<path d="M342 9565 c0 -16 2 -22 5 -12 2 9 2 23 0 30 -3 6 -5 -1 -5 -18z"/>
<path d="M323 9415 c0 -22 2 -30 4 -17 2 12 2 30 0 40 -3 9 -5 -1 -4 -23z"/>
<path d="M303 9235 c0 -22 2 -30 4 -17 2 12 2 30 0 40 -3 9 -5 -1 -4 -23z"/>
<path d="M283 9055 c0 -22 2 -30 4 -17 2 12 2 30 0 40 -3 9 -5 -1 -4 -23z"/>
<path d="M263 8835 c0 -22 2 -30 4 -17 2 12 2 30 0 40 -3 9 -5 -1 -4 -23z"/>
<path d="M243 8555 c0 -22 2 -30 4 -17 2 12 2 30 0 40 -3 9 -5 -1 -4 -23z"/>
<path d="M223 8225 c0 -27 2 -38 4 -22 2 15 2 37 0 50 -2 12 -4 0 -4 -28z"/>
<path d="M220 6395 c0 -32 2 -56 5 -53 7 7 9 97 2 105 -4 3 -7 -20 -7 -52z"/>
<path d="M241 6033 c0 -29 2 -33 8 -18 7 18 4 55 -5 55 -2 0 -4 -17 -3 -37z"/>
<path d="M240 5964 c0 -10 5 -26 10 -34 8 -11 9 -7 4 15 -8 37 -14 45 -14 19z"/>
<path d="M261 5753 c0 -29 2 -33 8 -18 7 18 4 55 -5 55 -2 0 -4 -17 -3 -37z"/>
<path d="M281 5533 c0 -29 2 -33 8 -18 7 18 4 55 -5 55 -2 0 -4 -17 -3 -37z"/>
<path d="M301 5333 c0 -29 2 -33 8 -18 7 18 4 55 -5 55 -2 0 -4 -17 -3 -37z"/>
<path d="M311 5254 c0 -11 3 -14 6 -6 3 7 2 16 -1 19 -3 4 -6 -2 -5 -13z"/>
<path d="M318 5173 c4 -30 6 -34 12 -18 7 21 2 55 -9 55 -4 0 -5 -17 -3 -37z"/>
<path d="M331 5094 c0 -11 3 -14 6 -6 3 7 2 16 -1 19 -3 4 -6 -2 -5 -13z"/>
<path d="M338 5013 c4 -30 6 -34 12 -18 7 21 2 55 -9 55 -4 0 -5 -17 -3 -37z"/>
<path d="M351 4954 c0 -11 3 -14 6 -6 3 7 2 16 -1 19 -3 4 -6 -2 -5 -13z"/>
<path d="M358 4873 c4 -30 6 -34 12 -18 7 21 2 55 -9 55 -4 0 -5 -17 -3 -37z"/>
<path d="M23925 4233 c-37 -9 -35 -19 12 -43 26 -14 70 -38 98 -54 206 -118 412 -219 614 -299 47 -18 86 -38 88 -44 2 -6 -12 -27 -31 -47 -59 -59 -106 -248 -106 -426 1 -154 24 -209 90 -210 l25 0 -3 164 c-3 151 -1 173 22 258 62 226 161 390 272 450 68 36 142 52 178 39 36 -14 32 -16 45 20 15 44 14 74 -5 112 -40 79 -95 86 -197 26 -84 -50 -168 -132 -227 -222 -24 -37 -47 -67 -51 -67 -3 0 -18 18 -33 40 -59 89 -240 210 -390 260 -118 40 -323 62 -401 43z"/>
<path d="M27054 2185 c0 -104 2 -146 3 -92 2 54 2 139 0 190 -1 51 -3 7 -3 -98z"/>
</g>
</g>
  <g id="id1:id1" transform="matrix(1.25,0,0,1.25,0.0,0.0)"><g transform="translate(0.000000,5392.000000) scale(0.080000,-0.080000)" fill="#000000" stroke="none">
<path d="M4435 67350 c-782 -59 -1402 -298 -1990 -768 -532 -424 -987 -1053 -1309 -1805 -528 -1233 -812 -2747 -916 -4882 -40 -825 -35 -1978 11 -2575 6 -74 11 -144 11 -155 0 -149 70 -822 124 -1200 2 -16 9 -64 14 -105 50 -348 156 -840 260 -1200 136 -471 330 -946 526 -1286 570 -991 1366 -1545 2424 -1688 373 -51 856 -49 1290 5 616 76 1169 265 1590 543 532 352 958 886 1259 1578 469 1082 681 2636 632 4628 -6 250 -14 485 -17 523 l-7 67 -2018 0 -2019 0 2 -940 3 -940 945 -3 945 -2 3 -185 c5 -296 -22 -764 -64 -1085 -85 -662 -254 -1198 -487 -1545 -266 -396 -580 -592 -1087 -677 -161 -27 -494 -25 -615 4 -315 74 -573 260 -815 588 -307 416 -547 1036 -699 1805 -208 1054 -279 2487 -196 3955 70 1227 151 1893 316 2599 202 863 480 1511 872 2031 92 122 267 290 382 367 266 177 512 255 837 265 262 8 484 -27 616 -97 305 -162 510 -579 631 -1285 30 -177 73 -496 86 -647 l7 -78 1091 0 1090 0 -6 208 c-19 607 -114 1219 -264 1702 -229 741 -588 1282 -1113 1679 -436 330 -933 516 -1560 587 -162 18 -618 26 -785 14z"/>
<path d="M9950 59495 l0 -7805 3295 0 3295 0 -2 1031 -3 1030 -285 -1 c-157 0 -1124 -5 -2149 -10 -1026 -6 -1868 -7 -1873 -2 -4 4 -7 915 -6 2023 l3 2014 1803 3 1802 2 0 1035 0 1035 -1802 2 -1803 3 0 2705 0 2705 2158 3 2157 2 0 1015 0 1015 -3295 0 -3295 0 0 -7805z"/>
<path d="M18000 66275 l0 -1025 1538 -2 1537 -3 5 -6778 c3 -3727 8 -6777 13 -6777 4 0 506 0 1117 0 l1110 0 2 6778 3 6777 1531 3 1532 2 6 32 c12 59 7 1990 -5 2005 -9 11 -743 13 -4200 13 l-4189 0 0 -1025z"/>
<path d="M52 50088 c3 -13 640 -1770 1416 -3904 l1412 -3881 0 -3912 0 -3911 1135 0 1135 0 0 3905 c0 3235 2 3905 13 3912 8 4 59 132 115 283 55 151 423 1155 817 2230 394 1075 758 2070 810 2210 577 1571 1125 3071 1125 3080 0 16 -2274 14 -2288 -2 -5 -7 -163 -434 -350 -948 -187 -514 -490 -1344 -673 -1845 -182 -500 -407 -1117 -499 -1370 -102 -280 -173 -460 -181 -460 -7 0 -60 129 -131 325 -65 179 -193 528 -283 775 -207 568 -511 1403 -835 2290 -138 380 -295 809 -347 955 -53 146 -101 271 -106 278 -7 9 -249 12 -1149 12 l-1140 0 4 -22z"/>
<path d="M13325 50104 c-736 -39 -1394 -246 -1934 -607 -271 -181 -600 -467 -833 -723 -547 -603 -926 -1241 -1270 -2139 -337 -877 -573 -1966 -697 -3225 -97 -972 -106 -2137 -26 -3185 111 -1440 405 -2632 874 -3540 582 -1127 1414 -1822 2493 -2084 321 -78 576 -110 938 -118 1154 -26 2070 324 2859 1092 580 564 1021 1297 1384 2300 325 897 570 2178 661 3455 31 434 38 614 38 1015 -1 1578 -214 3062 -636 4423 -140 449 -260 757 -438 1112 -423 849 -917 1408 -1605 1819 -359 213 -765 341 -1243 391 -107 11 -458 19 -565 14z m420 -2173 c93 -25 238 -92 325 -151 140 -95 336 -310 471 -515 516 -787 836 -2046 943 -3710 38 -579 45 -1475 16 -1935 -67 -1086 -173 -1856 -350 -2555 -118 -466 -237 -799 -415 -1160 -173 -349 -312 -551 -535 -776 -214 -216 -390 -337 -626 -432 -220 -89 -487 -130 -702 -109 -345 35 -632 170 -895 421 -240 230 -408 472 -591 852 -384 794 -600 1848 -657 3200 -15 366 -6 1279 15 1564 44 574 114 1198 182 1615 124 761 351 1550 604 2100 274 596 651 1098 1005 1337 226 152 451 231 790 277 17 2 100 3 185 1 120 -2 173 -7 235 -24z"/>
<path d="M19385 50098 c-5 -16 -21 -1021 -75 -4613 -33 -2186 11 -4284 115 -5535 60 -720 156 -1489 241 -1930 153 -801 436 -1544 790 -2075 300 -451 722 -853 1133 -1079 516 -284 1276 -428 1996 -376 821 59 1412 258 1915 643 574 440 956 963 1261 1724 232 579 365 1133 469 1943 127 1000 180 1897 211 3535 13 699 7 3279 -11 4295 -38 2265 -61 3464 -66 3471 -6 11 -2101 12 -2106 2 -2 -5 0 -188 3 -408 4 -220 15 -827 24 -1350 8 -522 22 -1357 31 -1855 44 -2608 22 -5289 -52 -6265 -94 -1240 -295 -2169 -601 -2775 -170 -335 -389 -616 -596 -764 -179 -128 -381 -193 -627 -203 -353 -14 -647 91 -884 316 -166 158 -357 439 -487 718 -281 600 -464 1418 -553 2483 -28 328 -73 1235 -101 2020 -41 1160 -45 2865 -11 4330 32 1393 47 1996 66 2735 11 418 21 819 22 890 l3 130 -1053 3 c-837 2 -1053 0 -1057 -10z"/>
<path d="M29180 50050 c-113 -3 -206 -7 -207 -8 -2 -1 -3 -3503 -3 -7782 l0 -7780 1005 0 1005 0 2 2943 c2 1954 6 2942 13 2941 12 -1 -18 53 2195 -3967 l1055 -1916 1198 -1 c658 0 1197 2 1197 5 0 13 -32 81 -44 95 -8 8 -39 62 -69 120 -30 58 -820 1461 -1756 3119 -935 1657 -1699 3017 -1696 3021 2 3 30 12 62 19 93 21 347 98 488 148 549 195 975 448 1436 853 615 540 1081 1301 1324 2165 47 167 102 408 116 510 5 44 15 96 20 116 5 20 9 55 9 77 0 22 4 52 9 66 6 13 11 51 12 83 0 32 5 74 10 93 28 116 28 862 0 980 -5 19 -9 64 -10 100 -1 36 -6 81 -11 100 -6 19 -10 53 -10 74 0 22 -4 65 -10 95 -5 31 -16 108 -25 171 -171 1229 -817 2229 -1818 2815 -136 79 -434 222 -602 288 -661 260 -1380 387 -2545 448 -234 13 -2040 19 -2350 9z m2740 -2030 c729 -72 1343 -315 1744 -691 303 -283 483 -606 611 -1094 164 -624 148 -1323 -42 -1885 -65 -192 -172 -416 -270 -565 -183 -277 -447 -530 -718 -690 -540 -318 -1208 -456 -2005 -415 -129 6 -241 16 -247 22 -10 8 -13 552 -13 2659 0 2107 3 2649 13 2656 34 22 709 25 927 3z"/>
<path d="M33620 32924 c-1060 -89 -1838 -438 -2687 -1207 -410 -370 -808 -867 -1120 -1392 -131 -222 -196 -343 -313 -581 -330 -672 -586 -1421 -769 -2249 -347 -1573 -390 -3202 -125 -4705 355 -2017 1177 -3640 2334 -4606 597 -498 1117 -740 1820 -846 196 -29 692 -36 955 -14 345 30 777 103 1042 177 405 112 813 331 1214 650 l100 80 -24 42 c-126 222 -991 1714 -997 1721 -5 5 -54 -20 -117 -61 -501 -324 -1031 -513 -1438 -513 -331 0 -711 117 -1000 307 -221 146 -513 436 -717 713 -640 870 -1025 2084 -1109 3500 -20 335 -4 987 36 1515 85 1100 312 2148 647 2985 79 197 252 559 348 725 94 164 256 405 365 540 505 632 1086 994 1786 1111 91 15 120 16 238 5 136 -12 341 -46 488 -82 216 -51 425 -141 567 -243 43 -31 80 -56 81 -54 3 3 56 131 490 1168 114 272 239 569 277 660 38 91 72 170 75 177 8 20 -284 152 -511 232 -311 109 -615 175 -1048 227 -126 15 -765 28 -888 18z"/>
<path d="M21845 32868 c-3 -13 -25 -106 -49 -208 -62 -257 -196 -817 -332 -1385 -63 -264 -137 -572 -164 -685 -27 -113 -74 -308 -105 -435 -30 -126 -75 -315 -101 -420 -25 -104 -110 -462 -190 -795 -297 -1241 -376 -1570 -423 -1765 -27 -110 -74 -306 -105 -435 -31 -129 -76 -318 -100 -420 -163 -676 -294 -1224 -421 -1755 -80 -335 -168 -702 -195 -815 -52 -215 -130 -538 -198 -825 -23 -93 -95 -395 -161 -670 -66 -275 -186 -774 -266 -1110 -80 -335 -168 -702 -195 -815 -52 -216 -133 -553 -193 -805 -20 -82 -65 -271 -101 -420 -36 -148 -131 -544 -211 -880 -80 -335 -164 -683 -185 -773 -22 -90 -40 -170 -40 -178 0 -12 150 -14 1074 -14 591 0 1077 4 1080 8 3 5 48 190 101 413 53 222 109 458 125 524 16 66 225 943 465 1949 239 1006 438 1833 441 1837 7 11 3041 12 3048 1 3 -5 95 -386 205 -848 110 -461 340 -1426 511 -2144 171 -718 334 -1399 361 -1513 27 -115 52 -213 55 -218 3 -5 452 -9 1081 -9 l1076 0 -6 32 c-5 27 -3690 15401 -3728 15552 l-11 46 -1069 0 -1069 0 -5 -22z m1179 -4898 c47 -201 164 -700 261 -1110 160 -675 374 -1585 585 -2479 44 -184 77 -338 74 -343 -7 -12 -2061 -10 -2069 2 -4 7 1009 4244 1031 4309 13 40 38 -41 118 -379z"/>
<path d="M37600 25075 l0 -7815 1103 2 1102 3 5 3330 5 3330 2070 0 2070 0 3 -3332 2 -3333 1094 0 1095 0 6 53 c3 28 5 3544 3 7812 l-3 7760 -1097 3 -1098 2 -2 -3442 -3 -3443 -2070 0 -2070 0 -3 3443 -2 3442 -1105 0 -1105 0 0 -7815z"/>
<path d="M13257 32872 l-3287 -2 2 -7803 3 -7802 3293 -3 3292 -2 0 1036 0 1036 -307 -6 c-170 -4 -1140 -7 -2158 -9 l-1850 -2 0 2020 0 2020 1803 3 1802 2 0 1030 0 1030 -1802 2 -1803 3 0 2710 0 2710 2158 3 2157 2 0 1009 c0 556 -3 1011 -7 1013 -5 2 -1487 2 -3296 0z"/>
<path d="M186 32861 c-3 -5 -5 -463 -3 -1017 l2 -1009 1535 -5 1535 -5 3 -6783 2 -6782 1123 2 1122 3 5 6780 5 6780 1538 3 1537 2 0 1020 0 1020 -4199 0 c-2413 0 -4202 -4 -4205 -9z"/>
<path d="M4915 15713 c-855 -70 -1506 -316 -2100 -792 -620 -497 -1116 -1124 -1503 -1896 -478 -956 -785 -2041 -967 -3415 -105 -794 -145 -1423 -145 -2295 0 -493 10 -836 36 -1245 13 -207 25 -348 70 -785 3 -27 12 -99 20 -160 9 -60 17 -126 20 -145 2 -19 6 -48 10 -65 3 -16 8 -52 11 -80 19 -189 121 -698 208 -1040 418 -1645 1209 -2781 2310 -3315 536 -260 1108 -382 1785 -382 1116 1 1987 352 2763 1112 568 555 1017 1305 1365 2276 410 1143 679 2799 699 4304 18 1324 -135 2689 -436 3885 -189 755 -394 1340 -637 1826 -343 687 -747 1196 -1249 1576 -510 385 -1007 576 -1645 633 -104 9 -517 11 -615 3z m505 -2163 c98 -25 242 -90 326 -148 491 -335 924 -1191 1173 -2322 243 -1103 343 -2670 256 -4025 -86 -1342 -283 -2398 -592 -3175 -143 -360 -292 -635 -487 -900 -93 -127 -356 -388 -474 -470 -199 -140 -438 -243 -667 -287 -127 -25 -428 -25 -543 0 -200 43 -397 129 -562 245 -121 86 -333 296 -435 434 -351 470 -624 1143 -790 1948 -210 1017 -276 2329 -180 3570 78 1006 211 1823 411 2529 127 450 253 789 419 1126 262 531 597 971 909 1192 228 162 516 268 817 302 128 15 319 6 419 -19z"/>
<path d="M11160 7905 l0 -7815 1033 2 1032 3 5 5785 c3 3850 8 5784 15 5782 6 -1 1313 -2605 2906 -5785 l2897 -5782 1050 -3 1049 -2 7 31 c3 18 6 3529 6 7803 0 6022 -3 7775 -12 7784 -9 9 -258 12 -1055 12 l-1043 0 0 -5489 c0 -3178 -4 -5492 -9 -5495 -5 -3 -1256 2461 -2781 5477 -1525 3015 -2777 5488 -2782 5495 -8 9 -253 12 -1164 12 l-1154 0 0 -7815z"/>
<path d="M23873 4214 c-3 -8 2 -44 12 -80 63 -234 322 -427 591 -442 122 -6 187 9 237 56 43 42 45 49 15 62 -330 135 -507 219 -683 325 -38 23 -85 50 -103 59 -18 9 -30 21 -27 26 4 6 -3 10 -15 10 -11 0 -23 -7 -27 -16z"/>
<path d="M24580 4056 c0 -2 8 -10 18 -17 15 -13 16 -12 3 4 -13 16 -21 21 -21 13z"/>
<path d="M25052 4009 c-118 -46 -230 -194 -296 -392 -45 -135 -58 -219 -55 -377 2 -115 1 -125 -16 -122 -36 7 -62 21 -115 64 -211 170 -541 364 -700 413 -253 76 -308 86 -500 86 -243 0 -430 -74 -595 -236 -165 -161 -268 -352 -339 -628 -92 -357 -97 -855 -12 -1149 174 -596 610 -1132 1134 -1392 338 -169 733 -219 1077 -137 l78 19 76 -18 c305 -72 679 -40 966 82 103 44 243 116 295 151 477 322 814 790 964 1337 28 103 35 169 42 372 18 581 -97 1011 -350 1307 -175 206 -445 316 -726 296 -145 -10 -315 -47 -438 -96 -203 -81 -545 -284 -686 -409 -33 -28 -62 -48 -67 -43 -32 32 -16 254 28 383 77 227 193 379 351 459 23 12 42 25 42 30 0 27 -87 27 -158 0z"/>
<path d="M24645 4000 c10 -11 20 -20 23 -20 3 0 -3 9 -13 20 -10 11 -20 20 -23 20 -3 0 3 -9 13 -20z"/>
</g>
</g>
</svg>
