<svg xmlns="http://www.w3.org/2000/svg" version="1.0" width="4016.000000pt" height="4016.000000pt" viewBox="0 0 4016.000000 4016.000000" preserveAspectRatio="xMidYMid meet">
  <g transform="translate(0.000000,4016.000000) scale(0.100000,-0.100000)" stroke="none">
    <path d="M 0 0 H 40160.0 V 40160.0 H 0 Z" fill="#ffffff" id="background"/>
    <path stroke="none" d="M8480 36484 c-232 -9 -568 -26 -680 -34 -470 -37 -836 -79 -1155 -130 -33 -6 -76 -12 -95 -15 -19 -3 -57 -10 -85 -15 -27 -6 -97 -19 -155 -30 -58 -11 -126 -24 -152 -30 -130 -27 -155 -33 -178 -40 -14 -5 -47 -13 -75 -20 -100 -23 -186 -45 -235 -60 -14 -4 -45 -13 -70 -20 -25 -7 -54 -16 -65 -20 -11 -5 -38 -14 -60 -21 -22 -6 -49 -15 -60 -20 -11 -4 -40 -15 -65 -23 -339 -112 -667 -285 -869 -458 -215 -185 -325 -424 -291 -630 20 -119 78 -196 185 -247 93 -45 162 -56 340 -55 185 0 354 24 593 83 23 6 59 15 80 20 20 5 57 15 82 23 25 8 65 21 90 28 25 7 72 21 105 32 33 10 76 23 95 29 19 6 46 15 60 21 49 21 66 27 110 42 44 14 112 38 158 57 12 5 32 13 45 18 12 5 38 16 57 24 53 23 161 59 165 56 1 -2 7 -83 13 -179 14 -234 -1 -477 -38 -622 -37 -143 -34 -136 -90 -251 -32 -67 -61 -109 -119 -170 -42 -45 -95 -109 -117 -142 -42 -61 -124 -224 -124 -244 0 -6 -4 -19 -10 -29 -33 -61 -86 -273 -122 -487 -17 -106 -17 -490 0 -565 25 -107 34 -136 68 -206 39 -81 107 -151 379 -389 400 -350 631 -575 755 -735 19 -24 43 -53 52 -64 38 -42 100 -178 105 -230 12 -114 -82 -212 -272 -286 -292 -114 -315 -125 -402 -192 -102 -78 -168 -174 -213 -308 -26 -81 -36 -225 -21 -300 7 -30 15 -68 18 -83 3 -15 35 -87 72 -160 70 -138 162 -274 295 -436 93 -111 501 -523 626 -631 128 -110 127 -109 252 -213 64 -53 119 -101 122 -106 3 -5 -17 -58 -45 -117 -103 -219 -139 -296 -139 -300 0 -2 -11 -27 -24 -56 -30 -68 -64 -144 -82 -185 -8 -18 -20 -48 -28 -65 -8 -18 -29 -69 -46 -113 -17 -44 -38 -96 -47 -115 -20 -47 -27 -65 -53 -135 -12 -33 -28 -73 -35 -90 -8 -16 -21 -52 -30 -80 -9 -27 -20 -59 -24 -70 -5 -11 -14 -36 -21 -55 -7 -19 -16 -44 -20 -55 -8 -19 -27 -74 -65 -180 -9 -27 -21 -63 -25 -80 -4 -16 -16 -52 -25 -80 -43 -122 -53 -153 -65 -195 -7 -25 -16 -54 -20 -65 -4 -11 -13 -40 -20 -65 -23 -81 -30 -104 -46 -155 -9 -27 -20 -66 -25 -85 -4 -19 -13 -53 -19 -75 -6 -22 -15 -56 -20 -75 -5 -19 -14 -53 -20 -75 -12 -41 -21 -78 -40 -152 -5 -24 -14 -60 -20 -80 -5 -21 -14 -60 -20 -88 -7 -27 -16 -68 -22 -90 -11 -49 -25 -111 -37 -167 -5 -24 -14 -68 -21 -98 -7 -30 -16 -73 -20 -95 -26 -128 -33 -164 -40 -205 -14 -76 -30 -172 -41 -235 -5 -33 -13 -85 -19 -115 -31 -184 -78 -536 -100 -755 -89 -869 -99 -1746 -30 -2595 34 -416 108 -987 172 -1320 5 -30 13 -75 18 -100 4 -25 14 -79 23 -120 8 -41 17 -86 20 -100 6 -31 45 -218 59 -280 11 -50 23 -102 38 -157 5 -21 14 -60 20 -88 20 -85 28 -119 39 -155 5 -19 19 -71 31 -115 12 -44 25 -93 30 -110 4 -16 18 -65 29 -108 12 -43 27 -97 35 -120 7 -23 19 -62 26 -87 7 -25 30 -97 50 -160 20 -63 42 -135 49 -160 8 -25 17 -54 21 -65 5 -11 22 -63 40 -115 17 -52 35 -104 40 -115 5 -11 18 -49 30 -85 12 -36 26 -75 31 -87 18 -45 27 -69 39 -103 15 -42 29 -79 41 -102 5 -10 9 -22 9 -28 0 -6 9 -32 21 -58 12 -26 26 -58 31 -72 6 -14 14 -33 19 -42 5 -10 9 -22 9 -28 0 -5 13 -38 28 -72 16 -35 34 -79 42 -98 7 -19 17 -39 22 -45 4 -5 8 -14 8 -21 0 -7 18 -51 40 -98 22 -47 40 -88 40 -90 0 -2 16 -39 36 -83 105 -225 156 -328 166 -334 6 -4 114 44 240 107 125 63 230 114 233 114 2 0 29 11 60 25 122 55 164 73 245 104 47 18 94 36 105 41 11 4 31 12 45 18 14 5 41 15 60 22 19 7 44 16 55 21 18 7 198 66 233 75 27 7 22 36 -23 129 -63 131 -135 286 -135 290 0 2 -18 42 -40 89 -22 47 -40 88 -40 90 0 3 -11 29 -24 58 -13 29 -39 89 -56 133 -17 44 -38 94 -45 110 -7 17 -32 80 -55 140 -23 61 -46 119 -50 130 -4 11 -13 36 -20 55 -7 19 -16 44 -20 55 -19 46 -43 114 -60 165 -10 30 -29 87 -43 125 -13 39 -39 117 -57 175 -17 58 -40 130 -50 160 -9 30 -23 75 -30 100 -7 25 -16 56 -20 70 -4 14 -13 45 -20 70 -7 25 -16 56 -20 70 -9 28 -25 91 -39 148 -5 20 -14 56 -20 80 -14 54 -28 112 -40 160 -5 20 -14 55 -20 77 -12 49 -26 112 -41 185 -7 30 -16 71 -20 90 -5 19 -14 62 -20 95 -6 33 -15 78 -20 100 -5 22 -14 69 -20 105 -6 36 -16 85 -20 110 -17 87 -63 386 -80 520 -6 47 -15 117 -20 155 -18 134 -46 428 -60 635 -47 700 -38 1368 30 2080 11 113 24 237 30 275 5 39 14 108 20 155 6 47 15 112 21 145 5 33 17 107 25 165 18 116 28 177 44 260 5 30 15 80 20 110 6 30 14 75 19 100 5 25 14 70 20 100 6 30 16 75 21 100 6 25 15 65 20 90 14 63 38 166 60 250 12 45 26 104 39 155 5 22 18 74 29 115 11 41 28 102 36 135 9 33 20 71 25 85 5 14 14 45 21 70 17 59 51 169 60 195 4 11 13 38 19 60 7 22 16 49 20 60 5 11 14 38 20 60 7 22 16 49 21 60 4 11 14 40 21 65 7 25 16 50 19 55 4 6 10 21 13 35 2 14 19 63 37 110 17 47 35 97 40 111 4 15 15 42 23 60 8 19 45 111 82 204 37 94 73 185 81 203 8 17 20 47 28 65 8 17 26 58 40 90 14 32 26 59 26 61 0 4 14 35 98 216 105 228 319 648 390 768 18 29 32 55 32 57 0 3 47 86 160 280 40 70 79 134 112 185 19 30 59 93 88 140 74 117 228 348 297 446 32 45 77 109 100 142 58 82 322 432 334 442 3 3 22 26 42 52 258 341 771 902 1176 1285 271 257 618 560 816 713 39 29 72 56 75 60 8 10 397 300 505 376 207 146 240 169 257 179 9 6 37 25 63 43 25 17 48 32 51 32 3 0 45 27 94 60 50 33 111 73 138 89 26 15 84 51 130 80 46 28 86 51 88 51 3 0 24 13 47 28 23 16 67 42 97 59 30 17 73 40 95 53 54 31 133 75 230 127 134 73 643 325 770 382 66 29 145 65 175 78 30 14 78 34 105 45 28 11 66 26 85 35 19 8 44 19 55 23 11 4 36 15 55 23 19 9 55 23 80 32 25 9 55 21 68 26 21 9 44 18 95 38 12 5 38 14 57 21 19 7 44 16 55 20 40 16 131 49 170 61 22 7 44 17 49 21 6 4 20 8 32 8 13 0 26 5 29 10 3 6 17 10 30 10 13 0 27 5 30 10 3 6 17 10 30 10 13 0 27 5 30 10 3 6 17 10 30 10 13 0 27 5 30 10 3 6 15 10 26 10 10 0 27 4 37 9 9 5 37 15 62 21 25 7 54 16 65 20 11 4 40 13 65 20 82 23 115 33 135 40 19 7 66 21 125 35 14 4 41 11 60 16 19 6 51 14 70 19 19 5 53 14 75 20 47 13 103 27 160 40 22 5 59 14 83 19 131 33 245 58 462 102 109 22 379 69 515 90 39 6 97 15 130 20 214 33 569 71 830 89 850 60 1462 49 2335 -40 47 -5 121 -14 165 -20 44 -6 112 -15 150 -20 39 -5 99 -14 135 -19 36 -6 97 -15 135 -20 39 -6 97 -16 130 -22 33 -6 80 -15 105 -19 132 -24 169 -31 210 -39 25 -5 70 -14 100 -20 30 -6 73 -15 95 -20 22 -5 65 -14 95 -21 57 -12 100 -23 173 -41 23 -5 60 -14 82 -19 22 -5 58 -14 80 -20 41 -12 80 -22 150 -39 39 -9 85 -22 155 -42 19 -6 46 -13 60 -15 14 -3 34 -9 45 -14 11 -4 40 -13 65 -20 82 -23 115 -33 135 -40 11 -4 40 -13 65 -20 25 -7 54 -16 65 -20 11 -4 38 -13 60 -19 22 -7 49 -16 60 -21 11 -4 40 -14 65 -21 25 -7 50 -16 55 -19 6 -4 24 -10 40 -14 17 -4 44 -14 60 -21 17 -7 64 -24 105 -38 113 -38 171 -60 252 -96 26 -12 52 -21 58 -21 6 0 18 -4 28 -9 9 -5 28 -13 42 -18 14 -6 37 -15 53 -22 15 -6 37 -15 50 -20 12 -4 33 -13 47 -19 14 -7 88 -38 165 -71 205 -86 390 -173 660 -309 256 -129 392 -202 548 -291 74 -42 108 -61 145 -82 20 -12 49 -30 64 -40 14 -11 28 -19 31 -19 3 0 43 -23 89 -52 46 -28 112 -69 148 -91 36 -22 104 -66 152 -99 48 -32 91 -58 95 -58 4 0 19 -9 33 -21 14 -11 72 -52 130 -91 117 -79 182 -125 380 -271 616 -455 1177 -954 1700 -1513 159 -171 441 -491 520 -590 8 -11 41 -51 72 -89 220 -267 538 -699 703 -953 6 -8 41 -62 78 -120 72 -110 158 -246 187 -297 10 -16 36 -61 60 -99 40 -65 53 -88 101 -173 12 -21 24 -42 29 -48 4 -5 23 -40 44 -77 20 -38 52 -98 72 -135 21 -38 40 -73 45 -78 9 -13 309 -612 309 -618 0 -3 22 -53 50 -112 27 -59 50 -108 50 -111 0 -2 14 -33 30 -69 17 -36 30 -68 30 -70 0 -2 13 -33 28 -67 16 -35 52 -124 81 -198 29 -74 58 -146 63 -160 6 -14 15 -35 19 -47 5 -13 13 -33 18 -45 5 -13 14 -39 21 -58 7 -19 16 -44 20 -55 4 -11 13 -36 20 -55 7 -19 16 -44 20 -55 12 -29 124 -367 150 -455 13 -41 31 -102 41 -134 11 -33 19 -65 19 -73 0 -7 4 -21 9 -31 5 -9 14 -35 20 -57 6 -22 20 -74 31 -115 23 -85 36 -132 50 -190 6 -22 15 -58 20 -80 6 -22 14 -57 19 -77 5 -21 14 -56 20 -78 5 -22 15 -65 21 -95 7 -30 16 -71 20 -90 5 -19 13 -55 19 -80 13 -61 26 -130 62 -320 27 -145 44 -246 59 -355 6 -44 13 -89 16 -100 6 -26 42 -305 54 -415 24 -215 31 -298 45 -489 71 -985 29 -1950 -126 -2906 -6 -33 -14 -87 -19 -120 -12 -76 -55 -303 -81 -422 -5 -24 -13 -62 -18 -85 -21 -101 -38 -175 -62 -270 -5 -24 -14 -61 -19 -83 -5 -22 -14 -58 -20 -80 -6 -22 -16 -58 -21 -80 -22 -91 -26 -105 -59 -220 -5 -19 -14 -51 -20 -70 -5 -19 -14 -50 -19 -67 -14 -48 -30 -103 -40 -140 -5 -18 -15 -51 -24 -73 -8 -22 -20 -60 -27 -85 -18 -61 -75 -236 -95 -291 -9 -24 -26 -69 -37 -99 -11 -30 -24 -64 -28 -75 -5 -11 -16 -40 -24 -65 -13 -41 -72 -198 -98 -260 -6 -14 -15 -35 -19 -47 -17 -45 -27 -69 -48 -115 -12 -26 -21 -50 -21 -53 0 -3 -10 -27 -21 -53 -12 -26 -27 -60 -34 -77 -7 -16 -23 -52 -35 -80 -12 -27 -31 -70 -42 -95 -105 -238 -338 -703 -460 -920 -23 -42 -36 -63 -88 -155 -11 -19 -29 -51 -40 -70 -45 -78 -61 -105 -137 -230 -152 -250 -395 -617 -533 -805 -463 -631 -774 -994 -1315 -1536 -285 -286 -500 -487 -680 -639 -33 -27 -78 -66 -100 -85 -141 -125 -525 -424 -780 -608 -27 -19 -72 -52 -100 -72 -49 -36 -390 -263 -494 -329 -88 -55 -214 -132 -251 -154 -19 -10 -46 -27 -60 -36 -31 -21 -269 -157 -407 -232 -29 -16 -79 -43 -110 -60 -71 -39 -432 -219 -530 -265 -198 -92 -223 -104 -228 -104 -2 0 -32 -13 -67 -29 -104 -48 -158 -71 -163 -71 -2 0 -34 -14 -70 -30 -36 -17 -69 -30 -73 -30 -5 0 -27 -9 -50 -20 -22 -11 -45 -20 -50 -20 -4 0 -27 -9 -50 -20 -22 -11 -46 -20 -52 -20 -5 0 -18 -4 -28 -9 -23 -12 -56 -25 -127 -51 -33 -12 -69 -26 -80 -30 -108 -45 -677 -230 -707 -230 -9 0 -19 -4 -22 -9 -3 -5 -18 -11 -33 -14 -16 -3 -44 -10 -63 -15 -19 -6 -71 -20 -115 -32 -44 -12 -96 -26 -115 -31 -19 -6 -51 -14 -70 -19 -19 -5 -53 -14 -75 -19 -22 -6 -58 -15 -80 -21 -22 -5 -58 -14 -80 -19 -39 -11 -96 -24 -182 -42 -24 -5 -62 -13 -85 -18 -236 -51 -438 -90 -578 -111 -41 -6 -93 -15 -115 -20 -22 -5 -80 -14 -130 -20 -49 -6 -117 -15 -150 -20 -153 -24 -529 -62 -785 -80 -862 -60 -1721 -31 -2618 90 -45 6 -87 8 -92 5 -6 -4 -10 -74 -10 -163 0 -296 -44 -769 -100 -1087 -6 -33 -13 -81 -16 -106 -7 -54 -24 -47 176 -73 675 -90 1474 -129 2158 -107 500 16 807 38 1277 91 291 33 656 89 910 140 28 5 75 14 105 20 30 6 78 15 105 21 28 5 70 14 95 19 25 5 65 14 90 19 25 5 59 13 75 16 17 3 46 10 65 15 19 5 58 14 85 20 59 13 103 24 165 40 25 6 62 16 83 21 111 27 190 48 227 59 14 4 45 13 70 20 25 7 56 16 70 20 14 4 45 13 70 20 25 7 70 20 100 30 30 10 75 23 100 30 73 21 173 52 195 61 11 4 38 13 60 19 22 6 49 15 60 20 11 5 38 14 60 20 22 6 49 15 60 20 11 4 36 13 55 20 19 7 44 16 55 20 11 5 49 18 85 30 36 12 74 25 85 30 11 4 36 13 55 20 40 14 64 23 103 39 48 20 70 28 207 82 74 29 163 65 198 81 34 15 67 28 72 28 5 0 24 8 42 18 18 10 49 24 68 32 32 12 74 31 215 95 28 13 71 32 97 44 26 12 143 68 260 125 232 114 407 205 631 330 26 14 66 37 90 50 92 51 122 68 132 76 6 4 27 17 47 29 99 55 115 65 140 82 14 11 29 19 32 19 4 0 30 15 59 34 28 18 115 73 192 122 185 116 555 365 675 455 19 14 116 86 215 159 99 73 182 136 185 139 3 3 25 22 50 41 25 19 52 40 60 47 8 6 53 42 100 80 47 37 94 74 104 83 80 64 411 352 546 474 210 190 721 702 911 911 136 150 421 478 464 536 21 27 214 269 244 304 9 11 65 85 125 165 149 199 146 196 183 248 18 26 57 80 86 121 28 40 63 91 77 112 14 21 53 78 86 126 64 92 252 383 286 443 11 19 33 54 49 77 16 23 29 44 29 48 0 4 14 26 30 50 17 24 30 46 30 49 0 3 26 50 58 103 32 54 72 123 89 153 16 30 41 75 55 100 94 166 137 250 282 540 147 295 188 382 249 520 11 25 28 65 39 90 11 25 26 59 33 75 7 17 22 51 34 77 11 26 21 50 21 53 0 3 9 27 21 53 12 26 24 56 29 67 4 11 13 34 20 50 7 17 17 40 21 53 5 12 14 33 19 47 6 14 15 36 20 50 6 14 14 35 19 48 5 12 19 49 31 82 22 61 32 86 49 128 6 12 24 65 41 117 17 52 35 104 40 115 5 11 23 63 40 115 17 52 35 104 39 115 5 11 19 54 31 95 13 41 31 100 40 130 10 30 23 75 30 100 27 94 33 116 41 135 8 21 14 45 29 105 5 19 13 51 19 70 5 19 19 71 31 115 12 44 26 96 31 115 6 19 15 55 21 80 16 73 28 123 38 160 24 91 78 341 100 455 5 28 14 73 20 100 5 28 15 75 20 105 5 30 14 80 20 110 40 214 81 495 130 900 111 927 111 2184 0 3095 -47 380 -67 532 -90 660 -5 33 -14 87 -20 120 -12 77 -27 167 -40 230 -5 28 -14 77 -20 110 -17 88 -26 134 -40 195 -7 30 -16 74 -21 98 -22 102 -52 233 -79 342 -5 22 -14 58 -20 80 -5 22 -14 57 -19 78 -5 20 -15 55 -21 77 -6 22 -15 56 -20 75 -5 19 -13 51 -18 70 -6 19 -17 62 -26 95 -9 33 -20 71 -25 85 -5 14 -14 45 -21 70 -30 104 -222 695 -239 735 -5 11 -14 36 -21 55 -7 19 -16 44 -20 55 -4 11 -18 47 -30 80 -12 33 -26 69 -30 80 -5 11 -41 103 -81 205 -40 102 -85 213 -101 248 -15 34 -28 65 -28 67 0 2 -11 29 -25 60 -14 30 -36 80 -50 110 -14 31 -25 57 -25 59 0 2 -22 50 -49 107 -125 265 -140 302 -134 313 4 6 19 20 32 31 23 18 167 137 231 191 196 166 511 471 660 639 239 271 389 508 451 715 18 59 18 251 0 310 -45 153 -111 257 -212 339 -73 59 -143 96 -284 151 -215 83 -277 114 -329 165 -90 88 -97 167 -27 302 97 187 338 436 866 898 200 175 355 329 376 375 30 64 37 85 48 130 5 25 16 70 23 100 17 74 17 439 0 545 -37 232 -87 432 -122 497 -6 10 -10 23 -10 29 0 20 -82 182 -121 240 -21 32 -73 95 -116 141 -92 99 -159 221 -193 348 -6 25 -15 59 -20 75 -36 129 -52 393 -39 625 6 96 12 177 15 179 3 4 70 -18 124 -41 14 -6 34 -14 45 -18 11 -5 36 -15 55 -23 36 -16 122 -47 200 -73 25 -8 55 -19 68 -25 12 -5 32 -13 45 -18 22 -9 187 -61 262 -82 22 -7 60 -19 85 -27 44 -14 61 -19 165 -42 28 -7 68 -16 90 -21 284 -68 560 -84 750 -44 54 11 150 64 187 102 53 56 75 101 88 186 32 214 -75 438 -304 636 -139 120 -458 301 -671 380 -82 31 -96 37 -125 49 -14 6 -43 16 -65 22 -22 6 -49 15 -60 20 -11 5 -38 14 -60 20 -22 6 -49 15 -60 20 -11 4 -40 13 -65 20 -25 7 -56 16 -70 20 -25 8 -71 20 -145 38 -22 6 -59 15 -82 21 -170 43 -289 69 -463 101 -25 5 -70 13 -100 19 -30 5 -89 15 -130 21 -41 6 -84 14 -95 16 -11 3 -51 9 -90 14 -38 5 -101 14 -140 19 -167 25 -496 60 -765 81 -502 41 -1388 62 -1690 41 -192 -13 -486 -52 -610 -81 -25 -5 -65 -14 -90 -19 -39 -8 -120 -29 -235 -61 -50 -14 -139 -42 -160 -51 -11 -4 -40 -15 -65 -23 -53 -17 -123 -43 -165 -61 -16 -8 -52 -22 -80 -33 -120 -48 -287 -132 -457 -230 -21 -12 -55 -32 -75 -43 -44 -25 -306 -199 -313 -208 -3 -4 -41 -33 -85 -66 -265 -197 -622 -551 -841 -833 -110 -142 -294 -403 -294 -417 0 -4 -13 -25 -29 -48 -44 -65 -76 -121 -143 -255 -33 -67 -64 -125 -68 -127 -4 -2 -27 8 -51 24 -25 15 -96 56 -159 91 -63 35 -131 72 -150 83 -148 84 -767 397 -784 397 -2 0 -53 23 -112 51 -106 49 -136 63 -209 94 -19 8 -51 22 -70 30 -19 8 -51 22 -70 30 -19 8 -50 21 -67 29 -18 8 -98 40 -178 71 -80 31 -156 62 -170 67 -35 15 -59 24 -100 38 -19 7 -44 16 -55 20 -11 4 -47 18 -80 30 -33 12 -68 26 -77 31 -10 5 -24 9 -32 9 -11 0 -65 19 -141 50 -11 5 -38 14 -60 20 -22 6 -49 15 -60 20 -11 5 -67 23 -125 40 -58 18 -130 40 -160 50 -30 9 -89 27 -130 40 -41 12 -86 26 -100 30 -14 4 -43 12 -65 18 -22 6 -65 18 -95 27 -30 10 -72 21 -92 26 -64 15 -111 27 -153 39 -47 13 -103 27 -160 40 -22 5 -60 14 -85 20 -25 6 -63 15 -85 20 -22 5 -83 18 -135 30 -106 24 -162 36 -235 50 -27 5 -72 14 -100 20 -87 18 -215 40 -455 80 -145 24 -427 63 -580 81 -622 70 -886 83 -1625 83 -687 0 -970 -13 -1430 -64 -49 -6 -133 -15 -185 -20 -52 -6 -126 -15 -165 -20 -38 -6 -104 -15 -145 -20 -100 -13 -192 -27 -265 -40 -33 -5 -87 -14 -120 -20 -123 -19 -259 -43 -340 -60 -27 -6 -72 -15 -100 -20 -73 -14 -129 -26 -235 -50 -52 -12 -113 -25 -135 -30 -22 -5 -58 -13 -80 -19 -63 -16 -117 -28 -155 -36 -19 -4 -44 -10 -55 -15 -11 -5 -33 -11 -50 -15 -36 -7 -87 -20 -135 -34 -19 -5 -71 -19 -115 -31 -132 -35 -138 -37 -185 -52 -25 -8 -65 -21 -90 -28 -189 -54 -697 -225 -835 -280 -11 -4 -36 -13 -55 -20 -40 -14 -64 -23 -102 -39 -51 -20 -72 -29 -168 -66 -52 -20 -111 -44 -130 -52 -19 -8 -44 -19 -55 -23 -22 -9 -53 -22 -197 -84 -183 -78 -377 -170 -648 -304 -107 -53 -224 -112 -260 -131 -119 -61 -464 -254 -508 -283 -23 -16 -46 -27 -51 -24 -4 3 -36 61 -69 128 -67 134 -99 190 -143 255 -16 23 -29 44 -29 48 0 13 -192 286 -296 420 -215 277 -575 633 -841 831 -43 32 -80 61 -83 65 -7 9 -269 183 -313 208 -20 11 -53 30 -72 41 -170 97 -232 130 -355 185 -186 83 -247 108 -350 141 -25 8 -54 19 -65 24 -41 18 -305 93 -395 111 -25 5 -65 13 -90 19 -90 20 -244 45 -420 67 -91 11 -242 16 -560 18 -239 1 -473 1 -520 -1z" fill="#192f54" id="192f54-000001"/>
    <path stroke="none" d="M18020 28763 c-100 -17 -190 -98 -227 -203 -18 -51 -18 -10199 0 -10250 28 -80 84 -144 150 -174 80 -36 91 -36 966 -36 744 0 873 2 916 15 95 29 153 83 194 178 l21 49 0 5095 0 5095 -30 64 c-33 67 -75 109 -150 146 l-45 23 -885 1 c-487 1 -896 0 -910 -3z" fill="#192f54" id="192f54-000002"/>
    <path stroke="none" d="M12805 26156 c-85 -39 -138 -95 -168 -178 -9 -24 -13 -268 -17 -903 l-5 -870 -230 -5 c-193 -4 -236 -8 -270 -23 -53 -24 -101 -71 -133 -132 l-27 -50 0 -760 0 -760 23 -48 c27 -57 83 -116 137 -142 35 -18 68 -21 270 -25 l230 -5 6 -1230 c5 -1208 8 -1298 39 -1500 9 -57 41 -211 60 -285 70 -280 231 -588 404 -777 71 -77 225 -205 297 -247 76 -45 211 -112 274 -135 33 -13 69 -27 80 -31 24 -10 132 -38 195 -51 284 -57 585 -61 950 -13 102 13 210 28 240 34 30 5 82 14 115 19 33 6 83 16 110 21 28 6 73 15 100 21 28 5 70 14 95 20 25 5 64 14 88 20 23 5 61 13 85 18 65 15 115 27 202 51 44 12 91 24 105 27 14 2 34 8 45 13 11 4 38 13 60 18 153 42 188 56 236 100 68 61 99 131 99 222 0 62 -6 92 -42 220 -5 19 -14 52 -19 73 -5 20 -13 54 -18 75 -5 20 -15 55 -21 77 -6 22 -15 56 -20 75 -5 19 -14 53 -20 75 -6 22 -15 56 -20 75 -5 19 -14 53 -20 75 -6 22 -16 57 -21 78 -5 20 -13 54 -18 75 -5 20 -14 53 -20 72 -20 69 -32 116 -42 153 -5 20 -13 54 -18 75 -5 20 -15 55 -21 77 -6 22 -15 55 -20 72 -12 50 -68 130 -106 154 -19 11 -61 27 -94 35 -60 14 -116 8 -255 -25 -145 -36 -232 -54 -315 -66 -269 -41 -456 11 -525 145 -44 84 -45 121 -45 1136 l0 964 593 0 c444 0 601 3 627 13 96 34 155 97 189 206 8 23 11 264 11 750 0 776 0 769 -55 853 -23 34 -83 82 -130 104 -11 5 -291 11 -625 14 l-605 5 -5 880 c-3 484 -9 891 -14 905 -15 41 -62 105 -98 132 -80 61 -29 58 -982 57 l-871 0 -50 -23z" fill="#192f54" id="192f54-000003"/>
    <path stroke="none" d="M24875 24344 c-16 -2 -68 -9 -115 -15 -105 -13 -254 -43 -340 -68 -19 -5 -51 -14 -70 -19 -40 -11 -125 -39 -155 -51 -140 -57 -195 -82 -280 -124 -55 -28 -119 -63 -142 -79 -23 -15 -44 -28 -48 -28 -9 0 -168 -110 -255 -177 -41 -31 -144 -126 -229 -210 -84 -84 -157 -151 -161 -148 -7 5 -17 30 -70 180 -34 97 -67 188 -80 220 -5 11 -20 52 -35 90 -54 142 -138 239 -236 273 -25 9 -148 12 -440 12 -377 0 -408 -1 -459 -20 -74 -26 -150 -106 -173 -181 -16 -50 -17 -385 -15 -5154 l3 -5100 25 -44 c31 -55 101 -118 159 -142 42 -19 80 -19 960 -17 882 3 917 4 955 22 57 29 122 94 148 151 l23 50 3 2229 2 2228 23 -5 c12 -3 63 -22 112 -42 118 -49 121 -50 185 -70 84 -26 148 -43 245 -65 28 -7 68 -16 90 -21 38 -9 99 -19 225 -39 254 -40 611 -36 910 11 114 17 184 30 220 39 19 5 64 16 100 25 36 9 81 21 100 27 19 5 47 12 63 15 15 3 30 9 33 14 3 5 15 9 28 9 12 0 26 4 32 8 5 5 29 15 54 22 164 49 582 273 716 383 10 9 57 46 104 84 365 291 692 771 846 1243 14 41 29 84 33 95 10 24 44 148 61 225 7 30 16 66 20 80 5 14 13 61 20 105 6 44 15 98 20 120 23 103 50 450 50 645 0 202 -21 462 -51 620 -25 134 -48 242 -59 280 -4 14 -18 59 -30 100 -12 41 -26 84 -31 95 -4 11 -13 38 -20 60 -13 45 -27 82 -40 107 -5 10 -9 22 -9 28 0 23 -148 331 -201 418 -21 35 -39 66 -39 69 0 2 -36 57 -79 121 -269 395 -588 696 -996 938 -55 33 -260 135 -315 157 -25 10 -54 22 -65 27 -11 4 -36 13 -55 20 -19 7 -44 16 -55 20 -98 39 -324 98 -455 119 -36 6 -94 16 -130 22 -63 11 -573 21 -635 13z" fill="#192f54" id="192f54-000004"/>
    <path stroke="none" d="M25001 22365 c164 -26 255 -55 399 -132 129 -67 155 -87 285 -218 188 -188 297 -402 345 -679 15 -90 12 -319 -6 -411 -9 -44 -18 -95 -21 -113 -3 -18 -9 -35 -14 -38 -5 -3 -9 -15 -9 -27 0 -32 -90 -213 -149 -301 -87 -128 -231 -266 -356 -339 -38 -21 -173 -88 -200 -97 -11 -4 -31 -12 -45 -18 -66 -26 -189 -51 -307 -61 -186 -15 -377 10 -543 72 -141 52 -298 149 -413 256 -129 120 -269 357 -315 536 -6 22 -15 58 -21 80 -5 22 -15 91 -22 153 -29 279 53 599 213 835 50 73 189 220 261 276 96 72 256 156 352 182 17 4 48 13 70 19 137 39 342 49 496 25z" fill="#ffffff" id="ffffff-000002"/>
    <path stroke="none" d="M11333 15509 c-7 -7 -13 -28 -13 -47 0 -18 -4 -52 -9 -75 -5 -23 -14 -85 -21 -137 -6 -52 -16 -120 -21 -150 -10 -58 -36 -249 -50 -365 -5 -38 -13 -99 -19 -135 -6 -36 -15 -101 -20 -145 -5 -44 -15 -111 -21 -150 -7 -38 -13 -90 -13 -114 l-1 -45 85 -13 c47 -6 123 -17 170 -23 47 -6 112 -15 145 -20 33 -5 98 -14 145 -20 47 -6 110 -15 140 -20 30 -5 93 -14 140 -20 47 -6 112 -15 145 -20 124 -18 136 -19 141 -7 4 13 32 190 41 269 l5 46 -53 10 c-30 6 -92 16 -139 22 -47 6 -119 16 -160 21 -115 16 -210 30 -263 40 -26 5 -61 9 -76 9 -37 0 -41 13 -30 99 8 69 22 111 37 111 4 0 68 -9 142 -20 74 -11 168 -25 208 -30 39 -6 107 -15 150 -21 42 -7 91 -12 107 -13 l30 -1 19 143 c14 108 16 146 8 154 -7 7 -40 15 -74 20 -35 4 -94 12 -133 18 -38 6 -101 15 -140 19 -190 23 -261 34 -274 44 -10 9 -12 29 -6 92 8 94 17 109 59 100 17 -3 96 -15 176 -26 80 -11 172 -24 205 -28 167 -25 243 -34 269 -35 l30 -1 13 90 c7 50 18 116 24 149 14 77 1 91 -84 99 -34 4 -93 11 -132 17 -38 6 -101 15 -140 20 -38 5 -103 14 -142 20 -40 5 -103 14 -140 20 -38 5 -102 14 -143 20 -41 6 -106 15 -145 20 -38 4 -90 11 -115 15 -31 5 -49 3 -57 -6z" fill="#ef8c42" id="ef8c42-000001"/>
    <path stroke="none" d="M10030 15424 c-14 -3 -59 -12 -100 -20 -41 -9 -97 -19 -125 -24 -27 -5 -99 -18 -160 -29 -60 -11 -142 -26 -182 -32 -103 -16 -110 -23 -94 -95 32 -154 45 -220 71 -369 22 -126 39 -217 46 -250 3 -11 9 -47 14 -80 5 -33 14 -80 20 -105 6 -25 15 -72 20 -105 6 -33 14 -80 19 -105 13 -70 33 -181 40 -225 5 -36 9 -40 38 -43 17 -2 67 5 110 14 43 9 103 20 133 23 72 9 116 31 112 56 -5 28 -20 110 -32 170 -16 79 -30 168 -30 191 0 18 8 22 43 27 23 4 55 9 70 13 27 6 41 -6 205 -170 l177 -177 65 6 c36 3 76 10 90 14 14 5 57 14 95 20 132 22 185 35 185 46 0 5 -85 96 -190 200 -104 104 -190 195 -190 201 0 7 26 38 58 71 53 54 82 100 113 183 8 21 13 73 12 135 -1 81 -6 113 -27 169 -52 139 -109 201 -233 258 -64 29 -76 31 -208 34 -77 1 -151 0 -165 -2z" fill="#ef8c42" id="ef8c42-000002"/>
    <path stroke="none" d="M10200 15065 c37 -19 80 -92 80 -136 0 -19 -10 -50 -21 -69 -42 -68 -67 -81 -224 -110 -33 -7 -79 -16 -102 -21 -23 -5 -48 -6 -56 -3 -8 3 -20 31 -26 67 -7 34 -16 80 -22 102 -5 22 -10 62 -11 89 -3 56 -3 56 122 77 36 6 83 15 105 19 51 11 117 4 155 -15z" fill="#ffffff" id="ffffff-000003"/>
    <path stroke="none" d="M13229 15001 c-148 -31 -273 -158 -315 -318 -18 -68 -18 -106 0 -164 35 -116 101 -197 286 -354 175 -148 208 -201 160 -253 -31 -32 -60 -35 -122 -12 -123 46 -254 160 -328 285 -20 33 -43 61 -52 63 -9 2 -38 -7 -65 -19 -26 -11 -67 -30 -90 -40 -118 -52 -134 -61 -139 -74 -11 -27 76 -169 160 -262 94 -105 276 -221 421 -271 207 -71 405 -36 522 91 42 47 61 77 106 175 6 13 11 63 11 110 -1 78 -4 94 -32 147 -48 92 -119 172 -233 265 -188 154 -221 197 -199 254 42 110 263 -2 398 -201 41 -61 58 -72 78 -54 5 4 54 32 109 61 147 78 148 79 141 112 -12 59 -111 186 -204 260 -168 134 -317 197 -482 203 -52 2 -111 1 -131 -4z" fill="#ef8c42" id="ef8c42-000003"/>
    <path stroke="none" d="M7765 14403 c-59 -4 -177 -24 -200 -33 -11 -4 -43 -17 -72 -28 -130 -51 -337 -222 -392 -324 -96 -181 -106 -218 -105 -398 0 -186 27 -272 129 -415 121 -170 284 -267 498 -297 127 -17 240 3 392 70 131 57 279 185 362 313 49 77 123 230 123 255 0 9 5 34 11 54 14 47 19 39 -186 285 -82 99 -160 192 -171 208 -12 15 -26 27 -31 27 -8 0 -138 -101 -247 -193 -83 -70 -132 -110 -185 -152 -27 -22 -50 -47 -51 -56 0 -23 154 -219 173 -219 5 0 52 36 104 79 53 44 100 77 107 75 6 -3 28 -28 50 -55 33 -43 37 -54 32 -85 -9 -45 -118 -162 -178 -191 -81 -38 -99 -43 -174 -43 -62 0 -86 5 -142 30 -76 35 -118 71 -172 150 -50 75 -64 121 -64 215 1 103 25 158 102 234 85 82 187 127 302 133 l45 3 0 179 c0 112 -4 180 -10 181 -5 1 -28 0 -50 -2z" fill="#ef8c42" id="ef8c42-000004"/>
    <path stroke="none" d="M14650 13960 c-19 -5 -48 -12 -65 -15 -16 -4 -49 -15 -72 -26 -24 -10 -47 -19 -51 -19 -18 0 -129 -78 -185 -130 -67 -62 -124 -141 -166 -232 -50 -109 -56 -143 -56 -298 0 -152 11 -201 68 -315 95 -192 291 -347 497 -395 59 -14 241 -17 279 -5 25 8 25 13 0 160 -4 28 -13 79 -19 113 -5 35 -12 68 -16 73 -3 5 -34 9 -69 9 -89 0 -150 18 -217 62 -97 65 -143 151 -143 268 1 63 6 85 33 141 39 81 128 169 209 207 80 37 206 38 273 3 120 -62 184 -176 193 -341 l2 -45 45 -7 c70 -10 241 -30 280 -32 l35 -1 0 130 c-1 116 -4 138 -28 205 -58 158 -193 316 -347 406 -41 24 -82 44 -91 44 -9 0 -19 3 -23 7 -28 28 -292 52 -366 33z" fill="#ef8c42" id="ef8c42-000005"/>
    <path stroke="none" d="M6340 12865 c-312 -60 -535 -285 -609 -617 -26 -113 -6 -306 43 -428 117 -287 456 -478 756 -426 148 25 203 46 300 111 153 103 275 272 318 440 6 22 15 59 21 81 18 68 13 206 -10 301 -33 133 -87 231 -183 327 -123 125 -235 184 -401 212 -95 16 -148 16 -235 -1z" fill="#ef8c42" id="ef8c42-000006"/>
    <path stroke="none" d="M6547 12461 c73 -27 113 -53 166 -110 74 -79 91 -121 92 -227 0 -83 -3 -96 -32 -155 -40 -79 -79 -118 -159 -158 -189 -95 -457 31 -519 244 -19 67 -19 103 0 170 30 103 136 218 223 242 63 18 172 15 229 -6z" fill="#ffffff" id="ffffff-000004"/>
    <path stroke="none" d="M15990 12640 c-63 -32 -133 -66 -155 -75 -49 -22 -369 -176 -449 -217 -265 -133 -382 -348 -335 -612 16 -92 26 -122 79 -231 127 -261 298 -385 530 -385 117 0 204 24 370 103 47 22 123 57 169 79 237 111 469 226 474 235 4 6 -10 44 -29 84 -20 41 -56 116 -80 167 -48 102 -54 106 -121 73 -21 -10 -94 -46 -163 -79 -284 -135 -339 -161 -415 -198 -44 -21 -96 -44 -115 -51 -47 -17 -139 -16 -182 2 -75 31 -148 153 -148 246 0 111 62 172 279 277 86 41 221 106 301 144 80 38 175 83 213 100 58 27 67 35 67 57 -1 30 -150 335 -165 337 -5 1 -62 -24 -125 -56z" fill="#ef8c42" id="ef8c42-000007"/>
    <path stroke="none" d="M9515 12442 c-6 -4 -30 -32 -54 -62 -25 -30 -56 -66 -70 -79 -14 -13 -45 -42 -67 -63 -38 -36 -48 -40 -120 -49 -157 -20 -359 -119 -521 -256 -55 -46 -70 -71 -99 -162 -26 -80 -49 -91 -201 -91 -172 0 -284 -31 -314 -88 -20 -37 -16 -336 5 -415 31 -118 91 -176 207 -201 14 -3 55 -27 92 -54 85 -63 145 -88 265 -112 53 -10 120 -24 147 -31 100 -23 122 -27 205 -43 157 -31 190 -39 218 -56 32 -20 69 -91 105 -200 41 -125 41 -124 3 -375 -49 -322 -57 -390 -65 -504 -8 -125 1 -306 18 -371 5 -19 15 -53 21 -75 14 -47 9 -143 -16 -342 -15 -118 -16 -151 -6 -188 6 -24 16 -156 22 -292 6 -137 15 -339 20 -450 8 -170 7 -212 -5 -260 -15 -57 -52 -137 -80 -170 -37 -46 -154 -191 -187 -233 -27 -32 -40 -60 -44 -93 -6 -43 -4 -49 23 -74 38 -36 132 -58 238 -57 172 2 299 84 364 237 30 70 41 172 41 384 0 203 15 337 60 533 28 124 49 295 64 526 12 171 21 228 41 252 5 5 92 -36 107 -51 37 -35 100 -77 163 -107 90 -43 133 -58 220 -75 17 -3 48 -10 70 -16 22 -5 56 -12 75 -15 117 -18 189 -59 221 -126 33 -65 87 -231 104 -318 4 -19 11 -53 16 -75 5 -22 14 -67 19 -100 4 -33 15 -96 23 -140 69 -381 68 -728 -3 -945 -28 -86 -40 -165 -30 -196 17 -51 48 -58 223 -51 154 6 248 24 275 51 24 24 25 104 2 401 -11 154 -23 316 -27 360 -5 69 -3 86 16 126 12 25 41 64 65 86 61 56 96 144 96 240 0 40 19 110 44 165 8 18 33 74 56 123 72 154 96 218 110 286 14 71 9 111 -29 214 -33 91 -41 121 -41 157 0 41 9 51 65 68 140 44 179 71 291 198 40 46 93 99 116 118 70 54 218 82 277 51 28 -14 43 -56 61 -167 14 -94 29 -182 40 -240 5 -25 16 -91 26 -147 10 -57 22 -109 26 -115 6 -10 17 -3 41 24 31 34 44 56 66 111 13 30 31 144 31 194 0 57 11 103 23 103 17 0 153 -96 241 -169 189 -159 385 -422 587 -786 15 -27 44 -79 64 -115 30 -54 101 -198 135 -275 5 -11 19 -51 30 -90 11 -38 25 -83 30 -99 5 -16 14 -74 21 -130 15 -139 17 -144 45 -173 25 -25 29 -25 102 -19 43 3 102 11 132 17 30 5 69 12 86 15 17 3 44 16 60 29 28 22 29 26 29 107 0 76 -3 88 -26 119 -35 46 -139 200 -139 206 0 2 -12 23 -27 46 -16 23 -38 62 -50 87 -12 25 -51 106 -87 180 -72 149 -98 196 -159 283 -83 117 -93 135 -116 208 -13 41 -27 83 -32 94 -4 11 -17 49 -29 85 -12 36 -25 74 -30 85 -5 11 -14 38 -21 60 -6 22 -24 74 -40 115 -15 41 -33 93 -39 115 -6 22 -15 49 -20 60 -5 11 -19 49 -30 85 -12 36 -26 74 -30 85 -12 30 -25 69 -60 185 -17 58 -35 114 -40 125 -4 11 -18 47 -30 80 -32 89 -118 262 -163 330 -63 93 -108 146 -306 352 -212 222 -305 292 -426 324 -81 21 -156 38 -210 49 -33 6 -78 15 -100 20 -22 5 -112 14 -200 20 -135 10 -184 10 -315 -4 -85 -8 -175 -20 -200 -26 -131 -32 -289 -36 -357 -9 -122 49 -184 96 -279 211 -42 51 -86 104 -98 118 -19 22 -105 126 -220 265 -49 59 -109 128 -117 135 -3 3 -28 39 -55 80 -75 113 -88 157 -103 352 -6 76 -15 145 -20 155 -5 10 -19 43 -31 75 -32 84 -99 169 -170 217 -34 22 -72 41 -84 41 -26 0 -86 -36 -86 -51 0 -16 -48 -79 -60 -79 -5 0 -24 30 -42 67 -33 67 -45 79 -63 65z" fill="#ef8c42" id="ef8c42-000008"/>
    <path stroke="none" d="M5705 10984 c-41 -6 -105 -23 -135 -36 -14 -6 -36 -16 -50 -22 -133 -58 -279 -223 -328 -371 -7 -22 -17 -49 -21 -60 -24 -57 -36 -120 -81 -450 -7 -44 -16 -102 -21 -128 -5 -26 -9 -70 -9 -97 0 -57 -11 -52 145 -70 55 -6 120 -15 145 -20 25 -5 86 -13 135 -19 50 -7 115 -16 145 -21 30 -5 93 -14 140 -20 47 -6 110 -15 140 -20 30 -5 93 -14 140 -20 47 -6 110 -15 140 -20 237 -40 234 -40 245 35 3 22 10 67 15 100 14 87 40 267 52 365 12 100 5 320 -13 370 -38 109 -47 130 -91 202 -83 140 -220 237 -398 285 -55 14 -238 25 -295 17z" fill="#ef8c42" id="ef8c42-000009"/>
    <path stroke="none" d="M5968 10555 c165 -79 218 -215 180 -459 l-13 -78 -65 6 c-36 3 -92 10 -125 16 -33 6 -94 15 -135 20 -137 16 -339 48 -349 55 -23 13 12 194 56 294 34 77 139 159 223 175 56 10 179 -5 228 -29z" fill="#ffffff" id="ffffff-000005"/>
    <path stroke="none" d="M16740 10739 c-41 -4 -118 -12 -170 -19 -52 -6 -135 -15 -185 -20 -49 -5 -130 -14 -180 -20 -49 -6 -130 -15 -180 -20 -49 -5 -146 -16 -215 -24 -69 -8 -160 -17 -202 -21 -47 -4 -81 -12 -89 -21 -11 -14 -11 -21 21 -319 24 -222 41 -377 50 -445 5 -41 14 -129 21 -195 6 -66 14 -127 19 -135 9 -17 13 -17 185 -1 72 7 134 16 139 21 8 8 2 85 -24 295 -5 39 -14 120 -20 180 -6 61 -16 139 -21 174 -8 50 -7 67 3 77 16 15 183 29 192 16 6 -9 12 -61 41 -322 25 -230 36 -310 46 -315 11 -7 211 13 262 26 l37 10 -5 57 c-3 31 -10 91 -15 132 -6 41 -14 120 -20 175 -6 55 -15 137 -21 183 -14 101 -7 112 62 112 26 0 59 5 73 11 42 19 53 0 65 -114 7 -56 16 -138 21 -182 21 -178 29 -253 36 -324 8 -90 26 -114 76 -101 18 5 83 14 143 20 61 6 113 14 116 18 4 4 3 41 -2 82 -5 41 -13 118 -18 170 -6 52 -15 136 -21 185 -6 50 -15 131 -20 180 -33 320 -50 468 -55 476 -7 10 -35 10 -145 -2z" fill="#ef8c42" id="ef8c42-000010"/>
    <path stroke="none" d="M5870 8283 c-140 -27 -250 -109 -308 -230 -25 -53 -27 -68 -27 -173 1 -104 3 -120 28 -172 65 -137 209 -228 361 -228 108 0 197 35 279 110 75 68 117 154 124 254 15 194 -84 353 -258 417 -52 18 -157 30 -199 22z" fill="#ef8c42" id="ef8c42-000011"/>
    <path stroke="none" d="M15940 8283 c-158 -30 -279 -128 -325 -265 -24 -70 -24 -195 0 -265 78 -232 337 -337 565 -229 58 27 149 118 177 176 108 225 2 488 -227 563 -50 17 -152 27 -190 20z" fill="#ef8c42" id="ef8c42-000012"/>
    <path stroke="none" d="M6842 6402 c-265 -262 -483 -482 -482 -487 0 -20 475 -483 530 -517 140 -87 293 -138 415 -138 67 0 217 32 239 52 6 4 16 8 23 8 27 0 161 95 223 159 80 82 131 163 166 267 22 66 27 97 28 189 1 67 -4 127 -13 155 -36 119 -73 196 -144 299 -44 65 -467 491 -486 491 -9 -1 -233 -215 -499 -478z" fill="#ef8c42" id="ef8c42-000013"/>
    <path stroke="none" d="M7462 6272 c98 -103 132 -170 137 -275 2 -49 -1 -83 -8 -90 -6 -6 -11 -17 -11 -25 0 -26 -82 -133 -128 -167 -172 -126 -345 -87 -519 117 -24 27 -43 53 -43 57 0 5 46 53 102 107 57 54 161 156 233 226 71 70 137 128 146 128 9 0 50 -35 91 -78z" fill="#ffffff" id="ffffff-000006"/>
    <path stroke="none" d="M14654 6716 c-127 -43 -220 -97 -333 -195 -59 -51 -142 -149 -167 -196 -6 -11 -15 -29 -21 -40 -66 -125 -70 -279 -10 -405 29 -60 140 -171 201 -199 37 -17 67 -23 130 -23 127 -1 244 46 431 172 73 49 156 90 195 96 33 5 42 2 64 -19 31 -31 32 -48 7 -102 -29 -62 -151 -167 -245 -210 -48 -22 -157 -55 -181 -55 -12 0 -28 -6 -37 -12 -14 -12 -14 -28 0 -168 9 -85 21 -158 26 -163 13 -9 68 -1 166 25 266 69 528 297 622 539 25 67 30 212 9 279 -34 104 -130 213 -229 257 -67 30 -167 35 -247 14 -71 -20 -208 -86 -291 -142 -98 -66 -201 -119 -230 -119 -34 0 -74 42 -74 79 0 37 62 118 123 160 54 37 156 84 217 101 86 23 85 21 55 175 -30 156 -36 170 -76 172 -19 1 -66 -9 -105 -21z" fill="#ef8c42" id="ef8c42-000014"/>
    <path stroke="none" d="M13113 5596 c-78 -40 -149 -79 -158 -86 -13 -11 -16 -25 -11 -64 3 -28 13 -143 21 -256 8 -113 20 -257 25 -320 5 -63 14 -173 20 -245 38 -509 47 -616 55 -623 9 -9 337 162 350 182 6 9 4 56 -4 132 -10 97 -10 119 1 129 20 20 437 235 454 235 5 0 50 -36 99 -80 50 -44 97 -80 105 -80 18 0 342 161 352 175 4 6 8 13 8 16 0 8 -1104 929 -1134 946 -12 7 -25 12 -31 12 -5 0 -74 -33 -152 -73z" fill="#ef8c42" id="ef8c42-000015"/>
    <path stroke="none" d="M13356 5146 c3 -7 59 -60 125 -117 66 -57 118 -110 117 -118 -3 -16 -3 -16 -128 -81 -51 -28 -98 -46 -102 -42 -5 5 -13 53 -19 108 -5 54 -14 133 -19 174 -5 41 -6 78 -4 82 8 13 24 9 30 -6z" fill="#ffffff" id="ffffff-000007"/>
    <path stroke="none" d="M8803 5608 c-21 -18 -40 -35 -43 -38 -3 -3 -34 -30 -70 -60 -36 -30 -67 -57 -70 -60 -3 -3 -34 -30 -70 -60 -36 -30 -67 -57 -70 -60 -3 -3 -102 -89 -220 -190 -118 -101 -235 -202 -260 -224 -25 -23 -70 -61 -99 -86 -100 -83 -191 -164 -191 -171 0 -12 23 -25 175 -103 83 -42 162 -76 175 -76 17 1 52 26 110 80 47 44 92 79 100 79 8 0 114 -50 235 -112 l220 -112 -3 -135 -4 -135 177 -88 c140 -69 180 -85 191 -76 10 8 14 34 14 81 0 38 4 133 10 211 5 78 14 221 20 317 6 96 15 240 20 320 33 528 34 548 21 564 -14 16 -303 166 -321 166 -5 0 -26 -15 -47 -32z" fill="#ef8c42" id="ef8c42-000016"/>
    <path stroke="none" d="M8796 5058 c-3 -35 -9 -106 -12 -158 -7 -129 -10 -140 -37 -140 -27 0 -227 99 -227 113 0 5 23 30 52 56 120 107 183 166 191 178 4 7 15 13 24 13 13 0 15 -9 9 -62z" fill="#ffffff" id="ffffff-000008"/>
    <path stroke="none" d="M9933 5177 c-12 -18 -32 -117 -32 -163 -1 -22 -5 -65 -10 -95 -21 -118 -59 -387 -71 -504 -4 -38 -15 -119 -23 -180 -9 -60 -21 -146 -27 -190 -6 -44 -16 -110 -22 -147 -13 -80 -4 -98 50 -98 19 0 63 -4 96 -10 34 -5 131 -19 216 -30 85 -12 187 -25 225 -31 68 -9 135 -18 280 -38 189 -26 175 -30 186 54 30 231 31 246 20 259 -6 7 -41 16 -79 19 -37 4 -98 12 -137 17 -38 6 -101 15 -140 20 -130 16 -230 30 -257 36 -34 7 -35 21 -13 169 9 55 20 134 25 175 5 41 14 107 20 145 6 39 15 104 20 145 5 41 14 109 20 150 26 190 31 234 27 245 -3 6 -49 17 -103 24 -55 7 -121 16 -149 21 -27 5 -64 11 -82 14 -20 3 -35 1 -40 -7z" fill="#ef8c42" id="ef8c42-000017"/>
    <path stroke="none" d="M11540 5103 c-14 -2 -87 -13 -162 -25 l-138 -21 0 -38 c0 -20 4 -59 10 -86 5 -26 19 -111 30 -188 34 -234 41 -279 51 -316 5 -20 9 -51 9 -68 0 -18 9 -87 20 -154 22 -136 34 -214 50 -332 21 -157 38 -202 69 -189 9 3 43 10 76 15 33 4 89 13 125 19 36 6 94 15 130 20 69 9 122 17 400 60 41 7 104 16 140 21 127 16 130 17 130 55 0 35 -14 137 -32 237 -6 33 -17 61 -24 64 -7 2 -55 -3 -106 -12 -51 -9 -124 -20 -163 -25 -38 -5 -108 -16 -155 -24 -47 -8 -115 -17 -151 -21 l-67 -6 -10 48 c-6 26 -16 84 -22 128 -6 44 -15 103 -20 130 -5 28 -14 88 -20 135 -6 47 -15 105 -20 130 -5 25 -14 86 -20 135 -6 50 -16 110 -20 135 -5 25 -12 70 -16 100 -9 79 -17 85 -94 73z" fill="#ef8c42" id="ef8c42-000018"/>
  </g>
</svg>
