<svg xmlns="http://www.w3.org/2000/svg" version="1.0" width="392.000000pt" height="452.000000pt" viewBox="0 0 392.000000 452.000000" preserveAspectRatio="xMidYMid meet">
  <g transform="translate(0.000000,452.000000) scale(0.100000,-0.100000)" stroke="none">
    <path d="M 0 0 H 3920.0 V 4520.0 H 0 Z" fill="#ffffff" id="background"/>
    <path stroke="none" d="M136 4234 c-9 -23 -7 -3667 2 -3681 6 -10 89 -13 338 -15 l329 -3 5 -225 5 -225 138 -3 138 -3 117 57 c64 31 178 86 252 121 136 66 404 195 515 249 l60 29 900 5 900 5 0 1850 0 1850 -1846 3 c-1678 2 -1847 1 -1853 -14z" fill="#f54236" id="f54236-000001"/>
    <path stroke="none" d="M3600 3945 c0 -36 0 -735 0 -1555 0 -820 0 -1517 0 -1550 l0 -60 -805 0 -805 0 -193 -94 c-105 -51 -228 -110 -272 -131 -44 -21 -162 -77 -261 -126 -100 -49 -189 -89 -198 -89 -14 0 -16 26 -18 218 l-3 217 -332 3 -333 2 0 1608 c0 885 3 1612 7 1615 3 4 728 7 1610 7 l1603 0 0 -65z" fill="#ffffff" id="ffffff-000002"/>
    <path stroke="none" d="M774 3476 c-3 -7 -4 -40 -2 -72 l3 -59 75 -5 75 -5 3 -934 c1 -604 -1 -938 -8 -945 -5 -5 -32 -9 -60 -7 -85 4 -90 -1 -90 -74 0 -35 5 -67 10 -70 13 -8 1378 -10 1386 -2 3 3 8 29 11 59 8 83 -1 88 -153 88 -69 0 -124 4 -124 9 0 13 97 171 121 197 10 11 19 24 19 28 0 4 9 20 20 34 12 15 54 77 94 139 41 61 85 127 100 146 14 18 26 37 26 40 0 9 63 102 72 105 4 2 8 10 8 18 0 8 5 14 10 14 6 0 10 -2 10 -4 0 -5 -33 -85 -75 -180 -8 -19 -15 -39 -15 -46 0 -10 46 -83 127 -200 9 -14 37 -56 62 -94 138 -206 137 -205 99 -207 -13 -1 -72 -2 -133 -2 -109 -2 -109 -2 -119 -29 -6 -17 -6 -45 0 -75 l9 -47 483 0 c265 1 485 3 488 6 3 3 8 31 11 62 8 78 -1 86 -98 86 l-79 0 -98 149 c-53 81 -101 155 -107 163 -205 303 -415 622 -415 632 0 10 181 290 282 436 14 19 42 62 64 94 21 33 46 69 54 81 20 30 41 61 129 195 41 63 82 120 90 127 9 7 48 12 92 13 l77 0 6 31 c10 49 7 94 -6 107 -9 9 -131 12 -490 12 -476 0 -477 0 -489 -21 -7 -14 -9 -41 -4 -75 l6 -54 135 0 c109 0 134 -3 134 -14 0 -13 -59 -106 -131 -208 -13 -18 -29 -40 -34 -49 -6 -9 -40 -62 -77 -117 -37 -55 -73 -111 -79 -126 -7 -14 -18 -26 -26 -26 -7 0 -52 60 -100 133 -100 153 -87 134 -180 270 -40 59 -73 113 -73 122 0 13 20 15 134 15 l135 0 7 47 c4 25 3 58 -2 72 l-9 26 -693 3 c-579 2 -693 0 -698 -12z" fill="#f54236" id="f54236-000002"/>
    <path stroke="none" d="M1453 3200 c10 -22 34 -61 53 -87 19 -26 54 -77 77 -113 23 -36 50 -76 60 -90 9 -14 53 -79 96 -145 44 -66 89 -131 100 -145 11 -14 21 -29 21 -33 0 -9 59 -99 70 -107 4 -3 17 -24 29 -48 20 -39 20 -44 6 -71 -8 -17 -19 -32 -25 -36 -5 -3 -27 -36 -49 -73 -21 -37 -48 -77 -59 -90 -11 -13 -40 -53 -63 -90 -85 -134 -134 -208 -161 -244 -16 -20 -34 -47 -41 -60 -35 -65 -150 -227 -158 -222 -10 6 -13 1687 -3 1697 12 11 29 -4 47 -43z" fill="#ffffff" id="ffffff-000003"/>
  </g>
</svg>
