<?xml version="1.0" standalone="no"?>
<!DOCTYPE svg PUBLIC "-//W3C//DTD SVG 1.1//EN"
 "http://www.w3.org/Graphics/SVG/1.1/DTD/svg11.dtd">
<!-- Created with svg_stack (http://github.com/astraw/svg_stack) -->
<svg xmlns:sodipodi="http://sodipodi.sourceforge.net/DTD/sodipodi-0.dtd" xmlns="http://www.w3.org/2000/svg" version="1.1" width="955.0" height="868.0">
  <defs/>
  <g id="id0:id0" transform="matrix(1.25,0,0,1.25,0.0,0.0)"><g transform="translate(0.000000,694.400000) scale(0.040000,-0.040000)" fill="#ffc20f" stroke="none">
<path d="M12385 13100 l-2440 -5 3 -20 c2 -11 37 -83 77 -160 40 -77 146 -284 235 -460 89 -176 197 -387 240 -470 43 -82 139 -271 215 -420 76 -148 177 -346 225 -440 127 -247 299 -583 450 -880 73 -143 158 -309 190 -370 32 -60 123 -238 203 -395 80 -157 189 -370 242 -475 53 -104 156 -305 227 -445 72 -140 174 -340 228 -445 104 -203 251 -491 450 -880 67 -132 171 -334 230 -450 59 -115 167 -327 240 -470 73 -143 158 -309 190 -370 31 -60 105 -204 163 -320 119 -234 142 -275 157 -275 12 0 18 10 359 552 142 227 386 616 541 863 156 248 376 599 490 780 114 182 247 393 295 470 48 77 193 307 320 510 128 204 299 476 380 605 81 129 231 368 333 530 102 162 193 306 202 320 9 14 35 54 57 90 72 116 334 534 506 808 93 147 214 340 270 430 56 89 119 188 139 220 20 31 58 91 83 132 25 41 70 113 100 160 30 47 68 108 85 135 16 28 160 257 320 510 387 616 393 626 385 633 -8 8 -2998 9 -6390 2z m4015 -300 c39 -77 78 -162 86 -188 9 -26 38 -90 64 -142 26 -52 50 -108 54 -125 4 -16 26 -70 51 -120 81 -167 141 -297 199 -435 15 -36 32 -72 37 -80 5 -8 14 -26 20 -40 6 -14 28 -62 50 -107 21 -44 39 -86 39 -92 0 -5 22 -56 49 -113 112 -233 114 -246 49 -286 -39 -24 -156 -72 -174 -72 -18 0 -44 52 -44 88 0 56 -71 85 -78 32 -2 -13 -10 -33 -18 -44 -8 -11 -14 -33 -14 -47 0 -16 -14 -45 -32 -68 -18 -22 -45 -57 -59 -78 -39 -58 -175 -118 -259 -114 -90 4 -167 31 -293 102 -42 24 -183 171 -200 209 -6 14 -23 41 -38 60 -30 41 -114 220 -139 300 -10 30 -23 82 -29 115 -7 33 -17 76 -22 96 -11 46 -12 137 0 175 5 16 14 54 21 84 24 106 113 218 216 270 l69 35 112 -1 c104 -1 113 -3 145 -28 39 -29 60 -33 77 -13 14 18 -13 113 -40 143 -10 11 -19 26 -19 32 0 7 -13 39 -30 72 -16 33 -30 66 -30 74 0 7 -15 38 -33 68 -18 31 -50 99 -71 152 -33 82 -37 99 -25 110 8 7 57 32 109 55 52 24 99 47 105 52 5 5 13 9 17 9 4 0 39 -63 78 -140z m-1240 -1070 c51 -14 154 -92 173 -132 9 -19 25 -42 35 -51 11 -10 27 -37 37 -60 11 -23 24 -49 30 -57 14 -17 98 -201 135 -295 13 -33 61 -137 86 -186 13 -26 24 -52 24 -59 0 -7 14 -35 30 -62 17 -26 30 -53 30 -59 0 -6 23 -60 51 -120 28 -60 49 -116 47 -125 -2 -8 -14 -22 -28 -29 -60 -34 -200 -95 -215 -95 -11 0 -37 44 -86 145 -38 80 -69 149 -69 153 0 5 -9 26 -19 48 -45 94 -81 175 -81 185 0 6 -9 22 -20 36 -11 14 -20 32 -20 40 0 7 -13 40 -30 73 -16 33 -30 64 -30 70 0 19 -93 174 -124 208 -43 46 -91 67 -152 66 -99 -3 -166 -61 -208 -184 -17 -50 -7 -141 26 -235 18 -52 167 -394 248 -570 78 -170 100 -222 100 -234 0 -7 -57 -39 -126 -72 l-126 -60 -19 17 c-10 9 -19 21 -19 26 0 5 -22 57 -49 116 -27 59 -61 134 -76 167 -15 33 -42 93 -61 133 -19 41 -34 76 -34 79 0 2 -27 64 -61 136 -33 73 -64 141 -69 152 -5 11 -32 72 -60 135 -28 63 -60 133 -70 155 -46 97 -90 199 -90 207 0 4 30 22 68 39 37 18 90 42 118 55 28 13 54 24 57 24 4 0 22 -34 41 -75 19 -41 38 -75 42 -75 15 0 44 34 44 52 0 41 62 154 113 206 64 66 122 97 227 122 38 9 124 4 180 -10z m-1144 -605 c35 -75 64 -137 64 -140 0 -3 16 -39 35 -81 19 -41 35 -77 35 -79 0 -1 20 -46 45 -98 25 -53 45 -98 45 -101 0 -2 15 -37 34 -78 31 -68 88 -194 134 -298 11 -25 48 -106 81 -180 58 -127 60 -135 44 -150 -19 -17 -216 -110 -233 -110 -5 0 -21 26 -36 58 -14 31 -33 65 -41 74 -19 21 -43 12 -43 -17 0 -30 -38 -121 -71 -171 -41 -61 -105 -113 -177 -146 -61 -28 -72 -29 -166 -26 -83 2 -109 7 -149 28 -67 34 -121 82 -167 150 -38 56 -130 234 -162 315 -9 22 -29 69 -46 105 -16 36 -58 128 -92 205 -35 77 -78 173 -96 213 -19 41 -34 76 -34 78 0 2 -13 31 -30 65 -16 34 -27 66 -24 71 3 5 29 20 57 33 166 75 210 95 214 95 6 0 132 -274 255 -555 77 -177 178 -374 209 -410 40 -45 97 -75 144 -75 44 0 114 32 148 68 90 95 96 222 18 397 -5 11 -26 61 -46 110 -20 50 -52 122 -70 160 -53 115 -115 253 -115 258 0 3 -23 53 -51 113 -57 119 -57 127 2 156 70 35 204 96 212 97 5 1 37 -60 73 -134z m-1529 45 c7 -14 31 -65 54 -115 23 -49 46 -100 52 -112 13 -29 -7 -53 -60 -72 -21 -8 -67 -27 -103 -44 -147 -67 -389 -176 -450 -202 -68 -30 -100 -51 -100 -68 0 -8 47 -113 151 -334 29 -63 43 -83 58 -83 10 0 61 20 113 44 51 23 147 67 213 96 66 29 153 67 193 86 41 19 80 34 87 34 18 0 28 -16 68 -105 19 -44 44 -101 57 -127 12 -26 19 -52 15 -59 -4 -6 -42 -27 -84 -46 -42 -19 -101 -46 -131 -60 -30 -14 -75 -34 -100 -45 -25 -10 -63 -27 -84 -36 -90 -38 -201 -98 -209 -112 -6 -10 1 -37 22 -83 17 -37 45 -97 62 -134 35 -77 238 -531 246 -551 3 -8 -34 -30 -103 -63 -60 -28 -124 -58 -142 -66 -31 -15 -35 -15 -51 3 -10 10 -30 48 -46 84 -15 36 -39 90 -52 120 -14 30 -42 93 -63 140 -21 47 -49 111 -64 143 -14 31 -38 83 -52 115 -14 31 -52 116 -84 187 -32 72 -72 162 -90 200 -17 39 -44 99 -60 135 -16 36 -68 151 -116 255 -47 105 -94 210 -104 235 -10 25 -34 80 -54 123 -20 42 -36 81 -36 86 0 10 34 27 245 121 72 32 155 69 185 83 30 13 120 54 200 90 80 36 195 88 255 115 61 28 119 50 130 49 10 -1 25 -13 32 -27z m3026 -1681 c5 -19 11 -52 14 -74 3 -22 9 -44 14 -49 5 -6 9 -34 9 -62 0 -29 5 -56 10 -59 6 -3 10 -30 10 -60 0 -30 5 -57 10 -60 6 -3 10 -30 10 -60 0 -30 5 -57 10 -60 6 -3 10 -30 10 -60 0 -30 5 -57 10 -60 6 -3 10 -34 10 -69 0 -34 5 -67 11 -73 12 -12 7 -259 -8 -318 -13 -54 -48 -129 -68 -145 -14 -12 -20 -9 -46 16 l-30 30 18 34 c35 70 43 106 43 213 0 123 2 118 -102 231 -32 35 -58 67 -58 72 0 5 -22 32 -50 59 -27 27 -50 53 -50 58 0 5 -16 28 -35 51 -19 22 -56 67 -82 99 -27 32 -70 82 -96 112 l-49 54 43 20 c24 12 48 21 55 21 15 0 75 -70 124 -145 8 -13 26 -37 40 -54 28 -35 70 -91 115 -151 63 -86 79 -100 103 -94 18 5 22 13 22 45 0 21 -4 40 -9 43 -5 3 -11 23 -15 43 -3 21 -8 56 -11 78 -4 22 -10 49 -15 60 -5 11 -11 38 -14 60 -13 102 -25 154 -49 203 -14 28 -3 49 39 73 38 23 47 19 57 -22z m-1218 -252 c30 -62 55 -117 55 -122 0 -5 23 -55 50 -112 28 -56 50 -107 50 -113 0 -5 9 -25 20 -45 11 -20 20 -42 20 -49 0 -7 9 -25 20 -39 11 -14 20 -32 20 -40 0 -8 14 -41 30 -72 17 -31 30 -63 30 -69 0 -7 23 -57 50 -111 28 -54 50 -106 50 -116 0 -10 5 -21 10 -24 18 -11 10 -44 -14 -61 -41 -26 -68 -15 -86 36 -8 25 -37 89 -63 142 -26 53 -47 101 -47 106 0 5 -18 46 -40 91 -22 45 -40 85 -40 90 0 5 -18 43 -40 86 -22 43 -40 83 -40 89 0 6 -22 56 -50 111 -27 55 -50 105 -50 111 0 6 -18 46 -40 89 -22 43 -40 82 -40 86 0 8 64 45 82 48 4 1 32 -50 63 -112z m397 96 c10 -9 18 -26 19 -37 0 -12 8 -34 18 -51 23 -39 78 -46 117 -16 33 26 46 26 69 1 20 -22 14 -48 -12 -56 -10 -3 -34 -13 -53 -23 -49 -24 -52 -67 -10 -145 16 -32 30 -64 30 -72 0 -7 14 -33 30 -57 17 -25 30 -51 30 -59 0 -8 10 -34 21 -58 12 -25 30 -63 41 -85 36 -77 49 -95 78 -110 35 -18 64 -19 91 -2 18 10 23 9 40 -12 10 -13 19 -29 19 -36 0 -17 -44 -45 -69 -45 -11 0 -23 -4 -26 -10 -3 -5 -26 -10 -50 -10 -70 0 -121 53 -192 203 -18 38 -33 72 -33 75 0 4 -18 44 -40 90 -22 45 -40 85 -40 90 0 20 -73 154 -87 159 -8 3 -24 1 -34 -5 -28 -18 -46 -15 -64 11 l-16 22 36 32 c40 34 41 48 12 130 -10 30 -8 35 18 63 34 35 33 35 57 13z m-661 -517 c19 -8 45 -26 59 -41 14 -15 37 -33 53 -41 15 -8 27 -21 27 -28 0 -7 6 -19 14 -25 23 -19 66 -108 66 -135 0 -25 0 -25 -155 -96 -138 -63 -160 -76 -163 -99 -8 -51 74 -169 145 -209 39 -21 143 -15 182 11 19 12 48 30 65 40 l30 19 13 -18 c7 -10 13 -21 13 -26 0 -12 -61 -78 -73 -78 -6 0 -19 -7 -28 -16 -17 -15 -43 -23 -132 -41 -33 -6 -130 22 -148 43 -6 8 -17 14 -23 14 -19 0 -51 38 -110 129 -47 73 -63 110 -107 257 -12 41 -12 161 1 169 6 3 10 14 10 24 0 42 46 102 110 144 31 20 107 22 151 3z m-579 -243 c16 -19 58 -107 58 -122 0 -4 18 -43 40 -86 22 -43 40 -83 40 -89 0 -6 27 -65 60 -131 33 -66 60 -127 61 -135 0 -8 8 -27 17 -42 69 -109 68 -101 12 -124 -33 -14 -36 -14 -52 6 -23 29 -49 22 -70 -19 -23 -45 -56 -79 -100 -102 -86 -44 -166 -9 -244 106 -25 37 -104 199 -104 213 0 6 -18 44 -40 86 -22 41 -40 82 -40 89 0 8 -18 49 -40 93 -45 86 -43 96 17 113 27 8 34 6 46 -12 22 -35 97 -194 97 -206 0 -6 9 -26 20 -46 11 -20 20 -42 20 -49 0 -7 9 -25 20 -39 11 -14 20 -32 20 -39 0 -18 42 -102 62 -126 8 -9 18 -25 21 -34 8 -22 80 -68 107 -68 23 0 54 16 88 44 19 17 22 29 22 92 0 78 -2 85 -61 211 -22 44 -39 85 -39 91 0 5 -18 44 -40 87 -22 43 -40 84 -40 92 0 8 -9 26 -20 40 -11 14 -20 34 -20 44 0 10 -4 21 -10 24 -17 11 -11 23 18 38 37 20 56 20 74 0z m-577 -276 c21 -42 19 -53 -15 -77 -17 -12 -39 -39 -50 -60 -21 -41 -27 -124 -10 -135 6 -3 10 -17 10 -30 0 -13 5 -27 10 -30 6 -3 10 -17 10 -30 0 -13 5 -27 10 -30 6 -3 10 -14 10 -23 0 -9 27 -71 60 -137 33 -66 60 -125 60 -132 0 -7 9 -29 20 -49 24 -41 18 -53 -33 -79 -27 -14 -32 -14 -49 1 -10 10 -18 27 -18 40 0 13 -4 26 -10 29 -5 3 -10 14 -10 23 0 10 -31 80 -70 157 -38 77 -70 145 -70 150 0 6 -22 55 -50 110 -27 55 -50 105 -50 112 0 6 -10 30 -22 53 l-22 41 29 24 c37 30 43 31 55 3 14 -34 35 -58 51 -58 8 0 22 23 33 52 10 29 32 69 50 89 34 41 44 39 71 -14z"/>
<path d="M16161 11986 c-57 -19 -125 -87 -141 -143 -25 -90 -12 -264 25 -333 8 -14 37 -72 65 -130 64 -133 68 -140 117 -193 53 -58 87 -80 152 -100 68 -22 79 -21 143 4 75 29 113 70 138 145 28 89 26 157 -10 266 -16 50 -30 97 -30 105 0 8 -8 27 -18 41 -10 15 -24 41 -32 57 -47 98 -147 223 -201 251 -82 42 -144 51 -208 30z"/>
<path d="M13878 8695 c-25 -29 -28 -41 -28 -103 0 -75 21 -142 45 -142 8 0 38 11 67 24 29 13 74 33 101 44 26 12 50 28 53 37 10 25 -16 73 -67 126 -44 46 -51 49 -96 48 -42 0 -52 -5 -75 -34z"/>
</g>
</g>
  <g id="id1:id1" transform="matrix(1.25,0,0,1.25,0.0,0.0)"><g transform="translate(0.000000,694.400000) scale(0.040000,-0.040000)" fill="#000000" stroke="none">
<path d="M16220 12909 c-52 -26 -102 -48 -111 -48 -9 -1 -24 -10 -34 -21 l-19 -20 24 -68 c12 -37 45 -110 71 -163 27 -52 49 -100 49 -105 0 -10 55 -130 71 -154 14 -22 46 -91 54 -118 10 -34 -19 -39 -55 -9 -24 21 -44 26 -113 32 -150 13 -246 -24 -345 -130 -54 -58 -70 -82 -107 -168 -32 -74 -30 -356 4 -425 4 -9 20 -55 35 -101 27 -84 114 -271 140 -300 7 -9 20 -29 29 -46 8 -16 44 -61 78 -99 119 -129 294 -218 429 -217 44 0 115 13 125 22 5 5 16 9 24 9 29 0 109 62 140 108 17 26 42 62 56 81 14 19 25 46 25 61 0 15 7 33 15 40 8 7 15 20 15 30 0 47 40 24 41 -24 1 -69 52 -112 103 -88 12 6 52 24 91 42 87 39 105 55 105 94 0 35 -38 133 -99 253 -22 46 -41 87 -41 93 0 6 -20 52 -45 102 -25 50 -45 97 -45 103 0 7 -7 18 -15 25 -8 7 -15 19 -15 27 0 14 -17 53 -80 188 -55 116 -100 218 -100 224 0 10 -64 137 -77 153 -6 7 -14 29 -18 48 -4 19 -34 90 -66 158 -33 68 -59 127 -59 133 0 5 -31 74 -69 152 -38 78 -71 150 -75 160 -8 25 -31 20 -136 -34z m92 -950 c77 -29 167 -122 226 -236 23 -45 47 -85 52 -88 6 -3 10 -16 10 -27 0 -12 9 -46 19 -77 37 -110 43 -138 38 -192 -12 -137 -55 -203 -153 -234 -61 -19 -95 -15 -169 22 -88 43 -143 112 -217 273 -22 47 -44 93 -49 103 -38 72 -54 243 -31 337 12 53 61 101 125 123 59 21 82 20 149 -4z"/>
<path d="M14977 11761 c-21 -4 -43 -13 -50 -20 -6 -6 -20 -11 -31 -11 -36 0 -122 -57 -169 -111 -47 -54 -77 -107 -99 -175 -7 -22 -17 -42 -23 -45 -5 -2 -22 21 -36 51 -35 71 -46 82 -72 74 -64 -20 -247 -114 -247 -127 0 -8 14 -46 31 -83 17 -38 47 -105 67 -149 19 -44 50 -111 68 -150 43 -92 94 -206 94 -210 0 -1 20 -46 45 -98 25 -53 45 -98 45 -101 0 -2 15 -37 34 -78 31 -68 89 -196 149 -328 13 -30 34 -76 45 -102 23 -52 35 -57 85 -34 135 60 224 105 235 118 11 14 7 29 -27 100 -43 92 -118 256 -151 333 -12 28 -35 77 -50 110 -86 183 -139 327 -157 428 -7 34 21 125 51 169 26 39 85 74 139 83 47 8 135 -31 163 -73 31 -45 104 -175 104 -184 0 -4 14 -38 31 -75 49 -107 65 -141 112 -248 176 -396 197 -437 230 -443 16 -3 103 34 227 96 48 24 49 51 4 142 -20 41 -45 98 -56 125 -11 28 -30 69 -44 92 -13 23 -24 50 -25 60 0 10 -9 32 -20 48 -11 17 -22 38 -26 49 -3 10 -17 39 -30 63 -12 24 -23 49 -23 54 0 5 -13 38 -28 72 -16 34 -44 98 -62 142 -19 44 -39 87 -46 95 -6 8 -22 35 -34 59 -65 130 -157 227 -246 260 -61 23 -154 33 -207 22z"/>
<path d="M13890 11259 c-19 -10 -75 -38 -125 -61 -49 -24 -94 -50 -99 -59 -9 -16 16 -82 116 -299 58 -125 125 -276 162 -365 21 -49 44 -103 51 -120 56 -126 67 -220 36 -291 -26 -59 -63 -99 -113 -125 -118 -61 -213 17 -324 266 -17 39 -55 122 -84 185 -110 242 -153 337 -177 395 -43 103 -83 175 -96 175 -7 0 -33 -10 -58 -21 -24 -12 -86 -41 -137 -65 -51 -24 -95 -49 -97 -57 -3 -7 21 -71 53 -143 63 -136 145 -319 167 -369 259 -585 310 -663 479 -728 60 -22 197 -27 248 -7 151 57 237 145 298 308 7 18 17 35 21 38 5 3 21 -22 35 -55 15 -33 34 -63 44 -66 24 -8 268 103 275 124 3 10 -11 53 -31 97 -19 43 -41 93 -49 109 -16 37 -118 265 -215 480 -40 88 -92 205 -117 260 -77 175 -156 349 -173 380 -20 36 -43 40 -90 14z"/>
<path d="M12325 11170 c-60 -28 -119 -54 -130 -60 -35 -16 -359 -162 -380 -170 -11 -4 -60 -26 -108 -49 -49 -23 -90 -41 -92 -41 -2 0 -47 -20 -100 -46 -68 -32 -95 -50 -95 -63 0 -10 18 -56 39 -102 34 -72 89 -194 206 -454 15 -33 44 -98 65 -145 21 -47 58 -130 83 -185 25 -55 81 -181 125 -280 290 -650 311 -695 335 -695 22 0 291 127 300 141 6 9 0 33 -16 69 -14 30 -45 100 -70 155 -24 55 -90 203 -146 329 -56 126 -98 233 -94 237 5 5 80 40 168 79 408 180 445 199 445 224 0 7 -6 26 -14 42 -8 16 -35 76 -61 134 -26 58 -52 111 -57 118 -16 19 -54 14 -109 -14 -28 -14 -91 -43 -140 -65 -49 -21 -128 -56 -176 -78 -49 -21 -112 -50 -142 -65 -69 -33 -77 -33 -96 3 -47 92 -163 365 -159 373 4 6 34 22 68 37 33 16 81 37 106 49 54 24 308 138 405 181 132 59 147 72 129 113 -6 13 -22 48 -36 78 -14 30 -40 88 -58 128 -41 89 -44 89 -195 22z"/>
<path d="M11155 9994 c-66 -30 -126 -62 -134 -69 -16 -15 -9 -57 104 -650 24 -126 40 -233 36 -238 -7 -7 -27 19 -351 466 -95 131 -178 241 -184 243 -16 6 -255 -101 -279 -125 l-18 -18 41 -194 c71 -339 89 -421 114 -539 14 -64 22 -118 17 -123 -9 -9 -9 -10 -168 200 -60 77 -168 220 -242 317 -84 110 -140 176 -151 176 -30 0 -270 -112 -280 -130 -7 -14 20 -54 138 -201 81 -101 292 -364 468 -584 177 -220 328 -406 338 -414 14 -12 25 -10 81 18 36 17 67 31 69 31 14 0 135 62 145 74 9 11 1 64 -38 248 -27 128 -61 289 -75 358 -15 69 -33 152 -41 185 -16 72 -6 89 26 43 13 -18 88 -121 168 -228 151 -204 234 -317 285 -387 17 -23 39 -45 48 -48 21 -7 278 107 290 129 5 9 -6 103 -28 233 -20 120 -42 254 -49 298 -68 423 -158 953 -164 965 -15 27 -45 21 -166 -36z"/>
<path d="M9100 9095 c-221 -48 -410 -233 -456 -447 -18 -83 -17 -276 1 -360 54 -258 254 -553 440 -650 110 -57 174 -72 300 -72 95 1 121 5 185 29 41 15 94 38 117 52 61 36 184 169 216 236 129 266 68 654 -144 922 -190 240 -419 341 -659 290z m226 -369 c108 -50 207 -187 270 -371 30 -90 37 -200 16 -271 -15 -51 -79 -126 -128 -149 -114 -54 -271 8 -363 144 -189 278 -191 557 -6 654 47 25 149 22 211 -7z"/>
<path d="M8270 8710 c-141 -12 -229 -89 -247 -215 -9 -73 -27 -76 -58 -11 -15 31 -32 56 -39 56 -11 0 -161 -66 -235 -103 -39 -20 -47 -40 -28 -79 22 -47 67 -146 142 -313 34 -77 74 -165 88 -195 13 -30 34 -75 45 -100 286 -643 308 -689 327 -696 21 -9 275 107 290 132 11 16 -5 56 -106 279 -283 622 -312 755 -185 849 21 16 43 21 98 21 85 1 91 7 78 96 -5 35 -14 106 -21 157 -11 79 -17 97 -37 113 -14 10 -27 18 -31 17 -3 0 -40 -4 -81 -8z"/>
<path d="M7365 8329 c-86 -26 -159 -118 -173 -216 -9 -61 -27 -65 -51 -11 -32 75 -33 75 -172 12 -68 -31 -130 -63 -138 -70 -17 -15 -26 9 121 -319 55 -121 105 -233 113 -250 7 -16 61 -136 118 -265 198 -443 227 -504 242 -519 18 -18 39 -12 198 62 88 41 107 54 107 72 0 12 -48 127 -106 256 -188 417 -264 624 -264 718 0 59 38 121 90 149 38 20 54 22 102 17 54 -7 57 -6 63 17 9 34 -33 308 -51 336 -13 20 -22 22 -92 21 -42 0 -90 -5 -107 -10z"/>
<path d="M5680 8150 c-69 -33 -130 -59 -136 -60 -6 0 -19 -8 -28 -19 -16 -17 -16 -28 -2 -157 23 -201 53 -469 71 -619 8 -71 22 -193 30 -270 8 -77 19 -171 24 -210 6 -38 13 -101 16 -140 4 -38 8 -82 11 -97 4 -26 11 -91 49 -435 19 -172 24 -200 39 -213 17 -13 313 116 333 146 11 17 12 32 4 65 -15 69 -42 278 -44 344 l-2 60 55 27 c30 16 161 75 290 133 l235 106 35 -38 c19 -21 90 -100 158 -176 68 -75 129 -137 136 -137 17 0 305 127 324 142 6 6 12 16 12 22 0 6 -42 56 -93 112 -50 55 -175 192 -277 304 -102 113 -329 362 -505 554 -176 192 -374 409 -439 483 -96 107 -124 133 -145 132 -14 0 -82 -27 -151 -59z m420 -739 c69 -79 155 -178 192 -220 52 -59 64 -79 55 -88 -21 -20 -350 -164 -357 -156 -9 10 -49 281 -80 547 -6 49 -13 93 -16 98 -3 5 -3 17 1 26 7 20 8 19 205 -207z"/>
<path d="M4420 7014 c-164 -29 -314 -123 -379 -237 -61 -108 -75 -168 -75 -327 0 -117 4 -161 22 -227 78 -298 260 -570 448 -670 100 -53 151 -67 249 -67 163 -1 320 67 431 186 97 102 151 256 141 402 -7 103 -16 112 -94 97 -143 -27 -239 -52 -250 -67 -7 -10 -9 -36 -6 -70 24 -228 -242 -294 -401 -99 -51 61 -63 92 -45 110 11 11 276 133 574 264 105 46 120 56 123 77 3 24 -89 206 -151 299 -52 78 -199 224 -259 257 -103 57 -241 87 -328 72z m123 -336 c77 -23 217 -179 184 -206 -24 -19 -352 -164 -377 -165 -20 -2 -27 5 -38 37 -38 114 -21 224 43 286 60 58 111 71 188 48z"/>
<path d="M2588 6795 c-3 -3 -56 -28 -118 -55 -117 -51 -150 -73 -150 -98 0 -13 61 -154 143 -332 14 -30 93 -206 175 -390 180 -401 171 -381 314 -700 64 -140 130 -289 148 -330 18 -41 37 -81 42 -87 12 -15 49 -17 63 -5 6 5 55 28 110 52 110 47 145 67 145 82 0 5 -75 177 -166 380 -91 204 -179 412 -196 462 -57 175 -28 288 92 348 153 77 206 24 400 -407 40 -88 101 -225 137 -305 123 -273 132 -290 148 -296 15 -6 250 93 283 119 8 6 12 22 9 36 -6 34 -353 806 -420 936 -40 78 -68 117 -127 176 -97 98 -147 122 -262 127 -134 6 -238 -36 -328 -134 -38 -42 -100 -153 -100 -181 0 -6 -5 -15 -10 -18 -11 -7 -19 8 -220 460 -34 77 -67 146 -72 153 -11 12 -31 16 -40 7z"/>
<path d="M2014 6537 c-49 -23 -117 -54 -150 -69 -32 -14 -135 -61 -229 -103 -93 -42 -291 -131 -440 -197 -148 -67 -273 -126 -277 -132 -14 -21 -8 -53 20 -107 16 -30 41 -84 57 -121 15 -37 37 -76 50 -88 l22 -20 144 64 c79 35 175 78 213 95 57 26 71 30 82 19 6 -7 35 -65 62 -128 27 -63 66 -150 86 -193 20 -42 36 -79 36 -81 0 -2 18 -42 39 -88 21 -45 84 -184 139 -308 55 -124 135 -301 177 -395 43 -93 92 -204 111 -245 30 -68 35 -75 64 -78 18 -2 39 3 48 11 10 9 64 36 122 62 58 25 112 52 120 61 17 17 29 -13 -128 334 -350 775 -532 1186 -532 1202 0 11 13 24 33 33 17 8 105 48 195 88 168 76 207 100 199 120 -94 220 -136 301 -158 304 -7 1 -55 -17 -105 -40z"/>
</g>
</g>
  <g id="id2:id2" transform="matrix(1.25,0,0,1.25,0.0,0.0)"><g transform="translate(0.000000,694.400000) scale(0.040000,-0.040000)" fill="#a8a9ad" stroke="none">
<path d="M5880 13110 c0 -5 5 -10 10 -10 6 0 10 5 10 10 0 6 -4 10 -10 10 -5 0 -10 -4 -10 -10z"/>
<path d="M6140 13010 c0 -5 5 -10 11 -10 5 0 7 5 4 10 -3 6 -8 10 -11 10 -2 0 -4 -4 -4 -10z"/>
<path d="M6180 12990 c0 -5 5 -10 10 -10 6 0 10 5 10 10 0 6 -4 10 -10 10 -5 0 -10 -4 -10 -10z"/>
<path d="M6180 12885 c0 -8 5 -15 10 -15 6 0 10 7 10 15 0 8 -4 15 -10 15 -5 0 -10 -7 -10 -15z"/>
<path d="M6139 12831 c-13 -11 -21 -22 -17 -26 9 -9 26 2 38 26 13 24 8 24 -21 0z"/>
<path d="M6098 12766 c-19 -14 -23 -26 -10 -26 4 0 13 9 20 20 14 23 13 24 -10 6z"/>
<path d="M4645 12650 c-3 -5 -1 -10 4 -10 6 0 11 5 11 10 0 6 -2 10 -4 10 -3 0 -8 -4 -11 -10z"/>
<path d="M4600 12630 c0 -5 5 -10 10 -10 6 0 10 5 10 10 0 6 -4 10 -10 10 -5 0 -10 -4 -10 -10z"/>
<path d="M4440 12530 c0 -5 5 -10 10 -10 6 0 10 5 10 10 0 6 -4 10 -10 10 -5 0 -10 -4 -10 -10z"/>
<path d="M4306 12444 c-5 -12 -2 -15 10 -10 8 3 18 6 20 6 2 0 4 5 4 10 0 16 -27 11 -34 -6z"/>
<path d="M5840 12370 c0 -5 5 -10 10 -10 6 0 10 5 10 10 0 6 -4 10 -10 10 -5 0 -10 -4 -10 -10z"/>
<path d="M5831 12337 c-6 -8 -8 -16 -5 -20 10 -9 34 4 34 19 0 18 -14 18 -29 1z"/>
<path d="M5784 12265 c3 -9 -1 -18 -9 -21 -19 -8 -20 -24 -1 -24 7 0 16 8 20 18 3 9 9 23 12 30 3 7 -1 12 -11 12 -11 0 -15 -5 -11 -15z"/>
<path d="M5750 12192 c0 -12 19 -26 26 -19 2 2 -2 10 -11 17 -9 8 -15 8 -15 2z"/>
<path d="M3950 12169 c0 -5 5 -7 10 -4 6 3 10 8 10 11 0 2 -4 4 -10 4 -5 0 -10 -5 -10 -11z"/>
<path d="M5660 12070 c0 -5 5 -10 10 -10 6 0 10 5 10 10 0 6 -4 10 -10 10 -5 0 -10 -4 -10 -10z"/>
<path d="M3574 11823 c-86 -102 -198 -223 -204 -223 -13 0 -281 -251 -457 -428 l-162 -163 -123 -4 c-67 -2 -156 -9 -198 -15 -41 -5 -113 -15 -160 -21 -47 -6 -95 -15 -108 -20 -13 -5 -36 -9 -52 -9 -16 0 -32 -4 -35 -10 -3 -5 -18 -10 -32 -10 -14 0 -57 -9 -95 -21 -95 -28 -117 -24 -136 26 -8 22 -28 59 -44 83 -15 24 -28 45 -28 47 0 18 -81 115 -168 202 -108 108 -231 198 -332 242 -109 47 -119 51 -152 57 -18 4 -41 11 -51 16 -29 15 -275 11 -337 -5 -76 -21 -88 -26 -145 -64 -100 -66 -165 -182 -223 -398 -58 -216 -41 -697 33 -945 43 -144 84 -242 128 -303 l20 -29 -18 -61 c-9 -34 -21 -73 -25 -87 -17 -52 -25 -205 -16 -300 7 -62 11 -82 37 -182 28 -105 95 -243 163 -335 19 -26 50 -68 68 -93 53 -73 258 -270 347 -335 128 -92 126 -91 150 -167 13 -40 27 -82 32 -93 4 -11 13 -37 20 -57 10 -29 18 -38 35 -38 13 0 26 -4 29 -10 3 -5 19 -10 36 -10 16 0 37 -4 47 -9 9 -5 35 -14 57 -20 89 -23 654 -202 700 -221 11 -4 81 -27 155 -49 129 -40 181 -56 343 -102 39 -11 86 -24 102 -29 78 -22 270 -66 400 -91 192 -38 461 -54 645 -39 133 10 261 33 285 50 6 4 23 10 40 14 51 13 181 81 242 129 84 65 173 163 226 251 26 42 47 81 47 87 0 5 7 20 15 32 17 26 73 182 87 242 14 60 27 140 39 245 13 113 6 518 -11 612 -26 146 -32 175 -40 208 -5 19 -17 67 -26 105 -19 75 -41 135 -50 135 -2 0 -36 -30 -74 -66 -84 -82 -184 -155 -255 -189 l-54 -25 -200 0 c-145 0 -202 3 -207 12 -14 22 481 472 665 605 8 5 -33 100 -71 162 -21 34 -38 65 -38 68 0 3 -11 19 -25 35 -20 24 -25 37 -20 59 6 26 4 29 -17 27 -19 -3 -22 1 -19 22 10 67 11 324 2 333 -6 6 -11 30 -11 53 0 24 -4 46 -10 49 -5 3 -10 21 -10 40 0 19 -4 37 -10 40 -5 3 -10 21 -10 40 0 19 -4 37 -10 40 -5 3 -10 14 -10 23 0 10 -18 53 -40 97 -22 44 -40 88 -40 97 0 9 -5 20 -10 23 -6 4 -24 34 -41 68 -17 34 -37 69 -44 77 -7 8 -26 40 -42 71 -16 31 -39 69 -52 85 -12 16 -59 78 -104 137 -124 165 -152 199 -186 231 l-31 29 -51 -31 c-56 -36 -83 -33 -48 4 14 15 17 24 10 24 -8 0 -24 -12 -37 -27z m-2741 -843 c15 0 155 -121 207 -178 100 -110 167 -210 157 -235 -3 -7 -24 -26 -48 -42 -113 -77 -210 -155 -296 -239 -40 -39 -73 -66 -74 -61 -4 34 4 772 8 778 3 5 13 1 22 -7 10 -9 21 -16 24 -16z m1008 -911 c486 -81 858 -246 1117 -493 52 -50 114 -116 137 -147 55 -70 107 -158 100 -168 -10 -17 -268 -36 -485 -35 -188 1 -242 4 -329 22 -386 79 -573 275 -629 660 -18 126 -14 120 -95 151 -15 6 -25 16 -22 21 9 15 70 12 206 -11z m2225 -1503 c102 -42 119 -55 109 -86 -10 -32 -144 -203 -228 -292 -91 -97 -109 -100 -161 -29 -81 110 -139 286 -122 373 11 61 62 79 212 74 88 -3 112 -8 190 -40z"/>
<path d="M5506 11811 c-4 -7 -5 -15 -2 -18 9 -9 19 4 14 18 -4 11 -6 11 -12 0z"/>
<path d="M5460 11730 c0 -5 5 -10 10 -10 6 0 10 5 10 10 0 6 -4 10 -10 10 -5 0 -10 -4 -10 -10z"/>
<path d="M5640 11626 c0 -8 5 -18 10 -21 6 -3 10 3 10 14 0 12 -4 21 -10 21 -5 0 -10 -6 -10 -14z"/>
<path d="M5240 11370 c0 -5 5 -10 10 -10 6 0 10 5 10 10 0 6 -4 10 -10 10 -5 0 -10 -4 -10 -10z"/>
<path d="M4640 10550 c0 -5 5 -10 10 -10 6 0 10 5 10 10 0 6 -4 10 -10 10 -5 0 -10 -4 -10 -10z"/>
<path d="M15480 9530 c0 -5 9 -10 20 -10 11 0 20 5 20 10 0 6 -9 10 -20 10 -11 0 -20 -4 -20 -10z"/>
<path d="M15440 9510 c0 -5 5 -10 10 -10 6 0 10 5 10 10 0 6 -4 10 -10 10 -5 0 -10 -4 -10 -10z"/>
<path d="M15400 9470 c0 -16 5 -30 10 -30 6 0 10 14 10 30 0 17 -4 30 -10 30 -5 0 -10 -13 -10 -30z"/>
<path d="M10145 9170 c3 -5 8 -10 11 -10 2 0 4 5 4 10 0 6 -5 10 -11 10 -5 0 -7 -4 -4 -10z"/>
<path d="M10720 9128 c0 -18 18 -34 28 -24 3 4 -2 14 -11 23 -16 16 -17 16 -17 1z"/>
<path d="M15580 9100 c0 -11 5 -20 10 -20 6 0 10 9 10 20 0 11 -4 20 -10 20 -5 0 -10 -9 -10 -20z"/>
<path d="M15480 9095 c0 -8 5 -15 10 -15 6 0 10 7 10 15 0 8 -4 15 -10 15 -5 0 -10 -7 -10 -15z"/>
<path d="M9860 9030 c0 -5 5 -10 11 -10 5 0 7 5 4 10 -3 6 -8 10 -11 10 -2 0 -4 -4 -4 -10z"/>
<path d="M11150 9022 c0 -10 22 -32 32 -32 15 0 8 28 -8 34 -21 8 -24 8 -24 -2z"/>
<path d="M15500 9010 c0 -5 5 -10 10 -10 6 0 10 5 10 10 0 6 -4 10 -10 10 -5 0 -10 -4 -10 -10z"/>
<path d="M13900 8830 c0 -5 5 -10 10 -10 6 0 10 5 10 10 0 6 -4 10 -10 10 -5 0 -10 -4 -10 -10z"/>
<path d="M14920 8830 c0 -5 5 -10 10 -10 6 0 10 5 10 10 0 6 -4 10 -10 10 -5 0 -10 -4 -10 -10z"/>
<path d="M10493 8743 c-10 -3 -10 -9 0 -24 14 -22 37 -25 37 -5 0 18 -22 35 -37 29z"/>
<path d="M13840 8600 c0 -33 4 -60 10 -60 6 0 10 27 10 60 0 33 -4 60 -10 60 -6 0 -10 -27 -10 -60z"/>
<path d="M14060 8650 c0 -5 5 -10 10 -10 6 0 10 5 10 10 0 6 -4 10 -10 10 -5 0 -10 -4 -10 -10z"/>
<path d="M13740 8600 c0 -22 5 -40 10 -40 6 0 10 18 10 40 0 22 -4 40 -10 40 -5 0 -10 -18 -10 -40z"/>
<path d="M15540 8590 c0 -27 5 -50 10 -50 6 0 10 23 10 50 0 28 -4 50 -10 50 -5 0 -10 -22 -10 -50z"/>
<path d="M14100 8590 c0 -5 5 -10 10 -10 6 0 10 5 10 10 0 6 -4 10 -10 10 -5 0 -10 -4 -10 -10z"/>
<path d="M14240 8590 c0 -5 5 -10 10 -10 6 0 10 5 10 10 0 6 -4 10 -10 10 -5 0 -10 -4 -10 -10z"/>
<path d="M14100 8550 c0 -5 5 -10 10 -10 6 0 10 5 10 10 0 6 -4 10 -10 10 -5 0 -10 -4 -10 -10z"/>
<path d="M14060 8530 c0 -5 5 -10 10 -10 6 0 10 5 10 10 0 6 -4 10 -10 10 -5 0 -10 -4 -10 -10z"/>
<path d="M13740 8500 c0 -11 5 -20 10 -20 6 0 10 9 10 20 0 11 -4 20 -10 20 -5 0 -10 -9 -10 -20z"/>
<path d="M14020 8510 c0 -5 5 -10 10 -10 6 0 10 5 10 10 0 6 -4 10 -10 10 -5 0 -10 -4 -10 -10z"/>
<path d="M13860 8480 c0 -11 5 -20 10 -20 6 0 10 9 10 20 0 11 -4 20 -10 20 -5 0 -10 -9 -10 -20z"/>
<path d="M13980 8490 c0 -5 5 -10 10 -10 6 0 10 5 10 10 0 6 -4 10 -10 10 -5 0 -10 -4 -10 -10z"/>
<path d="M13920 8470 c0 -5 9 -10 20 -10 11 0 20 5 20 10 0 6 -9 10 -20 10 -11 0 -20 -4 -20 -10z"/>
<path d="M12220 8430 c0 -5 11 -10 24 -10 13 0 33 -3 43 -7 16 -6 16 -5 4 10 -14 18 -71 24 -71 7z"/>
<path d="M7990 8410 c0 -11 7 -20 15 -20 8 0 15 9 15 20 0 11 -7 20 -15 20 -8 0 -15 -9 -15 -20z"/>
<path d="M10360 8406 c0 -2 7 -9 15 -16 13 -11 14 -10 9 4 -5 14 -24 23 -24 12z"/>
<path d="M12820 8350 c0 -5 5 -10 10 -10 6 0 10 5 10 10 0 6 -4 10 -10 10 -5 0 -10 -4 -10 -10z"/>
<path d="M10436 8317 c3 -10 9 -15 12 -12 3 3 0 11 -7 18 -10 9 -11 8 -5 -6z"/>
<path d="M13800 8290 c0 -5 5 -10 10 -10 6 0 10 5 10 10 0 6 -4 10 -10 10 -5 0 -10 -4 -10 -10z"/>
<path d="M5875 8170 c10 -11 20 -20 23 -20 3 0 -3 9 -13 20 -10 11 -20 20 -23 20 -3 0 3 -9 13 -20z"/>
<path d="M7169 8063 c-11 -3 -15 -11 -12 -24 7 -25 29 -25 36 1 6 22 0 28 -24 23z"/>
<path d="M14240 8050 c0 -5 5 -10 10 -10 6 0 10 5 10 10 0 6 -4 10 -10 10 -5 0 -10 -4 -10 -10z"/>
<path d="M7412 7934 c-12 -8 -27 -25 -33 -37 -8 -16 -1 -12 25 12 33 32 40 41 33 41 -1 0 -13 -7 -25 -16z"/>
<path d="M12720 7870 c0 -5 5 -10 10 -10 6 0 10 5 10 10 0 6 -4 10 -10 10 -5 0 -10 -4 -10 -10z"/>
<path d="M8930 7755 c7 -9 15 -13 17 -11 7 7 -7 26 -19 26 -6 0 -6 -6 2 -15z"/>
<path d="M5882 7644 c1 -9 9 -19 16 -22 9 -3 13 2 10 14 -1 9 -9 19 -16 22 -9 3 -13 -2 -10 -14z"/>
<path d="M12880 7510 c0 -5 5 -10 10 -10 6 0 10 5 10 10 0 6 -4 10 -10 10 -5 0 -10 -4 -10 -10z"/>
<path d="M6100 7410 c0 -5 5 -10 11 -10 5 0 7 5 4 10 -3 6 -8 10 -11 10 -2 0 -4 -4 -4 -10z"/>
<path d="M6356 7103 c-6 -14 -5 -15 5 -6 7 7 10 15 7 18 -3 3 -9 -2 -12 -12z"/>
<path d="M4665 6970 c3 -5 8 -10 11 -10 2 0 4 5 4 10 0 6 -5 10 -11 10 -5 0 -7 -4 -4 -10z"/>
<path d="M5995 6930 c3 -5 8 -10 11 -10 2 0 4 5 4 10 0 6 -5 10 -11 10 -5 0 -7 -4 -4 -10z"/>
<path d="M7196 6725 c4 -8 11 -15 16 -15 6 0 5 6 -2 15 -7 8 -14 15 -16 15 -2 0 -1 -7 2 -15z"/>
<path d="M6720 6706 c0 -2 7 -9 15 -16 13 -11 14 -10 9 4 -5 14 -24 23 -24 12z"/>
<path d="M6860 6546 c0 -2 7 -9 15 -16 13 -11 14 -10 9 4 -5 14 -24 23 -24 12z"/>
<path d="M2912 6178 c-16 -16 -15 -28 3 -28 8 0 15 9 15 20 0 23 -2 24 -18 8z"/>
<path d="M1830 6039 c0 -5 5 -7 10 -4 6 3 10 8 10 11 0 2 -4 4 -10 4 -5 0 -10 -5 -10 -11z"/>
<path d="M1500 5890 c0 -5 5 -10 11 -10 5 0 7 5 4 10 -3 6 -8 10 -11 10 -2 0 -4 -4 -4 -10z"/>
<path d="M5895 5550 c-3 -5 -2 -10 4 -10 5 0 13 5 16 10 3 6 2 10 -4 10 -5 0 -13 -4 -16 -10z"/>
<path d="M5860 5490 c0 -11 5 -20 10 -20 6 0 10 9 10 20 0 11 -4 20 -10 20 -5 0 -10 -9 -10 -20z"/>
<path d="M5900 5410 c0 -5 9 -10 20 -10 11 0 20 5 20 10 0 6 -9 10 -20 10 -11 0 -20 -4 -20 -10z"/>
<path d="M5960 5410 c0 -5 7 -10 15 -10 8 0 15 5 15 10 0 6 -7 10 -15 10 -8 0 -15 -4 -15 -10z"/>
</g>
</g>
  <g id="id3:id3" transform="matrix(1.25,0,0,1.25,0.0,0.0)"><g transform="translate(0.000000,694.400000) scale(0.040000,-0.040000)" fill="#be252c" stroke="none">
<path d="M15442 9517 l-44 -22 7 -50 c3 -27 10 -54 16 -59 5 -6 9 -28 9 -51 0 -23 4 -45 9 -50 5 -6 11 -28 14 -50 3 -22 15 -83 27 -135 31 -137 33 -148 26 -165 -12 -32 -33 -8 -238 264 -15 20 -38 52 -52 71 -13 19 -39 50 -58 68 l-34 32 -42 -20 c-22 -11 -46 -20 -52 -20 -27 0 1 -41 124 -181 23 -25 57 -67 76 -93 34 -46 96 -122 179 -216 21 -25 58 -70 82 -100 l44 -55 -1 -118 c-1 -74 -5 -122 -13 -130 -6 -6 -11 -18 -11 -27 0 -10 -7 -32 -16 -50 l-17 -32 41 -40 c22 -22 44 -38 50 -34 18 11 82 150 82 178 0 15 5 30 11 34 19 11 1 278 -30 454 -5 30 -14 84 -21 120 -6 36 -16 94 -21 130 -6 36 -15 90 -20 120 -5 30 -12 79 -15 108 -4 29 -10 55 -15 58 -5 3 -9 16 -9 29 0 60 -19 67 -88 32z"/>
<path d="M14188 9344 c-25 -12 -49 -27 -52 -32 -3 -5 12 -45 34 -87 22 -43 40 -83 40 -90 0 -7 14 -41 31 -76 18 -35 40 -82 50 -104 9 -22 32 -71 49 -110 18 -38 36 -79 40 -90 4 -11 26 -58 49 -105 23 -47 41 -89 41 -95 0 -5 18 -48 41 -95 23 -47 45 -94 49 -105 29 -78 63 -125 89 -125 9 0 31 13 50 29 l35 28 -13 34 c-7 19 -27 63 -43 99 -17 36 -38 83 -48 105 -10 22 -32 70 -49 107 -17 37 -31 73 -31 80 0 7 -9 24 -20 38 -11 14 -20 30 -20 37 0 7 -9 28 -20 48 -11 20 -20 41 -20 49 0 7 -22 57 -50 111 -27 54 -50 104 -50 110 0 7 -14 41 -31 76 -18 35 -41 84 -52 109 -11 25 -23 51 -27 59 -10 22 -20 21 -72 -5z"/>
<path d="M14630 9325 c-38 -39 -42 -47 -33 -67 29 -65 33 -91 16 -110 -9 -10 -22 -18 -28 -18 -27 0 -36 -26 -19 -59 20 -40 38 -48 70 -30 18 9 30 10 42 3 19 -13 70 -101 71 -125 1 -9 19 -51 41 -94 22 -43 40 -83 40 -90 0 -19 76 -162 114 -213 19 -26 48 -57 65 -69 31 -24 95 -31 106 -13 3 6 14 10 24 10 22 0 75 26 90 44 23 28 -36 113 -61 88 -7 -7 -29 -12 -49 -12 -30 0 -43 7 -73 40 -20 22 -36 46 -36 54 0 8 -12 38 -28 67 -15 30 -33 72 -41 94 -8 22 -22 51 -32 64 -11 13 -19 29 -19 36 0 7 -10 33 -21 57 -51 103 -56 131 -24 152 13 9 33 16 43 16 10 0 29 11 41 24 l22 23 -19 34 c-23 42 -43 47 -80 19 -19 -14 -40 -20 -61 -18 -33 3 -37 7 -77 92 -11 22 -24 41 -29 43 -6 2 -30 -17 -55 -42z"/>
<path d="M13897 8836 c-36 -16 -115 -93 -133 -131 -22 -47 -32 -155 -20 -228 6 -36 14 -69 19 -73 4 -4 7 -15 7 -24 0 -57 176 -310 216 -310 6 0 19 -9 29 -20 10 -11 28 -20 41 -20 13 0 26 -4 29 -10 3 -5 24 -10 45 -10 21 0 42 5 45 10 3 6 19 10 34 10 16 0 40 9 54 20 14 11 29 20 34 20 15 0 93 85 93 101 0 9 -10 25 -23 37 l-23 22 -34 -28 c-57 -45 -87 -56 -154 -56 -53 0 -69 5 -105 30 -45 30 -98 112 -103 159 -2 22 4 31 40 51 23 13 50 24 58 24 9 0 27 9 41 20 14 11 32 20 39 20 7 0 29 9 49 20 20 11 42 20 49 20 18 0 46 33 46 53 0 22 -47 112 -66 128 -8 6 -14 17 -14 23 0 19 -91 101 -143 130 -52 28 -104 32 -150 12z m116 -136 c37 -22 101 -115 93 -136 -6 -15 -171 -94 -198 -94 -27 0 -48 57 -48 129 0 49 4 65 26 90 31 37 76 41 127 11z"/>
<path d="M13394 8596 c-46 -25 -53 -37 -47 -69 3 -18 14 -43 25 -56 10 -13 18 -29 18 -36 0 -7 14 -41 31 -76 18 -35 35 -73 39 -84 5 -11 26 -59 49 -107 23 -47 41 -92 41 -100 0 -8 6 -20 12 -26 8 -8 12 -42 12 -88 l0 -76 -29 -24 c-20 -16 -43 -24 -68 -24 -48 0 -101 52 -141 141 -16 35 -32 71 -37 79 -10 17 -27 54 -40 88 -5 12 -13 32 -18 45 -5 12 -23 54 -41 92 -18 39 -37 81 -43 95 -23 51 -48 80 -71 80 -24 0 -82 -25 -91 -39 -2 -5 9 -37 26 -72 36 -74 45 -94 55 -129 3 -14 11 -31 17 -38 16 -20 57 -104 57 -116 0 -32 110 -226 158 -278 79 -85 135 -106 196 -75 38 20 126 105 126 123 0 25 28 27 59 5 18 -13 32 -17 36 -11 3 5 14 10 24 10 31 0 53 33 42 63 -5 14 -14 28 -20 31 -12 8 -41 64 -41 80 0 6 -23 58 -51 116 -28 58 -55 114 -59 125 -5 11 -26 59 -49 108 -23 48 -41 91 -41 96 0 4 -17 41 -38 82 -40 78 -57 89 -98 65z"/>
<path d="M12160 8409 c-106 -50 -169 -123 -220 -255 -18 -49 -1 -306 21 -320 5 -3 9 -16 9 -29 0 -13 5 -27 10 -30 6 -3 10 -13 10 -21 0 -22 87 -199 105 -214 8 -7 15 -19 15 -26 0 -23 162 -177 210 -201 44 -21 71 -29 139 -40 58 -9 188 41 256 100 l38 33 -27 42 c-14 23 -30 42 -35 42 -4 0 -26 -13 -47 -28 -25 -18 -65 -34 -106 -42 -69 -14 -77 -12 -163 26 -31 13 -105 87 -141 139 -33 48 -121 228 -127 260 -3 17 -11 50 -17 75 -22 86 -24 177 -5 237 19 61 76 133 106 133 10 0 21 5 24 10 3 6 21 10 39 10 17 0 37 5 44 12 17 17 15 69 -4 96 -21 30 -56 28 -134 -9z"/>
<path d="M12805 8333 c-19 -21 -47 -62 -61 -91 -21 -43 -28 -51 -40 -41 -8 6 -14 19 -14 29 0 39 -26 42 -74 10 -51 -35 -54 -44 -26 -80 11 -14 20 -32 20 -41 0 -9 23 -60 50 -114 28 -54 50 -102 50 -108 0 -5 18 -48 41 -95 96 -202 114 -243 124 -278 3 -11 16 -31 29 -43 l24 -22 45 20 c25 12 48 25 52 30 3 5 -4 26 -15 46 -11 19 -20 41 -20 49 0 7 -27 66 -60 131 -33 65 -60 126 -60 135 0 9 -3 20 -7 23 -16 17 -53 146 -53 190 0 54 10 76 63 132 l37 41 -26 52 c-14 28 -30 54 -35 58 -5 3 -25 -12 -44 -33z"/>
<path d="M11218 8017 c-31 -13 -48 -27 -48 -38 0 -10 27 -75 60 -145 33 -69 60 -128 60 -130 0 -3 18 -43 40 -90 22 -47 40 -88 40 -90 0 -3 23 -52 50 -110 28 -58 50 -109 50 -114 0 -5 8 -24 18 -42 10 -18 25 -51 34 -73 9 -22 36 -83 61 -135 24 -52 47 -105 51 -117 13 -42 30 -46 85 -19 27 14 53 31 56 37 7 11 -16 67 -111 267 -30 62 -54 116 -54 121 0 4 -18 45 -40 90 -22 45 -40 84 -40 87 0 2 -18 43 -40 90 -22 47 -40 88 -40 90 0 3 -17 41 -38 87 -21 45 -45 98 -52 117 -27 69 -66 135 -81 137 -7 0 -35 -8 -61 -20z"/>
<path d="M10892 7483 c-81 -33 -164 -106 -160 -141 2 -14 15 -34 29 -45 l27 -19 56 46 c34 27 68 46 84 47 76 3 96 -7 138 -73 33 -52 31 -74 -8 -94 -44 -22 -136 -112 -153 -149 -43 -96 -43 -158 1 -254 28 -62 73 -114 118 -136 16 -8 57 -15 91 -15 70 0 115 23 150 77 11 17 26 39 32 49 l13 19 16 -22 c9 -13 23 -23 30 -23 17 0 94 47 94 58 0 4 -15 39 -34 77 -46 94 -106 225 -106 233 0 8 -70 157 -107 227 -51 98 -140 166 -216 165 -18 -1 -60 -13 -95 -27z m300 -453 c48 -111 51 -175 10 -222 -52 -57 -123 -35 -168 53 -29 59 -32 132 -6 171 24 37 92 89 111 86 9 -2 32 -40 53 -88z"/>
<path d="M10317 7225 c-65 -24 -97 -55 -128 -121 l-30 -64 -37 20 c-58 32 -91 34 -147 10 -64 -27 -102 -64 -127 -120 l-19 -44 -30 31 -29 32 -38 -15 c-67 -28 -67 -27 3 -169 34 -71 82 -175 105 -230 23 -55 60 -138 83 -185 22 -47 53 -113 68 -147 15 -35 34 -63 41 -63 26 0 103 46 106 62 2 10 -22 70 -52 134 -31 63 -56 119 -56 124 0 4 -9 25 -20 47 -67 130 -103 230 -104 288 -1 75 17 106 71 124 62 21 98 -5 150 -110 61 -122 143 -297 143 -307 0 -4 18 -45 40 -90 22 -44 40 -85 40 -90 0 -5 7 -15 15 -22 11 -9 25 -7 70 15 30 15 55 33 55 39 0 6 -22 58 -50 114 -27 56 -50 106 -50 111 0 4 -13 35 -30 69 -16 34 -30 65 -30 68 0 3 -18 42 -40 88 -34 69 -40 93 -40 145 0 73 18 107 65 120 45 12 79 4 108 -27 26 -27 87 -136 87 -154 0 -5 27 -66 60 -135 33 -69 60 -127 60 -129 0 -3 18 -43 40 -89 25 -54 45 -85 55 -85 24 0 95 39 102 56 3 8 -9 44 -26 80 -17 36 -31 67 -31 70 0 3 -22 53 -50 111 -27 58 -50 108 -50 112 0 3 -18 43 -40 89 -22 45 -40 86 -40 91 0 20 -107 125 -145 142 -47 22 -76 23 -128 4z"/>
<path d="M9268 7073 c-44 -51 -45 -82 -1 -133 35 -42 82 -41 117 1 29 34 32 55 14 94 -22 49 -100 72 -130 38z"/>
<path d="M9398 6803 c-27 -13 -48 -30 -48 -36 0 -7 14 -39 30 -72 17 -33 30 -62 30 -66 0 -4 23 -54 50 -112 28 -58 50 -108 50 -112 0 -3 27 -63 60 -132 33 -69 60 -129 60 -134 0 -4 9 -24 20 -44 11 -20 20 -42 20 -49 0 -7 7 -19 16 -27 13 -10 24 -8 70 14 30 15 54 33 54 41 0 13 -18 55 -86 204 -19 41 -34 76 -34 78 0 2 -18 42 -40 89 -22 47 -40 88 -40 92 0 5 -19 46 -41 93 -23 47 -52 110 -64 140 -27 65 -40 69 -107 33z"/>
<path d="M8946 6610 c-54 -27 -82 -55 -108 -108 l-21 -45 -22 26 c-11 15 -28 27 -36 27 -25 0 -80 -31 -86 -48 -4 -8 12 -51 34 -96 49 -96 123 -254 123 -261 0 -3 18 -43 40 -90 22 -47 40 -87 40 -90 0 -3 17 -42 39 -88 21 -45 42 -92 45 -104 9 -28 47 -30 90 -4 51 29 53 42 18 115 -18 37 -32 70 -32 74 0 4 -18 43 -40 87 -22 44 -40 85 -40 90 0 6 -18 47 -40 93 -22 45 -40 87 -40 94 0 6 -5 26 -12 44 -26 73 31 164 102 164 35 0 94 -51 118 -102 11 -24 41 -87 66 -141 25 -54 46 -100 46 -103 0 -3 20 -48 45 -101 25 -53 48 -106 51 -117 3 -12 13 -32 24 -45 l18 -25 44 19 c55 24 68 34 68 52 0 9 -20 58 -45 110 -25 52 -45 96 -45 99 0 3 -20 48 -45 101 -25 52 -45 98 -45 101 0 20 -90 183 -118 214 -69 76 -156 98 -236 58z"/>
<path d="M8063 6564 l-53 -25 0 -46 c0 -26 4 -60 9 -77 5 -17 14 -53 20 -81 5 -27 15 -72 21 -100 15 -74 41 -196 46 -225 6 -31 19 -101 40 -205 8 -44 20 -102 25 -130 5 -27 18 -93 30 -145 11 -52 23 -110 26 -128 7 -44 25 -49 79 -23 52 26 64 44 53 80 -4 14 -13 53 -20 86 -6 33 -15 71 -19 85 -5 14 -12 48 -15 77 l-7 52 96 46 c52 25 104 45 115 45 21 0 52 -36 146 -168 33 -47 68 -90 77 -96 20 -12 118 29 118 51 0 7 -73 111 -163 231 -89 119 -169 227 -177 239 -8 12 -60 82 -116 155 -55 73 -121 162 -147 198 -72 101 -98 130 -115 129 -10 0 -41 -11 -69 -25z m141 -252 c13 -26 70 -111 126 -190 57 -80 99 -149 96 -157 -3 -8 -27 -24 -53 -35 -26 -12 -58 -26 -70 -32 -27 -13 -39 -5 -45 29 -11 60 -39 189 -47 213 -5 14 -14 50 -21 80 -7 30 -16 60 -20 65 -10 14 -20 72 -13 79 10 10 23 -4 47 -52z"/>
<path d="M7397 5903 c-42 -21 -48 -27 -45 -51 3 -30 4 -30 -65 -18 -57 10 -95 -3 -150 -53 -57 -51 -70 -90 -71 -206 0 -113 15 -168 84 -310 70 -142 205 -255 304 -255 42 0 96 29 141 76 24 26 48 43 54 40 15 -10 37 -62 52 -124 17 -71 -2 -126 -56 -163 -38 -26 -114 -49 -161 -49 -25 0 -27 -5 -24 -55 3 -48 17 -65 53 -65 43 0 152 38 202 70 56 36 110 112 125 176 11 47 11 63 -5 131 -10 43 -29 103 -43 133 -14 30 -38 82 -53 115 -61 134 -89 196 -89 199 0 3 -22 51 -48 108 -27 57 -54 119 -62 138 -7 19 -17 39 -22 45 -4 5 -8 14 -8 21 0 20 -44 113 -55 117 -5 2 -32 -7 -58 -20z m-49 -187 c44 -23 77 -66 121 -156 22 -47 41 -89 41 -93 0 -4 14 -35 30 -69 46 -94 38 -221 -15 -242 -28 -11 -85 -7 -113 8 -31 16 -88 73 -108 108 -48 85 -85 178 -105 270 -28 130 53 224 149 174z"/>
<path d="M5892 5547 c-49 -52 -3 -157 68 -157 5 0 22 12 39 26 24 20 31 34 31 63 0 75 -90 120 -138 68z"/>
<path d="M6585 5551 c-37 -17 -73 -52 -116 -113 l-17 -23 -19 18 c-24 21 -40 21 -87 2 -46 -19 -47 -47 -6 -112 17 -26 30 -52 30 -57 0 -6 14 -38 30 -71 17 -33 30 -62 30 -66 0 -4 23 -54 50 -112 28 -58 50 -108 50 -111 0 -3 27 -61 60 -130 63 -133 71 -141 123 -114 12 6 29 14 37 18 23 11 24 37 1 85 -12 25 -21 47 -21 49 0 3 -22 51 -48 108 -27 57 -55 119 -62 138 -8 19 -22 50 -32 68 -10 18 -18 37 -18 43 0 5 -9 29 -20 51 -47 97 2 208 93 208 29 0 92 -55 114 -100 35 -73 113 -243 113 -246 0 -3 17 -42 39 -87 21 -46 44 -100 51 -119 7 -20 21 -46 30 -58 l16 -21 45 17 c54 21 69 32 69 51 0 9 -20 58 -45 110 -25 52 -45 96 -45 99 0 3 -22 52 -50 110 -27 58 -50 107 -50 110 0 3 -14 35 -32 72 -82 173 -192 237 -313 183z"/>
<path d="M6028 5288 c-20 -12 -39 -27 -42 -34 -3 -7 6 -34 19 -61 22 -46 47 -102 85 -188 10 -22 32 -70 49 -108 17 -37 31 -70 31 -73 0 -2 22 -51 48 -107 27 -56 55 -119 62 -139 8 -21 23 -49 34 -63 l21 -26 53 27 c34 17 52 32 52 44 0 10 -16 53 -35 94 -19 42 -35 79 -35 82 0 3 -27 61 -60 130 -33 68 -60 128 -60 132 0 4 -22 54 -50 110 -27 56 -50 107 -50 112 0 12 -20 48 -39 73 -18 22 -38 21 -83 -5z"/>
<path d="M5547 5252 c-38 -39 -44 -59 -28 -90 39 -78 38 -86 -15 -108 -38 -16 -41 -27 -18 -73 21 -41 35 -46 73 -26 18 9 35 13 40 10 9 -5 71 -128 71 -140 0 -3 18 -43 40 -90 22 -47 40 -87 40 -90 0 -27 100 -205 138 -246 45 -49 50 -51 98 -51 29 0 67 8 90 19 92 45 98 55 64 110 l-20 33 -59 -6 c-56 -6 -61 -5 -87 22 -14 16 -33 45 -41 64 -8 19 -30 67 -49 107 -19 40 -34 75 -34 78 0 3 -22 53 -50 111 -66 138 -65 148 5 180 31 13 58 31 62 40 8 21 -23 84 -41 84 -8 0 -35 -9 -61 -20 -62 -27 -83 -25 -95 5 -29 77 -52 115 -68 115 -10 0 -35 -17 -55 -38z"/>
<path d="M5181 4918 c-19 -5 -54 -23 -79 -40 -81 -55 -128 -198 -102 -310 31 -137 52 -190 115 -288 116 -178 257 -233 410 -159 36 17 83 47 106 68 l42 37 -16 30 c-29 57 -43 61 -87 25 -43 -34 -120 -71 -150 -71 -32 0 -104 36 -131 66 -15 16 -41 54 -58 85 l-31 56 18 16 c10 10 21 17 25 17 6 0 41 16 210 94 42 19 80 42 83 50 15 38 -101 224 -169 273 -41 30 -119 64 -142 62 -5 0 -25 -5 -44 -11z m62 -127 c44 -17 127 -114 127 -149 0 -14 -177 -102 -204 -102 -22 0 -35 31 -42 98 -13 119 38 184 119 153z"/>
<path d="M4664 4676 c-38 -21 -54 -38 -52 -55 3 -13 -9 -16 -73 -16 l-76 0 -45 -37 c-68 -56 -91 -113 -92 -223 0 -92 4 -109 60 -250 54 -138 150 -252 243 -291 18 -8 58 -14 87 -14 62 0 116 29 159 86 15 19 30 32 35 29 22 -14 42 -77 47 -147 5 -66 3 -81 -15 -110 -27 -44 -61 -61 -162 -82 l-55 -12 -3 -36 c-2 -21 2 -47 8 -59 11 -20 17 -21 72 -15 199 23 347 201 299 360 -6 17 -16 54 -24 81 -15 50 -71 179 -147 340 -22 47 -40 87 -40 91 0 3 -22 53 -50 111 -27 58 -50 109 -50 114 0 5 -4 17 -9 27 -5 9 -18 40 -28 67 -21 54 -46 66 -89 41z m-45 -200 c45 -24 79 -78 147 -234 54 -123 64 -155 64 -203 0 -92 -54 -136 -135 -109 -112 37 -256 334 -229 474 14 75 83 108 153 72z"/>
<path d="M4092 4430 c-33 -20 -47 -41 -73 -105 -18 -44 -36 -55 -46 -28 -3 10 -12 25 -20 35 -14 15 -18 15 -63 -4 -57 -24 -66 -40 -42 -76 18 -26 63 -117 97 -197 10 -22 37 -81 61 -132 24 -50 44 -94 44 -97 0 -3 22 -52 48 -108 27 -57 54 -117 61 -135 22 -54 33 -57 90 -29 27 14 53 30 56 36 4 6 -4 34 -18 63 -13 29 -44 95 -67 147 -40 91 -65 146 -105 235 -24 53 -31 137 -15 186 8 25 28 52 52 70 21 17 38 36 38 42 0 19 -44 106 -56 111 -6 2 -25 -4 -42 -14z"/>
<path d="M2980 4278 c-14 -6 -62 -28 -108 -49 -45 -22 -86 -39 -90 -39 -4 0 -50 -21 -102 -46 -52 -26 -106 -50 -120 -54 -42 -11 -40 -87 4 -115 21 -14 28 -13 100 21 43 19 83 33 89 31 12 -4 57 -82 57 -97 0 -4 25 -60 56 -125 30 -65 64 -138 74 -164 10 -25 34 -79 54 -118 20 -40 36 -75 36 -78 0 -3 16 -40 36 -82 20 -43 43 -96 51 -118 9 -22 20 -44 25 -50 4 -5 8 -17 8 -27 0 -9 9 -22 19 -28 24 -12 111 -13 131 0 18 11 9 40 -61 188 -27 57 -49 106 -49 110 0 4 -18 44 -40 90 -22 45 -40 84 -40 87 0 3 -13 33 -30 67 -16 34 -30 65 -30 69 0 4 -25 61 -56 126 -31 65 -65 139 -75 165 l-18 47 27 19 c15 11 38 22 52 25 14 4 40 16 58 27 36 22 41 49 16 98 -16 34 -32 38 -74 20z"/>
<path d="M3395 4116 c-33 -19 -80 -55 -104 -80 l-44 -45 24 -30 c36 -45 47 -45 94 -2 44 41 111 67 145 56 44 -14 110 -94 110 -134 0 -6 -21 -24 -47 -42 -57 -38 -123 -99 -123 -114 0 -5 -9 -21 -20 -35 -16 -20 -20 -41 -20 -114 0 -80 3 -93 32 -149 20 -38 50 -74 81 -99 44 -34 54 -38 108 -38 33 0 69 6 82 12 33 19 97 80 97 94 0 6 7 17 15 24 13 10 19 10 33 -4 10 -9 24 -16 31 -16 18 0 91 39 91 49 0 5 -34 79 -75 166 -41 86 -75 158 -75 161 0 8 -61 141 -91 199 -88 167 -210 217 -344 141z m304 -405 c36 -66 61 -142 61 -189 0 -54 -41 -102 -88 -102 -96 0 -169 173 -109 261 25 37 84 81 101 76 6 -2 22 -23 35 -46z"/>
</g>
</g>
  <g id="id4:id4" transform="matrix(1.25,0,0,1.25,0.0,0.0)"><g transform="translate(0.000000,694.400000) scale(0.040000,-0.040000)" fill="#967349" stroke="none">
<path d="M7653 13560 c-12 -5 -29 -26 -38 -47 -8 -21 -18 -43 -22 -49 -61 -87 -63 -93 -63 -161 0 -55 5 -75 24 -103 13 -19 40 -70 61 -113 21 -43 46 -82 56 -88 11 -5 19 -18 19 -29 0 -11 22 -52 50 -92 27 -40 80 -118 116 -173 37 -55 76 -111 88 -125 12 -14 35 -44 51 -68 16 -24 41 -52 57 -63 15 -11 28 -25 28 -30 0 -17 45 -79 58 -79 7 0 16 -10 21 -22 5 -13 30 -43 55 -68 25 -24 46 -50 46 -57 0 -7 5 -13 11 -13 6 0 38 -28 73 -62 131 -132 319 -298 337 -298 6 0 23 -12 38 -27 15 -16 53 -41 84 -56 31 -16 61 -35 68 -43 6 -8 15 -14 19 -14 4 0 34 -16 66 -35 32 -19 70 -35 85 -35 14 0 32 -7 39 -15 7 -8 18 -15 24 -15 7 0 31 -9 54 -20 22 -11 54 -20 69 -20 15 -1 39 -7 53 -15 14 -8 48 -14 76 -15 27 0 55 -5 61 -11 15 -15 307 -16 325 -2 7 6 47 13 88 16 82 7 139 24 168 50 10 9 30 17 44 17 27 0 170 67 176 82 2 5 19 15 37 22 95 40 97 82 13 248 -105 208 -170 308 -314 478 -72 86 -236 250 -250 250 -5 1 -29 21 -54 45 -25 25 -48 45 -53 45 -6 0 -67 45 -153 115 -18 14 -35 25 -39 25 -3 0 -21 11 -39 25 -18 14 -42 25 -54 25 -12 0 -25 6 -29 13 -8 13 -36 30 -115 70 -26 14 -62 34 -80 45 -18 11 -67 34 -108 51 -42 16 -89 37 -105 45 -17 9 -42 16 -56 16 -15 0 -32 6 -38 14 -18 22 -97 56 -130 56 -16 0 -34 6 -40 14 -6 7 -37 21 -69 30 -31 10 -64 21 -72 27 -8 5 -19 11 -25 13 -141 47 -277 86 -300 86 -16 0 -43 9 -60 20 -16 11 -38 20 -48 20 -9 0 -25 4 -35 9 -31 17 -187 61 -217 61 -16 0 -36 6 -44 14 -22 20 -62 27 -88 16z"/>
<path d="M7050 13190 c-8 -5 -27 -10 -42 -10 -15 0 -53 -11 -84 -25 -31 -14 -62 -25 -69 -25 -20 0 -254 -120 -307 -157 -26 -18 -54 -33 -61 -33 -7 0 -41 -20 -77 -45 -36 -25 -81 -56 -100 -69 -60 -41 -246 -216 -332 -314 -54 -61 -70 -56 -27 8 16 24 32 55 36 69 3 15 19 40 35 58 17 17 35 40 42 51 29 52 111 166 147 204 21 23 39 46 39 50 0 12 -70 54 -115 68 -104 33 -133 43 -172 61 -24 11 -43 23 -43 29 0 5 14 16 30 25 17 9 30 23 30 31 0 14 -10 15 -72 10 -106 -8 -122 -11 -228 -46 -30 -10 -80 -25 -110 -34 -30 -9 -64 -21 -75 -25 -11 -5 -51 -21 -90 -36 -93 -36 -94 -36 -220 -95 -173 -80 -234 -111 -246 -126 -6 -8 -17 -14 -24 -14 -8 0 -45 -17 -84 -37 -107 -57 -123 -66 -156 -89 -16 -11 -46 -28 -66 -37 -20 -9 -42 -23 -49 -32 -7 -8 -17 -15 -21 -15 -5 0 -42 -22 -82 -49 -39 -26 -99 -65 -132 -86 -33 -21 -78 -54 -101 -72 -23 -18 -44 -33 -47 -33 -25 0 -537 -445 -537 -467 0 -6 -6 -16 -14 -20 -17 -10 -116 -125 -116 -135 0 -17 29 -6 71 26 75 58 119 79 136 65 17 -15 150 -179 209 -259 22 -30 53 -73 70 -95 16 -22 34 -49 40 -60 21 -40 39 -70 50 -85 7 -8 27 -44 46 -80 19 -36 39 -74 45 -85 6 -11 21 -42 33 -70 12 -27 31 -67 41 -88 11 -22 19 -47 19 -57 0 -11 4 -21 9 -24 5 -3 11 -20 14 -38 9 -55 18 -92 27 -113 23 -54 40 -406 20 -430 -8 -10 -8 -19 -1 -33 24 -45 51 -32 161 78 124 124 331 367 418 492 26 37 73 105 105 150 32 46 104 154 160 240 56 86 125 192 152 234 28 42 53 82 57 88 7 10 92 156 128 218 21 36 63 107 75 127 9 15 42 70 120 203 17 29 33 51 38 50 10 -3 8 -8 -23 -77 -23 -52 -44 -123 -79 -275 -11 -47 -6 -332 7 -395 23 -113 78 -273 103 -299 5 -6 9 -18 9 -28 0 -11 8 -31 19 -46 20 -30 50 -76 66 -101 16 -26 63 -93 87 -127 51 -69 271 -287 333 -330 22 -15 66 -46 99 -68 86 -60 160 -105 172 -106 6 0 21 -11 34 -25 13 -14 28 -25 33 -25 5 0 20 -9 33 -19 14 -11 42 -22 64 -26 22 -4 43 -13 47 -20 11 -17 87 -55 112 -55 11 0 23 -4 26 -10 9 -14 104 -60 125 -60 10 0 22 -5 25 -10 7 -12 79 -46 117 -55 14 -4 47 -18 74 -31 26 -13 55 -24 65 -24 9 0 41 -11 71 -25 29 -14 60 -25 69 -25 8 0 34 -9 57 -20 22 -11 54 -20 70 -20 16 0 35 -7 42 -15 7 -8 21 -15 31 -15 19 0 112 -27 214 -62 57 -19 90 -28 180 -48 22 -5 72 -17 110 -28 39 -11 95 -23 125 -27 30 -4 63 -11 72 -16 21 -11 66 -19 138 -25 30 -3 64 -9 75 -14 19 -8 54 -14 240 -41 182 -26 807 -40 930 -21 173 28 192 35 214 75 9 16 11 40 7 68 -4 24 -11 78 -16 119 -15 120 -16 124 -31 158 -15 34 -32 37 -38 6 -6 -31 -77 -127 -124 -166 -65 -54 -119 -77 -205 -89 -100 -13 -175 -4 -292 33 -141 45 -323 148 -340 192 -4 12 -16 83 -25 157 -15 124 -16 143 -1 254 16 122 59 261 104 335 18 29 33 38 99 58 43 13 123 35 177 47 54 13 106 30 114 39 17 17 9 34 -44 93 -16 17 -60 66 -99 110 -164 183 -552 557 -749 721 -28 24 -74 64 -103 89 -29 26 -60 51 -70 56 -10 6 -33 25 -52 43 -19 19 -39 34 -45 34 -6 0 -24 14 -41 32 -16 17 -55 49 -85 71 -30 23 -72 56 -93 74 -20 18 -43 33 -51 33 -7 0 -21 12 -31 26 -9 14 -29 31 -44 37 -15 7 -33 18 -41 24 -94 80 -149 123 -156 123 -5 0 -31 20 -57 43 -33 31 -47 52 -47 70 0 15 -11 52 -25 83 -14 31 -25 63 -25 70 0 8 -4 22 -9 32 -5 9 -17 33 -26 52 -34 71 -49 96 -77 128 -15 18 -28 36 -28 41 0 15 -105 128 -160 172 -112 91 -129 99 -160 79z m-1126 -751 c-3 -5 -10 -7 -15 -3 -5 3 -7 10 -3 15 3 5 10 7 15 3 5 -3 7 -10 3 -15z m738 -63 c79 -20 121 -40 181 -84 70 -52 95 -83 144 -178 63 -122 77 -195 70 -376 -8 -234 -55 -355 -168 -434 -39 -27 -50 -29 -128 -29 -78 0 -93 3 -161 36 -58 27 -94 55 -159 120 -179 179 -258 358 -268 612 l-6 129 74 72 c75 72 165 126 214 126 13 0 27 5 30 10 9 15 115 12 177 -4z"/>
<path d="M9900 10250 c0 -67 4 -110 10 -110 6 0 10 43 10 110 0 67 -4 110 -10 110 -6 0 -10 -43 -10 -110z"/>
<path d="M9887 10093 c-11 -10 -8 -53 3 -53 6 0 10 14 10 30 0 31 -2 35 -13 23z"/>
</g>
</g>
  <g id="id5:id5" transform="matrix(1.25,0,0,1.25,0.0,0.0)"><g transform="translate(0.000000,694.400000) scale(0.040000,-0.040000)" fill="#231f20" stroke="none">
<path d="M6490 12401 c-8 -6 -25 -11 -38 -11 -51 0 -191 -88 -244 -152 -60 -73 -61 -80 -55 -208 12 -225 96 -422 251 -587 64 -69 116 -107 210 -155 54 -28 71 -32 146 -32 74 0 90 3 125 26 87 55 151 162 179 300 23 109 21 302 -3 395 -48 186 -196 353 -361 407 -65 22 -189 31 -210 17z"/>
<path d="M9355 10853 c-87 -13 -312 -71 -355 -93 -22 -11 -75 -114 -105 -204 -15 -44 -33 -130 -41 -190 -13 -99 -13 -125 1 -240 9 -71 22 -143 29 -161 12 -28 82 -84 155 -123 13 -6 44 -23 70 -37 62 -33 185 -72 266 -85 147 -23 306 23 397 117 53 54 118 171 118 212 0 15 6 33 12 39 16 16 20 291 5 336 -57 176 -127 274 -251 354 -27 18 -57 32 -67 32 -10 0 -20 4 -23 9 -3 4 -25 11 -48 15 -24 3 -65 9 -93 14 -27 4 -59 6 -70 5z"/>
<path d="M5010 10241 c-8 -4 -26 -14 -40 -21 -14 -8 -58 -30 -97 -51 -40 -21 -86 -47 -102 -58 -16 -12 -34 -21 -40 -21 -6 0 -11 -4 -11 -10 0 -5 -12 -16 -27 -25 -73 -41 -200 -131 -288 -203 -218 -180 -545 -488 -545 -514 0 -17 15 -18 219 -18 245 0 247 1 361 75 88 57 196 155 271 245 34 41 66 78 71 81 5 3 17 18 26 31 9 14 44 66 77 114 33 49 79 132 103 184 23 52 47 102 52 111 5 9 12 33 15 53 6 31 5 36 -11 35 -11 0 -26 -4 -34 -8z"/>
<path d="M1588 10103 c-31 -8 -20 -19 45 -47 34 -15 69 -31 77 -35 10 -5 18 -39 26 -103 49 -388 251 -603 644 -684 103 -22 450 -30 605 -14 66 6 144 14 173 17 29 3 55 10 58 15 16 26 -134 227 -258 343 -201 190 -510 348 -836 431 -122 30 -190 44 -378 74 -62 10 -125 11 -156 3z"/>
<path d="M3725 8609 c-58 -16 -75 -42 -75 -115 0 -36 7 -91 16 -122 36 -126 136 -281 180 -282 31 0 163 138 282 293 53 70 69 105 58 132 -6 17 -109 66 -188 90 -56 16 -222 19 -273 4z"/>
</g>
</g>
  <g id="id6:id6" transform="matrix(1.25,0,0,1.25,0.0,0.0)"><g transform="translate(0.000000,694.400000) scale(0.040000,-0.040000)" fill="#f0f0f0" stroke="none">
<path d="M13925 8730 c3 -5 15 -10 26 -10 10 0 19 5 19 10 0 6 -12 10 -26 10 -14 0 -23 -4 -19 -10z"/>
<path d="M13877 8706 c-4 -10 -1 -13 9 -9 7 3 14 9 14 14 0 14 -17 10 -23 -5z"/>
<path d="M11260 8029 c0 -5 5 -7 10 -4 6 3 10 8 10 11 0 2 -4 4 -10 4 -5 0 -10 -5 -10 -11z"/>
<path d="M13580 7950 c0 -11 5 -20 10 -20 6 0 10 9 10 20 0 11 -4 20 -10 20 -5 0 -10 -9 -10 -20z"/>
<path d="M12520 7410 c0 -5 7 -10 15 -10 8 0 15 5 15 10 0 6 -7 10 -15 10 -8 0 -15 -4 -15 -10z"/>
<path d="M11084 7105 c-21 -20 -30 -32 -18 -26 11 5 26 17 34 25 7 9 23 16 37 16 14 0 21 4 18 10 -11 18 -31 11 -71 -25z"/>
<path d="M10565 7090 c3 -5 8 -10 11 -10 2 0 4 5 4 10 0 6 -5 10 -11 10 -5 0 -7 -4 -4 -10z"/>
<path d="M10001 7076 c10 -9 79 -14 79 -5 0 5 -19 9 -42 9 -23 0 -39 -2 -37 -4z"/>
<path d="M11180 7050 c0 -5 5 -10 10 -10 6 0 10 5 10 10 0 6 -4 10 -10 10 -5 0 -10 -4 -10 -10z"/>
<path d="M10151 7041 c-10 -7 -10 -10 -1 -16 6 -4 16 -3 22 3 13 13 -4 23 -21 13z"/>
<path d="M11007 7013 c-4 -3 -7 -11 -7 -17 0 -6 5 -5 12 2 6 6 9 14 7 17 -3 3 -9 2 -12 -2z"/>
<path d="M11200 7005 c0 -8 5 -15 10 -15 6 0 10 7 10 15 0 8 -4 15 -10 15 -5 0 -10 -7 -10 -15z"/>
<path d="M10231 6974 c0 -11 3 -14 6 -6 3 7 2 16 -1 19 -3 4 -6 -2 -5 -13z"/>
<path d="M11220 6951 c0 -11 5 -23 10 -26 6 -3 10 3 10 14 0 11 -4 23 -10 26 -5 3 -10 -3 -10 -14z"/>
<path d="M11000 6906 c0 -9 5 -16 10 -16 6 0 10 4 10 9 0 6 -4 13 -10 16 -5 3 -10 -1 -10 -9z"/>
<path d="M10880 6876 c0 -9 5 -16 10 -16 6 0 10 4 10 9 0 6 -4 13 -10 16 -5 3 -10 -1 -10 -9z"/>
<path d="M11040 6830 c11 -16 34 -38 49 -50 30 -21 91 -28 91 -10 0 6 -18 10 -39 10 -31 0 -46 7 -70 31 -17 17 -31 35 -31 40 0 5 -5 9 -11 9 -6 0 -1 -13 11 -30z"/>
<path d="M11225 6845 c-5 -11 -15 -29 -24 -39 l-16 -19 23 12 c26 14 36 33 29 53 -3 9 -7 6 -12 -7z"/>
<path d="M9880 6821 c0 -17 5 -33 10 -36 6 -4 10 8 10 29 0 20 -4 36 -10 36 -5 0 -10 -13 -10 -29z"/>
<path d="M11295 6811 c-6 -11 9 -23 19 -14 9 9 7 23 -3 23 -6 0 -12 -4 -16 -9z"/>
<path d="M8180 6530 c0 -5 5 -10 10 -10 6 0 10 5 10 10 0 6 -4 10 -10 10 -5 0 -10 -4 -10 -10z"/>
<path d="M8813 6463 c-18 -7 -16 -23 2 -23 8 0 15 7 15 15 0 8 -1 15 -2 14 -2 0 -9 -3 -15 -6z"/>
<path d="M9880 6455 c0 -8 5 -15 10 -15 6 0 10 7 10 15 0 8 -4 15 -10 15 -5 0 -10 -7 -10 -15z"/>
<path d="M8880 6410 c0 -5 5 -10 10 -10 6 0 10 5 10 10 0 6 -4 10 -10 10 -5 0 -10 -4 -10 -10z"/>
<path d="M8130 6384 c0 -9 5 -14 12 -12 18 6 21 28 4 28 -9 0 -16 -7 -16 -16z"/>
<path d="M8220 6280 c0 -6 28 -52 63 -101 149 -217 148 -214 116 -230 -8 -4 -27 -12 -44 -19 -16 -7 -38 -17 -49 -22 -12 -6 -22 -6 -29 1 -12 12 -45 153 -50 208 -2 18 -8 38 -15 45 -7 7 -12 24 -12 38 0 29 -21 80 -32 80 -10 0 -12 9 18 -121 26 -111 39 -174 51 -234 3 -16 12 -38 21 -47 14 -17 17 -17 51 1 20 10 62 31 94 46 31 14 57 32 57 38 0 7 -23 44 -52 82 -28 39 -71 96 -95 129 -24 32 -51 71 -60 87 -17 29 -33 38 -33 19z"/>
<path d="M9680 6030 c0 -5 5 -10 10 -10 6 0 10 5 10 10 0 6 -4 10 -10 10 -5 0 -10 -4 -10 -10z"/>
<path d="M9355 5870 c3 -5 10 -10 16 -10 5 0 9 5 9 10 0 6 -7 10 -16 10 -8 0 -12 -4 -9 -10z"/>
<path d="M8140 5835 c0 -8 5 -15 10 -15 6 0 10 7 10 15 0 8 -4 15 -10 15 -5 0 -10 -7 -10 -15z"/>
<path d="M7240 5830 c0 -5 9 -10 20 -10 11 0 20 5 20 10 0 6 -9 10 -20 10 -11 0 -20 -4 -20 -10z"/>
<path d="M7348 5826 c-25 -18 -22 -26 7 -26 18 0 25 5 25 20 0 23 -8 25 -32 6z"/>
<path d="M8280 5735 c0 -14 5 -25 10 -25 6 0 10 11 10 25 0 14 -4 25 -10 25 -5 0 -10 -11 -10 -25z"/>
<path d="M8160 5735 c0 -8 5 -15 10 -15 6 0 10 7 10 15 0 8 -4 15 -10 15 -5 0 -10 -7 -10 -15z"/>
<path d="M8180 5636 c0 -9 5 -16 10 -16 6 0 10 4 10 9 0 6 -4 13 -10 16 -5 3 -10 -1 -10 -9z"/>
<path d="M7060 5570 c0 -27 5 -50 10 -50 6 0 10 23 10 50 0 28 -4 50 -10 50 -5 0 -10 -22 -10 -50z"/>
<path d="M8740 5590 c0 -5 5 -10 10 -10 6 0 10 5 10 10 0 6 -4 10 -10 10 -5 0 -10 -4 -10 -10z"/>
<path d="M7180 5545 c0 -8 5 -15 10 -15 6 0 10 7 10 15 0 8 -4 15 -10 15 -5 0 -10 -7 -10 -15z"/>
<path d="M8320 5545 c0 -8 5 -15 10 -15 6 0 10 7 10 15 0 8 -4 15 -10 15 -5 0 -10 -7 -10 -15z"/>
<path d="M8200 5536 c0 -9 5 -16 10 -16 6 0 10 4 10 9 0 6 -4 13 -10 16 -5 3 -10 -1 -10 -9z"/>
<path d="M8340 5450 c0 -5 5 -10 10 -10 6 0 10 5 10 10 0 6 -4 10 -10 10 -5 0 -10 -4 -10 -10z"/>
<path d="M6426 5422 c-3 -5 1 -17 8 -27 16 -22 49 -13 44 12 -3 19 -42 30 -52 15z"/>
<path d="M8240 5370 c0 -5 9 -10 20 -10 11 0 20 5 20 10 0 6 -9 10 -20 10 -11 0 -20 -4 -20 -10z"/>
<path d="M6520 5350 c0 -5 5 -10 10 -10 6 0 10 5 10 10 0 6 -4 10 -10 10 -5 0 -10 -4 -10 -10z"/>
<path d="M7745 5250 c3 -5 8 -10 11 -10 2 0 4 5 4 10 0 6 -5 10 -11 10 -5 0 -7 -4 -4 -10z"/>
<path d="M7620 5161 c-18 -35 -12 -51 20 -51 21 0 30 5 30 16 0 21 -18 54 -30 54 -5 0 -14 -9 -20 -19z"/>
<path d="M7798 5145 c-8 -8 3 -55 13 -55 5 0 9 14 9 30 0 28 -9 38 -22 25z"/>
<path d="M7400 5030 c0 -5 5 -10 10 -10 6 0 10 5 10 10 0 6 -4 10 -10 10 -5 0 -10 -4 -10 -10z"/>
<path d="M7820 5025 c0 -8 5 -15 10 -15 6 0 10 7 10 15 0 8 -4 15 -10 15 -5 0 -10 -7 -10 -15z"/>
<path d="M7700 5016 c0 -9 5 -16 10 -16 6 0 10 4 10 9 0 6 -4 13 -10 16 -5 3 -10 -1 -10 -9z"/>
<path d="M5520 4950 c0 -5 5 -10 10 -10 6 0 10 5 10 10 0 6 -4 10 -10 10 -5 0 -10 -4 -10 -10z"/>
<path d="M5185 4910 c4 -6 11 -8 16 -5 14 9 11 15 -7 15 -8 0 -12 -5 -9 -10z"/>
<path d="M7820 4910 c0 -5 5 -10 10 -10 6 0 10 5 10 10 0 6 -4 10 -10 10 -5 0 -10 -4 -10 -10z"/>
<path d="M7100 4870 c0 -5 5 -10 10 -10 6 0 10 5 10 10 0 6 -4 10 -10 10 -5 0 -10 -4 -10 -10z"/>
<path d="M5190 4810 c0 -5 7 -10 15 -10 8 0 15 5 15 10 0 6 -7 10 -15 10 -8 0 -15 -4 -15 -10z"/>
<path d="M7540 4790 c0 -5 7 -10 15 -10 8 0 15 5 15 10 0 6 -7 10 -15 10 -8 0 -15 -4 -15 -10z"/>
<path d="M7460 4743 c0 -23 5 -45 10 -48 13 -8 13 55 0 75 -7 11 -10 4 -10 -27z"/>
<path d="M5000 4705 c0 -8 5 -15 10 -15 6 0 10 7 10 15 0 8 -4 15 -10 15 -5 0 -10 -7 -10 -15z"/>
<path d="M5100 4670 c0 -22 5 -40 10 -40 6 0 10 18 10 40 0 22 -4 40 -10 40 -5 0 -10 -18 -10 -40z"/>
<path d="M7555 4690 c-3 -5 1 -10 9 -10 9 0 16 5 16 10 0 6 -4 10 -9 10 -6 0 -13 -4 -16 -10z"/>
<path d="M4615 4610 c-3 -5 -15 -10 -26 -10 -28 0 -23 -14 10 -27 33 -12 41 -8 41 18 0 21 -16 34 -25 19z"/>
<path d="M4460 4589 c0 -5 5 -7 10 -4 6 3 10 8 10 11 0 2 -4 4 -10 4 -5 0 -10 -5 -10 -11z"/>
<path d="M6335 4510 c-3 -5 1 -10 10 -10 9 0 13 5 10 10 -3 6 -8 10 -10 10 -2 0 -7 -4 -10 -10z"/>
<path d="M4590 4490 c0 -5 7 -10 15 -10 8 0 15 5 15 10 0 6 -7 10 -15 10 -8 0 -15 -4 -15 -10z"/>
<path d="M5305 4490 c-3 -5 -1 -10 4 -10 6 0 11 5 11 10 0 6 -2 10 -4 10 -3 0 -8 -4 -11 -10z"/>
<path d="M5990 4490 c0 -5 20 -10 45 -10 25 0 45 5 45 10 0 6 -20 10 -45 10 -25 0 -45 -4 -45 -10z"/>
<path d="M5265 4470 c-3 -5 -1 -10 4 -10 6 0 11 5 11 10 0 6 -2 10 -4 10 -3 0 -8 -4 -11 -10z"/>
<path d="M4100 4430 c0 -5 4 -10 9 -10 6 0 13 5 16 10 3 6 -1 10 -9 10 -9 0 -16 -4 -16 -10z"/>
<path d="M5185 4420 c-3 -5 -1 -10 4 -10 6 0 11 5 11 10 0 6 -2 10 -4 10 -3 0 -8 -4 -11 -10z"/>
<path d="M4444 4387 c-2 -7 0 -24 5 -38 9 -22 10 -21 10 14 1 37 -5 48 -15 24z"/>
<path d="M4320 4340 c0 -22 5 -40 10 -40 6 0 10 18 10 40 0 22 -4 40 -10 40 -5 0 -10 -18 -10 -40z"/>
<path d="M5920 4370 c0 -5 5 -10 11 -10 5 0 7 5 4 10 -3 6 -8 10 -11 10 -2 0 -4 -4 -4 -10z"/>
<path d="M5970 4350 c0 -5 9 -10 20 -10 11 0 20 5 20 10 0 6 -9 10 -20 10 -11 0 -20 -4 -20 -10z"/>
<path d="M3855 4310 c-3 -5 1 -10 9 -10 9 0 16 5 16 10 0 6 -4 10 -9 10 -6 0 -13 -4 -16 -10z"/>
<path d="M3983 4274 c-8 -21 13 -42 28 -27 13 13 5 43 -11 43 -6 0 -13 -7 -17 -16z"/>
<path d="M3840 4270 c0 -5 5 -10 11 -10 5 0 7 5 4 10 -3 6 -8 10 -11 10 -2 0 -4 -4 -4 -10z"/>
<path d="M2985 4150 c-3 -5 -1 -10 4 -10 6 0 11 5 11 10 0 6 -2 10 -4 10 -3 0 -8 -4 -11 -10z"/>
<path d="M3940 4070 c0 -5 5 -10 11 -10 5 0 7 5 4 10 -3 6 -8 10 -11 10 -2 0 -4 -4 -4 -10z"/>
<path d="M2540 4010 c0 -5 5 -10 11 -10 5 0 7 5 4 10 -3 6 -8 10 -11 10 -2 0 -4 -4 -4 -10z"/>
<path d="M4880 3915 c0 -20 5 -25 25 -25 26 0 29 7 19 34 -10 27 -44 20 -44 -9z"/>
<path d="M4705 3910 c3 -5 17 -10 31 -10 13 0 24 5 24 10 0 6 -14 10 -31 10 -17 0 -28 -4 -24 -10z"/>
<path d="M3620 3880 c0 -11 5 -20 10 -20 6 0 10 9 10 20 0 11 -4 20 -10 20 -5 0 -10 -9 -10 -20z"/>
<path d="M4960 3729 c0 -44 4 -68 10 -64 6 3 10 35 10 71 0 36 -4 64 -10 64 -6 0 -10 -30 -10 -71z"/>
<path d="M3597 3740 c-25 -23 -53 -55 -61 -72 -18 -34 -21 -99 -7 -126 5 -9 16 -33 25 -53 15 -35 33 -54 73 -76 40 -23 71 -15 113 27 36 36 40 45 40 90 0 28 -4 58 -9 68 -18 35 -69 148 -75 165 -9 29 -50 20 -99 -23z m110 -49 c18 -34 33 -71 33 -81 0 -10 5 -22 10 -25 16 -10 12 -83 -6 -111 -10 -14 -30 -32 -46 -40 -27 -14 -32 -13 -69 8 -37 21 -46 33 -78 111 -15 38 -14 72 4 106 17 33 94 103 109 98 5 -2 24 -31 43 -66z"/>
<path d="M5086 3681 c-4 -7 -5 -15 -2 -18 9 -9 19 4 14 18 -4 11 -6 11 -12 0z"/>
<path d="M3420 3670 c0 -5 5 -10 10 -10 6 0 10 5 10 10 0 6 -4 10 -10 10 -5 0 -10 -4 -10 -10z"/>
<path d="M4840 3569 c0 -5 5 -7 10 -4 6 3 10 8 10 11 0 2 -4 4 -10 4 -5 0 -10 -5 -10 -11z"/>
<path d="M4730 3541 c-13 -24 -13 -61 -1 -61 6 0 11 14 13 32 2 25 9 34 28 39 l25 7 -27 1 c-17 1 -31 -6 -38 -18z"/>
<path d="M3420 3470 c0 -5 5 -10 10 -10 6 0 10 5 10 10 0 6 -4 10 -10 10 -5 0 -10 -4 -10 -10z"/>
<path d="M3815 3439 c-9 -27 -2 -33 30 -25 22 6 24 9 15 26 -14 26 -37 25 -45 -1z"/>
<path d="M3965 3450 c-3 -5 -1 -10 4 -10 6 0 11 5 11 10 0 6 -2 10 -4 10 -3 0 -8 -4 -11 -10z"/>
<path d="M4740 3450 c0 -5 14 -10 30 -10 17 0 30 5 30 10 0 6 -13 10 -30 10 -16 0 -30 -4 -30 -10z"/>
<path d="M3160 3150 c0 -5 5 -10 10 -10 6 0 10 5 10 10 0 6 -4 10 -10 10 -5 0 -10 -4 -10 -10z"/>
</g>
</g>
</svg>
