<svg xmlns="http://www.w3.org/2000/svg" version="1.0" width="1306.000000pt" height="1154.000000pt" viewBox="0 0 1306.000000 1154.000000" preserveAspectRatio="xMidYMid meet">
  <g transform="translate(0.000000,1154.000000) scale(0.100000,-0.100000)" stroke="none">
    <path stroke="none" d="M 6480.0,11436.0 L 6480.0,11380.0 L 6516.0,11380.0 C 6578.0,11380.0 6579.0,11375.0 6580.0,11094.0 C 6580.0,10904.0 6577.0,10840.0 6567.0,10832.0 C 6561.0,10826.0 6539.0,10820.0 6520.0,10818.0 L 6485.0,10815.0 L 6485.0,10760.0 L 6485.0,10705.0 L 6735.0,10702.0 C 7084.0,10698.0 7149.0,10714.0 7208.0,10817.0 C 7228.0,10854.0 7223.0,10979.0 7200.0,11017.0 C 7182.0,11048.0 7112.0,11100.0 7090.0,11100.0 C 7085.0,11100.0 7080.0,11105.0 7080.0,11110.0 C 7080.0,11116.0 7085.0,11120.0 7091.0,11120.0 C 7115.0,11120.0 7163.0,11165.0 7181.0,11204.0 C 7232.0,11317.0 7160.0,11440.0 7025.0,11469.0 C 6998.0,11474.0 6864.0,11482.0 6728.0,11485.0 L 6480.0,11491.0 L 6480.0,11436.0M 6951.0,11349.0 C 6976.0,11322.0 6980.0,11310.0 6980.0,11260.0 C 6980.0,11214.0 6976.0,11198.0 6956.0,11177.0 C 6930.0,11149.0 6884.0,11136.0 6829.0,11142.0 L 6795.0,11145.0 L 6792.0,11230.0 C 6790.0,11277.0 6792.0,11330.0 6795.0,11348.0 C 6801.0,11380.0 6801.0,11380.0 6861.0,11380.0 C 6916.0,11380.0 6925.0,11377.0 6951.0,11349.0 M 6945.0,11048.0 C 6985.0,11028.0 7000.0,10998.0 7000.0,10935.0 C 7000.0,10895.0 6994.0,10867.0 6984.0,10851.0 C 6952.0,10806.0 6855.0,10784.0 6814.0,10814.0 C 6798.0,10826.0 6795.0,10843.0 6792.0,10935.0 C 6790.0,10993.0 6791.0,11048.0 6794.0,11056.0 C 6799.0,11069.0 6811.0,11071.0 6863.0,11065.0 C 6897.0,11061.0 6934.0,11053.0 6945.0,11048.0" fill="#000000" id="000000-000001"/>
    <path stroke="none" d="M 4922.0,11418.0 C 4847.0,11382.0 4816.0,11329.0 4803.0,11213.0 C 4797.0,11163.0 4796.0,11160.0 4768.0,11160.0 C 4740.0,11160.0 4739.0,11158.0 4742.0,11118.0 C 4745.0,11080.0 4748.0,11075.0 4770.0,11075.0 L 4795.0,11075.0 L 4798.0,10911.0 C 4801.0,10740.0 4797.0,10724.0 4757.0,10718.0 C 4738.0,10715.0 4735.0,10709.0 4735.0,10670.0 C 4735.0,10626.0 4736.0,10625.0 4765.0,10627.0 C 4782.0,10628.0 4840.0,10632.0 4895.0,10635.0 C 5064.0,10645.0 5060.0,10644.0 5060.0,10695.0 C 5060.0,10736.0 5058.0,10740.0 5035.0,10740.0 C 5021.0,10740.0 5006.0,10748.0 5000.0,10759.0 C 4985.0,10787.0 4987.0,11073.0 5002.0,11088.0 C 5009.0,11095.0 5024.0,11100.0 5037.0,11100.0 C 5057.0,11100.0 5060.0,11105.0 5060.0,11140.0 C 5060.0,11179.0 5059.0,11180.0 5026.0,11180.0 C 4987.0,11180.0 4980.0,11191.0 4980.0,11255.0 C 4980.0,11329.0 5009.0,11379.0 5053.0,11380.0 C 5074.0,11380.0 5076.0,11364.0 5055.0,11356.0 C 5033.0,11348.0 5035.0,11271.0 5058.0,11254.0 C 5084.0,11234.0 5143.0,11237.0 5168.0,11260.0 C 5216.0,11305.0 5201.0,11381.0 5138.0,11420.0 C 5092.0,11448.0 4981.0,11447.0 4922.0,11418.0" fill="#000000" id="000000-000002"/>
    <path stroke="none" d="M 7860.0,11401.0 C 7860.0,11364.0 7863.0,11358.0 7889.0,11349.0 C 7905.0,11343.0 7921.0,11329.0 7924.0,11317.0 C 7938.0,11266.0 7942.0,10995.0 7931.0,10837.0 C 7917.0,10642.0 7918.0,10640.0 7990.0,10640.0 C 8034.0,10640.0 8038.0,10642.0 8045.0,10668.0 C 8058.0,10721.0 8100.0,10765.0 8100.0,10725.0 C 8100.0,10716.0 8119.0,10690.0 8143.0,10667.0 C 8176.0,10634.0 8197.0,10622.0 8240.0,10614.0 C 8303.0,10601.0 8376.0,10614.0 8411.0,10646.0 C 8449.0,10680.0 8480.0,10783.0 8480.0,10873.0 C 8480.0,10918.0 8459.0,11029.0 8442.0,11070.0 C 8419.0,11126.0 8330.0,11180.0 8258.0,11180.0 C 8222.0,11180.0 8170.0,11159.0 8151.0,11137.0 C 8144.0,11127.0 8134.0,11120.0 8129.0,11120.0 C 8124.0,11120.0 8120.0,11187.0 8120.0,11269.0 C 8120.0,11352.0 8116.0,11421.0 8111.0,11424.0 C 8106.0,11428.0 8047.0,11433.0 7981.0,11437.0 L 7860.0,11443.0 L 7860.0,11401.0M 8242.0,11066.0 C 8271.0,11044.0 8280.0,11003.0 8280.0,10892.0 C 8280.0,10803.0 8277.0,10780.0 8260.0,10753.0 C 8244.0,10726.0 8234.0,10720.0 8207.0,10720.0 C 8145.0,10720.0 8120.0,10774.0 8120.0,10906.0 C 8120.0,10999.0 8127.0,11027.0 8158.0,11063.0 C 8176.0,11083.0 8218.0,11085.0 8242.0,11066.0" fill="#000000" id="000000-000003"/>
    <path stroke="none" d="M 9424.0,11267.0 C 9421.0,11259.0 9420.0,11233.0 9422.0,11209.0 C 9425.0,11168.0 9427.0,11165.0 9455.0,11162.0 C 9520.0,11154.0 9520.0,11153.0 9520.0,10875.0 C 9520.0,10693.0 9517.0,10621.0 9508.0,10612.0 C 9501.0,10605.0 9479.0,10600.0 9458.0,10600.0 L 9420.0,10600.0 L 9420.0,10545.0 C 9420.0,10484.0 9417.0,10487.0 9510.0,10476.0 C 9535.0,10473.0 9583.0,10466.0 9618.0,10461.0 C 9696.0,10447.0 9778.0,10434.0 9855.0,10421.0 C 9998.0,10397.0 10038.0,10390.0 10085.0,10379.0 C 10183.0,10357.0 10175.0,10344.0 10178.0,10521.0 L 10180.0,10677.0 L 10130.0,10684.0 C 10102.0,10688.0 10075.0,10688.0 10070.0,10685.0 C 10064.0,10682.0 10060.0,10659.0 10060.0,10634.0 C 10060.0,10553.0 10030.0,10521.0 9955.0,10520.0 C 9891.0,10520.0 9771.0,10545.0 9754.0,10562.0 C 9746.0,10570.0 9738.0,10616.0 9734.0,10682.0 C 9726.0,10803.0 9732.0,10814.0 9793.0,10789.0 C 9844.0,10769.0 9858.0,10752.0 9871.0,10693.0 C 9885.0,10633.0 9883.0,10635.0 9928.0,10625.0 L 9960.0,10618.0 L 9960.0,10798.0 L 9960.0,10978.0 L 9923.0,10983.0 C 9875.0,10988.0 9870.0,10985.0 9870.0,10950.0 C 9870.0,10908.0 9861.0,10891.0 9830.0,10875.0 C 9809.0,10864.0 9794.0,10863.0 9765.0,10871.0 L 9727.0,10882.0 L 9734.0,10983.0 C 9742.0,11102.0 9749.0,11112.0 9819.0,11103.0 C 9990.0,11082.0 10049.0,11040.0 10060.0,10936.0 C 10065.0,10887.0 10066.0,10884.0 10106.0,10871.0 C 10179.0,10846.0 10181.0,10850.0 10178.0,11012.0 L 10175.0,11155.0 L 10120.0,11162.0 C 10090.0,11166.0 10036.0,11174.0 10000.0,11180.0 C 9964.0,11186.0 9908.0,11195.0 9875.0,11201.0 C 9842.0,11206.0 9790.0,11215.0 9760.0,11220.0 C 9639.0,11240.0 9582.0,11250.0 9516.0,11260.0 C 9479.0,11266.0 9444.0,11273.0 9439.0,11276.0 C 9434.0,11279.0 9427.0,11275.0 9424.0,11267.0" fill="#000000" id="000000-000004"/>
    <path stroke="none" d="M 6013.0,11244.0 C 5990.0,11239.0 5940.0,11194.0 5940.0,11178.0 C 5940.0,11173.0 5936.0,11172.0 5930.0,11175.0 C 5925.0,11178.0 5920.0,11193.0 5920.0,11207.0 L 5920.0,11233.0 L 5838.0,11227.0 C 5792.0,11223.0 5740.0,11220.0 5722.0,11220.0 C 5689.0,11220.0 5689.0,11220.0 5692.0,11178.0 C 5694.0,11144.0 5699.0,11134.0 5715.0,11132.0 C 5758.0,11124.0 5760.0,11114.0 5760.0,10955.0 C 5760.0,10796.0 5758.0,10786.0 5715.0,10778.0 C 5699.0,10775.0 5695.0,10767.0 5695.0,10730.0 L 5695.0,10685.0 L 5730.0,10689.0 C 5749.0,10691.0 5826.0,10695.0 5900.0,10699.0 L 6035.0,10705.0 L 6035.0,10745.0 C 6035.0,10782.0 6033.0,10785.0 6001.0,10791.0 C 5983.0,10795.0 5964.0,10804.0 5959.0,10812.0 C 5947.0,10830.0 5948.0,11057.0 5960.0,11099.0 C 5972.0,11140.0 6007.0,11180.0 6032.0,11180.0 C 6054.0,11180.0 6055.0,11171.0 6035.0,11156.0 C 6026.0,11150.0 6017.0,11128.0 6014.0,11108.0 C 6008.0,11077.0 6012.0,11068.0 6035.0,11046.0 C 6068.0,11015.0 6104.0,11013.0 6147.0,11039.0 C 6199.0,11071.0 6204.0,11174.0 6155.0,11220.0 C 6131.0,11243.0 6062.0,11254.0 6013.0,11244.0" fill="#000000" id="000000-000005"/>
    <path stroke="none" d="M 7440.0,11224.0 C 7375.0,11212.0 7313.0,11162.0 7304.0,11114.0 C 7290.0,11038.0 7368.0,10982.0 7440.0,11018.0 C 7475.0,11035.0 7475.0,11036.0 7474.0,11098.0 C 7474.0,11132.0 7477.0,11160.0 7481.0,11160.0 C 7500.0,11160.0 7546.0,11135.0 7562.0,11116.0 C 7574.0,11101.0 7580.0,11077.0 7580.0,11038.0 L 7580.0,10980.0 L 7541.0,10980.0 C 7442.0,10980.0 7328.0,10935.0 7298.0,10883.0 C 7277.0,10848.0 7275.0,10778.0 7294.0,10741.0 C 7336.0,10661.0 7490.0,10641.0 7561.0,10707.0 L 7587.0,10731.0 L 7621.0,10697.0 C 7648.0,10670.0 7667.0,10661.0 7705.0,10656.0 C 7773.0,10647.0 7811.0,10660.0 7838.0,10700.0 C 7857.0,10729.0 7860.0,10745.0 7858.0,10805.0 C 7856.0,10859.0 7852.0,10875.0 7840.0,10875.0 C 7830.0,10875.0 7823.0,10860.0 7818.0,10826.0 C 7811.0,10776.0 7796.0,10750.0 7783.0,10764.0 C 7778.0,10768.0 7772.0,10842.0 7769.0,10928.0 C 7764.0,11062.0 7760.0,11091.0 7742.0,11127.0 C 7709.0,11190.0 7655.0,11218.0 7550.0,11224.0 C 7503.0,11226.0 7454.0,11226.0 7440.0,11224.0M 7580.0,10861.0 C 7580.0,10799.0 7578.0,10791.0 7555.0,10776.0 C 7501.0,10740.0 7450.0,10810.0 7482.0,10877.0 C 7495.0,10904.0 7557.0,10943.0 7573.0,10933.0 C 7577.0,10931.0 7580.0,10898.0 7580.0,10861.0" fill="#000000" id="000000-000006"/>
    <path stroke="none" d="M 5283.0,11206.0 C 5225.0,11185.0 5166.0,11136.0 5143.0,11089.0 C 5107.0,11017.0 5095.0,10929.0 5110.0,10851.0 C 5127.0,10766.0 5158.0,10718.0 5217.0,10683.0 C 5261.0,10658.0 5273.0,10655.0 5360.0,10656.0 C 5442.0,10656.0 5463.0,10660.0 5513.0,10684.0 C 5602.0,10727.0 5643.0,10793.0 5657.0,10916.0 C 5663.0,10970.0 5649.0,11052.0 5624.0,11107.0 C 5607.0,11144.0 5561.0,11185.0 5513.0,11205.0 C 5471.0,11223.0 5330.0,11223.0 5283.0,11206.0M 5411.0,11120.0 C 5449.0,11099.0 5460.0,11058.0 5460.0,10937.0 C 5460.0,10835.0 5458.0,10819.0 5437.0,10789.0 C 5413.0,10753.0 5393.0,10745.0 5354.0,10754.0 C 5316.0,10764.0 5300.0,10817.0 5301.0,10934.0 C 5302.0,11048.0 5316.0,11099.0 5351.0,11117.0 C 5380.0,11132.0 5386.0,11133.0 5411.0,11120.0" fill="#000000" id="000000-000007"/>
    <path stroke="none" d="M 8480.0,11100.0 C 8480.0,11063.0 8483.0,11057.0 8509.0,11047.0 C 8542.0,11035.0 8560.0,11008.0 8590.0,10925.0 C 8609.0,10871.0 8677.0,10665.0 8686.0,10633.0 C 8688.0,10626.0 8703.0,10620.0 8720.0,10620.0 C 8770.0,10620.0 8791.0,10604.0 8783.0,10572.0 C 8768.0,10508.0 8723.0,10448.0 8679.0,10430.0 C 8641.0,10414.0 8632.0,10423.0 8659.0,10451.0 C 8710.0,10506.0 8666.0,10585.0 8585.0,10585.0 C 8526.0,10585.0 8500.0,10560.0 8500.0,10503.0 C 8500.0,10419.0 8549.0,10380.0 8655.0,10380.0 C 8781.0,10380.0 8814.0,10417.0 8899.0,10653.0 C 8950.0,10793.0 9005.0,10928.0 9022.0,10952.0 C 9035.0,10971.0 9051.0,10980.0 9078.0,10982.0 C 9112.0,10985.0 9115.0,10988.0 9118.0,11019.0 C 9120.0,11037.0 9117.0,11057.0 9111.0,11063.0 C 9106.0,11068.0 9066.0,11076.0 9023.0,11081.0 C 8980.0,11085.0 8926.0,11092.0 8903.0,11096.0 L 8860.0,11103.0 L 8860.0,11057.0 C 8860.0,11021.0 8864.0,11010.0 8879.0,11005.0 C 8922.0,10992.0 8923.0,10977.0 8886.0,10869.0 C 8854.0,10772.0 8835.0,10741.0 8826.0,10772.0 C 8808.0,10835.0 8776.0,10939.0 8769.0,10959.0 C 8758.0,10985.0 8780.0,11020.0 8807.0,11020.0 C 8822.0,11020.0 8826.0,11095.0 8811.0,11104.0 C 8806.0,11108.0 8753.0,11115.0 8693.0,11120.0 C 8634.0,11126.0 8561.0,11133.0 8533.0,11136.0 L 8480.0,11143.0 L 8480.0,11100.0" fill="#000000" id="000000-000009"/>
    <path stroke="none" d="M 4342.0,11114.0 C 4335.0,11101.0 4325.0,11099.0 4299.0,11104.0 C 4180.0,11128.0 4111.0,11118.0 4037.0,11064.0 C 3975.0,11019.0 3956.0,10981.0 3955.0,10900.0 C 3955.0,10782.0 4008.0,10740.0 4161.0,10740.0 C 4237.0,10740.0 4253.0,10737.0 4270.0,10720.0 C 4294.0,10696.0 4295.0,10688.0 4273.0,10661.0 C 4250.0,10634.0 4168.0,10623.0 4116.0,10640.0 C 4095.0,10647.0 4065.0,10669.0 4043.0,10695.0 C 4010.0,10735.0 4005.0,10737.0 3979.0,10728.0 C 3951.0,10718.0 3950.0,10715.0 3948.0,10649.0 C 3947.0,10611.0 3946.0,10572.0 3946.0,10563.0 C 3945.0,10535.0 4006.0,10532.0 4015.0,10559.0 C 4023.0,10584.0 4040.0,10585.0 4100.0,10564.0 C 4159.0,10543.0 4261.0,10551.0 4324.0,10581.0 C 4451.0,10640.0 4480.0,10816.0 4377.0,10895.0 C 4347.0,10917.0 4328.0,10921.0 4236.0,10929.0 C 4113.0,10938.0 4087.0,10952.0 4109.0,10994.0 C 4118.0,11010.0 4138.0,11022.0 4167.0,11030.0 C 4223.0,11046.0 4283.0,11029.0 4313.0,10988.0 C 4328.0,10967.0 4342.0,10960.0 4367.0,10960.0 L 4400.0,10960.0 L 4402.0,11030.0 C 4402.0,11069.0 4403.0,11106.0 4404.0,11113.0 C 4406.0,11132.0 4353.0,11134.0 4342.0,11114.0" fill="#000000" id="000000-000008"/>
    <path stroke="none" d="M 3762.0,11063.0 C 3750.0,11061.0 3723.0,11043.0 3703.0,11024.0 C 3676.0,10998.0 3664.0,10993.0 3658.0,11002.0 C 3654.0,11009.0 3650.0,11019.0 3650.0,11024.0 C 3650.0,11033.0 3605.0,11028.0 3488.0,11007.0 L 3420.0,10996.0 L 3420.0,10953.0 C 3420.0,10915.0 3422.0,10911.0 3447.0,10908.0 C 3489.0,10903.0 3500.0,10870.0 3499.0,10745.0 C 3499.0,10616.0 3486.0,10568.0 3450.0,10560.0 C 3428.0,10555.0 3425.0,10548.0 3422.0,10506.0 L 3419.0,10457.0 L 3452.0,10464.0 C 3511.0,10477.0 3594.0,10490.0 3655.0,10496.0 C 3761.0,10506.0 3760.0,10505.0 3760.0,10555.0 C 3760.0,10598.0 3760.0,10599.0 3723.0,10602.0 L 3685.0,10605.0 L 3682.0,10747.0 C 3679.0,10905.0 3689.0,10944.0 3742.0,10983.0 C 3777.0,11009.0 3789.0,10999.0 3761.0,10969.0 C 3731.0,10936.0 3733.0,10887.0 3766.0,10861.0 C 3797.0,10836.0 3821.0,10835.0 3859.0,10854.0 C 3899.0,10875.0 3920.0,10913.0 3920.0,10962.0 C 3920.0,11025.0 3888.0,11061.0 3830.0,11065.0 C 3805.0,11067.0 3775.0,11066.0 3762.0,11063.0" fill="#000000" id="000000-000010"/>
    <path stroke="none" d="M 10647.0,11043.0 C 10643.0,11040.0 10640.0,11022.0 10640.0,11003.0 C 10640.0,10977.0 10645.0,10968.0 10664.0,10960.0 C 10718.0,10940.0 10720.0,10927.0 10720.0,10652.0 C 10720.0,10497.0 10716.0,10391.0 10710.0,10379.0 C 10703.0,10367.0 10689.0,10360.0 10669.0,10360.0 C 10639.0,10360.0 10639.0,10359.0 10642.0,10313.0 C 10645.0,10266.0 10645.0,10265.0 10685.0,10259.0 C 10763.0,10246.0 10836.0,10231.0 10893.0,10215.0 C 10925.0,10207.0 10956.0,10202.0 10961.0,10206.0 C 10981.0,10218.0 10968.0,10300.0 10945.0,10300.0 C 10939.0,10300.0 10926.0,10308.0 10917.0,10318.0 C 10892.0,10345.0 10893.0,10550.0 10918.0,10600.0 C 10937.0,10639.0 10976.0,10651.0 11016.0,10629.0 C 11054.0,10609.0 11061.0,10574.0 11058.0,10425.0 L 11055.0,10285.0 L 11027.0,10282.0 C 11000.0,10279.0 10999.0,10276.0 11002.0,10232.0 C 11005.0,10186.0 11006.0,10185.0 11045.0,10178.0 C 11123.0,10163.0 11175.0,10151.0 11215.0,10140.0 C 11237.0,10133.0 11270.0,10126.0 11288.0,10123.0 C 11319.0,10118.0 11320.0,10118.0 11320.0,10156.0 C 11320.0,10188.0 11314.0,10200.0 11288.0,10222.0 L 11255.0,10249.0 L 11250.0,10412.0 C 11244.0,10568.0 11243.0,10579.0 11217.0,10623.0 C 11177.0,10691.0 11115.0,10725.0 11028.0,10725.0 C 10973.0,10725.0 10958.0,10721.0 10938.0,10703.0 C 10925.0,10690.0 10911.0,10680.0 10907.0,10680.0 C 10903.0,10680.0 10900.0,10752.0 10900.0,10839.0 L 10900.0,10998.0 L 10869.0,11009.0 C 10851.0,11015.0 10826.0,11020.0 10813.0,11020.0 C 10800.0,11020.0 10781.0,11024.0 10772.0,11029.0 C 10748.0,11041.0 10655.0,11052.0 10647.0,11043.0" fill="#000000" id="000000-000011"/>
    <path stroke="none" d="M 10401.0,10982.0 C 10376.0,10911.0 10349.0,10884.0 10290.0,10873.0 C 10250.0,10865.0 10245.0,10861.0 10242.0,10835.0 C 10240.0,10810.0 10245.0,10802.0 10271.0,10787.0 L 10303.0,10769.0 L 10297.0,10627.0 C 10294.0,10549.0 10295.0,10465.0 10299.0,10441.0 C 10315.0,10360.0 10376.0,10306.0 10465.0,10295.0 C 10536.0,10286.0 10571.0,10298.0 10592.0,10341.0 C 10615.0,10385.0 10616.0,10475.0 10594.0,10484.0 C 10566.0,10495.0 10563.0,10491.0 10557.0,10444.0 C 10551.0,10383.0 10535.0,10368.0 10510.0,10398.0 C 10486.0,10427.0 10478.0,10497.0 10482.0,10630.0 L 10485.0,10735.0 L 10525.0,10734.0 C 10547.0,10734.0 10572.0,10732.0 10580.0,10729.0 C 10592.0,10726.0 10596.0,10736.0 10598.0,10771.0 L 10601.0,10817.0 L 10554.0,10824.0 C 10485.0,10833.0 10483.0,10836.0 10492.0,10936.0 C 10496.0,10984.0 10497.0,11027.0 10494.0,11031.0 C 10491.0,11036.0 10474.0,11040.0 10456.0,11040.0 C 10425.0,11040.0 10421.0,11037.0 10401.0,10982.0" fill="#000000" id="000000-000012"/>
    <path stroke="none" d="M 3120.0,10963.0 C 2970.0,10938.0 2860.0,10795.0 2860.0,10622.0 C 2860.0,10493.0 2910.0,10415.0 3007.0,10392.0 C 3120.0,10366.0 3284.0,10424.0 3333.0,10508.0 C 3359.0,10552.0 3379.0,10607.0 3372.0,10615.0 C 3369.0,10618.0 3344.0,10620.0 3315.0,10620.0 C 3262.0,10620.0 3240.0,10608.0 3240.0,10579.0 C 3240.0,10569.0 3226.0,10548.0 3209.0,10531.0 C 3184.0,10506.0 3170.0,10500.0 3134.0,10500.0 C 3082.0,10500.0 3062.0,10522.0 3058.0,10589.0 L 3055.0,10633.0 L 3110.0,10645.0 C 3219.0,10668.0 3287.0,10680.0 3314.0,10680.0 C 3365.0,10680.0 3380.0,10696.0 3380.0,10751.0 C 3380.0,10823.0 3360.0,10879.0 3319.0,10921.0 C 3274.0,10966.0 3215.0,10979.0 3120.0,10963.0M 3164.0,10857.0 C 3175.0,10849.0 3183.0,10825.0 3187.0,10788.0 C 3192.0,10737.0 3191.0,10731.0 3169.0,10717.0 C 3145.0,10701.0 3066.0,10691.0 3054.0,10702.0 C 3051.0,10706.0 3051.0,10732.0 3055.0,10761.0 C 3060.0,10800.0 3070.0,10822.0 3090.0,10842.0 C 3121.0,10873.0 3138.0,10876.0 3164.0,10857.0" fill="#000000" id="000000-000013"/>
    <path stroke="none" d="M 2800.0,10891.0 C 2747.0,10874.0 2679.0,10860.0 2651.0,10860.0 C 2614.0,10860.0 2598.0,10840.0 2602.0,10798.0 C 2604.0,10770.0 2609.0,10764.0 2633.0,10762.0 C 2655.0,10759.0 2660.0,10754.0 2660.0,10730.0 C 2660.0,10714.0 2656.0,10691.0 2651.0,10678.0 C 2646.0,10665.0 2631.0,10620.0 2618.0,10578.0 C 2606.0,10535.0 2592.0,10500.0 2589.0,10500.0 C 2573.0,10500.0 2520.0,10653.0 2520.0,10701.0 C 2520.0,10727.0 2525.0,10738.0 2543.0,10745.0 C 2560.0,10753.0 2566.0,10765.0 2568.0,10799.0 L 2571.0,10843.0 L 2538.0,10836.0 C 2520.0,10833.0 2487.0,10826.0 2465.0,10821.0 C 2443.0,10816.0 2385.0,10804.0 2335.0,10794.0 C 2286.0,10785.0 2239.0,10772.0 2232.0,10767.0 C 2224.0,10761.0 2220.0,10742.0 2222.0,10721.0 C 2225.0,10688.0 2228.0,10685.0 2260.0,10680.0 C 2291.0,10676.0 2298.0,10668.0 2322.0,10619.0 C 2350.0,10564.0 2403.0,10426.0 2422.0,10362.0 C 2433.0,10322.0 2451.0,10314.0 2496.0,10328.0 C 2515.0,10333.0 2532.0,10335.0 2534.0,10331.0 C 2546.0,10312.0 2492.0,10193.0 2454.0,10153.0 C 2408.0,10105.0 2377.0,10093.0 2404.0,10135.0 C 2413.0,10148.0 2420.0,10177.0 2420.0,10198.0 C 2420.0,10250.0 2389.0,10269.0 2331.0,10251.0 C 2228.0,10221.0 2209.0,10072.0 2305.0,10054.0 C 2409.0,10035.0 2523.0,10106.0 2578.0,10224.0 C 2597.0,10263.0 2608.0,10295.0 2672.0,10495.0 C 2688.0,10545.0 2705.0,10594.0 2710.0,10605.0 C 2714.0,10616.0 2723.0,10641.0 2730.0,10660.0 C 2763.0,10757.0 2786.0,10786.0 2843.0,10804.0 C 2856.0,10808.0 2860.0,10820.0 2860.0,10855.0 C 2860.0,10903.0 2853.0,10907.0 2800.0,10891.0" fill="#000000" id="000000-000014"/>
    <path stroke="none" d="M 1965.0,10726.0 C 1797.0,10692.0 1672.0,10577.0 1712.0,10493.0 C 1723.0,10469.0 1732.0,10465.0 1776.0,10462.0 C 1819.0,10460.0 1830.0,10463.0 1853.0,10485.0 C 1884.0,10517.0 1894.0,10557.0 1881.0,10594.0 C 1871.0,10618.0 1873.0,10622.0 1896.0,10632.0 C 1935.0,10650.0 1972.0,10626.0 1982.0,10575.0 C 1998.0,10503.0 1991.0,10491.0 1925.0,10464.0 C 1825.0,10424.0 1784.0,10400.0 1742.0,10356.0 C 1656.0,10269.0 1664.0,10147.0 1756.0,10124.0 C 1812.0,10110.0 1942.0,10162.0 1972.0,10210.0 C 1987.0,10234.0 1998.0,10235.0 2021.0,10214.0 C 2047.0,10191.0 2141.0,10193.0 2183.0,10217.0 C 2232.0,10246.0 2256.0,10290.0 2264.0,10365.0 C 2269.0,10411.0 2267.0,10437.0 2259.0,10446.0 C 2240.0,10469.0 2220.0,10444.0 2220.0,10398.0 C 2220.0,10357.0 2206.0,10320.0 2190.0,10320.0 C 2184.0,10320.0 2180.0,10371.0 2180.0,10443.0 C 2180.0,10612.0 2159.0,10689.0 2107.0,10714.0 C 2057.0,10737.0 2030.0,10739.0 1965.0,10726.0M 1990.0,10371.0 C 1990.0,10296.0 1964.0,10257.0 1916.0,10262.0 C 1887.0,10265.0 1885.0,10268.0 1882.0,10311.0 C 1879.0,10360.0 1903.0,10404.0 1944.0,10420.0 C 1986.0,10437.0 1990.0,10433.0 1990.0,10371.0" fill="#000000" id="000000-000015"/>
    <path stroke="none" d="M 880.0,10668.0 C 830.0,10658.0 724.0,10628.0 640.0,10600.0 C 610.0,10591.0 565.0,10577.0 540.0,10570.0 C 515.0,10563.0 473.0,10550.0 445.0,10541.0 C 396.0,10525.0 395.0,10523.0 392.0,10481.0 C 388.0,10426.0 399.0,10413.0 439.0,10430.0 C 498.0,10454.0 500.0,10448.0 500.0,10166.0 C 500.0,9917.0 500.0,9913.0 478.0,9893.0 C 465.0,9882.0 442.0,9866.0 425.0,9859.0 C 399.0,9847.0 395.0,9839.0 392.0,9801.0 C 390.0,9777.0 393.0,9753.0 397.0,9749.0 C 402.0,9744.0 430.0,9749.0 460.0,9759.0 C 511.0,9776.0 681.0,9829.0 760.0,9852.0 C 822.0,9870.0 825.0,9874.0 825.0,9926.0 C 825.0,9979.0 828.0,9977.0 758.0,9963.0 C 723.0,9956.0 708.0,9985.0 712.0,10052.0 C 715.0,10109.0 714.0,10108.0 815.0,10140.0 C 931.0,10176.0 1031.0,10242.0 1072.0,10308.0 C 1108.0,10367.0 1120.0,10409.0 1120.0,10491.0 C 1120.0,10607.0 1095.0,10644.0 998.0,10668.0 C 946.0,10681.0 943.0,10681.0 880.0,10668.0M 875.0,10525.0 C 897.0,10504.0 900.0,10492.0 900.0,10427.0 C 900.0,10298.0 865.0,10250.0 743.0,10212.0 C 726.0,10206.0 709.0,10204.0 706.0,10207.0 C 698.0,10216.0 699.0,10361.0 709.0,10444.0 C 717.0,10516.0 725.0,10528.0 780.0,10541.0 C 828.0,10554.0 851.0,10550.0 875.0,10525.0" fill="#000000" id="000000-000016"/>
    <path stroke="none" d="M 1525.0,10615.0 C 1503.0,10607.0 1472.0,10587.0 1457.0,10569.0 C 1431.0,10541.0 1427.0,10540.0 1412.0,10554.0 C 1394.0,10569.0 1388.0,10569.0 1285.0,10540.0 C 1263.0,10534.0 1232.0,10525.0 1215.0,10521.0 C 1188.0,10515.0 1185.0,10510.0 1182.0,10468.0 C 1179.0,10422.0 1179.0,10421.0 1212.0,10418.0 L 1245.0,10415.0 L 1248.0,10275.0 C 1249.0,10198.0 1248.0,10125.0 1245.0,10113.0 C 1242.0,10101.0 1228.0,10085.0 1212.0,10078.0 C 1190.0,10067.0 1184.0,10057.0 1182.0,10022.0 C 1179.0,9986.0 1181.0,9980.0 1199.0,9980.0 C 1210.0,9980.0 1229.0,9984.0 1242.0,9989.0 C 1255.0,9994.0 1285.0,10003.0 1310.0,10010.0 C 1335.0,10017.0 1366.0,10026.0 1380.0,10030.0 C 1394.0,10034.0 1431.0,10044.0 1463.0,10051.0 L 1520.0,10063.0 L 1520.0,10110.0 L 1520.0,10157.0 L 1483.0,10156.0 L 1445.0,10155.0 L 1442.0,10290.0 C 1439.0,10443.0 1448.0,10488.0 1493.0,10526.0 C 1531.0,10558.0 1547.0,10557.0 1521.0,10524.0 C 1495.0,10491.0 1494.0,10439.0 1518.0,10417.0 C 1573.0,10367.0 1680.0,10441.0 1680.0,10530.0 C 1680.0,10616.0 1621.0,10649.0 1525.0,10615.0" fill="#000000" id="000000-000017"/>
    <path stroke="none" d="M 11403.0,10576.0 C 11379.0,10555.0 11375.0,10545.0 11376.0,10504.0 C 11377.0,10462.0 11381.0,10452.0 11411.0,10428.0 C 11458.0,10389.0 11520.0,10388.0 11545.0,10427.0 C 11560.0,10449.0 11561.0,10459.0 11552.0,10484.0 C 11537.0,10523.0 11548.0,10533.0 11587.0,10514.0 C 11625.0,10495.0 11651.0,10446.0 11653.0,10387.0 L 11655.0,10345.0 L 11540.0,10345.0 C 11443.0,10345.0 11421.0,10342.0 11397.0,10326.0 C 11328.0,10279.0 11336.0,10159.0 11411.0,10096.0 C 11438.0,10073.0 11529.0,10040.0 11565.0,10040.0 C 11574.0,10040.0 11600.0,10049.0 11622.0,10060.0 C 11667.0,10081.0 11667.0,10081.0 11684.0,10049.0 C 11700.0,10016.0 11740.0,9991.0 11796.0,9976.0 C 11880.0,9954.0 11911.0,9976.0 11930.0,10073.0 C 11940.0,10123.0 11939.0,10135.0 11925.0,10156.0 C 11902.0,10191.0 11885.0,10181.0 11882.0,10129.0 C 11878.0,10066.0 11873.0,10055.0 11855.0,10070.0 C 11843.0,10080.0 11840.0,10111.0 11840.0,10226.0 C 11840.0,10346.0 11837.0,10378.0 11820.0,10424.0 C 11778.0,10536.0 11664.0,10600.0 11509.0,10600.0 C 11441.0,10600.0 11428.0,10597.0 11403.0,10576.0M 11654.0,10274.0 C 11666.0,10242.0 11660.0,10167.0 11643.0,10148.0 C 11622.0,10124.0 11599.0,10125.0 11566.0,10151.0 C 11525.0,10184.0 11533.0,10264.0 11580.0,10283.0 C 11610.0,10294.0 11648.0,10290.0 11654.0,10274.0" fill="#000000" id="000000-000018"/>
    <path stroke="none" d="M 11977.0,10463.0 C 11973.0,10460.0 11970.0,10442.0 11970.0,10424.0 C 11970.0,10397.0 11976.0,10387.0 11999.0,10376.0 C 12015.0,10367.0 12030.0,10353.0 12034.0,10345.0 C 12037.0,10336.0 12040.0,10264.0 12040.0,10185.0 C 12040.0,10035.0 12037.0,10025.0 11995.0,10025.0 C 11979.0,10025.0 11974.0,10017.0 11972.0,9983.0 C 11969.0,9938.0 11959.0,9944.0 12080.0,9910.0 C 12105.0,9903.0 12158.0,9886.0 12198.0,9873.0 C 12298.0,9841.0 12300.0,9842.0 12300.0,9894.0 C 12300.0,9930.0 12296.0,9940.0 12280.0,9945.0 C 12236.0,9959.0 12227.0,9991.0 12232.0,10126.0 C 12236.0,10244.0 12238.0,10254.0 12259.0,10271.0 C 12290.0,10296.0 12313.0,10295.0 12347.0,10266.0 C 12383.0,10235.0 12400.0,10169.0 12400.0,10057.0 C 12400.0,9966.0 12386.0,9927.0 12352.0,9922.0 C 12332.0,9919.0 12329.0,9914.0 12332.0,9878.0 C 12335.0,9834.0 12341.0,9829.0 12410.0,9810.0 C 12435.0,9803.0 12494.0,9784.0 12541.0,9769.0 C 12589.0,9753.0 12632.0,9740.0 12639.0,9740.0 C 12645.0,9740.0 12650.0,9756.0 12650.0,9777.0 C 12650.0,9806.0 12643.0,9820.0 12615.0,9846.0 L 12580.0,9878.0 L 12580.0,10015.0 C 12580.0,10166.0 12571.0,10214.0 12528.0,10277.0 C 12475.0,10356.0 12323.0,10403.0 12272.0,10357.0 C 12247.0,10334.0 12230.0,10342.0 12230.0,10376.0 C 12230.0,10405.0 12223.0,10408.0 12090.0,10444.0 C 11983.0,10473.0 11986.0,10473.0 11977.0,10463.0" fill="#000000" id="000000-000019"/>
    <path stroke="none" d="M 7815.0,8924.0 C 7636.0,8906.0 7440.0,8846.0 7270.0,8757.0 C 7113.0,8674.0 6985.0,8574.0 6835.0,8419.0 C 6720.0,8300.0 6658.0,8220.0 6584.0,8100.0 C 6556.0,8054.0 6528.0,8014.0 6522.0,8012.0 C 6517.0,8011.0 6499.0,8033.0 6482.0,8062.0 C 6438.0,8140.0 6345.0,8267.0 6260.0,8365.0 C 6059.0,8598.0 5762.0,8794.0 5500.0,8869.0 C 5475.0,8876.0 5440.0,8886.0 5422.0,8892.0 C 5403.0,8897.0 5386.0,8899.0 5383.0,8896.0 C 5380.0,8893.0 5398.0,8869.0 5423.0,8843.0 C 5488.0,8773.0 5510.0,8746.0 5580.0,8640.0 C 5642.0,8548.0 5729.0,8387.0 5762.0,8305.0 C 5791.0,8230.0 5818.0,8155.0 5830.0,8110.0 C 5837.0,8085.0 5846.0,8054.0 5850.0,8040.0 C 5866.0,7989.0 5883.0,7896.0 5910.0,7719.0 C 5923.0,7633.0 5923.0,7219.0 5909.0,7111.0 C 5896.0,7002.0 5882.0,6910.0 5869.0,6840.0 C 5859.0,6790.0 5724.0,6363.0 5681.0,6245.0 C 5671.0,6218.0 5648.0,6148.0 5630.0,6090.0 C 5584.0,5942.0 5584.0,5940.0 5570.0,5890.0 C 5563.0,5865.0 5554.0,5834.0 5550.0,5820.0 C 5532.0,5765.0 5499.0,5613.0 5468.0,5445.0 C 5451.0,5354.0 5451.0,4993.0 5469.0,4880.0 C 5496.0,4701.0 5508.0,4635.0 5532.0,4545.0 C 5547.0,4486.0 5601.0,4349.0 5620.0,4320.0 C 5628.0,4306.0 5642.0,4283.0 5649.0,4268.0 C 5672.0,4222.0 5797.0,4093.0 5884.0,4026.0 C 5958.0,3968.0 6086.0,3882.0 6234.0,3790.0 C 6265.0,3771.0 6290.0,3752.0 6290.0,3748.0 C 6290.0,3737.0 6192.0,3738.0 6156.0,3749.0 C 6139.0,3754.0 6105.0,3764.0 6080.0,3771.0 C 5821.0,3841.0 5608.0,3952.0 5382.0,4134.0 C 5277.0,4219.0 5252.0,4222.0 5275.0,4146.0 C 5319.0,4001.0 5430.0,3869.0 5710.0,3628.0 C 6033.0,3351.0 6492.0,2990.0 6521.0,2990.0 C 6546.0,2990.0 7042.0,3379.0 7300.0,3600.0 C 7452.0,3731.0 7644.0,3906.0 7800.0,4057.0 L 7905.0,4158.0 L 7904.0,4325.0 C 7903.0,4478.0 7895.0,4560.0 7869.0,4678.0 C 7798.0,5006.0 7680.0,5241.0 7491.0,5431.0 C 7395.0,5527.0 7335.0,5574.0 7210.0,5650.0 C 7116.0,5708.0 6727.0,5900.0 6705.0,5900.0 C 6702.0,5900.0 6678.0,5910.0 6652.0,5921.0 C 6567.0,5959.0 6548.0,5967.0 6315.0,6060.0 C 6189.0,6111.0 6067.0,6160.0 6045.0,6170.0 C 6023.0,6180.0 5987.0,6195.0 5965.0,6204.0 C 5870.0,6243.0 5830.0,6264.0 5830.0,6274.0 C 5831.0,6280.0 5844.0,6323.0 5861.0,6370.0 C 5890.0,6452.0 5950.0,6634.0 5969.0,6695.0 C 5974.0,6712.0 5981.0,6740.0 5985.0,6758.0 C 5994.0,6801.0 6010.0,6806.0 6073.0,6785.0 C 6102.0,6776.0 6139.0,6764.0 6155.0,6760.0 C 6172.0,6755.0 6217.0,6742.0 6255.0,6730.0 C 6294.0,6718.0 6340.0,6704.0 6358.0,6699.0 C 6375.0,6694.0 6405.0,6686.0 6423.0,6681.0 C 6440.0,6675.0 6472.0,6666.0 6493.0,6661.0 C 6513.0,6655.0 6545.0,6646.0 6563.0,6641.0 C 6601.0,6630.0 6899.0,6552.0 6950.0,6540.0 C 7203.0,6479.0 7547.0,6341.0 7778.0,6208.0 C 8156.0,5991.0 8401.0,5743.0 8573.0,5405.0 C 8633.0,5288.0 8718.0,5156.0 8735.0,5155.0 C 8744.0,5155.0 8916.0,5406.0 8958.0,5480.0 C 8968.0,5499.0 9001.0,5556.0 9030.0,5605.0 C 9074.0,5681.0 9223.0,5979.0 9250.0,6045.0 C 9254.0,6056.0 9267.0,6086.0 9279.0,6112.0 C 9291.0,6138.0 9300.0,6164.0 9300.0,6170.0 C 9300.0,6176.0 9304.0,6188.0 9310.0,6198.0 C 9320.0,6216.0 9390.0,6428.0 9408.0,6495.0 C 9478.0,6759.0 9485.0,6815.0 9484.0,7095.0 C 9483.0,7325.0 9478.0,7399.0 9449.0,7575.0 C 9383.0,7968.0 9230.0,8291.0 9000.0,8520.0 C 8799.0,8722.0 8562.0,8845.0 8250.0,8910.0 C 8195.0,8922.0 7890.0,8931.0 7815.0,8924.0" fill="#000000" id="000000-000020"/>
    <path stroke="none" d="M 4690.0,8909.0 C 4561.0,8875.0 4485.0,8836.0 4402.0,8763.0 C 4339.0,8707.0 4287.0,8628.0 4257.0,8542.0 C 4232.0,8469.0 4229.0,8255.0 4253.0,8170.0 C 4315.0,7945.0 4422.0,7762.0 4599.0,7577.0 C 4670.0,7502.0 4766.0,7429.0 4960.0,7300.0 C 5045.0,7244.0 5117.0,7194.0 5118.0,7189.0 C 5120.0,7184.0 5112.0,7159.0 5101.0,7135.0 C 5089.0,7110.0 5080.0,7088.0 5080.0,7086.0 C 5080.0,7084.0 5062.0,7042.0 5039.0,6993.0 C 5017.0,6945.0 4993.0,6892.0 4985.0,6875.0 C 4938.0,6767.0 4928.0,6750.0 4916.0,6750.0 C 4900.0,6750.0 4641.0,7014.0 4539.0,7135.0 C 4301.0,7417.0 4124.0,7725.0 4059.0,7970.0 C 4009.0,8159.0 4008.0,8302.0 4056.0,8503.0 C 4066.0,8544.0 4048.0,8536.0 3992.0,8472.0 C 3904.0,8370.0 3836.0,8267.0 3775.0,8144.0 C 3705.0,8002.0 3708.0,8009.0 3671.0,7890.0 C 3618.0,7719.0 3597.0,7621.0 3570.0,7419.0 C 3554.0,7298.0 3553.0,6861.0 3569.0,6785.0 C 3576.0,6752.0 3586.0,6700.0 3592.0,6670.0 C 3602.0,6618.0 3620.0,6547.0 3641.0,6473.0 C 3646.0,6455.0 3654.0,6425.0 3659.0,6408.0 C 3726.0,6164.0 3891.0,5805.0 4087.0,5474.0 C 4121.0,5417.0 4332.0,5100.0 4355.0,5072.0 C 4362.0,5063.0 4399.0,5015.0 4436.0,4965.0 C 4526.0,4845.0 4571.0,4790.0 4580.0,4790.0 C 4585.0,4790.0 4586.0,4842.0 4583.0,4906.0 C 4576.0,5035.0 4601.0,5322.0 4630.0,5455.0 C 4634.0,5477.0 4644.0,5522.0 4651.0,5555.0 C 4664.0,5618.0 4675.0,5665.0 4710.0,5794.0 C 4731.0,5873.0 4813.0,6127.0 4829.0,6165.0 C 4834.0,6176.0 4853.0,6223.0 4870.0,6270.0 C 4888.0,6317.0 4908.0,6369.0 4915.0,6385.0 C 4923.0,6402.0 4938.0,6439.0 4950.0,6469.0 C 4961.0,6499.0 4980.0,6544.0 4992.0,6569.0 C 5003.0,6594.0 5021.0,6635.0 5032.0,6660.0 C 5043.0,6685.0 5063.0,6729.0 5076.0,6758.0 C 5089.0,6786.0 5111.0,6834.0 5124.0,6863.0 C 5137.0,6891.0 5158.0,6938.0 5170.0,6965.0 C 5182.0,6993.0 5200.0,7033.0 5210.0,7055.0 C 5268.0,7183.0 5357.0,7421.0 5382.0,7510.0 C 5387.0,7529.0 5395.0,7561.0 5401.0,7580.0 C 5437.0,7710.0 5461.0,7964.0 5449.0,8089.0 C 5415.0,8454.0 5291.0,8724.0 5105.0,8844.0 C 5047.0,8881.0 5034.0,8887.0 4962.0,8906.0 C 4903.0,8922.0 4744.0,8923.0 4690.0,8909.0" fill="#000000" id="000000-000021"/>
    <path stroke="none" d="M 8177.0,5219.0 C 8174.0,5207.0 8178.0,5155.0 8186.0,5102.0 C 8203.0,4989.0 8205.0,4656.0 8189.0,4578.0 C 8183.0,4549.0 8174.0,4508.0 8168.0,4487.0 C 8146.0,4412.0 8160.0,4423.0 8342.0,4635.0 C 8479.0,4794.0 8591.0,4940.0 8585.0,4951.0 C 8581.0,4956.0 8570.0,4960.0 8560.0,4960.0 C 8529.0,4960.0 8422.0,5020.0 8370.0,5067.0 C 8343.0,5091.0 8300.0,5140.0 8275.0,5175.0 C 8241.0,5223.0 8223.0,5240.0 8206.0,5240.0 C 8190.0,5240.0 8180.0,5233.0 8177.0,5219.0" fill="#000000" id="000000-000022"/>
    <path stroke="none" d="M 44.0,2195.0 C 40.0,2187.0 51.0,2152.0 67.0,2118.0 C 84.0,2083.0 103.0,2039.0 110.0,2020.0 C 117.0,2001.0 132.0,1973.0 142.0,1958.0 C 163.0,1928.0 166.0,1859.0 150.0,1765.0 C 144.0,1732.0 139.0,1581.0 139.0,1430.0 C 137.0,1112.0 136.0,1115.0 224.0,1057.0 C 255.0,1037.0 283.0,1020.0 287.0,1020.0 C 291.0,1020.0 311.0,1001.0 331.0,978.0 L 368.0,935.0 L 501.0,936.0 C 623.0,936.0 640.0,939.0 690.0,962.0 C 788.0,1007.0 842.0,1067.0 889.0,1183.0 C 895.0,1198.0 900.0,1264.0 900.0,1328.0 C 900.0,1486.0 877.0,1578.0 803.0,1725.0 C 764.0,1801.0 727.0,1851.0 653.0,1927.0 C 508.0,2076.0 305.0,2176.0 92.0,2205.0 C 60.0,2209.0 48.0,2207.0 44.0,2195.0M 502.0,1786.0 C 589.0,1738.0 652.0,1674.0 668.0,1616.0 C 683.0,1558.0 684.0,1450.0 669.0,1413.0 C 637.0,1336.0 627.0,1320.0 591.0,1287.0 C 556.0,1256.0 473.0,1220.0 435.0,1220.0 C 426.0,1220.0 421.0,1300.0 417.0,1512.0 C 414.0,1672.0 413.0,1807.0 416.0,1812.0 C 424.0,1825.0 435.0,1822.0 502.0,1786.0" fill="#000000" id="000000-000023"/>
    <path stroke="none" d="M 12749.0,1825.0 C 12670.0,1808.0 12615.0,1778.0 12527.0,1704.0 C 12439.0,1630.0 12404.0,1577.0 12394.0,1503.0 C 12376.0,1360.0 12428.0,1287.0 12575.0,1251.0 C 12718.0,1215.0 12723.0,1213.0 12698.0,1193.0 C 12681.0,1180.0 12582.0,1162.0 12489.0,1156.0 C 12369.0,1147.0 12359.0,1138.0 12386.0,1056.0 C 12421.0,950.0 12436.0,940.0 12566.0,940.0 C 12746.0,940.0 12904.0,1024.0 12957.0,1147.0 C 13004.0,1256.0 13011.0,1310.0 12985.0,1360.0 C 12967.0,1395.0 12934.0,1413.0 12860.0,1429.0 C 12741.0,1455.0 12713.0,1463.0 12671.0,1483.0 C 12624.0,1506.0 12602.0,1543.0 12621.0,1566.0 C 12628.0,1575.0 12653.0,1580.0 12690.0,1580.0 C 12735.0,1580.0 12754.0,1575.0 12781.0,1556.0 C 12800.0,1542.0 12830.0,1524.0 12848.0,1514.0 C 12880.0,1498.0 12882.0,1498.0 12904.0,1519.0 C 12917.0,1532.0 12936.0,1563.0 12945.0,1588.0 C 12955.0,1614.0 12971.0,1647.0 12981.0,1662.0 C 12992.0,1676.0 13000.0,1704.0 13000.0,1723.0 C 13000.0,1771.0 12949.0,1813.0 12873.0,1829.0 C 12842.0,1835.0 12814.0,1839.0 12811.0,1839.0 C 12808.0,1838.0 12780.0,1832.0 12749.0,1825.0" fill="#000000" id="000000-000024"/>
    <path stroke="none" d="M 12035.0,1621.0 C 11983.0,1603.0 11949.0,1583.0 11857.0,1513.0 C 11779.0,1453.0 11750.0,1407.0 11735.0,1317.0 C 11715.0,1193.0 11772.0,1112.0 11910.0,1071.0 C 11963.0,1055.0 12020.0,1039.0 12038.0,1034.0 C 12044.0,1032.0 12050.0,1025.0 12050.0,1017.0 C 12050.0,997.0 11970.0,980.0 11877.0,980.0 C 11832.0,980.0 11778.0,975.0 11758.0,969.0 C 11725.0,960.0 11720.0,955.0 11720.0,930.0 C 11720.0,914.0 11724.0,891.0 11729.0,878.0 C 11734.0,865.0 11741.0,842.0 11745.0,827.0 C 11755.0,777.0 11800.0,760.0 11921.0,760.0 C 12080.0,760.0 12192.0,804.0 12267.0,895.0 C 12305.0,940.0 12340.0,1044.0 12340.0,1108.0 C 12340.0,1150.0 12335.0,1163.0 12312.0,1187.0 C 12284.0,1214.0 12260.0,1223.0 12133.0,1254.0 C 12022.0,1280.0 11960.0,1317.0 11960.0,1356.0 C 11960.0,1383.0 11986.0,1400.0 12029.0,1400.0 C 12067.0,1400.0 12103.0,1384.0 12158.0,1343.0 C 12230.0,1289.0 12245.0,1297.0 12304.0,1422.0 C 12361.0,1543.0 12351.0,1584.0 12251.0,1626.0 C 12206.0,1645.0 12096.0,1643.0 12035.0,1621.0" fill="#000000" id="000000-000025"/>
    <path stroke="none" d="M 3495.0,1510.0 C 3484.0,1505.0 3460.0,1501.0 3442.0,1501.0 C 3413.0,1500.0 3407.0,1495.0 3389.0,1456.0 C 3361.0,1391.0 3341.0,1285.0 3322.0,1095.0 L 3315.0,1025.0 L 3275.0,1022.0 C 3253.0,1020.0 3230.0,1014.0 3223.0,1008.0 C 3214.0,1001.0 3208.0,1004.0 3201.0,1021.0 C 3196.0,1034.0 3184.0,1065.0 3175.0,1090.0 C 3165.0,1115.0 3150.0,1141.0 3142.0,1148.0 C 3119.0,1166.0 3051.0,1163.0 2981.0,1139.0 L 2918.0,1119.0 L 2885.0,1144.0 C 2842.0,1177.0 2778.0,1202.0 2748.0,1198.0 L 2725.0,1195.0 L 2722.0,865.0 C 2719.0,529.0 2723.0,476.0 2757.0,438.0 C 2766.0,428.0 2809.0,402.0 2853.0,380.0 C 2927.0,342.0 2934.0,340.0 2955.0,354.0 C 2993.0,379.0 3005.0,479.0 2992.0,647.0 C 2982.0,778.0 2982.0,786.0 3001.0,817.0 C 3013.0,835.0 3040.0,865.0 3063.0,884.0 C 3107.0,919.0 3200.0,980.0 3210.0,980.0 C 3213.0,980.0 3222.0,953.0 3229.0,921.0 C 3240.0,873.0 3250.0,855.0 3281.0,826.0 L 3320.0,791.0 L 3320.0,568.0 C 3320.0,293.0 3320.0,292.0 3430.0,238.0 C 3520.0,194.0 3544.0,191.0 3566.0,226.0 C 3581.0,248.0 3584.0,286.0 3586.0,493.0 L 3589.0,735.0 L 3617.0,737.0 C 3694.0,744.0 3752.0,764.0 3776.0,793.0 C 3806.0,829.0 3806.0,848.0 3776.0,902.0 C 3751.0,947.0 3720.0,963.0 3615.0,986.0 L 3575.0,995.0 L 3567.0,1080.0 C 3557.0,1176.0 3565.0,1249.0 3585.0,1256.0 C 3592.0,1259.0 3629.0,1242.0 3667.0,1219.0 C 3763.0,1160.0 3788.0,1148.0 3800.0,1155.0 C 3806.0,1159.0 3828.0,1144.0 3848.0,1123.0 C 3900.0,1070.0 3974.0,1051.0 4040.0,1075.0 C 4065.0,1084.0 4102.0,1102.0 4123.0,1116.0 C 4157.0,1138.0 4160.0,1144.0 4160.0,1185.0 C 4160.0,1261.0 4139.0,1311.0 4084.0,1366.0 C 4046.0,1405.0 4024.0,1419.0 3993.0,1424.0 C 3942.0,1433.0 3883.0,1423.0 3848.0,1399.0 C 3834.0,1388.0 3819.0,1380.0 3815.0,1380.0 C 3811.0,1380.0 3783.0,1402.0 3752.0,1429.0 C 3669.0,1500.0 3629.0,1520.0 3567.0,1519.0 C 3538.0,1519.0 3506.0,1515.0 3495.0,1510.0" fill="#000000" id="000000-000026"/>
    <path stroke="none" d="M 992.0,1488.0 C 977.0,1473.0 976.0,1272.0 990.0,1191.0 C 995.0,1160.0 1004.0,1104.0 1010.0,1065.0 C 1040.0,880.0 1061.0,819.0 1113.0,775.0 C 1165.0,730.0 1231.0,700.0 1277.0,700.0 C 1309.0,700.0 1317.0,704.0 1326.0,728.0 C 1342.0,767.0 1356.0,809.0 1368.0,855.0 C 1374.0,877.0 1383.0,914.0 1390.0,938.0 C 1401.0,981.0 1420.0,987.0 1420.0,948.0 C 1420.0,936.0 1424.0,913.0 1429.0,896.0 C 1435.0,879.0 1444.0,838.0 1450.0,805.0 C 1457.0,772.0 1468.0,734.0 1475.0,720.0 C 1492.0,689.0 1615.0,621.0 1656.0,621.0 C 1696.0,620.0 1707.0,636.0 1750.0,770.0 C 1801.0,930.0 1866.0,1125.0 1899.0,1220.0 C 1916.0,1267.0 1929.0,1313.0 1930.0,1322.0 C 1930.0,1332.0 1914.0,1357.0 1895.0,1378.0 C 1869.0,1408.0 1848.0,1420.0 1805.0,1430.0 C 1727.0,1449.0 1706.0,1435.0 1656.0,1334.0 C 1611.0,1243.0 1608.0,1234.0 1576.0,1136.0 C 1566.0,1106.0 1548.0,1132.0 1539.0,1187.0 C 1504.0,1415.0 1506.0,1411.0 1423.0,1428.0 C 1334.0,1446.0 1305.0,1444.0 1293.0,1418.0 C 1283.0,1396.0 1256.0,1312.0 1230.0,1220.0 C 1213.0,1160.0 1197.0,1120.0 1189.0,1120.0 C 1183.0,1120.0 1170.0,1281.0 1170.0,1362.0 C 1170.0,1413.0 1154.0,1431.0 1067.0,1479.0 C 1024.0,1503.0 1009.0,1505.0 992.0,1488.0" fill="#000000" id="000000-000027"/>
    <path stroke="none" d="M 11335.0,1428.0 C 11229.0,1393.0 11137.0,1318.0 11067.0,1212.0 C 10927.0,997.0 10927.0,728.0 11068.0,633.0 C 11127.0,594.0 11235.0,567.0 11306.0,573.0 C 11425.0,584.0 11575.0,681.0 11636.0,786.0 C 11667.0,839.0 11662.0,859.0 11610.0,894.0 C 11565.0,923.0 11538.0,927.0 11520.0,905.0 C 11497.0,877.0 11404.0,822.0 11342.0,800.0 C 11284.0,779.0 11278.0,778.0 11261.0,794.0 C 11243.0,810.0 11217.0,880.0 11225.0,889.0 C 11228.0,891.0 11238.0,886.0 11248.0,877.0 C 11298.0,832.0 11418.0,887.0 11540.0,1009.0 C 11647.0,1117.0 11680.0,1179.0 11680.0,1276.0 C 11680.0,1333.0 11676.0,1348.0 11654.0,1377.0 C 11617.0,1426.0 11574.0,1440.0 11461.0,1439.0 C 11408.0,1439.0 11352.0,1434.0 11335.0,1428.0M 11418.0,1228.0 C 11422.0,1191.0 11375.0,1124.0 11309.0,1071.0 C 11245.0,1020.0 11229.0,1018.0 11240.0,1064.0 C 11268.0,1188.0 11408.0,1317.0 11418.0,1228.0" fill="#000000" id="000000-000028"/>
    <path stroke="none" d="M 2175.0,1284.0 C 2124.0,1277.0 2006.0,1237.0 1978.0,1217.0 C 1946.0,1196.0 1944.0,1182.0 1966.0,1132.0 C 1975.0,1111.0 1988.0,1080.0 1996.0,1062.0 C 2010.0,1028.0 2011.0,1028.0 2063.0,1035.0 C 2091.0,1039.0 2131.0,1046.0 2150.0,1051.0 C 2169.0,1056.0 2224.0,1060.0 2273.0,1060.0 L 2360.0,1060.0 L 2360.0,1004.0 C 2360.0,950.0 2359.0,948.0 2338.0,954.0 C 2239.0,982.0 2194.0,981.0 2085.0,948.0 C 1988.0,919.0 1921.0,843.0 1920.0,761.0 C 1920.0,679.0 2024.0,530.0 2107.0,495.0 C 2161.0,472.0 2267.0,472.0 2314.0,494.0 L 2352.0,512.0 L 2379.0,486.0 C 2394.0,472.0 2412.0,460.0 2418.0,460.0 C 2425.0,460.0 2448.0,451.0 2468.0,441.0 C 2489.0,430.0 2530.0,420.0 2560.0,418.0 L 2614.0,415.0 L 2617.0,731.0 C 2621.0,1093.0 2622.0,1087.0 2537.0,1177.0 C 2461.0,1257.0 2410.0,1280.0 2297.0,1284.0 C 2247.0,1287.0 2192.0,1286.0 2175.0,1284.0M 2340.0,754.0 C 2340.0,716.0 2335.0,703.0 2313.0,684.0 C 2272.0,649.0 2237.0,653.0 2204.0,695.0 C 2190.0,714.0 2180.0,736.0 2183.0,743.0 C 2191.0,763.0 2270.0,799.0 2308.0,800.0 C 2340.0,800.0 2340.0,799.0 2340.0,754.0" fill="#000000" id="000000-000029"/>
    <path stroke="none" d="M 10623.0,1241.0 C 10587.0,1232.0 10502.0,1179.0 10475.0,1150.0 C 10454.0,1127.0 10440.0,1124.0 10440.0,1144.0 C 10440.0,1165.0 10423.0,1167.0 10327.0,1162.0 C 10193.0,1155.0 10200.0,1173.0 10201.0,816.0 C 10202.0,480.0 10209.0,423.0 10254.0,401.0 C 10301.0,379.0 10399.0,377.0 10440.0,397.0 C 10496.0,426.0 10499.0,441.0 10487.0,661.0 L 10477.0,857.0 L 10509.0,913.0 C 10545.0,976.0 10592.0,1030.0 10611.0,1030.0 C 10620.0,1030.0 10621.0,1001.0 10615.0,898.0 C 10610.0,825.0 10606.0,711.0 10606.0,645.0 L 10605.0,526.0 L 10639.0,503.0 C 10662.0,488.0 10688.0,480.0 10717.0,480.0 C 10766.0,480.0 10856.0,506.0 10867.0,524.0 C 10871.0,530.0 10876.0,579.0 10877.0,632.0 C 10878.0,686.0 10884.0,756.0 10889.0,787.0 C 10904.0,864.0 10903.0,1072.0 10888.0,1107.0 C 10875.0,1138.0 10821.0,1200.0 10807.0,1200.0 C 10802.0,1200.0 10785.0,1209.0 10770.0,1220.0 C 10738.0,1243.0 10670.0,1253.0 10623.0,1241.0" fill="#000000" id="000000-000030"/>
    <path stroke="none" d="M 6707.0,1233.0 C 6703.0,1230.0 6700.0,1212.0 6700.0,1195.0 C 6700.0,1162.0 6689.0,1154.0 6624.0,1135.0 C 6613.0,1132.0 6594.0,1120.0 6583.0,1107.0 C 6558.0,1081.0 6473.0,830.0 6429.0,658.0 C 6423.0,634.0 6414.0,601.0 6409.0,584.0 C 6404.0,567.0 6400.0,544.0 6400.0,531.0 C 6400.0,517.0 6388.0,502.0 6365.0,489.0 C 6326.0,466.0 6323.0,448.0 6345.0,385.0 C 6353.0,363.0 6360.0,309.0 6360.0,262.0 L 6360.0,180.0 L 6403.0,133.0 C 6450.0,82.0 6496.0,57.0 6521.0,70.0 C 6529.0,75.0 6542.0,105.0 6549.0,137.0 C 6556.0,169.0 6566.0,205.0 6571.0,218.0 C 6576.0,231.0 6580.0,249.0 6580.0,259.0 C 6580.0,287.0 6603.0,293.0 6742.0,298.0 C 6844.0,301.0 6871.0,300.0 6874.0,289.0 C 6876.0,281.0 6888.0,244.0 6900.0,207.0 C 6925.0,126.0 6961.0,67.0 6996.0,51.0 C 7010.0,45.0 7061.0,40.0 7110.0,40.0 L 7200.0,40.0 L 7200.0,67.0 C 7200.0,82.0 7196.0,107.0 7191.0,124.0 C 7171.0,188.0 7156.0,257.0 7130.0,400.0 C 7120.0,453.0 7097.0,604.0 7070.0,790.0 C 7054.0,899.0 7039.0,978.0 7024.0,1035.0 C 6986.0,1181.0 6968.0,1211.0 6913.0,1228.0 C 6870.0,1241.0 6718.0,1245.0 6707.0,1233.0M 6775.0,833.0 C 6781.0,793.0 6791.0,736.0 6811.0,629.0 C 6818.0,592.0 6821.0,556.0 6817.0,548.0 C 6811.0,531.0 6767.0,520.0 6704.0,520.0 C 6656.0,520.0 6650.0,532.0 6669.0,582.0 C 6674.0,595.0 6683.0,625.0 6690.0,650.0 C 6697.0,675.0 6706.0,706.0 6710.0,720.0 C 6717.0,742.0 6726.0,775.0 6745.0,848.0 C 6754.0,882.0 6768.0,874.0 6775.0,833.0" fill="#000000" id="000000-000031"/>
    <path stroke="none" d="M 9778.0,1125.0 C 9581.0,1069.0 9422.0,844.0 9420.0,618.0 C 9419.0,462.0 9482.0,359.0 9610.0,310.0 C 9629.0,303.0 9649.0,293.0 9654.0,288.0 C 9660.0,284.0 9704.0,280.0 9752.0,280.0 C 9828.0,280.0 9849.0,284.0 9903.0,308.0 C 9985.0,346.0 10063.0,409.0 10096.0,465.0 C 10127.0,519.0 10121.0,541.0 10065.0,578.0 C 10023.0,605.0 9989.0,606.0 9966.0,581.0 C 9935.0,547.0 9798.0,490.0 9746.0,490.0 C 9728.0,490.0 9717.0,500.0 9701.0,535.0 C 9670.0,602.0 9673.0,616.0 9712.0,580.0 C 9739.0,555.0 9752.0,555.0 9818.0,579.0 C 9899.0,609.0 9957.0,647.0 10024.0,714.0 C 10104.0,795.0 10140.0,868.0 10140.0,952.0 C 10140.0,1060.0 10093.0,1110.0 9980.0,1122.0 C 9843.0,1138.0 9824.0,1138.0 9778.0,1125.0M 9874.0,944.0 C 9885.0,916.0 9880.0,899.0 9850.0,855.0 C 9822.0,814.0 9745.0,750.0 9707.0,737.0 C 9662.0,720.0 9726.0,866.0 9789.0,923.0 C 9833.0,962.0 9864.0,970.0 9874.0,944.0" fill="#000000" id="000000-000033"/>
    <path stroke="none" d="M 9340.0,1068.0 C 9276.0,1041.0 9262.0,1034.0 9223.0,1008.0 C 9179.0,979.0 9160.0,974.0 9145.0,989.0 C 9120.0,1012.0 9061.0,1021.0 9021.0,1009.0 L 8980.0,997.0 L 8980.0,651.0 C 8980.0,326.0 8981.0,303.0 9000.0,273.0 C 9021.0,238.0 9054.0,225.0 9150.0,214.0 C 9196.0,209.0 9208.0,211.0 9221.0,226.0 C 9251.0,260.0 9262.0,383.0 9250.0,529.0 L 9239.0,661.0 L 9266.0,708.0 C 9281.0,734.0 9331.0,794.0 9377.0,841.0 C 9471.0,937.0 9473.0,947.0 9432.0,1025.0 C 9403.0,1078.0 9384.0,1087.0 9340.0,1068.0" fill="#000000" id="000000-000034"/>
    <path stroke="none" d="M 3872.0,988.0 C 3850.0,960.0 3833.0,855.0 3810.0,609.0 C 3796.0,448.0 3797.0,419.0 3821.0,356.0 C 3848.0,281.0 3912.0,225.0 3985.0,210.0 C 4085.0,189.0 4086.0,193.0 4096.0,560.0 C 4104.0,838.0 4095.0,883.0 4020.0,953.0 C 3975.0,994.0 3963.0,1000.0 3926.0,1000.0 C 3902.0,1000.0 3878.0,994.0 3872.0,988.0" fill="#000000" id="000000-000035"/>
    <path stroke="none" d="M 4420.0,985.0 C 4310.0,953.0 4240.0,910.0 4211.0,853.0 C 4194.0,821.0 4197.0,689.0 4216.0,645.0 C 4237.0,594.0 4308.0,527.0 4418.0,455.0 C 4468.0,422.0 4510.0,389.0 4510.0,383.0 C 4510.0,365.0 4433.0,377.0 4328.0,411.0 C 4280.0,427.0 4227.0,440.0 4210.0,440.0 C 4182.0,440.0 4180.0,437.0 4180.0,406.0 C 4180.0,387.0 4184.0,369.0 4189.0,366.0 C 4193.0,363.0 4200.0,343.0 4204.0,322.0 C 4212.0,268.0 4242.0,234.0 4311.0,200.0 C 4411.0,149.0 4458.0,137.0 4560.0,136.0 C 4667.0,135.0 4701.0,147.0 4746.0,203.0 C 4798.0,268.0 4816.0,380.0 4785.0,439.0 C 4769.0,471.0 4706.0,529.0 4663.0,550.0 C 4607.0,579.0 4493.0,659.0 4457.0,695.0 C 4435.0,717.0 4420.0,742.0 4420.0,756.0 C 4420.0,776.0 4425.0,780.0 4453.0,780.0 C 4503.0,780.0 4589.0,717.0 4636.0,645.0 C 4675.0,585.0 4719.0,606.0 4774.0,713.0 L 4812.0,788.0 L 4795.0,824.0 C 4774.0,868.0 4704.0,931.0 4647.0,958.0 C 4613.0,974.0 4487.0,1003.0 4469.0,999.0 C 4467.0,999.0 4445.0,992.0 4420.0,985.0" fill="#000000" id="000000-000036"/>
    <path stroke="none" d="M 8580.0,970.0 C 8482.0,942.0 8459.0,934.0 8389.0,897.0 C 8294.0,849.0 8216.0,790.0 8211.0,765.0 C 8209.0,754.0 8215.0,732.0 8223.0,715.0 C 8231.0,699.0 8243.0,670.0 8250.0,653.0 C 8257.0,635.0 8269.0,620.0 8276.0,620.0 C 8284.0,620.0 8325.0,637.0 8368.0,659.0 C 8450.0,700.0 8548.0,737.0 8590.0,742.0 C 8614.0,745.0 8615.0,743.0 8615.0,690.0 L 8615.0,635.0 L 8578.0,638.0 C 8500.0,645.0 8358.0,584.0 8275.0,508.0 C 8182.0,423.0 8158.0,333.0 8204.0,241.0 C 8252.0,148.0 8335.0,101.0 8432.0,114.0 C 8491.0,122.0 8539.0,142.0 8578.0,175.0 C 8607.0,199.0 8611.0,200.0 8637.0,187.0 C 8677.0,166.0 8788.0,156.0 8835.0,169.0 L 8875.0,179.0 L 8877.0,494.0 C 8880.0,828.0 8877.0,852.0 8831.0,894.0 C 8810.0,913.0 8802.0,919.0 8741.0,953.0 C 8702.0,975.0 8627.0,983.0 8580.0,970.0M 8600.0,437.0 C 8600.0,402.0 8594.0,388.0 8564.0,357.0 C 8544.0,337.0 8518.0,320.0 8507.0,320.0 C 8485.0,320.0 8440.0,356.0 8440.0,375.0 C 8440.0,401.0 8547.0,480.0 8583.0,480.0 C 8596.0,480.0 8600.0,471.0 8600.0,437.0" fill="#000000" id="000000-000037"/>
    <path stroke="none" d="M8024 946 c-52 -23 -66 -47 -143 -245 -12 -29 -21 -60 -21 -67 0 -19 -22 -64 -32 -64 -4 0 -8 11 -8 25 0 14 -5 44 -10 67 -6 24 -16 72 -23 108 l-14 65 -80 0 c-107 -1 -124 -12 -147 -101 -9 -38 -21 -82 -26 -99 -5 -16 -16 -60 -26 -97 -10 -38 -21 -68 -25 -68 -8 0 -29 142 -32 223 l-2 59 -40 14 c-22 8 -58 15 -80 16 -37 3 -41 0 -58 -33 -15 -32 -16 -48 -7 -135 34 -330 68 -478 119 -512 61 -42 186 -56 212 -24 22 25 79 216 79 261 0 19 17 38 26 29 4 -5 21 -68 44 -170 16 -71 31 -79 172 -95 45 -5 48 -3 68 29 11 18 27 58 35 88 9 30 25 84 36 120 10 36 24 83 30 105 7 22 19 65 29 95 9 30 27 89 40 130 13 41 31 100 41 131 27 78 25 103 -12 133 -35 30 -93 34 -145 12z" fill="#000000" id="000000-000038"/>
    <path stroke="none" d="M5183 861 c-18 -5 -60 -22 -94 -40 -57 -29 -63 -30 -90 -17 -23 12 -34 12 -66 1 -21 -7 -43 -21 -50 -31 -36 -56 -21 -558 19 -609 26 -33 159 -97 194 -93 52 6 56 27 49 285 l-5 232 35 35 c20 20 41 36 48 36 34 0 37 -22 37 -255 0 -209 2 -233 18 -247 27 -22 70 -38 104 -38 17 0 47 -5 65 -12 56 -20 66 -6 80 113 6 57 12 150 12 207 1 109 14 154 65 217 52 63 60 -3 42 -310 -12 -196 -2 -216 120 -244 62 -15 130 -18 141 -7 8 7 11 50 29 358 11 195 -12 258 -131 353 -71 57 -90 65 -160 65 -69 0 -117 -16 -164 -56 l-31 -26 -31 26 c-17 15 -44 33 -60 41 -35 19 -132 27 -176 16z" fill="#000000" id="000000-000039"/>
  </g>
</svg>
