<?xml version="1.0" standalone="no"?>
<!DOCTYPE svg PUBLIC "-//W3C//DTD SVG 1.1//EN"
 "http://www.w3.org/Graphics/SVG/1.1/DTD/svg11.dtd">
<!-- Created with svg_stack (http://github.com/astraw/svg_stack) -->
<svg xmlns:sodipodi="http://sodipodi.sourceforge.net/DTD/sodipodi-0.dtd" xmlns="http://www.w3.org/2000/svg" version="1.1" width="320.0" height="312.0">
  <defs/>
  <g id="id0:id0" transform="matrix(1.25,0,0,1.25,0.0,0.0)"><g transform="translate(0.000000,249.600000) scale(0.040000,-0.040000)" fill="#1349a0" stroke="none">
<path d="M3040 5899 c-174 -17 -373 -75 -541 -159 -111 -56 -308 -167 -374 -210 -176 -116 -416 -225 -584 -264 -71 -16 -97 -27 -99 -39 -3 -16 111 -193 236 -368 26 -36 69 -96 96 -135 27 -38 68 -94 91 -124 23 -30 67 -91 98 -136 l56 -80 -56 -62 c-30 -34 -62 -62 -71 -62 -20 0 -152 109 -343 285 -36 33 -109 98 -164 145 -54 47 -136 120 -183 163 -47 43 -90 76 -96 74 -6 -2 -36 -80 -67 -173 -31 -93 -67 -194 -81 -224 -93 -205 -136 -277 -267 -455 -132 -178 -161 -225 -230 -367 -101 -210 -138 -374 -128 -582 12 -268 102 -478 385 -901 175 -262 233 -413 257 -677 5 -49 11 -68 21 -68 15 0 223 155 353 264 47 39 97 80 112 91 15 11 73 58 129 104 56 46 150 119 208 163 l105 79 48 -47 c27 -27 49 -54 49 -61 0 -14 -46 -71 -199 -246 -47 -54 -108 -124 -136 -157 -27 -32 -84 -97 -125 -145 -41 -48 -88 -104 -105 -125 -16 -21 -59 -72 -93 -114 -67 -81 -73 -106 -25 -106 47 0 263 -57 348 -91 109 -44 193 -90 305 -166 128 -86 160 -110 191 -139 14 -13 28 -24 31 -24 3 0 36 -21 74 -46 103 -69 285 -157 409 -198 248 -81 486 -84 713 -9 165 54 334 145 594 320 231 155 406 232 648 286 116 26 127 37 90 85 -11 15 -76 101 -143 192 -68 91 -159 212 -202 269 -175 227 -219 293 -208 310 5 9 35 36 66 60 l55 43 64 -53 c78 -65 176 -151 283 -249 227 -208 400 -350 427 -350 11 0 20 10 24 27 73 329 199 612 356 799 234 279 342 487 379 724 7 46 9 130 6 215 -9 233 -63 384 -217 608 -39 56 -111 160 -160 231 -179 260 -268 482 -286 714 -10 125 -16 128 -110 57 -112 -83 -289 -223 -343 -270 -54 -48 -169 -141 -264 -214 l-68 -52 -64 62 c-36 34 -65 68 -65 75 0 7 44 62 98 124 123 141 169 194 317 372 223 266 219 258 116 276 -135 23 -351 108 -460 181 -14 10 -80 53 -146 96 -66 44 -158 107 -205 140 -388 277 -593 347 -930 314z m475 -219 l0 -55 -37 -3 c-44 -4 -48 -19 -24 -87 8 -22 33 -92 56 -155 23 -63 61 -171 84 -240 65 -187 80 -214 135 -238 25 -11 54 -23 64 -26 13 -4 17 -16 17 -55 0 -27 -4 -52 -9 -55 -5 -3 -52 5 -105 19 -134 35 -270 56 -416 63 l-125 7 0 55 0 55 59 5 c73 6 85 21 66 79 -7 23 -22 55 -32 72 l-19 32 -142 -8 c-87 -4 -146 -11 -153 -18 -5 -7 -21 -39 -34 -71 -30 -75 -22 -89 51 -96 l54 -5 0 -54 0 -54 -35 -3 c-92 -10 -244 -37 -329 -60 -55 -14 -98 -21 -103 -16 -5 5 -8 31 -6 58 2 38 7 49 23 54 49 13 86 46 115 105 27 53 250 615 250 629 0 2 -21 6 -47 8 l-48 3 -3 44 c-6 77 -31 72 350 69 l343 -3 0 -55z m-125 -985 c329 -58 613 -207 836 -437 251 -258 398 -586 424 -943 44 -620 -279 -1193 -829 -1469 -192 -97 -386 -145 -609 -153 -377 -13 -689 85 -992 314 -62 46 -216 199 -254 253 -160 221 -248 415 -297 655 -32 155 -32 413 0 568 49 243 148 461 298 657 68 90 221 233 323 303 193 132 375 206 620 252 95 18 377 18 480 0z m-2042 -973 c4 -64 -8 -82 -54 -82 l-34 0 0 -580 0 -580 33 0 c18 0 38 -5 45 -12 16 -16 15 -83 -2 -97 -9 -8 -72 -11 -202 -9 l-189 3 0 54 0 54 40 11 40 12 3 553 c1 386 -1 558 -9 567 -6 7 -25 14 -42 16 l-32 3 -3 59 c-2 32 -1 65 2 73 5 11 42 13 203 11 l198 -3 3 -53z m4147 -102 l0 -145 -45 0 -45 0 -3 78 -3 77 -148 0 c-127 0 -150 -2 -155 -16 -9 -24 -7 -407 3 -422 5 -9 28 -12 77 -10 l69 3 5 65 5 65 55 0 55 0 3 -199 c2 -138 -1 -203 -9 -212 -14 -17 -81 -18 -97 -2 -7 7 -12 32 -12 55 l0 44 -77 -3 -78 -3 0 -260 0 -260 55 -3 c69 -4 82 -15 78 -66 l-3 -41 -205 -7 c-113 -4 -211 -6 -218 -3 -9 3 -12 22 -10 62 l3 58 30 5 30 5 3 568 2 567 -33 0 c-18 0 -38 5 -45 12 -13 13 -17 120 -5 131 4 4 167 6 362 5 l356 -3 0 -145z m-2965 -2174 c0 -64 4 -97 13 -104 7 -6 35 -12 62 -14 77 -5 55 -23 -27 -23 l-73 0 -3 109 c-3 114 1 142 18 131 6 -3 10 -48 10 -99z m383 64 c27 -30 29 -38 25 -92 -6 -78 -34 -109 -107 -116 -48 -4 -53 -2 -87 32 l-36 36 4 62 c4 54 8 64 38 91 29 26 38 29 83 24 41 -4 56 -10 80 -37z m254 16 c20 -18 25 -28 17 -36 -8 -8 -18 -5 -36 10 -33 25 -80 26 -102 1 -37 -41 -28 -138 15 -161 28 -16 45 -12 79 16 36 30 60 22 41 -14 -29 -55 -136 -48 -172 12 -22 36 -25 109 -5 145 30 54 115 68 163 27z m212 -18 c26 -60 73 -186 73 -195 -1 -21 -23 -11 -37 17 -15 29 -19 31 -68 28 -45 -3 -53 -6 -65 -30 -13 -28 -26 -35 -36 -20 -2 4 13 54 35 111 55 147 68 159 98 89z m171 -62 c0 -64 4 -97 13 -104 7 -6 35 -12 62 -14 77 -5 55 -23 -27 -23 l-73 0 -3 109 c-3 114 1 142 18 131 6 -3 10 -48 10 -99z m-1158 -362 c8 -18 8 -31 0 -50 -10 -20 -9 -30 3 -47 36 -52 4 -117 -58 -117 -40 0 -73 30 -63 57 7 16 9 16 25 -5 24 -33 62 -26 76 12 8 25 6 31 -18 50 l-27 22 20 20 c37 37 0 77 -45 48 -26 -17 -45 -3 -25 21 25 31 97 23 112 -11z m192 15 c39 -31 35 -70 -14 -123 -22 -24 -40 -48 -40 -54 0 -6 17 -12 38 -14 25 -2 37 -8 37 -18 0 -12 -14 -15 -65 -15 -86 0 -88 15 -16 94 31 34 56 67 56 74 0 8 -9 22 -20 32 l-20 18 -30 -21 c-39 -29 -53 -8 -16 25 33 28 56 29 90 2z m197 2 c19 -16 21 -22 12 -32 -10 -10 -16 -9 -31 4 -30 27 -72 -1 -72 -48 0 -14 6 -16 35 -11 29 6 39 3 60 -18 69 -69 -20 -169 -96 -107 -22 17 -24 27 -24 101 0 77 2 83 28 106 34 29 57 30 88 5z m182 10 c33 -13 50 -68 45 -144 -4 -47 -9 -64 -27 -78 -32 -26 -67 -24 -96 6 -22 21 -25 33 -25 95 0 66 2 74 29 101 32 32 38 33 74 20z m325 -19 c15 -19 15 -37 2 -63 -8 -14 -7 -25 5 -41 36 -53 4 -118 -58 -118 -40 0 -73 30 -63 57 7 16 9 16 25 -5 24 -33 62 -26 76 12 8 25 6 31 -18 50 l-28 22 21 19 c25 23 26 41 0 55 -15 8 -26 7 -44 -5 -27 -18 -46 -4 -26 20 23 28 85 26 108 -3z m196 7 c39 -31 35 -70 -14 -123 -22 -24 -40 -48 -40 -54 0 -6 17 -12 38 -14 25 -2 37 -8 37 -18 0 -12 -14 -15 -65 -15 -86 0 -88 15 -16 94 31 34 56 67 56 74 0 8 -9 22 -20 32 l-20 18 -30 -21 c-39 -29 -53 -8 -16 25 33 28 56 29 90 2z m197 2 c19 -16 21 -22 12 -32 -10 -10 -16 -9 -31 4 -30 27 -72 -1 -72 -48 0 -14 6 -16 35 -11 29 6 39 3 60 -18 69 -69 -20 -169 -96 -107 -22 17 -24 27 -24 101 0 77 2 83 28 106 34 29 57 30 88 5z m207 -9 c15 -19 15 -37 2 -63 -8 -14 -7 -25 5 -41 36 -53 4 -118 -58 -118 -40 0 -73 30 -63 57 7 16 9 16 25 -5 24 -33 62 -26 76 12 8 25 6 31 -18 50 l-28 22 21 19 c25 23 26 41 0 55 -15 8 -26 7 -44 -5 -27 -18 -46 -4 -26 20 23 28 85 26 108 -3z m-774 -13 c-3 -5 -10 -7 -15 -3 -5 3 -7 10 -3 15 3 5 10 7 15 3 5 -3 7 -10 3 -15z m-11 -50 c-6 -6 -9 -17 -7 -24 7 -16 -12 -29 -21 -15 -4 6 -2 17 4 24 6 7 8 16 5 19 -3 3 -3 11 1 17 5 9 10 9 18 1 8 -8 8 -14 0 -22z m-19 -80 c-3 -5 -10 -7 -15 -3 -5 3 -7 10 -3 15 3 5 10 7 15 3 5 -3 7 -10 3 -15z m-9 -49 c-5 -8 -11 -8 -17 -2 -6 6 -7 16 -3 22 5 8 11 8 17 2 6 -6 7 -16 3 -22z"/>
<path d="M3072 5518 c-19 -24 -82 -221 -77 -239 5 -16 16 -18 93 -14 66 2 88 7 90 18 3 17 -80 247 -89 247 -4 0 -11 -6 -17 -12z"/>
<path d="M3133 4643 c-9 -3 -13 -36 -13 -114 l0 -109 69 0 c73 0 86 7 76 39 -4 13 -17 21 -38 23 l-32 3 -3 70 c-4 85 -17 105 -59 88z"/>
<path d="M2950 4631 c-23 -6 -27 -16 -46 -111 -17 -87 -18 -108 -8 -119 18 -20 64 1 64 29 0 33 29 36 56 6 14 -14 29 -26 34 -26 19 0 40 13 40 25 0 26 -90 205 -102 204 -7 -1 -24 -4 -38 -8z"/>
<path d="M2760 4585 c-7 -8 -10 -24 -7 -35 8 -31 -12 -35 -40 -9 -26 25 -58 27 -80 5 -10 -9 -6 -32 19 -108 32 -97 44 -113 74 -101 11 4 14 16 12 41 -4 44 11 50 42 17 13 -14 33 -25 45 -25 24 0 59 32 48 44 -5 4 -21 47 -38 94 -31 89 -49 108 -75 77z"/>
<path d="M3534 4568 c-11 -13 -28 -34 -37 -48 -9 -14 -30 -45 -47 -68 -24 -35 -28 -47 -19 -58 16 -20 43 -17 64 6 23 26 50 12 59 -30 5 -28 9 -31 38 -28 18 2 32 6 31 11 -2 4 -3 54 -3 110 l0 104 -25 11 c-35 16 -38 15 -61 -10z"/>
<path d="M3706 4478 c-22 -31 -20 -47 9 -90 26 -39 21 -57 -11 -33 -37 28 -82 9 -63 -26 15 -29 84 -61 114 -53 53 13 70 74 35 124 -11 16 -16 31 -11 34 5 4 12 2 16 -4 9 -15 41 -12 56 6 12 14 9 20 -16 40 -41 32 -107 33 -129 2z"/>
<path d="M2475 4481 c-112 -46 -75 -231 46 -231 56 0 109 51 109 104 0 91 -80 157 -155 127z m71 -85 c33 -51 -4 -99 -47 -60 -18 17 -26 64 -12 77 14 15 43 6 59 -17z"/>
<path d="M3887 4382 c-19 -21 -22 -64 -7 -93 17 -32 1 -43 -26 -18 -19 18 -26 20 -39 9 -25 -21 -17 -48 22 -75 48 -32 96 -33 117 -3 20 28 20 67 1 94 -18 27 -7 39 16 18 14 -12 22 -13 38 -4 28 15 26 31 -7 63 -34 33 -90 37 -115 9z"/>
<path d="M2292 4358 c-7 -7 -12 -16 -12 -21 0 -7 53 -83 112 -160 l16 -22 21 19 c12 11 21 24 21 30 0 7 -25 46 -56 89 -54 76 -77 90 -102 65z"/>
<path d="M2965 4335 c-222 -38 -455 -155 -613 -308 -92 -89 -200 -248 -254 -377 -68 -159 -88 -264 -88 -455 0 -132 4 -164 30 -269 104 -420 428 -742 850 -845 267 -65 547 -27 800 108 90 47 242 163 287 217 21 25 53 63 70 83 89 103 173 278 219 456 27 101 27 410 1 510 -85 322 -242 543 -510 718 -218 143 -531 207 -792 162z m710 -430 l0 -190 -65 0 -65 0 -5 100 -5 100 -204 3 c-157 2 -206 -1 -213 -10 -10 -17 -10 -529 0 -546 6 -9 35 -12 108 -10 l99 3 5 80 5 80 75 0 75 0 0 -270 0 -270 -75 0 -75 0 -3 60 c-2 33 -9 63 -15 67 -20 13 -182 9 -195 -4 -18 -18 -17 -641 1 -656 7 -6 49 -12 92 -14 l80 -3 0 -70 0 -70 -300 0 -300 0 0 80 0 80 45 5 45 5 3 723 2 722 -48 0 c-26 0 -53 5 -60 12 -13 13 -17 169 -5 181 3 4 230 6 502 5 l496 -3 0 -190z"/>
<path d="M2168 4254 c-32 -31 -58 -60 -58 -64 0 -4 7 -13 16 -21 13 -10 19 -10 36 0 19 12 26 8 72 -38 53 -52 73 -60 94 -39 20 20 14 45 -17 67 -15 11 -36 32 -46 47 -15 23 -15 30 -4 51 12 22 11 27 -6 39 -10 8 -21 14 -24 14 -3 0 -32 -25 -63 -56z"/>
<path d="M4073 4262 c-46 -5 -103 -70 -103 -118 0 -29 8 -44 40 -76 37 -37 44 -40 81 -35 50 7 104 54 113 99 10 51 -30 113 -84 129 -8 2 -29 3 -47 1z m57 -77 c26 -31 -34 -97 -74 -82 -24 9 -19 45 9 72 28 29 47 31 65 10z"/>
<path d="M2037 4112 c-26 -29 -21 -48 35 -130 63 -92 67 -96 90 -75 21 18 23 44 6 61 -18 18 8 42 41 36 32 -7 72 29 54 47 -15 15 -173 79 -193 79 -10 0 -24 -8 -33 -18z"/>
<path d="M4196 4051 c-44 -30 -69 -75 -62 -114 8 -45 57 -102 79 -94 28 10 31 34 8 63 -26 33 -26 49 -1 74 30 30 68 26 88 -10 18 -32 43 -38 62 -15 10 12 8 21 -10 50 -39 63 -108 82 -164 46z"/>
<path d="M1926 3954 c-22 -21 -20 -31 9 -50 31 -21 24 -34 -20 -34 -33 0 -65 -27 -65 -55 0 -13 159 -100 184 -100 10 0 24 8 30 18 9 15 6 22 -17 38 -33 25 -27 39 18 39 35 0 65 21 65 45 0 17 -37 43 -117 84 -73 36 -67 35 -87 15z"/>
<path d="M4305 3866 c-83 -45 -101 -70 -70 -96 14 -11 27 -7 90 26 111 58 120 66 104 92 -19 30 -33 28 -124 -22z"/>
<path d="M4343 3751 c-39 -3 -75 -9 -78 -13 -4 -4 -5 -19 -1 -33 5 -20 13 -25 37 -25 34 0 49 -24 31 -49 -7 -9 -15 -22 -19 -30 -7 -16 9 -46 25 -46 20 0 172 127 172 144 0 9 -7 27 -16 39 -16 24 -18 24 -151 13z"/>
<path d="M1818 3713 c-24 -26 -49 -94 -43 -113 3 -10 41 -29 102 -49 92 -31 98 -32 110 -15 19 25 16 39 -9 57 l-23 15 20 7 c40 13 50 23 50 46 0 21 -5 24 -46 27 -31 2 -53 10 -64 23 -23 24 -76 25 -97 2z m56 -74 c-3 -5 -10 -7 -15 -3 -5 3 -7 10 -3 15 3 5 10 7 15 3 5 -3 7 -10 3 -15z"/>
<path d="M4502 3608 c-5 -7 -11 -22 -13 -33 -4 -20 -46 -39 -111 -50 -34 -5 -38 -9 -38 -34 0 -38 18 -43 93 -26 l62 14 22 -23 c15 -17 29 -23 44 -19 18 5 20 11 15 42 -3 20 -13 60 -21 89 -16 51 -33 64 -53 40z"/>
<path d="M1752 3517 c-6 -7 -14 -39 -18 -70 -8 -66 -10 -64 115 -87 51 -10 78 -11 90 -3 17 11 37 103 27 129 -10 26 -43 16 -55 -17 -11 -32 -36 -31 -28 2 7 26 -19 46 -43 31 -14 -9 -21 -7 -36 9 -20 22 -37 24 -52 6z"/>
<path d="M4463 3390 c-87 -13 -103 -19 -103 -39 0 -38 23 -44 123 -32 50 7 96 16 100 20 5 5 7 19 5 32 -4 28 -36 33 -125 19z"/>
<path d="M1717 3288 c-10 -81 -8 -114 7 -127 19 -16 44 -4 48 22 3 20 10 22 86 25 l82 3 0 28 0 29 -77 8 c-71 8 -78 11 -83 34 -4 17 -14 26 -31 28 -24 3 -26 0 -32 -50z"/>
<path d="M4434 3276 c-59 -26 -82 -95 -51 -156 31 -62 135 -75 189 -23 36 34 43 71 23 120 -25 63 -94 88 -161 59z m100 -84 c15 -18 15 -20 -3 -36 -24 -21 -80 -18 -94 6 -26 41 62 68 97 30z"/>
<path d="M1798 3116 c-79 -13 -95 -24 -78 -56 9 -16 18 -21 36 -17 36 7 37 -7 4 -37 -32 -28 -39 -66 -16 -85 10 -9 37 -8 107 4 52 8 97 15 102 15 4 0 7 14 7 30 0 27 -3 30 -33 30 -49 0 -51 9 -10 45 30 26 35 35 29 58 -6 24 -11 27 -44 26 -20 -1 -67 -6 -104 -13z"/>
<path d="M4367 3033 c-4 -3 -7 -16 -7 -28 0 -16 9 -25 31 -31 41 -12 37 -26 -10 -42 -48 -16 -61 -48 -30 -74 12 -10 33 -18 48 -18 14 -1 48 -7 76 -14 62 -16 85 -11 85 20 0 17 -8 27 -25 34 -33 13 -32 18 9 35 38 16 57 60 34 80 -7 7 -48 19 -91 29 -84 17 -110 20 -120 9z"/>
<path d="M1920 2900 c-14 -4 -55 -16 -92 -26 -58 -15 -68 -20 -68 -39 0 -44 20 -47 120 -20 108 28 128 45 94 79 -17 18 -19 18 -54 6z"/>
<path d="M1959 2569 c-18 -34 3 -69 41 -69 38 0 59 35 41 69 -16 29 -66 29 -82 0z"/>
<path d="M4273 2583 c-18 -7 -16 -58 1 -73 24 -19 60 -8 70 22 15 44 -23 71 -71 51z"/>
<path d="M2162 2354 c-75 -68 -87 -95 -51 -115 17 -9 25 -7 43 10 28 26 38 26 61 1 37 -41 76 -12 45 35 -26 40 -14 52 21 19 24 -23 31 -25 44 -14 8 7 15 20 15 28 0 18 -78 102 -95 102 -6 0 -43 -30 -83 -66z"/>
<path d="M4017 2370 c-38 -45 -44 -86 -16 -116 26 -28 57 -30 99 -9 40 21 51 -1 15 -30 -30 -23 -30 -50 1 -62 12 -4 29 6 56 35 45 49 50 87 15 120 -25 24 -52 27 -90 13 -32 -12 -42 -3 -21 20 20 22 10 59 -16 59 -10 0 -29 -13 -43 -30z"/>
<path d="M2295 2209 c-55 -65 -67 -84 -58 -98 21 -34 47 -24 103 41 89 102 85 96 65 118 -10 11 -23 20 -30 20 -7 0 -43 -36 -80 -81z"/>
<path d="M3902 2243 c-18 -8 -46 -32 -64 -52 -17 -19 -36 -36 -42 -36 -12 0 -94 -42 -114 -58 -14 -11 -150 -61 -222 -81 -40 -12 -45 -17 -48 -44 -6 -58 -57 -70 -64 -15 -2 22 -9 29 -29 31 -43 5 -49 -14 -33 -103 21 -124 22 -125 49 -125 30 0 40 15 40 60 0 30 3 35 24 35 18 0 26 -8 35 -35 12 -39 44 -51 65 -26 10 12 10 30 1 88 -7 40 -12 77 -11 82 1 5 16 10 33 10 31 0 34 -4 55 -64 28 -77 34 -84 67 -76 32 8 32 22 5 100 l-22 60 23 18 c13 10 28 17 34 15 6 -2 25 -29 42 -62 39 -72 55 -82 92 -58 15 10 40 25 56 33 36 19 43 37 22 58 -16 16 -19 16 -47 -1 -45 -25 -56 -10 -17 24 l33 29 -26 22 c-22 19 -25 27 -18 47 l9 24 38 -44 c89 -104 86 -103 110 -90 25 13 28 38 7 65 -23 30 -6 38 31 15 l35 -21 19 17 c29 26 25 42 -20 70 -23 14 -40 33 -40 43 0 22 -40 62 -61 62 -8 0 -29 -8 -47 -17z m33 -83 c-5 -8 -11 -8 -17 -2 -6 6 -7 16 -3 22 5 8 11 8 17 2 6 -6 7 -16 3 -22z m-141 -91 c-3 -5 -10 -7 -15 -3 -5 3 -7 10 -3 15 3 5 10 7 15 3 5 -3 7 -10 3 -15z"/>
<path d="M2432 2207 c-29 -34 -102 -150 -102 -161 0 -18 21 -36 42 -36 10 0 25 11 34 26 22 33 36 17 24 -26 -9 -31 -7 -37 12 -52 32 -24 41 -19 59 37 10 30 25 53 38 59 12 5 24 20 27 33 11 42 -5 73 -53 103 -52 33 -66 36 -81 17z m63 -76 c7 -12 -12 -24 -25 -16 -11 7 -4 25 10 25 5 0 11 -4 15 -9z"/>
<path d="M2563 2023 c-23 -53 -40 -100 -37 -105 5 -8 118 -68 128 -68 8 0 36 31 36 41 0 5 -19 18 -41 30 -46 23 -42 49 4 28 36 -16 59 -5 55 27 -2 20 3 29 20 35 33 12 36 -6 12 -80 -25 -80 -25 -86 3 -106 21 -15 23 -14 40 6 9 12 17 27 17 35 0 20 16 25 43 15 20 -8 29 -6 43 10 l17 19 -17 19 c-10 11 -24 17 -31 15 -7 -3 -16 -1 -19 5 -9 13 13 26 25 14 14 -14 57 -4 64 15 8 23 -12 38 -78 56 -45 13 -62 14 -73 5 -11 -9 -15 -8 -20 5 -7 17 -113 76 -136 76 -7 -1 -32 -44 -55 -97z"/>
<path d="M2952 1983 c-5 -10 -15 -58 -22 -107 -13 -94 -10 -105 32 -106 23 0 29 12 44 99 21 119 20 131 -16 131 -18 0 -33 -7 -38 -17z"/>
<path d="M3114 1976 c-78 -34 -100 -128 -44 -185 17 -17 47 -33 66 -37 33 -6 101 0 111 9 2 3 5 31 6 63 l2 59 -48 3 c-54 4 -71 -16 -43 -47 20 -23 10 -32 -21 -20 -22 8 -27 23 -23 64 3 32 16 39 69 37 50 -1 67 11 55 42 -11 27 -80 34 -130 12z"/>
<path d="M2760 1488 c-24 -39 -25 -79 -5 -117 16 -32 33 -41 75 -41 42 0 69 28 76 80 5 40 3 50 -21 78 -22 26 -34 32 -66 32 -34 0 -42 -5 -59 -32z"/>
<path d="M3325 1448 c-15 -37 -5 -58 27 -58 25 0 33 24 18 60 -16 39 -28 38 -45 -2z"/>
<path d="M2706 974 c-19 -18 -20 -28 -6 -55 19 -35 80 -19 80 21 0 19 -30 50 -48 50 -6 0 -18 -7 -26 -16z"/>
<path d="M2914 1076 c-11 -9 -19 -31 -21 -67 -6 -70 9 -109 40 -109 30 0 47 35 47 96 0 72 -29 107 -66 80z"/>
<path d="M3606 974 c-19 -18 -20 -28 -6 -55 19 -35 80 -19 80 21 0 19 -30 50 -48 50 -6 0 -18 -7 -26 -16z"/>
</g>
</g>
  <g id="id1:id1" transform="matrix(1.25,0,0,1.25,0.0,0.0)"><g transform="translate(0.000000,249.600000) scale(0.040000,-0.040000)" fill="#fcfefd" stroke="none">
<path d="M3025 6100 c-3 -5 -35 -10 -70 -10 -35 0 -66 -4 -69 -9 -3 -5 -23 -11 -43 -15 -88 -13 -113 -19 -119 -27 -3 -5 -16 -9 -29 -9 -13 0 -27 -4 -30 -10 -3 -5 -17 -10 -30 -10 -13 0 -27 -4 -30 -10 -3 -5 -13 -10 -22 -10 -19 0 -347 -161 -398 -196 -20 -13 -38 -24 -41 -24 -4 0 -25 -13 -48 -28 -22 -15 -48 -31 -56 -35 -8 -4 -28 -16 -45 -27 -16 -11 -48 -29 -70 -40 -22 -11 -47 -25 -55 -30 -8 -6 -35 -19 -60 -30 -25 -12 -52 -25 -60 -30 -16 -9 -53 -25 -130 -55 -70 -28 -192 -54 -285 -62 -33 -2 -64 -9 -69 -14 -6 -5 -33 -9 -62 -9 -79 0 -81 -11 -28 -116 25 -49 61 -116 80 -148 41 -70 33 -93 -18 -53 -100 78 -134 106 -179 146 l-49 44 -19 -17 c-18 -16 -24 -35 -38 -114 -3 -18 -9 -35 -14 -38 -5 -3 -9 -16 -9 -29 0 -13 -5 -27 -10 -30 -6 -3 -10 -21 -10 -40 0 -19 -5 -37 -10 -40 -6 -3 -10 -16 -10 -27 0 -23 -17 -81 -31 -110 -5 -10 -9 -27 -9 -37 0 -11 -4 -23 -10 -26 -5 -3 -10 -15 -10 -26 0 -10 -4 -27 -9 -37 -5 -9 -13 -28 -19 -42 -5 -14 -19 -46 -31 -72 -12 -26 -21 -50 -21 -53 0 -12 -51 -115 -60 -120 -6 -3 -19 -25 -30 -49 -10 -23 -26 -49 -35 -56 -8 -7 -15 -17 -15 -22 0 -10 -47 -74 -88 -120 -14 -15 -30 -36 -36 -47 -6 -10 -43 -66 -82 -123 -68 -101 -174 -303 -174 -332 0 -8 -5 -18 -10 -21 -6 -3 -10 -17 -10 -30 0 -13 -4 -27 -10 -30 -5 -3 -10 -17 -10 -30 0 -13 -4 -27 -10 -30 -5 -3 -10 -21 -10 -40 0 -19 -4 -37 -10 -40 -5 -3 -10 -25 -10 -49 0 -23 -5 -47 -10 -52 -14 -14 -7 -317 9 -394 6 -30 13 -72 17 -93 3 -20 10 -40 15 -43 5 -3 9 -16 9 -29 0 -13 4 -27 10 -30 5 -3 10 -15 10 -25 0 -11 8 -34 18 -52 9 -18 24 -51 31 -73 8 -22 21 -51 31 -65 9 -14 38 -65 64 -115 27 -49 54 -97 62 -106 8 -8 14 -20 14 -26 0 -5 9 -18 20 -28 11 -10 20 -23 20 -30 0 -7 9 -20 20 -30 11 -10 20 -23 20 -30 0 -7 9 -20 20 -30 11 -10 20 -23 20 -30 0 -7 9 -20 20 -30 11 -10 20 -24 20 -30 0 -7 7 -18 15 -25 16 -13 110 -201 127 -252 26 -85 31 -142 35 -400 3 -230 6 -278 19 -289 12 -10 20 -7 42 14 16 15 33 27 38 27 6 0 21 11 34 25 13 14 29 25 35 25 7 0 20 9 30 20 10 11 33 29 52 40 53 31 55 1 4 -58 -126 -146 -123 -140 -95 -163 16 -13 97 -23 279 -35 44 -2 89 -9 100 -14 11 -5 40 -11 65 -14 78 -9 120 -18 126 -27 3 -5 14 -9 25 -9 10 0 27 -4 37 -9 9 -5 44 -22 77 -36 133 -61 115 -51 225 -123 36 -23 85 -58 110 -77 25 -19 61 -46 82 -60 20 -13 39 -29 43 -35 4 -6 17 -16 28 -21 32 -14 62 -33 82 -49 31 -26 273 -150 292 -150 7 0 28 -9 48 -20 20 -11 44 -20 55 -20 10 0 22 -4 25 -10 3 -5 19 -10 35 -10 16 0 31 -4 34 -9 6 -9 53 -18 146 -27 30 -3 59 -10 64 -15 14 -12 283 -12 291 1 3 6 30 10 60 10 30 0 57 5 60 10 3 6 21 10 40 10 19 0 37 5 40 10 3 6 17 10 30 10 13 0 27 5 30 10 3 6 14 10 24 10 9 0 36 9 59 20 22 11 45 20 49 20 13 0 171 81 220 113 24 15 44 27 47 27 2 0 87 55 188 123 199 132 350 210 478 246 25 7 55 17 68 22 13 5 33 9 45 9 13 0 27 4 33 9 9 9 52 15 179 27 33 3 64 10 69 15 6 5 38 9 71 9 47 0 66 4 78 18 22 25 21 35 -6 69 -13 15 -27 35 -30 43 -4 8 -25 40 -47 70 -45 62 -40 93 8 47 15 -15 32 -27 37 -27 4 0 29 -19 56 -43 109 -97 129 -103 129 -42 0 19 5 37 10 40 6 3 10 21 10 40 0 19 5 37 10 40 6 3 10 24 10 45 0 21 5 42 10 45 6 3 10 24 10 45 0 21 5 42 10 45 6 3 10 21 10 40 0 19 5 37 10 40 6 3 10 21 10 40 0 19 4 37 10 40 6 3 10 15 10 26 0 10 4 27 9 37 5 9 15 37 22 62 7 25 16 49 21 55 4 5 8 15 8 23 0 20 88 198 105 212 8 7 15 16 15 21 0 10 38 67 77 114 135 167 144 178 217 288 64 95 146 253 146 280 0 9 5 19 10 22 6 3 10 17 10 30 0 13 5 27 10 30 6 3 10 21 10 40 0 19 5 37 10 40 6 3 10 26 10 50 0 24 5 47 10 50 6 4 10 77 10 185 0 108 -4 181 -10 185 -5 3 -10 26 -10 50 0 24 -4 47 -10 50 -5 3 -10 21 -10 40 0 19 -4 37 -10 40 -5 3 -10 17 -10 30 0 13 -4 27 -10 30 -5 3 -10 14 -10 23 0 22 -87 197 -106 212 -8 7 -14 16 -14 20 0 5 -24 43 -52 85 -29 43 -60 87 -68 100 -18 27 -46 65 -77 105 -13 15 -23 32 -23 37 0 6 -9 18 -20 28 -11 10 -20 24 -20 30 0 7 -6 18 -14 24 -19 16 -126 231 -126 253 0 9 -4 20 -10 23 -5 3 -10 17 -10 30 0 13 -4 27 -10 30 -5 3 -10 21 -10 40 0 19 -4 37 -10 40 -5 3 -10 30 -10 60 0 30 -4 57 -10 60 -6 4 -10 82 -10 200 0 118 -4 196 -10 200 -5 3 -10 15 -10 26 0 11 -7 22 -15 25 -14 6 -41 -11 -114 -73 -21 -18 -43 -33 -48 -33 -6 0 -18 -9 -29 -21 -24 -27 -52 -42 -64 -34 -11 6 21 64 50 90 11 10 20 23 20 30 0 7 9 20 20 30 11 10 20 23 20 30 0 6 11 22 25 35 14 13 25 26 25 29 0 18 -55 37 -130 43 -205 18 -342 37 -354 49 -6 5 -20 9 -32 9 -13 0 -26 5 -29 10 -3 6 -14 10 -24 10 -15 0 -103 38 -141 61 -8 5 -33 18 -56 28 -22 11 -47 27 -54 36 -7 8 -17 15 -22 15 -8 0 -148 91 -246 160 -19 14 -45 32 -58 40 -12 8 -56 39 -99 68 -42 28 -80 52 -85 52 -4 0 -13 7 -20 15 -7 9 -32 25 -55 35 -23 10 -48 26 -55 35 -7 8 -16 15 -21 15 -5 0 -31 10 -57 21 -88 40 -107 47 -152 63 -25 9 -55 16 -67 16 -12 0 -25 5 -28 10 -3 6 -26 10 -50 10 -24 0 -47 5 -50 10 -4 6 -67 10 -155 10 -88 0 -151 -4 -155 -10z m410 -244 c153 -45 304 -129 555 -305 344 -243 544 -348 740 -391 30 -7 66 -16 78 -21 l24 -9 -18 -28 c-9 -15 -32 -45 -51 -67 -18 -22 -57 -70 -87 -107 -29 -36 -79 -95 -109 -130 -133 -150 -337 -393 -337 -401 0 -14 121 -136 142 -143 13 -4 41 11 95 53 42 32 90 69 108 83 18 14 53 42 76 62 69 59 240 200 283 233 152 117 194 146 199 138 2 -5 8 -42 11 -83 25 -270 137 -523 372 -840 192 -258 272 -440 293 -663 16 -168 -13 -372 -72 -512 -45 -107 -144 -266 -234 -377 -83 -103 -160 -205 -190 -253 -82 -129 -173 -357 -224 -558 -12 -49 -28 -91 -35 -94 -15 -6 -140 98 -417 347 -358 322 -339 307 -369 287 -41 -26 -128 -109 -128 -120 0 -7 68 -102 151 -212 83 -110 196 -261 251 -335 55 -74 113 -151 128 -170 15 -19 32 -45 39 -57 14 -28 1 -36 -84 -53 -113 -23 -304 -91 -417 -149 -62 -31 -187 -107 -278 -167 -242 -162 -332 -212 -483 -268 -154 -58 -279 -79 -432 -73 -149 6 -199 15 -346 63 -179 58 -386 175 -594 333 -211 161 -372 239 -618 301 -81 20 -148 40 -148 44 -1 8 72 99 151 190 25 29 77 90 115 136 39 45 93 108 120 140 28 31 88 100 135 154 47 55 109 126 138 159 28 33 52 68 52 78 0 10 -24 44 -53 75 -50 54 -54 56 -77 44 -29 -15 -116 -82 -249 -189 -51 -42 -110 -89 -131 -106 -21 -16 -93 -75 -161 -130 -256 -207 -337 -267 -349 -260 -5 3 -10 30 -10 59 0 192 -88 414 -276 697 -275 414 -365 638 -366 909 -1 291 102 557 341 875 186 246 273 415 371 715 22 69 42 131 45 138 3 9 36 -14 93 -65 637 -562 673 -593 690 -593 16 0 142 127 142 143 0 10 -76 124 -140 211 -149 203 -263 363 -356 504 -84 127 -84 135 -7 147 109 16 415 148 537 230 20 14 39 25 41 25 2 0 56 32 120 70 64 39 118 70 121 70 2 0 23 12 45 26 77 48 277 133 386 164 166 46 269 59 428 56 117 -3 155 -7 230 -30z"/>
<path d="M2807 5743 c-3 -5 -2 -35 2 -68 l6 -60 33 -3 c18 -2 35 -9 38 -17 3 -7 -40 -129 -96 -272 -56 -142 -111 -281 -121 -309 -22 -58 -52 -90 -112 -119 l-42 -20 -3 -58 c-3 -65 10 -92 37 -78 30 16 226 59 346 77 66 9 123 22 127 28 9 13 10 98 2 120 -5 12 -20 16 -59 16 -30 0 -57 5 -60 10 -8 13 25 107 43 122 8 7 65 11 145 12 l132 1 22 -45 c35 -70 29 -84 -37 -88 -30 -2 -60 -8 -67 -14 -14 -11 -18 -105 -5 -124 4 -6 52 -15 107 -18 161 -12 311 -35 442 -67 67 -17 127 -28 133 -24 11 7 14 114 2 131 -4 6 -31 19 -59 28 -33 11 -60 28 -72 44 -10 15 -44 99 -76 187 -31 88 -78 221 -105 295 -64 180 -64 174 -15 180 l40 5 0 65 0 65 -362 3 c-199 1 -364 -1 -366 -5z m322 -355 c18 -48 30 -92 26 -98 -8 -13 -132 -13 -140 0 -6 9 36 144 57 184 13 25 19 15 57 -86z"/>
<path d="M2975 4723 c-194 -25 -376 -84 -543 -176 -144 -80 -139 -77 -286 -195 -86 -70 -226 -237 -298 -357 -96 -160 -156 -313 -195 -500 -21 -99 -25 -149 -26 -285 -1 -203 19 -325 82 -511 80 -238 258 -502 439 -651 93 -76 161 -128 167 -128 2 0 21 -12 42 -26 50 -34 223 -116 298 -142 319 -110 680 -109 997 3 76 27 263 121 324 162 23 15 61 41 85 57 81 54 280 266 353 377 517 779 234 1817 -609 2228 -217 106 -419 152 -665 149 -74 0 -148 -3 -165 -5z m195 -171 c0 -78 5 -89 43 -94 42 -5 33 -23 -14 -26 -64 -5 -73 9 -66 101 4 43 9 82 12 88 14 22 25 -7 25 -69z m-139 -18 c31 -65 38 -89 29 -98 -8 -8 -15 -6 -25 9 -32 45 -34 46 -61 28 -14 -9 -30 -28 -35 -41 -7 -18 -13 -22 -20 -15 -8 8 -7 34 2 89 14 94 23 114 50 114 15 0 29 -20 60 -86z m-209 -40 c15 -43 26 -85 23 -91 -9 -25 -40 -12 -87 34 -26 26 -51 44 -55 40 -4 -4 1 -31 10 -59 11 -34 13 -56 7 -62 -16 -16 -26 2 -53 92 l-25 83 21 8 c17 7 32 0 69 -31 25 -21 49 -34 52 -29 4 5 0 28 -8 50 -7 22 -11 43 -8 46 15 14 29 -8 54 -81z m772 63 c14 -10 16 -26 14 -102 -2 -72 -6 -90 -18 -90 -8 0 -16 9 -18 20 -9 46 -49 60 -83 29 -10 -9 -25 -14 -33 -11 -13 5 -6 20 30 74 72 105 73 106 108 80z m181 -77 c3 -5 11 -7 18 -4 16 6 52 -32 39 -40 -5 -3 -21 3 -34 14 -19 14 -28 16 -36 8 -17 -17 -15 -32 6 -59 33 -42 34 -58 6 -86 -27 -27 -63 -26 -97 5 -27 24 -4 37 28 16 24 -15 28 -16 42 -1 14 14 13 18 -11 50 -32 42 -33 71 -4 91 26 18 35 20 43 6z m-1216 -24 c15 -8 36 -33 46 -55 15 -35 16 -45 5 -71 -17 -40 -46 -60 -90 -60 -93 0 -132 141 -51 185 33 18 55 18 90 1z m1442 -102 c8 -10 9 -18 2 -25 -7 -7 -14 -5 -23 6 -14 17 -46 20 -55 5 -3 -5 1 -23 10 -39 29 -57 15 -101 -32 -101 -33 0 -83 27 -83 45 0 23 16 26 35 5 19 -22 33 -24 53 -12 10 7 8 18 -8 54 -22 51 -18 76 14 87 24 9 69 -4 87 -25z m-1622 -68 c51 -68 59 -90 42 -101 -15 -8 -124 142 -117 161 9 24 20 15 75 -60z m961 29 c240 -42 437 -145 606 -317 136 -138 213 -263 272 -444 41 -124 56 -220 56 -354 -1 -319 -117 -595 -342 -810 -118 -113 -133 -125 -235 -179 -375 -204 -829 -184 -1182 51 -71 47 -211 182 -264 253 -291 392 -304 924 -33 1324 97 142 224 259 392 358 64 38 214 92 310 111 118 25 302 28 420 7z m-1094 -36 c3 -6 1 -16 -5 -22 -20 -20 -12 -41 35 -88 34 -34 45 -52 40 -65 -6 -15 -17 -8 -67 42 -53 53 -61 57 -80 46 -43 -27 -39 2 7 49 51 51 59 56 70 38z m1901 -49 c58 -35 52 -122 -11 -164 -61 -39 -146 3 -146 73 0 45 22 79 64 97 42 18 56 17 93 -6z m-1908 -195 c-2 -5 -15 -11 -29 -11 -42 -2 -45 -3 -58 -24 -9 -15 -9 -25 0 -45 8 -18 8 -29 1 -36 -7 -7 -28 17 -69 76 l-59 87 23 18 22 18 86 -36 c47 -21 85 -41 83 -47z m2089 -20 c25 -26 32 -39 24 -47 -8 -8 -19 -3 -41 20 -37 40 -61 40 -100 1 -37 -36 -38 -48 -10 -83 19 -25 19 -46 -2 -46 -17 0 -49 64 -49 98 0 49 48 92 102 92 32 0 47 -7 76 -35z m-2297 -105 c59 -30 79 -45 77 -58 -2 -13 -16 -18 -58 -20 -109 -5 -125 -18 -60 -47 49 -22 68 -42 48 -50 -13 -5 -168 70 -168 82 0 2 5 13 11 24 8 16 19 20 52 18 60 -3 87 0 87 9 0 4 -20 20 -45 35 -25 16 -43 33 -39 38 7 13 6 13 95 -31z m2384 -30 c6 -10 -10 -21 -99 -69 -41 -22 -62 -29 -70 -21 -14 14 -3 23 75 65 68 36 84 41 94 25z m65 -155 c19 -23 9 -40 -65 -98 -74 -60 -104 -63 -72 -8 22 37 7 78 -30 83 -40 5 -30 23 17 29 86 11 137 10 150 -6z m-2581 -30 c22 -19 36 -24 55 -19 27 7 60 -11 50 -27 -3 -5 -20 -9 -38 -9 -31 0 -56 -15 -56 -33 0 -4 16 -15 35 -23 34 -14 44 -28 26 -38 -9 -6 -160 41 -175 55 -12 11 21 96 42 109 24 14 27 13 61 -15z m2647 -170 c10 -39 12 -61 5 -68 -7 -7 -14 -2 -22 16 -14 32 -14 32 -91 11 -40 -10 -64 -12 -70 -6 -14 14 -1 32 21 32 9 0 41 7 70 16 44 13 52 19 51 37 -5 62 16 40 36 -38z m-2764 -38 c-13 -17 1 -61 20 -65 14 -3 39 25 44 51 1 4 2 10 3 13 0 3 6 2 11 -1 7 -4 8 -11 2 -18 -6 -7 -6 -21 -1 -35 11 -29 52 -27 57 3 5 25 22 46 32 40 10 -6 -14 -110 -26 -108 -5 0 -43 6 -84 13 -41 7 -80 16 -86 21 -11 9 -10 34 4 69 5 15 8 25 11 36 0 3 6 2 11 -1 7 -4 7 -11 2 -18z m2793 -116 c10 -16 -26 -28 -107 -35 -73 -6 -105 2 -76 21 27 17 174 28 183 14z m-2813 -86 c3 -17 13 -21 78 -25 58 -4 75 -8 75 -20 0 -12 -15 -15 -75 -15 -69 0 -74 -2 -80 -23 -9 -42 -25 -23 -28 34 -2 31 0 64 3 72 7 18 22 6 27 -23z m2777 -29 c77 -40 61 -156 -24 -172 -66 -12 -137 31 -121 73 5 13 11 11 31 -11 42 -46 135 -26 135 29 0 55 -93 75 -135 29 -22 -24 -25 -25 -31 -9 -5 13 2 26 24 47 36 31 77 36 121 14z m-2611 -166 c2 -13 -33 -44 -107 -97 -13 -9 17 -18 60 -18 27 0 49 -4 49 -10 1 -11 -158 -37 -172 -29 -17 10 -7 44 17 61 66 46 71 52 55 62 -8 6 -31 8 -51 5 -36 -6 -60 8 -38 22 16 9 108 22 149 20 22 0 36 -6 38 -16z m2563 -86 c39 -9 73 -22 76 -30 6 -17 -14 -44 -33 -44 -19 0 -94 -33 -94 -41 0 -8 38 -19 67 -19 12 0 25 -5 29 -11 14 -24 -15 -27 -96 -10 -71 15 -85 21 -85 37 0 14 15 24 60 39 55 18 74 30 75 46 0 4 -22 9 -50 13 -48 6 -66 17 -53 30 10 9 27 8 104 -10z m-2526 -134 c0 -17 -166 -62 -179 -49 -16 15 4 26 84 47 82 22 95 22 95 2z m59 -313 c16 -25 -16 -56 -38 -37 -19 15 -20 32 -4 48 15 15 28 11 42 -11z m2300 5 c15 -18 15 -20 -4 -37 -19 -17 -22 -17 -36 -3 -13 12 -14 20 -5 37 14 26 23 26 45 3z m-2030 -206 c41 -51 31 -74 -13 -32 -18 17 -34 24 -44 20 -23 -8 -21 -37 3 -59 14 -13 17 -22 10 -29 -6 -6 -17 -3 -33 12 -29 27 -39 27 -62 2 -22 -24 -34 -25 -42 -3 -5 12 11 33 58 75 35 32 69 58 75 58 7 0 28 -20 48 -44z m1763 -14 c-21 -23 -22 -52 -2 -52 9 0 31 7 51 15 24 10 42 11 59 5 36 -14 35 -69 -3 -111 -40 -45 -61 -30 -25 17 24 32 25 36 10 51 -14 14 -18 14 -39 1 -54 -35 -108 -21 -108 27 0 31 49 90 63 76 7 -7 5 -16 -6 -29z m-1668 -85 c8 -11 -2 -28 -45 -78 -55 -64 -77 -79 -88 -60 -6 10 101 151 115 151 4 0 12 -6 18 -13z m1589 -29 c5 -7 12 -24 14 -38 2 -15 13 -30 29 -37 38 -18 55 -41 41 -55 -8 -8 -18 -7 -36 6 -30 19 -76 21 -76 3 0 -7 7 -23 16 -35 16 -23 13 -52 -4 -52 -5 0 -35 32 -67 72 l-58 72 41 38 c42 39 81 49 100 26z m-1481 -48 c40 -24 65 -62 57 -84 -4 -9 -19 -23 -35 -32 -17 -8 -29 -23 -29 -34 0 -10 -5 -31 -10 -46 -10 -24 -13 -26 -25 -13 -11 11 -13 22 -5 47 17 63 -16 84 -55 35 -22 -27 -52 -24 -41 4 13 34 89 143 100 143 6 0 25 -9 43 -20z m1303 -60 c0 -5 -13 -16 -30 -25 -53 -27 -27 -71 27 -46 40 18 53 -3 14 -23 -34 -18 -39 -37 -15 -57 14 -11 21 -10 46 4 29 16 54 15 43 -3 -9 -14 -97 -60 -105 -55 -9 5 -90 150 -90 160 0 3 21 18 47 34 45 28 63 31 63 11z m-1125 -41 c25 -12 48 -25 50 -29 10 -16 -12 -19 -43 -8 -56 21 -70 -26 -15 -51 18 -8 23 -15 16 -22 -8 -8 -17 -8 -31 0 -61 32 -76 -23 -16 -59 55 -34 27 -47 -34 -16 -28 14 -53 29 -55 33 -5 9 68 173 77 173 4 0 26 -10 51 -21z m955 -51 l-24 -19 23 -71 c15 -47 20 -73 13 -80 -15 -15 -29 -2 -42 40 -7 20 -19 51 -27 69 -13 28 -18 31 -39 23 -27 -11 -40 2 -20 19 20 16 119 49 130 43 5 -3 -1 -14 -14 -24z m-803 -10 c15 -6 33 -10 40 -9 16 2 26 -16 12 -24 -6 -4 -16 -2 -22 4 -8 8 -16 6 -29 -6 -27 -24 -22 -37 18 -57 42 -20 35 -44 -8 -27 -30 11 -44 4 -57 -32 -11 -28 -25 -35 -36 -17 -5 9 15 91 40 168 5 15 7 15 42 0z m652 -125 c7 -47 8 -80 2 -86 -14 -14 -31 1 -31 26 0 39 -14 50 -54 43 -37 -7 -39 -10 -40 -61 -1 -19 -6 -30 -16 -30 -15 0 -36 72 -42 145 -4 46 23 48 37 3 10 -35 25 -40 69 -23 21 8 26 16 26 43 0 19 3 37 7 41 14 14 31 -26 42 -101z m-479 58 c0 -39 -21 -144 -31 -155 -6 -6 -13 -6 -20 1 -12 12 7 159 24 180 14 19 27 6 27 -26z m223 4 c-1 -5 -22 -12 -47 -15 -57 -7 -76 -24 -76 -68 0 -46 24 -72 67 -72 28 0 33 3 33 24 0 13 -8 27 -17 30 -24 9 -1 29 28 24 20 -2 25 -10 27 -41 4 -50 -11 -67 -60 -67 -63 0 -104 22 -118 65 -24 74 33 138 120 133 25 -2 44 -7 43 -13z"/>
<path d="M2955 4543 c-5 -20 -2 -31 11 -40 27 -20 39 0 24 36 -15 38 -26 39 -35 4z"/>
<path d="M3534 4495 c-8 -21 3 -48 19 -43 19 7 22 58 2 58 -8 0 -18 -7 -21 -15z"/>
<path d="M2478 4429 c-45 -26 -4 -129 51 -129 58 0 69 58 22 109 -31 33 -45 37 -73 20z"/>
<path d="M2664 4111 c-2 -2 -4 -53 -4 -113 l0 -108 49 0 c29 0 53 -6 60 -14 8 -9 10 -204 9 -712 l-3 -699 -50 -5 -50 -5 0 -90 0 -90 320 0 320 0 3 82 3 82 -43 5 c-24 4 -65 7 -93 9 l-50 2 0 315 0 315 90 0 90 0 5 -65 5 -65 78 -3 c50 -2 84 1 93 9 11 9 14 61 14 279 0 148 -3 275 -6 284 -5 13 -23 16 -95 16 l-88 0 -3 -87 -3 -88 -90 0 -90 0 0 265 0 265 190 0 190 0 3 -95 c2 -60 7 -97 15 -102 14 -9 129 -11 151 -2 14 5 16 33 16 205 0 151 -3 201 -12 204 -16 6 -1018 11 -1024 6z"/>
<path d="M4055 4189 c-39 -35 -45 -67 -17 -92 26 -23 45 -21 80 8 39 33 45 59 20 90 -25 33 -40 32 -83 -6z"/>
<path d="M2087 4064 c-11 -12 13 -44 33 -44 26 0 26 26 1 40 -23 12 -26 12 -34 4z"/>
<path d="M4376 3701 c-6 -9 2 -41 10 -41 11 0 54 24 54 31 0 17 -55 25 -64 10z"/>
<path d="M1834 3655 c-4 -18 -2 -30 7 -36 25 -16 44 -5 44 26 0 23 -5 31 -22 33 -17 3 -24 -3 -29 -23z"/>
<path d="M3906 2194 c-9 -8 -16 -19 -16 -24 0 -10 29 -40 39 -40 29 0 42 64 15 74 -21 8 -20 8 -38 -10z"/>
<path d="M2451 2133 c-10 -21 -9 -28 1 -34 38 -25 77 4 52 39 -20 29 -38 28 -53 -5z"/>
<path d="M927 3793 c-4 -3 -7 -44 -7 -89 0 -91 -3 -86 65 -96 l20 -3 0 -550 0 -550 -35 -5 -35 -5 0 -70 0 -70 213 -3 212 -2 0 70 0 70 -33 0 c-18 0 -38 5 -45 12 -17 17 -17 1099 0 1116 7 7 27 12 45 12 l33 0 0 85 0 85 -213 0 c-118 0 -217 -3 -220 -7z"/>
<path d="M4767 3783 c-4 -3 -7 -44 -7 -89 l0 -83 38 -3 37 -3 0 -550 0 -550 -25 -4 c-33 -4 -40 -17 -40 -78 0 -89 -17 -83 241 -83 l229 0 0 70 0 69 -62 3 -63 3 0 250 0 250 48 3 c62 4 77 -9 77 -64 l0 -44 70 0 70 0 0 230 0 230 -70 0 -69 0 -3 -67 -3 -68 -60 0 -60 0 0 205 0 205 124 3 c82 2 128 -1 137 -9 9 -8 14 -34 14 -79 0 -75 4 -80 65 -80 66 0 65 -4 65 170 0 135 -2 159 -16 164 -21 8 -729 8 -737 -1z"/>
<path d="M2775 1561 c-44 -19 -78 -68 -83 -119 -8 -92 50 -162 136 -162 39 0 93 38 114 78 23 48 25 48 41 10 40 -96 170 -106 218 -17 24 45 -37 67 -65 24 -34 -52 -96 -19 -96 51 0 73 47 102 98 59 26 -22 35 -24 52 -15 26 14 25 24 -7 60 -56 62 -156 44 -197 -35 -18 -35 -21 -37 -30 -20 -6 10 -25 34 -41 53 -25 27 -40 35 -75 38 -25 2 -54 0 -65 -5z m97 -78 c27 -25 24 -88 -7 -118 -13 -14 -31 -25 -40 -25 -9 0 -27 11 -40 25 -29 28 -33 79 -9 113 18 27 69 30 96 5z"/>
<path d="M2482 1428 l3 -133 98 -3 98 -3 -3 28 c-3 27 -6 28 -63 33 l-60 5 -5 100 -5 100 -33 3 -33 3 3 -133z"/>
<path d="M3313 1548 c-6 -7 -13 -22 -16 -33 -3 -11 -22 -63 -41 -115 -20 -52 -36 -98 -36 -102 0 -5 13 -8 29 -8 21 0 36 8 51 30 15 21 30 30 50 30 20 0 35 -9 50 -30 23 -32 57 -40 66 -15 3 7 -6 42 -19 77 -14 35 -35 89 -47 121 -19 51 -24 57 -49 57 -16 0 -33 -6 -38 -12z m41 -129 c-3 -5 -10 -7 -15 -3 -5 3 -7 10 -3 15 3 5 10 7 15 3 5 -3 7 -10 3 -15z"/>
<path d="M3502 1428 l3 -133 98 -3 98 -3 -3 28 c-3 27 -6 28 -63 33 l-60 5 -5 100 -5 100 -33 3 -33 3 3 -133z"/>
<path d="M2703 1120 c-17 -10 -37 -29 -43 -40 l-12 -22 -33 36 c-27 30 -39 36 -74 36 -47 0 -91 -34 -91 -69 0 -31 37 -37 65 -11 24 23 45 20 45 -6 0 -8 -25 -41 -55 -74 -30 -33 -55 -64 -55 -69 0 -5 -3 -17 -6 -26 -6 -14 4 -15 87 -13 l94 3 0 25 c0 20 -6 26 -30 28 -47 5 -48 15 -5 57 42 41 43 40 54 -26 17 -102 133 -132 174 -46 l14 28 37 -40 c45 -49 76 -53 121 -15 l31 27 6 -22 c9 -35 49 -28 62 12 16 51 42 159 47 200 l5 38 -27 -3 c-25 -3 -30 -9 -44 -66 -8 -35 -20 -63 -25 -63 -6 0 -14 18 -18 39 -24 120 -162 124 -182 6 -11 -68 -13 -69 -41 -43 l-25 24 20 16 c27 22 26 41 -1 66 -35 32 -59 35 -95 13z m53 -61 c9 -16 -12 -33 -31 -25 -14 5 -15 9 -5 21 15 18 26 19 36 4z m202 -73 c-3 -53 -6 -61 -23 -61 -17 0 -20 8 -23 58 -3 65 11 96 35 76 10 -9 13 -30 11 -73z m-200 -39 c4 -20 -25 -34 -40 -19 -15 15 -1 44 19 40 10 -2 19 -11 21 -21z"/>
<path d="M3603 1120 c-17 -10 -37 -29 -43 -40 l-12 -22 -33 36 c-27 30 -39 36 -74 36 -47 0 -91 -34 -91 -69 0 -31 37 -37 65 -11 24 23 45 20 45 -6 0 -8 -25 -41 -55 -74 -30 -33 -55 -64 -55 -69 0 -5 -3 -17 -6 -26 -6 -14 4 -15 87 -13 l94 3 0 25 c0 20 -6 26 -30 28 -47 5 -48 15 -5 57 42 41 43 40 54 -26 17 -103 133 -132 175 -44 13 27 15 28 25 10 42 -74 98 -85 152 -31 38 38 41 53 18 103 -13 25 -14 37 -5 46 32 32 -17 97 -74 97 -38 0 -90 -39 -83 -62 9 -26 36 -33 57 -14 31 28 44 10 18 -25 l-22 -31 29 -23 c19 -15 27 -29 23 -39 -8 -20 -31 -21 -48 0 -9 10 -22 14 -41 10 -22 -4 -30 -1 -39 17 -6 12 -20 32 -31 44 l-20 22 21 13 c27 17 27 39 -1 65 -35 32 -59 35 -95 13z m53 -61 c9 -16 -12 -33 -31 -25 -14 5 -15 9 -5 21 15 18 26 19 36 4z m2 -112 c4 -20 -25 -34 -40 -19 -15 15 -1 44 19 40 10 -2 19 -11 21 -21z"/>
<path d="M2275 1105 c-30 -30 -31 -41 -4 -55 16 -9 24 -8 39 5 30 27 43 8 17 -26 l-22 -31 29 -23 c19 -15 27 -29 23 -39 -8 -20 -31 -21 -47 -1 -14 17 -38 19 -58 6 -20 -12 11 -69 44 -81 43 -17 65 -11 100 24 38 38 41 53 18 103 -13 25 -14 37 -5 46 18 18 13 42 -14 71 -32 35 -86 36 -120 1z"/>
<path d="M3174 1105 c-27 -27 -28 -42 -1 -59 12 -8 21 -6 36 8 31 28 44 10 18 -25 l-22 -31 29 -23 c19 -15 27 -29 23 -39 -8 -20 -31 -21 -47 -1 -14 17 -38 19 -59 6 -10 -7 -11 -13 -1 -32 34 -67 94 -77 146 -25 38 38 41 53 18 103 -13 25 -14 37 -5 46 18 18 13 42 -14 71 -33 35 -86 36 -121 1z"/>
<path d="M5040 1130 c0 -5 5 -10 10 -10 6 0 10 5 10 10 0 6 -4 10 -10 10 -5 0 -10 -4 -10 -10z"/>
</g>
</g>
  <g id="id2:id2" transform="matrix(1.25,0,0,1.25,0.0,0.0)"><g transform="translate(0.000000,249.600000) scale(0.040000,-0.040000)" fill="#c0c0c0" stroke="none">
<path d="M2995 6100 c-9 -15 4 -30 20 -23 8 3 15 9 15 13 0 12 -29 20 -35 10z"/>
<path d="M3345 6100 c-4 -6 -3 -16 3 -22 6 -6 12 -6 17 2 4 6 3 16 -3 22 -6 6 -12 6 -17 -2z"/>
<path d="M2856 6081 c-3 -5 1 -14 8 -20 16 -13 32 2 21 19 -8 12 -22 13 -29 1z"/>
<path d="M3440 6070 c0 -5 7 -10 15 -10 8 0 15 5 15 10 0 6 -7 10 -15 10 -8 0 -15 -4 -15 -10z"/>
<path d="M2770 6050 c0 -5 7 -10 15 -10 8 0 15 5 15 10 0 6 -7 10 -15 10 -8 0 -15 -4 -15 -10z"/>
<path d="M3510 6050 c0 -5 7 -10 15 -10 8 0 15 5 15 10 0 6 -7 10 -15 10 -8 0 -15 -4 -15 -10z"/>
<path d="M2696 6042 c-3 -6 -1 -14 5 -17 15 -10 25 3 12 16 -7 7 -13 7 -17 1z"/>
<path d="M3560 6030 c0 -5 5 -10 10 -10 6 0 10 5 10 10 0 6 -4 10 -10 10 -5 0 -10 -4 -10 -10z"/>
<path d="M2640 6010 c0 -5 5 -10 10 -10 6 0 10 5 10 10 0 6 -4 10 -10 10 -5 0 -10 -4 -10 -10z"/>
<path d="M3620 6010 c0 -5 5 -10 10 -10 6 0 10 5 10 10 0 6 -4 10 -10 10 -5 0 -10 -4 -10 -10z"/>
<path d="M2576 6002 c-3 -6 -1 -14 5 -17 15 -10 25 3 12 16 -7 7 -13 7 -17 1z"/>
<path d="M3660 5990 c0 -5 5 -10 10 -10 6 0 10 5 10 10 0 6 -4 10 -10 10 -5 0 -10 -4 -10 -10z"/>
<path d="M3700 5970 c0 -5 5 -10 10 -10 6 0 10 5 10 10 0 6 -4 10 -10 10 -5 0 -10 -4 -10 -10z"/>
<path d="M2480 5950 c0 -5 5 -10 10 -10 6 0 10 5 10 10 0 6 -4 10 -10 10 -5 0 -10 -4 -10 -10z"/>
<path d="M3785 5939 c-10 -15 3 -25 16 -12 7 7 7 13 1 17 -6 3 -14 1 -17 -5z"/>
<path d="M2440 5930 c0 -5 5 -10 10 -10 6 0 10 5 10 10 0 6 -4 10 -10 10 -5 0 -10 -4 -10 -10z"/>
<path d="M2402 5911 c4 -13 18 -16 19 -4 0 4 -5 9 -11 12 -7 2 -11 -2 -8 -8z"/>
<path d="M2356 5902 c-3 -6 1 -15 8 -21 8 -7 17 -8 20 -3 3 6 -1 15 -8 21 -8 7 -17 8 -20 3z"/>
<path d="M2316 5882 c-3 -6 1 -15 8 -21 8 -7 17 -8 20 -3 3 6 -1 15 -8 21 -8 7 -17 8 -20 3z"/>
<path d="M3880 5880 c-12 -7 -12 -12 -2 -22 9 -9 15 -9 24 0 16 16 -2 34 -22 22z"/>
<path d="M2277 5863 c-10 -16 11 -39 23 -27 8 8 7 14 -4 23 -8 7 -17 8 -19 4z"/>
<path d="M3940 5830 c0 -5 5 -10 10 -10 6 0 10 5 10 10 0 6 -4 10 -10 10 -5 0 -10 -4 -10 -10z"/>
<path d="M2180 5790 c0 -5 5 -10 10 -10 6 0 10 5 10 10 0 6 -4 10 -10 10 -5 0 -10 -4 -10 -10z"/>
<path d="M4000 5790 c0 -5 5 -10 10 -10 6 0 10 5 10 10 0 6 -4 10 -10 10 -5 0 -10 -4 -10 -10z"/>
<path d="M2140 5770 c0 -5 5 -10 10 -10 6 0 10 5 10 10 0 6 -4 10 -10 10 -5 0 -10 -4 -10 -10z"/>
<path d="M4061 5756 c-10 -12 -6 -26 10 -26 11 0 19 29 10 35 -5 2 -14 -1 -20 -9z"/>
<path d="M2080 5730 c0 -5 5 -10 10 -10 6 0 10 5 10 10 0 6 -4 10 -10 10 -5 0 -10 -4 -10 -10z"/>
<path d="M2040 5710 c0 -5 5 -10 10 -10 6 0 10 5 10 10 0 6 -4 10 -10 10 -5 0 -10 -4 -10 -10z"/>
<path d="M4120 5711 c0 -5 7 -11 14 -14 10 -4 13 -1 9 9 -6 15 -23 19 -23 5z"/>
<path d="M1980 5670 c0 -5 5 -10 10 -10 6 0 10 5 10 10 0 6 -4 10 -10 10 -5 0 -10 -4 -10 -10z"/>
<path d="M4192 5659 c2 -7 10 -15 17 -17 8 -3 12 1 9 9 -2 7 -10 15 -17 17 -8 3 -12 -1 -9 -9z"/>
<path d="M1940 5650 c0 -5 5 -10 10 -10 6 0 10 5 10 10 0 6 -4 10 -10 10 -5 0 -10 -4 -10 -10z"/>
<path d="M4260 5610 c0 -5 5 -10 10 -10 6 0 10 5 10 10 0 6 -4 10 -10 10 -5 0 -10 -4 -10 -10z"/>
<path d="M1840 5590 c0 -5 5 -10 10 -10 6 0 10 5 10 10 0 6 -4 10 -10 10 -5 0 -10 -4 -10 -10z"/>
<path d="M1800 5570 c0 -5 5 -10 10 -10 6 0 10 5 10 10 0 6 -4 10 -10 10 -5 0 -10 -4 -10 -10z"/>
<path d="M4320 5570 c0 -5 5 -10 10 -10 6 0 10 5 10 10 0 6 -4 10 -10 10 -5 0 -10 -4 -10 -10z"/>
<path d="M1720 5530 c0 -5 5 -10 10 -10 6 0 10 5 10 10 0 6 -4 10 -10 10 -5 0 -10 -4 -10 -10z"/>
<path d="M1660 5510 c0 -5 5 -10 10 -10 6 0 10 5 10 10 0 6 -4 10 -10 10 -5 0 -10 -4 -10 -10z"/>
<path d="M4420 5510 c0 -5 5 -10 10 -10 6 0 10 5 10 10 0 6 -4 10 -10 10 -5 0 -10 -4 -10 -10z"/>
<path d="M1620 5490 c0 -5 5 -10 10 -10 6 0 10 5 10 10 0 6 -4 10 -10 10 -5 0 -10 -4 -10 -10z"/>
<path d="M1560 5470 c0 -5 5 -10 10 -10 6 0 10 5 10 10 0 6 -4 10 -10 10 -5 0 -10 -4 -10 -10z"/>
<path d="M1480 5450 c0 -5 5 -10 10 -10 6 0 10 5 10 10 0 6 -4 10 -10 10 -5 0 -10 -4 -10 -10z"/>
<path d="M4520 5450 c0 -5 5 -10 10 -10 6 0 10 5 10 10 0 6 -4 10 -10 10 -5 0 -10 -4 -10 -10z"/>
<path d="M1364 5439 c-10 -17 13 -36 27 -22 12 12 4 33 -11 33 -5 0 -12 -5 -16 -11z"/>
<path d="M1230 5420 c-13 -9 -13 -11 0 -20 9 -6 18 -6 24 0 15 15 -6 31 -24 20z"/>
<path d="M4620 5410 c0 -5 5 -10 10 -10 6 0 10 5 10 10 0 6 -4 10 -10 10 -5 0 -10 -4 -10 -10z"/>
<path d="M4680 5390 c0 -5 5 -10 10 -10 6 0 10 5 10 10 0 6 -4 10 -10 10 -5 0 -10 -4 -10 -10z"/>
<path d="M4740 5370 c0 -5 5 -10 10 -10 6 0 10 5 10 10 0 6 -4 10 -10 10 -5 0 -10 -4 -10 -10z"/>
<path d="M4829 5359 c-12 -8 -12 -10 0 -18 15 -10 41 -4 41 9 0 13 -26 19 -41 9z"/>
<path d="M1140 5350 c0 -5 5 -10 10 -10 6 0 10 5 10 10 0 6 -4 10 -10 10 -5 0 -10 -4 -10 -10z"/>
<path d="M5005 5340 c-4 -7 -3 -16 3 -22 14 -14 45 -2 40 15 -6 16 -34 21 -43 7z"/>
<path d="M5180 5320 c-13 -8 -12 -11 5 -24 11 -9 23 -16 26 -16 13 0 17 28 6 39 -13 13 -18 13 -37 1z"/>
<path d="M980 5270 c0 -5 7 -10 15 -10 8 0 15 5 15 10 0 6 -7 10 -15 10 -8 0 -15 -4 -15 -10z"/>
<path d="M5154 5239 c-7 -12 15 -31 28 -23 9 6 -1 34 -12 34 -5 0 -12 -5 -16 -11z"/>
<path d="M1070 5217 c0 -13 39 -41 47 -34 2 3 0 15 -7 26 -12 23 -40 29 -40 8z"/>
<path d="M5307 5223 c-10 -15 5 -63 19 -63 19 0 30 29 17 48 -11 19 -29 26 -36 15z"/>
<path d="M960 5200 c0 -11 5 -20 10 -20 6 0 10 9 10 20 0 11 -4 20 -10 20 -5 0 -10 -9 -10 -20z"/>
<path d="M1240 5170 c0 -5 5 -10 10 -10 6 0 10 5 10 10 0 6 -4 10 -10 10 -5 0 -10 -4 -10 -10z"/>
<path d="M5120 5170 c0 -5 5 -10 10 -10 6 0 10 5 10 10 0 6 -4 10 -10 10 -5 0 -10 -4 -10 -10z"/>
<path d="M5240 5170 c0 -5 5 -10 10 -10 6 0 10 5 10 10 0 6 -4 10 -10 10 -5 0 -10 -4 -10 -10z"/>
<path d="M1190 5145 c-11 -13 -10 -19 5 -35 22 -25 34 -18 31 17 -4 32 -18 40 -36 18z"/>
<path d="M940 5130 c0 -5 5 -10 10 -10 6 0 10 5 10 10 0 6 -4 10 -10 10 -5 0 -10 -4 -10 -10z"/>
<path d="M1260 5130 c0 -5 5 -10 10 -10 6 0 10 5 10 10 0 6 -4 10 -10 10 -5 0 -10 -4 -10 -10z"/>
<path d="M5143 5110 c0 -33 8 -38 27 -15 10 12 10 18 0 30 -19 23 -27 18 -27 -15z"/>
<path d="M5070 5105 c-7 -9 -10 -18 -7 -22 8 -7 37 15 37 28 0 14 -16 11 -30 -6z"/>
<path d="M1280 5090 c0 -5 5 -10 10 -10 6 0 10 5 10 10 0 6 -4 10 -10 10 -5 0 -10 -4 -10 -10z"/>
<path d="M920 5070 c0 -5 5 -10 10 -10 6 0 10 5 10 10 0 6 -4 10 -10 10 -5 0 -10 -4 -10 -10z"/>
<path d="M5081 5056 c-7 -8 -8 -17 -3 -20 6 -3 15 1 21 8 7 8 8 17 3 20 -6 3 -15 -1 -21 -8z"/>
<path d="M5040 5050 c0 -5 5 -10 11 -10 5 0 7 5 4 10 -3 6 -8 10 -11 10 -2 0 -4 -4 -4 -10z"/>
<path d="M900 4990 c0 -5 5 -10 10 -10 6 0 10 5 10 10 0 6 -4 10 -10 10 -5 0 -10 -4 -10 -10z"/>
<path d="M880 4915 c0 -8 5 -15 10 -15 6 0 10 7 10 15 0 8 -4 15 -10 15 -5 0 -10 -7 -10 -15z"/>
<path d="M860 4850 c0 -5 5 -10 10 -10 6 0 10 5 10 10 0 6 -4 10 -10 10 -5 0 -10 -4 -10 -10z"/>
<path d="M5334 4804 c-8 -30 10 -54 27 -37 13 13 4 63 -11 63 -5 0 -13 -12 -16 -26z"/>
<path d="M840 4790 c0 -5 5 -10 10 -10 6 0 10 5 10 10 0 6 -4 10 -10 10 -5 0 -10 -4 -10 -10z"/>
<path d="M820 4730 c0 -5 5 -10 10 -10 6 0 10 5 10 10 0 6 -4 10 -10 10 -5 0 -10 -4 -10 -10z"/>
<path d="M800 4670 c0 -5 5 -10 10 -10 6 0 10 5 10 10 0 6 -4 10 -10 10 -5 0 -10 -4 -10 -10z"/>
<path d="M5360 4650 c0 -5 5 -10 10 -10 6 0 10 5 10 10 0 6 -4 10 -10 10 -5 0 -10 -4 -10 -10z"/>
<path d="M780 4630 c0 -5 5 -10 10 -10 6 0 10 5 10 10 0 6 -4 10 -10 10 -5 0 -10 -4 -10 -10z"/>
<path d="M760 4570 c0 -5 5 -10 10 -10 6 0 10 5 10 10 0 6 -4 10 -10 10 -5 0 -10 -4 -10 -10z"/>
<path d="M5380 4570 c0 -5 5 -10 10 -10 6 0 10 5 10 10 0 6 -4 10 -10 10 -5 0 -10 -4 -10 -10z"/>
<path d="M740 4530 c0 -5 5 -10 10 -10 6 0 10 5 10 10 0 6 -4 10 -10 10 -5 0 -10 -4 -10 -10z"/>
<path d="M5400 4510 c0 -5 5 -10 10 -10 6 0 10 5 10 10 0 6 -4 10 -10 10 -5 0 -10 -4 -10 -10z"/>
<path d="M720 4490 c0 -5 5 -10 10 -10 6 0 10 5 10 10 0 6 -4 10 -10 10 -5 0 -10 -4 -10 -10z"/>
<path d="M700 4445 c0 -8 5 -15 10 -15 6 0 10 7 10 15 0 8 -4 15 -10 15 -5 0 -10 -7 -10 -15z"/>
<path d="M5420 4450 c0 -5 5 -10 10 -10 6 0 10 5 10 10 0 6 -4 10 -10 10 -5 0 -10 -4 -10 -10z"/>
<path d="M636 4362 c-3 -6 -1 -14 5 -17 15 -10 25 3 12 16 -7 7 -13 7 -17 1z"/>
<path d="M600 4290 c0 -5 5 -10 10 -10 6 0 10 5 10 10 0 6 -4 10 -10 10 -5 0 -10 -4 -10 -10z"/>
<path d="M5521 4260 c-14 -8 -7 -30 9 -30 11 0 21 28 12 34 -5 3 -14 1 -21 -4z"/>
<path d="M550 4225 c-7 -9 -10 -18 -7 -22 8 -7 37 15 37 28 0 14 -16 11 -30 -6z"/>
<path d="M5560 4190 c0 -5 5 -10 10 -10 6 0 10 5 10 10 0 6 -4 10 -10 10 -5 0 -10 -4 -10 -10z"/>
<path d="M476 4142 c-2 -4 -1 -14 4 -22 7 -11 12 -12 21 -3 6 6 8 16 5 22 -8 13 -23 14 -30 3z"/>
<path d="M5600 4130 c0 -5 5 -10 10 -10 6 0 10 5 10 10 0 6 -4 10 -10 10 -5 0 -10 -4 -10 -10z"/>
<path d="M440 4070 c0 -5 5 -10 10 -10 6 0 10 5 10 10 0 6 -4 10 -10 10 -5 0 -10 -4 -10 -10z"/>
<path d="M5640 4070 c0 -5 5 -10 10 -10 6 0 10 5 10 10 0 6 -4 10 -10 10 -5 0 -10 -4 -10 -10z"/>
<path d="M400 4010 c0 -5 5 -10 10 -10 6 0 10 5 10 10 0 6 -4 10 -10 10 -5 0 -10 -4 -10 -10z"/>
<path d="M5705 3999 c-10 -15 3 -25 16 -12 7 7 7 13 1 17 -6 3 -14 1 -17 -5z"/>
<path d="M360 3950 c0 -5 5 -10 10 -10 6 0 10 5 10 10 0 6 -4 10 -10 10 -5 0 -10 -4 -10 -10z"/>
<path d="M5740 3930 c0 -5 5 -10 10 -10 6 0 10 5 10 10 0 6 -4 10 -10 10 -5 0 -10 -4 -10 -10z"/>
<path d="M5780 3870 c0 -5 5 -10 10 -10 6 0 10 5 10 10 0 6 -4 10 -10 10 -5 0 -10 -4 -10 -10z"/>
<path d="M5814 3819 c-3 -6 -1 -16 5 -22 9 -9 14 -8 21 3 9 15 4 30 -10 30 -5 0 -12 -5 -16 -11z"/>
<path d="M280 3810 c0 -5 5 -10 10 -10 6 0 10 5 10 10 0 6 -4 10 -10 10 -5 0 -10 -4 -10 -10z"/>
<path d="M260 3760 c0 -5 5 -10 10 -10 6 0 10 5 10 10 0 6 -4 10 -10 10 -5 0 -10 -4 -10 -10z"/>
<path d="M240 3710 c0 -5 5 -10 10 -10 6 0 10 5 10 10 0 6 -4 10 -10 10 -5 0 -10 -4 -10 -10z"/>
<path d="M220 3670 c0 -5 5 -10 10 -10 6 0 10 5 10 10 0 6 -4 10 -10 10 -5 0 -10 -4 -10 -10z"/>
<path d="M200 3610 c0 -5 5 -10 10 -10 6 0 10 5 10 10 0 6 -4 10 -10 10 -5 0 -10 -4 -10 -10z"/>
<path d="M5940 3570 c0 -5 5 -10 10 -10 6 0 10 5 10 10 0 6 -4 10 -10 10 -5 0 -10 -4 -10 -10z"/>
<path d="M180 3550 c0 -5 5 -10 10 -10 6 0 10 5 10 10 0 6 -4 10 -10 10 -5 0 -10 -4 -10 -10z"/>
<path d="M5960 3510 c0 -5 5 -10 10 -10 6 0 10 5 10 10 0 6 -4 10 -10 10 -5 0 -10 -4 -10 -10z"/>
<path d="M155 3481 c-7 -12 12 -24 25 -16 11 7 4 25 -10 25 -5 0 -11 -4 -15 -9z"/>
<path d="M5981 3446 c-9 -10 -9 -16 -1 -21 16 -10 31 7 21 23 -6 10 -10 10 -20 -2z"/>
<path d="M135 3381 c-7 -12 12 -24 25 -16 11 7 4 25 -10 25 -5 0 -11 -4 -15 -9z"/>
<path d="M5997 3345 c-7 -16 8 -29 23 -20 10 6 2 35 -10 35 -4 0 -10 -7 -13 -15z"/>
<path d="M136 3003 c-8 -21 10 -41 24 -27 11 11 3 44 -10 44 -4 0 -11 -8 -14 -17z"/>
<path d="M5995 2941 c-7 -12 12 -24 25 -16 11 7 4 25 -10 25 -5 0 -11 -4 -15 -9z"/>
<path d="M160 2885 c0 -8 5 -15 10 -15 6 0 10 7 10 15 0 8 -4 15 -10 15 -5 0 -10 -7 -10 -15z"/>
<path d="M5980 2830 c0 -5 5 -10 10 -10 6 0 10 5 10 10 0 6 -4 10 -10 10 -5 0 -10 -4 -10 -10z"/>
<path d="M180 2810 c0 -5 5 -10 10 -10 6 0 10 5 10 10 0 6 -4 10 -10 10 -5 0 -10 -4 -10 -10z"/>
<path d="M200 2750 c0 -5 5 -10 10 -10 6 0 10 5 10 10 0 6 -4 10 -10 10 -5 0 -10 -4 -10 -10z"/>
<path d="M5960 2750 c0 -5 5 -10 10 -10 6 0 10 5 10 10 0 6 -4 10 -10 10 -5 0 -10 -4 -10 -10z"/>
<path d="M5940 2695 c0 -8 5 -15 10 -15 6 0 10 7 10 15 0 8 -4 15 -10 15 -5 0 -10 -7 -10 -15z"/>
<path d="M240 2650 c0 -5 5 -10 10 -10 6 0 10 5 10 10 0 6 -4 10 -10 10 -5 0 -10 -4 -10 -10z"/>
<path d="M260 2610 c0 -5 5 -10 10 -10 6 0 10 5 10 10 0 6 -4 10 -10 10 -5 0 -10 -4 -10 -10z"/>
<path d="M300 2530 c0 -5 5 -10 10 -10 6 0 10 5 10 10 0 6 -4 10 -10 10 -5 0 -10 -4 -10 -10z"/>
<path d="M320 2490 c0 -5 5 -10 10 -10 6 0 10 5 10 10 0 6 -4 10 -10 10 -5 0 -10 -4 -10 -10z"/>
<path d="M340 2450 c0 -5 5 -10 10 -10 6 0 10 5 10 10 0 6 -4 10 -10 10 -5 0 -10 -4 -10 -10z"/>
<path d="M5820 2450 c0 -5 5 -10 10 -10 6 0 10 5 10 10 0 6 -4 10 -10 10 -5 0 -10 -4 -10 -10z"/>
<path d="M360 2410 c0 -5 5 -10 10 -10 6 0 10 5 10 10 0 6 -4 10 -10 10 -5 0 -10 -4 -10 -10z"/>
<path d="M5780 2390 c0 -5 5 -10 10 -10 6 0 10 5 10 10 0 6 -4 10 -10 10 -5 0 -10 -4 -10 -10z"/>
<path d="M400 2350 c0 -5 5 -10 10 -10 6 0 10 5 10 10 0 6 -4 10 -10 10 -5 0 -10 -4 -10 -10z"/>
<path d="M5740 2330 c0 -5 5 -10 10 -10 6 0 10 5 10 10 0 6 -4 10 -10 10 -5 0 -10 -4 -10 -10z"/>
<path d="M420 2310 c0 -5 5 -10 10 -10 6 0 10 5 10 10 0 6 -4 10 -10 10 -5 0 -10 -4 -10 -10z"/>
<path d="M5690 2265 c-6 -8 -9 -19 -5 -25 7 -11 34 15 35 33 0 12 -17 8 -30 -8z"/>
<path d="M460 2250 c0 -5 5 -10 10 -10 6 0 10 5 10 10 0 6 -4 10 -10 10 -5 0 -10 -4 -10 -10z"/>
<path d="M500 2190 c0 -5 5 -10 10 -10 6 0 10 5 10 10 0 6 -4 10 -10 10 -5 0 -10 -4 -10 -10z"/>
<path d="M5610 2165 c-7 -9 -10 -18 -7 -22 8 -7 37 15 37 28 0 14 -16 11 -30 -6z"/>
<path d="M535 2131 c-6 -11 9 -23 19 -14 9 9 7 23 -3 23 -6 0 -12 -4 -16 -9z"/>
<path d="M575 2071 c-6 -11 9 -23 19 -14 9 9 7 23 -3 23 -6 0 -12 -4 -16 -9z"/>
<path d="M5530 2065 c-7 -9 -10 -18 -7 -22 8 -7 37 15 37 28 0 14 -16 11 -30 -6z"/>
<path d="M617 2015 c-4 -8 -3 -16 1 -19 13 -8 35 11 28 23 -10 15 -23 14 -29 -4z"/>
<path d="M640 1970 c0 -5 5 -10 10 -10 6 0 10 5 10 10 0 6 -4 10 -10 10 -5 0 -10 -4 -10 -10z"/>
<path d="M5454 1959 c-7 -12 15 -31 28 -23 9 6 -1 34 -12 34 -5 0 -12 -5 -16 -11z"/>
<path d="M5440 1910 c0 -5 5 -10 10 -10 6 0 10 5 10 10 0 6 -4 10 -10 10 -5 0 -10 -4 -10 -10z"/>
<path d="M5420 1870 c0 -5 5 -10 10 -10 6 0 10 5 10 10 0 6 -4 10 -10 10 -5 0 -10 -4 -10 -10z"/>
<path d="M700 1850 c0 -5 5 -10 10 -10 6 0 10 5 10 10 0 6 -4 10 -10 10 -5 0 -10 -4 -10 -10z"/>
<path d="M5400 1830 c0 -5 5 -10 10 -10 6 0 10 5 10 10 0 6 -4 10 -10 10 -5 0 -10 -4 -10 -10z"/>
<path d="M720 1810 c0 -5 5 -10 10 -10 6 0 10 5 10 10 0 6 -4 10 -10 10 -5 0 -10 -4 -10 -10z"/>
<path d="M5380 1790 c0 -5 5 -10 10 -10 6 0 10 5 10 10 0 6 -4 10 -10 10 -5 0 -10 -4 -10 -10z"/>
<path d="M740 1745 c0 -8 5 -15 10 -15 6 0 10 7 10 15 0 8 -4 15 -10 15 -5 0 -10 -7 -10 -15z"/>
<path d="M5360 1730 c0 -5 5 -10 10 -10 6 0 10 5 10 10 0 6 -4 10 -10 10 -5 0 -10 -4 -10 -10z"/>
<path d="M5340 1680 c0 -11 5 -20 10 -20 6 0 10 9 10 20 0 11 -4 20 -10 20 -5 0 -10 -9 -10 -20z"/>
<path d="M757 1667 c-3 -8 -1 -20 4 -28 8 -12 10 -12 18 0 10 15 4 41 -9 41 -4 0 -10 -6 -13 -13z"/>
<path d="M5320 1610 c0 -5 5 -10 10 -10 6 0 10 5 10 10 0 6 -4 10 -10 10 -5 0 -10 -4 -10 -10z"/>
<path d="M5300 1550 c0 -5 5 -10 10 -10 6 0 10 5 10 10 0 6 -4 10 -10 10 -5 0 -10 -4 -10 -10z"/>
<path d="M5280 1470 c0 -5 5 -10 10 -10 6 0 10 5 10 10 0 6 -4 10 -10 10 -5 0 -10 -4 -10 -10z"/>
<path d="M5260 1390 c0 -5 5 -10 10 -10 6 0 10 5 10 10 0 6 -4 10 -10 10 -5 0 -10 -4 -10 -10z"/>
<path d="M5240 1305 c0 -8 5 -15 10 -15 6 0 10 7 10 15 0 8 -4 15 -10 15 -5 0 -10 -7 -10 -15z"/>
<path d="M1047 1248 c-4 -12 -4 -24 -1 -27 8 -9 37 27 30 38 -11 17 -23 13 -29 -11z"/>
<path d="M990 1245 c-7 -9 -10 -18 -7 -22 8 -7 37 15 37 28 0 14 -16 11 -30 -6z"/>
<path d="M4930 1245 c-7 -9 -10 -18 -7 -22 8 -7 37 15 37 28 0 14 -16 11 -30 -6z"/>
<path d="M5016 1201 c-4 -5 -1 -13 5 -16 5 -4 8 -14 5 -22 -4 -9 -1 -22 5 -29 9 -11 8 -18 -1 -29 -16 -20 -5 -32 14 -16 20 17 17 87 -5 107 -10 9 -19 11 -23 5z"/>
<path d="M920 1191 c0 -6 4 -12 10 -16 5 -3 7 -11 4 -18 -7 -19 34 -41 52 -26 19 15 18 33 -1 25 -9 -3 -21 4 -31 19 -16 25 -34 33 -34 16z"/>
<path d="M4960 1171 c0 -13 29 -35 37 -28 7 8 -15 37 -28 37 -5 0 -9 -4 -9 -9z"/>
<path d="M850 1145 c-7 -9 -10 -18 -7 -22 8 -7 37 15 37 28 0 14 -16 11 -30 -6z"/>
<path d="M5197 1143 c-12 -11 -8 -23 8 -23 8 0 15 7 15 15 0 16 -12 20 -23 8z"/>
<path d="M5120 1111 c0 -13 29 -35 37 -28 7 8 -15 37 -28 37 -5 0 -9 -4 -9 -9z"/>
<path d="M775 1099 c-10 -15 1 -23 20 -15 9 3 13 10 10 16 -8 13 -22 13 -30 -1z"/>
<path d="M894 1056 c-9 -24 21 -55 38 -38 10 10 8 17 -9 34 -21 20 -23 20 -29 4z"/>
<path d="M5058 1027 c9 -10 10 -17 2 -22 -16 -10 -12 -27 7 -23 25 5 23 52 -2 57 -16 3 -17 1 -7 -12z"/>
<path d="M1084 1019 c-10 -17 13 -36 27 -22 12 12 4 33 -11 33 -5 0 -12 -5 -16 -11z"/>
<path d="M1264 999 c-10 -17 13 -36 27 -22 12 12 4 33 -11 33 -5 0 -12 -5 -16 -11z"/>
<path d="M4924 979 c-10 -17 13 -36 27 -22 12 12 4 33 -11 33 -5 0 -12 -5 -16 -11z"/>
<path d="M1380 970 c0 -5 9 -10 20 -10 11 0 20 5 20 10 0 6 -9 10 -20 10 -11 0 -20 -4 -20 -10z"/>
<path d="M4785 960 c-7 -11 2 -30 13 -30 4 0 14 5 22 10 13 9 13 11 0 20 -19 12 -27 12 -35 0z"/>
<path d="M1460 950 c0 -5 9 -10 20 -10 11 0 20 5 20 10 0 6 -9 10 -20 10 -11 0 -20 -4 -20 -10z"/>
<path d="M1520 930 c0 -5 9 -10 20 -10 11 0 20 5 20 10 0 6 -9 10 -20 10 -11 0 -20 -4 -20 -10z"/>
<path d="M4660 930 c0 -5 11 -10 25 -10 14 0 25 5 25 10 0 6 -11 10 -25 10 -14 0 -25 -4 -25 -10z"/>
<path d="M1580 910 c0 -5 5 -10 10 -10 6 0 10 5 10 10 0 6 -4 10 -10 10 -5 0 -10 -4 -10 -10z"/>
<path d="M4580 910 c0 -5 9 -10 20 -10 11 0 20 5 20 10 0 6 -9 10 -20 10 -11 0 -20 -4 -20 -10z"/>
<path d="M1640 890 c0 -5 5 -10 10 -10 6 0 10 5 10 10 0 6 -4 10 -10 10 -5 0 -10 -4 -10 -10z"/>
<path d="M4520 890 c0 -5 5 -10 10 -10 6 0 10 5 10 10 0 6 -4 10 -10 10 -5 0 -10 -4 -10 -10z"/>
<path d="M1680 870 c0 -5 5 -10 10 -10 6 0 10 5 10 10 0 6 -4 10 -10 10 -5 0 -10 -4 -10 -10z"/>
<path d="M4460 870 c0 -5 5 -10 10 -10 6 0 10 5 10 10 0 6 -4 10 -10 10 -5 0 -10 -4 -10 -10z"/>
<path d="M1720 850 c0 -5 5 -10 10 -10 6 0 10 5 10 10 0 6 -4 10 -10 10 -5 0 -10 -4 -10 -10z"/>
<path d="M4360 830 c0 -5 5 -10 10 -10 6 0 10 5 10 10 0 6 -4 10 -10 10 -5 0 -10 -4 -10 -10z"/>
<path d="M4322 811 c4 -13 18 -16 19 -4 0 4 -5 9 -11 12 -7 2 -11 -2 -8 -8z"/>
<path d="M1820 790 c0 -5 5 -10 10 -10 6 0 10 5 10 10 0 6 -4 10 -10 10 -5 0 -10 -4 -10 -10z"/>
<path d="M4282 791 c4 -13 18 -16 19 -4 0 4 -5 9 -11 12 -7 2 -11 -2 -8 -8z"/>
<path d="M4240 770 c0 -5 5 -10 10 -10 6 0 10 5 10 10 0 6 -4 10 -10 10 -5 0 -10 -4 -10 -10z"/>
<path d="M1876 762 c-3 -6 -1 -14 5 -17 15 -10 25 3 12 16 -7 7 -13 7 -17 1z"/>
<path d="M4200 750 c0 -5 5 -10 10 -10 6 0 10 5 10 10 0 6 -4 10 -10 10 -5 0 -10 -4 -10 -10z"/>
<path d="M4140 710 c0 -5 5 -10 10 -10 6 0 10 5 10 10 0 6 -4 10 -10 10 -5 0 -10 -4 -10 -10z"/>
<path d="M1960 691 c0 -13 29 -35 37 -28 7 8 -15 37 -28 37 -5 0 -9 -4 -9 -9z"/>
<path d="M4080 670 c0 -5 5 -10 10 -10 6 0 10 5 10 10 0 6 -4 10 -10 10 -5 0 -10 -4 -10 -10z"/>
<path d="M2040 630 c0 -5 5 -10 10 -10 6 0 10 5 10 10 0 6 -4 10 -10 10 -5 0 -10 -4 -10 -10z"/>
<path d="M4020 630 c0 -5 5 -10 10 -10 6 0 10 5 10 10 0 6 -4 10 -10 10 -5 0 -10 -4 -10 -10z"/>
<path d="M3960 590 c0 -5 5 -10 10 -10 6 0 10 5 10 10 0 6 -4 10 -10 10 -5 0 -10 -4 -10 -10z"/>
<path d="M2120 570 c0 -5 5 -10 10 -10 6 0 10 5 10 10 0 6 -4 10 -10 10 -5 0 -10 -4 -10 -10z"/>
<path d="M2160 551 c0 -13 29 -35 37 -28 7 8 -15 37 -28 37 -5 0 -9 -4 -9 -9z"/>
<path d="M3900 550 c0 -5 5 -10 10 -10 6 0 10 5 10 10 0 6 -4 10 -10 10 -5 0 -10 -4 -10 -10z"/>
<path d="M2220 510 c0 -5 5 -10 10 -10 6 0 10 5 10 10 0 6 -4 10 -10 10 -5 0 -10 -4 -10 -10z"/>
<path d="M3840 510 c0 -5 5 -10 10 -10 6 0 10 5 10 10 0 6 -4 10 -10 10 -5 0 -10 -4 -10 -10z"/>
<path d="M3800 490 c0 -5 5 -10 10 -10 6 0 10 5 10 10 0 6 -4 10 -10 10 -5 0 -10 -4 -10 -10z"/>
<path d="M2320 450 c0 -5 5 -10 10 -10 6 0 10 5 10 10 0 6 -4 10 -10 10 -5 0 -10 -4 -10 -10z"/>
<path d="M2360 430 c0 -5 5 -10 10 -10 6 0 10 5 10 10 0 6 -4 10 -10 10 -5 0 -10 -4 -10 -10z"/>
<path d="M2400 410 c0 -5 5 -10 10 -10 6 0 10 5 10 10 0 6 -4 10 -10 10 -5 0 -10 -4 -10 -10z"/>
<path d="M2500 370 c0 -5 5 -10 10 -10 6 0 10 5 10 10 0 6 -4 10 -10 10 -5 0 -10 -4 -10 -10z"/>
<path d="M3560 370 c0 -5 5 -10 10 -10 6 0 10 5 10 10 0 6 -4 10 -10 10 -5 0 -10 -4 -10 -10z"/>
<path d="M3520 350 c0 -5 5 -10 10 -10 6 0 10 5 10 10 0 6 -4 10 -10 10 -5 0 -10 -4 -10 -10z"/>
<path d="M3456 341 c-7 -10 18 -34 27 -25 7 8 -3 34 -13 34 -5 0 -11 -4 -14 -9z"/>
<path d="M2605 330 c-3 -5 -1 -10 4 -10 6 0 11 5 11 10 0 6 -2 10 -4 10 -3 0 -8 -4 -11 -10z"/>
<path d="M2680 310 c0 -5 5 -10 10 -10 6 0 10 5 10 10 0 6 -4 10 -10 10 -5 0 -10 -4 -10 -10z"/>
<path d="M3400 310 c0 -5 5 -10 10 -10 6 0 10 5 10 10 0 6 -4 10 -10 10 -5 0 -10 -4 -10 -10z"/>
<path d="M2750 290 c0 -5 7 -10 15 -10 8 0 15 5 15 10 0 6 -7 10 -15 10 -8 0 -15 -4 -15 -10z"/>
<path d="M3315 290 c3 -5 10 -10 16 -10 5 0 9 5 9 10 0 6 -7 10 -16 10 -8 0 -12 -4 -9 -10z"/>
<path d="M2860 280 c-13 -9 -13 -11 0 -20 19 -12 35 -8 35 10 0 18 -16 22 -35 10z"/>
<path d="M3204 279 c-10 -17 13 -36 27 -22 12 12 4 33 -11 33 -5 0 -12 -5 -16 -11z"/>
</g>
</g>
  <g id="id3:id3" transform="matrix(1.25,0,0,1.25,0.0,0.0)"><g transform="translate(0.000000,249.600000) scale(0.040000,-0.040000)" fill="#7f7f7f" stroke="none">
<path d="M2975 6120 c-16 -4 -49 -8 -72 -9 -23 0 -44 -5 -47 -10 -3 -5 -23 -11 -43 -14 -51 -7 -94 -17 -118 -27 -11 -4 -40 -14 -65 -21 -25 -7 -49 -16 -55 -19 -5 -4 -41 -19 -80 -34 -104 -41 -228 -108 -468 -253 -147 -89 -370 -203 -397 -203 -9 0 -20 -4 -25 -8 -16 -14 -150 -49 -220 -57 -27 -4 -77 -11 -110 -16 -33 -5 -84 -12 -112 -15 -82 -10 -82 -17 -14 -147 33 -63 58 -117 54 -120 -5 -6 -24 9 -149 115 -31 26 -62 44 -69 42 -16 -7 -24 -28 -65 -174 -7 -25 -16 -56 -20 -70 -4 -14 -13 -45 -20 -70 -37 -142 -123 -380 -172 -483 -59 -121 -101 -189 -178 -292 -167 -221 -259 -377 -327 -550 -39 -99 -48 -130 -84 -285 -17 -73 -17 -368 0 -440 20 -85 32 -130 53 -195 26 -82 27 -84 96 -225 60 -123 119 -223 231 -388 62 -92 61 -92 112 -177 63 -107 100 -200 122 -305 8 -36 11 -152 10 -341 -2 -226 0 -288 10 -292 7 -3 31 8 52 24 110 78 125 87 130 80 2 -5 -2 -14 -10 -21 -29 -24 -73 -98 -65 -110 4 -6 49 -16 104 -21 312 -30 393 -41 526 -77 83 -22 261 -104 301 -138 8 -8 19 -14 23 -14 5 0 21 -10 36 -22 16 -13 45 -34 65 -48 21 -14 54 -39 74 -56 71 -60 256 -175 375 -233 169 -83 230 -104 441 -154 95 -22 464 -14 545 13 14 4 45 13 70 20 46 13 82 26 112 41 10 5 22 9 28 9 13 0 173 77 235 113 28 17 68 40 90 52 22 13 112 71 200 130 263 175 432 245 695 286 36 6 90 14 120 19 30 5 91 13 134 19 109 14 118 25 72 89 -22 31 -33 53 -26 57 11 7 54 -20 84 -54 27 -30 54 -27 61 7 3 15 10 41 15 58 6 17 10 40 10 52 0 11 4 31 9 44 5 13 14 48 20 78 11 53 17 77 40 168 79 311 166 499 316 682 147 179 215 279 280 409 138 276 169 504 119 869 -3 23 -10 45 -15 48 -5 3 -9 15 -9 27 0 12 -6 38 -14 57 -7 19 -19 49 -25 67 -40 104 -136 265 -266 443 -177 245 -264 414 -297 580 -17 89 -37 338 -38 475 0 165 -5 178 -52 151 -18 -11 -47 -31 -65 -45 -73 -59 -92 -71 -97 -63 -3 5 3 17 14 27 11 10 20 22 20 26 0 5 18 32 40 61 35 47 38 54 24 68 -9 9 -45 17 -97 22 -290 24 -378 39 -512 87 -73 26 -258 129 -350 193 -22 16 -71 50 -109 76 -38 26 -81 56 -96 67 -25 18 -140 95 -200 133 -50 32 -87 52 -180 98 -52 25 -103 50 -112 55 -10 5 -27 9 -37 9 -11 0 -22 4 -25 9 -3 5 -18 11 -33 14 -16 3 -59 12 -98 21 -74 17 -371 21 -430 6z m390 -39 c6 -5 28 -11 50 -14 75 -10 115 -21 167 -48 10 -5 23 -9 30 -9 17 0 195 -88 203 -100 3 -5 25 -19 49 -30 23 -10 49 -26 56 -35 7 -8 18 -15 25 -15 7 0 19 -7 26 -16 7 -9 22 -20 34 -25 11 -5 38 -23 60 -39 48 -36 170 -121 196 -136 10 -6 27 -18 37 -27 10 -10 23 -17 29 -17 5 0 18 -9 28 -20 10 -11 22 -20 28 -20 5 0 28 -13 51 -28 59 -40 203 -107 261 -122 28 -7 55 -16 60 -20 13 -10 87 -20 195 -26 47 -3 89 -10 94 -15 6 -5 43 -9 82 -9 80 0 96 -10 67 -43 -11 -12 -26 -32 -34 -43 -8 -12 -38 -57 -67 -100 -37 -54 -49 -79 -41 -85 14 -8 38 4 86 41 18 14 50 39 73 55 22 17 54 40 70 53 16 13 34 21 40 17 6 -4 10 -76 10 -190 0 -112 4 -186 10 -190 6 -3 10 -39 10 -80 0 -41 5 -77 10 -80 6 -3 10 -20 10 -37 0 -17 13 -69 30 -117 44 -130 111 -254 203 -378 26 -35 47 -66 47 -69 0 -2 23 -34 50 -69 28 -35 50 -68 50 -73 0 -5 9 -17 20 -27 11 -10 20 -24 20 -30 0 -7 7 -18 15 -25 16 -13 131 -241 146 -292 20 -63 31 -103 41 -153 15 -70 22 -465 8 -479 -5 -5 -10 -27 -10 -48 0 -21 -4 -46 -9 -56 -5 -9 -19 -48 -31 -87 -24 -79 -124 -287 -146 -306 -8 -6 -14 -17 -14 -24 0 -6 -9 -20 -20 -30 -11 -10 -20 -22 -20 -28 0 -5 -13 -26 -30 -46 -16 -20 -47 -58 -67 -84 -21 -26 -54 -67 -73 -90 -100 -118 -196 -302 -249 -477 -13 -41 -27 -83 -32 -92 -5 -10 -9 -31 -9 -47 0 -17 -4 -33 -10 -36 -5 -3 -10 -21 -10 -39 0 -17 -4 -36 -9 -41 -5 -6 -11 -28 -14 -50 -3 -22 -11 -60 -17 -85 -6 -25 -14 -63 -17 -85 -3 -22 -12 -49 -20 -62 l-14 -22 -33 19 c-17 11 -45 33 -61 50 -16 16 -33 30 -39 30 -6 0 -27 17 -48 37 -35 34 -39 36 -54 21 -16 -15 -15 -19 5 -45 75 -96 122 -167 119 -182 -2 -11 -19 -18 -58 -24 -222 -31 -286 -42 -355 -57 -27 -6 -62 -13 -78 -17 -15 -3 -30 -9 -33 -14 -3 -5 -16 -9 -29 -9 -13 0 -27 -4 -30 -10 -3 -5 -14 -10 -24 -10 -20 0 -267 -123 -291 -145 -9 -8 -21 -15 -27 -15 -5 0 -18 -9 -28 -20 -10 -11 -23 -20 -30 -20 -7 0 -20 -9 -30 -20 -10 -11 -23 -20 -30 -20 -7 0 -20 -9 -30 -20 -10 -11 -23 -20 -30 -20 -7 0 -20 -9 -30 -20 -10 -11 -22 -20 -27 -20 -5 0 -27 -12 -51 -27 -47 -31 -287 -153 -299 -153 -5 0 -27 -9 -51 -19 -23 -11 -53 -22 -67 -24 -14 -3 -43 -11 -65 -17 -22 -7 -60 -14 -85 -17 -25 -3 -49 -9 -54 -14 -14 -13 -373 -12 -381 1 -3 6 -26 10 -50 10 -24 0 -47 5 -50 10 -3 6 -19 10 -36 10 -16 0 -37 4 -47 9 -9 5 -37 15 -62 22 -25 7 -49 16 -54 21 -6 4 -16 8 -23 8 -14 0 -72 25 -168 73 -103 51 -138 71 -214 122 -41 28 -84 57 -96 65 -40 27 -76 54 -115 88 -20 17 -42 32 -47 32 -6 0 -18 9 -28 20 -10 11 -24 20 -30 20 -7 0 -18 7 -25 15 -29 35 -268 138 -385 167 -74 18 -268 43 -425 54 -41 3 -79 10 -84 14 -6 6 6 27 28 52 117 135 139 169 117 183 -10 6 -90 -44 -111 -70 -7 -8 -17 -15 -22 -15 -9 0 -25 -11 -98 -68 -23 -18 -31 -20 -35 -10 -3 7 -7 128 -9 268 -4 254 -10 336 -27 355 -5 5 -9 19 -9 31 0 13 -4 26 -10 29 -6 3 -10 13 -10 20 0 20 -43 112 -72 155 -13 19 -27 42 -31 50 -3 8 -52 83 -107 165 -55 83 -104 159 -109 170 -5 11 -20 36 -33 55 -29 42 -128 243 -128 259 0 6 -4 19 -9 29 -15 30 -28 66 -41 112 -6 25 -16 53 -21 62 -5 10 -9 36 -9 57 0 22 -4 43 -10 46 -6 4 -10 83 -10 205 0 122 4 201 10 205 6 3 10 26 10 50 0 24 5 47 10 50 6 3 10 15 10 26 0 59 165 436 205 469 8 7 15 18 15 25 0 6 9 20 20 30 11 10 20 23 20 30 0 7 9 20 20 30 11 10 20 24 20 30 0 7 7 19 16 26 18 15 105 130 150 199 27 41 126 236 144 285 4 11 12 31 18 45 6 14 21 57 33 95 12 39 25 78 30 87 5 10 9 27 9 37 0 11 5 23 10 26 6 3 10 19 10 35 0 16 4 31 9 34 5 3 11 20 14 38 3 18 10 51 17 73 7 22 14 55 17 73 3 18 9 35 14 38 5 3 9 14 9 24 0 33 21 33 54 1 18 -17 36 -31 41 -31 4 0 32 -21 61 -47 122 -110 134 -117 149 -102 13 13 13 18 -2 39 -31 44 -143 272 -138 280 3 4 22 11 42 14 70 12 168 27 218 32 28 3 54 10 60 15 5 5 24 9 41 9 18 0 36 5 39 10 3 6 17 10 30 10 13 0 27 5 30 10 3 6 13 10 21 10 19 0 257 117 310 152 23 16 44 28 47 28 4 0 26 14 50 30 25 17 47 30 51 30 3 0 22 12 43 26 21 14 57 34 80 45 23 10 44 23 48 28 5 10 126 70 210 106 22 9 57 25 78 36 22 10 47 19 57 19 11 0 22 5 25 10 3 6 17 10 30 10 13 0 27 5 30 10 3 6 21 10 40 10 19 0 37 5 40 10 3 6 21 10 40 10 19 0 37 5 40 10 3 6 32 10 63 10 31 0 64 5 72 10 19 12 363 13 375 1z"/>
</g>
</g>
</svg>
