<?xml version="1.0" standalone="no"?>
<!DOCTYPE svg PUBLIC "-//W3C//DTD SVG 1.1//EN"
 "http://www.w3.org/Graphics/SVG/1.1/DTD/svg11.dtd">
<!-- Created with svg_stack (http://github.com/astraw/svg_stack) -->
<svg xmlns:sodipodi="http://sodipodi.sourceforge.net/DTD/sodipodi-0.dtd" xmlns="http://www.w3.org/2000/svg" version="1.1" width="1028.0" height="1020.0">
  <defs/>
  <g id="id0:id0" transform="matrix(1.25,0,0,1.25,0.0,0.0)"><g transform="translate(0.000000,816.000000) scale(0.040000,-0.040000)" fill="#6d6d6d" stroke="none">
<path d="M20460 20329 c0 -5 5 -7 10 -4 6 3 10 8 10 11 0 2 -4 4 -10 4 -5 0 -10 -5 -10 -11z"/>
<path d="M9900 19960 c-394 -11 -892 -59 -1210 -116 -74 -13 -162 -28 -195 -33 -86 -12 -222 -39 -360 -71 -66 -16 -163 -38 -215 -50 -346 -79 -909 -255 -1250 -389 -85 -34 -180 -71 -210 -82 -324 -126 -1168 -557 -1403 -717 -23 -16 -109 -71 -191 -122 -310 -193 -752 -524 -1111 -834 -355 -305 -760 -713 -1040 -1046 -22 -27 -72 -86 -111 -132 -38 -45 -99 -121 -135 -167 -142 -185 -237 -312 -299 -399 -36 -51 -87 -123 -115 -161 -27 -38 -68 -97 -89 -132 -21 -35 -74 -118 -116 -184 -42 -66 -102 -163 -132 -215 -30 -52 -77 -131 -103 -175 -47 -79 -133 -242 -265 -505 -246 -489 -483 -1099 -634 -1635 -14 -49 -34 -121 -45 -160 -11 -38 -36 -140 -55 -225 -20 -85 -41 -173 -47 -194 -13 -46 -43 -197 -64 -316 -52 -294 -66 -378 -81 -490 -20 -149 -35 -226 -65 -340 l-23 -85 -3 -865 c-4 -900 -1 -1000 37 -1124 18 -56 59 -304 75 -451 3 -33 10 -76 15 -95 5 -20 21 -101 35 -180 33 -191 59 -319 80 -405 9 -38 28 -117 42 -175 22 -97 68 -267 145 -544 17 -60 37 -120 44 -135 8 -14 14 -30 14 -36 0 -10 79 -237 136 -390 60 -162 160 -407 233 -570 84 -188 331 -681 406 -811 127 -220 403 -664 459 -740 17 -22 56 -76 86 -119 60 -86 224 -305 338 -453 39 -52 122 -152 184 -224 62 -72 148 -172 192 -222 192 -223 715 -731 997 -967 301 -254 727 -570 996 -741 32 -20 110 -69 173 -110 63 -41 147 -92 185 -113 39 -21 122 -68 185 -105 280 -163 791 -409 1125 -541 83 -33 161 -66 175 -73 14 -8 126 -48 250 -90 124 -42 245 -83 270 -92 25 -8 92 -29 150 -45 58 -17 134 -39 170 -49 184 -53 257 -72 380 -100 74 -17 169 -40 210 -50 41 -11 136 -30 210 -44 74 -14 185 -34 245 -45 99 -19 339 -53 470 -67 28 -3 104 -12 170 -19 290 -34 579 -48 1020 -48 493 0 688 10 1180 62 274 29 717 105 1005 173 273 63 369 88 530 135 30 9 69 19 85 23 110 27 719 230 764 255 14 8 80 35 146 61 66 26 185 76 265 112 80 35 177 78 215 95 120 53 565 281 680 349 61 36 151 87 200 115 50 28 134 79 187 114 54 35 134 87 178 114 45 28 113 73 150 100 38 28 115 82 170 120 55 39 158 114 228 168 70 53 170 130 222 170 52 39 119 95 150 122 30 28 96 84 145 125 344 285 939 901 1235 1279 403 515 600 805 888 1301 139 241 335 623 415 810 25 58 58 134 75 170 100 215 314 798 383 1040 66 231 82 287 100 345 10 33 25 92 33 130 9 39 30 129 46 200 17 72 37 162 45 200 13 73 34 181 65 350 65 346 116 858 131 1310 19 612 -7 1161 -82 1710 -18 137 -32 219 -90 540 -19 110 -65 315 -100 454 -10 41 -19 82 -19 91 0 9 -11 52 -24 96 -14 43 -48 160 -76 259 -65 225 -180 570 -232 695 -22 52 -56 142 -77 200 -95 258 -412 914 -583 1205 -22 39 -54 95 -71 124 -69 129 -282 459 -421 655 -185 260 -160 227 -427 571 -34 44 -96 118 -138 165 -42 47 -119 135 -171 195 -117 137 -550 575 -702 712 -339 304 -584 502 -937 756 -211 152 -199 143 -271 189 -502 320 -632 395 -1035 599 -254 129 -522 253 -680 314 -353 136 -446 170 -700 253 -305 99 -506 156 -770 218 -60 14 -155 36 -210 49 -99 23 -120 27 -345 66 -63 11 -146 26 -185 34 -38 8 -116 19 -172 25 -56 6 -128 15 -160 21 -117 20 -584 58 -773 64 -397 11 -541 12 -800 5z m1216 -605 c111 -8 208 -17 215 -19 8 -3 75 -12 149 -21 120 -15 283 -41 565 -90 111 -19 341 -70 415 -92 30 -9 80 -22 110 -29 219 -52 790 -230 814 -254 14 -14 -17 -44 -99 -99 -346 -230 -688 -461 -723 -488 -24 -18 -53 -33 -65 -33 -12 0 -59 26 -104 58 -45 31 -108 74 -140 94 -32 20 -98 64 -148 98 -113 79 -750 508 -1035 697 -207 138 -255 177 -243 196 3 5 24 7 47 3 22 -3 132 -13 242 -21z m-1540 4 c9 -15 -17 -35 -269 -204 -117 -78 -315 -211 -440 -296 -125 -85 -259 -174 -296 -199 -105 -68 -551 -370 -595 -402 -21 -15 -47 -28 -56 -28 -9 0 -118 68 -241 151 -123 83 -315 211 -426 286 -112 74 -203 141 -203 148 0 7 6 17 13 23 20 17 461 159 657 212 47 12 111 31 143 41 31 11 64 19 72 19 8 0 54 11 102 24 310 85 891 182 1318 221 187 16 213 17 221 4z m676 -1002 c37 -22 73 -46 548 -368 140 -95 413 -278 605 -407 193 -129 384 -258 425 -287 211 -146 619 -415 643 -424 32 -13 49 -7 107 34 43 31 240 163 965 650 295 198 642 432 975 657 63 43 122 78 130 78 13 0 78 -35 305 -165 210 -120 619 -390 831 -547 494 -367 923 -754 1345 -1213 170 -185 469 -539 469 -555 0 -14 -75 -71 -215 -163 -71 -47 -164 -108 -205 -137 -86 -59 -97 -59 -175 -1 -46 36 -257 178 -1036 701 -168 113 -407 273 -530 356 -123 83 -315 212 -427 287 -111 76 -210 137 -220 137 -10 0 -177 -108 -372 -240 -195 -131 -526 -354 -735 -494 -209 -141 -470 -316 -580 -391 -110 -74 -208 -135 -217 -135 -9 0 -24 -8 -33 -17 -16 -16 -16 -18 1 -31 11 -8 62 -35 114 -60 180 -87 615 -345 755 -447 133 -98 176 -125 200 -125 12 0 46 19 77 43 47 36 694 475 761 516 32 19 41 14 375 -211 152 -102 441 -297 642 -433 578 -389 976 -657 1034 -695 126 -82 226 -151 231 -160 4 -6 22 -10 42 -10 30 0 69 22 217 122 100 67 316 213 481 324 165 110 335 225 378 255 63 43 81 51 95 43 32 -20 182 -287 352 -627 94 -186 170 -349 170 -361 0 -31 -32 -58 -225 -186 -93 -62 -264 -177 -380 -255 -115 -78 -307 -207 -425 -287 -118 -79 -310 -208 -426 -286 -115 -78 -219 -142 -231 -142 -11 0 -38 12 -59 27 -60 41 -330 223 -768 517 -219 147 -424 286 -455 307 -31 22 -105 73 -166 113 -340 224 -545 365 -677 466 -14 11 -31 20 -36 20 -30 0 -15 -28 60 -120 46 -56 97 -121 113 -144 17 -24 46 -63 66 -87 64 -78 171 -222 214 -289 154 -237 300 -482 348 -580 30 -63 89 -185 131 -270 41 -85 91 -198 110 -250 19 -52 44 -120 56 -150 12 -30 37 -98 56 -150 33 -89 88 -190 103 -190 8 0 171 -108 406 -269 93 -64 191 -129 217 -146 26 -16 95 -63 153 -102 59 -40 116 -73 129 -73 13 0 41 12 62 27 21 15 95 64 164 109 69 46 143 96 165 112 22 16 213 145 425 287 212 143 531 357 710 478 179 120 361 242 405 272 44 29 97 65 117 80 20 15 42 24 48 20 22 -14 54 -113 112 -350 11 -44 29 -116 39 -160 34 -137 89 -405 105 -505 7 -52 20 -131 28 -175 16 -85 11 -104 -22 -86 -51 27 -86 15 -224 -80 -73 -50 -258 -175 -411 -277 -153 -103 -305 -205 -337 -227 -33 -22 -225 -151 -427 -287 -202 -136 -399 -269 -438 -295 -212 -148 -509 -343 -521 -343 -13 0 -401 257 -562 372 -45 33 -88 58 -96 55 -9 -4 -11 -34 -9 -125 7 -229 -25 -695 -67 -972 -27 -185 -27 -194 13 -223 17 -13 172 -118 342 -232 171 -114 321 -216 334 -226 13 -11 31 -19 41 -19 16 0 144 83 595 388 110 75 349 235 530 357 631 424 891 599 1022 688 154 105 161 106 263 36 96 -65 93 -57 85 -291 -13 -413 -73 -1010 -104 -1041 -7 -7 -22 -5 -50 8 l-40 18 -43 -26 c-47 -29 -48 -29 -294 -196 -354 -239 -767 -517 -1514 -1019 -184 -124 -355 -240 -379 -259 -24 -18 -52 -33 -62 -33 -10 0 -101 56 -201 123 -101 68 -302 204 -448 302 -146 98 -290 195 -320 216 -30 20 -66 49 -79 63 -14 14 -29 26 -35 26 -12 0 -66 -90 -66 -110 0 -12 -75 -170 -222 -470 -34 -69 -97 -181 -141 -249 -44 -69 -87 -140 -96 -159 l-16 -34 20 -15 c22 -15 393 -262 456 -303 21 -14 141 -94 266 -179 125 -85 343 -232 483 -326 140 -94 282 -190 314 -213 66 -46 92 -51 127 -23 29 23 214 148 539 365 135 91 358 240 495 333 599 404 913 613 923 613 30 0 27 -14 -63 -265 -25 -71 -54 -156 -65 -187 -11 -32 -43 -111 -71 -175 -28 -65 -73 -170 -99 -233 -105 -255 -494 -994 -580 -1103 -13 -16 -55 -50 -94 -76 -39 -26 -177 -119 -306 -206 -129 -88 -324 -219 -433 -292 -109 -73 -213 -144 -231 -158 -61 -46 -34 -60 -521 270 -97 66 -221 149 -275 185 -95 63 -350 235 -515 349 -44 30 -89 60 -100 68 -122 79 -816 546 -875 588 -25 18 -54 35 -66 39 -32 10 -99 -40 -309 -229 -55 -50 -147 -131 -205 -180 -58 -49 -127 -110 -155 -135 -27 -26 -81 -68 -119 -96 -38 -27 -88 -62 -111 -79 -23 -16 -102 -73 -176 -126 -74 -53 -186 -127 -249 -164 -304 -179 -428 -247 -581 -319 -91 -42 -210 -102 -265 -132 -58 -33 -126 -62 -164 -70 -36 -9 -87 -24 -115 -34 -27 -10 -90 -32 -140 -49 -49 -17 -121 -43 -160 -57 -87 -33 -655 -179 -790 -204 -185 -34 -225 -44 -225 -57 0 -7 21 -24 48 -37 26 -13 83 -48 127 -78 74 -51 480 -324 1000 -673 121 -81 227 -154 236 -161 31 -27 69 -16 153 44 45 32 135 94 201 139 66 44 206 138 310 208 105 71 251 169 325 218 74 49 146 97 160 106 191 132 1017 688 1146 771 16 11 38 20 49 20 17 0 129 -73 720 -472 138 -93 410 -276 605 -407 571 -383 570 -382 570 -401 0 -15 -208 -213 -285 -271 -16 -12 -55 -46 -85 -75 -115 -110 -517 -417 -539 -411 -14 3 -568 371 -894 594 -43 29 -86 53 -96 53 -10 0 -36 -13 -57 -28 -21 -16 -212 -145 -424 -287 -212 -142 -540 -364 -730 -491 -190 -128 -482 -325 -650 -437 -168 -113 -329 -222 -358 -243 -64 -45 -98 -47 -150 -6 -20 16 -62 46 -92 65 -30 20 -152 102 -270 182 -118 80 -372 252 -565 381 -192 129 -523 352 -735 495 -212 143 -422 284 -468 315 l-82 55 -40 -23 c-22 -13 -139 -90 -260 -173 -121 -82 -248 -168 -283 -190 -34 -22 -125 -83 -202 -136 -77 -53 -273 -185 -435 -294 -666 -447 -938 -631 -987 -667 -33 -24 -63 -38 -82 -38 -23 0 -89 39 -258 154 -126 84 -295 199 -378 255 -82 56 -267 180 -410 275 -143 96 -341 229 -440 296 -99 68 -295 199 -435 293 -140 94 -278 188 -307 209 -29 21 -60 38 -70 38 -10 0 -58 -28 -108 -61 -429 -291 -820 -550 -839 -555 -17 -4 -44 11 -113 63 -303 228 -807 670 -796 698 2 8 66 56 141 106 76 51 288 194 472 318 184 124 434 292 555 373 566 382 668 448 685 448 18 0 153 -89 805 -528 127 -86 372 -251 545 -367 173 -116 340 -229 370 -250 30 -21 143 -97 250 -169 107 -71 218 -147 247 -168 29 -21 64 -38 78 -38 16 0 124 67 308 192 155 105 426 288 602 407 176 118 346 232 377 253 31 21 64 38 72 38 25 0 46 12 46 25 0 18 -42 31 -162 50 -57 9 -141 23 -188 31 -47 8 -112 19 -145 25 -103 17 -655 158 -760 194 -111 38 -270 94 -415 148 -52 19 -148 60 -214 91 -65 31 -120 56 -121 56 -12 0 -345 166 -415 206 -286 165 -408 241 -548 341 -301 215 -343 246 -407 302 -35 31 -126 110 -202 175 -76 66 -170 151 -209 188 -40 37 -76 68 -81 68 -6 0 -28 -13 -49 -28 -88 -64 -565 -386 -634 -429 -19 -12 -66 -43 -105 -70 -38 -27 -243 -165 -455 -307 -212 -143 -482 -325 -600 -404 -118 -80 -226 -153 -239 -163 -30 -24 -72 -24 -102 -1 -25 19 -369 252 -729 492 l-205 138 -94 158 c-51 88 -104 175 -116 194 -86 136 -311 581 -410 810 -35 80 -86 199 -115 265 -29 66 -62 149 -75 185 -13 36 -37 103 -54 150 -110 299 -114 293 100 147 63 -42 146 -98 184 -124 39 -25 160 -107 270 -181 110 -75 344 -232 520 -350 489 -328 687 -463 718 -489 16 -13 38 -23 51 -23 12 0 66 31 121 68 55 38 298 201 540 363 242 163 490 329 550 371 61 41 125 81 142 89 37 16 47 32 34 57 -5 9 -12 24 -15 32 -3 8 -46 78 -95 155 -140 218 -172 274 -290 514 -104 211 -140 271 -165 271 -5 0 -24 -13 -41 -29 -16 -16 -129 -95 -250 -177 -121 -81 -273 -184 -338 -228 -64 -45 -134 -89 -153 -100 -43 -22 -55 -18 -174 67 -69 49 -286 195 -995 672 -148 100 -416 280 -595 400 -179 120 -374 251 -435 291 -174 115 -158 95 -178 230 -9 66 -19 153 -22 194 -3 41 -13 131 -20 200 -17 144 -37 725 -27 763 9 32 77 87 107 87 21 0 220 -130 715 -465 96 -65 337 -227 535 -360 437 -293 730 -491 888 -599 171 -117 160 -113 213 -79 132 84 401 268 412 282 15 18 12 47 -20 206 -11 55 -26 150 -33 210 -7 61 -18 146 -24 190 -7 44 -17 214 -24 377 -7 164 -16 300 -19 304 -4 3 -28 -12 -55 -34 -87 -71 -259 -182 -283 -182 -22 0 -75 34 -364 230 -44 31 -254 172 -466 315 -490 329 -797 536 -1030 694 -102 68 -205 138 -230 154 -223 148 -225 150 -211 203 6 22 19 93 30 159 37 223 118 589 170 765 11 36 23 81 26 100 10 50 33 90 51 90 9 0 50 -24 92 -54 80 -55 322 -219 937 -631 198 -133 498 -335 667 -449 170 -113 317 -206 327 -206 24 0 485 306 525 348 24 26 86 181 86 218 0 11 95 273 149 412 17 42 46 119 66 171 41 105 270 570 320 646 52 80 206 327 226 362 10 17 47 75 84 129 36 53 64 99 61 101 -2 3 -42 -24 -88 -59 -45 -36 -114 -85 -153 -111 -38 -25 -101 -68 -140 -95 -38 -26 -257 -173 -485 -327 -228 -153 -464 -311 -523 -352 -59 -40 -117 -73 -127 -73 -11 0 -97 53 -192 117 -95 64 -321 216 -503 338 -974 653 -935 626 -935 651 0 33 294 631 400 814 118 203 126 211 184 167 17 -13 182 -125 366 -249 184 -123 406 -272 493 -331 169 -115 200 -126 248 -88 31 24 170 119 619 419 201 135 401 270 445 300 100 70 93 64 260 176 77 52 312 210 522 351 298 200 387 255 403 250 12 -4 138 -85 280 -181 349 -233 379 -254 386 -265 12 -20 52 -6 119 41 39 27 129 84 200 126 419 251 415 248 610 334 66 29 126 58 134 64 8 6 28 15 45 21 44 14 38 35 -19 64 -27 15 -106 64 -175 111 -163 111 -723 487 -1142 769 -183 123 -354 239 -379 257 -26 19 -55 34 -66 34 -19 0 -109 -58 -558 -363 -216 -146 -618 -416 -820 -550 -49 -33 -124 -84 -165 -112 -41 -29 -194 -132 -340 -230 -146 -98 -294 -198 -329 -223 -36 -26 -74 -45 -90 -45 -17 0 -87 41 -201 118 -216 146 -250 172 -250 193 0 9 17 36 38 61 21 25 78 96 127 156 430 534 1052 1126 1640 1560 55 41 111 83 125 93 65 49 438 297 545 362 267 162 426 250 453 250 18 0 75 -33 167 -97 186 -127 793 -536 955 -643 71 -47 177 -118 237 -159 510 -348 731 -491 761 -491 32 0 54 14 617 395 99 67 344 232 545 367 201 135 464 311 585 393 491 331 523 351 545 354 3 0 22 -9 42 -22z m148 -16665 c241 -164 723 -487 975 -655 269 -180 289 -195 274 -213 -6 -8 -21 -14 -33 -14 -11 0 -79 -8 -151 -19 -600 -91 -1471 -105 -2150 -37 -319 33 -550 71 -549 91 0 6 165 120 366 255 454 305 914 614 993 668 33 23 69 42 80 42 10 0 98 -53 195 -118z"/>
<path d="M10164 16967 c-12 -6 -100 -65 -195 -130 -96 -65 -271 -184 -389 -263 -118 -80 -236 -159 -262 -177 -94 -64 -114 -76 -160 -98 -53 -24 -67 -56 -20 -45 15 3 122 16 237 27 156 16 309 22 595 26 360 4 403 3 657 -21 291 -28 486 -54 720 -98 64 -12 67 -12 70 -1 3 8 -4 13 -73 48 -21 11 -122 76 -224 145 -328 221 -562 379 -695 467 -71 48 -143 97 -158 110 -31 25 -71 29 -103 10z"/>
<path d="M14866 14175 c4 -8 15 -15 25 -15 23 0 25 16 3 24 -25 10 -34 7 -28 -9z"/>
<path d="M8003 11923 c-36 -5 -46 -23 -13 -23 11 0 23 -7 26 -15 5 -12 27 -15 114 -15 87 0 109 3 114 15 3 8 15 15 26 15 27 0 26 16 -2 24 -25 6 -211 5 -265 -1z"/>
<path d="M10553 11923 c-29 -6 -30 -23 -3 -23 11 0 23 -7 26 -15 9 -23 212 -22 229 2 14 19 50 10 42 -11 -9 -24 22 -27 44 -5 17 17 19 23 8 30 -8 5 -21 8 -29 7 -8 -2 -22 2 -30 7 -16 10 -248 17 -287 8z"/>
<path d="M7874 11900 c-12 -4 -24 -16 -28 -26 -6 -16 -8 -16 -26 1 l-20 18 -37 -17 c-21 -10 -44 -27 -52 -38 -13 -19 -15 -19 -26 -4 -11 15 -16 14 -65 -6 -29 -12 -76 -34 -104 -50 -28 -15 -68 -37 -89 -48 -56 -31 -185 -137 -192 -159 -11 -36 15 -67 32 -37 23 39 194 162 291 209 29 14 48 28 42 32 -6 3 -8 11 -4 16 4 6 11 6 19 -1 15 -12 46 -7 120 20 45 16 85 26 183 45 27 6 33 11 30 28 -3 24 -38 32 -74 17z"/>
<path d="M8317 11904 c-20 -21 0 -54 33 -54 10 0 34 39 28 45 -8 9 -54 15 -61 9z"/>
<path d="M10423 11903 c-14 -3 -20 -9 -16 -19 8 -22 -28 -30 -43 -9 l-14 18 -40 -19 c-22 -10 -40 -25 -40 -32 0 -19 -28 -26 -45 -12 -12 10 -24 9 -63 -5 -26 -10 -51 -21 -57 -25 -5 -4 -43 -24 -83 -45 -74 -38 -97 -61 -83 -84 11 -18 248 105 255 132 4 15 7 16 24 6 12 -7 27 -9 38 -4 11 4 25 7 32 6 6 -1 17 10 22 25 10 25 12 26 29 10 15 -14 23 -15 47 -5 16 7 38 11 49 10 12 -1 30 2 42 6 16 6 19 13 12 31 -8 21 -19 24 -66 15z"/>
<path d="M8436 11875 c-3 -8 -14 -15 -25 -15 -33 0 -33 -17 1 -24 22 -4 37 -1 50 11 18 16 19 16 25 -5 6 -26 25 -28 43 -7 15 19 15 19 -34 39 -47 20 -52 20 -60 1z"/>
<path d="M10956 11875 c-3 -8 -12 -15 -21 -15 -23 0 -18 -17 7 -23 13 -4 29 0 39 9 14 13 18 12 31 -7 12 -19 16 -20 36 -8 30 19 28 28 -8 36 -17 3 -33 10 -36 14 -9 15 -41 10 -48 -6z"/>
<path d="M11091 11829 c-28 -23 -20 -39 10 -21 18 11 21 11 26 -6 3 -11 26 -29 56 -43 97 -43 220 -130 332 -233 78 -72 87 -78 101 -64 15 14 12 20 -22 57 -81 91 -263 227 -354 267 -19 8 -55 26 -80 39 l-45 23 -24 -19z"/>
<path d="M8563 11828 c-27 -13 -29 -24 -7 -32 10 -4 22 1 30 11 13 17 14 17 20 -3 4 -14 29 -33 70 -53 35 -17 66 -31 70 -31 3 0 37 -20 74 -45 37 -25 70 -45 73 -45 3 0 8 7 11 16 10 27 -12 53 -72 82 -31 16 -74 39 -96 51 -21 12 -45 20 -52 17 -22 -8 -29 -6 -26 9 1 7 -12 18 -29 24 -37 13 -37 13 -66 -1z"/>
<path d="M6822 10527 c3 -51 10 -102 16 -113 6 -12 15 -56 21 -98 5 -45 16 -85 25 -95 9 -10 16 -35 16 -60 0 -31 7 -51 25 -73 14 -16 25 -37 25 -47 0 -10 9 -26 20 -36 11 -10 20 -26 20 -35 0 -10 7 -23 15 -30 8 -6 17 -22 21 -33 23 -75 258 -332 375 -408 84 -56 159 -97 228 -126 49 -21 56 -21 71 -8 18 17 32 11 24 -10 -4 -9 13 -19 51 -31 54 -17 57 -17 67 -1 11 20 30 14 22 -7 -6 -16 7 -19 121 -36 83 -13 229 -7 316 11 35 8 49 16 53 32 l6 22 15 -19 c10 -13 21 -17 39 -12 27 7 36 26 12 26 -7 0 -19 7 -26 15 -10 12 -17 12 -34 3 -28 -15 -55 -18 -230 -24 -131 -5 -161 -3 -239 16 -82 20 -91 21 -99 6 -11 -19 -30 -12 -22 8 3 8 -11 19 -41 31 l-46 17 -14 -18 -15 -19 -5 20 c-4 14 -48 44 -122 85 -155 87 -320 232 -402 354 -71 106 -81 122 -81 136 0 8 -9 26 -20 40 -11 14 -20 31 -20 38 0 7 -9 25 -20 40 -11 15 -23 50 -27 77 -4 30 -13 55 -23 62 -12 8 -19 32 -23 70 -3 32 -13 83 -21 113 -9 30 -16 89 -16 132 l0 78 -31 0 -32 0 5 -93z"/>
<path d="M11898 10346 c-12 -8 -18 -27 -18 -50 0 -35 2 -37 27 -34 21 2 29 10 36 37 14 56 -6 77 -45 47z"/>
<path d="M9350 9707 c-8 -7 -20 -21 -26 -32 -8 -15 -23 -21 -60 -23 -105 -5 -118 -19 -52 -53 l42 -22 -34 -29 c-19 -16 -45 -31 -58 -35 -40 -10 -25 -46 26 -62 38 -12 45 -11 62 4 10 9 16 23 14 30 -3 7 3 19 14 26 10 8 24 24 31 37 15 28 35 28 58 -1 34 -42 112 -75 181 -75 58 0 64 2 92 34 16 19 30 39 30 44 0 18 -20 20 -45 4 -19 -12 -23 -20 -15 -29 17 -20 -3 -26 -33 -10 -23 12 -31 12 -57 -2 -32 -15 -66 -11 -55 7 4 6 1 9 -7 8 -7 -2 -12 4 -10 14 2 11 -9 23 -28 33 -33 17 -38 39 -15 69 8 11 15 32 15 48 0 24 -4 28 -27 28 -16 0 -35 -6 -43 -13z"/>
<path d="M8851 9586 c-13 -14 -81 -57 -151 -97 -85 -48 -130 -79 -134 -93 -6 -20 -7 -20 -20 -3 -7 9 -18 17 -23 17 -8 0 -71 -27 -81 -36 -6 -4 22 -44 31 -44 4 0 12 12 18 26 9 25 11 25 27 11 16 -14 22 -14 76 8 32 13 84 39 115 58 31 19 72 42 92 51 51 24 111 82 107 103 -5 27 -31 27 -57 -1z"/>
</g>
</g>
  <g id="id1:id1" transform="matrix(1.25,0,0,1.25,0.0,0.0)"><g transform="translate(0.000000,816.000000) scale(0.040000,-0.040000)" fill="#000000" stroke="none">
<path d="M11270 16230 c0 -5 11 -10 25 -10 14 0 25 5 25 10 0 6 -11 10 -25 10 -14 0 -25 -4 -25 -10z"/>
<path d="M10448 15668 c-15 -11 -106 -206 -260 -558 -28 -63 -69 -155 -93 -205 -65 -140 -72 -162 -55 -179 8 -8 45 -17 81 -21 l67 -7 16 33 c9 17 16 38 16 45 0 11 20 51 47 97 3 4 11 3 18 -3 19 -16 42 -2 54 31 l10 29 94 0 c61 0 107 -5 130 -15 20 -8 43 -12 51 -9 9 3 21 -4 30 -18 14 -22 48 -122 60 -180 9 -38 52 -58 125 -58 l61 0 -6 48 c-4 26 -11 51 -15 57 -5 5 -9 19 -9 31 0 13 -4 26 -10 29 -5 3 -10 21 -10 40 0 19 -4 37 -10 40 -5 3 -10 17 -10 30 0 13 -4 27 -10 30 -5 3 -10 21 -10 40 0 19 -4 37 -10 40 -5 3 -10 17 -10 30 0 13 -4 27 -10 30 -5 3 -10 21 -10 40 0 19 -4 37 -10 40 -5 3 -10 21 -10 40 0 19 -4 37 -10 40 -5 3 -10 17 -10 30 0 13 -4 27 -10 30 -5 3 -10 21 -10 40 0 19 -4 37 -10 40 -5 3 -10 19 -10 35 0 16 -4 32 -10 35 -5 3 -10 17 -10 31 0 13 -4 32 -9 42 -5 9 -17 36 -26 59 -10 23 -26 50 -36 59 -24 21 -128 30 -151 12z m96 -330 c2 -7 13 -44 25 -83 31 -102 49 -179 44 -188 -5 -8 -178 -1 -193 8 -6 3 -10 19 -10 36 0 29 -13 39 -25 19 -4 -6 -11 -8 -16 -4 -6 3 -5 12 3 21 7 9 12 19 12 22 -6 24 62 126 85 129 12 2 21 9 21 16 0 29 47 49 54 24z"/>
<path d="M11011 15342 c-6 -12 1 -105 24 -292 47 -378 54 -430 61 -441 6 -10 87 -50 127 -63 32 -10 97 36 97 69 0 12 9 30 20 40 11 10 20 24 20 30 0 7 7 18 15 25 9 7 25 32 35 55 10 23 26 48 35 55 8 7 15 18 15 25 0 6 9 20 20 30 11 10 20 24 20 30 0 7 7 18 15 25 9 7 25 32 35 55 10 23 26 48 35 55 8 7 15 17 15 23 0 6 8 19 17 29 9 10 18 28 19 41 2 12 6 36 10 54 7 36 -6 46 -72 56 -50 8 -61 -2 -135 -128 -70 -120 -167 -265 -178 -265 -5 0 -11 -10 -14 -22 -5 -17 -9 -19 -21 -9 -10 8 -16 40 -20 94 -3 45 -8 120 -12 167 -3 47 -10 89 -15 95 -5 5 -9 32 -9 60 0 60 -19 91 -66 111 -46 19 -81 18 -93 -4z"/>
<path d="M7670 15261 c-19 -10 -36 -27 -38 -38 -3 -22 41 -133 198 -493 56 -129 123 -284 149 -345 l48 -110 32 -3 c18 -2 52 6 76 17 50 24 51 29 3 131 -17 36 -38 83 -48 105 -10 22 -27 61 -39 87 -12 26 -21 52 -21 57 0 5 -13 35 -30 66 -16 31 -30 63 -30 71 0 7 -9 29 -20 49 -11 20 -20 41 -20 48 0 10 -52 123 -91 199 -5 10 -9 22 -9 27 0 9 -63 118 -80 139 -15 17 -40 15 -80 -7z"/>
<path d="M8397 15195 c-137 -51 -216 -128 -238 -234 -30 -144 25 -338 123 -438 29 -29 58 -53 65 -53 7 0 21 -4 31 -9 70 -36 163 -49 183 -25 7 8 19 12 27 9 8 -3 24 3 34 12 11 10 22 17 24 15 20 -14 180 110 168 129 -2 4 0 10 6 14 5 3 10 16 10 29 0 12 5 27 12 34 14 14 12 222 -3 237 -5 5 -9 16 -9 25 0 33 -53 124 -102 176 -63 67 -129 94 -226 93 -37 0 -84 -7 -105 -14z m148 -135 c4 -6 24 -22 45 -35 89 -56 140 -261 88 -350 -28 -47 -87 -83 -149 -91 -34 -4 -54 0 -89 18 -38 20 -50 35 -87 107 l-43 83 0 87 c0 83 2 89 28 114 15 15 33 27 38 27 6 0 21 11 34 25 19 21 33 25 76 25 29 0 56 -5 59 -10z"/>
<path d="M9415 15113 c-151 -19 -175 -37 -143 -107 13 -31 55 -41 125 -32 26 4 89 10 138 14 50 4 96 11 103 15 18 12 15 92 -4 111 -19 19 -56 19 -219 -1z"/>
<path d="M11900 15094 c-52 -14 -91 -36 -152 -87 -43 -36 -106 -165 -124 -254 -21 -104 -7 -202 37 -262 38 -53 168 -141 208 -141 16 0 32 -4 35 -9 6 -10 53 -19 134 -28 71 -7 92 11 92 77 0 56 -6 60 -87 60 -117 0 -220 54 -260 137 l-16 34 37 31 c29 24 34 33 25 44 -6 8 -8 14 -3 15 30 4 71 -5 101 -22 18 -10 40 -19 48 -19 8 0 30 -9 50 -20 20 -11 45 -20 56 -20 12 0 33 -8 47 -19 15 -10 43 -21 63 -25 30 -5 39 -2 64 24 16 16 26 33 22 36 -3 4 -1 16 5 28 7 13 10 61 9 125 -2 96 -5 108 -31 145 -40 60 -79 95 -130 121 -41 21 -65 27 -150 40 -14 2 -50 -3 -80 -11z m135 -134 c3 -5 14 -10 24 -10 21 0 62 -44 79 -83 16 -38 15 -68 -3 -94 l-15 -21 -57 20 c-103 35 -203 88 -203 107 0 28 61 79 100 84 64 7 69 7 75 -3z"/>
<path d="M12483 14888 c-15 -19 -22 -56 -43 -212 -10 -78 -31 -230 -46 -338 l-27 -197 -91 -78 c-50 -43 -92 -87 -94 -98 -3 -25 51 -63 105 -75 36 -9 40 -7 78 30 23 22 45 40 51 40 5 0 27 18 48 39 29 30 49 41 75 43 29 2 37 7 39 27 4 25 203 238 234 250 9 3 71 60 138 125 91 90 119 124 114 138 -7 24 -73 68 -101 68 -14 0 -69 -43 -155 -120 -134 -122 -241 -203 -252 -193 -10 10 -7 71 4 78 6 3 10 33 10 65 0 32 5 62 10 65 6 3 10 30 10 60 0 30 5 57 10 60 6 3 10 43 10 89 0 90 -4 98 -67 130 -38 19 -48 20 -60 4z"/>
<path d="M6887 14855 c-20 -14 -37 -32 -37 -39 0 -17 97 -194 310 -566 197 -345 194 -340 228 -339 45 1 87 32 87 64 0 25 5 29 55 42 30 7 67 11 83 7 24 -5 35 0 67 31 21 21 48 42 61 49 27 13 61 70 53 90 -3 8 -1 17 5 21 7 3 11 43 11 95 0 71 -4 97 -20 125 -11 20 -20 40 -20 46 0 21 -101 158 -147 199 -59 51 -83 64 -148 78 -54 12 -115 3 -164 -23 -31 -16 -114 -101 -131 -133 -16 -31 -27 -25 -59 33 -16 28 -37 64 -47 80 -10 17 -28 46 -39 64 -32 54 -76 101 -94 101 -9 0 -33 -11 -54 -25z m551 -254 c9 -5 30 -15 46 -22 82 -38 156 -160 163 -267 4 -59 2 -71 -19 -102 -35 -51 -89 -68 -163 -50 -64 15 -97 37 -118 78 -7 15 -18 36 -24 47 -21 38 -43 93 -43 108 0 9 -4 18 -9 21 -5 3 -7 25 -4 49 4 33 15 52 51 89 25 26 57 49 71 51 14 2 27 5 29 6 1 0 10 -3 20 -8z"/>
<path d="M13674 14433 c-16 -8 -45 -34 -64 -58 -19 -24 -69 -82 -110 -130 -41 -49 -91 -107 -110 -131 -19 -23 -93 -111 -165 -194 -168 -196 -160 -186 -147 -214 13 -30 68 -72 104 -81 23 -6 29 -3 37 16 5 13 30 44 55 69 25 24 46 49 46 55 0 22 65 73 100 77 29 5 46 -2 107 -43 40 -27 80 -49 91 -49 10 0 22 -4 27 -9 16 -15 160 -17 177 -3 8 6 18 9 21 5 22 -21 157 97 190 167 17 36 21 59 18 119 -2 41 -7 82 -11 90 -4 9 -14 29 -21 44 -7 15 -29 46 -48 69 -43 50 -226 204 -251 211 -10 2 -31 -2 -46 -10z m150 -253 c45 -40 71 -106 61 -157 -9 -51 -86 -129 -138 -138 -54 -10 -99 1 -148 39 l-43 33 3 49 c2 43 8 55 48 95 25 26 50 57 57 70 8 17 23 26 51 30 69 11 74 10 109 -21z"/>
<path d="M6631 14278 c-68 -35 -166 -131 -194 -190 -31 -66 -15 -132 34 -143 36 -8 45 -3 65 43 22 48 132 162 151 155 7 -3 20 0 28 7 12 10 21 8 49 -14 19 -14 39 -26 45 -26 6 0 15 -9 21 -20 9 -17 1 -29 -65 -91 -41 -39 -88 -95 -105 -123 -37 -66 -48 -147 -27 -198 23 -55 92 -125 130 -132 18 -3 52 -9 77 -13 37 -7 53 -4 89 14 55 27 108 78 128 123 27 58 42 70 88 70 55 0 98 41 87 82 -9 33 -268 363 -329 419 -86 79 -169 90 -272 37z m325 -363 c40 -41 45 -85 14 -144 -27 -53 -65 -81 -110 -81 -68 0 -108 81 -73 150 16 34 101 110 122 110 8 0 29 -16 47 -35z"/>
<path d="M6005 13980 c-66 -9 -89 -19 -161 -73 -51 -39 -182 -172 -206 -210 -17 -27 -6 -61 35 -106 23 -26 150 -150 282 -275 132 -125 260 -249 285 -275 62 -65 93 -72 136 -30 57 55 50 76 -66 189 l-100 98 6 49 c5 38 15 57 46 89 22 23 40 46 40 50 1 16 17 52 26 58 5 3 7 16 5 30 -3 13 0 27 6 30 14 9 15 123 1 131 -5 3 -10 15 -10 26 0 29 -65 122 -112 160 -35 28 -138 72 -157 68 -3 -1 -28 -5 -56 -9z m52 -170 c26 0 90 -51 111 -89 44 -78 17 -171 -70 -246 l-40 -34 -70 62 c-80 71 -148 152 -148 176 0 20 94 112 130 128 41 19 54 21 65 12 5 -5 15 -9 22 -9z"/>
<path d="M14056 13659 c-45 -35 -31 -67 45 -102 50 -23 133 -99 152 -139 20 -44 12 -78 -30 -128 l-35 -40 -80 75 c-135 127 -243 164 -337 115 -115 -58 -153 -196 -85 -307 29 -46 117 -124 162 -143 15 -7 22 -18 22 -37 0 -30 51 -93 75 -93 7 0 26 5 42 12 15 6 31 11 34 10 3 0 37 30 75 69 37 38 73 69 78 69 6 0 31 21 57 46 26 25 57 51 70 58 13 6 29 22 35 34 6 13 22 35 35 50 42 48 46 62 39 147 -8 100 -15 116 -83 190 -38 42 -77 72 -127 98 -83 42 -107 45 -144 16z m-94 -371 c52 -39 118 -105 118 -118 0 -7 -17 -28 -37 -47 -32 -29 -44 -34 -73 -30 -53 7 -125 43 -144 72 l-17 26 42 44 c23 24 46 51 51 59 12 21 24 20 60 -6z"/>
<path d="M14800 13217 c-96 -62 -244 -159 -420 -272 -52 -34 -135 -87 -185 -118 -132 -82 -135 -85 -135 -113 0 -41 35 -82 73 -86 l32 -3 6 -56 c9 -80 41 -139 110 -204 44 -40 68 -55 89 -55 16 0 32 -5 36 -11 4 -8 33 -9 90 -4 94 8 191 48 250 106 18 17 43 37 55 43 13 6 29 22 35 34 6 13 24 36 39 52 25 26 28 37 32 122 4 84 2 98 -20 140 -26 52 -95 131 -121 141 -13 5 -15 13 -10 29 7 24 62 77 80 78 6 0 19 9 29 20 10 11 23 20 30 20 7 0 20 9 30 20 10 11 23 20 30 20 18 0 45 34 45 56 0 21 -36 84 -54 96 -24 16 -55 5 -146 -55z m-175 -377 c3 -5 16 -10 29 -10 12 0 38 -17 61 -40 33 -34 38 -45 37 -84 -1 -81 -69 -159 -189 -218 -54 -26 -70 -30 -124 -26 -56 4 -64 7 -95 44 -32 37 -34 43 -31 104 l2 65 30 5 c25 4 31 11 35 39 4 25 13 38 38 52 19 9 41 24 50 31 47 39 142 62 157 38z"/>
<path d="M5418 13013 c-22 -26 -38 -59 -38 -80 0 -22 39 -76 171 -234 124 -150 151 -187 140 -193 -11 -7 -237 34 -487 89 -28 6 -34 3 -63 -34 -20 -25 -31 -49 -29 -63 4 -30 71 -66 125 -67 23 -1 44 -5 47 -10 6 -10 54 -20 136 -27 30 -3 59 -10 65 -15 5 -5 24 -9 41 -9 18 0 36 -4 39 -10 3 -5 30 -10 59 -10 28 0 56 -4 62 -9 5 -5 27 -11 49 -14 96 -14 104 -18 176 -96 39 -42 75 -86 80 -98 5 -13 17 -23 28 -23 11 0 26 -3 35 -6 11 -4 19 3 28 22 6 16 12 32 12 36 1 3 4 10 9 14 13 13 8 52 -10 82 -27 42 -529 665 -582 722 -50 54 -69 60 -93 33z"/>
<path d="M15350 12523 c-8 -3 -213 -104 -456 -223 -265 -131 -444 -224 -448 -235 -4 -10 3 -32 16 -54 36 -59 50 -66 107 -50 7 2 66 30 129 62 64 31 120 57 126 57 20 0 508 248 531 270 13 12 28 19 34 16 14 -9 60 25 61 43 0 17 -48 103 -64 113 -12 9 -15 9 -36 1z"/>
<path d="M5050 12246 c-88 -48 -148 -135 -169 -248 -11 -58 -11 -70 9 -127 11 -34 32 -80 46 -100 25 -39 95 -101 112 -101 5 0 15 -7 22 -15 20 -24 112 -63 165 -70 121 -15 201 -5 248 34 9 8 27 19 39 25 21 11 47 47 67 93 5 11 14 24 19 27 5 3 7 16 5 30 -3 13 0 27 6 30 6 4 11 18 11 31 0 13 5 27 10 30 6 3 10 44 10 90 0 77 -2 86 -22 99 -67 42 -98 23 -98 -57 0 -107 -55 -221 -124 -262 -60 -35 -91 -32 -148 14 -20 16 -16 46 14 99 10 18 18 39 18 46 0 15 54 122 73 145 6 7 10 24 9 36 -2 13 2 26 7 30 23 13 12 63 -19 89 -40 33 -88 47 -185 52 -70 4 -85 1 -125 -20z m142 -133 c31 -28 20 -83 -45 -224 -35 -75 -48 -85 -74 -56 -38 41 -63 96 -63 141 0 36 6 51 41 90 22 25 44 44 49 41 4 -3 13 2 20 10 16 20 49 19 72 -2z"/>
<path d="M14965 11981 c-112 -25 -187 -64 -241 -125 -75 -84 -86 -115 -82 -216 3 -75 8 -95 38 -156 55 -108 157 -194 230 -194 16 0 31 -4 34 -9 10 -16 66 -18 78 -4 8 10 23 12 49 8 22 -4 40 -2 44 4 3 6 14 11 24 11 49 0 221 111 221 143 0 8 7 20 15 27 8 7 20 24 27 39 18 37 8 205 -15 250 -9 19 -17 39 -17 46 0 19 -78 103 -128 137 -30 20 -70 37 -112 45 -79 15 -67 15 -165 -6z m236 -194 c106 -101 82 -236 -54 -301 -83 -39 -158 -55 -211 -45 -59 11 -87 30 -121 81 -24 36 -27 48 -22 99 6 71 11 79 47 79 19 0 33 7 40 19 5 11 20 21 32 23 13 2 24 11 26 23 8 41 48 60 136 62 l82 3 45 -43z"/>
<path d="M6823 11843 c-32 -42 -76 -97 -99 -122 -22 -25 -76 -90 -120 -144 -79 -98 -203 -249 -322 -393 -37 -44 -61 -82 -58 -90 4 -12 60 -14 334 -14 371 0 372 0 333 -63 -12 -19 -21 -48 -21 -65 0 -17 -12 -76 -26 -131 -15 -59 -24 -118 -22 -147 3 -44 5 -49 27 -49 l25 0 2 95 c2 69 9 111 23 148 12 29 21 70 21 90 0 21 7 47 15 59 8 11 17 40 21 64 3 24 12 49 18 54 7 6 29 44 50 85 20 41 43 85 50 98 13 23 97 127 144 178 24 27 30 74 9 74 -15 0 -104 90 -168 170 -85 106 -153 180 -165 180 -7 0 -39 -34 -71 -77z"/>
<path d="M11949 11848 c-36 -40 -80 -93 -99 -118 -50 -65 -202 -234 -214 -239 -12 -5 -35 -32 -36 -42 0 -4 26 -41 58 -82 66 -88 102 -144 102 -159 0 -5 9 -21 20 -35 11 -14 20 -33 20 -43 0 -9 9 -25 20 -35 11 -10 20 -24 20 -30 0 -16 39 -65 52 -65 5 0 8 17 6 38 l-3 37 400 6 c220 3 401 6 403 7 8 6 0 32 -13 39 -8 5 -31 32 -52 60 -43 58 -187 234 -249 302 -22 25 -65 78 -94 116 -29 39 -70 88 -90 110 -21 22 -65 77 -99 123 -35 45 -68 82 -75 82 -7 0 -42 -33 -77 -72z"/>
<path d="M7945 11900 c-16 -26 33 -41 65 -20 13 9 13 11 0 20 -20 13 -57 13 -65 0z"/>
<path d="M8258 11903 c-28 -7 -21 -21 13 -28 33 -7 56 5 45 24 -7 11 -27 12 -58 4z"/>
<path d="M10485 11900 c-3 -5 -3 -14 0 -20 8 -13 65 -13 85 0 13 9 13 11 0 20 -20 13 -77 13 -85 0z"/>
<path d="M10805 11900 c-4 -7 -3 -16 3 -22 14 -14 47 -6 47 12 0 18 -40 26 -50 10z"/>
<path d="M7830 11880 c-13 -9 -13 -11 0 -20 9 -6 18 -6 24 0 15 15 -6 31 -24 20z"/>
<path d="M8364 11879 c-11 -19 12 -31 45 -24 36 8 40 20 9 29 -33 8 -46 7 -54 -5z"/>
<path d="M10365 11880 c-4 -7 -3 -16 3 -22 14 -14 47 -6 47 12 0 18 -40 26 -50 10z"/>
<path d="M10890 11880 c-13 -9 -13 -11 0 -20 22 -15 65 -8 65 10 0 18 -43 25 -65 10z"/>
<path d="M8470 11860 c-13 -9 -13 -11 0 -20 9 -6 18 -6 24 0 15 15 -6 31 -24 20z"/>
<path d="M10304 11859 c-10 -17 13 -36 27 -22 12 12 4 33 -11 33 -5 0 -12 -5 -16 -11z"/>
<path d="M10990 11860 c-13 -9 -13 -11 0 -20 18 -11 39 5 24 20 -6 6 -15 6 -24 0z"/>
<path d="M7760 11850 c0 -5 5 -10 10 -10 6 0 10 5 10 10 0 6 -4 10 -10 10 -5 0 -10 -4 -10 -10z"/>
<path d="M7690 11840 c-13 -9 -13 -11 0 -20 9 -6 18 -6 24 0 15 15 -6 31 -24 20z"/>
<path d="M8525 11840 c-10 -16 6 -32 26 -27 10 3 22 1 25 -4 6 -11 44 -12 44 -1 -1 8 -65 42 -80 42 -5 0 -12 -4 -15 -10z"/>
<path d="M10215 11832 c-16 -9 -32 -18 -34 -19 -1 -1 0 -6 4 -12 4 -8 13 -7 28 1 12 6 31 12 42 12 23 1 27 29 5 33 -8 2 -28 -5 -45 -15z"/>
<path d="M11050 11840 c-17 -10 -8 -23 18 -25 9 -1 27 -6 38 -13 21 -11 34 -7 34 10 0 4 -6 8 -14 8 -7 0 -19 7 -26 15 -14 17 -29 19 -50 5z"/>
<path d="M7640 11810 c0 -5 5 -10 10 -10 6 0 10 5 10 10 0 6 -4 10 -10 10 -5 0 -10 -4 -10 -10z"/>
<path d="M8645 11800 c-8 -13 4 -32 15 -25 5 3 11 1 15 -5 7 -12 45 -14 45 -2 -1 13 -69 42 -75 32z"/>
<path d="M7580 11790 c0 -5 9 -10 20 -10 11 0 20 5 20 10 0 6 -9 10 -20 10 -11 0 -20 -4 -20 -10z"/>
<path d="M11160 11790 c0 -5 9 -10 20 -10 11 0 20 5 20 10 0 6 -9 10 -20 10 -11 0 -20 -4 -20 -10z"/>
<path d="M9350 11780 c-25 -5 -70 -13 -100 -19 -74 -13 -194 -56 -248 -87 -37 -22 -48 -24 -69 -15 -32 15 -33 15 -33 -13 0 -17 34 -60 115 -146 120 -127 159 -182 225 -315 46 -96 100 -251 100 -292 0 -15 9 -60 20 -98 24 -83 26 -200 6 -295 -8 -36 -17 -94 -21 -130 -4 -36 -15 -85 -25 -110 -10 -25 -21 -61 -24 -80 -9 -55 -123 -269 -175 -330 -26 -30 -60 -73 -74 -95 -15 -22 -54 -62 -87 -88 -43 -35 -60 -56 -60 -73 0 -19 5 -24 24 -24 14 0 28 -5 31 -10 12 -19 150 -83 177 -82 15 0 52 19 83 42 35 26 61 38 66 33 6 -6 -8 -22 -36 -42 -25 -18 -45 -35 -45 -39 0 -21 143 -62 215 -62 43 0 52 -15 28 -48 -36 -51 -63 -129 -63 -186 0 -146 140 -307 370 -426 55 -28 104 -59 110 -70 12 -22 13 -584 1 -614 -6 -16 -19 -19 -102 -20 -83 -2 -101 -6 -146 -30 -99 -54 -88 -122 31 -184 l61 -32 75 10 c81 10 179 42 192 62 10 17 10 -6 8 399 -1 284 1 357 12 366 9 8 34 4 88 -12 98 -30 162 -45 230 -57 30 -5 59 -13 64 -18 10 -10 -1 -212 -24 -465 -5 -60 -13 -169 -18 -242 -10 -154 -13 -160 -99 -187 -77 -24 -123 -67 -123 -116 0 -32 6 -40 43 -66 l42 -29 127 0 126 0 44 31 c54 40 61 77 23 122 -15 18 -38 37 -53 45 l-27 13 1 74 c1 69 15 269 45 633 16 188 7 183 274 141 124 -19 546 -19 697 1 62 8 145 16 183 17 l70 3 -3 -216 c-2 -119 -7 -230 -11 -245 -7 -26 -11 -29 -42 -24 -56 8 -188 2 -225 -10 -43 -14 -104 -66 -104 -88 0 -31 53 -84 113 -113 65 -31 101 -31 202 -4 28 8 67 17 87 20 20 3 46 13 57 23 22 19 25 51 37 447 5 164 9 214 21 227 8 9 38 21 66 27 122 24 196 43 255 64 l63 22 16 -20 c12 -17 14 -44 10 -160 -24 -614 -31 -753 -38 -772 -7 -19 -16 -23 -52 -23 -71 0 -167 -37 -204 -79 -41 -46 -41 -69 0 -108 46 -45 75 -53 188 -53 113 0 145 10 202 64 l38 36 -26 34 -26 34 10 459 c12 504 18 615 35 637 6 8 44 28 84 46 151 65 340 229 357 310 4 19 14 48 22 64 18 35 13 81 -17 159 l-22 58 135 135 136 134 59 -6 c54 -6 65 -4 120 26 72 38 80 46 125 130 42 77 76 218 79 335 l3 80 -44 9 c-58 13 -71 -4 -71 -95 0 -116 -36 -261 -77 -310 -28 -33 -91 -69 -122 -69 -31 0 -55 43 -48 87 4 22 1 46 -7 62 -8 14 -27 52 -42 84 -31 64 -94 123 -149 138 -65 18 -155 -53 -155 -121 0 -50 48 -129 130 -214 l82 -85 -21 -30 c-37 -51 -185 -181 -206 -181 -12 0 -52 21 -90 46 -133 88 -297 160 -475 209 -52 14 -117 32 -145 39 -27 8 -76 17 -109 21 -32 4 -76 13 -98 21 -22 8 -53 14 -69 14 -15 0 -30 4 -34 10 -7 11 41 90 55 90 6 0 10 13 10 30 0 19 7 34 20 42 11 7 20 21 20 32 0 10 11 29 25 42 15 14 22 29 19 39 -9 24 -48 15 -52 -12 -2 -12 -14 -29 -28 -37 -14 -10 -24 -26 -24 -40 0 -13 -7 -29 -15 -36 -8 -7 -15 -19 -15 -27 0 -15 -6 -24 -97 -138 -86 -106 -210 -221 -299 -272 -116 -69 -224 -123 -244 -123 -11 0 -33 -6 -48 -14 -15 -7 -65 -24 -112 -36 -71 -19 -112 -23 -255 -24 -146 -1 -183 2 -265 22 -52 13 -104 29 -115 36 -11 7 -38 16 -60 20 -39 8 -61 19 -200 100 -124 72 -269 210 -388 369 -16 21 -49 80 -73 132 -25 52 -49 97 -55 100 -5 4 -9 15 -9 26 0 10 -8 45 -19 76 -55 173 -70 317 -53 523 11 134 20 180 60 305 58 180 223 430 352 533 88 69 100 83 100 109 0 20 -4 23 -21 18 -12 -4 -35 0 -53 8 -149 74 -359 105 -516 77z m3562 -1837 c32 -36 61 -104 50 -115 -15 -15 -92 68 -92 98 0 37 18 44 42 17z m-3428 -121 c3 -4 -12 -26 -32 -48 -21 -22 -37 -50 -38 -66 -1 -14 -11 -39 -22 -55 -11 -15 -21 -37 -23 -48 -5 -27 -50 -31 -95 -10 -39 18 -37 35 5 35 41 0 81 35 81 70 0 21 -9 35 -32 51 -51 35 -78 61 -72 70 7 11 221 12 228 1z"/>
<path d="M7520 11750 c0 -5 5 -10 10 -10 6 0 10 5 10 10 0 6 -4 10 -10 10 -5 0 -10 -4 -10 -10z"/>
<path d="M8740 11751 c0 -13 29 -35 37 -28 7 8 -15 37 -28 37 -5 0 -9 -4 -9 -9z"/>
<path d="M11240 11750 c0 -5 5 -10 10 -10 6 0 10 5 10 10 0 6 -4 10 -10 10 -5 0 -10 -4 -10 -10z"/>
<path d="M11280 11730 c0 -5 5 -10 10 -10 6 0 10 5 10 10 0 6 -4 10 -10 10 -5 0 -10 -4 -10 -10z"/>
<path d="M9980 11710 c0 -5 5 -10 10 -10 6 0 10 5 10 10 0 6 -4 10 -10 10 -5 0 -10 -4 -10 -10z"/>
<path d="M8840 11691 c0 -13 29 -35 37 -28 7 8 -15 37 -28 37 -5 0 -9 -4 -9 -9z"/>
<path d="M11380 11672 c0 -14 49 -56 57 -49 3 4 -4 18 -17 32 -24 25 -40 32 -40 17z"/>
<path d="M4733 11628 c-17 -21 -25 -86 -13 -108 10 -19 152 -130 167 -130 5 0 31 -18 58 -40 28 -22 54 -40 58 -40 8 0 70 -41 116 -78 l24 -20 -24 -12 c-15 -8 -115 -20 -258 -29 l-234 -16 -19 -25 c-11 -15 -20 -45 -21 -70 l-2 -45 35 -3 c19 -2 39 -8 45 -13 12 -12 72 -12 79 0 4 5 48 10 99 10 52 1 116 5 143 10 27 5 84 8 126 6 44 -3 80 0 83 5 3 6 34 10 68 10 93 0 110 13 120 86 11 81 0 104 -75 156 -389 273 -519 358 -549 358 -9 0 -21 -6 -26 -12z"/>
<path d="M8042 10899 c-72 -30 -137 -90 -170 -158 -22 -46 -27 -70 -27 -132 0 -66 4 -85 33 -141 42 -83 82 -124 160 -161 55 -26 72 -29 122 -24 111 10 215 86 268 195 34 71 39 190 10 235 -10 14 -18 32 -18 40 0 23 -82 100 -139 131 -73 39 -164 45 -239 15z"/>
<path d="M10546 10895 c-81 -33 -125 -71 -163 -141 -27 -51 -31 -70 -32 -136 -1 -67 3 -86 31 -144 78 -164 229 -233 373 -170 65 29 125 73 125 92 0 7 6 17 13 21 7 4 24 31 38 58 19 40 24 66 24 130 0 69 -4 88 -30 139 -36 71 -99 129 -171 156 -72 26 -135 25 -208 -5z"/>
<path d="M15230 10877 c-15 -8 -26 -23 -28 -38 -4 -35 35 -310 45 -320 5 -5 35 -10 68 -11 l60 -3 -3 60 c-2 33 -8 64 -13 70 -5 5 -9 27 -10 50 0 60 -34 176 -54 192 -23 16 -33 16 -65 0z"/>
<path d="M4755 10735 c-247 -63 -459 -119 -472 -126 -27 -14 -29 -21 -38 -92 -7 -52 -5 -58 19 -81 15 -13 42 -31 60 -40 18 -9 39 -22 46 -31 7 -8 22 -15 34 -15 11 0 32 -9 46 -20 14 -11 32 -20 40 -20 8 0 26 -9 40 -20 14 -11 32 -20 40 -20 8 0 26 -9 40 -20 14 -11 32 -20 40 -20 8 0 26 -9 40 -20 14 -11 31 -20 38 -20 7 0 21 -4 32 -10 11 -5 29 -14 40 -20 11 -5 28 -14 38 -19 9 -5 49 -23 87 -41 66 -30 81 -38 123 -59 9 -5 43 -21 75 -36 55 -25 59 -26 77 -10 15 14 17 26 13 73 -3 31 -11 63 -17 71 -6 8 -41 29 -78 46 -37 18 -85 47 -108 65 l-42 33 7 41 c3 23 9 79 13 126 l7 85 53 34 c28 18 52 39 52 46 0 22 53 49 91 46 52 -3 89 42 89 109 0 54 -18 80 -53 79 -12 0 -224 -52 -472 -114z m93 -258 c4 -110 -7 -153 -36 -150 -12 2 -66 25 -119 51 -186 93 -175 83 -142 126 16 20 29 26 49 24 15 -1 35 3 43 11 9 7 25 10 36 6 12 -4 30 0 43 10 15 10 39 14 73 12 l50 -3 3 -87z"/>
<path d="M14974 10102 c-17 -10 -27 -84 -15 -114 9 -24 97 -78 126 -78 7 0 20 -9 29 -19 10 -11 30 -21 45 -23 l26 -3 3 -120 c1 -66 -1 -151 -5 -190 l-8 -70 -120 -36 c-129 -39 -145 -52 -145 -114 0 -71 4 -74 87 -70 41 1 79 7 85 13 6 6 17 8 24 5 8 -3 22 1 30 8 9 8 29 12 44 11 16 -2 31 1 35 7 3 6 17 11 30 11 13 0 27 5 30 10 3 6 21 10 40 10 19 0 37 5 40 10 3 6 17 10 29 10 13 0 29 6 35 14 7 8 20 12 30 9 10 -3 22 0 25 6 4 6 18 11 30 11 13 0 29 6 35 13 6 8 23 12 40 9 16 -2 32 1 35 7 4 6 18 11 30 11 13 0 29 7 36 15 7 9 20 13 28 10 8 -3 23 2 33 11 12 11 27 14 43 10 14 -3 28 -2 31 4 3 5 16 10 29 10 12 0 26 4 31 9 6 5 21 11 35 13 l25 3 -3 75 c-3 111 -4 113 -69 143 -149 69 -857 367 -872 367 -3 0 -11 -4 -17 -8z m433 -339 c12 7 71 -13 106 -36 14 -9 33 -17 42 -17 8 0 23 -4 33 -9 21 -11 62 -27 85 -35 9 -3 17 -10 17 -15 0 -10 -46 -34 -85 -44 -11 -3 -60 -17 -110 -31 -94 -27 -169 -33 -181 -15 -3 6 -1 16 5 22 6 6 11 40 11 76 0 46 5 70 16 83 13 13 14 21 5 31 -19 24 1 28 25 6 12 -12 27 -19 31 -16z"/>
<path d="M7040 9910 c0 -5 5 -10 10 -10 6 0 10 5 10 10 0 6 -4 10 -10 10 -5 0 -10 -4 -10 -10z"/>
<path d="M7140 9771 c0 -13 29 -35 37 -28 7 8 -15 37 -28 37 -5 0 -9 -4 -9 -9z"/>
<path d="M7420 9510 c0 -5 5 -10 10 -10 6 0 10 5 10 10 0 6 -4 10 -10 10 -5 0 -10 -4 -10 -10z"/>
<path d="M8720 9470 c0 -5 5 -10 10 -10 6 0 10 5 10 10 0 6 -4 10 -10 10 -5 0 -10 -4 -10 -10z"/>
<path d="M8680 9450 c0 -5 5 -10 10 -10 6 0 10 5 10 10 0 6 -4 10 -10 10 -5 0 -10 -4 -10 -10z"/>
<path d="M7560 9430 c0 -5 5 -10 10 -10 6 0 10 5 10 10 0 6 -4 10 -10 10 -5 0 -10 -4 -10 -10z"/>
<path d="M8640 9430 c0 -5 5 -10 10 -10 6 0 10 5 10 10 0 6 -4 10 -10 10 -5 0 -10 -4 -10 -10z"/>
<path d="M7600 9410 c0 -5 5 -10 10 -10 6 0 10 5 10 10 0 6 -4 10 -10 10 -5 0 -10 -4 -10 -10z"/>
<path d="M7644 9399 c-10 -17 13 -36 27 -22 12 12 4 33 -11 33 -5 0 -12 -5 -16 -11z"/>
<path d="M8544 9399 c-10 -17 13 -36 27 -22 12 12 4 33 -11 33 -5 0 -12 -5 -16 -11z"/>
<path d="M8485 9380 c-9 -15 4 -30 20 -23 8 3 15 9 15 13 0 12 -29 20 -35 10z"/>
<path d="M7700 9370 c0 -5 9 -10 20 -10 11 0 20 5 20 10 0 6 -9 10 -20 10 -11 0 -20 -4 -20 -10z"/>
<path d="M7764 9359 c-10 -17 13 -36 27 -22 12 12 4 33 -11 33 -5 0 -12 -5 -16 -11z"/>
<path d="M8400 9350 c0 -5 14 -10 30 -10 17 0 30 5 30 10 0 6 -13 10 -30 10 -16 0 -30 -4 -30 -10z"/>
<path d="M7845 9340 c-9 -15 4 -30 20 -23 8 3 15 9 15 13 0 12 -29 20 -35 10z"/>
<path d="M8344 9339 c-10 -17 13 -36 27 -22 12 12 4 33 -11 33 -5 0 -12 -5 -16 -11z"/>
<path d="M7940 9310 c0 -5 9 -10 20 -10 11 0 20 5 20 10 0 6 -9 10 -20 10 -11 0 -20 -4 -20 -10z"/>
<path d="M8240 9310 c0 -5 5 -10 10 -10 6 0 10 5 10 10 0 6 -4 10 -10 10 -5 0 -10 -4 -10 -10z"/>
<path d="M4841 9204 c-26 -19 -26 -25 11 -219 25 -136 34 -151 90 -157 58 -6 78 11 71 60 -3 21 -10 41 -14 47 -5 5 -9 28 -9 51 0 24 -4 45 -9 48 -5 3 -11 23 -14 43 -14 102 -36 143 -76 143 -15 0 -37 -7 -50 -16z"/>
<path d="M15445 9119 c-33 -4 -170 -22 -304 -39 -135 -17 -253 -36 -264 -41 -25 -14 -47 -69 -47 -117 0 -29 7 -44 28 -64 43 -40 173 -128 217 -147 12 -5 27 -16 34 -25 7 -9 18 -16 23 -16 5 0 50 -27 99 -60 49 -33 91 -60 94 -60 2 0 32 -18 67 -40 40 -26 72 -40 88 -38 23 3 25 7 28 67 2 48 -1 68 -13 81 -9 10 -85 59 -168 109 -84 50 -169 107 -190 125 l-37 33 27 18 c17 12 54 20 100 23 41 3 76 8 78 12 2 4 43 5 91 3 50 -2 91 0 98 6 6 6 32 13 56 17 25 4 50 11 57 16 14 11 5 130 -11 140 -13 9 -71 8 -151 -3z"/>
<path d="M14844 8511 c-125 -21 -240 -192 -260 -386 l-6 -62 32 -36 c25 -29 39 -37 66 -37 l34 0 0 79 c0 44 5 83 10 86 6 3 10 18 10 32 0 14 11 41 26 60 14 18 22 33 18 33 -4 0 5 14 21 30 16 17 39 30 51 30 12 0 27 7 34 15 16 19 29 19 69 -1 54 -27 55 -17 -38 -263 -28 -74 -51 -144 -51 -156 0 -24 31 -55 75 -74 17 -7 37 -17 46 -21 8 -4 53 -11 100 -15 l84 -7 29 31 c17 17 35 31 41 31 21 0 85 75 91 108 4 18 11 35 15 38 5 3 9 18 9 34 0 16 5 32 10 35 6 3 10 33 10 65 0 32 -4 62 -10 65 -5 3 -10 15 -10 26 0 11 -13 40 -30 64 -97 142 -299 225 -476 196z m349 -282 c34 -28 37 -34 37 -83 0 -64 -22 -111 -64 -137 -35 -21 -106 -25 -124 -7 -15 15 -16 74 -2 83 6 3 10 15 10 25 0 11 9 35 20 55 11 20 20 41 20 47 0 18 31 48 49 48 9 0 33 -14 54 -31z"/>
<path d="M5111 8419 c-90 -29 -181 -90 -229 -152 -94 -123 -70 -321 55 -444 44 -44 63 -56 126 -82 30 -13 206 -21 213 -10 3 5 16 9 29 9 13 0 27 5 30 10 3 6 17 10 29 10 13 0 29 7 36 15 7 9 29 23 49 32 40 18 91 61 91 77 0 5 9 20 21 32 35 37 48 215 19 274 -64 130 -100 176 -171 215 -47 25 -66 29 -144 32 -68 2 -105 -3 -154 -18z m204 -139 c3 -5 14 -10 24 -10 29 0 89 -71 102 -120 17 -63 5 -113 -37 -160 -59 -65 -201 -118 -285 -107 -76 10 -150 106 -144 188 1 22 8 46 14 52 6 6 11 16 11 22 0 17 61 70 102 89 20 9 39 20 42 25 3 5 17 6 30 4 14 -3 35 2 48 11 25 18 83 22 93 6z"/>
<path d="M14188 7943 c-24 -28 -38 -60 -38 -86 0 -30 37 -78 219 -288 476 -545 430 -496 467 -504 28 -5 34 -3 47 24 9 17 18 43 21 58 7 34 -13 61 -164 227 -58 63 -113 129 -123 145 l-18 31 28 11 c15 6 44 8 63 4 19 -3 62 -8 95 -11 33 -3 69 -9 80 -14 21 -9 57 -15 170 -29 83 -10 109 0 100 41 -4 14 -1 29 4 33 6 3 11 17 11 31 0 35 -36 48 -210 73 -153 22 -440 66 -501 77 -30 5 -52 23 -120 100 -46 51 -91 93 -100 94 -9 0 -23 -8 -31 -17z"/>
<path d="M5655 7759 c-33 -17 -85 -45 -115 -61 -30 -17 -80 -44 -110 -61 -30 -17 -138 -76 -240 -132 -102 -56 -224 -123 -272 -149 -77 -41 -88 -50 -88 -74 0 -15 9 -41 20 -59 31 -52 73 -49 198 14 57 28 111 57 120 65 9 8 43 27 74 42 32 15 60 31 63 36 3 5 52 32 110 60 58 28 107 55 110 60 3 5 52 32 109 60 57 28 110 58 117 66 7 9 23 20 36 25 31 11 29 42 -4 87 -15 20 -27 38 -28 38 0 1 -9 4 -20 7 -12 4 -43 -5 -80 -24z"/>
<path d="M5755 7435 c-84 -16 -192 -77 -268 -150 -79 -77 -108 -135 -115 -225 -4 -62 -2 -73 28 -129 34 -63 67 -94 139 -132 l42 -22 -25 -26 c-14 -15 -65 -54 -113 -87 -89 -61 -153 -115 -153 -131 0 -5 19 -30 43 -57 46 -53 41 -52 107 -14 8 4 24 12 35 17 11 5 31 21 44 35 14 14 30 26 36 26 7 0 20 9 30 20 10 11 23 20 30 20 7 0 20 9 30 20 10 11 23 20 30 20 6 0 24 14 40 30 16 17 34 30 40 30 7 0 20 9 30 20 10 11 23 20 30 20 6 0 24 14 40 30 16 17 34 30 40 30 7 0 20 9 30 20 10 11 23 20 30 20 7 0 20 9 30 20 10 11 23 20 30 20 7 0 20 9 30 20 10 11 23 20 30 20 6 0 24 14 40 30 16 17 33 30 39 30 23 0 66 54 66 83 0 31 -56 97 -83 97 -22 0 -47 44 -47 83 0 19 -7 48 -15 64 -18 36 -100 115 -141 136 -42 21 -110 26 -179 12z m178 -207 l39 -43 -7 -65 c-3 -36 -8 -73 -11 -82 -5 -15 -133 -113 -192 -146 -28 -16 -99 -9 -148 13 -50 23 -68 51 -75 118 l-6 62 61 63 c59 60 141 112 177 112 10 0 21 5 25 11 4 7 23 9 53 5 38 -5 53 -13 84 -48z"/>
<path d="M13919 7041 c-22 -21 -39 -47 -39 -58 0 -12 47 -62 125 -133 l124 -113 -33 -46 c-18 -25 -47 -66 -65 -90 -58 -82 -77 -203 -46 -291 15 -44 77 -128 117 -159 58 -46 96 -60 172 -62 42 -1 79 1 83 4 3 4 16 7 28 7 12 0 30 9 40 20 10 11 23 20 29 20 14 0 106 92 106 105 0 5 31 41 69 80 102 103 105 95 -142 313 -386 340 -506 442 -522 442 -4 0 -25 -17 -46 -39z m362 -452 c24 -12 83 -56 130 -98 l87 -76 -17 -29 c-9 -15 -40 -50 -69 -77 -63 -58 -103 -69 -167 -45 -51 20 -115 92 -115 130 0 13 -4 27 -10 31 -13 8 42 111 82 152 17 18 32 33 33 33 1 0 21 -10 46 -21z"/>
<path d="M6147 6757 c-193 -183 -223 -216 -248 -274 -23 -55 -24 -90 -2 -145 42 -106 114 -179 243 -245 63 -32 90 -29 122 14 33 43 26 66 -30 90 -20 9 -47 20 -59 26 -37 17 -91 66 -107 97 -13 28 -13 31 4 40 13 7 21 26 26 60 7 56 16 67 34 45 7 -8 18 -15 24 -15 6 0 36 -19 66 -42 102 -77 141 -95 216 -100 39 -3 78 0 89 6 34 18 106 90 118 116 14 34 9 128 -10 170 -33 72 -119 151 -198 182 -35 14 -40 20 -40 48 0 33 -41 80 -71 80 -7 0 -87 -69 -177 -153z m266 -111 c58 -27 77 -54 77 -111 0 -40 -46 -85 -88 -85 -33 0 -93 36 -121 71 -18 23 -19 30 -7 70 9 31 19 45 34 47 11 2 26 10 32 18 15 18 10 18 73 -10z"/>
<path d="M13428 6500 c-76 -23 -170 -114 -190 -184 -14 -52 -24 -64 -40 -48 -7 7 -21 12 -32 12 -21 0 -76 -46 -76 -63 0 -25 269 -347 351 -421 28 -25 59 -46 69 -46 11 0 22 -4 25 -10 8 -12 102 -13 109 -1 3 5 14 7 24 4 10 -2 26 5 36 16 11 12 24 21 30 21 15 0 141 129 151 155 5 11 7 25 6 32 -1 6 3 14 9 18 31 19 -6 121 -47 131 -31 8 -40 0 -71 -69 -38 -82 -118 -157 -169 -157 -51 0 -93 33 -93 73 0 27 12 45 70 102 38 38 68 71 65 73 -2 2 5 19 16 38 27 49 27 168 -2 221 -43 80 -156 129 -241 103z m99 -188 c13 -15 23 -37 23 -50 0 -50 -54 -123 -123 -167 -22 -14 -30 -15 -42 -5 -8 7 -15 18 -15 25 0 7 -9 24 -20 38 -30 38 -27 102 5 123 14 9 23 19 20 22 -3 3 4 15 15 27 30 32 106 24 137 -13z"/>
<path d="M7111 6144 c-17 -14 -67 -73 -111 -130 -45 -57 -84 -106 -89 -108 -4 -3 -32 13 -62 36 -122 92 -220 122 -320 98 -72 -17 -95 -30 -151 -83 -69 -67 -98 -130 -98 -214 0 -111 33 -165 175 -288 172 -148 190 -154 260 -85 25 24 45 49 45 55 0 6 14 24 30 40 17 16 30 34 30 40 0 6 14 24 30 40 17 16 30 34 30 40 0 6 18 29 40 50 22 21 40 44 40 50 0 6 18 29 40 50 22 21 40 44 40 50 0 6 14 24 30 40 17 16 30 34 30 40 0 6 18 29 40 50 22 21 40 44 40 51 0 6 7 17 16 24 8 8 23 30 32 49 9 20 17 39 19 42 5 8 -40 51 -75 72 l-30 17 -31 -26z m-421 -269 c7 -9 32 -25 55 -35 48 -22 70 -44 62 -63 -7 -18 -134 -186 -170 -224 -17 -18 -36 -33 -43 -33 -13 0 -117 109 -133 139 -7 12 -5 25 4 42 8 13 24 44 36 68 15 28 32 47 51 53 19 7 28 17 28 32 0 13 3 26 7 29 13 14 90 7 103 -8z"/>
<path d="M12900 6093 c-35 -24 -40 -34 -38 -68 l3 -30 -75 -6 c-89 -6 -108 -15 -178 -83 -64 -62 -97 -149 -86 -226 7 -53 77 -207 123 -270 42 -59 143 -140 173 -140 13 0 28 -4 34 -9 15 -15 111 -16 128 -2 8 7 20 10 26 6 6 -4 20 1 31 11 10 9 19 13 19 9 0 -5 18 8 40 30 21 21 37 42 34 46 -8 13 27 59 45 59 24 -1 61 -43 130 -149 76 -116 90 -128 134 -110 43 17 67 38 67 60 0 20 -27 71 -71 136 -16 23 -29 44 -29 48 0 4 -13 26 -30 50 -16 24 -30 46 -30 49 0 4 -24 43 -53 89 -99 151 -127 197 -127 202 0 8 -134 208 -178 268 -39 51 -54 56 -92 30z m46 -269 c31 -23 108 -132 131 -186 15 -34 -4 -122 -36 -167 -44 -61 -121 -79 -183 -41 -34 20 -128 136 -128 157 0 7 -9 28 -20 48 -30 53 -22 146 15 185 44 46 163 48 221 4z"/>
<path d="M7652 5603 c-196 -190 -361 -354 -366 -364 -10 -20 7 -49 29 -49 6 0 20 -9 30 -20 39 -43 60 -30 236 146 97 97 171 164 178 160 16 -10 14 -135 -5 -313 -15 -141 -15 -155 0 -178 20 -30 60 -52 106 -57 l35 -3 2 55 c7 159 15 246 24 254 5 6 9 54 9 107 0 54 4 100 9 103 4 3 11 55 13 117 l6 111 43 44 c24 24 48 44 54 44 6 0 26 15 44 34 24 25 33 44 34 70 1 45 -7 54 -72 71 l-53 14 -356 -346z"/>
<path d="M12199 5692 l-32 -28 217 -455 c120 -250 225 -460 234 -467 23 -18 97 -10 123 13 23 21 21 32 -26 130 -18 39 -45 97 -60 130 -15 33 -32 69 -37 80 -6 11 -15 28 -20 38 -10 21 -25 51 -37 75 -5 9 -41 85 -81 167 -117 243 -154 313 -178 333 -26 21 -69 14 -103 -16z"/>
<path d="M11754 5520 c-235 -77 -315 -299 -197 -548 35 -73 130 -181 160 -182 7 0 28 -9 48 -20 38 -21 90 -27 100 -10 3 6 26 10 50 10 24 0 47 5 50 10 4 6 15 8 24 5 10 -3 24 1 31 10 7 8 29 23 49 32 42 19 91 61 91 78 0 7 9 20 20 30 11 10 20 28 20 40 0 12 3 25 8 29 10 11 2 199 -9 211 -5 5 -9 21 -9 37 0 15 -13 50 -30 78 -16 28 -30 55 -30 59 0 16 -114 114 -149 128 -58 25 -158 26 -227 3z m199 -184 c70 -67 101 -141 101 -243 0 -81 -14 -110 -74 -151 -75 -50 -146 -49 -210 4 -38 33 -104 166 -98 199 3 14 -1 30 -8 36 -19 15 -18 63 1 79 8 7 13 16 10 20 -5 9 66 79 96 94 13 6 47 12 76 13 l52 1 54 -52z"/>
<path d="M8222 5495 c-12 -15 -22 -41 -22 -57 0 -36 28 -48 115 -48 35 0 67 -4 70 -10 3 -5 17 -10 30 -10 13 0 27 -4 30 -10 3 -5 16 -10 29 -10 22 0 57 -31 89 -80 32 -47 15 -170 -21 -155 -9 4 -30 11 -47 15 -16 5 -95 30 -175 56 -190 61 -192 62 -217 30 -26 -33 -47 -143 -40 -211 7 -69 45 -142 95 -182 23 -18 44 -33 47 -33 4 0 20 -10 37 -21 25 -18 45 -22 136 -23 107 -2 145 6 172 39 7 8 18 15 24 15 34 0 159 191 142 218 -3 5 0 15 8 21 10 8 12 40 9 133 -4 103 -8 127 -25 152 -84 123 -196 181 -374 193 l-90 6 -22 -28z m83 -435 c3 -5 17 -10 30 -10 13 0 27 -4 30 -10 3 -5 17 -10 29 -10 30 0 89 -25 105 -44 10 -12 9 -21 -4 -45 -29 -56 -131 -89 -188 -60 -35 18 -77 61 -77 79 0 9 -5 21 -11 27 -16 16 -2 33 27 33 17 0 24 6 24 18 0 29 22 43 35 22z"/>
<path d="M9073 5288 c-21 -24 -55 -80 -215 -358 -158 -272 -162 -284 -110 -296 15 -4 32 -10 37 -14 6 -4 22 -10 37 -12 35 -6 63 24 108 117 19 39 40 78 48 87 8 10 29 46 46 80 20 41 38 64 51 66 11 2 30 16 42 31 24 29 28 25 37 -39 2 -19 12 -75 20 -125 8 -49 20 -126 26 -170 7 -44 17 -86 23 -93 10 -13 68 -42 109 -55 29 -10 41 19 39 91 -1 37 -7 71 -12 76 -5 6 -9 34 -9 62 0 29 -4 56 -10 59 -5 3 -10 30 -10 60 0 30 -4 57 -10 60 -5 3 -10 35 -10 70 0 35 -4 67 -10 70 -5 3 -10 28 -10 56 0 27 -4 57 -9 67 -5 9 -15 36 -22 60 -11 39 -16 43 -62 57 -70 21 -100 19 -124 -7z"/>
<path d="M9487 5233 c-23 -23 -4 -90 240 -838 25 -77 50 -145 55 -151 9 -12 32 -18 121 -33 38 -6 50 -4 60 8 22 29 37 60 37 80 0 11 5 23 11 27 6 3 9 15 6 25 -3 10 1 23 9 30 8 6 11 16 8 21 -7 10 30 91 54 120 8 10 12 24 9 32 -3 8 0 20 8 26 8 6 11 18 8 26 -3 8 2 22 10 32 9 9 16 22 18 27 4 22 13 41 27 57 8 10 12 24 9 32 -4 9 -2 18 3 21 12 7 40 65 40 81 0 7 9 29 20 49 11 20 20 44 20 55 0 10 5 22 11 25 6 4 8 13 5 21 -3 8 3 29 13 47 24 44 37 137 19 148 -18 12 -95 11 -117 -1 -10 -5 -34 -53 -56 -109 -20 -55 -44 -106 -54 -114 -13 -12 -44 -14 -184 -8 -169 7 -206 16 -179 43 19 19 14 36 -10 40 -14 2 -25 14 -31 33 -14 48 -48 118 -65 138 -11 12 -30 17 -67 17 -28 0 -55 -3 -58 -7z m521 -436 c5 -42 -48 -192 -107 -307 -16 -31 -36 -14 -54 45 -11 33 -23 68 -28 77 -5 10 -9 31 -9 47 0 17 -4 33 -10 36 -5 3 -10 17 -10 30 0 13 -4 27 -10 30 -18 11 -10 35 14 45 13 5 27 14 31 20 4 7 38 10 93 8 l87 -3 3 -28z"/>
<path d="M11010 4974 c-8 -1 -64 -10 -125 -19 -164 -25 -181 -34 -169 -95 10 -46 25 -52 101 -46 37 4 100 9 138 12 39 3 77 8 85 11 8 4 23 7 34 7 32 1 42 30 27 73 -22 62 -35 70 -91 57z"/>
</g>
</g>
  <g id="id2:id2" transform="matrix(1.25,0,0,1.25,0.0,0.0)"><g transform="translate(0.000000,816.000000) scale(0.040000,-0.040000)" fill="#ffffff" stroke="none">
<path d="M0 10200 l0 -10200 10280 0 10280 0 0 10200 0 10200 -10280 0 -10280 0 0 -10200z m20468 -1 c-2 -8084 -6 -10104 -16 -10104 -10 0 -12 2019 -12 10103 0 5557 3 10108 6 10114 4 6 10 6 15 1 5 -5 8 -4240 7 -10114z m-9588 9730 c183 -10 313 -24 740 -75 105 -12 217 -31 420 -70 41 -8 115 -22 165 -30 49 -8 112 -21 140 -29 27 -7 113 -28 190 -45 77 -18 194 -47 260 -65 66 -19 164 -46 218 -60 148 -39 754 -246 887 -304 14 -6 66 -26 115 -45 50 -19 133 -54 185 -79 52 -24 115 -52 140 -62 75 -31 679 -339 775 -395 50 -29 122 -71 160 -93 133 -76 530 -334 685 -445 649 -463 1242 -999 1746 -1578 188 -215 429 -520 570 -717 38 -54 94 -132 125 -175 30 -42 86 -126 124 -187 38 -60 76 -121 86 -135 47 -68 130 -202 161 -260 19 -36 60 -108 90 -160 64 -110 209 -381 263 -490 86 -174 272 -598 325 -742 16 -42 34 -85 39 -95 12 -20 11 -18 122 -343 102 -297 191 -598 244 -825 63 -266 87 -375 104 -470 47 -258 71 -395 81 -475 84 -652 93 -788 94 -1415 0 -625 -10 -787 -85 -1365 -26 -205 -106 -657 -134 -765 -7 -27 -28 -113 -45 -190 -30 -128 -76 -306 -99 -380 -6 -16 -19 -64 -30 -105 -12 -41 -30 -104 -40 -140 -26 -88 -155 -463 -190 -553 -168 -423 -272 -662 -393 -902 -94 -187 -188 -366 -199 -380 -4 -5 -52 -89 -107 -185 -206 -363 -436 -705 -742 -1105 -147 -192 -190 -245 -267 -330 -48 -55 -128 -147 -177 -205 -108 -126 -653 -672 -786 -787 -52 -45 -152 -130 -221 -190 -258 -222 -683 -536 -1004 -742 -66 -43 -151 -98 -190 -122 -38 -25 -101 -63 -140 -84 -38 -21 -106 -59 -150 -85 -305 -181 -809 -423 -1265 -607 -212 -86 -609 -220 -850 -288 -91 -25 -194 -55 -230 -65 -85 -26 -504 -122 -645 -149 -319 -59 -385 -71 -445 -76 -36 -4 -87 -11 -115 -16 -27 -5 -115 -16 -195 -25 -508 -55 -1003 -73 -1498 -55 -401 14 -593 30 -1032 86 -178 22 -610 101 -770 140 -52 12 -147 35 -210 50 -63 15 -144 35 -180 45 -36 11 -139 40 -230 65 -171 49 -622 195 -675 220 -16 7 -109 44 -205 82 -513 202 -1195 548 -1600 811 -63 41 -142 92 -175 113 -115 74 -491 340 -566 400 -24 20 -100 80 -169 134 -381 301 -982 869 -1240 1174 -58 69 -139 163 -180 209 -171 193 -541 692 -702 947 -25 39 -70 108 -100 155 -30 47 -73 117 -95 155 -22 39 -78 133 -123 210 -80 135 -273 509 -355 685 -21 47 -61 132 -88 190 -89 191 -311 764 -357 925 -5 17 -29 95 -53 175 -25 80 -55 181 -67 225 -12 44 -30 107 -40 140 -10 33 -32 123 -49 200 -18 77 -41 176 -51 220 -43 185 -109 557 -146 819 -14 104 -32 209 -39 235 -43 148 -45 193 -45 1084 0 923 -3 848 53 1097 8 36 24 137 36 225 12 88 31 210 41 270 11 61 27 148 34 195 23 134 46 245 76 375 16 66 38 163 50 215 12 52 30 122 40 155 10 33 32 114 50 180 52 196 185 599 250 760 18 44 49 125 70 180 119 311 395 891 560 1175 40 69 96 166 124 215 78 136 298 475 405 625 33 47 80 112 102 145 49 70 74 102 289 370 342 427 600 705 1005 1081 272 252 631 547 875 719 58 41 139 99 180 129 226 165 835 533 1081 654 57 28 146 73 197 101 52 27 110 56 130 64 21 8 76 33 122 55 163 77 265 123 325 147 60 23 277 107 390 150 55 21 447 151 590 195 182 56 731 193 865 216 79 13 185 32 360 64 58 11 159 26 225 34 66 9 174 22 240 30 241 29 506 49 755 56 293 8 783 3 1010 -11z"/>
<path d="M9450 19384 c-236 -24 -561 -65 -680 -85 -390 -66 -538 -96 -785 -161 -82 -22 -175 -46 -205 -53 -60 -15 -207 -58 -340 -100 -47 -14 -105 -32 -130 -40 -25 -8 -97 -31 -160 -53 -102 -34 -115 -41 -118 -63 -1 -13 1 -29 5 -34 5 -6 98 -71 208 -144 110 -74 211 -142 225 -153 28 -21 345 -233 392 -262 54 -34 74 -26 285 117 109 73 311 209 448 302 138 93 358 241 490 330 246 166 325 219 430 289 72 47 115 85 115 102 0 11 -24 26 -38 23 -4 -1 -68 -8 -142 -15z"/>
<path d="M10780 19382 c0 -24 59 -79 126 -118 27 -15 105 -66 173 -112 254 -172 466 -315 841 -567 212 -142 420 -282 462 -312 100 -69 121 -73 174 -35 23 17 173 119 335 228 162 108 321 216 354 239 33 22 81 53 107 68 48 28 71 68 51 88 -21 21 -475 168 -713 231 -41 11 -115 31 -165 44 -49 13 -135 33 -190 45 -54 11 -103 23 -107 25 -15 9 -581 107 -683 119 -33 3 -125 14 -205 25 -80 10 -212 24 -295 30 -82 7 -176 15 -207 17 -53 5 -58 4 -58 -15z"/>
<path d="M10184 18390 c-11 -4 -83 -51 -160 -102 -227 -155 -587 -397 -939 -633 -293 -196 -636 -427 -1013 -682 -92 -61 -132 -83 -155 -83 -25 1 -107 51 -357 220 -179 120 -496 334 -705 474 -209 140 -513 346 -675 456 -162 110 -308 209 -325 220 -42 28 -84 25 -136 -9 -24 -16 -91 -55 -149 -88 -299 -170 -797 -501 -1015 -675 -388 -309 -595 -490 -874 -763 -173 -169 -483 -504 -598 -644 -37 -46 -105 -129 -151 -184 -64 -77 -82 -106 -80 -126 2 -21 31 -45 153 -127 83 -56 179 -123 215 -148 90 -64 106 -62 227 21 95 64 315 213 948 638 165 111 406 273 535 360 565 382 676 455 690 455 8 0 180 -111 382 -247 562 -378 1143 -770 1259 -849 57 -38 113 -73 124 -78 18 -6 17 -9 -10 -31 -17 -13 -61 -37 -100 -54 -144 -61 -284 -131 -405 -203 -69 -41 -183 -109 -255 -152 -71 -42 -161 -99 -200 -126 -38 -27 -76 -50 -83 -50 -7 0 -154 96 -327 213 -173 116 -331 221 -351 231 l-37 19 -33 -19 c-19 -10 -167 -110 -331 -220 -548 -371 -875 -591 -1243 -838 -201 -135 -432 -290 -513 -345 -100 -69 -157 -101 -176 -101 -18 0 -68 27 -147 81 -65 44 -283 191 -484 325 -201 135 -387 261 -414 280 -27 19 -56 34 -64 32 -26 -5 -180 -274 -336 -585 -53 -106 -96 -194 -96 -197 0 -2 -25 -56 -55 -120 -30 -63 -55 -124 -55 -135 0 -25 12 -34 355 -264 157 -106 492 -331 745 -502 508 -342 527 -355 552 -355 10 0 96 52 190 116 95 65 227 153 293 196 66 44 140 94 165 111 337 229 606 409 664 442 28 15 60 39 72 52 29 32 41 12 17 -27 -10 -17 -46 -76 -81 -132 -35 -57 -101 -164 -148 -238 -130 -208 -355 -669 -424 -870 -5 -14 -29 -79 -55 -145 -47 -122 -81 -221 -129 -377 -15 -47 -36 -98 -47 -112 -27 -34 -495 -346 -519 -346 -11 0 -124 71 -252 157 -128 86 -388 261 -578 388 -190 128 -444 299 -565 380 -121 81 -281 189 -355 239 -74 49 -161 109 -194 133 -59 44 -95 53 -114 31 -11 -15 -26 -59 -47 -143 -9 -33 -35 -136 -59 -230 -24 -93 -51 -208 -61 -255 -9 -47 -25 -125 -36 -175 -23 -110 -49 -263 -56 -330 -4 -40 -2 -53 13 -66 11 -9 145 -101 299 -204 356 -239 687 -463 883 -596 85 -57 171 -115 193 -129 35 -23 419 -282 769 -519 79 -54 144 -91 159 -91 21 0 96 45 269 163 24 16 47 25 51 21 5 -5 14 -125 20 -267 7 -142 16 -293 21 -335 21 -188 34 -275 55 -392 13 -69 27 -148 31 -176 l6 -51 -53 -37 c-406 -279 -401 -276 -450 -237 -13 10 -136 94 -274 186 -137 92 -358 241 -490 330 -132 89 -271 183 -310 208 -38 26 -142 96 -230 155 -88 60 -320 216 -515 347 -195 131 -366 246 -379 256 -13 11 -36 19 -52 19 -32 0 -109 -55 -125 -90 -28 -60 15 -827 66 -1175 16 -111 23 -133 42 -148 13 -9 183 -124 378 -254 195 -130 524 -350 730 -489 206 -139 492 -331 635 -427 143 -96 323 -218 400 -271 151 -104 187 -116 236 -78 30 24 223 156 294 202 30 19 105 69 167 111 62 41 140 93 173 114 33 21 72 49 87 63 17 16 33 22 46 18 13 -5 60 -88 150 -269 87 -174 172 -326 253 -452 145 -227 146 -230 114 -247 -13 -7 -95 -62 -182 -122 -443 -306 -1131 -765 -1156 -771 -15 -4 -35 2 -57 18 -19 13 -71 48 -115 79 -44 30 -237 161 -430 290 -192 129 -413 277 -490 329 -509 345 -752 508 -793 531 -52 31 -82 35 -82 14 0 -8 28 -90 62 -183 33 -92 70 -193 80 -223 31 -88 128 -322 178 -425 11 -22 36 -78 55 -125 61 -143 306 -616 402 -775 49 -82 109 -182 131 -222 23 -39 59 -85 79 -101 21 -16 169 -117 328 -224 160 -107 365 -245 456 -306 94 -64 176 -112 189 -112 13 0 71 32 129 72 58 39 275 185 481 324 206 138 409 274 450 303 41 28 127 85 190 127 63 42 126 84 140 94 38 26 444 299 604 407 150 100 153 101 196 46 12 -15 72 -70 134 -123 62 -52 157 -136 212 -185 96 -87 142 -123 344 -270 52 -38 118 -85 145 -105 110 -80 159 -112 284 -184 72 -42 177 -104 233 -137 123 -74 668 -335 778 -373 25 -8 146 -51 270 -95 324 -116 848 -245 1204 -296 61 -9 119 -21 130 -27 l20 -11 -24 -16 c-13 -9 -72 -50 -131 -91 -59 -41 -120 -82 -135 -92 -16 -9 -76 -48 -134 -88 -211 -145 -522 -356 -560 -380 -22 -14 -106 -69 -186 -124 -80 -54 -154 -101 -164 -103 -26 -7 -57 12 -358 217 -150 102 -433 293 -630 425 -498 335 -1110 747 -1213 817 -48 32 -96 58 -108 58 -12 0 -153 -89 -314 -197 -306 -206 -920 -619 -1314 -883 -127 -85 -236 -163 -242 -173 -7 -10 -8 -24 -4 -31 24 -39 425 -392 633 -557 85 -67 179 -142 209 -166 29 -24 63 -43 76 -43 12 0 40 12 61 27 256 174 887 593 895 593 9 0 436 -284 939 -625 80 -54 336 -226 570 -383 542 -364 699 -470 729 -493 34 -27 81 -24 127 8 21 15 120 81 219 148 99 67 230 155 290 197 61 41 290 196 510 343 220 148 500 337 623 420 123 82 248 166 277 185 30 19 106 70 168 113 62 42 121 77 132 77 17 0 86 -45 665 -435 129 -87 386 -260 570 -383 184 -124 412 -277 505 -340 94 -64 240 -162 325 -219 85 -58 162 -111 171 -119 32 -29 74 -20 149 32 39 27 95 65 125 84 29 19 95 64 147 99 51 35 275 186 498 336 223 149 468 314 545 367 587 399 878 588 898 582 17 -5 702 -462 892 -595 39 -26 80 -49 92 -49 12 0 37 13 55 28 18 16 60 48 93 73 91 68 322 254 395 318 36 32 93 83 127 112 234 204 253 223 253 251 0 22 -9 32 -47 55 -27 15 -86 55 -133 88 -47 34 -238 163 -425 288 -187 125 -554 372 -815 547 -281 189 -484 320 -498 320 -20 0 -262 -158 -762 -499 -69 -47 -280 -189 -470 -316 -336 -226 -493 -332 -809 -546 -228 -155 -234 -159 -256 -159 -11 0 -153 90 -315 200 -500 337 -1054 707 -1079 720 -13 6 -19 16 -15 20 5 5 59 18 119 30 192 37 749 179 867 221 62 23 138 50 168 61 30 11 78 28 106 39 27 11 79 24 115 30 43 8 88 25 139 55 41 23 176 92 300 152 197 96 318 162 530 288 30 18 87 50 126 72 38 22 92 58 120 79 47 37 265 195 381 277 31 21 88 69 127 105 39 37 111 100 161 141 49 41 123 107 165 145 148 138 249 215 282 215 20 0 195 -114 625 -407 128 -87 251 -170 275 -184 24 -15 117 -77 208 -139 91 -62 320 -217 510 -345 190 -127 407 -274 483 -326 77 -52 149 -100 160 -106 34 -19 73 -15 104 11 26 21 431 297 524 356 136 87 517 349 539 371 15 15 50 67 77 116 28 48 84 144 123 213 77 134 338 649 371 733 11 27 55 134 99 236 83 196 248 644 257 697 3 17 1 34 -5 38 -10 6 -472 -301 -1795 -1194 -131 -88 -245 -160 -255 -160 -9 0 -42 18 -72 40 -30 21 -212 145 -405 274 -192 129 -447 301 -565 381 -118 80 -260 175 -315 211 -179 119 -235 157 -235 161 0 10 34 68 107 183 44 69 107 181 141 250 122 247 210 436 221 471 7 20 20 44 31 54 l20 18 362 -244 c366 -245 486 -326 612 -413 92 -63 111 -66 167 -24 24 19 127 90 229 158 217 145 687 462 1375 925 517 348 618 415 629 415 7 0 20 -6 31 -14 38 -26 63 -28 74 -8 14 27 39 189 56 372 8 85 19 200 25 255 12 116 29 613 22 651 -3 16 -24 40 -57 64 -130 96 -154 100 -241 39 -33 -22 -151 -102 -264 -178 -113 -76 -284 -191 -380 -256 -188 -127 -487 -329 -1100 -740 -212 -142 -398 -269 -413 -282 -16 -13 -38 -23 -49 -23 -11 0 -64 30 -117 67 -144 100 -312 213 -316 213 -5 0 -182 120 -252 172 -63 46 -62 42 -33 238 42 277 74 755 63 946 -6 107 2 130 35 101 20 -17 478 -327 554 -375 35 -21 59 -30 73 -26 17 6 488 316 640 423 28 19 208 140 400 270 433 290 638 428 965 649 169 114 264 172 281 172 15 0 42 -7 62 -15 30 -12 37 -12 47 0 12 14 10 37 -16 160 -8 39 -19 102 -24 140 -15 113 -72 383 -120 575 -91 356 -115 436 -136 444 -19 7 -42 -2 -84 -33 -19 -14 -116 -80 -215 -147 -228 -153 -615 -413 -994 -668 -163 -110 -408 -275 -546 -368 -151 -101 -260 -168 -274 -168 -14 0 -32 6 -40 14 -14 12 -334 228 -723 489 -170 114 -171 115 -249 322 -28 77 -69 185 -89 241 -56 148 -308 656 -387 781 -230 359 -282 437 -344 518 -39 50 -101 131 -140 180 -38 50 -80 104 -94 122 -35 42 -18 48 36 12 24 -16 235 -157 469 -312 390 -260 556 -371 1125 -755 110 -75 249 -168 309 -209 59 -40 118 -73 130 -73 11 0 33 8 48 18 14 9 106 71 205 137 198 135 629 425 1098 740 171 114 320 217 333 228 13 12 22 32 22 49 0 34 -302 638 -418 838 -83 141 -112 180 -135 180 -8 0 -50 -24 -93 -54 -44 -30 -232 -157 -419 -283 -187 -125 -401 -269 -475 -320 -145 -100 -175 -110 -221 -75 -22 18 -611 415 -646 437 -21 13 -134 88 -358 240 -1073 726 -1227 827 -1253 820 -14 -3 -66 -34 -116 -69 -50 -35 -237 -161 -415 -280 -263 -176 -328 -216 -348 -211 -13 3 -49 25 -81 49 -143 108 -212 156 -277 193 -38 22 -159 92 -267 156 -109 63 -232 131 -274 150 -42 19 -88 44 -103 55 -24 19 -25 21 -7 28 10 4 105 66 210 137 105 72 360 244 566 382 484 325 807 542 945 637 131 89 172 111 192 104 14 -6 223 -145 533 -354 160 -109 430 -290 1010 -680 184 -124 408 -275 498 -336 184 -126 232 -156 249 -156 6 0 59 33 118 73 58 39 113 77 123 82 87 52 257 173 268 191 20 30 13 43 -100 175 -50 59 -120 142 -156 185 -158 192 -545 593 -785 812 -510 467 -1043 858 -1645 1207 -195 114 -253 145 -271 145 -8 0 -103 -59 -210 -131 -107 -73 -263 -178 -347 -235 -85 -57 -157 -104 -160 -104 -3 0 -15 -8 -26 -19 -12 -10 -181 -125 -376 -256 -195 -131 -505 -339 -688 -462 -183 -122 -338 -223 -345 -223 -20 0 -179 104 -712 467 -88 60 -385 260 -660 444 -275 185 -581 391 -680 458 -161 110 -228 152 -237 150 -2 0 -12 -4 -24 -9z m95 -1463 c25 -19 199 -137 386 -262 187 -126 360 -243 385 -261 25 -18 89 -63 143 -100 109 -75 116 -95 25 -76 -29 6 -73 14 -98 17 -25 3 -85 12 -135 20 -49 8 -191 25 -315 37 -195 20 -279 23 -635 23 -314 0 -451 -4 -585 -18 -240 -24 -232 -23 -232 -12 0 5 15 18 33 28 19 11 52 34 74 51 69 55 773 533 838 568 45 25 63 23 116 -15z m294 -1276 c19 -8 29 -28 54 -108 17 -54 41 -136 53 -183 12 -47 26 -96 31 -110 5 -14 20 -68 34 -120 15 -52 34 -124 44 -160 55 -199 72 -272 67 -285 -7 -18 -61 -20 -95 -2 -15 7 -28 25 -33 47 -22 88 -61 201 -71 207 -7 4 -28 8 -47 9 -19 1 -84 5 -145 8 -60 3 -131 8 -156 11 -52 6 -44 15 -100 -120 -47 -112 -56 -125 -91 -125 -33 0 -68 16 -68 31 0 5 27 69 59 142 239 535 333 742 342 754 13 15 86 17 122 4z m539 -330 c29 -24 36 -63 79 -469 12 -112 23 -141 43 -108 6 10 29 46 50 80 21 33 49 79 62 101 12 22 58 99 101 170 l79 130 38 -2 c21 -2 45 -8 52 -14 18 -15 4 -41 -139 -266 -144 -225 -197 -313 -197 -324 0 -5 -14 -16 -31 -25 -27 -14 -37 -14 -76 -2 -25 7 -51 22 -58 33 -7 11 -18 67 -24 125 -6 58 -16 137 -21 175 -26 182 -50 398 -44 406 9 16 60 10 86 -10z m-3331 -147 c22 -48 57 -128 78 -178 44 -105 180 -417 240 -554 23 -51 41 -97 41 -102 0 -10 -72 -50 -90 -50 -6 0 -14 10 -19 23 -5 12 -41 96 -81 187 -39 91 -78 179 -85 195 -16 36 -170 393 -196 454 -26 59 -24 78 9 95 51 28 59 22 103 -70z m823 5 c57 -16 141 -99 176 -175 37 -81 54 -172 45 -249 -13 -121 -65 -189 -187 -249 -93 -46 -157 -54 -237 -31 -112 34 -198 157 -227 323 -13 73 -7 146 17 210 26 69 99 127 209 168 43 16 152 18 204 3z m1014 -103 c2 -16 0 -32 -5 -37 -16 -16 -188 -40 -259 -37 l-69 3 0 35 0 35 120 17 c66 9 140 15 165 15 42 -2 45 -4 48 -31z m2499 -27 c130 -63 178 -179 138 -334 -22 -84 -48 -109 -93 -86 -9 4 -39 16 -67 26 -45 15 -145 52 -250 91 -76 29 -74 29 -90 -10 -19 -44 -19 -116 -1 -160 31 -73 143 -132 276 -144 85 -8 100 -25 58 -69 -21 -23 -28 -24 -78 -19 -132 16 -232 59 -312 134 -88 83 -87 267 2 428 92 167 254 222 417 143z m434 -192 l34 -23 -3 -70 c-2 -38 -10 -107 -18 -154 -9 -47 -17 -101 -20 -120 -6 -42 -21 -141 -29 -192 -4 -25 -2 -38 5 -38 14 0 130 100 292 253 137 128 155 136 205 92 l28 -25 -23 -20 c-37 -31 -298 -268 -387 -350 -44 -41 -135 -123 -202 -182 -103 -91 -127 -108 -155 -108 -36 0 -78 23 -78 43 0 7 34 41 76 77 106 90 114 98 114 115 0 14 56 437 81 610 12 81 23 115 38 115 4 0 23 -10 42 -23z m-5548 -69 c24 -40 56 -93 70 -118 67 -121 80 -140 91 -140 8 0 21 20 30 44 27 70 87 131 154 156 51 20 64 21 117 11 114 -20 221 -127 285 -282 71 -171 21 -324 -129 -395 -53 -26 -132 -30 -164 -10 -33 22 -42 7 -25 -40 l13 -36 -28 -24 c-16 -13 -32 -24 -36 -24 -13 0 -37 31 -67 85 -15 28 -107 190 -204 360 -98 171 -192 339 -210 375 l-32 64 26 23 c44 37 60 30 109 -49z m6806 -433 c162 -136 212 -210 213 -315 1 -61 -15 -105 -60 -166 -44 -61 -90 -91 -162 -110 -109 -28 -195 0 -323 103 -37 30 -71 51 -77 48 -5 -3 -57 -62 -116 -130 -59 -69 -114 -125 -123 -125 -18 0 -71 49 -71 66 0 5 36 52 81 104 44 52 109 129 144 170 380 449 361 427 392 429 7 1 53 -33 102 -74z m-6986 -79 c46 -21 84 -58 174 -171 151 -191 203 -262 203 -278 0 -16 -45 -57 -62 -57 -6 0 -12 9 -15 19 -6 24 -28 34 -41 18 -5 -7 -17 -34 -27 -61 -35 -95 -143 -186 -221 -186 -56 0 -92 14 -132 53 -47 44 -62 78 -62 134 0 77 35 136 139 236 103 99 103 98 29 161 -52 45 -73 51 -128 36 -54 -15 -119 -76 -162 -154 -18 -33 -38 -61 -45 -63 -6 -2 -19 9 -27 25 -14 27 -14 35 0 74 20 61 103 150 177 193 70 39 142 47 200 21z m-718 -317 c95 -26 185 -123 209 -229 l15 -64 -26 -78 c-22 -66 -38 -93 -95 -158 -37 -44 -68 -85 -67 -92 1 -7 55 -62 120 -121 76 -70 119 -116 119 -129 0 -19 -50 -78 -67 -78 -10 0 -22 12 -318 294 -332 316 -357 343 -349 369 9 31 200 223 252 253 38 22 96 39 152 43 8 0 33 -4 55 -10z m8077 -325 c98 -50 183 -148 207 -240 14 -51 -5 -113 -50 -168 -41 -48 -378 -346 -394 -346 -6 0 -22 14 -35 32 l-23 32 21 14 c12 8 22 20 22 27 0 14 -42 35 -71 35 -57 0 -161 103 -184 184 l-16 55 23 58 c46 115 164 156 282 97 28 -14 87 -61 134 -107 l83 -82 49 52 c46 48 50 55 50 101 0 46 -4 55 -49 105 -28 30 -77 68 -111 86 -68 37 -83 57 -55 77 28 20 60 17 117 -12z m767 -390 c33 -42 27 -68 -21 -97 -74 -44 -242 -154 -260 -171 -25 -22 -22 -36 5 -36 36 0 128 -61 164 -108 89 -118 55 -262 -90 -381 -68 -56 -167 -111 -199 -111 -11 0 -38 -5 -59 -12 -66 -19 -142 5 -207 66 -72 68 -84 94 -90 198 -5 91 -11 101 -44 71 -24 -21 -48 -9 -63 32 -11 32 0 44 106 109 71 45 252 161 374 241 147 97 350 225 357 225 4 0 16 -12 27 -26z m-9462 -266 c28 -31 246 -298 303 -373 14 -18 85 -106 158 -196 72 -90 132 -173 132 -184 0 -11 -12 -37 -26 -58 l-26 -39 -19 18 c-11 10 -49 58 -85 106 -40 54 -73 88 -84 88 -10 0 -64 9 -121 20 -57 11 -153 29 -214 41 -60 11 -128 24 -150 29 -22 5 -76 16 -120 25 -110 21 -125 41 -77 103 l18 23 125 -25 c68 -14 176 -36 239 -49 152 -33 198 -39 204 -28 6 9 -43 74 -140 186 -114 131 -204 251 -204 271 0 21 35 74 49 74 4 0 21 -15 38 -32z m9916 -512 c14 -29 15 -41 6 -52 -6 -8 -15 -14 -19 -14 -5 0 -199 -94 -431 -210 -233 -115 -431 -210 -440 -210 -9 0 -26 15 -37 34 l-20 34 21 21 c29 26 868 441 887 438 8 -1 23 -19 33 -41z m-10131 -230 c71 -22 88 -34 88 -61 0 -24 -22 -85 -59 -166 -51 -111 -101 -234 -101 -249 0 -20 71 -42 139 -43 40 -1 55 5 90 32 68 54 121 170 121 267 0 55 20 73 56 49 l27 -17 -6 -77 c-9 -125 -71 -249 -156 -314 -39 -30 -64 -40 -115 -48 -83 -13 -145 -1 -245 48 -169 84 -248 224 -206 370 24 82 70 150 129 189 45 29 59 33 121 33 39 1 91 -6 117 -13z m9854 -268 c120 -23 205 -107 246 -241 47 -157 -16 -284 -183 -365 -95 -46 -198 -65 -274 -48 -107 23 -169 75 -226 192 -28 56 -33 76 -33 142 0 92 18 134 91 204 55 54 131 92 224 112 83 18 85 18 155 4z m-8118 -195 c53 -63 117 -138 141 -166 24 -29 50 -56 57 -60 16 -9 4 -29 -89 -143 -32 -40 -86 -124 -120 -189 l-62 -117 -334 2 c-184 0 -338 3 -343 6 -10 6 17 43 147 199 55 66 136 165 180 219 44 54 107 131 140 171 33 40 84 102 114 138 30 37 58 64 63 61 5 -3 53 -57 106 -121z m5074 55 c26 -35 81 -103 123 -153 42 -49 111 -132 153 -183 43 -52 104 -125 137 -164 120 -141 164 -202 153 -216 -8 -10 -95 -12 -391 -12 -209 1 -382 -1 -385 -4 -12 -13 -42 19 -72 76 -49 96 -67 128 -83 146 -20 23 -87 121 -87 127 0 2 18 24 39 47 68 75 185 211 226 263 54 70 117 135 130 135 5 0 31 -28 57 -62z m-4508 -59 c-3 -5 -10 -7 -15 -3 -5 3 -7 10 -3 15 3 5 10 7 15 3 5 -3 7 -10 3 -15z m2530 -10 c-3 -5 -10 -7 -15 -3 -5 3 -7 10 -3 15 3 5 10 7 15 3 5 -3 7 -10 3 -15z m-434 -13 c47 -10 92 -24 101 -32 8 -8 24 -14 35 -14 17 0 94 -44 94 -54 0 -2 -33 -30 -72 -63 -77 -64 -202 -216 -251 -305 -16 -29 -39 -73 -53 -96 -24 -45 -82 -216 -105 -312 -7 -30 -16 -59 -21 -64 -9 -12 -38 54 -38 88 0 42 -56 201 -105 299 -67 132 -121 209 -224 319 -50 53 -91 99 -91 102 0 3 15 13 33 21 17 9 52 27 77 40 25 13 53 24 63 24 10 1 37 9 60 20 23 10 80 24 126 30 46 6 87 14 90 17 10 10 195 -3 281 -20z m394 -7 c-3 -5 -10 -7 -15 -3 -5 3 -7 10 -3 15 3 5 10 7 15 3 5 -3 7 -10 3 -15z m-2639 -53 c-10 -6 -33 -24 -51 -39 -18 -15 -35 -24 -38 -19 -6 10 37 53 69 70 25 13 45 2 20 -12z m2549 3 c-3 -5 -10 -7 -15 -3 -5 3 -7 10 -3 15 3 5 10 7 15 3 5 -3 7 -10 3 -15z m1400 -10 c-3 -5 -10 -7 -15 -3 -5 3 -7 10 -3 15 3 5 10 7 15 3 5 -3 7 -10 3 -15z m139 -121 c-3 -6 -20 5 -39 23 -18 18 -31 36 -27 41 3 6 20 -5 39 -23 18 -18 31 -36 27 -41z m-6575 -44 c238 -160 379 -258 402 -279 17 -16 21 -28 17 -56 -8 -62 -28 -92 -67 -101 -68 -15 -616 -56 -651 -49 -31 7 -34 10 -32 40 3 64 12 67 236 80 111 7 227 16 257 21 30 5 66 8 79 7 13 -1 26 3 28 10 2 6 -99 80 -224 163 -125 84 -234 160 -240 168 -23 29 -7 102 22 102 9 0 87 -48 173 -106z m2346 65 c-3 -5 -10 -7 -15 -3 -5 3 -7 10 -3 15 3 5 10 7 15 3 5 -3 7 -10 3 -15z m4290 -71 c-3 -5 -12 -4 -20 3 -7 6 -11 15 -8 21 3 5 12 4 20 -3 7 -6 11 -15 8 -21z m-3300 -644 c130 -61 191 -225 136 -364 -46 -115 -137 -187 -252 -198 -51 -4 -66 -1 -124 28 -102 50 -174 165 -174 279 0 75 45 178 93 215 103 79 212 92 321 40z m2497 6 c77 -39 97 -59 133 -132 48 -94 49 -165 7 -254 -117 -248 -402 -243 -519 9 -32 69 -31 169 4 234 43 82 97 126 204 167 30 11 127 -2 171 -24z m4516 -12 c20 -28 57 -240 51 -298 -3 -31 -7 -35 -34 -38 -17 -2 -35 3 -41 10 -10 13 -31 146 -40 256 -5 56 6 82 37 82 10 0 22 -6 27 -12z m-10040 -40 c17 -21 3 -88 -21 -102 -11 -7 -66 -23 -121 -36 -55 -13 -104 -27 -110 -32 -5 -5 -19 -93 -30 -196 l-21 -186 19 -19 c11 -11 61 -39 112 -62 52 -24 98 -52 104 -63 12 -23 3 -92 -14 -98 -6 -3 -79 27 -161 67 -82 39 -189 90 -239 114 -300 143 -463 224 -484 242 -22 18 -23 24 -17 76 4 30 13 61 21 67 14 12 894 238 931 239 12 1 26 -5 31 -11z m4163 -449 c0 -15 4 -30 9 -33 5 -3 12 -25 15 -49 4 -23 13 -55 21 -71 9 -16 18 -47 21 -70 4 -22 12 -48 20 -56 7 -8 16 -27 19 -43 4 -15 10 -29 14 -32 4 -2 23 -35 41 -72 19 -37 61 -99 93 -137 32 -38 65 -79 73 -91 32 -49 213 -191 327 -257 65 -37 124 -68 130 -68 7 -1 30 -8 52 -16 22 -8 83 -26 135 -41 86 -24 111 -26 275 -26 191 1 180 -1 420 70 79 23 272 131 360 201 39 31 104 91 145 134 86 89 85 89 213 59 45 -10 129 -29 187 -41 100 -20 150 -34 300 -82 109 -35 267 -114 345 -173 40 -30 82 -55 92 -55 11 0 61 37 113 83 98 86 160 162 144 175 -5 5 -36 30 -68 57 -66 55 -132 149 -142 201 -13 72 35 124 115 124 46 0 97 -38 137 -102 26 -40 56 -146 55 -189 -1 -34 41 -79 74 -79 69 0 149 75 179 168 17 53 36 182 36 246 0 52 18 73 50 56 19 -10 21 -17 15 -83 -14 -158 -26 -224 -54 -282 -36 -78 -80 -128 -137 -156 -39 -18 -55 -20 -115 -15 l-69 7 -23 -28 c-12 -15 -74 -80 -138 -143 l-116 -115 15 -45 c8 -25 22 -62 30 -82 14 -35 13 -43 -7 -104 -12 -36 -35 -85 -50 -108 -61 -86 -192 -187 -311 -240 -54 -23 -121 -59 -139 -72 -2 -2 2 -11 9 -19 11 -13 12 -82 7 -348 -4 -183 -12 -406 -18 -496 -10 -145 -9 -171 6 -226 18 -67 14 -84 -22 -117 -27 -24 -190 -42 -246 -27 -41 10 -107 62 -107 84 0 6 12 25 28 43 29 35 96 59 201 71 51 6 55 8 62 36 6 27 23 445 33 838 l4 149 -36 -7 c-20 -4 -55 -14 -77 -22 -41 -15 -166 -47 -267 -67 -31 -6 -63 -17 -70 -24 -13 -13 -18 -83 -32 -477 -7 -211 -4 -205 -116 -230 -128 -29 -184 -30 -235 -5 -41 20 -95 71 -95 90 0 18 72 69 107 77 36 7 162 8 228 1 27 -3 30 0 36 37 4 22 10 137 14 255 7 192 6 217 -9 229 -18 15 -109 10 -260 -14 -128 -21 -588 -21 -706 0 -47 8 -121 18 -165 21 -111 9 -110 11 -124 -196 -7 -91 -19 -242 -27 -336 -9 -95 -16 -216 -17 -269 -2 -87 0 -99 17 -109 47 -27 86 -69 86 -92 0 -41 -69 -75 -168 -85 -101 -11 -146 0 -196 46 -26 24 -34 37 -29 53 7 27 58 72 81 72 30 0 114 37 124 54 5 9 16 97 24 194 36 454 45 595 42 644 l-3 53 -55 7 c-30 4 -77 14 -105 22 -27 8 -70 19 -95 25 -25 5 -65 17 -89 26 -24 9 -54 15 -65 13 l-21 -3 -1 -383 c-1 -331 -3 -385 -16 -399 -17 -16 -112 -41 -195 -50 -37 -4 -59 -1 -75 9 -13 8 -34 18 -48 21 -14 4 -36 20 -49 38 -31 41 -18 69 46 100 39 19 66 24 142 25 54 1 98 7 105 14 7 7 12 105 14 315 3 268 1 309 -14 340 -9 19 -21 35 -26 35 -25 0 -185 86 -247 133 -210 159 -255 325 -134 500 19 26 31 52 28 57 -4 6 -27 10 -53 10 -26 0 -63 5 -82 10 -19 6 -62 12 -96 15 -33 3 -79 14 -102 25 -22 11 -46 20 -52 20 -15 0 -115 54 -150 82 l-30 24 56 54 c32 30 71 73 88 96 17 22 50 66 73 97 47 61 158 274 168 322 4 17 15 53 25 80 10 28 21 73 25 100 10 76 14 84 31 61 8 -11 14 -32 14 -47z m6025 -461 c220 -94 417 -179 438 -190 l37 -18 0 -65 c0 -61 -2 -65 -28 -79 -23 -12 -175 -59 -307 -96 -16 -5 -61 -18 -100 -30 -120 -37 -269 -81 -300 -90 -16 -4 -50 -14 -75 -23 -83 -27 -139 -39 -155 -34 -19 8 -21 90 -2 105 14 12 62 29 175 62 40 12 75 27 77 33 2 7 8 93 13 192 l10 180 -22 21 c-11 12 -57 36 -102 53 -107 42 -124 55 -124 92 0 46 17 71 43 63 12 -3 202 -83 422 -176z m-8241 -189 c-3 -5 -10 -7 -15 -3 -5 3 -7 10 -3 15 3 5 10 7 15 3 5 -3 7 -10 3 -15z m119 -122 c-3 -5 -29 15 -59 44 -29 29 -50 57 -47 62 3 5 29 -15 59 -44 29 -29 50 -57 47 -62z m1581 -28 c-3 -5 -10 -7 -15 -3 -5 3 -7 10 -3 15 3 5 10 7 15 3 5 -3 7 -10 3 -15z m-1480 -50 c-3 -5 -10 -7 -15 -3 -5 3 -7 10 -3 15 3 5 10 7 15 3 5 -3 7 -10 3 -15z m1391 -15 c-10 -7 -22 -11 -28 -7 -6 3 -3 11 8 19 10 7 22 11 28 7 6 -3 3 -11 -8 -19z m-81 -45 c-3 -5 -10 -7 -15 -3 -5 3 -7 10 -3 15 3 5 10 7 15 3 5 -3 7 -10 3 -15z m-1170 -20 c-3 -5 -10 -7 -15 -3 -5 3 -7 10 -3 15 3 5 10 7 15 3 5 -3 7 -10 3 -15z m1080 -30 c-3 -5 -10 -7 -15 -3 -5 3 -7 10 -3 15 3 5 10 7 15 3 5 -3 7 -10 3 -15z m-620 -110 c-3 -5 -10 -7 -15 -3 -5 3 -7 10 -3 15 3 5 10 7 15 3 5 -3 7 -10 3 -15z m-3095 -116 c5 -10 21 -81 37 -157 l27 -139 -22 -19 c-50 -40 -63 -23 -89 112 -33 167 -35 189 -22 205 17 20 57 19 69 -2z m10669 -110 c7 -73 -7 -78 -308 -108 -85 -8 -175 -18 -200 -21 -25 -3 -57 -6 -72 -6 -61 -1 -40 -18 222 -173 118 -70 223 -135 233 -143 13 -12 17 -27 15 -61 -3 -43 -5 -46 -31 -44 -27 2 -541 315 -585 357 -21 20 -22 26 -12 76 6 30 16 60 23 67 6 6 89 21 182 33 94 12 231 30 305 40 74 10 155 18 180 17 l45 -2 3 -32z m-552 -591 c139 -35 267 -140 293 -240 27 -108 -18 -258 -95 -319 -86 -67 -149 -80 -257 -52 -80 22 -97 33 -97 64 0 13 29 99 64 192 35 93 67 185 71 205 l7 37 -44 11 c-23 6 -49 13 -56 15 -30 11 -106 -19 -142 -55 -59 -59 -86 -139 -102 -300 -3 -28 -30 -30 -60 -3 -37 33 -11 193 49 304 76 142 191 186 369 141z m-9651 -86 c57 -27 78 -48 128 -127 54 -85 71 -155 56 -227 -7 -31 -18 -68 -25 -82 -39 -75 -146 -154 -253 -187 -34 -10 -89 -17 -141 -17 -80 0 -88 2 -140 35 -96 62 -135 119 -161 233 -10 45 -10 70 0 126 11 60 19 77 58 120 52 58 142 114 216 134 29 8 88 15 132 15 64 1 90 -4 130 -23z m8897 -519 c29 -34 62 -75 74 -91 22 -30 31 -33 214 -60 58 -9 166 -25 240 -36 74 -11 166 -25 205 -31 38 -5 80 -16 92 -25 l23 -15 -20 -39 c-11 -21 -24 -41 -29 -45 -6 -3 -36 -1 -68 4 -119 20 -291 50 -373 65 -91 17 -140 20 -140 10 0 -7 61 -76 258 -293 67 -74 122 -141 122 -149 0 -22 -40 -82 -55 -82 -7 0 -53 46 -101 103 -49 56 -136 156 -194 222 -307 348 -360 414 -360 444 0 28 33 81 50 81 5 0 33 -28 62 -63z m-8522 -144 c17 -30 19 -38 8 -49 -16 -16 -171 -103 -428 -242 -36 -19 -126 -69 -200 -110 -228 -128 -242 -134 -262 -116 -9 9 -21 29 -27 44 -10 31 -3 41 54 71 120 65 522 283 619 337 147 80 188 101 203 102 6 0 21 -16 33 -37z m163 -325 c37 -19 109 -92 127 -128 20 -38 28 -133 15 -162 -11 -26 20 -34 51 -13 l27 17 29 -29 c18 -18 27 -35 23 -45 -4 -9 -41 -40 -83 -70 -42 -30 -153 -108 -247 -175 -93 -66 -204 -143 -245 -172 -41 -28 -113 -78 -160 -111 l-85 -60 -33 36 -34 36 24 25 c22 24 229 175 275 201 33 18 28 39 -9 47 -52 12 -123 51 -151 84 -14 17 -35 55 -46 85 -38 102 1 212 110 310 65 59 169 116 238 132 60 13 142 10 174 -8z m8094 -386 c42 -34 272 -235 548 -478 61 -54 91 -88 93 -105 2 -19 -18 -48 -90 -129 -147 -165 -240 -215 -353 -190 -97 22 -194 121 -222 227 -13 50 -13 63 2 124 18 72 46 123 113 204 23 27 42 55 42 62 0 6 -28 36 -62 65 -100 86 -188 170 -188 181 0 14 49 77 60 77 4 0 30 -17 57 -38z m-7665 -149 c22 -20 24 -61 3 -69 -12 -5 -23 -34 -12 -34 1 0 28 -4 59 -10 128 -20 232 -143 220 -258 -3 -32 -14 -53 -48 -91 -108 -120 -209 -106 -383 55 -43 41 -83 74 -88 74 -5 0 -28 -25 -51 -56 -61 -83 -56 -140 20 -210 47 -43 87 -69 130 -83 52 -17 66 -36 43 -61 -31 -34 -52 -33 -130 6 -117 57 -201 160 -213 260 -8 75 22 120 190 284 142 138 223 210 236 210 3 0 14 -7 24 -17z m7220 -410 c67 -36 98 -90 98 -168 0 -74 -18 -105 -133 -221 l-90 -92 28 -36 c77 -100 175 -100 264 0 21 25 51 69 65 99 25 54 44 67 63 43 22 -28 20 -49 -7 -104 -78 -162 -241 -259 -353 -210 -18 8 -62 45 -99 82 -81 84 -298 345 -298 360 0 5 13 20 30 32 l30 22 20 -20 c25 -25 50 -26 50 -1 0 72 73 176 152 215 67 34 117 33 180 -1z m-6390 -340 c15 -15 28 -32 28 -37 -1 -17 -136 -197 -330 -441 -53 -66 -124 -157 -159 -202 -83 -109 -86 -109 -224 3 -161 129 -201 188 -201 294 1 84 28 142 98 208 60 57 125 82 212 82 42 0 69 -8 131 -40 43 -22 95 -56 116 -75 21 -19 43 -35 50 -35 7 1 41 38 77 83 106 135 152 187 163 187 6 0 24 -12 39 -27z m5819 -108 c85 -125 479 -767 479 -780 0 -7 -17 -23 -37 -35 -42 -25 -58 -20 -83 23 -8 15 -46 77 -85 138 -38 62 -73 120 -77 131 -12 31 -35 20 -52 -26 -25 -65 -71 -123 -123 -156 -38 -24 -58 -30 -103 -30 -139 0 -238 81 -329 269 -22 46 -42 105 -46 134 -12 102 52 219 147 268 28 14 59 19 123 20 90 1 107 9 81 38 -9 10 -16 25 -16 34 0 19 39 49 59 45 8 -2 35 -34 62 -73z m-4928 -101 c60 -14 53 -33 -48 -129 l-95 -90 0 -54 c0 -30 -7 -117 -15 -195 -16 -152 -30 -291 -41 -398 -8 -87 -18 -100 -63 -85 -56 19 -57 28 -37 209 10 90 22 210 26 268 4 58 11 113 15 123 19 46 -35 1 -220 -183 -111 -110 -210 -200 -219 -200 -17 0 -76 39 -76 50 0 3 160 162 355 353 256 251 360 347 373 343 9 -3 29 -8 45 -12z m4313 -402 c48 -97 133 -276 191 -397 57 -121 113 -236 123 -256 11 -20 20 -44 20 -52 0 -22 -39 -47 -72 -47 -32 0 -14 -33 -311 590 -138 289 -145 306 -129 324 23 25 54 35 74 25 10 -5 57 -89 104 -187z m-405 -12 c47 -26 122 -107 151 -164 40 -80 61 -183 52 -263 -5 -49 -15 -77 -43 -121 -21 -31 -44 -62 -52 -68 -43 -34 -142 -79 -199 -90 -58 -11 -72 -10 -131 7 -54 16 -74 28 -111 67 -86 93 -137 248 -123 374 9 75 23 105 78 165 42 46 91 76 162 100 47 15 181 11 216 -7z m-3538 -15 c147 -38 235 -117 263 -234 12 -54 12 -68 -6 -151 -37 -171 -119 -278 -246 -320 -76 -26 -127 -23 -202 11 -110 49 -159 112 -169 214 -7 78 12 177 38 201 21 19 27 18 299 -71 63 -21 126 -38 139 -39 29 -1 39 22 40 103 1 45 -5 63 -30 102 -41 65 -109 96 -243 112 -106 13 -119 21 -92 62 15 23 23 25 84 25 37 0 94 -7 125 -15z m777 -220 c23 -21 23 -18 90 -444 36 -223 39 -256 26 -269 -17 -17 -53 -11 -85 15 -19 16 -26 42 -46 183 -13 91 -30 203 -39 250 -8 47 -17 98 -18 114 -2 16 -8 31 -13 33 -9 3 -50 -60 -108 -167 -11 -19 -36 -64 -57 -100 -21 -36 -54 -96 -75 -135 -48 -88 -62 -105 -92 -105 -31 0 -63 17 -63 34 0 14 282 512 328 580 l26 38 54 -5 c30 -3 62 -13 72 -22z m388 -69 c10 -13 29 -60 41 -103 40 -141 31 -131 124 -137 45 -3 135 -8 199 -10 l118 -5 15 29 c9 17 29 67 46 112 16 45 35 88 41 96 7 8 28 12 57 10 64 -4 68 15 -74 -343 -24 -60 -60 -150 -80 -200 -82 -202 -95 -233 -121 -302 -36 -96 -49 -108 -116 -100 -31 4 -58 13 -65 23 -6 9 -33 82 -58 162 -56 176 -65 204 -143 442 -73 223 -103 330 -96 341 3 5 25 9 49 9 34 0 48 -5 63 -24z m1466 -269 c16 -45 -4 -55 -168 -79 l-149 -21 -13 18 c-32 44 -13 67 66 79 25 4 81 13 125 21 110 18 128 16 139 -18z"/>
<path d="M10484 15503 c-3 -10 -31 -76 -61 -148 -30 -71 -61 -143 -68 -160 -7 -16 -20 -49 -30 -73 -11 -25 -15 -46 -9 -51 12 -11 185 -31 263 -31 53 0 61 2 61 19 0 19 -48 196 -99 365 -26 89 -45 115 -57 79z"/>
<path d="M8435 15091 c-58 -10 -112 -49 -136 -99 -18 -36 -21 -56 -17 -120 12 -193 116 -323 242 -307 120 15 196 97 196 209 0 25 -11 80 -25 123 -47 149 -135 215 -260 194z"/>
<path d="M11901 14978 c-44 -22 -104 -91 -99 -116 2 -7 26 -22 53 -32 28 -10 99 -37 160 -60 121 -47 135 -46 147 11 19 85 -17 158 -95 194 -64 31 -109 31 -166 3z"/>
<path d="M7354 14629 c-47 -13 -90 -69 -113 -145 l-20 -67 18 -36 c10 -20 28 -54 41 -76 13 -22 33 -57 44 -79 26 -48 45 -60 125 -81 83 -21 121 -14 170 33 82 78 61 217 -55 365 -64 82 -131 109 -210 86z"/>
<path d="M13617 14178 c-52 -62 -104 -122 -116 -132 -11 -11 -21 -27 -21 -37 0 -23 85 -98 144 -128 87 -43 188 -11 250 78 30 43 35 119 12 174 -14 34 -142 157 -163 157 -6 0 -54 -51 -106 -112z"/>
<path d="M6869 13969 c-79 -56 -129 -125 -129 -180 0 -76 75 -138 144 -118 85 25 159 167 122 237 -15 29 -74 92 -86 92 -4 0 -27 -14 -51 -31z"/>
<path d="M5979 13850 c-14 -4 -36 -13 -50 -20 -32 -16 -149 -131 -149 -146 0 -18 262 -264 282 -264 21 0 102 92 128 146 47 95 9 198 -94 258 -50 29 -83 36 -117 26z"/>
<path d="M13812 13312 c-42 -40 -49 -74 -26 -131 16 -37 29 -51 68 -72 57 -31 128 -44 159 -28 28 14 97 80 97 92 0 18 -126 139 -159 153 -55 23 -104 18 -139 -14z"/>
<path d="M14408 12811 l-105 -69 -11 -57 c-23 -115 -7 -179 58 -223 31 -21 44 -23 105 -20 77 5 120 23 204 86 63 48 96 93 111 155 10 38 9 50 -5 78 -27 53 -54 77 -112 99 -96 36 -127 29 -245 -49z"/>
<path d="M5066 12127 c-76 -43 -108 -156 -67 -236 27 -52 75 -101 100 -101 15 0 28 14 47 51 22 45 114 266 114 276 0 2 -16 11 -35 19 -50 21 -113 17 -159 -9z"/>
<path d="M14965 11845 c-116 -36 -184 -89 -203 -158 -12 -43 0 -123 27 -175 41 -80 143 -113 254 -82 167 47 240 115 239 225 -1 83 -42 158 -103 189 -39 19 -155 20 -214 1z"/>
<path d="M4815 10615 c-16 -8 -93 -28 -170 -45 -77 -17 -153 -36 -169 -41 -16 -5 -40 -9 -53 -9 -15 0 -23 -5 -21 -12 4 -13 121 -74 263 -139 39 -18 92 -42 118 -55 27 -13 54 -21 61 -18 7 3 17 46 24 107 15 129 15 200 0 215 -14 14 -15 14 -53 -3z"/>
<path d="M12856 9974 c-15 -38 -5 -73 35 -123 42 -53 66 -71 94 -71 36 0 -16 142 -68 186 -33 28 -52 30 -61 8z"/>
<path d="M9213 9840 c-13 -5 -23 -13 -23 -18 0 -14 150 -122 170 -122 11 0 23 -7 28 -16 7 -13 16 -8 48 32 21 27 52 61 68 77 23 22 26 30 16 42 -10 12 -40 15 -149 14 -75 0 -146 -4 -158 -9z"/>
<path d="M9360 9649 c0 -5 5 -7 10 -4 6 3 10 8 10 11 0 2 -4 4 -10 4 -5 0 -10 -5 -10 -11z"/>
<path d="M9380 9558 c0 -16 88 -58 121 -58 14 0 30 -5 37 -12 9 -9 15 -9 24 0 7 7 22 12 35 12 13 0 23 4 23 9 0 5 -29 9 -65 9 -62 0 -126 19 -140 42 -9 14 -35 12 -35 -2z"/>
<path d="M15309 9828 c-1 -2 -3 -30 -4 -63 -2 -33 -6 -102 -10 -153 -5 -73 -3 -93 7 -97 24 -9 415 98 458 125 19 12 6 25 -40 38 -19 6 -84 31 -145 56 -112 47 -120 50 -188 80 -33 14 -75 21 -78 14z"/>
<path d="M15051 8193 c-29 -76 -57 -151 -63 -166 -12 -32 -7 -40 41 -56 49 -16 75 -14 126 11 87 42 124 157 79 243 -20 39 -94 105 -118 105 -6 0 -36 -62 -65 -137z"/>
<path d="M5180 8305 c-100 -27 -198 -98 -226 -163 -43 -105 24 -240 137 -273 51 -16 137 0 224 40 158 73 197 200 104 336 -40 58 -146 85 -239 60z"/>
<path d="M5768 7305 c-92 -25 -182 -90 -237 -170 -81 -117 -20 -233 139 -266 69 -14 82 -10 198 72 103 73 113 89 115 197 1 51 -4 75 -19 102 -37 63 -112 88 -196 65z"/>
<path d="M14189 6628 c-91 -110 -114 -177 -85 -253 24 -63 106 -135 155 -136 72 -2 96 3 138 33 45 30 123 121 123 141 0 11 -73 78 -225 206 -33 28 -62 51 -65 51 -3 0 -22 -19 -41 -42z"/>
<path d="M6231 6665 c-28 -26 -51 -55 -51 -64 0 -18 85 -104 139 -141 44 -30 111 -31 149 -3 15 11 33 38 41 59 12 36 12 44 -4 78 -23 47 -81 87 -143 97 -26 4 -55 10 -64 14 -12 5 -32 -7 -67 -40z"/>
<path d="M13400 6371 c-49 -25 -92 -99 -98 -164 -4 -49 -2 -55 39 -104 23 -29 48 -53 54 -53 21 0 142 118 160 156 35 73 1 153 -74 174 -46 13 -40 13 -81 -9z"/>
<path d="M6541 5909 c-48 -19 -79 -50 -105 -105 -29 -61 -29 -109 0 -166 18 -35 140 -138 163 -138 16 0 129 133 221 258 l24 32 -29 30 c-17 16 -57 45 -89 64 -48 29 -70 36 -110 35 -28 0 -62 -5 -75 -10z"/>
<path d="M12775 5883 c-115 -18 -148 -147 -75 -297 43 -87 121 -170 177 -186 89 -27 179 27 208 123 26 89 21 114 -44 216 -72 111 -80 121 -106 131 -28 10 -124 18 -160 13z"/>
<path d="M11738 5395 c-106 -56 -133 -153 -84 -299 37 -110 76 -162 142 -193 66 -30 106 -26 182 18 114 65 129 206 39 374 -43 80 -96 118 -174 122 -47 3 -67 -2 -105 -22z"/>
<path d="M8192 5095 c-16 -35 -15 -98 2 -140 16 -38 82 -90 127 -100 70 -16 153 20 197 85 40 60 33 67 -126 120 -78 26 -146 50 -149 54 -14 14 -41 4 -51 -19z"/>
<path d="M9735 4850 c-4 -12 12 -78 38 -163 49 -158 73 -238 83 -279 3 -16 10 -28 14 -28 16 0 194 445 184 461 -2 4 -57 10 -121 13 -65 4 -135 9 -155 11 -30 4 -38 2 -43 -15z"/>
<path d="M10155 1809 c-22 -12 -49 -29 -60 -39 -20 -18 -466 -318 -990 -667 -360 -239 -365 -243 -365 -265 0 -12 12 -20 38 -27 57 -15 305 -51 427 -62 61 -5 124 -12 140 -14 89 -15 448 -35 720 -41 449 -9 944 16 1320 67 44 6 127 17 184 24 99 13 120 22 121 51 0 7 -125 95 -277 197 -304 203 -968 649 -1102 740 -46 31 -91 57 -100 57 -9 0 -34 -9 -56 -21z"/>
</g>
</g>
</svg>
