<?xml version="1.0" standalone="no"?>
<!DOCTYPE svg PUBLIC "-//W3C//DTD SVG 1.1//EN"
 "http://www.w3.org/Graphics/SVG/1.1/DTD/svg11.dtd">
<!-- Created with svg_stack (http://github.com/astraw/svg_stack) -->
<svg xmlns:sodipodi="http://sodipodi.sourceforge.net/DTD/sodipodi-0.dtd" xmlns="http://www.w3.org/2000/svg" version="1.1" width="673.0" height="582.0">
  <defs/>
  <g id="id0:id0" transform="matrix(1.25,0,0,1.25,0.0,0.0)"><g transform="translate(0.000000,465.600000) scale(0.040000,-0.040000)" fill="#e6212e" stroke="none">
<path d="M3612 11449 c-89 -44 -162 -175 -231 -414 -25 -89 -66 -343 -76 -475 -6 -76 -19 -109 -31 -74 -34 106 -83 183 -135 209 -116 60 -232 -83 -274 -337 -8 -51 -19 -54 -45 -14 -30 49 -121 130 -176 156 -77 38 -177 52 -259 39 -94 -16 -198 -62 -193 -86 4 -19 5 -19 119 -7 53 6 58 4 94 -27 111 -98 165 -297 185 -684 21 -394 38 -619 53 -680 3 -11 11 -47 17 -80 55 -270 178 -407 263 -292 59 79 73 262 61 787 -14 628 -11 939 9 1035 20 90 39 125 67 125 33 0 59 -96 86 -315 35 -286 50 -403 59 -440 56 -247 97 -332 157 -323 17 2 26 13 35 43 20 65 32 268 38 615 7 399 19 594 50 814 36 249 75 350 143 370 41 11 52 2 63 -56 23 -119 2 -380 -111 -1363 -14 -124 -17 -167 -29 -425 -6 -124 -13 -250 -15 -280 -5 -71 11 -319 25 -390 31 -153 112 -282 185 -296 107 -20 168 88 340 606 36 107 69 199 75 205 6 6 19 -2 36 -25 44 -57 105 -110 158 -138 43 -22 63 -26 140 -26 112 0 160 21 253 108 110 104 217 284 291 491 54 151 58 162 70 170 23 13 23 -34 1 -293 -15 -167 -23 -344 -23 -472 0 -181 2 -214 22 -284 28 -100 54 -150 99 -192 66 -61 143 -70 196 -24 56 50 146 287 207 545 6 22 14 56 18 75 16 68 52 236 61 285 16 86 49 236 55 245 11 17 96 43 106 33 10 -10 4 -117 -22 -408 -5 -55 -12 -188 -15 -295 -6 -177 -4 -204 16 -299 24 -114 44 -157 98 -214 48 -51 81 -67 135 -67 34 0 49 6 70 28 60 63 142 274 197 512 42 178 71 285 79 293 6 6 20 -7 35 -29 59 -91 107 -124 179 -124 47 0 54 3 97 48 82 85 190 325 248 550 15 59 32 109 37 112 41 21 117 -338 137 -640 6 -102 9 -196 5 -210 -4 -14 -73 -95 -154 -181 -278 -293 -372 -409 -441 -549 l-47 -95 1 -105 c1 -113 10 -145 66 -233 124 -195 436 -107 626 178 105 158 159 304 202 549 12 68 13 428 1 530 l-7 69 45 60 c133 174 226 334 272 470 17 51 20 70 11 79 -18 18 -38 -6 -72 -90 -47 -114 -162 -302 -228 -374 -31 -34 -47 -24 -55 35 -6 39 -16 88 -37 177 -51 214 -148 408 -237 475 -42 33 -94 43 -111 22 -7 -8 -50 -125 -96 -259 -101 -294 -161 -447 -186 -472 l-18 -18 -12 23 c-30 54 -21 300 20 549 35 219 35 236 7 273 -49 65 -185 111 -215 74 -13 -15 -84 -296 -101 -398 -6 -37 -11 -121 -11 -187 0 -153 -41 -366 -137 -712 -8 -30 -18 -68 -23 -85 -27 -105 -73 -201 -90 -190 -18 11 -10 111 36 485 10 80 17 216 17 335 2 212 -4 246 -55 336 -23 42 -91 89 -128 89 -31 0 -137 -33 -193 -60 -49 -24 -53 -15 -38 86 23 156 8 287 -39 329 -25 22 -79 13 -107 -18 -73 -79 -104 -257 -67 -383 18 -61 55 -111 86 -116 35 -5 44 -30 29 -90 -6 -29 -21 -89 -31 -133 -10 -44 -31 -129 -45 -190 -106 -448 -163 -620 -197 -599 -11 7 -6 88 18 299 40 347 52 608 34 709 -42 225 -132 276 -339 192 -37 -15 -63 -21 -67 -15 -3 6 -3 79 1 162 4 96 2 165 -4 186 -25 80 -94 106 -143 54 -60 -66 -78 -127 -78 -269 0 -88 4 -122 19 -156 30 -69 50 -82 120 -74 35 4 62 3 65 -3 16 -25 -102 -288 -188 -421 -111 -171 -201 -225 -301 -181 -50 22 -91 77 -125 168 -33 89 -32 91 80 167 186 127 245 217 218 335 -17 79 -74 136 -143 146 -93 12 -198 -38 -292 -139 -99 -105 -132 -191 -139 -358 -3 -97 -10 -135 -50 -268 -126 -430 -220 -661 -271 -668 -55 -8 -74 78 -80 373 -8 381 21 780 128 1725 9 87 24 224 35 342 8 76 -8 171 -38 230 -22 46 -106 98 -158 98 -19 0 -54 -10 -78 -21z m1365 -1134 c10 -40 10 -74 -2 -179 -16 -144 -27 -169 -64 -139 -55 45 -53 262 4 349 25 38 48 27 62 -31z m-365 -356 c24 -50 13 -91 -41 -151 -49 -55 -188 -151 -204 -141 -5 3 -7 39 -3 87 11 134 66 220 156 244 47 12 72 2 92 -39z m2528 -1020 c0 -208 -64 -517 -135 -660 -65 -128 -130 -181 -225 -183 -52 -1 -62 2 -89 29 -69 65 -70 217 -4 350 25 48 92 144 151 215 107 128 286 319 294 314 4 -3 8 -32 8 -65z"/>
<path d="M10945 10926 c-62 -28 -102 -103 -90 -169 10 -49 62 -97 114 -104 23 -3 44 -10 47 -14 8 -14 93 49 115 84 71 118 -59 259 -186 203z"/>
<path d="M2467 8790 c-128 -32 -255 -158 -338 -335 -37 -79 -54 -131 -86 -265 -18 -75 -21 -446 -4 -534 5 -28 14 -91 21 -141 48 -367 159 -615 277 -615 20 0 56 9 79 21 38 18 45 27 58 74 9 29 16 88 16 132 0 92 24 310 44 404 19 87 66 180 103 200 136 78 150 -30 61 -466 -59 -289 -75 -404 -84 -593 -12 -246 36 -450 122 -523 115 -97 209 12 304 351 7 25 16 56 20 70 4 14 12 48 18 75 6 28 16 73 21 100 12 55 34 188 57 335 21 143 20 139 70 162 67 29 70 25 62 -78 -15 -211 -29 -638 -24 -739 9 -148 35 -222 98 -281 41 -38 90 -58 122 -50 16 4 35 23 51 51 32 54 85 208 114 330 12 50 26 106 31 125 4 19 13 53 18 75 6 22 13 59 17 82 4 23 13 47 20 53 12 10 19 1 40 -47 48 -107 125 -164 194 -142 84 26 152 98 228 239 35 66 95 206 118 275 19 57 41 95 55 95 5 0 31 -34 57 -76 27 -42 81 -126 121 -187 96 -145 152 -240 152 -255 0 -7 -30 -47 -66 -90 -115 -133 -146 -234 -105 -336 25 -61 51 -88 100 -105 28 -9 41 -8 77 8 72 32 124 99 164 211 31 86 33 248 5 328 l-18 54 109 109 c59 60 112 105 116 101 5 -5 13 -37 19 -73 34 -203 101 -415 164 -514 101 -160 201 -153 311 21 53 84 59 96 99 187 14 34 30 57 37 55 6 -2 18 -33 25 -69 44 -216 62 -269 111 -321 34 -37 83 -38 118 -3 47 47 62 103 69 252 11 226 76 545 123 603 34 42 45 6 54 -178 9 -201 18 -264 44 -299 25 -33 38 -38 56 -20 19 20 34 76 48 182 23 183 107 413 183 500 62 71 67 37 26 -175 -10 -53 -22 -119 -43 -250 -9 -52 -20 -123 -26 -156 -37 -223 19 -485 116 -549 38 -25 107 -20 143 11 42 35 99 157 160 341 27 84 60 171 71 193 20 40 23 42 55 36 45 -9 96 13 124 53 13 17 26 29 30 27 4 -3 13 -38 20 -78 13 -73 39 -155 65 -207 40 -76 124 -121 187 -99 86 29 145 105 254 323 44 88 85 160 90 160 12 0 111 -143 154 -224 l32 -60 -71 -83 c-85 -101 -120 -169 -120 -236 0 -68 26 -137 68 -178 47 -45 102 -47 155 -6 145 115 197 320 136 534 l-13 47 120 123 c167 171 240 279 260 383 13 71 -28 34 -68 -61 -15 -34 -47 -89 -72 -121 -54 -72 -241 -258 -258 -258 -7 0 -42 52 -78 116 -36 63 -92 162 -125 220 -108 189 -105 265 12 354 37 28 55 35 93 35 38 0 51 -5 75 -30 18 -19 39 -30 57 -30 76 0 43 110 -50 166 -158 95 -387 17 -471 -161 -42 -89 -23 -190 69 -359 l43 -80 -27 -80 c-42 -123 -130 -295 -178 -350 -33 -37 -50 -49 -73 -48 -62 0 -82 74 -71 258 3 57 9 150 12 207 6 93 4 107 -15 145 -12 23 -34 48 -51 57 -60 31 -84 0 -164 -215 -36 -95 -78 -170 -97 -170 -41 0 -29 168 21 291 42 100 70 146 123 198 39 37 52 44 86 44 23 0 55 -9 76 -22 47 -27 75 -28 75 0 0 37 -32 89 -77 126 -40 33 -50 36 -103 36 -136 0 -287 -127 -362 -305 -39 -93 -44 -219 -14 -309 l19 -56 -22 -89 c-56 -221 -151 -467 -195 -503 -19 -16 -53 -6 -69 22 -26 46 -11 307 34 572 5 33 14 87 20 120 5 33 12 132 15 220 5 141 3 164 -13 195 -38 73 -124 63 -208 -23 -67 -69 -119 -183 -165 -362 -7 -27 -15 -54 -18 -59 -10 -18 -32 29 -32 67 0 93 -58 207 -105 207 -34 0 -75 -43 -113 -118 -21 -42 -41 -88 -45 -102 -12 -45 -25 -8 -32 85 -9 111 -26 174 -65 236 -41 63 -88 98 -153 111 -60 13 -125 4 -134 -18 -3 -8 0 -38 6 -67 18 -78 40 -281 41 -377 1 -96 -33 -227 -99 -380 -124 -286 -201 -241 -250 145 -23 187 -35 527 -23 691 11 158 27 291 41 349 l7 30 76 -4 c75 -3 118 3 118 18 0 15 -72 41 -114 41 -62 0 -70 13 -56 102 6 40 15 116 20 168 6 52 13 101 15 109 8 22 -15 94 -42 129 -13 18 -42 44 -64 59 -37 24 -40 25 -58 9 -25 -23 -51 -96 -81 -231 -6 -27 -15 -66 -20 -85 -4 -19 -16 -79 -25 -132 -10 -54 -23 -102 -30 -108 -8 -6 -40 -14 -72 -17 -67 -7 -113 -27 -113 -50 0 -13 12 -15 86 -11 47 2 87 1 90 -4 3 -4 -2 -74 -11 -155 -12 -103 -16 -211 -13 -355 l3 -208 -114 -114 c-63 -63 -118 -113 -122 -110 -4 2 -31 46 -60 97 -29 50 -81 140 -116 199 -115 193 -127 238 -82 317 36 63 96 108 155 117 41 6 47 4 84 -30 44 -40 61 -44 84 -20 20 19 20 37 2 72 -47 89 -191 149 -293 122 -175 -48 -267 -152 -284 -324 -16 -154 -156 -506 -237 -593 -63 -69 -109 -55 -133 40 -11 47 -10 139 7 449 5 85 3 126 -6 148 -29 70 -130 121 -169 86 -19 -17 -32 -91 -52 -291 -15 -160 -64 -415 -138 -735 -28 -119 -74 -253 -86 -249 -12 5 -10 140 4 259 26 220 33 339 29 505 -3 163 -6 185 -28 239 -14 33 -37 68 -52 79 -38 28 -118 26 -191 -7 -33 -14 -59 -21 -63 -15 -3 5 -2 54 1 109 10 138 0 226 -30 256 -32 32 -51 30 -90 -9 -45 -45 -68 -126 -67 -241 1 -106 16 -153 68 -200 l34 -31 -10 -60 c-59 -331 -74 -407 -112 -560 -69 -275 -104 -360 -149 -360 -35 0 -56 51 -70 170 -15 125 -6 455 16 615 9 63 20 147 26 185 51 365 40 531 -40 598 -38 32 -108 43 -153 24 -95 -40 -168 -208 -195 -452 -10 -87 -31 -96 -51 -20 -23 90 -62 285 -83 413 l-12 74 40 41 c184 197 330 406 378 542 29 83 35 130 25 184 -20 102 -52 161 -102 187 -35 18 -124 25 -171 14z m177 -160 c24 -23 31 -92 16 -163 -13 -63 -101 -218 -190 -332 -81 -105 -173 -206 -180 -197 -4 4 -3 68 1 142 13 265 85 465 192 536 72 47 122 52 161 14z m2099 -2044 c7 -46 -18 -169 -45 -219 -45 -81 -109 -51 -111 51 -1 54 25 106 88 180 42 48 59 45 68 -12z m3292 -94 c-1 -72 -5 -96 -27 -144 -41 -89 -93 -99 -118 -23 -22 67 -1 125 87 233 47 58 58 45 58 -66z"/>
<path d="M1367 8246 c-119 -49 -203 -139 -282 -301 -109 -224 -146 -448 -121 -720 8 -82 18 -161 21 -175 3 -14 11 -45 17 -70 47 -200 149 -398 267 -518 69 -69 115 -92 186 -92 73 0 118 23 189 100 56 61 136 207 170 310 57 176 124 469 111 490 -11 18 -25 11 -36 -17 -6 -16 -26 -91 -44 -169 -54 -230 -106 -366 -181 -480 -48 -73 -83 -96 -145 -97 -44 -1 -53 3 -90 39 -150 142 -246 628 -205 1034 23 236 67 377 147 473 64 78 181 106 247 59 43 -31 65 -78 91 -192 31 -133 35 -145 51 -145 12 0 15 15 13 80 -5 191 -92 347 -220 395 -70 26 -115 25 -186 -4z"/>
<path d="M3796 7974 c-9 -8 -16 -27 -16 -42 1 -104 40 -159 134 -186 101 -29 128 -8 100 77 -19 56 -73 116 -133 147 -48 24 -65 25 -85 4z"/>
</g>
</g>
  <g id="id1:id1" transform="matrix(1.25,0,0,1.25,0.0,0.0)"><g transform="translate(0.000000,465.600000) scale(0.040000,-0.040000)" fill="#000000" stroke="none">
<path d="M10780 10650 l-84 -80 -62 0 c-78 0 -136 -24 -189 -80 -74 -78 -125 -87 -241 -45 -70 25 -100 30 -128 19 -33 -13 -13 -45 88 -138 107 -100 123 -124 151 -216 21 -69 56 -140 93 -188 16 -20 53 -82 82 -137 29 -55 60 -113 69 -130 27 -51 20 -139 -19 -215 -46 -92 -128 -238 -160 -285 -15 -22 -53 -85 -85 -140 -137 -235 -201 -328 -344 -495 -110 -128 -137 -220 -143 -485 l-3 -130 40 -50 c104 -129 182 -213 240 -260 73 -58 177 -118 243 -140 24 -9 54 -21 66 -28 24 -13 82 -76 109 -119 24 -38 145 -75 196 -59 40 12 84 64 123 144 l23 49 -28 23 -29 22 27 51 c21 40 24 55 16 71 -16 29 -43 34 -92 16 l-44 -15 -48 52 c-57 64 -68 99 -57 176 12 86 48 147 142 239 94 92 168 136 307 183 127 43 246 123 255 171 5 27 34 87 46 94 6 4 21 28 31 53 11 26 29 55 39 64 28 26 79 103 100 151 25 57 74 122 105 143 29 19 89 20 173 3 39 -8 62 -7 90 1 40 13 126 91 169 153 l26 37 -18 43 c-10 23 -26 48 -34 55 -21 17 -103 6 -146 -20 -20 -11 -36 -15 -39 -9 -4 6 -8 50 -10 98 -4 93 -20 179 -37 200 -6 7 -8 16 -5 21 3 5 -3 21 -14 35 -15 18 -20 40 -20 83 0 47 -6 66 -31 106 -59 92 -140 156 -447 355 -28 19 -87 51 -130 73 -99 48 -152 104 -152 158 0 20 12 80 25 131 25 95 30 138 19 178 -4 16 -16 23 -51 28 -30 4 -55 16 -75 36 -17 16 -34 29 -38 29 -3 0 -44 -36 -90 -80z"/>
<path d="M9324 7766 c-49 -35 -102 -75 -118 -87 -17 -14 -41 -22 -60 -21 -17 1 -49 2 -71 3 -62 4 -117 -17 -181 -66 -70 -55 -113 -59 -201 -19 -87 39 -138 53 -157 42 -27 -15 -19 -31 50 -109 93 -105 136 -172 145 -227 16 -99 50 -204 74 -232 7 -8 25 -46 40 -85 15 -38 35 -88 45 -110 43 -98 53 -144 41 -192 -22 -86 -45 -121 -281 -427 -233 -301 -265 -338 -425 -496 -166 -162 -181 -189 -223 -400 -6 -30 -15 -79 -21 -108 -15 -74 -14 -94 9 -147 35 -81 151 -248 220 -315 66 -64 167 -138 246 -179 47 -25 85 -62 111 -111 29 -56 59 -90 79 -90 11 0 33 -9 49 -20 64 -43 118 -21 197 80 48 61 54 85 29 107 -26 22 -26 27 3 66 35 48 40 71 16 92 -16 15 -30 17 -74 11 l-55 -6 -24 32 c-59 79 -69 132 -43 220 21 68 59 120 129 175 147 115 188 134 366 169 83 16 191 62 237 101 12 10 32 38 44 62 12 24 39 60 61 81 21 20 39 43 39 51 0 8 25 39 56 69 30 30 70 78 89 105 42 64 115 132 151 141 17 4 57 -2 107 -16 70 -21 85 -22 126 -11 61 16 148 76 185 128 l29 42 -14 37 c-16 43 -57 77 -91 77 -14 0 -41 -8 -61 -18 -49 -23 -64 -16 -59 26 9 77 9 187 0 224 -5 22 -10 49 -11 60 -2 11 -7 28 -13 39 -7 11 -9 46 -6 85 4 55 0 75 -18 115 -29 60 -156 196 -275 293 -49 40 -111 92 -138 115 -26 23 -73 58 -105 78 -81 52 -118 90 -132 136 -11 36 -9 48 29 150 50 136 55 220 17 294 -33 66 -54 65 -162 -14z"/>
<path d="M6933 5668 c-15 -16 -25 -48 -33 -103 -36 -248 -40 -255 -112 -217 -24 12 -68 40 -98 62 -82 59 -140 49 -106 -18 7 -15 18 -49 25 -76 6 -26 30 -91 52 -142 22 -52 47 -130 55 -172 8 -42 19 -99 25 -127 6 -27 15 -72 21 -100 5 -27 14 -68 19 -90 5 -22 14 -80 19 -129 13 -125 0 -152 -138 -287 -182 -177 -467 -431 -575 -513 -23 -17 -76 -52 -117 -78 -182 -114 -234 -186 -336 -468 -32 -88 -30 -115 15 -233 22 -56 46 -136 55 -178 8 -41 22 -95 31 -120 97 -261 107 -464 33 -649 -27 -69 -54 -147 -88 -258 -17 -53 -7 -65 41 -52 47 13 120 66 160 115 32 41 109 194 171 340 22 54 39 81 52 83 12 3 40 -17 80 -56 106 -103 116 -103 239 15 50 49 56 66 31 94 -15 17 -12 22 50 80 89 83 88 97 -6 144 -39 19 -77 35 -83 35 -6 0 -24 13 -40 30 l-28 29 22 73 c12 40 26 84 31 98 4 14 13 43 19 66 31 116 220 207 431 209 174 2 228 20 317 109 94 93 135 130 173 156 19 13 65 50 101 82 37 32 69 58 72 58 4 0 40 -20 80 -45 122 -74 174 -73 259 4 29 26 68 53 87 61 18 7 60 33 93 58 l60 44 -6 46 c-9 70 -25 81 -120 84 l-81 3 3 30 c2 16 8 35 13 41 15 19 30 161 26 244 -3 52 0 97 9 127 23 76 18 102 -40 202 -86 152 -172 259 -378 476 -49 50 -88 98 -88 107 0 8 15 26 34 39 19 13 46 41 60 63 l26 40 0 136 c0 138 -16 235 -42 251 -19 12 -51 2 -177 -57 -63 -30 -122 -54 -131 -54 -26 0 -43 25 -104 146 -51 105 -99 164 -130 164 -7 0 -22 -10 -33 -22z"/>
<path d="M3127 2994 c-3 -3 -82 -10 -174 -16 l-168 -9 -74 -42 c-41 -23 -107 -72 -147 -109 -57 -52 -85 -71 -128 -83 -72 -21 -117 -52 -139 -97 -22 -45 -15 -78 26 -117 42 -42 102 -50 160 -22 56 27 64 27 154 -10 65 -28 77 -37 90 -68 16 -39 60 -91 78 -91 6 0 20 -7 32 -15 l22 -15 -35 -63 c-20 -34 -39 -69 -44 -77 -10 -19 -57 -15 -125 11 -32 12 -75 19 -119 19 l-69 0 -65 66 c-93 94 -149 119 -272 119 l-95 -1 -141 -57 -141 -56 -64 18 c-35 11 -86 26 -114 34 -78 23 -142 29 -180 17 -43 -14 -70 -77 -63 -145 3 -24 2 -80 -2 -123 -9 -89 -1 -146 21 -150 8 -1 57 23 109 55 83 50 101 57 147 57 78 0 73 9 139 -239 26 -98 29 -131 14 -140 -5 -3 -38 6 -72 22 -54 24 -76 28 -153 28 -54 0 -104 -6 -125 -14 -110 -44 -155 -170 -91 -257 15 -22 43 -52 61 -68 30 -25 39 -27 89 -23 31 2 74 9 96 15 36 10 42 9 64 -11 52 -48 83 -152 178 -602 9 -45 40 -107 68 -138 84 -90 234 -89 464 2 64 26 81 22 81 -17 0 -37 -20 -54 -105 -92 -145 -65 -236 -114 -246 -133 -14 -25 -3 -80 20 -101 20 -18 28 -17 126 24 17 7 127 52 245 100 185 75 401 165 735 305 44 18 148 61 230 95 265 110 1554 656 1663 706 29 13 55 24 57 24 2 0 37 16 78 35 51 24 78 43 87 63 48 98 53 177 16 250 -48 94 -114 136 -213 136 -59 1 -64 -1 -101 -37 -47 -46 -40 -53 -105 103 -91 216 -105 278 -74 318 16 20 26 14 58 -38 38 -62 73 -69 119 -24 20 19 25 34 25 72 0 39 -6 55 -34 91 -50 63 -78 72 -176 56 -86 -14 -139 -30 -253 -77 -40 -17 -87 -31 -105 -32 -30 -1 -33 2 -45 44 -44 156 -45 156 -240 171 -159 12 -178 7 -225 -54 -30 -39 -119 -85 -182 -94 -39 -5 -48 -2 -106 42 -35 25 -86 61 -114 78 -38 25 -58 48 -88 102 -60 109 -83 126 -177 129 l-35 1 -6 49 c-4 38 -12 55 -37 77 -30 27 -70 38 -85 23z m1965 -1189 c22 -3 42 -14 48 -25 20 -37 -41 -81 -260 -189 -128 -64 -173 -77 -205 -63 -37 17 -30 38 23 68 101 57 210 133 252 177 48 50 41 48 142 32z m-610 -331 c11 -23 10 -28 -7 -41 -11 -7 -31 -13 -45 -11 -34 4 -39 41 -8 62 32 22 47 20 60 -10z m-275 -127 c-25 -38 -50 -50 -697 -329 -289 -125 -509 -215 -592 -243 -47 -15 -59 -16 -72 -6 -25 21 -20 29 42 60 112 57 1212 524 1302 554 25 8 34 -10 17 -36z m-1533 -646 c19 -21 9 -35 -36 -46 -33 -8 -46 12 -28 44 13 26 42 27 64 2z"/>
</g>
</g>
  <g id="id2:id2" transform="matrix(1.25,0,0,1.25,0.0,0.0)"><g transform="translate(0.000000,465.600000) scale(0.040000,-0.040000)" fill="#f2f4f8" stroke="none">
<path d="M3620 11450 c0 -5 5 -10 10 -10 6 0 10 5 10 10 0 6 -4 10 -10 10 -5 0 -10 -4 -10 -10z"/>
<path d="M3640 11412 c0 -5 7 -13 16 -16 10 -4 14 -1 12 6 -5 15 -28 23 -28 10z"/>
<path d="M3566 11364 c-40 -48 -24 -56 19 -10 39 43 41 46 23 45 -7 0 -26 -16 -42 -35z"/>
<path d="M3500 11210 c0 -16 5 -30 10 -30 6 0 10 14 10 30 0 17 -4 30 -10 30 -5 0 -10 -13 -10 -30z"/>
<path d="M3696 11138 c-12 -95 -17 -294 -8 -278 9 15 26 330 18 330 -2 0 -7 -24 -10 -52z"/>
<path d="M3480 11110 c0 -22 5 -40 10 -40 6 0 10 18 10 40 0 22 -4 40 -10 40 -5 0 -10 -18 -10 -40z"/>
<path d="M3400 11110 c0 -5 5 -10 10 -10 6 0 10 5 10 10 0 6 -4 10 -10 10 -5 0 -10 -4 -10 -10z"/>
<path d="M3460 10951 c0 -33 -4 -70 -9 -83 -4 -13 -11 -115 -14 -228 -3 -113 -4 -198 -2 -190 14 64 26 175 31 280 2 69 7 160 10 203 4 52 2 77 -5 77 -7 0 -11 -24 -11 -59z"/>
<path d="M3360 10950 c0 -5 5 -10 10 -10 6 0 10 5 10 10 0 6 -4 10 -10 10 -5 0 -10 -4 -10 -10z"/>
<path d="M10960 10930 c0 -5 5 -10 10 -10 6 0 10 5 10 10 0 6 -4 10 -10 10 -5 0 -10 -4 -10 -10z"/>
<path d="M3840 10865 c0 -14 5 -25 10 -25 6 0 10 11 10 25 0 14 -4 25 -10 25 -5 0 -10 -11 -10 -25z"/>
<path d="M3340 10850 c0 -16 5 -30 10 -30 6 0 10 14 10 30 0 17 -4 30 -10 30 -5 0 -10 -13 -10 -30z"/>
<path d="M3667 10813 c-11 -10 -8 -143 3 -143 6 0 10 32 10 75 0 75 -1 81 -13 68z"/>
<path d="M3320 10735 c0 -14 5 -25 10 -25 6 0 10 11 10 25 0 14 -4 25 -10 25 -5 0 -10 -11 -10 -25z"/>
<path d="M10845 10735 c-3 -8 -7 -22 -10 -31 -5 -15 -3 -15 17 -2 13 9 24 23 26 32 4 20 -27 22 -33 1z"/>
<path d="M3820 10670 c0 -22 5 -40 10 -40 6 0 10 18 10 40 0 22 -4 40 -10 40 -5 0 -10 -18 -10 -40z"/>
<path d="M11020 10625 c0 -19 3 -35 8 -35 4 0 12 16 18 35 10 31 9 35 -7 35 -15 0 -19 -8 -19 -35z"/>
<path d="M2960 10629 c0 -5 5 -7 10 -4 6 3 10 8 10 11 0 2 -4 4 -10 4 -5 0 -10 -5 -10 -11z"/>
<path d="M3070 10632 c0 -5 7 -17 15 -28 8 -10 15 -31 15 -46 0 -16 5 -28 10 -28 13 0 13 35 1 58 -5 9 -12 25 -15 35 -5 17 -26 24 -26 9z"/>
<path d="M3000 10590 c0 -5 5 -10 10 -10 6 0 10 5 10 10 0 6 -4 10 -10 10 -5 0 -10 -4 -10 -10z"/>
<path d="M3640 10555 c0 -25 5 -45 10 -45 6 0 10 20 10 45 0 25 -4 45 -10 45 -5 0 -10 -20 -10 -45z"/>
<path d="M3300 10545 c0 -19 5 -35 10 -35 6 0 10 16 10 35 0 19 -4 35 -10 35 -5 0 -10 -16 -10 -35z"/>
<path d="M10680 10570 c0 -5 7 -10 15 -10 8 0 15 5 15 10 0 6 -7 10 -15 10 -8 0 -15 -4 -15 -10z"/>
<path d="M2975 10508 c-11 -66 -17 -838 -6 -838 8 0 15 153 25 653 5 213 -2 283 -19 185z"/>
<path d="M3800 10495 c0 -30 5 -55 10 -55 6 0 10 25 10 55 0 30 -4 55 -10 55 -5 0 -10 -25 -10 -55z"/>
<path d="M3120 10466 c0 -25 5 -46 10 -46 6 0 10 18 10 39 0 22 -4 43 -10 46 -6 4 -10 -12 -10 -39z"/>
<path d="M11000 10460 c0 -5 5 -10 10 -10 6 0 10 5 10 10 0 6 -4 10 -10 10 -5 0 -10 -4 -10 -10z"/>
<path d="M2240 10450 c0 -5 9 -10 20 -10 11 0 20 5 20 10 0 6 -9 10 -20 10 -11 0 -20 -4 -20 -10z"/>
<path d="M2360 10450 c0 -5 5 -10 10 -10 6 0 10 5 10 10 0 6 -4 10 -10 10 -5 0 -10 -4 -10 -10z"/>
<path d="M10375 10440 c-16 -10 -47 -19 -67 -19 -47 -1 -51 -21 -4 -21 34 0 116 37 116 52 0 12 -11 9 -45 -12z"/>
<path d="M3293 10443 c-19 -7 -17 -83 2 -83 11 0 15 12 15 45 0 25 -1 45 -2 44 -2 0 -9 -3 -15 -6z"/>
<path d="M2400 10433 c0 -13 29 -38 35 -31 3 3 -4 13 -15 23 -11 10 -20 13 -20 8z"/>
<path d="M3420 10260 c0 -107 4 -170 10 -170 6 0 10 63 10 170 0 107 -4 170 -10 170 -6 0 -10 -63 -10 -170z"/>
<path d="M3620 10359 c0 -31 4 -48 10 -44 6 3 10 26 10 51 0 24 -4 44 -10 44 -5 0 -10 -23 -10 -51z"/>
<path d="M4852 10380 c-7 -11 -9 -20 -4 -20 10 0 32 22 32 32 0 15 -15 8 -28 -12z"/>
<path d="M10980 10380 c0 -11 5 -20 10 -20 6 0 10 9 10 20 0 11 -4 20 -10 20 -5 0 -10 -9 -10 -20z"/>
<path d="M3140 10335 c0 -19 5 -35 10 -35 6 0 10 16 10 35 0 19 -4 35 -10 35 -5 0 -10 -16 -10 -35z"/>
<path d="M4960 10356 c0 -8 5 -18 11 -21 5 -4 9 -23 8 -43 -5 -70 1 -142 11 -142 15 0 12 161 -2 193 -14 29 -28 36 -28 13z"/>
<path d="M2473 10335 c11 -23 27 -34 27 -17 -1 9 -26 42 -33 42 -3 0 0 -11 6 -25z"/>
<path d="M2860 10345 c0 -8 -5 -24 -12 -35 -16 -26 -2 -39 17 -14 16 22 20 64 5 64 -5 0 -10 -7 -10 -15z"/>
<path d="M4900 10350 c0 -5 5 -10 10 -10 6 0 10 5 10 10 0 6 -4 10 -10 10 -5 0 -10 -4 -10 -10z"/>
<path d="M5020 10350 c0 -5 5 -10 10 -10 6 0 10 5 10 10 0 6 -4 10 -10 10 -5 0 -10 -4 -10 -10z"/>
<path d="M10140 10352 c0 -4 32 -39 70 -77 39 -38 70 -75 70 -82 0 -7 5 -13 10 -13 27 0 3 42 -62 107 -68 69 -88 83 -88 65z"/>
<path d="M3780 10300 c0 -27 5 -50 10 -50 6 0 10 23 10 50 0 28 -4 50 -10 50 -5 0 -10 -22 -10 -50z"/>
<path d="M4880 10310 c0 -5 5 -10 10 -10 6 0 10 5 10 10 0 6 -4 10 -10 10 -5 0 -10 -4 -10 -10z"/>
<path d="M5580 10310 c0 -5 5 -10 10 -10 6 0 10 5 10 10 0 6 -4 10 -10 10 -5 0 -10 -4 -10 -10z"/>
<path d="M6460 10285 c0 -8 5 -15 10 -15 6 0 10 7 10 15 0 8 -4 15 -10 15 -5 0 -10 -7 -10 -15z"/>
<path d="M10980 10297 c0 -2 7 -17 15 -34 14 -28 112 -103 135 -103 22 0 7 17 -48 53 -32 20 -65 48 -72 62 -11 21 -30 34 -30 22z"/>
<path d="M2500 10270 c0 -5 5 -10 10 -10 6 0 10 5 10 10 0 6 -4 10 -10 10 -5 0 -10 -4 -10 -10z"/>
<path d="M4861 10153 c1 -122 15 -161 63 -174 l28 -8 -36 35 -36 35 0 109 c0 67 -4 110 -10 110 -6 0 -10 -42 -9 -107z"/>
<path d="M3600 10184 c0 -34 4 -53 10 -49 6 3 10 28 10 56 0 27 -4 49 -10 49 -5 0 -10 -25 -10 -56z"/>
<path d="M6440 10215 c0 -14 5 -25 10 -25 6 0 10 11 10 25 0 14 -4 25 -10 25 -5 0 -10 -11 -10 -25z"/>
<path d="M2520 10211 c0 -11 5 -23 10 -26 6 -4 10 5 10 19 0 14 -4 26 -10 26 -5 0 -10 -9 -10 -19z"/>
<path d="M6700 10180 c0 -11 5 -20 10 -20 6 0 10 9 10 20 0 11 -4 20 -10 20 -5 0 -10 -9 -10 -20z"/>
<path d="M3160 10170 c0 -11 5 -20 10 -20 6 0 10 9 10 20 0 11 -4 20 -10 20 -5 0 -10 -9 -10 -20z"/>
<path d="M7020 10170 c0 -5 5 -10 10 -10 6 0 10 5 10 10 0 6 -4 10 -10 10 -5 0 -10 -4 -10 -10z"/>
<path d="M2540 10133 c0 -22 4 -43 9 -48 10 -11 19 -92 27 -242 3 -59 10 -103 15 -103 17 0 -4 315 -22 335 -5 5 -9 26 -9 46 0 21 -4 41 -10 44 -6 4 -10 -9 -10 -32z"/>
<path d="M6420 10140 c0 -16 5 -30 10 -30 6 0 10 14 10 30 0 17 -4 30 -10 30 -5 0 -10 -13 -10 -30z"/>
<path d="M10300 10150 c0 -5 5 -10 10 -10 6 0 10 5 10 10 0 6 -4 10 -10 10 -5 0 -10 -4 -10 -10z"/>
<path d="M3760 10100 c0 -27 5 -50 10 -50 6 0 10 23 10 50 0 28 -4 50 -10 50 -5 0 -10 -22 -10 -50z"/>
<path d="M11230 10110 c0 -5 7 -10 15 -10 8 0 15 5 15 10 0 6 -7 10 -15 10 -8 0 -15 -4 -15 -10z"/>
<path d="M6940 10081 c0 -11 -4 -23 -10 -26 -5 -3 -10 -17 -10 -30 0 -13 -4 -27 -10 -30 -5 -3 -10 -17 -10 -30 0 -13 -4 -27 -10 -30 -5 -3 -10 -17 -10 -30 0 -13 -4 -27 -10 -30 -5 -3 -10 -17 -10 -30 0 -13 -4 -27 -10 -30 -5 -3 -10 -17 -10 -30 0 -13 -4 -27 -10 -30 -5 -3 -10 -17 -10 -30 0 -13 -4 -27 -10 -30 -5 -3 -10 -13 -10 -21 0 -8 5 -14 10 -14 6 0 10 9 10 19 0 11 5 23 10 26 6 3 10 15 10 26 0 10 5 29 12 42 24 48 28 57 28 76 0 11 5 23 10 26 6 3 10 17 10 30 0 13 5 27 10 30 6 3 10 17 10 30 0 13 5 27 10 30 6 3 10 17 10 30 0 13 5 27 10 30 6 3 10 15 10 26 0 10 -4 19 -10 19 -5 0 -10 -9 -10 -19z"/>
<path d="M11275 10078 c6 -16 56 -40 64 -32 8 8 -38 44 -55 44 -7 0 -11 -6 -9 -12z"/>
<path d="M4960 10045 c0 -19 5 -35 10 -35 6 0 10 16 10 35 0 19 -4 35 -10 35 -5 0 -10 -16 -10 -35z"/>
<path d="M6400 10055 c0 -8 5 -15 10 -15 6 0 10 7 10 15 0 8 -4 15 -10 15 -5 0 -10 -7 -10 -15z"/>
<path d="M5740 10015 c0 -19 5 -35 10 -35 6 0 10 16 10 35 0 19 -4 35 -10 35 -5 0 -10 -16 -10 -35z"/>
<path d="M6992 10025 c-17 -37 -15 -42 18 -42 34 0 35 3 18 40 -16 33 -22 34 -36 2z"/>
<path d="M3580 10010 c0 -16 5 -30 10 -30 6 0 10 14 10 30 0 17 -4 30 -10 30 -5 0 -10 -13 -10 -30z"/>
<path d="M6680 10030 c0 -5 5 -10 10 -10 6 0 10 5 10 10 0 6 -4 10 -10 10 -5 0 -10 -4 -10 -10z"/>
<path d="M4520 10011 c0 -6 12 -14 28 -17 15 -4 36 -15 48 -26 17 -15 20 -25 14 -62 -3 -24 -16 -60 -29 -81 -24 -41 -24 -50 -1 -32 58 44 76 131 41 192 -14 25 -25 31 -59 33 -24 2 -42 -1 -42 -7z"/>
<path d="M5007 10014 c-4 -4 -4 -10 -2 -14 6 -10 55 0 55 11 0 10 -43 12 -53 3z"/>
<path d="M4443 9975 c-46 -37 -102 -155 -73 -155 6 0 10 7 10 15 0 37 80 145 107 145 7 0 13 5 13 10 0 17 -24 11 -57 -15z"/>
<path d="M5115 9980 c-3 -5 -12 -7 -20 -3 -11 3 -15 -2 -15 -17 0 -18 3 -20 13 -11 22 18 27 2 27 -81 0 -45 4 -78 10 -78 6 0 10 40 10 100 0 90 -8 118 -25 90z"/>
<path d="M7040 9950 c0 -5 5 -10 10 -10 6 0 10 5 10 10 0 6 -4 10 -10 10 -5 0 -10 -4 -10 -10z"/>
<path d="M3740 9875 c0 -43 4 -75 10 -75 6 0 10 32 10 75 0 43 -4 75 -10 75 -6 0 -10 -32 -10 -75z"/>
<path d="M5000 9940 c-13 -9 -13 -11 0 -20 24 -16 40 -12 40 10 0 22 -16 26 -40 10z"/>
<path d="M6660 9900 c0 -27 5 -50 10 -50 6 0 10 23 10 50 0 28 -4 50 -10 50 -5 0 -10 -22 -10 -50z"/>
<path d="M6960 9925 c0 -8 5 -15 10 -15 6 0 10 7 10 15 0 8 -4 15 -10 15 -5 0 -10 -7 -10 -15z"/>
<path d="M10400 9930 c0 -5 5 -10 10 -10 6 0 10 5 10 10 0 6 -4 10 -10 10 -5 0 -10 -4 -10 -10z"/>
<path d="M5820 9912 c0 -4 9 -13 20 -20 11 -7 20 -19 20 -27 0 -8 5 -15 10 -15 6 0 10 16 10 35 0 32 -2 35 -30 35 -16 0 -30 -3 -30 -8z"/>
<path d="M7060 9885 c0 -14 5 -25 10 -25 6 0 10 11 10 25 0 14 -4 25 -10 25 -5 0 -10 -11 -10 -25z"/>
<path d="M5725 9870 c-3 -6 -7 -28 -7 -50 0 -22 -4 -43 -9 -46 -12 -7 -11 -64 1 -64 6 0 10 11 10 25 0 14 4 33 9 43 19 34 41 85 41 94 0 11 -38 10 -45 -2z"/>
<path d="M7700 9860 c0 -5 5 -10 10 -10 6 0 10 5 10 10 0 6 -4 10 -10 10 -5 0 -10 -4 -10 -10z"/>
<path d="M5630 9852 c0 -4 10 -13 21 -21 18 -10 23 -10 30 0 4 7 5 17 3 21 -7 10 -54 11 -54 0z"/>
<path d="M6940 9845 c0 -8 5 -15 10 -15 6 0 10 7 10 15 0 8 -4 15 -10 15 -5 0 -10 -7 -10 -15z"/>
<path d="M7080 9800 c0 -16 5 -30 10 -30 6 0 10 14 10 30 0 17 -4 30 -10 30 -5 0 -10 -13 -10 -30z"/>
<path d="M7617 9772 c-45 -93 -84 -163 -103 -183 -9 -11 -14 -22 -11 -26 8 -7 5 -11 47 51 35 52 110 193 110 207 0 23 -18 3 -43 -49z"/>
<path d="M7685 9810 c-3 -5 -1 -10 4 -10 6 0 11 5 11 10 0 6 -2 10 -4 10 -3 0 -8 -4 -11 -10z"/>
<path d="M5660 9770 c0 -5 5 -10 11 -10 5 0 7 5 4 10 -3 6 -8 10 -11 10 -2 0 -4 -4 -4 -10z"/>
<path d="M6640 9617 c0 -153 8 -200 38 -212 19 -7 28 0 46 37 20 39 13 49 -13 17 -16 -20 -21 -21 -35 -10 -13 11 -16 38 -16 167 0 96 -4 154 -10 154 -6 0 -10 -58 -10 -153z"/>
<path d="M4476 9724 c-11 -7 -16 -17 -13 -21 4 -4 15 1 24 10 22 21 14 30 -11 11z"/>
<path d="M6160 9700 c0 -16 5 -30 10 -30 6 0 10 14 10 30 0 17 -4 30 -10 30 -5 0 -10 -13 -10 -30z"/>
<path d="M4940 9710 c0 -5 5 -10 10 -10 6 0 10 5 10 10 0 6 -4 10 -10 10 -5 0 -10 -4 -10 -10z"/>
<path d="M6356 9673 c-3 -26 -9 -85 -13 -131 -3 -45 -10 -85 -15 -88 -4 -3 -8 -23 -8 -45 0 -24 4 -38 10 -34 6 3 10 21 10 40 0 19 5 37 10 40 6 3 10 17 10 30 0 13 7 50 15 82 15 56 12 153 -5 153 -4 0 -10 -21 -14 -47z"/>
<path d="M7100 9680 c0 -22 5 -40 10 -40 6 0 10 18 10 40 0 22 -4 40 -10 40 -5 0 -10 -18 -10 -40z"/>
<path d="M10520 9718 c0 -2 9 -23 20 -46 11 -22 20 -46 20 -52 0 -5 5 -10 10 -10 26 0 -9 98 -38 108 -7 2 -12 2 -12 0z"/>
<path d="M3720 9595 c0 -70 4 -115 10 -115 6 0 10 45 10 115 0 70 -4 115 -10 115 -6 0 -10 -45 -10 -115z"/>
<path d="M4120 9653 c0 -32 -5 -78 -11 -103 -6 -25 -13 -56 -15 -70 -2 -14 -6 -40 -10 -57 -4 -22 -2 -33 5 -33 6 0 11 8 11 18 0 10 4 22 9 28 26 29 45 274 21 274 -5 0 -10 -26 -10 -57z"/>
<path d="M4396 9681 c-46 -26 -43 -44 3 -19 23 12 41 25 41 30 0 12 -11 9 -44 -11z"/>
<path d="M5640 9674 c0 -8 5 -12 10 -9 6 3 10 10 10 16 0 5 -4 9 -10 9 -5 0 -10 -7 -10 -16z"/>
<path d="M5840 9640 c0 -27 5 -50 10 -50 6 0 10 23 10 50 0 28 -4 50 -10 50 -5 0 -10 -22 -10 -50z"/>
<path d="M4900 9638 c-12 -24 -29 -55 -37 -69 -7 -15 -20 -32 -28 -39 -8 -7 -15 -16 -15 -21 0 -21 -96 -132 -138 -161 -59 -40 -56 -37 -49 -44 22 -22 161 100 197 172 8 16 20 37 28 46 12 15 82 147 82 155 0 2 -4 3 -8 3 -5 0 -19 -19 -32 -42z"/>
<path d="M5680 9650 c0 -11 5 -20 10 -20 6 0 10 9 10 20 0 11 -4 20 -10 20 -5 0 -10 -9 -10 -20z"/>
<path d="M5100 9595 c0 -30 5 -55 10 -55 6 0 10 25 10 55 0 30 -4 55 -10 55 -5 0 -10 -25 -10 -55z"/>
<path d="M4393 9618 c-25 -15 -33 -27 -33 -49 0 -16 5 -29 10 -29 6 0 10 6 10 13 0 7 14 26 30 42 48 46 39 58 -17 23z"/>
<path d="M6780 9620 c0 -11 5 -20 10 -20 6 0 10 9 10 20 0 11 -4 20 -10 20 -5 0 -10 -9 -10 -20z"/>
<path d="M11740 9596 c0 -32 24 -66 37 -52 8 8 -18 86 -29 86 -4 0 -8 -15 -8 -34z"/>
<path d="M5620 9595 c0 -8 5 -15 10 -15 6 0 10 7 10 15 0 8 -4 15 -10 15 -5 0 -10 -7 -10 -15z"/>
<path d="M7125 9538 c3 -40 8 -146 11 -236 l5 -163 -50 -57 c-27 -31 -48 -58 -47 -59 2 -2 29 20 60 49 l57 52 -5 171 c-7 220 -15 315 -28 315 -6 0 -7 -27 -3 -72z"/>
<path d="M10580 9579 c0 -5 5 -7 10 -4 6 3 10 8 10 11 0 2 -4 4 -10 4 -5 0 -10 -5 -10 -11z"/>
<path d="M6760 9570 c0 -5 5 -10 10 -10 6 0 10 5 10 10 0 6 -4 10 -10 10 -5 0 -10 -4 -10 -10z"/>
<path d="M6160 9500 c0 -40 4 -70 10 -70 6 0 10 30 10 70 0 40 -4 70 -10 70 -6 0 -10 -30 -10 -70z"/>
<path d="M5660 9550 c0 -5 5 -10 10 -10 6 0 10 5 10 10 0 6 -4 10 -10 10 -5 0 -10 -4 -10 -10z"/>
<path d="M11766 9522 c-6 -11 15 -62 27 -62 4 0 7 11 7 24 0 25 -25 53 -34 38z"/>
<path d="M5600 9505 c0 -8 5 -15 10 -15 6 0 10 7 10 15 0 8 -4 15 -10 15 -5 0 -10 -7 -10 -15z"/>
<path d="M7460 9510 c0 -5 5 -10 10 -10 6 0 10 5 10 10 0 6 -4 10 -10 10 -5 0 -10 -4 -10 -10z"/>
<path d="M4380 9496 c0 -52 108 -196 147 -196 20 0 15 17 -6 23 -21 5 -121 147 -121 172 0 8 -4 15 -10 15 -5 0 -10 -6 -10 -14z"/>
<path d="M10560 9495 c0 -8 5 -15 10 -15 6 0 10 7 10 15 0 8 -4 15 -10 15 -5 0 -10 -7 -10 -15z"/>
<path d="M7360 9444 c0 -41 2 -45 21 -42 12 2 29 14 37 28 9 14 12 22 8 18 -12 -10 -46 10 -46 27 0 8 -4 15 -10 15 -5 0 -10 -21 -10 -46z"/>
<path d="M5420 9460 c0 -11 5 -20 10 -20 6 0 10 9 10 20 0 11 -4 20 -10 20 -5 0 -10 -9 -10 -20z"/>
<path d="M5640 9460 c0 -11 5 -20 10 -20 6 0 10 9 10 20 0 11 -4 20 -10 20 -5 0 -10 -9 -10 -20z"/>
<path d="M6390 9451 c-13 -25 -13 -61 0 -61 6 0 10 6 10 14 0 24 22 30 36 11 8 -10 17 -15 21 -12 4 4 1 13 -5 19 -7 7 -12 20 -12 30 0 24 -36 23 -50 -1z"/>
<path d="M10533 9433 c-7 -15 -11 -29 -8 -32 7 -6 34 31 35 47 0 21 -14 13 -27 -15z"/>
<path d="M5820 9400 c0 -27 5 -50 10 -50 6 0 10 23 10 50 0 28 -4 50 -10 50 -5 0 -10 -22 -10 -50z"/>
<path d="M3707 9373 c-10 -105 -8 -426 3 -443 6 -10 10 74 10 248 0 144 -2 262 -4 262 -2 0 -6 -30 -9 -67z"/>
<path d="M5580 9425 c0 -8 5 -15 10 -15 6 0 10 7 10 15 0 8 -4 15 -10 15 -5 0 -10 -7 -10 -15z"/>
<path d="M4157 9413 c-4 -3 -7 -13 -7 -21 0 -9 3 -12 7 -9 3 4 17 0 30 -8 25 -17 30 -7 13 26 -11 19 -31 25 -43 12z"/>
<path d="M11800 9380 c0 -11 5 -20 10 -20 6 0 10 9 10 20 0 11 -4 20 -10 20 -5 0 -10 -9 -10 -20z"/>
<path d="M5080 9310 c0 -40 4 -70 10 -70 6 0 10 30 10 70 0 40 -4 70 -10 70 -6 0 -10 -30 -10 -70z"/>
<path d="M5620 9370 c0 -5 5 -10 10 -10 6 0 10 5 10 10 0 6 -4 10 -10 10 -5 0 -10 -4 -10 -10z"/>
<path d="M7401 9351 c-22 -31 -30 -121 -11 -121 9 0 15 51 11 86 -1 6 8 19 19 29 21 19 26 35 11 35 -5 0 -19 -13 -30 -29z"/>
<path d="M5560 9345 c0 -14 5 -25 10 -25 6 0 10 11 10 25 0 14 -4 25 -10 25 -5 0 -10 -11 -10 -25z"/>
<path d="M6360 9345 c0 -14 5 -25 10 -25 6 0 10 11 10 25 0 14 -4 25 -10 25 -5 0 -10 -11 -10 -25z"/>
<path d="M4060 9340 c0 -11 5 -20 10 -20 6 0 10 9 10 20 0 11 -4 20 -10 20 -5 0 -10 -9 -10 -20z"/>
<path d="M4120 9350 c0 -5 5 -10 10 -10 6 0 10 5 10 10 0 6 -4 10 -10 10 -5 0 -10 -4 -10 -10z"/>
<path d="M6300 9320 c0 -16 5 -30 10 -30 6 0 10 14 10 30 0 17 -4 30 -10 30 -5 0 -10 -13 -10 -30z"/>
<path d="M6140 9275 c0 -14 5 -25 10 -25 6 0 10 11 10 25 0 14 -4 25 -10 25 -5 0 -10 -11 -10 -25z"/>
<path d="M6610 9290 c0 -5 5 -10 10 -10 6 0 10 5 10 10 0 6 -4 10 -10 10 -5 0 -10 -4 -10 -10z"/>
<path d="M4040 9270 c0 -11 5 -20 10 -20 6 0 10 9 10 20 0 11 -4 20 -10 20 -5 0 -10 -9 -10 -20z"/>
<path d="M5540 9259 c0 -17 4 -28 10 -24 6 3 10 17 10 31 0 13 -4 24 -10 24 -5 0 -10 -14 -10 -31z"/>
<path d="M6340 9260 c0 -11 5 -20 10 -20 6 0 10 9 10 20 0 11 -4 20 -10 20 -5 0 -10 -9 -10 -20z"/>
<path d="M10440 9270 c0 -5 5 -10 10 -10 6 0 10 5 10 10 0 6 -4 10 -10 10 -5 0 -10 -4 -10 -10z"/>
<path d="M5400 9230 c0 -22 5 -40 10 -40 6 0 10 18 10 40 0 22 -4 40 -10 40 -5 0 -10 -18 -10 -40z"/>
<path d="M11804 9233 c1 -16 5 -34 9 -40 13 -21 61 -15 75 7 12 19 11 21 -15 18 -21 -2 -30 3 -38 20 -14 31 -33 28 -31 -5z"/>
<path d="M6280 9230 c0 -11 5 -20 10 -20 6 0 10 9 10 20 0 11 -4 20 -10 20 -5 0 -10 -9 -10 -20z"/>
<path d="M10420 9230 c0 -5 5 -10 10 -10 6 0 10 5 10 10 0 6 -4 10 -10 10 -5 0 -10 -4 -10 -10z"/>
<path d="M4020 9200 c0 -11 5 -20 10 -20 6 0 10 9 10 20 0 11 -4 20 -10 20 -5 0 -10 -9 -10 -20z"/>
<path d="M4440 9210 c0 -5 9 -10 20 -10 11 0 20 5 20 10 0 6 -9 10 -20 10 -11 0 -20 -4 -20 -10z"/>
<path d="M12028 9208 c7 -7 12 -20 12 -30 0 -10 5 -18 10 -18 6 0 10 6 10 13 -1 15 -24 47 -36 47 -4 0 -3 -5 4 -12z"/>
<path d="M5520 9181 c0 -17 -4 -33 -10 -36 -5 -3 -10 -19 -10 -35 0 -16 -4 -32 -10 -35 -5 -3 -10 -19 -10 -35 0 -16 -4 -32 -10 -35 -5 -3 -10 -17 -10 -30 0 -13 -4 -27 -10 -30 -5 -3 -10 -15 -10 -26 0 -10 5 -19 10 -19 6 0 10 9 10 19 0 11 5 23 10 26 6 3 10 17 10 30 0 13 5 27 10 30 6 3 10 19 10 35 0 16 5 32 10 35 6 3 10 21 10 40 0 19 5 37 10 40 6 3 10 17 10 31 0 13 -4 24 -10 24 -5 0 -10 -13 -10 -29z"/>
<path d="M10397 9186 c-4 -10 -1 -13 9 -9 15 6 19 23 5 23 -5 0 -11 -7 -14 -14z"/>
<path d="M5080 9135 c0 -25 5 -45 10 -45 6 0 10 20 10 45 0 25 -4 45 -10 45 -5 0 -10 -20 -10 -45z"/>
<path d="M6260 9150 c0 -11 5 -20 10 -20 6 0 10 9 10 20 0 11 -4 20 -10 20 -5 0 -10 -9 -10 -20z"/>
<path d="M4000 9140 c0 -11 5 -20 10 -20 6 0 10 9 10 20 0 11 -4 20 -10 20 -5 0 -10 -9 -10 -20z"/>
<path d="M5560 9130 c0 -5 5 -10 10 -10 6 0 10 5 10 10 0 6 -4 10 -10 10 -5 0 -10 -4 -10 -10z"/>
<path d="M6120 9085 c0 -30 5 -55 10 -55 6 0 10 25 10 55 0 30 -4 55 -10 55 -5 0 -10 -25 -10 -55z"/>
<path d="M5387 9103 c-11 -10 -8 -133 3 -133 6 0 10 30 10 70 0 70 -1 76 -13 63z"/>
<path d="M3980 9075 c0 -8 5 -15 10 -15 6 0 10 7 10 15 0 8 -4 15 -10 15 -5 0 -10 -7 -10 -15z"/>
<path d="M5540 9060 c0 -5 5 -10 10 -10 6 0 10 5 10 10 0 6 -4 10 -10 10 -5 0 -10 -4 -10 -10z"/>
<path d="M7022 8921 c-67 -71 -122 -133 -122 -138 0 -5 -22 -31 -50 -58 -27 -27 -50 -53 -50 -58 0 -5 -17 -28 -37 -52 -21 -23 -47 -60 -59 -81 -11 -22 -25 -48 -31 -59 -34 -62 -47 -108 -51 -181 -3 -54 -1 -84 7 -88 6 -4 11 -18 11 -31 0 -14 14 -39 35 -60 33 -33 40 -35 98 -35 75 0 130 30 188 101 40 50 99 168 99 198 0 11 5 23 10 26 6 3 10 19 10 35 0 16 5 32 10 35 6 3 10 23 10 44 0 20 4 41 9 47 5 5 12 34 15 64 17 143 18 170 7 170 -7 0 -11 -25 -11 -64 0 -36 -4 -68 -10 -71 -5 -3 -10 -28 -10 -55 0 -27 -4 -52 -10 -55 -5 -3 -10 -21 -10 -40 0 -19 -4 -37 -10 -40 -5 -3 -10 -17 -10 -30 0 -13 -4 -27 -10 -30 -5 -3 -10 -15 -10 -26 0 -10 -4 -27 -9 -37 -5 -9 -19 -39 -32 -66 -31 -65 -112 -153 -158 -172 -49 -21 -126 -10 -155 21 -20 22 -43 108 -45 167 0 14 6 42 14 62 9 20 15 39 15 43 0 19 63 135 95 177 19 25 35 49 35 52 0 21 319 356 332 348 4 -3 8 -25 8 -50 0 -24 5 -44 10 -44 6 0 10 33 10 80 0 44 -3 80 -8 80 -4 0 -63 -58 -130 -129z"/>
<path d="M3966 9025 c-4 -11 -12 -28 -17 -37 -12 -23 -12 -48 1 -48 6 0 10 10 10 23 0 13 5 28 11 34 6 6 9 19 6 29 -4 18 -4 18 -11 -1z"/>
<path d="M10242 8934 c-24 -36 -41 -68 -38 -71 7 -7 36 16 36 29 0 5 14 29 30 53 31 45 35 55 23 55 -5 0 -27 -30 -51 -66z"/>
<path d="M6108 8984 c-5 -4 -8 -61 -8 -126 l0 -119 22 3 c21 3 56 49 57 76 1 20 -13 14 -24 -10 -20 -45 -30 -22 -35 80 -3 57 -8 100 -12 96z"/>
<path d="M11581 8914 c-24 -25 -41 -48 -37 -51 3 -3 24 13 46 36 22 22 49 41 60 41 11 0 20 5 20 10 0 25 -48 5 -89 -36z"/>
<path d="M11880 8950 c0 -5 9 -10 20 -10 11 0 20 5 20 10 0 6 -9 10 -20 10 -11 0 -20 -4 -20 -10z"/>
<path d="M6200 8930 c0 -11 5 -20 10 -20 6 0 10 9 10 20 0 11 -4 20 -10 20 -5 0 -10 -9 -10 -20z"/>
<path d="M5820 8925 c0 -8 5 -15 10 -15 6 0 10 7 10 15 0 8 -4 15 -10 15 -5 0 -10 -7 -10 -15z"/>
<path d="M3912 8888 c-29 -71 -57 -120 -87 -155 l-31 -36 -21 26 c-23 30 -33 34 -33 14 0 -18 42 -57 61 -57 23 0 52 37 88 115 18 39 37 78 42 87 11 22 12 38 1 38 -4 0 -13 -15 -20 -32z"/>
<path d="M6933 8908 c-25 -33 -25 -40 0 -22 27 19 34 34 18 34 -5 0 -13 -6 -18 -12z"/>
<path d="M2960 8860 c0 -22 5 -40 10 -40 6 0 10 18 10 40 0 22 -4 40 -10 40 -5 0 -10 -18 -10 -40z"/>
<path d="M6180 8875 c0 -8 5 -15 10 -15 6 0 10 7 10 15 0 8 -4 15 -10 15 -5 0 -10 -7 -10 -15z"/>
<path d="M3720 8835 c0 -25 5 -45 10 -45 6 0 10 20 10 45 0 25 -4 45 -10 45 -5 0 -10 -20 -10 -45z"/>
<path d="M5420 8864 c0 -9 -9 -18 -20 -21 -11 -3 -20 -9 -20 -14 0 -13 34 -11 48 3 15 15 16 48 2 48 -5 0 -10 -7 -10 -16z"/>
<path d="M5840 8835 c0 -8 5 -15 10 -15 6 0 10 7 10 15 0 8 -4 15 -10 15 -5 0 -10 -7 -10 -15z"/>
<path d="M5460 8830 c0 -5 5 -10 10 -10 6 0 10 5 10 10 0 6 -4 10 -10 10 -5 0 -10 -4 -10 -10z"/>
<path d="M10172 8820 c-7 -11 -9 -20 -4 -20 4 0 13 9 20 20 7 11 9 20 4 20 -4 0 -13 -9 -20 -20z"/>
<path d="M11497 8791 c-20 -39 -21 -51 -7 -51 6 0 10 8 10 18 0 10 5 23 11 29 6 6 9 17 7 24 -3 8 -12 -1 -21 -20z"/>
<path d="M10132 8768 c-7 -7 -12 -16 -12 -20 0 -5 -23 -39 -52 -76 -28 -37 -56 -74 -62 -82 -8 -10 -3 -9 14 3 24 17 139 165 140 180 0 11 -15 8 -28 -5z"/>
<path d="M5420 8750 c0 -5 5 -10 10 -10 6 0 10 5 10 10 0 6 -4 10 -10 10 -5 0 -10 -4 -10 -10z"/>
<path d="M2505 8647 c-40 -24 -80 -61 -102 -92 -38 -57 -63 -105 -63 -125 0 -10 -4 -22 -10 -25 -5 -3 -10 -17 -10 -31 0 -13 5 -24 10 -24 6 0 10 9 10 20 0 11 4 28 9 38 5 9 21 43 36 74 26 57 122 158 150 158 8 0 17 5 20 10 8 14 -25 12 -50 -3z"/>
<path d="M2620 8652 c0 -5 9 -17 20 -27 17 -15 20 -31 20 -92 0 -40 -4 -81 -9 -91 -5 -9 -19 -39 -32 -67 -43 -93 -150 -245 -233 -332 -53 -56 -57 -87 -5 -37 36 33 119 140 119 152 0 5 14 21 30 37 17 16 30 33 30 38 0 4 13 27 28 50 15 23 38 65 51 92 13 28 27 58 32 67 5 10 9 53 9 96 0 69 -3 81 -23 100 -24 23 -37 28 -37 14z"/>
<path d="M11376 8623 c-3 -10 -9 -24 -12 -30 -12 -26 12 -12 29 17 15 25 16 30 4 30 -8 0 -17 -8 -21 -17z"/>
<path d="M6040 8610 c0 -5 11 -10 25 -10 14 0 25 5 25 10 0 6 -11 10 -25 10 -14 0 -25 -4 -25 -10z"/>
<path d="M7360 8595 c0 -8 5 -15 10 -15 6 0 10 7 10 15 0 8 -4 15 -10 15 -5 0 -10 -7 -10 -15z"/>
<path d="M3730 8590 c0 -5 9 -10 20 -10 11 0 20 5 20 10 0 6 -9 10 -20 10 -11 0 -20 -4 -20 -10z"/>
<path d="M7340 8510 c0 -5 5 -10 10 -10 6 0 10 5 10 10 0 6 -4 10 -10 10 -5 0 -10 -4 -10 -10z"/>
<path d="M11300 8495 c0 -8 5 -15 10 -15 6 0 10 7 10 15 0 8 -4 15 -10 15 -5 0 -10 -7 -10 -15z"/>
<path d="M11280 8445 c0 -8 5 -15 10 -15 6 0 10 7 10 15 0 8 -4 15 -10 15 -5 0 -10 -7 -10 -15z"/>
<path d="M5270 8430 c0 -5 7 -10 15 -10 8 0 15 5 15 10 0 6 -7 10 -15 10 -8 0 -15 -4 -15 -10z"/>
<path d="M2308 8324 c-5 -4 -8 -23 -8 -43 0 -25 3 -32 11 -24 6 6 9 25 7 43 -2 17 -6 28 -10 24z"/>
<path d="M5400 8300 c0 -11 5 -20 10 -20 6 0 10 9 10 20 0 11 -4 20 -10 20 -5 0 -10 -9 -10 -20z"/>
<path d="M11025 8270 c-3 -5 -15 -10 -26 -10 -10 0 -19 -4 -19 -10 0 -5 6 -10 14 -10 8 0 18 5 21 10 3 6 15 10 26 10 10 0 19 5 19 10 0 6 -6 10 -14 10 -8 0 -18 -4 -21 -10z"/>
<path d="M10930 8230 c0 -5 5 -10 10 -10 6 0 10 5 10 10 0 6 -4 10 -10 10 -5 0 -10 -4 -10 -10z"/>
<path d="M2280 8175 c0 -30 5 -55 10 -55 6 0 10 25 10 55 0 30 -4 55 -10 55 -5 0 -10 -25 -10 -55z"/>
<path d="M5180 8205 c0 -8 5 -15 10 -15 6 0 10 7 10 15 0 8 -4 15 -10 15 -5 0 -10 -7 -10 -15z"/>
<path d="M6500 8175 c0 -14 5 -25 10 -25 6 0 10 11 10 25 0 14 -4 25 -10 25 -5 0 -10 -11 -10 -25z"/>
<path d="M1233 8168 c-6 -7 -14 -20 -19 -28 -7 -13 -5 -13 16 1 25 17 38 39 22 39 -5 0 -14 -6 -19 -12z"/>
<path d="M10825 8170 c-3 -5 -1 -10 4 -10 6 0 11 5 11 10 0 6 -2 10 -4 10 -3 0 -8 -4 -11 -10z"/>
<path d="M2551 8138 l-14 -23 22 19 c22 20 25 26 13 26 -4 0 -13 -10 -21 -22z"/>
<path d="M1570 8130 c0 -5 7 -10 15 -10 22 0 95 -77 95 -100 0 -11 5 -20 10 -20 26 0 4 54 -44 108 -28 30 -76 44 -76 22z"/>
<path d="M5160 8115 c0 -8 5 -15 10 -15 6 0 10 7 10 15 0 8 -4 15 -10 15 -5 0 -10 -7 -10 -15z"/>
<path d="M1371 8070 c-26 -27 -58 -71 -70 -97 -13 -27 -27 -56 -32 -65 -5 -10 -9 -29 -9 -42 0 -14 -4 -28 -10 -31 -5 -3 -10 -17 -10 -31 0 -13 5 -24 10 -24 6 0 10 11 10 25 0 14 4 33 9 43 5 9 14 31 21 47 7 17 17 39 23 50 6 11 17 32 24 46 7 15 33 48 58 75 49 52 50 54 34 54 -5 0 -32 -22 -58 -50z"/>
<path d="M2490 8065 c-7 -9 -10 -18 -7 -22 8 -7 37 15 37 28 0 14 -16 11 -30 -6z"/>
<path d="M2020 7925 c0 -70 4 -115 10 -115 6 0 10 45 10 115 0 70 -4 115 -10 115 -6 0 -10 -45 -10 -115z"/>
<path d="M5140 8015 c0 -14 5 -25 10 -25 6 0 10 11 10 25 0 14 -4 25 -10 25 -5 0 -10 -11 -10 -25z"/>
<path d="M5380 7995 c0 -25 5 -45 10 -45 6 0 10 20 10 45 0 25 -4 45 -10 45 -5 0 -10 -20 -10 -45z"/>
<path d="M9800 7960 c0 -33 4 -60 10 -60 6 0 10 27 10 60 0 33 -4 60 -10 60 -6 0 -10 -27 -10 -60z"/>
<path d="M10633 7988 c-16 -26 -33 -61 -33 -69 0 -14 20 -10 20 4 0 6 9 23 20 37 11 14 20 28 20 33 0 12 -18 8 -27 -5z"/>
<path d="M1700 7965 c0 -8 5 -15 10 -15 6 0 10 7 10 15 0 8 -4 15 -10 15 -5 0 -10 -7 -10 -15z"/>
<path d="M2399 7943 c-13 -16 -12 -17 4 -4 9 7 17 15 17 17 0 8 -8 3 -21 -13z"/>
<path d="M5120 7915 c0 -14 5 -25 10 -25 6 0 10 11 10 25 0 14 -4 25 -10 25 -5 0 -10 -11 -10 -25z"/>
<path d="M5362 7865 c4 -31 1 -48 -8 -56 -15 -12 -20 -59 -6 -58 15 1 52 58 42 64 -16 10 -1 25 26 25 33 0 31 18 -3 22 -20 2 -29 9 -31 26 -6 44 -25 23 -20 -23z"/>
<path d="M1720 7875 c0 -8 5 -15 10 -15 6 0 10 7 10 15 0 8 -4 15 -10 15 -5 0 -10 -7 -10 -15z"/>
<path d="M10580 7880 c0 -5 5 -10 10 -10 6 0 10 5 10 10 0 6 -4 10 -10 10 -5 0 -10 -4 -10 -10z"/>
<path d="M5020 7850 c0 -5 20 -10 45 -10 25 0 45 5 45 10 0 6 -20 10 -45 10 -25 0 -45 -4 -45 -10z"/>
<path d="M9855 7840 c10 -11 20 -20 23 -20 3 0 -3 9 -13 20 -10 11 -20 20 -23 20 -3 0 3 -9 13 -20z"/>
<path d="M4940 7830 c0 -5 5 -10 10 -10 6 0 10 5 10 10 0 6 -4 10 -10 10 -5 0 -10 -4 -10 -10z"/>
<path d="M2280 7805 c0 -8 5 -15 10 -15 6 0 10 7 10 15 0 8 -4 15 -10 15 -5 0 -10 -7 -10 -15z"/>
<path d="M5100 7781 c0 -17 5 -31 10 -31 6 0 10 11 10 24 0 14 -4 28 -10 31 -6 4 -10 -7 -10 -24z"/>
<path d="M9360 7789 c0 -5 5 -7 10 -4 6 3 10 8 10 11 0 2 -4 4 -10 4 -5 0 -10 -5 -10 -11z"/>
<path d="M9305 7755 c-17 -13 -26 -27 -22 -31 4 -4 20 4 34 19 35 34 26 43 -12 12z"/>
<path d="M2611 7729 c-30 -30 -39 -49 -23 -49 5 0 21 14 37 30 16 17 35 30 42 30 7 0 13 5 13 10 0 21 -40 9 -69 -21z"/>
<path d="M3910 7750 c0 -5 7 -10 15 -10 8 0 15 5 15 10 0 6 -7 10 -15 10 -8 0 -15 -4 -15 -10z"/>
<path d="M10580 7735 c0 -8 5 -15 10 -15 6 0 10 7 10 15 0 8 -4 15 -10 15 -5 0 -10 -7 -10 -15z"/>
<path d="M1220 7695 c0 -25 5 -45 10 -45 6 0 10 20 10 45 0 25 -4 45 -10 45 -5 0 -10 -20 -10 -45z"/>
<path d="M2740 7730 c0 -5 5 -10 10 -10 6 0 10 5 10 10 0 6 -4 10 -10 10 -5 0 -10 -4 -10 -10z"/>
<path d="M9940 7731 c0 -5 7 -11 14 -14 10 -4 13 -1 9 9 -6 15 -23 19 -23 5z"/>
<path d="M2300 7700 c0 -16 5 -30 10 -30 6 0 10 14 10 30 0 17 -4 30 -10 30 -5 0 -10 -13 -10 -30z"/>
<path d="M9216 7691 c-3 -4 -33 -14 -66 -21 -33 -7 -60 -17 -60 -21 0 -13 74 -11 103 2 24 11 54 49 38 49 -6 0 -12 -4 -15 -9z"/>
<path d="M2762 7660 c0 -19 2 -27 5 -17 2 9 2 25 0 35 -3 9 -5 1 -5 -18z"/>
<path d="M980 7650 c0 -16 5 -30 10 -30 6 0 10 14 10 30 0 17 -4 30 -10 30 -5 0 -10 -13 -10 -30z"/>
<path d="M10620 7672 c0 -4 15 -22 33 -40 35 -34 67 -42 67 -17 0 8 -6 15 -14 15 -8 0 -28 11 -44 25 -31 26 -42 30 -42 17z"/>
<path d="M5080 7620 c0 -27 5 -50 10 -50 6 0 10 23 10 50 0 28 -4 50 -10 50 -5 0 -10 -22 -10 -50z"/>
<path d="M2560 7650 c0 -5 5 -10 10 -10 6 0 10 5 10 10 0 6 -4 10 -10 10 -5 0 -10 -4 -10 -10z"/>
<path d="M8080 7650 c0 -5 5 -10 11 -10 5 0 7 5 4 10 -3 6 -8 10 -11 10 -2 0 -4 -4 -4 -10z"/>
<path d="M3053 7613 c-16 -32 -17 -63 -3 -63 6 0 10 13 10 29 0 17 5 33 10 36 12 7 13 25 3 25 -5 0 -14 -12 -20 -27z"/>
<path d="M5316 7573 c-4 -38 -9 -187 -12 -332 -5 -239 -2 -322 12 -309 2 3 7 86 9 184 3 98 7 257 10 352 4 105 2 172 -4 172 -5 0 -12 -30 -15 -67z"/>
<path d="M2540 7601 c0 -11 -4 -23 -10 -26 -5 -3 -10 -19 -10 -36 0 -16 5 -29 10 -29 6 0 10 13 10 29 0 17 5 33 10 36 6 3 10 15 10 26 0 10 -4 19 -10 19 -5 0 -10 -9 -10 -19z"/>
<path d="M8874 7586 c-21 -19 -37 -36 -34 -39 6 -7 89 54 90 66 0 15 -18 6 -56 -27z"/>
<path d="M2320 7590 c0 -11 5 -20 10 -20 6 0 10 9 10 20 0 11 -4 20 -10 20 -5 0 -10 -9 -10 -20z"/>
<path d="M4740 7593 c1 -10 92 -54 98 -49 8 8 -8 25 -40 40 -33 17 -58 21 -58 9z"/>
<path d="M1206 7568 c-8 -27 -1 -324 10 -465 3 -40 10 -73 15 -73 10 0 2 360 -11 495 -5 56 -8 65 -14 43z"/>
<path d="M2740 7525 c0 -30 5 -55 10 -55 6 0 10 25 10 55 0 30 -4 55 -10 55 -5 0 -10 -25 -10 -55z"/>
<path d="M4629 7541 c-24 -21 -54 -57 -66 -81 -23 -42 -31 -120 -13 -120 6 0 10 15 10 33 0 41 42 109 98 159 23 21 42 40 42 43 0 16 -33 0 -71 -34z"/>
<path d="M9480 7555 c0 -8 5 -15 10 -15 6 0 10 7 10 15 0 8 -4 15 -10 15 -5 0 -10 -7 -10 -15z"/>
<path d="M3800 7530 c0 -5 14 -10 30 -10 17 0 30 5 30 10 0 6 -13 10 -30 10 -16 0 -30 -4 -30 -10z"/>
<path d="M7680 7530 c0 -5 5 -10 10 -10 6 0 10 5 10 10 0 6 -4 10 -10 10 -5 0 -10 -4 -10 -10z"/>
<path d="M7936 7502 c-59 -45 -96 -108 -96 -163 0 -25 12 -66 32 -107 37 -78 36 -77 44 -69 4 3 -3 27 -15 52 -11 24 -21 51 -21 59 0 8 -4 18 -10 21 -15 9 -12 78 6 113 19 39 101 112 125 112 11 0 19 5 19 10 0 21 -37 9 -84 -28z"/>
<path d="M8055 7530 c3 -5 11 -10 17 -10 7 0 22 -10 35 -22 31 -29 42 -14 13 17 -22 24 -78 37 -65 15z"/>
<path d="M7250 7510 c0 -5 23 -10 50 -10 28 0 50 5 50 10 0 6 -22 10 -50 10 -27 0 -50 -4 -50 -10z"/>
<path d="M8580 7512 c0 -14 49 -56 57 -49 3 4 -4 18 -17 32 -24 25 -40 32 -40 17z"/>
<path d="M9460 7505 c0 -8 -4 -23 -9 -33 -40 -79 -44 -110 -17 -165 17 -37 133 -134 144 -122 4 4 -6 17 -23 29 -16 11 -49 40 -71 62 -38 38 -42 46 -42 93 0 28 4 54 9 57 5 3 9 16 9 29 0 13 5 27 10 30 6 3 10 13 10 21 0 8 -4 14 -10 14 -5 0 -10 -7 -10 -15z"/>
<path d="M10776 7505 c-7 -19 3 -47 16 -43 5 2 9 7 9 11 -1 4 -1 16 -1 27 0 23 -15 27 -24 5z"/>
<path d="M2340 7485 c0 -14 5 -25 10 -25 6 0 10 11 10 25 0 14 -4 25 -10 25 -5 0 -10 -11 -10 -25z"/>
<path d="M3020 7445 c0 -37 4 -65 10 -65 6 0 10 28 10 65 0 37 -4 65 -10 65 -6 0 -10 -28 -10 -65z"/>
<path d="M2060 7490 c0 -5 5 -10 10 -10 6 0 10 5 10 10 0 6 -4 10 -10 10 -5 0 -10 -4 -10 -10z"/>
<path d="M8183 7486 c-27 -13 -30 -26 -5 -26 9 0 23 9 30 20 13 22 8 23 -25 6z"/>
<path d="M2500 7425 c0 -25 5 -45 10 -45 6 0 10 20 10 45 0 25 -4 45 -10 45 -5 0 -10 -20 -10 -45z"/>
<path d="M3760 7435 c0 -14 5 -25 10 -25 6 0 10 11 10 25 0 14 -4 25 -10 25 -5 0 -10 -11 -10 -25z"/>
<path d="M10350 7453 c0 -12 101 -75 108 -69 8 9 -27 44 -61 61 -33 17 -47 19 -47 8z"/>
<path d="M2720 7395 c0 -19 5 -35 10 -35 6 0 10 16 10 35 0 19 -4 35 -10 35 -5 0 -10 -16 -10 -35z"/>
<path d="M8660 7417 c0 -8 9 -22 19 -31 11 -10 25 -37 32 -62 15 -49 29 -58 29 -18 0 14 -14 45 -30 69 -34 49 -50 63 -50 42z"/>
<path d="M2360 7400 c0 -11 5 -20 10 -20 6 0 10 9 10 20 0 11 -4 20 -10 20 -5 0 -10 -9 -10 -20z"/>
<path d="M5640 7405 c0 -17 2 -18 24 -9 23 9 20 24 -4 24 -11 0 -20 -7 -20 -15z"/>
<path d="M4320 7356 c0 -25 -4 -48 -10 -51 -5 -3 -10 -19 -10 -35 0 -16 -4 -32 -10 -35 -17 -10 -12 -48 5 -42 8 4 17 2 20 -3 10 -16 25 -12 25 6 0 10 -5 14 -15 10 -20 -7 -32 21 -16 37 6 6 11 21 11 33 0 13 5 26 10 29 6 3 10 26 10 51 0 24 -4 44 -10 44 -5 0 -10 -20 -10 -44z"/>
<path d="M7370 7370 c0 -5 7 -10 15 -10 8 0 15 5 15 10 0 6 -7 10 -15 10 -8 0 -15 -4 -15 -10z"/>
<path d="M7460 7355 c0 -14 4 -25 8 -25 4 0 9 11 10 25 1 14 -3 25 -8 25 -6 0 -10 -11 -10 -25z"/>
<path d="M6583 7362 c-12 -2 -40 -27 -62 -56 -43 -55 -48 -66 -31 -66 6 0 10 7 10 15 0 16 65 85 81 85 6 0 13 -9 16 -20 8 -30 23 -24 23 9 0 34 -6 39 -37 33z"/>
<path d="M7222 7337 c-12 -13 -22 -28 -22 -34 0 -5 -8 -17 -19 -27 -17 -15 -50 -76 -73 -136 -6 -14 -14 -33 -19 -42 -12 -24 -11 -68 1 -68 6 0 10 11 10 25 0 14 4 33 9 43 5 9 23 46 41 82 53 107 58 115 85 140 25 24 32 40 17 40 -5 0 -18 -10 -30 -23z"/>
<path d="M10785 7350 c-3 -5 -1 -10 4 -10 6 0 11 5 11 10 0 6 -2 10 -4 10 -3 0 -8 -4 -11 -10z"/>
<path d="M2380 7320 c0 -11 5 -20 10 -20 6 0 10 9 10 20 0 11 -4 20 -10 20 -5 0 -10 -9 -10 -20z"/>
<path d="M10480 7330 c0 -5 5 -10 10 -10 6 0 10 5 10 10 0 6 -4 10 -10 10 -5 0 -10 -4 -10 -10z"/>
<path d="M3200 7321 c0 -5 -3 -16 -6 -25 -4 -12 0 -16 16 -16 16 0 20 4 16 16 -3 9 -6 20 -6 25 0 5 -4 9 -10 9 -5 0 -10 -4 -10 -9z"/>
<path d="M3740 7275 c0 -25 5 -45 10 -45 6 0 10 20 10 45 0 25 -4 45 -10 45 -5 0 -10 -20 -10 -45z"/>
<path d="M4560 7305 c0 -24 69 -140 78 -131 6 7 -61 145 -70 146 -5 0 -8 -7 -8 -15z"/>
<path d="M2700 7285 c0 -14 5 -25 10 -25 6 0 10 11 10 25 0 14 -4 25 -10 25 -5 0 -10 -11 -10 -25z"/>
<path d="M5660 7250 c0 -27 5 -50 10 -50 6 0 10 23 10 50 0 28 -4 50 -10 50 -5 0 -10 -22 -10 -50z"/>
<path d="M10520 7294 c0 -4 8 -13 18 -20 20 -16 62 -18 62 -4 0 6 -11 10 -24 10 -14 0 -28 5 -31 10 -7 11 -25 14 -25 4z"/>
<path d="M2480 7240 c0 -27 5 -50 10 -50 6 0 10 23 10 50 0 28 -4 50 -10 50 -5 0 -10 -22 -10 -50z"/>
<path d="M3260 7271 c0 -9 24 -21 41 -21 5 0 9 7 9 15 0 9 -9 15 -25 15 -14 0 -25 -4 -25 -9z"/>
<path d="M2400 7251 c0 -11 5 -23 10 -26 6 -3 10 -17 10 -31 0 -13 5 -24 10 -24 6 0 10 11 10 24 0 14 -4 28 -10 31 -5 3 -10 15 -10 26 0 10 -4 19 -10 19 -5 0 -10 -9 -10 -19z"/>
<path d="M2820 7235 c0 -19 5 -35 10 -35 6 0 10 16 10 35 0 19 -4 35 -10 35 -5 0 -10 -16 -10 -35z"/>
<path d="M3500 7260 c0 -5 5 -10 10 -10 6 0 10 5 10 10 0 6 -4 10 -10 10 -5 0 -10 -4 -10 -10z"/>
<path d="M4356 7245 c-4 -10 4 -25 22 -40 44 -39 53 -32 23 19 -20 35 -36 43 -45 21z"/>
<path d="M3161 7226 c-7 -8 -20 -12 -31 -9 -16 4 -18 0 -13 -39 3 -23 9 -47 14 -52 5 -6 9 -20 9 -33 0 -13 5 -23 10 -23 6 0 10 13 10 28 0 15 4 32 9 38 4 5 13 23 19 39 5 17 13 38 17 48 5 13 2 17 -13 17 -11 0 -25 -6 -31 -14z"/>
<path d="M6580 7215 c0 -14 5 -25 10 -25 6 0 10 11 10 25 0 14 -4 25 -10 25 -5 0 -10 -11 -10 -25z"/>
<path d="M6460 7210 c0 -5 5 -10 10 -10 6 0 10 5 10 10 0 6 -4 10 -10 10 -5 0 -10 -4 -10 -10z"/>
<path d="M3940 7145 c0 -37 4 -65 10 -65 6 0 10 28 10 65 0 37 -4 65 -10 65 -6 0 -10 -28 -10 -65z"/>
<path d="M2680 7190 c0 -5 5 -10 10 -10 6 0 10 5 10 10 0 6 -4 10 -10 10 -5 0 -10 -4 -10 -10z"/>
<path d="M5681 7108 c-1 -46 3 -78 9 -78 12 0 12 107 0 135 -6 14 -9 -5 -9 -57z"/>
<path d="M6440 7170 c0 -5 5 -10 10 -10 6 0 10 5 10 10 0 6 -4 10 -10 10 -5 0 -10 -4 -10 -10z"/>
<path d="M8451 7158 c-8 -13 -19 -32 -25 -43 -34 -65 -201 -243 -255 -273 l-40 -23 -21 21 c-29 29 -31 25 -9 -20 11 -22 25 -40 32 -40 16 0 227 197 227 212 0 5 17 29 38 53 31 35 82 117 82 131 0 12 -17 1 -29 -18z"/>
<path d="M4260 7155 c0 -8 5 -15 10 -15 6 0 10 7 10 15 0 8 -4 15 -10 15 -5 0 -10 -7 -10 -15z"/>
<path d="M3720 7110 c0 -27 5 -50 10 -50 6 0 10 23 10 50 0 28 -4 50 -10 50 -5 0 -10 -22 -10 -50z"/>
<path d="M6152 7148 c-19 -19 -14 -27 16 -25 l27 2 3 -57 c4 -70 22 -78 22 -10 0 80 -33 125 -68 90z"/>
<path d="M4300 7140 c0 -5 5 -10 10 -10 6 0 10 5 10 10 0 6 -4 10 -10 10 -5 0 -10 -4 -10 -10z"/>
<path d="M3280 7095 c0 -25 5 -45 10 -45 6 0 10 20 10 45 0 25 -4 45 -10 45 -5 0 -10 -20 -10 -45z"/>
<path d="M6420 7120 c0 -11 5 -20 10 -20 6 0 10 9 10 20 0 11 -4 20 -10 20 -5 0 -10 -9 -10 -20z"/>
<path d="M2800 7085 c0 -25 5 -45 10 -45 6 0 10 20 10 45 0 25 -4 45 -10 45 -5 0 -10 -20 -10 -45z"/>
<path d="M5082 7110 c0 -14 2 -19 5 -12 2 6 2 18 0 25 -3 6 -5 1 -5 -13z"/>
<path d="M6560 7110 c0 -11 5 -20 10 -20 6 0 10 9 10 20 0 11 -4 20 -10 20 -5 0 -10 -9 -10 -20z"/>
<path d="M8780 7105 c0 -8 5 -15 10 -15 6 0 10 7 10 15 0 8 -4 15 -10 15 -5 0 -10 -7 -10 -15z"/>
<path d="M1875 7100 c-3 -5 -12 -7 -20 -3 -11 4 -15 -2 -15 -21 0 -28 14 -35 24 -11 3 8 12 12 21 9 10 -4 15 0 15 15 0 22 -14 28 -25 11z"/>
<path d="M4240 7095 c0 -8 5 -15 10 -15 6 0 10 7 10 15 0 8 -4 15 -10 15 -5 0 -10 -7 -10 -15z"/>
<path d="M4285 7090 c-3 -5 -1 -10 4 -10 6 0 11 5 11 10 0 6 -2 10 -4 10 -3 0 -8 -4 -11 -10z"/>
<path d="M6120 7085 c0 -8 5 -15 10 -15 6 0 10 7 10 15 0 8 -4 15 -10 15 -5 0 -10 -7 -10 -15z"/>
<path d="M9708 7078 c12 -12 24 -19 28 -15 10 10 -16 37 -34 37 -13 0 -12 -4 6 -22z"/>
<path d="M3100 7041 c0 -22 5 -43 11 -47 6 -3 9 -15 6 -25 -3 -10 1 -23 9 -30 12 -9 14 -5 14 24 0 20 -4 39 -10 42 -5 3 -10 22 -10 41 0 19 -4 34 -10 34 -5 0 -10 -18 -10 -39z"/>
<path d="M6400 7060 c0 -11 5 -20 10 -20 6 0 10 9 10 20 0 11 -4 20 -10 20 -5 0 -10 -9 -10 -20z"/>
<path d="M980 7055 c0 -8 5 -15 10 -15 6 0 10 7 10 15 0 8 -4 15 -10 15 -5 0 -10 -7 -10 -15z"/>
<path d="M5980 7040 c0 -16 5 -30 10 -30 6 0 10 14 10 30 0 17 -4 30 -10 30 -5 0 -10 -13 -10 -30z"/>
<path d="M4220 7045 c0 -8 5 -15 10 -15 6 0 10 7 10 15 0 8 -4 15 -10 15 -5 0 -10 -7 -10 -15z"/>
<path d="M8804 7048 c3 -7 9 -21 12 -30 7 -21 24 -24 24 -5 -1 14 -24 47 -34 47 -4 0 -5 -6 -2 -12z"/>
<path d="M6100 7035 c0 -8 5 -15 10 -15 6 0 10 7 10 15 0 8 -4 15 -10 15 -5 0 -10 -7 -10 -15z"/>
<path d="M7760 7035 c0 -8 5 -15 10 -15 6 0 10 7 10 15 0 8 -4 15 -10 15 -5 0 -10 -7 -10 -15z"/>
<path d="M4260 7030 c0 -5 5 -10 10 -10 6 0 10 5 10 10 0 6 -4 10 -10 10 -5 0 -10 -4 -10 -10z"/>
<path d="M6040 7030 c0 -5 5 -10 10 -10 6 0 10 5 10 10 0 6 -4 10 -10 10 -5 0 -10 -4 -10 -10z"/>
<path d="M6700 7015 c0 -14 5 -25 10 -25 6 0 10 11 10 25 0 14 -4 25 -10 25 -5 0 -10 -11 -10 -25z"/>
<path d="M1820 7001 c0 -17 -4 -33 -10 -36 -5 -3 -10 -19 -10 -35 0 -16 -4 -32 -10 -35 -5 -3 -10 -15 -10 -26 0 -10 -4 -27 -9 -37 -5 -9 -13 -28 -19 -42 -9 -23 -56 -119 -89 -182 -7 -14 -32 -43 -54 -63 -46 -41 -46 -58 0 -26 41 30 79 86 134 196 11 22 23 48 28 57 5 10 9 27 9 37 0 11 5 23 10 26 6 3 10 17 10 30 0 13 5 27 10 30 6 3 10 19 10 35 0 16 5 32 10 35 6 3 10 19 10 36 0 16 -4 29 -10 29 -5 0 -10 -13 -10 -29z"/>
<path d="M3700 6990 c0 -22 5 -40 10 -40 6 0 10 18 10 40 0 22 -4 40 -10 40 -5 0 -10 -18 -10 -40z"/>
<path d="M5061 7000 c-12 -17 -19 -30 -17 -30 17 0 56 25 56 36 0 25 -17 23 -39 -6z"/>
<path d="M6378 7014 c-8 -8 3 -44 13 -44 5 0 9 11 9 25 0 24 -10 32 -22 19z"/>
<path d="M6540 6995 c0 -14 5 -25 10 -25 6 0 10 11 10 25 0 14 -4 25 -10 25 -5 0 -10 -11 -10 -25z"/>
<path d="M7060 6926 c0 -88 12 -115 46 -102 16 6 16 7 0 19 -13 9 -19 33 -23 90 -3 42 -10 77 -14 77 -5 0 -9 -38 -9 -84z"/>
<path d="M4240 6990 c0 -5 5 -10 10 -10 6 0 10 5 10 10 0 6 -4 10 -10 10 -5 0 -10 -4 -10 -10z"/>
<path d="M6012 6980 c-14 -22 -16 -80 -4 -80 12 0 32 47 32 75 0 30 -11 32 -28 5z"/>
<path d="M1000 6975 c0 -8 5 -15 10 -15 6 0 10 7 10 15 0 8 -4 15 -10 15 -5 0 -10 -7 -10 -15z"/>
<path d="M6080 6965 c0 -14 5 -25 10 -25 6 0 10 11 10 25 0 14 -4 25 -10 25 -5 0 -10 -11 -10 -25z"/>
<path d="M6280 6915 c0 -68 2 -75 20 -75 15 0 20 7 20 28 0 16 -3 32 -7 36 -8 8 -9 12 -11 59 -1 15 -6 27 -12 27 -6 0 -10 -32 -10 -75z"/>
<path d="M7740 6975 c0 -8 5 -15 10 -15 6 0 10 7 10 15 0 8 -4 15 -10 15 -5 0 -10 -7 -10 -15z"/>
<path d="M7180 6970 c0 -5 5 -10 10 -10 6 0 10 5 10 10 0 6 -4 10 -10 10 -5 0 -10 -4 -10 -10z"/>
<path d="M7783 6935 c-23 -51 -22 -54 8 -24 11 11 27 18 35 15 17 -7 19 25 2 42 -18 18 -23 15 -45 -33z"/>
<path d="M1240 6950 c0 -11 5 -20 10 -20 6 0 10 9 10 20 0 11 -4 20 -10 20 -5 0 -10 -9 -10 -20z"/>
<path d="M2780 6900 c0 -40 4 -70 10 -70 6 0 10 30 10 70 0 40 -4 70 -10 70 -6 0 -10 -30 -10 -70z"/>
<path d="M4927 6920 c-32 -28 -70 -53 -83 -56 -13 -3 -24 -12 -24 -19 0 -27 19 -24 56 7 38 32 120 118 113 118 -2 0 -30 -23 -62 -50z"/>
<path d="M3080 6931 c0 -17 5 -31 10 -31 6 0 10 9 10 20 0 11 0 23 1 27 0 4 -4 9 -10 11 -6 2 -11 -10 -11 -27z"/>
<path d="M5100 6915 c0 -19 5 -35 10 -35 6 0 10 16 10 35 0 19 -4 35 -10 35 -5 0 -10 -16 -10 -35z"/>
<path d="M6357 6942 c-8 -11 4 -62 14 -62 5 0 9 16 9 35 0 32 -12 46 -23 27z"/>
<path d="M7400 6885 c0 -37 4 -65 10 -65 6 0 10 28 10 65 0 37 -4 65 -10 65 -6 0 -10 -28 -10 -65z"/>
<path d="M6320 6930 c0 -5 5 -10 10 -10 6 0 10 5 10 10 0 6 -4 10 -10 10 -5 0 -10 -4 -10 -10z"/>
<path d="M7160 6930 c0 -5 5 -10 10 -10 6 0 10 5 10 10 0 6 -4 10 -10 10 -5 0 -10 -4 -10 -10z"/>
<path d="M7720 6925 c0 -8 5 -15 10 -15 6 0 10 7 10 15 0 8 -4 15 -10 15 -5 0 -10 -7 -10 -15z"/>
<path d="M2330 6910 c0 -5 14 -10 30 -10 17 0 30 5 30 10 0 6 -13 10 -30 10 -16 0 -30 -4 -30 -10z"/>
<path d="M3680 6885 c0 -19 5 -35 10 -35 6 0 10 16 10 35 0 19 -4 35 -10 35 -5 0 -10 -16 -10 -35z"/>
<path d="M4580 6910 c0 -5 5 -10 10 -10 6 0 10 5 10 10 0 6 -4 10 -10 10 -5 0 -10 -4 -10 -10z"/>
<path d="M6680 6880 c0 -16 5 -30 10 -30 6 0 10 14 10 30 0 17 -4 30 -10 30 -5 0 -10 -13 -10 -30z"/>
<path d="M6920 6898 c0 -7 4 -30 9 -51 5 -21 5 -39 0 -43 -12 -7 -11 -64 1 -64 6 0 10 15 10 34 0 19 5 38 10 41 14 8 13 35 -2 68 -14 28 -28 36 -28 15z"/>
<path d="M5688 6894 c-5 -4 -8 -23 -8 -43 0 -25 3 -32 11 -24 6 6 9 25 7 43 -2 17 -6 28 -10 24z"/>
<path d="M6060 6865 c0 -19 5 -35 10 -35 6 0 10 16 10 35 0 19 -4 35 -10 35 -5 0 -10 -16 -10 -35z"/>
<path d="M7140 6890 c0 -5 5 -10 10 -10 6 0 10 5 10 10 0 6 -4 10 -10 10 -5 0 -10 -4 -10 -10z"/>
<path d="M3940 6861 c0 -17 5 -33 10 -36 6 -3 10 -14 10 -24 0 -22 41 -61 63 -61 24 0 65 28 79 53 l10 20 -35 -21 c-19 -12 -41 -22 -49 -22 -26 0 -68 54 -68 88 0 18 -4 32 -10 32 -5 0 -10 -13 -10 -29z"/>
<path d="M6520 6870 c0 -11 5 -20 10 -20 6 0 10 9 10 20 0 11 -4 20 -10 20 -5 0 -10 -9 -10 -20z"/>
<path d="M7180 6859 c-26 -35 -24 -39 13 -32 22 4 27 11 27 34 0 37 -13 37 -40 -2z"/>
<path d="M3100 6855 c0 -14 5 -25 10 -25 6 0 10 11 10 25 0 14 -4 25 -10 25 -5 0 -10 -11 -10 -25z"/>
<path d="M7700 6870 c0 -5 5 -10 10 -10 6 0 10 5 10 10 0 6 -4 10 -10 10 -5 0 -10 -4 -10 -10z"/>
<path d="M1260 6856 c0 -8 5 -18 10 -21 6 -3 10 3 10 14 0 12 -4 21 -10 21 -5 0 -10 -6 -10 -14z"/>
<path d="M5320 6790 c0 -47 4 -80 10 -80 6 0 10 33 10 80 0 47 -4 80 -10 80 -6 0 -10 -33 -10 -80z"/>
<path d="M4620 6855 c0 -10 45 -75 52 -75 4 0 -3 18 -14 40 -19 34 -38 52 -38 35z"/>
<path d="M6340 6820 c0 -16 5 -30 10 -30 6 0 10 14 10 30 0 17 -4 30 -10 30 -5 0 -10 -13 -10 -30z"/>
<path d="M3060 6815 c0 -14 5 -25 10 -25 6 0 10 11 10 25 0 14 -4 25 -10 25 -5 0 -10 -11 -10 -25z"/>
<path d="M3720 6821 c0 -10 -7 -24 -16 -31 -13 -11 -16 -10 -21 8 -9 35 -23 26 -23 -14 0 -28 3 -35 15 -30 9 3 18 -1 21 -9 9 -23 24 -18 24 8 0 12 9 33 20 47 25 32 25 40 0 40 -13 0 -20 -7 -20 -19z"/>
<path d="M7680 6821 c0 -11 -4 -23 -10 -26 -12 -7 -14 -35 -2 -35 8 0 32 49 32 67 0 7 -4 13 -10 13 -5 0 -10 -9 -10 -19z"/>
<path d="M7900 6830 c0 -5 5 -10 10 -10 6 0 10 5 10 10 0 6 -4 10 -10 10 -5 0 -10 -4 -10 -10z"/>
<path d="M8900 6821 c0 -11 5 -23 10 -26 6 -3 10 -21 10 -38 0 -18 8 -41 16 -52 15 -19 16 -17 9 30 -4 28 -11 54 -16 60 -5 5 -9 17 -9 27 0 10 -4 18 -10 18 -5 0 -10 -9 -10 -19z"/>
<path d="M1280 6796 c0 -14 5 -26 10 -26 6 0 10 9 10 19 0 11 -4 23 -10 26 -6 4 -10 -5 -10 -19z"/>
<path d="M5120 6810 c0 -5 5 -10 10 -10 6 0 10 5 10 10 0 6 -4 10 -10 10 -5 0 -10 -4 -10 -10z"/>
<path d="M4850 6795 c-7 -9 -10 -18 -7 -21 10 -11 37 5 37 21 0 19 -14 19 -30 0z"/>
<path d="M5660 6780 c0 -11 -5 -30 -12 -43 -24 -48 -28 -57 -28 -76 0 -11 -4 -23 -10 -26 -12 -7 -14 -35 -2 -35 10 0 32 50 32 71 0 10 5 21 10 24 6 3 10 17 10 30 0 13 5 27 10 30 6 3 10 15 10 26 0 10 -4 19 -10 19 -5 0 -10 -9 -10 -20z"/>
<path d="M7920 6791 c0 -13 29 -35 37 -28 7 8 -15 37 -28 37 -5 0 -9 -4 -9 -9z"/>
<path d="M6035 6738 c-12 -101 -16 -248 -7 -248 5 0 12 37 16 83 3 45 9 112 12 150 8 81 -11 94 -21 15z"/>
<path d="M6660 6765 c0 -14 5 -25 10 -25 6 0 10 11 10 25 0 14 -4 25 -10 25 -5 0 -10 -11 -10 -25z"/>
<path d="M6991 6764 c-9 -21 -9 -25 1 -20 7 3 21 9 31 12 21 8 22 20 1 28 -21 8 -19 9 -33 -20z"/>
<path d="M2766 6743 c-9 -60 -7 -286 4 -303 6 -10 10 44 10 163 0 97 -2 177 -4 177 -2 0 -6 -17 -10 -37z"/>
<path d="M7220 6750 c0 -16 5 -30 10 -30 6 0 10 14 10 30 0 17 -4 30 -10 30 -5 0 -10 -13 -10 -30z"/>
<path d="M4684 6748 c3 -7 9 -21 12 -30 4 -10 11 -18 16 -18 5 0 7 6 4 13 -3 6 -9 20 -12 30 -4 9 -11 17 -16 17 -5 0 -7 -6 -4 -12z"/>
<path d="M6500 6750 c0 -5 5 -10 10 -10 6 0 10 5 10 10 0 6 -4 10 -10 10 -5 0 -10 -4 -10 -10z"/>
<path d="M1300 6735 c0 -8 5 -15 10 -15 6 0 10 7 10 15 0 8 -4 15 -10 15 -5 0 -10 -7 -10 -15z"/>
<path d="M3040 6720 c0 -16 5 -30 10 -30 6 0 10 14 10 30 0 17 -4 30 -10 30 -5 0 -10 -13 -10 -30z"/>
<path d="M8140 6730 c0 -11 5 -20 10 -20 6 0 10 9 10 20 0 11 -4 20 -10 20 -5 0 -10 -9 -10 -20z"/>
<path d="M5140 6730 c0 -5 5 -10 10 -10 6 0 10 5 10 10 0 6 -4 10 -10 10 -5 0 -10 -4 -10 -10z"/>
<path d="M7960 6730 c0 -5 5 -10 10 -10 6 0 10 5 10 10 0 6 -4 10 -10 10 -5 0 -10 -4 -10 -10z"/>
<path d="M3520 6685 c0 -25 5 -45 10 -45 6 0 10 20 10 45 0 25 -4 45 -10 45 -5 0 -10 -20 -10 -45z"/>
<path d="M4860 6715 c0 -8 5 -15 10 -15 6 0 10 7 10 15 0 8 -4 15 -10 15 -5 0 -10 -7 -10 -15z"/>
<path d="M3640 6683 c0 -33 2 -36 15 -23 8 9 12 24 9 38 -10 35 -24 26 -24 -15z"/>
<path d="M6960 6701 c0 -11 -4 -23 -10 -26 -5 -3 -10 -15 -10 -26 0 -10 5 -19 10 -19 6 0 10 11 10 24 0 14 5 28 10 31 6 3 10 13 10 21 0 8 -4 14 -10 14 -5 0 -10 -9 -10 -19z"/>
<path d="M5696 6691 c-17 -19 -14 -47 4 -36 5 3 11 1 15 -5 13 -21 25 -9 25 25 0 40 -17 46 -44 16z"/>
<path d="M6900 6690 c0 -11 5 -20 10 -20 6 0 10 9 10 20 0 11 -4 20 -10 20 -5 0 -10 -9 -10 -20z"/>
<path d="M1320 6690 c0 -5 5 -10 10 -10 6 0 10 5 10 10 0 6 -4 10 -10 10 -5 0 -10 -4 -10 -10z"/>
<path d="M3680 6680 c0 -5 5 -10 10 -10 6 0 10 5 10 10 0 6 -4 10 -10 10 -5 0 -10 -4 -10 -10z"/>
<path d="M7240 6665 c0 -8 5 -15 10 -15 6 0 10 7 10 15 0 8 -4 15 -10 15 -5 0 -10 -7 -10 -15z"/>
<path d="M7587 6651 c-24 -41 -74 -81 -101 -81 -30 0 -66 40 -66 73 0 15 -4 27 -10 27 -13 0 -13 -41 0 -76 24 -63 88 -73 136 -21 33 34 74 91 74 101 0 15 -17 3 -33 -23z"/>
<path d="M4699 6651 c-13 -11 -22 -22 -19 -24 10 -10 60 6 60 19 0 22 -17 25 -41 5z"/>
<path d="M8920 6645 c0 -14 5 -25 10 -25 6 0 10 11 10 25 0 14 -4 25 -10 25 -5 0 -10 -11 -10 -25z"/>
<path d="M1340 6647 c0 -7 13 -28 30 -47 16 -19 29 -40 30 -47 0 -13 52 -53 69 -53 18 0 12 17 -8 23 -11 2 -39 34 -63 71 -42 64 -58 79 -58 53z"/>
<path d="M3020 6636 c0 -14 5 -26 10 -26 6 0 10 7 10 15 0 8 0 18 1 22 0 4 -4 9 -10 11 -6 2 -11 -8 -11 -22z"/>
<path d="M3060 6650 c0 -5 5 -10 10 -10 6 0 10 5 10 10 0 6 -4 10 -10 10 -5 0 -10 -4 -10 -10z"/>
<path d="M5340 6626 c0 -19 5 -38 10 -41 6 -4 10 10 10 34 0 23 -4 41 -10 41 -5 0 -10 -15 -10 -34z"/>
<path d="M4880 6635 c0 -8 5 -15 10 -15 6 0 10 7 10 15 0 8 -4 15 -10 15 -5 0 -10 -7 -10 -15z"/>
<path d="M6640 6600 c0 -27 5 -50 10 -50 6 0 10 23 10 50 0 28 -4 50 -10 50 -5 0 -10 -22 -10 -50z"/>
<path d="M5660 6625 c0 -8 5 -15 10 -15 6 0 10 7 10 15 0 8 -4 15 -10 15 -5 0 -10 -7 -10 -15z"/>
<path d="M6880 6620 c0 -11 5 -20 10 -20 6 0 10 9 10 20 0 11 -4 20 -10 20 -5 0 -10 -9 -10 -20z"/>
<path d="M3620 6605 c0 -14 5 -25 10 -25 6 0 10 11 10 25 0 14 -4 25 -10 25 -5 0 -10 -11 -10 -25z"/>
<path d="M10100 6615 c0 -8 5 -15 10 -15 6 0 10 7 10 15 0 8 -4 15 -10 15 -5 0 -10 -7 -10 -15z"/>
<path d="M4613 6608 c-6 -7 -13 -22 -17 -33 -6 -17 -4 -17 18 4 15 14 26 28 26 33 0 12 -16 10 -27 -4z"/>
<path d="M7985 6580 c-14 -22 -29 -40 -35 -40 -13 0 -70 -85 -70 -104 0 -9 5 -16 10 -16 6 0 10 8 10 18 0 27 98 142 120 142 13 0 20 7 20 20 0 33 -28 23 -55 -20z"/>
<path d="M4740 6545 c0 -37 4 -65 10 -65 6 0 10 28 10 65 0 37 -4 65 -10 65 -6 0 -10 -28 -10 -65z"/>
<path d="M5740 6585 c0 -8 5 -15 10 -15 6 0 10 7 10 15 0 8 -4 15 -10 15 -5 0 -10 -7 -10 -15z"/>
<path d="M6920 6590 c0 -5 5 -10 10 -10 6 0 10 5 10 10 0 6 -4 10 -10 10 -5 0 -10 -4 -10 -10z"/>
<path d="M8900 6589 c0 -6 -14 -31 -31 -55 -17 -25 -28 -48 -25 -51 7 -7 4 -10 44 49 33 48 39 68 22 68 -5 0 -10 -5 -10 -11z"/>
<path d="M3000 6550 c0 -16 5 -30 10 -30 6 0 10 14 10 30 0 17 -4 30 -10 30 -5 0 -10 -13 -10 -30z"/>
<path d="M5580 6566 c0 -24 -42 -94 -77 -128 -29 -28 -36 -31 -60 -22 -16 5 -32 19 -38 32 -5 12 -13 22 -17 22 -15 0 -8 -22 18 -56 19 -24 34 -34 54 -34 20 0 35 10 54 34 14 19 26 39 26 44 0 5 9 17 20 27 11 10 20 26 20 36 0 10 5 21 10 24 6 3 10 13 10 21 0 8 -4 14 -10 14 -5 0 -10 -6 -10 -14z"/>
<path d="M6860 6560 c0 -11 5 -20 10 -20 6 0 10 9 10 20 0 11 -4 20 -10 20 -5 0 -10 -9 -10 -20z"/>
<path d="M8180 6520 c0 -33 4 -60 10 -60 6 0 10 27 10 60 0 33 -4 60 -10 60 -6 0 -10 -27 -10 -60z"/>
<path d="M4606 6527 c-26 -34 -35 -77 -16 -77 6 0 10 7 10 15 0 8 9 31 20 51 27 48 19 54 -14 11z"/>
<path d="M3600 6506 c0 -19 -4 -38 -10 -41 -5 -3 -10 -19 -10 -35 0 -16 -4 -32 -10 -35 -5 -3 -10 -17 -10 -31 0 -13 5 -24 10 -24 6 0 10 13 10 29 0 17 5 33 10 36 6 3 10 19 10 35 0 16 5 32 10 35 6 3 10 19 10 36 0 16 -4 29 -10 29 -5 0 -10 -15 -10 -34z"/>
<path d="M4880 6530 c0 -5 5 -10 10 -10 6 0 10 5 10 10 0 6 -4 10 -10 10 -5 0 -10 -4 -10 -10z"/>
<path d="M5360 6520 c0 -11 5 -20 10 -20 6 0 10 9 10 20 0 11 -4 20 -10 20 -5 0 -10 -9 -10 -20z"/>
<path d="M8040 6505 c0 -19 5 -35 10 -35 6 0 10 16 10 35 0 19 -4 35 -10 35 -5 0 -10 -16 -10 -35z"/>
<path d="M3500 6465 c0 -37 4 -65 10 -65 6 0 10 28 10 65 0 37 -4 65 -10 65 -6 0 -10 -28 -10 -65z"/>
<path d="M6840 6501 c0 -11 -4 -23 -10 -26 -5 -3 -10 -15 -10 -25 0 -11 -9 -35 -20 -55 -11 -20 -20 -40 -20 -46 0 -6 -14 -31 -31 -55 -30 -44 -33 -72 -4 -43 23 24 95 170 95 195 0 12 5 26 10 29 6 3 10 15 10 26 0 10 -4 19 -10 19 -5 0 -10 -9 -10 -19z"/>
<path d="M2980 6475 c0 -14 5 -25 10 -25 6 0 10 11 10 25 0 14 -4 25 -10 25 -5 0 -10 -11 -10 -25z"/>
<path d="M10104 6468 c3 -7 9 -21 12 -30 10 -28 26 -21 22 9 -2 18 -10 29 -22 31 -12 3 -16 0 -12 -10z"/>
<path d="M6626 6454 c-9 -24 -7 -77 4 -94 7 -11 10 3 10 48 0 63 -3 74 -14 46z"/>
<path d="M4727 6453 c-11 -10 -8 -53 3 -53 6 0 10 14 10 30 0 31 -2 35 -13 23z"/>
<path d="M2960 6406 c0 -14 -4 -28 -10 -31 -5 -3 -10 -17 -10 -30 0 -13 -4 -27 -10 -30 -12 -8 -13 -35 -1 -35 5 0 11 9 14 21 3 12 10 19 15 16 4 -3 7 7 4 22 -2 16 1 32 7 35 14 9 15 56 1 56 -5 0 -10 -11 -10 -24z"/>
<path d="M8775 6400 c-10 -11 -14 -20 -9 -20 5 0 15 9 22 20 7 11 11 20 9 20 -2 0 -12 -9 -22 -20z"/>
<path d="M8020 6390 c0 -11 5 -20 10 -20 6 0 10 9 10 20 0 11 -4 20 -10 20 -5 0 -10 -9 -10 -20z"/>
<path d="M2780 6341 c0 -28 5 -53 10 -56 6 -3 10 -16 10 -29 0 -22 17 -46 32 -46 5 0 4 9 -2 20 -5 11 -14 29 -20 40 -5 11 -10 42 -10 70 0 27 -4 50 -10 50 -5 0 -10 -22 -10 -49z"/>
<path d="M1440 6370 c0 -5 7 -10 15 -10 8 0 15 5 15 10 0 6 -7 10 -15 10 -8 0 -15 -4 -15 -10z"/>
<path d="M4580 6362 c0 -25 41 -62 68 -62 12 0 26 9 32 20 12 22 1 27 -19 8 -10 -11 -18 -7 -42 20 -33 37 -39 39 -39 14z"/>
<path d="M4700 6370 c0 -5 5 -10 10 -10 6 0 10 5 10 10 0 6 -4 10 -10 10 -5 0 -10 -4 -10 -10z"/>
<path d="M3488 6337 c-10 -22 -10 -79 -2 -101 11 -29 39 -18 57 22 19 44 21 62 7 62 -5 0 -10 -11 -10 -24 0 -29 -27 -56 -35 -35 -2 8 -6 32 -7 54 -2 29 -5 35 -10 22z"/>
<path d="M10126 6341 c-4 -7 -5 -15 -2 -18 9 -9 19 4 14 18 -4 11 -6 11 -12 0z"/>
<path d="M7976 6309 c-16 -16 -39 -29 -53 -29 -14 0 -21 -4 -18 -10 3 -5 21 -10 39 -10 27 0 35 6 54 40 24 46 18 49 -22 9z"/>
<path d="M6640 6286 c0 -25 12 -38 45 -50 18 -7 18 -5 -3 17 -12 13 -22 31 -22 40 0 9 -4 17 -10 17 -5 0 -10 -11 -10 -24z"/>
<path d="M5380 6290 c0 -5 14 -10 30 -10 17 0 30 5 30 10 0 6 -13 10 -30 10 -16 0 -30 -4 -30 -10z"/>
<path d="M2900 6250 c0 -5 5 -10 10 -10 6 0 10 5 10 10 0 6 -4 10 -10 10 -5 0 -10 -4 -10 -10z"/>
<path d="M5890 6250 c0 -5 7 -10 15 -10 8 0 15 5 15 10 0 6 -7 10 -15 10 -8 0 -15 -4 -15 -10z"/>
<path d="M10119 6228 c-1 -1 -3 -20 -4 -40 -4 -44 12 -62 49 -52 31 7 34 20 7 27 -12 3 -21 15 -23 33 -2 15 -9 29 -15 32 -7 2 -13 2 -14 0z"/>
<path d="M8590 6165 c-7 -9 -10 -18 -7 -22 8 -7 37 15 37 28 0 14 -16 11 -30 -6z"/>
<path d="M8501 6051 c-30 -42 -26 -49 9 -16 30 29 38 45 21 45 -5 0 -19 -13 -30 -29z"/>
<path d="M8394 5928 c-67 -70 -166 -190 -128 -155 17 15 33 27 37 27 13 0 157 159 157 174 0 16 -20 1 -66 -46z"/>
<path d="M9824 5878 c-35 -33 -64 -69 -64 -80 0 -28 9 -23 65 40 29 31 64 64 79 71 31 17 34 31 5 31 -12 0 -48 -26 -85 -62z"/>
<path d="M9950 5930 c0 -5 11 -10 25 -10 14 0 25 5 25 10 0 6 -11 10 -25 10 -14 0 -25 -4 -25 -10z"/>
<path d="M9612 5648 c-7 -7 -12 -22 -12 -34 0 -12 -13 -33 -28 -46 -45 -38 -115 -148 -93 -148 13 0 41 35 41 51 0 8 16 31 36 50 33 32 94 118 94 132 0 11 -25 8 -38 -5z"/>
<path d="M6900 5590 c0 -16 5 -30 10 -30 6 0 10 14 10 30 0 17 -4 30 -10 30 -5 0 -10 -13 -10 -30z"/>
<path d="M7080 5526 c0 -12 65 -124 82 -143 26 -28 61 -29 96 -5 15 10 39 24 55 32 15 7 27 17 27 22 0 11 -3 11 -52 -13 -95 -48 -88 -47 -118 -11 -15 18 -38 53 -50 78 -13 24 -27 44 -32 44 -4 0 -8 -2 -8 -4z"/>
<path d="M6880 5454 c0 -31 -7 -56 -21 -76 -20 -27 -26 -29 -60 -24 -22 3 -39 3 -39 0 0 -16 38 -33 73 -34 32 0 39 4 48 27 16 44 24 153 10 153 -6 0 -11 -18 -11 -46z"/>
<path d="M8020 5434 c0 -14 4 -23 10 -19 6 3 10 15 10 26 0 10 -4 19 -10 19 -5 0 -10 -12 -10 -26z"/>
<path d="M6600 5345 c0 -8 5 -15 10 -15 6 0 10 7 10 15 0 8 -4 15 -10 15 -5 0 -10 -7 -10 -15z"/>
<path d="M8000 5350 c0 -5 5 -10 10 -10 6 0 10 5 10 10 0 6 -4 10 -10 10 -5 0 -10 -4 -10 -10z"/>
<path d="M9145 5310 c-3 -5 -16 -10 -28 -10 -24 0 -163 -66 -173 -81 -14 -23 7 -17 81 21 43 22 86 40 96 40 10 0 21 5 24 10 3 6 19 10 36 10 16 0 29 5 29 10 0 6 -13 10 -29 10 -17 0 -33 -4 -36 -10z"/>
<path d="M6660 5170 c0 -6 4 -18 9 -28 5 -9 14 -37 21 -62 7 -25 16 -53 21 -62 5 -10 9 -29 9 -43 0 -14 5 -25 10 -25 6 0 10 4 10 9 0 21 -21 118 -29 136 -5 11 -15 35 -23 53 -12 31 -28 43 -28 22z"/>
<path d="M8798 5103 c-20 -23 -58 -90 -58 -103 0 -15 20 -12 20 3 0 6 9 23 21 37 52 66 61 80 46 80 -8 0 -21 -8 -29 -17z"/>
<path d="M7520 5090 c0 -5 5 -10 10 -10 6 0 10 5 10 10 0 6 -4 10 -10 10 -5 0 -10 -4 -10 -10z"/>
<path d="M8000 5050 c0 -5 5 -10 10 -10 6 0 10 5 10 10 0 6 -4 10 -10 10 -5 0 -10 -4 -10 -10z"/>
<path d="M8040 4990 c0 -5 5 -10 10 -10 6 0 10 5 10 10 0 6 -4 10 -10 10 -5 0 -10 -4 -10 -10z"/>
<path d="M8072 4940 c13 -20 28 -27 28 -12 0 10 -22 32 -32 32 -5 0 -3 -9 4 -20z"/>
<path d="M8720 4945 c0 -8 5 -15 10 -15 6 0 10 7 10 15 0 8 -4 15 -10 15 -5 0 -10 -7 -10 -15z"/>
<path d="M7460 4892 c0 -4 9 -13 20 -20 22 -13 27 -3 8 16 -14 14 -28 16 -28 4z"/>
<path d="M8720 4845 c0 -20 18 -52 53 -93 15 -18 27 -37 27 -42 0 -6 11 -10 25 -10 35 0 32 29 -4 41 -30 11 -81 76 -81 104 0 8 -4 15 -10 15 -5 0 -10 -7 -10 -15z"/>
<path d="M6760 4780 c0 -5 5 -10 10 -10 6 0 10 5 10 10 0 6 -4 10 -10 10 -5 0 -10 -4 -10 -10z"/>
<path d="M7620 4732 c0 -5 9 -17 20 -27 22 -20 26 -9 6 18 -14 18 -26 22 -26 9z"/>
<path d="M6780 4670 c0 -16 5 -30 10 -30 6 0 10 14 10 30 0 17 -4 30 -10 30 -5 0 -10 -13 -10 -30z"/>
<path d="M8886 4598 c-21 -30 -20 -38 5 -38 12 0 23 -8 26 -20 3 -11 9 -20 14 -20 12 0 11 37 -1 45 -5 3 -10 17 -10 31 0 30 -14 31 -34 2z"/>
<path d="M8460 4592 c0 -4 27 -34 60 -67 33 -33 60 -54 60 -48 0 23 -63 104 -87 114 -30 11 -33 11 -33 1z"/>
<path d="M6798 4522 c-6 -84 -25 -125 -94 -202 -52 -59 -60 -70 -49 -70 12 0 109 98 136 137 26 37 29 50 29 122 0 98 -15 107 -22 13z"/>
<path d="M8660 4390 c0 -5 5 -10 10 -10 6 0 10 5 10 10 0 6 -4 10 -10 10 -5 0 -10 -4 -10 -10z"/>
<path d="M8750 4350 c0 -5 5 -10 10 -10 6 0 10 5 10 10 0 6 -4 10 -10 10 -5 0 -10 -4 -10 -10z"/>
<path d="M6567 4181 c-29 -27 -48 -53 -44 -57 8 -8 82 59 98 89 16 29 0 19 -54 -32z"/>
<path d="M7920 4172 c0 -10 -5 -23 -12 -30 -9 -9 -8 -17 2 -37 21 -39 30 -30 30 30 0 30 -4 55 -10 55 -5 0 -10 -8 -10 -18z"/>
<path d="M6359 3997 c-36 -34 -95 -86 -130 -114 -35 -29 -85 -69 -110 -90 -25 -21 -59 -48 -75 -59 -16 -12 -26 -25 -22 -29 10 -10 147 86 203 144 27 28 54 51 59 51 12 0 156 141 156 152 0 17 -18 5 -81 -55z"/>
<path d="M7900 4050 c0 -5 7 -10 15 -10 8 0 15 5 15 10 0 6 -7 10 -15 10 -8 0 -15 -4 -15 -10z"/>
<path d="M7900 3875 c0 -25 5 -45 10 -45 6 0 10 20 10 45 0 25 -4 45 -10 45 -5 0 -10 -20 -10 -45z"/>
<path d="M7880 3795 c0 -8 5 -15 10 -15 6 0 10 7 10 15 0 8 -4 15 -10 15 -5 0 -10 -7 -10 -15z"/>
<path d="M7860 3752 c0 -20 30 -40 50 -35 25 7 26 19 3 26 -10 2 -26 8 -35 12 -11 4 -18 3 -18 -3z"/>
<path d="M5960 3670 c0 -5 5 -10 10 -10 6 0 10 5 10 10 0 6 -4 10 -10 10 -5 0 -10 -4 -10 -10z"/>
<path d="M7482 3480 c-22 -21 -29 -40 -14 -40 10 0 52 43 52 53 0 13 -16 7 -38 -13z"/>
<path d="M7880 3485 c0 -17 2 -18 24 -9 23 9 20 24 -4 24 -11 0 -20 -7 -20 -15z"/>
<path d="M7540 3470 c0 -5 5 -10 11 -10 5 0 7 5 4 10 -3 6 -8 10 -11 10 -2 0 -4 -4 -4 -10z"/>
<path d="M7426 3431 c-4 -7 -5 -15 -2 -18 9 -9 19 4 14 18 -4 11 -6 11 -12 0z"/>
<path d="M5700 3390 c0 -5 5 -10 10 -10 6 0 10 5 10 10 0 6 -4 10 -10 10 -5 0 -10 -4 -10 -10z"/>
<path d="M7377 3385 c-4 -8 -21 -21 -39 -29 -44 -19 -206 -176 -182 -176 9 0 45 26 79 58 34 31 85 76 113 100 49 40 64 62 43 62 -5 0 -11 -7 -14 -15z"/>
<path d="M5680 3340 c0 -5 5 -10 10 -10 6 0 10 5 10 10 0 6 -4 10 -10 10 -5 0 -10 -4 -10 -10z"/>
<path d="M5660 3290 c0 -5 5 -10 10 -10 6 0 10 5 10 10 0 6 -4 10 -10 10 -5 0 -10 -4 -10 -10z"/>
<path d="M7050 3109 c0 -5 5 -7 10 -4 6 3 10 8 10 11 0 2 -4 4 -10 4 -5 0 -10 -5 -10 -11z"/>
<path d="M6740 3083 c-25 -3 -49 -8 -54 -14 -6 -5 -20 -9 -33 -9 -13 0 -31 -4 -41 -9 -9 -5 -38 -19 -65 -32 -49 -23 -74 -45 -64 -55 3 -3 26 8 51 25 24 17 51 31 60 31 8 0 18 5 21 10 3 6 19 10 34 10 15 0 31 4 37 9 5 5 34 12 64 14 30 3 75 10 100 15 l45 9 -55 0 c-30 0 -75 -2 -100 -4z"/>
<path d="M5620 3050 c0 -5 5 -10 10 -10 6 0 10 5 10 10 0 6 -4 10 -10 10 -5 0 -10 -4 -10 -10z"/>
<path d="M3035 2989 c-22 -4 -68 -8 -102 -8 -35 -1 -63 -5 -63 -11 0 -6 40 -10 99 -10 56 0 103 4 106 10 3 6 15 10 26 10 10 0 19 5 19 10 0 11 -28 11 -85 -1z"/>
<path d="M5640 2990 c0 -5 5 -10 10 -10 6 0 10 5 10 10 0 6 -4 10 -10 10 -5 0 -10 -4 -10 -10z"/>
<path d="M6442 2943 c-29 -12 -58 -113 -32 -113 6 0 10 6 10 14 0 7 12 34 26 60 25 44 24 51 -4 39z"/>
<path d="M2680 2910 c0 -5 5 -10 10 -10 6 0 10 5 10 10 0 6 -4 10 -10 10 -5 0 -10 -4 -10 -10z"/>
<path d="M5680 2885 c0 -8 5 -15 10 -15 6 0 10 7 10 15 0 8 -4 15 -10 15 -5 0 -10 -7 -10 -15z"/>
<path d="M3240 2850 c0 -28 3 -30 35 -30 19 0 35 5 35 10 0 6 -9 10 -21 10 -12 0 -23 8 -26 20 -8 30 -23 24 -23 -10z"/>
<path d="M5700 2810 c0 -11 5 -20 10 -20 6 0 10 9 10 20 0 11 -4 20 -10 20 -5 0 -10 -9 -10 -20z"/>
<path d="M2545 2810 c-3 -5 -1 -10 4 -10 6 0 11 5 11 10 0 6 -2 10 -4 10 -3 0 -8 -4 -11 -10z"/>
<path d="M2475 2750 c-3 -5 -17 -10 -31 -10 -13 0 -24 -4 -24 -10 0 -5 6 -10 13 -10 18 0 67 24 67 33 0 10 -18 9 -25 -3z"/>
<path d="M3460 2698 c1 -13 60 -88 60 -76 0 3 -10 25 -22 47 -21 40 -38 53 -38 29z"/>
<path d="M6340 2666 c0 -8 -2 -21 -5 -28 -3 -8 9 -28 26 -46 36 -36 55 -35 21 1 -13 14 -22 36 -22 55 0 18 -4 32 -10 32 -5 0 -10 -6 -10 -14z"/>
<path d="M4120 2630 c0 -5 16 -10 35 -10 19 0 35 5 35 10 0 6 -16 10 -35 10 -19 0 -35 -4 -35 -10z"/>
<path d="M2280 2605 c0 -14 5 -25 10 -25 6 0 10 11 10 25 0 14 -4 25 -10 25 -5 0 -10 -11 -10 -25z"/>
<path d="M5760 2601 c0 -16 5 -33 10 -36 6 -3 10 -17 10 -30 0 -13 5 -27 10 -30 6 -3 10 -24 10 -46 0 -21 5 -39 10 -39 6 0 10 15 10 34 0 19 -4 38 -10 41 -5 3 -10 19 -10 35 0 16 -4 32 -10 35 -5 3 -10 17 -10 30 0 13 -4 27 -10 30 -6 4 -10 -6 -10 -24z"/>
<path d="M3540 2613 c0 -5 11 -13 25 -20 29 -13 33 -6 8 13 -20 15 -33 18 -33 7z"/>
<path d="M3958 2593 c-7 -14 -28 -34 -45 -42 -34 -17 -43 -31 -18 -31 8 0 30 16 50 35 19 20 35 42 35 50 0 22 -7 18 -22 -12z"/>
<path d="M4380 2560 c0 -5 5 -10 10 -10 6 0 10 5 10 10 0 6 -4 10 -10 10 -5 0 -10 -4 -10 -10z"/>
<path d="M6480 2530 c0 -5 7 -10 15 -10 8 0 15 5 15 10 0 6 -7 10 -15 10 -8 0 -15 -4 -15 -10z"/>
<path d="M2508 2523 c-10 -2 -18 -9 -18 -14 0 -12 3 -12 36 6 28 14 19 18 -18 8z"/>
<path d="M2590 2510 c0 -5 5 -10 10 -10 6 0 10 5 10 10 0 6 -4 10 -10 10 -5 0 -10 -4 -10 -10z"/>
<path d="M3691 2501 c11 -17 24 -21 64 -21 49 0 105 17 105 33 0 11 -28 8 -36 -4 -7 -12 -94 -8 -127 6 -17 7 -18 6 -6 -14z"/>
<path d="M4960 2511 c0 -13 29 -35 37 -28 7 8 -15 37 -28 37 -5 0 -9 -4 -9 -9z"/>
<path d="M2380 2490 c0 -5 16 -10 35 -10 19 0 35 5 35 10 0 6 -16 10 -35 10 -19 0 -35 -4 -35 -10z"/>
<path d="M2641 2493 c1 -13 90 -75 97 -68 10 10 -12 38 -44 56 -31 19 -54 24 -53 12z"/>
<path d="M4660 2490 c0 -5 5 -10 10 -10 6 0 10 5 10 10 0 6 -4 10 -10 10 -5 0 -10 -4 -10 -10z"/>
<path d="M6560 2475 c0 -8 5 -15 10 -15 6 0 10 7 10 15 0 8 -4 15 -10 15 -5 0 -10 -7 -10 -15z"/>
<path d="M4610 2470 c0 -5 5 -10 10 -10 6 0 10 5 10 10 0 6 -4 10 -10 10 -5 0 -10 -4 -10 -10z"/>
<path d="M4560 2450 c0 -5 5 -10 10 -10 6 0 10 5 10 10 0 6 -4 10 -10 10 -5 0 -10 -4 -10 -10z"/>
<path d="M4406 2424 c-9 -24 -9 -24 34 -24 46 0 51 10 13 28 -35 16 -40 15 -47 -4z"/>
<path d="M4500 2430 c0 -5 7 -10 15 -10 8 0 15 5 15 10 0 6 -7 10 -15 10 -8 0 -15 -4 -15 -10z"/>
<path d="M4812 2380 c-6 -11 -12 -38 -12 -60 0 -39 2 -47 28 -97 7 -13 12 -32 12 -43 0 -11 5 -20 10 -20 12 0 13 32 1 46 -11 12 -33 153 -26 165 4 5 17 9 31 9 14 0 22 4 19 10 -11 17 -50 11 -63 -10z"/>
<path d="M2240 2350 c0 -5 7 -10 15 -10 8 0 15 5 15 10 0 6 -7 10 -15 10 -8 0 -15 -4 -15 -10z"/>
<path d="M4880 2350 c0 -5 5 -10 10 -10 6 0 10 5 10 10 0 6 -4 10 -10 10 -5 0 -10 -4 -10 -10z"/>
<path d="M6426 2341 c-4 -7 -5 -15 -2 -18 9 -9 19 4 14 18 -4 11 -6 11 -12 0z"/>
<path d="M1410 2330 c0 -5 18 -10 40 -10 22 0 40 5 40 10 0 6 -18 10 -40 10 -22 0 -40 -4 -40 -10z"/>
<path d="M2846 2294 c-4 -15 -4 -29 -1 -32 7 -7 34 29 35 46 0 23 -28 12 -34 -14z"/>
<path d="M1620 2290 c0 -5 7 -10 15 -10 8 0 15 5 15 10 0 6 -7 10 -15 10 -8 0 -15 -4 -15 -10z"/>
<path d="M1830 2290 c0 -5 7 -10 15 -10 8 0 15 5 15 10 0 6 -7 10 -15 10 -8 0 -15 -4 -15 -10z"/>
<path d="M4940 2290 c0 -5 7 -10 15 -10 8 0 15 5 15 10 0 6 -7 10 -15 10 -8 0 -15 -4 -15 -10z"/>
<path d="M1680 2270 c0 -5 5 -10 10 -10 6 0 10 5 10 10 0 6 -4 10 -10 10 -5 0 -10 -4 -10 -10z"/>
<path d="M1780 2270 c0 -5 7 -10 15 -10 8 0 15 5 15 10 0 6 -7 10 -15 10 -8 0 -15 -4 -15 -10z"/>
<path d="M6068 2243 c-16 -20 -28 -46 -28 -59 0 -13 -4 -26 -10 -29 -12 -7 -13 -25 -2 -25 4 0 13 15 21 33 29 66 50 88 79 81 l27 -7 -19 22 c-26 29 -36 26 -68 -16z"/>
<path d="M2402 2233 c3 -16 66 -58 75 -49 6 5 -58 65 -70 66 -5 0 -7 -7 -5 -17z"/>
<path d="M5800 2161 c0 -22 -4 -43 -10 -46 -5 -3 -10 -19 -10 -35 0 -16 -4 -32 -10 -35 -5 -3 -10 -15 -10 -26 0 -10 5 -19 10 -19 6 0 10 9 10 19 0 11 5 23 10 26 6 3 10 17 10 30 0 13 5 27 10 30 6 3 10 26 10 51 0 24 -4 44 -10 44 -5 0 -10 -18 -10 -39z"/>
<path d="M2630 2170 c0 -5 5 -10 10 -10 6 0 10 5 10 10 0 6 -4 10 -10 10 -5 0 -10 -4 -10 -10z"/>
<path d="M2764 2155 c-19 -29 -11 -44 14 -29 19 12 29 54 13 54 -6 0 -18 -11 -27 -25z"/>
<path d="M1331 2142 c-13 -24 -15 -112 -2 -112 8 0 25 120 17 128 -2 2 -9 -5 -15 -16z"/>
<path d="M2680 2150 c0 -5 5 -10 10 -10 6 0 10 5 10 10 0 6 -4 10 -10 10 -5 0 -10 -4 -10 -10z"/>
<path d="M6280 2130 c0 -5 7 -10 15 -10 8 0 15 5 15 10 0 6 -7 10 -15 10 -8 0 -15 -4 -15 -10z"/>
<path d="M1505 2010 c-22 -16 -45 -29 -51 -30 -15 0 -39 -29 -31 -36 3 -3 26 8 51 25 35 25 60 33 111 38 59 5 68 4 90 -17 14 -13 25 -32 25 -42 0 -10 5 -18 10 -18 6 0 10 6 10 14 0 8 -4 18 -10 21 -5 3 -10 16 -10 29 0 36 -19 46 -89 46 -57 -1 -72 -5 -106 -30z"/>
<path d="M4920 1990 c0 -5 5 -10 10 -10 6 0 10 5 10 10 0 6 -4 10 -10 10 -5 0 -10 -4 -10 -10z"/>
<path d="M5110 1990 c0 -5 11 -10 25 -10 14 0 25 5 25 10 0 6 -11 10 -25 10 -14 0 -25 -4 -25 -10z"/>
<path d="M4990 1945 c-9 -11 -16 -13 -24 -5 -25 25 -34 6 -11 -24 l15 -20 25 24 c14 13 25 27 25 32 0 13 -17 9 -30 -7z"/>
<path d="M4978 1823 c-19 -5 -24 -18 -9 -28 5 -3 17 2 25 11 25 24 22 27 -16 17z"/>
<path d="M1740 1800 c0 -11 5 -20 10 -20 6 0 10 9 10 20 0 11 -4 20 -10 20 -5 0 -10 -9 -10 -20z"/>
<path d="M5070 1810 c0 -5 11 -10 25 -10 14 0 25 5 25 10 0 6 -11 10 -25 10 -14 0 -25 -4 -25 -10z"/>
<path d="M5135 1770 c-12 -37 -83 -86 -240 -163 -55 -27 -108 -53 -117 -58 -10 -5 -25 -9 -33 -9 -8 0 -15 -4 -15 -10 0 -16 35 -12 77 9 211 103 294 149 324 177 16 15 29 38 29 51 0 28 -16 30 -25 3z"/>
<path d="M1760 1710 c0 -16 5 -30 10 -30 6 0 10 14 10 30 0 17 -4 30 -10 30 -5 0 -10 -13 -10 -30z"/>
<path d="M5705 1730 c-3 -5 1 -10 9 -10 9 0 16 5 16 10 0 6 -4 10 -9 10 -6 0 -13 -4 -16 -10z"/>
<path d="M5320 1670 c0 -5 5 -10 10 -10 6 0 10 5 10 10 0 6 -4 10 -10 10 -5 0 -10 -4 -10 -10z"/>
<path d="M1690 1650 c0 -5 9 -10 19 -10 11 0 23 -4 26 -10 10 -16 45 -12 45 6 0 11 -6 13 -19 9 -11 -3 -22 -1 -26 5 -8 13 -45 13 -45 0z"/>
<path d="M4687 1608 c-68 -36 -73 -60 -18 -90 41 -23 53 -16 20 12 l-24 20 48 45 c57 52 53 54 -26 13z"/>
<path d="M4429 1509 c-34 -13 -52 -51 -39 -84 12 -31 42 -33 88 -5 37 23 37 22 16 66 -17 36 -23 38 -65 23z"/>
<path d="M4985 1450 c-3 -5 -1 -10 4 -10 6 0 11 5 11 10 0 6 -2 10 -4 10 -3 0 -8 -4 -11 -10z"/>
<path d="M4935 1430 c-3 -5 -1 -10 4 -10 6 0 11 5 11 10 0 6 -2 10 -4 10 -3 0 -8 -4 -11 -10z"/>
<path d="M4165 1390 c-3 -5 -15 -10 -26 -10 -10 0 -19 -4 -19 -10 0 -14 23 -13 37 1 16 16 43 3 43 -20 0 -12 -13 -26 -32 -37 -18 -9 -55 -28 -81 -42 -78 -40 -44 -38 38 2 107 54 154 126 81 126 -19 0 -38 -4 -41 -10z"/>
<path d="M4840 1390 c0 -5 5 -10 10 -10 6 0 10 5 10 10 0 6 -4 10 -10 10 -5 0 -10 -4 -10 -10z"/>
<path d="M4790 1370 c0 -5 5 -10 10 -10 6 0 10 5 10 10 0 6 -4 10 -10 10 -5 0 -10 -4 -10 -10z"/>
<path d="M1530 1350 c0 -5 7 -10 15 -10 8 0 15 5 15 10 0 6 -7 10 -15 10 -8 0 -15 -4 -15 -10z"/>
<path d="M1628 1334 c17 -14 32 -32 32 -40 0 -8 5 -23 10 -34 6 -11 15 -29 20 -40 6 -11 10 -29 10 -40 0 -11 5 -20 10 -20 6 0 10 9 10 19 0 11 -4 23 -10 26 -5 3 -10 17 -10 30 0 13 -4 27 -10 30 -5 3 -10 14 -10 23 -1 24 -45 72 -67 72 -14 0 -10 -6 15 -26z"/>
<path d="M1430 1330 c0 -5 11 -10 25 -10 14 0 25 5 25 10 0 6 -11 10 -25 10 -14 0 -25 -4 -25 -10z"/>
<path d="M4700 1330 c0 -5 5 -10 10 -10 6 0 10 5 10 10 0 6 -4 10 -10 10 -5 0 -10 -4 -10 -10z"/>
<path d="M3980 1310 c0 -5 5 -10 10 -10 6 0 10 5 10 10 0 6 -4 10 -10 10 -5 0 -10 -4 -10 -10z"/>
<path d="M4650 1310 c0 -5 5 -10 10 -10 6 0 10 5 10 10 0 6 -4 10 -10 10 -5 0 -10 -4 -10 -10z"/>
<path d="M3920 1290 c0 -5 7 -10 15 -10 8 0 15 5 15 10 0 6 -7 10 -15 10 -8 0 -15 -4 -15 -10z"/>
<path d="M3880 1270 c0 -5 5 -10 10 -10 6 0 10 5 10 10 0 6 -4 10 -10 10 -5 0 -10 -4 -10 -10z"/>
<path d="M4560 1270 c0 -5 5 -10 10 -10 6 0 10 5 10 10 0 6 -4 10 -10 10 -5 0 -10 -4 -10 -10z"/>
<path d="M3830 1250 c0 -5 7 -10 15 -10 8 0 15 5 15 10 0 6 -7 10 -15 10 -8 0 -15 -4 -15 -10z"/>
<path d="M3780 1230 c0 -5 7 -10 15 -10 8 0 15 5 15 10 0 6 -7 10 -15 10 -8 0 -15 -4 -15 -10z"/>
<path d="M4000 1230 c0 -5 5 -10 10 -10 6 0 10 5 10 10 0 6 -4 10 -10 10 -5 0 -10 -4 -10 -10z"/>
<path d="M3740 1210 c0 -5 5 -10 10 -10 6 0 10 5 10 10 0 6 -4 10 -10 10 -5 0 -10 -4 -10 -10z"/>
<path d="M3960 1210 c0 -5 5 -10 10 -10 6 0 10 5 10 10 0 6 -4 10 -10 10 -5 0 -10 -4 -10 -10z"/>
<path d="M3690 1190 c0 -5 7 -10 15 -10 8 0 15 5 15 10 0 6 -7 10 -15 10 -8 0 -15 -4 -15 -10z"/>
<path d="M3640 1170 c0 -5 7 -10 15 -10 8 0 15 5 15 10 0 6 -7 10 -15 10 -8 0 -15 -4 -15 -10z"/>
<path d="M3600 1150 c0 -5 5 -10 10 -10 6 0 10 5 10 10 0 6 -4 10 -10 10 -5 0 -10 -4 -10 -10z"/>
<path d="M3820 1150 c0 -5 5 -10 10 -10 6 0 10 5 10 10 0 6 -4 10 -10 10 -5 0 -10 -4 -10 -10z"/>
<path d="M3550 1130 c0 -5 5 -10 10 -10 6 0 10 5 10 10 0 6 -4 10 -10 10 -5 0 -10 -4 -10 -10z"/>
<path d="M1720 1105 c0 -8 5 -15 10 -15 6 0 10 7 10 15 0 8 -4 15 -10 15 -5 0 -10 -7 -10 -15z"/>
<path d="M3730 1110 c0 -5 7 -10 15 -10 8 0 15 5 15 10 0 6 -7 10 -15 10 -8 0 -15 -4 -15 -10z"/>
<path d="M3460 1090 c0 -5 5 -10 10 -10 6 0 10 5 10 10 0 6 -4 10 -10 10 -5 0 -10 -4 -10 -10z"/>
<path d="M3680 1090 c0 -5 5 -10 10 -10 6 0 10 5 10 10 0 6 -4 10 -10 10 -5 0 -10 -4 -10 -10z"/>
<path d="M3410 1070 c0 -5 7 -10 15 -10 8 0 15 5 15 10 0 6 -7 10 -15 10 -8 0 -15 -4 -15 -10z"/>
<path d="M3640 1070 c0 -5 5 -10 10 -10 6 0 10 5 10 10 0 6 -4 10 -10 10 -5 0 -10 -4 -10 -10z"/>
<path d="M1740 1031 c0 -17 5 -31 10 -31 6 0 10 11 10 24 0 14 -4 28 -10 31 -6 4 -10 -7 -10 -24z"/>
<path d="M3590 1050 c0 -5 5 -10 10 -10 6 0 10 5 10 10 0 6 -4 10 -10 10 -5 0 -10 -4 -10 -10z"/>
<path d="M3320 1030 c0 -5 5 -10 10 -10 6 0 10 5 10 10 0 6 -4 10 -10 10 -5 0 -10 -4 -10 -10z"/>
<path d="M3540 1030 c0 -5 5 -10 10 -10 6 0 10 5 10 10 0 6 -4 10 -10 10 -5 0 -10 -4 -10 -10z"/>
<path d="M3270 1010 c0 -5 7 -10 15 -10 8 0 15 5 15 10 0 6 -7 10 -15 10 -8 0 -15 -4 -15 -10z"/>
<path d="M3500 1010 c0 -5 5 -10 10 -10 6 0 10 5 10 10 0 6 -4 10 -10 10 -5 0 -10 -4 -10 -10z"/>
<path d="M3220 990 c0 -5 7 -10 15 -10 8 0 15 5 15 10 0 6 -7 10 -15 10 -8 0 -15 -4 -15 -10z"/>
<path d="M3450 990 c0 -5 5 -10 10 -10 6 0 10 5 10 10 0 6 -4 10 -10 10 -5 0 -10 -4 -10 -10z"/>
<path d="M1760 950 c0 -16 5 -30 10 -30 6 0 10 14 10 30 0 17 -4 30 -10 30 -5 0 -10 -13 -10 -30z"/>
<path d="M3180 970 c0 -5 5 -10 10 -10 6 0 10 5 10 10 0 6 -4 10 -10 10 -5 0 -10 -4 -10 -10z"/>
<path d="M3400 970 c0 -5 5 -10 10 -10 6 0 10 5 10 10 0 6 -4 10 -10 10 -5 0 -10 -4 -10 -10z"/>
<path d="M3140 950 c0 -5 5 -10 10 -10 6 0 10 5 10 10 0 6 -4 10 -10 10 -5 0 -10 -4 -10 -10z"/>
<path d="M3360 949 c0 -5 5 -7 10 -4 6 3 10 8 10 11 0 2 -4 4 -10 4 -5 0 -10 -5 -10 -11z"/>
<path d="M3085 930 c-3 -5 -15 -10 -26 -10 -10 0 -19 -4 -19 -10 0 -5 4 -10 8 -10 15 0 62 25 62 33 0 10 -18 9 -25 -3z"/>
<path d="M3283 926 c-13 -6 -23 -14 -23 -18 0 -11 18 -10 25 2 3 6 17 10 31 10 13 0 24 5 24 10 0 13 -28 11 -57 -4z"/>
<path d="M3000 890 c0 -5 5 -10 10 -10 6 0 10 5 10 10 0 6 -4 10 -10 10 -5 0 -10 -4 -10 -10z"/>
<path d="M3200 891 c-18 -10 -63 -29 -150 -64 -14 -5 -33 -13 -42 -18 -10 -5 -25 -9 -33 -9 -8 0 -15 -4 -15 -10 0 -12 24 -13 48 -1 21 11 75 33 147 61 66 26 85 36 85 42 0 10 -21 9 -40 -1z"/>
<path d="M2895 846 c-105 -55 -102 -53 -85 -70 22 -22 130 -27 130 -6 0 14 -44 12 -58 -2 -9 -9 -15 -9 -27 3 -14 14 -14 17 2 31 26 23 91 58 108 58 8 0 15 5 15 10 0 16 -21 10 -85 -24z"/>
<path d="M1780 855 c0 -8 5 -15 10 -15 6 0 10 7 10 15 0 8 -4 15 -10 15 -5 0 -10 -7 -10 -15z"/>
<path d="M38 643 c-2 -98 -3 -186 0 -195 5 -21 18 -23 25 -5 7 20 -5 377 -13 377 -4 0 -10 -80 -12 -177z"/>
<path d="M3320 750 c0 -5 7 -10 15 -10 8 0 15 5 15 10 0 6 -7 10 -15 10 -8 0 -15 -4 -15 -10z"/>
<path d="M2606 724 c-19 -18 -30 -59 -21 -73 8 -14 70 -14 96 -1 26 14 24 55 -3 74 -29 20 -52 20 -72 0z"/>
<path d="M3280 730 c0 -5 5 -10 10 -10 6 0 10 5 10 10 0 6 -4 10 -10 10 -5 0 -10 -4 -10 -10z"/>
<path d="M3220 710 c0 -5 7 -10 15 -10 8 0 15 5 15 10 0 6 -7 10 -15 10 -8 0 -15 -4 -15 -10z"/>
<path d="M3180 690 c0 -5 5 -10 10 -10 6 0 10 5 10 10 0 6 -4 10 -10 10 -5 0 -10 -4 -10 -10z"/>
<path d="M3080 650 c0 -5 5 -10 10 -10 6 0 10 5 10 10 0 6 -4 10 -10 10 -5 0 -10 -4 -10 -10z"/>
<path d="M2380 631 c0 -5 9 -11 20 -14 48 -12 -1 -83 -85 -122 -19 -10 -35 -21 -35 -26 0 -11 6 -11 28 0 9 5 24 12 32 15 8 3 33 16 55 29 38 22 40 27 43 75 l3 52 -30 0 c-17 0 -31 -4 -31 -9z"/>
<path d="M3040 630 c0 -5 5 -10 10 -10 6 0 10 5 10 10 0 6 -4 10 -10 10 -5 0 -10 -4 -10 -10z"/>
<path d="M2330 610 c0 -5 7 -10 15 -10 8 0 15 5 15 10 0 6 -7 10 -15 10 -8 0 -15 -4 -15 -10z"/>
<path d="M2940 590 c0 -5 5 -10 10 -10 6 0 10 5 10 10 0 6 -4 10 -10 10 -5 0 -10 -4 -10 -10z"/>
<path d="M2220 570 c0 -5 5 -10 10 -10 6 0 10 5 10 10 0 6 -4 10 -10 10 -5 0 -10 -4 -10 -10z"/>
<path d="M2890 570 c0 -5 5 -10 10 -10 6 0 10 5 10 10 0 6 -4 10 -10 10 -5 0 -10 -4 -10 -10z"/>
<path d="M2150 550 c0 -5 7 -10 15 -10 8 0 15 5 15 10 0 6 -7 10 -15 10 -8 0 -15 -4 -15 -10z"/>
<path d="M2845 550 c-3 -5 -1 -10 4 -10 6 0 11 5 11 10 0 6 -2 10 -4 10 -3 0 -8 -4 -11 -10z"/>
<path d="M2030 530 c0 -5 7 -10 15 -10 8 0 15 5 15 10 0 6 -7 10 -15 10 -8 0 -15 -4 -15 -10z"/>
<path d="M2800 530 c0 -5 5 -10 10 -10 6 0 10 5 10 10 0 6 -4 10 -10 10 -5 0 -10 -4 -10 -10z"/>
<path d="M2745 510 c-3 -5 1 -10 9 -10 9 0 16 5 16 10 0 6 -4 10 -9 10 -6 0 -13 -4 -16 -10z"/>
<path d="M2700 490 c0 -5 5 -10 10 -10 6 0 10 5 10 10 0 6 -4 10 -10 10 -5 0 -10 -4 -10 -10z"/>
<path d="M163 458 c-11 -13 -26 -33 -32 -46 -8 -16 -18 -21 -30 -17 -21 6 -34 -16 -24 -41 4 -10 -1 -17 -16 -21 -14 -3 -21 -13 -21 -29 0 -13 5 -24 10 -24 6 0 10 5 10 10 0 6 12 22 27 36 l26 24 28 -26 c48 -46 105 -9 84 56 -8 25 -29 21 -33 -6 -7 -44 -11 -48 -32 -29 -26 24 -25 33 10 79 17 22 30 43 30 48 0 15 -16 8 -37 -14z"/>
<path d="M264 456 c-7 -28 12 -69 29 -63 16 5 31 51 24 71 -10 25 -46 20 -53 -8z"/>
<path d="M380 440 c0 -11 5 -20 10 -20 6 0 10 9 10 20 0 11 -4 20 -10 20 -5 0 -10 -9 -10 -20z"/>
<path d="M2240 450 c0 -5 5 -10 10 -10 6 0 10 5 10 10 0 6 -4 10 -10 10 -5 0 -10 -4 -10 -10z"/>
<path d="M412 388 c-17 -17 -15 -63 3 -78 24 -20 47 6 43 49 -3 38 -24 51 -46 29z"/>
<path d="M2460 390 c0 -5 5 -10 10 -10 6 0 10 5 10 10 0 6 -4 10 -10 10 -5 0 -10 -4 -10 -10z"/>
<path d="M2400 370 c0 -5 7 -10 15 -10 8 0 15 5 15 10 0 6 -7 10 -15 10 -8 0 -15 -4 -15 -10z"/>
<path d="M320 340 c0 -11 5 -20 10 -20 6 0 10 9 10 20 0 11 -4 20 -10 20 -5 0 -10 -9 -10 -20z"/>
<path d="M2090 250 c0 -5 7 -10 15 -10 8 0 15 5 15 10 0 6 -7 10 -15 10 -8 0 -15 -4 -15 -10z"/>
</g>
</g>
</svg>
