<?xml version="1.0" standalone="no"?>
<!DOCTYPE svg PUBLIC "-//W3C//DTD SVG 1.1//EN"
 "http://www.w3.org/Graphics/SVG/1.1/DTD/svg11.dtd">
<!-- Created with svg_stack (http://github.com/astraw/svg_stack) -->
<svg xmlns:sodipodi="http://sodipodi.sourceforge.net/DTD/sodipodi-0.dtd" xmlns="http://www.w3.org/2000/svg" version="1.1" width="362.0" height="190.0">
  <defs/>
  <g id="id0:id0" transform="matrix(1.25,0,0,1.25,0.0,0.0)"><g transform="translate(0.000000,152.000000) scale(0.040000,-0.040000)" fill="#ffffff" stroke="none">
<path d="M0 1900 l0 -1900 3620 0 3620 0 0 1900 0 1900 -3620 0 -3620 0 0 -1900z m6595 1675 c126 -22 125 -22 170 -33 58 -15 105 -35 145 -60 19 -12 43 -22 53 -22 10 0 40 -22 67 -50 l50 -49 0 -100 c0 -56 -4 -103 -10 -106 -5 -3 -10 -21 -10 -40 0 -19 -4 -37 -10 -40 -5 -3 -10 -17 -10 -30 0 -13 -4 -27 -10 -30 -5 -3 -10 -16 -10 -27 0 -12 -7 -30 -17 -40 -9 -10 -21 -28 -27 -39 -10 -18 -28 -31 -88 -61 -25 -11 -125 -10 -133 2 -3 6 -30 10 -60 10 -30 0 -57 5 -60 10 -4 6 -87 10 -215 10 -128 0 -211 -4 -215 -10 -3 -5 -21 -10 -40 -10 -19 0 -37 -4 -40 -10 -3 -5 -15 -10 -25 -10 -84 0 -301 -219 -300 -302 0 -9 -4 -20 -10 -23 -5 -3 -10 -26 -10 -50 0 -24 -4 -47 -10 -50 -6 -4 -10 -57 -10 -125 0 -68 4 -121 10 -125 6 -3 10 -21 10 -40 0 -19 5 -37 10 -40 6 -3 10 -14 10 -24 0 -40 54 -126 143 -229 53 -62 62 -68 115 -79 97 -20 315 -13 340 12 4 3 8 36 9 72 1 53 -2 71 -19 94 -13 17 -31 29 -44 29 -13 0 -26 5 -29 10 -3 6 -17 10 -31 10 -17 0 -42 17 -74 50 -39 39 -50 56 -50 82 -1 36 -15 61 -43 71 -16 6 -17 24 -15 229 l3 223 435 0 435 0 3 -27 c3 -28 9 -32 47 -29 28 2 62 -16 116 -62 l44 -38 3 -572 c2 -315 0 -586 -3 -603 -10 -57 -138 -164 -195 -164 -11 0 -22 -4 -25 -10 -3 -6 -15 -10 -26 -10 -31 0 -23 -36 17 -68 30 -25 35 -35 32 -63 l-3 -34 -3130 0 -3130 0 0 40 0 40 55 3 c92 5 103 33 40 105 -22 25 -40 52 -40 60 0 8 -11 30 -25 50 -26 39 -33 61 -65 202 -28 121 -36 155 -60 256 -11 48 -22 95 -24 105 -10 50 -54 243 -66 294 -13 51 -60 249 -70 295 -5 22 -16 69 -24 105 -8 36 -21 94 -29 130 -28 122 -79 345 -107 465 -16 66 -36 156 -46 200 -9 44 -27 120 -40 170 -12 49 -20 93 -18 97 3 4 146 8 318 8 l312 0 22 -30 c13 -17 28 -30 35 -30 7 0 36 -11 64 -25 53 -27 103 -87 103 -124 0 -11 5 -23 10 -26 6 -3 10 -21 10 -40 0 -19 5 -37 10 -40 6 -3 10 -30 10 -60 0 -30 5 -57 10 -60 6 -3 10 -30 10 -60 0 -30 5 -57 10 -60 6 -3 10 -30 10 -60 0 -30 5 -57 10 -60 6 -3 10 -24 10 -45 0 -21 5 -42 10 -45 5 -3 10 -17 10 -29 0 -13 7 -29 16 -36 13 -11 20 -9 44 16 26 25 32 44 50 147 11 64 29 170 40 235 12 64 32 182 46 262 13 80 27 151 29 158 4 10 74 12 327 10 l323 -3 -3 -19 c-5 -24 22 -46 47 -39 10 3 22 0 25 -6 4 -6 14 -11 23 -11 43 0 133 -116 133 -171 0 -10 5 -21 10 -24 6 -3 10 -30 10 -60 0 -30 5 -57 10 -60 6 -3 10 -30 10 -60 0 -30 5 -57 10 -60 6 -3 10 -26 10 -50 0 -24 5 -47 10 -50 6 -3 10 -16 10 -29 0 -25 21 -76 32 -76 4 0 9 4 13 10 3 5 12 7 19 4 29 -11 42 27 70 207 16 101 41 254 55 339 l26 155 298 3 297 2 10 -25 c5 -14 18 -28 27 -31 55 -18 87 -40 130 -89 26 -30 55 -55 64 -55 26 0 46 30 71 110 l25 75 39 7 c21 4 203 7 403 6 l364 -1 11 -28 c8 -22 17 -29 38 -29 15 0 30 -4 33 -10 3 -5 14 -10 24 -10 45 0 151 -134 151 -191 0 -10 5 -21 10 -24 6 -3 10 -17 10 -30 0 -13 5 -27 10 -30 6 -3 10 -17 10 -30 0 -13 5 -27 10 -30 6 -3 10 -21 10 -40 0 -19 5 -37 10 -40 6 -3 10 -17 10 -30 0 -13 5 -27 10 -30 6 -3 10 -17 10 -30 0 -13 5 -27 10 -30 6 -3 10 -16 10 -27 0 -23 17 -81 31 -110 5 -10 9 -27 9 -37 0 -11 5 -23 10 -26 6 -3 10 -21 10 -40 0 -19 5 -37 10 -40 6 -3 10 -17 10 -30 0 -13 5 -27 10 -30 6 -3 10 -15 10 -26 0 -10 4 -27 9 -37 5 -9 17 -34 25 -54 22 -51 34 -55 65 -24 21 21 29 45 43 124 20 119 27 151 37 177 5 11 14 38 21 60 68 217 268 451 490 574 68 37 119 61 132 61 8 0 18 4 24 9 12 11 157 56 249 77 159 36 537 40 720 9z m-5499 -2786 c10 -17 -13 -36 -27 -22 -12 12 -4 33 11 33 5 0 12 -5 16 -11z m434 -26 c0 -15 7 -34 15 -43 13 -15 13 -20 -1 -50 -13 -26 -14 -39 -6 -66 9 -29 8 -36 -8 -44 -9 -5 -20 -6 -24 -3 -8 8 -8 228 0 236 12 12 24 -4 24 -30z m1530 -87 c0 -62 -3 -116 -6 -119 -4 -3 -15 -2 -25 4 -15 8 -17 14 -9 29 15 27 12 62 -6 88 -15 21 -15 25 0 41 9 10 16 29 16 43 0 13 3 28 6 31 18 17 24 -14 24 -117z m685 94 c-5 -8 -11 -8 -17 -2 -6 6 -7 16 -3 22 5 8 11 8 17 2 6 -6 7 -16 3 -22z m1905 -26 c0 -7 -12 -27 -27 -44 l-26 -32 25 -25 c29 -28 44 -24 59 15 7 17 13 22 20 15 7 -7 5 -24 -7 -52 -12 -32 -14 -44 -5 -55 16 -19 -4 -32 -24 -16 -10 8 -19 8 -33 1 -25 -13 -34 -4 -20 19 9 14 6 24 -17 54 -31 41 -49 45 -66 15 -8 -15 -14 -18 -22 -10 -7 7 -5 17 9 32 13 14 19 36 19 65 0 41 19 64 21 26 3 -46 5 -52 22 -52 38 0 56 46 27 70 -8 7 -12 17 -9 22 7 11 54 -30 54 -48z m-4885 -35 c13 -62 11 -89 -5 -72 -13 13 -41 133 -34 144 11 19 26 -7 39 -72z m138 20 c17 -53 16 -86 -2 -75 -5 4 -12 20 -16 36 -8 38 -18 38 -32 -1 -19 -50 -34 -25 -16 29 8 26 17 53 19 60 8 27 29 4 47 -49z m102 -15 c-9 -33 -19 -66 -22 -74 -4 -8 -5 -18 -5 -23 3 -13 -27 -77 -36 -77 -16 0 -30 24 -34 55 -3 26 0 29 27 29 18 1 29 6 28 13 -3 15 22 127 32 143 5 7 11 8 17 2 6 -6 3 -31 -7 -68z m1787 11 c50 -156 55 -175 48 -180 -12 -7 -72 84 -64 97 7 12 -15 98 -26 98 -16 0 -34 -33 -36 -68 -3 -47 -42 -135 -57 -129 -7 3 -10 11 -9 18 3 12 55 179 68 217 2 8 15 12 30 10 23 -3 30 -12 46 -63z m1651 59 c4 -4 -13 -24 -37 -45 -40 -36 -43 -42 -36 -71 11 -49 32 -88 45 -88 18 0 38 -27 27 -34 -20 -12 -75 21 -88 54 -15 35 -18 82 -7 94 4 4 8 17 8 29 0 13 13 30 34 44 36 24 44 27 54 17z m1451 -3 c3 -4 -3 -16 -13 -25 -21 -19 -37 -7 -27 19 6 16 32 20 40 6z m91 -5 c11 -8 16 -19 12 -30 -6 -15 -10 -15 -36 5 -29 22 -33 39 -7 39 7 0 21 -6 31 -14z m-2364 -112 c-1 -60 2 -80 15 -95 16 -17 16 -19 -1 -25 -27 -11 -45 22 -45 79 0 26 -5 57 -11 68 -8 16 -7 26 6 46 27 40 39 14 36 -73z m-2523 -40 c-2 -44 -7 -79 -13 -79 -11 0 -20 139 -10 163 13 36 26 -9 23 -84z m103 -4 c-3 -41 -10 -75 -16 -75 -11 0 -20 139 -10 163 5 13 7 14 19 1 9 -10 11 -35 7 -89z m106 82 c16 -13 19 -22 12 -39 -11 -30 -27 -29 -39 1 -5 13 -14 27 -20 31 -12 8 -4 25 13 25 7 0 22 -8 34 -18z m113 -2 c13 -25 9 -149 -5 -153 -6 -1 -11 26 -13 63 -2 38 -9 71 -18 81 -8 8 -11 19 -7 22 12 13 32 7 43 -13z m229 -4 c33 -35 27 -111 -12 -139 -38 -29 -57 -10 -22 23 30 28 32 68 5 102 -17 23 -18 38 0 38 4 0 17 -11 29 -24z m125 -7 c-10 -11 -14 -27 -11 -41 4 -12 2 -27 -3 -34 -7 -7 -3 -20 10 -37 27 -35 7 -45 -25 -13 -34 35 -34 93 0 130 14 15 30 24 36 21 7 -5 4 -13 -7 -26z m211 21 c11 9 19 10 26 3 7 -7 5 -15 -9 -24 -10 -8 -24 -25 -31 -38 -15 -28 -29 -17 -31 24 -3 45 -1 49 15 35 12 -10 18 -10 30 0z m232 -18 c-8 -10 -15 -38 -15 -65 0 -37 4 -49 20 -58 15 -8 17 -14 9 -22 -8 -8 -18 -4 -38 16 -36 36 -38 95 -4 131 26 27 52 25 28 -2z m101 -36 c-4 -27 -34 -28 -31 -1 1 10 -3 27 -7 36 -5 9 -6 20 -2 23 11 12 43 -35 40 -58z m170 -40 c-34 -89 -79 -158 -91 -139 -4 6 2 22 13 36 17 21 18 29 8 58 -6 19 -15 39 -20 45 -5 7 -8 16 -6 20 1 5 -4 20 -11 33 -9 15 -10 26 -3 33 7 7 14 3 22 -12 6 -12 9 -24 6 -27 -7 -7 32 -63 44 -63 4 0 11 12 15 27 14 57 35 97 46 86 7 -7 0 -38 -23 -97z m476 95 c3 -4 -6 -19 -19 -31 -32 -30 -32 -67 2 -102 24 -25 25 -28 8 -34 -13 -5 -25 1 -43 21 -20 24 -23 36 -19 72 6 59 52 106 71 74z m209 -23 c-10 -12 -18 -35 -18 -58 0 -23 8 -46 18 -58 28 -30 2 -38 -28 -8 -19 19 -25 36 -25 66 0 30 6 47 25 66 30 30 56 22 28 -8z m117 -58 c0 -36 -5 -52 -24 -69 -33 -31 -53 -18 -26 16 23 30 26 80 5 107 -22 29 -6 40 21 15 19 -17 24 -33 24 -69z m102 38 c-20 -20 -14 -63 13 -88 26 -25 25 -40 -5 -40 -14 0 -20 -9 -22 -37 -2 -21 -7 -37 -13 -36 -11 3 -20 217 -10 242 5 12 10 11 28 -7 17 -17 19 -24 9 -34z m112 30 c23 -33 21 -113 -4 -138 -35 -35 -60 -21 -30 18 26 32 26 84 0 107 -11 10 -17 22 -14 26 9 16 33 9 48 -13z m244 -74 c-2 -44 -7 -79 -13 -79 -11 0 -20 139 -10 163 13 36 26 -9 23 -84z m136 87 c3 -4 -6 -19 -19 -31 -32 -30 -32 -67 2 -102 23 -24 24 -28 9 -34 -11 -4 -25 1 -39 15 -29 29 -31 109 -3 140 20 22 41 27 50 12z m76 -11 c15 -15 20 -33 20 -70 0 -37 -5 -55 -20 -70 -35 -35 -60 -21 -30 18 26 32 26 84 0 107 -19 17 -19 35 1 35 5 0 18 -9 29 -20z m120 5 c6 -8 8 -20 4 -26 -4 -7 -10 -40 -13 -73 -3 -34 -10 -61 -16 -61 -10 0 -20 138 -11 162 7 17 21 17 36 -2z m105 -9 c18 -27 18 -151 0 -151 -5 0 -12 28 -15 61 -3 39 -11 69 -23 81 -9 11 -14 23 -10 26 13 14 33 7 48 -17z m480 14 c28 23 38 -1 11 -27 -27 -24 -34 -43 -38 -103 -5 -63 -23 -36 -26 39 -4 89 2 109 23 91 12 -10 18 -10 30 0z m128 -22 c-10 -12 -18 -35 -18 -58 0 -23 8 -46 18 -58 28 -30 2 -38 -28 -8 -19 19 -25 36 -25 66 0 30 6 47 25 66 30 30 56 22 28 -8z m117 -58 c0 -36 -5 -52 -24 -69 -33 -31 -53 -18 -26 16 23 30 26 80 5 107 -22 29 -6 40 21 15 19 -17 24 -33 24 -69z m90 26 c0 -38 6 -61 20 -78 30 -39 5 -53 -30 -18 -16 16 -20 33 -20 83 0 35 3 67 6 70 15 15 24 -7 24 -57z m130 -26 c0 -74 -10 -105 -25 -79 -4 5 -13 8 -21 5 -22 -9 -25 10 -4 29 15 14 20 31 20 70 0 28 3 55 6 58 16 16 24 -10 24 -83z m216 69 c28 -31 26 -111 -3 -140 -14 -14 -28 -19 -39 -15 -15 6 -14 10 9 34 34 35 34 72 2 102 -24 23 -25 40 -1 40 7 0 21 -9 32 -21z m644 -15 c-9 -15 -8 -32 3 -74 8 -30 13 -59 10 -63 -8 -13 -31 12 -38 41 -3 15 -16 37 -27 49 -21 22 -17 43 7 43 8 0 19 9 26 21 7 14 14 18 21 11 6 -6 6 -16 -2 -28z m216 -9 c7 -30 -2 -59 -16 -50 -5 3 -10 17 -10 29 0 13 -7 29 -15 36 -8 7 -12 16 -9 21 9 15 43 -10 50 -36z m99 7 c0 -17 8 -30 21 -37 57 -29 69 -59 34 -90 -21 -19 -23 -16 -20 27 1 22 -5 30 -34 42 -29 12 -36 20 -36 43 0 28 18 58 29 47 3 -2 5 -17 6 -32z m199 29 c3 -4 -6 -19 -19 -31 -32 -30 -32 -67 2 -102 23 -24 24 -28 9 -34 -11 -4 -26 2 -42 16 -19 19 -24 34 -24 71 0 39 4 51 26 68 29 23 40 26 48 12z m136 -53 c0 -34 6 -59 21 -79 18 -26 19 -30 4 -35 -28 -11 -48 21 -53 85 -2 33 -2 68 2 76 11 30 26 4 26 -47z m130 -27 c0 -82 -5 -98 -27 -80 -9 9 -17 8 -27 0 -26 -21 -26 5 -1 29 20 19 25 33 25 75 0 28 3 55 6 58 16 16 24 -10 24 -82z m107 61 c-8 -10 -15 -38 -15 -65 0 -37 4 -49 20 -58 15 -8 17 -14 9 -22 -8 -8 -18 -4 -36 13 -33 31 -35 103 -4 137 24 25 48 20 26 -5z m101 -31 c-4 -31 -34 -36 -31 -6 1 10 -3 27 -7 36 -13 24 0 32 22 12 11 -10 18 -27 16 -42z m-1720 40 c2 -1 -4 -11 -12 -23 -21 -29 -20 -77 1 -100 15 -16 15 -20 0 -35 -8 -10 -17 -31 -19 -46 -1 -15 -7 -29 -13 -30 -10 -2 -20 205 -11 228 3 9 31 12 54 6z m-3380 -56 c-2 -11 -10 -20 -18 -20 -17 0 -25 37 -15 63 6 15 8 15 21 -3 8 -11 13 -29 12 -40z m4008 -4 c-23 -25 -36 -19 -36 18 0 38 10 45 34 22 l20 -20 -18 -20z m217 13 c3 -17 2 -35 -4 -41 -6 -6 -3 -18 10 -35 31 -39 7 -54 -29 -18 -22 22 -27 88 -9 122 13 24 24 14 32 -28z m-1555 -41 c3 -44 0 -53 -19 -63 -27 -15 -47 1 -24 20 20 16 20 66 -1 74 -22 8 -6 28 19 24 19 -3 22 -11 25 -55z m-3726 -38 c-6 -20 -15 -30 -28 -30 -28 0 -30 35 -3 56 30 22 41 13 31 -26z m4742 -27 c-16 -26 -71 19 -60 48 6 15 10 14 36 -11 16 -15 27 -32 24 -37z"/>
<path d="M1784 1818 c-28 -33 -44 -65 -44 -87 0 -11 -4 -23 -10 -26 -5 -3 -10 -24 -10 -45 0 -21 -4 -42 -10 -45 -5 -3 -10 -21 -10 -40 0 -19 -4 -37 -10 -40 -5 -3 -10 -30 -10 -60 0 -30 -4 -57 -10 -60 -5 -3 -10 -21 -10 -40 0 -19 -4 -37 -10 -40 -5 -3 -10 -19 -10 -34 0 -38 -43 -123 -86 -171 l-37 -41 23 -24 23 -25 247 0 247 0 23 25 23 24 -36 40 c-20 22 -45 60 -57 86 -11 25 -25 45 -30 45 -15 0 -29 42 -41 119 -5 36 -14 89 -19 116 -5 28 -14 86 -20 130 -16 118 -31 167 -59 192 -32 28 -33 28 -57 1z"/>
<path d="M3885 1590 c-3 -5 -17 -10 -30 -10 -43 0 -115 -94 -115 -151 0 -15 -4 -31 -10 -34 -5 -3 -10 -21 -10 -40 0 -19 -4 -37 -10 -40 -5 -3 -10 -14 -10 -24 0 -27 -42 -104 -85 -156 l-37 -46 23 -25 22 -24 407 0 407 0 23 25 23 24 -52 56 c-28 31 -51 61 -51 67 0 5 -9 23 -20 38 -18 25 -41 97 -72 227 -11 48 -67 103 -105 103 -12 0 -25 5 -28 10 -4 6 -60 10 -135 10 -75 0 -131 -4 -135 -10z"/>
<path d="M5192 1368 c-7 -7 -12 -33 -12 -59 0 -26 -4 -51 -10 -54 -5 -3 -10 -21 -10 -38 0 -22 -10 -45 -30 -67 -16 -19 -29 -46 -30 -60 0 -46 28 -50 345 -50 l292 0 24 26 24 26 -30 24 c-16 13 -37 24 -46 24 -21 0 -213 96 -264 132 -149 106 -153 108 -197 108 -24 0 -49 -5 -56 -12z"/>
<path d="M2803 1126 c-29 -14 -29 -37 0 -64 33 -31 105 -31 135 1 12 13 22 30 22 38 0 33 -106 51 -157 25z"/>
</g>
</g>
  <g id="id1:id1" transform="matrix(1.25,0,0,1.25,0.0,0.0)"><g transform="translate(0.000000,152.000000) scale(0.040000,-0.040000)" fill="#e4e4e4" stroke="none">
<path d="M867 3542 c-13 -14 -14 -25 -7 -57 11 -44 32 -166 35 -205 2 -14 5 -32 8 -40 8 -26 152 -981 181 -1205 8 -67 15 -90 26 -90 15 0 25 34 35 125 3 25 13 83 22 130 8 47 19 108 24 135 4 28 12 77 18 110 6 33 15 87 20 120 6 33 17 93 25 133 7 40 10 74 6 77 -16 10 -60 110 -60 136 0 15 -4 31 -10 34 -5 3 -10 30 -10 60 0 30 -4 57 -10 60 -5 3 -10 30 -10 60 0 30 -4 57 -10 60 -5 3 -10 30 -10 60 0 30 -4 57 -10 60 -5 3 -10 19 -10 36 0 16 -4 37 -9 47 -5 9 -17 34 -25 54 -18 41 -81 98 -108 98 -9 0 -20 5 -23 10 -10 17 -71 11 -88 -8z"/>
<path d="M2074 3537 c-12 -27 -9 -55 41 -342 20 -115 42 -253 50 -305 7 -52 25 -165 39 -250 14 -85 28 -175 31 -200 2 -25 11 -92 20 -150 8 -58 19 -148 25 -200 6 -52 13 -103 16 -113 10 -32 29 -12 36 39 6 47 11 85 23 169 3 22 8 56 10 75 3 19 9 62 14 95 24 150 41 258 56 355 9 58 20 117 24 132 8 23 5 30 -15 43 -13 8 -24 24 -24 35 0 10 -4 22 -10 25 -5 3 -10 17 -10 30 0 13 -4 27 -10 30 -5 3 -10 26 -10 50 0 24 -4 47 -10 50 -5 3 -10 28 -10 55 0 27 -4 52 -10 55 -5 3 -10 30 -10 60 0 30 -4 57 -10 60 -5 3 -10 17 -10 30 0 13 -4 27 -10 30 -5 3 -10 14 -10 25 0 25 -87 120 -110 120 -11 0 -22 5 -25 10 -3 6 -23 10 -43 10 -29 0 -39 -5 -48 -23z"/>
<path d="M3190 3547 c-18 -14 -33 -60 -54 -162 -25 -120 -43 -198 -61 -260 -9 -33 -21 -80 -26 -105 -5 -25 -40 -171 -78 -325 -70 -281 -76 -306 -90 -380 -10 -56 -30 -90 -44 -76 -14 14 -13 127 2 145 14 17 11 58 -5 63 -5 2 -26 -12 -46 -32 -71 -71 -73 -204 -5 -297 23 -32 28 -48 23 -72 -17 -90 -28 -136 -42 -186 -18 -63 -16 -54 -84 -340 -29 -118 -57 -221 -62 -227 -8 -10 -87 -13 -334 -13 l-324 0 0 -45 c0 -40 21 -94 51 -131 5 -6 7 -19 3 -28 -4 -11 0 -16 14 -16 12 0 24 -4 27 -10 8 -14 762 -14 770 0 8 13 82 13 90 0 8 -14 702 -14 710 0 3 5 15 10 26 10 16 0 19 5 14 20 -4 13 4 34 24 64 17 25 31 51 31 60 0 8 5 18 10 21 6 3 10 17 10 30 0 13 5 27 10 30 6 3 10 21 10 40 0 19 5 37 10 40 6 3 10 20 10 36 0 38 49 110 86 128 16 7 37 17 46 22 24 12 205 11 213 -1 3 -5 17 -10 30 -10 13 0 27 -4 30 -10 9 -15 46 -12 65 5 15 14 16 20 2 68 -8 28 -16 64 -19 80 -3 15 -9 30 -14 33 -5 3 -9 16 -9 30 0 13 -9 33 -20 44 -18 18 -33 20 -187 20 -93 0 -225 -3 -295 -7 -118 -6 -128 -8 -133 -27 -3 -12 -10 -37 -15 -56 -6 -19 -32 -125 -58 -235 l-49 -200 -299 -3 c-164 -1 -304 0 -310 2 -8 3 -8 17 2 53 7 26 22 80 33 118 10 39 26 90 35 115 9 25 16 55 16 67 0 12 5 25 10 28 6 3 10 14 10 23 0 17 34 137 51 177 4 11 11 35 14 52 4 18 10 35 15 38 5 3 35 1 67 -5 237 -43 422 -49 524 -19 36 11 41 10 62 -9 22 -21 33 -22 193 -22 197 0 211 4 201 64 -3 21 -11 44 -18 52 -15 18 -50 18 -75 -1 -27 -21 -147 -20 -165 1 -11 13 -8 21 23 50 48 45 58 96 28 149 -20 35 -20 38 -4 56 34 38 74 23 118 -45 44 -67 106 -185 106 -200 0 -11 29 -79 49 -116 6 -11 26 -15 77 -15 l69 0 3 29 c4 34 -28 65 -65 66 -23 0 -53 47 -53 84 0 12 -13 62 -29 111 -16 50 -31 113 -33 140 -3 47 -1 50 21 53 74 11 202 161 354 417 15 25 31 43 37 40 5 -3 21 -45 35 -93 15 -48 30 -96 35 -107 4 -11 18 -56 30 -100 12 -44 25 -91 30 -105 5 -14 18 -59 30 -100 12 -41 25 -84 30 -95 4 -11 25 -81 45 -155 20 -74 41 -144 45 -155 14 -33 50 -157 50 -172 0 -7 4 -21 10 -31 5 -9 21 -60 35 -112 15 -52 30 -104 35 -115 16 -38 58 -200 53 -207 -2 -5 -147 -8 -322 -8 -327 0 -341 -2 -341 -40 0 -20 42 -104 64 -129 9 -10 14 -25 10 -35 -4 -11 -1 -16 13 -16 10 0 23 -4 29 -10 6 -6 144 -10 352 -10 292 -1 345 1 364 14 12 9 19 18 16 22 -4 3 2 21 13 40 10 19 19 48 19 64 0 16 5 32 10 35 6 3 10 26 10 49 0 48 17 70 46 59 11 -3 51 -28 90 -54 117 -78 278 -165 317 -171 15 -2 21 -9 19 -21 -2 -11 4 -17 16 -17 10 0 23 -5 28 -10 14 -14 1214 -14 1228 0 5 5 19 10 29 10 13 0 17 5 13 15 -3 10 1 18 12 21 43 15 120 57 152 83 l35 30 0 659 0 660 -23 24 c-59 63 -172 91 -187 46 -4 -13 -6 -289 -5 -614 l2 -590 -26 -17 c-14 -9 -35 -17 -46 -17 -11 0 -54 -9 -96 -20 -77 -21 -102 -26 -309 -59 -156 -25 -464 -28 -616 -5 -117 17 -225 41 -251 55 -10 5 -25 9 -33 9 -8 0 -23 4 -33 9 -9 6 -51 25 -92 44 -77 35 -104 51 -200 123 -101 75 -185 181 -251 316 -28 57 -55 111 -60 120 -5 10 -9 27 -9 37 0 11 -4 23 -10 26 -5 3 -10 21 -10 39 0 17 -4 36 -8 41 -16 18 -33 160 -33 275 -1 101 -3 118 -21 137 -23 25 -68 110 -68 130 0 7 -4 22 -10 33 -5 11 -14 29 -20 40 -5 11 -10 33 -10 49 0 17 -4 33 -10 36 -5 3 -10 17 -10 30 0 13 -4 27 -10 30 -5 3 -10 17 -10 30 0 13 -4 27 -10 30 -5 3 -10 21 -10 40 0 19 -4 37 -10 40 -5 3 -10 17 -10 30 0 13 -4 27 -10 30 -5 3 -10 17 -10 30 0 13 -4 27 -10 30 -5 3 -10 21 -10 40 0 19 -4 37 -10 40 -5 3 -10 17 -10 30 0 13 -4 27 -10 30 -5 3 -10 17 -10 30 0 13 -4 27 -10 30 -5 3 -10 14 -10 25 0 56 -108 199 -152 200 -9 0 -20 5 -23 10 -3 6 -23 10 -45 10 -32 0 -39 -4 -44 -26 -8 -29 2 -92 15 -100 5 -3 9 -15 9 -28 0 -12 3 -26 7 -30 5 -4 13 -29 20 -54 6 -26 19 -72 28 -102 9 -30 21 -73 27 -95 5 -22 12 -47 16 -55 3 -8 11 -35 18 -60 l12 -44 -39 -45 c-22 -24 -59 -74 -83 -110 -24 -36 -57 -79 -73 -94 l-30 -28 -18 28 c-10 15 -29 40 -43 55 l-25 27 7 90 c4 52 3 98 -3 108 -20 40 -42 141 -39 183 3 39 8 48 48 76 59 42 100 80 100 93 0 5 -8 17 -17 27 -11 10 -16 29 -14 49 1 18 -3 51 -9 73 -12 48 -39 61 -75 38 -66 -44 -102 -56 -197 -70 l-103 -15 -42 -47 c-24 -25 -43 -54 -43 -64 0 -11 -4 -21 -9 -24 -4 -3 -11 -61 -14 -128 -6 -122 -22 -192 -58 -249 -8 -13 -26 -46 -39 -73 -14 -26 -43 -62 -64 -80 -69 -55 -206 -189 -246 -241 -41 -54 -120 -200 -139 -258 -7 -20 -12 -60 -13 -89 -1 -70 -17 -88 -79 -88 -52 0 -65 9 -51 37 14 27 32 87 32 106 0 10 4 25 9 35 13 23 51 154 51 173 0 8 4 19 8 24 5 6 14 35 21 65 8 30 24 91 37 135 13 44 36 121 51 170 14 50 35 117 45 149 10 33 18 65 18 73 0 7 4 21 9 31 5 9 17 46 26 82 10 36 26 94 37 129 17 54 18 67 7 90 -19 39 -111 131 -131 131 -9 0 -20 5 -23 10 -9 14 -67 12 -85 -3z"/>
<path d="M6918 3493 c-19 -21 -30 -51 -43 -118 -10 -49 -32 -148 -50 -220 l-33 -130 -28 2 c-16 1 -38 7 -49 12 -29 14 -138 38 -232 51 -114 17 -400 8 -478 -14 -153 -43 -284 -136 -361 -254 -19 -29 -34 -55 -34 -57 0 -3 -9 -24 -20 -48 -43 -94 -62 -295 -39 -423 42 -240 162 -405 361 -497 48 -23 60 -22 88 8 l23 24 -66 71 c-64 69 -117 156 -117 191 0 10 -4 21 -10 24 -5 3 -10 21 -10 40 0 19 -4 37 -10 40 -5 3 -10 46 -10 95 0 49 5 92 10 95 6 3 10 24 10 46 0 21 4 47 9 57 5 9 24 48 42 85 39 82 124 164 208 203 31 14 64 30 73 35 10 5 31 9 47 9 17 0 33 5 36 10 4 6 77 10 185 10 108 0 181 -4 185 -10 3 -5 28 -10 55 -10 27 0 52 -4 55 -10 9 -14 190 -13 218 2 12 6 29 14 37 18 25 11 90 103 90 127 0 12 5 25 10 28 6 3 10 17 10 30 0 13 5 27 10 30 6 3 10 21 10 40 0 19 5 37 10 40 17 11 13 247 -6 283 -18 37 -81 92 -106 92 -9 0 -20 5 -23 10 -11 17 -30 11 -57 -17z"/>
<path d="M1671 2773 c-6 -49 -13 -104 -15 -123 -5 -55 -56 -367 -76 -465 -5 -22 -16 -76 -25 -120 -26 -127 -34 -166 -45 -235 -5 -36 -19 -110 -30 -165 -11 -55 -25 -125 -31 -155 -6 -30 -14 -73 -19 -95 -5 -22 -11 -55 -14 -74 -11 -63 2 -61 -350 -61 -237 0 -325 -3 -334 -12 -15 -15 -16 -64 -2 -73 6 -3 10 -13 10 -22 0 -9 12 -32 27 -52 16 -20 27 -42 25 -48 -2 -7 6 -13 17 -13 11 0 23 -4 26 -10 8 -14 722 -14 730 0 3 6 15 10 27 10 14 0 18 5 14 16 -3 9 2 28 12 42 10 15 24 41 31 57 7 17 17 38 22 47 5 10 9 29 9 42 0 14 5 28 10 31 6 3 10 24 10 45 0 21 5 42 10 45 6 3 10 28 10 55 0 27 5 52 10 55 6 3 10 21 10 40 0 19 5 37 10 40 6 3 10 21 10 40 0 19 5 37 10 40 6 3 10 14 10 24 0 29 29 78 62 106 24 20 29 31 25 53 -37 186 -78 417 -87 484 -5 38 -15 105 -23 150 -8 46 -20 126 -27 178 -15 124 -31 210 -40 210 -4 0 -12 -39 -19 -87z"/>
<path d="M6127 2160 c-10 -15 -14 -35 -10 -59 10 -74 45 -122 108 -150 17 -7 38 -17 47 -22 10 -5 27 -9 37 -9 11 0 23 -4 26 -10 10 -16 40 -12 57 8 13 14 15 39 12 131 -2 62 -6 116 -8 119 -3 3 -61 7 -129 10 l-124 5 -16 -23z"/>
</g>
</g>
  <g id="id2:id2" transform="matrix(1.25,0,0,1.25,0.0,0.0)"><g transform="translate(0.000000,152.000000) scale(0.040000,-0.040000)" fill="#1d1d1d" stroke="none">
<path d="M6932 2428 c-9 -9 -12 -128 -12 -474 0 -298 -4 -465 -10 -469 -5 -3 -10 -15 -10 -26 0 -10 -5 -28 -12 -38 -16 -26 -4 -50 36 -66 30 -13 38 -13 65 1 l31 16 0 519 -1 519 -18 0 c-10 0 -24 7 -31 15 -15 18 -22 19 -38 3z"/>
<path d="M2822 2378 c-20 -20 -15 -128 8 -165 11 -18 25 -33 32 -33 17 0 38 46 38 81 0 15 5 31 10 34 17 10 12 82 -6 89 -26 10 -69 7 -82 -6z"/>
<path d="M3814 2055 c-32 -26 -28 -50 11 -65 38 -14 71 -12 85 5 10 12 10 19 2 27 -7 7 -12 22 -12 33 0 30 -49 29 -86 0z"/>
<path d="M4083 1967 c-12 -6 -24 -19 -26 -28 -5 -19 -87 -29 -244 -29 -60 0 -104 -4 -108 -10 -4 -6 -15 -8 -25 -5 -10 3 -21 1 -25 -5 -3 -5 -21 -10 -39 -10 -22 0 -40 -8 -56 -25 l-24 -26 37 -36 c29 -29 39 -35 49 -25 14 14 533 18 542 3 3 -5 22 -9 41 -8 32 1 35 3 35 32 0 37 -20 85 -37 85 -14 0 -59 53 -68 80 -7 22 -18 23 -52 7z"/>
<path d="M1486 798 c-8 -33 -7 -241 2 -255 4 -7 24 -12 43 -11 20 1 41 -2 48 -6 21 -13 76 13 95 45 l18 30 31 -36 c25 -28 42 -37 77 -41 53 -7 87 12 77 41 -5 12 -15 16 -34 12 -32 -6 -77 9 -68 23 3 5 28 10 54 10 27 0 53 6 59 13 13 16 5 56 -18 87 -15 20 -28 25 -66 25 -41 0 -50 -4 -75 -35 l-29 -34 -35 38 c-30 33 -39 37 -72 34 l-38 -3 -5 40 c-4 34 -9 40 -31 43 -20 2 -28 -2 -33 -20z m339 -117 c3 -5 1 -13 -5 -16 -15 -9 -43 3 -35 15 8 13 32 13 40 1z m-210 -45 c0 -46 -23 -68 -49 -47 -16 14 -22 72 -9 85 4 4 19 6 33 4 22 -3 25 -8 25 -42z"/>
<path d="M3016 798 c-3 -13 -7 -32 -8 -43 -3 -16 -10 -19 -34 -17 -42 4 -89 -36 -101 -86 -17 -71 49 -146 110 -123 12 4 39 6 60 3 l37 -4 0 35 c0 43 17 57 29 25 15 -40 48 -61 95 -62 38 -1 50 4 79 32 18 18 36 29 40 26 4 -4 7 -30 7 -58 0 -62 10 -79 41 -74 19 2 25 11 29 38 l5 34 45 3 c49 3 75 23 85 65 6 21 3 27 -16 33 -18 6 -28 2 -44 -19 -11 -14 -28 -26 -36 -26 -26 0 -49 34 -49 72 0 21 -7 41 -18 51 -25 23 -31 21 -43 -10 l-10 -27 -28 32 c-62 67 -151 50 -187 -36 -19 -48 -33 -31 -27 32 3 30 3 70 -1 90 -6 30 -11 36 -31 36 -17 0 -26 -7 -29 -22z m224 -162 c0 -40 -24 -65 -48 -49 -41 25 -13 115 29 92 13 -6 19 -21 19 -43z m-235 0 c0 -46 -23 -68 -49 -47 -19 16 -21 62 -4 79 7 7 22 11 33 10 16 -2 20 -11 20 -42z"/>
<path d="M982 796 c-4 -6 -11 -31 -17 -56 -12 -53 -26 -57 -40 -13 -6 18 -14 35 -18 39 -12 12 -55 -36 -50 -56 3 -10 0 -21 -6 -24 -18 -12 -13 -47 6 -44 17 3 26 -14 38 -74 6 -30 35 -51 58 -42 18 6 27 31 58 144 25 97 31 107 49 85 10 -12 10 -19 2 -27 -16 -16 -16 -180 0 -196 16 -16 23 -15 42 4 21 21 22 161 2 190 -10 13 -11 23 -4 31 5 7 8 20 6 30 -3 15 -14 18 -61 19 -32 0 -61 -4 -65 -10z"/>
<path d="M2711 797 c-12 -16 -81 -224 -81 -248 0 -14 19 -29 36 -29 2 0 15 18 29 41 21 33 31 40 53 37 19 -2 31 -12 41 -35 15 -34 47 -49 68 -31 8 6 11 18 7 27 -4 9 -7 23 -8 31 -1 9 -5 20 -8 25 -3 6 -18 48 -33 95 -15 47 -33 88 -39 92 -18 12 -53 9 -65 -5z m44 -137 c-5 -8 -11 -8 -17 -2 -6 6 -7 16 -3 22 5 8 11 8 17 2 6 -6 7 -16 3 -22z"/>
<path d="M3715 790 c-4 -12 -1 -27 5 -35 8 -10 8 -19 1 -34 -17 -31 -14 -176 4 -191 21 -18 45 4 45 41 0 42 14 43 41 1 30 -45 69 -58 124 -40 26 9 44 22 53 41 16 32 27 29 35 -12 7 -34 35 -48 56 -27 12 12 12 20 3 38 -6 13 -13 52 -14 88 -2 51 -7 65 -19 68 -11 2 -21 -8 -28 -29 l-11 -33 -28 32 c-49 59 -135 53 -173 -13 -23 -39 -39 -38 -39 4 0 15 -5 32 -11 38 -8 8 -7 16 2 30 7 11 9 28 6 37 -9 23 -44 20 -52 -4z m203 -112 c17 -17 15 -83 -3 -98 -13 -10 -19 -10 -35 5 -24 22 -26 62 -3 87 19 21 25 22 41 6z"/>
<path d="M5531 789 c-19 -18 -22 -29 -19 -64 4 -31 0 -47 -13 -64 -22 -27 -24 -78 -5 -104 22 -28 68 -40 114 -28 28 8 48 8 68 1 36 -14 52 1 35 32 -9 19 -9 31 2 63 8 22 12 46 10 53 -8 21 -40 13 -58 -14 -16 -24 -18 -25 -33 -10 -15 14 -14 18 5 38 35 38 37 64 9 93 -32 32 -83 34 -115 4z m64 -59 c-5 -8 -11 -8 -17 -2 -6 6 -7 16 -3 22 5 8 11 8 17 2 6 -6 7 -16 3 -22z m-3 -152 c-17 -17 -58 23 -48 48 6 16 9 15 34 -9 21 -21 24 -29 14 -39z"/>
<path d="M5843 803 c-20 -8 -18 -256 2 -273 23 -19 43 4 47 53 2 33 7 42 22 42 21 0 32 -16 41 -57 7 -36 42 -56 61 -36 12 12 11 23 -5 73 -17 52 -18 62 -5 76 29 33 16 92 -27 114 -27 14 -110 19 -136 8z m112 -64 c15 -15 -9 -44 -36 -44 -25 0 -36 23 -25 51 6 16 41 11 61 -7z"/>
<path d="M1921 725 c-3 -5 -6 -28 -5 -50 1 -22 2 -63 3 -91 1 -53 14 -70 46 -58 11 5 15 21 15 60 0 53 22 94 51 94 6 0 9 12 7 28 l-3 27 -53 0 c-30 0 -57 -4 -61 -10z"/>
<path d="M4663 730 c-27 -11 -36 -40 -28 -90 7 -40 25 -56 25 -22 0 26 29 64 47 60 11 -2 16 -17 17 -51 3 -66 36 -100 101 -101 43 -1 50 3 81 38 l33 38 21 -35 c11 -19 31 -37 43 -40 32 -6 121 -2 135 7 8 5 12 38 12 95 0 95 -9 115 -48 104 -20 -5 -22 -12 -22 -68 0 -66 -15 -93 -45 -81 -11 4 -15 22 -15 75 0 62 -2 69 -22 74 -26 7 -48 -8 -48 -34 0 -29 -18 -32 -35 -5 -34 51 -115 58 -162 14 l-22 -21 -10 27 c-11 27 -22 30 -58 16z m197 -101 c0 -43 -20 -60 -49 -42 -41 25 -11 115 30 92 14 -7 19 -21 19 -50z"/>
<path d="M5227 733 l-48 -4 3 -137 3 -137 27 -3 c23 -3 28 1 33 25 11 48 13 52 32 47 47 -13 113 48 113 104 0 58 -51 115 -98 110 -9 -1 -39 -3 -65 -5z m82 -67 c28 -34 -5 -97 -43 -83 -16 6 -24 76 -9 90 11 12 40 8 52 -7z"/>
<path d="M6093 728 c-12 -6 -29 -25 -37 -43 -34 -70 -10 -138 54 -155 52 -14 105 -1 105 26 0 15 -9 20 -48 24 -62 7 -61 24 3 28 37 2 53 8 60 22 l10 19 40 -26 c44 -29 44 -43 -1 -43 -22 0 -29 -5 -29 -20 0 -52 115 -46 139 7 l12 27 30 -32 c47 -50 144 -57 137 -9 -2 17 -11 23 -36 25 -21 2 -38 12 -48 28 -15 22 -15 26 0 49 11 17 26 25 45 25 40 0 57 23 35 45 -42 42 -154 -16 -154 -80 0 -28 -15 -41 -27 -22 -4 8 -23 22 -41 31 -36 18 -34 40 2 30 32 -8 52 18 31 40 -28 28 -74 20 -111 -20 l-34 -35 -11 24 c-19 42 -78 58 -126 35z m62 -47 c3 -5 1 -13 -5 -16 -15 -9 -43 3 -35 15 8 13 32 13 40 1z"/>
<path d="M6599 718 c-14 -25 -13 -83 2 -141 12 -46 32 -55 114 -52 60 2 66 6 80 50 6 18 8 17 35 -12 33 -35 75 -48 120 -38 34 8 43 17 34 39 -4 10 -22 16 -52 18 -64 4 -59 22 8 28 l55 5 3 33 c3 25 -3 39 -27 62 -46 46 -111 37 -145 -21 -19 -33 -36 -30 -36 5 0 30 -20 47 -48 39 -20 -5 -22 -12 -22 -68 0 -70 -17 -98 -45 -75 -10 9 -15 32 -15 76 0 35 -4 64 -9 64 -5 0 -16 3 -24 6 -10 3 -20 -3 -28 -18z m326 -37 c3 -5 1 -13 -5 -16 -15 -9 -43 3 -35 15 8 13 32 13 40 1z"/>
<path d="M4333 683 c-33 -13 5 -116 51 -140 36 -19 151 -22 169 -4 8 8 4 18 -16 38 -21 21 -29 25 -39 15 -32 -32 -108 11 -108 61 0 30 -25 43 -57 30z"/>
<path d="M796 571 c-28 -29 -28 -51 -1 -51 17 0 45 38 45 62 0 25 -12 22 -44 -11z"/>
<path d="M3580 566 c0 -19 44 -50 48 -36 4 12 -26 50 -40 50 -4 0 -8 -6 -8 -14z"/>
</g>
</g>
  <g id="id3:id3" transform="matrix(1.25,0,0,1.25,0.0,0.0)"><g transform="translate(0.000000,152.000000) scale(0.040000,-0.040000)" fill="#010101" stroke="none">
<path d="M6110 3610 c-231 -13 -399 -55 -580 -144 -320 -158 -523 -407 -605 -739 -49 -202 -47 -479 4 -677 76 -295 272 -534 560 -682 41 -21 82 -38 92 -38 10 0 21 -5 24 -10 3 -5 17 -10 30 -10 13 0 27 -4 30 -10 3 -5 19 -10 35 -10 16 0 32 -4 35 -10 3 -5 26 -10 50 -10 24 0 47 -4 50 -10 3 -5 30 -10 58 -10 29 -1 84 -5 122 -11 118 -17 311 -23 319 -10 5 7 42 11 101 11 52 0 97 4 100 10 3 6 30 10 60 10 30 0 57 5 60 10 3 6 26 10 50 10 24 0 47 5 50 10 3 6 21 10 40 10 19 0 37 5 40 10 3 6 21 10 39 10 41 0 64 23 46 45 -10 12 -10 18 1 32 11 13 15 110 19 497 3 265 9 487 13 494 5 6 16 12 27 12 27 0 30 20 23 140 l-6 110 -36 6 c-51 10 -862 -3 -873 -14 -4 -4 -7 -114 -6 -243 l3 -234 145 -10 145 -10 6 -30 c4 -16 7 -99 8 -183 1 -137 -1 -153 -16 -160 -10 -4 -83 -7 -163 -7 -223 1 -324 38 -450 164 -77 77 -150 198 -150 248 0 12 -5 25 -10 28 -6 4 -8 15 -5 25 3 10 1 21 -5 25 -13 8 -14 321 0 330 6 3 10 24 10 47 0 22 8 52 18 66 10 15 26 43 35 62 8 19 27 46 41 59 14 14 26 29 26 35 0 14 51 66 66 66 7 0 22 14 34 30 12 17 28 30 35 30 8 0 30 9 50 20 20 11 44 20 55 20 10 0 22 5 25 10 3 6 19 10 35 10 16 0 32 5 35 10 3 6 30 10 60 10 30 0 57 5 60 10 7 12 182 14 189 2 3 -5 58 -12 122 -15 64 -3 121 -10 127 -16 6 -6 24 -11 39 -11 27 0 36 -3 85 -28 36 -19 73 -15 73 7 0 10 7 24 15 31 8 7 15 27 15 46 0 18 5 36 10 39 6 3 10 21 10 40 0 19 5 37 10 40 6 3 10 21 10 40 0 19 4 36 9 39 4 3 6 16 4 29 -3 13 3 58 12 101 11 57 13 82 5 91 -11 14 -133 53 -225 73 -150 33 -358 44 -575 32z"/>
<path d="M328 3593 l-138 -4 0 -23 c0 -13 8 -59 19 -102 10 -44 29 -124 41 -179 12 -55 35 -154 50 -220 15 -66 42 -183 60 -260 18 -77 45 -194 60 -260 15 -66 42 -183 60 -260 17 -77 45 -196 61 -265 46 -202 89 -386 120 -525 44 -189 51 -215 61 -221 5 -3 37 -8 71 -10 34 -2 128 -9 208 -15 174 -14 401 -8 423 11 9 7 16 27 16 46 0 18 5 36 10 39 6 3 10 26 10 50 0 24 5 47 10 50 5 3 10 26 10 50 0 24 5 47 10 50 6 3 10 30 10 60 0 30 5 57 10 60 5 3 10 26 10 50 0 24 4 47 10 50 5 3 10 26 10 50 0 24 5 47 10 50 6 3 10 26 10 50 0 24 4 47 10 50 5 3 10 26 10 50 0 24 5 47 10 50 5 3 10 26 10 50 0 24 5 47 10 50 6 3 10 30 10 60 0 30 5 57 10 60 6 3 10 26 10 50 0 24 5 47 10 50 6 3 10 33 10 66 0 32 4 67 9 77 5 9 12 25 15 36 5 15 9 16 21 6 10 -8 15 -31 15 -64 0 -29 5 -57 11 -63 6 -6 15 -40 20 -74 12 -82 22 -138 49 -279 34 -181 41 -221 49 -280 14 -95 91 -533 94 -536 9 -9 357 -29 508 -29 196 0 209 4 209 61 0 18 5 36 10 39 5 3 10 21 10 40 0 19 5 37 10 40 5 3 10 21 10 40 0 19 5 37 10 40 6 3 10 21 10 40 0 19 5 37 10 40 6 3 10 21 10 40 0 19 5 37 10 40 6 3 10 21 10 40 0 19 5 37 10 40 6 3 10 21 10 40 0 19 5 37 10 40 6 3 10 21 10 40 0 19 5 37 10 40 6 3 10 21 10 40 0 19 4 37 10 40 23 14 10 80 -24 128 -59 83 -69 194 -24 268 l20 33 14 -19 c10 -13 26 -20 52 -19 58 0 72 9 72 48 0 19 5 38 10 41 6 3 10 21 10 40 0 19 5 37 10 40 6 3 10 26 10 50 0 24 5 47 10 50 6 3 10 21 10 40 0 19 5 37 10 40 6 3 10 21 10 40 0 19 5 37 10 40 5 3 10 21 10 40 0 19 5 37 10 40 5 3 10 21 10 40 0 19 4 37 10 40 6 3 10 21 10 40 0 19 5 37 10 40 6 3 10 21 10 40 0 19 5 37 10 40 6 3 10 21 10 40 0 19 5 37 10 40 6 3 10 21 10 40 0 19 5 37 11 40 5 4 8 19 4 33 -5 25 0 53 35 210 7 29 10 55 7 58 -13 13 -130 16 -371 9 l-266 -7 -5 -22 c-7 -38 -91 -558 -115 -721 -6 -38 -15 -92 -20 -120 -9 -55 -24 -146 -40 -258 -6 -39 -15 -86 -21 -103 -5 -17 -9 -49 -9 -72 0 -22 -4 -44 -10 -47 -5 -3 -10 -26 -10 -50 0 -44 -12 -65 -26 -44 -3 6 -10 42 -15 80 -10 73 -22 163 -40 282 -6 39 -15 99 -20 132 -11 80 -25 165 -39 250 -23 138 -29 181 -35 235 -4 30 -10 64 -15 75 -5 11 -11 40 -14 65 -8 57 -20 123 -43 230 l-18 85 -30 6 c-43 9 -209 10 -439 2 l-198 -6 -10 -26 c-9 -24 -47 -238 -113 -636 -26 -154 -62 -355 -71 -390 -6 -25 -23 -127 -30 -180 -3 -22 -9 -49 -14 -60 -5 -11 -11 -39 -14 -62 -14 -106 -19 -129 -27 -137 -12 -13 -30 39 -27 78 1 18 -2 38 -7 45 -4 8 -12 48 -17 90 -5 42 -13 103 -18 136 -5 33 -13 94 -19 135 -6 41 -16 102 -21 135 -5 33 -14 92 -20 130 -6 39 -15 97 -20 130 -6 33 -14 89 -19 125 -6 36 -15 90 -20 120 -6 30 -15 80 -20 110 -32 172 -47 246 -54 258 -8 12 -143 13 -529 5z"/>
<path d="M3623 3593 c-79 -2 -143 -5 -143 -6 0 -1 -9 -34 -21 -72 -11 -39 -29 -100 -39 -138 -11 -37 -29 -100 -40 -140 -12 -39 -25 -85 -30 -102 -4 -16 -27 -93 -50 -170 -23 -77 -49 -169 -60 -205 -10 -36 -32 -112 -50 -170 -50 -167 -71 -243 -77 -273 -3 -15 -9 -30 -14 -33 -5 -3 -9 -15 -9 -26 0 -23 -16 -78 -33 -115 -20 -44 -4 -56 73 -51 38 2 75 9 81 15 6 6 13 41 14 77 7 136 74 266 217 423 57 62 124 129 150 148 53 39 90 89 137 184 40 79 61 172 61 277 0 68 4 89 28 134 36 71 62 89 142 96 81 7 154 29 202 60 47 30 56 30 68 -2 20 -52 12 -86 -31 -130 -53 -54 -43 -75 16 -34 28 19 46 26 50 19 9 -14 -29 -53 -82 -84 -72 -43 -78 -74 -38 -228 21 -81 24 -110 19 -175 l-6 -77 41 -50 c22 -27 41 -53 41 -56 0 -4 7 -10 17 -13 22 -9 55 23 116 114 27 41 70 98 94 127 42 50 55 94 33 108 -5 3 -10 15 -10 26 0 10 -4 27 -9 37 -14 29 -31 87 -31 110 0 11 -4 24 -10 27 -5 3 -10 15 -10 26 0 10 -4 27 -9 37 -11 22 -57 158 -80 237 l-18 60 -69 6 c-70 7 -369 7 -631 2z"/>
<path d="M4482 2829 c-46 -84 -175 -272 -230 -335 -61 -71 -115 -108 -149 -102 -16 3 -18 -4 -15 -52 2 -30 13 -89 26 -130 13 -41 29 -102 36 -134 13 -63 45 -106 78 -106 25 0 46 -25 38 -45 -3 -9 -18 -15 -40 -15 -52 0 -70 -47 -34 -87 16 -17 18 -25 9 -41 -13 -25 -14 -74 -3 -87 5 -6 18 -41 30 -80 20 -66 28 -95 72 -259 10 -38 23 -73 28 -78 19 -19 482 -42 612 -29 l65 6 3 39 c2 21 -1 43 -7 49 -6 6 -11 21 -11 33 0 13 -4 26 -10 29 -5 3 -10 16 -10 27 0 23 -17 81 -31 110 -5 10 -9 29 -9 42 0 14 -4 28 -10 31 -5 3 -10 19 -10 35 0 16 -4 32 -10 35 -5 3 -10 17 -10 30 0 13 -4 27 -10 30 -5 3 -10 19 -10 35 0 16 -4 32 -10 35 -5 3 -10 19 -10 35 0 16 -4 32 -10 35 -5 3 -10 17 -10 30 0 13 -4 27 -10 30 -5 3 -10 19 -10 35 0 16 -4 32 -10 35 -5 3 -10 19 -10 35 0 16 -4 32 -10 35 -5 3 -10 17 -10 30 0 13 -4 27 -10 30 -5 3 -10 19 -10 35 0 16 -4 32 -10 35 -5 3 -10 19 -10 35 0 16 -4 32 -10 35 -5 3 -10 17 -10 30 0 13 -4 27 -10 30 -5 3 -10 19 -10 35 0 16 -4 32 -10 35 -5 3 -10 19 -10 35 0 16 -4 32 -10 35 -5 3 -10 19 -10 35 0 16 -4 32 -10 35 -5 3 -10 19 -10 35 0 16 -4 32 -10 35 -5 3 -10 17 -10 30 0 13 -4 27 -10 30 -5 3 -10 19 -10 35 0 16 -4 32 -10 35 -5 3 -10 16 -10 29 0 72 -57 102 -88 45z"/>
<path d="M3863 2295 c-39 -17 -40 -26 -11 -82 20 -38 21 -46 10 -88 -8 -32 -9 -52 -2 -65 5 -10 10 -26 10 -36 0 -41 66 -57 118 -27 33 19 61 12 69 -16 7 -29 29 -33 49 -10 17 19 17 24 3 62 -20 58 -107 203 -145 244 -34 36 -52 39 -101 18z"/>
<path d="M3006 1948 c-8 -18 -24 -67 -35 -108 -12 -41 -30 -102 -40 -135 -10 -33 -24 -80 -31 -105 -6 -25 -16 -53 -21 -62 -5 -10 -9 -29 -9 -42 0 -14 -4 -28 -10 -31 -5 -3 -10 -17 -10 -31 0 -13 -4 -32 -9 -42 -13 -26 -31 -86 -31 -104 0 -16 26 -32 39 -24 7 5 297 -11 366 -19 22 -3 90 -3 150 1 l110 6 13 26 c6 14 12 38 12 53 0 15 5 31 10 34 6 3 10 21 10 40 0 19 5 37 10 40 6 3 10 21 10 40 0 19 5 37 10 40 6 3 10 21 10 40 0 19 5 37 10 40 6 3 10 26 10 50 0 24 5 47 10 50 14 9 13 61 -2 85 -17 26 14 60 54 60 26 0 78 40 78 60 0 3 -14 17 -32 30 -28 21 -35 22 -62 11 -17 -7 -87 -15 -156 -18 -106 -5 -148 -2 -277 21 -84 14 -157 26 -163 26 -6 0 -17 -15 -24 -32z"/>
<path d="M765 1050 l-60 -5 -3 -49 c-2 -32 1 -52 10 -57 7 -5 1422 -9 3143 -9 2422 0 3134 3 3143 12 14 14 16 94 3 102 -11 7 -6153 13 -6236 6z"/>
<path d="M2065 808 c-3 -8 -4 -72 -3 -144 l3 -129 25 0 25 0 0 140 0 140 -23 3 c-12 2 -24 -3 -27 -10z"/>
<path d="M711 801 c-11 -7 -9 -29 15 -127 15 -66 31 -123 36 -129 5 -5 24 7 48 30 30 30 40 47 40 71 0 18 5 36 10 39 6 3 10 16 10 29 0 13 9 31 20 41 27 25 25 43 -6 51 -33 8 -47 -6 -59 -64 -13 -62 -36 -63 -50 -2 -15 69 -30 83 -64 61z"/>
<path d="M4394 791 c-57 -34 -85 -101 -49 -115 22 -8 38 1 60 37 18 29 26 32 80 37 48 4 61 9 63 24 2 10 -2 22 -10 27 -25 16 -111 10 -144 -10z"/>
<path d="M3700 780 c0 -11 5 -20 10 -20 6 0 10 9 10 20 0 11 -4 20 -10 20 -5 0 -10 -9 -10 -20z"/>
<path d="M3575 753 c-26 -29 -32 -57 -15 -68 6 -3 10 -25 10 -49 0 -35 6 -48 33 -74 36 -35 58 -40 77 -18 6 8 18 12 26 9 11 -4 14 10 14 78 0 58 -3 79 -10 69 -5 -8 -10 -41 -10 -72 0 -31 -4 -59 -9 -62 -5 -3 -21 6 -35 19 -34 32 -33 85 2 100 28 12 29 41 1 48 -11 3 -23 15 -26 26 -7 29 -27 26 -58 -6z"/>
<path d="M1236 733 c-4 -4 -24 -7 -44 -8 l-37 0 0 -95 0 -95 28 -3 27 -3 0 58 c0 65 17 100 43 90 12 -4 17 -23 19 -74 l3 -68 25 0 c24 0 25 3 28 62 6 116 62 107 62 -10 l0 -58 28 3 27 3 3 67 c5 107 -33 155 -99 128 -23 -10 -36 -10 -55 -1 -29 13 -48 14 -58 4z"/>
<path d="M2210 729 c-60 -22 -81 -129 -35 -174 20 -21 34 -25 83 -25 41 0 62 4 65 13 9 24 -9 40 -37 33 -29 -7 -70 9 -61 25 4 5 25 9 48 9 55 0 68 10 65 49 -4 57 -70 93 -128 70z m55 -48 c3 -5 1 -13 -5 -16 -15 -9 -43 3 -35 15 8 13 32 13 40 1z"/>
<path d="M3350 725 c0 -7 4 -17 10 -20 5 -3 12 -28 16 -55 7 -54 24 -68 24 -21 0 50 61 72 68 24 8 -52 72 -55 72 -4 0 59 -66 104 -121 83 -13 -5 -34 -6 -46 -1 -17 6 -23 5 -23 -6z"/>
<path d="M4116 733 c-4 -4 -19 -7 -34 -8 l-27 0 -3 -63 c-3 -62 10 -98 29 -86 5 3 9 22 9 43 0 41 20 67 44 58 11 -4 16 -26 18 -74 l3 -68 28 -3 27 -3 0 85 c0 79 -2 86 -26 105 -27 21 -55 27 -68 14z"/>
<path d="M2347 710 c-3 -11 -2 -22 2 -24 4 -3 20 -37 36 -77 l28 -72 -26 -23 c-27 -23 -36 -58 -17 -69 18 -11 70 25 89 63 24 48 68 159 77 195 l7 28 -34 -3 c-28 -2 -34 -8 -41 -35 -12 -47 -25 -48 -48 -3 -23 45 -63 56 -73 20z"/>
<path d="M4593 700 c-7 -36 -21 -48 -29 -26 -4 12 -20 16 -54 16 -69 0 -72 -20 -10 -82 41 -43 52 -49 64 -39 13 11 17 9 28 -13 9 -21 18 -26 37 -24 l26 3 -3 75 c-4 102 -8 120 -32 120 -15 0 -22 -9 -27 -30z"/>
</g>
</g>
</svg>
