<svg xmlns="http://www.w3.org/2000/svg" version="1.0" width="6020.000000pt" height="1556.000000pt" viewBox="0 0 6020.000000 1556.000000" preserveAspectRatio="xMidYMid meet">
  <g transform="translate(0.000000,1556.000000) scale(0.100000,-0.100000)" stroke="none">
    <path stroke="none" d="M 45933.0,12017.0 C 45893.0,11990.0 45875.0,11950.0 45884.0,11907.0 C 45893.0,11866.0 45909.0,11733.0 45921.0,11600.0 C 45926.0,11542.0 45935.0,11297.0 45940.0,11055.0 C 45946.0,10813.0 45955.0,10548.0 45960.0,10465.0 C 45995.0,9907.0 46006.0,9047.0 45982.0,8685.0 C 45930.0,7887.0 45910.0,7396.0 45904.0,6732.0 C 45898.0,6161.0 45898.0,6160.0 45953.0,6141.0 C 46006.0,6122.0 46080.0,6146.0 46080.0,6182.0 C 46080.0,6190.0 46084.0,6200.0 46090.0,6206.0 C 46096.0,6212.0 46100.0,6366.0 46100.0,6607.0 C 46101.0,6823.0 46105.0,7002.0 46110.0,7005.0 C 46114.0,7008.0 46149.0,6975.0 46187.0,6933.0 C 46291.0,6814.0 46385.0,6722.0 46517.0,6608.0 C 46573.0,6560.0 46725.0,6462.0 46806.0,6421.0 C 46878.0,6385.0 46929.0,6367.0 47060.0,6328.0 C 47130.0,6308.0 47390.0,6311.0 47465.0,6333.0 C 47498.0,6343.0 47540.0,6355.0 47558.0,6360.0 C 47588.0,6367.0 47712.0,6428.0 47805.0,6480.0 C 47876.0,6520.0 48033.0,6661.0 48100.0,6746.0 C 48163.0,6825.0 48211.0,6892.0 48232.0,6930.0 C 48246.0,6955.0 48269.0,6995.0 48283.0,7020.0 C 48320.0,7083.0 48362.0,7170.0 48410.0,7285.0 C 48437.0,7347.0 48490.0,7526.0 48509.0,7615.0 C 48541.0,7768.0 48544.0,7805.0 48544.0,8015.0 C 48543.0,8185.0 48539.0,8251.0 48526.0,8305.0 C 48516.0,8344.0 48505.0,8391.0 48501.0,8410.0 C 48492.0,8446.0 48446.0,8590.0 48431.0,8625.0 C 48335.0,8849.0 48203.0,9024.0 48030.0,9154.0 C 47887.0,9261.0 47756.0,9320.0 47545.0,9370.0 C 47456.0,9391.0 47206.0,9395.0 47114.0,9376.0 C 47069.0,9367.0 47021.0,9360.0 47007.0,9360.0 C 46993.0,9360.0 46978.0,9356.0 46975.0,9350.0 C 46972.0,9345.0 46959.0,9340.0 46948.0,9340.0 C 46928.0,9340.0 46883.0,9328.0 46835.0,9310.0 C 46824.0,9305.0 46788.0,9292.0 46755.0,9279.0 C 46722.0,9267.0 46691.0,9254.0 46685.0,9250.0 C 46680.0,9246.0 46630.0,9219.0 46575.0,9190.0 C 46462.0,9130.0 46420.0,9103.0 46301.0,9012.0 C 46255.0,8977.0 46214.0,8952.0 46209.0,8957.0 C 46205.0,8961.0 46199.0,9172.0 46196.0,9425.0 C 46194.0,9678.0 46187.0,9984.0 46181.0,10105.0 C 46175.0,10226.0 46166.0,10429.0 46160.0,10555.0 C 46154.0,10682.0 46145.0,10963.0 46140.0,11180.0 C 46135.0,11397.0 46126.0,11620.0 46121.0,11675.0 C 46091.0,11959.0 46090.0,11966.0 46047.0,12013.0 C 46015.0,12046.0 45978.0,12047.0 45933.0,12017.0M 47510.0,9169.0 C 47572.0,9155.0 47631.0,9139.0 47655.0,9130.0 C 47733.0,9101.0 47795.0,9069.0 47856.0,9027.0 C 48112.0,8854.0 48275.0,8570.0 48330.0,8200.0 C 48343.0,8116.0 48343.0,7893.0 48330.0,7838.0 C 48325.0,7814.0 48316.0,7761.0 48310.0,7720.0 C 48294.0,7618.0 48280.0,7549.0 48270.0,7525.0 C 48265.0,7514.0 48252.0,7476.0 48240.0,7440.0 C 48229.0,7404.0 48215.0,7367.0 48210.0,7358.0 C 48204.0,7348.0 48200.0,7333.0 48200.0,7325.0 C 48200.0,7317.0 48196.0,7302.0 48191.0,7292.0 C 48186.0,7283.0 48172.0,7253.0 48159.0,7225.0 C 48030.0,6951.0 47838.0,6729.0 47635.0,6620.0 C 47525.0,6560.0 47533.0,6564.0 47452.0,6540.0 C 47388.0,6521.0 47361.0,6519.0 47242.0,6522.0 C 47088.0,6527.0 47049.0,6537.0 46893.0,6607.0 C 46872.0,6616.0 46810.0,6654.0 46755.0,6691.0 C 46635.0,6773.0 46372.0,7026.0 46284.0,7145.0 C 46252.0,7189.0 46201.0,7254.0 46171.0,7289.0 L 46117.0,7353.0 L 46129.0,7604.0 C 46142.0,7896.0 46148.0,8008.0 46160.0,8220.0 C 46165.0,8305.0 46172.0,8433.0 46176.0,8504.0 L 46183.0,8634.0 L 46239.0,8688.0 C 46382.0,8826.0 46586.0,8971.0 46752.0,9050.0 C 46809.0,9078.0 46861.0,9100.0 46869.0,9100.0 C 46876.0,9100.0 46921.0,9113.0 46969.0,9130.0 C 47116.0,9180.0 47375.0,9199.0 47510.0,9169.0" fill="#ffffff" id="ffffff-000001"/>
    <path stroke="none" d="M 42716.0,11739.0 C 42682.0,11713.0 42657.0,11663.0 42665.0,11642.0 C 42669.0,11632.0 42676.0,11605.0 42680.0,11580.0 C 42685.0,11555.0 42694.0,11513.0 42700.0,11485.0 C 42706.0,11458.0 42715.0,11401.0 42721.0,11360.0 C 42727.0,11319.0 42736.0,11254.0 42742.0,11215.0 C 42747.0,11177.0 42755.0,10880.0 42759.0,10555.0 C 42764.0,10231.0 42773.0,9767.0 42779.0,9525.0 C 42788.0,9185.0 42788.0,8903.0 42779.0,8280.0 C 42772.0,7837.0 42765.0,7197.0 42763.0,6857.0 C 42759.0,6242.0 42759.0,6240.0 42780.0,6210.0 C 42819.0,6156.0 42903.0,6161.0 42939.0,6220.0 C 42956.0,6248.0 42958.0,6288.0 42964.0,6773.0 C 42975.0,7654.0 42988.0,8530.0 42996.0,8851.0 L 43003.0,9158.0 L 43110.0,9266.0 C 43211.0,9369.0 43254.0,9401.0 43419.0,9495.0 C 43458.0,9517.0 43680.0,9590.0 43770.0,9611.0 C 43839.0,9626.0 44079.0,9627.0 44151.0,9611.0 C 44366.0,9564.0 44509.0,9495.0 44631.0,9379.0 C 44731.0,9284.0 44824.0,9112.0 44870.0,8940.0 C 44876.0,8915.0 44885.0,8882.0 44890.0,8865.0 C 44894.0,8849.0 44903.0,8806.0 44909.0,8770.0 C 44915.0,8734.0 44924.0,8678.0 44929.0,8645.0 C 44939.0,8585.0 44950.0,8478.0 44970.0,8240.0 C 44983.0,8082.0 44983.0,6727.0 44970.0,6611.0 C 44939.0,6327.0 44938.0,6297.0 44959.0,6248.0 C 44970.0,6221.0 44987.0,6199.0 45000.0,6195.0 C 45034.0,6184.0 45096.0,6200.0 45120.0,6225.0 C 45144.0,6251.0 45149.0,6287.0 45169.0,6550.0 C 45175.0,6630.0 45185.0,6738.0 45190.0,6790.0 C 45195.0,6842.0 45204.0,6950.0 45210.0,7030.0 C 45215.0,7110.0 45225.0,7245.0 45231.0,7330.0 C 45250.0,7586.0 45232.0,8273.0 45202.0,8460.0 C 45180.0,8597.0 45155.0,8721.0 45140.0,8775.0 C 45134.0,8797.0 45125.0,8831.0 45120.0,8850.0 C 45101.0,8926.0 45092.0,8957.0 45070.0,9015.0 C 45058.0,9048.0 45046.0,9085.0 45043.0,9098.0 C 45040.0,9110.0 45034.0,9123.0 45029.0,9126.0 C 45024.0,9129.0 45020.0,9139.0 45019.0,9148.0 C 45019.0,9170.0 44987.0,9235.0 44933.0,9327.0 C 44856.0,9457.0 44678.0,9625.0 44555.0,9684.0 C 44375.0,9771.0 44303.0,9793.0 44110.0,9821.0 C 44004.0,9836.0 43710.0,9818.0 43630.0,9791.0 C 43616.0,9786.0 43585.0,9777.0 43560.0,9770.0 C 43489.0,9750.0 43396.0,9718.0 43385.0,9710.0 C 43380.0,9706.0 43337.0,9683.0 43290.0,9660.0 C 43218.0,9624.0 43079.0,9528.0 43032.0,9483.0 C 43025.0,9476.0 43015.0,9470.0 43011.0,9470.0 C 43002.0,9470.0 42980.0,10274.0 42980.0,10570.0 C 42980.0,10991.0 42928.0,11504.0 42867.0,11675.0 C 42840.0,11753.0 42771.0,11782.0 42716.0,11739.0" fill="#ffffff" id="ffffff-000002"/>
    <path stroke="none" d="M 6870.0,11547.0 C 6840.0,11533.0 6833.0,11524.0 6822.0,11485.0 C 6813.0,11456.0 6823.0,10657.0 6839.0,10030.0 C 6865.0,9038.0 6872.0,8311.0 6860.0,7965.0 C 6839.0,7350.0 6833.0,6980.0 6842.0,6785.0 C 6847.0,6681.0 6853.0,6537.0 6856.0,6465.0 C 6863.0,6295.0 6882.0,6254.0 6949.0,6258.0 C 6969.0,6259.0 7444.0,6264.0 8005.0,6268.0 C 8566.0,6272.0 9026.0,6277.0 9027.0,6278.0 C 9028.0,6279.0 9036.0,6293.0 9045.0,6310.0 C 9076.0,6370.0 9057.0,6440.0 9002.0,6461.0 C 8958.0,6478.0 7796.0,6491.0 7421.0,6480.0 C 7226.0,6474.0 7083.0,6473.0 7078.0,6478.0 C 7044.0,6512.0 7034.0,7197.0 7060.0,7745.0 C 7078.0,8146.0 7079.0,8664.0 7062.0,9340.0 C 7035.0,10392.0 7031.0,10553.0 7025.0,10990.0 C 7021.0,11264.0 7015.0,11452.0 7008.0,11479.0 C 6991.0,11546.0 6931.0,11575.0 6870.0,11547.0" fill="#ffffff" id="ffffff-000003"/>
    <path stroke="none" d="M 39530.0,10450.0 C 39522.0,10445.0 39508.0,10439.0 39498.0,10436.0 C 39479.0,10430.0 39465.0,10364.0 39475.0,10320.0 C 39482.0,10288.0 39503.0,10274.0 39576.0,10251.0 C 39610.0,10240.0 39622.0,10240.0 39652.0,10253.0 C 39682.0,10265.0 39691.0,10277.0 39701.0,10310.0 C 39712.0,10346.0 39711.0,10356.0 39696.0,10385.0 C 39667.0,10438.0 39573.0,10475.0 39530.0,10450.0" fill="#ffffff" id="ffffff-000004"/>
    <path stroke="none" d="M 41823.0,10249.0 C 41805.0,10238.0 41789.0,10221.0 41786.0,10212.0 C 41772.0,10157.0 41771.0,10134.0 41784.0,10073.0 C 41806.0,9971.0 41840.0,9692.0 41840.0,9616.0 C 41840.0,9572.0 41830.0,9571.0 41759.0,9608.0 C 41729.0,9624.0 41676.0,9642.0 41640.0,9649.0 C 41604.0,9656.0 41559.0,9666.0 41540.0,9671.0 C 41496.0,9684.0 41180.0,9677.0 41125.0,9662.0 C 41103.0,9656.0 41072.0,9648.0 41055.0,9645.0 C 40962.0,9625.0 40828.0,9535.0 40701.0,9409.0 C 40602.0,9310.0 40459.0,9133.0 40408.0,9047.0 C 40391.0,9019.0 40365.0,8977.0 40349.0,8953.0 C 40333.0,8930.0 40320.0,8909.0 40320.0,8906.0 C 40320.0,8903.0 40303.0,8863.0 40281.0,8818.0 C 40236.0,8721.0 40210.0,8652.0 40182.0,8555.0 C 40093.0,8242.0 40100.0,8032.0 40210.0,7745.0 C 40231.0,7688.0 40292.0,7578.0 40329.0,7530.0 C 40343.0,7511.0 40366.0,7479.0 40379.0,7460.0 C 40413.0,7410.0 40523.0,7304.0 40610.0,7238.0 C 40689.0,7178.0 40855.0,7090.0 40928.0,7071.0 C 40951.0,7065.0 40989.0,7054.0 41013.0,7048.0 C 41073.0,7030.0 41361.0,7031.0 41420.0,7049.0 C 41584.0,7099.0 41661.0,7135.0 41746.0,7201.0 C 41774.0,7222.0 41800.0,7240.0 41805.0,7240.0 C 41812.0,7240.0 41807.0,7147.0 41790.0,7010.0 C 41785.0,6969.0 41776.0,6892.0 41770.0,6840.0 C 41746.0,6628.0 41708.0,6368.0 41690.0,6285.0 C 41685.0,6263.0 41677.0,6218.0 41670.0,6185.0 C 41658.0,6118.0 41651.0,6085.0 41619.0,5955.0 C 41568.0,5741.0 41503.0,5570.0 41425.0,5445.0 C 41408.0,5418.0 41387.0,5384.0 41378.0,5370.0 C 41309.0,5258.0 41148.0,5143.0 41017.0,5111.0 C 40949.0,5095.0 40813.0,5097.0 40760.0,5116.0 C 40665.0,5148.0 40530.0,5223.0 40450.0,5288.0 C 40372.0,5350.0 40362.0,5363.0 40316.0,5455.0 C 40262.0,5561.0 40218.0,5676.0 40194.0,5775.0 C 40186.0,5808.0 40175.0,5851.0 40170.0,5870.0 C 40142.0,5981.0 40125.0,6131.0 40112.0,6378.0 C 40102.0,6574.0 40093.0,6593.0 40015.0,6598.0 C 39946.0,6603.0 39925.0,6588.0 39910.0,6527.0 C 39892.0,6451.0 39916.0,6090.0 39950.0,5918.0 C 39985.0,5747.0 39992.0,5718.0 40033.0,5595.0 C 40065.0,5497.0 40135.0,5345.0 40175.0,5286.0 C 40189.0,5266.0 40200.0,5246.0 40200.0,5242.0 C 40200.0,5238.0 40234.0,5198.0 40276.0,5153.0 C 40369.0,5051.0 40478.0,4977.0 40595.0,4935.0 C 40701.0,4897.0 40887.0,4881.0 40995.0,4900.0 C 41034.0,4907.0 41080.0,4914.0 41098.0,4917.0 C 41159.0,4927.0 41316.0,5015.0 41390.0,5081.0 C 41460.0,5143.0 41564.0,5274.0 41626.0,5375.0 C 41666.0,5443.0 41720.0,5555.0 41720.0,5574.0 C 41720.0,5582.0 41725.0,5592.0 41730.0,5595.0 C 41736.0,5598.0 41740.0,5612.0 41740.0,5625.0 C 41740.0,5638.0 41744.0,5651.0 41749.0,5654.0 C 41754.0,5657.0 41760.0,5672.0 41763.0,5687.0 C 41766.0,5703.0 41773.0,5731.0 41779.0,5750.0 C 41820.0,5892.0 41844.0,5999.0 41881.0,6215.0 C 41887.0,6248.0 41895.0,6295.0 41900.0,6320.0 C 41926.0,6459.0 41941.0,6557.0 41961.0,6705.0 C 41967.0,6749.0 41975.0,6817.0 41981.0,6855.0 C 41989.0,6920.0 41995.0,6976.0 42020.0,7245.0 C 42031.0,7352.0 42045.0,7562.0 42061.0,7855.0 C 42077.0,8143.0 42084.0,9189.0 42071.0,9380.0 C 42052.0,9657.0 42031.0,9867.0 42010.0,9985.0 C 42006.0,10013.0 41996.0,10071.0 41988.0,10115.0 C 41977.0,10183.0 41970.0,10199.0 41939.0,10232.0 C 41898.0,10276.0 41870.0,10280.0 41823.0,10249.0M 41487.0,9469.0 C 41645.0,9447.0 41707.0,9423.0 41780.0,9356.0 C 41805.0,9333.0 41833.0,9309.0 41843.0,9304.0 C 41859.0,9295.0 41862.0,9261.0 41872.0,8939.0 C 41880.0,8671.0 41880.0,8530.0 41871.0,8360.0 C 41865.0,8236.0 41860.0,8084.0 41860.0,8021.0 C 41860.0,7959.0 41855.0,7842.0 41849.0,7762.0 L 41837.0,7615.0 L 41790.0,7544.0 C 41730.0,7456.0 41623.0,7356.0 41539.0,7310.0 L 41475.0,7275.0 L 41280.0,7276.0 C 41090.0,7278.0 41072.0,7280.0 40916.0,7319.0 C 40824.0,7342.0 40727.0,7401.0 40644.0,7484.0 C 40504.0,7624.0 40469.0,7675.0 40385.0,7865.0 C 40342.0,7960.0 40317.0,8139.0 40331.0,8255.0 C 40343.0,8365.0 40368.0,8487.0 40390.0,8545.0 C 40394.0,8556.0 40403.0,8583.0 40410.0,8605.0 C 40430.0,8671.0 40520.0,8850.0 40571.0,8926.0 C 40625.0,9007.0 40723.0,9131.0 40790.0,9204.0 C 40864.0,9285.0 40984.0,9400.0 40996.0,9400.0 C 41001.0,9400.0 41025.0,9409.0 41048.0,9420.0 C 41070.0,9431.0 41095.0,9440.0 41103.0,9440.0 C 41110.0,9440.0 41121.0,9445.0 41127.0,9451.0 C 41153.0,9477.0 41356.0,9487.0 41487.0,9469.0" fill="#ffffff" id="ffffff-000005"/>
    <path stroke="none" d="M 10835.0,9945.0 C 10830.0,9944.0 10805.0,9937.0 10780.0,9931.0 C 10707.0,9911.0 10666.0,9899.0 10645.0,9891.0 C 10568.0,9860.0 10508.0,9830.0 10458.0,9798.0 C 10426.0,9777.0 10397.0,9760.0 10394.0,9760.0 C 10391.0,9760.0 10352.0,9727.0 10307.0,9688.0 C 10216.0,9607.0 10123.0,9504.0 10071.0,9426.0 C 10053.0,9398.0 10029.0,9366.0 10019.0,9355.0 C 10003.0,9337.0 9985.0,9306.0 9922.0,9185.0 C 9857.0,9063.0 9816.0,8949.0 9749.0,8705.0 C 9743.0,8683.0 9734.0,8654.0 9730.0,8640.0 C 9721.0,8613.0 9707.0,8537.0 9690.0,8420.0 C 9684.0,8379.0 9675.0,8325.0 9669.0,8300.0 C 9651.0,8214.0 9636.0,7784.0 9648.0,7701.0 C 9654.0,7659.0 9664.0,7585.0 9670.0,7535.0 C 9685.0,7417.0 9700.0,7322.0 9710.0,7285.0 C 9715.0,7269.0 9724.0,7235.0 9730.0,7210.0 C 9741.0,7169.0 9769.0,7088.0 9790.0,7035.0 C 9811.0,6983.0 9915.0,6778.0 9949.0,6724.0 C 10073.0,6522.0 10290.0,6329.0 10475.0,6256.0 C 10558.0,6223.0 10608.0,6202.0 10632.0,6189.0 C 10642.0,6184.0 10657.0,6180.0 10665.0,6180.0 C 10673.0,6180.0 10688.0,6176.0 10698.0,6171.0 C 10707.0,6165.0 10755.0,6151.0 10804.0,6139.0 C 10993.0,6093.0 11186.0,6143.0 11382.0,6290.0 C 11565.0,6428.0 11746.0,6693.0 11870.0,7005.0 C 11874.0,7016.0 11885.0,7041.0 11893.0,7060.0 C 11916.0,7113.0 11936.0,7170.0 11949.0,7218.0 C 11955.0,7241.0 11965.0,7279.0 11971.0,7303.0 C 12020.0,7484.0 12016.0,7465.0 12050.0,7695.0 C 12068.0,7809.0 12080.0,8122.0 12070.0,8200.0 C 12065.0,8241.0 12061.0,8315.0 12060.0,8364.0 C 12060.0,8413.0 12056.0,8469.0 12051.0,8489.0 C 12046.0,8509.0 12036.0,8557.0 12030.0,8595.0 C 11992.0,8827.0 11931.0,9007.0 11822.0,9200.0 C 11808.0,9225.0 11785.0,9266.0 11771.0,9292.0 C 11722.0,9379.0 11585.0,9530.0 11476.0,9615.0 C 11383.0,9688.0 11186.0,9799.0 11148.0,9800.0 C 11139.0,9800.0 11121.0,9804.0 11108.0,9809.0 C 11095.0,9814.0 11063.0,9824.0 11036.0,9832.0 C 10995.0,9843.0 10980.0,9853.0 10953.0,9892.0 C 10913.0,9947.0 10884.0,9960.0 10835.0,9945.0M 10823.0,9660.0 C 10923.0,9650.0 11027.0,9623.0 11150.0,9574.0 C 11175.0,9565.0 11245.0,9524.0 11305.0,9483.0 C 11397.0,9422.0 11430.0,9393.0 11503.0,9306.0 C 11588.0,9206.0 11604.0,9180.0 11685.0,9020.0 C 11726.0,8939.0 11736.0,8916.0 11743.0,8885.0 C 11746.0,8874.0 11759.0,8834.0 11773.0,8795.0 C 11798.0,8725.0 11809.0,8680.0 11829.0,8565.0 C 11834.0,8532.0 11844.0,8476.0 11851.0,8440.0 C 11865.0,8359.0 11866.0,7836.0 11852.0,7760.0 C 11846.0,7730.0 11836.0,7665.0 11830.0,7615.0 C 11823.0,7566.0 11811.0,7500.0 11803.0,7470.0 C 11795.0,7440.0 11784.0,7397.0 11779.0,7375.0 C 11749.0,7249.0 11744.0,7235.0 11700.0,7125.0 C 11593.0,6857.0 11504.0,6703.0 11369.0,6556.0 C 11301.0,6482.0 11198.0,6405.0 11130.0,6379.0 C 11100.0,6368.0 11068.0,6355.0 11060.0,6350.0 C 11019.0,6329.0 10929.0,6317.0 10892.0,6328.0 C 10872.0,6334.0 10835.0,6344.0 10810.0,6350.0 C 10785.0,6357.0 10756.0,6366.0 10745.0,6370.0 C 10734.0,6374.0 10705.0,6384.0 10680.0,6391.0 C 10562.0,6425.0 10397.0,6520.0 10293.0,6614.0 C 10181.0,6714.0 10035.0,6964.0 9964.0,7175.0 C 9928.0,7284.0 9919.0,7317.0 9901.0,7415.0 C 9895.0,7443.0 9884.0,7506.0 9874.0,7555.0 C 9853.0,7667.0 9850.0,8125.0 9869.0,8265.0 C 9888.0,8401.0 9901.0,8482.0 9910.0,8515.0 C 9914.0,8532.0 9923.0,8572.0 9930.0,8605.0 C 9943.0,8667.0 10011.0,8882.0 10035.0,8935.0 C 10042.0,8952.0 10058.0,8988.0 10070.0,9015.0 C 10104.0,9093.0 10150.0,9179.0 10170.0,9205.0 C 10174.0,9211.0 10188.0,9233.0 10200.0,9254.0 C 10221.0,9293.0 10314.0,9411.0 10362.0,9460.0 C 10432.0,9532.0 10494.0,9583.0 10571.0,9629.0 C 10637.0,9669.0 10661.0,9679.0 10685.0,9676.0 C 10702.0,9673.0 10763.0,9666.0 10823.0,9660.0" fill="#ffffff" id="ffffff-000006"/>
    <path stroke="none" d="M 24755.0,9945.0 C 24750.0,9944.0 24725.0,9937.0 24700.0,9931.0 C 24627.0,9911.0 24586.0,9899.0 24565.0,9891.0 C 24488.0,9860.0 24428.0,9830.0 24378.0,9798.0 C 24346.0,9777.0 24317.0,9760.0 24314.0,9760.0 C 24311.0,9760.0 24272.0,9727.0 24227.0,9688.0 C 24136.0,9607.0 24043.0,9504.0 23991.0,9426.0 C 23973.0,9398.0 23949.0,9366.0 23939.0,9355.0 C 23923.0,9337.0 23905.0,9306.0 23842.0,9185.0 C 23777.0,9063.0 23736.0,8949.0 23669.0,8705.0 C 23663.0,8683.0 23654.0,8654.0 23650.0,8640.0 C 23641.0,8613.0 23627.0,8537.0 23610.0,8420.0 C 23604.0,8379.0 23595.0,8325.0 23589.0,8300.0 C 23571.0,8214.0 23556.0,7784.0 23568.0,7701.0 C 23574.0,7659.0 23584.0,7585.0 23590.0,7535.0 C 23605.0,7417.0 23620.0,7322.0 23630.0,7285.0 C 23635.0,7269.0 23644.0,7235.0 23650.0,7210.0 C 23661.0,7169.0 23689.0,7088.0 23710.0,7035.0 C 23731.0,6983.0 23835.0,6778.0 23869.0,6724.0 C 23993.0,6522.0 24210.0,6329.0 24395.0,6256.0 C 24478.0,6223.0 24528.0,6202.0 24552.0,6189.0 C 24562.0,6184.0 24577.0,6180.0 24585.0,6180.0 C 24593.0,6180.0 24608.0,6176.0 24618.0,6171.0 C 24627.0,6165.0 24675.0,6151.0 24724.0,6139.0 C 24913.0,6093.0 25106.0,6143.0 25302.0,6290.0 C 25485.0,6428.0 25666.0,6693.0 25790.0,7005.0 C 25794.0,7016.0 25805.0,7041.0 25813.0,7060.0 C 25836.0,7113.0 25856.0,7170.0 25869.0,7218.0 C 25875.0,7241.0 25885.0,7279.0 25891.0,7303.0 C 25940.0,7484.0 25936.0,7465.0 25970.0,7695.0 C 25988.0,7809.0 26000.0,8122.0 25990.0,8200.0 C 25985.0,8241.0 25981.0,8315.0 25980.0,8364.0 C 25980.0,8413.0 25976.0,8469.0 25971.0,8489.0 C 25966.0,8509.0 25956.0,8557.0 25950.0,8595.0 C 25912.0,8827.0 25851.0,9007.0 25742.0,9200.0 C 25728.0,9225.0 25705.0,9266.0 25691.0,9292.0 C 25642.0,9379.0 25505.0,9530.0 25396.0,9615.0 C 25303.0,9688.0 25106.0,9799.0 25068.0,9800.0 C 25059.0,9800.0 25041.0,9804.0 25028.0,9809.0 C 25015.0,9814.0 24983.0,9824.0 24956.0,9832.0 C 24915.0,9843.0 24900.0,9853.0 24873.0,9892.0 C 24833.0,9947.0 24804.0,9960.0 24755.0,9945.0M 24743.0,9660.0 C 24843.0,9650.0 24947.0,9623.0 25070.0,9574.0 C 25095.0,9565.0 25165.0,9524.0 25225.0,9483.0 C 25317.0,9422.0 25350.0,9393.0 25423.0,9306.0 C 25508.0,9206.0 25524.0,9180.0 25605.0,9020.0 C 25646.0,8939.0 25656.0,8916.0 25663.0,8885.0 C 25666.0,8874.0 25679.0,8834.0 25693.0,8795.0 C 25718.0,8725.0 25729.0,8680.0 25749.0,8565.0 C 25754.0,8532.0 25764.0,8476.0 25771.0,8440.0 C 25785.0,8359.0 25786.0,7836.0 25772.0,7760.0 C 25766.0,7730.0 25756.0,7665.0 25750.0,7615.0 C 25743.0,7566.0 25731.0,7500.0 25723.0,7470.0 C 25715.0,7440.0 25704.0,7397.0 25699.0,7375.0 C 25669.0,7249.0 25664.0,7235.0 25620.0,7125.0 C 25513.0,6857.0 25424.0,6703.0 25289.0,6556.0 C 25221.0,6482.0 25118.0,6405.0 25050.0,6379.0 C 25020.0,6368.0 24988.0,6355.0 24980.0,6350.0 C 24939.0,6329.0 24849.0,6317.0 24812.0,6328.0 C 24792.0,6334.0 24755.0,6344.0 24730.0,6350.0 C 24705.0,6357.0 24676.0,6366.0 24665.0,6370.0 C 24654.0,6374.0 24625.0,6384.0 24600.0,6391.0 C 24482.0,6425.0 24317.0,6520.0 24213.0,6614.0 C 24101.0,6714.0 23955.0,6964.0 23884.0,7175.0 C 23848.0,7284.0 23839.0,7317.0 23821.0,7415.0 C 23815.0,7443.0 23804.0,7506.0 23794.0,7555.0 C 23773.0,7667.0 23770.0,8125.0 23789.0,8265.0 C 23808.0,8401.0 23821.0,8482.0 23830.0,8515.0 C 23834.0,8532.0 23843.0,8572.0 23850.0,8605.0 C 23863.0,8667.0 23931.0,8882.0 23955.0,8935.0 C 23962.0,8952.0 23978.0,8988.0 23990.0,9015.0 C 24024.0,9093.0 24070.0,9179.0 24090.0,9205.0 C 24094.0,9211.0 24108.0,9233.0 24120.0,9254.0 C 24141.0,9293.0 24234.0,9411.0 24282.0,9460.0 C 24352.0,9532.0 24414.0,9583.0 24491.0,9629.0 C 24557.0,9669.0 24581.0,9679.0 24605.0,9676.0 C 24622.0,9673.0 24683.0,9666.0 24743.0,9660.0" fill="#ffffff" id="ffffff-000007"/>
    <path stroke="none" d="M 50315.0,9945.0 C 50310.0,9944.0 50285.0,9937.0 50260.0,9931.0 C 50187.0,9911.0 50146.0,9899.0 50125.0,9891.0 C 50048.0,9860.0 49988.0,9830.0 49938.0,9798.0 C 49906.0,9777.0 49877.0,9760.0 49874.0,9760.0 C 49871.0,9760.0 49832.0,9727.0 49787.0,9688.0 C 49696.0,9607.0 49603.0,9504.0 49551.0,9426.0 C 49533.0,9398.0 49509.0,9366.0 49499.0,9355.0 C 49483.0,9337.0 49465.0,9306.0 49402.0,9185.0 C 49337.0,9063.0 49296.0,8949.0 49229.0,8705.0 C 49223.0,8683.0 49214.0,8654.0 49210.0,8640.0 C 49201.0,8613.0 49187.0,8537.0 49170.0,8420.0 C 49164.0,8379.0 49155.0,8325.0 49149.0,8300.0 C 49131.0,8214.0 49116.0,7784.0 49128.0,7701.0 C 49134.0,7659.0 49144.0,7585.0 49150.0,7535.0 C 49165.0,7417.0 49180.0,7322.0 49190.0,7285.0 C 49195.0,7269.0 49204.0,7235.0 49210.0,7210.0 C 49221.0,7169.0 49249.0,7088.0 49270.0,7035.0 C 49291.0,6983.0 49395.0,6778.0 49429.0,6724.0 C 49553.0,6522.0 49770.0,6329.0 49955.0,6256.0 C 50038.0,6223.0 50088.0,6202.0 50112.0,6189.0 C 50122.0,6184.0 50137.0,6180.0 50145.0,6180.0 C 50153.0,6180.0 50168.0,6176.0 50178.0,6171.0 C 50187.0,6165.0 50235.0,6151.0 50284.0,6139.0 C 50473.0,6093.0 50666.0,6143.0 50862.0,6290.0 C 51045.0,6428.0 51226.0,6693.0 51350.0,7005.0 C 51354.0,7016.0 51365.0,7041.0 51373.0,7060.0 C 51396.0,7113.0 51416.0,7170.0 51429.0,7218.0 C 51435.0,7241.0 51445.0,7279.0 51451.0,7303.0 C 51500.0,7484.0 51496.0,7465.0 51530.0,7695.0 C 51548.0,7809.0 51560.0,8122.0 51550.0,8200.0 C 51545.0,8241.0 51541.0,8315.0 51540.0,8364.0 C 51540.0,8413.0 51536.0,8469.0 51531.0,8489.0 C 51526.0,8509.0 51516.0,8557.0 51510.0,8595.0 C 51472.0,8827.0 51411.0,9007.0 51302.0,9200.0 C 51288.0,9225.0 51265.0,9266.0 51251.0,9292.0 C 51202.0,9379.0 51065.0,9530.0 50956.0,9615.0 C 50863.0,9688.0 50666.0,9799.0 50628.0,9800.0 C 50619.0,9800.0 50601.0,9804.0 50588.0,9809.0 C 50575.0,9814.0 50543.0,9824.0 50516.0,9832.0 C 50475.0,9843.0 50460.0,9853.0 50433.0,9892.0 C 50393.0,9947.0 50364.0,9960.0 50315.0,9945.0M 50303.0,9660.0 C 50403.0,9650.0 50507.0,9623.0 50630.0,9574.0 C 50655.0,9565.0 50725.0,9524.0 50785.0,9483.0 C 50877.0,9422.0 50910.0,9393.0 50983.0,9306.0 C 51068.0,9206.0 51084.0,9180.0 51165.0,9020.0 C 51206.0,8939.0 51216.0,8916.0 51223.0,8885.0 C 51226.0,8874.0 51239.0,8834.0 51253.0,8795.0 C 51278.0,8725.0 51289.0,8680.0 51309.0,8565.0 C 51314.0,8532.0 51324.0,8476.0 51331.0,8440.0 C 51345.0,8359.0 51346.0,7836.0 51332.0,7760.0 C 51326.0,7730.0 51316.0,7665.0 51310.0,7615.0 C 51303.0,7566.0 51291.0,7500.0 51283.0,7470.0 C 51275.0,7440.0 51264.0,7397.0 51259.0,7375.0 C 51229.0,7249.0 51224.0,7235.0 51180.0,7125.0 C 51073.0,6857.0 50984.0,6703.0 50849.0,6556.0 C 50781.0,6482.0 50678.0,6405.0 50610.0,6379.0 C 50580.0,6368.0 50548.0,6355.0 50540.0,6350.0 C 50499.0,6329.0 50409.0,6317.0 50372.0,6328.0 C 50352.0,6334.0 50315.0,6344.0 50290.0,6350.0 C 50265.0,6357.0 50236.0,6366.0 50225.0,6370.0 C 50214.0,6374.0 50185.0,6384.0 50160.0,6391.0 C 50042.0,6425.0 49877.0,6520.0 49773.0,6614.0 C 49661.0,6714.0 49515.0,6964.0 49444.0,7175.0 C 49408.0,7284.0 49399.0,7317.0 49381.0,7415.0 C 49375.0,7443.0 49364.0,7506.0 49354.0,7555.0 C 49333.0,7667.0 49330.0,8125.0 49349.0,8265.0 C 49368.0,8401.0 49381.0,8482.0 49390.0,8515.0 C 49394.0,8532.0 49403.0,8572.0 49410.0,8605.0 C 49423.0,8667.0 49491.0,8882.0 49515.0,8935.0 C 49522.0,8952.0 49538.0,8988.0 49550.0,9015.0 C 49584.0,9093.0 49630.0,9179.0 49650.0,9205.0 C 49654.0,9211.0 49668.0,9233.0 49680.0,9254.0 C 49701.0,9293.0 49794.0,9411.0 49842.0,9460.0 C 49912.0,9532.0 49974.0,9583.0 50051.0,9629.0 C 50117.0,9669.0 50141.0,9679.0 50165.0,9676.0 C 50182.0,9673.0 50243.0,9666.0 50303.0,9660.0" fill="#ffffff" id="ffffff-000008"/>
    <path stroke="none" d="M 28829.0,9885.0 C 28785.0,9861.0 28781.0,9810.0 28775.0,9235.0 C 28772.0,8944.0 28765.0,8525.0 28761.0,8305.0 C 28756.0,8085.0 28747.0,7619.0 28741.0,7270.0 C 28736.0,6921.0 28728.0,6591.0 28724.0,6538.0 C 28714.0,6377.0 28736.0,6322.0 28827.0,6287.0 C 28893.0,6261.0 28899.0,6268.0 28929.0,6390.0 C 28936.0,6418.0 28941.0,6661.0 28945.0,7045.0 C 28947.0,7381.0 28954.0,7810.0 28959.0,8000.0 C 28964.0,8190.0 28971.0,8503.0 28975.0,8695.0 L 28982.0,9045.0 L 29012.0,9110.0 C 29080.0,9256.0 29108.0,9298.0 29185.0,9375.0 C 29288.0,9477.0 29406.0,9543.0 29552.0,9580.0 C 29685.0,9613.0 29875.0,9602.0 29990.0,9555.0 C 30153.0,9488.0 30281.0,9361.0 30337.0,9210.0 C 30370.0,9121.0 30379.0,9081.0 30391.0,8970.0 C 30405.0,8828.0 30422.0,8801.0 30493.0,8800.0 C 30593.0,8799.0 30616.0,8861.0 30585.0,9055.0 C 30577.0,9105.0 30567.0,9163.0 30562.0,9185.0 C 30510.0,9410.0 30324.0,9630.0 30106.0,9727.0 C 29991.0,9778.0 29922.0,9792.0 29752.0,9797.0 C 29622.0,9801.0 29597.0,9798.0 29502.0,9775.0 C 29393.0,9748.0 29198.0,9661.0 29149.0,9618.0 C 29136.0,9606.0 29099.0,9572.0 29068.0,9543.0 C 29037.0,9514.0 29007.0,9490.0 29001.0,9490.0 C 28994.0,9490.0 28990.0,9541.0 28990.0,9644.0 C 28990.0,9728.0 28987.0,9812.0 28984.0,9830.0 C 28972.0,9888.0 28889.0,9918.0 28829.0,9885.0" fill="#ffffff" id="ffffff-000009"/>
    <path stroke="none" d="M 33630.0,9886.0 C 33613.0,9877.0 33600.0,9856.0 33591.0,9824.0 C 33576.0,9774.0 33576.0,9740.0 33601.0,8535.0 C 33606.0,8282.0 33614.0,7801.0 33619.0,7465.0 C 33633.0,6555.0 33641.0,6299.0 33655.0,6271.0 C 33685.0,6211.0 33790.0,6217.0 33823.0,6281.0 C 33840.0,6313.0 33841.0,6340.0 33836.0,6705.0 C 33832.0,6920.0 33825.0,7390.0 33820.0,7750.0 C 33815.0,8110.0 33808.0,8479.0 33804.0,8570.0 C 33798.0,8722.0 33799.0,8738.0 33817.0,8780.0 C 33828.0,8805.0 33843.0,8845.0 33849.0,8870.0 C 33856.0,8895.0 33866.0,8931.0 33871.0,8950.0 C 33899.0,9048.0 33946.0,9132.0 34023.0,9220.0 C 34063.0,9267.0 34238.0,9411.0 34274.0,9428.0 C 34293.0,9437.0 34365.0,9467.0 34455.0,9505.0 C 34488.0,9519.0 34539.0,9533.0 34612.0,9549.0 C 34669.0,9562.0 34826.0,9563.0 34866.0,9551.0 C 34882.0,9546.0 34920.0,9537.0 34950.0,9530.0 C 34980.0,9523.0 35012.0,9514.0 35020.0,9510.0 C 35028.0,9506.0 35049.0,9496.0 35065.0,9489.0 C 35153.0,9450.0 35268.0,9356.0 35320.0,9280.0 C 35334.0,9261.0 35352.0,9237.0 35360.0,9227.0 C 35389.0,9193.0 35438.0,9103.0 35485.0,8995.0 C 35501.0,8959.0 35529.0,8879.0 35542.0,8830.0 C 35547.0,8811.0 35556.0,8779.0 35561.0,8760.0 C 35585.0,8677.0 35615.0,8528.0 35629.0,8425.0 C 35677.0,8065.0 35679.0,7785.0 35639.0,6915.0 C 35634.0,6805.0 35627.0,6613.0 35624.0,6489.0 C 35617.0,6268.0 35618.0,6262.0 35637.0,6256.0 C 35648.0,6252.0 35670.0,6255.0 35686.0,6261.0 C 35702.0,6268.0 35735.0,6281.0 35760.0,6290.0 C 35827.0,6314.0 35830.0,6330.0 35840.0,6695.0 C 35845.0,6866.0 35854.0,7138.0 35860.0,7300.0 C 35883.0,7938.0 35875.0,8165.0 35820.0,8515.0 C 35791.0,8694.0 35790.0,8701.0 35761.0,8818.0 C 35739.0,8904.0 35728.0,8941.0 35710.0,8985.0 C 35706.0,8996.0 35692.0,9032.0 35679.0,9065.0 C 35659.0,9117.0 35616.0,9206.0 35569.0,9290.0 C 35520.0,9379.0 35352.0,9554.0 35266.0,9605.0 C 35151.0,9675.0 35070.0,9712.0 34990.0,9730.0 C 34960.0,9737.0 34922.0,9747.0 34906.0,9753.0 C 34869.0,9766.0 34591.0,9766.0 34554.0,9753.0 C 34538.0,9747.0 34505.0,9737.0 34480.0,9730.0 C 34342.0,9692.0 34136.0,9593.0 34044.0,9521.0 C 33969.0,9462.0 33903.0,9398.0 33854.0,9338.0 C 33824.0,9301.0 33795.0,9270.0 33790.0,9270.0 C 33786.0,9270.0 33781.0,9399.0 33780.0,9556.0 C 33780.0,9753.0 33776.0,9847.0 33768.0,9860.0 C 33743.0,9899.0 33677.0,9911.0 33630.0,9886.0" fill="#ffffff" id="ffffff-000010"/>
    <path stroke="none" d="M 52029.0,9885.0 C 51985.0,9861.0 51981.0,9810.0 51975.0,9235.0 C 51972.0,8944.0 51965.0,8525.0 51961.0,8305.0 C 51956.0,8085.0 51947.0,7619.0 51941.0,7270.0 C 51936.0,6921.0 51928.0,6591.0 51924.0,6538.0 C 51914.0,6377.0 51936.0,6322.0 52027.0,6287.0 C 52093.0,6261.0 52099.0,6268.0 52129.0,6390.0 C 52136.0,6418.0 52141.0,6661.0 52145.0,7045.0 C 52147.0,7381.0 52154.0,7810.0 52159.0,8000.0 C 52164.0,8190.0 52171.0,8503.0 52175.0,8695.0 L 52182.0,9045.0 L 52212.0,9110.0 C 52280.0,9256.0 52308.0,9298.0 52385.0,9375.0 C 52488.0,9477.0 52606.0,9543.0 52752.0,9580.0 C 52885.0,9613.0 53075.0,9602.0 53190.0,9555.0 C 53353.0,9488.0 53481.0,9361.0 53537.0,9210.0 C 53570.0,9121.0 53579.0,9081.0 53591.0,8970.0 C 53605.0,8828.0 53622.0,8801.0 53693.0,8800.0 C 53793.0,8799.0 53816.0,8861.0 53785.0,9055.0 C 53777.0,9105.0 53767.0,9163.0 53762.0,9185.0 C 53710.0,9410.0 53524.0,9630.0 53306.0,9727.0 C 53191.0,9778.0 53122.0,9792.0 52952.0,9797.0 C 52822.0,9801.0 52797.0,9798.0 52702.0,9775.0 C 52593.0,9748.0 52398.0,9661.0 52349.0,9618.0 C 52336.0,9606.0 52299.0,9572.0 52268.0,9543.0 C 52237.0,9514.0 52207.0,9490.0 52201.0,9490.0 C 52194.0,9490.0 52190.0,9541.0 52190.0,9644.0 C 52190.0,9728.0 52187.0,9812.0 52184.0,9830.0 C 52172.0,9888.0 52089.0,9918.0 52029.0,9885.0" fill="#ffffff" id="ffffff-000011"/>
    <path stroke="none" d="M 20156.0,9855.0 C 20097.0,9824.0 20084.0,9770.0 20119.0,9702.0 C 20188.0,9565.0 20273.0,9407.0 20290.0,9385.0 C 20294.0,9380.0 20316.0,9339.0 20340.0,9295.0 C 20364.0,9251.0 20391.0,9204.0 20400.0,9190.0 C 20410.0,9176.0 20427.0,9149.0 20437.0,9130.0 C 20448.0,9111.0 20481.0,9057.0 20510.0,9010.0 C 20539.0,8963.0 20581.0,8896.0 20603.0,8860.0 C 20625.0,8824.0 20669.0,8756.0 20702.0,8708.0 C 20734.0,8660.0 20760.0,8616.0 20760.0,8610.0 C 20760.0,8605.0 20764.0,8600.0 20768.0,8600.0 C 20772.0,8600.0 20791.0,8574.0 20810.0,8543.0 C 20829.0,8511.0 20851.0,8475.0 20860.0,8464.0 C 20886.0,8427.0 20902.0,8404.0 21003.0,8257.0 C 21214.0,7950.0 21341.0,7767.0 21402.0,7687.0 C 21420.0,7662.0 21444.0,7630.0 21455.0,7614.0 C 21466.0,7599.0 21488.0,7571.0 21503.0,7551.0 C 21519.0,7531.0 21550.0,7484.0 21572.0,7445.0 C 21594.0,7407.0 21635.0,7340.0 21662.0,7298.0 C 21700.0,7239.0 21710.0,7216.0 21705.0,7198.0 C 21698.0,7176.0 21671.0,7116.0 21588.0,6940.0 C 21532.0,6822.0 21487.0,6725.0 21457.0,6660.0 C 21444.0,6630.0 21418.0,6574.0 21400.0,6535.0 C 21382.0,6497.0 21357.0,6441.0 21344.0,6413.0 C 21331.0,6384.0 21309.0,6336.0 21296.0,6308.0 C 21283.0,6279.0 21262.0,6233.0 21250.0,6205.0 C 21238.0,6178.0 21213.0,6123.0 21194.0,6083.0 C 21175.0,6043.0 21160.0,6005.0 21160.0,5997.0 C 21160.0,5990.0 21156.0,5980.0 21152.0,5975.0 C 21147.0,5969.0 21135.0,5945.0 21126.0,5920.0 C 21094.0,5837.0 21062.0,5767.0 20970.0,5575.0 C 20931.0,5493.0 20893.0,5414.0 20887.0,5400.0 C 20880.0,5386.0 20849.0,5330.0 20817.0,5276.0 L 20758.0,5177.0 L 20765.0,5106.0 C 20771.0,5046.0 20777.0,5032.0 20802.0,5008.0 C 20843.0,4970.0 20872.0,4964.0 20909.0,4986.0 C 20942.0,5005.0 20951.0,5022.0 21000.0,5145.0 C 21041.0,5248.0 21059.0,5289.0 21130.0,5435.0 C 21162.0,5501.0 21201.0,5584.0 21218.0,5620.0 C 21245.0,5680.0 21256.0,5705.0 21294.0,5793.0 C 21302.0,5810.0 21317.0,5846.0 21329.0,5873.0 C 21341.0,5899.0 21359.0,5941.0 21371.0,5968.0 C 21382.0,5994.0 21403.0,6039.0 21416.0,6068.0 C 21440.0,6120.0 21466.0,6178.0 21516.0,6288.0 C 21568.0,6402.0 21637.0,6549.0 21790.0,6875.0 C 21896.0,7100.0 21922.0,7157.0 22015.0,7355.0 C 22034.0,7396.0 22066.0,7464.0 22085.0,7505.0 C 22104.0,7546.0 22135.0,7613.0 22154.0,7653.0 C 22201.0,7753.0 22231.0,7820.0 22300.0,7975.0 C 22311.0,8000.0 22329.0,8040.0 22340.0,8065.0 C 22351.0,8090.0 22369.0,8130.0 22380.0,8155.0 C 22391.0,8180.0 22409.0,8220.0 22420.0,8245.0 C 22431.0,8270.0 22449.0,8309.0 22459.0,8333.0 C 22496.0,8415.0 22509.0,8446.0 22550.0,8550.0 C 22573.0,8608.0 22598.0,8671.0 22607.0,8690.0 C 22622.0,8726.0 22633.0,8752.0 22649.0,8793.0 C 22653.0,8805.0 22662.0,8827.0 22669.0,8843.0 C 22690.0,8895.0 22698.0,8915.0 22728.0,8995.0 C 22745.0,9039.0 22766.0,9095.0 22775.0,9120.0 C 22784.0,9145.0 22798.0,9185.0 22806.0,9210.0 C 22814.0,9235.0 22825.0,9264.0 22830.0,9275.0 C 22835.0,9286.0 22849.0,9327.0 22861.0,9365.0 C 22873.0,9404.0 22900.0,9487.0 22922.0,9550.0 C 22961.0,9668.0 22971.0,9751.0 22947.0,9780.0 C 22926.0,9807.0 22887.0,9830.0 22862.0,9830.0 C 22824.0,9830.0 22776.0,9773.0 22755.0,9705.0 C 22745.0,9672.0 22726.0,9611.0 22712.0,9570.0 C 22699.0,9529.0 22684.0,9482.0 22680.0,9465.0 C 22671.0,9432.0 22624.0,9297.0 22610.0,9265.0 C 22605.0,9254.0 22594.0,9225.0 22586.0,9200.0 C 22572.0,9156.0 22547.0,9086.0 22530.0,9045.0 C 22525.0,9034.0 22492.0,8949.0 22455.0,8855.0 C 22388.0,8683.0 22379.0,8663.0 22341.0,8578.0 C 22330.0,8552.0 22320.0,8526.0 22320.0,8522.0 C 22320.0,8517.0 22314.0,8500.0 22306.0,8484.0 C 22298.0,8468.0 22282.0,8434.0 22271.0,8408.0 C 22248.0,8355.0 22223.0,8300.0 22191.0,8228.0 C 22160.0,8157.0 22135.0,8101.0 22110.0,8045.0 C 22098.0,8018.0 22077.0,7971.0 22064.0,7943.0 C 22051.0,7914.0 22029.0,7866.0 22016.0,7838.0 C 21984.0,7766.0 21883.0,7554.0 21859.0,7507.0 C 21849.0,7485.0 21840.0,7462.0 21840.0,7454.0 C 21840.0,7446.0 21831.0,7440.0 21820.0,7440.0 C 21809.0,7440.0 21800.0,7444.0 21800.0,7449.0 C 21800.0,7463.0 21722.0,7586.0 21657.0,7675.0 C 21625.0,7719.0 21578.0,7784.0 21552.0,7820.0 C 21526.0,7856.0 21478.0,7924.0 21445.0,7971.0 C 21412.0,8019.0 21351.0,8106.0 21310.0,8165.0 C 21269.0,8223.0 21224.0,8288.0 21210.0,8309.0 C 21196.0,8330.0 21118.0,8448.0 21035.0,8572.0 C 20850.0,8849.0 20738.0,9024.0 20680.0,9126.0 C 20670.0,9143.0 20643.0,9188.0 20621.0,9225.0 C 20598.0,9262.0 20580.0,9294.0 20580.0,9297.0 C 20580.0,9300.0 20572.0,9314.0 20562.0,9328.0 C 20541.0,9358.0 20491.0,9448.0 20385.0,9645.0 C 20290.0,9823.0 20283.0,9834.0 20249.0,9854.0 C 20215.0,9874.0 20193.0,9874.0 20156.0,9855.0" fill="#ffffff" id="ffffff-000012"/>
    <path stroke="none" d="M 12241.0,9817.0 C 12227.0,9811.0 12207.0,9790.0 12197.0,9772.0 C 12176.0,9736.0 12174.0,9745.0 12220.0,9600.0 C 12229.0,9570.0 12252.0,9498.0 12270.0,9440.0 C 12288.0,9382.0 12306.0,9326.0 12311.0,9315.0 C 12315.0,9304.0 12333.0,9252.0 12350.0,9200.0 C 12367.0,9148.0 12385.0,9096.0 12390.0,9085.0 C 12395.0,9074.0 12410.0,9031.0 12424.0,8989.0 C 12438.0,8948.0 12461.0,8882.0 12475.0,8844.0 C 12490.0,8806.0 12511.0,8750.0 12522.0,8720.0 C 12533.0,8690.0 12546.0,8656.0 12550.0,8645.0 C 12554.0,8634.0 12563.0,8609.0 12570.0,8590.0 C 12577.0,8571.0 12587.0,8544.0 12592.0,8530.0 C 12606.0,8496.0 12614.0,8475.0 12640.0,8405.0 C 12652.0,8372.0 12666.0,8336.0 12670.0,8325.0 C 12674.0,8314.0 12702.0,8244.0 12730.0,8170.0 C 12759.0,8096.0 12788.0,8022.0 12795.0,8005.0 C 12802.0,7989.0 12816.0,7955.0 12825.0,7930.0 C 12834.0,7905.0 12847.0,7874.0 12852.0,7860.0 C 12858.0,7846.0 12867.0,7825.0 12871.0,7813.0 C 12876.0,7800.0 12885.0,7778.0 12891.0,7763.0 C 12898.0,7747.0 12906.0,7726.0 12910.0,7715.0 C 12914.0,7704.0 12923.0,7682.0 12930.0,7665.0 C 12937.0,7649.0 12947.0,7625.0 12951.0,7613.0 C 12956.0,7600.0 12964.0,7580.0 12969.0,7568.0 C 12973.0,7555.0 12982.0,7533.0 12989.0,7518.0 C 12995.0,7502.0 13005.0,7478.0 13011.0,7463.0 C 13018.0,7447.0 13026.0,7426.0 13030.0,7415.0 C 13035.0,7404.0 13045.0,7379.0 13053.0,7360.0 C 13062.0,7341.0 13076.0,7305.0 13085.0,7280.0 C 13095.0,7255.0 13108.0,7222.0 13115.0,7205.0 C 13123.0,7189.0 13138.0,7150.0 13150.0,7120.0 C 13162.0,7090.0 13178.0,7049.0 13187.0,7030.0 C 13195.0,7011.0 13206.0,6986.0 13210.0,6975.0 C 13217.0,6956.0 13228.0,6930.0 13265.0,6845.0 C 13273.0,6826.0 13286.0,6795.0 13294.0,6778.0 C 13302.0,6760.0 13320.0,6719.0 13334.0,6687.0 C 13348.0,6655.0 13360.0,6627.0 13360.0,6625.0 C 13360.0,6623.0 13372.0,6595.0 13386.0,6563.0 C 13400.0,6531.0 13419.0,6489.0 13427.0,6470.0 C 13435.0,6451.0 13464.0,6390.0 13490.0,6335.0 C 13516.0,6280.0 13555.0,6200.0 13575.0,6157.0 C 13617.0,6069.0 13652.0,6022.0 13686.0,6010.0 C 13712.0,6000.0 13765.0,6014.0 13793.0,6038.0 C 13812.0,6055.0 13851.0,6133.0 13871.0,6195.0 C 13878.0,6217.0 13887.0,6240.0 13890.0,6245.0 C 13894.0,6251.0 13902.0,6275.0 13909.0,6300.0 C 13916.0,6325.0 13926.0,6354.0 13930.0,6365.0 C 13944.0,6398.0 14004.0,6601.0 14021.0,6673.0 C 14026.0,6693.0 14035.0,6728.0 14040.0,6750.0 C 14046.0,6772.0 14055.0,6808.0 14060.0,6830.0 C 14085.0,6929.0 14092.0,6958.0 14101.0,6998.0 C 14106.0,7021.0 14115.0,7060.0 14120.0,7085.0 C 14126.0,7110.0 14135.0,7150.0 14140.0,7175.0 C 14146.0,7200.0 14154.0,7239.0 14159.0,7263.0 C 14165.0,7286.0 14173.0,7323.0 14178.0,7345.0 C 14184.0,7367.0 14193.0,7410.0 14200.0,7440.0 C 14207.0,7470.0 14216.0,7511.0 14220.0,7530.0 C 14224.0,7549.0 14233.0,7588.0 14239.0,7615.0 C 14251.0,7670.0 14258.0,7697.0 14290.0,7810.0 C 14302.0,7851.0 14316.0,7899.0 14320.0,7915.0 C 14334.0,7962.0 14347.0,8009.0 14370.0,8090.0 C 14395.0,8176.0 14406.0,8216.0 14419.0,8263.0 C 14431.0,8306.0 14459.0,8390.0 14470.0,8415.0 C 14475.0,8426.0 14486.0,8455.0 14494.0,8480.0 C 14508.0,8526.0 14535.0,8599.0 14550.0,8635.0 C 14555.0,8646.0 14568.0,8684.0 14580.0,8720.0 C 14592.0,8756.0 14605.0,8794.0 14610.0,8805.0 C 14614.0,8816.0 14628.0,8852.0 14640.0,8885.0 C 14670.0,8966.0 14679.0,8987.0 14764.0,9173.0 C 14777.0,9201.0 14798.0,9248.0 14810.0,9275.0 C 14848.0,9360.0 14900.0,9474.0 14910.0,9492.0 C 14926.0,9520.0 14922.0,9608.0 14904.0,9635.0 C 14890.0,9656.0 14880.0,9660.0 14835.0,9660.0 C 14760.0,9660.0 14747.0,9643.0 14650.0,9425.0 C 14638.0,9398.0 14617.0,9351.0 14604.0,9323.0 C 14540.0,9182.0 14528.0,9156.0 14507.0,9108.0 C 14484.0,9055.0 14459.0,8991.0 14420.0,8885.0 C 14372.0,8752.0 14358.0,8714.0 14350.0,8695.0 C 14346.0,8684.0 14337.0,8659.0 14330.0,8640.0 C 14323.0,8621.0 14314.0,8596.0 14310.0,8585.0 C 14287.0,8531.0 14246.0,8406.0 14223.0,8325.0 C 14209.0,8276.0 14194.0,8226.0 14190.0,8215.0 C 14186.0,8204.0 14177.0,8175.0 14170.0,8150.0 C 14163.0,8125.0 14154.0,8094.0 14150.0,8080.0 C 14146.0,8066.0 14137.0,8035.0 14130.0,8010.0 C 14115.0,7958.0 14100.0,7905.0 14090.0,7870.0 C 14086.0,7856.0 14077.0,7825.0 14070.0,7800.0 C 14063.0,7775.0 14054.0,7745.0 14049.0,7732.0 C 14044.0,7719.0 14040.0,7698.0 14040.0,7685.0 C 14040.0,7672.0 14036.0,7651.0 14031.0,7638.0 C 14026.0,7625.0 14017.0,7588.0 14010.0,7555.0 C 14004.0,7522.0 13995.0,7479.0 13990.0,7460.0 C 13985.0,7441.0 13976.0,7404.0 13971.0,7378.0 C 13965.0,7351.0 13955.0,7309.0 13949.0,7283.0 C 13922.0,7160.0 13903.0,7076.0 13890.0,7010.0 C 13868.0,6908.0 13859.0,6865.0 13849.0,6825.0 C 13832.0,6760.0 13799.0,6649.0 13780.0,6595.0 C 13770.0,6568.0 13757.0,6525.0 13750.0,6500.0 C 13726.0,6414.0 13716.0,6390.0 13704.0,6390.0 C 13698.0,6390.0 13689.0,6402.0 13686.0,6416.0 C 13682.0,6430.0 13670.0,6463.0 13658.0,6489.0 C 13647.0,6514.0 13632.0,6549.0 13625.0,6565.0 C 13618.0,6582.0 13602.0,6618.0 13590.0,6645.0 C 13578.0,6673.0 13562.0,6709.0 13555.0,6725.0 C 13529.0,6787.0 13511.0,6827.0 13486.0,6883.0 C 13472.0,6915.0 13460.0,6943.0 13460.0,6945.0 C 13460.0,6950.0 13427.0,7024.0 13380.0,7125.0 C 13365.0,7158.0 13342.0,7208.0 13330.0,7235.0 C 13318.0,7263.0 13293.0,7317.0 13276.0,7355.0 C 13258.0,7394.0 13237.0,7441.0 13230.0,7460.0 C 13223.0,7479.0 13213.0,7499.0 13208.0,7504.0 C 13204.0,7510.0 13200.0,7520.0 13200.0,7527.0 C 13200.0,7534.0 13191.0,7560.0 13180.0,7585.0 C 13169.0,7610.0 13151.0,7650.0 13140.0,7675.0 C 13129.0,7700.0 13120.0,7726.0 13120.0,7733.0 C 13120.0,7740.0 13116.0,7750.0 13112.0,7756.0 C 13107.0,7761.0 13093.0,7792.0 13081.0,7825.0 C 13059.0,7881.0 13053.0,7897.0 13031.0,7953.0 C 13026.0,7965.0 12981.0,8081.0 12930.0,8210.0 C 12879.0,8339.0 12833.0,8456.0 12828.0,8470.0 C 12814.0,8503.0 12806.0,8524.0 12781.0,8593.0 C 12769.0,8624.0 12751.0,8676.0 12739.0,8708.0 C 12727.0,8739.0 12714.0,8774.0 12710.0,8785.0 C 12705.0,8796.0 12694.0,8825.0 12686.0,8850.0 C 12678.0,8875.0 12661.0,8922.0 12649.0,8955.0 C 12577.0,9153.0 12521.0,9316.0 12489.0,9420.0 C 12483.0,9439.0 12475.0,9464.0 12471.0,9475.0 C 12464.0,9493.0 12430.0,9597.0 12390.0,9729.0 C 12363.0,9814.0 12304.0,9849.0 12241.0,9817.0" fill="#ffffff" id="ffffff-000013"/>
    <path stroke="none" d="M 26298.0,9804.0 C 26283.0,9796.0 26265.0,9780.0 26259.0,9767.0 C 26250.0,9751.0 26247.0,9560.0 26249.0,9000.0 C 26252.0,8160.0 26268.0,7613.0 26294.0,7465.0 C 26297.0,7449.0 26304.0,7392.0 26310.0,7340.0 C 26321.0,7247.0 26326.0,7219.0 26350.0,7095.0 C 26375.0,6967.0 26415.0,6821.0 26446.0,6753.0 C 26454.0,6735.0 26466.0,6705.0 26474.0,6688.0 C 26512.0,6598.0 26528.0,6569.0 26583.0,6492.0 C 26669.0,6373.0 26759.0,6300.0 26870.0,6259.0 C 26924.0,6239.0 26954.0,6235.0 27045.0,6235.0 C 27168.0,6235.0 27211.0,6245.0 27315.0,6297.0 C 27461.0,6371.0 27645.0,6542.0 27760.0,6712.0 C 27804.0,6776.0 27840.0,6831.0 27840.0,6834.0 C 27840.0,6837.0 27851.0,6863.0 27864.0,6892.0 C 27887.0,6943.0 27907.0,6987.0 27951.0,7088.0 C 27963.0,7114.0 27987.0,7167.0 28006.0,7207.0 C 28025.0,7247.0 28040.0,7286.0 28040.0,7294.0 C 28040.0,7302.0 28045.0,7312.0 28050.0,7315.0 C 28056.0,7318.0 28060.0,7331.0 28060.0,7344.0 C 28060.0,7356.0 28064.0,7370.0 28068.0,7376.0 C 28073.0,7381.0 28087.0,7418.0 28100.0,7458.0 C 28113.0,7497.0 28126.0,7530.0 28129.0,7530.0 C 28137.0,7530.0 28136.0,7377.0 28125.0,6787.0 C 28116.0,6295.0 28116.0,6294.0 28167.0,6271.0 C 28219.0,6247.0 28279.0,6261.0 28302.0,6303.0 C 28316.0,6327.0 28317.0,6368.0 28340.0,7385.0 C 28353.0,7990.0 28348.0,8993.0 28330.0,9230.0 C 28303.0,9593.0 28281.0,9722.0 28233.0,9788.0 C 28213.0,9815.0 28202.0,9820.0 28170.0,9820.0 C 28089.0,9820.0 28053.0,9782.0 28063.0,9708.0 C 28066.0,9684.0 28076.0,9634.0 28083.0,9595.0 C 28129.0,9375.0 28155.0,8704.0 28130.0,8410.0 C 28125.0,8347.0 28116.0,8237.0 28110.0,8165.0 C 28102.0,8068.0 28094.0,8025.0 28078.0,7995.0 C 28067.0,7973.0 28051.0,7943.0 28044.0,7929.0 C 28027.0,7896.0 27977.0,7762.0 27943.0,7655.0 C 27929.0,7611.0 27911.0,7557.0 27903.0,7535.0 C 27894.0,7513.0 27884.0,7482.0 27880.0,7465.0 C 27855.0,7369.0 27795.0,7230.0 27725.0,7105.0 C 27508.0,6716.0 27368.0,6546.0 27201.0,6467.0 C 27137.0,6437.0 27008.0,6432.0 26932.0,6456.0 C 26793.0,6499.0 26676.0,6679.0 26590.0,6980.0 C 26562.0,7078.0 26562.0,7081.0 26530.0,7250.0 C 26508.0,7363.0 26486.0,7579.0 26470.0,7830.0 C 26464.0,7922.0 26460.0,8347.0 26460.0,8790.0 C 26460.0,9292.0 26456.0,9617.0 26449.0,9670.0 C 26433.0,9804.0 26381.0,9850.0 26298.0,9804.0" fill="#ffffff" id="ffffff-000014"/>
    <path stroke="none" d="M 16390.0,9799.0 C 16273.0,9778.0 16251.0,9772.0 16195.0,9745.0 C 16089.0,9694.0 15977.0,9592.0 15875.0,9455.0 C 15834.0,9400.0 15751.0,9242.0 15690.0,9105.0 C 15678.0,9078.0 15658.0,9032.0 15645.0,9005.0 C 15633.0,8977.0 15612.0,8923.0 15600.0,8885.0 C 15588.0,8846.0 15574.0,8806.0 15570.0,8795.0 C 15562.0,8776.0 15550.0,8731.0 15530.0,8650.0 C 15525.0,8628.0 15516.0,8593.0 15510.0,8573.0 C 15505.0,8552.0 15496.0,8510.0 15490.0,8480.0 C 15484.0,8450.0 15475.0,8406.0 15469.0,8382.0 C 15464.0,8359.0 15460.0,8325.0 15460.0,8307.0 C 15459.0,8265.0 15444.0,8247.0 15393.0,8231.0 C 15333.0,8211.0 15315.0,8188.0 15316.0,8129.0 C 15317.0,8075.0 15339.0,8040.0 15375.0,8040.0 C 15417.0,8040.0 15420.0,8026.0 15420.0,7821.0 C 15420.0,7522.0 15448.0,7334.0 15532.0,7075.0 C 15598.0,6873.0 15732.0,6653.0 15865.0,6532.0 C 15993.0,6415.0 16170.0,6303.0 16280.0,6271.0 C 16305.0,6264.0 16336.0,6254.0 16350.0,6250.0 C 16431.0,6224.0 16560.0,6208.0 16650.0,6213.0 C 16786.0,6221.0 16859.0,6248.0 16970.0,6331.0 C 17081.0,6414.0 17252.0,6598.0 17281.0,6665.0 C 17286.0,6676.0 17303.0,6708.0 17320.0,6735.0 C 17346.0,6780.0 17448.0,6983.0 17470.0,7035.0 C 17483.0,7068.0 17532.0,7182.0 17554.0,7233.0 C 17562.0,7250.0 17576.0,7285.0 17586.0,7310.0 C 17595.0,7335.0 17607.0,7359.0 17612.0,7364.0 C 17616.0,7370.0 17620.0,7395.0 17620.0,7421.0 C 17620.0,7464.0 17616.0,7472.0 17587.0,7494.0 C 17563.0,7512.0 17541.0,7520.0 17512.0,7520.0 C 17477.0,7520.0 17467.0,7515.0 17447.0,7488.0 C 17434.0,7470.0 17415.0,7435.0 17406.0,7410.0 C 17396.0,7385.0 17382.0,7350.0 17374.0,7333.0 C 17366.0,7315.0 17354.0,7285.0 17346.0,7268.0 C 17338.0,7250.0 17315.0,7192.0 17294.0,7140.0 C 17274.0,7088.0 17253.0,7040.0 17248.0,7034.0 C 17244.0,7028.0 17218.0,6980.0 17192.0,6929.0 C 17093.0,6736.0 17060.0,6689.0 16958.0,6587.0 C 16882.0,6512.0 16802.0,6458.0 16730.0,6433.0 C 16687.0,6417.0 16546.0,6416.0 16483.0,6431.0 C 16282.0,6477.0 16131.0,6560.0 15983.0,6708.0 C 15882.0,6809.0 15769.0,6991.0 15730.0,7115.0 C 15723.0,7137.0 15714.0,7164.0 15710.0,7175.0 C 15700.0,7199.0 15671.0,7323.0 15654.0,7410.0 C 15639.0,7487.0 15629.0,7625.0 15624.0,7812.0 C 15619.0,7988.0 15620.0,8011.0 15634.0,8016.0 C 15643.0,8020.0 15836.0,8016.0 16063.0,8009.0 C 16947.0,7981.0 17567.0,7999.0 17681.0,8056.0 C 17727.0,8079.0 17770.0,8121.0 17785.0,8157.0 C 17809.0,8215.0 17802.0,8347.0 17770.0,8435.0 C 17766.0,8446.0 17757.0,8473.0 17750.0,8495.0 C 17743.0,8517.0 17725.0,8562.0 17710.0,8595.0 C 17696.0,8628.0 17677.0,8671.0 17670.0,8690.0 C 17662.0,8709.0 17647.0,8741.0 17636.0,8760.0 C 17626.0,8779.0 17596.0,8836.0 17570.0,8885.0 C 17544.0,8935.0 17514.0,8992.0 17502.0,9013.0 C 17490.0,9033.0 17472.0,9065.0 17461.0,9083.0 C 17331.0,9310.0 17147.0,9564.0 17065.0,9632.0 C 17026.0,9663.0 16855.0,9749.0 16804.0,9761.0 C 16783.0,9767.0 16749.0,9776.0 16730.0,9782.0 C 16646.0,9806.0 16478.0,9815.0 16390.0,9799.0M 16671.0,9591.0 C 16684.0,9586.0 16715.0,9576.0 16740.0,9569.0 C 16784.0,9556.0 16801.0,9548.0 16885.0,9500.0 C 16940.0,9468.0 16964.0,9446.0 17025.0,9370.0 C 17077.0,9305.0 17210.0,9109.0 17266.0,9016.0 C 17282.0,8988.0 17307.0,8946.0 17322.0,8921.0 C 17348.0,8876.0 17474.0,8625.0 17490.0,8585.0 C 17494.0,8574.0 17507.0,8545.0 17518.0,8520.0 C 17552.0,8444.0 17591.0,8319.0 17593.0,8281.0 C 17595.0,8247.0 17593.0,8245.0 17555.0,8238.0 C 17460.0,8218.0 17337.0,8210.0 17067.0,8204.0 C 16799.0,8198.0 15864.0,8213.0 15723.0,8226.0 L 15660.0,8232.0 L 15660.0,8264.0 C 15660.0,8282.0 15664.0,8310.0 15669.0,8326.0 C 15674.0,8342.0 15683.0,8382.0 15690.0,8415.0 C 15697.0,8448.0 15706.0,8489.0 15710.0,8505.0 C 15714.0,8522.0 15723.0,8562.0 15730.0,8595.0 C 15742.0,8656.0 15754.0,8695.0 15772.0,8740.0 C 15778.0,8754.0 15787.0,8775.0 15791.0,8788.0 C 15796.0,8800.0 15805.0,8822.0 15811.0,8838.0 C 15818.0,8853.0 15826.0,8874.0 15830.0,8885.0 C 15834.0,8896.0 15843.0,8919.0 15850.0,8935.0 C 15857.0,8952.0 15867.0,8975.0 15871.0,8988.0 C 15876.0,9000.0 15884.0,9020.0 15889.0,9033.0 C 15916.0,9103.0 16011.0,9285.0 16051.0,9345.0 C 16140.0,9479.0 16279.0,9584.0 16390.0,9602.0 C 16447.0,9611.0 16640.0,9604.0 16671.0,9591.0" fill="#ffffff" id="ffffff-000015"/>
    <path stroke="none" d="M 37310.0,9799.0 C 37193.0,9778.0 37171.0,9772.0 37115.0,9745.0 C 37009.0,9694.0 36897.0,9592.0 36795.0,9455.0 C 36754.0,9400.0 36671.0,9242.0 36610.0,9105.0 C 36598.0,9078.0 36578.0,9032.0 36565.0,9005.0 C 36553.0,8977.0 36532.0,8923.0 36520.0,8885.0 C 36508.0,8846.0 36494.0,8806.0 36490.0,8795.0 C 36482.0,8776.0 36470.0,8731.0 36450.0,8650.0 C 36445.0,8628.0 36436.0,8593.0 36430.0,8573.0 C 36425.0,8552.0 36416.0,8510.0 36410.0,8480.0 C 36404.0,8450.0 36395.0,8406.0 36389.0,8382.0 C 36384.0,8359.0 36380.0,8325.0 36380.0,8307.0 C 36379.0,8265.0 36364.0,8247.0 36313.0,8231.0 C 36253.0,8211.0 36235.0,8188.0 36236.0,8129.0 C 36237.0,8075.0 36259.0,8040.0 36295.0,8040.0 C 36337.0,8040.0 36340.0,8026.0 36340.0,7821.0 C 36340.0,7522.0 36368.0,7334.0 36452.0,7075.0 C 36518.0,6873.0 36652.0,6653.0 36785.0,6532.0 C 36913.0,6415.0 37090.0,6303.0 37200.0,6271.0 C 37225.0,6264.0 37256.0,6254.0 37270.0,6250.0 C 37351.0,6224.0 37480.0,6208.0 37570.0,6213.0 C 37706.0,6221.0 37779.0,6248.0 37890.0,6331.0 C 38001.0,6414.0 38172.0,6598.0 38201.0,6665.0 C 38206.0,6676.0 38223.0,6708.0 38240.0,6735.0 C 38266.0,6780.0 38368.0,6983.0 38390.0,7035.0 C 38403.0,7068.0 38452.0,7182.0 38474.0,7233.0 C 38482.0,7250.0 38496.0,7285.0 38506.0,7310.0 C 38515.0,7335.0 38527.0,7359.0 38532.0,7364.0 C 38536.0,7370.0 38540.0,7395.0 38540.0,7421.0 C 38540.0,7464.0 38536.0,7472.0 38507.0,7494.0 C 38483.0,7512.0 38461.0,7520.0 38432.0,7520.0 C 38397.0,7520.0 38387.0,7515.0 38367.0,7488.0 C 38354.0,7470.0 38335.0,7435.0 38326.0,7410.0 C 38316.0,7385.0 38302.0,7350.0 38294.0,7333.0 C 38286.0,7315.0 38274.0,7285.0 38266.0,7268.0 C 38258.0,7250.0 38235.0,7192.0 38214.0,7140.0 C 38194.0,7088.0 38173.0,7040.0 38168.0,7034.0 C 38164.0,7028.0 38138.0,6980.0 38112.0,6929.0 C 38013.0,6736.0 37980.0,6689.0 37878.0,6587.0 C 37802.0,6512.0 37722.0,6458.0 37650.0,6433.0 C 37607.0,6417.0 37466.0,6416.0 37403.0,6431.0 C 37202.0,6477.0 37051.0,6560.0 36903.0,6708.0 C 36802.0,6809.0 36689.0,6991.0 36650.0,7115.0 C 36643.0,7137.0 36634.0,7164.0 36630.0,7175.0 C 36620.0,7199.0 36591.0,7323.0 36574.0,7410.0 C 36559.0,7487.0 36549.0,7625.0 36544.0,7812.0 C 36539.0,7988.0 36540.0,8011.0 36554.0,8016.0 C 36563.0,8020.0 36756.0,8016.0 36983.0,8009.0 C 37867.0,7981.0 38487.0,7999.0 38601.0,8056.0 C 38647.0,8079.0 38690.0,8121.0 38705.0,8157.0 C 38729.0,8215.0 38722.0,8347.0 38690.0,8435.0 C 38686.0,8446.0 38677.0,8473.0 38670.0,8495.0 C 38663.0,8517.0 38645.0,8562.0 38630.0,8595.0 C 38616.0,8628.0 38597.0,8671.0 38590.0,8690.0 C 38582.0,8709.0 38567.0,8741.0 38556.0,8760.0 C 38546.0,8779.0 38516.0,8836.0 38490.0,8885.0 C 38464.0,8935.0 38434.0,8992.0 38422.0,9013.0 C 38410.0,9033.0 38392.0,9065.0 38381.0,9083.0 C 38251.0,9310.0 38067.0,9564.0 37985.0,9632.0 C 37946.0,9663.0 37775.0,9749.0 37724.0,9761.0 C 37703.0,9767.0 37669.0,9776.0 37650.0,9782.0 C 37566.0,9806.0 37398.0,9815.0 37310.0,9799.0M 37591.0,9591.0 C 37604.0,9586.0 37635.0,9576.0 37660.0,9569.0 C 37704.0,9556.0 37721.0,9548.0 37805.0,9500.0 C 37860.0,9468.0 37884.0,9446.0 37945.0,9370.0 C 37997.0,9305.0 38130.0,9109.0 38186.0,9016.0 C 38202.0,8988.0 38227.0,8946.0 38242.0,8921.0 C 38268.0,8876.0 38394.0,8625.0 38410.0,8585.0 C 38414.0,8574.0 38427.0,8545.0 38438.0,8520.0 C 38472.0,8444.0 38511.0,8319.0 38513.0,8281.0 C 38515.0,8247.0 38513.0,8245.0 38475.0,8238.0 C 38380.0,8218.0 38257.0,8210.0 37987.0,8204.0 C 37719.0,8198.0 36784.0,8213.0 36643.0,8226.0 L 36580.0,8232.0 L 36580.0,8264.0 C 36580.0,8282.0 36584.0,8310.0 36589.0,8326.0 C 36594.0,8342.0 36603.0,8382.0 36610.0,8415.0 C 36617.0,8448.0 36626.0,8489.0 36630.0,8505.0 C 36634.0,8522.0 36643.0,8562.0 36650.0,8595.0 C 36662.0,8656.0 36674.0,8695.0 36692.0,8740.0 C 36698.0,8754.0 36707.0,8775.0 36711.0,8788.0 C 36716.0,8800.0 36725.0,8822.0 36731.0,8838.0 C 36738.0,8853.0 36746.0,8874.0 36750.0,8885.0 C 36754.0,8896.0 36763.0,8919.0 36770.0,8935.0 C 36777.0,8952.0 36787.0,8975.0 36791.0,8988.0 C 36796.0,9000.0 36804.0,9020.0 36809.0,9033.0 C 36836.0,9103.0 36931.0,9285.0 36971.0,9345.0 C 37060.0,9479.0 37199.0,9584.0 37310.0,9602.0 C 37367.0,9611.0 37560.0,9604.0 37591.0,9591.0" fill="#ffffff" id="ffffff-000016"/>
    <path stroke="none" d="M39508 9686 c-10 -7 -25 -33 -33 -57 -13 -37 -14 -64 -6 -179 31 -402 42 -1425 22 -1895 -6 -115 -11 -458 -13 -762 l-3 -552 22 -23 c18 -18 34 -22 77 -22 29 0 60 5 68 12 32 26 37 117 44 682 18 1378 8 2594 -22 2739 -12 58 -109 93 -156 57z" fill="#ffffff" id="ffffff-000017"/>
    <path stroke="none" d="M55166 7924 c-68 -25 -110 -47 -166 -90 -126 -96 -270 -282 -355 -461 -14 -29 -28 -53 -32 -53 -5 0 -24 22 -43 47 -67 89 -199 198 -268 222 -20 7 -53 20 -72 28 -78 36 -264 54 -331 32 -93 -29 -148 -76 -191 -159 -31 -61 -38 -218 -13 -317 20 -81 65 -180 102 -223 29 -35 195 -150 216 -150 7 0 17 -4 23 -9 10 -9 169 -73 244 -98 25 -8 86 -35 137 -59 68 -33 97 -53 112 -77 21 -35 40 -47 105 -69 29 -10 56 -32 100 -86 34 -41 68 -86 77 -102 53 -95 69 -98 69 -13 0 56 12 116 33 163 12 27 171 244 197 270 13 13 184 247 270 372 48 68 151 267 168 323 28 94 32 148 18 225 -24 137 -96 249 -182 285 -45 19 -164 18 -218 -1z" fill="#ffffff" id="ffffff-000018"/>
  </g>
</svg>
