<?xml version="1.0" standalone="no"?>
<!DOCTYPE svg PUBLIC "-//W3C//DTD SVG 1.1//EN"
 "http://www.w3.org/Graphics/SVG/1.1/DTD/svg11.dtd">
<!-- Created with svg_stack (http://github.com/astraw/svg_stack) -->
<svg xmlns:sodipodi="http://sodipodi.sourceforge.net/DTD/sodipodi-0.dtd" xmlns="http://www.w3.org/2000/svg" version="1.1" width="1390.0" height="700.0">
  <defs/>
  <g id="id0:id0" transform="matrix(1.25,0,0,1.25,0.0,0.0)"><g transform="translate(0.000000,560.000000) scale(0.040000,-0.040000)" fill="#0f0f0f" stroke="none">
<path d="M16965 7398 c-93 -7 -198 -27 -250 -48 -16 -6 -77 -15 -135 -20 -66 -6 -131 -19 -172 -34 -37 -13 -90 -29 -120 -36 -29 -7 -80 -25 -113 -40 -33 -15 -71 -31 -85 -35 -14 -4 -74 -35 -135 -68 -60 -33 -136 -74 -167 -90 -32 -16 -68 -39 -80 -51 -41 -39 -82 -63 -138 -79 -30 -9 -81 -34 -113 -56 -32 -22 -74 -45 -95 -52 -20 -6 -42 -15 -47 -19 -6 -5 -34 -18 -64 -30 -30 -11 -66 -30 -81 -40 -48 -34 -204 -97 -285 -115 -80 -18 -127 -36 -155 -61 -9 -7 -45 -21 -80 -30 -40 -10 -73 -25 -85 -39 -11 -12 -42 -28 -70 -35 -27 -7 -75 -25 -105 -41 -30 -15 -72 -33 -93 -39 -21 -6 -60 -27 -88 -46 -28 -19 -71 -43 -96 -54 -25 -11 -68 -36 -95 -56 -27 -19 -60 -39 -73 -44 -30 -11 -163 -109 -190 -140 -27 -30 -88 -60 -121 -60 -19 0 -37 12 -62 41 -41 48 -190 124 -226 115 -11 -3 -56 -24 -98 -46 -85 -45 -141 -107 -197 -217 -38 -76 -57 -92 -127 -104 -147 -26 -151 -25 -249 41 -128 86 -181 108 -230 96 -31 -8 -117 -85 -145 -131 -30 -49 -93 -262 -85 -289 2 -6 6 -30 9 -54 l6 -43 -122 -128 c-75 -78 -137 -152 -158 -190 -19 -35 -49 -81 -65 -104 -37 -50 -131 -200 -162 -259 -32 -60 -30 -103 7 -138 40 -37 75 -45 107 -25 24 16 26 16 49 -6 27 -25 29 -36 14 -74 -8 -22 -12 -24 -29 -14 -16 10 -25 7 -59 -22 -30 -24 -40 -39 -36 -52 4 -12 -4 -28 -19 -45 -14 -15 -51 -56 -83 -92 -32 -36 -163 -175 -293 -310 -194 -202 -245 -250 -290 -271 -77 -37 -114 -73 -106 -102 11 -37 50 -68 106 -87 53 -18 62 -26 73 -63 4 -11 15 -21 26 -24 10 -3 26 -16 35 -29 10 -16 25 -24 44 -24 16 0 34 -7 41 -15 7 -9 29 -15 54 -15 23 0 52 -8 66 -17 17 -12 49 -18 107 -20 96 -3 113 -9 175 -56 60 -46 82 -50 86 -17 7 65 12 71 77 101 36 16 72 29 82 29 9 0 26 9 37 19 12 11 56 38 99 61 106 57 135 44 80 -38 -16 -22 -47 -54 -70 -71 -66 -48 -102 -133 -68 -161 26 -21 5 -31 -22 -10 -30 24 -46 25 -63 5 -8 -9 -22 -12 -41 -8 -24 4 -29 2 -29 -14 0 -10 4 -23 9 -28 5 -6 5 -33 -1 -66 -10 -53 -9 -59 18 -110 24 -44 39 -59 85 -82 l56 -29 194 -1 194 -2 165 82 c207 102 245 113 397 113 106 0 122 -3 160 -24 22 -13 64 -31 92 -41 59 -19 101 -63 101 -105 0 -54 7 -59 48 -39 20 11 44 19 54 19 20 0 97 75 135 133 16 23 34 37 47 37 11 0 30 7 40 15 11 8 30 15 42 15 24 0 54 33 54 59 0 8 10 25 21 38 19 19 20 25 9 38 -12 14 -10 20 12 38 14 12 28 31 32 41 5 14 10 16 17 9 8 -8 6 -20 -5 -41 -21 -41 -20 -52 4 -52 21 0 60 52 60 81 0 23 26 43 42 33 18 -12 119 -13 140 -2 10 5 25 22 33 38 9 17 24 30 34 30 10 0 24 7 31 15 8 9 21 13 36 9 18 -5 24 -2 24 11 0 23 39 77 51 70 5 -4 9 -15 9 -26 0 -33 34 -19 40 16 4 24 18 37 71 68 40 23 88 41 124 47 40 7 67 18 85 35 31 29 91 49 121 40 13 -4 28 0 41 12 16 14 38 18 104 19 65 1 89 6 104 19 15 13 28 16 56 11 28 -6 48 -2 92 20 44 22 59 25 73 15 25 -15 44 -14 59 4 16 20 148 21 175 2 l18 -14 -17 -48 c-9 -27 -16 -58 -16 -69 0 -29 -59 -207 -74 -226 -17 -20 -66 -172 -66 -203 0 -13 -16 -72 -35 -131 -20 -58 -40 -129 -45 -156 -5 -26 -38 -109 -73 -182 -36 -73 -70 -149 -78 -168 -7 -19 -39 -66 -72 -105 -32 -38 -81 -99 -110 -134 -61 -76 -99 -114 -154 -158 -23 -18 -115 -110 -205 -206 -127 -134 -174 -191 -208 -253 -96 -175 -159 -246 -255 -291 -53 -24 -77 -28 -200 -34 -229 -12 -307 -29 -440 -95 -64 -31 -118 -61 -121 -65 -3 -5 -12 -9 -20 -9 -16 0 -95 -62 -146 -114 -16 -16 -66 -48 -111 -70 -76 -38 -83 -44 -92 -81 -6 -22 -16 -50 -23 -62 -32 -57 -6 -73 56 -36 53 33 93 49 139 57 44 7 49 -8 12 -36 -56 -42 -81 -68 -76 -81 6 -17 69 -11 142 12 183 59 235 62 180 11 -14 -13 -25 -31 -25 -41 0 -32 61 -39 112 -13 41 21 136 15 268 -20 136 -36 224 -31 407 20 38 11 128 16 336 18 l284 4 50 25 c27 14 69 42 92 61 24 20 55 39 70 42 72 14 104 28 147 61 26 19 63 40 82 45 19 5 71 31 116 58 44 26 96 51 114 55 24 5 40 18 58 46 14 22 33 42 42 45 59 18 173 82 209 117 23 22 64 52 90 66 26 14 58 42 71 61 12 19 35 39 50 46 16 6 36 23 45 38 10 15 42 38 72 51 30 13 55 28 55 34 0 13 71 63 150 105 36 18 73 43 84 55 10 11 35 26 54 32 20 7 71 40 112 74 42 34 85 65 96 69 12 3 26 17 32 31 6 13 30 36 52 50 23 14 43 32 47 40 6 16 126 99 158 109 28 9 64 40 72 64 5 10 37 43 71 72 35 29 69 64 75 79 7 15 53 79 102 144 50 65 100 132 112 150 12 18 29 42 38 55 9 12 33 31 54 42 21 10 41 26 44 35 4 8 13 15 22 15 25 0 122 -110 160 -182 28 -52 44 -71 78 -88 23 -12 53 -32 67 -44 42 -37 133 -103 166 -119 45 -23 87 -82 79 -110 -6 -17 -5 -19 5 -10 13 12 44 -5 100 -54 14 -12 57 -38 96 -57 52 -26 107 -69 203 -157 72 -67 150 -131 173 -143 58 -30 103 -95 101 -148 -1 -23 -6 -45 -11 -50 -5 -5 -69 -11 -143 -14 -94 -5 -146 -12 -174 -24 -23 -9 -65 -23 -95 -30 -65 -15 -106 -35 -186 -89 -147 -100 -322 -301 -261 -301 7 0 26 -14 42 -30 21 -22 29 -39 27 -59 l-3 -29 59 -7 c49 -5 65 -3 88 12 25 16 52 18 264 18 195 1 246 4 300 19 51 14 82 16 145 11 257 -23 509 -4 605 45 21 11 49 20 61 20 46 0 159 164 159 231 0 18 10 35 33 52 19 15 50 59 77 113 25 49 60 103 78 120 17 17 32 41 32 53 0 12 14 42 30 66 17 24 30 56 30 72 0 15 10 43 21 62 17 28 20 44 15 84 -11 78 -32 129 -65 155 -26 20 -31 30 -31 68 0 58 -19 103 -69 162 -23 26 -44 63 -48 82 -7 39 -104 238 -138 285 -12 17 -27 52 -34 79 -7 27 -21 67 -32 90 -39 81 -23 95 84 76 47 -9 165 -14 333 -15 234 -1 265 -3 289 -19 25 -16 32 -17 67 -5 33 10 45 10 71 -1 18 -7 51 -15 75 -17 30 -4 46 -11 54 -27 6 -11 12 -22 14 -24 1 -2 12 6 24 18 20 20 23 21 40 5 21 -19 55 -13 64 12 4 11 10 12 19 5 6 -5 38 -9 69 -9 47 0 61 4 79 23 24 26 58 31 77 12 18 -18 15 -84 -9 -168 -14 -50 -18 -88 -14 -115 8 -54 6 -201 -5 -248 -5 -25 -3 -58 6 -100 8 -34 19 -98 24 -142 5 -44 14 -100 20 -125 6 -25 13 -110 15 -190 3 -102 11 -172 27 -236 24 -102 19 -143 -25 -197 -20 -25 -33 -30 -97 -37 -41 -5 -127 -9 -190 -10 -133 0 -409 -25 -460 -42 -19 -6 -58 -26 -85 -45 -28 -18 -90 -49 -139 -69 -99 -40 -157 -72 -169 -91 -4 -7 -18 -13 -31 -13 -41 0 -63 -80 -26 -100 16 -9 18 -15 10 -36 -19 -48 7 -57 64 -23 33 19 36 19 42 4 4 -9 2 -21 -5 -28 -22 -22 -12 -38 21 -35 24 2 36 10 46 31 7 15 17 27 23 27 18 0 21 -31 5 -49 -33 -36 16 -42 75 -9 l39 22 25 -24 c14 -13 25 -29 25 -36 0 -9 18 -11 73 -7 66 5 78 3 132 -23 l60 -29 300 0 c239 1 320 4 400 18 60 11 178 20 295 23 209 6 297 14 455 42 l100 18 8 44 c9 45 59 120 148 222 116 133 152 168 185 178 25 9 40 24 60 61 15 27 42 58 60 69 18 12 38 37 47 59 23 57 151 167 217 187 40 12 56 23 72 50 11 19 24 34 28 34 5 0 22 12 39 26 21 17 37 23 50 19 31 -10 61 12 81 60 10 24 29 49 42 56 35 19 96 67 163 130 54 50 67 57 124 67 35 6 74 20 85 29 12 10 37 27 56 37 19 10 58 40 85 66 28 26 93 73 145 104 108 65 139 69 154 21 5 -16 30 -73 56 -125 34 -70 55 -101 80 -118 19 -13 42 -38 50 -57 16 -37 60 -73 130 -106 25 -12 58 -33 74 -46 17 -14 41 -29 54 -34 13 -5 38 -20 55 -33 32 -24 142 -66 173 -66 10 0 26 -8 36 -17 11 -10 42 -18 76 -21 31 -3 66 -11 77 -18 65 -42 319 -94 458 -93 62 0 117 -6 171 -20 44 -12 87 -21 97 -21 24 0 139 -115 139 -139 0 -60 -124 -131 -230 -131 -105 0 -227 -25 -343 -70 -87 -34 -121 -53 -169 -96 -34 -30 -73 -57 -87 -61 -14 -3 -33 -16 -43 -27 -90 -107 -101 -127 -77 -141 18 -12 57 4 64 25 9 27 43 46 58 31 8 -8 -1 -23 -32 -55 -29 -29 -42 -50 -38 -60 8 -21 51 -20 82 0 15 9 32 13 42 9 16 -6 16 -8 -4 -22 -26 -17 -30 -51 -9 -59 8 -3 27 2 41 12 21 14 55 19 146 22 107 4 124 2 171 -18 44 -19 72 -23 158 -24 58 0 148 3 201 8 63 6 144 5 240 -3 l144 -12 68 30 c79 36 201 108 275 163 29 22 67 46 85 53 18 7 51 27 73 44 23 16 45 27 48 24 3 -4 14 1 23 9 10 9 41 26 70 38 53 23 55 25 87 124 16 50 16 56 -15 276 -19 135 -57 249 -92 279 -9 6 -28 42 -43 79 -21 52 -44 84 -101 141 -50 50 -73 81 -73 97 0 14 -7 27 -15 30 -42 17 -133 208 -161 341 -7 34 -20 75 -28 92 -9 16 -16 41 -16 55 0 14 -9 48 -20 76 -11 28 -20 68 -20 90 0 21 -5 51 -10 65 -6 15 -14 94 -19 176 -5 82 -14 156 -20 163 -12 14 -30 214 -31 336 0 63 -5 86 -31 140 -35 73 -88 264 -99 355 -8 66 -25 106 -64 148 -18 19 -26 39 -26 62 0 19 -9 58 -21 87 -11 29 -26 80 -34 114 -7 33 -27 91 -44 129 -39 84 -39 103 -1 150 37 46 45 72 45 146 0 43 -6 64 -26 95 -14 21 -35 63 -47 92 -12 30 -47 90 -78 134 -30 44 -58 95 -61 114 -3 19 -11 34 -17 34 -6 0 -95 87 -198 193 -104 105 -193 197 -199 202 -6 6 -93 92 -193 191 -99 100 -198 190 -218 200 -20 11 -50 37 -66 60 -17 22 -49 51 -73 63 -24 13 -56 34 -71 48 -15 14 -36 31 -47 37 -10 6 -47 32 -80 58 -34 26 -109 73 -169 103 -59 30 -114 59 -122 64 -21 13 -143 64 -225 95 -38 15 -79 31 -90 36 -11 5 -56 24 -100 44 -44 19 -112 44 -152 55 -40 11 -98 31 -130 45 -32 14 -123 46 -203 70 -80 24 -165 51 -190 61 -164 60 -137 55 -490 86 -63 5 -162 21 -220 34 -95 23 -125 25 -320 24 -118 0 -264 -4 -325 -9 -60 -4 -181 -13 -268 -19 -87 -6 -184 -18 -215 -26 -31 -9 -104 -23 -162 -30 -58 -8 -130 -21 -160 -30 -30 -8 -79 -15 -110 -15 -31 0 -61 -5 -66 -10 -6 -6 -62 -16 -125 -24 -62 -8 -125 -19 -139 -24 -14 -5 -58 -12 -98 -16 -40 -4 -119 -16 -175 -27 -113 -22 -202 -28 -545 -36 -153 -3 -243 -1 -263 6 -17 6 -81 16 -142 22 -133 13 -258 43 -309 75 -20 13 -55 28 -78 33 -46 10 -88 35 -97 57 -3 8 -11 14 -17 14 -7 0 -44 16 -83 35 -39 19 -77 35 -84 35 -7 0 -30 12 -50 26 -23 16 -71 32 -128 44 -52 11 -103 29 -120 41 -16 12 -50 23 -77 26 -27 3 -69 14 -93 25 -25 11 -67 24 -95 29 -216 36 -345 45 -407 26 -30 -9 -53 -11 -70 -5 -31 12 -199 15 -314 6z m793 -903 c3 -37 -1 -45 -39 -80 -48 -44 -75 -99 -85 -173 -7 -59 -34 -86 -76 -80 l-23 3 -3 175 c-1 96 0 180 3 187 3 11 30 13 112 11 l108 -3 3 -40z m512 -467 c6 -563 0 -525 75 -551 32 -11 40 -19 40 -38 l0 -24 -309 -3 c-314 -2 -336 0 -336 35 0 8 24 25 54 38 29 13 56 31 60 40 3 9 6 238 6 509 0 271 3 496 7 500 4 3 95 5 202 4 l196 -3 5 -507z m325 322 l0 -185 -28 -3 c-41 -5 -64 21 -72 81 -10 74 -36 128 -84 172 -34 31 -41 45 -41 75 0 20 3 40 7 44 4 3 54 5 112 4 l106 -3 0 -185z m650 -375 l0 -560 -248 -3 c-216 -2 -248 0 -253 13 -7 18 22 55 42 55 7 0 20 10 28 22 14 20 16 81 16 473 l0 452 -22 20 c-13 11 -33 26 -45 32 -13 6 -23 17 -23 24 0 35 21 37 265 35 l240 -3 0 -560z m473 411 c3 -153 -2 -176 -38 -176 -21 0 -45 26 -55 60 -12 39 -62 104 -97 125 -17 10 -63 30 -102 45 -55 21 -72 32 -74 49 -8 51 -5 52 185 49 l178 -3 3 -149z m930 142 c12 -15 74 -219 125 -413 9 -33 37 -134 61 -225 25 -91 52 -194 61 -230 41 -166 40 -165 93 -187 17 -7 32 -19 32 -27 0 -34 -24 -36 -305 -34 -248 3 -279 5 -288 20 -9 14 -3 24 32 55 l43 38 -12 65 c-18 94 -27 100 -166 100 -125 0 -130 3 -116 55 l8 30 103 3 c71 2 103 7 107 15 5 14 -109 486 -126 522 -28 59 -39 192 -18 213 17 17 352 17 366 0z m976 -27 c10 -18 36 -79 57 -135 76 -206 109 -275 131 -276 7 0 30 55 37 93 12 57 26 31 29 -52 2 -72 -1 -96 -25 -160 -15 -42 -64 -184 -108 -316 -76 -224 -82 -240 -105 -240 -22 0 -30 17 -102 205 -105 273 -129 340 -135 370 -3 14 -9 30 -13 35 -4 6 -38 87 -75 180 -80 204 -97 233 -144 252 -20 8 -44 22 -54 31 -16 14 -16 16 0 34 15 17 33 18 252 16 l235 -3 20 -34z m846 24 c17 -20 7 -41 -27 -57 -52 -25 -53 -28 -53 -498 0 -464 2 -479 49 -490 13 -3 27 -14 31 -25 16 -43 3 -45 -300 -45 -242 0 -289 2 -300 15 -19 23 -5 43 39 55 74 20 71 -4 71 551 0 272 3 499 7 502 3 4 111 7 238 7 194 0 235 -2 245 -15z m-2231 -320 c11 -47 10 -57 -18 -140 -54 -166 -91 -290 -91 -306 0 -9 -11 -48 -26 -89 -14 -41 -24 -88 -22 -109 3 -31 10 -41 53 -69 34 -23 50 -41 50 -55 l0 -22 -169 -3 c-170 -3 -196 2 -196 34 0 8 26 27 58 43 31 16 65 37 74 47 17 20 45 93 92 244 168 544 167 540 195 425z m-708 -15 c18 -10 19 -23 19 -210 0 -187 -1 -200 -19 -210 -34 -18 -41 -12 -71 54 -19 42 -43 74 -70 96 -56 44 -56 84 -1 128 21 17 49 53 61 79 37 77 44 82 81 63z m1763 -172 c10 -24 24 -56 32 -71 10 -21 14 -69 14 -180 0 -196 6 -216 76 -268 42 -31 54 -46 52 -62 l-3 -22 -161 -3 c-139 -2 -163 0 -175 14 -14 17 -14 18 57 68 14 10 35 37 45 60 16 36 19 68 19 272 0 265 5 287 44 192z m-1569 -443 l0 -160 -180 0 -180 0 0 30 c0 27 5 31 60 50 92 32 141 69 186 137 21 34 39 66 39 73 0 20 24 36 50 33 l25 -3 0 -160z m-1640 -1420 l0 -560 -250 0 -250 0 -3 21 c-2 17 7 28 40 46 l43 23 3 454 c2 495 3 490 -54 511 -33 13 -42 39 -18 57 14 11 67 13 254 11 l235 -3 0 -560z m452 526 c95 -45 132 -76 159 -135 31 -66 31 -126 0 -191 -41 -88 -117 -138 -230 -151 -81 -10 -72 -31 25 -59 90 -26 134 -51 182 -104 46 -51 61 -99 55 -180 -6 -85 -35 -140 -99 -191 -72 -57 -136 -73 -299 -74 l-135 -1 -3 27 c-3 25 2 30 51 52 43 19 57 31 66 56 14 43 15 294 0 323 -18 35 -61 77 -79 77 -46 0 -56 65 -12 80 95 35 105 58 100 220 -4 141 -12 162 -77 198 -59 33 -68 48 -45 73 18 20 26 21 146 16 116 -4 133 -7 195 -36z m858 -526 l0 -560 -237 -3 -237 -2 -11 21 c-16 28 -7 45 27 54 15 3 34 11 40 17 17 14 19 898 2 930 -6 11 -26 26 -45 34 -21 9 -34 21 -34 32 0 40 15 42 260 40 l235 -3 0 -560z m483 410 l3 -150 -22 -18 c-28 -22 -39 -13 -81 66 -37 68 -108 131 -166 146 -20 5 -53 14 -72 18 -28 7 -36 15 -38 37 -7 57 -9 57 190 54 l183 -3 3 -150z m934 138 c15 -18 34 -79 67 -224 10 -41 25 -97 34 -125 9 -27 18 -65 22 -84 4 -19 21 -82 40 -140 18 -58 36 -125 40 -150 4 -25 13 -56 20 -70 7 -14 16 -45 20 -70 4 -25 15 -69 25 -98 14 -44 25 -58 59 -79 32 -19 41 -30 39 -46 l-3 -22 -281 -3 c-263 -2 -283 -1 -305 16 l-23 19 41 27 c23 15 44 35 48 44 7 18 -4 100 -16 122 -25 45 -26 45 -146 50 l-118 5 0 40 0 40 105 5 105 5 -1 25 c-2 25 -55 237 -94 375 -11 39 -25 90 -31 115 -6 25 -17 68 -25 96 -18 67 -18 103 3 126 14 16 34 18 188 18 151 0 174 -2 187 -17z m978 -503 l5 -515 49 -16 c61 -19 80 -43 51 -65 -16 -12 -68 -14 -309 -12 -259 3 -290 5 -299 20 -14 22 16 58 48 58 13 0 26 7 29 16 8 20 8 901 0 930 -3 12 -18 24 -36 30 -36 10 -54 34 -45 58 6 15 32 16 254 14 l248 -3 5 -515z m425 479 c71 -34 124 -78 154 -129 31 -51 29 -167 -3 -235 -26 -57 -46 -73 -160 -130 -44 -22 -81 -45 -83 -51 -3 -8 18 -14 55 -19 77 -9 168 -58 194 -105 14 -27 18 -56 18 -126 0 -154 13 -179 70 -134 32 25 43 25 65 0 l18 -20 -38 -54 c-33 -49 -47 -59 -113 -87 -66 -27 -85 -31 -146 -27 -93 5 -170 40 -216 99 l-35 43 -5 156 c-3 95 -10 163 -17 176 -7 12 -29 31 -48 43 -31 18 -36 25 -33 54 2 25 10 36 38 49 19 10 41 25 48 35 15 21 17 335 2 364 -6 10 -29 28 -50 39 -35 18 -40 25 -40 54 0 18 3 36 8 41 4 4 63 5 131 1 109 -6 130 -10 186 -37z m-1822 -290 c9 -50 4 -88 -22 -174 -10 -33 -30 -98 -44 -145 -14 -47 -40 -128 -57 -180 -17 -52 -34 -106 -37 -120 -8 -44 13 -78 64 -103 38 -18 48 -27 48 -47 l0 -25 -163 -3 c-167 -3 -206 4 -200 35 2 9 30 30 63 47 71 37 85 58 130 203 88 284 158 500 170 531 19 44 38 37 48 -19z m-695 -21 c8 -8 12 -67 12 -202 0 -162 -2 -192 -17 -208 -31 -35 -62 -13 -84 60 -7 25 -23 51 -37 60 -40 28 -82 70 -82 83 0 7 22 33 49 58 31 29 59 68 75 104 20 46 29 57 48 57 13 0 29 -5 36 -12z m181 -462 c8 -9 11 -61 9 -162 l-3 -149 -180 0 -180 0 -3 23 c-4 29 14 52 42 52 69 0 191 101 240 199 27 53 52 65 75 37z m-5819 -611 c14 -16 10 -47 -6 -52 -15 -5 -76 46 -68 58 8 14 60 10 74 -6z m-164 -26 c10 -17 -13 -36 -27 -22 -12 12 -4 33 11 33 5 0 12 -5 16 -11z m-262 -310 c-3 -5 -10 -7 -15 -3 -5 3 -7 10 -3 15 3 5 10 7 15 3 5 -3 7 -10 3 -15z m4301 -1818 c7 -12 -12 -24 -25 -16 -11 7 -4 25 10 25 5 0 11 -4 15 -9z"/>
</g>
</g>
  <g id="id1:id1" transform="matrix(1.25,0,0,1.25,0.0,0.0)"><g transform="translate(0.000000,560.000000) scale(0.040000,-0.040000)" fill="#ffffff" stroke="none">
<path d="M20430 13910 c0 -5 11 -10 25 -10 14 0 25 5 25 10 0 6 -11 10 -25 10 -14 0 -25 -4 -25 -10z"/>
<path d="M27656 13901 c-7 -11 22 -23 35 -15 5 3 7 10 4 15 -8 12 -32 12 -39 0z"/>
<path d="M952 13528 c-5 -7 -22 -43 -37 -80 -40 -101 -42 -102 -190 -95 -91 3 -125 2 -122 -6 2 -6 47 -41 99 -77 53 -36 99 -67 102 -70 3 -3 -6 -36 -19 -73 -29 -78 -32 -127 -10 -127 8 0 40 18 71 40 31 21 72 44 91 51 31 10 40 8 86 -17 29 -15 67 -38 86 -51 18 -13 42 -23 51 -23 25 0 34 29 15 50 -8 9 -18 32 -21 51 -4 19 -13 46 -20 61 -20 40 -18 47 20 63 57 24 166 103 166 120 0 7 -39 10 -128 7 -102 -3 -130 -1 -140 10 -6 8 -24 50 -39 93 -28 80 -42 96 -61 73z"/>
<path d="M2801 13526 c-6 -7 -22 -39 -37 -72 -14 -32 -35 -69 -47 -82 l-22 -24 -120 3 c-84 3 -120 0 -120 -8 0 -6 42 -39 93 -73 51 -34 96 -68 98 -75 3 -7 -6 -42 -20 -77 -45 -111 -30 -146 39 -94 17 13 58 38 89 56 l58 31 37 -25 c20 -15 42 -26 48 -26 5 0 29 -14 52 -31 72 -52 92 -16 46 83 -36 77 -33 94 18 118 57 27 137 92 134 109 -2 12 -24 14 -119 12 l-117 -2 -14 23 c-9 13 -26 53 -39 90 -23 69 -39 86 -57 64z"/>
<path d="M4610 13463 c-48 -117 -42 -113 -187 -113 -100 0 -123 -3 -123 -14 0 -8 9 -18 20 -21 11 -4 41 -22 67 -42 25 -19 62 -42 80 -50 32 -13 34 -16 28 -46 -4 -18 -18 -54 -31 -80 -45 -92 -25 -122 48 -72 58 39 129 75 149 75 18 0 100 -45 148 -82 35 -26 65 -24 58 5 -21 87 -29 111 -43 133 -21 31 -14 47 34 75 95 57 151 100 147 112 -4 9 -40 12 -132 12 l-128 0 -14 30 c-8 17 -25 57 -37 90 -31 84 -45 82 -84 -12z"/>
<path d="M6467 13488 c-9 -29 -27 -71 -40 -93 l-23 -40 -121 0 c-67 0 -124 -3 -128 -6 -8 -9 97 -95 148 -120 l39 -20 -7 -37 c-3 -20 -18 -63 -32 -95 -20 -45 -23 -61 -14 -70 9 -9 21 -7 54 12 23 13 68 38 100 55 l58 30 47 -24 c26 -13 66 -37 89 -52 81 -54 98 -32 54 72 -41 95 -40 107 7 127 20 8 53 28 73 44 19 15 48 33 63 40 15 7 25 19 24 27 -3 13 -24 15 -129 13 -146 -3 -137 -8 -183 107 -38 95 -56 102 -79 30z"/>
<path d="M8319 13503 c-21 -57 -58 -130 -72 -141 -7 -7 -62 -13 -128 -14 -92 -2 -114 -6 -114 -18 0 -8 9 -19 20 -25 53 -27 157 -97 161 -110 4 -8 -3 -34 -15 -58 -12 -24 -21 -49 -21 -56 0 -6 -7 -23 -16 -36 -9 -13 -13 -29 -9 -35 11 -18 39 -11 90 23 28 18 69 41 92 51 l43 19 62 -33 c35 -19 75 -42 90 -53 15 -11 34 -17 43 -13 20 7 14 45 -16 115 -25 58 -24 88 4 102 12 6 54 32 94 58 104 67 97 76 -57 76 l-125 0 -42 88 c-45 92 -66 107 -84 60z"/>
<path d="M10167 13523 c-3 -5 -8 -21 -12 -38 -3 -16 -19 -52 -34 -80 l-27 -50 -124 -1 c-160 0 -161 -5 -17 -100 38 -25 71 -52 73 -59 3 -8 -6 -47 -20 -89 -14 -41 -26 -81 -26 -90 0 -24 32 -19 71 9 19 13 58 37 87 52 l53 28 47 -25 c26 -13 64 -34 84 -47 49 -30 88 -39 88 -22 0 8 -14 50 -30 94 -16 44 -30 86 -30 93 0 7 12 18 28 24 15 7 43 24 62 38 19 14 52 35 73 45 21 11 36 26 35 34 -2 12 -26 14 -123 12 l-120 -2 -21 23 c-11 13 -31 48 -43 78 -13 30 -28 61 -33 68 -12 13 -34 16 -41 5z"/>
<path d="M11081 12836 c-8 -9 -10 -160 -9 -542 l3 -529 8321 -3 8322 -2 6 22 c3 13 6 253 6 534 0 383 -3 513 -12 522 -19 19 -16621 17 -16637 -2z"/>
<path d="M1866 12746 c-9 -14 -25 -50 -36 -80 -12 -30 -26 -58 -33 -64 -15 -12 -62 -21 -160 -31 -43 -5 -81 -11 -84 -15 -8 -8 14 -25 99 -76 37 -22 70 -44 73 -49 3 -5 -6 -41 -21 -81 -44 -122 -21 -143 77 -74 92 64 112 64 234 -11 78 -48 106 -26 65 52 -10 21 -21 58 -22 82 l-3 44 84 49 c47 27 87 51 90 53 11 11 -13 17 -107 26 -56 5 -111 13 -124 18 -16 6 -33 32 -58 91 -19 46 -40 85 -46 87 -6 2 -19 -8 -28 -21z"/>
<path d="M3682 12682 l-43 -88 -58 -12 c-31 -7 -79 -12 -107 -12 -52 0 -81 -11 -70 -28 3 -6 42 -31 86 -57 44 -26 82 -51 85 -56 3 -5 -8 -41 -25 -81 -16 -40 -30 -81 -30 -91 0 -32 29 -30 83 5 79 53 117 70 141 64 12 -3 59 -28 104 -56 46 -27 86 -50 89 -50 12 0 -7 97 -26 137 -26 51 -26 66 -3 85 15 13 89 58 136 83 28 15 30 32 4 38 -13 3 -67 9 -121 12 l-98 7 -21 42 c-11 22 -28 63 -38 91 -9 27 -23 51 -31 52 -9 2 -30 -30 -57 -85z"/>
<path d="M5532 12690 c-19 -43 -39 -83 -45 -89 -14 -10 -103 -28 -190 -37 -68 -7 -70 -18 -6 -52 24 -14 62 -37 84 -52 47 -31 49 -53 9 -139 -13 -29 -24 -60 -24 -67 0 -26 46 -14 126 31 43 25 85 45 93 45 11 0 66 -29 146 -77 37 -23 45 -25 60 -19 12 4 10 19 -16 88 -17 46 -32 90 -33 98 0 8 19 24 44 36 25 12 54 31 64 43 11 11 27 21 36 21 19 0 46 27 37 36 -3 3 -50 10 -106 15 -55 5 -111 13 -124 18 -17 7 -32 32 -58 95 -21 54 -39 86 -49 86 -9 0 -28 -31 -48 -80z"/>
<path d="M7404 12753 c-4 -10 -21 -50 -39 -88 l-32 -70 -59 -13 c-33 -6 -78 -12 -100 -12 -48 0 -84 -9 -84 -21 0 -9 59 -49 125 -84 51 -27 54 -47 20 -136 -38 -99 -23 -125 46 -73 32 25 130 74 147 74 4 0 43 -20 86 -45 44 -25 88 -45 98 -45 28 0 34 29 14 64 -17 28 -46 110 -46 128 0 4 21 19 48 33 83 44 126 71 129 82 5 14 -29 22 -92 24 -27 0 -72 6 -99 12 l-48 12 -42 84 c-42 87 -61 106 -72 74z"/>
<path d="M9252 12757 c-5 -6 -22 -45 -38 -86 -33 -85 -40 -89 -153 -97 -100 -7 -141 -13 -141 -22 0 -4 24 -20 53 -35 145 -75 152 -85 119 -160 -25 -57 -38 -127 -23 -127 6 0 48 21 92 47 102 59 125 60 207 4 65 -44 104 -51 110 -19 2 9 -11 49 -28 88 -17 39 -28 74 -25 79 3 5 38 27 78 49 73 40 105 67 94 78 -3 4 -48 11 -99 16 -51 5 -104 15 -117 21 -16 8 -39 40 -63 89 -40 83 -50 94 -66 75z"/>
<path d="M943 11968 c-11 -18 -28 -56 -38 -83 -28 -75 -28 -75 -120 -75 -90 0 -175 -9 -175 -19 0 -3 43 -32 95 -64 52 -32 97 -62 100 -66 2 -5 -5 -32 -17 -62 -25 -65 -34 -124 -19 -133 12 -8 65 17 104 50 15 13 45 29 66 35 l37 11 84 -50 c66 -40 88 -49 102 -41 20 11 24 39 8 55 -5 5 -19 36 -30 69 l-20 60 20 17 c11 9 53 35 94 57 119 65 115 70 -61 80 l-118 6 -14 30 c-8 17 -24 57 -35 89 -12 33 -26 61 -32 63 -6 2 -20 -11 -31 -29z"/>
<path d="M10160 11978 c0 -13 -13 -54 -28 -93 l-29 -70 -44 -2 c-230 -13 -249 -21 -158 -71 85 -46 129 -81 129 -102 0 -12 -8 -37 -19 -58 -10 -20 -21 -54 -24 -76 l-6 -38 35 5 c20 3 50 17 67 30 90 68 115 68 219 0 37 -23 74 -43 82 -43 23 0 20 38 -10 121 l-26 73 25 20 c13 12 57 41 96 65 68 42 85 60 59 62 -7 1 -64 4 -127 8 l-114 6 -43 84 c-38 77 -56 100 -76 101 -5 0 -8 -10 -8 -22z"/>
<path d="M2756 11900 l-47 -90 -104 0 c-105 0 -135 -5 -135 -21 0 -5 39 -35 86 -65 47 -31 88 -62 90 -69 3 -7 -6 -42 -20 -77 -25 -63 -33 -108 -20 -121 7 -7 79 32 133 72 49 35 84 32 167 -17 116 -70 136 -56 88 62 -30 72 -28 89 17 114 66 36 149 93 149 101 0 9 -84 19 -200 24 l-55 2 -27 55 c-15 30 -30 70 -34 88 -12 58 -37 41 -88 -58z"/>
<path d="M4627 11958 c-8 -18 -22 -54 -32 -80 -10 -26 -23 -52 -29 -57 -6 -5 -61 -11 -123 -13 -61 -2 -115 -7 -119 -11 -11 -11 36 -56 86 -82 25 -13 55 -31 68 -41 l22 -19 -30 -85 c-28 -79 -37 -120 -25 -120 2 0 49 25 102 55 54 30 104 55 111 55 7 0 56 -25 108 -56 52 -30 98 -53 102 -50 9 5 -18 103 -44 165 -19 42 -12 50 77 97 68 36 107 69 96 80 -3 4 -61 9 -128 13 -93 5 -124 10 -130 21 -17 30 -48 106 -54 133 -10 38 -39 35 -58 -5z"/>
<path d="M6462 11933 c-12 -32 -30 -72 -41 -89 l-19 -31 -122 -6 c-67 -3 -125 -9 -129 -13 -8 -9 36 -41 117 -86 79 -43 81 -53 37 -161 -38 -97 -31 -106 52 -60 38 20 82 45 98 55 17 10 37 18 45 18 9 0 55 -22 103 -50 83 -48 117 -60 117 -42 0 5 -13 48 -30 97 -33 97 -32 104 24 132 46 22 145 87 146 94 0 10 -85 19 -175 19 -88 0 -105 8 -120 60 -4 14 -16 46 -27 73 -28 66 -50 63 -76 -10z"/>
<path d="M8320 11970 c0 -11 -16 -51 -36 -90 l-35 -70 -87 0 c-153 0 -188 -14 -131 -50 44 -27 123 -78 142 -92 17 -12 16 -18 -13 -103 -39 -114 -35 -126 28 -89 26 15 57 35 70 45 13 10 39 23 58 29 37 12 32 14 147 -50 32 -17 64 -29 72 -26 21 8 19 59 -5 103 -36 67 -22 97 65 141 55 29 102 68 92 79 -5 4 -62 10 -127 12 l-119 3 -42 89 c-31 64 -47 89 -61 89 -11 0 -18 -7 -18 -20z"/>
<path d="M5551 11197 c-10 -23 -26 -64 -36 -90 -23 -62 -42 -69 -172 -69 -57 -1 -103 -5 -103 -10 0 -15 52 -58 95 -80 85 -43 91 -64 50 -176 -14 -38 -25 -72 -25 -76 0 -20 53 4 138 61 69 46 95 41 215 -38 64 -43 93 -50 84 -21 -9 29 -29 85 -44 123 -8 20 -13 45 -11 55 1 10 34 39 71 64 82 56 107 77 107 89 0 5 -48 9 -110 9 -138 -1 -145 4 -185 111 -16 44 -36 83 -43 86 -8 3 -20 -11 -31 -38z"/>
<path d="M1844 11153 c-55 -117 -49 -113 -174 -113 -129 0 -145 -12 -78 -60 22 -17 44 -30 48 -30 4 0 25 -14 46 -31 44 -35 45 -50 13 -132 -21 -54 -25 -97 -7 -97 12 0 78 37 136 76 19 13 44 24 55 24 11 0 58 -22 104 -50 107 -64 146 -66 110 -7 -8 12 -22 50 -32 84 -22 76 -21 77 89 143 42 25 75 51 73 58 -1 10 -31 14 -110 17 -72 3 -116 9 -130 18 -14 9 -33 46 -51 96 -16 47 -34 81 -42 81 -7 0 -30 -35 -50 -77z"/>
<path d="M3722 11217 c-6 -7 -27 -48 -46 -89 -25 -54 -42 -78 -58 -84 -13 -4 -68 -8 -123 -9 -133 -2 -131 -19 13 -101 72 -40 73 -45 37 -140 -14 -36 -25 -75 -25 -85 0 -19 24 -26 34 -10 3 5 17 11 30 15 13 3 47 22 76 41 59 40 81 43 118 16 57 -40 161 -91 167 -81 7 11 -8 63 -36 127 -26 59 -14 82 63 127 80 45 98 60 98 77 0 11 -20 14 -88 15 -48 0 -104 4 -125 8 -40 7 -50 22 -87 130 -18 54 -30 65 -48 43z"/>
<path d="M7403 11213 c-2 -10 -16 -47 -31 -83 -35 -83 -54 -92 -184 -94 -66 -1 -98 -5 -98 -12 0 -17 59 -64 119 -96 60 -33 61 -39 26 -144 -25 -74 -30 -104 -19 -104 3 0 48 25 100 56 103 62 117 63 184 20 20 -13 55 -33 79 -45 62 -32 69 -18 36 66 -37 95 -32 121 27 153 53 29 121 87 114 99 -3 4 -47 8 -98 9 -114 3 -152 12 -156 38 -1 10 -17 49 -34 87 -31 66 -55 84 -65 50z"/>
<path d="M9244 11213 c-33 -94 -62 -156 -77 -165 -11 -5 -68 -11 -128 -13 -60 -2 -109 -6 -109 -9 0 -3 0 -10 0 -15 0 -5 26 -24 58 -42 82 -46 122 -78 122 -97 0 -18 -34 -111 -57 -155 -21 -40 4 -45 53 -12 22 15 65 40 97 57 68 34 101 32 150 -12 30 -26 97 -60 119 -60 14 0 0 74 -23 124 -32 70 -28 78 64 133 58 35 82 55 82 68 0 18 -9 20 -104 23 -57 2 -111 7 -120 12 -9 4 -22 25 -30 46 -18 51 -64 127 -79 132 -6 2 -15 -5 -18 -15z"/>
<path d="M11076 10704 c-8 -20 -8 -1022 0 -1051 l6 -23 8312 0 c6452 0 8315 3 8324 12 9 9 12 140 12 529 0 285 -3 524 -6 533 -6 15 -748 16 -8324 16 -7576 0 -8318 -1 -8324 -16z"/>
<path d="M2759 10368 l-44 -93 -125 -5 c-88 -4 -125 -9 -125 -17 0 -14 63 -63 81 -63 6 0 32 -20 58 -44 l47 -43 -26 -68 c-38 -102 -32 -144 16 -106 13 10 42 27 64 38 22 11 54 28 71 38 l31 19 99 -56 c54 -31 102 -54 107 -51 14 8 7 55 -19 110 -14 31 -24 65 -22 76 2 12 24 33 54 51 68 42 135 97 128 107 -3 5 -61 9 -130 9 l-124 0 -11 28 c-5 15 -16 41 -24 57 -8 17 -21 47 -29 68 -8 20 -19 37 -24 37 -4 0 -28 -42 -53 -92z"/>
<path d="M4617 10392 c-16 -37 -34 -78 -41 -92 l-12 -25 -132 -5 c-76 -3 -133 -9 -134 -15 0 -5 21 -23 48 -40 27 -16 71 -45 98 -64 55 -38 56 -49 15 -159 -18 -47 -20 -65 -11 -74 9 -9 16 -8 29 4 10 9 55 34 101 57 l83 42 57 -33 c31 -19 68 -39 82 -46 14 -6 33 -17 42 -24 29 -21 42 2 25 43 -19 46 -38 99 -44 127 -7 29 15 53 81 91 63 36 105 78 85 86 -8 2 -66 6 -129 7 l-115 3 -19 40 c-10 22 -27 63 -37 90 -9 28 -23 51 -31 52 -8 2 -24 -24 -41 -65z"/>
<path d="M6478 10428 c-6 -17 -25 -58 -42 -92 l-31 -61 -122 0 c-68 0 -123 -2 -123 -6 0 -17 48 -63 111 -106 81 -53 81 -57 34 -161 -14 -30 -25 -61 -25 -68 0 -16 41 -19 56 -5 5 5 44 27 87 50 l77 41 78 -39 c43 -22 84 -46 91 -55 8 -9 22 -16 33 -16 25 0 22 22 -16 125 -14 39 -26 73 -26 77 0 3 13 14 29 25 102 65 161 109 158 118 -2 6 -54 11 -122 13 -65 1 -124 7 -132 13 -7 6 -27 46 -44 90 -37 89 -55 104 -71 57z"/>
<path d="M8297 10367 l-46 -97 -106 0 c-58 0 -115 -5 -125 -10 -24 -13 -16 -36 14 -44 25 -6 156 -102 156 -114 0 -4 -16 -46 -35 -92 -19 -46 -35 -86 -35 -87 0 -9 49 -1 65 11 11 7 53 30 92 51 l73 37 47 -28 c159 -94 182 -92 145 9 -13 34 -26 73 -29 87 -5 26 -7 24 144 132 18 13 31 28 29 33 -1 6 -57 12 -126 15 l-124 5 -30 71 c-17 38 -38 81 -47 94 l-16 24 -46 -97z"/>
<path d="M934 10413 c-9 -21 -26 -61 -39 -90 l-24 -52 -127 -3 c-79 -2 -129 -7 -131 -14 -2 -6 25 -27 59 -47 35 -21 79 -50 97 -66 l35 -29 -18 -58 c-10 -33 -20 -76 -23 -96 -4 -32 -2 -38 13 -38 9 0 25 6 33 14 9 7 49 31 88 52 61 33 76 37 90 27 42 -28 145 -83 167 -89 31 -7 42 11 22 40 -8 13 -24 50 -35 82 l-20 59 21 23 c12 12 44 35 72 52 65 38 99 67 94 81 -3 8 -42 11 -124 10 -91 -2 -124 1 -132 12 -6 7 -24 47 -40 87 -33 89 -55 101 -78 43z"/>
<path d="M10172 10438 c-5 -7 -13 -24 -17 -36 -4 -13 -18 -49 -32 -79 l-26 -55 -128 4 c-71 2 -129 0 -129 -4 0 -14 40 -48 110 -94 44 -28 72 -54 76 -68 3 -14 -5 -49 -20 -86 -44 -107 -31 -124 53 -71 25 16 66 39 91 51 l46 22 94 -51 c85 -47 120 -56 120 -34 0 4 -13 44 -30 88 l-30 79 23 24 c12 13 42 35 67 50 64 36 103 74 88 84 -7 4 -63 8 -125 8 l-112 0 -19 28 c-11 15 -25 45 -32 67 -14 46 -37 85 -49 85 -5 0 -13 -6 -19 -12z"/>
<path d="M5545 9636 c-13 -30 -31 -71 -39 -89 -11 -28 -22 -36 -59 -46 -25 -6 -77 -11 -116 -11 -70 0 -101 -6 -101 -20 0 -4 26 -21 58 -39 31 -17 74 -46 94 -64 l38 -32 -15 -45 c-8 -25 -21 -64 -30 -88 -8 -24 -13 -48 -10 -53 9 -14 31 -11 46 7 7 9 47 33 89 54 l77 39 79 -38 c44 -21 85 -46 93 -55 7 -9 22 -16 33 -16 23 0 24 -6 -20 117 l-29 83 56 41 c31 23 70 48 88 55 34 15 49 31 38 42 -4 4 -50 10 -103 13 -133 8 -146 16 -185 113 -18 44 -38 81 -45 84 -7 2 -22 -19 -37 -52z"/>
<path d="M1857 9648 c-8 -18 -19 -49 -26 -69 -21 -66 -45 -79 -159 -86 -148 -9 -153 -17 -48 -78 36 -21 74 -48 85 -59 l20 -21 -24 -68 c-31 -84 -33 -127 -6 -127 10 0 21 6 24 13 3 8 22 22 44 32 21 10 55 29 75 43 l37 24 80 -40 c45 -23 91 -48 103 -56 47 -33 49 -15 12 94 -15 43 -24 85 -21 93 6 15 106 85 150 105 15 6 27 16 27 22 0 13 -27 18 -132 24 -48 3 -96 9 -106 15 -10 5 -31 38 -46 73 -37 86 -41 93 -59 96 -10 2 -21 -9 -30 -30z"/>
<path d="M3692 9619 c-18 -34 -32 -68 -32 -75 0 -31 -51 -48 -158 -54 -112 -5 -139 -19 -85 -43 41 -18 150 -94 155 -109 2 -6 -6 -37 -19 -69 -34 -85 -39 -117 -19 -125 10 -4 26 1 39 13 12 11 53 36 91 56 l68 36 72 -36 c39 -20 82 -44 95 -54 55 -43 59 -22 19 91 -34 93 -34 91 24 134 29 21 72 47 95 57 74 31 53 49 -58 49 -39 0 -90 5 -114 11 -40 10 -47 16 -69 64 -13 29 -27 67 -31 84 -11 50 -37 40 -73 -30z"/>
<path d="M7376 9606 c-40 -105 -44 -108 -178 -115 -114 -6 -142 -18 -96 -42 13 -6 56 -32 96 -57 54 -34 71 -50 66 -61 -8 -19 -44 -137 -51 -168 -7 -30 9 -29 55 5 21 15 65 40 98 55 l60 29 92 -51 c136 -76 144 -71 90 62 l-33 80 19 11 c10 6 37 26 60 43 22 18 56 38 74 44 34 11 42 33 16 43 -9 3 -49 6 -90 6 -113 0 -132 12 -178 109 -49 104 -62 105 -100 7z"/>
<path d="M9235 9649 c-12 -54 -53 -136 -72 -144 -10 -4 -58 -9 -108 -12 -149 -7 -170 -19 -92 -52 61 -26 147 -93 147 -114 0 -10 -7 -32 -16 -49 -19 -36 -44 -131 -37 -138 2 -3 23 6 46 19 23 13 70 39 104 58 l63 34 90 -50 c113 -64 125 -65 116 -9 -4 23 -18 64 -31 91 -14 27 -25 50 -25 52 0 8 145 105 156 105 6 0 17 7 25 16 20 24 0 30 -113 37 -110 6 -134 18 -159 80 -21 53 -58 107 -73 107 -8 0 -17 -14 -21 -31z"/>
<path d="M10167 8913 c-4 -3 -7 -16 -7 -27 0 -12 -13 -49 -30 -83 -26 -57 -32 -63 -59 -63 -16 0 -33 -4 -36 -10 -3 -5 -46 -10 -96 -10 -94 0 -108 -8 -61 -37 77 -47 162 -105 162 -109 0 -3 -9 -22 -19 -42 -10 -20 -24 -56 -31 -80 -6 -24 -14 -50 -17 -59 -9 -24 30 -11 127 43 l83 46 41 -16 c23 -9 68 -33 101 -55 33 -22 63 -37 67 -35 14 9 8 49 -17 124 -19 57 -22 76 -13 87 10 13 60 47 141 96 43 27 32 37 -38 37 -61 0 -142 14 -174 29 -17 8 -19 12 -60 104 -27 61 -46 79 -64 60z"/>
<path d="M939 8881 c-6 -16 -25 -58 -43 -93 l-32 -63 -117 -1 c-64 0 -120 -4 -124 -8 -9 -9 1 -17 110 -86 42 -27 77 -54 77 -60 0 -5 -11 -35 -25 -66 -31 -70 -34 -124 -6 -124 10 0 25 7 32 16 7 9 46 32 86 51 l72 34 50 -25 c28 -14 71 -39 97 -56 69 -43 78 -29 45 65 -15 41 -32 80 -39 87 -19 19 -15 26 36 53 122 67 158 93 145 105 -4 5 -58 10 -119 12 -69 2 -117 8 -126 16 -9 7 -23 34 -33 60 -44 118 -66 140 -86 83z"/>
<path d="M2764 8833 c-56 -118 -47 -113 -191 -113 -73 0 -123 -4 -123 -10 0 -5 15 -17 33 -26 55 -28 167 -107 167 -118 0 -6 -11 -42 -25 -81 -27 -78 -31 -115 -12 -115 7 0 43 20 80 45 105 71 107 71 185 27 37 -21 77 -44 88 -52 25 -15 54 -7 54 14 0 9 -11 45 -25 82 -14 36 -25 72 -25 80 0 12 95 80 158 113 12 6 22 18 22 26 0 15 -56 21 -155 16 -66 -4 -93 13 -120 71 -14 29 -28 68 -31 86 -11 57 -39 42 -80 -45z"/>
<path d="M4611 8833 c-50 -117 -43 -113 -193 -113 -74 0 -128 -4 -128 -9 0 -6 23 -22 51 -36 29 -14 68 -38 88 -54 20 -15 44 -31 55 -34 21 -8 21 -8 -20 -119 -34 -93 -27 -114 28 -80 66 42 148 82 167 82 21 0 72 -27 135 -72 41 -29 76 -37 76 -16 0 15 -16 68 -42 135 -20 53 -18 73 7 73 8 0 29 13 47 29 18 15 52 38 75 50 43 21 59 38 49 48 -3 4 -56 5 -117 4 -140 -3 -147 1 -185 108 -19 54 -34 81 -44 81 -10 0 -28 -28 -49 -77z"/>
<path d="M6457 8837 c-43 -116 -36 -111 -176 -115 -67 -2 -121 -7 -121 -12 0 -11 77 -72 133 -105 l49 -28 -6 -36 c-4 -20 -18 -62 -33 -94 -21 -45 -24 -60 -14 -70 9 -9 22 -6 59 16 26 16 70 39 99 53 l52 25 99 -50 c54 -28 104 -51 110 -51 18 0 15 18 -18 100 -16 41 -29 83 -30 92 0 11 16 25 39 37 48 23 130 91 131 109 0 13 -30 16 -141 12 -81 -2 -101 13 -145 110 -27 60 -40 79 -54 80 -3 0 -18 -33 -33 -73z"/>
<path d="M8324 8893 c-3 -10 -17 -46 -31 -81 -36 -88 -53 -97 -180 -96 -100 1 -117 -4 -90 -25 6 -6 28 -23 47 -38 19 -16 54 -41 77 -55 l41 -27 -9 -39 c-4 -21 -18 -61 -29 -87 -21 -50 -21 -75 2 -75 7 0 51 22 98 50 57 33 91 48 105 44 11 -3 55 -26 97 -50 43 -24 84 -44 92 -44 21 0 28 16 16 37 -13 24 -50 139 -50 157 0 8 19 24 43 35 39 18 127 94 127 109 0 4 -49 7 -109 7 -128 1 -139 7 -170 89 -31 84 -43 106 -58 106 -7 0 -16 -8 -19 -17z"/>
<path d="M11080 8582 c-16 -6 -14 -1054 2 -1070 18 -18 16618 -18 16636 0 14 14 18 1034 4 1056 -7 10 -1662 13 -8320 15 -4572 1 -8317 1 -8322 -1z"/>
<path d="M3692 8082 c-18 -38 -32 -74 -32 -80 0 -6 -12 -20 -26 -31 -22 -18 -41 -21 -115 -21 -89 0 -119 -5 -119 -21 0 -7 41 -35 163 -114 14 -9 12 -20 -13 -95 -31 -90 -36 -120 -21 -120 5 0 48 23 96 50 48 28 95 50 106 50 21 0 94 -35 144 -69 29 -21 75 -28 75 -13 0 4 -9 32 -21 62 -11 30 -25 67 -31 83 -14 38 -6 53 44 78 59 30 128 82 124 94 -1 6 -49 13 -107 16 -57 4 -110 7 -116 8 -14 1 -63 93 -82 154 -7 20 -18 37 -25 37 -6 0 -26 -31 -44 -68z"/>
<path d="M5544 8098 c-26 -82 -50 -123 -79 -136 -14 -7 -68 -12 -120 -12 -69 0 -95 -3 -95 -12 0 -17 86 -87 128 -105 18 -7 35 -20 38 -27 3 -7 -9 -51 -26 -97 -25 -70 -28 -85 -17 -97 12 -11 27 -5 97 37 46 28 95 51 110 51 14 0 63 -23 108 -51 75 -45 112 -56 112 -31 0 5 -15 47 -34 95 -38 96 -39 93 37 131 20 11 37 23 37 28 0 5 16 16 36 24 24 10 34 20 32 32 -3 14 -20 18 -110 22 -90 4 -111 8 -127 25 -19 19 -71 140 -71 163 0 7 -9 12 -19 12 -15 0 -24 -13 -37 -52z"/>
<path d="M9246 8143 c-3 -4 -6 -16 -7 -27 0 -12 -15 -50 -32 -86 -37 -75 -41 -77 -179 -79 -48 0 -89 -5 -93 -11 -7 -11 71 -71 133 -101 52 -26 52 -36 11 -141 -40 -98 -32 -111 40 -71 29 15 71 38 94 51 23 12 51 22 63 22 11 0 52 -20 90 -45 106 -70 136 -53 90 52 -39 90 -38 104 9 126 22 11 49 27 60 36 11 9 33 23 48 29 19 8 27 18 25 30 -3 14 -19 18 -108 22 -58 3 -111 9 -117 13 -7 4 -31 46 -53 92 -38 77 -59 102 -74 88z"/>
<path d="M1873 8128 c-6 -7 -25 -44 -42 -83 -17 -38 -39 -76 -48 -82 -11 -9 -52 -13 -115 -13 -82 0 -100 -3 -105 -16 -7 -18 -2 -23 77 -69 29 -16 61 -37 73 -46 l21 -16 -27 -74 c-25 -69 -35 -129 -21 -129 4 0 46 23 95 51 104 60 111 60 214 0 111 -65 128 -55 83 49 -42 98 -41 100 57 164 113 74 112 86 -7 85 -126 -2 -142 5 -179 88 -48 108 -55 117 -76 91z"/>
<path d="M7392 8113 c-5 -16 -17 -49 -26 -74 -30 -84 -30 -84 -163 -86 -65 -2 -118 -7 -118 -12 0 -13 83 -80 127 -102 22 -11 42 -27 45 -35 3 -8 -7 -53 -22 -99 -39 -121 -39 -121 110 -35 28 16 60 30 73 30 23 0 94 -33 147 -69 36 -25 75 -28 75 -6 0 9 -7 30 -16 47 -8 16 -22 51 -29 76 -16 53 -12 63 44 93 53 28 124 96 110 105 -6 3 -51 6 -100 5 -89 -2 -149 14 -149 41 0 6 -14 42 -31 80 -35 75 -59 88 -77 41z"/>
<path d="M4655 7372 c-11 -8 -35 -55 -60 -117 -29 -73 -34 -75 -167 -75 -91 0 -119 -3 -116 -12 2 -7 41 -38 86 -68 112 -76 107 -69 82 -131 -38 -93 -40 -100 -40 -113 0 -31 34 -23 113 24 46 28 94 50 108 50 13 0 55 -21 93 -45 68 -44 116 -57 116 -32 0 6 -13 47 -29 90 -34 90 -31 98 54 142 79 41 129 94 93 96 -7 0 -65 1 -128 2 l-115 2 -17 35 c-10 19 -25 60 -35 90 -19 64 -25 72 -38 62z"/>
<path d="M10160 7357 c0 -36 -28 -109 -54 -142 l-24 -30 -111 -3 c-61 -3 -111 -7 -111 -11 0 -15 59 -63 111 -90 30 -15 55 -35 57 -45 3 -15 -22 -91 -51 -154 -8 -16 -7 -26 1 -34 9 -9 36 1 112 40 115 58 109 58 221 -9 101 -61 110 -52 68 63 -16 43 -26 85 -22 93 3 9 43 41 89 71 46 30 84 59 84 64 0 6 -35 10 -82 11 -121 0 -160 9 -174 39 -7 14 -27 55 -44 93 -23 49 -36 67 -51 67 -13 0 -19 -7 -19 -23z"/>
<path d="M946 7348 c-8 -13 -29 -54 -48 -93 l-33 -70 -100 -2 c-55 -1 -106 -2 -112 -3 -20 0 -15 -25 10 -47 12 -11 48 -34 80 -52 66 -37 68 -46 37 -136 -36 -103 -20 -126 52 -77 108 74 138 77 221 26 64 -39 114 -57 122 -44 5 9 -23 103 -46 154 -15 33 -5 46 64 80 57 28 123 84 112 94 -3 4 -57 5 -118 3 -133 -3 -134 -3 -175 110 -15 40 -32 74 -39 76 -6 2 -18 -6 -27 -19z"/>
<path d="M2756 7276 l-46 -96 -120 0 c-66 0 -120 -4 -120 -8 0 -16 55 -60 106 -85 78 -39 82 -47 55 -120 -13 -34 -25 -77 -28 -94 -8 -50 4 -47 159 42 l48 27 91 -51 c51 -28 98 -51 105 -51 21 0 17 38 -11 105 -14 33 -25 67 -25 76 0 17 30 49 47 49 19 0 135 90 131 102 -3 7 -46 11 -123 12 l-120 1 -19 40 c-11 22 -28 63 -37 90 -27 76 -41 70 -93 -39z"/>
<path d="M8319 7343 c-32 -90 -53 -140 -64 -152 -9 -8 -49 -15 -119 -18 -59 -3 -109 -10 -113 -15 -8 -15 29 -48 94 -82 47 -25 59 -36 61 -59 4 -34 -24 -121 -44 -137 -22 -19 -17 -40 11 -40 34 0 84 22 139 59 25 17 51 31 58 31 7 0 47 -19 88 -43 92 -52 104 -57 119 -48 9 6 8 21 -4 66 -8 33 -19 63 -25 69 -32 32 3 78 96 124 90 45 81 71 -26 72 -110 2 -141 11 -167 49 -13 19 -28 52 -34 74 -21 78 -51 100 -70 50z"/>
<path d="M6443 7270 l-41 -90 -91 0 c-82 0 -141 -13 -141 -30 0 -10 31 -34 60 -47 14 -6 45 -25 69 -43 38 -28 43 -35 37 -62 -3 -16 -17 -52 -31 -79 -45 -91 -11 -101 110 -30 38 23 76 41 84 41 8 0 54 -22 103 -50 86 -49 126 -56 114 -21 -3 9 -16 49 -30 90 l-26 75 18 19 c9 11 43 32 75 48 62 32 77 51 57 74 -9 10 -40 15 -113 17 l-102 3 -17 35 c-9 19 -27 58 -40 85 -13 28 -30 51 -38 53 -10 2 -28 -27 -57 -88z"/>
<path d="M17516 6544 c-3 -8 -6 -95 -6 -193 0 -206 4 -218 66 -208 50 8 70 33 78 98 10 76 31 117 82 166 l45 44 -3 52 -3 52 -126 3 c-109 2 -128 0 -133 -14z"/>
<path d="M17847 6553 c-4 -3 -7 -235 -7 -513 0 -542 2 -520 -50 -535 -34 -10 -70 -44 -70 -66 0 -10 10 -25 22 -33 19 -14 67 -16 318 -16 162 0 305 3 317 6 25 7 38 46 23 73 -5 11 -24 22 -42 26 -72 16 -68 -18 -68 536 0 273 -3 504 -6 513 -5 14 -34 16 -218 16 -117 0 -216 -3 -219 -7z"/>
<path d="M18357 6554 c-4 -4 -7 -29 -7 -56 0 -45 4 -52 49 -96 50 -49 60 -71 81 -183 9 -45 16 -58 36 -68 36 -16 69 -14 88 8 14 16 16 42 14 207 l-3 189 -126 3 c-69 1 -128 -1 -132 -4z"/>
<path d="M18736 6541 c-27 -30 -16 -61 29 -87 l40 -22 3 -455 2 -456 -42 -28 c-47 -31 -58 -61 -33 -87 14 -14 49 -16 260 -16 134 0 250 3 259 6 14 6 16 65 16 569 0 310 -3 570 -6 579 -5 14 -38 16 -259 16 -236 0 -253 -1 -269 -19z"/>
<path d="M19336 6548 c-20 -64 -11 -108 23 -108 9 0 47 -12 86 -26 81 -30 143 -87 165 -153 17 -52 41 -73 76 -69 47 5 54 34 51 208 l-2 155 -198 3 c-153 2 -198 0 -201 -10z"/>
<path d="M20270 6545 c-20 -24 -23 -95 -6 -160 8 -33 44 -174 81 -313 36 -140 63 -258 59 -263 -3 -5 -50 -9 -104 -9 -109 0 -102 5 -115 -74 -4 -27 -3 -41 7 -47 7 -5 66 -9 130 -9 135 0 141 -3 152 -96 l6 -50 -40 -33 c-47 -38 -49 -52 -14 -80 l27 -21 273 0 273 0 27 23 c34 30 28 50 -25 77 -50 25 -53 30 -85 160 -61 245 -222 824 -245 883 l-11 27 -189 0 c-155 0 -191 -3 -201 -15z"/>
<path d="M21100 6535 l-24 -25 29 -30 c16 -17 40 -33 52 -36 31 -8 67 -53 89 -111 9 -26 28 -75 42 -108 35 -84 75 -187 137 -355 29 -80 75 -199 100 -265 26 -66 51 -136 57 -155 14 -48 26 -60 58 -60 15 0 32 6 37 13 6 6 25 59 42 117 18 58 48 148 66 200 117 334 115 324 115 452 0 65 -3 118 -7 118 -22 -1 -36 -23 -56 -91 -13 -41 -27 -74 -31 -74 -11 0 -79 154 -111 250 -13 39 -35 96 -49 128 l-26 57 -248 0 -249 0 -23 -25z"/>
<path d="M21967 6553 c-4 -3 -7 -234 -7 -513 0 -478 -1 -508 -18 -523 -10 -10 -24 -17 -31 -17 -30 0 -71 -31 -71 -55 0 -52 19 -55 337 -55 252 0 294 2 307 16 9 8 16 23 16 32 0 27 -29 62 -50 62 -11 0 -24 9 -30 19 -6 13 -10 175 -10 459 0 412 1 440 18 455 10 10 24 17 30 17 6 0 18 11 27 23 12 19 13 30 4 55 l-11 32 -252 0 c-139 0 -256 -3 -259 -7z"/>
<path d="M107 6442 c-15 -17 -17 -68 -17 -523 0 -388 3 -509 13 -522 11 -16 379 -17 6072 -17 l6060 0 6 82 c7 87 45 217 79 273 27 44 94 103 125 111 42 10 77 -2 161 -55 120 -77 180 -104 217 -98 125 20 174 31 188 43 9 8 35 50 58 93 63 115 120 176 206 217 39 19 78 34 86 34 8 0 52 -18 96 -39 64 -31 88 -49 109 -80 22 -35 32 -41 61 -41 41 0 119 38 153 75 35 38 131 110 180 135 23 12 63 36 88 54 26 18 61 38 78 44 18 5 55 26 83 45 28 20 68 41 88 48 21 6 64 25 95 40 31 16 75 31 97 35 53 8 73 31 46 50 -16 12 -1083 14 -7215 14 l-7197 0 -16 -18z"/>
<path d="M24200 6456 c0 -14 126 -131 172 -160 31 -20 69 -52 84 -72 15 -19 45 -45 67 -56 38 -19 150 -129 614 -602 l182 -186 1199 0 c1085 0 1200 2 1206 16 8 20 8 1028 0 1048 -6 15 -170 16 -1765 16 -967 0 -1759 -2 -1759 -4z"/>
<path d="M20192 6308 c-6 -18 -40 -127 -77 -243 -171 -542 -161 -521 -256 -565 -57 -27 -72 -59 -43 -91 17 -19 28 -20 196 -17 193 3 198 5 198 59 0 20 -7 30 -30 39 -84 35 -97 73 -60 172 11 30 24 74 29 98 4 25 25 99 46 165 74 235 73 230 57 298 -17 77 -32 117 -42 117 -5 0 -13 -15 -18 -32z"/>
<path d="M19461 6195 c-11 -14 -23 -39 -26 -56 -4 -18 -26 -46 -56 -72 -43 -37 -49 -47 -49 -80 0 -33 7 -44 46 -80 29 -26 57 -65 74 -104 33 -71 54 -80 95 -38 l25 24 0 200 0 200 -22 15 c-33 23 -64 20 -87 -9z"/>
<path d="M21236 6104 c-3 -26 -6 -149 -6 -275 0 -136 -4 -239 -11 -256 -12 -32 -57 -83 -74 -83 -19 0 -47 -37 -43 -57 6 -35 46 -43 210 -43 131 0 159 3 173 16 20 20 12 52 -21 79 -14 11 -42 34 -62 52 l-37 31 -5 179 c-6 178 -11 207 -52 278 -6 11 -17 43 -23 70 -16 68 -40 72 -49 9z"/>
<path d="M19653 5748 c-4 -7 -19 -38 -34 -68 -40 -84 -145 -170 -205 -170 -37 0 -74 -37 -74 -75 0 -21 6 -35 16 -39 9 -3 94 -6 189 -6 95 0 180 3 189 6 24 9 24 325 0 348 -18 19 -70 21 -81 4z"/>
<path d="M17586 4719 c-36 -28 -31 -59 13 -81 19 -9 38 -23 42 -30 5 -7 9 -214 9 -461 l0 -447 -32 -20 c-18 -10 -39 -24 -45 -30 -20 -17 -16 -58 7 -70 12 -7 109 -9 272 -8 l253 3 3 560 c1 308 0 570 -3 583 l-5 22 -244 0 -243 0 -27 -21z"/>
<path d="M18181 4714 c-12 -15 -21 -33 -21 -40 0 -7 26 -31 57 -51 32 -21 63 -49 70 -63 8 -16 13 -69 13 -146 0 -140 -7 -156 -81 -183 -40 -15 -44 -20 -47 -52 -3 -39 6 -51 53 -66 17 -5 40 -24 53 -43 20 -30 22 -44 22 -171 0 -76 -4 -149 -10 -163 -6 -16 -25 -33 -47 -42 -69 -30 -68 -29 -68 -75 l0 -44 125 0 c170 0 246 17 322 69 44 30 70 58 92 97 28 49 31 63 31 139 0 71 -4 92 -24 126 -38 67 -126 133 -198 149 -36 7 -52 23 -31 29 116 34 178 79 218 160 38 76 39 133 4 204 -63 126 -208 192 -426 192 -82 0 -88 -1 -107 -26z"/>
<path d="M18913 4730 c-12 -5 -25 -21 -29 -36 -7 -28 -6 -30 61 -77 l25 -18 0 -447 c0 -473 0 -472 -46 -472 -32 0 -47 -24 -39 -62 4 -18 13 -36 19 -40 13 -9 478 -11 500 -2 14 6 16 65 16 566 0 366 -4 566 -10 579 -10 18 -23 19 -243 18 -128 0 -242 -4 -254 -9z"/>
<path d="M19487 4733 c-4 -3 -7 -26 -7 -49 0 -45 19 -74 49 -74 10 0 41 -7 70 -16 67 -20 133 -80 172 -156 38 -75 58 -86 98 -52 l31 26 0 145 c0 80 -5 153 -10 164 -10 18 -23 19 -204 19 -106 0 -196 -3 -199 -7z"/>
<path d="M20433 4725 c-31 -22 -39 -76 -20 -138 8 -29 20 -72 26 -97 6 -25 23 -88 37 -140 47 -170 91 -359 86 -365 -3 -3 -49 -5 -103 -5 l-99 0 -6 -23 c-3 -13 -4 -41 -2 -63 l3 -39 122 -3 c116 -2 124 -4 138 -26 9 -13 18 -46 22 -73 l5 -50 -33 -23 c-65 -45 -70 -69 -18 -95 39 -21 566 -22 593 -2 31 22 17 66 -28 91 -43 24 -49 33 -64 91 -6 22 -18 67 -27 100 -9 33 -25 94 -35 135 -10 41 -32 122 -49 180 -18 58 -39 130 -48 160 -9 30 -24 91 -34 135 -31 140 -60 229 -81 248 -18 15 -43 17 -192 17 -138 0 -176 -3 -193 -15z"/>
<path d="M21282 4724 c-38 -27 -20 -94 27 -94 40 0 41 -7 41 -476 l0 -452 -37 -19 c-48 -23 -65 -63 -38 -93 l18 -20 288 0 c307 0 335 4 346 48 7 31 -11 49 -67 65 l-45 13 -5 519 c-3 286 -6 521 -8 523 -1 1 -113 2 -250 2 -208 0 -251 -2 -270 -16z"/>
<path d="M21877 4726 c-9 -23 -9 -78 1 -92 4 -6 26 -21 50 -33 l42 -21 0 -174 c0 -189 2 -183 -63 -215 -27 -14 -32 -22 -35 -58 -3 -39 -1 -44 37 -67 22 -14 45 -34 51 -45 5 -11 10 -73 10 -138 0 -162 5 -185 54 -240 92 -104 230 -131 373 -71 67 28 80 39 119 92 24 33 44 67 44 76 0 16 -48 50 -71 50 -7 0 -23 -9 -35 -21 -36 -33 -44 -17 -44 89 0 111 -10 155 -42 190 -25 27 -132 82 -160 82 -38 0 -25 21 30 49 78 39 118 74 144 125 26 51 36 167 18 222 -20 61 -89 126 -177 167 -73 34 -86 37 -209 43 -118 6 -131 5 -137 -10z"/>
<path d="M11847 4521 c-3 -12 -13 -21 -25 -21 -34 0 -45 -24 -28 -58 14 -27 20 -30 55 -27 21 1 44 6 50 9 16 11 13 56 -4 62 -9 4 -22 18 -29 32 l-13 25 -6 -22z"/>
<path d="M20336 4438 c-27 -78 -83 -251 -165 -514 -28 -88 -60 -173 -72 -188 -12 -15 -47 -40 -78 -55 -49 -23 -56 -30 -56 -56 0 -47 28 -55 210 -55 88 0 165 4 172 8 6 4 15 20 18 35 8 32 -16 67 -47 67 -27 0 -68 45 -68 75 0 15 5 35 11 46 6 11 16 42 24 67 7 26 22 76 33 112 104 334 105 339 87 441 -8 46 -15 85 -15 87 0 1 -6 2 -14 2 -8 0 -24 -29 -40 -72z"/>
<path d="M19633 4392 c-6 -4 -21 -30 -32 -57 -13 -30 -41 -68 -70 -95 -74 -68 -75 -81 -3 -149 33 -31 62 -67 66 -81 10 -42 45 -90 64 -90 11 0 31 12 46 27 l27 27 -3 199 c-3 183 -5 200 -22 213 -22 15 -54 18 -73 6z"/>
<path d="M96 4314 c-9 -24 -7 -1037 2 -1052 7 -9 1142 -12 5633 -12 5024 0 5624 1 5627 15 2 9 -4 15 -16 15 -11 0 -52 17 -91 37 -58 29 -71 41 -69 57 2 13 12 22 26 24 15 2 22 9 20 20 -3 13 -18 18 -73 22 -80 6 -132 30 -146 67 -13 34 8 58 80 90 38 17 79 49 130 102 42 42 144 147 227 232 287 292 348 368 312 390 -7 5 -2633 9 -5834 9 -5300 0 -5822 -1 -5828 -16z"/>
<path d="M25618 4302 c-2 -16 4 -41 14 -58 46 -77 53 -93 59 -149 11 -88 76 -323 102 -364 23 -37 24 -50 41 -370 3 -52 9 -98 14 -103 5 -5 426 -9 937 -9 739 1 930 3 937 13 13 22 10 1042 -4 1056 -9 9 -257 12 -1054 12 l-1042 0 -4 -28z"/>
<path d="M19818 3923 c-8 -10 -28 -42 -44 -72 -44 -83 -132 -148 -229 -168 l-40 -8 0 -50 0 -50 189 -3 c130 -2 193 1 202 9 11 9 14 47 14 169 0 139 -2 159 -18 173 -24 22 -55 22 -74 0z"/>
<path d="M15281 3664 c-17 -12 -26 -13 -34 -5 -18 18 -56 13 -90 -11 -22 -16 -47 -23 -89 -24 -32 0 -64 -7 -72 -13 -9 -8 -51 -14 -100 -15 -64 -1 -89 -6 -104 -19 -11 -10 -35 -17 -61 -17 -46 0 -86 -17 -115 -49 -13 -14 -31 -21 -56 -21 -24 0 -69 -17 -134 -50 -54 -27 -108 -50 -121 -50 -13 0 -28 -8 -34 -17 -5 -10 -21 -17 -38 -18 -24 0 -28 -4 -31 -34 -2 -23 -9 -35 -23 -38 -11 -3 -19 -12 -17 -20 3 -12 93 -14 601 -14 329 0 602 3 607 6 26 16 76 157 113 315 l15 65 -21 23 c-18 19 -31 22 -97 22 -53 0 -82 -5 -99 -16z m-1016 -354 c-5 -8 -11 -8 -17 -2 -6 6 -7 16 -3 22 5 8 11 8 17 2 6 -6 7 -16 3 -22z"/>
<path d="M12080 3375 c-96 -50 -131 -83 -123 -116 5 -20 11 -21 89 -17 94 3 114 16 156 94 18 34 21 48 12 61 -18 29 -45 25 -134 -22z"/>
<path d="M16968 2193 c-23 -10 -28 -17 -23 -33 9 -27 -8 -46 -53 -61 -20 -6 -51 -24 -69 -40 -17 -15 -40 -30 -51 -33 -10 -4 -28 -20 -40 -36 -12 -16 -36 -37 -52 -45 -16 -8 -37 -29 -45 -45 -9 -17 -22 -30 -30 -30 -7 0 -50 -31 -95 -70 -45 -38 -90 -70 -100 -70 -11 0 -34 -13 -52 -29 -18 -15 -60 -43 -93 -60 -73 -39 -122 -71 -155 -104 -14 -14 -46 -34 -71 -45 -25 -11 -56 -33 -67 -50 -12 -16 -32 -33 -44 -36 -13 -3 -32 -21 -43 -39 -11 -17 -49 -51 -83 -73 -35 -23 -78 -55 -95 -71 -18 -16 -50 -37 -72 -47 -78 -33 -92 -49 -53 -59 31 -9 2117 -9 2261 -1 105 6 116 9 123 28 12 37 10 41 -23 38 -17 -2 -34 1 -37 7 -4 6 31 50 78 98 99 103 215 178 315 204 36 10 91 27 121 38 44 16 80 20 177 21 139 0 143 2 143 83 0 33 -7 54 -29 84 -33 46 -77 83 -98 83 -13 0 -114 90 -193 172 -46 48 -89 79 -175 124 -38 20 -81 49 -95 64 -15 16 -42 31 -61 34 -19 4 -272 7 -563 9 -401 1 -536 -1 -558 -10z"/>
<path d="M97 2193 c-4 -3 -7 -243 -7 -533 0 -396 3 -529 12 -538 9 -9 1496 -12 6629 -12 l6617 0 104 53 c119 61 180 74 419 86 127 7 153 11 204 35 33 15 74 38 91 51 37 28 122 147 179 249 55 99 365 434 454 491 46 28 84 78 79 103 -3 16 -373 17 -7389 20 -4062 1 -7389 -1 -7392 -5z"/>
<path d="M19820 2176 c0 -14 4 -28 10 -31 19 -12 58 -110 65 -161 5 -42 3 -60 -14 -92 -12 -23 -21 -51 -21 -63 0 -12 -13 -44 -30 -71 -16 -26 -30 -56 -30 -66 0 -10 -14 -31 -31 -48 -17 -16 -49 -67 -72 -112 -27 -55 -55 -94 -79 -114 -30 -23 -38 -37 -38 -61 0 -49 -47 -137 -97 -185 -25 -23 -43 -46 -39 -50 4 -4 79 -9 166 -10 l158 -4 58 30 c33 17 88 42 124 57 36 15 93 45 128 68 l63 40 157 18 c86 10 216 19 287 19 132 0 299 20 314 36 5 5 21 33 36 62 29 56 29 65 2 187 -9 39 -18 133 -21 210 -3 77 -12 171 -21 210 -8 38 -15 84 -15 100 0 17 -5 36 -12 43 -9 9 -140 12 -530 12 l-518 0 0 -24z"/>
<path d="M23255 2179 c-22 -10 -53 -19 -68 -19 -38 0 -62 -14 -108 -63 -37 -41 -111 -98 -176 -137 -19 -11 -34 -30 -38 -48 -3 -17 -15 -38 -26 -48 -17 -15 -24 -16 -54 -5 -36 13 -57 8 -53 -12 5 -21 -109 -127 -136 -127 -14 0 -44 -16 -70 -37 -24 -21 -62 -52 -84 -70 -21 -17 -47 -49 -57 -70 -10 -21 -38 -58 -64 -83 -25 -25 -54 -58 -64 -74 -11 -15 -27 -30 -37 -34 -23 -9 -124 -105 -180 -172 -35 -41 -40 -54 -29 -61 19 -12 2600 -12 2632 0 13 5 50 32 81 59 104 92 321 161 502 162 61 0 81 5 141 35 84 42 103 62 110 112 l4 38 -63 56 -63 56 -111 27 c-80 19 -138 26 -210 26 -54 0 -119 5 -144 11 -25 6 -80 17 -123 24 -43 8 -106 28 -140 44 -36 17 -85 31 -116 34 -45 4 -58 9 -74 31 -14 20 -22 24 -32 16 -17 -14 -125 21 -170 56 -17 13 -37 24 -43 24 -6 0 -31 16 -56 35 -26 19 -50 35 -55 35 -4 0 -35 18 -68 40 -40 27 -65 52 -76 78 -10 23 -31 45 -56 60 l-40 22 -273 -1 c-246 -1 -277 -2 -313 -20z"/>
<path d="M26187 2193 c-4 -3 -7 -20 -7 -37 0 -24 12 -41 60 -85 43 -41 68 -74 90 -125 17 -37 46 -90 65 -117 40 -58 67 -164 90 -350 l15 -127 -21 -67 -20 -67 -69 -30 c-63 -28 -90 -52 -74 -67 3 -3 316 -7 696 -9 507 -2 694 1 704 9 12 9 14 101 14 526 0 335 -4 521 -10 534 l-11 19 -758 0 c-417 0 -761 -3 -764 -7z"/>
</g>
</g>
  <g id="id2:id2" transform="matrix(1.25,0,0,1.25,0.0,0.0)"><g transform="translate(0.000000,560.000000) scale(0.040000,-0.040000)" fill="#c11f34" stroke="none">
<path d="M11120 13907 c-50 -25 -53 -56 -54 -522 -1 -236 2 -438 6 -447 5 -10 14 -18 20 -18 25 0 101 -44 105 -61 3 -10 12 -20 20 -23 8 -3 3728 -6 8266 -6 l8252 0 1 517 c0 285 -3 526 -8 536 -5 9 -20 17 -33 17 -13 0 -27 5 -30 10 -10 16 -16513 13 -16545 -3z"/>
<path d="M11174 11755 c-4 -16 -23 -35 -50 -51 -25 -15 -48 -34 -52 -43 -4 -9 -7 -201 -7 -428 2 -425 3 -443 42 -443 24 0 73 -30 73 -44 0 -8 11 -21 25 -30 22 -15 697 -16 8274 -16 l8249 0 5 23 c3 12 5 244 5 514 l0 493 -20 25 -19 25 -8260 0 -8259 0 -6 -25z"/>
<path d="M11240 9641 c0 -12 -121 -71 -132 -65 -4 3 -8 13 -8 23 0 16 -18 41 -29 41 -5 0 -6 -919 -2 -968 1 -10 10 -12 31 -7 22 5 32 3 36 -9 3 -9 12 -16 20 -16 7 0 18 -8 23 -17 6 -10 15 -25 20 -33 9 -13 943 -16 8270 -20 l8259 -5 7 260 c10 364 3 789 -14 809 -12 15 -771 16 -8247 16 -5153 0 -8234 -4 -8234 -9z"/>
<path d="M11067 7051 l2 -469 71 -71 71 -71 1658 0 c1511 0 1660 -1 1672 -16 12 -15 15 -14 34 9 12 15 42 31 76 41 30 8 72 27 93 41 36 25 59 32 183 60 60 14 194 71 243 104 14 10 81 41 148 71 68 30 140 66 159 81 19 15 58 35 86 44 69 22 127 53 152 81 11 12 49 38 85 57 36 19 115 62 177 96 62 33 118 61 126 61 8 0 35 11 60 25 26 13 90 36 142 50 53 15 111 33 130 41 19 8 70 17 112 20 43 3 142 22 221 41 135 32 151 34 310 33 92 -1 192 -1 222 -1 196 3 292 1 345 -9 142 -26 172 -33 207 -51 21 -11 55 -19 76 -19 24 0 63 -12 98 -30 32 -16 92 -36 133 -44 41 -8 86 -24 101 -34 24 -18 106 -56 189 -87 19 -7 39 -19 45 -28 16 -20 78 -57 98 -57 9 0 47 -16 85 -35 70 -35 168 -59 283 -70 36 -4 101 -13 146 -21 130 -25 708 -4 859 30 39 9 102 19 140 22 39 3 90 12 115 19 25 7 92 19 150 26 58 7 110 15 115 19 6 4 46 10 89 14 44 4 94 13 112 21 19 8 66 17 106 20 40 4 109 16 153 27 44 11 143 24 220 28 77 5 235 16 350 23 251 17 513 9 585 -18 44 -17 111 -25 370 -45 175 -13 192 -16 305 -60 101 -39 178 -64 295 -96 36 -9 92 -30 125 -45 33 -15 98 -38 145 -52 47 -14 137 -48 200 -76 63 -28 123 -51 132 -51 9 0 19 -4 23 -9 3 -5 22 -15 43 -21 61 -20 373 -179 427 -219 73 -54 106 -73 112 -67 3 3 0 12 -6 20 -7 8 -10 20 -6 26 4 7 545 10 1735 10 l1728 0 7 187 c8 203 1 865 -10 882 -4 8 -2519 11 -8333 11 l-8327 0 2 -469z"/>
<path d="M188 5368 c-47 -64 -49 -86 -45 -503 2 -222 7 -405 13 -425 7 -22 7 -48 2 -68 -7 -23 -6 -38 3 -48 10 -12 789 -14 5794 -14 5128 0 5784 -2 5795 -15 19 -23 26 -19 43 23 20 50 63 90 79 74 7 -7 20 -12 30 -12 15 0 18 9 18 58 0 53 -3 61 -33 90 -36 35 -47 39 -47 18 0 -7 -7 -19 -15 -26 -20 -16 -70 4 -92 37 -31 47 -16 81 143 321 27 42 67 107 87 143 25 47 72 102 156 184 122 120 142 152 111 180 -15 13 -653 15 -6017 15 l-6001 0 -24 -32z m11691 -901 c6 -8 8 -17 4 -20 -10 -11 -51 -8 -58 3 -17 27 33 42 54 17z"/>
<path d="M25375 5393 c-55 -14 -51 -50 16 -139 26 -34 72 -114 103 -176 74 -149 75 -206 6 -285 -39 -44 -38 -73 4 -164 18 -41 36 -96 40 -122 4 -26 18 -71 32 -100 13 -29 24 -66 24 -83 0 -31 20 -84 32 -84 4 0 8 15 10 33 l3 32 1045 5 1045 5 0 523 0 524 -24 19 -23 19 -1147 -1 c-630 -1 -1155 -4 -1166 -6z"/>
<path d="M11180 3351 c0 -13 29 -35 37 -28 7 8 -15 37 -28 37 -5 0 -9 -4 -9 -9z"/>
<path d="M14240 3321 c0 -19 23 -35 34 -24 14 15 5 43 -14 43 -13 0 -20 -7 -20 -19z"/>
<path d="M13990 3305 c-11 -13 -9 -20 14 -44 l27 -28 -31 -47 c-17 -25 -35 -44 -38 -42 -10 6 -37 -16 -44 -34 -8 -22 -108 -70 -146 -70 -29 0 -32 -3 -32 -30 0 -42 -24 -48 -77 -19 l-44 24 -19 -22 c-10 -13 -16 -31 -13 -42 6 -25 -10 -54 -65 -118 -36 -42 -54 -54 -91 -62 -51 -11 -61 -8 -61 17 0 30 -58 90 -98 102 -20 6 -64 25 -98 41 l-60 30 -130 -4 c-71 -2 -149 -9 -174 -16 -42 -11 -178 -71 -210 -91 -8 -6 -26 -15 -39 -20 -13 -6 -35 -19 -50 -29 -50 -35 -124 -44 -297 -38 -210 8 -251 24 -296 111 -19 38 -20 63 -2 124 5 16 2 22 -9 22 -18 0 -52 64 -42 79 9 16 31 13 45 -4 7 -9 20 -13 30 -10 9 3 36 -8 61 -25 47 -31 65 -36 89 -20 12 8 10 14 -12 37 -15 15 -30 40 -33 56 -4 15 -11 30 -16 33 -5 3 -7 10 -4 15 4 5 -2 12 -12 16 -32 11 -50 33 -46 56 8 47 -8 50 -95 16 l-82 -32 -6 -36 c-4 -20 -8 -39 -11 -43 -2 -4 -30 12 -63 35 -56 38 -66 42 -148 48 -48 3 -109 14 -136 24 -39 14 -53 15 -68 6 -22 -14 -39 -6 -31 14 8 22 -37 19 -53 -2 -12 -17 -289 -18 -5552 -21 l-5540 -2 -7 -37 c-4 -20 -13 -46 -21 -57 -22 -31 -20 -783 1 -868 9 -33 13 -67 11 -76 -4 -12 3 -21 22 -30 22 -9 1563 -12 7368 -13 l7339 0 54 68 c29 37 70 86 90 108 20 22 45 60 55 85 32 75 86 194 97 213 36 65 50 99 59 147 6 30 24 95 41 144 17 49 35 116 40 150 11 66 28 123 43 144 5 7 7 15 4 17 -3 3 -274 5 -604 6 -390 1 -603 4 -611 11 -7 6 -24 7 -38 4 -19 -5 -28 -1 -41 19 -19 29 -73 35 -94 10z m114 -77 c-3 -5 -12 -4 -20 3 -7 6 -11 15 -8 21 3 5 12 4 20 -3 7 -6 11 -15 8 -21z"/>
<path d="M13857 3266 c-8 -20 20 -43 35 -28 8 8 8 15 -2 27 -16 19 -26 19 -33 1z"/>
<path d="M25871 3246 c-10 -11 -10 -47 -1 -158 7 -78 16 -153 21 -166 5 -13 9 -40 9 -60 1 -20 8 -55 16 -77 9 -22 19 -58 23 -80 4 -22 17 -69 29 -105 11 -36 35 -111 53 -168 25 -78 49 -127 96 -199 35 -52 63 -99 63 -104 0 -5 5 -9 10 -9 6 0 10 8 10 18 0 42 -9 42 772 42 710 0 748 1 757 18 12 22 10 1031 -2 1050 -6 9 -203 12 -926 12 -785 0 -920 -2 -930 -14z"/>
<path d="M19468 2994 c-14 -14 -8 -64 12 -103 10 -21 24 -59 31 -85 6 -25 23 -63 38 -84 15 -20 35 -57 46 -82 11 -25 34 -72 51 -105 18 -33 35 -77 38 -98 5 -24 23 -55 52 -88 53 -60 64 -85 64 -145 0 -55 14 -84 41 -84 16 0 19 6 17 28 l-3 27 500 2 c424 2 501 4 509 16 6 10 4 42 -7 90 -13 58 -14 88 -7 129 11 64 14 179 5 233 -4 27 0 64 14 115 30 107 28 163 -5 189 -33 26 -39 26 -77 -1 -42 -30 -123 -34 -140 -6 -18 28 -44 22 -56 -12 -9 -28 -12 -29 -31 -18 -16 10 -24 10 -42 -1 -19 -12 -23 -11 -33 3 -8 10 -27 16 -51 16 -21 0 -58 9 -82 20 -40 18 -46 19 -73 4 -28 -14 -34 -13 -85 6 -50 18 -70 20 -217 15 -144 -5 -346 4 -462 21 -22 3 -43 2 -47 -2z"/>
<path d="M17462 2739 c-9 -11 -34 -30 -55 -40 -21 -11 -46 -34 -55 -51 -9 -17 -37 -57 -62 -89 -25 -32 -76 -101 -115 -155 -38 -53 -90 -118 -114 -145 -75 -84 -104 -80 494 -79 463 1 525 3 525 16 0 31 -62 104 -108 130 -26 13 -84 53 -129 87 -45 34 -95 70 -112 79 -18 10 -40 37 -57 70 -14 29 -43 71 -63 94 -20 22 -48 55 -63 72 -30 37 -61 41 -86 11z"/>
<path d="M23650 2445 c-7 -8 -17 -15 -23 -15 -19 0 -161 -93 -214 -139 -28 -25 -65 -56 -82 -69 -17 -13 -31 -28 -31 -33 0 -5 111 -9 270 -9 l270 0 0 23 c0 12 -21 62 -45 111 -25 50 -45 97 -45 106 0 9 -5 21 -12 28 -17 17 -73 15 -88 -3z"/>
<path d="M15700 1210 c0 -5 5 -10 10 -10 6 0 10 5 10 10 0 6 -4 10 -10 10 -5 0 -10 -4 -10 -10z"/>
<path d="M26270 1132 c-19 -16 -55 -39 -80 -52 -25 -14 -63 -38 -85 -55 -55 -43 -176 -115 -258 -154 l-68 -33 -172 12 c-137 10 -192 10 -268 0 -121 -16 -242 -10 -289 15 -27 15 -62 20 -152 23 -66 2 -131 0 -147 -6 -39 -14 -46 -4 -19 25 12 12 18 26 15 29 -4 4 -30 9 -58 12 -42 4 -52 9 -60 28 -9 25 -23 31 -33 15 -9 -13 -71 -5 -68 9 1 7 -2 18 -9 26 -6 8 -9 20 -6 29 4 8 1 28 -4 45 l-11 30 -1249 0 -1248 0 -21 -22 c-37 -39 -95 -131 -105 -167 l-10 -35 -85 -18 c-164 -34 -189 -37 -416 -43 -128 -4 -269 -14 -319 -23 -63 -11 -180 -16 -390 -19 l-300 -4 -50 27 c-37 19 -70 27 -130 31 -70 5 -84 9 -113 34 -38 33 -53 35 -87 13 -23 -15 -25 -15 -31 2 -12 40 -23 49 -65 56 -37 7 -47 4 -69 -15 -58 -51 -102 -61 -120 -26 -6 11 -16 48 -21 82 -6 34 -15 67 -20 74 -6 7 -8 16 -6 21 15 23 -14 31 -123 33 -98 1 -122 -2 -160 -20 -25 -11 -59 -21 -76 -21 -17 0 -51 -7 -76 -15 -36 -13 -77 -15 -204 -11 -88 3 -187 8 -222 11 -46 5 -92 1 -175 -16 -99 -19 -132 -21 -287 -16 -137 4 -186 2 -225 -10 -27 -8 -63 -17 -80 -20 -16 -3 -34 -12 -38 -19 -11 -19 -19 -18 -88 15 -57 27 -73 43 -98 99 l-11 22 -1125 0 c-712 0 -1133 -4 -1145 -10 -10 -5 -27 -25 -38 -43 -15 -26 -30 -37 -68 -47 -27 -7 -62 -23 -79 -36 -35 -25 -130 -74 -145 -74 -5 0 -36 -20 -69 -45 -39 -30 -72 -46 -102 -51 -55 -8 -91 -27 -149 -74 -70 -58 -123 -74 -227 -67 -108 8 -448 -7 -523 -23 -30 -6 -84 -20 -120 -30 -75 -22 -150 -17 -280 20 -111 31 -190 36 -256 15 -68 -21 -91 -9 -56 28 25 27 28 50 8 66 -14 12 -35 7 -197 -44 -82 -26 -124 -14 -72 21 33 21 62 54 63 71 1 37 -153 4 -231 -49 -36 -24 -40 -14 -16 35 11 23 23 49 27 57 3 8 40 33 81 55 123 67 181 143 138 186 -10 10 -19 24 -19 29 0 7 -2164 9 -6488 8 l-6487 -3 -24 -50 c-13 -27 -27 -58 -32 -67 -13 -25 -12 -804 1 -828 6 -11 27 -24 48 -30 57 -15 27498 -14 27508 2 4 6 13 48 21 92 19 118 17 831 -3 864 l-14 22 -691 0 c-604 0 -690 2 -695 15 -8 21 -14 19 -54 -13z m-6416 -223 c-3 -5 -10 -7 -15 -3 -5 3 -7 10 -3 15 3 5 10 7 15 3 5 -3 7 -10 3 -15z m-50 -40 c-3 -5 -10 -7 -15 -3 -5 3 -7 10 -3 15 3 5 10 7 15 3 5 -3 7 -10 3 -15z"/>
</g>
</g>
  <g id="id3:id3" transform="matrix(1.25,0,0,1.25,0.0,0.0)"><g transform="translate(0.000000,560.000000) scale(0.040000,-0.040000)" fill="#1f3870" stroke="none">
<path d="M81 13916 c-13 -15 -12 -7479 1 -7492 5 -4 19 -2 33 4 20 9 1361 12 5494 12 4776 0 5470 2 5481 15 6 8 9 19 5 25 -9 14 -8 870 1 907 4 15 13 35 21 44 12 14 11 20 -8 41 l-21 24 1 544 c2 472 4 547 17 561 14 15 14 20 0 48 -14 26 -16 85 -17 428 0 219 3 421 6 448 5 35 3 62 -7 85 -9 22 -12 43 -7 55 4 11 9 252 9 535 1 283 2 526 2 540 1 22 1 873 1 990 0 25 0 288 -1 585 0 297 0 547 0 555 0 8 -1 219 -3 467 l-3 453 30 42 30 43 81 3 c54 2 85 7 93 16 11 15 5 15 -167 1 -42 -3 -55 0 -62 13 -9 16 -375 17 -5504 20 -4626 2 -5496 0 -5506 -12z m919 -482 c33 -98 42 -104 154 -104 52 0 97 -4 101 -9 5 -9 -77 -71 -93 -71 -4 0 -22 -12 -41 -27 l-32 -28 19 -40 c28 -56 43 -108 34 -116 -4 -4 -42 13 -86 37 -43 24 -85 44 -93 44 -21 0 -106 -45 -142 -75 -27 -23 -32 -24 -37 -11 -4 9 6 51 21 94 25 71 26 77 10 87 -59 36 -135 99 -127 107 5 5 44 9 88 10 43 0 87 5 97 10 16 8 48 68 78 146 13 33 25 21 49 -54z m3689 1 c42 -108 38 -105 146 -105 51 0 96 -4 99 -9 7 -10 -52 -60 -100 -84 -42 -22 -47 -40 -25 -95 28 -72 39 -110 34 -116 -2 -2 -21 7 -41 21 -49 33 -128 73 -145 73 -14 0 -149 -71 -174 -91 -27 -23 -24 18 7 82 38 80 38 96 -1 117 -42 22 -126 85 -130 96 -2 5 37 8 88 7 128 -3 127 -4 187 143 19 46 24 42 55 -39z m-1840 -5 c43 -105 38 -101 154 -99 56 1 103 -2 105 -5 4 -9 -46 -50 -88 -71 -80 -40 -84 -57 -40 -155 15 -35 26 -68 23 -73 -3 -4 -17 0 -31 9 -15 10 -57 35 -94 56 l-67 38 -58 -31 c-32 -17 -73 -42 -91 -55 -45 -35 -51 -13 -18 70 14 35 26 71 26 80 0 8 -34 38 -75 67 -41 28 -72 55 -69 60 3 5 45 9 95 9 l89 0 30 42 c16 22 30 46 30 52 0 20 41 79 49 70 4 -5 18 -34 30 -64z m5550 -22 l36 -73 95 -3 c52 -2 99 -7 103 -11 9 -9 -50 -54 -110 -85 -27 -14 -33 -22 -33 -49 0 -18 9 -52 20 -75 41 -85 26 -92 -70 -36 -41 23 -81 43 -89 43 -20 1 -98 -37 -145 -71 -21 -15 -42 -26 -46 -23 -9 5 24 111 41 131 19 23 5 57 -31 81 -133 85 -134 95 -14 95 43 -1 86 4 96 9 9 5 34 43 54 85 24 51 40 72 46 66 6 -6 27 -43 47 -84z m1826 32 c13 -30 34 -67 48 -82 23 -26 30 -28 110 -28 47 0 88 -4 91 -8 6 -11 -59 -63 -106 -84 -45 -20 -46 -29 -13 -120 14 -38 23 -74 20 -79 -3 -4 -46 13 -94 38 l-89 47 -53 -24 c-30 -14 -68 -38 -87 -54 -48 -42 -55 -23 -25 65 14 42 23 84 20 93 -4 9 -21 24 -38 34 -59 32 -110 73 -104 82 3 6 46 10 95 10 94 0 120 5 120 23 0 7 11 34 24 62 13 27 27 58 30 68 10 30 26 15 51 -43z m-3685 -19 c14 -35 34 -69 45 -77 13 -10 48 -14 111 -14 51 0 95 -4 98 -9 6 -9 -57 -55 -116 -85 -46 -23 -47 -38 -9 -131 16 -38 26 -73 24 -78 -2 -4 -23 4 -46 18 -23 15 -65 38 -94 53 l-52 26 -48 -23 c-26 -13 -65 -35 -86 -49 -28 -19 -41 -22 -49 -14 -8 8 -8 15 -1 24 6 7 16 31 23 53 7 22 17 45 22 52 18 23 -3 48 -79 96 -46 29 -72 52 -67 57 5 5 52 10 104 12 l95 3 38 78 c22 43 44 76 50 74 7 -2 23 -32 37 -66z m-4605 -774 c15 -38 33 -71 39 -73 6 -2 50 -10 97 -17 48 -6 88 -16 89 -22 1 -5 -23 -24 -54 -40 -32 -17 -62 -38 -68 -48 -12 -22 5 -107 28 -143 13 -18 14 -28 6 -36 -8 -8 -27 -2 -69 25 -62 38 -105 53 -138 48 -11 -2 -50 -23 -88 -47 -38 -25 -72 -42 -77 -39 -4 3 6 41 22 85 16 45 27 87 25 95 -3 7 -38 32 -77 55 -39 23 -68 45 -66 49 6 9 85 22 150 26 44 2 81 38 92 90 3 16 13 43 21 59 19 36 29 26 68 -67z m7366 31 c42 -91 61 -112 101 -114 42 -2 130 -15 141 -21 14 -8 -14 -32 -74 -64 -32 -17 -61 -40 -64 -50 -3 -10 5 -39 18 -66 14 -26 28 -58 31 -71 12 -38 -19 -37 -73 3 -81 59 -145 57 -239 -8 -60 -40 -70 -26 -37 53 16 38 24 72 21 86 -4 13 -30 39 -64 61 -31 21 -56 43 -55 48 1 6 40 17 87 25 47 8 92 22 99 30 8 8 22 35 32 60 9 25 21 55 26 68 5 12 11 22 14 22 3 0 19 -28 36 -62z m-5526 -28 c15 -35 34 -70 43 -76 9 -6 56 -15 104 -19 48 -3 90 -10 93 -15 3 -5 -23 -25 -58 -44 -89 -50 -97 -68 -63 -152 17 -42 24 -70 18 -76 -6 -6 -35 5 -78 31 -99 60 -102 60 -195 6 -49 -29 -84 -44 -90 -38 -5 5 3 37 22 81 19 46 27 78 22 87 -5 8 -37 32 -72 53 -35 21 -63 42 -62 48 0 8 64 21 146 29 17 1 35 3 42 4 6 0 19 22 27 49 21 62 55 117 66 106 4 -5 20 -38 35 -74z m1851 -5 c30 -73 43 -80 162 -92 34 -3 65 -9 68 -14 6 -11 -55 -56 -95 -70 -51 -18 -55 -38 -22 -121 17 -40 26 -77 22 -81 -5 -5 -44 12 -87 37 -43 25 -85 46 -93 46 -8 0 -52 -20 -98 -45 -68 -37 -85 -43 -89 -30 -4 8 -2 21 4 28 5 6 18 38 28 69 21 67 18 73 -61 117 -89 50 -88 52 47 72 97 13 87 4 137 123 26 59 37 54 77 -39z m1843 8 c29 -71 40 -84 77 -88 107 -12 145 -19 150 -26 5 -9 -75 -64 -107 -74 -10 -3 -21 -15 -24 -25 -6 -20 14 -89 40 -141 14 -26 14 -30 1 -35 -9 -3 -28 3 -43 14 -50 35 -111 62 -140 62 -34 0 -101 -30 -147 -65 -19 -14 -37 -22 -40 -17 -2 4 6 39 20 77 31 85 29 115 -11 134 -60 31 -106 62 -101 70 5 8 78 20 154 25 40 3 51 15 82 86 43 98 51 98 89 3z m-6465 -767 c15 -41 33 -79 40 -85 7 -6 59 -12 117 -13 61 -2 104 -7 103 -13 0 -5 -36 -30 -80 -54 -43 -24 -81 -45 -83 -47 -3 -3 8 -41 23 -86 16 -47 23 -85 18 -90 -5 -5 -41 11 -85 37 -71 43 -79 46 -114 36 -20 -6 -61 -27 -90 -47 -79 -54 -88 -39 -43 80 l23 59 -28 21 c-15 12 -50 35 -78 51 -27 17 -49 35 -48 40 0 6 40 11 88 12 129 4 129 4 148 70 21 70 43 115 54 109 4 -3 20 -39 35 -80z m3666 60 c0 -7 14 -43 30 -79 34 -76 34 -76 163 -80 50 -1 87 -6 87 -12 0 -5 -32 -28 -72 -51 -85 -49 -99 -65 -79 -96 19 -31 42 -121 33 -130 -4 -4 -42 12 -84 37 -43 25 -83 45 -90 44 -12 0 -43 -15 -136 -66 -24 -13 -43 -19 -47 -13 -3 5 6 44 21 85 32 89 34 84 -70 142 -37 22 -68 43 -67 49 0 5 48 11 105 14 58 3 109 10 115 15 8 9 20 38 62 143 9 23 29 22 29 -2z m-1821 -61 c35 -88 37 -89 151 -95 55 -3 101 -9 102 -15 1 -5 -32 -31 -73 -56 l-74 -45 1 -37 c1 -21 12 -57 25 -82 37 -69 17 -77 -68 -26 -81 48 -122 52 -173 18 -58 -39 -103 -58 -113 -48 -6 6 1 35 18 76 18 46 24 74 18 86 -4 10 -37 38 -73 61 -36 24 -64 48 -63 53 2 6 46 12 100 15 l97 5 29 60 c40 82 58 109 66 99 4 -5 18 -36 30 -69z m3695 -9 c25 -79 35 -85 151 -88 58 -2 100 -7 100 -13 0 -5 -35 -30 -77 -55 -43 -25 -78 -51 -78 -59 0 -7 11 -45 25 -83 14 -38 23 -74 19 -79 -3 -5 -43 11 -88 36 -46 25 -89 45 -97 45 -8 0 -49 -21 -92 -46 -74 -44 -106 -50 -91 -15 3 9 17 45 29 79 l23 64 -19 16 c-11 10 -47 33 -81 52 -33 19 -61 40 -62 45 -1 6 40 11 100 13 115 3 115 3 154 92 34 77 41 86 56 66 6 -9 19 -40 28 -70z m3687 10 c16 -33 29 -66 29 -72 0 -19 26 -24 125 -24 52 0 96 -4 100 -9 3 -6 -30 -32 -74 -58 -44 -26 -82 -54 -85 -61 -3 -7 4 -30 15 -52 26 -50 40 -108 28 -116 -6 -3 -40 12 -77 34 -37 22 -77 43 -89 47 -24 7 -90 -23 -137 -62 -33 -28 -62 -27 -58 2 2 11 14 45 28 76 13 31 22 63 19 70 -6 14 -64 53 -123 83 -56 29 -35 41 75 44 110 3 111 3 132 67 27 78 42 106 52 99 6 -3 24 -34 40 -68z m-1846 4 c14 -27 25 -56 25 -64 0 -26 36 -36 134 -36 52 0 97 -4 101 -9 5 -10 -45 -51 -63 -51 -5 0 -28 -14 -50 -30 -34 -25 -42 -36 -42 -63 0 -17 9 -47 20 -65 20 -33 26 -67 13 -75 -8 -5 -25 3 -111 51 -68 37 -108 29 -206 -42 -44 -31 -50 -9 -21 73 15 40 24 78 22 85 -3 7 -27 26 -54 41 -59 34 -94 65 -87 76 3 5 45 9 94 9 94 0 112 7 126 53 12 39 56 107 65 101 5 -3 21 -27 34 -54z m-4635 -713 c0 -7 12 -40 27 -75 31 -70 40 -75 166 -88 37 -4 70 -11 73 -15 2 -5 -17 -19 -43 -33 -89 -45 -117 -100 -79 -158 8 -13 16 -36 18 -53 2 -25 0 -29 -17 -27 -11 2 -43 19 -72 37 -28 19 -63 37 -76 40 -26 7 -69 -11 -122 -50 -33 -25 -72 -37 -80 -26 -2 4 7 34 20 67 40 97 38 105 -56 159 -44 26 -78 49 -75 52 3 4 42 8 86 10 95 6 131 14 141 34 4 7 21 45 38 82 17 39 35 66 41 62 5 -3 10 -12 10 -18z m1875 -74 c9 -28 22 -56 28 -61 18 -15 146 -34 177 -27 54 12 40 -15 -32 -63 -68 -45 -73 -50 -72 -82 1 -19 10 -57 19 -83 24 -66 11 -75 -51 -36 -84 54 -107 61 -151 45 -22 -8 -64 -30 -95 -49 -30 -20 -58 -34 -61 -31 -3 3 6 33 20 66 14 36 23 75 21 96 -3 33 -9 40 -61 72 -32 19 -59 39 -60 45 -1 5 41 16 93 23 52 7 100 18 107 23 6 6 15 24 18 41 4 16 16 51 27 76 l20 45 19 -24 c10 -13 25 -47 34 -76z m1830 41 c14 -31 25 -65 25 -75 0 -10 8 -22 18 -27 26 -14 168 -35 191 -29 12 3 23 2 26 -3 5 -8 -65 -60 -82 -60 -5 0 -22 -11 -37 -25 -32 -30 -34 -68 -5 -136 31 -71 17 -77 -64 -29 -97 59 -109 59 -197 6 -41 -25 -78 -42 -82 -38 -4 4 2 36 12 71 11 34 20 71 20 80 0 22 -29 49 -88 81 -26 14 -46 30 -45 35 1 6 38 15 82 22 44 6 89 14 101 18 20 6 56 71 83 148 10 26 15 21 42 -39z m-5524 -35 c12 -32 27 -63 34 -69 7 -6 55 -16 106 -23 93 -12 109 -21 73 -42 -58 -32 -103 -68 -109 -85 -4 -11 3 -50 15 -86 13 -38 18 -70 13 -75 -5 -5 -31 5 -62 24 -92 55 -101 59 -129 52 -15 -3 -54 -24 -86 -45 -89 -60 -99 -52 -62 50 15 39 26 75 26 80 0 4 -36 32 -80 60 -44 29 -77 57 -74 61 3 5 42 9 87 9 117 0 126 6 172 114 30 70 43 66 76 -25z m7393 -19 c16 -43 23 -51 55 -60 20 -5 63 -12 95 -14 87 -6 88 -18 6 -67 l-72 -43 6 -45 c3 -24 13 -55 22 -68 8 -13 14 -34 12 -46 -4 -29 -32 -24 -81 15 -69 54 -90 55 -190 5 -48 -25 -89 -42 -91 -38 -2 3 3 24 11 46 8 22 20 55 26 74 l11 33 -40 37 c-22 20 -55 44 -74 54 -19 10 -29 21 -24 26 5 5 49 13 98 20 49 6 94 15 101 21 6 5 17 29 24 52 7 24 20 56 28 73 l16 29 21 -27 c12 -15 30 -50 40 -77z m-8324 -738 c35 -94 47 -102 156 -102 51 0 95 -4 98 -9 7 -11 -19 -34 -64 -56 -39 -19 -90 -64 -90 -79 0 -5 12 -38 26 -74 14 -35 22 -68 17 -73 -8 -8 -115 41 -144 67 -21 19 -46 18 -77 -5 -50 -35 -131 -71 -137 -61 -3 5 6 42 20 82 l25 73 -41 35 c-23 19 -57 44 -76 55 -19 11 -34 25 -34 30 1 6 41 11 93 13 105 3 128 16 149 81 18 55 39 92 49 86 5 -3 18 -31 30 -63z m3685 11 c14 -32 31 -69 38 -83 l13 -25 99 -3 c55 -1 104 -7 109 -12 5 -5 -21 -27 -61 -53 -39 -25 -73 -53 -77 -62 -9 -25 -7 -63 4 -70 14 -9 33 -86 23 -96 -4 -4 -37 8 -73 27 -36 19 -74 39 -86 45 -17 9 -36 2 -112 -39 -82 -45 -121 -53 -94 -19 15 20 51 137 46 151 -3 7 -19 20 -37 30 -56 29 -117 77 -112 87 4 5 47 9 96 9 50 0 99 4 109 10 10 5 24 27 31 47 14 44 47 113 54 113 3 0 17 -26 30 -57z m5537 -3 c11 -30 32 -67 46 -82 23 -26 31 -27 121 -30 100 -3 116 -12 65 -37 -16 -8 -50 -32 -76 -53 -46 -38 -58 -63 -39 -83 13 -15 41 -106 35 -116 -6 -10 -63 15 -122 53 -24 15 -49 28 -57 28 -8 0 -52 -22 -97 -49 -46 -27 -87 -46 -91 -42 -4 5 4 38 20 75 25 63 26 70 12 94 -8 15 -41 45 -74 67 -32 22 -59 45 -59 50 -1 6 43 12 103 15 l103 5 28 65 c16 36 31 73 34 83 10 30 27 15 48 -43z m-7377 -5 c14 -31 25 -60 25 -65 0 -5 7 -16 16 -24 12 -12 37 -16 109 -16 52 0 96 -4 99 -9 7 -11 -28 -42 -87 -76 -62 -35 -67 -58 -32 -140 15 -35 24 -68 21 -74 -4 -5 -45 12 -94 40 -48 27 -92 49 -99 49 -7 0 -31 -13 -55 -28 -64 -42 -116 -63 -124 -51 -3 5 7 39 22 75 l27 65 -44 45 c-24 25 -59 53 -78 62 -19 10 -33 22 -32 27 0 6 41 11 93 13 109 3 118 9 159 100 15 34 33 62 38 62 6 0 22 -25 36 -55z m3701 -25 l37 -80 103 0 c56 0 105 -4 109 -10 5 -8 -87 -75 -128 -92 -30 -13 -30 -35 -3 -110 15 -39 23 -75 18 -80 -7 -7 -78 25 -153 69 l-26 15 -88 -47 c-60 -31 -91 -43 -98 -36 -7 7 -7 14 0 23 18 22 45 117 39 135 -3 10 -40 40 -81 66 -42 26 -73 52 -70 57 4 6 53 10 111 10 l105 0 20 48 c11 26 27 62 34 80 8 17 19 32 24 32 6 0 27 -36 47 -80z m1848 0 l32 -75 105 -5 c61 -3 103 -9 102 -15 -1 -9 -14 -19 -107 -81 -33 -22 -37 -29 -33 -57 2 -18 12 -53 23 -79 30 -79 9 -79 -131 2 l-40 22 -92 -50 c-51 -27 -94 -48 -97 -45 -5 5 -3 10 33 100 12 28 21 56 21 62 0 6 -34 36 -75 66 -42 31 -73 60 -70 66 4 5 49 9 100 9 l95 0 40 81 c23 44 46 79 51 77 6 -2 25 -37 43 -78z m-6465 -757 c36 -87 40 -90 142 -98 49 -4 91 -11 94 -15 3 -5 -16 -22 -42 -39 -109 -69 -105 -61 -69 -168 24 -70 24 -92 1 -73 -6 5 -48 28 -93 50 l-83 42 -32 -21 c-17 -12 -48 -28 -67 -37 -19 -9 -43 -23 -52 -31 -31 -27 -31 7 -2 87 l26 74 -33 29 c-19 16 -53 40 -77 54 -23 14 -40 28 -37 32 2 5 42 11 87 15 114 9 121 15 172 140 20 48 33 40 65 -41z m1847 -6 c16 -38 37 -73 46 -78 10 -5 54 -12 98 -16 44 -3 83 -9 85 -13 2 -4 -25 -28 -61 -54 -36 -25 -67 -53 -70 -61 -3 -8 6 -44 21 -81 15 -39 23 -70 18 -75 -5 -5 -44 10 -93 36 -46 25 -88 45 -93 45 -5 0 -21 -8 -35 -19 -51 -35 -131 -71 -137 -61 -8 13 1 42 28 98 l21 44 -41 36 c-23 21 -55 47 -72 60 -17 13 -29 27 -26 31 2 5 36 11 74 15 39 3 81 11 95 17 22 10 56 62 56 86 0 18 42 75 49 67 4 -5 21 -40 37 -77z m1845 2 c12 -32 27 -63 33 -68 15 -12 109 -31 156 -31 21 0 41 -4 44 -9 3 -5 -28 -32 -70 -61 -56 -39 -74 -56 -69 -69 24 -63 45 -133 40 -140 -2 -5 -40 9 -82 30 -43 21 -86 39 -96 39 -9 0 -53 -18 -97 -40 -81 -41 -105 -40 -77 3 8 12 20 46 28 76 11 45 11 55 0 59 -7 2 -27 17 -44 32 -18 15 -47 35 -65 44 -40 20 -33 36 15 36 20 0 65 5 101 12 l65 12 18 40 c9 23 24 58 33 80 13 32 18 36 31 26 8 -7 24 -39 36 -71z m1838 19 c16 -35 31 -70 34 -80 6 -18 84 -38 152 -38 24 0 46 -4 50 -10 3 -5 -26 -31 -64 -57 -39 -26 -70 -55 -71 -63 0 -9 13 -47 29 -85 16 -38 28 -72 25 -76 -2 -4 -46 15 -96 43 l-93 50 -88 -45 c-48 -24 -90 -41 -92 -37 -3 4 5 34 16 66 32 91 32 92 -44 144 -38 26 -70 51 -70 56 -1 5 33 12 76 16 107 10 126 21 157 93 26 63 38 85 46 85 2 0 17 -28 33 -62z m1853 -18 c33 -77 49 -87 144 -95 46 -4 86 -11 89 -15 3 -4 -27 -29 -65 -56 -38 -26 -72 -55 -75 -64 -3 -10 6 -37 20 -61 24 -43 32 -79 18 -92 -3 -4 -43 13 -88 37 l-82 45 -51 -24 c-28 -13 -68 -35 -88 -49 -21 -14 -41 -23 -45 -21 -9 6 4 61 26 106 25 52 14 77 -55 127 -33 24 -58 47 -55 51 2 5 33 11 67 14 95 9 124 22 141 65 9 20 23 55 32 77 l17 39 15 -19 c8 -11 24 -40 35 -65z m-8308 -769 c15 -38 34 -75 41 -81 9 -7 53 -13 107 -13 64 -2 93 -6 93 -14 0 -13 -55 -52 -116 -83 -42 -22 -47 -34 -25 -65 19 -28 56 -132 49 -138 -3 -3 -22 4 -42 17 -20 12 -60 35 -89 50 l-54 27 -66 -31 c-37 -17 -74 -38 -84 -47 -18 -16 -38 -10 -38 11 0 7 11 40 25 74 14 33 22 67 19 74 -2 7 -36 35 -75 61 -39 27 -66 53 -63 59 4 7 37 9 91 5 99 -6 96 -7 148 98 21 41 40 73 44 70 4 -2 20 -35 35 -74z m1847 1 c34 -89 43 -95 138 -94 115 3 121 -12 30 -73 -80 -54 -79 -51 -40 -158 12 -32 19 -62 16 -68 -6 -9 -63 19 -137 68 -44 30 -55 27 -152 -33 -44 -28 -74 -40 -80 -34 -6 6 3 38 22 87 34 85 33 92 -22 120 -48 25 -106 75 -99 86 3 6 39 8 88 5 46 -3 90 -1 100 4 9 6 31 40 47 77 34 75 48 95 58 84 3 -4 17 -36 31 -71z m1850 -18 c15 -43 29 -66 43 -71 12 -4 60 -6 107 -4 48 1 90 -2 93 -7 7 -11 -88 -86 -121 -96 -29 -9 -37 -39 -20 -73 24 -45 40 -114 29 -125 -6 -6 -36 8 -80 36 -39 25 -80 46 -92 46 -23 0 -84 -29 -143 -68 -48 -32 -66 -20 -44 29 29 63 47 111 47 126 0 8 -15 20 -34 28 -19 8 -38 19 -41 25 -4 6 -24 22 -46 36 -22 13 -37 29 -34 34 4 6 42 8 91 5 52 -3 93 -1 105 6 18 9 49 66 81 149 9 24 10 24 23 7 7 -10 24 -47 36 -83z m5533 18 c24 -60 33 -73 55 -77 14 -3 45 -10 68 -15 23 -5 55 -7 71 -4 46 9 46 -12 1 -43 -23 -15 -55 -40 -72 -54 l-31 -26 27 -82 c15 -45 25 -86 22 -92 -4 -5 -21 2 -38 15 -42 31 -132 76 -153 76 -10 0 -25 -6 -33 -14 -25 -21 -134 -76 -142 -70 -9 5 8 68 32 116 23 44 19 58 -24 83 -44 26 -108 77 -103 83 3 2 29 5 58 7 29 1 73 6 97 10 l43 8 28 61 c15 34 30 69 34 79 11 33 30 12 60 -61z m-3693 -7 c15 -34 34 -67 43 -74 10 -8 47 -13 107 -12 51 0 96 -2 101 -5 13 -9 -73 -82 -105 -89 -48 -11 -54 -43 -23 -125 14 -40 24 -76 21 -81 -3 -5 -38 8 -78 28 -40 21 -82 41 -94 44 -23 7 -101 -24 -155 -62 -42 -30 -53 -13 -28 43 11 26 23 66 26 91 l6 45 -34 11 c-47 16 -112 71 -99 84 6 6 48 12 93 14 97 5 109 13 138 91 12 31 23 59 26 64 10 16 26 -5 55 -67z m1829 38 c0 -23 49 -112 68 -122 10 -5 51 -13 92 -16 41 -4 79 -10 83 -12 14 -9 -36 -55 -80 -74 -51 -22 -53 -35 -21 -126 27 -76 17 -98 -29 -66 -49 36 -111 63 -141 63 -15 0 -61 -20 -102 -44 -41 -25 -77 -43 -80 -41 -4 2 6 41 21 85 15 45 25 90 22 100 -3 10 -26 28 -54 39 -46 20 -76 51 -62 65 3 3 25 6 47 6 23 0 61 6 86 13 42 12 47 17 84 90 31 63 41 76 52 66 8 -6 14 -18 14 -26z m-6435 -811 c45 -86 51 -89 152 -91 34 -1 64 -5 67 -9 7 -11 -40 -55 -81 -76 -17 -9 -34 -25 -38 -35 -7 -22 9 -91 31 -134 23 -44 8 -51 -44 -21 -82 47 -120 64 -144 64 -13 -1 -54 -20 -93 -44 -77 -48 -98 -47 -77 7 8 17 21 54 30 81 l16 49 -19 14 c-11 7 -42 28 -70 46 -27 18 -49 37 -48 42 2 6 38 12 81 15 49 3 86 11 97 20 10 8 34 48 52 88 19 41 38 71 41 68 4 -4 25 -41 47 -84z m3684 7 c29 -79 60 -99 153 -99 37 0 70 -5 73 -10 8 -13 -51 -70 -73 -70 -23 0 -52 -30 -52 -53 0 -11 12 -49 26 -85 14 -35 22 -68 17 -73 -5 -5 -39 10 -77 34 -48 29 -81 42 -106 42 -25 0 -58 -13 -106 -42 -38 -24 -72 -39 -77 -34 -5 5 4 43 18 84 15 42 25 83 21 92 -3 9 -25 24 -48 34 -52 22 -98 68 -77 75 8 3 46 6 86 8 87 4 112 23 143 106 12 31 24 60 26 64 10 17 31 -12 53 -73z m1836 29 c14 -29 25 -58 25 -64 0 -6 12 -21 26 -35 21 -20 38 -24 102 -27 42 -2 81 -7 85 -11 9 -9 -45 -58 -92 -83 -38 -21 -41 -52 -10 -132 11 -31 18 -60 15 -65 -4 -5 -36 8 -73 29 -36 22 -78 42 -93 45 -30 6 -78 -12 -146 -55 -26 -16 -50 -27 -54 -25 -4 3 3 34 16 70 33 90 31 111 -8 134 -66 39 -108 73 -103 82 4 5 28 9 54 9 27 0 70 3 96 7 l47 6 29 61 c16 34 29 68 29 77 0 17 9 29 22 29 5 0 20 -24 33 -52z m-3677 -37 l37 -79 44 -6 c24 -3 63 -6 87 -6 23 0 45 -4 48 -8 8 -13 -28 -49 -71 -71 -53 -26 -61 -54 -36 -113 26 -57 35 -96 25 -102 -5 -3 -21 4 -38 15 -49 34 -122 69 -142 69 -11 0 -52 -19 -91 -42 -94 -54 -103 -46 -67 57 15 41 24 80 21 85 -4 6 -22 17 -40 25 -43 17 -105 66 -99 77 3 4 41 8 84 8 70 0 82 3 109 26 17 14 31 33 31 42 1 26 38 102 50 102 6 0 28 -36 48 -79z m5532 15 c41 -90 65 -106 156 -106 40 0 75 -4 78 -8 7 -11 -53 -57 -98 -76 -32 -13 -36 -19 -36 -53 0 -21 9 -52 20 -70 22 -37 30 -84 15 -90 -6 -2 -42 17 -79 42 -38 25 -78 45 -90 45 -26 0 -89 -29 -140 -64 -22 -15 -43 -23 -48 -18 -5 5 3 40 18 80 32 86 28 116 -18 132 -44 15 -106 68 -87 74 8 2 49 7 91 9 43 3 82 8 88 12 6 4 27 40 45 81 19 41 39 74 45 74 6 0 24 -29 40 -64z m-8309 -771 c35 -99 43 -105 149 -105 49 0 91 -4 94 -9 8 -12 -21 -35 -75 -60 -56 -26 -79 -62 -60 -93 21 -34 41 -112 31 -122 -5 -5 -22 0 -42 13 -57 36 -112 61 -139 61 -14 0 -56 -18 -93 -41 -85 -51 -96 -44 -66 44 31 92 27 103 -52 146 -37 20 -68 41 -68 46 0 6 42 12 97 15 l98 5 43 88 c23 48 46 86 51 83 5 -3 19 -35 32 -71z m7369 29 c0 -24 49 -122 64 -127 9 -4 56 -9 106 -13 50 -4 93 -11 96 -15 2 -5 -15 -18 -38 -30 -55 -28 -105 -66 -112 -85 -3 -8 2 -32 13 -52 20 -41 33 -97 24 -105 -3 -4 -44 14 -91 39 -92 48 -104 49 -160 7 -17 -13 -48 -31 -67 -39 -38 -16 -63 -11 -46 9 5 7 19 41 30 77 l21 64 -24 25 c-13 13 -46 36 -73 50 -26 14 -48 31 -48 36 0 6 43 14 95 18 52 5 100 14 106 20 10 11 37 71 65 144 l10 28 15 -19 c8 -11 14 -25 14 -32z m1860 -23 c32 -86 49 -99 148 -107 45 -4 85 -11 88 -15 2 -4 -19 -23 -48 -42 -29 -19 -62 -44 -72 -56 l-20 -22 18 -47 c46 -120 41 -129 -42 -78 -103 62 -102 62 -199 11 -47 -24 -89 -42 -94 -40 -9 6 7 68 28 108 26 51 14 79 -43 107 -59 28 -86 49 -79 60 2 4 41 10 85 13 47 3 90 11 103 20 12 8 33 41 46 74 42 101 48 102 81 14z m-7381 -11 c16 -36 31 -73 34 -82 6 -16 20 -18 106 -18 55 0 102 -4 105 -9 6 -9 -63 -61 -81 -61 -21 0 -63 -42 -63 -64 0 -12 11 -51 25 -85 14 -34 23 -66 20 -71 -6 -10 -71 22 -125 60 -48 33 -63 32 -133 -10 -72 -44 -113 -55 -111 -30 1 8 12 43 25 78 l23 62 -26 27 c-15 14 -48 38 -75 52 -26 14 -47 31 -45 36 1 6 41 11 89 13 49 2 93 8 102 15 8 7 29 45 48 85 18 41 38 72 44 70 6 -2 23 -33 38 -68z m1847 -10 c15 -39 32 -75 39 -80 6 -5 56 -11 111 -12 97 -3 118 -12 78 -33 -78 -42 -124 -83 -124 -110 0 -12 11 -49 24 -82 13 -34 22 -64 19 -67 -6 -6 -81 32 -128 63 -39 27 -71 26 -120 -4 -80 -48 -114 -65 -119 -57 -6 11 8 67 28 115 20 47 14 70 -22 86 -51 23 -122 73 -116 82 3 5 47 9 97 9 51 0 97 4 103 8 13 8 48 75 59 112 9 32 25 51 35 45 5 -3 21 -37 36 -75z m1842 12 c7 -20 21 -51 31 -69 l20 -32 103 -3 c61 -2 103 -7 102 -13 -1 -5 -30 -26 -64 -46 -93 -52 -97 -62 -66 -149 15 -39 24 -76 20 -81 -3 -5 -45 12 -94 38 l-88 48 -91 -48 c-51 -26 -96 -45 -101 -42 -5 3 2 27 16 54 32 65 40 107 24 127 -8 8 -44 34 -82 56 -38 23 -65 45 -61 49 5 5 53 10 108 11 l100 3 31 62 c17 34 34 72 37 85 l6 22 19 -17 c10 -10 24 -34 30 -55z"/>
<path d="M11380 13910 c0 -7 1428 -10 4265 -10 2837 0 4265 3 4265 10 0 7 -1428 10 -4265 10 -2837 0 -4265 -3 -4265 -10z"/>
</g>
</g>
  <g id="id4:id4" transform="matrix(1.25,0,0,1.25,0.0,0.0)"><g transform="translate(0.000000,560.000000) scale(0.040000,-0.040000)" fill="#a81f31" stroke="none">
<path d="M0 7000 l0 -7000 13900 0 13900 0 0 7000 0 7000 -13900 0 -13900 0 0 -7000z m11097 6868 c48 -46 100 -58 126 -30 10 11 17 28 15 37 -2 11 5 20 17 24 35 10 16391 12 16418 2 21 -8 26 -18 32 -63 6 -51 11 -712 7 -853 -3 -78 -7 -1162 -5 -1265 4 -207 6 -910 5 -1545 -1 -1235 -1 -1605 -1 -2300 1 -368 1 -845 1 -1060 -1 -452 0 -1491 1 -1840 0 -132 -1 -328 -2 -435 -1 -107 -1 -204 0 -215 1 -11 1 -303 1 -650 0 -346 0 -769 1 -940 0 -170 0 -636 -1 -1035 0 -399 0 -867 1 -1040 1 -173 -2 -355 -8 -405 l-10 -90 -3525 0 c-1939 0 -3568 0 -3620 1 -52 0 -4638 -1 -10190 -2 -6607 -3 -10098 0 -10104 6 -6 6 -25 10 -43 10 -27 0 -35 5 -43 26 -6 15 -10 174 -10 379 0 306 2 360 17 397 9 24 23 51 31 60 9 11 12 24 7 35 -5 10 -9 21 -9 25 -2 16 -23 27 -56 30 l-35 3 -3 503 c-1 335 1 509 8 522 7 13 21 20 42 20 61 0 76 63 30 132 l-27 42 -3 369 -3 370 31 49 c16 27 30 54 30 61 0 20 -43 57 -66 57 -13 0 -28 8 -33 18 -6 12 -10 211 -11 515 l-1 495 46 33 c39 28 45 37 45 69 0 20 -4 40 -8 46 -24 26 -31 138 -32 450 -1 344 0 354 43 417 14 20 16 31 8 41 -6 7 -8 16 -4 19 13 14 -18 33 -46 29 -17 -2 -32 1 -37 10 -18 27 -25 1141 -29 4762 -4 2753 -2 3722 6 3732 10 12 880 14 5485 12 l5473 -3 38 -37z"/>
<path d="M11082 12933 c-21 -4 -23 -9 -20 -56 2 -34 7 -52 16 -51 6 1 39 2 72 3 52 1 62 4 76 26 16 24 16 27 -1 45 -13 14 -29 20 -52 18 -18 -1 -38 3 -45 10 -7 7 -14 11 -17 11 -4 -1 -16 -4 -29 -6z"/>
<path d="M11078 11773 c0 -5 -2 -19 -4 -33 -1 -14 -6 -36 -10 -49 -7 -22 -5 -23 27 -16 19 4 40 12 47 18 9 7 16 7 24 -1 12 -12 48 -17 48 -6 0 3 -5 15 -12 27 -7 12 -13 27 -14 32 0 6 -2 16 -2 23 -2 13 -101 18 -104 5z"/>
<path d="M11062 10763 l3 -58 74 -3 c61 -2 75 0 87 15 19 26 17 47 -7 69 -12 10 -23 18 -25 16 -5 -4 -90 7 -117 15 -16 4 -18 -2 -15 -54z"/>
<path d="M11060 9661 c0 -10 6 -24 14 -31 8 -6 16 -26 18 -43 l3 -32 60 4 c78 4 95 13 90 48 -2 16 -4 31 -4 36 -1 4 -35 7 -76 7 -58 0 -77 4 -81 15 -8 21 -24 19 -24 -4z"/>
<path d="M11098 8673 c-21 -24 -30 -77 -15 -92 6 -6 37 -11 68 -11 49 0 59 3 73 25 20 31 7 58 -40 80 -42 20 -67 19 -86 -2z"/>
<path d="M11106 6583 c-4 -5 -17 -8 -29 -8 -22 0 -34 -26 -36 -80 -1 -38 31 -55 104 -55 46 0 51 2 64 30 15 35 4 55 -37 71 -13 5 -26 18 -29 29 -5 20 -23 26 -37 13z"/>
<path d="M13973 3322 c-33 -5 -28 -24 17 -64 36 -33 42 -35 65 -25 27 13 35 57 13 75 -15 11 -64 19 -95 14z m66 -35 c6 -8 8 -17 5 -20 -10 -9 -45 13 -39 24 9 13 21 11 34 -4z"/>
<path d="M13853 3283 c-28 -5 -29 -14 -4 -44 l18 -23 -32 -33 c-18 -18 -37 -33 -43 -33 -33 0 -42 -104 -11 -123 11 -7 31 -2 71 17 30 14 60 26 66 26 5 0 29 23 52 51 38 45 42 53 32 75 -8 16 -20 24 -37 24 -19 0 -28 8 -39 35 -15 35 -22 38 -73 28z"/>
<path d="M11991 3261 c-24 -4 -40 -15 -52 -36 -24 -40 -23 -45 6 -45 14 0 34 -9 45 -20 17 -17 24 -18 45 -8 14 6 25 18 25 25 0 8 14 28 30 45 17 17 30 32 28 33 -9 7 -98 11 -127 6z"/>
<path d="M11808 3119 c-35 -26 -36 -39 -3 -39 18 0 31 -9 43 -30 22 -38 39 -44 69 -25 27 18 65 75 60 90 -2 6 -26 10 -53 11 -27 0 -58 3 -69 7 -13 4 -30 -1 -47 -14z"/>
<path d="M17960 1155 c0 -14 4 -25 9 -25 12 0 19 21 13 38 -8 21 -22 13 -22 -13z"/>
<path d="M17792 1124 c-36 -29 -39 -47 -16 -93 13 -27 21 -32 45 -29 17 1 33 -2 37 -8 13 -19 142 -46 142 -29 0 2 -5 15 -11 28 -9 20 -8 30 6 50 20 31 13 47 -21 47 -17 0 -27 8 -34 25 -10 26 -24 32 -35 15 -6 -10 -52 -3 -70 11 -6 4 -25 -3 -43 -17z"/>
<path d="M13179 1120 c-3 -20 -4 -25 -13 -38 -5 -9 1 -22 19 -38 l26 -24 43 29 c51 36 70 57 61 71 -8 13 -135 13 -136 0z"/>
<path d="M19622 1099 l-24 -30 26 -20 c16 -12 26 -30 26 -45 0 -14 7 -47 16 -75 15 -45 19 -49 49 -49 18 0 38 -6 44 -14 18 -21 48 -25 68 -10 l18 15 -22 15 c-27 19 -29 36 -8 54 22 19 18 27 -17 34 -18 4 -43 20 -59 38 l-26 33 24 32 c14 18 22 37 18 43 -3 5 -30 10 -58 9 -45 0 -55 -4 -75 -30z"/>
<path d="M24497 1112 c-19 -21 -24 -102 -6 -102 47 0 125 74 112 106 -8 21 -86 18 -106 -4z"/>
<path d="M24582 1027 c-12 -13 -22 -28 -22 -35 0 -18 20 -25 35 -12 12 10 18 10 30 0 30 -25 61 30 33 58 -19 19 -53 14 -76 -11z"/>
</g>
</g>
</svg>
