<?xml version="1.0" standalone="no"?>
<!DOCTYPE svg PUBLIC "-//W3C//DTD SVG 1.1//EN"
 "http://www.w3.org/Graphics/SVG/1.1/DTD/svg11.dtd">
<!-- Created with svg_stack (http://github.com/astraw/svg_stack) -->
<svg xmlns:sodipodi="http://sodipodi.sourceforge.net/DTD/sodipodi-0.dtd" xmlns="http://www.w3.org/2000/svg" version="1.1" width="961.0" height="805.0">
  <defs/>
  <g id="id0:id0" transform="matrix(1.25,0,0,1.25,0.0,0.0)"><g transform="translate(0.000000,644.000000) scale(0.040000,-0.040000)" fill="#818181" stroke="none">
<path d="M17283 4093 c-3 -10 -13 -26 -21 -36 -18 -21 -3 -43 22 -34 24 9 31 4 28 -18 -4 -23 -31 -47 -44 -39 -5 3 -13 17 -18 30 -6 14 -18 24 -28 24 -10 0 -27 9 -37 20 -26 29 -67 25 -120 -11 -27 -18 -54 -29 -65 -26 -11 3 -27 -4 -41 -19 -38 -40 -74 -32 -159 36 -79 63 -89 67 -108 48 -9 -9 -15 -9 -24 0 -17 17 -58 15 -65 -4 -3 -8 -1 -20 6 -27 20 -20 13 -67 -11 -76 -19 -7 -27 -4 -45 18 -12 14 -20 34 -17 44 6 18 -11 24 -21 7 -3 -5 -25 -10 -49 -10 -32 0 -48 -6 -64 -23 -28 -30 -28 -37 1 -37 31 0 57 -29 57 -63 0 -35 -17 -43 -43 -21 -37 32 -65 44 -102 44 -26 0 -35 -4 -35 -17 0 -9 -11 -31 -26 -50 -19 -26 -32 -33 -58 -33 -42 0 -59 -19 -54 -62 l3 -33 -78 -3 c-72 -3 -79 -1 -84 18 -3 11 -11 20 -18 20 -21 0 -45 36 -45 68 0 17 -5 34 -11 38 -8 4 -10 30 -7 76 3 37 2 70 -2 73 -4 2 -25 -11 -46 -29 -34 -28 -45 -32 -79 -28 -22 2 -49 11 -60 18 -11 8 -28 14 -38 14 -10 0 -29 11 -43 25 -14 14 -27 25 -29 25 -10 0 -5 -36 6 -47 6 -6 8 -16 5 -22 -9 -13 -63 -15 -71 -2 -8 13 -85 9 -85 -4 0 -5 -7 -23 -16 -40 -9 -16 -25 -57 -36 -90 -32 -99 -46 -128 -117 -242 -28 -45 -51 -85 -51 -89 0 -3 -28 -38 -62 -76 -68 -76 -156 -141 -209 -153 -49 -10 -287 -18 -307 -9 -9 3 -51 8 -92 10 l-75 4 -188 94 c-103 52 -201 106 -218 120 -17 14 -35 26 -40 26 -14 0 -11 -16 6 -30 24 -20 10 -27 -46 -25 -35 1 -56 7 -64 18 -7 10 -18 17 -26 17 -8 0 -25 9 -39 20 -14 11 -30 20 -36 20 -6 0 -28 14 -49 30 -21 17 -47 30 -57 30 -18 0 -19 -5 -14 -47 4 -27 8 -66 9 -88 l2 -40 -53 -8 c-31 -5 -56 -15 -59 -23 -7 -19 -56 -44 -85 -44 -24 0 -68 -53 -78 -93 -3 -11 -14 -25 -25 -31 -28 -16 -35 -27 -35 -62 0 -22 7 -36 23 -47 17 -12 19 -18 10 -28 -10 -10 -17 -10 -37 1 -39 20 -123 7 -157 -26 -22 -21 -33 -25 -57 -19 -33 7 -42 -1 -43 -37 -2 -43 33 -153 57 -179 34 -36 29 -59 -21 -102 -38 -32 -46 -36 -51 -22 -4 10 2 29 15 45 25 34 27 63 6 80 -13 11 -21 10 -43 -7 -15 -11 -26 -28 -24 -36 1 -9 -2 -18 -8 -22 -5 -3 -10 -19 -10 -34 0 -32 -30 -64 -56 -59 -13 2 -21 16 -26 47 -4 25 -12 49 -17 54 -14 14 -33 -35 -37 -92 -1 -24 -10 -51 -19 -60 -14 -14 -20 -14 -66 2 -46 17 -52 17 -75 2 -42 -27 -27 -65 26 -65 12 0 26 -14 37 -37 9 -21 24 -43 33 -50 13 -10 12 -14 -8 -33 l-22 -21 21 -30 21 -30 -26 -28 c-14 -15 -26 -32 -26 -38 0 -7 26 -21 58 -33 31 -12 67 -31 80 -43 26 -24 98 -46 156 -47 27 0 47 -7 63 -22 19 -18 27 -20 45 -10 51 24 118 19 243 -19 18 -5 33 -5 39 1 6 6 18 10 27 10 9 0 22 7 29 15 7 8 22 15 35 15 12 0 30 9 40 20 22 24 67 26 86 4 7 -9 23 -20 36 -25 13 -5 23 -15 23 -24 0 -11 12 -15 49 -15 52 0 67 10 73 50 2 17 9 25 23 25 17 0 19 -6 17 -33 -3 -23 3 -41 16 -55 25 -29 34 -55 20 -63 -16 -10 -109 -6 -123 6 -15 12 -19 7 -29 -32 -7 -32 -6 -32 64 -17 46 10 54 9 73 -9 21 -19 99 -29 297 -37 25 -1 77 -5 115 -10 l70 -8 -15 19 c-8 10 -21 23 -28 27 -10 7 -10 12 -1 23 18 22 43 17 73 -15 32 -34 30 -56 -9 -71 -25 -10 -33 -34 -15 -45 10 -6 116 41 125 55 3 5 24 7 48 6 l42 -2 -3 -37 c-2 -20 1 -37 6 -37 18 0 34 29 27 50 -11 33 31 41 180 34 l134 -7 23 -36 c35 -55 61 -53 99 8 28 45 36 51 66 51 18 0 42 -4 53 -10 11 -5 28 -14 39 -19 10 -6 28 -7 40 -4 15 4 23 -1 30 -20 5 -13 17 -27 26 -30 20 -8 31 18 16 37 -7 8 -8 17 -3 19 17 11 138 9 181 -2 30 -8 53 -9 70 -2 28 10 156 8 181 -3 20 -8 230 -2 253 9 12 5 24 2 37 -10 12 -11 26 -15 37 -11 17 7 10 15 -65 72 -8 6 -12 16 -8 22 9 15 43 16 51 2 3 -5 32 -10 64 -10 67 0 76 -6 57 -35 -8 -13 -11 -27 -6 -35 7 -11 14 -10 42 2 18 9 52 19 74 23 38 6 43 4 64 -24 33 -48 66 -39 39 11 -9 17 -6 25 20 52 17 18 31 41 31 52 0 25 34 59 49 49 6 -3 11 -21 11 -39 0 -44 16 -56 71 -56 45 0 48 2 51 28 3 24 7 27 48 30 25 2 49 7 55 13 5 5 50 9 100 9 50 0 96 5 101 10 10 10 68 -11 79 -30 3 -5 -15 -26 -40 -46 -51 -43 -54 -50 -24 -59 20 -7 63 11 144 60 26 16 48 22 63 18 16 -4 27 0 36 13 10 13 27 19 60 19 32 0 49 5 59 19 11 15 23 17 63 14 27 -3 64 -11 81 -19 24 -10 36 -10 44 -2 8 8 3 15 -18 25 -35 16 -36 32 -3 36 14 2 29 8 35 13 5 5 19 9 31 9 13 0 26 5 29 10 9 14 41 12 54 -4 9 -11 6 -17 -14 -30 -14 -9 -25 -26 -25 -37 0 -19 4 -20 48 -12 81 13 162 7 192 -16 16 -11 36 -18 48 -15 11 3 33 -1 49 -9 22 -12 40 -13 78 -6 28 5 81 7 118 3 l69 -7 -4 24 c-2 17 -10 25 -28 27 -33 5 -48 20 -27 28 9 3 17 17 17 29 0 13 5 27 10 30 13 8 13 98 0 111 -15 15 13 36 42 32 14 -2 24 -12 28 -28 5 -23 10 -25 79 -28 87 -3 103 6 99 57 l-3 36 -55 5 c-51 5 -55 7 -58 33 -2 15 -9 27 -16 27 -26 0 -46 36 -46 83 0 25 -4 49 -10 52 -5 3 -10 14 -10 24 0 11 -9 21 -21 24 -24 6 -21 30 4 35 20 4 97 -56 97 -74 0 -19 47 -47 65 -40 10 3 15 19 15 44 0 35 -8 46 -80 118 l-81 79 36 33 c28 26 33 36 26 50 -5 10 -9 27 -8 37 2 16 -4 20 -33 20 -69 0 -105 44 -55 67 14 6 28 23 32 37 3 14 12 34 21 43 13 16 13 20 -2 43 -16 25 -61 43 -74 31 -4 -4 1 -21 11 -39 16 -27 17 -33 4 -42 -8 -6 -16 -19 -18 -30 -5 -25 -21 -24 -35 4 -6 11 -19 30 -29 41 l-18 20 26 28 c15 16 27 35 27 44 0 8 7 21 15 28 8 7 12 16 9 21 -2 5 12 15 32 24 28 12 34 18 26 28 -6 7 -9 22 -6 33 6 28 -11 48 -43 49 -21 0 -29 5 -31 23 -4 25 -77 69 -87 52 -7 -11 -48 -14 -58 -4 -7 8 79 94 93 94 6 0 10 6 10 14 0 10 -13 16 -35 18 -52 4 -44 21 16 33 29 5 54 15 56 22 6 18 -54 25 -112 14 -27 -5 -54 -6 -58 -1 -16 15 -2 45 26 58 15 7 27 17 27 22 0 18 -22 21 -39 6 -26 -23 -78 -21 -91 5 -11 19 -13 19 -29 5 -22 -20 -91 -3 -145 36 -50 36 -109 40 -104 7 2 -12 11 -26 21 -30 9 -5 25 -13 35 -18 34 -16 16 -26 -58 -31 l-75 -5 -5 -35 c-4 -31 -9 -35 -37 -38 -18 -2 -43 4 -58 14 l-26 17 20 21 c13 14 21 38 23 71 l3 50 55 3 c58 3 120 38 120 68 0 19 -29 18 -51 -2 -19 -17 -78 -26 -94 -14 -5 4 -35 10 -65 13 -41 4 -59 1 -72 -10 -10 -9 -24 -13 -32 -10 -20 8 -8 48 16 54 10 3 18 9 18 14 0 12 -24 11 -36 -1 -7 -7 -16 -5 -29 4 l-19 14 31 31 c44 43 50 68 24 95 -12 12 -21 29 -21 37 -1 18 -35 59 -49 59 -7 0 -14 -8 -18 -17z m-158 -83 c25 -28 13 -50 -28 -50 -45 0 -50 7 -25 41 26 34 29 35 53 9z m-405 -70 c0 -26 -15 -33 -30 -15 -10 12 -10 18 0 30 15 18 30 11 30 -15z m-167 -111 c-7 -7 -19 -9 -28 -5 -13 5 -14 10 -4 27 10 20 12 20 27 5 12 -12 13 -19 5 -27z m705 -28 c2 -22 13 -41 28 -54 28 -22 29 -62 2 -62 -17 0 -138 94 -138 107 0 11 73 48 90 45 9 -1 16 -15 18 -36z m719 -297 c2 -6 -8 -19 -22 -28 -22 -15 -26 -15 -31 -1 -10 25 4 47 28 43 12 -2 23 -8 25 -14z m-4074 -79 c42 -18 45 -29 18 -64 l-18 -24 -42 33 c-25 21 -41 42 -41 55 0 28 8 36 29 25 9 -4 33 -16 54 -25z m4280 -118 c-4 -51 -43 -75 -43 -26 0 10 -6 19 -14 19 -17 0 -30 16 -23 28 3 4 22 7 44 7 36 0 38 -2 36 -28z m-2128 -137 c11 -17 -5 -32 -21 -19 -7 6 -11 15 -8 20 7 12 21 11 29 -1z m2059 -51 c-3 -5 -10 -7 -15 -3 -5 3 -7 10 -3 15 3 5 10 7 15 3 5 -3 7 -10 3 -15z m-2679 -499 c0 -31 -3 -35 -29 -38 -40 -5 -49 9 -30 47 12 24 22 31 38 29 17 -2 21 -10 21 -38z m-232 -100 c34 0 42 -15 18 -32 -11 -8 -21 -28 -23 -48 -3 -33 -5 -35 -38 -35 -30 0 -35 3 -38 26 -2 17 -11 29 -23 32 -22 6 -26 49 -6 65 20 17 51 19 68 5 8 -7 27 -13 42 -13z m161 -91 c-3 -5 -10 -7 -15 -3 -5 3 -7 10 -3 15 3 5 10 7 15 3 5 -3 7 -10 3 -15z m1569 -96 c11 -11 -14 -33 -38 -33 -29 0 -38 10 -24 27 12 14 51 18 62 6z m-829 -22 c3 -5 -1 -14 -9 -21 -12 -10 -18 -10 -30 0 -18 15 -11 30 15 30 10 0 21 -4 24 -9z m2033 -28 c2 -6 -13 -19 -34 -29 -21 -10 -45 -23 -54 -31 -14 -12 -18 -10 -32 10 -17 27 -7 47 24 47 10 0 21 5 24 11 9 13 67 7 72 -8z m-188 -59 c-12 -13 -26 -21 -31 -18 -5 4 0 17 13 30 12 13 26 21 31 18 5 -4 0 -17 -13 -30z m-87 -9 c3 -3 2 -20 -1 -38 -5 -25 -12 -32 -31 -32 -16 0 -26 7 -28 18 -6 31 41 71 60 52z m277 -88 c14 -18 4 -27 -29 -27 -15 0 -30 3 -33 7 -10 10 13 33 33 33 10 0 23 -6 29 -13z m-874 -6 c7 -12 -12 -24 -25 -16 -11 7 -4 25 10 25 5 0 11 -4 15 -9z m-2961 -113 c-3 -5 -12 -4 -20 3 -7 6 -11 15 -8 21 3 5 12 4 20 -3 7 -6 11 -15 8 -21z m2060 13 c8 -12 -31 -44 -44 -36 -8 5 -6 13 6 26 19 21 30 24 38 10z"/>
<path d="M17530 4058 c-24 -13 -46 -28 -48 -35 -6 -19 38 -26 57 -9 10 9 20 16 24 16 3 0 18 5 34 11 l28 10 -19 15 c-25 18 -24 18 -76 -8z"/>
<path d="M17445 3990 c4 -6 11 -8 16 -5 14 9 11 15 -7 15 -8 0 -12 -5 -9 -10z"/>
<path d="M15980 3932 c0 -16 9 -37 20 -47 11 -10 20 -24 20 -32 0 -10 18 -13 70 -13 l70 0 0 28 c0 30 -16 52 -37 52 -8 0 -33 9 -55 20 -61 29 -88 27 -88 -8z"/>
<path d="M12970 2866 c0 -11 9 -16 26 -16 31 0 28 23 -4 28 -15 2 -22 -2 -22 -12z"/>
<path d="M18286 2129 c-14 -11 -24 -25 -21 -29 6 -10 56 8 67 25 23 31 -8 34 -46 4z"/>
<path d="M13582 2068 c-21 -21 -13 -46 24 -67 38 -23 118 -29 130 -10 9 16 -57 68 -88 69 -15 0 -30 5 -33 10 -8 13 -18 13 -33 -2z"/>
<path d="M16492 1878 c3 -7 15 -15 28 -16 21 -3 22 -2 11 12 -16 19 -44 21 -39 4z"/>
<path d="M17748 1770 c-43 -13 -51 -20 -37 -36 16 -20 52 -17 82 6 14 11 30 20 35 20 6 0 14 5 17 10 7 12 -57 12 -97 0z"/>
</g>
</g>
  <g id="id1:id1" transform="matrix(1.25,0,0,1.25,0.0,0.0)"><g transform="translate(0.000000,644.000000) scale(0.040000,-0.040000)" fill="#000000" stroke="none">
<path d="M3105 13659 c-83 -3 -157 -9 -164 -13 -7 -5 -45 -12 -84 -17 -72 -9 -122 -18 -207 -40 -25 -6 -74 -17 -110 -24 -126 -26 -199 -43 -210 -50 -7 -4 -37 -11 -68 -15 -32 -4 -79 -13 -107 -20 -27 -6 -77 -19 -110 -27 -79 -19 -161 -42 -210 -59 -23 -8 -49 -14 -59 -14 -10 0 -32 -6 -49 -14 -18 -8 -59 -22 -92 -31 -33 -10 -78 -26 -100 -35 -65 -29 -201 -80 -213 -80 -13 0 -222 -107 -275 -141 -241 -154 -453 -375 -573 -599 -10 -19 -24 -42 -30 -50 -6 -8 -21 -40 -33 -70 -12 -30 -28 -68 -36 -85 -25 -55 -42 -100 -60 -160 -10 -33 -23 -76 -30 -95 -32 -92 -45 -137 -45 -162 0 -15 -7 -45 -15 -65 -17 -46 -32 -120 -45 -228 -6 -44 -15 -91 -20 -105 -29 -76 -56 -1065 -40 -1490 6 -162 15 -401 20 -530 5 -129 13 -256 19 -282 6 -26 15 -111 21 -190 21 -292 43 -511 72 -693 6 -38 14 -99 18 -135 4 -36 12 -92 18 -125 13 -71 30 -190 43 -298 5 -43 13 -96 19 -119 6 -22 11 -101 12 -177 0 -134 -7 -169 -43 -231 -5 -8 -12 -22 -16 -30 -3 -8 -32 -53 -63 -100 -59 -90 -106 -180 -140 -268 -28 -74 -28 -197 2 -277 12 -36 21 -86 22 -125 3 -193 -16 -1235 -25 -1355 -6 -77 -14 -216 -19 -310 -5 -93 -14 -263 -20 -376 -14 -281 4 -544 45 -644 17 -41 55 -124 106 -230 38 -80 59 -148 59 -190 0 -46 -27 -113 -60 -150 -58 -65 -70 -96 -70 -186 1 -46 5 -104 11 -129 5 -25 14 -79 20 -120 15 -107 30 -186 38 -199 23 -37 312 -64 441 -42 251 43 408 83 417 107 5 13 -30 124 -47 149 -4 6 -17 42 -30 80 -12 39 -29 79 -36 90 -8 11 -14 27 -14 37 0 17 -18 66 -46 121 -8 16 -14 34 -14 40 0 6 -12 40 -26 76 -15 36 -31 80 -35 96 -4 17 -18 57 -30 90 -12 33 -28 85 -35 115 -7 30 -18 75 -24 100 -24 96 -32 138 -43 240 -13 121 -15 358 -4 510 20 270 38 492 48 570 16 126 35 309 49 450 6 69 18 163 26 209 8 46 14 98 14 115 1 48 34 133 68 174 l30 37 19 -20 c11 -11 25 -38 32 -60 7 -22 21 -58 31 -80 10 -22 32 -76 50 -120 17 -44 38 -93 47 -110 19 -38 79 -148 109 -200 13 -22 30 -53 38 -70 97 -196 322 -473 532 -656 99 -86 129 -103 139 -76 7 17 -12 260 -25 327 -22 109 -42 196 -55 240 -38 120 -79 239 -95 275 -48 106 -140 332 -140 343 0 8 -6 28 -14 45 -17 40 -43 146 -52 212 -4 28 -10 57 -15 66 -4 9 -13 56 -18 105 -14 124 -39 291 -51 339 -5 22 -10 67 -10 100 0 33 -7 89 -15 125 -27 123 -27 124 78 221 50 48 95 85 100 82 11 -6 9 -88 -4 -119 -9 -27 -29 -244 -31 -364 -3 -96 31 -196 105 -315 49 -78 64 -107 83 -160 40 -107 55 -161 73 -250 12 -59 31 -134 46 -185 7 -25 16 -61 20 -80 11 -59 35 -162 50 -215 7 -27 21 -86 31 -130 9 -44 23 -97 30 -118 8 -20 14 -51 14 -68 0 -16 7 -46 15 -66 8 -19 15 -45 15 -57 0 -11 6 -41 14 -66 8 -25 19 -65 26 -90 31 -123 42 -169 51 -215 6 -27 14 -54 19 -60 5 -5 11 -28 15 -50 10 -55 46 -194 81 -306 8 -26 14 -52 14 -59 0 -6 20 -53 45 -103 51 -106 123 -188 224 -255 35 -23 67 -42 71 -42 4 0 36 -27 71 -59 97 -90 121 -149 149 -373 5 -37 13 -76 19 -87 6 -11 11 -27 11 -36 0 -9 6 -31 14 -48 8 -18 24 -66 36 -107 11 -41 26 -84 32 -94 6 -11 14 -58 17 -104 5 -64 11 -87 25 -97 14 -11 79 -13 314 -9 370 5 392 7 441 48 50 40 64 68 50 103 -20 54 -230 472 -261 519 -85 132 -119 178 -213 289 -56 66 -110 127 -119 134 -29 25 -130 172 -172 252 -57 107 -76 161 -127 349 -32 120 -66 257 -76 310 -5 25 -14 56 -19 70 -6 14 -18 59 -27 100 -9 41 -24 104 -35 140 -10 36 -28 103 -39 150 -29 119 -41 167 -56 225 -30 113 -37 142 -45 187 -5 26 -13 55 -18 65 -5 10 -16 66 -23 125 -10 88 -10 127 1 220 7 62 17 124 22 137 5 13 13 60 18 105 8 76 14 115 41 254 6 31 14 80 18 107 4 28 12 66 18 85 7 19 17 58 23 85 18 83 30 125 40 143 5 9 20 53 34 97 25 79 73 216 93 265 6 14 18 52 28 85 9 33 23 78 31 100 8 23 14 50 14 60 0 11 6 32 13 46 8 14 17 45 21 70 3 24 11 64 16 89 26 122 41 228 50 360 23 308 42 443 76 566 8 28 14 61 14 73 0 12 5 32 12 44 6 12 15 35 19 52 12 45 67 205 85 245 46 102 153 312 183 360 68 109 237 257 315 275 20 5 82 -23 266 -122 41 -22 116 -62 165 -88 107 -57 256 -138 305 -166 39 -22 171 -86 270 -132 36 -17 72 -34 80 -39 8 -4 25 -13 38 -18 13 -5 46 -21 75 -34 29 -13 77 -34 107 -46 30 -12 69 -29 87 -36 17 -8 36 -14 41 -14 6 0 23 -6 39 -14 15 -8 48 -22 73 -31 25 -10 56 -22 70 -28 51 -21 125 -46 140 -47 8 0 27 -6 41 -14 14 -7 59 -23 100 -35 41 -12 90 -28 109 -35 19 -7 62 -21 95 -30 33 -9 81 -24 106 -32 26 -7 55 -14 65 -14 11 0 39 -7 64 -15 102 -33 199 -55 488 -109 45 -8 87 -18 92 -21 5 -3 51 -10 102 -15 108 -11 228 -27 313 -42 33 -5 137 -14 230 -19 94 -5 199 -13 235 -19 36 -5 97 -10 135 -10 66 0 226 -18 375 -41 152 -24 260 -40 335 -49 44 -6 94 -15 110 -20 17 -5 68 -15 115 -21 151 -19 159 -21 170 -35 8 -9 9 -23 2 -46 -17 -54 -34 -130 -42 -178 -4 -25 -12 -56 -17 -70 -6 -14 -21 -70 -33 -125 -13 -55 -26 -104 -31 -110 -7 -10 -14 -42 -37 -165 -18 -94 -34 -239 -42 -370 -9 -140 -23 -300 -45 -500 -9 -74 -15 -166 -15 -205 0 -38 -7 -110 -15 -160 -8 -49 -15 -115 -15 -145 0 -30 -7 -98 -15 -150 -8 -52 -15 -126 -15 -164 0 -39 -7 -97 -15 -130 -14 -60 -26 -138 -46 -306 -5 -47 -14 -96 -20 -110 -5 -14 -14 -48 -19 -75 -19 -103 -33 -161 -46 -198 -8 -20 -14 -50 -14 -65 0 -27 -21 -99 -46 -160 -8 -18 -14 -40 -14 -49 0 -16 -62 -184 -80 -215 -5 -10 -19 -46 -31 -80 -11 -35 -28 -79 -36 -98 -12 -25 -16 -67 -16 -155 l0 -120 33 -70 c18 -38 45 -97 60 -130 16 -33 32 -73 35 -90 4 -16 13 -47 21 -68 18 -49 18 -150 -1 -207 -8 -25 -21 -79 -29 -120 -18 -90 -33 -162 -46 -210 -5 -19 -12 -103 -16 -187 l-7 -151 34 -21 c19 -12 43 -21 54 -21 11 0 34 -7 50 -16 30 -16 86 -27 230 -44 76 -9 283 -1 440 18 57 7 60 8 63 36 4 30 -18 115 -44 173 -8 17 -14 38 -14 47 0 8 -6 30 -14 48 -17 41 -36 88 -76 198 -17 47 -38 99 -46 115 -15 32 -37 114 -49 180 -3 22 -13 59 -21 83 -20 62 -20 467 1 560 8 37 19 103 25 147 20 171 31 235 45 276 8 23 15 51 15 63 0 23 25 139 43 196 6 19 14 51 18 70 4 19 19 67 33 105 14 39 26 78 26 88 0 11 6 31 14 45 8 15 22 50 31 77 10 28 31 78 46 113 38 81 86 186 112 242 65 141 77 170 95 225 11 33 25 78 30 100 6 22 21 74 32 115 12 41 29 100 37 130 32 112 46 156 58 180 7 14 22 52 33 85 11 33 27 74 36 90 9 17 16 34 16 39 0 5 13 36 29 70 16 33 36 77 44 96 16 37 63 139 128 278 22 46 39 89 39 95 0 7 16 30 35 52 l35 40 15 -19 c8 -11 17 -36 20 -55 3 -20 12 -67 20 -106 19 -92 33 -164 50 -250 7 -38 20 -104 29 -145 17 -83 30 -147 52 -260 9 -41 20 -95 26 -120 6 -25 14 -70 18 -100 5 -30 13 -75 18 -100 6 -25 17 -79 26 -120 8 -41 21 -109 30 -150 8 -41 22 -109 30 -150 8 -41 20 -100 26 -130 11 -52 15 -75 41 -225 6 -32 15 -109 20 -170 5 -60 13 -132 19 -160 5 -27 9 -93 9 -145 1 -52 8 -149 16 -215 8 -65 15 -160 15 -210 0 -49 5 -128 10 -175 6 -47 15 -150 20 -230 15 -236 46 -302 239 -498 117 -118 132 -138 147 -188 13 -46 14 -63 4 -107 -7 -29 -20 -65 -29 -82 -13 -24 -15 -56 -14 -154 3 -162 27 -215 118 -264 45 -24 121 -47 158 -47 18 0 57 -7 87 -15 31 -8 98 -15 155 -15 57 0 124 7 155 15 30 8 74 15 97 15 24 0 60 6 80 13 85 31 109 39 141 48 24 8 32 16 32 33 0 24 -145 321 -161 332 -5 3 -9 12 -9 21 0 8 -14 35 -30 60 -16 24 -30 46 -30 50 0 3 -14 25 -30 50 -16 24 -30 46 -30 49 0 2 -62 86 -138 187 -76 100 -159 216 -183 257 -54 90 -116 232 -123 280 -2 19 -9 55 -15 80 -15 69 -31 200 -41 350 -5 74 -13 155 -19 180 -14 59 -14 362 -1 431 6 30 15 137 21 239 5 102 14 226 19 275 5 50 9 160 9 245 1 85 8 223 16 305 8 83 15 200 15 260 1 61 5 130 11 155 8 41 20 144 48 437 6 57 14 111 20 121 5 10 14 49 20 87 11 66 26 147 51 275 6 30 18 89 27 130 8 41 21 98 29 126 8 28 14 64 14 80 0 16 6 49 15 74 8 25 21 81 30 125 9 44 20 98 26 120 6 22 15 62 21 88 l11 49 72 35 c89 43 195 137 258 230 25 37 95 165 155 283 l109 215 39 -2 c152 -9 351 -122 540 -308 108 -106 340 -363 387 -428 23 -31 84 -113 135 -182 51 -69 143 -209 204 -313 105 -176 136 -233 210 -392 17 -36 43 -92 58 -125 16 -33 36 -78 45 -100 9 -22 21 -49 27 -60 7 -11 15 -38 19 -60 4 -22 11 -53 17 -70 39 -113 47 -155 47 -245 l0 -95 -35 -55 c-19 -30 -58 -86 -86 -125 -115 -156 -188 -358 -189 -525 0 -99 36 -271 74 -348 4 -9 19 -39 32 -67 13 -27 49 -88 79 -135 30 -47 57 -89 60 -95 3 -5 28 -44 56 -85 54 -80 164 -274 164 -290 0 -5 7 -26 16 -47 59 -135 144 -341 144 -348 0 -3 11 -30 24 -58 14 -29 34 -77 46 -107 11 -30 27 -68 34 -85 15 -33 30 -75 53 -150 20 -66 29 -226 13 -254 -20 -38 -50 -173 -50 -224 0 -38 6 -58 26 -84 14 -18 28 -31 32 -29 4 2 32 -11 62 -30 30 -19 75 -43 100 -55 46 -21 165 -81 223 -111 18 -9 75 -22 127 -29 108 -13 118 -13 182 -3 33 4 53 3 63 -6 11 -9 22 -10 42 -2 16 5 54 15 85 22 31 6 68 20 82 31 14 11 31 16 41 13 9 -4 15 -2 13 4 -2 6 34 47 80 91 45 44 82 86 82 92 0 14 73 141 100 174 9 11 22 38 29 60 8 22 22 58 32 79 11 22 19 47 19 55 0 9 7 25 15 35 8 11 15 30 15 42 0 13 7 27 15 32 15 8 24 42 44 167 29 174 35 299 42 845 5 439 11 606 22 670 23 134 52 225 112 353 23 50 29 57 41 45 8 -7 18 -53 23 -103 6 -50 15 -106 21 -125 5 -19 10 -57 10 -85 0 -27 5 -68 10 -90 6 -22 14 -75 19 -118 11 -96 23 -113 54 -75 41 51 60 176 54 350 -3 84 -11 200 -17 257 -9 78 -9 106 0 115 9 8 16 5 31 -14 67 -84 91 -110 100 -105 28 18 0 233 -59 450 -17 61 -40 135 -52 165 -12 30 -24 64 -27 75 -4 11 -12 29 -20 40 -7 11 -13 25 -13 33 0 7 -30 74 -66 149 l-67 135 50 97 c87 169 201 387 232 445 42 77 41 89 -6 83 -21 -2 -62 -14 -91 -25 l-52 -20 -15 21 c-8 12 -15 36 -15 54 0 17 -5 44 -10 58 -9 23 -14 26 -37 20 -15 -3 -39 -16 -54 -28 -15 -12 -43 -32 -61 -45 -18 -13 -56 -40 -85 -60 -108 -77 -168 -117 -177 -117 -10 0 -33 78 -42 140 -13 89 -108 381 -150 457 -7 14 -14 33 -14 41 0 8 -13 42 -29 74 -16 32 -47 96 -70 143 -23 47 -55 108 -71 135 -16 28 -41 70 -55 95 -15 25 -37 63 -50 85 -14 22 -29 49 -35 60 -6 11 -19 34 -30 50 -11 17 -24 39 -30 50 -20 38 -35 61 -212 325 -259 386 -407 604 -468 693 -30 43 -62 88 -70 101 -13 21 -43 64 -141 206 -97 141 -350 464 -510 651 -192 224 -502 548 -655 683 -44 39 -154 136 -244 216 -247 220 -265 234 -649 545 -68 55 -194 153 -280 217 -256 192 -463 345 -511 378 -620 419 -650 438 -750 472 -25 8 -61 21 -80 28 -57 22 -398 25 -520 6 -56 -9 -117 -16 -136 -16 -20 0 -66 -6 -103 -14 -82 -18 -247 -49 -401 -75 -36 -6 -94 -18 -130 -26 -36 -8 -110 -22 -165 -30 -55 -9 -123 -23 -151 -31 -28 -8 -65 -14 -83 -14 -17 0 -60 -6 -94 -14 -92 -21 -184 -37 -257 -45 -36 -4 -87 -13 -115 -19 -53 -12 -149 -26 -330 -47 -60 -8 -139 -18 -175 -23 -175 -27 -882 -21 -965 8 -17 5 -66 14 -110 20 -75 10 -170 25 -325 50 -75 13 -195 37 -260 52 -25 5 -70 13 -100 18 -30 4 -75 12 -100 18 -25 6 -79 18 -120 26 -41 8 -97 20 -125 26 -142 32 -174 39 -225 49 -30 6 -82 17 -115 25 -33 8 -96 22 -140 31 -44 9 -103 23 -131 31 -28 8 -61 14 -74 14 -13 0 -46 6 -74 14 -88 24 -190 46 -215 46 -13 0 -47 7 -75 15 -74 21 -188 45 -211 45 -12 0 -47 7 -78 15 -32 8 -93 19 -135 25 -42 5 -120 16 -172 24 -52 8 -126 19 -165 25 -85 13 -396 18 -600 10z m-2536 -4436 c7 -32 18 -80 26 -108 8 -27 21 -86 30 -130 10 -44 26 -109 36 -144 10 -35 19 -72 19 -82 0 -23 26 -132 47 -193 20 -62 25 -288 6 -307 -18 -18 -33 -1 -44 48 -8 38 -17 78 -39 163 -6 25 -14 59 -16 75 -3 17 -11 59 -19 95 -39 182 -92 620 -78 643 9 16 20 -4 32 -60z"/>
<path d="M16528 4265 c-9 -19 -9 -28 0 -37 7 -7 12 -20 12 -31 0 -10 5 -15 10 -12 13 8 13 105 0 105 -6 0 -16 -11 -22 -25z"/>
<path d="M16940 4255 c0 -8 7 -15 15 -15 9 0 12 6 9 15 -4 8 -10 15 -15 15 -5 0 -9 -7 -9 -15z"/>
<path d="M16085 4250 c3 -5 14 -10 23 -10 15 0 15 2 2 10 -20 13 -33 13 -25 0z"/>
<path d="M16251 4223 c-6 -14 -10 -26 -9 -27 61 -33 85 -32 55 2 -10 10 -17 24 -17 30 0 23 -18 20 -29 -5z"/>
<path d="M17000 4180 c0 -5 5 -10 11 -10 5 0 7 5 4 10 -3 6 -8 10 -11 10 -2 0 -4 -4 -4 -10z"/>
<path d="M16520 4150 c0 -5 5 -10 10 -10 6 0 10 5 10 10 0 6 -4 10 -10 10 -5 0 -10 -4 -10 -10z"/>
<path d="M16074 4075 c-4 -8 -4 -21 -1 -28 6 -16 81 -42 95 -33 16 10 3 36 -18 36 -9 0 -25 9 -35 20 -22 24 -34 25 -41 5z"/>
<path d="M16356 4054 c-3 -8 -6 -31 -6 -50 0 -32 2 -35 21 -29 12 4 32 19 45 34 l22 26 -24 7 c-14 4 -31 12 -38 18 -10 8 -15 6 -20 -6z"/>
<path d="M16510 4049 c0 -5 5 -7 10 -4 6 3 10 8 10 11 0 2 -4 4 -10 4 -5 0 -10 -5 -10 -11z"/>
<path d="M15810 3970 c-8 -5 -11 -12 -7 -16 4 -4 13 -2 19 4 15 15 7 24 -12 12z"/>
<path d="M13927 3620 c-10 -37 -8 -110 3 -110 14 0 23 68 13 103 l-9 32 -7 -25z"/>
<path d="M18275 3590 c-4 -6 17 -10 55 -10 38 0 59 4 55 10 -3 6 -28 10 -55 10 -27 0 -52 -4 -55 -10z"/>
<path d="M17164 3325 c-11 -26 4 -45 35 -45 16 0 33 5 36 10 4 6 17 3 35 -10 15 -11 35 -20 42 -20 21 0 48 33 48 58 0 19 -6 22 -43 22 -24 0 -48 -5 -55 -12 -9 -9 -15 -9 -24 0 -17 17 -67 15 -74 -3z"/>
<path d="M13354 3145 c-17 -26 -12 -45 12 -45 16 0 38 46 28 61 -9 15 -23 10 -40 -16z"/>
<path d="M15244 3007 c-3 -9 -4 -26 -2 -39 3 -20 9 -23 51 -26 44 -3 47 -2 47 21 0 30 -17 45 -58 53 -24 5 -33 2 -38 -9z"/>
<path d="M15402 2953 c5 -49 57 -40 58 10 0 12 -8 17 -31 17 -27 0 -30 -3 -27 -27z"/>
<path d="M15160 2937 c0 -13 -9 -32 -20 -42 -11 -10 -20 -31 -20 -47 0 -23 4 -28 23 -28 26 0 57 28 57 51 0 8 5 20 11 26 6 6 9 21 7 34 -2 18 -10 25 -30 27 -24 3 -28 0 -28 -21z"/>
<path d="M18490 2950 c0 -17 43 -70 56 -70 12 0 24 22 24 44 0 14 -41 36 -65 36 -8 0 -15 -5 -15 -10z"/>
<path d="M15660 2896 c0 -30 22 -49 52 -44 18 2 24 10 26 36 l3 32 -40 0 c-36 0 -41 -3 -41 -24z"/>
<path d="M15293 2893 c-21 -8 -16 -53 5 -53 23 0 42 19 42 42 0 18 -20 22 -47 11z"/>
<path d="M18330 2885 c-15 -18 -13 -22 15 -27 14 -2 21 3 23 20 4 26 -19 30 -38 7z"/>
<path d="M15435 2840 c-10 -11 -23 -20 -30 -20 -17 0 -45 -34 -45 -55 0 -10 7 -26 16 -36 14 -16 13 -18 -15 -32 -30 -15 -49 -8 -36 13 3 5 1 19 -5 30 -9 16 -19 20 -43 18 -28 -3 -32 -7 -35 -36 -2 -24 -10 -36 -26 -42 -30 -11 -42 -56 -21 -79 20 -23 7 -36 -16 -15 -22 20 -51 14 -100 -19 -32 -21 -34 -27 -37 -84 -3 -54 -1 -61 18 -66 17 -4 20 -13 20 -61 0 -67 15 -79 93 -74 l52 3 -3 58 c-3 49 1 67 28 118 17 33 35 79 38 102 9 49 25 55 30 12 6 -47 -18 -137 -44 -168 -25 -29 -32 -71 -14 -82 11 -7 50 12 114 56 37 24 46 36 46 59 0 20 -7 33 -21 41 l-22 11 29 24 c16 13 37 23 47 24 10 0 21 10 26 23 5 13 16 29 25 36 13 11 17 10 26 -13 11 -29 20 -32 38 -14 20 20 14 46 -10 50 -20 3 -22 8 -20 45 3 38 1 44 -22 52 -37 15 -51 46 -31 73 8 13 15 33 15 45 0 30 -39 31 -65 3z"/>
<path d="M18447 2843 c-10 -10 31 -35 45 -27 7 5 5 11 -7 21 -21 15 -29 16 -38 6z"/>
<path d="M14807 2834 c-4 -4 -7 -18 -7 -31 0 -21 4 -24 28 -21 21 2 27 8 27 28 0 18 -6 26 -20 28 -12 2 -24 0 -28 -4z"/>
<path d="M15656 2738 c-21 -30 -20 -48 2 -48 27 0 62 29 62 51 0 27 -44 25 -64 -3z"/>
<path d="M14694 2654 c-4 -14 -2 -40 3 -57 8 -30 12 -32 53 -32 l45 0 3 43 c3 34 0 43 -15 48 -10 3 -26 10 -35 15 -30 15 -47 10 -54 -17z"/>
<path d="M17042 2671 c-20 -12 -11 -66 10 -66 10 0 25 -10 33 -23 9 -12 27 -22 40 -22 13 0 27 -4 30 -10 11 -17 45 -11 45 8 0 10 5 23 11 29 21 21 -8 53 -46 53 -24 0 -37 6 -45 20 -11 21 -54 27 -78 11z"/>
<path d="M17331 2646 c2 -23 -5 -46 -24 -75 -15 -22 -27 -47 -27 -55 0 -8 -4 -18 -10 -21 -30 -19 13 -95 53 -95 39 0 78 165 47 196 -8 8 -6 15 5 24 8 7 15 23 15 36 0 20 -5 24 -31 24 -29 0 -30 -2 -28 -34z"/>
<path d="M17690 2660 c0 -15 7 -20 25 -20 18 0 25 5 25 20 0 15 -7 20 -25 20 -18 0 -25 -5 -25 -20z"/>
<path d="M15013 2648 c-12 -6 -24 -17 -27 -24 -6 -16 19 -44 39 -44 22 0 46 31 43 54 -3 24 -24 29 -55 14z"/>
<path d="M13756 2615 c-15 -23 -15 -26 0 -32 16 -6 34 11 34 34 0 23 -18 22 -34 -2z"/>
<path d="M15907 2593 c-10 -10 -8 -61 3 -68 14 -8 50 17 50 35 0 29 -36 51 -53 33z"/>
<path d="M17417 2573 c-4 -3 -7 -26 -7 -50 0 -36 3 -43 20 -43 11 0 27 11 36 25 14 22 15 30 4 50 -13 24 -39 33 -53 18z"/>
<path d="M16744 2545 c-12 -29 4 -46 38 -43 28 2 34 8 36 31 3 25 1 27 -33 27 -22 0 -38 -6 -41 -15z"/>
<path d="M17738 2509 c-36 -62 -12 -87 55 -56 22 10 27 19 27 50 l0 37 -32 0 c-26 0 -37 -6 -50 -31z"/>
<path d="M13464 2505 c-9 -23 3 -45 25 -45 18 0 35 35 25 52 -9 14 -44 9 -50 -7z"/>
<path d="M16932 2478 c-7 -7 -12 -24 -12 -38 0 -15 -3 -29 -6 -32 -7 -8 -46 12 -68 35 -30 29 -106 16 -106 -19 0 -8 -10 -18 -23 -23 -13 -5 -29 -16 -36 -25 -7 -9 -26 -16 -41 -16 -32 0 -60 -35 -60 -75 0 -22 4 -25 33 -25 20 0 39 -8 50 -20 19 -23 34 -25 73 -10 24 9 26 14 21 45 -5 28 -2 37 13 45 27 14 28 14 44 -24 8 -19 24 -39 35 -46 12 -6 21 -19 21 -29 0 -17 18 -31 41 -31 5 0 9 16 9 35 0 19 6 37 14 42 8 4 28 27 45 51 18 24 39 42 50 42 38 0 36 56 -2 62 -13 2 -23 12 -25 23 -7 37 -47 56 -70 33z m-79 -81 c-4 -7 -8 -15 -8 -19 0 -5 -4 -8 -10 -8 -13 0 -14 21 -2 37 12 16 30 6 20 -10z"/>
<path d="M18653 2435 c26 -40 37 -44 37 -12 0 27 -17 47 -42 47 -15 0 -15 -3 5 -35z"/>
<path d="M15624 2445 c-8 -21 2 -45 19 -45 20 0 40 27 33 45 -7 19 -45 20 -52 0z"/>
<path d="M18470 2431 c0 -22 54 -35 70 -16 14 17 -8 35 -42 35 -21 0 -28 -5 -28 -19z"/>
<path d="M13780 2389 c0 -27 3 -30 28 -27 21 2 28 9 30 31 3 24 0 27 -27 27 -28 0 -31 -3 -31 -31z"/>
<path d="M14964 2406 c-11 -29 1 -61 24 -64 28 -4 39 20 24 54 -13 26 -40 32 -48 10z"/>
<path d="M14560 2384 c-40 -17 -93 -71 -85 -85 13 -20 62 -9 90 21 22 23 37 30 60 28 26 -3 30 0 30 22 0 21 -5 25 -30 27 -16 2 -46 -4 -65 -13z"/>
<path d="M17763 2390 c-23 -9 -28 -25 -17 -54 7 -19 33 -20 69 -4 20 9 25 18 23 37 -3 29 -35 38 -75 21z"/>
<path d="M15467 2357 c-40 -32 -35 -71 10 -75 25 -3 35 2 48 22 38 58 -5 97 -58 53z"/>
<path d="M15976 2352 c-3 -3 -6 -13 -6 -23 0 -23 -40 -47 -86 -51 l-39 -3 0 -75 0 -75 53 -3 c43 -3 53 0 58 15 3 10 10 26 15 35 5 10 9 38 9 62 0 54 13 66 35 32 9 -13 28 -27 43 -31 15 -3 34 -8 43 -11 24 -7 79 48 79 79 0 41 -33 56 -122 55 -42 0 -79 -3 -82 -6z"/>
<path d="M14793 2333 c-19 -3 -38 -13 -47 -29 -15 -22 -23 -24 -87 -24 -55 0 -71 -3 -76 -16 -11 -30 25 -46 87 -39 30 4 77 6 104 5 26 0 54 5 62 11 11 9 19 8 34 -6 23 -21 40 -12 40 20 0 17 -6 25 -22 27 -14 2 -24 12 -28 28 -6 26 -16 29 -67 23z"/>
<path d="M15635 2328 c-11 -6 -27 -14 -35 -18 -8 -4 -21 -20 -28 -36 -7 -16 -17 -36 -23 -44 -5 -8 -13 -25 -19 -38 -5 -12 -21 -27 -35 -32 -51 -19 -46 -84 7 -95 18 -4 38 -12 45 -17 6 -5 24 -8 40 -6 27 3 28 6 29 56 1 39 6 58 22 75 12 13 22 35 22 49 0 14 9 33 20 43 45 40 7 92 -45 63z"/>
<path d="M18656 2323 c-7 -7 13 -33 25 -33 5 0 9 6 9 14 0 15 -24 28 -34 19z"/>
<path d="M17187 2314 c-4 -4 -7 -29 -7 -54 0 -51 16 -75 44 -64 14 5 16 18 14 63 -3 48 -6 56 -23 59 -12 2 -24 0 -28 -4z"/>
<path d="M17482 2291 c-20 -12 -10 -46 13 -46 14 0 20 7 20 24 0 27 -13 35 -33 22z"/>
<path d="M14980 2216 c0 -27 34 -46 52 -28 18 18 4 47 -25 50 -23 3 -27 0 -27 -22z"/>
<path d="M14705 2160 c-56 -5 -60 -7 -63 -31 -4 -34 6 -37 127 -45 l97 -7 28 33 c20 24 24 36 16 44 -12 12 -105 14 -205 6z"/>
<path d="M17630 2090 c-12 -8 -10 -10 8 -10 13 0 20 4 17 10 -7 12 -6 12 -25 0z"/>
<path d="M15104 1866 c-6 -17 2 -36 17 -36 12 0 12 37 -1 45 -6 3 -13 -1 -16 -9z"/>
</g>
</g>
  <g id="id2:id2" transform="matrix(1.25,0,0,1.25,0.0,0.0)"><g transform="translate(0.000000,644.000000) scale(0.040000,-0.040000)" fill="#fcfcfc" stroke="none">
<path d="M16690 4431 c0 -27 26 -51 55 -51 37 0 38 16 4 44 -36 31 -59 33 -59 7z"/>
<path d="M17580 4329 c0 -11 60 -69 72 -69 16 0 7 17 -23 48 -32 33 -49 40 -49 21z"/>
<path d="M16880 4308 c0 -6 11 -26 25 -44 26 -34 32 -59 15 -69 -18 -11 -11 -25 13 -25 45 0 59 -21 58 -86 -1 -137 -15 -159 -96 -148 l-40 5 23 -17 c21 -16 22 -18 6 -35 -10 -11 -23 -19 -31 -19 -19 0 -17 -56 3 -64 9 -3 33 -6 55 -6 44 0 57 16 40 48 -6 11 -8 22 -5 25 9 8 57 -14 74 -34 8 -10 29 -19 45 -21 27 -3 30 -6 30 -38 0 -32 2 -35 27 -32 20 2 39 -9 79 -48 29 -28 53 -59 54 -70 1 -11 4 -23 8 -26 10 -10 27 6 27 27 0 23 18 32 68 33 30 1 37 5 42 25 7 30 23 37 40 16 11 -13 10 -22 -4 -54 -27 -59 -19 -83 33 -98 24 -7 48 -16 55 -21 19 -15 95 -23 116 -12 25 13 26 56 4 82 -16 16 -15 18 1 24 10 4 32 2 49 -4 45 -17 59 -15 90 9 l26 20 10 -25 c7 -20 16 -26 40 -26 38 0 47 -20 24 -55 -12 -18 -20 -23 -27 -16 -17 17 -42 13 -62 -9 -27 -30 -13 -50 35 -50 44 0 61 -19 40 -45 -17 -20 -5 -45 20 -45 12 0 24 9 30 24 9 24 65 42 76 24 3 -4 -5 -28 -17 -52 -29 -59 -21 -93 25 -102 23 -4 44 -18 66 -45 l31 -39 -26 -12 c-30 -14 -42 -50 -26 -84 6 -14 11 -52 11 -85 0 -67 14 -81 55 -59 45 24 89 -20 47 -48 -15 -10 -22 -25 -22 -47 0 -50 9 -65 40 -65 35 0 122 -96 96 -106 -9 -3 -26 1 -39 10 -12 9 -33 24 -46 33 -22 16 -24 16 -37 -2 -21 -28 -18 -72 6 -85 11 -6 20 -21 20 -35 0 -15 7 -26 20 -30 31 -10 60 -59 60 -102 0 -21 9 -53 20 -71 26 -42 18 -55 -29 -47 -29 5 -41 2 -54 -13 -14 -16 -30 -19 -90 -17 -55 1 -78 -3 -99 -17 -20 -14 -37 -17 -65 -12 -31 5 -42 2 -57 -15 -12 -13 -31 -21 -53 -21 -18 0 -46 -8 -60 -17 -31 -21 -112 -32 -273 -39 -89 -4 -123 -9 -152 -25 l-37 -20 -11 21 c-13 25 -25 25 -57 0 -14 -11 -36 -20 -50 -20 -16 0 -27 -8 -33 -24 -13 -36 -22 -37 -79 -16 -55 22 -160 27 -178 9 -5 -5 -37 -9 -69 -7 -53 3 -60 6 -72 31 -15 32 -17 32 -107 7 -85 -24 -109 -25 -125 -5 -18 21 -63 19 -94 -6 -30 -23 -40 -19 -77 33 l-20 28 26 10 c22 8 26 15 23 42 -4 45 -35 44 -59 -2 -11 -19 -28 -38 -39 -42 -27 -10 -35 -34 -21 -62 7 -12 11 -42 9 -67 l-3 -44 -49 -3 c-30 -2 -61 3 -82 13 -44 20 -104 12 -104 -16 0 -10 -5 -21 -10 -24 -6 -4 -8 -11 -5 -16 4 -5 -1 -12 -11 -16 -11 -4 -22 2 -34 17 -15 20 -23 22 -68 17 -52 -6 -70 4 -85 46 -10 26 -36 20 -48 -10 -21 -55 -32 -60 -129 -59 -55 1 -95 7 -102 14 -28 28 -93 -2 -81 -36 9 -24 24 -32 59 -32 17 0 37 -7 44 -15 17 -21 44 -19 65 5 22 24 38 25 55 5 14 -17 56 -20 65 -5 4 6 14 5 28 -4 16 -10 69 -15 189 -18 101 -3 172 -9 180 -16 22 -18 92 -18 118 1 14 9 34 17 45 17 11 0 31 6 45 13 22 12 32 10 85 -16 33 -16 67 -35 75 -42 21 -18 129 -55 160 -55 17 0 40 15 70 45 l44 45 126 0 125 0 26 33 c14 17 28 40 32 49 3 10 19 20 34 23 15 4 46 13 68 21 23 8 50 14 61 14 11 0 24 4 29 9 6 5 49 13 98 17 71 5 91 4 105 -8 27 -24 84 -31 109 -13 20 14 221 20 578 17 88 -1 115 3 135 16 45 31 83 43 127 41 27 -2 49 3 60 13 10 8 38 18 62 21 33 4 53 15 82 43 29 28 48 38 72 39 25 0 33 5 35 23 2 12 -1 22 -6 22 -5 0 -32 18 -60 40 -27 22 -56 40 -64 40 -22 0 -51 37 -45 55 9 23 41 18 67 -10 13 -14 32 -25 43 -25 11 0 34 -9 51 -19 17 -10 46 -22 64 -26 31 -6 33 -6 21 13 -18 29 -5 48 42 64 24 8 52 26 63 41 l20 27 -22 30 c-12 16 -22 32 -22 36 0 3 -11 19 -25 36 -14 16 -25 36 -25 43 0 21 -41 45 -75 45 -43 0 -73 24 -85 70 -6 22 -15 40 -20 40 -20 0 -80 63 -80 85 0 33 -37 75 -66 75 -18 0 -24 -5 -24 -21 0 -43 -18 -59 -67 -59 -29 0 -53 6 -64 16 -15 13 -24 14 -48 6 -37 -13 -45 -4 -26 29 8 13 17 30 21 37 3 7 -2 22 -11 32 -16 18 -17 23 -5 45 7 14 11 27 9 29 -65 58 -105 86 -123 86 -18 0 -69 38 -55 41 2 0 15 2 28 3 31 4 61 41 61 77 0 15 5 31 10 34 14 8 13 52 -2 61 -8 5 -7 10 3 18 14 11 39 51 39 62 0 18 -47 -5 -58 -28 -27 -57 -104 -22 -118 52 -4 19 -16 43 -28 52 l-21 17 23 23 c12 14 22 29 22 35 0 13 -43 25 -63 17 -10 -3 -22 4 -32 20 -19 28 -47 33 -103 17 -29 -9 -34 -7 -54 20 -12 16 -29 29 -38 29 -23 0 -110 92 -110 117 0 25 -23 36 -39 20 -8 -8 -48 -11 -121 -9 l-109 3 -16 -31 c-20 -38 -58 -58 -79 -41 -7 6 -17 33 -21 58 -4 26 -13 56 -21 67 -12 17 -10 22 11 42 25 23 31 56 19 100 -4 16 -16 23 -46 27 -23 3 -51 16 -67 30 -42 40 -91 41 -91 2 0 -31 -17 -39 -53 -26 -25 10 -27 15 -27 63 0 45 -6 62 -40 111 -24 36 -54 66 -77 78 -44 22 -43 22 -43 7z m382 -410 c-16 -16 -37 4 -28 28 6 16 8 16 23 1 13 -13 15 -19 5 -29z m793 -537 c7 -12 -12 -24 -25 -16 -11 7 -4 25 10 25 5 0 11 -4 15 -9z m199 -539 c-20 -31 -44 -3 -29 35 5 15 7 15 23 0 13 -14 14 -21 6 -35z m-49 -593 c9 -14 -34 -59 -56 -59 -32 0 -33 22 -3 47 32 25 49 29 59 12z m-1749 -129 c32 0 41 -25 19 -50 -25 -27 -50 -25 -74 6 -17 21 -19 30 -9 41 6 8 18 11 25 8 8 -3 26 -5 39 -5z"/>
<path d="M16255 4268 c-7 -44 -29 -78 -50 -78 -6 0 -21 13 -33 29 -29 39 -87 51 -115 22 -18 -18 -19 -24 -8 -64 7 -24 11 -55 9 -68 -3 -22 -8 -24 -68 -26 -36 0 -70 -1 -76 -2 -6 -1 -35 -23 -63 -51 -46 -45 -56 -50 -96 -50 -32 0 -45 -4 -45 -14 0 -7 -7 -19 -15 -26 -20 -17 -19 -69 1 -77 9 -3 25 -1 35 5 15 10 20 8 29 -8 8 -15 21 -20 53 -20 51 0 67 -13 67 -55 0 -24 9 -40 38 -65 l37 -34 120 1 c155 1 179 8 183 54 2 19 11 42 19 52 9 9 21 27 27 39 16 31 43 34 71 8 13 -12 29 -19 35 -15 15 9 50 -23 50 -47 0 -20 38 -26 55 -9 6 6 30 11 55 13 41 3 45 5 48 32 2 16 -1 33 -7 39 -14 14 -14 40 1 55 9 9 19 2 46 -28 18 -22 38 -40 44 -40 20 0 73 53 73 74 0 16 7 22 33 24 17 2 32 6 32 9 0 23 -128 133 -155 133 -22 0 -28 23 -29 108 -1 86 -17 104 -40 47 -21 -50 -49 -45 -56 10 -3 27 -10 40 -20 40 -18 0 -26 -41 -11 -59 10 -12 -6 -56 -39 -106 -6 -8 -14 -27 -20 -42 -7 -22 -15 -27 -37 -26 -35 2 -47 11 -81 62 -38 57 -59 104 -67 154 -4 23 -10 42 -15 42 -5 0 -11 -19 -15 -42z m259 -339 c-3 -5 -10 -7 -15 -3 -5 3 -7 10 -3 15 3 5 10 7 15 3 5 -3 7 -10 3 -15z"/>
<path d="M16775 4208 c-14 -21 -14 -24 2 -35 22 -17 68 -17 81 0 6 7 6 21 1 35 -12 30 -62 30 -84 0z"/>
<path d="M15502 4138 c-7 -7 -12 -24 -12 -39 0 -14 -6 -44 -14 -65 -11 -34 -11 -43 4 -69 9 -17 30 -35 47 -40 18 -6 40 -18 51 -28 26 -23 62 -22 62 2 0 10 7 24 15 31 8 7 14 18 14 24 -1 6 1 19 6 29 5 13 1 28 -14 48 -12 16 -33 46 -47 67 -34 50 -84 68 -112 40z"/>
<path d="M16355 3727 c-24 -18 -11 -37 25 -37 34 0 47 15 30 35 -15 19 -31 19 -55 2z"/>
<path d="M16812 3652 c-15 -16 -35 -31 -44 -35 -21 -8 -25 -57 -5 -57 8 0 22 9 32 20 13 14 31 20 62 20 40 0 43 2 43 28 0 57 -46 69 -88 24z"/>
<path d="M15402 3643 c2 -12 12 -18 28 -18 16 0 26 6 28 18 3 13 -3 17 -28 17 -25 0 -31 -4 -28 -17z"/>
<path d="M16422 3638 c-15 -16 -34 -23 -60 -23 -30 0 -37 -4 -37 -19 0 -13 11 -23 35 -31 27 -9 36 -18 38 -38 3 -21 9 -27 28 -27 18 0 24 5 24 21 0 12 7 36 16 54 31 66 1 108 -44 63z"/>
<path d="M17100 3630 c0 -19 33 -40 61 -40 17 0 9 39 -10 50 -31 16 -51 12 -51 -10z"/>
<path d="M16160 3585 c0 -21 5 -25 29 -25 39 0 60 25 32 39 -36 20 -61 14 -61 -14z"/>
<path d="M18350 3602 c-41 -2 -79 -7 -83 -11 -12 -12 179 -24 200 -12 17 9 17 10 1 15 -32 10 -42 11 -118 8z"/>
<path d="M18600 3590 c0 -5 7 -10 15 -10 8 0 15 5 15 10 0 6 -7 10 -15 10 -8 0 -15 -4 -15 -10z"/>
<path d="M15953 3573 c-7 -2 -13 -16 -13 -29 0 -21 4 -24 39 -24 41 0 67 20 57 45 -5 15 -55 20 -83 8z"/>
<path d="M16875 3540 c-13 -15 -15 -24 -8 -31 19 -19 48 -6 48 20 0 32 -17 36 -40 11z"/>
<path d="M13941 3536 c-6 -7 -9 -21 -5 -30 8 -21 -23 -33 -45 -18 -32 23 -95 52 -113 52 -15 0 -18 -8 -18 -51 0 -42 -5 -57 -32 -89 -18 -22 -38 -40 -45 -40 -7 0 -17 -8 -22 -18 -11 -21 -106 -74 -115 -64 -3 3 -6 14 -6 24 0 28 -48 25 -52 -4 -2 -15 -9 -22 -20 -20 -12 2 -20 -8 -28 -37 -9 -34 -18 -43 -54 -59 -49 -22 -71 -68 -41 -84 28 -16 5 -28 -53 -28 -50 0 -62 -4 -97 -34 -36 -31 -39 -37 -27 -55 6 -11 12 -29 12 -40 0 -32 25 -45 61 -32 18 6 45 11 60 11 26 0 29 3 29 33 0 21 8 41 20 52 l20 18 23 -21 c19 -18 36 -22 84 -22 l61 0 6 31 c11 57 6 76 -29 112 -19 20 -35 40 -35 46 0 5 14 21 30 34 24 20 37 25 64 20 19 -3 36 -1 40 6 4 6 15 11 25 11 10 0 21 9 24 20 4 15 14 20 36 20 33 0 62 13 97 43 l21 17 19 -21 c10 -12 30 -25 43 -31 21 -8 30 -3 68 33 23 24 46 39 50 35 4 -4 6 -23 4 -42 l-3 -35 49 3 c42 3 48 6 51 27 2 13 -1 28 -7 34 -6 6 -11 23 -11 38 0 15 -4 31 -10 34 -6 4 -5 13 2 24 23 37 -17 75 -54 52 -23 -14 -38 -7 -38 18 0 28 -24 45 -39 27z"/>
<path d="M17287 3513 c-4 -3 -7 -17 -7 -30 0 -18 6 -23 24 -23 25 0 43 30 31 50 -7 11 -38 13 -48 3z"/>
<path d="M16007 3494 c-4 -4 -7 -18 -7 -31 0 -21 4 -24 28 -21 21 2 27 8 27 28 0 18 -6 26 -20 28 -12 2 -24 0 -28 -4z"/>
<path d="M16353 3405 c-40 -42 -45 -85 -10 -85 36 0 77 45 77 85 0 46 -24 46 -67 0z"/>
<path d="M15964 3385 c-8 -21 2 -45 19 -45 20 0 40 27 33 45 -7 19 -45 20 -52 0z"/>
<path d="M13605 3370 c3 -5 10 -10 16 -10 5 0 9 5 9 10 0 6 -7 10 -16 10 -8 0 -12 -4 -9 -10z"/>
<path d="M16187 3373 c-4 -3 -7 -19 -7 -34 0 -29 -14 -46 -25 -29 -9 14 -62 12 -72 -2 -4 -7 -13 -29 -18 -48 -10 -32 -14 -35 -54 -38 -51 -4 -97 13 -112 39 -5 11 -21 19 -35 19 -21 0 -25 -4 -22 -22 2 -15 11 -24 25 -26 12 -2 29 -14 37 -28 9 -13 24 -24 34 -24 21 0 57 -29 65 -52 4 -10 16 -18 27 -18 11 0 30 -10 42 -22 35 -35 108 -72 120 -60 13 13 -17 64 -61 106 -37 36 -37 39 -7 79 13 18 26 40 27 50 5 25 23 22 27 -4 2 -12 17 -36 34 -52 24 -24 34 -28 47 -20 24 15 25 56 1 78 -13 12 -20 31 -20 55 0 47 -30 77 -53 53z"/>
<path d="M15136 3324 c-3 -9 -4 -20 -1 -24 3 -5 1 -11 -4 -14 -5 -4 -12 -2 -16 4 -20 33 -55 -18 -55 -82 0 -27 5 -40 20 -48 14 -8 20 -21 20 -45 0 -28 4 -35 20 -35 16 0 20 7 20 38 0 21 6 44 13 51 10 10 8 16 -10 28 -28 19 -28 31 -3 63 11 14 20 37 20 53 0 30 -14 36 -24 11z"/>
<path d="M16812 3328 c-26 -26 -7 -54 28 -43 26 8 28 55 2 55 -10 0 -23 -5 -30 -12z"/>
<path d="M17723 3314 c-8 -22 25 -46 51 -38 36 11 48 25 35 40 -16 20 -78 18 -86 -2z"/>
<path d="M14380 3290 c0 -5 5 -10 10 -10 6 0 10 5 10 10 0 6 -4 10 -10 10 -5 0 -10 -4 -10 -10z"/>
<path d="M13750 3262 c0 -24 14 -42 32 -42 29 0 20 44 -9 48 -13 2 -23 -1 -23 -6z"/>
<path d="M14830 3225 c-7 -8 -10 -22 -6 -30 8 -23 33 -19 85 13 8 5 -34 31 -50 32 -9 0 -22 -7 -29 -15z"/>
<path d="M17930 3215 c0 -12 8 -16 33 -13 17 2 32 8 32 13 0 6 -15 11 -32 13 -25 3 -33 -1 -33 -13z"/>
<path d="M14472 3170 c-20 -43 -12 -64 23 -68 17 -1 39 -7 50 -11 11 -5 28 -12 38 -15 10 -3 17 -15 17 -32 l0 -27 43 7 c48 8 62 18 54 40 -4 11 -19 16 -46 16 -50 0 -60 15 -31 45 25 27 19 45 -14 45 -12 0 -31 7 -42 15 -10 8 -33 15 -49 15 -24 0 -33 -6 -43 -30z"/>
<path d="M14284 3156 c-3 -13 -4 -33 -2 -43 4 -25 -19 -53 -43 -53 -12 0 -19 -7 -19 -19 0 -11 -4 -23 -10 -26 -5 -3 -10 -31 -10 -61 0 -49 2 -54 23 -54 16 1 28 13 43 43 11 23 31 47 43 53 31 16 111 95 111 110 0 7 -16 14 -37 16 -33 3 -38 7 -41 31 -4 37 -49 39 -58 3z"/>
<path d="M14963 3170 c-30 -12 -29 -28 2 -40 31 -12 77 7 73 29 -4 19 -43 24 -75 11z"/>
<path d="M17135 3166 c-18 -13 -16 -46 3 -46 20 0 45 28 39 44 -8 20 -17 20 -42 2z"/>
<path d="M14750 3040 c-6 -11 -10 -33 -8 -48 2 -21 8 -27 28 -27 23 0 25 3 24 45 -1 51 -24 67 -44 30z"/>
<path d="M15036 3044 c-22 -22 -15 -39 15 -39 19 0 24 5 24 24 0 30 -17 37 -39 15z"/>
<path d="M17852 3048 c-18 -18 -15 -48 6 -48 23 0 42 19 42 42 0 21 -30 24 -48 6z"/>
<path d="M16251 2966 c-7 -8 -11 -34 -9 -58 2 -34 7 -43 22 -43 30 0 39 25 27 73 -12 45 -21 51 -40 28z"/>
<path d="M16757 2973 c-16 -16 -6 -50 19 -62 30 -13 44 -7 44 18 0 31 -45 62 -63 44z"/>
<path d="M16133 2880 c-17 -10 -39 -20 -49 -22 -24 -4 -36 -61 -19 -85 11 -14 17 -15 39 -5 16 7 28 8 31 2 9 -15 -4 -30 -26 -30 -25 0 -36 -27 -20 -53 9 -14 10 -22 2 -30 -18 -18 -12 -77 10 -108 26 -37 76 -41 81 -7 2 12 13 27 24 33 56 28 74 77 34 90 -11 3 -29 19 -40 36 l-21 29 26 10 c14 5 42 10 61 10 27 0 34 4 34 19 0 42 -92 70 -120 36 -7 -8 -18 -15 -26 -15 -23 0 -28 23 -7 40 23 18 38 56 25 64 -5 3 -22 -3 -39 -14z"/>
<path d="M16819 2881 c-50 -16 -79 -42 -73 -65 3 -15 -5 -30 -31 -56 -23 -23 -35 -43 -35 -62 0 -22 -11 -36 -50 -65 -27 -21 -48 -45 -47 -53 3 -21 50 -24 86 -5 24 12 31 22 31 45 0 38 19 48 40 20 25 -33 54 -23 58 19 2 19 -2 44 -8 56 -10 18 -9 29 4 54 14 25 23 31 50 31 19 0 57 5 85 12 43 10 51 15 51 34 0 13 -3 25 -7 27 -17 10 -130 15 -154 8z"/>
<path d="M13228 2853 c4 -10 6 -34 3 -53 -8 -46 -45 -53 -89 -16 -16 15 -32 26 -35 26 -7 0 -21 -82 -18 -108 1 -16 -6 -25 -24 -32 -35 -13 -78 -13 -92 1 -7 7 -19 9 -28 5 -13 -4 -15 -13 -10 -37 11 -47 -15 -70 -71 -62 -34 4 -44 3 -44 -8 1 -19 40 -64 68 -78 35 -18 26 -38 -28 -66 -36 -18 -48 -29 -43 -41 4 -11 13 -14 30 -9 34 8 56 -11 42 -36 -5 -10 -16 -19 -24 -19 -8 0 -15 -7 -15 -15 0 -9 9 -15 23 -15 13 0 34 -11 47 -25 25 -27 51 -35 30 -10 -7 8 -10 24 -7 34 2 11 1 38 -3 60 -5 30 -4 44 6 52 17 14 18 41 2 57 -9 9 -7 17 10 35 12 13 22 36 22 50 0 30 8 35 59 40 18 2 38 11 43 20 6 12 17 15 37 11 24 -5 32 -1 46 20 10 14 24 26 31 26 8 0 17 8 21 18 3 9 15 25 25 35 12 12 16 26 12 43 -4 16 -1 31 11 44 16 17 16 20 0 44 -20 30 -51 37 -37 9z"/>
<path d="M15809 2798 c-7 -13 -25 -35 -41 -50 -15 -14 -28 -31 -28 -37 0 -21 37 -11 48 13 7 16 21 26 39 28 24 3 28 8 28 33 0 38 -28 46 -46 13z"/>
<path d="M17088 2788 c-18 -6 -28 -17 -28 -29 0 -17 6 -20 38 -17 32 3 37 6 37 27 0 29 -10 33 -47 19z"/>
<path d="M14444 2766 c-3 -8 -4 -25 -2 -38 4 -33 52 -33 56 0 6 40 -41 73 -54 38z"/>
<path d="M14303 2724 c-7 -20 10 -37 33 -32 26 5 24 29 -4 39 -17 6 -24 5 -29 -7z"/>
<path d="M16418 2564 c-21 -22 -36 -27 -79 -28 l-53 -1 -8 -38 c-7 -36 -5 -42 34 -88 34 -41 47 -49 75 -49 39 0 42 15 12 54 -11 15 -19 32 -16 39 6 17 103 69 141 77 33 6 47 37 24 51 -7 5 -33 9 -58 9 -36 0 -51 -6 -72 -26z"/>
<path d="M14232 2553 l-53 -4 3 -37 c3 -32 7 -38 36 -46 24 -7 40 -5 59 5 14 8 44 14 67 14 37 0 41 3 44 26 3 22 -2 27 -26 32 -61 12 -78 14 -130 10z"/>
<path d="M14092 2511 c-21 -13 -10 -47 13 -43 28 5 39 18 32 36 -7 18 -25 20 -45 7z"/>
<path d="M18124 2486 c-12 -32 0 -61 29 -64 23 -3 27 0 27 20 0 28 -9 42 -33 51 -11 4 -20 1 -23 -7z"/>
<path d="M16134 2446 c-14 -11 -16 -18 -8 -26 18 -18 49 -7 52 18 4 26 -15 29 -44 8z"/>
<path d="M17165 2434 c-13 -14 -25 -40 -27 -57 -3 -27 -7 -32 -33 -35 -16 -2 -34 -8 -39 -13 -6 -5 -18 -9 -27 -9 -18 0 -59 -49 -59 -69 0 -14 47 -15 55 -1 3 6 21 10 39 10 32 0 49 12 96 67 8 10 33 32 55 50 37 31 38 34 25 58 -18 33 -54 33 -85 -1z"/>
<path d="M16476 2315 c-9 -25 -8 -27 17 -23 12 2 22 10 22 18 0 21 -31 24 -39 5z"/>
<path d="M14404 2285 c-4 -9 -2 -21 4 -27 15 -15 44 -1 40 19 -4 23 -36 29 -44 8z"/>
<path d="M13700 2251 c-8 -5 -31 -12 -50 -16 -19 -4 -42 -13 -50 -20 -13 -11 -77 -22 -152 -24 -30 -1 -23 -49 10 -64 15 -6 50 -35 77 -64 l50 -51 140 -12 c77 -6 208 -15 290 -20 188 -11 247 -21 285 -48 16 -12 36 -22 45 -22 9 0 26 -7 39 -15 17 -12 43 -15 92 -13 63 3 69 5 72 26 7 44 99 58 139 20 l24 -23 30 18 c37 21 58 21 95 2 19 -9 57 -15 106 -15 68 0 79 -3 90 -21 7 -11 30 -29 51 -40 20 -11 37 -24 37 -29 0 -16 46 -41 64 -34 22 8 20 18 -9 50 -28 30 -29 33 -16 66 11 30 107 83 118 65 26 -41 113 -74 113 -43 0 7 7 19 15 26 21 18 9 30 -31 30 -23 0 -38 6 -46 20 -14 23 -38 26 -56 8 -10 -10 -17 -10 -32 0 -23 14 -151 16 -165 3 -6 -5 -44 -12 -85 -15 -41 -4 -100 -9 -131 -12 l-56 -6 -22 31 c-18 25 -29 31 -61 31 -29 0 -39 -4 -43 -20 -10 -39 -139 -21 -177 25 -7 8 -23 15 -36 15 -12 0 -25 4 -28 9 -4 5 -23 5 -46 -1 -47 -12 -70 1 -70 38 0 31 -44 62 -64 44 -8 -6 -16 -23 -18 -38 -2 -18 -10 -28 -23 -30 -11 -2 -27 -11 -37 -19 -9 -8 -29 -13 -45 -11 l-28 3 -5 60 -5 60 -34 3 c-22 2 -35 10 -38 22 -7 27 -47 37 -158 39 -55 1 -104 6 -109 11 -12 12 -36 12 -56 1z"/>
<path d="M13000 2211 c0 -10 71 -18 108 -13 48 7 19 22 -43 22 -36 0 -65 -4 -65 -9z"/>
<path d="M13147 2193 c-10 -9 13 -33 32 -33 10 0 26 -7 37 -15 26 -20 55 -18 83 5 41 35 22 50 -67 50 -43 0 -82 -3 -85 -7z"/>
<path d="M17564 1925 c-12 -18 -13 -28 -4 -44 14 -28 28 -26 39 3 10 25 30 36 67 36 28 0 32 16 7 24 -45 13 -94 4 -109 -19z"/>
</g>
</g>
</svg>
