<svg xmlns="http://www.w3.org/2000/svg" version="1.0" width="246.000000pt" height="234.000000pt" viewBox="0 0 246.000000 234.000000" preserveAspectRatio="xMidYMid meet">
  <g transform="translate(0.000000,234.000000) scale(0.100000,-0.100000)" stroke="none">
    <path d="M 0 0 H 2460.0 V 2340.0 H 0 Z" fill="#ffffff" id="background"/>
    <path stroke="none" d="M660 2290 c0 -5 5 -10 10 -10 6 0 10 5 10 10 0 6 -4 10 -10 10 -5 0 -10 -4 -10 -10z" fill="#bcaed7" id="bcaed7-000001"/>
    <path stroke="none" d="M1170 2290 c-8 -5 -34 -10 -57 -10 -23 0 -45 -4 -48 -10 -3 -5 -19 -10 -36 -10 -16 0 -29 -3 -29 -8 0 -4 -15 -13 -32 -21 -67 -29 -196 -133 -209 -168 -4 -10 -40 -54 -134 -162 -47 -54 -65 -84 -65 -109 0 -10 -9 -37 -20 -60 -11 -22 -20 -48 -20 -57 0 -8 -3 -15 -7 -15 -12 0 -33 -51 -33 -76 0 -13 -4 -25 -9 -28 -5 -3 -11 -23 -15 -43 -13 -88 -19 -113 -27 -119 -12 -7 -11 -131 1 -139 6 -3 10 -28 10 -55 0 -49 13 -125 31 -190 10 -34 19 -56 56 -137 19 -44 73 -126 85 -131 4 -2 8 -9 8 -16 0 -18 133 -152 159 -161 11 -3 21 -11 21 -16 0 -5 6 -9 13 -9 7 0 23 -9 35 -20 12 -11 28 -20 37 -20 8 0 15 -4 15 -10 0 -5 9 -10 20 -10 11 0 20 -3 20 -7 0 -11 50 -33 71 -33 10 0 21 -4 24 -10 3 -6 19 -10 34 -10 15 0 31 -4 36 -9 23 -21 300 -40 318 -22 6 6 30 11 54 11 24 0 43 5 43 10 0 6 9 10 20 10 11 0 20 5 20 10 0 6 8 10 18 10 24 0 95 35 152 73 50 35 130 112 130 125 0 5 13 23 30 40 16 18 30 39 30 47 0 8 5 15 10 15 6 0 10 9 10 20 0 11 5 20 10 20 6 0 10 9 10 19 0 11 5 23 10 26 6 3 10 17 10 30 0 13 5 27 10 30 6 3 10 19 10 36 0 16 4 37 9 47 24 47 31 100 31 225 0 80 -4 138 -10 142 -5 3 -10 15 -10 26 0 10 -4 27 -9 37 -5 9 -16 32 -23 50 -7 17 -16 32 -20 32 -5 0 -8 6 -8 13 0 7 -13 26 -30 42 -21 20 -30 24 -30 13 0 -8 9 -23 20 -33 11 -10 20 -26 20 -37 0 -10 5 -18 10 -18 6 0 10 -9 10 -19 0 -11 5 -23 10 -26 6 -3 10 -17 10 -30 0 -13 5 -27 10 -30 6 -4 10 -57 10 -125 0 -68 -4 -121 -10 -125 -5 -3 -10 -24 -10 -46 0 -21 -4 -39 -10 -39 -5 0 -10 -18 -10 -39 0 -22 -5 -43 -10 -46 -5 -3 -10 -17 -10 -31 0 -13 -4 -32 -9 -42 -5 -9 -24 -48 -42 -87 -40 -85 -149 -198 -224 -234 -27 -13 -58 -27 -67 -32 -10 -5 -25 -9 -33 -9 -8 0 -23 -4 -33 -9 -51 -26 -101 -32 -247 -30 -85 1 -158 5 -161 10 -3 5 -18 9 -34 9 -16 0 -32 5 -35 10 -4 6 27 10 84 10 50 0 91 4 91 8 0 17 -75 34 -146 34 -41 0 -77 4 -80 9 -3 5 -12 9 -20 9 -9 0 -35 14 -59 30 -24 17 -47 30 -51 30 -3 0 -14 8 -23 18 -9 10 -32 29 -51 42 -46 32 -72 59 -89 92 -8 16 -18 28 -23 28 -4 0 -8 6 -8 13 0 7 -8 22 -17 33 -25 28 -43 61 -43 79 0 8 -4 15 -10 15 -5 0 -10 9 -10 19 0 11 -4 23 -10 26 -6 4 -10 -6 -10 -24 0 -16 5 -33 10 -36 12 -7 14 -35 3 -35 -11 0 -33 50 -33 71 0 10 -4 21 -10 24 -5 3 -10 19 -10 35 0 16 -4 32 -10 35 -5 3 -10 30 -10 59 0 28 -5 57 -11 63 -18 18 2 306 22 328 5 5 9 19 9 32 0 13 4 31 9 41 11 21 27 62 35 85 3 9 12 17 21 17 10 0 15 10 15 31 0 41 38 109 62 109 11 0 18 7 18 20 0 11 4 20 9 20 5 0 12 8 15 18 11 32 166 182 190 182 12 0 28 9 36 20 8 11 22 20 32 20 10 0 18 5 18 10 0 6 15 10 33 10 17 0 46 9 64 19 47 30 133 41 286 39 119 -1 137 -4 135 -17 -2 -11 -17 -17 -51 -19 -48 -3 -58 -22 -11 -22 13 0 24 -3 24 -8 0 -7 91 -32 118 -32 21 0 195 -80 200 -92 2 -5 9 -8 14 -8 34 0 248 -199 248 -231 0 -16 53 -69 69 -69 4 0 14 -19 21 -42 7 -24 17 -47 22 -52 4 -6 8 -19 8 -31 0 -12 4 -25 9 -31 8 -8 12 -29 27 -141 3 -24 10 -43 16 -43 16 0 0 -192 -21 -245 -5 -11 -14 -33 -20 -48 -6 -15 -11 -39 -11 -52 0 -13 -4 -26 -9 -29 -8 -6 -11 -18 -27 -109 -3 -20 -10 -40 -15 -43 -5 -3 -9 -18 -9 -34 0 -16 -4 -32 -10 -35 -5 -3 -10 -14 -10 -23 0 -9 -9 -28 -20 -42 -11 -14 -20 -33 -20 -42 0 -10 -4 -18 -10 -18 -5 0 -10 -8 -10 -17 -1 -10 -19 -36 -40 -58 -22 -22 -40 -45 -40 -51 0 -15 -107 -115 -147 -139 -18 -11 -33 -23 -33 -27 0 -4 -9 -8 -20 -8 -11 0 -20 -3 -20 -8 0 -4 -17 -15 -37 -24 -21 -10 -49 -24 -63 -32 -49 -27 -76 -35 -135 -40 -33 -2 -85 -10 -115 -17 -86 -19 -398 -12 -439 10 -11 6 -31 11 -45 11 -14 0 -26 5 -26 10 0 6 -6 10 -13 10 -18 0 -67 24 -67 33 0 4 -9 7 -20 7 -11 0 -20 5 -20 10 0 6 -6 10 -13 10 -12 0 -54 34 -150 120 -47 42 -157 172 -157 185 0 3 -9 15 -20 27 -11 12 -20 28 -20 35 0 7 -4 13 -9 13 -5 0 -16 17 -26 38 -9 20 -37 78 -61 127 -24 50 -44 96 -44 103 0 7 -4 20 -9 30 -40 78 -45 110 -44 282 1 158 8 236 24 246 5 3 9 18 9 34 0 16 5 32 10 35 5 3 10 15 10 26 0 10 4 27 9 37 5 9 28 58 51 107 24 50 47 92 52 93 4 2 8 12 8 23 0 10 5 19 10 19 6 0 10 5 10 11 0 12 60 103 72 107 4 2 8 9 8 15 0 7 18 35 41 62 22 28 54 70 71 95 18 25 40 52 50 61 17 15 25 49 12 49 -8 0 -84 -83 -84 -92 0 -4 -15 -22 -32 -40 -18 -18 -53 -58 -78 -88 -25 -30 -66 -76 -92 -102 -33 -32 -48 -55 -48 -72 0 -14 -4 -26 -10 -26 -5 0 -10 -6 -10 -12 0 -7 -9 -24 -20 -38 -11 -14 -20 -33 -20 -43 0 -11 -9 -21 -20 -24 -11 -3 -20 -14 -20 -24 0 -11 -4 -19 -10 -19 -5 0 -10 -7 -10 -15 0 -8 -9 -30 -20 -49 -10 -20 -24 -65 -31 -101 -6 -36 -15 -68 -20 -71 -5 -3 -9 -18 -9 -34 0 -16 -4 -32 -10 -35 -14 -8 -14 -375 0 -375 6 0 10 -22 10 -50 0 -31 7 -63 20 -85 11 -20 20 -49 20 -65 0 -17 5 -39 10 -50 6 -11 15 -29 20 -40 24 -48 37 -66 60 -87 14 -13 29 -23 33 -23 11 0 67 -59 67 -71 0 -4 11 -19 25 -33 14 -14 25 -30 25 -35 0 -6 17 -27 38 -48 21 -21 46 -50 56 -65 10 -16 23 -28 28 -28 6 0 18 -8 27 -18 9 -9 28 -23 44 -31 15 -8 27 -18 27 -23 0 -4 6 -8 13 -8 6 0 28 -14 47 -30 19 -16 41 -30 48 -30 6 0 12 -3 12 -8 0 -9 111 -65 161 -81 19 -6 47 -11 60 -11 14 0 29 -4 34 -9 12 -11 88 -19 257 -27 113 -5 135 -4 190 15 34 12 81 21 104 21 24 0 46 5 49 10 3 6 24 10 46 10 21 0 39 5 39 10 0 6 12 10 26 10 32 0 239 100 297 143 23 18 54 40 70 50 15 10 27 26 27 37 0 23 15 52 50 97 87 110 125 174 133 223 3 19 10 53 17 75 15 53 30 121 37 170 3 22 8 45 12 50 4 6 13 35 20 65 18 81 3 400 -20 425 -5 5 -9 18 -9 29 0 35 -48 159 -95 246 -8 14 -23 43 -34 66 -11 22 -27 47 -36 54 -8 7 -15 18 -15 26 0 21 -180 197 -245 241 -60 40 -118 72 -165 90 -14 6 -38 16 -53 22 -15 6 -38 11 -50 11 -13 0 -27 4 -33 9 -15 15 -90 22 -264 27 -102 3 -171 1 -180 -6z" fill="#bcaed7" id="bcaed7-000002"/>
    <path stroke="none" d="M620 861 c0 -11 6 -21 13 -24 6 -2 9 -8 4 -12 -8 -9 -36 23 -37 43 0 6 5 12 10 12 6 0 10 -9 10 -19z" fill="#fbfcfc" id="fbfcfc-000004"/>
    <path stroke="none" d="M660 790 c0 -5 -4 -10 -10 -10 -5 0 -10 5 -10 10 0 6 5 10 10 10 6 0 10 -4 10 -10z" fill="#fbfcfc" id="fbfcfc-000006"/>
    <path stroke="none" d="M880 2010 c0 -5 5 -10 10 -10 6 0 10 5 10 10 0 6 -4 10 -10 10 -5 0 -10 -4 -10 -10z" fill="#bcaed7" id="bcaed7-000004"/>
    <path stroke="none" d="M860 1990 c0 -5 5 -10 10 -10 6 0 10 5 10 10 0 6 -4 10 -10 10 -5 0 -10 -4 -10 -10z" fill="#bcaed7" id="bcaed7-000005"/>
    <path stroke="none" d="M820 1949 c-33 -42 -43 -59 -33 -59 13 0 28 14 51 47 37 53 23 62 -18 12z" fill="#bcaed7" id="bcaed7-000007"/>
    <path stroke="none" d="M1325 1860 c-12 -20 9 -25 79 -22 75 4 90 22 19 22 -27 0 -58 3 -69 6 -12 3 -25 0 -29 -6z" fill="#bcaed7" id="bcaed7-000009"/>
    <path stroke="none" d="M1125 1810 c-3 -5 -16 -10 -28 -10 -22 -1 -57 -21 -57 -34 0 -10 48 -7 55 4 3 6 13 10 21 10 15 0 44 23 44 34 0 10 -28 7 -35 -4z" fill="#bcaed7" id="bcaed7-000010"/>
    <path stroke="none" d="M1620 1802 c0 -5 8 -16 19 -26 16 -15 20 -15 31 -1 10 12 8 16 -15 25 -32 12 -35 12 -35 2z" fill="#bcaed7" id="bcaed7-000011"/>
    <path stroke="none" d="M999 1567 c-46 -43 -59 -69 -59 -114 0 -37 19 -106 33 -119 4 -4 7 -18 7 -30 0 -13 5 -26 10 -29 6 -3 10 -17 10 -30 0 -13 5 -27 10 -30 6 -3 10 -22 10 -41 0 -19 5 -34 10 -34 6 0 10 -53 10 -139 0 -119 3 -142 18 -161 16 -20 21 -21 40 -9 12 8 22 17 22 21 0 5 9 8 19 8 11 0 21 3 23 8 5 11 88 52 107 52 9 0 21 4 26 8 6 5 30 14 55 21 25 7 54 17 65 21 20 9 58 16 128 27 20 3 40 9 43 14 3 5 16 9 30 9 13 0 24 5 24 10 0 6 8 10 18 10 9 0 27 15 40 33 26 39 30 110 8 151 -23 44 -83 96 -111 96 -15 0 -34 4 -43 9 -18 9 -113 -7 -128 -22 -4 -4 -20 -7 -36 -7 -15 0 -28 -4 -28 -10 0 -5 -4 -10 -10 -10 -5 0 -10 13 -10 29 0 17 -4 33 -10 36 -5 3 -10 24 -10 45 0 21 -4 42 -10 45 -5 3 -10 17 -10 29 0 29 -90 116 -120 116 -11 0 -20 5 -20 10 0 6 -28 10 -63 10 -58 0 -66 -3 -98 -33z" fill="#bcaed7" id="bcaed7-000012"/>
  </g>
</svg>
