<svg xmlns="http://www.w3.org/2000/svg" version="1.0" width="468.000000pt" height="446.000000pt" viewBox="0 0 468.000000 446.000000" preserveAspectRatio="xMidYMid meet">
  <g transform="translate(0.000000,446.000000) scale(0.100000,-0.100000)" stroke="none">
    <path d="M 0 0 H 4680.0 V 4460.0 H 0 Z" fill="#ffffff" id="background"/>
    <path stroke="none" d="M2045 4074 c-38 -7 -86 -13 -106 -13 -57 -1 -63 -16 -55 -134 3 -56 9 -163 12 -237 6 -132 14 -163 37 -155 7 2 65 9 129 15 65 6 141 20 170 30 211 74 241 392 44 485 -58 27 -118 29 -231 9z" fill="#565759" id="565759-000001"/>
    <path stroke="none" d="M2183 3952 c33 -34 47 -79 47 -150 0 -63 -19 -96 -71 -123 -47 -23 -57 -24 -81 -2 -16 14 -18 33 -18 153 0 75 3 140 7 143 3 4 25 7 48 7 32 0 47 -6 68 -28z" fill="#ffffff" id="ffffff-000002"/>
    <path stroke="none" d="M2743 4054 c-7 -16 -13 -36 -13 -46 0 -10 -4 -18 -10 -18 -5 0 -10 -9 -10 -20 0 -11 -4 -20 -10 -20 -5 0 -10 -7 -10 -15 0 -8 -4 -23 -9 -33 -5 -9 -34 -66 -64 -127 -62 -127 -85 -192 -71 -204 10 -9 119 -51 134 -51 9 0 70 119 70 137 0 5 11 20 25 33 25 23 25 23 65 5 63 -28 65 -34 36 -119 -32 -93 -32 -98 2 -113 61 -26 105 -43 111 -43 3 0 14 21 24 48 11 26 23 56 27 67 11 25 54 144 91 252 16 45 34 91 40 101 7 11 10 26 7 33 -5 14 -99 49 -129 49 -8 0 -27 -28 -44 -63 -42 -88 -51 -97 -89 -90 -83 16 -106 52 -66 103 11 14 20 35 20 46 0 12 7 27 15 34 23 19 18 28 -30 50 -76 35 -98 35 -112 4z" fill="#565759" id="565759-000002"/>
    <path stroke="none" d="M1550 3940 c-71 -27 -231 -106 -277 -137 -26 -16 -43 -35 -43 -46 0 -20 112 -241 136 -268 8 -8 14 -20 14 -26 0 -6 7 -16 15 -23 9 -7 27 -37 40 -67 31 -68 51 -69 136 -8 35 25 71 48 79 51 8 3 34 15 58 25 149 67 152 70 131 119 -19 41 -35 44 -88 17 -25 -14 -57 -28 -71 -32 -14 -4 -37 -16 -52 -26 -36 -26 -64 -24 -84 6 -21 32 -13 42 79 103 38 25 71 51 74 58 6 16 -36 74 -55 74 -7 0 -32 -13 -55 -28 -94 -62 -134 -67 -151 -20 -12 36 8 59 80 92 112 52 149 100 106 139 -10 10 -20 17 -23 16 -2 0 -24 -9 -49 -19z" fill="#565759" id="565759-000003"/>
    <path stroke="none" d="M3430 3732 c-8 -3 -21 -11 -28 -19 -7 -7 -24 -13 -37 -13 -13 0 -26 -4 -29 -9 -3 -4 -35 -11 -71 -14 -76 -7 -101 -26 -137 -102 -18 -40 -23 -67 -23 -135 0 -76 3 -89 27 -123 29 -43 117 -107 146 -107 10 0 23 -5 29 -11 18 -18 124 -13 168 7 44 21 53 47 18 52 -23 3 -43 50 -43 100 0 29 -8 28 -46 -9 -26 -26 -41 -32 -75 -32 -59 0 -79 26 -79 105 0 66 -1 64 95 159 79 77 106 85 171 49 35 -20 37 -20 50 -3 21 29 17 40 -29 71 -45 30 -82 42 -107 34z" fill="#565759" id="565759-000004"/>
    <path stroke="none" d="M3582 3593 c-9 -17 -9 -22 3 -27 8 -3 15 -12 15 -21 0 -8 9 -15 20 -15 24 0 27 28 4 37 -9 3 -19 15 -23 27 l-8 20 -11 -21z" fill="#565759" id="565759-000005"/>
    <path stroke="none" d="M963 3524 c-28 -13 -64 -40 -82 -61 -17 -21 -40 -48 -51 -60 -11 -12 -20 -26 -20 -30 0 -4 -27 -33 -60 -64 -66 -64 -81 -97 -55 -123 23 -23 32 -20 44 14 5 17 14 30 19 30 5 0 15 14 22 30 7 17 20 36 30 43 9 7 22 23 29 35 20 38 53 72 70 72 9 0 25 11 35 25 10 14 25 25 33 25 7 0 16 7 20 15 3 9 18 22 34 31 67 34 5 51 -68 18z" fill="#565759" id="565759-000006"/>
    <path stroke="none" d="M1112 3449 c-1 -36 -17 -59 -43 -59 -14 0 -19 -7 -19 -28 0 -20 -14 -42 -53 -80 -57 -56 -70 -61 -99 -35 -21 19 -36 10 -18 -11 10 -13 9 -18 -3 -30 -8 -8 -17 -13 -20 -10 -3 3 -8 -9 -12 -27 -4 -19 -13 -42 -19 -52 -12 -19 -5 -26 110 -126 79 -67 96 -65 144 23 l24 46 -37 38 c-20 21 -37 44 -37 52 0 8 16 25 36 38 31 20 35 27 29 52 -3 16 -2 31 4 35 6 3 11 17 11 31 0 13 5 24 10 24 6 0 10 7 10 16 0 9 14 30 30 46 46 43 36 88 -20 88 -23 0 -27 -4 -28 -31z" fill="#565759" id="565759-000007"/>
    <path stroke="none" d="M870 3140 c0 -5 -5 -10 -11 -10 -5 0 -7 5 -4 10 3 6 8 10 11 10 2 0 4 -4 4 -10z" fill="#ffffff" id="ffffff-000003"/>
    <path stroke="none" d="M2413 3413 l2 -38 -165 3 c-91 2 -171 -1 -178 -6 -7 -5 -19 -41 -25 -80 -11 -65 -16 -73 -58 -111 -26 -22 -52 -54 -59 -71 -15 -37 -21 -37 -51 -2 -13 15 -57 57 -97 92 -64 56 -76 63 -92 52 -11 -7 -25 -12 -32 -12 -16 0 -104 -66 -189 -140 -35 -30 -81 -71 -103 -90 -60 -53 -95 -93 -96 -111 0 -8 19 -33 43 -55 23 -22 51 -53 62 -69 11 -16 31 -41 44 -57 24 -29 23 -58 -3 -58 -8 0 -26 -13 -39 -30 -25 -29 -29 -30 -110 -30 -96 0 -139 -16 -155 -58 -23 -58 -32 -110 -32 -184 0 -68 -2 -77 -20 -83 -11 -4 -27 -20 -36 -36 -17 -35 -8 -62 12 -34 7 10 19 15 26 12 11 -4 12 -22 5 -95 -6 -50 -7 -98 -4 -106 5 -11 20 -16 50 -16 44 0 45 -1 51 -39 13 -83 66 -82 108 2 27 53 32 57 64 57 34 0 35 -2 30 -27 -4 -16 -8 -50 -10 -78 -7 -73 -12 -83 -99 -167 -43 -43 -77 -82 -75 -87 1 -6 41 -50 88 -98 47 -48 107 -113 134 -143 138 -153 150 -165 181 -165 33 0 32 10 19 -129 -5 -54 -4 -61 20 -82 24 -23 56 -32 56 -16 0 4 -9 14 -20 22 -27 19 -26 73 1 134 16 37 19 58 14 100 l-7 53 92 89 c50 49 97 90 104 92 6 1 22 -8 33 -20 22 -23 22 -24 9 -203 -7 -99 -10 -183 -7 -187 3 -3 132 -10 286 -14 236 -6 282 -4 292 7 6 8 15 50 19 94 4 49 14 93 25 113 24 42 24 54 -1 94 -36 59 -21 93 25 57 20 -16 29 -19 38 -10 19 19 42 12 65 -18 l21 -29 -24 -69 c-14 -37 -34 -76 -46 -86 -12 -10 -19 -21 -15 -24 12 -13 61 22 74 52 25 59 37 78 51 83 8 3 43 -26 81 -67 37 -39 71 -71 75 -71 4 0 19 12 34 28 91 94 244 232 256 232 13 0 14 -11 9 -65 -5 -46 -3 -69 6 -80 29 -35 35 -16 33 95 l-2 110 49 50 c28 28 50 57 50 65 0 9 -54 72 -120 140 -72 75 -120 133 -120 145 0 19 8 20 188 22 l187 3 3 63 c2 34 7 62 11 62 9 0 31 -45 31 -64 0 -11 65 -76 76 -76 14 0 0 40 -20 59 -17 16 -26 38 -30 74 -6 44 -12 55 -36 69 l-30 17 0 186 0 185 -112 1 c-62 0 -134 4 -161 8 -50 8 -97 43 -97 71 0 26 112 129 153 141 44 12 73 40 79 77 3 15 7 32 9 39 6 16 -348 372 -377 379 -21 5 -37 -5 -103 -70 -75 -73 -81 -76 -125 -76 -26 0 -58 -7 -71 -16 -33 -22 -45 -11 -45 41 0 38 5 49 35 76 24 22 35 41 35 61 0 15 -5 28 -10 28 -6 0 -20 16 -31 35 -21 34 -22 35 -85 35 -53 0 -66 3 -70 18 -23 70 -55 86 -51 25z" fill="#565759" id="565759-000008"/>
    <path stroke="none" d="M3823 3383 c-7 -18 38 -63 63 -63 8 0 14 -4 14 -10 0 -5 5 -10 10 -10 18 0 11 15 -26 58 -39 46 -51 51 -61 25z" fill="#565759" id="565759-000009"/>
    <path stroke="none" d="M1370 3274 c0 -9 -18 -33 -40 -54 -27 -25 -37 -41 -29 -45 15 -10 114 89 105 104 -11 17 -36 13 -36 -5z" fill="#565759" id="565759-000011"/>
    <path stroke="none" d="M3570 3105 c-14 -8 -33 -14 -42 -15 -10 0 -18 -4 -18 -10 0 -5 -6 -10 -13 -10 -24 0 -67 -25 -67 -38 0 -8 8 -26 18 -40 10 -15 22 -35 25 -45 10 -28 34 -31 74 -8 21 11 54 28 75 38 34 16 36 19 31 52 -6 35 -37 91 -51 91 -4 -1 -18 -7 -32 -15z" fill="#565759" id="565759-000012"/>
    <path stroke="none" d="M670 2819 c-14 -16 -31 -29 -38 -29 -7 0 -15 -8 -19 -17 -3 -10 -13 -26 -21 -35 -20 -24 -63 -110 -57 -116 3 -3 14 3 25 13 19 17 21 17 38 2 10 -10 26 -17 35 -17 9 0 20 -7 25 -15 12 -23 41 -8 57 31 16 39 59 62 81 43 24 -20 17 -72 -16 -109 -16 -19 -29 -41 -30 -47 0 -7 -9 -13 -20 -13 -11 0 -20 -7 -20 -15 0 -8 7 -15 15 -15 8 0 15 4 15 10 0 6 9 6 25 0 15 -6 26 -6 30 0 4 6 3 10 -1 10 -5 0 9 18 30 39 34 34 43 39 72 34 29 -5 34 -3 34 15 0 11 -6 22 -12 25 -9 3 -6 11 10 24 23 21 30 68 13 101 -5 9 -14 29 -21 43 -20 43 -81 69 -158 68 -61 0 -69 -3 -92 -30z" fill="#565759" id="565759-000013"/>
    <path stroke="none" d="M447 2833 c-4 -3 -7 -14 -7 -23 0 -9 -9 -28 -21 -41 -17 -19 -22 -21 -29 -9 -6 8 -10 19 -10 23 0 10 -50 -48 -50 -58 0 -13 29 -35 47 -35 12 -1 8 -5 -12 -14 -16 -7 -36 -25 -44 -39 -8 -15 -18 -27 -23 -27 -4 0 -8 -21 -8 -47 0 -37 6 -53 27 -75 31 -33 53 -36 53 -8 0 17 7 20 45 20 39 0 45 3 45 20 0 11 6 23 14 26 29 11 25 33 -10 53 -47 28 -48 74 -1 119 18 18 41 32 50 32 25 0 22 48 -5 71 -21 19 -49 25 -61 12z" fill="#565759" id="565759-000014"/>
    <path stroke="none" d="M3740 2740 c-8 -5 -23 -11 -32 -14 -10 -3 -18 -13 -18 -21 0 -9 4 -14 9 -10 5 3 16 -2 24 -10 9 -8 25 -15 36 -15 25 0 71 -20 71 -32 0 -4 9 -8 20 -8 11 0 20 5 20 10 0 6 8 10 19 10 10 0 24 6 30 14 10 12 8 15 -11 18 -17 2 -24 11 -26 31 -4 36 -36 36 -69 1 -18 -20 -27 -23 -37 -15 -8 7 -12 21 -9 31 6 21 -3 24 -27 10z" fill="#565759" id="565759-000015"/>
    <path stroke="none" d="M4227 2674 c-3 -3 -2 -17 3 -30 10 -25 4 -54 -11 -54 -5 0 -9 -9 -9 -20 0 -23 -4 -24 -31 -9 -17 8 -24 6 -41 -17 -12 -14 -36 -33 -55 -40 -35 -15 -39 -23 -24 -52 5 -9 17 -34 26 -55 9 -21 23 -41 30 -43 16 -7 88 41 126 83 15 15 32 51 39 79 12 48 12 55 -8 89 -12 20 -22 42 -22 50 0 16 -14 27 -23 19z" fill="#565759" id="565759-000017"/>
    <path stroke="none" d="M3647 2636 c-21 -54 11 -168 59 -214 49 -46 99 -72 139 -72 26 0 33 3 29 15 -4 8 -2 15 4 15 5 0 12 -7 16 -15 3 -8 15 -15 27 -15 l21 0 -21 33 c-11 17 -27 30 -33 28 -20 -6 -61 -2 -83 8 -61 26 -73 36 -88 70 -10 21 -17 53 -17 72 0 43 -43 103 -53 75z" fill="#565759" id="565759-000018"/>
    <path stroke="none" d="M3701 2291 c-19 -12 -37 -146 -23 -164 8 -10 44 -17 105 -22 61 -4 98 -12 110 -22 24 -22 23 -93 -2 -125 l-20 -24 -115 14 c-64 9 -119 13 -122 9 -8 -7 -25 -73 -31 -118 -3 -24 0 -40 9 -45 14 -10 163 -38 273 -53 39 -5 91 -16 117 -25 59 -21 130 -37 190 -43 l46 -5 12 54 c7 29 10 69 8 88 -3 34 -4 35 -70 50 -36 8 -70 19 -74 23 -4 4 -15 7 -24 7 -9 0 -27 11 -40 25 -18 20 -21 28 -12 37 7 7 12 27 12 45 0 38 29 56 65 43 11 -4 40 -14 65 -21 25 -7 49 -16 54 -21 6 -4 24 -8 42 -8 l31 0 7 76 c8 91 1 104 -59 104 -23 0 -55 6 -71 14 -16 8 -49 17 -74 21 -25 3 -65 16 -89 27 -46 21 -98 32 -216 49 -38 5 -75 11 -81 13 -6 2 -16 1 -23 -3z" fill="#565759" id="565759-000023"/>
    <path stroke="none" d="M486 1999 c6 -70 4 -79 -17 -110 -44 -63 -57 -64 -95 -4 -15 25 -32 45 -36 45 -4 0 -8 9 -8 20 0 13 -7 20 -19 20 -11 0 -21 5 -23 11 -2 7 -17 8 -42 4 -33 -7 -37 -10 -30 -29 4 -11 10 -59 14 -106 12 -128 17 -143 49 -135 14 4 60 9 101 12 41 3 79 9 84 14 6 5 32 9 58 9 26 0 48 5 48 10 0 6 22 10 50 10 100 0 129 41 65 93 -19 15 -35 36 -35 45 0 9 -9 23 -20 30 -12 7 -20 23 -20 40 0 15 -3 38 -7 51 -5 22 -10 23 -54 18 -39 -5 -51 -3 -59 11 -7 12 -8 -5 -4 -59z" fill="#565759" id="565759-000026"/>
    <path stroke="none" d="M824 1728 c-16 -12 -31 -23 -33 -25 -6 -4 89 -191 105 -203 22 -19 17 -37 -19 -64 -53 -40 -81 -35 -120 24 -19 27 -37 47 -41 42 -4 -4 -13 -7 -19 -7 -6 0 -11 -16 -11 -35 -1 -31 2 -35 22 -32 20 3 22 -1 22 -37 0 -23 -4 -41 -10 -41 -5 0 -24 -12 -42 -27 -43 -37 -77 -55 -88 -48 -4 3 -20 24 -35 48 -31 47 -82 93 -93 82 -4 -3 2 -13 12 -21 19 -13 18 -14 -11 -14 -19 0 -33 6 -37 16 -8 21 -8 20 11 39 12 13 14 21 6 34 -14 22 -46 25 -82 6 -35 -18 -39 -33 -13 -61 10 -10 25 -35 34 -54 10 -19 29 -47 43 -62 14 -15 25 -36 25 -46 0 -11 7 -25 15 -32 9 -7 23 -28 31 -46 9 -19 20 -34 25 -34 5 0 9 -6 9 -12 0 -7 9 -24 19 -37 17 -23 20 -23 47 -8 16 8 46 23 67 32 21 9 52 29 70 44 32 27 73 56 107 76 10 6 26 17 35 25 9 8 49 30 89 50 91 46 136 73 136 82 0 4 -20 42 -45 84 -25 41 -45 79 -45 83 0 4 -17 34 -38 67 -21 32 -46 76 -55 97 -21 44 -49 49 -93 15z" fill="#565759" id="565759-000027"/>
    <path stroke="none" d="M3530 1665 c-51 -64 -52 -66 -34 -86 20 -23 53 -39 139 -69 50 -18 180 -76 247 -111 10 -5 24 -9 31 -9 8 0 22 -9 32 -20 10 -11 23 -20 30 -20 6 0 24 -13 40 -30 16 -16 32 -30 36 -30 4 0 24 34 45 75 35 73 36 76 18 90 -11 8 -23 15 -27 15 -5 0 -27 13 -50 28 -23 15 -55 34 -72 42 -16 8 -57 31 -90 50 -55 33 -103 57 -236 119 -25 11 -49 21 -52 21 -3 0 -29 -29 -57 -65z" fill="#565759" id="565759-000028"/>
    <path stroke="none" d="M3365 1414 c-49 -53 -92 -101 -94 -107 -2 -7 -29 -38 -60 -70 l-56 -59 39 -34 c22 -19 44 -34 51 -34 6 0 28 22 49 49 41 54 125 131 141 130 16 -1 111 -64 139 -92 10 -10 25 -16 34 -12 25 9 82 -14 82 -35 0 -9 7 -23 15 -30 8 -7 15 -19 15 -26 0 -17 1 -17 36 1 27 14 30 13 52 -10 18 -20 29 -24 50 -18 69 17 69 59 0 112 -29 21 -75 62 -103 91 -27 28 -76 70 -107 92 -32 22 -69 56 -83 74 -14 19 -34 34 -44 34 -10 0 -26 9 -36 20 -10 11 -21 20 -24 20 -3 -1 -46 -44 -96 -96z" fill="#565759" id="565759-000030"/>
    <path stroke="none" d="M1226 1129 l-77 -82 -39 32 c-21 17 -42 31 -45 31 -3 0 -20 13 -38 30 -28 26 -39 30 -93 30 -93 0 -150 -38 -190 -128 -9 -20 -21 -47 -27 -60 -8 -17 -8 -28 1 -42 7 -11 12 -27 12 -35 0 -33 208 -266 267 -298 18 -11 117 88 142 142 27 59 52 92 124 168 38 39 77 85 87 100 9 16 31 41 48 55 l32 26 -57 56 c-31 31 -60 56 -64 56 -4 0 -41 -37 -83 -81z" fill="#565759" id="565759-000031"/>
    <path stroke="none" d="M1035 978 c19 -17 35 -37 35 -44 0 -19 -73 -103 -90 -103 -8 -1 -31 16 -52 36 -65 64 -47 143 34 143 29 0 47 -8 73 -32z" fill="#ffffff" id="ffffff-000009"/>
    <path stroke="none" d="M3050 1115 c-29 -19 -55 -35 -59 -35 -3 0 -16 -8 -29 -18 l-22 -17 28 -35 c16 -19 46 -66 67 -105 21 -38 49 -84 62 -101 13 -17 23 -34 23 -39 0 -4 17 -30 38 -58 20 -28 48 -71 62 -96 31 -57 57 -63 112 -25 71 50 74 62 36 141 -18 37 -53 100 -78 139 -45 71 -67 107 -105 174 -45 77 -67 110 -75 110 -4 0 -31 -16 -60 -35z" fill="#565759" id="565759-000032"/>
    <path stroke="none" d="M2695 968 c-69 -23 -80 -32 -77 -65 2 -17 12 -55 23 -84 22 -62 24 -102 7 -117 -7 -6 -33 -18 -58 -27 -118 -45 -175 -84 -197 -138 -7 -16 -13 -59 -13 -96 1 -55 5 -72 28 -105 58 -83 134 -96 267 -46 27 11 66 23 155 51 41 12 83 30 94 38 19 17 19 47 -4 141 -6 25 -15 63 -19 85 -5 22 -15 60 -24 85 -27 81 -56 184 -61 223 -3 22 -10 45 -17 53 -13 16 -59 17 -104 2z" fill="#565759" id="565759-000033"/>
    <path stroke="none" d="M2715 506 c0 -44 -3 -51 -30 -67 -35 -20 -96 -24 -113 -7 -15 15 -15 69 1 88 20 25 59 39 102 37 l40 -2 0 -49z" fill="#ffffff" id="ffffff-000011"/>
    <path stroke="none" d="M1662 919 c-12 -22 -22 -47 -22 -55 0 -7 -8 -29 -17 -49 -16 -34 -18 -35 -73 -35 -31 0 -83 9 -116 20 -72 24 -82 24 -125 4 -81 -40 -109 -86 -109 -181 0 -57 5 -76 29 -116 16 -27 38 -54 49 -60 101 -58 161 -88 191 -98 20 -6 45 -14 56 -19 30 -13 88 -30 90 -28 1 2 12 29 24 61 12 32 37 92 56 133 19 41 35 80 35 87 0 7 7 22 15 33 8 10 15 29 15 41 0 12 4 24 9 27 5 3 23 43 41 88 18 46 37 87 42 93 27 30 1 52 -92 81 -66 20 -74 18 -98 -27z" fill="#565759" id="565759-000034"/>
    <path stroke="none" d="M1521 650 c24 -14 24 -52 -1 -107 -22 -50 -40 -54 -100 -23 -37 19 -40 24 -40 62 0 56 21 78 77 78 24 0 53 -5 64 -10z" fill="#ffffff" id="ffffff-000010"/>
    <path stroke="none" d="M1906 845 c-6 -16 13 -55 26 -55 5 0 8 11 8 25 0 14 0 28 1 33 1 15 -29 13 -35 -3z" fill="#565759" id="565759-000036"/>
    <path stroke="none" d="M2170 812 c0 -27 -27 -49 -42 -34 -14 14 -77 16 -97 3 -21 -14 19 -31 71 -31 72 0 84 -25 42 -91 -25 -40 -27 -41 -67 -35 -23 3 -67 9 -98 12 l-55 6 -14 -55 c-18 -79 -13 -87 60 -87 87 0 150 -19 150 -45 0 -12 5 -26 12 -33 8 -8 8 -15 -1 -26 -10 -12 -43 -16 -155 -18 l-141 -3 -7 -45 c-8 -58 -2 -79 25 -84 12 -3 113 -8 223 -11 l201 -6 8 28 c7 26 16 106 34 288 5 44 12 88 16 98 13 31 -3 64 -37 76 -24 9 -33 8 -39 -1 -11 -18 -19 -6 -26 37 -4 26 -2 40 8 45 18 12 11 17 -33 25 -34 6 -38 5 -38 -13z" fill="#565759" id="565759-000038"/>
  </g>
</svg>
