<?xml version="1.0" standalone="no"?>
<!DOCTYPE svg PUBLIC "-//W3C//DTD SVG 1.1//EN"
 "http://www.w3.org/Graphics/SVG/1.1/DTD/svg11.dtd">
<!-- Created with svg_stack (http://github.com/astraw/svg_stack) -->
<svg xmlns:sodipodi="http://sodipodi.sourceforge.net/DTD/sodipodi-0.dtd" xmlns="http://www.w3.org/2000/svg" version="1.1" width="517.0" height="494.0">
  <defs/>
  <g id="id0:id0" transform="matrix(1.25,0,0,1.25,0.0,0.0)"><g transform="translate(0.000000,395.200000) scale(0.040000,-0.040000)" fill="#292929" stroke="none">
<path d="M0 4940 l0 -4940 5170 0 5170 0 0 4940 0 4940 -5170 0 -5170 0 0 -4940z m8384 3686 c145 -38 291 -141 393 -277 36 -49 72 -89 78 -89 6 0 33 32 59 70 94 137 228 237 385 289 124 40 319 25 447 -36 62 -29 181 -128 217 -180 39 -58 94 -181 112 -253 24 -96 37 -289 25 -384 -27 -231 -173 -539 -389 -816 -75 -97 -234 -276 -268 -303 -26 -21 -25 -21 -110 45 -111 86 -357 277 -393 306 -116 93 -211 162 -224 162 -16 0 -21 -44 -31 -271 l-6 -126 38 -34 c21 -19 125 -103 231 -188 105 -85 192 -157 192 -160 0 -11 -58 -63 -130 -119 -36 -28 -78 -60 -93 -72 -52 -41 -55 -63 -57 -387 -2 -164 -5 -338 -9 -388 l-6 -90 -125 -12 c-155 -14 -237 -16 -244 -4 -3 5 4 58 15 117 12 60 23 133 26 162 l5 52 -105 0 c-72 0 -108 -4 -115 -12 -9 -12 -41 -145 -64 -263 -5 -27 -15 -55 -21 -62 -15 -14 -334 0 -350 16 -7 7 5 51 41 144 58 149 63 177 32 177 -30 0 -33 20 -21 111 12 89 23 110 55 108 11 -1 35 -1 53 -1 l31 2 42 108 c22 59 47 122 55 140 l15 33 112 -3 113 -3 -1 -30 c-1 -16 -7 -57 -14 -90 -7 -33 -13 -76 -14 -95 l-1 -35 85 2 c122 3 125 5 139 60 7 27 16 64 22 84 5 20 9 48 9 62 0 34 32 55 92 63 65 9 79 27 42 57 -132 103 -142 114 -138 154 25 258 45 735 47 1142 l2 303 -49 44 c-27 25 -54 43 -60 41 -9 -3 -16 -34 -46 -227 -6 -36 -15 -87 -20 -115 -32 -163 -42 -214 -70 -345 -17 -80 -35 -167 -40 -195 -5 -27 -19 -93 -30 -145 -12 -52 -25 -115 -30 -140 -13 -70 -27 -100 -44 -94 -31 12 -293 317 -373 434 -96 141 -223 374 -223 408 0 6 -9 16 -20 22 -14 8 -20 21 -20 45 0 19 -9 73 -20 120 -11 47 -20 106 -20 131 0 25 -7 71 -16 101 -15 50 -15 56 1 73 9 10 21 49 27 87 27 173 84 297 186 404 76 81 167 135 269 163 67 19 249 19 317 2z m-2600 -497 c-3 -5 -10 -7 -15 -3 -5 3 -7 10 -3 15 3 5 10 7 15 3 5 -3 7 -10 3 -15z m-270 -40 c-3 -5 -10 -7 -15 -3 -5 3 -7 10 -3 15 3 5 10 7 15 3 5 -3 7 -10 3 -15z m-890 -40 c-3 -5 -10 -7 -15 -3 -5 3 -7 10 -3 15 3 5 10 7 15 3 5 -3 7 -10 3 -15z m-1610 -150 c-3 -5 -10 -7 -15 -3 -5 3 -7 10 -3 15 3 5 10 7 15 3 5 -3 7 -10 3 -15z m1670 -70 c-3 -5 -10 -7 -15 -3 -5 3 -7 10 -3 15 3 5 10 7 15 3 5 -3 7 -10 3 -15z m-2290 -50 c-3 -5 -10 -7 -15 -3 -5 3 -7 10 -3 15 3 5 10 7 15 3 5 -3 7 -10 3 -15z m16 -88 c0 -65 -21 -89 -80 -93 -72 -5 -67 16 13 47 34 14 37 19 37 53 0 21 3 42 6 45 15 14 24 -7 24 -52z m923 22 c4 -3 3 -10 -2 -17 -6 -7 -10 -28 -8 -47 4 -57 -16 -48 -29 13 -6 32 -9 60 -7 62 5 4 28 -2 46 -11z m-1079 -124 c-3 -5 -10 -7 -15 -3 -5 3 -7 10 -3 15 3 5 10 7 15 3 5 -3 7 -10 3 -15z m-49 2 c3 -5 1 -13 -5 -16 -15 -9 -43 3 -35 15 8 13 32 13 40 1z m-72 -16 c3 -15 -143 -44 -263 -52 l-105 -8 -5 -48 c-3 -26 -9 -48 -15 -48 -13 0 -27 113 -16 124 29 29 397 58 404 32z m1206 -65 c-2 -28 3 -55 10 -63 7 -9 8 -18 3 -21 -6 -3 -15 1 -22 9 -7 8 -9 15 -4 15 4 0 3 5 -4 12 -12 12 -17 90 -6 101 15 15 25 -8 23 -53z m3537 5 c-2 -7 -1 -16 3 -21 7 -8 16 -79 36 -286 1 -21 -1 -41 -6 -44 -21 -12 -37 65 -42 199 -3 75 -9 142 -12 147 -3 6 -3 15 0 20 9 14 28 1 21 -15z m-6301 -35 c20 -8 24 -13 16 -27 -5 -10 -12 -26 -15 -36 -7 -22 -26 -13 -26 12 0 9 -5 22 -11 28 -6 6 -8 16 -5 22 9 13 8 13 41 1z m3399 -81 c-3 -5 -10 -7 -15 -3 -5 3 -7 10 -3 15 3 5 10 7 15 3 5 -3 7 -10 3 -15z m-2206 -34 c-1 -12 3 -29 10 -38 9 -10 10 -17 2 -22 -13 -8 -31 3 -29 18 1 7 -1 20 -5 30 -10 21 0 50 15 42 5 -4 9 -17 7 -30z m-1182 -31 c-5 -13 -10 -14 -18 -6 -6 6 -8 18 -4 28 5 13 10 14 18 6 6 -6 8 -18 4 -28z m4589 6 c-5 -8 -11 -8 -17 -2 -6 6 -7 16 -3 22 5 8 11 8 17 2 6 -6 7 -16 3 -22z m-14 -89 c-16 -75 -42 -120 -103 -177 -61 -58 -132 -87 -202 -82 -64 4 -62 21 4 34 116 23 163 63 246 211 52 94 73 99 55 14z m289 11 c0 -65 -32 -179 -62 -227 -15 -22 -56 -69 -92 -105 -50 -49 -69 -61 -78 -52 -9 9 -8 13 5 18 21 8 110 127 130 174 8 19 27 78 42 130 15 52 29 101 31 108 8 28 24 -2 24 -46z m-4852 -26 c-2 -15 -7 -28 -13 -29 -12 -2 -19 38 -10 60 9 25 27 1 23 -31z m5309 -21 c6 -27 12 -57 14 -65 3 -10 -4 -15 -21 -15 -23 0 -25 4 -28 59 -5 102 17 115 35 21z m-303 -6 c-3 -5 -10 -7 -15 -3 -5 3 -7 10 -3 15 3 5 10 7 15 3 5 -3 7 -10 3 -15z m-1750 -41 c-3 -5 -12 -4 -20 3 -7 6 -11 15 -8 21 3 5 12 4 20 -3 7 -6 11 -15 8 -21z m1779 -35 c8 -27 18 -64 22 -83 4 -19 11 -40 16 -46 5 -6 10 -42 12 -80 l2 -69 -35 0 -35 0 -13 154 c-7 84 -11 160 -8 168 9 23 22 7 39 -44z m-4398 38 c7 -12 -12 -24 -25 -16 -11 7 -4 25 10 25 5 0 11 -4 15 -9z m99 -123 c-3 -5 -14 -2 -25 8 -10 9 -16 21 -13 26 3 5 14 2 25 -8 10 -9 16 -21 13 -26z m3450 -39 c-3 -5 -10 -7 -15 -3 -5 3 -7 10 -3 15 3 5 10 7 15 3 5 -3 7 -10 3 -15z m1734 -15 c-4 -22 -145 -61 -161 -45 -7 7 -6 12 4 15 8 2 37 12 66 21 28 9 57 23 64 31 15 18 32 4 27 -22z m145 -24 c3 -11 2 -22 -3 -25 -13 -8 -33 23 -26 41 7 19 22 11 29 -16z m-3218 -64 c0 -12 -76 -38 -92 -32 -12 5 -18 38 -8 47 8 8 100 -6 100 -15z m-2711 -231 c-2 -14 -102 -48 -120 -41 -32 12 -10 41 36 47 59 8 85 6 84 -6z m1363 -507 c11 -18 3 -820 -8 -834 -5 -6 -48 -14 -97 -18 -235 -17 -269 -18 -274 -10 -6 9 4 84 23 169 6 28 13 76 16 108 l5 57 -106 0 -106 0 -14 -32 c-8 -18 -20 -60 -26 -93 -7 -33 -16 -73 -20 -90 -5 -16 -12 -49 -15 -72 -4 -23 -12 -46 -18 -51 -13 -10 -329 2 -347 13 -13 8 -6 38 47 170 48 123 53 155 24 155 -31 0 -33 15 -20 111 13 99 19 107 83 107 21 0 45 7 53 15 9 8 32 60 53 114 21 54 43 110 49 126 l11 27 110 0 c85 0 112 -3 116 -14 3 -8 -3 -49 -12 -92 -10 -44 -18 -95 -18 -114 l-1 -35 100 3 c55 2 104 7 109 12 9 9 32 103 43 175 8 59 25 73 101 81 36 4 77 10 91 15 37 11 39 10 48 -3z m5540 -12 c13 -12 37 -212 27 -227 -3 -5 -47 -9 -97 -9 -136 0 -227 -29 -295 -94 -48 -44 -62 -77 -62 -141 0 -49 4 -60 33 -91 29 -32 38 -36 87 -37 l54 -2 14 39 c22 66 23 67 146 64 l111 -3 -1 -45 c-1 -25 -6 -70 -12 -100 -6 -30 -20 -101 -30 -158 -11 -57 -24 -108 -29 -113 -6 -6 -68 -11 -139 -12 l-129 -2 0 22 c0 32 -10 37 -93 49 -105 15 -165 45 -237 118 -80 81 -101 142 -92 280 4 78 11 106 36 159 57 120 224 253 361 289 127 33 319 41 347 14z m-4604 7 c3 -5 -4 -33 -14 -63 -10 -30 -19 -62 -19 -71 0 -9 -9 -28 -20 -41 -20 -26 -19 -26 -190 -44 -82 -9 -100 -30 -100 -116 l0 -68 33 0 c17 0 49 4 70 9 49 12 52 2 30 -69 l-18 -55 -45 -8 c-25 -5 -55 -11 -67 -13 -18 -3 -23 -11 -23 -36 l0 -31 58 7 c193 22 228 24 236 16 5 -5 -3 -46 -18 -97 -34 -111 -52 -153 -68 -153 -7 0 -53 -5 -103 -11 -49 -5 -128 -14 -175 -19 -47 -5 -127 -13 -179 -19 -52 -6 -99 -7 -103 -3 -7 7 30 197 92 470 12 49 21 91 51 227 12 55 26 105 31 111 5 6 30 14 56 18 95 12 179 24 252 36 185 29 227 33 233 23z m561 -14 c5 -4 4 -47 -3 -101 -24 -198 -60 -508 -72 -618 -7 -63 -16 -120 -21 -126 -6 -8 -19 -9 -46 -2 -20 5 -55 13 -77 17 -109 22 -191 44 -203 55 -11 11 -7 38 23 152 61 237 159 601 170 632 4 10 29 11 112 6 60 -4 112 -10 117 -15z m3108 2 c6 -6 0 -75 -37 -401 -3 -30 -10 -82 -15 -115 -5 -33 -14 -114 -20 -180 -6 -66 -15 -130 -20 -142 l-9 -21 -83 20 c-86 20 -137 31 -201 44 -47 8 -51 18 -37 75 6 24 15 60 20 79 5 19 13 51 19 70 11 41 48 180 61 230 5 19 13 51 18 70 6 19 20 71 32 115 18 70 32 120 45 161 4 13 213 8 227 -5z m-2417 -6 c55 -7 116 -18 135 -23 112 -29 180 -113 180 -224 0 -67 -36 -134 -106 -195 l-56 -50 76 -128 c42 -71 73 -132 69 -135 -5 -4 -33 -16 -63 -27 -30 -12 -85 -33 -123 -47 -37 -14 -71 -26 -77 -26 -8 0 -50 83 -115 228 -23 52 -32 62 -53 62 -34 0 -51 -27 -52 -80 0 -83 -22 -212 -37 -217 -8 -3 -33 0 -56 6 -50 15 -88 25 -182 47 -95 22 -107 29 -95 57 5 12 32 87 61 167 28 80 64 180 80 222 36 97 37 125 4 138 l-25 9 21 53 c11 29 28 73 36 98 8 25 18 49 23 53 6 7 83 15 240 25 8 1 60 -5 115 -13z m1930 6 c3 -5 1 -20 -4 -33 -5 -13 -14 -43 -21 -68 -23 -87 -22 -86 -98 -98 -39 -7 -96 -12 -127 -12 -81 0 -91 -8 -104 -85 -7 -36 -9 -70 -6 -75 4 -6 38 -10 76 -10 51 0 71 -4 75 -14 3 -8 -3 -45 -13 -82 -20 -76 -26 -80 -125 -83 -62 -1 -70 -15 -99 -159 -12 -61 -27 -119 -33 -127 -10 -14 -33 -15 -179 -7 -92 4 -171 12 -177 18 -8 8 47 167 171 487 31 80 31 97 0 97 -10 0 -20 2 -23 5 -9 9 62 189 80 203 8 6 36 12 61 12 43 0 128 8 311 29 105 12 228 13 235 2z m-5160 -12 c8 -12 -53 -198 -71 -218 -7 -8 -41 -15 -86 -18 -127 -7 -113 13 -126 -190 -7 -98 -14 -229 -17 -292 -2 -63 -8 -118 -12 -122 -5 -5 -37 -4 -73 1 -174 26 -262 40 -270 45 -5 3 0 33 10 68 10 34 39 134 65 222 25 88 51 172 57 188 19 48 -1 59 -97 51 -55 -4 -84 -3 -89 4 -9 14 52 192 73 215 17 18 11 17 446 46 170 12 183 12 190 0z m8798 -14 c0 -11 -16 -62 -34 -113 -38 -108 -43 -112 -148 -112 -47 0 -72 -4 -80 -14 -13 -15 -25 -163 -36 -416 -4 -100 -10 -159 -18 -166 -8 -8 -29 -9 -67 -4 -199 29 -265 41 -272 48 -4 4 1 37 11 72 118 398 128 436 118 448 -8 10 -31 11 -92 6 -57 -5 -84 -3 -89 5 -8 12 51 198 68 218 7 8 72 17 176 24 91 6 212 15 270 19 164 11 195 9 193 -15z m-7639 7 c8 -14 -16 -886 -25 -896 -5 -5 -57 -13 -116 -18 -60 -4 -155 -12 -213 -17 -58 -5 -109 -5 -113 -1 -19 17 29 28 173 39 198 15 228 20 234 40 3 9 8 106 10 216 13 487 18 630 23 638 6 9 21 9 27 -1z m6758 -138 c-1 -76 -5 -278 -8 -447 l-7 -309 -21 -7 c-11 -5 -64 -11 -116 -15 -52 -3 -142 -11 -200 -15 -58 -5 -109 -6 -113 -2 -19 19 30 29 207 44 104 9 193 20 199 26 5 5 11 79 13 168 6 360 16 689 21 696 3 4 10 6 16 4 8 -2 11 -47 9 -143z m-5838 117 c3 -4 -8 -50 -24 -102 -17 -52 -30 -99 -30 -105 0 -22 -28 -34 -101 -44 -41 -5 -103 -14 -139 -20 -41 -6 -68 -6 -74 0 -19 19 9 29 128 49 65 11 124 25 131 31 7 5 22 43 35 83 30 99 56 137 74 108z m560 -57 c0 -39 -5 -82 -44 -424 -11 -96 -27 -236 -35 -310 -8 -74 -20 -139 -25 -144 -6 -6 -62 2 -157 23 -82 19 -168 37 -193 42 -52 11 -71 25 -46 35 10 4 92 -10 184 -30 133 -29 169 -34 178 -24 13 13 33 168 79 603 15 138 29 256 31 263 9 28 29 4 28 -34z m2621 37 c3 -5 1 -20 -4 -33 -6 -13 -20 -57 -32 -98 -12 -41 -27 -80 -33 -87 -13 -13 -277 -39 -303 -29 -35 14 6 26 127 37 146 13 148 14 180 121 27 90 47 117 65 89z m491 -4 c2 -7 -4 -90 -15 -183 -12 -93 -34 -292 -51 -443 -17 -151 -33 -278 -37 -283 -6 -12 -70 -3 -168 21 -73 19 -148 36 -202 46 -18 4 -35 11 -39 16 -14 23 40 19 194 -15 135 -30 168 -34 178 -24 8 8 21 89 33 198 11 102 25 223 31 270 5 47 17 153 25 235 9 83 18 156 20 163 6 16 24 16 31 -1z m-5690 -135 c-22 -68 -46 -124 -58 -134 -15 -13 -38 -18 -83 -18 -92 0 -91 2 -100 -230 -3 -107 -10 -240 -13 -295 l-7 -100 -55 3 c-30 1 -75 7 -100 11 -25 5 -85 14 -135 21 -107 13 -139 22 -137 35 3 15 78 10 232 -13 115 -17 137 -18 146 -6 13 16 21 122 30 392 5 129 11 195 19 202 7 6 46 13 88 16 52 5 81 12 90 23 8 9 29 59 47 111 36 107 48 126 64 110 7 -7 -1 -45 -28 -128z m8837 117 c-4 -30 -80 -238 -92 -253 -10 -12 -32 -16 -86 -16 -46 0 -76 -5 -82 -12 -6 -7 -16 -146 -23 -308 -7 -162 -16 -299 -20 -303 -4 -5 -41 -4 -81 2 -41 6 -134 20 -208 30 -74 11 -139 25 -144 30 -22 22 28 23 172 2 157 -22 217 -26 224 -13 3 4 10 138 17 297 7 160 15 293 19 297 3 4 43 10 89 14 45 4 86 12 92 19 5 6 25 56 45 109 19 54 40 105 46 113 14 16 35 12 32 -8z m-8220 -44 c-2 -56 -22 -85 -42 -61 -9 11 -10 20 -2 35 6 11 11 30 11 44 0 27 9 39 24 34 6 -2 10 -26 9 -52z m6049 -75 c10 -69 16 -129 14 -135 -2 -6 -69 -10 -177 -10 -157 0 -178 -2 -220 -21 -57 -27 -89 -66 -89 -110 0 -42 -17 -53 -32 -20 -17 39 4 99 47 132 57 43 118 57 275 63 l145 6 -3 33 c-1 19 -6 67 -10 108 -9 79 -7 86 18 82 11 -3 19 -33 32 -128z m720 125 c3 -3 1 -27 -4 -53 -11 -52 -32 -82 -47 -67 -9 9 -4 40 15 113 3 12 26 17 36 7z m-3794 -226 c-5 -82 -30 -139 -82 -188 -14 -14 -26 -33 -26 -44 0 -11 34 -76 76 -145 86 -140 86 -135 -6 -169 -30 -12 -91 -35 -135 -52 -97 -37 -120 -41 -120 -22 0 9 38 29 100 54 152 59 165 65 165 83 0 9 -34 73 -76 142 l-75 125 50 48 c65 62 91 119 91 202 0 71 8 87 28 60 10 -13 13 -40 10 -94z m-4267 -64 c0 -11 -57 -26 -66 -17 -2 3 0 11 7 19 12 15 59 14 59 -2z m8799 0 c0 -12 -49 -27 -62 -19 -5 3 -4 12 3 20 13 16 60 15 59 -1z m-3126 -81 c-3 -35 -37 -179 -46 -190 -5 -7 -39 -15 -76 -18 -103 -11 -97 -6 -122 -114 -12 -53 -28 -119 -34 -147 l-12 -50 -70 -3 c-97 -3 -370 21 -366 33 1 6 74 9 195 6 154 -3 195 -1 204 10 6 8 23 70 38 139 15 69 31 133 36 143 8 13 23 17 72 17 102 0 103 1 122 88 10 43 22 85 27 95 12 23 33 17 32 -9z m-3187 -10 c2 -5 -3 -19 -11 -29 -19 -26 -37 -9 -25 23 9 23 29 26 36 6z m4829 -108 c3 -8 -3 -61 -14 -118 -11 -57 -26 -134 -32 -173 -23 -130 -33 -159 -60 -166 -38 -11 -308 -10 -315 0 -10 17 11 21 146 27 74 4 141 10 150 15 11 6 23 44 38 126 12 65 29 154 37 198 8 44 17 86 19 93 6 16 24 15 31 -2z m-6100 -28 c4 -6 -1 -17 -11 -24 -17 -13 -23 -34 -70 -249 -10 -44 -23 -85 -29 -92 -14 -15 -192 -3 -189 12 2 6 37 12 78 15 49 3 79 10 84 19 5 7 23 81 41 165 18 83 34 154 37 159 7 11 51 8 59 -5z m6760 1 c4 -7 -2 -19 -13 -28 -15 -12 -28 -54 -53 -171 -18 -85 -37 -160 -44 -167 -14 -15 -192 -3 -189 12 2 6 36 12 77 15 41 3 78 8 81 12 8 8 25 75 56 223 12 55 23 103 26 108 7 11 51 8 59 -4z m-5344 -32 c0 -9 -46 -160 -70 -231 -20 -58 -22 -59 -174 -76 -57 -6 -139 -15 -183 -20 -222 -26 -289 -30 -298 -21 -19 19 38 30 312 60 150 17 279 35 285 41 7 5 28 60 46 122 31 105 51 143 73 135 5 -1 9 -6 9 -10z m1118 -143 c10 -26 -6 -211 -20 -227 -11 -12 -384 73 -404 93 -24 24 35 19 174 -14 83 -20 160 -36 171 -36 25 0 36 29 45 121 9 97 16 111 34 63z m2897 -121 c21 -9 61 -21 88 -27 32 -7 50 -17 50 -26 0 -40 -155 8 -217 67 -35 33 -26 50 12 23 16 -11 46 -28 67 -37z m-5779 -39 c7 -2 10 -8 7 -14 -8 -13 -182 -13 -190 -1 -11 18 25 27 97 23 40 -2 79 -5 86 -8z m6772 -9 c0 -11 -163 -20 -187 -10 -8 2 -11 10 -8 15 9 14 195 9 195 -5z m-7502 -210 c13 -12 11 -54 -19 -300 -14 -122 -26 -229 -40 -355 -6 -58 -15 -109 -19 -114 -5 -5 -37 -2 -77 7 -37 9 -99 24 -138 33 -38 8 -75 20 -81 25 -12 10 -13 6 57 269 17 63 35 131 39 150 4 19 17 69 29 110 12 41 26 95 31 119 20 82 19 82 118 75 48 -4 93 -12 100 -19z m677 -52 l69 -76 -24 -16 c-13 -9 -43 -35 -67 -57 -32 -31 -43 -49 -43 -71 0 -29 38 -97 66 -118 8 -5 25 -25 39 -44 32 -44 34 -123 5 -180 -64 -126 -284 -209 -477 -181 -45 7 -90 18 -100 25 l-18 14 35 103 36 103 52 -3 c150 -9 201 87 82 152 -71 39 -90 67 -90 136 0 68 22 107 93 160 60 46 224 128 257 129 8 0 46 -34 85 -76z m144 -7 c54 -55 82 -89 78 -99 -3 -8 -34 -24 -69 -36 -35 -12 -74 -28 -86 -37 -29 -20 -29 -65 0 -90 11 -10 38 -46 60 -78 34 -52 38 -66 38 -121 0 -85 -22 -142 -81 -208 -98 -111 -278 -172 -480 -165 -94 3 -129 14 -115 36 3 6 23 6 53 0 67 -13 229 -2 294 21 135 46 230 116 274 201 10 18 20 59 22 90 7 70 -15 122 -81 198 -71 82 -61 117 47 162 31 13 59 30 62 38 3 8 -21 41 -61 82 -57 59 -73 90 -46 90 4 0 45 -38 91 -84z m1325 54 c70 -32 134 -95 167 -165 26 -53 29 -71 29 -158 0 -53 -4 -105 -9 -115 -5 -9 -19 -42 -32 -72 -31 -72 -137 -179 -216 -218 -89 -44 -139 -54 -254 -50 -121 4 -175 25 -247 96 -67 66 -86 119 -86 232 0 244 155 423 404 470 73 14 189 4 244 -20z m3974 5 c14 -13 9 -78 -38 -460 -5 -44 -15 -131 -21 -193 -8 -72 -17 -116 -25 -119 -6 -2 -41 2 -76 11 -34 8 -97 23 -138 32 -41 9 -78 20 -82 23 -6 5 53 246 118 481 9 30 25 91 36 135 30 121 24 116 126 109 48 -4 93 -12 100 -19z m850 13 c12 -16 36 -183 29 -202 -4 -9 -35 -15 -109 -19 -118 -6 -182 -26 -239 -76 -46 -38 -69 -87 -69 -142 0 -57 50 -109 111 -116 l45 -5 14 41 c7 23 19 46 26 52 7 5 55 9 115 7 97 -3 104 -4 101 -23 -1 -11 -12 -72 -23 -135 -12 -63 -24 -134 -28 -158 -12 -67 -22 -73 -147 -75 l-109 -2 -3 28 c-3 23 -8 27 -33 27 -85 0 -196 45 -257 103 -58 55 -88 118 -96 197 -23 225 134 424 386 489 88 23 270 28 286 9z m1106 -366 c-1 -302 -4 -376 -15 -387 -16 -14 -319 -39 -331 -27 -4 4 4 72 19 150 15 78 24 144 21 147 -3 3 -44 7 -92 9 -63 3 -90 1 -99 -9 -8 -7 -27 -73 -42 -147 -16 -73 -33 -139 -39 -146 -8 -11 -40 -12 -160 -7 -83 4 -155 11 -160 16 -6 5 -2 29 11 61 44 110 73 194 73 210 0 8 -10 18 -21 21 l-22 6 7 88 c4 48 10 91 12 95 3 4 27 8 54 8 59 0 66 8 109 125 16 44 34 93 40 108 l11 28 102 -3 103 -3 -1 -30 c-1 -16 -6 -52 -13 -80 -24 -106 -25 -114 -7 -121 20 -8 157 4 175 15 7 4 21 48 32 97 28 134 26 130 111 142 40 5 84 9 98 8 l25 -1 -1 -373z m-2389 358 c7 -12 -33 -151 -49 -167 -6 -6 -62 -16 -125 -22 -63 -6 -118 -14 -122 -18 -12 -15 -29 -76 -29 -109 l0 -34 65 0 c78 0 83 -6 62 -87 -15 -64 -24 -69 -113 -72 -48 -1 -64 -16 -74 -69 -20 -101 -44 -198 -49 -204 -8 -9 -313 11 -323 21 -4 3 18 72 48 151 31 80 59 156 64 170 4 14 22 60 39 103 17 43 31 82 31 88 0 5 -11 14 -24 19 l-24 9 30 83 c16 46 31 88 33 94 2 7 62 16 152 24 81 7 173 16 203 20 81 11 198 11 205 0z m3653 -5 c39 -4 74 -11 77 -15 3 -5 -2 -66 -11 -137 -8 -70 -18 -163 -22 -205 -4 -43 -12 -82 -18 -88 -13 -13 -259 -26 -266 -14 -3 5 6 56 21 114 15 58 40 155 56 215 29 114 47 148 74 141 9 -3 49 -8 89 -11z m-5256 -24 c39 -15 70 -36 96 -67 55 -62 64 -114 35 -204 -13 -40 -29 -63 -70 -98 -29 -26 -53 -52 -53 -58 0 -5 29 -59 65 -119 36 -60 61 -113 57 -117 -14 -14 -237 -96 -244 -89 -4 4 -31 58 -59 121 -28 63 -59 124 -69 134 -18 19 -20 19 -38 3 -14 -13 -21 -37 -26 -85 -12 -140 -19 -174 -33 -179 -16 -6 -283 55 -297 68 -10 9 -3 33 64 219 95 262 103 298 66 284 -8 -3 -17 -1 -20 4 -5 9 43 156 60 183 14 24 58 29 229 25 157 -3 187 -6 237 -25z m4892 20 c7 -11 -52 -181 -68 -199 -7 -7 -46 -16 -87 -19 -41 -3 -79 -10 -85 -14 -7 -6 -16 -99 -23 -247 -7 -130 -13 -250 -14 -267 -1 -16 -7 -29 -13 -28 -12 2 -149 21 -229 32 -82 11 -84 16 -56 111 13 44 27 95 40 140 5 19 22 76 36 127 37 123 35 127 -64 118 -83 -7 -100 -1 -82 32 6 10 20 47 32 83 36 111 29 106 176 114 244 13 328 18 332 22 9 8 100 4 105 -5z m-6121 -18 c44 -9 81 -23 84 -30 3 -7 -11 -38 -30 -70 -58 -96 -80 -154 -85 -225 l-5 -67 31 -30 c34 -34 64 -39 116 -17 44 18 68 51 103 143 42 108 51 140 59 200 3 29 12 57 18 62 18 15 167 44 175 35 12 -14 -5 -251 -23 -319 -15 -57 -38 -115 -75 -194 -9 -19 -45 -65 -80 -103 -47 -51 -83 -78 -139 -106 l-76 -37 -111 0 -112 0 -54 36 c-180 120 -153 412 64 680 26 32 51 59 55 59 3 0 42 -8 85 -17z m5318 -394 c-2 -222 -7 -408 -11 -412 -4 -5 -46 -10 -94 -12 -48 -3 -90 -6 -94 -9 -18 -11 -210 -18 -216 -8 -10 17 6 21 116 26 57 3 111 7 119 10 8 2 38 6 67 9 29 2 57 8 63 14 5 5 12 173 15 388 3 209 8 386 10 393 2 8 10 12 17 9 9 -3 11 -91 8 -408z m-2396 371 c9 -14 -43 -182 -63 -202 -14 -14 -39 -18 -132 -20 -150 -4 -164 14 -20 25 58 5 110 13 117 19 6 5 24 46 39 91 15 45 29 85 31 90 6 10 21 9 28 -3z m-5683 -133 c-7 -61 -21 -186 -32 -277 -11 -91 -26 -223 -35 -295 -8 -71 -18 -132 -23 -137 -8 -8 -352 68 -366 82 -23 23 33 20 158 -9 74 -17 146 -31 160 -31 29 0 31 8 46 150 40 382 69 631 75 640 5 9 10 9 18 1 8 -8 8 -42 -1 -124z m6125 54 c-4 -36 -16 -142 -27 -236 -25 -213 -39 -338 -49 -437 -3 -43 -11 -82 -16 -87 -11 -11 -353 63 -369 79 -29 28 57 19 234 -26 30 -8 66 -14 81 -14 l26 0 11 73 c12 75 17 119 57 484 13 123 27 227 30 233 4 6 11 7 17 4 7 -4 8 -31 5 -73z m879 -27 c7 -49 13 -105 15 -124 l4 -35 -160 0 c-126 -1 -167 -4 -195 -17 -43 -20 -74 -53 -87 -93 -13 -39 -27 -38 -31 2 -2 25 5 40 32 70 52 58 121 78 268 78 64 0 120 4 124 8 4 4 2 45 -5 92 -13 88 -10 120 12 113 7 -3 17 -40 23 -94z m656 91 c11 -11 -19 -110 -33 -110 -10 0 -13 10 -11 39 5 57 25 90 44 71z m1303 -5 c4 -6 -11 -61 -32 -122 -42 -123 -48 -128 -132 -128 -29 0 -53 -6 -60 -14 -12 -14 -31 -285 -31 -449 0 -81 -3 -99 -16 -104 -21 -8 -375 44 -388 57 -20 20 26 21 164 1 181 -27 188 -27 194 2 3 12 10 135 17 272 6 138 14 253 18 257 3 4 37 8 75 10 37 1 74 7 81 13 7 5 25 46 40 90 43 122 44 125 54 125 5 0 13 -5 16 -10z m-5638 -109 c-9 -141 -41 -284 -84 -369 -41 -82 -153 -205 -237 -260 -92 -60 -149 -76 -272 -76 -81 -1 -115 3 -128 13 -27 22 -5 30 52 18 76 -16 195 3 280 45 93 46 228 180 270 268 48 98 91 294 92 411 0 48 6 62 23 52 6 -4 7 -42 4 -102z m6087 100 c3 -4 1 -44 -4 -87 -5 -43 -16 -142 -25 -219 -13 -117 -19 -142 -35 -154 -21 -14 -27 -46 -10 -56 17 -10 11 -117 -9 -160 -23 -51 -89 -111 -138 -124 -48 -14 -110 -14 -118 -1 -4 6 -10 8 -15 5 -5 -3 -11 -1 -14 4 -4 5 -2 12 3 15 5 4 12 2 15 -2 7 -12 97 3 134 22 34 18 90 78 103 113 15 39 10 105 -11 151 l-20 44 30 11 c17 6 32 18 35 27 4 14 26 192 40 335 4 33 8 66 11 73 4 14 20 16 28 3z m-7076 -119 c20 -67 15 -219 -9 -293 -62 -185 -250 -353 -436 -389 -93 -18 -238 -9 -291 19 -23 12 -40 26 -37 31 4 7 13 6 26 0 34 -19 170 -29 253 -20 124 15 271 96 356 198 117 140 150 360 76 507 -13 24 -20 47 -17 51 11 10 67 -64 79 -104z m576 69 c3 -5 -15 -49 -40 -97 -30 -58 -47 -105 -49 -134 -2 -25 -4 -47 -4 -49 -1 -2 -8 2 -16 9 -31 25 -12 104 51 217 34 61 47 73 58 54z m1324 -145 c-6 -70 -25 -114 -74 -169 l-34 -37 21 -43 c12 -23 33 -60 47 -82 14 -22 38 -61 54 -88 l28 -47 -33 -15 c-118 -51 -272 -104 -281 -95 -16 16 1 26 124 72 72 28 116 50 118 59 2 9 -27 65 -63 125 -36 60 -65 114 -65 119 0 6 18 29 41 50 50 49 66 78 80 147 14 74 17 80 30 72 8 -4 10 -28 7 -68z m4087 -56 c8 -13 -20 -24 -41 -16 -20 8 -9 26 16 26 10 0 22 -5 25 -10z m-2821 -69 c6 -10 -22 -147 -35 -171 -5 -10 -34 -19 -80 -25 -88 -12 -88 -12 -120 -170 -12 -60 -25 -113 -28 -116 -3 -4 -94 -1 -201 5 -252 14 -256 31 -8 31 l182 0 23 100 c13 55 27 116 31 135 l8 35 79 10 79 10 18 70 c10 39 20 76 23 83 5 14 21 16 29 3z m1486 -129 c0 -18 -55 -314 -68 -367 l-8 -30 -69 -8 c-91 -10 -241 -5 -238 8 2 6 63 15 137 20 74 6 137 13 140 16 3 3 21 87 40 187 20 101 38 187 41 192 9 14 25 2 25 -18z m2191 -15 c61 -41 83 -115 53 -175 -45 -91 -157 -108 -230 -36 -31 32 -34 40 -34 93 0 66 18 98 72 124 47 23 99 21 139 -6z m-1597 4 c3 -4 -3 -16 -14 -26 -11 -10 -20 -26 -20 -36 0 -23 -48 -227 -60 -257 -9 -20 -16 -23 -60 -20 -57 3 -68 21 -16 26 19 2 39 8 44 15 8 11 20 61 54 222 5 27 14 58 19 67 10 19 44 24 53 9z m-3818 -255 c-3 -55 -11 -105 -16 -110 -11 -11 -358 68 -374 84 -24 24 36 19 180 -16 121 -29 158 -34 164 -25 4 7 11 47 14 89 8 83 12 96 28 86 7 -5 9 -40 4 -108z m2669 -32 c69 -21 83 -30 69 -44 -16 -16 -139 26 -179 61 -45 40 -36 56 13 25 21 -13 65 -32 97 -42z m710 -13 c7 -12 -12 -24 -25 -16 -11 7 -4 25 10 25 5 0 11 -4 15 -9z m198 -16 c2 -11 -146 -20 -170 -11 -8 3 -11 11 -8 16 8 14 174 9 178 -5z m-6245 -218 l22 -23 -31 -23 -31 -23 -19 18 c-22 20 -25 44 -7 62 18 18 42 14 66 -11z m1500 0 l21 -23 -34 -27 -34 -27 -20 26 c-24 30 -26 45 -9 62 19 19 53 14 76 -11z m2606 2 c-3 -5 -10 -7 -15 -3 -5 3 -7 10 -3 15 3 5 10 7 15 3 5 -3 7 -10 3 -15z m-4496 -1 c17 -17 15 -32 -10 -63 l-21 -27 -18 23 c-30 38 -19 79 21 79 9 0 21 -5 28 -12z m3543 2 c30 -17 25 -62 -10 -88 l-30 -22 -21 35 c-21 33 -21 37 -6 60 18 27 36 31 67 15z m3917 -2 c22 -22 14 -63 -17 -86 l-29 -21 -16 24 c-30 46 -15 95 29 95 12 0 26 -5 33 -12z m-6227 -17 l23 -18 -23 -13 c-18 -9 -29 -9 -48 -1 l-25 12 17 19 c22 25 27 25 56 1z m384 -11 c3 -5 -4 -14 -16 -21 -16 -8 -28 -8 -48 1 l-26 12 23 19 c24 19 51 14 67 -11z m4223 18 c20 -20 14 -45 -15 -63 l-26 -18 -14 19 c-24 33 -9 74 27 74 9 0 21 -5 28 -12z m-6200 -34 c2 -11 -6 -31 -17 -45 l-19 -24 -21 19 c-21 19 -28 56 -14 70 4 4 21 6 38 4 22 -2 31 -9 33 -24z m155 4 c8 -12 7 -24 -2 -45 l-13 -28 -24 28 c-19 23 -22 32 -13 48 12 23 37 22 52 -3z m1178 1 c9 -18 7 -25 -13 -46 l-24 -24 -23 25 c-19 20 -21 28 -12 45 15 28 57 28 72 0z m3334 1 c33 -36 -18 -67 -60 -37 l-18 14 21 21 c27 27 34 27 57 2z m1225 5 c10 -12 9 -20 -5 -41 l-17 -26 -19 18 c-22 20 -24 35 -7 52 16 16 33 15 48 -3z m1480 0 c14 -17 7 -43 -13 -51 -7 -2 -26 0 -42 6 l-28 11 23 24 c27 29 42 31 60 10z m803 -6 c24 -39 -33 -70 -63 -34 -10 13 -9 19 6 36 20 22 42 22 57 -2z m-8405 -1 c18 -18 15 -42 -7 -62 l-20 -18 -16 33 c-16 31 -16 33 1 46 22 16 27 16 42 1z m1345 -9 c15 -24 -18 -75 -38 -59 -21 18 -28 49 -14 66 15 18 38 15 52 -7z m4471 0 c-3 -5 -10 -7 -15 -3 -5 3 -7 10 -3 15 3 5 10 7 15 3 5 -3 7 -10 3 -15z m-2775 -15 c-6 -7 -15 -11 -21 -8 -5 3 -4 12 3 20 6 7 15 11 21 8 5 -3 4 -12 -3 -20z m6132 -53 c-13 -23 -40 -28 -59 -9 -15 15 -15 29 -2 64 l11 28 30 -31 c27 -26 29 -33 20 -52z m-382 43 c27 -34 13 -67 -27 -62 -31 3 -40 34 -22 67 14 28 24 26 49 -5z m-4885 -25 c13 -25 13 -31 1 -35 -21 -8 -35 4 -35 30 0 20 7 36 16 36 1 0 9 -14 18 -31z m656 -41 c0 -10 -11 -24 -25 -30 -36 -16 -61 8 -50 49 12 41 12 42 14 50 2 14 61 -52 61 -69z m-4730 37 c19 -20 22 -30 14 -42 -18 -29 -41 -38 -58 -24 -18 16 -20 30 -6 65 12 32 20 32 50 1z m3464 -21 c5 -14 -26 -54 -42 -54 -5 0 -17 9 -26 19 -16 18 -16 21 -1 50 l16 31 23 -16 c14 -8 27 -22 30 -30z m4520 -2 c-20 -31 -44 -3 -29 35 5 15 7 15 23 0 13 -14 14 -21 6 -35z m-2980 -64 c8 -13 8 -23 0 -35 -17 -27 -47 -27 -73 1 l-23 24 29 16 c34 19 52 17 67 -6z m2696 8 c6 -8 10 -25 8 -38 -4 -34 -47 -36 -77 -4 l-23 24 29 16 c36 19 48 20 63 2z m805 -6 c20 -22 15 -44 -14 -59 -16 -9 -25 -6 -48 14 l-28 25 24 20 c29 25 43 25 66 0z m-2390 -20 c-5 -8 -11 -8 -17 -2 -6 6 -7 16 -3 22 5 8 11 8 17 2 6 -6 7 -16 3 -22z m315 -1 c0 -12 -38 -31 -43 -22 -3 5 -1 19 4 32 8 19 12 21 24 11 8 -7 15 -16 15 -21z m745 11 c28 0 36 -9 26 -29 -12 -22 -75 -20 -79 3 -6 29 7 51 20 38 7 -7 22 -12 33 -12z m-7006 -27 c-15 -18 -34 -1 -25 22 5 14 9 15 21 5 12 -10 13 -16 4 -27z m1336 7 c-5 -8 -11 -8 -17 -2 -6 6 -7 16 -3 22 5 8 11 8 17 2 6 -6 7 -16 3 -22z m2145 -4 c-17 -22 -32 -9 -19 16 8 14 14 17 22 9 7 -7 6 -15 -3 -25z m1204 13 c-3 -5 -10 -7 -15 -3 -5 3 -7 10 -3 15 3 5 10 7 15 3 5 -3 7 -10 3 -15z m464 5 c10 -3 10 -9 2 -24 -8 -16 -17 -19 -38 -14 -35 8 -46 19 -39 37 5 13 34 14 75 1z m627 -14 c-5 -8 -11 -8 -17 -2 -6 6 -7 16 -3 22 5 8 11 8 17 2 6 -6 7 -16 3 -22z m1619 9 c-3 -5 -10 -7 -15 -3 -5 3 -7 10 -3 15 3 5 10 7 15 3 5 -3 7 -10 3 -15z m790 0 c-3 -5 -10 -7 -15 -3 -5 3 -7 10 -3 15 3 5 10 7 15 3 5 -3 7 -10 3 -15z m-8000 -10 c-3 -5 -10 -7 -15 -3 -5 3 -7 10 -3 15 3 5 10 7 15 3 5 -3 7 -10 3 -15z m6390 0 c-3 -5 -10 -7 -15 -3 -5 3 -7 10 -3 15 3 5 10 7 15 3 5 -3 7 -10 3 -15z m-6739 -59 l17 -19 -31 -31 c-17 -17 -35 -29 -40 -26 -17 11 -20 61 -4 79 21 22 36 22 58 -3z m3443 8 c20 -20 14 -46 -14 -65 l-26 -17 -14 19 c-25 34 -11 75 26 75 9 0 21 -5 28 -12z m1266 -7 c21 -23 12 -47 -25 -67 -26 -13 -30 -13 -34 1 -3 8 -7 22 -10 31 -6 18 21 54 40 54 7 0 19 -8 29 -19z m1776 -52 c0 -32 -19 -31 -33 3 -8 18 -12 37 -10 41 8 13 43 -24 43 -44z m488 -34 c-4 -37 -36 -45 -63 -15 l-18 20 17 37 17 36 25 -24 c18 -17 24 -32 22 -54z m-3090 1 c-4 -28 -34 -44 -55 -30 -25 15 -28 41 -8 70 l17 26 24 -23 c14 -13 24 -32 22 -43z m2290 0 c-4 -28 -34 -44 -55 -30 -25 15 -28 52 -7 75 l17 19 24 -22 c13 -12 23 -31 21 -42z m169 48 c7 -20 -14 -67 -27 -59 -11 7 -14 58 -3 68 11 12 23 8 30 -9z m-4617 -50 c0 -18 -27 -36 -47 -32 -25 5 -28 32 -7 63 l18 27 18 -24 c9 -12 18 -28 18 -34z m1892 31 c14 -30 -5 -57 -36 -53 -28 4 -34 47 -10 65 25 18 33 16 46 -12z m2290 0 c14 -30 -5 -57 -36 -53 -27 4 -32 34 -10 59 23 25 32 24 46 -6z m798 11 c18 -23 8 -61 -17 -64 -31 -5 -47 28 -27 56 18 26 27 27 44 8z m2048 -20 c5 -37 -10 -51 -37 -37 -20 11 -29 50 -14 65 17 17 48 0 51 -28z m370 21 c9 -10 10 -42 3 -75 -1 -2 -14 6 -31 18 -28 20 -38 48 -23 63 11 11 40 8 51 -6z m-8734 -47 c24 -50 23 -67 -4 -49 -8 5 -29 9 -46 9 -17 0 -33 3 -37 6 -10 11 37 84 55 84 4 0 19 -22 32 -50z m192 -12 c-9 -35 -41 -72 -55 -64 -9 6 -9 11 -1 21 8 10 8 19 0 35 -9 17 -8 27 5 47 l17 25 20 -20 c14 -14 19 -27 14 -44z m3478 37 c22 -33 20 -58 -5 -81 -19 -17 -23 -17 -47 -3 -37 20 -40 53 -6 84 33 31 38 31 58 0z m181 -12 c0 -41 -15 -44 -36 -7 -19 34 -15 46 14 42 17 -2 22 -10 22 -35z m3537 20 c24 -21 23 -50 -2 -63 -21 -11 -47 -3 -69 23 -9 12 -7 19 15 36 32 25 33 25 56 4z m192 -8 c25 -38 21 -74 -10 -85 -31 -12 -60 1 -69 31 -5 15 1 29 21 50 34 35 37 36 58 4z m184 -9 c5 -44 -13 -54 -33 -17 -17 35 -12 54 13 49 10 -2 18 -15 20 -32z m442 -17 c0 -25 -35 -43 -58 -30 -36 19 -44 37 -24 53 9 9 24 18 32 20 19 7 50 -20 50 -43z m-8421 12 c12 -16 21 -34 21 -41 0 -14 -68 -43 -85 -36 -24 9 9 106 36 106 4 0 17 -13 28 -29z m1339 -25 c-4 -26 -40 -33 -58 -12 -10 13 -9 20 5 42 l17 26 19 -18 c11 -10 19 -27 17 -38z m3567 19 c0 -26 -4 -30 -31 -33 -19 -2 -36 3 -44 13 -18 22 14 57 49 53 22 -2 26 -8 26 -33z m177 8 c25 -23 24 -79 -3 -93 -49 -27 -92 48 -52 92 20 22 31 23 55 1z m1897 -7 c29 -31 24 -66 -11 -85 -24 -14 -28 -14 -47 3 -27 24 -27 54 1 83 27 29 29 29 57 -1z m-1638 4 c25 -14 25 -62 -1 -85 -18 -16 -21 -17 -45 -1 -34 22 -44 65 -20 83 22 16 40 17 66 3z m1909 -23 l15 -28 -28 -25 c-34 -29 -41 -30 -67 -4 -19 19 -27 69 -13 84 4 4 23 6 42 4 27 -2 39 -10 51 -31z m-6461 -4 c12 -22 -3 -53 -26 -53 -9 0 -25 7 -35 17 -17 15 -17 17 -2 35 21 23 50 23 63 1z m1655 -54 c-3 -5 -10 -7 -15 -3 -5 3 -7 10 -3 15 3 5 10 7 15 3 5 -3 7 -10 3 -15z m-671 -44 c-4 -22 -161 -50 -179 -32 -6 6 8 13 71 35 37 13 111 11 108 -3z m-2014 -51 c-12 -13 -26 -21 -31 -18 -5 4 0 17 13 30 12 13 26 21 31 18 5 -4 0 -17 -13 -30z m1815 5 c-3 -5 -10 -7 -15 -3 -5 3 -7 10 -3 15 3 5 10 7 15 3 5 -3 7 -10 3 -15z m-840 -80 c-3 -5 -10 -7 -15 -3 -5 3 -7 10 -3 15 3 5 10 7 15 3 5 -3 7 -10 3 -15z m647 -21 c-13 -10 -28 -15 -33 -12 -6 4 -1 14 13 25 31 23 49 11 20 -13z m-1280 -5 c-1 -4 -4 -8 -8 -8 -21 0 -114 -63 -159 -107 -60 -58 -76 -51 -35 14 21 33 43 51 85 71 32 15 66 29 76 30 11 2 23 6 26 10 8 8 16 3 15 -10z m357 -39 l53 -23 39 -85 c22 -47 50 -92 62 -99 29 -18 276 -21 297 -4 16 14 43 -18 39 -46 -3 -17 -19 -19 -179 -23 l-175 -4 -43 82 c-46 89 -124 177 -178 203 -18 9 -31 20 -28 26 8 11 45 3 113 -27z m815 -54 c-31 -38 -60 -67 -65 -64 -10 6 -5 13 60 92 24 28 48 50 53 47 4 -3 -17 -37 -48 -75z m-1639 49 c-3 -5 -10 -7 -15 -3 -5 3 -7 10 -3 15 3 5 10 7 15 3 5 -3 7 -10 3 -15z m2839 -112 c-3 -5 -29 15 -59 44 -29 29 -50 57 -47 62 3 5 29 -15 59 -44 29 -29 50 -57 47 -62z m-1609 52 c-3 -5 -10 -7 -15 -3 -5 3 -7 10 -3 15 3 5 10 7 15 3 5 -3 7 -10 3 -15z m987 -4 c-3 -5 -40 -22 -82 -36 -132 -44 -198 -95 -261 -204 -69 -118 -102 -238 -113 -402 -5 -82 -3 -108 10 -132 19 -39 3 -49 -21 -13 -54 80 6 433 95 564 82 120 269 244 356 235 11 -1 18 -6 16 -12z m-652 -81 c-6 -7 -15 -11 -21 -8 -5 3 -4 12 3 20 6 7 15 11 21 8 5 -3 4 -12 -3 -20z m4436 7 c0 -9 -22 -19 -65 -28 -114 -23 -148 -2 -45 28 70 20 110 20 110 0z m-1986 -27 c-6 -7 -15 -11 -21 -8 -5 3 -4 12 3 20 6 7 15 11 21 8 5 -3 4 -12 -3 -20z m-1475 -46 c-3 -5 -12 -4 -20 3 -7 6 -11 15 -8 21 3 5 12 4 20 -3 7 -6 11 -15 8 -21z m3130 -39 c-3 -5 -10 -7 -15 -3 -5 3 -7 10 -3 15 3 5 10 7 15 3 5 -3 7 -10 3 -15z m-49 -25 c-10 -7 -22 -11 -28 -7 -6 3 -3 11 8 19 10 7 22 11 28 7 6 -3 3 -11 -8 -19z m-5445 -88 c-13 -57 -22 -152 -27 -258 -6 -165 -14 -203 -32 -156 -15 39 -24 285 -13 331 6 23 16 64 23 90 13 53 47 103 60 90 4 -4 -1 -48 -11 -97z m6904 95 c3 -4 -3 -16 -14 -26 -23 -21 -47 -8 -37 19 7 17 42 22 51 7z m151 -6 c0 -11 -79 -19 -102 -11 -8 3 -11 11 -8 16 8 14 110 9 110 -5z m168 -13 c14 -15 15 -21 4 -36 -11 -16 -14 -15 -34 12 -12 17 -19 32 -16 36 11 11 30 6 46 -12z m-3089 -13 c-3 -5 -10 -7 -15 -3 -5 3 -7 10 -3 15 3 5 10 7 15 3 5 -3 7 -10 3 -15z m1218 -53 c-27 -28 -66 -75 -86 -104 -21 -28 -42 -50 -47 -47 -15 10 58 112 125 177 58 56 65 34 8 -26z m-1258 45 c3 -4 -18 -24 -47 -44 -29 -20 -66 -50 -81 -66 -34 -36 -52 -31 -32 7 19 37 58 72 103 93 45 21 50 22 57 10z m416 -25 c47 -24 81 -70 100 -137 19 -68 38 -76 197 -81 89 -3 146 -1 152 5 7 7 15 6 26 -3 18 -15 20 -49 3 -54 -7 -3 -89 -7 -181 -10 l-168 -6 -19 43 c-53 115 -127 210 -191 243 -16 8 -27 19 -24 24 8 13 48 3 105 -24z m2013 -119 c-3 -5 -38 24 -79 64 -40 40 -70 77 -67 82 3 5 38 -24 79 -64 40 -40 70 -77 67 -82z m-4069 112 c-3 -5 -10 -7 -15 -3 -5 3 -7 10 -3 15 3 5 10 7 15 3 5 -3 7 -10 3 -15z m2460 -61 c-4 -6 -14 -1 -25 13 -23 31 -11 49 13 20 10 -13 15 -28 12 -33z m-3650 1 c-3 -5 -10 -7 -15 -3 -5 3 -7 10 -3 15 3 5 10 7 15 3 5 -3 7 -10 3 -15z m6906 -13 c-13 -13 -35 7 -25 24 5 8 11 8 21 -1 10 -8 12 -15 4 -23z m-2285 9 c0 -5 -25 -18 -55 -27 -143 -45 -227 -117 -297 -253 -55 -107 -84 -229 -89 -380 -2 -66 -4 -122 -4 -125 0 -3 -7 4 -15 14 -18 23 -20 130 -5 222 14 84 63 250 88 299 46 89 153 184 272 242 45 22 105 27 105 8z m-3111 -46 c-3 -5 -10 -7 -15 -3 -5 3 -7 10 -3 15 3 5 10 7 15 3 5 -3 7 -10 3 -15z m-1516 -40 c-1 -13 -7 -23 -13 -22 -13 3 -18 30 -11 50 10 24 29 1 24 -28z m-763 -9 c10 -16 -16 -43 -28 -31 -11 11 -2 41 12 41 5 0 13 -5 16 -10z m8589 -11 c-3 -5 -10 -7 -15 -3 -5 3 -7 10 -3 15 3 5 10 7 15 3 5 -3 7 -10 3 -15z m208 -127 c57 -55 53 -77 -5 -26 -23 19 -68 56 -99 81 -32 25 -55 50 -52 55 7 11 93 -50 156 -110z m-8206 73 c10 -26 -6 -38 -27 -19 -10 9 -16 21 -13 25 8 14 34 10 40 -6z m5178 -26 c-3 -5 -10 -7 -15 -3 -5 3 -7 10 -3 15 3 5 10 7 15 3 5 -3 7 -10 3 -15z m944 -20 c-1 -13 -7 -23 -13 -22 -13 3 -18 30 -11 50 10 24 29 1 24 -28z m-4743 -90 c-20 -108 -52 -212 -83 -269 -75 -139 -256 -242 -400 -227 -50 5 -142 47 -184 85 -33 28 -8 31 49 5 51 -22 68 -24 148 -21 111 5 159 26 242 106 111 109 141 153 173 258 17 53 30 103 30 111 0 25 21 56 31 46 6 -6 3 -42 -6 -94z m-1377 50 c-1 -13 -7 -23 -13 -22 -13 3 -18 30 -11 50 10 24 29 1 24 -28z m2768 -51 c-10 -45 -19 -143 -23 -256 -3 -100 -10 -185 -15 -188 -17 -11 -28 50 -34 186 -5 89 -3 154 3 178 6 20 16 59 23 87 12 55 38 91 53 76 6 -6 3 -37 -7 -83z m4648 43 c3 -5 -1 -14 -8 -20 -16 -13 -32 2 -21 19 8 12 22 13 29 1z m-1306 -75 c-2 -31 -7 -57 -13 -59 -11 -2 -20 97 -10 121 12 32 26 -6 23 -62z m-6724 3 c-3 -5 -10 -7 -15 -3 -5 3 -7 10 -3 15 3 5 10 7 15 3 5 -3 7 -10 3 -15z m4650 0 c-3 -5 -10 -7 -15 -3 -5 3 -7 10 -3 15 3 5 10 7 15 3 5 -3 7 -10 3 -15z m3780 -30 c-3 -5 -10 -7 -15 -3 -5 3 -7 10 -3 15 3 5 10 7 15 3 5 -3 7 -10 3 -15z m40 -10 c-3 -5 -10 -7 -15 -3 -5 3 -7 10 -3 15 3 5 10 7 15 3 5 -3 7 -10 3 -15z m-8155 -3 c9 -10 9 -16 1 -21 -13 -8 -42 14 -34 26 8 13 20 11 33 -5z m2001 -30 c-5 -15 -10 -42 -10 -59 0 -64 -32 -184 -69 -262 -44 -92 -91 -145 -211 -233 -69 -52 -90 -63 -120 -62 -19 1 -38 2 -42 1 -14 -2 -18 -1 -18 4 0 3 1 4 3 4 11 -6 118 68 184 128 l82 74 74 152 c41 84 80 179 87 212 7 33 18 66 23 73 16 21 29 -2 17 -32z m6259 -57 c15 -44 -6 -45 -28 -2 -10 21 -28 46 -40 57 -11 10 -18 23 -15 28 9 14 71 -49 83 -83z m-3935 60 c-3 -5 -10 -7 -15 -3 -5 3 -7 10 -3 15 3 5 10 7 15 3 5 -3 7 -10 3 -15z m-740 -38 c3 -5 -5 -16 -19 -25 -25 -17 -41 -7 -31 19 6 16 42 20 50 6z m565 -65 c14 -17 11 -91 -4 -91 -5 0 -11 16 -13 35 -2 19 -8 40 -13 46 -9 11 -2 24 11 24 4 0 13 -6 19 -14z m-4915 -28 c-3 -5 -12 -4 -20 3 -7 6 -11 15 -8 21 3 5 12 4 20 -3 7 -6 11 -15 8 -21z m1648 -42 c-3 -5 -18 5 -33 24 -16 18 -25 38 -22 43 3 6 18 -5 34 -24 15 -18 25 -38 21 -43z m-381 20 c-1 -3 8 -18 19 -32 11 -15 17 -31 13 -37 -3 -5 -13 0 -24 14 -9 13 -15 27 -13 31 2 3 0 9 -6 13 -6 4 -8 11 -4 16 6 10 16 6 15 -5z m5030 -88 c-15 -98 -68 -250 -108 -309 -35 -53 -109 -112 -183 -146 -41 -20 -77 -27 -142 -31 l-87 -4 -65 32 c-69 35 -220 165 -210 181 3 5 33 -16 67 -47 82 -76 151 -106 242 -106 111 -1 171 28 270 126 44 45 95 102 111 127 29 42 84 204 84 246 0 25 11 36 24 23 6 -6 5 -37 -3 -92z m-4548 -41 c-3 -5 -27 13 -54 39 -26 26 -46 52 -42 57 3 5 27 -13 54 -39 26 -26 46 -52 42 -57z m-1669 61 c-3 -5 -12 -4 -20 3 -7 6 -11 15 -8 21 3 5 12 4 20 -3 7 -6 11 -15 8 -21z m40 -30 c-3 -5 -12 -4 -20 3 -7 6 -11 15 -8 21 3 5 12 4 20 -3 7 -6 11 -15 8 -21z m480 11 c-10 -17 -83 -49 -89 -40 -3 5 14 20 37 34 42 23 65 26 52 6z m720 -10 c-3 -5 -10 -7 -15 -3 -5 3 -7 10 -3 15 3 5 10 7 15 3 5 -3 7 -10 3 -15z m3590 -30 c-3 -5 -10 -7 -15 -3 -5 3 -7 10 -3 15 3 5 10 7 15 3 5 -3 7 -10 3 -15z m3522 -34 c-2 -14 -6 -26 -11 -28 -9 -2 -15 43 -8 56 9 15 22 -4 19 -28z m-3811 -6 c-4 -5 -14 -5 -26 1 -11 6 -17 15 -14 21 4 5 14 5 26 -1 11 -6 17 -15 14 -21z m2012 13 c-14 -25 -20 -51 -18 -77 3 -53 -37 -212 -71 -282 -42 -87 -80 -129 -202 -220 -86 -64 -104 -74 -135 -72 -20 2 -42 0 -49 -5 -7 -4 -17 -4 -22 -1 -13 8 -2 27 13 22 25 -8 125 58 200 131 70 68 86 92 143 206 35 71 71 154 80 185 9 31 20 60 24 65 5 5 6 15 3 22 -6 17 15 46 28 38 5 -3 8 -8 6 -12z m-5263 -13 c-3 -5 -10 -7 -15 -3 -5 3 -7 10 -3 15 3 5 10 7 15 3 5 -3 7 -10 3 -15z m-1550 -10 c-3 -5 -10 -7 -15 -3 -5 3 -7 10 -3 15 3 5 10 7 15 3 5 -3 7 -10 3 -15z m1204 -133 l-3 -131 -25 1 c-86 4 -197 18 -207 27 -7 5 -13 24 -13 43 0 41 -15 51 -41 28 -24 -21 -86 -33 -211 -41 -110 -6 -137 -1 -118 22 9 11 34 15 94 15 112 0 208 34 278 98 40 37 51 22 43 -59 l-7 -69 28 -10 c15 -6 51 -10 78 -8 l51 3 11 115 c6 63 12 117 13 119 0 2 8 -2 16 -9 13 -11 15 -36 13 -144z m7406 -69 c-4 -84 -12 -199 -18 -257 -7 -58 -9 -119 -5 -137 9 -43 -15 -68 -37 -38 -18 24 -18 36 6 315 21 233 30 287 51 275 6 -5 8 -57 3 -158z m-1274 -37 c0 -110 4 -181 10 -185 6 -4 8 -11 5 -16 -7 -11 -72 -12 -79 -1 -2 4 -1 40 4 80 5 39 14 122 21 184 6 62 13 116 16 121 16 27 23 -26 23 -183z m-1706 139 c-3 -5 -10 -7 -15 -3 -5 3 -7 10 -3 15 3 5 10 7 15 3 5 -3 7 -10 3 -15z m-1572 -63 c-3 -5 -18 5 -34 23 -16 18 -26 37 -22 42 3 6 18 -4 34 -23 15 -18 25 -37 22 -42z m-2339 -18 c-3 -6 -20 5 -39 23 -18 18 -31 36 -27 41 3 6 20 -5 39 -23 18 -18 31 -36 27 -41z m5247 -61 c0 -99 17 -282 29 -307 4 -8 5 -40 2 -70 -6 -50 -8 -55 -31 -55 -35 0 -39 -32 -5 -45 34 -13 23 -30 -19 -30 -55 0 -61 16 -48 133 10 89 16 155 36 404 3 29 7 57 11 63 16 26 25 -8 25 -93z m-5206 42 c-3 -5 -10 -7 -15 -3 -5 3 -7 10 -3 15 3 5 10 7 15 3 5 -3 7 -10 3 -15z m50 -30 c-3 -5 -10 -7 -15 -3 -5 3 -7 10 -3 15 3 5 10 7 15 3 5 -3 7 -10 3 -15z m2845 -5 c-6 -7 -15 -11 -21 -8 -5 3 -4 12 3 20 6 7 15 11 21 8 5 -3 4 -12 -3 -20z m-515 -15 c-3 -5 -10 -7 -15 -3 -5 3 -7 10 -3 15 3 5 10 7 15 3 5 -3 7 -10 3 -15z m467 -21 c-26 -20 -37 -22 -46 -9 -6 11 46 40 59 33 5 -3 -1 -13 -13 -24z m753 11 c-3 -5 -10 -7 -15 -3 -5 3 -7 10 -3 15 3 5 10 7 15 3 5 -3 7 -10 3 -15z m-302 -178 c3 -124 1 -145 -13 -154 -11 -7 -48 -6 -120 4 l-104 14 -6 38 c-8 48 -13 53 -41 35 -13 -8 -41 -18 -63 -21 -22 -4 -60 -11 -85 -16 -51 -12 -173 -14 -183 -4 -4 3 -2 12 4 20 8 9 35 13 83 13 111 0 243 47 287 103 10 12 23 18 33 14 14 -5 15 -17 10 -75 -4 -44 -3 -72 4 -76 17 -11 99 -19 125 -12 l24 6 7 127 c4 70 10 131 13 136 14 24 22 -20 25 -152z m-2638 128 c-3 -5 -10 -7 -15 -3 -5 3 -7 10 -3 15 3 5 10 7 15 3 5 -3 7 -10 3 -15z m2050 -10 c-3 -5 -10 -7 -15 -3 -5 3 -7 10 -3 15 3 5 10 7 15 3 5 -3 7 -10 3 -15z m-2269 2 c7 -12 -12 -24 -25 -16 -11 7 -4 25 10 25 5 0 11 -4 15 -9z m1649 -12 c-3 -5 -10 -7 -15 -3 -5 3 -7 10 -3 15 3 5 10 7 15 3 5 -3 7 -10 3 -15z m1630 -91 c-3 -5 -12 -4 -20 3 -7 6 -11 15 -8 21 3 5 12 4 20 -3 7 -6 11 -15 8 -21z m79 -80 c-3 -6 -20 5 -39 23 -18 18 -31 36 -27 41 3 6 20 -5 39 -23 18 -18 31 -36 27 -41z m2111 42 c37 -6 73 -13 79 -17 6 -4 23 -7 37 -7 14 -1 27 -5 29 -11 6 -12 -24 -19 -47 -10 -9 3 -51 8 -93 10 -83 5 -134 19 -124 35 8 12 31 12 119 0z m-2080 -61 c-3 -5 -10 -7 -15 -3 -5 3 -7 10 -3 15 3 5 10 7 15 3 5 -3 7 -10 3 -15z m3530 -10 c-9 -10 -21 -16 -26 -13 -5 3 -2 14 8 25 9 10 21 16 26 13 5 -3 2 -14 -8 -25z m-1044 -53 c0 -18 -3 -36 -7 -39 -3 -4 -8 -35 -10 -70 -3 -39 -10 -66 -19 -74 -37 -28 -254 -29 -774 -3 -250 12 -261 14 -239 34 11 12 42 12 169 5 325 -19 554 -22 680 -10 123 12 150 21 150 47 0 7 5 25 11 41 7 15 11 43 10 60 -2 18 0 37 4 43 11 18 25 0 25 -34z m140 -183 c0 -29 6 -53 16 -65 15 -16 15 -18 1 -24 -39 -15 -52 -1 -55 59 -3 57 10 93 29 81 5 -3 9 -26 9 -51z"/>
<path d="M8268 8065 c-95 -50 -218 -192 -218 -252 0 -18 30 -16 76 6 85 40 247 88 339 100 70 9 71 30 3 91 -29 27 -58 49 -64 50 -6 0 -17 7 -24 15 -18 21 -58 18 -112 -10z"/>
<path d="M8029 7723 c-10 -11 -14 -45 -14 -112 1 -108 18 -159 88 -266 48 -74 215 -245 239 -245 9 0 19 8 22 18 13 46 46 191 51 227 l7 41 -84 54 c-98 65 -223 186 -258 253 -28 52 -31 54 -51 30z"/>
<path d="M4166 5925 c-17 -18 -29 -83 -24 -140 3 -36 6 -40 32 -43 84 -10 161 82 126 149 -23 42 -105 63 -134 34z"/>
<path d="M2445 4771 c-47 -28 -82 -76 -90 -120 -9 -52 0 -78 38 -118 26 -27 38 -33 74 -33 62 0 117 31 148 83 29 51 34 120 9 156 -35 49 -125 65 -179 32z m120 -66 c0 -5 -13 -11 -30 -13 -43 -4 -76 -33 -84 -73 -9 -43 -25 -40 -29 4 -2 25 4 43 24 66 24 29 31 32 73 29 25 -2 46 -7 46 -13z"/>
<path d="M4414 4802 c-16 -10 -29 -157 -16 -166 19 -11 94 12 119 36 33 33 35 94 4 120 -23 18 -86 24 -107 10z"/>
</g>
</g>
  <g id="id1:id1" transform="matrix(1.25,0,0,1.25,0.0,0.0)"><g transform="translate(0.000000,395.200000) scale(0.040000,-0.040000)" fill="#fdfdfd" stroke="none">
<path d="M1971 6181 c-64 -11 -108 -23 -115 -33 -6 -8 -20 -61 -30 -117 -11 -56 -25 -106 -31 -111 -7 -6 -48 -11 -91 -13 l-79 -2 3 30 c5 43 19 53 31 22 8 -21 17 -27 40 -27 39 0 60 38 63 117 l3 58 -29 3 c-22 3 -34 -3 -47 -19 -9 -13 -15 -28 -12 -35 2 -7 0 -15 -6 -18 -6 -4 -8 -13 -5 -20 7 -17 -12 -30 -21 -16 -4 6 -2 17 4 24 6 7 8 16 5 19 -3 3 -3 11 2 18 10 17 14 73 5 87 -6 9 -43 12 -137 10 l-129 -3 -17 -35 c-10 -19 -35 -80 -56 -135 l-38 -100 -40 -3 c-92 -6 -97 -14 -110 -169 l-7 -83 28 -10 c20 -8 25 -15 20 -28 -13 -32 -57 -147 -80 -211 -13 -36 -21 -70 -18 -77 2 -7 18 -17 35 -23 l31 -11 -21 -23 c-24 -26 -29 -55 -9 -62 27 -9 433 -23 447 -15 15 8 19 21 61 220 15 71 30 114 46 134 34 41 27 60 -24 64 -48 4 -85 -12 -77 -32 7 -17 -12 -31 -21 -16 -4 6 -2 17 4 24 6 7 8 16 4 19 -3 4 0 13 7 22 14 17 165 22 175 5 5 -8 -26 -181 -52 -296 -8 -34 39 -57 80 -39 22 9 50 -1 41 -16 -3 -6 -17 -9 -30 -6 -14 2 -29 -2 -38 -12 -20 -23 -29 -58 -16 -66 6 -4 113 1 238 11 179 13 231 21 245 33 19 18 22 85 29 671 l3 265 -33 3 c-24 2 -38 -2 -47 -15 l-14 -18 -6 20 c-19 59 -22 60 -164 36z m177 -487 c-2 -27 -7 -49 -13 -49 -11 0 -19 79 -10 103 11 30 26 -5 23 -54z m-593 -204 c-5 -8 -11 -8 -17 -2 -6 6 -7 16 -3 22 5 8 11 8 17 2 6 -6 7 -16 3 -22z m-20 -90 c-5 -8 -11 -8 -17 -2 -6 6 -7 16 -3 22 5 8 11 8 17 2 6 -6 7 -16 3 -22z m-11 -41 c-3 -5 -10 -7 -15 -3 -5 3 -7 10 -3 15 3 5 10 7 15 3 5 -3 7 -10 3 -15z m-13 -53 c-6 -7 -8 -15 -5 -19 3 -3 0 -15 -6 -27 -9 -16 -19 -20 -46 -18 -40 4 -50 21 -14 26 24 4 60 28 58 41 -2 16 3 22 12 16 8 -5 8 -11 1 -19z m629 -2 c0 -17 -24 -29 -40 -19 -8 5 -6 13 6 26 18 20 34 17 34 -7z m-95 -13 c7 -12 -12 -24 -25 -16 -11 7 -4 25 10 25 5 0 11 -4 15 -9z m-84 -16 c0 -5 -7 -12 -16 -13 -23 -5 -47 6 -40 19 8 13 56 8 56 -6z m-656 -4 c7 -12 -12 -24 -25 -16 -11 7 -4 25 10 25 5 0 11 -4 15 -9z"/>
<path d="M8835 6193 c-16 -2 -37 -6 -45 -10 -8 -3 -43 -7 -77 -8 -74 -4 -101 -17 -109 -53 -3 -15 -10 -49 -16 -77 -6 -27 -15 -68 -22 -90 l-11 -40 -78 -9 c-90 -11 -104 -4 -86 40 l11 29 15 -22 c28 -41 85 -23 99 31 3 13 6 45 7 72 l2 49 -28 3 c-17 2 -36 -3 -47 -13 -20 -18 -35 -6 -26 23 12 38 -5 43 -140 40 l-129 -3 -17 -35 c-9 -19 -34 -80 -55 -135 l-38 -100 -57 -5 c-31 -3 -59 -8 -63 -12 -10 -10 -23 -75 -30 -160 l-7 -78 26 -10 c29 -11 29 -11 17 -42 -48 -118 -91 -241 -91 -261 0 -19 8 -28 32 -36 l31 -11 -21 -23 c-24 -26 -29 -55 -9 -62 33 -11 432 -22 447 -13 10 6 23 43 34 92 10 44 22 99 27 121 5 22 12 56 16 75 3 19 17 48 30 63 39 47 27 67 -40 67 -37 0 -51 -8 -61 -34 -5 -14 -10 -16 -17 -9 -8 8 -6 20 6 42 l16 32 82 -3 82 -3 -1 -30 c-1 -27 -6 -56 -34 -190 -5 -22 -11 -57 -15 -77 l-7 -37 33 -9 c21 -5 40 -5 50 1 20 12 53 1 43 -14 -3 -6 -16 -9 -29 -7 -29 6 -50 -10 -59 -45 -5 -20 -2 -29 8 -33 9 -3 120 3 247 14 185 15 235 23 244 35 12 17 31 910 19 928 -9 15 -56 10 -76 -7 -19 -18 -23 -14 -30 30 -3 22 -11 24 -53 19z m-403 -155 c-6 -6 -8 -16 -6 -23 7 -16 -12 -29 -21 -15 -3 5 -3 16 2 23 4 6 8 15 9 20 1 4 2 10 3 13 0 3 6 2 12 -2 7 -4 7 -10 1 -16z m476 -369 c-2 -19 -7 -33 -13 -32 -12 3 -19 49 -10 71 10 26 27 -2 23 -39z m-598 -184 c-7 -8 -9 -15 -6 -15 4 0 4 -5 1 -10 -4 -6 -11 -8 -16 -4 -6 4 -6 10 0 18 6 7 8 16 5 19 -3 3 -3 11 1 17 5 8 10 9 18 1 7 -7 6 -15 -3 -26z m-15 -85 c-5 -8 -11 -8 -17 -2 -6 6 -7 16 -3 22 5 8 11 8 17 2 6 -6 7 -16 3 -22z m-11 -41 c-3 -5 -10 -7 -15 -3 -5 3 -7 10 -3 15 3 5 10 7 15 3 5 -3 7 -10 3 -15z m-13 -53 c-6 -7 -8 -15 -5 -19 3 -3 0 -15 -6 -27 -9 -16 -19 -20 -46 -18 -40 4 -50 21 -14 26 24 4 60 28 58 41 -2 16 3 22 12 16 8 -5 8 -11 1 -19z m629 -2 c0 -17 -24 -29 -40 -19 -8 5 -6 13 6 26 18 20 34 17 34 -7z m-95 -13 c7 -12 -12 -24 -25 -16 -11 7 -4 25 10 25 5 0 11 -4 15 -9z m-70 -16 c0 -12 -40 -19 -61 -11 -9 3 -12 11 -9 16 8 14 70 9 70 -5z m-660 -4 c3 -5 1 -13 -5 -16 -15 -9 -43 3 -35 15 8 13 32 13 40 1z"/>
<path d="M2740 6154 c-124 -18 -232 -34 -241 -34 -23 0 -33 -29 -84 -265 -25 -115 -52 -237 -60 -270 -41 -176 -66 -307 -61 -320 3 -8 16 -15 30 -15 33 0 42 -16 16 -30 -13 -7 -20 -21 -20 -42 l0 -31 93 7 c219 16 567 62 581 76 25 25 107 302 94 317 -12 15 -54 8 -79 -13 -21 -19 -30 -7 -18 24 14 37 4 52 -35 52 -37 0 -57 16 -32 26 18 7 38 68 29 90 -11 30 -68 8 -84 -33 -16 -42 -29 -14 -16 35 9 33 9 47 -1 63 -11 17 -9 20 10 28 13 4 65 14 115 21 51 7 98 18 103 25 15 18 80 223 80 251 0 20 -5 24 -27 24 -16 0 -33 -4 -39 -8 -11 -7 -37 -49 -40 -64 -1 -5 -3 -10 -4 -13 -1 -3 -4 -9 -5 -15 -1 -5 -4 -12 -5 -15 -1 -3 -4 -9 -5 -15 -1 -5 -4 -12 -5 -15 -4 -8 -7 -24 -9 -40 -1 -17 -37 -38 -51 -30 -6 4 3 20 20 36 16 17 29 33 29 37 -1 4 0 10 1 15 1 4 4 12 5 17 1 6 4 12 5 15 1 3 4 10 5 15 1 6 3 11 5 13 2 3 8 31 16 80 l6 37 -48 -1 c-27 0 -150 -16 -274 -35z m125 -233 c3 -5 1 -13 -5 -16 -15 -9 -43 3 -35 15 8 13 32 13 40 1z m-101 -20 c3 -4 -3 -16 -13 -25 -21 -19 -37 -7 -27 19 6 16 32 20 40 6z m-4 -114 c-4 -5 -16 -7 -26 -5 -20 4 -29 30 -19 56 5 13 10 11 30 -13 13 -17 20 -34 15 -38z m127 -171 c-4 -12 -85 -29 -105 -21 -18 7 -5 25 18 25 11 0 24 9 30 20 10 19 12 19 36 4 13 -9 23 -22 21 -28z m-173 -27 c-3 -5 -10 -7 -15 -3 -5 3 -7 10 -3 15 3 5 10 7 15 3 5 -3 7 -10 3 -15z m259 -162 c-4 -7 -8 -15 -9 -19 -1 -5 -2 -11 -3 -14 0 -3 -6 -2 -11 1 -6 4 -7 12 -3 18 4 7 8 15 9 20 1 4 2 10 3 13 0 3 6 2 11 -1 6 -4 7 -12 3 -18z m-38 -127 c-4 -6 -14 -10 -23 -9 -10 1 -20 1 -24 0 -14 -2 -18 -1 -18 4 0 3 3 6 8 6 4 1 16 8 27 15 21 15 42 4 30 -16z m-231 -31 c-3 -5 -10 -7 -15 -3 -5 3 -7 10 -3 15 3 5 10 7 15 3 5 -3 7 -10 3 -15z m-180 -20 c-3 -5 -10 -7 -15 -3 -5 3 -7 10 -3 15 3 5 10 7 15 3 5 -3 7 -10 3 -15z"/>
<path d="M3353 6179 c-6 -8 -18 -43 -27 -79 -9 -36 -26 -99 -37 -140 -30 -109 -59 -220 -69 -260 -4 -19 -15 -60 -23 -90 -69 -247 -70 -257 -29 -266 84 -18 102 -39 34 -39 l-37 0 0 -34 0 -35 105 -24 c58 -12 153 -34 212 -47 97 -22 138 -24 138 -6 0 3 7 62 15 131 9 69 20 163 25 210 12 110 37 329 51 450 15 128 11 164 -19 168 -13 2 -32 -4 -41 -12 -21 -19 -31 -12 -31 24 0 15 -6 32 -12 38 -7 5 -65 13 -128 17 -92 6 -118 4 -127 -6z m231 -580 c-3 -5 -10 -7 -15 -3 -5 3 -7 10 -3 15 3 5 10 7 15 3 5 -3 7 -10 3 -15z m-10 -80 c-3 -5 -10 -7 -15 -3 -5 3 -7 10 -3 15 3 5 10 7 15 3 5 -3 7 -10 3 -15z m-10 -100 c-3 -5 -10 -7 -15 -3 -5 3 -7 10 -3 15 3 5 10 7 15 3 5 -3 7 -10 3 -15z m-10 -70 c-3 -5 -10 -7 -15 -3 -5 3 -7 10 -3 15 3 5 10 7 15 3 5 -3 7 -10 3 -15z m-259 -39 c4 -6 10 -8 15 -5 5 3 11 1 14 -4 4 -5 2 -12 -3 -15 -5 -4 -12 -2 -16 4 -4 6 -11 8 -16 5 -12 -8 -31 4 -24 16 8 12 22 12 30 -1z m79 -31 c-3 -5 -10 -7 -15 -3 -5 3 -7 10 -3 15 3 5 10 7 15 3 5 -3 7 -10 3 -15z m174 -15 c-4 -21 -45 -31 -61 -15 -7 7 -5 12 9 17 10 4 23 14 28 22 11 18 29 1 24 -24z m-123 17 c7 -12 -12 -24 -25 -16 -11 7 -4 25 10 25 5 0 11 -4 15 -9z m39 -22 c-3 -5 -10 -7 -15 -3 -5 3 -7 10 -3 15 3 5 10 7 15 3 5 -3 7 -10 3 -15z"/>
<path d="M6085 6179 c-44 -4 -163 -15 -265 -23 -234 -21 -236 -21 -248 -54 -6 -15 -24 -64 -42 -109 -32 -83 -34 -113 -6 -113 8 0 17 -4 20 -9 4 -5 -17 -69 -45 -143 -27 -73 -57 -151 -64 -173 -8 -22 -32 -87 -54 -144 -22 -58 -37 -109 -34 -113 3 -5 17 -14 31 -20 l27 -10 -22 -15 c-15 -10 -23 -26 -23 -43 l0 -27 63 -6 c34 -4 141 -9 237 -13 l176 -7 12 27 c6 15 12 33 12 41 0 8 12 64 26 126 31 126 33 129 133 129 35 0 62 5 68 13 5 6 15 39 22 72 7 33 17 70 22 83 23 59 8 102 -37 102 -15 0 -49 -35 -49 -50 0 -6 -3 -10 -7 -10 -7 0 -10 4 -7 13 9 35 5 65 -12 83 -14 15 -17 24 -9 29 6 4 64 12 128 17 119 10 142 18 142 47 0 9 7 36 16 61 42 119 53 168 38 181 -33 27 -94 -24 -99 -84 -2 -21 -21 -42 -28 -30 -2 4 0 19 6 33 5 14 11 32 13 40 1 8 7 33 13 54 5 22 8 44 5 48 -6 9 -46 9 -159 -3z m120 -229 c-17 -33 -31 -44 -45 -35 -6 4 1 20 17 40 32 40 49 37 28 -5z m-90 -35 c0 -12 -50 -19 -71 -11 -9 3 -12 11 -9 16 8 14 80 9 80 -5z m-154 -12 c-1 -4 -4 -8 -8 -8 -5 -1 -18 -6 -29 -12 -26 -15 -26 -47 1 -67 18 -13 18 -15 3 -21 -25 -10 -54 -1 -49 16 2 8 5 23 7 34 1 11 3 22 4 25 1 3 3 12 4 20 0 8 11 15 23 15 12 0 25 4 29 8 8 8 16 3 15 -10z m23 -104 c-3 -5 -10 -7 -15 -3 -5 3 -7 10 -3 15 3 5 10 7 15 3 5 -3 7 -10 3 -15z m50 -160 c-3 -5 -10 -7 -15 -3 -5 3 -7 10 -3 15 3 5 10 7 15 3 5 -3 7 -10 3 -15z m-13 -57 c-7 -25 -12 -27 -54 -27 -56 0 -68 19 -15 23 25 2 41 10 48 23 15 28 30 14 21 -19z m-157 -20 c2 -4 -6 -18 -19 -30 -28 -27 -41 -15 -19 16 16 23 29 28 38 14z m-40 -93 c-3 -5 -10 -7 -15 -3 -5 3 -7 10 -3 15 3 5 10 7 15 3 5 -3 7 -10 3 -15z m-30 -120 c-3 -5 -10 -7 -15 -3 -5 3 -7 10 -3 15 3 5 10 7 15 3 5 -3 7 -10 3 -15z m-11 -52 c-4 -7 -6 -19 -5 -29 4 -20 -14 -32 -35 -24 -14 6 -13 10 7 31 13 14 20 25 16 25 -4 0 -4 5 -1 10 4 6 11 8 16 4 5 -3 6 -11 2 -17z m-258 -26 c7 -12 -12 -24 -25 -16 -11 7 -4 25 10 25 5 0 11 -4 15 -9z m180 -16 c0 -11 -69 -19 -92 -11 -8 3 -11 11 -8 16 8 14 100 9 100 -5z"/>
<path d="M6445 6139 c-17 -56 -54 -198 -100 -379 -14 -58 -30 -114 -35 -125 -5 -11 -11 -31 -13 -45 -3 -14 -15 -61 -27 -105 -32 -120 -33 -122 -20 -130 6 -4 31 -12 56 -18 51 -13 60 -34 13 -29 -34 4 -59 -12 -59 -38 0 -30 22 -39 171 -71 271 -58 273 -59 287 -44 14 13 115 871 110 930 -2 23 -9 31 -26 33 -13 2 -32 -4 -41 -12 -22 -20 -31 -12 -31 30 0 18 -6 34 -14 37 -8 3 -68 9 -134 13 l-120 7 -17 -54z m249 -530 c-3 -5 -10 -7 -15 -3 -5 3 -7 10 -3 15 3 5 10 7 15 3 5 -3 7 -10 3 -15z m-29 -269 c-5 -8 -11 -8 -17 -2 -6 6 -7 16 -3 22 5 8 11 8 17 2 6 -6 7 -16 3 -22z m-260 -30 c4 -6 10 -8 15 -5 5 3 11 1 14 -4 4 -5 2 -12 -3 -15 -5 -4 -12 -2 -16 4 -4 6 -11 8 -16 5 -12 -8 -31 4 -24 16 8 12 22 12 30 -1z m108 -26 c4 -1 10 -2 13 -3 3 0 2 -6 -1 -11 -5 -8 -11 -7 -21 1 -8 6 -14 8 -14 5 0 -4 -5 -4 -10 -1 -6 4 -8 11 -4 16 3 5 11 6 17 2 7 -4 15 -8 20 -9z m145 -20 c-4 -20 -30 -29 -56 -19 -13 5 -11 10 13 30 31 25 49 20 43 -11z m-84 -5 c-3 -5 -10 -7 -15 -3 -5 3 -7 10 -3 15 3 5 10 7 15 3 5 -3 7 -10 3 -15z"/>
<path d="M7315 6171 c-83 -21 -157 -52 -201 -86 -18 -14 -36 -25 -41 -25 -16 0 -111 -104 -141 -155 -93 -154 -84 -378 19 -490 39 -42 41 -55 7 -55 -22 0 -22 -3 -2 -43 34 -66 74 -97 173 -132 68 -24 105 -20 120 11 10 22 9 30 -5 45 -15 17 -16 19 0 25 22 9 46 -13 46 -42 0 -17 6 -24 18 -24 30 0 33 -11 12 -38 -23 -28 -26 -58 -7 -64 14 -6 332 9 363 17 18 4 24 19 39 97 9 51 26 138 36 193 11 55 22 126 26 158 l6 57 -36 0 c-37 0 -52 -17 -48 -57 1 -11 -3 -24 -8 -28 -15 -9 -26 24 -15 44 5 9 9 34 9 56 l0 40 -134 3 c-80 1 -138 -1 -145 -8 -7 -5 -18 -28 -25 -50 -13 -45 -28 -55 -67 -46 -33 9 -88 62 -78 77 4 7 14 2 28 -15 11 -14 32 -27 46 -28 23 -3 24 0 25 48 0 62 18 86 84 111 39 15 74 18 225 16 l179 -1 -7 56 c-18 163 -31 239 -44 255 -22 25 -68 22 -75 -4 -8 -32 -27 -13 -27 27 0 72 -5 74 -153 73 -90 0 -154 -6 -202 -18z m405 -252 c0 -27 -5 -42 -16 -46 -19 -7 -41 11 -25 21 6 4 11 20 11 35 0 15 3 31 6 34 14 13 24 -6 24 -44z m-185 -29 c8 -13 -20 -24 -41 -16 -20 8 -9 26 16 26 10 0 22 -5 25 -10z m119 -11 c-3 -5 -10 -7 -15 -3 -5 3 -7 10 -3 15 3 5 10 7 15 3 5 -3 7 -10 3 -15z m-191 -3 c-1 -6 -19 -15 -40 -21 -63 -19 -120 -53 -146 -86 -14 -18 -27 -27 -31 -21 -11 19 57 84 119 114 58 27 102 33 98 14z m220 -379 c-4 -7 -6 -22 -5 -34 2 -11 -2 -24 -7 -28 -15 -9 -25 21 -15 43 7 16 10 25 13 38 0 3 6 2 11 -1 6 -4 7 -12 3 -18z m-19 -98 c-3 -5 -10 -7 -15 -3 -5 3 -7 10 -3 15 3 5 10 7 15 3 5 -3 7 -10 3 -15z m-4 -49 c0 -10 -4 -21 -10 -25 -5 -3 -7 -12 -4 -19 3 -8 1 -17 -5 -20 -14 -9 -25 14 -13 26 6 6 8 17 5 24 -7 19 5 47 17 39 5 -3 10 -15 10 -25z m-25 -123 c-10 -39 -28 -49 -82 -45 -62 4 -62 22 0 26 31 2 50 8 53 18 14 45 15 47 25 37 6 -6 7 -22 4 -36z"/>
<path d="M4023 6171 c-63 -4 -97 -11 -106 -21 -8 -8 -33 -64 -55 -125 -41 -109 -42 -135 -6 -135 24 0 24 -16 -2 -86 -32 -87 -83 -231 -94 -264 -4 -14 -20 -56 -34 -95 -14 -38 -26 -76 -26 -83 0 -7 16 -20 36 -28 l36 -15 -21 -23 c-24 -25 -27 -49 -8 -64 21 -18 431 -111 443 -101 6 5 16 48 22 97 17 128 17 145 4 169 -7 13 -8 24 -3 28 9 5 28 -19 30 -38 2 -16 50 -104 63 -114 10 -9 45 0 148 39 140 51 160 62 160 82 0 7 -31 65 -70 130 -38 65 -70 122 -70 126 0 5 21 24 46 42 96 68 132 213 80 316 -51 100 -127 140 -311 161 -94 11 -112 12 -262 2z m247 -277 c19 -22 2 -36 -23 -19 -24 15 -40 10 -50 -18 -4 -10 -11 -15 -17 -12 -13 8 -13 38 1 52 15 15 76 14 89 -3z m-74 -79 c8 -19 33 -19 55 1 27 24 31 0 5 -25 -31 -29 -89 -34 -94 -8 -8 38 22 65 34 32z m-5 -320 c19 -43 16 -63 -8 -44 -11 10 -19 10 -33 1 -25 -15 -33 -2 -25 45 11 64 13 67 32 52 9 -8 24 -32 34 -54z m-56 -145 c-5 -8 -11 -8 -17 -2 -6 6 -7 16 -3 22 5 8 11 8 17 2 6 -6 7 -16 3 -22z m-300 -43 c10 -8 14 -16 9 -19 -14 -9 -56 11 -49 22 8 13 18 13 40 -3z m289 -29 c-5 -7 -7 -20 -6 -30 4 -22 -15 -33 -32 -19 -8 7 -18 10 -24 9 -5 -2 -10 2 -10 7 0 6 4 9 9 7 16 -4 50 18 44 29 -10 14 5 33 17 21 6 -6 7 -16 2 -24z m-230 1 c-3 -5 -10 -7 -15 -3 -5 3 -7 10 -3 15 3 5 10 7 15 3 5 -3 7 -10 3 -15z m109 -15 c4 -1 10 -2 13 -3 3 0 2 -6 -1 -11 -5 -8 -11 -7 -21 1 -8 6 -14 8 -14 5 0 -4 -5 -4 -10 -1 -6 4 -8 11 -4 16 3 5 11 6 17 2 7 -4 15 -8 20 -9z"/>
<path d="M830 6160 c-52 -4 -156 -11 -230 -15 -172 -9 -193 -15 -213 -63 -32 -75 -74 -207 -70 -219 3 -9 32 -13 94 -13 71 0 91 -3 95 -15 4 -8 2 -21 -4 -28 -6 -6 -11 -16 -12 -22 -3 -24 -15 -70 -62 -230 -58 -194 -63 -228 -33 -233 35 -7 40 -21 17 -42 -23 -22 -29 -54 -12 -65 11 -7 403 -65 442 -65 15 0 29 4 32 9 3 4 12 140 21 301 9 177 20 299 26 307 7 7 32 13 59 13 41 0 110 16 110 25 0 2 20 61 45 132 54 153 56 173 18 173 -16 0 -33 -4 -39 -8 -10 -6 -41 -67 -49 -94 -2 -5 -4 -10 -5 -13 -1 -3 -4 -9 -5 -15 -1 -5 -3 -11 -4 -12 -2 -2 -4 -14 -7 -27 -10 -57 -27 -76 -67 -76 -46 0 -54 19 -9 23 26 3 35 10 49 40 9 20 17 40 18 45 2 4 4 9 5 12 1 3 4 10 5 15 1 6 3 11 5 13 1 1 3 11 4 22 2 11 11 39 21 62 27 66 19 73 -72 71 -43 -1 -121 -4 -173 -8z m63 -295 c-1 -5 -13 -12 -25 -13 -13 -2 -31 -11 -40 -19 -16 -14 -18 -14 -24 1 -10 27 15 47 55 44 20 -2 35 -7 34 -13z m-75 -186 c-2 -36 -7 -63 -13 -62 -11 3 -19 107 -10 131 12 33 26 -7 23 -69z m-13 -189 c-5 -8 -11 -8 -17 -2 -6 6 -7 16 -3 22 5 8 11 8 17 2 6 -6 7 -16 3 -22z m-7 -201 l-3 -44 -37 0 c-42 0 -52 17 -16 25 15 4 24 14 26 30 8 70 35 60 30 -11z m-323 12 c7 -12 -12 -24 -25 -16 -11 7 -4 25 10 25 5 0 11 -4 15 -9z m80 -10 c7 -12 -12 -24 -25 -16 -11 7 -4 25 10 25 5 0 11 -4 15 -9z m60 -10 c3 -5 1 -13 -5 -16 -15 -9 -43 3 -35 15 8 13 32 13 40 1z m69 -22 c-3 -5 -10 -7 -15 -3 -5 3 -7 10 -3 15 3 5 10 7 15 3 5 -3 7 -10 3 -15z"/>
<path d="M9605 6158 c-60 -4 -172 -12 -248 -16 -100 -6 -141 -12 -152 -23 -20 -19 -97 -239 -91 -256 4 -9 30 -13 95 -13 49 0 92 -4 95 -9 4 -5 1 -22 -5 -38 -7 -15 -13 -37 -15 -48 -1 -11 -28 -103 -58 -204 -64 -210 -67 -231 -33 -231 13 0 27 -3 31 -7 4 -4 13 -8 19 -8 25 0 16 -20 -9 -20 -36 -1 -62 -53 -34 -70 12 -8 410 -65 450 -65 l27 0 7 108 c3 59 9 193 12 297 4 105 11 198 16 208 7 13 22 17 72 17 46 0 70 5 85 18 19 16 111 261 111 297 0 10 -11 15 -34 15 -27 0 -39 -7 -55 -29 -11 -15 -18 -31 -15 -34 3 -3 0 -16 -7 -29 -7 -12 -12 -26 -11 -30 1 -3 -9 -32 -22 -65 l-24 -58 -56 -1 c-31 -1 -59 -4 -63 -8 -3 -3 -18 -6 -33 -6 -14 0 -31 -5 -38 -12 -9 -9 -13 -7 -18 5 -10 27 6 38 50 36 22 -1 48 1 56 4 8 4 30 8 49 9 19 2 38 10 43 18 14 25 41 94 45 114 2 11 8 25 14 33 6 7 9 13 5 13 -3 0 1 17 9 37 9 20 13 43 11 50 -6 15 -103 15 -281 1z m3 -609 c-2 -24 -7 -44 -13 -44 -12 0 -19 69 -10 93 11 29 26 -4 23 -49z m-14 -266 c-8 -34 -12 -38 -41 -38 -38 0 -45 17 -11 25 13 3 24 15 26 25 7 41 12 49 24 37 8 -8 9 -23 2 -49z m-239 8 c7 -12 -12 -24 -25 -16 -11 7 -4 25 10 25 5 0 11 -4 15 -9z m60 -10 c3 -5 1 -13 -5 -16 -15 -9 -43 3 -35 15 8 13 32 13 40 1z m69 -22 c-3 -5 -10 -7 -15 -3 -5 3 -7 10 -3 15 3 5 10 7 15 3 5 -3 7 -10 3 -15z"/>
<path d="M4620 6038 c1 -7 7 -24 15 -38 9 -15 14 -53 15 -97 0 -91 -22 -142 -89 -208 -28 -27 -51 -55 -51 -62 0 -8 32 -66 71 -131 39 -64 73 -120 75 -124 6 -10 -25 -25 -137 -67 -53 -20 -107 -44 -120 -52 -21 -15 -22 -19 -11 -44 15 -33 33 -31 157 16 44 17 105 40 135 51 30 11 62 23 70 27 27 14 22 50 -13 104 -53 81 -117 192 -117 203 0 6 11 21 25 34 14 13 37 44 52 69 24 41 27 57 27 141 1 85 -2 99 -23 130 -28 41 -50 60 -68 60 -7 0 -13 -6 -13 -12z"/>
<path d="M359 5796 c-17 -37 -5 -56 36 -56 25 0 44 8 61 25 35 36 26 49 -34 53 -47 3 -53 1 -63 -22z"/>
<path d="M9154 5795 c-26 -40 -12 -58 42 -52 52 5 84 29 77 58 -4 15 -14 19 -54 19 -41 0 -51 -4 -65 -25z"/>
<path d="M8605 5047 c-180 -26 -173 -21 -195 -132 -24 -118 -25 -120 -49 -123 -12 -2 -29 -1 -38 2 -14 6 -14 8 -1 24 23 26 42 134 26 144 -28 17 -81 -2 -72 -26 3 -8 1 -17 -5 -20 -13 -8 -26 13 -14 25 5 5 7 25 5 44 l-4 35 -119 0 c-137 0 -120 13 -174 -136 -19 -53 -40 -103 -46 -111 -6 -7 -30 -13 -53 -13 -22 0 -46 -4 -52 -8 -13 -8 -34 -119 -34 -179 0 -30 5 -44 21 -54 l20 -14 -32 -85 c-17 -47 -40 -107 -50 -133 l-18 -48 22 -9 c12 -4 30 -11 41 -14 17 -6 17 -8 -8 -31 -28 -26 -32 -40 -16 -50 14 -8 380 -26 401 -20 16 5 23 26 48 135 31 139 42 174 56 190 17 19 20 46 5 55 -16 10 -1 25 25 25 38 0 38 -2 6 -160 -6 -30 -14 -74 -17 -97 l-6 -42 28 -7 c45 -11 47 -14 19 -40 -41 -38 -28 -49 56 -49 94 0 362 24 370 33 8 8 29 544 29 730 l0 132 -29 0 c-16 0 -34 -7 -41 -15 -16 -19 -30 -10 -30 20 0 31 -5 33 -75 22z m-331 -249 c-9 -13 -34 -9 -40 7 -4 8 -3 23 1 32 6 16 8 15 25 -7 10 -13 16 -28 14 -32z m424 -232 c-2 -31 -7 -57 -13 -59 -11 -2 -20 97 -10 121 12 32 26 -6 23 -62z m-504 -55 c3 -5 -1 -14 -9 -21 -8 -7 -13 -16 -10 -20 3 -5 1 -11 -4 -14 -5 -4 -12 -2 -15 3 -4 5 -2 12 4 16 6 4 8 11 5 16 -7 11 2 29 15 29 5 0 11 -4 14 -9z m-42 -143 c-6 -6 -8 -16 -6 -23 7 -16 -12 -29 -21 -15 -3 5 -3 16 2 23 4 6 8 15 9 20 1 4 2 10 3 13 0 3 6 2 12 -2 7 -4 7 -10 1 -16z m532 -136 c-11 -16 -31 -23 -47 -14 -4 2 3 14 15 27 26 27 50 17 32 -13z m-563 -14 c-11 -30 -27 -42 -42 -33 -7 5 -6 12 4 23 8 10 17 26 21 36 4 13 10 16 17 9 6 -6 6 -18 0 -35z m414 3 c3 -5 1 -13 -5 -16 -15 -9 -43 3 -35 15 8 13 32 13 40 1z m-630 -10 c3 -5 1 -13 -5 -16 -15 -9 -43 3 -35 15 8 13 32 13 40 1z m510 0 c3 -5 1 -13 -5 -16 -15 -9 -43 3 -35 15 8 13 32 13 40 1z"/>
<path d="M375 5036 c-7 -6 -36 -99 -64 -206 -61 -233 -87 -333 -112 -421 -11 -36 -19 -80 -19 -97 0 -28 4 -32 35 -38 19 -3 38 -10 40 -15 3 -4 12 -6 19 -3 8 3 17 1 20 -5 9 -13 -13 -26 -25 -14 -16 16 -68 3 -75 -20 -9 -29 13 -42 104 -62 42 -9 114 -26 159 -36 141 -34 162 -29 163 41 1 19 20 204 43 410 23 207 41 383 39 393 -4 20 -51 24 -70 5 -12 -12 -14 -9 -16 27 -1 11 -12 25 -26 31 -34 16 -197 23 -215 10z m199 -577 c-3 -5 -10 -7 -15 -3 -5 3 -7 10 -3 15 3 5 10 7 15 3 5 -3 7 -10 3 -15z m-10 -70 c-3 -5 -10 -7 -15 -3 -5 3 -7 10 -3 15 3 5 10 7 15 3 5 -3 7 -10 3 -15z m-230 -160 c-3 -5 -10 -7 -15 -3 -5 3 -7 10 -3 15 3 5 10 7 15 3 5 -3 7 -10 3 -15z m40 -10 c-3 -5 -10 -7 -15 -3 -5 3 -7 10 -3 15 3 5 10 7 15 3 5 -3 7 -10 3 -15z m50 -10 c-3 -5 -10 -7 -15 -3 -5 3 -7 10 -3 15 3 5 10 7 15 3 5 -3 7 -10 3 -15z m116 -10 c-11 -20 -45 -26 -55 -10 -6 10 45 40 58 34 4 -2 2 -13 -3 -24z"/>
<path d="M1105 5024 c-217 -90 -305 -172 -305 -284 0 -73 26 -114 100 -155 60 -33 71 -56 44 -86 -14 -16 -31 -19 -99 -19 l-82 0 -16 -47 c-8 -27 -27 -79 -41 -118 -14 -38 -26 -74 -26 -78 0 -10 71 -41 87 -39 16 3 26 -15 13 -23 -6 -4 -17 -2 -25 5 -10 8 -17 6 -29 -12 -41 -59 -8 -73 169 -73 124 1 149 4 224 28 201 65 320 193 323 347 1 78 -14 116 -76 192 -25 31 -46 64 -46 72 0 21 32 40 114 67 37 13 71 29 73 36 3 7 -34 56 -82 108 -70 76 -93 95 -115 95 -15 0 -33 -7 -40 -16 -12 -13 -3 -25 55 -84 57 -57 67 -72 56 -82 -11 -11 -15 -9 -25 7 -16 28 -170 185 -182 185 -5 -1 -36 -12 -69 -26z m154 -240 c-6 -7 -15 -11 -21 -8 -5 3 -4 12 3 20 6 7 15 11 21 8 5 -3 4 -12 -3 -20z m-19 -59 c0 -13 19 -46 46 -77 46 -53 80 -108 68 -108 -4 0 -1 -7 6 -15 6 -8 9 -19 5 -25 -8 -13 -26 -3 -23 13 3 19 -26 67 -76 125 -46 54 -64 92 -51 112 10 16 25 2 25 -25z m126 -281 c-5 -13 -10 -14 -18 -6 -6 6 -8 18 -4 28 5 13 10 14 18 6 6 -6 8 -18 4 -28z m-12 -45 c-3 -5 -10 -7 -15 -3 -5 3 -7 10 -3 15 3 5 10 7 15 3 5 -3 7 -10 3 -15z m-20 -40 c-3 -5 -10 -7 -15 -3 -5 3 -7 10 -3 15 3 5 10 7 15 3 5 -3 7 -10 3 -15z m-46 -56 c-31 -33 -108 -83 -132 -87 -6 -1 -22 -8 -36 -16 -14 -7 -27 -13 -30 -13 -3 0 -15 -3 -28 -8 -31 -12 -49 -11 -57 1 -7 12 8 19 50 23 17 2 41 9 55 17 14 7 26 12 28 11 6 -6 118 68 141 93 13 14 28 23 33 20 6 -4 -5 -22 -24 -41z m-423 -123 c8 -13 -20 -24 -41 -16 -20 8 -9 26 16 26 10 0 22 -5 25 -10z m100 1 c3 -5 1 -13 -5 -16 -15 -9 -43 3 -35 15 8 13 32 13 40 1z"/>
<path d="M2490 5040 c-153 -21 -319 -130 -381 -252 -43 -83 -53 -131 -53 -238 -1 -95 2 -110 26 -155 31 -56 49 -78 96 -117 34 -28 41 -43 20 -43 -23 0 -18 -24 12 -59 46 -51 119 -76 230 -76 170 0 289 50 422 178 93 90 144 174 169 282 17 76 15 196 -5 257 -19 56 -73 126 -117 148 -38 20 -46 19 -52 -6 l-6 -22 -31 27 c-44 37 -111 66 -178 77 -63 10 -72 10 -152 -1z m444 -201 c-3 -5 -10 -7 -15 -3 -5 3 -7 10 -3 15 3 5 10 7 15 3 5 -3 7 -10 3 -15z m-429 -79 c3 -5 -10 -16 -29 -24 -72 -30 -100 -130 -50 -176 21 -21 27 -22 34 -10 5 8 10 29 10 46 0 48 20 66 78 72 68 6 67 37 -3 78 -11 6 -15 13 -9 17 18 11 58 -17 78 -54 l20 -36 -18 -46 c-38 -101 -148 -137 -217 -71 -28 26 -30 34 -27 75 6 55 39 106 82 125 38 16 43 17 51 4z m439 -221 c-3 -5 -10 -7 -15 -3 -5 3 -7 10 -3 15 3 5 10 7 15 3 5 -3 7 -10 3 -15z m-84 -159 c-17 -22 -51 -57 -75 -78 -48 -42 -163 -108 -172 -98 -4 3 -12 1 -20 -5 -7 -6 -13 -8 -13 -4 0 4 -7 2 -15 -5 -8 -6 -19 -9 -25 -5 -14 9 -1 28 15 21 7 -2 16 -2 20 2 4 4 10 7 13 7 4 0 41 18 82 40 50 26 97 62 140 107 69 71 101 82 50 18z m-595 -171 c-4 -5 -14 -5 -26 1 -11 6 -17 15 -14 21 4 5 14 5 26 -1 11 -6 17 -15 14 -21z m209 -30 c-3 -5 -10 -7 -15 -3 -5 3 -7 10 -3 15 3 5 10 7 15 3 5 -3 7 -10 3 -15z"/>
<path d="M6496 5036 c-8 -6 -31 -74 -51 -151 -20 -77 -51 -196 -70 -265 -71 -260 -83 -313 -78 -326 3 -8 17 -17 32 -20 14 -3 33 -8 41 -11 8 -4 20 -5 27 -4 6 1 14 -3 17 -8 9 -13 -14 -25 -25 -14 -5 5 -23 7 -39 5 -22 -3 -32 -11 -36 -29 -4 -13 -4 -26 -2 -28 2 -3 40 -13 84 -24 231 -55 304 -70 318 -65 18 7 22 23 30 114 6 71 13 135 51 465 14 121 25 239 25 263 0 40 -1 42 -29 42 -17 0 -33 -5 -36 -10 -10 -16 -25 -1 -25 25 0 13 -8 28 -17 33 -29 15 -200 21 -217 8z m218 -397 c-3 -5 -10 -7 -15 -3 -5 3 -7 10 -3 15 3 5 10 7 15 3 5 -3 7 -10 3 -15z m-260 -410 c-3 -5 -10 -7 -15 -3 -5 3 -7 10 -3 15 3 5 10 7 15 3 5 -3 7 -10 3 -15z m40 -10 c-3 -5 -10 -7 -15 -3 -5 3 -7 10 -3 15 3 5 10 7 15 3 5 -3 7 -10 3 -15z m167 -12 c-9 -25 -38 -34 -54 -18 -7 7 -5 12 9 17 10 4 23 14 27 21 13 21 27 5 18 -20z m-117 2 c-3 -5 -10 -7 -15 -3 -5 3 -7 10 -3 15 3 5 10 7 15 3 5 -3 7 -10 3 -15z"/>
<path d="M7330 5044 c-167 -29 -337 -126 -396 -226 -8 -13 -28 -52 -45 -87 l-31 -64 4 -111 c4 -121 22 -178 72 -225 26 -25 27 -44 1 -34 -21 8 -18 -16 8 -62 27 -47 91 -89 167 -108 75 -19 92 -13 88 32 -2 30 0 36 17 36 11 0 20 -7 21 -15 2 -33 5 -38 26 -43 l22 -6 -18 -20 c-24 -26 -18 -67 9 -64 11 1 89 5 173 9 l152 7 9 36 c21 77 72 384 69 409 -4 35 -42 43 -58 12 -15 -28 -30 -16 -27 23 l2 32 -126 3 -126 3 -22 -51 c-17 -40 -26 -50 -46 -50 -27 0 -88 47 -79 62 3 5 16 0 30 -13 34 -32 54 -19 54 34 0 54 30 86 98 104 60 16 223 17 274 1 32 -9 41 -9 53 3 12 12 11 33 -4 147 -12 88 -23 137 -32 143 -19 12 -56 11 -64 -1 -10 -17 -25 -1 -25 28 0 52 -11 57 -122 59 -57 0 -114 -1 -128 -3z m284 -175 c-3 -5 -10 -7 -15 -3 -5 3 -7 10 -3 15 3 5 10 7 15 3 5 -3 7 -10 3 -15z m11 -100 c0 -17 -43 -25 -58 -10 -7 7 -3 13 14 20 30 12 44 9 44 -10z m-170 1 c8 -13 -20 -24 -41 -16 -20 8 -9 26 16 26 10 0 22 -5 25 -10z m-84 -17 c-1 -4 -4 -8 -8 -9 -24 -2 -92 -39 -119 -65 -18 -17 -34 -27 -37 -21 -13 20 110 111 133 97 5 -3 12 0 15 6 7 11 17 6 16 -8z m203 -444 c-3 -5 -10 -7 -15 -3 -5 3 -7 10 -3 15 3 5 10 7 15 3 5 -3 7 -10 3 -15z m-580 -40 c-3 -5 -10 -7 -15 -3 -5 3 -7 10 -3 15 3 5 10 7 15 3 5 -3 7 -10 3 -15z m30 -20 c-3 -5 -10 -7 -15 -3 -5 3 -7 10 -3 15 3 5 10 7 15 3 5 -3 7 -10 3 -15z m509 -110 c-17 -17 -37 -1 -22 17 8 10 15 12 23 4 7 -7 7 -13 -1 -21z m-138 1 c8 -13 -20 -24 -41 -16 -20 8 -9 26 16 26 10 0 22 -5 25 -10z"/>
<path d="M6090 5030 c-36 -4 -132 -13 -215 -19 -82 -7 -157 -16 -165 -20 -14 -7 -90 -191 -90 -218 0 -6 10 -13 23 -15 13 -2 21 -9 19 -18 -2 -8 -44 -124 -94 -258 -58 -154 -87 -247 -81 -253 5 -5 33 -10 62 -12 51 -2 74 -21 28 -23 -12 -1 -34 -2 -48 -3 -29 -1 -42 -27 -28 -53 7 -12 43 -17 176 -23 244 -12 245 -12 254 5 4 8 18 60 30 115 35 163 26 149 103 157 37 3 73 12 81 18 13 11 55 171 55 211 0 14 -7 19 -27 19 -31 0 -64 -26 -57 -45 6 -16 -12 -29 -21 -15 -3 5 -3 16 2 22 11 20 10 51 -4 75 -18 30 -8 34 108 40 54 3 103 11 108 17 17 20 74 223 68 240 -4 9 -15 16 -25 16 -22 0 -57 -24 -57 -39 0 -6 -3 -11 -7 -11 -7 0 -10 5 -7 13 0 1 2 11 3 22 2 11 6 30 10 43 l7 22 -73 -1 c-40 -1 -102 -5 -138 -9z m193 -133 c-4 -7 -8 -15 -9 -19 -1 -5 -3 -10 -4 -13 -1 -3 -4 -9 -5 -15 -1 -5 -4 -12 -5 -15 -1 -3 -3 -10 -4 -16 -2 -21 -34 -35 -47 -22 -10 10 -6 15 14 22 15 6 27 14 26 18 -1 5 0 11 1 16 1 4 4 12 5 17 1 6 4 12 5 15 2 5 5 15 9 31 0 3 6 2 11 -1 6 -4 7 -12 3 -18z m-243 -112 c-1 -13 -48 -26 -56 -14 -3 5 -2 14 1 20 8 13 56 8 55 -6z m-36 -96 c-7 -12 -31 -11 -39 1 -4 6 -4 18 -1 27 6 14 8 14 26 -2 11 -10 17 -22 14 -26z m86 -200 c-11 -20 -22 -24 -33 -12 -9 9 23 44 34 37 5 -3 4 -14 -1 -25z m-147 -16 c9 -9 -23 -44 -34 -37 -5 3 -4 14 1 25 11 20 22 24 33 12z m-77 -282 c-9 -14 -43 -14 -51 -1 -8 13 37 31 49 20 4 -5 5 -13 2 -19z m-71 9 c8 -13 -20 -24 -41 -16 -20 8 -9 26 16 26 10 0 22 -5 25 -10z"/>
<path d="M9777 5018 c-8 -13 -41 -128 -73 -256 -49 -193 -57 -234 -45 -241 8 -5 20 -7 27 -4 27 10 22 -17 -7 -38 -17 -12 -40 -42 -51 -66 -29 -65 -12 -129 48 -182 47 -41 49 -59 3 -36 -64 34 -36 -36 30 -73 97 -55 246 0 302 111 25 47 37 155 21 183 -8 15 -7 23 8 39 14 15 22 55 35 170 27 242 34 319 29 327 -3 4 -18 8 -33 8 -21 0 -30 -6 -34 -21 -10 -38 -27 -10 -21 35 l6 43 -101 7 c-56 4 -108 9 -116 12 -7 3 -20 -5 -28 -18z m239 -264 c-5 -13 -10 -14 -18 -6 -6 6 -8 18 -4 28 5 13 10 14 18 6 6 -6 8 -18 4 -28z m-20 -170 c-5 -13 -10 -14 -18 -6 -6 6 -8 18 -4 28 5 13 10 14 18 6 6 -6 8 -18 4 -28z m-13 -55 c-17 -17 -37 -1 -22 17 8 10 15 12 23 4 7 -7 7 -13 -1 -21z m-77 -25 c1 -11 12 -35 24 -52 15 -21 25 -50 28 -86 4 -47 0 -62 -22 -101 -27 -45 -60 -74 -93 -80 -10 -2 -19 -4 -20 -4 -8 -3 -13 0 -13 7 0 4 4 7 8 7 17 0 81 50 96 76 37 63 12 175 -49 215 -20 13 -23 19 -14 31 18 21 54 12 55 -13z"/>
<path d="M4227 5023 c-34 -6 -48 -26 -86 -132 -36 -99 -37 -111 -12 -111 11 0 22 -4 25 -9 3 -5 -19 -80 -50 -168 -98 -276 -106 -303 -100 -318 3 -9 19 -18 36 -21 40 -9 47 -22 17 -33 -30 -12 -42 -40 -25 -57 13 -12 302 -84 369 -92 45 -5 48 2 56 131 3 54 10 100 14 103 5 3 20 -19 33 -49 13 -30 28 -57 34 -61 5 -3 38 5 73 18 179 66 209 79 209 92 0 7 -9 28 -20 48 -12 20 -17 37 -11 40 5 4 24 -19 41 -49 29 -51 32 -75 9 -75 -16 0 -218 -81 -223 -89 -12 -18 7 -51 29 -51 41 0 325 111 325 127 0 3 -22 42 -48 87 -27 45 -60 102 -75 127 l-26 46 29 28 c50 48 73 110 73 197 1 72 -2 81 -29 115 -33 41 -60 60 -69 51 -4 -3 1 -17 10 -31 20 -31 32 -122 17 -131 -6 -4 -9 -13 -5 -21 10 -27 -18 -78 -73 -135 l-54 -55 16 -30 c8 -16 24 -44 35 -61 12 -19 16 -35 10 -38 -5 -4 -29 25 -52 64 l-42 71 50 44 c29 25 57 61 67 87 10 23 21 49 25 57 12 23 -8 122 -31 159 -27 45 -89 88 -152 108 -51 16 -354 29 -419 17z m284 -250 c20 -20 0 -37 -21 -18 -14 13 -23 14 -39 6 -21 -12 -38 0 -26 18 7 13 72 8 86 -6z m-12 -89 c-37 -39 -101 -29 -85 13 5 12 9 14 18 5 16 -16 43 -15 58 3 7 8 17 12 22 9 5 -3 -1 -17 -13 -30z m-72 -249 c18 -37 13 -51 -22 -57 -16 -2 -21 3 -23 30 -7 68 18 83 45 27z m-313 -206 c-3 -5 -10 -7 -15 -3 -5 3 -7 10 -3 15 3 5 10 7 15 3 5 -3 7 -10 3 -15z m40 -10 c-3 -5 -10 -7 -15 -3 -5 3 -7 10 -3 15 3 5 10 7 15 3 5 -3 7 -10 3 -15z m69 -5 c4 -1 10 -2 13 -3 3 0 2 -6 -1 -11 -5 -8 -11 -7 -21 1 -8 6 -14 8 -14 5 0 -4 -5 -4 -10 -1 -6 4 -8 11 -4 16 3 5 11 6 17 2 7 -4 15 -8 20 -9z m86 -21 c7 -1 24 2 37 7 28 11 42 -4 24 -25 -9 -11 -17 -12 -31 -5 -10 6 -22 10 -26 9 -4 -1 -11 0 -15 1 -8 2 -22 6 -34 9 -3 0 -2 6 1 11 4 6 12 7 18 3 7 -4 18 -8 26 -10z"/>
<path d="M9365 5019 c-60 -4 -171 -12 -245 -18 -74 -5 -142 -12 -151 -16 -18 -7 -95 -228 -85 -244 4 -7 35 -8 85 -4 55 4 80 2 85 -6 11 -17 -14 -45 -28 -31 -16 16 -83 12 -100 -6 -9 -8 -16 -24 -16 -35 0 -16 7 -19 48 -19 26 0 53 5 59 11 20 20 21 -6 2 -66 -11 -33 -24 -78 -30 -100 -22 -78 -29 -101 -44 -148 -21 -66 -19 -76 13 -83 46 -10 53 -14 47 -24 -3 -5 -15 -10 -25 -10 -24 0 -40 -48 -20 -60 7 -4 62 -15 124 -24 61 -9 140 -21 176 -27 36 -6 81 -9 100 -7 l35 3 3 100 c1 55 6 176 11 270 11 194 9 189 102 200 66 8 68 10 99 103 10 31 28 84 40 117 20 55 21 60 4 72 -25 18 -72 -11 -80 -49 -1 -5 -3 -10 -4 -13 -1 -3 -4 -9 -5 -15 -1 -5 -4 -12 -5 -15 -1 -3 -3 -9 -4 -15 0 -5 -4 -10 -8 -10 -5 0 -11 0 -14 0 -4 0 -1 7 6 15 7 8 9 15 5 15 -4 0 -1 7 6 17 8 9 13 18 12 20 -2 1 -3 4 -2 6 5 16 12 48 16 75 l5 32 -53 -1 c-30 -1 -103 -5 -164 -10z m168 -227 c-9 -26 -24 -42 -34 -36 -5 3 -2 19 6 35 16 31 39 32 28 1z m-68 -31 c7 -12 -12 -24 -25 -16 -11 7 -4 25 10 25 5 0 11 -4 15 -9z m-91 -10 c3 -5 -5 -16 -19 -25 -25 -17 -41 -7 -31 19 6 16 42 20 50 6z m-38 -147 c-5 -13 -10 -14 -18 -6 -6 6 -8 18 -4 28 5 13 10 14 18 6 6 -6 8 -18 4 -28z m-8 -225 c-2 -19 -7 -33 -13 -32 -12 3 -19 49 -10 71 10 26 27 -2 23 -39z m-264 -160 c-3 -5 -10 -7 -15 -3 -5 3 -7 10 -3 15 3 5 10 7 15 3 5 -3 7 -10 3 -15z m254 -15 c-4 -21 -45 -31 -61 -15 -7 7 -5 12 9 17 10 4 23 14 28 22 11 18 29 1 24 -24z m-184 5 c-3 -5 -10 -7 -15 -3 -5 3 -7 10 -3 15 3 5 10 7 15 3 5 -3 7 -10 3 -15z m60 -10 c-3 -5 -10 -7 -15 -3 -5 3 -7 10 -3 15 3 5 10 7 15 3 5 -3 7 -10 3 -15z"/>
<path d="M3333 5014 c-18 -8 -115 -140 -152 -207 -66 -120 -84 -182 -84 -297 1 -117 12 -155 64 -215 29 -32 113 -90 132 -90 4 0 7 -3 7 -7 0 -7 -5 -10 -12 -7 -2 0 -14 3 -27 5 -14 2 -32 11 -41 19 -34 31 -51 14 -29 -28 55 -102 272 -117 443 -30 123 62 239 181 301 308 43 87 74 234 82 383 l6 112 -25 0 c-37 0 -47 -18 -50 -90 -4 -92 -23 -73 -24 25 -2 112 -2 115 -20 115 -27 0 -157 -31 -191 -46 l-33 -14 0 -57 c0 -63 -43 -200 -89 -282 -14 -27 -59 -54 -77 -47 -13 5 -15 9 -6 18 7 7 12 35 12 62 0 39 9 67 35 116 79 146 76 134 34 145 -20 5 -32 1 -47 -15 -27 -29 -36 -11 -11 26 33 51 27 58 -63 77 -46 10 -92 19 -103 22 -11 2 -25 2 -32 -1z m177 -175 c-6 -11 -15 -17 -21 -14 -5 4 -5 14 1 26 6 11 15 17 21 14 5 -4 5 -14 -1 -26z m-26 -50 c-3 -5 -10 -7 -15 -3 -5 3 -7 10 -3 15 3 5 10 7 15 3 5 -3 7 -10 3 -15z m454 -40 c-1 -13 -7 -23 -13 -22 -13 3 -18 30 -11 50 10 24 29 1 24 -28z m-474 0 c-3 -5 -10 -7 -15 -3 -5 3 -7 10 -3 15 3 5 10 7 15 3 5 -3 7 -10 3 -15z m-20 -60 c-3 -5 -10 -7 -15 -3 -5 3 -7 10 -3 15 3 5 10 7 15 3 5 -3 7 -10 3 -15z m465 -74 c-28 -114 -63 -178 -151 -271 -56 -59 -97 -92 -149 -119 -39 -20 -73 -34 -76 -31 -4 3 -12 1 -19 -5 -16 -13 -48 -4 -39 11 4 6 14 10 23 9 30 -5 164 71 220 124 30 29 66 70 80 92 29 46 77 158 87 206 13 57 25 83 35 73 6 -6 2 -40 -11 -89z m-439 -49 c-13 -13 -55 27 -45 44 5 8 14 5 31 -11 17 -16 21 -26 14 -33z m-95 -376 c8 -13 -20 -24 -41 -16 -20 8 -9 26 16 26 10 0 22 -5 25 -10z m70 1 c7 -12 -12 -24 -25 -16 -11 7 -4 25 10 25 5 0 11 -4 15 -9z"/>
<path d="M5875 3983 c-44 -12 -45 -18 -45 -198 0 -159 -1 -173 -20 -190 -26 -24 -27 -86 -2 -108 25 -23 85 -22 105 1 23 25 21 74 -3 105 -21 26 -26 62 -12 71 16 10 142 -103 142 -127 1 -74 106 -98 137 -31 28 58 -9 103 -85 104 -31 1 -118 72 -108 88 3 6 19 13 35 17 15 3 41 20 57 36 25 26 29 38 28 85 0 61 -21 97 -72 127 -32 19 -121 30 -157 20z m146 -79 c31 -32 35 -84 9 -117 -21 -26 -27 -28 -84 -25 l-61 3 -3 69 c-2 38 0 76 3 84 8 22 110 11 136 -14z"/>
<path d="M7770 3983 c-49 -9 -50 -15 -50 -198 0 -159 -1 -173 -20 -190 -31 -28 -27 -88 6 -114 35 -28 56 -26 88 5 31 32 34 74 6 99 -20 18 -27 69 -12 79 17 10 137 -99 147 -134 13 -42 55 -75 84 -65 31 10 61 45 61 72 0 37 -45 76 -80 70 -23 -5 -38 2 -80 36 l-51 42 21 17 c12 10 28 18 34 18 20 0 63 53 68 83 3 15 1 48 -4 72 -18 84 -107 128 -218 108z m147 -87 c33 -38 31 -88 -4 -116 -21 -17 -38 -20 -82 -18 l-56 3 -3 69 c-4 97 -3 99 65 94 46 -4 61 -10 80 -32z"/>
<path d="M1692 3973 c-7 -3 -18 -16 -23 -30 -7 -20 -5 -33 11 -60 18 -31 20 -51 20 -219 0 -168 2 -184 18 -185 40 -3 70 4 119 28 112 55 163 122 163 214 0 97 -55 168 -160 209 -19 7 -47 22 -62 32 -25 17 -59 22 -86 11z m164 -112 c84 -51 108 -143 59 -222 -29 -45 -110 -101 -140 -97 l-20 3 4 160 c2 88 5 163 8 168 8 14 58 7 89 -12z"/>
<path d="M3177 3962 c-22 -24 -22 -60 0 -85 16 -17 17 -39 14 -202 l-3 -183 22 -12 c17 -9 31 -8 67 4 106 36 187 106 212 183 33 100 -32 217 -144 258 -27 10 -61 27 -74 37 -30 23 -73 23 -94 0z m183 -107 c121 -76 100 -224 -42 -296 -66 -34 -68 -30 -68 144 0 106 4 157 12 165 19 19 55 14 98 -13z"/>
<path d="M1300 3950 c-25 -25 -25 -35 1 -76 18 -30 20 -44 14 -141 -3 -59 -8 -129 -11 -155 -8 -59 6 -68 114 -68 59 0 83 -4 92 -15 18 -22 73 -19 95 5 23 25 13 67 -20 82 -20 9 -33 8 -63 -6 -26 -12 -57 -16 -97 -14 l-60 3 -1 55 c-1 92 16 231 31 253 46 66 -39 133 -95 77z"/>
<path d="M4841 3944 c-26 -33 -26 -51 -1 -89 16 -24 18 -40 13 -90 -6 -67 -20 -102 -34 -88 -12 12 -119 194 -119 202 0 9 -44 51 -53 51 -4 0 -7 -66 -7 -146 l0 -146 -30 -28 c-37 -35 -39 -72 -5 -105 30 -31 56 -32 91 -2 31 27 35 68 10 96 -18 19 -23 135 -7 145 5 4 37 -44 71 -104 73 -130 95 -159 108 -145 5 6 15 80 22 165 l12 155 29 33 c35 40 37 65 4 97 -33 34 -77 33 -104 -1z"/>
<path d="M7162 3960 c-31 -13 -50 -56 -34 -81 16 -25 15 -44 -6 -107 -24 -71 -32 -71 -64 3 -22 51 -41 41 -73 -39 -14 -37 -17 -39 -32 -23 -13 13 -17 37 -18 106 -1 94 -12 121 -47 121 -59 0 -76 -51 -33 -102 14 -17 25 -42 25 -59 0 -17 4 -49 9 -72 6 -23 15 -77 22 -120 10 -60 17 -77 28 -75 16 3 28 23 61 103 20 46 22 49 35 31 8 -10 21 -42 31 -72 28 -89 38 -76 92 114 31 109 46 149 66 167 39 36 34 80 -11 104 -25 13 -21 13 -51 1z"/>
<path d="M8751 3944 c-26 -33 -26 -48 -2 -88 16 -26 18 -41 12 -99 -8 -79 -22 -100 -44 -66 -56 93 -117 201 -117 208 0 15 -30 35 -40 25 -4 -5 -12 -72 -16 -149 -6 -127 -9 -143 -30 -168 -32 -38 -31 -80 2 -106 36 -28 66 -26 98 5 31 32 33 53 5 87 -16 21 -19 38 -17 84 2 32 8 58 13 58 6 0 31 -36 57 -80 82 -141 92 -155 109 -155 13 0 17 15 23 83 20 255 17 240 47 268 35 33 37 68 6 97 -33 31 -80 29 -106 -4z"/>
<path d="M2526 3925 c-71 -55 -91 -101 -91 -211 0 -83 2 -94 30 -140 21 -34 38 -50 55 -52 14 -2 29 -8 35 -13 16 -16 76 -10 106 12 72 51 104 171 74 275 -13 46 -27 68 -72 111 -31 29 -63 53 -73 53 -9 0 -38 -16 -64 -35z m111 -70 c7 -2 21 -22 33 -44 34 -68 24 -179 -22 -229 -54 -57 -105 -46 -144 30 -40 78 -30 179 23 239 13 16 66 17 110 4z"/>
<path d="M2873 3903 c-50 -49 -62 -67 -73 -112 -24 -102 4 -209 70 -265 32 -26 50 -31 104 -27 63 6 115 67 136 163 14 60 6 118 -26 186 -17 37 -107 112 -134 112 -10 0 -45 -26 -77 -57z m151 -68 c51 -78 42 -201 -20 -263 -37 -37 -60 -37 -103 2 -63 56 -71 206 -14 268 12 13 31 18 68 18 45 0 55 -4 69 -25z"/>
<path d="M9385 3941 c-65 -39 -84 -114 -44 -165 21 -26 106 -76 131 -76 26 0 88 -61 88 -86 0 -31 -52 -64 -102 -64 -40 0 -52 11 -52 49 -1 13 -12 32 -27 43 -22 16 -29 17 -52 7 -55 -25 -47 -74 20 -118 112 -75 273 -18 273 96 0 46 -85 118 -161 136 -39 10 -79 46 -79 71 0 35 42 68 81 64 l34 -3 0 -41 c1 -52 18 -74 60 -74 35 0 65 25 65 56 0 24 -75 99 -113 113 -42 16 -88 13 -122 -8z"/>
<path d="M9775 3950 c-11 -4 -33 -22 -50 -40 -24 -25 -30 -40 -30 -77 0 -40 4 -49 34 -72 18 -14 65 -39 104 -56 132 -56 137 -127 10 -155 -42 -10 -61 5 -65 50 -5 63 -78 76 -108 19 -18 -32 -3 -56 54 -89 124 -70 276 -11 262 103 -6 52 -28 74 -116 115 -119 55 -143 87 -97 130 26 24 81 30 93 10 5 -7 7 -28 5 -46 -3 -43 13 -62 55 -62 25 0 38 7 50 25 20 31 11 59 -33 99 -55 49 -119 67 -168 46z"/>
<path d="M417 3936 c-85 -31 -111 -88 -105 -228 2 -81 7 -100 28 -131 47 -69 151 -94 207 -49 15 12 45 33 65 47 45 30 57 65 34 100 -37 57 -128 15 -112 -51 14 -56 -62 -85 -121 -47 -37 24 -53 72 -53 155 0 110 37 158 121 158 50 0 72 -17 63 -48 -10 -40 -7 -62 12 -83 34 -38 104 -11 104 39 0 20 -16 43 -59 86 -50 50 -65 59 -102 62 -24 2 -61 -2 -82 -10z"/>
<path d="M942 3934 c-26 -18 -29 -64 -6 -99 8 -13 14 -34 12 -47 -3 -22 -7 -23 -73 -23 l-70 0 -3 25 c-2 14 4 39 12 54 23 44 1 86 -44 86 -50 0 -82 -70 -45 -100 22 -18 21 -201 -1 -235 -15 -24 -14 -31 15 -74 7 -11 14 -12 39 0 32 14 49 62 30 86 -5 6 -8 29 -6 50 l3 38 70 0 70 0 3 -28 c2 -16 -3 -39 -12 -51 -13 -21 -13 -26 0 -45 16 -22 66 -29 94 -11 13 8 13 13 -3 39 -23 39 -25 222 -2 241 23 19 19 76 -7 94 -12 9 -29 16 -38 16 -9 0 -26 -7 -38 -16z"/>
<path d="M2280 3932 c-27 -22 -29 -65 -6 -91 10 -11 16 -31 14 -48 l-3 -28 -70 0 -70 0 -3 29 c-2 16 1 33 7 39 14 14 14 53 1 78 -13 23 -62 26 -84 3 -20 -19 -20 -63 -1 -88 22 -29 21 -188 -2 -227 -32 -54 14 -112 68 -85 28 13 36 49 19 81 -6 12 -10 39 -8 61 l3 39 70 0 70 0 3 -36 c2 -23 -2 -40 -12 -49 -19 -15 -21 -61 -4 -78 15 -15 53 -16 79 -2 23 13 25 58 4 86 -10 13 -14 46 -15 110 0 76 3 95 20 117 26 33 25 53 -5 82 -29 30 -45 31 -75 7z"/>
<path d="M3840 3926 c-59 -31 -81 -76 -87 -182 -9 -139 33 -214 134 -234 67 -14 83 -9 159 57 40 35 54 54 54 73 0 53 -69 80 -103 42 -10 -11 -17 -35 -17 -60 0 -47 -17 -62 -72 -62 -25 0 -42 8 -64 31 l-29 30 0 105 0 106 33 29 c24 21 42 29 71 29 48 0 93 -32 74 -51 -32 -32 3 -99 50 -99 27 0 67 38 67 64 0 23 -83 111 -125 130 -46 22 -92 19 -145 -8z"/>
<path d="M5127 3936 c-50 -18 -62 -30 -87 -81 -27 -56 -32 -204 -8 -250 25 -46 69 -82 116 -95 55 -14 92 -6 128 28 16 15 41 35 56 45 36 22 45 60 24 92 -36 55 -124 16 -113 -50 7 -43 -16 -65 -67 -65 -78 0 -117 80 -101 207 9 74 53 123 111 123 55 0 75 -22 67 -75 -5 -37 -2 -44 18 -59 31 -21 55 -20 79 4 32 32 25 63 -27 118 -68 72 -116 86 -196 58z"/>
<path d="M1112 3920 c-27 -26 -28 -50 -2 -83 16 -20 21 -47 26 -130 5 -73 4 -106 -5 -111 -6 -4 -11 -18 -11 -32 0 -41 80 -61 106 -26 18 24 17 43 -6 72 -13 17 -20 42 -20 75 -1 28 -5 68 -9 90 -5 28 -3 49 6 68 16 31 9 65 -16 84 -23 18 -44 16 -69 -7z"/>
<path d="M5619 3921 c-16 -12 -49 -20 -97 -24 -41 -3 -80 -12 -89 -18 -12 -11 -14 -34 -8 -143 9 -188 0 -172 97 -180 47 -4 89 -13 98 -21 29 -26 64 -28 93 -5 34 27 34 54 2 85 -29 30 -49 31 -80 6 -19 -14 -35 -17 -77 -13 -63 5 -78 15 -78 52 0 42 20 53 55 30 72 -48 146 1 105 68 -23 37 -52 41 -98 15 -40 -23 -64 -12 -60 29 l3 33 75 -1 c41 0 85 -4 97 -8 15 -6 27 -2 42 13 27 27 27 66 -1 85 -29 21 -50 20 -79 -3z"/>
<path d="M8323 3921 c-15 -12 -45 -20 -97 -24 -41 -3 -80 -8 -86 -12 -13 -8 -14 -280 0 -304 7 -14 27 -20 92 -25 54 -4 89 -12 100 -23 22 -20 71 -21 92 -3 22 18 20 66 -4 90 -25 25 -44 25 -86 -1 -29 -18 -42 -19 -86 -12 l-53 8 -3 39 c-5 53 10 65 48 38 74 -55 160 11 100 76 -25 26 -48 28 -94 6 -47 -23 -68 -13 -64 28 l3 33 64 3 c35 2 77 -2 93 -9 59 -24 107 52 60 94 -24 22 -51 21 -79 -2z"/>
<path d="M9119 3922 c-16 -13 -50 -21 -98 -26 -40 -3 -77 -9 -82 -12 -10 -6 -12 -193 -3 -270 l6 -51 87 -7 c56 -5 92 -13 103 -23 21 -19 73 -20 94 -2 33 28 1 109 -43 109 -10 0 -33 -9 -51 -20 -27 -16 -41 -19 -85 -12 l-52 7 -3 39 c-5 53 10 65 48 38 34 -26 67 -28 98 -6 28 20 28 55 -1 82 -28 26 -54 28 -85 6 -12 -8 -32 -14 -45 -12 -18 2 -22 9 -22 38 l0 35 60 6 c42 4 69 1 92 -9 29 -14 34 -13 57 2 31 20 35 65 8 89 -24 22 -54 21 -83 -1z"/>
<path d="M4276 3908 c-9 -12 -16 -30 -16 -40 0 -9 -4 -27 -9 -40 -9 -24 -19 -59 -42 -141 -8 -27 -22 -53 -31 -58 -26 -14 -24 -75 1 -89 29 -15 57 -12 76 7 14 13 16 27 11 65 -10 77 2 89 82 86 l67 -3 -1 -40 c-1 -22 -4 -49 -8 -60 -10 -30 28 -75 63 -75 59 0 81 72 37 119 -19 21 -27 48 -41 144 -10 68 -24 124 -32 133 -10 9 -36 14 -78 14 -55 0 -66 -3 -79 -22z m112 -40 c6 -7 12 -33 13 -58 l4 -45 -50 0 c-54 0 -67 16 -47 59 6 11 13 29 16 39 6 20 48 23 64 5z"/>
<path d="M6572 3918 c-9 -12 -34 -89 -67 -209 -9 -31 -25 -65 -35 -74 -40 -36 -16 -105 35 -105 13 0 31 7 39 16 18 18 21 65 5 81 -8 8 -6 19 5 42 l17 31 62 0 c36 0 68 -5 75 -12 15 -15 16 -54 2 -63 -17 -10 -11 -71 8 -88 63 -57 139 34 78 92 -17 16 -26 38 -30 79 -10 86 -26 174 -37 200 -8 20 -15 22 -78 22 -43 0 -72 -5 -79 -12z m117 -86 c19 -60 11 -72 -47 -72 -27 0 -51 2 -54 6 -6 5 15 85 28 105 3 6 18 9 32 7 22 -2 30 -11 41 -46z"/>
<path d="M7372 3918 c-7 -7 -12 -18 -12 -25 0 -8 -9 -42 -19 -76 -10 -34 -26 -87 -36 -119 -9 -31 -25 -64 -36 -74 -58 -53 20 -125 82 -75 22 17 22 21 10 59 -12 36 -12 44 3 67 16 24 21 26 84 23 l67 -3 3 -34 c2 -18 -1 -38 -7 -44 -17 -17 -13 -62 7 -80 22 -21 62 -22 87 -3 25 18 24 70 -2 99 -20 21 -28 51 -52 206 -6 35 -16 69 -22 77 -15 18 -140 19 -157 2z m122 -85 c13 -61 5 -73 -48 -73 -25 0 -47 4 -50 8 -7 11 13 83 27 100 6 7 22 12 36 10 22 -2 27 -10 35 -45z"/>
<path d="M2560 1810 c0 -5 20 -10 45 -10 25 0 45 5 45 10 0 6 -20 10 -45 10 -25 0 -45 -4 -45 -10z"/>
<path d="M9090 1230 c0 -5 5 -10 10 -10 6 0 10 5 10 10 0 6 -4 10 -10 10 -5 0 -10 -4 -10 -10z"/>
</g>
</g>
  <g id="id2:id2" transform="matrix(1.25,0,0,1.25,0.0,0.0)"><g transform="translate(0.000000,395.200000) scale(0.040000,-0.040000)" fill="#ffb41a" stroke="none">
<path d="M8080 8648 c-193 -55 -329 -165 -409 -331 -37 -75 -81 -216 -81 -258 0 -34 -19 -29 -39 9 -27 54 -103 118 -181 156 -76 36 -120 38 -415 19 -99 -7 -242 -15 -317 -19 -115 -5 -138 -9 -143 -23 -5 -17 10 -203 26 -326 5 -38 14 -122 19 -185 31 -375 46 -515 54 -529 4 -6 8 -56 10 -111 2 -86 5 -104 23 -121 l20 -21 129 11 c176 15 323 35 419 60 22 5 59 14 82 20 94 24 211 87 254 137 25 29 64 105 78 154 23 75 44 135 52 144 4 5 30 -36 57 -92 59 -119 132 -234 224 -357 107 -142 116 -153 226 -272 98 -107 137 -133 146 -100 7 26 45 195 56 252 6 33 16 78 20 100 24 105 42 194 74 360 20 99 40 200 45 225 6 25 18 98 28 164 9 65 23 125 30 135 12 14 17 12 49 -23 l37 -39 -7 -306 c-7 -351 -22 -719 -36 -901 -6 -69 -10 -157 -10 -197 l0 -72 48 -38 c26 -21 65 -57 87 -80 33 -33 44 -39 58 -31 10 5 30 8 45 6 22 -2 26 -7 24 -25 -2 -13 -1 -23 2 -23 8 0 212 165 259 209 20 19 37 43 37 52 0 9 -49 56 -112 107 -226 181 -303 244 -326 266 l-22 22 10 169 c7 94 15 173 18 177 8 8 35 -12 342 -252 293 -229 334 -260 351 -260 26 0 210 198 326 351 212 280 348 574 373 805 11 107 -3 297 -30 399 -27 101 -61 173 -122 256 -44 61 -125 139 -144 139 -4 0 -15 6 -23 14 -20 18 -108 53 -179 72 -72 19 -239 18 -310 -2 -156 -43 -298 -144 -403 -285 -29 -38 -55 -69 -60 -69 -5 0 -14 10 -20 23 -47 89 -183 216 -294 274 -106 55 -183 73 -309 72 -61 -1 -127 -6 -146 -11z m-734 -475 c95 -52 148 -98 163 -139 7 -21 22 -57 31 -79 31 -71 33 -79 41 -165 4 -47 13 -105 19 -130 20 -82 23 -140 10 -203 -16 -78 -66 -211 -97 -259 -46 -68 -172 -139 -293 -163 -19 -4 -53 -11 -75 -17 -180 -43 -431 -63 -453 -35 -9 11 -26 95 -53 262 -16 98 -30 232 -39 365 -4 69 -16 193 -26 275 -10 83 -18 177 -18 210 l-1 60 57 7 c32 4 142 12 244 17 102 5 188 12 191 15 4 3 61 6 128 6 114 0 126 -2 171 -27z m1042 -127 c20 -13 52 -40 71 -60 39 -40 42 -37 -64 -60 -78 -17 -163 -43 -244 -75 -30 -12 -58 -18 -63 -13 -22 22 105 163 193 212 45 25 62 25 107 -4z m-266 -446 c51 -63 105 -110 207 -181 71 -49 71 -50 52 -131 -6 -27 -16 -69 -21 -95 -6 -26 -15 -52 -20 -57 -12 -12 -141 110 -199 189 -71 95 -111 204 -111 304 0 45 20 71 35 45 6 -9 31 -43 57 -74z"/>
<path d="M6794 8035 c-6 -24 -1 -94 27 -410 5 -60 16 -185 23 -277 17 -209 23 -224 99 -214 29 4 79 16 111 27 33 10 66 19 74 19 9 0 53 18 99 41 87 43 125 80 137 134 42 182 40 308 -8 478 -20 72 -41 114 -75 150 -44 48 -68 55 -216 61 -77 4 -168 9 -202 12 l-62 6 -7 -27z m314 -46 c76 -8 102 -15 120 -32 29 -27 63 -90 73 -137 5 -19 13 -55 20 -80 29 -111 17 -334 -20 -397 -21 -33 -104 -80 -211 -118 -97 -35 -133 -40 -147 -23 -5 7 -15 74 -21 148 -7 74 -21 189 -32 255 -22 135 -44 361 -36 382 7 16 116 18 254 2z"/>
<path d="M5710 8170 c-14 -4 -47 -9 -75 -9 -27 -1 -72 -7 -100 -14 l-50 -13 1 -50 c3 -107 36 -482 53 -599 11 -76 21 -196 41 -492 5 -72 14 -141 20 -152 13 -26 45 -27 195 -5 123 18 216 29 320 39 39 3 88 10 110 15 22 5 72 14 110 20 96 16 202 48 208 63 3 7 2 55 -1 106 -7 127 -3 125 -215 118 -89 -4 -209 -11 -267 -16 -78 -7 -108 -6 -117 3 -12 11 -21 56 -43 206 -6 36 -14 94 -20 130 -21 136 -45 355 -56 520 -7 105 -10 115 -39 128 -29 13 -39 14 -75 2z m38 -73 c6 -7 18 -94 27 -192 8 -99 20 -200 26 -225 14 -64 27 -180 40 -375 6 -93 15 -178 21 -188 7 -15 16 -17 36 -12 23 6 299 21 512 28 l65 2 0 -53 0 -54 -70 -23 c-104 -34 -236 -56 -505 -85 -47 -5 -106 -12 -132 -16 -45 -6 -48 -5 -58 20 -5 15 -10 42 -10 60 0 17 -4 36 -9 41 -21 23 -59 178 -85 345 -8 52 -22 136 -30 185 -16 98 -36 353 -36 451 0 40 5 66 14 73 11 9 41 15 172 30 6 0 16 -5 22 -12z"/>
<path d="M4678 8103 c-87 -7 -255 -108 -348 -209 -35 -38 -110 -176 -110 -202 0 -5 -9 -26 -19 -48 -26 -54 -35 -164 -21 -244 7 -36 16 -87 20 -115 24 -150 66 -231 171 -329 90 -84 191 -156 220 -156 9 0 39 -10 66 -21 42 -19 67 -22 188 -22 150 0 192 8 292 54 35 16 73 29 85 29 28 0 162 140 193 200 43 85 56 153 56 288 0 104 -5 145 -26 227 -36 140 -51 179 -98 270 -78 149 -178 217 -387 264 -51 11 -212 19 -282 14z m249 -58 c130 -21 215 -60 305 -137 37 -32 90 -139 129 -263 12 -38 27 -81 33 -94 7 -15 10 -71 8 -144 -2 -94 -8 -137 -28 -206 -14 -47 -28 -95 -31 -106 -7 -25 -83 -133 -114 -162 -39 -36 -190 -106 -249 -115 -30 -5 -100 -12 -156 -15 l-101 -5 -61 31 c-34 17 -66 31 -72 31 -49 0 -280 218 -295 278 -4 15 -13 41 -20 57 -7 17 -16 50 -19 75 -35 285 -32 315 41 459 30 58 73 126 96 150 50 52 152 121 181 122 12 0 48 13 81 29 71 34 134 37 272 15z"/>
<path d="M4677 7875 c-65 -38 -134 -114 -172 -189 -45 -91 -64 -233 -48 -375 10 -86 13 -95 50 -139 94 -110 263 -212 351 -212 37 0 102 19 151 44 36 19 138 128 152 163 28 70 38 145 39 273 0 124 -3 142 -29 219 -35 100 -78 150 -166 191 -83 40 -128 50 -215 49 -59 -1 -83 -6 -113 -24z m276 -55 c80 -30 114 -63 153 -144 31 -64 34 -79 34 -161 0 -93 -18 -204 -40 -246 -7 -13 -33 -55 -58 -92 -55 -83 -107 -117 -191 -124 -92 -9 -155 16 -240 94 -90 82 -95 97 -89 284 4 128 8 151 32 210 31 75 93 143 171 183 42 22 60 26 110 22 33 -2 86 -14 118 -26z"/>
<path d="M3626 7973 c-3 -4 -149 -12 -322 -19 -263 -10 -319 -15 -332 -28 -13 -12 -13 -20 -4 -38 6 -13 13 -45 16 -73 3 -27 10 -88 15 -135 28 -248 41 -381 41 -436 0 -34 4 -74 10 -90 5 -16 12 -101 15 -189 3 -88 9 -205 13 -260 l7 -100 25 2 c14 1 61 8 105 17 80 15 170 26 385 46 194 18 290 39 372 81 10 5 24 9 31 9 19 0 81 68 110 121 28 52 38 109 41 229 1 74 -3 93 -27 145 -15 33 -49 81 -74 107 -44 45 -46 49 -34 75 7 15 24 60 37 100 40 120 29 288 -24 347 -25 27 -98 61 -170 80 -64 16 -222 22 -236 9z m253 -62 c54 -11 90 -37 118 -87 19 -33 23 -54 23 -133 0 -111 -25 -198 -71 -246 -38 -41 -37 -57 9 -83 40 -22 84 -77 121 -150 19 -38 22 -56 18 -130 -2 -48 -9 -105 -14 -128 -35 -147 -151 -197 -538 -233 -133 -13 -197 -22 -225 -31 -14 -5 -57 -11 -97 -15 -66 -6 -73 -4 -83 15 -6 11 -15 89 -20 173 -5 84 -16 231 -23 327 -8 96 -12 183 -9 192 2 9 -3 54 -11 100 -17 92 -30 226 -31 333 l-1 70 283 11 c155 6 285 14 289 18 9 9 210 7 262 -3z"/>
<path d="M3395 7749 c-27 -5 -66 -6 -86 -3 -50 7 -69 -16 -46 -56 9 -15 17 -50 18 -77 0 -26 6 -82 12 -123 16 -99 24 -103 172 -95 61 3 124 10 140 14 217 65 255 97 255 219 0 108 -50 133 -271 131 -79 -1 -166 -5 -194 -10z m390 -79 c23 -22 26 -30 20 -65 -3 -22 -15 -50 -27 -62 -46 -49 -274 -110 -360 -97 -21 4 -40 10 -43 14 -2 4 -10 51 -16 104 -13 109 -8 122 44 129 18 3 105 4 194 3 l161 -1 27 -25z"/>
<path d="M3381 7248 l-84 -10 6 -132 c10 -203 17 -245 39 -257 19 -10 24 -9 93 17 34 13 177 44 245 54 104 14 142 29 183 72 32 34 37 45 37 86 0 57 -30 126 -62 143 -48 27 -325 43 -457 27z m361 -64 c49 -5 61 -10 78 -34 12 -17 20 -44 20 -68 0 -33 -6 -45 -31 -66 -34 -29 -47 -33 -134 -40 -33 -3 -100 -10 -150 -16 -157 -19 -148 -21 -157 25 -5 22 -7 74 -6 115 l3 75 35 13 c34 12 201 10 342 -4z"/>
<path d="M1850 7804 c-342 -23 -399 -29 -408 -39 -5 -5 -6 -103 -3 -217 6 -212 11 -238 47 -224 14 6 16 14 8 64 -13 86 -7 313 9 329 13 13 209 35 342 38 314 6 495 6 504 1 6 -4 11 -23 11 -42 0 -32 -4 -36 -57 -60 -59 -27 -71 -29 -378 -54 -113 -9 -166 -18 -207 -35 -22 -9 -23 -44 -6 -174 10 -74 17 -96 33 -107 17 -11 53 -10 215 1 107 8 232 15 277 15 95 0 103 -7 103 -84 0 -64 -14 -69 -205 -78 -88 -4 -185 -12 -215 -17 -30 -6 -77 -15 -104 -20 -26 -4 -52 -14 -58 -22 -5 -8 -7 -36 -4 -64 3 -27 6 -96 6 -152 0 -141 5 -146 138 -139 197 10 418 24 467 30 67 9 98 -8 106 -55 8 -52 -4 -75 -43 -83 -18 -4 -55 -11 -83 -17 -53 -10 -175 -23 -370 -39 -66 -6 -151 -15 -190 -21 -38 -6 -99 -12 -135 -13 l-65 -1 -8 45 c-9 50 -20 131 -36 260 -6 47 -16 114 -21 150 -5 36 -13 100 -16 143 -6 64 -9 77 -23 75 -13 -3 -16 -18 -15 -93 1 -50 7 -128 13 -175 21 -153 32 -253 38 -348 7 -119 10 -120 156 -103 56 7 140 16 187 21 47 5 126 14 175 20 50 6 133 15 185 21 52 5 120 14 150 20 30 5 75 13 100 17 l45 7 3 94 c2 60 -1 98 -9 107 -9 11 -47 14 -178 14 -91 0 -180 -4 -196 -9 -17 -4 -93 -10 -169 -12 l-139 -4 -13 55 c-7 30 -13 87 -14 126 0 106 1 107 275 124 159 10 250 18 283 26 l22 4 0 100 c0 57 -5 110 -12 126 l-13 27 -115 -6 c-63 -4 -186 -10 -272 -13 l-157 -7 -12 29 c-7 16 -12 52 -13 79 l-1 50 95 6 c52 3 129 12 170 21 41 9 104 21 140 27 212 35 214 35 228 61 9 18 11 49 7 109 -3 46 -8 87 -11 92 -7 13 -334 8 -564 -7z"/>
<path d="M835 7729 c-38 -4 -189 -12 -334 -18 -152 -5 -268 -14 -273 -19 -7 -7 -5 -41 6 -104 9 -51 20 -131 25 -178 5 -47 14 -130 20 -185 22 -192 31 -322 41 -570 6 -137 15 -261 21 -274 7 -17 15 -22 32 -18 12 3 40 10 63 16 43 11 157 26 304 41 47 5 131 13 187 19 279 28 423 109 462 259 28 106 35 183 21 235 -18 75 -51 135 -104 191 -48 51 -51 56 -38 72 18 20 51 122 60 184 12 79 -2 198 -27 243 -21 38 -100 81 -186 102 -65 16 -170 17 -280 4z m294 -60 c34 -7 64 -22 91 -47 38 -34 42 -43 52 -111 18 -120 -17 -261 -78 -318 -33 -30 -30 -39 16 -68 59 -37 125 -135 145 -216 7 -29 -9 -162 -27 -223 -15 -48 -77 -112 -134 -137 -22 -10 -85 -25 -140 -34 -54 -9 -119 -20 -144 -25 -25 -5 -84 -12 -132 -15 -48 -4 -151 -17 -228 -29 -116 -19 -142 -21 -151 -10 -6 8 -15 80 -20 161 -5 82 -14 186 -19 233 -6 47 -15 157 -20 245 -9 154 -13 204 -40 437 -9 80 -10 112 -1 121 8 11 71 16 263 22 139 4 273 11 298 15 69 12 213 11 269 -1z"/>
<path d="M598 7513 c-92 -5 -107 -16 -82 -64 10 -20 20 -72 24 -134 10 -131 18 -149 69 -163 23 -5 54 -9 69 -7 163 20 226 32 307 60 62 21 71 29 107 84 21 34 28 57 28 96 0 62 -16 86 -75 114 -41 19 -60 21 -207 19 -90 -1 -197 -4 -240 -5z m430 -73 c28 -17 32 -25 32 -61 0 -50 -28 -92 -72 -109 -18 -6 -42 -16 -53 -20 -66 -28 -199 -52 -260 -48 l-50 3 -8 80 c-16 157 -17 148 28 161 23 7 104 13 195 13 138 1 159 -1 188 -19z"/>
<path d="M755 7015 c-11 -2 -59 -7 -107 -10 -52 -4 -88 -11 -90 -18 -7 -19 9 -340 17 -359 10 -24 37 -23 142 6 134 36 181 46 213 46 44 0 136 26 164 47 32 24 66 84 66 117 0 38 -39 115 -68 134 -15 9 -58 20 -97 24 -114 11 -219 17 -240 13z m240 -73 c53 -6 62 -11 82 -41 56 -83 5 -148 -127 -162 -36 -4 -110 -12 -165 -19 -55 -7 -113 -13 -130 -13 l-30 -2 -6 110 c-4 66 -3 115 3 122 5 7 26 14 46 16 47 6 248 -1 327 -11z"/>
<path d="M796 3564 c-5 -12 -14 -14 -45 -9 -32 5 -39 3 -43 -12 -3 -11 -25 -25 -56 -36 -28 -11 -67 -31 -85 -45 -87 -70 -223 -248 -278 -366 -99 -211 -89 -571 20 -779 77 -147 109 -196 161 -248 80 -78 133 -106 262 -136 101 -23 134 -26 308 -27 166 -1 264 7 317 25 6 2 22 -12 35 -31 18 -27 31 -35 58 -37 19 -2 72 -8 118 -14 64 -9 86 -8 97 1 13 10 15 53 15 259 0 175 4 270 15 331 8 47 18 124 22 173 5 74 3 90 -11 106 -13 14 -26 18 -50 14 -17 -3 -72 2 -121 10 -145 25 -304 39 -395 35 l-85 -3 -8 -80 c-11 -117 -12 -169 -3 -183 5 -8 35 -12 87 -12 81 0 193 -23 217 -45 12 -10 11 -18 -3 -46 -34 -67 -80 -120 -130 -153 -65 -44 -191 -86 -256 -86 -136 0 -297 121 -346 260 -26 73 -2 432 37 550 4 14 16 51 25 82 14 48 27 67 79 116 92 85 141 106 246 105 150 -2 245 -64 317 -206 23 -45 44 -90 47 -99 5 -16 23 -18 192 -18 157 0 190 3 205 16 l17 16 -19 56 c-44 131 -97 214 -180 280 -69 57 -205 130 -299 162 -36 12 -70 28 -76 36 -6 8 -29 13 -60 12 -27 -1 -65 4 -84 10 -58 18 -134 31 -145 24 -17 -11 -84 -12 -90 -2 -9 15 -22 12 -29 -6z m184 -59 c30 -8 82 -19 116 -25 184 -30 376 -123 482 -234 54 -56 117 -160 107 -177 -6 -8 -250 -3 -265 6 -6 4 -29 45 -51 92 l-39 84 -62 29 c-93 43 -238 73 -317 65 -79 -7 -194 -55 -239 -98 -39 -37 -55 -66 -77 -134 -20 -62 -35 -93 -55 -118 -9 -11 -28 -47 -41 -80 -22 -55 -24 -73 -24 -231 1 -176 8 -221 47 -292 10 -18 18 -40 18 -49 0 -19 108 -124 170 -164 57 -38 158 -69 221 -69 27 0 89 13 138 29 143 45 228 125 297 276 27 59 28 83 4 96 -30 15 -196 49 -255 51 l-60 3 3 65 c5 93 6 94 137 87 97 -6 395 -49 413 -61 10 -6 -5 -209 -28 -366 -11 -74 -21 -184 -24 -245 l-4 -110 -40 -3 c-69 -5 -81 7 -75 78 8 89 -27 118 -78 64 -54 -58 -156 -94 -271 -94 -54 0 -89 -4 -94 -11 -10 -16 -153 -6 -279 20 -116 24 -192 61 -251 123 -56 59 -166 240 -189 309 -13 41 -24 148 -31 285 -7 144 10 279 46 361 40 90 187 281 259 337 75 56 215 107 321 115 8 0 40 -6 70 -14z"/>
<path d="M2520 3505 c-7 -8 -44 -24 -84 -36 -110 -33 -256 -106 -334 -167 -42 -34 -135 -150 -168 -212 -11 -19 -28 -48 -38 -63 -10 -15 -30 -58 -44 -95 -22 -60 -25 -85 -29 -247 -5 -216 16 -356 66 -436 98 -158 228 -302 306 -339 17 -8 37 -20 45 -26 32 -27 138 -73 200 -87 36 -9 126 -19 200 -22 125 -6 142 -5 230 19 52 14 110 26 129 26 27 0 54 15 125 69 194 149 242 231 286 493 24 136 22 256 -7 438 -17 109 -74 289 -110 341 -30 46 -163 164 -213 189 -63 32 -239 100 -260 100 -11 0 -40 7 -66 16 -26 9 -73 17 -105 18 -38 2 -65 9 -77 19 -23 21 -36 21 -52 2z m345 -125 c176 -61 228 -91 321 -187 70 -72 84 -93 103 -151 32 -98 59 -240 72 -380 10 -106 9 -132 -4 -180 -8 -31 -21 -77 -27 -100 -6 -24 -42 -106 -79 -182 -63 -127 -75 -143 -146 -209 -89 -83 -106 -93 -223 -129 -77 -24 -102 -27 -223 -26 -129 0 -261 16 -304 37 -43 20 -189 123 -235 164 -26 24 -63 67 -81 95 -18 29 -43 65 -55 81 -13 15 -40 62 -60 104 l-38 76 -4 160 c-6 213 14 351 65 450 28 54 172 235 211 264 83 63 257 143 280 129 4 -2 39 4 78 14 107 30 201 22 349 -30z"/>
<path d="M2550 3213 c-95 -33 -227 -139 -289 -232 -34 -51 -63 -128 -89 -236 -28 -113 -32 -142 -32 -215 0 -65 5 -90 24 -128 14 -27 32 -54 40 -61 9 -8 16 -19 16 -25 0 -7 39 -53 88 -102 98 -100 197 -161 280 -171 138 -16 332 85 406 211 90 154 133 402 103 596 -12 81 -20 104 -54 155 -59 87 -183 169 -312 206 -79 23 -121 23 -181 2z m221 -75 c81 -33 196 -114 223 -156 12 -20 29 -62 36 -92 7 -30 16 -68 21 -84 12 -38 12 -113 0 -120 -5 -3 -11 -23 -14 -43 -6 -47 -41 -170 -50 -179 -4 -4 -7 -16 -7 -26 0 -38 -170 -223 -236 -256 -157 -79 -315 -33 -445 128 -78 98 -82 112 -76 253 3 67 12 151 22 187 26 102 91 226 145 281 47 47 156 109 191 109 10 0 21 5 24 10 11 18 110 11 166 -12z"/>
<path d="M4710 3229 c-81 -10 -219 -58 -271 -94 -21 -15 -67 -60 -102 -99 -205 -231 -267 -397 -254 -687 8 -197 42 -308 154 -499 75 -128 199 -223 328 -250 237 -51 461 -54 633 -10 29 7 34 6 47 -21 22 -41 37 -46 162 -54 105 -6 112 -5 122 14 7 12 11 107 11 258 0 188 4 264 20 363 25 158 26 212 3 232 -12 11 -46 18 -103 21 -47 3 -132 12 -190 20 -129 19 -332 28 -351 16 -9 -5 -14 -29 -15 -71 -1 -35 -5 -86 -9 -114 -12 -82 -2 -91 98 -91 84 -1 198 -25 216 -47 13 -16 -23 -86 -72 -143 -48 -53 -98 -83 -201 -118 -94 -32 -149 -31 -245 6 -52 20 -75 37 -131 97 -47 51 -73 89 -84 122 -36 109 -7 454 51 630 33 97 95 164 196 210 66 31 74 32 149 27 100 -8 170 -38 229 -101 39 -40 108 -157 123 -208 5 -16 23 -17 198 -13 224 4 224 4 195 85 -39 110 -87 196 -134 241 -83 80 -217 160 -333 198 -109 35 -166 51 -184 51 -12 0 -39 7 -61 14 -58 20 -121 25 -195 15z m160 -69 c36 -11 77 -20 91 -20 61 0 290 -89 374 -144 56 -38 155 -141 179 -187 46 -86 49 -83 -99 -80 l-130 2 -22 25 c-13 14 -23 33 -24 42 0 9 -13 40 -28 67 -22 41 -37 55 -87 80 -33 17 -89 36 -124 43 -36 7 -87 17 -113 23 -49 11 -78 7 -185 -27 -126 -41 -155 -71 -217 -229 -15 -38 -36 -79 -46 -90 -50 -55 -88 -265 -70 -382 6 -40 11 -88 11 -107 0 -20 11 -59 24 -88 13 -29 27 -63 31 -76 7 -24 126 -152 141 -152 4 0 17 -8 28 -19 12 -10 50 -29 85 -41 88 -31 195 -31 276 -1 97 35 117 47 178 101 45 41 67 72 104 147 35 73 44 99 36 111 -12 21 -119 50 -238 66 l-90 12 2 59 c1 32 4 64 7 72 6 16 168 18 243 3 26 -5 82 -14 123 -20 41 -6 98 -17 125 -24 l50 -13 -4 -119 c-4 -146 -7 -175 -21 -239 -6 -27 -16 -117 -23 -200 l-12 -150 -55 0 -55 0 3 58 c4 98 -31 125 -89 68 -16 -16 -65 -43 -109 -60 -65 -25 -94 -31 -159 -31 -44 0 -83 -4 -86 -10 -17 -28 -322 19 -422 65 -54 24 -153 109 -153 130 0 6 -9 20 -20 30 -11 10 -20 22 -20 27 0 5 -13 28 -28 51 -82 121 -99 189 -109 437 -7 174 7 273 50 370 32 70 161 244 225 301 51 46 147 99 179 99 11 0 23 4 29 9 9 9 104 27 154 30 14 0 54 -8 90 -19z"/>
<path d="M6369 3155 c-3 -3 -37 -13 -75 -23 -88 -24 -246 -100 -315 -154 -59 -45 -179 -189 -179 -214 0 -3 -8 -18 -19 -32 -84 -119 -96 -171 -96 -417 0 -292 10 -333 118 -486 74 -105 206 -249 228 -249 5 0 37 -17 71 -38 119 -72 215 -98 395 -106 108 -4 134 -2 219 20 53 13 112 24 131 24 44 0 151 71 256 170 52 48 123 179 138 255 31 145 39 215 39 334 0 143 -7 199 -45 351 -47 191 -58 213 -159 311 -96 95 -182 146 -321 190 -22 7 -44 17 -49 21 -6 4 -20 8 -32 8 -12 0 -49 6 -81 14 -64 16 -215 30 -224 21z m242 -81 c30 -8 72 -20 94 -27 22 -6 44 -14 50 -19 5 -4 17 -8 26 -8 10 0 55 -19 101 -42 109 -54 226 -169 257 -252 56 -150 108 -515 81 -566 -7 -13 -18 -52 -26 -87 -8 -39 -42 -123 -85 -210 l-72 -144 -81 -71 c-94 -81 -113 -92 -209 -121 -58 -16 -106 -21 -241 -24 -109 -3 -173 0 -180 7 -5 5 -22 10 -37 10 -36 0 -90 19 -114 40 -11 10 -49 35 -85 56 -64 37 -190 148 -190 167 0 5 -21 39 -46 76 -26 36 -61 95 -78 131 l-31 65 -3 180 c-4 173 5 275 30 350 21 62 48 115 76 147 15 18 47 60 72 93 24 33 55 70 69 83 74 67 223 139 316 153 33 4 80 12 105 17 71 15 143 13 201 -4z"/>
<path d="M6420 2881 c-102 -32 -256 -158 -317 -261 -12 -19 -27 -55 -34 -80 -7 -25 -15 -49 -19 -55 -4 -5 -12 -37 -19 -70 -7 -33 -17 -73 -22 -89 -5 -16 -9 -74 -9 -130 l0 -101 33 -49 c17 -27 37 -58 44 -69 6 -11 49 -58 95 -104 81 -82 160 -138 227 -161 79 -28 211 -1 302 62 49 32 139 112 139 122 0 3 9 18 20 33 22 32 64 154 87 256 19 84 21 285 4 368 -24 111 -113 208 -259 282 -93 46 -207 66 -272 46z m169 -67 c53 -15 133 -55 162 -80 8 -8 20 -14 25 -14 21 0 83 -77 97 -120 30 -90 49 -182 44 -213 -6 -42 -40 -165 -66 -245 -23 -71 -89 -160 -177 -241 -65 -60 -101 -78 -175 -90 -145 -24 -285 58 -387 224 l-37 60 3 108 c7 259 110 483 257 560 45 23 162 65 186 66 8 1 39 -6 68 -15z"/>
<path d="M7453 3008 c-6 -7 -13 -67 -17 -133 -4 -66 -11 -151 -16 -190 -5 -38 -16 -203 -24 -365 -8 -162 -20 -322 -26 -355 -9 -52 -32 -311 -47 -517 l-5 -68 25 -9 c14 -6 112 -15 219 -21 106 -6 265 -15 353 -20 301 -19 587 -8 606 21 8 14 22 138 23 206 1 64 -18 82 -84 83 -25 0 -88 9 -140 19 -131 26 -236 39 -367 47 -64 3 -119 11 -129 19 -25 18 -29 137 -15 424 17 355 46 767 56 806 4 15 -3 26 -30 43 -32 21 -46 22 -204 22 -123 0 -171 -3 -178 -12z m326 -74 c11 -4 13 -26 7 -122 -4 -64 -11 -135 -16 -157 -5 -22 -10 -112 -10 -200 0 -158 -17 -410 -42 -615 -6 -58 -12 -121 -12 -140 l-1 -35 85 -7 c132 -10 203 -19 225 -28 24 -11 68 -16 250 -30 200 -15 209 -18 213 -60 1 -19 -3 -53 -11 -75 l-14 -39 -84 -13 c-99 -14 -485 -17 -556 -4 -28 6 -113 11 -189 12 -76 1 -144 5 -150 10 -7 6 -8 30 -2 75 4 37 4 72 -1 78 -5 6 -12 45 -16 86 -12 112 -8 711 4 820 6 52 15 131 20 175 22 188 31 246 41 265 11 20 17 20 128 15 64 -4 123 -9 131 -11z"/>
<path d="M8732 2873 c-13 -36 -20 -105 -37 -393 -14 -225 -37 -513 -50 -630 -4 -30 -10 -140 -15 -245 -4 -104 -13 -210 -19 -234 -14 -51 -1 -105 27 -116 81 -32 699 -50 857 -25 131 21 246 68 311 128 68 64 177 261 225 407 47 145 53 335 18 537 -26 154 -51 234 -88 284 -37 52 -142 135 -220 175 -65 33 -69 34 -396 59 -163 12 -268 26 -349 44 -37 9 -98 16 -136 16 -38 0 -72 5 -75 10 -12 20 -43 10 -53 -17z m318 -79 c96 -14 225 -29 285 -34 189 -14 339 -32 371 -45 40 -16 137 -91 191 -147 43 -44 60 -88 83 -213 6 -27 16 -86 25 -130 43 -234 -9 -500 -137 -692 -15 -23 -28 -45 -28 -50 0 -17 -110 -122 -147 -141 -114 -58 -241 -76 -538 -76 -233 0 -338 9 -421 36 l-39 13 2 270 c1 263 15 502 33 597 5 26 14 141 20 255 9 188 26 356 37 376 7 13 84 7 263 -19z"/>
<path d="M9066 2619 c-5 -16 -11 -68 -26 -244 -6 -66 -15 -167 -21 -225 -5 -58 -14 -154 -19 -215 -9 -98 -21 -222 -37 -356 -6 -57 16 -106 53 -115 14 -4 58 -4 97 0 40 4 115 11 167 15 103 9 217 43 275 82 52 35 92 121 156 335 13 43 11 358 -2 408 -26 98 -34 118 -65 155 -18 21 -48 45 -66 54 -40 19 -158 50 -253 67 -38 7 -99 19 -135 27 -117 26 -120 26 -124 12z m199 -85 c50 -9 100 -20 113 -25 13 -5 34 -9 47 -9 13 0 27 -4 30 -10 3 -5 15 -10 26 -10 36 0 98 -40 123 -78 46 -71 57 -140 54 -332 -3 -162 -6 -182 -34 -271 -37 -116 -59 -157 -103 -186 -66 -45 -235 -82 -391 -86 l-65 -2 -4 30 c-2 17 2 73 8 125 7 52 16 239 22 415 8 283 18 408 34 454 3 8 13 11 28 7 12 -3 63 -13 112 -22z"/>
</g>
</g>
</svg>
