<?xml version="1.0" standalone="no"?>
<!DOCTYPE svg PUBLIC "-//W3C//DTD SVG 1.1//EN"
 "http://www.w3.org/Graphics/SVG/1.1/DTD/svg11.dtd">
<!-- Created with svg_stack (http://github.com/astraw/svg_stack) -->
<svg xmlns:sodipodi="http://sodipodi.sourceforge.net/DTD/sodipodi-0.dtd" xmlns="http://www.w3.org/2000/svg" version="1.1" width="595.0" height="340.0">
  <defs/>
  <g id="id0:id0" transform="matrix(1.25,0,0,1.25,0.0,0.0)"><g transform="translate(0.000000,272.000000) scale(0.040000,-0.040000)" fill="#ffffff" stroke="none">
<path d="M0 3400 l0 -3400 5950 0 5950 0 0 3400 0 3400 -5950 0 -5950 0 0 -3400z m4108 2962 l3 -91 82 -60 c45 -34 100 -74 122 -91 22 -16 72 -53 111 -82 270 -201 304 -237 304 -321 0 -39 -44 -137 -62 -137 -7 0 -45 7 -83 15 -39 8 -126 24 -195 35 -69 12 -155 28 -192 37 -111 27 -115 17 -51 -117 62 -129 190 -232 363 -294 116 -42 150 -67 209 -154 13 -18 27 -32 32 -30 4 2 62 54 128 116 l119 112 86 0 c51 0 88 -4 92 -11 4 -7 19 -8 43 -3 20 4 90 7 156 7 209 0 849 -23 857 -31 4 -4 -35 -51 -86 -105 l-93 -99 -49 7 c-38 6 -56 15 -79 40 -28 31 -35 34 -105 38 -41 3 -155 10 -253 17 l-179 13 -41 -30 c-29 -20 -41 -36 -39 -49 4 -21 128 -287 203 -435 27 -53 46 -98 43 -101 -2 -3 -24 -1 -47 3 -23 5 -69 14 -102 20 -72 12 -98 28 -115 68 -11 27 -10 34 4 50 9 9 16 23 16 29 0 18 -120 261 -132 268 -6 4 -77 -60 -158 -141 l-148 -148 -23 -89 -24 -90 -39 -14 c-22 -7 -43 -19 -48 -26 -34 -54 -71 -120 -89 -158 -12 -25 -37 -69 -55 -97 -19 -29 -48 -81 -65 -115 -17 -35 -39 -74 -49 -88 -9 -14 -38 -65 -64 -115 -27 -49 -52 -94 -56 -100 -4 -5 -26 -44 -48 -85 -36 -68 -63 -115 -157 -282 -16 -29 -48 -86 -70 -128 -22 -41 -53 -94 -68 -117 -15 -23 -46 -80 -69 -127 l-42 -85 19 -169 18 -169 -52 -90 c-28 -49 -51 -92 -51 -97 0 -4 -13 -26 -28 -49 -16 -23 -32 -49 -35 -57 -25 -54 -91 -159 -139 -224 -32 -42 -58 -85 -58 -97 0 -63 105 -595 121 -615 6 -7 43 -23 82 -35 40 -11 80 -29 89 -38 20 -18 68 -132 61 -143 -2 -5 -38 -8 -79 -8 -83 0 -88 -5 -59 -73 8 -20 11 -38 6 -41 -5 -3 -62 6 -127 20 -66 14 -157 33 -204 43 l-85 17 -27 109 c-16 61 -44 186 -63 279 -36 176 -56 250 -75 285 -9 18 -20 21 -74 21 -89 0 -200 31 -307 86 -179 92 -307 241 -366 429 -52 162 -56 185 -56 290 -1 116 18 175 79 255 46 60 99 85 274 129 69 17 143 37 165 44 l40 12 3 122 3 121 64 94 c35 51 122 178 192 282 70 103 135 198 143 210 160 235 173 261 246 508 l17 57 -22 123 c-12 67 -24 124 -26 127 -12 11 -60 -29 -141 -118 -48 -53 -92 -96 -97 -96 -15 0 -35 79 -47 184 -6 53 -16 134 -22 181 -19 141 -15 603 6 745 31 204 96 363 173 422 19 16 50 40 68 56 55 46 144 95 183 101 20 3 58 8 85 11 40 5 47 9 47 28 0 12 -11 38 -24 57 -34 51 -41 79 -21 86 12 5 34 -10 74 -50 32 -31 66 -56 77 -56 26 0 55 32 84 90 49 99 64 93 68 -28z m3366 -549 c4 -5 52 -6 106 -4 63 2 100 -1 104 -8 4 -6 18 -11 32 -11 13 0 32 -4 42 -9 9 -5 44 -22 77 -37 161 -73 277 -136 286 -155 12 -25 29 -85 29 -102 0 -9 9 -22 20 -29 23 -14 74 -90 85 -127 4 -12 21 -36 39 -52 28 -26 37 -28 109 -29 42 0 85 4 95 9 66 36 248 42 300 11 17 -11 32 -23 32 -28 0 -13 83 -93 113 -109 23 -11 38 -12 78 -4 28 6 65 11 84 11 19 0 37 5 40 10 3 6 32 10 64 10 31 0 62 5 67 10 8 8 15 6 24 -5 19 -22 31 -19 77 23 100 89 118 99 195 106 l72 8 29 -34 c15 -18 32 -43 37 -55 6 -15 18 -23 35 -23 22 0 36 -5 81 -29 6 -3 23 -14 38 -25 20 -14 29 -16 40 -7 11 9 29 -2 87 -56 41 -37 82 -80 91 -95 10 -15 25 -28 35 -28 9 0 35 -12 56 -27 35 -24 48 -27 112 -26 65 1 78 -2 140 -36 70 -38 80 -48 89 -92 3 -15 14 -29 26 -32 11 -3 29 -27 44 -59 14 -30 32 -61 41 -68 8 -7 15 -25 15 -40 0 -20 17 -43 73 -96 41 -38 93 -84 116 -103 59 -47 81 -86 81 -145 0 -34 9 -69 31 -115 54 -113 69 -152 69 -176 0 -13 5 -27 10 -30 6 -3 10 -21 10 -39 0 -25 -7 -38 -25 -50 -27 -18 -61 -21 -70 -6 -3 6 -14 10 -24 10 -10 0 -24 7 -31 15 -11 13 -59 15 -320 15 -261 0 -309 -2 -320 -15 -7 -8 -19 -15 -26 -15 -15 0 -81 -35 -105 -56 -8 -8 -27 -14 -41 -14 -18 0 -32 -10 -46 -32 -21 -34 -49 -74 -116 -166 -31 -42 -41 -50 -52 -41 -8 6 -14 24 -14 39 0 15 -9 35 -20 45 -17 15 -20 31 -20 106 l0 88 -32 15 c-17 9 -37 16 -43 16 -7 0 -18 7 -25 15 -10 13 -54 15 -280 15 -226 0 -270 -2 -280 -15 -7 -8 -18 -15 -25 -15 -17 0 -61 -53 -70 -82 -4 -13 -14 -31 -22 -40 -13 -15 -12 -20 11 -51 26 -34 34 -81 16 -92 -5 -3 -10 -14 -10 -24 0 -10 -7 -24 -15 -31 -11 -9 -15 -32 -15 -77 0 -55 4 -70 25 -95 29 -34 30 -46 11 -93 -20 -48 -42 -44 -69 14 -54 110 -185 266 -311 367 -103 83 -152 110 -172 93 -12 -9 -27 -5 -79 21 -35 18 -75 45 -88 60 -43 48 -249 100 -394 100 -59 0 -84 -4 -93 -15 -7 -8 -21 -15 -31 -15 -10 0 -21 -4 -24 -10 -10 -16 -111 -12 -124 4 -8 10 -20 12 -39 6 -189 -58 -247 -80 -302 -113 -36 -22 -81 -48 -100 -59 -19 -11 -53 -34 -75 -51 -61 -47 -215 -199 -215 -212 0 -6 -11 -22 -25 -35 -22 -21 -98 -149 -151 -255 -11 -22 -26 -40 -34 -40 -8 0 -31 27 -51 60 -20 33 -44 62 -55 65 -27 7 -81 50 -99 77 -13 19 -13 26 -3 43 11 17 9 23 -10 42 -18 19 -25 21 -41 11 -16 -10 -22 -8 -37 8 -9 10 -22 19 -29 19 -21 0 -47 37 -40 58 8 27 -8 35 -79 39 -79 4 -161 43 -188 90 -11 18 -29 38 -39 44 -11 5 -19 20 -19 33 0 13 -7 29 -15 36 -8 7 -15 19 -15 27 0 27 -40 73 -64 73 -13 0 -29 7 -36 15 -10 12 -47 15 -211 15 -109 0 -200 4 -203 8 -3 5 13 33 34 63 22 30 44 63 49 74 5 11 21 37 35 58 14 21 26 42 26 47 0 18 105 110 138 121 32 11 42 32 21 45 -7 4 13 30 55 70 36 34 66 67 66 73 0 6 24 28 53 49 64 48 81 67 73 87 -6 17 46 81 74 90 23 7 40 61 40 125 0 66 33 145 82 198 46 51 70 66 117 77 18 4 31 13 31 21 0 20 49 64 70 64 10 0 23 -7 30 -15 7 -8 21 -15 31 -15 10 0 37 -18 59 -39 23 -22 56 -42 74 -45 18 -3 45 -20 61 -36 24 -25 37 -30 76 -30 27 0 51 -6 58 -14 15 -18 72 -4 155 38 52 26 61 35 62 59 1 15 6 33 13 40 6 6 11 34 11 62 0 41 -5 56 -24 74 -14 13 -22 30 -19 40 3 11 -6 29 -21 44 -14 14 -26 34 -26 43 0 20 38 64 55 64 18 0 78 89 71 106 -9 23 23 84 50 96 13 6 32 31 44 55 11 24 27 46 35 49 8 4 15 16 15 29 0 29 39 55 82 56 18 0 47 9 63 19 32 20 57 24 69 13z m-2497 -1703 c46 0 63 -16 83 -77 7 -23 28 -56 46 -74 19 -18 34 -39 34 -46 0 -6 15 -38 34 -70 30 -51 33 -60 20 -74 -8 -8 -14 -34 -14 -56 0 -46 -7 -54 -69 -73 -28 -9 -54 -27 -74 -52 -28 -35 -76 -68 -99 -68 -6 0 -23 -10 -40 -21 -26 -19 -33 -20 -53 -9 -21 12 -28 10 -59 -14 -112 -85 -211 -196 -263 -296 -16 -30 -34 -64 -40 -75 -49 -93 -73 -190 -90 -367 -5 -50 -2 -60 21 -91 28 -36 32 -57 15 -74 -17 -17 -23 -120 -10 -166 41 -142 82 -223 175 -348 53 -72 200 -213 236 -227 8 -3 33 -17 55 -32 22 -14 63 -36 90 -49 53 -25 63 -29 135 -56 63 -24 70 -32 70 -83 0 -38 5 -52 32 -79 18 -18 40 -33 50 -33 9 0 33 -9 53 -20 33 -19 54 -20 329 -20 l293 0 47 59 c41 53 46 65 46 110 0 40 4 53 18 57 9 3 27 10 40 15 12 5 32 13 45 18 189 73 411 256 505 417 22 38 49 81 60 94 l20 25 33 -73 c21 -44 40 -72 50 -72 8 0 26 -11 39 -25 18 -19 22 -31 17 -61 -5 -32 -1 -43 41 -97 105 -135 233 -254 338 -312 27 -15 60 -35 74 -44 37 -25 141 -68 210 -88 19 -6 54 -16 77 -23 38 -12 45 -11 61 3 37 34 156 16 192 -29 11 -12 30 -14 114 -8 167 11 358 59 461 117 11 6 45 25 75 41 160 88 308 223 410 376 76 114 100 131 100 69 0 -17 11 -45 25 -63 23 -30 25 -42 25 -129 0 -53 -4 -99 -10 -102 -5 -3 -10 -14 -10 -24 0 -10 -7 -24 -15 -31 -21 -18 -19 -38 10 -72 14 -16 25 -40 25 -53 0 -48 77 -70 139 -39 30 15 34 15 50 0 10 -9 22 -16 27 -16 6 0 14 -4 20 -10 5 -5 80 -11 167 -13 87 -2 161 -8 166 -13 17 -18 -32 -95 -76 -120 -24 -13 -45 -19 -48 -14 -14 22 -45 7 -107 -53 -36 -34 -83 -68 -104 -76 -22 -7 -47 -20 -56 -28 -21 -19 -101 -20 -134 -3 -20 11 -29 12 -44 2 -11 -7 -29 -12 -39 -12 -11 0 -23 -4 -26 -10 -3 -5 -24 -10 -47 -10 -31 0 -41 4 -45 20 -4 17 -14 20 -54 20 -26 0 -51 -4 -54 -10 -3 -5 -17 -10 -30 -10 -13 0 -27 -4 -30 -10 -10 -17 -55 -11 -82 10 -37 29 -138 28 -169 -1 -30 -28 -115 -30 -145 -3 -20 18 -39 19 -293 16 -215 -3 -274 -7 -287 -18 -8 -8 -23 -14 -32 -14 -9 0 -19 -4 -22 -10 -8 -13 -162 -13 -170 0 -3 6 -13 10 -22 10 -9 0 -25 7 -35 17 -17 15 -19 15 -36 0 -10 -10 -26 -17 -35 -17 -9 0 -19 -4 -22 -10 -3 -6 -51 -10 -107 -10 -124 0 -138 -8 -138 -84 l0 -51 48 -22 c44 -21 62 -23 218 -23 94 0 174 3 177 7 13 13 91 14 114 2 20 -11 29 -9 64 9 60 32 102 29 159 -14 22 -16 78 -25 85 -13 4 5 18 1 35 -11 21 -15 44 -20 88 -20 34 0 64 5 67 11 5 7 13 5 24 -5 16 -15 21 -15 52 1 61 31 103 43 158 43 104 0 140 -22 229 -139 44 -59 101 -33 102 45 0 59 23 76 113 82 l74 4 20 -28 c11 -16 25 -44 32 -62 8 -20 20 -32 32 -32 10 0 21 -5 24 -10 3 -6 18 -10 33 -10 27 0 52 33 52 68 0 8 9 27 21 43 19 27 25 29 88 29 58 0 72 -3 95 -25 14 -13 30 -35 36 -49 8 -22 15 -25 60 -24 27 1 50 5 50 10 0 15 92 68 149 86 31 9 66 27 80 40 32 30 81 29 115 -3 14 -13 26 -28 26 -33 0 -5 16 -25 35 -45 22 -23 33 -42 29 -52 -4 -8 -1 -22 5 -29 8 -10 9 -16 1 -21 -17 -10 -12 -44 10 -62 16 -14 17 -20 7 -32 -7 -9 -19 -34 -26 -56 -7 -22 -24 -57 -38 -77 -20 -30 -23 -41 -14 -52 9 -11 5 -20 -20 -45 -26 -27 -37 -31 -61 -25 -28 6 -45 1 -100 -27 -10 -5 -51 -9 -93 -9 -60 0 -83 5 -118 24 -25 14 -53 23 -64 20 -14 -4 -25 2 -37 20 -14 22 -24 26 -66 26 -35 0 -50 -4 -50 -14 0 -7 -11 -25 -25 -40 -21 -23 -32 -26 -87 -26 -84 0 -135 25 -160 80 -17 37 -21 40 -61 40 -38 0 -43 -3 -56 -33 -8 -17 -25 -44 -39 -60 -23 -24 -33 -27 -87 -27 -63 0 -85 11 -85 42 0 15 -9 18 -59 18 -33 0 -63 -4 -66 -10 -3 -5 -19 -7 -35 -4 -20 5 -38 0 -58 -15 -17 -11 -37 -21 -45 -21 -9 0 -19 -5 -22 -10 -3 -6 -39 -10 -78 -10 -112 1 -193 53 -214 139 -11 44 -55 91 -85 91 -41 0 -61 -26 -55 -73 3 -21 13 -47 22 -57 12 -13 14 -23 6 -37 -5 -10 -12 -26 -15 -35 -4 -15 -19 -18 -83 -19 -43 -1 -97 -1 -121 1 -23 1 -49 -4 -58 -11 -11 -9 -18 -9 -26 -1 -7 7 -36 12 -65 12 -42 0 -55 4 -59 18 -3 9 -10 25 -15 35 -7 13 -7 23 1 32 7 8 10 48 9 102 l-2 88 29 5 c31 6 41 31 30 76 -5 20 -13 24 -45 24 -53 0 -73 -21 -69 -74 2 -36 0 -41 -20 -44 -12 -2 -22 -7 -22 -11 0 -4 -16 -25 -35 -47 -38 -43 -43 -65 -19 -84 44 -38 -32 -119 -112 -120 -56 0 -69 17 -54 67 6 21 16 51 21 67 6 23 5 34 -7 47 -11 12 -15 40 -15 104 -1 84 -15 133 -50 170 -5 5 -9 19 -9 31 0 20 -4 22 -37 18 -21 -3 -47 -10 -58 -15 -26 -13 -49 -59 -35 -73 5 -5 10 -19 10 -29 0 -11 18 -39 40 -63 42 -46 49 -75 28 -115 -20 -37 -159 -172 -193 -188 -16 -7 -38 -18 -49 -23 -29 -15 -189 -12 -217 3 -34 20 -79 61 -79 73 0 5 10 20 21 33 16 16 19 26 12 35 -7 8 -7 22 -2 36 8 20 15 22 84 22 83 0 87 4 59 58 -8 18 -12 36 -9 42 10 16 -15 41 -35 35 -9 -3 -23 1 -30 10 -15 18 -115 21 -126 4 -3 -6 -14 -9 -24 -6 -25 7 -43 -6 -87 -65 -32 -43 -44 -72 -63 -153 -13 -55 -28 -106 -33 -113 -7 -8 -28 -12 -61 -10 l-51 3 3 30 c1 17 8 42 14 58 9 22 8 31 -6 46 -11 12 -16 37 -16 84 0 36 -4 69 -10 72 -5 3 -10 14 -10 24 0 10 -7 32 -15 48 -14 28 -20 31 -78 36 -56 4 -65 2 -89 -21 -24 -22 -27 -30 -21 -68 3 -24 1 -49 -4 -56 -6 -7 -13 -36 -16 -64 -5 -45 -2 -60 24 -109 37 -71 29 -85 -45 -85 -48 0 -117 18 -132 33 -13 13 -77 7 -88 -8 -17 -23 -148 -32 -176 -12 -17 12 -29 13 -53 5 -18 -6 -38 -15 -44 -21 -9 -6 -17 -6 -26 1 -8 7 -18 7 -27 2 -23 -15 -144 -12 -174 4 -48 25 -142 107 -162 141 -10 19 -15 18 -60 -8 -33 -19 -109 -99 -121 -127 -19 -44 -84 -70 -176 -70 -69 0 -84 3 -104 22 -13 12 -23 27 -23 34 0 6 -7 17 -15 24 -9 7 -23 28 -31 47 -17 34 -16 39 6 148 7 34 7 57 0 73 -34 74 -31 72 -75 72 -38 0 -46 -5 -80 -46 -28 -34 -35 -48 -26 -57 34 -34 -5 -156 -72 -223 -32 -33 -39 -35 -88 -32 -42 2 -53 6 -50 18 18 74 21 93 12 104 -5 6 -11 34 -12 61 -3 40 1 57 19 82 26 37 27 41 6 81 -13 27 -21 32 -52 32 -37 -1 -72 -19 -72 -37 0 -5 -13 -22 -30 -36 -16 -15 -32 -39 -35 -54 -3 -16 -11 -46 -16 -68 -6 -22 -14 -56 -19 -75 -5 -19 -12 -51 -17 -70 l-9 -35 -62 -3 -62 -3 -19 33 c-11 18 -23 36 -28 40 -60 53 -84 68 -112 68 -20 0 -31 -5 -31 -14 0 -8 -11 -23 -24 -34 -14 -10 -33 -34 -44 -53 -16 -30 -24 -34 -63 -37 -24 -2 -50 -8 -57 -14 -9 -8 -16 -8 -24 0 -16 16 -53 15 -78 0 -16 -10 -24 -10 -40 0 -25 15 -286 17 -295 2 -5 -8 -11 -8 -20 0 -10 8 -19 8 -34 -2 -16 -10 -23 -10 -33 0 -7 7 -43 12 -94 12 -71 0 -85 3 -96 19 -8 11 -26 23 -42 27 -15 3 -32 17 -38 30 -9 20 -19 24 -55 24 -28 0 -43 -4 -43 -12 0 -7 -18 -30 -40 -51 l-41 -38 -62 3 -62 3 -3 29 c-2 16 2 40 9 53 10 19 10 28 1 41 -7 9 -15 23 -18 30 -9 17 24 82 41 82 7 0 16 10 20 23 3 12 11 39 17 59 9 32 9 41 -5 56 -27 29 -21 58 18 88 19 14 35 34 35 43 0 9 7 36 16 60 13 39 13 46 0 53 -8 5 -12 16 -9 28 3 11 0 20 -6 20 -6 0 -17 11 -23 25 -7 15 -19 25 -33 25 -11 0 -26 5 -33 12 -9 9 -15 9 -24 0 -7 -7 -22 -12 -33 -12 -42 0 -89 -134 -54 -156 7 -4 8 -20 4 -43 -3 -20 -8 -56 -12 -80 -4 -33 -15 -53 -44 -82 -33 -33 -45 -39 -83 -39 -26 0 -48 6 -56 15 -14 17 -66 20 -76 4 -3 -6 -22 -17 -40 -25 -31 -13 -38 -12 -73 4 -36 18 -55 18 -252 11 -304 -11 -407 -19 -420 -35 -6 -8 -20 -14 -30 -14 -10 0 -21 -4 -24 -10 -10 -17 -103 -11 -138 8 -29 15 -68 17 -401 17 -274 0 -370 3 -373 12 -4 11 37 34 85 48 12 3 22 12 22 20 0 18 55 45 92 45 15 0 36 4 46 9 9 5 40 19 67 32 66 31 83 46 106 96 11 24 26 43 34 43 9 0 16 14 20 37 3 21 13 53 21 71 8 18 14 39 14 46 0 8 15 25 33 39 19 14 53 46 77 71 36 38 50 46 94 51 28 4 56 11 63 17 6 5 31 10 54 11 34 1 49 8 71 32 15 16 28 37 28 45 0 23 50 76 91 99 33 18 38 18 52 3 13 -12 21 -13 39 -5 32 14 77 27 183 52 50 12 104 26 121 31 17 6 41 10 53 10 15 0 41 19 73 52 45 47 49 56 44 88 -16 104 -16 104 -59 125 -45 22 -76 67 -59 88 7 8 6 30 -4 67 -22 86 -20 96 45 163 l58 60 59 0 c42 1 69 -5 95 -20 77 -45 229 -38 228 10 0 12 1 57 3 100 2 43 0 81 -4 83 -4 3 -8 20 -8 38 0 18 -7 41 -15 52 -22 29 -18 52 18 95 38 44 58 101 50 141 -3 16 2 43 11 63 14 29 20 33 38 26 20 -7 22 -14 18 -62 -2 -30 -4 -77 -4 -105 -1 -28 -6 -57 -13 -65 -14 -17 -10 -142 6 -191 6 -18 17 -53 25 -78 10 -33 20 -46 37 -50 15 -4 33 -24 51 -59 26 -49 27 -56 13 -71 -21 -23 -20 -23 27 -88 101 -137 213 -232 353 -298 64 -31 81 -35 96 -26 23 15 95 16 104 2 3 -5 16 -10 28 -10 12 0 30 -7 40 -15 22 -16 57 -78 57 -100 0 -9 16 -29 35 -46 28 -25 35 -38 35 -67 0 -19 -7 -44 -16 -54 -14 -15 -15 -25 -6 -60 6 -24 16 -70 22 -103 7 -33 16 -70 21 -83 14 -36 11 -52 -13 -61 -13 -5 -32 -18 -42 -30 -11 -11 -25 -21 -33 -21 -7 0 -13 -11 -13 -24 0 -14 -4 -28 -10 -31 -27 -17 14 -85 51 -85 10 0 34 -9 54 -20 45 -25 65 -25 110 0 38 21 100 27 110 10 3 -6 34 -10 69 -10 34 0 67 -5 74 -12 7 -7 36 -11 69 -9 54 1 60 -1 92 -34 65 -67 129 -83 158 -39 9 14 35 37 57 51 35 23 47 25 113 21 40 -3 75 -3 78 0 2 3 67 4 142 3 112 -2 144 1 171 14 31 16 34 16 52 0 10 -9 29 -16 42 -15 13 1 28 1 33 0 6 -1 44 -1 86 0 106 2 107 0 64 -146 -4 -13 0 -25 9 -33 12 -10 16 -32 16 -87 l0 -74 38 0 c31 0 40 6 60 35 13 21 22 50 22 74 0 31 7 46 32 72 31 30 58 86 58 120 0 8 15 30 34 48 l34 33 36 -28 c27 -22 35 -34 32 -50 -16 -63 108 -86 171 -33 18 15 48 35 68 44 20 10 35 25 35 35 0 30 44 50 108 50 52 0 63 -4 98 -34 43 -37 67 -39 132 -9 30 13 36 13 86 -12 30 -15 62 -35 72 -46 28 -31 94 -26 129 11 l29 30 147 -1 147 -1 21 -24 c12 -14 26 -22 31 -19 5 3 18 1 29 -5 13 -6 22 -7 26 0 4 6 13 5 26 -3 17 -10 23 -8 45 21 23 29 31 32 77 32 41 0 55 4 65 20 7 11 18 20 25 20 7 0 29 14 50 31 58 48 50 86 -28 124 -16 8 -38 20 -47 27 -15 10 -21 10 -35 0 -58 -41 -69 -42 -464 -42 l-381 0 -30 21 -29 21 -23 -21 c-20 -19 -34 -21 -134 -21 -103 0 -112 2 -126 22 l-16 23 -608 -3 c-334 -2 -620 1 -637 6 -21 6 -31 17 -37 39 -5 19 -25 45 -48 63 -42 33 -52 68 -26 90 12 9 13 17 4 38 -39 96 -37 94 -133 123 -61 18 -70 24 -73 53 -2 18 -9 26 -22 26 -41 0 -66 106 -33 142 17 19 16 26 -17 176 -18 76 -13 105 23 148 38 43 74 103 113 181 14 29 29 55 34 58 5 3 29 45 54 93 24 49 56 105 70 126 29 43 31 52 16 61 -13 8 -13 118 1 132 7 7 7 17 1 29 -39 76 -39 72 0 147 5 10 6 27 3 38 -4 11 5 42 21 76 21 45 24 61 15 75 -6 10 -11 26 -11 36 0 24 39 59 70 64 35 4 70 69 53 97 -22 34 12 91 54 91 18 0 28 11 46 48 24 47 39 74 96 170 17 29 31 56 31 61 0 16 36 39 72 45 23 4 39 14 43 25 5 18 81 94 101 102 5 2 20 19 33 37 14 20 31 32 46 32 34 0 55 10 55 27 0 18 52 83 66 83 19 0 24 27 8 40 -20 18 -17 50 8 77 19 21 23 21 38 8 9 -8 35 -15 57 -15z m3113 -425 c141 -23 204 -48 375 -145 66 -38 280 -245 305 -295 8 -17 34 -64 57 -105 48 -87 63 -129 93 -263 19 -86 21 -120 17 -250 -6 -222 -51 -370 -163 -549 -42 -66 -152 -185 -229 -247 -85 -68 -268 -163 -359 -186 -195 -49 -449 -44 -631 13 -16 5 -79 34 -140 65 -302 152 -508 435 -560 769 -19 123 -19 198 0 327 18 120 32 165 90 287 145 309 452 540 775 583 163 22 214 21 370 -4z m3023 -47 c35 -74 65 -155 87 -240 9 -34 22 -55 46 -73 27 -20 34 -33 34 -59 0 -19 -7 -39 -15 -46 -9 -8 -12 -18 -6 -29 4 -9 13 -50 20 -91 6 -41 16 -100 21 -131 6 -30 10 -65 10 -78 0 -12 10 -35 22 -51 l21 -30 -18 -20 c-10 -11 -24 -20 -30 -20 -15 0 -130 -99 -264 -228 -54 -50 -102 -92 -107 -92 -6 0 -25 -16 -44 -35 -45 -46 -172 -134 -210 -145 -26 -7 -33 -4 -72 39 -24 25 -65 76 -93 111 -27 36 -80 104 -117 153 -38 48 -68 90 -68 93 0 4 21 36 47 73 26 36 62 86 80 111 18 25 59 83 91 130 61 88 115 165 192 274 127 179 134 191 136 229 2 46 38 90 65 82 13 -5 25 5 45 37 22 36 82 108 90 108 1 0 18 -33 37 -72z m-5273 -47 c3 -52 10 -76 20 -82 8 -4 69 -24 135 -44 135 -42 171 -58 268 -123 111 -74 190 -167 253 -296 73 -150 84 -200 84 -373 0 -178 -9 -221 -74 -358 -75 -158 -184 -278 -321 -356 -22 -12 -58 -33 -81 -46 -40 -22 -186 -73 -212 -73 -7 0 -26 -7 -42 -15 l-29 -15 -3 -83 -3 -82 -235 0 -235 0 -3 80 c-2 44 -6 83 -10 87 -4 4 -52 19 -107 33 -326 85 -552 293 -647 595 -20 65 -23 95 -23 225 1 194 27 295 119 450 59 102 218 241 338 298 50 24 209 74 261 82 61 10 67 19 67 95 0 36 3 70 7 74 4 3 110 5 237 4 l231 -3 5 -74z m3808 67 c9 -9 12 -107 12 -380 0 -221 4 -368 9 -368 5 0 35 36 65 80 31 44 82 116 114 161 31 44 64 91 72 103 115 168 200 288 227 320 18 22 33 44 33 50 0 5 7 18 17 28 15 17 38 18 304 18 158 0 290 -4 293 -8 3 -5 -26 -53 -65 -108 -38 -54 -90 -128 -115 -164 -25 -36 -79 -112 -120 -170 -41 -58 -82 -118 -92 -134 -9 -16 -33 -49 -52 -75 -35 -45 -101 -138 -193 -274 -26 -38 -47 -74 -47 -81 0 -14 34 -62 95 -135 22 -26 76 -94 120 -151 44 -57 96 -122 115 -144 20 -23 55 -66 78 -96 57 -75 104 -135 158 -200 160 -196 217 -274 207 -284 -4 -3 -133 -6 -289 -6 l-282 0 -59 68 c-32 38 -73 89 -90 113 -18 24 -53 69 -78 99 -25 30 -65 80 -88 110 -23 30 -87 110 -142 178 -55 68 -110 137 -123 155 -36 51 -51 67 -62 67 -7 0 -10 -130 -10 -379 0 -309 -3 -381 -14 -390 -9 -8 -79 -11 -232 -9 l-219 3 -3 995 c-1 547 0 1001 3 1008 6 17 435 18 453 0z m-6943 -313 l110 0 3 -48 c4 -55 -6 -72 -47 -80 -17 -4 -32 -15 -36 -26 -13 -43 -83 -62 -119 -32 -19 16 -70 0 -141 -46 -90 -58 -124 -95 -106 -117 8 -10 9 -16 1 -21 -5 -3 -10 -19 -10 -34 0 -37 -46 -73 -57 -45 -3 9 -1 36 5 60 8 29 9 52 2 68 -8 22 -5 28 21 43 32 19 56 80 39 97 -16 16 -11 41 13 64 17 17 26 19 35 10 8 -8 15 -8 26 1 18 15 46 68 46 88 0 20 40 34 75 26 17 -4 80 -7 140 -8z m7138 -1403 c-2 -6 31 -53 72 -104 41 -51 75 -96 75 -99 0 -3 -10 -21 -23 -40 -25 -37 -69 -49 -107 -29 -18 9 -20 20 -20 98 0 71 -4 92 -20 112 -23 29 -25 51 -8 68 14 14 34 10 31 -6z"/>
<path d="M2910 2954 c-74 -32 -107 -91 -96 -168 7 -42 118 -250 177 -331 16 -22 44 -61 62 -87 31 -45 68 -95 132 -182 17 -23 40 -42 51 -44 17 -2 23 9 41 80 12 46 25 106 29 134 l6 51 -68 86 c-166 205 -164 202 -206 330 -23 67 -45 128 -51 135 -12 16 -34 15 -77 -4z"/>
<path d="M2995 930 c-4 -6 -24 -10 -46 -8 -37 2 -45 -3 -110 -68 -91 -89 -96 -99 -72 -133 10 -14 24 -38 31 -53 6 -16 17 -40 24 -54 7 -14 27 -32 45 -39 18 -8 33 -18 33 -22 0 -4 11 -16 24 -25 22 -16 27 -16 63 -2 34 14 41 22 51 62 7 26 17 61 22 78 14 42 12 60 -5 74 -17 14 -20 56 -5 65 14 9 12 76 -2 108 -13 27 -41 36 -53 17z"/>
<path d="M5385 779 c-20 -12 -39 -17 -57 -13 -21 4 -29 0 -38 -16 -9 -16 -9 -25 -1 -33 6 -6 11 -30 11 -53 0 -24 5 -46 10 -49 6 -3 10 -17 10 -31 0 -22 4 -24 50 -24 28 0 59 -5 69 -12 15 -9 24 -7 47 9 16 11 44 23 63 27 19 3 43 14 53 23 20 18 24 48 8 58 -5 3 -10 17 -10 30 0 13 -4 27 -10 30 -5 3 -10 16 -10 28 0 30 -41 47 -109 46 -37 0 -66 -7 -86 -20z"/>
<path d="M8305 755 c-41 -40 -45 -49 -45 -93 0 -52 9 -65 63 -92 22 -11 32 -12 47 -2 11 7 35 12 54 12 39 0 66 24 48 42 -7 7 -12 41 -12 78 -1 82 -13 100 -69 100 -36 0 -48 -6 -86 -45z"/>
<path d="M7749 3221 c-253 -65 -439 -308 -439 -576 0 -187 124 -398 286 -488 113 -63 174 -79 294 -79 121 -1 176 13 282 69 89 46 169 125 224 218 49 83 59 114 74 221 49 344 -235 658 -589 653 -36 0 -96 -8 -132 -18z m156 -131 c3 -5 19 -10 34 -10 31 0 83 -23 101 -45 9 -11 7 -16 -12 -27 -33 -19 -269 -18 -292 1 -15 13 -15 15 0 32 10 11 24 19 33 20 9 0 34 9 56 19 46 21 71 24 80 10z m384 -254 c8 -9 11 -70 9 -197 l-3 -184 -400 0 -400 0 -3 185 c-1 101 0 190 2 197 8 20 779 19 795 -1z m-343 -530 c93 -17 103 -24 73 -47 -13 -10 -32 -19 -41 -19 -9 0 -20 -5 -24 -11 -4 -8 -9 -8 -17 0 -6 6 -39 11 -72 11 -48 0 -66 4 -79 19 -19 21 -16 24 34 48 33 15 43 15 126 -1z"/>
<path d="M5310 3053 c-142 -52 -203 -115 -252 -258 -30 -89 -22 -217 19 -305 47 -103 179 -210 259 -210 l24 0 0 390 c0 365 -1 390 -17 389 -10 0 -25 -3 -33 -6z"/>
<path d="M5853 3043 c-20 -8 -18 -736 1 -752 19 -16 82 15 153 76 202 171 164 537 -69 654 -59 30 -64 31 -85 22z"/>
</g>
</g>
  <g id="id1:id1" transform="matrix(1.25,0,0,1.25,0.0,0.0)"><g transform="translate(0.000000,272.000000) scale(0.040000,-0.040000)" fill="#00297b" stroke="none">
<path d="M4063 6458 c-11 -13 -28 -39 -38 -58 -23 -47 -55 -80 -76 -80 -10 0 -37 22 -60 50 -43 52 -65 65 -92 54 -29 -11 -28 -36 3 -91 17 -30 29 -61 26 -68 -2 -7 -28 -14 -64 -17 -69 -5 -168 -50 -234 -107 -24 -20 -60 -49 -80 -64 -46 -34 -118 -175 -147 -287 -59 -229 -61 -759 -5 -1107 17 -106 41 -193 53 -193 5 0 21 17 37 38 42 56 186 202 194 197 7 -4 19 -78 35 -205 3 -19 0 -48 -5 -65 -69 -230 -84 -267 -133 -340 -29 -43 -70 -106 -92 -140 -22 -34 -78 -117 -125 -184 -47 -68 -93 -137 -103 -154 -10 -18 -31 -48 -46 -67 -15 -19 -54 -75 -87 -125 l-59 -90 -5 -119 -5 -120 -35 -8 c-155 -38 -313 -85 -350 -103 -73 -37 -135 -120 -160 -215 -15 -57 -15 -195 0 -262 21 -96 71 -242 98 -288 130 -227 351 -370 616 -400 37 -4 74 -14 82 -22 8 -8 27 -74 44 -148 16 -74 34 -155 39 -180 42 -190 76 -318 89 -332 8 -10 23 -18 32 -18 9 0 100 -18 203 -40 102 -22 190 -40 195 -40 18 0 21 29 6 65 -8 20 -12 40 -9 45 4 6 37 10 75 10 38 0 71 4 75 10 3 5 -10 49 -28 97 l-34 88 -84 26 c-48 16 -89 35 -95 46 -11 17 -35 128 -65 298 -6 39 -20 114 -30 169 -11 54 -19 108 -19 120 0 12 24 52 53 90 66 86 60 77 110 171 24 44 78 142 121 218 l77 138 -11 107 c-26 243 -27 231 16 313 21 41 48 90 60 110 12 20 41 71 64 115 24 43 55 99 70 124 15 25 62 108 105 185 43 77 95 169 115 205 21 36 52 94 70 130 18 36 38 72 45 80 7 8 34 56 60 105 26 50 56 101 65 115 9 14 38 67 64 117 63 122 80 143 117 143 34 0 38 8 70 129 l20 76 136 137 c75 75 140 135 145 132 10 -6 118 -233 118 -247 0 -6 -7 -18 -16 -28 -14 -16 -13 -21 6 -67 l21 -50 117 -22 c64 -13 122 -24 127 -26 6 -2 16 0 24 5 12 8 -8 57 -107 263 -160 336 -150 303 -100 329 l41 21 241 -16 c217 -15 243 -18 258 -36 9 -11 18 -26 20 -32 4 -12 99 -26 133 -19 22 4 215 202 215 220 0 18 -29 20 -435 32 -462 14 -568 15 -616 5 -24 -5 -39 -4 -43 3 -4 7 -42 11 -96 11 l-89 0 -88 -82 c-48 -45 -103 -96 -121 -112 l-33 -31 -22 30 c-54 75 -127 124 -234 159 -59 19 -138 62 -202 109 -73 53 -181 232 -155 257 5 4 73 -4 154 -19 132 -25 264 -50 362 -67 l37 -6 25 50 c57 113 42 189 -52 270 -54 46 -173 139 -245 190 -18 12 -59 43 -92 68 -33 24 -89 66 -125 92 l-65 47 -3 80 c-3 103 -8 125 -30 125 -10 0 -28 -10 -39 -22z m-1086 -3520 c12 -20 42 -106 59 -173 9 -33 28 -75 42 -93 15 -18 47 -60 72 -92 25 -32 67 -86 94 -120 45 -58 48 -64 42 -103 -11 -67 -39 -181 -46 -190 -13 -15 -320 407 -320 440 0 2 -14 24 -30 48 -34 49 -64 154 -55 188 14 48 32 71 70 88 48 22 61 23 72 7z"/>
<path d="M7694 3705 c-113 -20 -173 -41 -286 -98 -325 -165 -541 -478 -579 -839 -17 -169 4 -346 59 -483 112 -278 283 -464 544 -590 156 -75 240 -96 418 -102 215 -8 341 18 520 107 218 109 370 262 485 487 64 128 96 256 102 420 13 322 -82 573 -303 799 -207 212 -463 316 -773 313 -64 0 -148 -7 -187 -14z m326 -500 c137 -29 256 -112 349 -245 42 -61 67 -129 82 -226 10 -67 9 -94 -4 -173 -22 -124 -62 -204 -152 -296 -228 -233 -590 -229 -813 10 -61 65 -124 178 -141 255 -13 58 -14 172 -1 241 15 81 86 213 149 276 143 143 332 200 531 158z"/>
<path d="M7481 2856 c-8 -9 -11 -75 -9 -217 l3 -204 409 -3 c226 -1 414 2 418 6 5 5 10 100 11 211 1 168 -1 204 -13 211 -9 6 -185 10 -411 10 -325 0 -399 -2 -408 -14z"/>
<path d="M5345 3678 c-3 -7 -6 -44 -7 -83 l-3 -69 -35 -9 c-152 -38 -273 -80 -325 -114 -112 -74 -134 -90 -178 -132 -147 -140 -232 -337 -244 -561 -7 -147 11 -245 70 -380 84 -193 216 -327 421 -429 66 -33 132 -62 146 -65 14 -2 52 -11 85 -18 l60 -13 5 -90 5 -90 255 0 255 0 5 90 c5 85 6 90 30 97 133 39 209 68 290 111 79 42 113 68 198 154 88 89 109 117 151 201 82 165 86 182 86 387 0 199 -6 232 -70 368 -69 146 -144 238 -263 319 -97 66 -169 99 -288 132 -55 15 -106 31 -114 35 -11 6 -16 31 -20 87 l-5 79 -253 3 c-197 2 -253 0 -257 -10z m-5 -1009 c0 -297 -2 -361 -14 -365 -24 -9 -109 38 -159 88 -69 69 -100 142 -105 250 -8 171 55 293 187 361 40 20 77 35 82 31 5 -3 9 -158 9 -365z m608 324 c104 -64 161 -165 169 -298 7 -103 -12 -172 -70 -256 -45 -65 -143 -137 -172 -126 -13 6 -15 50 -15 355 0 192 3 352 7 355 10 11 16 9 81 -30z"/>
<path d="M9175 3668 c-3 -13 -4 -473 -3 -1023 l3 -1000 248 -3 247 -2 2 287 c1 159 2 320 2 360 1 40 6 77 11 82 7 7 29 -13 70 -65 33 -42 83 -104 111 -138 27 -33 96 -120 152 -191 55 -72 110 -139 121 -149 12 -11 21 -24 21 -29 0 -5 19 -31 43 -57 23 -26 55 -63 70 -83 l28 -37 309 0 c355 0 341 -5 267 87 -23 29 -73 92 -111 140 -39 49 -122 153 -185 232 -64 79 -139 174 -168 210 -59 74 -123 156 -168 212 -71 89 -115 149 -115 156 1 11 57 93 412 597 32 44 75 106 96 136 21 30 70 101 110 158 40 56 72 112 72 122 l0 20 -310 0 -309 0 -41 -57 c-22 -32 -66 -96 -98 -143 -31 -47 -75 -110 -97 -140 -22 -30 -45 -62 -50 -71 -37 -61 -229 -318 -235 -314 -4 2 -8 163 -9 357 -1 193 -4 356 -7 360 -3 4 -113 8 -244 8 l-240 0 -5 -22z"/>
</g>
</g>
  <g id="id2:id2" transform="matrix(1.25,0,0,1.25,0.0,0.0)"><g transform="translate(0.000000,272.000000) scale(0.040000,-0.040000)" fill="#cbb069" stroke="none">
<path d="M7477 5806 c-30 -24 -105 -51 -174 -62 -71 -11 -108 -57 -138 -171 -4 -13 -24 -42 -47 -65 -22 -24 -44 -53 -49 -66 -5 -12 -17 -25 -26 -29 -10 -3 -30 -17 -45 -31 -49 -45 -31 -103 42 -140 32 -16 35 -21 40 -72 3 -30 12 -65 20 -78 14 -22 13 -25 -20 -52 -19 -16 -44 -33 -55 -38 -125 -58 -198 -82 -248 -82 -43 0 -106 36 -134 76 -34 49 -75 94 -86 94 -6 0 -18 7 -28 16 -16 14 -22 13 -72 -10 -29 -14 -60 -26 -68 -26 -14 0 -119 -36 -124 -42 -1 -2 -25 -29 -53 -60 -56 -63 -71 -99 -82 -203 -20 -178 -13 -163 -135 -255 -100 -74 -100 -75 -115 -145 -15 -73 -29 -88 -110 -118 -25 -10 -63 -34 -85 -55 -39 -37 -135 -173 -135 -190 0 -5 -9 -17 -20 -27 -11 -10 -20 -23 -20 -30 0 -6 -14 -24 -30 -40 -19 -18 -30 -38 -28 -50 l3 -20 275 -5 275 -5 5 -93 c5 -101 10 -107 86 -126 16 -4 53 -18 82 -32 29 -13 56 -24 60 -24 9 0 112 -68 170 -112 62 -47 180 -174 201 -217 10 -20 27 -52 38 -72 23 -39 42 -75 53 -99 12 -24 38 -23 45 2 10 31 43 107 61 138 8 14 26 49 41 79 16 29 45 73 66 96 20 24 37 47 37 53 0 14 188 192 235 223 68 44 148 91 190 112 22 11 48 23 57 28 10 5 27 9 38 9 11 0 28 4 38 9 33 17 67 30 97 36 17 3 59 12 95 20 74 16 304 20 359 6 20 -5 63 -15 96 -22 33 -7 64 -16 70 -21 5 -4 19 -8 31 -8 13 0 25 -4 28 -9 3 -4 23 -11 43 -15 46 -7 153 -57 172 -79 7 -10 18 -17 23 -17 15 0 98 -59 167 -119 93 -81 188 -195 255 -307 32 -55 61 -101 63 -104 14 -16 19 54 21 337 2 175 7 321 11 326 4 4 180 6 392 5 l384 -3 2 -150 c1 -82 2 -169 2 -192 2 -89 37 -51 238 253 l63 94 442 0 c244 0 453 3 466 6 17 5 22 14 22 40 0 18 -4 36 -10 39 -5 3 -10 17 -10 31 0 14 -13 53 -29 87 -63 136 -71 158 -71 197 0 62 -31 108 -122 185 -46 38 -99 84 -118 102 -19 18 -54 49 -77 70 -36 33 -45 49 -63 115 -11 43 -20 86 -20 96 0 25 -22 43 -103 87 -60 32 -74 36 -130 34 -60 -3 -71 0 -147 41 -44 23 -60 30 -71 30 -5 0 -35 11 -65 25 -42 19 -58 33 -69 59 -19 46 -99 110 -159 127 -38 11 -56 24 -82 59 -54 72 -54 72 -83 66 -14 -4 -48 -9 -76 -13 -37 -4 -64 -16 -105 -46 -30 -23 -60 -46 -66 -53 -5 -7 -35 -31 -65 -54 -48 -37 -58 -41 -94 -35 -22 3 -53 13 -70 21 -23 12 -48 14 -113 8 l-83 -6 -67 69 c-37 39 -77 75 -89 81 -44 24 -250 11 -305 -19 -10 -5 -47 -9 -83 -9 -57 0 -70 4 -109 33 -25 17 -56 40 -71 50 -31 22 -44 52 -55 127 -20 126 -22 130 -99 171 -31 15 -67 35 -81 43 -14 8 -43 22 -65 32 -22 9 -71 32 -109 51 -38 18 -80 33 -92 33 -13 0 -26 5 -29 10 -3 6 -47 10 -98 10 -81 -1 -95 -4 -120 -24z"/>
<path d="M4908 4116 c-8 -7 -25 -47 -37 -87 -33 -105 -32 -103 -92 -112 -60 -8 -95 -27 -104 -56 -3 -11 -21 -29 -40 -41 -18 -11 -48 -37 -66 -58 -21 -24 -47 -41 -73 -47 -34 -9 -44 -18 -65 -60 -15 -28 -36 -66 -47 -85 -12 -19 -49 -89 -83 -155 -34 -66 -67 -125 -74 -130 -13 -11 -57 -95 -57 -109 0 -5 -17 -34 -38 -65 -21 -31 -49 -77 -61 -104 -21 -43 -22 -53 -13 -110 6 -34 14 -115 18 -180 5 -96 4 -121 -8 -135 -19 -22 -51 -78 -101 -172 -21 -41 -42 -79 -47 -85 -4 -5 -20 -31 -34 -58 -14 -26 -38 -68 -52 -95 -15 -26 -44 -69 -66 -95 l-40 -48 6 -57 c7 -68 21 -151 35 -212 13 -53 29 -130 37 -182 8 -45 25 -60 84 -77 62 -18 90 -34 106 -62 20 -35 61 -130 68 -159 20 -77 31 -107 45 -123 l15 -18 1471 5 c808 3 1962 9 2564 12 l1093 5 48 19 c30 12 67 39 100 74 29 31 58 56 63 56 6 0 22 11 36 24 22 20 57 40 130 76 25 11 54 58 48 74 -6 14 -40 16 -313 13 -199 -2 -311 1 -320 8 -11 8 -14 70 -16 319 -2 219 -6 310 -14 313 -7 2 -32 -29 -57 -69 -138 -219 -299 -380 -462 -463 -27 -14 -66 -35 -85 -46 -19 -10 -73 -31 -120 -45 -47 -14 -94 -30 -105 -34 -51 -22 -257 -39 -380 -34 -82 4 -120 11 -195 34 -14 4 -45 13 -70 20 -25 6 -53 16 -62 21 -10 5 -24 9 -32 9 -30 0 -228 115 -311 181 -112 89 -263 268 -312 369 -35 71 -63 137 -76 177 -15 46 -43 55 -57 19 -17 -45 -111 -196 -151 -242 -43 -50 -190 -184 -202 -184 -5 0 -27 -13 -50 -28 -46 -31 -169 -92 -187 -92 -5 0 -20 -5 -33 -12 -12 -6 -29 -14 -37 -18 -11 -5 -16 -32 -20 -111 l-5 -104 -400 0 -400 0 -3 98 -3 98 -37 16 c-20 8 -45 19 -54 24 -10 5 -23 9 -28 9 -6 0 -30 9 -52 20 -23 11 -45 20 -50 20 -4 0 -34 17 -65 37 -32 21 -68 43 -81 50 -42 23 -150 124 -206 193 -63 77 -103 145 -152 255 -52 118 -74 378 -46 551 31 194 130 384 270 516 141 133 252 195 456 259 40 12 46 24 46 94 0 55 -2 62 -30 85 -31 25 -80 137 -80 183 0 24 -19 80 -38 115 -11 19 -21 22 -72 22 -36 0 -64 -5 -72 -14z"/>
<path d="M11028 3698 c-19 -24 -60 -81 -91 -128 -31 -47 -83 -121 -116 -165 -33 -44 -68 -93 -77 -109 -8 -15 -46 -69 -83 -120 -38 -50 -100 -138 -139 -196 -39 -58 -97 -141 -129 -186 -66 -92 -83 -119 -83 -134 0 -11 29 -50 142 -192 41 -51 84 -106 97 -123 12 -16 38 -47 57 -67 30 -33 38 -37 67 -31 39 7 180 99 227 148 19 19 38 35 44 35 5 0 54 42 107 93 130 123 219 201 249 218 39 22 70 51 70 67 0 8 -8 26 -19 40 -17 26 -22 48 -41 192 -12 90 -20 132 -30 155 -19 47 -31 84 -45 149 -20 85 -59 206 -87 266 -11 25 -25 56 -30 70 -29 72 -44 75 -90 18z"/>
<path d="M2502 3370 c-12 -5 -25 -18 -28 -27 -13 -39 -30 -70 -61 -110 -18 -23 -33 -46 -33 -51 0 -5 -6 -15 -14 -21 -13 -11 -31 -67 -27 -85 2 -11 0 -18 -48 -117 -17 -36 -31 -75 -31 -87 0 -11 -4 -24 -10 -27 -19 -12 -11 -45 10 -45 13 0 20 7 20 19 0 35 65 145 122 206 79 85 221 150 370 170 55 7 63 17 72 96 9 76 3 80 -120 77 -55 -2 -121 0 -149 4 -28 5 -60 4 -73 -2z"/>
<path d="M7763 3046 c-13 -6 -23 -14 -23 -18 0 -5 72 -8 160 -8 88 0 160 3 160 8 0 4 -12 13 -27 20 -34 15 -239 14 -270 -2z"/>
<path d="M2240 2684 c0 -29 -10 -49 -51 -97 -47 -56 -51 -65 -46 -100 4 -27 15 -49 35 -67 51 -46 68 -140 26 -140 -10 0 -26 -8 -37 -17 -30 -28 -150 -22 -202 8 -32 18 -54 23 -109 22 l-69 0 -65 -67 -65 -67 6 -59 c10 -88 28 -123 112 -206 l75 -76 0 -57 c0 -43 -5 -62 -17 -73 -21 -17 -97 -38 -142 -38 -17 0 -40 -4 -53 -9 -13 -5 -68 -19 -123 -32 -55 -12 -104 -26 -110 -31 -5 -4 -18 -8 -30 -8 -24 0 -75 -22 -75 -32 0 -9 -135 -98 -148 -98 -10 0 -26 -19 -112 -125 -45 -56 -62 -64 -68 -29 -6 28 -43 64 -67 64 -35 0 -78 -54 -85 -107 l-5 -46 -47 -14 c-29 -8 -52 -22 -60 -36 -15 -28 -37 -148 -37 -208 -1 -51 -11 -64 -56 -72 -16 -2 -75 -17 -130 -32 -55 -15 -127 -33 -160 -40 -114 -24 -180 -50 -183 -73 -2 -16 3 -23 23 -28 90 -23 1850 41 1990 72 55 12 55 14 55 195 0 115 4 170 11 175 7 4 234 7 505 8 314 1 497 5 503 11 7 7 7 23 0 50 -16 63 -28 116 -38 165 -5 25 -19 90 -31 145 -12 55 -26 117 -30 137 -10 53 -23 65 -88 77 -118 23 -139 28 -168 43 -16 9 -51 26 -79 39 -130 61 -243 154 -328 268 -27 36 -52 73 -55 81 -3 8 -14 26 -23 40 -15 21 -33 69 -89 246 -6 17 -10 42 -10 57 0 14 -7 52 -15 84 -8 31 -15 74 -15 95 0 21 -4 38 -10 38 -5 0 -10 -16 -10 -36z"/>
<path d="M7760 2270 c0 -5 15 -10 33 -10 18 0 38 -5 44 -11 17 -17 183 3 183 22 0 5 -58 9 -130 9 -80 0 -130 -4 -130 -10z"/>
<path d="M9820 1800 c0 -117 3 -142 15 -147 9 -3 24 2 34 11 10 9 47 25 82 35 34 9 64 22 66 28 4 12 -74 120 -126 176 -19 20 -43 37 -53 37 -16 0 -18 -12 -18 -140z"/>
<path d="M6841 1084 c-76 -41 -105 -70 -138 -133 -42 -79 -44 -139 -8 -191 20 -29 38 -40 96 -59 75 -24 114 -53 105 -78 -3 -8 -6 -21 -6 -29 0 -20 -53 -44 -99 -44 -33 0 -49 7 -80 35 -21 19 -45 35 -53 35 -20 0 -108 -104 -108 -127 0 -23 42 -64 90 -89 41 -21 194 -25 235 -6 14 7 37 18 53 25 15 6 52 37 83 67 63 63 84 117 82 215 -1 54 -4 62 -31 85 -17 14 -57 34 -89 45 -102 34 -126 61 -85 98 24 22 119 22 146 2 11 -8 25 -15 31 -15 15 0 95 106 95 126 0 9 -23 25 -55 40 -78 34 -200 33 -264 -2z"/>
<path d="M2476 1078 c-14 -22 -25 -58 -46 -153 -5 -22 -19 -71 -30 -110 -12 -38 -33 -119 -46 -180 -14 -60 -29 -119 -34 -130 -5 -11 -11 -38 -12 -60 l-3 -40 90 0 89 0 12 25 c7 14 18 50 24 80 16 76 32 123 46 138 13 15 16 11 86 -133 21 -44 43 -87 47 -95 11 -21 198 -27 224 -8 17 13 14 20 -35 118 -29 58 -66 134 -82 168 l-30 62 153 154 c84 85 151 161 149 168 -3 9 -32 14 -98 16 l-94 3 -132 -132 c-72 -72 -134 -127 -137 -122 -6 9 3 51 32 158 26 93 24 95 -75 95 -76 0 -85 -2 -98 -22z"/>
<path d="M5368 955 c-66 -18 -109 -47 -159 -108 -68 -81 -91 -131 -97 -208 -6 -94 3 -134 44 -179 51 -56 85 -70 169 -70 75 0 131 18 150 49 16 26 34 105 29 124 -7 21 -13 21 -43 1 -90 -63 -200 -11 -189 89 6 51 58 131 98 152 44 23 129 20 155 -5 40 -38 57 -14 71 95 l5 40 -40 18 c-48 20 -125 21 -193 2z"/>
<path d="M6083 962 l-81 -3 -37 -42 c-19 -23 -59 -65 -88 -94 -58 -59 -77 -57 -60 4 24 82 29 109 25 121 -5 16 -134 16 -150 0 -7 -7 -12 -20 -12 -29 0 -9 -7 -39 -15 -65 -8 -27 -24 -83 -35 -124 -12 -41 -26 -83 -31 -92 -5 -10 -9 -27 -9 -37 0 -11 -7 -46 -15 -78 -8 -31 -15 -72 -15 -91 l0 -33 72 3 71 3 19 65 c11 36 23 79 27 95 4 17 12 30 18 30 6 0 33 -43 60 -95 l48 -95 81 -3 c104 -4 115 6 81 75 -24 49 -63 120 -76 138 -4 6 -14 25 -21 43 l-13 33 107 104 c59 58 111 105 117 105 5 0 21 -26 35 -57 14 -32 29 -67 35 -78 36 -78 40 -106 23 -174 -9 -36 -20 -70 -24 -76 -15 -20 -21 -86 -9 -101 17 -21 122 -19 140 3 8 9 26 65 41 125 30 121 29 121 182 288 47 52 86 102 86 112 0 16 -10 18 -79 18 l-80 0 -44 -58 c-67 -86 -73 -89 -91 -53 -9 16 -16 41 -16 54 0 53 -61 66 -267 59z"/>
<path d="M8345 960 c-3 -5 -15 -10 -25 -10 -29 0 -79 -32 -141 -91 -64 -61 -92 -109 -115 -195 -17 -65 -9 -118 24 -173 22 -35 75 -81 95 -81 9 0 19 -4 22 -10 3 -5 42 -10 86 -10 43 0 88 4 99 10 11 6 28 14 38 18 34 17 66 37 83 53 9 9 23 21 31 25 13 9 59 67 86 109 27 44 35 73 40 141 4 77 -3 98 -57 157 -45 50 -91 67 -180 67 -44 0 -83 -4 -86 -10z m126 -159 c46 -47 38 -127 -23 -202 -41 -51 -75 -69 -128 -69 -31 0 -47 6 -67 26 -23 23 -25 31 -21 93 4 79 33 127 96 161 56 29 107 26 143 -9z"/>
<path d="M9610 951 c-94 -36 -177 -117 -225 -216 -25 -53 -32 -168 -12 -215 18 -42 68 -94 109 -115 34 -17 186 -21 216 -6 9 5 31 15 47 22 17 8 34 20 38 26 4 7 14 13 22 13 20 0 99 93 124 145 23 50 27 95 9 113 -18 18 -262 17 -277 -2 -6 -8 -14 -37 -18 -65 l-6 -51 51 0 c61 0 72 -12 38 -43 -49 -46 -128 -54 -175 -18 -29 22 -39 92 -21 147 18 56 74 120 116 134 47 16 110 7 138 -19 12 -12 27 -21 33 -21 22 0 124 51 129 64 6 16 -21 63 -51 88 -46 38 -209 49 -285 19z"/>
<path d="M3107 918 c-13 -37 -56 -194 -87 -318 -5 -19 -17 -65 -26 -102 -26 -102 -31 -99 153 -96 l158 3 13 29 c8 15 17 46 19 67 l6 39 -82 0 c-88 0 -103 9 -81 49 9 19 20 21 89 21 92 0 102 7 109 80 l4 48 -43 6 c-24 3 -57 7 -74 8 -26 3 -30 7 -30 33 l0 30 85 10 c47 6 90 14 97 18 16 10 33 71 26 97 l-5 20 -158 0 -158 0 -15 -42z"/>
<path d="M3550 945 c-7 -9 -26 -66 -41 -128 -15 -62 -37 -146 -49 -187 -40 -141 -51 -201 -39 -216 15 -18 110 -19 130 -1 9 6 21 30 27 52 6 22 18 67 27 100 10 33 19 72 22 88 3 15 9 30 14 33 14 8 74 -95 99 -169 36 -106 48 -117 130 -117 78 0 85 6 101 76 5 27 15 67 20 89 6 22 13 54 15 70 3 17 9 39 14 50 5 11 11 31 14 45 2 14 9 42 15 63 24 81 31 113 31 140 l0 28 -72 -3 -72 -3 -15 -50 c-48 -168 -68 -226 -76 -227 -12 0 -92 155 -107 207 -19 66 -32 75 -108 75 -49 0 -71 -4 -80 -15z"/>
<path d="M4152 938 c-19 -40 -34 -97 -27 -108 3 -5 21 -10 39 -10 18 0 39 -6 48 -12 15 -12 15 -19 -1 -88 -10 -41 -24 -101 -31 -133 -8 -32 -17 -60 -22 -63 -4 -3 -8 -18 -8 -33 0 -15 -5 -32 -11 -38 -6 -6 -8 -20 -4 -32 6 -18 14 -21 71 -21 79 0 104 11 104 48 0 33 50 232 82 327 l13 40 57 3 58 3 14 49 c8 27 12 58 9 69 l-5 21 -187 0 -188 0 -11 -22z"/>
<path d="M4606 918 c-41 -118 -79 -267 -92 -374 -13 -96 63 -153 206 -154 74 0 93 4 145 29 102 50 127 89 174 271 7 25 25 88 42 140 17 53 27 103 24 113 -6 14 -20 17 -76 17 -59 0 -70 -3 -83 -22 -9 -12 -16 -32 -16 -45 0 -12 -4 -25 -10 -28 -5 -3 -10 -16 -10 -28 0 -25 -43 -200 -58 -237 -5 -14 -19 -33 -30 -43 -26 -24 -97 -34 -117 -17 -17 14 -20 89 -6 136 5 16 15 49 22 74 7 25 15 50 19 55 14 22 31 115 25 135 -6 18 -15 20 -75 20 l-68 0 -16 -42z"/>
<path d="M7212 948 c-11 -15 -32 -85 -32 -110 0 -14 8 -18 38 -18 21 0 46 -6 55 -12 15 -12 14 -20 -7 -98 -13 -47 -31 -105 -39 -130 -31 -90 -39 -129 -33 -154 l6 -26 69 0 68 0 17 43 c9 23 16 48 16 55 0 7 4 20 9 30 11 21 26 76 46 173 9 42 21 83 28 92 7 10 35 20 67 24 51 8 56 11 67 43 7 19 12 50 12 68 l1 32 -189 0 c-139 0 -191 -3 -199 -12z"/>
<path d="M7674 949 c-7 -8 -20 -50 -29 -94 -10 -44 -33 -134 -52 -200 -48 -166 -52 -185 -53 -222 l0 -33 58 0 c61 0 92 18 92 53 0 9 5 19 10 22 6 3 10 19 10 34 0 32 27 63 34 40 2 -8 12 -39 22 -69 9 -30 21 -61 27 -67 6 -9 37 -13 87 -13 87 0 102 11 75 58 -8 15 -26 56 -40 92 -24 61 -25 65 -8 77 72 49 96 73 118 117 38 77 30 141 -24 190 -18 16 -42 20 -169 24 -118 4 -150 2 -158 -9z m195 -137 c24 -44 -16 -106 -66 -100 -24 3 -28 7 -27 33 3 57 21 85 53 85 19 0 34 -7 40 -18z"/>
<path d="M8812 943 c-5 -10 -17 -52 -27 -93 -10 -41 -37 -145 -61 -232 -24 -86 -44 -170 -44 -187 l0 -31 70 0 69 0 26 88 c14 48 30 97 35 110 6 13 10 31 10 41 0 10 6 24 14 31 12 9 19 4 41 -30 23 -36 73 -139 103 -212 l12 -28 67 0 c38 0 73 4 79 8 12 7 32 75 54 177 7 33 29 114 48 180 19 66 35 136 36 155 l1 35 -71 3 -71 3 -18 -63 c-9 -35 -26 -94 -37 -133 -11 -38 -22 -76 -24 -84 -3 -11 -7 -11 -19 -1 -8 7 -15 17 -15 22 0 6 -8 22 -19 36 -10 15 -24 45 -31 67 -7 22 -16 44 -21 50 -5 5 -9 16 -9 24 0 8 -11 29 -26 48 l-25 33 -69 0 c-56 0 -71 -3 -78 -17z"/>
</g>
</g>
  <g id="id3:id3" transform="matrix(1.25,0,0,1.25,0.0,0.0)"><g transform="translate(0.000000,272.000000) scale(0.040000,-0.040000)" fill="#fdfbe8" stroke="none">
<path d="M7365 5840 c-16 -10 -42 -19 -56 -19 -34 -1 -89 -29 -89 -45 0 -7 12 -24 28 -39 20 -19 31 -24 42 -17 8 5 27 10 43 10 15 0 35 4 45 9 9 5 36 17 59 26 40 17 59 38 48 55 -3 5 -1 11 5 15 24 15 6 25 -42 24 -33 0 -64 -8 -83 -19z"/>
<path d="M7082 5579 c-22 -42 -30 -99 -13 -99 6 0 12 4 15 9 3 4 16 6 29 4 18 -4 28 4 51 39 20 31 25 47 18 58 -5 8 -14 15 -20 15 -6 0 -14 3 -18 8 -18 17 -42 4 -62 -34z"/>
<path d="M8195 5470 c-4 -6 -10 -8 -15 -5 -14 9 -30 -19 -20 -35 6 -8 10 -25 10 -37 0 -21 55 -73 77 -73 5 0 20 11 32 24 l23 25 -21 29 c-11 17 -21 34 -21 39 0 13 -34 43 -48 43 -6 0 -14 -5 -17 -10z"/>
<path d="M7023 5246 c-30 -14 -31 -71 -2 -102 l20 -21 -21 -38 c-23 -41 -17 -56 25 -69 43 -13 111 57 76 78 -4 3 -12 34 -15 68 -7 61 -27 99 -50 97 -6 -1 -21 -6 -33 -13z"/>
<path d="M9243 5209 c-6 -6 -39 -9 -81 -7 l-71 3 15 -20 c8 -11 19 -30 26 -42 13 -27 34 -35 92 -35 60 -1 90 22 93 72 l3 40 -33 0 c-18 0 -38 -5 -44 -11z"/>
<path d="M9904 5155 c-15 -23 -15 -26 5 -54 12 -16 21 -35 21 -43 0 -26 127 -93 147 -77 7 6 12 14 11 17 -1 4 2 15 7 25 13 30 -122 157 -166 157 -5 0 -16 -11 -25 -25z"/>
<path d="M6365 5136 l-30 -25 30 -31 c28 -28 34 -29 62 -20 26 9 93 77 93 94 0 3 -28 6 -62 6 -52 0 -68 -4 -93 -24z"/>
<path d="M6637 5032 c-25 -26 -26 -29 -11 -50 8 -12 42 -38 76 -57 53 -32 66 -35 97 -28 29 7 41 18 59 52 25 48 22 62 -8 43 -38 -23 -79 -14 -127 28 -25 22 -49 40 -53 40 -3 0 -18 -13 -33 -28z"/>
<path d="M10576 4753 c-4 -5 -12 -9 -17 -9 -5 -1 -13 -2 -19 -3 -5 0 -10 -16 -10 -35 0 -19 5 -38 10 -41 6 -3 10 -15 10 -26 0 -10 15 -36 33 -55 29 -32 37 -36 65 -29 28 6 32 11 32 40 0 18 -7 38 -15 45 -8 7 -26 36 -41 66 -26 54 -34 61 -48 47z"/>
<path d="M6016 4618 c-41 -47 -41 -57 -3 -76 29 -14 53 -6 95 31 22 21 30 66 12 68 -5 1 -14 2 -19 3 -5 0 -13 4 -17 9 -15 15 -33 6 -68 -35z"/>
<path d="M5820 4397 c0 -7 -18 -32 -40 -55 -22 -22 -40 -45 -40 -50 0 -13 32 -39 57 -46 31 -10 89 47 97 95 6 33 4 36 -29 52 -43 20 -45 21 -45 4z"/>
<path d="M4847 4152 c-20 -21 -27 -38 -27 -68 0 -30 -8 -49 -30 -74 -38 -45 -39 -81 -3 -97 38 -18 50 -16 67 9 18 26 21 69 5 85 -7 7 -2 17 20 32 17 13 31 28 31 35 0 17 29 74 41 81 21 14 6 25 -34 25 -34 0 -49 -6 -70 -28z"/>
<path d="M5130 3985 c-8 -10 -21 -13 -38 -8 -22 5 -24 4 -17 -13 4 -10 10 -31 13 -47 2 -15 8 -30 13 -33 5 -3 9 -14 9 -24 0 -27 97 -120 125 -120 9 0 5 96 -4 106 -17 18 -51 85 -51 102 -1 17 -22 52 -32 52 -3 0 -11 -7 -18 -15z"/>
<path d="M7715 3879 c-64 -15 -69 -18 -57 -32 6 -7 9 -22 6 -33 -5 -19 -1 -20 63 -16 81 4 116 18 108 43 -3 9 -1 20 5 24 37 23 -46 32 -125 14z"/>
<path d="M5896 3841 c-4 -5 -2 -13 4 -16 6 -4 8 -14 5 -24 -3 -11 6 -28 25 -46 16 -16 30 -35 30 -42 0 -14 12 -17 24 -6 4 4 15 8 24 8 14 0 17 11 17 65 l0 65 -62 3 c-34 2 -64 -1 -67 -7z"/>
<path d="M9017 3844 c-10 -11 -8 -142 2 -149 5 -3 13 0 16 6 4 5 14 8 22 5 19 -8 105 82 95 98 -3 6 -7 18 -7 26 0 11 -15 16 -60 18 -34 2 -64 0 -68 -4z"/>
<path d="M9697 3844 c-4 -4 -3 -12 1 -18 4 -6 7 -20 7 -31 0 -12 11 -25 28 -33 l27 -13 0 -95 c0 -93 6 -108 30 -79 7 9 21 13 31 10 18 -6 19 1 19 117 0 83 -4 128 -12 136 -12 12 -120 17 -131 6z"/>
<path d="M10086 3808 c-20 -23 -36 -45 -36 -49 0 -7 18 -22 30 -25 3 0 13 -4 24 -9 11 -5 26 -4 37 3 19 12 50 29 79 42 8 4 15 16 15 26 0 11 3 24 7 30 12 18 -2 24 -63 24 l-57 0 -36 -42z"/>
<path d="M10875 3841 c-3 -5 0 -13 6 -16 5 -4 8 -14 5 -22 -10 -25 25 -42 86 -43 31 0 60 -4 63 -10 8 -12 45 -13 45 -1 0 5 -7 12 -16 15 -8 3 -12 10 -9 16 3 5 3 16 -2 23 -8 12 -9 17 -12 37 -1 13 -158 13 -166 1z"/>
<path d="M8317 3804 c-3 -4 0 -16 8 -28 8 -11 15 -32 15 -46 0 -21 11 -30 68 -57 63 -31 112 -42 112 -26 0 3 -7 15 -16 25 -13 13 -14 21 -5 31 8 11 7 18 -7 29 -28 26 -91 58 -112 58 -10 0 -22 5 -25 10 -7 11 -28 13 -38 4z"/>
<path d="M9056 3673 c-4 -4 -15 -8 -24 -8 -14 0 -18 -13 -20 -74 -3 -88 2 -109 23 -91 8 6 19 9 25 5 25 -15 40 17 40 84 0 73 -19 109 -44 84z"/>
<path d="M6079 3620 c-2 -14 -5 -22 -13 -42 -12 -27 -1 -45 41 -63 21 -9 46 -21 55 -26 10 -5 26 -9 36 -9 31 0 120 -50 125 -70 3 -11 16 -24 29 -29 13 -5 30 -16 37 -25 18 -21 44 -20 64 2 29 31 20 55 -33 95 -57 43 -57 43 -82 20 -17 -15 -20 -15 -35 0 -14 14 -14 18 -2 33 12 14 10 19 -16 40 -17 13 -36 24 -43 24 -7 0 -20 4 -30 9 -9 5 -30 14 -47 21 -16 7 -38 16 -47 21 -23 12 -38 11 -39 -1z"/>
<path d="M10865 3600 c-21 -23 -65 -109 -65 -127 0 -15 36 -18 44 -4 3 5 15 7 26 4 20 -5 45 18 71 65 11 20 9 26 -16 52 -34 35 -37 36 -60 10z"/>
<path d="M4985 3590 c-16 -10 -37 -19 -46 -19 -9 -1 -37 -17 -63 -37 -44 -33 -46 -37 -32 -53 9 -10 16 -23 16 -29 0 -22 36 -13 116 28 91 48 88 45 78 62 -4 7 -8 24 -8 38 -1 31 -22 35 -61 10z"/>
<path d="M4191 3373 c-8 -16 -17 -36 -22 -45 -16 -32 -11 -68 10 -68 11 0 23 5 26 10 4 6 10 8 15 5 10 -6 41 25 60 60 10 20 11 27 0 40 -7 8 -16 13 -20 10 -5 -3 -11 -1 -15 5 -12 19 -42 10 -54 -17z"/>
<path d="M9056 3353 c-4 -4 -15 -8 -24 -8 -12 0 -18 -10 -20 -35 -1 -19 -8 -45 -14 -57 -9 -19 -8 -27 7 -43 13 -15 21 -17 31 -9 7 6 18 8 24 4 22 -14 40 17 40 69 -1 60 -23 100 -44 79z"/>
<path d="M11277 3353 c-4 -3 -19 -8 -33 -9 -35 -4 -37 -7 -23 -40 37 -91 40 -95 60 -89 11 4 27 1 35 -6 20 -16 31 -2 16 21 -7 11 -12 37 -12 57 -1 47 -25 85 -43 66z"/>
<path d="M6475 3330 c-15 -16 -16 -25 -8 -43 6 -12 14 -30 17 -40 3 -9 14 -20 23 -24 10 -3 28 -15 41 -26 l23 -21 26 27 27 27 -40 57 c-44 65 -77 78 -109 43z"/>
<path d="M2337 3262 c-11 -12 -17 -36 -17 -70 0 -48 10 -66 25 -42 3 5 12 7 19 4 12 -5 66 64 66 84 0 16 -36 42 -57 42 -11 0 -27 -8 -36 -18z"/>
<path d="M4082 3197 c-15 -16 -22 -36 -22 -65 0 -22 -4 -44 -10 -47 -5 -3 -10 -10 -10 -16 0 -12 37 -12 45 1 3 5 12 7 20 4 14 -6 75 68 75 91 0 16 -43 55 -61 55 -9 0 -25 -10 -37 -23z"/>
<path d="M2700 3200 c-8 -5 -24 -10 -36 -10 -37 0 -55 -22 -48 -58 l7 -32 51 0 c28 0 59 7 69 14 18 14 22 37 10 50 -5 4 -9 12 -9 17 -1 5 -2 14 -3 19 -1 13 -21 13 -41 0z"/>
<path d="M7810 3131 c-51 -27 -61 -31 -73 -31 -22 0 -57 -44 -57 -71 0 -34 18 -49 56 -49 18 0 36 -4 39 -10 4 -6 58 -10 133 -9 153 1 187 13 187 69 0 31 -5 37 -50 61 -27 15 -60 28 -72 28 -12 1 -25 6 -28 11 -7 12 -113 12 -135 1z"/>
<path d="M2267 3093 c-4 -3 -7 -17 -7 -29 0 -13 -4 -26 -10 -29 -12 -7 -14 -55 -2 -55 4 0 13 5 19 11 22 22 40 3 38 -38 -4 -56 -23 -99 -37 -85 -16 16 -61 15 -76 0 -7 -7 -12 -41 -12 -83 l0 -70 -40 -49 c-37 -44 -40 -53 -40 -107 0 -32 3 -59 8 -59 4 0 35 25 69 55 l62 56 11 -22 c13 -24 25 -17 25 14 0 13 9 26 23 32 20 9 22 16 22 88 l0 79 40 45 c32 36 40 54 40 84 0 21 5 41 10 44 18 11 11 21 -22 30 -26 8 -34 16 -36 40 -2 16 -11 35 -20 42 -18 13 -55 17 -65 6z"/>
<path d="M4000 2831 c0 -39 5 -73 10 -76 18 -11 11 -112 -10 -150 -18 -32 -26 -65 -17 -65 2 0 19 8 38 17 19 10 40 18 48 19 8 2 18 9 22 16 10 15 12 122 3 131 -4 4 -6 42 -5 86 2 82 -7 103 -35 80 -11 -9 -18 -9 -26 -1 -23 23 -28 11 -28 -57z"/>
<path d="M4436 2673 c-4 -5 -12 -9 -17 -9 -5 -1 -13 -2 -19 -3 -11 -1 -13 -110 -2 -127 8 -12 51 -13 70 -1 16 11 15 107 -2 130 -15 19 -19 20 -30 10z"/>
<path d="M2128 2403 c-8 -10 -8 -17 0 -25 7 -7 12 -24 12 -38 0 -14 -5 -31 -12 -38 -19 -19 9 -42 53 -42 68 0 87 45 48 118 -19 35 -26 40 -56 39 -19 -1 -39 -7 -45 -14z"/>
<path d="M7783 2347 c-12 -6 -24 -19 -26 -29 -3 -10 -12 -18 -21 -18 -30 0 -17 -42 27 -81 l42 -38 90 -1 90 0 38 31 c31 26 38 37 35 62 -3 33 -44 65 -85 66 -12 1 -25 6 -28 11 -8 13 -134 11 -162 -3z"/>
<path d="M2347 2322 c-19 -21 -21 -35 -8 -60 5 -9 17 -34 26 -56 16 -35 19 -38 47 -32 18 3 37 1 45 -5 7 -7 16 -9 20 -5 6 5 -2 27 -28 78 -5 10 -9 24 -9 31 0 7 -6 25 -12 40 -15 32 -56 37 -81 9z"/>
<path d="M6850 2125 c-7 -9 -21 -13 -31 -10 -27 9 -29 -6 -4 -60 22 -46 26 -49 64 -52 39 -3 53 8 31 22 -5 3 -10 25 -10 49 0 57 -24 82 -50 51z"/>
<path d="M9056 1993 c-4 -4 -15 -8 -24 -8 -15 0 -17 -17 -20 -145 -3 -159 0 -179 23 -160 8 6 19 9 25 5 6 -4 17 -1 25 5 20 16 22 279 3 298 -14 14 -22 15 -32 5z"/>
<path d="M9772 1988 c-7 -7 -12 -36 -12 -65 0 -45 5 -65 27 -102 6 -10 47 36 60 67 9 21 20 32 34 32 15 0 20 5 17 22 -6 41 -98 74 -126 46z"/>
<path d="M1663 1983 c-16 -3 -23 -11 -22 -26 1 -27 30 -78 49 -87 42 -19 54 -28 61 -41 33 -69 34 -71 18 -83 -8 -6 -28 -21 -44 -34 l-29 -23 25 -25 c23 -23 29 -24 70 -15 60 14 79 40 79 108 0 49 -4 61 -37 102 -45 55 -127 132 -139 130 -5 -1 -19 -4 -31 -6z"/>
<path d="M2860 1812 c0 -5 3 -12 7 -16 4 -4 8 -14 8 -22 0 -19 36 -38 98 -53 79 -18 100 -15 121 20 10 17 16 31 14 33 -1 1 -16 8 -33 15 -16 7 -38 17 -47 22 -22 11 -168 12 -168 1z"/>
<path d="M3720 1682 l0 -77 32 -14 c22 -10 36 -11 47 -4 33 21 0 172 -34 159 -8 -3 -17 -1 -20 4 -16 26 -25 3 -25 -68z"/>
<path d="M9940 1720 c-8 -4 -29 -14 -46 -20 -28 -10 -32 -16 -31 -46 l1 -34 50 0 c59 1 96 21 78 43 -7 8 -9 16 -6 20 9 9 -6 47 -19 46 -7 0 -19 -4 -27 -9z"/>
<path d="M3170 1625 c-8 -9 -21 -13 -32 -9 -17 5 -18 1 -12 -38 10 -65 31 -111 49 -105 8 4 17 2 20 -3 16 -26 25 -3 25 63 -1 44 -6 79 -14 90 -16 21 -20 21 -36 2z"/>
<path d="M9056 1633 c-4 -4 -15 -8 -24 -8 -14 0 -18 -12 -20 -68 l-3 -67 26 -10 c15 -6 77 -10 139 -10 l112 0 27 28 c32 33 34 42 8 42 -11 0 -23 5 -26 10 -3 6 -19 10 -35 10 -16 0 -32 5 -35 10 -8 14 -51 13 -74 -2 -25 -16 -51 -3 -51 25 0 33 -26 57 -44 40z"/>
<path d="M1235 1591 c-6 -5 -26 -18 -45 -28 -32 -18 -68 -64 -69 -90 -1 -7 10 -20 24 -29 l25 -16 53 32 c80 49 84 52 92 98 l7 42 -39 0 c-22 0 -43 -4 -48 -9z"/>
<path d="M5192 1568 c-7 -7 -12 -28 -12 -48 0 -51 14 -60 90 -60 58 0 70 3 90 25 13 14 22 26 19 27 -33 20 -53 28 -72 28 -13 0 -32 9 -42 20 -20 22 -55 26 -73 8z"/>
<path d="M5944 1558 c-21 -25 -47 -69 -42 -71 2 -1 13 -8 25 -14 13 -7 38 -13 58 -13 28 0 36 4 41 24 10 40 1 81 -18 81 -9 0 -20 4 -24 8 -12 11 -19 8 -40 -15z"/>
<path d="M7620 1537 c0 -12 42 -87 52 -94 7 -4 50 -10 95 -13 76 -5 82 -4 86 15 2 11 7 27 11 35 10 24 -39 40 -120 40 -40 0 -76 5 -79 10 -5 9 -45 15 -45 7z"/>
<path d="M1030 1415 c-7 -8 -23 -15 -36 -15 -12 0 -26 -4 -29 -10 -3 -5 -15 -10 -26 -10 -20 0 -26 -15 -9 -25 6 -4 8 -11 4 -16 -3 -5 -1 -15 4 -22 6 -7 12 -25 14 -42 5 -49 39 -45 93 12 42 45 45 51 40 88 -8 52 -31 69 -55 40z"/>
<path d="M9540 1388 c-50 -28 -53 -33 -46 -62 6 -23 11 -26 55 -26 54 0 82 20 63 43 -9 10 -8 19 3 34 27 38 -17 45 -75 11z"/>
<path d="M4003 1363 c-20 -4 -23 -11 -23 -52 0 -37 5 -52 24 -70 l24 -23 31 23 c31 23 39 43 21 54 -5 3 -10 14 -10 24 0 16 -30 53 -41 50 -2 -1 -14 -4 -26 -6z"/>
<path d="M780 1290 c0 -5 -18 -22 -40 -36 -46 -31 -49 -42 -17 -72 19 -18 31 -21 58 -16 19 4 40 14 47 22 19 25 14 66 -11 90 -25 24 -37 28 -37 12z"/>
<path d="M8320 1171 c0 -5 7 -14 15 -21 9 -7 13 -20 10 -28 -8 -21 24 -41 65 -41 41 0 73 20 65 41 -3 8 1 21 10 28 29 24 15 30 -75 30 -49 0 -90 -4 -90 -9z"/>
<path d="M8640 1171 c0 -5 7 -14 15 -21 9 -7 13 -21 10 -31 -6 -17 -1 -19 47 -19 61 1 83 14 84 53 l2 27 -79 0 c-43 0 -79 -4 -79 -9z"/>
<path d="M8899 1173 c-1 -5 -2 -23 -4 -40 l-3 -33 67 0 c74 1 95 12 97 53 l2 27 -79 0 c-43 0 -79 -3 -80 -7z"/>
<path d="M9104 1153 c1 -37 42 -72 82 -73 33 0 43 15 49 73 l3 27 -68 0 -68 0 2 -27z"/>
<path d="M2263 1162 c-35 -2 -64 -4 -65 -5 -1 -1 -4 -82 -7 -181 l-6 -179 -55 -14 c-86 -21 -85 -21 -68 -41 9 -9 13 -23 11 -29 -3 -10 11 -13 54 -13 65 1 104 20 85 43 -16 19 6 41 25 26 23 -20 43 8 43 62 0 26 5 51 10 54 14 9 13 128 -2 143 -9 9 -5 19 17 42 27 28 43 86 26 93 -3 1 -34 1 -68 -1z"/>
<path d="M2439 1162 l-77 -3 2 -26 c0 -14 15 -41 32 -59 36 -40 77 -45 95 -13 10 19 17 21 74 17 71 -6 91 -14 77 -31 -5 -7 -12 -25 -15 -42 -6 -29 -15 -70 -35 -145 -10 -40 -6 -60 13 -60 7 0 72 62 143 138 l131 137 63 0 c109 -1 111 -6 38 -80 l-64 -64 19 -21 c10 -11 30 -26 44 -33 l26 -12 -4 -83 c-3 -77 6 -101 24 -71 4 5 17 14 30 19 16 6 26 22 33 52 36 148 41 158 89 158 20 0 45 7 55 17 16 14 20 15 36 1 10 -9 43 -17 80 -20 77 -5 89 -15 68 -57 -15 -27 -22 -31 -59 -31 -62 -1 -128 -16 -138 -31 -5 -8 -8 -30 -7 -49 l3 -35 73 -3 c83 -3 90 -10 67 -65 l-15 -37 -79 0 c-84 0 -94 -5 -106 -53 -11 -42 8 -57 74 -57 31 0 62 -5 69 -12 17 -17 15 -67 -4 -75 -10 -4 -14 -13 -10 -27 3 -11 -2 -28 -11 -38 -32 -36 -5 -35 69 3 10 5 40 9 68 9 27 0 50 2 50 5 0 3 -7 17 -16 31 -14 21 -15 31 -5 64 6 22 16 59 22 83 6 23 15 51 19 62 5 11 11 34 15 50 6 28 14 63 35 148 6 20 14 55 19 78 5 22 18 50 30 63 11 12 21 25 21 29 0 4 -31 7 -69 7 -39 0 -73 5 -76 10 -9 14 -161 13 -185 -2 -14 -9 -24 -9 -42 0 -13 6 -34 12 -47 14 -13 2 -29 11 -35 21 -9 15 -7 21 9 33 16 12 17 18 8 33 -7 10 -10 27 -7 37 l5 19 -323 0 c-178 1 -357 -1 -399 -3z"/>
<path d="M5402 1157 c-5 -7 -9 -27 -9 -44 l0 -33 152 0 c95 0 155 4 162 11 8 8 13 8 17 0 5 -7 85 -11 247 -11 173 0 245 -3 259 -12 16 -10 24 -10 40 0 13 8 64 12 154 12 138 0 164 7 150 43 -3 8 0 18 5 22 6 3 9 11 6 16 -10 15 -1171 11 -1183 -4z m304 -18 c10 -17 -13 -36 -27 -22 -12 12 -4 33 11 33 5 0 12 -5 16 -11z"/>
<path d="M6635 1161 c-3 -5 0 -13 6 -16 5 -4 8 -14 4 -23 -3 -8 4 -25 15 -37 l21 -23 -28 -18 c-15 -11 -37 -24 -48 -30 -25 -14 -33 -54 -11 -54 8 0 20 -8 25 -18 8 -14 0 -30 -35 -75 -25 -31 -50 -57 -54 -57 -5 0 -14 -9 -21 -21 -9 -17 -7 -25 12 -45 25 -26 48 -31 67 -12 9 9 15 9 24 0 7 -7 27 -12 44 -12 41 0 51 -15 28 -41 -13 -14 -30 -19 -71 -19 -45 0 -53 -3 -53 -19 0 -10 -14 -45 -30 -76 -17 -32 -28 -60 -25 -63 3 -3 20 9 38 26 18 18 43 32 55 32 12 0 31 12 43 29 l21 29 44 -44 c38 -39 49 -44 87 -44 81 0 142 66 115 125 -6 13 -29 31 -52 40 -22 10 -50 22 -62 27 -12 5 -36 8 -55 6 -32 -3 -34 -1 -31 24 2 14 -2 29 -7 33 -17 10 -13 90 8 138 46 107 141 167 264 167 49 0 88 -6 113 -17 22 -10 45 -18 53 -18 23 0 25 -26 2 -32 -11 -3 -30 -21 -42 -39 -21 -34 -60 -47 -74 -24 -3 6 -32 10 -64 10 -70 0 -111 -25 -111 -68 0 -42 16 -54 105 -81 22 -7 50 -17 62 -23 16 -8 26 -8 36 1 8 6 22 9 31 5 19 -7 21 7 4 24 -8 8 -8 15 2 26 11 14 16 12 43 -17 37 -39 43 -82 10 -82 -11 0 -25 -3 -29 -8 -4 -4 -16 -7 -26 -7 -16 0 -18 -9 -18 -63 0 -35 -5 -68 -11 -74 -8 -8 -6 -14 9 -22 13 -7 23 -7 27 -2 7 13 55 7 64 -8 6 -9 18 -7 47 9 51 29 54 32 64 71 5 19 16 63 25 97 10 36 13 67 9 72 -5 5 -29 12 -52 17 -24 4 -43 11 -43 16 1 4 1 20 1 36 0 15 11 45 25 66 15 20 25 38 23 39 -2 2 -20 10 -40 20 -43 19 -46 26 -20 49 15 14 40 17 119 17 104 0 130 10 117 43 -3 8 0 18 5 22 35 21 -31 25 -399 25 -235 0 -401 -4 -405 -9z"/>
<path d="M7475 1161 c-3 -5 0 -13 6 -16 5 -4 8 -14 5 -22 -12 -31 25 -42 134 -42 109 0 146 11 134 42 -3 8 0 18 5 22 29 17 -12 25 -139 25 -76 0 -141 -4 -145 -9z"/>
<path d="M5343 1026 c-31 -14 -29 -37 5 -69 20 -19 31 -24 42 -17 25 16 138 12 164 -5 21 -14 23 -22 19 -58 -3 -23 -9 -45 -12 -50 -4 -4 -28 0 -54 10 -40 15 -53 16 -94 5 -27 -7 -60 -25 -76 -40 l-27 -28 30 -29 c32 -30 31 -30 102 6 45 23 98 -3 98 -48 0 -24 15 -38 52 -47 23 -5 29 -1 42 26 9 17 16 38 16 46 0 18 18 79 31 104 5 10 9 28 9 41 0 36 27 67 59 67 33 0 76 42 68 64 -10 25 -115 21 -147 -4 -35 -27 -56 -25 -77 10 l-17 30 -106 -1 c-58 -1 -115 -6 -127 -13z"/>
<path d="M9705 1030 c-3 -5 -15 -10 -26 -10 -25 0 -24 -9 6 -42 20 -24 32 -28 74 -28 27 0 53 -4 56 -10 12 -19 40 -9 64 22 l25 31 -30 23 c-24 20 -41 24 -96 24 -37 0 -70 -4 -73 -10z"/>
<path d="M611 1017 c-6 -6 -11 -16 -11 -22 0 -33 -152 -115 -211 -115 -21 0 -41 -4 -44 -10 -3 -5 -15 -10 -26 -10 -25 0 -24 -9 6 -42 26 -31 46 -34 109 -17 22 6 59 15 81 21 22 6 49 14 60 18 11 5 38 11 59 14 22 3 43 11 48 18 10 16 11 148 1 149 -5 0 -20 2 -34 4 -15 2 -32 -2 -38 -8z"/>
<path d="M4425 1010 c-3 -5 -15 -10 -26 -10 -25 0 -24 -12 4 -37 27 -25 83 -35 98 -16 30 35 38 -22 11 -77 -16 -33 -20 -35 -66 -35 -54 -1 -76 -20 -76 -66 0 -15 -5 -31 -11 -35 -6 -3 -9 -14 -6 -23 2 -10 -2 -26 -9 -36 -8 -10 -14 -31 -14 -46 0 -15 -4 -31 -10 -34 -5 -3 -10 -18 -10 -32 0 -15 -5 -41 -12 -60 -14 -39 -6 -51 25 -35 12 6 31 11 41 9 33 -4 54 48 55 134 1 67 4 78 25 98 27 26 50 20 41 -10 -7 -20 9 -27 20 -9 4 6 14 10 23 9 34 -3 42 2 42 26 0 14 4 33 9 43 10 17 41 131 45 164 1 10 10 26 19 36 9 10 17 22 17 25 0 12 -47 7 -76 -8 -26 -13 -29 -12 -52 10 -26 26 -94 35 -107 15z m-26 -316 c-6 -7 -15 -11 -21 -8 -5 3 -4 12 3 20 6 7 15 11 21 8 5 -3 4 -12 -3 -20z"/>
<path d="M4952 1008 c-20 -20 -14 -42 16 -55 45 -19 81 -21 93 -7 6 8 18 14 25 14 20 0 17 30 -3 46 -22 17 -115 18 -131 2z"/>
<path d="M7543 1004 c-3 -8 4 -25 17 -38 18 -21 21 -31 15 -71 -8 -51 -12 -54 -87 -64 l-52 -6 -23 -85 c-32 -121 -33 -118 30 -117 l52 2 3 -39 c2 -21 -1 -43 -7 -49 -15 -15 -14 -82 2 -110 6 -12 13 -23 14 -25 1 -2 13 4 27 13 17 11 27 29 31 53 7 43 24 108 35 137 5 11 11 31 14 45 2 14 10 43 16 65 14 50 25 96 38 159 11 56 43 95 64 79 7 -6 50 -13 95 -14 75 -4 83 -2 107 20 31 29 33 41 7 41 -11 0 -23 5 -26 10 -3 6 -42 10 -85 10 -43 0 -82 -4 -85 -10 -3 -5 -37 -10 -75 -10 -38 0 -72 5 -75 10 -10 16 -45 12 -52 -6z"/>
<path d="M4180 1003 c-42 -7 -89 -33 -105 -57 -8 -12 -19 -42 -24 -67 -9 -41 -20 -82 -36 -136 -8 -25 12 -32 33 -11 8 8 15 8 27 -2 13 -11 19 -10 34 4 11 10 22 13 25 8 3 -5 -3 -17 -14 -27 -23 -21 -28 -93 -8 -125 10 -16 10 -24 0 -41 -16 -25 -8 -37 12 -20 8 7 24 10 36 6 14 -5 22 -1 26 12 3 10 10 26 15 35 5 10 9 27 9 38 0 20 14 88 33 152 11 40 -3 71 -27 62 -7 -3 -25 0 -40 6 l-28 10 7 48 c4 26 15 56 24 67 18 20 35 46 29 44 -2 -1 -14 -4 -28 -6z"/>
<path d="M9215 990 c-3 -5 -18 -10 -32 -10 -35 0 -83 -37 -83 -64 0 -12 -17 -38 -40 -61 -45 -44 -45 -54 0 -140 15 -28 30 -63 34 -78 12 -51 40 -26 57 49 5 27 15 67 20 89 6 22 13 54 16 70 3 17 10 35 15 42 5 7 8 24 6 38 -2 19 3 29 21 38 14 7 26 18 29 25 4 14 -34 17 -43 2z"/>
<path d="M8006 958 c-20 -29 -20 -35 4 -65 50 -64 -3 -194 -97 -238 -41 -20 -50 -38 -34 -71 6 -13 15 -34 20 -46 27 -69 42 -96 65 -117 21 -20 28 -22 41 -11 8 7 15 23 15 36 0 12 5 26 10 29 15 9 12 65 -3 65 -8 0 -22 9 -32 20 -17 18 -14 25 9 21 27 -5 66 12 66 29 0 11 4 29 9 42 5 13 15 43 22 68 9 29 33 65 71 106 48 51 59 69 64 108 8 53 2 56 -51 26 -45 -25 -73 -25 -105 0 -33 26 -55 25 -74 -2z"/>
<path d="M8732 948 c-7 -7 -12 -31 -12 -55 0 -36 -5 -46 -35 -70 -31 -24 -35 -34 -35 -73 0 -25 -6 -61 -13 -80 -18 -53 -75 -137 -114 -169 l-34 -28 26 -21 c19 -15 35 -19 59 -15 28 4 36 1 45 -16 29 -54 91 -4 91 73 0 19 5 38 10 41 6 3 10 19 10 35 0 16 5 32 10 35 6 3 10 17 10 30 0 13 4 34 9 47 5 13 14 43 21 68 6 25 15 59 20 75 5 17 11 48 15 70 5 37 3 41 -22 53 -34 15 -46 15 -61 0z"/>
<path d="M3843 918 c-18 -18 -24 -19 -38 -8 -13 11 -18 10 -33 -3 -11 -10 -27 -14 -40 -10 -24 6 -27 2 -13 -25 34 -66 110 -231 116 -249 3 -13 10 -23 15 -23 9 0 40 97 40 127 0 10 8 41 19 69 10 28 21 66 25 85 5 30 3 35 -21 47 -37 17 -45 15 -70 -10z"/>
<path d="M5838 923 c-19 -10 -28 -22 -28 -39 0 -14 -4 -33 -9 -42 -15 -30 -23 -122 -10 -122 6 0 42 30 80 67 64 62 69 69 69 110 0 44 -7 52 -28 31 -9 -9 -15 -9 -24 0 -14 14 -15 14 -50 -5z"/>
<path d="M6101 887 l-50 -52 26 -27 c15 -16 32 -28 39 -28 7 0 20 -17 29 -37 9 -21 21 -46 26 -55 5 -10 9 -47 9 -83 0 -50 3 -65 15 -65 27 0 63 23 69 44 9 33 7 114 -3 134 -19 36 -50 110 -66 160 -9 28 -23 53 -30 56 -8 3 -35 -17 -64 -47z"/>
<path d="M6355 910 c-25 -26 -28 -33 -17 -50 7 -11 12 -28 12 -37 1 -55 36 -51 75 8 20 32 24 47 19 74 -5 30 -10 35 -33 35 -17 0 -38 -11 -56 -30z"/>
<path d="M9375 930 c-4 -6 -10 -8 -14 -6 -16 10 -51 -39 -51 -71 0 -19 -18 -79 -31 -105 -5 -10 -9 -29 -9 -42 0 -14 -4 -27 -9 -30 -5 -3 -11 -23 -14 -43 -3 -21 -11 -60 -17 -88 -18 -77 -18 -130 0 -130 8 0 21 -5 29 -9 10 -7 21 -1 36 18 19 24 23 25 35 12 14 -18 46 -21 55 -6 4 6 10 8 15 5 4 -3 13 2 20 10 9 11 7 20 -9 42 -48 66 -39 201 19 292 33 50 38 66 33 96 -4 23 -10 34 -18 31 -7 -2 -21 4 -31 15 -19 21 -30 24 -39 9z"/>
<path d="M2352 900 c-6 -11 -12 -35 -12 -54 0 -19 -4 -38 -10 -41 -11 -7 -14 -49 -2 -43 4 2 26 12 50 22 29 13 44 26 47 42 3 13 7 35 10 48 5 24 -16 42 -35 31 -5 -3 -11 -1 -15 5 -9 15 -19 12 -33 -10z"/>
<path d="M5135 902 c-16 -10 -36 -17 -44 -17 -7 0 -19 -16 -26 -35 -25 -72 -35 -107 -35 -128 0 -11 -4 -23 -9 -26 -5 -3 -11 -20 -14 -38 -3 -18 -10 -50 -15 -71 -9 -34 -8 -40 15 -63 13 -13 28 -22 33 -19 5 3 13 -2 18 -11 6 -11 14 -14 23 -8 8 5 19 9 24 10 6 0 15 2 20 2 6 1 9 33 7 81 -5 91 14 163 55 212 21 25 24 36 18 67 -7 36 -21 63 -34 61 -3 0 -19 -8 -36 -17z"/>
<path d="M9950 845 c-7 -8 -25 -15 -40 -15 -15 0 -41 -7 -58 -15 -29 -15 -33 -15 -71 10 -86 53 -192 17 -244 -84 -53 -100 -45 -195 18 -225 47 -23 91 -30 99 -17 4 6 18 11 31 11 28 0 95 64 95 90 0 13 -12 18 -55 23 -67 7 -77 13 -66 35 5 9 12 25 15 35 5 15 20 17 128 17 92 -1 128 -4 142 -15 11 -8 23 -15 28 -15 12 0 9 48 -4 70 -10 16 -10 24 0 40 14 23 16 70 3 70 -5 0 -14 -7 -21 -15z"/>
<path d="M7782 838 c-16 -20 -34 -91 -30 -118 3 -22 9 -25 48 -28 38 -2 50 1 68 21 31 32 35 103 7 123 -23 17 -79 18 -93 2z"/>
<path d="M8325 831 c-86 -56 -115 -105 -115 -194 0 -66 14 -94 57 -116 27 -14 100 -14 108 -1 3 6 14 10 24 10 25 0 44 25 45 58 1 20 6 26 18 24 30 -5 51 44 52 115 l1 65 -35 29 c-42 36 -108 40 -155 10z m83 -93 c17 -17 15 -78 -5 -100 -18 -20 -73 -24 -91 -6 -7 7 -12 22 -12 33 0 28 55 79 91 84 3 1 10 -4 17 -11z"/>
<path d="M4829 806 c-10 -18 -15 -45 -12 -59 6 -28 -13 -61 -28 -51 -12 7 -11 51 1 59 6 3 10 10 10 16 0 12 -37 12 -45 -1 -3 -5 -11 -7 -18 -5 -33 12 -54 -40 -64 -158 -4 -46 -1 -62 13 -78 37 -41 145 -11 174 48 25 54 46 121 54 178 6 37 4 41 -26 60 -18 11 -35 21 -38 22 -3 1 -12 -12 -21 -31z"/>
<path d="M1859 763 c-21 -5 -20 -53 1 -70 21 -17 95 -16 109 1 6 7 9 20 5 29 -3 8 0 18 5 22 23 14 -2 25 -52 24 -29 -1 -59 -3 -68 -6z"/>
<path d="M5947 732 c-20 -21 -37 -42 -37 -47 0 -5 10 -30 22 -56 l23 -46 42 -1 c45 0 51 6 31 26 -10 10 -10 17 0 32 21 33 14 74 -16 103 l-28 27 -37 -38z"/>
<path d="M3625 741 c-3 -6 -9 -33 -12 -61 -3 -28 -10 -53 -14 -56 -5 -3 -9 -15 -9 -26 0 -12 -5 -36 -12 -55 -14 -38 -5 -52 22 -35 28 17 40 15 66 -9 14 -13 27 -18 36 -13 7 5 18 9 23 10 6 0 16 2 23 2 18 3 6 43 -41 137 -22 44 -43 86 -46 94 -9 19 -27 25 -36 12z"/>
<path d="M8897 743 c-4 -3 -7 -19 -7 -34 0 -15 -4 -31 -10 -34 -5 -3 -10 -19 -10 -35 0 -16 -4 -32 -10 -35 -5 -3 -10 -19 -10 -35 0 -16 -4 -32 -10 -35 -5 -3 -10 -19 -10 -34 0 -15 -5 -32 -12 -39 -18 -18 0 -28 23 -14 16 10 24 10 35 1 11 -9 18 -7 32 11 21 26 38 21 52 -16 10 -24 34 -32 45 -14 3 5 11 7 18 5 7 -3 18 -1 25 4 11 6 0 37 -51 142 -35 74 -67 142 -70 152 -7 18 -19 22 -30 10z"/>
<path d="M983 698 c4 -55 10 -58 106 -58 92 0 118 11 105 43 -3 8 0 18 5 22 28 17 -9 25 -109 25 l-109 0 2 -32z"/>
<path d="M5266 701 c-38 -73 -2 -156 77 -179 39 -12 49 -12 76 3 20 10 31 22 29 33 -2 11 4 17 17 17 23 0 34 -40 16 -58 -6 -6 -11 -23 -11 -37 0 -15 -9 -35 -20 -45 -27 -24 -12 -37 28 -26 19 6 34 6 37 0 11 -16 40 -10 53 12 7 11 16 43 19 70 3 27 10 52 14 55 19 12 8 51 -21 72 l-29 22 -36 -20 c-47 -27 -143 -28 -151 -2 -3 9 -10 25 -15 34 -5 10 -9 29 -9 43 0 15 -6 25 -14 25 -8 0 -21 3 -30 6 -10 4 -20 -5 -30 -25z"/>
<path d="M2558 703 c-4 -8 -31 -94 -59 -191 -14 -48 -7 -62 22 -44 16 10 24 10 34 2 8 -7 19 -9 25 -5 5 3 13 -1 16 -9 6 -17 35 -22 48 -8 4 4 12 8 17 8 5 1 14 2 19 3 6 0 10 7 10 14 0 10 -58 137 -95 207 -14 26 -31 36 -37 23z"/>
<path d="M2292 660 c-6 -11 -12 -42 -12 -70 0 -44 3 -50 20 -50 12 0 32 11 46 25 20 20 25 34 22 63 -2 27 -8 37 -20 37 -9 0 -20 4 -24 8 -12 11 -18 9 -32 -13z"/>
<path d="M5746 618 c-9 -12 -16 -33 -16 -45 0 -13 -4 -31 -9 -41 -24 -47 -33 -93 -20 -108 6 -8 14 -12 17 -9 3 3 11 0 19 -7 10 -8 17 -8 25 0 7 7 31 12 54 12 45 0 61 17 45 48 -5 9 -19 40 -31 67 -49 110 -59 120 -84 83z"/>
<path d="M7706 568 c-9 -29 -22 -71 -28 -93 -6 -22 -16 -46 -21 -53 -6 -7 -7 -15 -4 -19 4 -3 2 -12 -5 -20 -16 -19 -1 -30 22 -15 11 7 49 12 85 12 36 0 65 2 65 5 0 2 -6 22 -14 42 -7 21 -19 56 -25 78 -18 58 -43 115 -51 115 -4 0 -15 -24 -24 -52z"/>
<path d="M2896 593 c-4 -5 -12 -9 -17 -9 -5 -1 -13 -2 -19 -3 -12 -1 -13 -34 -1 -46 30 -32 51 -89 45 -121 l-6 -34 46 0 c25 0 55 -5 66 -12 29 -18 36 -1 11 26 -21 22 -22 28 -12 80 10 52 9 57 -13 78 -43 42 -83 58 -100 41z"/>
<path d="M7415 550 c-4 -6 -11 -8 -16 -4 -16 9 -49 -26 -49 -52 0 -13 -5 -26 -10 -29 -15 -10 9 -36 29 -33 9 1 22 -1 29 -6 22 -13 41 24 42 82 0 48 -10 66 -25 42z"/>
<path d="M9813 491 l-42 -38 29 -28 c27 -26 30 -27 60 -14 18 8 38 28 47 48 l17 34 -23 18 c-32 26 -40 24 -88 -20z"/>
<path d="M4870 441 c-8 -4 -25 -13 -37 -19 -30 -16 -188 -15 -212 0 -15 9 -23 9 -35 -1 -8 -7 -15 -16 -14 -19 1 -4 -2 -15 -7 -25 -5 -12 -1 -24 10 -37 16 -18 31 -20 144 -19 101 0 132 4 156 18 30 18 40 50 28 94 -5 19 -10 20 -33 8z"/>
</g>
</g>
</svg>
