<svg xmlns="http://www.w3.org/2000/svg" version="1.0" width="2516.000000pt" height="472.000000pt" viewBox="0 0 2516.000000 472.000000" preserveAspectRatio="xMidYMid meet">
  <g transform="translate(0.000000,472.000000) scale(0.100000,-0.100000)" stroke="none">
    <path d="M 0 0 H 25160.0 V 4720.0 H 0 Z" fill="#ffffff" id="background"/>
    <path stroke="none" d="M6720 3746 c-14 -7 -59 -16 -100 -20 -197 -16 -451 -150 -555 -291 -155 -209 -190 -469 -92 -685 42 -93 163 -233 302 -349 55 -46 139 -122 187 -168 48 -46 92 -83 98 -83 17 0 238 -209 270 -255 25 -37 30 -53 30 -106 0 -61 -1 -63 -48 -109 -69 -69 -96 -75 -357 -75 -180 1 -225 4 -250 17 -16 8 -54 18 -84 22 -30 4 -66 13 -80 20 -14 7 -44 17 -66 21 -22 4 -51 13 -65 20 -92 47 -116 45 -106 -8 18 -97 28 -189 36 -337 5 -91 13 -190 17 -220 l8 -55 80 -11 c44 -5 89 -15 101 -22 12 -6 89 -13 178 -16 118 -4 162 -9 179 -21 17 -12 58 -15 222 -15 144 0 204 3 213 12 7 7 61 18 120 24 136 15 241 53 392 140 98 57 221 192 268 294 62 134 67 154 66 310 l0 145 -54 105 c-51 99 -63 114 -214 265 -89 89 -183 176 -211 195 -27 18 -86 63 -130 100 -44 37 -100 80 -125 97 -53 36 -139 125 -169 174 -30 48 -30 159 0 200 25 35 98 73 174 90 80 18 391 8 435 -14 18 -10 45 -17 60 -17 25 0 67 -11 115 -29 38 -15 92 -31 104 -31 14 0 12 49 -13 280 -8 80 -15 186 -16 237 0 51 -5 95 -10 98 -6 4 -36 9 -68 12 -31 3 -66 11 -77 18 -13 8 -77 16 -160 20 -92 5 -148 12 -162 21 -31 20 -406 19 -443 0z" fill="#0a0a0a" id="0a0a0a-000001"/>
    <path stroke="none" d="M12010 3721 l-565 -6 -7 -550 c-4 -302 -12 -606 -18 -675 -6 -69 -15 -242 -20 -385 -6 -143 -15 -316 -20 -385 -14 -174 -32 -488 -34 -590 l-1 -85 385 0 385 0 7 650 c4 358 12 731 18 830 6 99 15 285 20 414 6 142 14 239 20 245 7 7 92 12 235 14 l225 4 54 -32 c60 -34 106 -81 106 -109 0 -9 5 -22 11 -28 17 -17 16 -141 -1 -193 -16 -49 -76 -150 -89 -150 -5 0 -26 -14 -47 -31 -60 -48 -78 -52 -249 -58 -152 -6 -160 -7 -158 -26 3 -32 14 -78 23 -100 12 -28 39 -143 60 -258 10 -58 25 -106 35 -117 10 -11 43 -25 77 -31 32 -6 61 -16 64 -20 7 -12 228 -11 240 1 5 5 45 14 89 20 103 14 186 42 320 106 126 61 265 207 336 353 71 146 90 220 95 371 7 179 -14 298 -76 435 -53 117 -178 239 -305 300 -49 24 -106 46 -125 50 -19 4 -46 13 -60 20 -35 18 -348 22 -1030 16z" fill="#0a0a0a" id="0a0a0a-000002"/>
    <path stroke="none" d="M9144 3702 c-11 -9 -27 -33 -34 -52 -15 -37 -244 -492 -300 -595 -18 -33 -58 -109 -90 -170 -54 -105 -91 -174 -196 -372 -26 -49 -68 -128 -94 -178 -26 -49 -64 -121 -85 -160 -21 -38 -71 -135 -113 -215 -71 -137 -117 -225 -185 -350 -16 -30 -55 -104 -87 -165 -31 -60 -69 -130 -84 -155 -14 -25 -40 -70 -56 -100 -17 -30 -40 -70 -51 -88 -41 -64 -55 -62 421 -62 278 0 438 4 451 10 10 6 19 18 19 27 0 9 12 41 26 72 15 31 47 99 71 151 24 52 57 123 74 157 16 34 29 64 29 67 0 3 22 50 49 105 27 55 54 116 61 135 l12 36 504 0 503 0 14 -27 c8 -16 28 -73 46 -128 18 -55 36 -109 41 -120 5 -11 14 -38 21 -60 6 -22 15 -49 20 -60 4 -11 14 -40 20 -65 7 -25 16 -49 20 -55 4 -5 13 -37 20 -70 7 -33 18 -72 26 -87 7 -15 13 -36 13 -47 0 -11 9 -25 19 -31 13 -6 166 -10 431 -10 344 0 412 2 416 14 7 18 -31 132 -77 232 -11 22 -19 47 -19 55 0 8 -4 19 -8 25 -4 5 -14 27 -21 49 -7 22 -21 59 -32 82 -10 24 -19 49 -19 57 0 12 -10 37 -50 131 -5 11 -15 40 -24 65 -31 91 -74 207 -89 241 -9 19 -21 54 -28 79 -7 25 -16 50 -19 55 -4 6 -13 28 -19 50 -7 22 -16 49 -21 60 -5 11 -32 83 -60 160 -28 77 -57 154 -65 170 -7 17 -16 44 -20 60 -4 17 -15 49 -26 72 -10 24 -19 49 -19 56 0 7 -9 32 -20 55 -11 22 -20 48 -20 56 0 8 -4 17 -9 20 -4 3 -14 27 -21 53 -7 27 -18 62 -25 78 -7 17 -18 46 -23 65 -6 19 -34 100 -62 180 -29 80 -56 159 -60 175 -14 51 -42 128 -61 173 -11 23 -19 51 -19 61 0 10 -8 25 -18 34 -17 15 -66 17 -498 17 -439 0 -481 -2 -500 -18z" fill="#0a0a0a" id="0a0a0a-000003"/>
    <path stroke="none" d="M9608 3118 c5 -7 15 -33 22 -58 7 -25 18 -58 25 -75 7 -16 16 -46 20 -65 4 -19 11 -39 15 -45 4 -5 13 -35 20 -65 7 -30 21 -77 31 -105 9 -27 27 -84 40 -125 12 -41 31 -94 41 -117 10 -24 18 -56 18 -73 l0 -30 -300 0 -300 0 0 24 c0 14 4 27 8 30 4 2 23 35 41 73 100 209 110 231 178 383 14 30 40 87 59 126 19 39 34 74 34 77 0 3 4 17 10 31 10 29 22 33 38 14z" fill="#ffffff" id="ffffff-000002"/>
    <path stroke="none" d="M13792 3707 c-6 -7 -11 -82 -11 -186 -1 -95 -6 -182 -12 -192 -5 -11 -8 -61 -7 -112 l3 -92 82 -3 c56 -2 91 2 110 11 22 11 96 15 333 18 l305 4 -4 -210 c-2 -115 -7 -284 -12 -375 -5 -91 -13 -282 -19 -425 -5 -143 -15 -307 -20 -365 -6 -58 -15 -184 -20 -280 -6 -96 -15 -204 -21 -240 -6 -36 -13 -100 -16 -143 l-5 -77 415 0 c320 0 417 3 425 13 6 7 11 124 12 297 1 157 6 380 11 495 6 116 14 327 18 470 10 296 18 433 31 490 5 22 11 110 14 195 2 85 5 157 5 159 1 2 158 1 351 -2 279 -5 357 -10 386 -22 20 -8 48 -15 63 -15 l27 0 12 292 c10 234 10 293 0 300 -7 4 -560 8 -1229 8 -963 0 -1219 -3 -1227 -13z" fill="#0a0a0a" id="0a0a0a-000004"/>
    <path stroke="none" d="M16585 3708 c-3 -7 -7 -123 -9 -258 -5 -311 -23 -802 -36 -990 -6 -80 -15 -253 -20 -385 -6 -132 -15 -287 -21 -345 -6 -58 -14 -175 -19 -260 -5 -85 -14 -193 -21 -240 -7 -47 -12 -107 -13 -135 l-1 -50 414 -3 c253 -1 418 1 425 7 7 6 13 47 14 103 1 51 6 138 12 193 5 55 14 296 20 535 6 240 15 460 20 490 9 53 30 394 50 835 5 116 15 257 21 315 6 58 12 125 13 150 l1 45 -423 3 c-333 2 -424 0 -427 -10z" fill="#0a0a0a" id="0a0a0a-000005"/>
    <path stroke="none" d="M18312 3700 c-12 -12 -31 -37 -41 -58 -10 -20 -29 -48 -41 -62 -12 -14 -30 -41 -41 -62 -10 -20 -37 -57 -59 -83 -22 -25 -45 -56 -51 -68 -7 -12 -26 -40 -44 -62 -18 -22 -39 -54 -48 -72 -9 -17 -22 -37 -30 -45 -7 -7 -28 -35 -47 -63 -18 -27 -50 -70 -70 -95 -20 -25 -57 -74 -81 -109 -24 -35 -63 -90 -86 -123 -22 -33 -53 -72 -67 -87 -14 -15 -43 -52 -63 -83 -21 -30 -56 -81 -78 -112 l-39 -58 29 -51 c15 -29 45 -77 65 -107 21 -30 40 -65 44 -78 4 -12 18 -34 30 -50 13 -15 41 -59 62 -98 22 -38 51 -88 65 -110 15 -21 46 -72 70 -113 24 -41 56 -95 72 -120 15 -25 37 -64 48 -86 12 -22 27 -47 34 -55 7 -8 26 -40 42 -70 16 -30 40 -73 53 -95 13 -22 30 -53 38 -70 8 -16 21 -37 27 -45 13 -16 82 -141 122 -223 l23 -47 489 0 c507 0 530 2 484 39 -11 9 -42 50 -70 91 -27 41 -69 104 -93 140 -24 36 -47 67 -51 70 -4 3 -20 26 -35 51 -49 78 -107 162 -141 203 -18 22 -33 44 -33 50 0 6 -16 31 -36 56 -20 25 -52 69 -71 98 -18 30 -43 63 -53 75 -11 11 -20 26 -20 31 0 6 -20 38 -45 71 -25 33 -45 62 -45 66 0 3 -20 32 -45 63 -25 32 -45 64 -45 71 0 7 -7 18 -16 25 -8 8 -33 43 -55 79 -22 36 -50 82 -63 102 l-24 36 49 69 c27 38 64 89 81 114 17 25 63 84 102 131 91 110 194 243 225 288 14 20 40 53 59 73 19 20 49 60 67 87 18 27 49 67 68 88 19 21 57 67 83 103 27 36 59 76 72 90 12 14 42 52 65 85 23 32 55 72 71 88 24 23 27 30 15 38 -8 5 -210 9 -460 9 -434 0 -446 -1 -467 -20z" fill="#0a0a0a" id="0a0a0a-000006"/>
  </g>
</svg>
