<?xml version="1.0" standalone="no"?>
<!DOCTYPE svg PUBLIC "-//W3C//DTD SVG 1.1//EN"
 "http://www.w3.org/Graphics/SVG/1.1/DTD/svg11.dtd">
<!-- Created with svg_stack (http://github.com/astraw/svg_stack) -->
<svg xmlns:sodipodi="http://sodipodi.sourceforge.net/DTD/sodipodi-0.dtd" xmlns="http://www.w3.org/2000/svg" version="1.1" width="895.0" height="174.0">
  <defs/>
  <g id="id0:id0" transform="matrix(1.25,0,0,1.25,0.0,0.0)"><g transform="translate(0.000000,139.200000) scale(0.040000,-0.040000)" fill="#ffffff" stroke="none">
<path d="M17145 3130 c-18 -8 -17 -9 8 -9 16 -1 26 3 22 9 -3 6 -7 10 -8 9 -1 0 -11 -4 -22 -9z"/>
<path d="M16705 3110 c4 -6 58 -10 130 -10 72 0 126 4 130 10 4 6 -42 10 -130 10 -88 0 -134 -4 -130 -10z"/>
<path d="M15856 3051 c-22 -23 -36 -44 -33 -48 10 -9 80 62 76 76 -3 7 -22 -6 -43 -28z"/>
<path d="M3880 3050 c0 -5 18 -10 40 -10 22 0 40 5 40 10 0 6 -18 10 -40 10 -22 0 -40 -4 -40 -10z"/>
<path d="M240 3025 c0 -8 5 -15 10 -15 6 0 10 7 10 15 0 8 -4 15 -10 15 -5 0 -10 -7 -10 -15z"/>
<path d="M17780 3030 c0 -5 5 -10 10 -10 6 0 10 5 10 10 0 6 -4 10 -10 10 -5 0 -10 -4 -10 -10z"/>
<path d="M260 2961 c0 -17 5 -31 10 -31 6 0 10 11 10 24 0 14 -4 28 -10 31 -6 4 -10 -7 -10 -24z"/>
<path d="M1195 2948 c-11 -6 -26 -14 -34 -18 -8 -3 -17 -12 -19 -19 -2 -7 11 -3 32 9 20 11 48 20 61 20 14 0 25 5 25 10 0 13 -40 12 -65 -2z"/>
<path d="M13705 2930 c-3 -5 -21 -10 -40 -10 -19 0 -37 -4 -40 -10 -3 -5 -17 -10 -31 -10 -13 0 -32 -4 -42 -9 -9 -5 -28 -13 -42 -19 -26 -10 -122 -54 -129 -59 -13 -9 10 -13 26 -5 10 5 29 14 43 19 44 18 84 35 102 44 10 5 27 9 37 9 11 0 23 5 26 10 3 6 21 10 40 10 19 0 37 5 40 10 3 6 31 10 61 10 34 0 53 4 49 10 -3 6 -26 10 -50 10 -24 0 -47 -4 -50 -10z"/>
<path d="M1061 2853 c-23 -25 -39 -48 -36 -51 6 -7 95 78 95 90 0 19 -21 5 -59 -39z"/>
<path d="M14836 2885 c-11 -8 -16 -18 -13 -22 4 -4 13 -1 19 5 7 7 20 12 30 12 10 0 18 5 18 10 0 15 -32 12 -54 -5z"/>
<path d="M15020 2890 c0 -5 7 -10 15 -10 8 0 15 5 15 10 0 6 -7 10 -15 10 -8 0 -15 -4 -15 -10z"/>
<path d="M15080 2870 c0 -5 5 -10 10 -10 6 0 10 5 10 10 0 6 -4 10 -10 10 -5 0 -10 -4 -10 -10z"/>
<path d="M15916 2863 c-3 -10 1 -43 9 -73 12 -45 15 -156 15 -627 0 -378 3 -573 10 -573 7 0 9 216 8 642 -3 590 -4 643 -20 646 -9 2 -19 -5 -22 -15z"/>
<path d="M17240 2870 c0 -5 11 -10 25 -10 14 0 25 5 25 10 0 6 -11 10 -25 10 -14 0 -25 -4 -25 -10z"/>
<path d="M280 2825 c0 -25 5 -45 10 -45 6 0 10 20 10 45 0 25 -4 45 -10 45 -5 0 -10 -20 -10 -45z"/>
<path d="M15120 2852 c0 -4 12 -15 28 -24 31 -18 132 -122 149 -153 7 -11 14 -17 18 -13 16 16 -71 119 -142 169 -44 30 -53 34 -53 21z"/>
<path d="M17160 2850 c0 -5 9 -10 20 -10 11 0 20 5 20 10 0 6 -9 10 -20 10 -11 0 -20 -4 -20 -10z"/>
<path d="M17090 2830 c0 -5 5 -10 10 -10 6 0 10 5 10 10 0 6 -4 10 -10 10 -5 0 -10 -4 -10 -10z"/>
<path d="M13340 2790 c0 -5 5 -10 10 -10 6 0 10 5 10 10 0 6 -4 10 -10 10 -5 0 -10 -4 -10 -10z"/>
<path d="M14740 2790 c0 -5 5 -10 10 -10 6 0 10 5 10 10 0 6 -4 10 -10 10 -5 0 -10 -4 -10 -10z"/>
<path d="M13305 2770 c-3 -5 -1 -10 4 -10 6 0 11 5 11 10 0 6 -2 10 -4 10 -3 0 -8 -4 -11 -10z"/>
<path d="M15760 2770 c0 -5 9 -10 20 -10 11 0 20 5 20 10 0 6 -9 10 -20 10 -11 0 -20 -4 -20 -10z"/>
<path d="M972 2740 c-7 -11 -9 -20 -4 -20 10 0 32 22 32 32 0 15 -15 8 -28 -12z"/>
<path d="M14720 2750 c0 -5 5 -10 10 -10 6 0 10 5 10 10 0 6 -4 10 -10 10 -5 0 -10 -4 -10 -10z"/>
<path d="M752 2720 c-6 -11 -12 -24 -12 -30 0 -17 17 -11 24 8 3 9 9 23 12 30 9 20 -10 14 -24 -8z"/>
<path d="M14700 2705 c0 -8 5 -15 10 -15 6 0 10 7 10 15 0 8 -4 15 -10 15 -5 0 -10 -7 -10 -15z"/>
<path d="M10046 2694 c-10 -26 -7 -154 4 -154 6 0 10 35 10 85 0 85 -3 99 -14 69z"/>
<path d="M13800 2689 c0 -5 5 -7 10 -4 6 3 10 8 10 11 0 2 -4 4 -10 4 -5 0 -10 -5 -10 -11z"/>
<path d="M3748 2683 c-24 -6 -23 -23 1 -23 10 0 21 7 25 15 6 15 4 16 -26 8z"/>
<path d="M14680 2640 c0 -11 5 -20 10 -20 6 0 10 9 10 20 0 11 -4 20 -10 20 -5 0 -10 -9 -10 -20z"/>
<path d="M1267 2633 c-11 -10 -8 -93 3 -93 6 0 10 23 10 50 0 51 -1 55 -13 43z"/>
<path d="M13760 2629 c0 -5 5 -7 10 -4 6 3 10 8 10 11 0 2 -4 4 -10 4 -5 0 -10 -5 -10 -11z"/>
<path d="M15320 2630 c0 -5 5 -10 10 -10 6 0 10 5 10 10 0 6 -4 10 -10 10 -5 0 -10 -4 -10 -10z"/>
<path d="M300 2516 c0 -47 5 -88 10 -91 6 -4 10 27 10 84 0 54 -4 91 -10 91 -6 0 -10 -35 -10 -84z"/>
<path d="M15340 2585 c0 -8 5 -15 10 -15 6 0 10 7 10 15 0 8 -4 15 -10 15 -5 0 -10 -7 -10 -15z"/>
<path d="M14660 2560 c0 -16 5 -30 10 -30 6 0 10 14 10 30 0 17 -4 30 -10 30 -5 0 -10 -13 -10 -30z"/>
<path d="M15360 2520 c0 -11 5 -20 10 -20 6 0 10 9 10 20 0 11 -4 20 -10 20 -5 0 -10 -9 -10 -20z"/>
<path d="M4120 2470 c0 -33 14 -40 24 -12 3 9 9 23 12 30 4 7 -2 12 -15 12 -17 0 -21 -6 -21 -30z"/>
<path d="M14640 2429 c0 -37 4 -58 10 -54 6 3 10 31 10 61 0 30 -4 54 -10 54 -6 0 -10 -27 -10 -61z"/>
<path d="M15380 2420 c0 -22 5 -40 10 -40 6 0 10 18 10 40 0 22 -4 40 -10 40 -5 0 -10 -18 -10 -40z"/>
<path d="M13620 2430 c0 -5 5 -10 10 -10 6 0 10 5 10 10 0 6 -4 10 -10 10 -5 0 -10 -4 -10 -10z"/>
<path d="M13574 2358 l-19 -23 23 19 c21 18 27 26 19 26 -2 0 -12 -10 -23 -22z"/>
<path d="M760 2265 c0 -37 4 -65 10 -65 6 0 10 28 10 65 0 37 -4 65 -10 65 -6 0 -10 -28 -10 -65z"/>
<path d="M14627 2303 c-11 -11 -8 -271 3 -278 6 -4 10 45 10 139 0 80 -1 146 -3 146 -2 0 -7 -3 -10 -7z"/>
<path d="M13520 2290 c0 -5 5 -10 10 -10 6 0 10 5 10 10 0 6 -4 10 -10 10 -5 0 -10 -4 -10 -10z"/>
<path d="M15400 2139 c0 -97 4 -148 10 -144 6 4 10 65 10 151 0 89 -4 144 -10 144 -6 0 -10 -57 -10 -151z"/>
<path d="M13460 2209 c0 -5 5 -7 10 -4 6 3 10 8 10 11 0 2 -4 4 -10 4 -5 0 -10 -5 -10 -11z"/>
<path d="M6046 2196 c7 -19 28 -26 45 -15 12 8 12 10 -1 19 -23 15 -50 12 -44 -4z"/>
<path d="M10957 2142 c-29 -18 -57 -62 -57 -91 0 -38 119 -185 136 -168 4 4 -13 28 -38 55 -25 27 -53 65 -63 86 -15 32 -16 41 -4 62 7 14 26 33 41 42 15 9 28 20 28 24 0 12 -11 9 -43 -10z"/>
<path d="M5932 2123 c5 -25 28 -28 28 -4 0 12 -6 21 -16 21 -9 0 -14 -7 -12 -17z"/>
<path d="M11140 2096 c11 -20 20 -43 20 -51 0 -8 5 -15 10 -15 15 0 11 31 -9 64 -25 44 -46 45 -21 2z"/>
<path d="M5825 2104 c-11 -8 -27 -19 -35 -24 -8 -5 -12 -12 -8 -15 4 -4 20 2 36 14 17 12 37 21 46 21 9 0 16 5 16 10 0 15 -32 11 -55 -6z"/>
<path d="M10360 2089 c0 -5 5 -7 10 -4 6 3 10 8 10 11 0 2 -4 4 -10 4 -5 0 -10 -5 -10 -11z"/>
<path d="M6660 1795 c0 -177 4 -275 10 -275 6 0 10 98 10 275 0 177 -4 275 -10 275 -6 0 -10 -98 -10 -275z"/>
<path d="M5740 2027 c-25 -20 -43 -47 -32 -47 6 0 20 14 32 30 23 33 23 36 0 17z"/>
<path d="M6116 2004 c-6 -16 22 -74 36 -74 13 0 8 54 -6 73 -16 21 -22 21 -30 1z"/>
<path d="M7460 1900 c0 -40 4 -70 10 -70 6 0 10 30 10 70 0 40 -4 70 -10 70 -6 0 -10 -30 -10 -70z"/>
<path d="M10340 1950 c0 -11 5 -20 10 -20 6 0 10 9 10 20 0 11 -4 20 -10 20 -5 0 -10 -9 -10 -20z"/>
<path d="M2760 1950 c-8 -4 -31 -15 -50 -24 -36 -15 -125 -102 -176 -171 -37 -51 -134 -244 -134 -267 0 -9 -4 -20 -10 -23 -5 -3 -10 -17 -10 -31 0 -13 5 -24 10 -24 6 0 10 9 10 20 0 11 4 28 9 38 5 9 13 28 19 42 25 64 80 170 113 220 45 68 173 190 199 190 10 0 22 5 25 10 9 15 76 12 94 -4 23 -21 50 -4 32 18 -15 17 -104 22 -131 6z"/>
<path d="M5680 1945 c0 -8 5 -15 10 -15 6 0 10 7 10 15 0 8 -4 15 -10 15 -5 0 -10 -7 -10 -15z"/>
<path d="M9085 1950 c-3 -5 -15 -10 -26 -10 -10 0 -19 -4 -19 -10 0 -5 9 -10 19 -10 11 0 23 5 26 10 9 15 76 12 94 -4 23 -21 50 -4 32 18 -15 18 -116 23 -126 6z"/>
<path d="M7331 1924 c-17 -14 -31 -31 -31 -38 0 -7 -13 -25 -30 -41 -16 -16 -30 -34 -30 -41 0 -6 -7 -17 -15 -24 -13 -11 -33 -46 -63 -112 -2 -5 1 -8 7 -8 6 0 11 5 11 11 0 6 14 30 30 54 17 24 30 46 30 49 0 8 89 124 100 131 11 7 33 45 26 45 -2 0 -18 -12 -35 -26z"/>
<path d="M6104 1888 c4 -29 9 -92 12 -140 6 -90 24 -123 24 -45 0 50 7 62 27 46 11 -9 13 3 13 70 0 47 -4 81 -10 81 -5 0 -10 -22 -10 -49 0 -28 -4 -52 -9 -56 -17 -10 -31 31 -31 89 0 34 -4 56 -11 56 -7 0 -9 -17 -5 -52z"/>
<path d="M7060 1915 c0 -8 5 -15 10 -15 6 0 10 7 10 15 0 8 -4 15 -10 15 -5 0 -10 -7 -10 -15z"/>
<path d="M14640 1870 c0 -33 4 -60 10 -60 6 0 10 27 10 60 0 33 -4 60 -10 60 -6 0 -10 -27 -10 -60z"/>
<path d="M5660 1890 c0 -11 5 -20 10 -20 6 0 10 9 10 20 0 11 -4 20 -10 20 -5 0 -10 -9 -10 -20z"/>
<path d="M2860 1880 c0 -11 5 -20 10 -20 6 0 10 9 10 20 0 11 -4 20 -10 20 -5 0 -10 -9 -10 -20z"/>
<path d="M9180 1880 c0 -11 5 -20 10 -20 6 0 10 9 10 20 0 11 -4 20 -10 20 -5 0 -10 -9 -10 -20z"/>
<path d="M5840 1821 c0 -33 5 -63 10 -66 6 -4 10 18 10 59 0 37 -4 66 -10 66 -6 0 -10 -26 -10 -59z"/>
<path d="M15380 1809 c0 -44 4 -68 10 -64 6 3 10 35 10 71 0 36 -4 64 -10 64 -6 0 -10 -30 -10 -71z"/>
<path d="M3240 1830 c0 -5 5 -10 10 -10 6 0 10 5 10 10 0 6 -4 10 -10 10 -5 0 -10 -4 -10 -10z"/>
<path d="M5640 1805 c0 -19 5 -35 10 -35 6 0 10 16 10 35 0 19 -4 35 -10 35 -5 0 -10 -16 -10 -35z"/>
<path d="M8904 1818 c-37 -43 -79 -103 -101 -147 -26 -51 -26 -51 -13 -51 6 0 10 5 10 10 0 10 74 122 121 183 25 32 11 37 -17 5z"/>
<path d="M9560 1830 c0 -5 5 -10 10 -10 6 0 10 5 10 10 0 6 -4 10 -10 10 -5 0 -10 -4 -10 -10z"/>
<path d="M11100 1830 c0 -5 5 -10 10 -10 6 0 10 5 10 10 0 6 -4 10 -10 10 -5 0 -10 -4 -10 -10z"/>
<path d="M10320 1800 c0 -16 5 -30 10 -30 6 0 10 14 10 30 0 17 -4 30 -10 30 -5 0 -10 -13 -10 -30z"/>
<path d="M3220 1775 c0 -8 5 -15 10 -15 6 0 10 7 10 15 0 8 -4 15 -10 15 -5 0 -10 -7 -10 -15z"/>
<path d="M9540 1775 c0 -8 5 -15 10 -15 6 0 10 7 10 15 0 8 -4 15 -10 15 -5 0 -10 -7 -10 -15z"/>
<path d="M2820 1770 c0 -5 5 -10 10 -10 6 0 10 5 10 10 0 6 -4 10 -10 10 -5 0 -10 -4 -10 -10z"/>
<path d="M9140 1770 c0 -5 5 -10 10 -10 6 0 10 5 10 10 0 6 -4 10 -10 10 -5 0 -10 -4 -10 -10z"/>
<path d="M17440 1760 c0 -5 5 -10 10 -10 6 0 10 5 10 10 0 6 -4 10 -10 10 -5 0 -10 -4 -10 -10z"/>
<path d="M7440 1736 c0 -8 5 -18 10 -21 6 -3 10 3 10 14 0 12 -4 21 -10 21 -5 0 -10 -6 -10 -14z"/>
<path d="M14660 1710 c0 -22 5 -40 10 -40 6 0 10 18 10 40 0 22 -4 40 -10 40 -5 0 -10 -18 -10 -40z"/>
<path d="M9120 1725 c0 -8 5 -15 10 -15 6 0 10 7 10 15 0 8 -4 15 -10 15 -5 0 -10 -7 -10 -15z"/>
<path d="M2800 1720 c0 -5 5 -10 10 -10 6 0 10 5 10 10 0 6 -4 10 -10 10 -5 0 -10 -4 -10 -10z"/>
<path d="M3200 1700 c0 -11 5 -20 10 -20 6 0 10 9 10 20 0 11 -4 20 -10 20 -5 0 -10 -9 -10 -20z"/>
<path d="M9520 1700 c0 -11 5 -20 10 -20 6 0 10 9 10 20 0 11 -4 20 -10 20 -5 0 -10 -9 -10 -20z"/>
<path d="M17420 1700 c0 -5 5 -10 10 -10 6 0 10 5 10 10 0 6 -4 10 -10 10 -5 0 -10 -4 -10 -10z"/>
<path d="M4020 1684 c0 -8 5 -12 10 -9 6 3 10 10 10 16 0 5 -4 9 -10 9 -5 0 -10 -7 -10 -16z"/>
<path d="M15360 1655 c0 -25 5 -45 10 -45 6 0 10 20 10 45 0 25 -4 45 -10 45 -5 0 -10 -20 -10 -45z"/>
<path d="M5620 1645 c0 -25 5 -45 10 -45 6 0 10 20 10 45 0 25 -4 45 -10 45 -5 0 -10 -20 -10 -45z"/>
<path d="M2780 1670 c0 -5 5 -10 10 -10 6 0 10 5 10 10 0 6 -4 10 -10 10 -5 0 -10 -4 -10 -10z"/>
<path d="M9100 1670 c0 -5 5 -10 10 -10 6 0 10 5 10 10 0 6 -4 10 -10 10 -5 0 -10 -4 -10 -10z"/>
<path d="M10300 1640 c0 -22 5 -40 10 -40 6 0 10 18 10 40 0 22 -4 40 -10 40 -5 0 -10 -18 -10 -40z"/>
<path d="M6178 1642 c-4 -12 -12 -21 -19 -20 -8 2 -15 -6 -16 -17 -4 -27 19 -106 32 -108 13 -3 26 103 16 139 l-7 29 -6 -23z"/>
<path d="M17400 1635 c0 -8 5 -15 10 -15 6 0 10 7 10 15 0 8 -4 15 -10 15 -5 0 -10 -7 -10 -15z"/>
<path d="M2760 1630 c0 -5 5 -10 10 -10 6 0 10 5 10 10 0 6 -4 10 -10 10 -5 0 -10 -4 -10 -10z"/>
<path d="M3180 1620 c0 -11 5 -20 10 -20 6 0 10 9 10 20 0 11 -4 20 -10 20 -5 0 -10 -9 -10 -20z"/>
<path d="M7140 1630 c0 -5 5 -10 10 -10 6 0 10 5 10 10 0 6 -4 10 -10 10 -5 0 -10 -4 -10 -10z"/>
<path d="M9080 1630 c0 -5 5 -10 10 -10 6 0 10 5 10 10 0 6 -4 10 -10 10 -5 0 -10 -4 -10 -10z"/>
<path d="M9500 1620 c0 -11 5 -20 10 -20 6 0 10 9 10 20 0 11 -4 20 -10 20 -5 0 -10 -9 -10 -20z"/>
<path d="M14680 1600 c0 -16 5 -30 10 -30 6 0 10 14 10 30 0 17 -4 30 -10 30 -5 0 -10 -13 -10 -30z"/>
<path d="M8760 1590 c0 -5 5 -10 10 -10 6 0 10 5 10 10 0 6 -4 10 -10 10 -5 0 -10 -4 -10 -10z"/>
<path d="M2740 1580 c0 -5 5 -10 10 -10 6 0 10 5 10 10 0 6 -4 10 -10 10 -5 0 -10 -4 -10 -10z"/>
<path d="M9060 1580 c0 -5 5 -10 10 -10 6 0 10 5 10 10 0 6 -4 10 -10 10 -5 0 -10 -4 -10 -10z"/>
<path d="M17380 1575 c0 -8 5 -15 10 -15 6 0 10 7 10 15 0 8 -4 15 -10 15 -5 0 -10 -7 -10 -15z"/>
<path d="M15340 1545 c0 -19 5 -35 10 -35 6 0 10 16 10 35 0 19 -4 35 -10 35 -5 0 -10 -16 -10 -35z"/>
<path d="M8740 1550 c0 -5 5 -10 10 -10 6 0 10 5 10 10 0 6 -4 10 -10 10 -5 0 -10 -4 -10 -10z"/>
<path d="M12220 1550 c0 -5 5 -10 10 -10 6 0 10 5 10 10 0 6 -4 10 -10 10 -5 0 -10 -4 -10 -10z"/>
<path d="M10881 1531 c9 -14 22 -27 29 -29 21 -7 6 20 -21 37 l-24 16 16 -24z"/>
<path d="M2720 1530 c0 -5 5 -10 10 -10 6 0 10 5 10 10 0 6 -4 10 -10 10 -5 0 -10 -4 -10 -10z"/>
<path d="M3160 1525 c0 -8 5 -15 10 -15 6 0 10 7 10 15 0 8 -4 15 -10 15 -5 0 -10 -7 -10 -15z"/>
<path d="M9040 1529 c0 -5 5 -7 10 -4 6 3 10 8 10 11 0 2 -4 4 -10 4 -5 0 -10 -5 -10 -11z"/>
<path d="M9480 1525 c0 -8 5 -15 10 -15 6 0 10 7 10 15 0 8 -4 15 -10 15 -5 0 -10 -7 -10 -15z"/>
<path d="M14700 1511 c0 -17 5 -31 10 -31 6 0 10 11 10 24 0 14 -4 28 -10 31 -6 4 -10 -7 -10 -24z"/>
<path d="M5620 1510 c0 -11 5 -20 10 -20 6 0 10 9 10 20 0 11 -4 20 -10 20 -5 0 -10 -9 -10 -20z"/>
<path d="M4000 1425 c0 -57 4 -95 10 -95 6 0 10 38 10 95 0 57 -4 95 -10 95 -6 0 -10 -38 -10 -95z"/>
<path d="M8727 1514 c-4 -4 -7 -14 -7 -23 0 -11 3 -12 11 -4 6 6 10 16 7 23 -2 6 -7 8 -11 4z"/>
<path d="M17360 1510 c0 -5 5 -10 10 -10 6 0 10 5 10 10 0 6 -4 10 -10 10 -5 0 -10 -4 -10 -10z"/>
<path d="M10280 1454 c0 -34 4 -53 10 -49 6 3 10 28 10 56 0 27 -4 49 -10 49 -5 0 -10 -25 -10 -56z"/>
<path d="M2700 1490 c0 -5 5 -10 10 -10 6 0 10 5 10 10 0 6 -4 10 -10 10 -5 0 -10 -4 -10 -10z"/>
<path d="M9020 1490 c0 -5 5 -10 10 -10 6 0 10 5 10 10 0 6 -4 10 -10 10 -5 0 -10 -4 -10 -10z"/>
<path d="M15320 1450 c0 -16 5 -30 10 -30 6 0 10 14 10 30 0 17 -4 30 -10 30 -5 0 -10 -13 -10 -30z"/>
<path d="M1760 1216 c0 -157 4 -246 10 -246 6 0 10 86 10 239 0 149 -4 242 -10 246 -7 4 -10 -78 -10 -239z"/>
<path d="M2680 1450 c0 -5 5 -10 10 -10 6 0 10 5 10 10 0 6 -4 10 -10 10 -5 0 -10 -4 -10 -10z"/>
<path d="M8700 1435 c0 -14 5 -25 10 -25 6 0 10 11 10 25 0 14 -4 25 -10 25 -5 0 -10 -11 -10 -25z"/>
<path d="M17340 1445 c0 -8 5 -15 10 -15 6 0 10 7 10 15 0 8 -4 15 -10 15 -5 0 -10 -7 -10 -15z"/>
<path d="M14720 1430 c0 -11 5 -20 10 -20 6 0 10 9 10 20 0 11 -4 20 -10 20 -5 0 -10 -9 -10 -20z"/>
<path d="M2660 1410 c0 -5 5 -10 10 -10 6 0 10 5 10 10 0 6 -4 10 -10 10 -5 0 -10 -4 -10 -10z"/>
<path d="M5640 1375 c0 -25 5 -45 10 -45 6 0 10 20 10 45 0 25 -4 45 -10 45 -5 0 -10 -20 -10 -45z"/>
<path d="M15300 1371 c0 -17 -4 -33 -10 -36 -5 -3 -10 -17 -10 -30 0 -13 -4 -27 -10 -30 -5 -3 -10 -15 -10 -26 0 -10 5 -19 10 -19 6 0 10 9 10 19 0 11 5 23 10 26 6 3 10 19 10 35 0 16 5 32 10 35 6 3 10 17 10 31 0 13 -4 24 -10 24 -5 0 -10 -13 -10 -29z"/>
<path d="M2360 1355 c0 -19 5 -35 10 -35 6 0 10 16 10 35 0 19 -4 35 -10 35 -5 0 -10 -16 -10 -35z"/>
<path d="M8676 1343 c-17 -131 -18 -184 -5 -215 27 -65 66 -83 113 -53 27 18 101 125 87 125 -6 0 -24 -20 -40 -44 -34 -49 -84 -76 -110 -59 -13 8 -16 34 -19 152 -3 141 -15 184 -26 94z"/>
<path d="M17320 1374 c0 -8 5 -12 10 -9 6 3 10 10 10 16 0 5 -4 9 -10 9 -5 0 -10 -7 -10 -16z"/>
<path d="M2636 1363 c-6 -19 -30 -63 -59 -107 -20 -29 -21 -36 -7 -36 6 0 10 6 10 14 0 7 7 19 15 26 13 11 33 46 63 113 2 4 -1 7 -6 7 -5 0 -12 -8 -16 -17z"/>
<path d="M14740 1360 c0 -11 5 -20 10 -20 6 0 10 9 10 20 0 11 -4 20 -10 20 -5 0 -10 -9 -10 -20z"/>
<path d="M4860 1329 c0 -11 5 -17 10 -14 6 3 10 13 10 21 0 8 -4 14 -10 14 -5 0 -10 -9 -10 -21z"/>
<path d="M8940 1329 c0 -5 5 -7 10 -4 6 3 10 8 10 11 0 2 -4 4 -10 4 -5 0 -10 -5 -10 -11z"/>
<path d="M6520 1311 c0 -6 5 -13 10 -16 6 -3 10 1 10 9 0 9 -4 16 -10 16 -5 0 -10 -4 -10 -9z"/>
<path d="M14760 1300 c0 -11 5 -20 10 -20 6 0 10 9 10 20 0 11 -4 20 -10 20 -5 0 -10 -9 -10 -20z"/>
<path d="M17300 1310 c0 -5 5 -10 10 -10 6 0 10 5 10 10 0 6 -4 10 -10 10 -5 0 -10 -4 -10 -10z"/>
<path d="M2340 1215 c0 -42 6 -85 13 -97 36 -63 73 -73 122 -34 39 31 27 43 -16 17 -43 -26 -45 -26 -74 5 -22 24 -25 36 -25 105 0 46 -4 79 -10 79 -6 0 -10 -32 -10 -75z"/>
<path d="M5660 1260 c0 -16 5 -30 10 -30 6 0 10 14 10 30 0 17 -4 30 -10 30 -5 0 -10 -13 -10 -30z"/>
<path d="M3986 1254 c-10 -27 -7 -334 4 -334 6 0 10 65 10 175 0 96 -2 175 -4 175 -2 0 -7 -7 -10 -16z"/>
<path d="M10260 1199 c0 -44 4 -68 10 -64 6 3 10 35 10 71 0 36 -4 64 -10 64 -6 0 -10 -30 -10 -71z"/>
<path d="M11740 1250 c0 -5 5 -10 10 -10 6 0 10 5 10 10 0 6 -4 10 -10 10 -5 0 -10 -4 -10 -10z"/>
<path d="M14780 1250 c0 -5 5 -10 10 -10 6 0 10 5 10 10 0 6 -4 10 -10 10 -5 0 -10 -4 -10 -10z"/>
<path d="M17280 1240 c0 -5 5 -10 10 -10 6 0 10 5 10 10 0 6 -4 10 -10 10 -5 0 -10 -4 -10 -10z"/>
<path d="M6140 1175 c0 -30 5 -55 10 -55 6 0 10 25 10 55 0 30 -4 55 -10 55 -5 0 -10 -25 -10 -55z"/>
<path d="M14800 1206 c0 -9 5 -16 10 -16 6 0 10 4 10 9 0 6 -4 13 -10 16 -5 3 -10 -1 -10 -9z"/>
<path d="M15240 1195 c0 -8 5 -15 10 -15 6 0 10 7 10 15 0 8 -4 15 -10 15 -5 0 -10 -7 -10 -15z"/>
<path d="M2532 1188 c-7 -7 -12 -16 -12 -20 0 -15 15 -8 28 12 13 22 3 27 -16 8z"/>
<path d="M3560 1130 c0 -40 4 -70 10 -70 6 0 10 30 10 70 0 40 -4 70 -10 70 -6 0 -10 -30 -10 -70z"/>
<path d="M5680 1175 c0 -14 5 -25 10 -25 6 0 10 11 10 25 0 14 -4 25 -10 25 -5 0 -10 -11 -10 -25z"/>
<path d="M4440 1156 c0 -19 -4 -38 -10 -41 -12 -7 -14 -35 -2 -35 12 0 32 52 32 82 0 15 -4 28 -10 28 -5 0 -10 -15 -10 -34z"/>
<path d="M6620 1173 c1 -15 27 -43 33 -36 15 15 6 43 -13 43 -11 0 -20 -3 -20 -7z"/>
<path d="M14820 1160 c0 -5 5 -10 10 -10 6 0 10 5 10 10 0 6 -4 10 -10 10 -5 0 -10 -4 -10 -10z"/>
<path d="M6498 1149 c-17 -10 -26 -49 -10 -49 9 1 62 47 62 55 0 9 -34 5 -52 -6z"/>
<path d="M15220 1150 c0 -5 5 -10 10 -10 6 0 10 5 10 10 0 6 -4 10 -10 10 -5 0 -10 -4 -10 -10z"/>
<path d="M11815 1120 c-8 -13 4 -50 16 -50 5 0 9 14 9 30 0 30 -13 40 -25 20z"/>
<path d="M5700 1100 c0 -11 5 -20 10 -20 6 0 10 9 10 20 0 11 -4 20 -10 20 -5 0 -10 -9 -10 -20z"/>
<path d="M13240 1110 c0 -5 9 -10 20 -10 11 0 20 5 20 10 0 6 -9 10 -20 10 -11 0 -20 -4 -20 -10z"/>
<path d="M15200 1110 c0 -5 5 -10 10 -10 6 0 10 5 10 10 0 6 -4 10 -10 10 -5 0 -10 -4 -10 -10z"/>
<path d="M2657 1096 c-8 -20 3 -86 14 -86 5 0 9 23 9 50 0 48 -12 66 -23 36z"/>
<path d="M8977 1096 c-8 -20 3 -86 14 -86 5 0 9 23 9 50 0 48 -12 66 -23 36z"/>
<path d="M13840 1090 c0 -5 7 -10 15 -10 8 0 15 5 15 10 0 6 -7 10 -15 10 -8 0 -15 -4 -15 -10z"/>
<path d="M14860 1090 c0 -5 5 -10 10 -10 6 0 10 5 10 10 0 6 -4 10 -10 10 -5 0 -10 -4 -10 -10z"/>
<path d="M6120 1045 c0 -14 5 -25 10 -25 6 0 10 11 10 25 0 14 -4 25 -10 25 -5 0 -10 -11 -10 -25z"/>
<path d="M9840 1015 c0 -30 5 -55 10 -55 6 0 10 25 10 55 0 30 -4 55 -10 55 -5 0 -10 -25 -10 -55z"/>
<path d="M5720 1040 c0 -11 5 -20 10 -20 6 0 10 9 10 20 0 11 -4 20 -10 20 -5 0 -10 -9 -10 -20z"/>
<path d="M8200 990 c0 -16 5 -30 10 -30 6 0 10 14 10 30 0 17 -4 30 -10 30 -5 0 -10 -13 -10 -30z"/>
<path d="M17220 1000 c0 -5 5 -10 10 -10 6 0 10 5 10 10 0 6 -4 10 -10 10 -5 0 -10 -4 -10 -10z"/>
<path d="M5316 984 c-4 -11 -1 -14 11 -12 9 2 18 9 21 16 6 18 -25 15 -32 -4z"/>
<path d="M5740 985 c0 -8 5 -15 10 -15 6 0 10 7 10 15 0 8 -4 15 -10 15 -5 0 -10 -7 -10 -15z"/>
<path d="M3080 722 c0 -296 4 -322 53 -322 15 0 27 5 27 10 0 6 -8 10 -19 10 -40 0 -43 18 -43 300 0 157 -3 270 -9 270 -5 0 -9 -112 -9 -268z"/>
<path d="M9400 722 c0 -296 4 -322 53 -322 15 0 27 5 27 10 0 6 -8 10 -19 10 -40 0 -43 18 -43 300 0 157 -3 270 -9 270 -5 0 -9 -112 -9 -268z"/>
<path d="M6100 960 c0 -11 5 -20 10 -20 6 0 10 9 10 20 0 11 -4 20 -10 20 -5 0 -10 -9 -10 -20z"/>
<path d="M14980 970 c0 -5 5 -10 10 -10 6 0 10 5 10 10 0 6 -4 10 -10 10 -5 0 -10 -4 -10 -10z"/>
<path d="M16350 950 c0 -5 23 -10 50 -10 28 0 50 5 50 10 0 6 -22 10 -50 10 -27 0 -50 -4 -50 -10z"/>
<path d="M5760 940 c0 -11 34 -73 61 -112 11 -14 19 -30 19 -35 0 -21 77 -73 108 -73 49 0 132 79 132 124 0 8 5 18 10 21 6 3 10 15 10 26 0 10 -4 19 -10 19 -5 0 -10 -6 -10 -13 0 -27 -53 -118 -80 -137 -34 -24 -63 -25 -96 -3 -28 18 -92 108 -115 161 -13 31 -29 43 -29 22z"/>
<path d="M8180 929 c0 -5 5 -7 10 -4 6 3 10 8 10 11 0 2 -4 4 -10 4 -5 0 -10 -5 -10 -11z"/>
<path d="M10600 930 c0 -5 5 -10 10 -10 6 0 10 5 10 10 0 6 -4 10 -10 10 -5 0 -10 -4 -10 -10z"/>
<path d="M11212 900 c-7 -11 -9 -20 -4 -20 10 0 32 22 32 32 0 15 -15 8 -28 -12z"/>
<path d="M1805 870 c3 -5 8 -10 11 -10 2 0 4 5 4 10 0 6 -5 10 -11 10 -5 0 -7 -4 -4 -10z"/>
<path d="M10260 865 c0 -8 5 -15 10 -15 6 0 10 7 10 15 0 8 -4 15 -10 15 -5 0 -10 -7 -10 -15z"/>
<path d="M10560 870 c0 -5 5 -10 10 -10 6 0 10 5 10 10 0 6 -4 10 -10 10 -5 0 -10 -4 -10 -10z"/>
<path d="M15700 850 c0 -11 5 -20 10 -20 6 0 10 9 10 20 0 11 -4 20 -10 20 -5 0 -10 -9 -10 -20z"/>
<path d="M4440 852 c0 -10 22 -32 32 -32 5 0 3 9 -4 20 -13 20 -28 27 -28 12z"/>
<path d="M4891 843 c10 -16 23 -23 46 -23 18 0 33 5 33 10 0 6 -15 10 -33 10 -18 0 -39 6 -46 13 -11 9 -10 7 0 -10z"/>
<path d="M4990 850 c0 -5 5 -10 10 -10 6 0 10 5 10 10 0 6 -4 10 -10 10 -5 0 -10 -4 -10 -10z"/>
<path d="M8260 810 c-6 -12 -10 -24 -7 -26 8 -9 58 19 54 30 -7 20 -36 17 -47 -4z"/>
<path d="M10510 805 c-7 -9 -10 -18 -7 -22 8 -7 37 15 37 28 0 14 -16 11 -30 -6z"/>
<path d="M4203 756 c-26 -24 -45 -47 -40 -52 8 -8 49 27 79 69 27 38 17 34 -39 -17z"/>
<path d="M6680 791 c0 -5 7 -11 14 -14 10 -4 13 -1 9 9 -6 15 -23 19 -23 5z"/>
<path d="M7880 740 c0 -33 4 -60 10 -60 6 0 10 27 10 60 0 33 -4 60 -10 60 -6 0 -10 -27 -10 -60z"/>
<path d="M3580 770 c0 -5 5 -10 10 -10 6 0 10 5 10 10 0 6 -4 10 -10 10 -5 0 -10 -4 -10 -10z"/>
<path d="M10280 765 c0 -8 5 -15 10 -15 6 0 10 7 10 15 0 8 -4 15 -10 15 -5 0 -10 -7 -10 -15z"/>
<path d="M14060 770 c0 -5 5 -10 10 -10 6 0 10 5 10 10 0 6 -4 10 -10 10 -5 0 -10 -4 -10 -10z"/>
<path d="M13470 750 c-10 -6 48 -10 172 -10 114 0 189 4 193 10 8 13 -345 13 -365 0z"/>
<path d="M8001 694 c-24 -25 -41 -48 -38 -51 6 -5 97 80 97 91 0 14 -18 2 -59 -40z"/>
<path d="M13170 730 c0 -6 35 -10 85 -10 50 0 85 4 85 10 0 6 -35 10 -85 10 -50 0 -85 -4 -85 -10z"/>
<path d="M9860 704 c0 -9 7 -14 17 -12 25 5 28 28 4 28 -12 0 -21 -6 -21 -16z"/>
<path d="M11130 681 c-19 -16 -32 -33 -28 -37 4 -4 14 -1 22 5 20 17 41 4 25 -15 -6 -8 -7 -14 -2 -14 12 0 43 54 43 74 0 24 -21 19 -60 -13z"/>
<path d="M11026 587 c-26 -34 -35 -77 -16 -77 6 0 10 7 10 15 0 8 9 31 20 51 27 48 19 54 -14 11z"/>
<path d="M11120 587 c0 -7 -13 -26 -30 -42 -30 -29 -38 -45 -20 -45 9 0 70 82 70 94 0 3 -4 6 -10 6 -5 0 -10 -6 -10 -13z"/>
<path d="M3250 525 c-7 -9 -10 -18 -7 -22 8 -7 37 15 37 28 0 14 -16 11 -30 -6z"/>
<path d="M9572 528 c-7 -7 -12 -16 -12 -20 0 -15 15 -8 28 12 13 22 3 27 -16 8z"/>
<path d="M10860 515 c0 -8 5 -15 10 -15 6 0 10 7 10 15 0 8 -4 15 -10 15 -5 0 -10 -7 -10 -15z"/>
</g>
</g>
  <g id="id1:id1" transform="matrix(1.25,0,0,1.25,0.0,0.0)"><g transform="translate(0.000000,139.200000) scale(0.040000,-0.040000)" fill="#030303" stroke="none">
<path d="M16155 3312 c-69 -24 -113 -60 -221 -180 -51 -56 -107 -114 -123 -128 -50 -41 -101 -119 -101 -151 0 -34 31 -79 60 -88 15 -5 39 7 85 40 36 25 70 43 75 40 11 -7 12 -1416 1 -1705 l-6 -165 -87 -10 c-110 -13 -127 -27 -135 -111 -7 -72 13 -126 54 -147 22 -12 41 -13 88 -5 33 5 92 14 130 19 69 10 130 20 243 39 31 5 89 14 127 21 150 25 205 57 205 119 0 42 -24 54 -114 60 l-81 5 0 405 c1 420 12 702 54 1310 6 74 15 229 20 343 12 229 10 242 -42 281 -39 29 -161 33 -232 8z"/>
<path d="M1200 3282 c-71 -34 -220 -182 -285 -282 -27 -41 -72 -118 -99 -170 -28 -52 -56 -95 -61 -95 -6 0 -14 23 -18 50 -5 28 -17 79 -29 115 -47 148 -105 223 -212 275 -61 29 -84 35 -140 35 -75 0 -108 -15 -132 -61 -19 -39 -18 -54 12 -115 30 -62 48 -181 63 -434 14 -219 14 -819 1 -1173 -16 -426 2 -581 78 -660 97 -103 278 -103 348 0 16 24 23 59 32 150 11 114 22 619 26 1183 l2 275 61 125 c34 69 82 157 108 195 56 83 176 209 221 230 40 19 93 20 100 1 3 -8 0 -99 -6 -203 -11 -182 -17 -249 -40 -438 -36 -293 -46 -400 -60 -600 -29 -420 -24 -659 16 -783 56 -173 207 -308 382 -341 78 -15 160 -1 217 38 91 61 138 207 80 248 -63 44 -67 49 -80 113 -18 83 -19 267 -3 972 15 680 9 768 -65 1001 -57 182 -139 296 -249 350 -80 38 -188 38 -268 -1z"/>
<path d="M13531 3225 c-190 -53 -371 -164 -537 -329 -87 -88 -118 -126 -147 -185 -20 -40 -37 -83 -37 -94 0 -33 40 -87 81 -107 73 -38 135 -21 183 49 83 120 262 235 501 321 74 27 105 33 176 34 99 1 119 -9 119 -61 0 -83 -97 -228 -609 -913 -561 -750 -568 -760 -559 -874 9 -107 104 -258 204 -325 44 -29 54 -31 133 -31 47 0 113 4 145 10 32 5 239 14 460 21 328 9 406 14 431 26 50 26 150 134 162 176 15 49 0 97 -46 144 -39 41 -123 81 -186 90 -39 5 -44 3 -69 -30 -40 -52 -91 -61 -290 -53 -249 9 -366 18 -371 27 -8 12 56 106 239 349 82 109 310 458 386 590 131 228 211 410 261 595 8 29 14 98 14 165 -1 127 -9 152 -83 253 -114 157 -330 216 -561 152z"/>
<path d="M14810 3178 c-180 -49 -249 -82 -336 -162 -110 -100 -203 -251 -257 -416 -54 -167 -67 -281 -67 -596 0 -349 16 -458 99 -666 109 -274 307 -494 514 -569 44 -16 80 -19 230 -19 l177 0 63 29 c171 78 318 260 390 481 43 134 48 158 78 360 18 119 18 649 1 755 -44 267 -106 429 -222 583 -88 118 -184 186 -304 217 -65 17 -308 19 -366 3z m294 -322 c124 -61 221 -187 261 -341 52 -200 43 -660 -20 -970 -54 -266 -145 -486 -230 -553 -32 -26 -92 -29 -134 -8 -73 38 -158 175 -215 346 -43 132 -74 274 -108 500 -20 134 -17 551 6 670 37 200 95 324 171 368 35 20 51 22 125 20 70 -2 95 -8 144 -32z"/>
<path d="M17428 3164 c-6 -5 -94 -14 -368 -35 -81 -6 -226 -8 -330 -5 -102 3 -190 3 -196 -1 -22 -16 -44 -73 -44 -118 0 -89 103 -247 185 -281 29 -12 41 -11 106 7 41 11 94 27 119 36 43 15 114 34 250 68 233 58 337 69 334 35 -1 -8 -149 -384 -329 -835 -180 -451 -345 -867 -367 -925 -22 -58 -48 -127 -59 -155 -35 -93 -35 -108 2 -139 42 -36 125 -76 217 -105 62 -19 77 -21 110 -11 53 17 106 54 139 96 24 32 29 50 35 128 4 50 11 109 16 131 12 46 49 185 63 233 5 17 13 47 18 65 5 17 19 62 30 100 12 37 30 95 40 130 26 84 114 355 221 677 156 469 190 592 190 680 0 76 -21 120 -89 183 l-50 47 -119 0 c-65 0 -121 -3 -124 -6z"/>
<path d="M10274 3056 c-62 -20 -148 -72 -183 -111 -33 -38 -46 -86 -38 -145 9 -70 -19 -326 -62 -565 -5 -27 -15 -79 -21 -115 -67 -368 -103 -664 -119 -975 -5 -93 -13 -182 -19 -196 -17 -43 -181 -320 -238 -400 -30 -42 -70 -91 -90 -108 -77 -68 -93 -27 -93 249 -1 267 13 412 70 743 33 190 74 348 117 447 28 65 37 98 37 141 -1 96 -63 164 -176 194 -42 11 -58 11 -98 -1 -54 -16 -72 -33 -94 -86 l-15 -36 -84 30 c-76 27 -95 30 -223 31 l-140 2 -68 -32 c-115 -55 -283 -238 -379 -413 -42 -76 -100 -221 -126 -310 -20 -72 -24 -112 -28 -262 l-3 -177 -33 -53 c-83 -138 -189 -258 -227 -258 -40 0 -45 23 -53 264 -18 542 -29 805 -38 871 -25 201 -62 307 -135 393 -121 140 -384 56 -575 -183 -54 -67 -70 -73 -70 -26 0 125 -132 223 -303 223 -60 0 -73 -3 -94 -24 l-24 -25 12 -69 c12 -68 8 -401 -8 -637 l-6 -98 -34 -14 c-72 -30 -67 -42 -64 180 2 154 -1 218 -13 277 -34 162 -79 261 -157 340 -67 67 -106 81 -225 77 l-82 -3 -34 44 c-56 73 -89 90 -177 90 -70 0 -83 -3 -170 -47 -74 -37 -110 -63 -176 -127 -135 -132 -203 -263 -255 -485 -15 -66 -16 -350 0 -401 21 -72 14 -106 -42 -188 -109 -157 -207 -242 -280 -242 -28 0 -41 6 -52 23 -29 47 -28 316 4 587 25 211 31 284 36 410 5 128 4 137 -18 175 -13 21 -41 52 -63 67 -38 26 -47 27 -149 28 l-108 0 -39 -39 c-39 -39 -50 -76 -28 -98 12 -12 7 -159 -10 -268 -21 -136 -46 -350 -60 -499 -8 -85 -15 -110 -49 -180 -45 -89 -118 -203 -177 -273 -65 -77 -133 -104 -168 -65 -78 87 -74 577 13 1270 26 209 30 242 40 312 17 129 26 175 33 188 6 8 35 12 85 12 136 0 182 26 182 102 0 53 -20 61 -142 56 -63 -2 -100 1 -100 7 -1 6 2 57 6 114 6 94 5 107 -15 148 -25 51 -84 99 -157 125 -131 48 -193 -2 -212 -169 -17 -147 -23 -178 -32 -190 -5 -6 -52 -14 -106 -18 -140 -9 -144 -11 -140 -88 l3 -62 70 -8 c119 -13 140 -20 138 -42 -1 -18 -8 -56 -34 -200 -70 -389 -102 -651 -119 -985 -6 -118 -15 -231 -21 -250 -11 -44 -169 -323 -256 -452 -35 -53 -83 -113 -105 -133 -81 -74 -97 -35 -97 245 -1 267 13 412 70 743 33 190 74 348 117 447 76 175 29 291 -138 335 -44 12 -58 11 -99 -1 -54 -16 -72 -33 -94 -86 l-15 -36 -84 28 c-169 56 -318 55 -438 -3 -80 -39 -231 -186 -304 -296 -162 -243 -255 -566 -225 -773 13 -91 51 -185 93 -236 16 -18 61 -48 101 -67 144 -70 258 -40 411 107 45 44 102 108 125 144 24 35 45 62 47 59 3 -3 6 -100 7 -217 2 -237 9 -281 70 -404 44 -90 107 -161 177 -199 44 -24 65 -30 118 -29 72 0 115 18 207 85 76 56 217 242 312 412 18 31 36 55 41 52 4 -2 17 -30 28 -62 32 -87 94 -184 138 -215 l39 -27 120 -1 120 0 54 31 c68 39 226 191 298 287 30 39 58 70 62 68 4 -3 20 -37 35 -75 31 -80 91 -150 153 -177 27 -12 65 -18 128 -18 84 0 95 2 166 38 120 59 210 141 368 336 38 47 45 45 84 -28 36 -68 97 -140 181 -213 121 -106 228 -149 370 -149 224 0 395 152 516 458 24 59 48 112 54 118 15 16 115 46 127 39 5 -4 7 -32 3 -69 -8 -74 10 -225 33 -277 48 -114 284 -119 377 -9 39 47 46 110 46 401 l0 270 53 117 c29 64 76 151 104 192 65 96 155 183 186 178 l22 -3 -2 -115 c-1 -63 -7 -144 -12 -180 -14 -96 -24 -663 -13 -740 31 -213 140 -402 273 -475 76 -42 163 -42 232 -1 60 35 186 154 252 236 28 34 61 76 75 92 l25 30 60 -39 c115 -75 204 -84 313 -32 79 38 211 161 273 255 24 35 45 62 47 59 3 -3 6 -100 7 -217 2 -237 9 -281 70 -404 60 -123 150 -204 260 -233 45 -12 89 -2 165 38 73 38 216 192 304 326 43 66 82 124 87 129 4 5 24 -24 44 -64 65 -129 161 -200 269 -200 220 1 471 265 728 766 113 221 97 212 183 104 109 -138 135 -197 135 -305 l0 -84 -62 -48 c-93 -72 -235 -211 -269 -264 -54 -85 -48 -146 25 -227 60 -66 107 -82 240 -82 123 0 193 13 281 54 124 56 260 188 318 306 57 115 69 174 66 330 l-2 135 73 60 c164 133 330 319 330 369 0 21 -33 29 -83 21 -30 -6 -50 -17 -72 -42 -92 -106 -146 -159 -218 -213 -43 -33 -83 -60 -87 -60 -5 0 -19 15 -31 33 -93 132 -249 283 -416 400 -387 271 -453 349 -369 433 30 30 41 34 84 34 77 0 132 -59 132 -142 0 -45 48 -88 99 -88 59 0 88 17 106 63 14 36 14 44 0 94 -17 59 -79 136 -142 174 -104 65 -256 79 -357 35 -71 -32 -142 -104 -178 -183 -69 -153 -19 -322 159 -541 24 -29 43 -57 43 -62 0 -13 -170 -353 -228 -455 -105 -186 -208 -323 -261 -344 -70 -30 -103 4 -127 129 -35 183 5 692 106 1345 6 39 15 100 20 138 6 37 15 100 21 140 36 240 53 427 44 483 -8 56 -53 110 -103 124 -45 12 -46 12 -98 -4z m-4343 -949 c0 -4 -20 -47 -43 -95 l-42 -87 1 -110 c1 -130 25 -213 100 -359 36 -69 67 -111 127 -170 l79 -80 -13 -70 c-47 -275 -105 -396 -191 -396 -31 0 -43 7 -79 46 -83 90 -163 302 -211 559 -18 95 -18 412 0 485 38 154 119 255 226 281 34 8 47 7 46 -4z m228 -229 c15 -113 19 -277 6 -280 -20 -5 -57 315 -41 357 12 31 24 4 35 -77z m-3285 53 c18 -28 -193 -508 -304 -691 -68 -114 -116 -162 -155 -158 -40 4 -55 37 -55 126 0 184 93 426 233 602 61 76 153 130 224 130 28 0 54 -4 57 -9z m6320 0 c11 -18 -124 -351 -216 -535 -57 -114 -134 -235 -176 -278 -152 -158 -166 194 -19 487 108 217 233 334 354 335 28 0 54 -4 57 -9z m1960 -1269 c8 -13 -35 -89 -71 -124 -27 -27 -37 -30 -51 -21 -27 17 -15 44 44 101 55 52 68 59 78 44z"/>
<path d="M4680 2851 c-45 -14 -84 -39 -119 -75 -44 -46 -54 -122 -22 -173 40 -63 223 -125 306 -102 54 15 101 52 125 98 16 33 17 44 8 77 -21 70 -72 139 -120 163 -46 22 -127 27 -178 12z"/>
</g>
</g>
</svg>
