<svg xmlns="http://www.w3.org/2000/svg" version="1.0" width="5116.000000pt" height="6616.000000pt" viewBox="0 0 5116.000000 6616.000000" preserveAspectRatio="xMidYMid meet">
  <g transform="translate(0.000000,6616.000000) scale(0.100000,-0.100000)" stroke="none">
    <path stroke="none" d="M0 33080 l0 -33080 25580 0 25580 0 0 33080 0 33080 -25580 0 -25580 0 0 -33080z" fill="#201e1f" id="201e1f-000001"/>
    <path stroke="none" d="M24686 40645 l35 -14 -3 -93 -3 -93 -31 -3 c-18 -2 -51 6 -75 16 -108 48 -211 56 -260 21 l-29 -21 3 -511 c2 -393 6 -521 16 -552 21 -64 25 -129 8 -143 -10 -9 -49 -12 -123 -10 -107 3 -109 3 -122 30 -10 22 -10 34 2 70 29 88 36 226 36 669 0 434 -1 446 -20 467 -31 33 -132 31 -225 -4 -106 -40 -115 -40 -136 -13 -22 28 -26 118 -7 152 24 47 20 46 471 47 353 0 434 -3 463 -15z" fill="#ffffff" id="ffffff-000001"/>
    <path stroke="none" d="M25241 40621 c17 -21 19 -43 19 -257 0 -199 2 -238 16 -259 l16 -25 263 0 c198 0 265 3 273 13 6 7 13 117 17 257 5 187 10 250 21 268 14 21 20 23 112 20 l97 -3 3 -34 c2 -18 -6 -56 -17 -85 -21 -50 -21 -63 -18 -586 2 -451 5 -544 18 -592 14 -50 14 -60 2 -78 -12 -17 -25 -20 -96 -20 -45 0 -87 4 -94 8 -28 18 -33 70 -33 362 0 228 -3 301 -12 307 -7 4 -128 9 -268 11 -239 3 -258 2 -279 -15 -23 -19 -24 -20 -30 -334 -3 -173 -10 -320 -14 -326 -6 -9 -37 -13 -98 -13 -87 0 -90 1 -99 26 -10 26 -5 73 22 194 19 84 18 961 -1 1015 -7 22 -16 68 -18 102 -5 72 -5 73 106 70 63 -2 76 -6 92 -26z" fill="#ffffff" id="ffffff-000002"/>
    <path stroke="none" d="M27364 40615 c21 -32 22 -133 0 -163 -13 -19 -22 -22 -52 -16 -20 3 -57 15 -82 26 -40 19 -70 22 -260 26 -118 2 -231 0 -250 -5 l-35 -9 -3 -183 c-2 -127 1 -188 9 -197 19 -23 201 -19 269 6 66 24 78 25 102 3 15 -13 18 -31 18 -100 0 -46 -5 -93 -10 -104 -14 -25 -55 -25 -115 1 -37 16 -69 20 -149 20 -66 0 -106 -4 -114 -12 -9 -9 -12 -79 -12 -255 l0 -243 36 -15 c28 -11 78 -15 215 -15 182 0 241 8 317 41 23 10 58 19 77 19 32 0 34 -2 41 -46 8 -56 0 -132 -15 -147 -9 -9 -130 -12 -446 -12 -513 0 -481 -7 -445 102 22 66 23 82 27 553 4 459 3 509 -23 683 -11 72 -42 67 445 67 l439 0 16 -25z" fill="#ffffff" id="ffffff-000003"/>
    <path stroke="none" d="M25328 38028 c14 -14 15 -63 2 -120 -56 -249 -57 -265 -30 -488 6 -47 15 -168 21 -270 5 -102 14 -221 19 -265 5 -44 14 -165 20 -270 6 -104 15 -226 20 -270 6 -44 14 -163 20 -265 10 -187 21 -283 36 -332 10 -29 72 -118 129 -183 43 -48 44 -83 2 -103 -18 -9 -88 -16 -193 -19 -162 -6 -165 -6 -189 17 -21 20 -25 32 -25 86 0 62 -21 119 -59 162 -23 24 -62 73 -91 112 -20 27 -87 112 -213 270 -19 24 -98 124 -197 250 -112 142 -110 139 -140 176 -14 17 -36 45 -50 64 -14 18 -63 81 -110 140 -47 59 -98 125 -115 146 -16 21 -41 52 -55 69 -14 16 -46 57 -70 89 -25 33 -69 86 -99 118 -45 49 -56 56 -68 46 -17 -14 -14 -98 7 -283 6 -49 15 -173 20 -275 6 -102 15 -221 20 -265 6 -44 14 -163 19 -265 6 -102 17 -248 25 -325 8 -77 15 -201 16 -275 0 -125 -1 -136 -20 -148 -25 -15 -141 -31 -231 -32 -54 0 -69 4 -84 20 -17 19 -18 26 -6 83 6 34 16 87 20 117 5 30 14 83 20 117 8 45 8 92 0 175 -6 62 -14 192 -19 288 -5 96 -14 216 -20 265 -6 50 -15 171 -20 270 -6 99 -14 218 -20 265 -5 47 -14 171 -20 275 -5 105 -12 201 -14 215 -3 14 -10 75 -16 135 -11 104 -20 134 -52 166 -8 8 -25 30 -38 49 -13 19 -27 37 -31 40 -14 11 -39 71 -34 80 18 29 80 40 231 40 175 0 176 0 188 -92 3 -27 17 -69 30 -95 25 -49 33 -61 121 -167 27 -34 79 -99 114 -146 35 -47 79 -103 98 -125 18 -22 74 -92 123 -155 129 -164 208 -263 265 -334 28 -33 70 -88 95 -121 25 -33 47 -62 50 -65 6 -6 72 -89 185 -235 187 -240 208 -243 185 -23 -6 62 -16 192 -21 288 -5 96 -14 213 -19 260 -5 47 -14 168 -19 270 -5 102 -12 194 -15 205 -8 31 -25 274 -31 441 -7 181 -3 191 85 204 89 12 234 12 248 -2z" fill="#ffffff" id="ffffff-000004"/>
    <path stroke="none" d="M26800 37960 c69 -4 134 -11 145 -15 57 -23 70 -68 37 -127 -10 -18 -21 -42 -24 -53 -4 -11 -22 -65 -42 -120 -22 -63 -36 -119 -36 -150 0 -27 -7 -95 -16 -150 -9 -55 -20 -158 -24 -230 -5 -71 -14 -157 -20 -190 -6 -33 -15 -121 -20 -195 -5 -74 -14 -162 -20 -195 -6 -33 -15 -118 -20 -190 -5 -71 -14 -157 -20 -190 -14 -80 -32 -302 -32 -395 0 -86 14 -210 33 -291 11 -51 11 -60 -4 -83 -16 -23 -24 -26 -75 -26 -31 1 -97 7 -147 15 -49 8 -113 18 -141 21 -68 9 -80 27 -60 94 8 27 22 65 30 85 9 19 24 52 33 73 9 20 20 55 25 77 5 22 14 58 19 80 6 22 15 94 20 160 4 66 13 147 19 180 6 33 15 123 20 200 5 77 14 167 20 200 6 33 15 119 20 190 5 72 14 157 20 190 6 33 15 119 20 190 4 72 14 168 22 215 17 110 17 379 0 445 -8 28 -16 80 -19 116 l-5 66 33 11 c19 6 45 8 59 5 14 -3 81 -8 150 -13z" fill="#ffffff" id="ffffff-000005"/>
    <path stroke="none" d="M28964 37546 c20 -7 39 -15 42 -19 4 -4 19 -7 34 -7 15 0 38 -9 52 -20 21 -16 26 -31 32 -87 19 -188 28 -335 36 -613 5 -168 14 -359 20 -425 6 -66 15 -257 21 -425 6 -168 14 -348 19 -400 5 -52 12 -241 16 -419 6 -270 4 -325 -7 -332 -19 -12 -101 0 -163 23 -28 10 -60 18 -72 18 -28 0 -88 25 -109 46 -19 20 -14 87 12 164 9 25 19 63 24 85 29 142 30 162 19 380 -6 121 -14 311 -17 423 l-6 203 -26 17 c-40 27 -73 40 -111 45 -19 2 -55 11 -80 20 -25 9 -65 21 -90 27 -25 7 -53 16 -62 21 -10 5 -29 9 -42 9 -23 0 -51 9 -101 32 -12 5 -45 8 -75 6 -52 -3 -56 -5 -91 -52 -21 -27 -43 -61 -50 -75 -7 -14 -26 -44 -41 -66 -99 -141 -347 -528 -364 -570 -29 -68 -64 -178 -64 -203 0 -27 -26 -86 -46 -107 -14 -13 -28 -15 -83 -9 -36 4 -85 15 -109 25 -24 11 -52 19 -63 19 -11 0 -40 10 -65 22 -43 20 -46 23 -41 54 3 20 83 148 209 334 112 166 214 318 228 339 99 151 555 827 560 831 4 3 13 16 20 30 7 14 30 48 51 76 22 28 39 54 39 58 0 5 13 25 28 45 16 20 97 138 180 263 84 124 160 229 169 231 26 8 126 -3 167 -17z" fill="#ffffff" id="ffffff-000006"/>
    <path stroke="none" d="M21716 37418 c11 -13 54 -70 95 -127 41 -57 109 -151 151 -210 43 -58 98 -135 124 -171 25 -36 66 -92 90 -125 25 -33 71 -98 104 -145 33 -47 78 -110 100 -140 22 -30 67 -93 100 -140 33 -47 78 -110 100 -140 22 -30 63 -89 92 -130 28 -41 63 -91 78 -110 43 -57 102 -138 180 -250 41 -58 77 -107 80 -110 3 -3 26 -34 51 -70 24 -35 74 -105 111 -155 81 -108 88 -143 36 -175 -18 -11 -42 -20 -53 -20 -22 0 -91 -23 -101 -33 -4 -4 -16 -7 -26 -7 -11 0 -42 -7 -69 -16 -49 -16 -51 -16 -73 5 -13 12 -29 41 -36 64 -7 23 -22 71 -33 107 -11 36 -28 84 -38 107 -11 24 -19 45 -19 48 0 7 -141 218 -150 225 -4 3 -13 16 -21 30 -8 14 -41 63 -74 109 -33 45 -101 142 -150 214 -50 72 -101 137 -115 145 -32 16 -116 7 -177 -19 -25 -10 -58 -19 -73 -19 -16 0 -31 -4 -34 -9 -3 -4 -27 -14 -53 -21 -47 -11 -57 -15 -116 -39 -15 -6 -37 -11 -48 -11 -19 0 -27 -3 -84 -33 -59 -30 -60 -33 -63 -477 -3 -355 -1 -412 13 -465 10 -33 19 -73 22 -90 2 -16 8 -39 13 -50 15 -38 29 -80 41 -134 l13 -54 -34 -28 c-19 -16 -46 -29 -60 -29 -15 0 -45 -9 -68 -20 -22 -11 -52 -20 -66 -20 -14 0 -27 -4 -30 -9 -4 -5 -24 -12 -47 -16 -32 -6 -45 -3 -61 12 -21 18 -21 20 -14 528 4 281 11 638 16 795 5 157 13 522 16 813 l7 527 23 23 c13 13 43 29 66 36 24 7 63 21 88 31 25 10 70 19 101 19 46 1 59 -3 75 -21z" fill="#ffffff" id="ffffff-000007"/>
    <path stroke="none" d="M30943 36891 c29 -15 70 -38 92 -51 22 -12 90 -48 150 -80 61 -32 128 -68 150 -80 22 -13 69 -39 105 -58 36 -19 85 -46 110 -60 25 -14 61 -33 80 -43 104 -52 270 -168 352 -247 131 -127 218 -300 218 -437 0 -142 -112 -379 -230 -489 -62 -57 -144 -106 -178 -106 -10 0 -22 -4 -27 -9 -15 -14 -110 -31 -168 -31 -29 1 -81 8 -117 16 -36 8 -81 19 -100 23 -34 8 -53 14 -95 31 -69 26 -124 40 -138 34 -22 -8 -31 -45 -23 -97 3 -23 11 -73 17 -112 6 -38 14 -131 19 -205 5 -74 14 -162 20 -195 6 -33 15 -125 20 -205 6 -80 15 -172 20 -205 12 -69 31 -307 34 -410 1 -66 0 -70 -22 -73 -27 -4 -245 104 -324 160 -37 25 -36 62 1 130 36 67 45 128 31 209 -6 35 -15 127 -20 204 -5 77 -14 167 -20 200 -6 33 -15 121 -20 195 -5 74 -16 180 -24 235 -8 55 -15 136 -16 181 0 85 -11 132 -41 174 -17 25 -141 98 -204 121 -50 18 -82 -11 -138 -123 -25 -51 -63 -122 -83 -158 -20 -36 -54 -96 -74 -135 -21 -38 -58 -108 -84 -155 -85 -157 -130 -255 -137 -300 -4 -25 -13 -63 -19 -85 -7 -22 -15 -64 -19 -94 -12 -89 -61 -104 -159 -49 -32 17 -93 50 -137 74 -91 48 -125 77 -125 105 0 11 50 71 114 138 63 66 122 134 131 153 10 18 23 40 30 48 7 8 43 74 80 145 37 72 75 141 84 155 9 14 28 48 41 75 14 28 39 75 56 105 17 30 53 96 79 145 26 50 61 114 76 143 73 133 89 162 126 232 62 115 123 229 156 290 67 123 147 286 147 300 0 9 4 20 9 26 5 5 11 29 14 54 3 25 10 63 17 85 6 22 14 56 17 75 3 19 10 41 15 48 18 21 77 13 131 -17z" fill="#ffffff" id="ffffff-000008"/>
    <path stroke="none" d="M20097 36722 c84 -13 194 -75 260 -147 32 -34 67 -80 79 -101 29 -54 43 -81 52 -101 5 -10 14 -27 19 -38 6 -11 15 -31 21 -45 5 -14 15 -38 21 -53 6 -15 11 -76 11 -136 0 -93 -4 -116 -26 -172 -14 -35 -32 -71 -40 -80 -8 -8 -14 -20 -14 -25 -1 -21 -144 -177 -207 -226 -35 -27 -199 -136 -237 -158 -20 -11 -53 -30 -73 -42 -54 -30 -177 -99 -253 -140 -92 -49 -113 -61 -132 -77 -24 -19 -23 -79 2 -111 11 -14 20 -28 20 -32 0 -4 15 -33 34 -65 49 -86 84 -148 134 -243 63 -119 99 -184 161 -288 17 -29 31 -55 31 -59 0 -10 83 -107 172 -200 48 -51 88 -100 88 -111 0 -20 -41 -54 -110 -91 -25 -13 -70 -37 -100 -54 -138 -75 -142 -77 -160 -67 -26 14 -50 56 -50 88 0 16 -9 55 -20 88 -11 32 -20 68 -20 80 0 29 -46 138 -90 214 -20 36 -58 103 -82 150 -45 84 -67 124 -110 198 -24 42 -54 96 -123 227 -26 50 -73 135 -105 190 -31 55 -79 141 -105 190 -50 93 -70 129 -107 193 -12 20 -34 60 -49 87 -14 28 -40 75 -56 105 -17 30 -41 75 -54 99 -13 24 -76 99 -141 167 -64 67 -119 132 -123 144 -9 29 22 62 94 96 31 15 67 35 81 44 14 9 68 40 120 67 103 54 177 95 225 123 149 87 458 243 515 259 25 7 54 17 65 21 53 22 93 30 144 31 31 0 65 5 76 10 19 8 55 6 162 -9z" fill="#ffffff" id="ffffff-000009"/>
    <path stroke="none" d="M33287 35527 c90 -69 172 -134 255 -201 152 -125 221 -180 298 -239 115 -88 253 -220 308 -293 51 -69 132 -220 132 -247 0 -9 4 -18 9 -21 10 -7 19 -40 31 -116 5 -30 13 -77 19 -105 13 -64 13 -167 0 -225 -5 -25 -12 -63 -15 -85 -10 -75 -68 -220 -116 -292 -15 -23 -28 -45 -28 -48 0 -4 -19 -30 -42 -58 -53 -64 -58 -70 -105 -133 -21 -28 -52 -69 -70 -90 -17 -21 -62 -77 -99 -124 -91 -114 -299 -319 -355 -349 -117 -62 -200 -101 -216 -101 -10 0 -42 -9 -71 -20 -46 -18 -76 -20 -254 -20 -188 0 -239 5 -290 31 -10 5 -28 9 -41 9 -48 0 -268 126 -345 198 -8 7 -30 25 -50 40 -21 15 -77 60 -127 100 -49 41 -97 79 -105 86 -160 127 -371 299 -389 319 l-24 26 28 33 c15 18 62 56 104 84 98 66 177 138 254 233 34 42 69 85 79 96 32 39 144 179 203 254 33 43 83 104 110 137 28 33 63 77 78 96 15 20 72 91 127 158 55 67 112 138 127 158 15 19 62 77 103 127 202 247 259 330 300 440 24 64 60 141 74 157 23 26 55 22 103 -15z" fill="#ffffff" id="ffffff-000010"/>
    <path stroke="none" d="M17980 35448 c18 -11 21 -20 17 -63 -2 -27 -11 -70 -20 -95 -9 -25 -21 -64 -28 -87 -7 -23 -22 -52 -35 -64 -25 -23 -47 -23 -144 2 -25 7 -103 14 -174 16 l-129 4 -82 -41 c-215 -108 -355 -359 -310 -553 26 -111 121 -219 234 -265 47 -19 69 -22 141 -19 47 2 105 10 130 16 25 7 74 16 110 20 36 5 83 14 105 21 22 7 65 16 95 20 30 4 73 13 95 20 22 7 67 15 100 20 33 4 87 15 119 24 69 19 343 24 391 6 156 -56 234 -105 340 -215 56 -57 91 -103 114 -151 33 -68 37 -77 62 -143 8 -23 13 -87 13 -190 0 -137 -3 -162 -20 -196 -11 -22 -35 -71 -54 -108 -72 -149 -179 -280 -287 -353 -32 -22 -66 -47 -77 -56 -55 -50 -329 -161 -441 -179 -27 -4 -72 -12 -100 -18 -27 -5 -94 -10 -148 -10 -92 -1 -99 1 -123 24 -22 23 -25 31 -19 68 4 23 11 50 16 59 5 9 9 34 9 56 0 48 21 100 50 127 20 19 22 19 83 1 83 -24 226 -39 312 -32 130 10 282 91 403 215 35 36 112 144 112 159 0 4 9 27 20 50 29 59 27 167 -4 252 -68 189 -187 331 -316 378 -56 20 -159 25 -225 12 -33 -7 -87 -16 -120 -20 -33 -4 -78 -13 -100 -20 -22 -7 -67 -16 -100 -20 -33 -4 -78 -13 -100 -20 -22 -7 -67 -15 -100 -20 -33 -4 -86 -15 -118 -24 -32 -9 -80 -16 -107 -16 -27 0 -52 -4 -55 -10 -3 -6 -52 -10 -110 -10 -99 0 -163 9 -229 33 -45 17 -168 100 -201 138 -61 68 -135 192 -135 226 0 7 -4 21 -9 31 -32 59 -38 165 -15 249 9 32 19 74 23 95 11 52 77 176 132 250 78 105 205 218 299 266 30 16 64 33 75 39 68 36 109 53 125 53 10 0 35 8 56 17 22 9 66 20 99 25 33 4 85 12 115 17 71 12 212 6 240 -11z" fill="#ffffff" id="ffffff-000011"/>
    <path stroke="none" d="M25530 34120 c52 -5 120 -14 150 -19 30 -6 78 -13 105 -16 28 -4 61 -10 75 -15 14 -4 52 -13 85 -20 111 -21 330 -80 380 -100 11 -5 38 -14 60 -21 22 -6 49 -15 60 -19 11 -5 36 -13 55 -20 19 -7 44 -16 55 -20 23 -10 150 -55 215 -76 25 -8 54 -19 65 -23 19 -8 57 -19 143 -40 20 -6 66 -15 102 -21 36 -7 76 -15 90 -20 14 -4 51 -14 83 -21 32 -7 60 -16 63 -21 3 -4 13 -8 22 -8 26 0 170 -60 236 -98 113 -66 157 -118 202 -238 25 -68 26 -72 35 -504 5 -239 14 -455 19 -480 26 -121 21 -348 -10 -515 -13 -70 -6 -131 18 -162 10 -13 37 -27 67 -34 90 -20 119 -27 160 -38 22 -5 63 -15 90 -22 76 -18 123 -32 255 -78 76 -27 263 -24 685 9 171 14 296 33 408 64 111 31 197 14 197 -39 0 -67 -70 -163 -166 -226 -241 -160 -349 -204 -600 -248 -114 -20 -413 -10 -539 19 -22 5 -65 14 -95 21 -54 11 -95 23 -135 39 -11 4 -40 13 -65 20 -25 7 -72 21 -105 31 -33 10 -78 22 -100 28 -22 5 -59 14 -81 20 -23 6 -55 11 -73 11 -27 0 -34 -6 -48 -37 -9 -21 -29 -51 -44 -68 -78 -87 -95 -176 -56 -295 40 -123 43 -137 78 -320 17 -89 30 -141 55 -218 45 -138 23 -203 -82 -232 -33 -9 -55 -8 -115 5 -41 9 -92 20 -114 25 -22 5 -52 12 -67 16 -35 8 -37 -10 -6 -43 18 -20 20 -26 10 -48 -7 -14 -12 -45 -12 -69 0 -47 -22 -110 -42 -122 -7 -5 -31 -11 -52 -14 -48 -6 -56 -23 -19 -42 15 -8 37 -19 48 -26 18 -10 104 -51 370 -177 398 -188 536 -254 605 -289 60 -30 65 -36 68 -68 2 -29 -2 -40 -23 -56 -28 -22 -24 -23 -110 13 -16 7 -52 23 -80 35 -51 23 -94 41 -155 67 -19 9 -62 28 -95 43 -33 15 -86 40 -117 54 -32 14 -84 38 -115 52 -84 38 -176 80 -278 129 -49 23 -121 57 -160 75 -38 17 -80 37 -92 43 -30 14 -36 6 -23 -29 11 -27 8 -31 -28 -64 -67 -60 -68 -63 -34 -113 39 -56 49 -105 28 -144 -13 -26 -13 -35 -1 -69 19 -51 18 -64 -2 -86 -15 -17 -16 -27 -5 -89 17 -97 15 -117 -7 -124 -11 -3 -35 -16 -54 -29 -19 -13 -50 -27 -68 -31 -19 -3 -55 -14 -82 -23 -45 -15 -49 -15 -93 6 -25 12 -73 26 -107 32 -78 11 -162 43 -207 79 -19 15 -48 31 -64 35 -15 4 -47 26 -70 49 -46 47 -74 63 -127 71 -20 4 -57 23 -83 43 l-47 36 -27 -20 c-32 -24 -39 -63 -18 -107 17 -35 149 -175 208 -218 20 -15 42 -34 50 -41 7 -7 29 -24 48 -37 44 -30 57 -46 76 -90 60 -137 101 -203 234 -380 64 -85 210 -356 210 -389 0 -6 4 -19 9 -29 25 -48 311 -632 324 -662 8 -19 27 -61 41 -93 14 -32 26 -60 26 -62 0 -3 9 -24 19 -48 17 -37 43 -113 94 -272 9 -27 35 -104 58 -170 93 -270 99 -369 27 -451 -65 -74 -254 -183 -368 -212 -80 -20 -176 -37 -420 -73 -47 -7 -89 -16 -95 -21 -5 -4 -17 -8 -27 -8 -10 0 -26 -4 -36 -9 -22 -11 -74 -26 -142 -41 -30 -7 -64 -16 -75 -20 -193 -74 -852 -137 -1330 -127 -348 6 -766 41 -935 76 -42 9 -74 17 -157 42 -18 5 -48 13 -65 18 -18 5 -58 16 -88 26 -30 9 -68 20 -85 24 -89 24 -125 35 -169 52 -27 10 -55 19 -62 19 -8 0 -24 5 -37 12 -44 23 -57 28 -67 28 -6 0 -29 8 -53 19 -23 10 -80 34 -127 52 -47 18 -125 59 -173 92 -49 32 -114 72 -145 89 -159 87 -272 185 -320 279 -21 42 -23 55 -19 165 3 65 9 160 16 209 6 50 15 133 21 185 6 52 15 122 20 155 5 33 14 89 19 125 6 36 12 74 15 85 2 11 10 47 16 80 11 56 16 79 39 188 5 23 15 76 21 117 27 182 44 271 66 355 7 28 16 61 19 75 11 42 23 69 128 290 79 167 111 237 147 330 66 171 197 389 301 505 60 66 150 152 183 174 61 41 114 108 132 166 10 33 40 101 65 150 26 50 70 135 98 190 74 142 84 148 189 112 30 -10 35 -9 62 18 32 32 73 135 84 209 6 40 4 49 -18 70 -13 14 -37 28 -53 32 -15 4 -40 15 -55 25 -14 11 -30 19 -35 19 -6 0 -18 8 -27 19 -23 26 -24 105 -1 165 16 42 17 55 7 106 -13 60 -12 69 18 136 11 23 18 54 18 70 -1 47 12 115 35 180 21 61 21 62 2 125 -10 35 -25 73 -32 84 -24 37 2 213 40 268 13 20 21 55 27 115 4 53 15 104 28 132 19 42 26 69 23 96 -2 20 -126 65 -230 85 -84 15 -180 37 -251 58 -75 21 -116 33 -150 41 -36 8 -103 28 -205 63 -203 67 -462 266 -584 447 -70 105 -83 153 -85 323 l-1 136 33 34 c56 57 110 69 332 75 183 4 308 -4 448 -29 169 -30 194 -35 292 -59 87 -21 195 -49 230 -60 14 -4 59 -18 100 -30 41 -12 93 -29 115 -38 22 -8 54 -18 70 -22 27 -7 98 -31 150 -50 11 -5 36 -13 55 -20 36 -13 56 -20 103 -39 15 -6 34 -11 42 -11 14 0 78 88 151 210 52 86 224 436 224 455 0 3 8 24 19 48 10 23 24 58 31 77 7 19 21 54 31 77 11 24 19 47 19 51 0 30 88 182 131 228 92 95 196 118 439 94z" fill="#ffffff" id="ffffff-000012"/>
    <path stroke="none" d="M28833 37165 c-7 -7 -98 -143 -203 -300 -213 -320 -215 -325 -145 -359 22 -11 58 -23 80 -27 22 -3 60 -13 85 -22 185 -62 218 -68 245 -40 15 14 16 34 11 162 -6 126 -23 475 -29 566 -2 33 -24 43 -44 20z" fill="#201e1f" id="201e1f-000002"/>
    <path stroke="none" d="M21627 37033 c-9 -15 -17 -678 -9 -713 7 -31 12 -35 42 -38 34 -4 123 20 224 59 27 11 57 19 67 19 10 0 43 11 74 25 44 20 55 30 55 49 0 23 -39 85 -134 216 -25 36 -91 130 -146 210 -55 80 -106 153 -113 163 -14 17 -52 23 -60 10z" fill="#201e1f" id="201e1f-000003"/>
    <path stroke="none" d="M31033 36538 c-11 -13 -42 -63 -68 -113 -53 -101 -62 -116 -196 -362 -59 -107 -99 -188 -99 -200 0 -33 27 -64 79 -91 31 -16 74 -39 96 -52 136 -79 420 -222 514 -259 43 -17 75 -21 165 -21 108 0 114 1 162 31 78 50 123 110 199 266 32 66 35 80 35 160 0 79 -3 93 -29 138 -47 81 -164 189 -266 245 -22 12 -51 30 -65 40 -14 10 -43 26 -65 37 -22 11 -60 31 -85 45 -46 26 -141 77 -240 129 -66 35 -109 37 -137 7z" fill="#201e1f" id="201e1f-000004"/>
    <path stroke="none" d="M19805 36494 c-33 -8 -78 -20 -100 -26 -39 -12 -219 -100 -300 -148 -48 -28 -108 -61 -230 -125 -164 -87 -164 -88 -68 -265 17 -30 47 -86 68 -125 21 -38 55 -100 77 -137 21 -37 59 -107 84 -155 52 -100 89 -153 107 -153 15 0 156 72 292 150 55 31 132 74 170 95 112 61 185 113 253 179 79 76 99 104 123 169 23 62 24 89 5 159 -12 48 -28 82 -107 226 -70 128 -224 193 -374 156z" fill="#201e1f" id="201e1f-000005"/>
    <path stroke="none" d="M33309 35123 c-19 -21 -48 -56 -64 -78 -17 -22 -63 -80 -103 -130 -41 -49 -79 -97 -85 -105 -7 -8 -32 -40 -57 -70 -25 -30 -50 -62 -57 -70 -7 -8 -34 -43 -62 -78 -27 -35 -65 -82 -84 -105 -54 -65 -158 -195 -201 -251 -22 -28 -70 -87 -106 -131 -37 -44 -84 -102 -105 -130 -21 -27 -55 -70 -76 -95 -51 -60 -163 -198 -221 -274 -63 -81 -65 -122 -10 -163 20 -15 39 -30 42 -33 5 -5 102 -85 130 -107 8 -6 40 -32 70 -56 126 -100 227 -159 405 -237 52 -23 255 -35 324 -20 67 15 156 47 191 70 14 8 38 22 54 30 33 17 195 174 246 239 19 24 58 72 85 105 28 34 75 93 105 131 30 39 68 86 85 106 101 120 199 275 235 374 4 11 13 33 19 48 6 16 11 87 11 167 0 80 -5 151 -11 167 -6 15 -16 39 -21 53 -64 167 -174 301 -388 474 -52 43 -117 96 -144 119 -119 101 -153 110 -207 50z" fill="#201e1f" id="201e1f-000006"/>
  </g>
</svg>
