<?xml version="1.0" standalone="no"?>
<!DOCTYPE svg PUBLIC "-//W3C//DTD SVG 1.1//EN"
 "http://www.w3.org/Graphics/SVG/1.1/DTD/svg11.dtd">
<!-- Created with svg_stack (http://github.com/astraw/svg_stack) -->
<svg xmlns:sodipodi="http://sodipodi.sourceforge.net/DTD/sodipodi-0.dtd" xmlns="http://www.w3.org/2000/svg" version="1.1" width="1032.0" height="1032.0">
  <defs/>
  <g id="id0:id0" transform="matrix(1.25,0,0,1.25,0.0,0.0)"><g transform="translate(0.000000,825.600000) scale(0.040000,-0.040000)" fill="#2a2a2a" stroke="none">
<path d="M15588 18703 c-40 -4 -49 -16 -22 -27 13 -5 14 -9 4 -21 -11 -13 -100 -15 -671 -15 -664 0 -709 -2 -709 -35 0 -7 7 -18 15 -25 8 -7 15 -19 15 -26 0 -16 36 -19 45 -4 7 12 161 14 168 3 3 -5 7 -21 8 -38 l4 -30 -50 -3 c-27 -2 -54 -7 -60 -13 -5 -5 -24 -9 -42 -9 -21 0 -33 -5 -33 -13 0 -16 -52 -67 -68 -67 -7 0 -12 -6 -12 -13 0 -14 -171 -187 -185 -187 -6 0 -21 -25 -35 -56 -21 -46 -32 -59 -68 -75 -24 -11 -46 -28 -49 -37 -8 -23 -54 -72 -68 -72 -22 0 -55 -46 -55 -77 0 -28 -25 -63 -46 -63 -5 0 -46 -37 -92 -83 -55 -56 -82 -90 -82 -106 0 -14 -7 -25 -20 -28 -11 -3 -20 -12 -20 -19 0 -8 -10 -18 -22 -23 -13 -5 -39 -25 -57 -45 -19 -20 -41 -36 -48 -36 -7 0 -13 -6 -13 -13 0 -7 -13 -26 -30 -42 -16 -16 -30 -34 -30 -40 0 -5 -48 -58 -106 -115 -62 -62 -113 -123 -125 -147 -11 -24 -26 -43 -34 -43 -8 0 -15 -7 -15 -15 0 -9 -10 -19 -23 -24 -13 -5 -29 -16 -36 -25 -7 -9 -20 -16 -27 -16 -8 0 -14 -6 -14 -13 0 -7 -13 -26 -30 -42 -16 -16 -30 -34 -30 -40 0 -13 -172 -185 -185 -185 -6 0 -23 -27 -38 -60 -15 -33 -34 -60 -42 -60 -8 0 -15 -7 -15 -15 0 -9 -10 -19 -23 -24 -13 -5 -29 -16 -36 -25 -7 -9 -20 -16 -27 -16 -8 0 -14 -6 -14 -13 0 -7 -13 -26 -30 -42 -16 -16 -30 -34 -30 -40 0 -15 -173 -185 -188 -185 -6 0 -12 -7 -12 -16 0 -9 -9 -18 -20 -21 -12 -3 -20 -14 -20 -28 0 -12 -9 -30 -20 -40 -11 -10 -20 -24 -20 -32 0 -7 -10 -17 -23 -22 -13 -5 -29 -16 -36 -25 -7 -9 -19 -16 -25 -16 -6 0 -17 -15 -25 -32 -16 -39 -91 -119 -103 -112 -11 7 -10 52 2 59 6 3 10 18 10 32 0 16 7 27 19 30 11 3 21 13 24 24 3 10 12 19 21 19 9 0 16 4 16 8 0 12 -64 72 -77 72 -6 0 -28 -19 -49 -42 -63 -72 -226 -249 -288 -315 l-59 -63 23 -25 23 -25 2032 0 c1566 0 2034 3 2043 12 16 16 18 2713 2 2723 -5 3 -10 21 -10 40 0 19 -4 37 -10 40 -5 3 -10 16 -10 29 0 12 -5 27 -11 33 -8 8 -7 17 5 34 10 15 14 34 10 54 -4 24 0 35 20 54 22 21 27 44 8 39 -4 -1 -24 -3 -44 -5z"/>
<path d="M11360 18691 c0 -12 37 -24 50 -16 20 12 10 25 -20 25 -16 0 -30 -4 -30 -9z"/>
<path d="M9258 18640 c-1129 -3 -2061 -9 -2070 -14 -22 -10 -23 -29 -3 -46 8 -7 15 -19 15 -26 0 -16 36 -19 45 -4 10 16 168 12 202 -5 29 -14 48 -47 35 -59 -3 -3 -22 -6 -43 -6 -21 0 -41 -4 -44 -10 -3 -5 -40 -10 -81 -10 -60 0 -74 -3 -74 -15 0 -9 -8 -18 -17 -22 -23 -8 -123 -104 -123 -118 0 -15 -73 -85 -88 -85 -7 0 -12 -6 -12 -13 0 -7 -14 -26 -30 -42 -17 -16 -30 -33 -30 -39 0 -14 -171 -186 -185 -186 -12 0 -35 -47 -35 -70 0 -19 -30 -50 -48 -50 -7 0 -12 -7 -12 -15 0 -9 -10 -19 -22 -24 -13 -5 -39 -25 -57 -45 -19 -20 -40 -36 -46 -36 -22 0 -55 -46 -55 -77 0 -28 -25 -63 -46 -63 -5 0 -32 -22 -59 -50 -27 -27 -55 -50 -61 -50 -6 0 -14 -9 -17 -20 -3 -11 -12 -20 -21 -20 -12 0 -16 -10 -16 -36 0 -27 -5 -37 -20 -41 -11 -3 -20 -12 -20 -19 0 -8 -10 -18 -22 -23 -13 -5 -39 -25 -57 -45 -19 -20 -41 -36 -48 -36 -7 0 -13 -6 -13 -13 0 -7 -13 -26 -30 -42 -16 -16 -30 -34 -30 -40 0 -5 -48 -58 -106 -115 -62 -62 -113 -123 -125 -147 -11 -24 -26 -43 -34 -43 -8 0 -15 -7 -15 -15 0 -9 -10 -19 -23 -24 -13 -5 -29 -16 -36 -25 -7 -9 -20 -16 -27 -16 -8 0 -14 -6 -14 -13 0 -7 -13 -26 -30 -42 -16 -16 -30 -34 -30 -40 0 -13 -172 -185 -185 -185 -6 0 -23 -27 -38 -60 -15 -33 -34 -60 -42 -60 -8 0 -15 -7 -15 -15 0 -9 -10 -19 -23 -24 -13 -5 -29 -16 -36 -25 -7 -9 -20 -16 -27 -16 -8 0 -14 -6 -14 -13 0 -7 -14 -26 -30 -42 -17 -16 -30 -34 -30 -40 0 -13 -172 -185 -185 -185 -6 0 -23 -27 -38 -60 -15 -33 -34 -60 -42 -60 -8 0 -15 -7 -15 -15 0 -8 -19 -23 -43 -34 -23 -11 -51 -29 -61 -40 -27 -30 -78 -53 -89 -42 -12 12 0 31 19 31 8 0 14 10 14 23 0 13 5 28 12 35 9 9 6 17 -12 37 -13 14 -29 25 -35 25 -14 0 -125 -114 -125 -128 0 -19 32 -35 73 -36 38 -1 42 -4 45 -27 3 -22 9 -28 40 -33 20 -3 907 -6 1969 -6 1758 0 1936 -1 1973 -16 44 -18 60 -39 60 -78 0 -22 -15 -38 -58 -61 -4 -3 -3 -2467 1 -2471 2 -3 17 0 32 6 22 8 31 7 45 -5 23 -21 37 -19 46 7 4 13 26 41 49 63 69 65 376 397 450 485 21 25 40 47 44 50 4 3 36 37 71 75 36 39 107 117 159 173 52 57 106 118 121 137 15 19 50 58 77 87 85 90 250 271 383 419 41 46 100 111 131 144 49 53 115 126 237 261 20 23 80 88 132 145 84 92 196 216 248 274 10 11 88 97 174 190 86 94 169 186 185 205 15 20 62 71 103 114 41 43 84 92 95 109 l20 32 3 950 c2 522 0 1095 -3 1273 l-7 323 -24 34 c-13 19 -21 41 -18 49 4 10 -6 15 -39 17 -25 2 -969 2 -2099 -1z"/>
<path d="M14073 18496 c-4 -8 -37 -44 -72 -81 -57 -61 -62 -69 -48 -83 13 -13 19 -13 32 -2 12 10 19 10 27 2 7 -7 19 -12 28 -12 18 0 94 75 103 103 4 9 14 17 23 17 22 0 13 22 -15 36 -13 7 -28 17 -34 23 -15 15 -34 14 -44 -3z"/>
<path d="M6838 18261 c-1 -5 -34 -42 -72 -81 -62 -65 -67 -74 -53 -88 13 -13 19 -13 32 -2 12 10 19 10 27 2 7 -7 19 -12 28 -12 18 0 94 75 103 103 4 9 14 17 23 17 22 0 13 22 -15 36 -13 7 -28 17 -34 23 -13 13 -34 14 -39 2z"/>
<path d="M13571 17949 c-68 -74 -73 -82 -58 -96 13 -14 19 -14 32 -3 12 10 19 10 27 2 7 -7 19 -12 28 -12 18 0 54 35 63 63 4 9 13 17 22 17 18 0 21 50 3 68 -7 7 -8 12 -4 12 5 0 3 7 -4 15 -7 8 -18 15 -24 14 -6 0 -44 -36 -85 -80z"/>
<path d="M6331 17709 c-68 -74 -73 -82 -58 -96 13 -14 19 -14 32 -3 12 10 19 10 27 2 7 -7 19 -12 28 -12 18 0 54 35 63 63 4 9 13 17 22 17 18 0 21 50 3 68 -7 7 -8 12 -4 12 5 0 3 7 -4 15 -7 8 -18 15 -24 14 -6 0 -44 -36 -85 -80z"/>
<path d="M13125 17460 l-49 -49 19 -20 c10 -11 21 -18 26 -16 4 3 10 1 14 -5 16 -27 72 6 88 53 4 9 14 17 23 17 22 0 13 22 -15 36 -13 7 -28 17 -34 23 -16 16 -19 15 -72 -39z"/>
<path d="M5885 17220 l-49 -49 19 -20 c10 -11 21 -18 26 -16 4 3 10 1 14 -5 16 -27 72 6 88 53 4 9 14 17 23 17 22 0 13 22 -15 36 -13 7 -28 17 -34 23 -16 16 -19 15 -72 -39z"/>
<path d="M12701 16999 l-63 -70 17 -19 c10 -11 21 -17 26 -15 4 3 10 1 14 -5 16 -27 72 6 88 53 4 9 13 17 21 17 7 0 16 9 19 20 3 11 13 20 22 20 22 0 14 22 -14 36 -13 7 -28 17 -34 23 -19 19 -31 12 -96 -60z"/>
<path d="M5461 16759 l-63 -70 17 -19 c10 -11 21 -17 26 -15 4 3 10 1 14 -5 16 -27 72 6 88 53 4 9 13 17 21 17 7 0 16 9 19 20 3 11 13 20 22 20 22 0 14 22 -14 36 -13 7 -28 17 -34 23 -19 19 -31 12 -96 -60z"/>
<path d="M12211 16469 c-68 -74 -73 -82 -58 -96 13 -14 19 -14 32 -3 12 10 19 10 27 2 7 -7 19 -12 28 -12 18 0 94 75 103 103 4 9 14 17 23 17 22 0 13 22 -15 36 -13 7 -28 17 -34 23 -19 19 -30 12 -106 -70z"/>
<path d="M5027 16290 c-7 -10 -39 -47 -71 -81 -52 -55 -56 -63 -42 -77 12 -13 18 -13 31 -2 12 10 19 10 27 2 7 -7 19 -12 28 -12 18 0 94 75 103 103 4 9 14 17 23 17 22 0 13 22 -15 36 -13 7 -28 17 -34 23 -16 16 -34 13 -50 -9z"/>
<path d="M11284 15452 c-50 -53 -151 -164 -224 -247 -73 -82 -164 -183 -203 -224 -38 -40 -128 -139 -200 -220 -71 -80 -164 -182 -206 -227 -42 -44 -101 -109 -131 -144 -30 -35 -82 -93 -115 -129 -110 -119 -199 -216 -214 -232 -9 -9 -47 -52 -86 -95 -38 -43 -115 -128 -170 -188 -55 -60 -140 -155 -190 -210 -49 -56 -141 -157 -205 -226 -63 -69 -154 -168 -200 -220 -183 -205 -421 -458 -436 -464 -9 -3 -27 -6 -40 -6 l-24 0 -2 -2017 c0 -1110 -2 -2045 -2 -2078 l-1 -60 41 3 c39 3 44 1 80 -45 71 -88 167 -197 279 -318 61 -66 121 -133 134 -150 12 -16 102 -115 199 -218 97 -104 186 -202 199 -220 13 -17 80 -92 151 -167 70 -75 154 -167 187 -205 91 -104 161 -181 255 -280 47 -49 112 -121 145 -159 124 -142 513 -572 640 -706 55 -58 123 -132 150 -164 112 -131 288 -322 306 -330 10 -5 25 -6 34 -3 14 6 15 456 15 4854 0 2667 -3 4915 -7 4997 l-6 148 -26 24 c-14 13 -28 24 -31 24 -3 -1 -46 -45 -96 -98z"/>
<path d="M8863 4374 c-17 -9 -34 -25 -37 -37 -3 -12 -6 -558 -6 -1213 l0 -1191 21 -27 20 -26 188 0 188 0 21 23 22 23 0 570 0 570 64 51 c83 66 198 135 260 156 58 20 161 22 193 4 31 -17 59 -56 74 -102 10 -30 14 -185 16 -640 l4 -600 26 -27 27 -28 182 0 183 0 20 26 21 27 0 646 c0 591 -2 654 -19 736 -22 109 -66 200 -129 267 -56 60 -106 90 -192 117 -208 66 -455 16 -667 -135 -25 -18 -50 -31 -55 -28 -4 3 -8 185 -8 404 l0 398 -31 26 -31 26 -161 0 c-126 0 -169 -4 -194 -16z"/>
<path d="M12929 4294 c-56 -17 -113 -75 -128 -131 -6 -21 -11 -65 -11 -98 0 -83 15 -130 56 -175 50 -56 112 -74 228 -68 135 7 191 41 226 135 37 99 17 228 -44 289 -59 59 -217 82 -327 48z"/>
<path d="M3017 4213 c-38 -10 -47 -53 -47 -227 l0 -164 26 -31 26 -31 326 -2 327 -3 3 -910 2 -909 27 -28 27 -28 192 0 193 0 28 24 28 24 5 914 5 913 327 3 326 2 26 31 26 31 0 173 0 173 -31 26 -31 26 -896 -1 c-493 -1 -905 -3 -915 -6z"/>
<path d="M5765 3721 c-181 -24 -320 -89 -433 -203 -119 -120 -172 -230 -219 -448 -25 -120 -26 -478 0 -598 37 -181 99 -311 198 -417 158 -168 352 -233 672 -222 230 7 355 41 482 132 106 76 208 202 189 233 -12 19 -247 182 -308 214 l-38 20 -50 -57 c-31 -34 -74 -68 -112 -88 l-61 -32 -135 0 -135 0 -68 33 c-47 23 -77 46 -97 74 -38 52 -70 152 -73 224 l-2 59 527 3 527 2 21 28 22 27 -5 200 c-4 173 -8 213 -31 300 -70 267 -226 430 -476 496 -85 22 -297 33 -395 20z m291 -419 c81 -41 140 -138 147 -237 l2 -40 -300 -3 c-165 -1 -305 0 -312 2 -16 6 8 91 45 161 28 52 101 115 156 134 53 18 214 8 262 -17z"/>
<path d="M7650 3721 c-449 -66 -683 -392 -682 -951 1 -339 78 -570 245 -732 105 -103 226 -162 393 -194 130 -24 377 -15 490 19 110 32 207 87 278 155 68 67 136 155 136 177 0 16 -323 235 -347 235 -6 0 -45 -33 -85 -74 -87 -89 -132 -106 -270 -106 -160 0 -245 46 -303 164 -59 119 -81 329 -54 523 25 190 80 288 187 339 51 25 69 28 162 28 95 0 111 -2 162 -27 32 -16 73 -47 93 -70 40 -47 70 -66 101 -67 12 0 90 45 173 100 170 113 173 116 120 191 -138 194 -326 284 -614 294 -71 2 -155 0 -185 -4z"/>
<path d="M11685 3716 c-124 -28 -235 -77 -351 -157 -23 -16 -44 -25 -48 -22 -3 4 -6 27 -6 53 0 36 -5 52 -23 68 -22 21 -32 22 -195 22 -183 0 -212 -6 -231 -47 -8 -17 -11 -269 -11 -862 l0 -838 21 -27 20 -26 188 0 188 0 21 23 22 23 0 566 0 566 48 42 c67 60 153 117 230 153 59 28 78 31 155 32 l89 0 28 -32 c53 -59 54 -62 57 -713 l4 -605 26 -27 27 -28 181 0 181 0 28 29 28 29 -5 643 c-5 685 -7 720 -56 850 -70 184 -229 286 -461 295 -57 2 -119 -2 -155 -10z"/>
<path d="M16610 3723 c-93 -14 -222 -71 -307 -134 -69 -51 -78 -52 -74 -8 2 27 -4 44 -24 67 l-27 32 -181 0 -181 0 -28 -27 -28 -27 0 -846 0 -846 28 -27 28 -27 181 0 181 0 26 31 26 31 0 558 c0 307 3 566 6 575 10 25 162 144 229 178 45 22 78 31 131 35 63 4 73 2 96 -19 52 -48 52 -49 58 -717 l5 -624 28 -24 28 -24 169 0 c179 0 214 7 224 44 3 11 6 270 6 574 0 356 4 560 10 572 18 34 150 137 223 176 57 30 85 38 142 42 l71 4 27 -31 c49 -59 50 -66 54 -718 l5 -612 20 -26 19 -25 188 0 188 0 21 23 22 23 0 640 c0 682 -4 755 -51 878 -27 74 -96 163 -156 203 -88 59 -152 76 -293 76 -109 1 -135 -3 -203 -25 -98 -33 -200 -93 -276 -163 -32 -30 -61 -55 -64 -55 -3 0 -19 22 -37 49 -41 65 -110 127 -168 152 -85 37 -247 57 -342 42z"/>
<path d="M12864 3668 c-12 -5 -27 -21 -33 -34 -16 -35 -16 -1673 0 -1707 19 -41 48 -47 234 -47 l173 0 26 31 26 31 0 838 0 838 -26 31 -26 31 -176 -1 c-100 0 -186 -5 -198 -11z"/>
<path d="M13775 3649 l-26 -32 4 -666 3 -666 21 -75 c43 -151 84 -219 174 -285 97 -71 167 -90 339 -90 126 0 154 4 210 24 90 31 174 73 245 120 33 22 63 37 67 35 5 -3 8 -21 8 -40 0 -26 8 -44 29 -65 l29 -29 180 0 180 0 26 31 26 31 0 838 0 838 -26 31 -26 31 -173 0 c-186 0 -215 -6 -234 -47 -8 -17 -11 -194 -11 -581 l0 -558 -37 -36 c-123 -117 -338 -212 -437 -194 -52 10 -93 49 -112 109 -15 46 -18 125 -22 650 l-4 598 -25 29 -25 30 -178 0 -178 0 -27 -31z"/>
</g>
</g>
  <g id="id1:id1" transform="matrix(1.25,0,0,1.25,0.0,0.0)"><g transform="translate(0.000000,825.600000) scale(0.040000,-0.040000)" fill="#000000" stroke="none">
<path d="M11411 18686 c-6 -7 -9 -20 -6 -28 4 -10 -6 -26 -26 -43 -27 -22 -39 -26 -70 -21 -21 3 -41 2 -44 -4 -9 -14 -3781 -14 -3790 0 -7 12 -182 13 -243 1 -23 -5 -45 -5 -48 0 -13 21 -38 0 -177 -151 -105 -114 -147 -166 -143 -178 11 -33 -10 -70 -67 -120 -37 -32 -67 -50 -81 -49 -33 3 -300 -284 -291 -313 14 -43 -107 -177 -147 -164 -15 4 -40 -16 -112 -93 -219 -233 -221 -236 -222 -282 -2 -53 -42 -94 -85 -85 -23 4 -42 -12 -170 -152 -137 -148 -144 -158 -145 -199 -2 -51 -9 -66 -29 -58 -10 3 -15 -1 -15 -14 0 -27 -54 -65 -83 -58 -20 5 -46 -19 -191 -175 -120 -129 -166 -185 -162 -198 11 -33 -10 -69 -67 -120 -37 -32 -67 -50 -81 -49 -17 2 -51 -28 -135 -117 -96 -102 -111 -123 -106 -144 4 -18 -4 -36 -35 -77 -43 -56 -61 -68 -85 -59 -8 3 -38 -6 -66 -20 -36 -18 -56 -23 -64 -16 -21 17 -45 0 -45 -30 0 -16 5 -32 10 -35 5 -3 10 -14 10 -24 0 -10 8 -25 18 -34 17 -16 178 -17 2111 -17 1665 0 2092 -3 2095 -12 3 -7 7 -25 10 -40 6 -26 8 -27 34 -16 77 33 70 113 -15 157 -16 8 -496 11 -1810 12 -1737 0 -2062 4 -2084 26 -11 11 41 56 96 83 54 27 115 106 115 149 0 7 9 15 20 19 25 9 190 171 190 186 0 14 118 136 132 136 17 0 64 54 82 95 11 25 54 73 111 125 51 47 100 99 108 115 17 33 124 145 139 145 16 0 63 53 80 90 9 19 64 82 122 139 58 57 106 109 106 116 0 12 159 175 171 175 17 0 69 60 69 80 0 14 28 49 83 101 45 43 87 79 92 79 6 0 24 11 40 24 27 22 29 27 17 46 -12 19 -11 25 9 46 12 13 28 24 34 24 6 0 29 18 50 40 21 22 43 40 47 40 23 0 86 78 92 113 5 24 14 41 26 45 25 9 190 171 190 186 0 7 37 51 83 98 45 47 104 111 130 142 27 31 55 56 63 56 7 0 18 9 24 20 9 17 21 20 78 20 38 0 73 5 78 10 7 7 677 9 1990 8 l1979 -3 8 -50 c11 -60 21 -2253 12 -2343 l-7 -64 -141 -156 c-78 -85 -167 -183 -197 -217 -30 -34 -122 -136 -204 -226 -83 -90 -168 -184 -190 -209 -22 -25 -87 -97 -145 -160 -141 -153 -198 -215 -251 -275 -24 -27 -89 -99 -145 -160 -56 -60 -146 -159 -200 -220 -54 -60 -144 -159 -200 -220 -56 -60 -146 -160 -201 -221 -426 -476 -640 -704 -661 -704 -7 0 -13 -6 -13 -14 0 -22 -51 -54 -90 -58 -26 -2 -36 -8 -38 -23 -6 -28 -31 -54 -69 -70 -86 -36 -35 -125 70 -125 32 0 60 28 508 522 261 287 593 653 738 812 145 160 368 406 495 546 127 140 410 452 629 692 219 241 402 449 407 463 6 17 10 510 10 1355 l0 1328 -26 31 c-28 34 -73 42 -93 17z"/>
<path d="M15623 18674 c-41 -61 -63 -74 -119 -74 -29 0 -56 -4 -59 -10 -4 -6 -177 -10 -485 -10 -308 0 -481 4 -485 10 -8 12 -166 13 -219 1 -26 -7 -45 -6 -57 2 -16 10 -25 5 -59 -28 -29 -29 -39 -46 -36 -60 3 -12 2 -32 -2 -46 -10 -36 -117 -128 -146 -126 -17 2 -55 -33 -159 -143 -114 -121 -136 -149 -132 -168 12 -48 -105 -177 -149 -166 -18 4 -48 -23 -177 -164 l-154 -168 -1 -43 c-2 -53 -42 -94 -85 -85 -23 4 -42 -12 -170 -152 -137 -148 -144 -158 -145 -199 -2 -51 -9 -66 -29 -58 -10 3 -15 -1 -15 -14 0 -28 -54 -65 -83 -58 -21 6 -46 -18 -191 -174 -120 -130 -166 -186 -162 -199 11 -33 -10 -70 -68 -121 -43 -37 -65 -50 -78 -45 -15 4 -41 -17 -116 -96 -132 -140 -138 -148 -124 -170 9 -15 5 -24 -24 -54 -18 -19 -34 -43 -34 -53 0 -10 -9 -29 -20 -43 -21 -27 -27 -75 -10 -85 6 -3 10 -26 10 -51 l0 -45 48 3 c40 3 47 6 50 25 2 12 21 42 43 66 21 25 39 50 39 56 0 15 71 82 98 92 12 5 22 15 22 22 0 8 9 22 20 32 11 10 20 25 20 33 0 8 17 30 38 49 112 104 202 196 202 207 0 14 118 136 132 136 17 0 64 54 82 95 11 25 54 73 111 125 51 47 100 99 108 115 17 33 124 145 139 145 16 0 63 53 80 90 9 19 64 82 122 139 58 57 106 109 106 116 0 15 160 175 175 175 13 0 65 65 65 82 0 15 160 178 175 178 6 0 24 11 40 24 27 22 29 27 17 46 -12 19 -11 25 9 46 12 13 28 24 34 24 14 0 60 49 68 72 3 9 25 26 49 37 42 19 50 30 77 104 6 15 17 27 24 27 7 0 75 63 151 140 101 103 143 140 161 140 13 0 27 5 30 10 10 16 1177 14 1193 -2 7 -7 12 -26 12 -43 0 -17 6 -37 13 -43 9 -10 13 -284 15 -1285 2 -700 0 -1291 -3 -1315 -12 -81 148 -73 -1727 -79 -1689 -6 -2323 2 -2355 29 -16 13 -44 -10 -104 -85 l-39 -48 17 -32 c15 -27 18 -73 23 -317 3 -157 5 -2389 5 -4961 0 -4016 -2 -4678 -14 -4693 -13 -16 -18 -13 -64 31 -27 26 -123 131 -214 233 -91 102 -198 219 -237 260 -93 98 -200 220 -213 244 -6 10 -64 73 -131 140 -66 66 -137 142 -159 167 -45 55 -196 222 -302 335 -42 44 -128 139 -191 209 -63 71 -185 205 -270 299 -85 93 -177 195 -205 226 -27 31 -117 130 -200 220 -125 136 -203 224 -313 350 -7 8 -35 44 -62 80 -90 119 -128 146 -181 135 -30 -7 -45 -35 -32 -59 4 -8 66 -79 138 -158 364 -401 919 -1013 1065 -1173 91 -100 269 -295 395 -435 127 -140 304 -335 395 -435 391 -429 726 -800 738 -817 17 -23 56 -23 108 1 32 15 42 26 47 51 4 17 7 2293 7 5057 0 2764 3 5029 6 5034 3 5 850 9 2051 9 l2047 0 32 22 c18 13 38 33 43 46 8 16 11 490 11 1517 l0 1493 -26 31 c-32 38 -48 39 -71 5z"/>
</g>
</g>
  <g id="id2:id2" transform="matrix(1.25,0,0,1.25,0.0,0.0)"><g transform="translate(0.000000,825.600000) scale(0.040000,-0.040000)" fill="#bababa" stroke="none">
<path d="M7153 18714 c-7 -3 -232 -245 -500 -537 -268 -292 -571 -622 -673 -732 -250 -271 -432 -470 -845 -920 -192 -209 -422 -459 -511 -555 -184 -200 -244 -268 -244 -278 0 -4 7 -16 16 -27 l15 -20 30 18 c17 9 41 17 54 17 15 0 31 10 42 26 51 72 136 174 146 174 14 0 213 218 240 263 10 16 77 88 150 160 73 73 181 188 240 257 58 69 133 155 164 192 32 37 66 70 75 73 17 6 249 263 325 360 22 28 56 62 75 77 36 27 193 199 361 395 48 56 104 115 124 130 36 28 238 252 323 358 25 32 74 82 109 113 35 31 111 111 169 177 140 159 157 175 189 183 16 4 962 5 2103 2 l2075 -5 27 24 c18 16 26 33 26 52 l-1 29 -2146 -1 c-1180 0 -2151 -3 -2158 -5z"/>
<path d="M14123 18668 c-28 -29 -127 -136 -220 -238 -242 -265 -653 -712 -1477 -1609 -397 -431 -750 -816 -786 -855 -36 -40 -227 -250 -424 -467 -197 -216 -463 -509 -590 -649 -255 -280 -434 -478 -782 -861 -313 -344 -921 -1013 -1074 -1183 -69 -76 -127 -143 -130 -149 -3 -7 -3 -941 0 -2077 3 -1136 7 -2047 9 -2025 2 22 4 54 6 70 1 17 3 32 5 35 1 3 3 813 4 1800 1 1189 4 1794 11 1792 7 -1 10 -617 10 -1816 0 -998 3 -1818 8 -1822 4 -4 7 885 7 1976 l0 1983 47 56 c26 31 95 106 154 166 108 112 168 177 574 625 430 474 567 625 755 830 103 113 207 228 231 257 24 28 120 133 212 234 304 331 432 472 527 579 51 58 120 132 152 166 32 33 73 82 92 108 19 26 50 62 70 78 20 17 69 69 109 117 126 151 266 305 301 331 31 23 92 90 241 265 32 39 116 126 185 195 69 69 168 177 220 240 52 62 149 168 215 235 66 67 167 177 225 245 58 68 146 164 197 214 90 90 173 181 346 384 49 56 102 113 119 125 37 27 288 303 288 316 0 6 60 71 134 146 95 96 141 135 157 135 13 1 326 0 696 0 l672 -1 17 26 c12 19 14 29 6 37 -6 6 -8 17 -5 24 4 12 -109 14 -729 14 l-735 0 -50 -52z m-5439 -6179 c-3 -5 -10 -7 -15 -3 -5 3 -7 10 -3 15 3 5 10 7 15 3 5 -3 7 -10 3 -15z m-8 -104 c-2 -20 1 -38 6 -41 4 -3 5 -11 1 -17 -5 -7 -8 -20 -8 -29 0 -10 -4 -19 -10 -20 -9 -3 -16 128 -8 145 10 18 21 -6 19 -38z"/>
<path d="M8640 14268 c0 -1060 3 -1336 13 -1092 1 43 5 84 8 89 4 8 4 2079 0 2163 0 12 -5 22 -11 22 -7 0 -10 -401 -10 -1182z"/>
<path d="M8689 15408 c-6 -13 -2 -2231 3 -2234 5 -3 8 499 8 1115 0 954 -2 1139 -11 1119z"/>
</g>
</g>
</svg>
