<?xml version="1.0" standalone="no"?>
<!DOCTYPE svg PUBLIC "-//W3C//DTD SVG 1.1//EN"
 "http://www.w3.org/Graphics/SVG/1.1/DTD/svg11.dtd">
<!-- Created with svg_stack (http://github.com/astraw/svg_stack) -->
<svg xmlns:sodipodi="http://sodipodi.sourceforge.net/DTD/sodipodi-0.dtd" xmlns="http://www.w3.org/2000/svg" version="1.1" width="204.0" height="79.0">
  <defs/>
  <g id="id0:id0" transform="matrix(1.25,0,0,1.25,0.0,0.0)"><g transform="translate(0.000000,63.200000) scale(0.040000,-0.040000)" fill="#1b92b0" stroke="none">
<path d="M2240 365 c0 -9 -8 -18 -17 -22 -31 -10 -53 -35 -53 -58 0 -30 19 -45 57 -45 l33 0 0 70 c0 40 -4 70 -10 70 -5 0 -10 -7 -10 -15z m-14 -91 c-5 -13 -10 -14 -18 -6 -6 6 -8 18 -4 28 5 13 10 14 18 6 6 -6 8 -18 4 -28z"/>
<path d="M2860 310 c0 -40 4 -70 10 -70 6 0 10 30 10 70 0 40 -4 70 -10 70 -6 0 -10 -30 -10 -70z"/>
<path d="M3140 310 c0 -40 4 -70 10 -70 6 0 10 30 10 70 0 40 -4 70 -10 70 -6 0 -10 -30 -10 -70z"/>
<path d="M270 357 c-19 -9 -26 -22 -28 -50 -2 -21 2 -45 9 -53 13 -16 79 -19 79 -4 0 6 -8 10 -18 10 -25 0 -55 34 -50 57 2 11 14 19 31 21 16 2 27 8 24 15 -5 17 -19 18 -47 4z"/>
<path d="M1392 308 c2 -38 8 -63 16 -66 9 -3 12 14 12 62 0 53 -3 66 -15 66 -13 0 -15 -11 -13 -62z"/>
<path d="M1553 363 c-7 -2 -13 -13 -13 -24 0 -11 -6 -28 -12 -39 -20 -32 1 -54 54 -58 l46 -3 -2 30 c-1 17 -7 36 -14 43 -6 6 -12 20 -12 29 0 13 -23 33 -33 28 -1 0 -8 -3 -14 -6z"/>
<path d="M1757 363 c-11 -10 -8 -111 3 -118 6 -4 17 -2 25 5 9 7 15 8 20 0 14 -22 21 -7 21 43 -1 28 -5 58 -9 65 -9 13 -49 17 -60 5z"/>
<path d="M3023 360 c-54 -22 -35 -112 25 -118 18 -2 32 1 32 7 0 6 -8 11 -19 11 -48 0 -56 73 -8 78 16 2 27 8 24 15 -5 16 -26 18 -54 7z"/>
<path d="M1200 300 c0 -33 4 -60 10 -60 6 0 10 27 10 60 0 33 -4 60 -10 60 -6 0 -10 -27 -10 -60z"/>
<path d="M2100 300 c0 -45 3 -61 13 -57 7 2 12 23 12 57 0 34 -5 55 -12 58 -10 3 -13 -13 -13 -58z"/>
<path d="M2660 300 c0 -33 4 -60 10 -60 6 0 10 27 10 60 0 33 -4 60 -10 60 -6 0 -10 -27 -10 -60z"/>
<path d="M3580 300 c0 -45 3 -61 13 -57 7 2 12 23 12 57 0 34 -5 55 -12 58 -10 3 -13 -13 -13 -58z"/>
<path d="M2556 342 c-5 -9 9 -90 17 -99 4 -3 13 -3 22 1 13 5 13 9 3 26 -9 15 -10 25 -2 38 6 9 9 23 7 30 -5 13 -39 17 -47 4z"/>
<path d="M385 320 c-38 -42 18 -105 61 -70 19 17 18 60 -3 76 -25 19 -37 17 -58 -6z m44 -47 c-15 -18 -34 -1 -25 22 5 14 9 15 21 5 12 -10 13 -16 4 -27z"/>
<path d="M521 331 c-7 -5 -11 -23 -9 -47 l3 -39 35 0 c27 0 35 4 40 23 7 31 24 29 28 -3 2 -14 8 -25 13 -25 11 0 12 90 2 91 -55 6 -101 6 -112 0z"/>
<path d="M701 331 c-7 -5 -11 -23 -9 -47 l3 -39 35 0 c27 0 35 4 40 23 7 31 24 29 28 -3 2 -14 8 -25 13 -25 11 0 12 90 2 91 -55 6 -101 6 -112 0z"/>
<path d="M883 326 c-15 -7 -23 -20 -23 -36 0 -33 17 -50 50 -50 23 0 26 4 27 38 1 34 -11 64 -26 61 -3 -1 -16 -6 -28 -13z"/>
<path d="M1003 333 c-16 -6 -17 -79 -2 -88 14 -9 15 -7 23 48 7 46 4 51 -21 40z"/>
<path d="M1085 320 c-26 -29 -10 -74 28 -78 31 -4 37 13 7 21 -11 3 -20 12 -20 21 0 8 9 20 20 26 11 6 20 15 20 20 0 18 -36 11 -55 -10z"/>
<path d="M1283 326 c3 -8 -1 -20 -9 -27 -8 -7 -14 -22 -12 -33 2 -16 11 -22 41 -24 l37 -3 0 37 c0 23 -6 42 -17 50 -24 18 -47 18 -40 0z"/>
<path d="M1885 320 c-27 -30 -10 -74 29 -78 23 -3 28 0 23 13 -4 9 -1 18 8 21 22 9 18 31 -7 48 -29 20 -31 20 -53 -4z"/>
<path d="M2013 332 c-7 -4 -11 -26 -10 -50 1 -45 22 -57 47 -27 10 13 10 19 -4 34 -9 10 -14 25 -10 35 7 17 -3 21 -23 8z"/>
<path d="M2320 315 c-21 -22 -22 -27 -10 -50 10 -18 22 -25 43 -25 21 0 28 4 24 15 -4 8 -2 17 3 20 15 9 12 32 -6 49 -21 21 -26 20 -54 -9z"/>
<path d="M2437 326 c-8 -19 3 -86 14 -86 4 0 9 11 11 25 4 32 21 34 28 4 3 -12 11 -24 18 -27 16 -5 16 70 0 86 -17 17 -65 15 -71 -2z"/>
<path d="M2744 324 c4 -10 -1 -25 -10 -35 -22 -24 -3 -49 37 -49 27 0 29 3 29 38 0 42 -14 62 -43 62 -14 0 -17 -5 -13 -16z"/>
<path d="M3220 315 c-21 -22 -22 -27 -10 -50 10 -18 22 -25 43 -25 21 0 28 4 24 15 -4 8 -2 17 3 20 15 9 12 32 -6 49 -21 21 -26 20 -54 -9z"/>
<path d="M3344 324 c4 -10 -1 -25 -10 -35 -22 -24 -3 -49 37 -49 27 0 29 3 29 38 0 42 -14 62 -43 62 -14 0 -17 -5 -13 -16z"/>
<path d="M3457 326 c-8 -19 3 -86 14 -86 4 0 9 11 11 25 4 32 21 34 28 4 3 -12 11 -24 18 -27 16 -5 16 70 0 86 -17 17 -65 15 -71 -2z"/>
<path d="M3660 289 c0 -52 16 -68 22 -21 2 16 9 27 18 27 9 0 16 -11 18 -27 5 -43 22 -33 22 11 0 43 -11 55 -52 57 l-28 2 0 -49z"/>
<path d="M3801 321 c-25 -25 -27 -54 -6 -71 9 -7 13 -21 10 -31 -9 -26 29 -25 55 1 25 25 29 110 6 110 -8 0 -21 3 -29 6 -9 3 -25 -4 -36 -15z m43 -42 c-3 -5 -10 -7 -15 -3 -5 3 -7 10 -3 15 3 5 10 7 15 3 5 -3 7 -10 3 -15z"/>
</g>
</g>
  <g id="id1:id1" transform="matrix(1.25,0,0,1.25,0.0,0.0)"><g transform="translate(0.000000,63.200000) scale(0.040000,-0.040000)" fill="#126533" stroke="none">
<path d="M2810 1107 c0 -8 7 -20 15 -27 12 -10 15 -10 15 3 0 8 -7 20 -15 27 -12 10 -15 10 -15 -3z"/>
<path d="M2780 955 c-10 -12 -10 -15 3 -15 8 0 17 7 21 15 3 8 2 15 -3 15 -5 0 -14 -7 -21 -15z"/>
<path d="M253 943 c-10 -4 -13 -54 -13 -204 l0 -200 43 3 42 3 3 85 c1 47 5 91 8 99 3 10 20 -1 59 -39 l54 -53 28 33 c15 18 34 42 41 52 23 31 32 10 32 -72 0 -43 3 -85 6 -94 8 -22 80 -22 88 0 3 9 6 96 6 194 0 237 -1 238 -119 112 -47 -51 -89 -92 -92 -92 -4 0 -39 38 -79 84 -74 87 -86 96 -107 89z"/>
<path d="M2493 943 c-10 -3 -13 -40 -13 -136 0 -185 -4 -203 -49 -225 -22 -10 -59 -17 -94 -17 -54 1 -59 3 -88 38 -30 36 -61 48 -74 27 -20 -32 -85 8 -85 51 0 31 48 60 89 53 27 -4 42 -1 60 13 13 11 21 25 17 31 -11 18 -68 42 -100 42 -48 -1 -113 -34 -130 -69 -20 -38 -20 -103 -1 -141 22 -43 87 -73 144 -67 30 3 56 0 74 -10 21 -11 49 -13 105 -9 158 11 217 18 224 24 4 4 9 48 12 97 3 50 5 91 5 93 1 2 23 -20 50 -50 l49 -53 47 53 c26 28 51 50 56 46 5 -3 9 -48 9 -100 l0 -95 43 3 42 3 0 199 c0 157 -3 200 -13 204 -8 2 -37 -22 -65 -54 -29 -32 -67 -74 -85 -93 l-32 -36 -73 75 c-92 94 -109 109 -124 103z"/>
<path d="M3553 942 c-6 -4 -13 -34 -15 -67 l-3 -60 -37 3 c-107 10 -177 -118 -118 -216 28 -46 69 -60 165 -58 l80 1 3 194 c2 149 -1 196 -10 203 -16 10 -49 10 -65 0z m-25 -214 c16 -16 16 -80 0 -96 -30 -30 -88 1 -88 46 0 49 57 81 88 50z"/>
<path d="M1009 904 c-10 -12 -10 -22 -1 -47 7 -19 8 -35 2 -42 -5 -6 -11 -74 -12 -151 l-3 -139 -32 -14 c-26 -12 -33 -21 -33 -43 0 -21 6 -29 25 -34 43 -11 93 4 115 35 18 26 20 44 20 183 0 106 -4 158 -12 166 -9 9 -9 15 0 24 7 7 12 21 12 33 0 42 -54 62 -81 29z"/>
<path d="M1889 904 c-10 -12 -10 -22 -1 -47 7 -18 8 -35 3 -41 -14 -16 -17 -254 -4 -267 6 -6 26 -9 44 -7 l34 3 3 129 c2 88 -1 133 -9 143 -9 10 -9 17 -1 25 15 15 15 51 0 66 -17 17 -53 15 -69 -4z"/>
<path d="M3245 904 c-11 -11 -14 -24 -10 -38 4 -12 6 -28 5 -36 -6 -57 -10 -248 -5 -267 4 -19 12 -23 45 -23 l40 0 0 138 c0 86 -4 142 -11 149 -8 8 -8 13 0 17 6 4 11 17 11 30 0 44 -44 61 -75 30z"/>
<path d="M1733 890 c-15 -6 -23 -18 -23 -34 0 -15 -8 -30 -20 -36 -13 -7 -20 -21 -20 -40 0 -19 7 -33 20 -40 17 -9 20 -21 20 -79 0 -58 3 -71 24 -90 30 -29 97 -39 114 -18 16 18 -1 67 -22 67 -38 0 -51 101 -16 120 27 14 27 65 1 80 -12 6 -21 23 -23 42 -3 35 -18 43 -55 28z"/>
<path d="M743 804 c-35 -15 -39 -24 -22 -55 8 -15 6 -25 -10 -46 -31 -38 -28 -103 5 -134 23 -21 34 -24 122 -24 l97 0 3 90 c3 101 -14 150 -58 172 -33 16 -97 15 -137 -3z m95 -146 c16 -16 -3 -38 -34 -38 -29 0 -40 16 -24 35 15 18 42 19 58 3z"/>
<path d="M1200 802 c-47 -23 -72 -73 -67 -135 8 -97 106 -153 201 -113 46 19 52 33 27 60 -24 25 -19 36 16 36 20 0 23 5 23 38 0 101 -105 162 -200 114z m91 -77 c0 -5 -7 -12 -16 -13 -23 -5 -47 6 -40 19 8 13 56 8 56 -6z m24 -90 c0 -12 -50 -19 -71 -11 -9 3 -12 11 -9 16 8 14 80 9 80 -5z"/>
<path d="M1471 794 c-42 -35 -44 -93 -5 -129 14 -13 30 -23 34 -22 7 2 10 -3 10 -19 0 -4 -6 -1 -14 5 -11 9 -20 6 -42 -14 l-29 -25 28 -25 c40 -36 113 -35 156 1 42 35 44 93 4 130 l-26 24 21 23 c28 29 28 42 0 61 -36 25 -101 20 -137 -10z"/>
<path d="M2993 805 c-34 -15 -43 -41 -21 -63 9 -9 7 -17 -11 -35 -26 -29 -37 -86 -22 -116 19 -35 60 -48 154 -49 l87 -1 0 99 c0 56 -5 111 -12 125 -23 51 -106 70 -175 40z m87 -150 c17 -20 4 -35 -30 -35 -16 0 -32 5 -35 10 -9 15 13 40 35 40 10 0 23 -7 30 -15z"/>
<path d="M3711 794 c-42 -35 -44 -93 -5 -129 14 -13 30 -23 34 -22 7 2 10 -3 10 -19 0 -4 -6 -1 -14 5 -11 9 -20 6 -42 -14 l-29 -25 28 -25 c40 -36 113 -35 156 1 42 35 44 93 4 130 l-26 24 21 23 c28 29 28 42 0 61 -36 25 -101 20 -137 -10z"/>
</g>
</g>
  <g id="id2:id2" transform="matrix(1.25,0,0,1.25,0.0,0.0)"><g transform="translate(0.000000,63.200000) scale(0.040000,-0.040000)" fill="#ffffff" stroke="none">
<path d="M2695 1440 c-9 -15 14 -40 31 -33 22 8 18 43 -5 43 -11 0 -23 -5 -26 -10z"/>
<path d="M2595 1380 c-9 -28 6 -43 36 -38 18 2 24 9 24 28 0 34 -50 42 -60 10z"/>
<path d="M2671 1308 c-11 -31 -4 -47 27 -55 34 -8 67 29 52 58 -16 28 -68 26 -79 -3z"/>
<path d="M2519 1221 c-34 -34 -37 -69 -10 -102 27 -34 105 -33 132 2 27 34 23 66 -10 100 -38 38 -74 38 -112 0z"/>
<path d="M2698 1124 c-40 -21 -67 -80 -56 -121 9 -34 68 -83 99 -83 35 0 89 31 104 60 35 68 13 131 -51 148 -55 15 -63 15 -96 -4z"/>
<path d="M2245 1050 c-3 -5 -15 -10 -26 -10 -48 0 -133 -122 -138 -197 -1 -36 1 -43 16 -41 48 4 101 -3 119 -16 l19 -15 -17 -17 c-14 -14 -20 -16 -30 -6 -16 16 -49 15 -74 -2 -26 -18 -22 -98 5 -94 10 2 15 -3 13 -14 -2 -15 5 -18 36 -18 24 0 45 -6 53 -16 11 -14 10 -19 -9 -35 l-23 -18 33 -17 c49 -26 191 -24 238 3 l35 20 3 184 c2 180 9 216 34 191 33 -33 39 12 7 52 -12 15 -39 38 -60 52 -34 21 -50 24 -133 24 -52 0 -98 -4 -101 -10z"/>
<path d="M2620 860 c0 -11 5 -20 10 -20 6 0 10 9 10 20 0 11 -4 20 -10 20 -5 0 -10 -9 -10 -20z"/>
<path d="M2572 708 c-14 -14 -16 -64 -3 -73 11 -6 51 47 51 69 0 19 -31 21 -48 4z"/>
</g>
</g>
  <g id="id3:id3" transform="matrix(1.25,0,0,1.25,0.0,0.0)"><g transform="translate(0.000000,63.200000) scale(0.040000,-0.040000)" fill="#88cade" stroke="none">
<path d="M2686 1444 c-4 -9 -5 -19 -3 -21 7 -7 57 16 57 27 0 17 -47 11 -54 -6z"/>
<path d="M2592 1401 c-8 -4 -12 -19 -10 -32 2 -19 10 -25 34 -27 27 -3 33 1 38 24 10 38 -27 58 -62 35z"/>
<path d="M2667 1334 c-4 -4 -7 -22 -7 -39 0 -23 6 -35 24 -45 31 -16 47 -10 66 24 10 20 11 32 4 44 -11 17 -74 29 -87 16z m67 -33 c3 -4 -3 -16 -13 -25 -21 -19 -37 -7 -27 19 6 16 32 20 40 6z"/>
<path d="M2511 1244 c-26 -21 -31 -33 -31 -69 0 -57 35 -93 93 -97 l42 -3 6 -38 c7 -43 38 -90 63 -95 20 -4 21 26 1 52 -21 28 -18 73 6 97 17 17 30 20 65 16 31 -3 47 0 56 10 27 33 -57 54 -132 32 -11 -3 -16 5 -18 26 -8 88 -86 124 -151 69z m97 -30 c28 -19 28 -44 1 -78 -24 -30 -45 -33 -71 -9 -22 20 -23 61 -1 85 20 22 42 23 71 2z"/>
<path d="M2223 1104 c-99 -36 -181 -146 -189 -258 -6 -72 5 -97 31 -76 10 8 27 19 39 25 12 6 21 21 22 35 1 48 4 57 35 103 42 63 121 102 193 94 69 -7 102 -26 159 -94 104 -122 119 -136 128 -122 4 7 4 18 0 24 -4 5 -8 26 -8 46 -2 77 -76 173 -167 215 -60 28 -175 32 -243 8z"/>
<path d="M2560 739 c0 -37 2 -40 23 -34 38 12 42 23 17 50 -32 34 -40 32 -40 -16z"/>
<path d="M2078 703 c-5 -57 27 -103 71 -103 20 0 30 8 40 31 13 30 12 33 -10 50 -13 10 -34 19 -46 19 -12 0 -25 5 -28 10 -10 16 -25 12 -27 -7z"/>
</g>
</g>
</svg>
