<svg xmlns="http://www.w3.org/2000/svg" version="1.0" width="602.000000pt" height="168.000000pt" viewBox="0 0 602.000000 168.000000" preserveAspectRatio="xMidYMid meet">
  <g transform="translate(0.000000,168.000000) scale(0.100000,-0.100000)" stroke="none">
    <path d="M 0 0 H 6020.0 V 1680.0 H 0 Z" fill="#ffffff" id="background"/>
    <path stroke="none" d="M2540 1534 c-146 -146 -210 -204 -227 -204 -10 0 -30 -8 -46 -18 -21 -15 -38 -17 -72 -12 -37 6 -44 4 -48 -11 -6 -21 22 -49 47 -49 9 0 25 -4 35 -10 22 -11 59 0 148 43 58 28 92 61 136 129 21 33 3 51 -19 19 -8 -12 -20 -21 -25 -21 -6 0 -1 13 10 29 12 16 21 34 21 41 0 8 10 9 29 5 25 -5 31 -2 42 25 16 35 42 36 47 2 4 -25 22 -28 52 -10 14 9 22 10 31 1 8 -8 19 -8 39 0 31 12 60 -3 60 -29 0 -16 62 -44 97 -44 20 0 106 -49 123 -70 3 -3 31 -25 62 -49 46 -34 56 -47 55 -69 -2 -24 2 -27 33 -30 37 -4 70 -25 138 -89 22 -21 48 -45 58 -55 11 -9 33 -32 49 -52 17 -19 36 -35 43 -36 7 0 28 -11 46 -25 33 -25 80 -33 91 -15 9 15 45 12 45 -4 0 -16 13 -21 80 -31 27 -5 63 -21 91 -41 51 -37 102 -53 113 -35 4 6 1 11 -8 11 -8 0 -36 16 -61 36 -53 40 -125 74 -158 74 -12 1 -61 11 -109 23 -82 21 -92 27 -158 87 -38 36 -70 70 -70 75 0 12 -103 88 -125 93 -8 2 -15 7 -15 11 0 5 -40 38 -90 75 -49 36 -90 71 -90 76 0 14 -140 120 -159 120 -9 0 -31 9 -49 20 -18 11 -39 20 -47 20 -9 0 -24 5 -34 12 -15 9 -22 8 -36 -5 -19 -20 -56 -15 -97 14 -15 10 -28 19 -30 19 -2 -1 -23 -21 -48 -46z" fill="#780032" id="780032-000001"/>
    <path stroke="none" d="M2840 1470 c0 -5 -4 -10 -10 -10 -5 0 -10 5 -10 10 0 6 5 10 10 10 6 0 10 -4 10 -10z" fill="#ffffff" id="ffffff-000002"/>
    <path stroke="none" d="M2412 1339 c-18 -16 -38 -29 -45 -29 -6 1 6 16 27 35 22 19 42 32 45 29 3 -3 -9 -19 -27 -35z" fill="#ffffff" id="ffffff-000007"/>
    <path stroke="none" d="M2005 1316 c-9 -13 -43 -47 -78 -76 -57 -49 -127 -136 -127 -159 0 -11 -32 -31 -49 -31 -16 0 -13 21 6 42 9 10 14 20 12 23 -7 7 -100 -40 -110 -56 -20 -32 2 -40 33 -12 30 27 31 8 2 -36 -28 -42 -44 -52 -44 -26 0 18 -26 20 -34 3 -24 -53 -68 -113 -106 -145 -73 -63 -186 -143 -202 -143 -8 0 -18 -4 -23 -8 -6 -5 -37 -19 -70 -32 -117 -46 -220 -99 -250 -127 -37 -35 -101 -80 -177 -121 -32 -18 -84 -46 -115 -64 -139 -76 -226 -151 -156 -133 16 3 36 14 45 22 10 8 24 13 33 9 16 -6 100 29 111 45 3 5 15 9 26 9 23 0 195 89 243 125 17 13 65 54 108 91 133 118 154 134 186 140 24 5 35 2 45 -11 12 -16 17 -15 83 14 39 17 76 31 81 31 18 0 42 37 40 64 -2 20 6 33 32 54 19 14 49 40 65 57 17 16 42 37 56 46 14 10 31 35 39 59 16 49 60 82 60 44 0 -26 25 -9 28 19 3 21 9 27 27 27 17 0 42 21 89 77 36 42 66 80 66 85 0 5 10 6 23 3 17 -5 32 3 60 29 44 41 45 48 12 70 -34 22 -52 20 -70 -8z" fill="#780032" id="780032-000008"/>
    <path stroke="none" d="M1632 928 c-7 -7 -12 -8 -12 -2 0 14 12 26 19 19 2 -3 -1 -11 -7 -17z" fill="#ffffff" id="ffffff-000012"/>
    <path stroke="none" d="M2040 1190 c0 -7 3 -10 7 -7 3 4 3 10 0 14 -4 3 -7 0 -7 -7z" fill="#780032" id="780032-000007"/>
    <path stroke="none" d="M3030 842 c-48 -46 -90 -72 -119 -72 -20 0 -21 -2 -11 -15 15 -18 52 -19 83 -2 35 20 67 49 67 63 0 7 8 17 18 22 23 12 90 8 104 -6 7 -7 18 -12 25 -12 8 0 27 -10 43 -22 16 -12 33 -18 37 -14 11 11 -66 76 -88 76 -10 0 -20 4 -23 9 -3 5 -27 8 -53 8 -41 0 -53 -6 -83 -35z" fill="#780032" id="780032-000011"/>
    <path stroke="none" d="M4570 820 c0 -6 11 -16 25 -22 14 -6 25 -17 25 -24 0 -14 51 -54 69 -54 21 0 11 15 -18 28 -20 9 -34 25 -41 48 -9 26 -17 34 -36 34 -13 0 -24 -5 -24 -10z" fill="#780032" id="780032-000015"/>
    <path stroke="none" d="M4070 810 c0 -12 65 -30 108 -30 18 0 41 -4 50 -9 31 -15 78 -24 66 -11 -32 32 -224 76 -224 50z" fill="#780032" id="780032-000012"/>
    <path stroke="none" d="M4432 800 c-31 -29 -27 -43 8 -25 16 8 37 15 48 15 10 0 27 7 38 15 18 13 16 14 -27 15 -32 0 -52 -6 -67 -20z" fill="#780032" id="780032-000014"/>
    <path stroke="none" d="M2785 730 c-27 -27 -56 -50 -65 -50 -9 0 -33 -23 -53 -50 -21 -28 -49 -56 -62 -62 -23 -10 -29 -6 -76 40 -29 29 -60 52 -70 52 -11 0 -19 -3 -19 -6 0 -14 22 -44 32 -44 7 0 29 -17 50 -37 35 -34 37 -38 21 -55 -14 -16 -14 -18 0 -24 21 -8 85 24 92 45 3 9 23 34 45 55 22 21 40 42 40 46 0 5 8 11 18 14 9 3 36 24 60 47 23 23 42 38 42 34 0 -5 9 0 20 10 26 24 25 35 -3 35 -14 0 -41 -19 -72 -50z" fill="#780032" id="780032-000027"/>
    <path stroke="none" d="M3296 755 c9 -13 23 -27 32 -30 10 -2 36 -23 59 -44 59 -56 81 -68 136 -76 26 -4 50 -11 53 -16 3 -5 13 -9 22 -9 25 1 -27 39 -52 40 -39 0 -92 25 -126 60 -38 38 -120 100 -133 100 -4 0 0 -11 9 -25z" fill="#780032" id="780032-000031"/>
    <path stroke="none" d="M4331 761 c-17 -11 -5 -32 14 -25 18 7 28 34 12 34 -7 0 -18 -4 -26 -9z" fill="#780032" id="780032-000017"/>
    <path stroke="none" d="M2126 737 c-46 -22 -93 -63 -83 -74 5 -4 16 -2 25 5 31 22 96 49 135 55 34 5 40 3 56 -24 27 -43 83 -79 125 -79 25 0 36 4 36 15 0 8 -9 15 -21 15 -30 0 -58 17 -106 64 -36 35 -49 41 -85 41 -24 0 -60 -8 -82 -18z" fill="#780032" id="780032-000020"/>
    <path stroke="none" d="M4700 710 c0 -5 5 -10 10 -10 6 0 10 5 10 10 0 6 -4 10 -10 10 -5 0 -10 -4 -10 -10z" fill="#780032" id="780032-000026"/>
    <path stroke="none" d="M4780 671 c0 -13 44 -39 76 -46 l29 -6 -35 30 c-33 30 -70 41 -70 22z" fill="#780032" id="780032-000029"/>
    <path stroke="none" d="M1975 622 c-27 -20 -61 -50 -74 -65 -25 -30 -80 -57 -115 -57 -24 0 -91 -38 -82 -47 3 -3 16 1 28 9 13 9 44 19 68 23 58 9 75 19 129 72 25 23 51 43 57 43 7 0 22 14 34 30 28 40 16 37 -45 -8z" fill="#780032" id="780032-000050"/>
    <path stroke="none" d="M4880 610 c0 -5 5 -10 10 -10 6 0 10 5 10 10 0 6 -4 10 -10 10 -5 0 -10 -4 -10 -10z" fill="#780032" id="780032-000034"/>
    <path stroke="none" d="M5070 530 c0 -13 28 -25 38 -16 3 4 0 11 -8 16 -20 13 -30 12 -30 0z" fill="#780032" id="780032-000049"/>
    <path stroke="none" d="M5145 503 c-19 -15 -19 -15 10 -8 17 4 47 7 68 6 25 -1 36 2 32 9 -10 16 -88 11 -110 -7z" fill="#780032" id="780032-000052"/>
    <path stroke="none" d="M2446 480 c-22 -11 -42 -24 -45 -29 -4 -5 -44 -31 -90 -58 -83 -47 -120 -84 -70 -68 63 20 152 69 203 112 76 64 76 80 2 43z" fill="#780032" id="780032-000053"/>
    <path stroke="none" d="M1465 430 c3 -5 8 -10 11 -10 2 0 4 5 4 10 0 6 -5 10 -11 10 -5 0 -7 -4 -4 -10z" fill="#780032" id="780032-000059"/>
    <path stroke="none" d="M5380 401 c0 -6 9 -15 20 -21 13 -7 20 -7 20 -1 0 6 -9 15 -20 21 -13 7 -20 7 -20 1z" fill="#780032" id="780032-000064"/>
  </g>
</svg>
