<?xml version="1.0" standalone="no"?>
<!DOCTYPE svg PUBLIC "-//W3C//DTD SVG 1.1//EN"
 "http://www.w3.org/Graphics/SVG/1.1/DTD/svg11.dtd">
<!-- Created with svg_stack (http://github.com/astraw/svg_stack) -->
<svg xmlns:sodipodi="http://sodipodi.sourceforge.net/DTD/sodipodi-0.dtd" xmlns="http://www.w3.org/2000/svg" version="1.1" width="402.0" height="402.0">
  <defs/>
  <g id="id0:id0" transform="matrix(1.25,0,0,1.25,0.0,0.0)"><g transform="translate(0.000000,321.600000) scale(0.040000,-0.040000)" fill="#840000" stroke="none">
<path d="M6985 5754 c-174 -28 -411 -113 -750 -269 -326 -150 -573 -275 -580 -292 -15 -39 20 -30 176 48 90 45 220 108 289 139 69 32 160 74 203 94 42 20 79 36 82 36 3 0 40 16 82 36 154 72 253 104 448 148 86 20 348 21 415 3 69 -19 200 -92 271 -151 68 -56 135 -141 120 -150 -5 -3 -35 6 -66 20 -59 27 -81 34 -195 59 -90 21 -419 20 -515 -1 -154 -33 -212 -47 -290 -69 -33 -10 -80 -23 -105 -31 -187 -53 -425 -146 -638 -250 -84 -41 -155 -74 -158 -74 -2 0 -43 -18 -90 -40 -47 -22 -88 -40 -90 -40 -3 0 -43 -18 -90 -40 -47 -22 -88 -40 -90 -40 -3 0 -42 -17 -88 -39 -45 -21 -112 -49 -147 -61 -35 -12 -68 -26 -74 -30 -5 -4 -59 -26 -120 -49 -60 -24 -132 -51 -159 -62 -27 -10 -54 -19 -61 -19 -18 0 -48 -37 -40 -49 9 -16 23 -14 105 18 41 16 136 52 210 81 157 60 227 89 328 136 41 19 76 34 78 34 2 0 43 18 90 40 47 22 88 40 90 40 3 0 43 18 90 40 47 22 87 40 89 40 2 0 74 34 160 76 212 103 226 106 438 111 l177 4 57 -30 c64 -35 79 -37 119 -16 47 24 101 20 120 -10 l17 -25 -28 -63 c-16 -34 -42 -93 -60 -132 -17 -38 -38 -86 -45 -105 -23 -58 -139 -291 -178 -355 -93 -157 -278 -405 -302 -405 -4 0 -30 -19 -56 -43 -27 -23 -60 -50 -74 -60 -14 -9 -45 -31 -70 -48 -75 -53 -239 -132 -345 -166 -177 -56 -195 -58 -415 -57 -208 2 -276 12 -252 36 18 18 14 36 -9 43 -24 8 -44 -7 -44 -33 0 -9 -6 -16 -14 -14 -14 3 -41 -15 -41 -29 0 -5 12 -12 28 -15 57 -14 81 -33 92 -74 16 -59 -1 -110 -51 -155 l-41 -37 -77 5 c-42 3 -94 10 -116 15 -22 6 -71 18 -110 27 -38 10 -79 21 -90 25 -71 26 -84 28 -96 14 -15 -19 2 -40 39 -47 15 -3 68 -16 117 -30 165 -45 209 -52 310 -52 136 1 197 20 269 86 31 28 72 80 92 115 34 60 38 64 72 64 46 0 189 24 263 44 266 71 579 268 751 473 86 103 182 244 252 371 31 56 56 104 56 107 0 2 20 46 45 97 24 51 67 147 95 212 88 208 220 376 350 445 81 43 170 64 233 56 75 -11 222 -61 296 -101 97 -53 113 -36 61 65 -66 132 -230 264 -420 339 -35 14 -331 25 -395 16z"/>
<path d="M4564 3878 c-9 -14 31 -48 58 -48 11 0 48 -9 82 -20 33 -11 88 -26 121 -34 33 -8 83 -21 112 -29 53 -14 76 -8 66 19 -5 15 -93 42 -243 75 -30 7 -59 16 -64 21 -6 4 -25 8 -42 8 -18 0 -36 5 -39 10 -8 14 -42 13 -51 -2z"/>
</g>
</g>
  <g id="id1:id1" transform="matrix(1.25,0,0,1.25,0.0,0.0)"><g transform="translate(0.000000,321.600000) scale(0.040000,-0.040000)" fill="#5891f1" stroke="none">
<path d="M1233 5121 c-22 -34 -78 -70 -134 -85 -34 -9 -53 -19 -52 -27 3 -26 110 -314 132 -358 33 -63 257 -371 270 -371 3 0 61 -53 127 -118 132 -130 258 -234 434 -362 63 -45 149 -111 191 -146 67 -55 143 -104 159 -104 3 0 11 4 18 8 9 7 -1 44 -43 158 -42 112 -56 163 -57 206 0 31 -4 60 -7 65 -17 27 -277 225 -309 237 -20 7 -53 19 -72 26 -37 14 -140 79 -177 113 l-23 20 -20 -18 c-22 -20 -20 -21 -38 50 -11 42 -108 314 -135 377 -14 34 -40 73 -162 248 -78 111 -82 114 -102 81z"/>
<path d="M3082 4355 c-39 -35 -62 -39 -62 -11 0 14 -42 26 -86 26 -18 0 -25 -7 -30 -27 -23 -102 -36 -141 -66 -190 -73 -122 -233 -233 -336 -233 -51 0 -75 12 -134 68 -21 20 -41 32 -45 28 -14 -14 -5 -122 17 -195 36 -122 56 -161 81 -158 31 3 38 -29 48 -214 10 -180 27 -231 102 -308 50 -50 92 -71 143 -71 53 0 66 8 66 44 0 36 48 119 78 135 10 5 43 13 73 17 30 3 63 15 74 25 45 40 127 51 179 24 39 -21 48 -19 79 13 46 48 69 115 62 180 -9 83 -22 117 -61 163 -36 43 -40 54 -25 63 16 10 80 -74 102 -133 32 -84 28 -168 -11 -237 -17 -30 -28 -59 -25 -64 3 -5 21 -12 40 -16 29 -5 45 0 105 37 38 24 70 47 70 52 0 5 -9 22 -20 37 -43 60 -61 128 -90 340 -7 47 -21 116 -32 153 -16 55 -24 70 -46 79 -73 30 -171 78 -177 88 -3 5 0 13 8 16 15 5 47 -7 262 -101 251 -110 459 -175 560 -175 19 0 63 11 97 25 34 14 71 25 82 25 23 0 96 -45 96 -60 0 -20 -23 -21 -44 -1 -12 12 -33 21 -45 21 -60 0 -311 -114 -375 -171 -40 -34 -216 -264 -216 -280 0 -4 11 -10 24 -13 36 -9 83 -52 113 -105 15 -25 28 -47 29 -49 4 -6 184 118 254 174 87 69 138 125 278 307 66 85 76 107 68 151 -8 40 -47 92 -76 101 -11 3 -66 33 -123 65 -58 32 -135 72 -173 88 -38 17 -116 50 -174 75 -58 25 -157 66 -220 90 -63 24 -164 63 -224 86 -65 25 -134 44 -171 48 l-62 6 -41 -38z"/>
<path d="M5325 3640 c3 -5 8 -10 11 -10 2 0 4 5 4 10 0 6 -5 10 -11 10 -5 0 -7 -4 -4 -10z"/>
<path d="M3820 3199 c-101 -77 -138 -120 -190 -221 -37 -70 -45 -79 -65 -74 -15 4 -28 -1 -41 -15 -43 -48 -209 -141 -306 -173 -10 -3 -18 -12 -18 -19 0 -18 211 -299 229 -305 10 -4 12 2 7 22 -6 23 5 39 88 128 51 57 113 114 137 128 92 53 139 121 283 407 36 73 66 139 66 147 0 12 -66 36 -98 36 -6 0 -47 -28 -92 -61z"/>
<path d="M4124 3229 c-4 -7 4 -20 19 -31 15 -11 27 -26 27 -35 0 -8 -19 -55 -42 -104 -22 -49 -38 -92 -35 -95 13 -14 39 17 72 84 19 40 39 72 46 72 15 0 133 -84 186 -133 51 -47 86 -100 81 -124 -2 -14 -14 -16 -68 -14 -58 2 -70 -1 -113 -30 -38 -25 -47 -36 -43 -53 3 -12 -6 -43 -21 -74 -22 -45 -25 -61 -20 -109 5 -49 11 -62 48 -99 39 -40 161 -115 369 -227 47 -26 196 -87 330 -138 135 -50 271 -106 302 -125 60 -37 66 -37 157 -8 46 15 186 83 286 140 89 50 289 215 293 242 4 24 -98 186 -122 195 -17 7 -166 -60 -241 -108 -77 -50 -143 -119 -216 -227 -59 -88 -69 -114 -48 -135 13 -13 5 -43 -10 -43 -6 0 -18 14 -26 31 -24 46 -262 325 -342 400 -38 36 -123 99 -189 141 -65 41 -124 86 -131 98 -6 13 -35 37 -65 53 -71 39 -76 43 -84 80 -16 78 -70 141 -201 238 -51 38 -96 76 -102 86 -14 27 -88 66 -97 52z"/>
<path d="M4225 2174 c-84 -66 -169 -111 -224 -120 -23 -4 -44 -10 -46 -15 -3 -4 77 -89 177 -188 131 -128 226 -212 333 -291 83 -62 175 -138 206 -171 52 -55 60 -59 100 -59 37 0 57 9 124 54 44 30 118 88 164 128 89 76 300 322 301 349 0 31 -128 127 -183 136 -29 4 -43 -2 -108 -54 -136 -109 -191 -188 -264 -381 l-27 -74 22 -30 c15 -21 19 -33 11 -41 -21 -21 -71 51 -71 102 0 24 -89 231 -160 376 -28 55 -73 127 -101 160 -82 96 -160 175 -172 174 -7 0 -43 -25 -82 -55z"/>
</g>
</g>
  <g id="id2:id2" transform="matrix(1.25,0,0,1.25,0.0,0.0)"><g transform="translate(0.000000,321.600000) scale(0.040000,-0.040000)" fill="#a3a695" stroke="none">
<path d="M2448 6846 c-26 -17 -54 -26 -90 -28 -48 -3 -54 -6 -79 -43 -25 -36 -30 -39 -67 -36 -52 3 -109 -23 -133 -63 -16 -27 -26 -32 -71 -36 -49 -5 -54 -8 -70 -40 -34 -70 -15 -99 64 -100 29 0 60 -8 83 -21 30 -18 44 -20 91 -14 45 5 59 3 75 -10 14 -13 28 -16 56 -12 30 5 50 0 97 -23 37 -19 74 -30 101 -30 32 0 52 -7 80 -30 22 -18 50 -30 67 -30 18 0 44 -12 67 -30 21 -17 55 -34 77 -37 21 -4 59 -19 83 -35 25 -15 58 -28 74 -28 19 0 38 -10 57 -30 15 -16 40 -34 55 -40 25 -10 26 -12 13 -28 -24 -28 -30 -52 -34 -159 l-4 -103 35 -38 c22 -25 35 -49 35 -67 0 -20 12 -39 39 -64 l38 -36 -21 -28 c-18 -24 -22 -45 -24 -138 l-4 -109 22 0 c12 0 34 -7 49 -16 26 -15 30 -15 55 1 15 10 38 37 52 61 14 24 30 44 35 44 20 0 19 -29 -2 -65 l-23 -38 19 -13 c10 -8 24 -14 30 -14 7 0 35 -25 63 -55 62 -66 77 -70 68 -16 -6 37 -4 41 28 60 39 24 56 64 56 128 0 24 9 61 20 82 11 22 24 63 29 93 5 29 15 72 22 96 9 34 9 51 -1 82 -11 33 -10 45 4 79 23 58 20 109 -9 160 -21 37 -24 51 -19 92 9 65 -9 106 -52 124 l-34 14 6 45 c9 66 -1 95 -40 111 -25 11 -35 23 -45 57 -21 71 -58 100 -143 112 -50 8 -67 21 -50 38 17 17 -17 67 -60 89 -21 10 -55 19 -78 19 -34 0 -42 4 -50 25 -22 57 -121 70 -198 25 -38 -23 -57 -18 -40 10 15 23 -3 47 -49 67 -46 19 -89 16 -139 -9 -41 -20 -44 -20 -68 -4 -14 9 -45 19 -68 22 -35 5 -50 1 -80 -20z"/>
<path d="M3060 5690 c0 -5 5 -10 10 -10 6 0 10 5 10 10 0 6 -4 10 -10 10 -5 0 -10 -4 -10 -10z"/>
<path d="M7307 5459 c7 -7 24 -8 54 -1 l44 10 -54 1 c-40 1 -52 -2 -44 -10z"/>
<path d="M3080 5420 c0 -11 5 -20 10 -20 6 0 10 9 10 20 0 11 -4 20 -10 20 -5 0 -10 -9 -10 -20z"/>
<path d="M7780 5340 c0 -6 7 -10 15 -10 8 0 15 2 15 4 0 2 -7 6 -15 10 -8 3 -15 1 -15 -4z"/>
<path d="M3125 5300 c-11 -18 7 -29 38 -23 28 6 38 23 13 23 -8 0 -21 3 -29 6 -8 3 -18 0 -22 -6z"/>
<path d="M3240 5290 c0 -5 5 -10 10 -10 6 0 10 5 10 10 0 6 -4 10 -10 10 -5 0 -10 -4 -10 -10z"/>
<path d="M3280 4830 c0 -5 5 -10 10 -10 6 0 10 5 10 10 0 6 -4 10 -10 10 -5 0 -10 -4 -10 -10z"/>
<path d="M3198 4793 c-14 -16 -32 -41 -39 -58 -16 -34 -57 -45 -96 -24 -30 16 -47 1 -97 -89 -40 -71 -43 -84 -22 -101 12 -10 21 -5 47 23 21 24 41 36 58 36 15 0 43 13 62 29 27 22 39 27 47 19 16 -16 28 -2 13 15 -9 12 -4 20 22 40 19 14 40 41 46 59 7 18 17 40 21 49 20 38 -27 39 -62 2z"/>
<path d="M3200 4592 c0 -14 59 -66 67 -59 3 4 -6 21 -22 37 -28 30 -45 38 -45 22z"/>
</g>
</g>
  <g id="id3:id3" transform="matrix(1.25,0,0,1.25,0.0,0.0)"><g transform="translate(0.000000,321.600000) scale(0.040000,-0.040000)" fill="#dfc183" stroke="none">
<path d="M1905 6458 c-25 -15 -101 -129 -148 -223 -52 -105 -117 -259 -117 -279 0 -7 -6 -26 -14 -42 -8 -16 -17 -39 -21 -51 -6 -23 2 -28 63 -35 12 -2 21 -7 20 -13 -2 -6 -30 -9 -65 -7 -59 3 -63 2 -69 -21 -6 -28 12 -71 26 -62 5 3 18 0 29 -7 17 -10 24 -9 45 11 14 13 24 29 23 35 -1 6 8 12 21 14 15 2 22 9 18 17 -8 21 9 27 41 13 15 -6 32 -10 36 -9 5 1 40 -8 79 -19 110 -33 114 -22 23 70 -68 68 -85 80 -122 86 -24 3 -46 10 -49 15 -9 15 39 27 84 20 38 -5 57 -19 163 -120 83 -79 118 -119 114 -130 -3 -11 12 -36 42 -68 52 -56 93 -71 159 -58 34 6 36 8 30 36 -5 24 -2 31 17 39 26 11 185 30 304 37 l82 4 45 -30 c48 -34 78 -69 70 -83 -3 -4 -26 6 -50 23 -55 38 -96 44 -194 29 -41 -6 -102 -14 -134 -18 -100 -12 -75 -46 40 -55 33 -3 80 -14 104 -26 23 -11 46 -18 50 -16 12 8 149 -43 248 -92 83 -42 116 -52 177 -57 18 -1 20 6 22 69 2 39 8 93 14 120 10 46 9 54 -10 85 -11 19 -21 44 -21 56 0 11 -16 37 -35 58 -37 41 -52 89 -40 134 4 15 6 50 6 78 -1 28 3 62 8 76 8 21 5 32 -16 62 -15 20 -34 36 -44 36 -10 0 -48 16 -85 35 -37 19 -78 35 -91 35 -30 0 -72 21 -97 49 -11 12 -31 21 -46 21 -15 0 -44 11 -64 25 -23 15 -51 25 -74 25 -20 0 -64 12 -97 27 -34 14 -76 25 -98 24 -20 -1 -50 5 -67 14 -16 8 -55 15 -87 15 -33 0 -67 6 -78 14 -23 16 -148 26 -170 14z m-201 -509 c-3 -5 -10 -7 -15 -3 -5 3 -7 10 -3 15 3 5 10 7 15 3 5 -3 7 -10 3 -15z"/>
<path d="M1780 5770 c0 -5 5 -10 11 -10 5 0 7 5 4 10 -3 6 -8 10 -11 10 -2 0 -4 -4 -4 -10z"/>
<path d="M1814 5746 c-10 -8 -16 -17 -12 -21 9 -9 68 17 62 27 -8 12 -28 10 -50 -6z"/>
<path d="M1720 5730 c0 -5 5 -10 10 -10 6 0 10 5 10 10 0 6 -4 10 -10 10 -5 0 -10 -4 -10 -10z"/>
<path d="M1680 5710 c0 -5 5 -10 10 -10 6 0 10 5 10 10 0 6 -4 10 -10 10 -5 0 -10 -4 -10 -10z"/>
<path d="M1585 5668 c-15 -46 -35 -124 -35 -137 0 -9 17 -27 38 -42 33 -22 55 -33 152 -71 14 -6 33 -14 42 -19 10 -5 31 -9 47 -9 17 0 33 -4 36 -10 3 -5 35 -10 69 -10 l64 0 21 45 c27 57 27 97 2 110 -11 6 -46 23 -78 39 -32 16 -65 35 -73 41 -8 7 -39 20 -68 30 -29 9 -56 23 -59 31 -6 17 -33 18 -68 2 -19 -9 -28 -9 -37 0 -16 16 -48 15 -53 0z"/>
<path d="M2090 5635 c7 -9 15 -13 17 -11 7 7 -7 26 -19 26 -6 0 -6 -6 2 -15z"/>
<path d="M2310 5570 c0 -5 16 -10 36 -10 21 0 33 4 29 10 -3 6 -19 10 -36 10 -16 0 -29 -4 -29 -10z"/>
<path d="M2312 5507 c-15 -16 -18 -26 -11 -39 6 -12 5 -19 -4 -25 -17 -10 -47 -75 -47 -101 0 -11 7 -25 15 -32 16 -14 10 -34 -7 -24 -7 4 -8 2 -4 -4 4 -6 13 -9 21 -6 8 3 27 -3 43 -15 16 -11 62 -32 103 -47 41 -15 78 -31 84 -36 5 -4 21 -8 36 -8 15 0 31 -5 35 -11 4 -7 37 -10 88 -8 45 2 88 -1 95 -6 11 -6 13 -4 8 8 -4 10 3 33 14 52 12 20 27 54 34 78 7 23 19 42 26 43 31 1 57 16 67 38 14 32 -13 57 -65 60 -21 1 -48 8 -60 14 -47 26 -53 1 -18 -71 19 -38 0 -45 -51 -18 -21 12 -46 21 -55 21 -25 0 -41 24 -27 38 9 9 9 12 1 12 -7 0 -14 -4 -18 -9 -7 -12 -105 -2 -123 12 -7 5 -43 15 -80 21 l-67 11 3 32 c4 40 -10 48 -36 20z"/>
<path d="M2630 5510 c0 -5 5 -10 10 -10 6 0 10 5 10 10 0 6 -4 10 -10 10 -5 0 -10 -4 -10 -10z"/>
<path d="M2132 5492 c-28 -3 -36 -11 -62 -62 -34 -67 -71 -100 -112 -100 -40 0 -173 28 -228 47 -73 26 -167 70 -174 82 -15 23 -36 10 -46 -30 -14 -52 -14 -297 0 -403 22 -172 75 -359 142 -506 52 -112 132 -187 252 -236 l91 -38 130 0 c113 0 141 3 216 26 116 36 314 114 369 146 59 33 160 131 216 208 49 69 54 91 22 96 -13 2 -23 10 -23 18 0 12 11 14 49 12 35 -2 53 2 67 14 10 9 19 15 20 13 0 -2 2 -15 3 -27 5 -40 43 -54 70 -26 18 17 21 40 6 49 -10 6 54 73 171 176 123 110 164 209 115 284 -19 29 -93 65 -134 65 -26 0 -43 -10 -80 -49 -53 -55 -79 -71 -117 -71 -34 0 -41 22 -25 82 6 27 9 52 5 56 -12 13 -119 10 -166 -4 -42 -13 -46 -17 -62 -66 -9 -29 -27 -71 -40 -93 l-23 -40 -99 0 c-90 0 -112 4 -230 43 -145 47 -199 74 -228 114 -19 25 -19 31 -7 87 7 33 10 71 6 85 -8 31 -50 53 -94 48z m-154 -381 c32 -21 49 -38 43 -44 -5 -5 -18 -4 -32 4 -38 20 -98 73 -92 81 2 5 10 5 16 0 7 -4 36 -23 65 -41z m187 -40 c7 -12 -12 -24 -25 -16 -11 7 -4 25 10 25 5 0 11 -4 15 -9z m-470 -74 c-9 -25 29 -51 91 -63 21 -4 71 -22 112 -40 40 -19 81 -34 91 -34 27 0 33 -12 15 -31 -35 -39 -8 -57 141 -94 78 -19 93 -21 112 -9 39 24 33 -2 -10 -43 -52 -49 -124 -106 -155 -122 -31 -16 -59 -7 -42 14 18 22 3 35 -43 35 -23 0 -71 7 -106 15 -69 17 -91 14 -91 -9 0 -13 33 -29 57 -27 6 1 14 -3 18 -8 3 -6 12 -8 19 -5 17 7 30 -12 16 -21 -6 -4 -17 -2 -24 4 -7 6 -16 8 -19 5 -3 -3 -11 -2 -18 2 -7 4 -23 9 -35 10 -32 3 -101 49 -121 81 -13 20 -20 57 -24 143 -7 129 -12 146 -40 153 -18 5 -19 9 -9 27 18 33 76 49 65 17z m369 -168 c-3 -5 -10 -7 -15 -3 -5 3 -7 10 -3 15 3 5 10 7 15 3 5 -3 7 -10 3 -15z m51 1 c4 -6 10 -8 15 -5 5 3 11 1 15 -4 3 -6 12 -8 20 -5 7 3 24 0 37 -7 29 -16 78 -18 100 -5 14 8 23 6 39 -11 42 -42 2 -69 -58 -39 -33 18 -61 28 -88 33 -11 2 -27 6 -35 10 -8 3 -18 7 -22 8 -5 2 -11 4 -15 5 -9 3 -24 6 -36 8 -11 2 1 22 13 22 5 0 12 -5 15 -10z"/>
<path d="M1700 4916 c0 -10 9 -16 25 -16 14 0 25 5 25 10 0 6 -4 10 -9 10 -5 0 -16 3 -25 6 -11 4 -16 1 -16 -10z"/>
<path d="M1780 4890 c0 -5 5 -10 10 -10 6 0 10 5 10 10 0 6 -4 10 -10 10 -5 0 -10 -4 -10 -10z"/>
<path d="M1920 4830 c0 -5 5 -10 10 -10 6 0 10 5 10 10 0 6 -4 10 -10 10 -5 0 -10 -4 -10 -10z"/>
<path d="M2968 5383 c-17 -4 -32 -30 -20 -36 4 -2 20 1 35 8 22 9 25 14 15 21 -7 6 -20 9 -30 7z"/>
<path d="M3116 5274 c-22 -21 -21 -54 2 -54 28 1 66 35 59 54 -8 20 -41 21 -61 0z"/>
<path d="M3480 5205 c0 -8 5 -15 10 -15 6 0 10 7 10 15 0 8 -4 15 -10 15 -5 0 -10 -7 -10 -15z"/>
<path d="M3285 4875 c-41 -36 -47 -46 -35 -54 9 -7 18 -7 24 -1 6 6 18 10 27 10 20 0 69 54 69 76 0 26 -35 14 -85 -31z"/>
<path d="M2863 4501 c-35 -37 -63 -71 -63 -74 0 -17 56 -4 94 22 63 43 68 52 54 89 -7 18 -15 31 -18 31 -3 -1 -33 -32 -67 -68z"/>
<path d="M2556 4309 c-66 -27 -127 -49 -136 -49 -9 0 -24 -6 -34 -13 -17 -12 -16 -17 14 -74 32 -60 33 -90 3 -79 -17 7 -42 -20 -43 -45 0 -8 15 -29 33 -46 87 -82 132 -85 238 -15 79 52 166 138 193 190 l17 33 -68 74 c-37 41 -75 74 -83 74 -8 0 -69 -23 -134 -50z"/>
<path d="M2790 4338 c0 -13 49 -68 61 -68 3 0 12 14 19 31 11 26 11 32 -1 40 -21 13 -79 11 -79 -3z"/>
<path d="M3702 2658 c-29 -14 -71 -53 -128 -119 -46 -54 -84 -102 -84 -108 0 -17 167 -124 184 -118 22 9 158 171 183 220 30 56 29 83 -6 118 -36 36 -85 38 -149 7z"/>
<path d="M3463 2353 c-7 -18 65 -93 90 -93 22 0 48 25 42 40 -7 19 -87 70 -109 70 -9 0 -19 -7 -23 -17z"/>
</g>
</g>
  <g id="id4:id4" transform="matrix(1.25,0,0,1.25,0.0,0.0)"><g transform="translate(0.000000,321.600000) scale(0.040000,-0.040000)" fill="#000000" stroke="none">
<path d="M2432 6900 c-18 -11 -48 -20 -68 -20 -48 0 -99 -23 -119 -54 -10 -15 -27 -26 -39 -26 -42 0 -118 -33 -150 -65 -21 -20 -46 -34 -72 -38 -65 -10 -114 -84 -114 -173 0 -18 -8 -38 -20 -49 -83 -75 -244 -386 -285 -552 -9 -37 -24 -76 -32 -85 -15 -17 -36 -158 -27 -182 3 -8 -6 -57 -21 -109 -34 -126 -44 -258 -33 -425 6 -82 6 -138 0 -144 -9 -9 -132 153 -166 219 -25 50 -68 241 -69 306 0 44 5 64 22 87 12 16 24 43 27 60 9 41 -13 120 -40 150 -14 16 -27 48 -34 88 -6 35 -16 69 -21 76 -6 7 -35 25 -64 40 l-54 27 -93 -7 c-83 -6 -96 -10 -125 -36 -18 -15 -38 -28 -45 -28 -7 0 -51 -39 -96 -86 -88 -91 -98 -111 -99 -205 0 -53 22 -99 127 -261 56 -86 68 -111 62 -132 -6 -23 4 -37 81 -113 92 -93 111 -121 151 -236 85 -242 129 -328 257 -502 28 -38 61 -86 74 -105 58 -84 406 -395 607 -541 49 -35 132 -98 185 -140 112 -88 198 -139 234 -139 36 0 47 -26 47 -108 0 -128 58 -254 146 -314 46 -32 116 -58 156 -58 25 0 32 -6 50 -50 11 -27 25 -50 30 -50 5 0 17 -17 26 -38 20 -45 127 -168 162 -187 14 -7 55 -16 93 -20 l67 -7 105 -143 c58 -78 112 -148 120 -155 8 -7 15 -21 15 -30 0 -23 138 -140 164 -140 11 0 47 -15 80 -34 121 -67 152 -82 186 -96 22 -9 94 -74 200 -184 174 -179 261 -255 457 -400 66 -48 144 -115 172 -147 l52 -59 59 0 c72 0 94 9 189 79 155 114 258 210 343 321 32 41 66 86 77 99 l19 25 32 -27 c17 -15 37 -27 44 -27 14 0 132 120 210 213 27 32 57 57 67 57 39 0 166 -87 254 -173 105 -104 134 -121 186 -114 65 9 150 58 185 107 18 25 50 63 72 85 54 54 66 79 51 107 -12 22 -162 250 -194 294 l-16 22 53 44 c29 25 76 60 103 78 28 18 75 57 106 87 l56 55 91 -11 c50 -6 120 -20 154 -31 36 -11 92 -20 130 -20 56 0 71 4 96 24 47 40 92 135 92 195 0 32 8 67 20 91 11 22 20 52 20 68 0 25 -9 33 -82 74 -246 135 -398 201 -491 212 -54 7 -59 10 -77 45 -17 34 -100 101 -125 101 -4 0 -29 13 -55 29 -72 44 -187 83 -210 71 -26 -14 -55 -57 -70 -105 -7 -22 -44 -80 -82 -130 -37 -49 -71 -104 -74 -122 -8 -41 16 -110 63 -187 l36 -59 -18 -14 c-11 -7 -24 -13 -29 -13 -6 0 -36 28 -66 61 l-56 62 -37 -7 c-22 -4 -54 -22 -76 -41 -20 -18 -73 -48 -116 -65 -166 -65 -199 -108 -198 -257 l1 -92 -98 -95 c-55 -53 -103 -96 -108 -96 -5 0 -31 28 -59 63 -114 139 -289 283 -441 361 -39 20 -62 15 -62 -12 0 -21 17 -38 70 -67 66 -36 205 -137 254 -183 64 -62 296 -335 318 -374 26 -47 43 -61 67 -53 22 7 30 48 11 60 -14 8 -13 38 3 66 31 61 193 259 210 259 3 0 23 12 44 26 37 25 58 35 168 83 l50 22 33 -38 c18 -21 46 -63 63 -92 l31 -55 -43 -38 c-24 -20 -67 -58 -95 -83 -28 -25 -55 -45 -61 -45 -6 0 -16 -7 -23 -15 -7 -8 -24 -21 -39 -28 -14 -8 -78 -41 -141 -75 -112 -59 -170 -83 -238 -97 -26 -5 -42 -1 -80 24 -26 17 -115 55 -197 85 -277 102 -352 133 -476 200 -183 98 -229 124 -285 162 -86 58 -111 152 -64 242 l22 43 -17 19 c-10 11 -21 20 -25 20 -4 0 -22 -29 -40 -64 -28 -57 -32 -72 -28 -124 5 -77 52 -152 120 -194 26 -16 48 -36 48 -44 0 -17 -158 -174 -176 -174 -6 0 -17 -7 -24 -15 -17 -20 -94 -54 -141 -61 -49 -8 -142 22 -264 85 -87 44 -110 69 -60 63 19 -3 37 11 82 58 32 34 62 69 67 78 5 10 21 31 37 47 15 17 42 62 60 100 17 39 37 77 44 85 7 8 41 69 76 135 34 66 73 137 87 159 25 40 20 55 -20 56 -24 0 -29 -8 -104 -155 -37 -71 -70 -134 -75 -139 -5 -6 -20 1 -37 17 -15 15 -34 27 -40 27 -30 0 -19 38 51 167 41 76 97 181 124 233 39 78 52 94 69 92 18 -2 64 33 53 41 -48 38 -72 48 -98 42 -44 -10 -46 11 -4 39 21 14 76 68 123 121 46 53 89 94 94 92 89 -33 239 -78 243 -73 17 16 -16 37 -104 66 -54 18 -103 37 -110 42 -13 10 26 76 66 112 46 42 63 113 41 170 -14 38 1 40 85 15 42 -12 78 -19 81 -16 18 18 -16 36 -137 71 -74 22 -156 53 -184 68 -205 117 -685 330 -930 412 -84 29 -164 32 -211 8 -40 -20 -88 -19 -123 2 -16 10 67 106 91 106 10 0 32 7 49 15 23 13 37 14 67 5 50 -14 63 -13 60 4 -2 8 2 14 7 13 6 -1 9 -5 8 -8 -6 -17 43 -41 155 -79 143 -47 264 -74 297 -66 13 3 27 2 30 -4 4 -6 80 -10 195 -10 164 0 206 3 308 25 66 14 146 34 178 44 32 10 114 36 182 57 97 30 122 41 122 56 0 22 1 22 -52 4 -202 -66 -369 -113 -473 -131 -49 -9 -100 -21 -113 -26 -30 -12 -265 -12 -277 0 -6 6 -29 11 -53 13 -23 2 -43 7 -43 13 -1 19 68 27 190 22 130 -5 209 4 363 44 161 41 243 72 588 225 99 44 402 197 610 309 80 43 157 84 173 92 15 8 27 23 27 34 0 10 -2 19 -5 19 -3 0 -81 -41 -173 -90 -435 -235 -865 -438 -1068 -503 -248 -80 -371 -102 -569 -102 -154 1 -270 17 -327 47 -36 18 -225 50 -271 45 -26 -2 -50 0 -53 5 -3 5 12 26 34 46 22 20 47 54 55 74 9 21 28 43 46 52 41 22 78 73 90 125 5 24 22 57 39 75 38 39 52 68 52 101 0 15 10 41 22 58 13 19 23 51 26 84 3 40 9 56 24 64 28 15 58 86 58 141 0 29 8 60 20 81 24 41 43 151 45 267 1 47 7 101 14 120 16 49 14 94 -6 138 -9 20 -19 75 -23 121 -6 79 -8 86 -40 114 -29 26 -33 36 -31 71 3 48 -29 104 -72 124 -15 7 -27 20 -27 28 0 53 -67 123 -133 139 -15 4 -36 18 -45 32 -59 84 -113 122 -174 123 -15 0 -31 6 -35 14 -4 8 -26 27 -48 42 -37 25 -45 26 -117 21 -61 -4 -80 -2 -89 10 -42 49 -139 66 -217 36 -41 -15 -46 -15 -72 0 -39 24 -117 22 -158 -3z m157 -70 l43 -20 35 21 c65 40 189 7 162 -44 -8 -15 -8 -22 2 -28 20 -13 32 -11 80 11 73 33 159 23 159 -19 0 -28 19 -38 83 -43 48 -4 64 -10 89 -35 26 -27 28 -33 17 -51 -20 -31 2 -48 71 -56 74 -9 116 -43 126 -103 5 -33 12 -43 40 -57 42 -20 55 -51 44 -102 -10 -45 -8 -49 31 -70 43 -22 61 -69 47 -122 -9 -36 -8 -45 13 -73 30 -43 36 -115 14 -172 -13 -34 -14 -50 -6 -65 15 -29 14 -76 -4 -119 -8 -19 -15 -50 -15 -68 0 -18 -11 -57 -25 -87 -17 -35 -25 -71 -25 -106 0 -48 -4 -57 -32 -83 -18 -16 -42 -38 -54 -49 l-21 -20 -23 25 c-12 13 -38 31 -56 40 l-34 16 20 39 c24 47 24 45 5 64 -22 22 -40 11 -75 -44 -17 -27 -39 -52 -49 -55 -9 -3 -35 4 -57 14 l-40 19 1 85 c1 67 5 90 21 112 10 15 24 34 29 42 7 11 4 19 -15 33 -51 39 -60 51 -60 81 0 24 -9 40 -37 64 -39 34 -37 23 -31 175 2 59 8 81 25 103 27 34 21 54 -18 62 -19 4 -34 16 -39 30 -8 21 -58 45 -96 45 -5 0 -31 14 -57 30 -26 17 -59 30 -73 30 -31 0 -73 21 -98 49 -12 13 -31 21 -52 21 -19 0 -44 9 -61 24 -18 15 -47 26 -85 30 -32 4 -82 20 -110 35 -39 21 -63 27 -90 23 -24 -2 -45 2 -59 12 -17 12 -36 14 -75 10 -43 -5 -60 -3 -89 14 -23 14 -45 20 -63 16 -15 -3 -40 -1 -56 5 -25 10 -28 15 -22 44 9 45 30 61 78 62 37 0 45 4 66 35 36 54 93 75 150 56 18 -6 25 -2 40 25 31 58 44 67 98 62 43 -4 52 -2 73 21 30 32 77 34 140 6z m-508 -406 c22 -11 48 -15 79 -12 30 3 54 0 66 -9 10 -7 39 -13 65 -13 29 0 68 -10 104 -26 32 -15 79 -29 104 -32 25 -3 58 -13 73 -23 14 -11 41 -22 60 -25 18 -4 44 -17 58 -29 36 -32 64 -45 99 -45 17 0 47 -11 67 -25 20 -13 51 -27 69 -31 18 -3 45 -19 60 -34 26 -27 27 -31 15 -60 -7 -17 -10 -46 -7 -67 4 -21 1 -54 -5 -75 -14 -48 1 -105 41 -151 15 -17 34 -50 41 -72 7 -22 17 -46 23 -53 7 -9 7 -33 -2 -78 -8 -36 -10 -84 -7 -108 4 -26 3 -47 -3 -50 -17 -11 -126 22 -188 57 -61 34 -210 86 -382 134 -25 7 1 20 63 32 117 22 151 13 251 -63 21 -16 47 1 40 26 -11 37 -96 117 -143 135 -44 17 -74 15 -271 -18 -30 -5 -76 -9 -102 -9 -39 0 -49 -4 -54 -20 -3 -11 -4 -28 0 -39 7 -24 -41 -59 -58 -42 -6 6 -21 11 -33 11 -30 0 -105 89 -98 116 4 16 -20 45 -108 128 -62 59 -125 117 -140 127 -29 21 -109 26 -152 9 -16 -6 -27 -6 -31 0 -9 14 82 223 138 315 26 44 61 94 78 111 28 29 33 30 94 28 35 -2 79 -11 96 -20z m-1062 -489 c7 -8 11 -21 7 -30 -5 -14 -10 -13 -41 11 -19 14 -32 30 -29 36 7 11 44 1 63 -17z m105 -35 c-8 -8 -16 -4 -27 13 -21 32 -9 43 17 17 14 -14 17 -23 10 -30z m-206 -6 c22 -14 22 -17 8 -33 -19 -21 -95 -21 -127 1 l-24 15 35 22 c37 23 67 21 108 -5z m933 -31 c33 -31 56 -60 52 -64 -5 -5 -49 2 -98 16 -50 13 -110 27 -135 32 -37 7 -44 13 -42 29 7 37 22 44 94 44 l69 0 60 -57z m-693 -76 c55 -50 66 -124 27 -177 -18 -24 -25 -47 -25 -79 0 -25 -4 -72 -10 -104 -8 -54 -7 -63 25 -140 19 -45 35 -91 35 -102 0 -34 -59 -81 -119 -96 l-53 -13 -22 26 c-11 15 -41 55 -66 90 -25 35 -61 81 -81 103 -51 55 -156 217 -192 293 -25 54 -28 70 -23 114 9 68 20 85 62 103 32 13 39 13 65 -1 34 -17 47 -40 30 -57 -8 -8 -17 -5 -34 11 -32 30 -44 28 -62 -14 -11 -26 -12 -41 -5 -55 8 -13 7 -25 -1 -40 -20 -39 9 -38 114 4 56 22 111 39 122 38 11 -1 53 -4 93 -7 l72 -6 0 25 c0 35 -25 53 -58 41 -39 -14 -60 -7 -78 28 -18 35 -13 43 36 55 43 12 113 -7 148 -40z m-254 -38 c-3 -5 -10 -7 -15 -3 -5 3 -7 10 -3 15 3 5 10 7 15 3 5 -3 7 -10 3 -15z m828 -51 c-12 -12 -25 -17 -32 -13 -9 6 -6 13 11 26 30 23 47 13 21 -13z m238 -40 c43 -30 77 -75 64 -88 -11 -11 -113 38 -128 62 -12 19 -1 48 17 48 8 0 29 -10 47 -22z m-315 -27 c16 -16 68 -43 113 -60 46 -18 102 -44 124 -58 22 -15 59 -30 81 -33 37 -5 42 -8 39 -30 -3 -32 -37 -60 -73 -60 -35 0 -249 64 -307 92 -24 11 -47 31 -52 43 -14 36 14 135 38 135 3 0 20 -13 37 -29z m502 -44 c14 -12 43 -22 80 -26 32 -3 56 -10 54 -16 -31 -76 -33 -79 -45 -65 -21 29 -63 49 -107 52 l-44 3 3 35 c6 57 13 59 59 17z m-223 -27 c43 -20 65 -35 58 -42 -17 -17 -179 63 -166 84 3 4 13 4 22 -1 9 -4 48 -23 86 -41z m400 -71 c-3 -5 -10 -7 -15 -3 -5 3 -7 10 -3 15 3 5 10 7 15 3 5 -3 7 -10 3 -15z m293 -18 c31 -9 47 -20 58 -41 8 -16 11 -31 7 -34 -12 -7 -166 50 -170 63 -9 27 6 40 35 32 15 -5 47 -14 70 -20z m-425 -12 l19 -26 -15 -61 c-18 -69 -13 -93 30 -134 61 -56 308 -138 439 -145 113 -6 131 5 171 110 35 90 40 97 74 97 15 0 40 5 57 10 44 16 88 -3 79 -33 -27 -88 -18 -117 35 -117 36 0 39 -6 18 -46 -13 -27 -16 -49 -12 -85 5 -45 4 -49 -21 -60 -28 -13 -30 -17 -17 -37 12 -19 59 -4 78 24 11 17 14 38 10 72 -4 36 -1 55 15 82 53 88 92 104 176 71 64 -26 62 -26 62 -1 0 30 -56 60 -112 60 -51 0 -66 11 -43 30 10 8 34 11 67 8 44 -5 57 -11 85 -42 70 -76 28 -166 -151 -323 -88 -77 -111 -93 -139 -93 -23 0 -41 -8 -57 -25 -20 -21 -33 -25 -82 -25 -72 0 -88 -20 -43 -55 l28 -23 -34 -48 c-18 -27 -64 -81 -103 -120 -78 -78 -153 -120 -341 -189 -171 -63 -243 -78 -369 -73 -102 3 -119 7 -204 42 -81 34 -100 48 -155 106 -65 69 -78 94 -143 285 -64 182 -102 445 -91 624 6 109 20 134 59 109 86 -55 272 -108 382 -108 73 0 91 14 127 95 12 28 26 56 32 63 17 21 68 10 89 -19z m194 -29 c38 -6 80 -16 94 -22 14 -6 39 -12 56 -14 18 -1 49 -10 70 -19 28 -12 35 -18 26 -27 -9 -9 -17 -9 -34 1 -13 6 -35 12 -48 13 -14 1 -31 6 -38 11 -7 6 -42 9 -77 8 -36 -1 -66 2 -70 8 -3 6 -14 11 -24 11 -24 0 -65 45 -56 61 6 9 11 8 20 -4 7 -9 40 -20 81 -27z m424 -45 c0 -7 -5 -17 -11 -21 -16 -9 -43 21 -36 41 5 13 11 14 27 5 11 -6 20 -17 20 -25z m-410 -26 c41 -5 98 -13 125 -19 28 -7 94 -15 148 -19 54 -4 103 -13 108 -18 8 -8 2 -29 -18 -69 l-28 -59 -75 0 c-108 0 -329 72 -371 121 -23 27 -28 46 -18 72 8 20 11 21 31 11 13 -7 57 -16 98 -20z m744 -90 c-3 -5 -10 -7 -15 -3 -5 3 -7 10 -3 15 3 5 10 7 15 3 5 -3 7 -10 3 -15z m-1826 -251 c144 -195 136 -179 251 -496 23 -62 41 -128 41 -146 0 -39 17 -50 52 -32 22 12 28 10 59 -15 19 -16 38 -29 43 -29 6 0 19 -9 31 -20 12 -11 61 -36 109 -56 71 -29 112 -56 217 -140 l129 -105 0 -54 c0 -40 13 -90 54 -199 30 -81 50 -149 45 -151 -14 -9 -61 20 -135 82 -39 32 -104 83 -144 112 -139 101 -185 136 -284 216 -116 93 -378 344 -413 395 -13 19 -37 53 -53 75 -73 98 -140 204 -160 255 -63 158 -108 301 -97 304 7 2 32 9 55 16 24 6 60 27 80 45 21 19 40 35 44 35 4 0 38 -42 76 -92z m1902 -260 c-11 -38 -40 -72 -52 -60 -17 17 33 109 53 97 4 -3 3 -19 -1 -37z m-104 1 c10 -17 -13 -36 -27 -22 -12 12 -4 33 11 33 5 0 12 -5 16 -11z m-51 -73 c53 -19 59 -48 13 -76 -18 -11 -43 -20 -56 -20 -16 0 -40 -19 -74 -55 -27 -30 -54 -52 -60 -49 -5 4 -1 15 10 28 10 11 43 58 73 104 30 45 54 82 54 82 0 0 18 -7 40 -14z m299 -147 c-3 -5 -10 -7 -15 -3 -5 3 -7 10 -3 15 3 5 10 7 15 3 5 -3 7 -10 3 -15z m136 -27 c19 -8 40 -14 47 -13 16 2 26 -16 13 -24 -6 -4 -17 -1 -25 5 -8 7 -15 10 -15 7 0 -6 -97 20 -113 30 -4 2 -5 9 -2 14 7 10 44 3 95 -19z m115 -32 c4 -6 11 -8 16 -4 6 3 17 3 26 0 12 -5 13 -9 3 -21 -12 -14 -15 -14 -30 0 -9 8 -19 12 -23 9 -9 -9 -28 6 -22 17 8 12 22 12 30 -1z m-401 -115 c62 -15 360 -127 536 -202 58 -25 125 -53 150 -63 71 -28 128 -56 225 -110 50 -28 105 -58 123 -66 75 -33 94 -125 40 -193 -18 -22 -53 -67 -78 -98 -85 -109 -145 -174 -215 -232 -73 -60 -231 -171 -244 -171 -4 0 -20 19 -37 41 -30 43 -50 64 -93 97 l-24 19 92 121 c117 153 180 197 399 276 l74 26 28 -20 c33 -24 53 -25 70 -5 19 23 6 40 -54 71 l-55 28 -84 -32 -84 -32 -104 21 c-96 19 -269 75 -364 118 -22 10 -111 49 -198 86 -129 55 -160 65 -172 55 -33 -27 -17 -48 63 -85 42 -19 88 -41 101 -48 38 -19 49 -60 92 -342 13 -89 45 -187 70 -219 10 -13 19 -26 19 -29 0 -13 -117 -77 -142 -77 -38 0 -42 13 -14 55 46 68 47 172 3 268 -36 79 -75 127 -102 127 -38 0 -36 -26 9 -95 38 -57 45 -75 50 -138 8 -79 0 -112 -40 -164 -28 -37 -39 -39 -80 -18 -55 28 -126 15 -176 -32 -18 -18 -32 -23 -47 -18 -12 3 -45 -1 -75 -9 -44 -13 -58 -23 -82 -58 -15 -24 -30 -61 -34 -83 l-5 -40 -44 -3 c-60 -4 -93 12 -149 73 -67 73 -83 128 -92 324 -7 161 -17 201 -49 201 -26 0 -37 16 -64 100 -26 80 -42 174 -32 190 4 6 28 -9 55 -31 60 -51 125 -63 187 -34 21 10 52 24 68 31 17 8 56 36 87 62 92 76 148 165 177 280 l17 67 35 -3 c19 -2 46 -15 61 -29 l26 -25 41 41 c45 45 51 46 135 26z m-460 -93 l59 -62 -14 -27 c-49 -92 -220 -223 -290 -223 -46 0 -84 17 -117 53 -25 27 -26 61 -2 63 8 1 20 2 26 2 25 4 23 35 -6 93 -28 54 -29 60 -13 65 10 3 74 28 143 55 69 27 132 48 140 46 8 -1 42 -30 74 -65z m92 53 c10 -26 -6 -38 -27 -19 -10 9 -16 21 -13 25 8 14 34 10 40 -6z m-516 -134 c13 -26 0 -58 -42 -98 l-34 -32 -67 54 c-37 30 -68 58 -68 62 0 4 38 13 83 19 119 16 116 16 128 -5z m1144 -302 c-3 -5 -10 -7 -15 -3 -5 3 -7 10 -3 15 3 5 10 7 15 3 5 -3 7 -10 3 -15z m330 -103 c52 -8 65 -20 38 -35 -23 -12 -42 -7 -181 49 -127 50 -143 59 -136 69 2 5 56 -10 119 -34 63 -23 135 -46 160 -49z m-205 -2 c75 -31 144 -61 154 -66 16 -8 12 -15 -34 -65 -28 -31 -78 -92 -110 -135 -33 -43 -64 -78 -68 -78 -28 0 -57 89 -81 253 -18 121 -19 147 -3 147 4 0 68 -25 142 -56z m2681 -429 c123 -51 185 -95 208 -149 l20 -44 73 -12 c93 -15 196 -54 375 -140 157 -76 172 -89 156 -124 l-10 -24 -144 72 c-177 89 -237 115 -358 156 -52 18 -126 52 -165 76 -38 23 -117 67 -175 97 -64 33 -106 60 -108 71 -4 16 23 56 37 56 4 0 45 -16 91 -35z m-2648 -93 c22 -21 40 -50 44 -69 6 -29 -1 -40 -72 -123 -44 -50 -94 -111 -112 -137 -42 -59 -69 -77 -217 -143 -126 -56 -176 -67 -238 -53 -56 12 -46 27 22 34 64 6 91 21 91 49 0 20 -31 32 -51 19 -8 -5 -51 -9 -96 -9 -70 0 -86 3 -103 20 -12 12 -18 25 -15 30 4 6 44 10 90 10 46 0 90 3 99 6 16 6 23 54 9 54 -5 1 -61 2 -125 3 -119 2 -134 7 -140 42 -4 24 26 32 49 13 10 -8 37 -12 77 -10 76 4 116 18 116 43 0 22 0 22 -98 19 -45 -1 -78 3 -87 10 -8 7 -15 9 -15 6 0 -4 -9 -2 -20 4 -29 15 -27 80 3 115 29 33 113 47 123 21 10 -27 -8 -38 -41 -26 -22 8 -31 7 -46 -6 -23 -21 -34 -71 -19 -89 9 -11 16 -11 44 6 18 10 61 23 96 27 47 7 68 15 82 32 14 18 16 26 6 37 -6 8 -20 12 -30 9 -26 -6 -45 41 -24 62 22 23 99 27 128 8 14 -9 60 -21 102 -25 47 -6 94 -18 121 -32 46 -24 57 -22 60 10 1 19 40 57 79 78 27 15 62 0 108 -45z m2587 -41 c49 -21 127 -63 173 -95 52 -34 117 -67 169 -85 126 -43 169 -61 351 -150 100 -49 169 -88 172 -99 13 -39 -35 -139 -80 -168 -28 -19 -76 -13 -174 19 -56 18 -89 21 -241 22 -157 0 -179 -2 -197 -18 -27 -24 -33 -53 -15 -68 11 -10 20 -9 45 5 18 11 33 15 39 9 6 -6 -26 -35 -83 -76 -51 -37 -129 -94 -173 -127 -44 -33 -87 -65 -96 -70 -13 -7 -26 8 -74 87 -66 110 -138 215 -160 233 -25 21 -17 36 38 72 107 71 160 90 156 55 -5 -41 22 -56 51 -27 30 30 25 50 -30 134 -103 158 -117 204 -78 259 38 55 100 127 109 127 5 0 49 -17 98 -39z m-2245 -1 c8 -8 -8 -49 -56 -143 -133 -262 -185 -340 -248 -372 -19 -10 -89 -74 -156 -142 l-121 -125 -59 77 c-32 43 -65 87 -73 99 -8 11 -26 33 -40 48 l-24 28 99 45 c54 25 104 49 110 53 50 32 73 49 96 70 14 13 41 27 59 31 29 6 39 17 74 81 61 114 72 127 169 202 81 63 94 69 125 64 19 -3 39 -10 45 -16z m1895 -382 c17 -23 31 -45 31 -49 0 -12 -71 -50 -81 -43 -10 6 -59 80 -59 89 0 6 62 45 72 45 3 0 20 -19 37 -42z m-122 -87 c22 -26 30 -45 26 -59 -3 -13 3 -33 16 -51 l21 -29 -87 -48 c-49 -26 -115 -65 -148 -86 -56 -36 -61 -37 -73 -21 -10 13 -12 47 -10 120 3 95 5 105 29 128 24 25 149 83 179 84 8 0 29 -17 47 -38z m-1919 -114 c6 -6 13 -24 17 -38 10 -41 -18 -88 -119 -205 -62 -71 -67 -72 -146 -20 -38 25 -71 50 -75 56 -9 14 117 159 167 193 32 21 53 27 93 27 30 0 57 -5 63 -13z m-317 -295 c13 -10 32 -22 42 -25 21 -8 19 -41 -3 -44 -20 -3 -94 63 -85 76 9 15 19 14 46 -7z m1892 -31 c-9 -14 -30 -47 -46 -73 -17 -27 -33 -48 -37 -48 -12 0 -52 48 -49 58 2 5 31 32 64 60 45 39 62 48 72 40 11 -9 10 -16 -4 -37z m-920 -32 c44 -22 119 -62 166 -88 47 -27 156 -74 241 -106 85 -32 159 -61 163 -65 5 -4 -24 -35 -64 -70 -99 -85 -143 -140 -190 -239 -23 -46 -44 -79 -49 -75 -5 5 -25 47 -45 94 -96 227 -138 295 -274 443 -45 49 -81 94 -81 100 0 14 30 47 43 47 5 0 46 -18 90 -41z m1552 -19 c12 -23 23 -29 52 -32 32 -3 42 -11 84 -68 26 -36 67 -96 90 -135 23 -38 48 -77 55 -85 33 -39 -73 -140 -148 -140 -29 0 -48 12 -129 88 -52 48 -102 92 -110 97 -9 6 -35 23 -58 38 -23 15 -60 37 -83 49 l-41 22 29 23 c16 14 45 35 64 48 19 12 51 39 69 59 19 20 40 36 46 36 7 0 20 9 30 20 21 23 30 19 50 -20z m213 3 c49 -62 162 -241 162 -255 0 -17 -20 -38 -36 -38 -7 0 -30 27 -51 60 -21 33 -66 99 -100 147 -57 81 -61 89 -46 105 24 26 38 22 71 -19z m-1892 -105 c87 -90 153 -177 188 -246 64 -128 176 -390 176 -411 0 -70 61 -124 98 -87 15 14 14 18 -7 47 l-23 32 32 86 c46 123 102 219 157 272 82 78 154 129 182 129 33 0 157 -82 166 -110 5 -16 -4 -34 -37 -73 -24 -29 -74 -89 -112 -134 -74 -88 -178 -181 -295 -262 -62 -43 -82 -51 -119 -51 -41 0 -48 4 -101 59 -31 33 -125 112 -210 175 -156 117 -487 428 -475 447 3 5 14 9 25 9 25 0 151 63 168 84 8 9 19 16 25 16 6 1 29 16 51 35 22 19 45 35 50 35 6 0 33 -24 61 -52z m1267 -134 c3 -4 -33 -49 -80 -100 l-87 -94 -29 27 c-55 53 -54 59 15 90 35 15 86 40 113 55 56 30 59 31 68 22z"/>
<path d="M806 5561 c-12 -19 2 -28 50 -36 47 -7 108 -38 133 -69 18 -22 51 -21 51 2 0 20 -23 44 -78 81 -38 26 -145 41 -156 22z"/>
<path d="M1869 5248 c-50 -30 -59 -46 -43 -77 8 -14 20 -26 27 -26 7 0 19 -6 27 -12 8 -7 31 -25 50 -41 19 -16 44 -34 55 -40 25 -12 175 -19 193 -8 7 4 19 3 26 -3 9 -7 18 -6 33 4 11 8 24 11 28 7 11 -10 -3 72 -17 103 -6 14 -20 25 -31 25 -17 0 -18 -5 -12 -49 7 -52 -4 -71 -25 -46 -9 11 -33 15 -88 15 -69 0 -78 2 -123 35 -27 19 -56 35 -63 35 -28 0 -28 22 -2 46 14 14 26 29 26 33 0 19 -29 18 -61 -1z"/>
<path d="M2001 4857 c-9 -12 -10 -21 -1 -37 8 -15 8 -25 1 -34 -20 -24 30 -56 110 -70 40 -7 74 -17 76 -23 7 -21 -64 -63 -107 -63 -55 0 -178 18 -213 32 -20 8 -31 7 -42 -2 -9 -7 -13 -15 -10 -18 3 -3 -4 -16 -16 -28 -24 -26 -18 -44 16 -44 13 0 27 -4 30 -10 3 -5 21 -10 40 -10 19 0 37 -4 40 -10 3 -5 43 -10 88 -10 87 0 112 11 136 58 7 12 17 22 23 22 6 0 39 25 73 55 41 36 72 55 88 55 14 0 28 4 32 10 3 5 12 7 19 4 12 -5 12 2 4 35 -7 26 -16 41 -26 41 -8 0 -24 7 -34 17 -17 15 -19 15 -37 -1 -20 -18 -40 -16 -116 15 -11 4 -36 10 -55 13 -19 3 -51 9 -70 12 -26 4 -39 2 -49 -9z m74 -60 c11 -9 14 -16 7 -21 -15 -9 -65 12 -57 24 9 14 28 13 50 -3z m80 -20 c11 -9 14 -16 7 -21 -15 -9 -65 12 -57 24 9 14 28 13 50 -3z m80 -38 c-4 -5 -14 -5 -26 1 -11 6 -17 15 -14 21 4 5 14 5 26 -1 11 -6 17 -15 14 -21z"/>
</g>
</g>
  <g id="id5:id5" transform="matrix(1.25,0,0,1.25,0.0,0.0)"><g transform="translate(0.000000,321.600000) scale(0.040000,-0.040000)" fill="#feff28" stroke="none">
<path d="M3991 3103 c-39 -76 -99 -190 -134 -253 -63 -113 -69 -140 -31 -140 7 0 29 -14 49 -31 27 -24 38 -29 49 -20 14 12 118 216 202 398 l47 103 -18 20 c-10 11 -23 20 -30 20 -7 0 -20 9 -30 20 -10 11 -22 20 -26 20 -5 0 -40 -62 -78 -137z"/>
</g>
</g>
  <g id="id6:id6" transform="matrix(1.25,0,0,1.25,0.0,0.0)"><g transform="translate(0.000000,321.600000) scale(0.040000,-0.040000)" fill="#513737" stroke="none">
<path d="M2114 5629 c-27 -8 -32 -14 -37 -51 -2 -24 -8 -51 -12 -60 -5 -14 -2 -18 13 -18 12 0 24 5 27 10 9 15 25 2 19 -14 -8 -21 9 -26 50 -15 33 9 41 8 60 -9 37 -34 65 -45 81 -32 11 9 12 17 5 30 -7 13 -7 21 0 25 6 4 7 12 3 18 -5 7 -8 21 -8 31 0 27 -62 61 -81 45 -18 -15 -45 -4 -38 16 7 17 -11 21 -21 5 -9 -15 -25 -2 -18 15 6 17 1 17 -43 4z"/>
<path d="M2340 5510 c0 -5 5 -10 10 -10 6 0 10 5 10 10 0 6 -4 10 -10 10 -5 0 -10 -4 -10 -10z"/>
</g>
</g>
  <g id="id7:id7" transform="matrix(1.25,0,0,1.25,0.0,0.0)"><g transform="translate(0.000000,321.600000) scale(0.040000,-0.040000)" fill="#5c0101" stroke="none">
<path d="M1635 5007 c-40 -40 -47 -77 -15 -77 29 0 36 -28 43 -159 6 -123 10 -133 75 -173 l35 -22 31 37 c32 39 45 43 74 27 19 -11 160 -31 211 -30 19 0 40 5 47 11 8 6 14 6 18 0 4 -5 2 -12 -4 -16 -12 -7 -13 -25 -2 -25 5 0 17 7 28 15 l19 15 -18 11 c-18 10 -17 13 9 40 26 27 27 30 12 46 -9 9 -27 17 -40 18 -64 4 -111 19 -115 36 -3 10 -11 15 -18 13 -21 -8 -38 32 -24 54 16 25 5 52 -19 52 -11 0 -54 16 -96 35 -43 19 -84 35 -92 35 -8 0 -22 4 -32 9 -9 5 -25 12 -34 15 -10 3 -18 14 -18 25 0 11 -9 25 -20 31 -18 10 -26 6 -55 -23z m148 -121 c3 3 20 -3 39 -12 18 -10 36 -19 41 -20 4 -1 10 -2 13 -3 3 0 2 -6 -1 -11 -4 -6 -12 -7 -18 -3 -7 4 -20 9 -30 10 -10 2 -28 8 -40 15 -12 7 -28 13 -35 14 -20 4 -42 25 -36 35 3 5 18 0 33 -11 16 -10 31 -17 34 -14z"/>
<path d="M1797 4574 c-10 -11 3 -24 24 -24 10 0 19 7 19 15 0 15 -31 21 -43 9z"/>
<path d="M1862 4548 c7 -20 58 -23 58 -4 0 11 -10 16 -31 16 -20 0 -29 -4 -27 -12z"/>
</g>
</g>
  <g id="id8:id8" transform="matrix(1.25,0,0,1.25,0.0,0.0)"><g transform="translate(0.000000,321.600000) scale(0.040000,-0.040000)" fill="#ffffff" stroke="none">
<path d="M1729 5734 c-34 -18 -52 -40 -44 -54 9 -15 41 -12 56 6 7 9 24 20 37 25 13 5 22 15 20 22 -6 17 -38 18 -69 1z"/>
<path d="M1877 5703 c-3 -5 -2 -28 3 -52 4 -25 5 -51 2 -60 -4 -10 -1 -13 11 -8 9 3 20 1 24 -6 5 -7 27 -22 51 -34 35 -18 47 -20 67 -11 67 30 -15 137 -132 172 -12 4 -24 3 -26 -1z"/>
<path d="M2498 5503 c-2 -10 -1 -31 3 -46 5 -16 5 -35 2 -43 -5 -13 1 -15 38 -9 51 8 99 -7 99 -31 0 -11 5 -14 16 -10 9 3 27 6 40 6 31 0 32 26 2 70 -17 24 -38 37 -78 50 -100 31 -118 33 -122 13z"/>
<path d="M1707 4913 c-27 -26 5 -47 139 -91 128 -42 150 -46 157 -28 8 21 -19 46 -49 46 -14 0 -48 12 -77 27 -29 14 -74 32 -102 39 -58 16 -60 16 -68 7z"/>
<path d="M1750 4654 c0 -5 12 -17 26 -28 19 -13 29 -15 37 -7 7 7 7 14 2 20 -14 13 -65 25 -65 15z"/>
</g>
</g>
  <g id="id9:id9" transform="matrix(1.25,0,0,1.25,0.0,0.0)"><g transform="translate(0.000000,321.600000) scale(0.040000,-0.040000)" fill="#b72628" stroke="none">
<path d="M890 5970 c0 -15 131 -99 146 -93 33 12 7 69 -41 89 -39 16 -105 19 -105 4z"/>
<path d="M1042 5973 c2 -5 17 -32 33 -60 22 -39 36 -53 53 -53 17 0 22 6 22 26 0 36 -16 61 -50 79 -31 16 -64 20 -58 8z"/>
<path d="M809 5920 c-34 -18 -66 -47 -58 -53 36 -27 83 -46 97 -38 10 5 25 5 39 -2 20 -9 28 -6 53 18 35 33 30 43 -35 74 -52 24 -49 24 -96 1z"/>
<path d="M1000 5843 c-51 -10 -64 -43 -34 -88 19 -29 67 -48 82 -33 13 13 46 2 37 -12 -4 -6 -14 -10 -23 -9 -10 1 -25 -1 -34 -5 -9 -4 -32 0 -52 9 -19 9 -39 14 -45 11 -5 -4 -12 -2 -16 3 -3 5 3 15 12 20 17 10 16 12 -6 31 -34 29 -51 26 -51 -10 0 -19 7 -33 21 -40 25 -14 21 -20 -38 -42 -49 -18 -66 -16 -56 7 3 10 -2 15 -16 15 -23 0 -27 -10 -11 -26 8 -8 6 -15 -4 -23 -13 -11 -17 -7 -30 24 -11 25 -13 43 -6 60 12 30 13 30 50 3 24 -17 32 -19 45 -8 23 19 18 46 -16 74 -35 30 -67 33 -114 11 -65 -31 -78 -150 -27 -251 38 -75 131 -213 192 -284 26 -30 68 -84 93 -120 64 -90 64 -90 99 -90 56 0 108 22 144 63 41 44 41 44 -4 160 l-30 78 9 101 c6 76 14 109 28 129 43 58 35 132 -21 186 -54 52 -107 69 -178 56z"/>
<path d="M6945 5718 c-96 -23 -125 -31 -215 -59 -52 -16 -129 -45 -170 -64 -41 -18 -129 -57 -195 -85 -174 -76 -285 -128 -510 -240 -110 -55 -203 -100 -207 -100 -3 0 -100 -50 -215 -112 -401 -215 -816 -409 -1008 -471 -241 -77 -357 -97 -576 -97 -172 0 -222 6 -319 37 -25 8 -90 23 -145 34 -55 11 -118 24 -140 29 -31 7 -43 6 -57 -6 -9 -9 -21 -13 -27 -10 -6 4 -27 0 -47 -9 -20 -8 -45 -15 -55 -15 -11 0 -29 -12 -42 -27 -12 -15 -37 -43 -55 -64 -39 -44 -31 -54 45 -65 43 -5 60 -2 99 16 42 21 52 22 91 12 24 -7 50 -12 59 -12 14 0 341 -123 493 -185 101 -42 307 -142 416 -203 55 -31 116 -61 135 -68 61 -20 103 -143 70 -204 -7 -14 -30 -45 -50 -70 -58 -72 -71 -96 -57 -108 12 -10 186 -68 277 -92 25 -7 54 -16 65 -20 72 -27 225 -60 305 -66 55 -4 71 -1 105 18 58 34 85 80 85 144 0 64 -15 100 -44 108 -15 4 -18 8 -9 17 8 8 20 8 45 0 50 -16 312 -24 398 -12 181 25 282 56 435 135 103 54 150 83 220 135 22 17 56 41 75 55 62 42 186 178 250 272 8 12 30 43 48 69 17 25 32 49 32 52 0 4 6 14 14 22 39 45 196 357 255 508 11 29 36 84 56 122 38 77 37 104 -7 135 -30 21 -63 20 -115 -4 l-42 -19 -58 32 -58 31 -145 4 c-101 3 -166 -1 -213 -11 -61 -12 -94 -9 -67 8 26 16 317 116 450 155 69 20 94 26 190 50 19 5 64 17 100 26 84 22 488 32 559 14 111 -27 130 -34 208 -66 85 -35 103 -40 103 -26 0 12 -59 102 -89 136 -66 73 -242 180 -352 215 -43 13 -337 13 -394 -1z m-1051 -649 c-3 -5 -10 -7 -15 -3 -5 3 -7 10 -3 15 3 5 10 7 15 3 5 -3 7 -10 3 -15z m-40 -20 c-3 -5 -10 -7 -15 -3 -5 3 -7 10 -3 15 3 5 10 7 15 3 5 -3 7 -10 3 -15z m-180 -80 c-3 -5 -10 -7 -15 -3 -5 3 -7 10 -3 15 3 5 10 7 15 3 5 -3 7 -10 3 -15z m-180 -80 c-3 -5 -10 -7 -15 -3 -5 3 -7 10 -3 15 3 5 10 7 15 3 5 -3 7 -10 3 -15z m-180 -80 c-3 -5 -10 -7 -15 -3 -5 3 -7 10 -3 15 3 5 10 7 15 3 5 -3 7 -10 3 -15z"/>
<path d="M3140 4651 c0 -13 29 -35 37 -28 7 8 -15 37 -28 37 -5 0 -9 -4 -9 -9z"/>
<path d="M3420 3922 c0 -29 26 -46 160 -102 69 -28 146 -61 172 -72 51 -23 110 -20 136 6 22 21 8 33 -56 47 -89 19 -314 96 -347 119 -5 4 -22 10 -37 14 -23 5 -28 3 -28 -12z"/>
<path d="M6161 3381 c-37 -51 -29 -72 40 -103 33 -15 58 -32 54 -38 -5 -8 -23 -3 -121 37 -25 10 -154 -159 -154 -201 0 -29 38 -105 99 -201 54 -83 60 -105 37 -124 -15 -13 -32 1 -22 18 3 4 0 16 -7 25 -12 16 -16 15 -61 -5 -54 -24 -186 -106 -186 -117 0 -3 13 -20 29 -37 37 -38 147 -203 186 -278 21 -39 36 -57 49 -57 17 0 115 69 354 250 64 49 70 76 15 65 -21 -4 -45 -13 -55 -21 -20 -19 -33 -2 -18 25 13 25 25 28 135 36 97 7 256 -12 334 -40 24 -8 69 -15 101 -15 65 0 73 6 114 87 29 58 34 114 11 133 -17 14 -11 32 9 24 19 -7 50 60 37 83 -8 17 -69 49 -256 139 -102 49 -223 92 -280 99 -65 9 -80 18 -96 57 -7 18 -20 39 -29 46 -33 27 -147 90 -185 102 -22 7 -49 19 -60 26 -30 21 -52 17 -74 -15z m194 -191 c-4 -6 -18 -4 -36 5 -16 9 -27 20 -24 25 4 6 18 4 36 -5 16 -9 27 -20 24 -25z m100 -50 c22 -15 90 -44 150 -65 120 -42 358 -147 424 -189 80 -51 29 -45 -77 8 -131 65 -293 135 -387 167 -74 24 -188 95 -179 110 6 10 10 8 69 -31z"/>
<path d="M3486 3295 c-25 -20 -46 -42 -46 -50 0 -24 -17 -26 -53 -5 -21 12 -65 24 -109 29 -41 5 -88 16 -105 25 -18 9 -43 16 -57 16 -28 0 -95 -29 -97 -42 -6 -35 16 -92 31 -83 20 12 32 -6 16 -24 -11 -12 -32 -18 -65 -19 -28 0 -63 -8 -80 -16 -35 -18 -45 -9 -31 29 9 23 14 26 40 20 42 -9 67 2 73 31 11 60 -93 57 -155 -6 -63 -62 -49 -130 30 -146 36 -7 59 -28 42 -39 -6 -4 -27 1 -47 10 -36 17 -62 13 -70 -11 -6 -18 37 -74 56 -74 26 0 36 -17 21 -35 -9 -10 -8 -21 4 -43 14 -26 31 -37 90 -56 15 -5 16 -9 6 -21 -29 -35 64 -82 141 -72 59 8 313 125 348 161 17 17 78 89 136 160 97 118 105 132 99 160 -9 43 -32 74 -78 107 -52 38 -83 37 -140 -6z m-441 -254 c7 -12 -12 -24 -25 -16 -11 7 -4 25 10 25 5 0 11 -4 15 -9z m40 -110 c7 -12 -12 -24 -25 -16 -11 7 -4 25 10 25 5 0 11 -4 15 -9z m42 -128 c-9 -9 -20 -12 -28 -8 -9 6 -8 11 6 21 23 17 42 6 22 -13z"/>
<path d="M4114 3229 l-19 -21 28 -22 c15 -12 27 -26 27 -31 0 -5 -19 -49 -42 -97 l-41 -87 23 -19 23 -19 -20 -29 c-11 -16 -43 -76 -73 -134 -29 -58 -63 -119 -76 -137 -14 -18 -34 -57 -45 -87 -14 -35 -53 -93 -111 -163 -83 -101 -92 -108 -131 -113 -70 -8 -60 -31 35 -83 191 -103 291 -121 385 -71 107 57 273 203 273 241 0 7 -12 20 -26 30 -56 38 -113 95 -128 128 -31 64 -19 171 24 225 l20 25 15 -19 15 -20 27 26 c67 64 134 64 251 2 48 -26 91 -51 97 -55 25 -23 54 8 36 39 -5 9 -38 32 -72 52 -50 28 -65 42 -70 65 -16 81 -91 168 -222 260 -38 26 -75 58 -83 71 -15 22 -76 64 -93 64 -4 0 -16 -9 -27 -21z"/>
<path d="M5778 2861 l-31 -28 21 -31 c27 -38 13 -50 -18 -17 -13 14 -28 25 -34 25 -20 0 -157 -59 -186 -80 -17 -12 -34 -36 -40 -58 -11 -39 -3 -241 10 -263 6 -8 22 0 56 29 27 22 99 66 159 97 61 32 114 61 119 65 5 5 -1 22 -13 38 -11 17 -21 43 -21 59 0 16 -5 34 -11 40 -7 7 -8 13 0 17 6 4 16 -2 23 -14 7 -11 18 -20 24 -20 15 0 94 58 94 69 0 4 -16 29 -35 55 -43 55 -70 59 -117 17z"/>
<path d="M3810 2505 c-20 -24 -6 -28 15 -5 10 11 13 20 8 20 -6 0 -16 -7 -23 -15z"/>
<path d="M3747 2434 c-21 -28 -15 -44 11 -28 18 11 30 54 15 54 -4 0 -16 -12 -26 -26z"/>
<path d="M5351 2333 c-50 -42 -91 -83 -91 -90 0 -23 56 -74 74 -67 22 8 106 143 106 170 0 13 5 26 10 29 12 8 13 35 1 35 -5 0 -50 -35 -100 -77z"/>
<path d="M3460 2340 c0 -13 5 -20 13 -17 6 2 12 10 12 17 0 7 -6 15 -12 18 -8 2 -13 -5 -13 -18z"/>
<path d="M6000 2302 c-14 -9 -56 -41 -95 -72 -38 -31 -91 -73 -117 -94 -27 -20 -48 -40 -48 -44 0 -4 21 -18 47 -32 96 -51 190 -119 271 -199 95 -92 108 -96 190 -55 54 27 102 78 102 108 0 9 -11 34 -25 56 -29 47 -32 53 -23 60 4 3 20 -14 37 -37 17 -24 37 -43 44 -43 16 0 57 42 57 58 0 29 -197 312 -217 312 -23 0 -63 -31 -63 -49 0 -9 7 -26 15 -38 9 -13 11 -24 6 -28 -6 -3 -18 6 -27 20 -13 21 -24 26 -48 23 -27 -3 -34 2 -51 34 -23 43 -21 43 -55 20z m204 -123 c-3 -5 -10 -7 -15 -3 -5 3 -7 10 -3 15 3 5 10 7 15 3 5 -3 7 -10 3 -15z m30 -41 c-3 -5 -12 -4 -20 3 -7 6 -11 15 -8 21 3 5 12 4 20 -3 7 -6 11 -15 8 -21z m20 -29 c-3 -5 -10 -7 -15 -3 -5 3 -7 10 -3 15 3 5 10 7 15 3 5 -3 7 -10 3 -15z m20 -30 c-3 -5 -10 -7 -15 -3 -5 3 -7 10 -3 15 3 5 10 7 15 3 5 -3 7 -10 3 -15z m20 -30 c-3 -5 -10 -7 -15 -3 -5 3 -7 10 -3 15 3 5 10 7 15 3 5 -3 7 -10 3 -15z"/>
<path d="M3550 2280 c-12 -8 -12 -10 3 -16 21 -8 35 2 21 16 -5 5 -15 6 -24 0z"/>
<path d="M5585 2027 c-33 -16 -94 -45 -135 -63 -41 -18 -76 -37 -78 -42 -3 -10 62 -92 82 -104 8 -4 32 13 63 45 79 83 163 180 163 189 0 15 -35 6 -95 -25z"/>
</g>
</g>
</svg>
