<?xml version="1.0" standalone="no"?>
<!DOCTYPE svg PUBLIC "-//W3C//DTD SVG 1.1//EN"
 "http://www.w3.org/Graphics/SVG/1.1/DTD/svg11.dtd">
<!-- Created with svg_stack (http://github.com/astraw/svg_stack) -->
<svg xmlns:sodipodi="http://sodipodi.sourceforge.net/DTD/sodipodi-0.dtd" xmlns="http://www.w3.org/2000/svg" version="1.1" width="484.0" height="364.0">
  <defs/>
  <g id="id0:id0" transform="matrix(1.25,0,0,1.25,0.0,0.0)"><g transform="translate(0.000000,291.200000) scale(0.040000,-0.040000)" fill="#000000" stroke="none">
<path d="M0 3640 l0 -3640 4840 0 4840 0 0 3640 0 3640 -4840 0 -4840 0 0 -3640z m4256 3211 c5 -5 25 -11 44 -13 30 -3 35 -7 38 -32 4 -35 -12 -56 -30 -38 -7 7 -28 12 -48 12 -35 0 -100 24 -100 37 0 31 72 56 96 34z m319 -1 c3 -5 17 -10 29 -10 13 0 29 -6 35 -14 9 -10 6 -17 -13 -30 -35 -22 -89 -21 -111 4 l-18 20 18 20 c19 21 50 26 60 10z m-537 -130 c1 -19 8 -45 14 -58 9 -18 9 -28 0 -42 -29 -46 -5 -83 50 -78 l33 3 5 100 5 99 50 -3 c28 -1 55 -7 60 -11 6 -5 31 -10 55 -12 l45 -3 6 -120 c4 -66 10 -173 14 -237 6 -91 5 -121 -5 -133 -15 -18 -3 -51 33 -92 26 -30 18 -54 -26 -77 -33 -17 -37 -24 -37 -57 0 -28 5 -38 20 -42 12 -3 20 -14 20 -26 0 -27 26 -38 51 -23 28 18 109 15 131 -5 10 -9 18 -30 18 -48 0 -17 4 -35 9 -40 4 -6 11 -24 14 -41 10 -52 -33 -73 -68 -34 -13 14 -29 20 -49 18 l-31 -3 3 -45 c2 -25 8 -63 14 -85 6 -22 10 -66 10 -98 -1 -40 5 -69 19 -93 22 -40 18 -54 -16 -54 -13 0 -27 -4 -30 -10 -8 -13 -98 -13 -111 -1 -5 5 -20 11 -34 13 -19 2 -26 10 -28 29 -2 16 -11 29 -21 32 -13 3 -20 18 -25 53 -3 27 -11 72 -16 99 -6 28 -13 67 -16 88 -5 30 -10 36 -24 32 -11 -4 -23 1 -32 13 -7 10 -22 24 -34 30 -19 10 -20 8 -18 -26 1 -20 11 -82 23 -137 12 -55 22 -134 22 -175 1 -41 5 -80 11 -87 5 -6 8 -24 6 -40 -2 -21 -9 -29 -27 -31 -13 -2 -39 -12 -58 -23 -18 -10 -44 -19 -57 -19 -12 0 -31 -9 -41 -20 -13 -14 -31 -20 -60 -20 -29 0 -47 6 -60 20 -10 11 -23 20 -28 20 -6 0 -20 9 -31 19 -19 17 -27 18 -79 9 -48 -8 -61 -7 -83 7 -50 32 -64 110 -39 208 6 22 3 31 -20 49 -26 20 -27 25 -22 77 7 63 -6 91 -42 91 -12 0 -25 8 -28 18 -9 22 -23 32 -50 32 -17 0 -23 -6 -23 -22 0 -35 15 -52 40 -45 16 4 23 -1 31 -21 9 -24 7 -30 -19 -52 l-29 -25 13 -119 c19 -175 23 -194 44 -201 10 -3 24 -4 31 -3 17 4 25 -50 10 -65 -6 -6 -11 -25 -11 -42 0 -26 6 -33 40 -47 21 -10 46 -28 55 -41 20 -30 47 -135 39 -149 -4 -5 -30 14 -60 43 -44 43 -54 60 -54 86 0 24 -5 33 -16 33 -9 0 -18 8 -20 18 -5 18 -47 42 -75 42 -10 0 -21 5 -24 10 -3 6 -30 10 -59 10 -57 0 -77 13 -91 60 -10 35 -24 50 -45 50 -10 0 -32 12 -49 26 -44 37 -61 27 -49 -28 6 -24 14 -51 19 -60 5 -10 9 -33 9 -52 0 -30 8 -41 58 -82 31 -25 59 -51 61 -56 4 -12 -59 -78 -75 -78 -6 0 -17 -7 -24 -15 -14 -17 -67 -45 -85 -45 -16 0 -73 29 -81 41 -8 13 24 49 52 59 12 5 29 23 38 41 19 38 22 149 4 167 -17 17 -90 15 -124 -3 -27 -13 -30 -13 -54 9 -19 18 -37 24 -76 25 -55 1 -185 25 -212 40 -43 23 -55 50 -60 129 l-4 79 40 42 c23 24 42 51 44 60 2 11 12 15 31 13 33 -4 92 21 101 43 3 8 3 50 -1 93 -3 43 -2 109 1 145 7 62 10 68 39 81 70 33 170 66 179 60 13 -8 1 -224 -14 -241 -5 -6 -8 -33 -6 -60 3 -45 6 -49 41 -66 21 -10 40 -25 43 -35 3 -9 10 -25 15 -34 17 -33 10 -58 -21 -76 -35 -20 -38 -42 -10 -67 11 -10 20 -23 20 -29 0 -17 50 -36 96 -36 25 0 44 5 46 13 2 6 2 41 -1 77 -6 61 -7 65 -31 65 -22 0 -25 5 -28 39 -2 21 1 43 7 49 17 17 13 38 -10 63 -37 39 -49 116 -54 336 -5 234 9 384 44 464 36 81 149 184 202 184 10 0 21 5 24 10 3 6 36 10 73 10 l68 0 46 -47 47 -48 10 -80 c14 -111 18 -330 7 -452 l-8 -103 51 0 51 0 0 238 c1 313 14 530 34 550 12 12 38 15 119 13 93 -2 105 0 122 19 29 32 59 22 63 -20z m645 -55 c16 -147 19 -257 8 -268 -19 -19 -12 -50 19 -87 17 -19 30 -40 30 -47 0 -6 -17 -20 -37 -29 -21 -10 -47 -25 -58 -34 -11 -10 -34 -20 -52 -23 -34 -7 -48 6 -82 75 -7 14 -22 29 -32 31 -18 5 -19 18 -19 229 0 124 2 227 4 229 2 2 51 2 108 -1 l103 -5 8 -70z m-1740 -15 c52 -58 55 -71 63 -277 5 -125 4 -144 -10 -149 -21 -8 -21 -58 0 -75 13 -11 14 -15 2 -23 -8 -6 -17 -19 -21 -28 -9 -26 -40 -22 -67 7 -35 37 -78 57 -100 45 -9 -5 -20 -6 -24 -3 -3 3 -6 84 -6 180 l0 173 -29 0 c-16 0 -33 -6 -39 -13 -6 -7 -17 -167 -27 -392 -17 -397 -25 -502 -38 -497 -4 1 -40 2 -81 2 -68 0 -75 2 -91 26 -9 14 -13 30 -8 35 4 4 5 77 1 161 -4 84 -3 209 2 277 6 68 10 152 10 187 0 69 22 167 52 231 18 39 119 138 173 170 11 7 59 12 107 12 l86 1 45 -50z m2397 -369 c0 -15 4 -31 10 -37 5 -5 10 -43 12 -84 l3 -75 24 0 c25 0 26 1 60 130 12 43 44 98 56 93 6 -2 10 -52 10 -123 0 -132 10 -213 31 -253 7 -15 21 -51 30 -80 15 -48 20 -53 43 -50 23 3 28 11 44 73 11 39 22 85 25 103 13 64 39 30 41 -54 1 -48 33 -149 63 -202 12 -20 26 -46 32 -57 6 -11 37 -60 70 -109 63 -95 126 -216 126 -241 0 -8 9 -15 19 -15 15 0 20 9 24 43 7 52 24 148 36 205 16 81 46 82 57 1 4 -27 11 -52 15 -55 5 -3 9 -25 9 -50 0 -25 9 -64 20 -86 11 -23 20 -50 20 -60 0 -17 11 -18 139 -18 104 0 141 -3 150 -13 8 -11 7 -17 -7 -28 -30 -24 -61 -39 -82 -39 -11 0 -20 -4 -20 -10 0 -5 21 -10 48 -10 105 -1 223 -47 299 -116 24 -22 92 -97 153 -169 83 -97 123 -153 156 -220 l44 -91 0 -150 c0 -181 16 -248 95 -406 29 -58 51 -109 48 -111 -3 -3 -28 10 -57 30 -235 164 -305 257 -381 508 -15 50 -31 99 -35 110 -23 64 -51 170 -75 287 -8 42 -22 93 -31 113 -19 45 -86 120 -127 140 -46 23 -119 19 -153 -7 -43 -33 -51 -47 -68 -115 -19 -76 -20 -119 -3 -126 17 -6 71 -143 62 -157 -9 -14 -53 25 -66 58 -8 21 -29 31 -29 14 0 -4 -9 -53 -20 -107 -11 -55 -25 -125 -31 -155 -24 -121 -90 -395 -120 -500 -6 -19 -15 -53 -20 -75 -6 -21 -16 -53 -23 -70 -7 -16 -18 -48 -25 -70 -12 -37 -16 -49 -40 -107 -40 -96 -54 -127 -69 -156 -13 -26 -14 -36 -5 -52 18 -28 37 -713 29 -1066 -6 -301 -25 -540 -51 -679 -15 -76 -20 -99 -46 -197 -33 -123 -140 -407 -254 -673 l-77 -180 12 -40 c21 -75 31 -130 26 -151 -3 -11 -24 -44 -47 -73 -44 -55 -44 -60 -19 -146 32 -104 20 -175 -35 -211 -29 -19 -64 -15 -126 16 -23 11 -81 25 -128 30 -191 24 -261 90 -219 206 10 27 8 39 -11 80 -13 27 -49 76 -80 109 -122 128 -252 357 -368 645 -30 74 -58 151 -63 170 -33 128 -43 168 -64 275 -14 66 -30 156 -36 200 -14 91 -19 106 -46 120 -10 6 -55 46 -99 90 -125 126 -335 315 -349 315 -7 0 -23 -12 -37 -26 -13 -14 -55 -50 -94 -79 -38 -29 -83 -67 -99 -84 -17 -17 -34 -31 -40 -31 -5 0 -33 -25 -61 -55 -29 -30 -57 -55 -63 -55 -6 0 -16 -8 -21 -17 -5 -10 -29 -33 -53 -51 -24 -18 -52 -47 -62 -63 -10 -17 -22 -27 -26 -22 -11 11 -15 44 -7 63 3 8 8 31 10 50 3 19 15 76 26 125 12 50 25 108 30 130 4 22 15 60 24 85 9 25 17 53 17 62 0 9 8 21 17 27 30 17 4 25 -40 14 -59 -16 -65 -2 -15 39 70 58 148 238 103 238 -8 0 -24 20 -35 45 -14 32 -26 45 -41 45 -11 0 -22 8 -26 18 -9 23 -132 142 -149 142 -7 0 -19 8 -26 18 -24 31 -115 102 -133 102 -15 0 -17 -7 -12 -47 7 -68 37 -226 43 -232 3 -3 42 -7 87 -8 100 -4 155 -12 163 -25 4 -6 -35 -52 -86 -103 l-93 -93 7 -33 c4 -19 10 -52 13 -74 3 -22 10 -46 16 -53 7 -9 3 -21 -18 -42 -16 -17 -31 -30 -35 -30 -3 0 -33 23 -68 50 l-62 51 -32 -23 c-18 -12 -63 -51 -99 -86 -45 -43 -69 -60 -74 -52 -7 12 9 116 25 155 11 30 30 113 30 135 0 18 -81 110 -97 110 -5 0 -30 20 -57 43 -70 62 -61 69 88 66 68 -1 128 1 134 5 7 4 12 17 12 30 0 12 16 85 36 161 l35 138 -56 57 c-45 46 -53 59 -43 68 10 8 101 10 302 9 l288 -2 -6 55 c-3 30 -10 82 -15 115 -19 112 -30 359 -22 475 13 189 56 301 127 335 76 36 217 3 279 -65 26 -28 99 -61 150 -67 71 -8 85 -13 125 -49 22 -20 44 -33 50 -29 5 3 10 24 10 45 0 49 25 145 45 176 17 27 21 149 5 159 -5 3 -10 16 -10 29 0 12 -5 27 -11 33 -18 18 5 23 35 7 16 -7 40 -14 55 -14 15 0 31 -4 36 -9 12 -11 141 -19 151 -8 4 4 28 7 52 7 86 0 186 43 259 113 73 68 126 178 153 312 11 55 20 103 20 107 0 3 12 20 26 37 35 42 73 42 108 0 16 -18 26 -43 26 -62 1 -90 73 -278 124 -326 14 -14 26 -30 26 -37 0 -31 166 -123 224 -124 23 0 56 -28 56 -47 0 -7 5 -13 10 -13 6 0 10 7 10 15 0 23 33 35 73 25 25 -5 50 -3 79 7 23 8 58 13 77 12 32 -2 44 6 112 69 116 110 163 212 178 391 8 87 11 97 37 119 27 24 29 29 27 95 -3 79 -10 92 -58 101 -19 4 -48 18 -65 32 -24 21 -33 24 -45 14 -11 -9 -31 -9 -92 4 -83 16 -309 23 -356 11 -17 -5 -33 -3 -42 5 -13 10 -19 10 -33 -4 -10 -9 -28 -16 -39 -16 -23 0 -53 39 -53 68 0 22 -27 49 -37 38 -4 -4 -2 -16 5 -26 16 -26 16 -100 0 -104 -7 -2 -47 -14 -88 -27 -99 -32 -284 -34 -375 -5 -33 11 -64 22 -70 26 -5 4 -35 10 -65 13 -73 8 -143 22 -157 30 -7 4 -81 10 -165 13 -143 4 -154 6 -170 26 -17 24 -13 47 5 29 19 -19 135 -13 165 8 25 17 47 24 115 38 37 7 40 14 24 65 -18 55 -35 155 -33 190 0 14 12 38 25 52 l25 26 33 -35 c18 -19 38 -35 43 -35 6 0 13 -8 17 -17 3 -10 21 -39 40 -65 31 -43 38 -47 86 -53 38 -5 68 -2 105 10 l52 17 0 63 c0 87 -9 93 -110 70 -52 -12 -95 -16 -126 -11 -46 6 -84 28 -84 49 0 6 -7 19 -16 29 -14 14 -14 18 -3 22 118 34 190 61 200 72 16 19 2 34 -31 34 -16 0 -32 5 -35 10 -3 6 -30 10 -59 10 -33 0 -58 5 -65 13 -13 17 -5 27 24 27 11 0 26 5 33 12 9 9 15 9 24 0 7 -7 38 -12 69 -12 l58 0 3 42 3 42 56 -3 c33 -1 60 2 64 8 3 6 17 11 30 11 13 0 27 5 30 10 3 6 16 10 29 10 12 0 27 5 34 12 8 8 15 8 26 -1 20 -17 46 -69 46 -92 0 -10 5 -21 10 -24 6 -3 10 -30 10 -59 0 -54 19 -84 63 -99 13 -5 17 -18 17 -61 0 -30 5 -58 10 -61 6 -3 10 -19 10 -36 0 -16 5 -29 10 -29 6 0 10 31 10 74 0 41 -4 78 -10 81 -5 3 -10 21 -10 40 0 19 -4 37 -10 40 -5 3 -10 19 -10 35 0 16 -4 32 -10 35 -5 3 -10 23 -10 44 0 27 -7 44 -26 62 -14 13 -32 40 -41 59 -43 99 -53 116 -83 129 -17 7 -43 11 -58 8 -15 -3 -35 -1 -45 5 -11 6 -23 6 -30 0 -7 -5 -39 -16 -72 -24 -33 -9 -77 -22 -97 -31 -20 -8 -39 -13 -42 -10 -16 17 66 123 116 149 63 33 271 5 339 -45 35 -26 44 -22 53 20 12 61 46 75 46 20z m1350 -23 c0 -29 28 -58 56 -58 35 0 40 -21 11 -46 -29 -24 -34 -53 -16 -85 6 -12 8 -28 5 -36 -6 -14 -10 -13 -29 6 -29 26 -59 27 -82 1 -26 -29 -34 -16 -28 44 l5 53 -31 22 c-39 28 -28 48 27 53 31 2 38 7 40 28 7 49 42 64 42 18z m-2032 -168 c2 -42 9 -71 19 -83 15 -16 15 -19 2 -33 -13 -13 -19 -13 -47 2 -41 20 -52 41 -52 100 0 54 22 87 54 82 18 -3 21 -11 24 -68z m156 -111 c-3 -5 -10 -7 -15 -3 -5 3 -7 10 -3 15 3 5 10 7 15 3 5 -3 7 -10 3 -15z m-2231 -425 c3 -4 -8 -23 -25 -44 -35 -41 -63 -43 -78 -6 -4 11 -9 25 -11 31 -2 6 11 9 32 7 21 -2 40 1 44 7 7 12 28 15 38 5z m2108 -358 c41 -8 94 -23 116 -34 65 -33 118 -110 98 -141 -8 -14 -62 -14 -70 -1 -3 6 -46 10 -95 10 -49 0 -92 -4 -95 -10 -4 -6 -53 -10 -115 -10 -62 0 -111 4 -115 10 -3 6 -28 10 -55 10 -27 0 -52 -4 -55 -10 -3 -5 -31 -10 -62 -10 -60 0 -93 18 -93 50 0 29 81 95 140 114 107 36 272 45 401 22z m1167 -1 c83 -20 135 -47 166 -88 27 -35 34 -81 15 -93 -6 -3 -16 -1 -22 5 -14 14 -144 15 -152 1 -3 -6 -50 -10 -105 -10 -55 0 -102 4 -105 10 -9 14 -338 13 -352 -1 -6 -6 -16 -8 -22 -5 -21 13 -11 53 24 93 39 46 92 65 247 87 125 19 230 19 306 1z m-2818 -90 c0 -21 -19 -28 -36 -14 -14 12 -14 14 2 26 19 14 34 9 34 -12z m3747 -2133 c6 -26 13 -60 13 -77 1 -16 9 -46 18 -65 l17 -35 95 -3 c52 -1 101 -5 109 -7 9 -4 -17 -34 -73 -86 -87 -82 -99 -104 -77 -147 5 -9 14 -35 19 -57 6 -22 16 -59 22 -81 21 -72 4 -71 -75 5 -40 39 -79 71 -85 71 -17 0 -74 -42 -131 -97 -31 -30 -49 -41 -54 -33 -4 6 1 43 10 83 9 40 20 89 25 110 10 47 3 78 -24 97 -40 28 -136 123 -131 130 3 4 54 11 115 15 89 6 110 10 114 24 2 9 9 36 14 61 21 89 35 145 40 153 8 16 26 -12 39 -61z m-3549 -696 c8 -15 11 -35 7 -44 -5 -13 -11 -11 -37 16 -27 26 -30 33 -18 47 17 21 32 15 48 -19z m342 -729 c0 -31 38 -188 52 -214 11 -22 17 -23 119 -23 61 0 110 -4 114 -10 3 -6 -15 -29 -42 -53 -112 -98 -146 -136 -138 -154 6 -17 51 -182 62 -229 10 -42 -13 -31 -100 47 -102 92 -94 92 -195 -4 -79 -77 -92 -70 -68 35 9 40 22 89 28 110 19 65 8 82 -110 180 -34 28 -61 56 -59 62 2 7 47 12 115 14 94 2 113 5 120 20 5 9 22 64 37 122 15 58 32 111 38 117 13 17 27 7 27 -20z m3239 -82 c7 -33 16 -80 21 -105 4 -25 13 -61 18 -80 6 -19 18 -62 27 -95 9 -32 18 -61 20 -63 2 -2 61 -4 132 -3 138 0 208 -8 208 -25 0 -6 -60 -66 -133 -134 -125 -116 -133 -126 -129 -155 5 -29 58 -224 69 -255 21 -55 35 -131 26 -136 -5 -3 -46 29 -91 72 -154 148 -177 166 -202 157 -24 -9 -136 -106 -221 -191 -32 -34 -55 -49 -59 -42 -7 11 28 182 46 228 5 13 9 33 9 45 0 12 7 42 16 67 24 68 13 99 -56 161 -157 141 -210 193 -202 201 4 4 86 9 181 10 l174 3 23 85 c13 47 23 95 24 108 0 12 4 30 9 40 6 9 17 51 26 92 24 108 23 106 39 89 8 -8 19 -41 25 -74z"/>
<path d="M3935 6490 c-4 -6 -6 -117 -4 -248 1 -130 -2 -249 -6 -264 -6 -23 1 -38 36 -87 38 -51 48 -58 69 -54 14 3 31 10 37 15 9 7 24 3 48 -11 54 -32 67 -28 63 17 -3 33 0 37 22 40 14 2 29 8 35 13 5 5 17 9 28 9 11 0 16 5 13 13 -3 6 -9 20 -12 30 -9 25 -19 22 -90 -28 -76 -53 -83 -48 -61 49 18 80 13 111 -25 137 -23 17 -29 27 -26 53 3 28 7 31 41 34 l37 3 0 104 0 104 -42 3 c-33 2 -45 8 -54 26 -6 12 -20 29 -30 37 -22 17 -70 20 -79 5z"/>
<path d="M3316 6393 c-3 -49 -5 -196 -3 -328 l4 -240 21 -3 c39 -6 43 24 44 326 2 302 -2 332 -43 332 -14 0 -18 -15 -23 -87z"/>
<path d="M3697 5825 c-22 -16 -19 -58 3 -63 8 -1 30 7 49 18 l33 21 -17 20 c-21 22 -43 24 -68 4z"/>
<path d="M3792 5688 c-11 -11 -18 -98 -8 -98 3 0 16 4 30 10 23 8 26 15 26 55 0 37 -3 45 -18 45 -10 0 -23 -5 -30 -12z"/>
<path d="M2787 5473 c-4 -3 -7 -25 -7 -48 0 -40 2 -43 31 -49 47 -9 49 -8 49 20 0 15 -12 38 -29 55 -32 31 -34 32 -44 22z"/>
<path d="M3814 5446 c-3 -8 -4 -25 -2 -38 2 -18 10 -24 36 -26 28 -3 32 0 32 21 0 41 -54 75 -66 43z"/>
<path d="M4886 5852 c-3 -6 1 -26 9 -46 12 -28 21 -36 40 -36 36 0 67 34 56 62 -7 19 -17 24 -54 26 -25 2 -48 -1 -51 -6z"/>
<path d="M5340 5535 c0 -14 5 -25 10 -25 6 0 10 11 10 25 0 14 -4 25 -10 25 -5 0 -10 -11 -10 -25z"/>
<path d="M5360 5440 c0 -11 5 -20 10 -20 6 0 10 9 10 20 0 11 -4 20 -10 20 -5 0 -10 -9 -10 -20z"/>
<path d="M6340 5170 c0 -5 9 -10 20 -10 11 0 20 5 20 10 0 6 -9 10 -20 10 -11 0 -20 -4 -20 -10z"/>
<path d="M5620 4195 c0 -37 4 -65 10 -65 6 0 10 28 10 65 0 37 -4 65 -10 65 -6 0 -10 -28 -10 -65z"/>
<path d="M4480 4205 c0 -25 5 -45 10 -45 6 0 10 20 10 45 0 25 -4 45 -10 45 -5 0 -10 -20 -10 -45z"/>
<path d="M4280 4175 c0 -14 5 -25 10 -25 6 0 10 11 10 25 0 14 -4 25 -10 25 -5 0 -10 -11 -10 -25z"/>
<path d="M4300 4050 c0 -27 5 -50 10 -50 6 0 10 23 10 50 0 28 -4 50 -10 50 -5 0 -10 -22 -10 -50z"/>
<path d="M4460 4025 c0 -30 5 -55 10 -55 6 0 10 25 10 55 0 30 -4 55 -10 55 -5 0 -10 -25 -10 -55z"/>
<path d="M4653 4013 c-36 -80 -41 -92 -54 -143 -6 -25 -15 -50 -20 -56 -4 -5 -34 -10 -65 -10 l-57 1 2 68 c1 40 -2 67 -8 67 -5 0 -11 -26 -13 -57 l-3 -58 -75 -3 c-41 -2 -80 -8 -87 -14 -20 -16 -15 -42 9 -53 13 -6 29 -22 36 -37 8 -17 31 -36 58 -48 24 -11 44 -27 44 -35 0 -18 12 -19 28 -3 9 9 16 7 32 -7 24 -22 25 -32 4 -74 -9 -17 -17 -44 -19 -58 -1 -15 -12 -34 -23 -43 -27 -23 -34 -99 -9 -114 13 -9 20 -6 33 12 9 13 26 27 38 33 23 10 33 16 120 73 l60 39 30 -18 c17 -10 52 -29 78 -42 25 -13 52 -31 58 -38 7 -8 18 -15 25 -15 6 0 20 -9 30 -20 16 -18 55 -28 55 -15 0 3 -8 22 -19 43 -28 55 -74 210 -67 227 3 9 14 19 23 22 10 4 37 22 60 39 24 18 52 35 63 39 22 7 84 -27 146 -79 30 -25 34 -33 28 -60 -3 -17 -10 -35 -14 -41 -14 -19 -64 -184 -58 -191 4 -3 28 8 53 25 25 17 48 31 50 31 2 0 25 15 51 33 25 17 60 40 76 50 l31 18 26 -23 c14 -13 37 -35 51 -50 33 -36 134 -88 171 -88 26 0 29 3 29 34 0 19 -4 38 -10 41 -5 3 -10 15 -10 25 0 11 -9 35 -20 55 -11 20 -20 44 -20 53 0 10 -5 23 -12 30 -9 9 -6 18 16 41 15 15 39 34 54 42 40 20 146 91 154 103 4 6 8 19 8 28 0 15 -13 18 -92 20 -81 3 -93 5 -90 20 1 9 -2 19 -8 23 -5 3 -10 42 -10 86 0 46 -4 79 -10 79 -6 0 -10 -35 -10 -85 0 -107 -14 -135 -66 -131 -39 4 -58 24 -69 76 -4 19 -11 41 -16 50 -15 29 -37 85 -43 113 -7 28 -13 32 -31 19 -6 -4 -28 -59 -49 -122 -20 -63 -45 -123 -53 -132 -14 -16 -39 -18 -235 -18 -121 0 -227 4 -237 10 -10 5 -26 35 -36 67 -10 32 -26 78 -35 103 -10 25 -21 57 -24 73 -9 41 -23 33 -53 -30z m67 -227 c0 -40 29 -56 101 -56 37 0 70 -4 74 -10 3 -5 -14 -18 -37 -29 -55 -26 -78 -45 -78 -62 0 -16 22 -78 33 -96 17 -27 -16 -21 -69 13 -64 41 -68 40 -146 -19 -25 -19 -48 -33 -51 -31 -3 3 3 22 13 42 22 47 32 94 22 107 -10 14 -63 50 -85 58 -35 13 -6 27 56 27 34 0 67 4 73 8 6 4 17 25 24 47 20 62 30 71 52 43 9 -13 18 -32 18 -42z m691 16 c19 -61 35 -72 99 -72 31 0 60 -3 63 -7 9 -8 -22 -43 -38 -43 -6 0 -22 -12 -36 -26 l-24 -25 21 -59 c12 -33 19 -62 16 -65 -3 -2 -16 5 -30 15 -13 11 -29 20 -35 20 -6 0 -21 10 -34 22 l-24 22 -36 -19 c-21 -11 -50 -30 -65 -43 -35 -30 -54 -21 -34 16 48 91 46 101 -33 144 -23 14 -43 29 -42 34 0 5 31 11 68 14 38 3 73 8 80 13 6 4 17 24 24 45 23 72 40 76 60 14z"/>
<path d="M3780 3642 c0 -10 5 -23 12 -30 7 -7 20 -12 30 -12 13 0 18 8 18 30 0 27 -3 30 -30 30 -22 0 -30 -5 -30 -18z"/>
<path d="M5460 3325 c0 -25 5 -45 10 -45 6 0 10 20 10 45 0 25 -4 45 -10 45 -5 0 -10 -20 -10 -45z"/>
<path d="M4460 3270 c0 -11 5 -20 10 -20 6 0 10 9 10 20 0 11 -4 20 -10 20 -5 0 -10 -9 -10 -20z"/>
<path d="M4480 3205 c0 -14 5 -25 10 -25 6 0 10 11 10 25 0 14 -4 25 -10 25 -5 0 -10 -11 -10 -25z"/>
<path d="M5440 3125 c0 -50 4 -85 10 -85 6 0 10 35 10 85 0 50 -4 85 -10 85 -6 0 -10 -35 -10 -85z"/>
<path d="M3520 3020 c0 -93 4 -150 10 -150 6 0 10 57 10 150 0 93 -4 150 -10 150 -6 0 -10 -57 -10 -150z"/>
<path d="M4500 3131 c0 -17 5 -33 10 -36 6 -3 10 -17 10 -31 0 -13 5 -24 10 -24 6 0 10 13 10 29 0 17 -4 33 -10 36 -5 3 -10 17 -10 31 0 13 -4 24 -10 24 -5 0 -10 -13 -10 -29z"/>
<path d="M4540 2990 c0 -11 5 -20 10 -20 6 0 10 9 10 20 0 11 -4 20 -10 20 -5 0 -10 -9 -10 -20z"/>
<path d="M5420 2725 c0 -143 4 -225 10 -225 6 0 10 82 10 225 0 143 -4 225 -10 225 -6 0 -10 -82 -10 -225z"/>
<path d="M4040 2910 c0 -11 5 -20 10 -20 6 0 10 9 10 20 0 11 -4 20 -10 20 -5 0 -10 -9 -10 -20z"/>
<path d="M4560 2900 c0 -5 5 -10 10 -10 6 0 10 5 10 10 0 6 -4 10 -10 10 -5 0 -10 -4 -10 -10z"/>
<path d="M4060 2846 c0 -8 5 -18 10 -21 6 -3 10 -14 10 -24 0 -21 22 -71 33 -71 14 0 10 17 -21 77 -7 13 -12 30 -12 38 0 8 -4 15 -10 15 -5 0 -10 -6 -10 -14z"/>
<path d="M4580 2826 c0 -14 5 -28 10 -31 6 -3 10 -17 10 -31 0 -13 5 -24 10 -24 6 0 10 11 10 24 0 14 -4 28 -10 31 -5 3 -10 17 -10 31 0 13 -4 24 -10 24 -5 0 -10 -11 -10 -24z"/>
<path d="M4620 2700 c0 -11 5 -20 10 -20 6 0 10 9 10 20 0 11 -4 20 -10 20 -5 0 -10 -9 -10 -20z"/>
<path d="M5010 2641 c-5 -11 -10 -27 -10 -35 0 -8 -7 -32 -16 -53 -18 -42 -26 -59 -48 -116 l-15 -38 -98 3 c-93 3 -98 4 -101 26 -4 27 -18 29 -25 2 -4 -17 -14 -20 -57 -20 -47 0 -51 -2 -48 -22 2 -12 18 -30 40 -42 20 -12 66 -49 102 -84 62 -59 66 -65 66 -108 0 -29 -7 -56 -19 -73 -15 -20 -19 -41 -17 -79 1 -29 5 -55 9 -58 6 -6 74 15 94 29 14 10 33 1 33 -17 0 -7 9 -21 20 -31 11 -10 20 -23 20 -30 0 -7 9 -20 20 -30 11 -10 20 -23 20 -30 0 -6 14 -24 30 -40 17 -16 30 -34 30 -40 0 -7 9 -20 20 -30 11 -10 20 -23 20 -30 0 -6 14 -24 30 -40 17 -16 30 -34 30 -40 0 -7 9 -20 20 -30 11 -10 20 -24 20 -30 0 -14 28 -40 35 -33 8 8 -38 91 -87 156 -27 34 -48 65 -48 67 0 3 -22 35 -50 70 -27 35 -50 67 -50 70 0 3 -19 33 -41 67 l-42 61 24 18 c13 11 43 28 67 40 51 25 59 23 162 -46 36 -23 79 -49 95 -56 l30 -14 3 -88 c1 -48 7 -87 11 -87 5 0 11 46 13 103 5 89 3 105 -13 129 -11 14 -26 50 -35 80 -9 29 -20 61 -25 70 -17 33 -9 56 29 86 45 35 78 53 84 46 3 -3 19 8 35 23 17 15 42 36 57 46 34 23 33 30 -6 45 -25 9 -30 14 -20 24 15 15 16 38 2 38 -5 0 -10 -6 -10 -13 0 -8 -8 -21 -19 -31 -14 -13 -39 -17 -120 -17 -55 0 -106 3 -112 7 -12 7 -15 16 -69 157 -34 87 -50 104 -70 68z m55 -245 c21 -61 36 -70 117 -65 24 2 43 -1 43 -7 1 -5 -19 -22 -43 -38 -24 -16 -46 -35 -49 -43 -3 -8 4 -41 15 -73 11 -32 18 -61 15 -64 -3 -2 -28 13 -56 35 -29 21 -62 39 -74 39 -13 0 -45 -16 -71 -35 -27 -19 -51 -32 -54 -29 -3 2 4 29 15 59 23 64 19 81 -26 100 -75 31 -68 60 14 56 37 -2 52 2 68 18 12 12 21 28 21 36 0 23 29 77 39 71 4 -3 16 -30 26 -60z m-222 -178 c6 -8 7 -23 3 -33 -6 -18 -8 -18 -28 2 -13 13 -18 28 -14 38 7 19 25 16 39 -7z"/>
<path d="M4640 2626 c0 -14 5 -28 10 -31 6 -3 10 -19 10 -36 0 -16 5 -29 10 -29 6 0 10 13 10 29 0 17 -4 33 -10 36 -5 3 -10 17 -10 31 0 13 -4 24 -10 24 -5 0 -10 -11 -10 -24z"/>
<path d="M4160 2616 c0 -11 45 -76 53 -76 11 0 8 11 -12 44 -15 27 -41 46 -41 32z"/>
<path d="M4680 2495 c0 -8 5 -15 10 -15 6 0 10 7 10 15 0 8 -4 15 -10 15 -5 0 -10 -7 -10 -15z"/>
<path d="M3599 2463 c-13 -16 -12 -17 4 -4 9 7 17 15 17 17 0 8 -8 3 -21 -13z"/>
<path d="M4260 2466 c0 -9 5 -16 10 -16 6 0 10 4 10 9 0 6 -4 13 -10 16 -5 3 -10 -1 -10 -9z"/>
<path d="M3540 2430 c0 -5 5 -10 10 -10 6 0 10 5 10 10 0 6 -4 10 -10 10 -5 0 -10 -4 -10 -10z"/>
<path d="M4280 2310 c0 -16 5 -30 10 -30 6 0 10 14 10 30 0 17 -4 30 -10 30 -5 0 -10 -13 -10 -30z"/>
<path d="M4300 2135 c0 -25 5 -45 10 -45 6 0 10 20 10 45 0 25 -4 45 -10 45 -5 0 -10 -20 -10 -45z"/>
<path d="M5300 2095 c0 -8 5 -15 10 -15 6 0 10 7 10 15 0 8 -4 15 -10 15 -5 0 -10 -7 -10 -15z"/>
<path d="M4320 1995 c0 -14 5 -25 10 -25 6 0 10 11 10 25 0 14 -4 25 -10 25 -5 0 -10 -11 -10 -25z"/>
<path d="M5260 1535 c0 -14 5 -25 10 -25 6 0 10 11 10 25 0 14 -4 25 -10 25 -5 0 -10 -11 -10 -25z"/>
</g>
</g>
  <g id="id1:id1" transform="matrix(1.25,0,0,1.25,0.0,0.0)"><g transform="translate(0.000000,291.200000) scale(0.040000,-0.040000)" fill="#77b03d" stroke="none">
<path d="M4148 6889 c-22 -8 -28 -17 -28 -39 0 -17 6 -30 18 -34 9 -3 31 -14 47 -25 17 -11 48 -20 71 -20 22 -1 45 -6 52 -13 8 -8 15 -8 27 2 18 15 20 61 4 77 -6 6 -17 22 -23 35 -10 20 -19 23 -76 25 -36 1 -77 -3 -92 -8z m16 -50 c-3 -5 -10 -7 -15 -3 -5 3 -7 10 -3 15 3 5 10 7 15 3 5 -3 7 -10 3 -15z"/>
<path d="M4480 6893 c0 -3 7 -15 16 -25 14 -14 15 -20 4 -33 -19 -23 23 -65 65 -65 33 0 95 26 95 39 0 13 -36 41 -53 41 -25 0 -31 21 -8 27 43 11 19 23 -49 23 -38 0 -70 -3 -70 -7z"/>
<path d="M3877 6806 c-3 -9 -15 -12 -31 -9 -15 3 -26 1 -26 -6 0 -6 6 -11 14 -11 7 0 19 -7 26 -15 16 -19 54 -16 56 5 1 8 2 19 3 24 0 5 8 3 16 -4 20 -17 32 -5 15 15 -16 19 -66 20 -73 1z"/>
<path d="M5513 6468 c-9 -14 -31 -74 -72 -190 -15 -42 -30 -80 -34 -84 -14 -15 -27 52 -27 147 l0 99 -29 0 c-23 0 -31 -6 -40 -30 -21 -57 -30 -85 -36 -118 -4 -18 -17 -40 -31 -48 -20 -14 -24 -25 -24 -65 0 -26 -4 -51 -10 -54 -23 -14 -10 -66 33 -124 10 -15 17 -42 17 -71 0 -33 5 -50 15 -54 8 -3 15 -14 15 -25 0 -11 5 -23 10 -26 6 -3 10 -21 10 -39 0 -17 5 -37 11 -43 6 -6 9 -23 7 -39 -2 -24 -7 -29 -27 -26 -20 2 -22 -1 -17 -20 3 -13 9 -47 12 -76 4 -29 11 -55 15 -58 5 -3 9 -24 9 -48 0 -23 5 -47 10 -52 6 -6 11 -29 13 -51 1 -23 6 -45 10 -49 4 -4 7 -22 7 -41 0 -23 -5 -35 -17 -39 -10 -3 -26 -10 -35 -15 -10 -5 -29 -9 -42 -9 -14 0 -28 -4 -31 -10 -3 -5 -26 -10 -50 -10 -24 0 -47 -4 -50 -10 -3 -5 -24 -10 -45 -10 -21 0 -42 5 -45 10 -3 6 -24 10 -45 10 -21 0 -42 5 -45 10 -3 6 -17 10 -31 10 -22 0 -23 -3 -14 -20 7 -14 21 -20 45 -20 18 0 37 -4 40 -10 3 -5 46 -10 95 -10 49 0 92 5 95 10 3 6 26 10 50 10 24 0 47 5 50 10 3 6 17 10 30 10 13 0 27 5 31 11 3 6 15 9 25 6 10 -3 24 1 30 9 7 9 16 11 23 5 12 -10 60 -8 88 4 22 9 60 3 56 -10 -2 -5 -17 -10 -34 -11 -16 0 -35 -3 -40 -6 -5 -4 -27 -9 -49 -14 -103 -19 -152 -49 -186 -116 -28 -54 -25 -75 11 -83 19 -4 36 -2 45 5 19 16 313 16 328 1 16 -16 222 -15 235 2 13 16 107 14 127 -3 9 -7 26 -9 45 -5 37 8 39 30 10 91 -34 69 -123 119 -230 131 -63 6 -84 18 -54 30 21 8 263 -24 317 -42 21 -7 46 -11 55 -8 25 6 58 -32 44 -50 -7 -8 -11 -35 -10 -61 2 -40 -2 -50 -24 -69 -25 -20 -28 -32 -38 -126 -22 -202 -91 -333 -215 -405 -54 -32 -175 -60 -232 -53 -32 3 -49 0 -67 -14 -21 -17 -23 -26 -24 -101 0 -46 5 -93 11 -106 8 -17 8 -31 -1 -55 -6 -18 -11 -74 -10 -125 0 -56 -4 -98 -11 -105 -6 -6 -11 -30 -11 -53 0 -24 -4 -46 -10 -49 -20 -12 -10 -27 15 -23 14 3 30 -1 36 -8 8 -10 35 -14 85 -14 40 0 75 -4 78 -9 3 -4 -27 -29 -67 -53 -122 -76 -146 -93 -151 -105 -3 -6 13 -58 35 -114 25 -62 37 -105 31 -111 -5 -5 -31 3 -65 22 l-57 31 -24 -16 c-15 -10 -23 -22 -19 -31 3 -8 -1 -22 -10 -32 -12 -13 -15 -41 -15 -117 1 -55 -4 -161 -11 -235 -6 -74 -11 -210 -11 -302 0 -100 -4 -169 -10 -173 -5 -3 -10 -16 -10 -28 0 -12 -7 -35 -15 -51 -21 -39 -19 -43 16 -61 38 -20 34 -33 -22 -63 -48 -25 -63 -38 -109 -93 -30 -37 -38 -67 -20 -85 5 -5 11 -33 14 -62 3 -30 10 -60 17 -68 9 -11 8 -18 -6 -34 -12 -13 -15 -24 -8 -32 13 -19 17 -134 4 -142 -7 -5 -11 -44 -11 -101 0 -52 -4 -96 -8 -99 -12 -7 -52 22 -52 38 0 7 -14 25 -30 41 -17 16 -30 34 -30 40 0 7 -9 20 -20 30 -11 10 -20 23 -20 30 0 6 -13 24 -30 40 -16 16 -30 34 -30 40 0 7 -9 20 -20 30 -11 10 -20 24 -20 30 0 7 -7 18 -16 25 -8 8 -21 28 -29 47 -14 34 -29 42 -40 22 -4 -5 -17 -14 -28 -20 -12 -5 -30 -14 -39 -21 -36 -26 -36 6 -1 97 50 126 46 153 -27 188 -59 29 -160 101 -152 109 5 5 73 12 150 15 128 5 142 8 142 24 0 10 9 34 20 54 11 20 20 44 20 55 0 10 5 22 10 25 6 3 10 21 10 39 0 35 31 73 49 61 6 -3 11 -21 11 -40 0 -21 6 -35 16 -39 22 -8 31 1 16 16 -7 7 -12 22 -12 33 0 25 -29 55 -52 55 -19 0 -48 -42 -48 -69 0 -11 -4 -23 -10 -26 -5 -3 -10 -15 -10 -26 0 -10 -4 -27 -9 -37 -5 -9 -17 -35 -28 -57 l-19 -40 -68 -3 c-79 -3 -112 14 -101 56 4 15 -1 32 -15 49 -12 15 -20 41 -20 62 0 21 -5 42 -11 48 -6 6 -12 25 -14 42 -1 17 -8 37 -15 46 -7 8 -10 21 -7 30 4 8 2 17 -3 20 -6 4 -10 17 -10 30 0 13 -4 27 -10 30 -5 3 -10 21 -10 39 0 19 -7 39 -15 46 -8 7 -15 27 -15 46 0 18 -4 36 -10 39 -5 3 -7 19 -4 34 4 16 1 32 -5 35 -6 4 -11 17 -11 29 0 12 -7 31 -15 41 -8 11 -12 29 -9 42 3 12 1 25 -5 28 -6 4 -11 18 -11 31 0 13 -4 27 -10 30 -5 3 -10 28 -10 56 0 46 -11 62 -25 39 -5 -8 -11 -7 -21 1 -12 10 -12 15 0 38 36 69 39 80 28 94 -8 10 -7 20 3 41 8 16 15 39 15 51 0 25 -53 85 -74 85 -7 0 -21 9 -31 20 -10 11 -26 20 -35 20 -21 0 -64 45 -56 58 3 6 41 8 89 6 68 -4 86 -2 97 11 10 12 10 19 2 27 -14 14 -16 60 -3 74 5 5 12 38 15 74 3 36 10 110 15 165 5 55 13 134 17 175 3 41 11 81 17 88 14 17 8 20 -49 26 -114 11 -186 38 -268 100 -25 20 -53 36 -61 36 -16 0 -20 -30 -6 -46 10 -11 46 -106 68 -180 15 -49 14 -58 -7 -147 -12 -53 -19 -104 -15 -116 11 -35 -24 -43 -70 -15 -22 13 -53 24 -70 24 -70 0 -105 14 -176 68 -80 61 -135 82 -216 82 -108 0 -164 -56 -205 -207 -18 -68 -21 -105 -21 -293 0 -154 5 -243 16 -312 22 -129 22 -157 -2 -166 -11 -4 -20 -11 -20 -17 -1 -6 -98 -10 -270 -10 -148 0 -273 -3 -277 -8 -4 -4 20 -36 54 -70 45 -45 62 -70 62 -89 0 -15 -4 -30 -10 -33 -5 -3 -10 -21 -10 -40 0 -19 -4 -37 -10 -40 -5 -3 -10 -21 -10 -39 0 -17 -5 -37 -12 -44 -7 -7 -11 -29 -9 -50 3 -44 -21 -74 -41 -54 -13 13 -101 16 -197 6 -48 -5 -61 -10 -61 -24 0 -18 40 -60 57 -60 6 0 17 -7 24 -16 7 -9 23 -20 36 -25 13 -5 23 -14 23 -21 0 -7 10 -18 22 -23 12 -6 30 -25 40 -44 15 -27 16 -36 6 -48 -7 -8 -11 -32 -9 -53 1 -21 -2 -41 -8 -45 -6 -3 -11 -17 -11 -30 0 -13 -5 -27 -10 -30 -5 -3 -10 -17 -10 -30 0 -13 -4 -27 -10 -30 -5 -3 -10 -24 -10 -46 0 -36 2 -40 22 -37 12 2 28 14 34 27 14 28 114 131 128 131 5 0 18 8 28 17 18 16 21 15 56 -20 21 -20 43 -37 50 -37 16 0 102 -90 102 -107 0 -7 9 -13 20 -13 15 0 20 7 20 29 0 17 -4 33 -10 36 -5 3 -10 17 -10 30 0 13 -4 27 -10 30 -5 3 -10 17 -10 30 0 13 -4 27 -10 30 -6 3 -10 26 -10 50 0 24 -4 47 -10 50 -24 15 -5 46 80 130 50 49 90 93 90 97 0 26 -44 -3 -116 -76 -73 -74 -84 -90 -84 -120 0 -19 5 -38 10 -41 16 -10 12 -101 -5 -115 -13 -11 -22 -7 -53 23 -32 31 -45 37 -82 37 -41 0 -49 -5 -102 -57 -48 -47 -58 -54 -64 -39 -4 9 -2 22 5 29 6 6 11 26 11 43 0 18 5 36 10 39 6 3 10 36 10 73 l0 68 -65 64 c-35 35 -62 67 -59 72 3 4 45 8 93 8 97 0 111 7 111 56 0 18 5 36 10 39 6 3 10 20 10 36 0 42 28 83 46 68 8 -6 14 -22 14 -35 0 -13 5 -24 10 -24 6 0 10 22 10 49 0 28 -4 53 -10 56 -13 8 -13 62 1 70 6 4 21 -2 33 -14 12 -12 27 -21 32 -21 14 0 64 -53 64 -68 0 -7 9 -12 20 -12 11 0 20 4 20 8 0 4 -28 35 -62 69 -49 48 -71 62 -98 65 -32 3 -35 6 -38 38 -2 19 -10 42 -18 51 -8 9 -11 19 -7 22 3 4 107 7 229 7 l223 0 16 -34 c13 -27 15 -55 11 -137 -8 -152 -16 -233 -27 -244 -5 -5 -9 -38 -9 -73 0 -131 -52 -227 -157 -289 -32 -18 -43 -31 -43 -49 0 -28 10 -29 68 -7 33 12 46 13 55 4 17 -17 18 -78 2 -91 -9 -7 -12 -22 -9 -40 4 -15 1 -31 -5 -34 -6 -4 -11 -18 -11 -31 0 -13 -4 -27 -10 -30 -5 -3 -10 -30 -10 -60 0 -30 -4 -57 -10 -60 -5 -3 -10 -26 -10 -50 0 -24 -4 -47 -10 -50 -5 -3 -10 -21 -10 -40 0 -19 -4 -37 -10 -40 -12 -7 -13 -45 -2 -45 15 0 72 76 72 96 0 3 -7 4 -15 1 -17 -7 -30 9 -15 18 5 3 10 26 10 50 0 24 5 47 10 50 6 3 10 17 10 30 0 13 5 27 10 30 6 3 10 17 10 30 0 13 5 27 10 30 6 3 10 21 10 40 0 19 5 37 10 40 6 3 10 20 10 37 0 17 7 40 17 50 9 10 21 28 27 40 12 23 61 56 87 57 9 1 29 8 45 16 35 17 171 152 188 186 6 13 24 30 39 37 16 8 31 21 34 30 3 10 13 25 21 34 8 9 33 54 56 100 23 47 47 83 56 83 15 0 68 -89 69 -117 1 -10 10 -33 21 -53 11 -20 20 -42 20 -49 0 -19 28 -72 45 -86 8 -7 15 -17 15 -22 0 -6 18 -32 40 -58 38 -45 40 -51 40 -113 0 -36 5 -69 10 -72 6 -3 10 -39 10 -80 0 -41 5 -77 10 -80 12 -8 13 -122 1 -129 -4 -3 -22 12 -40 34 -18 22 -37 40 -44 40 -7 0 -57 45 -112 100 -55 55 -104 100 -109 100 -5 0 -20 10 -33 22 -13 12 -26 18 -30 14 -8 -8 136 -156 152 -156 15 0 225 -214 225 -230 0 -7 13 -27 29 -45 19 -22 31 -49 36 -81 17 -119 67 -354 97 -459 26 -92 98 -274 159 -405 42 -89 70 -139 152 -275 31 -51 96 -136 149 -192 l58 -61 0 -89 c0 -159 56 -212 240 -230 36 -3 83 -15 105 -25 22 -11 70 -22 106 -25 l65 -5 27 32 c15 17 30 43 34 58 7 29 -10 147 -29 199 -11 31 -10 35 19 65 63 67 78 133 47 213 -27 71 -26 77 41 230 158 359 271 673 304 843 12 57 30 205 41 329 25 276 30 847 10 1248 l-13 260 45 105 c44 101 124 336 146 430 53 220 86 371 108 485 13 74 29 147 35 162 l10 26 32 -31 c78 -76 86 -18 24 168 -25 75 -28 103 -13 150 33 114 171 121 260 13 37 -45 52 -86 86 -234 38 -169 97 -360 156 -509 44 -110 129 -204 296 -328 108 -80 148 -101 148 -76 0 8 -29 70 -65 138 -85 162 -96 204 -103 412 l-7 171 -48 96 c-26 52 -69 120 -95 149 -26 29 -78 89 -115 134 -110 132 -205 195 -317 211 -64 9 -66 11 -32 46 18 18 32 36 32 40 0 3 -71 8 -157 9 l-158 3 -3 24 c-2 13 -13 39 -24 59 -13 23 -18 50 -17 78 2 23 -3 49 -9 57 -7 8 -11 35 -10 61 1 31 -4 52 -14 63 -16 15 -43 10 -33 -7 3 -4 -2 -13 -10 -20 -9 -7 -12 -22 -9 -39 4 -18 0 -32 -10 -40 -11 -9 -14 -25 -10 -59 4 -39 1 -52 -19 -75 l-24 -29 -48 89 c-26 48 -64 113 -84 143 -128 191 -155 279 -156 515 0 91 -3 110 -15 110 -16 0 -19 -12 -66 -220 -27 -121 -40 -153 -56 -137 -5 5 -22 48 -38 96 -35 103 -38 169 -15 371 19 164 19 155 -9 155 -14 0 -28 -6 -33 -12z m635 -1010 c7 -7 12 -29 12 -50 0 -20 9 -53 20 -73 11 -20 20 -44 20 -55 0 -19 7 -20 108 -20 60 0 112 -3 115 -7 13 -13 -16 -33 -49 -33 -18 0 -36 -4 -39 -10 -3 -5 -21 -10 -39 -10 -17 0 -37 -5 -43 -11 -13 -13 -33 -4 -33 17 0 8 -8 14 -18 14 -11 0 -33 7 -50 16 -29 14 -32 20 -32 59 0 24 -4 47 -10 50 -24 15 -7 125 20 125 3 0 11 -5 18 -12z m-476 -223 c4 -12 -47 -19 -70 -10 -16 6 -15 8 1 20 19 14 65 7 69 -10z m-388 -3014 c4 -5 1 -22 -4 -37 -10 -25 -12 -26 -26 -12 -13 12 -14 20 -5 37 12 22 26 27 35 12z"/>
<path d="M6655 6298 c-5 -13 -11 -34 -14 -48 -5 -22 -12 -25 -54 -28 l-47 -3 0 -30 c0 -18 5 -29 13 -29 36 0 67 -97 37 -115 -5 -3 -10 -15 -10 -26 0 -29 30 -23 67 13 l33 31 20 -18 c11 -10 20 -24 20 -32 0 -7 9 -13 20 -13 15 0 20 7 20 29 0 17 -4 33 -10 36 -21 13 -10 59 22 92 26 26 29 35 19 47 -7 8 -29 16 -49 18 -34 3 -37 6 -40 38 -6 57 -33 79 -47 38z m34 -117 c14 -8 16 -18 12 -53 -5 -38 -9 -43 -31 -43 -22 0 -26 5 -31 43 -4 33 -2 45 10 52 20 12 19 12 40 1z"/>
<path d="M4060 6170 c0 -35 4 -50 13 -50 24 0 47 -36 47 -73 0 -20 -4 -38 -9 -41 -4 -3 -11 -29 -14 -57 -6 -45 -12 -57 -52 -93 -49 -46 -54 -56 -27 -56 23 0 52 -30 52 -53 0 -9 5 -17 11 -17 6 0 27 -7 46 -16 29 -14 38 -15 59 -3 21 11 25 18 20 42 -3 16 -6 56 -6 88 0 52 -2 59 -20 59 -23 0 -24 -3 -8 -30 9 -15 10 -22 1 -31 -8 -8 -15 -3 -28 21 -15 30 -15 33 1 51 13 15 15 22 6 31 -7 7 -12 42 -12 83 0 66 -2 73 -30 100 -35 33 -39 65 -10 72 30 8 24 23 -10 23 l-30 0 0 -50z"/>
<path d="M4586 6139 c-15 -17 -26 -43 -26 -60 0 -24 -7 -32 -43 -48 -45 -21 -85 -57 -74 -68 4 -3 18 3 30 15 24 23 40 21 30 -4 -6 -17 21 -29 45 -19 29 13 85 15 99 3 9 -7 17 -7 28 2 9 7 39 11 81 8 69 -3 89 7 59 32 -8 7 -15 19 -15 26 0 9 -11 14 -31 14 -40 0 -89 35 -89 63 0 31 -27 67 -50 67 -10 0 -30 -14 -44 -31z"/>
<path d="M4190 5965 c-7 -9 -10 -18 -7 -22 8 -7 37 15 37 28 0 14 -16 11 -30 -6z"/>
<path d="M4260 5960 c0 -11 5 -20 10 -20 6 0 10 9 10 20 0 11 -4 20 -10 20 -5 0 -10 -9 -10 -20z"/>
<path d="M4884 5851 c-9 -9 -2 -47 12 -66 10 -14 24 -19 47 -16 44 4 59 19 55 55 l-3 30 -53 1 c-30 0 -56 -2 -58 -4z"/>
<path d="M3746 5785 c-3 -9 0 -15 9 -15 8 0 15 7 15 15 0 8 -4 15 -9 15 -5 0 -11 -7 -15 -15z"/>
<path d="M4593 5688 c-30 -31 -31 -37 -28 -98 2 -36 11 -90 19 -120 l15 -55 -21 -18 c-11 -9 -32 -20 -47 -23 -14 -3 -42 -14 -62 -25 -40 -21 -95 -24 -147 -10 -43 13 -62 5 -62 -24 0 -13 -4 -27 -10 -30 -5 -3 -10 -15 -10 -26 0 -18 6 -19 93 -17 107 3 129 -12 42 -29 -120 -23 -166 -44 -218 -102 -37 -42 -50 -91 -23 -91 7 0 19 -7 26 -15 16 -19 140 -21 158 -3 18 18 69 18 83 2 15 -18 239 -20 257 -2 16 16 147 15 167 -2 15 -12 99 -10 112 4 11 11 -17 84 -44 116 -22 27 -94 73 -115 75 -5 0 -8 3 -8 8 0 4 0 10 0 13 0 4 6 1 14 -5 10 -9 16 -8 26 3 17 21 2 39 -28 33 -25 -5 -50 5 -84 32 -20 16 -26 115 -8 126 6 3 10 44 10 90 0 51 4 87 11 91 6 4 9 20 6 39 -3 18 -1 37 4 42 6 6 2 16 -11 28 l-20 18 -14 -18 -13 -19 -14 22 c-18 28 -19 28 -56 -10z m142 -457 c3 -5 1 -13 -5 -16 -15 -9 -43 3 -35 15 8 13 32 13 40 1z"/>
<path d="M2544 5559 c-4 -7 -22 -9 -44 -6 -48 6 -60 -6 -60 -59 0 -33 5 -45 25 -58 32 -21 79 -22 71 -1 -6 18 8 48 43 87 13 14 20 31 17 37 -9 14 -43 14 -52 0z"/>
<path d="M3811 5394 c0 -11 3 -14 6 -6 3 7 2 16 -1 19 -3 4 -6 -2 -5 -13z"/>
<path d="M3140 5292 c0 -14 23 -32 42 -32 21 0 23 11 6 28 -13 13 -48 16 -48 4z"/>
<path d="M4865 5219 c-4 -6 -5 -13 -2 -16 7 -7 27 6 27 18 0 12 -17 12 -25 -2z"/>
<path d="M3003 5130 c-28 -11 -29 -22 -3 -45 16 -15 22 -16 35 -5 17 14 17 52 0 56 -5 1 -20 -1 -32 -6z"/>
<path d="M2960 5050 c0 -5 5 -10 10 -10 6 0 10 5 10 10 0 6 -4 10 -10 10 -5 0 -10 -4 -10 -10z"/>
<path d="M3968 5035 c-7 -7 16 -120 37 -180 33 -95 56 -135 77 -135 16 0 19 4 13 23 -6 21 -31 148 -41 214 -6 41 -67 96 -86 78z"/>
<path d="M5037 4992 c-20 -21 -37 -47 -37 -58 0 -11 -5 -25 -12 -32 -6 -6 -11 -38 -11 -72 1 -33 -3 -63 -8 -66 -5 -3 -9 -13 -9 -23 0 -34 -68 -152 -119 -206 -51 -54 -62 -75 -38 -75 39 0 177 195 177 251 0 10 5 21 10 24 6 3 10 17 10 30 0 13 5 27 10 30 6 3 10 23 10 44 0 45 20 88 55 121 l25 23 20 -18 c11 -10 20 -28 20 -41 0 -13 5 -26 10 -29 6 -3 10 -26 10 -50 0 -24 5 -47 10 -50 6 -3 10 -17 10 -30 0 -13 5 -27 10 -30 6 -3 10 -19 10 -34 0 -35 22 -80 55 -111 14 -13 25 -29 25 -35 0 -16 41 -51 67 -58 19 -4 21 -2 13 12 -5 10 -16 23 -24 31 -9 7 -16 18 -16 24 0 7 -11 23 -25 36 -28 26 -75 115 -75 141 0 10 -5 21 -11 25 -6 3 -9 19 -7 35 3 17 -1 34 -9 40 -8 7 -13 32 -13 63 0 46 -4 56 -35 86 -47 46 -65 46 -108 2z"/>
<path d="M3620 4996 c0 -36 -18 -41 -46 -15 -13 12 -27 19 -31 15 -4 -4 23 -37 60 -73 36 -37 70 -64 73 -60 4 4 2 13 -4 19 -7 7 -12 27 -12 44 0 18 -4 36 -10 39 -5 3 -10 17 -10 31 0 13 -4 24 -10 24 -5 0 -10 -11 -10 -24z"/>
<path d="M5340 4040 c0 -5 5 -10 10 -10 6 0 10 5 10 10 0 6 -4 10 -10 10 -5 0 -10 -4 -10 -10z"/>
<path d="M4700 4015 c0 -2 9 -20 20 -40 11 -20 20 -44 20 -55 0 -10 5 -22 10 -25 6 -3 10 -14 10 -24 0 -24 29 -81 44 -86 26 -9 201 -13 331 -8 l140 6 23 46 c12 26 22 59 22 73 0 15 5 30 10 33 6 3 10 22 10 41 0 19 -4 34 -10 34 -5 0 -10 -9 -10 -19 0 -11 -4 -23 -10 -26 -5 -3 -10 -17 -10 -30 0 -13 -4 -27 -10 -30 -5 -3 -10 -16 -10 -29 0 -13 -8 -30 -18 -39 -16 -15 -48 -17 -235 -17 l-216 0 -16 38 c-9 20 -21 45 -26 54 -5 10 -9 24 -9 31 0 25 -31 77 -46 77 -8 0 -14 -2 -14 -5z"/>
<path d="M5367 3884 c-14 -14 -7 -35 11 -32 9 2 17 10 17 17 0 16 -18 25 -28 15z"/>
<path d="M4680 3870 c0 -5 5 -10 10 -10 6 0 10 5 10 10 0 6 -4 10 -10 10 -5 0 -10 -4 -10 -10z"/>
<path d="M5460 3850 c0 -5 5 -10 10 -10 6 0 10 5 10 10 0 6 -4 10 -10 10 -5 0 -10 -4 -10 -10z"/>
<path d="M4700 3810 c0 -5 5 -10 10 -10 6 0 10 5 10 10 0 6 -4 10 -10 10 -5 0 -10 -4 -10 -10z"/>
<path d="M4640 3790 c0 -5 5 -10 10 -10 6 0 10 5 10 10 0 6 -4 10 -10 10 -5 0 -10 -4 -10 -10z"/>
<path d="M5420 3751 c0 -19 28 -29 85 -32 33 -2 67 -9 76 -16 13 -11 19 -10 34 7 10 11 15 23 11 27 -4 4 -44 6 -90 4 -52 -2 -86 1 -90 8 -9 13 -26 15 -26 2z"/>
<path d="M4436 3741 c-10 -15 3 -33 19 -27 7 2 18 -1 24 -7 8 -8 14 -8 23 1 7 7 36 12 65 12 29 0 53 5 53 10 0 6 -26 10 -59 10 -32 0 -72 3 -89 6 -17 4 -32 1 -36 -5z"/>
<path d="M5143 3738 c-7 -12 5 -26 39 -42 39 -20 40 -20 36 2 -2 11 4 18 20 20 12 2 22 7 22 12 0 10 -110 18 -117 8z"/>
<path d="M4740 3731 c0 -6 24 -11 53 -13 43 -2 51 -6 49 -20 -4 -22 4 -22 42 1 56 32 45 41 -53 41 -51 0 -91 -4 -91 -9z"/>
<path d="M5280 3730 c0 -5 9 -10 20 -10 11 0 20 5 20 10 0 6 -9 10 -20 10 -11 0 -20 -4 -20 -10z"/>
<path d="M4998 3713 c-5 -7 -14 -11 -18 -8 -4 2 -20 -10 -36 -26 -16 -17 -39 -35 -52 -40 -29 -11 -39 -36 -24 -60 7 -10 12 -28 12 -38 0 -11 5 -23 11 -26 6 -4 9 -19 8 -33 -2 -15 1 -34 6 -42 22 -33 43 -85 38 -93 -3 -5 -15 1 -27 12 -12 12 -27 21 -33 21 -6 0 -16 7 -23 15 -13 16 -67 45 -82 45 -6 0 -23 9 -40 21 -16 12 -31 19 -34 16 -7 -7 44 -57 59 -57 7 -1 28 -14 47 -30 19 -17 39 -30 46 -30 6 0 19 -9 29 -20 12 -13 31 -20 57 -20 34 0 38 3 38 25 0 13 -9 40 -20 60 -11 20 -20 47 -20 60 0 13 -9 40 -20 60 -32 58 -27 81 23 104 24 11 50 27 57 36 17 20 28 19 84 -9 71 -36 86 -53 79 -90 -3 -17 -10 -35 -14 -40 -5 -6 -9 -18 -9 -28 0 -9 -9 -33 -20 -53 -12 -21 -20 -54 -20 -80 0 -43 2 -45 28 -45 16 0 42 12 62 30 19 16 40 29 46 30 14 0 48 49 40 58 -3 3 -16 -4 -29 -16 -13 -12 -28 -22 -34 -22 -5 0 -18 -9 -27 -19 -10 -10 -26 -21 -37 -24 -21 -6 -35 8 -19 18 5 3 10 17 10 30 0 13 5 27 10 30 6 3 10 14 10 24 0 18 12 46 35 81 17 26 4 74 -28 108 -17 17 -36 32 -42 32 -7 0 -20 9 -29 19 -21 23 -83 32 -98 14z"/>
<path d="M5540 3690 c0 -5 5 -10 10 -10 6 0 10 5 10 10 0 6 -4 10 -10 10 -5 0 -10 -4 -10 -10z"/>
<path d="M5480 3650 c0 -5 5 -10 10 -10 6 0 10 5 10 10 0 6 -4 10 -10 10 -5 0 -10 -4 -10 -10z"/>
<path d="M5480 3590 c0 -5 5 -10 10 -10 6 0 10 5 10 10 0 6 -4 10 -10 10 -5 0 -10 -4 -10 -10z"/>
<path d="M5420 3550 c0 -5 5 -10 10 -10 6 0 10 5 10 10 0 6 -4 10 -10 10 -5 0 -10 -4 -10 -10z"/>
<path d="M4800 3525 c0 -8 5 -15 10 -15 6 0 10 7 10 15 0 8 -4 15 -10 15 -5 0 -10 -7 -10 -15z"/>
<path d="M5240 3520 c0 -13 7 -20 20 -20 23 0 26 10 8 28 -18 18 -28 15 -28 -8z"/>
<path d="M4537 3505 c-4 -8 -2 -17 4 -21 11 -6 39 13 39 27 0 15 -37 10 -43 -6z"/>
<path d="M5517 3494 c6 -15 23 -19 23 -5 0 5 -7 11 -14 14 -10 4 -13 1 -9 -9z"/>
<path d="M4660 3490 c0 -5 5 -10 10 -10 6 0 10 5 10 10 0 6 -4 10 -10 10 -5 0 -10 -4 -10 -10z"/>
<path d="M5336 3481 c-31 -18 -46 -41 -26 -41 7 0 23 9 37 20 14 11 32 20 39 20 8 0 14 5 14 10 0 15 -31 11 -64 -9z"/>
<path d="M6740 3036 c0 -14 -4 -28 -10 -31 -5 -3 -10 -26 -10 -50 0 -24 -4 -47 -10 -50 -5 -3 -10 -21 -10 -39 0 -57 -22 -67 -144 -65 -59 1 -110 -2 -114 -5 -8 -9 127 -145 156 -157 18 -7 22 -16 22 -48 0 -22 -4 -43 -10 -46 -5 -3 -10 -26 -10 -50 0 -24 -4 -47 -10 -50 -12 -7 -14 -105 -2 -105 4 0 30 23 57 50 27 28 54 50 61 50 6 0 19 9 29 20 10 11 25 20 34 20 9 0 48 -31 86 -70 38 -38 77 -70 87 -70 19 0 24 15 8 25 -5 3 -10 17 -10 30 0 13 -4 27 -10 30 -5 3 -10 21 -10 40 0 19 -4 37 -10 40 -5 3 -10 17 -10 31 0 13 -4 24 -10 24 -14 0 -12 -74 2 -88 9 -9 9 -15 0 -24 -9 -9 -19 -5 -45 20 -27 26 -41 32 -78 32 -33 0 -51 -6 -64 -20 -10 -11 -23 -20 -28 -20 -6 0 -19 -7 -29 -16 -16 -16 -18 -15 -24 0 -4 10 -2 22 5 29 6 6 11 44 11 86 l0 75 -39 41 c-22 22 -41 49 -43 60 -3 18 3 20 80 23 l82 3 0 44 c0 24 5 47 10 50 6 3 10 19 10 34 0 15 3 31 7 34 13 13 33 -16 33 -49 0 -18 5 -36 10 -39 6 -3 10 -17 10 -31 l0 -24 63 0 c43 0 69 -6 85 -18 l22 -17 -45 -45 c-39 -39 -59 -80 -38 -80 4 0 33 25 64 56 31 31 67 61 80 68 13 6 25 22 27 34 l3 22 -104 0 c-87 0 -106 3 -118 18 -30 36 -39 63 -39 111 0 28 -4 53 -10 56 -5 3 -10 22 -10 41 0 27 -4 34 -20 34 -15 0 -20 -7 -20 -24z"/>
<path d="M3080 2790 c0 -5 5 -10 10 -10 6 0 10 5 10 10 0 6 -4 10 -10 10 -5 0 -10 -4 -10 -10z"/>
<path d="M3100 2750 c0 -6 37 -10 90 -10 53 0 90 4 90 10 0 6 -37 10 -90 10 -53 0 -90 -4 -90 -10z"/>
<path d="M5020 2470 c0 -5 5 -10 10 -10 6 0 10 5 10 10 0 6 -4 10 -10 10 -5 0 -10 -4 -10 -10z"/>
<path d="M5120 2430 c0 -5 5 -10 10 -10 6 0 10 5 10 10 0 6 -4 10 -10 10 -5 0 -10 -4 -10 -10z"/>
<path d="M5240 2410 c0 -5 5 -10 10 -10 6 0 10 5 10 10 0 6 -4 10 -10 10 -5 0 -10 -4 -10 -10z"/>
<path d="M5060 2390 c0 -5 5 -10 10 -10 6 0 10 5 10 10 0 6 -4 10 -10 10 -5 0 -10 -4 -10 -10z"/>
<path d="M4784 2339 c-9 -15 16 -30 38 -23 10 3 21 -3 28 -16 6 -11 15 -20 20 -20 15 0 12 50 -2 54 -39 12 -78 14 -84 5z"/>
<path d="M5186 2331 c-3 -5 1 -14 8 -20 10 -8 16 -9 21 -1 3 5 19 10 36 10 16 0 29 5 29 10 0 12 -87 13 -94 1z"/>
<path d="M3820 2305 c-31 -17 -85 -73 -78 -81 8 -7 46 15 86 50 47 43 43 58 -8 31z"/>
<path d="M5145 2120 c-4 -6 -3 -16 3 -22 6 -6 12 -6 17 2 4 6 3 16 -3 22 -6 6 -12 6 -17 -2z"/>
<path d="M4900 2110 c0 -5 5 -10 10 -10 6 0 10 5 10 10 0 6 -4 10 -10 10 -5 0 -10 -4 -10 -10z"/>
<path d="M5000 2090 c0 -5 5 -10 10 -10 6 0 10 5 10 10 0 6 -4 10 -10 10 -5 0 -10 -4 -10 -10z"/>
<path d="M4940 2050 c0 -5 5 -10 10 -10 6 0 10 5 10 10 0 6 -4 10 -10 10 -5 0 -10 -4 -10 -10z"/>
<path d="M3490 2005 c-7 -9 -10 -18 -7 -22 8 -7 37 15 37 28 0 14 -16 11 -30 -6z"/>
<path d="M3540 1566 c0 -19 -4 -38 -10 -41 -5 -3 -10 -17 -10 -30 0 -13 -4 -27 -10 -30 -5 -3 -10 -21 -10 -39 0 -17 -4 -36 -9 -41 -5 -6 -11 -21 -13 -35 l-3 -25 -127 -3 c-115 -2 -128 -4 -128 -21 0 -18 39 -61 56 -61 6 0 23 -13 39 -30 16 -16 35 -30 42 -30 7 0 17 -10 22 -23 5 -13 16 -29 25 -36 18 -15 21 -47 6 -56 -5 -3 -10 -21 -10 -40 0 -19 -4 -37 -10 -40 -5 -3 -10 -21 -10 -40 0 -19 -4 -37 -10 -40 -12 -7 -14 -85 -2 -85 4 0 37 29 72 65 36 36 78 73 95 81 l29 15 81 -81 c87 -87 115 -99 115 -51 0 17 -4 33 -10 36 -5 3 -10 17 -10 30 0 13 -4 27 -10 30 -5 3 -10 21 -10 40 0 19 -4 37 -10 40 -5 3 -10 17 -10 31 0 13 -4 24 -10 24 -5 0 -10 -18 -10 -39 0 -22 5 -43 10 -46 12 -7 13 -52 2 -59 -5 -3 -24 10 -42 29 -29 30 -41 35 -80 35 -34 0 -52 -5 -65 -20 -10 -11 -23 -20 -29 -20 -5 0 -22 -12 -38 -27 -24 -23 -28 -24 -34 -9 -4 10 -2 22 5 29 6 6 11 21 11 33 0 13 5 26 10 29 6 3 10 32 10 64 0 45 -4 62 -20 76 -11 10 -20 23 -20 30 0 6 -16 26 -35 45 -19 18 -32 37 -29 42 3 4 40 8 82 8 l77 0 13 27 c6 15 12 42 12 60 0 45 27 88 46 72 8 -6 14 -22 14 -35 0 -12 5 -26 10 -29 6 -3 10 -14 10 -24 0 -9 6 -29 13 -44 l12 -27 86 0 c47 0 89 -3 93 -7 3 -4 -24 -37 -61 -75 -37 -37 -64 -71 -60 -75 4 -4 27 12 50 35 24 23 47 42 53 42 17 0 94 85 94 103 0 15 -13 17 -113 17 -128 0 -147 9 -147 68 0 17 -4 34 -10 37 -5 3 -10 26 -10 50 0 24 -4 47 -10 50 -5 3 -10 22 -10 41 0 27 -4 34 -20 34 -16 0 -20 -7 -20 -34z"/>
<path d="M6772 1568 c-7 -7 -12 -27 -12 -44 0 -18 -4 -36 -10 -39 -5 -3 -10 -30 -10 -60 0 -30 -4 -57 -10 -60 -5 -3 -10 -21 -10 -40 0 -19 -4 -37 -10 -40 -5 -3 -10 -17 -10 -30 0 -13 -4 -27 -10 -30 -5 -3 -10 -21 -10 -39 0 -42 -15 -56 -56 -49 -19 3 -40 1 -48 -6 -10 -8 -56 -11 -141 -10 -69 0 -129 -2 -133 -5 -7 -8 138 -156 153 -156 6 0 36 -26 68 -58 53 -53 57 -61 57 -104 0 -26 -4 -50 -10 -53 -5 -3 -10 -21 -10 -40 0 -19 -4 -37 -10 -40 -5 -3 -10 -21 -10 -40 0 -19 -4 -37 -10 -40 -5 -3 -10 -21 -10 -40 0 -19 -4 -37 -10 -40 -5 -3 -10 -17 -10 -30 0 -13 -4 -27 -10 -30 -5 -3 -10 -19 -10 -36 0 -21 5 -29 18 -29 19 0 62 39 62 56 0 13 53 64 66 64 5 0 41 32 79 70 38 39 77 70 85 70 9 0 34 -18 55 -40 21 -22 44 -40 50 -40 6 0 46 -36 90 -80 79 -80 115 -98 115 -61 0 11 -4 23 -10 26 -5 3 -10 17 -10 30 0 13 -4 27 -10 30 -5 3 -10 17 -10 30 0 13 -4 27 -10 30 -5 3 -10 21 -10 40 0 19 -4 37 -10 40 -5 3 -10 21 -10 40 0 19 -4 37 -10 40 -5 3 -10 17 -10 31 0 13 -4 24 -10 24 -5 0 -10 -22 -10 -49 0 -28 5 -53 10 -56 6 -3 10 -17 10 -30 0 -13 5 -27 10 -30 6 -3 10 -17 10 -30 0 -13 5 -27 10 -30 12 -7 13 -52 2 -59 -5 -3 -46 33 -93 80 l-84 84 -55 0 -55 0 -80 -79 c-86 -86 -118 -102 -123 -62 -2 13 1 28 7 34 6 6 11 21 11 33 0 13 5 26 10 29 6 3 10 21 10 40 0 19 5 37 10 40 6 3 10 46 10 94 0 79 -2 90 -23 109 -13 12 -28 22 -33 22 -5 0 -42 33 -82 73 l-73 74 25 16 c20 14 51 17 156 17 l130 0 0 44 c0 25 5 48 10 51 6 3 10 17 10 30 0 13 5 27 10 30 6 3 10 21 10 40 0 19 5 37 10 40 6 3 10 17 10 29 0 13 6 29 14 35 10 9 17 6 30 -13 9 -14 16 -34 16 -45 0 -11 5 -23 10 -26 6 -3 10 -17 10 -31 0 -13 5 -24 10 -24 6 0 10 13 10 29 0 17 -4 33 -10 36 -5 3 -10 26 -10 50 0 24 -4 47 -10 50 -5 3 -10 28 -10 54 0 43 -17 101 -30 101 -4 0 -11 -5 -18 -12z"/>
<path d="M6860 1211 c0 -17 5 -33 10 -36 6 -3 10 -16 10 -29 0 -42 16 -46 166 -46 87 0 145 -4 149 -10 7 -11 -88 -122 -109 -129 -19 -6 -86 -75 -86 -88 0 -18 4 -17 40 17 18 17 37 30 44 30 12 0 196 180 196 192 0 4 -84 9 -187 10 l-188 3 -3 25 c-2 14 -8 29 -13 35 -5 5 -9 19 -9 32 0 13 -4 23 -10 23 -5 0 -10 -13 -10 -29z"/>
</g>
</g>
  <g id="id2:id2" transform="matrix(1.25,0,0,1.25,0.0,0.0)"><g transform="translate(0.000000,291.200000) scale(0.040000,-0.040000)" fill="#fcca04" stroke="none">
<path d="M4315 6870 c-3 -5 -17 -10 -31 -10 -39 0 -28 -18 14 -22 32 -3 37 -6 40 -32 4 -35 -12 -56 -30 -38 -7 7 -28 12 -48 12 -38 0 -100 25 -100 40 0 5 5 12 10 15 17 10 11 25 -10 25 -11 0 -20 -6 -20 -13 0 -17 -44 -59 -53 -50 -4 3 -7 19 -7 35 0 40 -35 37 -86 -5 -33 -29 -45 -33 -77 -29 -22 2 -49 0 -60 -6 -12 -6 -45 -12 -74 -15 -28 -2 -63 -11 -77 -21 l-26 -16 0 -124 c0 -97 -3 -126 -15 -136 -12 -10 -16 -9 -21 6 -47 147 -99 194 -212 194 -110 0 -168 -29 -268 -132 -80 -83 -84 -90 -84 -131 0 -42 -19 -75 -33 -60 -4 3 -7 48 -7 99 0 51 -4 95 -9 98 -5 3 -12 21 -15 40 -9 47 -77 121 -131 141 -94 36 -245 -14 -311 -105 -43 -58 -85 -143 -96 -194 -16 -71 -27 -260 -34 -581 l-7 -311 48 -2 c27 -1 54 3 62 9 7 6 20 8 29 5 13 -5 10 -12 -17 -44 -18 -20 -39 -36 -46 -34 -16 4 -17 -10 -2 -25 7 -7 12 -40 13 -75 1 -35 8 -74 16 -88 7 -14 16 -32 20 -40 9 -20 99 -69 126 -70 12 0 27 -6 33 -14 9 -11 5 -18 -24 -36 -24 -15 -35 -29 -35 -46 l0 -24 80 0 80 0 0 44 c0 25 5 48 11 51 15 10 43 -19 59 -60 11 -29 19 -35 42 -35 16 0 36 -4 46 -9 9 -5 26 -12 37 -16 18 -6 16 -10 -19 -38 -22 -18 -51 -34 -65 -37 -22 -4 -27 -11 -29 -43 -2 -27 1 -37 11 -37 8 0 20 -7 27 -15 20 -24 70 -45 107 -45 48 0 160 58 211 108 40 40 43 46 40 90 -2 28 -8 47 -15 47 -18 0 -37 22 -25 29 5 3 15 -1 21 -8 9 -11 20 -12 43 -5 24 6 36 5 48 -6 9 -8 31 -15 48 -15 26 0 34 -6 48 -35 9 -20 26 -41 38 -47 11 -6 49 -35 84 -65 52 -46 65 -53 77 -43 17 14 20 41 6 56 -5 5 -11 32 -14 61 -4 38 -2 55 9 63 25 21 16 45 -22 60 -37 15 -71 67 -60 95 6 17 32 20 41 5 3 -5 30 -10 59 -10 49 0 108 -20 121 -40 8 -13 66 -40 86 -40 10 0 21 5 24 10 3 6 18 10 32 10 15 0 33 10 44 24 13 16 33 25 66 30 49 6 105 22 135 37 10 5 24 9 32 9 13 0 23 19 35 70 4 18 14 26 35 28 16 2 33 -1 39 -7 18 -18 94 -13 132 9 20 11 43 20 53 21 9 0 31 8 47 18 32 19 46 64 26 84 -6 6 -11 28 -11 49 0 21 -6 47 -12 58 -10 16 -10 24 -1 40 7 10 10 26 7 34 -9 23 36 47 71 37 l30 -8 -3 -94 c-1 -52 -7 -112 -13 -133 -6 -21 -12 -70 -13 -108 -3 -83 8 -95 95 -105 30 -3 64 -13 76 -21 13 -8 29 -12 37 -9 8 3 20 -1 27 -9 7 -9 21 -13 32 -10 11 3 29 -1 41 -9 26 -16 256 -19 295 -3 14 6 33 10 42 9 9 -1 21 5 28 13 7 8 21 12 33 8 13 -3 24 1 30 11 4 9 15 14 23 11 19 -8 19 1 1 29 -8 12 -29 90 -46 172 -50 233 -49 223 -34 242 16 21 18 69 4 78 -5 3 -7 20 -3 37 4 22 2 33 -10 39 -9 5 -13 17 -10 29 4 14 -1 22 -20 29 -22 9 -26 17 -31 73 -5 63 -7 241 -3 288 2 21 -6 27 -73 53 -63 25 -89 30 -165 30 -96 0 -145 -14 -179 -52 -21 -23 -36 -19 -36 8 0 10 -7 24 -15 31 -35 29 -45 71 -45 191 0 68 -4 120 -10 124 -5 3 -10 44 -10 90 0 46 -4 87 -10 90 -5 3 -10 16 -10 29 0 34 -19 46 -72 46 -41 0 -48 -3 -48 -20 0 -14 7 -20 24 -20 13 0 29 -6 35 -14 16 -19 -27 -46 -72 -46 -43 0 -76 32 -57 55 10 12 10 18 0 30 -18 21 -60 19 -86 -6 -23 -22 -44 -19 -44 7 0 16 -55 20 -65 4z m-316 -453 c5 -13 16 -29 25 -36 9 -7 16 -20 16 -27 0 -23 26 -16 44 11 26 39 36 21 36 -59 0 -85 -16 -112 -48 -82 -10 9 -22 16 -25 16 -4 0 -7 -31 -7 -70 0 -52 3 -70 13 -70 27 0 48 -37 51 -89 2 -28 0 -54 -6 -57 -5 -3 -13 -17 -18 -30 -12 -32 -41 -30 -71 4 -48 54 -49 60 -49 285 0 118 3 217 7 220 12 13 23 7 32 -16z m-1239 -166 l0 -127 35 -14 c19 -7 47 -26 62 -42 15 -15 35 -28 44 -28 30 0 31 -18 5 -45 -18 -18 -32 -24 -48 -20 -14 4 -42 -4 -72 -19 -27 -14 -53 -23 -58 -20 -13 8 -10 428 4 442 23 23 28 -1 28 -127z m1721 -55 c0 -6 19 -27 41 -46 l40 -34 30 17 c16 9 40 17 53 17 12 0 25 6 28 14 6 15 113 77 120 69 3 -2 -8 -27 -24 -56 -16 -29 -29 -60 -29 -70 0 -23 28 -34 49 -19 9 6 32 19 51 28 19 8 43 20 52 25 10 5 31 9 47 9 17 0 33 5 36 10 10 16 109 12 144 -6 45 -23 37 -45 -24 -62 -28 -8 -59 -18 -70 -22 -43 -17 -83 -19 -95 -5 -16 20 -79 20 -86 0 -8 -20 -61 -45 -97 -45 -22 0 -28 -4 -23 -15 3 -10 -1 -18 -12 -21 -9 -3 -25 -10 -35 -15 -13 -7 -23 -6 -33 2 -7 6 -25 9 -38 5 -15 -4 -28 0 -36 9 -18 21 -80 19 -104 -4 l-21 -19 -34 28 -33 28 51 26 c46 24 51 30 51 59 0 24 -9 41 -30 62 -28 27 -39 63 -23 78 8 8 53 -31 54 -47z m-1507 -177 c-3 -5 -10 -7 -15 -3 -5 3 -7 10 -3 15 3 5 10 7 15 3 5 -3 7 -10 3 -15z m94 -18 c4 -39 -14 -65 -23 -35 -4 10 -11 27 -16 37 -12 22 -3 39 19 35 11 -2 18 -15 20 -37z m1746 -22 c-3 -5 -10 -7 -15 -3 -5 3 -7 10 -3 15 3 5 10 7 15 3 5 -3 7 -10 3 -15z m-690 -70 c-3 -5 -10 -7 -15 -3 -5 3 -7 10 -3 15 3 5 10 7 15 3 5 -3 7 -10 3 -15z m-1384 -143 c0 -100 -3 -136 -13 -145 -8 -6 -17 -8 -20 -4 -12 12 -8 268 5 281 23 23 28 -2 28 -132z m320 15 c0 -62 4 -101 12 -109 9 -9 9 -15 0 -24 -10 -10 -17 -7 -34 10 -20 20 -22 30 -19 114 3 89 13 124 32 112 5 -3 9 -49 9 -103z m1074 99 c15 -5 26 -17 26 -28 0 -10 5 -23 11 -29 5 -5 9 -34 7 -64 -3 -48 -6 -54 -27 -57 -27 -4 -70 40 -71 72 0 11 -7 27 -15 36 -19 21 -6 66 22 73 10 3 19 5 20 6 1 0 13 -3 27 -9z m575 -53 c13 -16 5 -27 -20 -27 -21 0 -33 15 -24 30 9 14 31 12 44 -3z m-173 -203 c-6 -16 -8 -16 -23 -2 -9 10 -13 23 -9 34 6 16 8 16 23 2 9 -10 13 -23 9 -34z m406 -1 c27 -24 22 -50 -14 -67 -48 -24 -84 -20 -128 15 -22 18 -37 36 -34 40 3 5 34 9 69 9 35 0 67 5 70 10 9 14 16 13 37 -7z m-746 -79 c-6 -16 -8 -16 -23 -2 -9 10 -13 23 -9 34 6 16 8 16 23 2 9 -10 13 -23 9 -34z m360 -40 c-6 -16 -8 -16 -23 -2 -9 10 -13 23 -9 34 6 16 8 16 23 2 9 -10 13 -23 9 -34z m-1020 -36 c4 -6 7 -50 6 -97 0 -76 -3 -86 -19 -86 -14 0 -19 9 -21 45 -2 25 -7 49 -13 55 -10 10 -12 78 -2 88 10 11 41 8 49 -5z m-380 -20 c9 -14 -31 -52 -45 -44 -11 7 -15 48 -5 58 7 8 43 -2 50 -14z m1080 -84 c-6 -16 -9 -15 -33 8 -17 18 -24 32 -19 44 6 16 9 15 33 -8 17 -18 24 -32 19 -44z m-1016 -194 c0 -33 -9 -43 -27 -29 -13 12 -18 61 -6 72 12 12 33 -15 33 -43z m-180 -65 c0 -21 -19 -28 -36 -14 -14 12 -14 14 2 26 19 14 34 9 34 -12z"/>
<path d="M6649 6241 c-14 -33 -22 -40 -50 -43 -25 -2 -33 -8 -34 -25 -1 -14 7 -29 22 -38 25 -17 31 -53 11 -73 -8 -8 -8 -15 2 -27 12 -14 15 -14 31 1 16 15 20 15 50 0 44 -22 58 -20 70 10 7 21 6 31 -5 43 -14 15 -12 19 20 45 33 26 41 51 17 51 -6 0 -15 3 -19 8 -4 4 -16 7 -26 7 -10 0 -23 10 -28 23 -10 23 -34 57 -41 57 -2 0 -11 -18 -20 -39z"/>
<path d="M6780 6210 c0 -5 5 -10 10 -10 6 0 10 5 10 10 0 6 -4 10 -10 10 -5 0 -10 -4 -10 -10z"/>
<path d="M6110 5635 c-11 -20 -11 -27 0 -40 11 -14 10 -17 -8 -22 -24 -6 -30 -41 -11 -60 13 -13 4 -33 -16 -33 -16 0 -25 -78 -10 -84 6 -2 12 -28 13 -57 2 -57 21 -119 35 -119 11 0 67 -56 67 -67 0 -4 9 -14 20 -21 18 -11 25 -10 49 8 16 11 36 20 44 20 9 0 19 5 22 10 3 6 16 10 29 10 12 0 27 5 32 10 6 6 33 11 60 12 31 0 59 7 77 20 28 20 37 44 13 35 -19 -8 -28 3 -15 19 15 19 -13 24 -151 27 l-114 2 -24 80 c-13 44 -28 88 -33 97 -5 10 -9 28 -9 41 0 13 -9 32 -20 42 -22 20 -26 50 -10 60 8 5 7 11 -1 21 -16 20 -24 18 -39 -11z"/>
<path d="M2460 5510 c0 -5 5 -10 10 -10 6 0 10 5 10 10 0 6 -4 10 -10 10 -5 0 -10 -4 -10 -10z"/>
<path d="M6040 5366 c0 -9 5 -16 10 -16 6 0 10 4 10 9 0 6 -4 13 -10 16 -5 3 -10 -1 -10 -9z"/>
<path d="M5035 5004 c-8 -6 -15 -23 -15 -36 0 -14 -6 -31 -14 -37 -10 -8 -12 -24 -9 -52 5 -32 2 -44 -16 -60 -12 -11 -21 -32 -21 -48 0 -61 -98 -215 -167 -262 -50 -35 -152 -72 -224 -83 l-47 -7 -6 -77 c-5 -74 -13 -144 -36 -317 -20 -157 -23 -214 -10 -230 8 -10 31 -15 69 -15 l56 0 33 104 c19 58 39 112 46 122 12 15 16 11 38 -37 14 -30 31 -74 38 -99 21 -75 30 -90 51 -80 10 6 124 10 258 10 l241 0 0 33 c0 17 9 43 20 57 11 14 20 32 21 40 1 21 32 73 44 72 6 0 16 -17 23 -38 7 -22 21 -57 31 -79 10 -22 22 -53 27 -70 l9 -30 60 0 60 0 3 160 c1 88 7 169 13 181 6 12 8 60 5 125 -3 57 -7 123 -7 146 l-2 42 -51 11 c-73 15 -148 52 -207 102 -38 33 -60 63 -90 128 -23 47 -49 102 -59 122 -10 21 -15 40 -10 43 8 5 -3 51 -21 87 -5 10 -6 23 -4 30 3 8 -1 22 -9 33 -16 23 -94 28 -121 9z"/>
<path d="M4255 4168 c-5 -13 -11 -38 -14 -56 -3 -18 -10 -32 -15 -31 -21 2 -23 -26 -3 -53 14 -19 29 -28 50 -28 l29 0 -6 53 c-14 134 -24 164 -41 115z"/>
<path d="M4667 3893 c-2 -5 -9 -28 -16 -53 -26 -92 -28 -94 -111 -100 -84 -6 -101 -23 -53 -52 15 -10 41 -27 56 -40 l28 -23 -14 -35 c-8 -19 -18 -49 -21 -66 l-7 -31 32 5 c18 3 52 18 76 34 l43 29 55 -31 c30 -17 57 -35 60 -41 4 -5 15 -9 26 -9 24 0 24 21 -1 89 -11 30 -17 58 -14 63 3 4 32 26 65 48 32 23 59 44 59 48 0 4 -37 9 -82 10 -93 3 -100 8 -120 77 -19 64 -48 102 -61 78z"/>
<path d="M5361 3852 c-11 -9 -26 -37 -34 -62 l-15 -45 -68 -3 c-37 -1 -69 -4 -70 -5 -7 -7 10 -57 20 -57 6 0 25 -13 43 -28 l32 -27 -18 -53 c-10 -29 -21 -55 -25 -59 -11 -12 -6 -33 9 -33 8 0 44 18 81 40 l66 41 46 -27 c26 -15 55 -34 65 -42 15 -14 20 -14 32 -1 12 12 12 20 -5 58 -30 65 -26 86 18 111 22 12 43 34 49 51 l11 29 -74 0 c-51 0 -76 4 -78 13 -16 56 -39 106 -51 111 -8 3 -23 -3 -34 -12z"/>
<path d="M5020 3721 c-6 -11 -16 -18 -24 -15 -7 3 -16 -2 -19 -10 -4 -9 -15 -16 -25 -16 -11 0 -31 -9 -45 -20 -14 -11 -30 -20 -35 -20 -5 0 -12 -6 -15 -14 -8 -19 3 -85 14 -92 5 -3 9 -15 9 -26 0 -11 8 -26 17 -33 18 -13 28 -81 14 -89 -8 -6 -80 28 -90 41 -3 5 -13 13 -22 18 -9 6 -35 23 -59 38 -45 31 -78 31 -113 0 -9 -9 -26 -21 -36 -27 -137 -78 -143 -85 -122 -138 5 -13 14 -43 21 -68 7 -25 16 -53 21 -62 5 -10 9 -28 9 -40 0 -23 16 -81 31 -110 5 -10 9 -27 9 -37 0 -11 4 -22 9 -25 5 -3 11 -23 15 -43 13 -88 19 -113 27 -119 5 -3 9 -16 9 -29 0 -13 5 -27 10 -30 6 -3 10 -16 10 -27 0 -23 17 -81 31 -110 5 -10 9 -30 9 -46 0 -15 4 -32 8 -37 5 -6 14 -30 21 -55 26 -88 24 -87 114 -93 78 -5 83 -4 109 20 14 14 29 40 32 59 10 51 66 158 77 147 6 -6 21 -43 35 -84 13 -41 31 -88 39 -105 l15 -31 95 -7 c142 -10 138 -12 186 112 5 13 9 119 9 236 0 117 4 237 9 267 6 30 12 102 14 162 2 59 7 110 10 114 4 3 7 33 7 65 0 32 5 67 12 77 16 26 5 45 -40 69 -42 22 -80 20 -95 -5 -4 -7 -14 -13 -21 -13 -7 0 -26 -10 -42 -22 -39 -31 -115 -69 -125 -62 -5 3 -5 13 0 22 15 29 42 125 36 130 -3 3 4 16 16 28 30 32 20 56 -34 81 -26 13 -47 27 -47 33 0 5 -9 10 -19 10 -11 0 -26 8 -33 18 -22 30 -36 34 -48 13z"/>
<path d="M4446 3632 c-9 -14 -11 -140 -3 -149 12 -12 54 36 67 78 10 29 11 46 3 57 -11 19 -58 28 -67 14z"/>
<path d="M3175 3240 c-137 -4 -252 -7 -255 -8 -3 -2 3 -7 13 -13 22 -13 12 -32 -14 -24 -32 10 -22 -8 35 -64 l54 -53 -5 -42 c-3 -22 -10 -46 -15 -52 -4 -7 -7 -25 -6 -42 1 -16 -4 -37 -11 -46 -7 -9 -11 -22 -8 -30 3 -8 -1 -20 -9 -26 -8 -7 -14 -21 -14 -32 0 -10 -7 -30 -16 -43 l-16 -25 -109 0 c-107 0 -124 -5 -94 -30 8 -7 15 -19 15 -27 0 -18 58 -68 79 -68 9 0 15 -7 13 -16 -1 -8 9 -26 23 -39 14 -13 25 -31 25 -41 0 -10 5 -21 10 -24 6 -4 2 -17 -10 -33 -12 -14 -20 -36 -18 -48 1 -11 -4 -29 -12 -38 -11 -14 -11 -22 -2 -37 10 -15 8 -20 -8 -29 l-20 -11 17 -24 c33 -43 51 -39 129 30 75 68 93 75 114 50 7 -9 15 -13 18 -11 8 9 43 -15 36 -25 -9 -15 86 -100 110 -98 34 2 39 0 27 -15 -13 -16 2 -32 19 -21 15 9 12 31 -5 45 -9 8 -13 21 -9 35 4 17 0 26 -15 35 -12 6 -19 15 -16 21 4 5 10 7 14 5 4 -3 -4 40 -18 96 l-25 100 94 89 c51 49 99 89 105 89 7 0 20 -9 30 -20 33 -36 61 6 81 120 18 98 18 343 2 372 -16 26 -69 79 -77 76 -3 -1 -118 -5 -256 -8z m118 -426 c26 -33 13 -45 -55 -50 -29 -3 -64 -6 -78 -7 -22 -2 -26 4 -38 53 -7 30 -16 67 -19 82 -3 15 -11 32 -18 38 -8 6 -12 18 -9 26 2 8 6 21 9 29 3 12 29 -6 96 -65 51 -44 101 -92 112 -106z"/>
<path d="M6740 3070 c0 -5 9 -10 20 -10 11 0 20 5 20 10 0 6 -9 10 -20 10 -11 0 -20 -4 -20 -10z"/>
<path d="M6724 3006 c5 -28 3 -38 -9 -42 -9 -4 -15 -19 -15 -40 0 -19 -5 -44 -12 -57 -6 -12 -14 -29 -18 -37 -4 -9 -24 -16 -51 -18 -24 -2 -48 -7 -53 -13 -6 -5 -27 -9 -47 -9 -21 0 -40 -4 -44 -10 -3 -5 -12 -7 -20 -3 -35 13 -9 -21 78 -101 82 -76 91 -87 80 -104 -6 -11 -9 -29 -6 -40 3 -12 -2 -31 -11 -44 -9 -12 -16 -35 -16 -50 0 -15 -4 -30 -10 -33 -16 -10 -13 -85 3 -85 8 0 50 32 94 70 44 39 88 70 96 70 8 0 50 -31 92 -70 42 -38 83 -70 90 -70 12 0 14 51 3 80 -4 8 -9 29 -12 45 -3 17 -10 58 -17 92 l-12 63 72 75 c62 65 70 78 61 95 -7 14 -21 20 -45 20 -18 0 -37 5 -40 10 -4 7 -23 8 -49 5 -51 -8 -60 0 -80 78 -8 32 -19 63 -23 70 -4 6 -8 25 -8 41 0 19 -6 30 -16 31 -9 2 -27 6 -39 10 -21 7 -22 5 -16 -29z"/>
<path d="M3982 2988 c-5 -7 -33 -62 -61 -123 -81 -174 -84 -178 -128 -210 -23 -16 -42 -33 -42 -37 -2 -15 -91 -126 -127 -157 -20 -18 -50 -38 -68 -46 -17 -7 -47 -20 -67 -29 -20 -9 -42 -22 -49 -31 -7 -8 -17 -15 -23 -15 -27 0 -50 -71 -27 -85 15 -9 2 -25 -15 -18 -19 7 -21 -47 -3 -65 10 -10 8 -14 -10 -18 -24 -7 -29 -23 -11 -41 8 -8 5 -14 -10 -22 -13 -8 -21 -22 -21 -39 0 -15 -7 -49 -16 -77 -8 -27 -20 -72 -25 -100 -6 -27 -13 -62 -16 -77 -7 -35 17 -46 48 -24 22 15 114 97 199 178 24 24 61 55 81 70 21 15 75 62 121 105 100 94 150 133 170 133 9 0 97 -74 197 -165 100 -91 186 -165 191 -165 5 0 11 4 15 10 3 5 13 6 21 3 14 -5 15 1 10 43 -3 27 -9 81 -12 119 -3 39 -10 74 -15 80 -5 5 -9 29 -9 54 0 25 -5 83 -12 130 -9 68 -18 95 -42 130 -44 62 -73 111 -92 151 -9 19 -24 52 -35 73 -10 22 -19 45 -19 53 0 14 -4 25 -28 71 -7 13 -12 33 -12 45 0 31 -25 101 -37 105 -6 2 -15 -2 -21 -9z"/>
<path d="M7060 2779 c0 -5 5 -7 10 -4 6 3 10 8 10 11 0 2 -4 4 -10 4 -5 0 -10 -5 -10 -11z"/>
<path d="M5007 2467 c-9 -19 -22 -52 -29 -73 l-13 -39 -78 -3 c-84 -3 -98 -16 -56 -50 12 -9 37 -30 55 -45 l33 -28 -19 -50 c-19 -47 -26 -99 -15 -99 3 0 35 18 71 40 36 22 71 40 76 40 5 0 22 -9 37 -19 15 -11 40 -23 55 -27 15 -3 30 -13 33 -20 6 -17 33 -18 33 -1 0 6 -6 30 -14 52 -31 93 -32 91 28 131 30 19 56 44 59 55 5 18 -1 19 -78 19 -48 0 -87 5 -90 11 -4 5 -15 38 -24 72 -21 73 -41 83 -64 34z"/>
<path d="M5232 2250 c-35 -29 -38 -46 -18 -103 33 -97 86 -117 86 -33 0 25 7 65 15 90 8 24 13 50 10 58 -9 23 -59 17 -93 -12z"/>
<path d="M4800 2231 c0 -6 5 -13 10 -16 6 -3 10 -17 10 -31 0 -32 12 -31 27 3 9 19 10 30 2 40 -13 15 -49 18 -49 4z"/>
<path d="M4985 2094 c-78 -47 -91 -68 -69 -112 8 -17 21 -35 29 -42 8 -7 15 -18 15 -25 0 -6 9 -20 20 -30 11 -10 20 -22 20 -26 0 -7 33 -55 130 -185 16 -23 37 -54 45 -70 20 -39 72 -100 79 -93 3 3 8 57 11 120 2 63 7 160 11 216 6 96 5 102 -15 112 -11 7 -21 17 -21 24 -1 11 -56 50 -158 109 -26 15 -49 27 -52 27 -3 0 -23 -11 -45 -25z"/>
<path d="M3550 1610 c0 -5 5 -10 10 -10 6 0 10 5 10 10 0 6 -4 10 -10 10 -5 0 -10 -4 -10 -10z"/>
<path d="M3530 1555 c-6 -8 -9 -23 -6 -33 4 -11 0 -24 -9 -32 -9 -7 -13 -21 -10 -31 3 -10 -1 -29 -10 -43 -9 -14 -14 -30 -10 -35 3 -6 -4 -24 -16 -40 -20 -28 -27 -30 -115 -36 -68 -5 -94 -11 -94 -21 0 -7 5 -16 10 -19 6 -3 10 -14 10 -23 0 -10 27 -44 59 -76 62 -61 80 -106 54 -128 -8 -6 -13 -24 -11 -38 1 -15 -4 -35 -11 -44 -7 -9 -11 -27 -9 -41 3 -14 -1 -30 -8 -36 -16 -13 -19 -49 -5 -49 5 0 12 7 15 16 3 8 10 12 16 9 6 -4 8 -11 5 -16 -15 -24 17 -3 85 56 41 35 80 64 86 65 5 0 34 -20 63 -45 29 -25 56 -43 61 -40 4 2 15 -4 25 -15 24 -26 28 -25 44 11 10 23 10 34 2 42 -6 6 -11 28 -11 48 0 21 -4 41 -10 44 -5 3 -10 29 -10 58 l0 51 81 80 82 80 -21 17 c-14 11 -50 19 -104 24 -46 4 -89 12 -96 18 -18 14 -42 74 -42 103 0 13 -9 33 -20 44 -16 16 -18 24 -8 39 6 10 8 26 5 35 -8 20 -50 21 -67 1z"/>
<path d="M6792 1548 c-7 -7 -12 -18 -12 -25 0 -8 -7 -16 -15 -19 -10 -4 -13 -14 -9 -28 3 -13 -2 -31 -14 -46 -19 -25 -30 -57 -38 -120 -3 -19 -9 -44 -13 -55 -5 -11 -14 -38 -21 -60 -7 -22 -19 -48 -28 -57 -17 -20 -47 -24 -57 -8 -4 6 -63 10 -144 10 -109 0 -141 -3 -151 -14 -7 -9 -8 -21 -3 -29 4 -8 68 -70 140 -137 73 -68 135 -131 138 -140 3 -10 0 -37 -6 -61 -6 -24 -12 -58 -14 -76 -1 -18 -7 -38 -12 -45 -20 -25 -38 -204 -22 -214 5 -3 16 -1 23 5 7 6 20 9 27 6 8 -3 58 35 119 90 58 52 109 95 114 95 10 0 101 -76 187 -158 75 -71 97 -85 117 -77 15 6 14 8 -7 16 -22 9 -23 11 -8 27 13 14 15 25 7 48 -11 36 -45 172 -58 239 -6 28 -13 63 -17 79 -6 28 3 38 130 160 74 72 135 135 135 139 0 5 -9 6 -19 2 -26 -8 -36 11 -14 24 23 13 27 13 -161 20 l-159 6 -12 40 c-7 22 -18 60 -25 85 -29 104 -53 177 -71 213 -12 22 -17 46 -14 57 7 23 4 25 -13 8z"/>
<path d="M3746 825 c-18 -14 -18 -15 -2 -21 11 -4 22 -1 27 7 19 31 6 38 -25 14z"/>
</g>
</g>
</svg>
