<?xml version="1.0" standalone="no"?>
<!DOCTYPE svg PUBLIC "-//W3C//DTD SVG 1.1//EN"
 "http://www.w3.org/Graphics/SVG/1.1/DTD/svg11.dtd">
<!-- Created with svg_stack (http://github.com/astraw/svg_stack) -->
<svg xmlns:sodipodi="http://sodipodi.sourceforge.net/DTD/sodipodi-0.dtd" xmlns="http://www.w3.org/2000/svg" version="1.1" width="478.0" height="532.0">
  <defs/>
  <g id="id0:id0" transform="matrix(1.25,0,0,1.25,0.0,0.0)"><g transform="translate(0.000000,425.600000) scale(0.040000,-0.040000)" fill="#020100" stroke="none">
<path d="M4082 9278 c-9 -9 -12 -102 -12 -359 0 -191 3 -354 6 -363 6 -14 67 -16 594 -16 527 0 588 2 594 16 3 9 6 172 6 363 0 257 -3 350 -12 359 -17 17 -1159 17 -1176 0z m1131 -423 c-3 -10 -1055 -20 -1081 -10 -7 3 -10 9 -7 15 9 14 1091 9 1088 -5z m0 -110 c-3 -10 -1055 -20 -1081 -10 -7 3 -10 9 -7 15 9 14 1091 9 1088 -5z m0 -110 c-3 -10 -1055 -20 -1081 -10 -7 3 -10 9 -7 15 9 14 1091 9 1088 -5z"/>
<path d="M3775 8134 c-73 -35 -90 -52 -127 -124 l-38 -75 0 -141 c0 -96 4 -144 12 -152 7 -7 42 -12 88 -12 103 0 106 4 112 145 5 127 16 158 56 153 24 -3 28 -9 35 -53 11 -70 1 -158 -24 -208 -23 -46 -77 -107 -94 -107 -27 0 -165 -168 -165 -201 0 -8 -4 -19 -9 -24 -4 -6 -14 -48 -21 -95 -16 -105 -10 -227 10 -240 20 -13 477 -13 485 -1 12 20 12 191 0 201 -6 5 -67 11 -136 12 l-124 3 -3 30 c-3 33 68 155 91 155 32 0 118 109 173 220 l38 75 0 125 c-1 114 -3 130 -27 180 -30 64 -77 113 -129 134 -47 20 -162 20 -203 0z"/>
<path d="M4406 8143 c-27 -7 -87 -46 -107 -69 -39 -44 -89 -166 -110 -265 -28 -135 -30 -377 -5 -519 18 -99 61 -208 99 -248 78 -84 229 -93 313 -20 105 92 149 255 148 548 0 140 -4 194 -21 273 -23 104 -66 207 -103 246 -47 49 -141 72 -214 54z m83 -229 c35 -44 45 -125 45 -359 0 -182 -3 -231 -18 -282 -22 -76 -46 -101 -79 -86 -43 20 -52 82 -52 353 0 208 3 254 19 305 17 57 40 95 57 95 4 0 17 -12 28 -26z"/>
<path d="M5410 8137 c-88 -34 -123 -69 -170 -169 -40 -86 -61 -213 -67 -403 -9 -261 29 -438 110 -523 78 -82 192 -105 291 -58 65 31 98 66 133 141 26 56 28 69 28 186 l0 126 -35 68 c-28 55 -45 74 -84 98 -59 37 -145 43 -189 14 -43 -28 -50 -15 -42 77 13 155 47 250 88 244 30 -4 45 -62 46 -180 l1 -98 53 0 c28 0 68 -3 88 -6 57 -10 69 11 69 112 0 260 -63 367 -223 380 -39 3 -75 -1 -97 -9z m80 -717 c39 -21 55 -162 25 -220 -21 -40 -65 -41 -94 -4 -17 22 -21 41 -21 104 0 63 4 82 21 104 22 28 39 32 69 16z"/>
<path d="M4900 8099 c0 -31 -53 -79 -88 -79 -18 0 -32 -6 -36 -16 -8 -22 -7 -137 2 -150 4 -6 27 -14 51 -17 24 -3 48 -10 54 -16 12 -12 13 -540 1 -717 l-6 -101 23 -6 c40 -11 187 -8 194 4 5 7 10 1033 5 1112 0 4 -45 7 -100 7 -95 0 -100 -1 -100 -21z"/>
<path d="M1976 8067 c-9 -15 -18 -87 -25 -216 -7 -107 -14 -198 -17 -203 -3 -4 -29 -8 -58 -8 -53 0 -86 -19 -86 -49 0 -7 -13 -25 -28 -40 l-29 -26 -6 -195 c-7 -191 -13 -380 -81 -2529 l-33 -1045 -23 -15 c-33 -23 -63 -53 -81 -80 -13 -21 -18 -22 -38 -12 -17 9 -20 16 -11 25 12 16 4 42 -16 50 -8 3 -14 14 -14 25 0 25 -17 36 -34 22 -9 -8 -19 -4 -36 16 l-23 27 -22 -28 c-19 -23 -23 -25 -34 -12 -17 21 -39 9 -43 -22 -2 -15 -7 -26 -13 -25 -31 6 -55 312 -28 365 14 28 8 58 -14 71 -11 7 -10 13 2 37 37 71 5 107 -59 69 -43 -25 -56 -46 -56 -90 0 -18 -8 -41 -17 -51 -17 -19 -17 -21 1 -51 18 -32 34 -142 56 -395 8 -91 8 -118 -4 -140 -26 -51 -28 -104 -6 -147 14 -28 20 -59 20 -107 0 -37 5 -78 11 -92 9 -20 9 -32 -4 -58 -28 -60 -30 -92 -8 -112 11 -10 18 -22 15 -27 -2 -5 -7 -178 -10 -386 -3 -270 -8 -381 -17 -391 -6 -8 -16 -44 -22 -81 l-11 -66 -31 -3 c-41 -4 -71 -36 -53 -57 11 -13 144 -15 1114 -17 l1101 -3 -3 -28 c-3 -24 0 -28 19 -25 16 2 25 14 34 45 15 50 7 59 -65 87 -50 19 -222 120 -285 166 -91 67 -117 82 -128 71 -7 -7 -6 -15 2 -25 13 -15 -1 -32 -18 -21 -11 6 -9 44 3 63 9 15 -191 225 -208 219 -24 -8 -14 -30 35 -82 60 -63 57 -67 -47 -63 l-69 3 -3 45 c-3 48 27 113 49 108 29 -7 16 26 -33 84 -102 122 -209 300 -189 313 6 3 26 -19 45 -48 41 -61 252 -307 264 -307 5 0 34 -30 67 -67 69 -81 93 -99 107 -85 7 7 1 25 -21 57 -66 98 -158 309 -166 380 -1 17 -6 37 -9 45 -3 8 -10 35 -14 60 -6 36 -12 46 -30 48 -21 3 -22 1 -16 -40 4 -24 13 -67 20 -97 11 -41 11 -64 3 -98 -6 -24 -15 -45 -19 -48 -11 -7 -69 61 -74 88 -3 12 -14 240 -26 507 l-21 485 18 12 c34 23 43 34 38 44 -11 17 -37 9 -86 -27 -40 -29 -50 -33 -55 -20 -7 19 -75 16 -98 -3 -25 -21 -8 -43 26 -36 18 4 42 1 63 -9 30 -15 34 -21 39 -69 13 -128 36 -771 28 -779 -6 -6 -21 8 -39 34 -33 49 -56 58 -85 32 -14 -14 -18 -26 -14 -48 8 -40 52 -126 110 -214 l47 -73 5 -87 5 -87 -28 -40 c-16 -22 -45 -51 -66 -64 l-37 -24 0 -77 c0 -51 4 -81 13 -88 7 -6 40 -12 72 -14 l60 -3 0 -65 0 -65 -394 -3 c-217 -1 -399 2 -403 6 -5 5 1 330 13 723 18 588 25 717 37 731 8 9 68 47 134 84 66 37 126 77 134 88 7 12 54 42 104 66 66 32 90 49 90 63 0 13 -5 17 -15 14 -29 -12 -23 11 10 41 41 35 42 42 15 67 -24 22 -11 45 26 45 30 0 38 -15 35 -66 -1 -33 2 -42 16 -46 58 -14 68 23 28 101 -44 88 -119 130 -173 96 -59 -38 -80 -98 -47 -141 21 -27 20 -29 -30 -63 -46 -31 -70 -28 -35 4 24 22 24 23 3 71 -9 22 -18 54 -19 73 -2 19 -21 65 -43 103 -55 95 -57 102 -25 127 36 29 64 26 110 -9 81 -62 116 -82 127 -71 10 10 -11 33 -89 96 -55 45 -76 54 -109 48 -65 -12 -105 -46 -105 -88 0 -9 24 -65 53 -123 29 -59 53 -116 53 -127 0 -11 3 -32 7 -47 6 -24 3 -30 -36 -52 -27 -16 -51 -23 -64 -20 -16 4 -42 -6 -87 -35 -36 -22 -67 -37 -69 -33 -2 4 0 117 5 252 6 189 30 461 103 1185 52 517 116 1152 141 1410 26 259 51 474 55 479 17 19 29 -47 58 -309 17 -148 44 -389 61 -535 17 -146 44 -382 61 -525 16 -143 43 -377 60 -520 16 -143 34 -300 40 -350 36 -319 59 -522 59 -532 0 -7 -17 -23 -37 -36 -58 -37 -153 -136 -146 -153 8 -21 19 -17 55 19 18 19 41 37 51 40 9 4 22 18 27 32 7 19 17 25 38 25 18 0 38 10 57 30 16 17 34 30 42 30 7 0 28 14 46 30 19 17 44 30 55 30 12 0 37 8 57 17 32 15 35 21 33 52 l-3 35 65 32 c96 48 160 68 173 55 7 -7 3 -13 -14 -20 -99 -38 -139 -61 -139 -80 0 -26 -3 -26 61 3 29 14 57 22 62 19 10 -6 -31 -42 -48 -43 -6 0 -27 -14 -48 -31 -30 -25 -35 -34 -26 -45 9 -12 15 -11 38 5 55 39 68 37 119 -19 26 -29 51 -61 56 -71 5 -11 14 -19 21 -19 21 0 70 29 95 55 13 14 29 25 35 25 7 0 20 9 30 20 l18 20 -46 46 c-39 39 -51 45 -79 42 -26 -2 -32 1 -30 14 1 10 -7 19 -20 24 -28 8 -72 50 -61 57 5 3 15 2 23 -4 8 -5 34 -9 58 -9 36 0 49 6 86 40 58 54 89 75 233 162 81 48 123 79 123 91 0 9 -5 17 -11 17 -16 0 -94 -45 -254 -148 -22 -14 -56 -40 -75 -58 -19 -17 -49 -39 -67 -50 l-32 -18 -55 17 c-62 20 -79 16 -222 -49 -95 -43 -114 -59 -114 -94 0 -32 -17 -50 -48 -50 -13 0 -40 -14 -59 -31 -19 -16 -40 -28 -46 -26 -8 2 -15 56 -19 158 -4 85 -30 649 -58 1254 -28 605 -57 1240 -65 1410 -8 171 -15 317 -15 325 0 9 -13 24 -30 33 -16 10 -30 26 -30 35 -1 34 -25 52 -72 52 -25 0 -50 6 -56 13 -5 6 -13 93 -16 192 -4 99 -9 192 -12 207 -7 35 -30 43 -48 15z m-29 -583 c3 -9 -20 -273 -52 -587 -32 -315 -76 -756 -99 -981 -25 -251 -45 -407 -51 -405 -6 3 -9 68 -8 174 4 270 53 1798 59 1807 3 4 37 8 75 8 54 0 71 -3 76 -16z m229 5 c3 -6 12 -138 20 -292 54 -1154 75 -1659 70 -1673 -11 -29 -23 -5 -29 58 -4 35 -20 182 -37 328 -52 444 -89 772 -120 1042 -16 141 -36 318 -45 393 -9 74 -13 140 -10 145 8 14 142 13 151 -1z m104 -2039 c0 -25 -18 -36 -26 -16 -8 21 3 49 16 41 5 -3 10 -15 10 -25z m-358 -1632 c-12 -12 -25 -17 -32 -13 -9 6 -6 13 11 26 30 23 47 13 21 -13z m-33 -34 c24 -34 29 -49 22 -63 -11 -19 -271 -171 -294 -171 -7 0 -26 13 -41 29 -36 38 -33 78 9 104 53 34 260 147 267 147 4 0 20 -21 37 -46z m-518 -169 c4 -16 7 -62 8 -102 0 -40 10 -99 21 -135 11 -34 20 -78 20 -97 0 -38 24 -71 51 -71 11 0 25 -17 39 -44 24 -51 16 -82 -22 -88 -22 -3 -23 -7 -19 -66 3 -57 1 -66 -22 -90 l-26 -27 16 -73 c13 -60 14 -80 4 -107 -7 -20 -12 -91 -12 -177 0 -79 -1 -172 -2 -208 -1 -41 5 -82 16 -110 14 -35 16 -57 10 -100 l-8 -55 -150 0 -150 0 -3 47 c-2 35 2 55 17 75 l20 28 5 391 c3 214 8 398 12 408 4 11 -1 25 -14 39 l-21 22 20 44 c21 48 24 77 9 86 -5 3 -10 41 -10 83 -1 55 -6 88 -20 117 -23 49 -24 65 -6 110 19 44 32 44 53 0 12 -25 23 -35 40 -35 26 0 42 29 50 95 8 57 20 77 46 73 15 -2 24 -12 28 -33z m154 -45 c15 -21 38 -46 51 -55 l25 -16 -3 -157 c-3 -129 -6 -157 -17 -157 -8 0 -19 15 -23 33 -6 21 -20 40 -40 52 -27 16 -36 33 -59 107 -31 102 -30 173 4 211 11 12 24 22 27 22 4 0 20 -18 35 -40z m50 -1005 c-8 -268 -18 -491 -20 -495 -3 -5 -13 -7 -23 -6 -14 3 -17 14 -17 67 0 39 -8 83 -19 111 -15 39 -17 61 -12 120 4 40 7 127 6 194 -1 66 3 138 9 160 9 30 9 53 -2 104 -14 61 -13 66 5 87 11 11 22 41 25 65 7 47 41 104 56 89 5 -5 2 -216 -8 -496z m1043 123 c7 -16 7 -30 2 -33 -14 -8 -43 42 -36 62 8 19 17 11 34 -29z m-203 -388 l0 -35 -35 0 c-29 0 -36 4 -38 23 -6 40 5 54 40 50 30 -3 33 -6 33 -38z m270 0 l0 -35 -100 0 -100 0 -3 23 c-7 49 0 53 105 50 l98 -3 0 -35z m0 -170 l0 -65 -95 0 -95 0 -3 54 c-5 83 -6 82 100 79 l93 -3 0 -65z m255 35 c30 -19 77 -46 104 -60 30 -17 45 -30 39 -36 -5 -5 -78 -8 -169 -7 l-159 3 -3 54 c-5 78 -2 81 70 81 55 0 70 -5 118 -35z"/>
<path d="M1595 3639 c-10 -31 27 -68 49 -49 24 19 19 45 -9 58 -33 15 -33 16 -40 -9z"/>
<path d="M6111 7141 c-10 -7 -23 -116 -52 -432 -21 -233 -39 -442 -41 -464 l-3 -40 -45 -3 c-48 -3 -70 -21 -70 -58 0 -12 -9 -33 -20 -47 -17 -21 -20 -41 -20 -119 -1 -66 -5 -99 -15 -112 -12 -15 -15 -52 -15 -157 l0 -137 -24 -16 c-21 -13 -25 -25 -28 -73 l-3 -58 -30 -3 c-76 -6 -236 -43 -350 -81 -157 -52 -271 -108 -341 -170 -23 -20 -65 -54 -94 -76 -28 -22 -73 -59 -98 -82 -26 -23 -69 -61 -96 -85 l-48 -42 -14 19 c-21 28 -17 59 11 101 25 37 47 103 60 177 6 36 5 38 -17 35 -18 -2 -24 -11 -30 -48 -10 -59 -35 -126 -66 -172 -23 -35 -24 -52 -9 -98 1 -3 -7 -5 -18 -5 -14 0 -21 -10 -27 -37 -8 -42 -54 -156 -70 -175 -21 -26 -27 -1 -9 35 33 65 35 82 11 82 -13 0 -24 -10 -31 -27 -16 -42 -27 -15 -31 77 -3 75 -1 85 14 85 30 0 38 19 42 97 l3 75 48 44 c75 69 104 158 75 235 -7 16 -7 31 -2 36 14 14 50 -42 66 -103 10 -42 18 -55 35 -57 20 -3 21 -1 15 40 -10 63 -50 136 -87 158 -42 26 -61 25 -76 -4 -11 -20 -10 -32 4 -76 15 -45 16 -61 6 -105 -7 -31 -22 -62 -36 -75 l-24 -22 -37 58 c-20 33 -44 70 -53 84 -31 49 -39 69 -35 87 2 10 1 38 -4 63 -6 35 -12 45 -32 50 -15 3 -26 15 -31 32 -8 30 -1 42 15 28 23 -18 36 4 28 50 -6 36 -12 45 -32 50 -31 7 -33 34 -2 38 20 3 21 7 16 45 -4 23 -11 48 -17 55 -13 17 9 42 38 42 12 0 28 7 35 15 11 13 6 29 -29 98 -45 87 -77 125 -94 108 -6 -6 -2 -22 12 -46 22 -39 20 -65 -5 -44 -7 6 -20 9 -28 6 -10 -4 -24 9 -41 39 -23 40 -30 45 -57 42 -27 -3 -32 1 -39 25 -4 16 -13 35 -20 43 -17 20 -79 17 -117 -6 -41 -25 -40 -25 -54 8 -12 28 -15 37 -17 60 -1 15 -56 8 -78 -10 -7 -5 -16 -7 -21 -4 -10 6 -91 -15 -145 -37 -47 -20 -51 -21 -55 -9 -1 5 15 31 37 56 54 62 66 85 52 99 -19 19 -85 -61 -176 -212 -29 -50 -35 -65 -24 -72 7 -4 19 -3 25 2 19 15 38 -25 24 -50 -12 -24 4 -38 25 -21 8 7 15 7 19 1 4 -5 2 -12 -4 -16 -14 -9 -60 -100 -60 -120 0 -8 6 -15 13 -15 20 0 41 28 66 84 l21 49 55 -59 54 -59 -19 -17 c-17 -16 -18 -20 -5 -45 19 -36 18 -53 -4 -82 l-18 -24 -19 28 c-10 15 -33 44 -51 64 -25 29 -34 34 -44 24 -10 -10 -9 -18 7 -37 78 -98 76 -94 64 -116 -10 -18 -14 -19 -27 -9 -8 7 -25 18 -37 24 -15 8 -20 19 -18 41 2 27 -2 32 -52 56 l-55 27 35 82 c30 74 32 84 19 99 -14 15 -14 18 0 30 15 12 21 40 8 40 -27 0 -153 -136 -153 -166 0 -24 36 -15 48 12 22 46 32 15 11 -33 l-19 -46 20 -14 c12 -8 19 -21 16 -29 -3 -7 -1 -16 5 -19 21 -14 -3 -23 -36 -14 -19 6 -39 8 -44 5 -5 -3 -23 2 -41 10 -24 13 -34 14 -43 4 -16 -16 29 -53 56 -46 11 2 27 1 36 -4 9 -5 51 -19 94 -31 73 -21 82 -27 151 -96 40 -41 87 -99 106 -129 l33 -55 -21 -22 c-24 -26 -92 -153 -92 -172 0 -25 -21 -28 -44 -6 -25 24 -37 26 -53 10 -14 -14 -6 -39 13 -39 7 0 20 -12 28 -27 23 -46 63 -78 79 -65 24 20 39 -6 19 -36 -21 -32 -19 -161 3 -301 l16 -96 -32 -27 c-33 -28 -49 -28 -49 -2 0 8 -3 14 -7 14 -16 0 -167 -96 -171 -108 -9 -28 30 -22 82 12 74 49 82 51 95 27 9 -16 18 -19 44 -14 17 3 36 12 40 20 7 11 13 10 38 -2 36 -19 30 -35 -13 -35 -18 0 -41 -9 -53 -20 -19 -17 -24 -18 -34 -7 -12 15 -29 12 -161 -27 -69 -21 -76 -25 -89 -59 l-11 -28 -24 16 -24 16 -79 -39 c-43 -22 -95 -52 -116 -66 -21 -14 -42 -26 -47 -26 -5 0 -19 -13 -31 -30 l-22 -29 -39 34 c-21 19 -48 35 -59 35 -30 0 -104 -38 -131 -67 l-23 -24 59 -53 c33 -29 55 -55 50 -59 -5 -3 -35 17 -67 44 -54 48 -77 55 -77 24 0 -13 -89 -65 -113 -65 -8 0 -31 -13 -52 -30 -21 -16 -48 -30 -60 -30 -29 0 -97 -61 -86 -78 6 -10 22 -6 72 19 35 17 72 39 81 47 24 20 129 62 140 56 13 -8 9 -27 -13 -54 -39 -49 -89 -131 -133 -218 -49 -98 -110 -278 -101 -300 3 -8 1 -20 -3 -26 -5 -6 -12 -30 -16 -52 -4 -31 -2 -43 8 -47 20 -8 41 21 38 48 -2 13 2 26 8 30 8 5 8 10 0 20 -8 9 -8 19 -1 32 6 10 20 52 32 93 40 137 134 315 223 423 57 70 70 44 15 -30 -103 -138 -147 -221 -144 -271 1 -25 -4 -37 -21 -48 -26 -17 -46 -64 -65 -147 -7 -32 -16 -60 -20 -63 -5 -2 -6 -11 -2 -19 3 -8 2 -23 -2 -32 -13 -35 -14 -122 -1 -133 7 -5 11 -21 8 -35 -3 -20 0 -25 16 -25 31 0 36 -17 10 -31 -33 -17 -39 -31 -21 -51 13 -15 14 -22 4 -46 -12 -28 -10 -110 2 -142 4 -8 18 -51 32 -95 46 -141 66 -173 119 -190 15 -4 17 -8 8 -17 -20 -20 -14 -43 31 -106 76 -110 125 -168 174 -210 110 -95 145 -122 158 -122 8 0 18 -6 22 -12 14 -22 65 -54 169 -106 121 -60 213 -94 319 -117 108 -22 111 -23 97 -37 -7 -7 -30 -6 -83 6 -51 11 -76 13 -85 6 -9 -8 -16 -5 -27 10 -11 16 -23 21 -46 18 -18 -1 -35 2 -39 8 -11 16 -51 36 -62 29 -5 -3 -25 6 -46 20 -20 14 -40 25 -44 25 -11 0 -38 -66 -45 -111 l-6 -44 68 -32 c37 -17 96 -39 131 -49 58 -16 64 -16 81 0 17 16 19 15 34 -7 14 -22 26 -25 102 -32 102 -8 111 -4 120 67 7 46 5 53 -15 68 -28 21 -12 34 31 25 18 -4 36 -2 45 6 21 17 76 18 96 1 9 -8 40 -15 67 -16 28 0 50 -5 49 -11 -2 -6 -48 -10 -111 -10 -121 -1 -121 -1 -130 -72 -6 -53 5 -62 63 -54 38 5 46 10 48 30 3 22 1 23 -26 18 -35 -7 -46 1 -31 20 13 15 105 18 113 4 3 -5 -1 -14 -9 -21 -26 -21 -7 -41 34 -34 78 13 160 37 259 76 80 31 102 44 102 59 0 16 -6 18 -39 15 -21 -1 -43 -6 -50 -10 -6 -4 -30 -9 -52 -11 -28 -2 -50 -11 -70 -31 l-30 -29 -19 25 c-18 24 -18 26 -2 38 9 7 31 12 47 10 17 -1 35 1 42 5 6 4 28 9 49 11 22 2 46 6 54 9 8 3 51 17 95 30 108 34 151 53 158 71 4 10 13 13 22 10 26 -10 127 47 122 69 -1 7 8 11 24 9 15 -2 32 5 44 18 10 11 22 20 27 20 27 0 224 180 239 218 5 12 14 22 22 22 14 0 47 50 47 72 0 8 14 24 30 36 19 15 50 62 84 130 100 200 139 361 138 567 -1 166 -22 259 -53 239 -15 -9 -18 14 -4 26 8 7 15 22 15 34 0 28 -22 90 -39 110 -8 9 -15 30 -16 45 -3 41 -75 169 -108 193 -15 11 -25 24 -22 28 11 18 -50 96 -162 207 -64 62 -126 116 -140 119 -16 4 -31 0 -44 -12 -26 -24 -46 -6 -29 26 16 30 -1 46 -107 102 -119 62 -219 100 -252 96 -16 -1 -35 5 -44 14 -9 8 -47 21 -84 28 -37 6 -75 14 -83 17 -8 3 -36 6 -63 8 -61 5 -73 12 -54 33 21 24 7 119 -39 270 -5 19 -2 24 17 29 13 4 71 31 128 60 57 30 107 51 111 46 11 -11 32 -220 25 -244 -4 -11 -28 -30 -54 -44 -77 -38 -125 -109 -89 -131 7 -4 32 -7 56 -5 24 1 48 -2 55 -7 7 -5 34 -14 60 -21 43 -10 51 -9 76 8 26 19 29 19 44 4 16 -16 19 -15 48 12 41 39 110 137 143 202 30 61 31 63 12 63 -24 0 -28 18 -10 45 13 20 19 23 31 14 11 -10 31 5 106 79 95 95 127 122 237 195 81 54 247 145 292 158 63 19 239 46 244 37 3 -5 -16 -17 -43 -28 -88 -37 -194 -95 -215 -117 -12 -13 -27 -23 -33 -23 -7 0 -20 -9 -30 -20 -10 -11 -22 -20 -27 -20 -16 0 -78 -54 -78 -68 0 -7 11 -17 24 -22 13 -5 27 -14 31 -19 11 -19 27 -13 165 60 236 124 414 193 580 226 109 22 332 23 375 2 40 -19 30 -32 -30 -36 -86 -5 -134 -14 -141 -24 -3 -6 8 -25 25 -43 33 -34 38 -61 19 -113 -6 -18 -9 -35 -6 -38 3 -3 66 -1 139 5 147 13 177 8 204 -34 15 -23 15 -27 -5 -66 -12 -23 -34 -49 -51 -58 -38 -22 -39 -57 -1 -75 16 -9 78 -17 157 -20 222 -11 374 -66 478 -175 67 -71 96 -131 103 -216 7 -80 13 -106 23 -106 12 0 68 126 80 180 15 65 13 127 -5 162 -23 44 -5 56 35 23 l31 -27 0 -83 c0 -200 -141 -446 -340 -590 -22 -16 -55 -41 -73 -55 -18 -14 -39 -29 -48 -35 -9 -5 -54 -35 -100 -66 -72 -49 -162 -103 -319 -192 -114 -65 -578 -316 -695 -377 -119 -62 -221 -119 -310 -173 -11 -7 -25 -19 -31 -27 -11 -13 -15 -13 -31 3 -57 51 -57 -16 0 -103 127 -196 159 -252 149 -262 -15 -15 -43 -2 -36 16 3 8 -20 54 -51 103 -32 48 -65 100 -74 115 -24 42 -48 36 -62 -14 -6 -24 -22 -69 -35 -100 -29 -70 -29 -67 1 -111 29 -43 15 -60 -21 -26 -27 26 -27 26 -60 -33 -46 -81 -58 -108 -51 -115 4 -4 49 5 100 20 126 36 217 50 288 45 48 -3 65 -10 89 -33 24 -23 32 -26 45 -15 21 17 19 37 -6 68 -28 36 -111 165 -187 290 -39 65 -57 104 -49 106 6 2 35 9 62 15 155 37 703 308 1010 498 23 14 110 67 140 86 11 7 39 24 63 40 24 15 45 27 48 27 3 0 17 8 32 19 15 10 68 45 117 77 50 32 108 72 129 89 73 56 277 259 319 318 66 93 73 101 80 91 6 -11 -25 -105 -49 -149 -54 -96 -114 -171 -206 -260 -115 -112 -143 -135 -273 -219 -49 -32 -101 -66 -115 -75 -14 -10 -90 -53 -170 -96 -80 -43 -208 -114 -285 -158 -77 -44 -160 -91 -185 -105 -25 -14 -50 -28 -56 -33 -27 -21 -374 -167 -499 -209 -83 -29 -100 -46 -73 -78 8 -9 40 -60 72 -112 32 -52 73 -115 92 -140 91 -119 97 -205 18 -265 -33 -25 -43 -48 -25 -59 5 -3 20 4 35 15 35 27 37 18 34 -107 -3 -99 -20 -137 -26 -59 -4 46 -17 66 -38 58 -19 -7 -21 -163 -1 -163 6 0 792 0 1746 0 1608 0 1736 1 1753 17 36 32 4 41 -167 45 l-160 4 -3 2359 c-1 1723 -5 2362 -13 2372 -9 10 -74 13 -328 13 -182 0 -322 -4 -331 -10 -13 -8 -16 -286 -20 -2372 l-5 -2362 -30 0 -30 0 -3 1554 c-2 1228 -5 1556 -15 1562 -20 13 -104 9 -116 -5 -6 -8 -29 -63 -52 -123 -23 -60 -49 -129 -59 -154 -20 -51 -196 -516 -216 -570 -7 -19 -24 -62 -37 -95 l-23 -60 -42 -3 c-57 -4 -61 11 -28 108 14 43 31 114 37 159 14 106 -5 204 -62 321 -36 74 -58 101 -164 206 -110 109 -124 127 -133 170 -7 27 -11 67 -11 89 0 110 -8 222 -19 242 -7 12 -12 39 -12 60 0 21 -9 53 -21 72 -11 18 -18 39 -15 46 2 7 0 30 -6 51 -9 36 -18 90 -34 219 -3 28 -10 55 -15 61 -5 6 -12 136 -15 290 -7 327 -13 389 -34 389 -13 0 -16 -48 -22 -345 -7 -365 -9 -390 -27 -458 -7 -24 -9 -57 -6 -72 4 -16 2 -38 -4 -49 -6 -11 -13 -37 -14 -59 -2 -22 -14 -52 -25 -67 -12 -15 -24 -43 -27 -64 -3 -20 -11 -59 -17 -87 -6 -28 -8 -69 -6 -90 3 -21 1 -49 -3 -62 l-9 -23 -37 20 c-39 19 -217 79 -308 103 l-50 14 -3 55 c-2 45 -8 61 -27 79 l-25 23 0 143 c0 114 -3 144 -15 154 -11 9 -15 35 -15 101 0 70 -4 97 -20 126 -11 21 -20 45 -20 54 0 25 -33 49 -69 49 -23 0 -34 6 -41 23 -5 12 -26 217 -46 456 -39 447 -46 486 -83 462z m2189 -451 c0 -38 -4 -52 -19 -59 -26 -14 -31 -5 -31 59 0 64 5 73 31 59 15 -7 19 -21 19 -59z m135 0 l0 -64 -35 0 -35 0 -3 53 c-4 70 -1 76 39 75 l34 -1 0 -63z m135 1 c0 -32 -3 -60 -6 -63 -3 -3 -17 -3 -32 1 -25 7 -27 11 -27 61 0 49 2 55 25 60 14 4 28 5 33 3 4 -2 7 -30 7 -62z m135 -1 l0 -64 -35 0 -35 0 -3 53 c-4 70 -1 76 39 75 l34 -1 0 -63z m115 0 c0 -38 -4 -52 -19 -59 -26 -14 -31 -5 -31 59 0 64 5 73 31 59 15 -7 19 -21 19 -59z m-2662 -250 c11 -124 17 -228 15 -232 -2 -5 -24 -8 -48 -8 -24 0 -46 3 -48 8 -3 6 36 455 42 472 0 2 5 0 10 -5 5 -6 18 -111 29 -235z m2137 45 c0 -73 -2 -80 -20 -80 -18 0 -20 8 -23 69 -3 81 1 99 25 94 15 -3 18 -15 18 -83z m140 0 l0 -80 -35 0 -35 0 -3 69 c-4 89 0 98 40 94 l33 -3 0 -80z m130 0 l0 -80 -30 0 -30 0 -3 69 c-4 87 1 98 35 94 l28 -3 0 -80z m140 0 l0 -80 -35 0 -35 0 -3 69 c-4 89 0 98 40 94 l33 -3 0 -80z m110 0 c0 -73 -2 -80 -20 -80 -18 0 -20 8 -23 69 -3 81 1 99 25 94 15 -3 18 -15 18 -83z m-520 -235 c0 -78 -2 -85 -20 -85 -18 0 -20 8 -23 74 -3 86 1 104 25 99 16 -3 18 -15 18 -88z m140 0 l0 -85 -35 0 -35 0 -3 74 c-4 95 0 103 40 99 l33 -3 0 -85z m130 0 l0 -85 -30 0 -30 0 -3 74 c-4 92 0 103 35 99 l28 -3 0 -85z m140 0 l0 -85 -35 0 -35 0 -3 74 c-4 95 0 103 40 99 l33 -3 0 -85z m110 0 c0 -78 -2 -85 -20 -85 -18 0 -20 8 -23 74 -3 86 1 104 25 99 16 -3 18 -15 18 -88z m-2520 -130 c0 -13 -26 -15 -164 -18 -158 -2 -192 3 -176 27 4 8 59 11 173 9 141 -3 167 -5 167 -18z m-2319 -45 c-5 -14 -9 -15 -21 -5 -12 10 -13 16 -4 27 15 18 34 1 25 -22z m4319 -60 c0 -73 -2 -80 -20 -80 -18 0 -20 8 -23 69 -3 81 1 99 25 94 15 -3 18 -15 18 -83z m140 0 l0 -80 -35 0 -35 0 -3 69 c-4 89 0 98 40 94 l33 -3 0 -80z m130 0 l0 -80 -30 0 -30 0 -3 69 c-4 87 1 98 35 94 l28 -3 0 -80z m140 0 l0 -80 -35 0 -35 0 -3 69 c-4 89 0 98 40 94 l33 -3 0 -80z m110 0 c0 -73 -2 -80 -20 -80 -18 0 -20 8 -23 69 -3 81 1 99 25 94 15 -3 18 -15 18 -83z m-2490 -55 l0 -75 -40 -3 c-64 -5 -65 -8 -65 -167 0 -125 -2 -145 -19 -167 -11 -13 -21 -40 -23 -59 l-3 -34 -48 -5 c-26 -4 -50 -4 -52 -1 -3 2 -5 21 -5 41 0 24 -7 43 -20 55 -18 17 -20 31 -20 164 0 80 -4 151 -8 158 -4 6 -28 13 -52 15 l-45 3 -3 64 c-2 35 -1 70 2 78 5 11 43 13 203 11 l198 -3 0 -75z m-2425 -1 c0 -27 -15 -31 -34 -10 -15 16 -16 23 -5 42 l12 23 13 -19 c8 -10 14 -27 14 -36z m425 -66 c4 -21 12 -44 18 -51 7 -10 6 -17 -5 -29 -17 -17 -38 -10 -38 12 0 7 -6 15 -14 18 -12 5 -13 12 -4 39 6 18 13 39 14 46 6 23 21 4 29 -35z m3973 -111 c-3 -69 -5 -77 -23 -77 -18 0 -20 8 -23 74 -4 92 1 106 28 91 19 -10 21 -19 18 -88z m137 7 l0 -84 -35 0 -35 0 -3 74 c-2 41 -1 79 1 85 3 6 20 11 38 10 l34 -1 0 -84z m133 -5 l-3 -79 -30 0 -30 0 0 80 0 79 25 7 c14 3 29 3 33 -1 4 -4 7 -42 5 -86z m137 5 l0 -84 -35 0 -35 0 -3 74 c-2 41 -1 79 1 85 3 6 20 11 38 10 l34 -1 0 -84z m113 -7 c-3 -69 -5 -77 -23 -77 -18 0 -20 8 -23 74 -4 92 1 106 28 91 19 -10 21 -19 18 -88z m-2853 -92 l0 -125 -35 0 -35 0 -3 114 c-1 63 0 121 3 129 3 8 17 12 37 10 l33 -3 0 -125z m390 0 l0 -125 -35 0 -35 0 -3 114 c-1 63 0 121 3 129 3 8 17 12 37 10 l33 -3 0 -125z m1943 -132 c2 -67 0 -78 -16 -87 -11 -6 -22 -7 -26 -4 -8 9 -8 158 1 167 4 4 14 5 23 4 12 -3 16 -20 18 -80z m137 -7 l0 -85 -35 0 -35 0 -3 74 c-4 93 0 102 40 98 l33 -3 0 -84z m130 -1 c0 -90 -1 -92 -52 -75 -14 5 -19 146 -6 159 4 4 19 6 33 4 l25 -3 0 -85z m140 1 l0 -85 -35 0 -35 0 -3 74 c-4 93 0 102 40 98 l33 -3 0 -84z m113 7 c2 -67 0 -78 -16 -87 -11 -6 -22 -7 -26 -4 -8 9 -8 158 1 167 4 4 14 5 23 4 12 -3 16 -20 18 -80z m-1823 -4 c-10 -7 -22 -11 -28 -7 -6 3 -3 11 8 19 10 7 22 11 28 7 6 -3 3 -11 -8 -19z m109 -6 c-3 -5 -12 -4 -20 3 -7 6 -11 15 -8 21 3 5 12 4 20 -3 7 -6 11 -15 8 -21z m-3019 -48 c25 -55 55 -56 52 0 -2 41 16 61 21 23 5 -32 28 -49 47 -33 12 10 18 10 30 0 12 -10 18 -10 30 0 12 10 16 10 19 -1 9 -30 17 -74 14 -78 -2 -2 -23 -4 -47 -5 -35 -2 -45 2 -49 16 -4 15 -11 17 -41 12 -20 -4 -48 -13 -62 -20 -28 -14 -41 -10 -33 11 3 7 -1 36 -10 63 -22 75 -3 84 29 12z m-311 -2 c-3 -5 -12 -4 -20 3 -7 6 -11 15 -8 21 3 5 12 4 20 -3 7 -6 11 -15 8 -21z m2231 -28 l0 -25 -77 -3 c-64 -3 -79 -1 -84 12 -15 38 2 47 83 44 l78 -3 0 -25z m400 -10 c0 -25 -4 -34 -14 -32 -8 2 -43 6 -78 9 -65 6 -81 17 -69 48 5 13 21 15 83 13 l78 -3 0 -35z m609 19 c-3 -5 -10 -7 -15 -3 -5 3 -7 10 -3 15 3 5 10 7 15 3 5 -3 7 -10 3 -15z m121 -69 c-5 -8 -11 -8 -17 -2 -6 6 -7 16 -3 22 5 8 11 8 17 2 6 -6 7 -16 3 -22z m-2735 -40 c-8 -15 -15 -19 -22 -12 -7 7 -6 17 2 32 8 15 15 19 22 12 7 -7 6 -17 -2 -32z m3895 -50 c0 -78 -2 -85 -20 -85 -18 0 -20 8 -23 74 -3 86 1 104 25 99 16 -3 18 -15 18 -88z m140 0 l0 -85 -35 0 -35 0 -3 74 c-4 95 0 103 40 99 l33 -3 0 -85z m130 0 l0 -85 -30 0 -30 0 -3 74 c-4 92 0 103 35 99 l28 -3 0 -85z m140 0 l0 -85 -35 0 -35 0 -3 74 c-4 95 0 103 40 99 l33 -3 0 -85z m110 0 c0 -78 -2 -85 -20 -85 -18 0 -20 8 -23 74 -3 86 1 104 25 99 16 -3 18 -15 18 -88z m-4645 29 c0 -5 -11 -15 -25 -21 -29 -13 -32 -35 -9 -52 14 -11 14 -18 4 -53 -15 -48 0 -89 28 -78 9 4 19 7 22 8 8 3 10 -12 4 -42 -8 -37 -115 -144 -139 -139 -14 2 -23 21 -34 73 -14 58 -20 70 -36 70 -18 0 -20 -7 -20 -55 0 -48 -2 -55 -20 -55 -18 0 -21 10 -30 95 -11 109 -30 127 -52 50 -11 -37 -11 -56 0 -111 12 -59 12 -69 -2 -87 l-16 -20 -39 25 c-37 24 -39 26 -21 39 l19 14 -21 28 c-11 15 -25 28 -32 28 -21 3 -22 4 -16 14 4 7 11 8 18 2 23 -19 54 5 71 54 19 58 20 64 3 64 -8 0 -21 8 -30 18 -15 16 -13 22 25 80 39 59 42 62 59 46 15 -13 16 -20 6 -35 -9 -14 -9 -24 -1 -37 22 -34 88 -27 97 10 4 12 9 19 13 15 4 -4 14 -1 23 7 9 7 41 27 71 44 40 23 57 28 67 20 7 -6 13 -14 13 -19z m2930 -23 c-8 -8 -15 -6 -25 8 -20 26 -7 41 16 20 14 -13 16 -21 9 -28z m-3104 23 c10 -17 -23 -46 -38 -31 -8 8 -8 15 2 27 15 18 26 19 36 4z m3007 -20 c-17 -17 -37 -1 -22 17 8 10 15 12 23 4 7 -7 7 -13 -1 -21z m105 -133 c-5 -33 -31 -25 -39 11 -3 18 -4 35 -1 38 11 10 43 -29 40 -49z m-2736 -36 c2 -20 -1 -24 -17 -22 -31 6 -36 16 -19 41 18 25 32 18 36 -19z m3926 -78 c-3 -69 -5 -77 -23 -77 -18 0 -20 8 -23 74 -4 92 1 106 28 91 19 -10 21 -19 18 -88z m137 7 l0 -84 -35 0 -35 0 -3 74 c-2 41 -1 79 1 85 3 6 20 11 38 10 l34 -1 0 -84z m133 -5 l-3 -79 -30 0 -30 0 0 80 0 79 25 7 c14 3 29 3 33 -1 4 -4 7 -42 5 -86z m137 5 l0 -84 -35 0 -35 0 -3 74 c-2 41 -1 79 1 85 3 6 20 11 38 10 l34 -1 0 -84z m113 -7 c-3 -69 -5 -77 -23 -77 -18 0 -20 8 -23 74 -4 92 1 106 28 91 19 -10 21 -19 18 -88z m-758 -557 c0 -332 -4 -606 -9 -609 -4 -3 -120 -6 -257 -6 l-249 -1 0 103 0 103 32 -3 c50 -5 68 12 98 90 15 40 35 93 45 118 10 25 59 155 110 290 51 135 100 265 110 290 10 25 32 83 49 130 34 90 48 113 62 104 5 -3 9 -269 9 -609z m-3776 514 c-3 -5 -10 -7 -15 -3 -5 3 -7 10 -3 15 3 5 10 7 15 3 5 -3 7 -10 3 -15z m-65 -65 c-6 -7 -15 -11 -21 -8 -5 3 -4 12 3 20 6 7 15 11 21 8 5 -3 4 -12 -3 -20z m4079 -116 c2 -67 0 -78 -16 -87 -11 -6 -22 -7 -26 -4 -8 9 -8 158 1 167 4 4 14 5 23 4 12 -3 16 -20 18 -80z m137 -7 l0 -85 -35 0 -35 0 -3 74 c-4 93 0 102 40 98 l33 -3 0 -84z m130 -1 c0 -90 -1 -92 -52 -75 -14 5 -19 146 -6 159 4 4 19 6 33 4 l25 -3 0 -85z m140 1 l0 -85 -35 0 -35 0 -3 74 c-4 93 0 102 40 98 l33 -3 0 -84z m113 7 c2 -67 0 -78 -16 -87 -11 -6 -22 -7 -26 -4 -8 9 -8 158 1 167 4 4 14 5 23 4 12 -3 16 -20 18 -80z m-4963 -8 c16 -16 34 -30 40 -30 6 0 24 -13 39 -29 24 -25 30 -42 38 -113 14 -120 25 -156 49 -160 43 -7 21 -23 -35 -26 -70 -4 -95 3 -78 20 23 23 12 46 -45 98 -51 47 -58 57 -64 104 -10 66 -11 151 -2 159 13 13 30 7 58 -23z m4440 -225 c0 -73 -2 -80 -20 -80 -18 0 -20 8 -23 69 -3 81 1 99 25 94 15 -3 18 -15 18 -83z m140 0 l0 -80 -35 0 -35 0 -3 69 c-4 89 0 98 40 94 l33 -3 0 -80z m130 0 l0 -80 -30 0 -30 0 -3 69 c-4 87 1 98 35 94 l28 -3 0 -80z m140 0 l0 -80 -35 0 -35 0 -3 69 c-4 89 0 98 40 94 l33 -3 0 -80z m110 0 c0 -73 -2 -80 -20 -80 -18 0 -20 8 -23 69 -3 81 1 99 25 94 15 -3 18 -15 18 -83z m-4421 -56 c-3 -5 -10 -7 -15 -3 -5 3 -7 10 -3 15 3 5 10 7 15 3 5 -3 7 -10 3 -15z m3901 -179 c0 -78 -2 -85 -20 -85 -18 0 -20 8 -23 74 -3 86 1 104 25 99 16 -3 18 -15 18 -88z m140 0 l0 -85 -35 0 -35 0 -3 74 c-4 95 0 103 40 99 l33 -3 0 -85z m130 0 l0 -85 -30 0 -30 0 -3 74 c-4 92 0 103 35 99 l28 -3 0 -85z m140 0 l0 -85 -35 0 -35 0 -3 74 c-4 95 0 103 40 99 l33 -3 0 -85z m110 0 c0 -78 -2 -85 -20 -85 -18 0 -20 8 -23 74 -3 86 1 104 25 99 16 -3 18 -15 18 -88z m-4830 -129 c7 -12 -12 -24 -25 -16 -11 7 -4 25 10 25 5 0 11 -4 15 -9z m235 -61 c0 -11 12 -25 28 -32 16 -8 27 -21 27 -33 0 -17 -7 -20 -47 -20 -26 0 -53 -6 -60 -13 -14 -14 -10 -18 57 -65 27 -20 34 -61 11 -74 -8 -4 -16 -17 -18 -28 -3 -16 -11 -20 -43 -18 -53 4 -68 10 -58 25 4 7 8 20 8 28 0 10 8 14 28 12 22 -3 27 1 27 18 0 11 -8 23 -17 27 -34 12 -53 36 -53 68 0 34 33 85 55 85 16 0 28 27 14 35 -5 4 -7 11 -4 16 10 15 45 -9 45 -31z m4075 -45 c0 -73 -2 -80 -20 -80 -18 0 -20 8 -23 69 -3 81 1 99 25 94 15 -3 18 -15 18 -83z m140 0 l0 -80 -35 0 -35 0 -3 69 c-4 89 0 98 40 94 l33 -3 0 -80z m130 0 l0 -80 -30 0 -30 0 -3 69 c-4 87 1 98 35 94 l28 -3 0 -80z m140 0 l0 -80 -35 0 -35 0 -3 69 c-4 89 0 98 40 94 l33 -3 0 -80z m110 0 c0 -73 -2 -80 -20 -80 -18 0 -20 8 -23 69 -3 81 1 99 25 94 15 -3 18 -15 18 -83z m-5721 -116 c12 10 13 18 5 32 -9 18 -5 23 15 20 5 -1 16 5 26 14 16 15 19 14 39 -11 28 -35 23 -56 -12 -60 -16 -1 -56 -16 -90 -32 -46 -21 -63 -34 -64 -50 -1 -12 3 -24 8 -27 22 -14 -4 -24 -29 -11 -36 19 -66 52 -53 60 5 4 12 2 16 -4 8 -13 45 -13 45 -1 0 6 -5 13 -10 16 -17 10 0 26 21 20 37 -12 33 23 -10 73 -58 70 -37 74 26 6 44 -48 54 -55 67 -45z m1324 65 c37 -15 73 -32 81 -39 22 -21 3 -36 -34 -29 l-34 6 -25 -55 c-28 -63 -42 -75 -63 -54 -14 14 -14 20 1 56 22 55 20 76 -6 93 -20 13 -21 17 -9 32 17 20 10 21 89 -10z m-582 -9 c10 -15 14 -40 12 -71 -3 -44 -5 -48 -40 -60 -20 -7 -51 -14 -69 -16 l-32 -3 -12 60 c-7 33 -15 67 -17 75 -4 17 44 35 102 37 32 2 43 -3 56 -22z m748 -6 c-3 -5 -10 -7 -15 -3 -5 3 -7 10 -3 15 3 5 10 7 15 3 5 -3 7 -10 3 -15z m-1245 -35 c-6 -7 -15 -11 -21 -8 -5 3 -4 12 3 20 6 7 15 11 21 8 5 -3 4 -12 -3 -20z m257 1 c9 -21 -11 -42 -46 -49 -41 -8 -39 -36 4 -58 30 -15 35 -15 49 -1 8 9 23 13 31 10 18 -7 22 -52 6 -62 -7 -4 -7 -12 0 -25 6 -10 7 -21 3 -23 -80 -48 -103 -53 -103 -21 0 8 -4 14 -9 14 -4 0 -22 23 -39 50 -20 33 -38 50 -51 50 -57 0 -10 61 83 109 49 25 65 26 72 6z m3884 -985 c0 -544 -4 -991 -8 -994 -4 -2 -44 -6 -87 -7 l-80 -2 3 889 4 889 26 34 c47 59 81 110 102 152 12 22 25 37 30 34 6 -4 10 -373 10 -995z m-2796 958 c-3 -5 -12 -4 -20 3 -7 6 -11 15 -8 21 3 5 12 4 20 -3 7 -6 11 -15 8 -21z m-1405 -14 c-6 -7 -15 -11 -21 -8 -5 3 -4 12 3 20 6 7 15 11 21 8 5 -3 4 -12 -3 -20z m5019 -92 c-3 -69 -5 -77 -23 -77 -18 0 -20 8 -23 74 -4 92 1 106 28 91 19 -10 21 -19 18 -88z m137 7 l0 -84 -35 0 -35 0 -3 74 c-2 41 -1 79 1 85 3 6 20 11 38 10 l34 -1 0 -84z m133 -5 l-3 -79 -30 0 -30 0 0 80 0 79 25 7 c14 3 29 3 33 -1 4 -4 7 -42 5 -86z m137 5 l0 -84 -35 0 -35 0 -3 74 c-2 41 -1 79 1 85 3 6 20 11 38 10 l34 -1 0 -84z m113 -7 c-3 -69 -5 -77 -23 -77 -18 0 -20 8 -23 74 -4 92 1 106 28 91 19 -10 21 -19 18 -88z m-5632 22 c-70 -64 -89 -36 -22 33 26 26 34 29 51 21 18 -10 16 -14 -29 -54z m1447 44 c13 -19 -27 -161 -50 -180 -21 -17 -43 9 -43 54 0 22 -3 38 -7 36 -5 -2 -21 -10 -36 -18 -25 -12 -30 -12 -45 4 -16 17 -16 19 2 29 11 7 38 28 60 48 60 53 98 62 119 27z m151 -40 c-4 -5 -17 0 -30 13 -13 12 -21 26 -18 31 4 5 17 0 30 -13 13 -12 21 -26 18 -31z m-1429 -18 c3 -5 -2 -24 -10 -41 l-17 -31 36 -37 c39 -40 45 -61 21 -81 -14 -11 -22 -7 -58 28 -48 47 -53 49 -78 26 -10 -9 -25 -14 -34 -11 -23 9 -18 41 11 68 14 13 34 38 45 56 16 25 28 33 49 33 16 0 32 -4 35 -10z m697 4 c3 -3 3 -17 -1 -32 -6 -20 -14 -28 -37 -30 -16 -2 -36 -5 -44 -8 -22 -8 -25 -5 -22 21 2 12 -2 26 -8 30 -22 13 3 25 54 25 29 0 55 -3 58 -6z m714 -29 c38 -29 50 -31 58 -9 6 15 8 15 27 -2 19 -17 19 -19 4 -30 -15 -11 -15 -15 -1 -43 31 -58 11 -89 -31 -50 l-25 24 -42 -47 c-23 -27 -49 -48 -58 -48 -28 0 -29 -17 -3 -48 13 -16 21 -32 18 -36 -9 -9 -124 105 -117 116 3 5 12 4 20 -3 12 -10 24 -2 64 40 54 56 59 74 34 109 -17 24 -13 52 7 52 7 0 27 -11 45 -25z m-1687 -71 c-12 -13 -26 -21 -31 -18 -5 4 0 17 13 30 12 13 26 21 31 18 5 -4 0 -17 -13 -30z m4976 -29 l0 -40 -255 0 -255 0 -3 28 c-7 59 -15 58 260 55 l253 -3 0 -40z m-3121 -7 c-3 -5 -12 -4 -20 3 -7 6 -11 15 -8 21 3 5 12 4 20 -3 7 -6 11 -15 8 -21z m-1420 -29 c-3 -5 -10 -7 -15 -3 -5 3 -7 10 -3 15 3 5 10 7 15 3 5 -3 7 -10 3 -15z m1030 0 c-3 -5 -10 -7 -15 -3 -5 3 -7 10 -3 15 3 5 10 7 15 3 5 -3 7 -10 3 -15z m-1400 -17 c8 -16 40 -48 70 -72 31 -23 56 -45 56 -48 0 -9 -33 -42 -42 -42 -5 0 -32 25 -60 55 -27 30 -56 55 -63 55 -7 0 -18 7 -25 15 -11 13 -9 20 10 40 30 32 36 31 54 -3z m5154 -54 c2 -67 0 -78 -16 -87 -11 -6 -22 -7 -26 -4 -8 9 -8 158 1 167 4 4 14 5 23 4 12 -3 16 -20 18 -80z m137 -7 l0 -85 -35 0 -35 0 -3 74 c-4 93 0 102 40 98 l33 -3 0 -84z m130 -1 c0 -90 -1 -92 -52 -75 -14 5 -19 146 -6 159 4 4 19 6 33 4 l25 -3 0 -85z m140 1 l0 -85 -35 0 -35 0 -3 74 c-4 93 0 102 40 98 l33 -3 0 -84z m113 7 c2 -67 0 -78 -16 -87 -11 -6 -22 -7 -26 -4 -8 9 -8 158 1 167 4 4 14 5 23 4 12 -3 16 -20 18 -80z m-5814 41 c-3 -5 -10 -7 -15 -3 -5 3 -7 10 -3 15 3 5 10 7 15 3 5 -3 7 -10 3 -15z m441 -15 c-27 -22 -45 -23 -45 -4 0 12 53 38 64 32 5 -3 -4 -15 -19 -28z m3796 -810 c-2 -461 -7 -843 -11 -848 -5 -4 -13 -5 -19 -2 -15 10 -15 1649 0 1677 33 62 34 23 30 -827z m-2222 763 c36 -64 41 -83 20 -79 -9 1 -24 -7 -34 -18 -26 -28 -44 -25 -56 10 -14 38 -49 42 -49 6 0 -14 -5 -28 -10 -31 -6 -4 -8 -15 -5 -24 6 -21 -18 -45 -37 -38 -7 2 -20 -2 -29 -10 -14 -12 -19 -10 -41 19 -48 63 -50 74 -23 92 13 9 31 16 40 16 9 0 40 23 69 50 29 28 62 50 74 50 11 0 24 5 27 10 10 16 21 4 54 -53z m3036 -22 l0 -40 -255 0 -255 0 -3 28 c-7 59 -15 58 260 55 l253 -3 0 -40z m-917 -796 l-3 -794 -95 0 -95 0 -3 729 c-2 814 -9 740 68 793 19 13 53 37 75 53 22 16 43 25 48 21 4 -4 6 -365 5 -802z m-4056 735 c18 -13 43 -28 56 -34 12 -5 27 -21 32 -35 11 -29 17 -31 41 -9 9 8 20 11 23 6 3 -5 -5 -18 -17 -29 -20 -18 -29 -19 -92 -12 -72 8 -105 5 -105 -11 0 -14 61 -43 98 -46 48 -5 54 -11 37 -45 -16 -30 -29 -36 -40 -19 -3 5 -12 7 -20 3 -9 -3 -32 9 -54 28 -21 19 -57 47 -80 63 l-42 28 17 19 c13 14 31 19 71 19 47 0 53 2 53 20 0 13 -13 28 -35 41 -36 22 -44 46 -22 68 10 10 15 8 29 -9 10 -12 32 -32 50 -46z m778 -9 c0 -17 -17 -28 -30 -20 -7 4 -7 13 0 26 12 21 30 17 30 -6z m291 -18 c-5 -5 -17 -7 -26 -3 -13 5 -14 10 -4 28 l12 22 13 -19 c9 -12 11 -22 5 -28z m-867 12 c-3 -5 -10 -7 -15 -3 -5 3 -7 10 -3 15 3 5 10 7 15 3 5 -3 7 -10 3 -15z m4771 -74 l0 -40 -255 0 -255 0 -3 33 c-2 19 -1 39 1 45 3 9 72 11 258 7 l254 -5 0 -40z m240 -45 c0 -78 -2 -85 -20 -85 -18 0 -20 8 -23 74 -3 86 1 104 25 99 16 -3 18 -15 18 -88z m140 0 l0 -85 -35 0 -35 0 -3 74 c-4 95 0 103 40 99 l33 -3 0 -85z m130 0 l0 -85 -30 0 -30 0 -3 74 c-4 92 0 103 35 99 l28 -3 0 -85z m140 0 l0 -85 -35 0 -35 0 -3 74 c-4 95 0 103 40 99 l33 -3 0 -85z m110 0 c0 -78 -2 -85 -20 -85 -18 0 -20 8 -23 74 -3 86 1 104 25 99 16 -3 18 -15 18 -88z m-5156 14 c-6 -7 -15 -11 -21 -8 -5 3 -4 12 3 20 6 7 15 11 21 8 5 -3 4 -12 -3 -20z m705 -26 c-4 -5 -17 0 -30 13 -13 12 -21 26 -18 31 4 5 17 0 30 -13 13 -12 21 -26 18 -31z m-1503 3 c-9 -17 -16 -19 -30 -12 -12 7 -22 6 -29 -1 -7 -7 -12 -9 -12 -5 0 4 0 9 0 12 0 3 3 6 8 6 4 1 18 10 31 21 29 23 48 10 32 -21z m4017 -682 l-3 -704 -25 0 -25 0 -3 695 -2 695 21 18 c12 10 26 14 31 9 4 -4 7 -325 6 -713z m-1767 682 c10 -10 27 -89 21 -95 -3 -3 -11 -1 -19 5 -10 9 -17 8 -28 -1 -12 -10 -16 -8 -24 13 -15 40 -29 41 -52 3 -25 -43 -70 -57 -99 -31 -12 10 -28 15 -40 12 -16 -4 -23 1 -31 20 -10 27 -4 47 12 37 6 -3 19 2 29 11 23 21 40 12 40 -20 0 -12 7 -25 15 -28 14 -6 21 2 69 68 16 24 22 26 60 20 22 -4 44 -10 47 -14z m1644 -712 l0 -674 -140 0 -140 0 -3 601 -2 602 102 57 c57 32 117 66 133 76 17 9 35 16 40 15 7 -2 10 -236 10 -677z m1300 616 l0 -40 -255 0 -255 0 -3 28 c-7 59 -15 58 260 55 l253 -3 0 -40z m-4518 -2 c-15 -15 -30 -22 -37 -18 -9 5 -4 14 16 30 38 30 54 20 21 -12z m965 -38 c-4 -5 -7 -17 -7 -25 0 -8 -8 -15 -17 -15 -9 0 -58 -42 -109 -93 -50 -52 -109 -104 -130 -118 -22 -13 -50 -42 -64 -64 -26 -41 -45 -45 -45 -10 0 25 -17 35 -35 20 -12 -10 -18 -10 -30 0 -12 10 -19 10 -27 2 -8 -8 -16 -7 -30 1 -25 16 -38 -4 -38 -61 0 -32 4 -44 18 -49 46 -16 62 -53 23 -53 -31 0 -45 -25 -25 -44 18 -19 63 -14 102 10 29 19 28 32 -3 44 -24 9 -25 11 -12 41 17 42 42 45 68 8 19 -27 20 -32 6 -47 -16 -17 -13 -67 4 -78 30 -18 -9 -72 -73 -99 -52 -21 -82 -19 -128 10 -45 28 -53 64 -23 97 15 16 15 20 0 36 -10 11 -13 27 -10 44 5 28 -22 86 -35 74 -3 -4 -15 2 -26 12 -24 21 -136 72 -158 72 -8 0 -23 9 -34 21 -10 12 -48 34 -84 50 -35 16 -72 37 -82 46 -9 8 -24 13 -32 10 -8 -3 -16 -3 -19 -1 -6 6 8 70 24 110 9 25 12 27 22 13 9 -12 34 -17 92 -21 44 -2 89 -9 100 -15 11 -6 42 -18 70 -26 45 -13 50 -17 51 -46 2 -42 18 -59 38 -42 12 10 17 8 26 -8 15 -29 43 -26 78 8 27 28 30 28 46 13 14 -14 21 -15 48 -4 26 10 35 9 48 -3 20 -18 49 -20 52 -2 1 6 2 37 2 66 1 48 4 56 26 67 51 26 221 94 234 94 8 0 17 7 20 16 5 12 13 9 45 -18 22 -18 36 -37 33 -43z m-1468 -28 c6 -16 4 -33 -6 -53 l-14 -29 -74 3 c-41 2 -79 7 -84 12 -5 5 -2 19 7 34 16 23 18 24 44 11 32 -17 69 -19 77 -6 11 17 -6 40 -34 46 -34 8 -64 39 -57 59 9 22 129 -43 141 -77z m5264 -65 c-3 -69 -5 -77 -23 -77 -18 0 -20 8 -23 74 -4 92 1 106 28 91 19 -10 21 -19 18 -88z m137 7 l0 -84 -35 0 -35 0 -3 74 c-2 41 -1 79 1 85 3 6 20 11 38 10 l34 -1 0 -84z m133 -5 l-3 -79 -30 0 -30 0 0 80 0 79 25 7 c14 3 29 3 33 -1 4 -4 7 -42 5 -86z m137 5 l0 -84 -35 0 -35 0 -3 74 c-2 41 -1 79 1 85 3 6 20 11 38 10 l34 -1 0 -84z m113 -7 c-3 -69 -5 -77 -23 -77 -18 0 -20 8 -23 74 -4 92 1 106 28 91 19 -10 21 -19 18 -88z m-5648 71 c2 -2 3 -22 1 -44 -2 -32 2 -44 18 -56 38 -26 11 -33 -30 -7 -29 18 -44 22 -53 15 -20 -17 -24 -4 -15 42 15 67 16 68 46 61 16 -4 30 -9 33 -11z m823 -29 c3 -4 -1 -17 -10 -30 -12 -19 -19 -22 -35 -13 l-20 11 18 19 c17 19 35 24 47 13z m895 -48 c-2 -25 -9 -31 -37 -39 -40 -10 -48 -3 -53 43 -3 33 -1 35 32 41 45 7 62 -6 58 -45z m3167 -11 l0 -40 -255 0 -255 0 -3 33 c-2 19 -1 39 1 45 3 9 72 11 258 7 l254 -5 0 -40z m-5221 24 c-3 -5 -10 -7 -15 -3 -5 3 -7 10 -3 15 3 5 10 7 15 3 5 -3 7 -10 3 -15z m3574 -588 l-3 -573 -80 0 -80 0 -3 529 -2 530 20 18 c33 30 134 83 143 76 4 -4 6 -265 5 -580z m-3104 467 c-3 -5 -12 -4 -20 3 -7 6 -11 15 -8 21 3 5 12 4 20 -3 7 -6 11 -15 8 -21z m1724 -10 c7 -7 12 -24 12 -38 0 -53 -57 -69 -86 -25 -24 36 -6 75 34 75 15 0 33 -5 40 -12z m1152 -513 c0 -277 -3 -506 -8 -508 -4 -3 -27 -7 -52 -8 l-45 -4 -3 492 -2 493 47 24 c27 13 51 22 56 19 4 -2 7 -231 7 -508z m1875 470 l0 -40 -255 0 -255 0 -3 28 c-7 59 -15 58 260 55 l253 -3 0 -40z m-5073 8 c36 -32 17 -83 -32 -83 -48 0 -67 45 -33 82 20 22 41 23 65 1z m445 -6 c14 5 26 -13 18 -28 -5 -7 -14 -4 -26 7 -10 9 -19 14 -19 9 0 -4 -7 -2 -15 5 -8 7 -12 17 -9 22 4 5 13 3 22 -5 10 -8 22 -12 29 -10z m4871 -59 c2 -67 0 -78 -16 -87 -11 -6 -22 -7 -26 -4 -8 9 -8 158 1 167 4 4 14 5 23 4 12 -3 16 -20 18 -80z m137 -7 l0 -85 -35 0 -35 0 -3 74 c-4 93 0 102 40 98 l33 -3 0 -84z m130 -1 c0 -90 -1 -92 -52 -75 -14 5 -19 146 -6 159 4 4 19 6 33 4 l25 -3 0 -85z m140 1 l0 -85 -35 0 -35 0 -3 74 c-4 93 0 102 40 98 l33 -3 0 -84z m113 7 c2 -67 0 -78 -16 -87 -11 -6 -22 -7 -26 -4 -8 9 -8 158 1 167 4 4 14 5 23 4 12 -3 16 -20 18 -80z m-2813 -463 l0 -468 -75 2 c-41 1 -78 5 -82 7 -4 3 -8 198 -8 433 0 331 3 431 13 439 19 16 131 61 142 58 6 -2 10 -167 10 -471z m-1614 435 l30 -29 -26 -14 c-15 -7 -32 -23 -38 -36 -7 -13 -24 -30 -39 -39 -22 -13 -31 -14 -53 -4 -23 10 -25 15 -15 27 10 12 10 19 -4 33 -17 20 -12 34 9 26 20 -8 55 14 65 42 13 32 35 30 71 -6z m753 -38 c-4 -15 -11 -33 -17 -39 -11 -15 -28 -8 -22 10 20 56 26 67 35 62 6 -3 7 -18 4 -33z m2914 -16 c2 -16 0 -32 -5 -37 -5 -5 -121 -9 -258 -9 l-250 -1 -3 31 c-2 18 -1 37 1 43 3 9 72 11 258 7 l254 -5 3 -29z m-4433 4 c6 -4 34 -10 64 -14 40 -5 61 -14 82 -36 16 -16 29 -31 29 -35 0 -4 10 -15 23 -25 l22 -18 -27 -11 c-32 -12 -54 -6 -85 22 -14 13 -30 18 -44 14 -13 -4 -29 -1 -36 5 -7 6 -24 8 -38 6 -14 -3 -28 -1 -31 3 -6 10 -44 12 -44 3 0 -3 4 -14 10 -24 11 -21 -13 -50 -25 -30 -4 6 -4 14 -1 17 3 3 -8 30 -25 60 -28 49 -29 54 -12 59 10 3 24 9 32 12 16 9 92 3 106 -8z m2155 -165 c0 -85 -4 -156 -9 -159 -11 -7 -45 33 -86 100 -16 27 -44 73 -62 102 -23 36 -29 54 -20 57 6 3 46 17 87 33 41 16 78 27 83 25 4 -2 7 -73 7 -158z m2515 10 c0 -73 -2 -80 -20 -80 -18 0 -20 8 -23 69 -3 81 1 99 25 94 15 -3 18 -15 18 -83z m140 0 l0 -80 -35 0 -35 0 -3 69 c-4 89 0 98 40 94 l33 -3 0 -80z m130 0 l0 -80 -30 0 -30 0 -3 69 c-4 87 1 98 35 94 l28 -3 0 -80z m140 0 l0 -80 -35 0 -35 0 -3 69 c-4 89 0 98 40 94 l33 -3 0 -80z m110 0 c0 -73 -2 -80 -20 -80 -18 0 -20 8 -23 69 -3 81 1 99 25 94 15 -3 18 -15 18 -83z m-4379 26 c-8 -9 -19 -28 -25 -44 -11 -28 -25 -35 -36 -17 -8 14 54 92 67 84 5 -4 3 -13 -6 -23z m3619 -26 l0 -40 -255 0 -255 0 -3 28 c-7 59 -15 58 260 55 l253 -3 0 -40z m-4221 -16 c-3 -5 -10 -7 -15 -3 -5 3 -7 10 -3 15 3 5 10 7 15 3 5 -3 7 -10 3 -15z m-190 -41 c-3 -5 -12 -4 -20 3 -7 6 -11 15 -8 21 3 5 12 4 20 -3 7 -6 11 -15 8 -21z m715 6 c-6 -7 -15 -11 -21 -8 -5 3 -4 12 3 20 6 7 15 11 21 8 5 -3 4 -12 -3 -20z m385 -15 c-3 -5 -10 -7 -15 -3 -5 3 -7 10 -3 15 3 5 10 7 15 3 5 -3 7 -10 3 -15z m-1530 -20 c-3 -5 -10 -7 -15 -3 -5 3 -7 10 -3 15 3 5 10 7 15 3 5 -3 7 -10 3 -15z m1085 -5 c-6 -7 -15 -11 -21 -8 -5 3 -4 12 3 20 6 7 15 11 21 8 5 -3 4 -12 -3 -20z m3756 -314 l0 -295 -255 0 -255 0 -3 285 c-1 157 0 291 3 298 3 10 59 12 257 10 l253 -3 0 -295z m-4286 244 c-12 -13 -26 -21 -31 -18 -5 4 0 17 13 30 12 13 26 21 31 18 5 -4 0 -17 -13 -30z m442 21 c-1 -14 131 -145 146 -145 7 0 27 8 45 18 l33 19 28 -28 28 -29 -45 -22 c-53 -25 -57 -41 -18 -62 15 -8 43 -30 62 -50 32 -34 33 -37 18 -53 -16 -15 -19 -15 -43 1 -36 24 -63 13 -67 -27 -2 -20 -8 -32 -18 -32 -12 0 -15 15 -15 75 0 41 5 84 9 94 8 16 6 18 -6 13 -22 -8 -30 3 -16 20 9 11 -7 33 -86 112 -88 88 -106 117 -68 109 7 -2 13 -7 13 -13z m-868 -98 c-3 -5 -27 13 -54 39 -26 26 -46 52 -42 57 3 5 27 -13 54 -39 26 -26 46 -52 42 -57z m4952 3 c0 -78 -2 -85 -20 -85 -18 0 -20 8 -23 74 -3 86 1 104 25 99 16 -3 18 -15 18 -88z m140 0 l0 -85 -35 0 -35 0 -3 74 c-4 95 0 103 40 99 l33 -3 0 -85z m130 0 l0 -85 -30 0 -30 0 -3 74 c-4 92 0 103 35 99 l28 -3 0 -85z m140 0 l0 -85 -35 0 -35 0 -3 74 c-4 95 0 103 40 99 l33 -3 0 -85z m110 0 c0 -78 -2 -85 -20 -85 -18 0 -20 8 -23 74 -3 86 1 104 25 99 16 -3 18 -15 18 -88z m-5801 49 c-3 -5 -10 -7 -15 -3 -5 3 -7 10 -3 15 3 5 10 7 15 3 5 -3 7 -10 3 -15z m665 -45 c-6 -7 -15 -11 -21 -8 -5 3 -4 12 3 20 6 7 15 11 21 8 5 -3 4 -12 -3 -20z m1240 -20 c-12 -13 -26 -21 -31 -18 -5 4 0 17 13 30 12 13 26 21 31 18 5 -4 0 -17 -13 -30z m-365 -5 c-9 -10 -21 -16 -26 -13 -5 3 -2 14 8 25 9 10 21 16 26 13 5 -3 2 -14 -8 -25z m-1441 -51 c-3 -6 -20 5 -39 23 -18 18 -31 36 -27 41 3 6 20 -5 39 -23 18 -18 31 -36 27 -41z m437 17 c10 -12 10 -18 1 -29 -8 -10 -9 -16 -1 -21 6 -3 8 -11 5 -16 -3 -5 -33 5 -66 21 l-60 31 28 27 c25 26 29 27 54 15 15 -7 32 -20 39 -28z m69 19 c-6 -7 -15 -11 -21 -8 -5 3 -4 12 3 20 6 7 15 11 21 8 5 -3 4 -12 -3 -20z m-214 3 c10 -8 14 -16 9 -19 -14 -9 -56 11 -49 22 8 13 18 13 40 -3z m-50 -78 c0 -64 15 -72 72 -39 32 19 38 19 51 6 13 -13 12 -19 -17 -52 -21 -23 -29 -40 -23 -46 9 -9 39 7 109 58 17 12 26 13 42 5 19 -10 20 -18 15 -94 -8 -112 -6 -109 -51 -93 -66 23 -176 76 -195 93 -10 9 -18 13 -18 10 0 -12 -163 107 -193 141 -29 32 -3 34 28 2 16 -17 36 -30 45 -30 9 0 38 23 65 50 27 28 54 49 60 47 5 -2 10 -28 10 -58z m1218 -6 c22 -21 41 -33 44 -27 2 6 10 20 18 30 l13 19 27 -25 27 -25 -33 -27 c-47 -40 -84 -36 -139 12 l-44 39 19 20 c10 12 21 21 24 21 3 0 23 -17 44 -37z m196 -49 c-12 -13 -26 -21 -31 -18 -5 4 0 17 13 30 12 13 26 21 31 18 5 -4 0 -17 -13 -30z m3526 -69 c0 -73 -2 -80 -20 -80 -18 0 -20 8 -23 69 -3 81 1 99 25 94 15 -3 18 -15 18 -83z m140 0 l0 -80 -35 0 -35 0 -3 69 c-4 89 0 98 40 94 l33 -3 0 -80z m130 0 l0 -80 -30 0 -30 0 -3 69 c-4 87 1 98 35 94 l28 -3 0 -80z m140 0 l0 -80 -35 0 -35 0 -3 69 c-4 89 0 98 40 94 l33 -3 0 -80z m110 0 c0 -73 -2 -80 -20 -80 -18 0 -20 8 -23 69 -3 81 1 99 25 94 15 -3 18 -15 18 -83z m-4998 36 c2 -9 9 -24 14 -33 14 -28 11 -58 -11 -85 -18 -23 -18 -28 -6 -42 16 -18 15 -63 -2 -69 -22 -7 -50 18 -56 53 -4 20 -14 39 -23 42 -15 6 -24 -2 -57 -51 -15 -24 -39 -13 -27 12 17 35 43 118 48 152 8 59 7 58 63 47 32 -6 54 -16 57 -26z m461 -37 c12 -38 21 -80 20 -94 -4 -35 -35 -38 -48 -5 -12 31 -33 29 -38 -3 -4 -27 -40 -50 -46 -30 -3 7 -7 41 -11 75 -6 67 4 86 34 59 24 -22 30 -20 41 10 7 18 7 30 0 39 -11 13 -2 27 14 22 6 -2 21 -34 34 -73z m-193 9 c0 -25 -4 -28 -39 -33 -46 -6 -58 -26 -24 -39 42 -16 52 -37 42 -89 l-9 -47 -69 0 -68 0 -4 38 c-3 33 0 39 21 47 30 12 32 35 4 50 -15 9 -20 20 -18 43 2 18 0 37 -4 43 -10 18 -3 19 84 17 l83 -1 1 -29z m304 -159 c-13 -16 -35 -18 -44 -4 -7 11 35 31 48 23 4 -3 3 -11 -4 -19z m3909 -42 c-2 -29 -7 -37 -23 -37 -15 0 -21 8 -23 33 -5 51 3 65 28 52 17 -9 20 -19 18 -48z m137 7 l0 -44 -35 0 c-32 0 -35 2 -38 33 -5 49 1 57 39 56 l34 -1 0 -44z m133 -5 c-3 -36 -5 -39 -33 -39 -28 0 -30 2 -30 40 0 33 4 40 25 46 34 8 42 -1 38 -47z m137 5 l0 -44 -35 0 c-32 0 -35 2 -38 33 -5 49 1 57 39 56 l34 -1 0 -44z m113 -7 c-2 -29 -7 -37 -23 -37 -15 0 -21 8 -23 33 -5 51 3 65 28 52 17 -9 20 -19 18 -48z m-4644 7 c-3 -5 -10 -7 -15 -3 -5 3 -7 10 -3 15 3 5 10 7 15 3 5 -3 7 -10 3 -15z m101 12 c7 -12 -12 -24 -25 -16 -11 7 -4 25 10 25 5 0 11 -4 15 -9z"/>
<path d="M4082 5098 c2 -17 10 -23 27 -23 34 0 37 19 6 33 -35 16 -37 15 -33 -10z"/>
<path d="M3750 4085 c-10 -12 -8 -21 7 -47 22 -38 47 -43 51 -10 4 24 -21 72 -37 72 -5 0 -14 -7 -21 -15z"/>
<path d="M4557 3945 c-7 -16 8 -29 23 -20 10 6 2 35 -10 35 -4 0 -10 -7 -13 -15z"/>
<path d="M4394 2345 c-3 -8 -3 -19 1 -25 10 -16 35 7 28 26 -7 18 -22 18 -29 -1z"/>
<path d="M3277 2363 c-13 -12 -7 -34 11 -40 9 -3 27 -15 40 -26 21 -20 23 -20 40 -4 15 16 15 19 2 27 -8 5 -21 8 -28 5 -7 -3 -16 3 -19 13 -10 26 -33 39 -46 25z"/>
<path d="M3753 2283 c-7 -3 -13 -13 -13 -24 0 -23 35 -26 43 -5 7 17 -13 35 -30 29z"/>
<path d="M3712 6365 c-17 -14 -34 -25 -39 -25 -16 0 -65 -58 -59 -69 11 -18 25 -13 72 26 33 26 48 33 56 25 14 -14 48 2 48 23 0 15 -26 45 -40 45 -5 0 -22 -11 -38 -25z"/>
<path d="M3554 6228 c-102 -118 -171 -250 -219 -422 -14 -48 -15 -60 -4 -67 17 -10 39 8 39 30 0 22 40 139 70 206 32 69 77 141 123 198 23 27 37 53 33 62 -8 21 -19 19 -42 -7z"/>
<path d="M4137 6207 c-5 -14 10 -37 24 -37 4 0 35 -16 68 -36 59 -35 86 -38 74 -9 -3 9 -33 31 -67 50 -82 45 -92 49 -99 32z"/>
<path d="M3691 5800 c-12 -7 -12 -12 3 -34 18 -28 41 -34 49 -12 8 20 -35 57 -52 46z"/>
<path d="M5855 5143 c-221 -40 -628 -224 -950 -432 -22 -14 -49 -30 -60 -37 -99 -55 -207 -119 -240 -144 -22 -16 -55 -39 -72 -51 -37 -23 -43 -54 -14 -64 26 -8 505 236 851 433 306 175 370 203 466 210 81 5 109 -5 119 -45 17 -68 50 -69 115 -3 53 52 57 64 39 104 -22 47 -103 57 -254 29z"/>
<path d="M3584 5057 c-3 -8 0 -26 6 -41 9 -25 7 -31 -16 -53 -20 -19 -23 -27 -14 -38 9 -11 17 -10 47 7 45 27 49 41 28 88 -19 41 -42 58 -51 37z"/>
<path d="M6275 4973 c-150 -13 -225 -36 -225 -68 0 -49 137 -68 273 -37 97 22 137 43 137 72 0 37 -47 45 -185 33z"/>
<path d="M5030 4943 c-42 -13 -71 -33 -138 -91 -40 -35 -77 -73 -83 -83 -19 -36 1 -39 54 -10 194 108 277 160 277 172 0 17 -72 25 -110 12z"/>
<path d="M3468 4908 c-30 -19 -48 -39 -48 -51 0 -13 5 -17 15 -14 27 11 25 -11 -3 -29 -33 -22 -132 -114 -132 -124 0 -4 22 -17 48 -29 l48 -22 68 25 c100 38 215 114 216 143 0 6 -15 22 -32 34 -18 12 -45 33 -60 47 -14 13 -30 24 -35 23 -4 -1 -8 5 -8 11 0 23 -30 18 -77 -14z"/>
<path d="M5850 4921 c-168 -24 -380 -107 -756 -297 -187 -95 -371 -185 -408 -200 -37 -14 -65 -32 -63 -38 2 -6 29 -25 60 -43 l56 -31 235 119 c203 104 365 177 546 249 25 10 81 32 125 50 87 34 250 76 339 86 64 8 93 30 62 48 -10 6 -31 21 -47 34 -33 27 -73 33 -149 23z"/>
<path d="M6055 4794 c-292 -39 -542 -129 -980 -353 -148 -75 -271 -144 -273 -152 -1 -8 12 -25 29 -38 29 -22 35 -23 55 -10 195 120 254 148 569 266 358 134 432 156 715 208 204 38 243 53 206 81 -25 18 -179 17 -321 -2z"/>
<path d="M3256 4611 c-11 -12 -24 -21 -30 -21 -17 0 -129 -60 -150 -80 l-19 -19 26 -33 c55 -69 56 -70 97 -63 47 8 60 -8 25 -31 -28 -19 -32 -39 -9 -48 21 -8 75 31 72 52 -2 10 7 18 27 22 38 8 88 34 105 55 12 14 15 14 30 0 15 -14 19 -13 39 9 20 22 21 25 6 40 -9 9 -21 14 -25 11 -5 -3 -21 11 -34 32 -28 41 -77 78 -116 88 -19 4 -31 0 -44 -14z"/>
<path d="M7023 4518 c-6 -7 -38 -62 -73 -123 -34 -60 -72 -122 -84 -136 -11 -15 -41 -55 -65 -89 -25 -34 -69 -81 -99 -104 -30 -22 -73 -56 -95 -73 -23 -18 -58 -44 -77 -57 -19 -13 -41 -31 -49 -40 -7 -9 -18 -16 -24 -16 -6 0 -18 -7 -28 -16 -42 -38 -347 -192 -481 -243 -159 -60 -335 -112 -481 -141 -69 -14 -97 -37 -90 -73 7 -34 42 -48 90 -36 80 22 340 101 393 120 69 25 446 214 534 269 37 22 69 40 71 40 3 0 23 11 45 25 65 41 54 12 -24 -61 -94 -89 -103 -95 -281 -204 -59 -36 -117 -72 -130 -80 -72 -48 -257 -148 -447 -242 -120 -60 -222 -116 -227 -126 -9 -16 11 -72 26 -72 3 0 40 20 82 43 103 60 247 139 421 232 80 43 192 106 250 140 58 34 143 84 190 111 120 70 208 123 254 154 13 8 40 27 62 41 22 15 45 34 53 43 7 9 19 16 27 16 7 0 69 56 137 124 103 102 132 138 161 198 56 113 62 277 13 349 -26 38 -40 45 -54 27z"/>
<path d="M5865 4460 c-4 -7 -3 -16 3 -22 14 -14 47 -6 47 12 0 18 -40 26 -50 10z"/>
<path d="M5718 4444 c-107 -19 -508 -154 -609 -204 -119 -60 -144 -79 -127 -96 11 -12 23 -9 73 16 142 69 411 165 610 217 149 39 167 46 158 69 -6 16 -5 16 -105 -2z"/>
<path d="M2775 4350 c-4 -6 3 -23 15 -38 11 -15 29 -38 40 -52 l19 -25 17 17 18 18 -44 45 c-46 47 -55 52 -65 35z"/>
<path d="M2620 4316 c0 -17 40 -166 51 -189 9 -21 17 -26 33 -21 29 9 66 44 66 64 0 24 -57 107 -90 130 -25 18 -60 27 -60 16z"/>
<path d="M2520 4297 c0 -2 9 -39 20 -82 11 -43 20 -92 20 -110 0 -17 6 -39 13 -49 12 -16 16 -17 38 -5 13 8 25 14 27 15 6 3 -51 190 -64 212 -8 12 -23 22 -34 22 -11 0 -20 -2 -20 -3z"/>
<path d="M3103 4288 c-28 -13 -36 -33 -19 -47 10 -8 20 -5 40 14 15 14 24 30 21 35 -7 12 -13 12 -42 -2z"/>
<path d="M2394 4225 c-12 -30 55 -239 79 -243 25 -5 29 16 14 61 -8 23 -22 77 -32 120 -14 64 -20 77 -36 77 -11 0 -22 -7 -25 -15z"/>
<path d="M5275 4203 c-97 -13 -255 -76 -255 -102 0 -10 14 -30 31 -47 34 -32 117 -138 126 -160 15 -39 80 12 123 97 21 41 40 44 40 6 0 -24 -10 -42 -54 -106 -22 -31 -26 -45 -18 -53 15 -15 38 6 98 85 51 67 84 125 84 148 0 19 24 42 33 32 14 -13 6 -75 -13 -113 -24 -47 -78 -127 -91 -135 -20 -13 -41 -67 -30 -78 13 -13 63 32 128 117 54 71 82 130 83 171 0 42 -40 117 -70 132 -24 12 -146 15 -215 6z"/>
<path d="M2251 4150 c-57 -32 -58 -37 -18 -78 20 -21 37 -42 37 -46 0 -5 12 -35 26 -67 30 -66 53 -76 80 -35 15 24 14 28 -14 88 -17 35 -34 81 -38 103 -6 35 -19 56 -34 54 -3 0 -20 -9 -39 -19z"/>
<path d="M5735 3774 c-49 -24 -148 -69 -220 -101 -71 -31 -140 -66 -153 -78 -20 -19 -22 -25 -11 -48 8 -18 20 -27 36 -27 27 0 195 83 213 105 7 8 16 15 20 15 9 0 162 98 202 130 16 12 25 27 21 35 -7 20 -5 20 -108 -31z"/>
<path d="M5429 2478 c-43 -9 -112 -43 -130 -64 -7 -8 -15 -32 -18 -52 -8 -45 -23 -43 -36 6 -7 22 -21 42 -37 51 -24 14 -30 13 -67 -4 -55 -27 -57 -58 -10 -142 31 -54 24 -84 -8 -37 -10 14 -30 40 -46 57 l-27 32 -24 -27 c-21 -23 -25 -41 -31 -132 -12 -175 32 -349 118 -463 29 -40 147 -135 160 -130 11 3 22 21 31 50 11 35 26 6 26 -50 0 -91 18 -111 183 -194 203 -103 236 -126 208 -143 -5 -3 -31 1 -57 9 -27 8 -52 15 -56 15 -16 0 -7 -31 21 -72 40 -60 92 -86 196 -100 76 -10 87 -9 98 6 11 15 18 13 82 -19 76 -38 111 -43 154 -21 43 22 108 100 122 144 10 36 8 50 -25 153 -71 218 -182 346 -333 384 -54 14 -56 30 -5 30 38 1 87 -19 156 -62 48 -31 73 -17 37 21 -27 29 -137 80 -151 71 -6 -4 -17 -2 -23 4 -7 5 -32 13 -55 17 -38 6 -42 5 -42 -14 0 -12 5 -24 10 -27 15 -10 -8 -35 -31 -35 -35 0 -35 -46 1 -96 45 -63 26 -78 -27 -21 -26 28 -51 73 -73 128 -18 46 -41 96 -52 112 -18 25 -19 34 -9 97 22 141 10 361 -25 440 -24 56 -127 95 -205 78z m-141 -693 c33 -33 39 -49 22 -60 -16 -10 -39 13 -82 79 -41 64 -41 102 1 46 14 -19 41 -48 59 -65z m265 39 c-11 -33 -30 -42 -39 -20 -8 22 24 72 38 58 7 -7 7 -20 1 -38z m-23 -187 c0 -23 27 -57 46 -57 7 0 26 -24 43 -52 16 -29 43 -60 60 -70 16 -9 38 -29 48 -45 10 -15 33 -48 50 -71 55 -73 25 -68 -51 7 -39 39 -77 71 -84 71 -6 0 -21 19 -33 43 -22 43 -66 97 -81 97 -4 0 -27 -14 -50 -30 -61 -44 -73 -23 -19 35 33 36 40 50 35 69 -3 14 -3 30 1 36 10 16 35 -7 35 -33z m518 -191 c47 -30 86 -72 74 -80 -5 -3 -17 3 -27 14 -10 11 -22 20 -27 20 -15 0 -77 53 -72 62 7 11 10 11 52 -16z"/>
<path d="M4820 2093 c-100 -101 -193 -174 -320 -251 -138 -84 -278 -141 -410 -167 -43 -9 -61 -22 -54 -40 14 -35 280 49 417 131 115 70 234 152 293 204 34 29 39 31 106 28 l71 -3 13 -64 c33 -158 101 -275 210 -356 69 -51 79 -61 189 -180 50 -55 67 -67 76 -58 10 10 6 21 -16 54 -16 22 -39 45 -52 50 -12 4 -29 24 -37 42 -8 19 -32 47 -57 63 -72 49 -178 155 -208 209 -31 55 -66 177 -76 267 -3 32 -10 60 -15 63 -6 4 -5 14 2 25 16 24 -4 70 -29 69 -10 0 -56 -39 -103 -86z m105 7 c4 -6 1 -17 -5 -26 -10 -11 -16 -12 -26 -3 -11 9 -11 15 -3 25 14 17 25 18 34 4z"/>
<path d="M5701 1957 c-19 -19 -12 -70 17 -122 15 -27 35 -51 45 -53 24 -5 21 17 -9 72 -19 33 -24 54 -19 75 7 31 -14 48 -34 28z"/>
<path d="M7102 1858 c-19 -19 -17 -521 2 -537 9 -8 56 -11 141 -9 140 3 154 10 141 61 l-6 26 -103 3 -102 3 0 74 0 74 81 -2 c90 -2 121 12 110 53 -3 12 -6 24 -6 28 0 4 -42 9 -92 10 l-93 3 0 65 0 65 103 3 102 3 0 38 c0 32 -4 40 -22 45 -43 11 -243 7 -256 -6z"/>
<path d="M8233 1844 c-10 -15 -39 -50 -65 -79 -51 -56 -65 -105 -30 -105 10 0 23 5 29 11 7 7 19 9 27 6 14 -5 16 -31 16 -171 0 -136 3 -167 16 -180 8 -9 19 -16 24 -16 5 0 16 7 24 16 14 13 16 52 16 268 0 245 -4 276 -32 276 -4 0 -15 -12 -25 -26z"/>
<path d="M8680 1863 c-8 -3 -30 -19 -47 -36 l-33 -31 -11 32 -11 32 -119 0 -119 0 -6 -27 c-11 -43 6 -58 72 -61 88 -4 87 -2 54 -79 -38 -90 -68 -206 -76 -297 l-6 -73 23 -6 c33 -9 47 8 54 61 18 132 43 225 94 336 33 74 47 79 42 16 -2 -26 5 -53 19 -78 l22 -39 -26 -38 c-21 -30 -26 -49 -26 -99 0 -115 75 -193 161 -167 97 29 135 183 69 273 l-22 30 22 42 c19 35 22 51 16 90 -12 79 -89 142 -146 119z m58 -95 c20 -20 15 -83 -8 -103 l-20 -18 -20 18 c-37 33 -22 115 20 115 9 0 21 -5 28 -12z m18 -230 c18 -35 15 -108 -6 -133 -7 -8 -26 -15 -42 -15 -24 0 -32 6 -44 35 -18 44 -18 79 1 115 22 43 68 42 91 -2z"/>
<path d="M8960 1863 c-8 -3 -29 -19 -47 -36 -40 -37 -58 -107 -49 -185 8 -68 34 -112 81 -138 l36 -19 30 17 c27 16 30 16 36 2 8 -20 -13 -88 -31 -104 -26 -21 -60 -8 -70 27 -11 36 -39 48 -61 26 -20 -19 -19 -36 5 -83 24 -47 70 -75 109 -65 40 10 89 63 108 119 25 72 25 273 0 337 -29 75 -96 122 -147 102z m65 -93 c11 -12 20 -41 23 -74 8 -93 -39 -145 -90 -99 -27 24 -25 131 3 167 25 31 40 33 64 6z"/>
<path d="M7707 1822 c-10 -10 -17 -35 -17 -55 0 -20 -6 -40 -14 -44 -25 -15 -28 -48 -6 -76 18 -22 20 -40 20 -157 l0 -131 25 -24 c29 -30 66 -32 90 -5 l18 20 19 -20 c33 -35 68 -19 68 31 0 42 -10 59 -36 59 -16 0 -28 -10 -39 -30 l-16 -31 -29 30 -30 29 0 106 c0 93 2 106 19 115 36 20 36 75 0 84 -16 4 -19 14 -19 61 0 48 -3 56 -18 56 -11 0 -26 -8 -35 -18z"/>
<path d="M3262 1775 c6 -48 -2 -64 -22 -40 -17 21 -43 7 -36 -20 3 -12 -1 -37 -10 -54 -25 -51 -7 -116 52 -181 20 -23 22 -29 12 -66 -7 -23 -8 -49 -3 -60 14 -33 13 -77 -3 -101 -11 -18 -12 -27 -3 -36 18 -18 13 -48 -9 -54 -16 -4 -20 -14 -20 -43 0 -37 22 -61 36 -39 3 6 17 14 30 19 21 8 24 16 24 64 0 30 -5 58 -11 61 -7 5 -5 13 6 25 16 18 12 43 -12 72 -10 11 -11 18 -4 23 6 3 11 24 11 45 0 21 5 42 10 45 20 12 9 35 -35 79 -40 41 -45 50 -45 91 0 46 25 100 41 89 5 -3 9 -13 9 -24 0 -41 182 -128 238 -113 15 4 21 17 26 57 9 68 3 80 -47 101 -23 9 -84 37 -135 61 -51 24 -95 44 -98 44 -4 0 -4 -20 -2 -45z"/>
<path d="M7473 1714 c-53 -26 -72 -109 -39 -172 17 -32 49 -54 98 -66 62 -14 57 -90 -5 -84 -26 2 -34 9 -42 36 -7 26 -14 32 -37 32 -63 0 -37 -109 35 -144 33 -16 45 -17 78 -7 53 16 89 69 89 132 0 39 -5 51 -35 82 -19 19 -47 38 -64 42 -35 8 -64 37 -59 62 6 30 38 27 73 -7 24 -24 38 -30 54 -25 34 11 27 52 -18 96 -43 43 -75 49 -128 23z"/>
<path d="M3580 1657 c0 -14 5 -37 12 -51 9 -21 16 -24 37 -20 38 9 91 44 91 59 0 20 -8 23 -78 31 l-62 7 0 -26z"/>
<path d="M6145 1659 c-4 -5 14 -42 40 -80 53 -79 85 -153 114 -262 11 -42 30 -93 42 -114 22 -38 93 -98 116 -98 7 0 17 -5 23 -11 14 -14 1 -104 -16 -111 -17 -6 -18 -37 -1 -51 13 -11 65 -11 83 1 13 8 45 -34 47 -61 0 -9 -2 -29 -6 -43 -5 -19 -3 -29 8 -33 8 -3 17 -1 20 5 4 5 11 7 16 3 6 -4 6 -10 -1 -19 -11 -13 27 -78 111 -195 29 -40 107 -194 114 -224 1 -6 7 -24 13 -39 28 -67 8 -129 -43 -139 -12 -2 -21 -13 -23 -26 -4 -30 24 -29 69 1 46 31 61 63 55 117 -6 52 -69 205 -112 269 -16 24 -38 58 -48 75 -10 17 -36 57 -58 89 -33 50 -37 61 -26 75 26 31 6 353 -24 390 -9 10 -16 9 -35 -3 -30 -20 -41 -13 -35 23 2 17 -5 44 -17 67 -26 49 -19 59 25 35 34 -20 64 -26 64 -14 0 23 -85 174 -101 179 -48 15 -68 -14 -73 -103 -1 -21 -4 -42 -7 -47 -3 -6 -12 -37 -19 -70 -17 -79 -24 -85 -59 -51 -21 21 -35 52 -56 124 -30 111 -99 259 -145 315 -33 39 -44 44 -55 26z m498 -605 c6 -32 -9 -41 -34 -18 -22 20 -24 35 -7 52 15 15 34 0 41 -34z m7 -93 c0 -25 -11 -33 -26 -20 -10 8 -11 16 -3 30 12 22 29 16 29 -10z"/>
<path d="M3771 1646 c-7 -8 -16 -43 -22 -78 -6 -34 -14 -67 -20 -72 -5 -6 -9 -20 -9 -33 0 -27 30 -32 50 -8 7 8 16 12 21 10 14 -9 -2 -69 -25 -90 -24 -23 -32 -75 -11 -75 22 0 28 -21 12 -38 -15 -14 -17 -14 -23 1 -10 26 -30 20 -75 -23 -37 -35 -41 -43 -35 -71 3 -17 6 -49 6 -71 0 -35 2 -39 22 -36 12 2 28 14 34 26 12 25 58 54 68 44 3 -3 6 -17 6 -32 0 -36 -36 -80 -65 -80 -12 0 -29 -7 -36 -16 -11 -14 -10 -18 6 -30 10 -8 27 -14 36 -14 55 0 12 -92 -87 -187 -70 -67 -84 -93 -50 -93 8 0 45 30 84 66 51 46 81 84 103 130 17 35 36 64 41 64 19 0 111 84 169 154 32 39 68 82 81 96 13 14 52 56 86 93 47 50 62 74 59 89 -3 11 3 34 14 51 26 43 25 111 -1 137 -24 24 -37 25 -71 2 -15 -9 -58 -38 -95 -63 -38 -25 -99 -62 -136 -82 -67 -37 -89 -36 -68 2 5 11 10 42 10 70 0 42 -5 54 -27 75 -38 35 -23 44 72 48 74 3 80 5 83 26 l3 22 -99 0 c-73 0 -103 -4 -111 -14z m393 -245 c15 -23 -73 -129 -96 -115 -11 7 13 56 46 92 31 33 41 38 50 23z m-126 -168 c-25 -25 -28 -25 -34 -8 -9 23 33 62 50 45 7 -7 2 -18 -16 -37z m-54 -64 c-3 -5 -10 -7 -15 -3 -5 3 -7 10 -3 15 3 5 10 7 15 3 5 -3 7 -10 3 -15z m-69 -79 c-24 -27 -39 -15 -18 16 11 17 19 22 26 15 7 -7 5 -17 -8 -31z"/>
<path d="M3370 1441 c-12 -8 -12 -13 5 -30 38 -42 154 -53 169 -16 9 25 -5 45 -33 45 -14 0 -48 3 -76 6 -27 3 -57 1 -65 -5z"/>
<path d="M5435 1309 c-4 -5 17 -36 47 -67 29 -32 65 -79 80 -104 31 -54 54 -71 133 -99 46 -16 60 -18 66 -7 11 18 -5 33 -53 48 -63 18 -89 41 -131 113 -35 59 -102 127 -126 127 -5 0 -13 -5 -16 -11z"/>
<path d="M6345 1086 c-22 -47 -81 -113 -116 -132 -34 -17 -37 -29 -9 -44 27 -14 81 9 121 52 40 42 72 113 64 138 -10 32 -42 24 -60 -14z"/>
<path d="M5800 1041 c0 -11 5 -23 10 -26 6 -3 10 -14 10 -24 0 -21 20 -62 58 -115 26 -39 88 -89 147 -122 17 -9 48 -32 71 -51 69 -56 107 -82 150 -102 50 -23 58 -34 60 -83 1 -20 6 -43 10 -50 4 -7 9 -35 11 -62 3 -53 17 -78 38 -70 15 6 15 70 0 94 -5 8 -11 33 -12 54 -2 21 -7 44 -13 51 -6 7 -8 20 -4 29 3 9 -1 27 -9 39 -8 13 -13 35 -10 49 4 20 0 28 -14 32 -11 4 -30 18 -43 31 -18 20 -21 28 -12 37 25 25 1 113 -27 103 -22 -9 -61 23 -61 50 0 43 -38 93 -83 109 -63 22 -97 28 -98 16 -1 -5 -3 -14 -4 -20 -1 -5 -3 -13 -4 -17 0 -4 -16 7 -33 24 -25 23 -46 32 -85 37 -48 6 -53 5 -53 -13z m112 -80 c7 -10 24 -18 38 -17 23 1 25 -2 25 -44 0 -35 -4 -45 -17 -48 -12 -2 -21 5 -27 21 -6 14 -14 28 -20 31 -14 9 -40 64 -33 70 10 10 21 6 34 -13z m169 -157 c6 -8 17 -14 23 -14 21 0 61 -49 50 -60 -7 -7 -19 -2 -38 15 -15 14 -31 25 -35 25 -15 0 -61 41 -56 50 7 11 42 1 56 -16z m123 -103 c10 -10 13 -22 8 -25 -12 -7 -54 23 -47 35 9 14 20 11 39 -10z"/>
<path d="M3148 1015 c-46 -30 -66 -63 -44 -71 26 -10 114 64 101 85 -9 15 -14 13 -57 -14z"/>
<path d="M2976 861 c-54 -55 -77 -84 -73 -95 4 -9 10 -16 15 -16 16 0 174 169 167 180 -13 21 -32 8 -109 -69z"/>
<path d="M6512 901 c-10 -6 -11 -13 -1 -34 14 -31 39 -36 39 -9 0 27 -23 53 -38 43z"/>
<path d="M3027 822 c-68 -69 -61 -102 23 -97 49 2 107 31 113 55 5 24 -14 70 -33 80 -34 18 -55 10 -103 -38z"/>
<path d="M3248 763 c-19 -16 -49 -45 -67 -65 -18 -21 -38 -38 -45 -38 -6 0 -24 -7 -39 -15 -24 -12 -29 -12 -34 0 -11 31 -63 10 -63 -26 0 -24 30 -32 50 -14 15 14 19 13 36 -6 23 -25 42 -23 177 18 144 45 167 75 103 139 -42 42 -72 43 -118 7z"/>
<path d="M6290 740 c12 -23 35 -22 35 1 0 8 -10 15 -23 17 -21 3 -22 1 -12 -18z"/>
<path d="M2834 702 c-6 -4 -13 -16 -16 -27 -3 -11 -9 -28 -13 -37 -5 -14 -2 -18 12 -18 23 0 53 30 53 52 0 20 -23 39 -36 30z"/>
<path d="M3495 658 c-16 -12 -43 -34 -60 -48 -16 -15 -66 -44 -110 -65 -44 -20 -87 -40 -95 -44 -8 -4 -64 -7 -123 -6 l-108 1 3 -21 c3 -18 11 -20 87 -23 46 -2 91 0 100 4 9 4 30 8 47 10 71 6 322 165 311 197 -6 19 -21 17 -52 -5z"/>
<path d="M2812 581 c-17 -10 -2 -49 29 -78 20 -18 85 -43 112 -43 5 0 7 10 5 22 -2 16 -15 25 -51 35 -34 10 -50 21 -57 37 -11 29 -22 37 -38 27z"/>
<path d="M6649 535 c-38 -21 -51 -61 -48 -154 3 -69 6 -84 26 -102 28 -27 58 -19 48 14 -12 40 -10 52 6 49 9 -1 19 4 22 12 4 9 14 12 26 9 12 -3 27 0 35 6 10 8 17 6 31 -9 16 -18 45 -28 45 -15 0 3 -18 43 -40 88 -53 108 -92 134 -151 102z"/>
<path d="M6428 459 c-38 -22 -40 -45 -8 -108 52 -103 117 -138 158 -86 l20 25 -34 70 c-50 104 -85 129 -136 99z"/>
<path d="M6344 273 c16 -68 29 -84 88 -114 52 -26 68 -30 131 -27 66 3 72 5 75 26 l3 22 -90 0 -90 0 -35 30 c-20 18 -36 42 -38 58 -2 20 -9 28 -27 30 -21 3 -23 1 -17 -25z"/>
</g>
</g>
  <g id="id1:id1" transform="matrix(1.25,0,0,1.25,0.0,0.0)"><g transform="translate(0.000000,425.600000) scale(0.040000,-0.040000)" fill="#ffc0ff" stroke="none">
<path d="M4360 3255 c0 -8 5 -15 10 -15 6 0 10 7 10 15 0 8 -4 15 -10 15 -5 0 -10 -7 -10 -15z"/>
<path d="M4067 2973 c-12 -11 -7 -40 8 -53 24 -20 38 0 26 33 -10 27 -21 33 -34 20z"/>
</g>
</g>
  <g id="id2:id2" transform="matrix(1.25,0,0,1.25,0.0,0.0)"><g transform="translate(0.000000,425.600000) scale(0.040000,-0.040000)" fill="#ff80ff" stroke="none">
<path d="M1980 7655 c0 -8 5 -15 10 -15 6 0 10 7 10 15 0 8 -4 15 -10 15 -5 0 -10 -7 -10 -15z"/>
<path d="M1980 7290 c0 -5 5 -10 10 -10 6 0 10 5 10 10 0 6 -4 10 -10 10 -5 0 -10 -4 -10 -10z"/>
<path d="M6120 6850 c0 -16 5 -30 10 -30 6 0 10 14 10 30 0 17 -4 30 -10 30 -5 0 -10 -13 -10 -30z"/>
<path d="M3980 6190 c0 -6 31 -10 74 -10 41 0 78 5 81 10 4 6 -23 10 -74 10 -47 0 -81 -4 -81 -10z"/>
<path d="M3860 6170 c0 -5 5 -10 10 -10 6 0 10 5 10 10 0 6 -4 10 -10 10 -5 0 -10 -4 -10 -10z"/>
<path d="M3580 6000 c0 -11 5 -20 10 -20 6 0 10 9 10 20 0 11 -4 20 -10 20 -5 0 -10 -9 -10 -20z"/>
<path d="M4280 5790 c0 -5 5 -10 10 -10 6 0 10 5 10 10 0 6 -4 10 -10 10 -5 0 -10 -4 -10 -10z"/>
<path d="M3600 5770 c0 -5 5 -10 10 -10 6 0 10 5 10 10 0 6 -4 10 -10 10 -5 0 -10 -4 -10 -10z"/>
<path d="M3340 5730 c0 -5 5 -10 10 -10 6 0 10 5 10 10 0 6 -4 10 -10 10 -5 0 -10 -4 -10 -10z"/>
<path d="M3440 5732 c0 -14 23 -32 42 -32 23 0 23 9 1 26 -20 15 -43 18 -43 6z"/>
<path d="M7012 5709 c2 -6 8 -10 13 -10 5 0 11 4 13 10 2 6 -4 11 -13 11 -9 0 -15 -5 -13 -11z"/>
<path d="M3740 5695 c0 -8 5 -15 10 -15 6 0 10 7 10 15 0 8 -4 15 -10 15 -5 0 -10 -7 -10 -15z"/>
<path d="M3400 5690 c0 -5 5 -10 10 -10 6 0 10 5 10 10 0 6 -4 10 -10 10 -5 0 -10 -4 -10 -10z"/>
<path d="M4360 5690 c0 -5 5 -10 10 -10 6 0 10 5 10 10 0 6 -4 10 -10 10 -5 0 -10 -4 -10 -10z"/>
<path d="M7067 5664 c-14 -14 -7 -35 11 -32 9 2 17 10 17 17 0 16 -18 25 -28 15z"/>
<path d="M3660 5632 c0 -4 9 -13 20 -20 22 -13 27 -3 8 16 -14 14 -28 16 -28 4z"/>
<path d="M3780 5575 c0 -8 5 -15 10 -15 6 0 10 7 10 15 0 8 -4 15 -10 15 -5 0 -10 -7 -10 -15z"/>
<path d="M4385 5547 c-4 -10 -5 -21 -1 -24 10 -10 18 4 13 24 l-4 18 -8 -18z"/>
<path d="M4200 5430 c0 -5 5 -10 10 -10 6 0 10 5 10 10 0 6 -4 10 -10 10 -5 0 -10 -4 -10 -10z"/>
<path d="M6920 5370 c0 -5 5 -10 10 -10 6 0 10 5 10 10 0 6 -4 10 -10 10 -5 0 -10 -4 -10 -10z"/>
<path d="M3980 5289 c0 -5 5 -7 10 -4 6 3 10 8 10 11 0 2 -4 4 -10 4 -5 0 -10 -5 -10 -11z"/>
<path d="M4097 5283 c-12 -11 -8 -23 8 -23 8 0 15 7 15 15 0 16 -12 20 -23 8z"/>
<path d="M4067 5233 c-4 -3 -7 -28 -7 -54 0 -32 5 -49 15 -53 12 -4 15 3 15 32 0 20 3 47 6 60 5 15 2 22 -8 22 -8 0 -18 -3 -21 -7z"/>
<path d="M3960 5191 c0 -20 -7 -34 -20 -41 -11 -6 -20 -21 -20 -33 0 -13 -5 -28 -11 -34 -8 -8 -9 -28 -5 -58 9 -56 35 -59 48 -5 5 19 18 55 29 79 16 34 18 52 12 79 -11 46 -33 55 -33 13z"/>
<path d="M1707 5203 c-13 -12 -8 -105 5 -101 14 5 31 75 24 95 -6 14 -19 17 -29 6z"/>
<path d="M2280 5060 c0 -11 5 -20 10 -20 6 0 10 9 10 20 0 11 -4 20 -10 20 -5 0 -10 -9 -10 -20z"/>
<path d="M4577 5003 c-9 -16 -18 -73 -11 -73 11 0 33 34 34 52 0 18 -16 33 -23 21z"/>
<path d="M1700 4985 c0 -8 5 -15 10 -15 6 0 10 7 10 15 0 8 -4 15 -10 15 -5 0 -10 -7 -10 -15z"/>
<path d="M3800 4993 c0 -15 23 -33 42 -33 23 0 23 16 1 24 -10 3 -24 9 -30 12 -7 3 -13 2 -13 -3z"/>
<path d="M4840 4985 c0 -8 5 -15 10 -15 6 0 10 7 10 15 0 8 -4 15 -10 15 -5 0 -10 -7 -10 -15z"/>
<path d="M4384 4959 c-10 -17 13 -36 27 -22 12 12 4 33 -11 33 -5 0 -12 -5 -16 -11z"/>
<path d="M3660 4952 c0 -3 7 -13 16 -23 19 -21 44 -15 44 10 0 13 -8 18 -30 18 -16 0 -30 -3 -30 -5z"/>
<path d="M3680 4890 c0 -5 5 -10 10 -10 6 0 10 5 10 10 0 6 -4 10 -10 10 -5 0 -10 -4 -10 -10z"/>
<path d="M3620 4880 c0 -5 5 -10 10 -10 6 0 10 5 10 10 0 6 -4 10 -10 10 -5 0 -10 -4 -10 -10z"/>
<path d="M4552 4863 c-6 -2 -10 -9 -6 -14 8 -14 21 -11 28 6 6 15 1 17 -22 8z"/>
<path d="M3380 4850 c0 -5 5 -10 10 -10 6 0 10 5 10 10 0 6 -4 10 -10 10 -5 0 -10 -4 -10 -10z"/>
<path d="M3700 4801 c0 -12 5 -21 10 -21 6 0 10 6 10 14 0 8 -4 18 -10 21 -5 3 -10 -3 -10 -14z"/>
<path d="M4660 4770 c0 -5 5 -10 10 -10 6 0 10 5 10 10 0 6 -4 10 -10 10 -5 0 -10 -4 -10 -10z"/>
<path d="M4780 4730 c0 -5 5 -10 10 -10 6 0 10 5 10 10 0 6 -4 10 -10 10 -5 0 -10 -4 -10 -10z"/>
<path d="M3280 4650 c0 -5 6 -10 13 -10 8 0 28 -7 46 -16 33 -16 48 -14 36 5 -3 6 -15 11 -25 11 -10 0 -22 5 -25 10 -3 6 -15 10 -26 10 -10 0 -19 -4 -19 -10z"/>
<path d="M3720 4600 c0 -5 5 -10 10 -10 6 0 10 5 10 10 0 6 -4 10 -10 10 -5 0 -10 -4 -10 -10z"/>
<path d="M3227 4544 c-14 -14 -7 -35 11 -32 9 2 17 10 17 17 0 16 -18 25 -28 15z"/>
<path d="M2655 4469 c-4 -6 -5 -12 -2 -15 7 -7 37 7 37 17 0 13 -27 11 -35 -2z"/>
<path d="M4450 4470 c0 -5 7 -10 15 -10 8 0 15 5 15 10 0 6 -7 10 -15 10 -8 0 -15 -4 -15 -10z"/>
<path d="M5820 4446 c0 -21 21 -31 30 -15 5 7 6 17 4 21 -9 14 -34 9 -34 -6z"/>
<path d="M7480 4290 c0 -11 5 -20 10 -20 6 0 10 9 10 20 0 11 -4 20 -10 20 -5 0 -10 -9 -10 -20z"/>
<path d="M4180 4201 c0 -15 6 -21 21 -21 25 0 22 33 -4 38 -12 2 -17 -3 -17 -17z"/>
<path d="M7480 4124 c0 -8 5 -12 10 -9 6 3 10 10 10 16 0 5 -4 9 -10 9 -5 0 -10 -7 -10 -16z"/>
<path d="M1120 4025 c0 -30 5 -55 10 -55 6 0 10 25 10 55 0 30 -4 55 -10 55 -5 0 -10 -25 -10 -55z"/>
<path d="M1930 4000 c-10 -6 -11 -13 -5 -19 6 -6 16 -7 25 -1 10 6 11 13 5 19 -6 6 -16 7 -25 1z"/>
<path d="M4120 3950 c0 -5 11 -10 25 -10 14 0 25 5 25 10 0 6 -11 10 -25 10 -14 0 -25 -4 -25 -10z"/>
<path d="M2180 3935 c0 -8 5 -15 10 -15 6 0 10 7 10 15 0 8 -4 15 -10 15 -5 0 -10 -7 -10 -15z"/>
<path d="M2472 3928 c-13 -13 -17 -48 -5 -48 15 0 41 33 36 46 -6 17 -15 18 -31 2z"/>
<path d="M3120 3930 c0 -5 5 -10 10 -10 6 0 10 5 10 10 0 6 -4 10 -10 10 -5 0 -10 -4 -10 -10z"/>
<path d="M3560 3930 c0 -5 5 -10 10 -10 6 0 10 5 10 10 0 6 -4 10 -10 10 -5 0 -10 -4 -10 -10z"/>
<path d="M4200 3930 c0 -5 5 -10 10 -10 6 0 10 5 10 10 0 6 -4 10 -10 10 -5 0 -10 -4 -10 -10z"/>
<path d="M3589 3864 c-7 -9 -25 -21 -39 -26 -15 -6 -20 -12 -12 -15 14 -5 112 38 112 50 0 14 -48 7 -61 -9z"/>
<path d="M4820 3870 c0 -5 5 -10 10 -10 6 0 10 5 10 10 0 6 -4 10 -10 10 -5 0 -10 -4 -10 -10z"/>
<path d="M5060 3860 c0 -11 5 -20 10 -20 6 0 10 9 10 20 0 11 -4 20 -10 20 -5 0 -10 -9 -10 -20z"/>
<path d="M1840 3850 c0 -5 5 -10 10 -10 6 0 10 5 10 10 0 6 -4 10 -10 10 -5 0 -10 -4 -10 -10z"/>
<path d="M2135 3830 c-11 -19 6 -30 46 -30 32 0 39 3 39 20 0 17 -7 20 -39 20 -22 0 -43 -4 -46 -10z"/>
<path d="M5240 3830 c0 -5 9 -10 20 -10 11 0 20 5 20 10 0 6 -9 10 -20 10 -11 0 -20 -4 -20 -10z"/>
<path d="M5300 3750 c0 -5 5 -10 10 -10 6 0 10 5 10 10 0 6 -4 10 -10 10 -5 0 -10 -4 -10 -10z"/>
<path d="M3400 3730 c0 -5 5 -10 10 -10 6 0 10 5 10 10 0 6 -4 10 -10 10 -5 0 -10 -4 -10 -10z"/>
<path d="M4640 3721 c0 -20 27 -48 37 -37 8 7 -17 56 -29 56 -4 0 -8 -8 -8 -19z"/>
<path d="M4960 3708 c0 -29 46 -108 63 -108 23 0 22 4 -13 55 -16 24 -30 48 -30 54 0 6 -4 11 -10 11 -5 0 -10 -5 -10 -12z"/>
<path d="M1157 3638 c-5 -35 0 -58 13 -58 4 0 10 6 13 13 6 17 -4 77 -13 77 -4 0 -10 -15 -13 -32z"/>
<path d="M1220 3580 c0 -5 5 -10 10 -10 6 0 10 5 10 10 0 6 -4 10 -10 10 -5 0 -10 -4 -10 -10z"/>
<path d="M4760 3575 c0 -10 45 -75 53 -75 13 0 7 21 -14 51 -18 26 -39 38 -39 24z"/>
<path d="M5080 3436 c0 -14 5 -28 10 -31 6 -4 9 -14 8 -22 -2 -9 3 -18 10 -20 14 -5 17 23 2 32 -5 3 -10 19 -10 36 0 16 -4 29 -10 29 -5 0 -10 -11 -10 -24z"/>
<path d="M3113 3393 c-7 -15 -11 -29 -8 -32 7 -6 34 31 35 47 0 21 -14 13 -27 -15z"/>
<path d="M4855 3393 c11 -46 25 -51 25 -10 0 27 -4 37 -16 37 -13 0 -15 -6 -9 -27z"/>
<path d="M3517 3273 c-4 -3 -7 -14 -7 -23 0 -14 13 -18 62 -23 35 -3 64 -4 66 -2 2 1 -8 15 -21 29 -17 18 -34 26 -59 26 -19 0 -38 -3 -41 -7z"/>
<path d="M4400 3270 c0 -5 5 -10 10 -10 6 0 10 5 10 10 0 6 -4 10 -10 10 -5 0 -10 -4 -10 -10z"/>
<path d="M4302 3243 c2 -12 -4 -19 -18 -21 -28 -4 -31 -62 -3 -62 10 0 21 5 24 10 3 6 17 10 31 10 27 0 31 12 9 30 -8 7 -12 17 -9 22 4 6 10 6 17 -1 17 -17 27 -13 27 9 0 17 -7 20 -40 20 -33 0 -40 -3 -38 -17z"/>
<path d="M4153 3243 c-16 -6 -17 -35 -1 -51 19 -19 25 -14 24 23 -1 36 -2 37 -23 28z"/>
<path d="M2820 3230 c0 -5 7 -10 15 -10 8 0 15 5 15 10 0 6 -7 10 -15 10 -8 0 -15 -4 -15 -10z"/>
<path d="M3680 3230 c0 -5 5 -10 10 -10 6 0 10 5 10 10 0 6 -4 10 -10 10 -5 0 -10 -4 -10 -10z"/>
<path d="M3727 3213 c-16 -15 -5 -30 23 -30 32 0 37 6 18 25 -13 13 -31 16 -41 5z"/>
<path d="M3800 3190 c0 -5 5 -10 10 -10 6 0 10 5 10 10 0 6 -4 10 -10 10 -5 0 -10 -4 -10 -10z"/>
<path d="M3540 3171 c0 -13 19 -18 52 -13 42 6 34 22 -12 22 -22 0 -40 -4 -40 -9z"/>
<path d="M3766 3163 c-11 -11 -6 -23 9 -23 8 0 15 4 15 9 0 13 -16 22 -24 14z"/>
<path d="M3640 3113 c0 -9 48 -33 64 -33 15 1 -36 40 -51 40 -7 0 -13 -3 -13 -7z"/>
<path d="M4040 3110 c0 -5 5 -10 10 -10 6 0 10 5 10 10 0 6 -4 10 -10 10 -5 0 -10 -4 -10 -10z"/>
<path d="M3920 2990 c0 -5 5 -10 10 -10 6 0 10 5 10 10 0 6 -4 10 -10 10 -5 0 -10 -4 -10 -10z"/>
<path d="M4060 2949 c0 -23 4 -30 15 -25 8 3 19 -3 25 -12 8 -15 11 -15 19 -2 13 19 -17 70 -41 70 -13 0 -18 -8 -18 -31z"/>
<path d="M3986 2901 c-4 -7 -5 -15 -2 -18 9 -9 19 4 14 18 -4 11 -6 11 -12 0z"/>
<path d="M3720 2879 c0 -11 5 -17 10 -14 6 3 10 13 10 21 0 8 -4 14 -10 14 -5 0 -10 -9 -10 -21z"/>
<path d="M3540 2850 c0 -5 5 -10 11 -10 5 0 7 5 4 10 -3 6 -8 10 -11 10 -2 0 -4 -4 -4 -10z"/>
<path d="M4100 2850 c0 -5 5 -10 10 -10 6 0 10 5 10 10 0 6 -4 10 -10 10 -5 0 -10 -4 -10 -10z"/>
<path d="M3960 2830 c0 -5 5 -10 10 -10 6 0 10 5 10 10 0 6 -4 10 -10 10 -5 0 -10 -4 -10 -10z"/>
<path d="M4150 2785 c-7 -9 -10 -18 -7 -22 8 -7 37 15 37 28 0 14 -16 11 -30 -6z"/>
<path d="M2460 2600 c0 -11 5 -20 10 -20 6 0 10 9 10 20 0 11 -4 20 -10 20 -5 0 -10 -9 -10 -20z"/>
<path d="M2622 2588 c6 -17 36 -34 44 -25 4 4 -1 14 -12 22 -23 18 -37 19 -32 3z"/>
<path d="M3360 2490 c0 -5 5 -10 11 -10 5 0 7 5 4 10 -3 6 -8 10 -11 10 -2 0 -4 -4 -4 -10z"/>
<path d="M2660 2390 c0 -5 5 -10 10 -10 6 0 10 5 10 10 0 6 -4 10 -10 10 -5 0 -10 -4 -10 -10z"/>
<path d="M4380 2390 c0 -5 5 -10 10 -10 6 0 10 5 10 10 0 6 -4 10 -10 10 -5 0 -10 -4 -10 -10z"/>
<path d="M3700 2330 c0 -5 23 -10 50 -10 28 0 50 5 50 10 0 6 -22 10 -50 10 -27 0 -50 -4 -50 -10z"/>
<path d="M3920 2310 c0 -6 33 -10 80 -10 47 0 80 4 80 10 0 6 -33 10 -80 10 -47 0 -80 -4 -80 -10z"/>
<path d="M3400 2265 c0 -17 2 -18 24 -9 23 9 20 24 -4 24 -11 0 -20 -7 -20 -15z"/>
<path d="M5700 2233 c0 -43 11 -73 26 -73 10 0 14 14 14 50 0 43 -3 50 -20 50 -15 0 -20 -7 -20 -27z"/>
<path d="M3960 2210 c0 -5 5 -10 10 -10 6 0 10 5 10 10 0 6 -4 10 -10 10 -5 0 -10 -4 -10 -10z"/>
<path d="M3550 2190 c0 -5 11 -10 25 -10 14 0 25 5 25 10 0 6 -11 10 -25 10 -14 0 -25 -4 -25 -10z"/>
<path d="M4160 2135 c0 -9 5 -15 11 -13 6 2 11 8 11 13 0 5 -5 11 -11 13 -6 2 -11 -4 -11 -13z"/>
<path d="M3935 2110 c3 -5 26 -10 50 -10 24 0 47 5 50 10 4 6 -15 10 -50 10 -35 0 -54 -4 -50 -10z"/>
<path d="M4940 2090 c0 -5 5 -10 10 -10 6 0 10 5 10 10 0 6 -4 10 -10 10 -5 0 -10 -4 -10 -10z"/>
<path d="M5700 1980 c0 -23 10 -26 28 -8 18 18 15 28 -8 28 -13 0 -20 -7 -20 -20z"/>
<path d="M3220 1855 c0 -36 0 -68 -1 -72 0 -4 4 -9 10 -11 7 -2 11 23 11 72 0 44 -4 76 -10 76 -6 0 -10 -28 -10 -65z"/>
<path d="M4120 1873 c0 -5 7 -16 15 -27 16 -21 35 -13 35 15 0 14 -7 19 -25 19 -14 0 -25 -3 -25 -7z"/>
<path d="M3940 1791 c0 -12 29 -35 36 -28 11 10 -5 37 -21 37 -8 0 -15 -4 -15 -9z"/>
<path d="M5940 1770 c0 -5 5 -10 10 -10 6 0 10 5 10 10 0 6 -4 10 -10 10 -5 0 -10 -4 -10 -10z"/>
<path d="M3980 1650 c0 -5 9 -10 20 -10 11 0 20 5 20 10 0 6 -9 10 -20 10 -11 0 -20 -4 -20 -10z"/>
<path d="M3773 1443 c-15 -5 -18 -43 -4 -43 5 0 11 11 13 25 3 14 5 25 4 24 0 0 -7 -3 -13 -6z"/>
<path d="M3993 1430 c-26 -20 -29 -30 -10 -30 21 1 52 29 41 39 -5 6 -18 3 -31 -9z"/>
<path d="M4160 1390 c0 -5 5 -10 10 -10 6 0 10 5 10 10 0 6 -4 10 -10 10 -5 0 -10 -4 -10 -10z"/>
<path d="M4100 1350 c0 -5 5 -10 10 -10 6 0 10 5 10 10 0 6 -4 10 -10 10 -5 0 -10 -4 -10 -10z"/>
<path d="M6512 1348 c-17 -17 -15 -32 9 -53 16 -16 19 -26 14 -57 -7 -39 18 -138 35 -138 4 0 13 14 19 30 6 17 21 34 35 40 21 7 26 16 26 42 0 36 -12 61 -26 57 -12 -4 -84 64 -84 79 0 15 -13 15 -28 0z m83 -121 c0 -15 -4 -28 -9 -29 -11 -3 -27 48 -18 57 12 12 27 -3 27 -28z"/>
<path d="M3280 1330 c0 -5 5 -10 10 -10 6 0 10 5 10 10 0 6 -4 10 -10 10 -5 0 -10 -4 -10 -10z"/>
<path d="M3922 1322 c-10 -7 -9 -15 4 -40 16 -32 28 -40 38 -23 5 7 -20 71 -27 71 -1 0 -8 -4 -15 -8z"/>
<path d="M4060 1310 c0 -5 5 -10 10 -10 6 0 10 5 10 10 0 6 -4 10 -10 10 -5 0 -10 -4 -10 -10z"/>
<path d="M3750 1285 c-7 -9 -10 -18 -7 -22 8 -7 37 15 37 28 0 14 -16 11 -30 -6z"/>
<path d="M3300 1230 c0 -5 5 -10 10 -10 6 0 10 5 10 10 0 6 -4 10 -10 10 -5 0 -10 -4 -10 -10z"/>
<path d="M4000 1230 c0 -5 5 -10 10 -10 6 0 10 5 10 10 0 6 -4 10 -10 10 -5 0 -10 -4 -10 -10z"/>
<path d="M3791 1201 c-16 -10 -6 -31 15 -31 8 0 14 9 14 20 0 22 -7 25 -29 11z"/>
<path d="M3865 1200 c-4 -6 -1 -17 5 -25 9 -11 6 -19 -15 -39 -28 -26 -26 -46 5 -46 38 0 65 111 28 118 -9 2 -19 -2 -23 -8z"/>
<path d="M3240 1180 c0 -11 5 -20 10 -20 6 0 10 9 10 20 0 11 -4 20 -10 20 -5 0 -10 -9 -10 -20z"/>
<path d="M3960 1170 c0 -5 5 -10 10 -10 6 0 10 5 10 10 0 6 -4 10 -10 10 -5 0 -10 -4 -10 -10z"/>
<path d="M3700 1110 c0 -5 5 -10 10 -10 6 0 10 5 10 10 0 6 -4 10 -10 10 -5 0 -10 -4 -10 -10z"/>
<path d="M5920 1090 c0 -5 5 -10 10 -10 6 0 10 5 10 10 0 6 -4 10 -10 10 -5 0 -10 -4 -10 -10z"/>
<path d="M6600 1090 c0 -5 5 -10 10 -10 6 0 10 5 10 10 0 6 -4 10 -10 10 -5 0 -10 -4 -10 -10z"/>
<path d="M3240 1070 c0 -5 5 -10 10 -10 6 0 10 5 10 10 0 6 -4 10 -10 10 -5 0 -10 -4 -10 -10z"/>
<path d="M6454 1035 c-11 -49 -1 -71 29 -60 20 8 28 52 11 66 -8 6 -14 18 -14 25 0 31 -16 11 -26 -31z"/>
<path d="M5770 1050 c0 -5 7 -10 15 -10 8 0 15 5 15 10 0 6 -7 10 -15 10 -8 0 -15 -4 -15 -10z"/>
<path d="M6600 1054 c0 -5 19 -45 25 -52 1 -1 10 0 19 4 24 9 19 33 -10 44 -29 12 -34 12 -34 4z"/>
<path d="M5941 1026 c-9 -10 -9 -16 -1 -21 12 -7 40 11 40 26 0 14 -26 10 -39 -5z"/>
<path d="M5900 1010 c0 -5 5 -10 10 -10 6 0 10 5 10 10 0 6 -4 10 -10 10 -5 0 -10 -4 -10 -10z"/>
<path d="M6620 950 c0 -5 5 -10 10 -10 6 0 10 5 10 10 0 6 -4 10 -10 10 -5 0 -10 -4 -10 -10z"/>
<path d="M6120 910 c0 -5 5 -10 10 -10 6 0 10 5 10 10 0 6 -4 10 -10 10 -5 0 -10 -4 -10 -10z"/>
<path d="M6500 910 c0 -5 7 -10 15 -10 8 0 15 5 15 10 0 6 -7 10 -15 10 -8 0 -15 -4 -15 -10z"/>
<path d="M6040 880 c-11 -7 -12 -12 -3 -21 14 -14 46 -4 41 13 -6 16 -20 19 -38 8z"/>
<path d="M6195 870 c-3 -5 3 -10 14 -10 12 0 21 5 21 10 0 6 -6 10 -14 10 -8 0 -18 -4 -21 -10z"/>
<path d="M6070 825 c-7 -9 -10 -18 -7 -22 8 -7 37 15 37 28 0 14 -16 11 -30 -6z"/>
<path d="M6273 807 c4 -10 7 -25 7 -33 0 -8 5 -14 10 -14 16 0 11 36 -7 51 -15 12 -16 12 -10 -4z"/>
<path d="M6595 790 c3 -5 10 -10 16 -10 5 0 9 5 9 10 0 6 -7 10 -16 10 -8 0 -12 -4 -9 -10z"/>
<path d="M6100 770 c0 -5 5 -10 10 -10 6 0 10 5 10 10 0 6 -4 10 -10 10 -5 0 -10 -4 -10 -10z"/>
<path d="M6140 730 c0 -5 5 -10 10 -10 6 0 10 5 10 10 0 6 -4 10 -10 10 -5 0 -10 -4 -10 -10z"/>
<path d="M3060 670 c0 -5 5 -10 10 -10 6 0 10 5 10 10 0 6 -4 10 -10 10 -5 0 -10 -4 -10 -10z"/>
<path d="M6232 658 c2 -12 10 -23 18 -23 22 0 19 39 -3 43 -15 3 -18 -1 -15 -20z"/>
<path d="M6320 670 c0 -5 5 -10 10 -10 6 0 10 5 10 10 0 6 -4 10 -10 10 -5 0 -10 -4 -10 -10z"/>
<path d="M2815 610 c-7 -12 2 -30 16 -30 5 0 9 9 9 20 0 21 -15 27 -25 10z"/>
<path d="M6320 550 c0 -5 5 -10 10 -10 6 0 10 5 10 10 0 6 -4 10 -10 10 -5 0 -10 -4 -10 -10z"/>
<path d="M2965 490 c-3 -5 3 -10 14 -10 12 0 21 5 21 10 0 6 -6 10 -14 10 -8 0 -18 -4 -21 -10z"/>
<path d="M3200 490 c0 -5 5 -10 10 -10 6 0 10 5 10 10 0 6 -4 10 -10 10 -5 0 -10 -4 -10 -10z"/>
<path d="M6340 450 c0 -5 5 -10 10 -10 6 0 10 5 10 10 0 6 -4 10 -10 10 -5 0 -10 -4 -10 -10z"/>
<path d="M6752 341 c16 -25 31 -27 26 -4 -2 10 -11 19 -21 21 -16 3 -17 1 -5 -17z"/>
<path d="M6355 330 c-3 -5 1 -10 9 -10 9 0 16 5 16 10 0 6 -4 10 -9 10 -6 0 -13 -4 -16 -10z"/>
<path d="M6780 290 c0 -5 5 -10 10 -10 6 0 10 5 10 10 0 6 -4 10 -10 10 -5 0 -10 -4 -10 -10z"/>
<path d="M6640 170 c0 -6 33 -10 80 -10 47 0 80 4 80 10 0 6 -33 10 -80 10 -47 0 -80 -4 -80 -10z"/>
</g>
</g>
  <g id="id3:id3" transform="matrix(1.25,0,0,1.25,0.0,0.0)"><g transform="translate(0.000000,425.600000) scale(0.040000,-0.040000)" fill="#ff3fff" stroke="none">
<path d="M3740 6310 c0 -5 5 -10 10 -10 6 0 10 5 10 10 0 6 -4 10 -10 10 -5 0 -10 -4 -10 -10z"/>
<path d="M3600 6250 c0 -5 5 -10 10 -10 6 0 10 5 10 10 0 6 -4 10 -10 10 -5 0 -10 -4 -10 -10z"/>
<path d="M4010 6210 c0 -5 23 -10 50 -10 28 0 50 5 50 10 0 6 -22 10 -50 10 -27 0 -50 -4 -50 -10z"/>
<path d="M3960 6190 c0 -5 5 -10 10 -10 6 0 10 5 10 10 0 6 -4 10 -10 10 -5 0 -10 -4 -10 -10z"/>
<path d="M3980 6150 c0 -5 5 -10 10 -10 6 0 10 5 10 10 0 6 -4 10 -10 10 -5 0 -10 -4 -10 -10z"/>
<path d="M4300 6100 c0 -11 7 -20 15 -20 17 0 18 2 9 24 -9 23 -24 20 -24 -4z"/>
<path d="M3572 5948 c-18 -18 -15 -28 8 -28 13 0 20 7 20 20 0 23 -10 26 -28 8z"/>
<path d="M3706 5901 c-4 -7 -5 -15 -2 -18 9 -9 19 4 14 18 -4 11 -6 11 -12 0z"/>
<path d="M3412 5808 c-13 -13 -16 -38 -6 -38 8 0 33 32 34 43 0 11 -15 8 -28 -5z"/>
<path d="M3680 5810 c0 -5 5 -10 10 -10 6 0 10 5 10 10 0 6 -4 10 -10 10 -5 0 -10 -4 -10 -10z"/>
<path d="M3620 5770 c0 -5 5 -10 10 -10 6 0 10 5 10 10 0 6 -4 10 -10 10 -5 0 -10 -4 -10 -10z"/>
<path d="M3480 5730 c0 -5 5 -10 10 -10 6 0 10 5 10 10 0 6 -4 10 -10 10 -5 0 -10 -4 -10 -10z"/>
<path d="M3720 5730 c0 -5 5 -10 10 -10 6 0 10 5 10 10 0 6 -4 10 -10 10 -5 0 -10 -4 -10 -10z"/>
<path d="M4360 5710 c0 -5 5 -10 10 -10 6 0 10 5 10 10 0 6 -4 10 -10 10 -5 0 -10 -4 -10 -10z"/>
<path d="M3620 5670 c0 -5 5 -10 10 -10 6 0 10 5 10 10 0 6 -4 10 -10 10 -5 0 -10 -4 -10 -10z"/>
<path d="M4380 5570 c0 -5 5 -10 10 -10 6 0 10 5 10 10 0 6 -4 10 -10 10 -5 0 -10 -4 -10 -10z"/>
<path d="M4400 5530 c0 -5 5 -10 10 -10 6 0 10 5 10 10 0 6 -4 10 -10 10 -5 0 -10 -4 -10 -10z"/>
<path d="M4400 5390 c0 -5 5 -10 10 -10 6 0 10 5 10 10 0 6 -4 10 -10 10 -5 0 -10 -4 -10 -10z"/>
<path d="M4080 5255 c0 -8 5 -15 10 -15 6 0 10 7 10 15 0 8 -4 15 -10 15 -5 0 -10 -7 -10 -15z"/>
<path d="M4740 5240 c0 -11 5 -20 10 -20 6 0 10 9 10 20 0 11 -4 20 -10 20 -5 0 -10 -9 -10 -20z"/>
<path d="M3920 5180 c0 -22 5 -40 10 -40 6 0 10 18 10 40 0 22 -4 40 -10 40 -5 0 -10 -18 -10 -40z"/>
<path d="M3580 5100 c0 -22 5 -40 10 -40 6 0 10 18 10 40 0 22 -4 40 -10 40 -5 0 -10 -18 -10 -40z"/>
<path d="M4612 5068 c-18 -18 -15 -28 8 -28 13 0 20 7 20 20 0 23 -10 26 -28 8z"/>
<path d="M3940 5015 c0 -8 5 -15 10 -15 6 0 10 7 10 15 0 8 -4 15 -10 15 -5 0 -10 -7 -10 -15z"/>
<path d="M3680 4950 c0 -5 5 -10 10 -10 6 0 10 5 10 10 0 6 -4 10 -10 10 -5 0 -10 -4 -10 -10z"/>
<path d="M3540 4930 c0 -5 5 -10 10 -10 6 0 10 5 10 10 0 6 -4 10 -10 10 -5 0 -10 -4 -10 -10z"/>
<path d="M4560 4900 c0 -16 5 -30 10 -30 6 0 10 14 10 30 0 17 -4 30 -10 30 -5 0 -10 -13 -10 -30z"/>
<path d="M3640 4872 c0 -14 59 -66 67 -59 3 4 -6 21 -22 37 -28 30 -45 38 -45 22z"/>
<path d="M3400 4850 c0 -5 5 -10 10 -10 6 0 10 5 10 10 0 6 -4 10 -10 10 -5 0 -10 -4 -10 -10z"/>
<path d="M4540 4825 c0 -8 5 -15 10 -15 6 0 10 7 10 15 0 8 -4 15 -10 15 -5 0 -10 -7 -10 -15z"/>
<path d="M3665 4720 c-10 -11 -22 -20 -27 -20 -5 0 -29 -13 -53 -30 -24 -16 -48 -30 -54 -30 -6 0 -11 -4 -11 -10 0 -5 4 -10 9 -10 6 0 13 5 16 10 3 6 13 10 21 10 19 0 134 78 134 90 0 16 -16 11 -35 -10z"/>
<path d="M3380 4613 c0 -5 14 -22 30 -38 17 -16 30 -39 30 -52 0 -14 6 -23 15 -23 24 0 18 25 -17 71 -32 41 -58 60 -58 42z"/>
<path d="M3480 4610 c0 -5 5 -10 10 -10 6 0 10 5 10 10 0 6 -4 10 -10 10 -5 0 -10 -4 -10 -10z"/>
<path d="M3686 4585 c-23 -17 -13 -34 11 -19 19 12 29 34 16 34 -4 0 -17 -7 -27 -15z"/>
<path d="M2120 4155 c0 -8 5 -15 10 -15 6 0 10 7 10 15 0 8 -4 15 -10 15 -5 0 -10 -7 -10 -15z"/>
<path d="M3122 4088 c7 -19 38 -22 38 -4 0 10 -9 16 -21 16 -12 0 -19 -5 -17 -12z"/>
<path d="M1840 3830 c0 -5 5 -10 10 -10 6 0 10 5 10 10 0 6 -4 10 -10 10 -5 0 -10 -4 -10 -10z"/>
<path d="M5323 3765 c-3 -9 -3 -19 1 -22 7 -7 36 16 36 28 0 15 -30 10 -37 -6z"/>
<path d="M2550 3450 c0 -5 5 -10 10 -10 6 0 10 5 10 10 0 6 -4 10 -10 10 -5 0 -10 -4 -10 -10z"/>
<path d="M2526 3324 c-8 -20 -8 -232 0 -261 4 -13 13 -23 21 -23 11 0 12 8 6 38 -10 46 -10 186 -1 230 6 24 4 32 -6 32 -8 0 -17 -7 -20 -16z"/>
<path d="M3640 3233 c0 -11 50 -33 72 -33 29 0 21 15 -15 28 -38 14 -57 15 -57 5z"/>
<path d="M3780 3190 c0 -5 5 -10 10 -10 6 0 10 5 10 10 0 6 -4 10 -10 10 -5 0 -10 -4 -10 -10z"/>
<path d="M3920 3070 c0 -5 7 -10 15 -10 8 0 15 5 15 10 0 6 -7 10 -15 10 -8 0 -15 -4 -15 -10z"/>
<path d="M4300 2870 c0 -5 5 -10 10 -10 6 0 10 5 10 10 0 6 -4 10 -10 10 -5 0 -10 -4 -10 -10z"/>
<path d="M4100 2760 c0 -11 5 -20 10 -20 6 0 10 9 10 20 0 11 -4 20 -10 20 -5 0 -10 -9 -10 -20z"/>
<path d="M3940 2740 c0 -11 5 -20 10 -20 6 0 10 9 10 20 0 11 -4 20 -10 20 -5 0 -10 -9 -10 -20z"/>
<path d="M4014 2729 c-2 -5 -11 -6 -19 -2 -9 3 -15 -1 -15 -10 0 -15 51 -19 65 -5 4 4 13 4 21 1 8 -3 14 1 14 9 0 16 -57 21 -66 7z"/>
<path d="M2526 2563 c-12 -12 -5 -23 14 -23 11 0 20 4 20 9 0 11 -26 22 -34 14z"/>
<path d="M2780 2430 c0 -5 5 -10 10 -10 6 0 10 5 10 10 0 6 -4 10 -10 10 -5 0 -10 -4 -10 -10z"/>
<path d="M2760 2320 c0 -11 5 -20 10 -20 6 0 10 9 10 20 0 11 -4 20 -10 20 -5 0 -10 -9 -10 -20z"/>
<path d="M3500 2219 c0 -25 33 -22 38 4 2 12 -3 17 -17 17 -15 0 -21 -6 -21 -21z"/>
<path d="M4920 2090 c0 -5 5 -10 10 -10 6 0 10 5 10 10 0 6 -4 10 -10 10 -5 0 -10 -4 -10 -10z"/>
<path d="M3220 1930 c0 -5 5 -10 10 -10 6 0 10 5 10 10 0 6 -4 10 -10 10 -5 0 -10 -4 -10 -10z"/>
<path d="M4380 1910 c0 -5 5 -10 10 -10 6 0 10 5 10 10 0 6 -4 10 -10 10 -5 0 -10 -4 -10 -10z"/>
<path d="M3200 1855 c0 -25 5 -45 10 -45 6 0 10 20 10 45 0 25 -4 45 -10 45 -5 0 -10 -20 -10 -45z"/>
<path d="M4143 1863 c-13 -2 -23 -9 -23 -14 0 -16 29 -22 45 -9 16 13 20 31 8 29 -5 -1 -18 -4 -30 -6z"/>
<path d="M5780 1790 c0 -5 14 -10 30 -10 17 0 30 5 30 10 0 6 -13 10 -30 10 -16 0 -30 -4 -30 -10z"/>
<path d="M3940 1770 c0 -5 5 -10 10 -10 6 0 10 5 10 10 0 6 -4 10 -10 10 -5 0 -10 -4 -10 -10z"/>
<path d="M3220 1755 c0 -8 5 -15 10 -15 6 0 10 7 10 15 0 8 -4 15 -10 15 -5 0 -10 -7 -10 -15z"/>
<path d="M6120 1680 c0 -13 7 -20 20 -20 23 0 26 10 8 28 -18 18 -28 15 -28 -8z"/>
<path d="M4020 1650 c0 -5 5 -10 10 -10 6 0 10 5 10 10 0 6 -4 10 -10 10 -5 0 -10 -4 -10 -10z"/>
<path d="M3980 1630 c0 -5 5 -10 10 -10 6 0 10 5 10 10 0 6 -4 10 -10 10 -5 0 -10 -4 -10 -10z"/>
<path d="M3740 1410 c0 -5 5 -10 10 -10 6 0 10 5 10 10 0 6 -4 10 -10 10 -5 0 -10 -4 -10 -10z"/>
<path d="M4080 1330 c0 -5 5 -10 10 -10 6 0 10 5 10 10 0 6 -4 10 -10 10 -5 0 -10 -4 -10 -10z"/>
<path d="M5400 1331 c0 -5 7 -12 16 -15 22 -9 24 -8 24 9 0 8 -9 15 -20 15 -11 0 -20 -4 -20 -9z"/>
<path d="M6500 1325 c0 -9 5 -15 11 -13 6 2 11 8 11 13 0 5 -5 11 -11 13 -6 2 -11 -4 -11 -13z"/>
<path d="M4140 1310 c0 -5 5 -10 10 -10 6 0 10 5 10 10 0 6 -4 10 -10 10 -5 0 -10 -4 -10 -10z"/>
<path d="M6640 1230 c0 -5 5 -10 10 -10 6 0 10 5 10 10 0 6 -4 10 -10 10 -5 0 -10 -4 -10 -10z"/>
<path d="M3232 1208 c-14 -14 -16 -48 -3 -48 5 0 11 8 15 18 3 9 9 23 12 30 7 15 -8 16 -24 0z"/>
<path d="M3740 1110 c0 -5 5 -10 10 -10 6 0 10 5 10 10 0 6 -4 10 -10 10 -5 0 -10 -4 -10 -10z"/>
<path d="M3211 1054 c-6 -15 -9 -29 -7 -32 10 -9 36 20 36 39 0 27 -15 23 -29 -7z"/>
<path d="M6600 1070 c0 -5 5 -10 10 -10 6 0 10 5 10 10 0 6 -4 10 -10 10 -5 0 -10 -4 -10 -10z"/>
<path d="M3700 1050 c0 -5 5 -10 10 -10 6 0 10 5 10 10 0 6 -4 10 -10 10 -5 0 -10 -4 -10 -10z"/>
<path d="M5917 1034 c-8 -8 1 -24 14 -24 5 0 9 7 9 15 0 15 -12 20 -23 9z"/>
<path d="M5960 1010 c0 -5 5 -10 10 -10 6 0 10 5 10 10 0 6 -4 10 -10 10 -5 0 -10 -4 -10 -10z"/>
<path d="M3080 945 c0 -8 5 -15 10 -15 6 0 10 7 10 15 0 8 -4 15 -10 15 -5 0 -10 -7 -10 -15z"/>
<path d="M5940 931 c0 -11 26 -22 34 -14 12 12 5 23 -14 23 -11 0 -20 -4 -20 -9z"/>
<path d="M5960 890 c0 -5 5 -10 10 -10 6 0 10 5 10 10 0 6 -4 10 -10 10 -5 0 -10 -4 -10 -10z"/>
<path d="M6240 851 c0 -13 29 -35 37 -28 7 8 -15 37 -28 37 -5 0 -9 -4 -9 -9z"/>
<path d="M6020 830 c0 -5 5 -10 10 -10 6 0 10 5 10 10 0 6 -4 10 -10 10 -5 0 -10 -4 -10 -10z"/>
<path d="M6580 790 c0 -5 5 -10 10 -10 6 0 10 5 10 10 0 6 -4 10 -10 10 -5 0 -10 -4 -10 -10z"/>
<path d="M6120 770 c0 -5 5 -10 10 -10 6 0 10 5 10 10 0 6 -4 10 -10 10 -5 0 -10 -4 -10 -10z"/>
<path d="M2860 735 c-13 -14 -20 -28 -17 -32 8 -7 57 35 57 49 0 15 -16 8 -40 -17z"/>
<path d="M3540 675 c0 -8 5 -15 10 -15 6 0 10 7 10 15 0 8 -4 15 -10 15 -5 0 -10 -7 -10 -15z"/>
<path d="M6320 656 c0 -9 5 -16 10 -16 6 0 10 4 10 9 0 6 -4 13 -10 16 -5 3 -10 -1 -10 -9z"/>
<path d="M2960 630 c0 -5 5 -10 10 -10 6 0 10 5 10 10 0 6 -4 10 -10 10 -5 0 -10 -4 -10 -10z"/>
<path d="M2980 470 c0 -5 5 -10 10 -10 6 0 10 5 10 10 0 6 -4 10 -10 10 -5 0 -10 -4 -10 -10z"/>
<path d="M6700 326 c0 -14 29 -31 38 -21 6 6 -18 35 -29 35 -5 0 -9 -6 -9 -14z"/>
<path d="M6360 310 c0 -5 5 -10 10 -10 6 0 10 5 10 10 0 6 -4 10 -10 10 -5 0 -10 -4 -10 -10z"/>
<path d="M6780 310 c0 -5 5 -10 10 -10 6 0 10 5 10 10 0 6 -4 10 -10 10 -5 0 -10 -4 -10 -10z"/>
<path d="M6640 150 c0 -6 30 -10 70 -10 40 0 70 4 70 10 0 6 -30 10 -70 10 -40 0 -70 -4 -70 -10z"/>
</g>
</g>
</svg>
