<svg xmlns="http://www.w3.org/2000/svg" version="1.0" width="1804.000000pt" height="1804.000000pt" viewBox="0 0 1804.000000 1804.000000" preserveAspectRatio="xMidYMid meet">
  <g transform="translate(0.000000,1804.000000) scale(0.100000,-0.100000)" stroke="none">
    <path d="M 0 0 H 18040.0 V 18040.0 H 0 Z" fill="#ffffff" id="background"/>
    <path stroke="none" d="M8560 18004 c-408 -24 -690 -54 -990 -105 -30 -5 -71 -12 -90 -14 -19 -3 -57 -10 -85 -15 -27 -6 -97 -19 -155 -30 -58 -11 -123 -25 -145 -30 -101 -23 -223 -52 -255 -60 -136 -34 -208 -53 -230 -60 -14 -4 -59 -17 -100 -29 -93 -26 -499 -158 -560 -182 -25 -9 -72 -27 -105 -39 -74 -27 -85 -31 -160 -63 -33 -14 -96 -40 -140 -57 -44 -17 -113 -47 -153 -66 -41 -19 -76 -34 -78 -34 -7 0 -225 -104 -349 -167 -345 -174 -624 -338 -960 -564 -321 -216 -584 -414 -825 -622 -228 -197 -262 -229 -520 -487 -231 -231 -287 -289 -400 -420 -36 -41 -67 -77 -70 -80 -36 -36 -251 -304 -360 -450 -51 -69 -105 -141 -120 -160 -104 -137 -376 -563 -517 -810 -121 -212 -373 -708 -373 -734 0 -2 -15 -37 -34 -78 -19 -40 -53 -120 -76 -178 -23 -58 -48 -118 -55 -135 -36 -83 -98 -255 -170 -470 -111 -331 -159 -506 -255 -920 -12 -49 -46 -228 -61 -310 -5 -33 -14 -82 -19 -110 -5 -27 -14 -79 -19 -115 -6 -36 -13 -81 -15 -100 -48 -310 -95 -942 -95 -1280 0 -133 21 -592 34 -745 30 -344 63 -588 116 -870 24 -128 50 -264 59 -302 6 -24 15 -64 21 -90 5 -27 14 -64 19 -83 5 -19 19 -75 30 -125 12 -49 25 -101 30 -115 4 -14 13 -45 20 -70 7 -25 16 -56 20 -70 4 -14 13 -43 19 -65 34 -124 119 -385 171 -525 90 -243 115 -308 147 -380 8 -19 19 -44 23 -55 4 -11 22 -51 39 -88 17 -37 31 -70 31 -73 0 -14 219 -461 301 -613 65 -122 161 -290 209 -366 20 -33 68 -109 105 -170 117 -188 199 -309 389 -565 87 -119 301 -389 353 -445 10 -12 43 -50 73 -85 227 -268 617 -657 920 -916 336 -286 757 -598 1075 -794 152 -94 293 -178 345 -207 30 -16 71 -39 91 -50 69 -40 236 -127 354 -186 112 -55 168 -82 303 -143 135 -62 163 -74 167 -74 2 0 33 -13 67 -29 35 -15 81 -34 103 -42 22 -7 44 -17 49 -21 6 -4 16 -8 23 -8 7 0 32 -9 56 -19 52 -23 118 -48 177 -67 25 -8 54 -19 65 -24 42 -19 396 -131 535 -170 41 -11 91 -25 110 -30 69 -20 256 -68 290 -75 19 -4 53 -11 75 -16 22 -5 63 -14 90 -19 28 -5 70 -14 95 -20 557 -124 1505 -208 2040 -181 534 28 891 63 1185 115 17 3 62 10 100 17 155 25 452 87 620 130 66 17 136 34 155 39 170 42 685 203 795 250 11 4 70 27 130 50 61 23 129 51 152 61 24 11 45 19 48 19 2 0 34 13 70 30 36 16 68 30 70 30 2 0 35 14 72 31 38 16 95 42 128 57 72 33 468 232 534 269 25 14 71 40 101 56 30 17 84 48 119 69 34 21 65 38 68 38 2 0 24 14 48 30 24 17 46 30 48 30 8 0 316 201 437 285 106 73 428 311 440 325 3 3 25 21 50 40 25 19 47 37 50 40 3 3 30 25 60 50 30 25 57 47 60 50 3 3 34 30 70 60 36 30 67 57 70 60 3 3 48 43 100 89 121 108 552 539 650 651 41 47 77 87 80 90 23 22 214 250 260 310 19 25 37 47 40 50 12 10 276 369 347 471 79 114 263 397 263 405 0 3 14 25 30 49 17 24 30 46 30 48 0 3 17 34 38 68 82 135 174 308 286 534 103 208 157 323 188 400 11 27 30 73 44 103 13 29 24 55 24 57 0 3 8 24 19 48 10 23 38 92 61 152 23 61 46 119 50 130 8 19 66 185 95 270 7 22 27 87 45 145 17 58 35 116 40 130 5 14 17 52 26 85 9 33 20 76 26 95 5 19 13 51 18 70 4 19 24 96 42 170 19 74 40 162 47 195 7 33 17 78 22 100 15 68 47 237 59 310 6 39 15 93 20 120 9 49 13 73 29 205 114 889 114 1559 0 2415 -25 186 -41 290 -80 493 -21 108 -34 173 -59 282 -4 19 -13 58 -19 85 -6 28 -25 102 -42 165 -17 63 -39 147 -49 185 -10 39 -28 102 -40 140 -12 39 -25 84 -30 100 -10 38 -103 315 -125 375 -9 25 -26 70 -37 100 -23 65 -32 86 -46 120 -5 14 -20 52 -33 85 -12 33 -33 83 -45 110 -12 28 -31 73 -42 100 -11 28 -41 94 -66 148 -25 55 -46 101 -46 103 0 19 -242 485 -353 679 -114 200 -336 547 -460 720 -144 199 -415 548 -503 645 -17 19 -64 73 -105 120 -511 588 -1260 1224 -1924 1635 -60 37 -137 84 -170 105 -77 48 -173 104 -255 148 -36 19 -90 49 -120 67 -92 52 -589 295 -605 295 -2 0 -32 13 -67 29 -132 60 -262 113 -477 192 -219 82 -516 177 -716 231 -22 6 -51 14 -65 18 -14 5 -65 18 -115 30 -49 11 -106 25 -125 30 -71 19 -168 40 -295 65 -71 13 -152 29 -180 34 -27 6 -66 13 -85 16 -19 3 -60 11 -90 16 -264 46 -592 80 -1010 103 -312 18 -571 18 -880 0z" fill="#040404" id="040404-000001"/>
    <path stroke="none" d="M8916 17390 c192 -18 286 -45 385 -111 97 -65 142 -141 142 -241 0 -128 -78 -266 -197 -348 -169 -116 -391 -176 -731 -200 -88 -6 -198 -15 -245 -20 -197 -22 -230 -23 -230 -8 0 9 24 18 73 27 39 7 78 18 85 24 9 7 11 32 7 96 -9 136 -32 372 -61 611 -11 92 -12 93 -117 89 -78 -3 -92 -2 -95 12 -2 13 12 17 90 22 51 4 147 12 213 18 439 40 522 44 681 29z" fill="#ffffff" id="ffffff-000002"/>
    <path stroke="none" d="M7567 17198 c63 -29 78 -52 78 -112 -1 -42 -8 -62 -39 -109 -29 -44 -94 -108 -145 -144 -2 -1 2 -10 10 -19 15 -19 334 -276 389 -314 19 -13 41 -30 48 -37 7 -7 26 -20 42 -30 39 -23 38 -31 -5 -39 -40 -7 -92 10 -190 61 -33 18 -108 57 -167 89 -59 31 -122 64 -140 74 -171 95 -190 104 -226 99 -52 -7 -113 -24 -123 -34 -9 -9 -1 -59 20 -133 5 -19 18 -70 29 -112 11 -42 23 -82 27 -89 6 -8 26 -10 69 -5 109 12 110 12 114 -6 3 -14 -3 -18 -23 -18 -14 0 -45 -4 -68 -9 -23 -5 -69 -15 -102 -21 -64 -13 -158 -39 -270 -75 -38 -13 -101 -31 -140 -40 -79 -19 -200 -53 -230 -65 -201 -81 -226 -89 -232 -74 -3 8 -4 16 -2 17 2 2 32 16 67 32 40 18 62 35 62 45 0 10 -61 76 -135 149 -154 150 -129 142 -265 83 -25 -10 -65 -28 -89 -38 -25 -10 -68 -31 -95 -45 l-51 -26 -3 -59 c-5 -75 18 -280 33 -300 10 -14 17 -14 70 4 33 11 63 18 68 15 12 -7 8 -33 -6 -33 -31 0 -212 -79 -324 -141 -60 -33 -63 -34 -63 -14 0 8 21 28 48 46 66 44 72 55 72 122 0 32 4 111 10 175 5 65 14 191 20 282 6 91 15 209 21 263 6 55 8 102 4 105 -3 3 -33 -1 -65 -10 -56 -15 -79 -11 -66 11 3 5 29 16 58 25 29 9 62 21 73 25 11 5 36 14 55 21 41 14 62 22 110 43 108 47 209 84 214 79 15 -14 1 -29 -49 -52 -30 -14 -55 -30 -55 -36 0 -9 353 -356 515 -505 149 -137 128 -128 235 -105 122 26 222 67 215 89 -4 11 -52 203 -75 297 -5 19 -13 51 -18 70 -6 19 -18 62 -27 95 -9 33 -27 98 -42 145 -14 47 -27 95 -30 108 -5 22 -35 46 -45 36 -3 -2 -30 -9 -59 -14 -30 -6 -66 -13 -81 -16 -23 -5 -28 -3 -28 14 0 14 8 21 28 25 15 3 43 10 62 15 64 18 304 79 365 92 33 7 74 16 90 20 39 10 187 30 245 33 85 4 165 -6 207 -25z" fill="#ffffff" id="ffffff-000003"/>
    <path stroke="none" d="M10840 17209 c139 -24 264 -60 414 -117 l69 -26 16 24 c32 48 58 73 69 66 19 -12 14 -39 -19 -107 -18 -35 -35 -73 -39 -84 -4 -11 -17 -44 -29 -74 -12 -29 -21 -59 -21 -65 0 -22 -22 -36 -41 -26 -15 8 -16 16 -8 42 19 69 13 87 -55 152 -91 88 -210 143 -371 172 -120 21 -213 16 -310 -18 -97 -33 -175 -100 -214 -184 -33 -69 -28 -186 12 -267 119 -241 425 -396 783 -397 55 0 104 -3 107 -7 4 -3 -3 -17 -15 -30 -18 -20 -31 -23 -87 -23 -117 0 -302 30 -497 79 -245 62 -436 195 -514 357 -26 53 -30 74 -30 144 0 71 4 91 30 145 69 144 246 241 470 259 63 4 214 -3 280 -15z" fill="#ffffff" id="ffffff-000004"/>
    <path stroke="none" d="M12090 16826 c150 -37 332 -114 445 -189 90 -60 196 -172 236 -252 31 -63 34 -75 34 -160 0 -82 -3 -98 -30 -149 -32 -63 -100 -136 -146 -161 -16 -8 -42 -22 -58 -30 -60 -32 -145 -47 -262 -47 -137 -1 -261 23 -386 73 -13 5 -33 13 -45 18 -123 48 -282 144 -350 213 -47 46 -95 114 -117 163 -7 17 -17 38 -22 47 -13 25 -11 182 2 215 33 81 46 101 88 143 63 62 185 120 286 134 54 8 269 -4 325 -18z" fill="#ffffff" id="ffffff-000005"/>
    <path stroke="none" d="M5320 16569 c0 -5 -22 -24 -49 -41 -42 -28 -51 -40 -58 -73 -14 -77 0 -623 23 -882 5 -48 3 -73 -4 -73 -5 0 -40 18 -77 41 -37 22 -82 49 -99 59 -17 10 -105 60 -196 112 -91 52 -186 107 -212 122 -27 14 -68 37 -92 51 -28 16 -47 21 -51 15 -6 -10 2 -124 25 -380 16 -165 31 -319 39 -388 9 -72 7 -73 -83 -19 -66 39 -76 45 -304 175 -200 115 -417 226 -465 238 -22 5 -39 -1 -82 -30 -59 -39 -75 -44 -75 -22 0 7 42 44 93 82 78 58 126 94 217 167 8 7 41 34 73 60 33 26 63 47 68 47 24 0 4 -36 -46 -82 -30 -27 -55 -53 -55 -57 0 -3 53 -40 116 -81 64 -41 190 -123 280 -182 90 -59 165 -104 168 -99 3 4 1 37 -4 72 -4 35 -13 123 -20 194 -10 118 -21 223 -36 343 -3 23 -10 42 -15 42 -5 0 -41 -16 -80 -36 -50 -25 -75 -32 -82 -25 -6 6 -9 13 -6 15 4 5 148 93 222 137 26 16 81 52 122 79 74 50 109 62 103 36 -2 -7 -23 -29 -47 -47 -55 -42 -58 -52 -24 -70 42 -22 153 -89 200 -120 23 -16 44 -29 48 -29 3 0 33 -18 65 -40 32 -22 62 -40 65 -40 3 0 36 -20 73 -45 81 -54 92 -56 87 -12 -2 17 -9 82 -15 142 -22 216 -47 404 -62 453 -11 37 -17 37 -95 1 -43 -19 -93 -25 -93 -11 0 4 71 42 158 84 86 43 181 91 211 107 52 29 71 31 71 10z" fill="#ffffff" id="ffffff-000006"/>
    <path stroke="none" d="M13210 16300 c32 -22 62 -40 65 -40 4 0 25 -13 48 -28 23 -16 99 -61 170 -101 70 -40 127 -76 127 -81 0 -21 -21 -16 -94 21 -43 22 -84 38 -91 35 -13 -5 -135 -178 -135 -191 0 -4 -13 -25 -29 -48 -37 -54 -103 -165 -117 -197 -29 -64 -34 -86 -34 -156 0 -119 47 -193 174 -275 163 -107 293 -104 409 9 45 43 229 281 306 395 18 26 30 54 28 61 -3 8 -35 38 -71 67 -35 30 -65 62 -65 72 -1 9 2 17 7 17 4 0 63 -44 132 -98 69 -53 160 -122 202 -152 74 -52 93 -79 52 -72 -10 2 -30 12 -44 22 -32 22 -62 31 -75 22 -14 -9 -157 -187 -228 -283 -136 -185 -278 -249 -457 -205 -69 17 -137 44 -172 68 -14 10 -29 18 -33 18 -19 0 -139 93 -200 154 -110 111 -157 234 -134 345 12 58 40 128 70 171 9 14 26 42 38 63 11 20 30 53 41 72 54 94 65 115 98 179 l36 69 -21 16 c-12 9 -37 29 -57 44 -20 15 -36 32 -36 37 0 20 33 9 90 -30z" fill="#ffffff" id="ffffff-000007"/>
    <path stroke="none" d="M9600 15831 c279 -30 453 -55 670 -96 183 -35 325 -67 460 -104 41 -11 86 -23 100 -26 96 -26 378 -116 471 -150 161 -61 207 -79 234 -90 17 -8 54 -23 84 -35 30 -11 74 -30 98 -41 24 -10 64 -28 91 -40 156 -69 391 -190 622 -321 140 -79 475 -300 620 -408 138 -103 327 -256 450 -364 117 -102 432 -411 531 -521 144 -159 313 -364 417 -505 30 -41 67 -91 82 -110 80 -105 312 -468 402 -630 14 -25 35 -63 48 -85 29 -52 181 -355 210 -420 12 -27 33 -74 46 -103 13 -29 24 -55 24 -57 0 -2 13 -33 28 -67 16 -35 34 -79 41 -98 7 -19 17 -44 21 -55 59 -145 154 -430 201 -600 6 -22 15 -51 19 -65 7 -21 43 -165 80 -325 17 -71 62 -298 72 -365 47 -310 61 -441 79 -750 13 -219 6 -772 -11 -921 -6 -51 -15 -137 -21 -189 -21 -201 -46 -358 -95 -605 -36 -179 -41 -199 -64 -287 -44 -171 -59 -226 -80 -293 -12 -38 -25 -83 -30 -100 -11 -42 -59 -186 -70 -210 -5 -11 -16 -40 -24 -65 -17 -53 -128 -333 -160 -405 -13 -27 -31 -70 -42 -95 -23 -55 -208 -422 -254 -505 -36 -64 -120 -206 -190 -320 -83 -135 -269 -401 -368 -526 -24 -30 -55 -70 -70 -89 -131 -168 -313 -370 -508 -565 -198 -198 -434 -410 -574 -515 -18 -14 -56 -43 -83 -65 -174 -138 -541 -384 -742 -498 -44 -25 -100 -57 -125 -71 -113 -65 -535 -269 -650 -313 -36 -15 -69 -30 -74 -34 -6 -5 -16 -9 -23 -9 -7 0 -32 -8 -56 -19 -23 -10 -67 -28 -97 -39 -30 -11 -75 -28 -100 -37 -58 -22 -216 -75 -255 -85 -16 -5 -61 -18 -100 -30 -67 -21 -122 -36 -292 -80 -89 -23 -110 -28 -288 -64 -268 -53 -412 -76 -605 -96 -58 -6 -145 -15 -194 -21 -146 -16 -700 -22 -921 -10 -329 19 -601 51 -857 100 -32 6 -82 15 -110 21 -29 5 -71 14 -93 19 -22 5 -62 14 -90 20 -73 15 -286 71 -392 102 -18 5 -48 13 -65 18 -147 40 -561 191 -706 257 -29 13 -54 24 -56 24 -14 0 -444 211 -531 260 -22 13 -60 34 -85 48 -162 90 -525 322 -630 402 -19 15 -69 52 -110 82 -141 104 -346 273 -505 417 -108 98 -418 414 -521 531 -395 450 -736 961 -996 1490 -42 85 -86 178 -98 205 -12 28 -31 68 -41 91 -10 22 -28 65 -39 95 -12 30 -27 68 -35 84 -55 127 -166 446 -216 623 -5 17 -13 47 -18 65 -30 104 -58 214 -79 307 -79 359 -115 576 -154 955 -18 166 -18 1006 0 1175 20 195 45 392 62 485 21 124 73 393 81 425 4 19 18 76 30 125 11 50 25 104 30 120 5 17 23 80 40 140 45 161 169 528 182 542 4 3 7 13 7 20 0 8 9 33 20 55 11 23 20 45 20 50 0 4 14 37 30 73 17 36 30 68 30 70 0 20 227 481 305 620 116 206 238 403 339 548 277 393 467 619 800 953 355 355 586 546 1026 850 238 164 759 452 1015 560 28 12 91 38 140 59 50 21 109 46 132 56 24 11 49 19 56 19 8 0 17 3 20 7 14 13 381 137 542 182 61 17 124 35 140 40 27 8 136 35 250 61 66 16 334 67 415 80 41 6 100 15 130 20 111 18 428 49 550 54 161 7 901 -3 1000 -13z" fill="#ffffff" id="ffffff-000008"/>
    <path stroke="none" d="M14514 15388 c34 -29 63 -55 66 -58 5 -5 102 -87 148 -126 37 -31 44 -51 53 -163 15 -183 28 -332 39 -446 5 -60 14 -197 20 -304 5 -107 13 -198 18 -203 4 -4 26 9 48 30 22 20 73 67 114 104 162 144 290 279 290 304 0 5 -25 42 -55 83 -56 76 -61 86 -47 95 11 6 48 -33 132 -139 36 -44 67 -82 70 -85 3 -3 39 -42 79 -88 52 -58 71 -86 64 -93 -8 -8 -27 4 -67 40 -39 36 -61 49 -73 44 -44 -16 -198 -126 -388 -279 -49 -39 -116 -91 -147 -115 -31 -24 -82 -64 -112 -88 -78 -60 -86 -52 -86 88 0 143 -26 520 -50 729 -6 45 -14 119 -19 165 -20 172 -35 267 -43 267 -13 0 -150 -159 -324 -375 -94 -118 -124 -159 -124 -173 0 -6 25 -38 55 -70 50 -54 69 -92 46 -92 -5 0 -43 36 -86 79 -42 43 -119 112 -170 152 -88 69 -113 99 -82 99 7 0 36 -16 65 -35 l53 -36 28 20 c42 30 506 508 522 538 13 25 12 28 -54 88 -62 58 -84 95 -55 95 6 0 39 -24 72 -52z" fill="#ffffff" id="ffffff-000009"/>
    <path stroke="none" d="M3578 15229 c135 -31 224 -119 271 -268 13 -41 14 -187 2 -227 -5 -16 -15 -49 -22 -74 -41 -138 -154 -307 -308 -461 -201 -200 -382 -297 -557 -299 -129 -1 -257 81 -312 198 -23 48 -28 73 -30 166 -5 133 8 189 71 326 71 153 254 371 407 487 76 57 203 119 291 143 86 22 123 24 187 9z" fill="#ffffff" id="ffffff-000010"/>
    <path stroke="none" d="M15720 14217 c0 -13 -9 -32 -20 -42 -11 -10 -20 -22 -20 -27 0 -5 26 -46 58 -91 181 -253 203 -285 352 -522 35 -55 78 -124 97 -152 18 -29 33 -55 33 -57 0 -2 18 -34 41 -71 39 -64 49 -82 100 -172 27 -48 35 -52 76 -46 26 4 37 1 48 -13 16 -22 3 -44 -26 -44 -35 0 -38 10 122 -315 97 -198 108 -225 90 -225 -10 0 -51 53 -51 65 0 3 -11 22 -24 41 l-24 36 -15 -34 c-9 -18 -22 -53 -31 -78 -24 -72 -67 -193 -76 -215 -24 -59 -60 -157 -60 -165 0 -6 24 -21 53 -34 64 -29 140 -63 187 -83 19 -9 49 -21 65 -28 71 -31 137 -55 152 -55 17 0 16 5 -9 97 -14 50 -9 89 10 68 4 -6 27 -68 51 -140 23 -71 46 -139 51 -150 38 -88 79 -208 75 -216 -11 -16 -25 1 -56 64 -16 33 -39 72 -52 85 -22 23 -103 82 -113 82 -3 0 -18 8 -32 19 -30 20 -155 89 -242 132 -156 79 -187 84 -268 48 -26 -12 -63 -28 -82 -36 -81 -35 -160 -74 -165 -83 -5 -8 2 -35 36 -138 8 -25 8 -37 0 -45 -14 -14 -23 -3 -40 48 -14 44 -47 136 -63 175 -6 14 -14 34 -18 45 -4 11 -34 74 -66 140 -33 65 -60 123 -62 127 -2 4 5 8 15 8 11 0 26 -12 34 -27 7 -16 25 -45 38 -66 22 -35 28 -38 57 -33 18 4 45 13 60 20 16 8 52 24 79 36 175 77 163 65 214 222 24 73 47 142 52 153 13 32 48 174 68 277 9 41 9 68 1 95 -19 70 -17 69 -129 33 -56 -18 -103 -31 -105 -29 -2 2 -6 13 -8 23 -2 15 10 27 50 50 55 32 60 44 41 93 -6 15 -15 37 -19 48 -43 110 -154 331 -181 359 -12 13 -91 -30 -289 -159 -191 -124 -215 -140 -220 -146 -3 -3 -40 -29 -82 -58 -43 -28 -78 -53 -78 -55 0 -2 23 -47 50 -99 48 -92 60 -127 41 -127 -12 0 -23 15 -58 80 -77 141 -129 227 -186 305 -96 132 -132 180 -139 183 -16 7 -7 22 12 22 12 0 42 -28 82 -79 35 -44 68 -80 75 -80 7 -1 28 8 47 19 44 24 352 230 410 273 24 18 75 55 114 82 39 28 71 56 72 64 0 23 -139 201 -231 294 -62 63 -93 87 -111 87 -14 0 -28 -3 -32 -7 -3 -4 -23 -12 -43 -19 -30 -11 -38 -10 -50 2 -18 18 -6 35 40 58 18 8 68 40 112 70 89 61 115 68 115 33z" fill="#ffffff" id="ffffff-000013"/>
    <path stroke="none" d="M2302 13906 c57 -24 81 -85 81 -203 0 -54 -3 -113 -7 -130 -7 -32 -7 -33 25 -33 18 0 60 4 93 9 34 6 97 15 141 21 136 19 298 47 367 63 26 6 51 8 54 4 4 -3 -5 -22 -19 -40 -19 -26 -47 -43 -109 -67 -46 -17 -92 -36 -103 -40 -17 -8 -211 -74 -475 -163 -63 -22 -65 -24 -108 -97 -30 -51 -41 -79 -35 -88 8 -13 96 -70 189 -123 19 -10 49 -28 68 -38 18 -10 37 -16 42 -13 5 4 29 34 54 67 45 61 59 75 73 75 16 0 4 -27 -42 -94 -73 -107 -123 -192 -193 -331 -35 -69 -66 -125 -70 -125 -17 0 -7 50 22 113 17 37 30 73 30 80 0 12 -100 87 -116 87 -3 0 -25 14 -49 30 -24 17 -46 30 -48 30 -3 0 -35 18 -72 41 -65 39 -95 56 -180 104 -160 90 -207 113 -218 109 -12 -4 -57 -68 -57 -80 0 -3 -14 -25 -30 -50 -33 -48 -67 -61 -54 -21 3 12 10 27 14 32 4 6 27 46 50 90 61 113 73 134 119 210 23 37 41 69 41 72 0 2 46 72 102 155 139 207 241 313 333 346 41 14 47 14 87 -2z" fill="#ffffff" id="ffffff-000014"/>
    <path stroke="none" d="M1540 12599 c66 -37 100 -127 100 -266 0 -46 3 -83 8 -82 4 0 27 27 51 60 110 151 256 211 342 139 54 -44 79 -105 79 -191 0 -40 -5 -90 -11 -113 -25 -97 -33 -122 -41 -130 -4 -6 -8 -16 -8 -23 0 -8 -15 -46 -34 -86 -98 -209 -127 -283 -186 -474 -22 -70 -35 -88 -45 -60 -3 6 6 52 19 102 14 49 22 93 19 97 -2 5 -24 17 -49 28 -24 11 -64 29 -89 40 -25 11 -49 20 -55 20 -6 0 -18 4 -28 9 -23 12 -60 26 -102 41 -19 7 -44 16 -55 20 -120 49 -313 110 -345 110 -28 0 -35 -12 -87 -144 -20 -52 -43 -72 -43 -38 0 26 64 214 150 442 64 169 118 281 181 375 53 80 71 98 125 125 50 25 58 24 104 -1z" fill="#ffffff" id="ffffff-000017"/>
    <path stroke="none" d="M3785 4038 c27 -29 139 -145 250 -258 264 -269 310 -337 310 -456 0 -66 -3 -76 -31 -111 -17 -21 -55 -51 -85 -67 -49 -27 -63 -30 -149 -30 -108 1 -173 19 -300 86 -94 49 -125 72 -116 87 10 16 37 14 71 -7 52 -31 118 -47 190 -47 62 1 75 4 117 33 131 90 153 209 65 342 -35 52 -94 121 -114 133 -10 6 -71 -49 -221 -200 -279 -280 -452 -462 -452 -476 0 -7 12 -26 28 -42 108 -119 132 -149 132 -166 0 -10 -4 -19 -8 -19 -5 0 -127 119 -271 265 -179 180 -261 270 -257 280 3 8 9 15 13 15 4 0 42 -32 83 -70 41 -38 81 -70 88 -70 15 0 51 32 326 290 93 88 335 328 355 353 11 14 6 26 -44 92 -50 67 -61 95 -36 95 5 0 30 -24 56 -52z" fill="#ffffff" id="ffffff-000026"/>
    <path stroke="none" d="M14150 3882 c0 -9 -10 -28 -23 -42 -12 -14 -41 -48 -65 -77 l-42 -51 102 -114 c170 -187 540 -558 558 -558 33 0 188 186 258 311 38 68 37 92 -4 175 -36 74 -39 101 -8 111 5 1 35 -38 68 -87 32 -50 93 -136 135 -191 42 -56 80 -107 85 -114 10 -13 -13 -45 -33 -45 -5 0 -31 25 -57 55 -30 35 -54 55 -65 53 -9 -2 -125 -109 -256 -238 -380 -374 -453 -437 -453 -388 0 6 32 44 70 84 39 39 70 76 70 80 0 8 -62 85 -134 164 -17 19 -65 73 -106 120 -41 47 -82 92 -90 100 -8 8 -67 71 -130 140 -126 137 -169 180 -179 180 -8 0 -78 -46 -114 -77 -16 -13 -35 -23 -43 -23 -23 0 -16 26 15 51 16 13 56 47 89 74 33 28 120 111 194 186 73 75 139 137 146 138 6 0 12 -7 12 -17z" fill="#ffffff" id="ffffff-000027"/>
    <path stroke="none" d="M13633 3146 c161 -42 270 -143 326 -302 26 -73 28 -204 6 -291 -63 -243 -288 -485 -586 -630 -111 -54 -187 -78 -295 -93 -192 -27 -370 42 -462 177 -61 90 -82 162 -82 278 0 98 4 121 43 224 61 162 259 372 465 494 98 58 230 116 302 132 41 9 80 18 85 20 28 9 150 3 198 -9z" fill="#ffffff" id="ffffff-000028"/>
    <path stroke="none" d="M4874 3072 c98 -74 177 -128 269 -182 90 -54 72 -82 -24 -36 -41 20 -51 22 -55 10 -2 -8 -6 -21 -9 -30 -9 -28 -35 -166 -65 -341 -28 -170 -50 -405 -50 -546 l0 -124 70 -52 c103 -77 89 -112 -17 -40 -23 16 -44 29 -48 29 -4 0 -26 14 -50 30 -24 17 -47 30 -50 30 -4 0 -19 8 -33 19 -15 10 -45 29 -68 42 -185 109 -243 146 -244 157 0 20 31 14 101 -23 38 -19 74 -35 82 -35 15 0 25 43 47 210 7 47 16 107 21 133 21 112 24 106 -123 205 -73 49 -156 101 -184 117 l-51 28 -79 -47 c-71 -42 -167 -109 -249 -174 l-30 -24 63 -59 c62 -58 71 -73 53 -84 -8 -5 -130 86 -186 138 -11 10 -62 51 -114 90 -51 40 -102 79 -113 88 -20 15 -18 39 3 39 5 0 40 -21 78 -46 60 -40 74 -45 103 -39 18 4 38 11 43 15 6 3 37 17 70 31 57 22 471 228 565 281 25 14 65 36 90 50 172 96 165 87 112 141 -42 43 -53 67 -30 67 6 0 53 -31 102 -68z" fill="#ffffff" id="ffffff-000029"/>
    <path stroke="none" d="M5605 2610 c78 -45 182 -97 278 -139 50 -23 63 -51 24 -51 -13 0 -27 4 -32 8 -16 14 -92 35 -103 29 -5 -4 -12 -28 -15 -54 -4 -26 -11 -77 -17 -113 -40 -251 -80 -593 -71 -602 7 -8 79 47 241 186 210 180 332 302 328 324 -2 8 -23 25 -48 39 -112 62 -104 100 10 44 83 -41 200 -88 303 -122 37 -13 66 -28 64 -33 -4 -12 -19 -13 -94 -2 l-53 7 0 -40 c0 -23 4 -98 10 -168 5 -71 15 -191 20 -268 13 -170 30 -305 39 -305 8 1 123 143 217 270 42 58 94 128 115 155 45 60 114 172 122 200 6 17 -4 25 -65 55 -39 19 -70 40 -69 45 2 11 59 9 75 -3 6 -5 31 -14 56 -22 25 -7 64 -19 87 -26 24 -8 76 -21 115 -30 98 -21 99 -21 91 -40 -5 -13 -15 -15 -57 -10 -42 6 -56 3 -72 -11 -17 -16 -86 -95 -249 -288 -167 -197 -476 -553 -492 -568 -14 -12 -23 -15 -28 -8 -14 24 -45 257 -84 641 -6 52 -13 146 -17 208 -3 61 -9 112 -11 112 -5 0 -127 -103 -143 -120 -3 -3 -34 -30 -70 -60 -36 -30 -67 -57 -70 -60 -6 -6 -156 -131 -225 -187 -107 -87 -240 -183 -250 -180 -20 7 -5 237 45 682 5 44 13 121 19 170 6 50 16 137 22 194 l13 103 -32 28 c-17 15 -42 34 -54 42 -15 10 -19 20 -15 32 7 17 8 17 35 0 15 -10 63 -38 107 -64z" fill="#ffffff" id="ffffff-000030"/>
    <path stroke="none" d="M12100 2299 c86 -48 104 -163 47 -289 -6 -14 -28 -51 -49 -83 -21 -32 -38 -60 -38 -62 0 -16 370 -200 475 -236 22 -7 45 -16 50 -19 6 -4 30 -12 55 -19 25 -7 55 -17 68 -22 13 -5 32 -9 42 -9 28 0 25 -15 -9 -39 -33 -24 -128 -29 -203 -11 -178 41 -226 53 -248 60 -14 5 -59 18 -100 31 -92 27 -188 57 -215 69 -99 42 -109 43 -169 16 -31 -14 -60 -26 -65 -26 -5 0 -14 -7 -21 -15 -11 -13 -8 -28 14 -88 15 -40 31 -80 37 -89 5 -10 9 -22 9 -28 0 -6 9 -32 21 -58 12 -26 25 -57 30 -69 26 -64 33 -74 54 -70 11 3 56 15 99 26 54 15 82 19 89 12 6 -6 8 -13 5 -17 -6 -6 -142 -55 -278 -100 -41 -14 -84 -29 -95 -34 -11 -5 -40 -16 -65 -24 -25 -8 -76 -26 -115 -40 -82 -30 -85 -31 -85 -10 0 9 20 24 48 36 107 47 131 58 136 67 3 5 -1 33 -11 62 -42 138 -174 536 -183 551 -6 10 -10 26 -10 36 0 10 -3 22 -7 25 -3 4 -18 42 -33 84 -38 113 -52 138 -75 137 -21 -2 -105 -19 -142 -30 -18 -5 -23 -2 -23 12 0 16 30 29 163 74 89 30 169 57 177 61 21 10 96 38 150 55 25 8 54 19 65 24 21 9 116 41 175 58 19 5 70 10 114 11 62 1 86 -3 116 -20z" fill="#ffffff" id="ffffff-000031"/>
    <path stroke="none" d="M11031 2099 c4 -8 12 -54 18 -104 6 -49 17 -122 23 -161 6 -39 9 -78 5 -87 -12 -32 -35 -5 -48 55 -20 88 -25 91 -133 83 -50 -3 -113 -10 -141 -15 -27 -4 -83 -14 -122 -21 l-73 -12 0 -37 c0 -20 4 -50 9 -66 5 -16 14 -60 21 -99 6 -38 16 -86 20 -105 5 -19 13 -60 20 -90 14 -68 23 -112 49 -220 11 -47 25 -110 32 -140 6 -30 15 -65 20 -78 5 -13 9 -34 9 -48 0 -13 7 -27 16 -31 8 -3 65 1 126 10 104 15 138 14 138 -3 0 -10 -85 -31 -285 -70 -66 -13 -157 -31 -200 -40 -22 -4 -65 -13 -95 -19 -30 -5 -76 -14 -103 -19 -30 -6 -50 -6 -53 0 -11 17 11 28 87 48 142 36 134 31 131 81 -2 42 -33 243 -52 339 -5 25 -14 74 -20 110 -6 36 -15 83 -20 105 -5 22 -14 67 -20 100 -16 80 -29 142 -41 188 -10 38 -11 39 -47 33 -113 -20 -262 -62 -335 -95 -40 -18 -47 -26 -52 -59 -15 -100 -21 -117 -35 -117 -12 0 -16 25 -21 140 -4 77 -10 159 -13 182 -13 73 33 67 51 -7 9 -34 10 -34 59 -32 104 6 397 54 614 102 103 22 210 50 315 80 17 5 41 12 55 16 43 12 52 25 47 65 -7 51 24 78 44 38z" fill="#ffffff" id="ffffff-000032"/>
    <path stroke="none" d="M7810 1850 c44 -8 107 -18 265 -40 315 -44 413 -76 485 -158 43 -48 56 -97 45 -164 -10 -56 -28 -91 -77 -144 -69 -74 -167 -121 -317 -150 -106 -20 -131 -19 -131 6 0 14 11 22 38 29 20 6 42 11 49 11 28 0 111 44 146 78 50 49 67 85 74 158 14 150 -61 227 -269 273 -26 6 -49 11 -51 11 -11 0 -55 -282 -97 -620 -6 -47 -15 -116 -20 -155 -5 -38 -11 -94 -12 -124 -3 -63 -12 -58 147 -89 71 -15 91 -22 94 -37 3 -16 -2 -17 -45 -12 -76 10 -183 26 -254 37 -36 6 -96 15 -135 20 -153 21 -257 38 -262 44 -3 3 -3 11 0 19 4 11 18 12 72 5 37 -5 83 -8 103 -6 l36 3 18 90 c9 50 24 133 33 185 9 52 20 118 25 145 14 75 64 395 74 477 6 49 8 47 -134 88 -14 3 -27 15 -28 24 -4 19 12 19 128 -4z" fill="#ffffff" id="ffffff-000033"/>
    <path stroke="none" d="M9498 1743 c-2 -12 -18 -20 -53 -26 -28 -4 -54 -12 -58 -16 -4 -4 5 -37 20 -72 46 -106 207 -428 260 -519 52 -89 188 -296 209 -317 8 -8 42 -13 92 -13 56 0 83 -4 91 -14 20 -23 36 -21 -334 -56 -99 -9 -271 -24 -290 -25 -5 0 -11 7 -13 16 -2 13 13 19 75 28 99 16 103 18 103 34 0 12 -162 335 -196 390 -10 17 -23 17 -209 7 -110 -6 -206 -15 -213 -19 -16 -9 -31 -48 -99 -255 -44 -133 -45 -140 -28 -153 11 -7 33 -13 51 -13 54 0 94 -12 94 -28 0 -13 -30 -14 -247 -8 -137 4 -252 12 -258 17 -16 16 11 26 88 32 76 7 92 16 127 77 23 40 258 515 285 575 9 22 27 63 40 90 59 130 85 195 85 211 0 9 -12 14 -32 15 -50 2 -83 13 -83 29 0 13 21 15 125 13 69 -2 154 1 190 6 36 4 91 9 123 10 50 1 58 -1 55 -16z" fill="#ffffff" id="ffffff-000034"/>
    <path stroke="none" d="M8400 17331 l-35 -6 2 -110 c2 -171 31 -549 48 -624 6 -27 12 -31 52 -37 57 -8 248 2 311 18 156 37 265 91 342 168 78 77 103 134 103 235 0 123 -41 193 -154 266 -108 69 -255 99 -479 97 -85 0 -171 -3 -190 -7z" fill="#040404" id="040404-000002"/>
    <path stroke="none" d="M7032 17127 l-43 -10 6 -41 c4 -23 11 -57 15 -76 11 -46 26 -112 41 -180 20 -97 24 -98 145 -54 160 58 244 140 244 240 0 36 -6 49 -33 77 -18 18 -52 38 -74 45 -48 14 -240 14 -301 -1z" fill="#040404" id="040404-000003"/>
    <path stroke="none" d="M5806 16708 c-6 -19 -26 -285 -26 -336 0 -43 0 -44 30 -37 16 3 47 15 69 26 22 10 45 19 51 19 5 0 18 4 28 9 9 6 45 20 80 33 34 13 62 26 62 29 0 4 -48 52 -107 107 -161 149 -182 166 -187 150z" fill="#040404" id="040404-000005"/>
    <path stroke="none" d="M11798 16761 c-145 -57 -216 -172 -206 -336 13 -208 169 -388 429 -493 14 -5 60 -16 102 -23 180 -30 357 53 426 201 37 79 41 195 11 282 -60 169 -196 291 -405 364 -75 27 -294 29 -357 5z" fill="#040404" id="040404-000004"/>
    <path stroke="none" d="M8955 15610 c-22 -16 -43 -29 -48 -30 -4 0 -44 -24 -90 -53 -45 -30 -127 -82 -182 -117 -55 -35 -137 -87 -182 -117 -46 -29 -85 -53 -88 -53 -3 0 -46 -27 -95 -60 -49 -33 -92 -60 -95 -60 -3 0 -42 -24 -88 -53 -45 -30 -127 -82 -182 -117 -55 -35 -137 -87 -182 -117 -46 -29 -85 -53 -88 -53 -3 0 -42 -24 -88 -53 -45 -30 -126 -82 -179 -115 -54 -34 -142 -90 -195 -124 -54 -33 -135 -85 -180 -115 -46 -29 -85 -53 -88 -53 -3 0 -42 -24 -88 -53 -45 -30 -127 -82 -182 -117 -55 -35 -137 -87 -182 -117 -46 -29 -85 -53 -88 -53 -3 0 -42 -24 -88 -53 -45 -30 -126 -82 -179 -115 -54 -34 -142 -90 -195 -124 -54 -33 -135 -85 -180 -115 -46 -29 -85 -53 -88 -53 -3 0 -46 -27 -95 -60 -49 -33 -92 -60 -95 -60 -3 0 -42 -24 -88 -53 -45 -30 -127 -82 -182 -117 -55 -35 -137 -87 -182 -117 -46 -29 -85 -53 -88 -53 -3 0 -42 -24 -88 -53 -45 -30 -127 -82 -182 -117 -55 -35 -137 -87 -182 -117 -46 -29 -85 -53 -88 -53 -3 0 -46 -27 -95 -60 -49 -33 -92 -60 -95 -60 -3 0 -42 -24 -88 -53 -45 -30 -127 -82 -182 -117 -55 -35 -137 -87 -182 -117 -46 -29 -85 -53 -88 -53 -3 0 -46 -27 -95 -60 -49 -33 -92 -60 -95 -60 -3 0 -42 -24 -88 -53 -45 -30 -126 -83 -181 -118 l-99 -63 7 -76 c6 -71 14 -142 35 -332 11 -95 26 -204 41 -298 21 -128 28 -176 39 -245 12 -83 54 -305 71 -375 5 -19 18 -84 30 -145 12 -60 33 -155 47 -210 13 -55 29 -118 33 -140 12 -55 25 -106 48 -195 11 -41 32 -120 46 -175 15 -55 31 -109 36 -120 11 -23 39 -126 47 -170 3 -16 9 -34 13 -40 4 -5 11 -26 15 -45 4 -19 13 -48 20 -65 7 -16 32 -91 56 -165 23 -74 46 -139 50 -145 4 -5 10 -26 14 -45 4 -19 14 -51 22 -70 28 -66 32 -75 38 -100 4 -14 14 -41 22 -60 29 -67 32 -75 38 -100 7 -24 17 -50 50 -124 8 -19 15 -39 15 -46 0 -7 13 -40 29 -74 16 -33 41 -92 57 -131 15 -38 36 -85 46 -103 10 -18 18 -37 18 -42 0 -5 5 -21 12 -37 6 -15 12 -30 13 -33 1 -5 13 -29 128 -275 29 -60 94 -193 146 -295 52 -102 106 -207 119 -235 14 -27 29 -51 33 -53 5 -2 9 -12 9 -23 0 -10 4 -19 9 -19 5 0 18 -21 30 -47 20 -46 31 -65 107 -196 19 -32 34 -62 34 -68 0 -5 3 -9 8 -9 4 0 12 -10 18 -23 31 -63 146 -256 159 -267 8 -7 15 -17 15 -22 0 -5 26 -48 59 -96 50 -75 93 -145 137 -223 6 -11 20 -30 31 -42 11 -12 34 -46 53 -75 18 -30 38 -59 44 -65 22 -23 146 -206 146 -215 0 -5 8 -16 17 -23 9 -8 48 -57 87 -109 38 -52 75 -100 80 -106 6 -6 36 -46 66 -89 30 -43 73 -98 96 -124 22 -25 55 -66 74 -91 19 -25 37 -47 40 -50 4 -3 69 -79 145 -170 451 -535 920 -1004 1455 -1455 91 -76 167 -141 170 -145 3 -3 25 -21 50 -40 25 -19 66 -52 91 -74 26 -23 81 -66 124 -96 43 -30 83 -60 89 -66 6 -5 54 -42 106 -80 52 -39 101 -78 109 -87 7 -9 18 -17 23 -17 9 0 192 -124 215 -146 6 -6 35 -26 65 -44 29 -19 63 -42 75 -53 12 -11 31 -25 42 -31 73 -41 147 -86 221 -135 47 -31 93 -60 101 -66 9 -5 35 -22 57 -37 23 -16 51 -28 63 -28 20 0 146 68 184 100 11 10 43 30 70 46 28 15 73 45 101 66 28 21 56 38 62 38 5 0 12 4 14 8 4 10 115 82 127 82 4 0 16 9 26 20 11 12 53 44 94 72 42 29 119 84 171 123 52 39 114 84 137 101 69 47 235 177 268 208 16 16 48 40 70 55 22 14 81 62 130 106 50 44 108 94 130 110 56 41 396 347 533 480 226 218 497 497 623 640 24 27 60 66 79 85 20 19 51 55 70 80 19 25 68 83 110 130 42 47 92 106 111 131 35 47 73 93 170 208 30 36 67 84 81 106 14 22 34 49 45 60 10 11 30 36 43 55 14 19 32 44 42 55 9 11 28 36 42 55 63 88 102 143 116 164 8 13 27 41 42 63 14 22 33 46 40 54 12 12 145 205 173 251 64 106 109 174 116 176 5 2 9 8 9 12 0 5 26 49 57 97 73 112 73 112 103 170 13 26 41 74 62 105 21 31 38 59 38 63 0 3 20 38 45 79 24 40 70 122 101 182 31 60 61 111 66 112 4 2 8 11 8 21 0 9 5 22 10 27 16 16 230 445 230 461 0 7 5 13 10 13 6 0 10 5 10 11 0 6 14 41 31 78 18 36 47 98 65 136 18 39 42 95 54 125 12 30 34 82 50 115 16 33 32 74 36 90 4 17 15 44 24 60 9 17 27 57 39 90 13 33 30 75 38 93 8 19 28 70 45 115 84 230 110 304 115 322 2 11 8 29 13 40 5 11 14 38 20 60 6 22 16 51 22 65 20 47 27 65 37 100 5 19 23 79 40 132 17 53 33 105 34 115 2 10 7 25 10 33 4 8 13 40 21 70 8 30 21 75 30 100 9 25 16 55 16 67 0 12 5 25 10 28 6 3 10 17 10 30 0 13 4 34 9 47 11 29 24 79 51 193 23 97 36 153 50 200 4 17 18 75 30 130 11 55 25 118 30 140 9 42 17 86 26 145 3 19 9 44 14 55 5 11 11 38 14 60 2 22 10 67 16 100 6 33 16 89 21 125 6 36 14 88 19 115 13 79 58 410 71 515 6 52 15 125 20 162 5 37 9 86 9 110 0 41 -3 45 -48 72 -46 28 -129 81 -342 216 -58 37 -150 95 -205 130 -55 35 -147 93 -205 130 -58 37 -150 95 -205 130 -196 124 -321 204 -417 267 -54 34 -100 63 -103 63 -3 0 -51 30 -108 67 -56 36 -146 95 -199 130 -54 34 -100 63 -103 63 -3 0 -51 30 -108 67 -56 36 -146 95 -199 130 -54 34 -100 63 -103 63 -3 0 -50 29 -105 65 -55 36 -145 94 -200 130 -55 36 -102 65 -105 65 -3 0 -49 29 -103 63 -53 35 -143 94 -199 130 -57 37 -105 67 -108 67 -3 0 -50 29 -105 65 -55 36 -145 94 -200 130 -55 36 -102 65 -105 65 -3 0 -49 29 -103 63 -53 35 -143 94 -199 130 -57 37 -105 67 -108 67 -3 0 -51 30 -108 67 -56 36 -146 95 -199 130 -54 34 -100 63 -103 63 -3 0 -51 30 -108 67 -56 36 -146 95 -199 130 -54 34 -100 63 -103 63 -3 0 -50 29 -105 65 -55 36 -145 94 -200 130 -55 36 -102 65 -105 65 -3 0 -49 29 -103 63 -53 35 -143 94 -199 130 -57 37 -105 67 -108 67 -3 0 -49 29 -103 63 -142 93 -211 137 -214 137 -2 -1 -21 -14 -43 -30z" fill="#040404" id="040404-000006"/>
    <path stroke="none" d="M8427 14369 c81 -33 101 -46 143 -88 25 -25 57 -68 70 -96 l25 -50 0 -1200 0 -1200 -23 -58 c-28 -68 -76 -133 -119 -163 -17 -11 -64 -29 -105 -38 -40 -9 -109 -25 -153 -36 -184 -44 -213 -50 -265 -60 -30 -6 -86 -15 -125 -21 -38 -6 -95 -14 -125 -19 -30 -5 -120 -18 -200 -30 -80 -12 -172 -26 -205 -31 -284 -44 -310 -45 -390 -20 -129 42 -242 140 -298 259 -26 56 -32 84 -39 177 -4 60 -12 171 -18 245 -6 74 -13 164 -15 200 -3 36 -10 129 -17 207 -9 112 -9 162 1 230 14 95 35 204 52 268 6 22 13 52 16 68 3 15 9 30 14 33 5 3 9 14 9 25 0 10 4 27 9 37 5 9 13 28 18 42 6 14 35 77 66 140 129 267 324 501 563 677 16 12 50 37 75 56 40 30 102 66 317 184 53 29 118 65 180 100 208 117 272 150 302 160 47 15 202 16 237 2z" fill="#ffffff" id="ffffff-000011"/>
    <path stroke="none" d="M9814 14368 c22 -6 46 -15 51 -18 6 -4 46 -27 90 -50 44 -24 96 -52 115 -63 19 -11 55 -31 80 -45 25 -13 71 -40 103 -58 32 -19 60 -34 62 -34 2 0 26 -13 52 -28 26 -16 84 -48 128 -72 44 -24 96 -55 115 -70 19 -15 70 -53 113 -85 92 -69 245 -218 321 -314 180 -226 314 -513 371 -799 32 -163 37 -236 24 -392 -19 -243 -28 -393 -34 -535 -3 -77 -11 -160 -16 -185 -41 -177 -196 -331 -374 -371 -56 -12 -86 -10 -270 21 -27 5 -86 13 -130 20 -85 12 -166 24 -267 40 -35 5 -97 14 -138 20 -165 24 -313 56 -615 131 -94 24 -135 57 -186 152 -30 56 -32 69 -38 191 -3 72 -4 624 -1 1226 l5 1095 28 52 c44 80 115 139 217 176 28 10 152 7 194 -5z" fill="#ffffff" id="ffffff-000012"/>
    <path stroke="none" d="M5846 12842 c47 -24 98 -78 118 -126 13 -32 25 -126 45 -356 6 -63 15 -171 21 -240 6 -69 15 -172 20 -230 5 -58 14 -163 20 -235 6 -71 16 -170 21 -220 13 -123 12 -286 -2 -334 -23 -79 -89 -136 -204 -180 -33 -13 -69 -27 -80 -31 -11 -4 -36 -13 -55 -20 -19 -7 -44 -16 -55 -20 -11 -4 -46 -17 -77 -29 -32 -12 -84 -30 -115 -42 -32 -12 -67 -25 -78 -29 -11 -4 -47 -18 -80 -30 -33 -12 -69 -26 -80 -30 -11 -4 -47 -18 -80 -30 -33 -12 -69 -26 -80 -30 -11 -4 -36 -13 -55 -20 -19 -7 -44 -16 -55 -20 -11 -4 -46 -17 -77 -29 -32 -12 -84 -30 -115 -42 -32 -12 -67 -25 -78 -29 -11 -4 -47 -18 -80 -30 -33 -12 -71 -27 -84 -33 -42 -21 -160 -14 -207 10 -63 33 -108 93 -124 160 -7 32 -19 83 -27 113 -7 30 -16 82 -19 115 -3 33 -10 78 -15 100 -12 55 -11 329 1 401 18 102 53 249 62 258 4 6 8 20 8 32 0 13 5 26 10 29 6 3 10 13 10 22 0 26 99 223 153 303 144 215 328 383 552 505 39 20 77 43 85 50 8 8 71 46 140 85 69 40 140 81 158 91 17 11 48 28 67 39 19 11 52 30 73 42 73 41 140 73 177 82 42 10 141 -2 181 -22z" fill="#ffffff" id="ffffff-000015"/>
    <path stroke="none" d="M12415 12853 c11 -6 38 -19 60 -30 22 -11 57 -30 78 -41 20 -12 53 -31 72 -42 19 -11 50 -28 68 -39 17 -10 88 -51 157 -91 69 -39 132 -77 140 -85 8 -7 47 -30 85 -50 224 -122 408 -290 552 -505 54 -80 153 -277 153 -303 0 -9 5 -19 10 -22 6 -3 10 -16 10 -29 0 -12 4 -26 8 -31 9 -10 44 -157 62 -259 12 -72 13 -346 1 -401 -5 -22 -12 -67 -15 -100 -3 -33 -12 -85 -19 -115 -8 -30 -20 -81 -27 -113 -16 -67 -61 -127 -124 -160 -32 -17 -58 -22 -118 -22 -48 1 -82 5 -90 13 -6 6 -19 12 -29 12 -9 0 -38 9 -65 19 -27 11 -76 29 -109 41 -33 12 -69 26 -80 30 -11 4 -45 17 -75 28 -30 11 -93 34 -140 52 -47 18 -110 41 -140 52 -30 11 -64 24 -75 28 -11 4 -47 18 -80 30 -33 12 -69 26 -80 30 -11 4 -36 13 -55 20 -19 7 -44 16 -55 20 -11 4 -45 17 -75 28 -50 18 -131 48 -280 105 -176 66 -235 181 -211 406 6 47 14 140 20 206 27 322 33 382 42 403 5 13 9 42 9 64 0 23 4 80 10 127 5 47 14 147 20 221 18 223 32 332 46 367 27 65 90 120 164 144 32 11 149 5 175 -8z" fill="#ffffff" id="ffffff-000016"/>
    <path stroke="none" d="M9540 11050 c521 -34 857 -76 1255 -156 72 -15 146 -30 165 -34 19 -4 58 -13 85 -19 134 -29 444 -115 477 -132 10 -5 27 -9 37 -9 11 0 23 -4 26 -10 3 -5 17 -10 30 -10 13 0 27 -4 30 -10 3 -5 15 -10 26 -10 10 0 27 -4 37 -10 9 -5 37 -16 62 -24 103 -33 276 -106 460 -194 182 -88 449 -253 575 -355 70 -57 263 -249 303 -301 29 -39 192 -355 192 -373 0 -4 13 -50 29 -103 42 -141 51 -202 51 -354 0 -123 -5 -161 -45 -359 -45 -224 -66 -307 -103 -407 -11 -30 -29 -77 -39 -105 -10 -27 -28 -66 -40 -85 -12 -19 -31 -59 -43 -89 -11 -30 -30 -75 -42 -100 -20 -45 -36 -81 -79 -178 -231 -523 -604 -1173 -929 -1623 -85 -117 -606 -772 -704 -885 -202 -231 -604 -631 -846 -841 -25 -21 -47 -41 -50 -44 -40 -42 -208 -174 -250 -197 -58 -32 -104 -58 -185 -103 -122 -69 -182 -102 -210 -115 -77 -35 -111 -48 -188 -71 -45 -13 -96 -29 -113 -34 -17 -6 -45 -10 -62 -10 -18 0 -40 -4 -50 -9 -16 -9 -58 -18 -186 -41 -141 -24 -420 -8 -579 34 -32 9 -70 16 -85 16 -16 0 -32 4 -37 8 -6 5 -35 14 -65 21 -56 13 -98 26 -135 42 -80 34 -138 63 -190 92 -79 45 -209 117 -305 170 -43 24 -143 100 -180 137 -3 3 -23 20 -45 39 -171 145 -300 266 -530 496 -265 265 -314 317 -487 525 -87 105 -447 556 -535 670 -89 117 -421 614 -469 705 -6 11 -26 45 -44 75 -36 61 -61 104 -96 168 -13 23 -36 63 -50 90 -104 185 -237 451 -337 672 -47 106 -69 155 -82 185 -7 17 -20 48 -30 70 -10 22 -24 56 -32 75 -9 19 -21 42 -28 50 -7 8 -20 38 -30 65 -9 28 -23 64 -30 80 -13 30 -42 115 -64 190 -12 41 -33 135 -52 235 -12 59 -20 99 -39 195 -8 41 -10 116 -7 235 5 149 10 189 32 265 14 50 30 105 35 122 12 48 137 298 184 368 51 76 186 217 296 309 173 145 470 324 710 430 36 16 88 38 115 51 28 12 77 32 110 44 33 13 69 27 80 31 17 7 105 39 225 80 49 17 226 69 305 90 44 12 105 28 135 36 30 8 78 20 105 25 28 6 66 15 85 19 432 96 850 153 1395 189 179 12 898 13 1075 1z" fill="#ffffff" id="ffffff-000018"/>
    <path stroke="none" d="M8745 9636 c-41 -13 -40 -14 16 -35 25 -9 27 -7 31 20 3 16 2 29 -1 28 -3 0 -24 -6 -46 -13z" fill="#040404" id="040404-000012"/>
    <path stroke="none" d="M9013 9627 c15 -13 27 -28 27 -35 0 -7 5 -12 10 -12 6 0 10 16 10 35 0 34 -1 35 -37 35 l-38 -1 28 -22z" fill="#040404" id="040404-000013"/>
    <path stroke="none" d="M8882 9617 c-14 -15 -22 -36 -22 -59 0 -31 7 -43 46 -77 26 -23 51 -41 57 -41 6 0 25 -11 44 -26 39 -29 42 -58 11 -91 -19 -21 -20 -23 -3 -23 29 0 65 50 65 92 0 47 -33 87 -103 123 -28 15 -58 32 -64 37 -20 16 -15 54 10 71 22 16 22 16 1 16 -11 1 -30 -9 -42 -22z" fill="#040404" id="040404-000018"/>
    <path stroke="none" d="M9450 9630 c-11 -7 5 -10 51 -10 40 0 78 -6 98 -16 68 -34 113 -133 92 -203 -12 -42 -63 -101 -87 -101 -8 0 -14 -4 -14 -10 0 -5 7 -10 15 -10 17 0 81 35 101 54 51 51 69 148 39 206 -20 38 -70 75 -120 89 -49 13 -155 14 -175 1z" fill="#040404" id="040404-000016"/>
    <path stroke="none" d="M8555 9588 c2 -18 7 -87 9 -152 5 -102 3 -123 -11 -138 -15 -17 -13 -18 45 -18 34 0 62 4 62 9 0 5 -5 11 -11 13 -11 4 -28 155 -29 256 l0 62 -34 0 c-33 0 -35 -1 -31 -32z" fill="#040404" id="040404-000014"/>
    <path stroke="none" d="M9385 9608 c-41 -22 -83 -79 -90 -118 -19 -113 47 -197 168 -213 51 -7 63 5 19 21 -38 13 -90 58 -109 95 -25 50 -20 131 12 172 14 19 33 35 41 35 7 0 14 5 14 10 0 13 -30 12 -55 -2z" fill="#040404" id="040404-000022"/>
    <path stroke="none" d="M8257 9568 c4 -24 7 -92 7 -151 l1 -109 -30 -24 c-22 -18 -42 -24 -78 -24 -55 0 -90 19 -106 58 -16 42 -31 140 -31 204 l0 58 -38 0 c-44 0 -56 -8 -41 -26 5 -7 14 -50 19 -96 12 -117 19 -142 43 -169 31 -35 70 -49 133 -49 81 0 137 30 164 88 21 45 22 51 10 153 -7 59 -9 112 -6 118 5 7 -4 11 -24 11 -30 0 -30 0 -23 -42z" fill="#040404" id="040404-000024"/>
    <path stroke="none" d="M9878 9574 c3 -14 -1 -86 -8 -160 -10 -97 -17 -134 -27 -134 -7 0 -13 -4 -13 -10 0 -5 21 -10 48 -10 l47 0 2 66 c1 37 4 73 7 80 8 22 73 17 97 -7 24 -24 24 -24 32 18 6 29 4 31 -13 25 -11 -4 -40 -6 -65 -4 l-45 4 0 43 c0 96 25 112 119 76 l49 -18 5 24 c4 23 -8 43 -15 24 -2 -6 -21 -6 -48 -1 -25 5 -75 9 -111 10 -66 0 -66 0 -61 -26z" fill="#040404" id="040404-000023"/>
    <path stroke="none" d="M7626 9541 c-3 -5 15 -12 40 -16 36 -5 55 -16 88 -48 69 -70 79 -168 23 -228 -22 -23 -15 -39 11 -23 59 38 93 128 78 208 -9 47 -65 102 -113 110 -55 9 -121 7 -127 -3z" fill="#040404" id="040404-000025"/>
    <path stroke="none" d="M10449 9538 c0 -2 -2 -12 -3 -24 -1 -11 -12 -35 -24 -51 -12 -17 -22 -34 -22 -37 0 -9 -113 -180 -124 -187 -16 -12 5 -29 35 -29 19 0 28 4 24 11 -8 13 22 97 43 121 12 14 24 16 56 11 74 -11 81 -17 96 -76 7 -30 10 -65 7 -76 -4 -17 1 -22 31 -31 21 -5 45 -10 54 -10 15 0 15 2 1 31 -15 30 -23 57 -43 139 -21 89 -32 147 -34 170 -1 19 -8 26 -31 31 -33 7 -65 10 -66 7z" fill="#040404" id="040404-000026"/>
    <path stroke="none" d="M10488 9458 c21 -78 20 -93 -6 -96 -22 -3 -82 15 -82 24 0 5 24 48 30 54 3 3 11 17 19 33 19 37 27 34 39 -15z" fill="#ffffff" id="ffffff-000019"/>
    <path stroke="none" d="M7505 9507 c-73 -44 -113 -129 -95 -199 26 -95 78 -128 203 -128 47 0 89 5 92 10 4 6 -13 10 -44 10 -90 0 -159 49 -187 132 -20 60 -8 104 42 154 34 33 28 44 -11 21z" fill="#040404" id="040404-000029"/>
    <path stroke="none" d="M7300 9495 c0 -11 -13 -15 -52 -15 -69 0 -94 -15 -39 -23 22 -3 54 -12 72 -21 18 -9 34 -16 36 -16 1 0 3 20 3 45 0 25 -4 45 -10 45 -5 0 -10 -7 -10 -15z" fill="#040404" id="040404-000027"/>
    <path stroke="none" d="M10820 9472 c0 -6 6 -12 13 -15 9 -3 9 -9 0 -28 -32 -64 -133 -281 -133 -285 0 -2 14 -4 30 -4 25 0 30 4 30 25 0 13 4 34 9 47 5 13 24 60 41 106 18 45 36 82 40 82 4 0 12 -26 19 -57 40 -193 51 -233 59 -233 4 0 45 52 92 115 47 63 90 113 95 111 14 -4 18 -169 6 -225 -5 -25 -9 -47 -8 -47 1 -1 25 -5 52 -8 28 -3 44 -3 38 0 -16 7 -19 309 -3 319 19 12 10 23 -27 31 -53 11 -58 11 -58 -6 0 -12 -54 -89 -131 -186 -17 -21 -22 -17 -33 24 -34 128 -45 202 -31 202 24 0 -2 18 -36 24 -19 4 -42 10 -50 13 -8 3 -14 1 -14 -5z" fill="#040404" id="040404-000032"/>
    <path stroke="none" d="M7095 9447 c-86 -49 -125 -105 -125 -177 0 -61 26 -108 79 -141 37 -24 56 -29 105 -29 61 1 148 19 163 34 4 4 -19 4 -52 1 -78 -9 -136 7 -184 50 -51 46 -69 101 -51 156 14 43 72 99 102 99 9 0 20 5 23 10 8 13 -35 11 -60 -3z" fill="#040404" id="040404-000035"/>
    <path stroke="none" d="M6785 9383 c-57 -6 -69 -23 -15 -23 26 0 51 -6 62 -17 17 -15 18 -14 18 15 0 20 -5 31 -12 30 -7 -1 -31 -3 -53 -5z" fill="#040404" id="040404-000039"/>
    <path stroke="none" d="M6681 9334 c-54 -69 -9 -132 119 -165 28 -7 58 -21 66 -31 20 -21 21 -67 3 -79 -7 -4 -10 -11 -6 -15 4 -4 18 3 32 16 31 29 34 89 6 129 -18 25 -36 34 -131 61 -25 8 -51 18 -57 23 -18 13 -16 47 4 69 14 16 14 18 0 18 -8 0 -25 -12 -36 -26z" fill="#040404" id="040404-000043"/>
    <path stroke="none" d="M11396 9331 c3 -14 -6 -69 -20 -121 -14 -52 -28 -106 -31 -120 -4 -14 -12 -35 -18 -47 -13 -29 -8 -33 40 -40 37 -5 38 -4 39 29 1 18 5 53 10 78 8 39 13 45 38 48 31 4 86 -15 86 -29 0 -5 5 -9 10 -9 6 0 10 9 10 20 0 20 -49 40 -97 40 -13 0 -23 6 -23 13 0 29 32 113 47 124 18 14 20 13 -54 30 -42 10 -42 10 -37 -16z" fill="#040404" id="040404-000042"/>
    <path stroke="none" d="M8848 9305 c-3 -43 4 -59 15 -32 4 10 21 12 65 9 37 -3 62 0 66 7 5 7 -7 11 -37 11 -34 0 -49 6 -67 25 -13 14 -27 25 -31 25 -4 0 -9 -20 -11 -45z" fill="#040404" id="040404-000041"/>
    <path stroke="none" d="M11503 9313 c4 -6 20 -13 36 -16 17 -4 40 -16 51 -27 l20 -20 10 25 c13 33 13 30 -7 32 -10 1 -40 5 -67 9 -32 5 -47 3 -43 -3z" fill="#040404" id="040404-000046"/>
    <path stroke="none" d="M6310 9254 c-19 -7 -45 -13 -57 -13 -12 -1 -25 -5 -28 -11 -4 -6 16 -10 54 -10 40 0 65 -5 75 -15 18 -19 26 -19 26 0 0 18 -21 65 -29 64 -3 -1 -22 -7 -41 -15z" fill="#040404" id="040404-000048"/>
    <path stroke="none" d="M11755 9241 c4 -12 3 -35 -3 -49 -5 -15 -14 -43 -19 -62 -49 -166 -58 -190 -70 -190 -24 0 -13 -18 15 -23 15 -3 38 -9 51 -13 19 -6 23 -4 19 7 -7 17 12 93 30 126 6 12 12 30 12 41 0 32 33 126 47 135 22 13 15 24 -19 30 -18 3 -41 9 -52 13 -15 6 -17 4 -11 -15z" fill="#040404" id="040404-000050"/>
    <path stroke="none" d="M6165 9210 c-3 -5 3 -10 14 -10 12 0 21 5 21 10 0 6 -6 10 -14 10 -8 0 -18 -4 -21 -10z" fill="#040404" id="040404-000052"/>
    <path stroke="none" d="M7730 9210 c0 -5 4 -10 9 -10 6 0 13 5 16 10 3 6 -1 10 -9 10 -9 0 -16 -4 -16 -10z" fill="#040404" id="040404-000053"/>
    <path stroke="none" d="M11865 9210 c3 -5 10 -10 16 -10 24 0 59 -45 59 -76 0 -40 -33 -64 -92 -64 -38 -1 -41 -2 -26 -14 10 -7 30 -37 46 -67 47 -89 93 -159 104 -159 12 0 10 9 -26 105 -34 91 -33 111 3 130 67 34 80 79 34 115 -47 37 -134 66 -118 40z" fill="#040404" id="040404-000054"/>
    <path stroke="none" d="M6099 9170 c-39 -32 -79 -105 -79 -144 0 -60 53 -130 117 -155 46 -19 214 -3 229 21 4 6 -14 7 -48 3 -82 -10 -134 8 -190 66 -43 44 -48 54 -48 94 0 54 19 95 57 124 18 13 23 20 13 21 -9 0 -32 -13 -51 -30z" fill="#040404" id="040404-000058"/>
    <path stroke="none" d="M12170 9100 c0 -23 -66 -222 -87 -264 -12 -24 -13 -31 -1 -41 17 -16 72 -30 63 -16 -6 10 16 80 69 226 14 38 26 71 26 72 0 1 8 3 18 5 12 3 6 9 -22 21 -50 22 -66 21 -66 -3z" fill="#040404" id="040404-000062"/>
    <path stroke="none" d="M6700 9080 c0 -8 5 -32 10 -52 10 -35 13 -37 43 -32 60 11 64 15 27 30 -19 8 -45 27 -57 42 -15 17 -23 22 -23 12z" fill="#040404" id="040404-000063"/>
    <path stroke="none" d="M5728 9067 c-57 -19 -56 -27 4 -27 62 0 102 -17 138 -57 39 -43 50 -69 50 -114 0 -44 -11 -72 -43 -106 -37 -41 4 -25 44 17 41 43 57 100 45 168 -16 100 -126 155 -238 119z" fill="#040404" id="040404-000064"/>
    <path stroke="none" d="M6373 9068 c-23 -11 -31 -28 -14 -28 5 0 16 -23 26 -52 15 -47 15 -53 1 -64 -37 -27 -6 -33 43 -8 30 15 32 20 26 48 -3 17 -9 50 -12 74 -4 35 -9 42 -27 41 -11 0 -31 -5 -43 -11z" fill="#040404" id="040404-000065"/>
    <path stroke="none" d="M5645 9030 c-3 -5 -2 -10 4 -10 5 0 13 5 16 10 3 6 2 10 -4 10 -5 0 -13 -4 -16 -10z" fill="#040404" id="040404-000067"/>
    <path stroke="none" d="M6825 9030 c-3 -5 3 -10 14 -10 12 0 21 5 21 10 0 6 -6 10 -14 10 -8 0 -18 -4 -21 -10z" fill="#040404" id="040404-000068"/>
    <path stroke="none" d="M5571 8973 c-71 -74 -80 -156 -24 -231 33 -44 72 -62 138 -62 53 0 135 19 135 31 0 3 -28 5 -62 5 -35 0 -74 6 -88 13 -63 33 -110 102 -110 160 0 28 32 88 58 108 8 7 12 16 9 20 -4 3 -29 -16 -56 -44z" fill="#040404" id="040404-000072"/>
    <path stroke="none" d="M11414 8992 c4 -7 15 -12 25 -12 10 0 35 -7 54 -15 46 -19 47 -19 47 5 0 13 -7 20 -19 20 -10 0 -40 3 -66 7 -35 4 -46 3 -41 -5z" fill="#040404" id="040404-000073"/>
    <path stroke="none" d="M12384 8981 c-57 -34 -86 -83 -86 -144 -1 -82 44 -139 142 -183 19 -9 45 -21 56 -26 12 -5 30 -8 40 -6 18 5 18 5 -1 13 -85 32 -131 73 -160 142 -19 45 -19 71 0 116 24 57 71 87 138 87 32 0 57 5 57 10 0 6 -32 10 -77 10 -59 0 -86 -5 -109 -19z" fill="#040404" id="040404-000074"/>
    <path stroke="none" d="M12590 8976 c0 -2 18 -15 40 -30 22 -14 46 -39 55 -56 18 -34 30 -38 39 -12 3 9 8 22 12 29 3 6 -21 24 -61 42 -60 29 -85 37 -85 27z" fill="#040404" id="040404-000075"/>
    <path stroke="none" d="M5260 8864 c-30 -6 -66 -19 -145 -54 -33 -15 -75 -33 -92 -41 -35 -15 -40 -23 -22 -34 5 -4 30 -50 55 -103 24 -54 48 -104 53 -112 5 -9 12 -30 16 -48 3 -18 11 -32 15 -32 14 0 120 50 120 56 0 3 -10 5 -22 4 -49 -4 -45 -10 -118 155 -12 28 -26 58 -31 67 -17 33 -10 53 24 66 17 8 42 19 54 24 13 6 49 12 80 12 45 1 65 -4 90 -22 66 -47 82 -131 37 -198 -15 -21 -34 -44 -43 -51 -14 -11 -14 -12 -1 -13 23 0 86 68 105 112 29 72 11 159 -41 193 -26 17 -93 26 -134 19z" fill="#ffffff" id="ffffff-000021"/>
    <path stroke="none" d="M12920 8819 c0 -11 -92 -100 -187 -180 -46 -40 -68 -67 -61 -75 2 -1 16 -6 32 -10 21 -5 27 -4 22 5 -4 7 10 32 34 61 40 48 43 50 82 43 30 -4 39 -3 34 5 -4 7 -14 12 -22 12 -27 0 -14 31 29 71 23 21 46 39 50 39 4 0 7 -30 5 -67 l-3 -68 -29 3 c-18 3 -26 0 -22 -7 4 -6 14 -11 21 -11 26 0 37 -39 30 -101 -4 -32 -11 -59 -16 -59 -20 0 -7 -19 24 -33 61 -29 58 -38 57 156 0 116 3 177 10 177 23 0 8 16 -30 33 -46 20 -60 21 -60 6z" fill="#040404" id="040404-000079"/>
    <path stroke="none" d="M12575 8610 c3 -5 15 -10 26 -10 10 0 19 5 19 10 0 6 -12 10 -26 10 -14 0 -23 -4 -19 -10z" fill="#040404" id="040404-000094"/>
    <path stroke="none" d="M5265 8510 c-3 -5 1 -10 9 -10 9 0 16 5 16 10 0 6 -4 10 -9 10 -6 0 -13 -4 -16 -10z" fill="#040404" id="040404-000096"/>
    <path stroke="none" d="M6814 7832 c-15 -39 -37 -42 -344 -42 -300 0 -326 3 -334 36 -10 39 -26 27 -26 -18 0 -24 -3 -73 -7 -110 -6 -74 10 -97 21 -29 3 21 12 44 20 50 23 19 124 40 193 41 l61 0 7 -107 c9 -131 -1 -503 -14 -516 -6 -6 -33 -12 -60 -15 -106 -10 -44 -18 134 -18 182 0 238 8 130 19 -30 3 -59 8 -65 12 -6 4 -10 115 -10 316 l0 309 46 0 c71 0 187 -21 207 -38 11 -10 17 -29 17 -54 0 -21 4 -38 10 -38 9 0 15 27 24 115 3 28 8 65 12 83 8 40 -8 42 -22 4z" fill="#040404" id="040404-000099"/>
    <path stroke="none" d="M11280 7846 c0 -8 -10 -22 -22 -30 -18 -13 -53 -16 -169 -16 l-146 0 -11 -82 c-6 -46 -13 -108 -14 -138 l-3 -54 60 -16 c74 -20 90 -27 137 -58 107 -70 120 -214 25 -286 -53 -40 -109 -50 -168 -31 -56 19 -79 45 -79 92 0 57 -17 36 -24 -28 -9 -86 -8 -139 3 -139 5 0 11 6 14 13 4 10 35 16 102 20 177 12 282 87 316 227 25 105 -44 193 -193 245 -23 8 -52 15 -63 15 -11 1 -36 6 -55 13 -33 12 -35 14 -31 57 1 25 7 51 13 58 7 8 48 12 138 12 138 0 140 -1 140 -56 0 -24 20 -35 20 -11 2 31 18 155 25 180 5 17 3 27 -4 27 -6 0 -11 -6 -11 -14z" fill="#040404" id="040404-000104"/>
    <path stroke="none" d="M11466 7794 c-3 -38 -10 -95 -14 -127 -9 -66 6 -74 24 -11 14 49 23 52 197 53 111 1 139 -2 143 -13 3 -8 -11 -46 -32 -83 -64 -116 -224 -437 -224 -450 0 -18 -41 -43 -72 -43 -16 0 -28 -4 -28 -8 0 -5 65 -9 145 -9 143 0 184 8 105 21 -23 4 -43 13 -47 22 -5 14 7 68 27 119 5 11 18 47 30 80 33 90 68 167 161 360 22 44 39 83 39 87 0 4 -96 9 -212 10 -204 3 -213 4 -216 23 -9 47 -21 32 -26 -31z" fill="#040404" id="040404-000100"/>
    <path stroke="none" d="M10595 7808 c-16 -6 -39 -14 -50 -18 -11 -4 -53 -18 -92 -30 -80 -26 -99 -47 -30 -34 23 5 58 8 77 9 l35 0 3 -296 c3 -338 12 -306 -96 -316 -34 -3 -60 -9 -56 -12 8 -9 404 -9 404 -1 0 4 -24 10 -54 12 -94 8 -88 -15 -84 365 3 366 7 343 -57 321z" fill="#040404" id="040404-000103"/>
    <path stroke="none" d="M8000 7800 c-105 -14 -176 -48 -247 -118 -77 -76 -97 -127 -98 -247 0 -116 13 -152 81 -225 41 -44 86 -72 161 -100 43 -16 237 -17 288 -1 191 59 306 213 293 393 -9 134 -94 238 -228 281 -57 19 -178 27 -250 17z" fill="#040404" id="040404-000101"/>
    <path stroke="none" d="M8108 7766 c151 -41 252 -178 252 -344 0 -98 -27 -163 -94 -225 -53 -50 -85 -62 -171 -62 -66 0 -90 5 -135 26 -61 29 -139 106 -162 160 -34 78 -38 93 -38 155 0 82 16 133 60 191 38 50 82 77 158 98 62 17 68 17 130 1z" fill="#ffffff" id="ffffff-000024"/>
    <path stroke="none" d="M8940 7800 c-105 -14 -176 -48 -247 -118 -77 -76 -97 -127 -98 -247 0 -116 13 -152 81 -225 41 -44 86 -72 161 -100 43 -16 237 -17 288 -1 191 59 306 213 293 393 -9 134 -94 238 -228 281 -57 19 -178 27 -250 17z" fill="#040404" id="040404-000102"/>
    <path stroke="none" d="M9048 7766 c152 -41 252 -178 252 -346 0 -113 -59 -217 -153 -267 -53 -29 -178 -25 -247 8 -61 29 -139 106 -162 160 -34 78 -38 93 -38 155 0 82 16 133 60 191 38 50 82 77 158 98 62 17 68 17 130 1z" fill="#ffffff" id="ffffff-000025"/>
    <path stroke="none" d="M6900 7790 c0 -5 11 -10 24 -10 14 0 36 -4 50 -10 l26 -10 0 -309 c0 -297 -1 -311 -19 -321 -11 -5 -33 -10 -50 -10 -17 0 -31 -4 -31 -8 0 -5 70 -8 155 -8 85 0 155 3 155 8 0 4 -15 8 -34 8 -57 0 -66 24 -66 168 0 89 3 124 13 126 73 23 75 22 166 -76 144 -157 253 -258 278 -258 23 0 31 14 13 25 -33 20 -240 327 -240 355 0 10 13 28 30 40 40 29 87 98 95 141 8 45 -21 99 -66 120 -19 9 -66 22 -106 28 -91 14 -393 15 -393 1z" fill="#040404" id="040404-000105"/>
    <path stroke="none" d="M7205 7764 c99 -16 153 -78 141 -161 -7 -54 -26 -84 -76 -117 -47 -31 -138 -46 -151 -25 -12 20 -11 276 2 300 6 12 17 18 27 15 9 -3 35 -8 57 -12z" fill="#ffffff" id="ffffff-000023"/>
    <path stroke="none" d="M9510 7790 c0 -5 13 -10 29 -10 16 0 41 -4 55 -10 l26 -10 0 -310 0 -310 -26 -10 c-14 -6 -36 -10 -50 -10 -13 0 -24 -4 -24 -8 0 -4 77 -8 170 -8 164 -1 224 8 120 18 -84 8 -80 -8 -80 328 0 339 -3 327 77 315 84 -12 128 -51 139 -122 14 -93 -19 -161 -100 -204 -63 -33 -62 -53 1 -28 150 60 213 125 215 221 2 90 -43 132 -166 154 -86 16 -386 19 -386 4z" fill="#040404" id="040404-000106"/>
    <path stroke="none" d="M3243 15025 c-323 -79 -581 -451 -496 -715 37 -116 185 -210 330 -210 36 0 145 20 188 35 55 18 185 89 225 122 92 76 151 147 193 233 41 84 42 86 42 195 0 131 -19 180 -95 248 -106 96 -241 128 -387 92z" fill="#040404" id="040404-000007"/>
    <path stroke="none" d="M2089 13672 c-19 -9 -55 -32 -78 -51 -51 -40 -181 -206 -181 -230 0 -15 109 -93 268 -191 61 -38 54 -41 104 55 55 108 78 183 78 263 0 80 -14 118 -56 151 -33 26 -86 27 -135 3z" fill="#040404" id="040404-000008"/>
    <path stroke="none" d="M1340 12359 c-19 -12 -47 -36 -63 -53 -31 -33 -97 -164 -97 -191 0 -9 16 -23 38 -32 20 -8 60 -25 87 -37 28 -13 77 -33 110 -46 33 -13 64 -27 70 -32 32 -28 58 17 82 145 12 64 12 89 3 126 -30 119 -138 175 -230 120z" fill="#040404" id="040404-000009"/>
    <path stroke="none" d="M1794 12230 c-34 -16 -79 -49 -101 -73 -49 -53 -114 -163 -116 -195 -2 -28 13 -38 113 -72 19 -7 44 -16 55 -20 11 -4 53 -18 94 -30 l75 -23 19 24 c46 55 107 216 107 282 0 41 -36 104 -70 122 -45 24 -107 18 -176 -15z" fill="#040404" id="040404-000010"/>
    <path stroke="none" d="M13235 2973 c-157 -35 -236 -71 -332 -152 -96 -81 -150 -155 -194 -271 -8 -19 -14 -73 -14 -120 0 -120 38 -211 121 -295 94 -93 206 -135 366 -135 293 0 530 157 629 420 17 45 17 194 0 245 -40 118 -165 231 -316 286 -63 23 -203 35 -260 22z" fill="#040404" id="040404-000107"/>
    <path stroke="none" d="M4801 2920 c-34 -22 -63 -40 -65 -40 -2 0 -34 -18 -71 -41 -123 -74 -150 -90 -167 -96 -34 -11 -18 -33 69 -95 47 -35 112 -82 143 -105 32 -24 60 -43 63 -43 3 0 11 26 17 58 6 31 16 75 20 97 5 22 19 87 31 145 11 58 25 115 30 127 14 37 -5 35 -70 -7z" fill="#040404" id="040404-000108"/>
    <path stroke="none" d="M11705 2189 c-115 -25 -142 -32 -158 -44 -16 -12 -16 -16 2 -71 26 -80 90 -264 101 -289 4 -11 13 -35 20 -52 7 -18 18 -33 25 -33 7 0 45 16 85 36 83 42 180 131 204 188 20 47 21 126 2 170 -34 82 -155 123 -281 95z" fill="#040404" id="040404-000109"/>
    <path stroke="none" d="M9135 1543 c-37 -95 -53 -134 -95 -227 -10 -24 -22 -56 -26 -70 l-6 -26 175 0 c97 0 178 4 181 8 2 4 -1 21 -9 37 -7 17 -22 51 -34 78 -11 26 -31 68 -42 95 -12 26 -28 63 -36 82 -8 19 -21 48 -29 64 -8 16 -14 35 -14 43 0 7 -6 13 -13 13 -8 0 -30 -42 -52 -97z" fill="#040404" id="040404-000110"/>
  </g>
</svg>
