<svg xmlns="http://www.w3.org/2000/svg" version="1.0" width="4756.000000pt" height="1536.000000pt" viewBox="0 0 4756.000000 1536.000000" preserveAspectRatio="xMidYMid meet">
  <g transform="translate(0.000000,1536.000000) scale(0.100000,-0.100000)" stroke="none">
    <path stroke="none" d="M 27625.0,14670.0 C 27340.0,14640.0 27108.0,14538.0 26949.0,14374.0 C 26795.0,14215.0 26720.0,14018.0 26720.0,13780.0 C 26721.0,13509.0 26845.0,13253.0 27040.0,13121.0 C 27100.0,13080.0 27221.0,13020.0 27242.0,13020.0 C 27250.0,13020.0 27260.0,13016.0 27265.0,13012.0 C 27274.0,13005.0 27306.0,12994.0 27450.0,12950.0 C 27464.0,12946.0 27495.0,12937.0 27520.0,12930.0 C 27545.0,12923.0 27576.0,12914.0 27590.0,12910.0 C 27604.0,12906.0 27635.0,12897.0 27660.0,12890.0 C 27685.0,12883.0 27716.0,12874.0 27730.0,12870.0 C 27744.0,12866.0 27775.0,12857.0 27800.0,12850.0 C 27825.0,12843.0 27856.0,12834.0 27870.0,12830.0 C 27884.0,12826.0 27915.0,12817.0 27940.0,12810.0 C 28128.0,12757.0 28207.0,12722.0 28268.0,12667.0 C 28322.0,12617.0 28354.0,12550.0 28370.0,12450.0 C 28381.0,12381.0 28380.0,12370.0 28360.0,12310.0 C 28331.0,12223.0 28282.0,12159.0 28207.0,12110.0 C 28129.0,12059.0 28044.0,12032.0 27915.0,12019.0 C 27719.0,11998.0 27491.0,12031.0 27345.0,12101.0 C 27222.0,12160.0 27101.0,12304.0 27083.0,12412.0 C 27075.0,12466.0 27063.0,12472.0 26989.0,12461.0 C 26925.0,12451.0 26810.0,12428.0 26735.0,12410.0 C 26713.0,12405.0 26663.0,12393.0 26624.0,12384.0 C 26515.0,12359.0 26518.0,12367.0 26569.0,12235.0 C 26635.0,12066.0 26766.0,11903.0 26915.0,11804.0 C 26977.0,11763.0 27119.0,11691.0 27180.0,11670.0 C 27199.0,11663.0 27224.0,11655.0 27235.0,11650.0 C 27397.0,11589.0 27667.0,11556.0 27890.0,11571.0 C 28090.0,11584.0 28207.0,11607.0 28360.0,11665.0 C 28473.0,11708.0 28601.0,11786.0 28691.0,11868.0 C 28762.0,11933.0 28865.0,12075.0 28889.0,12140.0 C 28896.0,12159.0 28906.0,12184.0 28910.0,12195.0 C 28948.0,12290.0 28964.0,12392.0 28963.0,12528.0 C 28962.0,12678.0 28941.0,12765.0 28872.0,12907.0 C 28799.0,13057.0 28689.0,13163.0 28516.0,13248.0 C 28396.0,13307.0 28280.0,13346.0 27953.0,13435.0 C 27646.0,13520.0 27541.0,13556.0 27458.0,13606.0 C 27399.0,13642.0 27340.0,13702.0 27313.0,13755.0 C 27290.0,13798.0 27291.0,13952.0 27314.0,14003.0 C 27342.0,14067.0 27408.0,14129.0 27485.0,14165.0 C 27587.0,14214.0 27630.0,14222.0 27780.0,14223.0 C 27945.0,14225.0 27993.0,14215.0 28124.0,14154.0 C 28188.0,14125.0 28274.0,14037.0 28314.0,13961.0 C 28349.0,13893.0 28376.0,13870.0 28402.0,13886.0 C 28409.0,13890.0 28434.0,13897.0 28457.0,13902.0 C 28503.0,13911.0 28561.0,13923.0 28625.0,13938.0 C 28672.0,13950.0 28759.0,13969.0 28814.0,13980.0 C 28869.0,13991.0 28875.0,14004.0 28850.0,14065.0 C 28846.0,14076.0 28836.0,14101.0 28829.0,14120.0 C 28805.0,14186.0 28736.0,14289.0 28676.0,14353.0 C 28460.0,14577.0 28015.0,14712.0 27625.0,14670.0" fill="#000000" id="000000-000001"/>
    <path stroke="none" d="M 20915.0,14650.0 L 20875.0,14645.0 L 20878.0,14095.0 C 20880.0,13793.0 20885.0,13403.0 20891.0,13230.0 C 20896.0,13057.0 20900.0,12731.0 20900.0,12505.0 C 20900.0,12093.0 20915.0,11651.0 20928.0,11638.0 C 20932.0,11634.0 21045.0,11633.0 21179.0,11637.0 L 21423.0,11643.0 L 21417.0,12379.0 C 21408.0,13333.0 21391.0,14405.0 21382.0,14545.0 L 21375.0,14655.0 L 21165.0,14655.0 C 21050.0,14655.0 20937.0,14653.0 20915.0,14650.0" fill="#000000" id="000000-000002"/>
    <path stroke="none" d="M 19840.0,14631.0 L 19785.0,14625.0 L 19788.0,14370.0 C 19790.0,14230.0 19794.0,14112.0 19796.0,14108.0 C 19802.0,14099.0 20135.0,14099.0 20230.0,14109.0 L 20295.0,14115.0 L 20292.0,14350.0 C 20291.0,14479.0 20287.0,14597.0 20284.0,14613.0 L 20278.0,14640.0 L 20087.0,14638.0 C 19981.0,14637.0 19870.0,14634.0 19840.0,14631.0" fill="#000000" id="000000-000003"/>
    <path stroke="none" d="M 15470.0,14489.0 C 15412.0,14485.0 15264.0,14476.0 15140.0,14470.0 C 15016.0,14464.0 14839.0,14455.0 14745.0,14450.0 C 14652.0,14445.0 14485.0,14436.0 14375.0,14430.0 C 14148.0,14418.0 13865.0,14402.0 13743.0,14394.0 L 13660.0,14388.0 L 13661.0,14322.0 C 13661.0,14285.0 13667.0,14181.0 13673.0,14090.0 L 13685.0,13925.0 L 13775.0,13925.0 C 13825.0,13926.0 13975.0,13932.0 14110.0,13939.0 C 14245.0,13946.0 14382.0,13952.0 14415.0,13953.0 L 14475.0,13955.0 L 14482.0,13875.0 C 14486.0,13831.0 14494.0,13701.0 14500.0,13585.0 C 14511.0,13363.0 14523.0,13149.0 14540.0,12830.0 C 14546.0,12723.0 14555.0,12552.0 14560.0,12450.0 C 14586.0,11953.0 14602.0,11687.0 14617.0,11496.0 L 14623.0,11417.0 L 14754.0,11425.0 C 14826.0,11429.0 14955.0,11435.0 15040.0,11439.0 L 15195.0,11445.0 L 15194.0,11585.0 C 15194.0,11662.0 15188.0,11829.0 15181.0,11955.0 C 15174.0,12082.0 15165.0,12262.0 15160.0,12355.0 C 15149.0,12566.0 15133.0,12869.0 15120.0,13105.0 C 15115.0,13204.0 15106.0,13377.0 15100.0,13490.0 C 15094.0,13603.0 15086.0,13757.0 15082.0,13833.0 C 15076.0,13959.0 15077.0,13973.0 15092.0,13981.0 C 15110.0,13991.0 15278.0,14002.0 15644.0,14020.0 C 15754.0,14025.0 15848.0,14034.0 15853.0,14039.0 C 15864.0,14050.0 15857.0,14454.0 15845.0,14483.0 C 15839.0,14498.0 15823.0,14500.0 15706.0,14499.0 C 15634.0,14498.0 15528.0,14493.0 15470.0,14489.0" fill="#000000" id="000000-000004"/>
    <path stroke="none" d="M 31880.0,14491.0 C 31845.0,14485.0 31845.0,14485.0 31838.0,14420.0 C 31834.0,14385.0 31826.0,14241.0 31820.0,14100.0 C 31814.0,13960.0 31805.0,13757.0 31800.0,13650.0 C 31795.0,13543.0 31786.0,13358.0 31780.0,13240.0 C 31775.0,13122.0 31766.0,12931.0 31760.0,12815.0 C 31747.0,12547.0 31733.0,12248.0 31721.0,11950.0 C 31716.0,11821.0 31708.0,11662.0 31705.0,11598.0 L 31699.0,11480.0 L 31727.0,11480.0 C 31742.0,11480.0 31807.0,11475.0 31870.0,11470.0 C 31933.0,11465.0 32032.0,11460.0 32090.0,11459.0 L 32195.0,11457.0 L 32202.0,11492.0 C 32213.0,11545.0 32227.0,11786.0 32260.0,12510.0 C 32266.0,12628.0 32275.0,12817.0 32280.0,12930.0 C 32286.0,13043.0 32294.0,13232.0 32300.0,13350.0 C 32305.0,13468.0 32314.0,13657.0 32320.0,13770.0 C 32342.0,14221.0 32349.0,14455.0 32341.0,14463.0 C 32336.0,14468.0 32256.0,14476.0 32163.0,14481.0 C 32071.0,14486.0 31977.0,14491.0 31955.0,14493.0 C 31933.0,14495.0 31899.0,14494.0 31880.0,14491.0" fill="#000000" id="000000-000005"/>
    <path stroke="none" d="M 25245.0,13940.0 C 25161.0,13925.0 25038.0,13857.0 24961.0,13782.0 C 24891.0,13713.0 24795.0,13569.0 24769.0,13495.0 C 24762.0,13473.0 24753.0,13451.0 24749.0,13447.0 C 24745.0,13442.0 24739.0,13537.0 24735.0,13657.0 C 24730.0,13800.0 24724.0,13878.0 24716.0,13882.0 C 24696.0,13896.0 24296.0,13891.0 24277.0,13878.0 C 24261.0,13866.0 24260.0,13790.0 24262.0,12760.0 L 24265.0,11655.0 L 24513.0,11652.0 C 24649.0,11651.0 24760.0,11651.0 24761.0,11652.0 C 24761.0,11654.0 24766.0,11918.0 24770.0,12240.0 C 24778.0,12816.0 24779.0,12826.0 24803.0,12910.0 C 24860.0,13112.0 24932.0,13238.0 25025.0,13297.0 C 25124.0,13360.0 25165.0,13375.0 25301.0,13391.0 L 25397.0,13403.0 L 25404.0,13514.0 C 25412.0,13664.0 25411.0,13912.0 25402.0,13926.0 C 25392.0,13942.0 25304.0,13950.0 25245.0,13940.0" fill="#000000" id="000000-000007"/>
    <path stroke="none" d="M 22710.0,13920.0 C 22506.0,13901.0 22297.0,13803.0 22152.0,13661.0 C 21979.0,13490.0 21885.0,13308.0 21832.0,13040.0 C 21812.0,12937.0 21800.0,12748.0 21810.0,12680.0 C 21815.0,12644.0 21820.0,12591.0 21820.0,12561.0 C 21820.0,12531.0 21824.0,12493.0 21830.0,12476.0 C 21835.0,12459.0 21849.0,12405.0 21861.0,12357.0 C 21881.0,12275.0 21891.0,12249.0 21956.0,12115.0 C 21987.0,12051.0 22068.0,11943.0 22134.0,11879.0 C 22182.0,11832.0 22300.0,11740.0 22313.0,11740.0 C 22317.0,11740.0 22341.0,11727.0 22367.0,11712.0 C 22393.0,11697.0 22433.0,11679.0 22455.0,11672.0 C 22477.0,11666.0 22524.0,11651.0 22559.0,11640.0 C 22594.0,11629.0 22646.0,11620.0 22674.0,11619.0 C 22702.0,11619.0 22750.0,11615.0 22780.0,11610.0 C 22879.0,11595.0 23127.0,11628.0 23235.0,11670.0 C 23405.0,11737.0 23549.0,11841.0 23657.0,11975.0 C 23712.0,12043.0 23799.0,12197.0 23800.0,12228.0 C 23800.0,12235.0 23805.0,12249.0 23812.0,12259.0 C 23829.0,12287.0 23815.0,12308.0 23773.0,12315.0 C 23752.0,12318.0 23706.0,12326.0 23670.0,12331.0 C 23634.0,12337.0 23583.0,12345.0 23555.0,12350.0 C 23528.0,12355.0 23474.0,12362.0 23435.0,12366.0 L 23365.0,12372.0 L 23325.0,12290.0 C 23251.0,12138.0 23115.0,12039.0 22953.0,12018.0 C 22843.0,12005.0 22724.0,12021.0 22641.0,12061.0 C 22522.0,12119.0 22401.0,12262.0 22378.0,12374.0 C 22356.0,12479.0 22339.0,12609.0 22342.0,12650.0 L 22345.0,12695.0 L 23097.0,12698.0 C 23805.0,12700.0 23850.0,12701.0 23859.0,12718.0 C 23872.0,12742.0 23856.0,12981.0 23835.0,13090.0 C 23819.0,13169.0 23791.0,13268.0 23770.0,13315.0 C 23765.0,13326.0 23748.0,13364.0 23732.0,13400.0 C 23660.0,13562.0 23514.0,13724.0 23365.0,13808.0 C 23194.0,13904.0 22962.0,13944.0 22710.0,13920.0M 22988.0,13548.0 C 23061.0,13519.0 23083.0,13507.0 23127.0,13473.0 C 23187.0,13427.0 23189.0,13425.0 23226.0,13370.0 C 23279.0,13292.0 23308.0,13208.0 23324.0,13089.0 L 23331.0,13043.0 L 22868.0,13037.0 C 22613.0,13033.0 22392.0,13031.0 22375.0,13033.0 C 22347.0,13035.0 22345.0,13037.0 22347.0,13074.0 C 22351.0,13128.0 22380.0,13239.0 22400.0,13275.0 C 22466.0,13391.0 22495.0,13433.0 22530.0,13463.0 C 22588.0,13513.0 22680.0,13555.0 22750.0,13564.0 C 22804.0,13570.0 22958.0,13560.0 22988.0,13548.0" fill="#000000" id="000000-000006"/>
    <path stroke="none" d="M 39573.0,13898.0 C 39567.0,13891.0 39560.0,13854.0 39556.0,13815.0 C 39543.0,13687.0 39530.0,13566.0 39520.0,13480.0 C 39514.0,13433.0 39505.0,13357.0 39500.0,13310.0 C 39495.0,13263.0 39486.0,13185.0 39480.0,13135.0 C 39474.0,13086.0 39465.0,13007.0 39460.0,12960.0 C 39454.0,12913.0 39445.0,12837.0 39440.0,12790.0 C 39434.0,12743.0 39425.0,12665.0 39420.0,12615.0 C 39414.0,12566.0 39405.0,12487.0 39400.0,12440.0 C 39394.0,12393.0 39385.0,12317.0 39380.0,12270.0 C 39375.0,12223.0 39366.0,12145.0 39360.0,12095.0 C 39354.0,12046.0 39345.0,11967.0 39340.0,11920.0 C 39335.0,11873.0 39326.0,11797.0 39320.0,11750.0 C 39315.0,11703.0 39306.0,11625.0 39300.0,11575.0 C 39295.0,11526.0 39286.0,11447.0 39280.0,11400.0 C 39270.0,11313.0 39255.0,11171.0 39241.0,11020.0 C 39235.0,10960.0 39236.0,10931.0 39244.0,10922.0 C 39251.0,10916.0 39301.0,10905.0 39355.0,10900.0 C 39410.0,10894.0 39491.0,10885.0 39535.0,10880.0 C 39579.0,10874.0 39650.0,10867.0 39692.0,10864.0 L 39769.0,10857.0 L 39774.0,10891.0 C 39780.0,10931.0 39795.0,11050.0 39810.0,11175.0 C 39816.0,11225.0 39825.0,11297.0 39830.0,11335.0 C 39835.0,11374.0 39844.0,11452.0 39850.0,11510.0 C 39856.0,11568.0 39865.0,11649.0 39870.0,11690.0 C 39875.0,11731.0 39884.0,11810.0 39890.0,11865.0 C 39896.0,11920.0 39905.0,11999.0 39910.0,12040.0 C 39915.0,12081.0 39924.0,12160.0 39930.0,12215.0 C 39936.0,12270.0 39945.0,12349.0 39950.0,12390.0 C 39955.0,12431.0 39964.0,12510.0 39970.0,12565.0 C 39976.0,12620.0 39985.0,12699.0 39990.0,12740.0 C 39995.0,12781.0 40004.0,12860.0 40010.0,12915.0 C 40016.0,12970.0 40025.0,13049.0 40030.0,13090.0 C 40035.0,13131.0 40044.0,13210.0 40050.0,13265.0 C 40056.0,13320.0 40065.0,13397.0 40070.0,13435.0 C 40075.0,13474.0 40084.0,13557.0 40090.0,13620.0 C 40096.0,13683.0 40106.0,13751.0 40111.0,13771.0 C 40129.0,13843.0 40126.0,13846.0 40025.0,13861.0 C 39709.0,13906.0 39587.0,13916.0 39573.0,13898.0" fill="#000000" id="000000-000008"/>
    <path stroke="none" d="M 18311.0,13849.0 C 18024.0,13837.0 17836.0,13792.0 17678.0,13699.0 C 17553.0,13626.0 17453.0,13515.0 17393.0,13384.0 C 17367.0,13328.0 17337.0,13203.0 17345.0,13190.0 C 17351.0,13180.0 17401.0,13171.0 17504.0,13160.0 C 17549.0,13155.0 17623.0,13146.0 17669.0,13141.0 C 17723.0,13134.0 17758.0,13134.0 17765.0,13140.0 C 17771.0,13145.0 17782.0,13169.0 17789.0,13192.0 C 17796.0,13216.0 17810.0,13250.0 17819.0,13267.0 C 17846.0,13319.0 17924.0,13394.0 17976.0,13419.0 C 18003.0,13432.0 18032.0,13446.0 18041.0,13450.0 C 18083.0,13471.0 18187.0,13484.0 18310.0,13484.0 C 18447.0,13483.0 18529.0,13467.0 18611.0,13424.0 C 18650.0,13404.0 18708.0,13330.0 18725.0,13279.0 C 18736.0,13243.0 18760.0,13067.0 18760.0,13016.0 C 18760.0,13007.0 18733.0,13001.0 18663.0,12997.0 C 18135.0,12962.0 17930.0,12925.0 17713.0,12824.0 C 17509.0,12730.0 17391.0,12603.0 17329.0,12416.0 C 17299.0,12324.0 17298.0,12315.0 17302.0,12188.0 C 17308.0,12026.0 17322.0,11972.0 17399.0,11835.0 C 17445.0,11753.0 17595.0,11622.0 17680.0,11590.0 C 17699.0,11583.0 17720.0,11574.0 17725.0,11570.0 C 17735.0,11563.0 17775.0,11553.0 17872.0,11531.0 C 17898.0,11525.0 17966.0,11520.0 18023.0,11520.0 C 18208.0,11520.0 18387.0,11569.0 18508.0,11652.0 C 18602.0,11717.0 18717.0,11855.0 18760.0,11955.0 C 18771.0,11980.0 18783.0,12000.0 18788.0,12000.0 C 18793.0,12000.0 18801.0,11976.0 18805.0,11948.0 C 18821.0,11835.0 18829.0,11792.0 18848.0,11720.0 C 18859.0,11679.0 18873.0,11633.0 18879.0,11617.0 L 18890.0,11590.0 L 19117.0,11596.0 C 19243.0,11600.0 19349.0,11606.0 19354.0,11611.0 C 19360.0,11616.0 19358.0,11636.0 19351.0,11662.0 C 19294.0,11855.0 19295.0,11845.0 19260.0,12945.0 C 19255.0,13105.0 19248.0,13251.0 19245.0,13270.0 C 19216.0,13446.0 19179.0,13537.0 19099.0,13625.0 C 18967.0,13769.0 18835.0,13823.0 18535.0,13854.0 C 18519.0,13855.0 18418.0,13853.0 18311.0,13849.0M 18756.0,12712.0 C 18771.0,12702.0 18780.0,12521.0 18769.0,12435.0 C 18740.0,12213.0 18631.0,12040.0 18470.0,11963.0 C 18340.0,11901.0 18111.0,11898.0 17995.0,11956.0 C 17871.0,12019.0 17799.0,12170.0 17828.0,12310.0 C 17854.0,12434.0 17921.0,12514.0 18056.0,12580.0 C 18170.0,12635.0 18170.0,12635.0 18270.0,12659.0 C 18369.0,12682.0 18401.0,12687.0 18570.0,12704.0 C 18727.0,12721.0 18742.0,12721.0 18756.0,12712.0" fill="#000000" id="000000-000009"/>
    <path stroke="none" d="M 19878.0,13853.0 C 19827.0,13850.0 19808.0,13845.0 19801.0,13832.0 C 19796.0,13822.0 19796.0,13643.0 19801.0,13400.0 C 19806.0,13172.0 19814.0,12744.0 19820.0,12450.0 C 19826.0,12156.0 19834.0,11848.0 19838.0,11765.0 L 19845.0,11615.0 L 19903.0,11615.0 C 19934.0,11616.0 20046.0,11617.0 20152.0,11618.0 L 20343.0,11620.0 L 20337.0,12228.0 C 20327.0,13173.0 20311.0,13832.0 20299.0,13847.0 C 20290.0,13857.0 20248.0,13860.0 20116.0,13858.0 C 20022.0,13857.0 19915.0,13855.0 19878.0,13853.0" fill="#000000" id="000000-000010"/>
    <path stroke="none" d="M 16914.0,13821.0 C 16891.0,13817.0 16844.0,13800.0 16809.0,13782.0 C 16628.0,13693.0 16499.0,13527.0 16434.0,13303.0 C 16417.0,13244.0 16400.0,13391.0 16400.0,13590.0 C 16400.0,13638.0 16395.0,13691.0 16389.0,13709.0 L 16378.0,13740.0 L 16282.0,13739.0 C 16228.0,13739.0 16127.0,13733.0 16055.0,13727.0 L 15925.0,13715.0 L 15926.0,13680.0 C 15931.0,13553.0 15952.0,13047.0 15960.0,12855.0 C 15966.0,12729.0 15974.0,12517.0 15980.0,12385.0 C 15995.0,12012.0 16011.0,11673.0 16018.0,11580.0 L 16025.0,11495.0 L 16265.0,11499.0 C 16397.0,11501.0 16509.0,11506.0 16514.0,11510.0 C 16523.0,11519.0 16517.0,11857.0 16500.0,12265.0 C 16487.0,12565.0 16491.0,12716.0 16514.0,12801.0 C 16596.0,13112.0 16715.0,13230.0 16990.0,13273.0 L 17075.0,13286.0 L 17078.0,13470.0 C 17079.0,13572.0 17077.0,13693.0 17073.0,13740.0 L 17065.0,13825.0 L 17010.0,13826.0 C 16980.0,13827.0 16936.0,13825.0 16914.0,13821.0" fill="#000000" id="000000-000011"/>
    <path stroke="none" d="M 30035.0,13808.0 C 29924.0,13795.0 29753.0,13747.0 29671.0,13706.0 C 29512.0,13626.0 29347.0,13432.0 29320.0,13292.0 C 29316.0,13272.0 29309.0,13248.0 29306.0,13239.0 C 29297.0,13219.0 29327.0,13207.0 29420.0,13190.0 C 29456.0,13184.0 29503.0,13175.0 29525.0,13170.0 C 29547.0,13165.0 29590.0,13156.0 29620.0,13150.0 C 29715.0,13130.0 29728.0,13135.0 29757.0,13208.0 C 29817.0,13358.0 29935.0,13431.0 30151.0,13452.0 C 30366.0,13474.0 30549.0,13425.0 30640.0,13323.0 C 30691.0,13265.0 30701.0,13219.0 30698.0,13066.0 L 30695.0,12937.0 L 30477.0,12939.0 C 29704.0,12947.0 29312.0,12767.0 29209.0,12360.0 C 29183.0,12254.0 29193.0,12048.0 29230.0,11955.0 C 29252.0,11899.0 29307.0,11801.0 29332.0,11775.0 C 29347.0,11759.0 29360.0,11742.0 29360.0,11738.0 C 29360.0,11723.0 29496.0,11620.0 29553.0,11592.0 C 29655.0,11543.0 29709.0,11528.0 29862.0,11509.0 C 29939.0,11499.0 29977.0,11499.0 30047.0,11509.0 C 30178.0,11528.0 30216.0,11538.0 30320.0,11587.0 C 30404.0,11626.0 30425.0,11642.0 30506.0,11724.0 C 30564.0,11784.0 30607.0,11838.0 30625.0,11874.0 C 30640.0,11905.0 30656.0,11933.0 30660.0,11935.0 C 30672.0,11942.0 30680.0,11914.0 30680.0,11867.0 C 30680.0,11844.0 30687.0,11789.0 30694.0,11745.0 C 30727.0,11558.0 30731.0,11536.0 30735.0,11530.0 C 30739.0,11523.0 31025.0,11506.0 31145.0,11505.0 L 31205.0,11505.0 L 31202.0,11555.0 C 31200.0,11583.0 31194.0,11630.0 31188.0,11660.0 C 31173.0,11730.0 31175.0,12289.0 31190.0,12498.0 C 31208.0,12737.0 31208.0,13253.0 31191.0,13320.0 C 31133.0,13549.0 30945.0,13721.0 30691.0,13776.0 C 30507.0,13816.0 30225.0,13830.0 30035.0,13808.0M 30688.0,12648.0 C 30702.0,12629.0 30684.0,12401.0 30660.0,12307.0 C 30638.0,12220.0 30615.0,12172.0 30559.0,12089.0 C 30447.0,11924.0 30259.0,11860.0 30002.0,11900.0 C 29912.0,11915.0 29816.0,11972.0 29777.0,12035.0 C 29710.0,12142.0 29704.0,12283.0 29763.0,12395.0 C 29780.0,12428.0 29861.0,12507.0 29899.0,12528.0 C 29969.0,12568.0 29989.0,12577.0 30030.0,12589.0 C 30055.0,12596.0 30086.0,12606.0 30100.0,12610.0 C 30215.0,12647.0 30665.0,12676.0 30688.0,12648.0" fill="#000000" id="000000-000012"/>
    <path stroke="none" d="M 33570.0,13644.0 C 33375.0,13606.0 33236.0,13548.0 33115.0,13452.0 C 33031.0,13386.0 33005.0,13359.0 32929.0,13257.0 C 32834.0,13130.0 32760.0,12963.0 32715.0,12775.0 C 32689.0,12667.0 32672.0,12353.0 32688.0,12275.0 C 32694.0,12248.0 32704.0,12194.0 32710.0,12155.0 C 32722.0,12089.0 32732.0,12051.0 32750.0,12005.0 C 32754.0,11994.0 32768.0,11958.0 32781.0,11925.0 C 32812.0,11843.0 32909.0,11698.0 32983.0,11622.0 C 33041.0,11562.0 33182.0,11459.0 33243.0,11432.0 C 33405.0,11360.0 33532.0,11335.0 33740.0,11335.0 C 33892.0,11335.0 33963.0,11346.0 34088.0,11386.0 C 34224.0,11431.0 34369.0,11527.0 34480.0,11646.0 C 34526.0,11695.0 34603.0,11809.0 34629.0,11865.0 C 34636.0,11882.0 34646.0,11903.0 34651.0,11912.0 C 34665.0,11940.0 34661.0,11968.0 34643.0,11973.0 C 34617.0,11980.0 34531.0,12000.0 34483.0,12011.0 C 34459.0,12016.0 34421.0,12024.0 34398.0,12030.0 C 34320.0,12047.0 34249.0,12060.0 34231.0,12060.0 C 34219.0,12060.0 34198.0,12034.0 34168.0,11983.0 C 34082.0,11835.0 33965.0,11757.0 33806.0,11740.0 C 33609.0,11720.0 33451.0,11777.0 33341.0,11910.0 C 33254.0,12014.0 33223.0,12111.0 33213.0,12302.0 C 33207.0,12436.0 33214.0,12466.0 33249.0,12455.0 C 33258.0,12453.0 33364.0,12445.0 33485.0,12439.0 C 33696.0,12429.0 33790.0,12424.0 34165.0,12401.0 C 34553.0,12377.0 34710.0,12371.0 34725.0,12376.0 C 34740.0,12382.0 34741.0,12403.0 34737.0,12569.0 C 34731.0,12792.0 34724.0,12843.0 34677.0,12982.0 C 34558.0,13337.0 34335.0,13548.0 34000.0,13626.0 C 33936.0,13641.0 33622.0,13654.0 33570.0,13644.0M 33820.0,13286.0 C 33922.0,13264.0 33956.0,13250.0 34015.0,13205.0 C 34071.0,13163.0 34091.0,13142.0 34128.0,13087.0 C 34187.0,13002.0 34219.0,12898.0 34220.0,12788.0 C 34220.0,12734.0 34218.0,12730.0 34198.0,12730.0 C 34167.0,12731.0 33907.0,12747.0 33392.0,12779.0 C 33313.0,12784.0 33247.0,12790.0 33245.0,12792.0 C 33238.0,12799.0 33300.0,13012.0 33322.0,13053.0 C 33354.0,13116.0 33459.0,13216.0 33526.0,13247.0 C 33638.0,13298.0 33716.0,13308.0 33820.0,13286.0" fill="#000000" id="000000-000013"/>
    <path stroke="none" d="M 11575.0,13505.0 C 11389.0,13470.0 11250.0,13374.0 11133.0,13200.0 C 11097.0,13146.0 11020.0,13001.0 11020.0,12986.0 C 11020.0,12980.0 11013.0,12967.0 11005.0,12956.0 C 10991.0,12938.0 10991.0,12938.0 10991.0,12956.0 C 10991.0,12982.0 10971.0,13249.0 10962.0,13335.0 L 10955.0,13405.0 L 10865.0,13403.0 C 10729.0,13401.0 10511.0,13378.0 10500.0,13365.0 C 10494.0,13358.0 10494.0,13303.0 10501.0,13219.0 C 10506.0,13145.0 10515.0,13027.0 10520.0,12955.0 C 10526.0,12884.0 10535.0,12768.0 10540.0,12698.0 C 10546.0,12627.0 10554.0,12513.0 10560.0,12443.0 C 10565.0,12372.0 10574.0,12257.0 10580.0,12185.0 C 10585.0,12114.0 10594.0,11997.0 10600.0,11925.0 C 10606.0,11854.0 10615.0,11737.0 10620.0,11665.0 C 10625.0,11594.0 10635.0,11481.0 10641.0,11415.0 C 10647.0,11349.0 10655.0,11264.0 10659.0,11225.0 L 10665.0,11155.0 L 10775.0,11158.0 C 10836.0,11160.0 10921.0,11166.0 10965.0,11171.0 C 11009.0,11176.0 11071.0,11180.0 11104.0,11180.0 L 11163.0,11180.0 L 11157.0,11328.0 C 11153.0,11409.0 11146.0,11529.0 11141.0,11595.0 C 11136.0,11661.0 11126.0,11780.0 11120.0,11860.0 C 11114.0,11940.0 11105.0,12055.0 11100.0,12115.0 C 11080.0,12350.0 11077.0,12478.0 11089.0,12569.0 C 11104.0,12674.0 11137.0,12773.0 11181.0,12842.0 C 11222.0,12906.0 11312.0,12985.0 11380.0,13018.0 C 11428.0,13041.0 11447.0,13044.0 11536.0,13044.0 C 11634.0,13044.0 11640.0,13042.0 11695.0,13009.0 C 11785.0,12955.0 11843.0,12878.0 11862.0,12785.0 C 11884.0,12676.0 11899.0,12559.0 11909.0,12400.0 C 11916.0,12304.0 11925.0,12180.0 11930.0,12125.0 C 11935.0,12070.0 11944.0,11955.0 11950.0,11870.0 C 11956.0,11785.0 11965.0,11670.0 11970.0,11615.0 C 11975.0,11560.0 11985.0,11458.0 11991.0,11387.0 C 11998.0,11317.0 12006.0,11258.0 12009.0,11256.0 C 12013.0,11253.0 12067.0,11256.0 12130.0,11261.0 C 12193.0,11266.0 12301.0,11275.0 12368.0,11280.0 C 12436.0,11285.0 12494.0,11291.0 12498.0,11294.0 C 12504.0,11301.0 12485.0,11662.0 12470.0,11810.0 C 12465.0,11862.0 12456.0,11975.0 12450.0,12060.0 C 12444.0,12145.0 12435.0,12265.0 12430.0,12325.0 C 12425.0,12386.0 12416.0,12498.0 12410.0,12575.0 C 12397.0,12751.0 12368.0,12956.0 12350.0,13005.0 C 12345.0,13016.0 12336.0,13045.0 12329.0,13070.0 C 12308.0,13141.0 12242.0,13261.0 12202.0,13303.0 C 12102.0,13407.0 11966.0,13476.0 11805.0,13504.0 C 11701.0,13522.0 11670.0,13523.0 11575.0,13505.0" fill="#000000" id="000000-000014"/>
    <path stroke="none" d="M 35604.0,13501.0 C 35448.0,13481.0 35260.0,13380.0 35167.0,13265.0 C 35111.0,13196.0 35047.0,13068.0 35031.0,12995.0 C 35025.0,12968.0 35016.0,12924.0 35010.0,12898.0 C 34993.0,12820.0 34999.0,12741.0 35031.0,12630.0 C 35063.0,12519.0 35139.0,12418.0 35263.0,12320.0 C 35299.0,12291.0 35468.0,12206.0 35520.0,12191.0 C 35545.0,12183.0 35585.0,12170.0 35610.0,12162.0 C 35635.0,12154.0 35671.0,12144.0 35690.0,12139.0 C 35709.0,12135.0 35741.0,12127.0 35760.0,12121.0 C 35799.0,12110.0 35937.0,12073.0 35986.0,12061.0 C 36017.0,12053.0 36035.0,12045.0 36119.0,11999.0 C 36230.0,11939.0 36264.0,11871.0 36235.0,11764.0 C 36211.0,11675.0 36159.0,11626.0 36055.0,11594.0 C 35976.0,11569.0 35756.0,11569.0 35657.0,11593.0 C 35518.0,11627.0 35414.0,11704.0 35352.0,11820.0 L 35323.0,11875.0 L 35274.0,11873.0 C 35228.0,11872.0 35170.0,11865.0 34985.0,11840.0 C 34860.0,11822.0 34858.0,11822.0 34849.0,11813.0 C 34844.0,11808.0 34848.0,11778.0 34860.0,11742.0 C 34903.0,11612.0 34985.0,11496.0 35093.0,11415.0 C 35142.0,11377.0 35301.0,11293.0 35365.0,11269.0 C 35413.0,11252.0 35448.0,11241.0 35490.0,11231.0 C 35515.0,11226.0 35560.0,11215.0 35590.0,11208.0 C 35627.0,11199.0 35715.0,11195.0 35860.0,11196.0 C 36056.0,11197.0 36083.0,11199.0 36171.0,11223.0 C 36338.0,11267.0 36506.0,11351.0 36575.0,11424.0 C 36610.0,11461.0 36680.0,11548.0 36680.0,11554.0 C 36680.0,11557.0 36689.0,11582.0 36701.0,11608.0 C 36735.0,11685.0 36738.0,11693.0 36745.0,11730.0 C 36759.0,11803.0 36762.0,12025.0 36750.0,12080.0 C 36714.0,12241.0 36605.0,12376.0 36440.0,12463.0 C 36364.0,12503.0 36263.0,12536.0 35973.0,12619.0 C 35664.0,12707.0 35606.0,12733.0 35537.0,12809.0 C 35502.0,12848.0 35500.0,12853.0 35500.0,12921.0 C 35500.0,12998.0 35512.0,13030.0 35557.0,13073.0 C 35610.0,13123.0 35678.0,13140.0 35827.0,13140.0 C 36000.0,13140.0 36079.0,13120.0 36169.0,13053.0 C 36205.0,13025.0 36260.0,12946.0 36260.0,12920.0 C 36260.0,12911.0 36269.0,12895.0 36279.0,12886.0 C 36299.0,12868.0 36298.0,12868.0 36465.0,12890.0 C 36504.0,12895.0 36577.0,12905.0 36628.0,12911.0 C 36679.0,12918.0 36723.0,12926.0 36725.0,12931.0 C 36733.0,12943.0 36702.0,13028.0 36658.0,13119.0 C 36568.0,13299.0 36394.0,13420.0 36135.0,13481.0 C 36064.0,13497.0 36004.0,13502.0 35855.0,13505.0 C 35751.0,13507.0 35638.0,13505.0 35604.0,13501.0" fill="#000000" id="000000-000015"/>
    <path stroke="none" d="M 10005.0,13340.0 C 9956.0,13336.0 9881.0,13329.0 9838.0,13325.0 L 9762.0,13317.0 L 9752.0,13276.0 C 9739.0,13224.0 9724.0,13145.0 9709.0,13055.0 C 9703.0,13017.0 9694.0,12967.0 9690.0,12945.0 C 9685.0,12923.0 9676.0,12876.0 9670.0,12840.0 C 9647.0,12701.0 9621.0,12554.0 9609.0,12490.0 C 9603.0,12460.0 9594.0,12410.0 9589.0,12380.0 C 9583.0,12350.0 9575.0,12305.0 9570.0,12280.0 C 9566.0,12255.0 9557.0,12208.0 9551.0,12175.0 C 9545.0,12142.0 9531.0,12070.0 9521.0,12015.0 C 9511.0,11960.0 9499.0,11895.0 9495.0,11872.0 C 9491.0,11848.0 9484.0,11832.0 9480.0,11837.0 C 9474.0,11844.0 9337.0,12191.0 9280.0,12345.0 C 9263.0,12393.0 9209.0,12533.0 9157.0,12670.0 C 9143.0,12706.0 9116.0,12780.0 9095.0,12835.0 C 9075.0,12890.0 9046.0,12969.0 9030.0,13010.0 C 9015.0,13051.0 8991.0,13114.0 8978.0,13148.0 C 8966.0,13183.0 8948.0,13215.0 8940.0,13220.0 C 8915.0,13232.0 8521.0,13194.0 8492.0,13176.0 C 8484.0,13171.0 8471.0,13107.0 8455.0,12995.0 C 8452.0,12973.0 8445.0,12926.0 8439.0,12890.0 C 8434.0,12854.0 8425.0,12796.0 8420.0,12760.0 C 8415.0,12724.0 8406.0,12664.0 8400.0,12625.0 C 8394.0,12587.0 8385.0,12524.0 8380.0,12485.0 C 8375.0,12447.0 8366.0,12386.0 8360.0,12350.0 C 8354.0,12314.0 8345.0,12254.0 8340.0,12215.0 C 8335.0,12177.0 8326.0,12116.0 8320.0,12080.0 C 8314.0,12044.0 8305.0,11990.0 8301.0,11960.0 C 8278.0,11803.0 8256.0,11691.0 8248.0,11696.0 C 8244.0,11699.0 8240.0,11707.0 8240.0,11715.0 C 8240.0,11722.0 8206.0,11808.0 8164.0,11906.0 C 8122.0,12004.0 8066.0,12141.0 8038.0,12210.0 C 8011.0,12279.0 7980.0,12353.0 7970.0,12375.0 C 7960.0,12397.0 7929.0,12474.0 7900.0,12545.0 C 7872.0,12617.0 7842.0,12690.0 7834.0,12708.0 C 7826.0,12725.0 7814.0,12755.0 7806.0,12773.0 C 7798.0,12790.0 7766.0,12869.0 7735.0,12947.0 C 7704.0,13025.0 7673.0,13091.0 7665.0,13094.0 C 7658.0,13096.0 7619.0,13095.0 7578.0,13089.0 C 7439.0,13072.0 7345.0,13061.0 7250.0,13049.0 C 7198.0,13043.0 7152.0,13034.0 7147.0,13030.0 C 7140.0,13024.0 7148.0,13001.0 7186.0,12913.0 C 7194.0,12895.0 7206.0,12865.0 7214.0,12848.0 C 7222.0,12830.0 7240.0,12789.0 7254.0,12757.0 C 7268.0,12725.0 7280.0,12697.0 7280.0,12695.0 C 7280.0,12692.0 7290.0,12668.0 7301.0,12642.0 C 7313.0,12616.0 7329.0,12580.0 7336.0,12563.0 C 7344.0,12545.0 7356.0,12515.0 7364.0,12498.0 C 7371.0,12480.0 7387.0,12444.0 7399.0,12418.0 C 7410.0,12392.0 7420.0,12368.0 7420.0,12365.0 C 7420.0,12363.0 7434.0,12331.0 7450.0,12295.0 C 7467.0,12259.0 7480.0,12227.0 7480.0,12225.0 C 7480.0,12222.0 7490.0,12198.0 7501.0,12172.0 C 7551.0,12060.0 7560.0,12040.0 7560.0,12035.0 C 7560.0,12033.0 7572.0,12005.0 7586.0,11973.0 C 7600.0,11941.0 7618.0,11902.0 7625.0,11885.0 C 7632.0,11869.0 7647.0,11834.0 7659.0,11808.0 C 7670.0,11782.0 7680.0,11758.0 7680.0,11755.0 C 7680.0,11753.0 7694.0,11721.0 7710.0,11685.0 C 7727.0,11649.0 7740.0,11617.0 7740.0,11615.0 C 7740.0,11613.0 7754.0,11581.0 7770.0,11545.0 C 7787.0,11509.0 7800.0,11477.0 7800.0,11475.0 C 7800.0,11472.0 7810.0,11448.0 7821.0,11422.0 C 7843.0,11374.0 7863.0,11328.0 7885.0,11275.0 C 7903.0,11233.0 7924.0,11184.0 7950.0,11125.0 C 7962.0,11098.0 7978.0,11062.0 7985.0,11045.0 C 7992.0,11029.0 8007.0,10994.0 8019.0,10968.0 C 8030.0,10942.0 8040.0,10916.0 8040.0,10911.0 C 8040.0,10893.0 8072.0,10891.0 8168.0,10900.0 C 8221.0,10906.0 8317.0,10915.0 8380.0,10921.0 C 8443.0,10926.0 8500.0,10936.0 8506.0,10943.0 C 8516.0,10954.0 8540.0,11084.0 8571.0,11295.0 C 8577.0,11334.0 8585.0,11390.0 8590.0,11420.0 C 8595.0,11450.0 8604.0,11511.0 8610.0,11555.0 C 8616.0,11599.0 8625.0,11660.0 8630.0,11690.0 C 8635.0,11720.0 8644.0,11781.0 8650.0,11825.0 C 8656.0,11869.0 8665.0,11932.0 8670.0,11965.0 C 8679.0,12023.0 8690.0,12097.0 8711.0,12245.0 C 8716.0,12284.0 8725.0,12337.0 8730.0,12363.0 C 8736.0,12390.0 8740.0,12431.0 8740.0,12456.0 C 8740.0,12480.0 8743.0,12500.0 8748.0,12500.0 C 8752.0,12500.0 8779.0,12438.0 8808.0,12362.0 C 8838.0,12287.0 8865.0,12216.0 8870.0,12205.0 C 8874.0,12194.0 8883.0,12169.0 8890.0,12150.0 C 8897.0,12131.0 8906.0,12106.0 8910.0,12095.0 C 8914.0,12084.0 8927.0,12049.0 8939.0,12018.0 C 8951.0,11986.0 8969.0,11934.0 8981.0,11903.0 C 8993.0,11871.0 9006.0,11836.0 9010.0,11825.0 C 9014.0,11814.0 9028.0,11778.0 9040.0,11745.0 C 9052.0,11712.0 9066.0,11676.0 9070.0,11665.0 C 9074.0,11654.0 9087.0,11620.0 9098.0,11590.0 C 9109.0,11560.0 9132.0,11498.0 9149.0,11453.0 C 9166.0,11407.0 9194.0,11333.0 9211.0,11288.0 C 9228.0,11242.0 9246.0,11196.0 9250.0,11185.0 C 9254.0,11174.0 9268.0,11138.0 9281.0,11105.0 C 9314.0,11017.0 9313.0,11017.0 9411.0,11029.0 C 9457.0,11035.0 9549.0,11044.0 9615.0,11051.0 C 9681.0,11057.0 9740.0,11063.0 9746.0,11065.0 C 9757.0,11068.0 9773.0,11118.0 9789.0,11200.0 C 9795.0,11230.0 9804.0,11278.0 9809.0,11305.0 C 9814.0,11333.0 9828.0,11407.0 9840.0,11470.0 C 9851.0,11533.0 9865.0,11605.0 9870.0,11630.0 C 9875.0,11655.0 9884.0,11707.0 9890.0,11745.0 C 9897.0,11784.0 9906.0,11833.0 9910.0,11855.0 C 9915.0,11877.0 9924.0,11924.0 9930.0,11960.0 C 9941.0,12028.0 9953.0,12090.0 9969.0,12175.0 C 9974.0,12203.0 9984.0,12254.0 9990.0,12290.0 C 9996.0,12326.0 10005.0,12375.0 10010.0,12400.0 C 10015.0,12425.0 10024.0,12474.0 10030.0,12510.0 C 10036.0,12546.0 10045.0,12595.0 10050.0,12620.0 C 10055.0,12645.0 10064.0,12694.0 10070.0,12730.0 C 10076.0,12766.0 10085.0,12815.0 10090.0,12840.0 C 10095.0,12865.0 10104.0,12914.0 10110.0,12950.0 C 10116.0,12986.0 10125.0,13035.0 10130.0,13060.0 C 10135.0,13085.0 10144.0,13134.0 10150.0,13170.0 C 10156.0,13206.0 10166.0,13254.0 10171.0,13277.0 C 10176.0,13300.0 10180.0,13326.0 10180.0,13334.0 C 10180.0,13352.0 10163.0,13352.0 10005.0,13340.0" fill="#000000" id="000000-000016"/>
    <path stroke="none" d="M 40632.0,12928.0 C 40626.0,12888.0 40618.0,12837.0 40616.0,12815.0 C 40613.0,12793.0 40606.0,12746.0 40600.0,12710.0 C 40594.0,12674.0 40585.0,12611.0 40580.0,12570.0 C 40575.0,12529.0 40566.0,12462.0 40560.0,12423.0 C 40555.0,12383.0 40546.0,12320.0 40540.0,12283.0 C 40535.0,12245.0 40526.0,12184.0 40520.0,12145.0 C 40515.0,12107.0 40505.0,12041.0 40500.0,12000.0 C 40494.0,11959.0 40485.0,11894.0 40479.0,11855.0 C 40474.0,11817.0 40465.0,11754.0 40460.0,11715.0 C 40455.0,11677.0 40446.0,11614.0 40440.0,11575.0 C 40434.0,11537.0 40425.0,11474.0 40420.0,11435.0 C 40415.0,11397.0 40406.0,11329.0 40400.0,11285.0 C 40357.0,10975.0 40347.0,10887.0 40346.0,10835.0 L 40345.0,10785.0 L 40405.0,10778.0 C 40438.0,10775.0 40499.0,10767.0 40540.0,10761.0 C 40581.0,10755.0 40649.0,10746.0 40690.0,10740.0 C 40731.0,10735.0 40780.0,10728.0 40797.0,10724.0 C 40835.0,10716.0 40833.0,10713.0 40849.0,10830.0 C 40856.0,10877.0 40865.0,10943.0 40870.0,10978.0 C 40891.0,11115.0 40899.0,11168.0 40910.0,11245.0 C 40936.0,11434.0 40944.0,11493.0 40985.0,11760.0 C 41017.0,11965.0 41023.0,11997.0 41042.0,12055.0 C 41097.0,12226.0 41203.0,12365.0 41318.0,12420.0 C 41344.0,12432.0 41373.0,12446.0 41383.0,12451.0 C 41393.0,12457.0 41437.0,12463.0 41481.0,12467.0 C 41592.0,12475.0 41664.0,12453.0 41738.0,12385.0 C 41794.0,12334.0 41824.0,12281.0 41850.0,12187.0 C 41863.0,12137.0 41860.0,12028.0 41840.0,11900.0 C 41834.0,11864.0 41826.0,11801.0 41820.0,11760.0 C 41815.0,11719.0 41806.0,11654.0 41800.0,11615.0 C 41794.0,11577.0 41785.0,11514.0 41780.0,11475.0 C 41775.0,11437.0 41766.0,11374.0 41760.0,11335.0 C 41755.0,11297.0 41745.0,11231.0 41740.0,11190.0 C 41734.0,11149.0 41725.0,11086.0 41720.0,11050.0 C 41709.0,10965.0 41692.0,10840.0 41681.0,10742.0 C 41675.0,10699.0 41668.0,10652.0 41665.0,10638.0 C 41660.0,10618.0 41663.0,10611.0 41677.0,10607.0 C 41705.0,10598.0 41797.0,10583.0 41895.0,10570.0 C 41945.0,10563.0 42019.0,10552.0 42060.0,10545.0 C 42101.0,10539.0 42140.0,10535.0 42146.0,10537.0 C 42157.0,10541.0 42167.0,10584.0 42189.0,10720.0 C 42213.0,10870.0 42247.0,11103.0 42261.0,11215.0 C 42266.0,11254.0 42274.0,11314.0 42280.0,11350.0 C 42286.0,11386.0 42295.0,11449.0 42300.0,11490.0 C 42305.0,11531.0 42314.0,11594.0 42320.0,11630.0 C 42377.0,11991.0 42392.0,12230.0 42365.0,12359.0 C 42324.0,12553.0 42258.0,12656.0 42103.0,12766.0 C 41998.0,12842.0 41817.0,12900.0 41687.0,12900.0 C 41575.0,12900.0 41431.0,12848.0 41325.0,12770.0 C 41233.0,12702.0 41105.0,12561.0 41072.0,12493.0 C 41052.0,12451.0 41036.0,12450.0 41044.0,12493.0 C 41047.0,12510.0 41055.0,12559.0 41060.0,12600.0 C 41065.0,12641.0 41075.0,12709.0 41080.0,12750.0 C 41086.0,12791.0 41093.0,12850.0 41096.0,12881.0 L 41103.0,12938.0 L 41069.0,12942.0 C 41050.0,12945.0 40988.0,12954.0 40930.0,12964.0 C 40872.0,12973.0 40797.0,12985.0 40764.0,12990.0 C 40730.0,12996.0 40689.0,13000.0 40673.0,13000.0 C 40643.0,13000.0 40643.0,12999.0 40632.0,12928.0" fill="#000000" id="000000-000017"/>
    <path stroke="none" d="M 1907.0,12939.0 C 1621.0,12875.0 1377.0,12723.0 1209.0,12506.0 C 1190.0,12481.0 1086.0,12282.0 1077.0,12254.0 C 1074.0,12244.0 1062.0,12204.0 1050.0,12165.0 C 1014.0,12049.0 1010.0,12029.0 995.0,11915.0 C 978.0,11787.0 976.0,11615.0 990.0,11480.0 C 1000.0,11392.0 1006.0,11358.0 1044.0,11180.0 C 1058.0,11112.0 1085.0,11028.0 1140.0,10880.0 C 1157.0,10833.0 1178.0,10777.0 1185.0,10754.0 C 1209.0,10687.0 1386.0,10401.0 1460.0,10310.0 C 1661.0,10065.0 1924.0,9906.0 2185.0,9873.0 C 2389.0,9848.0 2690.0,9906.0 2884.0,10010.0 C 3029.0,10087.0 3081.0,10125.0 3191.0,10232.0 C 3268.0,10306.0 3397.0,10527.0 3425.0,10630.0 C 3428.0,10644.0 3436.0,10671.0 3441.0,10690.0 C 3471.0,10795.0 3480.0,10875.0 3480.0,11031.0 C 3480.0,11165.0 3477.0,11200.0 3465.0,11210.0 C 3450.0,11222.0 3452.0,11223.0 3220.0,11184.0 C 3168.0,11176.0 3094.0,11164.0 3055.0,11159.0 C 3017.0,11153.0 2981.0,11144.0 2975.0,11139.0 C 2969.0,11133.0 2965.0,11071.0 2964.0,10997.0 C 2964.0,10844.0 2951.0,10787.0 2888.0,10660.0 C 2816.0,10513.0 2695.0,10414.0 2537.0,10374.0 C 2448.0,10351.0 2306.0,10360.0 2222.0,10393.0 C 1940.0,10507.0 1732.0,10847.0 1601.0,11410.0 C 1565.0,11565.0 1555.0,11653.0 1555.0,11820.0 C 1555.0,12005.0 1572.0,12101.0 1628.0,12220.0 C 1715.0,12408.0 1958.0,12541.0 2156.0,12510.0 C 2284.0,12490.0 2367.0,12449.0 2465.0,12358.0 C 2554.0,12275.0 2607.0,12208.0 2679.0,12088.0 C 2708.0,12039.0 2735.0,12000.0 2739.0,12000.0 C 2743.0,12000.0 2765.0,12009.0 2788.0,12020.0 C 2810.0,12031.0 2834.0,12040.0 2840.0,12040.0 C 2845.0,12040.0 2858.0,12044.0 2868.0,12049.0 C 2910.0,12071.0 3143.0,12160.0 3156.0,12160.0 C 3162.0,12160.0 3173.0,12167.0 3180.0,12175.0 C 3210.0,12211.0 3007.0,12547.0 2886.0,12663.0 C 2782.0,12762.0 2655.0,12846.0 2538.0,12892.0 C 2403.0,12945.0 2364.0,12952.0 2165.0,12955.0 C 2024.0,12958.0 1980.0,12955.0 1907.0,12939.0" fill="#000000" id="000000-000018"/>
    <path stroke="none" d="M 6000.0,12920.0 C 5663.0,12887.0 5369.0,12688.0 5216.0,12390.0 C 5133.0,12230.0 5104.0,12121.0 5084.0,11893.0 C 5077.0,11824.0 5093.0,11631.0 5110.0,11560.0 C 5115.0,11541.0 5124.0,11503.0 5130.0,11475.0 C 5142.0,11425.0 5155.0,11384.0 5171.0,11343.0 C 5176.0,11330.0 5184.0,11310.0 5189.0,11298.0 C 5194.0,11285.0 5204.0,11259.0 5211.0,11240.0 C 5237.0,11171.0 5337.0,11017.0 5414.0,10925.0 C 5478.0,10850.0 5475.0,10853.0 5540.0,10800.0 C 5570.0,10775.0 5601.0,10750.0 5608.0,10743.0 C 5620.0,10732.0 5687.0,10698.0 5780.0,10657.0 C 5926.0,10592.0 6189.0,10583.0 6390.0,10635.0 C 6673.0,10709.0 6880.0,10866.0 7027.0,11119.0 C 7055.0,11168.0 7083.0,11223.0 7089.0,11242.0 C 7142.0,11403.0 7153.0,11447.0 7161.0,11535.0 C 7166.0,11590.0 7171.0,11644.0 7172.0,11655.0 C 7176.0,11691.0 7159.0,11924.0 7150.0,11960.0 C 7145.0,11979.0 7136.0,12016.0 7131.0,12043.0 C 7107.0,12147.0 7097.0,12185.0 7089.0,12194.0 C 7084.0,12200.0 7080.0,12210.0 7080.0,12217.0 C 7080.0,12229.0 7067.0,12262.0 7027.0,12350.0 C 6992.0,12427.0 6899.0,12559.0 6832.0,12628.0 C 6602.0,12861.0 6341.0,12953.0 6000.0,12920.0M 6238.0,12485.0 C 6311.0,12459.0 6353.0,12434.0 6396.0,12388.0 C 6502.0,12276.0 6560.0,12148.0 6610.0,11910.0 C 6626.0,11833.0 6634.0,11540.0 6622.0,11450.0 C 6587.0,11179.0 6393.0,11015.0 6127.0,11032.0 C 5934.0,11044.0 5781.0,11192.0 5695.0,11447.0 C 5667.0,11528.0 5660.0,11563.0 5635.0,11720.0 C 5593.0,11993.0 5646.0,12245.0 5773.0,12377.0 C 5811.0,12417.0 5895.0,12465.0 5965.0,12488.0 C 6014.0,12504.0 6189.0,12502.0 6238.0,12485.0" fill="#000000" id="000000-000019"/>
    <path stroke="none" d="M 4628.0,12731.0 C 4466.0,12687.0 4328.0,12553.0 4244.0,12360.0 C 4206.0,12272.0 4180.0,12181.0 4180.0,12133.0 C 4180.0,12115.0 4176.0,12100.0 4170.0,12100.0 C 4165.0,12100.0 4160.0,12114.0 4160.0,12131.0 C 4160.0,12149.0 4156.0,12179.0 4151.0,12199.0 C 4146.0,12219.0 4132.0,12287.0 4120.0,12350.0 C 4082.0,12555.0 4080.0,12560.0 4057.0,12560.0 C 4024.0,12560.0 3876.0,12532.0 3705.0,12495.0 C 3667.0,12487.0 3633.0,12480.0 3631.0,12480.0 C 3627.0,12480.0 3639.0,12377.0 3650.0,12325.0 C 3658.0,12286.0 3671.0,12220.0 3691.0,12110.0 C 3711.0,12007.0 3718.0,11965.0 3730.0,11900.0 C 3736.0,11864.0 3745.0,11815.0 3750.0,11790.0 C 3755.0,11765.0 3764.0,11716.0 3770.0,11680.0 C 3776.0,11644.0 3785.0,11595.0 3790.0,11570.0 C 3795.0,11545.0 3804.0,11496.0 3810.0,11460.0 C 3816.0,11424.0 3825.0,11377.0 3830.0,11355.0 C 3834.0,11333.0 3843.0,11284.0 3850.0,11245.0 C 3856.0,11207.0 3866.0,11154.0 3871.0,11128.0 C 3890.0,11030.0 3899.0,10983.0 3910.0,10920.0 C 3916.0,10884.0 3925.0,10835.0 3930.0,10810.0 C 3935.0,10785.0 3943.0,10738.0 3949.0,10705.0 C 3955.0,10672.0 3967.0,10609.0 3976.0,10565.0 C 3991.0,10492.0 3997.0,10462.0 4019.0,10335.0 L 4025.0,10295.0 L 4075.0,10297.0 C 4103.0,10298.0 4148.0,10303.0 4175.0,10309.0 C 4232.0,10320.0 4416.0,10355.0 4473.0,10365.0 C 4494.0,10368.0 4514.0,10378.0 4517.0,10386.0 C 4520.0,10394.0 4517.0,10428.0 4511.0,10460.0 C 4499.0,10523.0 4488.0,10589.0 4469.0,10705.0 C 4463.0,10744.0 4454.0,10793.0 4450.0,10815.0 C 4445.0,10837.0 4436.0,10887.0 4430.0,10925.0 C 4423.0,10964.0 4414.0,11013.0 4410.0,11035.0 C 4405.0,11057.0 4397.0,11100.0 4391.0,11130.0 C 4386.0,11160.0 4372.0,11232.0 4360.0,11290.0 C 4346.0,11366.0 4340.0,11436.0 4340.0,11537.0 C 4340.0,11669.0 4344.0,11705.0 4372.0,11835.0 C 4413.0,12025.0 4550.0,12147.0 4780.0,12197.0 C 4820.0,12206.0 4828.0,12223.0 4818.0,12282.0 C 4813.0,12311.0 4805.0,12362.0 4799.0,12395.0 C 4794.0,12428.0 4785.0,12480.0 4780.0,12510.0 C 4775.0,12540.0 4766.0,12595.0 4761.0,12631.0 C 4747.0,12719.0 4735.0,12750.0 4713.0,12749.0 C 4703.0,12749.0 4665.0,12741.0 4628.0,12731.0" fill="#000000" id="000000-000020"/>
    <path stroke="none" d="M 43603.0,12539.0 C 43422.0,12520.0 43213.0,12412.0 43068.0,12262.0 C 42889.0,12077.0 42760.0,11803.0 42719.0,11520.0 C 42703.0,11410.0 42697.0,11141.0 42709.0,11083.0 C 42715.0,11054.0 42725.0,11004.0 42731.0,10973.0 C 42742.0,10917.0 42772.0,10823.0 42791.0,10788.0 C 42796.0,10778.0 42800.0,10764.0 42800.0,10757.0 C 42800.0,10749.0 42818.0,10715.0 42840.0,10681.0 C 42862.0,10647.0 42880.0,10617.0 42880.0,10614.0 C 42880.0,10592.0 43061.0,10400.0 43082.0,10400.0 C 43087.0,10400.0 43104.0,10392.0 43118.0,10382.0 C 43164.0,10350.0 43253.0,10305.0 43295.0,10292.0 C 43480.0,10237.0 43481.0,10237.0 43636.0,10237.0 C 43719.0,10237.0 43802.0,10242.0 43821.0,10248.0 C 43840.0,10254.0 43875.0,10264.0 43900.0,10271.0 C 43925.0,10278.0 43950.0,10287.0 43955.0,10290.0 C 43961.0,10294.0 43981.0,10303.0 44000.0,10310.0 C 44119.0,10356.0 44265.0,10488.0 44366.0,10640.0 C 44424.0,10728.0 44494.0,10866.0 44486.0,10879.0 C 44483.0,10884.0 44394.0,10916.0 44290.0,10950.0 C 44133.0,11001.0 44095.0,11011.0 44076.0,11002.0 C 44063.0,10996.0 44035.0,10959.0 44012.0,10918.0 C 43957.0,10817.0 43876.0,10742.0 43783.0,10706.0 C 43719.0,10680.0 43702.0,10678.0 43623.0,10682.0 C 43436.0,10691.0 43314.0,10795.0 43254.0,10995.0 C 43241.0,11040.0 43237.0,11089.0 43237.0,11197.0 C 43238.0,11371.0 43250.0,11446.0 43310.0,11630.0 C 43314.0,11644.0 43324.0,11675.0 43331.0,11700.0 C 43338.0,11725.0 43366.0,11782.0 43392.0,11828.0 C 43418.0,11874.0 43440.0,11916.0 43440.0,11921.0 C 43440.0,11940.0 43567.0,12056.0 43610.0,12077.0 C 43709.0,12124.0 43808.0,12130.0 43915.0,12095.0 C 44055.0,12049.0 44108.0,11999.0 44166.0,11855.0 C 44170.0,11844.0 44181.0,11788.0 44189.0,11730.0 L 44205.0,11625.0 L 44347.0,11619.0 C 44426.0,11615.0 44518.0,11609.0 44553.0,11606.0 C 44638.0,11597.0 44640.0,11600.0 44629.0,11725.0 C 44599.0,12096.0 44462.0,12318.0 44185.0,12446.0 C 44080.0,12494.0 43943.0,12529.0 43810.0,12540.0 C 43747.0,12545.0 43693.0,12549.0 43690.0,12549.0 C 43687.0,12548.0 43648.0,12543.0 43603.0,12539.0" fill="#000000" id="000000-000021"/>
    <path stroke="none" d="M 37076.0,11668.0 C 37072.0,11650.0 37064.0,11572.0 37059.0,11495.0 C 37053.0,11418.0 37045.0,11310.0 37041.0,11255.0 C 37037.0,11200.0 37035.0,11150.0 37038.0,11143.0 C 37042.0,11129.0 37074.0,11120.0 37126.0,11120.0 C 37164.0,11120.0 37270.0,11104.0 37276.0,11097.0 C 37278.0,11095.0 37212.0,10960.0 37131.0,10797.0 C 36960.0,10457.0 36963.0,10480.0 37098.0,10480.0 C 37174.0,10480.0 37177.0,10481.0 37191.0,10507.0 C 37199.0,10522.0 37231.0,10574.0 37263.0,10622.0 C 37294.0,10670.0 37320.0,10712.0 37320.0,10715.0 C 37320.0,10719.0 37337.0,10747.0 37359.0,10778.0 C 37380.0,10809.0 37415.0,10864.0 37437.0,10900.0 C 37459.0,10936.0 37500.0,11003.0 37529.0,11049.0 C 37588.0,11145.0 37594.0,11168.0 37610.0,11375.0 C 37616.0,11458.0 37626.0,11549.0 37631.0,11579.0 C 37644.0,11643.0 37640.0,11647.0 37560.0,11655.0 C 37530.0,11658.0 37465.0,11665.0 37415.0,11670.0 C 37283.0,11685.0 37122.0,11700.0 37101.0,11700.0 C 37088.0,11700.0 37080.0,11690.0 37076.0,11668.0" fill="#000000" id="000000-000022"/>
    <path stroke="none" d="M 44713.0,10608.0 C 44707.0,10601.0 44688.0,10537.0 44671.0,10465.0 C 44653.0,10394.0 44634.0,10317.0 44629.0,10295.0 C 44623.0,10273.0 44615.0,10239.0 44610.0,10220.0 C 44605.0,10201.0 44597.0,10166.0 44591.0,10144.0 C 44572.0,10074.0 44576.0,10051.0 44608.0,10044.0 C 44623.0,10040.0 44660.0,10031.0 44690.0,10023.0 C 44746.0,10008.0 44782.0,9999.0 44855.0,9981.0 C 44877.0,9976.0 44938.0,9961.0 44990.0,9947.0 C 45098.0,9918.0 45102.0,9919.0 45118.0,9990.0 C 45124.0,10015.0 45138.0,10070.0 45149.0,10113.0 C 45161.0,10155.0 45179.0,10225.0 45191.0,10268.0 C 45202.0,10310.0 45216.0,10361.0 45222.0,10380.0 C 45250.0,10477.0 45248.0,10481.0 45170.0,10502.0 C 45136.0,10511.0 45096.0,10522.0 45035.0,10540.0 C 45000.0,10550.0 44730.0,10620.0 44725.0,10620.0 C 44724.0,10620.0 44718.0,10614.0 44713.0,10608.0" fill="#000000" id="000000-000023"/>
    <path stroke="none" d="M 13095.0,7003.0 C 13056.0,6997.0 13047.0,6989.0 13012.0,6927.0 C 12977.0,6865.0 12780.0,6671.0 12635.0,6557.0 C 12518.0,6464.0 12455.0,6431.0 12226.0,6340.0 L 12058.0,6273.0 L 12059.0,6004.0 C 12059.0,5857.0 12063.0,5733.0 12068.0,5729.0 C 12091.0,5706.0 12504.0,5954.0 12690.0,6103.0 C 12810.0,6199.0 12850.0,6230.0 12860.0,6232.0 C 12870.0,6235.0 12873.0,5696.0 12870.0,4523.0 L 12870.0,4380.0 L 12463.0,4379.0 C 12238.0,4379.0 12037.0,4376.0 12015.0,4372.0 L 11975.0,4365.0 L 11975.0,4155.0 C 11974.0,4039.0 11976.0,3939.0 11978.0,3933.0 C 11981.0,3923.0 12220.0,3920.0 13130.0,3920.0 L 14278.0,3920.0 L 14283.0,3943.0 C 14293.0,3985.0 14291.0,4345.0 14281.0,4360.0 C 14272.0,4373.0 14212.0,4375.0 13862.0,4378.0 L 13453.0,4381.0 L 13446.0,4511.0 C 13443.0,4583.0 13440.0,5170.0 13440.0,5817.0 C 13440.0,6463.0 13438.0,6996.0 13435.0,7001.0 C 13429.0,7010.0 13155.0,7011.0 13095.0,7003.0" fill="#000000" id="000000-000024"/>
    <path stroke="none" d="M 25574.0,7002.0 C 25568.0,6998.0 25544.0,6966.0 25520.0,6930.0 C 25448.0,6822.0 25188.0,6580.0 25044.0,6487.0 C 24973.0,6441.0 24737.0,6335.0 24623.0,6299.0 L 24560.0,6278.0 L 24560.0,6004.0 C 24560.0,5768.0 24562.0,5729.0 24575.0,5724.0 C 24583.0,5720.0 24596.0,5722.0 24603.0,5728.0 C 24609.0,5733.0 24656.0,5759.0 24705.0,5785.0 C 24844.0,5857.0 25104.0,6026.0 25179.0,6093.0 C 25193.0,6105.0 25221.0,6126.0 25240.0,6140.0 C 25259.0,6153.0 25277.0,6167.0 25280.0,6170.0 C 25291.0,6182.0 25369.0,6240.0 25374.0,6240.0 C 25378.0,6240.0 25379.0,5823.0 25378.0,5313.0 L 25375.0,4385.0 L 24933.0,4380.0 C 24690.0,4377.0 24488.0,4371.0 24483.0,4367.0 C 24473.0,4356.0 24478.0,3938.0 24489.0,3927.0 C 24493.0,3923.0 25013.0,3921.0 25646.0,3922.0 L 26795.0,3925.0 L 26798.0,4146.0 L 26800.0,4367.0 L 26769.0,4374.0 C 26752.0,4377.0 26561.0,4380.0 26345.0,4380.0 L 25953.0,4380.0 L 25946.0,4588.0 C 25943.0,4702.0 25940.0,5290.0 25940.0,5894.0 C 25941.0,6783.0 25938.0,6995.0 25928.0,7001.0 C 25912.0,7012.0 25589.0,7012.0 25574.0,7002.0" fill="#000000" id="000000-000025"/>
    <path stroke="none" d="M 29393.0,7002.0 C 29378.0,6997.0 29251.0,6817.0 28992.0,6430.0 C 28784.0,6119.0 28503.0,5700.0 28367.0,5498.0 C 28232.0,5296.0 28103.0,5101.0 28080.0,5064.0 L 28040.0,4997.0 L 28042.0,4801.0 L 28045.0,4605.0 L 28700.0,4600.0 C 29060.0,4597.0 29360.0,4592.0 29367.0,4587.0 C 29375.0,4582.0 29379.0,4493.0 29380.0,4258.0 C 29380.0,4082.0 29383.0,3933.0 29386.0,3929.0 C 29389.0,3924.0 29512.0,3920.0 29660.0,3920.0 C 29864.0,3920.0 29931.0,3923.0 29937.0,3933.0 C 29941.0,3939.0 29946.0,4089.0 29948.0,4265.0 C 29950.0,4441.0 29953.0,4587.0 29956.0,4590.0 C 29959.0,4593.0 30059.0,4597.0 30178.0,4600.0 L 30395.0,4605.0 L 30398.0,4843.0 L 30400.0,5080.0 L 30191.0,5080.0 C 30076.0,5080.0 29975.0,5083.0 29966.0,5086.0 C 29952.0,5091.0 29951.0,5195.0 29950.0,6043.0 C 29950.0,6566.0 29947.0,6996.0 29944.0,6999.0 C 29936.0,7008.0 29419.0,7010.0 29393.0,7002.0M 29396.0,6248.0 C 29393.0,6197.0 29387.0,5914.0 29382.0,5620.0 C 29376.0,5326.0 29372.0,5084.0 29371.0,5083.0 C 29371.0,5081.0 29199.0,5080.0 28990.0,5080.0 C 28725.0,5080.0 28610.0,5083.0 28610.0,5091.0 C 28610.0,5106.0 28803.0,5434.0 28860.0,5515.0 C 28871.0,5532.0 28901.0,5579.0 28927.0,5620.0 C 28952.0,5661.0 29001.0,5739.0 29036.0,5792.0 C 29071.0,5846.0 29100.0,5892.0 29100.0,5895.0 C 29100.0,5908.0 29384.0,6340.0 29393.0,6340.0 C 29398.0,6340.0 29399.0,6298.0 29396.0,6248.0" fill="#000000" id="000000-000026"/>
    <path stroke="none" d="M 10320.0,6980.0 C 10105.0,6967.0 9877.0,6897.0 9725.0,6797.0 C 9637.0,6740.0 9514.0,6614.0 9466.0,6532.0 C 9399.0,6420.0 9360.0,6269.0 9360.0,6122.0 C 9360.0,6043.0 9364.0,6020.0 9393.0,5915.0 C 9423.0,5806.0 9491.0,5700.0 9596.0,5599.0 C 9671.0,5529.0 9780.0,5447.0 9823.0,5431.0 C 9849.0,5421.0 9861.0,5400.0 9840.0,5400.0 C 9823.0,5400.0 9702.0,5342.0 9636.0,5301.0 C 9439.0,5182.0 9323.0,5041.0 9273.0,4863.0 C 9253.0,4792.0 9251.0,4584.0 9269.0,4525.0 C 9313.0,4383.0 9393.0,4248.0 9483.0,4164.0 C 9541.0,4110.0 9683.0,4020.0 9750.0,3995.0 C 9775.0,3986.0 9804.0,3975.0 9815.0,3970.0 C 9890.0,3940.0 9959.0,3923.0 10144.0,3890.0 C 10275.0,3867.0 10666.0,3879.0 10815.0,3911.0 C 10925.0,3935.0 10956.0,3942.0 10975.0,3950.0 C 10986.0,3954.0 11022.0,3968.0 11055.0,3980.0 C 11271.0,4059.0 11499.0,4255.0 11576.0,4427.0 C 11632.0,4553.0 11644.0,4607.0 11644.0,4755.0 C 11645.0,4876.0 11642.0,4904.0 11622.0,4964.0 C 11575.0,5104.0 11505.0,5208.0 11387.0,5313.0 C 11290.0,5399.0 11084.0,5530.0 11045.0,5530.0 C 11023.0,5530.0 11027.0,5548.0 11050.0,5555.0 C 11075.0,5563.0 11238.0,5670.0 11282.0,5707.0 C 11332.0,5750.0 11398.0,5820.0 11430.0,5865.0 C 11571.0,6067.0 11563.0,6372.0 11412.0,6592.0 C 11216.0,6875.0 10833.0,7011.0 10320.0,6980.0M 10599.0,6589.0 C 10735.0,6567.0 10843.0,6517.0 10920.0,6440.0 C 11003.0,6358.0 11020.0,6314.0 11020.0,6184.0 C 11020.0,6087.0 11017.0,6072.0 10991.0,6016.0 C 10951.0,5934.0 10906.0,5884.0 10818.0,5823.0 C 10729.0,5762.0 10675.0,5734.0 10630.0,5725.0 C 10558.0,5712.0 10174.0,5864.0 10051.0,5954.0 C 9964.0,6018.0 9920.0,6108.0 9920.0,6221.0 C 9920.0,6318.0 9947.0,6385.0 10013.0,6447.0 C 10141.0,6568.0 10378.0,6625.0 10599.0,6589.0 M 10381.0,5190.0 C 10433.0,5173.0 10484.0,5155.0 10495.0,5150.0 C 10506.0,5145.0 10544.0,5131.0 10580.0,5119.0 C 10693.0,5081.0 10846.0,5010.0 10909.0,4968.0 C 10953.0,4937.0 11024.0,4866.0 11045.0,4831.0 C 11067.0,4794.0 11080.0,4741.0 11080.0,4683.0 C 11080.0,4498.0 10933.0,4355.0 10685.0,4300.0 C 10483.0,4256.0 10188.0,4285.0 10030.0,4366.0 C 9889.0,4437.0 9780.0,4592.0 9780.0,4720.0 C 9780.0,4783.0 9829.0,4914.0 9872.0,4966.0 C 9879.0,4974.0 9921.0,5013.0 9965.0,5052.0 C 10022.0,5103.0 10073.0,5136.0 10145.0,5171.0 C 10200.0,5198.0 10255.0,5219.0 10266.0,5220.0 C 10278.0,5220.0 10330.0,5206.0 10381.0,5190.0" fill="#000000" id="000000-000027"/>
    <path stroke="none" d="M 20230.0,6980.0 C 19836.0,6952.0 19474.0,6734.0 19327.0,6435.0 C 19274.0,6328.0 19240.0,6244.0 19240.0,6220.0 C 19240.0,6194.0 19270.0,6186.0 19440.0,6160.0 C 19476.0,6154.0 19530.0,6145.0 19560.0,6140.0 C 19681.0,6117.0 19719.0,6116.0 19740.0,6135.0 C 19751.0,6145.0 19760.0,6160.0 19760.0,6168.0 C 19760.0,6192.0 19821.0,6292.0 19873.0,6352.0 C 19938.0,6428.0 20022.0,6483.0 20110.0,6509.0 C 20135.0,6516.0 20168.0,6527.0 20184.0,6533.0 C 20225.0,6548.0 20445.0,6547.0 20505.0,6531.0 C 20623.0,6500.0 20711.0,6441.0 20769.0,6356.0 C 20812.0,6291.0 20825.0,6236.0 20824.0,6120.0 C 20822.0,5991.0 20800.0,5933.0 20718.0,5849.0 C 20612.0,5738.0 20495.0,5702.0 20225.0,5694.0 C 20126.0,5691.0 20030.0,5687.0 20013.0,5684.0 L 19980.0,5679.0 L 19980.0,5465.0 C 19980.0,5300.0 19983.0,5250.0 19993.0,5248.0 C 19999.0,5248.0 20115.0,5246.0 20250.0,5246.0 C 20507.0,5245.0 20505.0,5245.0 20639.0,5192.0 C 20751.0,5147.0 20856.0,5028.0 20890.0,4905.0 C 20898.0,4877.0 20904.0,4815.0 20903.0,4764.0 C 20902.0,4687.0 20898.0,4664.0 20872.0,4608.0 C 20815.0,4483.0 20702.0,4390.0 20551.0,4343.0 C 20476.0,4320.0 20448.0,4317.0 20330.0,4317.0 C 20128.0,4318.0 20034.0,4345.0 19906.0,4441.0 C 19812.0,4511.0 19715.0,4653.0 19690.0,4757.0 C 19683.0,4783.0 19673.0,4801.0 19661.0,4805.0 C 19632.0,4814.0 19203.0,4707.0 19160.0,4680.0 C 19147.0,4672.0 19147.0,4664.0 19164.0,4618.0 C 19215.0,4471.0 19293.0,4353.0 19425.0,4223.0 C 19667.0,3986.0 19948.0,3880.0 20340.0,3880.0 C 20537.0,3880.0 20719.0,3906.0 20835.0,3950.0 C 21067.0,4037.0 21255.0,4178.0 21348.0,4335.0 C 21424.0,4462.0 21452.0,4541.0 21471.0,4682.0 C 21508.0,4966.0 21371.0,5246.0 21123.0,5394.0 C 21084.0,5417.0 21020.0,5447.0 20981.0,5460.0 C 20911.0,5484.0 20891.0,5500.0 20930.0,5500.0 C 20981.0,5500.0 21118.0,5590.0 21186.0,5667.0 C 21289.0,5785.0 21329.0,5862.0 21370.0,6019.0 C 21385.0,6075.0 21385.0,6274.0 21370.0,6331.0 C 21325.0,6504.0 21261.0,6611.0 21140.0,6716.0 C 21037.0,6806.0 20966.0,6848.0 20839.0,6897.0 C 20661.0,6966.0 20444.0,6995.0 20230.0,6980.0" fill="#000000" id="000000-000029"/>
    <path stroke="none" d="M 22865.0,6980.0 C 22540.0,6955.0 22240.0,6807.0 22053.0,6581.0 C 21980.0,6491.0 21881.0,6287.0 21880.0,6224.0 C 21880.0,6193.0 21911.0,6183.0 22070.0,6160.0 C 22106.0,6155.0 22160.0,6146.0 22190.0,6140.0 C 22220.0,6134.0 22273.0,6126.0 22308.0,6123.0 L 22370.0,6118.0 L 22395.0,6175.0 C 22468.0,6340.0 22574.0,6442.0 22745.0,6510.0 C 22828.0,6543.0 23069.0,6557.0 23137.0,6533.0 C 23152.0,6527.0 23183.0,6517.0 23205.0,6510.0 C 23247.0,6497.0 23321.0,6450.0 23355.0,6415.0 C 23391.0,6380.0 23436.0,6306.0 23448.0,6264.0 C 23455.0,6241.0 23460.0,6176.0 23460.0,6120.0 C 23460.0,6023.0 23458.0,6013.0 23425.0,5945.0 C 23383.0,5857.0 23329.0,5808.0 23218.0,5757.0 C 23111.0,5708.0 23056.0,5699.0 22829.0,5691.0 C 22710.0,5688.0 22627.0,5681.0 22620.0,5674.0 C 22613.0,5667.0 22612.0,5599.0 22617.0,5454.0 L 22625.0,5245.0 L 22875.0,5245.0 C 23078.0,5244.0 23136.0,5241.0 23183.0,5227.0 C 23321.0,5188.0 23411.0,5121.0 23478.0,5010.0 C 23529.0,4925.0 23533.0,4905.0 23534.0,4775.0 C 23535.0,4672.0 23533.0,4661.0 23504.0,4600.0 C 23460.0,4508.0 23406.0,4453.0 23309.0,4398.0 C 23191.0,4332.0 23124.0,4317.0 22960.0,4317.0 C 22802.0,4318.0 22705.0,4339.0 22605.0,4395.0 C 22493.0,4457.0 22361.0,4624.0 22330.0,4743.0 C 22312.0,4810.0 22298.0,4815.0 22193.0,4790.0 C 21983.0,4741.0 21798.0,4689.0 21782.0,4674.0 C 21767.0,4661.0 21882.0,4431.0 21944.0,4352.0 C 22007.0,4270.0 22155.0,4130.0 22228.0,4082.0 C 22263.0,4059.0 22294.0,4040.0 22297.0,4040.0 C 22300.0,4040.0 22314.0,4032.0 22328.0,4022.0 C 22343.0,4012.0 22371.0,3998.0 22390.0,3991.0 C 22409.0,3984.0 22436.0,3973.0 22450.0,3968.0 C 22464.0,3962.0 22484.0,3954.0 22495.0,3949.0 C 22506.0,3945.0 22534.0,3936.0 22558.0,3930.0 C 22581.0,3925.0 22617.0,3916.0 22638.0,3911.0 C 22795.0,3872.0 23125.0,3871.0 23305.0,3908.0 C 23419.0,3932.0 23444.0,3939.0 23520.0,3970.0 C 23612.0,4006.0 23642.0,4022.0 23720.0,4073.0 C 23791.0,4120.0 23960.0,4275.0 23960.0,4293.0 C 23960.0,4298.0 23974.0,4321.0 23991.0,4346.0 C 24008.0,4370.0 24031.0,4414.0 24042.0,4443.0 C 24053.0,4471.0 24066.0,4504.0 24070.0,4515.0 C 24097.0,4580.0 24104.0,4627.0 24104.0,4760.0 C 24105.0,4911.0 24100.0,4940.0 24053.0,5057.0 C 24016.0,5149.0 23976.0,5205.0 23885.0,5295.0 C 23800.0,5378.0 23689.0,5444.0 23586.0,5472.0 C 23537.0,5485.0 23525.0,5500.0 23563.0,5500.0 C 23613.0,5501.0 23734.0,5576.0 23806.0,5651.0 C 24011.0,5866.0 24073.0,6155.0 23974.0,6434.0 C 23849.0,6791.0 23383.0,7020.0 22865.0,6980.0" fill="#000000" id="000000-000030"/>
    <path stroke="none" d="M 31725.0,6980.0 C 31394.0,6953.0 31099.0,6807.0 30915.0,6579.0 C 30854.0,6504.0 30760.0,6332.0 30760.0,6295.0 C 30760.0,6284.0 30753.0,6266.0 30745.0,6256.0 C 30709.0,6208.0 30731.0,6194.0 30875.0,6170.0 C 30972.0,6154.0 31047.0,6141.0 31100.0,6130.0 C 31125.0,6125.0 31163.0,6119.0 31185.0,6118.0 L 31224.0,6115.0 L 31261.0,6186.0 C 31362.0,6385.0 31475.0,6479.0 31675.0,6531.0 C 31738.0,6548.0 31928.0,6547.0 32000.0,6531.0 C 32115.0,6503.0 32234.0,6420.0 32278.0,6335.0 C 32313.0,6267.0 32320.0,6231.0 32320.0,6122.0 C 32320.0,6027.0 32317.0,6013.0 32290.0,5954.0 C 32251.0,5873.0 32223.0,5841.0 32152.0,5794.0 C 32035.0,5716.0 31904.0,5690.0 31629.0,5690.0 C 31506.0,5690.0 31490.0,5688.0 31481.0,5672.0 C 31475.0,5661.0 31474.0,5575.0 31478.0,5450.0 L 31485.0,5245.0 L 31680.0,5248.0 C 32014.0,5253.0 32141.0,5223.0 32253.0,5114.0 C 32355.0,5015.0 32400.0,4914.0 32400.0,4785.0 C 32400.0,4663.0 32371.0,4585.0 32297.0,4505.0 C 32217.0,4416.0 32171.0,4387.0 32055.0,4350.0 C 31964.0,4320.0 31947.0,4318.0 31820.0,4318.0 C 31659.0,4318.0 31556.0,4341.0 31463.0,4397.0 C 31341.0,4470.0 31232.0,4608.0 31186.0,4748.0 C 31176.0,4777.0 31161.0,4804.0 31153.0,4807.0 C 31145.0,4810.0 31055.0,4791.0 30952.0,4765.0 C 30701.0,4702.0 30640.0,4682.0 30640.0,4663.0 C 30640.0,4654.0 30667.0,4593.0 30700.0,4526.0 C 30763.0,4398.0 30853.0,4279.0 30946.0,4198.0 C 30973.0,4174.0 31001.0,4149.0 31008.0,4142.0 C 31078.0,4076.0 31287.0,3964.0 31390.0,3938.0 C 31580.0,3889.0 31675.0,3878.0 31880.0,3883.0 C 32136.0,3889.0 32278.0,3919.0 32470.0,4008.0 C 32542.0,4041.0 32677.0,4140.0 32741.0,4206.0 C 32842.0,4312.0 32902.0,4416.0 32948.0,4565.0 C 32968.0,4632.0 32971.0,4886.0 32951.0,4950.0 C 32892.0,5144.0 32790.0,5285.0 32637.0,5385.0 C 32588.0,5417.0 32542.0,5437.0 32415.0,5485.0 C 32398.0,5491.0 32401.0,5494.0 32435.0,5505.0 C 32605.0,5557.0 32784.0,5746.0 32842.0,5934.0 C 32913.0,6164.0 32884.0,6393.0 32760.0,6576.0 C 32569.0,6858.0 32163.0,7016.0 31725.0,6980.0" fill="#000000" id="000000-000031"/>
    <path stroke="none" d="M 34360.0,6980.0 C 34151.0,6968.0 33927.0,6901.0 33780.0,6808.0 C 33631.0,6713.0 33489.0,6542.0 33446.0,6405.0 C 33366.0,6143.0 33390.0,5925.0 33521.0,5730.0 C 33586.0,5632.0 33781.0,5462.0 33865.0,5430.0 C 33891.0,5420.0 33900.0,5400.0 33878.0,5400.0 C 33835.0,5401.0 33575.0,5244.0 33491.0,5167.0 C 33425.0,5106.0 33340.0,4965.0 33318.0,4881.0 C 33284.0,4752.0 33286.0,4605.0 33322.0,4485.0 C 33369.0,4333.0 33479.0,4184.0 33612.0,4092.0 C 33676.0,4048.0 33807.0,3980.0 33828.0,3980.0 C 33838.0,3980.0 33850.0,3976.0 33855.0,3972.0 C 33879.0,3953.0 33994.0,3924.0 34184.0,3890.0 C 34315.0,3867.0 34706.0,3879.0 34855.0,3911.0 C 34996.0,3941.0 34997.0,3942.0 35060.0,3968.0 C 35074.0,3973.0 35101.0,3983.0 35120.0,3990.0 C 35303.0,4053.0 35540.0,4261.0 35615.0,4427.0 C 35671.0,4549.0 35683.0,4606.0 35684.0,4755.0 C 35685.0,4910.0 35680.0,4935.0 35618.0,5070.0 C 35548.0,5222.0 35387.0,5372.0 35158.0,5498.0 C 35126.0,5516.0 35093.0,5530.0 35085.0,5530.0 C 35063.0,5530.0 35067.0,5548.0 35090.0,5555.0 C 35109.0,5561.0 35290.0,5677.0 35300.0,5689.0 C 35303.0,5693.0 35324.0,5711.0 35347.0,5731.0 C 35402.0,5777.0 35487.0,5884.0 35512.0,5939.0 C 35558.0,6039.0 35565.0,6080.0 35564.0,6220.0 C 35562.0,6343.0 35560.0,6362.0 35533.0,6436.0 C 35457.0,6643.0 35270.0,6817.0 35031.0,6903.0 C 34856.0,6967.0 34607.0,6995.0 34360.0,6980.0M 34639.0,6589.0 C 34774.0,6567.0 34882.0,6517.0 34960.0,6440.0 C 35042.0,6359.0 35060.0,6314.0 35060.0,6186.0 C 35060.0,6066.0 35045.0,6020.0 34979.0,5933.0 C 34919.0,5853.0 34751.0,5740.0 34669.0,5725.0 C 34598.0,5712.0 34213.0,5864.0 34091.0,5954.0 C 34003.0,6019.0 33960.0,6108.0 33960.0,6226.0 C 33960.0,6413.0 34091.0,6532.0 34360.0,6588.0 C 34423.0,6601.0 34561.0,6602.0 34639.0,6589.0 M 34421.0,5190.0 C 34473.0,5173.0 34524.0,5155.0 34535.0,5150.0 C 34546.0,5145.0 34584.0,5131.0 34620.0,5119.0 C 34691.0,5095.0 34740.0,5075.0 34840.0,5027.0 C 35027.0,4938.0 35120.0,4825.0 35120.0,4685.0 C 35120.0,4497.0 34971.0,4353.0 34721.0,4300.0 C 34547.0,4263.0 34298.0,4279.0 34137.0,4337.0 C 33993.0,4388.0 33883.0,4493.0 33841.0,4618.0 C 33807.0,4717.0 33817.0,4794.0 33875.0,4905.0 C 33914.0,4979.0 34067.0,5119.0 34150.0,5156.0 C 34180.0,5170.0 34223.0,5190.0 34245.0,5200.0 C 34299.0,5226.0 34313.0,5225.0 34421.0,5190.0" fill="#000000" id="000000-000032"/>
    <path stroke="none" d="M 37050.0,6980.0 C 36920.0,6968.0 36825.0,6943.0 36711.0,6889.0 C 36604.0,6838.0 36514.0,6779.0 36445.0,6713.0 C 36379.0,6651.0 36284.0,6538.0 36261.0,6495.0 C 36249.0,6473.0 36226.0,6433.0 36209.0,6405.0 C 36168.0,6337.0 36127.0,6248.0 36101.0,6170.0 C 36089.0,6134.0 36075.0,6096.0 36070.0,6085.0 C 36058.0,6057.0 36044.0,6006.0 36030.0,5935.0 C 36024.0,5902.0 36014.0,5857.0 36009.0,5835.0 C 35967.0,5646.0 35967.0,5187.0 36010.0,4995.0 C 36014.0,4973.0 36024.0,4928.0 36030.0,4895.0 C 36047.0,4807.0 36062.0,4746.0 36070.0,4735.0 C 36074.0,4730.0 36096.0,4676.0 36120.0,4615.0 C 36159.0,4517.0 36225.0,4402.0 36307.0,4286.0 C 36323.0,4265.0 36373.0,4212.0 36420.0,4168.0 C 36577.0,4020.0 36771.0,3928.0 37005.0,3889.0 C 37118.0,3871.0 37416.0,3883.0 37515.0,3910.0 C 37559.0,3922.0 37606.0,3934.0 37619.0,3937.0 C 37661.0,3947.0 37833.0,4042.0 37895.0,4089.0 C 38087.0,4237.0 38195.0,4394.0 38270.0,4635.0 C 38290.0,4700.0 38302.0,4849.0 38297.0,4960.0 C 38292.0,5060.0 38279.0,5131.0 38244.0,5250.0 C 38224.0,5317.0 38121.0,5477.0 38038.0,5571.0 C 37973.0,5644.0 37777.0,5768.0 37668.0,5804.0 C 37410.0,5890.0 37070.0,5876.0 36865.0,5773.0 C 36838.0,5759.0 36793.0,5731.0 36765.0,5710.0 C 36700.0,5662.0 36587.0,5540.0 36566.0,5495.0 C 36533.0,5426.0 36527.0,5451.0 36535.0,5632.0 C 36542.0,5793.0 36555.0,5896.0 36579.0,5980.0 C 36584.0,5999.0 36593.0,6031.0 36598.0,6050.0 C 36603.0,6069.0 36615.0,6103.0 36624.0,6125.0 C 36634.0,6147.0 36645.0,6174.0 36650.0,6185.0 C 36667.0,6231.0 36686.0,6267.0 36712.0,6307.0 C 36727.0,6330.0 36740.0,6353.0 36740.0,6358.0 C 36740.0,6367.0 36802.0,6427.0 36861.0,6475.0 C 36885.0,6495.0 36928.0,6518.0 36985.0,6541.0 C 37070.0,6574.0 37277.0,6592.0 37332.0,6571.0 C 37345.0,6566.0 37375.0,6556.0 37400.0,6549.0 C 37504.0,6519.0 37633.0,6403.0 37688.0,6287.0 C 37706.0,6251.0 37720.0,6213.0 37720.0,6202.0 C 37720.0,6191.0 37727.0,6177.0 37735.0,6170.0 C 37751.0,6157.0 37770.0,6158.0 37900.0,6184.0 C 37947.0,6193.0 38010.0,6205.0 38040.0,6211.0 C 38129.0,6228.0 38184.0,6242.0 38194.0,6251.0 C 38204.0,6260.0 38157.0,6385.0 38098.0,6505.0 C 38009.0,6685.0 37828.0,6845.0 37634.0,6914.0 C 37480.0,6969.0 37239.0,6996.0 37050.0,6980.0M 37355.0,5408.0 C 37576.0,5349.0 37744.0,5153.0 37764.0,4930.0 C 37770.0,4867.0 37760.0,4749.0 37742.0,4664.0 C 37706.0,4497.0 37534.0,4338.0 37345.0,4299.0 C 37273.0,4285.0 37126.0,4285.0 37050.0,4299.0 C 36901.0,4328.0 36740.0,4453.0 36679.0,4586.0 C 36636.0,4682.0 36621.0,4750.0 36620.0,4857.0 C 36620.0,5023.0 36676.0,5164.0 36788.0,5274.0 C 36904.0,5389.0 37034.0,5434.0 37225.0,5424.0 C 37275.0,5421.0 37333.0,5414.0 37355.0,5408.0" fill="#000000" id="000000-000033"/>
    <path stroke="none" d="M 15415.0,6965.0 C 15193.0,6931.0 14976.0,6811.0 14820.0,6635.0 C 14724.0,6527.0 14616.0,6355.0 14569.0,6235.0 C 14500.0,6057.0 14493.0,6034.0 14470.0,5915.0 C 14464.0,5882.0 14454.0,5837.0 14450.0,5815.0 C 14421.0,5685.0 14411.0,5341.0 14430.0,5148.0 C 14442.0,5034.0 14450.0,4992.0 14491.0,4813.0 C 14504.0,4757.0 14539.0,4659.0 14552.0,4646.0 C 14556.0,4640.0 14560.0,4630.0 14560.0,4623.0 C 14560.0,4595.0 14624.0,4473.0 14692.0,4373.0 C 14770.0,4256.0 14890.0,4130.0 14976.0,4075.0 C 15006.0,4056.0 15033.0,4040.0 15036.0,4040.0 C 15039.0,4040.0 15060.0,4027.0 15083.0,4011.0 C 15149.0,3966.0 15342.0,3906.0 15469.0,3890.0 C 15586.0,3876.0 15812.0,3878.0 15890.0,3894.0 C 16145.0,3947.0 16283.0,4021.0 16460.0,4200.0 C 16562.0,4302.0 16581.0,4329.0 16651.0,4470.0 C 16739.0,4649.0 16767.0,4934.0 16715.0,5145.0 C 16613.0,5564.0 16218.0,5862.0 15766.0,5860.0 C 15574.0,5859.0 15428.0,5826.0 15286.0,5753.0 C 15213.0,5716.0 15093.0,5610.0 15047.0,5543.0 C 15021.0,5506.0 15000.0,5469.0 15000.0,5462.0 C 15000.0,5456.0 14996.0,5450.0 14990.0,5450.0 C 14984.0,5450.0 14980.0,5509.0 14980.0,5608.0 C 14980.0,5754.0 14992.0,5859.0 15020.0,5963.0 C 15049.0,6071.0 15053.0,6083.0 15070.0,6125.0 C 15074.0,6136.0 15086.0,6165.0 15095.0,6190.0 C 15104.0,6215.0 15121.0,6251.0 15133.0,6270.0 C 15145.0,6289.0 15162.0,6319.0 15170.0,6335.0 C 15189.0,6374.0 15306.0,6487.0 15345.0,6504.0 C 15362.0,6512.0 15395.0,6527.0 15420.0,6538.0 C 15486.0,6566.0 15655.0,6586.0 15713.0,6571.0 C 15738.0,6565.0 15771.0,6560.0 15786.0,6560.0 C 15801.0,6560.0 15851.0,6542.0 15897.0,6519.0 C 15962.0,6487.0 15993.0,6464.0 16039.0,6413.0 C 16071.0,6377.0 16102.0,6338.0 16108.0,6326.0 C 16113.0,6315.0 16127.0,6285.0 16139.0,6262.0 C 16150.0,6238.0 16160.0,6212.0 16160.0,6206.0 C 16160.0,6199.0 16169.0,6185.0 16179.0,6176.0 C 16197.0,6159.0 16203.0,6160.0 16302.0,6179.0 C 16358.0,6191.0 16432.0,6205.0 16465.0,6211.0 C 16563.0,6228.0 16624.0,6243.0 16634.0,6252.0 C 16640.0,6256.0 16639.0,6268.0 16632.0,6282.0 C 16626.0,6295.0 16614.0,6328.0 16605.0,6355.0 C 16577.0,6443.0 16500.0,6586.0 16446.0,6651.0 C 16315.0,6810.0 16144.0,6908.0 15911.0,6956.0 C 15816.0,6976.0 15768.0,6980.0 15645.0,6979.0 C 15563.0,6978.0 15459.0,6972.0 15415.0,6965.0M 15800.0,5408.0 C 15876.0,5386.0 15977.0,5328.0 16029.0,5278.0 C 16175.0,5135.0 16230.0,4975.0 16204.0,4775.0 C 16182.0,4608.0 16149.0,4532.0 16058.0,4440.0 C 15895.0,4276.0 15595.0,4235.0 15362.0,4345.0 C 15275.0,4386.0 15168.0,4490.0 15127.0,4573.0 C 15012.0,4809.0 15054.0,5093.0 15230.0,5270.0 C 15315.0,5356.0 15410.0,5404.0 15530.0,5420.0 C 15596.0,5430.0 15751.0,5423.0 15800.0,5408.0" fill="#000000" id="000000-000028"/>
    <path stroke="none" d="M18573 6928 c-5 -7 -47 -87 -92 -178 -46 -91 -87 -169 -91 -175 -4 -5 -58 -109 -120 -230 -62 -121 -116 -224 -120 -230 -4 -5 -53 -100 -110 -210 -57 -110 -126 -245 -155 -300 -29 -55 -81 -154 -115 -220 -34 -66 -84 -160 -110 -210 -26 -49 -87 -166 -135 -260 -48 -93 -111 -215 -140 -270 -79 -150 -165 -315 -240 -460 -117 -226 -196 -377 -240 -460 -24 -44 -71 -136 -105 -205 -33 -69 -85 -173 -115 -232 -38 -77 -50 -109 -42 -117 16 -16 245 -14 276 2 14 6 32 26 41 42 42 77 194 364 275 520 29 55 78 150 110 210 61 116 128 245 240 460 37 72 86 164 108 205 46 87 129 245 327 625 34 66 84 162 111 213 27 50 71 134 98 185 27 50 76 144 108 207 33 63 91 174 128 245 37 72 85 162 105 200 20 39 68 129 105 200 37 72 95 182 128 245 89 169 98 190 92 200 -10 16 -310 13 -322 -2z" fill="#000000" id="000000-000034"/>
    <path stroke="none" d="M26800 5271 c-12 -23 -1 -411 12 -411 4 0 252 0 551 -1 l542 0 7 43 c3 24 7 118 7 209 l1 167 -31 6 c-17 3 -267 6 -555 6 -507 0 -524 -1 -534 -19z" fill="#000000" id="000000-000035"/>
  </g>
</svg>
