<?xml version="1.0" standalone="no"?>
<!DOCTYPE svg PUBLIC "-//W3C//DTD SVG 1.1//EN"
 "http://www.w3.org/Graphics/SVG/1.1/DTD/svg11.dtd">
<!-- Created with svg_stack (http://github.com/astraw/svg_stack) -->
<svg xmlns:sodipodi="http://sodipodi.sourceforge.net/DTD/sodipodi-0.dtd" xmlns="http://www.w3.org/2000/svg" version="1.1" width="946.0" height="1086.0">
  <defs/>
  <g id="id0:id0" transform="matrix(1.25,0,0,1.25,0.0,0.0)"><g transform="translate(0.000000,868.800000) scale(0.040000,-0.040000)" fill="#002865" stroke="none">
<path d="M1762 20830 c-86 -19 -258 -78 -327 -113 -135 -69 -328 -236 -424 -366 -95 -130 -177 -322 -213 -501 -20 -100 -19 -17884 1 -17985 64 -324 248 -604 517 -787 122 -83 262 -144 419 -181 l90 -22 7620 -3 c5728 -2 7637 0 7690 8 93 16 228 50 240 61 5 5 15 9 22 9 26 0 164 71 251 130 93 62 224 191 305 300 88 117 175 322 209 490 19 97 19 17884 0 17980 -32 158 -102 333 -187 466 -41 64 -186 216 -273 286 -126 102 -328 190 -523 228 l-104 20 -7615 -1 -7615 -2 -83 -17z m3068 -782 c30 -5 76 -14 102 -18 57 -10 175 -50 238 -79 43 -20 68 -37 200 -128 65 -45 201 -179 247 -243 115 -159 147 -217 203 -367 51 -135 80 -234 90 -313 5 -36 13 -94 19 -130 18 -119 15 -401 -7 -575 -24 -187 -54 -352 -76 -414 -9 -24 -16 -52 -16 -62 0 -28 -117 -372 -162 -473 -55 -125 -182 -358 -235 -431 -159 -220 -214 -285 -368 -439 -93 -95 -192 -189 -220 -211 -27 -21 -65 -52 -82 -69 -51 -46 -327 -236 -513 -352 -112 -70 -235 -163 -335 -254 -40 -36 -107 -94 -151 -129 -100 -80 -194 -170 -194 -185 0 -11 37 -101 98 -241 37 -85 52 -172 42 -240 -11 -70 -85 -363 -109 -430 -5 -16 -29 -83 -52 -147 l-41 -118 12 -52 c15 -63 32 -85 74 -96 27 -7 33 -16 52 -73 32 -95 77 -189 121 -255 22 -33 50 -79 63 -104 12 -25 56 -89 97 -142 95 -125 103 -146 103 -260 l0 -92 89 -86 c49 -47 103 -106 121 -132 18 -26 38 -49 44 -51 7 -3 34 -36 60 -73 26 -38 69 -98 97 -134 27 -36 59 -81 72 -100 35 -51 215 -357 285 -483 33 -60 68 -117 76 -126 14 -15 42 -19 174 -25 97 -4 189 -14 240 -26 100 -24 128 -25 166 -5 15 8 33 15 39 15 10 0 203 -90 282 -131 22 -12 90 -47 150 -79 141 -74 202 -94 240 -80 44 17 251 30 480 30 229 0 364 -11 465 -37 68 -18 271 -23 342 -9 36 7 78 43 186 158 38 42 40 66 11 163 -11 39 -29 100 -39 136 -30 104 -117 309 -142 336 -13 14 -54 49 -93 78 -82 62 -114 94 -189 195 -94 124 -135 302 -86 375 27 41 25 71 -14 199 -88 291 -89 294 -82 381 15 176 113 454 201 569 18 24 40 57 48 73 24 45 198 208 252 236 28 14 99 55 159 91 60 36 117 66 125 66 9 0 33 9 54 20 48 26 232 84 322 101 99 20 256 15 325 -10 158 -56 398 -190 462 -257 15 -16 52 -78 83 -139 30 -60 78 -137 106 -170 57 -68 115 -175 135 -250 8 -27 14 -87 14 -132 0 -81 20 -154 80 -288 30 -70 52 -139 56 -180 8 -82 25 -211 34 -255 5 -25 14 -99 20 -165 6 -66 16 -139 22 -162 7 -31 7 -57 -2 -95 -17 -73 -34 -103 -100 -178 -31 -36 -69 -85 -86 -110 l-29 -45 4 -204 c1 -112 7 -217 12 -235 5 -17 9 -55 9 -84 0 -50 3 -56 50 -106 28 -29 50 -61 50 -72 0 -10 9 -30 20 -44 11 -14 20 -34 20 -44 l0 -19 163 7 c89 4 263 11 387 16 249 10 246 9 380 50 342 105 389 112 705 108 261 -3 414 -18 580 -55 103 -23 253 -72 310 -101 30 -15 74 -27 110 -30 55 -4 72 0 180 43 66 26 155 65 198 87 78 39 208 85 302 108 50 12 65 6 78 -34 2 -7 17 -6 48 3 101 31 620 52 773 32 79 -11 90 -10 131 8 25 11 45 25 45 32 0 15 373 385 452 448 32 25 99 81 150 124 51 42 111 92 133 110 22 18 67 52 100 76 33 23 82 59 109 80 26 21 76 55 110 74 136 79 303 208 439 339 l117 113 1 70 0 70 93 97 c100 103 272 317 289 358 40 96 58 130 86 159 36 37 36 44 -4 186 -12 44 -25 102 -29 129 -3 26 -22 84 -42 129 l-36 80 4 86 c3 60 12 105 30 151 14 36 41 108 59 160 l34 95 55 27 c30 15 71 28 90 28 57 0 104 18 136 51 61 64 125 77 177 33 21 -18 37 -24 54 -19 39 9 101 -13 125 -45 20 -28 67 -51 130 -64 18 -4 34 -20 50 -48 17 -30 39 -50 80 -72 39 -21 69 -47 92 -79 18 -27 56 -63 82 -82 100 -67 104 -73 104 -169 l0 -85 -61 -116 c-33 -64 -71 -146 -83 -183 -28 -82 -118 -263 -140 -281 -9 -8 -16 -21 -16 -30 0 -9 -9 -27 -20 -41 -11 -14 -20 -28 -20 -32 0 -4 -18 -44 -40 -90 l-40 -82 22 -53 c19 -46 20 -57 9 -94 -7 -22 -29 -60 -50 -82 -21 -23 -57 -69 -81 -102 -24 -33 -61 -80 -81 -105 -42 -50 -86 -110 -180 -243 -73 -103 -90 -117 -145 -117 -49 0 -81 -26 -114 -91 -13 -24 -42 -75 -66 -112 -24 -37 -44 -70 -44 -73 0 -3 -17 -31 -39 -62 -21 -32 -50 -79 -65 -105 -15 -27 -39 -61 -52 -75 -13 -15 -49 -65 -81 -112 -59 -88 -80 -116 -173 -235 -30 -38 -75 -97 -100 -131 -146 -201 -484 -540 -665 -665 -33 -23 -89 -69 -125 -104 -75 -72 -94 -83 -210 -119 -51 -17 -130 -55 -200 -96 -63 -38 -124 -72 -135 -76 -11 -4 -27 -13 -35 -20 -19 -16 -203 -107 -290 -144 -36 -16 -105 -46 -155 -68 -102 -45 -200 -79 -435 -151 -91 -28 -208 -64 -260 -81 -52 -16 -128 -35 -169 -41 -77 -13 -137 -48 -127 -75 7 -19 -25 -34 -76 -34 -44 0 -252 -27 -433 -57 -55 -9 -129 -19 -165 -23 -81 -10 -276 -54 -321 -73 -19 -8 -79 -43 -134 -79 -111 -72 -305 -262 -305 -299 0 -11 -11 -24 -25 -31 -14 -6 -25 -17 -25 -24 0 -21 56 -45 113 -47 29 -1 57 -5 62 -9 6 -3 37 -9 70 -13 183 -20 677 -100 895 -146 52 -11 129 -27 170 -35 98 -21 759 -186 875 -219 289 -83 785 -253 1110 -380 554 -216 1166 -511 1615 -777 41 -24 90 -53 108 -64 19 -10 62 -37 96 -59 35 -22 84 -53 109 -69 26 -16 44 -32 41 -37 -5 -9 -13 -6 -159 58 -49 22 -137 59 -195 83 -58 24 -109 47 -114 52 -6 4 -16 8 -23 8 -7 0 -32 9 -56 20 -139 64 -972 356 -1182 415 -27 7 -95 27 -150 43 -223 66 -493 140 -605 167 -30 7 -109 26 -175 43 -66 17 -154 38 -195 47 -141 31 -655 136 -707 145 -29 5 -90 16 -135 25 -108 20 -497 82 -568 90 -30 3 -111 15 -180 25 -69 11 -190 27 -270 36 -285 31 -326 35 -420 44 -52 5 -160 14 -240 19 -80 6 -192 15 -250 21 -289 27 -606 35 -1300 34 -553 -1 -788 -5 -990 -17 -319 -20 -611 -43 -740 -57 -52 -6 -142 -15 -200 -20 -58 -5 -154 -16 -215 -24 -60 -9 -184 -25 -275 -36 -190 -24 -388 -53 -545 -81 -350 -60 -400 -70 -640 -119 -49 -10 -117 -24 -150 -30 -79 -15 -191 -39 -235 -51 -19 -4 -84 -20 -145 -34 -60 -15 -144 -35 -185 -46 -41 -10 -145 -37 -230 -59 -85 -22 -191 -51 -235 -65 -44 -13 -150 -45 -235 -69 -263 -76 -847 -270 -1020 -339 -36 -14 -105 -41 -155 -60 -148 -56 -508 -203 -588 -240 -42 -19 -78 -32 -81 -29 -7 7 23 42 36 42 5 0 55 28 111 63 397 245 796 456 1307 690 41 19 134 58 205 87 72 28 139 57 149 62 41 22 341 136 566 215 323 113 540 182 770 243 155 41 152 37 126 138 -9 33 -16 74 -16 91 0 16 -9 68 -19 113 -11 46 -29 139 -41 208 -12 69 -30 157 -40 195 -10 39 -21 86 -24 106 -7 40 -5 39 -153 100 -79 32 -155 71 -298 151 -293 164 -408 230 -465 268 -30 20 -69 42 -87 49 -18 7 -38 19 -44 27 -6 8 -30 22 -53 32 -62 28 -70 42 -51 87 8 21 15 43 15 49 0 25 -252 142 -369 171 -49 13 -64 23 -129 91 -40 42 -87 97 -104 122 -17 26 -52 70 -77 98 -25 28 -55 66 -66 85 -11 20 -50 80 -86 135 -36 54 -84 131 -106 169 -82 143 -237 439 -248 474 -4 13 -21 47 -37 75 -17 28 -45 87 -63 131 -18 44 -53 126 -78 182 -25 56 -48 112 -52 125 -4 13 -20 51 -35 84 -16 34 -36 87 -46 119 -12 37 -35 75 -66 111 -31 36 -49 67 -53 92 -11 63 -46 174 -71 224 -16 31 -24 64 -24 96 0 65 -21 131 -61 194 -18 28 -41 74 -50 102 -10 28 -23 52 -31 54 -11 2 -98 -161 -98 -185 0 -4 -22 -55 -50 -113 -27 -58 -66 -150 -85 -205 -20 -55 -60 -154 -89 -220 -30 -66 -59 -138 -66 -160 -7 -22 -28 -73 -47 -114 -18 -40 -33 -80 -33 -87 0 -8 -6 -23 -12 -34 -10 -16 -10 -24 0 -40 24 -39 -9 -70 -76 -70 -56 0 -282 112 -350 173 -35 32 -30 79 15 128 34 38 99 173 125 259 5 19 14 40 18 45 4 6 30 66 58 135 49 123 64 158 147 355 83 195 135 325 135 335 0 6 7 25 16 42 23 44 124 337 124 358 0 31 -151 353 -197 422 -40 58 -45 131 -14 176 11 15 22 53 25 86 7 61 19 86 41 86 7 0 24 11 39 25 19 18 26 34 26 63 0 32 8 48 50 96 28 32 56 69 64 84 8 15 35 46 60 69 25 23 46 46 46 52 0 6 -9 50 -21 98 -27 119 -30 244 -6 271 17 19 85 37 172 47 42 5 91 46 82 69 -3 7 -1 72 3 146 5 78 4 177 -1 235 -16 163 -38 328 -53 386 -15 60 -46 237 -71 404 -24 158 -37 556 -26 751 20 349 91 671 218 993 46 118 210 443 259 516 24 35 83 127 109 170 10 17 31 46 47 65 16 19 65 78 108 131 81 98 245 258 304 294 18 11 46 30 62 43 81 64 338 202 374 202 7 0 44 11 83 24 40 13 128 31 197 41 69 9 132 18 140 20 23 4 138 -5 200 -17z m2007 -12790 c7 -12 114 -425 173 -668 15 -63 41 -164 57 -225 17 -60 49 -186 72 -280 23 -93 55 -217 71 -275 16 -58 52 -197 80 -310 28 -113 86 -344 131 -515 44 -170 84 -328 89 -350 9 -45 109 -434 196 -770 32 -121 58 -236 58 -255 l1 -35 -375 1 c-489 0 -577 16 -689 119 -64 58 -83 112 -146 400 -13 61 -28 122 -34 138 l-11 27 -1129 0 -1130 0 -43 -56 c-98 -127 -249 -314 -310 -381 -128 -142 -202 -187 -373 -224 -92 -20 -136 -22 -553 -26 -262 -3 -457 -2 -463 4 -9 9 -7 12 255 333 97 118 238 292 314 385 75 94 199 244 274 335 75 91 171 208 213 260 42 52 111 137 153 189 42 51 97 120 122 151 25 32 81 101 125 154 133 161 231 281 373 460 26 33 65 80 87 106 65 75 167 198 214 259 24 30 82 103 130 161 48 58 134 164 192 235 323 401 334 413 438 502 114 97 223 140 391 153 47 4 300 8 562 8 372 2 479 -1 485 -10z m5345 -33 c-6 -62 -85 -312 -119 -375 -66 -123 -106 -158 -230 -202 -103 -36 -169 -40 -717 -47 -465 -5 -540 -8 -546 -21 -11 -20 -82 -260 -115 -385 -14 -55 -43 -156 -64 -225 -21 -69 -48 -163 -61 -210 -12 -47 -30 -112 -40 -145 -84 -284 -160 -549 -181 -630 -16 -63 -137 -484 -204 -710 -15 -49 -31 -103 -36 -120 -106 -386 -156 -553 -172 -572 -7 -10 -66 -13 -236 -13 -467 1 -638 32 -705 128 -48 69 -35 196 48 492 70 249 140 490 176 610 22 74 50 171 61 215 11 44 29 107 39 140 11 33 30 101 43 150 31 115 73 263 141 490 30 99 71 241 91 315 20 74 57 204 81 287 24 84 44 164 44 178 l0 25 -704 0 c-388 0 -707 3 -709 8 -7 10 93 303 131 385 35 74 118 164 184 198 50 26 138 49 223 58 39 5 860 8 1825 7 l1755 -1 -3 -30z m3088 16 c497 -54 828 -154 1040 -313 79 -59 163 -155 194 -223 51 -108 59 -145 64 -292 5 -170 -8 -252 -75 -453 -83 -251 -166 -398 -312 -553 -256 -269 -616 -435 -1166 -536 -107 -20 -181 -30 -390 -52 -57 -7 -393 -13 -783 -16 l-682 -5 -19 -27 c-11 -14 -24 -51 -29 -81 -10 -53 -40 -156 -152 -525 -26 -88 -67 -225 -90 -305 -23 -80 -51 -176 -63 -215 l-23 -70 -124 -7 c-311 -16 -685 15 -774 65 -67 38 -80 64 -84 175 -4 106 12 190 82 428 52 178 191 668 216 759 12 44 35 123 51 175 34 108 36 116 119 415 34 121 90 319 125 440 102 350 186 645 202 705 53 206 114 327 196 394 78 63 149 90 302 117 92 16 183 17 1080 15 702 -2 1013 -6 1095 -15z m-9290 -4233 c146 -48 208 -98 257 -205 24 -51 25 -63 20 -167 -4 -90 -11 -128 -36 -200 -86 -246 -228 -385 -476 -465 -286 -93 -737 -75 -895 34 -75 52 -111 100 -131 171 -25 91 -24 152 6 270 39 155 118 300 207 380 82 74 217 144 338 176 120 32 182 36 415 33 202 -2 226 -5 295 -27z m7230 18 c89 -15 158 -38 225 -77 63 -35 86 -60 116 -124 26 -54 29 -70 29 -161 0 -126 -30 -239 -96 -364 -116 -218 -338 -347 -653 -379 -221 -23 -423 -7 -576 46 -66 23 -89 37 -135 83 -72 73 -90 123 -90 253 0 84 5 113 34 202 44 138 91 217 173 298 106 105 214 162 383 205 105 27 124 28 335 30 105 1 202 -4 255 -12z m-10443 -13 c43 -20 53 -44 64 -155 5 -49 13 -130 19 -180 5 -51 16 -161 24 -243 15 -152 22 -185 36 -185 13 0 42 39 243 328 48 70 111 160 140 200 29 41 71 101 94 135 23 34 51 74 63 90 l22 27 142 0 c132 0 146 -2 177 -23 19 -12 39 -34 46 -48 7 -13 21 -99 33 -189 11 -91 25 -192 30 -225 5 -33 14 -113 21 -178 10 -98 15 -117 28 -115 20 4 74 77 224 305 167 252 265 394 293 423 13 14 44 31 69 38 46 12 287 17 298 6 3 -3 -13 -31 -37 -62 -73 -99 -159 -217 -226 -312 -36 -51 -74 -105 -85 -120 -11 -15 -41 -59 -68 -97 -194 -278 -317 -442 -352 -468 -43 -34 -120 -46 -256 -43 l-112 3 -8 25 c-4 14 -14 81 -23 150 -9 69 -23 172 -32 230 -14 102 -29 221 -41 328 -3 28 -9 52 -12 52 -18 0 -93 -100 -286 -380 -180 -261 -219 -318 -238 -339 -42 -46 -92 -59 -248 -67 -138 -6 -147 -6 -157 12 -9 18 -19 77 -62 369 -11 72 -28 191 -39 265 -11 74 -25 173 -31 220 -5 47 -15 113 -21 147 -17 94 -18 93 117 93 87 0 125 -4 151 -17z m4713 -7 c58 -13 125 -32 150 -43 58 -26 117 -91 126 -138 19 -105 -31 -249 -117 -335 -82 -82 -264 -154 -381 -151 -21 0 -38 -3 -38 -8 0 -15 87 -115 137 -156 113 -94 262 -238 256 -247 -4 -7 -60 -9 -171 -5 -223 8 -223 8 -417 217 -241 262 -244 268 -177 332 l37 36 224 4 224 4 28 32 c25 28 44 75 64 163 11 44 -36 86 -120 110 -90 25 -395 28 -414 5 -11 -13 -38 -106 -92 -316 -7 -25 -18 -59 -25 -77 -8 -17 -14 -38 -14 -46 0 -9 -18 -73 -39 -144 -22 -70 -52 -171 -68 -223 l-29 -95 -46 -3 c-87 -6 -220 14 -236 35 -23 31 -20 43 144 613 30 107 66 232 79 278 52 183 46 181 485 181 305 0 332 -1 430 -23z m870 11 c61 -21 60 -27 -77 -507 -14 -47 -30 -107 -38 -135 -7 -27 -23 -81 -35 -120 -13 -38 -23 -83 -24 -100 l-1 -30 223 -6 c265 -8 289 -12 304 -45 13 -28 -6 -127 -28 -145 -9 -8 -134 -10 -406 -7 -447 4 -451 4 -456 72 -2 21 5 68 16 105 11 36 32 111 47 166 14 55 35 125 45 155 21 60 65 214 86 300 10 45 72 250 89 298 6 16 206 16 255 -1z m1683 -7 c114 -25 159 -46 233 -108 53 -44 65 -60 83 -113 23 -70 29 -205 10 -274 -31 -119 -97 -243 -173 -323 -95 -101 -264 -194 -431 -237 -102 -27 -275 -37 -555 -33 -247 3 -270 5 -289 22 -27 25 -28 81 -2 162 11 32 52 174 92 314 39 140 80 282 89 315 37 131 62 202 80 232 34 57 65 61 440 62 296 1 345 -2 423 -19z m2118 -25 c-4 -48 -20 -82 -56 -115 l-27 -25 -193 -3 -193 -4 -31 -106 c-18 -59 -65 -224 -106 -367 -135 -471 -126 -445 -162 -445 -80 1 -226 20 -238 30 -20 16 -19 92 0 150 25 77 77 252 96 325 10 39 37 133 60 210 23 77 42 154 43 170 l1 30 -200 5 -200 5 -3 23 c-2 12 4 43 14 68 14 36 26 50 63 69 l46 24 545 -2 545 -2 -4 -40z m2025 21 c19 -27 18 -68 -6 -145 -53 -174 -111 -375 -131 -455 -19 -76 -20 -94 -10 -140 16 -73 31 -90 100 -115 55 -20 74 -21 281 -19 l223 3 18 25 c10 14 32 78 49 143 16 65 50 186 76 270 55 185 109 370 121 417 l9 35 114 3 c135 3 154 0 176 -33 21 -32 18 -46 -102 -465 -30 -107 -67 -235 -81 -285 -88 -312 -82 -304 -245 -317 -62 -6 -248 -8 -413 -5 -260 4 -313 8 -400 27 -113 25 -145 41 -204 105 -54 59 -61 79 -61 183 0 103 3 113 111 482 17 58 42 145 55 194 13 49 30 96 36 103 9 12 39 14 141 11 114 -3 130 -5 143 -22z m2174 -5 c112 -30 173 -64 207 -115 25 -37 28 -49 28 -126 0 -79 -3 -91 -39 -163 -25 -50 -55 -92 -83 -116 -56 -50 -163 -105 -233 -121 -30 -7 -67 -16 -81 -20 -14 -4 -38 -6 -52 -3 -18 4 -29 0 -33 -10 -8 -23 3 -37 81 -104 39 -34 123 -113 188 -177 94 -91 115 -117 102 -122 -10 -4 -89 -4 -177 0 -213 9 -214 9 -394 208 -226 249 -214 234 -214 276 0 45 19 75 57 90 15 6 116 13 223 15 107 3 211 10 232 16 32 10 39 19 62 76 14 36 26 85 26 109 0 37 -5 48 -30 70 -49 41 -93 49 -301 53 l-196 5 -11 -39 c-21 -77 -82 -290 -101 -353 -22 -71 -55 -183 -96 -330 -15 -52 -35 -117 -44 -145 l-17 -50 -122 2 c-67 1 -131 7 -142 13 -27 14 -27 87 -1 178 11 37 34 119 52 182 18 63 47 169 66 235 19 66 42 149 52 185 65 235 88 278 157 300 16 5 191 8 389 7 342 -3 364 -4 445 -26z"/>
<path d="M4495 19785 c-298 -55 -614 -286 -838 -614 -22 -31 -47 -65 -57 -76 -27 -31 -165 -264 -220 -375 -57 -113 -161 -370 -183 -451 -9 -30 -31 -110 -50 -179 -38 -139 -52 -197 -67 -285 -5 -33 -19 -112 -31 -175 -20 -103 -22 -149 -22 -430 l0 -315 41 -156 c44 -171 80 -252 173 -389 57 -85 86 -115 189 -195 157 -121 412 -194 590 -167 126 19 216 43 290 78 104 49 233 128 310 190 83 66 253 233 317 310 62 75 245 331 273 381 12 21 36 63 55 93 58 93 226 431 257 515 69 186 81 223 93 275 7 30 18 73 23 95 85 336 88 735 8 1020 -52 187 -84 258 -176 396 -53 79 -251 275 -305 301 -22 10 -65 33 -95 50 -81 44 -211 85 -331 102 -123 18 -149 18 -244 1z"/>
<path d="M3081 16061 c-6 -11 -11 -123 -12 -269 l-2 -251 29 -37 c63 -79 83 -111 94 -154 6 -25 23 -57 38 -72 23 -25 33 -28 93 -28 86 0 101 6 176 71 34 30 101 88 150 129 212 181 253 232 218 270 -23 25 -29 27 -170 44 -90 11 -138 23 -187 45 -103 46 -213 119 -299 199 -80 74 -110 87 -128 53z"/>
<path d="M5992 6523 c-5 -15 -41 -67 -78 -114 -38 -48 -96 -121 -129 -164 -33 -43 -96 -124 -140 -179 -44 -56 -91 -117 -105 -136 -13 -19 -47 -62 -75 -96 -27 -34 -83 -103 -122 -155 -119 -154 -213 -276 -298 -385 -44 -56 -107 -137 -140 -180 -33 -42 -84 -106 -112 -140 -29 -34 -53 -69 -53 -76 0 -38 1 -38 832 -38 l808 0 0 35 c0 19 -14 101 -30 182 -33 162 -101 494 -124 613 -9 41 -24 116 -35 165 -34 155 -59 275 -91 440 -43 222 -51 249 -77 253 -15 2 -23 -5 -31 -25z"/>
<path d="M13678 6603 c-19 -5 -58 -123 -138 -418 -51 -189 -91 -328 -137 -480 -34 -111 -63 -225 -63 -247 l0 -19 778 4 c821 5 805 4 953 52 166 54 242 187 344 603 40 158 12 255 -99 344 -106 85 -305 138 -591 158 -144 9 -1012 12 -1047 3z"/>
<path d="M5307 2835 c-115 -29 -144 -57 -188 -176 -49 -135 -79 -258 -79 -329 0 -58 4 -71 34 -116 28 -41 45 -55 93 -74 52 -21 78 -24 243 -28 311 -7 370 16 430 167 37 90 90 293 90 341 0 103 -49 169 -148 202 -57 18 -95 22 -242 24 -128 2 -191 -1 -233 -11z"/>
<path d="M12620 2831 c-88 -23 -105 -34 -136 -88 -57 -97 -124 -324 -124 -421 0 -53 4 -66 33 -104 21 -28 53 -53 92 -73 l60 -30 225 0 c211 0 228 2 270 22 25 12 53 28 62 36 26 20 69 124 113 265 34 110 37 132 32 197 -3 40 -13 87 -21 104 -20 38 -88 74 -180 95 -94 22 -338 20 -426 -3z"/>
<path d="M9440 2818 c-5 -13 -19 -59 -31 -103 -11 -44 -29 -107 -39 -140 -10 -33 -28 -98 -40 -145 -29 -112 -58 -206 -78 -254 l-16 -38 19 -14 c14 -11 62 -14 205 -14 318 0 417 23 472 112 14 24 45 99 68 168 118 353 35 450 -386 450 l-164 0 -10 -22z"/>
</g>
</g>
  <g id="id1:id1" transform="matrix(1.25,0,0,1.25,0.0,0.0)"><g transform="translate(0.000000,868.800000) scale(0.040000,-0.040000)" fill="#fefffe" stroke="none">
<path d="M0 10860 l0 -10860 9460 0 9460 0 0 10860 0 10860 -9460 0 -9460 0 0 -10860z m17160 9956 c183 -36 353 -102 479 -189 245 -168 410 -412 498 -737 16 -62 17 -516 20 -8975 3 -6184 0 -8935 -7 -8991 -22 -170 -97 -367 -197 -515 -26 -39 -95 -119 -153 -178 -156 -157 -294 -236 -545 -309 l-90 -27 -7650 -3 c-7060 -3 -7656 -2 -7730 13 -181 37 -340 102 -468 191 -93 64 -249 220 -309 308 -94 136 -177 354 -198 520 -7 56 -10 2809 -8 8996 l3 8915 32 109 c40 136 125 314 199 412 99 131 272 277 415 350 69 35 173 70 289 99 l95 23 7625 1 c6601 1 7635 -1 7700 -13z"/>
<path d="M8955 9369 c-159 -4 -324 -12 -365 -18 -41 -6 -145 -16 -230 -21 -85 -6 -191 -14 -235 -20 -44 -5 -136 -14 -205 -19 -69 -6 -158 -17 -198 -25 -40 -9 -94 -16 -120 -16 -26 0 -84 -9 -130 -20 -46 -11 -104 -20 -130 -20 -26 0 -90 -9 -142 -20 -52 -10 -151 -29 -220 -40 -69 -12 -162 -30 -207 -41 -45 -10 -96 -19 -112 -19 -17 0 -53 -9 -81 -20 -28 -11 -63 -20 -77 -20 -15 0 -52 -7 -82 -15 -31 -8 -105 -26 -166 -40 -162 -38 -296 -73 -330 -84 -16 -5 -75 -22 -130 -37 -111 -30 -300 -86 -385 -114 -30 -10 -71 -23 -90 -28 -119 -34 -558 -193 -760 -275 -317 -128 -414 -169 -551 -233 -79 -37 -160 -74 -179 -83 -19 -8 -127 -62 -240 -118 -177 -88 -289 -148 -650 -352 -60 -34 -115 -68 -318 -196 -40 -25 -88 -53 -107 -62 -21 -10 -35 -24 -35 -35 0 -22 23 -23 58 -3 15 8 74 35 132 60 58 26 119 53 135 61 32 15 330 136 535 216 639 251 1682 561 2350 698 353 73 472 96 600 119 302 53 354 62 480 80 74 11 185 26 245 35 61 9 157 21 214 27 58 5 108 12 112 15 4 2 79 11 166 19 87 8 199 20 248 25 124 14 418 37 745 57 530 32 1947 22 2325 -17 50 -6 167 -14 260 -20 94 -6 222 -17 285 -25 63 -8 203 -24 310 -35 107 -12 233 -28 280 -35 47 -8 139 -21 205 -30 66 -8 145 -19 175 -25 30 -5 116 -19 190 -31 149 -22 320 -53 421 -74 86 -19 262 -55 319 -65 25 -5 90 -18 145 -30 55 -11 129 -27 165 -35 36 -7 155 -37 265 -65 110 -29 227 -59 259 -67 343 -84 1251 -375 1556 -498 19 -7 89 -35 155 -60 66 -26 134 -53 150 -60 17 -8 75 -32 130 -55 55 -23 154 -65 220 -95 120 -53 248 -105 259 -105 3 0 6 9 6 20 0 11 -5 20 -12 20 -6 0 -86 47 -177 103 -91 57 -193 120 -226 139 -33 20 -85 50 -115 69 -245 147 -821 438 -1135 574 -110 47 -213 92 -230 100 -16 8 -73 31 -125 50 -52 20 -185 70 -295 111 -220 83 -639 224 -810 273 -60 18 -146 43 -190 56 -84 26 -689 175 -810 200 -38 8 -113 23 -165 34 -52 11 -149 29 -215 41 -66 12 -169 30 -230 40 -130 23 -284 45 -450 65 -66 8 -138 19 -160 25 -22 5 -67 10 -100 10 -33 0 -91 6 -130 14 -38 8 -131 18 -205 21 -155 7 -344 21 -445 35 -97 12 -1048 19 -1400 9z"/>
<path d="M5800 7280 c-145 -12 -277 -53 -349 -107 -74 -56 -215 -201 -306 -313 -51 -63 -117 -144 -146 -180 -29 -36 -100 -123 -157 -195 -58 -71 -130 -159 -161 -195 -31 -36 -75 -90 -99 -120 -23 -30 -63 -80 -90 -112 -75 -90 -285 -348 -307 -377 -27 -36 -131 -165 -225 -276 -42 -49 -107 -130 -145 -178 -39 -49 -88 -110 -110 -137 -22 -26 -86 -106 -143 -177 -57 -70 -154 -188 -215 -261 -128 -153 -164 -197 -227 -279 -57 -74 -119 -150 -195 -238 -34 -38 -132 -158 -218 -265 -86 -107 -174 -215 -196 -240 -47 -53 -50 -67 -16 -76 14 -3 224 -4 468 -1 404 4 451 7 552 27 119 24 205 59 277 114 50 39 203 209 308 345 36 46 87 110 113 142 l48 59 1114 0 1115 0 14 -22 c8 -13 21 -61 31 -108 23 -117 62 -273 82 -323 43 -110 136 -174 302 -210 87 -18 133 -20 478 -21 267 -1 385 2 393 10 8 8 4 35 -14 101 -14 50 -39 146 -56 214 -17 68 -56 221 -87 339 -31 118 -70 276 -88 350 -18 74 -49 198 -69 275 -21 77 -84 326 -142 554 -58 228 -107 418 -109 422 -3 4 -18 62 -34 130 -16 68 -50 203 -74 299 -25 96 -60 231 -77 300 -17 69 -40 157 -50 195 -11 39 -44 171 -75 294 -30 123 -60 230 -66 238 -9 11 -99 13 -488 11 -262 0 -514 -4 -561 -8z m240 -779 c5 -11 10 -30 10 -42 0 -13 14 -89 31 -169 16 -80 39 -188 50 -240 11 -52 29 -135 40 -185 11 -49 26 -121 34 -160 7 -38 46 -232 86 -430 40 -198 70 -368 66 -378 -6 -16 -56 -17 -798 -15 -517 2 -793 6 -795 13 -2 6 23 44 56 85 108 136 138 174 213 270 40 52 127 164 193 248 65 85 130 169 144 187 14 18 45 58 70 89 25 31 72 92 105 136 33 43 112 144 175 225 63 81 124 159 135 174 11 15 45 58 76 96 31 39 61 80 68 93 14 27 27 28 41 3z"/>
<path d="M8612 7269 c-294 -34 -397 -134 -516 -496 -26 -79 -49 -149 -52 -156 -13 -35 35 -37 727 -37 584 0 680 -2 685 -14 3 -8 -12 -77 -34 -153 -22 -76 -57 -199 -77 -273 -20 -74 -55 -196 -77 -270 -22 -74 -56 -189 -75 -255 -18 -66 -47 -165 -63 -220 -15 -55 -44 -156 -64 -225 -76 -269 -105 -371 -154 -540 -28 -96 -62 -218 -77 -270 -15 -52 -36 -124 -46 -160 -79 -274 -97 -408 -65 -483 30 -71 105 -112 257 -142 89 -17 660 -34 712 -21 20 5 29 16 37 49 7 23 26 92 45 152 18 61 45 155 59 210 15 55 34 120 42 145 25 77 87 294 190 659 19 68 37 127 39 131 2 4 16 51 30 106 14 54 36 135 49 179 13 44 38 130 56 190 17 61 43 148 57 195 13 47 33 117 43 155 41 153 138 492 200 695 l47 155 529 7 c538 6 616 11 714 46 179 63 249 155 329 432 50 174 52 185 45 204 -6 15 -170 16 -1763 15 -966 -1 -1789 -5 -1829 -10z"/>
<path d="M13098 7260 c-59 -10 -136 -29 -170 -41 -116 -41 -214 -131 -267 -243 -24 -51 -185 -587 -226 -751 -7 -27 -36 -129 -64 -225 -65 -222 -90 -308 -142 -495 -23 -82 -55 -195 -72 -250 -16 -55 -43 -147 -59 -205 -31 -112 -63 -225 -179 -625 -39 -137 -87 -311 -105 -385 -49 -196 -45 -321 13 -382 41 -45 93 -64 233 -88 109 -19 164 -22 423 -22 240 0 301 2 312 13 7 8 41 111 74 229 61 214 100 345 128 429 7 24 34 116 59 204 25 88 49 168 54 177 5 9 14 45 19 80 18 107 -53 97 714 103 370 3 713 10 762 16 50 5 133 15 185 21 395 45 829 170 1048 302 34 21 65 38 68 38 20 0 188 137 268 218 148 150 233 288 313 507 76 210 103 338 103 494 0 251 -83 422 -274 565 -183 138 -405 217 -786 279 -299 49 -338 50 -1360 53 -904 2 -972 1 -1072 -16z m1637 -680 c185 -12 249 -23 392 -67 89 -27 125 -44 176 -83 113 -86 136 -176 88 -355 -86 -323 -118 -400 -198 -486 -49 -53 -95 -74 -228 -105 -75 -18 -131 -19 -840 -19 l-760 0 3 30 c2 26 53 212 97 355 8 25 39 137 70 250 91 328 131 465 141 481 7 12 867 11 1059 -1z"/>
<path d="M5415 3051 c-139 -17 -283 -68 -393 -139 -83 -54 -118 -85 -173 -157 -81 -105 -140 -251 -161 -396 -10 -67 -9 -88 7 -160 18 -77 23 -89 74 -142 30 -32 69 -66 86 -77 125 -77 452 -109 728 -70 88 13 250 67 332 112 83 44 212 175 261 263 98 177 132 408 78 525 -54 117 -126 172 -289 221 -60 19 -100 22 -280 24 -115 2 -237 0 -270 -4z m316 -236 c40 -9 87 -23 104 -33 43 -25 75 -94 75 -162 0 -70 -59 -282 -103 -370 -28 -56 -39 -68 -82 -90 l-50 -25 -203 -3 c-182 -3 -209 -2 -270 17 -69 21 -93 39 -130 101 -18 32 -20 42 -11 110 10 86 16 113 53 230 51 163 82 200 190 226 75 18 339 17 427 -1z"/>
<path d="M12740 3050 c-122 -13 -273 -63 -376 -123 -88 -52 -188 -149 -235 -228 -22 -37 -57 -114 -77 -171 -34 -96 -36 -111 -37 -223 0 -109 2 -125 26 -176 28 -58 84 -121 133 -146 143 -74 377 -106 622 -84 425 37 676 225 779 580 24 82 27 106 23 200 -3 98 -6 111 -38 170 -28 53 -46 71 -95 103 -72 46 -174 82 -273 97 -78 12 -347 13 -452 1z m305 -234 c76 -16 140 -49 162 -82 10 -16 18 -54 21 -102 4 -66 0 -92 -28 -182 -66 -219 -99 -274 -178 -302 -26 -9 -101 -13 -257 -13 l-220 0 -58 28 c-80 40 -107 82 -107 165 0 97 78 354 127 419 29 39 51 52 118 68 68 17 344 18 420 1z"/>
<path d="M2474 3035 c-4 -8 -4 -30 -1 -48 2 -17 12 -86 21 -152 21 -149 50 -352 76 -515 10 -69 22 -153 25 -187 6 -64 30 -187 42 -218 6 -16 19 -17 152 -11 80 4 163 11 184 17 56 15 110 69 198 199 170 248 234 340 350 498 18 24 35 39 39 35 11 -13 29 -93 35 -163 3 -36 12 -103 20 -150 7 -47 21 -150 31 -230 9 -80 23 -160 30 -177 l13 -33 112 0 c62 0 142 5 178 11 61 11 70 16 126 73 33 34 87 100 120 148 33 49 81 116 106 151 40 53 128 178 251 352 15 22 43 61 60 86 18 25 66 92 107 150 41 57 86 117 100 132 22 24 23 29 11 37 -23 15 -278 12 -329 -4 -72 -21 -77 -27 -421 -540 -74 -110 -139 -201 -144 -201 -14 0 -25 47 -35 150 -5 50 -23 189 -40 310 l-30 220 -36 31 c-19 18 -50 34 -67 38 -40 8 -272 8 -292 0 -9 -4 -46 -50 -82 -103 -35 -53 -108 -158 -162 -234 -101 -144 -164 -232 -246 -349 -35 -50 -52 -66 -59 -59 -6 6 -17 66 -23 134 -15 160 -44 441 -50 494 -7 54 -44 99 -92 113 -20 5 -90 10 -155 10 -96 0 -119 -3 -123 -15z"/>
<path d="M6682 3035 c-24 -7 -53 -22 -64 -32 -25 -23 -53 -77 -63 -123 -4 -19 -16 -62 -26 -95 -32 -101 -129 -443 -164 -575 -18 -69 -38 -138 -44 -153 -14 -35 -14 -82 -1 -107 15 -28 61 -39 191 -46 l119 -7 15 36 c8 21 27 79 41 129 43 159 90 302 100 305 5 2 74 -70 154 -159 267 -299 259 -294 491 -304 162 -7 209 -3 209 20 0 7 -62 71 -137 141 -176 163 -235 224 -227 236 8 14 45 27 126 44 84 17 187 71 245 128 54 52 119 176 128 245 23 169 -52 252 -275 305 -75 18 -124 21 -430 23 -273 3 -354 0 -388 -11z m619 -231 c35 -10 68 -27 85 -45 l27 -28 -18 -67 c-11 -39 -29 -80 -45 -98 l-28 -30 -225 -6 -225 -5 -25 -23 c-31 -30 -41 -15 -23 34 7 22 26 89 41 149 15 61 32 116 38 123 15 19 325 17 398 -4z"/>
<path d="M8083 3039 c-7 -7 -13 -19 -13 -26 0 -8 -18 -73 -39 -146 -22 -72 -61 -206 -87 -297 -25 -91 -58 -203 -71 -250 -14 -47 -36 -123 -50 -170 -35 -122 -40 -190 -16 -212 30 -28 170 -38 529 -38 381 0 362 -5 384 93 18 78 7 108 -45 125 -23 8 -126 16 -259 20 l-221 7 3 30 c2 16 16 70 31 120 16 49 35 115 43 145 27 96 89 313 111 385 11 39 21 97 21 130 1 56 -1 60 -29 74 -41 21 -274 28 -292 10z"/>
<path d="M9225 3031 c-32 -11 -55 -27 -67 -47 -27 -43 -92 -255 -218 -709 -23 -82 -48 -167 -56 -188 -21 -55 -18 -130 5 -151 10 -9 45 -21 77 -26 75 -12 487 -12 619 0 408 38 711 268 791 600 20 84 18 206 -6 276 -36 107 -148 195 -299 236 -69 19 -108 21 -436 24 -325 3 -365 2 -410 -15z m650 -230 c163 -38 192 -140 110 -395 -25 -77 -57 -157 -72 -179 -55 -79 -134 -96 -444 -97 -108 0 -198 3 -202 6 -3 4 0 23 8 43 8 20 30 95 50 166 34 122 60 214 107 380 12 39 25 76 31 83 13 16 335 11 412 -7z"/>
<path d="M11045 3037 c-56 -22 -73 -37 -99 -83 -17 -30 -26 -62 -26 -90 l0 -44 203 -2 202 -3 -3 -25 c-1 -14 -11 -54 -21 -90 -11 -36 -33 -112 -49 -170 -95 -331 -115 -399 -128 -433 -16 -44 -18 -120 -4 -147 14 -25 62 -37 191 -45 120 -7 122 -6 138 67 6 26 15 57 20 70 5 13 37 122 71 243 56 200 91 322 139 475 l18 55 179 5 c131 4 187 9 209 20 43 22 84 95 87 155 l3 50 -550 2 c-402 1 -558 -2 -580 -10z"/>
<path d="M13882 3042 c-11 -7 -22 -41 -52 -157 -4 -16 -20 -70 -35 -120 -27 -90 -68 -233 -105 -374 -22 -81 -26 -203 -9 -264 12 -44 97 -135 151 -160 20 -9 80 -27 135 -39 91 -20 126 -21 478 -22 423 0 447 2 490 58 25 33 37 67 93 266 63 222 144 507 158 552 8 26 21 79 29 118 18 88 8 119 -45 137 -40 14 -248 17 -268 4 -7 -4 -21 -39 -32 -77 -10 -38 -34 -123 -53 -189 -85 -288 -146 -503 -152 -538 -4 -20 -16 -48 -27 -62 l-19 -25 -218 0 c-298 0 -342 16 -356 133 -7 56 9 129 84 377 80 262 85 287 75 327 -7 31 -15 40 -44 50 -39 13 -258 17 -278 5z"/>
<path d="M15511 3035 c-77 -24 -95 -51 -140 -210 -10 -38 -31 -110 -45 -160 -181 -626 -194 -686 -163 -729 14 -20 111 -35 229 -36 59 0 69 3 79 22 7 12 38 112 69 221 32 110 64 205 71 212 12 11 35 -10 139 -123 238 -259 264 -284 308 -303 63 -27 406 -40 415 -16 6 16 -24 48 -264 273 -65 60 -117 114 -118 119 -1 6 9 11 21 12 97 7 213 49 310 112 57 37 81 60 109 107 97 158 105 286 24 382 -36 43 -89 69 -200 100 l-90 25 -355 3 c-284 3 -364 1 -399 -11z m664 -245 l50 -25 3 -49 c4 -59 -30 -151 -62 -168 -13 -7 -104 -14 -243 -17 l-221 -6 -24 -23 c-43 -40 -43 -30 6 143 14 50 30 101 35 115 5 14 12 33 15 44 6 17 18 18 199 15 181 -4 195 -6 242 -29z"/>
</g>
</g>
  <g id="id2:id2" transform="matrix(1.25,0,0,1.25,0.0,0.0)"><g transform="translate(0.000000,868.800000) scale(0.040000,-0.040000)" fill="#01aff0" stroke="none">
<path d="M4470 20063 c-178 -28 -434 -124 -565 -214 -165 -114 -223 -161 -340 -281 -115 -117 -285 -325 -285 -348 0 -5 -11 -21 -24 -37 -40 -47 -119 -189 -229 -408 -66 -132 -97 -208 -171 -420 -77 -221 -133 -527 -146 -803 -10 -202 4 -599 24 -712 9 -47 16 -101 16 -120 0 -35 24 -164 60 -320 11 -47 28 -170 39 -275 17 -161 18 -215 10 -350 -10 -178 -13 -185 -78 -185 -59 -1 -153 -28 -175 -50 -18 -18 -21 -32 -19 -106 1 -49 11 -126 24 -181 l23 -95 -46 -41 c-25 -23 -56 -60 -69 -82 -12 -22 -42 -61 -66 -87 -36 -40 -43 -54 -43 -88 0 -36 -4 -43 -32 -58 -55 -30 -66 -46 -73 -116 -5 -44 -13 -70 -26 -82 -15 -14 -19 -31 -19 -84 0 -57 3 -70 23 -88 21 -20 74 -124 178 -350 l33 -73 -16 -57 c-18 -62 -86 -256 -111 -312 -8 -19 -29 -71 -46 -115 -31 -82 -75 -189 -156 -380 -25 -60 -60 -144 -76 -185 -17 -41 -46 -113 -66 -160 -19 -47 -43 -105 -53 -130 -49 -119 -73 -166 -105 -201 -40 -45 -47 -93 -17 -128 45 -55 314 -191 378 -191 40 0 94 24 95 43 0 6 2 39 3 72 2 34 10 74 19 90 8 17 42 98 75 182 34 84 71 171 82 194 12 23 28 60 35 83 30 91 68 186 114 286 27 58 62 136 78 174 16 38 34 71 40 73 6 2 19 -13 29 -34 9 -21 28 -52 40 -70 37 -49 64 -129 64 -186 0 -33 9 -70 23 -102 30 -64 64 -168 72 -223 5 -30 20 -58 51 -94 26 -31 54 -80 70 -122 15 -39 35 -89 44 -111 10 -22 58 -132 105 -245 48 -113 107 -243 130 -290 23 -47 60 -121 82 -165 57 -116 211 -401 250 -462 18 -29 50 -78 71 -109 20 -31 45 -71 54 -88 9 -17 43 -62 75 -100 32 -37 73 -89 90 -114 18 -26 70 -83 114 -128 72 -72 87 -83 127 -89 40 -6 109 -32 253 -97 26 -11 58 -30 73 -42 l27 -21 -17 -43 c-16 -40 -16 -43 1 -62 10 -11 41 -31 69 -45 57 -28 111 -59 201 -115 198 -122 616 -353 707 -391 158 -66 178 -78 178 -111 0 -11 9 -52 19 -91 11 -40 30 -126 41 -192 12 -66 29 -151 36 -190 30 -144 44 -251 39 -281 -5 -28 -2 -32 20 -36 14 -3 56 4 93 14 37 11 94 26 127 33 33 6 87 19 120 28 184 48 225 57 253 57 17 0 54 9 82 20 28 11 65 20 82 20 17 0 65 9 107 19 100 25 291 61 327 61 16 0 62 9 103 20 41 11 100 20 131 20 31 0 92 9 135 20 43 11 101 20 129 20 28 0 83 7 121 15 39 9 126 20 195 25 69 5 161 15 205 20 44 6 145 15 225 20 80 4 208 15 285 23 273 30 1578 28 1840 -2 44 -5 169 -14 279 -20 109 -7 230 -18 268 -26 38 -8 91 -15 118 -15 42 0 52 4 74 31 14 17 26 39 26 50 0 11 12 34 27 51 71 78 211 211 236 224 15 8 55 32 88 54 33 21 84 45 112 53 105 29 388 80 532 97 44 5 126 16 182 24 57 9 120 16 142 16 75 0 102 11 117 45 18 45 31 52 109 65 39 6 111 25 160 41 50 15 137 42 195 59 278 82 462 149 605 218 33 16 71 33 85 37 34 10 241 114 260 130 8 7 25 16 38 20 12 3 50 24 85 45 132 83 165 100 256 129 108 35 166 70 236 141 28 29 73 67 102 86 28 19 83 63 122 98 38 34 84 73 103 86 50 36 396 413 453 495 17 23 77 105 135 181 59 77 127 171 153 210 26 39 54 77 62 84 8 7 33 44 56 84 22 39 65 109 95 156 29 47 72 117 94 156 49 88 63 100 123 107 59 6 79 23 159 137 32 47 80 113 106 147 26 33 79 103 118 155 40 51 84 104 99 118 31 29 59 81 69 127 5 23 1 46 -13 78 l-20 46 19 47 c23 57 61 130 83 163 10 13 17 31 17 40 0 9 8 23 17 30 19 16 133 249 133 272 0 8 34 81 75 163 l75 148 0 79 c0 43 -4 87 -10 97 -5 10 -42 42 -80 71 -39 29 -87 74 -107 101 -22 30 -57 61 -90 80 -33 18 -64 46 -79 69 -27 43 -43 53 -97 63 -25 5 -55 22 -84 49 -39 36 -51 41 -103 45 -45 3 -64 10 -81 28 -41 44 -131 25 -201 -43 -31 -30 -45 -36 -100 -42 -68 -8 -143 -38 -171 -68 -9 -11 -25 -44 -35 -74 -101 -292 -102 -297 -102 -366 0 -58 5 -80 35 -142 20 -42 38 -97 42 -129 3 -32 15 -82 25 -112 10 -30 21 -81 25 -113 5 -53 4 -60 -20 -85 -14 -15 -38 -54 -52 -87 -15 -33 -31 -69 -37 -81 -19 -41 -180 -241 -278 -346 l-100 -106 0 -68 0 -67 -57 -56 c-107 -104 -179 -167 -259 -227 -76 -57 -99 -73 -264 -179 -41 -26 -100 -67 -130 -91 -30 -23 -95 -73 -145 -110 -49 -37 -124 -97 -165 -134 -41 -37 -102 -87 -135 -112 -33 -25 -154 -141 -270 -258 -115 -117 -221 -216 -235 -222 -16 -6 -59 -5 -126 3 -163 19 -704 -4 -757 -33 -18 -9 -24 -7 -43 17 l-22 27 -53 -12 c-30 -6 -76 -20 -104 -30 -27 -10 -68 -24 -90 -31 -22 -6 -75 -29 -118 -51 -42 -21 -129 -59 -192 -83 -123 -48 -196 -58 -246 -31 -99 51 -383 136 -458 136 -20 0 -90 9 -156 20 -140 23 -535 28 -639 9 -131 -25 -371 -89 -449 -121 -44 -17 -87 -21 -277 -28 -124 -5 -300 -12 -391 -16 l-166 -7 -27 39 c-14 21 -26 47 -26 57 0 10 -22 42 -49 70 -57 61 -54 45 -70 391 l-10 220 36 55 c20 31 61 83 90 117 86 99 111 182 89 291 -8 37 -17 111 -20 163 -4 52 -13 127 -21 165 -8 39 -19 115 -24 170 -9 99 -25 163 -61 240 -55 119 -80 207 -80 280 0 41 -5 98 -11 127 -17 79 -78 197 -140 270 -33 38 -80 113 -114 182 -62 124 -77 140 -202 224 -71 48 -264 142 -353 172 -75 25 -217 28 -335 6 -92 -17 -263 -70 -315 -97 -19 -11 -41 -19 -48 -19 -16 0 -87 -37 -170 -90 -34 -21 -89 -53 -121 -70 -60 -32 -271 -229 -271 -253 0 -7 -14 -29 -31 -50 -89 -107 -199 -414 -214 -595 -5 -61 -2 -88 20 -165 32 -115 63 -219 81 -275 19 -59 17 -95 -7 -142 -18 -34 -21 -53 -17 -108 7 -85 53 -206 102 -264 19 -24 51 -63 68 -87 18 -25 77 -78 131 -119 107 -81 111 -87 180 -267 83 -216 122 -379 96 -399 -8 -6 -32 -36 -55 -66 -68 -92 -100 -108 -229 -115 -109 -7 -169 -1 -310 30 -151 32 -784 29 -882 -6 -28 -9 -42 -7 -100 15 -38 14 -104 47 -148 71 -44 25 -127 68 -185 95 -58 27 -134 65 -170 84 l-65 34 -35 -19 c-44 -23 -85 -24 -164 -3 -33 9 -140 21 -236 28 l-175 11 -49 90 c-27 50 -100 176 -161 280 -62 105 -118 201 -125 214 -7 13 -31 48 -54 77 -22 29 -66 87 -96 130 -74 103 -136 177 -252 296 l-98 100 0 82 c0 111 -11 143 -83 237 -34 44 -76 104 -94 132 -17 29 -54 89 -83 134 -50 79 -101 191 -135 294 -18 52 -23 58 -56 64 -34 7 -46 23 -59 74 -11 45 -9 55 20 137 59 165 160 527 175 630 9 57 -19 159 -78 289 -27 61 -52 128 -54 150 l-5 40 68 60 c37 33 96 83 130 111 35 29 93 79 131 112 97 86 260 210 339 257 76 46 333 216 411 272 198 145 548 487 662 648 35 50 81 113 102 140 34 46 96 150 137 230 8 17 20 37 27 45 46 57 209 493 251 670 7 30 19 82 27 115 53 223 79 476 74 715 -5 269 -33 425 -112 630 -69 178 -113 257 -221 400 -122 160 -365 344 -537 405 -88 32 -131 42 -272 65 -75 13 -238 9 -345 -7z m286 -298 c119 -21 244 -64 330 -114 39 -23 77 -41 83 -41 22 0 238 -219 289 -294 126 -184 190 -382 217 -671 11 -127 12 -194 4 -325 -16 -264 -58 -449 -178 -785 -43 -119 -278 -559 -359 -670 -16 -22 -68 -95 -116 -161 -105 -147 -174 -224 -331 -366 -161 -147 -383 -282 -505 -307 -25 -5 -76 -16 -115 -25 -38 -9 -100 -16 -137 -16 -65 0 -93 5 -222 36 -73 19 -202 77 -236 108 -14 12 -38 31 -55 41 -55 34 -127 109 -173 180 -107 164 -121 198 -171 398 -26 103 -31 142 -36 315 -7 222 6 492 28 597 9 39 27 133 42 210 14 77 34 167 44 200 10 33 28 94 40 135 74 249 180 490 322 730 34 58 77 123 94 145 17 22 47 63 65 90 118 175 331 374 513 481 80 47 172 82 277 104 106 23 173 24 286 5z m-1576 -3760 c30 -31 71 -66 90 -79 205 -134 273 -164 428 -182 67 -7 124 -19 138 -29 l25 -16 -23 -41 c-20 -36 -141 -146 -291 -266 -23 -18 -58 -48 -77 -66 -50 -48 -71 -56 -144 -56 -77 0 -98 15 -116 81 -11 41 -53 110 -102 172 l-23 29 3 241 c3 224 8 267 31 267 4 0 31 -25 61 -55z"/>
<path d="M11260 9270 c0 -5 5 -10 10 -10 6 0 10 5 10 10 0 6 -4 10 -10 10 -5 0 -10 -4 -10 -10z"/>
<path d="M11297 9274 c-11 -11 5 -34 24 -34 22 0 24 11 7 28 -13 13 -22 15 -31 6z"/>
</g>
</g>
</svg>
