<?xml version="1.0" standalone="no"?>
<!DOCTYPE svg PUBLIC "-//W3C//DTD SVG 1.1//EN"
 "http://www.w3.org/Graphics/SVG/1.1/DTD/svg11.dtd">
<!-- Created with svg_stack (http://github.com/astraw/svg_stack) -->
<svg xmlns:sodipodi="http://sodipodi.sourceforge.net/DTD/sodipodi-0.dtd" xmlns="http://www.w3.org/2000/svg" version="1.1" width="324.0" height="181.0">
  <defs/>
  <g id="id0:id0" transform="matrix(1.25,0,0,1.25,0.0,0.0)"><g transform="translate(0.000000,144.800000) scale(0.040000,-0.040000)" fill="#193366" stroke="none">
<path d="M3680 2701 c0 -59 15 -85 22 -38 2 15 9 21 21 19 13 -2 17 4 17 26 0 19 -6 32 -17 36 -10 3 -24 9 -30 12 -10 4 -13 -10 -13 -55z"/>
<path d="M4060 2690 c0 -56 9 -63 28 -23 19 42 16 73 -8 73 -17 0 -20 -7 -20 -50z"/>
<path d="M4960 2680 c0 -33 4 -60 8 -60 20 0 32 28 32 72 0 41 -3 48 -20 48 -18 0 -20 -7 -20 -60z"/>
<path d="M2820 2540 c0 -11 5 -20 10 -20 6 0 10 9 10 20 0 11 -4 20 -10 20 -5 0 -10 -9 -10 -20z"/>
<path d="M3140 2545 c0 -8 5 -15 10 -15 6 0 10 7 10 15 0 8 -4 15 -10 15 -5 0 -10 -7 -10 -15z"/>
<path d="M3320 2551 c0 -6 5 -13 10 -16 6 -3 10 -40 10 -81 0 -43 4 -74 10 -74 6 0 10 37 10 90 0 83 -1 90 -20 90 -11 0 -20 -4 -20 -9z"/>
<path d="M3780 2541 c0 -17 6 -20 40 -18 28 1 46 -5 63 -21 13 -12 29 -22 35 -22 24 0 25 31 2 56 -20 20 -33 24 -82 24 -51 0 -58 -2 -58 -19z"/>
<path d="M4268 2539 c-53 -39 -25 -54 37 -19 53 30 78 25 126 -20 23 -22 44 -40 46 -40 1 0 3 8 3 18 0 10 -15 32 -33 50 -30 29 -39 32 -92 32 -45 -1 -67 -6 -87 -21z"/>
<path d="M4580 2540 c0 -23 10 -26 28 -8 18 18 15 28 -8 28 -13 0 -20 -7 -20 -20z"/>
<path d="M4672 2547 c-24 -31 -21 -34 33 -29 36 3 60 0 70 -8 22 -18 55 11 37 33 -15 18 -127 21 -140 4z"/>
<path d="M5052 2548 c-22 -22 -12 -30 36 -26 54 5 132 -23 132 -47 0 -8 5 -15 11 -15 6 0 9 14 7 32 -2 23 -11 36 -33 48 -35 19 -137 24 -153 8z"/>
<path d="M5415 2541 c-22 -13 -31 -26 -33 -49 -2 -18 1 -32 5 -32 5 0 27 18 48 40 23 24 48 40 62 40 13 0 23 5 23 10 0 16 -72 10 -105 -9z"/>
<path d="M5536 2552 c-8 -13 7 -27 47 -45 28 -14 37 -24 37 -42 0 -14 5 -25 10 -25 6 0 10 13 10 28 0 47 -85 115 -104 84z"/>
<path d="M5740 2540 c0 -11 5 -20 10 -20 6 0 10 9 10 20 0 11 -4 20 -10 20 -5 0 -10 -9 -10 -20z"/>
<path d="M5830 2545 c-17 -20 -5 -32 15 -15 12 10 19 10 27 2 18 -18 28 -14 28 8 0 15 -7 20 -29 20 -16 0 -34 -7 -41 -15z"/>
<path d="M6035 2541 c-36 -21 -47 -61 -17 -61 11 0 25 7 32 15 21 25 72 47 84 35 12 -12 66 -14 66 -2 0 35 -112 44 -165 13z"/>
<path d="M6260 2550 c0 -5 5 -10 10 -10 6 0 10 5 10 10 0 6 -4 10 -10 10 -5 0 -10 -4 -10 -10z"/>
<path d="M2840 2480 c0 -5 5 -10 10 -10 6 0 10 5 10 10 0 6 -4 10 -10 10 -5 0 -10 -4 -10 -10z"/>
<path d="M4580 2370 l0 -110 30 0 30 0 0 101 c0 87 -2 100 -15 95 -9 -3 -18 1 -21 9 -15 39 -24 5 -24 -95z"/>
<path d="M4480 2420 c0 -11 5 -20 10 -20 6 0 10 9 10 20 0 11 -4 20 -10 20 -5 0 -10 -9 -10 -20z"/>
<path d="M6240 2375 c0 -8 5 -15 10 -15 6 0 10 7 10 15 0 8 -4 15 -10 15 -5 0 -10 -7 -10 -15z"/>
<path d="M4220 2350 c0 -5 5 -10 10 -10 6 0 10 5 10 10 0 6 -4 10 -10 10 -5 0 -10 -4 -10 -10z"/>
<path d="M4060 2300 c0 -33 3 -40 20 -40 17 0 20 7 20 40 0 33 -3 40 -20 40 -17 0 -20 -7 -20 -40z"/>
<path d="M4836 2325 c-3 -8 -12 -12 -21 -9 -11 5 -15 -1 -15 -25 0 -28 3 -31 30 -31 28 0 30 2 30 40 0 40 -13 53 -24 25z"/>
<path d="M3350 2305 c-11 -13 -10 -18 6 -30 26 -20 64 -19 64 1 0 11 -5 14 -16 10 -11 -4 -18 1 -21 14 -6 24 -16 25 -33 5z"/>
<path d="M3680 2288 c0 -24 4 -28 30 -28 26 0 30 4 30 28 0 25 -4 29 -30 29 -26 0 -30 -4 -30 -29z"/>
<path d="M4240 2312 c0 -15 46 -52 63 -52 27 0 20 34 -10 48 -31 14 -53 16 -53 4z"/>
<path d="M4412 2308 c-18 -18 -15 -48 6 -48 17 0 62 38 62 53 0 12 -55 8 -68 -5z"/>
<path d="M5562 2297 c-27 -28 -28 -37 -4 -37 17 0 62 38 62 53 0 16 -38 5 -58 -16z"/>
<path d="M6030 2305 c-7 -9 -11 -17 -9 -18 37 -25 62 -30 81 -18 15 9 23 10 31 2 19 -19 47 -13 47 9 0 18 -7 20 -54 20 -30 0 -58 5 -61 10 -9 14 -21 12 -35 -5z"/>
<path d="M6200 2310 c0 -5 5 -10 10 -10 6 0 10 5 10 10 0 6 -4 10 -10 10 -5 0 -10 -4 -10 -10z"/>
<path d="M3460 2280 c0 -11 5 -20 10 -20 6 0 10 9 10 20 0 11 -4 20 -10 20 -5 0 -10 -9 -10 -20z"/>
<path d="M3900 2280 c0 -13 7 -20 20 -20 23 0 26 10 8 28 -18 18 -28 15 -28 -8z"/>
<path d="M4960 2280 c0 -13 7 -20 20 -20 13 0 20 7 20 20 0 13 -7 20 -20 20 -13 0 -20 -7 -20 -20z"/>
<path d="M5050 2292 c0 -10 41 -35 47 -28 9 8 -17 36 -33 36 -8 0 -14 -3 -14 -8z"/>
<path d="M5740 2280 c0 -13 7 -20 20 -20 23 0 26 10 8 28 -18 18 -28 15 -28 -8z"/>
<path d="M6241 2253 c2 -30 -1 -48 -9 -51 -7 -2 -12 -10 -12 -17 0 -18 -55 -45 -91 -45 -16 0 -44 9 -64 20 -20 11 -47 20 -61 20 -20 0 -25 -4 -22 -22 5 -34 54 -56 126 -57 67 -1 89 7 140 53 32 30 44 78 22 91 -5 3 -10 17 -10 31 0 13 -5 24 -11 24 -6 0 -9 -18 -8 -47z"/>
<path d="M3560 2270 c0 -5 5 -10 10 -10 6 0 10 5 10 10 0 6 -4 10 -10 10 -5 0 -10 -4 -10 -10z"/>
<path d="M3300 1990 c0 -40 4 -70 10 -70 6 0 10 24 10 54 0 30 5 58 10 61 17 10 11 25 -10 25 -18 0 -20 -7 -20 -70z"/>
<path d="M201 2011 c-17 -31 -24 -200 -12 -290 6 -47 23 -147 37 -222 24 -129 27 -138 52 -147 15 -6 108 -36 207 -67 248 -79 325 -120 325 -172 0 -53 15 -63 93 -63 40 0 107 9 148 19 41 11 101 24 135 30 66 12 133 41 154 66 7 8 13 33 13 55 0 22 6 45 13 51 19 16 17 29 -4 29 -10 0 -34 19 -53 43 -20 23 -85 76 -145 117 -185 125 -258 174 -317 210 -32 19 -88 55 -125 79 -37 24 -103 64 -147 91 -44 26 -111 67 -150 92 -78 50 -175 98 -199 98 -8 0 -20 -8 -25 -19z"/>
<path d="M3400 1860 c0 -17 7 -20 50 -20 43 0 50 3 50 20 0 17 -7 20 -50 20 -43 0 -50 -3 -50 -20z"/>
<path d="M3700 1835 c-24 -24 -41 -47 -38 -50 6 -6 65 22 73 35 3 5 22 17 41 26 l35 17 41 -22 c44 -23 72 -27 66 -9 -9 25 -63 47 -118 47 l-56 1 -44 -45z"/>
<path d="M4072 1868 c-17 -17 -15 -48 3 -48 8 0 30 9 49 20 32 17 38 18 64 4 17 -8 35 -21 42 -29 7 -8 21 -15 31 -15 27 0 24 32 -4 58 -20 19 -35 22 -98 22 -45 0 -80 -5 -87 -12z"/>
<path d="M4340 1860 c0 -11 5 -20 10 -20 6 0 10 9 10 20 0 11 -4 20 -10 20 -5 0 -10 -9 -10 -20z"/>
<path d="M4520 1860 c0 -11 5 -20 10 -20 6 0 10 9 10 20 0 11 -4 20 -10 20 -5 0 -10 -9 -10 -20z"/>
<path d="M4732 1868 c-15 -15 -16 -48 -2 -48 6 0 10 6 10 14 0 21 20 30 33 17 17 -17 27 -13 27 9 0 15 -7 20 -28 20 -15 0 -33 -5 -40 -12z"/>
<path d="M4943 1866 c-42 -24 -63 -49 -63 -78 0 -21 5 -28 20 -28 11 0 20 6 20 13 0 7 17 30 38 50 38 37 83 49 97 26 4 -6 13 -8 20 -5 7 2 25 -13 41 -35 28 -37 44 -48 44 -30 0 4 -9 20 -20 34 -11 14 -20 31 -20 37 0 7 -7 10 -15 6 -9 -3 -18 1 -21 9 -8 19 -108 19 -141 1z"/>
<path d="M3920 1790 c0 -5 5 -10 10 -10 6 0 10 5 10 10 0 6 -4 10 -10 10 -5 0 -10 -4 -10 -10z"/>
<path d="M4077 1742 c-55 -34 -73 -105 -34 -138 41 -37 76 -49 97 -36 11 7 28 12 39 12 21 0 48 27 37 37 -3 4 -12 1 -18 -5 -7 -7 -28 -12 -48 -12 -43 0 -70 24 -70 62 0 39 29 58 88 58 28 0 53 4 57 10 3 5 12 7 20 3 9 -3 15 1 15 9 0 22 -146 22 -183 0z"/>
<path d="M4440 1706 c0 -30 -4 -58 -10 -61 -14 -9 -12 -41 3 -53 6 -5 32 -12 57 -13 35 -3 45 -1 45 11 0 9 -9 15 -21 15 -40 0 -54 23 -54 91 0 36 -4 64 -10 64 -5 0 -10 -24 -10 -54z"/>
<path d="M4660 1716 c0 -25 -4 -48 -10 -51 -5 -3 -10 -24 -10 -46 0 -32 3 -39 20 -39 19 0 20 7 20 90 0 53 -4 90 -10 90 -5 0 -10 -20 -10 -44z"/>
<path d="M3880 1730 c0 -5 9 -10 20 -10 11 0 20 5 20 10 0 6 -9 10 -20 10 -11 0 -20 -4 -20 -10z"/>
<path d="M4940 1730 c0 -5 23 -10 50 -10 28 0 50 5 50 10 0 6 -22 10 -50 10 -27 0 -50 -4 -50 -10z"/>
<path d="M3560 1675 c0 -19 5 -35 10 -35 6 0 10 16 10 35 0 19 -4 35 -10 35 -5 0 -10 -16 -10 -35z"/>
<path d="M4240 1670 c0 -16 5 -30 10 -30 6 0 10 14 10 30 0 17 -4 30 -10 30 -5 0 -10 -13 -10 -30z"/>
<path d="M4890 1665 c-11 -13 -8 -21 20 -50 19 -19 42 -35 52 -35 10 0 27 -6 38 -12 16 -10 24 -10 40 0 11 6 32 12 48 12 32 0 52 16 52 42 0 24 -32 23 -55 -2 -35 -38 -136 -14 -160 38 -12 26 -18 27 -35 7z"/>
<path d="M3300 1620 c0 -33 3 -40 20 -40 21 0 27 15 10 25 -5 3 -10 17 -10 31 0 13 -4 24 -10 24 -5 0 -10 -18 -10 -40z"/>
<path d="M3680 1657 c0 -2 7 -18 15 -35 19 -36 64 -62 112 -62 37 0 45 17 11 22 -16 2 -22 9 -20 21 2 12 -4 17 -21 17 -13 0 -32 9 -42 20 -15 17 -55 29 -55 17z"/>
<path d="M3895 1630 c-3 -5 -15 -10 -26 -10 -21 0 -23 -7 -9 -30 7 -12 12 -12 34 0 14 7 26 22 26 32 0 19 -15 24 -25 8z"/>
<path d="M4240 1613 c0 -15 23 -33 42 -33 23 0 23 16 1 24 -10 3 -24 9 -30 12 -7 3 -13 2 -13 -3z"/>
<path d="M3520 1601 c0 -17 30 -25 43 -12 8 8 8 11 0 11 -6 0 -18 3 -27 6 -9 3 -16 1 -16 -5z"/>
<path d="M2130 1550 c0 -5 7 -10 15 -10 8 0 15 5 15 10 0 6 -7 10 -15 10 -8 0 -15 -4 -15 -10z"/>
<path d="M4632 1328 c-18 -18 -15 -28 8 -28 13 0 20 7 20 20 0 23 -10 26 -28 8z"/>
<path d="M3321 1211 c-25 -34 -27 -83 -6 -101 20 -16 32 -5 16 14 -7 8 -11 27 -9 42 2 22 11 29 51 42 l47 15 25 -23 c24 -22 27 -23 42 -7 13 13 14 19 3 31 -9 12 -31 16 -81 16 -63 0 -69 -2 -88 -29z"/>
<path d="M3622 1217 c-30 -32 -29 -87 1 -115 26 -25 47 -28 65 -10 16 16 15 28 -1 28 -18 0 -47 32 -47 53 0 8 14 22 31 31 28 14 33 13 65 -4 43 -25 64 -25 64 -2 0 24 -45 42 -105 42 -41 0 -56 -5 -73 -23z"/>
<path d="M3973 1228 c-38 -59 -38 -85 0 -52 46 41 73 48 110 31 19 -9 40 -23 47 -32 18 -22 32 -18 28 7 -2 12 -16 29 -33 39 -36 21 -140 25 -152 7z"/>
<path d="M4332 1207 c-34 -35 -39 -56 -20 -75 15 -15 28 -15 28 0 0 7 12 25 27 40 22 23 35 28 74 28 26 0 51 -4 54 -10 3 -5 15 -10 26 -10 22 0 26 29 7 48 -15 15 -61 15 -76 0 -9 -9 -15 -9 -24 0 -22 22 -63 13 -96 -21z"/>
<path d="M4818 1226 c-19 -14 -23 -32 -10 -39 4 -3 25 3 46 14 22 10 46 19 53 19 7 0 13 5 13 10 0 15 -82 12 -102 -4z"/>
<path d="M4937 1234 c-8 -8 3 -34 14 -34 5 0 9 9 9 20 0 19 -11 26 -23 14z"/>
<path d="M5080 1220 c0 -13 7 -20 20 -20 23 0 26 10 8 28 -18 18 -28 15 -28 -8z"/>
<path d="M5260 1220 c0 -11 5 -20 10 -20 6 0 10 9 10 20 0 11 -4 20 -10 20 -5 0 -10 -9 -10 -20z"/>
<path d="M5574 1208 c-44 -50 -54 -73 -54 -131 0 -49 3 -56 43 -95 44 -43 64 -51 84 -31 16 16 44 4 37 -16 -7 -17 11 -21 21 -5 3 6 16 10 29 10 26 0 86 58 86 83 0 10 -8 17 -20 17 -11 0 -20 -6 -20 -14 0 -22 -54 -44 -115 -47 -60 -3 -84 14 -85 59 0 16 -5 22 -17 20 -13 -2 -18 4 -18 22 0 18 5 24 18 22 12 -2 17 4 17 20 0 12 12 35 27 50 24 25 34 28 91 28 65 0 77 10 39 34 -12 8 -23 7 -38 -2 -15 -10 -24 -11 -32 -3 -21 21 -62 12 -93 -21z"/>
<path d="M6060 1230 c0 -5 5 -10 10 -10 6 0 10 5 10 10 0 6 -4 10 -10 10 -5 0 -10 -4 -10 -10z"/>
<path d="M6096 1232 c-8 -13 9 -33 25 -30 8 2 15 -7 17 -20 2 -15 9 -22 20 -20 15 3 17 -7 17 -72 0 -66 -2 -75 -17 -72 -13 2 -18 -4 -18 -19 0 -14 5 -19 15 -16 17 7 30 -9 15 -18 -17 -10 -11 -25 10 -25 19 0 20 7 20 118 l0 118 -33 32 c-32 31 -60 41 -71 24z"/>
<path d="M3356 1112 c-2 -4 -1 -14 4 -22 7 -11 11 -11 24 -1 14 12 21 8 51 -23 40 -42 40 -45 21 -71 -10 -14 -25 -19 -56 -18 -24 1 -48 7 -54 13 -17 17 -46 12 -46 -9 0 -30 20 -37 101 -39 67 -2 78 1 96 20 12 13 21 35 21 51 -1 27 -12 36 -23 17 -9 -15 -25 -2 -19 14 3 8 1 17 -5 20 -6 4 -8 13 -4 21 4 11 -2 15 -20 15 -14 0 -29 5 -32 10 -7 12 -52 13 -59 2z"/>
<path d="M4818 1097 c-22 -12 -38 -28 -38 -39 0 -24 28 -23 54 1 13 12 40 21 71 24 37 3 51 8 53 20 5 26 -92 22 -140 -6z"/>
<path d="M5180 1100 c0 -5 5 -10 10 -10 6 0 10 5 10 10 0 6 -4 10 -10 10 -5 0 -10 -4 -10 -10z"/>
<path d="M3720 1081 c0 -10 9 -21 21 -24 16 -4 20 -12 17 -39 l-3 -33 -49 -3 c-27 -2 -54 2 -59 7 -6 6 -19 11 -30 11 -29 0 -17 -40 18 -61 40 -24 61 -23 117 4 48 22 59 42 36 65 -9 9 -9 15 0 24 18 18 15 51 -3 44 -9 -3 -18 1 -21 9 -9 22 -44 19 -44 -4z"/>
<path d="M1940 1070 c0 -5 5 -10 10 -10 6 0 10 5 10 10 0 6 -4 10 -10 10 -5 0 -10 -4 -10 -10z"/>
<path d="M4175 1040 c-3 -5 -12 -7 -20 -3 -9 3 -15 -1 -15 -9 0 -21 -33 -48 -58 -48 -11 0 -24 -4 -27 -10 -11 -19 -39 -10 -72 22 -31 30 -34 31 -49 16 -9 -9 -13 -21 -10 -27 15 -23 73 -41 131 -39 56 1 63 3 103 41 23 23 42 47 42 54 0 15 -16 17 -25 3z"/>
<path d="M3200 1020 c0 -11 5 -20 10 -20 6 0 10 9 10 20 0 11 -4 20 -10 20 -5 0 -10 -9 -10 -20z"/>
<path d="M4972 1013 c-11 -25 -10 -30 13 -52 27 -28 48 -22 22 6 -10 12 -13 28 -10 46 7 35 -8 35 -25 0z"/>
<path d="M5140 1017 c0 -35 21 -72 49 -85 49 -23 91 -9 91 30 0 14 -8 18 -34 18 -19 0 -38 5 -41 10 -5 8 -11 8 -19 1 -16 -14 -26 -4 -26 26 0 13 -4 23 -10 23 -5 0 -10 -10 -10 -23z"/>
<path d="M5380 990 c0 -43 3 -50 20 -50 24 0 27 31 8 73 -19 40 -28 33 -28 -23z"/>
<path d="M5958 998 c-2 -16 -9 -22 -20 -20 -10 2 -18 -1 -18 -6 0 -14 23 -32 42 -32 14 0 18 8 18 40 0 42 -16 56 -22 18z"/>
<path d="M4320 992 c0 -5 10 -18 23 -30 25 -23 52 -28 62 -12 9 15 25 2 18 -15 -4 -11 3 -15 25 -15 17 0 34 5 37 10 3 6 17 10 29 10 33 0 53 25 36 45 -14 17 -46 20 -55 5 -3 -5 -28 -10 -55 -10 -27 0 -52 5 -55 10 -7 12 -65 14 -65 2z"/>
<path d="M4780 983 c1 -22 66 -57 76 -42 8 14 -35 59 -58 59 -11 0 -18 -7 -18 -17z"/>
<path d="M4620 960 c0 -13 7 -20 20 -20 23 0 26 10 8 28 -18 18 -28 15 -28 -8z"/>
<path d="M4903 966 c-32 -15 -29 -26 7 -26 23 0 30 4 30 20 0 22 -4 23 -37 6z"/>
<path d="M2140 910 c0 -5 5 -10 10 -10 6 0 10 5 10 10 0 6 -4 10 -10 10 -5 0 -10 -4 -10 -10z"/>
<path d="M1740 892 c0 -23 30 -32 106 -32 60 0 85 -4 94 -15 7 -8 27 -15 46 -15 18 0 36 -4 39 -10 3 -5 21 -10 40 -10 19 0 37 -4 40 -10 3 -5 17 -10 30 -10 13 0 27 -4 30 -10 3 -5 16 -10 28 -10 12 0 36 -8 52 -18 17 -10 53 -26 80 -36 108 -40 275 -133 392 -219 28 -20 58 -37 67 -37 59 0 219 153 189 180 -15 14 -71 22 -78 11 -11 -19 -31 -12 -84 31 -40 33 -60 42 -94 44 -40 2 -72 8 -257 54 -47 12 -104 23 -127 24 -24 2 -49 9 -57 15 -14 12 -85 24 -291 51 -38 5 -98 9 -132 10 -34 0 -65 5 -68 10 -7 12 -45 14 -45 2z"/>
<path d="M2660 877 c0 -18 28 -42 37 -33 9 8 -9 38 -25 44 -7 2 -12 -3 -12 -11z"/>
</g>
</g>
  <g id="id1:id1" transform="matrix(1.25,0,0,1.25,0.0,0.0)"><g transform="translate(0.000000,144.800000) scale(0.040000,-0.040000)" fill="#ffffff" stroke="none">
<path d="M0 1810 l0 -1810 3240 0 3240 0 0 1810 0 1810 -3240 0 -3240 0 0 -1810z m1976 1640 c224 -18 355 -51 538 -134 l79 -36 -6 -45 c-4 -25 -15 -82 -26 -127 -11 -46 -34 -146 -51 -223 -18 -77 -40 -176 -50 -220 -10 -44 -35 -152 -54 -240 -151 -676 -139 -630 -156 -630 -13 0 -42 43 -103 155 -16 30 -35 62 -42 70 -6 8 -23 35 -37 60 -42 76 -67 120 -149 257 -44 73 -79 136 -79 139 0 3 -11 20 -24 37 -71 94 -106 183 -142 354 -19 93 -51 245 -71 338 -20 94 -37 184 -37 200 l-1 30 90 11 c121 15 170 16 321 4z m-454 -240 c27 -107 47 -203 46 -213 -5 -29 -19 -24 -42 14 -11 21 -43 75 -71 120 -27 46 -55 93 -61 104 -6 11 -25 44 -43 74 -18 30 -29 57 -24 62 10 10 114 38 132 36 10 -2 29 -61 63 -197z m-242 100 c0 -5 13 -28 29 -52 15 -24 42 -68 58 -98 17 -30 54 -95 83 -145 85 -145 89 -153 83 -158 -3 -3 -56 40 -119 96 l-114 102 -11 55 c-6 30 -19 85 -28 122 -12 42 -14 72 -9 82 9 16 28 13 28 -4z m-88 -36 c4 -16 12 -49 18 -73 6 -24 7 -48 3 -52 -4 -4 -37 19 -72 51 l-64 58 24 15 c71 44 80 44 91 1z m-202 -145 c14 -24 33 -60 42 -80 l16 -36 -28 -21 c-43 -32 -52 -31 -62 8 -44 168 -28 233 32 129z m1863 -9 c68 -46 347 -344 347 -370 0 -6 0 -13 0 -17 0 -4 -14 -9 -32 -11 -18 -2 -35 -6 -37 -8 -2 -2 -30 -68 -62 -146 -32 -78 -63 -146 -69 -152 -16 -16 -27 2 -76 120 -25 60 -52 126 -61 147 l-17 37 -52 0 c-46 0 -52 -3 -57 -22 -8 -37 -9 -381 -2 -421 7 -35 9 -37 46 -37 l38 0 3 143 c2 79 7 142 12 142 5 0 27 -43 48 -95 70 -176 78 -190 109 -190 28 0 25 -6 133 253 27 65 36 35 36 -114 l0 -139 23 0 c13 0 28 -5 35 -12 16 -16 16 -162 -1 -176 -7 -6 -74 -10 -162 -11 -83 0 -183 0 -223 0 l-73 -1 3 -37 3 -38 95 -5 95 -5 6 -195 c3 -107 6 -196 7 -197 1 -2 17 -3 36 -3 l33 0 7 51 c4 28 6 117 5 197 l-1 147 88 0 89 0 0 -472 c0 -309 -3 -473 -10 -473 -5 0 -10 3 -11 8 0 4 -12 32 -26 62 -14 30 -47 105 -73 165 -68 160 -65 155 -94 155 -32 0 -43 -8 -57 -40 -25 -54 -62 -138 -89 -200 -15 -36 -45 -103 -66 -149 -42 -88 -41 -113 4 -107 41 6 54 17 67 57 7 21 19 44 26 50 7 5 55 9 115 7 l103 -3 17 -44 c9 -25 29 -55 44 -67 l27 -22 -40 -55 c-50 -67 -228 -248 -300 -305 -52 -41 -94 -53 -107 -32 -15 24 -189 131 -305 188 -113 55 -259 110 -350 132 -19 5 -53 14 -75 20 -22 7 -78 17 -125 24 -57 8 -84 16 -82 24 4 21 -26 69 -48 75 -25 6 -27 -18 -4 -44 22 -25 9 -39 -35 -39 -60 0 -102 11 -108 29 -11 37 -27 61 -40 61 -19 0 -28 -27 -14 -44 16 -20 3 -26 -54 -26 -54 0 -70 9 -76 44 -6 28 -37 45 -49 27 -5 -9 -5 -22 0 -32 13 -24 3 -29 -62 -29 l-58 0 -14 35 c-10 24 -21 35 -36 35 -13 0 -33 18 -55 49 -44 61 -79 85 -103 72 -9 -5 -58 -15 -109 -22 -103 -14 -123 -8 -123 41 0 15 -9 38 -19 52 -28 36 -153 90 -349 151 -95 30 -178 59 -185 66 -17 17 -66 278 -73 391 -8 118 2 229 22 237 21 8 132 -48 269 -138 56 -37 299 -188 389 -242 11 -7 38 -25 60 -40 23 -15 93 -62 156 -105 108 -73 181 -137 242 -213 14 -19 30 -31 34 -27 4 4 2 13 -3 20 -6 7 -13 39 -17 71 -8 75 -36 155 -77 220 -62 98 -505 532 -734 719 -170 137 -197 161 -202 174 -12 32 118 270 201 369 l25 30 40 -45 c42 -49 61 -51 36 -4 -8 16 -15 38 -15 48 0 27 81 154 128 199 46 45 50 43 81 -60 28 -94 27 -117 -9 -170 -16 -24 -30 -48 -30 -52 0 -5 -7 -14 -15 -21 -17 -14 -45 -67 -45 -87 0 -19 30 -16 47 5 7 9 30 41 50 70 19 29 39 50 44 45 5 -5 11 -34 15 -65 6 -52 4 -61 -25 -107 -28 -47 -41 -101 -24 -101 4 0 17 10 30 22 26 25 38 18 47 -28 5 -22 2 -35 -9 -44 -24 -20 -18 -53 21 -114 39 -59 60 -68 87 -38 13 14 16 35 14 92 -2 77 12 110 23 54 4 -17 14 -45 23 -64 10 -18 17 -38 17 -44 0 -6 7 -24 15 -40 8 -15 12 -32 9 -37 -3 -5 5 -13 18 -18 20 -7 23 -16 25 -62 5 -98 14 -149 28 -149 7 0 26 -20 42 -45 15 -25 33 -43 40 -41 17 7 24 -5 12 -20 -7 -9 0 -22 27 -50 34 -34 36 -38 20 -50 -15 -10 -16 -16 -6 -34 9 -17 9 -29 1 -48 -15 -31 -9 -37 41 -37 36 0 43 -4 57 -32 9 -19 24 -33 34 -33 10 0 17 3 15 8 -69 138 -68 137 -52 149 14 10 13 15 -3 49 -10 21 -30 45 -46 52 -15 7 -27 21 -27 31 0 11 -7 22 -15 25 -9 3 -23 20 -31 38 -8 18 -24 49 -36 68 -31 52 -48 113 -36 134 7 12 6 27 -3 47 -9 24 -9 33 0 42 17 17 46 -20 88 -113 19 -41 46 -97 60 -125 15 -27 27 -66 27 -85 1 -28 5 -36 23 -38 17 -2 36 -29 78 -107 30 -56 55 -113 55 -126 0 -12 12 -37 26 -56 l26 -34 -17 -35 c-11 -24 -20 -32 -28 -26 -23 18 -62 21 -81 7 -18 -14 -18 -17 -3 -52 9 -21 17 -47 19 -58 2 -12 12 -21 26 -23 22 -3 65 -58 91 -117 7 -16 17 -38 22 -48 7 -12 5 -19 -6 -23 -19 -8 -19 -25 1 -67 19 -41 51 -64 67 -48 6 6 21 11 34 11 13 0 23 4 23 9 0 5 14 19 30 31 24 17 34 19 45 10 24 -20 97 -172 88 -181 -5 -5 -30 12 -58 41 -45 45 -85 65 -85 41 0 -10 204 -204 221 -209 5 -2 16 -1 24 2 11 4 0 32 -45 120 -32 64 -55 118 -51 120 9 6 61 -36 162 -128 36 -34 93 -83 127 -110 34 -28 62 -53 62 -58 0 -4 9 -8 20 -8 33 0 25 25 -60 175 -15 28 -51 95 -79 149 -28 55 -56 105 -61 111 -5 7 -7 15 -3 18 6 6 96 -62 120 -91 7 -8 39 -35 72 -61 32 -25 98 -80 146 -121 47 -41 103 -88 124 -105 79 -62 171 -149 171 -162 0 -7 6 -13 13 -13 8 0 34 -15 58 -34 88 -67 121 -54 71 30 -32 53 -152 259 -198 339 -16 27 -33 57 -39 66 -10 16 -43 75 -109 194 -18 33 -72 125 -120 205 -48 80 -89 155 -92 167 -3 12 2 48 11 80 9 32 23 78 30 103 8 25 41 133 75 240 33 107 81 258 105 335 188 606 227 729 232 738 5 8 26 -2 86 -43z m-1660 -33 c37 -33 69 -70 72 -81 10 -53 59 -256 71 -298 22 -79 -5 -69 -46 17 -8 17 -19 37 -26 45 -7 8 -31 51 -54 95 -23 44 -53 98 -66 120 -48 81 -69 191 -32 169 7 -4 43 -35 81 -67z m-110 -145 c17 -18 49 -147 39 -157 -3 -2 -11 0 -19 7 -10 8 -17 7 -27 -7 -9 -13 -15 -15 -20 -7 -4 7 -5 16 -1 21 3 5 1 12 -5 16 -5 3 -10 13 -10 22 0 9 -12 32 -27 51 l-26 35 24 18 c30 24 52 24 72 1z m510 -219 c27 -23 46 -47 42 -53 -6 -10 -131 -94 -174 -118 -36 -19 -47 -10 -60 55 -7 32 -17 76 -23 98 -5 22 -13 58 -18 80 -5 22 -15 68 -23 103 -7 34 -12 64 -9 67 2 2 52 -40 111 -93 58 -53 128 -116 154 -139z m-435 -69 c-2 -13 -7 -25 -13 -26 -13 -2 -75 114 -68 126 4 5 24 -10 45 -33 28 -30 38 -49 36 -67z m-62 -46 c86 -151 95 -173 99 -242 2 -36 0 -68 -4 -70 -19 -12 -79 75 -98 144 -28 97 -38 126 -50 135 -9 8 -18 73 -14 108 3 23 25 -2 67 -75z m2636 -3 c2 -54 6 -70 18 -71 32 -2 33 -5 9 -30 -20 -22 -24 -38 -28 -104 -3 -88 -20 -119 -42 -79 -14 27 -5 302 12 346 15 41 28 16 31 -62z m-2500 32 c18 -38 25 -48 65 -99 55 -70 62 -100 30 -121 -42 -28 -76 -32 -83 -11 -3 11 -13 34 -21 52 -16 37 -33 130 -26 148 2 7 -1 15 -7 19 -8 5 -8 11 1 21 14 17 30 14 41 -9z m2866 -143 c-3 -125 -5 -149 -18 -149 -13 0 -15 24 -18 144 -2 99 1 148 9 158 24 28 30 -6 27 -153z m902 85 c0 -45 2 -49 24 -49 29 0 42 -15 23 -27 -7 -4 -20 -20 -30 -35 -45 -71 6 -178 84 -178 82 0 124 41 124 120 0 56 11 76 31 59 19 -15 18 -102 -1 -139 -34 -65 -122 -95 -191 -65 -22 9 -54 23 -71 31 l-33 14 0 153 c0 103 4 157 12 165 19 19 28 3 28 -49z m-3324 -155 c4 -102 3 -173 -2 -177 -10 -6 -222 174 -238 202 -11 19 34 59 139 124 52 33 73 41 82 33 8 -7 14 -71 19 -182z m1899 -14 c0 -87 -4 -144 -10 -146 -5 -2 -23 8 -40 21 l-29 24 17 19 c13 15 17 38 17 113 0 61 4 99 12 107 27 27 33 4 33 -138z m750 140 c3 -5 -7 -16 -23 -24 -36 -19 -60 -69 -42 -90 6 -8 24 -16 38 -18 37 -4 30 -22 -10 -28 -30 -5 -33 -8 -33 -39 0 -44 -20 -50 -39 -12 -38 72 -9 164 64 202 41 22 37 22 45 9z m137 -36 c48 -53 42 -124 -11 -124 -15 0 -34 7 -41 15 -10 12 -8 16 14 25 38 14 35 52 -8 87 -19 15 -33 31 -30 35 6 10 54 -14 76 -38z m683 37 c7 -12 -12 -24 -25 -16 -11 7 -4 25 10 25 5 0 11 -4 15 -9z m1133 -121 c3 -137 0 -159 -22 -141 -9 8 -22 8 -39 2 -38 -15 -40 -2 -7 36 23 26 30 43 30 76 0 52 -18 94 -44 101 -16 4 -17 7 -6 21 9 11 16 13 24 5 15 -15 23 -12 29 11 3 12 12 19 19 17 10 -3 14 -37 16 -128z m-1629 104 l31 -16 -32 -40 c-29 -37 -32 -39 -45 -22 -16 22 -17 66 -1 82 15 15 9 15 47 -4z m189 -22 c18 -23 16 -173 -2 -198 -19 -26 -23 -13 -29 99 -3 48 -10 93 -16 101 -6 7 -8 15 -5 19 9 8 37 -3 52 -21z m996 7 c6 -5 2 -11 -8 -15 -30 -11 -46 -59 -46 -137 0 -79 -5 -93 -27 -76 -17 15 -19 219 -2 236 12 12 67 7 83 -8z m-4047 -72 c19 -40 76 -142 126 -227 142 -242 205 -358 200 -364 -6 -6 -203 161 -334 284 l-48 45 -2 165 c0 91 0 169 0 173 2 19 24 -10 58 -76z m2161 -66 c-2 -77 -6 -96 -18 -96 -12 0 -16 20 -21 97 -3 54 -8 101 -12 104 -4 4 -1 14 5 22 10 12 15 11 30 -9 16 -18 18 -37 16 -118z m-608 63 c0 -24 4 -52 9 -62 5 -9 15 -32 21 -50 9 -22 21 -34 39 -38 45 -10 52 -14 46 -24 -3 -5 -23 -10 -44 -10 -28 0 -44 7 -65 29 -23 24 -28 39 -33 104 -3 41 -3 83 1 92 11 29 26 5 26 -41z m2274 35 c-3 -5 -10 -7 -15 -3 -5 3 -7 10 -3 15 3 5 10 7 15 3 5 -3 7 -10 3 -15z m-179 -79 c-3 -6 -13 -10 -21 -10 -24 0 -16 -40 15 -71 23 -22 39 -29 70 -29 44 0 58 -11 36 -30 -21 -18 -90 -3 -126 27 -40 34 -59 74 -59 126 0 65 16 74 57 32 19 -19 31 -40 28 -45z m586 23 c-1 -28 3 -60 10 -71 14 -22 5 -56 -13 -50 -19 7 -48 70 -48 106 0 43 17 74 38 70 13 -2 16 -13 13 -55z m-375 -11 c-7 -12 -65 -24 -77 -16 -5 3 3 18 18 34 l28 28 19 -18 c10 -10 16 -22 12 -28z m-1261 -1 c7 -12 -12 -24 -25 -16 -11 7 -4 25 10 25 5 0 11 -4 15 -9z m1160 -1 c8 -13 -20 -24 -41 -16 -20 8 -9 26 16 26 10 0 22 -5 25 -10z m-4156 -29 c17 -30 25 -127 12 -135 -6 -4 -14 0 -17 8 -3 9 -10 16 -15 16 -13 0 -79 67 -79 79 0 10 65 50 82 51 4 0 12 -9 17 -19z m254 -191 l47 -44 0 -78 c0 -42 -4 -79 -9 -82 -5 -3 -41 58 -81 137 -40 78 -76 147 -81 153 -5 6 -6 14 -2 18 6 6 27 -10 126 -104z m2752 80 c0 -18 -52 -27 -67 -12 -17 17 2 33 35 30 20 -2 32 -8 32 -18z m-2911 -72 c31 -52 23 -69 -15 -32 -28 27 -37 53 -22 67 10 10 10 10 37 -35z m-64 -49 c0 -35 -19 -28 -43 15 -14 25 -22 47 -19 51 9 9 62 -47 62 -66z m121 -103 c84 -94 126 -163 109 -180 -15 -15 -12 -23 10 -29 22 -6 27 -47 10 -91 -13 -34 -33 -33 -64 5 -26 31 -27 49 0 49 8 0 14 9 14 20 0 24 -8 25 -32 3 -24 -22 -28 -17 -88 100 -59 117 -77 207 -41 207 5 0 42 -38 82 -84z m330 -53 c47 -43 145 -130 218 -193 l131 -115 -37 -32 c-21 -18 -41 -32 -45 -33 -4 0 -34 -20 -65 -44 -71 -53 -101 -69 -117 -63 -12 5 -96 142 -96 158 0 7 -30 62 -71 129 -38 64 -43 80 -47 167 -2 51 -2 99 2 108 8 22 24 12 127 -82z m2589 -68 c4 -32 10 -40 30 -45 32 -8 32 -32 0 -40 -19 -4 -26 -15 -31 -40 -22 -111 -43 -122 -47 -26 -3 58 -5 65 -25 68 -29 4 -29 32 0 36 17 3 24 12 29 40 8 46 13 54 27 49 7 -2 14 -21 17 -42z m-1115 -31 c0 -33 3 -39 22 -39 34 -1 40 -15 15 -34 -19 -14 -25 -32 -32 -90 -11 -87 -18 -101 -37 -76 -16 23 -18 236 -2 266 16 31 34 17 34 -27z m1331 -29 c4 -8 12 -15 19 -15 8 0 17 -5 20 -10 7 -12 -45 -93 -60 -94 -11 -1 -20 98 -11 120 7 18 25 18 32 -1z m-1116 -156 c0 -118 -11 -155 -30 -104 -6 14 -10 60 -10 101 0 48 -6 86 -16 105 -12 24 -13 33 -3 45 10 13 15 12 36 -7 22 -21 23 -30 23 -140z m1204 130 c-3 -5 -10 -7 -15 -3 -5 3 -7 10 -3 15 3 5 10 7 15 3 5 -3 7 -10 3 -15z m372 -17 c0 -4 9 -24 19 -44 30 -60 14 -69 -114 -67 l-105 1 -22 -27 c-28 -35 -44 -25 -44 29 0 53 7 60 38 40 28 -19 177 -21 198 -3 6 5 10 24 9 42 -3 34 3 52 14 42 3 -4 6 -10 7 -13z m-1196 -21 c14 -26 13 -78 -2 -87 -14 -9 -40 26 -33 44 3 7 1 22 -5 31 -5 10 -6 21 -3 25 12 12 32 6 43 -13z m-230 -32 c5 -22 11 -24 83 -29 104 -7 104 -24 0 -28 -76 -3 -82 -4 -85 -25 -2 -14 -10 -22 -23 -22 -17 0 -20 8 -23 53 -3 53 10 86 32 79 6 -2 13 -14 16 -28z m564 23 c11 -18 10 -106 -2 -110 -7 -2 -15 5 -19 15 -3 10 -13 26 -21 35 -13 16 -13 18 2 24 10 4 15 12 12 19 -7 20 16 35 28 17z m-2496 -134 c28 -47 47 -89 44 -93 -3 -3 -34 22 -69 57 -64 63 -66 68 -47 127 6 20 15 9 72 -91z m2505 -28 c6 -23 -7 -35 -25 -23 -7 4 -17 8 -23 8 -5 0 -10 7 -10 15 0 8 5 15 12 15 6 0 15 3 19 7 10 10 21 2 27 -22z m-358 0 c10 -17 -57 -51 -95 -48 -49 4 -44 22 7 26 23 2 47 10 53 18 14 16 26 18 35 4z m-2120 -107 c62 -60 133 -125 157 -147 39 -35 41 -39 25 -50 -10 -6 -42 -26 -69 -44 -42 -27 -54 -31 -63 -20 -11 12 -74 127 -153 280 -29 58 -35 88 -15 88 3 0 56 -48 118 -107z m499 25 c18 -29 50 -84 71 -123 20 -38 44 -77 51 -86 8 -8 14 -18 14 -21 0 -3 50 -90 110 -193 61 -103 110 -188 110 -190 0 -2 13 -27 30 -54 34 -59 26 -74 -16 -30 -16 17 -94 85 -174 152 -80 66 -170 144 -201 171 -56 51 -168 144 -203 169 -17 12 -12 21 74 135 50 67 94 122 96 122 2 0 19 -24 38 -52z m-164 -18 c0 -10 -5 -22 -10 -25 -6 -4 -26 -31 -45 -61 -19 -30 -39 -54 -44 -54 -11 0 -61 58 -61 71 0 5 10 14 23 19 12 4 45 24 72 43 53 37 65 38 65 7z m-428 -115 c33 -66 69 -137 78 -157 l18 -37 -35 -21 c-28 -17 -38 -18 -50 -8 -21 17 -130 248 -131 278 -1 32 25 72 44 68 9 -2 43 -57 76 -123z m3476 -97 c7 -7 12 -27 12 -44 0 -31 3 -33 38 -36 25 -2 37 -8 37 -18 0 -10 -12 -16 -37 -18 l-38 -3 -2 -42 c-1 -23 0 -74 1 -113 2 -40 -1 -74 -7 -78 -21 -13 -34 27 -39 121 -5 90 -7 100 -31 120 l-26 22 27 10 c22 9 27 17 27 44 0 46 14 59 38 35z m229 -4 c8 -21 -13 -42 -28 -27 -13 13 -5 43 11 43 6 0 13 -7 17 -16z m-3387 -39 c7 -8 25 -41 42 -72 16 -32 51 -98 77 -148 27 -49 47 -93 44 -98 -2 -4 -22 8 -45 25 -57 46 -242 218 -246 228 -3 8 94 78 109 79 4 1 12 -6 19 -14z m1012 -89 c15 -38 25 -72 22 -77 -6 -10 -117 -13 -126 -3 -5 5 7 42 41 127 6 16 16 27 23 25 7 -3 25 -35 40 -72z m1617 40 c8 -9 11 -55 9 -137 -3 -102 -6 -124 -18 -124 -12 0 -16 23 -20 130 -3 72 -4 133 -2 138 5 11 18 8 31 -7z m219 -1 c-2 -6 -7 -10 -13 -10 -5 -1 -20 -6 -32 -13 -13 -7 -24 -8 -28 -3 -3 6 4 15 15 21 11 6 20 7 20 3 0 -4 5 -2 12 5 14 14 31 12 26 -3z m540 -120 c3 -134 -1 -166 -19 -148 -11 11 -25 243 -15 268 3 9 12 15 19 13 8 -3 13 -41 15 -133z m559 115 c7 -25 15 -25 38 0 18 20 69 23 72 4 0 -5 -3 -8 -8 -6 -16 4 -67 -27 -83 -50 -10 -13 -16 -43 -16 -74 0 -53 -24 -129 -39 -120 -9 6 -14 244 -5 257 10 16 36 9 41 -11z m-958 -142 c-1 -60 -5 -111 -9 -113 -4 -3 -13 2 -20 10 -9 11 -10 18 -1 29 13 15 0 55 -27 88 -13 15 -13 18 2 24 18 7 22 54 5 71 -7 7 -9 19 -5 29 6 15 9 15 32 -6 l25 -24 -2 -108z m-1656 136 c3 -4 -1 -17 -9 -29 -13 -20 -13 -27 -2 -44 7 -12 20 -21 28 -21 23 0 86 -24 105 -40 9 -8 21 -25 26 -39 8 -19 5 -29 -13 -48 -25 -27 -35 -21 -40 26 -3 32 -7 36 -66 57 -35 12 -70 28 -78 34 -16 14 -19 63 -4 91 10 18 40 26 53 13z m2429 -11 c45 -51 62 -129 33 -153 -22 -18 -32 -5 -37 50 -3 33 -13 59 -26 73 -17 18 -19 26 -10 35 16 16 22 15 40 -5z m-1835 -27 c-3 -11 -10 -38 -16 -60 -6 -25 -6 -48 0 -64 7 -17 6 -29 -3 -39 -33 -40 -66 84 -37 140 29 55 67 71 56 23z m233 -15 c15 -29 13 -116 -4 -130 -19 -16 -31 3 -27 44 1 17 -2 42 -8 57 -15 41 19 66 39 29z m1988 -72 c-2 -41 -7 -74 -13 -74 -11 0 -20 129 -10 153 13 35 26 -9 23 -79z m-1847 5 c3 -21 9 -49 13 -62 10 -30 -21 -43 -40 -17 -14 19 -19 106 -7 119 14 14 28 -2 34 -40z m-615 5 c10 -17 -13 -36 -27 -22 -12 12 -4 33 11 33 5 0 12 -5 16 -11z m1852 -30 c-1 -13 -7 -23 -13 -22 -13 3 -18 30 -11 50 10 24 29 1 24 -28z m-731 4 c-9 -9 -20 -12 -28 -8 -9 6 -8 11 6 21 23 17 42 6 22 -13z m-1031 -59 c-5 -13 -10 -14 -18 -6 -6 6 -8 18 -4 28 5 13 10 14 18 6 6 -6 8 -18 4 -28z m992 -11 c-16 -15 -18 -15 -24 0 -3 9 -3 25 0 34 6 15 8 15 24 0 15 -16 15 -18 0 -34z m1376 -34 c-3 -5 -10 -7 -15 -3 -5 3 -7 10 -3 15 3 5 10 7 15 3 5 -3 7 -10 3 -15z m-2782 -7 c15 2 23 -2 23 -12 0 -19 -33 -24 -69 -10 -24 9 -26 13 -16 25 9 11 16 12 26 4 7 -6 23 -9 36 -7z m682 -23 c-3 -5 -10 -7 -15 -3 -5 3 -7 10 -3 15 3 5 10 7 15 3 5 -3 7 -10 3 -15z m350 0 c-3 -5 -10 -7 -15 -3 -5 3 -7 10 -3 15 3 5 10 7 15 3 5 -3 7 -10 3 -15z m1261 12 c3 -5 1 -13 -5 -16 -15 -9 -43 3 -35 15 8 13 32 13 40 1z m-4711 -172 c-3 -5 -10 -7 -15 -3 -5 3 -7 10 -3 15 3 5 10 7 15 3 5 -3 7 -10 3 -15z m-29 -47 c1 -13 -2 -25 -7 -28 -5 -3 -13 -17 -18 -30 -5 -13 -16 -24 -23 -24 -8 0 -40 -14 -72 -31 l-58 -31 -19 19 -18 19 45 32 c25 17 45 36 45 41 0 5 4 21 10 36 9 24 14 26 62 23 46 -3 52 -6 53 -26z m902 -17 c55 -19 148 -57 207 -85 102 -47 117 -58 252 -187 80 -75 143 -141 141 -147 -7 -20 -172 -66 -362 -101 -170 -32 -467 -16 -674 36 -89 22 -115 35 -105 51 4 6 152 6 390 2 l384 -7 0 33 c0 38 -69 185 -105 224 -13 14 -33 26 -43 26 -25 0 -34 11 -21 26 7 9 7 19 -1 34 -13 23 -67 60 -89 60 -21 0 -92 51 -85 61 7 12 -1 14 111 -26z m28 -144 c3 -5 2 -12 -2 -14 -17 -10 -548 -12 -551 -2 -4 17 542 33 553 16z m-640 -26 c0 -11 -188 -20 -212 -10 -8 2 -11 10 -8 15 9 14 220 9 220 -5z"/>
<path d="M1060 2188 c1 -16 28 -53 35 -47 6 7 -18 59 -27 59 -5 0 -8 -6 -8 -12z"/>
<path d="M1418 1396 c2 -19 13 -42 23 -52 10 -9 19 -23 19 -31 0 -7 9 -13 20 -13 15 0 20 7 20 24 0 14 -4 28 -10 31 -5 3 -10 17 -10 31 0 17 -8 27 -26 34 -38 15 -40 13 -36 -24z"/>
<path d="M1530 1046 c0 -15 30 -50 36 -43 3 2 0 16 -5 31 -11 28 -31 36 -31 12z"/>
</g>
</g>
  <g id="id2:id2" transform="matrix(1.25,0,0,1.25,0.0,0.0)"><g transform="translate(0.000000,144.800000) scale(0.040000,-0.040000)" fill="#4976d3" stroke="none">
<path d="M1680 3469 c-52 -5 -105 -14 -118 -19 -22 -10 -23 -14 -16 -68 3 -31 10 -65 15 -74 5 -9 9 -34 9 -56 0 -21 3 -42 8 -46 8 -8 40 -155 49 -221 3 -22 9 -44 14 -49 5 -6 9 -25 9 -43 0 -17 4 -42 9 -55 5 -13 14 -52 21 -88 6 -36 23 -84 37 -108 l25 -44 -17 -19 c-21 -22 -35 -16 -35 15 0 12 -7 31 -15 42 -8 10 -15 28 -15 39 0 11 -20 37 -45 58 -38 34 -43 43 -38 68 4 21 -1 39 -19 67 -22 33 -39 67 -42 82 -1 3 -16 27 -35 53 -21 32 -30 52 -23 59 6 6 19 -8 38 -39 16 -26 29 -50 29 -53 0 -3 9 -19 20 -35 11 -17 25 -39 31 -50 15 -27 44 -32 44 -7 0 10 -3 22 -7 26 -4 4 -8 15 -8 24 -2 42 -18 123 -26 128 -5 3 -9 17 -9 31 0 26 -16 92 -30 128 -5 11 -11 36 -13 55 -6 41 -20 93 -36 134 -12 31 -10 31 -116 6 -65 -16 -79 -29 -66 -63 13 -35 -5 -47 -20 -13 -19 41 -62 45 -72 6 -3 -13 -11 -16 -29 -13 -14 3 -46 -6 -74 -19 -43 -21 -49 -27 -49 -55 0 -42 -11 -50 -35 -28 -14 13 -24 15 -31 8 -14 -14 16 -76 43 -89 12 -5 27 -28 35 -54 16 -51 50 -122 92 -195 16 -27 44 -77 61 -110 18 -33 38 -67 44 -75 7 -8 18 -28 25 -45 28 -63 40 -80 61 -83 12 -2 24 -11 26 -20 3 -9 10 -28 16 -42 6 -14 10 -39 9 -56 -2 -25 5 -37 35 -62 29 -24 35 -34 26 -45 -9 -10 -5 -25 13 -61 14 -27 22 -53 19 -58 -7 -12 -34 10 -34 28 0 7 -9 18 -20 24 -11 6 -20 21 -20 35 0 13 -4 27 -10 30 -5 3 -10 15 -10 25 0 11 -9 24 -20 30 -11 6 -20 20 -20 32 0 25 -51 117 -80 143 -11 10 -20 31 -20 46 0 16 -14 51 -30 79 -16 28 -30 54 -30 59 0 14 -37 42 -51 39 -9 -2 -17 15 -24 52 -13 67 -28 101 -49 119 -9 7 -16 22 -16 32 0 10 -4 21 -10 24 -5 3 -10 12 -10 19 0 15 -63 124 -85 145 -7 7 -20 11 -29 8 -49 -19 -16 -207 60 -337 8 -14 13 -39 10 -57 -3 -23 0 -33 12 -38 15 -6 14 -9 -7 -26 -17 -14 -22 -25 -17 -42 4 -12 9 -97 12 -189 5 -151 4 -170 -14 -206 l-20 -41 18 -16 c10 -9 33 -44 51 -78 18 -34 52 -86 75 -116 24 -30 41 -58 38 -63 -3 -4 1 -18 8 -30 7 -13 12 -25 13 -28 0 -3 21 -34 46 -70 25 -36 52 -80 60 -98 10 -24 19 -32 32 -28 23 6 33 -19 17 -39 -9 -11 -10 -19 -1 -28 22 -27 62 -150 63 -195 1 -26 7 -54 14 -62 7 -8 13 -22 15 -30 3 -16 -38 -90 -50 -90 -11 0 -33 -51 -36 -83 -3 -33 -31 -67 -56 -67 -10 0 -20 -4 -24 -9 -3 -6 -26 -13 -50 -17 -25 -3 -48 -10 -51 -15 -3 -5 -16 -9 -30 -9 -16 0 -24 -6 -24 -18 0 -21 97 -142 114 -142 7 0 22 -14 35 -31 l23 -31 83 3 c47 2 87 0 91 -4 4 -4 28 -7 53 -7 25 0 92 -5 149 -12 76 -9 105 -9 114 0 8 8 19 8 43 -2 48 -21 131 -30 140 -16 5 8 13 5 26 -9 24 -26 51 -27 48 -4 -3 31 0 34 21 23 14 -8 19 -17 15 -30 -4 -13 0 -20 15 -25 23 -7 35 -1 35 18 0 12 11 12 120 4 22 -1 46 -7 54 -11 8 -5 41 -14 75 -21 34 -7 115 -26 181 -43 150 -39 184 -42 198 -20 10 15 8 21 -11 34 -27 19 -20 39 9 24 44 -24 39 12 -11 90 -24 37 -84 145 -83 150 1 3 -5 12 -13 22 -9 9 -11 19 -6 22 5 3 15 -1 22 -9 7 -8 9 -15 5 -15 -5 0 -1 -8 7 -17 23 -26 100 -154 201 -333 20 -36 31 -46 56 -48 19 -2 37 -12 46 -26 l15 -23 89 91 c98 101 165 194 176 243 9 43 22 49 48 26 35 -31 83 -46 131 -41 50 6 110 43 102 64 -3 7 -1 16 4 19 11 7 13 55 4 80 -8 19 -79 55 -110 55 -12 0 -27 7 -34 16 -11 12 -10 18 3 31 14 15 19 15 50 -1 40 -18 62 -13 79 17 9 18 6 24 -18 44 -23 18 -41 23 -87 23 -66 0 -100 -17 -123 -63 -34 -65 -38 -22 -36 377 3 444 9 417 -91 415 -34 -1 -75 -4 -92 -8 l-30 -6 -5 -195 c-4 -164 -7 -195 -20 -195 -13 0 -16 30 -20 192 -3 105 -7 194 -10 197 -3 3 -46 9 -95 13 -70 6 -90 11 -90 23 0 13 34 16 225 20 l225 5 0 99 0 99 -30 17 -30 17 -3 166 c-2 153 -4 167 -21 167 -14 0 -31 -34 -77 -150 -32 -82 -67 -160 -76 -172 l-18 -23 -18 23 c-10 12 -31 57 -47 100 -16 42 -40 102 -54 132 -25 57 -28 63 -30 81 0 6 -11 9 -23 7 l-23 -3 -3 -160 c-2 -179 -5 -193 -27 -175 -12 10 -15 49 -15 227 0 231 0 230 54 215 26 -7 35 -21 78 -123 73 -172 97 -219 108 -219 11 0 60 100 99 205 51 133 64 151 105 141 15 -4 28 0 35 8 10 12 6 23 -17 54 -72 100 -279 322 -336 361 -80 54 -97 63 -111 58 -8 -3 -32 -65 -55 -139 -23 -73 -50 -158 -60 -188 -10 -30 -33 -102 -50 -160 -33 -106 -48 -154 -140 -450 -84 -268 -92 -294 -100 -315 -5 -11 -18 -54 -30 -95 -11 -41 -25 -85 -31 -98 -17 -42 -10 -87 21 -135 16 -26 27 -47 24 -47 -3 0 7 -16 22 -35 14 -19 23 -35 19 -35 -5 0 -1 -8 7 -17 30 -35 69 -111 59 -117 -8 -5 -75 97 -76 114 0 3 -11 21 -25 40 -14 19 -23 35 -21 35 3 0 -8 19 -24 43 -31 47 -32 48 -54 28 -14 -13 -19 -12 -41 4 l-25 19 28 10 c39 15 34 37 -20 86 -40 37 -45 46 -34 59 11 13 11 22 -2 49 -9 18 -25 41 -36 51 -10 10 -22 29 -26 44 -3 14 -15 38 -26 54 -11 15 -18 28 -14 28 3 0 -5 15 -19 33 -15 19 -26 37 -26 41 0 4 -13 26 -28 49 -48 72 -83 145 -73 152 6 3 22 -16 37 -42 15 -27 34 -59 43 -73 9 -14 21 -34 27 -45 6 -11 20 -37 32 -57 12 -21 19 -38 15 -38 -3 0 1 -8 9 -17 17 -19 118 -182 118 -189 0 -3 42 -73 57 -93 9 -13 37 33 44 73 5 25 14 66 19 91 6 25 14 64 19 88 6 23 14 60 19 82 16 66 42 187 53 245 6 30 15 69 20 85 5 17 16 64 25 105 25 117 28 127 98 443 37 164 66 308 64 319 -3 24 -5 24 -108 72 -84 39 -175 70 -265 90 -142 33 -400 49 -555 35z m-346 -180 c-3 -5 -10 -7 -15 -3 -5 3 -7 10 -3 15 3 5 10 7 15 3 5 -3 7 -10 3 -15z m30 -51 c-3 -5 -12 -4 -20 3 -7 6 -11 15 -8 21 3 5 12 4 20 -3 7 -6 11 -15 8 -21z m21 -38 c-5 -8 -11 -8 -17 -2 -6 6 -7 16 -3 22 5 8 11 8 17 2 6 -6 7 -16 3 -22z m39 -62 c-3 -5 -12 -4 -20 3 -7 6 -11 15 -8 21 3 5 12 4 20 -3 7 -6 11 -15 8 -21z m-154 -48 c0 -26 -15 -33 -30 -15 -10 12 -10 18 0 30 15 18 30 11 30 -15z m174 9 c-3 -5 -10 -7 -15 -3 -5 3 -7 10 -3 15 3 5 10 7 15 3 5 -3 7 -10 3 -15z m-150 -71 c-3 -5 -12 -4 -20 3 -7 6 -11 15 -8 21 3 5 12 4 20 -3 7 -6 11 -15 8 -21z m26 -42 c-13 -13 -35 7 -25 24 5 8 11 8 21 -1 10 -8 12 -15 4 -23z m526 -564 c-3 -2 6 -20 21 -38 14 -19 22 -34 18 -34 -5 0 0 -9 9 -19 10 -11 13 -22 8 -25 -5 -3 -15 1 -22 9 -7 8 -9 15 -6 15 4 0 -5 16 -20 35 -14 19 -23 35 -19 35 5 0 1 8 -8 18 -19 21 -11 38 10 20 7 -6 11 -13 9 -16z m-542 -143 c-3 -5 -10 -7 -15 -3 -5 3 -7 10 -3 15 3 5 10 7 15 3 5 -3 7 -10 3 -15z m401 -89 c-5 -8 -11 -8 -17 -2 -6 6 -7 16 -3 22 5 8 11 8 17 2 6 -6 7 -16 3 -22z m-150 -30 c15 -29 4 -53 -12 -28 -20 32 -31 57 -26 62 9 9 22 -3 38 -34z m185 -34 c-13 -13 -35 7 -25 24 5 8 11 8 21 -1 10 -8 12 -15 4 -23z m-127 -76 c19 -39 31 -72 27 -75 -12 -8 -68 64 -75 97 -6 24 -1 48 10 48 1 0 19 -32 38 -70z m92 -131 c14 -3 21 -14 23 -34 2 -17 7 -34 12 -40 5 -5 24 -39 43 -75 109 -205 140 -257 163 -276 16 -13 24 -27 19 -34 -4 -6 1 -20 10 -30 29 -32 -3 -34 -43 -2 -56 45 -74 69 -68 89 3 10 -9 43 -29 78 -18 33 -46 83 -60 112 -15 28 -35 59 -46 69 -10 9 -19 23 -19 30 0 8 -14 39 -30 69 -17 31 -27 61 -24 67 5 7 11 6 18 -4 6 -9 20 -17 31 -19z m-141 -140 c-3 -5 -10 -7 -15 -3 -5 3 -7 10 -3 15 3 5 10 7 15 3 5 -3 7 -10 3 -15z m30 -51 c-3 -5 -12 -4 -20 3 -7 6 -11 15 -8 21 3 5 12 4 20 -3 7 -6 11 -15 8 -21z m1443 -381 c7 -11 25 -51 117 -267 20 -47 43 -97 52 -113 14 -25 14 -28 -1 -33 -21 -9 -42 12 -65 62 -18 38 -24 43 -57 46 -43 3 -54 31 -15 36 24 4 30 36 13 70 -5 9 -14 31 -21 47 -7 17 -16 38 -21 47 -5 10 -9 24 -9 32 0 8 -4 18 -10 21 -14 9 -50 -13 -50 -30 0 -8 -9 -30 -20 -50 -11 -20 -20 -44 -20 -53 0 -10 -5 -23 -11 -29 -18 -18 -6 -47 21 -53 41 -10 30 -34 -18 -40 -34 -4 -45 -11 -57 -34 -8 -15 -15 -34 -15 -41 0 -19 -28 -38 -45 -31 -11 4 -13 10 -6 23 15 29 51 112 51 119 0 3 17 43 39 87 21 45 46 102 56 127 27 73 42 92 65 80 10 -6 22 -16 27 -23z m-968 -1 c14 -14 59 -52 99 -86 40 -34 70 -65 67 -71 -4 -5 -37 17 -75 49 -40 34 -85 62 -107 68 -36 9 -43 21 -34 59 3 12 26 3 50 -19z m424 -34 c8 -15 28 -53 46 -84 17 -31 27 -59 22 -62 -11 -7 -114 162 -106 175 9 13 21 3 38 -29z m987 -87 c22 -26 -4 -43 -30 -20 -20 18 -18 35 4 35 8 0 19 -7 26 -15z m-1606 -36 c-3 -5 -10 -7 -15 -3 -5 3 -7 10 -3 15 3 5 10 7 15 3 5 -3 7 -10 3 -15z m743 -312 c97 -91 64 -87 -44 6 -274 236 -333 289 -328 298 6 9 256 -195 372 -304z m-33 262 c-3 -5 -10 -7 -15 -3 -5 3 -7 10 -3 15 3 5 10 7 15 3 5 -3 7 -10 3 -15z m705 -27 c12 -29 69 -62 108 -62 11 0 27 -7 34 -16 11 -14 9 -20 -21 -44 -32 -26 -58 -31 -44 -9 7 12 -24 38 -47 39 -9 0 -24 -9 -34 -20 -10 -11 -22 -17 -26 -14 -10 6 -12 147 -3 157 10 10 20 0 33 -31z m47 -123 c10 -17 -13 -36 -27 -22 -12 12 -4 33 11 33 5 0 12 -5 16 -11z m147 -16 c10 -10 -13 -33 -34 -33 -21 0 -33 15 -24 30 7 11 48 14 58 3z"/>
<path d="M744 3058 c-22 -24 -64 -80 -94 -126 -40 -63 -56 -80 -65 -72 -22 18 -29 -9 -9 -31 10 -11 25 -35 33 -54 9 -19 32 -45 51 -57 19 -13 42 -37 50 -53 8 -17 34 -50 57 -75 24 -25 43 -52 43 -60 0 -24 72 -96 102 -104 25 -6 28 -3 34 30 4 22 2 46 -6 62 -8 15 -12 33 -11 41 1 7 -1 20 -5 30 -4 9 -8 55 -10 103 -2 98 -10 130 -29 126 -16 -4 -18 3 -9 39 14 54 -45 243 -75 243 -9 0 -35 -19 -57 -42z"/>
<path d="M3704 2759 c-3 -6 -2 -15 2 -19 12 -12 38 5 30 19 -9 14 -23 14 -32 0z"/>
<path d="M4057 2763 c-16 -4 -17 -23 -15 -261 l3 -257 35 0 35 0 3 258 c1 154 -1 257 -7 257 -5 0 -15 2 -23 4 -7 2 -21 2 -31 -1z m41 -47 c4 -20 -16 -48 -29 -40 -11 6 -12 48 -2 58 11 10 28 1 31 -18z m-3 -422 c0 -19 -5 -29 -15 -29 -16 0 -25 28 -16 51 10 25 31 10 31 -22z"/>
<path d="M4940 2511 c0 -189 3 -252 13 -258 12 -8 47 -11 173 -16 53 -2 65 2 97 25 19 16 43 42 51 59 21 42 20 132 -1 176 -32 69 -127 105 -206 78 -46 -16 -46 -17 -49 95 l-3 85 -37 3 -38 3 0 -250z m58 185 c3 -38 -13 -70 -29 -60 -11 6 -12 87 -2 98 15 14 28 -2 31 -38z m110 -153 c5 -16 -22 -27 -44 -19 -13 5 -14 9 -4 22 15 17 41 15 48 -3z m121 -27 c8 -9 8 -16 2 -20 -5 -4 -12 -2 -16 4 -4 6 -10 8 -13 6 -12 -7 -55 30 -48 42 7 12 56 -9 75 -32z m-35 -67 c22 -40 18 -71 -15 -112 -16 -22 -29 -27 -63 -27 -59 0 -89 33 -89 95 0 105 117 136 167 44z m-199 -168 c7 -12 -12 -24 -25 -16 -11 7 -4 25 10 25 5 0 11 -4 15 -9z"/>
<path d="M3697 2713 c-4 -3 -7 -18 -7 -33 0 -14 -4 -30 -9 -35 -11 -12 -18 -375 -8 -392 10 -15 67 -17 67 -3 0 9 -5 11 -37 14 -18 2 -16 21 2 21 24 0 45 53 45 115 0 65 17 94 61 104 18 4 34 0 50 -13 21 -17 24 -30 28 -102 3 -68 7 -86 22 -97 21 -14 16 -37 -7 -28 -8 3 -11 0 -7 -10 7 -19 59 -18 67 2 3 9 6 62 6 119 0 115 -14 164 -56 192 -31 20 -115 23 -137 5 -20 -17 -27 -5 -27 50 0 62 -31 114 -53 91z m188 -163 c3 -4 -2 -13 -10 -20 -12 -10 -18 -10 -30 0 -11 9 -18 10 -29 1 -10 -8 -16 -8 -25 2 -6 8 -9 16 -6 19 8 8 95 7 100 -2z"/>
<path d="M5446 2575 c-106 -37 -149 -155 -93 -257 55 -99 226 -120 282 -34 l17 25 -29 25 c-26 23 -27 25 -8 31 40 13 50 22 53 50 5 38 -6 75 -21 72 -7 -1 -11 6 -9 16 9 54 -112 99 -192 72z m-10 -63 c-27 -28 -38 -34 -47 -25 -15 15 1 37 40 56 42 22 46 7 7 -31z m169 -3 c-3 -4 -19 -1 -36 8 -24 12 -28 18 -18 29 10 13 15 12 35 -7 13 -12 21 -25 19 -30z m-51 -18 c27 -29 11 -41 -54 -41 -32 0 -62 5 -65 11 -13 20 26 49 65 49 24 0 43 -7 54 -19z m29 -128 c4 -3 -3 -17 -15 -30 -15 -16 -33 -23 -58 -23 -25 0 -43 7 -58 23 -12 13 -19 27 -15 30 3 4 36 7 73 7 37 0 70 -3 73 -7z m6 -79 c-12 -13 -26 -21 -31 -18 -5 4 0 17 13 30 12 13 26 21 31 18 5 -4 0 -17 -13 -30z"/>
<path d="M5860 2582 c-14 -2 -31 -9 -37 -14 -9 -7 -17 -7 -27 1 -8 7 -27 11 -43 9 l-28 -3 0 -165 0 -165 35 0 35 0 5 108 c5 101 7 110 30 127 14 11 40 20 58 20 l32 0 0 39 c0 42 -12 50 -60 43z m34 -43 c-3 -5 -10 -7 -15 -3 -5 3 -7 10 -3 15 3 5 10 7 15 3 5 -3 7 -10 3 -15z m-130 -270 c-3 -5 -10 -7 -15 -3 -5 3 -7 10 -3 15 3 5 10 7 15 3 5 -3 7 -10 3 -15z"/>
<path d="M3306 2564 c-18 -18 -22 -170 -6 -239 17 -74 90 -109 170 -81 29 10 48 12 54 6 14 -14 50 -12 64 2 17 17 17 299 0 316 -15 15 -55 16 -63 1 -4 -6 -9 -56 -12 -111 -5 -118 -24 -159 -71 -150 -55 10 -62 25 -62 142 0 109 -7 130 -41 130 -10 0 -25 -7 -33 -16z m48 -25 c-3 -5 -10 -7 -15 -3 -5 3 -7 10 -3 15 3 5 10 7 15 3 5 -3 7 -10 3 -15z"/>
<path d="M4265 2560 c-58 -37 -80 -78 -80 -150 0 -79 24 -125 81 -157 53 -30 116 -30 174 1 62 33 70 49 41 80 l-23 24 29 14 c26 13 28 17 25 67 -3 62 -20 92 -68 120 -47 28 -137 28 -179 1z m145 -70 c30 -30 17 -40 -55 -40 -70 0 -86 11 -59 41 24 26 87 26 114 -1z m34 -128 c9 -15 -52 -52 -86 -52 -37 0 -85 31 -74 49 8 13 152 16 160 3z m-134 -83 c0 -4 -4 -10 -9 -13 -10 -7 -54 38 -45 47 7 7 54 -22 54 -34z m154 32 c3 -4 -6 -18 -19 -31 -22 -20 -25 -21 -31 -6 -11 29 34 63 50 37z"/>
<path d="M4580 2571 c0 -5 8 -12 18 -16 15 -6 15 -8 -5 -25 -24 -19 -29 -40 -13 -56 5 -5 10 -50 12 -99 2 -72 6 -90 18 -90 12 0 16 16 18 74 l3 74 39 39 c22 21 40 40 40 42 0 2 -10 6 -22 9 -18 5 -19 8 -8 21 15 19 41 21 58 4 8 -8 15 -8 26 1 9 8 16 8 20 2 4 -6 -4 -17 -18 -26 l-24 -16 24 -24 c21 -21 24 -34 24 -92 0 -50 5 -74 19 -92 20 -26 41 -21 41 9 0 10 5 22 10 25 6 3 10 41 10 83 0 119 -35 162 -134 162 -23 0 -48 -6 -54 -12 -10 -10 -17 -10 -32 0 -23 14 -70 16 -70 3z"/>
<path d="M6050 2573 c-48 -18 -100 -100 -100 -158 0 -40 22 -100 47 -127 42 -47 134 -69 182 -43 36 18 47 6 29 -32 -16 -33 -51 -53 -95 -53 -18 0 -33 -4 -33 -10 0 -14 81 -12 112 2 15 7 29 21 32 32 2 10 9 15 15 12 15 -10 24 13 11 29 -7 8 -7 15 -1 19 10 6 26 -11 26 -28 0 -5 5 -11 11 -13 20 -7 23 36 17 209 l-6 168 -27 0 c-14 0 -31 -5 -38 -12 -9 -9 -18 -9 -37 0 -26 12 -117 15 -145 5z m52 -28 c0 -5 -9 -15 -21 -21 -11 -6 -29 -18 -39 -28 -16 -14 -21 -14 -31 -3 -9 11 -8 17 5 28 42 34 84 46 86 24z m78 0 c10 -12 9 -16 -4 -21 -18 -7 -49 13 -40 27 8 14 30 11 44 -6z m7 -61 c45 -28 42 -118 -4 -152 -22 -16 -24 -22 -14 -40 15 -28 -4 -39 -30 -16 -18 16 -20 16 -38 0 -18 -17 -21 -17 -45 -1 -32 21 -25 36 14 28 38 -7 38 2 0 37 -51 48 -39 128 23 155 34 15 58 12 94 -11z"/>
<path d="M4593 2263 c-24 -9 -13 -23 17 -23 32 0 40 14 14 24 -9 3 -16 6 -17 5 -1 0 -8 -3 -14 -6z"/>
<path d="M4813 2263 c-24 -9 -13 -23 17 -23 32 0 40 14 14 24 -9 3 -16 6 -17 5 -1 0 -8 -3 -14 -6z"/>
<path d="M5980 2190 c0 -5 10 -10 23 -10 13 0 28 -5 35 -12 6 -6 15 -9 19 -5 10 11 -28 36 -54 37 -13 0 -23 -4 -23 -10z"/>
<path d="M6240 2155 c-34 -37 -77 -55 -127 -55 -23 0 -43 -4 -43 -10 0 -15 86 -12 128 5 43 18 82 53 82 72 0 20 -14 16 -40 -12z"/>
<path d="M5960 2151 c0 -12 54 -51 69 -51 6 0 11 5 11 10 0 6 -6 10 -13 10 -8 0 -22 9 -32 20 -19 21 -35 26 -35 11z"/>
<path d="M3296 2075 c-14 -14 -16 -50 -16 -260 0 -227 1 -245 18 -254 10 -6 28 -8 39 -5 19 5 21 16 28 112 8 126 20 152 70 152 53 0 65 -26 65 -140 0 -105 7 -120 53 -120 l29 0 -4 139 -3 140 -29 30 c-26 27 -36 31 -86 31 -31 0 -61 -5 -68 -12 -16 -16 -20 1 -24 99 -2 45 -5 83 -8 86 -17 15 -50 16 -64 2z m28 -36 c-3 -5 -10 -7 -15 -3 -5 3 -7 10 -3 15 3 5 10 7 15 3 5 -3 7 -10 3 -15z m161 -179 c0 -19 -51 -26 -70 -10 -23 19 -7 31 33 28 25 -2 37 -8 37 -18z m-161 -271 c-3 -5 -10 -7 -15 -3 -5 3 -7 10 -3 15 3 5 10 7 15 3 5 -3 7 -10 3 -15z"/>
<path d="M4398 1943 c-3 -32 -7 -38 -28 -41 -35 -4 -54 -35 -38 -62 7 -10 21 -20 33 -22 18 -3 20 -12 25 -103 7 -137 26 -165 109 -165 84 0 98 72 16 82 l-30 3 0 90 0 89 34 7 c29 6 51 23 51 39 0 16 -22 33 -51 39 -30 6 -34 11 -37 44 l-3 37 -39 0 -39 0 -3 -37z m85 -355 c-8 -14 -30 -8 -48 12 -15 16 -16 22 -5 35 12 14 16 13 36 -12 12 -15 20 -31 17 -35z"/>
<path d="M3720 1879 c-41 -24 -79 -78 -87 -123 -7 -46 13 -112 47 -149 27 -31 56 -33 30 -2 -7 8 -9 15 -5 15 4 0 2 6 -4 14 -19 23 4 28 24 6 18 -20 45 -27 45 -12 0 5 -9 17 -20 27 -11 10 -17 22 -14 27 3 5 52 8 108 7 57 -1 108 1 114 5 20 12 14 95 -9 132 -45 73 -152 98 -229 53z m62 -14 c0 -5 -8 -15 -20 -20 -11 -6 -26 -16 -34 -23 -28 -23 -28 2 -1 30 26 28 53 34 55 13z m98 -10 c0 4 7 2 15 -5 8 -7 12 -17 9 -22 -3 -5 -14 -2 -25 8 -10 9 -19 14 -19 9 0 -4 -7 -2 -15 5 -8 7 -12 17 -9 22 3 5 14 2 25 -8 10 -9 19 -14 19 -9z m-19 -46 c30 -30 12 -43 -56 -41 -73 2 -82 8 -54 38 29 31 81 32 110 3z"/>
<path d="M4100 1890 c0 -5 9 -10 19 -10 23 0 36 -16 21 -25 -15 -9 -2 -25 21 -25 15 0 19 6 17 23 -5 36 41 35 76 -2 25 -26 27 -31 12 -37 -10 -4 -25 1 -36 11 -23 21 -39 13 -21 -9 17 -20 6 -36 -25 -36 -30 0 -32 -18 -1 -22 28 -4 46 -65 30 -101 -15 -31 -67 -43 -99 -22 -15 10 -25 11 -29 4 -9 -14 12 -37 38 -41 16 -2 21 -9 19 -25 -4 -27 16 -30 58 -8 18 9 31 11 35 5 3 -6 20 -10 37 -10 24 0 29 3 24 16 -4 9 -2 22 3 28 5 6 8 60 8 120 l-2 108 -39 34 c-36 31 -45 34 -103 34 -35 0 -63 -4 -63 -10z"/>
<path d="M4632 1888 c-8 -8 -12 -60 -12 -170 l0 -158 39 0 39 0 4 104 c4 115 18 146 67 146 44 0 55 14 52 68 -1 18 -7 22 -36 22 -19 0 -46 -5 -60 -12 -19 -9 -28 -9 -37 0 -15 15 -41 15 -56 0z m162 -29 c-3 -5 -10 -7 -15 -3 -5 3 -7 10 -3 15 3 5 10 7 15 3 5 -3 7 -10 3 -15z m-116 -240 c-2 -22 -8 -34 -18 -34 -19 0 -26 51 -9 71 18 21 31 3 27 -37z"/>
<path d="M4935 1882 c-36 -22 -60 -50 -51 -59 3 -4 16 2 29 13 34 29 65 45 71 35 3 -5 -1 -14 -9 -21 -8 -7 -15 -20 -15 -28 0 -12 3 -13 12 -4 19 19 82 15 102 -7 27 -30 11 -41 -55 -41 -44 0 -61 4 -65 15 -8 20 -24 19 -40 -2 -13 -17 -15 -17 -28 1 -8 10 -19 15 -25 11 -16 -9 -13 -122 4 -155 29 -56 130 -110 130 -70 0 9 -8 14 -20 12 -27 -3 -94 63 -78 79 7 7 15 2 27 -15 9 -15 22 -26 29 -26 7 0 18 -5 25 -12 7 -7 24 -12 40 -13 22 0 26 -4 24 -22 -4 -25 20 -31 48 -13 13 8 13 11 -3 22 -17 13 -17 15 8 38 19 18 28 21 37 12 8 -8 8 -15 -2 -27 -17 -20 -5 -32 15 -15 21 17 15 49 -11 67 -18 12 -24 11 -47 -7 -36 -29 -97 -27 -126 4 -14 14 -18 26 -12 30 5 4 52 6 103 5 51 0 101 2 110 6 55 22 13 151 -62 190 -41 21 -128 19 -165 -3z"/>
<path d="M4047 1873 c-10 -10 -8 -53 2 -53 5 0 12 7 15 15 5 14 9 14 33 -2 21 -14 25 -15 19 -3 -25 43 -53 60 -69 43z"/>
<path d="M4075 1750 c3 -5 10 -10 16 -10 5 0 9 5 9 10 0 6 -7 10 -16 10 -8 0 -12 -4 -9 -10z"/>
<path d="M4027 1719 c-13 -18 -13 -24 0 -50 16 -33 25 -36 43 -14 7 9 15 13 18 10 3 -3 11 4 19 15 8 11 21 20 29 20 8 0 14 5 14 10 0 21 -50 10 -66 -16 -15 -23 -19 -24 -33 -10 -12 12 -12 19 -3 28 7 7 12 16 12 20 0 15 -19 8 -33 -13z"/>
<path d="M3877 1650 c-14 -11 -34 -20 -45 -20 -23 0 -57 -35 -47 -49 3 -6 17 -11 30 -11 13 0 27 -5 30 -11 8 -12 28 -6 72 24 37 25 41 46 15 70 -23 21 -24 21 -55 -3z"/>
<path d="M4020 1611 c0 -14 61 -62 71 -55 14 8 11 24 -4 24 -8 0 -22 9 -32 20 -19 21 -35 26 -35 11z"/>
<path d="M3740 1570 c0 -5 5 -10 10 -10 6 0 10 5 10 10 0 6 -4 10 -10 10 -5 0 -10 -4 -10 -10z"/>
<path d="M4610 1330 c-6 -12 -7 -27 -2 -37 4 -10 5 -92 2 -183 -3 -94 -2 -170 3 -177 13 -18 64 -16 71 3 10 25 7 298 -4 314 -5 9 -5 19 1 27 16 18 7 58 -13 58 -9 0 -20 4 -24 8 -12 12 -23 8 -34 -13z m34 -381 c-3 -5 -10 -7 -15 -3 -5 3 -7 10 -3 15 3 5 10 7 15 3 5 -3 7 -10 3 -15z"/>
<path d="M5146 1334 c-9 -8 -16 -26 -16 -40 0 -16 -8 -27 -23 -33 -55 -21 -59 -69 -6 -81 21 -5 24 -12 27 -60 1 -30 7 -65 14 -77 6 -12 8 -35 5 -51 -6 -27 -4 -29 21 -28 15 1 33 5 40 9 12 8 13 6 16 -22 0 -8 14 -19 30 -24 24 -8 32 -6 42 7 12 17 8 56 -6 56 -4 0 -10 -10 -13 -22 -5 -18 -8 -19 -22 -8 -27 23 -45 80 -45 146 0 67 8 79 49 79 56 0 52 65 -5 75 -21 4 -32 13 -39 35 -19 58 -39 69 -69 39z m-42 -125 c-3 -5 -10 -7 -15 -3 -5 3 -7 10 -3 15 3 5 10 7 15 3 5 -3 7 -10 3 -15z"/>
<path d="M5373 1343 c-16 -6 -17 -55 -1 -71 9 -9 9 -15 0 -24 -8 -8 -12 -58 -12 -159 0 -158 5 -174 52 -167 20 3 24 11 30 58 4 30 4 108 0 173 -4 65 -3 125 1 134 14 24 -8 63 -35 62 -13 0 -29 -3 -35 -6z"/>
<path d="M3670 1263 c-61 -21 -80 -35 -91 -72 -17 -57 -2 -91 52 -118 24 -12 54 -22 65 -23 29 0 51 -27 36 -42 -17 -17 -15 -28 7 -28 10 0 22 7 25 16 5 13 9 14 21 4 23 -19 18 -29 -25 -47 -46 -20 -51 -33 -14 -33 15 0 38 12 55 29 38 39 41 107 7 137 -35 29 -65 44 -92 44 -13 0 -29 7 -36 16 -11 12 -10 18 3 31 14 15 19 14 52 -1 20 -10 39 -15 42 -12 8 8 -17 36 -32 36 -7 0 -18 7 -25 15 -21 25 13 29 55 5 43 -24 57 -19 30 10 -27 29 -96 47 -135 33z m12 -38 c0 -5 -9 -14 -21 -20 -30 -14 -28 -60 4 -81 24 -16 25 -18 9 -35 l-17 -19 -28 32 c-16 18 -28 44 -29 57 0 43 79 106 82 66z m107 -181 c-6 -7 -15 -11 -21 -8 -5 3 -4 12 3 20 6 7 15 11 21 8 5 -3 4 -12 -3 -20z"/>
<path d="M4005 1261 c-47 -12 -72 -28 -102 -67 -34 -45 -44 -134 -20 -180 70 -134 259 -136 324 -4 28 56 29 100 3 148 -30 57 -43 70 -91 92 -46 21 -65 22 -114 11z m19 -30 c9 -14 -22 -34 -40 -27 -13 5 -14 9 -4 21 14 17 36 20 44 6z m96 -16 c0 4 9 0 20 -10 11 -10 17 -22 14 -27 -3 -5 -17 1 -30 13 -13 12 -24 19 -24 15 0 -5 -7 -3 -15 4 -8 7 -12 17 -9 22 3 5 14 2 25 -8 10 -9 19 -13 19 -9z m-31 -40 c54 -27 63 -130 15 -162 -29 -19 -31 -33 -4 -33 11 0 27 11 36 26 12 18 20 22 28 14 7 -7 -1 -21 -27 -48 l-38 -37 -24 28 c-13 15 -29 27 -35 27 -29 0 -69 32 -80 64 -13 41 5 94 41 120 29 20 52 20 88 1z m-106 -193 c33 -34 27 -45 -13 -25 -34 16 -44 29 -35 43 10 16 19 12 48 -18z"/>
<path d="M6035 1255 c-25 -9 -43 -11 -49 -5 -6 6 -22 10 -37 10 -35 0 -39 -16 -39 -155 0 -73 4 -115 12 -123 9 -9 9 -15 1 -23 -18 -18 -4 -39 26 -39 35 0 60 36 36 54 -15 10 -15 14 -1 41 9 17 16 51 16 76 0 83 62 127 110 79 15 -15 20 -33 20 -75 0 -30 6 -64 12 -75 10 -15 10 -24 1 -39 -6 -10 -9 -28 -6 -40 7 -26 50 -29 69 -3 17 22 18 73 2 69 -16 -3 -24 159 -9 177 15 18 -14 55 -55 72 -41 17 -58 17 -109 -1z m129 -76 c-3 -5 -10 -7 -15 -3 -5 3 -7 10 -3 15 3 5 10 7 15 3 5 -3 7 -10 3 -15z m-190 -230 c-3 -5 -10 -7 -15 -3 -5 3 -7 10 -3 15 3 5 10 7 15 3 5 -3 7 -10 3 -15z m220 0 c-3 -5 -10 -7 -15 -3 -5 3 -7 10 -3 15 3 5 10 7 15 3 5 -3 7 -10 3 -15z"/>
<path d="M4380 1250 c0 -5 5 -10 12 -10 6 0 20 -7 30 -17 17 -15 19 -15 36 0 10 10 24 17 30 17 7 0 12 5 12 10 0 6 -27 10 -60 10 -33 0 -60 -4 -60 -10z"/>
<path d="M4813 1248 c-27 -9 -33 -16 -33 -40 l0 -30 73 7 c64 6 74 5 90 -13 22 -24 17 -28 -53 -37 -100 -13 -140 -46 -140 -116 0 -40 4 -51 31 -73 17 -14 41 -29 55 -32 29 -7 94 3 112 18 9 8 16 8 24 0 7 -7 25 -12 40 -12 32 0 31 -9 29 155 l-2 120 -34 33 c-32 29 -40 32 -97 31 -35 -1 -78 -6 -95 -11z m145 -199 c1 -8 -6 -27 -17 -40 -17 -22 -25 -25 -63 -20 -34 5 -44 10 -46 28 -4 31 34 54 83 51 27 -2 41 -8 43 -19z m-124 -78 c9 -7 13 -18 10 -23 -3 -5 -14 -2 -25 8 -10 9 -19 14 -19 10 0 -4 -5 -4 -10 -1 -14 9 -4 24 14 21 8 -1 21 -8 30 -15z m100 -22 c-3 -5 -10 -7 -15 -3 -5 3 -7 10 -3 15 3 5 10 7 15 3 5 -3 7 -10 3 -15z"/>
<path d="M5578 1234 c-42 -30 -78 -95 -78 -140 0 -37 40 -60 71 -41 25 16 24 34 -6 72 -27 36 -22 55 7 28 25 -22 36 -8 13 17 l-18 20 23 25 c27 29 46 31 72 8 17 -15 19 -15 38 2 16 14 22 15 35 5 18 -15 11 -30 -16 -30 -10 0 -19 -4 -19 -10 0 -5 6 -10 14 -10 24 0 56 -55 56 -95 0 -27 -8 -44 -30 -67 -17 -17 -29 -33 -26 -36 7 -6 73 25 81 38 4 6 11 7 17 4 13 -8 -61 -84 -83 -84 -9 0 -22 7 -29 15 -16 19 -39 19 -61 -1 -9 -8 -20 -11 -23 -6 -3 5 3 17 14 27 l19 17 -30 26 c-25 20 -32 23 -39 11 -5 -7 -5 -18 0 -25 19 -22 -4 -24 -27 -2 -12 12 -26 18 -30 15 -13 -13 34 -62 82 -86 40 -20 51 -22 67 -12 13 8 24 9 31 2 20 -16 94 25 121 68 52 82 46 151 -22 223 l-45 48 -71 0 c-61 0 -77 -4 -108 -26z"/>
<path d="M4306 1200 c-34 -37 -36 -44 -36 -106 0 -75 16 -112 62 -148 39 -29 63 -33 101 -18 31 13 35 30 10 39 -27 10 -82 71 -89 98 -9 36 14 95 42 107 26 12 32 28 11 28 -8 0 -22 9 -32 20 -10 11 -21 20 -25 20 -4 0 -24 -18 -44 -40z m60 -1 c10 -17 -13 -36 -27 -22 -12 12 -4 33 11 33 5 0 12 -5 16 -11z m-32 -61 c-3 -5 -12 -4 -20 3 -7 6 -11 15 -8 21 3 5 12 4 20 -3 7 -6 11 -15 8 -21z m30 -159 c-3 -5 -10 -7 -15 -3 -5 3 -7 10 -3 15 3 5 10 7 15 3 5 -3 7 -10 3 -15z m35 -25 c-6 -7 -15 -11 -21 -8 -5 3 -4 12 3 20 6 7 15 11 21 8 5 -3 4 -12 -3 -20z"/>
<path d="M4520 1232 c0 -4 5 -13 12 -20 9 -9 9 -15 0 -24 -9 -9 -15 -9 -24 0 -14 14 -48 16 -48 3 0 -5 13 -14 29 -21 49 -20 93 24 59 58 -14 14 -28 16 -28 4z"/>
<path d="M5620 1184 c0 -17 22 -14 28 4 2 7 -3 12 -12 12 -9 0 -16 -7 -16 -16z"/>
<path d="M3576 995 c-20 -30 -15 -40 25 -61 47 -24 120 -1 90 29 -7 7 -16 5 -31 -8 l-21 -19 -21 22 c-17 17 -19 25 -11 33 9 9 16 9 27 0 8 -7 20 -9 27 -5 8 4 4 11 -12 20 -36 20 -55 17 -73 -11z"/>
<path d="M4486 1005 c-26 -20 -12 -32 18 -16 14 8 30 10 38 5 10 -6 10 -5 -1 9 -16 21 -30 21 -55 2z"/>
<path d="M4480 930 c0 -5 7 -10 15 -10 8 0 15 5 15 10 0 6 -7 10 -15 10 -8 0 -15 -4 -15 -10z"/>
<path d="M5180 930 c0 -5 5 -10 10 -10 6 0 10 5 10 10 0 6 -4 10 -10 10 -5 0 -10 -4 -10 -10z"/>
<path d="M1073 825 c8 -19 -11 -31 -26 -16 -17 17 -197 15 -197 -2 0 -18 30 -44 55 -49 11 -2 20 -11 20 -20 0 -28 60 -75 100 -80 31 -4 36 -2 32 14 -7 25 19 37 65 31 43 -6 47 3 17 36 -19 21 -22 21 -39 6 -15 -14 -19 -14 -29 -1 -16 20 -5 38 22 35 47 -3 87 1 87 10 0 6 -15 11 -32 13 -25 2 -32 7 -30 21 2 13 -4 17 -24 17 -19 0 -25 -4 -21 -15z"/>
<path d="M1322 823 c2 -13 -5 -19 -24 -21 -16 -2 -28 -7 -28 -12 0 -5 12 -10 28 -12 17 -2 26 -8 24 -17 -2 -7 5 -22 15 -33 l17 -19 -23 -6 c-38 -10 -2 -23 65 -23 l61 0 -1 43 c-1 36 -4 42 -24 45 -25 4 -48 37 -32 47 23 14 7 25 -35 25 -38 0 -45 -3 -43 -17z m97 -85 c11 -28 6 -38 -19 -38 -10 0 -21 3 -23 8 -7 11 11 52 23 52 6 0 14 -10 19 -22z"/>
<path d="M2132 789 c2 -6 8 -10 13 -10 5 0 11 4 13 10 2 6 -4 11 -13 11 -9 0 -15 -5 -13 -11z"/>
<path d="M2186 771 c-3 -5 0 -11 8 -14 15 -6 26 1 26 15 0 11 -27 10 -34 -1z"/>
<path d="M2240 750 c0 -5 5 -10 10 -10 6 0 10 5 10 10 0 6 -4 10 -10 10 -5 0 -10 -4 -10 -10z"/>
<path d="M1140 650 c0 -5 25 -10 55 -10 30 0 55 5 55 10 0 6 -25 10 -55 10 -30 0 -55 -4 -55 -10z"/>
</g>
</g>
  <g id="id3:id3" transform="matrix(1.25,0,0,1.25,0.0,0.0)"><g transform="translate(0.000000,144.800000) scale(0.040000,-0.040000)" fill="#2b50a6" stroke="none">
<path d="M1235 3330 c-9 -15 4 -30 26 -30 22 0 24 11 7 28 -15 15 -25 15 -33 2z"/>
<path d="M1080 3272 c0 -10 22 -32 32 -32 4 0 8 9 8 20 0 13 -7 20 -20 20 -11 0 -20 -4 -20 -8z"/>
<path d="M920 3170 c0 -5 5 -10 10 -10 6 0 10 5 10 10 0 6 -4 10 -10 10 -5 0 -10 -4 -10 -10z"/>
<path d="M1080 3150 c0 -5 5 -10 10 -10 6 0 10 5 10 10 0 6 -4 10 -10 10 -5 0 -10 -4 -10 -10z"/>
<path d="M1554 2969 c-10 -17 13 -36 27 -22 12 12 4 33 -11 33 -5 0 -12 -5 -16 -11z"/>
<path d="M1500 2910 c0 -5 5 -10 10 -10 6 0 10 5 10 10 0 6 -4 10 -10 10 -5 0 -10 -4 -10 -10z"/>
<path d="M1580 2910 c0 -5 5 -10 10 -10 6 0 10 5 10 10 0 6 -4 10 -10 10 -5 0 -10 -4 -10 -10z"/>
<path d="M1520 2870 c0 -5 5 -10 10 -10 6 0 10 5 10 10 0 6 -4 10 -10 10 -5 0 -10 -4 -10 -10z"/>
<path d="M516 2807 c-75 -106 -107 -158 -150 -244 -25 -51 -46 -101 -46 -111 0 -12 47 -58 126 -123 240 -198 360 -308 580 -530 253 -256 291 -311 309 -450 5 -37 11 -49 31 -58 23 -10 29 -9 50 14 28 30 30 58 9 99 -11 21 -14 43 -9 72 4 31 2 49 -10 65 -9 14 -13 32 -9 47 8 34 -16 103 -36 100 -12 -2 -17 7 -19 32 -2 20 -12 40 -23 48 -10 7 -26 28 -35 45 -9 18 -33 50 -54 72 -23 25 -43 61 -54 97 -10 32 -22 60 -27 64 -5 3 -9 18 -9 34 0 16 -5 32 -10 35 -6 4 -8 15 -5 26 5 13 2 19 -10 19 -9 0 -15 -6 -13 -13 2 -7 -1 -14 -7 -16 -5 -2 -25 25 -44 60 -19 35 -40 67 -47 71 -15 9 -49 81 -59 123 -3 17 -14 38 -22 48 -9 9 -21 27 -27 39 -6 12 -22 25 -36 28 -28 7 -37 38 -20 69 8 16 8 19 -3 15 -8 -3 -25 8 -39 25 -14 16 -34 29 -44 28 -25 -3 -30 30 -8 54 22 25 10 38 -15 15 -19 -17 -39 -7 -27 13 4 5 -8 12 -24 16 -18 4 -38 18 -47 33 -24 39 -65 82 -77 82 -6 -1 -24 -20 -40 -43z"/>
<path d="M994 2769 c-10 -17 13 -36 27 -22 12 12 4 33 -11 33 -5 0 -12 -5 -16 -11z"/>
<path d="M1184 2728 c3 -7 9 -21 12 -30 4 -10 10 -18 15 -18 13 0 11 34 -3 48 -16 16 -31 15 -24 0z"/>
<path d="M1014 2709 c-7 -12 32 -57 41 -47 8 8 -13 58 -24 58 -5 0 -13 -5 -17 -11z"/>
<path d="M896 2552 c-2 -4 0 -14 5 -22 8 -13 10 -13 18 0 10 15 6 30 -9 30 -5 0 -11 -4 -14 -8z"/>
<path d="M1040 2430 c0 -5 5 -10 10 -10 6 0 10 5 10 10 0 6 -4 10 -10 10 -5 0 -10 -4 -10 -10z"/>
<path d="M1232 2288 c-18 -18 -15 -51 3 -44 9 3 18 -1 21 -9 7 -18 24 -20 24 -2 0 16 -23 67 -30 67 -4 0 -11 -5 -18 -12z"/>
<path d="M1439 2253 c-3 -24 4 -70 13 -80 12 -15 48 -17 48 -4 0 5 -7 12 -16 15 -8 3 -12 11 -9 16 4 6 1 18 -7 27 -7 9 -12 19 -10 22 2 3 -1 7 -7 9 -6 2 -11 0 -12 -5z"/>
<path d="M1660 2000 c0 -11 5 -20 10 -20 6 0 10 9 10 20 0 11 -4 20 -10 20 -5 0 -10 -9 -10 -20z"/>
<path d="M2063 1910 c0 -33 8 -38 27 -15 10 12 10 18 0 30 -19 23 -27 18 -27 -15z"/>
<path d="M2100 1870 c0 -5 5 -10 10 -10 6 0 10 5 10 10 0 6 -4 10 -10 10 -5 0 -10 -4 -10 -10z"/>
<path d="M1520 1020 c0 -5 5 -10 10 -10 6 0 10 5 10 10 0 6 -4 10 -10 10 -5 0 -10 -4 -10 -10z"/>
<path d="M1116 831 c-4 -6 -23 -11 -42 -11 -19 0 -34 -4 -34 -9 0 -4 78 -11 173 -14 182 -5 234 -16 246 -51 6 -15 17 -21 39 -21 18 0 32 -4 32 -10 0 -5 -13 -10 -28 -10 -15 0 -32 -4 -39 -8 -7 -4 -97 -9 -200 -10 -104 -2 -195 -7 -203 -12 -16 -10 -91 -7 -102 4 -4 4 -9 20 -11 37 -4 41 -14 54 -39 54 -12 0 -29 7 -39 16 -27 24 -46 11 -54 -35 -7 -41 -42 -81 -92 -104 -13 -6 -23 -14 -23 -18 0 -17 56 -59 75 -57 15 2 19 -2 17 -19 -7 -52 5 -53 743 -28 l410 14 22 -27 c34 -41 95 -167 91 -188 l-3 -19 -419 0 c-301 0 -420 -3 -423 -11 -10 -29 206 -94 402 -120 145 -19 423 -14 525 11 36 8 88 20 115 25 75 15 202 59 215 75 17 20 -271 300 -343 333 -222 103 -377 156 -552 191 -122 24 -448 40 -459 22z m489 -101 c8 -13 -20 -24 -41 -16 -20 8 -9 26 16 26 10 0 22 -5 25 -10z m235 -82 c25 -13 45 -27 45 -33 0 -6 -76 -13 -195 -17 -792 -27 -853 -29 -863 -19 -6 6 1 16 22 29 24 15 59 20 157 26 70 3 130 8 134 11 4 2 114 7 245 9 131 3 240 8 243 11 3 3 42 5 87 5 64 0 90 -5 125 -22z"/>
<path d="M1140 730 c0 -6 40 -10 100 -10 60 0 100 4 100 10 0 6 -40 10 -100 10 -60 0 -100 -4 -100 -10z"/>
</g>
</g>
</svg>
