<?xml version="1.0" standalone="no"?>
<!DOCTYPE svg PUBLIC "-//W3C//DTD SVG 1.1//EN"
 "http://www.w3.org/Graphics/SVG/1.1/DTD/svg11.dtd">
<!-- Created with svg_stack (http://github.com/astraw/svg_stack) -->
<svg xmlns:sodipodi="http://sodipodi.sourceforge.net/DTD/sodipodi-0.dtd" xmlns="http://www.w3.org/2000/svg" version="1.1" width="902.0" height="844.0">
  <defs/>
  <g id="id0:id0" transform="matrix(1.25,0,0,1.25,0.0,0.0)"><g transform="translate(0.000000,675.200000) scale(0.040000,-0.040000)" fill="#000000" stroke="none">
<path d="M14649 15803 c-24 -30 -39 -62 -39 -82 0 -11 -4 -23 -10 -26 -5 -3 -10 -17 -10 -30 0 -13 -4 -27 -10 -30 -5 -3 -10 -17 -10 -30 0 -13 -4 -27 -10 -30 -5 -3 -10 -15 -10 -25 0 -11 -9 -35 -20 -55 -11 -20 -20 -44 -20 -55 0 -10 -4 -22 -10 -25 -5 -3 -10 -17 -10 -30 0 -13 -4 -27 -10 -30 -5 -3 -10 -17 -10 -30 0 -13 -4 -27 -10 -30 -5 -3 -10 -17 -10 -30 0 -13 -4 -27 -10 -30 -5 -3 -10 -17 -10 -30 0 -13 -4 -27 -10 -30 -5 -3 -10 -17 -10 -30 0 -13 -4 -27 -10 -30 -5 -3 -10 -17 -10 -30 0 -13 -4 -27 -10 -30 -5 -3 -10 -17 -10 -30 0 -13 -4 -27 -10 -30 -5 -3 -10 -17 -10 -30 0 -13 -4 -27 -10 -30 -5 -3 -10 -15 -10 -25 0 -11 -9 -35 -20 -55 -11 -20 -20 -44 -20 -55 0 -10 -4 -22 -10 -25 -5 -3 -10 -17 -10 -30 0 -13 -4 -27 -10 -30 -5 -3 -10 -17 -10 -30 0 -13 -4 -27 -10 -30 -5 -3 -10 -17 -10 -30 0 -13 -4 -27 -10 -30 -5 -3 -10 -14 -10 -24 0 -10 -7 -32 -16 -49 l-15 -32 -164 0 c-98 0 -166 -4 -170 -10 -4 -6 -135 -10 -360 -10 -225 0 -356 -4 -360 -10 -4 -6 -75 -10 -179 -10 l-173 0 -23 -25 c-19 -20 -21 -27 -10 -40 7 -8 18 -15 24 -15 7 0 25 -13 41 -30 16 -16 34 -30 40 -30 7 0 20 -9 30 -20 10 -11 23 -20 30 -20 6 0 24 -13 40 -30 16 -16 34 -30 40 -30 7 0 20 -9 30 -20 10 -11 23 -20 30 -20 6 0 24 -13 40 -30 16 -16 34 -30 40 -30 7 0 20 -9 30 -20 10 -11 23 -20 30 -20 6 0 24 -13 40 -30 16 -16 34 -30 40 -30 6 0 24 -13 40 -30 16 -16 34 -30 40 -30 7 0 20 -9 30 -20 10 -11 23 -20 30 -20 6 0 24 -13 40 -30 16 -16 34 -30 40 -30 7 0 20 -9 30 -20 10 -11 23 -20 30 -20 6 0 24 -13 40 -30 16 -16 34 -30 40 -30 7 0 20 -9 30 -20 10 -11 23 -20 30 -20 6 0 24 -13 40 -30 16 -16 34 -30 40 -30 6 0 24 -13 40 -30 16 -16 34 -30 41 -30 19 0 28 -20 15 -33 -6 -6 -11 -21 -11 -33 0 -13 -4 -26 -10 -29 -5 -3 -10 -17 -10 -30 0 -13 -4 -27 -10 -30 -5 -3 -10 -21 -10 -40 0 -19 -4 -37 -10 -40 -5 -3 -10 -17 -10 -30 0 -13 -4 -27 -10 -30 -5 -3 -10 -17 -10 -30 0 -13 -4 -27 -10 -30 -5 -3 -10 -17 -10 -30 0 -13 -4 -27 -10 -30 -5 -3 -10 -17 -10 -30 0 -13 -4 -27 -10 -30 -5 -3 -10 -21 -10 -40 0 -19 -4 -37 -10 -40 -5 -3 -10 -17 -10 -30 0 -13 -4 -27 -10 -30 -5 -3 -10 -17 -10 -30 0 -13 -4 -27 -10 -30 -5 -3 -10 -17 -10 -30 0 -13 -4 -27 -10 -30 -5 -3 -10 -17 -10 -30 0 -13 -4 -27 -10 -30 -5 -3 -10 -21 -10 -40 0 -19 -4 -37 -10 -40 -5 -3 -10 -17 -10 -30 0 -13 -4 -27 -10 -30 -5 -3 -10 -17 -10 -30 0 -13 -4 -27 -10 -30 -5 -3 -10 -17 -10 -30 0 -13 -4 -27 -10 -30 -5 -3 -10 -17 -10 -30 0 -13 -4 -27 -10 -30 -5 -3 -10 -17 -10 -30 0 -13 -4 -27 -10 -30 -5 -3 -10 -21 -10 -40 0 -19 -4 -37 -10 -40 -5 -3 -10 -15 -10 -26 0 -10 -6 -28 -12 -39 -27 -43 32 -79 67 -40 10 11 23 20 30 20 7 0 20 9 30 20 10 11 23 20 30 20 7 0 20 9 30 20 10 11 23 20 30 20 7 0 20 9 30 20 10 11 23 20 30 20 7 0 20 9 30 20 10 11 23 20 30 20 7 0 20 9 30 20 10 11 23 20 30 20 7 0 20 9 30 20 10 11 23 20 30 20 7 0 20 9 30 20 10 11 23 20 30 20 7 0 20 9 30 20 10 11 24 20 30 20 7 0 18 7 25 15 7 9 32 25 55 35 23 10 48 26 55 35 7 8 18 15 25 15 6 0 20 9 30 20 10 11 23 20 30 20 7 0 20 9 30 20 10 11 23 20 30 20 7 0 20 9 30 20 10 11 23 20 30 20 7 0 20 9 30 20 10 11 23 20 30 20 7 0 20 9 30 20 10 11 23 20 30 20 7 0 20 9 30 20 10 11 23 20 30 20 7 0 20 9 30 20 10 11 23 20 28 20 6 0 21 10 34 22 l23 21 23 -21 c13 -12 28 -22 34 -22 5 0 18 -9 28 -20 10 -11 23 -20 30 -20 7 0 20 -9 30 -20 10 -11 23 -20 30 -20 7 0 20 -9 30 -20 10 -11 23 -20 30 -20 7 0 20 -9 30 -20 10 -11 23 -20 30 -20 7 0 20 -9 30 -20 10 -11 24 -20 30 -20 7 0 18 -7 25 -15 7 -9 32 -25 55 -35 23 -10 48 -26 55 -35 7 -8 18 -15 25 -15 6 0 20 -9 30 -20 10 -11 23 -20 30 -20 7 0 20 -9 30 -20 10 -11 23 -20 30 -20 7 0 20 -9 30 -20 10 -11 23 -20 30 -20 7 0 20 -9 30 -20 10 -11 23 -20 30 -20 7 0 20 -9 30 -20 10 -11 23 -20 30 -20 7 0 20 -9 30 -20 10 -11 23 -20 30 -20 7 0 20 -9 30 -20 10 -11 23 -20 30 -20 7 0 20 -9 30 -20 10 -11 23 -20 30 -20 7 0 20 -9 30 -20 10 -11 23 -20 30 -20 7 0 20 -9 30 -20 10 -11 23 -20 30 -20 7 0 20 -9 30 -20 35 -39 94 -3 67 40 -6 11 -12 33 -12 49 0 17 -4 33 -10 36 -5 3 -10 17 -10 30 0 13 -4 27 -10 30 -5 3 -10 17 -10 30 0 13 -4 27 -10 30 -5 3 -10 17 -10 30 0 13 -4 27 -10 30 -5 3 -10 17 -10 30 0 13 -4 27 -10 30 -5 3 -10 17 -10 30 0 13 -4 27 -10 30 -5 3 -10 21 -10 40 0 19 -4 37 -10 40 -5 3 -10 17 -10 30 0 13 -4 27 -10 30 -5 3 -10 17 -10 30 0 13 -4 27 -10 30 -5 3 -10 17 -10 30 0 13 -4 27 -10 30 -5 3 -10 17 -10 30 0 13 -4 27 -10 30 -5 3 -10 21 -10 40 0 19 -4 37 -10 40 -5 3 -10 17 -10 30 0 13 -4 27 -10 30 -5 3 -10 17 -10 30 0 13 -4 27 -10 30 -5 3 -10 17 -10 30 0 13 -4 27 -10 30 -5 3 -10 17 -10 30 0 13 -4 27 -10 30 -5 3 -10 21 -10 40 0 19 -4 37 -10 40 -5 3 -10 17 -10 30 0 13 -4 27 -10 30 -5 3 -10 17 -10 30 0 13 -4 27 -10 30 -5 3 -10 16 -10 29 0 12 -5 27 -11 33 -13 13 -4 33 15 33 7 0 25 14 41 30 16 17 34 30 40 30 6 0 24 14 40 30 16 17 34 30 40 30 7 0 20 9 30 20 10 11 23 20 30 20 6 0 24 14 40 30 16 17 34 30 40 30 7 0 20 9 30 20 10 11 23 20 30 20 6 0 24 14 40 30 16 17 34 30 40 30 7 0 20 9 30 20 10 11 23 20 30 20 6 0 24 14 40 30 16 17 34 30 40 30 6 0 24 14 40 30 16 17 34 30 40 30 7 0 20 9 30 20 10 11 23 20 30 20 6 0 24 14 40 30 16 17 34 30 40 30 7 0 20 9 30 20 10 11 23 20 30 20 6 0 24 14 40 30 16 17 34 30 40 30 7 0 20 9 30 20 10 11 23 20 29 20 5 0 22 12 37 26 15 15 38 32 51 38 27 13 35 41 18 61 -10 12 -48 15 -196 15 -111 0 -185 4 -189 10 -4 6 -135 10 -360 10 -225 0 -356 4 -360 10 -4 6 -72 10 -170 10 l-164 0 -15 32 c-9 17 -16 39 -16 49 0 10 -4 21 -10 24 -5 3 -10 17 -10 30 0 13 -4 27 -10 30 -5 3 -10 17 -10 30 0 13 -4 27 -10 30 -5 3 -10 17 -10 30 0 13 -4 27 -10 30 -5 3 -10 17 -10 30 0 13 -4 27 -10 30 -5 3 -10 17 -10 30 0 13 -4 27 -10 30 -5 3 -10 15 -10 25 0 11 -9 35 -20 55 -11 20 -20 44 -20 55 0 10 -4 22 -10 25 -5 3 -10 17 -10 30 0 13 -4 27 -10 30 -5 3 -10 17 -10 30 0 13 -4 27 -10 30 -5 3 -10 17 -10 30 0 13 -4 27 -10 30 -5 3 -10 17 -10 30 0 13 -4 27 -10 30 -5 3 -10 17 -10 30 0 13 -4 27 -10 30 -5 3 -10 17 -10 30 0 13 -4 27 -10 30 -5 3 -10 17 -10 30 0 13 -4 27 -10 30 -5 3 -10 17 -10 30 0 13 -4 27 -10 30 -5 3 -10 15 -10 25 0 11 -9 35 -20 55 -11 20 -20 44 -20 55 0 10 -4 22 -10 25 -5 3 -10 15 -10 26 0 28 -43 99 -60 99 -4 0 -13 -8 -21 -17z m39 -184 c2 -13 8 -28 13 -33 5 -6 9 -20 9 -32 0 -13 5 -26 10 -29 6 -3 10 -17 10 -30 0 -13 5 -27 10 -30 6 -3 10 -15 10 -25 0 -11 9 -35 20 -55 11 -20 20 -44 20 -55 0 -10 5 -22 10 -25 6 -3 10 -17 10 -30 0 -13 5 -27 10 -30 6 -3 10 -17 10 -30 0 -13 5 -27 10 -30 6 -3 10 -17 10 -30 0 -13 5 -27 10 -30 6 -3 10 -17 10 -30 0 -13 5 -27 10 -30 6 -3 10 -17 10 -30 0 -13 5 -27 10 -30 6 -3 10 -17 10 -30 0 -13 5 -27 10 -30 6 -3 10 -17 10 -30 0 -13 5 -27 10 -30 6 -3 10 -17 10 -30 0 -13 5 -27 10 -30 6 -3 10 -17 10 -30 0 -13 5 -27 10 -30 6 -3 10 -15 10 -25 0 -11 9 -35 20 -55 11 -20 20 -44 20 -55 0 -10 5 -22 10 -25 6 -3 10 -17 10 -30 0 -13 5 -27 10 -30 6 -3 10 -17 10 -30 0 -13 5 -27 10 -30 6 -3 10 -16 10 -29 0 -43 14 -46 206 -46 111 0 185 -4 189 -10 4 -6 135 -10 360 -10 225 0 356 -4 360 -10 3 -6 50 -10 104 -10 54 0 101 -3 105 -7 8 -8 -53 -73 -69 -73 -7 0 -20 -9 -30 -20 -10 -11 -23 -20 -30 -20 -6 0 -24 -13 -40 -30 -16 -16 -34 -30 -40 -30 -6 0 -24 -13 -40 -30 -16 -16 -34 -30 -40 -30 -7 0 -20 -9 -30 -20 -10 -11 -23 -20 -30 -20 -6 0 -24 -13 -40 -30 -16 -16 -34 -30 -40 -30 -7 0 -20 -9 -30 -20 -10 -11 -23 -20 -30 -20 -6 0 -24 -13 -40 -30 -16 -16 -34 -30 -40 -30 -7 0 -20 -9 -30 -20 -10 -11 -23 -20 -30 -20 -6 0 -24 -13 -40 -30 -16 -16 -34 -30 -40 -30 -7 0 -20 -9 -30 -20 -10 -11 -23 -20 -30 -20 -6 0 -24 -13 -40 -30 -16 -16 -34 -30 -40 -30 -6 0 -24 -13 -40 -30 -16 -16 -34 -30 -41 -30 -6 0 -18 -7 -25 -16 -7 -9 -24 -20 -36 -25 -29 -11 -40 -36 -25 -60 7 -10 12 -28 12 -38 0 -11 5 -23 10 -26 6 -3 10 -21 10 -40 0 -19 5 -37 10 -40 6 -3 10 -17 10 -30 0 -13 5 -27 10 -30 6 -3 10 -17 10 -30 0 -13 5 -27 10 -30 6 -3 10 -17 10 -30 0 -13 5 -27 10 -30 6 -3 10 -17 10 -30 0 -13 5 -27 10 -30 6 -3 10 -21 10 -40 0 -19 5 -37 10 -40 6 -3 10 -17 10 -30 0 -13 5 -27 10 -30 6 -3 10 -17 10 -30 0 -13 5 -27 10 -30 6 -3 10 -17 10 -30 0 -13 5 -27 10 -30 6 -3 10 -17 10 -30 0 -13 5 -27 10 -30 6 -3 10 -17 10 -30 0 -13 5 -27 10 -30 6 -3 10 -21 10 -40 0 -19 5 -37 10 -40 6 -3 10 -17 10 -30 0 -13 5 -27 10 -30 6 -3 10 -17 10 -30 0 -13 5 -27 10 -30 6 -3 10 -17 10 -30 0 -13 5 -27 10 -30 6 -3 10 -17 10 -30 0 -13 5 -27 10 -30 6 -3 10 -21 10 -39 0 -17 5 -37 11 -43 7 -7 9 -18 6 -27 -7 -18 -40 -11 -63 15 -9 10 -22 19 -29 19 -7 0 -20 9 -30 20 -10 11 -23 20 -30 20 -7 0 -20 9 -30 20 -10 11 -23 20 -30 20 -7 0 -20 9 -30 20 -10 11 -23 20 -30 20 -7 0 -20 9 -30 20 -10 11 -23 20 -30 20 -7 0 -20 9 -30 20 -10 11 -24 20 -30 20 -7 0 -18 7 -25 15 -7 9 -32 25 -55 35 -23 10 -48 26 -55 35 -7 8 -18 15 -25 15 -6 0 -20 9 -30 20 -10 11 -23 20 -30 20 -7 0 -20 9 -30 20 -10 11 -23 20 -30 20 -7 0 -20 9 -30 20 -10 11 -23 20 -30 20 -7 0 -20 9 -30 20 -10 11 -23 20 -30 20 -7 0 -20 9 -30 20 -10 11 -23 20 -30 20 -7 0 -20 9 -30 20 -10 11 -23 20 -30 20 -7 0 -20 9 -30 20 -10 11 -23 20 -30 20 -7 0 -20 9 -30 20 -10 11 -23 20 -30 20 -7 0 -20 9 -30 20 -10 11 -26 20 -35 20 -9 0 -25 -9 -35 -20 -10 -11 -23 -20 -30 -20 -7 0 -20 -9 -30 -20 -10 -11 -23 -20 -30 -20 -7 0 -20 -9 -30 -20 -10 -11 -23 -20 -30 -20 -7 0 -20 -9 -30 -20 -10 -11 -23 -20 -30 -20 -7 0 -20 -9 -30 -20 -10 -11 -23 -20 -30 -20 -7 0 -20 -9 -30 -20 -10 -11 -23 -20 -30 -20 -7 0 -20 -9 -30 -20 -10 -11 -23 -20 -30 -20 -7 0 -20 -9 -30 -20 -10 -11 -23 -20 -30 -20 -7 0 -20 -9 -30 -20 -10 -11 -23 -20 -30 -20 -7 0 -20 -9 -30 -20 -10 -11 -23 -20 -30 -20 -7 0 -20 -9 -30 -20 -10 -11 -24 -20 -30 -20 -7 0 -18 -7 -25 -15 -7 -9 -32 -25 -55 -35 -23 -10 -48 -26 -55 -35 -7 -8 -18 -15 -25 -15 -6 0 -20 -9 -30 -20 -10 -11 -23 -20 -30 -20 -7 0 -20 -9 -30 -20 -10 -11 -23 -20 -30 -20 -7 0 -20 -9 -30 -20 -10 -11 -23 -20 -30 -20 -7 0 -20 -9 -29 -19 -23 -26 -56 -33 -63 -15 -3 9 -1 20 6 27 6 6 11 21 11 33 0 13 5 26 10 29 6 3 10 21 10 40 0 19 5 37 10 40 6 3 10 17 10 30 0 13 5 27 10 30 6 3 10 17 10 30 0 13 5 27 10 30 6 3 10 17 10 30 0 13 5 27 10 30 6 3 10 17 10 30 0 13 5 27 10 30 6 3 10 21 10 40 0 19 5 37 10 40 6 3 10 17 10 30 0 13 5 27 10 30 6 3 10 17 10 30 0 13 5 27 10 30 6 3 10 17 10 30 0 13 5 27 10 30 6 3 10 17 10 30 0 13 5 27 10 30 6 3 10 17 10 30 0 13 5 27 10 30 6 3 10 21 10 40 0 19 5 37 10 40 6 3 10 17 10 30 0 13 5 27 10 30 6 3 10 17 10 30 0 13 5 27 10 30 6 3 10 17 10 30 0 13 5 27 10 30 6 3 10 17 10 30 0 13 5 27 10 30 6 3 10 19 10 36 0 16 5 38 12 48 15 24 4 49 -25 60 -12 5 -29 16 -36 25 -7 9 -19 16 -25 16 -7 0 -25 14 -41 30 -16 17 -34 30 -40 30 -6 0 -24 14 -40 30 -16 17 -34 30 -40 30 -7 0 -20 9 -30 20 -10 11 -23 20 -30 20 -6 0 -24 14 -40 30 -16 17 -34 30 -40 30 -7 0 -20 9 -30 20 -10 11 -23 20 -30 20 -6 0 -24 14 -40 30 -16 17 -34 30 -40 30 -7 0 -20 9 -30 20 -10 11 -23 20 -30 20 -6 0 -24 14 -40 30 -16 17 -34 30 -40 30 -7 0 -20 9 -30 20 -10 11 -23 20 -30 20 -6 0 -24 14 -40 30 -16 17 -34 30 -40 30 -6 0 -24 14 -40 30 -16 17 -34 30 -40 30 -7 0 -20 9 -30 20 -10 11 -23 20 -30 20 -16 0 -77 65 -69 73 4 4 51 7 105 7 54 0 101 4 104 10 4 6 135 10 360 10 225 0 356 4 360 10 4 6 78 10 189 10 192 0 206 3 206 46 0 13 5 26 10 29 6 3 10 15 10 25 0 11 9 35 20 55 11 20 20 44 20 55 0 10 5 22 10 25 6 3 10 17 10 30 0 13 5 27 10 30 6 3 10 17 10 30 0 13 5 27 10 30 6 3 10 17 10 30 0 13 5 27 10 30 6 3 10 17 10 30 0 13 5 27 10 30 6 3 10 17 10 30 0 13 5 27 10 30 6 3 10 17 10 30 0 13 5 27 10 30 6 3 10 17 10 30 0 13 5 27 10 30 6 3 10 17 10 30 0 13 5 27 10 30 6 3 10 17 10 30 0 13 5 27 10 30 6 3 10 15 10 25 0 11 9 35 20 55 11 20 20 44 20 55 0 10 5 22 10 25 6 3 10 17 10 30 0 13 5 27 10 30 6 3 10 17 10 30 0 13 5 27 10 30 6 3 10 17 10 30 0 13 5 27 10 30 6 3 10 17 10 30 0 13 5 27 10 30 6 3 10 16 10 29 0 43 32 48 38 5z"/>
<path d="M8205 12900 c-4 -6 -205 -10 -570 -10 -365 0 -566 -4 -570 -10 -4 -7 -315 -10 -901 -10 -492 0 -1008 -4 -1147 -10 -493 -19 -712 -32 -735 -43 -17 -8 -28 -8 -41 0 -19 12 -51 10 -351 -18 -181 -16 -342 -39 -375 -54 -16 -7 -51 -13 -77 -13 -62 -2 -189 -31 -209 -48 -8 -8 -33 -14 -55 -14 -45 0 -121 -25 -146 -47 -9 -8 -21 -12 -27 -9 -13 9 -149 -39 -183 -64 -15 -11 -36 -20 -47 -20 -11 0 -23 -4 -26 -10 -3 -5 -12 -10 -20 -10 -17 0 -163 -68 -170 -80 -7 -12 -65 -40 -82 -40 -12 0 -49 -20 -108 -58 -11 -6 -29 -16 -40 -21 -11 -5 -37 -21 -58 -35 -21 -14 -42 -26 -46 -26 -5 0 -14 -7 -21 -15 -7 -9 -29 -23 -49 -32 -20 -9 -45 -24 -56 -33 -11 -10 -32 -20 -46 -23 -14 -4 -31 -18 -37 -32 -9 -19 -17 -25 -30 -21 -12 4 -28 -4 -48 -25 -16 -17 -47 -39 -69 -49 -22 -10 -51 -30 -64 -44 -14 -14 -33 -26 -44 -26 -10 0 -32 -10 -49 -22 -46 -35 -220 -193 -274 -250 -102 -106 -154 -167 -173 -204 -12 -22 -33 -51 -46 -64 -14 -13 -25 -31 -25 -40 0 -19 -27 -77 -40 -85 -5 -3 -25 -40 -46 -83 -20 -42 -48 -89 -62 -104 -28 -31 -43 -55 -73 -118 -11 -25 -38 -82 -60 -128 -21 -45 -39 -86 -39 -90 0 -5 -9 -27 -20 -50 -11 -22 -20 -48 -20 -56 0 -8 -4 -18 -10 -21 -5 -3 -10 -17 -10 -30 0 -13 -4 -27 -10 -30 -5 -3 -10 -15 -10 -25 0 -11 -9 -35 -20 -55 -11 -20 -20 -44 -20 -55 0 -10 -4 -22 -10 -25 -5 -3 -10 -17 -10 -30 0 -13 -4 -27 -10 -30 -5 -3 -10 -15 -10 -25 0 -11 -9 -35 -20 -55 -11 -20 -20 -53 -20 -75 0 -21 -5 -42 -10 -45 -6 -3 -10 -21 -10 -40 0 -19 -5 -37 -10 -40 -6 -3 -10 -19 -10 -35 0 -16 -9 -45 -20 -65 -11 -20 -20 -53 -20 -75 0 -21 -4 -42 -10 -45 -5 -3 -10 -17 -10 -30 0 -13 -4 -27 -10 -30 -5 -3 -10 -35 -10 -70 0 -35 -4 -67 -10 -70 -5 -3 -10 -30 -10 -59 0 -28 -4 -56 -9 -61 -12 -13 -20 -82 -27 -243 l-6 -133 23 -25 c19 -20 32 -24 80 -24 32 0 61 5 64 10 3 6 31 10 61 10 42 0 72 8 128 35 40 19 79 41 86 50 7 8 18 15 24 15 7 0 25 14 41 30 16 17 34 30 40 30 6 0 22 11 35 25 13 14 27 25 31 25 19 0 149 146 149 168 0 5 9 17 20 27 11 10 20 23 20 30 0 6 18 29 40 50 22 21 40 44 40 50 0 6 14 24 30 40 17 16 30 34 30 40 0 6 10 21 23 33 13 12 34 42 46 67 12 24 26 47 32 50 5 4 18 25 28 48 11 23 31 53 45 66 14 13 35 42 47 65 21 40 41 67 107 145 17 21 32 43 32 48 0 15 32 41 60 48 14 3 33 19 42 36 10 16 28 33 40 38 13 5 30 16 37 25 7 9 19 16 25 16 7 0 25 14 41 30 16 17 34 30 40 30 7 0 20 9 30 20 10 11 22 20 27 20 13 0 141 85 157 104 7 9 21 16 30 17 9 0 43 15 76 34 106 59 233 117 320 146 22 7 47 18 55 24 33 23 61 35 79 35 11 0 23 5 27 11 3 6 18 9 33 6 14 -3 40 1 56 8 17 7 57 16 90 18 33 3 105 13 160 23 80 14 162 17 415 17 295 1 343 -2 530 -31 l45 -7 3 -130 c2 -89 -1 -137 -10 -153 -9 -18 -9 -27 0 -43 10 -15 9 -23 0 -39 -10 -16 -10 -24 0 -40 18 -29 15 -150 -5 -191 -12 -24 -19 -76 -24 -194 -4 -88 -11 -188 -14 -222 -4 -42 -2 -67 6 -81 10 -16 10 -26 1 -44 -14 -29 -22 -111 -28 -318 -2 -91 -9 -174 -14 -185 -9 -20 -16 -89 -25 -275 -3 -58 -10 -114 -15 -125 -5 -11 -11 -63 -14 -115 -2 -52 -6 -102 -9 -110 -6 -16 -14 -102 -23 -235 -3 -44 -9 -89 -13 -100 -12 -27 -31 -180 -31 -242 0 -29 -4 -55 -10 -58 -6 -3 -10 -34 -10 -69 0 -34 -4 -66 -9 -71 -10 -11 -17 -62 -27 -193 -4 -45 -10 -85 -15 -88 -5 -3 -9 -25 -9 -49 0 -24 -5 -47 -10 -50 -6 -3 -10 -35 -10 -70 0 -35 -5 -67 -10 -70 -5 -3 -10 -21 -10 -40 0 -19 -4 -37 -10 -40 -6 -3 -10 -26 -10 -50 0 -24 -5 -47 -10 -50 -5 -3 -10 -28 -10 -56 0 -27 -4 -57 -9 -67 -16 -33 -31 -89 -31 -120 0 -17 -4 -34 -10 -37 -5 -3 -10 -26 -10 -50 0 -24 -5 -47 -10 -50 -5 -3 -10 -21 -10 -40 0 -19 -4 -37 -10 -40 -5 -3 -10 -21 -10 -40 0 -19 -4 -37 -10 -40 -6 -3 -10 -19 -10 -34 0 -15 -8 -43 -17 -62 -9 -19 -19 -61 -21 -94 -2 -33 -8 -64 -13 -69 -5 -6 -9 -20 -9 -32 0 -13 -4 -26 -10 -29 -6 -3 -10 -26 -10 -50 0 -24 -5 -47 -10 -50 -5 -3 -10 -17 -10 -30 0 -13 -4 -27 -10 -30 -5 -3 -10 -16 -10 -29 0 -13 -9 -31 -20 -41 -12 -11 -20 -31 -20 -50 0 -19 -8 -39 -20 -50 -12 -11 -20 -31 -20 -51 0 -18 -4 -36 -10 -39 -5 -3 -10 -21 -10 -39 0 -20 -8 -40 -20 -51 -11 -10 -20 -28 -20 -41 0 -13 -4 -26 -10 -29 -5 -3 -10 -14 -10 -25 0 -10 -13 -44 -30 -75 -16 -31 -30 -70 -30 -85 0 -16 -4 -32 -10 -35 -5 -3 -10 -14 -10 -24 0 -23 -26 -75 -45 -91 -8 -7 -15 -20 -15 -29 0 -13 -37 -91 -105 -221 -40 -76 -55 -115 -55 -139 0 -17 -11 -38 -31 -57 -40 -38 -89 -135 -89 -177 0 -26 -10 -42 -46 -77 -25 -25 -52 -61 -61 -80 -9 -19 -22 -42 -28 -50 -29 -36 -65 -113 -65 -139 0 -17 -10 -37 -26 -52 -14 -13 -30 -35 -35 -47 -5 -13 -18 -26 -29 -29 -15 -4 -18 -11 -14 -30 5 -20 -2 -34 -44 -76 -27 -29 -51 -57 -53 -64 -2 -6 -35 -44 -74 -85 -64 -67 -83 -90 -125 -154 -15 -23 -36 -49 -125 -154 -67 -79 -95 -116 -95 -127 0 -5 -20 -28 -44 -52 -24 -23 -53 -62 -65 -86 -12 -23 -28 -48 -36 -55 -8 -7 -15 -18 -15 -24 0 -7 -18 -30 -40 -51 -22 -21 -40 -44 -40 -50 0 -7 -9 -20 -20 -30 -11 -10 -20 -24 -20 -30 0 -7 -7 -18 -15 -25 -9 -7 -25 -32 -35 -55 -10 -23 -26 -48 -35 -55 -8 -7 -15 -17 -15 -23 0 -6 -20 -32 -44 -57 -26 -26 -66 -86 -95 -144 -27 -54 -56 -105 -63 -115 -23 -29 -38 -60 -38 -80 0 -11 -4 -23 -10 -26 -5 -3 -10 -21 -10 -40 0 -19 -4 -37 -10 -40 -5 -3 -10 -14 -10 -24 0 -23 -26 -75 -45 -91 -8 -7 -15 -25 -15 -41 0 -16 -9 -44 -20 -64 -18 -33 -20 -54 -20 -253 0 -156 -3 -221 -12 -230 -9 -9 -9 -15 0 -24 7 -7 12 -30 12 -52 0 -38 13 -93 31 -128 5 -10 9 -27 9 -37 0 -11 4 -22 9 -25 5 -3 12 -22 16 -42 4 -22 23 -54 49 -83 23 -25 57 -77 76 -116 31 -64 73 -124 117 -168 72 -71 195 -176 213 -182 12 -4 41 -20 65 -36 24 -16 70 -41 102 -55 32 -13 67 -29 78 -33 94 -41 196 -63 282 -62 45 0 85 -4 88 -9 8 -13 322 -13 330 0 3 6 21 10 39 10 17 0 37 5 44 12 9 9 13 7 18 -5 7 -20 50 -23 57 -3 4 9 27 15 69 18 35 2 79 11 98 20 19 9 49 19 65 23 48 10 284 125 320 155 22 18 125 88 158 107 29 16 287 276 287 288 0 6 16 27 36 46 44 42 144 189 144 211 0 9 4 20 10 23 6 3 10 16 10 29 0 12 14 35 31 52 29 27 109 180 109 207 0 7 13 40 30 73 28 58 111 290 130 364 5 19 20 76 34 125 14 50 26 102 26 117 0 15 4 29 9 32 5 3 11 23 15 43 3 21 8 56 11 78 4 22 10 49 15 60 5 11 11 38 14 60 2 22 10 63 16 90 6 28 16 77 20 110 10 64 34 213 50 306 6 30 10 85 10 122 0 36 4 69 10 72 6 3 10 35 10 70 0 35 5 67 10 70 6 3 10 44 10 90 0 46 4 86 9 89 4 3 11 40 15 83 4 43 12 128 17 188 25 275 48 538 58 675 4 63 11 125 15 136 5 13 3 25 -3 28 -14 9 -15 103 -1 111 6 3 10 44 10 90 0 46 5 87 10 90 6 3 10 43 10 89 0 45 4 86 9 92 5 5 12 50 15 99 4 50 11 140 17 200 5 61 12 164 15 230 3 66 10 124 15 129 5 6 9 70 9 142 0 78 4 135 10 139 6 4 10 58 10 130 0 72 4 126 10 130 6 4 10 58 10 130 0 72 4 126 10 130 6 4 10 62 10 140 0 78 4 136 10 140 6 4 10 58 10 130 0 72 4 126 10 130 6 3 10 39 10 80 0 41 5 77 10 80 6 3 10 17 10 30 0 13 5 27 10 30 6 3 10 51 10 109 0 56 4 106 9 111 9 10 17 89 26 295 3 58 10 114 15 125 5 11 11 58 15 105 3 47 8 118 12 158 4 51 1 77 -7 87 -11 13 -9 20 8 38 22 23 23 33 38 332 3 60 10 115 15 121 5 6 9 92 10 190 0 159 2 181 19 199 19 21 25 67 36 258 4 59 11 110 15 113 5 3 9 54 9 115 0 70 4 116 12 129 10 16 10 24 0 40 -16 27 -15 57 3 67 15 9 19 37 46 313 6 58 13 126 16 152 3 26 10 52 17 57 8 6 359 11 986 12 649 2 981 6 992 13 12 7 24 6 40 -2 24 -13 106 -21 281 -27 59 -1 113 -8 120 -13 7 -6 42 -12 77 -14 l65 -3 -3 -75 c-7 -222 -14 -326 -23 -334 -5 -6 -9 -70 -9 -142 0 -78 -4 -135 -10 -139 -6 -4 -10 -58 -10 -130 0 -72 -4 -126 -10 -130 -6 -4 -10 -58 -10 -129 0 -67 -4 -126 -9 -132 -6 -5 -12 -70 -15 -144 -3 -74 -9 -200 -15 -280 -5 -80 -15 -230 -20 -335 -12 -219 -26 -441 -41 -675 -6 -91 -15 -235 -21 -320 -6 -85 -15 -218 -20 -295 -6 -77 -12 -216 -15 -310 -3 -93 -9 -174 -14 -179 -6 -6 -10 -70 -10 -142 0 -78 -4 -135 -10 -139 -6 -3 -10 -33 -10 -65 0 -42 -4 -61 -15 -67 -15 -9 -29 -128 -41 -348 -3 -49 -10 -94 -15 -99 -5 -6 -9 -46 -9 -91 0 -45 -4 -85 -9 -91 -4 -5 -13 -63 -20 -129 -6 -66 -16 -145 -21 -176 -6 -30 -10 -103 -10 -162 0 -60 -4 -109 -10 -112 -6 -4 -10 -62 -10 -140 0 -78 -4 -136 -10 -140 -6 -4 -10 -62 -10 -140 0 -78 -4 -136 -10 -140 -5 -3 -10 -32 -10 -64 0 -32 -7 -72 -16 -89 -21 -43 -35 -296 -41 -772 -5 -375 3 -556 28 -602 5 -10 9 -45 9 -77 0 -33 5 -63 10 -66 13 -8 13 -62 0 -70 -18 -11 -11 -64 10 -75 23 -12 26 -41 8 -70 -10 -15 -10 -26 0 -53 7 -18 12 -45 12 -60 0 -14 5 -29 10 -32 6 -3 10 -25 10 -47 0 -23 4 -55 9 -72 5 -17 15 -51 21 -76 7 -25 16 -53 21 -62 5 -10 9 -27 9 -37 0 -11 5 -23 10 -26 6 -3 10 -17 10 -30 0 -13 5 -27 10 -30 6 -3 10 -15 10 -25 0 -11 9 -35 20 -55 11 -20 20 -46 20 -59 0 -13 14 -50 30 -81 17 -31 30 -63 30 -71 0 -7 9 -29 19 -48 11 -19 33 -61 50 -93 17 -33 43 -71 57 -84 14 -13 34 -42 44 -64 10 -22 30 -51 44 -64 14 -14 26 -29 26 -36 0 -13 122 -135 136 -135 18 0 64 -55 64 -77 0 -20 36 -56 137 -136 98 -78 111 -87 120 -87 5 0 24 -16 43 -35 19 -19 38 -35 42 -35 5 0 26 -11 48 -25 22 -14 48 -25 58 -25 10 0 31 -14 48 -31 39 -41 79 -62 134 -68 34 -5 47 -11 55 -28 12 -27 21 -29 29 -7 5 13 17 7 61 -35 29 -28 63 -51 74 -51 11 0 23 -4 26 -10 3 -5 26 -10 50 -10 24 0 47 -4 50 -10 3 -5 14 -10 25 -10 10 0 44 -13 75 -30 31 -16 65 -30 74 -30 9 0 21 -4 27 -10 14 -14 163 -50 209 -50 23 0 45 -4 50 -9 6 -5 42 -12 80 -15 187 -16 218 -17 228 -7 14 14 184 15 192 1 3 -5 33 -10 65 -10 32 0 62 5 65 10 3 6 19 10 36 10 16 0 38 6 49 12 16 10 24 10 41 0 15 -10 24 -11 32 -3 6 6 30 11 53 11 24 0 46 5 49 10 3 6 17 10 30 10 13 0 27 5 30 10 3 6 15 10 25 10 11 0 35 9 55 20 23 13 54 20 88 20 33 0 68 8 92 20 22 11 46 20 55 20 9 0 20 4 25 8 6 5 33 17 60 27 56 20 232 110 255 130 8 7 26 16 40 20 14 4 35 16 47 28 24 22 59 43 85 53 10 3 20 15 23 25 4 11 31 30 62 44 60 28 150 106 331 287 129 128 202 210 202 225 0 5 12 20 26 34 14 13 30 33 35 44 16 36 50 90 63 100 7 6 15 17 19 25 4 8 25 47 47 85 78 138 120 225 120 249 0 14 5 28 11 32 18 11 49 87 49 121 0 17 5 35 10 38 6 3 10 16 10 29 0 13 9 31 20 41 11 10 20 26 20 36 0 10 8 33 18 51 26 46 82 217 82 250 0 15 5 30 10 33 6 3 10 15 10 26 0 10 4 27 9 37 35 65 71 290 71 441 0 171 -22 242 -97 312 -64 61 -88 69 -216 69 -99 0 -118 -3 -140 -20 -14 -11 -29 -20 -34 -20 -12 0 -113 -103 -113 -116 0 -6 -9 -19 -20 -29 -11 -10 -20 -24 -20 -30 0 -7 -7 -18 -15 -25 -8 -7 -18 -30 -21 -52 -4 -21 -11 -41 -15 -44 -5 -3 -9 -13 -9 -24 0 -10 -13 -44 -30 -75 -16 -31 -30 -63 -30 -71 0 -16 -17 -49 -39 -76 -18 -23 -81 -149 -81 -163 0 -6 -11 -33 -25 -60 -24 -49 -160 -195 -181 -195 -6 0 -19 -9 -29 -20 -10 -11 -26 -20 -36 -20 -9 0 -43 -13 -74 -30 -38 -20 -72 -30 -101 -30 -25 0 -59 -8 -79 -20 -34 -19 -133 -29 -148 -14 -3 3 -88 5 -189 5 -191 0 -386 11 -476 28 -83 16 -225 63 -247 82 -11 9 -39 28 -63 41 -70 38 -79 43 -97 58 -9 8 -26 19 -38 25 -11 5 -28 22 -36 36 -52 84 -97 148 -107 149 -19 0 -55 46 -49 62 4 9 0 18 -9 21 -9 4 -16 15 -16 25 0 10 -9 27 -20 37 -11 10 -20 23 -20 30 0 6 -13 24 -30 40 -31 29 -39 59 -19 71 13 7 6 50 -15 97 -8 18 -17 43 -19 57 -16 73 -29 120 -34 120 -3 0 -12 -8 -19 -18 -10 -13 -17 -15 -30 -6 -14 8 -17 22 -15 61 1 28 -2 54 -8 58 -7 4 -11 44 -11 100 0 52 -4 97 -10 100 -5 3 -10 28 -10 55 0 27 5 52 10 55 13 8 13 102 0 110 -5 3 -10 26 -10 50 0 24 -4 47 -10 50 -5 3 -10 30 -10 60 0 30 -4 57 -10 60 -5 3 -10 30 -10 60 0 30 -4 57 -10 60 -18 11 -11 81 10 100 l20 18 0 298 c0 188 -4 300 -10 304 -6 4 -10 70 -10 165 0 95 4 161 10 165 6 4 10 65 10 150 0 85 4 146 10 150 17 11 11 61 -10 80 -21 19 -28 89 -10 100 6 3 10 44 10 90 0 46 5 87 10 90 6 3 10 44 10 90 0 46 5 87 10 90 6 3 10 39 10 79 0 39 4 76 9 81 5 6 12 51 15 100 3 50 8 110 12 133 4 27 2 48 -5 55 -14 14 -15 124 -1 132 6 4 10 55 10 120 0 65 4 116 10 120 6 3 10 52 10 110 0 58 4 107 10 110 6 3 10 52 10 110 0 58 4 107 10 110 6 3 10 52 10 110 0 58 4 107 10 110 6 3 10 52 10 110 0 58 4 107 10 110 6 3 10 52 10 110 0 58 4 107 10 110 6 3 10 52 10 110 0 58 4 107 10 110 6 3 10 52 10 110 0 58 4 107 10 110 6 3 10 51 10 109 0 56 4 106 9 111 14 14 21 227 27 804 3 334 1 498 -6 505 -6 6 -10 91 -10 228 0 189 2 219 16 225 8 3 25 0 37 -6 16 -8 392 -11 1475 -9 l1454 3 19 24 19 23 0 938 c0 840 -2 940 -16 954 -13 14 -53 16 -284 16 -168 0 -271 4 -275 10 -4 6 -215 10 -600 10 -385 0 -596 4 -600 10 -4 6 -118 10 -309 10 -166 0 -306 4 -312 9 -23 22 -2215 43 -2229 21z m2770 -110 c1251 -26 1553 -37 1695 -57 l55 -8 0 -875 0 -875 -1476 -5 c-1231 -4 -1479 -7 -1492 -19 -16 -12 -17 -68 -17 -618 0 -567 -3 -701 -30 -1188 -16 -291 -62 -883 -100 -1290 -5 -55 -14 -154 -20 -220 -6 -66 -15 -167 -20 -225 -5 -58 -14 -161 -20 -230 -6 -69 -15 -174 -20 -235 -17 -191 -43 -557 -62 -870 -17 -275 -17 -1351 0 -1550 46 -536 121 -867 263 -1157 169 -343 423 -553 739 -612 103 -20 326 -36 485 -36 373 1 602 65 781 217 100 86 180 218 289 478 100 237 147 325 209 383 62 59 115 77 194 68 100 -12 145 -51 173 -153 45 -162 1 -432 -138 -843 -243 -719 -541 -1132 -1073 -1489 -120 -80 -422 -228 -560 -274 -308 -103 -677 -148 -954 -117 -121 14 -222 29 -273 40 -104 24 -140 32 -163 40 -14 4 -45 13 -70 20 -51 14 -185 63 -247 91 -24 11 -45 19 -48 19 -11 0 -183 86 -215 108 -19 13 -53 32 -76 42 -22 11 -47 26 -54 35 -7 8 -16 15 -21 15 -4 0 -29 15 -54 33 -26 17 -54 37 -64 42 -98 59 -451 380 -451 411 0 6 -7 18 -16 25 -57 47 -221 342 -290 519 -36 94 -101 301 -113 365 -5 22 -16 74 -24 115 -14 68 -28 148 -41 240 -18 123 -37 339 -47 554 -16 346 7 878 62 1441 39 409 52 526 79 755 5 41 14 122 20 180 6 58 15 139 20 180 23 189 63 550 79 715 15 148 44 485 61 705 19 253 44 636 60 915 30 532 49 843 60 1015 5 80 14 217 20 305 13 208 29 415 40 540 24 257 32 344 40 400 13 99 5 105 -171 128 -308 41 -336 42 -1469 39 -1214 -3 -1130 2 -1130 -68 0 -18 -4 -66 -9 -106 -6 -40 -15 -120 -21 -178 -6 -58 -15 -141 -20 -185 -5 -44 -14 -125 -19 -180 -15 -146 -31 -298 -41 -395 -5 -47 -14 -137 -20 -200 -16 -165 -29 -302 -40 -405 -5 -49 -14 -142 -20 -205 -6 -63 -15 -160 -21 -215 -33 -341 -44 -461 -58 -620 -6 -60 -15 -162 -21 -225 -6 -63 -15 -163 -20 -222 -20 -215 -31 -335 -40 -433 -5 -55 -14 -154 -20 -220 -6 -66 -15 -165 -20 -220 -5 -55 -14 -154 -20 -220 -14 -165 -29 -330 -60 -670 -5 -60 -14 -162 -20 -225 -28 -307 -61 -686 -80 -935 -6 -77 -15 -183 -20 -235 -5 -52 -14 -149 -20 -215 -17 -191 -46 -479 -60 -595 -5 -41 -14 -115 -20 -165 -19 -149 -55 -387 -80 -520 -55 -286 -75 -374 -145 -640 -38 -147 -149 -442 -223 -595 -184 -381 -474 -686 -802 -847 -155 -75 -282 -117 -470 -155 -87 -17 -393 -16 -485 1 -127 24 -313 85 -375 122 -8 5 -35 20 -60 33 -73 39 -202 139 -257 200 -196 214 -293 476 -293 790 0 214 31 343 133 561 126 269 303 528 748 1100 200 258 307 397 324 426 6 9 34 51 63 92 28 42 52 79 52 82 0 4 11 21 24 38 24 33 140 221 191 312 378 672 636 1355 833 2200 42 178 88 411 142 715 19 108 58 374 80 548 46 370 64 525 80 707 6 66 15 165 20 220 5 55 12 136 15 180 4 44 11 139 16 210 22 292 33 468 59 960 22 392 26 540 18 563 -10 29 -44 41 -143 53 -484 57 -844 46 -1205 -38 -76 -17 -267 -78 -292 -93 -10 -5 -23 -10 -29 -10 -16 0 -310 -148 -330 -165 -8 -8 -19 -15 -22 -15 -4 0 -26 -12 -50 -27 -23 -15 -49 -32 -58 -38 -70 -43 -175 -119 -357 -258 -55 -42 -121 -107 -148 -147 -13 -19 -40 -55 -59 -80 -19 -25 -38 -52 -42 -60 -18 -35 -271 -414 -317 -474 -124 -162 -212 -250 -331 -331 -77 -53 -244 -111 -296 -103 l-24 3 2 124 c4 338 108 763 310 1271 264 662 488 984 893 1282 75 55 454 285 648 393 315 174 691 312 1000 366 28 5 78 14 110 19 207 37 494 63 897 80 663 29 1393 49 2245 60 787 10 3647 4 4275 -10z"/>
</g>
</g>
  <g id="id1:id1" transform="matrix(1.25,0,0,1.25,0.0,0.0)"><g transform="translate(0.000000,675.200000) scale(0.040000,-0.040000)" fill="#ffc90e" stroke="none">
<path d="M14657 15694 c-4 -4 -7 -18 -7 -30 0 -13 -4 -26 -10 -29 -5 -3 -10 -17 -10 -30 0 -13 -4 -27 -10 -30 -5 -3 -10 -17 -10 -30 0 -13 -4 -27 -10 -30 -5 -3 -10 -17 -10 -30 0 -13 -4 -27 -10 -30 -5 -3 -10 -17 -10 -30 0 -13 -4 -27 -10 -30 -5 -3 -10 -17 -10 -30 0 -13 -4 -27 -10 -30 -5 -3 -10 -15 -10 -25 0 -11 -9 -35 -20 -55 -11 -20 -20 -44 -20 -55 0 -10 -4 -22 -10 -25 -5 -3 -10 -17 -10 -30 0 -13 -4 -27 -10 -30 -5 -3 -10 -17 -10 -30 0 -13 -4 -27 -10 -30 -5 -3 -10 -17 -10 -30 0 -13 -4 -27 -10 -30 -5 -3 -10 -17 -10 -30 0 -13 -4 -27 -10 -30 -5 -3 -10 -17 -10 -30 0 -13 -4 -27 -10 -30 -5 -3 -10 -17 -10 -30 0 -13 -4 -27 -10 -30 -5 -3 -10 -17 -10 -30 0 -13 -4 -27 -10 -30 -5 -3 -10 -17 -10 -30 0 -13 -4 -27 -10 -30 -5 -3 -10 -17 -10 -30 0 -13 -4 -27 -10 -30 -5 -3 -10 -15 -10 -25 0 -11 -9 -35 -20 -55 -11 -20 -20 -42 -20 -49 0 -7 -7 -27 -16 -44 l-15 -32 -174 0 c-105 0 -176 -4 -180 -10 -4 -6 -135 -10 -360 -10 -225 0 -356 -4 -360 -10 -4 -6 -58 -10 -130 -10 -77 0 -126 -4 -130 -11 -8 -12 22 -49 40 -49 6 0 24 -13 40 -30 16 -16 34 -30 40 -30 7 0 20 -9 30 -20 10 -11 23 -20 30 -20 6 0 24 -13 40 -30 16 -16 34 -30 40 -30 6 0 24 -13 40 -30 16 -16 34 -30 40 -30 7 0 20 -9 30 -20 10 -11 23 -20 30 -20 6 0 24 -13 40 -30 16 -16 34 -30 40 -30 7 0 20 -9 30 -20 10 -11 23 -20 30 -20 6 0 24 -13 40 -30 16 -16 34 -30 40 -30 7 0 20 -9 30 -20 10 -11 23 -20 30 -20 6 0 24 -13 40 -30 16 -16 34 -30 40 -30 7 0 20 -9 30 -20 10 -11 23 -20 30 -20 6 0 24 -13 40 -30 16 -16 34 -30 40 -30 6 0 24 -13 40 -30 16 -16 33 -30 39 -30 5 0 23 -12 38 -27 28 -27 36 -57 18 -68 -5 -3 -10 -21 -10 -40 0 -19 -4 -37 -10 -40 -5 -3 -10 -17 -10 -30 0 -13 -4 -27 -10 -30 -5 -3 -10 -17 -10 -30 0 -13 -4 -27 -10 -30 -5 -3 -10 -17 -10 -30 0 -13 -4 -27 -10 -30 -5 -3 -10 -17 -10 -30 0 -13 -4 -27 -10 -30 -5 -3 -10 -21 -10 -40 0 -19 -4 -37 -10 -40 -5 -3 -10 -17 -10 -30 0 -13 -4 -27 -10 -30 -5 -3 -10 -17 -10 -30 0 -13 -4 -27 -10 -30 -5 -3 -10 -17 -10 -30 0 -13 -4 -27 -10 -30 -5 -3 -10 -17 -10 -30 0 -13 -4 -27 -10 -30 -5 -3 -10 -17 -10 -30 0 -13 -4 -27 -10 -30 -5 -3 -10 -21 -10 -40 0 -19 -4 -37 -10 -40 -5 -3 -10 -17 -10 -30 0 -13 -4 -27 -10 -30 -5 -3 -10 -17 -10 -30 0 -13 -4 -27 -10 -30 -5 -3 -10 -17 -10 -30 0 -13 -4 -27 -10 -30 -5 -3 -10 -17 -10 -30 0 -13 -4 -27 -10 -30 -5 -3 -10 -21 -10 -40 0 -19 -4 -37 -10 -40 -5 -3 -10 -15 -10 -26 0 -10 -5 -28 -12 -38 -6 -10 -8 -26 -5 -35 8 -21 41 -14 73 15 11 11 25 19 31 19 5 0 18 9 28 20 10 11 23 20 30 20 7 0 20 9 30 20 10 11 23 20 30 20 7 0 20 9 30 20 10 11 24 20 30 20 7 0 18 7 25 15 7 9 32 25 55 35 23 10 48 26 55 35 7 8 18 15 25 15 6 0 20 9 30 20 10 11 23 20 30 20 7 0 20 9 30 20 10 11 23 20 30 20 7 0 20 9 30 20 10 11 23 20 30 20 7 0 20 9 30 20 10 11 23 20 30 20 7 0 20 9 30 20 10 11 23 20 30 20 7 0 20 9 30 20 10 11 23 20 30 20 7 0 20 9 30 20 10 11 23 20 30 20 7 0 20 9 30 20 10 11 23 20 30 20 7 0 20 9 30 20 10 11 23 20 30 20 7 0 20 9 30 20 10 11 23 20 30 20 7 0 20 9 30 20 10 11 30 20 45 20 15 0 35 -9 45 -20 10 -11 23 -20 30 -20 7 0 20 -9 30 -20 10 -11 23 -20 30 -20 7 0 20 -9 30 -20 10 -11 23 -20 30 -20 7 0 20 -9 30 -20 10 -11 23 -20 30 -20 7 0 20 -9 30 -20 10 -11 23 -20 30 -20 7 0 20 -9 30 -20 10 -11 23 -20 30 -20 7 0 20 -9 30 -20 10 -11 23 -20 30 -20 7 0 20 -9 30 -20 10 -11 23 -20 30 -20 7 0 20 -9 30 -20 10 -11 24 -20 30 -20 7 0 18 -7 25 -15 7 -9 32 -25 55 -35 23 -10 48 -26 55 -35 7 -8 18 -15 25 -15 6 0 20 -9 30 -20 10 -11 23 -20 30 -20 7 0 20 -9 30 -20 10 -11 23 -20 30 -20 7 0 20 -9 30 -20 10 -11 23 -20 30 -20 7 0 20 -9 30 -20 10 -11 23 -20 30 -20 7 0 20 -9 30 -20 10 -11 23 -20 28 -20 6 0 20 -8 31 -19 32 -29 65 -36 73 -15 3 9 1 25 -5 35 -7 10 -12 32 -12 48 0 17 -4 33 -10 36 -5 3 -10 17 -10 30 0 13 -4 27 -10 30 -5 3 -10 17 -10 30 0 13 -4 27 -10 30 -5 3 -10 17 -10 30 0 13 -4 27 -10 30 -5 3 -10 17 -10 30 0 13 -4 27 -10 30 -5 3 -10 21 -10 40 0 19 -4 37 -10 40 -5 3 -10 17 -10 30 0 13 -4 27 -10 30 -5 3 -10 17 -10 30 0 13 -4 27 -10 30 -5 3 -10 17 -10 30 0 13 -4 27 -10 30 -5 3 -10 17 -10 30 0 13 -4 27 -10 30 -5 3 -10 17 -10 30 0 13 -4 27 -10 30 -5 3 -10 21 -10 40 0 19 -4 37 -10 40 -5 3 -10 17 -10 30 0 13 -4 27 -10 30 -5 3 -10 17 -10 30 0 13 -4 27 -10 30 -5 3 -10 17 -10 30 0 13 -4 27 -10 30 -5 3 -10 17 -10 30 0 13 -4 27 -10 30 -5 3 -10 21 -10 40 0 19 -4 37 -10 40 -5 3 -10 17 -10 30 0 13 -4 27 -10 30 -18 11 -10 41 18 68 15 15 33 27 38 27 6 0 23 14 39 30 16 17 34 30 40 30 6 0 24 14 40 30 16 17 34 30 40 30 7 0 20 9 30 20 10 11 23 20 30 20 6 0 24 14 40 30 16 17 34 30 40 30 7 0 20 9 30 20 10 11 23 20 30 20 6 0 24 14 40 30 16 17 34 30 40 30 7 0 20 9 30 20 10 11 23 20 30 20 6 0 24 14 40 30 16 17 34 30 40 30 7 0 20 9 30 20 10 11 23 20 30 20 6 0 24 14 40 30 16 17 34 30 40 30 6 0 24 14 40 30 16 17 34 30 40 30 7 0 20 9 30 20 10 11 23 20 30 20 6 0 24 14 40 30 16 17 34 30 40 30 18 0 48 37 40 49 -4 7 -53 11 -130 11 -72 0 -126 4 -130 10 -4 6 -135 10 -360 10 -225 0 -356 4 -360 10 -4 6 -75 10 -180 10 l-174 0 -15 32 c-9 17 -16 39 -16 49 0 10 -4 21 -10 24 -5 3 -10 17 -10 30 0 13 -4 27 -10 30 -5 3 -10 15 -10 25 0 11 -9 35 -20 55 -11 20 -20 44 -20 55 0 10 -4 22 -10 25 -5 3 -10 17 -10 30 0 13 -4 27 -10 30 -5 3 -10 17 -10 30 0 13 -4 27 -10 30 -5 3 -10 17 -10 30 0 13 -4 27 -10 30 -5 3 -10 17 -10 30 0 13 -4 27 -10 30 -5 3 -10 17 -10 30 0 13 -4 27 -10 30 -5 3 -10 17 -10 30 0 13 -4 27 -10 30 -5 3 -10 17 -10 30 0 13 -4 27 -10 30 -5 3 -10 17 -10 30 0 13 -4 27 -10 30 -5 3 -10 17 -10 30 0 13 -4 27 -10 30 -5 3 -10 15 -10 25 0 11 -9 35 -20 55 -11 20 -20 44 -20 55 0 10 -4 22 -10 25 -5 3 -10 17 -10 30 0 13 -4 27 -10 30 -5 3 -10 17 -10 30 0 13 -4 27 -10 30 -5 3 -10 16 -10 29 0 12 -4 26 -9 32 -5 5 -11 20 -13 33 -3 25 -19 37 -31 25z"/>
<path d="M7975 12820 c-4 -7 -328 -10 -940 -10 -612 0 -936 -3 -940 -10 -4 -6 -155 -10 -420 -10 -265 0 -416 -4 -420 -10 -4 -6 -108 -10 -280 -10 -172 0 -276 -4 -280 -10 -4 -6 -88 -10 -220 -10 -132 0 -216 -4 -220 -10 -4 -6 -62 -10 -140 -10 -78 0 -136 -4 -140 -10 -3 -6 -48 -10 -100 -10 -52 0 -97 -4 -100 -10 -3 -5 -35 -10 -70 -10 -35 0 -67 -4 -70 -10 -3 -5 -30 -10 -60 -10 -30 0 -57 -4 -60 -10 -3 -5 -30 -10 -60 -10 -30 0 -57 -4 -60 -10 -3 -5 -21 -10 -40 -10 -19 0 -37 -4 -40 -10 -3 -5 -26 -10 -50 -10 -24 0 -47 -4 -50 -10 -3 -5 -17 -10 -30 -10 -13 0 -27 -4 -30 -10 -3 -5 -17 -10 -30 -10 -13 0 -27 -4 -30 -10 -3 -5 -17 -10 -30 -10 -13 0 -27 -4 -30 -10 -3 -5 -15 -10 -26 -10 -10 0 -29 -5 -42 -12 -46 -24 -57 -28 -71 -28 -12 0 -44 -14 -118 -51 -10 -5 -25 -9 -34 -9 -9 0 -28 -8 -42 -18 -15 -10 -71 -40 -124 -66 -53 -26 -102 -54 -108 -62 -7 -8 -19 -14 -26 -14 -17 0 -83 -37 -110 -61 -11 -10 -26 -19 -32 -19 -18 0 -55 -22 -70 -42 -7 -10 -19 -18 -27 -18 -15 0 -73 -30 -117 -61 -14 -11 -30 -19 -35 -19 -5 0 -24 -13 -43 -28 -19 -16 -51 -36 -71 -45 -19 -9 -44 -25 -54 -37 -10 -12 -34 -28 -52 -37 -19 -8 -38 -24 -44 -34 -5 -11 -18 -19 -29 -19 -11 0 -29 -13 -42 -30 -12 -16 -27 -30 -33 -30 -15 0 -315 -300 -315 -315 0 -6 -14 -24 -30 -40 -17 -16 -30 -34 -30 -39 -1 -6 -14 -27 -30 -46 -17 -19 -30 -42 -30 -51 0 -10 -13 -29 -30 -42 -16 -14 -30 -30 -30 -36 0 -6 -10 -27 -22 -48 -48 -86 -78 -146 -78 -159 0 -8 -9 -19 -20 -26 -11 -7 -20 -21 -20 -31 0 -9 -4 -25 -9 -35 -5 -9 -18 -38 -30 -64 -12 -27 -31 -69 -42 -95 -12 -27 -25 -57 -29 -68 -4 -11 -12 -32 -19 -47 -6 -16 -15 -39 -21 -53 -5 -14 -15 -37 -21 -52 -7 -16 -16 -39 -22 -53 -5 -14 -13 -33 -18 -42 -5 -10 -9 -27 -9 -37 0 -11 -5 -23 -10 -26 -6 -3 -10 -19 -10 -35 0 -16 -4 -32 -10 -35 -5 -3 -10 -16 -10 -28 0 -12 -9 -33 -20 -47 -11 -14 -20 -35 -20 -47 0 -12 -5 -25 -10 -28 -6 -3 -10 -21 -10 -40 0 -19 -4 -37 -10 -40 -5 -3 -10 -17 -10 -30 0 -13 -4 -27 -10 -30 -5 -3 -10 -21 -10 -40 0 -19 -4 -37 -10 -40 -5 -3 -10 -21 -10 -40 0 -19 -4 -37 -10 -40 -5 -3 -10 -26 -10 -50 0 -24 -4 -47 -10 -50 -5 -3 -10 -30 -10 -60 0 -30 -5 -57 -10 -60 -6 -3 -10 -30 -10 -60 0 -30 -5 -57 -10 -60 -6 -3 -10 -52 -10 -110 0 -58 -4 -107 -10 -110 -20 -12 -11 -76 12 -96 25 -20 63 -25 73 -9 3 6 25 10 48 10 31 0 45 5 55 20 7 11 22 20 35 20 33 1 98 38 187 109 73 58 180 168 180 186 0 4 18 26 41 48 22 22 57 66 77 96 20 31 60 88 89 127 29 40 53 75 53 79 0 3 14 26 30 50 17 24 30 46 30 50 0 3 18 30 40 59 22 29 40 56 40 60 0 4 27 43 60 86 33 43 60 83 60 88 0 11 53 62 65 62 5 0 18 9 29 19 12 11 35 30 53 43 17 13 74 55 125 93 94 71 165 122 196 140 9 5 32 21 51 34 42 30 122 71 139 71 6 0 12 4 12 10 0 5 33 26 73 45 39 19 86 42 102 51 52 29 64 34 84 34 11 0 23 5 26 10 3 6 17 10 30 10 13 0 27 5 30 10 3 6 17 10 30 10 13 0 27 5 30 10 3 6 16 10 29 10 12 0 26 3 30 7 12 12 80 33 108 33 15 0 30 5 33 10 3 6 26 10 50 10 24 0 47 5 50 10 3 6 30 10 60 10 30 0 57 5 60 10 3 6 48 10 100 10 52 0 97 4 100 10 4 6 93 10 235 10 142 0 231 -4 235 -10 4 -6 55 -10 120 -10 65 0 116 -4 120 -10 3 -5 39 -10 78 -10 50 0 80 -5 95 -16 l22 -15 0 -194 c0 -118 -4 -196 -10 -200 -6 -4 -10 -78 -10 -190 0 -112 -4 -186 -10 -190 -6 -4 -10 -75 -10 -180 0 -105 -4 -176 -10 -180 -6 -4 -10 -62 -10 -140 0 -78 -4 -136 -10 -140 -6 -4 -10 -62 -10 -140 0 -78 -4 -136 -10 -140 -6 -4 -10 -55 -10 -120 0 -65 -4 -116 -10 -120 -6 -3 -10 -52 -10 -110 0 -58 -4 -107 -10 -110 -6 -3 -10 -48 -10 -100 0 -52 -4 -97 -10 -100 -5 -3 -10 -44 -10 -90 0 -46 -4 -87 -10 -90 -5 -3 -10 -44 -10 -90 0 -46 -4 -87 -10 -90 -5 -3 -10 -39 -10 -80 0 -41 -4 -77 -10 -80 -6 -3 -10 -35 -10 -70 0 -35 -4 -67 -10 -70 -5 -3 -10 -39 -10 -80 0 -41 -4 -77 -10 -80 -5 -3 -10 -26 -10 -50 0 -24 -5 -47 -10 -50 -5 -3 -10 -30 -10 -60 0 -30 -4 -57 -10 -60 -5 -3 -10 -30 -10 -60 0 -30 -4 -57 -10 -60 -5 -3 -10 -30 -10 -60 0 -30 -4 -57 -10 -60 -5 -3 -10 -26 -10 -50 0 -24 -5 -47 -10 -50 -6 -3 -10 -26 -10 -50 0 -24 -5 -47 -10 -50 -6 -3 -10 -26 -10 -50 0 -24 -5 -47 -10 -50 -6 -3 -10 -26 -10 -50 0 -24 -5 -47 -10 -50 -5 -3 -10 -21 -10 -40 0 -19 -4 -37 -10 -40 -6 -3 -10 -26 -10 -50 0 -24 -5 -47 -10 -50 -5 -3 -10 -21 -10 -40 0 -19 -4 -37 -10 -40 -6 -3 -10 -17 -10 -30 0 -13 -4 -27 -10 -30 -5 -3 -10 -21 -10 -40 0 -19 -4 -37 -10 -40 -6 -3 -10 -24 -10 -45 0 -21 -5 -42 -10 -45 -5 -3 -10 -19 -10 -35 0 -16 -4 -32 -10 -35 -5 -3 -10 -19 -10 -35 0 -16 -5 -32 -10 -35 -5 -3 -10 -19 -10 -35 0 -16 -4 -32 -10 -35 -5 -3 -10 -17 -10 -30 0 -13 -5 -27 -10 -30 -5 -3 -10 -17 -10 -30 0 -13 -5 -27 -10 -30 -6 -3 -10 -17 -10 -30 0 -13 -4 -27 -10 -30 -6 -3 -10 -19 -10 -35 0 -16 -5 -32 -10 -35 -6 -3 -10 -17 -10 -30 0 -13 -4 -27 -10 -30 -5 -3 -10 -17 -10 -30 0 -13 -4 -27 -10 -30 -5 -3 -10 -16 -10 -28 0 -12 -9 -33 -20 -47 -11 -14 -20 -35 -20 -48 0 -12 -4 -31 -10 -42 -5 -11 -14 -29 -20 -40 -5 -11 -10 -27 -10 -35 0 -8 -4 -23 -9 -33 -5 -9 -13 -28 -19 -42 -5 -14 -20 -47 -32 -75 -12 -27 -26 -60 -31 -72 -5 -13 -13 -33 -18 -45 -5 -13 -23 -54 -41 -93 -18 -38 -41 -90 -52 -115 -11 -25 -30 -63 -41 -85 -11 -22 -33 -66 -49 -98 -16 -31 -33 -57 -38 -57 -6 0 -10 -9 -10 -19 0 -18 -27 -74 -78 -163 -40 -70 -62 -108 -83 -145 -11 -21 -25 -42 -30 -47 -5 -6 -9 -17 -9 -25 -1 -9 -14 -32 -30 -51 -17 -19 -30 -40 -30 -48 0 -8 -18 -34 -40 -59 -22 -25 -40 -50 -40 -55 0 -13 -79 -128 -88 -128 -8 0 -32 -49 -32 -65 0 -6 -13 -24 -30 -40 -16 -16 -30 -34 -30 -40 0 -6 -13 -24 -30 -40 -16 -16 -30 -34 -30 -40 0 -6 -13 -24 -30 -40 -16 -16 -30 -34 -30 -40 0 -6 -13 -21 -30 -33 -16 -13 -30 -31 -30 -40 0 -10 -22 -40 -50 -67 -27 -27 -50 -54 -50 -60 0 -6 -13 -24 -30 -40 -16 -16 -30 -34 -30 -40 0 -6 -12 -22 -26 -36 -31 -29 -114 -136 -114 -147 0 -5 -13 -21 -30 -37 -17 -16 -30 -34 -30 -41 0 -6 -7 -17 -16 -24 -21 -18 -104 -128 -104 -139 0 -4 -9 -16 -20 -26 -11 -10 -20 -23 -20 -30 0 -6 -13 -24 -30 -40 -16 -16 -30 -33 -30 -37 0 -5 -22 -42 -50 -83 -27 -41 -50 -79 -50 -84 0 -6 -9 -16 -20 -23 -11 -7 -20 -18 -20 -24 0 -7 -13 -37 -30 -68 -16 -31 -43 -81 -60 -112 -16 -31 -30 -67 -30 -80 0 -13 -9 -29 -20 -36 -11 -7 -20 -23 -20 -36 0 -21 -3 -31 -28 -79 -7 -13 -12 -36 -12 -52 0 -17 -5 -33 -10 -36 -6 -3 -10 -26 -10 -50 0 -24 -4 -47 -10 -50 -6 -4 -10 -73 -10 -175 0 -102 4 -171 10 -175 6 -3 10 -30 10 -60 0 -30 5 -57 10 -60 6 -3 10 -17 10 -30 0 -13 5 -27 10 -30 6 -3 10 -15 10 -26 0 -10 5 -28 10 -39 6 -11 15 -29 20 -40 6 -11 10 -25 10 -31 0 -6 14 -31 30 -56 17 -24 30 -46 30 -49 0 -13 87 -128 139 -186 62 -68 227 -198 252 -198 8 -1 30 -14 49 -30 19 -17 40 -30 47 -30 7 0 22 -4 33 -10 11 -5 29 -14 40 -20 11 -5 26 -10 35 -10 8 0 30 -9 50 -20 20 -11 49 -20 65 -20 16 0 32 -5 35 -10 3 -6 26 -10 50 -10 24 0 47 -4 50 -10 8 -14 462 -14 470 0 3 6 26 10 50 10 24 0 47 5 50 10 3 6 21 10 40 10 19 0 37 5 40 10 3 6 17 10 30 10 13 0 27 5 30 10 3 6 13 10 21 10 8 0 34 9 56 20 23 11 46 20 52 20 22 0 219 106 244 132 15 15 33 28 41 28 19 0 108 69 127 97 8 13 20 23 28 23 37 0 336 347 336 392 0 7 11 23 24 36 14 12 41 55 62 94 20 40 44 86 53 103 10 16 23 46 31 65 7 19 22 47 32 62 10 14 18 35 18 46 0 12 4 24 10 27 5 3 10 17 10 30 0 13 5 27 10 30 6 3 10 17 10 30 0 13 4 27 10 30 6 3 10 15 10 25 0 11 9 35 20 55 11 20 20 44 20 55 0 10 5 22 10 25 6 3 10 17 10 30 0 13 5 27 10 30 6 3 10 21 10 40 0 19 4 37 10 40 6 3 10 21 10 40 0 19 4 37 10 40 6 3 10 21 10 40 0 19 5 37 10 40 6 3 10 21 10 40 0 19 5 37 10 40 6 3 10 21 10 40 0 19 5 37 10 40 6 3 10 21 10 40 0 19 5 37 10 40 6 3 10 30 10 60 0 30 5 57 10 60 6 3 10 26 10 50 0 24 5 47 10 50 6 3 10 30 10 60 0 30 5 57 10 60 6 3 10 30 10 60 0 30 5 57 10 60 6 3 10 35 10 70 0 35 4 67 10 70 6 3 10 39 10 80 0 41 4 77 10 80 6 3 10 39 10 80 0 41 4 77 10 80 6 3 10 44 10 90 0 46 4 87 10 90 6 3 10 48 10 100 0 52 4 97 10 100 6 3 10 48 10 100 0 52 4 97 10 100 6 3 10 52 10 110 0 58 4 107 10 110 6 4 10 55 10 120 0 65 4 116 10 120 6 3 10 52 10 110 0 58 4 107 10 110 6 4 10 55 10 120 0 65 4 116 10 120 6 4 10 55 10 120 0 65 4 116 10 120 6 3 10 52 10 110 0 58 4 107 10 110 6 3 10 52 10 110 0 58 4 107 10 110 6 3 10 52 10 110 0 58 4 107 10 110 6 4 10 55 10 120 0 65 4 116 10 120 6 3 10 52 10 110 0 58 4 107 10 110 6 3 10 52 10 110 0 58 4 107 10 110 6 3 10 52 10 110 0 58 4 107 10 110 6 3 10 52 10 110 0 58 4 107 10 110 6 3 10 52 10 110 0 58 4 107 10 110 6 3 10 52 10 110 0 58 4 107 10 110 6 3 10 52 10 110 0 58 4 107 10 110 6 3 10 52 10 110 0 58 4 107 10 110 6 3 10 52 10 110 0 58 4 107 10 110 6 3 10 48 10 100 0 52 4 97 10 100 6 3 10 52 10 110 0 58 4 107 10 110 6 3 10 48 10 100 0 52 4 97 10 100 6 3 10 48 10 100 0 52 4 97 10 100 6 3 10 48 10 100 0 52 4 97 10 100 6 3 10 52 10 110 0 58 4 107 10 110 6 3 10 39 10 80 0 41 5 77 10 80 6 3 10 48 10 100 0 52 4 97 10 100 6 3 10 48 10 100 0 52 4 97 10 100 6 3 10 48 10 100 0 52 4 97 10 100 6 3 10 44 10 90 0 46 5 87 10 90 6 3 10 48 10 99 0 50 4 96 9 102 6 5 11 36 13 69 l3 60 640 3 c406 1 643 6 649 12 14 14 663 14 671 0 4 -6 78 -10 190 -10 112 0 186 -4 190 -10 3 -6 52 -10 110 -10 58 0 107 -4 110 -10 3 -5 34 -10 68 -11 84 -1 121 -22 125 -74 2 -21 -1 -42 -7 -48 -6 -6 -11 -51 -11 -103 0 -51 -4 -96 -10 -99 -6 -3 -10 -52 -10 -110 0 -58 -4 -107 -10 -110 -6 -4 -10 -55 -10 -120 0 -65 -4 -116 -10 -120 -6 -4 -10 -58 -10 -130 0 -72 -4 -126 -10 -130 -6 -4 -10 -65 -10 -150 0 -85 -4 -146 -10 -150 -6 -4 -10 -68 -10 -160 0 -92 -4 -156 -10 -160 -6 -4 -10 -72 -10 -170 0 -98 -4 -166 -10 -170 -6 -4 -10 -75 -10 -180 0 -105 -4 -176 -10 -180 -6 -4 -10 -72 -10 -170 0 -98 -4 -166 -10 -170 -6 -4 -10 -65 -10 -150 0 -85 -4 -146 -10 -150 -6 -4 -10 -62 -10 -140 0 -78 -4 -136 -10 -140 -6 -4 -10 -58 -10 -130 0 -72 -4 -126 -10 -130 -6 -4 -10 -55 -10 -120 0 -65 -4 -116 -10 -120 -6 -3 -10 -52 -10 -110 0 -58 -4 -107 -10 -110 -5 -3 -10 -44 -10 -90 0 -46 -4 -87 -10 -90 -5 -3 -10 -44 -10 -90 0 -46 -4 -87 -10 -90 -5 -3 -10 -44 -10 -90 0 -46 -4 -87 -10 -90 -5 -3 -10 -44 -10 -90 0 -46 -4 -87 -10 -90 -5 -3 -10 -44 -10 -90 0 -46 -4 -87 -10 -90 -5 -3 -10 -44 -10 -90 0 -46 -4 -87 -10 -90 -5 -3 -10 -44 -10 -90 0 -46 -4 -87 -10 -90 -5 -3 -10 -44 -10 -90 0 -46 -4 -87 -10 -90 -6 -3 -10 -48 -10 -100 0 -52 -4 -97 -10 -100 -6 -3 -10 -48 -10 -100 0 -52 -4 -97 -10 -100 -6 -3 -10 -52 -10 -110 0 -58 -4 -107 -10 -110 -6 -4 -10 -62 -10 -140 0 -78 -4 -136 -10 -140 -6 -4 -10 -78 -10 -190 0 -112 -4 -186 -10 -190 -6 -4 -10 -110 -10 -285 0 -175 4 -281 10 -285 6 -4 10 -65 10 -150 0 -85 4 -146 10 -150 6 -3 10 -39 10 -80 0 -41 5 -77 10 -80 6 -3 10 -35 10 -70 0 -35 5 -67 10 -70 6 -3 10 -30 10 -60 0 -30 5 -57 10 -60 6 -3 10 -26 10 -50 0 -24 5 -47 10 -50 6 -3 10 -21 10 -40 0 -19 5 -37 10 -40 6 -3 10 -21 10 -40 0 -19 5 -37 10 -40 6 -3 10 -21 10 -40 0 -19 5 -37 10 -40 6 -3 10 -17 10 -30 0 -13 5 -27 10 -30 6 -3 10 -15 10 -25 0 -11 9 -35 20 -55 11 -20 20 -42 20 -50 0 -8 9 -30 20 -50 11 -20 20 -44 20 -53 0 -10 13 -33 30 -52 16 -19 29 -45 30 -57 0 -12 5 -25 10 -28 6 -3 10 -14 10 -25 0 -10 6 -20 13 -23 6 -3 21 -22 32 -43 10 -22 32 -55 47 -75 15 -20 28 -42 28 -48 0 -6 14 -20 30 -33 17 -12 30 -29 30 -37 1 -18 37 -61 66 -77 10 -6 24 -22 31 -35 13 -27 131 -140 210 -202 26 -21 62 -49 79 -62 49 -38 245 -168 279 -185 17 -8 48 -26 70 -40 22 -14 65 -37 95 -50 30 -13 67 -32 82 -42 14 -10 33 -18 41 -18 9 0 42 -13 74 -30 31 -16 65 -30 75 -30 9 0 20 -5 23 -10 3 -6 17 -10 30 -10 13 0 27 -5 30 -10 3 -5 17 -10 30 -10 13 0 27 -4 30 -10 3 -5 21 -10 40 -10 19 0 37 -4 40 -10 3 -5 21 -10 40 -10 19 0 37 -4 40 -10 3 -5 21 -10 40 -10 19 0 37 -4 40 -10 3 -5 26 -10 50 -10 24 0 47 -5 50 -10 3 -6 44 -10 90 -10 46 0 87 -4 90 -10 8 -13 342 -13 350 0 3 6 44 10 90 10 46 0 87 5 90 10 3 6 26 10 50 10 24 0 47 5 50 10 3 6 26 10 50 10 24 0 47 5 50 10 3 6 21 10 40 10 19 0 37 5 40 10 3 6 17 10 30 10 13 0 27 5 30 10 3 6 21 10 39 10 17 0 36 4 41 9 22 21 87 51 110 51 13 0 27 5 30 10 3 6 16 10 27 10 12 0 37 12 57 27 45 35 78 53 100 54 9 0 30 9 46 19 17 11 48 29 71 40 23 12 54 34 69 50 16 17 35 30 43 30 9 0 65 38 126 85 175 134 205 159 205 173 1 7 12 17 26 22 14 5 29 20 34 32 5 13 30 39 55 58 25 19 45 38 46 42 0 4 13 22 28 40 16 18 31 41 35 51 4 9 12 17 19 17 7 1 22 14 33 30 196 287 205 302 205 326 0 8 9 19 20 26 11 7 20 20 20 29 0 9 18 52 40 95 22 43 40 84 40 91 0 7 9 28 20 48 11 20 20 44 20 55 0 10 5 22 10 25 5 3 10 19 10 34 0 15 4 31 9 37 17 17 51 84 51 99 0 9 4 23 9 33 14 29 31 87 31 110 0 11 5 24 10 27 6 3 10 15 10 25 0 11 9 35 20 55 11 20 20 49 20 65 0 16 5 32 10 35 6 3 10 21 10 40 0 19 4 37 10 40 6 3 10 26 10 50 0 24 5 47 10 50 5 3 10 35 10 70 0 35 5 67 10 70 6 3 10 46 10 95 0 49 -4 92 -10 95 -5 3 -10 21 -10 40 0 19 -4 37 -10 40 -5 3 -10 16 -11 28 0 14 -18 35 -49 60 l-50 37 -84 0 c-47 0 -88 -4 -91 -10 -3 -5 -14 -10 -24 -10 -16 0 -121 -94 -121 -109 0 -3 -23 -53 -51 -111 -28 -58 -55 -114 -59 -125 -10 -26 -48 -110 -71 -158 -11 -22 -19 -49 -19 -62 0 -12 -7 -28 -15 -35 -8 -7 -27 -37 -42 -69 -15 -31 -39 -75 -55 -98 -15 -23 -28 -45 -28 -50 0 -12 -114 -123 -126 -123 -6 0 -21 -11 -34 -25 -27 -29 -75 -55 -101 -55 -10 0 -21 -4 -24 -10 -3 -5 -19 -10 -35 -10 -16 0 -32 -4 -35 -10 -3 -5 -17 -10 -30 -10 -13 0 -27 -4 -30 -10 -3 -5 -21 -10 -40 -10 -19 0 -37 -4 -40 -10 -3 -5 -30 -10 -60 -10 -30 0 -57 -5 -60 -10 -8 -14 -522 -14 -530 0 -3 6 -44 10 -90 10 -46 0 -87 5 -90 10 -3 5 -26 10 -50 10 -24 0 -47 5 -50 10 -3 6 -21 10 -40 10 -19 0 -37 5 -40 10 -3 6 -14 10 -25 10 -19 0 -114 47 -160 80 -15 11 -33 20 -40 20 -16 0 -230 210 -230 226 0 6 -7 17 -15 24 -17 14 -45 67 -45 85 0 7 -6 15 -14 18 -13 5 -29 35 -99 187 -16 36 -33 73 -38 82 -5 10 -9 27 -9 37 0 11 -4 23 -10 26 -5 3 -10 19 -10 35 0 16 -4 32 -10 35 -5 3 -10 21 -10 40 0 19 -4 36 -9 39 -5 3 -11 20 -14 38 -3 18 -11 53 -17 78 -7 25 -14 65 -17 90 -3 25 -9 49 -14 54 -5 6 -9 34 -9 62 0 29 -4 56 -10 59 -5 3 -10 39 -10 80 0 41 -4 77 -10 80 -6 3 -10 52 -10 110 0 58 -4 107 -10 110 -6 4 -10 102 -10 260 0 158 -4 256 -10 260 -6 4 -10 93 -10 235 0 142 4 231 10 235 6 4 10 112 10 290 0 178 4 286 10 290 6 4 10 72 10 170 0 98 4 166 10 170 6 4 10 62 10 140 0 78 4 136 10 140 6 4 10 58 10 130 0 72 4 126 10 130 6 4 10 55 10 120 0 65 4 116 10 120 6 3 10 52 10 110 0 58 4 107 10 110 6 4 10 55 10 120 0 65 4 116 10 120 6 3 10 52 10 110 0 58 4 107 10 110 6 3 10 52 10 110 0 58 4 107 10 110 6 4 10 55 10 120 0 65 4 116 10 120 6 4 10 58 10 130 0 72 4 126 10 130 6 4 10 58 10 130 0 72 4 126 10 130 6 4 10 68 10 160 0 92 4 156 10 160 6 4 10 81 10 199 0 114 4 196 10 202 6 6 11 260 12 699 l3 690 1495 5 1495 5 3 879 c2 697 0 881 -10 888 -7 4 -57 8 -110 8 -54 0 -100 4 -103 10 -4 6 -125 10 -330 10 -205 0 -326 4 -330 10 -4 6 -172 10 -470 10 -298 0 -466 4 -470 10 -4 7 -338 10 -970 10 -632 0 -966 3 -970 10 -4 6 -183 10 -505 10 -322 0 -501 -4 -505 -10z"/>
</g>
</g>
  <g id="id2:id2" transform="matrix(1.25,0,0,1.25,0.0,0.0)"><g transform="translate(0.000000,675.200000) scale(0.040000,-0.040000)" fill="#ffffff" stroke="none">
<path d="M0 8440 l0 -8440 9020 0 9020 0 0 8440 0 8440 -9020 0 -9020 0 0 -8440z m14694 7338 c9 -17 16 -39 16 -49 0 -10 5 -21 10 -24 6 -3 10 -15 10 -25 0 -11 9 -35 20 -55 11 -20 20 -44 20 -55 0 -10 5 -22 10 -25 6 -3 10 -17 10 -30 0 -13 5 -27 10 -30 6 -3 10 -17 10 -30 0 -13 5 -27 10 -30 6 -3 10 -17 10 -30 0 -13 5 -27 10 -30 6 -3 10 -17 10 -30 0 -13 5 -27 10 -30 6 -3 10 -17 10 -30 0 -13 5 -27 10 -30 6 -3 10 -17 10 -30 0 -13 5 -27 10 -30 6 -3 10 -17 10 -30 0 -13 5 -27 10 -30 6 -3 10 -17 10 -30 0 -13 5 -27 10 -30 6 -3 10 -15 10 -25 0 -11 9 -35 20 -55 11 -20 20 -44 20 -55 0 -10 5 -22 10 -25 6 -3 10 -17 10 -30 0 -13 5 -27 10 -30 6 -3 10 -17 10 -30 0 -13 5 -27 10 -30 6 -3 10 -17 10 -30 0 -13 5 -27 10 -30 6 -3 10 -17 10 -30 0 -13 5 -27 10 -30 6 -3 10 -17 10 -30 0 -13 5 -27 10 -30 6 -3 10 -17 10 -30 0 -13 5 -27 10 -30 6 -3 10 -16 10 -29 0 -43 14 -46 196 -46 105 0 175 -4 179 -10 4 -6 135 -10 360 -10 225 0 356 -4 360 -10 4 -6 75 -10 180 -10 115 0 176 -4 181 -11 7 -12 -63 -89 -81 -89 -7 0 -20 -9 -30 -20 -10 -11 -23 -20 -30 -20 -6 0 -24 -13 -40 -30 -16 -16 -34 -30 -40 -30 -7 0 -20 -9 -30 -20 -10 -11 -23 -20 -30 -20 -6 0 -24 -13 -40 -30 -16 -16 -34 -30 -40 -30 -7 0 -20 -9 -30 -20 -10 -11 -23 -20 -30 -20 -6 0 -24 -13 -40 -30 -16 -16 -34 -30 -40 -30 -6 0 -24 -13 -40 -30 -16 -16 -34 -30 -40 -30 -7 0 -20 -9 -30 -20 -10 -11 -23 -20 -30 -20 -6 0 -24 -13 -40 -30 -16 -16 -34 -30 -40 -30 -7 0 -20 -9 -30 -20 -10 -11 -23 -20 -30 -20 -6 0 -24 -13 -40 -30 -16 -16 -34 -30 -40 -30 -7 0 -20 -9 -30 -20 -10 -11 -23 -20 -30 -20 -6 0 -24 -13 -40 -30 -16 -16 -34 -30 -40 -30 -6 0 -24 -13 -40 -30 -16 -16 -34 -30 -40 -30 -24 0 -43 -34 -38 -68 3 -18 9 -35 14 -38 5 -3 9 -16 9 -29 0 -13 5 -27 10 -30 6 -3 10 -17 10 -30 0 -13 5 -27 10 -30 6 -3 10 -21 10 -40 0 -19 5 -37 10 -40 6 -3 10 -17 10 -30 0 -13 5 -27 10 -30 6 -3 10 -17 10 -30 0 -13 5 -27 10 -30 6 -3 10 -17 10 -30 0 -13 5 -27 10 -30 6 -3 10 -17 10 -30 0 -13 5 -27 10 -30 6 -3 10 -21 10 -40 0 -19 5 -37 10 -40 6 -3 10 -17 10 -30 0 -13 5 -27 10 -30 6 -3 10 -17 10 -30 0 -13 5 -27 10 -30 6 -3 10 -17 10 -30 0 -13 5 -27 10 -30 6 -3 10 -17 10 -30 0 -13 5 -27 10 -30 6 -3 10 -21 10 -40 0 -19 5 -37 10 -40 6 -3 10 -17 10 -30 0 -13 5 -27 10 -30 6 -3 10 -17 10 -30 0 -13 5 -27 10 -30 6 -3 10 -17 10 -30 0 -13 5 -27 10 -30 6 -3 10 -17 10 -30 0 -13 5 -27 10 -30 6 -3 10 -17 10 -30 0 -13 5 -27 10 -30 6 -3 10 -19 10 -36 0 -16 5 -38 12 -48 27 -43 -22 -70 -57 -31 -10 11 -23 20 -30 20 -7 0 -20 9 -30 20 -10 11 -23 20 -30 20 -7 0 -20 9 -30 20 -10 11 -23 20 -30 20 -7 0 -20 9 -30 20 -10 11 -23 20 -30 20 -7 0 -20 9 -30 20 -10 11 -23 20 -30 20 -7 0 -20 9 -30 20 -10 11 -23 20 -30 20 -7 0 -20 9 -30 20 -10 11 -23 20 -30 20 -7 0 -20 9 -30 20 -10 11 -23 20 -30 20 -7 0 -20 9 -30 20 -10 11 -23 20 -30 20 -7 0 -20 9 -30 20 -10 11 -23 20 -30 20 -7 0 -20 9 -30 20 -10 11 -24 20 -30 20 -7 0 -18 7 -25 15 -7 9 -32 25 -55 35 -23 10 -48 26 -55 35 -7 8 -18 15 -25 15 -6 0 -20 9 -30 20 -10 11 -23 20 -30 20 -7 0 -20 9 -30 20 -10 11 -23 20 -30 20 -7 0 -20 9 -30 20 -10 11 -23 20 -30 20 -7 0 -20 9 -30 20 -10 11 -23 20 -30 20 -7 0 -20 9 -30 20 -10 11 -23 20 -28 20 -6 0 -19 7 -29 17 -17 15 -19 15 -36 0 -10 -10 -23 -17 -29 -17 -5 0 -18 -9 -28 -20 -10 -11 -23 -20 -30 -20 -7 0 -20 -9 -30 -20 -10 -11 -23 -20 -30 -20 -7 0 -20 -9 -30 -20 -10 -11 -23 -20 -30 -20 -7 0 -20 -9 -30 -20 -10 -11 -23 -20 -30 -20 -7 0 -20 -9 -30 -20 -10 -11 -23 -20 -30 -20 -7 0 -20 -9 -30 -20 -10 -11 -23 -20 -30 -20 -7 0 -20 -9 -30 -20 -10 -11 -24 -20 -30 -20 -7 0 -18 -7 -25 -15 -7 -9 -32 -25 -55 -35 -23 -10 -48 -26 -55 -35 -7 -8 -18 -15 -25 -15 -6 0 -20 -9 -30 -20 -10 -11 -23 -20 -30 -20 -7 0 -20 -9 -30 -20 -10 -11 -23 -20 -30 -20 -7 0 -20 -9 -30 -20 -10 -11 -23 -20 -30 -20 -7 0 -20 -9 -30 -20 -10 -11 -23 -20 -30 -20 -7 0 -20 -9 -30 -20 -10 -11 -23 -20 -30 -20 -7 0 -20 -9 -30 -20 -10 -11 -23 -20 -30 -20 -7 0 -20 -9 -30 -20 -10 -11 -23 -20 -30 -20 -7 0 -20 -9 -30 -20 -10 -11 -23 -20 -30 -20 -7 0 -20 -9 -30 -20 -35 -39 -84 -12 -57 31 7 10 12 28 12 38 0 11 5 23 10 26 6 3 10 21 10 40 0 19 5 37 10 40 6 3 10 17 10 30 0 13 5 27 10 30 6 3 10 17 10 30 0 13 5 27 10 30 6 3 10 17 10 30 0 13 5 27 10 30 6 3 10 17 10 30 0 13 5 27 10 30 6 3 10 17 10 30 0 13 5 27 10 30 6 3 10 21 10 40 0 19 5 37 10 40 6 3 10 17 10 30 0 13 5 27 10 30 6 3 10 17 10 30 0 13 5 27 10 30 6 3 10 17 10 30 0 13 5 27 10 30 6 3 10 17 10 30 0 13 5 27 10 30 6 3 10 21 10 40 0 19 5 37 10 40 6 3 10 17 10 30 0 13 5 27 10 30 6 3 10 17 10 30 0 13 5 27 10 30 6 3 10 17 10 30 0 13 5 27 10 30 6 3 10 17 10 30 0 13 5 27 10 30 6 3 10 21 10 40 0 19 5 37 10 40 6 3 10 17 10 30 0 13 4 26 9 29 5 3 11 20 14 38 5 34 -14 68 -38 68 -6 0 -24 14 -40 30 -16 17 -34 30 -40 30 -6 0 -24 14 -40 30 -16 17 -34 30 -40 30 -7 0 -20 9 -30 20 -10 11 -23 20 -30 20 -6 0 -24 14 -40 30 -16 17 -34 30 -40 30 -7 0 -20 9 -30 20 -10 11 -23 20 -30 20 -6 0 -24 14 -40 30 -16 17 -34 30 -40 30 -7 0 -20 9 -30 20 -10 11 -23 20 -30 20 -6 0 -24 14 -40 30 -16 17 -34 30 -40 30 -6 0 -24 14 -40 30 -16 17 -34 30 -40 30 -7 0 -20 9 -30 20 -10 11 -23 20 -30 20 -6 0 -24 14 -40 30 -16 17 -34 30 -40 30 -7 0 -20 9 -30 20 -10 11 -23 20 -30 20 -6 0 -24 14 -40 30 -16 17 -34 30 -40 30 -7 0 -20 9 -30 20 -10 11 -23 20 -30 20 -18 0 -88 77 -81 89 5 7 66 11 181 11 105 0 176 4 180 10 4 6 135 10 360 10 225 0 356 4 360 10 4 6 74 10 179 10 182 0 196 3 196 46 0 13 5 26 10 29 6 3 10 17 10 30 0 13 5 27 10 30 6 3 10 17 10 30 0 13 5 27 10 30 6 3 10 17 10 30 0 13 5 27 10 30 6 3 10 17 10 30 0 13 5 27 10 30 6 3 10 15 10 25 0 11 9 35 20 55 11 20 20 44 20 55 0 10 5 22 10 25 6 3 10 17 10 30 0 13 5 27 10 30 6 3 10 17 10 30 0 13 5 27 10 30 6 3 10 17 10 30 0 13 5 27 10 30 6 3 10 17 10 30 0 13 5 27 10 30 6 3 10 17 10 30 0 13 5 27 10 30 6 3 10 17 10 30 0 13 5 27 10 30 6 3 10 17 10 30 0 13 5 27 10 30 6 3 10 17 10 30 0 13 5 27 10 30 6 3 10 15 10 25 0 11 9 35 20 55 11 20 20 44 20 55 0 10 5 22 10 25 6 3 10 17 10 30 0 13 5 27 10 30 6 3 10 17 10 30 0 13 5 27 10 30 6 3 10 14 10 24 0 23 29 81 40 81 5 0 16 -14 24 -32z m-4454 -2904 c107 -2 199 -9 204 -14 6 -6 133 -10 312 -10 255 0 303 -2 314 -15 16 -20 4 -24 -80 -27 -50 -2 -65 -6 -65 -18 0 -17 -17 -16 410 -12 302 3 337 20 48 24 -126 2 -197 7 -196 13 4 14 1051 19 1078 5 12 -6 130 -11 280 -12 l260 -3 3 -939 c2 -863 1 -941 -14 -958 l-17 -18 -1445 0 c-1084 0 -1454 3 -1478 12 -62 22 -64 14 -64 -233 0 -134 4 -220 10 -224 13 -8 14 -1007 1 -1020 -6 -6 -12 -75 -15 -155 -10 -262 -17 -365 -27 -375 -5 -5 -9 -55 -9 -111 0 -58 -4 -106 -10 -109 -6 -3 -10 -52 -10 -110 0 -58 -4 -107 -10 -110 -6 -3 -10 -52 -10 -110 0 -58 -4 -107 -10 -110 -6 -3 -10 -52 -10 -110 0 -58 -4 -107 -10 -110 -6 -3 -10 -52 -10 -110 0 -58 -4 -107 -10 -110 -6 -3 -10 -52 -10 -110 0 -58 -4 -107 -10 -110 -6 -3 -10 -52 -10 -110 0 -58 -4 -107 -10 -110 -6 -4 -10 -55 -10 -120 0 -65 -4 -116 -10 -120 -5 -3 -10 -28 -10 -55 0 -27 5 -52 10 -55 13 -8 13 -108 1 -120 -5 -6 -12 -48 -15 -95 -13 -199 -18 -246 -27 -255 -5 -5 -9 -46 -9 -91 0 -46 -4 -86 -10 -89 -5 -3 -10 -44 -10 -90 0 -46 -4 -87 -10 -90 -19 -12 -11 -81 11 -101 16 -14 19 -25 14 -49 -4 -16 -9 -93 -11 -170 -3 -77 -9 -149 -15 -160 -6 -13 -8 -75 -4 -170 3 -83 8 -288 11 -456 l5 -305 -21 -19 -21 -19 -6 22 c-13 50 -23 16 -25 -83 -1 -58 -2 -117 -2 -132 -1 -19 4 -28 14 -28 12 0 15 15 15 75 0 86 18 108 23 28 2 -29 7 -57 13 -62 5 -6 9 -33 9 -61 0 -28 4 -55 9 -61 8 -8 12 -29 27 -157 4 -34 1 -58 -11 -83 -19 -41 -35 -36 -35 12 0 51 -17 41 -23 -13 -6 -53 4 -73 26 -54 12 9 18 6 30 -13 19 -29 20 -133 2 -144 -7 -4 -14 -20 -17 -35 -5 -26 8 -42 35 -46 4 -1 7 -4 6 -8 -1 -5 -5 -7 -9 -6 -4 1 -10 -9 -13 -23 -3 -17 1 -28 14 -34 14 -8 16 -18 12 -45 -6 -36 9 -49 21 -19 5 13 9 14 21 4 8 -6 18 -9 24 -6 11 7 41 -48 41 -75 0 -9 9 -38 20 -64 23 -53 25 -86 8 -103 -9 -9 -5 -19 20 -45 18 -18 32 -38 32 -43 0 -6 9 -19 20 -29 11 -10 20 -30 20 -45 0 -38 28 -90 54 -100 22 -8 126 -131 126 -148 0 -10 52 -60 78 -76 10 -6 46 -29 78 -50 116 -77 130 -86 142 -86 7 0 20 -4 30 -9 9 -5 37 -14 62 -21 25 -7 55 -16 68 -21 13 -5 40 -9 60 -9 21 0 43 -5 48 -10 6 -6 125 -13 305 -16 162 -3 317 -8 345 -11 39 -4 59 0 87 16 22 12 56 21 81 21 29 0 63 10 101 30 31 17 65 30 74 30 10 0 26 9 36 20 10 11 23 20 29 20 21 0 192 185 213 230 45 97 105 216 123 245 10 17 19 37 19 46 1 10 15 43 31 74 16 31 30 65 30 75 0 11 5 22 10 25 6 3 10 15 10 26 0 51 107 195 185 249 l44 30 120 0 c129 0 142 -4 199 -55 72 -64 92 -133 92 -316 0 -158 -25 -315 -70 -434 -17 -47 -30 -93 -30 -109 0 -23 -45 -156 -76 -223 -13 -30 -24 -60 -24 -67 0 -7 -9 -25 -20 -39 -11 -14 -20 -34 -20 -45 0 -12 -4 -24 -10 -27 -5 -3 -10 -19 -10 -36 0 -30 -35 -115 -51 -125 -5 -3 -9 -14 -9 -25 0 -21 -52 -136 -80 -179 -9 -14 -32 -52 -49 -85 -18 -33 -40 -69 -50 -80 -9 -11 -23 -31 -29 -45 -19 -38 -107 -155 -194 -257 -78 -91 -244 -253 -260 -253 -4 0 -33 -25 -63 -55 -30 -30 -74 -63 -98 -74 -24 -11 -50 -27 -57 -37 -39 -47 -330 -214 -451 -259 -73 -28 -82 -31 -130 -54 -28 -13 -66 -21 -97 -21 -33 0 -64 -7 -87 -20 -20 -11 -44 -20 -55 -20 -10 0 -22 -4 -25 -10 -3 -5 -19 -10 -35 -10 -16 0 -32 -4 -35 -10 -3 -5 -25 -10 -49 -10 -23 0 -47 -5 -53 -11 -8 -8 -17 -8 -33 1 -14 7 -26 8 -33 2 -26 -21 -213 -40 -230 -23 -14 14 -164 15 -172 1 -8 -13 -168 -13 -180 -1 -6 5 -39 12 -75 14 -178 15 -305 46 -434 108 -32 16 -67 29 -77 29 -10 0 -21 5 -24 10 -3 6 -19 10 -36 10 -56 0 -112 25 -165 72 -28 27 -61 48 -72 48 -12 0 -24 5 -27 10 -3 5 -22 10 -41 10 -39 0 -61 11 -124 61 -25 20 -56 39 -70 42 -14 3 -54 26 -90 51 -36 25 -88 61 -116 80 -87 61 -204 166 -204 183 0 19 -78 103 -96 103 -19 0 -135 136 -170 200 -10 19 -33 51 -49 72 -28 33 -99 167 -140 263 -9 22 -23 53 -31 69 -8 16 -14 37 -14 47 0 10 -9 34 -20 54 -11 20 -20 42 -20 50 0 9 -4 23 -9 33 -5 9 -19 51 -31 92 -12 41 -26 83 -31 92 -5 10 -9 30 -9 46 0 15 -4 32 -9 38 -5 5 -12 32 -15 59 -10 94 -18 135 -27 141 -12 7 -12 67 0 80 5 5 11 26 13 47 4 47 22 53 26 10 5 -48 18 -40 26 14 7 52 -4 74 -29 53 -20 -17 -45 3 -45 36 0 12 -4 26 -10 29 -5 3 -10 35 -10 70 0 35 -4 67 -10 70 -5 3 -10 28 -10 54 0 26 -5 52 -10 57 -12 12 -6 828 8 1079 9 160 17 211 33 221 5 3 9 34 9 69 0 35 5 67 10 70 6 4 10 62 10 140 0 78 4 136 10 140 6 4 10 62 10 140 0 78 4 136 10 140 6 4 10 59 10 134 0 70 4 131 9 137 5 5 12 50 15 99 3 50 10 117 16 150 14 76 29 214 36 330 3 50 10 94 15 100 5 5 9 50 9 101 0 76 3 96 20 117 16 20 20 40 20 95 0 39 5 74 10 77 6 4 10 62 10 140 0 78 4 136 10 140 6 4 10 73 10 174 0 92 4 171 9 176 5 6 12 78 15 160 6 145 13 264 36 615 19 286 47 774 55 970 3 74 10 144 15 155 5 11 12 79 15 150 13 327 17 391 26 399 5 6 9 64 9 131 0 67 4 125 9 131 6 5 12 68 15 139 14 327 18 381 27 389 13 14 11 150 -3 164 -7 7 -39 12 -73 12 -34 0 -66 5 -73 12 -8 8 -49 11 -126 9 -66 -1 -116 2 -120 7 -3 6 -40 10 -82 10 -42 1 -81 6 -89 12 -8 7 -20 8 -27 3 -7 -4 -459 -10 -1005 -13 -545 -3 -995 -8 -999 -13 -4 -4 -9 -35 -11 -70 -3 -34 -8 -71 -13 -82 -5 -11 -11 -60 -14 -110 -13 -222 -17 -253 -37 -271 -21 -19 -25 -49 -8 -60 7 -4 8 -18 4 -38 -4 -17 -11 -83 -16 -146 -32 -413 -39 -473 -62 -497 -20 -23 -24 -102 -5 -121 8 -8 8 -15 0 -24 -6 -8 -13 -65 -16 -128 -4 -63 -9 -164 -12 -225 -3 -60 -9 -114 -15 -120 -5 -5 -9 -47 -9 -94 0 -73 -3 -88 -22 -108 -17 -18 -19 -26 -10 -35 14 -14 17 -189 3 -203 -10 -10 -18 -96 -27 -275 -2 -58 -9 -114 -14 -125 -5 -11 -12 -56 -15 -100 -16 -254 -29 -360 -46 -371 -5 -3 -9 -38 -9 -79 0 -41 -4 -77 -10 -80 -6 -4 -10 -58 -10 -130 0 -72 -4 -126 -10 -130 -6 -4 -10 -62 -10 -140 0 -78 -4 -136 -10 -140 -6 -4 -10 -58 -10 -130 0 -72 -4 -126 -10 -130 -6 -4 -10 -58 -10 -129 0 -67 -4 -126 -9 -131 -6 -6 -12 -68 -15 -140 -14 -327 -18 -381 -27 -389 -5 -6 -9 -60 -9 -121 0 -61 -4 -115 -9 -121 -9 -8 -14 -55 -27 -254 -3 -47 -10 -89 -15 -94 -5 -6 -9 -47 -9 -92 0 -46 -4 -86 -10 -89 -14 -8 -13 -68 2 -100 9 -21 9 -31 0 -46 -7 -11 -12 -61 -12 -128 0 -63 -4 -112 -10 -116 -6 -4 -10 -55 -10 -120 0 -65 -4 -116 -10 -120 -6 -3 -10 -51 -10 -109 0 -56 -4 -106 -9 -112 -5 -5 -12 -58 -15 -119 -3 -60 -10 -141 -16 -180 -6 -38 -15 -108 -20 -155 -5 -47 -14 -119 -20 -160 -6 -41 -14 -115 -16 -165 -3 -49 -10 -94 -15 -99 -5 -6 -9 -30 -9 -55 0 -49 -17 -154 -31 -186 -4 -11 -10 -45 -13 -75 -8 -90 -18 -140 -27 -146 -5 -3 -9 -25 -9 -49 0 -24 -4 -47 -10 -50 -6 -3 -10 -26 -10 -50 0 -24 -4 -47 -10 -50 -5 -3 -10 -21 -10 -40 0 -19 -4 -37 -10 -40 -5 -3 -10 -20 -10 -37 0 -18 -4 -45 -9 -62 -5 -17 -15 -51 -21 -76 -7 -25 -16 -53 -21 -62 -5 -10 -9 -25 -9 -34 0 -27 -90 -283 -126 -361 -19 -40 -34 -78 -34 -84 0 -6 -17 -48 -39 -93 -25 -54 -49 -90 -70 -105 -22 -16 -31 -30 -31 -50 0 -51 -57 -143 -193 -314 -134 -166 -345 -341 -513 -425 -120 -60 -234 -112 -248 -112 -8 0 -35 -9 -61 -20 -35 -15 -69 -20 -135 -20 -49 0 -92 -5 -95 -10 -3 -6 -21 -10 -40 -10 -19 0 -37 -4 -40 -10 -8 -13 -342 -14 -349 -1 -4 5 -48 9 -100 9 -51 0 -102 5 -112 10 -11 5 -52 19 -92 32 -138 41 -319 144 -433 247 -105 94 -132 128 -179 218 -22 43 -53 92 -69 109 -35 38 -51 70 -80 166 -13 41 -27 83 -32 92 -5 10 -9 36 -9 57 0 22 -5 52 -12 66 -9 19 -9 28 0 37 9 9 12 77 12 230 0 199 2 220 20 253 11 20 20 48 20 64 0 16 7 34 15 41 19 16 45 68 45 91 0 10 5 21 10 24 6 3 10 19 10 36 0 16 4 37 9 47 4 9 18 37 30 62 12 25 42 81 66 125 25 44 49 89 54 100 5 11 29 43 55 72 25 28 46 54 46 59 0 4 7 16 16 26 9 9 26 35 38 57 27 52 101 158 136 196 15 17 30 37 34 45 17 40 435 575 519 665 31 34 57 66 57 71 0 6 21 30 46 54 25 25 58 72 74 105 16 33 40 71 54 84 17 16 26 36 27 55 0 17 14 51 29 76 16 25 43 70 59 100 16 30 48 73 70 95 32 30 41 47 41 72 0 36 42 119 71 143 24 19 49 66 49 92 0 11 36 93 80 182 44 89 80 169 80 178 0 8 7 21 15 28 19 16 45 68 45 91 0 10 5 21 10 24 6 3 10 17 10 30 0 14 14 53 30 87 17 34 30 67 30 73 0 18 28 71 45 85 9 8 15 30 15 56 0 23 5 46 10 49 6 3 10 19 10 34 0 16 9 40 20 54 11 14 20 38 20 55 0 16 9 37 20 47 11 10 20 28 20 41 0 13 4 26 10 29 5 3 10 17 10 30 0 13 4 27 10 30 6 3 10 26 10 50 0 24 5 47 10 50 6 3 10 17 10 30 0 13 5 27 10 30 6 3 10 31 10 61 0 30 5 63 10 74 6 11 15 29 20 40 6 11 10 33 10 49 0 17 5 33 10 36 6 3 10 21 10 40 0 19 5 37 10 40 6 3 10 21 10 39 0 17 4 36 9 42 5 5 11 27 15 49 13 98 18 121 26 140 13 31 21 65 31 125 4 30 13 78 18 105 6 28 13 66 16 85 4 19 10 44 15 55 5 11 11 45 14 75 2 30 10 80 16 110 6 30 15 91 20 135 15 132 21 169 30 190 5 11 11 47 14 80 11 129 26 253 37 310 6 33 13 101 16 150 2 50 9 94 14 100 5 5 9 35 9 68 0 32 5 67 10 77 7 13 7 21 0 25 -6 4 -7 11 -4 17 9 15 25 165 30 288 2 58 9 114 14 125 12 26 20 128 26 340 3 93 9 174 14 179 6 6 10 40 10 76 0 36 5 71 11 77 8 8 8 17 -1 33 -8 15 -10 50 -6 109 4 47 9 145 12 216 4 119 9 147 35 197 12 23 12 145 0 153 -5 3 -7 37 -4 78 3 39 6 134 7 210 l1 139 -40 14 c-22 7 -69 14 -105 14 -37 0 -71 5 -77 11 -12 12 -704 16 -724 4 -13 -9 -112 -23 -219 -32 -36 -2 -71 -10 -78 -15 -7 -6 -30 -11 -52 -11 -22 0 -43 -4 -46 -8 -3 -5 -14 -9 -24 -9 -10 0 -38 -10 -62 -23 -24 -12 -65 -31 -93 -41 -93 -34 -130 -50 -231 -102 -98 -51 -137 -71 -160 -83 -10 -5 -47 -30 -178 -117 -73 -48 -90 -60 -154 -110 -15 -11 -44 -28 -65 -38 -21 -10 -42 -28 -47 -42 -5 -13 -16 -24 -24 -24 -13 0 -100 -94 -136 -146 -8 -12 -44 -63 -80 -114 -36 -51 -74 -106 -84 -124 -10 -17 -30 -48 -45 -70 -14 -21 -30 -46 -36 -56 -22 -40 -85 -127 -99 -139 -9 -8 -16 -18 -16 -24 0 -6 -16 -28 -36 -48 -20 -20 -41 -46 -48 -57 -35 -61 -72 -104 -139 -167 -119 -111 -151 -134 -272 -195 -63 -31 -91 -40 -132 -40 -28 0 -55 -4 -58 -10 -9 -14 -128 -13 -143 2 -15 15 -17 284 -2 293 6 3 10 28 10 55 0 27 4 52 10 55 5 3 10 30 10 60 0 30 4 57 10 60 5 3 10 29 10 57 0 49 12 102 31 140 5 10 9 33 9 53 0 19 9 50 20 70 11 20 20 49 20 65 0 16 5 32 10 35 6 3 10 21 10 40 0 19 5 37 10 40 6 3 10 22 10 41 0 19 9 54 20 76 11 23 20 48 20 55 0 7 4 21 10 31 5 9 19 46 31 82 12 36 25 70 28 75 4 6 18 44 31 85 13 41 32 90 42 108 10 18 18 37 18 43 0 5 17 46 38 92 21 45 45 98 52 117 7 19 22 47 32 62 10 14 18 30 18 35 0 5 11 20 25 33 14 13 44 61 66 107 22 45 44 85 49 88 12 7 40 65 40 81 0 7 13 28 28 46 15 18 39 51 54 73 78 120 409 435 457 435 9 0 28 12 42 26 13 14 42 34 64 44 22 10 53 32 69 49 17 17 39 31 51 31 12 0 32 11 45 25 13 14 33 25 45 25 12 0 34 14 50 30 16 17 32 30 36 30 5 0 28 14 53 30 62 42 151 94 216 125 30 15 71 35 90 46 85 45 198 98 235 110 22 7 47 19 55 25 8 7 35 20 60 29 25 9 54 21 65 26 11 5 34 11 52 12 17 2 39 9 47 16 19 16 75 31 136 38 24 3 53 11 65 18 30 19 142 45 205 47 30 1 60 5 65 8 24 17 172 41 325 55 30 3 111 10 180 16 107 10 171 12 258 10 9 0 62 4 117 9 228 22 625 31 1620 36 645 3 1054 9 1059 14 6 6 229 10 571 10 357 0 565 4 575 10 15 10 1624 6 2040 -6z"/>
<path d="M13534 12339 c-10 -17 13 -36 27 -22 12 12 4 33 -11 33 -5 0 -12 -5 -16 -11z"/>
<path d="M15774 12339 c-10 -17 13 -36 27 -22 12 12 4 33 -11 33 -5 0 -12 -5 -16 -11z"/>
<path d="M6948 12823 c-274 -2 -498 -7 -498 -11 0 -12 1511 -25 1523 -13 27 27 -10 31 -266 29 -144 -2 -486 -4 -759 -5z"/>
<path d="M8985 12821 c-4 -7 -3 -17 2 -22 12 -12 1423 1 1423 13 0 4 -150 8 -333 8 -184 0 -503 3 -709 7 -294 5 -377 4 -383 -6z"/>
<path d="M5738 12803 c-304 -4 -306 -22 -3 -25 382 -4 360 -5 360 12 0 17 -6 17 -357 13z"/>
<path d="M5028 12783 c-208 -5 -210 -22 -3 -25 85 -1 172 -2 193 -2 26 -1 37 3 37 14 0 17 -2 17 -227 13z"/>
<path d="M11865 12780 c-4 -6 -3 -15 1 -20 12 -10 464 0 464 11 0 5 -69 9 -153 9 -85 0 -188 3 -229 6 -54 5 -77 3 -83 -6z"/>
<path d="M12694 12779 c-10 -17 13 -36 27 -22 12 12 4 33 -11 33 -5 0 -12 -5 -16 -11z"/>
<path d="M4498 12763 c-74 -2 -128 -8 -128 -13 0 -9 53 -11 288 -14 26 -1 37 3 37 14 0 17 -9 18 -197 13z"/>
<path d="M12525 12760 c-12 -19 10 -32 51 -28 27 2 39 8 39 18 0 19 -79 27 -90 10z"/>
<path d="M4128 12743 c-43 -2 -78 -8 -78 -13 0 -9 29 -11 178 -14 18 -1 27 4 27 14 0 17 -13 18 -127 13z"/>
<path d="M3883 12723 c-29 -2 -53 -8 -53 -12 0 -11 133 -21 144 -11 12 12 -2 30 -22 28 -9 -1 -41 -3 -69 -5z"/>
<path d="M3708 12703 c-21 -2 -38 -8 -38 -12 0 -12 93 -21 104 -11 11 10 -1 31 -17 28 -7 -1 -29 -3 -49 -5z"/>
<path d="M3573 12683 c-18 -2 -33 -8 -33 -12 0 -12 83 -22 94 -11 10 10 -1 31 -17 28 -7 0 -27 -3 -44 -5z"/>
<path d="M3458 12663 c-16 -2 -28 -8 -28 -12 0 -12 73 -22 83 -12 11 11 0 32 -16 30 -7 -1 -24 -4 -39 -6z"/>
<path d="M3318 12632 c-38 -8 -68 -18 -68 -22 0 -16 55 -18 72 -3 10 9 28 13 43 11 14 -3 28 -1 31 4 13 21 -14 24 -78 10z"/>
<path d="M3180 12590 c0 -5 9 -10 20 -10 11 0 20 5 20 10 0 6 -9 10 -20 10 -11 0 -20 -4 -20 -10z"/>
<path d="M3015 12545 c-71 -24 -138 -48 -150 -53 -11 -5 -44 -20 -72 -32 -29 -13 -53 -27 -53 -31 0 -14 29 -17 40 -4 7 8 16 13 20 10 5 -3 11 -1 15 5 9 15 73 43 83 36 6 -3 15 1 22 10 7 8 20 12 28 9 8 -3 23 2 33 11 10 9 23 13 29 9 6 -4 20 1 30 10 10 9 24 14 30 10 6 -4 20 1 30 10 11 10 26 15 34 12 9 -4 18 -1 22 4 17 29 -22 24 -141 -16z"/>
<path d="M2580 12362 c-126 -64 -232 -123 -370 -207 -50 -30 -93 -55 -95 -55 -2 0 -23 -12 -47 -27 -24 -16 -52 -33 -63 -40 -44 -26 -182 -117 -216 -141 -115 -85 -155 -120 -260 -224 -64 -63 -144 -152 -178 -197 -75 -99 -151 -210 -151 -222 0 -37 76 46 78 84 0 5 13 22 28 38 15 16 24 29 19 29 -5 0 9 18 30 40 21 22 35 40 30 40 -6 0 57 67 140 150 82 82 151 147 154 144 3 -2 22 12 43 33 21 20 38 33 38 28 0 -5 18 9 40 30 22 21 40 35 40 30 0 -5 17 7 38 27 34 33 55 45 75 46 5 0 21 11 35 25 25 22 54 37 68 36 3 -1 18 10 32 24 23 20 42 32 72 42 30 10 49 22 73 43 15 14 27 22 27 17 0 -4 9 0 20 10 11 10 20 14 20 10 0 -5 14 4 30 20 17 16 30 25 30 20 0 -4 9 0 20 10 11 10 20 14 20 10 0 -4 9 0 20 10 11 10 20 14 20 10 0 -5 12 3 28 16 15 14 77 50 139 80 104 50 132 69 101 69 -7 0 -65 -26 -128 -58z"/>
<path d="M1172 11208 c-20 -26 -114 -220 -108 -225 8 -8 47 28 41 38 -3 4 0 11 5 14 10 6 25 36 30 60 1 6 9 18 17 28 9 9 12 17 8 17 -4 0 0 9 10 20 10 11 14 20 10 20 -5 0 -4 5 3 12 7 7 12 16 12 20 0 12 -16 10 -28 -4z"/>
<path d="M3383 11077 c-3 -5 -3 -11 1 -14 3 -3 110 -5 238 -5 178 0 233 3 233 12 0 9 -56 13 -233 14 -129 0 -236 -3 -239 -7z"/>
<path d="M3185 11060 c-12 -20 8 -26 68 -22 67 5 77 22 13 22 -24 0 -51 3 -59 6 -8 3 -18 0 -22 -6z"/>
<path d="M4003 11063 c-80 -5 -82 -22 -3 -25 33 -1 68 -2 78 -2 9 -1 17 6 17 14 0 17 -6 18 -92 13z"/>
<path d="M3065 11040 c-12 -19 7 -28 48 -23 41 6 51 23 13 23 -13 0 -31 3 -39 6 -8 3 -18 0 -22 -6z"/>
<path d="M4183 11043 c-60 -6 -53 -19 13 -26 32 -3 64 -13 75 -23 11 -9 22 -14 26 -11 8 9 -47 68 -61 65 -6 -1 -30 -3 -53 -5z"/>
<path d="M6684 11038 c-3 -4 -3 -12 0 -16 3 -5 155 -8 338 -8 287 1 333 3 333 16 0 13 -46 15 -333 16 -183 0 -335 -3 -338 -8z"/>
<path d="M2965 11020 c-11 -18 7 -29 38 -23 28 6 38 23 13 23 -8 0 -21 3 -29 6 -8 3 -18 0 -22 -6z"/>
<path d="M7618 11023 c-49 -2 -88 -8 -88 -13 0 -6 38 -11 85 -12 47 -1 93 -2 103 -2 9 -1 17 6 17 14 0 17 -1 17 -117 13z"/>
<path d="M5392 11008 c-14 -14 -16 -78 -2 -78 6 0 10 14 10 30 0 18 6 33 15 36 8 4 15 10 15 15 0 13 -24 11 -38 -3z"/>
<path d="M5570 11010 c0 -6 120 -10 340 -10 220 0 340 4 340 10 0 6 -120 10 -340 10 -220 0 -340 -4 -340 -10z"/>
<path d="M2879 10993 c-7 -7 -21 -12 -33 -11 -12 2 -21 -3 -21 -9 0 -7 3 -13 8 -14 16 -2 107 25 107 32 0 14 -50 16 -61 2z"/>
<path d="M7868 11003 c-74 -5 -76 -22 -3 -25 30 -1 63 -2 73 -2 9 -1 17 6 17 14 0 17 -8 18 -87 13z"/>
<path d="M8033 10983 c-60 -6 -53 -19 13 -26 71 -7 95 -28 92 -76 -2 -27 1 -36 12 -36 11 0 15 11 14 42 -1 43 -17 73 -39 73 -7 0 -18 7 -25 15 -7 8 -15 14 -19 13 -3 -1 -25 -3 -48 -5z"/>
<path d="M9752 10967 c-14 -15 -18 -27 -12 -37 7 -12 11 -12 28 3 17 16 119 17 1493 19 1302 3 1474 5 1474 18 0 13 -172 15 -1481 18 l-1480 2 -22 -23z"/>
<path d="M1026 10923 c-67 -138 -258 -624 -268 -678 -1 -11 3 -20 10 -20 6 0 12 5 13 10 0 6 7 18 16 27 8 10 13 24 10 32 -3 8 1 20 9 27 8 6 12 20 9 29 -3 9 2 23 10 30 8 7 13 21 10 30 -3 9 1 23 9 29 8 7 12 19 9 27 -3 8 3 24 12 34 10 11 14 20 10 20 -4 0 0 9 9 19 10 11 15 25 11 31 -4 6 1 20 11 31 9 10 13 19 9 19 -4 0 0 9 9 19 10 11 15 25 11 31 -4 6 1 20 11 31 9 10 13 19 9 19 -4 0 0 9 10 20 10 11 14 20 10 20 -4 0 0 9 9 19 10 11 15 25 11 31 -4 6 1 20 11 31 9 10 13 19 9 19 -4 0 -1 8 8 18 10 10 15 21 12 24 -3 3 1 11 9 17 14 12 12 41 -3 41 -4 0 -15 -17 -25 -37z"/>
<path d="M2760 10950 c0 -5 9 -10 20 -10 11 0 20 5 20 10 0 6 -9 10 -20 10 -11 0 -20 -4 -20 -10z"/>
<path d="M2700 10930 c0 -5 9 -10 20 -10 11 0 20 5 20 10 0 6 -9 10 -20 10 -11 0 -20 -4 -20 -10z"/>
<path d="M2639 10914 c-7 -8 -19 -12 -27 -9 -8 3 -23 -2 -33 -11 -11 -10 -19 -13 -19 -9 0 4 -9 0 -20 -10 -11 -10 -20 -14 -20 -10 0 4 -9 0 -20 -10 -11 -10 -20 -14 -20 -10 0 4 -8 1 -17 -7 -19 -16 -54 -32 -64 -30 -10 2 -43 -37 -37 -44 3 -3 52 18 107 46 56 28 126 60 156 71 30 11 55 24 55 29 0 16 -29 19 -41 4z"/>
<path d="M5356 10872 c-8 -13 6 -122 15 -122 8 0 11 21 13 102 1 22 -18 36 -28 20z"/>
<path d="M4278 10738 c-5 -117 1 -154 21 -132 10 11 2 254 -9 254 -4 0 -10 -55 -12 -122z"/>
<path d="M9740 10295 c0 -357 3 -545 10 -545 7 0 10 188 10 545 0 357 -3 545 -10 545 -7 0 -10 -188 -10 -545z"/>
<path d="M8117 10723 c-7 -67 2 -98 23 -77 11 11 2 144 -10 144 -4 0 -10 -30 -13 -67z"/>
<path d="M2293 10739 c-18 -10 -33 -16 -33 -12 0 4 -12 -5 -27 -19 -26 -24 -61 -42 -74 -40 -3 1 -21 -15 -39 -33 -19 -19 -39 -35 -45 -35 -7 0 -20 -9 -30 -20 -10 -11 -21 -18 -25 -15 -4 2 -22 -11 -40 -30 -18 -19 -36 -32 -40 -30 -4 2 -22 -11 -40 -30 -18 -19 -36 -32 -40 -30 -4 2 -26 -16 -50 -40 -24 -24 -46 -42 -50 -40 -4 2 -26 -16 -50 -40 -24 -25 -40 -45 -35 -45 5 0 -9 -18 -30 -40 -21 -22 -35 -40 -30 -40 5 0 -7 -17 -28 -37 -20 -21 -37 -42 -38 -48 -4 -26 -19 -52 -44 -75 -23 -22 -50 -68 -45 -78 1 -2 -10 -17 -25 -32 -15 -15 -27 -32 -27 -37 -1 -20 -13 -41 -46 -75 -20 -21 -32 -38 -27 -38 5 0 -4 -13 -20 -30 -16 -16 -25 -30 -20 -30 5 0 -4 -13 -20 -30 -16 -16 -25 -30 -20 -30 5 0 -17 -27 -50 -60 -33 -33 -55 -60 -50 -60 5 0 -31 -40 -79 -89 -49 -50 -93 -88 -96 -86 -4 2 -20 -9 -35 -25 -32 -34 -123 -82 -137 -74 -10 6 -48 -24 -48 -38 0 -13 17 -10 68 14 86 40 186 115 278 210 105 109 174 198 306 398 89 136 184 279 236 357 30 45 202 213 218 213 6 0 18 7 25 16 29 35 246 187 392 274 31 19 57 38 57 42 0 12 -11 9 -47 -13z"/>
<path d="M5338 10673 c-8 -15 4 -123 13 -123 5 0 10 23 11 50 0 28 1 55 2 62 1 13 -20 23 -26 11z"/>
<path d="M8097 10513 c-6 -76 2 -108 22 -87 11 10 2 164 -9 164 -4 0 -10 -35 -13 -77z"/>
<path d="M5317 10493 c-8 -13 5 -123 14 -123 5 0 10 20 11 45 1 25 2 53 2 62 1 17 -19 30 -27 16z"/>
<path d="M4258 10348 c-4 -108 2 -144 20 -122 11 11 3 234 -8 234 -4 0 -10 -51 -12 -112z"/>
<path d="M8077 10283 c-6 -86 1 -119 23 -97 11 11 1 184 -10 184 -4 0 -10 -39 -13 -87z"/>
<path d="M5298 10293 c-8 -15 4 -123 13 -123 5 0 10 23 11 50 0 28 1 55 2 62 1 13 -20 23 -26 11z"/>
<path d="M740 10180 c0 -11 5 -20 10 -20 6 0 10 9 10 20 0 11 -4 20 -10 20 -5 0 -10 -9 -10 -20z"/>
<path d="M709 10088 c-14 -60 -14 -63 4 -63 6 0 11 8 9 18 -2 11 4 27 12 36 15 16 12 61 -4 61 -4 0 -14 -24 -21 -52z"/>
<path d="M8058 10023 c-5 -85 2 -118 21 -97 10 11 2 184 -9 184 -4 0 -10 -39 -12 -87z"/>
<path d="M4238 9988 c-4 -108 2 -144 20 -122 11 11 3 234 -8 234 -4 0 -10 -51 -12 -112z"/>
<path d="M5278 10093 c-8 -14 4 -103 13 -103 5 0 10 18 11 40 0 22 1 45 2 52 1 13 -20 23 -26 11z"/>
<path d="M676 9978 c-6 -24 6 -44 22 -34 11 6 4 56 -8 56 -4 0 -10 -10 -14 -22z"/>
<path d="M658 9895 c-5 -26 5 -41 21 -31 10 6 2 56 -9 56 -4 0 -10 -11 -12 -25z"/>
<path d="M5259 9896 c-8 -8 3 -106 12 -106 5 0 9 20 9 45 0 25 0 48 1 52 1 9 -15 15 -22 9z"/>
<path d="M637 9808 c-46 -248 -49 -303 -18 -284 6 4 8 24 4 52 -4 34 -2 49 11 63 13 14 15 28 10 60 -5 30 -3 46 9 59 15 17 13 82 -3 82 -4 0 -10 -15 -13 -32z"/>
<path d="M8037 9718 c-4 -80 3 -113 22 -92 10 11 2 174 -9 174 -4 0 -10 -37 -13 -82z"/>
<path d="M4218 9688 c-4 -90 3 -123 20 -102 10 12 3 194 -8 194 -4 0 -10 -42 -12 -92z"/>
<path d="M5236 9731 c-8 -12 5 -141 14 -141 9 0 22 129 14 141 -3 5 -9 9 -14 9 -5 0 -11 -4 -14 -9z"/>
<path d="M9716 9572 c-8 -14 6 -302 16 -302 7 0 11 82 13 257 0 43 -15 67 -29 45z"/>
<path d="M5217 9513 c-7 -14 5 -143 14 -143 5 0 10 25 11 55 1 30 2 63 2 72 1 17 -19 30 -27 16z"/>
<path d="M8018 9408 c-5 -89 2 -123 21 -102 10 11 2 194 -9 194 -4 0 -10 -42 -12 -92z"/>
<path d="M4197 9403 c-5 -85 2 -118 22 -97 11 10 2 184 -9 184 -4 0 -10 -39 -13 -87z"/>
<path d="M576 9393 c-6 -77 3 -108 24 -87 11 11 2 164 -10 164 -4 0 -10 -35 -14 -77z"/>
<path d="M5197 9313 c-7 -14 5 -143 14 -143 5 0 10 25 11 55 1 30 2 63 2 72 1 17 -19 30 -27 16z"/>
<path d="M665 9220 c-11 -18 7 -29 38 -23 28 6 38 23 13 23 -8 0 -21 3 -29 6 -8 3 -18 0 -22 -6z"/>
<path d="M4178 9153 c-5 -76 3 -107 20 -87 11 11 3 164 -8 164 -4 0 -10 -35 -12 -77z"/>
<path d="M577 9214 c-12 -12 6 -34 29 -34 28 0 30 8 7 26 -20 15 -27 17 -36 8z"/>
<path d="M9697 9172 c-9 -13 5 -232 14 -232 8 0 12 56 14 197 0 34 -16 55 -28 35z"/>
<path d="M7998 9068 c-5 -89 2 -123 21 -102 10 11 2 194 -9 194 -4 0 -10 -42 -12 -92z"/>
<path d="M5177 9113 c-8 -13 5 -143 14 -143 8 0 10 18 13 122 1 21 -18 36 -27 21z"/>
<path d="M4158 8923 c-5 -67 3 -97 21 -77 10 11 2 144 -9 144 -4 0 -10 -30 -12 -67z"/>
<path d="M5156 8911 c-8 -12 5 -141 14 -141 9 0 22 129 14 141 -3 5 -9 9 -14 9 -5 0 -11 -4 -14 -9z"/>
<path d="M9677 8853 c-8 -14 5 -183 14 -183 5 0 10 32 11 70 1 39 2 80 2 92 1 21 -18 36 -27 21z"/>
<path d="M7978 8723 c-5 -103 2 -139 20 -117 11 11 3 224 -8 224 -4 0 -10 -48 -12 -107z"/>
<path d="M4137 8713 c-5 -58 4 -86 22 -67 10 11 2 124 -9 124 -4 0 -10 -26 -13 -57z"/>
<path d="M5137 8693 c-7 -14 5 -143 14 -143 5 0 10 25 11 55 1 30 2 63 2 72 1 17 -19 30 -27 16z"/>
<path d="M9657 8593 c-8 -14 5 -183 14 -183 5 0 10 32 11 70 1 39 2 80 2 92 1 21 -18 36 -27 21z"/>
<path d="M4117 8533 c-5 -58 4 -86 22 -67 10 11 2 124 -9 124 -4 0 -10 -26 -13 -57z"/>
<path d="M5117 8492 c-9 -13 5 -162 14 -162 8 0 11 32 13 137 1 26 -17 42 -27 25z"/>
<path d="M7958 8373 c-5 -94 2 -128 21 -107 10 11 2 204 -9 204 -4 0 -10 -44 -12 -97z"/>
<path d="M4097 8353 c-6 -58 4 -86 23 -67 10 10 1 124 -10 124 -4 0 -10 -26 -13 -57z"/>
<path d="M9637 8333 c-8 -14 5 -163 14 -163 5 0 10 27 11 60 1 33 2 70 2 82 1 21 -18 36 -27 21z"/>
<path d="M5097 8273 c-8 -14 5 -163 14 -163 5 0 10 27 11 60 1 33 2 70 2 82 1 21 -18 36 -27 21z"/>
<path d="M4077 8193 c-6 -58 4 -86 23 -67 10 10 1 124 -10 124 -4 0 -10 -26 -13 -57z"/>
<path d="M7938 8063 c-5 -85 2 -118 21 -97 10 11 2 184 -9 184 -4 0 -10 -39 -12 -87z"/>
<path d="M9617 8093 c-8 -14 5 -163 14 -163 5 0 10 27 11 60 1 33 2 70 2 82 1 21 -18 36 -27 21z"/>
<path d="M4057 8043 c-5 -49 5 -75 22 -57 11 10 2 104 -9 104 -4 0 -10 -21 -13 -47z"/>
<path d="M5077 8053 c-8 -14 5 -163 14 -163 5 0 10 27 11 60 1 33 2 70 2 82 1 21 -18 36 -27 21z"/>
<path d="M4030 7838 c-7 -51 -13 -97 -14 -103 0 -5 6 -10 14 -10 11 0 14 9 12 38 -3 25 2 45 12 56 12 13 15 29 10 64 -4 26 -10 47 -14 47 -4 0 -13 -42 -20 -92z"/>
<path d="M9597 7873 c-8 -14 5 -163 14 -163 5 0 10 27 11 60 1 33 2 70 2 82 1 21 -18 36 -27 21z"/>
<path d="M7918 7773 c-5 -76 3 -107 20 -87 11 11 3 164 -8 164 -4 0 -10 -35 -12 -77z"/>
<path d="M5057 7833 c-8 -14 5 -163 14 -163 5 0 10 27 11 60 1 33 2 70 2 82 1 21 -18 36 -27 21z"/>
<path d="M3998 7640 c-5 -31 4 -46 20 -36 10 6 3 66 -8 66 -4 0 -10 -14 -12 -30z"/>
<path d="M9577 7653 c-8 -14 5 -163 14 -163 5 0 10 27 11 60 1 33 2 70 2 82 1 21 -18 36 -27 21z"/>
<path d="M5037 7613 c-7 -14 5 -143 14 -143 5 0 10 25 11 55 1 30 2 63 2 72 1 17 -19 30 -27 16z"/>
<path d="M7898 7513 c-5 -76 3 -107 20 -87 11 11 3 164 -8 164 -4 0 -10 -35 -12 -77z"/>
<path d="M3978 7520 c-5 -31 4 -46 20 -36 10 6 3 66 -8 66 -4 0 -10 -14 -12 -30z"/>
<path d="M3957 7413 c-5 -40 6 -64 22 -47 10 11 2 84 -9 84 -4 0 -10 -17 -13 -37z"/>
<path d="M9557 7413 c-7 -14 5 -143 14 -143 5 0 10 25 11 55 1 30 2 63 2 72 1 17 -19 30 -27 16z"/>
<path d="M5017 7393 c-7 -14 5 -143 14 -143 5 0 10 25 11 55 1 30 2 63 2 72 1 17 -19 30 -27 16z"/>
<path d="M3937 7303 c-6 -31 7 -53 22 -37 11 10 3 64 -9 64 -4 0 -10 -12 -13 -27z"/>
<path d="M7877 7263 c-5 -67 3 -97 22 -77 11 10 2 144 -9 144 -4 0 -10 -30 -13 -67z"/>
<path d="M3918 7200 c-5 -31 4 -46 20 -36 10 6 3 66 -8 66 -4 0 -10 -14 -12 -30z"/>
<path d="M9537 7193 c-8 -14 5 -163 14 -163 5 0 10 27 11 60 1 33 2 70 2 82 1 21 -18 36 -27 21z"/>
<path d="M4997 7173 c-7 -14 5 -153 14 -153 5 0 10 27 11 60 1 33 2 68 2 77 1 17 -19 30 -27 16z"/>
<path d="M3897 7103 c-6 -31 7 -53 22 -37 11 10 3 64 -9 64 -4 0 -10 -12 -13 -27z"/>
<path d="M7857 7043 c-5 -67 3 -97 22 -77 11 10 2 144 -9 144 -4 0 -10 -30 -13 -67z"/>
<path d="M3870 6973 c-18 -85 -18 -88 0 -88 11 0 14 8 12 29 -2 15 3 36 11 45 15 16 13 81 -2 81 -4 0 -14 -30 -21 -67z"/>
<path d="M4977 6953 c-7 -14 5 -143 14 -143 5 0 10 25 11 55 1 30 2 63 2 72 1 17 -19 30 -27 16z"/>
<path d="M9518 6953 c-8 -15 4 -163 13 -163 5 0 10 29 11 65 1 36 2 73 2 82 1 17 -19 30 -26 16z"/>
<path d="M7837 6853 c-5 -57 5 -87 21 -67 10 11 3 124 -8 124 -4 0 -10 -26 -13 -57z"/>
<path d="M3821 6760 c-26 -112 -26 -115 -8 -115 6 0 11 8 9 18 -2 11 4 27 13 37 11 12 14 26 10 40 -4 14 -1 28 9 39 11 12 14 27 10 49 -4 18 -10 32 -13 32 -4 0 -17 -45 -30 -100z"/>
<path d="M4957 6733 c-8 -14 5 -163 14 -163 5 0 10 27 11 60 1 33 2 70 2 82 1 21 -18 36 -27 21z"/>
<path d="M7818 6673 c-4 -58 4 -86 20 -67 10 11 3 124 -8 124 -4 0 -10 -26 -12 -57z"/>
<path d="M9498 6693 c-8 -15 4 -173 13 -173 5 0 10 32 11 70 1 39 2 78 2 87 1 17 -19 30 -26 16z"/>
<path d="M3777 6590 c-5 -21 7 -35 22 -26 10 7 3 46 -9 46 -4 0 -10 -9 -13 -20z"/>
<path d="M7798 6493 c-4 -58 4 -86 20 -67 10 11 3 124 -8 124 -4 0 -10 -26 -12 -57z"/>
<path d="M3743 6463 c-39 -143 -74 -257 -139 -451 -68 -203 -70 -212 -54 -212 6 0 10 6 10 14 0 7 7 19 15 26 9 7 13 21 10 30 -3 9 1 22 9 29 8 6 12 20 9 30 -2 9 2 23 10 30 8 6 13 20 10 30 -2 9 2 23 10 30 8 6 13 20 10 30 -2 9 2 23 10 30 8 6 13 20 10 30 -2 9 2 23 11 30 8 7 12 19 9 27 -3 8 2 23 11 33 9 10 14 25 11 33 -3 8 1 20 9 27 10 8 13 22 10 40 -4 17 0 32 9 39 8 7 13 21 10 31 -2 9 2 23 11 30 10 8 13 22 10 40 -4 17 0 32 9 39 14 12 12 62 -2 62 -4 0 -16 -35 -28 -77z"/>
<path d="M4937 6513 c-8 -13 5 -153 14 -153 5 0 10 25 11 55 1 30 2 65 2 77 1 21 -18 36 -27 21z"/>
<path d="M9478 6413 c-8 -16 4 -213 13 -213 5 0 10 41 11 90 1 50 2 98 2 107 1 17 -19 30 -26 16z"/>
<path d="M7777 6313 c-5 -58 4 -86 22 -67 10 11 2 124 -9 124 -4 0 -10 -26 -13 -57z"/>
<path d="M4918 6273 c-8 -16 4 -143 13 -143 5 0 10 27 11 60 0 33 1 65 2 72 1 13 -20 23 -26 11z"/>
<path d="M7757 6133 c-5 -58 4 -86 22 -67 10 11 2 124 -9 124 -4 0 -10 -26 -13 -57z"/>
<path d="M9458 6073 c-8 -16 4 -293 13 -293 5 0 10 56 11 125 1 69 2 135 2 147 1 21 -18 37 -26 21z"/>
<path d="M4898 6053 c-8 -16 4 -143 13 -143 5 0 10 27 11 60 0 33 1 65 2 72 1 13 -20 23 -26 11z"/>
<path d="M7737 5953 c-6 -58 4 -86 23 -67 10 10 1 124 -10 124 -4 0 -10 -26 -13 -57z"/>
<path d="M4877 5833 c-7 -14 5 -143 14 -143 5 0 10 25 11 55 1 30 2 63 2 72 1 17 -19 30 -27 16z"/>
<path d="M7717 5773 c-6 -58 4 -86 23 -67 10 10 1 124 -10 124 -4 0 -10 -26 -13 -57z"/>
<path d="M3514 5758 c-7 -26 -70 -188 -89 -233 -111 -257 -157 -359 -207 -459 -59 -118 -66 -145 -28 -111 11 10 18 20 15 23 -3 3 2 14 12 24 9 10 12 18 8 18 -4 0 0 9 10 20 10 11 14 20 10 20 -4 0 0 9 10 20 10 11 14 20 10 20 -4 0 0 9 10 20 10 11 14 20 10 20 -4 0 0 9 10 20 10 11 14 20 10 20 -4 0 0 9 9 19 10 11 15 24 12 30 -7 10 7 42 33 74 8 9 10 17 6 17 -4 0 0 9 10 20 10 11 14 20 10 20 -4 0 0 9 9 19 10 11 15 24 12 30 -7 10 7 42 33 74 8 9 10 17 6 17 -4 0 0 9 9 19 10 11 15 25 11 31 -4 6 1 20 11 31 9 10 13 19 9 19 -4 0 -1 8 9 19 9 10 14 25 11 33 -3 8 1 20 9 27 7 6 12 20 9 30 -2 9 2 23 11 30 8 7 12 19 9 27 -8 21 -21 17 -29 -8z"/>
<path d="M7697 5598 c-6 -62 4 -92 22 -72 11 10 2 134 -9 134 -4 0 -10 -28 -13 -62z"/>
<path d="M4857 5613 c-7 -14 5 -143 14 -143 5 0 10 25 11 55 1 30 2 63 2 72 1 17 -19 30 -27 16z"/>
<path d="M9435 5488 c-3 -7 -4 -115 -3 -238 3 -192 5 -225 18 -225 13 0 15 33 15 234 0 179 -3 235 -12 238 -7 3 -15 -1 -18 -9z"/>
<path d="M7677 5403 c-5 -67 3 -97 22 -77 11 10 2 144 -9 144 -4 0 -10 -30 -13 -67z"/>
<path d="M4838 5373 c-8 -16 4 -143 13 -143 5 0 10 27 11 60 0 33 1 65 2 72 1 13 -20 23 -26 11z"/>
<path d="M7657 5203 c-5 -67 3 -97 22 -77 11 10 2 144 -9 144 -4 0 -10 -30 -13 -67z"/>
<path d="M4818 5133 c-8 -16 4 -143 13 -143 5 0 10 27 11 60 0 33 1 65 2 72 1 13 -20 23 -26 11z"/>
<path d="M7636 4993 c-6 -75 3 -110 22 -87 10 11 3 164 -8 164 -4 0 -10 -35 -14 -77z"/>
<path d="M3115 4862 c-72 -138 -285 -495 -363 -605 -39 -57 -35 -73 8 -32 16 16 28 31 25 34 -3 2 6 17 21 32 14 15 26 31 26 36 1 20 18 50 43 73 25 23 42 53 43 73 0 5 13 22 28 38 15 16 24 29 19 29 -4 0 0 9 11 21 10 12 18 22 16 23 -8 3 13 44 36 69 14 15 22 27 17 27 -4 0 -1 8 8 18 8 9 16 19 16 22 0 16 21 58 36 70 15 13 37 52 39 72 1 4 6 12 13 19 11 11 7 39 -6 39 -3 0 -19 -26 -36 -58z"/>
<path d="M4797 4912 c-9 -13 5 -162 14 -162 8 0 11 32 13 137 1 26 -17 42 -27 25z"/>
<path d="M7617 4733 c-5 -94 2 -128 22 -107 10 11 2 204 -9 204 -4 0 -10 -44 -13 -97z"/>
<path d="M4777 4673 c-8 -13 5 -143 14 -143 8 0 10 18 13 122 1 21 -18 36 -27 21z"/>
<path d="M7597 4393 c-5 -132 0 -170 22 -147 11 10 2 284 -9 284 -4 0 -10 -62 -13 -137z"/>
<path d="M4757 4453 c-8 -13 5 -143 14 -143 8 0 10 18 13 122 1 21 -18 36 -27 21z"/>
<path d="M9478 4363 c-5 -67 3 -97 21 -77 10 11 2 144 -9 144 -4 0 -10 -30 -12 -67z"/>
<path d="M4737 4253 c-8 -13 5 -143 14 -143 8 0 10 18 13 122 1 21 -18 36 -27 21z"/>
<path d="M2598 4044 c-135 -179 -145 -193 -198 -260 -25 -31 -56 -71 -70 -89 -14 -18 -45 -58 -70 -90 -25 -32 -54 -70 -65 -85 -11 -15 -40 -53 -65 -85 -49 -63 -81 -106 -108 -146 -9 -14 -39 -55 -65 -90 -58 -77 -217 -319 -217 -331 0 -14 16 -9 35 12 10 11 14 20 10 20 -5 0 4 14 20 30 16 17 25 30 20 30 -5 0 4 13 19 29 15 16 28 33 28 38 1 20 13 41 46 76 20 20 32 37 27 37 -5 0 4 14 20 30 16 17 25 30 20 30 -5 0 9 18 30 40 21 22 35 40 30 40 -5 0 9 18 30 40 21 22 35 40 30 40 -5 0 9 18 30 40 21 22 35 40 30 40 -5 0 9 18 30 40 21 22 35 40 30 40 -5 0 13 23 40 50 27 28 45 50 40 50 -5 0 8 17 28 38 21 21 35 40 32 43 -2 3 20 30 50 59 30 30 55 59 55 65 0 6 13 24 30 40 16 15 27 31 25 35 -2 4 11 22 30 40 19 18 32 36 30 40 -2 4 11 22 30 40 19 18 32 36 30 40 -2 4 11 22 30 40 19 18 32 37 29 41 -2 4 0 10 6 14 13 8 13 25 0 25 -5 0 -55 -61 -112 -136z"/>
<path d="M9517 4053 c-5 -40 6 -64 22 -47 10 11 2 84 -9 84 -4 0 -10 -17 -13 -37z"/>
<path d="M4717 4053 c-8 -13 5 -143 14 -143 8 0 10 18 13 122 1 21 -18 36 -27 21z"/>
<path d="M12330 3879 c-45 -13 -57 -26 -42 -41 8 -8 15 -8 28 2 9 9 42 14 79 15 59 0 86 8 73 20 -11 11 -105 14 -138 4z"/>
<path d="M4696 3872 c-8 -13 6 -122 15 -122 8 0 11 21 13 102 1 22 -18 36 -28 20z"/>
<path d="M12500 3852 c0 -5 9 -17 20 -27 11 -10 20 -14 20 -10 0 5 5 4 12 -3 15 -15 28 -16 28 -2 0 10 -58 50 -72 50 -5 0 -8 -4 -8 -8z"/>
<path d="M12210 3805 c-18 -19 -30 -38 -27 -42 8 -7 77 55 77 69 0 16 -17 7 -50 -27z"/>
<path d="M12575 3770 c-4 -6 0 -19 10 -29 10 -12 14 -27 10 -44 -7 -27 10 -46 27 -29 6 6 5 26 -4 58 -13 48 -30 65 -43 44z"/>
<path d="M12152 3728 c-18 -23 -58 -110 -137 -293 -131 -309 -204 -427 -310 -505 -46 -34 -154 -96 -196 -113 -12 -5 -12 -7 1 -16 10 -7 19 -6 32 5 9 9 21 13 26 10 14 -8 63 19 96 53 16 17 32 28 36 26 3 -2 40 30 80 70 41 41 70 75 65 75 -5 0 4 14 20 30 16 17 25 30 20 30 -4 0 -1 8 8 18 8 9 16 22 17 27 4 25 41 92 60 110 11 10 18 25 15 33 -3 8 2 23 11 33 10 11 13 19 9 19 -4 0 0 9 9 19 10 11 15 25 11 31 -4 6 1 20 11 31 9 10 13 19 9 19 -4 0 0 9 10 20 10 11 14 20 10 20 -4 0 0 9 9 19 10 11 15 24 12 30 -7 10 7 42 33 74 8 9 10 17 6 17 -4 0 0 9 10 20 10 11 14 20 10 20 -4 0 0 9 10 20 10 11 14 20 10 20 -5 0 -4 5 3 12 7 7 12 16 12 20 0 12 -16 10 -28 -4z"/>
<path d="M4676 3712 c-8 -13 6 -122 15 -122 8 0 11 21 13 102 1 22 -18 36 -28 20z"/>
<path d="M9598 3695 c-3 -15 1 -30 9 -37 8 -6 12 -20 10 -29 -3 -10 2 -24 10 -30 8 -7 12 -21 10 -30 -3 -10 1 -24 9 -30 8 -7 12 -20 9 -29 -3 -9 1 -23 10 -30 8 -7 13 -16 10 -20 -3 -5 -1 -11 5 -15 10 -6 47 -80 50 -100 1 -5 8 -17 16 -26 8 -9 12 -18 9 -21 -3 -3 4 -13 15 -23 37 -33 31 -8 -20 94 -29 55 -53 106 -54 113 -1 7 -10 31 -20 53 -9 22 -27 72 -39 112 -12 40 -25 73 -28 73 -4 0 -9 -11 -11 -25z"/>
<path d="M7597 3673 c-8 -14 5 -213 14 -213 5 0 10 36 11 80 1 44 2 92 2 107 1 25 -17 43 -27 26z"/>
<path d="M12620 3585 c0 -19 5 -35 10 -35 6 0 10 16 10 35 0 19 -4 35 -10 35 -5 0 -10 -16 -10 -35z"/>
<path d="M4658 3553 c-8 -14 4 -103 13 -103 5 0 10 18 11 40 0 22 1 45 2 52 1 13 -20 23 -26 11z"/>
<path d="M12596 3471 c-8 -12 5 -101 14 -101 9 0 22 89 14 101 -3 5 -9 9 -14 9 -5 0 -11 -4 -14 -9z"/>
<path d="M4637 3413 c-7 -13 4 -83 14 -83 5 0 10 14 11 30 0 17 1 35 2 42 1 13 -20 23 -27 11z"/>
<path d="M7617 3373 c-8 -13 5 -123 14 -123 5 0 10 20 11 45 1 25 2 53 2 62 1 17 -19 30 -27 16z"/>
<path d="M12577 3333 c-8 -12 4 -63 14 -63 5 0 10 9 11 20 0 11 1 25 2 32 1 14 -20 22 -27 11z"/>
<path d="M4617 3293 c-7 -13 4 -83 14 -83 5 0 10 14 11 30 0 17 1 35 2 42 1 13 -20 23 -27 11z"/>
<path d="M9800 3231 c0 -6 5 -13 10 -16 6 -4 8 -10 5 -14 -2 -5 7 -18 20 -31 13 -13 23 -26 20 -30 -4 -7 239 -253 249 -251 14 2 43 -14 69 -37 15 -14 27 -22 27 -17 0 4 9 0 20 -10 11 -10 20 -14 20 -10 0 4 8 1 19 -9 10 -9 25 -14 33 -11 8 3 20 0 26 -8 12 -14 62 -12 62 2 0 4 -20 12 -43 19 -122 36 -249 118 -358 229 -41 43 -83 89 -92 103 -10 14 -28 42 -42 63 -24 35 -45 48 -45 28z"/>
<path d="M12558 3235 c-8 -9 3 -45 13 -45 5 0 9 7 9 15 0 8 0 18 1 22 1 10 -16 15 -23 8z"/>
<path d="M4597 3173 c-7 -13 4 -73 14 -73 5 0 10 11 11 25 0 14 1 30 2 37 1 14 -20 23 -27 11z"/>
<path d="M12538 3155 c-8 -9 3 -45 13 -45 5 0 9 7 9 15 0 8 0 18 1 22 1 10 -16 15 -23 8z"/>
<path d="M4577 3073 c-7 -13 4 -73 14 -73 5 0 10 11 11 25 0 14 1 30 2 37 1 14 -20 23 -27 11z"/>
<path d="M7655 3071 c-7 -13 5 -91 15 -91 10 0 22 78 15 91 -4 5 -10 9 -15 9 -5 0 -11 -4 -15 -9z"/>
<path d="M12520 3066 c0 -7 -7 -19 -15 -26 -9 -7 -13 -21 -10 -30 3 -9 -2 -23 -10 -30 -11 -9 -14 -22 -10 -40 4 -17 1 -31 -9 -39 -15 -12 -12 -41 5 -41 8 0 69 184 69 209 0 6 -4 11 -10 11 -5 0 -10 -6 -10 -14z"/>
<path d="M4558 2955 c-8 -8 3 -55 13 -55 5 0 9 9 9 20 0 11 0 23 1 27 1 10 -16 15 -23 8z"/>
<path d="M7677 2953 c-7 -13 4 -73 14 -73 5 0 10 11 11 25 0 14 1 30 2 37 1 14 -20 23 -27 11z"/>
<path d="M4537 2874 c-4 -4 -4 -18 -1 -31 4 -15 0 -30 -10 -42 -11 -12 -15 -27 -11 -43 4 -16 1 -29 -9 -37 -10 -8 -13 -22 -10 -40 4 -18 0 -32 -10 -40 -10 -8 -13 -22 -10 -40 4 -17 0 -32 -9 -39 -8 -7 -12 -22 -9 -37 6 -33 18 -32 26 3 3 15 24 96 45 181 22 85 38 158 35 163 -6 10 -18 10 -27 2z"/>
<path d="M7696 2852 c-6 -11 45 -212 55 -212 14 0 16 50 2 62 -9 7 -13 22 -9 39 3 18 0 32 -10 40 -9 7 -14 25 -12 42 3 29 -14 48 -26 29z"/>
<path d="M1702 2808 c-32 -52 -122 -240 -122 -255 0 -19 14 -16 35 7 9 10 15 26 12 34 -3 8 1 20 9 27 8 6 12 14 9 17 -3 3 2 14 12 24 9 10 12 18 8 18 -4 0 0 9 10 20 10 11 14 20 10 20 -4 0 0 9 10 20 10 11 14 20 10 20 -4 0 0 9 10 20 10 11 14 20 10 20 -5 0 -4 5 3 12 14 14 16 28 3 28 -5 0 -18 -15 -29 -32z"/>
<path d="M12440 2820 c0 -11 5 -20 10 -20 6 0 10 9 10 20 0 11 -4 20 -10 20 -5 0 -10 -9 -10 -20z"/>
<path d="M11440 2790 c0 -5 9 -10 20 -10 11 0 20 5 20 10 0 6 -9 10 -20 10 -11 0 -20 -4 -20 -10z"/>
<path d="M10404 2779 c-10 -16 5 -26 31 -21 14 2 25 8 25 12 0 11 -50 19 -56 9z"/>
<path d="M11388 2783 c-10 -3 -18 -8 -18 -13 0 -12 39 -19 46 -8 9 14 -8 25 -28 21z"/>
<path d="M12420 2766 c0 -7 -7 -19 -15 -26 -8 -7 -13 -16 -10 -20 3 -4 -2 -13 -11 -20 -8 -7 -12 -20 -9 -28 3 -8 -2 -23 -11 -33 -9 -10 -13 -23 -9 -29 4 -6 -1 -20 -11 -31 -9 -10 -13 -19 -9 -19 4 0 0 -9 -9 -19 -10 -11 -15 -24 -12 -30 7 -10 -7 -42 -33 -73 -8 -10 -10 -18 -6 -18 4 0 0 -9 -10 -20 -10 -11 -14 -20 -10 -20 4 0 0 -9 -9 -19 -17 -19 -15 -41 4 -41 11 0 48 80 126 274 65 161 72 186 54 186 -5 0 -10 -6 -10 -14z"/>
<path d="M10504 2758 c-10 -17 6 -24 45 -20 23 2 41 8 41 12 0 11 -80 18 -86 8z"/>
<path d="M11278 2763 c-37 -6 -36 -23 2 -24 17 -1 36 -2 43 -3 6 -1 12 6 12 14 0 16 -15 20 -57 13z"/>
<path d="M10683 2737 c-3 -5 -3 -11 0 -13 3 -3 123 -5 268 -6 198 0 264 3 264 12 0 14 -523 21 -532 7z"/>
<path d="M7760 2600 c0 -11 5 -20 10 -20 6 0 10 9 10 20 0 11 -4 20 -10 20 -5 0 -10 -9 -10 -20z"/>
<path d="M7776 2552 c-2 -4 0 -14 5 -22 8 -13 10 -13 18 0 10 15 6 30 -9 30 -5 0 -11 -4 -14 -8z"/>
<path d="M1547 2478 c-22 -57 -46 -155 -49 -198 -2 -26 1 -35 12 -35 11 0 14 10 12 41 -2 27 2 45 12 53 10 8 13 22 10 40 -4 17 0 32 9 39 8 7 13 21 10 31 -2 9 2 23 11 30 14 12 12 41 -4 41 -4 0 -15 -19 -23 -42z"/>
<path d="M7800 2485 c0 -22 61 -165 70 -165 12 0 20 29 10 35 -15 9 -39 65 -34 79 3 7 -2 19 -11 26 -8 7 -15 19 -15 26 0 8 -4 14 -10 14 -5 0 -10 -7 -10 -15z"/>
<path d="M4439 2473 c-1 -4 -1 -15 0 -24 1 -9 -5 -21 -13 -28 -8 -7 -12 -19 -9 -27 3 -8 -3 -24 -12 -34 -10 -11 -14 -20 -10 -20 4 0 0 -9 -9 -19 -10 -11 -15 -25 -11 -31 4 -6 -1 -20 -10 -30 -9 -10 -14 -24 -10 -30 4 -6 -1 -20 -10 -30 -9 -10 -14 -24 -10 -30 4 -6 0 -19 -9 -28 -10 -12 -12 -22 -6 -32 5 -8 12 -12 15 -8 7 7 122 328 127 354 2 9 -3 19 -9 21 -7 3 -14 1 -14 -4z"/>
<path d="M7880 2292 c0 -18 60 -132 70 -132 13 0 13 17 0 25 -6 4 -8 14 -5 24 3 11 -4 26 -20 41 -14 13 -25 29 -25 37 0 7 -4 13 -10 13 -5 0 -10 -4 -10 -8z"/>
<path d="M12205 2280 c-10 -11 -14 -20 -10 -20 4 0 0 -9 -11 -21 -10 -12 -18 -24 -18 -28 3 -14 -15 -47 -35 -65 -11 -10 -19 -22 -16 -26 2 -4 -7 -17 -20 -30 -13 -13 -22 -26 -20 -30 3 -4 -4 -15 -15 -25 -11 -10 -20 -23 -20 -29 0 -7 -25 -36 -55 -66 -30 -29 -52 -56 -49 -59 2 -3 -34 -44 -82 -92 -60 -61 -82 -89 -73 -94 8 -6 37 18 86 71 69 74 94 104 190 229 60 78 183 279 183 300 0 11 -18 4 -35 -15z"/>
<path d="M1480 2070 c0 -73 4 -120 10 -120 6 0 10 47 10 120 0 73 -4 120 -10 120 -6 0 -10 -47 -10 -120z"/>
<path d="M7960 2132 c0 -23 110 -181 221 -318 64 -79 175 -181 301 -277 55 -43 285 -197 293 -197 3 0 33 -17 68 -38 92 -56 317 -162 343 -162 8 0 14 5 14 10 0 6 -6 10 -14 10 -7 0 -19 7 -26 15 -7 8 -16 13 -20 10 -4 -3 -13 2 -20 11 -7 8 -19 13 -26 10 -16 -6 -218 95 -250 125 -13 12 -24 19 -24 14 0 -4 -9 0 -21 11 -12 10 -22 18 -23 16 -3 -7 -53 17 -65 32 -7 9 -19 16 -26 16 -6 0 -20 9 -30 20 -10 11 -23 20 -30 20 -7 0 -20 9 -30 20 -10 11 -23 20 -30 20 -6 0 -24 14 -40 30 -16 17 -34 30 -40 30 -6 0 -35 25 -65 55 -29 30 -56 52 -60 50 -4 -2 -33 23 -65 55 -33 33 -55 60 -50 60 5 0 -17 27 -50 60 -33 33 -55 60 -50 60 5 0 -9 18 -30 40 -21 22 -35 40 -30 40 5 0 -7 17 -27 38 -30 32 -49 63 -49 82 0 3 -8 13 -16 23 -17 18 -33 23 -33 9z"/>
<path d="M4291 2048 c-8 -18 -21 -41 -29 -50 -8 -10 -11 -18 -7 -18 4 0 0 -9 -10 -20 -10 -11 -14 -20 -10 -20 4 0 0 -9 -10 -20 -10 -11 -14 -20 -10 -20 4 0 1 -8 -8 -17 -8 -10 -16 -22 -17 -28 -5 -28 -41 -93 -65 -115 -23 -22 -50 -68 -45 -78 1 -2 -11 -17 -26 -33 -15 -16 -24 -29 -19 -29 5 0 -9 -18 -30 -40 -21 -22 -35 -40 -30 -40 5 0 -35 -45 -89 -99 -55 -55 -103 -98 -106 -96 -4 2 -29 -19 -56 -46 -42 -43 -94 -78 -101 -67 -1 2 -19 -13 -40 -33 -31 -29 -101 -71 -123 -74 -3 0 -12 -5 -20 -10 -41 -27 -104 -54 -112 -49 -5 3 -18 -2 -29 -12 -10 -9 -19 -13 -19 -9 0 4 -9 0 -20 -10 -10 -9 -26 -15 -34 -12 -8 3 -20 -1 -27 -9 -7 -9 -21 -13 -31 -11 -20 6 -33 -7 -23 -23 8 -12 186 51 290 103 219 110 452 302 587 482 103 138 194 289 254 420 15 33 31 68 35 77 11 22 11 38 1 38 -4 0 -13 -15 -21 -32z"/>
<path d="M1497 1893 c-7 -13 4 -83 14 -83 5 0 10 14 11 30 0 17 1 35 2 42 1 13 -20 23 -27 11z"/>
<path d="M1520 1760 c0 -11 5 -20 10 -20 6 0 10 9 10 20 0 11 -4 20 -10 20 -5 0 -10 -9 -10 -20z"/>
<path d="M1536 1712 c-12 -20 68 -194 138 -299 43 -66 212 -241 270 -279 16 -10 41 -27 55 -36 78 -52 269 -138 306 -138 8 0 15 5 15 10 0 6 -6 10 -14 10 -7 0 -19 7 -26 15 -7 9 -21 13 -30 10 -9 -3 -23 1 -30 10 -7 8 -17 12 -22 9 -13 -8 -95 33 -130 64 -14 13 -30 24 -35 24 -21 1 -50 19 -77 47 -16 16 -32 28 -36 26 -3 -2 -51 41 -106 96 -54 54 -94 99 -89 99 5 0 -4 13 -19 29 -15 16 -28 33 -28 38 -1 18 -17 49 -32 62 -21 18 -47 71 -40 83 3 5 -2 18 -12 29 -9 10 -14 19 -9 19 4 0 1 7 -6 17 -8 9 -14 25 -14 36 0 22 -19 34 -29 19z"/>
<path d="M11680 1615 c-41 -41 -76 -72 -79 -70 -3 3 -22 -11 -43 -32 -21 -20 -38 -33 -38 -28 0 5 -18 -9 -40 -30 -22 -21 -40 -35 -40 -30 0 4 -9 0 -20 -10 -11 -10 -20 -14 -20 -10 0 5 -17 -7 -37 -27 -34 -32 -63 -49 -79 -47 -3 1 -18 -10 -32 -23 -36 -31 -71 -50 -81 -43 -12 7 -64 -20 -86 -45 -10 -11 -24 -20 -32 -20 -7 0 -13 -4 -13 -10 0 -5 5 -10 10 -10 26 0 320 161 365 200 11 9 27 20 35 24 8 3 31 19 51 34 19 15 54 41 77 58 80 61 195 175 186 184 -6 6 -38 -18 -84 -65z"/>
<path d="M10979 1174 c-6 -8 -20 -12 -29 -9 -9 3 -23 -1 -30 -10 -7 -8 -16 -13 -20 -10 -4 3 -13 -2 -20 -10 -7 -8 -19 -15 -26 -15 -8 0 -14 -4 -14 -10 0 -5 5 -10 10 -10 20 0 170 62 170 70 0 15 -29 19 -41 4z"/>
<path d="M9233 1143 c-7 -3 -13 -8 -13 -13 0 -13 149 -60 155 -49 10 15 -4 27 -23 22 -10 -2 -24 2 -31 11 -7 8 -19 12 -27 9 -8 -3 -22 1 -32 9 -9 9 -23 13 -29 11z"/>
<path d="M10760 1095 c-7 -9 -22 -14 -34 -13 -12 2 -21 -3 -21 -9 0 -7 3 -13 8 -14 18 -2 107 25 107 33 0 4 -4 8 -9 8 -5 0 -16 2 -24 5 -7 3 -20 -1 -27 -10z"/>
<path d="M9418 1083 c-10 -2 -18 -8 -18 -12 0 -13 204 -61 214 -51 15 15 -4 29 -32 24 -19 -4 -32 0 -41 10 -8 10 -22 13 -40 10 -18 -4 -32 0 -40 10 -8 9 -16 15 -20 15 -3 -1 -14 -3 -23 -6z"/>
<path d="M10625 1060 c-11 -17 7 -30 33 -24 21 6 31 24 13 24 -5 0 -16 3 -24 6 -8 3 -18 0 -22 -6z"/>
<path d="M10520 1035 c-10 -13 -24 -16 -52 -12 -37 5 -59 -7 -42 -23 11 -11 174 19 174 31 0 5 -6 9 -12 9 -7 0 -22 3 -34 6 -12 3 -26 -1 -34 -11z"/>
<path d="M9678 1022 c-16 -2 -28 -7 -28 -12 0 -11 60 -18 67 -7 8 14 -9 23 -39 19z"/>
<path d="M9818 1003 c-61 -5 -63 -22 -3 -25 25 -1 53 -2 63 -2 9 -1 17 6 17 14 0 17 -10 18 -77 13z"/>
<path d="M10245 1000 c-13 -22 9 -28 78 -23 72 6 93 23 28 23 -21 0 -52 3 -69 6 -18 4 -32 1 -37 -6z"/>
<path d="M10030 970 c0 -5 20 -10 45 -10 25 0 45 5 45 10 0 6 -20 10 -45 10 -25 0 -45 -4 -45 -10z"/>
<path d="M2363 962 c-13 -2 -23 -7 -23 -12 0 -12 50 -19 56 -8 9 14 -8 25 -33 20z"/>
<path d="M3064 959 c-10 -16 5 -26 31 -21 14 2 25 8 25 12 0 11 -50 19 -56 9z"/>
<path d="M2448 943 c-35 -5 -37 -22 -3 -24 14 -1 31 -2 38 -3 14 -1 17 27 2 29 -5 1 -22 0 -37 -2z"/>
<path d="M2965 940 c-11 -18 7 -29 38 -23 28 6 38 23 13 23 -8 0 -21 3 -29 6 -8 3 -18 0 -22 -6z"/>
<path d="M2588 923 c-90 -6 -68 -20 43 -28 105 -7 289 2 289 15 0 16 -176 22 -332 13z"/>
</g>
</g>
</svg>
