<svg xmlns="http://www.w3.org/2000/svg" version="1.0" width="194.000000pt" height="208.000000pt" viewBox="0 0 194.000000 208.000000" preserveAspectRatio="xMidYMid meet">
  <g transform="translate(0.000000,208.000000) scale(0.100000,-0.100000)" stroke="none">
    <path stroke="none" d="M903 2023 c-4 -9 -1 -68 5 -132 6 -64 16 -174 22 -246 6 -71 15 -171 20 -222 6 -50 10 -110 10 -132 0 -68 17 -46 24 32 18 188 27 280 36 372 22 215 29 317 23 330 -8 23 -131 21 -140 -2z" fill="#2ee8b3" id="2ee8b3-000001"/>
    <path stroke="none" d="M1271 1688 c-8 -18 -33 -73 -56 -123 -23 -49 -54 -117 -69 -150 -15 -33 -35 -77 -46 -98 -21 -40 -26 -67 -12 -67 4 0 39 48 77 107 39 59 100 150 138 202 37 52 67 102 67 112 0 19 -41 49 -67 49 -11 0 -24 -13 -32 -32z" fill="#2ee8b3" id="2ee8b3-000002"/>
    <path stroke="none" d="M570 1697 c-42 -21 -37 -50 24 -132 31 -41 82 -110 113 -152 31 -43 75 -103 97 -133 22 -30 42 -57 43 -59 2 -2 5 -2 8 0 5 6 -215 450 -235 474 -15 18 -18 18 -50 2z" fill="#2ee8b3" id="2ee8b3-000003"/>
    <path stroke="none" d="M1674 1527 c-71 -51 -147 -105 -169 -121 -22 -17 -62 -46 -90 -66 -58 -42 -144 -104 -198 -144 -52 -38 -39 -44 25 -13 50 24 126 60 376 178 203 96 254 122 259 136 5 14 -36 92 -60 111 -10 9 -41 -8 -143 -81z" fill="#2ee8b3" id="2ee8b3-000004"/>
    <path stroke="none" d="M93 1588 c-26 -37 -53 -99 -48 -109 7 -10 50 -32 178 -88 55 -24 117 -52 185 -82 26 -12 65 -29 87 -39 22 -10 63 -28 90 -40 28 -12 66 -29 85 -37 19 -8 43 -19 53 -25 16 -8 38 -4 26 5 -12 10 -163 114 -299 207 -85 59 -192 132 -237 163 -83 59 -104 66 -120 45z" fill="#2ee8b3" id="2ee8b3-000005"/>
    <path stroke="none" d="M1555 1090 c-111 -15 -281 -30 -333 -30 -100 0 -51 -18 81 -29 72 -6 179 -16 237 -21 164 -15 177 -14 184 15 4 14 4 36 0 50 -6 23 -11 25 -58 24 -28 -1 -78 -5 -111 -9z" fill="#2ee8b3" id="2ee8b3-000010"/>
    <path stroke="none" d="M213 1083 c-18 -6 -17 -82 1 -89 13 -5 73 -1 381 26 55 5 109 12 119 16 19 7 19 8 0 15 -10 4 -50 8 -89 8 -38 1 -108 5 -155 10 -110 13 -242 19 -257 14z" fill="#2ee8b3" id="2ee8b3-000011"/>
    <path stroke="none" d="M720 910 c-8 -6 -71 -36 -140 -69 -562 -265 -535 -250 -523 -286 9 -29 54 -95 65 -95 9 0 56 33 288 200 27 19 101 73 165 120 64 47 130 94 146 105 39 27 39 49 -1 25z" fill="#2ee8b3" id="2ee8b3-000014"/>
    <path stroke="none" d="M1180 913 c1 -8 10 -15 270 -193 85 -59 198 -136 252 -173 53 -37 103 -67 112 -67 19 0 76 97 69 117 -3 7 -24 22 -47 32 -41 19 -100 45 -178 80 -103 45 -146 65 -198 88 -30 14 -73 33 -95 43 -89 39 -141 62 -157 71 -21 11 -28 11 -28 2z" fill="#2ee8b3" id="2ee8b3-000015"/>
    <path stroke="none" d="M788 767 c-117 -165 -228 -336 -228 -352 0 -18 59 -57 73 -48 9 6 59 110 173 361 14 31 33 72 41 90 28 60 8 42 -59 -51z" fill="#2ee8b3" id="2ee8b3-000021"/>
    <path stroke="none" d="M1080 843 c0 -23 231 -458 244 -461 22 -5 66 27 66 48 0 9 -15 37 -33 61 -39 51 -153 206 -217 296 -42 57 -60 74 -60 56z" fill="#2ee8b3" id="2ee8b3-000022"/>
    <path stroke="none" d="M956 743 c-15 -188 -25 -304 -37 -438 -7 -77 -13 -167 -14 -200 l0 -60 66 -3 c52 -2 68 0 72 12 6 14 -1 114 -23 331 -9 92 -18 184 -36 373 -4 39 -10 72 -14 72 -4 0 -10 -39 -14 -87z" fill="#2ee8b3" id="2ee8b3-000020"/>
  </g>
</svg>
