<?xml version="1.0" standalone="no"?>
<!DOCTYPE svg PUBLIC "-//W3C//DTD SVG 1.1//EN"
 "http://www.w3.org/Graphics/SVG/1.1/DTD/svg11.dtd">
<!-- Created with svg_stack (http://github.com/astraw/svg_stack) -->
<svg xmlns:sodipodi="http://sodipodi.sourceforge.net/DTD/sodipodi-0.dtd" xmlns="http://www.w3.org/2000/svg" version="1.1" width="2574.0" height="758.0">
  <defs/>
  <g id="id0:id0" transform="matrix(1.25,0,0,1.25,0.0,0.0)"><g transform="translate(0.000000,606.400000) scale(0.040000,-0.040000)" fill="#53b3c8" stroke="none">
<path d="M24352 15050 c-89 -4 -187 -11 -217 -15 -50 -6 -54 -8 -45 -26 6 -10 19 -19 30 -19 10 0 21 -4 25 -9 3 -5 30 -13 60 -16 59 -8 87 -27 67 -47 -16 -16 -17 -1044 -2 -1053 6 -3 10 -26 10 -50 0 -38 -4 -46 -34 -64 -18 -12 -47 -21 -64 -21 -17 0 -34 -4 -37 -10 -3 -5 -15 -10 -26 -10 -22 0 -63 -37 -49 -45 28 -17 282 -25 897 -25 451 0 694 3 698 10 3 6 17 10 31 10 18 0 24 5 22 18 -2 13 6 18 41 22 82 9 79 -12 80 591 1 314 -3 529 -8 535 -6 5 -11 50 -12 99 l-2 90 49 11 49 11 -60 6 c-95 10 -1323 16 -1503 7z"/>
<path d="M23930 12639 c-459 -5 -857 -13 -885 -18 -27 -4 -39 -9 -27 -10 14 0 26 -9 29 -20 6 -22 46 -31 141 -31 73 0 112 -20 112 -56 0 -12 5 -26 10 -29 6 -4 10 -182 10 -500 0 -318 4 -496 10 -500 6 -3 10 -24 10 -46 0 -29 -5 -41 -17 -46 -10 -4 -24 -15 -31 -25 -11 -15 -27 -18 -90 -18 -42 0 -94 -3 -115 -7 -37 -6 -39 -7 -33 -36 3 -16 2 -35 -4 -42 -7 -9 95 -13 448 -18 597 -9 2076 -9 2463 0 310 7 374 20 106 22 -81 1 -155 5 -165 10 -9 5 -26 12 -36 16 -18 5 -17 7 7 33 l27 28 0 565 c0 332 -4 569 -9 575 -5 5 -11 32 -12 59 l-3 50 194 7 c188 7 357 22 315 28 -48 6 -119 7 -850 12 -423 3 -1146 2 -1605 -3z"/>
<path d="M21541 10219 c-443 -5 -811 -11 -818 -13 -7 -3 -13 -12 -13 -20 0 -12 19 -16 103 -18 91 -3 102 -5 99 -20 -3 -16 7 -18 86 -18 67 0 93 -4 102 -15 10 -12 44 -15 191 -15 108 0 180 -4 184 -10 3 -5 21 -10 40 -10 65 0 64 2 65 -572 1 -578 5 -548 -76 -548 -24 0 -46 -4 -49 -10 -3 -5 -37 -10 -75 -10 -38 0 -72 -4 -75 -10 -8 -13 -62 -13 -70 0 -8 12 -103 11 -127 -1 -9 -5 -18 -21 -20 -36 -2 -17 -12 -32 -26 -39 -18 -9 124 -13 625 -20 906 -11 3918 -11 4628 1 635 10 659 22 49 24 -299 1 -353 3 -364 16 -16 20 3 45 34 45 45 0 89 84 56 105 -6 4 -10 188 -10 520 0 332 -4 516 -10 520 -5 3 -10 16 -10 29 0 40 -39 66 -102 66 -36 0 -60 5 -67 14 -7 8 -8 17 -3 20 5 3 104 6 220 6 117 1 214 5 216 9 13 20 -3091 27 -4783 10z"/>
<path d="M20494 10199 c-10 -17 13 -36 27 -22 12 12 4 33 -11 33 -5 0 -12 -5 -16 -11z"/>
<path d="M20575 10200 c-4 -7 -3 -16 3 -22 14 -14 47 -6 47 12 0 18 -40 26 -50 10z"/>
<path d="M22155 7805 c-11 -2 -851 -6 -1867 -8 -1702 -3 -1849 -4 -1860 -20 -7 -9 -26 -22 -43 -28 l-30 -13 25 -3 c14 -2 34 -8 45 -13 11 -5 93 -10 182 -12 113 -2 166 -7 175 -15 15 -16 244 -18 253 -3 3 6 34 10 69 10 50 0 67 -4 81 -20 14 -16 31 -20 80 -20 33 0 65 -4 71 -9 5 -5 25 -11 44 -13 l35 -3 3 -704 c1 -506 5 -708 13 -718 9 -10 8 -18 -6 -33 -16 -17 -31 -20 -110 -20 -50 0 -95 -4 -100 -9 -6 -5 -121 -11 -257 -13 -180 -2 -250 -6 -260 -15 -6 -7 -28 -13 -48 -13 -20 0 -41 -5 -48 -12 -9 -9 -15 -9 -24 0 -15 15 -84 16 -93 2 -3 -5 -21 -10 -39 -10 -25 0 -35 -5 -39 -20 -4 -17 -15 -20 -83 -22 -44 -2 65 -7 241 -13 626 -20 8612 -11 8632 9 7 6 -375 14 -771 15 -219 1 -403 4 -408 7 -5 3 -4 12 3 20 8 10 34 14 85 14 40 0 76 5 79 10 3 6 22 10 41 10 31 0 34 3 34 29 0 20 -6 30 -20 34 l-20 5 0 744 0 744 -36 14 c-34 14 -58 45 -47 63 2 4 28 7 58 7 30 0 57 5 60 10 4 6 220 10 616 10 399 0 609 3 609 10 0 7 -281 10 -823 10 -453 0 -1647 2 -2653 4 -1006 3 -1838 3 -1849 1z"/>
<path d="M27500 7790 c0 -5 5 -10 10 -10 6 0 10 5 10 10 0 6 -4 10 -10 10 -5 0 -10 -4 -10 -10z"/>
</g>
</g>
  <g id="id1:id1" transform="matrix(1.25,0,0,1.25,0.0,0.0)"><g transform="translate(0.000000,606.400000) scale(0.040000,-0.040000)" fill="#0599b3" stroke="none">
<path d="M22055 15051 c-10 -17 -6 -1394 4 -1404 11 -11 2623 -1 2716 11 39 5 66 10 60 12 -5 1 -133 5 -283 9 -262 6 -305 12 -255 35 34 16 58 96 33 111 -6 4 -10 193 -10 535 0 342 4 531 10 535 19 12 10 61 -15 85 -13 12 -22 27 -19 31 3 5 85 9 183 9 98 0 207 3 242 7 l64 7 -50 9 c-78 13 -2671 21 -2680 8z"/>
<path d="M19450 12638 c-13 -12 -15 -106 -12 -711 l2 -697 2018 0 c1963 0 2889 7 2787 21 -27 4 -253 8 -501 8 -365 1 -454 4 -463 14 -13 16 -5 27 19 27 10 0 23 7 30 15 18 22 70 45 102 45 24 0 28 4 28 28 0 22 -7 30 -40 45 -36 15 -40 21 -40 51 0 19 -4 38 -10 41 -6 4 -10 170 -10 465 0 295 4 461 10 465 13 8 13 58 1 71 -5 5 -11 23 -13 39 l-3 30 403 6 c222 4 461 10 530 15 116 7 122 9 72 15 -30 4 -1144 11 -2475 15 -2132 6 -2422 5 -2435 -8z"/>
<path d="M14677 10223 c-10 -10 -8 -1376 2 -1392 7 -11 627 -13 4032 -8 2213 3 4035 8 4049 10 14 3 147 6 295 7 248 3 259 4 135 11 -74 3 -471 7 -883 8 -437 1 -754 5 -765 10 -9 5 -25 12 -36 15 -33 11 1 36 49 36 29 0 47 6 60 20 14 15 31 20 72 20 l53 0 0 30 c0 27 -3 30 -32 30 -21 0 -41 9 -60 27 l-28 27 0 496 c0 548 0 550 -57 550 -17 0 -35 5 -38 10 -4 6 -78 10 -190 10 -112 0 -186 4 -190 10 -3 6 -30 10 -59 10 -50 0 -86 17 -69 33 3 4 453 7 1000 7 646 0 993 3 993 10 0 13 -529 15 -4826 18 -1925 1 -3504 -1 -3507 -5z"/>
<path d="M8932 7803 c-9 -7 -12 -193 -10 -894 l3 -884 6130 0 c3850 0 6253 4 6460 10 l330 10 -275 6 c-151 4 -795 7 -1431 8 -636 0 -1159 4 -1162 8 -4 3 -2 12 4 20 9 10 45 13 145 13 78 0 135 4 139 10 3 6 48 10 99 10 84 0 95 2 114 23 23 24 30 71 12 82 -5 3 -10 30 -10 60 0 30 -5 57 -10 60 -7 4 -10 238 -10 668 l0 662 -27 13 c-15 6 -61 12 -103 12 -64 0 -80 3 -95 20 l-18 20 -376 2 c-242 2 -376 7 -376 13 0 20 235 23 1889 24 924 1 1682 4 1685 6 2 3 2 8 -2 11 -10 10 -13091 16 -13105 7z m9947 -1716 c17 -21 3 -27 -69 -27 -72 0 -86 6 -69 27 7 8 33 13 69 13 36 0 62 -5 69 -13z"/>
<path d="M1120 1156 c0 -9 5 -16 10 -16 6 0 10 4 10 9 0 6 -4 13 -10 16 -5 3 -10 -1 -10 -9z"/>
</g>
</g>
  <g id="id2:id2" transform="matrix(1.25,0,0,1.25,0.0,0.0)"><g transform="translate(0.000000,606.400000) scale(0.040000,-0.040000)" fill="#85c6d7" stroke="none">
<path d="M25510 15050 c-74 -4 -145 -8 -157 -9 -34 -2 -27 -21 7 -21 17 0 39 -6 50 -12 16 -10 24 -10 41 0 15 10 24 11 32 3 6 -6 28 -11 48 -11 21 0 41 -4 44 -10 3 -5 30 -10 59 -10 28 0 56 -4 62 -9 5 -5 25 -11 44 -13 l35 -3 3 -589 c2 -660 6 -626 -68 -626 -45 0 -90 -20 -90 -41 0 -8 10 -25 23 -37 l23 -22 557 0 c360 0 558 4 562 10 3 6 15 10 27 10 14 0 18 5 14 15 -4 11 6 20 32 32 21 9 43 27 50 41 9 19 12 179 12 626 0 541 -2 601 -16 618 -13 14 -14 21 -5 32 10 11 4 15 -31 20 -69 9 -1210 15 -1358 6z"/>
<path d="M26103 12643 l-483 -3 0 -20 c0 -16 7 -20 36 -20 27 0 37 -5 41 -20 3 -13 14 -20 29 -20 12 0 26 -4 29 -10 3 -5 17 -10 30 -10 25 0 55 -45 55 -81 0 -10 5 -21 10 -24 6 -4 10 -189 10 -523 l0 -516 -27 -28 c-23 -24 -35 -28 -79 -28 l-53 0 -3 -37 -3 -38 -152 -5 c-83 -3 -154 -8 -157 -11 -12 -12 523 -19 1374 -19 891 0 1327 7 1313 21 -5 5 -85 10 -178 11 l-170 3 -3 23 c-2 14 3 24 15 29 10 3 28 15 41 26 l22 20 0 562 0 562 -25 49 c-13 26 -21 51 -17 55 7 6 350 29 435 29 28 0 46 4 42 10 -3 5 -150 9 -368 9 -199 1 -569 2 -822 4 -253 2 -677 2 -942 0z"/>
<path d="M26079 10225 c-3 -2 -293 -5 -644 -5 l-638 -1 28 -29 29 -30 247 0 c155 0 250 -4 254 -10 4 -6 78 -10 190 -10 112 0 186 -4 190 -10 4 -6 54 -10 118 -10 l111 0 28 -27 c15 -15 28 -37 28 -49 0 -13 5 -26 10 -29 15 -9 14 -922 -1 -931 -7 -4 -9 -25 -7 -55 5 -52 -4 -69 -38 -69 -13 0 -26 -4 -29 -10 -3 -5 -26 -10 -50 -10 -24 0 -47 -4 -50 -10 -3 -5 -21 -10 -40 -10 -29 0 -34 -4 -37 -27 l-3 -28 -317 -5 c-174 -3 -319 -8 -323 -11 -16 -17 517 -22 2290 -23 1824 -1 2605 7 2560 25 -11 4 -158 8 -328 8 l-307 1 -11 27 c-8 22 -6 30 15 52 l25 26 1 547 c0 362 -3 549 -10 553 -5 3 -10 14 -10 24 0 9 -6 29 -12 44 l-13 27 -76 0 c-43 0 -80 5 -86 11 -7 7 -29 13 -50 14 -48 2 -50 19 -3 21 95 5 17 9 -265 14 -403 7 -2770 12 -2776 5z"/>
<path d="M26343 7803 c-950 -2 -1443 -6 -1443 -13 0 -6 93 -10 256 -10 l256 0 5 -20 c4 -16 14 -20 49 -20 23 0 46 -4 49 -10 3 -5 19 -10 35 -10 16 0 32 5 35 10 3 6 24 10 45 10 21 0 42 -4 45 -10 3 -5 44 -10 90 -10 49 0 87 -4 90 -11 4 -6 24 -10 44 -8 20 1 71 1 114 0 69 -1 80 -4 84 -20 3 -11 13 -21 24 -24 10 -3 19 -12 19 -20 0 -8 9 -17 20 -20 l20 -5 0 -720 0 -721 -32 -15 c-19 -10 -57 -16 -99 -16 -37 0 -71 -4 -74 -10 -4 -6 -58 -10 -130 -10 -72 0 -126 -4 -130 -10 -3 -5 -19 -10 -35 -10 -16 0 -45 -9 -65 -20 -34 -19 -55 -20 -418 -21 -210 -1 -470 -4 -577 -8 l-195 -6 90 -10 c56 -6 1281 -10 3270 -10 3010 0 3687 3 3885 15 l85 5 -145 7 c-80 5 -249 8 -376 8 -127 0 -234 3 -237 7 -13 13 16 33 49 33 18 0 36 5 39 10 3 6 43 10 88 10 l82 0 13 27 c16 35 18 1468 2 1478 -5 3 -10 16 -10 29 0 31 -40 66 -76 67 -31 1 -86 28 -88 44 -1 6 146 11 407 13 260 1 407 6 407 12 0 7 -265 10 -758 10 -417 0 -1346 2 -2063 3 -717 2 -1953 2 -2746 0z"/>
</g>
</g>
  <g id="id3:id3" transform="matrix(1.25,0,0,1.25,0.0,0.0)"><g transform="translate(0.000000,606.400000) scale(0.040000,-0.040000)" fill="#aed8e5" stroke="none">
<path d="M26510 15050 c-142 -8 -142 -8 -115 -20 11 -5 82 -9 158 -9 130 -1 139 -2 144 -21 4 -17 14 -20 54 -20 48 0 75 -10 112 -39 16 -13 17 -52 17 -566 0 -464 -2 -557 -15 -581 -9 -19 -33 -37 -70 -54 -61 -28 -68 -45 -32 -78 l23 -22 585 0 586 0 10 23 c6 12 20 42 32 65 13 27 21 63 21 92 0 27 5 52 10 55 6 3 10 19 10 35 0 16 -4 32 -10 35 -13 8 -14 801 -1 809 5 4 9 38 9 76 0 38 -4 72 -9 76 -5 3 -9 25 -9 49 0 24 -5 47 -11 50 -6 4 -8 13 -5 20 3 9 -14 14 -62 19 -105 9 -1293 15 -1432 6z"/>
<path d="M28340 12645 c-14 -2 -281 -7 -595 -10 -551 -5 -745 -13 -681 -26 15 -4 112 -7 215 -8 102 -1 190 -6 196 -12 5 -5 28 -9 51 -9 24 0 46 -4 49 -10 3 -5 21 -10 40 -10 19 0 37 -4 40 -10 3 -5 17 -10 30 -10 16 0 28 -9 39 -32 14 -27 16 -100 16 -573 0 -512 -1 -543 -18 -558 -10 -10 -32 -17 -49 -17 -17 0 -38 -8 -48 -20 -11 -12 -31 -20 -51 -20 -28 0 -33 -4 -36 -27 l-3 -28 -117 -5 c-373 -17 145 -30 1203 -30 886 0 1544 9 1514 21 -11 4 -111 8 -223 8 -111 1 -210 5 -220 10 -9 5 -25 12 -34 15 -24 7 -23 39 2 61 l20 18 0 567 0 566 25 51 25 50 69 7 c37 3 161 9 274 13 114 3 207 10 207 14 0 5 -262 8 -582 8 -321 1 -752 3 -958 5 -206 3 -386 3 -400 1z"/>
<path d="M28478 10223 c-447 -2 -688 -7 -688 -13 0 -6 132 -10 369 -10 236 0 372 -4 376 -10 3 -6 49 -10 102 -10 86 0 95 -2 100 -20 l5 -20 194 0 c118 0 195 -4 199 -10 3 -5 39 -10 80 -10 l74 0 15 -32 c14 -27 16 -99 16 -563 0 -503 -1 -533 -18 -548 -10 -10 -32 -17 -49 -17 -17 0 -38 -8 -48 -20 -10 -11 -28 -20 -41 -20 -17 0 -23 -6 -26 -27 l-3 -28 -320 -6 c-898 -16 135 -33 2085 -33 1869 -1 2507 5 2455 24 -11 4 -137 8 -279 9 -143 1 -265 6 -270 10 -6 5 -20 11 -31 13 -16 3 -19 10 -17 39 3 30 0 37 -17 42 l-21 5 0 545 c0 353 -4 548 -10 552 -5 3 -10 17 -10 30 0 26 -63 85 -92 85 -9 0 -21 8 -26 17 -9 15 -53 17 -473 23 -455 7 -2268 8 -3631 3z"/>
<path d="M33404 8848 c-3 -4 11 -8 30 -8 20 0 36 2 36 4 0 8 -61 12 -66 4z"/>
<path d="M31008 7803 c-720 -2 -1098 -7 -1098 -13 0 -6 111 -10 311 -10 l311 0 5 -20 c5 -19 14 -20 139 -20 78 0 135 -4 139 -10 3 -5 39 -10 80 -10 41 0 77 -4 80 -10 3 -5 30 -10 60 -10 30 0 57 -4 60 -10 3 -5 21 -10 39 -10 22 0 40 -9 59 -28 l27 -28 -2 -730 -3 -729 -85 -3 c-47 -2 -89 -7 -94 -12 -6 -6 -25 -10 -42 -10 -18 0 -36 -4 -39 -10 -3 -5 -26 -10 -50 -10 -24 0 -47 -4 -50 -10 -3 -5 -44 -10 -89 -10 -75 0 -84 -2 -89 -20 l-5 -20 -514 0 c-517 0 -798 -7 -798 -20 0 -13 452 -15 3685 -15 1895 0 3333 4 3510 10 l300 10 -140 6 c-77 4 -206 7 -286 8 -80 0 -149 4 -152 8 -12 11 35 53 60 53 l23 0 0 769 c0 503 -3 772 -10 776 -18 11 -11 47 9 52 12 3 21 15 23 32 l3 26 308 3 c193 1 307 6 307 12 0 7 -309 10 -882 10 -486 0 -1587 2 -2448 3 -861 2 -2059 2 -2662 0z m5172 -1718 c10 -12 9 -16 -4 -21 -9 -3 -23 -3 -32 0 -13 5 -14 9 -4 21 7 8 16 15 20 15 4 0 13 -7 20 -15z"/>
<path d="M37020 7790 c0 -5 5 -10 10 -10 6 0 10 5 10 10 0 6 -4 10 -10 10 -5 0 -10 -4 -10 -10z"/>
<path d="M37060 7790 c0 -5 5 -10 10 -10 6 0 10 5 10 10 0 6 -4 10 -10 10 -5 0 -10 -4 -10 -10z"/>
<path d="M37100 7790 c0 -5 5 -10 10 -10 6 0 10 5 10 10 0 6 -4 10 -10 10 -5 0 -10 -4 -10 -10z"/>
<path d="M37140 7790 c0 -5 5 -10 10 -10 6 0 10 5 10 10 0 6 -4 10 -10 10 -5 0 -10 -4 -10 -10z"/>
<path d="M29240 6040 c0 -5 5 -10 10 -10 6 0 10 5 10 10 0 6 -4 10 -10 10 -5 0 -10 -4 -10 -10z"/>
<path d="M29320 6040 c0 -5 5 -10 10 -10 6 0 10 5 10 10 0 6 -4 10 -10 10 -5 0 -10 -4 -10 -10z"/>
</g>
</g>
  <g id="id4:id4" transform="matrix(1.25,0,0,1.25,0.0,0.0)"><g transform="translate(0.000000,606.400000) scale(0.040000,-0.040000)" fill="#dfeff5" stroke="none">
<path d="M27565 15050 c-158 -11 -166 -12 -105 -20 30 -5 131 -8 223 -9 160 -1 169 -2 174 -21 4 -16 14 -20 48 -20 79 0 75 35 75 -597 l0 -561 -30 -57 c-38 -72 -39 -102 -4 -115 15 -6 284 -10 694 -10 600 0 668 2 674 16 3 9 6 323 6 698 0 517 -3 685 -12 694 -9 9 -204 12 -822 10 -446 -1 -860 -5 -921 -8z"/>
<path d="M29785 12638 c-407 -4 -758 -9 -780 -11 -22 -1 -74 -5 -115 -7 l-75 -3 85 -8 c47 -4 175 -7 285 -8 114 -1 205 -5 211 -11 5 -5 54 -11 109 -12 l100 -3 -3 -35 c-2 -26 2 -41 17 -54 l21 -19 0 -527 0 -527 -19 -17 c-11 -10 -21 -30 -23 -45 -3 -23 -8 -26 -48 -29 -25 -2 -49 -7 -54 -13 -6 -5 -20 -9 -32 -9 -13 0 -24 -8 -27 -20 -5 -19 -14 -20 -174 -21 -153 0 -211 -4 -220 -13 -2 -1 178 -6 399 -9 562 -10 2410 -9 2419 0 5 5 9 320 10 702 1 573 -1 695 -12 702 -16 10 -977 9 -2074 -3z"/>
<path d="M31558 10223 c-521 -2 -798 -7 -798 -13 0 -7 254 -10 733 -10 l734 0 16 -18 c10 -10 17 -24 17 -30 0 -9 38 -12 134 -12 79 0 137 -4 141 -10 3 -5 21 -10 39 -10 38 0 86 -43 86 -77 0 -12 5 -25 10 -28 6 -4 10 -177 10 -485 0 -308 -4 -481 -10 -485 -5 -3 -10 -18 -10 -32 0 -16 -7 -27 -20 -30 -11 -3 -20 -11 -20 -18 0 -24 -36 -45 -78 -45 -37 0 -41 -2 -44 -27 l-3 -28 -437 -5 c-240 -3 -439 -8 -442 -11 -12 -12 776 -19 2859 -25 1871 -6 2112 -5 2123 8 9 12 12 165 10 704 l-3 689 -2125 0 c-1169 0 -2484 -1 -2922 -2z"/>
<path d="M30720 10210 c0 -5 5 -10 10 -10 6 0 10 5 10 10 0 6 -4 10 -10 10 -5 0 -10 -4 -10 -10z"/>
<path d="M36243 7802 c-791 -1 -1203 -5 -1203 -12 0 -6 99 -10 276 -10 l276 0 5 -20 5 -20 323 0 c299 0 323 -1 338 -18 10 -10 17 -26 17 -35 0 -9 9 -32 20 -52 l20 -36 -2 -717 -3 -717 -25 -3 c-14 -2 -31 -9 -39 -15 -8 -7 -39 -10 -75 -9 -55 3 -69 -1 -139 -37 l-79 -41 -926 -1 c-510 -1 -970 -5 -1022 -8 l-95 -7 50 -9 c32 -6 1575 -10 4180 -10 l4130 0 3 879 c1 662 -1 882 -10 893 -11 14 -1332 15 -6025 5z"/>
<path d="M34400 7789 c0 -5 5 -7 10 -4 6 3 10 8 10 11 0 2 -4 4 -10 4 -5 0 -10 -5 -10 -11z"/>
<path d="M34435 7790 c3 -5 10 -10 16 -10 5 0 9 5 9 10 0 6 -7 10 -16 10 -8 0 -12 -4 -9 -10z"/>
<path d="M34475 7790 c4 -6 67 -10 156 -10 93 0 149 4 149 10 0 6 -59 10 -156 10 -101 0 -153 -3 -149 -10z"/>
<path d="M34800 7790 c0 -5 5 -10 10 -10 6 0 10 5 10 10 0 6 -4 10 -10 10 -5 0 -10 -4 -10 -10z"/>
<path d="M34840 7789 c0 -5 5 -7 10 -4 6 3 10 8 10 11 0 2 -4 4 -10 4 -5 0 -10 -5 -10 -11z"/>
<path d="M35000 7790 c0 -5 5 -10 10 -10 6 0 10 5 10 10 0 6 -4 10 -10 10 -5 0 -10 -4 -10 -10z"/>
</g>
</g>
  <g id="id5:id5" transform="matrix(1.25,0,0,1.25,0.0,0.0)"><g transform="translate(0.000000,606.400000) scale(0.040000,-0.040000)" fill="#00457c" stroke="none">
<path d="M4080 2934 c-19 -2 -79 -11 -132 -20 -443 -70 -795 -379 -950 -834 -63 -187 -83 -327 -83 -590 1 -243 20 -380 80 -565 134 -409 434 -704 818 -804 147 -38 212 -46 387 -46 344 0 593 79 820 260 308 246 479 661 480 1162 0 410 -113 759 -335 1026 -162 196 -428 345 -700 392 -89 16 -318 27 -385 19z m344 -394 c312 -78 535 -348 622 -750 14 -66 18 -130 18 -290 0 -178 -3 -219 -23 -310 -107 -485 -405 -750 -841 -750 -524 1 -861 417 -860 1064 1 392 141 731 376 906 191 143 457 192 708 130z"/>
<path d="M28280 2925 c-200 -25 -335 -65 -509 -155 -357 -183 -597 -512 -688 -940 -26 -122 -26 -515 0 -645 122 -617 520 -1002 1132 -1096 132 -20 473 -18 597 4 114 21 195 41 244 62 l36 15 -7 172 c-3 95 -8 183 -11 196 -6 28 -32 29 -84 2 -102 -52 -348 -100 -513 -100 -420 0 -779 252 -921 647 -61 172 -85 361 -67 527 28 254 99 435 238 608 125 156 332 278 553 325 94 19 311 22 405 4 90 -17 225 -64 292 -101 57 -32 83 -38 83 -17 0 7 7 93 16 191 13 148 13 181 2 192 -18 19 -172 71 -260 88 -180 37 -355 43 -538 21z"/>
<path d="M50265 2926 c-348 -48 -594 -165 -820 -391 -177 -176 -284 -366 -352 -620 l-36 -140 -1 -260 c0 -246 1 -266 26 -375 41 -176 109 -347 191 -477 49 -78 148 -192 224 -258 189 -166 394 -261 673 -312 120 -23 485 -25 600 -5 190 34 287 62 302 85 4 7 8 40 8 74 0 69 -20 316 -26 322 -2 2 -34 -10 -71 -27 -189 -86 -485 -124 -688 -88 -417 75 -718 385 -800 824 -20 103 -22 325 -5 427 15 92 55 224 91 304 84 185 282 387 456 462 157 69 273 92 453 92 183 -1 338 -37 478 -113 30 -16 61 -30 68 -30 8 0 14 22 18 63 3 34 10 114 16 178 15 171 21 153 -67 187 -43 16 -98 34 -123 41 -173 44 -443 60 -615 37z"/>
<path d="M80 2864 c-11 -28 -14 -2682 -4 -2722 l6 -22 192 2 191 3 2 1085 c2 597 5 1091 8 1099 11 28 11 28 243 -409 24 -47 59 -112 77 -145 18 -33 53 -98 78 -145 64 -121 186 -348 213 -395 12 -22 40 -76 62 -120 22 -44 148 -280 279 -525 l238 -445 255 0 255 0 3 1357 c1 875 -1 1366 -8 1382 l-10 26 -187 -2 -188 -3 -5 -1075 c-3 -708 -8 -1075 -15 -1074 -5 1 -24 25 -40 55 -31 55 -44 78 -272 509 -170 320 -286 538 -333 625 -20 39 -61 115 -90 170 -29 55 -67 127 -85 160 -18 33 -96 182 -174 330 -79 149 -152 278 -163 288 -18 15 -47 17 -269 17 l-249 0 -10 -26z"/>
<path d="M6218 2884 c-12 -11 -10 -2748 1 -2760 6 -5 87 -7 203 -4 l193 5 2 599 c2 360 6 603 12 609 6 6 86 7 198 5 152 -4 197 -9 237 -24 57 -22 122 -81 161 -147 25 -43 185 -406 274 -622 21 -49 70 -165 111 -257 l72 -168 224 0 c122 0 225 3 228 8 2 4 -32 86 -77 182 -45 97 -96 207 -114 245 -54 118 -99 216 -142 308 -22 49 -41 90 -41 92 0 6 -123 265 -151 320 -48 90 -102 157 -153 189 -25 16 -44 32 -41 36 2 4 30 15 62 25 202 63 356 219 420 422 23 77 25 92 20 230 -5 160 -18 226 -67 327 -92 192 -279 309 -575 362 -71 13 -190 17 -570 21 -264 3 -483 1 -487 -3z m965 -387 c187 -54 283 -151 310 -316 19 -115 -20 -235 -106 -324 -107 -109 -294 -157 -616 -157 -85 0 -131 4 -139 12 -9 9 -12 112 -12 403 0 216 3 395 8 399 4 4 117 6 252 3 189 -3 258 -8 303 -20z"/>
<path d="M8416 2874 c-9 -23 -7 -327 2 -341 6 -10 104 -13 413 -15 l404 -3 5 -1195 5 -1195 198 -3 c108 -1 198 -1 199 0 2 2 5 541 8 1198 l5 1195 404 3 c309 2 407 5 413 15 13 21 10 331 -4 345 -9 9 -251 12 -1029 12 -918 0 -1017 -2 -1023 -16z"/>
<path d="M11081 2876 c-8 -10 -10 -379 -9 -1382 l3 -1369 200 0 200 0 5 620 5 620 620 0 620 0 5 -620 c3 -341 6 -621 8 -622 1 -2 90 -3 197 -3 l195 0 0 1379 c0 1248 -1 1379 -16 1385 -15 6 -371 9 -376 4 -2 -2 -5 -259 -8 -573 l-5 -570 -620 0 -620 0 -3 559 c-1 393 -5 563 -13 573 -17 19 -372 19 -388 -1z"/>
<path d="M15393 2884 c-10 -5 -13 -291 -13 -1385 l0 -1379 199 0 199 0 6 26 c4 15 6 261 5 548 l-1 521 288 6 c251 4 301 8 383 27 350 83 568 297 628 616 20 105 13 351 -12 446 -80 301 -299 483 -670 557 -64 12 -171 16 -540 19 -253 2 -466 1 -472 -2z m855 -380 c159 -32 316 -134 375 -243 107 -195 38 -467 -148 -586 -110 -70 -153 -79 -428 -85 -137 -3 -251 -2 -254 3 -6 10 -4 908 3 918 10 16 368 10 452 -7z"/>
<path d="M17772 2878 c-9 -9 -12 -327 -12 -1369 0 -747 3 -1364 6 -1373 6 -14 81 -16 754 -16 673 0 748 2 754 16 9 24 7 317 -3 333 -7 11 -101 13 -547 12 -376 0 -542 3 -551 11 -19 16 -19 850 0 867 10 7 163 12 508 13 l494 3 0 180 0 180 -505 5 -505 5 0 385 0 385 549 3 c425 2 552 5 558 15 13 21 10 331 -4 345 -17 17 -1479 17 -1496 0z"/>
<path d="M20939 2883 c-10 -2 -51 -90 -109 -231 -51 -125 -144 -350 -206 -499 -63 -150 -114 -276 -114 -279 0 -4 -13 -34 -29 -68 -16 -33 -58 -133 -94 -221 -35 -88 -184 -449 -331 -803 -146 -354 -266 -647 -266 -652 0 -12 -15 -11 215 -10 215 1 209 -1 240 85 45 125 227 581 237 592 8 10 142 13 644 13 l634 0 14 -22 c8 -13 25 -52 39 -88 98 -251 200 -511 214 -542 l16 -37 203 -3 c113 -2 209 -1 214 0 23 8 33 -19 -292 772 -44 107 -105 256 -136 330 -30 74 -85 209 -123 300 -194 472 -342 832 -440 1075 -60 149 -117 276 -126 283 -12 9 -68 12 -202 11 -102 -1 -193 -3 -202 -6z m239 -543 c22 -58 133 -343 246 -633 113 -291 204 -533 200 -538 -7 -12 -991 -12 -998 0 -6 9 11 52 266 706 88 226 170 437 183 470 13 33 28 73 34 89 7 17 15 25 20 20 5 -5 27 -56 49 -114z"/>
<path d="M23093 2883 c-10 -4 -13 -290 -13 -1384 l0 -1379 198 2 197 3 5 648 c3 356 9 647 13 648 5 0 63 -62 130 -139 67 -76 169 -192 227 -257 58 -65 125 -142 150 -170 40 -48 606 -691 635 -723 11 -12 206 -16 573 -12 8 0 12 6 10 14 -2 7 -124 143 -273 301 -148 158 -308 329 -355 380 -47 51 -166 179 -265 285 -318 340 -435 469 -435 480 0 6 84 97 188 203 103 106 342 354 532 552 190 198 381 397 425 442 44 46 80 88 80 95 0 10 -55 14 -240 16 -132 1 -249 0 -260 -2 -12 -3 -156 -148 -320 -323 -689 -731 -797 -843 -806 -837 -5 3 -9 261 -9 573 0 428 -3 570 -12 579 -8 8 -63 12 -187 11 -97 0 -182 -3 -188 -6z"/>
<path d="M30597 2878 c-9 -7 -122 -267 -251 -578 -128 -311 -332 -801 -451 -1090 -120 -289 -228 -550 -240 -580 -75 -185 -141 -343 -166 -399 -16 -35 -29 -74 -29 -87 l0 -24 198 0 c108 0 202 4 209 8 6 4 68 153 138 332 70 179 132 331 137 338 8 9 149 12 644 12 l634 0 14 -22 c8 -13 70 -162 136 -333 67 -171 126 -316 132 -323 8 -9 61 -12 222 -10 l211 3 -3 19 c-2 11 -36 98 -76 195 -41 97 -140 338 -221 536 -81 198 -166 407 -190 465 -45 108 -193 470 -330 805 -43 105 -115 280 -161 391 -45 110 -93 226 -105 258 -36 98 -30 96 -247 96 -135 0 -193 -4 -205 -12z m298 -678 c47 -124 156 -404 242 -622 85 -219 152 -402 148 -408 -8 -12 -991 -14 -999 -2 -5 8 31 103 274 722 61 157 133 343 161 414 27 70 52 133 55 138 13 20 33 -22 119 -242z"/>
<path d="M32700 2865 c-11 -29 -15 -2682 -4 -2722 l6 -23 199 0 199 0 2 548 3 547 290 6 c160 4 310 11 335 17 309 74 473 183 592 392 81 143 117 376 87 573 -48 321 -215 519 -525 621 -165 54 -203 58 -706 63 l-468 5 -10 -27z m857 -361 c289 -59 447 -235 430 -479 -13 -197 -114 -331 -303 -402 -65 -25 -82 -27 -319 -32 -137 -4 -253 -5 -257 -3 -10 4 -11 916 -1 925 14 15 372 7 450 -9z"/>
<path d="M35073 2883 c-10 -4 -13 -290 -13 -1384 l0 -1379 200 0 200 0 -2 1383 -3 1382 -185 2 c-102 1 -191 -1 -197 -4z"/>
<path d="M36042 2878 c-14 -14 -17 -324 -4 -345 6 -10 104 -13 413 -15 l404 -3 5 -1195 5 -1195 200 0 200 0 5 1195 5 1195 410 5 410 5 3 174 c2 133 -1 176 -10 183 -7 4 -468 8 -1023 8 -773 0 -1014 -3 -1023 -12z"/>
<path d="M39307 2878 c-9 -7 -54 -105 -101 -218 -77 -188 -164 -399 -316 -765 -32 -77 -156 -376 -275 -665 -120 -289 -269 -649 -331 -800 -63 -151 -114 -282 -114 -292 0 -9 4 -18 10 -20 5 -1 98 -1 206 2 161 4 198 8 205 20 5 8 63 157 130 330 67 173 126 321 132 328 7 9 145 12 651 10 l641 -3 51 -130 c28 -71 86 -220 129 -330 43 -110 82 -206 88 -212 7 -10 64 -13 223 -13 118 0 214 4 214 8 0 8 -17 50 -430 1057 -144 352 -321 782 -392 955 -71 173 -165 405 -210 515 -45 110 -88 208 -96 218 -13 15 -37 17 -207 17 -137 0 -196 -4 -208 -12z m268 -598 c32 -80 65 -167 75 -195 10 -27 91 -234 180 -460 89 -225 163 -421 164 -435 l1 -25 -494 -3 c-272 -1 -498 1 -502 5 -4 5 3 35 16 68 23 57 447 1142 467 1194 8 21 11 22 22 10 8 -8 40 -79 71 -159z"/>
<path d="M41431 2876 c-8 -10 -10 -379 -9 -1382 l3 -1369 760 0 760 0 3 169 c1 96 -2 174 -7 179 -5 5 -230 10 -548 11 -296 0 -544 5 -550 9 -10 6 -13 255 -13 1187 0 648 -3 1185 -6 1194 -5 14 -32 16 -194 16 -146 0 -190 -3 -199 -14z"/>
<path d="M44935 2880 c-10 -16 -6 -2753 4 -2759 5 -4 346 -4 758 -1 l748 5 3 169 c1 93 -1 173 -6 178 -4 4 -251 8 -548 9 -360 0 -543 4 -552 11 -10 9 -12 252 -12 1195 0 651 -2 1188 -5 1193 -8 14 -382 13 -390 0z"/>
<path d="M47056 2874 c-3 -9 -6 -625 -6 -1369 0 -744 3 -1360 6 -1369 6 -14 82 -16 765 -16 l759 0 0 175 c0 131 -3 177 -12 180 -7 3 -258 6 -558 8 l-545 2 -3 1189 c-1 859 -5 1193 -13 1203 -9 10 -54 13 -199 13 -162 0 -189 -2 -194 -16z"/>
</g>
</g>
</svg>
