<svg xmlns="http://www.w3.org/2000/svg" version="1.0" width="7696.000000pt" height="4336.000000pt" viewBox="0 0 7696.000000 4336.000000" preserveAspectRatio="xMidYMid meet">
  <g transform="translate(0.000000,4336.000000) scale(0.100000,-0.100000)" stroke="none">
    <path stroke="none" d="M 24960.0,30189.0 C 24935.0,30184.0 24886.0,30175.0 24850.0,30169.0 C 24711.0,30146.0 24546.0,30089.0 24400.0,30015.0 C 23976.0,29799.0 23656.0,29405.0 23532.0,28945.0 C 23491.0,28793.0 23477.0,28681.0 23477.0,28495.0 C 23477.0,28127.0 23562.0,27847.0 23766.0,27539.0 C 23845.0,27420.0 24000.0,27251.0 24105.0,27167.0 C 24216.0,27079.0 24331.0,27008.0 24446.0,26954.0 C 24569.0,26898.0 24591.0,26889.0 24685.0,26862.0 C 24876.0,26808.0 24961.0,26796.0 25170.0,26796.0 C 25274.0,26796.0 25386.0,26802.0 25425.0,26809.0 C 25563.0,26833.0 25674.0,26861.0 25748.0,26891.0 C 25760.0,26896.0 25780.0,26904.0 25793.0,26909.0 C 25873.0,26941.0 26059.0,27038.0 26126.0,27084.0 C 26201.0,27135.0 26353.0,27268.0 26413.0,27334.0 C 26478.0,27407.0 26600.0,27564.0 26600.0,27575.0 C 26600.0,27579.0 26608.0,27594.0 26619.0,27608.0 C 26667.0,27677.0 26750.0,27856.0 26785.0,27965.0 C 26844.0,28154.0 26864.0,28288.0 26864.0,28500.0 C 26864.0,28715.0 26844.0,28842.0 26778.0,29045.0 C 26728.0,29200.0 26632.0,29382.0 26530.0,29515.0 C 26264.0,29864.0 25885.0,30102.0 25485.0,30170.0 C 25447.0,30177.0 25393.0,30186.0 25367.0,30191.0 C 25307.0,30202.0 25020.0,30201.0 24960.0,30189.0" fill="#ffffff" id="ffffff-000001"/>
    <path stroke="none" d="M 40740.0,29359.0 C 40633.0,29355.0 40498.0,29347.0 40440.0,29341.0 C 40382.0,29334.0 40297.0,29325.0 40250.0,29320.0 C 40203.0,29315.0 40136.0,29306.0 40100.0,29300.0 C 40064.0,29294.0 40008.0,29285.0 39975.0,29280.0 C 39942.0,29274.0 39895.0,29266.0 39870.0,29261.0 C 39845.0,29255.0 39812.0,29248.0 39795.0,29245.0 C 39740.0,29233.0 39595.0,29198.0 39570.0,29190.0 C 39556.0,29186.0 39525.0,29177.0 39500.0,29170.0 C 39399.0,29141.0 39271.0,29097.0 39195.0,29065.0 C 38927.0,28952.0 38740.0,28844.0 38555.0,28696.0 C 38467.0,28626.0 38285.0,28438.0 38206.0,28337.0 C 38140.0,28252.0 38109.0,28205.0 38028.0,28065.0 C 37968.0,27961.0 37868.0,27728.0 37840.0,27625.0 C 37835.0,27609.0 37826.0,27579.0 37820.0,27560.0 C 37813.0,27541.0 37804.0,27509.0 37800.0,27490.0 C 37795.0,27471.0 37787.0,27437.0 37781.0,27415.0 C 37771.0,27378.0 37754.0,27296.0 37730.0,27175.0 C 37722.0,27130.0 37716.0,27087.0 37695.0,26930.0 C 37675.0,26784.0 37667.0,26532.0 37661.0,25935.0 L 37655.0,25265.0 L 36837.0,25262.0 L 36020.0,25260.0 L 36022.0,24257.0 L 36025.0,23255.0 L 36843.0,23252.0 L 37660.0,23250.0 L 37660.0,18445.0 L 37660.0,13640.0 L 37683.0,13635.0 C 37695.0,13632.0 38531.0,13631.0 39540.0,13632.0 L 41375.0,13635.0 L 41378.0,18443.0 L 41380.0,23250.0 L 42623.0,23250.0 C 43306.0,23250.0 43871.0,23254.0 43878.0,23258.0 C 43888.0,23265.0 43890.0,23472.0 43888.0,24261.0 L 43885.0,25255.0 L 42635.0,25260.0 L 41385.0,25265.0 L 41382.0,25590.0 C 41380.0,25794.0 41383.0,25943.0 41390.0,25990.0 C 41423.0,26211.0 41510.0,26363.0 41665.0,26468.0 C 41738.0,26519.0 41819.0,26560.0 41844.0,26560.0 C 41852.0,26560.0 41861.0,26564.0 41864.0,26569.0 C 41867.0,26574.0 41882.0,26580.0 41897.0,26583.0 C 41913.0,26586.0 41943.0,26593.0 41965.0,26599.0 C 42132.0,26646.0 42255.0,26652.0 43095.0,26659.0 L 43885.0,26665.0 L 43888.0,27995.0 C 43889.0,28727.0 43888.0,29335.0 43885.0,29348.0 L 43880.0,29370.0 L 42407.0,29368.0 C 41598.0,29367.0 40847.0,29363.0 40740.0,29359.0" fill="#ffffff" id="ffffff-000002"/>
    <path stroke="none" d="M 30157.0,28493.0 C 30153.0,28490.0 30150.0,27768.0 30150.0,26889.0 C 30150.0,26011.0 30147.0,25284.0 30144.0,25276.0 C 30138.0,25261.0 30066.0,25260.0 29397.0,25260.0 C 28990.0,25260.0 28654.0,25258.0 28651.0,25254.0 C 28642.0,25245.0 28638.0,23339.0 28648.0,23295.0 L 28656.0,23255.0 L 29395.0,23253.0 C 29801.0,23251.0 30137.0,23247.0 30141.0,23243.0 C 30145.0,23238.0 30151.0,21570.0 30153.0,19535.0 C 30156.0,16893.0 30160.0,15802.0 30168.0,15720.0 C 30174.0,15657.0 30184.0,15551.0 30190.0,15485.0 C 30200.0,15373.0 30205.0,15338.0 30231.0,15170.0 C 30310.0,14679.0 30490.0,14353.0 30850.0,14050.0 C 30886.0,14020.0 30917.0,13992.0 30920.0,13989.0 C 30929.0,13979.0 31079.0,13880.0 31085.0,13880.0 C 31089.0,13880.0 31110.0,13867.0 31133.0,13852.0 C 31173.0,13825.0 31305.0,13758.0 31415.0,13709.0 C 31506.0,13669.0 31658.0,13616.0 31788.0,13579.0 C 31805.0,13574.0 31837.0,13565.0 31858.0,13559.0 C 31973.0,13526.0 32175.0,13485.0 32350.0,13459.0 C 32634.0,13417.0 32765.0,13409.0 33210.0,13403.0 C 33662.0,13398.0 33868.0,13407.0 34250.0,13451.0 C 34297.0,13456.0 34376.0,13465.0 34425.0,13470.0 C 34543.0,13484.0 34667.0,13499.0 34760.0,13511.0 C 34801.0,13516.0 34867.0,13525.0 34905.0,13530.0 C 35067.0,13551.0 35130.0,13563.0 35130.0,13574.0 C 35134.0,13891.0 35127.0,15457.0 35121.0,15463.0 C 35117.0,15467.0 35084.0,15466.0 35049.0,15460.0 C 35014.0,15454.0 34958.0,15445.0 34925.0,15440.0 C 34892.0,15435.0 34836.0,15426.0 34800.0,15420.0 C 34764.0,15414.0 34698.0,15405.0 34653.0,15399.0 C 34607.0,15394.0 34531.0,15385.0 34483.0,15379.0 C 34353.0,15362.0 33610.0,15355.0 33470.0,15369.0 C 33333.0,15383.0 33248.0,15396.0 33160.0,15416.0 C 33124.0,15425.0 33079.0,15435.0 33060.0,15439.0 C 33041.0,15444.0 33005.0,15455.0 32980.0,15465.0 C 32722.0,15564.0 32582.0,15720.0 32502.0,15995.0 C 32463.0,16132.0 32452.0,16221.0 32440.0,16510.0 C 32434.0,16664.0 32431.0,17954.0 32432.0,20000.0 L 32435.0,23245.0 L 33780.0,23250.0 C 34520.0,23253.0 35126.0,23256.0 35128.0,23258.0 C 35129.0,23259.0 35130.0,23710.0 35130.0,24260.0 L 35130.0,25260.0 L 33785.0,25260.0 C 33045.0,25260.0 32439.0,25261.0 32438.0,25263.0 C 32436.0,25264.0 32433.0,25992.0 32430.0,26880.0 L 32425.0,28495.0 L 31294.0,28498.0 C 30672.0,28499.0 30160.0,28497.0 30157.0,28493.0" fill="#ffffff" id="ffffff-000003"/>
    <path stroke="none" d="M 50845.0,25724.0 C 50664.0,25717.0 50468.0,25706.0 50410.0,25700.0 C 50352.0,25695.0 50251.0,25685.0 50185.0,25680.0 C 50119.0,25675.0 50031.0,25666.0 49990.0,25660.0 C 49949.0,25655.0 49879.0,25646.0 49835.0,25640.0 C 49791.0,25635.0 49726.0,25626.0 49690.0,25620.0 C 49654.0,25614.0 49594.0,25605.0 49555.0,25600.0 C 49517.0,25594.0 49463.0,25585.0 49435.0,25580.0 C 49408.0,25574.0 49360.0,25566.0 49330.0,25560.0 C 49300.0,25554.0 49255.0,25546.0 49230.0,25541.0 C 49205.0,25536.0 49160.0,25527.0 49130.0,25521.0 C 49100.0,25515.0 49055.0,25505.0 49030.0,25499.0 C 49005.0,25494.0 48967.0,25485.0 48945.0,25480.0 C 48923.0,25475.0 48885.0,25466.0 48860.0,25460.0 C 48835.0,25454.0 48797.0,25445.0 48775.0,25440.0 C 48753.0,25435.0 48717.0,25426.0 48695.0,25420.0 C 48673.0,25414.0 48639.0,25405.0 48620.0,25400.0 C 48601.0,25395.0 48569.0,25387.0 48550.0,25381.0 C 48491.0,25364.0 48446.0,25352.0 48420.0,25345.0 C 48406.0,25341.0 48386.0,25335.0 48375.0,25330.0 C 48364.0,25326.0 48335.0,25317.0 48310.0,25310.0 C 48285.0,25303.0 48256.0,25294.0 48245.0,25290.0 C 48234.0,25286.0 48189.0,25271.0 48145.0,25257.0 C 48061.0,25230.0 47929.0,25184.0 47895.0,25170.0 C 47884.0,25166.0 47848.0,25152.0 47815.0,25140.0 C 47782.0,25128.0 47742.0,25112.0 47725.0,25105.0 C 47709.0,25097.0 47659.0,25077.0 47615.0,25060.0 C 47571.0,25043.0 47510.0,25017.0 47480.0,25004.0 C 47450.0,24990.0 47398.0,24967.0 47365.0,24952.0 C 47223.0,24888.0 46810.0,24675.0 46760.0,24640.0 C 46746.0,24630.0 46718.0,24613.0 46698.0,24601.0 C 46677.0,24590.0 46644.0,24571.0 46624.0,24560.0 C 46604.0,24548.0 46555.0,24517.0 46514.0,24490.0 C 46474.0,24462.0 46437.0,24440.0 46431.0,24440.0 C 46426.0,24440.0 46420.0,24436.0 46418.0,24432.0 C 46417.0,24427.0 46372.0,24395.0 46320.0,24360.0 C 46140.0,24240.0 45853.0,24014.0 45685.0,23860.0 C 45586.0,23769.0 45318.0,23500.0 45243.0,23415.0 C 44984.0,23123.0 44728.0,22765.0 44547.0,22439.0 C 44464.0,22290.0 44280.0,21915.0 44280.0,21895.0 C 44280.0,21892.0 44271.0,21868.0 44259.0,21842.0 C 44237.0,21792.0 44222.0,21758.0 44210.0,21725.0 C 44186.0,21664.0 44166.0,21610.0 44154.0,21570.0 C 44146.0,21545.0 44135.0,21516.0 44131.0,21505.0 C 44121.0,21482.0 44069.0,21315.0 44050.0,21250.0 C 44043.0,21225.0 44034.0,21194.0 44030.0,21180.0 C 44013.0,21125.0 43984.0,21006.0 43950.0,20855.0 C 43921.0,20728.0 43890.0,20549.0 43871.0,20410.0 C 43865.0,20369.0 43858.0,20317.0 43855.0,20295.0 C 43833.0,20149.0 43800.0,19645.0 43800.0,19455.0 C 43800.0,19137.0 43847.0,18604.0 43899.0,18318.0 C 43905.0,18286.0 43914.0,18236.0 43919.0,18208.0 C 43928.0,18157.0 43942.0,18092.0 43961.0,18005.0 C 43970.0,17964.0 44024.0,17753.0 44041.0,17690.0 C 44047.0,17671.0 44055.0,17642.0 44060.0,17625.0 C 44077.0,17562.0 44138.0,17373.0 44150.0,17345.0 C 44154.0,17334.0 44163.0,17309.0 44170.0,17290.0 C 44177.0,17271.0 44186.0,17246.0 44190.0,17235.0 C 44195.0,17224.0 44210.0,17184.0 44225.0,17145.0 C 44240.0,17107.0 44258.0,17060.0 44266.0,17043.0 C 44274.0,17025.0 44286.0,16995.0 44294.0,16978.0 C 44336.0,16880.0 44358.0,16832.0 44421.0,16705.0 C 44485.0,16576.0 44521.0,16508.0 44578.0,16408.0 C 44590.0,16387.0 44609.0,16355.0 44619.0,16336.0 C 44659.0,16265.0 44823.0,16016.0 44898.0,15913.0 C 44939.0,15855.0 45082.0,15668.0 45090.0,15660.0 C 45093.0,15657.0 45120.0,15626.0 45150.0,15590.0 C 45180.0,15554.0 45207.0,15523.0 45210.0,15520.0 C 45213.0,15517.0 45249.0,15477.0 45290.0,15430.0 C 45440.0,15261.0 45721.0,14992.0 45905.0,14843.0 C 46002.0,14765.0 46122.0,14672.0 46176.0,14633.0 C 46209.0,14610.0 46271.0,14566.0 46315.0,14534.0 C 46359.0,14503.0 46427.0,14457.0 46465.0,14432.0 C 46504.0,14407.0 46559.0,14372.0 46587.0,14354.0 C 46616.0,14335.0 46642.0,14320.0 46646.0,14320.0 C 46649.0,14320.0 46671.0,14306.0 46695.0,14290.0 C 46719.0,14273.0 46741.0,14260.0 46745.0,14260.0 C 46748.0,14260.0 46767.0,14249.0 46788.0,14236.0 C 46886.0,14172.0 47467.0,13880.0 47495.0,13880.0 C 47497.0,13880.0 47528.0,13867.0 47562.0,13852.0 C 47597.0,13836.0 47675.0,13804.0 47735.0,13781.0 C 47796.0,13757.0 47854.0,13734.0 47865.0,13730.0 C 47876.0,13726.0 47901.0,13717.0 47920.0,13710.0 C 47939.0,13703.0 47964.0,13694.0 47975.0,13689.0 C 48001.0,13678.0 48266.0,13590.0 48305.0,13580.0 C 48322.0,13575.0 48367.0,13562.0 48405.0,13550.0 C 48487.0,13525.0 48531.0,13512.0 48580.0,13500.0 C 48599.0,13495.0 48651.0,13482.0 48695.0,13470.0 C 48739.0,13458.0 48795.0,13444.0 48820.0,13438.0 C 48845.0,13433.0 48883.0,13424.0 48905.0,13418.0 C 48983.0,13400.0 49083.0,13378.0 49175.0,13360.0 C 49208.0,13353.0 49255.0,13344.0 49280.0,13339.0 C 49358.0,13323.0 49531.0,13294.0 49635.0,13279.0 C 49809.0,13253.0 49840.0,13249.0 49920.0,13239.0 C 50088.0,13219.0 50392.0,13192.0 50595.0,13179.0 C 50864.0,13162.0 51534.0,13156.0 51760.0,13169.0 C 52261.0,13197.0 52447.0,13216.0 52895.0,13280.0 C 52991.0,13294.0 53160.0,13323.0 53240.0,13339.0 C 53265.0,13344.0 53310.0,13353.0 53340.0,13359.0 C 53370.0,13365.0 53413.0,13374.0 53435.0,13379.0 C 53457.0,13384.0 53491.0,13391.0 53510.0,13395.0 C 53544.0,13401.0 53574.0,13408.0 53658.0,13429.0 C 53681.0,13435.0 53717.0,13444.0 53738.0,13449.0 C 53830.0,13472.0 53936.0,13499.0 53970.0,13510.0 C 53984.0,13514.0 54015.0,13523.0 54040.0,13530.0 C 54095.0,13545.0 54101.0,13547.0 54270.0,13600.0 C 54344.0,13623.0 54414.0,13646.0 54425.0,13651.0 C 54436.0,13655.0 54465.0,13666.0 54490.0,13674.0 C 54589.0,13706.0 54802.0,13788.0 54877.0,13821.0 C 54901.0,13831.0 54922.0,13840.0 54925.0,13840.0 C 54930.0,13840.0 54960.0,13853.0 55065.0,13900.0 C 55233.0,13975.0 55434.0,14073.0 55550.0,14136.0 C 55597.0,14162.0 55658.0,14195.0 55685.0,14209.0 C 55713.0,14224.0 55766.0,14255.0 55804.0,14278.0 C 55841.0,14301.0 55874.0,14320.0 55876.0,14320.0 C 55885.0,14320.0 56237.0,14550.0 56290.0,14590.0 C 56309.0,14605.0 56386.0,14662.0 56461.0,14718.0 C 56584.0,14810.0 56652.0,14866.0 56835.0,15023.0 C 56901.0,15081.0 57221.0,15397.0 57291.0,15475.0 C 57542.0,15753.0 57841.0,16165.0 57995.0,16445.0 C 58011.0,16473.0 58038.0,16522.0 58056.0,16555.0 C 58114.0,16658.0 58280.0,17000.0 58280.0,17015.0 C 58280.0,17018.0 58289.0,17042.0 58301.0,17068.0 C 58313.0,17094.0 58326.0,17125.0 58331.0,17138.0 C 58336.0,17150.0 58344.0,17170.0 58349.0,17183.0 C 58354.0,17195.0 58367.0,17231.0 58379.0,17263.0 C 58391.0,17294.0 58409.0,17344.0 58419.0,17373.0 C 58430.0,17401.0 58443.0,17441.0 58449.0,17460.0 C 58455.0,17479.0 58468.0,17522.0 58478.0,17555.0 C 58489.0,17588.0 58503.0,17635.0 58510.0,17660.0 C 58517.0,17685.0 58526.0,17716.0 58530.0,17730.0 C 58557.0,17817.0 58602.0,18009.0 58629.0,18150.0 C 58635.0,18180.0 58644.0,18228.0 58649.0,18255.0 C 58744.0,18744.0 58768.0,19471.0 58709.0,20095.0 C 58685.0,20361.0 58644.0,20630.0 58589.0,20888.0 C 58566.0,20995.0 58549.0,21067.0 58529.0,21140.0 C 58523.0,21165.0 58514.0,21199.0 58509.0,21215.0 C 58462.0,21390.0 58343.0,21751.0 58327.0,21767.0 C 58323.0,21770.0 58320.0,21779.0 58320.0,21787.0 C 58320.0,21794.0 58311.0,21820.0 58300.0,21845.0 C 58289.0,21870.0 58271.0,21910.0 58260.0,21935.0 C 58249.0,21960.0 58240.0,21982.0 58240.0,21984.0 C 58240.0,22011.0 58044.0,22397.0 57958.0,22539.0 C 57937.0,22573.0 57920.0,22604.0 57920.0,22606.0 C 57920.0,22609.0 57790.0,22812.0 57773.0,22836.0 C 57768.0,22841.0 57761.0,22853.0 57755.0,22862.0 C 57729.0,22905.0 57588.0,23095.0 57516.0,23185.0 C 57297.0,23459.0 56975.0,23789.0 56734.0,23985.0 C 56643.0,24060.0 56437.0,24217.0 56374.0,24260.0 C 56159.0,24408.0 56009.0,24506.0 55910.0,24562.0 C 55891.0,24573.0 55871.0,24586.0 55865.0,24590.0 C 55860.0,24594.0 55830.0,24611.0 55800.0,24627.0 C 55770.0,24644.0 55727.0,24667.0 55705.0,24680.0 C 55647.0,24713.0 55509.0,24785.0 55405.0,24837.0 C 55356.0,24861.0 55298.0,24890.0 55277.0,24901.0 C 55203.0,24938.0 55223.0,24951.0 54940.0,24676.0 C 54871.0,24610.0 54738.0,24481.0 54645.0,24390.0 C 54551.0,24299.0 54383.0,24137.0 54270.0,24030.0 C 54032.0,23803.0 54026.0,23797.0 53844.0,23620.0 C 53723.0,23502.0 53411.0,23202.0 53056.0,22860.0 C 52996.0,22802.0 52927.0,22735.0 52902.0,22712.0 C 52878.0,22688.0 52854.0,22672.0 52850.0,22677.0 C 52842.0,22685.0 52827.0,22794.0 52810.0,22968.0 C 52785.0,23226.0 52770.0,23367.0 52750.0,23565.0 C 52745.0,23615.0 52736.0,23705.0 52730.0,23765.0 C 52724.0,23826.0 52715.0,23916.0 52710.0,23965.0 C 52705.0,24015.0 52696.0,24101.0 52690.0,24158.0 C 52685.0,24214.0 52676.0,24305.0 52670.0,24360.0 C 52665.0,24415.0 52655.0,24506.0 52650.0,24563.0 C 52633.0,24727.0 52622.0,24837.0 52610.0,24955.0 C 52604.0,25016.0 52595.0,25103.0 52590.0,25150.0 C 52585.0,25197.0 52576.0,25287.0 52570.0,25350.0 C 52564.0,25413.0 52554.0,25508.0 52547.0,25560.0 L 52535.0,25655.0 L 52455.0,25667.0 C 52411.0,25673.0 52317.0,25684.0 52245.0,25690.0 C 52174.0,25696.0 52068.0,25705.0 52010.0,25710.0 C 51886.0,25721.0 51370.0,25741.0 51255.0,25739.0 C 51211.0,25738.0 51027.0,25731.0 50845.0,25724.0M 51740.0,22950.0 C 51781.0,22944.0 51847.0,22935.0 51885.0,22929.0 C 52036.0,22907.0 52240.0,22864.0 52355.0,22829.0 C 52419.0,22810.0 52576.0,22759.0 52595.0,22750.0 C 52606.0,22746.0 52635.0,22734.0 52660.0,22725.0 C 52685.0,22716.0 52721.0,22702.0 52740.0,22693.0 C 52759.0,22685.0 52784.0,22675.0 52795.0,22670.0 C 52816.0,22663.0 52877.0,22633.0 52920.0,22610.0 C 52934.0,22603.0 52952.0,22594.0 52960.0,22590.0 C 53021.0,22562.0 53157.0,22482.0 53272.0,22406.0 C 53613.0,22179.0 53915.0,21875.0 54146.0,21530.0 C 54267.0,21348.0 54404.0,21084.0 54479.0,20885.0 C 54492.0,20852.0 54506.0,20816.0 54510.0,20805.0 C 54519.0,20785.0 54543.0,20710.0 54575.0,20610.0 C 54645.0,20385.0 54700.0,20094.0 54731.0,19790.0 C 54746.0,19642.0 54746.0,19133.0 54731.0,19010.0 C 54709.0,18828.0 54689.0,18699.0 54669.0,18610.0 C 54663.0,18585.0 54654.0,18545.0 54649.0,18520.0 C 54638.0,18470.0 54622.0,18408.0 54610.0,18370.0 C 54606.0,18356.0 54592.0,18311.0 54580.0,18270.0 C 54568.0,18229.0 54554.0,18186.0 54550.0,18175.0 C 54546.0,18164.0 54537.0,18139.0 54530.0,18120.0 C 54516.0,18080.0 54507.0,18056.0 54491.0,18018.0 C 54485.0,18002.0 54476.0,17980.0 54471.0,17968.0 C 54443.0,17900.0 54313.0,17638.0 54279.0,17582.0 C 54258.0,17547.0 54240.0,17516.0 54240.0,17514.0 C 54240.0,17508.0 54125.0,17337.0 54076.0,17270.0 C 53949.0,17098.0 53725.0,16858.0 53580.0,16740.0 C 53550.0,16715.0 53519.0,16689.0 53512.0,16682.0 C 53504.0,16675.0 53482.0,16657.0 53462.0,16642.0 C 53441.0,16627.0 53423.0,16612.0 53420.0,16609.0 C 53409.0,16596.0 53136.0,16417.0 53078.0,16384.0 C 53018.0,16351.0 52767.0,16227.0 52725.0,16210.0 C 52714.0,16206.0 52689.0,16195.0 52670.0,16187.0 C 52588.0,16152.0 52384.0,16083.0 52265.0,16052.0 C 52129.0,16016.0 52071.0,16003.0 52010.0,15991.0 C 51527.0,15904.0 51128.0,15897.0 50650.0,15971.0 C 50394.0,16010.0 50048.0,16104.0 49865.0,16185.0 C 49849.0,16192.0 49815.0,16206.0 49790.0,16216.0 C 49732.0,16240.0 49481.0,16368.0 49413.0,16408.0 C 49088.0,16602.0 48745.0,16907.0 48513.0,17210.0 C 48457.0,17284.0 48320.0,17486.0 48320.0,17496.0 C 48320.0,17499.0 48311.0,17515.0 48300.0,17530.0 C 48238.0,17617.0 48107.0,17891.0 48040.0,18075.0 C 48028.0,18108.0 48014.0,18144.0 48010.0,18155.0 C 48001.0,18178.0 47972.0,18270.0 47959.0,18318.0 C 47954.0,18335.0 47945.0,18367.0 47939.0,18388.0 C 47808.0,18848.0 47765.0,19473.0 47831.0,19970.0 C 47846.0,20084.0 47861.0,20181.0 47870.0,20225.0 C 47875.0,20247.0 47884.0,20292.0 47891.0,20325.0 C 47901.0,20376.0 47932.0,20499.0 47960.0,20605.0 C 47970.0,20643.0 48018.0,20789.0 48029.0,20815.0 C 48034.0,20826.0 48048.0,20862.0 48061.0,20895.0 C 48116.0,21040.0 48243.0,21297.0 48302.0,21382.0 C 48312.0,21396.0 48320.0,21411.0 48320.0,21414.0 C 48320.0,21444.0 48584.0,21793.0 48689.0,21904.0 C 48820.0,22041.0 48929.0,22144.0 49030.0,22224.0 C 49077.0,22261.0 49122.0,22297.0 49130.0,22303.0 C 49163.0,22329.0 49329.0,22440.0 49335.0,22440.0 C 49338.0,22440.0 49361.0,22454.0 49385.0,22470.0 C 49474.0,22532.0 49693.0,22641.0 49865.0,22710.0 C 49980.0,22756.0 50188.0,22823.0 50300.0,22850.0 C 50319.0,22855.0 50353.0,22863.0 50375.0,22869.0 C 50536.0,22909.0 50831.0,22954.0 51005.0,22964.0 C 51130.0,22971.0 51668.0,22961.0 51740.0,22950.0" fill="#ffffff" id="ffffff-000004"/>
    <path stroke="none" d="M 66505.0,25724.0 C 66324.0,25717.0 66128.0,25706.0 66070.0,25700.0 C 66012.0,25695.0 65911.0,25685.0 65845.0,25680.0 C 65779.0,25675.0 65691.0,25666.0 65650.0,25660.0 C 65609.0,25655.0 65539.0,25646.0 65495.0,25640.0 C 65451.0,25635.0 65386.0,25626.0 65350.0,25620.0 C 65314.0,25614.0 65258.0,25605.0 65225.0,25600.0 C 65192.0,25595.0 65140.0,25586.0 65110.0,25581.0 C 65080.0,25575.0 65030.0,25565.0 65000.0,25560.0 C 64970.0,25554.0 64925.0,25546.0 64900.0,25541.0 C 64875.0,25536.0 64830.0,25527.0 64800.0,25521.0 C 64770.0,25515.0 64725.0,25505.0 64700.0,25499.0 C 64675.0,25494.0 64637.0,25485.0 64615.0,25480.0 C 64541.0,25464.0 64436.0,25437.0 64375.0,25420.0 C 64353.0,25414.0 64319.0,25405.0 64300.0,25400.0 C 64281.0,25395.0 64249.0,25387.0 64230.0,25381.0 C 64188.0,25369.0 64131.0,25353.0 64088.0,25341.0 C 64043.0,25329.0 63949.0,25300.0 63925.0,25290.0 C 63914.0,25286.0 63874.0,25273.0 63835.0,25261.0 C 63797.0,25249.0 63741.0,25230.0 63713.0,25219.0 C 63684.0,25209.0 63634.0,25191.0 63603.0,25179.0 C 63571.0,25167.0 63536.0,25154.0 63525.0,25150.0 C 63514.0,25145.0 63462.0,25125.0 63410.0,25105.0 C 63358.0,25085.0 63300.0,25062.0 63283.0,25054.0 C 63265.0,25046.0 63234.0,25033.0 63215.0,25025.0 C 62928.0,24902.0 62566.0,24716.0 62358.0,24584.0 C 62337.0,24571.0 62318.0,24560.0 62316.0,24560.0 C 62307.0,24560.0 61977.0,24339.0 61900.0,24282.0 C 61811.0,24216.0 61617.0,24065.0 61576.0,24030.0 C 61247.0,23750.0 60987.0,23484.0 60735.0,23168.0 C 60723.0,23153.0 60640.0,23042.0 60539.0,22905.0 C 60519.0,22878.0 60482.0,22824.0 60458.0,22785.0 C 60433.0,22747.0 60397.0,22689.0 60376.0,22657.0 C 60356.0,22625.0 60330.0,22583.0 60319.0,22564.0 C 60309.0,22545.0 60290.0,22513.0 60278.0,22493.0 C 60209.0,22373.0 60088.0,22135.0 60030.0,22005.0 C 60018.0,21978.0 60000.0,21937.0 59990.0,21915.0 C 59887.0,21687.0 59763.0,21318.0 59694.0,21035.0 C 59686.0,21002.0 59675.0,20959.0 59670.0,20940.0 C 59647.0,20851.0 59610.0,20660.0 59591.0,20540.0 C 59558.0,20327.0 59548.0,20245.0 59530.0,20065.0 C 59480.0,19541.0 59494.0,19000.0 59571.0,18465.0 C 59596.0,18293.0 59639.0,18062.0 59671.0,17938.0 C 59676.0,17917.0 59685.0,17882.0 59690.0,17860.0 C 59706.0,17795.0 59722.0,17737.0 59730.0,17710.0 C 59734.0,17696.0 59743.0,17665.0 59750.0,17640.0 C 59775.0,17550.0 59803.0,17465.0 59811.0,17448.0 C 59816.0,17438.0 59820.0,17422.0 59820.0,17412.0 C 59820.0,17402.0 59824.0,17390.0 59828.0,17385.0 C 59832.0,17379.0 59842.0,17357.0 59849.0,17335.0 C 59870.0,17267.0 59905.0,17174.0 59933.0,17110.0 C 59942.0,17091.0 59958.0,17050.0 59970.0,17020.0 C 60009.0,16919.0 60181.0,16565.0 60237.0,16470.0 C 60251.0,16445.0 60271.0,16411.0 60280.0,16394.0 C 60297.0,16364.0 60337.0,16299.0 60411.0,16180.0 C 60430.0,16150.0 60448.0,16123.0 60451.0,16120.0 C 60454.0,16117.0 60463.0,16104.0 60469.0,16091.0 C 60509.0,16016.0 60794.0,15644.0 60910.0,15515.0 C 61069.0,15339.0 61220.0,15187.0 61380.0,15040.0 C 61443.0,14982.0 61497.0,14933.0 61500.0,14930.0 C 61516.0,14913.0 61770.0,14713.0 61850.0,14654.0 C 61945.0,14584.0 62275.0,14360.0 62284.0,14360.0 C 62287.0,14360.0 62308.0,14347.0 62332.0,14331.0 C 62356.0,14315.0 62392.0,14293.0 62413.0,14281.0 C 62469.0,14250.0 62510.0,14226.0 62560.0,14196.0 C 62605.0,14170.0 63097.0,13925.0 63135.0,13910.0 C 63146.0,13906.0 63172.0,13895.0 63193.0,13886.0 C 63213.0,13877.0 63247.0,13863.0 63268.0,13854.0 C 63288.0,13845.0 63314.0,13834.0 63325.0,13830.0 C 63336.0,13826.0 63366.0,13813.0 63392.0,13801.0 C 63418.0,13789.0 63444.0,13780.0 63450.0,13780.0 C 63456.0,13780.0 63468.0,13776.0 63478.0,13771.0 C 63506.0,13756.0 63626.0,13711.0 63739.0,13674.0 C 63797.0,13655.0 63854.0,13635.0 63865.0,13631.0 C 63876.0,13626.0 63919.0,13612.0 63960.0,13600.0 C 64001.0,13587.0 64055.0,13570.0 64080.0,13562.0 C 64105.0,13554.0 64140.0,13544.0 64158.0,13539.0 C 64175.0,13534.0 64207.0,13525.0 64228.0,13519.0 C 64248.0,13513.0 64281.0,13505.0 64300.0,13500.0 C 64319.0,13495.0 64371.0,13482.0 64415.0,13470.0 C 64459.0,13458.0 64515.0,13444.0 64540.0,13438.0 C 64565.0,13433.0 64603.0,13424.0 64625.0,13419.0 C 64647.0,13413.0 64685.0,13405.0 64710.0,13400.0 C 64735.0,13394.0 64775.0,13386.0 64800.0,13380.0 C 64883.0,13361.0 64973.0,13344.0 65110.0,13321.0 C 65487.0,13255.0 65592.0,13242.0 66050.0,13200.0 C 66317.0,13175.0 66599.0,13165.0 66995.0,13165.0 C 67432.0,13165.0 67689.0,13178.0 68092.0,13219.0 C 68249.0,13236.0 68235.0,13222.0 68249.0,13363.0 C 68255.0,13430.0 68265.0,13521.0 68270.0,13565.0 C 68275.0,13609.0 68284.0,13697.0 68290.0,13760.0 C 68296.0,13823.0 68305.0,13913.0 68310.0,13960.0 C 68315.0,14007.0 68324.0,14095.0 68330.0,14155.0 C 68336.0,14216.0 68345.0,14306.0 68350.0,14355.0 C 68355.0,14405.0 68364.0,14495.0 68370.0,14555.0 C 68376.0,14616.0 68385.0,14706.0 68390.0,14755.0 C 68395.0,14805.0 68404.0,14895.0 68410.0,14955.0 C 68416.0,15016.0 68425.0,15103.0 68430.0,15150.0 C 68435.0,15197.0 68444.0,15287.0 68450.0,15350.0 C 68456.0,15413.0 68465.0,15501.0 68470.0,15545.0 C 68475.0,15589.0 68484.0,15684.0 68491.0,15755.0 C 68497.0,15827.0 68506.0,15909.0 68511.0,15939.0 C 68516.0,15969.0 68520.0,16011.0 68520.0,16031.0 C 68520.0,16107.0 68542.0,16221.0 68556.0,16218.0 C 68563.0,16216.0 68636.0,16150.0 68717.0,16070.0 C 68799.0,15990.0 68911.0,15882.0 68966.0,15830.0 C 69254.0,15555.0 69476.0,15341.0 69775.0,15050.0 C 69880.0,14948.0 70058.0,14777.0 70170.0,14670.0 C 70283.0,14563.0 70445.0,14407.0 70530.0,14325.0 C 70615.0,14242.0 70733.0,14129.0 70791.0,14072.0 C 70849.0,14016.0 70903.0,13970.0 70911.0,13970.0 C 70925.0,13970.0 71287.0,14149.0 71385.0,14204.0 C 71413.0,14220.0 71453.0,14243.0 71476.0,14255.0 C 71498.0,14268.0 71547.0,14296.0 71584.0,14319.0 C 71622.0,14341.0 71654.0,14360.0 71656.0,14360.0 C 71664.0,14360.0 71930.0,14535.0 72071.0,14632.0 C 72174.0,14705.0 72384.0,14868.0 72505.0,14970.0 C 72677.0,15116.0 72990.0,15436.0 73140.0,15620.0 C 73165.0,15650.0 73187.0,15677.0 73190.0,15680.0 C 73198.0,15688.0 73243.0,15743.0 73267.0,15776.0 C 73279.0,15792.0 73303.0,15825.0 73322.0,15850.0 C 73341.0,15875.0 73371.0,15918.0 73390.0,15945.0 C 73408.0,15973.0 73426.0,15997.0 73430.0,16000.0 C 73437.0,16006.0 73550.0,16176.0 73566.0,16205.0 C 73572.0,16216.0 73596.0,16256.0 73620.0,16294.0 C 73725.0,16465.0 73847.0,16703.0 73934.0,16903.0 C 73980.0,17009.0 73999.0,17055.0 74010.0,17085.0 C 74014.0,17096.0 74022.0,17116.0 74028.0,17130.0 C 74057.0,17201.0 74139.0,17443.0 74170.0,17550.0 C 74177.0,17575.0 74187.0,17611.0 74193.0,17630.0 C 74198.0,17649.0 74206.0,17676.0 74211.0,17690.0 C 74215.0,17704.0 74228.0,17756.0 74240.0,17805.0 C 74251.0,17855.0 74265.0,17911.0 74270.0,17930.0 C 74274.0,17949.0 74283.0,17990.0 74290.0,18020.0 C 74296.0,18050.0 74305.0,18093.0 74310.0,18115.0 C 74314.0,18137.0 74323.0,18187.0 74330.0,18225.0 C 74336.0,18264.0 74345.0,18318.0 74350.0,18345.0 C 74355.0,18373.0 74364.0,18433.0 74370.0,18480.0 C 74376.0,18527.0 74385.0,18594.0 74390.0,18630.0 C 74398.0,18692.0 74408.0,18799.0 74430.0,19093.0 C 74443.0,19256.0 74443.0,19829.0 74431.0,19957.0 C 74425.0,20011.0 74416.0,20111.0 74410.0,20180.0 C 74404.0,20249.0 74395.0,20333.0 74390.0,20368.0 C 74365.0,20536.0 74358.0,20579.0 74349.0,20630.0 C 74343.0,20660.0 74335.0,20705.0 74330.0,20730.0 C 74310.0,20838.0 74256.0,21066.0 74219.0,21198.0 C 74214.0,21215.0 74206.0,21245.0 74201.0,21263.0 C 74183.0,21330.0 74158.0,21406.0 74149.0,21422.0 C 74144.0,21432.0 74140.0,21448.0 74140.0,21458.0 C 74140.0,21468.0 74136.0,21480.0 74132.0,21485.0 C 74128.0,21491.0 74118.0,21513.0 74111.0,21535.0 C 74089.0,21605.0 74035.0,21746.0 74001.0,21822.0 C 73989.0,21848.0 73980.0,21872.0 73980.0,21875.0 C 73980.0,21894.0 73815.0,22230.0 73732.0,22380.0 C 73539.0,22726.0 73347.0,23000.0 73066.0,23330.0 C 72968.0,23446.0 72608.0,23810.0 72527.0,23878.0 C 72498.0,23901.0 72459.0,23934.0 72440.0,23951.0 C 72327.0,24050.0 72109.0,24219.0 71990.0,24301.0 C 71954.0,24325.0 71920.0,24350.0 71914.0,24355.0 C 71894.0,24374.0 71594.0,24565.0 71490.0,24625.0 C 71384.0,24687.0 71368.0,24695.0 71264.0,24750.0 C 71095.0,24840.0 70907.0,24932.0 70785.0,24985.0 C 70763.0,24994.0 70727.0,25010.0 70705.0,25020.0 C 70596.0,25069.0 70570.0,25080.0 70562.0,25080.0 C 70557.0,25080.0 70535.0,25089.0 70512.0,25100.0 C 70490.0,25111.0 70465.0,25120.0 70457.0,25120.0 C 70450.0,25120.0 70440.0,25124.0 70435.0,25129.0 C 70429.0,25134.0 70405.0,25145.0 70380.0,25153.0 C 70355.0,25162.0 70297.0,25183.0 70250.0,25200.0 C 70203.0,25218.0 70154.0,25235.0 70140.0,25237.0 C 70126.0,25240.0 70111.0,25246.0 70105.0,25250.0 C 70100.0,25253.0 70075.0,25262.0 70050.0,25270.0 C 70025.0,25277.0 69971.0,25294.0 69930.0,25308.0 C 69889.0,25321.0 69840.0,25336.0 69823.0,25341.0 C 69783.0,25352.0 69726.0,25368.0 69685.0,25380.0 C 69647.0,25391.0 69506.0,25429.0 69460.0,25440.0 C 69363.0,25465.0 69341.0,25470.0 69295.0,25480.0 C 69194.0,25504.0 69164.0,25510.0 69115.0,25520.0 C 69088.0,25525.0 69045.0,25535.0 69020.0,25540.0 C 68995.0,25546.0 68950.0,25554.0 68920.0,25560.0 C 68890.0,25565.0 68840.0,25574.0 68810.0,25580.0 C 68780.0,25585.0 68726.0,25595.0 68690.0,25600.0 C 68654.0,25605.0 68596.0,25615.0 68560.0,25620.0 C 68524.0,25626.0 68461.0,25635.0 68420.0,25641.0 C 68379.0,25646.0 68311.0,25654.0 68270.0,25660.0 C 68229.0,25666.0 68143.0,25675.0 68080.0,25680.0 C 68017.0,25686.0 67920.0,25694.0 67865.0,25700.0 C 67745.0,25712.0 67064.0,25740.0 66930.0,25738.0 C 66878.0,25738.0 66687.0,25731.0 66505.0,25724.0M 67410.0,22950.0 C 67451.0,22944.0 67517.0,22935.0 67555.0,22929.0 C 67594.0,22923.0 67650.0,22914.0 67680.0,22909.0 C 67768.0,22892.0 67814.0,22882.0 67943.0,22849.0 C 67994.0,22836.0 68177.0,22781.0 68205.0,22770.0 C 68216.0,22765.0 68252.0,22752.0 68285.0,22740.0 C 68318.0,22728.0 68364.0,22709.0 68387.0,22699.0 C 68411.0,22688.0 68433.0,22680.0 68436.0,22680.0 C 68447.0,22680.0 68703.0,22551.0 68755.0,22520.0 C 68783.0,22503.0 68812.0,22487.0 68820.0,22483.0 C 68872.0,22461.0 69221.0,22213.0 69260.0,22170.0 C 69263.0,22167.0 69281.0,22152.0 69300.0,22136.0 C 69350.0,22095.0 69464.0,21985.0 69540.0,21904.0 C 69780.0,21648.0 69989.0,21334.0 70130.0,21015.0 C 70142.0,20988.0 70160.0,20947.0 70170.0,20925.0 C 70197.0,20866.0 70280.0,20629.0 70300.0,20555.0 C 70329.0,20451.0 70352.0,20358.0 70361.0,20310.0 C 70367.0,20280.0 70376.0,20235.0 70381.0,20210.0 C 70424.0,19982.0 70440.0,19798.0 70440.0,19492.0 C 70440.0,19225.0 70435.0,19129.0 70410.0,18935.0 C 70384.0,18738.0 70334.0,18493.0 70290.0,18350.0 C 70286.0,18336.0 70277.0,18305.0 70270.0,18280.0 C 70263.0,18255.0 70254.0,18226.0 70250.0,18215.0 C 70245.0,18204.0 70239.0,18186.0 70237.0,18175.0 C 70227.0,18137.0 70177.0,18005.0 70169.0,17996.0 C 70164.0,17990.0 70160.0,17980.0 70160.0,17973.0 C 70160.0,17953.0 70023.0,17663.0 69972.0,17575.0 C 69910.0,17469.0 69891.0,17437.0 69846.0,17370.0 C 69819.0,17329.0 69785.0,17279.0 69770.0,17260.0 C 69756.0,17241.0 69727.0,17203.0 69706.0,17175.0 C 69602.0,17036.0 69443.0,16868.0 69290.0,16734.0 C 69266.0,16713.0 69236.0,16687.0 69225.0,16677.0 C 69214.0,16667.0 69180.0,16640.0 69150.0,16618.0 C 69120.0,16595.0 69079.0,16565.0 69060.0,16550.0 C 69014.0,16516.0 68872.0,16420.0 68866.0,16420.0 C 68864.0,16420.0 68833.0,16403.0 68799.0,16382.0 C 68764.0,16361.0 68697.0,16324.0 68650.0,16301.0 C 68603.0,16277.0 68561.0,16254.0 68555.0,16249.0 C 68550.0,16244.0 68540.0,16240.0 68533.0,16240.0 C 68526.0,16240.0 68492.0,16227.0 68458.0,16212.0 C 68423.0,16196.0 68379.0,16178.0 68360.0,16171.0 C 68341.0,16164.0 68314.0,16153.0 68300.0,16148.0 C 68185.0,16100.0 67920.0,16026.0 67740.0,15991.0 C 67245.0,15895.0 66728.0,15898.0 66190.0,16000.0 C 66165.0,16005.0 66125.0,16014.0 66100.0,16020.0 C 66075.0,16026.0 66037.0,16035.0 66015.0,16040.0 C 65993.0,16045.0 65957.0,16054.0 65935.0,16060.0 C 65913.0,16066.0 65882.0,16075.0 65865.0,16080.0 C 65806.0,16096.0 65618.0,16162.0 65565.0,16185.0 C 65339.0,16281.0 65240.0,16330.0 65121.0,16401.0 C 65087.0,16423.0 65056.0,16440.0 65054.0,16440.0 C 65045.0,16440.0 64841.0,16582.0 64750.0,16652.0 C 64652.0,16727.0 64378.0,16993.0 64297.0,17090.0 C 64129.0,17293.0 64001.0,17488.0 63895.0,17700.0 C 63831.0,17829.0 63783.0,17936.0 63755.0,18010.0 C 63746.0,18035.0 63734.0,18064.0 63730.0,18075.0 C 63721.0,18096.0 63666.0,18264.0 63651.0,18315.0 C 63618.0,18433.0 63591.0,18546.0 63571.0,18650.0 C 63540.0,18817.0 63531.0,18883.0 63510.0,19108.0 C 63488.0,19336.0 63503.0,19794.0 63540.0,20035.0 C 63559.0,20156.0 63568.0,20214.0 63578.0,20260.0 C 63603.0,20376.0 63611.0,20408.0 63621.0,20445.0 C 63626.0,20467.0 63635.0,20501.0 63639.0,20520.0 C 63644.0,20539.0 63654.0,20575.0 63662.0,20600.0 C 63670.0,20625.0 63683.0,20665.0 63690.0,20690.0 C 63698.0,20715.0 63706.0,20740.0 63710.0,20745.0 C 63713.0,20751.0 63722.0,20773.0 63729.0,20795.0 C 63742.0,20839.0 63747.0,20851.0 63779.0,20922.0 C 63791.0,20948.0 63800.0,20972.0 63800.0,20975.0 C 63800.0,20977.0 63814.0,21010.0 63831.0,21047.0 C 64098.0,21633.0 64518.0,22115.0 65056.0,22453.0 C 65187.0,22535.0 65558.0,22720.0 65591.0,22720.0 C 65596.0,22720.0 65608.0,22724.0 65618.0,22729.0 C 65682.0,22762.0 65907.0,22832.0 66065.0,22869.0 C 66093.0,22876.0 66131.0,22885.0 66150.0,22890.0 C 66169.0,22894.0 66219.0,22903.0 66260.0,22910.0 C 66301.0,22916.0 66360.0,22925.0 66390.0,22930.0 C 66480.0,22945.0 66611.0,22960.0 66680.0,22964.0 C 66812.0,22971.0 67337.0,22961.0 67410.0,22950.0" fill="#ffffff" id="ffffff-000005"/>
    <path stroke="none" d="M2453 25254 c-4 -10 17 -83 37 -129 4 -11 22 -58 40 -105 18 -47 36 -94 40 -105 4 -11 18 -47 30 -80 12 -33 26 -69 30 -80 4 -11 18 -47 30 -80 12 -33 27 -71 32 -85 14 -34 22 -54 48 -125 12 -33 26 -69 30 -80 4 -11 18 -47 30 -80 12 -33 26 -69 30 -80 4 -11 22 -57 39 -102 17 -46 45 -120 62 -165 17 -46 35 -92 39 -103 4 -11 18 -47 30 -80 12 -33 26 -69 30 -80 4 -11 22 -58 40 -105 18 -47 36 -94 40 -105 4 -11 18 -47 30 -80 12 -33 26 -69 30 -80 4 -11 18 -47 30 -80 12 -33 26 -69 30 -80 4 -11 22 -58 40 -105 18 -47 36 -94 40 -105 4 -11 18 -47 30 -80 12 -33 26 -69 30 -80 4 -11 22 -58 40 -105 18 -47 36 -94 40 -105 4 -11 18 -47 30 -80 12 -33 26 -69 30 -80 4 -11 18 -47 30 -80 12 -33 26 -69 30 -80 4 -11 22 -57 39 -102 17 -46 45 -120 62 -165 17 -46 35 -92 39 -103 4 -11 22 -58 40 -105 18 -47 36 -94 40 -105 4 -11 18 -47 30 -80 12 -33 26 -69 30 -80 4 -11 18 -47 30 -80 12 -33 26 -69 30 -80 4 -11 22 -58 40 -105 18 -47 36 -94 40 -105 4 -11 18 -47 30 -80 12 -33 26 -69 30 -80 4 -11 18 -47 30 -80 12 -33 26 -69 30 -80 4 -11 18 -47 30 -80 12 -33 26 -70 31 -82 5 -13 13 -33 18 -45 5 -13 19 -50 31 -83 12 -33 26 -69 30 -80 4 -11 18 -47 30 -80 12 -33 26 -69 30 -80 4 -11 22 -57 39 -102 17 -46 45 -120 62 -165 17 -46 35 -92 39 -103 4 -11 18 -47 30 -80 12 -33 26 -69 30 -80 4 -11 22 -58 40 -105 18 -47 36 -94 40 -105 4 -11 18 -47 30 -80 12 -33 26 -69 30 -80 4 -11 18 -47 30 -80 12 -33 26 -69 30 -80 4 -11 22 -58 40 -105 18 -47 36 -94 40 -105 4 -11 18 -47 30 -80 12 -33 26 -69 30 -80 4 -11 22 -58 40 -105 18 -47 36 -94 40 -105 4 -11 18 -47 30 -80 12 -33 26 -69 30 -80 4 -11 18 -47 30 -80 12 -33 26 -69 30 -80 4 -11 22 -57 39 -102 17 -46 45 -120 62 -165 17 -46 35 -92 39 -103 4 -11 22 -58 40 -105 18 -47 36 -94 40 -105 4 -11 18 -47 30 -80 12 -33 26 -69 30 -80 4 -11 18 -47 30 -80 12 -33 26 -69 30 -80 4 -11 22 -58 40 -105 18 -47 36 -94 40 -105 4 -11 18 -47 30 -80 12 -33 26 -69 30 -80 11 -28 68 -179 92 -245 23 -64 32 -86 46 -120 5 -14 20 -52 32 -85 12 -33 26 -69 30 -80 8 -19 19 -50 100 -265 81 -215 92 -246 100 -265 4 -11 18 -47 30 -80 12 -33 26 -69 30 -80 4 -11 22 -58 40 -105 18 -47 36 -94 40 -105 4 -11 18 -47 30 -80 12 -33 26 -69 30 -80 4 -11 18 -47 30 -80 12 -33 26 -69 30 -80 4 -11 22 -58 40 -105 18 -47 36 -94 40 -105 4 -11 18 -47 30 -80 12 -33 26 -69 30 -80 4 -11 22 -58 40 -105 18 -47 36 -94 40 -105 4 -11 18 -47 30 -80 12 -33 26 -69 30 -80 4 -11 18 -47 30 -80 12 -33 26 -69 30 -80 4 -11 22 -58 40 -105 18 -47 36 -94 40 -105 4 -11 18 -47 30 -80 12 -33 26 -69 30 -80 4 -11 22 -58 40 -105 18 -47 36 -94 40 -105 4 -11 13 -36 20 -55 7 -19 16 -44 20 -55 4 -11 14 -36 21 -55 7 -19 18 -38 23 -42 6 -4 533 -8 1172 -8 1308 0 1178 -9 1203 80 7 25 17 54 21 65 4 11 13 38 19 60 7 22 16 49 20 60 5 11 14 38 20 60 7 22 16 49 20 60 5 11 14 38 20 60 7 22 16 49 20 60 5 11 14 38 20 60 7 22 16 49 21 60 4 11 14 40 21 65 7 25 15 50 18 55 3 6 622 1859 1376 4119 753 2260 1376 4111 1383 4114 7 2 12 -5 12 -15 0 -11 4 -23 8 -28 5 -6 46 -125 91 -265 46 -140 87 -264 91 -275 4 -11 90 -270 190 -575 100 -305 186 -563 191 -572 5 -10 9 -27 9 -37 0 -11 4 -23 10 -26 6 -3 10 -16 10 -29 0 -12 4 -26 8 -31 5 -6 14 -30 21 -55 7 -25 17 -54 21 -65 6 -15 406 -1228 482 -1460 6 -16 13 -39 18 -50 4 -11 13 -38 19 -60 7 -22 16 -49 20 -60 5 -11 14 -38 20 -60 7 -22 16 -49 20 -60 5 -11 91 -270 191 -575 101 -305 285 -863 410 -1240 125 -377 309 -935 409 -1240 101 -305 187 -563 192 -572 5 -10 9 -27 9 -37 0 -11 5 -23 10 -26 5 -3 10 -17 10 -30 0 -13 5 -27 10 -30 6 -3 10 -17 10 -30 0 -13 5 -27 10 -30 6 -3 10 -15 10 -26 0 -10 4 -27 9 -37 5 -9 109 -321 232 -692 123 -371 228 -678 234 -682 5 -4 533 -8 1171 -8 917 0 1164 3 1172 13 6 6 18 32 27 57 9 25 21 54 25 65 4 11 22 58 40 105 18 47 36 94 40 105 4 11 13 36 20 55 7 19 16 45 21 58 5 12 13 32 18 45 5 12 19 49 31 82 26 71 34 91 48 125 5 14 19 50 30 80 24 66 81 217 92 245 4 11 18 47 30 80 26 71 34 91 48 125 5 14 19 50 30 80 11 30 39 105 62 165 23 61 55 145 71 188 67 178 91 243 99 262 4 11 18 47 30 80 12 33 26 69 30 80 4 11 18 47 30 80 12 33 26 70 31 83 5 12 13 32 18 45 5 12 19 49 31 82 12 33 26 69 30 80 4 11 18 47 30 80 12 33 26 69 30 80 4 11 22 58 40 105 18 47 36 94 40 105 4 11 18 47 30 80 12 33 26 69 30 80 4 11 22 57 39 103 17 45 45 119 62 165 17 45 35 91 39 102 4 11 18 47 30 80 12 33 26 69 30 80 4 11 22 57 39 103 17 45 45 119 62 165 17 45 35 91 39 102 4 11 18 47 30 80 12 33 26 70 31 83 5 12 13 32 18 45 5 12 19 49 31 82 12 33 26 69 30 80 4 11 18 47 30 80 12 33 26 69 30 80 4 11 22 58 40 105 18 47 36 94 40 105 4 11 18 47 30 80 12 33 26 69 30 80 4 11 18 47 30 80 12 33 26 69 30 80 4 11 18 47 30 80 12 33 26 70 31 83 5 12 13 32 18 45 5 12 19 49 31 82 12 33 26 69 30 80 8 19 19 50 100 265 81 215 92 246 100 265 4 11 18 47 30 80 12 33 26 69 30 80 4 11 18 47 30 80 12 33 26 70 31 83 5 12 13 32 18 45 5 12 19 49 31 82 12 33 26 69 30 80 4 11 18 47 30 80 12 33 26 69 30 80 4 11 22 58 40 105 18 47 36 94 40 105 4 11 18 47 30 80 12 33 26 70 31 83 5 12 13 32 18 45 5 12 18 47 29 77 24 66 81 217 92 245 4 11 18 47 30 80 12 33 26 69 30 80 32 79 70 181 70 188 0 4 9 26 19 50 11 23 27 65 36 92 9 28 22 64 30 80 7 17 18 46 25 65 7 19 16 44 20 55 4 11 22 58 40 105 18 47 36 94 40 105 4 11 18 47 30 80 12 33 26 69 30 80 4 11 22 58 40 105 18 47 36 94 40 105 4 11 18 47 30 80 12 33 26 69 30 80 4 11 18 47 30 80 12 33 26 69 30 80 4 11 18 47 30 80 26 71 34 91 48 125 5 14 19 50 30 80 11 30 39 105 62 165 23 61 55 145 71 188 67 178 91 243 99 262 4 11 18 47 30 80 12 33 26 69 30 80 4 11 18 47 30 80 12 33 26 70 31 83 5 12 13 32 18 45 5 12 19 49 31 82 12 33 26 69 30 80 4 11 18 47 30 80 12 33 26 69 30 80 4 11 22 58 40 105 18 47 36 94 40 105 4 11 18 47 30 80 12 33 26 70 31 83 5 12 13 32 18 45 5 12 18 47 29 77 24 66 81 217 92 245 4 11 18 47 30 80 12 33 26 69 30 80 55 135 92 244 88 256 -3 9 -2376 14 -2385 5 -3 -2 -17 -40 -32 -85 -15 -45 -31 -84 -34 -88 -4 -3 -7 -15 -7 -25 0 -10 -4 -26 -10 -36 -5 -9 -19 -46 -30 -82 -12 -36 -25 -74 -30 -85 -5 -11 -11 -29 -13 -40 -3 -11 -29 -85 -57 -165 -28 -80 -64 -183 -80 -230 -16 -47 -52 -150 -80 -230 -28 -80 -66 -192 -86 -250 -19 -58 -39 -113 -44 -122 -6 -10 -10 -26 -10 -36 0 -10 -4 -22 -8 -28 -5 -5 -19 -43 -32 -84 -13 -41 -27 -79 -32 -84 -4 -6 -8 -18 -8 -28 0 -10 -4 -26 -10 -36 -5 -9 -23 -60 -40 -112 -17 -52 -35 -104 -40 -115 -5 -11 -27 -74 -49 -140 -61 -181 -63 -188 -72 -210 -14 -36 -60 -168 -95 -275 -19 -58 -39 -114 -44 -125 -5 -11 -27 -76 -50 -145 -23 -69 -45 -134 -50 -145 -5 -11 -18 -49 -30 -85 -11 -36 -25 -73 -30 -82 -6 -10 -10 -25 -10 -33 0 -8 -4 -23 -10 -33 -5 -9 -25 -64 -44 -122 -20 -58 -58 -170 -86 -250 -28 -80 -64 -183 -80 -230 -16 -47 -52 -150 -80 -230 -28 -80 -54 -154 -57 -165 -2 -11 -8 -29 -13 -40 -5 -11 -18 -49 -30 -85 -11 -36 -25 -73 -30 -82 -6 -10 -10 -25 -10 -33 0 -8 -4 -23 -10 -33 -5 -9 -25 -64 -44 -122 -53 -158 -106 -313 -116 -335 -5 -11 -25 -67 -44 -125 -19 -58 -58 -170 -86 -250 -29 -80 -54 -154 -57 -165 -2 -11 -8 -29 -13 -40 -5 -11 -18 -49 -30 -85 -11 -36 -25 -73 -30 -82 -6 -10 -10 -25 -10 -33 0 -8 -4 -23 -10 -33 -5 -9 -23 -60 -40 -112 -17 -52 -35 -104 -40 -115 -5 -11 -18 -49 -30 -85 -12 -36 -25 -74 -30 -85 -5 -11 -11 -29 -13 -40 -3 -11 -29 -85 -57 -165 -28 -80 -64 -183 -80 -230 -16 -47 -56 -164 -90 -260 -33 -96 -72 -209 -86 -250 -13 -41 -29 -83 -34 -92 -6 -10 -10 -25 -10 -33 0 -8 -4 -23 -10 -33 -5 -9 -25 -64 -44 -122 -20 -58 -58 -170 -86 -250 -28 -80 -64 -183 -80 -230 -16 -47 -52 -150 -80 -230 -28 -80 -66 -192 -86 -250 -19 -58 -39 -113 -44 -122 -6 -10 -10 -26 -10 -36 0 -10 -4 -22 -8 -28 -5 -5 -19 -43 -32 -84 -13 -41 -27 -79 -32 -84 -4 -6 -8 -17 -8 -27 0 -9 -9 -38 -19 -65 -11 -27 -30 -77 -43 -111 -12 -35 -26 -63 -30 -63 -4 0 -12 19 -18 43 -6 23 -15 51 -19 62 -5 11 -19 54 -31 95 -31 102 -58 189 -90 290 -15 47 -37 119 -50 160 -12 41 -26 84 -30 95 -4 11 -18 54 -30 95 -31 102 -58 189 -90 290 -15 47 -37 119 -50 160 -12 41 -26 84 -30 95 -4 11 -18 54 -30 95 -13 41 -35 113 -50 160 -25 79 -43 137 -93 300 -11 36 -23 74 -27 85 -4 11 -18 54 -30 95 -13 41 -35 113 -50 160 -25 79 -43 137 -93 300 -11 36 -23 74 -27 85 -4 11 -18 54 -30 95 -13 41 -35 113 -50 160 -25 79 -43 137 -93 300 -11 36 -23 74 -27 85 -4 11 -18 54 -30 95 -13 41 -35 113 -50 160 -25 79 -43 137 -93 300 -11 36 -23 74 -27 85 -4 11 -18 54 -30 95 -13 41 -35 113 -50 160 -15 47 -37 119 -50 160 -13 41 -35 113 -50 160 -15 47 -37 119 -50 160 -13 41 -35 113 -50 160 -15 47 -37 119 -50 160 -12 41 -26 84 -30 95 -4 11 -18 54 -30 95 -31 102 -58 189 -90 290 -15 47 -37 119 -50 160 -12 41 -26 84 -30 95 -4 11 -18 54 -30 95 -48 158 -63 206 -70 225 -4 11 -18 54 -30 95 -48 158 -63 206 -70 225 -4 11 -18 54 -30 95 -48 158 -63 206 -70 225 -4 11 -18 54 -30 95 -48 158 -63 206 -70 225 -4 11 -18 54 -30 95 -13 41 -35 113 -50 160 -15 47 -37 119 -50 160 -13 41 -35 113 -50 160 -15 47 -37 119 -50 160 -13 41 -35 113 -50 160 -15 47 -37 119 -50 160 -13 41 -35 113 -50 160 -15 47 -37 119 -50 160 -13 41 -35 113 -50 160 -27 85 -55 176 -93 300 -10 36 -25 80 -33 98 l-14 32 -1289 0 -1290 0 -14 -32 c-8 -18 -87 -256 -177 -528 -89 -272 -169 -513 -178 -535 -8 -22 -18 -53 -22 -70 -4 -16 -15 -50 -24 -75 -23 -62 -370 -1115 -386 -1170 -7 -25 -17 -49 -22 -55 -4 -5 -8 -18 -8 -30 0 -12 -4 -25 -8 -30 -5 -6 -14 -30 -21 -55 -7 -25 -17 -54 -21 -65 -4 -11 -94 -283 -200 -605 -106 -322 -201 -607 -211 -634 -11 -27 -19 -54 -19 -61 0 -7 -8 -34 -19 -61 -10 -27 -92 -272 -181 -544 -89 -272 -166 -504 -171 -515 -4 -11 -13 -38 -20 -60 -6 -22 -20 -62 -30 -89 -11 -27 -19 -54 -19 -61 0 -7 -8 -34 -19 -61 -10 -27 -24 -67 -30 -89 -7 -22 -16 -49 -20 -60 -5 -11 -82 -243 -171 -515 -89 -272 -166 -504 -171 -515 -4 -11 -13 -38 -20 -60 -6 -22 -20 -62 -30 -89 -11 -27 -19 -54 -19 -61 0 -7 -8 -34 -19 -61 -10 -27 -101 -299 -201 -604 -100 -305 -186 -564 -191 -575 -4 -11 -13 -38 -20 -60 -6 -22 -15 -49 -20 -60 -4 -11 -13 -38 -20 -60 -6 -22 -15 -49 -19 -60 -4 -11 -63 -190 -131 -397 -68 -208 -127 -378 -130 -378 -7 0 -33 58 -50 110 -4 14 -31 90 -59 170 -28 80 -62 179 -76 220 -14 41 -29 84 -34 95 -5 11 -23 63 -40 115 -17 52 -35 104 -40 115 -5 11 -18 49 -30 85 -12 36 -25 74 -30 85 -5 11 -23 63 -40 115 -17 52 -35 104 -40 115 -5 11 -23 63 -40 115 -17 52 -35 104 -40 115 -5 11 -18 49 -30 85 -12 36 -25 74 -30 85 -5 11 -23 63 -40 115 -17 52 -35 104 -40 115 -5 11 -23 63 -40 115 -17 52 -35 104 -40 115 -5 11 -20 54 -34 95 -14 41 -48 140 -76 220 -28 80 -60 170 -70 200 -10 30 -42 120 -70 200 -28 80 -62 179 -76 220 -14 41 -29 84 -34 95 -5 11 -23 63 -40 115 -17 52 -35 104 -40 115 -5 11 -18 49 -30 85 -12 36 -25 74 -30 85 -5 11 -23 63 -40 115 -17 52 -35 104 -40 115 -5 11 -23 63 -40 115 -17 52 -35 104 -40 115 -5 11 -18 49 -30 85 -12 36 -25 74 -30 85 -5 11 -23 63 -40 115 -17 52 -35 104 -40 115 -5 11 -23 63 -40 115 -17 52 -35 104 -40 115 -8 19 -48 133 -110 315 -16 47 -47 137 -70 200 -23 63 -54 153 -70 200 -16 47 -52 150 -80 230 -28 80 -62 179 -76 220 -14 41 -29 84 -34 95 -5 11 -18 49 -30 85 -12 36 -25 74 -30 85 -5 11 -23 63 -40 115 -17 52 -35 104 -40 115 -5 11 -23 63 -40 115 -17 52 -35 104 -40 115 -5 11 -18 49 -30 85 -12 36 -25 74 -30 85 -5 11 -25 67 -44 125 -54 161 -106 313 -116 335 -8 19 -49 135 -110 315 -16 47 -47 137 -70 200 -23 63 -54 153 -70 200 -16 47 -52 150 -80 230 -28 80 -62 179 -76 220 -14 41 -29 84 -34 95 -5 11 -18 49 -30 85 -12 36 -25 74 -30 85 -5 11 -23 63 -40 115 -17 52 -35 104 -40 115 -5 11 -21 58 -36 103 -15 46 -32 86 -38 88 -6 2 -548 5 -1205 6 -851 2 -1195 0 -1198 -8z" fill="#ffffff" id="ffffff-000006"/>
    <path stroke="none" d="M25160 25260 l-1125 -5 0 -5810 0 -5810 1135 0 1135 0 3 5811 c2 4645 0 5813 -10 5815 -7 2 -519 2 -1138 -1z" fill="#ffffff" id="ffffff-000007"/>
  </g>
</svg>
