<?xml version="1.0" standalone="no"?>
<!DOCTYPE svg PUBLIC "-//W3C//DTD SVG 1.1//EN"
 "http://www.w3.org/Graphics/SVG/1.1/DTD/svg11.dtd">
<!-- Created with svg_stack (http://github.com/astraw/svg_stack) -->
<svg xmlns:sodipodi="http://sodipodi.sourceforge.net/DTD/sodipodi-0.dtd" xmlns="http://www.w3.org/2000/svg" version="1.1" width="868.0" height="1300.0">
  <defs/>
  <g id="id0:id0" transform="matrix(1.25,0,0,1.25,0.0,0.0)"><g transform="translate(0.000000,1040.000000) scale(0.040000,-0.040000)" fill="#000000" stroke="none">
<path d="M0 13000 l0 -13000 8680 0 8680 0 0 13000 0 13000 -8680 0 -8680 0 0 -13000z m17265 0 l0 -12945 -2797 -3 -2797 -2 -12 22 c-11 21 -19 69 -59 378 -11 91 -36 278 -55 415 -19 138 -37 277 -40 310 -4 33 -17 134 -31 225 -13 91 -33 224 -44 295 -11 72 -22 164 -25 205 -3 41 -10 102 -15 135 -9 53 -25 177 -60 445 -9 70 -25 209 -50 425 -6 50 -17 169 -26 265 -25 274 -36 367 -60 498 -3 12 -17 36 -32 52 -33 37 -130 63 -294 80 -124 12 -262 51 -296 83 -45 42 -49 67 -61 412 -7 182 -15 337 -18 345 -5 15 -23 390 -26 565 -2 52 -8 100 -16 113 -7 13 -38 36 -69 50 -48 23 -71 27 -152 28 -112 1 -260 -17 -311 -39 -20 -8 -45 -27 -55 -41 -11 -15 -27 -37 -36 -49 l-18 -22 -21 25 c-18 22 -20 32 -14 80 5 30 10 541 11 1135 2 594 4 1148 5 1230 0 83 -2 467 -5 855 -12 1373 -11 2520 2 2602 6 42 19 211 27 375 22 426 44 768 56 843 14 92 18 151 22 355 2 99 9 199 16 223 9 32 9 52 0 85 -7 26 -11 115 -10 242 1 110 -3 247 -8 305 -18 181 -21 310 -11 460 5 80 12 217 15 305 6 164 16 272 34 360 6 28 15 79 21 115 11 71 49 209 86 310 19 52 38 80 97 140 74 77 129 112 204 130 23 6 55 21 70 34 15 13 39 27 52 31 14 4 38 16 55 26 17 11 37 19 44 19 7 0 43 18 79 40 36 22 86 47 112 56 25 10 55 25 66 35 11 10 38 25 60 32 22 8 68 33 102 56 35 23 91 56 125 74 35 18 92 51 128 74 36 23 100 63 143 90 43 26 94 58 113 71 20 12 40 19 46 16 12 -8 3 -140 -12 -180 -9 -22 -14 -67 -25 -199 -1 -22 -8 -87 -14 -145 -6 -58 -16 -175 -21 -260 -6 -85 -17 -186 -25 -225 -20 -98 -20 -194 1 -202 25 -9 39 15 73 124 43 138 110 222 167 211 29 -5 31 -55 3 -84 l-22 -24 -3 -197 c-1 -109 -5 -252 -8 -317 -4 -69 -2 -141 4 -170 5 -28 17 -112 25 -186 9 -74 23 -157 32 -184 12 -39 13 -56 4 -86 -17 -56 -14 -80 15 -117 14 -19 34 -67 44 -106 19 -78 28 -102 62 -175 19 -40 22 -61 19 -137 -2 -82 7 -160 31 -258 6 -26 17 -42 34 -49 24 -11 29 -8 84 50 32 34 75 85 94 114 20 29 76 112 127 183 139 199 150 218 240 400 45 94 93 186 105 205 21 36 114 209 161 305 14 28 41 75 60 105 73 116 136 231 219 398 47 94 87 172 90 172 3 0 16 -7 30 -16 19 -13 28 -14 37 -5 11 11 42 140 52 221 3 25 12 68 20 95 8 28 21 91 29 140 14 86 23 129 83 430 14 72 29 153 34 180 9 58 22 100 84 290 79 239 154 499 175 603 13 66 13 133 1 165 -8 20 -6 29 10 43 28 25 24 31 -22 31 -28 0 -42 -5 -47 -16 -3 -9 -27 -42 -54 -74 -26 -33 -51 -71 -54 -85 -4 -15 -14 -38 -24 -52 -9 -14 -24 -42 -34 -63 -24 -52 -113 -157 -133 -157 -10 0 -35 -19 -58 -42 -22 -24 -61 -58 -85 -76 -63 -46 -148 -102 -155 -102 -7 0 -68 -47 -132 -100 -63 -53 -100 -80 -110 -80 -5 0 -39 -31 -77 -69 -44 -45 -79 -71 -99 -75 -17 -3 -39 -14 -49 -23 -15 -13 -23 -15 -36 -7 -21 13 -28 60 -11 80 9 11 9 17 -1 29 -18 22 -28 18 -32 -12 -2 -21 -9 -29 -28 -31 -14 -2 -33 -11 -42 -19 -16 -15 -20 -15 -36 0 -27 25 -88 22 -95 -3 -4 -17 -14 -20 -74 -22 -96 -2 -102 -1 -135 27 -28 24 -59 26 -93 7 -5 -3 -26 -8 -47 -9 -35 -4 -39 -2 -54 34 -16 37 -50 63 -83 63 -18 0 -51 29 -51 45 0 6 -16 18 -36 25 -20 8 -40 25 -45 37 -5 13 -20 28 -33 33 -13 5 -27 13 -30 19 -8 12 -65 41 -81 41 -27 0 -200 97 -211 118 -6 12 -18 30 -27 40 -10 10 -17 25 -17 33 -1 16 -60 83 -82 92 -15 5 -128 223 -128 245 0 6 -13 37 -30 69 -16 31 -30 70 -30 86 0 15 -9 47 -21 70 -11 23 -27 70 -34 104 -8 35 -21 77 -29 95 -8 18 -20 55 -26 81 -6 26 -15 55 -20 65 -11 19 -37 139 -50 222 -4 30 -17 89 -29 130 -26 93 -26 97 -1 110 25 13 67 -6 101 -47 13 -15 36 -33 51 -40 15 -7 34 -25 42 -41 15 -29 53 -52 86 -52 26 0 34 -17 13 -29 -10 -6 -13 -11 -7 -11 6 0 32 -16 57 -35 25 -19 50 -35 54 -34 20 3 24 -2 13 -16 -10 -12 -9 -16 2 -20 8 -3 20 -5 25 -3 14 4 143 -131 132 -138 -5 -3 -3 -14 4 -25 9 -14 21 -19 44 -17 19 1 39 -4 51 -15 22 -20 34 -22 30 -4 -2 7 0 14 5 15 4 1 7 -1 8 -5 0 -5 8 -16 16 -25 22 -24 62 -22 90 4 l23 22 29 -28 c16 -16 27 -34 25 -40 -3 -7 8 -13 28 -14 18 -1 40 -11 50 -22 9 -11 19 -20 23 -20 4 0 2 7 -5 15 -13 16 -11 18 37 28 24 5 40 -7 23 -18 -17 -10 -11 -25 10 -25 15 0 20 7 20 28 0 15 -5 33 -12 40 -19 19 52 82 92 82 18 0 29 4 25 10 -9 15 46 63 59 50 17 -17 38 -12 32 8 -4 12 2 26 18 41 19 18 36 22 85 23 66 1 101 -18 101 -54 0 -10 5 -27 12 -37 6 -10 8 -26 5 -35 -5 -14 -10 -14 -26 -4 -35 21 -36 -1 -3 -35 21 -22 31 -42 30 -57 -2 -18 3 -25 27 -31 17 -5 33 -5 39 1 6 6 20 10 32 10 13 0 26 5 29 10 4 6 15 10 26 8 13 -2 24 6 32 22 7 13 22 30 35 36 12 6 30 18 40 27 10 10 24 17 30 17 6 0 24 16 39 35 35 45 84 69 122 62 30 -6 44 3 66 47 7 11 16 20 22 19 6 -1 19 7 28 17 10 11 28 20 40 20 24 0 45 21 63 63 6 15 19 30 27 33 12 5 13 9 4 20 -25 30 40 61 68 33 12 -12 33 -4 33 13 0 5 -7 8 -15 5 -8 -4 -17 -2 -20 2 -7 13 22 34 35 26 7 -4 29 9 51 31 29 28 37 43 33 60 -3 12 -1 25 5 28 6 4 11 14 11 23 0 22 48 83 66 83 7 0 14 9 14 20 0 11 -4 20 -8 20 -11 0 -62 -54 -76 -81 -19 -38 -31 -26 -34 36 -2 33 -7 64 -13 69 -5 6 -9 19 -9 31 0 45 -81 53 -294 29 -37 -4 -62 -2 -69 5 -15 15 -120 14 -135 -1 -9 -9 -42 -8 -139 1 -97 10 -152 10 -225 2 -54 -6 -171 -11 -260 -11 -148 -1 -229 -8 -423 -41 -33 -6 -94 -14 -135 -18 -41 -4 -109 -17 -150 -28 -41 -12 -111 -29 -155 -38 -44 -10 -109 -26 -145 -36 -36 -10 -99 -23 -140 -29 -41 -6 -84 -15 -95 -20 -54 -23 -73 -27 -236 -46 -71 -8 -113 11 -135 64 -16 40 -13 79 11 126 8 15 15 37 15 47 0 10 4 21 10 24 5 3 17 21 26 40 21 45 89 122 124 140 16 8 37 34 49 60 20 42 22 61 20 188 -1 78 -7 151 -12 161 -5 11 -11 85 -12 165 -3 203 -15 382 -27 407 -33 69 35 454 91 519 10 11 25 36 34 56 9 20 46 64 82 98 l65 61 0 2838 c0 1561 3 2842 7 2845 3 4 1453 6 3222 5 l3216 -3 0 -12945z m-4849 3149 c9 -16 -12 -33 -31 -25 -14 5 -15 9 -5 21 15 18 26 19 36 4z m-273 -56 c11 -11 -14 -33 -38 -33 -24 0 -49 22 -38 33 3 4 21 7 38 7 17 0 35 -3 38 -7z m-1899 -10983 c34 -13 33 -26 -5 -46 -29 -14 -31 -19 -26 -54 6 -50 -9 -64 -61 -55 -29 5 -44 2 -63 -14 l-26 -20 -32 42 c-32 42 -37 75 -10 68 63 -18 99 -7 99 29 0 28 38 54 87 59 6 0 23 -3 37 -9z m-7 -363 c4 -30 16 -52 41 -75 36 -34 37 -62 4 -62 -11 0 -25 7 -32 15 -39 47 -66 -24 -39 -100 10 -26 8 -37 -9 -72 -20 -38 -24 -41 -74 -46 -63 -6 -73 1 -57 37 9 19 9 32 1 49 -6 12 -14 41 -17 64 -4 23 -15 54 -26 67 -14 18 -18 33 -13 53 17 72 60 93 111 53 45 -35 73 -22 73 34 0 54 27 41 37 -17z m183 -463 c5 -81 3 -91 -17 -114 -30 -35 -44 -18 -50 62 -5 53 -2 72 16 107 32 62 45 49 51 -55z m-155 -24 c3 -66 16 -185 30 -270 59 -361 83 -503 106 -620 10 -52 25 -153 34 -224 8 -71 20 -150 26 -175 6 -25 14 -71 19 -101 4 -30 21 -138 38 -240 17 -102 38 -234 47 -295 16 -105 34 -215 56 -335 5 -30 19 -113 30 -185 10 -71 28 -186 39 -254 14 -82 17 -128 11 -134 -13 -13 -26 20 -35 88 -9 64 -50 282 -75 405 -11 52 -34 176 -52 275 -18 99 -36 200 -40 225 -4 25 -13 72 -18 104 -12 66 -22 82 -46 72 -20 -7 -19 -32 13 -211 35 -195 53 -305 63 -385 5 -41 13 -95 18 -120 5 -25 14 -72 20 -105 6 -33 22 -123 36 -200 14 -77 30 -169 36 -205 5 -36 20 -106 31 -157 18 -76 19 -94 9 -107 -22 -26 -64 -19 -103 16 l-36 33 -31 170 c-17 94 -40 228 -51 299 -11 71 -22 132 -25 136 -2 3 -11 53 -20 111 -9 57 -23 129 -30 159 -8 30 -19 93 -25 140 -6 47 -17 112 -25 145 -12 56 -26 131 -40 232 -6 37 -4 43 20 59 37 24 30 54 -18 78 -36 17 -38 21 -31 50 12 48 5 261 -12 356 -13 73 -20 89 -45 110 -27 23 -32 37 -50 140 -23 133 -46 300 -58 415 -12 106 -26 158 -56 193 -29 34 -18 52 31 52 37 0 84 33 84 60 0 20 -19 30 -55 30 -27 0 -55 34 -55 67 0 15 10 28 33 39 17 9 53 37 80 61 41 38 53 44 84 41 34 -3 36 -5 38 -38z m-370 -82 c3 -7 9 -51 14 -98 7 -60 22 -114 51 -184 38 -92 44 -126 22 -126 -9 0 -91 122 -110 165 -8 16 -18 59 -24 95 -5 36 -12 79 -15 96 -4 25 0 35 18 48 28 19 38 20 44 4z m783 -772 c-4 -55 -32 -57 -36 -2 -5 53 4 72 24 55 10 -8 14 -26 12 -53z m255 -298 c53 -58 67 -84 67 -128 0 -39 -17 -47 -44 -21 -13 12 -41 27 -62 32 -52 14 -74 36 -74 71 0 43 26 98 46 98 10 0 40 -24 67 -52z m-218 -1728 c-5 -8 -11 -8 -17 -2 -6 6 -7 16 -3 22 5 8 11 8 17 2 6 -6 7 -16 3 -22z m29 -151 c-3 -5 -10 -7 -15 -3 -5 3 -7 10 -3 15 3 5 10 7 15 3 5 -3 7 -10 3 -15z"/>
<path d="M13360 20050 c0 -5 5 -10 10 -10 6 0 10 5 10 10 0 6 -4 10 -10 10 -5 0 -10 -4 -10 -10z"/>
<path d="M11675 19906 c-15 -20 -23 -40 -19 -50 7 -19 21 -20 57 -3 29 13 37 53 15 75 -18 18 -25 15 -53 -22z"/>
<path d="M11960 19852 c0 -15 5 -33 12 -40 9 -9 7 -16 -7 -32 -10 -11 -24 -20 -32 -20 -23 0 -14 -43 15 -67 l27 -24 -19 -12 c-41 -26 -58 -49 -47 -60 14 -14 87 -37 118 -37 53 0 79 -160 36 -218 -27 -37 -71 -65 -124 -81 -63 -18 -74 -26 -74 -47 0 -33 67 -31 141 6 68 33 89 33 119 0 l19 -20 -21 -28 c-29 -39 -101 -62 -248 -77 -71 -8 -169 -19 -216 -25 -48 -5 -102 -10 -121 -10 -38 0 -58 -15 -58 -43 0 -18 5 -19 63 -13 34 4 107 9 162 12 55 3 110 10 123 17 18 8 28 8 42 -1 65 -40 280 21 315 90 19 39 20 118 2 118 -27 0 -47 36 -47 83 0 25 5 49 10 52 15 9 12 68 -5 101 -8 16 -35 49 -60 74 -25 24 -45 53 -45 65 0 11 -9 35 -20 53 -25 41 -25 61 1 110 26 48 21 64 -22 86 -41 20 -39 21 -39 -12z"/>
<path d="M11440 19850 c0 -5 5 -10 10 -10 6 0 10 5 10 10 0 6 -4 10 -10 10 -5 0 -10 -4 -10 -10z"/>
<path d="M13440 19750 c0 -5 5 -10 10 -10 6 0 10 5 10 10 0 6 -4 10 -10 10 -5 0 -10 -4 -10 -10z"/>
<path d="M11638 19739 c-14 -8 -18 -24 -18 -74 0 -55 3 -66 21 -75 11 -6 30 -10 42 -8 17 2 21 9 19 28 -8 73 -8 75 28 92 19 10 35 24 35 30 0 16 -103 22 -127 7z"/>
<path d="M13460 19710 c0 -5 5 -10 10 -10 6 0 10 5 10 10 0 6 -4 10 -10 10 -5 0 -10 -4 -10 -10z"/>
<path d="M11909 19468 c-9 -7 -23 -25 -32 -40 -9 -14 -27 -28 -39 -30 -17 -2 -23 -10 -23 -27 0 -22 5 -25 41 -28 58 -4 108 30 112 77 3 24 -2 38 -14 47 -22 16 -26 16 -45 1z"/>
<path d="M11407 19463 c-8 -13 16 -41 38 -43 52 -6 63 1 47 28 -10 15 -77 28 -85 15z"/>
<path d="M11636 19448 c-22 -31 -20 -52 7 -84 28 -32 47 -25 47 17 0 37 21 46 67 30 43 -16 49 -10 33 29 l-12 30 -64 0 c-54 0 -65 -3 -78 -22z"/>
<path d="M11430 19267 c0 -7 14 -26 30 -42 28 -27 32 -28 47 -13 15 15 14 18 -13 42 -31 27 -64 34 -64 13z"/>
<path d="M13520 19210 c0 -5 5 -10 10 -10 6 0 10 5 10 10 0 6 -4 10 -10 10 -5 0 -10 -4 -10 -10z"/>
<path d="M13560 19085 c0 -14 5 -25 10 -25 6 0 10 11 10 25 0 14 -4 25 -10 25 -5 0 -10 -11 -10 -25z"/>
<path d="M13580 19010 c0 -16 5 -30 10 -30 6 0 10 14 10 30 0 17 -4 30 -10 30 -5 0 -10 -13 -10 -30z"/>
<path d="M13600 18920 c0 -22 5 -40 10 -40 6 0 10 18 10 40 0 22 -4 40 -10 40 -5 0 -10 -18 -10 -40z"/>
<path d="M13532 18828 c-7 -7 -12 -40 -12 -79 0 -37 -6 -78 -13 -91 -14 -28 -118 -138 -130 -138 -4 0 -24 -12 -43 -27 -28 -23 -34 -35 -34 -66 0 -27 -5 -39 -17 -44 -22 -7 -63 -43 -63 -55 0 -17 38 -7 43 12 8 30 45 26 58 -7 8 -22 7 -30 -5 -39 -20 -14 -21 -28 -1 -20 17 6 58 -74 49 -97 -7 -18 21 -41 38 -30 7 4 33 8 58 8 l44 0 9 38 c7 28 6 46 -3 63 -10 18 -11 29 -2 47 6 12 12 33 14 47 4 30 31 34 36 5 6 -32 18 -38 51 -24 20 9 31 22 33 39 2 19 8 25 27 24 l25 -1 -30 23 c-33 27 -69 32 -61 10 6 -15 -36 -50 -47 -39 -3 4 -6 23 -6 44 0 29 5 41 23 51 12 7 27 11 33 10 6 -1 21 9 35 24 l24 25 -18 30 c-23 41 -22 114 2 148 17 23 17 29 5 46 -8 10 -14 26 -14 34 0 31 -84 53 -108 29z"/>
<path d="M13640 17791 c0 -6 5 -13 10 -16 6 -3 10 -26 10 -51 0 -24 5 -44 10 -44 6 0 10 27 10 60 0 53 -2 60 -20 60 -11 0 -20 -4 -20 -9z"/>
<path d="M12060 17672 c0 -14 49 -56 57 -49 3 4 -4 18 -17 32 -24 25 -40 32 -40 17z"/>
<path d="M12610 17645 c-7 -9 -10 -18 -7 -22 8 -7 37 15 37 28 0 14 -16 11 -30 -6z"/>
<path d="M13660 17610 c0 -5 5 -10 10 -10 6 0 10 5 10 10 0 6 -4 10 -10 10 -5 0 -10 -4 -10 -10z"/>
<path d="M12520 17575 c-13 -14 -20 -28 -17 -32 8 -7 57 35 57 49 0 15 -16 8 -40 -17z"/>
<path d="M11440 17530 c0 -5 5 -10 10 -10 6 0 10 5 10 10 0 6 -4 10 -10 10 -5 0 -10 -4 -10 -10z"/>
<path d="M12435 17510 c-4 -6 -10 -8 -15 -5 -4 3 -13 -2 -20 -10 -7 -8 -21 -15 -31 -15 -11 0 -19 -4 -19 -10 0 -5 6 -10 14 -10 19 0 96 42 96 52 0 11 -18 10 -25 -2z"/>
<path d="M11372 17468 c-17 -17 -15 -43 3 -58 20 -16 32 -5 16 14 -15 17 -7 36 15 36 8 0 14 5 14 10 0 14 -33 13 -48 -2z"/>
<path d="M11540 17345 c0 -8 5 -15 10 -15 6 0 10 7 10 15 0 8 -4 15 -10 15 -5 0 -10 -7 -10 -15z"/>
<path d="M12120 17350 c-46 -7 -105 -33 -116 -51 -7 -13 34 -59 52 -59 8 0 29 9 49 20 19 11 35 18 35 15 0 -2 14 1 30 6 21 8 30 18 30 33 0 21 -18 48 -29 45 -4 -1 -26 -5 -51 -9z"/>
<path d="M11653 17330 c-21 -9 -40 -46 -29 -57 3 -3 12 -1 19 5 18 16 30 3 15 -16 -10 -12 -8 -18 11 -33 22 -18 24 -18 36 -3 11 16 16 14 57 -14 41 -28 48 -30 72 -19 19 9 26 20 26 40 0 22 -4 27 -26 27 -16 0 -28 7 -31 18 -11 41 -101 73 -150 52z"/>
<path d="M12310 17009 c-47 -5 -125 -13 -175 -18 -49 -6 -126 -14 -170 -19 -44 -4 -86 -12 -93 -16 -7 -4 -32 -9 -55 -10 -23 -1 -62 -12 -87 -24 -79 -39 -143 -77 -147 -87 -3 -10 388 -11 414 -1 7 3 15 0 19 -5 7 -12 148 -3 175 12 21 11 32 0 17 -18 -6 -8 -11 -37 -11 -65 1 -40 6 -55 27 -76 34 -34 42 -23 16 22 -21 38 -19 56 4 56 7 0 21 9 31 20 10 11 24 20 30 20 7 0 18 7 25 16 18 21 -13 55 -32 36 -14 -14 -64 -16 -73 -3 -8 14 10 22 60 25 24 2 60 13 80 25 20 11 44 21 54 21 24 0 37 18 43 57 3 22 0 34 -10 38 -15 5 -17 5 -142 -6z m-46 -198 c9 -15 -23 -36 -36 -23 -5 5 -7 15 -4 21 9 13 33 14 40 2z"/>
<path d="M11160 16850 c0 -5 9 -10 20 -10 11 0 20 5 20 10 0 6 -9 10 -20 10 -11 0 -20 -4 -20 -10z"/>
<path d="M11260 16810 c0 -5 5 -10 10 -10 6 0 10 5 10 10 0 6 -4 10 -10 10 -5 0 -10 -4 -10 -10z"/>
<path d="M11610 16750 c0 -5 9 -10 20 -10 11 0 20 5 20 10 0 6 -9 10 -20 10 -11 0 -20 -4 -20 -10z"/>
<path d="M11820 16737 c0 -13 6 -35 13 -50 10 -24 17 -27 47 -25 33 3 35 1 35 -27 0 -24 -5 -31 -25 -33 -36 -5 -50 -20 -50 -53 0 -16 6 -30 13 -30 6 -1 28 -2 47 -3 33 -1 35 -3 36 -36 1 -19 2 -41 3 -47 2 -22 75 -16 96 8 13 13 30 19 50 18 60 -4 76 0 73 19 -4 20 45 30 66 13 18 -15 22 -8 18 41 -3 40 -7 45 -43 61 -34 15 -39 21 -39 50 0 38 -15 57 -45 57 -12 0 -25 4 -30 9 -6 5 -23 11 -40 13 -22 2 -29 8 -27 21 4 22 0 21 -43 -3 -20 -11 -42 -20 -49 -20 -7 0 -21 9 -31 20 -10 11 -31 20 -47 20 -23 0 -28 -4 -28 -23z"/>
<path d="M12080 16750 c0 -5 9 -10 20 -10 11 0 20 5 20 10 0 6 -9 10 -20 10 -11 0 -20 -4 -20 -10z"/>
<path d="M11300 16671 c0 -13 29 -35 37 -28 7 8 -15 37 -28 37 -5 0 -9 -4 -9 -9z"/>
<path d="M11600 16650 c0 -27 3 -30 30 -30 27 0 30 3 30 30 0 27 -3 30 -30 30 -27 0 -30 -3 -30 -30z"/>
<path d="M12300 16650 c0 -5 5 -10 10 -10 6 0 10 5 10 10 0 6 -4 10 -10 10 -5 0 -10 -4 -10 -10z"/>
<path d="M11440 16590 c0 -5 5 -10 10 -10 6 0 10 5 10 10 0 6 -4 10 -10 10 -5 0 -10 -4 -10 -10z"/>
<path d="M11740 16530 c0 -5 5 -10 10 -10 6 0 10 5 10 10 0 6 -4 10 -10 10 -5 0 -10 -4 -10 -10z"/>
<path d="M12280 16530 c0 -5 5 -10 10 -10 6 0 10 5 10 10 0 6 -4 10 -10 10 -5 0 -10 -4 -10 -10z"/>
<path d="M11810 16486 c-5 -5 -10 -19 -10 -30 0 -18 1 -18 18 -3 10 10 22 14 25 11 7 -7 37 14 37 26 0 11 -58 8 -70 -4z"/>
<path d="M12260 16490 c0 -5 5 -10 10 -10 6 0 10 5 10 10 0 6 -4 10 -10 10 -5 0 -10 -4 -10 -10z"/>
<path d="M11900 16410 c0 -5 5 -10 10 -10 6 0 10 5 10 10 0 6 -4 10 -10 10 -5 0 -10 -4 -10 -10z"/>
<path d="M12350 16352 c0 -10 41 -35 47 -28 11 11 -7 36 -27 36 -11 0 -20 -3 -20 -8z"/>
<path d="M11980 16290 c0 -5 5 -10 10 -10 6 0 10 5 10 10 0 6 -4 10 -10 10 -5 0 -10 -4 -10 -10z"/>
<path d="M11900 16270 c0 -5 5 -10 10 -10 6 0 10 5 10 10 0 6 -4 10 -10 10 -5 0 -10 -4 -10 -10z"/>
<path d="M15675 5773 c-32 -7 -69 -23 -81 -34 -37 -34 -66 -115 -59 -159 6 -33 2 -44 -27 -82 -19 -24 -58 -98 -87 -164 -71 -159 -95 -205 -152 -294 -64 -100 -76 -171 -46 -260 3 -8 11 -48 18 -88 7 -40 18 -77 26 -83 7 -7 13 -31 13 -59 0 -33 6 -55 21 -74 12 -16 18 -33 14 -45 -9 -30 20 -91 44 -91 35 0 45 34 26 90 -9 27 -14 59 -10 70 4 12 -3 38 -18 67 -14 27 -31 73 -37 103 -7 30 -21 65 -32 77 -19 20 -19 23 -4 45 9 12 16 34 16 49 0 35 22 51 68 53 34 1 37 -1 34 -24 -2 -14 -3 -36 -2 -50 1 -14 2 -61 3 -105 l2 -80 27 -13 c16 -7 33 -23 39 -34 10 -19 23 -204 19 -268 -6 -83 -4 -93 31 -122 19 -16 43 -27 54 -26 18 3 20 13 25 108 5 108 11 130 35 130 8 0 22 12 32 28 9 15 25 37 36 49 14 16 18 32 15 60 -4 28 1 49 19 81 21 36 23 46 14 73 -6 17 -8 41 -6 53 3 11 1 53 -4 91 -9 62 -8 73 8 95 31 43 62 111 59 128 -2 10 -16 19 -33 22 -32 6 -34 14 -19 73 5 24 1 34 -27 63 -25 26 -30 37 -21 46 8 8 18 9 36 0 26 -12 36 -5 49 31 11 29 32 14 32 -24 1 -28 5 -35 24 -37 37 -6 63 26 59 72 -2 37 0 41 21 41 32 0 50 29 33 55 -18 29 -16 99 4 107 16 6 224 -10 349 -27 39 -5 124 -15 190 -23 66 -7 130 -18 142 -25 12 -7 35 -12 50 -12 23 0 46 -17 111 -84 56 -58 80 -89 76 -100 -3 -9 1 -27 9 -39 8 -13 17 -34 19 -48 3 -27 40 -38 98 -29 l35 5 3 48 c2 32 -4 67 -19 105 -14 35 -22 75 -21 105 4 106 -59 161 -273 237 -45 16 -110 31 -335 77 -41 8 -91 19 -111 24 -20 5 -52 9 -71 9 -18 0 -83 9 -143 20 -143 25 -321 31 -400 13z m191 -258 c4 -8 3 -23 0 -32 -6 -15 -8 -15 -23 -1 -16 17 -12 48 7 48 6 0 13 -7 16 -15z"/>
<path d="M16733 4731 c-18 -15 -33 -35 -33 -44 0 -9 -14 -30 -31 -48 -22 -22 -29 -39 -27 -59 2 -20 -4 -34 -22 -48 -21 -17 -22 -22 -11 -36 17 -20 40 -20 63 0 16 16 18 15 24 0 8 -21 -28 -61 -73 -83 -34 -16 -41 -31 -22 -50 17 -17 0 -35 -28 -30 -34 6 -53 -26 -53 -90 0 -28 -4 -54 -9 -58 -6 -3 -25 8 -44 25 -43 37 -60 38 -82 3 l-18 -27 -16 21 c-9 11 -27 25 -39 32 -12 6 -22 21 -22 31 0 22 -29 27 -61 10 -14 -8 -19 -21 -19 -49 0 -25 -7 -44 -20 -56 -23 -21 -50 -13 -50 14 0 11 -8 36 -17 56 -14 29 -15 40 -5 55 17 28 15 105 -4 124 -20 21 -37 20 -64 -2 -20 -16 -22 -27 -20 -78 4 -97 3 -105 -20 -129 -22 -24 -23 -33 -5 -105 7 -28 -29 -119 -48 -124 -63 -16 -72 -23 -77 -51 -5 -28 -8 -30 -45 -26 -51 4 -72 15 -112 58 -43 46 -59 39 -55 -23 2 -43 8 -54 43 -86 22 -20 53 -41 70 -47 27 -9 33 -8 56 17 14 15 29 37 34 50 7 19 12 21 28 12 33 -17 66 -11 92 16 13 14 43 38 67 54 l44 29 106 -4 106 -5 41 40 c52 51 103 72 154 64 30 -5 52 0 94 20 30 14 57 32 60 40 8 21 92 67 141 78 29 6 55 21 79 46 50 52 105 170 124 266 8 45 20 98 25 118 6 20 8 44 5 52 -9 23 -54 20 -67 -4 -14 -27 -34 -25 -54 5 -11 16 -26 25 -44 25 -15 0 -36 7 -46 15 -29 22 -57 18 -93 -14z m179 -198 c10 -9 18 -19 18 -24 0 -9 -78 -48 -85 -41 -16 17 13 82 37 82 6 0 20 -7 30 -17z m-117 -103 c4 -6 16 -10 28 -8 16 2 22 -2 22 -17 0 -18 -7 -20 -73 -20 -42 0 -72 4 -71 10 0 6 8 9 19 8 10 -2 20 6 23 17 5 21 41 28 52 10z"/>
<path d="M16443 4650 c-12 -5 -42 -29 -67 -53 -35 -33 -46 -51 -46 -74 0 -17 -8 -45 -17 -61 -14 -25 -15 -33 -4 -45 7 -9 22 -17 34 -19 16 -2 23 -12 28 -40 8 -51 26 -70 63 -66 l31 3 -3 70 c-2 45 -8 75 -18 87 -22 24 -9 38 35 38 45 0 61 14 61 55 0 40 -47 116 -70 114 -3 0 -15 -4 -27 -9z"/>
<path d="M15932 4518 c-16 -16 -15 -31 5 -73 14 -29 22 -35 43 -33 20 2 26 9 28 36 6 59 -42 104 -76 70z"/>
<path d="M10194 3999 c3 -17 6 -42 6 -55 0 -13 4 -24 9 -24 4 0 9 25 10 55 1 45 -2 55 -15 55 -13 0 -15 -7 -10 -31z"/>
</g>
</g>
  <g id="id1:id1" transform="matrix(1.25,0,0,1.25,0.0,0.0)"><g transform="translate(0.000000,1040.000000) scale(0.040000,-0.040000)" fill="#ffffff" stroke="none">
<path d="M10807 25963 l-17 -4 2 -2830 3 -2830 24 -18 23 -18 -43 -26 c-75 -44 -192 -181 -172 -201 13 -13 43 -5 53 15 22 41 215 219 238 219 5 0 17 9 27 20 10 11 27 20 38 20 10 0 32 10 49 21 45 33 117 69 136 69 9 0 40 11 68 24 28 13 66 27 85 30 19 4 55 16 81 28 51 23 89 19 68 -7 -6 -8 -28 -19 -48 -26 -20 -6 -55 -22 -78 -34 -22 -13 -64 -33 -93 -44 -28 -11 -96 -44 -149 -74 -53 -30 -110 -58 -127 -61 -60 -15 -89 -66 -37 -66 15 0 36 -7 46 -15 11 -8 28 -15 39 -15 10 0 39 -13 64 -30 49 -34 84 -38 104 -13 8 9 29 22 47 30 18 7 37 25 42 38 10 26 24 32 35 15 10 -16 37 -11 62 11 18 18 25 20 38 9 16 -13 67 -8 118 12 21 8 31 8 39 0 16 -16 128 -4 151 16 9 8 17 25 17 37 0 31 11 37 32 18 18 -16 21 -16 53 1 31 17 35 17 56 2 13 -9 29 -16 36 -16 20 0 53 38 53 61 0 12 20 41 44 66 l44 45 89 -2 c48 -1 108 2 131 5 28 5 48 3 55 -4 18 -18 57 -14 57 7 0 10 7 28 16 40 21 30 11 52 -23 52 -15 0 -47 9 -69 19 -23 10 -55 22 -72 26 -17 3 -36 13 -42 21 -22 25 19 29 89 6 106 -33 215 -62 235 -62 47 0 254 -78 328 -123 48 -30 73 -28 65 4 -8 29 9 32 42 8 23 -17 29 -28 25 -48 -4 -22 1 -29 35 -48 46 -27 65 -29 58 -8 -13 32 15 23 81 -24 64 -47 178 -177 229 -261 26 -43 49 -125 58 -205 4 -33 13 -75 20 -95 19 -52 33 -156 44 -330 9 -139 13 -163 40 -227 17 -40 31 -90 31 -112 0 -21 9 -60 20 -86 22 -52 26 -106 9 -137 -9 -16 -6 -25 15 -47 l25 -27 -24 -39 c-32 -53 -43 -137 -22 -169 15 -22 15 -25 -3 -41 -10 -9 -20 -27 -22 -38 -2 -12 -15 -28 -30 -35 -25 -12 -28 -18 -28 -63 0 -46 2 -50 22 -47 16 2 30 18 45 50 l23 48 40 -21 c50 -26 63 -49 50 -84 -8 -22 -13 -24 -30 -15 -27 14 -84 3 -106 -21 -9 -10 -25 -19 -34 -19 -21 0 -50 -41 -50 -70 0 -23 -72 -73 -98 -68 -12 2 -19 18 -24 48 -9 64 -31 134 -47 154 -30 36 -74 8 -86 -56 -4 -20 -19 -48 -36 -64 -16 -15 -29 -32 -29 -37 0 -5 -31 -44 -68 -86 -37 -42 -76 -88 -85 -103 -10 -16 -24 -28 -33 -28 -15 0 -76 -39 -82 -53 -12 -27 -57 -67 -82 -72 -16 -4 -42 -22 -57 -42 -15 -19 -45 -51 -65 -72 -24 -23 -38 -46 -38 -62 0 -31 -96 -120 -195 -179 -57 -36 -69 -39 -109 -34 -38 6 -51 14 -86 55 -22 26 -40 52 -40 57 0 19 -33 36 -64 34 -35 -3 -86 29 -86 54 0 14 -50 20 -64 7 -12 -13 -81 -33 -113 -33 -22 0 -44 -10 -68 -31 -38 -33 -44 -59 -20 -79 20 -17 19 -43 -3 -63 -26 -23 -45 -21 -80 8 -38 32 -100 34 -126 6 -11 -12 -21 -45 -25 -80 -8 -68 -19 -86 -67 -101 -72 -24 -114 6 -114 84 0 17 -5 37 -12 44 -9 9 -9 15 1 25 6 6 15 12 19 12 4 1 17 4 30 9 26 9 31 56 7 76 -8 7 -15 19 -15 27 0 7 -7 16 -16 20 -23 9 -115 71 -141 96 -13 11 -23 27 -23 35 0 17 -35 64 -42 56 -3 -3 -18 10 -32 28 -66 82 -105 108 -157 108 -20 0 -40 12 -66 39 -21 22 -49 41 -63 43 -15 2 -26 11 -28 23 -6 30 -63 85 -88 85 -67 0 -78 -27 -52 -126 11 -43 24 -101 29 -129 12 -69 45 -214 57 -250 51 -153 72 -224 72 -243 0 -12 9 -40 20 -61 20 -40 30 -67 75 -198 47 -139 120 -256 236 -379 16 -17 29 -35 29 -40 1 -18 37 -52 85 -78 28 -16 54 -32 60 -37 5 -5 15 -9 22 -9 6 0 29 -11 49 -25 60 -41 72 -29 21 20 -33 31 -56 45 -75 45 -34 0 -95 68 -117 130 -21 58 -55 100 -82 100 -22 0 -35 17 -45 61 -6 27 17 24 30 -3 13 -28 21 -32 54 -29 9 1 27 -12 39 -28 12 -17 31 -33 41 -37 10 -3 25 -18 33 -34 19 -36 66 -48 100 -26 13 9 38 16 55 16 19 0 30 5 30 14 0 7 6 19 14 25 11 10 16 9 23 -4 14 -24 60 -32 127 -23 79 12 132 3 176 -27 31 -22 40 -23 72 -14 21 5 40 13 42 18 3 5 28 6 55 4 28 -2 52 1 56 7 3 5 19 10 35 10 18 0 42 11 62 29 32 28 130 65 142 54 13 -13 4 -23 -36 -43 -24 -11 -55 -27 -70 -36 l-28 -15 20 -40 c14 -26 28 -39 43 -41 41 -2 46 -3 52 -9 3 -4 1 -18 -4 -33 -7 -16 -7 -35 -1 -50 7 -19 3 -33 -20 -70 -16 -25 -33 -46 -37 -46 -4 0 -16 9 -28 20 -33 31 -67 30 -83 -2 -20 -41 -46 -52 -77 -32 -19 12 -29 14 -37 6 -14 -14 46 -70 80 -74 16 -2 32 -14 42 -33 13 -23 23 -30 45 -28 15 1 35 9 45 18 15 14 21 14 39 3 18 -11 26 -10 55 6 35 19 56 15 56 -9 0 -9 14 -15 38 -17 27 -2 36 -7 33 -18 -2 -8 -7 -35 -10 -59 -4 -28 -12 -47 -23 -52 -10 -5 -26 -13 -35 -18 -10 -4 -18 -16 -18 -25 0 -15 -4 -17 -22 -15 -33 4 -113 -4 -136 -13 -22 -8 -25 -13 -16 -24 15 -19 49 -18 77 2 13 9 37 14 57 13 19 -2 37 0 41 4 4 4 18 7 30 7 60 0 190 73 278 158 33 32 95 82 136 110 41 29 109 76 150 105 41 29 127 89 190 132 172 119 235 187 306 328 35 72 72 131 96 154 l39 38 15 -19 c8 -11 14 -34 14 -50 0 -60 -41 -227 -111 -456 -16 -52 -36 -120 -45 -150 -9 -30 -23 -73 -31 -95 -16 -43 -58 -172 -73 -220 -4 -16 -16 -70 -25 -120 -9 -49 -21 -112 -27 -140 -12 -59 -47 -242 -77 -410 -12 -66 -29 -140 -37 -165 -8 -25 -14 -57 -14 -72 0 -37 -31 -191 -40 -201 -4 -5 -23 1 -41 12 -48 30 -60 27 -57 -13 1 -24 -16 -69 -62 -162 -61 -124 -193 -362 -230 -414 -10 -14 -56 -101 -104 -194 -48 -93 -90 -174 -95 -180 -5 -6 -53 -99 -107 -206 -104 -209 -115 -227 -253 -425 -49 -71 -107 -155 -127 -185 -21 -30 -61 -79 -89 -108 -48 -49 -53 -51 -67 -35 -26 30 -51 196 -44 284 6 70 4 83 -19 133 -38 83 -46 105 -65 183 -10 40 -30 87 -45 108 l-28 36 13 55 c12 47 11 62 -3 107 -8 29 -23 115 -32 192 -8 77 -19 160 -24 185 -5 25 -7 79 -5 120 2 41 7 179 10 305 l5 230 25 20 c18 16 24 31 24 60 0 54 -12 69 -53 69 -68 0 -147 -87 -183 -200 -35 -112 -53 -71 -30 69 9 56 21 167 26 247 18 247 49 542 65 621 17 82 10 124 -21 136 -19 7 -119 -44 -179 -93 -22 -17 -56 -39 -75 -49 -19 -10 -55 -32 -80 -49 -25 -18 -67 -44 -95 -58 -27 -14 -79 -44 -115 -67 -36 -23 -76 -46 -90 -52 -14 -6 -41 -19 -60 -29 -19 -11 -55 -29 -80 -40 -41 -19 -72 -35 -165 -83 -16 -9 -64 -32 -105 -52 -41 -19 -88 -44 -105 -55 -16 -11 -55 -27 -85 -36 -68 -19 -126 -63 -210 -158 -67 -76 -67 -75 -129 -279 -12 -37 -28 -107 -37 -155 -9 -48 -20 -107 -26 -132 -18 -85 -28 -185 -33 -330 -11 -316 -15 -392 -20 -401 -7 -11 13 -389 24 -439 4 -19 4 -125 1 -235 -4 -152 -2 -211 8 -248 11 -38 11 -54 1 -80 -17 -44 -22 -109 -18 -247 2 -94 -5 -195 -25 -405 -8 -77 -19 -248 -26 -380 -6 -132 -15 -334 -20 -450 -6 -115 -15 -248 -22 -295 -9 -64 -11 -468 -7 -1645 5 -1961 2 -4050 -7 -4177 l-6 -96 26 -27 c35 -34 53 -30 91 25 44 63 91 78 273 90 137 9 151 9 210 -11 84 -28 96 -47 98 -163 4 -185 22 -565 27 -573 3 -5 8 -97 11 -204 14 -473 18 -501 78 -556 37 -34 167 -71 305 -88 207 -25 263 -40 288 -78 24 -38 48 -199 79 -552 9 -99 21 -216 26 -260 6 -44 17 -141 25 -215 8 -74 20 -169 25 -210 26 -198 43 -330 50 -380 5 -30 15 -125 24 -210 9 -85 18 -166 22 -180 9 -40 64 -417 74 -515 6 -49 14 -121 20 -160 5 -38 14 -104 20 -145 6 -41 15 -106 20 -145 6 -38 14 -106 20 -150 9 -80 14 -120 48 -382 10 -79 22 -146 26 -150 13 -13 5627 -15 5642 -2 19 16 21 25898 2 25917 -9 9 -740 12 -3233 11 -1771 -1 -3228 -3 -3238 -6z m1263 -5291 l22 -18 -26 -17 c-35 -23 -170 -50 -211 -43 -40 8 -62 30 -43 43 26 16 154 51 194 52 27 1 50 -6 64 -17z m1747 -2030 c-3 -41 -10 -79 -16 -85 -6 -6 -23 4 -50 31 -23 23 -41 45 -41 50 0 17 90 93 102 86 7 -5 9 -32 5 -82z m-161 -877 c4 -8 3 -22 0 -31 -6 -15 -9 -14 -31 6 -13 13 -22 27 -19 31 9 15 44 10 50 -6z m-2383 -456 c-17 -17 -37 -1 -22 17 8 10 15 12 23 4 7 -7 7 -13 -1 -21z m963 20 c12 -20 -21 -39 -76 -45 -56 -5 -109 -36 -130 -73 -14 -27 -80 -64 -112 -63 -55 1 -145 43 -189 88 -36 37 -40 44 -25 50 17 6 83 -9 118 -27 23 -12 31 -11 23 1 -4 6 -1 17 5 25 14 17 66 20 75 5 3 -5 23 -10 44 -10 27 0 44 7 60 24 13 14 33 27 45 29 46 9 155 7 162 -4z m199 -369 c0 -22 -5 -26 -46 -30 -26 -3 -53 -11 -60 -17 -8 -5 -36 -13 -62 -16 -26 -2 -56 -11 -65 -20 -16 -14 -53 -20 -207 -33 -85 -7 -74 -7 -165 7 l-75 12 -65 -25 c-102 -40 -155 -43 -112 -6 25 23 209 85 272 92 30 4 91 12 135 18 44 5 105 12 135 14 210 14 247 18 260 25 28 16 55 6 55 -21z m1958 -2831 c89 -18 97 -33 103 -180 2 -68 8 -140 14 -159 5 -19 10 -70 10 -112 0 -93 -5 -98 -120 -123 -41 -9 -115 -27 -165 -40 -157 -41 -298 -75 -314 -75 -6 0 -18 11 -26 24 -15 23 -15 29 9 94 13 38 36 97 50 130 14 34 26 78 26 98 0 20 15 67 34 107 19 40 41 90 50 112 9 22 26 50 38 62 22 23 101 51 178 63 25 4 48 8 51 9 3 0 31 -4 62 -10z m1692 -8393 c61 -9 135 -22 165 -27 30 -6 78 -15 105 -20 146 -26 396 -94 450 -122 27 -15 58 -27 67 -27 10 0 36 -18 58 -40 l40 -40 0 -62 c0 -42 7 -75 21 -104 13 -28 19 -57 17 -86 -3 -39 -6 -43 -30 -46 -23 -3 -30 2 -40 25 -6 15 -12 46 -12 68 -1 33 -6 42 -27 52 -15 7 -32 20 -40 29 -11 14 -10 18 10 33 17 13 22 24 17 39 -7 22 -18 26 -86 36 -94 14 -137 23 -159 35 -13 8 -83 18 -155 23 -72 5 -162 13 -201 18 -134 19 -280 29 -318 23 -29 -4 -41 -12 -48 -31 -10 -27 -16 -25 -33 10 -13 27 -41 35 -61 18 -17 -14 -20 -66 -6 -75 6 -3 3 -18 -7 -34 -16 -28 -15 -31 2 -50 l19 -21 -36 -15 c-20 -8 -38 -19 -42 -25 -3 -5 -16 -10 -28 -10 -57 -1 -69 -46 -26 -95 l32 -36 -13 -39 c-14 -41 -3 -70 24 -70 41 0 36 -45 -12 -104 -23 -28 -23 -35 -18 -135 3 -58 8 -120 12 -138 5 -24 1 -38 -15 -59 -14 -18 -21 -41 -21 -70 0 -45 -44 -126 -75 -138 -26 -10 -43 -67 -42 -145 0 -81 -9 -95 -41 -63 -18 18 -20 32 -17 144 4 157 -11 232 -56 268 -29 25 -30 29 -24 74 5 31 3 62 -6 88 -10 32 -10 44 0 59 6 11 9 29 6 40 -11 32 -47 40 -105 23 l-50 -15 0 -38 c0 -46 -21 -69 -40 -46 -9 11 -11 34 -6 77 5 50 15 76 60 147 68 110 74 122 140 268 58 128 92 189 120 212 13 11 16 23 11 54 -9 49 10 119 39 145 11 11 41 25 66 31 61 14 281 7 415 -13z m-199 -442 c-5 -13 -10 -14 -18 -6 -6 6 -8 18 -4 28 5 13 10 14 18 6 6 -6 8 -18 4 -28z m-602 -595 c-3 -5 -10 -7 -15 -3 -5 3 -7 10 -3 15 3 5 10 7 15 3 5 -3 7 -10 3 -15z m1611 -30 c17 -16 38 -29 48 -29 35 0 50 -81 16 -88 -22 -4 -77 44 -81 71 -4 26 -39 35 -57 13 -10 -11 -10 -20 -1 -37 10 -17 9 -31 0 -63 -7 -23 -14 -47 -16 -53 -2 -7 -13 -13 -24 -13 -12 0 -30 -5 -40 -10 -26 -14 -31 0 -13 38 18 38 12 59 -19 64 -53 7 -18 71 50 92 13 4 27 18 32 32 8 20 14 23 42 18 18 -4 47 -20 63 -35z m-1599 -35 c-5 -13 -10 -14 -18 -6 -6 6 -8 18 -4 28 5 13 10 14 18 6 6 -6 8 -18 4 -28z m1202 -78 c-3 -28 -8 -32 -48 -42 -51 -12 -61 -31 -35 -70 9 -14 14 -32 11 -40 -3 -8 0 -26 6 -39 16 -34 -4 -57 -28 -33 -13 13 -14 20 -4 37 14 28 -2 51 -36 51 -30 0 -40 17 -21 38 8 9 17 36 20 60 6 51 21 72 52 72 12 0 28 7 35 15 20 24 52 -9 48 -49z m-1154 -19 c7 -19 6 -31 -2 -39 -15 -15 -42 7 -42 37 0 44 29 45 44 2z m1601 -86 c7 -12 -36 -107 -64 -141 -14 -18 -23 -22 -31 -14 -7 7 -5 16 10 29 13 12 20 31 20 54 0 56 44 104 65 72z m-1575 -51 c0 -25 -18 -36 -26 -16 -8 21 3 49 16 41 5 -3 10 -15 10 -25z m728 -33 c2 -20 -2 -46 -9 -58 l-12 -23 -13 19 c-27 36 -11 112 21 102 5 -2 11 -20 13 -40z m627 34 c7 -12 -12 -24 -25 -16 -11 7 -4 25 10 25 5 0 11 -4 15 -9z m47 -53 c9 -7 19 -29 22 -49 l7 -37 -63 -31 c-35 -16 -79 -44 -98 -60 -19 -17 -46 -32 -60 -33 -21 -3 -25 1 -22 21 1 14 9 32 17 41 19 21 19 44 0 60 -20 17 -12 27 30 34 20 4 39 15 42 24 12 33 26 42 67 42 23 0 49 -6 58 -12z m-502 -114 c0 -8 11 -19 25 -24 14 -5 30 -21 37 -35 14 -32 41 -32 62 0 22 33 39 32 70 -6 30 -36 24 -54 -24 -64 -15 -3 -54 -29 -85 -56 -37 -33 -63 -48 -74 -44 -30 9 -165 13 -187 5 -11 -5 -49 -31 -84 -59 -65 -53 -95 -61 -95 -26 0 13 10 21 32 27 57 15 103 141 73 198 -7 14 -5 24 10 42 11 13 27 32 35 43 l15 20 15 -19 c8 -11 15 -31 15 -44 0 -37 18 -62 46 -62 36 0 84 51 84 88 0 16 3 32 6 35 10 9 24 -2 24 -19z m-478 -344 c9 0 21 -7 28 -16 11 -12 10 -18 -3 -32 -16 -15 -19 -15 -52 2 -46 25 -69 52 -61 71 5 15 10 14 40 -4 18 -12 40 -21 48 -21z"/>
<path d="M11500 19979 c-34 -14 -80 -59 -80 -79 0 -9 9 -25 20 -35 28 -25 25 -32 -17 -54 -88 -46 -128 -179 -84 -277 18 -40 72 -84 103 -84 9 0 21 -7 28 -15 11 -13 8 -17 -18 -27 -32 -12 -52 -43 -52 -82 0 -24 33 -61 72 -80 34 -17 33 -42 -1 -82 -37 -42 -39 -64 -8 -100 20 -23 30 -26 82 -25 33 0 94 5 135 11 41 6 123 14 182 19 59 6 124 13 145 17 86 16 143 55 143 98 0 34 -46 86 -75 86 -33 0 -38 14 -14 36 49 45 62 113 33 182 -15 36 -60 92 -75 92 -3 0 -23 7 -44 16 l-37 15 26 24 c33 30 32 38 -1 70 l-28 26 21 17 c11 10 24 29 27 44 10 40 -14 58 -81 59 -107 3 -196 8 -209 13 -11 5 -11 11 2 36 19 36 7 66 -31 80 -32 13 -132 12 -164 -1z m203 -265 c3 -4 -1 -17 -9 -29 -8 -13 -14 -36 -12 -52 2 -22 -1 -28 -17 -28 -17 0 -20 6 -17 45 1 25 4 51 7 58 5 12 37 17 48 6z m80 -308 c25 -24 43 -47 40 -50 -4 -3 -37 -6 -75 -6 -65 0 -69 1 -79 27 -18 48 -9 59 63 72 3 0 27 -19 51 -43z m157 10 c0 -18 -27 -39 -39 -31 -7 4 -5 15 5 30 16 25 34 25 34 1z"/>
<path d="M10518 18529 c-62 -54 -144 -164 -164 -219 -28 -76 -12 -176 30 -185 37 -8 258 23 351 49 50 14 100 26 113 26 26 0 46 37 30 57 -6 7 -5 14 2 18 10 6 12 5 14 -17 1 -9 20 -13 61 -13 49 0 60 3 63 18 5 24 -20 77 -36 77 -7 0 -16 10 -21 23 -16 42 -72 75 -136 79 -32 3 -40 7 -45 28 -7 28 -38 47 -94 55 -21 4 -49 17 -63 31 -13 13 -29 24 -36 24 -7 0 -38 -23 -69 -51z m317 -202 c0 -15 -4 -28 -9 -29 -14 -5 -30 28 -23 46 10 26 32 14 32 -17z"/>
<path d="M11758 16520 c-14 -11 -35 -20 -46 -20 -11 0 -27 -11 -36 -24 -8 -14 -25 -27 -36 -31 -11 -3 -20 -12 -20 -20 0 -28 187 -185 220 -185 5 0 29 9 53 19 23 11 56 21 72 23 28 3 30 6 33 51 3 43 1 47 -20 47 -13 0 -32 -7 -42 -15 -14 -11 -23 -12 -33 -4 -18 16 -16 34 9 79 18 31 20 42 11 51 -25 25 -102 -34 -103 -77 0 -28 -10 -36 -27 -23 -19 17 -16 34 13 68 48 57 10 107 -48 61z"/>
<path d="M11572 16468 c3 -7 13 -15 24 -17 16 -3 17 -1 5 13 -16 19 -34 21 -29 4z"/>
<path d="M11950 16110 c0 -5 5 -10 10 -10 6 0 10 5 10 10 0 6 -4 10 -10 10 -5 0 -10 -4 -10 -10z"/>
<path d="M10138 5124 c-15 -8 -30 -25 -34 -39 -9 -38 -30 -50 -58 -36 -13 7 -32 11 -42 9 -28 -5 -31 -64 -6 -92 11 -11 27 -33 37 -48 l17 -27 -22 -36 c-12 -19 -19 -39 -15 -45 10 -16 40 -12 59 9 10 11 25 17 37 14 11 -3 28 2 38 11 26 23 34 7 25 -49 -8 -56 -17 -62 -50 -36 -35 27 -56 26 -91 -3 -41 -34 -58 -107 -32 -140 31 -39 34 -74 9 -101 -24 -26 -20 -45 10 -45 26 0 32 -14 20 -46 -16 -41 5 -59 55 -45 21 6 42 8 47 5 24 -15 55 8 78 56 21 44 22 54 11 90 -15 50 -9 61 28 54 21 -5 35 0 50 15 28 28 26 45 -10 79 -40 38 -54 95 -28 118 37 34 16 60 -57 67 -21 2 -40 9 -42 16 -2 6 -12 11 -22 11 -15 0 -50 28 -39 31 2 0 27 2 54 3 38 2 55 -2 72 -17 12 -11 29 -17 37 -14 22 9 20 44 -3 56 -10 6 -24 25 -31 42 -13 30 -12 33 11 50 50 39 50 39 38 60 -20 39 -100 51 -151 23z"/>
<path d="M10372 4388 c-28 -37 -42 -82 -42 -140 0 -106 40 -146 90 -93 23 25 25 32 22 123 -4 100 -11 122 -42 122 -10 0 -22 -6 -28 -12z"/>
<path d="M10133 4277 c-27 -24 -62 -51 -79 -60 -49 -25 -58 -41 -44 -82 15 -45 35 -65 65 -65 13 0 27 -5 31 -12 11 -17 -25 -38 -66 -38 -62 0 -77 -32 -37 -80 29 -34 53 -134 62 -253 3 -49 19 -168 36 -265 16 -97 29 -180 29 -184 0 -5 15 -25 33 -45 23 -26 37 -56 45 -93 9 -44 16 -259 11 -368 -2 -37 8 -51 48 -67 l38 -16 -33 -28 -34 -27 10 -39 c5 -22 15 -74 21 -115 7 -41 16 -93 22 -115 5 -22 16 -83 24 -135 13 -90 47 -276 80 -440 9 -41 24 -131 35 -200 11 -69 32 -189 47 -268 l26 -142 43 -36 c54 -43 105 -45 135 -4 l18 25 -18 70 c-33 126 -45 205 -33 217 14 14 16 9 42 -117 21 -102 37 -132 64 -122 20 8 20 31 1 132 -9 44 -20 109 -25 145 -18 132 -70 476 -79 520 -9 44 -21 110 -41 228 -5 31 -14 95 -20 142 -6 47 -15 108 -20 135 -5 28 -14 82 -20 120 -13 82 -46 268 -65 375 -8 41 -22 131 -30 200 -9 69 -23 159 -32 200 -16 74 -22 110 -41 240 -5 36 -17 106 -26 155 -44 244 -66 406 -69 505 l-2 45 -52 3 -53 3 -47 -44z m433 -2362 c-2 -7 1 -18 7 -24 6 -6 8 -11 4 -11 -4 0 -9 0 -12 0 -3 0 -4 2 -2 3 1 2 -4 11 -11 20 -8 9 -11 21 -7 27 9 14 28 1 21 -15z m18 -96 c-3 -5 -10 -7 -15 -3 -5 3 -7 10 -3 15 3 5 10 7 15 3 5 -3 7 -10 3 -15z m10 -50 c-3 -5 -10 -7 -15 -3 -5 3 -7 10 -3 15 3 5 10 7 15 3 5 -3 7 -10 3 -15z m22 -114 c-2 -7 0 -17 6 -23 13 -13 2 -46 -12 -37 -6 4 -10 14 -8 23 1 10 -1 23 -5 30 -5 6 -5 17 -2 22 9 14 28 1 21 -15z m18 -106 c-3 -5 -10 -7 -15 -3 -5 3 -7 10 -3 15 3 5 10 7 15 3 5 -3 7 -10 3 -15z m10 -60 c-3 -5 -10 -7 -15 -3 -5 3 -7 10 -3 15 3 5 10 7 15 3 5 -3 7 -10 3 -15z"/>
<path d="M9836 4189 l-28 -22 7 -86 c8 -93 32 -165 74 -221 15 -19 37 -52 50 -73 19 -31 28 -38 50 -35 18 2 27 10 29 25 3 21 -34 136 -62 191 -7 15 -16 54 -20 87 -14 135 -19 150 -47 153 -14 2 -37 -6 -53 -19z"/>
<path d="M10627 3573 c-6 -12 -7 -196 -1 -215 3 -11 15 -18 30 -18 19 0 29 8 40 35 8 20 12 39 10 44 -3 4 -10 36 -15 70 -6 35 -15 69 -22 77 -12 15 -35 19 -42 7z"/>
<path d="M10843 3175 c-19 -14 -53 -91 -53 -121 0 -29 59 -81 98 -88 21 -3 47 -15 57 -26 22 -24 60 -26 69 -4 3 9 6 36 6 60 0 39 -6 51 -52 103 -29 32 -65 65 -79 74 -23 14 -28 14 -46 2z"/>
</g>
</g>
  <g id="id2:id2" transform="matrix(1.25,0,0,1.25,0.0,0.0)"><g transform="translate(0.000000,1040.000000) scale(0.040000,-0.040000)" fill="#940300" stroke="none">
<path d="M11906 20705 c-122 -32 -181 -92 -128 -131 21 -16 207 -19 217 -4 3 6 14 10 25 10 10 0 37 10 59 22 65 34 53 77 -32 113 -43 18 -31 19 -141 -10z"/>
<path d="M12178 20653 c-14 -3 -18 -15 -18 -49 0 -40 2 -44 24 -44 14 0 28 -4 31 -10 3 -5 17 -10 29 -10 33 0 53 -25 36 -45 -10 -12 -37 -15 -127 -15 l-115 0 -49 -41 c-33 -28 -49 -48 -49 -64 0 -13 -5 -27 -12 -31 -7 -4 -55 -7 -108 -5 l-95 2 -12 -27 c-7 -16 -13 -33 -13 -40 0 -18 -27 -37 -35 -24 -8 13 -142 13 -150 0 -3 -5 -44 -10 -90 -10 -46 0 -87 -4 -90 -10 -3 -5 -21 -10 -38 -10 -26 0 -37 -7 -50 -30 -12 -19 -26 -30 -40 -30 -12 0 -28 -9 -35 -20 -11 -17 -15 -18 -35 -8 -12 7 -31 20 -42 30 -11 9 -28 18 -38 20 -24 4 -24 21 -1 33 11 6 35 22 54 36 19 14 51 33 71 42 20 9 42 23 49 32 7 8 20 15 30 15 9 0 52 18 95 40 43 22 85 40 94 40 9 0 29 12 44 25 22 20 28 32 25 58 l-3 32 -45 -3 c-25 -1 -61 -11 -80 -21 -19 -10 -57 -21 -84 -25 -26 -4 -63 -16 -80 -26 -18 -9 -46 -21 -63 -24 -17 -4 -55 -20 -84 -36 -30 -16 -70 -36 -89 -45 -19 -9 -47 -23 -62 -31 -14 -8 -37 -14 -51 -14 -35 0 -57 -10 -57 -25 0 -7 -15 -22 -32 -34 -45 -27 -111 -96 -113 -118 -4 -35 -24 -72 -49 -88 -32 -21 -62 -93 -88 -212 -25 -117 -31 -366 -10 -448 7 -28 15 -130 17 -230 2 -99 8 -214 14 -255 13 -97 14 -235 1 -280 -6 -22 -38 -62 -85 -110 -41 -41 -81 -92 -89 -112 -9 -20 -20 -39 -25 -43 -6 -3 -8 -12 -4 -21 3 -8 -3 -24 -13 -35 -11 -12 -18 -24 -18 -28 1 -3 -3 -17 -8 -31 -6 -16 -5 -33 2 -50 7 -14 12 -27 11 -30 0 -3 14 -20 31 -37 43 -45 86 -58 146 -44 79 17 199 25 206 12 4 -6 22 -11 40 -11 34 0 66 -25 66 -51 1 -20 25 -49 42 -49 7 0 32 -18 53 -40 l39 -40 63 0 c35 0 63 3 63 8 0 11 -51 32 -80 32 -27 0 -60 27 -60 48 0 7 -17 22 -37 36 -21 13 -47 34 -58 46 -11 12 -31 26 -44 31 -36 14 -11 35 52 43 28 3 77 15 107 26 30 11 91 27 136 35 98 17 212 44 239 55 11 5 49 11 85 14 96 7 226 24 269 36 52 14 127 18 466 25 176 4 310 2 340 -4 33 -6 67 -6 101 1 35 7 67 7 100 0 34 -7 74 -7 129 0 44 6 98 11 121 11 51 0 94 -27 94 -59 0 -12 5 -26 10 -29 16 -10 12 -111 -5 -125 -20 -17 -19 -27 4 -33 12 -3 27 3 37 14 13 15 20 16 31 7 11 -8 19 -6 38 12 14 13 25 29 25 35 0 6 18 29 41 50 24 25 38 46 36 57 -3 9 3 24 13 33 16 14 18 14 31 -1 7 -9 15 -46 17 -82 4 -80 20 -102 71 -102 48 1 65 17 68 63 3 31 0 37 -16 37 -11 0 -27 10 -35 22 -12 17 -18 19 -30 9 -20 -17 -36 -6 -36 26 0 16 7 27 19 30 16 4 17 9 8 36 -5 18 -14 42 -20 54 -14 30 -8 39 53 81 30 21 61 50 68 65 7 15 20 27 28 27 8 0 22 9 31 20 13 15 20 17 30 8 21 -17 26 -3 13 37 -9 28 -9 39 1 51 9 12 9 23 -1 53 -20 61 11 83 56 40 32 -30 56 -19 52 23 -2 18 -8 33 -15 33 -25 0 -34 21 -22 48 10 22 8 38 -10 93 -12 37 -24 87 -27 113 -3 25 -17 72 -31 105 -21 49 -28 88 -39 240 -14 184 -29 288 -44 316 -5 9 -14 57 -20 106 -14 114 -63 216 -161 337 -82 101 -207 201 -253 203 -18 0 -32 8 -36 18 -3 9 -25 33 -49 51 -45 36 -86 44 -119 24 -14 -9 -26 -6 -55 10 -21 12 -46 21 -57 21 -10 0 -22 5 -25 10 -3 6 -15 10 -25 10 -11 0 -35 9 -55 20 -20 11 -53 20 -75 20 -21 0 -42 5 -45 10 -3 6 -21 10 -40 10 -19 0 -37 5 -40 10 -3 6 -19 10 -36 10 -16 0 -37 4 -47 9 -42 23 -132 35 -174 24z m-501 -715 c17 -16 23 -32 23 -65 l0 -43 78 -2 c42 -1 98 -1 125 0 38 2 49 -1 53 -15 3 -10 10 -28 16 -39 7 -15 7 -28 -1 -42 -7 -13 -7 -23 -2 -27 5 -3 9 -19 9 -36 -1 -16 4 -35 10 -41 7 -7 12 -20 12 -29 0 -9 9 -19 21 -22 12 -3 18 -10 15 -16 -8 -12 34 -72 45 -65 13 8 22 -17 10 -29 -13 -13 -15 -47 -2 -47 5 0 12 8 15 17 4 11 10 13 17 6 12 -12 -3 -89 -17 -86 -16 3 -3 -81 17 -109 12 -17 16 -29 9 -33 -16 -10 -2 -24 19 -18 61 16 7 -71 -68 -109 -69 -35 -143 -44 -227 -27 -59 12 -69 11 -96 -4 -16 -9 -43 -17 -59 -17 -17 0 -62 -5 -100 -12 l-70 -11 -29 34 c-37 43 -37 63 0 106 34 38 36 46 15 63 -8 7 -15 19 -15 27 0 13 -3 13 -15 3 -12 -10 -18 -10 -30 0 -8 7 -15 19 -15 26 0 8 -5 23 -12 34 -10 16 -9 24 8 47 12 15 30 30 40 31 10 2 23 8 28 12 12 12 -20 60 -41 60 -26 0 -84 50 -99 86 -37 88 -2 198 77 244 52 31 59 53 28 86 l-22 24 22 24 c27 28 43 33 125 35 49 1 64 -3 83 -21z m-1069 -1434 c26 -13 32 -21 32 -49 0 -24 5 -34 20 -38 14 -3 20 -14 20 -31 0 -14 5 -26 12 -26 20 0 68 -53 68 -75 0 -11 5 -26 11 -32 18 -18 1 -33 -36 -33 -19 0 -37 -4 -40 -10 -3 -5 -21 -10 -40 -10 -19 0 -37 -4 -40 -10 -3 -5 -25 -10 -49 -10 -23 0 -47 -5 -54 -12 -9 -9 -15 -9 -24 0 -15 15 -60 16 -75 1 -6 -6 -16 -8 -22 -5 -14 9 -15 103 -1 111 6 3 10 17 10 29 0 13 7 29 15 36 17 14 45 67 45 85 0 12 53 58 95 82 11 6 20 11 21 12 0 1 15 -6 32 -15z m2646 -175 c-3 -5 -10 -7 -15 -3 -5 3 -7 10 -3 15 3 5 10 7 15 3 5 -3 7 -10 3 -15z"/>
<path d="M11658 19723 c-19 -12 -28 -28 -33 -60 -10 -70 -2 -83 56 -83 42 0 49 3 49 19 0 11 -4 23 -10 26 -19 11 -10 51 15 73 14 13 23 27 20 32 -10 16 -67 11 -97 -7z"/>
<path d="M11692 19452 c-7 -5 -13 -33 -15 -68 l-2 -59 70 -3 c38 -2 80 0 92 3 27 6 32 37 6 33 -12 -2 -19 5 -21 20 -4 30 -39 65 -57 58 -7 -2 -19 2 -25 10 -14 16 -29 18 -48 6z"/>
<path d="M11640 19350 c0 -5 5 -10 11 -10 5 0 7 5 4 10 -3 6 -8 10 -11 10 -2 0 -4 -4 -4 -10z"/>
<path d="M13780 18765 c-7 -8 -18 -15 -24 -15 -7 0 -26 -15 -44 -33 -26 -27 -32 -41 -32 -78 0 -39 5 -50 39 -83 33 -32 44 -37 77 -34 37 3 39 5 46 43 13 76 9 182 -8 199 -19 20 -38 20 -54 1z"/>
<path d="M13597 18574 c-11 -11 5 -34 24 -34 22 0 24 11 7 28 -13 13 -22 15 -31 6z"/>
<path d="M13506 18491 c-2 -3 -7 -33 -11 -66 -3 -33 -10 -71 -15 -85 -5 -14 -11 -39 -14 -56 l-5 -31 52 5 c35 3 61 13 80 28 33 28 50 30 67 9 33 -40 80 -1 80 67 0 44 -21 78 -47 78 -5 0 -18 9 -28 20 -10 11 -26 20 -36 20 -10 0 -20 4 -23 9 -7 10 -94 12 -100 2z m52 -85 c-2 -12 -10 -21 -18 -21 -16 0 -25 28 -16 52 9 23 38 -4 34 -31z"/>
<path d="M13060 18070 c0 -5 5 -10 10 -10 6 0 10 5 10 10 0 6 -4 10 -10 10 -5 0 -10 -4 -10 -10z"/>
<path d="M13005 18020 c-10 -11 -23 -20 -30 -20 -12 0 -55 -41 -55 -53 0 -11 28 -8 53 6 39 22 67 50 67 69 0 24 -12 23 -35 -2z"/>
<path d="M11124 17848 c3 -7 9 -21 12 -30 4 -10 13 -18 20 -18 8 0 17 -8 21 -17 34 -102 65 -136 142 -158 20 -6 23 -4 18 10 -4 9 -2 26 4 37 9 17 8 23 -5 30 -9 5 -16 17 -16 26 0 10 -14 34 -31 55 l-31 38 -25 -16 c-27 -18 -37 -14 -57 27 -12 25 -63 41 -52 16z"/>
<path d="M13605 17830 c-3 -5 -22 -10 -41 -10 -22 0 -37 -6 -40 -15 -9 -22 22 -82 45 -88 28 -7 53 -64 38 -88 -9 -15 -9 -23 1 -39 14 -23 17 -201 3 -215 -5 -6 -11 -42 -13 -81 -3 -59 -1 -74 13 -82 12 -8 24 -8 41 0 23 11 26 21 38 132 25 236 23 449 -5 426 -9 -7 -16 -6 -25 5 -10 12 -9 16 4 21 21 8 21 30 0 38 -24 9 -52 7 -59 -4z"/>
<path d="M12712 17808 c-13 -13 -17 -68 -4 -68 8 0 32 49 32 67 0 16 -12 17 -28 1z"/>
<path d="M12085 17790 c-3 -5 -20 -10 -37 -10 -29 0 -40 -8 -130 -85 -25 -21 -22 -52 7 -71 20 -13 28 -14 40 -4 8 7 21 10 29 7 7 -3 19 0 25 6 8 8 20 3 44 -21 24 -23 42 -32 67 -32 26 0 40 -8 61 -32 25 -30 29 -32 49 -20 32 20 46 1 25 -32 -22 -34 -6 -56 41 -56 18 0 36 -4 39 -10 10 -16 61 -12 75 5 7 9 32 24 54 35 23 10 57 35 75 54 19 20 40 36 46 36 23 0 105 95 105 121 0 30 -35 79 -56 79 -17 0 -89 -43 -121 -73 -12 -11 -31 -25 -41 -31 -66 -40 -94 -61 -103 -77 -5 -11 -18 -19 -27 -19 -10 0 -23 -5 -29 -11 -7 -7 -19 -9 -27 -6 -12 5 -16 22 -16 76 0 38 -4 73 -10 76 -5 3 -10 16 -10 29 0 28 -29 56 -58 56 -11 0 -24 5 -27 10 -3 6 -24 10 -45 10 -21 0 -42 -4 -45 -10z"/>
<path d="M11380 17616 c0 -20 7 -52 15 -72 15 -37 14 -39 -30 -46 -16 -3 -21 -12 -23 -51 -2 -27 2 -55 9 -63 6 -7 8 -21 5 -30 -6 -15 -9 -15 -29 5 -29 27 -83 27 -117 1 -14 -11 -35 -20 -47 -20 -20 0 -23 -5 -23 -40 l0 -40 85 0 84 0 22 30 c24 32 35 31 49 -6 9 -22 15 -24 74 -24 105 0 146 36 146 130 0 75 45 103 90 55 35 -37 106 -36 143 3 15 15 27 40 27 53 0 30 -33 64 -53 56 -8 -3 -20 0 -26 6 -8 8 -16 6 -29 -6 -27 -24 -50 -21 -80 11 -15 16 -37 34 -49 40 -28 16 -86 15 -101 0 -10 -10 -14 -8 -18 10 -5 18 -13 22 -49 22 -24 0 -50 3 -59 6 -13 5 -16 -1 -16 -30z"/>
<path d="M11840 17610 c0 -5 5 -10 10 -10 6 0 10 5 10 10 0 6 -4 10 -10 10 -5 0 -10 -4 -10 -10z"/>
<path d="M12040 17373 c-8 -3 -27 -17 -43 -31 -21 -20 -30 -23 -39 -14 -19 19 -116 15 -142 -6 -13 -9 -21 -23 -19 -29 3 -7 -3 -23 -11 -35 -12 -17 -24 -22 -51 -19 -19 1 -35 -1 -35 -6 0 -11 86 -83 118 -100 14 -7 33 -13 43 -13 10 0 21 -4 24 -10 10 -16 65 -12 93 8 15 9 36 22 47 28 11 6 26 23 35 38 20 34 80 66 141 73 61 7 81 28 77 80 l-3 38 -110 2 c-60 1 -117 -1 -125 -4z m115 -61 c1 -16 -5 -26 -19 -32 -34 -13 -41 -10 -38 12 3 15 0 19 -12 15 -8 -3 -18 -2 -21 3 -12 20 8 31 48 28 34 -3 41 -7 42 -26z"/>
<path d="M11640 17280 c0 -13 7 -20 20 -20 23 0 26 10 8 28 -18 18 -28 15 -28 -8z"/>
<path d="M10940 17191 c0 -12 29 -35 36 -28 11 10 -5 37 -21 37 -8 0 -15 -4 -15 -9z"/>
<path d="M11073 17068 c-6 -7 -13 -30 -16 -51 -5 -32 -2 -40 19 -54 16 -10 24 -23 21 -34 -3 -10 1 -23 9 -30 8 -6 12 -15 9 -19 -3 -5 -1 -12 5 -15 6 -4 8 -15 5 -26 -5 -14 -2 -19 11 -19 9 0 36 -16 60 -35 38 -32 42 -38 32 -55 -10 -16 -9 -23 8 -42 11 -13 26 -35 34 -51 7 -15 20 -26 29 -25 9 2 16 -4 16 -12 0 -8 9 -14 19 -13 30 2 66 -15 61 -29 -7 -19 33 -42 49 -29 15 13 27 5 20 -13 -3 -7 24 -29 61 -51 36 -21 68 -42 71 -47 3 -5 14 -6 23 -3 24 7 71 -18 85 -47 10 -20 20 -23 76 -26 63 -3 95 -16 84 -33 -3 -5 -14 -9 -25 -9 -22 0 -25 -10 -7 -28 8 -8 8 -15 -2 -27 -18 -22 4 -45 44 -45 42 0 61 -18 41 -40 -12 -13 -12 -20 2 -48 9 -18 30 -40 47 -49 46 -24 167 -28 256 -8 41 9 93 20 115 24 51 9 85 28 85 46 0 9 4 23 9 33 5 9 12 25 15 34 3 11 11 15 21 12 11 -5 15 1 15 24 0 17 5 34 10 37 30 18 -3 95 -41 95 -8 0 -25 9 -39 20 -27 21 -55 26 -65 10 -3 -5 -30 -10 -59 -10 -35 0 -58 -5 -66 -15 -7 -8 -16 -15 -20 -15 -12 0 -40 59 -40 82 0 23 27 35 43 19 18 -18 82 -13 98 7 29 36 39 63 39 110 0 26 5 53 11 59 6 6 9 23 7 39 -3 25 -8 29 -38 32 -58 6 -66 21 -28 53 18 16 38 28 44 29 16 0 44 34 44 52 0 24 -34 48 -67 48 -34 0 -118 -40 -137 -65 -14 -19 -77 -35 -153 -38 -29 -2 -58 -8 -65 -15 -16 -16 -53 -15 -68 2 -11 14 -79 32 -145 38 -22 2 -29 8 -27 21 2 12 -4 17 -21 17 -32 0 -57 27 -33 36 9 3 16 13 16 21 0 8 -6 12 -12 9 -7 -3 -33 -11 -57 -18 -30 -9 -57 -27 -86 -60 -26 -29 -52 -48 -64 -48 -12 0 -30 -5 -40 -11 -16 -10 -26 -3 -80 51 -33 35 -61 67 -61 72 0 4 -13 8 -30 8 -38 0 -119 75 -101 93 6 6 11 28 11 49 l0 38 -39 0 c-21 0 -43 -6 -48 -12z m811 -340 c-3 -5 -12 -4 -20 3 -7 6 -11 15 -8 21 3 5 12 4 20 -3 7 -6 11 -15 8 -21z m152 -59 c3 -6 0 -22 -7 -36 -15 -28 -5 -51 30 -69 38 -20 46 -31 31 -49 -9 -11 -26 -15 -49 -13 -33 3 -36 6 -39 35 -2 20 -11 37 -23 43 -22 12 -27 68 -7 88 15 15 55 16 64 1z m-532 -160 c-3 -5 -10 -7 -15 -3 -5 3 -7 10 -3 15 3 5 10 7 15 3 5 -3 7 -10 3 -15z m100 -60 c-3 -5 -10 -7 -15 -3 -5 3 -7 10 -3 15 3 5 10 7 15 3 5 -3 7 -10 3 -15z m136 -29 c0 -26 -15 -33 -30 -15 -10 12 -10 18 0 30 15 18 30 11 30 -15z m570 -235 c10 -12 9 -16 -4 -21 -9 -3 -23 -3 -32 0 -13 5 -14 9 -4 21 7 8 16 15 20 15 4 0 13 -7 20 -15z m-263 -18 c32 -24 -37 -38 -79 -16 l-22 12 19 13 c19 14 59 10 82 -9z m176 6 c14 -13 -17 -33 -53 -33 -43 0 -54 8 -39 27 12 13 80 18 92 6z m142 -45 c-1 -19 -8 -24 -41 -26 -21 -2 -43 -8 -48 -13 -15 -14 -62 -11 -75 5 -18 21 29 46 88 46 27 0 53 5 56 10 10 16 22 3 20 -22z"/>
<path d="M12460 16972 c0 -24 -31 -52 -57 -52 -12 0 -23 -6 -26 -14 -8 -20 40 -25 76 -8 23 11 27 20 27 53 0 21 -4 39 -10 39 -5 0 -10 -8 -10 -18z"/>
<path d="M11840 16930 c0 -5 5 -10 10 -10 6 0 10 5 10 10 0 6 -4 10 -10 10 -5 0 -10 -4 -10 -10z"/>
<path d="M11860 16830 c0 -5 18 -10 40 -10 22 0 40 5 40 10 0 6 -18 10 -40 10 -22 0 -40 -4 -40 -10z"/>
<path d="M11960 16830 c0 -5 14 -10 30 -10 17 0 30 5 30 10 0 6 -13 10 -30 10 -16 0 -30 -4 -30 -10z"/>
<path d="M14270 14153 c-19 -2 -46 -8 -60 -13 -14 -4 -37 -11 -52 -14 -51 -11 -88 -55 -144 -174 -30 -63 -54 -128 -54 -144 0 -16 -9 -52 -19 -81 -94 -255 -91 -242 -60 -281 30 -38 74 -35 259 21 47 14 142 38 212 53 133 28 173 46 188 84 5 14 3 84 -5 177 -8 85 -14 184 -15 222 0 62 -3 70 -33 103 -43 47 -101 60 -217 47z"/>
<path d="M16720 4575 c1 -17 29 -49 37 -41 4 3 -3 16 -15 29 -12 12 -22 17 -22 12z"/>
<path d="M16603 4563 c-20 -4 -23 -11 -23 -53 0 -34 4 -50 15 -54 13 -5 14 -10 5 -27 -7 -11 -9 -23 -6 -26 9 -9 69 24 95 51 19 20 27 23 38 15 10 -9 13 -7 13 11 0 15 -4 20 -15 16 -8 -3 -18 1 -22 9 -5 7 -17 13 -28 12 -15 -2 -20 4 -20 23 0 26 -12 31 -52 23z"/>
<path d="M16736 4425 c-3 -8 -11 -12 -19 -9 -17 6 -41 -21 -32 -36 3 -5 -1 -13 -9 -16 -9 -3 -16 -13 -16 -21 0 -10 6 -13 16 -9 9 3 31 6 50 6 28 0 34 4 32 18 -2 13 5 18 30 20 34 3 40 16 18 45 -16 21 -62 23 -70 2z"/>
<path d="M10184 4035 c-11 -28 10 -130 26 -130 11 0 15 14 17 55 1 30 -1 63 -3 73 -6 21 -33 23 -40 2z"/>
</g>
</g>
</svg>
