<?xml version="1.0" standalone="no"?>
<!DOCTYPE svg PUBLIC "-//W3C//DTD SVG 1.1//EN"
 "http://www.w3.org/Graphics/SVG/1.1/DTD/svg11.dtd">
<!-- Created with svg_stack (http://github.com/astraw/svg_stack) -->
<svg xmlns:sodipodi="http://sodipodi.sourceforge.net/DTD/sodipodi-0.dtd" xmlns="http://www.w3.org/2000/svg" version="1.1" width="376.0" height="270.0">
  <defs/>
  <g id="id0:id0" transform="matrix(1.25,0,0,1.25,0.0,0.0)"><g transform="translate(0.000000,216.000000) scale(0.040000,-0.040000)" fill="#fc0006" stroke="none">
<path d="M3139 5270 c-233 -21 -522 -109 -646 -198 -17 -12 -35 -22 -40 -22 -24 0 -255 -242 -315 -330 -141 -206 -175 -281 -243 -550 -18 -69 -38 -308 -31 -375 2 -27 5 -78 5 -112 1 -77 14 -92 72 -84 l44 6 0 202 c0 145 3 205 12 214 16 16 18 9 33 -126 22 -203 52 -269 113 -246 70 27 176 82 207 109 l34 29 -32 65 c-18 36 -32 71 -32 77 0 6 -4 19 -9 29 -34 68 -36 78 -36 246 0 161 9 233 35 271 4 6 10 24 14 40 9 39 70 157 108 209 16 23 48 56 71 74 23 18 56 46 72 62 79 78 109 98 225 156 108 54 139 64 226 78 252 40 525 2 763 -105 69 -31 140 -76 236 -149 68 -51 282 -264 323 -321 15 -21 71 -95 124 -166 54 -70 118 -164 143 -208 62 -108 65 -113 101 -165 16 -25 48 -78 69 -118 24 -45 47 -75 60 -78 11 -3 63 -4 115 -2 l95 3 0 70 c-1 68 -20 278 -51 555 -8 74 -19 176 -24 225 -5 50 -18 162 -29 250 -12 88 -21 178 -21 200 -1 22 -7 63 -14 90 l-13 50 -121 3 c-109 2 -127 0 -179 -22 -32 -13 -90 -29 -130 -35 -140 -22 -429 -9 -578 25 -118 27 -613 89 -660 83 -5 -1 -48 -5 -96 -9z m1421 -350 c4 -8 17 -76 29 -150 48 -297 62 -403 53 -412 -5 -5 -21 9 -37 34 -108 163 -313 399 -433 498 -40 33 -32 41 28 30 65 -13 206 -10 270 5 67 15 81 14 90 -5z"/>
<path d="M2535 3570 c-54 -20 -281 -70 -318 -70 -13 0 -32 -6 -42 -14 l-19 -13 43 -75 c46 -81 223 -272 301 -325 92 -63 283 -163 311 -163 7 0 20 -6 28 -14 37 -31 214 -77 406 -106 77 -11 156 -25 175 -29 19 -5 71 -14 115 -21 44 -7 136 -23 205 -37 69 -14 143 -29 165 -33 22 -4 83 -20 135 -35 52 -15 115 -31 140 -35 97 -18 360 -108 427 -146 198 -112 365 -255 445 -379 50 -80 100 -215 119 -325 16 -96 16 -346 0 -430 -16 -83 -63 -218 -98 -278 -40 -72 -73 -113 -84 -106 -6 4 -6 10 -1 17 36 44 82 277 82 413 0 324 -149 612 -418 812 -70 52 -114 75 -282 147 -153 66 -334 108 -775 181 -247 40 -576 103 -620 119 -22 7 -56 17 -75 21 -19 3 -69 20 -110 36 -209 80 -295 135 -436 279 -145 146 -211 248 -290 446 -16 40 -35 75 -42 78 -7 2 -33 2 -57 -2 -40 -5 -45 -8 -45 -32 1 -86 89 -277 188 -407 150 -196 294 -308 560 -439 51 -25 98 -45 105 -45 6 0 54 -13 107 -30 52 -16 122 -34 155 -40 33 -5 80 -15 105 -20 25 -6 95 -19 155 -30 61 -10 130 -23 155 -29 25 -5 97 -19 160 -31 63 -11 144 -28 180 -37 36 -8 112 -26 170 -38 58 -13 125 -30 150 -38 25 -8 63 -18 84 -22 49 -8 186 -62 206 -81 9 -7 36 -20 60 -29 25 -9 54 -24 65 -33 11 -10 39 -31 63 -47 65 -43 206 -196 241 -262 18 -32 41 -89 52 -128 11 -38 25 -79 30 -90 18 -40 29 -268 19 -386 -13 -144 -74 -325 -142 -420 -9 -14 -4 -27 27 -75 43 -65 122 -154 137 -154 31 0 136 116 268 297 84 115 215 452 242 623 15 95 16 433 1 525 -16 94 -83 294 -137 408 -44 91 -140 230 -219 317 -104 113 -359 310 -402 310 -6 0 -18 9 -28 20 -9 11 -26 20 -36 20 -11 0 -23 5 -26 11 -11 17 -117 60 -170 69 -27 5 -95 20 -150 34 -134 33 -228 53 -360 76 -188 31 -385 68 -510 96 -66 14 -151 32 -190 39 -205 39 -546 148 -596 191 -20 18 -42 16 -104 -6z"/>
<path d="M1925 1988 c-3 -7 -4 -407 -3 -888 l3 -875 89 -3 90 -3 55 55 c95 93 237 146 393 146 82 0 277 -31 323 -50 11 -5 54 -19 95 -30 101 -28 139 -40 175 -55 17 -7 80 -29 140 -48 61 -20 143 -48 184 -63 58 -20 112 -29 245 -40 171 -14 288 -10 452 16 159 25 489 154 482 188 -3 16 -166 132 -186 132 -7 0 -55 -20 -105 -44 -156 -75 -223 -89 -440 -94 -163 -3 -202 -1 -295 18 -122 24 -229 64 -385 145 -114 58 -139 75 -278 193 -131 110 -307 316 -403 472 -15 25 -43 68 -62 95 -19 28 -61 104 -93 170 -53 109 -81 166 -158 334 -14 30 -34 80 -44 110 -10 31 -25 73 -34 94 l-15 37 -110 0 c-79 0 -112 -4 -115 -12z m175 -817 c15 -44 134 -263 169 -311 14 -19 48 -62 76 -95 75 -89 107 -134 101 -144 -3 -4 -47 -10 -99 -13 -110 -6 -141 -19 -227 -93 -35 -30 -67 -52 -71 -49 -11 6 -12 768 -2 778 10 9 37 -28 53 -73z"/>
</g>
</g>
  <g id="id1:id1" transform="matrix(1.25,0,0,1.25,0.0,0.0)"><g transform="translate(0.000000,216.000000) scale(0.040000,-0.040000)" fill="#000000" stroke="none">
<path d="M241 5261 c-12 -22 -14 -55 -5 -88 6 -21 12 -23 83 -23 149 0 298 -44 363 -107 74 -72 71 -16 75 -1368 4 -1210 2 -1338 -31 -1416 -21 -49 -76 -98 -143 -126 -47 -20 -82 -25 -191 -30 -95 -4 -138 -10 -148 -20 -16 -17 -19 -76 -4 -104 l11 -19 827 0 c647 0 832 3 845 13 13 10 15 22 9 67 l-7 55 -162 10 c-104 6 -167 14 -175 23 -6 6 -23 12 -35 12 -71 0 -165 90 -183 174 -8 34 -10 227 -8 596 l3 545 385 6 c238 3 414 10 460 18 232 39 403 81 415 101 4 6 26 19 51 31 84 38 197 110 271 172 121 102 197 234 232 402 65 309 -27 580 -272 798 l-76 68 -73 -36 c-40 -20 -86 -48 -103 -62 l-29 -26 38 -71 c60 -109 86 -181 107 -300 23 -132 24 -247 3 -375 -35 -213 -130 -383 -249 -443 -22 -11 -47 -27 -56 -34 -20 -18 -108 -44 -113 -35 -3 4 19 26 49 49 102 80 161 165 211 306 17 47 44 258 44 341 0 112 -37 311 -70 378 -16 34 -30 67 -30 74 0 19 -51 16 -66 -4 -18 -24 -17 -36 5 -86 24 -52 45 -123 60 -203 13 -73 14 -259 2 -317 -5 -23 -15 -68 -21 -100 -12 -60 -83 -212 -121 -261 -28 -36 -111 -97 -179 -131 -57 -29 -201 -74 -236 -75 -11 0 -24 -3 -27 -7 -14 -14 -99 -18 -352 -18 l-260 0 0 655 0 655 23 50 c29 63 64 99 127 133 l50 27 230 0 230 -1 66 -26 c79 -32 121 -55 212 -116 l68 -45 21 20 c16 17 18 24 9 42 -6 11 -20 25 -32 31 -40 22 -7 29 43 9 l51 -20 82 41 c75 37 125 74 114 84 -19 16 -211 69 -279 77 -395 43 -393 43 -1272 47 l-857 3 -10 -20z m601 -160 c72 -33 101 -69 118 -146 7 -34 10 -469 8 -1386 l-3 -1336 -28 -37 c-40 -52 -98 -86 -146 -86 -22 0 -42 4 -45 8 -3 5 13 31 34 59 21 29 43 69 49 90 15 52 15 2572 1 2662 -8 49 -21 78 -55 126 -60 86 -44 97 67 46z"/>
<path d="M5400 3551 c-113 -9 -123 -10 -275 -46 -222 -53 -375 -121 -590 -261 -148 -96 -149 -105 -17 -152 89 -32 95 -33 113 -16 18 16 19 16 25 -2 11 -36 21 -49 42 -52 16 -2 38 18 92 87 70 86 118 129 205 180 76 45 170 88 230 105 33 9 74 21 91 26 39 13 288 13 328 1 17 -5 58 -17 91 -26 33 -9 110 -42 170 -73 100 -52 120 -67 228 -175 65 -65 135 -144 155 -176 34 -52 123 -225 178 -346 26 -57 80 -231 90 -290 3 -22 14 -71 24 -110 19 -73 32 -189 52 -468 16 -234 -9 -517 -62 -702 -56 -189 -75 -228 -226 -455 -49 -74 -198 -196 -307 -251 -93 -47 -274 -89 -387 -89 -202 0 -398 62 -549 173 -148 108 -333 330 -421 506 -53 105 -118 298 -145 426 -9 44 -21 89 -26 100 -16 36 -49 405 -49 545 0 153 -8 174 -59 168 l-26 -3 2 -225 c1 -225 17 -397 49 -545 22 -99 103 -340 151 -445 11 -25 27 -60 34 -79 14 -37 87 -149 145 -221 60 -75 245 -260 276 -276 19 -10 27 -19 21 -25 -22 -22 -187 73 -311 180 -70 61 -216 250 -260 338 -10 21 -26 52 -35 68 -23 40 -77 163 -77 174 0 4 -9 34 -20 67 -23 66 -78 317 -91 409 -13 100 -21 465 -12 553 l9 84 -35 17 c-20 10 -76 28 -126 40 -49 12 -113 29 -142 37 -29 9 -60 14 -70 12 -43 -8 -93 -283 -93 -508 0 -442 160 -860 445 -1169 87 -93 253 -235 337 -286 39 -25 76 -45 80 -45 5 0 72 -25 151 -56 78 -31 169 -63 202 -71 33 -8 69 -18 80 -23 81 -36 394 -63 587 -50 237 16 252 18 443 70 143 38 347 128 437 192 167 119 255 200 380 353 99 122 216 342 277 520 92 275 105 725 30 1035 -22 90 -50 176 -73 225 -115 248 -195 386 -259 452 -18 17 -59 62 -92 100 -63 73 -88 93 -225 186 -285 195 -554 281 -910 291 -96 2 -222 1 -280 -3z m1024 -273 c99 -54 123 -70 248 -175 89 -75 153 -142 194 -203 13 -19 34 -49 46 -66 121 -166 190 -332 252 -604 31 -136 46 -260 46 -388 0 -111 -16 -268 -34 -337 -7 -27 -19 -77 -26 -110 -35 -160 -139 -405 -224 -521 -76 -105 -202 -254 -232 -274 -13 -8 -45 -34 -72 -57 -27 -23 -52 -40 -55 -36 -4 3 26 43 66 88 113 130 196 257 296 453 52 104 93 246 126 442 19 113 19 491 0 620 -41 282 -87 417 -214 633 -91 154 -107 177 -152 224 -25 27 -78 84 -119 128 -65 70 -202 184 -260 215 -24 13 -17 32 8 23 9 -4 57 -28 106 -55z"/>
</g>
</g>
  <g id="id2:id2" transform="matrix(1.25,0,0,1.25,0.0,0.0)"><g transform="translate(0.000000,216.000000) scale(0.040000,-0.040000)" fill="#ffffff" stroke="none">
<path d="M660 5150 c0 -5 22 -30 49 -55 71 -66 90 -115 102 -254 6 -70 9 -601 7 -1336 l-3 -1220 -18 -37 c-10 -20 -41 -62 -68 -93 -27 -31 -49 -61 -49 -67 0 -7 27 -9 80 -6 107 6 160 38 204 122 l31 60 0 1335 0 1336 -22 55 c-35 87 -67 117 -151 145 -74 25 -162 33 -162 15z"/>
<path d="M2274 5106 c-7 -17 11 -46 28 -46 6 0 27 -13 48 -30 21 -16 46 -30 56 -30 26 1 58 26 49 39 -8 14 -82 54 -115 62 -14 4 -33 10 -42 14 -12 5 -20 2 -24 -9z"/>
<path d="M4070 4952 c0 -6 8 -17 19 -24 83 -59 262 -234 306 -299 16 -24 62 -82 101 -129 39 -47 88 -111 108 -142 25 -38 45 -58 58 -58 22 0 22 -1 -18 245 -14 83 -29 177 -34 210 -5 33 -15 93 -21 133 l-12 74 -36 -6 c-184 -30 -285 -30 -438 0 -21 4 -33 2 -33 -4z"/>
<path d="M2566 4889 c-44 -39 -58 -71 -36 -84 23 -14 63 -114 81 -199 36 -178 34 -379 -7 -541 -26 -106 -104 -236 -182 -306 -60 -54 -131 -99 -154 -99 -21 0 -26 -39 -5 -41 117 -10 368 137 427 251 10 19 27 53 39 75 11 21 21 47 21 57 0 9 4 19 9 23 5 3 18 31 28 63 26 82 26 470 0 551 -9 29 -21 59 -25 65 -5 6 -12 23 -16 38 -7 29 -69 141 -94 171 -22 25 -34 22 -86 -24z"/>
<path d="M1995 4148 c-25 -76 -42 -389 -25 -470 l13 -58 41 0 c23 0 50 6 61 13 19 15 19 11 -6 122 -19 82 -39 252 -39 328 0 71 -2 77 -20 77 -11 0 -23 -6 -25 -12z"/>
<path d="M2038 3483 c-10 -2 -18 -10 -18 -16 1 -54 128 -302 208 -407 61 -79 225 -230 293 -270 91 -54 221 -120 237 -120 7 0 23 -7 35 -14 39 -26 206 -67 427 -106 63 -11 140 -25 170 -30 30 -6 96 -17 145 -25 132 -21 410 -72 485 -89 192 -43 435 -128 535 -187 54 -32 232 -182 270 -227 32 -38 115 -172 115 -185 0 -4 11 -25 24 -45 13 -21 34 -76 46 -123 11 -46 25 -100 30 -120 14 -50 13 -258 -1 -316 -28 -122 -53 -209 -64 -223 -19 -25 -35 -69 -35 -96 0 -47 40 -26 88 46 51 78 122 217 122 240 0 9 4 20 8 26 5 5 14 27 20 49 55 193 46 455 -23 656 -29 87 -96 212 -148 279 -14 18 -128 117 -210 182 -130 104 -383 207 -702 285 -33 8 -69 18 -80 23 -11 5 -33 11 -50 13 -16 3 -79 14 -140 25 -60 11 -153 28 -205 37 -52 9 -151 27 -220 40 -69 13 -161 29 -205 35 -44 6 -93 15 -110 19 -91 26 -211 65 -220 71 -5 4 -36 17 -68 29 -78 28 -169 75 -248 127 -95 63 -250 223 -322 332 l-61 92 -55 -1 c-31 -1 -64 -3 -73 -6z"/>
<path d="M6120 3434 c1 -18 36 -52 83 -78 263 -150 538 -444 666 -710 72 -149 98 -220 129 -346 70 -286 74 -674 12 -945 -19 -80 -59 -204 -77 -241 -6 -10 -39 -75 -73 -144 -66 -130 -103 -188 -180 -280 -26 -30 -53 -65 -61 -76 -8 -12 -47 -56 -87 -98 -63 -68 -90 -116 -64 -116 5 0 49 32 98 70 49 39 107 85 129 102 68 54 247 272 299 365 89 161 185 417 206 548 31 205 37 519 11 639 -5 22 -14 70 -20 106 -24 145 -137 436 -222 568 -108 168 -284 345 -444 447 -163 103 -405 216 -405 189z"/>
<path d="M4738 3197 c-23 -10 -154 -127 -146 -131 2 0 13 -7 25 -13 13 -7 27 -13 32 -13 13 0 123 149 119 160 -2 4 -15 3 -30 -3z"/>
<path d="M4030 2290 c0 -5 7 -10 15 -10 8 0 15 5 15 10 0 6 -7 10 -15 10 -8 0 -15 -4 -15 -10z"/>
<path d="M4190 2252 c0 -5 10 -12 21 -15 19 -5 21 -11 15 -39 -4 -18 -9 -96 -13 -173 -6 -163 20 -502 43 -547 8 -15 14 -40 15 -55 0 -25 17 -94 62 -254 20 -70 79 -214 116 -282 43 -79 203 -302 242 -336 114 -101 214 -170 294 -203 188 -78 250 -77 138 1 -114 79 -247 197 -295 261 -27 36 -71 92 -99 125 -56 66 -153 256 -188 370 -13 39 -26 79 -31 90 -5 11 -14 40 -20 65 -10 42 -22 86 -49 185 -23 84 -43 309 -47 525 l-4 225 -42 19 c-24 11 -59 23 -78 27 -19 4 -45 11 -57 14 -13 4 -23 3 -23 -3z"/>
<path d="M2020 860 l0 -440 21 0 c12 0 43 24 76 61 31 33 70 67 87 76 34 18 168 42 234 43 27 0 42 4 42 13 0 15 -48 83 -111 158 -87 104 -192 270 -235 373 -14 33 -32 75 -39 91 -7 17 -15 38 -19 48 -3 10 -15 17 -31 17 l-25 0 0 -440z"/>
</g>
</g>
</svg>
