<?xml version="1.0" standalone="no"?>
<!DOCTYPE svg PUBLIC "-//W3C//DTD SVG 1.1//EN"
 "http://www.w3.org/Graphics/SVG/1.1/DTD/svg11.dtd">
<!-- Created with svg_stack (http://github.com/astraw/svg_stack) -->
<svg xmlns:sodipodi="http://sodipodi.sourceforge.net/DTD/sodipodi-0.dtd" xmlns="http://www.w3.org/2000/svg" version="1.1" width="1545.0" height="922.0">
  <defs/>
  <g id="id0:id0" transform="matrix(1.25,0,0,1.25,0.0,0.0)"><g transform="translate(0.000000,737.600000) scale(0.040000,-0.040000)" fill="#002060" stroke="none">
<path d="M16053 15835 c-73 -20 -292 -120 -362 -165 -32 -21 -70 -53 -85 -73 -27 -35 -69 -143 -81 -207 -17 -92 -36 -363 -45 -630 -5 -162 -12 -309 -15 -326 -3 -18 -19 -49 -35 -69 l-30 -38 0 -278 0 -277 25 -30 c37 -44 57 -94 125 -322 68 -224 105 -300 232 -470 179 -240 356 -373 578 -432 76 -20 107 -23 292 -22 l208 1 51 27 c48 24 59 26 190 26 116 0 147 3 194 21 115 43 304 208 410 359 64 92 88 138 110 214 24 82 59 158 84 180 20 18 21 28 21 198 0 136 -3 186 -14 207 -17 31 -68 73 -135 111 -40 22 -45 31 -58 80 -15 62 -59 110 -148 161 -46 26 -58 29 -147 29 l-97 0 -31 -42 c-30 -41 -47 -67 -173 -253 -29 -44 -60 -96 -67 -115 -29 -76 -179 -244 -250 -280 -35 -18 -61 -23 -120 -22 -88 0 -267 35 -288 56 -12 12 -14 85 -13 476 1 253 5 469 8 478 4 9 15 28 25 41 16 22 18 47 18 285 0 228 2 265 18 296 l17 35 130 3 c116 3 462 -29 487 -44 5 -3 8 -15 8 -27 0 -48 79 -157 157 -217 17 -14 55 -56 84 -95 69 -94 96 -122 148 -156 40 -26 53 -29 130 -29 93 0 102 4 204 99 l47 44 0 239 c0 216 -2 245 -21 301 -52 154 -83 198 -307 432 -45 47 -152 120 -272 184 l-85 46 -535 2 c-437 2 -545 -1 -587 -12z m1172 -115 c102 -52 208 -121 231 -151 14 -18 84 -299 84 -339 0 -77 -53 -137 -109 -125 -44 10 -64 39 -131 190 -8 17 -14 41 -15 55 -3 65 -5 70 -26 70 -19 0 -20 -4 -14 -32 14 -59 9 -141 -8 -175 -29 -55 -56 -48 -277 78 l-65 37 -52 -55 c-47 -52 -54 -55 -85 -49 -46 9 -78 35 -106 87 -12 24 -27 48 -33 54 -16 16 -72 -23 -104 -73 -23 -35 -44 -54 -87 -74 -41 -20 -68 -42 -92 -75 l-36 -48 0 -141 c0 -130 -2 -144 -22 -174 -38 -54 -69 -73 -108 -63 -42 11 -58 50 -42 97 6 17 12 97 14 178 3 128 1 149 -14 164 -26 26 -45 3 -59 -67 -22 -112 -78 -142 -138 -74 l-31 36 0 104 c0 120 -8 148 -49 170 -41 21 -47 20 -69 -17 -36 -59 -61 -155 -72 -280 -6 -68 -15 -157 -20 -198 -6 -41 -10 -138 -11 -215 0 -77 -4 -206 -7 -286 l-7 -146 -38 -42 -37 -41 0 -214 c0 -133 -4 -217 -10 -221 -6 -3 -33 40 -61 97 l-50 103 3 216 3 216 33 37 c17 20 32 38 33 39 1 1 7 153 15 337 8 184 18 367 23 405 5 39 14 115 19 170 10 95 29 170 57 225 31 57 78 93 208 155 217 104 183 98 527 105 168 4 400 6 517 6 l212 -1 106 -55z m37 -717 c19 -17 26 -97 10 -107 -19 -12 -99 94 -87 114 10 16 57 12 77 -7z m271 -1010 c103 -48 127 -92 59 -106 -28 -6 -30 -9 -30 -51 0 -27 -10 -63 -24 -93 -22 -44 -43 -63 -132 -126 l-26 -18 0 -226 0 -226 -49 -48 c-66 -66 -87 -65 -157 7 l-55 55 -62 -20 c-83 -28 -103 -43 -132 -100 -13 -27 -39 -61 -56 -76 -43 -35 -77 -30 -154 24 -62 43 -95 51 -115 26 -7 -8 -16 -15 -20 -15 -6 0 -130 153 -187 233 -20 27 -21 33 -8 47 8 9 15 26 15 38 0 11 4 23 9 26 5 3 55 -1 112 -9 164 -23 245 -20 308 12 103 51 291 257 291 319 0 46 124 234 222 337 34 36 40 39 75 33 21 -4 73 -24 116 -43z"/>
<path d="M13165 15700 c-50 -26 -104 -95 -158 -203 l-42 -82 -3 -1005 -2 -1005 55 -234 c31 -128 60 -243 65 -255 29 -77 340 -428 429 -486 45 -28 53 -30 150 -30 l102 0 64 66 c36 36 68 77 72 92 3 15 1 312 -5 662 -7 349 -17 937 -23 1305 -8 525 -13 677 -24 702 -8 17 -49 69 -92 115 -43 45 -115 129 -161 184 -88 108 -164 170 -228 185 -69 16 -155 11 -199 -11z m231 -105 c73 -44 117 -90 109 -114 -4 -13 1 -20 15 -24 17 -4 20 -13 20 -56 l0 -51 38 -16 c20 -9 44 -20 52 -24 8 -3 25 -35 37 -71 20 -56 22 -85 23 -242 0 -131 -4 -185 -14 -205 -7 -15 -16 -40 -19 -57 -3 -16 -15 -71 -25 -121 -15 -68 -18 -108 -13 -159 7 -60 5 -71 -12 -88 -13 -13 -26 -17 -45 -12 -41 10 -57 29 -76 92 -10 32 -29 77 -42 100 -22 39 -24 51 -24 192 0 134 -2 154 -21 185 -25 43 -41 45 -68 10 -17 -21 -21 -41 -21 -93 0 -46 -5 -74 -16 -90 -15 -21 -22 -23 -74 -18 l-57 5 -6 -232 c-4 -127 -7 -473 -7 -768 l0 -537 30 -138 c35 -166 38 -187 25 -193 -24 -12 -57 86 -143 435 l-27 110 -3 949 c-3 1071 -8 992 78 1136 76 126 81 130 160 130 58 0 74 -4 126 -35z"/>
<path d="M13541 14936 c-15 -18 -2 -49 16 -42 8 3 17 6 19 6 2 0 4 9 4 19 0 24 -25 34 -39 17z"/>
<path d="M14107 13733 c-13 -12 -8 -338 5 -351 17 -17 1069 -17 1086 0 13 13 17 292 6 336 l-6 22 -542 0 c-299 0 -546 -3 -549 -7z"/>
<path d="M19045 10936 c-211 -60 -384 -187 -430 -316 -8 -22 -27 -57 -44 -78 -27 -34 -29 -44 -33 -137 -4 -92 -7 -106 -43 -174 l-38 -74 6 -136 c10 -268 32 -314 298 -611 185 -209 216 -236 328 -294 207 -106 221 -110 382 -116 l146 -5 72 -48 c83 -55 92 -71 121 -210 33 -155 37 -144 -92 -227 -134 -85 -258 -145 -313 -153 -22 -3 -76 0 -119 6 l-80 12 -36 70 c-68 134 -93 171 -185 265 -51 52 -96 105 -99 118 -11 32 -96 111 -129 119 -15 3 -36 16 -46 29 -17 22 -26 24 -113 24 l-95 0 -56 -59 c-31 -33 -61 -71 -67 -86 -13 -34 -13 -196 0 -231 6 -15 21 -39 34 -55 16 -19 34 -72 59 -172 68 -279 145 -401 443 -701 52 -53 108 -97 160 -126 l79 -45 140 2 c304 6 415 25 505 87 l45 31 185 5 185 5 70 42 c126 77 166 113 207 188 86 159 145 370 170 615 14 137 6 343 -16 392 -8 20 -20 58 -26 85 -15 67 -139 228 -315 410 -147 153 -281 236 -487 304 -78 25 -105 29 -203 29 -127 0 -122 -2 -283 105 -57 38 -72 53 -72 72 0 31 61 141 95 173 34 32 138 48 362 57 164 6 173 5 178 -13 18 -57 46 -93 117 -146 66 -50 79 -64 88 -101 9 -30 27 -57 69 -97 81 -78 131 -100 222 -100 85 0 109 11 189 88 l50 48 0 157 c0 140 -3 164 -25 230 -43 129 -109 250 -162 295 -27 23 -67 58 -90 77 -23 20 -51 55 -63 78 -12 23 -31 52 -43 65 -33 36 -310 181 -435 228 l-62 24 -313 -1 c-293 0 -317 -2 -392 -23z m781 -93 c128 -58 254 -122 287 -145 26 -18 27 -22 13 -37 -12 -13 -13 -20 -4 -29 19 -19 49 -15 46 6 -6 34 27 16 57 -31 17 -26 51 -73 78 -104 l47 -56 0 -87 c0 -82 -2 -89 -25 -104 -28 -19 -24 -20 -190 59 -66 31 -138 65 -160 75 -22 10 -75 34 -118 54 -42 20 -83 36 -90 36 -35 0 -277 -65 -277 -75 0 -6 7 -20 15 -31 22 -29 19 -91 -4 -104 -32 -17 -60 -12 -106 20 -52 36 -108 100 -151 173 -22 38 -37 53 -56 55 l-25 3 -13 -76 c-16 -96 -47 -135 -107 -135 -21 0 -44 5 -50 11 -6 6 -24 8 -41 4 -31 -6 -42 -31 -42 -96 0 -48 -71 -79 -100 -44 -15 19 -44 19 -59 2 -6 -8 -22 -44 -36 -82 -14 -37 -33 -82 -42 -99 -13 -22 -19 -67 -23 -161 -3 -71 -9 -130 -13 -130 -13 0 -55 78 -78 148 -17 52 -20 80 -17 172 3 99 7 117 36 179 28 60 32 79 32 151 0 72 3 86 25 116 13 19 41 67 60 106 45 91 119 159 230 212 169 83 215 90 555 87 l255 -1 91 -42z m-52 -1223 c72 -24 236 -110 298 -155 l47 -35 -20 -35 c-27 -45 -44 -54 -90 -48 -35 5 -39 3 -64 -36 -24 -38 -29 -42 -62 -39 -33 3 -39 9 -86 86 -43 72 -56 87 -94 103 -25 10 -48 19 -52 19 -13 0 -160 148 -153 154 3 3 53 6 112 6 80 0 121 -5 164 -20z m-1073 -742 c123 -65 136 -90 52 -103 -34 -5 -59 -18 -95 -48 -74 -64 -82 -81 -88 -177 -3 -51 -9 -83 -15 -80 -5 2 -31 54 -57 115 -36 84 -48 122 -48 163 0 62 9 83 58 135 50 51 88 50 193 -5z m1223 -95 c20 -39 96 -351 96 -394 0 -23 -7 -42 -20 -54 -11 -10 -20 -22 -20 -27 0 -20 -49 -79 -86 -104 -40 -27 -132 -98 -189 -146 -30 -26 -39 -28 -131 -30 -59 -1 -108 3 -120 10 -12 6 -38 36 -58 66 -21 32 -53 64 -78 79 -44 26 -92 80 -81 91 4 3 51 6 105 6 85 0 109 4 176 30 99 38 225 111 312 180 66 52 69 57 70 97 0 23 -5 76 -11 117 -11 76 -8 106 10 106 6 0 17 -12 25 -27z"/>
<path d="M15936 10853 c-64 -43 -86 -79 -120 -197 -30 -103 -32 -138 -10 -203 19 -58 46 -88 99 -115 57 -29 75 -47 75 -78 0 -42 54 -106 133 -158 l72 -47 155 -3 c85 -2 158 -6 162 -10 12 -12 109 -569 119 -682 22 -257 23 -389 0 -505 -19 -98 -21 -146 -21 -436 l0 -326 41 -63 c64 -99 139 -188 236 -281 115 -109 156 -129 266 -129 100 0 139 16 219 89 93 85 88 34 88 952 0 701 -2 804 -17 878 -14 74 -15 90 -2 130 9 30 16 117 19 246 l5 200 335 5 c377 6 348 0 441 89 l49 47 0 74 c0 105 -20 141 -119 213 -69 50 -80 63 -91 102 -20 71 -115 149 -235 194 -79 30 -290 38 -1177 44 l-668 5 -54 -35z m1689 -58 c133 -8 240 -45 323 -112 l42 -34 0 -75 0 -74 -27 -11 c-93 -35 -136 -40 -208 -23 l-71 16 -78 -36 c-42 -20 -79 -36 -81 -36 -1 0 -46 -20 -100 -46 l-96 -45 -45 26 c-31 18 -53 25 -70 21 l-24 -6 0 -285 c0 -390 -6 -391 -144 -14 -9 26 -26 55 -36 64 -17 15 -20 31 -20 97 0 44 -4 87 -10 97 -10 20 -91 47 -114 38 -7 -3 -21 -28 -31 -56 -20 -60 -34 -73 -77 -69 -29 3 -33 7 -39 43 -4 22 -12 52 -18 67 -7 18 -7 35 1 56 10 27 8 34 -26 80 -48 66 -93 104 -120 100 -12 -2 -52 -43 -99 -100 -89 -111 -108 -120 -151 -65 -15 17 -31 38 -37 45 -18 22 -63 13 -119 -25 -50 -34 -61 -38 -122 -38 -57 0 -70 3 -93 25 -43 40 -68 97 -62 143 8 55 62 160 107 208 l38 40 763 -6 c420 -3 800 -8 844 -10z m-924 -915 c3 -85 13 -193 22 -240 51 -268 96 -572 102 -685 9 -161 9 -141 -15 -319 -15 -114 -20 -203 -20 -387 0 -136 -4 -240 -9 -244 -5 -3 -31 23 -58 57 l-48 63 -3 266 c-3 247 -1 275 22 410 14 79 23 153 21 164 -2 11 -9 137 -15 280 -11 245 -14 275 -61 519 -27 142 -46 263 -43 268 3 5 27 8 52 6 l47 -3 6 -155z"/>
<path d="M13970 10848 c-737 -12 -709 -3 -919 -287 -34 -47 -72 -103 -84 -125 l-22 -41 -5 -820 -5 -820 -27 -62 c-26 -58 -28 -71 -28 -202 0 -124 3 -148 24 -204 51 -135 87 -187 174 -247 19 -12 58 -60 88 -105 30 -46 74 -98 97 -117 97 -79 369 -259 499 -332 l67 -37 243 3 243 4 179 57 179 57 137 0 137 0 95 67 c67 47 105 82 129 117 18 28 56 76 84 106 164 176 207 291 259 700 23 182 25 235 30 803 5 511 4 618 -9 670 -8 34 -21 98 -29 142 -27 140 -86 236 -190 308 -14 9 -34 36 -44 60 -46 102 -201 196 -422 256 -47 13 -104 32 -127 42 -32 14 -63 19 -125 17 -46 -1 -328 -5 -628 -10z m748 -98 c149 -33 258 -75 357 -138 60 -39 84 -63 78 -78 -8 -23 32 -70 153 -179 93 -84 128 -176 88 -234 -14 -19 -14 -27 -4 -46 14 -26 1 -220 -14 -220 -6 0 -39 94 -76 209 l-65 210 -30 8 c-20 5 -34 3 -43 -5 -7 -7 -21 -60 -32 -118 -16 -81 -26 -108 -43 -121 -57 -45 -92 -10 -106 102 -13 106 -26 150 -52 184 -17 22 -29 26 -69 26 -41 0 -52 4 -69 27 -23 29 -15 31 -116 -25 l-49 -28 3 -79 3 -80 -82 -113 c-92 -127 -99 -129 -119 -35 -15 66 -52 138 -81 153 -25 13 -63 13 -78 -2 -13 -13 -45 8 -147 92 -65 54 -81 59 -89 33 -22 -74 -76 -391 -76 -446 0 -38 -4 -77 -10 -87 -12 -23 -76 -63 -93 -58 -8 3 -15 52 -23 155 l-11 150 -37 69 c-63 115 -82 119 -170 34 -53 -50 -68 -60 -98 -60 -50 0 -60 18 -57 92 5 90 1 92 -82 57 -44 -19 -83 -29 -106 -27 -33 3 -39 -1 -80 -57 -24 -33 -48 -70 -53 -83 -6 -15 -10 -298 -10 -760 l0 -737 -25 -80 c-19 -62 -25 -102 -25 -177 0 -53 -4 -99 -9 -102 -11 -7 -49 56 -87 144 -25 58 -28 77 -28 175 0 97 3 116 24 160 l25 50 5 825 5 825 24 35 c14 19 68 94 122 165 l96 130 80 33 c107 44 185 49 806 51 451 1 494 0 575 -19z m-392 -802 c6 -25 22 -61 35 -79 13 -18 38 -58 54 -88 26 -49 34 -56 63 -59 46 -5 60 11 74 80 10 50 19 66 52 94 45 38 59 39 64 3 2 -13 24 -114 49 -224 57 -255 63 -337 33 -425 -61 -180 -345 -685 -443 -787 l-60 -63 -228 0 c-125 0 -230 4 -233 9 -3 5 -23 12 -43 16 -21 3 -48 16 -60 28 l-23 20 0 678 0 678 26 20 c15 11 30 18 35 15 5 -3 9 -58 9 -122 0 -136 6 -151 75 -177 l45 -18 100 68 100 67 0 89 c0 75 4 95 25 135 14 26 25 55 25 64 0 28 11 31 114 28 l100 -3 12 -47z m559 -493 c14 -49 36 -119 47 -155 43 -133 32 -222 -94 -755 -13 -55 -23 -142 -27 -225 l-6 -135 -23 -3 c-25 -4 -44 30 -57 101 -4 20 -10 37 -14 37 -4 0 -25 -18 -46 -41 -22 -22 -64 -58 -92 -81 -43 -33 -53 -46 -53 -70 0 -82 -149 -185 -198 -136 -18 18 -30 0 -40 -63 -6 -42 -19 -69 -52 -113 -33 -43 -46 -71 -50 -105 -5 -43 -7 -46 -35 -46 l-30 0 -5 115 c-5 96 -10 124 -32 170 -14 30 -28 62 -31 71 -8 25 -133 110 -151 103 -13 -5 -16 -23 -16 -90 0 -68 -3 -86 -16 -91 -23 -8 -39 13 -64 87 -12 36 -27 71 -32 77 -13 16 -12 77 2 122 8 30 7 38 -11 57 -23 25 -20 69 3 46 9 -9 84 -12 261 -12 l248 0 45 37 c24 20 66 64 93 98 94 116 269 425 382 675 47 105 52 123 56 205 3 50 0 117 -5 150 -10 59 -7 85 8 68 4 -4 20 -48 35 -98z"/>
<path d="M10419 10802 c-118 -30 -155 -53 -219 -134 l-40 -50 0 -236 c0 -152 5 -277 15 -347 22 -165 20 -368 -5 -447 -17 -56 -20 -92 -20 -312 l0 -249 45 -48 45 -48 0 -123 c0 -68 -7 -163 -15 -213 -11 -64 -15 -169 -15 -359 l0 -269 43 -40 c23 -22 65 -57 93 -79 38 -28 54 -48 58 -72 15 -79 95 -154 210 -197 l59 -22 616 11 c753 14 738 11 908 139 87 65 138 122 166 183 11 25 41 81 66 124 l46 80 0 130 c-1 270 -11 372 -48 494 l-34 112 -104 99 -104 98 77 115 c43 62 84 134 93 158 8 24 31 67 50 96 l35 52 0 89 c-1 220 -78 547 -140 590 -10 7 -36 41 -56 76 -90 148 -192 275 -317 393 -165 157 -223 183 -468 213 -141 18 -217 21 -549 20 l-385 -1 -106 -26z m1021 -71 c83 -11 168 -28 198 -40 90 -36 210 -111 247 -153 41 -48 50 -87 41 -169 -20 -170 -94 -236 -172 -153 -19 19 -34 40 -34 45 0 12 -101 129 -112 129 -3 0 -19 -19 -35 -42 -16 -24 -39 -45 -53 -48 -44 -11 -133 9 -161 36 -40 39 -54 32 -80 -43 -29 -82 -74 -133 -117 -133 -16 0 -54 11 -84 25 -67 31 -84 31 -189 -1 l-85 -26 -20 -61 c-40 -130 -138 -109 -189 40 -17 50 -35 48 -56 -7 -79 -205 -72 -194 -117 -214 -23 -11 -44 -26 -47 -35 -2 -9 -1 -102 4 -208 l9 -191 -23 -89 c-23 -82 -24 -106 -25 -338 l0 -251 45 -44 45 -44 0 -141 c-1 -77 -6 -160 -11 -185 -6 -25 -14 -139 -18 -254 -4 -137 -10 -211 -17 -213 -6 -2 -31 14 -55 36 l-44 39 -3 217 c-2 160 1 242 12 315 10 61 16 163 16 276 l0 178 -39 41 -39 40 -5 197 c-3 144 -1 203 8 221 17 32 29 154 28 267 -1 52 -7 255 -14 451 l-12 357 26 44 c48 82 55 87 167 118 l105 29 380 0 c314 0 405 -3 525 -18z m102 -768 c6 -16 11 -75 12 -133 0 -113 -11 -152 -59 -205 l-24 -25 -225 0 c-124 0 -236 -4 -250 -9 -33 -13 -38 -4 -64 111 -24 108 -30 256 -10 276 9 9 92 12 310 12 l298 0 12 -27z m178 -175 l30 -37 0 -130 0 -131 -36 -92 c-20 -51 -40 -103 -45 -116 -10 -26 -56 -48 -118 -58 -23 -4 -41 -9 -41 -13 0 -3 -10 -19 -23 -34 -16 -21 -39 -32 -82 -42 -54 -13 -63 -13 -102 5 -24 10 -43 24 -43 30 0 26 -45 3 -65 -35 -13 -22 -37 -56 -54 -77 -27 -32 -38 -38 -69 -38 -20 0 -48 9 -61 19 -21 16 -25 29 -28 82 -3 43 -13 80 -30 113 l-25 48 12 74 c6 41 10 89 8 106 l-3 32 95 18 c68 12 149 17 287 17 l191 1 37 43 c60 68 85 131 85 213 0 39 3 74 7 78 4 4 16 -3 25 -16 10 -13 32 -40 48 -60z m-310 -1014 c74 -14 139 -29 144 -34 8 -8 -65 -209 -86 -236 -5 -7 -30 -15 -56 -18 -68 -10 -113 -25 -147 -51 -51 -37 -132 -77 -149 -73 -15 3 -17 26 -18 195 -1 106 1 196 6 200 14 15 101 41 136 42 20 1 96 -11 170 -25z m322 -54 c79 -22 78 -20 57 -97 -65 -232 -79 -295 -79 -363 l0 -72 -35 -35 c-32 -32 -40 -35 -75 -30 l-40 5 -46 -56 c-25 -30 -52 -69 -60 -85 -31 -60 -87 -127 -109 -133 -41 -10 -59 0 -92 51 -54 85 -72 103 -126 132 -46 25 -52 32 -55 63 -9 89 31 180 78 180 8 0 46 21 84 46 82 55 125 74 166 74 17 0 50 5 74 11 l43 11 41 86 c23 48 51 114 63 147 25 70 37 88 55 81 7 -3 32 -10 56 -16z"/>
<path d="M8141 4809 c-92 -14 -229 -61 -308 -105 -128 -71 -258 -226 -315 -376 -90 -237 -108 -622 -42 -921 70 -321 245 -531 511 -616 127 -40 202 -51 348 -51 443 0 737 209 841 599 77 289 68 703 -22 956 -77 214 -194 353 -369 437 -133 63 -215 80 -410 84 -93 1 -199 -2 -234 -7z m287 -184 c129 -65 172 -275 172 -846 0 -398 -19 -596 -67 -714 -43 -103 -100 -145 -200 -145 -123 0 -202 83 -234 242 -58 296 -47 1119 18 1303 22 64 73 135 112 155 46 24 154 27 199 5z"/>
<path d="M15011 4805 c-192 -35 -334 -109 -463 -241 -97 -99 -131 -147 -185 -256 -106 -214 -145 -497 -108 -778 25 -186 63 -309 136 -437 44 -76 161 -192 239 -236 85 -47 224 -93 329 -108 104 -15 341 -6 431 16 253 61 434 212 501 419 23 68 39 320 22 337 -5 5 -61 22 -124 39 -137 35 -143 33 -127 -50 16 -84 4 -243 -22 -315 -27 -72 -48 -104 -109 -168 -75 -79 -140 -107 -248 -107 -187 0 -308 116 -368 355 -38 147 -49 290 -42 545 12 468 93 718 257 794 83 39 174 35 276 -10 40 -17 111 -95 131 -141 26 -63 44 -185 42 -286 -1 -54 1 -101 5 -104 3 -4 61 19 129 49 l122 55 -1 75 c-2 92 -27 199 -66 281 -36 73 -134 174 -199 204 -164 77 -371 102 -558 68z"/>
<path d="M6602 4778 c-19 -19 -17 -1981 2 -1997 9 -8 96 -11 297 -9 l284 3 3 999 c2 793 0 1001 -10 1008 -22 13 -562 10 -576 -4z"/>
<path d="M9294 4782 c-12 -7 -4 -38 125 -537 21 -82 58 -224 81 -315 23 -91 59 -230 80 -310 21 -80 77 -298 125 -485 48 -187 92 -346 97 -352 15 -18 371 -18 385 0 6 6 17 41 26 77 9 36 37 144 62 240 25 96 75 290 111 430 36 140 69 259 74 263 15 16 9 36 170 -598 56 -220 107 -406 112 -412 15 -18 358 -18 379 0 9 7 124 410 284 1000 225 825 267 990 254 998 -17 11 -199 12 -217 1 -7 -5 -23 -49 -36 -98 -33 -122 -80 -301 -181 -689 -47 -181 -88 -336 -91 -344 -12 -36 -35 28 -89 249 -170 700 -215 874 -227 881 -17 11 -319 11 -336 0 -8 -5 -75 -252 -156 -577 -78 -313 -146 -569 -150 -569 -5 0 -72 256 -151 568 -86 347 -147 572 -156 578 -17 10 -559 12 -575 1z"/>
<path d="M12213 4778 c-6 -7 -42 -123 -82 -258 -65 -218 -125 -420 -251 -845 -21 -71 -62 -209 -90 -305 -28 -96 -60 -202 -70 -235 -83 -268 -103 -347 -89 -356 18 -11 200 -12 217 0 7 4 40 96 72 204 31 107 61 200 64 206 8 13 582 16 590 3 2 -4 29 -97 60 -207 30 -109 61 -202 68 -206 20 -13 562 -11 575 2 8 8 6 29 -8 78 -11 36 -32 113 -48 171 -16 58 -92 335 -171 615 -172 617 -228 818 -277 995 -20 74 -42 138 -47 142 -6 4 -122 8 -257 8 -186 0 -249 -3 -256 -12z m120 -673 c15 -55 44 -165 65 -245 22 -80 56 -207 76 -283 20 -76 34 -142 31 -147 -8 -12 -442 -13 -449 -2 -3 5 22 103 55 218 95 332 160 558 165 573 9 29 30 -13 57 -114z"/>
<path d="M16142 4782 c-10 -7 -12 -215 -10 -1008 l3 -999 284 -3 c201 -2 288 1 297 9 19 16 21 1978 2 1997 -14 14 -554 17 -576 4z"/>
<path d="M16873 4783 c-9 -3 -13 -34 -13 -104 0 -54 1 -100 3 -101 1 -1 110 -5 242 -8 l240 -5 3 -884 c1 -633 5 -888 13 -898 9 -10 70 -13 299 -13 159 0 295 3 304 6 14 6 16 94 16 894 0 489 4 891 8 894 4 3 118 6 252 7 l244 2 222 -519 223 -519 0 -370 c1 -275 4 -374 13 -383 9 -9 86 -12 284 -12 150 0 279 3 288 6 14 5 16 47 16 369 l0 364 59 153 c86 224 247 641 345 893 62 159 82 221 73 227 -16 10 -209 10 -225 -1 -12 -7 -49 -100 -267 -676 -48 -126 -90 -234 -94 -238 -4 -4 -12 -2 -18 5 -6 7 -95 213 -198 458 -104 245 -193 448 -199 452 -12 8 -2113 9 -2133 1z"/>
<path d="M21902 4778 c-9 -9 -12 -244 -12 -997 0 -543 4 -992 8 -999 7 -9 73 -12 298 -10 l289 3 3 999 c2 793 0 1001 -10 1008 -22 13 -562 10 -576 -4z"/>
<path d="M23222 4778 c-8 -10 -363 -1195 -569 -1897 -13 -46 -22 -90 -19 -97 7 -19 219 -20 233 -1 5 6 33 95 63 197 29 102 57 193 62 203 8 16 33 17 299 17 l289 0 9 -24 c5 -12 31 -104 57 -202 26 -98 52 -185 57 -191 7 -10 77 -13 291 -13 154 0 287 4 294 9 10 6 -3 65 -62 277 -42 148 -165 592 -275 987 -110 395 -205 725 -212 733 -16 19 -501 21 -517 2z m104 -619 c11 -42 30 -111 90 -336 84 -312 101 -382 96 -387 -3 -3 -101 -6 -219 -6 -174 0 -215 3 -219 14 -3 8 16 85 41 172 26 88 74 251 106 364 32 113 61 211 64 218 9 25 30 6 41 -39z"/>
<path d="M20341 3289 c-76 -13 -135 -50 -168 -106 -22 -39 -28 -62 -31 -134 -5 -96 6 -145 45 -197 26 -35 78 -65 130 -77 18 -3 35 -11 39 -16 12 -20 -40 -101 -97 -152 l-59 -54 0 -91 c0 -50 4 -93 9 -96 13 -8 126 40 190 81 179 113 264 282 265 528 0 197 -60 286 -213 315 -29 5 -54 9 -55 9 0 -1 -26 -5 -55 -10z"/>
</g>
</g>
  <g id="id1:id1" transform="matrix(1.25,0,0,1.25,0.0,0.0)"><g transform="translate(0.000000,737.600000) scale(0.040000,-0.040000)" fill="#000000" stroke="none">
<path d="M17810 15279 c0 -9 9 -45 20 -79 18 -55 20 -90 20 -300 0 -131 -3 -246 -6 -254 -4 -9 -40 -46 -82 -81 l-75 -65 -91 0 -91 -1 39 -34 c89 -79 219 -73 320 15 69 61 71 69 71 320 0 245 -3 264 -60 385 -38 81 -64 119 -65 94z"/>
<path d="M13858 15163 c-7 -54 28 -2471 37 -2540 7 -47 -1 -68 -53 -130 -59 -73 -85 -83 -212 -86 l-111 -2 28 -23 c76 -64 182 -88 274 -62 53 15 113 72 139 131 l22 53 -17 970 c-9 534 -20 1115 -24 1292 l-7 321 -26 48 c-30 58 -44 66 -50 28z"/>
<path d="M15899 15163 c-26 -68 12 -173 64 -173 18 0 19 5 12 73 -9 102 -53 160 -76 100z"/>
<path d="M16491 15072 c-51 -16 -57 -49 -64 -331 -5 -239 -7 -263 -25 -288 -19 -27 -20 -53 -29 -487 -7 -327 -7 -468 1 -490 6 -17 11 -32 11 -33 0 0 17 -4 37 -8 l37 -7 3 434 c4 397 5 437 23 478 16 39 19 81 24 300 5 225 8 259 24 284 28 42 73 56 179 56 72 0 298 -20 372 -33 7 -1 11 17 11 43 l0 45 -65 7 c-36 4 -103 13 -150 19 -108 13 -357 20 -389 11z"/>
<path d="M17175 15020 c-14 -23 65 -130 96 -130 5 0 9 24 9 54 0 45 -4 58 -22 70 -25 18 -74 21 -83 6z"/>
<path d="M16169 14933 c-20 -5 -41 -80 -43 -153 l-1 -54 32 -9 c55 -16 65 2 61 105 -3 90 -16 119 -49 111z"/>
<path d="M13435 14770 c-4 -6 -9 -53 -12 -104 -5 -83 -4 -97 14 -122 11 -16 26 -47 33 -69 32 -101 46 -122 74 -112 12 5 10 17 -11 69 -20 49 -28 90 -34 185 -4 67 -13 131 -19 143 -11 21 -35 27 -45 10z"/>
<path d="M17920 13661 c-5 -11 -10 -84 -10 -166 l0 -146 -25 -23 c-14 -13 -25 -29 -25 -35 0 -7 -7 -26 -16 -43 -9 -18 -24 -59 -34 -92 -26 -92 -53 -144 -118 -231 -109 -146 -281 -295 -398 -345 -39 -17 -69 -20 -195 -20 -134 0 -153 -2 -177 -20 -17 -12 -55 -24 -102 -30 -96 -12 -342 -13 -389 -1 -20 5 -61 15 -91 21 -30 7 -102 35 -160 63 -133 65 -132 64 -90 27 101 -89 223 -155 355 -192 69 -19 105 -22 270 -22 169 0 199 2 268 22 54 16 120 25 222 31 134 7 149 10 210 40 193 95 399 328 478 541 20 52 50 127 68 165 l33 70 1 155 0 155 -28 48 c-15 26 -30 47 -32 47 -2 0 -9 -9 -15 -19z"/>
<path d="M15205 13608 c-3 -13 -6 -68 -8 -123 l-2 -100 -490 -5 c-269 -3 -491 -6 -492 -8 -11 -9 1 -43 23 -63 l26 -24 456 -3 c310 -2 469 0 494 8 56 16 68 48 68 172 0 108 -9 136 -50 158 -16 9 -20 7 -25 -12z"/>
<path d="M16390 13331 c0 -16 -7 -34 -15 -41 -24 -20 -19 -31 45 -100 l59 -65 1 33 c0 37 13 66 43 99 31 35 12 65 -55 86 -73 23 -78 22 -78 -12z"/>
<path d="M15680 13330 c0 -5 5 -10 10 -10 6 0 10 5 10 10 0 6 -4 10 -10 10 -5 0 -10 -4 -10 -10z"/>
<path d="M15700 13275 c0 -8 4 -23 9 -33 5 -9 16 -32 23 -49 7 -18 16 -33 20 -33 11 0 10 6 -4 33 -24 46 -28 57 -28 71 0 8 -4 18 -10 21 -5 3 -10 -1 -10 -10z"/>
<path d="M15991 10664 c-23 -29 -27 -48 -10 -42 15 5 53 68 41 68 -6 0 -20 -12 -31 -26z"/>
<path d="M16700 10395 c-10 -12 -10 -28 0 -78 18 -86 24 -95 56 -89 l27 5 -6 54 c-5 50 -39 123 -57 123 -4 0 -13 -7 -20 -15z"/>
<path d="M18276 10375 c-3 -9 -6 -38 -6 -64 0 -56 -12 -75 -86 -132 l-57 -44 -341 -5 -341 -5 -8 -215 c-4 -118 -7 -253 -7 -300 1 -47 3 -458 6 -915 5 -962 11 -896 -87 -984 -33 -29 -82 -62 -110 -72 -60 -23 -151 -25 -209 -4 -24 8 -45 13 -48 11 -2 -3 24 -25 57 -50 160 -117 369 -73 459 98 l27 51 -1 815 c0 448 -2 865 -4 925 -5 150 14 465 28 492 25 45 42 48 347 53 l291 5 48 25 c27 14 63 42 80 63 29 37 31 44 31 122 0 69 -4 88 -21 111 -25 34 -40 40 -48 19z"/>
<path d="M20550 10342 c0 -6 9 -35 21 -64 49 -123 50 -130 47 -310 l-3 -172 -70 -59 -70 -59 -112 4 -111 3 31 -27 c60 -52 116 -73 192 -73 59 0 78 5 117 28 98 57 124 130 115 312 -6 120 -24 190 -82 307 -35 71 -75 129 -75 110z"/>
<path d="M14977 10138 c4 -67 9 -86 25 -100 27 -24 58 -23 58 2 0 69 -49 180 -80 180 -4 0 -6 -37 -3 -82z"/>
<path d="M15511 10193 c-1 -17 3 -34 8 -37 14 -9 22 -162 21 -456 -1 -424 -18 -1057 -29 -1120 -5 -30 -15 -95 -22 -145 -34 -265 -98 -416 -243 -576 -28 -30 -67 -77 -86 -104 -19 -27 -62 -69 -95 -93 -121 -87 -106 -82 -256 -82 -106 0 -149 -4 -195 -19 -32 -10 -106 -33 -164 -51 -58 -17 -115 -35 -127 -40 -13 -5 -133 -10 -268 -10 -232 -1 -247 0 -274 19 -16 12 -32 21 -36 21 -4 0 -27 14 -52 30 -24 17 -47 30 -50 30 -3 0 -72 45 -154 100 -83 55 -153 100 -156 100 -51 0 462 -348 569 -386 30 -10 94 -14 252 -13 229 0 215 -2 466 73 107 32 146 38 265 45 113 6 148 11 181 28 67 36 138 98 216 189 226 267 254 336 313 759 21 148 41 1325 25 1430 -10 63 -34 140 -90 290 -17 47 -19 48 -19 18z"/>
<path d="M16986 10198 c-10 -40 -7 -57 18 -80 14 -13 37 -54 51 -93 15 -38 31 -79 35 -90 4 -11 19 -49 33 -85 16 -41 31 -66 42 -69 28 -5 14 52 -44 184 -28 62 -51 122 -51 133 0 40 -13 81 -32 101 -25 27 -44 27 -52 -1z"/>
<path d="M12250 10200 c1 -17 28 -56 34 -49 3 3 -4 18 -14 34 -11 17 -20 23 -20 15z"/>
<path d="M19610 10130 c-14 -4 -52 -8 -85 -9 -61 -1 -123 -14 -161 -32 -28 -14 -114 -159 -114 -192 0 -17 11 -32 40 -51 45 -29 70 -33 70 -11 0 29 38 91 78 127 27 25 56 39 93 47 74 16 221 31 311 31 l77 0 -5 38 c-3 20 -7 43 -10 50 -4 14 -251 16 -294 2z"/>
<path d="M15295 10086 c3 -27 10 -58 15 -70 4 -11 13 -41 20 -66 7 -25 16 -53 21 -62 5 -10 9 -29 9 -42 0 -14 5 -28 10 -31 6 -3 10 -17 10 -31 0 -13 5 -24 11 -24 9 0 10 27 5 98 -8 110 -43 216 -84 254 l-25 23 8 -49z"/>
<path d="M20000 10086 c14 -13 36 -27 50 -31 23 -7 24 -6 11 9 -15 17 -63 46 -78 46 -4 0 4 -11 17 -24z"/>
<path d="M16136 10069 c29 -32 99 -78 143 -94 21 -7 83 -15 137 -16 l99 -3 0 49 0 50 -170 5 c-109 3 -178 9 -192 18 -32 18 -39 15 -17 -9z"/>
<path d="M13472 10068 c3 -7 15 -14 29 -16 l24 -3 -19 16 c-24 18 -39 20 -34 3z"/>
<path d="M12353 10045 c31 -109 57 -251 77 -415 17 -141 14 -160 -28 -226 -21 -32 -48 -84 -60 -114 -13 -30 -49 -92 -82 -138 -93 -129 -91 -118 -32 -174 57 -54 72 -59 72 -24 0 13 23 59 51 102 29 44 78 132 110 198 55 110 59 124 59 189 0 150 -54 424 -101 514 -34 65 -75 119 -66 88z"/>
<path d="M16585 10040 c-7 -12 22 -109 41 -134 9 -13 20 -17 37 -12 27 6 37 37 37 112 l0 44 -54 0 c-30 0 -58 -4 -61 -10z"/>
<path d="M14435 9993 c8 -60 18 -71 38 -42 16 23 14 33 -16 72 -23 28 -30 20 -22 -30z"/>
<path d="M13827 10003 c-11 -10 -7 -108 7 -213 13 -100 19 -108 60 -72 16 15 18 27 13 94 -8 101 -56 215 -80 191z"/>
<path d="M14156 10001 l-49 -6 -14 -50 c-8 -27 -18 -95 -21 -150 -8 -121 -22 -147 -92 -170 -27 -9 -67 -29 -89 -46 -23 -16 -46 -29 -53 -29 -23 -1 61 -70 84 -70 54 0 173 87 182 134 3 11 7 46 10 77 5 62 40 141 79 177 27 25 91 45 118 36 23 -6 30 18 18 60 l-10 36 -44 0 c-24 0 -49 2 -57 3 -7 2 -35 1 -62 -2z"/>
<path d="M10945 9991 l-30 -6 -9 -84 c-9 -82 -6 -104 24 -221 5 -19 12 -48 15 -63 7 -33 31 -45 50 -26 11 11 13 30 6 88 -10 100 0 159 32 187 34 29 144 39 358 32 172 -6 176 -5 163 50 -13 51 -8 50 -302 49 -152 0 -290 -3 -307 -6z"/>
<path d="M14603 9892 c-32 -28 -45 -49 -55 -87 -7 -27 -20 -62 -30 -77 l-18 -26 26 -21 c47 -37 72 -24 123 62 13 20 27 37 33 37 11 0 1 105 -14 133 -12 23 -17 22 -65 -21z"/>
<path d="M11640 9880 c0 -19 11 -64 23 -100 21 -60 25 -65 55 -68 27 -3 32 0 32 19 0 12 -17 42 -37 67 -20 24 -45 61 -55 80 l-18 36 0 -34z"/>
<path d="M13695 9868 c-46 -25 -45 -5 -45 -714 l0 -671 21 -27 c12 -15 30 -26 45 -26 l24 0 2 558 c1 306 1 571 -1 587 -2 17 -4 90 -5 164 -1 80 -5 135 -11 137 -5 2 -19 -2 -30 -8z"/>
<path d="M14826 9600 c3 -30 10 -63 15 -72 5 -9 9 -27 9 -40 0 -26 36 -128 51 -142 12 -13 12 18 0 42 -5 9 -14 35 -19 57 -6 22 -18 64 -26 94 -9 29 -16 61 -16 70 0 9 -5 23 -11 31 -7 11 -8 -1 -3 -40z"/>
<path d="M19480 9634 c0 -3 12 -16 28 -27 15 -12 46 -39 69 -60 39 -36 42 -37 48 -18 11 34 -4 60 -49 86 -39 23 -96 34 -96 19z"/>
<path d="M10961 9501 c-21 -6 -23 -12 -25 -71 -2 -36 -6 -84 -11 -108 -7 -38 -4 -48 24 -93 26 -43 31 -60 31 -114 l0 -64 31 -17 c48 -24 54 -8 30 78 -36 127 -24 227 35 297 19 21 34 42 34 46 0 3 -12 17 -27 30 -28 25 -71 30 -122 16z"/>
<path d="M19030 9132 c0 -28 245 -164 371 -206 26 -8 100 -18 165 -22 80 -4 133 -12 162 -25 l42 -18 0 19 c0 13 -25 36 -75 70 l-74 50 -125 0 c-134 0 -165 7 -312 75 -78 36 -145 65 -150 65 -2 0 -4 -4 -4 -8z"/>
<path d="M20620 8967 c0 -12 9 -47 20 -77 17 -46 20 -80 20 -211 0 -285 -57 -555 -163 -768 -46 -94 -101 -144 -240 -219 l-58 -32 -169 0 c-180 0 -184 -1 -270 -59 -64 -44 -176 -60 -440 -64 l-185 -2 -53 29 c-29 16 -55 26 -58 23 -7 -6 106 -87 162 -116 67 -35 142 -42 329 -31 204 12 244 20 359 72 l88 40 162 7 c109 5 172 12 196 23 60 26 152 89 195 134 106 108 198 394 226 696 16 174 8 303 -26 408 -40 128 -95 212 -95 147z"/>
<path d="M11167 8792 c-60 -18 -78 -29 -82 -45 -3 -12 -4 -103 -3 -202 l3 -180 28 -3 c17 -2 37 4 48 14 17 15 19 32 19 129 0 100 2 115 22 140 42 54 127 68 266 44 71 -13 89 -5 94 41 3 22 -2 25 -37 31 -67 11 -157 29 -221 42 -56 12 -66 11 -137 -11z"/>
<path d="M19876 8812 c-10 -16 25 -110 49 -132 28 -26 29 -23 19 53 -8 58 -50 107 -68 79z"/>
<path d="M10360 8767 c0 -23 25 -64 45 -74 50 -23 21 41 -32 71 -7 4 -13 5 -13 3z"/>
<path d="M12423 8728 c3 -18 11 -53 17 -78 7 -25 13 -88 15 -141 1 -53 8 -141 15 -196 10 -77 10 -111 1 -146 -6 -25 -11 -55 -11 -66 0 -12 -22 -58 -50 -104 -27 -46 -50 -89 -50 -97 0 -25 -76 -112 -149 -171 -86 -70 -145 -102 -221 -118 -30 -7 -69 -17 -86 -22 -17 -5 -179 -9 -360 -10 -181 0 -450 -4 -599 -8 -242 -7 -276 -5 -325 10 -30 10 -58 15 -63 12 -14 -9 41 -51 113 -86 l65 -32 155 -3 c85 -2 369 1 630 6 420 9 483 12 545 29 109 30 190 78 280 168 69 69 89 97 142 201 75 148 80 183 63 437 -13 201 -40 325 -84 402 -32 53 -50 59 -43 13z"/>
<path d="M11632 8701 c-16 -52 -16 -55 14 -90 l25 -31 39 20 c22 11 46 20 54 20 18 0 50 56 42 75 -5 14 -99 45 -138 45 -20 0 -27 -8 -36 -39z"/>
<path d="M19150 8498 c0 -20 46 -115 60 -123 25 -16 21 7 -14 69 -37 66 -46 77 -46 54z"/>
<path d="M13730 8326 c0 -7 9 -25 20 -39 20 -25 20 -68 -2 -109 -6 -12 4 -48 34 -120 47 -116 57 -131 77 -118 13 7 13 14 0 52 -19 58 -16 180 7 230 l17 38 -23 25 c-13 14 -31 25 -39 25 -9 0 -29 7 -45 15 -35 19 -46 19 -46 1z"/>
<path d="M11128 8283 c-29 -3 -39 -9 -42 -26 -3 -12 -8 -35 -11 -52 -4 -16 -9 -53 -12 -80 -5 -58 11 -80 65 -91 l32 -6 0 31 c0 37 21 81 61 131 16 19 29 39 29 46 0 18 -45 54 -66 52 -10 -1 -36 -3 -56 -5z"/>
<path d="M19220 8278 c0 -20 66 -87 95 -98 39 -15 53 -12 60 11 10 30 -29 66 -89 84 -60 18 -66 18 -66 3z"/>
<path d="M14094 7915 c4 -16 7 -79 7 -138 -1 -59 1 -111 3 -116 3 -5 20 -6 38 -2 l33 7 3 61 c2 50 -2 73 -26 125 -16 35 -37 70 -47 78 -17 14 -18 13 -11 -15z"/>
<path d="M7193 4678 c-4 -7 -10 -436 -13 -953 l-5 -940 -232 -5 c-127 -3 -234 -8 -238 -11 -3 -4 5 -20 19 -35 l24 -29 209 -3 c229 -4 273 3 301 45 16 25 17 88 20 878 2 467 0 888 -3 934 -6 70 -11 88 -31 107 -26 27 -39 30 -51 12z"/>
<path d="M9914 4644 c5 -41 236 -986 252 -1034 9 -26 26 16 31 78 4 49 -12 121 -106 495 -61 240 -118 449 -127 462 -9 14 -26 31 -37 37 l-20 10 7 -48z"/>
<path d="M11650 4687 c0 -1 -9 -27 -19 -57 -11 -30 -29 -91 -41 -135 -12 -44 -28 -102 -35 -130 -8 -27 -21 -76 -29 -107 -9 -32 -23 -83 -31 -113 -8 -30 -22 -81 -31 -112 -8 -32 -22 -82 -30 -110 -8 -29 -21 -79 -30 -110 -8 -32 -22 -83 -30 -113 -9 -30 -22 -80 -30 -110 -42 -154 -69 -251 -84 -305 -5 -16 -18 -66 -30 -110 -12 -44 -25 -93 -30 -110 -9 -30 -37 -136 -62 -230 l-13 -50 -150 -6 c-82 -3 -151 -7 -153 -7 -1 -1 5 -13 14 -27 22 -34 70 -45 194 -45 125 0 165 15 193 72 19 38 507 1817 507 1848 0 26 -38 70 -61 70 -10 0 -19 -1 -19 -3z"/>
<path d="M12767 4677 c-3 -9 -1 -32 5 -54 5 -21 14 -56 20 -78 6 -22 14 -51 18 -65 4 -14 13 -45 20 -70 7 -25 17 -58 21 -75 5 -16 23 -79 39 -140 32 -116 47 -171 61 -220 5 -16 23 -79 39 -140 46 -169 52 -188 60 -215 4 -14 13 -45 20 -70 7 -25 16 -56 20 -70 4 -14 18 -63 30 -110 12 -47 26 -96 30 -110 4 -14 13 -43 19 -65 6 -22 29 -105 51 -185 22 -80 45 -160 51 -177 5 -18 7 -37 4 -43 -4 -6 -94 -10 -238 -11 -128 0 -240 -4 -250 -8 -17 -6 -16 -8 5 -28 40 -38 73 -43 272 -43 244 0 276 10 276 86 0 15 -99 383 -221 818 -296 1063 -286 1029 -319 1061 -22 21 -29 23 -33 12z"/>
<path d="M16728 4688 c-2 -2 -5 -430 -8 -953 l-5 -950 -237 -5 c-130 -3 -240 -9 -244 -13 -4 -4 4 -20 19 -35 l27 -27 220 -3 c236 -3 264 2 292 51 10 17 14 208 16 892 2 479 0 899 -3 934 -5 48 -13 70 -30 87 -21 21 -40 29 -47 22z"/>
<path d="M19982 4678 c-13 -17 -62 -126 -62 -138 0 -6 -4 -18 -9 -28 -12 -24 -23 -51 -71 -177 -23 -60 -46 -119 -50 -130 -40 -98 -110 -282 -110 -288 0 -4 -8 -26 -19 -50 -10 -23 -38 -91 -61 -152 -41 -108 -49 -129 -67 -170 -4 -11 -10 -186 -13 -390 l-5 -370 -232 -5 c-127 -3 -235 -9 -239 -13 -4 -4 4 -20 19 -35 l27 -27 208 -3 c223 -4 273 3 294 41 10 16 14 114 18 362 l5 340 62 160 c34 88 103 266 153 395 181 466 230 600 230 628 0 47 -53 80 -78 50z"/>
<path d="M22488 4688 c-2 -2 -5 -430 -8 -953 l-5 -950 -232 -5 c-127 -3 -234 -8 -238 -12 -13 -12 15 -46 46 -57 43 -15 415 -15 458 0 64 22 61 -25 61 989 0 978 1 966 -45 984 -17 6 -33 8 -37 4z"/>
<path d="M10860 4648 c0 -17 4 -45 10 -62 5 -17 28 -107 50 -201 22 -93 45 -186 50 -205 19 -71 129 -526 132 -545 2 -11 10 -20 18 -20 11 0 17 16 22 55 6 48 -6 106 -103 499 -65 265 -118 458 -130 478 -27 43 -49 43 -49 1z"/>
<path d="M19067 4674 c-6 -6 24 -93 61 -175 12 -25 30 -70 42 -99 12 -29 30 -72 40 -95 10 -23 29 -66 40 -96 12 -29 32 -76 44 -104 12 -27 42 -98 67 -157 24 -59 47 -108 51 -108 3 0 9 14 13 30 7 30 -67 217 -259 660 -43 98 -84 159 -99 144z"/>
<path d="M23783 4643 c3 -21 10 -56 17 -78 6 -22 15 -56 20 -75 8 -33 19 -73 41 -150 6 -19 15 -51 20 -70 6 -19 15 -51 20 -70 6 -19 14 -51 19 -70 5 -19 13 -51 19 -70 5 -19 15 -52 20 -72 6 -21 15 -53 20 -70 5 -18 19 -69 31 -113 12 -44 25 -93 30 -110 5 -16 14 -48 20 -70 6 -22 15 -55 21 -72 20 -72 31 -110 39 -143 8 -33 13 -52 40 -145 6 -19 15 -51 20 -70 6 -19 15 -52 21 -72 6 -21 13 -49 15 -63 3 -14 9 -34 14 -45 5 -11 11 -31 14 -45 2 -14 9 -41 15 -60 22 -76 30 -114 25 -122 -3 -4 -110 -8 -237 -8 -130 0 -239 -5 -247 -10 -13 -8 -11 -14 13 -37 l27 -28 234 0 c216 0 235 1 255 19 40 36 64 -61 -323 1329 -86 307 -160 566 -166 577 -13 25 -39 50 -52 50 -6 0 -8 -15 -5 -37z"/>
<path d="M8270 4644 c-129 -49 -165 -122 -201 -404 -16 -126 -16 -784 0 -905 23 -180 34 -231 64 -288 27 -52 74 -104 84 -93 2 2 -6 32 -17 67 -42 124 -54 274 -54 679 0 508 21 664 104 779 42 58 100 85 178 85 70 -1 73 6 20 49 -30 24 -48 30 -100 33 -35 2 -70 1 -78 -2z"/>
<path d="M15180 4641 c-92 -19 -155 -77 -209 -192 -72 -155 -98 -313 -107 -664 -6 -212 -1 -303 27 -440 32 -161 106 -311 169 -345 14 -8 11 5 -15 58 -73 150 -100 346 -92 672 10 389 64 619 174 741 80 89 193 114 333 73 l25 -7 -29 31 c-16 17 -47 40 -70 50 -47 22 -154 34 -206 23z"/>
<path d="M18455 4590 c-4 -6 -95 -10 -241 -10 l-234 0 -2 -897 -3 -898 -260 -6 c-143 -3 -261 -6 -263 -7 -10 -7 35 -52 60 -61 42 -15 445 -15 487 0 63 22 61 -13 61 871 0 505 4 816 10 839 20 71 29 74 247 77 l194 4 -7 31 c-11 54 -35 80 -49 57z"/>
<path d="M16976 4571 c-17 -7 -17 -9 7 -37 l25 -29 168 -3 c181 -4 184 -3 184 51 l0 27 -182 -1 c-101 0 -191 -4 -202 -8z"/>
<path d="M15770 4542 c0 -6 6 -29 14 -49 19 -53 35 -134 45 -227 l7 -78 -60 -29 c-91 -43 -102 -53 -88 -84 24 -53 119 -40 184 25 35 35 38 42 38 97 0 77 -22 161 -65 249 -32 66 -75 121 -75 96z"/>
<path d="M9070 4488 c0 -4 13 -35 29 -70 126 -272 157 -666 82 -1028 -27 -131 -99 -281 -180 -377 -164 -195 -464 -296 -783 -263 -105 11 -280 50 -320 71 -29 16 -32 10 -5 -11 43 -34 167 -88 252 -111 57 -15 123 -22 230 -26 347 -12 585 85 748 306 139 188 207 519 179 869 -19 234 -58 377 -144 524 -37 65 -87 131 -88 116z"/>
<path d="M12271 4233 c-19 -68 -52 -184 -61 -213 -4 -14 -13 -45 -20 -70 -7 -25 -16 -56 -20 -70 -4 -14 -13 -45 -20 -70 -7 -25 -16 -56 -20 -70 -4 -14 -13 -45 -20 -70 -7 -25 -16 -56 -20 -70 -4 -14 -13 -45 -20 -70 -7 -25 -16 -55 -21 -68 -15 -38 -11 -42 35 -42 55 0 76 8 76 27 0 20 146 525 165 570 17 40 19 77 6 119 -5 16 -15 55 -22 87 -6 31 -15 57 -18 57 -4 0 -13 -21 -20 -47z"/>
<path d="M23286 4238 c-2 -7 -9 -33 -16 -58 -7 -25 -16 -56 -20 -70 -4 -14 -13 -45 -20 -70 -7 -25 -16 -56 -20 -70 -4 -14 -13 -45 -20 -70 -6 -25 -16 -53 -21 -62 -5 -10 -9 -27 -9 -38 0 -11 -4 -28 -9 -38 -5 -9 -15 -37 -21 -62 -7 -25 -16 -56 -20 -70 -4 -14 -13 -45 -20 -70 -7 -25 -16 -55 -21 -68 -5 -13 -9 -34 -9 -47 0 -23 4 -25 43 -25 23 0 47 4 53 8 6 4 46 128 88 276 43 148 84 283 93 299 11 23 13 46 8 98 -4 38 -11 72 -16 75 -5 3 -9 21 -9 40 0 24 -5 34 -15 34 -9 0 -17 -6 -19 -12z"/>
<path d="M10450 3803 c-10 -37 -22 -81 -35 -133 -3 -14 -15 -59 -26 -100 -11 -41 -24 -91 -29 -110 -5 -19 -23 -89 -40 -155 -17 -66 -35 -136 -40 -155 -5 -19 -18 -71 -30 -115 -12 -44 -25 -96 -30 -115 -5 -19 -14 -57 -22 -85 l-13 -50 -147 -5 c-80 -3 -149 -8 -152 -11 -11 -11 44 -56 75 -63 18 -3 77 -6 133 -6 119 0 162 16 188 70 9 19 61 202 114 405 53 204 102 390 109 415 10 37 10 58 -1 115 -8 39 -17 85 -20 103 -9 42 -20 41 -34 -5z"/>
<path d="M15926 3438 c-2 -7 -10 -56 -16 -108 -20 -158 -62 -259 -149 -352 -46 -51 -158 -138 -175 -138 -3 0 -35 -13 -71 -30 -36 -16 -74 -30 -84 -30 -10 0 -31 -4 -47 -9 -16 -6 -83 -15 -148 -20 -175 -15 -347 5 -509 61 -32 11 -60 18 -63 16 -9 -10 146 -88 221 -111 122 -38 230 -51 384 -44 162 6 271 31 386 87 140 69 251 181 296 300 53 139 63 303 23 357 -24 32 -42 40 -48 21z"/>
<path d="M22995 3208 c-8 -5 -15 -15 -15 -22 0 -7 -9 -42 -20 -77 -11 -35 -25 -82 -31 -104 -6 -22 -15 -51 -19 -65 -4 -14 -13 -45 -20 -70 -23 -86 -24 -87 -79 -92 -59 -6 -64 -9 -55 -32 8 -21 56 -46 89 -46 40 0 92 26 110 54 10 15 36 88 59 164 43 139 64 184 94 199 9 4 123 10 252 13 l235 5 3 33 c2 20 -2 34 -10 36 -26 9 -578 12 -593 4z"/>
<path d="M11972 3183 c-10 -25 -48 -152 -73 -243 -11 -38 -22 -77 -36 -125 -9 -27 -15 -31 -62 -36 -29 -4 -54 -9 -57 -12 -3 -3 5 -17 18 -31 44 -51 145 -41 183 18 10 15 37 90 61 168 34 112 49 148 73 172 l31 31 240 3 c262 3 250 0 234 60 l-6 22 -298 0 -298 0 -10 -27z"/>
<path d="M20657 3031 c7 -131 -1 -184 -43 -307 -42 -120 -111 -202 -243 -290 -60 -40 -70 -57 -47 -83 11 -12 31 -21 46 -21 43 0 128 49 197 113 124 116 178 262 171 466 -3 106 -6 121 -32 169 -52 93 -56 88 -49 -47z"/>
<path d="M20312 2771 c-10 -6 -7 -12 12 -24 24 -16 26 -16 35 2 6 10 7 21 4 25 -9 8 -35 7 -51 -3z"/>
</g>
</g>
</svg>
