<svg xmlns="http://www.w3.org/2000/svg" version="1.0" width="2836.000000pt" height="2836.000000pt" viewBox="0 0 2836.000000 2836.000000" preserveAspectRatio="xMidYMid meet">
  <g transform="translate(0.000000,2836.000000) scale(0.100000,-0.100000)" stroke="none">
    <path d="M 0 0 H 28360.0 V 28360.0 H 0 Z" fill="#ffffff" id="background"/>
    <path stroke="none" d="M8015 27628 c-22 -6 -48 -14 -57 -19 -10 -5 -51 -9 -92 -9 -52 0 -88 -6 -121 -20 -26 -11 -64 -20 -85 -20 -21 0 -59 -9 -85 -20 -26 -11 -60 -20 -76 -20 -15 0 -44 -9 -64 -20 -20 -11 -45 -20 -55 -20 -11 0 -28 -4 -38 -9 -9 -5 -55 -24 -102 -41 -113 -42 -137 -53 -330 -150 -90 -45 -183 -95 -206 -111 -24 -16 -46 -29 -49 -29 -6 0 -124 -80 -200 -135 -244 -177 -308 -231 -518 -445 -195 -197 -271 -280 -314 -345 -22 -33 -50 -69 -62 -79 -11 -11 -21 -24 -21 -30 0 -6 -13 -26 -29 -45 -16 -19 -35 -46 -42 -60 -8 -14 -30 -52 -51 -83 -21 -31 -38 -60 -38 -63 0 -4 -8 -19 -18 -33 -26 -37 -87 -152 -210 -392 -179 -352 -212 -408 -404 -682 -131 -187 -553 -614 -709 -718 -21 -14 -71 -49 -111 -78 -108 -79 -242 -162 -338 -212 -47 -24 -98 -51 -115 -61 -16 -10 -113 -59 -215 -109 -102 -50 -192 -95 -200 -101 -8 -5 -26 -15 -40 -21 -14 -7 -44 -25 -67 -40 -23 -15 -44 -28 -47 -28 -4 0 -162 -103 -262 -171 -216 -146 -580 -496 -754 -724 -29 -38 -65 -83 -80 -100 -49 -54 -196 -281 -272 -420 -27 -49 -152 -301 -168 -340 -69 -164 -90 -218 -90 -231 0 -8 -9 -34 -20 -56 -11 -23 -20 -57 -20 -75 0 -19 -9 -51 -20 -73 -11 -22 -20 -59 -20 -84 0 -28 -8 -58 -20 -78 -15 -25 -20 -51 -20 -103 0 -45 -7 -90 -20 -125 -19 -51 -20 -80 -20 -441 0 -358 1 -390 20 -445 11 -32 20 -86 20 -119 0 -35 8 -83 20 -115 11 -30 20 -74 20 -98 0 -24 9 -62 20 -84 11 -23 20 -51 20 -63 0 -11 9 -45 20 -75 11 -30 20 -65 20 -78 0 -13 7 -36 15 -51 8 -16 26 -64 41 -107 14 -44 34 -97 44 -119 11 -22 29 -67 41 -100 28 -77 212 -451 261 -532 21 -35 38 -65 38 -68 0 -3 23 -39 50 -80 28 -41 50 -77 50 -80 0 -7 106 -163 172 -252 29 -40 75 -103 103 -140 27 -37 88 -111 135 -163 47 -52 93 -106 102 -120 26 -41 319 -339 418 -425 51 -44 136 -118 190 -165 151 -132 400 -320 571 -433 128 -84 326 -207 332 -207 3 0 34 -17 68 -38 89 -54 467 -242 486 -242 8 0 32 -9 52 -19 62 -33 130 -61 146 -61 9 0 33 -9 55 -20 22 -11 49 -20 60 -20 11 0 38 -9 60 -20 22 -11 51 -20 64 -20 14 0 40 -9 58 -20 23 -14 51 -20 89 -20 31 0 59 -3 63 -7 15 -16 85 -33 133 -33 29 0 76 -9 105 -20 37 -14 77 -20 134 -20 57 0 91 -5 115 -17 24 -12 69 -19 149 -23 63 -4 129 -12 145 -20 17 -8 88 -16 170 -20 78 -4 164 -15 195 -24 38 -11 94 -16 190 -16 75 0 140 -4 145 -9 21 -19 123 -31 268 -31 100 0 157 -4 164 -11 16 -16 66 -20 283 -26 107 -3 190 -9 198 -15 17 -15 65 -19 312 -27 133 -5 228 -12 250 -20 24 -9 118 -15 290 -18 195 -4 266 -8 300 -20 36 -13 107 -17 340 -20 231 -4 305 -8 340 -20 36 -12 113 -17 375 -21 246 -3 337 -8 356 -18 16 -8 84 -15 180 -19 85 -4 163 -10 174 -15 179 -77 234 -115 295 -204 33 -49 33 -51 34 -165 1 -116 1 -116 -33 -164 -46 -67 -103 -107 -211 -150 -14 -5 -33 -13 -42 -18 -10 -5 -276 -9 -592 -9 -513 0 -578 2 -612 17 -36 15 -147 16 -1324 17 -1051 0 -1294 -3 -1335 -14 -35 -9 -162 -16 -425 -21 -388 -8 -481 -13 -515 -29 -11 -6 -92 -11 -180 -13 -88 -2 -182 -10 -210 -17 -27 -6 -93 -15 -145 -20 -52 -4 -113 -13 -135 -20 -22 -7 -62 -14 -90 -17 -27 -2 -69 -13 -92 -24 -24 -10 -52 -19 -64 -19 -22 0 -120 -29 -203 -61 -27 -11 -58 -19 -70 -19 -12 0 -26 -4 -32 -9 -5 -5 -34 -18 -64 -29 -186 -68 -274 -105 -342 -142 -20 -11 -42 -20 -48 -20 -20 0 -386 -185 -455 -230 -22 -14 -62 -37 -90 -50 -27 -13 -69 -37 -92 -52 -23 -15 -45 -28 -50 -28 -4 -1 -24 -14 -43 -30 -19 -17 -38 -30 -42 -30 -8 0 -168 -107 -208 -139 -14 -11 -29 -21 -34 -21 -5 0 -32 -17 -60 -39 -28 -21 -67 -49 -86 -62 -49 -33 -285 -223 -350 -282 -19 -18 -53 -45 -75 -62 -77 -56 -419 -401 -535 -540 -65 -77 -126 -149 -137 -160 -10 -11 -29 -36 -43 -55 -13 -19 -27 -37 -30 -40 -22 -21 -250 -344 -250 -355 0 -4 -15 -30 -33 -58 -75 -117 -100 -160 -184 -327 -89 -177 -104 -208 -149 -322 -14 -35 -32 -76 -39 -93 -12 -28 -27 -70 -70 -190 -9 -27 -21 -66 -25 -85 -4 -19 -15 -55 -24 -79 -9 -24 -16 -54 -16 -66 0 -13 -9 -44 -20 -70 -12 -27 -20 -69 -20 -101 0 -34 -7 -66 -19 -88 -15 -27 -21 -60 -24 -148 -2 -62 -10 -135 -17 -163 -21 -79 -19 -466 3 -525 11 -30 17 -76 17 -137 0 -68 5 -107 20 -145 11 -29 20 -72 20 -96 0 -23 9 -60 20 -82 11 -22 20 -44 20 -51 0 -6 9 -22 20 -36 11 -14 20 -37 20 -50 0 -13 7 -38 17 -56 9 -18 20 -45 24 -62 24 -98 152 -381 262 -580 50 -89 234 -364 272 -405 18 -19 56 -66 85 -105 52 -69 257 -286 355 -376 134 -123 390 -301 660 -459 112 -65 324 -206 360 -239 17 -16 66 -55 110 -89 44 -33 127 -109 185 -169 106 -110 315 -358 337 -401 7 -13 26 -40 41 -60 37 -48 103 -146 136 -203 43 -74 156 -297 156 -308 0 -6 12 -36 26 -68 31 -67 82 -204 94 -248 4 -16 15 -47 24 -69 9 -21 16 -45 16 -52 0 -7 17 -55 39 -106 21 -51 49 -120 61 -153 27 -69 133 -291 184 -382 52 -94 219 -340 287 -424 33 -41 79 -99 101 -129 50 -66 377 -399 416 -423 15 -9 50 -37 77 -63 28 -25 74 -63 103 -85 28 -21 77 -58 108 -81 30 -24 67 -50 82 -59 15 -9 83 -52 152 -95 124 -78 444 -244 472 -244 8 0 33 -9 56 -20 22 -11 48 -20 57 -20 9 0 33 -9 55 -20 22 -11 50 -20 64 -20 14 0 41 -9 61 -20 20 -11 48 -20 63 -20 15 0 52 -9 82 -20 30 -11 73 -20 95 -20 22 0 65 -9 95 -20 42 -15 80 -20 161 -20 75 0 115 -4 135 -15 41 -21 430 -21 489 0 25 9 79 15 147 15 84 0 116 4 153 20 29 12 69 20 105 20 36 0 76 8 105 20 26 11 62 20 80 20 18 0 54 9 80 20 26 11 58 20 71 20 13 0 43 8 67 18 52 23 132 52 172 62 36 9 104 35 162 61 85 39 129 59 172 76 87 35 341 168 408 214 23 16 44 29 48 29 3 0 85 53 183 118 187 125 299 209 442 332 48 41 122 104 163 139 104 87 468 457 546 556 35 44 85 103 111 130 49 51 209 261 313 408 77 110 237 348 237 354 0 2 14 24 30 48 17 24 30 46 30 49 0 4 63 114 126 221 22 37 170 335 213 430 49 105 61 136 61 150 0 8 9 29 20 47 11 18 20 41 20 51 0 10 9 37 20 59 11 23 20 50 20 59 0 10 9 38 20 64 11 26 20 57 20 70 0 13 9 44 20 70 11 26 20 56 20 66 0 11 9 39 20 61 11 23 20 57 20 75 0 19 9 51 20 73 11 22 20 59 20 83 0 24 9 62 20 85 11 22 20 57 20 76 0 19 9 55 20 81 11 26 20 64 20 86 0 22 9 57 20 79 11 22 20 59 20 82 0 24 9 70 20 102 11 33 20 76 20 97 0 20 9 58 20 84 12 29 20 69 20 106 0 41 6 68 20 91 14 24 20 51 20 96 0 43 6 75 20 102 14 26 20 59 20 100 0 41 6 74 20 100 13 26 20 59 20 98 0 32 9 85 20 118 11 32 20 85 20 116 0 34 8 75 20 103 13 29 20 69 20 108 0 34 9 88 20 121 11 33 20 86 20 120 0 36 8 84 20 116 12 32 20 80 20 115 0 33 9 87 20 119 12 34 20 87 20 125 0 38 9 91 20 125 12 35 20 86 20 125 0 42 7 85 20 119 14 37 20 76 20 137 0 46 4 86 9 89 12 8 22 59 31 156 4 47 15 111 24 143 9 32 16 69 16 82 0 25 54 124 87 160 10 12 36 31 58 44 117 69 101 64 239 65 l128 1 44 -48 c25 -27 44 -59 44 -71 0 -13 9 -49 20 -82 26 -80 29 -354 3 -424 -12 -34 -17 -94 -20 -240 -2 -107 -8 -204 -13 -215 -18 -42 -22 -87 -29 -320 -5 -142 -13 -256 -20 -280 -9 -27 -15 -173 -20 -465 -5 -263 -12 -440 -19 -465 -8 -28 -12 -214 -12 -602 0 -459 3 -570 14 -605 11 -33 15 -133 19 -438 3 -326 6 -403 19 -440 12 -34 17 -98 20 -255 3 -172 7 -216 21 -244 14 -27 17 -63 17 -180 1 -118 4 -156 20 -201 14 -40 19 -82 20 -153 0 -95 14 -182 31 -202 5 -5 9 -57 9 -115 0 -80 5 -118 20 -160 14 -37 20 -80 20 -132 0 -54 6 -90 20 -123 14 -32 20 -69 20 -116 0 -45 7 -87 20 -121 12 -32 20 -77 20 -113 0 -35 8 -83 20 -115 11 -30 20 -75 20 -100 0 -43 18 -112 33 -126 4 -4 7 -35 7 -68 0 -43 6 -71 20 -94 13 -21 20 -50 20 -81 0 -27 9 -70 20 -96 11 -26 20 -62 20 -81 0 -18 9 -57 20 -86 11 -29 20 -67 20 -85 0 -17 9 -52 20 -78 11 -26 20 -62 20 -80 0 -18 9 -54 20 -80 11 -26 20 -61 20 -78 0 -18 9 -45 20 -62 11 -17 20 -47 20 -68 0 -21 9 -55 20 -77 11 -22 20 -51 20 -65 0 -14 9 -43 20 -65 11 -22 20 -49 20 -60 0 -11 9 -38 20 -60 11 -22 20 -53 20 -70 0 -17 9 -48 20 -70 11 -22 20 -49 20 -60 0 -12 7 -35 17 -53 9 -18 20 -45 24 -62 4 -16 18 -59 32 -95 25 -64 33 -85 69 -187 43 -123 61 -170 79 -204 10 -20 19 -45 19 -56 0 -11 3 -22 6 -26 7 -7 74 -159 74 -168 0 -4 18 -46 40 -93 22 -47 40 -89 40 -93 0 -13 158 -335 322 -655 l60 -118 1264 0 c1037 0 1264 2 1264 13 0 7 -14 26 -31 43 -17 16 -40 45 -52 64 -11 19 -42 63 -67 96 -25 34 -67 92 -95 129 -27 37 -61 84 -75 105 -29 43 -102 149 -181 263 -30 43 -58 86 -64 95 -5 9 -45 70 -87 134 -43 65 -78 120 -78 122 0 3 -18 32 -40 65 -23 34 -55 87 -72 119 -17 31 -49 86 -71 122 -55 89 -134 224 -170 290 -17 30 -41 73 -53 95 -27 46 -357 708 -417 835 -66 141 -117 256 -117 265 0 5 -20 50 -61 140 -38 84 -128 318 -138 360 -5 17 -15 46 -23 65 -31 72 -57 137 -76 190 -10 30 -27 78 -37 105 -9 28 -21 64 -25 80 -9 34 -34 106 -61 179 -11 27 -19 56 -19 65 0 10 -9 36 -20 59 -11 22 -20 50 -20 62 0 12 -9 40 -20 62 -11 23 -20 56 -20 74 0 18 -9 53 -20 79 -11 26 -20 56 -20 66 0 11 -9 39 -20 61 -11 23 -20 57 -20 75 0 19 -9 53 -20 75 -11 23 -20 59 -20 79 0 21 -9 58 -20 84 -11 26 -20 62 -20 81 0 19 -9 54 -20 76 -11 23 -20 61 -20 85 0 24 -9 61 -20 83 -11 22 -20 56 -20 77 0 21 -9 63 -20 93 -11 30 -20 76 -20 103 0 28 -9 66 -20 89 -13 27 -20 62 -20 100 0 39 -7 72 -20 98 -14 27 -20 59 -20 104 0 42 -7 85 -20 118 -13 33 -20 77 -20 118 0 40 -8 86 -20 120 -14 38 -20 80 -20 135 0 56 -6 96 -20 133 -15 38 -20 77 -20 145 0 62 -6 107 -17 137 -11 28 -20 93 -24 170 -8 138 -17 197 -30 206 -5 3 -9 69 -9 147 0 94 -6 167 -16 217 -10 45 -20 155 -24 275 -8 205 -15 285 -30 320 -5 11 -11 175 -14 365 -4 235 -9 358 -18 385 -9 30 -13 188 -15 608 -3 546 -3 570 17 629 11 34 20 71 20 83 0 25 28 101 67 183 34 72 105 163 151 195 35 25 46 27 140 27 109 0 126 -5 185 -59 42 -38 97 -152 97 -201 0 -23 9 -60 20 -82 15 -32 20 -62 20 -125 0 -64 5 -93 20 -123 14 -28 20 -59 20 -109 0 -47 6 -84 20 -116 13 -30 20 -69 20 -110 0 -41 7 -80 20 -110 14 -32 20 -69 20 -118 0 -50 7 -85 20 -116 12 -27 20 -65 20 -100 0 -31 9 -80 20 -111 11 -30 20 -74 20 -98 0 -48 18 -132 31 -147 5 -5 9 -38 9 -75 0 -43 7 -80 20 -109 13 -27 20 -65 20 -102 0 -40 7 -73 20 -99 14 -27 20 -59 20 -102 0 -45 6 -72 20 -96 15 -24 20 -50 20 -100 0 -49 5 -76 20 -100 14 -23 20 -50 20 -93 0 -40 7 -74 20 -101 12 -24 20 -62 20 -90 0 -29 8 -66 20 -90 12 -26 20 -62 20 -95 0 -34 7 -68 20 -93 11 -22 20 -57 20 -79 0 -23 9 -64 20 -93 11 -29 20 -67 20 -83 0 -17 9 -55 20 -85 11 -30 20 -72 20 -93 0 -21 9 -55 20 -77 11 -22 20 -57 20 -78 0 -21 9 -57 20 -80 11 -22 20 -51 20 -63 0 -23 28 -124 57 -209 9 -25 19 -65 23 -90 4 -25 14 -65 23 -90 40 -118 50 -147 57 -175 9 -34 34 -106 61 -179 11 -27 19 -55 19 -62 0 -17 27 -78 81 -186 22 -43 39 -83 39 -90 0 -7 13 -38 28 -68 86 -171 137 -267 147 -280 7 -8 32 -51 55 -95 41 -78 105 -183 179 -294 20 -30 44 -68 54 -85 11 -17 31 -47 45 -66 15 -19 32 -44 38 -55 15 -27 161 -227 282 -384 62 -82 118 -148 190 -227 26 -28 79 -87 117 -130 95 -107 315 -327 394 -394 36 -30 88 -77 115 -104 28 -27 69 -63 92 -80 22 -17 72 -56 109 -86 132 -106 399 -290 535 -370 41 -24 86 -50 100 -59 62 -39 345 -181 360 -181 7 0 29 -8 49 -19 20 -10 47 -23 61 -29 14 -6 56 -25 94 -42 38 -16 75 -30 83 -30 8 0 33 -9 55 -20 23 -11 50 -20 60 -20 11 0 38 -9 60 -20 23 -11 59 -20 80 -20 20 0 52 -9 70 -20 21 -12 51 -20 80 -20 30 0 60 -7 80 -20 24 -15 51 -20 98 -20 46 0 78 -6 105 -20 33 -17 59 -20 160 -20 85 -1 127 -5 145 -15 36 -21 438 -20 495 0 25 9 79 15 143 15 82 0 111 4 144 20 27 13 62 20 100 20 39 0 73 7 100 20 23 11 54 20 69 20 15 0 48 9 74 20 26 11 57 20 69 20 12 0 26 4 32 9 5 5 34 18 64 29 30 11 87 32 125 46 114 43 423 202 495 255 25 18 52 36 60 39 8 3 38 22 65 42 28 20 69 50 91 66 140 99 264 208 455 401 119 120 235 243 260 273 24 30 46 57 49 60 39 33 277 384 333 489 79 150 102 197 120 241 10 25 27 63 37 85 34 74 60 144 60 157 0 8 9 33 20 56 11 22 20 48 20 57 0 8 8 34 19 58 32 73 61 149 61 162 0 7 9 37 21 66 90 232 189 425 309 605 253 375 550 683 865 894 74 49 137 90 140 90 4 0 25 13 48 29 39 26 91 57 143 85 12 7 46 28 75 47 30 20 80 51 112 70 106 62 349 263 501 415 98 99 266 284 266 295 0 9 12 25 65 87 17 19 39 50 50 68 11 17 44 66 72 107 49 70 83 125 136 217 44 77 157 308 157 322 0 8 5 19 10 24 10 10 57 128 67 169 3 11 14 39 24 62 10 24 19 51 19 61 0 10 9 37 20 60 11 22 20 58 20 80 0 21 9 57 20 80 11 22 20 61 20 86 0 24 9 65 20 91 15 34 20 69 20 130 0 48 7 110 17 147 25 90 25 481 0 548 -11 30 -17 77 -17 143 0 77 -4 107 -20 139 -12 26 -20 62 -20 95 0 34 -8 70 -20 95 -11 23 -20 56 -20 74 0 17 -7 49 -17 70 -9 22 -19 55 -23 74 -7 30 -34 108 -86 242 -8 21 -21 57 -30 80 -19 54 -67 156 -157 333 -85 170 -98 193 -148 266 -21 32 -39 61 -39 64 0 3 -41 68 -92 143 -82 123 -112 165 -217 307 -16 22 -46 58 -67 80 -20 22 -48 56 -63 75 -14 19 -51 62 -82 95 -31 33 -72 78 -90 100 -84 98 -464 456 -574 539 -52 40 -116 90 -165 129 -81 66 -259 193 -378 272 -109 72 -224 145 -228 145 -3 0 -29 15 -57 34 -106 70 -606 322 -737 371 -25 10 -63 25 -85 35 -22 11 -67 29 -100 40 -33 12 -82 30 -109 41 -27 10 -55 19 -62 19 -8 0 -23 5 -34 10 -11 5 -29 14 -40 20 -11 6 -29 10 -40 10 -12 0 -40 9 -62 20 -23 11 -58 20 -78 20 -20 0 -55 9 -78 20 -22 11 -58 20 -79 20 -21 0 -63 9 -93 20 -39 14 -80 20 -142 20 -49 0 -96 4 -106 9 -43 22 -124 31 -270 31 -107 0 -162 4 -170 12 -16 16 -85 20 -527 28 -264 5 -408 11 -445 20 -81 19 -2632 19 -2705 -1 -38 -10 -194 -14 -653 -16 -587 -3 -603 -3 -642 17 -21 11 -46 20 -55 20 -30 0 -104 51 -158 110 -51 55 -55 62 -62 125 -11 110 2 181 45 245 21 30 48 65 61 76 34 31 120 84 136 84 7 0 32 9 56 19 38 18 171 32 292 31 17 0 53 7 80 15 38 11 133 15 390 18 282 3 346 7 375 20 29 13 91 16 345 20 243 4 320 8 355 20 35 12 108 16 315 19 223 4 276 7 305 21 28 13 78 17 250 21 253 5 307 9 322 24 8 8 68 12 187 12 167 0 283 11 326 30 11 5 94 11 185 14 91 2 188 9 215 16 28 6 122 15 210 19 107 5 175 13 205 24 31 11 78 17 148 17 99 0 187 13 207 31 5 5 57 9 115 9 80 0 118 5 160 20 38 14 80 20 138 20 63 0 92 5 122 20 27 14 59 20 102 20 38 0 85 8 118 20 30 11 72 20 93 20 21 0 55 9 77 20 22 11 53 20 70 20 17 0 48 9 70 20 22 11 48 20 59 20 11 0 40 9 63 19 24 11 70 29 103 41 33 12 78 30 100 40 22 10 60 27 85 38 99 43 389 188 450 225 63 38 95 57 163 96 17 10 53 32 78 50 26 17 50 31 53 31 7 0 110 70 191 129 22 16 81 58 130 93 134 94 250 186 324 253 36 33 91 80 121 105 167 138 430 401 540 541 19 24 60 71 91 104 31 33 91 107 133 165 43 58 83 112 89 120 7 8 23 31 37 50 13 19 27 37 30 40 8 7 110 160 110 165 0 2 21 38 48 79 26 41 66 108 89 148 44 78 223 431 223 441 0 4 11 30 24 60 14 29 32 72 40 95 9 23 23 61 32 85 8 23 21 56 28 72 21 51 48 128 56 165 20 84 44 169 61 214 11 27 19 65 19 85 0 20 9 61 20 91 12 32 20 80 20 115 0 33 9 87 20 119 19 55 20 87 20 445 0 361 -1 390 -20 441 -12 33 -20 80 -20 118 0 43 -6 76 -20 104 -11 23 -20 62 -20 87 0 27 -8 59 -19 77 -10 17 -21 51 -23 75 -3 24 -13 67 -23 94 -10 28 -27 75 -37 105 -11 30 -28 71 -39 91 -10 20 -19 43 -19 50 0 20 -180 379 -222 441 -21 31 -38 60 -38 63 0 11 -165 252 -227 330 -274 348 -647 695 -923 861 -25 15 -63 39 -85 54 -22 15 -76 47 -120 70 -44 24 -98 53 -120 66 -22 12 -141 74 -265 137 -124 63 -250 128 -280 144 -71 38 -354 226 -401 267 -20 17 -87 74 -149 126 -108 91 -256 233 -329 316 -269 305 -395 491 -583 862 -78 153 -146 284 -153 292 -6 8 -22 35 -34 60 -22 42 -50 94 -106 195 -62 112 -247 363 -357 486 -79 88 -305 315 -393 394 -130 117 -353 278 -582 420 -78 49 -416 214 -438 215 -11 0 -31 9 -45 20 -14 11 -35 20 -48 20 -12 0 -31 5 -42 10 -11 6 -29 15 -40 20 -11 6 -27 10 -35 10 -9 0 -35 9 -57 20 -23 11 -56 20 -73 20 -17 0 -50 9 -73 20 -22 11 -58 20 -80 20 -21 0 -57 9 -80 20 -28 14 -62 20 -109 20 -40 0 -92 8 -127 20 -54 18 -87 20 -410 20 -289 0 -363 -3 -421 -16 -39 -9 -106 -19 -150 -23 -45 -3 -95 -14 -114 -24 -19 -9 -51 -17 -71 -17 -20 0 -63 -9 -96 -20 -32 -11 -72 -20 -87 -20 -15 0 -45 -9 -67 -20 -22 -11 -50 -20 -63 -20 -23 0 -85 -22 -174 -61 -24 -11 -50 -19 -58 -19 -8 0 -24 -4 -35 -10 -11 -5 -29 -14 -40 -20 -11 -5 -27 -10 -35 -10 -8 0 -52 -18 -97 -40 -46 -22 -87 -40 -91 -40 -17 0 -341 -167 -418 -216 -21 -13 -41 -24 -44 -24 -4 0 -26 -13 -50 -30 -24 -16 -47 -30 -50 -30 -4 0 -47 -28 -97 -62 -49 -35 -114 -79 -143 -98 -91 -59 -149 -101 -185 -135 -19 -18 -63 -53 -96 -76 -139 -99 -559 -497 -684 -648 -25 -30 -72 -84 -106 -120 -34 -36 -86 -100 -116 -141 -31 -42 -63 -82 -73 -90 -9 -7 -31 -34 -48 -59 -17 -25 -33 -48 -36 -51 -14 -12 -91 -118 -91 -124 0 -4 -15 -26 -33 -49 -28 -35 -145 -212 -182 -275 -5 -9 -17 -28 -26 -42 -9 -14 -28 -46 -43 -72 -54 -99 -74 -134 -103 -183 -41 -70 -193 -382 -193 -397 0 -4 -9 -28 -20 -53 -11 -25 -29 -65 -40 -90 -11 -25 -20 -51 -20 -58 0 -7 -9 -32 -20 -55 -11 -22 -20 -48 -20 -56 0 -8 -9 -35 -20 -61 -11 -26 -20 -57 -20 -70 0 -13 -9 -44 -20 -70 -11 -26 -20 -68 -20 -94 0 -27 -9 -65 -20 -89 -14 -28 -20 -61 -20 -105 0 -34 -4 -67 -8 -72 -17 -20 -32 -94 -32 -161 0 -44 -7 -89 -20 -124 -14 -39 -20 -80 -20 -140 0 -60 -6 -101 -20 -140 -15 -42 -20 -80 -20 -160 0 -72 -6 -121 -17 -155 -11 -32 -19 -101 -23 -195 -4 -80 -13 -163 -20 -185 -7 -22 -16 -110 -20 -195 -4 -85 -13 -173 -19 -195 -7 -22 -16 -121 -21 -220 -5 -99 -15 -214 -24 -255 -10 -50 -15 -133 -16 -251 0 -96 -4 -179 -9 -185 -19 -21 -31 -139 -31 -318 0 -152 -4 -200 -17 -236 -13 -36 -17 -96 -20 -295 -2 -137 -8 -261 -14 -275 -15 -40 -21 -119 -28 -385 -5 -152 -13 -266 -20 -290 -8 -26 -14 -136 -18 -310 -4 -232 -7 -278 -24 -326 -10 -30 -19 -70 -19 -88 0 -17 -9 -51 -20 -73 -11 -23 -20 -47 -20 -53 0 -20 -105 -139 -150 -170 -41 -29 -48 -30 -150 -30 -102 0 -109 1 -149 29 -48 34 -120 111 -138 147 -38 80 -53 122 -53 147 0 16 -9 55 -20 88 -17 51 -20 87 -20 269 0 206 -12 370 -30 410 -5 11 -11 142 -14 290 -3 173 -9 284 -17 310 -7 24 -15 143 -19 295 -5 155 -13 271 -20 295 -8 24 -16 135 -20 275 -4 129 -10 244 -14 255 -4 11 -12 29 -16 40 -5 11 -11 112 -14 225 -2 119 -10 222 -17 245 -6 22 -15 119 -19 215 -5 96 -13 195 -20 220 -7 25 -16 115 -20 200 -5 85 -14 175 -20 200 -7 25 -16 108 -20 185 -4 77 -13 158 -20 180 -7 22 -16 96 -19 165 -4 79 -13 141 -24 170 -11 29 -17 75 -17 129 0 78 -9 130 -31 173 -5 10 -9 49 -9 86 0 42 -8 92 -20 128 -11 32 -20 85 -20 117 0 38 -7 71 -20 97 -11 22 -20 59 -20 82 0 24 -9 68 -20 98 -11 30 -20 64 -20 75 0 12 -9 40 -20 63 -11 22 -20 50 -20 62 0 11 -4 28 -9 38 -12 24 -26 61 -41 107 -7 22 -25 67 -41 100 -16 33 -29 65 -29 72 0 8 -4 21 -9 31 -6 9 -51 100 -101 201 -50 102 -100 197 -111 212 -10 15 -19 29 -19 32 0 12 -126 225 -152 257 -15 19 -28 38 -28 43 0 4 -17 34 -37 65 -21 32 -42 65 -48 73 -60 94 -293 400 -326 429 -3 3 -16 21 -30 41 -68 100 -493 545 -624 654 -33 28 -78 68 -100 89 -22 22 -78 68 -125 104 -47 36 -99 78 -115 93 -17 16 -58 48 -92 71 -34 24 -96 68 -138 98 -43 30 -85 60 -94 65 -8 6 -35 22 -58 38 -23 15 -44 27 -48 27 -3 0 -24 12 -47 28 -109 73 -664 352 -700 352 -8 0 -30 7 -48 16 -18 9 -46 20 -64 24 -42 11 -122 39 -174 61 -23 11 -53 19 -65 19 -13 0 -42 9 -65 20 -22 11 -51 20 -64 20 -13 0 -48 9 -78 20 -30 11 -71 20 -92 20 -20 0 -57 9 -83 20 -34 15 -69 20 -130 20 -46 0 -86 4 -89 9 -3 5 -23 12 -43 16 -59 12 -742 14 -788 3z" fill="#006940" id="006940-000001"/>
    <path stroke="none" d="M9104 22481 c1014 -1014 1756 -1764 1754 -1772 -6 -22 -702 -709 -718 -709 -8 0 -339 324 -735 720 -396 396 -727 720 -735 720 -8 0 -325 -310 -703 -688 l-688 -688 732 -731 c402 -402 730 -736 728 -742 -2 -6 -166 -173 -364 -371 -328 -329 -362 -360 -381 -350 -11 7 -807 798 -1767 1758 -1376 1376 -1747 1752 -1747 1772 0 36 684 720 720 720 20 0 170 -145 744 -720 395 -397 720 -719 722 -718 70 61 1374 1377 1374 1388 0 8 -323 338 -717 732 -395 395 -720 723 -722 729 -2 6 153 168 345 360 273 273 354 349 374 349 20 0 381 -356 1784 -1759z" fill="#ffffff" id="ffffff-000002"/>
    <path stroke="none" d="M20617 23858 c345 -344 361 -362 347 -382 -8 -12 -334 -341 -725 -733 -391 -391 -710 -716 -708 -722 2 -6 310 -317 684 -691 452 -452 685 -678 695 -675 8 3 334 324 724 715 390 390 718 713 729 716 16 5 90 -63 376 -347 195 -195 357 -361 359 -369 1 -9 -535 -552 -1293 -1310 -713 -712 -1503 -1503 -1758 -1757 -319 -320 -468 -463 -483 -463 -14 0 -58 38 -127 109 -58 60 -126 123 -151 140 -25 18 -56 47 -69 67 -13 19 -104 116 -201 215 -97 99 -176 187 -174 195 3 14 849 866 1232 1242 173 169 207 206 204 227 -4 36 -1333 1365 -1364 1365 -14 0 -39 -17 -66 -46 -121 -128 -1373 -1371 -1394 -1384 -25 -15 -27 -14 -195 157 -93 95 -189 186 -214 203 -24 16 -54 45 -66 63 -12 17 -76 87 -142 153 -101 103 -119 126 -114 145 7 25 3504 3529 3523 3529 5 0 173 -163 371 -362z" fill="#ffffff" id="ffffff-000003"/>
    <path stroke="none" d="M7626 12308 c28 -29 66 -75 84 -102 18 -27 63 -81 100 -120 37 -39 81 -92 98 -117 17 -26 60 -78 95 -116 35 -39 82 -94 104 -124 23 -30 59 -72 82 -94 23 -21 41 -47 41 -56 0 -17 -59 -71 -130 -119 -19 -13 -63 -51 -98 -85 -35 -33 -85 -74 -111 -92 -26 -17 -78 -61 -117 -96 -38 -35 -88 -77 -111 -94 -23 -16 -54 -44 -68 -61 -15 -18 -32 -32 -39 -32 -7 0 -25 -14 -42 -31 -16 -17 -63 -56 -104 -87 -41 -31 -106 -85 -145 -121 -38 -35 -87 -74 -108 -88 -21 -13 -72 -56 -113 -96 -42 -39 -97 -86 -124 -104 -26 -17 -81 -63 -121 -100 -41 -37 -87 -77 -102 -89 -46 -32 -32 -72 66 -180 45 -51 108 -125 139 -165 32 -41 84 -103 118 -139 33 -36 60 -68 60 -72 0 -8 114 -145 140 -168 10 -8 41 -46 70 -85 30 -38 56 -72 59 -75 19 -16 129 -147 132 -157 2 -7 38 -50 79 -95 42 -46 87 -99 100 -118 67 -99 228 -270 253 -270 10 0 44 22 75 49 31 26 82 68 113 92 85 66 255 208 315 262 29 27 93 81 143 120 185 148 266 213 326 267 85 74 148 128 200 170 97 78 241 198 295 246 32 29 70 60 85 70 l28 18 56 -60 c51 -55 86 -96 276 -329 36 -44 95 -114 130 -155 119 -139 205 -244 205 -249 0 -8 -97 -91 -140 -121 -28 -19 -177 -146 -200 -170 -3 -3 -18 -13 -33 -23 -25 -16 -52 -39 -178 -151 -19 -18 -51 -43 -70 -56 -19 -13 -72 -58 -119 -100 -47 -42 -101 -87 -120 -100 -19 -13 -56 -42 -81 -64 -25 -23 -63 -57 -85 -77 -22 -19 -56 -46 -75 -59 -19 -13 -72 -58 -119 -100 -47 -42 -101 -87 -120 -100 -19 -13 -69 -55 -110 -93 -41 -38 -95 -83 -120 -100 -36 -24 -187 -153 -210 -177 -3 -3 -21 -17 -40 -30 -28 -19 -181 -149 -200 -170 -3 -3 -21 -17 -40 -30 -28 -19 -177 -146 -200 -170 -3 -3 -18 -13 -33 -23 -25 -16 -52 -39 -178 -151 -19 -18 -51 -43 -70 -56 -19 -13 -72 -58 -119 -100 -47 -42 -101 -87 -120 -100 -19 -13 -56 -42 -81 -64 -25 -23 -63 -57 -85 -77 -22 -19 -56 -46 -75 -59 -19 -13 -72 -58 -119 -100 -47 -42 -101 -87 -120 -100 -19 -13 -69 -55 -110 -93 -41 -38 -95 -83 -120 -100 -25 -17 -86 -67 -136 -111 -97 -87 -216 -176 -233 -176 -6 0 -15 10 -22 21 -6 12 -37 49 -68 83 -31 34 -76 87 -100 119 -23 32 -70 89 -103 125 -34 37 -79 91 -101 121 -22 29 -72 90 -111 135 -83 93 -136 168 -136 190 0 9 17 28 38 43 68 50 212 176 227 200 9 13 23 23 32 23 9 0 37 19 63 43 26 23 78 67 115 97 37 30 90 75 119 100 28 25 83 70 120 100 38 30 96 80 130 110 33 31 97 84 141 118 44 34 105 83 135 110 31 26 76 63 100 82 24 19 68 55 96 80 29 25 82 70 119 100 37 30 86 71 108 91 l41 36 -37 44 c-87 103 -204 244 -232 279 -42 52 -202 244 -250 300 -22 25 -53 63 -70 85 -16 21 -71 86 -120 144 -50 58 -110 131 -135 161 -25 30 -84 100 -131 155 -47 55 -96 116 -110 136 -13 20 -57 71 -97 114 -61 65 -76 76 -96 71 -13 -3 -60 -39 -103 -79 -43 -41 -97 -87 -120 -104 -23 -16 -54 -44 -68 -61 -15 -18 -32 -32 -39 -32 -7 0 -25 -14 -42 -31 -16 -17 -63 -56 -104 -87 -41 -31 -106 -85 -145 -121 -38 -35 -87 -74 -108 -88 -21 -13 -72 -56 -113 -96 -42 -39 -97 -86 -124 -104 -27 -18 -78 -59 -112 -91 -35 -32 -90 -78 -122 -102 -33 -25 -93 -76 -135 -113 -41 -38 -96 -83 -121 -100 -25 -17 -60 -45 -78 -62 -55 -49 -56 -49 -101 13 -41 56 -116 146 -303 365 -51 60 -103 123 -116 140 -32 46 -47 64 -124 145 -37 39 -68 77 -68 82 0 12 12 24 141 132 57 48 154 130 214 181 61 51 126 104 145 117 19 13 55 43 80 66 25 23 70 62 100 85 30 24 89 73 130 109 41 36 95 81 120 100 63 49 194 162 198 172 2 5 29 26 60 47 32 22 77 58 102 80 25 23 77 66 115 95 39 30 106 87 150 126 44 40 105 91 135 113 30 23 78 63 107 90 28 26 89 78 136 115 47 37 120 96 162 132 224 190 293 248 325 270 19 13 55 43 80 66 25 23 70 62 100 85 30 24 89 73 130 109 41 36 95 81 120 100 63 49 194 162 198 172 2 5 29 26 60 47 32 22 77 58 102 80 25 23 77 66 115 95 39 30 106 87 150 126 44 40 112 96 150 125 39 30 97 81 130 114 35 36 68 61 80 61 12 0 42 -22 71 -52z" fill="#ffffff" id="ffffff-000004"/>
    <path stroke="none" d="M20281 12264 c46 -42 100 -86 119 -99 19 -12 49 -36 65 -52 47 -47 208 -186 246 -213 19 -13 66 -54 105 -91 40 -37 114 -101 165 -142 52 -41 103 -84 114 -97 11 -12 46 -42 79 -67 32 -24 72 -57 90 -72 135 -120 203 -179 218 -187 9 -5 44 -35 76 -66 33 -31 81 -73 106 -92 60 -45 143 -116 220 -187 34 -31 82 -70 107 -87 25 -16 52 -38 60 -48 18 -22 191 -170 244 -209 22 -16 58 -47 80 -70 22 -23 96 -86 165 -142 69 -55 136 -113 150 -128 14 -15 48 -45 76 -65 28 -21 57 -44 65 -52 35 -32 226 -196 245 -209 12 -8 58 -48 103 -89 45 -41 99 -86 120 -100 21 -14 70 -55 109 -91 39 -36 103 -92 142 -125 39 -32 115 -97 168 -143 54 -46 129 -107 167 -136 39 -29 80 -64 93 -78 l23 -25 -38 -49 c-69 -91 -117 -147 -173 -208 -31 -33 -75 -85 -97 -115 -23 -30 -83 -100 -133 -155 -51 -55 -108 -124 -127 -152 -42 -63 -87 -103 -116 -103 -13 0 -43 23 -77 59 -30 32 -77 75 -105 96 -27 20 -97 78 -155 129 -58 50 -125 107 -150 126 -25 19 -47 37 -50 40 -24 24 -241 210 -260 223 -14 10 -65 53 -115 97 -129 113 -261 226 -340 290 -37 30 -103 87 -146 127 -43 39 -99 86 -125 104 l-46 32 -39 -44 c-22 -24 -51 -61 -65 -82 -14 -21 -58 -73 -98 -115 -40 -42 -94 -106 -119 -141 -25 -35 -77 -96 -115 -135 -37 -39 -79 -87 -92 -106 -13 -19 -27 -37 -30 -40 -18 -17 -211 -242 -235 -275 -16 -22 -57 -69 -90 -105 -34 -36 -70 -77 -81 -91 -44 -60 -110 -138 -163 -194 -83 -88 -101 -117 -101 -165 0 -35 6 -47 33 -71 17 -16 35 -29 39 -29 4 0 27 -18 50 -39 100 -91 228 -201 279 -238 30 -22 68 -55 84 -73 17 -18 46 -44 66 -59 42 -31 132 -107 203 -172 28 -25 60 -53 71 -62 11 -9 39 -31 62 -49 23 -18 89 -74 145 -124 57 -50 137 -117 178 -148 41 -32 93 -76 115 -97 60 -59 151 -136 174 -149 38 -20 26 -58 -39 -126 -33 -34 -60 -69 -60 -78 0 -9 -12 -23 -26 -33 -15 -9 -40 -35 -56 -58 -16 -22 -53 -65 -81 -95 -29 -30 -68 -75 -87 -100 -19 -25 -71 -86 -115 -136 -44 -50 -100 -116 -125 -147 -50 -63 -49 -63 -120 5 -56 52 -152 133 -205 172 -22 17 -69 58 -105 91 -36 34 -86 76 -112 93 -25 18 -48 35 -50 39 -4 10 -204 183 -236 205 -12 8 -51 41 -86 74 -35 32 -74 68 -87 78 -13 11 -42 35 -65 55 -22 20 -54 45 -69 56 -16 11 -70 57 -120 102 -49 46 -94 83 -98 83 -5 0 -14 6 -21 13 -14 13 -123 111 -204 181 -29 25 -56 46 -61 46 -4 0 -39 30 -77 66 -38 36 -92 83 -121 105 -28 21 -55 43 -58 49 -4 6 -26 25 -48 41 -23 17 -67 54 -97 83 -30 28 -71 63 -90 76 -19 13 -78 63 -130 110 -52 48 -124 108 -158 135 -35 26 -97 78 -137 114 -40 36 -121 107 -180 156 -59 50 -119 102 -134 116 -15 14 -47 39 -71 56 -25 17 -56 43 -70 58 -14 15 -79 72 -145 126 -66 54 -156 130 -200 169 -44 39 -132 114 -195 167 -63 54 -117 100 -120 104 -3 3 -27 23 -55 44 -66 50 -145 121 -145 131 0 4 26 35 58 69 31 35 62 69 67 76 6 8 44 53 85 101 41 47 100 117 130 154 30 38 82 98 116 134 34 36 72 81 85 101 41 61 116 139 134 139 19 0 52 -25 135 -104 30 -29 74 -65 96 -82 39 -27 135 -109 389 -332 54 -48 117 -100 140 -116 22 -16 65 -52 95 -80 92 -85 172 -152 238 -200 35 -26 65 -53 68 -60 3 -8 34 -35 69 -60 34 -26 76 -59 91 -74 16 -15 42 -37 57 -49 15 -12 62 -53 103 -92 42 -39 83 -71 93 -71 23 0 225 215 274 292 9 15 49 63 89 106 40 44 102 115 138 158 36 43 88 103 116 134 28 30 61 70 74 89 12 18 42 54 65 80 75 81 180 205 198 233 9 15 49 63 89 106 132 144 223 260 223 283 0 16 -20 39 -65 76 -36 30 -99 84 -140 121 -41 37 -104 90 -140 117 -36 27 -110 91 -166 141 -56 50 -128 109 -160 132 -32 22 -88 68 -124 103 -36 35 -89 83 -118 107 -98 80 -106 87 -157 132 -27 25 -75 66 -105 90 -61 50 -81 68 -195 170 -44 39 -104 87 -132 107 -37 24 -53 42 -53 57 0 14 27 52 68 97 37 41 90 103 117 139 27 36 75 92 106 125 31 33 72 79 90 102 76 94 124 151 174 205 29 31 61 70 71 87 10 17 26 31 35 31 9 0 54 -34 100 -76z" fill="#ffffff" id="ffffff-000005"/>
    <path stroke="none" d="M27149 8083 c-23 -21 -67 -72 -98 -113 -31 -41 -71 -91 -88 -110 -18 -19 -52 -64 -77 -100 l-45 -65 24 -25 c13 -14 37 -33 54 -43 l29 -17 84 106 c46 58 94 121 108 140 31 42 53 40 60 -6 3 -19 14 -52 23 -72 9 -21 17 -46 17 -56 0 -10 4 -22 9 -28 5 -5 33 -54 61 -109 55 -105 105 -186 136 -221 11 -12 34 -38 52 -58 18 -21 40 -36 49 -34 22 4 83 84 83 108 0 10 -27 47 -61 81 -95 99 -178 233 -214 344 -9 28 -20 59 -25 70 -5 11 -14 47 -20 80 -17 89 -29 114 -71 141 -21 13 -41 24 -44 24 -3 0 -24 -17 -46 -37z" fill="#006940" id="006940-000002"/>
    <path stroke="none" d="M26670 7488 c-144 -102 -168 -200 -92 -378 20 -47 144 -174 212 -218 134 -86 147 -92 234 -98 122 -10 149 -2 217 62 56 54 65 68 89 150 9 31 9 46 1 62 -6 11 -11 30 -11 41 0 73 -150 249 -277 325 -41 25 -80 46 -85 46 -5 0 -26 9 -48 20 -30 15 -58 20 -117 20 -71 -1 -82 -4 -123 -32z" fill="#006940" id="006940-000003"/>
    <path stroke="none" d="M26837 7369 c63 -26 81 -35 142 -79 101 -71 128 -97 176 -170 50 -76 53 -91 25 -137 -36 -60 -116 -81 -168 -45 -15 10 -44 27 -66 37 -53 28 -200 158 -236 210 -23 34 -30 54 -30 92 0 26 6 55 13 63 32 39 90 50 144 29z" fill="#ffffff" id="ffffff-000006"/>
    <path stroke="none" d="M26323 7061 c-26 -32 -76 -94 -110 -138 -35 -44 -70 -87 -80 -94 -25 -21 -93 -130 -93 -149 0 -20 60 -70 83 -70 15 0 32 18 92 96 35 46 123 143 145 161 22 17 40 -3 40 -47 0 -54 63 -206 135 -327 14 -24 35 -60 48 -82 12 -21 50 -69 85 -106 62 -68 62 -68 84 -49 30 27 78 94 78 110 0 7 -38 56 -85 110 -70 80 -96 119 -146 223 -33 69 -65 134 -70 143 -5 10 -9 27 -9 37 0 11 -4 30 -9 43 -5 13 -14 43 -21 68 -7 25 -16 54 -22 65 -10 22 -67 65 -86 65 -6 0 -33 -26 -59 -59z" fill="#006940" id="006940-000004"/>
    <path stroke="none" d="M25714 6252 c-69 -20 -91 -32 -139 -74 -165 -146 -192 -375 -64 -548 50 -69 120 -133 174 -162 95 -50 254 -84 270 -58 3 6 19 10 36 10 72 0 215 108 265 202 26 49 28 61 28 163 0 97 -3 115 -24 150 -28 49 -80 105 -95 105 -19 0 -74 -58 -81 -84 -4 -17 5 -46 27 -93 20 -42 32 -83 32 -108 0 -57 -36 -119 -91 -160 -43 -32 -53 -35 -120 -35 -102 0 -178 37 -265 130 -67 70 -74 86 -84 188 -6 61 12 109 61 160 55 59 129 78 189 51 31 -14 44 -6 91 50 44 53 47 94 6 99 -14 2 -30 8 -37 14 -19 16 -126 16 -179 0z" fill="#006940" id="006940-000005"/>
    <path stroke="none" d="M25195 5609 c-108 -37 -199 -114 -248 -207 -24 -46 -27 -62 -27 -155 l0 -103 53 -50 c32 -31 74 -60 108 -73 l55 -22 48 21 c26 11 52 20 58 20 10 0 102 65 200 143 34 26 72 50 86 54 37 9 74 -8 100 -47 19 -28 22 -42 16 -75 -8 -53 -59 -123 -118 -162 -56 -38 -91 -41 -140 -12 -26 15 -39 18 -54 10 -28 -15 -95 -100 -89 -114 9 -23 131 -77 175 -77 67 0 198 69 266 139 79 84 116 169 116 269 0 69 -3 81 -31 122 -17 25 -50 60 -73 78 -41 30 -47 32 -128 32 l-85 0 -79 -51 c-44 -28 -96 -66 -116 -85 -57 -51 -92 -65 -151 -62 l-52 3 -3 67 -3 68 47 50 47 50 83 0 83 0 41 42 c46 48 49 66 18 95 -35 32 -151 50 -203 32z" fill="#006940" id="006940-000006"/>
    <path stroke="none" d="M24691 5053 c-23 -27 -41 -53 -41 -60 0 -18 39 -53 162 -146 62 -47 157 -127 211 -179 l97 -95 0 -63 c0 -49 -5 -73 -25 -106 -37 -63 -72 -84 -139 -84 -68 0 -96 12 -166 71 -30 25 -71 57 -90 70 -34 23 -117 89 -223 177 -65 54 -88 54 -127 0 -47 -64 -40 -91 41 -152 36 -28 97 -79 135 -112 82 -73 229 -184 264 -201 72 -33 147 -39 235 -18 87 21 238 194 259 298 3 15 9 39 12 53 23 95 -82 261 -205 324 -22 11 -80 54 -128 95 -49 42 -92 79 -98 83 -5 4 -32 26 -59 50 -27 23 -55 42 -62 42 -7 0 -31 -21 -53 -47z" fill="#006940" id="006940-000007"/>
    <path stroke="none" d="M23952 4087 c-73 -37 -152 -125 -152 -169 0 -15 -4 -30 -10 -33 -19 -12 -11 -112 11 -152 32 -57 44 -68 117 -103 56 -27 69 -30 88 -20 30 16 42 7 36 -28 -2 -19 7 -52 28 -95 25 -52 42 -73 83 -101 83 -57 111 -61 242 -30 38 9 152 123 183 182 33 65 32 187 -3 242 -59 93 -123 124 -242 118 l-68 -3 -3 35 c-6 70 -45 123 -125 168 -55 31 -109 28 -185 -11z" fill="#006940" id="006940-000008"/>
    <path stroke="none" d="M24073 3965 c41 -17 87 -72 87 -104 0 -32 -46 -96 -84 -116 -45 -24 -97 -14 -130 26 -21 24 -26 41 -26 83 0 44 4 56 28 79 23 22 63 44 83 46 4 1 23 -6 42 -14z" fill="#ffffff" id="ffffff-000007"/>
    <path stroke="none" d="M24360 3767 c19 -7 41 -16 48 -20 18 -12 55 -93 55 -122 0 -66 -79 -145 -144 -145 -46 0 -113 43 -133 84 -22 46 -20 60 11 122 20 41 37 58 68 73 48 24 50 24 95 8z" fill="#ffffff" id="ffffff-000008"/>
    <path stroke="none" d="M23471 3506 c-34 -35 -34 -35 -17 -69 9 -19 16 -49 16 -66 0 -35 -25 -104 -52 -143 -10 -14 -18 -33 -18 -41 0 -14 70 -67 90 -67 5 0 26 25 46 55 20 30 47 61 61 70 24 16 26 15 79 -27 31 -24 74 -56 97 -73 23 -16 60 -46 82 -66 35 -32 67 -60 171 -143 20 -17 27 -18 48 -7 27 15 66 79 66 110 0 13 -14 29 -37 45 -21 13 -49 36 -63 51 -14 15 -50 44 -80 65 -30 21 -66 50 -80 65 -14 15 -66 58 -117 96 -50 38 -95 74 -98 79 -12 20 -129 100 -145 100 -9 0 -31 -15 -49 -34z" fill="#006940" id="006940-000009"/>
  </g>
</svg>
