<?xml version="1.0" standalone="no"?>
<!DOCTYPE svg PUBLIC "-//W3C//DTD SVG 1.1//EN"
 "http://www.w3.org/Graphics/SVG/1.1/DTD/svg11.dtd">
<!-- Created with svg_stack (http://github.com/astraw/svg_stack) -->
<svg xmlns:sodipodi="http://sodipodi.sourceforge.net/DTD/sodipodi-0.dtd" xmlns="http://www.w3.org/2000/svg" version="1.1" width="1126.0" height="1448.0">
  <defs/>
  <g id="id0:id0" transform="matrix(1.25,0,0,1.25,0.0,0.0)"><g transform="translate(0.000000,1158.400000) scale(0.040000,-0.040000)" fill="#fbb343" stroke="none">
<path d="M15168 23763 c-24 -4 -56 -29 -47 -37 2 -2 27 0 54 4 45 7 314 -3 375 -15 14 -2 88 -9 165 -15 77 -6 178 -17 225 -25 291 -50 320 -51 320 -6 0 26 -34 51 -69 51 -8 0 -22 7 -32 16 -14 12 -62 17 -256 24 -236 9 -683 11 -735 3z"/>
<path d="M13025 15668 c-11 -38 -14 -87 -5 -93 11 -7 13 4 10 47 -1 14 3 29 9 33 6 3 11 10 11 16 0 14 -20 11 -25 -3z"/>
<path d="M13020 15535 c0 -8 5 -15 10 -15 6 0 10 7 10 15 0 8 -4 15 -10 15 -5 0 -10 -7 -10 -15z"/>
<path d="M12903 15484 c-90 -20 -196 -56 -893 -307 -855 -308 -1426 -527 -1820 -699 -285 -125 -622 -302 -634 -334 -4 -11 126 -209 223 -339 302 -403 342 -455 476 -615 180 -216 195 -234 201 -252 3 -9 13 -19 22 -22 9 -3 50 -42 90 -86 l74 -81 -92 -242 c-51 -133 -113 -298 -137 -367 -257 -721 -495 -1412 -489 -1417 3 -3 51 0 108 7 397 46 755 -147 936 -507 45 -87 72 -221 73 -354 l2 -110 26 -13 c14 -8 53 -23 86 -34 33 -11 193 -66 355 -122 1067 -368 1418 -477 2065 -639 326 -82 921 -210 1095 -236 25 -3 90 -15 145 -25 55 -10 181 -31 280 -45 99 -14 189 -28 200 -31 11 -2 26 0 33 4 18 12 129 300 197 512 96 297 218 802 254 1050 39 271 60 425 66 485 3 39 13 140 20 225 30 315 30 852 1 1297 -3 58 29 8 150 -230 71 -142 138 -265 147 -274 15 -15 22 -13 99 22 382 175 770 275 1067 275 85 0 101 2 101 16 0 34 -192 398 -342 647 -574 951 -1290 1688 -2023 2082 -49 26 -109 66 -132 88 l-42 41 -63 -12 c-206 -38 -488 -35 -698 8 -193 39 -444 134 -615 232 -134 77 -292 205 -410 331 -89 96 -87 96 -202 71z"/>
<path d="M14625 15427 c-30 -15 -48 -56 -33 -75 10 -12 35 -13 138 -8 108 5 139 7 183 15 18 3 5 32 -19 41 -72 28 -236 44 -269 27z"/>
<path d="M6000 8343 c-13 -3 -33 -11 -44 -19 -11 -8 -32 -14 -46 -14 -24 0 -101 -23 -180 -54 -19 -8 -73 -29 -120 -47 -47 -17 -161 -69 -255 -114 -601 -291 -1018 -675 -1251 -1150 -105 -215 -160 -410 -200 -700 -8 -66 -18 -123 -20 -126 -2 -4 0 -17 4 -29 5 -12 5 -45 1 -73 -8 -61 12 -229 41 -334 49 -178 150 -316 275 -377 72 -35 197 -46 297 -26 109 21 323 119 323 147 0 6 -28 44 -63 85 -283 332 -453 761 -411 1041 35 240 101 368 349 676 184 229 556 578 808 759 121 87 336 222 490 309 80 45 81 60 2 46z"/>
<path d="M14915 4008 c-10 -55 23 -235 92 -493 147 -557 418 -1052 749 -1365 235 -222 482 -367 809 -473 182 -60 212 -67 405 -93 106 -14 139 -15 220 -5 118 15 226 43 293 77 77 39 162 126 199 203 29 59 33 78 36 175 3 64 -1 133 -8 165 -10 47 -67 230 -74 238 -4 5 -91 -40 -131 -67 -68 -47 -257 -137 -366 -175 -187 -65 -264 -78 -454 -79 -183 -1 -251 10 -385 62 -111 43 -175 93 -357 273 -179 177 -267 276 -377 423 -173 231 -398 629 -526 931 -65 154 -103 234 -112 235 -4 0 -10 -15 -13 -32z"/>
</g>
</g>
  <g id="id1:id1" transform="matrix(1.25,0,0,1.25,0.0,0.0)"><g transform="translate(0.000000,1158.400000) scale(0.040000,-0.040000)" fill="#f8e0c7" stroke="none">
<path d="M15058 25534 c-154 -175 -296 -341 -406 -474 -20 -25 -69 -83 -108 -130 -39 -47 -94 -114 -123 -150 -28 -36 -69 -87 -91 -115 -117 -147 -157 -198 -305 -395 -736 -981 -1317 -1921 -1826 -2955 -368 -748 -681 -1534 -905 -2274 -139 -457 -261 -968 -305 -1278 l-11 -83 -51 -27 c-28 -16 -52 -33 -54 -39 -5 -14 64 -97 243 -294 490 -539 1079 -986 1734 -1317 112 -57 207 -107 210 -111 3 -4 25 -14 50 -21 25 -7 116 -42 203 -76 370 -149 886 -292 1237 -345 41 -6 82 -17 90 -25 11 -10 39 -15 82 -15 46 0 69 -4 78 -15 15 -19 6 -22 -75 -29 -33 -3 -100 -10 -150 -16 -63 -7 -168 -7 -354 0 -145 6 -266 12 -270 14 -3 2 -58 9 -121 15 -147 14 -369 47 -487 72 -50 10 -103 19 -117 19 -13 0 -52 7 -86 16 -102 26 -116 3 -48 -79 66 -78 218 -209 328 -282 243 -160 544 -274 835 -315 146 -20 523 -8 590 19 15 6 21 19 22 42 1 19 11 99 23 179 12 80 27 187 34 238 7 51 17 96 22 101 5 5 55 5 114 0 58 -5 251 -10 430 -11 312 -1 468 8 735 42 590 75 1224 258 1768 510 35 17 34 31 -4 72 -70 76 -208 323 -294 528 -204 485 -330 1065 -380 1745 -16 224 -20 461 -6 469 5 3 60 -18 122 -48 765 -360 1905 -739 2694 -897 55 -11 115 -25 133 -32 l34 -12 31 36 c41 46 192 253 292 399 577 847 979 1908 1109 2930 9 69 19 141 21 160 36 244 60 1115 33 1138 -7 6 -94 34 -193 62 -340 98 -915 286 -1220 400 -60 23 -139 52 -175 64 -88 32 -476 186 -635 253 -294 124 -460 199 -790 355 -126 60 -236 112 -242 115 -32 13 -7 -31 58 -103 140 -157 293 -354 442 -571 132 -192 219 -335 209 -345 -5 -5 -14 -2 -22 7 -7 8 -19 15 -26 15 -7 0 -29 9 -49 20 -20 11 -44 20 -55 20 -10 0 -22 5 -25 10 -3 6 -15 10 -25 10 -11 0 -52 15 -92 34 -404 189 -956 409 -1323 526 -38 12 -95 31 -125 41 -122 39 -404 120 -560 159 -278 69 -417 100 -446 100 -12 0 -57 9 -100 20 -44 11 -96 20 -116 20 -20 0 -40 5 -43 10 -3 6 -14 10 -24 10 -9 0 -26 6 -36 14 -16 11 -17 17 -7 29 7 8 11 20 10 27 -4 17 117 14 242 -5 52 -8 133 -19 180 -24 106 -11 267 -36 385 -61 202 -42 326 -70 440 -100 66 -17 136 -35 155 -39 19 -5 107 -34 195 -65 88 -32 176 -62 195 -69 19 -6 39 -15 45 -19 5 -4 17 -8 27 -8 9 0 33 -9 53 -20 20 -11 42 -20 49 -20 8 0 40 -13 71 -30 53 -28 75 -31 75 -10 0 8 -416 218 -505 255 -514 213 -1019 344 -1504 390 -157 15 -751 22 -771 10 -5 -3 -57 -12 -117 -21 -59 -9 -133 -19 -163 -24 -30 -4 -59 -5 -63 -1 -10 10 132 139 233 213 432 315 895 474 1365 466 103 -1 170 1 170 7 0 5 -22 24 -50 42 -441 283 -656 427 -975 657 -158 113 -519 385 -587 443 -28 23 -58 43 -67 43 -8 0 -93 -88 -188 -196z m657 -1793 c7 -12 -12 -24 -25 -16 -11 7 -4 25 10 25 5 0 11 -4 15 -9z m329 -21 c4 -5 5 -14 1 -20 -5 -9 -25 -10 -64 -6 -31 3 -92 9 -136 12 -94 6 -109 10 -99 25 8 13 283 3 298 -11z m42 -21 c10 -17 -13 -36 -27 -22 -12 12 -4 33 11 33 5 0 12 -5 16 -11z m1067 -1515 c222 -42 427 -149 599 -312 108 -103 171 -187 237 -312 99 -190 134 -332 135 -555 1 -168 -11 -253 -55 -386 -122 -374 -431 -671 -814 -782 -266 -77 -582 -55 -830 58 -602 275 -873 972 -615 1578 170 397 543 675 975 726 97 12 262 5 368 -15z m-2393 -2247 c412 -62 779 -263 1014 -557 102 -127 158 -237 202 -396 35 -125 39 -302 10 -429 -38 -162 -121 -309 -254 -447 -173 -180 -412 -305 -702 -370 -74 -16 -141 -22 -300 -25 -274 -6 -376 8 -615 84 -173 56 -341 140 -471 237 -389 290 -563 691 -469 1080 38 161 88 257 210 405 160 194 499 373 781 412 44 6 93 14 109 19 47 13 369 5 485 -13z"/>
<path d="M16785 21851 c-89 -25 -158 -67 -224 -135 -88 -92 -123 -170 -140 -312 -9 -74 -8 -89 14 -161 56 -183 188 -310 372 -357 225 -59 471 68 576 295 24 51 39 173 31 244 -33 305 -337 510 -629 426z"/>
<path d="M17020 24410 c0 -5 14 -10 30 -10 17 0 30 5 30 10 0 6 -13 10 -30 10 -16 0 -30 -4 -30 -10z"/>
<path d="M16570 24230 c0 -5 5 -10 10 -10 6 0 10 5 10 10 0 6 -4 10 -10 10 -5 0 -10 -4 -10 -10z"/>
<path d="M16500 24210 c0 -5 7 -10 15 -10 8 0 15 5 15 10 0 6 -7 10 -15 10 -8 0 -15 -4 -15 -10z"/>
<path d="M16130 24190 c0 -5 5 -10 10 -10 6 0 10 5 10 10 0 6 -4 10 -10 10 -5 0 -10 -4 -10 -10z"/>
<path d="M16440 24190 c0 -5 7 -10 15 -10 8 0 15 5 15 10 0 6 -7 10 -15 10 -8 0 -15 -4 -15 -10z"/>
<path d="M16390 24170 c0 -5 5 -10 10 -10 6 0 10 5 10 10 0 6 -4 10 -10 10 -5 0 -10 -4 -10 -10z"/>
<path d="M16350 24150 c0 -5 5 -10 10 -10 6 0 10 5 10 10 0 6 -4 10 -10 10 -5 0 -10 -4 -10 -10z"/>
<path d="M15823 23993 c-7 -2 -13 -11 -13 -19 0 -10 14 -14 50 -14 28 0 50 5 50 10 0 6 -11 10 -24 10 -14 0 -28 5 -31 10 -7 11 -13 11 -32 3z"/>
<path d="M15940 23990 c0 -5 11 -10 25 -10 14 0 25 5 25 10 0 6 -11 10 -25 10 -14 0 -25 -4 -25 -10z"/>
<path d="M19040 22770 c0 -5 5 -10 10 -10 6 0 10 5 10 10 0 6 -4 10 -10 10 -5 0 -10 -4 -10 -10z"/>
<path d="M12947 15254 c-9 -10 12 -34 30 -34 19 0 12 34 -8 38 -8 1 -18 0 -22 -4z"/>
<path d="M12515 15143 c-134 -47 -162 -61 -148 -74 9 -9 94 11 114 27 8 7 33 15 56 19 22 3 49 13 60 20 10 8 26 15 35 15 9 0 20 5 24 11 17 28 -21 23 -141 -18z"/>
<path d="M12290 15063 c-23 -7 -320 -123 -357 -140 -18 -7 -33 -18 -33 -24 0 -18 30 -21 55 -5 13 9 33 16 43 16 10 0 23 5 30 12 7 7 12 8 12 3 0 -4 8 -1 18 8 9 8 36 20 59 26 23 7 45 16 48 21 3 6 17 10 30 10 13 0 27 5 30 10 3 6 16 10 28 10 29 1 75 36 62 48 -5 5 -17 7 -25 5z"/>
<path d="M11782 14864 c-12 -8 -20 -20 -17 -25 10 -15 45 -10 52 7 9 25 -10 36 -35 18z"/>
<path d="M11662 14814 c-26 -18 -21 -34 8 -27 25 7 31 15 21 31 -5 9 -13 8 -29 -4z"/>
<path d="M11525 14761 c-44 -18 -71 -35 -74 -46 -2 -14 1 -16 15 -11 11 4 34 10 51 13 18 3 38 12 44 19 6 8 22 14 35 14 17 0 24 6 24 20 0 26 -11 25 -95 -9z"/>
<path d="M11382 14699 c-13 -5 -20 -13 -17 -19 8 -13 42 -13 51 1 10 17 -9 28 -34 18z"/>
<path d="M11182 14614 c-26 -18 -21 -34 8 -27 25 7 31 15 21 31 -5 9 -13 8 -29 -4z"/>
<path d="M11094 14576 c-18 -14 -18 -15 -1 -21 23 -9 47 1 47 20 0 19 -20 19 -46 1z"/>
<path d="M10963 14520 c-27 -11 -30 -28 -7 -37 11 -4 22 1 30 12 25 34 18 41 -23 25z"/>
<path d="M10822 14459 c-13 -5 -20 -13 -17 -19 8 -13 42 -13 51 1 10 17 -9 28 -34 18z"/>
<path d="M10750 14429 c-8 -5 -32 -16 -53 -25 -21 -8 -37 -20 -34 -27 6 -18 42 -20 57 -2 7 8 23 15 36 15 17 0 24 6 24 19 0 25 -10 31 -30 20z"/>
<path d="M10527 14325 c-4 -8 -3 -16 1 -19 12 -7 53 14 47 24 -9 15 -42 12 -48 -5z"/>
<path d="M10454 14296 c-18 -14 -18 -15 -1 -21 23 -9 47 1 47 20 0 19 -20 19 -46 1z"/>
<path d="M10340 14249 c-120 -55 -173 -84 -169 -94 6 -14 30 -8 86 20 26 14 55 25 64 25 8 0 24 7 35 15 10 8 27 15 37 15 20 0 34 27 21 40 -5 4 -38 -5 -74 -21z"/>
<path d="M10101 14139 c-17 -7 -21 -13 -14 -20 15 -15 47 -7 51 14 4 19 -2 20 -37 6z"/>
<path d="M10030 14110 c-8 -5 -32 -16 -52 -25 -42 -18 -46 -26 -22 -46 8 -7 24 -30 35 -51 20 -39 49 -52 49 -21 0 9 -7 24 -15 33 -19 21 -5 70 20 70 8 0 15 9 15 19 0 24 -10 31 -30 21z"/>
<path d="M10110 13807 c0 -7 6 -22 14 -33 19 -24 41 -6 31 25 -7 23 -45 29 -45 8z"/>
<path d="M13375 13723 c-11 -3 -26 -10 -32 -15 -9 -7 -17 -7 -27 1 -21 17 -91 10 -91 -9 0 -11 13 -15 55 -16 52 -1 78 -18 46 -30 -9 -4 -17 -25 -22 -60 -4 -38 -12 -58 -25 -65 -11 -5 -19 -17 -19 -27 0 -9 -16 -33 -35 -52 -19 -19 -35 -43 -35 -53 0 -11 -11 -32 -25 -49 -14 -16 -25 -42 -25 -58 0 -17 -8 -33 -22 -42 -14 -9 -19 -20 -15 -31 8 -21 29 -13 43 16 32 65 97 184 150 272 33 55 66 114 73 132 7 17 21 39 32 49 36 32 24 49 -26 37z"/>
<path d="M13101 13701 c-12 -8 -12 -12 -2 -25 16 -19 31 -12 31 15 0 21 -7 23 -29 10z"/>
<path d="M10198 13674 c-10 -9 14 -44 30 -44 19 0 11 44 -8 48 -9 1 -19 0 -22 -4z"/>
<path d="M13056 13654 c-13 -34 2 -45 33 -25 12 8 12 12 2 25 -17 20 -27 20 -35 0z"/>
<path d="M10000 13483 c-14 -2 -86 -13 -160 -24 -414 -60 -728 -140 -1007 -255 -243 -101 -389 -192 -540 -337 -151 -146 -233 -291 -274 -483 -18 -83 -21 -121 -16 -234 15 -393 205 -806 607 -1316 187 -238 312 -377 540 -604 l197 -196 7 -96 c6 -97 48 -267 80 -327 9 -17 23 -44 31 -60 9 -16 22 -34 30 -41 8 -7 15 -18 15 -24 0 -16 200 -216 216 -216 6 0 17 -7 24 -15 13 -16 128 -73 210 -103 118 -44 388 -53 525 -18 94 25 252 109 323 172 109 97 192 233 232 377 24 87 27 262 5 352 -8 33 -14 73 -15 90 0 32 -82 206 -106 225 -8 7 -14 18 -14 25 0 14 -198 215 -212 215 -5 0 -28 13 -51 28 -39 26 -112 63 -164 83 -13 5 -33 13 -45 18 -107 44 -429 44 -538 1 -28 -11 -59 -20 -68 -20 -27 0 -209 155 -368 314 -481 480 -621 875 -427 1205 50 85 181 215 285 284 231 152 579 283 1002 377 77 17 143 33 148 36 18 11 5 33 -79 133 -130 153 -164 194 -265 324 -50 64 -94 116 -97 116 -3 -1 -17 -4 -31 -6z"/>
<path d="M13072 13173 c-7 -2 -21 -24 -32 -48 -11 -24 -24 -46 -29 -50 -5 -3 -12 -18 -16 -34 -3 -16 -15 -37 -26 -47 -10 -9 -19 -26 -19 -37 0 -10 -11 -32 -25 -49 -14 -16 -25 -39 -25 -51 0 -11 -10 -31 -21 -43 -22 -24 -20 -58 3 -49 7 3 26 31 41 63 15 31 41 80 56 107 16 28 41 75 57 105 15 30 38 70 50 89 28 42 23 59 -14 44z"/>
<path d="M12353 12943 c-18 -7 -16 -33 2 -33 8 0 15 2 15 4 0 2 3 11 6 20 6 16 0 19 -23 9z"/>
<path d="M12287 12885 c-4 -8 -3 -16 1 -19 12 -7 53 14 47 24 -9 15 -42 12 -48 -5z"/>
<path d="M12102 12745 c-35 -25 -60 -50 -57 -55 9 -15 41 -12 55 5 7 8 18 15 25 15 16 0 55 47 55 66 0 22 -12 17 -78 -31z"/>
<path d="M12832 12728 c-7 -7 -12 -20 -12 -30 0 -10 -6 -21 -14 -24 -8 -3 -17 -17 -21 -31 -3 -14 -16 -40 -29 -57 -12 -17 -28 -44 -36 -61 -8 -16 -20 -37 -26 -45 -7 -8 -13 -17 -13 -20 0 -8 -20 -54 -31 -70 -5 -8 -14 -26 -20 -40 -5 -14 -14 -32 -20 -40 -5 -8 -14 -26 -20 -40 -5 -14 -14 -32 -19 -40 -6 -8 -24 -44 -41 -80 -17 -36 -35 -72 -40 -80 -6 -8 -14 -26 -20 -40 -5 -14 -14 -32 -20 -40 -5 -8 -14 -26 -20 -40 -5 -14 -14 -32 -19 -40 -25 -38 -72 -152 -69 -166 7 -33 25 -13 69 77 221 447 348 701 398 796 32 62 56 114 53 117 -8 9 -17 7 -30 -6z"/>
<path d="M11962 12640 c-49 -35 -53 -50 -13 -50 30 0 71 38 71 66 0 21 -13 17 -58 -16z"/>
<path d="M11816 12534 c-9 -8 -14 -20 -11 -24 8 -14 50 5 53 24 4 21 -22 21 -42 0z"/>
<path d="M11683 12449 c-38 -24 -45 -50 -10 -41 33 8 67 32 67 48 0 20 -20 17 -57 -7z"/>
<path d="M20089 12440 c-184 -29 -394 -151 -518 -300 -156 -187 -229 -403 -218 -645 6 -131 26 -219 77 -328 l31 -66 -57 -93 c-179 -292 -423 -585 -605 -730 -324 -256 -620 -279 -904 -68 -62 46 -184 173 -248 259 -221 295 -441 811 -612 1433 -8 31 -19 59 -24 62 -19 12 -450 -109 -498 -140 -31 -20 -30 -35 22 -307 238 -1242 617 -2036 1101 -2312 261 -149 553 -162 875 -39 427 162 922 589 1415 1219 104 133 190 249 226 307 13 19 29 28 60 33 294 46 534 223 667 491 76 153 107 303 98 467 -8 133 -28 209 -89 336 -44 93 -61 115 -147 201 -83 84 -109 104 -191 144 -52 25 -122 53 -155 62 -73 19 -230 26 -306 14z"/>
<path d="M11528 12345 c-37 -25 -70 -45 -73 -45 -14 0 -85 -54 -85 -65 0 -18 34 -8 56 16 9 10 30 19 46 19 21 0 31 6 37 24 10 24 36 40 51 31 4 -3 13 2 20 10 7 8 19 15 26 15 8 0 14 9 14 20 0 30 -18 25 -92 -25z"/>
<path d="M11021 12345 c-17 -29 -18 -37 -7 -41 8 -3 23 -1 34 5 12 7 31 7 51 1 25 -7 31 -6 31 6 0 8 -10 18 -23 23 -13 5 -29 16 -36 25 -19 23 -27 20 -50 -19z"/>
<path d="M12310 11685 c-13 -16 -7 -45 10 -45 6 0 14 10 19 23 14 36 -5 51 -29 22z"/>
<path d="M12277 11613 c-4 -3 -7 -14 -7 -23 0 -9 -9 -25 -20 -35 -11 -10 -20 -27 -20 -38 0 -11 -6 -28 -14 -36 -19 -22 -37 -89 -25 -97 11 -6 29 4 29 16 0 5 20 51 45 103 25 52 45 100 45 106 0 12 -23 15 -33 4z"/>
<path d="M12144 11310 c-4 -16 -13 -35 -20 -41 -8 -6 -14 -21 -14 -32 0 -11 -9 -30 -19 -41 -23 -25 -32 -87 -14 -93 7 -3 16 4 19 14 5 16 25 59 79 178 15 32 12 45 -11 45 -8 0 -17 -13 -20 -30z"/>
<path d="M10470 11306 c-13 -16 -7 -46 9 -46 12 0 22 43 12 53 -4 4 -14 1 -21 -7z"/>
<path d="M12030 11045 c-7 -8 -10 -18 -6 -22 3 -4 -2 -16 -13 -27 -23 -25 -32 -87 -14 -93 7 -3 16 4 19 14 3 10 14 36 24 58 24 53 28 77 14 82 -6 2 -17 -3 -24 -12z"/>
<path d="M10323 10914 c-7 -18 11 -39 26 -30 17 11 13 46 -4 46 -9 0 -18 -7 -22 -16z"/>
<path d="M11953 10848 c-15 -21 -14 -58 3 -58 15 0 21 10 26 44 4 23 -15 32 -29 14z"/>
<path d="M10300 10821 c-14 -27 -13 -31 10 -31 15 0 20 7 20 25 0 30 -15 33 -30 6z"/>
<path d="M11910 10734 c-6 -15 -9 -33 -6 -41 8 -21 36 -3 36 23 0 13 0 27 1 31 2 21 -22 11 -31 -13z"/>
<path d="M11884 10652 c-17 -10 -22 -64 -7 -69 7 -3 16 4 19 14 3 10 9 25 14 34 13 25 -3 37 -26 21z"/>
<path d="M11837 10533 c-12 -22 -16 -63 -6 -69 15 -9 26 5 34 44 5 25 3 32 -9 32 -8 0 -17 -3 -19 -7z"/>
<path d="M11796 10408 c-11 -35 -14 -78 -7 -83 13 -8 28 16 35 58 6 30 4 37 -9 37 -9 0 -17 -6 -19 -12z"/>
<path d="M11757 10274 c-11 -11 -8 -74 2 -74 13 0 18 10 22 44 4 28 -10 44 -24 30z"/>
<path d="M11729 10133 c-11 -3 -18 -18 -22 -44 -9 -64 -30 -81 -102 -77 -48 2 -60 0 -60 -12 0 -9 14 -17 35 -22 19 -3 54 -12 78 -19 23 -6 45 -9 49 -6 3 4 9 23 14 44 33 154 32 141 8 136z"/>
<path d="M11202 10078 c4 -12 87 -32 96 -23 3 2 2 11 -1 20 -8 19 -101 22 -95 3z"/>
<path d="M11382 10038 c6 -16 60 -30 71 -19 16 16 -3 31 -39 31 -23 0 -34 -4 -32 -12z"/>
<path d="M8056 8491 c-4 -6 -4 -15 -1 -21 10 -15 71 -12 85 5 10 13 9 15 -11 15 -13 0 -34 3 -45 6 -12 3 -25 1 -28 -5z"/>
<path d="M8155 8460 c-3 -5 1 -10 10 -10 9 0 13 5 10 10 -3 6 -8 10 -10 10 -2 0 -7 -4 -10 -10z"/>
<path d="M6132 8396 c-7 -16 -24 -27 -54 -34 -25 -6 -56 -21 -71 -32 -19 -15 -31 -18 -44 -12 -29 15 -87 -16 -77 -42 4 -10 -39 -50 -71 -66 -13 -6 -176 -112 -235 -153 -81 -55 -194 -140 -236 -176 -22 -20 -74 -63 -115 -96 -99 -80 -384 -359 -472 -465 -236 -280 -361 -472 -397 -610 -7 -25 -16 -55 -21 -68 -11 -29 -12 -369 0 -376 4 -3 18 -38 30 -78 73 -238 179 -436 356 -658 28 -36 57 -75 64 -87 15 -30 48 -30 144 2 325 106 609 265 932 523 140 112 431 401 525 520 35 45 68 82 72 82 4 0 57 -75 119 -167 241 -361 494 -638 725 -794 568 -383 1144 -206 1703 523 228 298 503 808 707 1311 73 180 100 265 88 277 -36 36 -692 360 -728 360 -7 0 -21 -37 -35 -92 -34 -135 -143 -467 -201 -612 -62 -156 -164 -363 -237 -478 l-55 -88 -663 0 c-365 0 -670 3 -679 6 -18 7 -182 192 -250 284 -27 36 -63 82 -79 102 l-29 37 25 73 c136 395 108 705 -82 898 -117 119 -256 170 -468 172 -106 1 -125 4 -140 20 -22 24 -38 23 -51 -6z"/>
<path d="M16023 7724 c-7 -3 -22 -22 -35 -42 -12 -20 -34 -53 -49 -72 -14 -19 -59 -80 -99 -135 -84 -115 -118 -162 -219 -297 -50 -68 -71 -104 -67 -116 4 -12 47 -36 119 -67 172 -74 508 -244 647 -327 589 -352 840 -706 755 -1063 -54 -230 -262 -472 -598 -695 -111 -73 -336 -200 -355 -200 -7 0 -52 20 -100 44 -191 96 -426 154 -571 141 -91 -8 -211 -45 -274 -85 -146 -92 -241 -262 -268 -480 -10 -82 -15 -98 -38 -118 l-26 -23 28 -22 c24 -20 27 -30 27 -81 0 -48 4 -62 23 -80 12 -11 49 -84 81 -161 33 -77 93 -207 134 -290 121 -244 420 -729 502 -815 19 -19 56 -62 84 -95 90 -108 350 -357 418 -402 85 -55 189 -100 293 -126 112 -28 366 -30 480 -4 94 22 208 56 285 87 76 30 286 137 335 170 22 15 50 30 62 34 42 13 44 50 12 209 -99 508 -394 1064 -807 1524 -66 74 -80 103 -51 103 15 0 377 177 454 222 133 78 171 103 295 193 151 108 345 298 420 409 267 399 222 846 -134 1321 -97 131 -275 323 -397 431 -194 170 -277 235 -604 472 -161 116 -719 446 -746 441 -2 0 -9 -3 -16 -5z"/>
<path d="M4095 6324 c-8 -20 -15 -58 -15 -85 0 -38 4 -51 22 -63 25 -18 84 -21 93 -6 3 6 15 10 25 10 22 0 87 39 94 58 3 7 -3 12 -18 12 -13 0 -26 -6 -29 -14 -3 -8 -29 -16 -63 -21 -49 -6 -60 -4 -71 11 -16 22 -17 58 -1 83 12 20 5 51 -12 51 -5 0 -17 -16 -25 -36z"/>
<path d="M3900 6185 c0 -14 5 -25 10 -25 6 0 10 11 10 25 0 14 -4 25 -10 25 -5 0 -10 -11 -10 -25z"/>
<path d="M3880 6016 c0 -76 11 -152 29 -196 10 -25 12 99 4 189 -5 53 -13 86 -20 89 -10 3 -13 -18 -13 -82z"/>
<path d="M15634 2686 c-7 -18 92 -149 168 -223 55 -54 157 -133 170 -133 21 0 0 25 -92 111 -56 52 -118 117 -140 144 -67 87 -99 118 -106 101z"/>
<path d="M16750 1630 c0 -5 7 -10 15 -10 8 0 15 5 15 10 0 6 -7 10 -15 10 -8 0 -15 -4 -15 -10z"/>
<path d="M16800 1611 c0 -9 16 -13 135 -31 72 -11 145 -5 145 11 0 5 -38 9 -84 9 -47 0 -88 5 -91 10 -8 12 -105 13 -105 1z"/>
</g>
</g>
  <g id="id2:id2" transform="matrix(1.25,0,0,1.25,0.0,0.0)"><g transform="translate(0.000000,1158.400000) scale(0.040000,-0.040000)" fill="#c1272d" stroke="none">
<path d="M17522 17013 c-6 -9 -6 -28 -2 -42 113 -359 212 -593 344 -812 93 -154 129 -204 153 -207 20 -3 217 92 328 158 28 16 64 36 81 44 17 8 36 22 43 30 8 9 31 21 53 28 22 6 49 22 61 35 12 12 27 23 32 23 18 0 95 54 95 65 0 12 -110 120 -195 192 -242 202 -534 361 -835 453 -58 18 -109 36 -114 41 -15 14 -34 11 -44 -8z"/>
</g>
</g>
  <g id="id3:id3" transform="matrix(1.25,0,0,1.25,0.0,0.0)"><g transform="translate(0.000000,1158.400000) scale(0.040000,-0.040000)" fill="#f05b26" stroke="none">
<path d="M17280 18633 c1 -431 80 -1039 193 -1487 l33 -129 59 -19 c193 -60 263 -83 285 -95 14 -7 28 -13 32 -13 18 0 243 -114 338 -172 212 -128 411 -299 430 -369 6 -22 13 -39 16 -39 48 0 452 273 724 489 243 192 519 457 675 646 108 132 235 305 235 321 0 15 -9 18 -120 39 -283 55 -635 143 -980 246 -218 65 -639 204 -790 261 -228 86 -557 216 -686 271 -155 67 -189 82 -333 148 -46 22 -90 39 -97 39 -11 0 -14 -28 -14 -137z"/>
<path d="M18593 16290 c-31 -12 -29 -30 2 -30 14 0 25 2 25 4 0 2 3 11 6 20 7 18 0 19 -33 6z"/>
<path d="M18493 16227 c-23 -12 -51 -31 -63 -42 -11 -10 -28 -20 -36 -21 -24 -4 -29 -13 -10 -20 11 -4 26 2 40 15 12 11 32 21 43 21 20 0 73 44 73 61 0 11 4 12 -47 -14z"/>
<path d="M18320 16110 c0 -5 5 -10 10 -10 6 0 10 5 10 10 0 6 -4 10 -10 10 -5 0 -10 -4 -10 -10z"/>
</g>
</g>
  <g id="id4:id4" transform="matrix(1.25,0,0,1.25,0.0,0.0)"><g transform="translate(0.000000,1158.400000) scale(0.040000,-0.040000)" fill="#000000" stroke="none">
<path d="M16820 28830 c0 -5 7 -10 15 -10 8 0 15 5 15 10 0 6 -7 10 -15 10 -8 0 -15 -4 -15 -10z"/>
<path d="M17100 28790 c0 -5 7 -10 15 -10 8 0 15 5 15 10 0 6 -7 10 -15 10 -8 0 -15 -4 -15 -10z"/>
<path d="M20480 27430 c0 -5 5 -10 10 -10 6 0 10 5 10 10 0 6 -4 10 -10 10 -5 0 -10 -4 -10 -10z"/>
<path d="M16703 22205 c-267 -48 -545 -208 -714 -413 -201 -240 -290 -488 -290 -798 1 -212 43 -386 138 -566 389 -737 1388 -881 1962 -283 438 457 466 1138 67 1633 -68 83 -187 189 -289 256 -119 77 -294 145 -446 171 -102 18 -329 18 -428 0z m329 -366 c177 -38 329 -199 359 -382 11 -66 5 -190 -12 -234 -13 -36 -2 -80 22 -86 10 -3 19 -12 19 -21 0 -9 7 -27 15 -39 28 -43 45 -168 35 -259 -11 -103 -23 -145 -66 -229 -34 -68 -157 -203 -212 -233 -119 -65 -194 -86 -317 -93 -126 -6 -214 12 -333 69 -115 56 -244 195 -291 314 -26 66 -51 180 -51 229 0 64 36 215 65 274 36 73 101 150 123 145 32 -8 40 11 51 109 15 131 46 206 120 288 62 69 146 121 230 145 59 16 175 17 243 3z"/>
<path d="M9510 17290 c0 -5 9 -10 20 -10 11 0 20 5 20 10 0 6 -9 10 -20 10 -11 0 -20 -4 -20 -10z"/>
<path d="M9955 5034 c-266 -7 -868 -26 -1105 -34 -229 -9 -328 -14 -750 -40 -91 -6 -241 -15 -335 -20 -93 -5 -222 -14 -285 -20 -63 -5 -169 -14 -235 -20 -66 -5 -172 -14 -235 -20 -63 -5 -169 -14 -235 -20 -66 -5 -163 -14 -215 -20 -52 -6 -138 -15 -190 -21 -144 -15 -245 -27 -350 -39 -52 -6 -133 -15 -180 -20 -87 -9 -201 -24 -322 -41 -38 -5 -98 -13 -135 -18 -38 -5 -104 -15 -148 -21 -44 -6 -109 -15 -145 -20 -60 -8 -115 -16 -275 -40 -59 -9 -140 -23 -240 -41 -27 -5 -77 -13 -110 -18 -33 -6 -87 -15 -120 -21 -33 -6 -85 -15 -115 -20 -30 -5 -82 -14 -115 -20 -33 -6 -85 -15 -115 -21 -30 -5 -75 -13 -100 -18 -25 -5 -72 -14 -105 -21 -138 -27 -151 -30 -285 -60 -19 -4 -71 -15 -115 -24 -44 -9 -96 -20 -115 -26 -19 -5 -57 -14 -85 -20 -56 -12 -371 -91 -482 -121 -40 -10 -106 -28 -145 -38 -40 -11 -104 -29 -143 -41 -78 -24 -113 -34 -165 -48 -19 -5 -84 -26 -145 -46 -60 -20 -139 -45 -175 -57 -36 -11 -74 -24 -85 -29 -11 -4 -46 -17 -77 -29 -32 -12 -84 -30 -115 -42 -32 -12 -68 -25 -80 -30 -13 -5 -34 -13 -48 -19 -14 -5 -35 -14 -47 -19 -13 -5 -44 -18 -70 -30 -26 -12 -50 -21 -53 -21 -22 0 -416 -195 -530 -263 -360 -214 -572 -410 -684 -633 -46 -93 -63 -152 -68 -246 -10 -153 27 -272 130 -426 183 -275 575 -544 1157 -795 25 -10 54 -22 65 -27 30 -11 65 -26 108 -45 42 -18 175 -67 247 -91 25 -8 54 -19 65 -24 28 -13 336 -113 400 -130 17 -5 77 -22 135 -40 165 -49 337 -95 540 -145 80 -20 161 -40 180 -45 19 -5 58 -14 85 -20 28 -6 66 -15 85 -20 19 -4 60 -13 90 -20 30 -6 71 -15 90 -20 19 -4 59 -13 87 -19 29 -6 74 -16 100 -21 66 -14 199 -41 253 -51 25 -4 72 -13 105 -20 33 -6 83 -15 110 -19 28 -5 78 -13 113 -19 34 -6 88 -15 120 -21 31 -5 84 -14 117 -20 33 -6 85 -15 115 -20 30 -5 82 -14 115 -20 33 -6 92 -16 130 -21 39 -6 99 -15 135 -20 36 -5 97 -14 135 -19 39 -5 104 -14 145 -20 41 -6 107 -15 145 -20 39 -6 102 -15 140 -20 104 -16 257 -34 490 -60 50 -5 131 -14 180 -20 50 -5 131 -14 180 -20 50 -5 131 -14 180 -20 50 -5 146 -14 215 -20 69 -5 177 -14 240 -20 63 -5 169 -14 235 -20 66 -5 172 -15 235 -20 63 -6 189 -15 280 -20 91 -5 242 -14 335 -20 887 -54 1731 -79 2695 -79 967 0 1809 24 2705 79 94 6 247 15 340 20 94 5 186 12 205 14 19 3 103 10 185 16 83 6 191 15 240 20 50 5 153 14 230 20 145 11 278 23 428 40 48 6 128 15 177 20 50 6 131 15 180 20 50 6 131 15 180 20 196 22 278 32 335 40 33 5 98 14 145 20 47 6 110 15 140 20 30 5 93 14 140 20 47 6 112 15 145 20 33 5 96 14 140 20 44 6 100 15 125 20 25 5 79 14 120 20 41 6 93 15 115 20 22 5 74 14 115 20 41 6 95 15 120 20 25 5 73 13 108 19 34 6 88 16 120 21 88 15 461 89 512 101 25 6 63 14 85 19 138 30 370 83 435 100 19 5 82 21 140 35 58 15 138 35 178 46 39 10 105 28 145 38 39 11 104 29 142 41 70 22 105 32 168 49 68 18 359 116 485 162 28 10 78 29 110 40 31 12 71 27 87 34 17 7 75 31 130 53 126 51 206 86 375 170 450 222 763 474 898 722 66 121 82 185 82 320 0 135 -16 199 -82 320 -114 208 -345 414 -688 610 -110 63 -291 155 -392 199 -27 12 -67 30 -90 40 -24 11 -79 33 -123 51 -44 17 -93 37 -110 45 -16 7 -55 22 -85 33 -30 11 -75 28 -100 37 -25 9 -65 23 -90 31 -25 8 -54 19 -65 23 -11 5 -94 32 -185 61 -91 28 -176 55 -190 60 -14 4 -45 13 -70 20 -25 7 -64 19 -87 26 -101 32 -400 110 -673 175 -118 28 -147 35 -255 59 -62 14 -133 30 -180 41 -66 15 -435 86 -510 99 -38 6 -89 15 -113 20 -97 22 -120 16 -267 -70 -22 -13 -67 -36 -100 -52 -110 -54 -219 -106 -277 -132 -32 -14 -58 -28 -58 -31 0 -3 37 -45 83 -93 75 -80 149 -170 236 -290 19 -26 52 -70 73 -98 21 -28 38 -54 38 -57 0 -4 22 -39 48 -79 99 -148 206 -361 303 -603 4 -11 13 -38 20 -60 6 -22 15 -47 19 -55 4 -8 13 -40 20 -70 6 -30 15 -62 20 -70 4 -8 12 -46 19 -85 7 -38 17 -84 22 -101 5 -17 9 -45 9 -64 0 -38 16 -99 38 -150 17 -39 26 -75 49 -200 13 -71 13 -97 3 -159 -6 -41 -15 -81 -20 -90 -4 -9 -18 -37 -31 -64 -44 -92 -176 -187 -309 -222 -139 -36 -514 -39 -536 -4 -3 5 -20 9 -38 9 -17 0 -36 4 -42 8 -5 5 -29 14 -54 21 -25 7 -54 17 -65 21 -11 5 -38 14 -60 21 -63 19 -98 30 -122 40 -13 5 -33 13 -45 18 -55 20 -248 119 -303 155 -314 201 -591 509 -774 861 -29 54 -56 104 -60 110 -4 5 -14 26 -21 45 -13 34 -34 83 -78 180 -11 25 -24 59 -28 75 -4 17 -10 35 -14 40 -10 15 -101 314 -113 375 -3 14 -11 43 -17 65 -6 22 -15 63 -21 90 -5 28 -14 70 -20 95 -5 25 -14 103 -19 175 -9 122 -11 130 -36 150 l-27 21 28 21 c26 19 29 27 36 109 9 108 19 163 30 170 5 3 9 12 9 19 0 53 103 206 175 262 25 19 45 38 45 42 0 7 -36 14 -200 37 -19 2 -91 9 -160 14 -69 6 -179 15 -245 20 -214 19 -358 31 -475 41 -63 5 -189 14 -280 19 -91 5 -237 14 -325 19 -511 32 -564 34 -1325 61 -268 10 -1975 20 -2215 14z"/>
</g>
</g>
  <g id="id5:id5" transform="matrix(1.25,0,0,1.25,0.0,0.0)"><g transform="translate(0.000000,1158.400000) scale(0.040000,-0.040000)" fill="#333333" stroke="none">
<path d="M16324 21272 c-50 -63 -103 -165 -116 -227 -25 -115 -27 -198 -9 -282 54 -243 211 -413 457 -495 100 -33 277 -32 384 2 107 34 184 83 272 171 122 123 178 259 178 428 0 133 -51 310 -85 297 -8 -3 -17 -1 -20 4 -11 18 -22 10 -36 -22 -24 -57 -146 -176 -213 -208 -198 -91 -409 -57 -558 92 -60 60 -117 160 -132 234 -5 22 -17 35 -41 47 l-35 17 -46 -58z"/>
</g>
</g>
  <g id="id6:id6" transform="matrix(1.25,0,0,1.25,0.0,0.0)"><g transform="translate(0.000000,1158.400000) scale(0.040000,-0.040000)" fill="#f4c283" stroke="none">
<path d="M16150 23741 c0 -6 4 -13 10 -16 5 -3 7 -20 3 -36 -6 -29 -4 -31 23 -27 21 2 29 -1 29 -12 1 -29 15 -38 72 -43 32 -3 78 -11 103 -17 25 -6 72 -14 105 -19 59 -9 126 -24 275 -61 41 -10 122 -30 180 -45 146 -35 228 -58 350 -95 58 -18 119 -36 135 -40 17 -5 73 -23 125 -40 52 -17 109 -35 125 -40 63 -17 465 -166 645 -238 69 -28 252 -107 408 -176 156 -69 292 -126 302 -126 10 0 22 -4 25 -10 3 -5 15 -10 27 -10 11 0 33 -9 49 -21 35 -25 58 -16 32 13 -10 11 -43 36 -73 56 -30 20 -71 51 -90 69 -19 18 -47 41 -62 51 -14 9 -59 39 -99 67 -41 27 -82 54 -91 60 -9 5 -53 33 -98 60 -242 149 -367 218 -380 210 -6 -3 -13 1 -16 10 -4 9 -13 14 -21 11 -7 -3 -16 1 -20 10 -3 8 -12 13 -20 10 -7 -3 -16 1 -20 10 -3 8 -12 13 -20 10 -7 -3 -16 0 -19 8 -3 7 -25 24 -50 36 l-44 23 -14 -19 c-12 -15 -18 -17 -37 -7 -27 12 -94 37 -219 81 -148 52 -203 70 -287 91 -46 12 -118 30 -160 41 -233 58 -572 122 -753 142 -47 5 -133 15 -192 23 -121 17 -238 20 -238 6z m1924 -402 c-3 -5 -10 -7 -15 -3 -5 3 -7 10 -3 15 3 5 10 7 15 3 5 -3 7 -10 3 -15z"/>
<path d="M17920 23430 c0 -5 5 -10 10 -10 6 0 10 5 10 10 0 6 -4 10 -10 10 -5 0 -10 -4 -10 -10z"/>
<path d="M17960 23410 c0 -5 5 -10 10 -10 6 0 10 5 10 10 0 6 -4 10 -10 10 -5 0 -10 -4 -10 -10z"/>
<path d="M18000 23390 c0 -5 5 -10 10 -10 6 0 10 5 10 10 0 6 -4 10 -10 10 -5 0 -10 -4 -10 -10z"/>
<path d="M14320 19976 c-3 -2 -54 -12 -114 -21 -364 -54 -687 -231 -876 -480 -85 -112 -133 -208 -168 -333 -23 -84 -26 -116 -26 -237 0 -153 12 -220 66 -349 83 -201 231 -384 436 -537 138 -104 357 -213 497 -249 17 -4 55 -14 85 -23 163 -46 208 -52 455 -52 196 0 255 3 320 18 260 59 425 129 607 257 199 140 344 352 400 580 29 119 29 293 -1 410 -129 506 -627 903 -1251 997 -100 15 -420 30 -430 19z"/>
<path d="M13042 15863 c-6 -32 -14 -85 -17 -118 -3 -33 -13 -100 -21 -149 l-16 -89 26 -25 c22 -23 28 -24 49 -13 20 11 35 10 86 -3 35 -9 72 -16 84 -16 12 0 65 -9 117 -19 339 -69 923 -118 1198 -101 91 6 127 25 103 54 -7 8 -10 24 -6 35 8 27 -16 38 -107 51 -385 54 -1076 260 -1423 426 -28 13 -53 24 -56 24 -3 0 -10 -26 -17 -57z"/>
<path d="M13140 15051 c0 -20 6 -30 20 -34 27 -7 25 -26 -4 -37 -13 -5 -27 -13 -30 -19 -4 -6 -36 -24 -71 -41 -35 -17 -67 -35 -70 -40 -3 -5 -35 -23 -70 -40 -35 -17 -67 -35 -70 -40 -3 -5 -52 -32 -109 -60 -57 -28 -110 -57 -116 -65 -7 -8 -18 -15 -25 -15 -7 0 -18 -7 -25 -15 -7 -8 -41 -29 -75 -45 -34 -16 -68 -37 -75 -45 -7 -8 -23 -15 -35 -15 -12 0 -28 -7 -35 -15 -7 -8 -41 -29 -76 -45 -35 -17 -66 -35 -69 -40 -3 -5 -35 -23 -70 -40 -35 -17 -67 -35 -70 -40 -3 -5 -35 -23 -70 -40 -35 -17 -67 -35 -70 -40 -3 -5 -34 -23 -69 -40 -35 -16 -69 -37 -76 -45 -7 -8 -18 -15 -25 -15 -6 0 -20 -9 -30 -20 -10 -11 -28 -20 -40 -20 -13 0 -28 -7 -35 -15 -7 -8 -50 -33 -96 -55 -46 -23 -86 -45 -89 -51 -4 -5 -26 -18 -50 -29 -24 -11 -46 -24 -50 -30 -3 -5 -34 -23 -69 -40 -35 -16 -69 -37 -76 -45 -7 -8 -23 -15 -35 -15 -12 0 -28 -7 -35 -15 -7 -8 -41 -29 -76 -45 -35 -17 -66 -35 -69 -40 -3 -5 -34 -23 -69 -40 -35 -16 -69 -37 -76 -45 -7 -8 -18 -15 -25 -15 -6 0 -20 -9 -30 -20 -10 -11 -28 -20 -40 -20 -13 0 -28 -7 -35 -15 -7 -8 -41 -29 -76 -45 -35 -17 -66 -35 -69 -40 -3 -5 -31 -21 -63 -36 -31 -15 -67 -36 -79 -47 -29 -26 -57 -19 -63 18 -3 20 -14 34 -33 43 -18 9 -27 21 -27 38 0 20 -5 24 -30 24 -16 0 -30 -4 -30 -9 0 -21 125 -201 140 -201 8 0 39 16 67 35 29 19 54 35 57 35 3 0 78 42 168 94 90 51 192 109 228 128 36 20 96 55 135 78 38 24 83 49 100 57 16 8 53 27 80 44 28 16 57 32 65 36 8 3 26 14 40 23 14 9 61 36 105 60 44 24 92 51 107 61 14 11 29 19 32 19 4 0 36 18 72 40 36 22 68 40 70 40 2 0 76 42 166 94 90 51 192 109 228 128 99 54 143 79 170 98 14 10 43 26 65 37 22 11 58 30 80 43 22 12 60 34 85 48 25 14 62 36 82 49 21 12 40 23 42 23 3 0 29 14 58 31 29 18 78 45 108 62 30 17 67 38 82 49 14 10 29 18 32 18 3 0 44 23 92 50 48 28 88 50 89 50 2 0 33 18 69 40 36 22 70 40 76 40 5 0 10 8 10 18 0 19 -36 47 -60 47 -8 0 -15 7 -16 15 -2 35 -5 40 -24 40 -15 0 -20 -7 -20 -29z"/>
<path d="M4268 6666 c-16 -19 -28 -38 -28 -41 0 -4 -8 -19 -18 -33 -20 -29 -82 -140 -82 -148 0 -2 17 -4 38 -4 32 0 39 4 51 33 8 17 21 41 30 52 26 30 60 106 63 140 4 42 -21 43 -54 1z"/>
</g>
</g>
  <g id="id7:id7" transform="matrix(1.25,0,0,1.25,0.0,0.0)"><g transform="translate(0.000000,1158.400000) scale(0.040000,-0.040000)" fill="#056a3a" stroke="none">
<path d="M9229 9808 c-331 -190 -686 -434 -944 -649 -200 -167 -560 -543 -553 -579 2 -9 37 -25 88 -42 47 -15 141 -45 210 -67 231 -74 543 -192 905 -344 621 -260 1192 -586 1605 -914 163 -129 374 -325 460 -428 34 -41 70 -75 79 -75 10 1 32 35 61 93 106 217 281 483 449 681 97 115 305 326 321 326 5 0 54 -53 108 -118 338 -401 750 -772 1152 -1037 223 -147 249 -163 410 -251 342 -186 690 -330 1001 -413 179 -48 147 -68 349 210 96 133 222 305 280 384 58 79 141 192 184 252 43 59 99 135 123 168 67 90 505 689 567 775 30 41 109 149 175 240 186 253 211 289 206 303 -3 7 -86 27 -208 50 -111 21 -294 56 -407 78 -113 22 -248 49 -300 59 -139 26 -261 60 -500 140 -63 21 -171 48 -240 60 -475 82 -865 165 -1340 286 -589 150 -988 276 -2080 654 -162 56 -307 105 -322 107 -24 5 -28 1 -38 -38 -38 -154 -103 -273 -200 -369 -101 -101 -241 -177 -384 -207 -92 -19 -257 -18 -370 2 -238 42 -484 225 -614 457 -21 37 -82 218 -82 242 0 7 -6 19 -13 25 -11 8 -43 -6 -138 -61z"/>
</g>
</g>
  <g id="id8:id8" transform="matrix(1.25,0,0,1.25,0.0,0.0)"><g transform="translate(0.000000,1158.400000) scale(0.040000,-0.040000)" fill="#42210b" stroke="none">
<path d="M15518 28880 c-131 -5 -311 -16 -400 -25 -90 -9 -204 -20 -253 -25 -105 -10 -335 -43 -450 -65 -182 -33 -353 -67 -405 -80 -30 -8 -102 -26 -160 -40 -737 -183 -1550 -549 -2155 -970 -273 -190 -375 -268 -635 -485 -118 -98 -449 -417 -607 -585 -259 -276 -536 -616 -744 -915 -25 -36 -72 -103 -105 -150 -94 -134 -249 -380 -360 -570 -397 -678 -747 -1446 -1036 -2270 -348 -992 -613 -2076 -782 -3200 -63 -418 -136 -1084 -136 -1241 l0 -68 96 -106 c144 -160 330 -317 507 -429 86 -54 251 -144 306 -166 170 -68 215 -84 305 -111 504 -150 1177 -138 1796 32 297 82 658 221 686 264 7 11 15 43 19 70 38 290 160 809 300 1275 166 550 449 1305 665 1775 20 44 68 148 106 230 80 175 311 635 409 815 37 69 84 154 103 190 19 36 62 112 95 170 33 58 71 125 85 150 14 25 83 142 155 260 381 634 749 1171 1277 1865 130 172 555 689 710 866 41 47 131 149 200 227 68 78 131 142 139 142 7 0 37 -19 65 -43 52 -43 76 -62 382 -292 202 -151 472 -345 619 -442 252 -167 508 -334 535 -348 18 -9 29 -19 27 -22 -3 -3 -66 -5 -139 -4 -394 4 -805 -122 -1198 -367 -136 -85 -244 -167 -352 -267 -83 -75 -111 -116 -71 -101 10 4 49 11 88 16 85 12 256 37 307 46 21 4 43 13 49 20 6 8 22 14 35 14 29 0 32 17 4 22 -34 5 -25 22 26 49 27 14 78 42 114 61 36 19 97 45 135 58 39 13 104 34 145 48 41 14 93 33 116 43 22 10 65 27 95 39 30 12 63 27 74 34 92 58 367 134 514 142 98 6 171 -3 172 -21 0 -5 -23 -18 -53 -27 -29 -9 -98 -31 -152 -48 -140 -44 -168 -57 -164 -76 2 -12 -16 -21 -82 -38 -47 -12 -94 -27 -105 -34 -24 -14 -134 -62 -141 -62 -17 0 -134 -77 -134 -88 0 -22 -60 -39 -164 -45 -54 -4 -104 -11 -110 -16 -6 -5 -27 -11 -46 -13 -23 -2 -35 -8 -35 -18 0 -17 33 -21 285 -39 332 -23 517 -50 804 -117 189 -45 498 -136 610 -181 34 -13 92 -36 131 -50 300 -110 748 -338 1080 -551 160 -102 419 -287 476 -341 36 -33 99 -74 105 -68 7 7 -155 267 -279 447 -119 172 -273 373 -376 488 -44 50 -70 87 -65 92 6 6 55 -13 124 -46 166 -81 428 -200 720 -325 893 -386 1855 -711 2808 -950 46 -11 89 -19 96 -16 20 8 59 227 97 547 5 41 12 266 15 500 5 354 4 452 -10 585 -57 551 -148 951 -322 1412 -80 211 -178 428 -254 558 -10 17 -37 66 -60 110 -124 230 -351 543 -578 797 -564 633 -1292 1121 -2234 1499 -374 150 -933 319 -1363 413 -38 8 -124 27 -190 41 -65 15 -127 30 -136 35 -9 5 -56 14 -105 19 -90 10 -215 28 -379 56 -49 8 -137 19 -195 25 -154 13 -817 20 -1092 10z m-1158 -259 c-13 -9 -67 -52 -118 -96 -52 -44 -104 -87 -116 -95 -37 -25 -119 -92 -177 -145 -31 -27 -87 -75 -125 -105 -38 -30 -98 -82 -135 -115 -36 -33 -117 -105 -180 -160 -123 -108 -576 -542 -754 -721 -180 -181 -464 -482 -555 -588 -47 -54 -116 -133 -155 -175 -38 -42 -97 -110 -130 -150 -33 -41 -80 -98 -105 -126 -25 -28 -67 -80 -95 -115 -27 -34 -66 -81 -86 -104 -20 -23 -62 -75 -93 -116 -31 -41 -87 -114 -124 -161 -86 -110 -104 -133 -193 -254 -41 -55 -84 -113 -96 -130 -23 -30 -76 -105 -159 -225 -135 -195 -190 -277 -244 -365 -17 -27 -39 -61 -49 -75 -28 -37 -138 -213 -254 -405 -45 -76 -203 -352 -294 -515 -94 -169 -273 -527 -371 -740 -44 -96 -91 -200 -105 -230 -27 -60 -90 -208 -117 -280 -10 -25 -39 -97 -65 -160 -26 -63 -60 -151 -75 -195 -16 -44 -50 -138 -75 -210 -50 -138 -92 -265 -126 -380 -12 -38 -30 -98 -40 -132 -56 -180 -81 -269 -119 -423 -41 -164 -61 -246 -81 -317 -10 -39 -19 -82 -19 -94 0 -13 -9 -62 -19 -109 -59 -258 -126 -658 -142 -835 -4 -55 -13 -125 -19 -155 -22 -121 -57 -650 -59 -898 -1 -191 -5 -205 -84 -286 -127 -129 -282 -149 -462 -59 -27 14 -67 40 -88 57 -85 69 -208 193 -224 226 -15 31 -15 71 -9 400 4 201 11 412 16 470 20 255 41 480 49 535 6 33 15 105 21 160 6 55 17 136 25 180 7 44 23 141 35 215 12 74 30 176 40 225 10 50 22 110 25 135 4 25 13 72 20 105 95 422 102 449 157 655 108 399 288 949 397 1211 6 13 22 56 37 94 15 39 34 88 44 110 10 22 39 90 64 150 26 61 51 119 56 130 65 143 213 456 229 485 4 8 64 119 131 245 68 127 142 259 165 295 23 36 65 106 94 155 79 136 84 144 241 381 131 197 248 362 328 464 15 19 45 60 67 90 21 30 53 71 69 91 17 20 54 65 81 100 28 34 73 88 100 119 28 32 70 83 95 115 172 221 862 911 1115 1115 37 30 93 78 124 105 31 28 90 77 131 108 103 79 209 161 243 189 16 13 43 33 60 46 75 53 106 75 177 127 70 52 133 96 171 120 9 5 65 43 124 83 59 39 110 72 113 72 3 0 15 8 26 19 18 15 185 120 277 172 16 9 34 21 41 26 7 6 33 21 58 35 25 14 90 51 145 83 55 32 143 81 195 108 52 28 111 60 130 72 38 23 513 258 598 295 134 60 228 96 236 92 5 -3 -1 -13 -14 -21z"/>
<path d="M15160 14433 c0 -38 12 -57 104 -168 48 -59 35 -16 -24 78 -33 53 -60 100 -60 106 0 5 -4 13 -10 16 -6 4 -10 -9 -10 -32z"/>
<path d="M15400 14056 c0 -17 72 -132 84 -134 22 -5 20 16 -5 58 -33 54 -79 99 -79 76z"/>
<path d="M15849 12399 c-8 -16 -8 -24 1 -33 8 -8 16 -5 30 14 10 13 16 28 14 32 -10 15 -33 8 -45 -13z"/>
</g>
</g>
  <g id="id9:id9" transform="matrix(1.25,0,0,1.25,0.0,0.0)"><g transform="translate(0.000000,1158.400000) scale(0.040000,-0.040000)" fill="#684d3c" stroke="none">
<path d="M14497 28774 c-11 -11 3 -24 24 -24 12 0 19 5 17 13 -5 14 -31 21 -41 11z"/>
<path d="M14411 28690 c-41 -22 -111 -54 -155 -71 -106 -42 -590 -278 -747 -364 -265 -145 -242 -132 -439 -247 -375 -220 -616 -380 -1004 -667 -180 -134 -206 -154 -439 -346 -422 -346 -929 -848 -1262 -1249 -49 -60 -118 -143 -153 -185 -231 -279 -593 -796 -814 -1164 -113 -188 -350 -618 -403 -732 -13 -27 -58 -122 -100 -210 -42 -88 -97 -207 -122 -265 -24 -58 -51 -118 -58 -135 -39 -88 -105 -247 -105 -252 0 -5 -21 -61 -106 -278 -53 -136 -263 -798 -292 -920 -6 -22 -25 -94 -42 -160 -18 -66 -36 -136 -40 -155 -5 -19 -18 -75 -29 -125 -33 -139 -71 -312 -86 -395 -32 -179 -47 -261 -66 -357 -10 -56 -19 -115 -19 -132 0 -16 -6 -58 -14 -93 -8 -35 -17 -97 -21 -138 -3 -41 -13 -113 -20 -160 -8 -47 -19 -152 -25 -235 -6 -82 -15 -179 -20 -215 -13 -92 -34 -875 -26 -933 6 -38 18 -60 67 -117 66 -76 189 -182 259 -222 74 -43 183 -71 249 -65 83 7 165 50 236 121 94 95 95 96 96 363 0 125 4 262 9 303 5 41 13 147 19 235 6 88 18 207 26 265 9 58 19 148 24 200 5 52 16 142 25 200 38 238 58 348 72 410 8 36 19 90 24 120 4 30 16 93 25 140 16 80 29 135 75 320 11 41 29 113 40 160 33 132 58 224 101 365 91 300 113 369 159 495 17 47 44 124 60 172 32 95 88 242 125 328 13 30 50 123 83 205 33 83 81 195 107 250 26 55 65 141 87 190 40 92 286 587 341 685 200 363 411 719 582 983 102 156 348 517 425 622 141 192 317 425 354 470 23 28 60 75 83 105 155 205 550 668 798 935 213 230 708 727 919 924 285 266 623 559 886 770 41 33 107 86 146 119 39 32 101 78 138 103 61 40 75 59 50 65 -5 2 -43 -15 -83 -36z"/>
<path d="M16755 24431 c-95 -13 -291 -68 -379 -107 -264 -118 -349 -152 -454 -180 -104 -28 -402 -182 -402 -208 0 -8 10 -21 23 -29 19 -12 58 -15 196 -14 99 0 174 4 178 10 3 5 -5 18 -18 28 -13 10 -19 19 -14 20 24 4 84 8 139 9 68 0 138 28 167 64 11 14 52 41 92 59 127 61 192 90 207 92 8 2 41 10 73 19 32 9 68 16 80 16 12 0 29 5 37 10 13 8 12 11 -5 24 l-20 15 25 9 c14 5 72 24 130 41 58 18 123 38 145 46 38 12 125 31 170 38 11 1 20 9 20 17 0 22 -44 24 -66 4 -19 -17 -22 -17 -52 -1 -38 20 -183 29 -272 18z"/>
</g>
</g>
</svg>
