<svg xmlns="http://www.w3.org/2000/svg" version="1.0" width="1132.000000pt" height="796.000000pt" viewBox="0 0 1132.000000 796.000000" preserveAspectRatio="xMidYMid meet">
  <g transform="translate(0.000000,796.000000) scale(0.100000,-0.100000)" stroke="none">
    <path stroke="none" d="M 5600.0,7700.0 C 5581.0,7689.0 5555.0,7681.0 5543.0,7680.0 C 5530.0,7680.0 5506.0,7671.0 5488.0,7660.0 C 5470.0,7649.0 5448.0,7640.0 5440.0,7640.0 C 5431.0,7640.0 5398.0,7627.0 5365.0,7610.0 C 5332.0,7594.0 5299.0,7580.0 5293.0,7580.0 C 5286.0,7580.0 5280.0,7576.0 5280.0,7570.0 C 5280.0,7565.0 5269.0,7560.0 5256.0,7560.0 C 5243.0,7560.0 5222.0,7552.0 5209.0,7541.0 C 5196.0,7531.0 5167.0,7517.0 5145.0,7510.0 C 5123.0,7503.0 5097.0,7494.0 5088.0,7489.0 C 5078.0,7484.0 5061.0,7480.0 5049.0,7480.0 C 5037.0,7480.0 5007.0,7469.0 4981.0,7456.0 C 4908.0,7419.0 4867.0,7401.0 4838.0,7394.0 C 4823.0,7391.0 4806.0,7382.0 4799.0,7374.0 C 4793.0,7366.0 4777.0,7360.0 4764.0,7360.0 C 4751.0,7360.0 4726.0,7352.0 4708.0,7342.0 C 4690.0,7331.0 4657.0,7317.0 4635.0,7310.0 C 4613.0,7303.0 4589.0,7292.0 4581.0,7287.0 C 4564.0,7273.0 4507.0,7251.0 4460.0,7240.0 C 4441.0,7236.0 4404.0,7221.0 4379.0,7207.0 C 4354.0,7194.0 4304.0,7172.0 4269.0,7159.0 C 4234.0,7147.0 4201.0,7133.0 4195.0,7128.0 C 4190.0,7124.0 4178.0,7120.0 4168.0,7120.0 C 4159.0,7120.0 4135.0,7111.0 4115.0,7100.0 C 4095.0,7089.0 4072.0,7080.0 4062.0,7080.0 C 4053.0,7080.0 4030.0,7071.0 4012.0,7060.0 C 3994.0,7049.0 3971.0,7040.0 3961.0,7040.0 C 3951.0,7040.0 3935.0,7032.0 3926.0,7021.0 C 3917.0,7011.0 3892.0,7000.0 3872.0,6996.0 C 3852.0,6993.0 3822.0,6983.0 3806.0,6975.0 C 3791.0,6967.0 3771.0,6960.0 3763.0,6960.0 C 3756.0,6960.0 3728.0,6949.0 3702.0,6935.0 C 3676.0,6921.0 3651.0,6910.0 3645.0,6910.0 C 3639.0,6910.0 3618.0,6899.0 3598.0,6885.0 C 3578.0,6871.0 3552.0,6860.0 3541.0,6860.0 C 3530.0,6860.0 3519.0,6856.0 3516.0,6852.0 C 3513.0,6848.0 3488.0,6838.0 3460.0,6830.0 C 3432.0,6822.0 3407.0,6812.0 3404.0,6808.0 C 3401.0,6804.0 3392.0,6800.0 3384.0,6800.0 C 3370.0,6800.0 3309.0,6776.0 3235.0,6739.0 C 3213.0,6729.0 3190.0,6720.0 3183.0,6720.0 C 3177.0,6720.0 3124.0,6698.0 3066.0,6670.0 C 3008.0,6643.0 2954.0,6620.0 2946.0,6620.0 C 2938.0,6620.0 2928.0,6616.0 2925.0,6610.0 C 2922.0,6605.0 2907.0,6600.0 2892.0,6600.0 C 2877.0,6600.0 2850.0,6591.0 2832.0,6580.0 C 2814.0,6569.0 2795.0,6560.0 2789.0,6560.0 C 2784.0,6560.0 2760.0,6551.0 2738.0,6540.0 C 2715.0,6529.0 2689.0,6520.0 2680.0,6520.0 C 2671.0,6520.0 2655.0,6511.0 2645.0,6500.0 C 2635.0,6489.0 2621.0,6480.0 2613.0,6480.0 C 2590.0,6480.0 2520.0,6456.0 2520.0,6448.0 C 2520.0,6443.0 2510.0,6440.0 2497.0,6440.0 C 2485.0,6440.0 2456.0,6431.0 2435.0,6419.0 C 2413.0,6407.0 2382.0,6396.0 2366.0,6394.0 C 2350.0,6392.0 2332.0,6385.0 2325.0,6380.0 C 2309.0,6366.0 2217.0,6320.0 2207.0,6320.0 C 2203.0,6320.0 2180.0,6311.0 2158.0,6300.0 C 2135.0,6289.0 2110.0,6280.0 2103.0,6280.0 C 2095.0,6280.0 2070.0,6271.0 2048.0,6260.0 C 2025.0,6249.0 2001.0,6240.0 1996.0,6240.0 C 1990.0,6240.0 1974.0,6231.0 1960.0,6220.0 C 1946.0,6209.0 1924.0,6200.0 1910.0,6200.0 C 1896.0,6200.0 1870.0,6191.0 1852.0,6180.0 C 1834.0,6169.0 1813.0,6160.0 1805.0,6160.0 C 1797.0,6160.0 1776.0,6152.0 1758.0,6142.0 C 1740.0,6132.0 1706.0,6118.0 1683.0,6110.0 C 1659.0,6103.0 1640.0,6093.0 1640.0,6088.0 C 1640.0,6084.0 1632.0,6080.0 1623.0,6080.0 C 1614.0,6080.0 1588.0,6072.0 1566.0,6061.0 C 1543.0,6051.0 1506.0,6037.0 1482.0,6030.0 C 1459.0,6023.0 1440.0,6013.0 1440.0,6008.0 C 1440.0,6004.0 1429.0,6000.0 1415.0,6000.0 C 1401.0,6000.0 1381.0,5991.0 1370.0,5980.0 C 1359.0,5969.0 1338.0,5958.0 1323.0,5954.0 C 1277.0,5943.0 1044.0,5852.0 967.0,5814.0 C 951.0,5806.0 929.0,5800.0 917.0,5800.0 C 905.0,5800.0 881.0,5792.0 865.0,5781.0 C 848.0,5771.0 818.0,5758.0 797.0,5751.0 C 775.0,5743.0 760.0,5732.0 759.0,5722.0 C 756.0,5679.0 758.0,5629.0 762.0,5625.0 C 765.0,5622.0 827.0,5615.0 901.0,5610.0 C 1058.0,5599.0 1293.0,5610.0 1330.0,5631.0 C 1344.0,5638.0 1358.0,5643.0 1363.0,5642.0 C 1367.0,5641.0 1389.0,5648.0 1413.0,5659.0 C 1436.0,5669.0 1480.0,5687.0 1510.0,5700.0 C 1540.0,5713.0 1588.0,5733.0 1615.0,5746.0 C 1643.0,5758.0 1677.0,5772.0 1693.0,5775.0 C 1708.0,5779.0 1723.0,5786.0 1726.0,5791.0 C 1729.0,5796.0 1738.0,5800.0 1746.0,5800.0 C 1754.0,5800.0 1780.0,5809.0 1802.0,5820.0 C 1825.0,5831.0 1847.0,5840.0 1852.0,5840.0 C 1857.0,5840.0 1879.0,5849.0 1903.0,5859.0 C 1926.0,5870.0 1983.0,5893.0 2030.0,5910.0 C 2077.0,5928.0 2120.0,5945.0 2125.0,5950.0 C 2131.0,5954.0 2148.0,5960.0 2165.0,5964.0 C 2192.0,5971.0 2247.0,5993.0 2314.0,6026.0 C 2330.0,6034.0 2349.0,6040.0 2356.0,6040.0 C 2364.0,6040.0 2414.0,6063.0 2468.0,6090.0 C 2522.0,6118.0 2573.0,6140.0 2581.0,6140.0 C 2597.0,6140.0 2732.0,6191.0 2795.0,6220.0 C 2817.0,6230.0 2855.0,6248.0 2879.0,6259.0 C 2904.0,6271.0 2932.0,6280.0 2942.0,6280.0 C 2953.0,6280.0 2980.0,6289.0 3002.0,6300.0 C 3025.0,6311.0 3047.0,6320.0 3052.0,6320.0 C 3056.0,6320.0 3085.0,6332.0 3117.0,6346.0 C 3149.0,6360.0 3191.0,6379.0 3210.0,6387.0 C 3229.0,6395.0 3263.0,6409.0 3285.0,6420.0 C 3307.0,6430.0 3363.0,6453.0 3410.0,6470.0 C 3457.0,6488.0 3499.0,6507.0 3504.0,6512.0 C 3510.0,6516.0 3521.0,6520.0 3530.0,6520.0 C 3539.0,6520.0 3563.0,6529.0 3585.0,6540.0 C 3607.0,6551.0 3628.0,6560.0 3632.0,6560.0 C 3637.0,6560.0 3659.0,6569.0 3683.0,6579.0 C 3706.0,6590.0 3743.0,6603.0 3765.0,6610.0 C 3816.0,6625.0 3835.0,6632.0 3890.0,6658.0 C 3915.0,6669.0 3946.0,6682.0 3960.0,6685.0 C 3988.0,6693.0 4036.0,6713.0 4095.0,6740.0 C 4117.0,6750.0 4155.0,6768.0 4179.0,6779.0 C 4204.0,6791.0 4231.0,6800.0 4239.0,6800.0 C 4248.0,6800.0 4270.0,6809.0 4288.0,6820.0 C 4306.0,6831.0 4325.0,6840.0 4330.0,6840.0 C 4340.0,6840.0 4461.0,6892.0 4492.0,6910.0 C 4502.0,6916.0 4517.0,6920.0 4525.0,6920.0 C 4534.0,6920.0 4560.0,6929.0 4582.0,6940.0 C 4605.0,6951.0 4627.0,6960.0 4632.0,6960.0 C 4637.0,6960.0 4659.0,6969.0 4683.0,6979.0 C 4706.0,6990.0 4742.0,7004.0 4763.0,7011.0 C 4783.0,7018.0 4800.0,7027.0 4800.0,7031.0 C 4800.0,7035.0 4820.0,7043.0 4844.0,7049.0 C 4869.0,7055.0 4892.0,7064.0 4895.0,7070.0 C 4898.0,7075.0 4910.0,7080.0 4920.0,7080.0 C 4931.0,7080.0 4968.0,7094.0 5002.0,7111.0 C 5037.0,7128.0 5072.0,7145.0 5080.0,7150.0 C 5088.0,7154.0 5119.0,7163.0 5148.0,7169.0 C 5176.0,7176.0 5200.0,7186.0 5200.0,7191.0 C 5200.0,7196.0 5207.0,7200.0 5215.0,7200.0 C 5223.0,7200.0 5245.0,7209.0 5265.0,7220.0 C 5285.0,7231.0 5310.0,7240.0 5321.0,7240.0 C 5338.0,7240.0 5410.0,7270.0 5492.0,7311.0 C 5502.0,7316.0 5516.0,7320.0 5525.0,7320.0 C 5533.0,7320.0 5556.0,7329.0 5576.0,7341.0 C 5638.0,7375.0 5718.0,7361.0 5875.0,7289.0 C 5908.0,7274.0 5953.0,7256.0 5975.0,7250.0 C 6014.0,7239.0 6025.0,7234.0 6120.0,7192.0 C 6145.0,7181.0 6176.0,7169.0 6190.0,7166.0 C 6214.0,7159.0 6268.0,7138.0 6357.0,7099.0 C 6381.0,7088.0 6407.0,7080.0 6415.0,7080.0 C 6423.0,7080.0 6438.0,7076.0 6448.0,7070.0 C 6472.0,7056.0 6599.0,7000.0 6606.0,7000.0 C 6609.0,7000.0 6645.0,6984.0 6685.0,6965.0 C 6763.0,6928.0 6837.0,6900.0 6857.0,6900.0 C 6864.0,6900.0 6898.0,6887.0 6932.0,6870.0 C 6966.0,6854.0 7000.0,6840.0 7007.0,6840.0 C 7022.0,6840.0 7030.0,6836.0 7107.0,6797.0 C 7144.0,6778.0 7168.0,6772.0 7188.0,6776.0 C 7212.0,6781.0 7218.0,6778.0 7223.0,6761.0 C 7226.0,6747.0 7242.0,6737.0 7274.0,6729.0 C 7299.0,6723.0 7320.0,6715.0 7320.0,6711.0 C 7320.0,6704.0 7339.0,6696.0 7435.0,6660.0 C 7468.0,6648.0 7513.0,6629.0 7536.0,6619.0 C 7558.0,6608.0 7584.0,6600.0 7593.0,6600.0 C 7602.0,6600.0 7611.0,6596.0 7614.0,6591.0 C 7617.0,6587.0 7641.0,6577.0 7667.0,6570.0 C 7694.0,6562.0 7717.0,6553.0 7720.0,6550.0 C 7723.0,6546.0 7766.0,6528.0 7815.0,6509.0 C 7865.0,6491.0 7917.0,6468.0 7932.0,6458.0 C 7946.0,6448.0 7964.0,6440.0 7972.0,6440.0 C 7980.0,6440.0 8005.0,6431.0 8028.0,6420.0 C 8050.0,6409.0 8076.0,6400.0 8084.0,6400.0 C 8092.0,6400.0 8102.0,6396.0 8105.0,6390.0 C 8108.0,6385.0 8121.0,6380.0 8133.0,6380.0 C 8145.0,6380.0 8169.0,6372.0 8186.0,6361.0 C 8202.0,6351.0 8245.0,6333.0 8281.0,6320.0 C 8316.0,6308.0 8368.0,6287.0 8395.0,6275.0 C 8423.0,6263.0 8472.0,6241.0 8505.0,6227.0 C 8538.0,6213.0 8586.0,6192.0 8612.0,6181.0 C 8638.0,6169.0 8668.0,6160.0 8677.0,6160.0 C 8687.0,6160.0 8704.0,6153.0 8714.0,6145.0 C 8725.0,6137.0 8742.0,6130.0 8752.0,6130.0 C 8762.0,6130.0 8791.0,6119.0 8817.0,6105.0 C 8884.0,6071.0 8957.0,6040.0 8972.0,6040.0 C 8979.0,6040.0 9022.0,6022.0 9068.0,6000.0 C 9113.0,5978.0 9161.0,5960.0 9174.0,5960.0 C 9188.0,5960.0 9201.0,5956.0 9204.0,5951.0 C 9207.0,5946.0 9229.0,5937.0 9253.0,5931.0 C 9278.0,5925.0 9303.0,5914.0 9310.0,5905.0 C 9317.0,5897.0 9335.0,5890.0 9350.0,5890.0 C 9366.0,5890.0 9380.0,5883.0 9384.0,5875.0 C 9387.0,5867.0 9397.0,5860.0 9406.0,5860.0 C 9415.0,5860.0 9449.0,5847.0 9482.0,5830.0 C 9514.0,5814.0 9551.0,5800.0 9565.0,5800.0 C 9578.0,5800.0 9591.0,5796.0 9594.0,5791.0 C 9597.0,5787.0 9616.0,5780.0 9636.0,5777.0 C 9656.0,5774.0 9680.0,5765.0 9689.0,5757.0 C 9698.0,5749.0 9743.0,5728.0 9790.0,5710.0 C 9837.0,5692.0 9880.0,5674.0 9885.0,5670.0 C 9891.0,5667.0 9915.0,5657.0 9940.0,5650.0 C 9965.0,5642.0 9994.0,5630.0 10006.0,5623.0 C 10021.0,5613.0 10090.0,5610.0 10276.0,5609.0 C 10413.0,5609.0 10532.0,5612.0 10541.0,5615.0 C 10571.0,5626.0 10575.0,5740.0 10546.0,5740.0 C 10540.0,5740.0 10508.0,5754.0 10475.0,5770.0 C 10442.0,5787.0 10408.0,5800.0 10398.0,5800.0 C 10388.0,5800.0 10366.0,5809.0 10348.0,5820.0 C 10330.0,5831.0 10309.0,5840.0 10302.0,5840.0 C 10295.0,5840.0 10271.0,5848.0 10247.0,5859.0 C 10224.0,5869.0 10178.0,5888.0 10145.0,5901.0 C 10112.0,5913.0 10070.0,5932.0 10052.0,5942.0 C 10034.0,5952.0 10011.0,5960.0 10001.0,5960.0 C 9991.0,5960.0 9981.0,5963.0 9977.0,5966.0 C 9968.0,5975.0 9817.0,6040.0 9804.0,6040.0 C 9798.0,6040.0 9778.0,6047.0 9759.0,6056.0 C 9740.0,6065.0 9707.0,6080.0 9685.0,6090.0 C 9663.0,6099.0 9624.0,6117.0 9597.0,6129.0 C 9571.0,6140.0 9540.0,6150.0 9528.0,6150.0 C 9516.0,6150.0 9499.0,6156.0 9491.0,6163.0 C 9482.0,6171.0 9433.0,6194.0 9381.0,6214.0 C 9329.0,6235.0 9277.0,6258.0 9266.0,6266.0 C 9255.0,6274.0 9238.0,6280.0 9229.0,6280.0 C 9220.0,6280.0 9199.0,6287.0 9184.0,6295.0 C 9168.0,6303.0 9143.0,6310.0 9129.0,6310.0 C 9115.0,6310.0 9090.0,6321.0 9074.0,6335.0 C 9058.0,6349.0 9039.0,6360.0 9033.0,6360.0 C 9026.0,6360.0 9006.0,6369.0 8988.0,6380.0 C 8970.0,6391.0 8944.0,6400.0 8930.0,6400.0 C 8916.0,6400.0 8896.0,6407.0 8886.0,6415.0 C 8875.0,6423.0 8856.0,6430.0 8844.0,6430.0 C 8831.0,6430.0 8815.0,6436.0 8808.0,6443.0 C 8795.0,6455.0 8716.0,6491.0 8655.0,6513.0 C 8639.0,6519.0 8607.0,6531.0 8585.0,6541.0 C 8563.0,6550.0 8513.0,6569.0 8475.0,6582.0 C 8436.0,6594.0 8396.0,6613.0 8386.0,6623.0 C 8375.0,6632.0 8359.0,6640.0 8350.0,6640.0 C 8341.0,6640.0 8315.0,6649.0 8292.0,6660.0 C 8270.0,6671.0 8246.0,6680.0 8241.0,6680.0 C 8235.0,6680.0 8211.0,6689.0 8188.0,6699.0 C 8085.0,6745.0 8050.0,6760.0 8040.0,6760.0 C 8034.0,6760.0 8012.0,6769.0 7992.0,6779.0 C 7926.0,6814.0 7861.0,6840.0 7839.0,6840.0 C 7828.0,6840.0 7807.0,6849.0 7793.0,6860.0 C 7779.0,6871.0 7761.0,6880.0 7754.0,6880.0 C 7747.0,6880.0 7725.0,6889.0 7705.0,6900.0 C 7685.0,6911.0 7663.0,6920.0 7656.0,6920.0 C 7639.0,6920.0 7552.0,6954.0 7480.0,6989.0 C 7450.0,7004.0 7405.0,7022.0 7380.0,7030.0 C 7355.0,7038.0 7322.0,7052.0 7305.0,7062.0 C 7289.0,7072.0 7267.0,7080.0 7258.0,7080.0 C 7248.0,7080.0 7221.0,7089.0 7198.0,7099.0 C 7096.0,7145.0 7059.0,7160.0 6999.0,7180.0 C 6964.0,7192.0 6924.0,7210.0 6909.0,7221.0 C 6894.0,7231.0 6872.0,7240.0 6861.0,7240.0 C 6849.0,7240.0 6832.0,7244.0 6822.0,7249.0 C 6813.0,7255.0 6774.0,7273.0 6735.0,7291.0 C 6697.0,7308.0 6649.0,7331.0 6629.0,7341.0 C 6609.0,7352.0 6585.0,7360.0 6576.0,7360.0 C 6566.0,7360.0 6542.0,7369.0 6522.0,7379.0 C 6502.0,7390.0 6458.0,7409.0 6425.0,7420.0 C 6392.0,7432.0 6356.0,7446.0 6345.0,7450.0 C 6334.0,7455.0 6314.0,7462.0 6300.0,7466.0 C 6286.0,7469.0 6255.0,7481.0 6230.0,7492.0 C 6205.0,7503.0 6172.0,7518.0 6155.0,7525.0 C 6139.0,7532.0 6095.0,7552.0 6057.0,7569.0 C 6020.0,7586.0 5983.0,7600.0 5976.0,7600.0 C 5968.0,7600.0 5958.0,7605.0 5955.0,7610.0 C 5952.0,7616.0 5941.0,7620.0 5932.0,7620.0 C 5923.0,7620.0 5893.0,7632.0 5865.0,7646.0 C 5807.0,7675.0 5677.0,7720.0 5652.0,7720.0 C 5643.0,7719.0 5619.0,7711.0 5600.0,7700.0" fill="#000000" id="000000-000001"/>
    <path stroke="none" d="M 5565.0,6924.0 C 5490.0,6898.0 5466.0,6888.0 5409.0,6859.0 C 5389.0,6848.0 5367.0,6840.0 5360.0,6840.0 C 5353.0,6840.0 5326.0,6829.0 5298.0,6815.0 C 5271.0,6801.0 5240.0,6790.0 5230.0,6790.0 C 5221.0,6790.0 5207.0,6783.0 5200.0,6775.0 C 5193.0,6767.0 5178.0,6760.0 5167.0,6760.0 C 5156.0,6760.0 5128.0,6751.0 5106.0,6741.0 C 5025.0,6703.0 4921.0,6660.0 4911.0,6660.0 C 4905.0,6660.0 4892.0,6656.0 4882.0,6652.0 C 4797.0,6610.0 4773.0,6600.0 4763.0,6600.0 C 4756.0,6600.0 4725.0,6588.0 4693.0,6574.0 C 4606.0,6535.0 4581.0,6524.0 4515.0,6501.0 C 4482.0,6489.0 4437.0,6470.0 4415.0,6459.0 C 4393.0,6449.0 4370.0,6440.0 4364.0,6440.0 C 4358.0,6440.0 4327.0,6427.0 4294.0,6411.0 C 4262.0,6395.0 4217.0,6377.0 4195.0,6370.0 C 4173.0,6363.0 4119.0,6340.0 4075.0,6319.0 C 4031.0,6297.0 3987.0,6280.0 3976.0,6280.0 C 3960.0,6280.0 3860.0,6238.0 3808.0,6209.0 C 3798.0,6204.0 3783.0,6200.0 3774.0,6200.0 C 3765.0,6200.0 3736.0,6189.0 3708.0,6175.0 C 3681.0,6161.0 3654.0,6150.0 3648.0,6150.0 C 3639.0,6150.0 3625.0,6144.0 3525.0,6100.0 C 3446.0,6064.0 3405.0,6048.0 3360.0,6034.0 C 3308.0,6017.0 3280.0,6005.0 3229.0,5979.0 C 3209.0,5968.0 3185.0,5960.0 3176.0,5960.0 C 3166.0,5960.0 3142.0,5951.0 3122.0,5941.0 C 3102.0,5930.0 3054.0,5907.0 3015.0,5889.0 C 2977.0,5871.0 2937.0,5853.0 2928.0,5848.0 C 2918.0,5844.0 2906.0,5840.0 2900.0,5840.0 C 2894.0,5840.0 2871.0,5831.0 2847.0,5821.0 C 2824.0,5810.0 2788.0,5797.0 2768.0,5790.0 C 2748.0,5784.0 2726.0,5772.0 2720.0,5764.0 C 2713.0,5757.0 2696.0,5750.0 2681.0,5750.0 C 2667.0,5750.0 2646.0,5743.0 2636.0,5735.0 C 2625.0,5727.0 2610.0,5720.0 2603.0,5720.0 C 2588.0,5720.0 2539.0,5697.0 2477.0,5662.0 C 2456.0,5650.0 2433.0,5640.0 2425.0,5640.0 C 2417.0,5640.0 2410.0,5636.0 2410.0,5631.0 C 2410.0,5626.0 2425.0,5621.0 2443.0,5621.0 C 2460.0,5621.0 2531.0,5617.0 2600.0,5611.0 C 2802.0,5595.0 2883.0,5608.0 3047.0,5686.0 C 3097.0,5710.0 3141.0,5730.0 3145.0,5730.0 C 3152.0,5730.0 3165.0,5736.0 3270.0,5783.0 C 3300.0,5796.0 3336.0,5811.0 3350.0,5814.0 C 3382.0,5823.0 3400.0,5831.0 3481.0,5869.0 C 3518.0,5886.0 3552.0,5900.0 3558.0,5900.0 C 3563.0,5900.0 3593.0,5913.0 3623.0,5929.0 C 3653.0,5945.0 3693.0,5961.0 3712.0,5965.0 C 3745.0,5972.0 3782.0,5986.0 3855.0,6020.0 C 3901.0,6040.0 3965.0,6065.0 4030.0,6087.0 C 4055.0,6095.0 4079.0,6106.0 4085.0,6111.0 C 4090.0,6116.0 4101.0,6120.0 4111.0,6120.0 C 4120.0,6120.0 4139.0,6129.0 4153.0,6140.0 C 4167.0,6151.0 4185.0,6160.0 4194.0,6160.0 C 4202.0,6160.0 4225.0,6169.0 4245.0,6180.0 C 4265.0,6191.0 4290.0,6200.0 4301.0,6200.0 C 4313.0,6200.0 4339.0,6209.0 4359.0,6219.0 C 4379.0,6230.0 4410.0,6244.0 4428.0,6252.0 C 4445.0,6259.0 4460.0,6268.0 4460.0,6272.0 C 4460.0,6277.0 4471.0,6280.0 4485.0,6280.0 C 4505.0,6280.0 4580.0,6311.0 4652.0,6351.0 C 4662.0,6356.0 4680.0,6360.0 4692.0,6360.0 C 4705.0,6360.0 4729.0,6368.0 4745.0,6379.0 C 4762.0,6389.0 4792.0,6402.0 4812.0,6409.0 C 4832.0,6416.0 4876.0,6434.0 4910.0,6451.0 C 4943.0,6467.0 4976.0,6480.0 4983.0,6480.0 C 4989.0,6480.0 5009.0,6488.0 5025.0,6498.0 C 5042.0,6507.0 5073.0,6521.0 5095.0,6529.0 C 5117.0,6537.0 5160.0,6555.0 5190.0,6570.0 C 5221.0,6584.0 5268.0,6602.0 5295.0,6610.0 C 5323.0,6617.0 5349.0,6627.0 5355.0,6631.0 C 5360.0,6636.0 5373.0,6640.0 5383.0,6640.0 C 5393.0,6640.0 5414.0,6648.0 5428.0,6658.0 C 5443.0,6668.0 5474.0,6682.0 5498.0,6689.0 C 5521.0,6695.0 5540.0,6705.0 5540.0,6709.0 C 5540.0,6725.0 5601.0,6743.0 5655.0,6743.0 C 5714.0,6743.0 5734.0,6736.0 5857.0,6678.0 C 5901.0,6657.0 5942.0,6640.0 5948.0,6640.0 C 5953.0,6640.0 5971.0,6633.0 5986.0,6625.0 C 6002.0,6617.0 6023.0,6610.0 6033.0,6610.0 C 6044.0,6610.0 6085.0,6594.0 6126.0,6575.0 C 6166.0,6556.0 6202.0,6540.0 6206.0,6540.0 C 6210.0,6540.0 6242.0,6526.0 6279.0,6509.0 C 6351.0,6475.0 6366.0,6469.0 6425.0,6450.0 C 6447.0,6443.0 6476.0,6429.0 6489.0,6419.0 C 6502.0,6408.0 6523.0,6400.0 6536.0,6400.0 C 6549.0,6400.0 6560.0,6396.0 6560.0,6391.0 C 6560.0,6387.0 6581.0,6377.0 6608.0,6370.0 C 6634.0,6363.0 6692.0,6340.0 6737.0,6319.0 C 6781.0,6297.0 6824.0,6280.0 6832.0,6280.0 C 6844.0,6280.0 6881.0,6264.0 6971.0,6218.0 C 6991.0,6208.0 7013.0,6200.0 7018.0,6200.0 C 7024.0,6200.0 7057.0,6187.0 7092.0,6171.0 C 7127.0,6155.0 7171.0,6137.0 7190.0,6130.0 C 7209.0,6123.0 7244.0,6109.0 7267.0,6099.0 C 7291.0,6088.0 7314.0,6080.0 7319.0,6080.0 C 7329.0,6080.0 7394.0,6052.0 7528.0,5989.0 C 7562.0,5973.0 7598.0,5960.0 7607.0,5960.0 C 7634.0,5960.0 7743.0,5919.0 7769.0,5899.0 C 7782.0,5888.0 7803.0,5880.0 7816.0,5880.0 C 7828.0,5880.0 7842.0,5876.0 7845.0,5870.0 C 7848.0,5865.0 7858.0,5860.0 7865.0,5860.0 C 7873.0,5860.0 7903.0,5849.0 7932.0,5836.0 C 7961.0,5823.0 7996.0,5809.0 8010.0,5805.0 C 8024.0,5801.0 8037.0,5794.0 8040.0,5791.0 C 8043.0,5787.0 8099.0,5762.0 8165.0,5736.0 C 8290.0,5686.0 8380.0,5648.0 8440.0,5622.0 C 8484.0,5603.0 8654.0,5598.0 8770.0,5612.0 C 8817.0,5618.0 8870.0,5622.0 8888.0,5621.0 C 8905.0,5621.0 8920.0,5625.0 8920.0,5630.0 C 8920.0,5636.0 8911.0,5640.0 8900.0,5640.0 C 8889.0,5640.0 8865.0,5649.0 8845.0,5660.0 C 8826.0,5671.0 8794.0,5689.0 8775.0,5700.0 C 8755.0,5711.0 8734.0,5720.0 8727.0,5720.0 C 8720.0,5720.0 8697.0,5729.0 8675.0,5739.0 C 8581.0,5784.0 8501.0,5815.0 8441.0,5830.0 C 8422.0,5835.0 8404.0,5843.0 8401.0,5848.0 C 8398.0,5854.0 8357.0,5873.0 8310.0,5891.0 C 8263.0,5909.0 8212.0,5932.0 8195.0,5942.0 C 8179.0,5952.0 8156.0,5960.0 8144.0,5960.0 C 8133.0,5960.0 8120.0,5964.0 8114.0,5969.0 C 8109.0,5974.0 8087.0,5983.0 8065.0,5990.0 C 8043.0,5996.0 8007.0,6010.0 7985.0,6021.0 C 7829.0,6094.0 7766.0,6120.0 7742.0,6120.0 C 7727.0,6120.0 7688.0,6134.0 7655.0,6150.0 C 7622.0,6166.0 7591.0,6180.0 7586.0,6180.0 C 7578.0,6180.0 7462.0,6232.0 7428.0,6251.0 C 7418.0,6256.0 7404.0,6260.0 7395.0,6260.0 C 7387.0,6260.0 7343.0,6278.0 7298.0,6299.0 C 7252.0,6321.0 7195.0,6344.0 7170.0,6351.0 C 7145.0,6358.0 7095.0,6379.0 7057.0,6397.0 C 7020.0,6415.0 6983.0,6430.0 6974.0,6430.0 C 6966.0,6430.0 6942.0,6439.0 6922.0,6450.0 C 6868.0,6479.0 6771.0,6520.0 6757.0,6520.0 C 6750.0,6520.0 6725.0,6530.0 6700.0,6542.0 C 6653.0,6564.0 6646.0,6567.0 6568.0,6596.0 C 6542.0,6605.0 6515.0,6619.0 6509.0,6626.0 C 6503.0,6634.0 6489.0,6640.0 6479.0,6640.0 C 6469.0,6640.0 6459.0,6644.0 6456.0,6649.0 C 6453.0,6653.0 6429.0,6663.0 6403.0,6670.0 C 6376.0,6677.0 6337.0,6690.0 6315.0,6700.0 C 6224.0,6742.0 6080.0,6800.0 6066.0,6800.0 C 6060.0,6800.0 6044.0,6809.0 6030.0,6820.0 C 6016.0,6831.0 5997.0,6840.0 5988.0,6840.0 C 5971.0,6840.0 5923.0,6860.0 5835.0,6901.0 C 5813.0,6912.0 5788.0,6920.0 5779.0,6920.0 C 5770.0,6920.0 5749.0,6927.0 5734.0,6935.0 C 5694.0,6955.0 5648.0,6952.0 5565.0,6924.0" fill="#000000" id="000000-000002"/>
    <path stroke="none" d="M 5388.0,5202.0 C 1137.0,5200.0 1040.0,5200.0 1040.0,5181.0 C 1040.0,5139.0 1059.0,5110.0 1220.0,4906.0 C 1241.0,4878.0 1261.0,4840.0 1265.0,4821.0 C 1268.0,4801.0 1269.0,4007.0 1268.0,3055.0 C 1265.0,1542.0 1263.0,1322.0 1250.0,1303.0 C 1242.0,1290.0 1228.0,1280.0 1220.0,1280.0 C 1212.0,1280.0 1187.0,1269.0 1165.0,1255.0 C 1143.0,1242.0 1113.0,1230.0 1099.0,1230.0 C 1085.0,1230.0 1065.0,1223.0 1054.0,1215.0 C 1044.0,1207.0 1026.0,1200.0 1015.0,1200.0 C 1004.0,1200.0 984.0,1191.0 970.0,1180.0 C 956.0,1169.0 935.0,1160.0 923.0,1160.0 C 911.0,1160.0 877.0,1149.0 848.0,1136.0 C 819.0,1123.0 784.0,1109.0 770.0,1106.0 C 744.0,1099.0 740.0,1097.0 655.0,1062.0 C 628.0,1051.0 590.0,1036.0 572.0,1030.0 C 532.0,1014.0 522.0,998.0 514.0,926.0 C 509.0,887.0 511.0,866.0 520.0,855.0 C 531.0,842.0 1090.0,840.0 5661.0,840.0 L 10790.0,840.0 L 10804.0,863.0 C 10826.0,897.0 10796.0,1020.0 10766.0,1020.0 C 10763.0,1020.0 10731.0,1034.0 10695.0,1050.0 C 10659.0,1067.0 10624.0,1080.0 10617.0,1080.0 C 10610.0,1080.0 10585.0,1089.0 10562.0,1100.0 C 10540.0,1111.0 10516.0,1120.0 10511.0,1120.0 C 10505.0,1120.0 10486.0,1128.0 10468.0,1138.0 C 10450.0,1148.0 10424.0,1159.0 10410.0,1162.0 C 10360.0,1173.0 10259.0,1212.0 10158.0,1260.0 C 10134.0,1271.0 10110.0,1280.0 10104.0,1280.0 C 10098.0,1280.0 10085.0,1289.0 10076.0,1299.0 C 10063.0,1313.0 10058.0,1341.0 10055.0,1411.0 C 10047.0,1623.0 10050.0,4809.0 10059.0,4831.0 C 10064.0,4844.0 10088.0,4880.0 10114.0,4911.0 C 10139.0,4942.0 10160.0,4970.0 10160.0,4974.0 C 10160.0,4986.0 10221.0,5071.0 10267.0,5125.0 C 10313.0,5178.0 10320.0,5199.0 10293.0,5201.0 C 10234.0,5204.0 9281.0,5205.0 5388.0,5202.0M 9678.0,3017.0 L 9680.0,1200.0 L 9445.0,1200.0 C 9289.0,1200.0 9202.0,1204.0 9185.0,1212.0 L 9160.0,1223.0 L 9160.0,2972.0 L 9160.0,4720.0 L 9193.0,4740.0 C 9210.0,4751.0 9243.0,4760.0 9265.0,4760.0 C 9305.0,4760.0 9368.0,4773.0 9405.0,4790.0 C 9416.0,4795.0 9461.0,4801.0 9505.0,4803.0 C 9549.0,4806.0 9601.0,4815.0 9620.0,4823.0 C 9639.0,4831.0 9660.0,4837.0 9665.0,4836.0 C 9672.0,4834.0 9676.0,4217.0 9678.0,3017.0 M 8600.0,2931.0 C 8600.0,1494.0 8598.0,1221.0 8586.0,1211.0 C 8577.0,1203.0 8500.0,1200.0 8329.0,1202.0 L 8085.0,1205.0 L 8085.0,2880.0 L 8085.0,4555.0 L 8120.0,4558.0 C 8176.0,4561.0 8270.0,4582.0 8276.0,4591.0 C 8279.0,4596.0 8305.0,4600.0 8333.0,4600.0 C 8363.0,4600.0 8402.0,4609.0 8425.0,4619.0 C 8451.0,4632.0 8488.0,4639.0 8533.0,4639.0 L 8600.0,4640.0 L 8600.0,2931.0 M 7560.0,2835.0 L 7560.0,1231.0 L 7530.0,1215.0 C 7507.0,1203.0 7458.0,1200.0 7276.0,1200.0 C 7046.0,1200.0 7008.0,1205.0 6996.0,1237.0 C 6987.0,1259.0 6987.0,4321.0 6996.0,4344.0 C 6999.0,4353.0 7012.0,4360.0 7024.0,4360.0 C 7051.0,4361.0 7137.0,4384.0 7146.0,4393.0 C 7150.0,4397.0 7183.0,4400.0 7219.0,4400.0 C 7257.0,4401.0 7306.0,4409.0 7335.0,4419.0 C 7367.0,4431.0 7416.0,4438.0 7473.0,4439.0 L 7560.0,4440.0 L 7560.0,2835.0 M 6478.0,2744.0 L 6480.0,1253.0 L 6459.0,1226.0 L 6438.0,1200.0 L 6202.0,1202.0 L 5966.0,1205.0 L 5958.0,1237.0 C 5954.0,1254.0 5951.0,1917.0 5952.0,2710.0 L 5955.0,4152.0 L 6014.0,4176.0 C 6047.0,4189.0 6090.0,4200.0 6111.0,4200.0 C 6156.0,4200.0 6251.0,4220.0 6265.0,4232.0 C 6270.0,4237.0 6320.0,4239.0 6375.0,4238.0 L 6475.0,4235.0 L 6478.0,2744.0 M 5360.0,4025.0 C 5371.0,3996.0 5373.0,1348.0 5362.0,1260.0 L 5355.0,1205.0 L 5117.0,1202.0 L 4879.0,1200.0 L 4864.0,1235.0 C 4843.0,1287.0 4837.0,3876.0 4858.0,3930.0 C 4876.0,3976.0 4907.0,3999.0 4950.0,4000.0 C 4969.0,4000.0 5014.0,4008.0 5050.0,4017.0 C 5086.0,4025.0 5153.0,4036.0 5200.0,4040.0 C 5354.0,4052.0 5349.0,4053.0 5360.0,4025.0 M 4327.0,3833.0 C 4331.0,3806.0 4335.0,3216.0 4335.0,2520.0 C 4335.0,1543.0 4332.0,1249.0 4323.0,1228.0 L 4310.0,1200.0 L 4057.0,1200.0 C 3816.0,1200.0 3803.0,1201.0 3782.0,1220.0 L 3760.0,1241.0 L 3762.0,2518.0 L 3765.0,3795.0 L 3800.0,3797.0 C 3866.0,3802.0 3981.0,3823.0 3986.0,3831.0 C 3989.0,3836.0 4024.0,3840.0 4063.0,3841.0 C 4105.0,3841.0 4156.0,3849.0 4185.0,3860.0 C 4213.0,3869.0 4254.0,3878.0 4277.0,3879.0 L 4319.0,3880.0 L 4327.0,3833.0 M 3240.0,2450.0 L 3240.0,1220.0 L 3214.0,1210.0 C 3200.0,1204.0 3096.0,1200.0 2984.0,1200.0 C 2784.0,1200.0 2747.0,1205.0 2728.0,1234.0 C 2724.0,1240.0 2720.0,1774.0 2720.0,2420.0 L 2720.0,3595.0 L 2808.0,3613.0 C 2856.0,3623.0 2931.0,3635.0 2975.0,3639.0 C 3019.0,3643.0 3071.0,3654.0 3090.0,3663.0 C 3109.0,3671.0 3151.0,3679.0 3183.0,3679.0 L 3240.0,3680.0 L 3240.0,2450.0 M 2200.0,2352.0 C 2200.0,1488.0 2197.0,1221.0 2188.0,1212.0 C 2179.0,1203.0 2106.0,1200.0 1922.0,1200.0 C 1691.0,1200.0 1666.0,1202.0 1654.0,1218.0 C 1643.0,1232.0 1641.0,1433.0 1640.0,2315.0 L 1640.0,3395.0 L 1698.0,3409.0 C 1729.0,3416.0 1760.0,3425.0 1765.0,3430.0 C 1771.0,3434.0 1817.0,3440.0 1867.0,3442.0 C 1928.0,3446.0 1968.0,3453.0 1982.0,3463.0 C 1999.0,3475.0 2031.0,3479.0 2103.0,3479.0 L 2200.0,3480.0 L 2200.0,2352.0" fill="#000000" id="000000-000003"/>
    <path stroke="none" d="M223 468 l-43 -9 1 -159 c1 -137 3 -160 17 -167 22 -11 10864 -16 10905 -5 l32 8 5 98 c3 53 4 126 2 161 l-4 63 -36 8 c-55 11 -10828 14 -10879 2z" fill="#000000" id="000000-000004"/>
  </g>
</svg>
