<?xml version="1.0" standalone="no"?>
<!DOCTYPE svg PUBLIC "-//W3C//DTD SVG 1.1//EN"
 "http://www.w3.org/Graphics/SVG/1.1/DTD/svg11.dtd">
<!-- Created with svg_stack (http://github.com/astraw/svg_stack) -->
<svg xmlns:sodipodi="http://sodipodi.sourceforge.net/DTD/sodipodi-0.dtd" xmlns="http://www.w3.org/2000/svg" version="1.1" width="430.0" height="256.0">
  <defs/>
  <g id="id0:id0" transform="matrix(1.25,0,0,1.25,0.0,0.0)"><g transform="translate(0.000000,204.800000) scale(0.040000,-0.040000)" fill="#461b1f" stroke="none">
<path d="M45 5060 c3 -5 8 -10 11 -10 2 0 4 5 4 10 0 6 -5 10 -11 10 -5 0 -7 -4 -4 -10z"/>
<path d="M8540 4910 c0 -33 4 -60 10 -60 6 0 10 27 10 60 0 33 -4 60 -10 60 -6 0 -10 -27 -10 -60z"/>
<path d="M3160 4820 c-12 -22 -59 -27 -78 -8 -9 9 -18 9 -37 0 -19 -9 -170 -12 -548 -12 -912 -1 -1180 0 -1277 6 -52 2 -257 1 -455 -4 -340 -8 -361 -7 -384 10 -27 20 -61 24 -61 6 0 -6 10 -22 22 -35 19 -20 22 -40 30 -170 4 -82 5 -238 2 -348 -3 -110 -8 -425 -11 -700 -2 -291 -8 -504 -14 -510 -14 -14 -11 -81 6 -95 13 -10 13 -15 1 -32 -10 -14 -12 -28 -5 -51 5 -18 7 -90 5 -162 -3 -71 -2 -213 2 -315 4 -102 4 -219 0 -260 -9 -100 -9 -779 0 -907 4 -56 4 -112 0 -125 -3 -13 -6 -115 -7 -228 l-1 -205 1023 -2 c1305 -2 1904 -1 2042 4 61 2 153 3 205 2 52 -1 104 -1 115 -1 136 3 1076 0 1320 -5 176 -3 491 -5 700 -4 209 1 400 1 425 1 180 1 536 -12 549 -19 9 -5 36 -6 61 -1 25 5 232 9 460 11 231 1 423 6 433 11 12 6 23 5 33 -3 11 -9 64 -10 217 -4 111 4 221 7 243 7 l42 -1 6 57 c3 31 4 185 1 342 l-6 286 21 19 21 19 -21 16 -21 16 1 600 c0 515 -2 603 -15 619 -21 29 -19 43 16 82 27 32 29 37 16 57 -20 30 -28 102 -26 226 4 226 4 365 0 625 -9 648 -6 1061 7 1130 7 32 7 52 1 56 -16 10 -1373 -1 -1383 -11 -5 -5 -16 -5 -26 0 -19 10 -2447 6 -2457 -4 -4 -4 -212 -7 -462 -7 -251 0 -490 -1 -531 -1 -90 -1 -145 9 -161 28 -16 19 -26 18 -39 -6z m574 -270 c33 -5 114 -17 179 -26 64 -9 120 -20 122 -24 3 -5 -16 -21 -42 -36 -70 -41 -75 -48 -69 -129 4 -63 43 -215 66 -256 5 -9 13 -36 19 -60 18 -69 51 -179 74 -239 21 -56 32 -68 77 -92 45 -23 91 -61 83 -68 -9 -8 -113 -30 -178 -37 -22 -2 -91 -11 -154 -19 -150 -18 -155 -15 -90 59 36 41 40 51 37 89 l-3 43 -101 -1 c-134 -1 -154 -7 -154 -42 0 -20 15 -42 55 -82 30 -30 51 -58 46 -63 -13 -13 -397 -22 -405 -9 -4 7 24 35 67 69 41 32 82 70 91 84 14 24 51 152 63 224 7 37 30 65 54 65 10 0 21 5 25 11 8 14 -14 29 -43 29 -12 0 -24 4 -27 9 -6 9 28 80 72 151 12 19 22 47 22 61 0 14 8 43 19 65 21 44 33 108 24 130 -3 8 -27 26 -54 39 -51 26 -64 39 -54 55 8 13 99 13 179 0z m-1049 -10 c3 -5 -15 -19 -41 -32 -26 -12 -64 -38 -85 -58 l-39 -37 0 -165 c0 -122 -3 -168 -13 -176 -7 -6 -37 -12 -67 -14 -41 -2 -55 -7 -55 -18 0 -18 43 -26 58 -11 16 16 42 13 59 -6 12 -14 16 -47 16 -152 1 -84 5 -138 12 -145 17 -17 264 -10 299 8 30 16 72 72 95 126 18 44 49 73 73 68 25 -5 41 -80 42 -199 1 -80 -2 -98 -16 -111 -15 -13 -70 -17 -293 -24 -352 -11 -561 -11 -567 -1 -3 4 24 34 59 66 l63 58 5 144 5 144 28 13 c33 16 35 39 5 44 -21 3 -23 9 -24 68 0 36 -2 112 -2 169 l-2 104 -36 33 c-19 19 -47 36 -62 40 -41 8 -57 19 -57 40 0 17 11 19 125 24 227 10 409 10 415 0z m3731 -12 c14 -13 16 -37 15 -139 -1 -146 -7 -157 -66 -137 -38 13 -75 57 -105 128 -19 42 -41 60 -77 60 -27 0 -35 -5 -43 -26 -15 -39 -13 -633 3 -664 7 -13 39 -39 72 -58 138 -77 157 -112 70 -124 -87 -11 -593 -9 -600 3 -10 15 20 45 98 97 115 77 107 48 101 390 -6 327 -8 354 -30 377 -41 40 -87 6 -124 -93 -12 -31 -33 -72 -47 -90 -20 -27 -31 -33 -56 -30 l-32 3 0 155 0 155 70 6 c39 4 219 6 402 5 295 -1 334 -3 349 -18z m-1444 -50 c29 -6 64 -21 78 -33 34 -29 77 -55 91 -55 6 0 29 16 52 35 24 21 50 35 62 33 18 -3 20 -9 17 -58 -2 -30 2 -103 9 -162 10 -95 10 -110 -4 -132 -9 -13 -26 -27 -37 -31 -31 -10 -24 -30 25 -76 106 -99 145 -232 96 -327 -39 -76 -161 -168 -259 -197 -31 -9 -67 -21 -80 -26 -13 -5 -41 -9 -63 -9 -28 0 -44 -6 -57 -21 -9 -12 -26 -32 -37 -46 -11 -13 -35 -26 -56 -29 l-36 -6 -28 53 c-15 30 -33 61 -40 69 -7 8 -25 42 -41 75 -15 33 -43 82 -61 109 -19 27 -32 54 -30 60 2 6 24 21 50 34 51 25 77 20 98 -20 24 -45 95 -110 147 -135 58 -27 105 -28 197 -2 56 16 115 77 115 120 0 67 -85 149 -170 164 -19 3 -84 -2 -145 -11 -180 -27 -227 -28 -292 -8 -77 23 -92 34 -159 110 -63 72 -62 80 5 111 20 9 53 32 74 50 47 42 65 41 104 -1 42 -44 101 -60 184 -51 35 4 137 8 227 9 l163 1 -5 25 c-4 14 -9 40 -12 57 -8 39 -89 113 -158 143 -64 29 -171 31 -217 4 -19 -12 -52 -24 -72 -28 -34 -6 -38 -4 -47 19 -14 36 -38 32 -42 -7 l-3 -33 -48 -3 c-34 -2 -49 1 -53 11 -7 20 59 140 85 153 11 6 29 18 38 26 16 14 45 22 121 33 13 2 26 6 30 9 10 10 128 6 184 -6z m-3362 -1168 c147 -14 290 -68 346 -132 52 -58 95 -161 98 -233 1 -23 6 -46 10 -53 10 -16 11 -139 2 -177 -4 -16 -14 -45 -23 -63 l-14 -33 -116 3 -117 3 4 70 c7 172 5 285 -7 302 -7 9 -13 29 -13 44 0 35 -41 75 -110 107 -44 21 -71 26 -134 26 l-80 1 -7 -35 c-4 -19 -9 -117 -12 -218 -2 -100 -7 -185 -11 -189 -10 -10 -7 -51 4 -58 7 -4 10 -56 8 -141 -3 -151 -2 -154 66 -154 65 0 187 42 230 79 10 9 29 40 42 69 l24 52 115 0 c89 0 117 -3 121 -14 8 -22 -76 -154 -130 -202 -26 -24 -87 -63 -134 -87 l-86 -42 -315 2 c-285 1 -316 3 -328 19 -16 22 -5 41 52 84 115 87 112 83 118 162 3 45 1 78 -6 86 -8 10 -1 23 28 52 42 43 43 38 -16 130 -17 27 -18 104 -4 312 l7 104 -43 35 c-24 19 -57 43 -72 52 -16 10 -26 24 -24 30 7 23 314 27 527 7z m1255 -49 c70 -32 144 -100 176 -162 46 -91 54 -129 54 -270 0 -168 0 -169 -101 -169 -95 0 -104 -16 -13 -22 92 -7 98 -13 74 -86 -44 -134 -82 -181 -189 -236 -69 -36 -87 -40 -166 -44 -127 -6 -170 3 -240 50 -88 58 -117 92 -161 183 -52 110 -67 220 -52 390 8 97 16 132 38 180 52 108 121 164 260 206 90 28 233 19 320 -20z m2159 10 c7 -11 -19 -34 -70 -60 -78 -40 -78 -43 -84 -235 l-5 -171 -94 -3 c-99 -3 -115 3 -117 41 -5 84 -38 274 -52 294 -8 14 -33 37 -55 52 -22 14 -50 33 -62 41 -38 26 -32 35 25 41 89 9 508 10 514 0z m-1231 -23 c28 -14 20 -26 -40 -55 -32 -16 -63 -38 -69 -51 -7 -13 -15 -107 -19 -209 -6 -162 -10 -188 -26 -204 -21 -21 -25 -45 -8 -51 6 -2 12 -42 13 -98 4 -120 12 -156 43 -179 30 -24 129 -36 220 -26 59 6 72 11 99 41 18 18 43 52 56 75 12 23 35 51 51 63 25 18 29 19 43 4 13 -13 16 -43 17 -156 1 -83 -2 -145 -8 -151 -6 -6 -92 -6 -240 -1 -126 5 -316 9 -422 10 -116 0 -194 4 -198 10 -9 15 16 46 66 81 24 18 46 34 49 36 3 3 5 46 6 96 0 98 9 158 26 194 8 16 8 30 -1 50 -7 18 -10 92 -8 210 l2 182 -29 30 c-16 17 -47 43 -68 57 -21 15 -37 32 -35 38 7 22 438 26 480 4z m2557 -3 c9 -6 -3 -22 -39 -56 -31 -29 -51 -55 -51 -69 0 -39 51 -224 86 -313 35 -86 36 -107 8 -107 -18 0 -19 -44 0 -59 8 -7 16 -46 20 -107 9 -121 15 -137 79 -201 38 -39 48 -56 40 -64 -16 -16 -428 -8 -444 8 -9 9 1 23 40 59 37 34 51 54 51 73 0 35 -17 51 -52 51 -15 0 -60 5 -99 12 -66 12 -72 11 -85 -7 -21 -29 -17 -46 26 -103 22 -29 38 -58 34 -64 -12 -19 -395 39 -409 63 -6 9 125 79 149 79 24 0 73 60 86 106 7 24 19 49 26 55 19 16 91 173 113 249 20 66 63 235 68 266 4 27 0 33 -53 70 -32 21 -57 44 -56 49 1 6 16 13 34 17 43 9 412 3 428 -7z m985 -10 c77 -8 154 -21 171 -29 17 -9 52 -37 78 -63 37 -36 46 -51 41 -67 -13 -42 -13 -102 0 -133 12 -28 11 -34 -11 -67 -14 -20 -31 -36 -39 -36 -8 0 -15 -5 -15 -11 0 -6 -14 -31 -32 -56 l-31 -46 16 -26 c56 -90 87 -190 87 -282 0 -23 12 -70 26 -106 14 -36 22 -68 18 -72 -10 -9 -157 2 -192 13 -23 8 -71 72 -89 121 -6 17 -14 89 -17 160 -6 158 -26 211 -64 173 -9 -9 -13 -7 -18 5 -3 9 5 30 20 50 14 19 26 37 26 40 0 14 86 131 107 144 31 20 55 72 48 103 -3 14 -24 38 -48 55 l-42 30 -117 4 c-135 4 -126 11 -132 -113 -3 -42 -10 -84 -17 -92 -10 -12 -10 -20 -1 -35 9 -14 12 -82 10 -252 -3 -267 -5 -263 85 -320 28 -19 58 -41 66 -50 11 -14 11 -18 -4 -23 -26 -10 -507 4 -518 15 -6 6 13 25 51 53 33 24 63 52 67 63 14 44 35 173 35 221 0 43 -3 53 -20 57 -18 5 -20 14 -20 90 0 77 2 88 26 116 14 17 32 31 40 31 19 0 16 29 -7 65 -29 46 -39 73 -39 108 0 40 -22 74 -83 127 -26 23 -44 47 -40 52 8 14 384 3 578 -17z m-2480 -651 c1 -128 4 -176 14 -188 11 -13 36 -16 138 -16 68 0 133 5 144 10 10 6 32 36 49 68 67 129 107 164 143 124 15 -16 18 -42 20 -161 1 -88 -3 -145 -9 -151 -8 -8 -139 -9 -420 -6 -413 5 -468 7 -478 17 -9 9 52 62 97 84 65 31 77 63 84 212 3 70 10 136 15 145 12 24 62 37 138 35 l65 -2 0 -171z m-1870 -374 c-5 -8 -11 -8 -17 -2 -6 6 -7 16 -3 22 5 8 11 8 17 2 6 -6 7 -16 3 -22z m-1326 -225 c23 -8 54 -24 68 -35 33 -26 53 -25 130 5 49 20 67 23 83 15 19 -10 20 -21 20 -173 0 -175 -3 -187 -50 -187 -34 0 -54 22 -90 98 -22 47 -38 66 -73 86 -24 14 -55 26 -70 26 -14 0 -29 5 -32 10 -11 18 -98 11 -132 -10 -62 -37 -67 -126 -10 -178 26 -23 118 -57 202 -72 174 -33 291 -97 351 -192 34 -54 34 -168 0 -237 -22 -43 -101 -121 -124 -121 -5 0 -17 -9 -27 -20 -26 -29 -76 -42 -179 -46 -136 -6 -166 -4 -197 11 -44 23 -84 19 -97 -10 -13 -29 -43 -38 -92 -27 -31 7 -36 12 -44 52 -5 25 -10 110 -10 190 l-1 144 38 8 c51 11 70 -2 84 -54 17 -61 73 -149 109 -170 40 -23 146 -38 208 -28 39 6 57 15 84 44 l34 38 -7 51 c-4 29 -12 60 -17 70 -13 26 -88 77 -111 77 -12 0 -48 7 -81 16 -34 8 -79 20 -101 25 -22 6 -82 31 -133 56 -88 44 -142 88 -142 118 0 8 -8 30 -17 49 -13 29 -14 40 -5 61 10 21 18 25 56 25 25 0 48 5 51 10 4 6 -11 10 -38 10 -29 0 -49 6 -60 18 -14 16 -14 22 3 71 27 80 97 146 180 170 79 24 183 26 239 6z m3413 -16 c84 -18 157 -62 213 -126 28 -32 56 -69 62 -83 37 -75 55 -146 65 -251 10 -104 10 -124 -7 -185 -40 -151 -103 -252 -186 -294 -20 -11 -66 -24 -103 -31 -75 -13 -247 -9 -267 7 -8 5 -32 16 -54 23 -45 15 -95 58 -134 115 -55 83 -61 92 -71 114 -5 13 -10 29 -10 37 0 7 -7 26 -15 41 -25 48 -21 247 7 331 53 164 136 252 283 301 41 14 153 14 217 1z m-2079 -22 c62 -13 73 -25 37 -44 -36 -18 -90 -73 -95 -96 -3 -12 13 -94 35 -182 57 -225 90 -383 90 -432 0 -23 5 -45 10 -48 16 -10 40 -74 34 -89 -3 -8 1 -19 8 -25 7 -6 39 -32 71 -58 32 -25 56 -51 54 -57 -4 -11 -29 -17 -152 -35 -76 -11 -165 -3 -172 15 -3 9 -23 14 -58 14 -75 0 -87 19 -35 55 43 30 49 45 25 65 -13 10 -14 27 -9 85 l7 73 -24 13 c-36 20 -217 14 -241 -8 -33 -30 -24 -79 28 -139 38 -45 43 -55 29 -60 -27 -11 -299 2 -323 15 -12 6 -22 18 -22 26 0 7 31 36 70 64 74 54 92 79 114 163 8 29 19 67 24 83 6 17 20 63 32 102 12 40 26 75 31 78 5 4 9 20 9 37 0 17 11 51 24 77 13 25 29 66 36 91 6 25 16 53 21 62 18 34 9 62 -32 104 -29 30 -40 48 -35 60 6 15 22 16 179 9 94 -3 198 -12 230 -18z m3242 2 c98 -46 167 -114 219 -217 45 -89 56 -135 61 -240 9 -242 -104 -452 -270 -500 -92 -26 -298 -19 -334 11 -9 8 -31 19 -49 25 -54 18 -86 47 -134 119 -60 91 -68 126 -68 292 0 168 17 259 65 346 56 100 120 148 240 179 39 10 240 -1 270 -15z m778 -3 c26 -11 41 -31 81 -112 26 -54 63 -129 81 -165 41 -82 142 -239 154 -239 27 0 28 30 10 260 -13 152 -14 154 -97 202 -81 46 -62 53 143 53 133 0 177 -3 187 -14 11 -11 8 -17 -16 -35 -16 -11 -42 -32 -57 -46 l-27 -25 9 -190 c4 -104 11 -288 15 -407 8 -244 14 -224 -73 -231 l-53 -4 -67 91 c-37 49 -74 104 -83 121 -28 55 -120 199 -165 260 -25 33 -53 77 -62 97 -30 65 -73 57 -73 -14 0 -21 -9 -58 -20 -80 -25 -53 -25 -61 3 -73 28 -13 35 -65 13 -97 -9 -12 -16 -39 -16 -60 0 -20 -7 -63 -16 -95 -29 -104 -29 -108 4 -132 17 -11 34 -21 39 -21 4 0 26 -16 48 -35 l40 -35 -20 -15 c-17 -14 -46 -15 -185 -12 -182 6 -229 11 -279 34 -33 15 -33 16 -16 29 10 8 25 14 32 14 7 0 21 4 31 9 9 6 34 13 54 16 61 9 79 32 93 116 7 40 19 92 25 114 7 22 14 55 17 73 3 18 9 35 14 38 5 3 9 15 9 28 0 13 9 31 20 41 20 18 19 57 -1 79 -5 6 -9 75 -9 155 0 133 -2 151 -24 196 -13 28 -37 63 -54 79 -17 16 -29 33 -26 38 9 14 281 10 317 -6z m-3042 -7 l21 -11 -18 -19 c-10 -11 -40 -32 -66 -46 l-48 -26 0 -116 c-1 -134 -9 -343 -18 -451 l-7 -75 -105 0 -105 0 5 95 c10 196 -3 449 -28 510 -12 30 -33 49 -85 75 -50 26 -75 53 -56 60 39 14 485 18 510 4z m380 -656 c14 -38 15 -271 1 -285 -13 -13 -829 -17 -850 -4 -8 5 12 31 59 77 76 75 110 89 218 89 39 0 52 -5 76 -30 l29 -30 125 1 c69 0 134 4 144 8 18 7 51 46 121 145 44 62 62 69 77 29z"/>
<path d="M3692 4188 c-7 -7 -12 -18 -12 -25 0 -7 -13 -42 -29 -78 -25 -54 -27 -66 -15 -76 8 -6 14 -28 14 -48 0 -50 12 -65 44 -57 14 3 38 9 54 12 47 11 50 19 34 77 -8 28 -17 70 -21 92 -9 49 -37 115 -48 115 -5 0 -14 -5 -21 -12z"/>
<path d="M1340 2690 c0 -23 4 -30 20 -30 16 0 20 7 20 30 0 23 -4 30 -20 30 -16 0 -20 -7 -20 -30z"/>
<path d="M2589 3157 c-44 -29 -56 -57 -76 -164 -21 -123 -13 -416 15 -486 29 -76 52 -92 122 -90 32 1 72 7 87 15 32 15 81 99 82 141 1 15 8 39 18 53 30 46 5 359 -36 459 -36 86 -139 121 -212 72z m136 -618 c-8 -12 -32 -12 -40 1 -11 18 5 31 26 20 11 -6 17 -15 14 -21z"/>
<path d="M6035 2878 c-3 -18 -15 -75 -27 -127 l-21 -94 23 -19 c22 -18 99 -26 101 -10 7 41 7 104 0 132 -5 19 -15 61 -21 93 -9 45 -15 57 -30 57 -13 0 -20 -10 -25 -32z"/>
<path d="M1575 1030 c3 -5 8 -10 11 -10 2 0 4 5 4 10 0 6 -5 10 -11 10 -5 0 -7 -4 -4 -10z"/>
<path d="M4948 1830 c-53 -16 -84 -47 -101 -102 -16 -51 -40 -207 -39 -258 1 -71 28 -221 48 -268 20 -45 30 -56 70 -74 65 -28 134 -21 174 17 17 16 30 38 30 50 0 11 6 27 13 33 14 15 17 299 4 367 -27 133 -68 204 -134 231 -18 8 -34 14 -35 13 -2 0 -15 -4 -30 -9z"/>
<path d="M2703 1628 c-18 -24 -25 -52 -39 -153 -7 -55 -16 -112 -20 -127 l-6 -28 59 0 c33 0 67 6 77 13 l18 13 -17 109 c-24 155 -46 207 -72 173z"/>
<path d="M6015 1821 c-40 -24 -61 -49 -80 -94 -22 -52 -22 -431 0 -484 8 -19 15 -43 15 -53 0 -10 20 -36 45 -59 41 -37 49 -41 97 -41 99 0 134 37 154 162 17 102 18 301 2 365 -6 27 -15 64 -19 84 -26 110 -133 170 -214 120z"/>
<path d="M8533 288 c-6 -7 -28 -51 -50 -98 -23 -47 -49 -93 -60 -103 -18 -16 -51 -17 -380 -18 -341 -1 -408 -6 -374 -28 21 -14 861 -14 877 0 11 9 14 43 14 135 0 118 -5 140 -27 112z"/>
<path d="M40 235 c0 -26 8 -59 20 -80 11 -20 20 -44 20 -54 0 -9 10 -27 23 -39 l23 -22 1797 0 c1191 0 1797 3 1797 10 0 7 -596 10 -1769 10 -1496 0 -1773 2 -1796 14 -31 16 -95 135 -95 178 0 15 -4 28 -10 28 -5 0 -10 -20 -10 -45z"/>
<path d="M5408 63 c-73 -12 11 -37 88 -26 43 6 62 23 27 23 -10 0 -34 2 -53 4 -19 2 -47 2 -62 -1z"/>
<path d="M6053 63 c-18 -2 -33 -8 -33 -12 0 -12 83 -22 94 -11 10 10 -1 31 -17 28 -7 0 -27 -3 -44 -5z"/>
<path d="M6945 60 c-15 -24 17 -38 45 -20 13 9 13 11 0 20 -19 13 -37 13 -45 0z"/>
<path d="M7305 60 c-4 -7 -3 -16 3 -22 14 -14 47 -6 47 12 0 18 -40 26 -50 10z"/>
<path d="M3820 50 c0 -5 18 -10 40 -10 22 0 40 5 40 10 0 6 -18 10 -40 10 -22 0 -40 -4 -40 -10z"/>
<path d="M4020 50 c0 -5 5 -10 10 -10 6 0 10 5 10 10 0 6 -4 10 -10 10 -5 0 -10 -4 -10 -10z"/>
<path d="M4080 50 c0 -5 5 -10 10 -10 6 0 10 5 10 10 0 6 -4 10 -10 10 -5 0 -10 -4 -10 -10z"/>
<path d="M4500 50 c0 -6 43 -10 110 -10 67 0 110 4 110 10 0 6 -43 10 -110 10 -67 0 -110 -4 -110 -10z"/>
<path d="M4960 50 c0 -5 5 -10 10 -10 6 0 10 5 10 10 0 6 -4 10 -10 10 -5 0 -10 -4 -10 -10z"/>
<path d="M5880 50 c0 -5 9 -10 20 -10 11 0 20 5 20 10 0 6 -9 10 -20 10 -11 0 -20 -4 -20 -10z"/>
<path d="M5950 50 c0 -5 9 -10 20 -10 11 0 20 5 20 10 0 6 -9 10 -20 10 -11 0 -20 -4 -20 -10z"/>
<path d="M6180 50 c0 -5 5 -10 10 -10 6 0 10 5 10 10 0 6 -4 10 -10 10 -5 0 -10 -4 -10 -10z"/>
<path d="M6310 50 c0 -5 5 -10 10 -10 6 0 10 5 10 10 0 6 -4 10 -10 10 -5 0 -10 -4 -10 -10z"/>
<path d="M6410 50 c0 -5 14 -10 30 -10 17 0 30 5 30 10 0 6 -13 10 -30 10 -16 0 -30 -4 -30 -10z"/>
<path d="M6520 50 c0 -5 5 -10 10 -10 6 0 10 5 10 10 0 6 -4 10 -10 10 -5 0 -10 -4 -10 -10z"/>
<path d="M6580 50 c0 -6 63 -10 170 -10 107 0 170 4 170 10 0 6 -63 10 -170 10 -107 0 -170 -4 -170 -10z"/>
<path d="M7180 50 c0 -5 5 -10 10 -10 6 0 10 5 10 10 0 6 -4 10 -10 10 -5 0 -10 -4 -10 -10z"/>
<path d="M7560 50 c0 -5 5 -10 10 -10 6 0 10 5 10 10 0 6 -4 10 -10 10 -5 0 -10 -4 -10 -10z"/>
</g>
</g>
  <g id="id1:id1" transform="matrix(1.25,0,0,1.25,0.0,0.0)"><g transform="translate(0.000000,204.800000) scale(0.040000,-0.040000)" fill="#b68120" stroke="none">
<path d="M0 2560 l0 -2560 4300 0 4300 0 0 2560 0 2560 -4300 0 -4300 0 0 -2560z m8189 2234 c11 -10 12 -19 5 -36 -6 -14 -8 -147 -6 -333 6 -383 6 -460 2 -555 -1 -41 0 -304 2 -585 l5 -510 22 -5 c12 -3 28 -17 36 -32 12 -25 12 -29 -5 -38 -10 -5 -26 -10 -34 -10 -9 0 -16 -6 -16 -12 -3 -82 1 -1353 5 -1598 3 -179 2 -338 -3 -354 -10 -36 -6 -35 -265 -42 -146 -4 -202 -2 -213 6 -10 9 -21 10 -41 1 -32 -12 -1432 -9 -1496 4 -22 4 -42 3 -50 -3 -8 -6 -152 -9 -412 -6 -1392 13 -2417 15 -2431 4 -7 -7 -24 -10 -36 -7 -13 4 -534 9 -1158 12 -624 4 -1146 7 -1160 7 -14 1 -144 0 -290 -1 l-265 -2 -3 48 c-1 26 -4 199 -6 383 -2 184 -4 344 -5 355 -1 11 1 270 4 575 3 305 5 607 4 670 -2 155 -2 130 5 700 10 760 12 1124 6 1239 l-5 104 45 2 c116 5 2642 5 2651 -1 13 -8 80 5 96 18 8 6 18 6 31 -1 25 -13 10 -13 621 -12 357 1 528 5 537 12 11 9 143 8 319 -3 17 -1 498 1 1070 4 659 4 1047 2 1058 -4 12 -6 22 -6 30 1 8 6 253 12 647 16 349 4 637 8 639 11 7 7 44 -7 60 -22z m-672 -4435 c23 -7 38 -7 55 2 17 9 89 10 293 5 243 -6 334 -7 585 -7 41 0 79 -4 83 -8 5 -5 5 -73 0 -152 l-8 -144 -690 2 c-379 0 -703 2 -720 2 -16 1 -65 -2 -109 -5 -50 -4 -82 -2 -89 5 -14 14 -295 15 -368 1 -35 -7 -56 -7 -63 0 -14 14 -72 13 -96 -2 -15 -10 -24 -9 -45 2 -19 10 -28 11 -37 2 -15 -15 -294 -17 -303 -2 -8 14 -52 13 -61 -1 -5 -9 -48 -10 -158 -4 -83 4 -162 6 -176 4 -19 -2 -1561 -3 -1747 0 -18 0 -57 1 -85 1 -29 1 -855 4 -1835 8 l-1783 7 -23 25 c-27 29 -67 121 -67 156 0 12 -5 26 -10 29 -14 9 -12 61 3 73 8 7 303 11 927 12 503 0 915 2 916 3 1 1 1257 1 2791 -1 1889 -2 2798 -6 2820 -13z"/>
<path d="M3542 4568 c-25 -25 -12 -47 46 -81 l57 -34 -1 -40 c0 -22 -10 -59 -22 -82 -12 -23 -22 -50 -22 -61 0 -26 -16 -61 -68 -148 l-44 -73 16 -24 c11 -17 13 -30 7 -42 -5 -10 -17 -54 -26 -98 -26 -127 -44 -172 -75 -197 -122 -96 -141 -114 -138 -133 l3 -20 230 3 c127 2 234 7 239 12 5 5 19 2 33 -7 20 -13 32 -14 81 -3 31 6 100 16 152 20 115 11 249 35 263 49 5 5 6 14 3 19 -8 13 -125 92 -136 92 -16 0 -49 70 -69 147 -40 144 -50 178 -70 233 -43 119 -61 192 -61 248 0 66 7 76 78 111 23 12 42 28 42 36 0 21 -28 30 -155 48 -284 41 -343 45 -363 25z m209 -517 c14 -56 23 -104 20 -106 -2 -3 -13 -5 -23 -5 -10 0 -27 -5 -37 -12 -30 -19 -54 -3 -46 31 3 17 1 39 -5 51 -9 17 -8 30 5 63 10 23 21 52 26 65 16 42 33 17 60 -87z m86 -351 c2 -29 -5 -43 -41 -84 l-44 -49 -66 58 c-35 32 -68 65 -71 73 -12 32 24 43 125 40 l95 -3 2 -35z"/>
<path d="M2341 4560 c-231 -6 -237 -8 -212 -75 7 -20 10 -51 7 -68 -7 -42 1 -53 47 -61 42 -8 48 3 16 35 -23 23 -22 52 3 57 9 2 31 -10 49 -26 l32 -28 -1 -170 c0 -93 4 -174 9 -180 6 -7 4 -16 -6 -24 -12 -10 -15 -40 -15 -152 l0 -139 -65 -62 c-99 -93 -94 -99 80 -99 77 0 272 3 433 7 357 10 342 4 342 126 0 89 -18 217 -33 237 -13 17 -62 15 -81 -3 -8 -9 -29 -44 -45 -78 -44 -92 -67 -110 -154 -119 -114 -11 -193 -9 -205 5 -12 14 -20 312 -9 323 4 4 7 82 7 174 0 118 4 171 13 182 18 22 75 60 130 85 47 22 60 46 31 57 -9 3 -50 5 -92 4 -42 -1 -169 -5 -281 -8z"/>
<path d="M5928 4562 l-328 -2 -16 -25 c-13 -21 -15 -49 -12 -171 3 -139 4 -148 26 -162 12 -8 22 -23 22 -34 0 -24 21 -19 35 8 6 11 22 35 37 54 14 19 36 61 48 94 12 32 35 72 50 89 l27 30 21 -21 c21 -21 22 -31 22 -195 0 -96 3 -242 7 -324 l6 -151 -44 -30 c-143 -100 -169 -125 -169 -160 l0 -24 328 5 c180 3 337 8 350 12 25 8 29 40 8 68 -7 9 -53 41 -102 71 l-89 53 -8 89 c-9 112 2 572 15 580 5 3 20 3 33 0 21 -5 39 -28 88 -111 31 -51 64 -75 107 -75 29 0 42 5 50 19 17 32 13 262 -5 288 -19 27 -59 29 -507 25z"/>
<path d="M4792 4509 c-13 -5 -28 -7 -33 -3 -5 3 -19 -2 -31 -10 -12 -9 -35 -16 -51 -16 -33 0 -132 -78 -143 -113 -4 -12 -18 -39 -31 -60 -15 -24 -22 -45 -18 -58 6 -19 13 -20 73 -16 112 8 153 16 196 36 79 38 92 41 158 30 35 -6 67 -14 72 -20 6 -5 17 -9 25 -9 9 -1 39 -22 68 -48 43 -39 53 -54 55 -85 l3 -37 -145 -4 c-80 -2 -174 -7 -210 -11 -88 -10 -142 6 -176 50 -35 46 -64 45 -122 -2 -25 -21 -66 -49 -91 -63 -25 -14 -47 -33 -49 -42 -2 -9 25 -47 65 -89 115 -122 203 -146 402 -110 140 26 194 26 247 2 53 -24 104 -86 104 -126 0 -90 -186 -158 -288 -106 -21 11 -70 53 -109 95 -78 83 -91 88 -153 56 -57 -29 -67 -53 -38 -92 28 -38 74 -121 92 -168 4 -8 29 -51 56 -94 27 -44 47 -83 45 -86 -2 -4 -73 -10 -157 -14 -124 -6 -155 -10 -165 -23 -16 -21 -9 -30 76 -87 60 -40 70 -51 79 -88 11 -45 34 -201 38 -253 1 -16 2 -35 3 -41 0 -7 10 -14 22 -17 22 -6 18 -27 -6 -27 -21 0 -26 -26 -37 -180 -11 -157 -16 -170 -73 -196 -16 -8 -52 -33 -79 -58 -62 -55 -59 -77 11 -77 27 0 234 -2 461 -5 312 -4 417 -2 428 7 11 9 14 43 14 161 0 136 -2 153 -21 179 -39 56 -81 33 -150 -83 -29 -50 -63 -96 -74 -103 -14 -9 -54 -10 -140 -6 l-120 6 4 172 c2 120 0 177 -8 187 -9 10 -8 16 4 26 12 10 15 42 15 174 0 120 3 167 13 181 8 10 45 39 83 64 46 31 69 53 69 66 0 19 -8 20 -115 23 -126 3 -154 13 -98 36 21 9 44 30 56 51 19 31 26 35 61 35 22 0 50 4 63 9 13 5 41 14 63 20 185 56 315 188 315 320 0 74 -56 188 -116 239 l-43 36 35 34 36 35 -6 76 c-3 42 -9 104 -12 138 -3 33 -1 69 4 80 15 28 -3 61 -42 80 l-35 16 -41 -46 -41 -47 -27 17 c-15 9 -37 26 -48 38 -17 17 -43 25 -115 34 -52 6 -103 13 -114 16 -11 2 -31 -1 -43 -6z"/>
<path d="M1078 3330 c-35 -22 -20 -48 53 -96 l71 -46 -6 -107 c-3 -58 -7 -153 -8 -211 l-3 -105 50 -7 c31 -4 54 -3 62 4 8 6 35 9 67 5 29 -3 58 -2 64 2 17 10 32 131 32 263 0 109 2 118 21 128 45 24 218 -26 260 -76 37 -43 51 -221 34 -438 -8 -99 -22 -140 -57 -172 -49 -45 -146 -77 -218 -72 l-45 3 -3 57 c-2 32 1 74 7 94 5 19 8 41 5 48 -9 24 -58 38 -154 43 -123 7 -125 5 -125 -126 l0 -95 -49 -33 c-113 -74 -148 -138 -88 -161 34 -13 470 -22 583 -12 114 11 209 57 295 145 80 81 137 178 131 219 -2 17 0 42 5 56 33 85 37 124 23 236 -19 154 -74 288 -140 338 -51 39 -148 81 -235 101 -92 22 -603 34 -632 15z"/>
<path d="M2546 3299 c-174 -49 -274 -148 -306 -306 -16 -74 -9 -376 10 -418 52 -122 87 -177 139 -222 89 -77 127 -93 239 -100 209 -12 355 72 427 247 14 36 28 81 29 100 2 19 9 49 16 65 16 39 18 255 2 319 -43 175 -178 302 -347 327 -85 12 -130 10 -209 -12z m138 -148 c3 -5 14 -7 24 -4 67 17 116 -132 121 -364 2 -108 0 -137 -13 -155 -9 -12 -16 -33 -16 -46 0 -39 -41 -123 -65 -132 -12 -4 -46 -11 -76 -15 -50 -6 -56 -5 -81 22 -46 49 -56 101 -57 293 -2 227 15 329 61 377 23 24 41 33 64 33 18 0 35 -4 38 -9z"/>
<path d="M2678 2579 c-29 -16 -23 -55 10 -67 59 -20 98 28 50 62 -26 18 -36 19 -60 5z"/>
<path d="M3303 3268 c-38 -18 -28 -44 30 -77 95 -54 92 -45 92 -270 0 -108 4 -202 8 -209 5 -7 4 -18 -1 -25 -14 -18 -24 -101 -24 -199 1 -83 -1 -89 -25 -105 -70 -49 -104 -86 -101 -112 l3 -26 355 -6 c195 -3 394 -10 441 -14 l87 -8 12 23 c13 25 16 183 5 277 -5 49 -11 64 -26 68 -35 11 -60 -6 -103 -73 -74 -115 -78 -117 -216 -117 -102 0 -121 3 -139 19 -12 11 -21 29 -21 42 0 13 -4 26 -10 29 -5 3 -10 43 -10 89 0 87 -10 109 -53 117 -30 6 -24 23 11 30 19 4 39 12 45 18 7 7 13 80 17 195 6 205 9 214 80 243 40 17 80 51 80 69 0 6 -8 16 -17 20 -29 13 -494 15 -520 2z m252 -559 c0 -10 -12 -14 -42 -14 -51 0 -58 17 -11 26 42 8 53 6 53 -12z"/>
<path d="M5920 3272 c-47 -6 -55 -10 -58 -29 -3 -18 9 -30 53 -58 65 -42 73 -56 56 -99 -7 -17 -19 -62 -26 -101 -14 -73 -42 -164 -68 -225 -8 -19 -21 -49 -27 -67 -7 -17 -27 -55 -46 -84 -19 -29 -34 -60 -34 -68 0 -19 -48 -81 -63 -81 -7 0 -49 -19 -94 -41 -58 -29 -83 -47 -83 -60 0 -10 8 -20 18 -23 62 -17 257 -50 368 -61 79 -8 90 9 44 69 -42 56 -54 82 -46 101 5 14 18 15 93 10 111 -8 113 -9 113 -42 0 -19 -14 -39 -50 -73 -32 -30 -49 -52 -45 -62 9 -23 139 -38 326 -38 206 0 210 3 119 95 l-62 62 -9 69 c-5 38 -12 94 -15 124 -4 30 -11 61 -17 68 -8 10 -5 14 11 19 30 7 28 25 -12 125 -38 94 -86 270 -86 316 0 25 9 37 50 67 67 49 66 70 -2 79 -84 10 -348 15 -408 8z m165 -474 c4 -24 8 -68 9 -98 l1 -55 -38 -3 c-49 -4 -54 10 -32 106 27 113 46 129 60 50z m230 -107 c3 -5 1 -13 -5 -16 -15 -9 -43 3 -35 15 8 13 32 13 40 1z"/>
<path d="M6730 3261 c-9 -17 -2 -26 49 -66 62 -49 76 -72 86 -145 9 -68 17 -77 58 -62 28 10 39 10 62 -2 17 -9 36 -11 48 -7 12 5 35 5 52 1 48 -11 55 -4 55 59 0 31 5 62 12 69 8 8 47 12 107 12 97 0 120 -6 183 -52 20 -15 31 -16 95 -5 41 7 80 20 90 30 16 16 15 19 -22 58 -61 63 -114 85 -235 98 -164 17 -384 31 -512 31 -106 0 -118 -2 -128 -19z"/>
<path d="M7431 2978 c-35 -17 -55 -38 -99 -107 -30 -47 -66 -98 -79 -112 -33 -36 -29 -84 7 -83 14 0 32 3 40 5 18 5 28 -54 29 -178 1 -96 14 -140 64 -220 23 -36 32 -41 84 -51 101 -19 191 -23 196 -8 3 8 -6 38 -20 67 -16 33 -29 85 -34 134 -12 111 -34 191 -70 248 l-29 49 20 34 c12 18 33 39 47 46 27 13 72 80 73 108 0 9 -17 33 -39 54 -35 34 -41 36 -60 24 -17 -10 -25 -10 -41 0 -26 16 -37 15 -89 -10z"/>
<path d="M6859 2866 c-15 -24 -19 -50 -19 -118 0 -77 2 -89 20 -98 24 -13 26 -67 6 -181 -16 -91 -17 -93 -64 -123 -56 -35 -92 -73 -86 -89 4 -11 57 -15 267 -21 144 -4 273 -8 287 -9 19 -2 26 3 28 21 4 24 -26 54 -107 107 -39 26 -47 37 -54 75 -4 25 -5 99 -1 165 10 155 8 275 -5 288 -5 5 -28 9 -50 8 -23 -1 -49 -1 -58 -1 -10 1 -47 2 -81 4 l-64 4 -19 -32z"/>
<path d="M3003 2328 c-29 -33 -66 -116 -59 -133 3 -8 17 -15 30 -15 21 0 27 7 35 38 10 41 22 132 18 132 -2 0 -13 -10 -24 -22z"/>
<path d="M1416 1995 c-138 -50 -198 -129 -204 -273 -7 -154 30 -222 154 -286 117 -59 137 -67 202 -77 132 -22 148 -26 167 -36 74 -41 106 -135 66 -192 -34 -48 -109 -62 -211 -40 -83 18 -125 68 -180 217 l-12 32 -58 0 c-39 0 -62 -5 -70 -15 -9 -11 -11 -53 -6 -162 6 -164 13 -222 28 -240 6 -8 34 -13 69 -13 51 0 62 4 81 25 24 27 48 31 80 14 34 -19 265 -19 318 -2 90 31 197 118 236 195 19 38 24 62 24 127 l0 79 -39 49 c-85 108 -177 157 -366 193 -181 34 -259 116 -189 199 22 27 32 31 72 31 26 0 55 -7 66 -15 11 -8 30 -12 46 -9 39 8 92 -41 129 -121 34 -72 55 -88 103 -78 54 11 57 22 58 200 0 134 -3 164 -16 177 -23 23 -74 20 -128 -9 -26 -14 -51 -25 -55 -25 -5 0 -26 12 -47 26 -84 58 -206 69 -318 29z"/>
<path d="M4857 1985 c-66 -18 -151 -62 -180 -94 -40 -42 -105 -158 -124 -219 -21 -66 -25 -315 -6 -354 6 -13 17 -38 24 -57 14 -37 88 -152 122 -190 12 -13 56 -40 97 -59 62 -29 90 -36 160 -40 157 -8 288 27 353 97 39 40 104 178 123 259 15 63 16 87 6 185 -10 102 -23 150 -67 252 -21 49 -124 154 -177 181 -97 49 -235 65 -331 39z m161 -179 c58 -30 76 -66 111 -219 18 -77 14 -309 -5 -359 -27 -69 -60 -98 -111 -98 -108 0 -156 65 -179 244 -14 105 -9 179 22 315 24 108 89 155 162 117z"/>
<path d="M2563 1979 c-21 -22 -15 -37 38 -90 36 -36 48 -55 43 -67 -4 -10 -16 -44 -27 -77 -11 -33 -30 -80 -41 -105 -11 -25 -26 -63 -32 -85 -6 -22 -21 -67 -32 -100 -11 -33 -30 -96 -42 -140 -34 -129 -46 -150 -112 -194 -32 -23 -62 -41 -66 -41 -5 0 -21 -14 -37 -30 -59 -62 -23 -71 325 -82 l95 -3 -3 23 c-1 13 -22 44 -47 69 -38 37 -45 51 -45 83 0 51 18 60 114 60 106 0 126 -9 126 -59 0 -45 11 -52 75 -47 22 2 47 0 55 -4 9 -5 26 -2 40 6 14 7 39 13 57 14 21 0 33 6 37 18 5 18 -5 98 -24 192 -7 30 -15 73 -20 95 -4 22 -26 111 -49 198 -22 86 -41 166 -41 176 0 29 48 80 91 98 40 16 51 41 27 60 -37 28 -482 56 -505 32z m189 -505 c11 -64 16 -120 11 -124 -4 -5 -28 -10 -53 -12 -40 -3 -45 -1 -42 17 1 11 9 68 17 128 22 170 38 168 67 -9z"/>
<path d="M5980 1984 c-71 -14 -155 -51 -187 -84 -111 -111 -152 -233 -153 -452 0 -143 13 -221 46 -275 24 -38 136 -153 150 -153 6 0 31 -11 55 -23 63 -34 91 -39 210 -38 190 1 289 62 373 230 60 117 75 338 33 462 -31 91 -83 173 -147 232 -79 72 -139 96 -258 101 -53 3 -108 2 -122 0z m180 -202 c23 -23 42 -53 48 -77 5 -22 14 -61 20 -88 16 -63 14 -284 -2 -375 -17 -93 -46 -127 -114 -135 -58 -7 -124 26 -139 70 -30 84 -33 110 -33 312 0 193 2 215 20 252 25 49 72 79 124 79 31 0 45 -7 76 -38z"/>
<path d="M6660 1963 c0 -10 18 -37 41 -58 72 -70 79 -94 79 -259 l0 -145 38 -10 c20 -6 44 -11 52 -11 9 0 22 -6 28 -12 17 -17 29 3 38 60 8 53 19 60 40 25 49 -78 85 -133 94 -138 4 -3 30 -41 57 -85 26 -44 64 -106 83 -138 19 -32 60 -93 90 -135 l55 -77 71 0 c41 0 75 5 82 12 15 15 16 143 2 380 -5 95 -11 237 -13 315 l-4 142 53 38 c53 38 73 68 57 84 -11 11 -244 19 -356 12 -81 -6 -88 -8 -85 -26 3 -20 20 -33 99 -76 43 -24 46 -32 59 -186 17 -199 17 -215 10 -220 -10 -6 -144 217 -173 288 -38 93 -95 192 -122 212 -24 18 -45 20 -201 23 -165 3 -174 3 -174 -15z"/>
<path d="M3439 1944 c-19 -23 -2 -43 70 -84 35 -20 68 -45 74 -55 6 -11 14 -58 18 -105 5 -47 11 -106 15 -132 l6 -47 -36 -15 c-37 -15 -53 -37 -42 -55 5 -7 15 -7 33 0 14 5 29 6 33 2 4 -4 3 -66 -1 -138 -5 -84 -5 -133 2 -141 11 -13 -40 -70 -120 -133 -69 -54 -57 -66 79 -68 237 -5 774 -3 792 3 16 5 18 19 18 142 0 164 -10 212 -45 212 -24 0 -39 -16 -104 -107 -19 -26 -46 -60 -60 -75 l-25 -28 -126 0 c-112 0 -129 2 -144 19 -15 17 -16 46 -11 332 3 173 8 324 11 336 3 15 19 29 47 42 23 11 53 31 66 45 14 14 30 26 38 26 7 0 13 9 13 20 l0 20 -294 0 c-256 0 -295 -2 -307 -16z"/>
<path d="M678 1618 c-6 -37 2 -58 23 -58 16 0 19 7 19 40 0 33 -4 40 -19 40 -11 0 -20 -9 -23 -22z"/>
<path d="M6840 1390 c-16 -9 -50 -23 -62 -24 -3 -1 -10 -4 -14 -8 -11 -12 -53 -185 -60 -248 -7 -59 -26 -90 -55 -90 -25 0 -123 -26 -148 -40 -27 -14 -28 -56 -1 -70 48 -26 204 -41 359 -36 157 5 170 9 171 47 0 15 -70 79 -87 79 -4 0 -21 11 -37 23 l-29 24 21 82 c12 45 22 99 22 119 0 21 4 42 9 48 14 15 22 78 12 93 -8 12 -12 12 -24 2 -10 -8 -17 -9 -22 -1 -7 12 -34 12 -55 0z"/>
<path d="M3136 1013 c-4 -4 -31 -9 -59 -11 -104 -5 -122 -7 -132 -14 -6 -4 -40 -7 -75 -9 -79 -2 -120 -15 -120 -39 0 -21 27 -46 60 -53 14 -3 43 -12 65 -21 72 -27 293 -13 365 23 25 13 23 39 -6 63 -15 13 -38 33 -50 46 -22 23 -36 27 -48 15z"/>
<path d="M7504 226 c-9 -23 3 -34 31 -28 17 3 25 10 23 21 -4 21 -46 27 -54 7z"/>
</g>
</g>
  <g id="id2:id2" transform="matrix(1.25,0,0,1.25,0.0,0.0)"><g transform="translate(0.000000,204.800000) scale(0.040000,-0.040000)" fill="#8a4e0c" stroke="none">
<path d="M8475 5071 c-46 -28 -155 -138 -155 -156 0 -33 42 -13 104 51 43 44 70 65 83 62 l18 -3 5 -1127 c3 -619 8 -1130 13 -1134 4 -4 10 -4 15 0 4 4 8 510 10 1123 2 1010 1 1118 -14 1140 -8 14 -13 27 -10 30 8 8 -14 33 -28 33 -6 0 -24 -9 -41 -19z"/>
<path d="M67 5063 c-15 -14 -6 -40 18 -51 34 -16 35 -15 35 6 0 11 -8 26 -18 35 -20 19 -26 20 -35 10z"/>
<path d="M180 4947 c0 -16 32 -47 48 -47 18 0 14 25 -6 43 -22 20 -42 22 -42 4z"/>
<path d="M7600 3090 c-14 -4 -38 -8 -55 -9 -16 -1 -47 -6 -68 -12 -31 -8 -37 -14 -32 -30 4 -11 2 -26 -5 -34 -9 -10 -4 -19 24 -40 30 -22 43 -26 91 -23 31 2 61 8 67 15 5 7 11 34 13 60 1 26 6 56 10 66 8 19 -3 21 -45 7z"/>
<path d="M6927 3008 c-26 -9 -28 -14 -26 -52 2 -23 0 -47 -4 -53 -13 -21 19 -29 121 -32 80 -2 102 0 103 11 2 19 4 30 13 61 13 42 -8 59 -68 56 -28 -1 -64 3 -79 9 -16 7 -29 12 -30 11 -1 0 -15 -5 -30 -11z"/>
<path d="M1300 2780 c-8 -5 -28 -7 -43 -4 -55 11 -75 -40 -36 -90 11 -14 17 -26 14 -26 -4 0 -2 -6 4 -14 7 -8 43 -16 94 -20 45 -4 93 -8 107 -9 17 -1 33 7 48 24 26 31 27 39 8 39 -22 0 -41 30 -38 60 2 16 0 30 -5 33 -19 11 -139 17 -153 7z"/>
<path d="M8211 2750 c-39 -36 -43 -43 -37 -72 8 -41 12 -44 34 -25 10 10 23 17 28 17 5 0 19 8 31 18 21 16 22 20 10 54 -7 21 -15 40 -18 42 -3 3 -24 -13 -48 -34z"/>
<path d="M3545 2749 c-11 -4 -32 -8 -47 -8 -34 -1 -56 -35 -37 -57 10 -12 29 -14 90 -10 46 3 81 1 84 -4 13 -21 22 -8 22 30 0 38 -2 40 -29 40 -16 0 -37 4 -46 9 -9 5 -26 5 -37 0z"/>
<path d="M6187 2723 c-4 -3 -7 -14 -7 -24 0 -17 27 -27 121 -46 29 -5 53 16 43 40 -7 20 -142 46 -157 30z"/>
<path d="M8537 2553 c-12 -11 -8 -341 4 -348 6 -4 12 -5 15 -3 6 7 13 328 7 344 -6 15 -16 18 -26 7z"/>
<path d="M8277 2543 c-12 -11 -8 -23 8 -23 8 0 15 7 15 15 0 16 -12 20 -23 8z"/>
<path d="M8534 2146 c-8 -22 -1 -59 14 -64 8 -2 12 9 12 37 0 40 -15 55 -26 27z"/>
<path d="M8537 1573 c-12 -11 -8 -261 4 -268 18 -12 23 3 27 95 6 129 -6 198 -31 173z"/>
<path d="M6800 1495 c-7 -8 -9 -26 -5 -43 4 -20 1 -33 -10 -42 -41 -34 2 -71 78 -68 49 2 56 5 60 25 2 13 -2 31 -9 40 -8 12 -9 22 -3 30 16 18 -12 52 -51 63 -45 13 -45 13 -60 -5z"/>
<path d="M8537 1213 c-4 -3 -7 -52 -7 -107 0 -96 10 -140 26 -123 12 11 17 120 9 182 -6 52 -13 64 -28 48z"/>
<path d="M3073 1139 c-6 -6 -62 -16 -124 -21 -63 -6 -120 -15 -126 -21 -17 -13 -16 -36 2 -71 14 -26 14 -31 0 -46 -13 -14 -13 -19 1 -38 11 -16 25 -22 54 -22 21 0 42 5 45 10 3 6 17 10 30 10 13 0 27 5 30 10 3 6 19 10 34 10 16 0 42 7 57 15 16 8 36 15 45 15 22 0 31 26 15 39 -8 6 -16 30 -19 53 -6 47 -27 74 -44 57z"/>
<path d="M8534 887 c-9 -25 1 -160 12 -164 14 -5 26 89 17 140 -6 37 -19 48 -29 24z"/>
<path d="M57 392 c-22 -24 -33 -87 -20 -104 6 -7 13 -29 17 -48 11 -57 66 -157 95 -171 22 -12 328 -14 1795 -16 1220 -1 1772 -5 1779 -12 14 -14 84 -14 92 -1 8 13 82 13 90 0 9 -14 98 -13 113 2 8 8 15 8 24 1 11 -9 1150 -10 1403 -2 33 2 144 0 246 -3 102 -4 192 -2 199 2 9 5 20 4 28 -2 9 -8 16 -8 24 0 15 15 55 16 63 2 4 -7 11 -7 18 -2 14 11 78 12 92 2 16 -12 177 -11 192 2 10 8 20 8 39 -3 20 -10 29 -11 44 -1 25 15 82 16 98 0 7 -7 15 -8 24 -1 19 15 385 18 403 3 10 -8 19 -8 34 2 17 10 25 10 41 0 24 -15 76 -16 86 -1 4 7 21 9 43 5 92 -15 165 -17 188 -5 19 10 28 10 44 1 22 -14 306 -15 315 -1 3 5 165 9 375 9 l370 0 26 27 c14 16 41 62 60 103 19 41 41 87 49 102 8 14 14 47 14 73 l0 47 -37 -7 c-52 -9 -167 -13 -368 -12 -357 2 -542 2 -590 -1 -27 -2 -81 -1 -120 2 -115 8 -284 9 -1035 8 -393 0 -755 0 -805 0 -49 0 -416 1 -815 1 -1059 1 -1930 5 -2135 9 -99 3 -185 1 -191 -4 -6 -4 -24 -2 -41 4 -16 6 -38 8 -48 4 -27 -10 -296 -13 -302 -3 -3 5 -22 6 -43 2 -31 -5 -972 -8 -1125 -3 -22 1 -200 0 -396 -1 -196 -1 -374 1 -395 5 -31 5 -43 2 -57 -14z"/>
</g>
</g>
</svg>
