<?xml version="1.0" standalone="no"?>
<!DOCTYPE svg PUBLIC "-//W3C//DTD SVG 1.1//EN"
 "http://www.w3.org/Graphics/SVG/1.1/DTD/svg11.dtd">
<!-- Created with svg_stack (http://github.com/astraw/svg_stack) -->
<svg xmlns:sodipodi="http://sodipodi.sourceforge.net/DTD/sodipodi-0.dtd" xmlns="http://www.w3.org/2000/svg" version="1.1" width="2556.0" height="1510.0">
  <defs/>
  <g id="id0:id0" transform="matrix(1.25,0,0,1.25,0.0,0.0)"><g transform="translate(0.000000,1208.000000) scale(0.040000,-0.040000)" fill="#1a1a1a" stroke="none">
<path d="M12286 25294 c-515 -9 -783 -17 -790 -24 -6 -6 -9 -59 -8 -138 3 -148 26 -1698 26 -1787 l1 -60 -40 -3 c-58 -4 -335 -39 -525 -67 -795 -117 -1647 -350 -2408 -659 -454 -184 -1014 -462 -1437 -713 -840 -500 -1595 -1102 -2285 -1824 -1390 -1455 -2340 -3276 -2735 -5243 -25 -124 -41 -224 -36 -229 12 -12 1481 -9 1496 3 7 6 18 38 25 72 19 100 97 410 146 581 317 1117 878 2212 1608 3137 749 949 1690 1755 2733 2339 901 505 1911 863 2923 1037 144 24 544 81 550 78 3 -1 7 -182 9 -401 3 -533 15 -965 25 -982 8 -12 59 -13 317 -7 221 5 309 4 314 -4 8 -13 13 -200 20 -780 3 -234 7 -533 10 -665 3 -132 7 -440 10 -685 16 -1407 44 -3160 50 -3170 6 -10 405 -4 415 6 7 7 7 228 0 680 -5 368 -14 1029 -20 1469 -6 440 -15 1084 -20 1430 -5 347 -11 878 -12 1180 l-3 550 278 6 c161 3 281 9 287 15 6 6 10 851 10 2434 0 1943 -2 2425 -12 2432 -7 4 -42 7 -78 6 -36 0 -416 -7 -844 -14z"/>
<path d="M20480 19750 c0 -5 5 -10 10 -10 6 0 10 5 10 10 0 6 -4 10 -10 10 -5 0 -10 -4 -10 -10z"/>
<path d="M50117 18694 c-14 -14 -7 -35 11 -32 9 2 17 10 17 17 0 16 -18 25 -28 15z"/>
<path d="M21340 18374 c-11 -12 -11 -18 2 -30 14 -14 17 -14 32 1 13 13 14 20 5 31 -15 18 -24 18 -39 -2z"/>
<path d="M21257 18332 c-25 -27 -21 -34 16 -27 42 9 56 23 37 35 -22 14 -35 12 -53 -8z"/>
<path d="M28980 17984 c-265 -5 -632 -25 -865 -45 -570 -51 -826 -160 -990 -424 -119 -191 -167 -435 -167 -845 0 -478 69 -733 247 -914 111 -113 216 -166 420 -214 278 -65 408 -73 1425 -82 584 -5 940 -12 985 -19 140 -22 206 -57 257 -133 38 -56 48 -99 49 -214 2 -179 -46 -252 -196 -300 -134 -43 -200 -47 -850 -51 -842 -6 -994 5 -1114 81 -81 52 -103 103 -107 246 -2 90 -5 105 -21 111 -28 10 -162 21 -173 14 -5 -3 -199 -6 -430 -5 -231 0 -431 -2 -445 -6 l-25 -6 0 -227 c0 -396 45 -584 179 -751 57 -71 168 -165 234 -199 247 -124 716 -167 1727 -158 856 7 1373 41 1623 107 404 106 607 337 682 778 23 130 33 394 23 589 -20 424 -113 663 -323 836 -72 60 -157 104 -277 146 -223 77 -458 92 -1493 96 -774 3 -1017 12 -1111 40 -69 20 -127 64 -161 122 -27 45 -28 54 -28 169 l0 120 30 60 c27 53 37 62 95 92 105 52 184 62 580 72 195 5 427 14 515 21 168 12 523 0 643 -22 130 -24 214 -74 253 -150 27 -53 50 -169 38 -190 -13 -25 -12 -26 19 -34 30 -9 1052 -6 1066 2 11 7 1 301 -14 418 -28 219 -92 385 -200 514 -173 205 -383 295 -794 336 -138 14 -968 26 -1306 19z"/>
<path d="M42580 17980 c-157 -4 -325 -10 -375 -14 -599 -48 -895 -173 -1116 -470 -98 -131 -194 -348 -181 -411 3 -19 0 -32 -11 -40 -9 -7 -23 -44 -32 -86 -46 -216 -65 -508 -65 -1014 0 -858 82 -1317 298 -1655 45 -70 159 -189 229 -237 29 -20 53 -40 53 -45 0 -4 8 -8 18 -8 10 0 40 -11 68 -24 124 -60 296 -88 644 -105 118 -6 301 -16 405 -22 105 -6 431 -11 725 -12 478 -1 564 1 805 22 369 31 667 67 748 90 335 97 510 353 572 836 17 133 31 591 19 633 l-6 22 -534 0 c-351 0 -535 -3 -539 -10 -4 -6 -9 -47 -11 -93 -18 -287 -109 -403 -351 -449 -95 -18 -1258 -17 -1458 1 -383 35 -510 156 -551 526 -24 210 -24 932 -1 1071 50 304 150 412 432 464 84 16 1375 26 1515 11 246 -24 342 -90 370 -252 5 -30 15 -88 22 -129 l13 -75 120 -5 c66 -3 302 -3 525 0 l405 5 3 65 c5 95 -16 366 -39 505 -41 251 -90 384 -189 520 -128 174 -364 289 -695 340 -249 38 -1214 62 -1835 45z"/>
<path d="M14614 17941 c-11 -11 3 -56 87 -292 50 -140 130 -364 179 -499 48 -135 223 -625 390 -1090 166 -465 324 -906 350 -980 26 -74 79 -223 118 -330 39 -107 123 -341 187 -520 64 -179 123 -331 130 -339 12 -12 129 -15 732 -19 648 -4 720 -3 732 11 7 9 52 155 101 324 48 169 226 790 394 1378 169 589 310 1076 314 1083 4 8 12 14 17 14 9 0 54 -155 165 -567 23 -88 55 -203 70 -255 16 -52 141 -507 279 -1010 139 -503 257 -926 264 -940 l13 -25 129 -6 c208 -9 1297 -10 1330 -1 25 7 33 18 48 63 21 58 577 1591 1029 2834 388 1065 409 1127 406 1148 l-3 18 -550 -1 c-302 0 -553 -4 -556 -8 -4 -4 -50 -131 -102 -282 -204 -588 -368 -1058 -391 -1120 -14 -36 -64 -177 -111 -315 -48 -137 -143 -410 -212 -605 -68 -195 -142 -404 -163 -465 -21 -60 -46 -132 -55 -160 -21 -62 -30 -72 -43 -49 -6 11 -72 233 -147 494 -75 261 -172 597 -215 745 -43 149 -117 405 -165 570 -188 650 -227 785 -264 915 -22 74 -49 168 -61 208 l-21 72 -658 0 c-515 0 -661 -3 -669 -12 -6 -7 -17 -38 -25 -68 -8 -30 -142 -471 -297 -980 -155 -509 -314 -1028 -352 -1155 -38 -126 -93 -306 -123 -400 -29 -93 -67 -219 -85 -280 -19 -60 -37 -114 -42 -119 -12 -14 -24 20 -260 719 -121 358 -269 796 -330 975 -60 179 -155 462 -211 630 -55 168 -106 319 -113 335 -6 17 -32 91 -57 165 -53 158 -66 190 -81 190 -386 3 -1099 4 -1102 1z"/>
<path d="M34360 17940 l-715 -5 -85 -171 c-47 -94 -150 -304 -229 -465 -80 -162 -259 -525 -398 -808 -139 -282 -253 -514 -253 -516 0 -1 -111 -227 -246 -501 -136 -275 -288 -584 -339 -689 -51 -104 -170 -347 -264 -539 -95 -192 -168 -353 -164 -357 5 -5 274 -11 599 -15 l592 -7 17 21 c10 11 93 177 185 369 l167 348 1146 3 1146 2 15 -22 c16 -26 146 -312 146 -323 0 -4 8 -19 18 -33 10 -15 47 -92 82 -172 35 -80 72 -154 82 -165 l19 -20 572 -3 c314 -1 582 1 595 4 12 3 22 10 22 14 0 5 -43 97 -95 205 -52 108 -95 198 -95 200 0 1 -52 110 -116 241 -64 132 -131 271 -149 309 -18 39 -66 140 -108 225 -64 133 -206 427 -534 1110 -41 85 -92 191 -113 235 -21 44 -135 283 -255 530 -119 248 -232 486 -252 530 -19 44 -39 87 -44 95 -5 8 -47 92 -93 187 -77 156 -106 199 -133 191 -4 -2 -330 -5 -723 -8z m64 -998 c15 -35 62 -134 103 -220 41 -86 90 -188 108 -227 18 -38 65 -137 105 -220 40 -82 98 -206 130 -275 32 -69 93 -197 135 -285 97 -202 116 -245 107 -246 -4 0 -340 0 -747 0 -532 1 -739 4 -737 12 3 12 19 46 299 629 100 206 205 427 236 490 202 423 208 434 221 419 7 -8 25 -42 40 -77z"/>
<path d="M36299 17936 c-8 -9 -14 -1011 -6 -1018 1 -1 360 -5 797 -8 l795 -5 3 -1505 c1 -827 6 -1508 10 -1512 12 -12 1074 -22 1090 -11 10 8 12 310 12 1516 0 944 3 1508 9 1512 6 3 353 5 773 5 600 0 768 2 781 12 16 12 17 50 15 513 l-3 500 -2133 5 c-1341 3 -2137 1 -2143 -4z"/>
<path d="M45847 17938 c-9 -5 -12 -512 -12 -2027 0 -1111 3 -2022 6 -2025 3 -3 244 -9 535 -12 400 -5 535 -4 552 5 l22 12 2 762 3 762 1215 0 1215 0 3 -760 c1 -418 6 -763 10 -767 9 -9 1087 -16 1096 -7 6 6 9 4049 3 4055 -6 6 -1088 5 -1097 -1 -6 -4 -10 -275 -10 -720 0 -442 -4 -716 -10 -720 -12 -7 -2409 -7 -2421 1 -5 3 -9 315 -9 712 0 389 -4 713 -8 719 -6 10 -135 13 -546 15 -296 2 -543 0 -549 -4z"/>
<path d="M23287 17922 c-10 -10 -17 -21 -17 -24 0 -3 -124 -256 -275 -563 -151 -306 -275 -558 -275 -560 0 -1 -104 -214 -231 -471 -127 -258 -287 -581 -354 -719 -67 -137 -188 -383 -268 -545 -79 -162 -216 -441 -304 -620 -88 -179 -181 -369 -208 -423 -29 -58 -45 -101 -39 -107 15 -14 1166 -25 1193 -11 21 12 56 81 268 526 47 99 90 186 96 193 7 9 250 12 1152 12 902 0 1145 -3 1152 -12 5 -7 43 -87 83 -178 41 -91 106 -233 146 -315 39 -83 79 -166 87 -187 l15 -36 99 -4 c172 -7 1101 -3 1109 4 4 5 -8 38 -26 75 -18 38 -95 196 -170 353 -76 157 -179 370 -229 474 -50 103 -91 189 -91 191 0 1 -52 110 -116 241 -64 132 -131 271 -149 309 -18 39 -66 140 -108 225 -41 85 -156 324 -255 530 -99 206 -217 452 -262 545 -45 94 -99 206 -120 250 -72 152 -367 766 -397 825 l-18 35 -736 3 -736 2 -16 -18z m823 -1062 c40 -85 101 -216 135 -290 35 -74 122 -259 195 -410 239 -495 320 -674 310 -684 -6 -6 -295 -9 -742 -8 -576 2 -732 5 -730 15 4 14 91 200 205 437 44 91 140 291 214 445 74 154 173 361 220 460 89 188 102 211 113 198 4 -4 40 -78 80 -163z"/>
<path d="M12526 10663 l-189 -3 7 -353 c3 -193 9 -516 11 -717 9 -703 30 -2261 40 -2865 16 -1119 17 -1375 4 -1380 -8 -2 -138 -8 -289 -12 l-275 -8 0 -2435 0 -2435 215 0 c414 0 1489 18 1500 25 14 9 14 377 0 1094 -6 270 -6 494 -2 498 5 5 80 18 168 28 1565 188 2956 662 4280 1456 202 121 523 331 693 454 63 45 125 87 138 93 12 5 23 14 23 18 0 4 24 24 53 45 28 21 72 54 97 74 25 20 100 80 168 134 67 54 122 105 122 112 0 12 -205 14 -1332 11 l-1333 -2 -147 -72 c-432 -213 -979 -421 -1448 -552 -41 -12 -113 -32 -160 -45 -77 -21 -301 -74 -470 -111 -114 -25 -322 -63 -435 -79 -60 -9 -139 -21 -175 -26 -180 -28 -256 -38 -261 -34 -5 3 -11 295 -25 1324 -4 246 -10 440 -16 447 -6 8 -55 10 -171 7 -89 -2 -229 -4 -311 -5 -137 -1 -150 1 -156 17 -4 11 -10 264 -13 564 -4 300 -11 835 -17 1190 -12 763 -29 2069 -36 2715 -5 497 -13 816 -21 828 -2 4 -14 6 -26 5 -12 -2 -107 -4 -211 -5z"/>
</g>
</g>
  <g id="id1:id1" transform="matrix(1.25,0,0,1.25,0.0,0.0)"><g transform="translate(0.000000,1208.000000) scale(0.040000,-0.040000)" fill="#222e2e" stroke="none">
<path d="M38465 29847 c-12 -7 -66 -46 -120 -87 -287 -217 -662 -500 -920 -695 -159 -120 -436 -329 -615 -464 -179 -135 -514 -387 -745 -561 -231 -174 -511 -385 -621 -468 -111 -84 -206 -152 -211 -152 -6 0 -18 -10 -29 -21 -31 -35 -172 -139 -207 -153 -17 -8 -59 -17 -92 -20 -65 -7 -300 -39 -460 -61 -55 -8 -167 -23 -250 -34 -82 -11 -217 -29 -300 -41 -82 -11 -215 -29 -295 -40 -80 -11 -278 -37 -440 -59 -162 -22 -365 -49 -450 -60 -181 -24 -233 -31 -475 -66 -99 -14 -245 -34 -325 -45 -134 -19 -190 -37 -190 -60 0 -13 -379 -851 -393 -868 -9 -12 -64 -39 -342 -172 -244 -116 -438 -210 -869 -419 -115 -55 -210 -101 -211 -101 -1 0 -96 -45 -211 -101 -115 -56 -258 -125 -319 -154 -60 -29 -208 -101 -329 -159 -120 -58 -219 -106 -221 -106 -1 0 -105 -50 -231 -111 -126 -61 -269 -130 -319 -154 -49 -24 -180 -87 -290 -140 -110 -54 -241 -116 -291 -140 -75 -35 -93 -48 -106 -76 -20 -43 -336 -828 -1050 -2609 -127 -316 -234 -579 -239 -585 -4 -5 -1115 -563 -2468 -1240 -1354 -676 -2461 -1234 -2461 -1240 0 -5 4 -16 8 -23 9 -13 41 -3 337 103 72 26 157 55 190 65 33 10 94 30 135 45 41 15 95 33 120 42 25 8 54 19 65 24 22 9 156 59 245 90 30 11 68 22 84 24 15 2 35 10 42 16 8 7 47 23 87 36 79 27 251 89 282 103 35 15 119 40 149 45 15 2 35 10 42 16 13 11 97 42 294 110 30 10 64 23 75 28 11 5 38 15 60 22 22 6 60 20 85 29 25 10 61 23 80 28 19 6 73 25 120 43 47 17 110 40 140 50 30 11 64 23 75 28 11 5 70 26 130 46 61 20 119 41 130 45 18 8 147 56 255 95 25 9 77 26 115 39 39 13 115 40 170 61 180 68 319 116 349 120 15 2 35 10 42 16 13 11 97 42 294 110 30 10 64 23 75 28 11 5 38 15 60 22 22 6 60 20 85 29 25 10 61 23 80 28 19 6 67 22 105 37 39 15 102 38 140 51 39 14 79 29 90 34 11 5 74 27 140 49 66 23 152 53 190 67 39 14 102 37 140 50 39 13 79 28 90 33 11 6 38 15 60 22 60 17 65 21 89 64 12 22 36 65 53 95 16 30 99 174 183 320 84 146 222 387 308 535 85 149 198 344 250 435 179 310 700 1216 877 1525 75 132 145 248 154 258 9 9 50 24 91 33 41 8 194 40 340 70 146 30 391 81 545 114 154 32 390 82 525 110 135 28 286 59 335 70 50 11 308 65 573 120 266 55 492 105 503 110 27 15 134 122 718 723 288 295 525 537 527 537 2 0 70 -30 151 -66 82 -37 182 -81 223 -99 87 -38 1111 -494 1715 -765 83 -37 245 -109 360 -160 116 -51 216 -97 222 -103 16 -11 20 -26 83 -292 28 -115 75 -311 105 -435 55 -226 104 -432 236 -980 86 -357 96 -395 112 -408 12 -11 3182 -1373 3402 -1463 66 -27 128 -53 137 -59 24 -14 38 -13 38 3 -1 6 -38 40 -83 75 -45 34 -129 101 -187 148 -58 47 -146 117 -196 157 -50 40 -146 117 -213 172 -68 55 -160 129 -205 165 -76 60 -179 143 -422 340 -144 117 -249 201 -482 389 -444 355 -547 439 -565 458 l-17 20 45 169 c252 924 295 1095 284 1117 -7 12 -49 69 -95 127 -91 115 -213 270 -314 399 -36 46 -96 123 -135 172 -38 48 -106 134 -150 190 -80 103 -149 190 -290 369 -127 161 -237 302 -305 389 -36 46 -96 123 -135 172 -38 48 -122 154 -185 235 -63 81 -132 168 -153 193 -20 25 -36 49 -34 54 1 4 155 75 342 158 187 82 360 159 385 170 24 12 54 25 65 29 28 11 443 193 580 255 17 8 129 57 250 110 121 53 351 154 510 225 160 71 346 153 415 183 69 30 150 66 180 80 30 14 109 48 175 77 66 28 138 60 160 70 202 91 384 169 400 172 17 2 30 -17 80 -117 59 -117 87 -175 273 -570 50 -104 131 -275 181 -379 50 -104 91 -190 91 -192 0 -1 41 -87 90 -190 50 -102 90 -188 90 -189 0 -2 47 -100 105 -220 58 -119 105 -218 105 -220 0 -2 77 -165 171 -362 282 -590 290 -607 296 -633 3 -17 -14 -74 -50 -165 -30 -77 -75 -192 -100 -255 -25 -63 -129 -328 -231 -589 l-186 -475 27 -29 c16 -16 75 -70 132 -120 58 -51 166 -146 240 -212 75 -66 174 -154 222 -195 194 -169 389 -340 484 -425 55 -50 132 -117 170 -150 39 -33 111 -96 160 -141 50 -44 129 -114 176 -155 47 -41 116 -101 153 -133 47 -42 70 -56 75 -47 4 6 0 53 -10 104 -32 160 -149 768 -170 882 -12 61 -27 137 -35 170 -20 89 -28 152 -18 158 9 5 376 -110 679 -213 83 -27 166 -54 185 -59 19 -5 188 -58 375 -119 187 -60 475 -154 640 -207 266 -86 619 -200 1064 -343 132 -43 147 -50 169 -82 23 -34 301 -473 424 -670 33 -52 93 -149 135 -215 42 -66 145 -230 231 -365 85 -135 165 -261 177 -280 13 -19 89 -141 170 -270 81 -129 155 -243 164 -252 9 -9 70 -31 136 -48 66 -17 152 -40 190 -50 163 -44 707 -187 1210 -320 993 -261 1439 -379 1515 -400 198 -53 683 -180 744 -195 59 -13 72 -13 83 -2 17 17 12 21 -67 64 -30 17 -120 67 -199 112 -79 45 -146 81 -147 81 -2 0 -25 13 -51 28 -26 16 -77 44 -113 64 -36 20 -159 89 -275 154 -115 64 -277 155 -360 201 -82 46 -157 88 -165 93 -8 5 -109 61 -225 125 -222 122 -221 121 -336 270 -38 50 -100 129 -137 176 -37 48 -88 113 -113 145 -25 33 -126 162 -225 288 -98 126 -206 264 -239 307 -143 185 -304 391 -370 474 -72 91 -230 294 -340 435 -348 449 -412 529 -440 550 -21 16 -202 139 -550 375 -121 81 -281 190 -355 240 -173 118 -428 290 -650 440 -96 65 -236 159 -310 210 -136 92 -365 247 -672 454 -92 62 -171 118 -176 124 -5 7 -27 44 -47 82 -21 39 -98 178 -170 310 -73 132 -149 272 -170 310 -21 39 -48 88 -60 110 -21 37 -171 311 -600 1095 -97 179 -185 339 -195 355 -9 17 -37 66 -60 110 -23 44 -66 123 -95 175 -117 212 -215 389 -250 455 -21 39 -86 158 -145 265 -59 107 -189 346 -290 530 -101 184 -209 380 -239 434 l-56 100 -85 46 c-126 68 -547 290 -895 470 -88 46 -164 86 -170 90 -5 4 -125 67 -265 140 -140 73 -417 218 -615 323 -394 208 -701 367 -707 367 -1 -1 -12 -6 -23 -13z"/>
<path d="M50830 18950 c0 -5 4 -10 9 -10 6 0 13 5 16 10 3 6 -1 10 -9 10 -9 0 -16 -4 -16 -10z"/>
<path d="M50144 18679 c-8 -14 2 -22 32 -27 17 -2 25 1 22 9 -6 17 -46 30 -54 18z"/>
<path d="M21310 18360 c-13 -9 -13 -11 0 -20 22 -15 30 -12 30 10 0 22 -8 25 -30 10z"/>
<path d="M21193 18308 c-13 -6 -23 -15 -23 -20 0 -12 44 -10 58 4 27 27 6 36 -35 16z"/>
<path d="M40892 17075 c-16 -35 -15 -37 11 -34 12 2 28 0 35 -4 13 -9 32 -1 32 14 0 5 -11 14 -25 19 -14 5 -25 14 -25 20 0 19 -17 10 -28 -15z"/>
<path d="M18400 9710 c0 -5 14 -10 30 -10 17 0 30 5 30 10 0 6 -13 10 -30 10 -16 0 -30 -4 -30 -10z"/>
<path d="M18840 9710 c0 -5 25 -10 55 -10 30 0 55 5 55 10 0 6 -25 10 -55 10 -30 0 -55 -4 -55 -10z"/>
<path d="M4700 5450 c0 -5 5 -10 10 -10 6 0 10 5 10 10 0 6 -4 10 -10 10 -5 0 -10 -4 -10 -10z"/>
</g>
</g>
  <g id="id2:id2" transform="matrix(1.25,0,0,1.25,0.0,0.0)"><g transform="translate(0.000000,1208.000000) scale(0.040000,-0.040000)" fill="#0d82ad" stroke="none">
<path d="M14016 23215 c-9 -24 -7 -1458 2 -1473 5 -6 57 -21 118 -32 1492 -272 2831 -868 4014 -1784 155 -121 412 -337 439 -370 39 -47 5 -46 1070 -46 550 0 1006 3 1015 6 9 3 16 11 16 16 0 29 -366 423 -691 743 -428 422 -742 688 -1264 1070 -79 58 -395 271 -490 331 -240 151 -357 220 -605 359 -131 73 -679 342 -830 407 -831 360 -1646 603 -2487 742 -302 50 -299 50 -307 31z"/>
<path d="M12385 13810 c-166 -24 -345 -108 -476 -222 -235 -204 -363 -538 -319 -829 38 -254 148 -448 351 -619 158 -133 353 -201 582 -201 199 0 360 48 521 155 199 133 338 334 402 581 29 114 25 312 -10 448 -15 59 -25 111 -21 116 3 5 1 13 -5 16 -6 4 -40 51 -75 104 -131 199 -274 321 -466 397 -139 54 -335 76 -484 54z"/>
<path d="M120 13735 c-12 -15 -15 -1704 -3 -1716 5 -5 361 -10 888 -11 l880 -3 7 -40 c4 -22 12 -105 18 -185 12 -144 60 -566 80 -690 168 -1059 426 -1926 845 -2845 352 -771 814 -1524 1341 -2185 324 -407 856 -996 922 -1021 13 -5 22 -17 22 -29 0 -12 6 -20 13 -19 6 2 32 -17 57 -42 97 -95 378 -348 469 -422 386 -315 617 -487 959 -716 874 -583 1808 -1023 2824 -1330 184 -55 527 -146 708 -186 312 -70 810 -159 859 -153 l26 3 3 732 2 733 -19 19 c-11 11 -41 21 -77 26 -82 9 -416 78 -610 125 -1134 273 -2240 785 -3194 1479 -499 363 -916 732 -1294 1146 -65 72 -135 148 -155 170 -61 65 -161 181 -161 186 0 2 -29 35 -65 73 -45 48 -62 73 -55 80 16 16 12 28 -8 22 -21 -7 -23 -4 -174 194 -1023 1345 -1649 2927 -1818 4590 -6 63 -16 150 -21 193 -6 42 -7 82 -4 87 4 6 288 10 795 10 620 0 791 3 797 13 4 6 10 152 13 322 l5 310 2652 3 2652 2 10 18 c7 12 6 43 0 88 -6 38 -9 125 -7 194 l3 125 -2645 5 c-1455 3 -2651 9 -2657 13 -10 6 -13 81 -13 318 0 239 -3 311 -12 314 -28 11 -4850 10 -4858 0z"/>
<path d="M14741 12880 c0 -115 4 -212 9 -215 4 -3 8089 -5 17966 -5 15425 0 17960 2 17972 14 12 11 14 51 13 197 -1 100 -6 191 -12 201 l-10 18 -17969 0 -17969 0 0 -210z"/>
<path d="M17830 11564 c-477 -15 -762 -33 -1155 -73 -240 -25 -456 -56 -537 -76 -490 -125 -934 -524 -1149 -1031 -92 -216 -123 -371 -139 -684 -6 -118 -15 -291 -20 -385 -5 -93 -14 -287 -20 -430 -5 -143 -15 -372 -20 -510 -36 -887 19 -1528 167 -1975 84 -255 249 -528 409 -680 131 -124 185 -170 196 -170 6 0 32 -13 57 -29 86 -55 295 -150 431 -195 236 -78 528 -133 830 -155 80 -7 172 -14 205 -16 398 -34 3167 -66 3760 -45 833 30 1279 128 1591 348 93 66 222 197 280 283 144 217 237 528 273 914 7 66 16 164 21 217 14 139 32 1118 28 1533 l-3 350 -2167 3 -2168 2 0 -17 c-2 -344 1 -1197 3 -1200 2 -2 547 -3 1211 -3 1142 0 1207 -1 1214 -17 15 -37 7 -325 -11 -404 -48 -207 -174 -343 -382 -414 -81 -27 -224 -55 -320 -63 -49 -4 -639 -7 -1310 -7 -1112 0 -1233 2 -1365 18 -252 31 -459 82 -522 127 -15 11 -32 20 -38 20 -22 0 -117 69 -169 121 -156 158 -227 396 -262 879 -17 233 -17 1128 -1 1290 18 162 48 338 73 420 82 269 250 426 521 490 166 38 373 43 1643 36 1369 -7 1522 -12 1732 -61 133 -31 258 -111 312 -199 39 -62 82 -223 96 -361 4 -33 12 -66 17 -72 8 -10 208 -13 939 -13 830 0 929 2 943 16 19 19 19 35 6 363 -18 440 -57 646 -168 901 -99 228 -326 473 -582 627 -340 204 -874 302 -1825 333 -419 14 -2135 10 -2625 -6z"/>
<path d="M46100 11569 c-696 -15 -1430 -59 -1825 -110 -279 -36 -538 -99 -726 -178 -185 -77 -299 -152 -430 -282 -276 -276 -395 -626 -429 -1266 -22 -410 19 -826 110 -1103 94 -288 232 -476 476 -646 70 -50 228 -118 367 -160 178 -53 501 -110 762 -134 66 -5 145 -13 175 -16 260 -24 751 -34 1805 -34 1102 0 1652 -10 1785 -31 337 -53 476 -167 517 -425 19 -116 8 -254 -27 -348 -67 -179 -269 -265 -715 -306 -225 -20 -1340 -32 -1950 -20 -589 11 -848 26 -965 55 -109 28 -206 79 -269 144 -80 82 -94 127 -101 323 -3 86 -9 160 -13 165 -5 4 -434 8 -953 8 -829 0 -946 -2 -955 -15 -7 -10 -9 -139 -5 -380 7 -500 33 -659 150 -896 69 -139 136 -224 274 -350 91 -83 127 -108 223 -156 345 -173 745 -237 1729 -280 346 -15 1921 -14 2340 1 608 22 1179 54 1460 82 1058 106 1546 484 1689 1309 36 204 44 319 44 625 0 464 -43 762 -149 1024 -19 47 -34 91 -34 98 0 17 -126 194 -197 275 -254 292 -685 459 -1308 507 -77 6 -212 16 -300 23 -106 7 -546 12 -1295 14 -1013 1 -1900 14 -2140 29 -135 9 -217 25 -311 60 -142 53 -211 112 -266 230 l-28 60 1 145 c1 162 17 233 75 316 116 170 446 234 1198 234 299 0 662 12 946 31 196 14 805 -2 1010 -26 151 -18 296 -54 381 -96 109 -54 190 -163 211 -284 2 -16 8 -39 13 -50 5 -11 11 -51 14 -89 3 -38 9 -73 14 -78 4 -4 431 -7 948 -6 l939 3 -2 223 c-4 665 -129 1013 -470 1318 -306 272 -629 378 -1363 444 -302 27 -1575 37 -2430 19z"/>
<path d="M40905 11510 l-890 -5 -5 -2340 c-4 -1710 -8 -2340 -16 -2340 -14 0 -98 100 -148 178 -21 31 -41 57 -45 57 -10 0 -111 125 -111 138 0 5 -19 30 -43 54 -54 55 -117 133 -117 146 0 6 -19 30 -43 54 -56 56 -117 132 -117 146 0 5 -19 30 -43 54 -57 57 -117 132 -117 147 0 6 -5 11 -10 11 -6 0 -15 11 -20 25 -5 14 -14 25 -19 25 -12 0 -111 124 -111 139 0 6 -5 11 -10 11 -6 0 -15 11 -20 25 -5 14 -14 25 -19 25 -12 0 -111 124 -111 139 0 6 -5 11 -10 11 -6 0 -15 11 -20 25 -5 14 -14 25 -19 25 -9 0 -111 122 -111 133 0 3 -18 25 -39 49 -56 62 -302 370 -309 388 -3 8 -25 33 -47 55 -44 42 -115 136 -115 152 0 5 -13 19 -30 31 -16 12 -56 58 -89 102 -32 43 -77 101 -100 127 -91 106 -271 335 -271 345 0 4 -20 26 -45 49 -25 23 -45 46 -45 52 0 10 -20 35 -115 145 -27 32 -63 78 -80 101 -16 24 -52 69 -80 100 -27 32 -63 77 -80 100 -16 24 -52 69 -80 100 -27 32 -63 77 -80 100 -16 24 -52 69 -80 100 -27 32 -63 76 -80 100 -16 24 -56 73 -88 109 -32 37 -70 85 -85 107 -14 22 -49 65 -77 96 -27 30 -63 75 -80 100 -30 45 -65 88 -143 174 -24 28 -65 77 -90 110 -26 33 -77 97 -115 143 l-69 82 -1528 0 c-931 0 -1531 -4 -1535 -9 -9 -15 -6 -6314 3 -6323 4 -4 415 -7 913 -6 l904 3 5 2353 c3 1293 8 2353 12 2355 4 1 77 -86 163 -193 86 -107 172 -213 191 -235 18 -22 59 -71 89 -110 30 -38 92 -116 138 -173 45 -57 114 -143 152 -191 39 -49 619 -773 1290 -1611 671 -838 1249 -1560 1285 -1605 36 -46 81 -103 101 -126 19 -24 89 -111 154 -194 65 -82 143 -178 173 -212 l54 -63 1524 0 1524 0 10 26 c7 17 9 1125 8 3161 l-3 3135 -19 14 c-11 8 -22 13 -25 12 -3 -2 -406 -5 -896 -8z"/>
<path d="M23895 11488 c-3 -13 -4 -975 -3 -2138 4 -2218 3 -2142 49 -2475 74 -536 259 -935 558 -1204 47 -42 95 -85 106 -96 12 -12 44 -32 71 -47 27 -14 88 -46 135 -72 244 -130 660 -243 1059 -285 58 -7 122 -14 144 -17 449 -58 2724 -73 3661 -24 600 32 973 112 1340 290 554 268 858 703 984 1405 59 331 63 507 59 2715 -2 1070 -7 1951 -11 1958 -6 9 -213 12 -977 12 l-970 0 -5 -22 c-3 -13 -6 -909 -8 -1993 -4 -2135 -2 -2072 -58 -2250 -53 -172 -165 -325 -300 -411 -59 -37 -185 -82 -298 -105 -213 -45 -318 -49 -1380 -49 -590 0 -1063 4 -1145 10 -626 46 -849 158 -957 481 -37 111 -55 201 -76 384 -14 123 -17 369 -20 2035 -2 1042 -5 1901 -8 1908 -3 9 -208 12 -974 12 l-971 0 -5 -22z"/>
<path d="M18270 9710 c0 -5 11 -10 25 -10 14 0 25 5 25 10 0 6 -11 10 -25 10 -14 0 -25 -4 -25 -10z"/>
<path d="M18340 9710 c0 -5 5 -10 10 -10 6 0 10 5 10 10 0 6 -4 10 -10 10 -5 0 -10 -4 -10 -10z"/>
<path d="M18960 9710 c0 -5 7 -10 15 -10 8 0 15 5 15 10 0 6 -7 10 -15 10 -8 0 -15 -4 -15 -10z"/>
</g>
</g>
  <g id="id3:id3" transform="matrix(1.25,0,0,1.25,0.0,0.0)"><g transform="translate(0.000000,1208.000000) scale(0.040000,-0.040000)" fill="#c9caca" stroke="none">
<path d="M39025 29949 c-115 -88 -227 -171 -247 -185 -21 -13 -38 -28 -38 -33 0 -15 45 -43 205 -126 83 -43 177 -92 210 -110 33 -18 240 -127 460 -243 1206 -632 1303 -683 1500 -788 l100 -53 114 -208 c131 -239 496 -905 708 -1293 205 -374 358 -653 486 -885 60 -110 149 -272 197 -360 90 -166 376 -689 520 -950 45 -82 140 -256 212 -386 71 -130 139 -245 151 -256 12 -12 85 -63 162 -115 77 -52 223 -151 325 -220 102 -68 264 -178 360 -243 96 -65 292 -198 435 -295 143 -97 359 -243 480 -325 121 -82 288 -194 370 -250 83 -56 242 -164 355 -240 113 -76 215 -147 228 -159 19 -17 494 -620 737 -936 33 -43 161 -207 285 -366 124 -158 252 -322 285 -365 303 -391 646 -827 662 -841 37 -34 346 -199 417 -223 39 -13 213 -60 386 -105 173 -45 473 -124 665 -175 310 -82 911 -239 1020 -266 22 -6 54 -15 71 -20 17 -5 42 -9 57 -9 14 0 29 -4 32 -10 3 -5 13 -10 22 -10 26 0 -9 33 -65 62 -43 22 -161 88 -652 363 -91 51 -390 217 -665 370 -275 152 -510 289 -523 303 -13 15 -41 50 -62 77 -21 28 -102 131 -180 230 -78 99 -172 221 -211 270 -38 50 -101 131 -140 180 -72 92 -132 170 -241 311 -35 44 -173 221 -308 393 -135 172 -272 348 -305 391 -421 546 -506 649 -568 689 -34 22 -159 106 -277 186 -118 80 -312 211 -430 291 -118 80 -305 206 -415 281 -243 165 -492 333 -765 518 -333 225 -507 343 -647 438 l-132 89 -97 177 c-54 97 -107 194 -119 216 -22 38 -187 340 -633 1155 -112 206 -222 406 -243 443 -22 38 -39 70 -39 72 0 2 -17 34 -39 72 -41 72 -235 427 -331 603 -116 214 -354 647 -391 713 -22 38 -39 70 -39 72 0 2 -17 34 -38 72 -22 37 -58 104 -82 148 -181 334 -282 517 -306 555 -24 38 -46 54 -134 100 -122 65 -331 174 -585 308 -99 52 -207 108 -240 125 -33 17 -112 59 -175 92 -63 34 -178 95 -255 135 -302 157 -372 194 -430 225 -33 18 -118 63 -190 100 -71 37 -161 84 -200 105 -38 21 -117 62 -175 92 -58 31 -162 85 -231 122 -70 36 -135 66 -145 66 -11 -1 -113 -73 -229 -161z"/>
<path d="M39300 27640 c-14 -4 -142 -59 -285 -122 -350 -155 -771 -341 -1230 -543 -209 -92 -495 -218 -635 -280 -652 -289 -1238 -546 -1292 -569 -21 -8 -38 -21 -38 -28 0 -8 26 -46 58 -85 31 -39 93 -118 137 -175 44 -56 107 -136 140 -178 33 -41 123 -155 200 -254 184 -235 240 -306 425 -542 207 -262 266 -338 389 -496 128 -163 206 -261 351 -443 98 -124 110 -143 105 -170 -5 -29 -103 -398 -260 -980 -40 -148 -70 -275 -66 -282 7 -13 99 -91 222 -188 42 -33 176 -141 298 -240 122 -99 252 -201 289 -227 52 -37 295 -145 1097 -489 1236 -529 1237 -529 1234 -501 0 4 -111 95 -245 202 -225 179 -536 429 -709 569 -38 31 -81 65 -96 76 -14 11 -104 83 -199 160 -94 77 -187 151 -204 165 -18 14 -87 68 -152 122 -207 167 -238 193 -265 213 -77 59 -468 377 -479 390 -14 17 -17 4 153 635 146 537 167 619 167 646 0 13 -21 50 -47 83 -27 33 -86 108 -133 168 -46 59 -127 162 -179 228 -166 211 -179 227 -307 390 -69 88 -162 207 -207 264 -45 56 -91 115 -102 130 -11 15 -54 70 -95 122 -41 52 -117 148 -169 214 -52 66 -114 145 -138 175 -24 30 -100 127 -169 215 -69 88 -155 197 -191 243 -71 90 -71 98 -10 123 18 7 66 28 107 47 41 18 102 45 135 59 33 14 88 38 122 54 34 16 64 29 67 29 3 0 29 11 58 24 47 22 279 125 963 426 110 49 416 184 680 300 264 117 499 220 523 228 42 16 47 26 36 69 -7 26 -21 32 -54 23z"/>
<path d="M35235 27425 c-5 -3 -64 -11 -130 -20 -164 -22 -380 -51 -560 -75 -137 -19 -583 -80 -845 -115 -58 -8 -190 -26 -295 -40 -104 -14 -255 -35 -335 -45 -80 -11 -210 -28 -290 -39 -80 -11 -167 -23 -195 -27 -71 -10 -78 -15 -114 -90 -50 -104 -56 -102 260 -59 145 20 296 40 334 45 39 5 171 23 295 40 124 17 257 35 295 40 84 11 571 77 885 120 124 17 276 37 339 46 62 8 123 20 135 26 42 22 216 160 226 179 6 10 9 19 8 18 -2 0 -7 -2 -13 -4z"/>
<path d="M32633 25167 c-142 -144 -332 -338 -423 -432 -91 -93 -226 -232 -299 -308 -147 -150 -156 -171 -64 -148 26 7 122 28 213 46 294 61 350 74 368 87 35 26 817 830 820 844 3 13 -32 32 -208 111 -30 14 -76 33 -103 44 l-47 19 -257 -263z"/>
<path d="M13233 24930 c-13 -5 -24 -11 -25 -12 -2 -2 -5 -1009 -8 -2238 l-5 -2235 -277 -5 c-182 -3 -281 -9 -288 -16 -8 -8 -7 -321 5 -1140 45 -3279 55 -4149 51 -4161 -3 -7 -19 -13 -35 -13 -19 0 -33 -7 -39 -17 -4 -10 -5 -97 -2 -193 l5 -175 210 2 210 2 3 83 c2 46 -1 423 -7 838 -6 415 -16 1097 -21 1515 -6 418 -14 1055 -20 1415 -5 360 -11 837 -12 1060 l-3 405 284 8 c157 4 287 10 290 13 11 11 12 4834 1 4855 -10 17 -22 19 -153 18 -78 0 -152 -4 -164 -9z"/>
<path d="M29320 23676 c-58 -13 -208 -44 -335 -70 -126 -27 -237 -52 -245 -56 -9 -5 -78 -118 -154 -252 -77 -134 -160 -279 -186 -323 -26 -44 -93 -161 -150 -260 -57 -99 -142 -247 -190 -330 -48 -82 -151 -262 -230 -400 -79 -137 -245 -425 -368 -640 -123 -214 -301 -523 -394 -685 -167 -291 -200 -340 -223 -340 -7 0 -34 -10 -61 -22 -27 -12 -98 -39 -159 -61 -60 -21 -180 -64 -265 -94 -85 -31 -184 -66 -220 -79 -36 -12 -110 -39 -165 -59 -55 -20 -152 -55 -215 -77 -63 -23 -151 -54 -195 -70 -130 -47 -286 -98 -300 -98 -16 0 -73 -29 -80 -41 -4 -5 -19 -9 -34 -9 -15 0 -31 -4 -36 -9 -6 -5 -39 -19 -75 -31 -36 -12 -78 -28 -95 -35 -16 -7 -79 -29 -140 -50 -60 -20 -153 -53 -205 -72 -100 -38 -249 -92 -415 -150 -179 -63 -228 -81 -330 -118 -180 -66 -349 -126 -395 -141 -25 -8 -54 -18 -65 -24 -33 -15 -136 -49 -200 -66 -33 -8 -82 -25 -110 -38 -27 -13 -66 -29 -85 -36 -19 -7 -100 -36 -179 -66 -79 -29 -167 -58 -195 -64 -28 -6 -72 -22 -97 -36 -26 -13 -55 -24 -66 -24 -10 0 -23 -4 -29 -9 -5 -5 -79 -34 -164 -65 -85 -32 -159 -61 -164 -67 -6 -5 -21 -9 -35 -9 -25 -1 -61 -20 -61 -34 0 -12 40 -6 72 13 19 10 47 21 63 24 30 5 68 18 225 77 47 18 101 36 120 42 19 6 46 16 60 23 14 7 54 22 90 33 36 11 103 34 150 52 161 59 225 81 260 92 19 5 46 16 60 23 14 7 54 22 90 34 36 11 103 34 150 51 47 18 103 38 125 45 22 7 54 19 70 26 17 6 37 13 45 15 8 2 23 7 35 12 20 10 348 127 440 157 28 10 54 21 60 26 5 5 19 9 30 9 12 0 24 3 27 6 4 3 55 23 115 44 59 21 164 59 233 84 69 24 141 50 160 57 19 7 44 15 55 20 11 4 36 13 55 19 50 17 151 54 250 90 47 17 101 36 120 42 19 5 46 16 60 23 14 7 54 22 90 33 36 11 103 34 150 52 47 17 103 37 125 45 22 7 54 19 70 26 17 6 37 13 45 15 8 2 23 7 35 12 11 6 88 33 170 62 83 28 171 60 197 71 26 10 52 19 58 19 6 0 30 9 52 20 23 11 48 20 55 20 7 0 21 4 31 9 9 5 121 47 247 92 127 45 277 99 335 120 58 21 175 62 260 93 85 30 231 82 325 116 93 33 177 68 186 78 9 9 92 150 185 312 92 162 217 381 278 485 60 105 141 246 181 315 39 69 114 199 167 290 52 91 175 305 273 475 404 704 499 869 644 1120 29 50 53 94 54 99 3 16 -17 15 -123 -8z"/>
<path d="M41800 22771 c0 -34 24 -154 39 -193 5 -15 76 -84 157 -155 82 -70 191 -166 244 -213 360 -320 563 -495 575 -498 22 -5 20 14 -26 245 -22 115 -54 280 -70 368 -17 88 -37 170 -45 182 -11 18 -78 43 -312 118 -163 53 -350 114 -415 136 -65 21 -125 39 -133 39 -9 0 -14 -10 -14 -29z"/>
<path d="M11340 21790 c-234 -36 -445 -71 -565 -95 -822 -162 -1578 -419 -2325 -791 -1203 -599 -2239 -1435 -3094 -2498 -720 -893 -1283 -1964 -1622 -3081 -58 -190 -167 -618 -179 -697 -4 -26 -13 -52 -20 -58 -9 -7 -183 -11 -539 -13 -467 -2 -527 -4 -541 -18 -16 -16 -55 -190 -70 -312 l-7 -57 738 -2 c407 -2 744 -2 751 0 16 5 18 13 53 165 220 957 582 1857 1083 2692 175 292 395 612 633 921 203 264 517 615 800 895 497 490 1000 885 1631 1280 327 206 784 443 1188 617 458 197 928 354 1430 477 249 61 503 113 712 145 l143 23 10 36 c7 24 8 95 3 211 l-8 175 -40 2 c-22 1 -96 -7 -165 -17z"/>
<path d="M14346 21643 c-3 -21 -6 -86 -6 -145 0 -129 8 -141 91 -152 30 -4 143 -25 252 -47 1071 -216 2091 -620 3017 -1195 374 -231 795 -540 1106 -809 77 -67 152 -130 166 -139 23 -15 106 -16 1033 -14 734 2 1009 6 1012 14 2 6 -22 42 -54 79 -56 66 -223 257 -248 283 -9 10 -208 13 -1031 12 -946 0 -1021 1 -1044 17 -14 9 -70 55 -125 103 -1086 932 -2368 1597 -3740 1939 -205 51 -383 91 -405 91 -12 0 -19 -11 -24 -37z"/>
<path d="M11990 20421 l-105 -6 -3 -187 -2 -186 31 -7 c17 -4 93 -4 169 0 l138 7 5 26 c9 47 -5 347 -17 354 -11 8 -41 8 -216 -1z"/>
<path d="M20500 19730 c0 -5 5 -10 10 -10 6 0 10 5 10 10 0 6 -4 10 -10 10 -5 0 -10 -4 -10 -10z"/>
<path d="M21960 18550 c0 -5 7 -10 15 -10 8 0 15 5 15 10 0 6 -7 10 -15 10 -8 0 -15 -4 -15 -10z"/>
<path d="M15880 17572 c-18 -6 -25 -15 -24 -33 1 -13 62 -204 137 -424 74 -220 239 -706 365 -1080 127 -374 264 -779 305 -901 91 -267 108 -301 123 -236 3 15 19 70 36 122 16 52 32 118 35 145 6 57 33 -28 -307 975 -127 377 -287 848 -354 1048 -67 199 -127 367 -133 373 -13 13 -149 21 -183 11z"/>
<path d="M19124 17571 c-10 -10 -1 -52 42 -199 25 -86 92 -319 150 -517 487 -1688 573 -1980 584 -1980 13 0 103 237 121 319 8 33 8 55 1 70 -6 11 -44 140 -86 286 -89 313 -241 840 -296 1030 -88 300 -230 791 -254 880 -15 54 -33 101 -43 108 -13 9 -47 12 -116 10 -54 -1 -100 -5 -103 -7z"/>
<path d="M21959 17574 c-9 -3 -24 -24 -32 -47 -9 -23 -88 -240 -176 -482 -88 -242 -360 -993 -606 -1670 -246 -676 -465 -1282 -488 -1345 -22 -63 -47 -121 -56 -127 -11 -10 -151 -13 -622 -13 -334 0 -610 -4 -613 -8 -3 -5 13 -73 35 -153 21 -79 44 -161 50 -181 l10 -38 737 0 c405 0 742 4 748 8 13 9 28 46 114 287 37 105 75 208 84 230 8 22 135 371 281 775 146 404 274 758 285 785 11 28 175 480 365 1005 310 852 345 955 330 966 -16 12 -408 18 -446 8z"/>
<path d="M24957 17573 c-18 -17 -22 -8 363 -808 148 -307 323 -671 380 -790 31 -66 142 -295 245 -510 103 -214 313 -651 467 -970 153 -318 276 -585 274 -592 -4 -10 -105 -13 -504 -13 -274 0 -501 -3 -504 -6 -6 -5 146 -339 164 -361 15 -19 1194 -19 1200 -1 5 14 -26 81 -181 401 -55 115 -101 210 -101 211 0 2 -48 102 -106 222 -59 120 -132 273 -164 339 -32 66 -115 239 -185 385 -70 146 -153 319 -185 385 -166 346 -238 495 -459 955 -92 190 -252 524 -356 742 -170 355 -193 398 -219 407 -32 12 -119 15 -129 4z"/>
<path d="M35318 17573 c-10 -2 -18 -10 -18 -18 0 -14 3 -22 455 -960 103 -214 211 -439 240 -500 29 -60 94 -195 145 -300 51 -104 107 -221 125 -260 18 -38 66 -140 107 -225 41 -85 157 -326 258 -535 376 -781 418 -870 413 -877 -2 -5 -229 -8 -503 -8 -279 0 -501 -4 -504 -9 -6 -8 136 -333 157 -358 14 -19 1195 -19 1203 0 2 7 -34 94 -82 192 -109 226 -187 390 -324 675 -59 124 -153 319 -209 434 -56 115 -101 210 -101 212 0 2 -32 67 -70 145 -39 78 -104 212 -144 298 -41 86 -112 235 -159 331 -75 156 -336 697 -515 1070 -158 330 -183 383 -246 512 -36 76 -66 142 -66 147 0 19 -29 31 -86 35 -32 2 -67 2 -76 -1z"/>
<path d="M40578 17568 c-16 -12 -18 -42 -20 -323 l-3 -310 -780 -5 -780 -5 -5 -1515 -5 -1515 -380 -5 c-209 -3 -381 -7 -383 -8 -1 -1 -1 -84 0 -184 l3 -183 535 -3 c294 -1 545 0 558 3 l22 5 0 1505 c0 837 4 1506 9 1509 4 3 329 6 720 6 393 1 723 5 736 10 20 7 24 18 30 67 19 176 29 247 47 333 17 77 22 142 25 349 4 181 2 256 -7 265 -17 17 -300 21 -322 4z"/>
<path d="M46944 17563 c-12 -13 -14 -90 -12 -551 l3 -537 170 0 170 0 3 546 2 547 -25 6 c-14 4 -86 6 -160 5 -105 -1 -139 -5 -151 -16z"/>
<path d="M50504 17566 l-19 -14 -2 -1823 c-2 -1003 -6 -1826 -11 -1831 -4 -4 -174 -9 -377 -10 l-370 -3 0 -185 0 -185 535 -3 c294 -1 545 0 558 3 l22 5 0 2020 0 2019 -19 11 c-31 16 -293 13 -317 -4z"/>
<path d="M31205 17378 c50 -157 79 -387 73 -573 l-3 -100 -488 -2 c-269 0 -491 -4 -494 -7 -6 -6 -4 -7 64 -25 55 -15 121 -67 145 -112 10 -20 26 -72 35 -115 8 -44 20 -84 27 -90 25 -26 175 -34 610 -34 343 0 446 3 453 13 13 17 -2 350 -22 473 -33 204 -105 360 -223 485 -64 68 -173 159 -191 159 -5 0 1 -33 14 -72z"/>
<path d="M45213 17383 c3 -16 17 -73 31 -128 48 -185 81 -473 74 -645 l-3 -85 -390 -5 c-214 -3 -395 -9 -402 -13 -9 -5 -5 -17 13 -44 33 -49 54 -121 64 -225 5 -48 11 -92 15 -98 4 -7 178 -10 524 -10 426 0 521 2 530 14 20 23 -10 436 -45 621 -55 290 -158 478 -330 606 -65 47 -89 51 -81 12z"/>
<path d="M29249 17105 c-3 -2 -192 -9 -420 -14 -341 -9 -430 -14 -504 -30 -215 -45 -279 -111 -291 -302 -9 -135 10 -196 81 -266 42 -41 67 -56 120 -72 86 -27 156 -28 152 -3 -5 45 26 125 67 167 83 85 224 110 671 119 160 3 360 11 446 16 101 6 242 7 400 1 185 -7 247 -7 256 2 9 9 8 30 -6 94 -52 240 -187 293 -752 293 -119 0 -218 -2 -220 -5z"/>
<path d="M23981 16998 c-36 -79 -270 -567 -536 -1118 -176 -364 -196 -410 -189 -421 3 -5 114 -9 248 -9 218 0 246 2 264 18 10 9 48 78 82 152 35 74 144 301 242 505 98 203 181 379 184 390 3 13 -37 108 -109 260 -131 277 -135 285 -147 285 -6 0 -23 -28 -39 -62z"/>
<path d="M34362 17048 c-5 -7 -114 -231 -242 -498 -128 -267 -273 -568 -322 -670 -49 -102 -110 -230 -135 -285 -25 -55 -50 -105 -55 -112 -23 -29 6 -33 251 -33 223 0 249 2 264 18 8 9 100 193 203 407 289 602 304 635 304 651 0 16 -6 29 -133 299 -41 88 -82 177 -91 198 -16 39 -27 45 -44 25z"/>
<path d="M42510 16979 c-235 -13 -376 -62 -465 -161 -75 -83 -109 -181 -135 -383 -22 -181 -17 -832 9 -1055 26 -227 104 -360 254 -435 107 -54 113 -50 98 58 -20 130 -32 673 -21 888 21 400 79 543 256 632 141 71 239 78 1069 77 l700 -1 0 53 c-1 123 -61 225 -159 271 -122 58 -144 60 -831 62 -346 2 -695 -1 -775 -6z"/>
<path d="M36632 16922 c-9 -7 -12 -51 -10 -187 l3 -179 40 -8 c51 -11 1221 -6 1232 5 4 5 8 90 8 190 l0 182 -630 2 c-346 2 -636 -1 -643 -5z"/>
<path d="M18320 16731 c0 -12 -84 -313 -186 -669 -102 -356 -282 -984 -401 -1397 -118 -412 -219 -756 -225 -762 -8 -10 -146 -13 -629 -13 -383 0 -620 -4 -624 -10 -3 -5 -1 -17 4 -27 5 -10 33 -85 62 -168 29 -82 57 -156 62 -162 7 -10 167 -13 737 -13 570 0 730 3 737 13 6 6 23 57 38 112 15 55 35 127 45 160 23 73 50 169 60 210 4 17 23 84 43 150 20 66 106 365 192 665 86 300 194 677 241 838 46 161 84 305 84 320 0 15 -6 50 -14 77 -132 481 -178 641 -188 663 -17 33 -38 40 -38 13z"/>
<path d="M31330 15855 c0 -3 4 -13 10 -23 15 -26 57 -188 69 -267 54 -350 32 -803 -52 -1051 -107 -312 -323 -488 -692 -564 -273 -56 -903 -90 -1689 -90 -843 0 -1214 29 -1471 116 -55 19 -103 34 -107 34 -35 0 63 -153 156 -245 179 -177 368 -233 936 -277 219 -17 1428 -17 1705 0 678 42 832 63 1033 143 210 83 372 241 453 440 105 258 135 682 79 1119 -21 170 -95 358 -186 480 -65 86 -244 222 -244 185z"/>
<path d="M27390 15609 c0 -6 19 -43 42 -82 110 -190 305 -319 524 -347 49 -7 98 -18 109 -24 22 -14 56 -19 275 -42 189 -20 2000 -38 2013 -20 4 6 6 38 4 72 -11 149 -103 248 -267 284 -82 18 -541 29 -1200 30 -322 0 -657 5 -745 10 -270 17 -562 66 -678 115 -42 18 -77 20 -77 4z"/>
<path d="M46938 15438 c-2 -2 -5 -349 -8 -773 l-5 -770 -373 -3 c-287 -2 -374 -5 -378 -15 -2 -7 -5 -90 -7 -185 l-2 -173 20 -5 c11 -2 261 -3 555 -2 l535 3 5 765 5 765 1052 5 c578 3 1055 9 1059 13 10 10 12 336 2 360 -7 16 -75 17 -1233 17 -674 0 -1226 -1 -1227 -2z"/>
<path d="M45398 15070 c-25 -6 -26 -8 -48 -245 -32 -342 -134 -586 -301 -725 -133 -111 -254 -148 -589 -184 -511 -55 -627 -61 -1220 -60 -305 0 -652 6 -770 12 -118 7 -300 17 -405 23 -328 17 -488 47 -639 120 -33 16 -61 27 -64 25 -2 -3 5 -17 16 -33 11 -15 37 -55 58 -88 152 -235 399 -367 739 -395 404 -32 1514 -70 1675 -56 36 3 144 8 240 11 153 5 410 23 580 41 477 49 594 84 745 225 134 126 227 322 269 569 32 190 51 740 26 755 -13 8 -280 12 -312 5z"/>
<path d="M28195 14810 c-9 -14 33 -37 101 -54 78 -20 100 -20 108 0 9 24 8 31 -10 48 -12 12 -37 16 -104 16 -49 0 -91 -4 -95 -10z"/>
<path d="M22868 14616 c-8 -8 -34 -56 -59 -107 -24 -51 -101 -210 -170 -354 l-125 -260 -350 -5 -349 -5 -87 -175 c-48 -96 -85 -181 -83 -187 3 -10 134 -13 609 -13 l604 0 38 78 c20 42 60 127 89 187 29 61 91 190 138 288 l86 177 1055 0 c580 0 1061 3 1070 6 18 7 21 35 7 49 -5 6 -41 80 -80 165 -39 85 -77 158 -84 162 -6 4 -526 8 -1154 8 -961 0 -1144 -2 -1155 -14z"/>
<path d="M33218 14613 c-9 -10 -86 -166 -173 -348 -86 -181 -163 -340 -171 -352 l-14 -23 -347 -2 c-295 -3 -347 -5 -354 -18 -42 -74 -159 -326 -159 -341 l0 -19 598 0 c328 0 602 4 608 8 11 7 324 646 324 662 0 4 9 19 21 34 l20 26 1060 0 c935 0 1060 2 1065 15 7 18 -141 344 -164 363 -12 9 -259 12 -1157 12 -1075 0 -1143 -1 -1157 -17z"/>
<path d="M4980 13354 c-11 -28 -14 -233 -4 -258 5 -14 29 -16 163 -16 109 0 161 4 169 12 8 8 12 55 12 144 0 111 -3 133 -16 138 -9 3 -83 6 -165 6 l-149 0 -10 -26z"/>
<path d="M13382 13238 c45 -114 61 -205 62 -358 0 -121 -4 -159 -23 -230 -102 -378 -414 -648 -798 -691 -184 -20 -347 10 -530 99 -35 17 -65 27 -67 23 -3 -4 14 -39 37 -77 51 -86 190 -226 282 -285 326 -209 727 -202 1053 20 132 90 273 270 339 433 84 207 82 466 -5 690 -54 140 -185 312 -303 398 -63 45 -73 40 -47 -22z"/>
<path d="M10320 12723 c-8 -4 -21 -14 -30 -25 l-15 -18 -2650 -3 -2650 -2 -5 -320 -5 -320 -791 -3 c-649 -2 -794 -5 -803 -16 -8 -9 -8 -36 -2 -92 6 -43 15 -128 21 -189 64 -602 173 -1151 343 -1715 324 -1074 837 -2068 1522 -2951 179 -231 334 -416 434 -519 119 -122 141 -119 32 6 -20 22 -46 54 -58 70 -12 16 -41 54 -65 84 -144 183 -168 217 -341 475 -300 446 -544 879 -727 1285 -109 243 -214 495 -260 625 -10 28 -39 109 -64 180 -91 255 -209 661 -276 950 -56 241 -131 659 -160 890 -6 50 -15 124 -20 165 -20 164 -33 328 -27 344 6 14 77 16 799 18 l793 3 5 320 5 320 2655 5 c1460 3 2656 6 2658 8 1 1 2 96 2 211 0 181 -2 210 -16 215 -20 8 -284 6 -304 -1z"/>
<path d="M50690 12705 l-23 -25 -17777 0 c-14689 0 -17779 -2 -17794 -13 -16 -12 -18 -31 -19 -184 0 -93 3 -175 7 -182 11 -17 35917 -16 35934 1 9 9 12 69 12 210 l0 198 -26 10 c-14 6 -85 10 -158 10 l-133 0 -23 -25z"/>
<path d="M457 12023 c-16 -4 -17 -20 -15 -191 l3 -187 739 -3 c585 -2 741 0 748 10 4 7 6 24 3 38 -2 14 -9 90 -15 169 -6 80 -15 150 -21 158 -9 11 -142 13 -718 12 -388 -1 -714 -3 -724 -6z"/>
<path d="M41836 11128 c-3 -13 -6 -1351 -6 -2975 0 -1822 -4 -2954 -9 -2958 -6 -3 -682 -5 -1505 -5 -1021 0 -1497 -3 -1501 -10 -4 -6 15 -36 42 -68 27 -31 93 -112 147 -180 55 -68 107 -124 119 -127 12 -3 704 -4 1537 -3 l1515 3 3 3168 2 3167 -154 0 c-85 0 -161 3 -169 6 -9 3 -17 -3 -21 -18z"/>
<path d="M25847 11133 c-4 -3 -7 -767 -7 -1697 0 -1735 3 -1867 40 -2071 37 -202 101 -346 198 -444 86 -88 218 -157 197 -103 -18 48 -47 190 -60 302 -27 233 -35 770 -35 2398 l0 1622 -163 0 c-90 0 -167 -3 -170 -7z"/>
<path d="M32047 11133 c-4 -3 -7 -844 -7 -1867 0 -2063 -1 -2112 -60 -2446 -108 -613 -358 -1016 -800 -1291 -181 -112 -431 -214 -670 -273 -446 -109 -958 -136 -2564 -136 -1177 0 -1562 12 -2011 61 -339 37 -652 104 -885 189 -133 48 -317 142 -407 206 -39 28 -63 40 -63 31 0 -17 88 -137 146 -198 187 -202 405 -338 699 -439 163 -56 366 -106 520 -130 33 -5 87 -14 120 -19 117 -20 457 -52 710 -67 61 -4 657 -9 1325 -11 1885 -7 2293 13 2778 138 601 154 1026 469 1251 926 86 175 153 375 187 563 72 398 67 228 71 2585 2 1166 1 2135 -2 2153 l-6 32 -163 0 c-89 0 -166 -3 -169 -7z"/>
<path d="M36510 11135 c0 -3 33 -47 73 -98 71 -91 107 -137 257 -322 85 -105 191 -238 265 -331 84 -106 493 -615 546 -679 56 -68 640 -797 709 -885 25 -32 160 -201 301 -376 446 -554 719 -895 867 -1080 79 -98 169 -210 201 -249 32 -38 77 -97 102 -130 48 -65 169 -208 180 -213 20 -8 14 31 -9 66 -21 32 -477 602 -909 1137 -26 33 -57 72 -68 86 -11 15 -227 284 -480 598 -253 314 -471 587 -485 606 -24 32 -68 87 -240 298 -41 51 -88 110 -105 132 -16 22 -54 69 -85 106 -30 37 -75 93 -100 125 -25 32 -61 77 -80 100 -19 23 -57 70 -85 105 -27 35 -65 79 -83 99 -17 19 -35 43 -38 53 -3 9 -9 17 -14 17 -5 0 -17 15 -29 33 -11 17 -30 43 -43 57 -21 22 -35 39 -101 123 -18 23 -83 105 -148 185 -6 7 -42 52 -80 100 -38 48 -75 94 -82 102 -7 8 -49 60 -92 115 -44 55 -87 105 -95 112 -15 12 -50 18 -50 8z"/>
<path d="M50160 10775 c0 -3 20 -54 44 -113 93 -227 125 -408 147 -829 9 -178 9 -226 -1 -238 -11 -13 -110 -15 -820 -15 -443 0 -809 -3 -813 -6 -3 -3 6 -28 19 -55 27 -54 50 -147 60 -251 5 -56 10 -67 28 -72 38 -10 1833 -7 1860 4 l25 9 -5 158 c-19 627 -103 940 -324 1216 -85 105 -220 223 -220 192z"/>
<path d="M22782 10733 c2 -5 18 -37 37 -73 80 -155 135 -342 165 -566 17 -125 40 -564 34 -669 l-3 -70 -802 -5 c-441 -3 -804 -8 -808 -11 -3 -4 3 -40 14 -80 11 -41 25 -114 31 -164 6 -49 16 -100 21 -112 l9 -23 939 0 939 0 7 42 c10 60 -4 477 -21 643 -50 470 -188 768 -477 1033 -60 55 -96 77 -85 55z"/>
<path d="M13029 10296 c-2 -3 -59 -6 -126 -7 -67 -1 -127 -5 -134 -10 -10 -6 -10 -160 0 -756 6 -411 18 -1250 26 -1863 28 -2134 31 -2310 44 -2323 10 -10 316 -5 326 5 7 7 3 355 -25 2398 -5 360 -14 1058 -20 1550 -7 492 -15 920 -18 950 l-7 55 -30 3 c-17 2 -33 1 -36 -2z"/>
<path d="M46455 10194 c-198 -7 -544 -18 -770 -24 -436 -11 -597 -26 -740 -71 -243 -75 -333 -189 -350 -443 -17 -242 74 -403 274 -484 29 -12 57 -19 62 -16 5 3 9 37 9 75 0 75 23 202 46 259 41 99 128 170 261 214 182 60 338 74 963 86 283 5 616 15 740 22 265 15 859 14 1080 -2 159 -11 285 -29 378 -54 l52 -14 0 21 c-1 36 -47 156 -76 195 -95 130 -269 197 -599 232 -165 17 -932 20 -1330 4z"/>
<path d="M17610 10048 c-520 -25 -751 -213 -841 -682 -40 -211 -49 -373 -49 -895 0 -533 14 -816 49 -1021 57 -329 159 -518 343 -634 86 -54 91 -51 58 48 -59 175 -84 420 -101 959 -29 925 40 1388 239 1607 105 117 226 177 437 216 117 22 1028 32 2120 23 806 -7 1043 -19 1188 -62 52 -15 59 0 36 73 -64 206 -225 304 -569 346 -206 25 -2493 43 -2910 22z"/>
<path d="M34960 7564 c0 -1296 -2 -2360 -5 -2365 -4 -5 -296 -9 -718 -9 -392 0 -722 -3 -735 -6 l-22 -6 2 -187 3 -186 909 -3 c721 -2 911 0 918 10 9 15 9 4650 -1 4690 -8 38 -312 417 -333 418 -16 0 -17 -137 -18 -2356z"/>
<path d="M23026 8368 c-3 -13 -6 -185 -6 -383 -1 -1058 -47 -1579 -171 -1932 -73 -207 -157 -342 -299 -476 -301 -288 -720 -403 -1635 -448 -266 -13 -3055 4 -3405 21 -845 40 -1139 81 -1500 208 -126 44 -349 153 -442 216 -49 33 -68 41 -68 30 0 -16 9 -30 95 -137 194 -244 511 -434 911 -547 192 -54 458 -99 669 -114 44 -4 112 -9 150 -11 370 -29 639 -36 1785 -46 1155 -10 2167 -7 2375 6 50 3 176 15 280 26 1008 109 1414 466 1539 1353 43 299 55 569 66 1434 6 442 8 807 5 812 -4 6 -78 10 -174 10 l-169 0 -6 -22z"/>
<path d="M50413 8324 c3 -11 28 -73 55 -139 100 -245 147 -511 158 -899 14 -468 -42 -897 -152 -1159 -154 -365 -429 -615 -829 -751 -340 -116 -615 -151 -1610 -206 -671 -36 -2378 -49 -2975 -22 -733 33 -1082 74 -1385 162 -155 45 -339 128 -398 178 -46 40 -25 -24 35 -106 143 -193 376 -355 630 -437 301 -98 564 -133 1313 -177 301 -18 2440 -18 2775 0 129 7 325 17 435 23 846 43 1147 81 1477 189 175 58 287 110 411 193 435 291 627 780 627 1597 0 607 -97 1018 -308 1313 -56 78 -199 224 -242 247 -20 11 -22 10 -17 -6z"/>
<path d="M43250 7997 c0 -39 146 -216 243 -295 298 -243 716 -349 1612 -408 191 -13 548 -18 1740 -24 1575 -9 1646 -11 1790 -55 68 -20 68 -20 61 27 -12 73 -61 160 -124 220 -94 90 -201 134 -399 163 -150 22 -831 34 -2023 35 -1366 0 -1815 26 -2305 132 -225 48 -449 129 -544 197 -34 24 -51 27 -51 8z"/>
<path d="M19048 7549 c-16 -9 -18 -29 -18 -188 0 -154 2 -180 16 -185 9 -3 483 -6 1055 -6 l1039 0 7 28 c10 36 10 299 0 335 l-7 27 -1038 0 c-686 -1 -1043 -4 -1054 -11z"/>
<path d="M44674 6826 c-18 -47 105 -177 217 -231 96 -46 99 -43 99 100 0 63 -3 120 -6 129 -5 14 -29 16 -155 16 -119 0 -151 -3 -155 -14z"/>
<path d="M5817 6414 c6 -15 23 -19 23 -5 0 5 -7 11 -14 14 -10 4 -13 1 -9 -9z"/>
<path d="M4676 5476 c3 -9 11 -16 16 -16 13 0 5 23 -10 28 -7 2 -10 -2 -6 -12z"/>
<path d="M4920 5214 c0 -39 525 -570 845 -855 1303 -1158 2868 -1984 4515 -2382 349 -84 634 -143 860 -177 36 -5 98 -15 139 -21 61 -10 75 -9 82 2 12 19 11 1460 0 1478 -9 13 -239 61 -311 65 l-25 1 -5 -585 -5 -585 -30 3 c-16 2 -135 21 -264 43 -2073 351 -3987 1307 -5512 2754 -280 265 -289 273 -289 259z"/>
<path d="M13631 4980 l-135 -5 -6 -25 c-3 -14 -3 -189 1 -390 4 -201 8 -503 8 -672 1 -250 4 -309 15 -321 12 -12 31 -11 138 4 157 24 174 28 187 43 15 17 -3 1344 -18 1359 -13 13 -23 13 -190 7z"/>
<path d="M18799 4107 c-19 -13 -101 -71 -184 -129 -1432 -1006 -3120 -1653 -4840 -1853 -214 -25 -229 -27 -244 -38 -10 -9 -12 -30 -7 -92 3 -44 8 -332 11 -640 3 -308 8 -626 11 -707 5 -119 3 -149 -8 -152 -7 -3 -310 -9 -673 -15 -363 -6 -670 -13 -683 -17 l-22 -6 2 -187 3 -186 355 3 c596 4 1344 19 1363 27 16 7 17 29 11 354 -3 190 -9 544 -13 785 l-6 439 20 12 c11 6 106 22 210 34 176 21 426 57 555 81 30 6 80 14 110 19 30 5 123 23 205 41 83 17 179 38 215 45 326 67 886 231 1275 373 414 152 793 315 1156 498 650 328 1287 736 1849 1184 41 33 92 72 113 86 39 28 47 48 21 58 -9 3 -186 6 -393 6 l-378 0 -34 -23z"/>
</g>
</g>
</svg>
