<?xml version="1.0" standalone="no"?>
<!DOCTYPE svg PUBLIC "-//W3C//DTD SVG 1.1//EN"
 "http://www.w3.org/Graphics/SVG/1.1/DTD/svg11.dtd">
<!-- Created with svg_stack (http://github.com/astraw/svg_stack) -->
<svg xmlns:sodipodi="http://sodipodi.sourceforge.net/DTD/sodipodi-0.dtd" xmlns="http://www.w3.org/2000/svg" version="1.1" width="804.0" height="804.0">
  <defs/>
  <g id="id0:id0" transform="matrix(1.25,0,0,1.25,0.0,0.0)"><g transform="translate(0.000000,643.200000) scale(0.040000,-0.040000)" fill="#abd8eb" stroke="none">
<path d="M3739 4793 c-8 -9 -14 -35 -14 -59 0 -34 6 -49 30 -74 l29 -31 -21 -5 c-12 -3 -25 -13 -30 -22 -4 -10 -10 -282 -13 -607 -5 -551 -7 -593 -25 -637 l-19 -47 18 -20 c11 -13 37 -22 70 -26 145 -18 297 83 337 224 17 61 19 107 19 573 0 285 -4 517 -9 531 -5 13 -20 27 -33 30 l-23 7 27 25 c32 30 43 64 33 102 -13 52 -16 53 -195 53 -144 0 -170 -2 -181 -17z"/>
<path d="M8787 4792 c-15 -17 -17 -66 -17 -498 0 -527 1 -535 61 -619 29 -41 96 -95 118 -95 5 0 22 -7 37 -15 25 -13 102 -15 501 -15 l472 0 55 20 c54 21 129 84 147 125 5 11 13 27 18 35 26 45 31 100 31 356 -1 290 -6 326 -53 407 -31 53 -103 105 -173 125 -29 8 -154 12 -406 12 l-365 0 -18 -20 c-10 -11 -22 -17 -26 -14 -5 3 -9 45 -9 93 0 123 4 121 -197 121 -142 0 -162 -2 -176 -18z m666 -442 c136 0 255 -4 265 -8 69 -34 78 -42 94 -89 13 -36 18 -79 18 -168 0 -129 -12 -181 -49 -218 l-22 -22 -262 -3 -263 -3 -27 21 c-14 11 -31 38 -37 58 -11 40 -14 445 -3 455 3 4 14 0 23 -8 14 -12 58 -15 263 -15z"/>
<path d="M13354 4789 c-18 -20 -19 -45 -22 -438 -4 -494 3 -578 54 -657 36 -54 97 -104 160 -128 52 -21 435 -19 456 2 18 18 24 192 8 222 -17 32 -70 50 -147 50 -127 0 -134 16 -131 295 l3 210 127 5 c69 3 128 7 131 10 19 22 27 61 27 133 0 126 -5 131 -162 137 l-123 5 -6 78 c-3 53 -10 81 -20 88 -7 5 -86 9 -175 9 -151 0 -162 -1 -180 -21z"/>
<path d="M726 4614 c-13 -12 -16 -39 -16 -124 0 -60 3 -115 6 -124 5 -14 54 -16 440 -16 l435 0 39 -20 c21 -11 48 -33 59 -49 33 -46 24 -126 -9 -86 -11 13 -71 15 -415 15 l-402 0 -46 -26 c-52 -29 -98 -77 -127 -134 -17 -33 -20 -59 -20 -165 0 -107 3 -132 20 -166 31 -61 88 -118 144 -145 l50 -24 483 0 482 0 56 24 c75 34 147 107 168 173 14 44 17 97 17 348 0 165 -4 303 -9 313 -6 9 -12 29 -15 44 -9 40 -93 120 -158 151 l-57 27 -555 0 c-491 0 -556 -2 -570 -16z m984 -636 c0 -17 -9 -46 -21 -64 -40 -65 -34 -64 -360 -64 -330 0 -323 -2 -317 67 5 58 24 62 365 62 l292 1 11 20 c15 27 30 16 30 -22z"/>
<path d="M2217 4618 c-9 -7 -21 -26 -27 -41 -14 -40 -14 -943 1 -986 l11 -31 174 0 c161 0 174 1 184 19 6 13 10 149 10 373 0 304 2 357 16 376 l15 22 308 0 c286 0 309 -1 324 -18 15 -17 17 -57 17 -373 0 -195 3 -364 6 -376 l6 -23 169 0 168 0 15 22 c14 19 16 74 16 399 0 346 -2 382 -20 441 -14 48 -30 73 -62 104 -66 63 -98 81 -163 93 -89 17 -1146 15 -1168 -1z"/>
<path d="M4230 4610 l-20 -20 0 -382 c0 -217 4 -395 10 -412 5 -17 12 -43 15 -57 8 -43 91 -126 157 -159 l60 -30 455 0 455 0 70 37 c70 37 114 79 145 143 16 31 18 77 21 451 3 374 2 418 -13 433 -14 13 -42 16 -176 16 -146 0 -161 -2 -179 -20 l-20 -20 0 -346 0 -346 -29 -29 -29 -29 -247 0 -246 0 -24 25 -25 24 0 351 0 350 -20 20 c-18 18 -33 20 -180 20 -147 0 -162 -2 -180 -20z"/>
<path d="M5715 4605 l-25 -24 0 -494 0 -494 23 -21 c22 -21 33 -22 185 -22 l161 0 15 22 c14 19 16 74 16 390 l0 367 19 11 c12 6 129 10 311 10 182 0 299 -4 311 -10 l19 -11 0 -367 c0 -316 2 -371 16 -390 l15 -22 164 0 164 0 20 26 21 27 0 363 c0 397 -4 437 -58 524 -15 25 -49 60 -76 77 -93 63 -92 63 -713 63 l-564 0 -24 -25z"/>
<path d="M7314 4622 c-43 -28 -60 -171 -28 -238 l16 -33 443 -3 444 -3 28 -21 c39 -29 73 -82 73 -115 0 -35 -16 -46 -30 -19 l-11 20 -404 0 -404 0 -38 -22 c-82 -46 -140 -117 -162 -199 -20 -73 -4 -217 32 -284 22 -42 94 -109 144 -134 l42 -21 485 0 485 0 53 23 c71 32 152 120 173 189 12 41 15 109 15 327 0 338 -9 374 -105 459 -93 82 -51 77 -680 79 -308 2 -565 0 -571 -5z m976 -632 c0 -30 -21 -72 -54 -107 l-30 -33 -296 0 c-217 0 -299 3 -308 12 -18 18 -15 83 5 99 12 11 84 15 330 19 287 5 315 7 324 23 12 21 29 13 29 -13z"/>
<path d="M10525 4617 c-61 -24 -94 -48 -138 -98 -73 -84 -77 -104 -77 -439 l0 -292 31 -64 c22 -47 44 -76 81 -104 27 -22 57 -40 66 -40 10 0 26 -7 36 -15 29 -22 1122 -22 1152 -1 16 12 20 29 22 111 2 53 1 107 -2 120 -14 53 -28 55 -499 55 l-433 0 -26 28 c-33 35 -48 65 -48 96 0 33 13 39 33 15 l17 -19 387 0 c297 0 397 3 426 14 49 17 120 76 155 129 l27 41 0 135 c0 113 -3 142 -18 170 -31 56 -99 123 -152 147 l-50 24 -480 -1 c-343 0 -489 -4 -510 -12z m833 -287 c27 -17 32 -25 32 -60 0 -29 -5 -42 -19 -50 -12 -6 -134 -10 -325 -10 l-306 0 -17 -19 c-34 -40 -45 10 -15 66 9 18 35 46 57 62 l40 30 260 1 c242 0 262 -1 293 -20z"/>
<path d="M11870 4610 c-17 -17 -20 -33 -20 -122 0 -57 5 -110 10 -118 8 -13 73 -16 454 -20 l445 -5 27 -21 c60 -44 69 -67 72 -181 6 -158 -2 -203 -44 -252 l-36 -41 -303 0 -304 0 -11 19 c-16 31 -12 66 11 87 20 18 43 19 327 22 196 2 311 7 319 14 14 11 19 171 7 202 -5 14 -51 16 -414 16 l-408 0 -56 -37 c-59 -41 -106 -97 -125 -152 -18 -56 -14 -223 8 -281 25 -65 73 -124 127 -156 24 -14 44 -30 44 -35 0 -5 205 -9 492 -9 l491 0 61 29 c67 31 132 94 165 160 20 38 21 56 21 361 0 305 -1 323 -21 361 -30 59 -90 121 -146 149 l-48 25 -562 3 -563 2 -20 -20z"/>
<path d="M14330 4616 c-101 -34 -174 -100 -204 -186 -20 -57 -21 -199 -1 -263 13 -45 59 -114 95 -145 8 -7 40 -25 70 -40 l55 -27 350 -5 350 -5 9 -28 c7 -19 7 -34 0 -45 -10 -15 -52 -17 -458 -22 l-448 -5 -19 -24 c-16 -19 -19 -40 -19 -118 0 -89 9 -129 34 -145 6 -4 237 -8 514 -8 l502 0 65 29 c74 34 127 84 161 156 21 44 24 64 24 163 0 105 -2 116 -30 172 -36 71 -105 127 -196 159 -57 20 -80 21 -387 21 l-326 0 -12 21 c-9 18 -7 26 9 48 l19 26 428 3 c296 1 432 6 442 13 17 15 19 239 1 257 -17 17 -977 15 -1028 -2z"/>
</g>
</g>
  <g id="id1:id1" transform="matrix(1.25,0,0,1.25,0.0,0.0)"><g transform="translate(0.000000,643.200000) scale(0.040000,-0.040000)" fill="#f1b8c5" stroke="none">
<path d="M4405 12762 c-85 -32 -135 -62 -196 -116 -53 -47 -235 -199 -283 -236 -17 -14 -71 -59 -119 -100 -49 -41 -103 -86 -121 -100 -35 -26 -119 -96 -197 -165 -25 -22 -63 -54 -85 -71 -65 -53 -188 -154 -214 -177 -14 -13 -47 -40 -75 -62 -44 -35 -75 -61 -165 -139 -14 -12 -58 -49 -98 -82 -74 -59 -109 -88 -242 -199 -40 -33 -94 -78 -120 -100 -26 -22 -80 -67 -120 -100 -40 -33 -94 -78 -120 -100 -26 -22 -80 -67 -120 -100 -40 -33 -94 -78 -120 -100 -26 -22 -80 -67 -120 -100 -39 -33 -90 -75 -113 -93 -23 -19 -89 -73 -147 -122 -255 -214 -399 -334 -635 -529 -210 -172 -259 -233 -306 -376 -34 -101 -32 -249 4 -358 47 -142 27 -121 1110 -1166 133 -129 384 -372 557 -541 358 -349 364 -354 445 -401 125 -73 151 -79 324 -79 101 0 161 5 196 15 110 34 226 119 514 380 37 33 98 87 136 120 38 33 113 98 166 145 52 47 142 126 199 175 110 95 167 146 296 261 43 39 95 84 114 100 19 16 94 80 165 144 72 63 149 131 172 150 23 19 95 82 159 140 65 58 137 121 160 140 22 19 129 112 236 206 176 155 198 178 231 242 35 66 37 75 37 161 0 79 -4 99 -29 153 -41 89 -118 157 -216 189 -32 11 -289 15 -1324 19 -1193 5 -1285 6 -1295 22 -7 11 -7 25 -1 41 9 23 86 94 169 157 19 14 86 70 151 125 65 55 153 129 196 165 43 36 137 115 210 175 142 119 274 229 444 370 60 50 130 108 155 130 41 35 116 98 317 265 101 84 113 90 165 90 45 0 52 -4 95 -47 25 -26 77 -86 115 -133 115 -142 301 -369 343 -420 22 -26 85 -103 140 -170 55 -66 118 -143 140 -169 35 -41 133 -161 280 -341 22 -27 108 -131 190 -231 83 -100 206 -250 273 -333 68 -83 145 -176 170 -208 26 -31 92 -111 147 -178 55 -66 118 -143 140 -169 22 -27 85 -104 140 -171 55 -67 121 -148 147 -179 26 -31 60 -72 75 -91 15 -19 62 -75 103 -125 41 -49 102 -124 135 -165 33 -41 63 -77 67 -80 4 -3 31 -36 60 -73 29 -36 98 -121 153 -187 106 -128 123 -149 280 -340 138 -167 163 -198 300 -367 66 -81 138 -168 160 -193 23 -25 47 -55 55 -66 8 -12 47 -59 86 -105 38 -46 108 -131 155 -187 46 -57 122 -150 167 -205 46 -56 102 -125 125 -153 23 -28 74 -89 113 -135 38 -46 117 -142 174 -212 56 -70 130 -153 164 -184 144 -131 341 -234 526 -273 30 -6 69 -16 86 -21 18 -5 1017 -9 2495 -9 2208 0 2469 2 2509 16 100 35 155 81 213 179 l40 69 0 116 c0 108 -2 119 -31 180 -18 36 -52 88 -76 115 -24 28 -90 107 -145 175 -56 69 -126 154 -156 190 -30 36 -93 112 -140 170 -48 58 -111 134 -140 170 -72 87 -215 261 -273 333 -26 32 -65 79 -88 105 -22 26 -99 118 -170 205 -71 87 -157 193 -192 235 -35 42 -107 130 -160 196 -53 65 -104 126 -113 135 -8 9 -62 74 -120 145 -120 149 -145 179 -254 311 -127 155 -199 242 -303 368 -53 66 -116 142 -140 170 -23 29 -57 71 -75 93 -18 23 -66 81 -107 130 -41 49 -104 125 -140 170 -36 44 -101 124 -145 176 -84 99 -215 258 -275 332 -19 24 -84 103 -145 177 -60 74 -123 151 -140 171 -16 21 -97 119 -180 219 -197 239 -313 380 -550 669 -47 58 -119 146 -160 195 -130 158 -294 358 -348 424 -29 35 -70 84 -92 110 -23 25 -53 62 -68 81 -42 55 -96 120 -177 216 -41 49 -101 121 -132 159 -186 230 -394 375 -628 437 -150 39 -52 38 -2620 37 l-2455 0 -70 -27z m4391 -943 c118 -21 247 -80 343 -158 62 -49 99 -90 216 -231 33 -41 76 -92 96 -114 19 -23 71 -85 115 -139 43 -54 97 -120 119 -147 53 -65 199 -243 249 -305 23 -27 59 -70 81 -96 22 -25 103 -123 180 -219 77 -95 158 -195 180 -220 22 -26 85 -102 140 -170 55 -68 118 -144 140 -170 22 -26 83 -100 135 -165 52 -65 111 -137 130 -160 116 -140 225 -272 368 -448 26 -31 76 -92 112 -135 36 -42 109 -131 162 -197 53 -66 127 -157 165 -201 37 -45 100 -122 140 -170 39 -49 92 -114 117 -144 25 -30 101 -122 168 -205 123 -151 160 -196 234 -283 22 -26 89 -108 149 -182 60 -74 125 -153 144 -176 20 -22 99 -118 176 -214 77 -95 158 -194 180 -220 22 -26 85 -102 140 -170 55 -67 130 -159 168 -203 74 -88 82 -116 46 -161 l-21 -26 -1306 2 -1307 3 -80 28 c-236 83 -336 163 -578 462 -76 94 -179 220 -228 280 -50 61 -125 152 -167 204 -43 52 -95 115 -117 141 -22 26 -103 125 -180 220 -77 95 -158 194 -180 220 -22 26 -85 102 -140 170 -55 67 -149 182 -209 254 -60 72 -152 184 -205 249 -53 66 -114 141 -136 167 -22 27 -76 93 -120 147 -44 54 -114 138 -155 187 -41 48 -86 103 -100 122 -14 18 -70 87 -125 154 -167 202 -176 214 -285 346 -58 70 -121 147 -140 170 -19 24 -80 98 -135 165 -142 172 -248 301 -340 415 -44 55 -114 139 -155 189 -41 49 -86 104 -100 121 -34 44 -265 326 -315 384 -22 26 -85 102 -140 170 -55 67 -138 168 -184 224 -113 136 -123 166 -72 217 l29 29 1269 0 c851 0 1289 -3 1329 -11z"/>
<path d="M3760 4790 c0 -6 60 -10 160 -10 100 0 160 4 160 10 0 6 -60 10 -160 10 -100 0 -160 -4 -160 -10z"/>
<path d="M9100 4790 c0 -5 5 -10 10 -10 6 0 10 5 10 10 0 6 -4 10 -10 10 -5 0 -10 -4 -10 -10z"/>
<path d="M13380 4790 c0 -6 64 -11 158 -12 l157 -3 3 -77 c2 -43 7 -78 12 -78 15 0 12 154 -2 168 -15 15 -328 17 -328 2z"/>
<path d="M8780 4300 c0 -300 3 -460 10 -460 7 0 10 160 10 460 0 300 -3 460 -10 460 -7 0 -10 -160 -10 -460z"/>
<path d="M3754 4609 c-15 -16 -19 -49 -6 -49 4 0 13 9 20 20 11 18 23 20 151 20 106 0 141 -3 150 -14 8 -10 11 -162 11 -557 -1 -389 2 -544 10 -544 17 0 14 1105 -4 1123 -9 9 -55 14 -165 15 -128 2 -155 -1 -167 -14z"/>
<path d="M2212 4608 c-17 -17 -17 -1019 0 -1036 8 -8 60 -12 169 -12 128 0 159 3 169 15 16 19 5 32 -14 16 -9 -8 -60 -11 -162 -9 l-149 3 0 505 0 505 578 3 c373 1 577 6 577 12 0 16 -1152 14 -1168 -2z"/>
<path d="M4260 4610 c0 -6 57 -10 150 -10 93 0 150 4 150 10 0 6 -57 10 -150 10 -93 0 -150 -4 -150 -10z"/>
<path d="M5260 4610 c0 -6 57 -10 150 -10 93 0 150 4 150 10 0 6 -57 10 -150 10 -93 0 -150 -4 -150 -10z"/>
<path d="M9220 4610 c0 -5 5 -10 10 -10 6 0 10 5 10 10 0 6 -4 10 -10 10 -5 0 -10 -4 -10 -10z"/>
<path d="M9900 4610 c0 -5 9 -10 20 -10 11 0 20 5 20 10 0 6 -9 10 -20 10 -11 0 -20 -4 -20 -10z"/>
<path d="M10580 4610 c0 -5 5 -10 10 -10 6 0 10 5 10 10 0 6 -4 10 -10 10 -5 0 -10 -4 -10 -10z"/>
<path d="M13740 4610 c0 -6 43 -10 110 -10 67 0 110 4 110 10 0 6 -43 10 -110 10 -67 0 -110 -4 -110 -10z"/>
<path d="M14400 4610 c0 -5 9 -10 20 -10 11 0 20 5 20 10 0 6 -9 10 -20 10 -11 0 -20 -4 -20 -10z"/>
<path d="M15320 4610 c0 -5 5 -10 10 -10 6 0 10 5 10 10 0 6 -4 10 -10 10 -5 0 -10 -4 -10 -10z"/>
<path d="M3420 4590 c0 -5 5 -10 10 -10 6 0 10 5 10 10 0 6 -4 10 -10 10 -5 0 -10 -4 -10 -10z"/>
<path d="M6920 4590 c0 -5 5 -10 10 -10 6 0 10 5 10 10 0 6 -4 10 -10 10 -5 0 -10 -4 -10 -10z"/>
<path d="M10000 4590 c0 -5 5 -10 10 -10 6 0 10 5 10 10 0 6 -4 10 -10 10 -5 0 -10 -4 -10 -10z"/>
<path d="M10500 4590 c0 -5 5 -10 10 -10 6 0 10 5 10 10 0 6 -4 10 -10 10 -5 0 -10 -4 -10 -10z"/>
<path d="M13980 4590 c0 -5 5 -10 10 -10 6 0 10 5 10 10 0 6 -4 10 -10 10 -5 0 -10 -4 -10 -10z"/>
<path d="M14300 4590 c0 -5 5 -10 10 -10 6 0 10 5 10 10 0 6 -4 10 -10 10 -5 0 -10 -4 -10 -10z"/>
<path d="M3460 4570 c0 -5 5 -10 10 -10 6 0 10 5 10 10 0 6 -4 10 -10 10 -5 0 -10 -4 -10 -10z"/>
<path d="M4220 4220 c0 -233 4 -360 10 -360 6 0 10 127 10 360 0 233 -4 360 -10 360 -6 0 -10 -127 -10 -360z"/>
<path d="M5220 4240 c0 -220 4 -340 10 -340 6 0 10 120 10 340 0 220 -4 340 -10 340 -6 0 -10 -120 -10 -340z"/>
<path d="M10040 4570 c0 -5 5 -10 10 -10 6 0 10 5 10 10 0 6 -4 10 -10 10 -5 0 -10 -4 -10 -10z"/>
<path d="M10460 4570 c0 -5 5 -10 10 -10 6 0 10 5 10 10 0 6 -4 10 -10 10 -5 0 -10 -4 -10 -10z"/>
<path d="M14260 4570 c0 -5 5 -10 10 -10 6 0 10 5 10 10 0 6 -4 10 -10 10 -5 0 -10 -4 -10 -10z"/>
<path d="M3500 4552 c0 -14 49 -56 57 -49 3 4 -4 18 -17 32 -24 25 -40 32 -40 17z"/>
<path d="M7000 4550 c0 -5 5 -10 10 -10 6 0 10 5 10 10 0 6 -4 10 -10 10 -5 0 -10 -4 -10 -10z"/>
<path d="M13120 4530 c0 -5 5 -10 10 -10 6 0 10 5 10 10 0 6 -4 10 -10 10 -5 0 -10 -4 -10 -10z"/>
<path d="M7060 4490 c0 -5 5 -10 10 -10 6 0 10 5 10 10 0 6 -4 10 -10 10 -5 0 -10 -4 -10 -10z"/>
<path d="M3564 4468 c3 -7 9 -21 12 -30 4 -10 10 -18 15 -18 13 0 11 34 -3 48 -16 16 -31 15 -24 0z"/>
<path d="M10140 4470 c0 -5 5 -10 10 -10 6 0 10 5 10 10 0 6 -4 10 -10 10 -5 0 -10 -4 -10 -10z"/>
<path d="M10360 4470 c0 -5 5 -10 10 -10 6 0 10 5 10 10 0 6 -4 10 -10 10 -5 0 -10 -4 -10 -10z"/>
<path d="M11680 4470 c0 -5 5 -10 10 -10 6 0 10 5 10 10 0 6 -4 10 -10 10 -5 0 -10 -4 -10 -10z"/>
<path d="M10340 4430 c0 -5 5 -10 10 -10 6 0 10 5 10 10 0 6 -4 10 -10 10 -5 0 -10 -4 -10 -10z"/>
<path d="M3598 3993 l-3 -408 -155 0 -155 0 -3 368 c-1 233 -6 367 -12 367 -15 0 -13 -733 2 -748 8 -8 60 -12 168 -12 108 0 160 4 168 12 15 15 18 828 2 828 -6 0 -11 -147 -12 -407z"/>
<path d="M13975 4390 c-4 -6 -55 -10 -121 -10 -69 0 -114 -4 -114 -10 0 -15 233 -13 248 2 7 7 12 16 12 20 0 11 -18 10 -25 -2z"/>
<path d="M2600 4370 c0 -6 107 -10 300 -10 193 0 300 4 300 10 0 6 -107 10 -300 10 -193 0 -300 -4 -300 -10z"/>
<path d="M14120 4370 c0 -5 5 -10 10 -10 6 0 10 5 10 10 0 6 -4 10 -10 10 -5 0 -10 -4 -10 -10z"/>
<path d="M2560 4350 c0 -5 5 -10 10 -10 6 0 10 5 10 10 0 6 -4 10 -10 10 -5 0 -10 -4 -10 -10z"/>
<path d="M3240 4350 c0 -5 5 -10 10 -10 6 0 10 5 10 10 0 6 -4 10 -10 10 -5 0 -10 -4 -10 -10z"/>
<path d="M6080 4350 c0 -5 5 -10 10 -10 6 0 10 5 10 10 0 6 -4 10 -10 10 -5 0 -10 -4 -10 -10z"/>
<path d="M6740 4350 c0 -5 5 -10 10 -10 6 0 10 5 10 10 0 6 -4 10 -10 10 -5 0 -10 -4 -10 -10z"/>
<path d="M8200 4350 c0 -5 5 -10 10 -10 6 0 10 5 10 10 0 6 -4 10 -10 10 -5 0 -10 -4 -10 -10z"/>
<path d="M9740 4350 c0 -5 5 -10 10 -10 6 0 10 5 10 10 0 6 -4 10 -10 10 -5 0 -10 -4 -10 -10z"/>
<path d="M11360 4350 c0 -5 5 -10 10 -10 6 0 10 5 10 10 0 6 -4 10 -10 10 -5 0 -10 -4 -10 -10z"/>
<path d="M10320 4330 c0 -5 5 -10 10 -10 6 0 10 5 10 10 0 6 -4 10 -10 10 -5 0 -10 -4 -10 -10z"/>
<path d="M13700 4130 c0 -133 4 -210 10 -210 6 0 10 77 10 210 0 133 -4 210 -10 210 -6 0 -10 -77 -10 -210z"/>
<path d="M6760 4310 c0 -5 5 -10 10 -10 6 0 10 5 10 10 0 6 -4 10 -10 10 -5 0 -10 -4 -10 -10z"/>
<path d="M9800 4310 c0 -5 5 -10 10 -10 6 0 10 5 10 10 0 6 -4 10 -10 10 -5 0 -10 -4 -10 -10z"/>
<path d="M11400 4310 c0 -5 5 -10 10 -10 6 0 10 5 10 10 0 6 -4 10 -10 10 -5 0 -10 -4 -10 -10z"/>
<path d="M10680 4270 c0 -5 5 -10 10 -10 6 0 10 5 10 10 0 6 -4 10 -10 10 -5 0 -10 -4 -10 -10z"/>
<path d="M14120 4230 c0 -5 5 -10 10 -10 6 0 10 5 10 10 0 6 -4 10 -10 10 -5 0 -10 -4 -10 -10z"/>
<path d="M14460 4230 c0 -5 5 -10 10 -10 6 0 10 5 10 10 0 6 -4 10 -10 10 -5 0 -10 -4 -10 -10z"/>
<path d="M10660 4210 c0 -5 5 -10 10 -10 6 0 10 5 10 10 0 6 -4 10 -10 10 -5 0 -10 -4 -10 -10z"/>
<path d="M11380 4210 c0 -5 5 -10 10 -10 6 0 10 5 10 10 0 6 -4 10 -10 10 -5 0 -10 -4 -10 -10z"/>
<path d="M10760 4190 c0 -6 103 -10 290 -10 187 0 290 4 290 10 0 6 -103 10 -290 10 -187 0 -290 -4 -290 -10z"/>
<path d="M9840 4090 c0 -53 4 -90 10 -90 6 0 10 37 10 90 0 53 -4 90 -10 90 -6 0 -10 -37 -10 -90z"/>
<path d="M10720 4090 c0 -40 4 -70 10 -70 6 0 10 30 10 70 0 40 -4 70 -10 70 -6 0 -10 -30 -10 -70z"/>
<path d="M14140 4150 c0 -5 5 -10 10 -10 6 0 10 5 10 10 0 6 -4 10 -10 10 -5 0 -10 -4 -10 -10z"/>
<path d="M7340 4130 c0 -5 5 -10 10 -10 6 0 10 5 10 10 0 6 -4 10 -10 10 -5 0 -10 -4 -10 -10z"/>
<path d="M11640 4075 c-13 -14 -20 -28 -17 -32 8 -7 57 35 57 49 0 15 -16 8 -40 -17z"/>
<path d="M15360 4050 c0 -5 5 -10 10 -10 6 0 10 5 10 10 0 6 -4 10 -10 10 -5 0 -10 -4 -10 -10z"/>
<path d="M7260 4010 c0 -5 5 -10 10 -10 6 0 10 5 10 10 0 6 -4 10 -10 10 -5 0 -10 -4 -10 -10z"/>
<path d="M14260 4010 c0 -5 5 -10 10 -10 6 0 10 5 10 10 0 6 -4 10 -10 10 -5 0 -10 -4 -10 -10z"/>
<path d="M11500 3990 c0 -5 5 -10 10 -10 6 0 10 5 10 10 0 6 -4 10 -10 10 -5 0 -10 -4 -10 -10z"/>
<path d="M14300 3990 c0 -5 5 -10 10 -10 6 0 10 5 10 10 0 6 -4 10 -10 10 -5 0 -10 -4 -10 -10z"/>
<path d="M15380 3990 c0 -5 5 -10 10 -10 6 0 10 5 10 10 0 6 -4 10 -10 10 -5 0 -10 -4 -10 -10z"/>
<path d="M10660 3950 c0 -5 5 -10 10 -10 6 0 10 5 10 10 0 6 -4 10 -10 10 -5 0 -10 -4 -10 -10z"/>
<path d="M9140 3910 c0 -5 5 -10 10 -10 6 0 10 5 10 10 0 6 -4 10 -10 10 -5 0 -10 -4 -10 -10z"/>
<path d="M5200 3870 c0 -5 5 -10 10 -10 6 0 10 5 10 10 0 6 -4 10 -10 10 -5 0 -10 -4 -10 -10z"/>
<path d="M9800 3870 c0 -5 5 -10 10 -10 6 0 10 5 10 10 0 6 -4 10 -10 10 -5 0 -10 -4 -10 -10z"/>
<path d="M13720 3871 c0 -13 29 -35 37 -28 7 8 -15 37 -28 37 -5 0 -9 -4 -9 -9z"/>
<path d="M15060 3850 c0 -5 5 -10 10 -10 6 0 10 5 10 10 0 6 -4 10 -10 10 -5 0 -10 -4 -10 -10z"/>
<path d="M4640 3830 c0 -5 5 -10 10 -10 6 0 10 5 10 10 0 6 -4 10 -10 10 -5 0 -10 -4 -10 -10z"/>
<path d="M5160 3830 c0 -5 5 -10 10 -10 6 0 10 5 10 10 0 6 -4 10 -10 10 -5 0 -10 -4 -10 -10z"/>
<path d="M9200 3830 c0 -5 5 -10 10 -10 6 0 10 5 10 10 0 6 -4 10 -10 10 -5 0 -10 -4 -10 -10z"/>
<path d="M10760 3830 c0 -5 5 -10 10 -10 6 0 10 5 10 10 0 6 -4 10 -10 10 -5 0 -10 -4 -10 -10z"/>
<path d="M12760 3830 c0 -5 5 -10 10 -10 6 0 10 5 10 10 0 6 -4 10 -10 10 -5 0 -10 -4 -10 -10z"/>
<path d="M15380 3830 c0 -5 5 -10 10 -10 6 0 10 5 10 10 0 6 -4 10 -10 10 -5 0 -10 -4 -10 -10z"/>
<path d="M13960 3811 c0 -13 29 -35 37 -28 7 8 -15 37 -28 37 -5 0 -9 -4 -9 -9z"/>
<path d="M5560 3770 c0 -5 5 -10 10 -10 6 0 10 5 10 10 0 6 -4 10 -10 10 -5 0 -10 -4 -10 -10z"/>
<path d="M13360 3770 c0 -5 5 -10 10 -10 6 0 10 5 10 10 0 6 -4 10 -10 10 -5 0 -10 -4 -10 -10z"/>
<path d="M4240 3750 c0 -5 5 -10 10 -10 6 0 10 5 10 10 0 6 -4 10 -10 10 -5 0 -10 -4 -10 -10z"/>
<path d="M8800 3750 c0 -5 5 -10 10 -10 6 0 10 5 10 10 0 6 -4 10 -10 10 -5 0 -10 -4 -10 -10z"/>
<path d="M10340 3750 c0 -5 5 -10 10 -10 6 0 10 5 10 10 0 6 -4 10 -10 10 -5 0 -10 -4 -10 -10z"/>
<path d="M4260 3710 c0 -5 5 -10 10 -10 6 0 10 5 10 10 0 6 -4 10 -10 10 -5 0 -10 -4 -10 -10z"/>
<path d="M8820 3710 c0 -5 5 -10 10 -10 6 0 10 5 10 10 0 6 -4 10 -10 10 -5 0 -10 -4 -10 -10z"/>
<path d="M10140 3710 c0 -5 5 -10 10 -10 6 0 10 5 10 10 0 6 -4 10 -10 10 -5 0 -10 -4 -10 -10z"/>
<path d="M10360 3710 c0 -5 5 -10 10 -10 6 0 10 5 10 10 0 6 -4 10 -10 10 -5 0 -10 -4 -10 -10z"/>
<path d="M13400 3690 c0 -5 5 -10 10 -10 6 0 10 5 10 10 0 6 -4 10 -10 10 -5 0 -10 -4 -10 -10z"/>
<path d="M13120 3650 c0 -5 5 -10 10 -10 6 0 10 5 10 10 0 6 -4 10 -10 10 -5 0 -10 -4 -10 -10z"/>
<path d="M5460 3630 c0 -5 5 -10 10 -10 6 0 10 5 10 10 0 6 -4 10 -10 10 -5 0 -10 -4 -10 -10z"/>
<path d="M13460 3630 c0 -5 5 -10 10 -10 6 0 10 5 10 10 0 6 -4 10 -10 10 -5 0 -10 -4 -10 -10z"/>
<path d="M4360 3610 c0 -5 5 -10 10 -10 6 0 10 5 10 10 0 6 -4 10 -10 10 -5 0 -10 -4 -10 -10z"/>
<path d="M8920 3610 c0 -5 5 -10 10 -10 6 0 10 5 10 10 0 6 -4 10 -10 10 -5 0 -10 -4 -10 -10z"/>
<path d="M10460 3610 c0 -5 5 -10 10 -10 6 0 10 5 10 10 0 6 -4 10 -10 10 -5 0 -10 -4 -10 -10z"/>
<path d="M4400 3590 c0 -5 5 -10 10 -10 6 0 10 5 10 10 0 6 -4 10 -10 10 -5 0 -10 -4 -10 -10z"/>
<path d="M8960 3590 c0 -5 5 -10 10 -10 6 0 10 5 10 10 0 6 -4 10 -10 10 -5 0 -10 -4 -10 -10z"/>
<path d="M10500 3590 c0 -5 5 -10 10 -10 6 0 10 5 10 10 0 6 -4 10 -10 10 -5 0 -10 -4 -10 -10z"/>
<path d="M12000 3590 c0 -5 5 -10 10 -10 6 0 10 5 10 10 0 6 -4 10 -10 10 -5 0 -10 -4 -10 -10z"/>
<path d="M12980 3590 c0 -5 5 -10 10 -10 6 0 10 5 10 10 0 6 -4 10 -10 10 -5 0 -10 -4 -10 -10z"/>
<path d="M5740 3570 c0 -6 57 -10 150 -10 93 0 150 4 150 10 0 6 -57 10 -150 10 -93 0 -150 -4 -150 -10z"/>
<path d="M6800 3570 c0 -6 57 -10 150 -10 93 0 150 4 150 10 0 6 -57 10 -150 10 -93 0 -150 -4 -150 -10z"/>
<path d="M13600 3570 c0 -6 70 -10 190 -10 120 0 190 4 190 10 0 6 -70 10 -190 10 -120 0 -190 -4 -190 -10z"/>
<path d="M4060 3450 c0 -5 5 -10 10 -10 6 0 10 5 10 10 0 6 -4 10 -10 10 -5 0 -10 -4 -10 -10z"/>
<path d="M3716 3432 c-2 -4 0 -14 5 -22 8 -13 10 -13 18 0 10 15 6 30 -9 30 -5 0 -11 -4 -14 -8z"/>
<path d="M4000 3375 c-24 -24 -41 -48 -37 -52 8 -7 97 75 97 89 0 17 -18 6 -60 -37z"/>
<path d="M3700 3360 c0 -11 5 -20 10 -20 6 0 10 9 10 20 0 11 -4 20 -10 20 -5 0 -10 -9 -10 -20z"/>
<path d="M3920 3310 c0 -5 5 -10 10 -10 6 0 10 5 10 10 0 6 -4 10 -10 10 -5 0 -10 -4 -10 -10z"/>
<path d="M3700 3290 c0 -5 14 -10 30 -10 17 0 30 5 30 10 0 6 -13 10 -30 10 -16 0 -30 -4 -30 -10z"/>
<path d="M3840 3290 c0 -5 14 -10 30 -10 17 0 30 5 30 10 0 6 -13 10 -30 10 -16 0 -30 -4 -30 -10z"/>
</g>
</g>
  <g id="id2:id2" transform="matrix(1.25,0,0,1.25,0.0,0.0)"><g transform="translate(0.000000,643.200000) scale(0.040000,-0.040000)" fill="#ffffff" stroke="none">
<path d="M0 8040 l0 -8040 8040 0 8040 0 0 8040 0 8040 -8040 0 -8040 0 0 -8040z m9454 4719 c22 -6 59 -15 81 -21 69 -18 194 -68 258 -105 176 -99 269 -194 622 -631 17 -21 85 -103 151 -182 66 -80 187 -226 268 -325 162 -198 334 -407 526 -640 69 -83 159 -193 200 -244 41 -52 95 -117 120 -146 25 -28 90 -107 145 -175 55 -68 117 -143 138 -166 20 -23 37 -46 37 -52 0 -6 4 -12 9 -14 6 -1 54 -57 108 -124 54 -66 170 -207 258 -314 88 -106 216 -261 284 -344 120 -147 257 -313 511 -620 69 -83 172 -210 230 -281 57 -72 141 -173 185 -226 44 -53 105 -127 135 -164 50 -62 120 -147 154 -185 7 -8 44 -53 82 -100 37 -47 123 -150 189 -230 66 -80 190 -231 275 -335 85 -103 211 -257 280 -340 69 -83 200 -243 292 -355 93 -113 174 -212 181 -220 64 -72 179 -224 198 -260 19 -39 22 -60 22 -165 1 -106 -2 -125 -22 -164 -36 -69 -107 -138 -177 -171 l-62 -30 -2472 0 c-1459 0 -2488 4 -2509 9 -20 5 -61 15 -91 21 -117 25 -237 74 -330 133 -163 104 -198 140 -545 566 -55 68 -138 169 -185 225 -47 57 -135 163 -196 237 -61 74 -151 184 -200 244 -49 61 -125 153 -169 206 -44 53 -123 149 -175 214 -52 65 -114 139 -137 165 -24 26 -43 50 -43 54 0 3 -8 14 -17 24 -10 9 -56 64 -102 122 -47 58 -103 126 -125 151 -23 25 -86 101 -141 169 -55 68 -114 140 -131 159 -17 20 -71 86 -120 147 -49 60 -160 195 -246 300 -248 300 -302 366 -481 584 -93 113 -234 285 -315 383 -81 98 -157 192 -170 210 -13 18 -38 48 -56 67 -18 19 -68 79 -112 133 -43 54 -97 120 -119 147 -22 27 -96 117 -164 202 -69 84 -141 171 -160 193 -20 23 -85 101 -146 175 -60 74 -166 203 -235 286 -69 83 -162 197 -208 253 -46 56 -97 111 -115 121 -39 24 -104 26 -137 3 -21 -14 -345 -281 -485 -400 -59 -50 -65 -55 -130 -108 -33 -27 -80 -67 -105 -88 -54 -46 -53 -45 -164 -138 -135 -113 -294 -245 -408 -338 -57 -46 -124 -103 -149 -125 -25 -23 -105 -90 -177 -150 -78 -65 -133 -119 -137 -133 -6 -24 9 -62 29 -75 6 -4 583 -8 1282 -8 1411 0 1327 4 1424 -66 92 -66 130 -146 130 -275 0 -143 -41 -208 -231 -366 -25 -21 -99 -85 -164 -143 -65 -58 -139 -123 -166 -145 -26 -22 -105 -91 -176 -154 -70 -62 -140 -123 -154 -136 -15 -13 -51 -45 -81 -71 -30 -27 -137 -121 -238 -209 -100 -88 -248 -218 -329 -289 -80 -71 -159 -140 -176 -155 -224 -195 -302 -264 -365 -321 -41 -37 -96 -85 -121 -106 -26 -22 -75 -64 -110 -95 -91 -79 -149 -117 -227 -145 -60 -21 -83 -24 -217 -24 -166 0 -212 9 -304 61 -88 50 -122 79 -361 314 -124 121 -286 279 -360 350 -74 71 -252 244 -396 385 -143 140 -303 295 -355 345 -223 211 -563 553 -592 594 -55 80 -79 171 -80 301 -1 94 3 127 21 184 39 117 81 172 222 290 77 65 76 65 150 126 37 30 104 87 150 125 47 39 116 96 155 128 38 32 79 66 90 75 29 26 674 563 711 592 17 14 71 59 120 100 48 41 102 86 120 100 17 14 71 59 120 100 48 41 102 86 120 100 17 14 71 59 120 100 48 41 102 86 120 100 17 14 78 64 135 112 202 169 292 244 363 301 39 32 105 87 146 122 367 313 755 626 801 647 30 13 65 29 79 36 35 15 4965 17 5024 1z m-5366 -7981 c7 -7 12 -28 12 -48 0 -20 -5 -41 -12 -48 -8 -8 -60 -12 -170 -12 -145 0 -158 1 -168 19 -14 26 -13 74 2 89 8 8 60 12 168 12 108 0 160 -4 168 -12z m5052 -428 c3 -303 9 -441 17 -455 6 -11 23 -31 38 -45 l27 -25 268 0 269 0 34 34 c43 41 48 63 54 219 3 100 1 132 -13 170 -23 62 -31 72 -84 96 -41 19 -69 21 -300 26 l-255 5 -3 97 c-2 58 2 106 8 118 l11 21 387 -3 387 -3 60 -30 c69 -35 109 -87 131 -168 21 -78 20 -570 -1 -640 -25 -82 -62 -128 -135 -164 l-65 -33 -485 0 -485 0 -64 33 c-71 35 -117 89 -139 163 -13 45 -18 1005 -5 1018 4 3 81 5 172 4 l166 -3 5 -435z m4568 360 c2 -41 8 -80 14 -87 7 -9 45 -13 132 -13 82 0 126 -4 134 -12 16 -16 16 -200 0 -216 -8 -8 -51 -12 -129 -12 -94 0 -121 -3 -133 -16 -14 -13 -16 -48 -16 -228 l0 -213 23 -34 c32 -47 61 -59 147 -59 113 0 120 -7 120 -129 0 -62 -4 -101 -12 -109 -9 -9 -70 -12 -214 -12 -179 0 -206 2 -246 20 -50 22 -144 116 -152 151 -22 99 -26 188 -26 576 0 284 4 441 10 454 10 18 21 19 178 17 l167 -3 3 -75z m-11789 -127 c16 -13 34 -23 39 -23 15 0 59 -53 84 -100 l23 -45 3 -309 c3 -345 0 -370 -62 -442 -19 -22 -59 -52 -89 -67 l-56 -27 -490 0 -491 0 -45 21 c-50 24 -95 70 -125 129 -17 33 -20 59 -20 171 0 117 2 136 22 168 31 52 66 88 112 113 l41 23 400 0 400 0 3 -88 c2 -57 -1 -94 -9 -103 -9 -11 -67 -14 -316 -14 l-304 0 -24 -25 c-31 -30 -32 -73 -4 -109 l20 -26 299 0 299 0 35 30 c58 51 66 81 66 240 0 150 -6 174 -52 217 -56 52 -66 53 -521 53 l-422 -1 -3 107 c-1 59 0 114 2 121 5 11 106 13 580 11 l574 -3 31 -22z m1541 -5 c55 -26 83 -51 111 -98 38 -63 40 -95 37 -505 l-3 -400 -165 0 -165 0 -5 370 c-3 204 -9 378 -14 388 -4 10 -17 22 -27 27 -21 12 -619 14 -634 2 -6 -4 -18 -19 -28 -34 -15 -24 -17 -67 -19 -390 l-3 -363 -159 -3 c-108 -2 -163 1 -172 9 -12 9 -14 95 -14 495 0 293 4 493 10 509 l10 26 592 -3 593 -3 55 -27z m628 20 c9 -9 12 -142 12 -539 0 -604 1 -599 -79 -682 -66 -69 -117 -90 -220 -91 -106 -1 -115 9 -86 86 19 50 20 85 25 633 3 319 9 586 13 593 11 17 318 17 335 0z m502 -348 c4 -318 7 -358 23 -381 31 -45 52 -49 303 -49 l234 0 38 34 37 34 5 359 5 358 170 0 170 0 0 -415 c0 -228 -4 -428 -8 -443 -12 -45 -96 -127 -155 -153 l-53 -24 -453 0 -453 0 -49 21 c-66 30 -149 116 -159 166 -9 43 -18 820 -11 840 4 11 42 13 178 11 l173 -3 5 -355z m2370 334 c54 -25 137 -111 145 -151 4 -15 11 -41 16 -57 5 -16 9 -199 9 -406 0 -309 -3 -380 -14 -389 -9 -8 -65 -11 -177 -9 l-164 3 -5 377 c-5 345 -7 379 -23 395 -16 17 -43 18 -327 18 -284 0 -311 -1 -327 -18 -16 -16 -18 -50 -23 -395 l-5 -377 -164 -3 c-112 -2 -168 1 -177 9 -12 9 -14 97 -14 502 0 446 2 492 17 509 l17 19 585 -3 586 -3 45 -21z m1525 0 c69 -32 130 -101 150 -167 20 -66 22 -587 3 -651 -22 -75 -74 -133 -155 -175 l-42 -21 -490 0 c-360 0 -497 3 -518 12 -117 50 -183 164 -183 314 0 125 54 221 155 277 l40 22 388 3 c286 2 393 0 403 -9 18 -15 20 -169 2 -187 -9 -9 -93 -12 -315 -12 l-304 0 -24 -25 c-31 -30 -32 -73 -4 -109 l20 -26 298 0 297 0 40 43 c59 62 64 81 63 230 -1 161 -15 196 -94 239 l-50 28 -425 -1 c-392 0 -426 2 -437 17 -19 26 -17 174 3 202 l15 22 555 0 555 0 54 -26z m3102 -5 c64 -39 113 -107 129 -181 30 -143 10 -251 -62 -328 -76 -81 -74 -81 -525 -78 l-394 3 0 95 0 95 318 5 319 5 19 24 c40 50 16 114 -54 140 -39 15 -511 15 -540 0 -37 -19 -98 -82 -113 -118 -10 -23 -14 -73 -14 -163 0 -138 11 -179 60 -223 l22 -20 454 -5 c353 -4 456 -8 466 -18 19 -19 18 -203 -1 -225 -12 -15 -64 -17 -566 -17 l-553 0 -64 29 c-70 32 -95 55 -130 121 l-23 45 0 315 c1 173 5 329 9 345 15 53 83 127 144 158 l57 27 500 -2 500 -3 42 -26z m1478 2 c60 -36 94 -71 121 -123 l24 -47 0 -323 0 -323 -21 -40 c-23 -44 -97 -125 -114 -125 -6 0 -28 -9 -50 -20 l-39 -20 -476 0 -476 0 -39 20 c-58 29 -121 96 -145 153 -19 44 -22 65 -18 171 l3 121 33 50 c17 28 55 66 83 85 l52 35 401 0 401 0 3 -88 c2 -57 -1 -94 -9 -103 -9 -11 -66 -14 -308 -14 -331 0 -340 -2 -355 -62 -8 -30 -5 -41 13 -67 l23 -32 306 3 307 3 26 25 c49 47 62 87 67 202 6 144 -2 190 -41 235 -65 73 -65 73 -532 73 -228 -1 -420 2 -425 5 -11 7 -14 218 -3 229 4 3 264 5 577 4 l571 -3 40 -24z m2280 -91 l0 -115 -424 -3 -425 -2 -24 -23 c-41 -38 -45 -54 -22 -87 l21 -30 333 0 332 0 64 -25 c74 -29 143 -90 171 -150 15 -32 19 -64 19 -160 0 -111 -2 -124 -27 -174 -31 -60 -83 -103 -161 -133 -43 -16 -90 -18 -548 -18 -375 0 -503 3 -512 12 -8 8 -12 47 -12 112 0 78 3 103 17 118 15 17 43 18 458 18 480 0 459 -3 471 56 4 23 0 36 -20 57 l-25 27 -333 0 c-391 0 -397 1 -488 91 -68 67 -73 83 -74 239 -1 102 2 120 22 160 13 25 34 56 45 68 19 20 85 57 137 75 8 3 238 5 510 4 l495 -2 0 -115z"/>
<path d="M6200 11843 c-28 -10 -69 -56 -75 -84 -8 -35 19 -87 82 -159 27 -30 86 -102 133 -160 46 -58 126 -155 176 -216 51 -61 114 -138 141 -170 26 -33 170 -208 318 -388 149 -181 281 -343 294 -360 23 -28 72 -88 105 -126 7 -8 43 -53 81 -100 38 -47 110 -135 160 -195 51 -61 141 -171 201 -245 60 -75 148 -183 196 -240 135 -164 381 -462 518 -629 69 -84 163 -199 210 -256 47 -56 128 -155 180 -220 52 -64 133 -163 180 -219 47 -57 128 -156 180 -220 52 -65 111 -136 131 -159 20 -23 67 -81 105 -128 38 -47 101 -123 140 -170 39 -46 120 -145 179 -219 60 -74 132 -162 160 -195 29 -33 91 -109 140 -170 195 -244 309 -330 539 -409 l91 -31 1301 -3 1302 -2 31 35 c35 40 39 68 13 107 -16 25 -380 472 -507 622 -59 70 -225 273 -295 361 -39 49 -285 348 -337 410 -19 22 -39 46 -46 54 -7 8 -56 69 -110 135 -54 67 -122 150 -152 186 -30 36 -112 135 -182 222 -70 86 -218 265 -328 399 -180 219 -381 463 -475 577 -19 24 -73 90 -120 146 -47 57 -128 156 -180 220 -52 65 -133 164 -180 220 -47 57 -110 134 -140 171 -53 66 -127 154 -154 185 -7 8 -53 65 -102 125 -49 61 -129 159 -179 219 -286 345 -342 414 -360 437 -132 175 -398 479 -419 479 -5 0 -18 7 -28 17 -10 9 -26 21 -37 27 -104 61 -198 98 -295 115 -62 11 -2556 15 -2586 4z"/>
</g>
</g>
</svg>
