<svg xmlns="http://www.w3.org/2000/svg" version="1.0" width="424.000000pt" height="494.000000pt" viewBox="0 0 424.000000 494.000000" preserveAspectRatio="xMidYMid meet">
  <g transform="translate(0.000000,494.000000) scale(0.100000,-0.100000)" stroke="none">
    <path stroke="none" d="M0 2470 l0 -2470 2120 0 2120 0 0 2470 0 2470 -2120 0 -2120 0 0 -2470z" fill="#c10c06" id="c10c06-000001"/>
    <path stroke="none" d="M2140 4720 c0 -11 6 -20 14 -20 34 0 29 -47 -6 -52 -20 -3 -20 -3 1 -27 26 -30 27 -56 1 -74 -13 -9 -18 -20 -14 -31 3 -9 1 -23 -6 -31 -10 -12 -10 -18 0 -30 10 -12 9 -15 -7 -15 -15 0 -19 8 -21 46 -1 34 -7 51 -22 61 -26 18 -26 55 0 71 11 7 20 19 20 28 0 11 -6 13 -20 9 -16 -5 -20 -2 -20 19 0 17 5 26 16 26 10 0 14 6 11 14 -7 19 1 26 30 26 16 0 23 -6 23 -20z" fill="#c1bea2" id="c1bea2-000001"/>
    <path stroke="none" d="M2033 4546 c-1 -17 3 -26 13 -26 8 0 14 -9 14 -19 0 -11 5 -23 10 -26 6 -3 10 -19 10 -36 0 -16 -4 -29 -10 -29 -5 0 -10 8 -10 18 0 46 -38 89 -55 62 -3 -5 -14 -10 -24 -10 -9 0 -42 -12 -72 -27 -39 -20 -49 -29 -35 -31 30 -6 46 -28 46 -61 0 -29 2 -30 30 -24 39 7 70 -19 70 -59 0 -34 -25 -48 -44 -23 -18 26 -56 11 -56 -21 0 -39 26 -58 81 -58 53 0 99 31 99 66 0 19 -15 24 -25 8 -3 -5 -13 -10 -21 -10 -10 0 -14 13 -14 46 0 42 2 45 21 39 20 -7 21 -4 16 23 -5 24 -2 31 14 35 12 3 17 11 13 21 -4 11 0 16 13 16 27 0 43 19 43 51 0 17 8 34 22 43 17 12 19 18 9 29 -9 11 -8 17 3 27 22 17 36 3 33 -33 -2 -27 2 -33 21 -35 20 -3 22 0 17 21 -7 28 4 40 25 27 13 -8 13 -13 2 -30 -14 -23 -8 -40 14 -40 8 0 14 10 14 25 0 30 29 35 37 6 3 -13 11 -17 24 -14 14 4 19 0 19 -15 0 -11 -8 -22 -17 -24 -12 -2 -5 -11 25 -30 49 -33 62 -35 55 -8 -4 13 0 20 9 20 25 0 29 -13 11 -33 -13 -15 -15 -21 -5 -24 15 -6 16 -23 2 -23 -6 0 -20 9 -32 20 -12 11 -34 26 -50 32 -15 7 -28 16 -28 20 0 5 -6 8 -13 8 -7 0 -32 9 -55 20 -22 11 -47 20 -55 20 -7 0 -18 5 -23 10 -15 15 -44 2 -44 -19 0 -30 -24 -71 -42 -71 -10 0 -18 -4 -18 -10 0 -5 9 -10 20 -10 21 0 28 -24 10 -35 -20 -12 -10 -27 14 -21 17 4 26 1 31 -12 6 -15 8 -14 24 7 15 19 24 23 49 18 27 -6 31 -3 41 24 25 73 71 71 71 -2 0 -33 3 -39 22 -39 50 0 76 -63 41 -102 -22 -24 -41 -23 -45 4 -4 32 -24 33 -44 3 -16 -25 -16 -27 3 -53 16 -22 29 -28 71 -30 49 -3 53 -1 72 30 26 43 25 48 -6 48 -20 0 -25 4 -20 16 3 9 6 27 6 40 0 17 6 24 20 24 11 0 20 -4 20 -10 0 -5 4 -10 9 -10 6 0 11 15 13 33 3 28 6 32 28 29 33 -5 36 -9 22 -32 -7 -11 -12 -31 -12 -46 0 -14 -8 -38 -18 -52 -31 -45 -45 -91 -39 -126 5 -33 -6 -60 -41 -95 -11 -12 -18 -12 -33 -3 -23 15 -49 16 -49 2 0 -5 9 -10 21 -10 23 0 22 -19 -2 -30 -70 -34 -311 -50 -449 -31 -132 19 -148 23 -166 42 -9 10 -22 19 -27 19 -6 0 -25 11 -44 26 -29 22 -33 31 -33 72 0 47 -14 96 -40 142 -20 36 -24 120 -6 120 8 0 21 3 30 6 11 4 16 0 16 -14 0 -12 -5 -24 -10 -27 -6 -4 -7 -11 -4 -17 4 -6 10 -6 17 1 20 20 37 12 37 -19 0 -16 5 -30 10 -30 6 0 10 6 10 14 0 28 41 66 71 66 28 0 29 1 29 50 0 29 -5 50 -11 50 -6 0 -31 -14 -57 -32 -29 -20 -47 -27 -50 -20 -2 7 -10 12 -18 12 -8 0 -14 5 -14 10 0 14 28 12 32 -2 3 -8 12 -5 28 10 13 12 30 22 37 22 7 0 13 4 13 9 0 5 10 11 23 15 l22 6 -23 15 c-23 17 -21 35 4 35 8 0 14 -9 14 -20 0 -22 11 -25 38 -11 34 17 67 30 87 33 14 3 19 11 18 28 -2 35 5 52 20 47 6 -2 11 -16 10 -31z" fill="#c1bea2" id="c1bea2-000021"/>
    <path stroke="none" d="M1978 4537 c2 -11 -3 -17 -16 -17 -24 0 -32 8 -25 26 7 20 37 13 41 -9z" fill="#c1bea2" id="c1bea2-000004"/>
    <path stroke="none" d="M1910 4500 c-19 -12 -35 3 -26 26 6 17 8 17 24 0 15 -15 15 -18 2 -26z" fill="#c1bea2" id="c1bea2-000006"/>
    <path stroke="none" d="M1810 4455 c0 -8 -7 -15 -15 -15 -8 0 -15 7 -15 15 0 8 7 15 15 15 8 0 15 -7 15 -15z" fill="#c1bea2" id="c1bea2-000011"/>
    <path stroke="none" d="M2448 4452 c2 -7 -3 -12 -12 -12 -9 0 -16 7 -16 16 0 17 22 14 28 -4z" fill="#c1bea2" id="c1bea2-000013"/>
    <path stroke="none" d="M1768 4428 c-6 -18 -28 -21 -28 -4 0 9 7 16 16 16 9 0 14 -5 12 -12z" fill="#c1bea2" id="c1bea2-000016"/>
    <path stroke="none" d="M2520 4390 c0 -5 -4 -10 -10 -10 -5 0 -10 5 -10 10 0 6 5 10 10 10 6 0 10 -4 10 -10z" fill="#c1bea2" id="c1bea2-000025"/>
    <path stroke="none" d="M1380 3610 c0 -60 3 -110 6 -110 7 0 63 58 145 150 l62 70 59 0 c33 0 58 -4 56 -9 -1 -5 -48 -57 -103 -116 -139 -149 -132 -133 -77 -191 86 -91 192 -211 192 -217 0 -4 -29 -7 -64 -7 l-64 0 -59 67 c-80 92 -138 153 -146 153 -4 0 -7 -50 -7 -111 l0 -110 -52 3 -53 3 -3 255 c-1 140 0 260 3 267 3 8 23 13 55 13 l50 0 0 -110z" fill="#c1bea2" id="c1bea2-000028"/>
    <path stroke="none" d="M2120 3680 l0 -39 -117 -3 -118 -3 0 -65 0 -65 118 -3 117 -3 0 -39 0 -40 -120 0 -121 0 3 -72 3 -73 118 -3 117 -3 0 -45 0 -44 -177 2 -178 3 -3 268 -2 267 180 0 180 0 0 -40z" fill="#c1bea2" id="c1bea2-000029"/>
    <path stroke="none" d="M2550 3680 l0 -40 -125 0 -126 0 3 -67 3 -68 112 0 c122 0 136 -6 131 -51 l-3 -29 -123 -3 -123 -3 3 -72 3 -72 123 -3 123 -3 -3 -42 -3 -42 -172 -3 -173 -2 0 270 0 270 175 0 175 0 0 -40z" fill="#c1bea2" id="c1bea2-000030"/>
    <path stroke="none" d="M2922 3691 c94 -60 113 -185 42 -270 -38 -45 -78 -61 -156 -61 l-68 0 0 -91 0 -90 -52 3 -53 3 -3 255 c-1 140 0 260 3 267 3 10 36 13 123 13 113 0 120 -1 164 -29z" fill="#c1bea2" id="c1bea2-000031"/>
    <path stroke="none" d="M1414 2885 c55 -17 103 -45 131 -75 19 -21 18 -21 -17 -57 l-36 -35 -30 28 c-44 42 -108 59 -163 42 -55 -16 -110 -70 -128 -126 -17 -50 -6 -93 35 -148 25 -35 100 -74 139 -74 34 0 112 38 130 63 15 21 15 21 50 -13 41 -40 42 -44 14 -68 -12 -9 -26 -21 -33 -27 -29 -26 -115 -55 -161 -55 -65 0 -151 38 -203 88 -156 152 -82 400 138 461 50 13 79 13 134 -4z" fill="#c1bea2" id="c1bea2-000032"/>
    <path stroke="none" d="M1932 2830 c15 -30 48 -100 74 -155 25 -55 68 -145 95 -201 27 -55 49 -106 49 -112 0 -8 -20 -12 -54 -12 l-54 0 -21 45 c-12 25 -21 49 -21 55 0 7 -46 10 -132 8 l-132 -3 -26 -50 c-25 -49 -26 -50 -78 -53 -62 -4 -64 1 -23 84 27 55 51 105 161 339 55 115 56 117 99 113 32 -3 38 -8 63 -58z" fill="#c1bea2" id="c1bea2-000034"/>
    <path stroke="none" d="M2320 2670 l5 -215 123 -3 122 -3 0 -49 0 -50 -180 0 -180 0 0 263 c0 145 3 267 7 271 4 4 28 6 53 4 l45 -3 5 -215z" fill="#c1bea2" id="c1bea2-000033"/>
    <path stroke="none" d="M2781 2833 c74 -128 90 -159 96 -176 8 -26 33 -17 53 20 9 17 24 43 34 58 10 15 32 52 49 84 16 31 35 59 41 63 19 13 93 9 105 -6 8 -9 11 -88 9 -267 l-3 -254 -50 0 -50 0 -3 163 c-1 89 -6 162 -10 162 -5 0 -16 -15 -25 -32 -9 -18 -28 -52 -42 -75 -14 -24 -36 -62 -49 -85 -13 -24 -30 -44 -38 -46 -9 -2 -26 20 -45 55 -72 137 -98 183 -105 183 -4 0 -9 -73 -10 -162 l-3 -163 -50 0 -50 0 -3 254 c-2 179 1 258 9 267 7 8 31 14 59 14 48 0 48 0 81 -57z" fill="#c1bea2" id="c1bea2-000035"/>
    <path stroke="none" d="M2407 2144 c35 -5 79 -50 89 -91 9 -36 -15 -100 -49 -129 -24 -20 -39 -24 -98 -24 l-69 0 0 123 c0 68 3 126 6 129 5 6 53 2 121 -8z" fill="#c1bea2" id="c1bea2-000036"/>
    <path stroke="none" d="M1944 2027 c31 -61 56 -115 56 -120 0 -4 -12 -7 -26 -7 -17 0 -28 6 -31 19 -6 24 -19 27 -88 23 -42 -3 -54 -8 -58 -23 -3 -13 -14 -19 -31 -19 -14 0 -26 3 -26 8 0 4 17 43 38 87 22 44 45 95 53 113 9 22 21 32 35 32 18 0 33 -21 78 -113z" fill="#c1bea2" id="c1bea2-000037"/>
    <path stroke="none" d="M2097 2120 c3 -11 9 -20 13 -20 4 0 17 -20 30 -45 13 -25 27 -45 32 -45 4 0 8 30 8 66 l0 65 28 -3 27 -3 0 -115 0 -115 -29 0 c-25 0 -35 9 -70 68 -22 37 -44 67 -48 67 -4 0 -8 -31 -8 -70 0 -68 -1 -70 -25 -70 l-25 0 0 120 0 120 31 0 c22 0 32 -5 36 -20z" fill="#c1bea2" id="c1bea2-000038"/>
    <path stroke="none" d="M523 1660 c43 -21 97 -63 97 -76 0 -11 -52 -64 -63 -64 -4 0 -28 14 -52 30 -37 26 -53 30 -108 30 -58 0 -67 -3 -105 -36 -107 -91 -91 -221 35 -291 30 -17 117 -16 151 1 15 8 36 23 46 35 11 12 22 21 26 21 12 0 70 -57 70 -67 0 -15 -40 -48 -93 -77 -95 -52 -245 -29 -329 51 -105 100 -106 283 -2 387 56 56 107 75 202 76 63 0 92 -5 125 -20z" fill="#c1bea2" id="c1bea2-000039"/>
    <path stroke="none" d="M780 1504 c0 -185 3 -202 49 -241 19 -17 39 -23 73 -23 66 0 94 16 118 66 18 39 20 63 20 209 l0 165 50 0 50 0 0 -184 c0 -171 -2 -187 -22 -227 -48 -93 -107 -129 -210 -129 -79 0 -130 22 -178 76 -49 57 -54 78 -58 277 l-4 187 56 0 56 0 0 -176z" fill="#c1bea2" id="c1bea2-000040"/>
    <path stroke="none" d="M1519 1658 c47 -25 51 -39 16 -73 -25 -26 -59 -33 -70 -15 -3 6 -30 10 -59 10 -66 0 -96 -25 -78 -64 10 -22 31 -35 112 -68 53 -22 68 -30 91 -51 36 -33 49 -62 49 -107 0 -56 -32 -105 -88 -137 -28 -16 -162 -17 -199 -1 -38 16 -83 48 -83 58 0 4 14 23 30 41 l31 32 38 -21 c47 -27 122 -29 146 -6 9 9 15 28 13 42 -3 25 -31 45 -105 73 -102 39 -143 86 -143 161 0 52 28 101 72 128 48 29 171 28 227 -2z" fill="#c1bea2" id="c1bea2-000041"/>
    <path stroke="none" d="M2020 1630 l0 -50 -70 0 -70 0 -2 -217 -3 -218 -55 0 -55 0 -3 218 -2 217 -70 0 -70 0 0 50 0 50 200 0 200 0 0 -50z" fill="#c1bea2" id="c1bea2-000042"/>
    <path stroke="none" d="M2452 1651 c165 -90 196 -304 62 -433 -59 -58 -111 -78 -199 -78 -80 0 -138 23 -198 78 -103 97 -104 283 -1 386 55 55 107 75 201 76 72 0 88 -4 135 -29z" fill="#c1bea2" id="c1bea2-000043"/>
    <path stroke="none" d="M2820 1645 c9 -16 31 -57 50 -90 18 -33 42 -77 53 -97 20 -36 37 -49 37 -28 0 5 32 64 72 130 l72 120 58 0 58 0 0 -271 0 -270 -52 3 -53 3 -3 158 c-3 171 -11 191 -47 115 -11 -23 -24 -46 -30 -52 -6 -6 -21 -32 -35 -58 -40 -76 -48 -85 -64 -68 -8 8 -26 36 -40 63 -66 120 -79 143 -90 156 -8 11 -12 -25 -16 -150 l-5 -164 -52 -3 -53 -3 0 271 0 271 62 -3 c57 -3 63 -5 78 -33z" fill="#c1bea2" id="c1bea2-000044"/>
    <path stroke="none" d="M3668 1646 c6 -45 -9 -51 -131 -51 l-112 0 -3 -67 -3 -68 121 0 120 0 0 -40 0 -40 -120 0 -121 0 3 -72 3 -73 120 -5 120 -5 0 -40 0 -40 -175 0 -175 0 -3 255 c-1 140 0 260 3 268 3 10 43 12 177 10 l173 -3 3 -29z" fill="#c1bea2" id="c1bea2-000045"/>
    <path stroke="none" d="M4023 1668 c60 -34 97 -90 97 -148 0 -35 -25 -85 -56 -109 -28 -22 -30 -34 -9 -51 17 -14 36 -53 57 -115 7 -22 18 -51 25 -64 17 -34 9 -41 -44 -41 -50 0 -72 18 -73 57 0 12 -4 25 -10 28 -5 3 -10 15 -10 26 0 20 -16 54 -37 77 -7 7 -32 14 -55 15 l-43 2 -5 -100 -5 -100 -49 -3 c-32 -2 -52 1 -57 10 -10 15 -12 512 -2 521 12 13 252 8 276 -5z" fill="#c1bea2" id="c1bea2-000046"/>
    <path stroke="none" d="M2578 818 c48 -24 52 -39 17 -73 -25 -26 -59 -33 -70 -15 -3 6 -31 10 -60 10 -47 0 -57 -4 -70 -24 -26 -40 2 -69 105 -107 94 -34 140 -86 140 -159 0 -59 -29 -104 -88 -137 -28 -16 -162 -17 -199 -1 -38 16 -83 48 -83 58 0 4 14 23 30 41 l31 32 38 -21 c46 -26 132 -30 150 -8 7 8 11 27 9 42 -3 28 -26 44 -108 77 -102 40 -140 84 -140 159 0 49 26 98 65 124 54 35 163 36 233 2z" fill="#c1bea2" id="c1bea2-000050"/>
    <path stroke="none" d="M1555 790 l0 -45 -120 -5 -120 -5 0 -55 0 -55 123 -3 122 -3 0 -39 0 -39 -122 -3 -123 -3 -3 -117 -3 -118 -54 0 -55 0 0 263 c0 145 3 267 7 271 4 3 84 5 177 4 l171 -3 0 -45z" fill="#c1bea2" id="c1bea2-000047"/>
    <path stroke="none" d="M1735 570 l0 -265 -55 0 -55 0 -3 255 c-1 140 0 261 3 268 3 9 21 12 57 10 l53 -3 0 -265z" fill="#c1bea2" id="c1bea2-000048"/>
    <path stroke="none" d="M2103 828 c58 -33 97 -90 97 -143 0 -35 -27 -91 -55 -113 -29 -23 -31 -34 -10 -52 17 -14 37 -55 56 -115 7 -22 17 -44 21 -49 4 -6 8 -21 8 -34 0 -22 -3 -23 -52 -20 -49 3 -53 5 -61 33 -5 17 -13 38 -18 47 -5 10 -9 24 -9 31 0 48 -64 102 -113 95 -21 -3 -22 -9 -27 -103 l-5 -100 -55 0 -55 0 -3 255 c-1 140 0 260 3 267 6 18 246 18 278 1z" fill="#c1bea2" id="c1bea2-000049"/>
    <path stroke="none" d="M3080 790 l0 -50 -70 0 -70 0 -2 -217 -3 -218 -55 0 -55 0 -3 218 -2 217 -70 0 -70 0 0 50 0 50 200 0 200 0 0 -50z" fill="#c1bea2" id="c1bea2-000051"/>
    <path stroke="none" d="M2080 4590 c0 -5 5 -10 10 -10 6 0 10 5 10 10 0 6 -4 10 -10 10 -5 0 -10 -4 -10 -10z" fill="#c10c06" id="c10c06-000002"/>
    <path stroke="none" d="M2337 4484 c-13 -13 -7 -24 14 -24 11 0 19 5 17 12 -5 14 -22 21 -31 12z" fill="#c1bea2" id="c1bea2-000007"/>
    <path stroke="none" d="M2100 4290 c0 -5 5 -10 10 -10 6 0 10 5 10 10 0 6 -4 10 -10 10 -5 0 -10 -4 -10 -10z" fill="#c10c06" id="c10c06-000011"/>
    <path stroke="none" d="M2186 4254 c-4 -10 -13 -13 -27 -9 -18 6 -20 3 -17 -22 4 -37 45 -57 97 -48 41 7 69 40 58 69 -8 19 -53 21 -61 4 -3 -9 -8 -8 -16 5 -14 21 -26 22 -34 1z" fill="#c10c06" id="c10c06-000015"/>
    <path stroke="none" d="M1660 4245 c0 -8 5 -15 10 -15 6 0 10 7 10 15 0 8 -4 15 -10 15 -5 0 -10 -7 -10 -15z" fill="#c10c06" id="c10c06-000013"/>
    <path stroke="none" d="M1817 4242 c-10 -10 -17 -24 -17 -30 0 -7 -4 -12 -10 -12 -5 0 -10 5 -10 10 0 6 -19 10 -41 10 l-41 0 18 -27 c26 -41 45 -52 85 -53 62 0 105 73 62 106 -24 18 -27 17 -46 -4z" fill="#c10c06" id="c10c06-000014"/>
    <path stroke="none" d="M2540 4246 c0 -8 5 -18 10 -21 6 -3 10 3 10 14 0 12 -4 21 -10 21 -5 0 -10 -6 -10 -14z" fill="#c10c06" id="c10c06-000016"/>
    <path stroke="none" d="M2100 4120 c0 -33 11 -38 30 -15 10 12 10 18 0 30 -19 23 -30 18 -30 -15z" fill="#c10c06" id="c10c06-000018"/>
    <path stroke="none" d="M1885 4120 c-23 -26 -11 -53 27 -58 33 -4 66 32 52 56 -16 25 -57 26 -79 2z" fill="#c10c06" id="c10c06-000019"/>
    <path stroke="none" d="M2020 4130 c0 -5 5 -10 10 -10 6 0 10 5 10 10 0 6 -4 10 -10 10 -5 0 -10 -4 -10 -10z" fill="#c10c06" id="c10c06-000020"/>
    <path stroke="none" d="M2180 4130 c0 -5 7 -10 15 -10 8 0 15 5 15 10 0 6 -7 10 -15 10 -8 0 -15 -4 -15 -10z" fill="#c10c06" id="c10c06-000021"/>
    <path stroke="none" d="M2267 4133 c-11 -11 -8 -48 5 -61 24 -24 88 -6 88 26 0 28 -73 56 -93 35z" fill="#c10c06" id="c10c06-000022"/>
    <path stroke="none" d="M1780 4090 c0 -5 7 -10 15 -10 8 0 15 5 15 10 0 6 -7 10 -15 10 -8 0 -15 -4 -15 -10z" fill="#c10c06" id="c10c06-000023"/>
    <path stroke="none" d="M2020 4085 c0 -8 5 -15 10 -15 6 0 10 7 10 15 0 8 -4 15 -10 15 -5 0 -10 -7 -10 -15z" fill="#c10c06" id="c10c06-000024"/>
    <path stroke="none" d="M2180 4085 c0 -8 5 -15 10 -15 6 0 10 7 10 15 0 8 -4 15 -10 15 -5 0 -10 -7 -10 -15z" fill="#c10c06" id="c10c06-000025"/>
    <path stroke="none" d="M2400 4090 c0 -5 6 -10 14 -10 8 0 18 5 21 10 3 6 -3 10 -14 10 -12 0 -21 -4 -21 -10z" fill="#c10c06" id="c10c06-000026"/>
    <path stroke="none" d="M2480 4060 c0 -11 5 -20 10 -20 6 0 10 9 10 20 0 11 -4 20 -10 20 -5 0 -10 -9 -10 -20z" fill="#c10c06" id="c10c06-000028"/>
    <path stroke="none" d="M1720 4055 c0 -8 5 -15 10 -15 6 0 10 7 10 15 0 8 -4 15 -10 15 -5 0 -10 -7 -10 -15z" fill="#c10c06" id="c10c06-000027"/>
    <path stroke="none" d="M1800 4050 c0 -5 7 -10 16 -10 8 0 12 5 9 10 -3 6 -10 10 -16 10 -5 0 -9 -4 -9 -10z" fill="#c10c06" id="c10c06-000029"/>
    <path stroke="none" d="M2390 4050 c0 -5 7 -10 15 -10 8 0 15 5 15 10 0 6 -7 10 -15 10 -8 0 -15 -4 -15 -10z" fill="#c10c06" id="c10c06-000030"/>
    <path stroke="none" d="M1945 4030 c-4 -7 55 -10 170 -10 115 0 174 3 170 10 -4 6 -72 10 -170 10 -98 0 -166 -4 -170 -10z" fill="#c10c06" id="c10c06-000031"/>
    <path stroke="none" d="M1850 4010 c0 -13 50 -13 70 0 11 7 4 10 -27 10 -24 0 -43 -4 -43 -10z" fill="#c10c06" id="c10c06-000032"/>
    <path stroke="none" d="M2320 4010 c0 -5 14 -10 30 -10 17 0 30 5 30 10 0 6 -13 10 -30 10 -16 0 -30 -4 -30 -10z" fill="#c10c06" id="c10c06-000033"/>
    <path stroke="none" d="M2740 3540 l0 -100 39 0 c72 0 120 40 121 101 0 54 -56 99 -124 99 l-36 0 0 -100z" fill="#c10c06" id="c10c06-000035"/>
    <path stroke="none" d="M1853 2708 c-9 -13 -12 -21 -47 -100 -25 -56 -23 -58 59 -58 54 0 75 4 75 13 0 7 -13 39 -30 72 -16 33 -30 66 -30 73 0 6 -4 12 -9 12 -5 0 -13 -6 -18 -12z" fill="#c10c06" id="c10c06-000036"/>
    <path stroke="none" d="M2343 2103 c-9 -3 -13 -29 -13 -79 0 -87 12 -99 69 -68 31 16 36 25 39 60 2 28 -3 47 -15 61 -19 22 -59 34 -80 26z" fill="#c10c06" id="c10c06-000037"/>
    <path stroke="none" d="M1852 2040 c-18 -29 -15 -37 13 -42 32 -7 38 2 22 36 -14 31 -18 32 -35 6z" fill="#c10c06" id="c10c06-000038"/>
    <path stroke="none" d="M2220 1555 c-41 -29 -79 -97 -80 -141 0 -62 45 -131 107 -163 29 -15 118 -14 146 2 98 54 127 178 61 264 -35 46 -73 63 -141 63 -45 -1 -66 -7 -93 -25z" fill="#c10c06" id="c10c06-000040"/>
    <path stroke="none" d="M3860 1520 l0 -80 53 0 c71 1 92 18 92 76 0 59 -29 83 -97 84 l-48 0 0 -80z" fill="#c10c06" id="c10c06-000039"/>
    <path stroke="none" d="M1940 680 l0 -80 53 0 c62 1 83 14 92 61 5 30 2 41 -20 67 -23 28 -33 32 -76 32 l-49 0 0 -80z" fill="#c10c06" id="c10c06-000041"/>
  </g>
</svg>
