<?xml version="1.0" standalone="no"?>
<!DOCTYPE svg PUBLIC "-//W3C//DTD SVG 1.1//EN"
 "http://www.w3.org/Graphics/SVG/1.1/DTD/svg11.dtd">
<!-- Created with svg_stack (http://github.com/astraw/svg_stack) -->
<svg xmlns:sodipodi="http://sodipodi.sourceforge.net/DTD/sodipodi-0.dtd" xmlns="http://www.w3.org/2000/svg" version="1.1" width="1358.0" height="1924.0">
  <defs/>
  <g id="id0:id0" transform="matrix(1.25,0,0,1.25,0.0,0.0)"><g transform="translate(0.000000,1539.200000) scale(0.040000,-0.040000)" fill="#d7a583" stroke="none">
<path d="M15022 27957 c-44 -46 -41 -82 12 -144 30 -36 84 -31 124 10 18 18 32 40 32 48 0 19 -101 119 -121 119 -8 0 -29 -15 -47 -33z"/>
<path d="M820 16331 c-71 -10 -125 -34 -140 -61 -11 -21 -6 -68 11 -100 4 -8 23 -49 43 -90 43 -93 163 -313 241 -440 127 -209 274 -487 372 -705 172 -382 211 -477 383 -950 317 -870 482 -1311 557 -1495 106 -259 191 -466 248 -605 136 -334 284 -766 389 -1135 157 -559 294 -1099 417 -1645 11 -49 27 -118 34 -152 56 -240 141 -665 240 -1205 20 -111 39 -279 65 -578 11 -129 29 -332 40 -450 30 -339 50 -566 61 -685 5 -60 18 -189 29 -285 12 -96 25 -218 30 -270 6 -52 15 -120 20 -150 6 -30 14 -100 20 -155 55 -568 60 -605 91 -810 64 -423 168 -822 266 -1021 53 -109 145 -219 314 -375 190 -176 433 -378 457 -379 8 0 12 19 12 63 0 112 -40 673 -70 972 -5 55 -19 195 -30 310 -52 533 -73 718 -129 1105 -33 228 -67 471 -75 540 -194 1563 -184 1496 -371 2620 -119 719 -120 722 -275 1500 -180 903 -281 1363 -371 1699 -11 42 -26 99 -34 126 -102 390 -189 677 -360 1185 -204 605 -248 732 -405 1155 -67 182 -162 443 -210 580 -49 138 -114 315 -145 395 -102 257 -116 320 -70 320 36 0 116 -138 194 -337 21 -54 141 -379 266 -723 274 -755 260 -715 488 -1370 68 -197 192 -577 252 -775 115 -379 339 -1348 455 -1965 28 -151 71 -378 95 -505 44 -233 101 -558 176 -1010 22 -137 63 -380 90 -540 51 -302 54 -325 119 -762 72 -496 81 -556 95 -667 47 -373 97 -774 115 -921 21 -171 33 -253 89 -615 37 -236 56 -373 76 -545 8 -71 31 -240 50 -375 52 -373 74 -552 85 -700 6 -74 15 -198 20 -275 6 -77 15 -189 20 -250 6 -60 15 -168 21 -240 7 -71 17 -136 23 -144 24 -30 276 -211 371 -266 55 -31 111 -65 125 -75 80 -55 336 -201 400 -228 132 -55 302 -123 416 -167 61 -23 116 -45 122 -48 5 -4 17 -4 26 -1 14 5 16 39 16 278 0 252 -16 730 -40 1181 -6 105 -15 276 -20 380 -6 105 -17 260 -25 345 -8 85 -28 292 -44 460 -17 168 -39 427 -51 575 -91 1193 -94 1225 -166 1845 -13 118 -35 314 -49 435 -69 618 -112 932 -235 1710 -5 33 -19 123 -30 200 -11 77 -30 194 -40 260 -11 66 -33 206 -50 310 -62 383 -234 1216 -309 1492 -16 59 -44 162 -61 228 -93 352 -328 1139 -490 1640 -81 250 -148 463 -189 600 -16 55 -66 206 -110 335 -44 129 -81 245 -81 258 0 30 24 38 55 18 33 -22 113 -188 164 -341 36 -109 222 -692 356 -1120 194 -616 431 -1421 511 -1735 91 -359 268 -1306 344 -1845 12 -82 30 -211 40 -285 33 -228 100 -721 110 -800 5 -41 18 -147 29 -235 65 -512 146 -1202 170 -1445 6 -58 20 -195 31 -305 35 -357 74 -820 105 -1245 16 -215 38 -451 75 -780 18 -162 31 -307 45 -505 3 -44 14 -170 25 -280 39 -417 50 -581 60 -935 10 -356 27 -703 35 -746 4 -18 34 -32 172 -82 93 -33 242 -83 333 -112 255 -80 413 -130 440 -140 174 -61 496 -150 545 -150 16 0 100 -18 185 -40 85 -22 157 -40 161 -40 23 0 48 466 69 1285 13 497 13 741 0 1195 -6 201 -15 703 -20 1115 -10 740 -30 1330 -70 2025 -30 525 -38 641 -71 1015 -16 187 -38 444 -49 570 -19 225 -50 564 -70 761 -16 151 -78 633 -100 774 -95 599 -118 718 -261 1335 -55 237 -109 471 -120 520 -21 89 -76 309 -184 730 -31 121 -74 294 -95 385 -21 91 -60 248 -88 350 -67 243 -79 307 -65 321 49 49 132 -142 228 -522 25 -101 102 -406 171 -677 68 -272 133 -531 143 -575 10 -45 59 -253 109 -462 147 -616 221 -977 261 -1265 41 -291 101 -787 130 -1075 22 -205 27 -268 61 -725 11 -146 25 -321 30 -390 6 -69 17 -228 25 -355 8 -126 19 -293 25 -370 5 -77 15 -234 20 -350 6 -115 15 -291 20 -391 25 -451 60 -1641 60 -2029 0 -126 5 -336 10 -465 11 -254 28 -899 37 -1390 3 -204 0 -431 -11 -686 -9 -209 -16 -455 -16 -546 l0 -166 28 -10 c37 -16 603 -187 677 -206 33 -8 87 -20 120 -25 33 -6 170 -33 305 -61 135 -28 405 -78 600 -110 288 -49 357 -57 367 -47 14 13 46 288 58 487 3 58 12 200 20 315 14 201 25 388 46 795 5 102 14 482 18 845 5 363 15 883 21 1155 20 796 5 2230 -29 2870 -6 107 -15 296 -21 420 -23 513 -30 657 -45 890 -21 339 -58 724 -111 1150 -41 333 -96 662 -194 1175 -39 204 -82 431 -96 505 -14 74 -45 225 -69 335 -73 330 -142 661 -170 810 -15 77 -48 228 -75 335 -59 239 -68 301 -46 319 23 19 35 6 72 -75 49 -105 78 -219 188 -734 19 -91 65 -304 101 -475 86 -401 270 -1317 295 -1465 11 -63 35 -207 55 -320 44 -259 73 -470 90 -680 70 -824 82 -995 100 -1445 8 -198 19 -460 25 -582 29 -621 46 -2434 30 -3118 -7 -286 -14 -770 -15 -1075 -6 -967 -15 -1469 -30 -1670 -48 -643 -55 -781 -42 -797 5 -7 20 -13 33 -13 13 0 81 -9 151 -20 490 -75 954 -128 1358 -155 179 -12 646 -46 735 -54 66 -6 99 -5 107 3 24 22 35 1750 43 6836 6 3281 13 5152 19 5236 11 138 23 188 44 182 21 -8 35 -69 46 -218 29 -355 33 -986 38 -5227 5 -4131 2 -4875 -24 -6439 l-6 -372 19 -6 c41 -12 1427 -10 1644 2 598 35 834 53 841 63 10 16 -4 201 -46 629 -8 80 -21 215 -29 300 -8 85 -20 268 -26 405 -6 138 -15 336 -20 440 -5 105 -14 327 -20 495 -16 477 -29 818 -45 1165 -41 889 -54 1438 -61 2515 -8 1112 4 1715 46 2430 25 416 32 512 46 640 22 212 71 558 125 890 27 168 61 377 75 465 57 352 252 1454 279 1580 31 135 70 247 96 271 17 15 22 16 34 3 16 -16 10 -59 -50 -354 -19 -93 -44 -235 -55 -315 -19 -131 -55 -342 -111 -655 -130 -722 -246 -1523 -295 -2030 -52 -550 -73 -942 -84 -1590 -32 -1904 -20 -2654 65 -4145 8 -140 19 -410 25 -600 6 -190 20 -464 30 -610 40 -544 62 -822 86 -1085 14 -148 29 -322 35 -385 14 -163 46 -402 59 -435 l11 -28 112 7 c62 4 186 16 277 26 91 11 246 26 345 35 476 41 510 47 843 145 92 28 177 54 190 60 l22 10 0 136 c0 75 -7 317 -16 538 -11 270 -14 494 -10 686 11 519 25 1032 36 1270 5 129 10 366 10 525 0 160 5 421 10 580 5 160 16 497 25 750 8 253 17 494 20 535 8 114 23 384 45 825 20 406 41 743 60 960 6 66 21 269 35 450 23 306 51 600 75 805 111 915 108 897 216 1415 119 572 583 2454 665 2698 29 86 68 162 96 189 21 19 25 20 38 7 18 -18 11 -53 -55 -291 -39 -139 -58 -213 -139 -543 -21 -88 -84 -338 -139 -555 -55 -217 -109 -435 -121 -485 -11 -49 -61 -265 -110 -480 -96 -418 -145 -651 -185 -890 -102 -603 -152 -1001 -216 -1720 -111 -1257 -115 -1309 -150 -1985 -42 -826 -58 -1361 -65 -2145 -3 -335 -10 -740 -16 -900 -13 -339 -6 -1117 16 -1735 16 -449 29 -590 52 -590 8 0 76 17 151 39 212 60 312 86 507 135 176 44 284 77 630 190 94 31 229 75 302 98 114 36 133 45 142 67 9 25 21 269 41 896 10 292 15 372 50 740 11 110 26 292 35 405 15 197 24 290 65 670 26 240 38 371 50 535 32 450 41 563 45 590 2 17 11 116 20 220 8 105 20 231 25 280 6 50 26 250 45 445 37 368 40 402 131 1140 72 596 76 621 184 1400 51 374 123 827 165 1050 13 69 36 188 50 265 83 443 114 593 170 815 37 147 183 657 263 920 28 91 77 255 111 365 107 358 395 1270 482 1530 67 198 136 344 176 371 25 16 27 16 40 -2 7 -10 13 -20 13 -23 0 -3 -39 -118 -86 -256 -47 -137 -108 -324 -134 -415 -27 -91 -81 -264 -120 -385 -188 -579 -233 -728 -429 -1400 -144 -495 -263 -976 -346 -1399 -114 -581 -126 -650 -210 -1206 -19 -129 -40 -262 -45 -295 -14 -83 -75 -489 -100 -665 -24 -167 -97 -743 -135 -1065 -56 -474 -65 -557 -85 -750 -11 -110 -23 -213 -25 -230 -6 -36 -30 -331 -50 -615 -8 -113 -22 -288 -30 -390 -8 -102 -20 -248 -25 -325 -13 -168 -43 -491 -70 -745 -55 -521 -131 -2274 -104 -2378 5 -16 14 -22 33 -22 57 0 317 90 631 220 257 105 341 150 620 327 52 33 128 79 168 103 129 74 128 72 146 240 9 80 18 179 21 220 53 747 61 837 84 995 40 266 70 490 116 875 9 74 25 194 36 265 84 553 103 693 145 1050 29 254 88 689 154 1135 17 113 39 266 50 340 11 74 46 299 79 500 34 201 70 424 81 495 35 217 154 902 196 1125 14 74 34 182 44 240 126 695 148 804 304 1480 148 641 227 905 524 1755 44 127 106 304 137 395 59 172 431 1206 517 1440 87 234 185 420 222 420 7 0 19 -7 26 -15 15 -18 6 -47 -102 -325 -44 -113 -99 -263 -123 -335 -41 -124 -118 -339 -275 -765 -83 -223 -93 -253 -305 -875 -280 -825 -366 -1128 -600 -2110 -26 -110 -119 -574 -200 -1000 -20 -104 -70 -357 -111 -562 -78 -390 -193 -1060 -270 -1568 -25 -165 -54 -354 -64 -420 -61 -398 -81 -551 -170 -1280 -59 -485 -72 -583 -164 -1220 -35 -241 -109 -980 -141 -1415 -9 -107 -22 -274 -30 -370 -12 -145 -22 -409 -16 -457 0 -7 6 -13 11 -13 10 0 126 86 254 189 38 31 83 67 100 81 202 159 466 417 528 515 92 145 155 326 229 655 70 312 105 544 154 1035 19 193 39 375 45 405 13 78 75 661 100 945 70 798 109 1229 120 1314 16 120 140 766 224 1161 122 578 389 1644 517 2065 136 448 261 804 404 1150 234 566 326 806 720 1880 229 624 321 849 499 1219 99 205 174 344 333 609 127 213 253 458 253 493 0 32 -43 79 -91 98 -98 40 -481 59 -592 30 -124 -32 -181 -71 -337 -231 -80 -81 -177 -186 -215 -233 -168 -202 -275 -292 -458 -384 -99 -49 -170 -56 -592 -56 -448 -1 -635 -22 -830 -95 -187 -70 -272 -141 -450 -376 -22 -29 -78 -93 -125 -143 -220 -236 -366 -341 -521 -376 -35 -8 -297 -17 -744 -26 -808 -17 -887 -23 -1057 -88 -125 -47 -189 -93 -406 -291 -339 -309 -429 -374 -582 -420 -138 -40 -483 -23 -706 36 -279 74 -347 91 -488 119 -301 61 -417 71 -585 49 -102 -12 -209 -52 -314 -116 -105 -65 -273 -171 -382 -243 -382 -250 -499 -308 -714 -354 -132 -29 -290 -14 -463 44 -109 37 -179 72 -293 148 -89 59 -118 82 -253 194 -96 81 -148 101 -242 96 -102 -6 -197 -49 -385 -176 -73 -49 -379 -197 -492 -238 -103 -37 -262 -77 -351 -88 -113 -14 -264 -8 -332 14 -103 33 -345 156 -500 254 -49 31 -257 179 -329 234 -62 47 -170 100 -244 119 -109 28 -377 7 -560 -43 -78 -22 -226 -78 -292 -111 -189 -96 -476 -147 -835 -148 -204 0 -218 1 -265 23 -141 65 -234 147 -577 514 -89 96 -119 121 -180 152 -172 86 -381 95 -763 31 -167 -28 -409 -85 -483 -114 -92 -36 -188 -53 -411 -71 -258 -21 -407 14 -576 136 -69 50 -147 117 -347 299 -163 149 -211 188 -286 233 -175 107 -419 142 -984 142 -416 1 -867 17 -942 34 -145 34 -277 127 -497 352 -64 66 -155 169 -202 230 -126 162 -182 206 -432 333 l-161 81 -444 0 c-245 0 -508 5 -585 10 l-140 11 -80 39 c-153 76 -249 160 -458 398 -193 220 -382 362 -579 432 -56 21 -84 24 -253 26 -104 1 -215 -1 -245 -5z"/>
</g>
</g>
  <g id="id1:id1" transform="matrix(1.25,0,0,1.25,0.0,0.0)"><g transform="translate(0.000000,1539.200000) scale(0.040000,-0.040000)" fill="#835e36" stroke="none">
<path d="M11700 37756 c0 -7 7 -19 15 -26 11 -9 12 -16 3 -30 -10 -15 -3 -28 46 -81 58 -65 101 -128 256 -375 107 -171 174 -252 258 -314 83 -61 131 -80 144 -56 5 9 15 16 23 16 31 0 27 24 -8 54 -52 44 -142 167 -231 315 -160 268 -268 392 -411 471 -78 43 -95 48 -95 26z"/>
<path d="M12644 36743 c-12 -2 -25 -12 -28 -21 -3 -9 -10 -24 -17 -32 -8 -12 -2 -37 31 -115 55 -133 56 -135 70 -175 7 -19 16 -44 20 -55 24 -58 115 -321 160 -465 19 -58 37 -109 42 -114 4 -6 8 -20 8 -33 0 -12 4 -32 9 -45 5 -13 14 -41 20 -63 19 -71 52 -179 61 -200 6 -17 25 -90 70 -275 5 -19 14 -53 20 -75 6 -22 16 -59 21 -82 18 -84 28 -129 49 -218 12 -49 25 -106 30 -125 4 -19 13 -60 20 -90 7 -30 16 -73 22 -95 14 -61 26 -116 33 -160 4 -22 10 -49 15 -60 5 -11 11 -42 14 -70 3 -27 10 -75 16 -105 19 -105 30 -176 41 -260 25 -208 29 -241 39 -335 17 -155 28 -352 40 -698 11 -310 4 -741 -20 -1297 -5 -102 -11 -257 -15 -345 -3 -88 -11 -173 -16 -189 -14 -44 -11 -92 7 -107 9 -7 20 -23 25 -36 5 -15 17 -23 32 -23 13 0 32 -9 42 -20 10 -11 21 -20 25 -20 10 0 28 283 19 302 -12 23 -11 85 1 93 6 4 10 75 10 180 0 105 4 176 10 180 6 4 10 115 10 300 0 185 4 296 10 300 13 8 14 542 1 549 -5 4 -9 116 -9 254 0 136 -5 292 -11 347 -24 208 -34 276 -42 281 -5 3 -9 34 -9 69 0 35 -4 67 -10 70 -5 3 -10 39 -10 80 0 41 -4 77 -10 80 -5 3 -10 30 -10 60 0 30 -4 57 -10 60 -5 3 -10 30 -10 60 0 30 -4 57 -10 60 -5 3 -10 30 -10 59 0 28 -4 56 -9 62 -5 5 -12 41 -15 79 -5 68 -41 268 -70 390 -8 33 -26 110 -41 170 -56 233 -52 220 -130 500 -61 224 -166 555 -247 780 -123 345 -239 638 -253 640 -6 1 -20 0 -31 -2z"/>
<path d="M12804 36668 c14 -31 149 -365 156 -388 5 -14 32 -90 60 -170 28 -80 60 -172 71 -205 11 -33 26 -69 34 -82 8 -12 15 -31 15 -42 0 -11 5 -23 10 -26 6 -3 10 -17 10 -30 0 -13 5 -27 10 -30 6 -3 10 -21 10 -40 0 -19 5 -37 10 -40 6 -3 10 -17 10 -29 0 -13 31 -138 69 -277 38 -140 72 -269 76 -286 4 -18 14 -37 23 -42 12 -7 15 -21 13 -54 -1 -25 2 -48 8 -51 6 -4 8 -13 5 -20 -7 -19 55 -258 72 -277 8 -8 14 -34 14 -57 0 -22 5 -44 10 -47 6 -3 10 -21 10 -40 0 -19 5 -37 10 -40 6 -3 10 -26 10 -50 0 -25 5 -45 12 -47 8 -3 11 -21 9 -50 -1 -25 2 -49 8 -53 6 -3 11 -26 11 -50 0 -24 5 -47 10 -50 6 -3 10 -30 10 -60 0 -30 5 -57 10 -60 6 -3 10 -30 10 -60 0 -30 5 -57 10 -60 6 -3 10 -39 10 -80 0 -41 5 -77 10 -80 6 -3 10 -35 10 -70 0 -35 5 -67 10 -70 6 -3 10 -44 10 -90 0 -46 5 -87 10 -90 6 -3 10 -48 10 -100 0 -52 4 -97 10 -100 6 -4 10 -62 10 -140 0 -78 4 -136 10 -140 6 -3 10 -52 10 -112 0 -93 2 -104 16 -99 9 4 23 1 30 -5 8 -6 21 -8 30 -5 15 6 16 24 11 174 -7 170 -19 344 -37 510 -5 50 -14 131 -19 180 -11 96 -29 223 -61 432 -6 41 -14 91 -16 110 -3 19 -9 44 -14 55 -5 11 -11 45 -15 75 -12 109 -17 135 -26 144 -5 6 -9 23 -9 40 0 16 -4 43 -9 60 -5 17 -14 56 -21 86 -6 30 -15 71 -20 90 -5 19 -37 148 -70 285 -34 138 -63 259 -66 270 -13 49 -46 173 -56 205 -5 19 -12 50 -15 68 -3 18 -9 35 -14 38 -5 3 -9 15 -9 26 0 12 -4 35 -10 52 -5 17 -23 78 -40 136 -17 58 -35 113 -40 122 -6 10 -10 25 -10 34 0 14 -89 292 -109 339 -5 11 -15 40 -22 65 -14 49 -35 80 -54 80 -19 0 -42 32 -50 70 -4 19 -12 44 -19 55 -7 11 -17 38 -24 61 -6 22 -23 51 -36 63 -15 14 -22 29 -19 39 9 21 -24 42 -65 42 -24 0 -32 -4 -28 -12z"/>
<path d="M13401 30351 c-1 -14 -11 -35 -23 -48 l-21 -23 19 -40 c29 -61 44 -52 43 28 0 66 -17 139 -18 83z"/>
<path d="M13379 30023 c-1 -18 -2 -38 -3 -45 -1 -6 5 -13 12 -15 15 -6 17 54 2 77 -7 12 -10 7 -11 -17z"/>
<path d="M13417 29914 c-44 -42 -48 -49 -45 -88 2 -33 7 -41 23 -41 17 0 20 -8 23 -50 3 -50 23 -85 49 -85 10 0 13 21 13 88 0 48 3 117 7 155 7 83 -2 86 -70 21z"/>
<path d="M13359 29478 c0 -2 -2 -25 -5 -52 -4 -43 -2 -52 22 -78 17 -17 38 -28 55 -28 30 0 39 25 39 111 0 53 -11 61 -42 32 -17 -15 -19 -15 -36 0 -17 15 -31 21 -33 15z"/>
<path d="M22126 24071 c-7 -11 22 -32 176 -134 65 -43 120 -83 124 -88 3 -6 16 -15 27 -20 12 -5 56 -34 97 -64 41 -30 104 -74 140 -99 36 -24 72 -51 79 -60 7 -9 18 -16 23 -16 6 0 23 -10 38 -22 56 -44 80 -62 166 -119 22 -15 45 -34 53 -43 7 -9 18 -16 24 -16 10 0 54 -35 141 -112 29 -27 57 -48 62 -48 5 0 45 -36 89 -80 44 -44 84 -80 89 -80 6 0 68 -55 138 -122 293 -281 354 -338 363 -338 4 0 39 -28 76 -62 38 -35 95 -85 129 -113 33 -27 84 -71 114 -97 29 -27 57 -48 62 -48 12 0 457 -453 577 -587 48 -54 121 -136 162 -183 41 -47 97 -110 125 -141 27 -31 50 -59 50 -64 0 -4 17 -27 38 -51 58 -67 87 -106 108 -144 10 -19 33 -55 49 -80 17 -25 43 -70 59 -100 16 -30 34 -62 40 -70 7 -8 25 -40 41 -70 16 -30 37 -68 47 -85 9 -16 39 -70 65 -120 26 -49 52 -98 58 -107 35 -60 204 -400 215 -433 7 -22 16 -44 20 -50 3 -5 13 -37 20 -70 7 -33 17 -64 21 -70 4 -5 9 -28 12 -50 3 -22 12 -71 21 -110 9 -38 16 -93 16 -122 0 -28 4 -54 9 -57 4 -3 11 -62 14 -132 3 -72 10 -131 16 -137 8 -8 10 20 6 108 -4 66 -8 129 -11 140 -3 11 -9 56 -14 100 -6 44 -15 101 -20 128 -6 26 -14 66 -18 90 -12 61 -40 150 -75 242 -28 73 -173 368 -217 440 -10 17 -38 68 -63 115 -24 47 -70 130 -102 185 -32 55 -70 123 -84 150 -38 70 -117 195 -177 276 -101 138 -411 491 -676 768 -178 188 -254 257 -503 461 -75 61 -277 241 -457 407 -256 236 -396 363 -453 412 -53 45 -470 350 -513 376 -9 6 -44 30 -77 55 -33 25 -67 50 -76 55 -9 6 -51 35 -94 65 -43 30 -88 62 -100 70 -13 8 -77 52 -143 97 -67 46 -123 79 -126 74z"/>
<path d="M5228 24025 c-20 -14 -40 -25 -44 -25 -4 0 -17 -8 -28 -19 -18 -15 -174 -125 -224 -156 -38 -24 -272 -203 -326 -249 -332 -288 -773 -708 -1150 -1097 -164 -170 -229 -243 -341 -393 -101 -133 -110 -145 -215 -280 -41 -54 -86 -112 -100 -130 -22 -29 -123 -160 -200 -261 -117 -152 -424 -563 -459 -615 -132 -191 -279 -479 -361 -705 -12 -33 -25 -69 -30 -80 -4 -11 -13 -38 -19 -60 -7 -22 -16 -49 -21 -60 -4 -11 -14 -47 -21 -80 -7 -33 -16 -64 -19 -70 -12 -16 -42 -196 -35 -203 13 -13 25 17 25 63 0 30 5 57 10 60 6 3 10 21 10 40 0 19 4 37 10 40 5 3 10 17 10 30 0 13 5 27 10 30 6 3 10 19 10 35 0 16 5 42 11 57 18 44 25 65 38 108 7 22 16 49 21 60 5 11 26 63 45 115 40 103 177 384 200 411 8 8 15 19 15 23 0 5 32 55 70 113 39 58 70 107 70 110 0 3 15 23 33 44 17 21 46 56 62 79 17 22 44 58 60 80 17 22 44 58 60 80 17 22 44 58 60 80 17 22 44 58 60 81 17 22 47 60 68 83 20 24 37 47 37 51 0 4 15 25 33 46 61 73 87 107 87 114 0 4 15 25 33 46 17 21 46 56 62 79 17 23 47 61 68 84 20 24 37 47 37 51 0 7 26 40 103 129 20 24 37 47 37 51 0 4 15 25 33 46 17 21 46 56 62 79 17 23 62 78 100 122 95 108 827 848 839 848 6 0 65 53 133 118 170 163 407 372 483 427 23 17 58 45 79 63 21 17 43 32 48 32 6 0 17 7 24 16 12 14 122 92 170 120 10 6 27 18 37 27 10 10 23 17 29 17 6 0 16 7 24 16 7 8 36 31 66 51 29 19 56 39 59 44 10 16 -11 9 -48 -16z"/>
<path d="M1620 19499 c0 -11 -19 -48 -42 -82 -40 -59 -75 -102 -213 -256 -33 -37 -82 -96 -110 -130 -27 -34 -68 -84 -90 -111 -22 -27 -56 -70 -75 -96 -19 -25 -51 -66 -70 -89 -40 -49 -128 -164 -162 -212 -13 -18 -57 -76 -98 -130 -104 -135 -99 -129 -283 -403 -127 -189 -187 -291 -264 -445 -131 -261 -138 -279 -163 -416 -29 -159 -16 -372 30 -494 24 -63 30 -70 286 -315 152 -146 240 -269 374 -525 331 -629 478 -922 550 -1095 26 -65 91 -217 116 -276 41 -95 208 -535 290 -764 53 -146 113 -314 135 -375 23 -60 49 -132 59 -160 10 -27 26 -70 35 -95 9 -25 43 -117 75 -205 62 -171 128 -339 164 -420 13 -27 33 -80 44 -116 12 -36 55 -144 97 -240 42 -96 92 -214 112 -264 19 -49 39 -99 44 -110 12 -28 74 -201 114 -320 48 -141 108 -341 169 -557 32 -116 46 -165 72 -253 36 -127 138 -517 180 -690 8 -33 19 -73 25 -90 5 -16 21 -77 35 -135 14 -58 34 -141 45 -185 11 -44 24 -96 28 -115 15 -62 50 -213 71 -300 11 -47 24 -107 29 -135 5 -27 15 -72 21 -100 6 -27 15 -72 20 -100 5 -27 20 -106 35 -175 14 -69 30 -152 36 -185 6 -33 14 -80 19 -105 15 -76 39 -213 45 -250 4 -33 33 -226 55 -370 5 -36 14 -99 20 -140 6 -41 14 -104 20 -140 14 -99 29 -248 40 -420 6 -85 15 -202 20 -260 6 -58 15 -166 20 -240 6 -74 13 -151 15 -170 2 -19 6 -57 9 -85 3 -27 15 -138 26 -245 11 -107 24 -235 30 -285 5 -49 14 -139 20 -200 6 -60 15 -146 20 -190 5 -44 14 -134 20 -200 5 -66 15 -163 20 -215 5 -52 14 -156 20 -230 30 -389 53 -568 99 -770 20 -89 65 -251 80 -285 5 -11 24 -58 42 -105 63 -161 161 -338 237 -425 102 -117 353 -372 415 -423 230 -185 943 -666 1177 -794 36 -19 90 -49 121 -66 30 -17 158 -71 285 -120 126 -50 288 -116 359 -147 133 -58 320 -129 384 -145 74 -18 499 -142 581 -169 47 -16 159 -52 250 -81 91 -28 219 -69 285 -90 119 -39 207 -64 360 -101 100 -25 125 -33 255 -80 58 -21 141 -47 185 -59 78 -20 220 -63 340 -101 33 -11 107 -29 165 -40 149 -28 217 -44 370 -85 178 -47 242 -61 380 -84 63 -10 158 -28 210 -40 98 -22 283 -56 380 -70 30 -5 114 -17 185 -29 233 -36 387 -57 520 -70 82 -8 230 -24 485 -51 751 -80 2519 -139 3565 -120 270 5 544 14 610 20 66 6 170 15 231 20 60 6 155 10 210 10 54 0 144 7 199 15 55 9 147 22 205 30 138 19 241 34 315 45 33 5 101 14 150 19 442 52 477 59 730 131 39 11 113 31 165 44 113 30 183 50 395 110 313 90 413 122 508 162 98 42 475 170 615 209 70 19 152 42 182 51 61 18 204 74 355 139 55 24 150 58 210 75 61 18 155 53 210 78 55 24 162 71 239 103 168 70 293 141 623 355 139 90 601 398 673 449 36 25 85 59 110 76 206 143 244 176 395 337 87 92 176 196 200 232 122 188 253 512 295 735 6 33 15 76 20 95 8 34 21 114 40 255 5 39 19 189 30 335 12 146 25 301 30 345 5 44 14 136 20 205 6 69 15 159 20 200 5 41 14 127 20 190 6 63 15 153 20 200 5 47 18 180 30 295 11 116 25 239 30 275 5 36 14 135 20 220 6 85 15 193 20 240 5 47 12 139 15 205 7 146 30 373 55 540 6 39 15 102 21 140 68 485 174 1063 269 1475 12 52 26 113 30 135 11 54 98 401 150 600 23 88 45 176 49 195 5 19 16 64 25 100 10 36 27 101 38 145 27 104 83 311 110 400 11 39 28 99 38 135 143 520 242 804 441 1271 48 113 95 230 105 260 15 47 31 88 89 224 23 55 66 168 112 295 24 69 55 153 68 187 14 34 45 120 70 190 25 70 59 162 75 203 34 90 90 244 160 440 67 190 211 554 318 805 139 328 546 1126 668 1313 79 120 95 151 114 222 15 58 115 156 228 222 215 128 302 325 272 615 -6 64 -16 127 -21 140 -5 14 -9 36 -9 50 0 65 -106 393 -184 573 -55 125 -350 692 -478 918 -11 20 -44 80 -73 132 -48 88 -169 291 -211 355 -12 18 -17 42 -15 67 2 27 -1 38 -8 34 -7 -5 -11 -54 -11 -136 0 -75 -4 -131 -10 -135 -21 -13 -10 -58 20 -84 27 -23 255 -432 494 -885 151 -284 242 -534 314 -857 71 -314 63 -399 -52 -547 -84 -109 -212 -182 -316 -182 -21 0 -82 9 -136 20 -206 42 -529 45 -696 6 -75 -18 -196 -67 -241 -97 -58 -40 -169 -150 -357 -353 -291 -315 -392 -394 -519 -410 -30 -4 -233 -7 -451 -6 -396 0 -553 -8 -665 -36 -95 -24 -284 -93 -357 -131 -117 -61 -251 -193 -463 -457 -163 -203 -207 -250 -273 -289 -139 -84 -234 -95 -867 -107 -638 -12 -1021 -39 -1180 -81 -97 -26 -196 -94 -349 -238 -207 -197 -374 -343 -471 -413 -76 -55 -119 -69 -230 -75 -179 -10 -408 26 -930 146 -290 66 -398 82 -586 82 -180 1 -286 -19 -401 -77 -37 -19 -223 -138 -415 -266 -191 -128 -379 -250 -418 -269 -155 -81 -284 -105 -473 -89 -244 20 -285 38 -563 247 -247 186 -331 235 -410 241 -102 7 -247 -54 -649 -273 -393 -214 -466 -242 -665 -252 -118 -6 -202 12 -385 83 -204 80 -336 156 -575 334 -152 112 -201 142 -292 176 -131 49 -297 49 -578 -2 -184 -33 -260 -54 -436 -125 -103 -41 -213 -74 -370 -112 -291 -71 -282 -70 -402 -57 -261 28 -386 98 -558 312 -209 260 -276 323 -415 392 -38 18 -109 44 -159 57 -79 21 -111 24 -260 23 -205 -2 -341 -22 -665 -99 -401 -96 -592 -126 -805 -128 l-140 -2 -65 32 c-74 36 -210 145 -385 308 -185 172 -322 291 -380 330 -136 90 -529 134 -1215 135 -330 1 -645 15 -740 34 -213 43 -261 79 -505 386 -173 216 -305 348 -417 416 -69 42 -266 116 -403 151 l-100 26 -520 6 c-454 6 -526 9 -564 24 -70 27 -169 116 -380 341 -219 234 -343 357 -397 394 -45 30 -154 80 -214 98 -93 27 -210 38 -390 37 -154 -1 -209 -5 -333 -27 -131 -24 -155 -26 -205 -15 -106 21 -187 79 -273 192 -78 103 -94 157 -84 286 15 201 72 385 210 668 94 193 127 245 291 446 39 48 100 132 135 187 179 281 244 374 325 466 49 55 159 189 244 297 138 174 158 195 179 190 20 -5 22 -3 16 16 -4 14 -2 23 9 27 12 5 16 21 16 71 0 35 4 72 9 81 15 29 24 142 12 142 -6 0 -11 -9 -11 -21z m-398 -3183 c238 -51 444 -193 693 -481 67 -77 160 -174 207 -215 93 -82 224 -164 297 -187 58 -18 428 -32 869 -33 l322 0 103 -51 c260 -131 346 -191 438 -310 216 -277 453 -505 604 -579 142 -70 143 -70 810 -80 330 -5 665 -14 745 -20 377 -29 514 -91 795 -361 225 -216 410 -357 524 -400 95 -35 156 -42 346 -36 207 6 334 25 457 67 174 60 488 125 733 151 126 13 300 6 393 -16 114 -27 236 -104 309 -193 106 -131 231 -265 305 -329 197 -168 257 -201 397 -214 164 -16 438 3 661 46 139 27 198 45 315 100 198 91 366 138 572 160 265 28 353 0 613 -191 278 -204 571 -370 749 -424 67 -21 87 -22 215 -17 147 7 258 27 401 73 159 51 424 178 561 266 199 129 291 169 392 169 75 0 149 -30 214 -88 53 -48 144 -123 173 -143 234 -162 357 -216 575 -255 47 -8 101 -15 121 -15 58 0 219 30 299 57 83 28 236 103 318 158 30 19 56 35 58 35 2 0 77 48 166 106 364 238 414 269 519 318 185 87 392 88 799 6 119 -24 308 -70 425 -104 121 -36 221 -52 402 -66 283 -21 418 12 603 148 75 55 293 245 340 297 42 46 196 173 257 212 32 20 90 50 128 66 175 71 336 85 1117 97 708 10 714 11 847 80 147 76 380 299 546 520 164 218 312 312 581 368 190 40 269 45 694 47 392 2 418 3 476 23 175 61 359 205 544 427 41 50 140 155 220 235 153 154 207 191 310 216 66 16 253 18 410 4 183 -17 260 -50 260 -113 0 -44 -121 -280 -280 -542 -175 -290 -291 -517 -461 -903 -107 -243 -126 -292 -419 -1087 -126 -341 -262 -710 -303 -820 -64 -173 -179 -459 -369 -920 -218 -530 -413 -1159 -637 -2057 -170 -682 -285 -1203 -401 -1818 -86 -454 -80 -405 -150 -1200 -17 -190 -37 -419 -45 -510 -8 -91 -19 -219 -25 -285 -12 -145 -53 -504 -80 -710 -11 -82 -29 -247 -40 -365 -51 -531 -104 -865 -190 -1195 -83 -319 -147 -468 -255 -596 -101 -121 -417 -400 -688 -607 -86 -67 -108 -80 -114 -67 -14 39 35 705 113 1520 40 425 52 520 114 955 47 329 144 1084 240 1865 5 39 25 174 45 300 20 127 45 286 55 355 93 636 198 1246 304 1775 35 176 78 392 95 480 126 658 179 916 271 1300 170 718 280 1092 573 1950 96 281 232 665 302 855 69 190 160 442 201 560 41 118 112 314 158 435 46 121 90 239 96 262 14 47 8 88 -16 97 -44 17 -115 -79 -189 -256 -102 -242 -624 -1708 -887 -2488 -181 -541 -221 -683 -362 -1290 -165 -708 -175 -760 -327 -1592 -10 -60 -28 -159 -40 -220 -90 -494 -304 -1788 -364 -2203 -20 -137 -47 -322 -60 -410 -32 -208 -76 -550 -125 -955 -37 -299 -77 -587 -130 -930 -12 -74 -37 -263 -56 -420 -19 -156 -41 -330 -50 -385 -8 -55 -22 -154 -29 -220 -8 -66 -21 -160 -30 -210 -8 -49 -28 -277 -45 -505 -17 -228 -39 -503 -50 -610 l-19 -195 -27 -20 c-15 -11 -80 -52 -143 -91 -64 -39 -187 -114 -274 -168 -184 -113 -250 -144 -563 -271 -227 -92 -458 -172 -512 -177 l-27 -3 -3 185 c-4 250 28 1080 69 1755 5 94 20 278 34 410 51 506 68 708 130 1530 8 110 22 280 30 378 14 173 21 239 65 637 12 102 28 244 36 315 15 142 35 305 89 730 65 523 73 581 156 1115 10 69 24 159 29 200 6 41 19 129 30 195 10 66 33 210 50 320 90 572 243 1321 362 1770 47 180 186 667 248 875 15 52 51 174 80 270 53 180 68 226 214 680 46 146 101 319 121 385 54 179 116 369 184 568 64 187 71 226 45 247 -25 22 -66 0 -102 -55 -59 -91 -108 -224 -251 -675 -49 -157 -132 -420 -184 -585 -148 -465 -354 -1151 -462 -1530 -138 -488 -154 -560 -301 -1350 -57 -302 -102 -571 -138 -830 -80 -554 -137 -975 -166 -1205 -16 -135 -34 -279 -40 -320 -6 -41 -26 -205 -45 -365 -19 -159 -42 -346 -50 -415 -19 -153 -38 -339 -65 -615 -12 -115 -25 -250 -30 -300 -6 -49 -19 -193 -30 -320 -11 -126 -25 -279 -30 -340 -5 -60 -19 -236 -30 -390 -21 -290 -31 -390 -80 -855 -16 -151 -36 -372 -45 -490 -9 -118 -21 -253 -26 -300 -31 -266 -54 -657 -70 -1175 -6 -209 -14 -416 -18 -460 l-6 -80 -125 -43 c-304 -105 -731 -237 -910 -283 -282 -72 -483 -126 -578 -155 -46 -14 -89 -23 -96 -21 -19 7 -24 76 -41 517 -23 607 -30 1336 -16 1875 7 264 16 795 22 1180 9 666 13 823 39 1415 17 399 63 1167 80 1350 6 58 19 209 30 335 11 127 31 363 45 525 13 162 27 313 30 335 3 22 14 135 25 250 11 116 33 311 49 435 17 124 35 261 41 305 5 44 17 121 25 170 8 50 28 176 45 280 47 293 128 676 245 1170 13 56 64 278 102 440 8 39 40 162 69 275 104 404 175 687 199 795 13 61 45 182 70 270 90 312 101 376 64 395 -63 34 -134 -112 -228 -470 -82 -315 -298 -1173 -370 -1475 -23 -93 -66 -272 -96 -398 -93 -383 -202 -920 -240 -1177 -36 -243 -122 -962 -145 -1215 -46 -497 -104 -1320 -130 -1845 -11 -217 -26 -519 -35 -670 -13 -244 -34 -806 -50 -1350 -3 -102 -10 -426 -15 -720 -5 -294 -14 -650 -20 -790 -19 -474 -28 -1206 -19 -1455 19 -475 24 -806 13 -815 -20 -17 -364 -117 -494 -143 -132 -27 -200 -36 -445 -57 -132 -11 -319 -30 -415 -40 -239 -27 -395 -36 -404 -22 -8 14 -42 264 -56 412 -5 63 -14 162 -20 220 -22 224 -40 446 -60 710 -11 151 -29 388 -40 525 -11 138 -24 403 -30 590 -6 187 -17 459 -25 605 -62 1120 -72 1413 -81 2345 -7 597 9 1973 26 2385 10 250 37 707 45 765 3 22 14 144 25 270 29 331 59 553 200 1485 21 140 54 330 135 783 30 169 62 361 70 425 9 64 36 216 60 337 53 264 59 307 51 339 -14 57 -70 31 -105 -49 -25 -57 -66 -216 -95 -375 -109 -585 -326 -1877 -385 -2295 -71 -496 -84 -640 -126 -1445 -57 -1068 -34 -3558 45 -4890 5 -91 14 -334 20 -540 5 -206 15 -465 20 -575 6 -110 15 -308 20 -440 19 -459 29 -612 64 -955 42 -410 60 -636 52 -648 -3 -5 -70 -12 -148 -16 -79 -4 -237 -14 -353 -21 -416 -29 -878 -38 -1430 -29 l-530 9 0 380 c0 209 6 832 14 1385 11 799 13 1841 8 5090 -8 4994 -14 5342 -89 5394 -52 37 -65 -9 -79 -276 -6 -128 -13 -2134 -19 -5393 -8 -4755 -18 -6558 -38 -6576 -4 -4 -146 4 -317 17 -170 12 -380 28 -465 34 -255 17 -502 40 -725 66 -289 34 -838 114 -847 122 -7 7 3 227 22 477 6 77 17 228 25 335 10 138 16 444 20 1045 3 468 10 1055 17 1305 21 858 10 2650 -22 3420 -48 1151 -51 1201 -125 2070 -26 305 -50 472 -150 1033 -33 182 -200 1019 -264 1317 -27 129 -79 375 -116 545 -130 615 -164 745 -220 842 -35 58 -58 70 -86 42 -26 -26 -22 -60 33 -284 22 -88 70 -311 108 -495 37 -184 85 -409 105 -500 91 -414 275 -1368 340 -1770 31 -184 87 -629 110 -860 9 -91 22 -230 30 -310 18 -180 41 -525 55 -815 5 -121 19 -418 31 -660 11 -242 25 -537 30 -655 16 -370 23 -2088 10 -2580 -7 -245 -16 -742 -21 -1105 -9 -640 -13 -766 -45 -1305 -44 -729 -72 -1051 -95 -1065 -8 -5 -460 68 -705 114 -412 77 -713 144 -885 197 -102 31 -248 75 -325 99 l-140 43 -3 148 c-2 82 4 353 14 603 11 294 14 532 10 675 -3 122 -10 392 -15 601 -5 209 -14 533 -20 720 -6 187 -16 581 -21 875 -16 817 -24 1066 -70 2010 -12 238 -65 1054 -80 1215 -5 61 -17 205 -25 320 -38 541 -68 831 -166 1600 -65 519 -213 1193 -589 2680 -174 689 -192 753 -241 870 -30 74 -83 145 -107 145 -16 0 -42 -30 -42 -48 0 -10 15 -76 34 -147 93 -360 131 -512 191 -755 35 -146 88 -353 115 -460 62 -237 62 -235 264 -1110 65 -280 136 -633 166 -820 57 -356 71 -454 85 -560 8 -63 23 -183 34 -266 30 -230 58 -504 101 -1009 11 -126 33 -385 50 -575 16 -190 35 -415 40 -500 72 -1115 108 -2111 110 -3000 0 -201 5 -495 10 -655 13 -364 13 -786 0 -1300 -18 -719 -40 -1159 -59 -1178 -4 -4 -59 6 -122 23 -63 17 -157 37 -209 46 -135 21 -213 44 -715 204 -66 21 -203 65 -305 98 -203 65 -441 149 -452 160 -11 12 -27 311 -38 707 -10 360 -22 562 -55 895 -8 80 -22 233 -30 340 -28 343 -34 409 -69 737 -20 178 -43 421 -51 540 -39 544 -59 782 -125 1443 -40 406 -50 489 -101 910 -16 135 -38 317 -49 405 -57 475 -153 1188 -231 1720 -47 316 -208 1206 -270 1484 -74 332 -180 706 -486 1706 -78 256 -288 922 -394 1245 -138 426 -226 575 -286 484 l-16 -26 106 -321 c147 -446 422 -1315 506 -1597 248 -841 327 -1130 421 -1554 127 -576 201 -980 314 -1731 15 -93 55 -359 91 -590 61 -404 122 -865 165 -1255 11 -102 33 -304 50 -450 17 -146 35 -305 40 -355 28 -265 40 -393 49 -515 6 -74 18 -220 26 -325 8 -104 29 -363 45 -575 29 -370 37 -464 81 -905 22 -219 43 -534 59 -860 6 -115 14 -291 20 -390 5 -99 14 -359 21 -577 11 -367 8 -502 -9 -512 -8 -4 -176 59 -322 121 -52 22 -113 46 -134 53 -79 26 -185 80 -341 175 -88 54 -208 126 -267 160 -161 94 -378 259 -378 287 0 13 -5 66 -10 118 -13 121 -46 519 -60 720 -10 142 -74 694 -85 730 -5 17 -6 19 -60 445 -19 154 -44 332 -55 395 -34 203 -99 667 -135 970 -95 801 -222 1666 -370 2520 -20 113 -45 264 -55 335 -29 192 -76 451 -205 1140 -36 187 -67 356 -71 375 -38 206 -263 1195 -330 1450 -123 469 -488 1532 -1025 2990 -105 283 -168 417 -227 479 -43 45 -53 49 -76 25 -30 -30 -21 -66 104 -384 40 -102 88 -232 107 -289 36 -110 136 -386 273 -756 90 -239 94 -253 295 -840 270 -793 396 -1229 579 -2000 49 -209 79 -350 227 -1085 162 -809 211 -1075 355 -1955 110 -678 147 -935 254 -1810 33 -269 92 -710 130 -980 119 -841 262 -2414 221 -2439 -16 -11 -417 330 -547 466 -140 145 -208 260 -272 458 -121 374 -192 771 -258 1445 -14 143 -31 305 -39 360 -21 147 -71 606 -94 875 -12 129 -35 388 -51 575 -71 808 -69 793 -159 1275 -61 326 -126 643 -185 905 -154 685 -220 948 -393 1575 -164 595 -282 941 -517 1514 -206 500 -232 564 -299 746 -146 393 -171 461 -219 590 -27 74 -76 209 -109 300 -85 233 -203 551 -239 645 -17 44 -40 103 -50 130 -10 28 -37 93 -60 145 -23 52 -62 140 -85 195 -113 262 -264 553 -422 815 -154 256 -289 519 -300 583 -4 28 -1 37 22 55 31 25 56 30 180 41 144 13 255 12 327 -3z"/>
<path d="M5758 19306 c-78 -27 -110 -49 -189 -128 -55 -55 -99 -138 -99 -186 0 -28 38 -81 72 -102 104 -63 305 41 407 210 15 24 21 52 21 91 0 49 -3 58 -32 86 -28 25 -84 54 -107 53 -3 0 -36 -11 -73 -24z m156 -58 c21 -30 20 -67 -4 -123 -22 -51 -108 -142 -155 -164 -16 -7 -38 -17 -47 -22 -30 -15 -122 -21 -150 -10 -26 10 -28 14 -28 68 0 68 18 103 90 173 52 50 100 80 131 80 10 0 21 5 24 10 3 6 33 10 65 10 49 0 61 -4 74 -22z"/>
<path d="M26120 19090 c0 -73 4 -120 10 -120 6 0 10 47 10 120 0 73 -4 120 -10 120 -6 0 -10 -47 -10 -120z"/>
<path d="M10181 18578 c-80 -47 -164 -135 -200 -211 -45 -95 -39 -148 24 -207 99 -93 366 84 413 273 37 147 -95 228 -237 145z m166 -23 c81 -57 -18 -268 -159 -341 -51 -26 -151 -35 -171 -15 -6 6 -11 35 -11 65 0 101 85 220 196 275 70 34 113 39 145 16z"/>
<path d="M22325 18468 c-58 -34 -84 -111 -62 -184 38 -127 95 -210 187 -272 52 -34 72 -42 109 -42 149 0 175 192 48 358 -45 60 -121 126 -161 142 -36 13 -96 12 -121 -2z m133 -53 c36 -18 132 -120 132 -141 0 -7 9 -29 20 -49 11 -20 20 -42 20 -50 0 -9 6 -24 12 -35 10 -16 10 -24 0 -40 -6 -11 -12 -29 -12 -39 0 -36 -78 -69 -95 -41 -3 6 -16 10 -28 10 -32 0 -127 96 -156 155 -13 28 -27 58 -32 67 -16 31 -11 139 8 160 20 23 88 24 131 3z"/>
<path d="M16703 18345 c-113 -49 -91 -280 40 -422 78 -85 149 -115 209 -90 52 22 78 71 78 148 0 121 -43 212 -144 307 -77 72 -119 85 -183 57z m115 -51 c36 -17 112 -100 112 -121 0 -8 9 -26 20 -41 10 -15 21 -39 23 -54 1 -15 6 -30 10 -34 11 -11 8 -102 -3 -109 -6 -4 -8 -10 -6 -14 3 -4 -2 -17 -10 -29 -18 -26 -66 -29 -110 -8 -68 34 -164 173 -164 236 0 16 -4 32 -10 35 -14 9 -12 71 3 98 34 61 72 73 135 41z"/>
<path d="M3392 17865 c-137 -53 -256 -179 -269 -283 -7 -63 14 -105 67 -132 49 -25 81 -25 148 -1 240 88 369 349 209 422 -54 24 -78 23 -155 -6z m161 -52 c19 -18 24 -97 7 -108 -5 -3 -10 -13 -10 -22 0 -40 -144 -173 -187 -173 -11 0 -25 -6 -31 -12 -17 -17 -125 -16 -146 1 -18 15 -23 106 -6 116 6 3 10 15 10 25 0 25 110 135 157 155 66 29 77 34 98 39 31 7 88 -4 108 -21z"/>
<path d="M7804 17811 c-88 -21 -244 -153 -278 -235 -20 -49 -20 -110 0 -145 52 -88 182 -80 319 20 90 66 164 178 165 249 0 38 -36 90 -75 106 -37 15 -81 17 -131 5z m137 -58 c23 -27 15 -113 -14 -160 -29 -45 -101 -112 -143 -132 -16 -7 -36 -17 -45 -21 -49 -25 -99 -30 -134 -16 -69 29 -69 103 0 198 35 47 141 128 169 128 8 0 18 5 21 10 3 6 35 10 69 10 47 0 67 -4 77 -17z"/>
<path d="M1184 17594 c-155 -81 -272 -299 -217 -403 56 -106 171 -97 302 25 64 59 112 141 131 222 33 141 -84 226 -216 156z m148 -41 c13 -12 18 -31 18 -74 0 -32 -4 -61 -10 -64 -5 -3 -10 -15 -10 -25 0 -48 -74 -142 -149 -191 -35 -22 -57 -29 -97 -29 -66 0 -79 15 -79 90 0 100 84 230 185 288 44 26 117 28 142 5z"/>
<path d="M12170 17484 c-91 -52 -163 -145 -199 -261 -26 -80 -23 -128 10 -182 71 -117 254 -40 344 146 16 32 32 66 37 75 15 33 9 151 -10 180 -47 71 -106 85 -182 42z m140 -56 c26 -43 25 -95 -2 -174 -54 -158 -218 -276 -283 -204 -22 24 -27 152 -7 172 7 7 12 20 12 31 0 26 74 131 115 164 39 31 64 41 113 42 26 1 36 -5 52 -31z"/>
<path d="M14994 17311 c-32 -14 -72 -68 -85 -114 -24 -91 12 -229 85 -326 60 -80 107 -106 183 -102 35 2 81 57 99 118 18 62 11 117 -28 220 -22 57 -102 173 -120 173 -6 0 -19 6 -27 14 -21 19 -80 28 -107 17z m92 -56 c29 -15 104 -102 104 -121 0 -5 9 -29 20 -52 15 -30 20 -61 20 -117 0 -132 -52 -185 -135 -136 -35 21 -105 109 -105 133 0 9 -4 20 -10 23 -5 3 -10 19 -10 35 0 16 -4 32 -10 35 -5 3 -10 35 -10 71 0 119 55 171 136 129z"/>
<path d="M25736 17289 c-140 -40 -117 -259 43 -420 110 -110 205 -125 268 -42 23 30 27 45 27 102 -2 185 -202 399 -338 360z m69 -49 c3 -5 15 -10 26 -10 24 0 92 -61 128 -114 65 -97 90 -215 55 -264 -12 -18 -25 -22 -67 -22 -43 0 -60 6 -99 35 -51 37 -117 120 -118 146 0 9 -3 19 -7 23 -14 13 -33 82 -33 118 0 48 40 98 80 98 16 0 32 -4 35 -10z"/>
<path d="M5476 17145 c-38 -13 -78 -33 -90 -44 -12 -12 -27 -21 -33 -21 -18 0 -109 -106 -132 -153 -72 -148 49 -263 206 -196 151 65 264 192 266 298 1 61 -21 97 -76 122 -53 24 -58 23 -141 -6z m156 -52 c25 -22 23 -83 -3 -135 -24 -48 -113 -137 -156 -157 -15 -8 -39 -19 -52 -25 -34 -16 -134 -14 -154 3 -24 20 -22 101 3 148 28 52 115 131 175 159 62 29 159 33 187 7z"/>
<path d="M19565 17130 c-11 -4 -33 -22 -50 -40 -28 -29 -30 -37 -29 -103 0 -56 6 -84 26 -127 55 -117 165 -221 247 -235 86 -14 151 47 151 142 0 184 -219 416 -345 363z m112 -61 c70 -39 153 -135 153 -178 0 -11 5 -23 10 -26 6 -3 10 -17 10 -30 0 -13 5 -27 10 -30 13 -8 13 -62 0 -70 -6 -4 -8 -10 -6 -14 3 -4 -2 -17 -10 -29 -19 -27 -76 -30 -123 -6 -39 20 -122 101 -137 134 -6 14 -21 45 -33 68 -26 53 -29 146 -5 180 20 29 80 30 131 1z"/>
<path d="M23213 16629 c-17 -11 -39 -36 -48 -56 -64 -134 124 -411 291 -429 134 -14 187 130 105 283 -62 116 -198 223 -283 223 -18 0 -47 -9 -65 -21z m179 -73 c94 -66 158 -176 158 -273 0 -72 -17 -93 -76 -93 -24 0 -46 5 -49 10 -3 6 -14 10 -24 10 -10 0 -45 26 -79 58 -71 67 -111 142 -118 224 -5 53 -3 60 21 84 24 24 32 26 73 20 29 -4 65 -19 94 -40z"/>
<path d="M9285 16536 c-67 -35 -155 -106 -165 -131 -5 -13 -13 -26 -19 -29 -12 -8 -33 -54 -51 -114 -10 -32 -11 -45 -2 -54 7 -7 12 -19 12 -28 0 -9 11 -27 25 -40 35 -33 151 -33 210 0 80 45 124 81 161 132 58 80 64 95 64 163 0 57 -3 66 -31 94 -28 29 -35 31 -97 30 -48 -1 -78 -7 -107 -23z m184 -22 c26 -22 31 -33 31 -70 0 -63 -35 -130 -102 -196 -71 -71 -148 -108 -222 -108 -44 0 -57 4 -77 26 -19 21 -24 35 -22 75 2 95 93 207 216 269 78 39 133 40 176 4z"/>
<path d="M17770 16223 c-54 -10 -90 -69 -90 -149 0 -29 5 -56 10 -59 6 -3 10 -14 10 -23 -1 -58 160 -252 208 -252 12 0 24 -4 27 -10 9 -15 68 -12 103 5 17 9 38 30 47 47 16 33 21 137 7 166 -5 9 -14 27 -20 39 -7 13 -12 29 -12 36 0 8 -9 22 -20 32 -11 10 -20 23 -20 29 0 16 -99 109 -130 123 -31 14 -87 22 -120 16z m103 -35 c35 -20 106 -89 137 -133 31 -45 70 -153 70 -195 0 -41 -28 -88 -62 -106 -50 -26 -108 -2 -186 74 -64 64 -96 119 -122 215 -11 41 -10 53 4 92 10 25 25 49 34 55 24 14 98 12 125 -2z"/>
<path d="M6565 15448 c-45 -16 -78 -29 -100 -41 -11 -6 -31 -16 -45 -23 -35 -18 -114 -101 -139 -147 -16 -28 -21 -55 -21 -106 0 -59 3 -70 25 -91 22 -20 35 -23 100 -23 61 1 86 6 130 27 30 15 57 32 61 37 3 6 16 14 29 19 25 10 115 122 115 145 0 7 5 17 10 20 6 3 10 28 10 56 0 71 -31 118 -77 119 -12 0 -25 5 -28 10 -7 12 -30 11 -70 -2z m129 -60 c23 -26 27 -37 23 -68 -12 -89 -98 -194 -205 -248 -81 -41 -172 -45 -209 -10 -27 26 -31 89 -8 143 17 41 104 137 151 166 106 65 198 72 248 17z"/>
<path d="M13560 15381 c-82 -43 -130 -151 -130 -291 0 -110 15 -161 62 -215 48 -55 89 -66 145 -39 83 41 132 150 135 296 3 123 -32 204 -106 249 -39 24 -62 24 -106 0z m106 -53 c66 -75 82 -246 33 -340 -5 -10 -9 -24 -9 -33 0 -8 -16 -30 -35 -50 -47 -47 -92 -48 -129 -4 -24 28 -34 50 -40 92 -1 9 -5 20 -9 23 -11 11 -8 142 3 149 6 3 10 19 10 35 0 16 5 32 10 35 6 3 10 15 10 25 0 11 16 35 35 55 43 43 90 48 121 13z"/>
<path d="M20533 15114 c-118 -59 -84 -267 68 -413 52 -49 131 -91 173 -91 42 0 91 32 112 71 26 50 15 148 -25 225 -58 112 -194 224 -271 224 -14 0 -39 -8 -57 -16z m161 -79 c53 -36 99 -91 125 -150 7 -16 17 -38 22 -47 5 -10 9 -44 9 -76 0 -49 -4 -62 -24 -81 -21 -20 -32 -22 -68 -17 -25 4 -64 21 -90 39 -50 36 -118 118 -118 142 0 8 -9 29 -20 47 -28 46 -27 126 2 163 19 24 26 27 65 22 28 -3 62 -18 97 -42z"/>
<path d="M10169 15035 c-144 -53 -279 -218 -279 -342 0 -47 4 -58 34 -91 l35 -37 63 0 c77 1 135 31 218 115 137 138 159 300 47 353 -41 20 -69 20 -118 2z m123 -62 c20 -18 25 -90 9 -121 -5 -9 -17 -34 -26 -55 -30 -68 -131 -162 -184 -170 -11 -2 -24 -6 -27 -10 -15 -15 -91 -7 -107 11 -20 22 -31 67 -22 89 5 10 9 24 11 32 13 66 105 177 179 218 51 27 140 31 167 6z"/>
<path d="M16547 14680 c-68 -60 -71 -171 -9 -300 52 -105 174 -210 244 -210 64 0 128 82 128 163 0 99 -77 252 -162 319 -85 68 -147 76 -201 28z m107 -30 c40 0 108 -55 134 -108 10 -21 24 -48 32 -62 24 -46 28 -56 33 -105 14 -113 -20 -164 -98 -149 -37 7 -145 94 -145 118 0 6 -9 22 -20 36 -11 14 -20 34 -20 46 0 11 -5 25 -12 32 -7 7 -11 42 -10 89 0 68 3 80 23 96 12 10 29 15 36 12 8 -3 29 -5 47 -5z"/>
</g>
</g>
  <g id="id2:id2" transform="matrix(1.25,0,0,1.25,0.0,0.0)"><g transform="translate(0.000000,1539.200000) scale(0.040000,-0.040000)" fill="#c3585f" stroke="none">
<path d="M12975 30393 c-462 -38 -841 -170 -1115 -389 -78 -62 -98 -84 -139 -149 -66 -105 -91 -206 -92 -365 0 -162 50 -322 146 -465 35 -52 148 -166 200 -201 50 -34 144 -74 214 -92 93 -23 465 -23 641 2 134 18 150 21 512 91 615 118 926 132 1288 56 589 -123 1074 -555 1305 -1159 26 -68 44 -126 41 -129 -3 -3 -2 -11 3 -17 14 -17 49 -160 72 -291 39 -229 35 -739 -7 -947 -5 -23 -2 -28 14 -28 28 0 107 165 137 287 13 54 38 195 55 313 28 190 32 240 31 430 -1 534 -132 1020 -394 1463 -54 91 -85 131 -136 176 -184 162 -392 264 -636 312 -175 33 -421 20 -580 -31 -115 -37 -412 -94 -645 -122 -66 -8 -221 -13 -415 -13 -274 1 -325 3 -440 23 -352 61 -523 130 -648 261 -66 69 -81 113 -75 221 6 98 33 156 105 228 73 72 153 112 253 124 41 5 154 20 250 33 96 14 230 28 297 31 67 4 126 10 132 14 11 6 34 317 24 333 -4 7 -314 7 -398 0z"/>
<path d="M13777 30308 c-10 -76 -8 -231 2 -246 5 -9 47 -17 117 -23 397 -35 812 -163 1157 -357 60 -34 85 -43 115 -40 57 5 55 35 -5 92 -51 48 -65 58 -213 159 -231 158 -447 266 -705 354 -105 36 -338 96 -416 107 l-46 7 -6 -53z"/>
<path d="M14363 28854 c-3 -7 -2 -21 1 -31 7 -17 -29 -63 -50 -63 -6 0 -14 -9 -17 -20 -3 -11 -11 -20 -19 -20 -7 0 -18 -10 -23 -22 -6 -13 -19 -27 -30 -32 -19 -8 -65 -88 -65 -113 0 -7 -9 -28 -20 -48 -11 -20 -20 -49 -20 -65 0 -16 -4 -32 -10 -35 -5 -3 -10 -26 -10 -50 0 -24 -4 -47 -10 -50 -6 -4 -10 -53 -10 -115 0 -62 4 -111 10 -115 6 -3 10 -26 10 -50 0 -24 5 -47 10 -50 6 -3 10 -28 10 -55 0 -31 8 -63 20 -85 11 -20 20 -42 20 -50 0 -8 9 -30 20 -50 11 -20 20 -42 20 -50 0 -17 17 -50 41 -80 9 -11 27 -44 40 -72 13 -29 30 -53 36 -53 7 0 21 -19 32 -42 11 -24 34 -56 51 -73 18 -16 36 -40 41 -53 5 -12 20 -27 34 -32 14 -5 25 -16 25 -25 0 -8 7 -15 16 -15 9 0 18 -9 21 -20 3 -11 11 -20 17 -20 7 0 28 -16 47 -36 18 -19 52 -44 75 -54 22 -11 47 -26 54 -35 7 -8 18 -15 25 -15 7 0 18 -7 25 -15 7 -9 32 -25 55 -35 23 -10 48 -26 55 -35 7 -8 20 -15 30 -15 10 0 44 -13 75 -30 31 -16 70 -30 85 -30 16 0 32 -4 35 -10 3 -5 21 -10 40 -10 19 0 37 -4 40 -10 4 -6 80 -10 195 -10 115 0 191 4 195 10 3 6 17 10 30 10 13 0 27 5 30 10 3 6 21 10 39 10 19 0 40 8 49 18 9 10 32 24 51 32 19 7 37 21 39 32 3 12 14 18 31 18 17 0 26 5 26 15 0 23 42 37 56 19 15 -19 50 -18 58 2 12 32 6 62 -14 67 -25 7 -26 27 -1 34 11 3 22 16 25 29 9 36 -3 196 -22 284 -8 41 -16 87 -17 101 -1 14 -4 30 -7 35 -4 5 -18 42 -32 83 -93 267 -224 469 -446 691 -246 247 -460 375 -785 470 -40 12 -163 28 -253 34 -58 4 -74 2 -79 -10z m765 -927 c48 -49 51 -65 18 -96 -35 -33 -93 -26 -117 14 -24 41 -23 74 3 102 30 33 48 29 96 -20z"/>
</g>
</g>
  <g id="id3:id3" transform="matrix(1.25,0,0,1.25,0.0,0.0)"><g transform="translate(0.000000,1539.200000) scale(0.040000,-0.040000)" fill="#e5e5fc" stroke="none">
<path d="M16230 25823 c-108 -214 -263 -453 -404 -625 l-96 -117 -37 16 c-180 75 -421 101 -644 67 -197 -29 -317 -63 -734 -209 -176 -62 -368 -122 -430 -135 -22 -4 -76 -15 -120 -25 -96 -20 -377 -22 -434 -4 -24 8 -84 58 -182 153 -80 78 -165 154 -190 171 -24 16 -68 47 -96 68 -76 54 -243 141 -353 182 -232 87 -414 117 -695 117 -327 0 -556 -42 -957 -174 l-157 -52 -21 19 c-56 51 -214 291 -314 478 -52 96 -61 108 -80 102 -11 -3 -50 -10 -86 -15 -36 -5 -92 -14 -125 -19 -64 -11 -68 -12 -185 -35 -41 -8 -124 -24 -185 -35 -60 -12 -132 -26 -160 -32 -27 -6 -63 -13 -80 -16 -16 -2 -57 -11 -90 -20 -33 -8 -96 -23 -140 -32 -189 -43 -303 -72 -510 -132 -38 -11 -88 -25 -110 -31 -22 -5 -49 -14 -60 -18 -11 -4 -45 -13 -75 -20 -30 -7 -62 -16 -70 -20 -8 -4 -31 -12 -50 -18 -76 -22 -366 -114 -385 -122 -11 -5 -47 -17 -80 -26 -33 -9 -73 -22 -90 -29 -16 -6 -48 -17 -70 -24 -22 -7 -49 -16 -60 -21 -11 -4 -63 -23 -115 -40 -166 -56 -264 -91 -295 -105 -29 -13 -102 -39 -195 -72 -25 -8 -49 -19 -54 -24 -6 -5 -15 -9 -22 -9 -11 0 -378 -150 -494 -202 -283 -128 -586 -281 -795 -402 -55 -32 -120 -70 -145 -84 -177 -100 -685 -439 -796 -531 -18 -14 -57 -46 -89 -71 -74 -58 -222 -186 -305 -264 -36 -34 -140 -128 -230 -211 -416 -377 -828 -806 -1030 -1072 -79 -104 -243 -317 -360 -468 -249 -322 -639 -847 -692 -933 -70 -112 -163 -291 -212 -404 -37 -86 -48 -114 -56 -133 -42 -105 -103 -293 -120 -370 -7 -33 -17 -64 -21 -70 -9 -13 -35 -177 -44 -275 -2 -24 -9 -74 -15 -110 -36 -225 -65 -615 -55 -747 20 -268 182 -457 474 -552 133 -43 301 -17 491 79 224 112 1056 626 1200 742 77 61 204 169 331 279 74 64 211 174 304 244 94 71 233 179 310 240 196 156 257 202 360 271 84 57 362 217 448 258 433 204 760 301 1090 323 198 13 427 -85 457 -197 12 -45 1 -137 -28 -225 -11 -33 -27 -89 -37 -125 -9 -36 -21 -74 -25 -85 -10 -25 -45 -173 -65 -280 -22 -114 -31 -336 -16 -421 15 -86 32 -156 41 -169 4 -5 10 -22 14 -37 9 -38 71 -140 118 -193 86 -98 267 -140 499 -117 102 10 241 38 309 62 161 56 315 124 515 225 245 125 376 193 430 225 17 10 66 37 110 60 44 24 154 84 245 133 470 257 787 395 1050 456 229 53 327 64 555 65 320 0 486 -36 800 -174 477 -211 564 -294 867 -825 187 -328 278 -447 556 -728 256 -259 402 -373 530 -414 26 -8 56 -19 67 -24 66 -30 312 -38 450 -15 143 24 302 77 445 147 44 21 83 39 86 39 11 0 192 115 248 158 92 70 247 223 351 347 121 143 201 217 380 351 293 219 693 404 1045 484 52 12 115 26 140 33 58 15 323 15 375 0 22 -6 81 -19 130 -28 82 -16 220 -53 270 -74 362 -150 519 -238 1015 -570 102 -68 309 -216 460 -330 333 -250 422 -309 1056 -706 370 -232 368 -231 524 -277 76 -22 328 -15 425 11 247 68 340 128 454 295 137 201 141 220 175 751 9 143 21 296 26 340 5 44 14 136 20 205 16 184 35 236 107 300 98 86 194 114 370 108 158 -6 203 -19 453 -130 59 -27 351 -173 415 -208 111 -61 355 -195 425 -233 41 -22 92 -51 112 -64 21 -13 39 -23 42 -23 2 0 59 -32 127 -72 68 -39 140 -80 159 -91 19 -10 55 -31 80 -46 25 -14 57 -33 71 -41 14 -8 99 -60 190 -114 176 -107 397 -220 611 -314 141 -63 262 -112 273 -112 4 0 21 -6 38 -14 18 -8 82 -23 142 -35 127 -23 313 -23 402 1 142 40 336 245 391 416 48 146 87 331 114 547 17 130 17 678 1 755 -7 30 -19 105 -27 165 -8 61 -20 130 -26 155 -6 25 -15 63 -19 85 -24 121 -162 422 -335 734 -25 46 -46 85 -46 87 0 2 -18 33 -40 69 -22 36 -40 67 -40 70 0 3 -18 34 -40 70 -22 36 -40 67 -40 70 0 11 -129 208 -179 273 -118 154 -267 327 -515 596 -246 267 -336 354 -576 554 -129 107 -269 227 -310 266 -42 39 -154 143 -250 231 -96 88 -211 194 -255 235 -170 158 -322 273 -799 609 -339 238 -445 311 -454 311 -3 0 -15 8 -26 18 -50 45 -242 151 -411 227 -33 15 -138 65 -233 111 -96 46 -175 84 -178 84 -2 0 -69 32 -150 70 -80 39 -148 70 -149 70 -2 0 -89 41 -192 90 -103 50 -197 95 -208 99 -11 5 -59 27 -108 50 -48 23 -90 41 -93 41 -3 0 -53 23 -111 50 -58 28 -107 50 -109 50 -2 0 -28 11 -58 25 -30 14 -58 25 -61 25 -3 0 -31 11 -61 25 -30 14 -60 25 -67 25 -7 0 -17 4 -22 9 -23 19 -445 167 -535 186 -19 4 -39 10 -45 14 -5 4 -30 13 -55 20 -25 8 -58 19 -75 26 -16 7 -57 20 -90 29 -33 9 -69 21 -80 26 -26 12 -188 59 -240 70 -22 5 -60 15 -85 23 -25 9 -72 21 -105 28 -33 7 -64 16 -69 21 -6 4 -19 8 -30 8 -11 0 -33 4 -50 9 -50 15 -216 53 -351 80 -27 6 -72 15 -100 20 -27 6 -63 13 -80 15 -16 3 -55 10 -85 16 -30 6 -68 13 -85 16 -16 3 -66 12 -110 20 -44 9 -118 22 -165 30 -47 8 -96 17 -110 20 -14 2 -47 9 -75 14 -27 4 -57 11 -65 14 -8 2 -35 7 -60 11 -25 3 -65 10 -90 15 -25 5 -94 18 -155 29 -60 11 -132 25 -160 30 -27 6 -77 15 -110 21 -33 7 -78 16 -100 20 -39 8 -153 31 -225 44 l-35 7 -95 -188z"/>
<path d="M16090 70 c0 -5 9 -10 20 -10 11 0 20 5 20 10 0 6 -9 10 -20 10 -11 0 -20 -4 -20 -10z"/>
</g>
</g>
  <g id="id4:id4" transform="matrix(1.25,0,0,1.25,0.0,0.0)"><g transform="translate(0.000000,1539.200000) scale(0.040000,-0.040000)" fill="#693d01" stroke="none">
<path d="M11745 38340 c-3 -5 -14 -10 -24 -10 -47 0 -191 -102 -191 -135 0 -7 -9 -20 -20 -30 -11 -10 -20 -28 -20 -41 0 -13 -4 -26 -10 -29 -14 -8 -13 -108 1 -142 39 -95 65 -134 128 -197 65 -64 72 -68 104 -63 29 4 39 1 63 -24 15 -16 33 -29 39 -29 7 0 20 -9 30 -20 11 -12 25 -18 34 -15 15 6 141 -110 141 -130 0 -6 14 -24 30 -40 17 -16 30 -34 30 -41 0 -6 7 -17 15 -24 9 -7 25 -33 35 -56 11 -24 24 -46 30 -49 6 -3 19 -25 30 -49 10 -23 26 -49 35 -56 8 -7 15 -18 15 -25 0 -6 9 -20 20 -30 11 -10 20 -23 20 -30 0 -7 9 -20 20 -30 21 -19 18 -37 -5 -28 -8 3 -15 1 -15 -4 0 -13 61 -69 83 -76 10 -4 16 -11 13 -15 -3 -5 13 -28 35 -50 l40 -42 69 0 c38 0 72 5 75 10 3 6 14 10 24 10 34 0 155 70 203 117 35 34 48 55 48 75 0 16 6 37 12 48 10 16 10 24 0 40 -6 11 -12 26 -12 33 0 28 -30 73 -85 127 -30 30 -55 59 -55 65 0 7 -12 22 -26 36 -14 13 -33 40 -41 59 -9 19 -23 43 -31 52 -19 23 -62 108 -62 124 0 6 -13 38 -30 69 -16 31 -30 62 -30 68 0 7 -34 79 -75 162 -66 133 -83 158 -148 223 -68 67 -186 142 -224 142 -7 0 -28 9 -48 20 -20 11 -44 20 -55 20 -10 0 -22 5 -25 10 -3 6 -46 10 -95 10 -49 0 -92 -4 -95 -10z"/>
<path d="M12160 37130 c0 -5 5 -10 10 -10 6 0 10 5 10 10 0 6 -4 10 -10 10 -5 0 -10 -4 -10 -10z"/>
<path d="M9340 16548 c-101 -43 -134 -64 -182 -117 -72 -78 -98 -130 -98 -196 0 -46 4 -58 31 -84 26 -27 38 -31 83 -31 32 0 68 8 94 20 22 11 45 20 51 20 16 0 129 109 153 148 29 47 48 99 48 135 0 86 -95 141 -180 105z m85 -42 c33 -17 60 -65 45 -80 -5 -5 -10 -20 -10 -31 0 -12 -9 -30 -20 -40 -11 -10 -20 -23 -20 -29 0 -39 -188 -166 -245 -166 -27 0 -75 49 -75 77 0 24 25 76 45 93 8 7 15 17 15 23 0 15 71 87 86 87 6 0 17 7 24 15 16 19 68 45 91 45 10 0 21 5 24 10 8 13 8 13 40 -4z"/>
<path d="M17727 16195 c-38 -39 -46 -140 -17 -210 28 -67 41 -94 55 -105 8 -7 15 -18 15 -24 0 -14 50 -63 99 -96 48 -33 140 -34 173 -3 31 29 54 113 39 142 -6 11 -11 27 -11 36 0 10 -14 47 -32 83 -34 73 -120 164 -177 188 -54 23 -114 18 -144 -11z m116 -27 c32 -18 137 -120 137 -134 0 -6 9 -19 20 -29 11 -10 20 -28 20 -41 0 -13 5 -26 10 -29 6 -3 10 -31 10 -62 0 -69 -18 -93 -69 -93 -32 0 -45 9 -111 78 -80 82 -100 110 -100 141 0 11 -4 23 -10 26 -5 3 -10 27 -10 53 0 36 6 52 27 74 30 31 43 34 76 16z"/>
<path d="M6486 15410 c-32 -16 -69 -38 -81 -50 -12 -11 -25 -20 -31 -21 -13 0 -94 -114 -94 -132 0 -9 -4 -19 -10 -22 -5 -3 -10 -26 -10 -50 0 -35 6 -52 31 -80 29 -33 35 -35 90 -35 33 0 67 4 77 9 9 5 39 19 66 32 57 27 136 96 165 142 11 18 27 54 36 80 14 40 14 53 3 83 -19 53 -55 74 -125 74 -44 -1 -72 -8 -117 -30z m162 -26 c29 -14 32 -20 32 -63 0 -35 -5 -53 -20 -66 -11 -10 -20 -23 -20 -29 0 -14 -71 -86 -86 -86 -6 0 -17 -7 -24 -15 -16 -19 -68 -45 -91 -45 -10 0 -21 -4 -24 -10 -12 -19 -59 -10 -87 17 -34 33 -34 37 -3 99 33 66 108 138 186 179 74 38 94 41 137 19z"/>
</g>
</g>
  <g id="id5:id5" transform="matrix(1.25,0,0,1.25,0.0,0.0)"><g transform="translate(0.000000,1539.200000) scale(0.040000,-0.040000)" fill="#c37c30" stroke="none">
<path d="M12713 36804 c-89 -42 -105 -55 -83 -69 6 -3 10 -15 10 -27 0 -11 9 -37 19 -57 11 -20 29 -61 40 -91 10 -30 27 -73 37 -95 10 -22 23 -58 30 -80 7 -22 26 -78 44 -125 17 -47 54 -155 82 -240 28 -85 54 -159 59 -165 5 -5 9 -19 9 -30 0 -12 3 -25 7 -29 4 -3 19 -52 34 -109 15 -56 37 -136 49 -177 31 -103 99 -356 110 -405 5 -22 16 -61 24 -85 9 -25 16 -54 16 -64 0 -26 40 -197 51 -218 5 -10 9 -29 9 -42 0 -14 7 -51 16 -83 9 -32 20 -78 24 -103 13 -68 40 -193 47 -210 3 -8 6 -26 8 -40 4 -50 36 -236 45 -266 6 -17 10 -46 10 -65 0 -19 7 -63 15 -98 9 -35 15 -80 15 -100 -1 -44 17 -210 25 -229 3 -8 8 -64 11 -126 3 -61 8 -118 11 -126 12 -34 18 -325 17 -825 -1 -595 -11 -926 -40 -1345 -4 -58 -8 -145 -9 -195 -1 -49 -4 -97 -7 -105 -13 -31 -19 -100 -28 -316 -5 -122 -14 -261 -20 -310 -5 -49 -15 -188 -21 -309 -5 -121 -13 -251 -16 -288 -5 -60 -3 -71 16 -91 14 -15 21 -37 23 -72 2 -45 5 -51 35 -67 45 -23 68 -21 128 7 54 25 88 58 126 121 26 44 24 10 48 710 5 154 15 431 22 615 17 481 18 1870 1 1975 -8 44 -13 112 -13 150 1 39 -4 113 -10 165 -6 52 -13 131 -15 175 -2 44 -8 116 -13 160 -5 44 -16 143 -25 220 -9 77 -21 160 -26 185 -5 25 -13 70 -16 100 -4 30 -11 60 -16 67 -5 7 -7 26 -3 42 4 17 1 39 -6 53 -7 13 -13 32 -13 43 -1 24 -26 164 -33 185 -3 8 -6 26 -8 40 -4 40 -35 191 -51 245 -8 28 -30 118 -49 200 -20 83 -44 182 -55 220 -11 39 -35 133 -54 210 -41 171 -75 295 -84 309 -3 6 -7 17 -7 26 -4 38 -45 181 -72 250 -3 8 -7 22 -8 30 -3 27 -167 505 -176 515 -5 5 -9 15 -9 22 0 8 -9 33 -20 55 -11 23 -20 47 -20 53 0 6 -9 30 -20 53 -11 22 -20 52 -20 65 0 13 -7 32 -15 43 -8 10 -15 25 -15 32 0 18 -72 182 -79 181 -3 0 -48 -21 -98 -45z"/>
<path d="M6325 20480 c-3 -5 -26 -10 -50 -10 -24 0 -47 -4 -50 -10 -3 -5 -26 -10 -50 -10 -24 0 -47 -4 -50 -10 -3 -5 -17 -10 -30 -10 -13 0 -27 -4 -30 -10 -3 -5 -21 -10 -40 -10 -19 0 -37 -4 -40 -10 -3 -5 -15 -10 -25 -10 -11 0 -36 -9 -57 -21 -22 -12 -48 -19 -65 -17 -15 3 -28 1 -28 -3 0 -9 -58 -39 -76 -39 -6 0 -38 -13 -69 -30 -31 -16 -62 -30 -69 -30 -15 0 -342 -164 -364 -182 -9 -8 -42 -27 -73 -42 -32 -14 -62 -33 -69 -41 -7 -8 -18 -15 -25 -15 -6 0 -20 -9 -30 -20 -10 -11 -23 -20 -30 -20 -7 0 -20 -9 -30 -20 -10 -11 -23 -20 -30 -20 -7 0 -20 -9 -30 -20 -10 -11 -23 -20 -30 -20 -6 0 -24 -13 -40 -30 -16 -16 -34 -30 -40 -30 -6 0 -29 -18 -50 -40 -21 -22 -45 -40 -52 -40 -7 0 -12 -6 -11 -12 2 -7 -2 -12 -8 -11 -6 1 -24 -11 -39 -27 -16 -17 -34 -30 -40 -30 -6 0 -24 -13 -40 -30 -16 -16 -34 -30 -40 -30 -6 0 -31 -20 -55 -45 -24 -24 -46 -42 -50 -40 -4 2 -20 -9 -35 -25 -16 -17 -34 -30 -40 -30 -6 0 -24 -13 -40 -30 -16 -16 -34 -30 -40 -30 -6 0 -24 -13 -40 -30 -16 -16 -34 -30 -40 -30 -6 0 -29 -18 -50 -40 -21 -22 -45 -40 -52 -40 -7 0 -12 -6 -11 -12 2 -7 -3 -12 -10 -10 -6 1 -11 -1 -10 -5 2 -5 -1 -9 -7 -11 -5 -1 -35 -27 -66 -58 -30 -30 -59 -51 -63 -47 -4 5 -6 1 -4 -7 1 -8 -2 -14 -8 -13 -6 1 -33 -20 -60 -48 -26 -27 -53 -49 -59 -49 -6 0 -31 -20 -55 -45 -24 -24 -47 -42 -52 -39 -5 3 -7 0 -6 -8 2 -7 -2 -12 -8 -11 -7 1 -20 -7 -29 -17 -10 -11 -23 -20 -30 -20 -6 0 -24 -13 -40 -30 -16 -16 -34 -30 -40 -30 -7 0 -20 -9 -30 -20 -10 -11 -24 -20 -30 -20 -7 0 -18 -7 -25 -15 -7 -9 -32 -25 -55 -35 -23 -10 -48 -26 -55 -35 -7 -8 -18 -15 -25 -15 -7 0 -18 -7 -25 -15 -7 -9 -33 -25 -56 -35 -24 -11 -46 -24 -49 -30 -3 -6 -26 -19 -50 -30 -24 -11 -47 -24 -50 -30 -3 -6 -26 -19 -50 -30 -24 -11 -47 -24 -50 -30 -3 -6 -26 -19 -50 -30 -24 -11 -47 -24 -50 -30 -3 -6 -26 -19 -50 -30 -24 -11 -47 -24 -50 -30 -3 -6 -26 -19 -50 -30 -24 -11 -47 -24 -50 -30 -3 -5 -23 -17 -43 -26 -20 -10 -45 -24 -54 -32 -26 -22 -150 -82 -169 -82 -10 0 -21 -4 -24 -10 -3 -5 -17 -10 -30 -10 -13 0 -27 -4 -30 -10 -3 -5 -16 -10 -29 -10 -12 0 -26 -4 -32 -10 -13 -13 -213 -15 -227 -1 -6 6 -18 11 -26 11 -21 0 -197 88 -211 106 -7 8 -18 14 -24 14 -6 0 -36 25 -66 55 -30 30 -50 55 -46 55 5 0 1 9 -9 20 -24 26 -65 109 -65 131 0 10 -5 21 -10 24 -6 3 -10 25 -10 49 0 23 -5 47 -11 53 -7 7 -8 45 -4 109 3 55 8 160 11 234 3 74 9 139 15 144 13 14 11 100 -3 114 -8 8 -8 15 1 26 16 19 -4 32 -25 15 -16 -13 -106 -124 -250 -309 -49 -63 -116 -144 -149 -180 -98 -105 -195 -241 -320 -450 -39 -65 -106 -155 -270 -365 -83 -107 -161 -245 -249 -442 -92 -206 -148 -423 -150 -583 l-1 -96 38 -76 c45 -92 154 -207 237 -252 75 -41 168 -46 315 -17 200 40 525 37 687 -5 87 -22 176 -62 245 -111 37 -26 171 -157 322 -316 259 -272 350 -359 406 -389 78 -42 84 -43 570 -44 467 -1 557 -6 680 -39 130 -35 289 -95 375 -142 87 -48 264 -228 441 -449 163 -202 223 -261 309 -302 144 -68 255 -80 800 -87 699 -9 985 -28 1175 -76 139 -35 172 -59 491 -350 272 -248 353 -313 443 -356 l55 -25 185 5 c232 7 370 29 792 131 256 62 406 86 578 93 229 9 378 -22 526 -109 88 -52 145 -106 249 -232 207 -253 277 -321 390 -374 80 -39 116 -49 209 -62 120 -16 231 -12 316 10 42 10 152 38 245 61 94 23 177 45 185 50 9 5 72 31 141 57 191 75 353 112 605 138 147 16 167 16 255 1 120 -20 217 -67 365 -178 278 -207 430 -295 655 -377 154 -57 253 -75 360 -68 191 13 266 43 678 268 279 152 447 230 540 252 63 14 102 11 165 -15 40 -17 190 -116 277 -183 264 -203 266 -204 361 -240 94 -35 213 -49 374 -44 120 3 151 8 219 31 98 34 245 118 441 252 597 407 620 417 915 419 209 1 324 -17 740 -116 328 -78 534 -109 729 -110 l156 -1 70 37 c84 44 247 179 492 406 199 185 225 205 303 245 69 35 130 49 295 69 226 28 397 36 895 46 543 10 630 15 745 37 190 37 258 87 466 348 119 149 274 323 337 377 99 86 152 114 353 183 196 67 193 67 764 74 571 8 555 6 653 72 53 36 298 279 441 437 156 173 253 258 350 304 134 64 236 81 481 81 113 0 232 -5 265 -11 253 -48 306 -47 407 4 65 33 188 160 229 237 66 124 50 296 -68 717 -61 215 -160 442 -329 757 -254 470 -403 737 -416 744 -22 12 -48 1 -48 -21 0 -11 -4 -22 -10 -25 -5 -3 -10 -26 -10 -50 0 -24 -4 -47 -10 -50 -5 -3 -10 -21 -10 -40 0 -19 -4 -37 -10 -40 -5 -3 -10 -21 -10 -40 0 -19 -4 -37 -10 -40 -5 -3 -10 -17 -10 -30 0 -13 -4 -27 -10 -30 -5 -3 -10 -14 -10 -24 0 -32 -68 -154 -111 -197 -22 -23 -47 -53 -53 -65 -7 -13 -18 -23 -24 -22 -7 2 -11 0 -9 -5 1 -4 -2 -8 -6 -9 -5 0 -21 -13 -37 -28 -32 -31 -115 -75 -141 -75 -10 0 -21 -4 -24 -10 -8 -13 -322 -13 -330 0 -3 6 -21 10 -40 10 -19 0 -37 5 -40 10 -3 6 -19 10 -34 10 -30 0 -91 26 -91 39 0 5 -11 6 -24 4 -13 -3 -27 0 -30 6 -4 6 -15 11 -25 11 -10 0 -53 18 -96 40 -43 22 -83 40 -90 40 -6 0 -56 23 -110 50 -54 28 -103 50 -110 50 -14 0 -181 84 -203 102 -9 8 -42 27 -73 42 -32 14 -62 33 -69 41 -7 8 -18 15 -25 15 -7 0 -18 7 -25 15 -7 8 -41 29 -76 45 -35 17 -66 35 -69 40 -4 6 -26 19 -50 30 -24 11 -46 24 -50 30 -3 5 -35 23 -70 40 -35 17 -67 35 -70 40 -4 6 -26 19 -50 30 -24 11 -46 24 -50 29 -3 6 -44 28 -90 51 -46 23 -87 45 -90 50 -3 5 -35 23 -70 40 -35 17 -67 35 -70 40 -3 5 -52 32 -110 60 -58 28 -107 55 -110 60 -3 4 -58 34 -122 66 -65 31 -126 64 -135 72 -22 18 -309 162 -324 162 -7 0 -38 14 -69 30 -31 17 -63 30 -71 30 -7 0 -29 9 -49 20 -20 11 -49 20 -65 20 -16 0 -32 5 -35 10 -3 6 -21 10 -40 10 -19 0 -37 5 -40 10 -8 13 -282 13 -290 0 -3 -5 -14 -10 -24 -10 -32 0 -154 -69 -198 -112 -54 -53 -73 -89 -73 -139 0 -21 -4 -41 -10 -44 -5 -3 -10 -34 -10 -69 0 -34 -4 -66 -9 -72 -10 -9 -15 -96 -27 -404 -3 -80 -9 -149 -15 -154 -5 -6 -9 -56 -9 -112 0 -58 -4 -106 -10 -109 -6 -3 -10 -48 -10 -100 0 -52 -4 -97 -10 -100 -5 -3 -10 -18 -10 -33 0 -35 -83 -202 -115 -232 -14 -13 -25 -29 -25 -35 0 -7 -9 -20 -20 -30 -11 -10 -20 -23 -20 -30 0 -19 -72 -80 -125 -105 -27 -13 -60 -33 -72 -43 -15 -13 -32 -18 -52 -15 -17 3 -31 1 -31 -3 0 -15 -63 -39 -101 -39 -21 0 -41 -4 -44 -10 -3 -5 -30 -10 -60 -10 -30 0 -57 -4 -60 -10 -3 -5 -42 -10 -85 -10 -43 0 -82 5 -85 10 -3 6 -21 10 -40 10 -19 0 -37 5 -40 10 -3 6 -21 10 -40 10 -19 0 -37 5 -40 10 -3 6 -14 10 -24 10 -21 0 -78 27 -86 41 -4 5 -25 18 -49 29 -23 10 -49 26 -56 35 -7 8 -18 15 -25 15 -7 0 -18 7 -25 15 -7 9 -32 25 -55 35 -23 10 -48 26 -55 35 -7 8 -18 15 -25 15 -7 0 -18 7 -25 15 -7 9 -33 25 -56 35 -24 11 -46 24 -49 30 -3 6 -25 19 -49 30 -23 10 -49 26 -56 35 -7 8 -18 15 -25 15 -6 0 -20 9 -30 20 -10 11 -24 20 -30 20 -7 0 -18 7 -25 15 -7 9 -32 25 -55 35 -23 10 -48 26 -55 35 -7 8 -18 15 -25 15 -6 0 -20 9 -30 20 -10 11 -23 20 -30 20 -7 0 -20 9 -30 20 -10 11 -24 20 -30 20 -7 0 -18 7 -25 15 -7 9 -32 24 -54 35 -23 10 -52 30 -65 44 -14 14 -30 26 -36 26 -7 0 -20 9 -30 20 -10 11 -23 20 -30 20 -6 0 -24 13 -40 30 -15 16 -31 27 -35 25 -4 -2 -22 11 -40 30 -19 19 -39 35 -45 35 -6 0 -24 14 -40 30 -16 17 -34 30 -40 30 -6 0 -24 14 -40 30 -16 17 -34 30 -40 30 -6 0 -24 14 -40 30 -16 17 -34 30 -40 30 -6 0 -24 14 -40 30 -16 17 -34 30 -40 30 -7 0 -20 9 -30 20 -10 11 -23 20 -30 20 -6 0 -24 14 -40 30 -16 17 -34 30 -40 30 -7 0 -20 9 -30 20 -10 11 -23 20 -30 20 -7 0 -20 9 -30 20 -10 11 -23 20 -30 20 -7 0 -20 9 -30 20 -10 11 -23 20 -30 20 -7 0 -20 9 -30 20 -10 11 -24 20 -30 20 -7 0 -18 7 -25 15 -7 9 -32 25 -55 35 -23 10 -48 26 -55 35 -7 8 -18 15 -25 15 -7 0 -18 7 -25 15 -7 9 -33 25 -56 35 -24 11 -46 24 -49 30 -3 5 -23 17 -43 26 -20 10 -45 24 -54 32 -22 19 -349 182 -365 182 -7 0 -28 9 -48 20 -20 11 -44 20 -55 20 -10 0 -22 5 -25 10 -3 6 -17 10 -30 10 -13 0 -27 5 -30 10 -3 6 -17 10 -30 10 -13 0 -27 5 -30 10 -3 6 -21 10 -40 10 -19 0 -37 5 -40 10 -3 6 -26 10 -50 10 -24 0 -47 5 -50 10 -3 6 -30 10 -60 10 -30 0 -57 5 -60 10 -4 6 -70 10 -165 10 -95 0 -161 -4 -165 -10 -3 -5 -30 -10 -60 -10 -30 0 -57 -4 -60 -10 -3 -5 -21 -10 -40 -10 -19 0 -37 -4 -40 -10 -3 -5 -21 -10 -40 -10 -19 0 -37 -4 -40 -10 -3 -5 -19 -10 -35 -10 -16 0 -45 -9 -65 -20 -20 -11 -47 -20 -60 -20 -13 0 -40 -9 -60 -20 -20 -11 -42 -20 -49 -20 -8 0 -40 -13 -71 -30 -31 -16 -62 -30 -69 -30 -15 0 -262 -124 -284 -142 -9 -8 -33 -22 -53 -31 -20 -9 -42 -23 -49 -32 -7 -8 -18 -15 -25 -15 -6 0 -20 -9 -30 -20 -10 -11 -23 -20 -30 -20 -6 0 -24 -13 -40 -30 -16 -16 -34 -30 -40 -30 -7 0 -20 -9 -30 -20 -10 -11 -24 -20 -32 -20 -7 0 -12 -6 -11 -12 2 -7 -3 -12 -10 -10 -6 1 -11 -4 -10 -10 2 -7 -2 -12 -8 -11 -11 2 -292 -274 -296 -292 -2 -5 -7 -9 -13 -7 -5 2 -6 0 -2 -4 9 -9 -232 -254 -250 -254 -7 0 -12 -6 -11 -12 2 -7 -2 -12 -8 -11 -6 1 -24 -11 -39 -27 -16 -17 -34 -30 -41 -30 -6 0 -17 -7 -24 -15 -7 -9 -29 -23 -49 -32 -20 -9 -44 -23 -53 -31 -23 -19 -229 -122 -245 -122 -7 0 -28 -9 -48 -20 -20 -11 -44 -20 -55 -20 -10 0 -22 -4 -25 -10 -3 -5 -17 -10 -30 -10 -13 0 -27 -4 -30 -10 -3 -5 -17 -10 -30 -10 -13 0 -27 -4 -30 -10 -3 -5 -26 -10 -50 -10 -24 0 -47 -4 -50 -10 -3 -5 -35 -10 -70 -10 -35 0 -67 -4 -70 -10 -3 -5 -28 -10 -55 -10 -27 0 -52 5 -55 10 -3 6 -30 10 -60 10 -30 0 -57 5 -60 10 -3 6 -21 10 -40 10 -19 0 -37 5 -40 10 -3 6 -14 10 -23 10 -27 0 -197 88 -222 115 -13 14 -28 25 -35 25 -6 0 -37 27 -69 59 -33 33 -64 59 -70 58 -6 -1 -10 4 -8 11 1 6 -4 11 -10 10 -7 -2 -12 3 -10 10 1 6 -4 11 -10 10 -7 -2 -12 3 -10 10 1 6 -3 11 -10 10 -7 -2 -13 3 -14 10 -1 6 -2 17 -3 22 0 6 -9 10 -19 10 -22 0 -47 25 -57 58 -4 14 -13 21 -23 20 -9 -2 -16 3 -14 10 1 6 -4 11 -10 10 -7 -2 -12 3 -10 10 1 6 -4 11 -10 10 -7 -2 -12 3 -10 10 1 6 -4 11 -10 10 -7 -2 -12 3 -10 10 1 6 -4 11 -10 10 -7 -2 -12 3 -10 10 1 6 -4 11 -10 10 -7 -2 -12 3 -10 10 1 6 -4 11 -10 10 -7 -2 -12 3 -11 9 2 7 0 12 -5 10 -4 -1 -7 1 -7 5 0 4 -17 24 -38 46 -20 21 -34 42 -30 46 5 4 1 6 -7 4 -8 -2 -14 2 -13 8 1 6 -16 28 -38 49 -21 22 -39 44 -39 50 0 7 -9 20 -20 30 -11 10 -20 23 -20 30 0 6 -12 22 -26 36 -14 13 -34 43 -45 66 -10 23 -23 44 -29 48 -5 3 -23 35 -40 70 -17 35 -35 67 -40 70 -5 3 -23 35 -40 70 -17 35 -35 67 -40 70 -6 4 -19 25 -30 49 -10 23 -26 49 -35 56 -8 7 -15 18 -15 25 0 6 -9 20 -20 30 -11 10 -20 23 -20 30 0 7 -9 20 -20 30 -11 10 -20 23 -20 29 0 7 -25 36 -55 66 -30 29 -52 57 -49 62 3 5 0 7 -8 6 -7 -2 -12 3 -11 9 2 7 -3 12 -10 10 -6 -1 -11 4 -10 11 2 6 -3 12 -10 12 -7 0 -29 16 -48 36 -18 19 -50 43 -69 51 -19 9 -43 23 -52 31 -22 18 -269 142 -284 142 -7 0 -38 14 -69 30 -31 17 -63 30 -71 30 -7 0 -29 9 -49 20 -20 11 -44 20 -55 20 -10 0 -22 5 -25 10 -3 6 -17 10 -30 10 -13 0 -27 5 -30 10 -3 6 -26 10 -50 10 -24 0 -47 5 -50 10 -3 6 -21 10 -40 10 -19 0 -37 5 -40 10 -3 6 -52 10 -110 10 -58 0 -107 4 -110 10 -3 6 -46 10 -95 10 -49 0 -92 -4 -95 -10 -4 -6 -62 -10 -140 -10 -78 0 -136 -4 -140 -10 -3 -5 -26 -10 -50 -10 -24 0 -47 -4 -50 -10 -3 -5 -26 -10 -50 -10 -24 0 -47 -4 -50 -10 -3 -5 -21 -10 -40 -10 -19 0 -37 -4 -40 -10 -3 -5 -17 -10 -30 -10 -13 0 -27 -4 -30 -10 -3 -5 -19 -10 -35 -10 -16 0 -45 -9 -65 -20 -20 -11 -44 -20 -55 -20 -10 0 -22 -4 -25 -10 -3 -5 -14 -10 -25 -10 -10 0 -44 -13 -75 -30 -31 -16 -62 -30 -69 -30 -15 0 -542 -264 -564 -282 -9 -8 -70 -41 -135 -72 -64 -32 -119 -62 -122 -66 -3 -5 -44 -27 -90 -50 -46 -23 -87 -45 -90 -50 -3 -4 -88 -49 -189 -100 -102 -50 -190 -98 -197 -106 -6 -8 -19 -14 -28 -14 -10 0 -80 -31 -156 -70 -76 -38 -147 -70 -156 -70 -10 0 -21 -4 -24 -10 -3 -5 -17 -10 -30 -10 -13 0 -27 -4 -30 -10 -3 -5 -17 -10 -30 -10 -13 0 -27 -4 -30 -10 -3 -5 -17 -10 -30 -10 -13 0 -27 -4 -30 -10 -3 -5 -21 -10 -40 -10 -19 0 -37 -4 -40 -10 -3 -5 -26 -10 -50 -10 -24 0 -47 -4 -50 -10 -4 -6 -70 -10 -165 -10 -95 0 -161 4 -165 10 -3 6 -19 10 -35 10 -15 0 -53 13 -84 30 -31 16 -59 29 -61 30 -3 0 -5 3 -4 6 1 3 -17 25 -38 48 -22 22 -47 57 -56 77 -9 20 -23 42 -32 49 -8 7 -15 23 -15 36 0 12 -4 26 -10 29 -5 3 -10 17 -10 30 0 13 -4 27 -10 30 -5 3 -10 21 -10 40 0 19 -4 37 -10 40 -6 4 -10 80 -10 195 0 115 4 191 10 195 6 3 10 21 10 40 0 19 5 37 10 40 6 3 10 30 10 60 0 30 5 57 10 60 6 3 10 17 10 30 0 13 5 27 10 30 6 3 10 21 10 40 0 19 5 37 10 40 6 3 10 21 10 40 0 19 5 37 10 40 6 3 10 17 10 30 0 13 5 27 10 30 6 3 10 21 10 40 0 19 5 37 10 40 6 3 10 17 10 30 0 13 5 27 10 30 6 3 10 45 9 93 0 91 -20 146 -50 147 -8 1 -13 7 -11 14 1 7 -2 10 -6 7 -5 -3 -17 3 -27 14 -21 23 -112 70 -136 70 -10 0 -21 5 -24 10 -4 6 -90 10 -225 10 -135 0 -221 -4 -225 -10z m-721 -1301 c-3 -5 -10 -7 -15 -3 -5 3 -7 10 -3 15 3 5 10 7 15 3 5 -3 7 -10 3 -15z m4710 -910 c-3 -5 -10 -7 -15 -3 -5 3 -7 10 -3 15 3 5 10 7 15 3 5 -3 7 -10 3 -15z m-9205 -765 c-6 -7 -15 -11 -21 -8 -5 3 -4 12 3 20 6 7 15 11 21 8 5 -3 4 -12 -3 -20z m12415 -2635 c-3 -5 -10 -7 -15 -3 -5 3 -7 10 -3 15 3 5 10 7 15 3 5 -3 7 -10 3 -15z"/>
<path d="M1410 19225 c-29 -30 -51 -58 -47 -62 8 -7 117 95 117 109 0 18 -18 5 -70 -47z"/>
<path d="M1280 19075 c-13 -14 -20 -28 -17 -32 8 -7 57 35 57 49 0 15 -16 8 -40 -17z"/>
<path d="M1190 18965 c-7 -9 -10 -18 -7 -22 8 -7 37 15 37 28 0 14 -16 11 -30 -6z"/>
<path d="M1110 18865 c-7 -9 -10 -18 -7 -22 8 -7 37 15 37 28 0 14 -16 11 -30 -6z"/>
<path d="M1053 18788 c-6 -7 -14 -20 -19 -28 -7 -13 -5 -13 16 1 25 17 38 39 22 39 -5 0 -14 -6 -19 -12z"/>
<path d="M970 18685 c-7 -9 -10 -18 -7 -22 8 -7 37 15 37 28 0 14 -16 11 -30 -6z"/>
<path d="M920 18610 c0 -5 5 -10 10 -10 6 0 10 5 10 10 0 6 -4 10 -10 10 -5 0 -10 -4 -10 -10z"/>
<path d="M850 18525 c-7 -9 -10 -18 -7 -22 8 -7 37 15 37 28 0 14 -16 11 -30 -6z"/>
<path d="M790 18445 c-7 -9 -10 -18 -7 -22 8 -7 37 15 37 28 0 14 -16 11 -30 -6z"/>
<path d="M740 18370 c0 -5 5 -10 10 -10 6 0 10 5 10 10 0 6 -4 10 -10 10 -5 0 -10 -4 -10 -10z"/>
<path d="M660 18270 c0 -5 5 -10 10 -10 6 0 10 5 10 10 0 6 -4 10 -10 10 -5 0 -10 -4 -10 -10z"/>
</g>
</g>
  <g id="id6:id6" transform="matrix(1.25,0,0,1.25,0.0,0.0)"><g transform="translate(0.000000,1539.200000) scale(0.040000,-0.040000)" fill="#a4101b" stroke="none">
<path d="M13095 30573 c-294 -25 -513 -67 -755 -145 -921 -295 -1639 -968 -1995 -1868 -60 -152 -84 -225 -126 -390 -88 -344 -123 -695 -100 -995 53 -677 279 -1281 674 -1794 31 -40 58 -78 59 -83 2 -6 45 4 98 21 52 17 100 31 107 31 17 0 36 38 27 53 -4 6 -40 50 -79 97 -363 435 -589 931 -655 1435 -19 144 -29 450 -20 576 22 289 88 558 202 829 38 90 162 336 178 353 18 19 17 -12 -1 -63 -34 -98 -97 -372 -120 -530 -21 -134 -24 -191 -23 -420 1 -293 14 -427 64 -657 115 -526 356 -1017 715 -1458 45 -55 80 -106 78 -112 -6 -16 11 -16 172 2 72 8 177 15 235 15 112 0 356 -30 455 -56 33 -8 77 -20 97 -25 64 -16 231 -85 324 -135 167 -89 376 -252 496 -387 33 -37 74 -75 91 -83 47 -25 233 -37 357 -24 191 19 369 68 770 210 293 104 461 150 648 176 128 18 295 15 416 -7 l69 -13 39 45 c330 375 524 705 683 1159 346 991 163 2124 -484 2990 -338 453 -831 829 -1358 1034 -192 75 -465 154 -589 171 -61 8 -63 5 -71 -69 -8 -73 3 -130 23 -122 39 15 378 -74 567 -148 257 -100 555 -271 757 -434 69 -56 79 -71 54 -89 -21 -15 -44 -10 -98 24 -39 25 -239 124 -311 155 -245 104 -577 187 -838 210 -119 10 -140 10 -148 -3 -13 -21 -11 -193 3 -207 7 -7 22 -12 34 -12 33 0 173 -51 228 -84 27 -16 51 -37 54 -48 6 -23 13 -22 157 12 165 40 314 5 428 -98 53 -49 25 -132 -44 -132 -20 0 -52 13 -84 34 -125 84 -266 72 -490 -41 -124 -62 -213 -112 -259 -145 -21 -15 -75 -42 -120 -60 l-81 -33 -140 1 c-125 0 -148 3 -220 28 -146 50 -319 152 -509 301 -155 121 -196 163 -196 201 0 23 7 38 26 53 49 38 67 31 204 -79 52 -41 101 -79 108 -84 9 -5 26 7 52 36 51 59 166 112 301 140 57 12 107 27 111 32 4 6 8 43 8 83 0 40 5 75 11 78 6 4 7 20 3 38 -8 41 -12 44 -27 25 -9 -12 -47 -19 -157 -27 -80 -7 -206 -20 -280 -31 -74 -10 -173 -24 -220 -29 -155 -20 -281 -104 -351 -234 -31 -58 -34 -69 -34 -157 0 -73 4 -104 19 -132 96 -194 431 -328 921 -369 153 -13 495 -7 655 11 195 22 559 91 636 120 129 49 410 66 584 34 241 -43 465 -154 635 -312 171 -160 383 -639 464 -1047 41 -208 54 -342 54 -580 1 -209 -2 -249 -31 -436 -44 -285 -68 -384 -122 -488 -34 -68 -44 -41 -28 75 8 64 13 196 12 374 -1 304 -16 435 -74 655 -155 581 -556 1064 -1060 1278 -430 182 -861 198 -1575 57 -538 -106 -705 -126 -983 -117 -201 6 -267 20 -375 81 -216 120 -364 368 -383 641 -13 177 52 374 157 476 180 175 488 325 809 393 184 39 301 50 530 51 l215 0 0 -35 c0 -24 5 -35 14 -35 12 0 15 24 15 135 l1 135 -125 1 c-69 0 -143 -1 -165 -3z m1520 -1763 c3 -5 24 -10 45 -10 21 0 42 -5 46 -11 3 -6 15 -9 25 -6 10 3 23 -1 29 -8 6 -7 19 -11 29 -8 16 4 77 -18 133 -48 10 -5 26 -9 36 -9 11 0 27 -9 37 -20 10 -11 24 -20 31 -20 25 0 161 -83 255 -155 170 -130 307 -274 419 -441 59 -86 150 -256 150 -278 0 -9 9 -31 20 -51 11 -20 20 -44 20 -55 0 -10 5 -22 10 -25 6 -3 10 -17 10 -30 0 -13 5 -27 10 -30 6 -3 10 -19 10 -35 0 -16 5 -32 11 -36 6 -3 9 -19 6 -34 -3 -15 -1 -32 4 -37 6 -6 10 -49 10 -96 0 -47 4 -89 9 -92 6 -3 10 -20 10 -36 0 -22 -6 -32 -25 -39 -14 -5 -30 -21 -35 -34 -5 -13 -14 -27 -20 -31 -6 -4 -15 -18 -20 -31 -5 -13 -16 -24 -24 -24 -7 0 -16 -9 -19 -20 -3 -14 -14 -20 -31 -20 -16 0 -26 -6 -26 -15 0 -8 -20 -23 -43 -34 -24 -11 -50 -27 -57 -36 -7 -8 -27 -15 -46 -15 -18 0 -36 -4 -39 -10 -3 -5 -17 -10 -30 -10 -13 0 -27 -4 -30 -10 -4 -6 -63 -10 -145 -10 -82 0 -141 4 -145 10 -3 6 -21 10 -40 10 -19 0 -37 5 -40 10 -3 6 -19 10 -35 10 -15 0 -54 14 -85 30 -31 17 -65 30 -75 30 -10 0 -23 7 -30 15 -7 9 -32 25 -55 35 -23 10 -48 26 -55 35 -7 8 -18 15 -25 15 -7 0 -18 7 -25 15 -7 9 -32 24 -54 35 -23 10 -54 33 -71 50 -16 18 -40 36 -52 41 -13 5 -23 15 -23 24 0 8 -7 15 -16 15 -9 0 -18 8 -21 18 -2 10 -14 22 -26 27 -12 6 -27 21 -33 33 -7 13 -27 40 -47 60 -19 21 -40 52 -48 70 -8 17 -19 32 -26 32 -7 0 -26 29 -43 65 -17 35 -35 67 -40 70 -12 7 -40 65 -40 81 0 7 -9 29 -20 49 -11 20 -20 42 -20 50 0 8 -9 30 -20 50 -12 22 -20 54 -20 85 0 27 -4 52 -10 55 -5 3 -10 26 -10 50 0 24 -4 47 -10 50 -5 3 -10 33 -10 65 0 32 5 62 10 65 6 3 10 26 10 50 0 24 5 47 10 50 6 3 10 19 10 35 0 16 9 45 20 65 11 20 20 41 20 48 0 27 52 115 70 120 11 3 24 17 30 31 5 14 16 26 25 26 8 0 15 7 15 15 0 9 10 19 23 24 12 5 33 21 46 35 14 14 34 26 46 26 12 0 30 9 40 20 13 15 31 20 66 20 26 0 51 -4 54 -10z"/>
<path d="M13424 30438 c3 -46 8 -113 12 -150 6 -61 5 -67 -16 -78 -20 -10 -21 -17 -15 -58 4 -26 7 -91 7 -144 0 -54 1 -98 2 -98 2 0 17 14 35 30 29 28 31 34 31 103 0 40 4 77 9 83 5 5 11 78 13 163 l5 155 -39 38 c-21 21 -41 38 -44 38 -4 0 -4 -37 0 -82z"/>
<path d="M13720 30323 c0 -60 -3 -132 -7 -161 -5 -46 -4 -52 11 -46 14 5 16 27 16 160 0 96 -4 154 -10 154 -6 0 -10 -43 -10 -107z"/>
<path d="M13700 29940 c0 -16 5 -30 10 -30 6 0 10 14 10 30 0 17 -4 30 -10 30 -5 0 -10 -13 -10 -30z"/>
</g>
</g>
  <g id="id7:id7" transform="matrix(1.25,0,0,1.25,0.0,0.0)"><g transform="translate(0.000000,1539.200000) scale(0.040000,-0.040000)" fill="#740911" stroke="none">
<path d="M13382 30477 c-11 -13 -19 -107 -28 -322 -3 -71 -9 -134 -15 -139 -5 -6 -9 -41 -9 -78 0 -47 -4 -70 -12 -72 -7 -2 -49 -10 -94 -18 -142 -28 -282 -97 -319 -161 -16 -27 -16 -30 -1 -45 38 -39 159 -115 274 -173 140 -71 152 -70 152 12 0 47 15 74 26 46 3 -8 6 -48 7 -88 2 -58 5 -74 17 -74 20 0 26 71 8 92 -10 13 -8 19 17 39 17 13 35 24 41 24 14 0 27 79 19 113 -4 16 -20 32 -42 42 l-35 17 6 126 c6 121 17 313 32 539 5 76 4 106 -6 118 -15 18 -24 19 -38 2z"/>
<path d="M13743 30418 c-6 -7 -13 -101 -17 -208 -4 -107 -9 -262 -12 -345 -3 -82 -9 -179 -14 -215 -9 -65 -5 -110 11 -110 4 0 9 28 11 63 4 89 23 69 24 -25 0 -82 5 -97 26 -81 33 26 298 163 316 163 5 0 13 12 17 27 5 23 1 32 -22 51 -51 42 -114 69 -258 110 l-30 9 -3 273 c-2 260 -6 300 -32 300 -4 0 -12 -6 -17 -12z"/>
<path d="M10744 28777 c-204 -316 -354 -705 -410 -1062 -36 -235 -28 -641 17 -900 55 -313 191 -663 367 -944 85 -136 210 -307 287 -394 33 -37 62 -73 64 -80 9 -28 22 -35 52 -27 16 5 86 21 157 35 81 17 134 33 146 45 l19 18 -95 119 c-410 512 -661 1077 -743 1673 -22 162 -31 526 -16 683 24 253 87 551 156 736 34 92 43 131 28 131 -5 0 -17 -15 -29 -33z"/>
</g>
</g>
  <g id="id8:id8" transform="matrix(1.25,0,0,1.25,0.0,0.0)"><g transform="translate(0.000000,1539.200000) scale(0.040000,-0.040000)" fill="#dbd0c4" stroke="none">
</g>
</g>
  <g id="id9:id9" transform="matrix(1.25,0,0,1.25,0.0,0.0)"><g transform="translate(0.000000,1539.200000) scale(0.040000,-0.040000)" fill="#390408" stroke="none">
<path d="M11765 38439 c-32 -5 -91 -24 -130 -43 -249 -120 -330 -387 -184 -603 19 -27 76 -87 127 -133 122 -110 178 -182 304 -390 111 -184 188 -288 271 -366 116 -110 263 -179 366 -172 39 2 47 -1 56 -20 16 -35 65 -25 62 12 -2 14 13 27 53 48 30 15 59 26 63 25 5 -1 18 -27 30 -57 19 -48 26 -55 49 -55 15 0 33 -7 41 -15 7 -8 40 -81 71 -162 61 -155 86 -193 110 -167 12 12 6 33 -36 139 -58 144 -107 263 -139 337 l-22 52 36 40 c61 68 81 117 81 196 0 94 -22 140 -121 251 -44 49 -96 117 -116 151 -31 51 -167 343 -167 358 0 14 -97 197 -132 249 -97 145 -213 225 -443 306 -64 23 -154 30 -230 19z m149 -119 c84 -14 278 -110 339 -169 63 -60 133 -164 181 -271 21 -47 45 -98 52 -114 8 -16 14 -33 14 -38 0 -18 124 -266 162 -323 22 -33 66 -87 98 -120 138 -143 133 -250 -17 -348 -93 -60 -154 -81 -235 -82 l-66 0 -40 43 c-21 23 -44 42 -51 42 -7 0 -53 42 -104 93 -93 94 -166 198 -351 500 -27 44 -147 167 -163 167 -44 0 -175 126 -212 205 -25 54 -29 164 -7 217 37 88 163 185 256 199 68 10 80 10 144 -1z"/>
<path d="M13760 32676 c-6 -8 -18 -12 -26 -9 -12 4 -14 -13 -14 -97 0 -90 2 -101 15 -90 8 7 15 9 15 4 6 -245 -3 -1451 -10 -1458 -6 -6 -10 -124 -10 -302 0 -247 2 -293 15 -304 19 -16 45 3 45 32 0 11 5 29 11 40 9 17 17 19 52 14 125 -20 395 -98 562 -163 96 -37 354 -161 444 -213 397 -229 773 -586 1033 -980 493 -747 657 -1678 447 -2540 -124 -507 -367 -978 -705 -1369 -45 -52 -80 -100 -77 -107 2 -6 32 -22 66 -34 110 -39 108 -39 186 30 38 34 68 67 65 74 -3 7 11 25 30 40 20 15 33 32 30 40 -3 7 10 26 28 41 18 15 32 34 30 41 -1 7 6 19 18 26 11 7 20 21 20 30 0 10 9 23 20 30 11 7 20 21 20 30 0 10 11 25 25 34 14 9 23 20 20 24 -6 10 21 64 40 80 7 6 11 18 9 25 -3 7 1 24 9 37 43 69 157 292 157 307 0 5 11 34 25 65 39 89 73 188 135 391 42 138 81 330 112 560 25 191 13 675 -22 870 -5 28 -14 79 -20 115 -36 207 -132 525 -220 725 -135 305 -275 538 -483 800 -136 171 -371 400 -554 540 -220 168 -517 341 -738 430 -38 15 -88 35 -110 45 -118 50 -454 144 -600 167 l-50 8 5 270 c3 149 5 591 5 983 0 623 -2 714 -15 722 -20 13 -26 12 -40 -4z"/>
<path d="M13395 30828 c-2 -7 -5 -26 -7 -43 l-3 -30 -185 -6 c-778 -27 -1509 -313 -2095 -819 -97 -84 -281 -270 -357 -362 -325 -388 -572 -870 -697 -1358 -73 -288 -106 -554 -105 -855 2 -424 69 -787 222 -1201 40 -108 145 -343 189 -422 19 -36 33 -72 30 -82 -3 -13 3 -25 19 -35 13 -8 24 -24 24 -34 0 -10 6 -21 14 -24 16 -6 48 -66 41 -77 -3 -4 7 -15 21 -25 14 -9 23 -23 20 -30 -2 -7 7 -21 20 -30 15 -9 23 -22 20 -31 -3 -8 9 -24 30 -40 19 -15 33 -33 30 -40 -5 -14 38 -54 58 -54 23 0 161 59 170 73 6 10 -10 39 -60 105 -127 167 -189 265 -285 447 -192 366 -310 751 -361 1180 -19 161 -16 539 5 703 62 470 213 911 443 1294 319 532 785 956 1338 1219 425 201 936 319 1336 307 l105 -3 -3 -31 c-2 -20 3 -36 14 -45 15 -12 19 -11 37 13 l21 28 27 -33 c15 -17 31 -29 35 -24 4 4 10 68 12 142 4 118 2 138 -13 155 -9 10 -23 16 -31 13 -8 -3 -17 3 -20 13 -9 24 -34 54 -46 54 -5 0 -11 -6 -13 -12z m83 -164 c-2 -27 -7 -49 -13 -49 -11 0 -19 79 -10 103 11 30 26 -5 23 -54z"/>
<path d="M12575 29848 c-60 -32 -71 -95 -27 -144 36 -41 245 -206 349 -277 113 -77 241 -143 348 -180 81 -28 102 -31 215 -31 155 -1 222 18 350 99 94 60 304 169 385 201 60 23 86 27 175 28 l105 1 71 -42 c84 -51 115 -54 155 -14 53 54 31 114 -65 181 -105 71 -266 90 -422 49 -43 -12 -86 -21 -94 -21 -8 -1 -19 -4 -25 -8 -5 -4 -62 -35 -125 -67 -63 -33 -130 -69 -149 -81 -19 -12 -38 -19 -43 -16 -4 3 -8 36 -8 73 0 49 -4 72 -15 81 -27 23 -45 -5 -45 -71 0 -32 -4 -61 -10 -64 -5 -3 -10 -16 -10 -28 0 -38 -58 -125 -101 -154 -55 -36 -140 -43 -186 -14 l-32 20 -3 113 c-2 93 -6 113 -18 113 -8 0 -16 -11 -18 -25 -2 -14 -8 -29 -13 -34 -5 -6 -9 -29 -9 -52 0 -24 -5 -46 -10 -49 -15 -10 -202 85 -292 147 -42 29 -131 96 -198 148 -164 129 -191 142 -235 118z"/>
<path d="M13417 29502 c-18 -19 -23 -52 -9 -52 12 0 52 44 52 58 0 18 -25 14 -43 -6z"/>
</g>
</g>
</svg>
