<svg xmlns="http://www.w3.org/2000/svg" version="1.0" width="764.000000pt" height="932.000000pt" viewBox="0 0 764.000000 932.000000" preserveAspectRatio="xMidYMid meet">
  <g transform="translate(0.000000,932.000000) scale(0.100000,-0.100000)" stroke="none">
    <path d="M 0 0 H 7640.0 V 9320.0 H 0 Z" fill="#fffffe" id="background"/>
    <path stroke="none" d="M4127 9033 c-10 -9 -116 -20 -317 -32 -80 -5 -163 -15 -185 -21 -22 -7 -76 -15 -120 -17 -44 -2 -89 -7 -100 -12 -61 -26 -79 -31 -105 -31 -16 0 -50 -9 -75 -20 -25 -11 -65 -29 -90 -40 -25 -11 -57 -20 -71 -20 -13 0 -42 -9 -64 -20 -22 -11 -46 -20 -55 -20 -8 0 -34 -9 -58 -19 -23 -11 -60 -25 -82 -32 -36 -12 -58 -23 -121 -58 -11 -5 -50 -24 -88 -42 -38 -17 -97 -48 -130 -68 -68 -39 -105 -61 -152 -86 -18 -9 -47 -30 -65 -47 -19 -17 -48 -36 -64 -43 -17 -7 -53 -29 -81 -48 -28 -19 -73 -47 -102 -61 -28 -14 -65 -39 -82 -56 -17 -16 -34 -30 -39 -30 -15 0 -85 -61 -206 -179 -218 -214 -311 -315 -423 -461 -23 -30 -66 -86 -96 -125 -31 -38 -56 -78 -56 -88 0 -11 -9 -30 -20 -44 -11 -14 -20 -33 -20 -42 0 -10 -8 -26 -17 -37 -20 -22 -63 -101 -63 -116 0 -5 -9 -22 -19 -37 -28 -39 -81 -143 -81 -158 0 -7 -4 -21 -9 -31 -9 -17 -26 -56 -55 -126 -9 -21 -16 -47 -16 -57 0 -11 -8 -38 -19 -62 -10 -23 -24 -58 -31 -77 -7 -19 -25 -62 -40 -95 -15 -33 -33 -85 -40 -115 -7 -30 -17 -62 -21 -70 -4 -8 -15 -51 -24 -95 -9 -44 -26 -125 -37 -180 -26 -122 -33 -437 -11 -492 7 -18 13 -62 13 -98 0 -41 6 -78 16 -97 9 -16 18 -56 21 -87 3 -31 11 -65 18 -77 15 -24 35 -151 35 -222 0 -35 11 -68 40 -127 22 -44 40 -87 40 -96 0 -8 12 -31 26 -50 29 -39 54 -93 54 -118 0 -22 55 -134 99 -201 20 -30 48 -77 61 -105 13 -27 41 -76 62 -107 21 -31 38 -61 38 -66 0 -5 9 -17 19 -26 11 -10 25 -32 32 -49 7 -18 20 -41 30 -52 10 -11 34 -51 54 -90 20 -38 47 -86 58 -105 82 -133 147 -275 157 -341 4 -30 17 -70 28 -89 16 -26 19 -44 15 -80 -4 -33 1 -66 14 -106 23 -71 25 -262 3 -288 -7 -10 -16 -61 -20 -124 -6 -75 -14 -121 -29 -152 -11 -25 -21 -60 -21 -77 0 -18 -8 -52 -19 -75 -26 -60 -52 -136 -60 -178 -7 -32 -83 -170 -136 -245 -12 -16 -27 -43 -35 -58 -8 -16 -26 -41 -41 -56 -14 -15 -44 -54 -67 -87 -22 -32 -74 -93 -116 -134 -42 -41 -76 -80 -76 -86 0 -17 32 -48 73 -69 21 -11 70 -49 109 -85 84 -77 125 -91 160 -53 12 13 43 37 69 54 45 29 108 96 224 241 44 54 141 166 264 304 20 22 43 50 51 60 8 11 33 42 55 69 103 126 242 336 311 470 33 66 81 158 105 205 25 47 51 105 58 130 7 25 17 52 21 61 4 8 13 41 20 72 6 32 18 70 26 85 8 15 14 43 14 62 1 19 7 53 15 75 19 51 19 169 0 220 -8 22 -14 74 -15 116 0 50 -5 82 -15 95 -8 10 -15 33 -15 51 0 17 -18 66 -40 109 -22 43 -47 99 -56 126 -8 27 -36 75 -60 107 -24 32 -44 64 -44 70 0 5 -20 33 -45 61 -25 28 -45 58 -45 67 0 9 -16 35 -35 59 -19 23 -35 46 -35 51 0 4 -19 33 -42 63 -23 30 -55 80 -71 110 -17 30 -38 67 -49 82 -10 14 -18 32 -19 40 0 7 -9 27 -20 43 -24 39 -59 113 -59 128 0 7 -11 26 -25 42 -34 41 -55 91 -55 132 0 18 -7 45 -17 59 -14 22 -17 67 -21 314 -4 251 -2 295 12 330 9 22 16 64 16 93 1 28 5 70 10 92 19 82 42 160 51 169 5 6 9 18 9 28 0 10 18 53 39 96 22 42 62 124 89 182 34 70 64 118 91 143 23 21 41 47 41 58 0 12 58 79 144 167 79 81 157 163 172 182 45 55 127 126 174 150 14 7 45 29 70 49 25 20 61 44 81 53 20 9 52 29 70 45 47 39 146 103 161 103 7 0 24 9 38 20 14 11 31 20 38 20 7 0 30 11 50 25 20 14 47 25 60 25 13 0 36 6 50 14 74 39 128 59 188 66 35 5 71 13 78 19 8 7 45 18 82 26 38 8 101 22 139 30 60 14 136 16 550 12 330 -3 494 -8 525 -16 25 -7 70 -16 100 -20 30 -4 64 -11 75 -15 11 -4 29 -11 40 -16 46 -17 94 -30 151 -39 33 -5 89 -19 124 -30 35 -12 69 -21 76 -21 7 0 30 -15 52 -34 27 -21 55 -35 84 -39 44 -6 152 -57 210 -99 18 -13 47 -30 63 -37 65 -29 86 -42 206 -134 27 -21 54 -35 59 -32 6 3 10 41 10 84 0 53 5 89 17 112 9 19 19 61 21 94 3 38 12 69 23 84 11 13 19 29 19 35 0 28 128 260 177 322 136 169 135 168 278 238 73 36 138 66 144 66 15 0 33 38 27 58 -5 15 -147 108 -266 174 -25 14 -65 37 -90 52 -49 28 -327 167 -400 199 -66 29 -183 88 -200 101 -8 7 -28 18 -45 26 -16 8 -41 22 -55 31 -14 8 -47 22 -75 29 -27 7 -59 19 -70 26 -11 6 -40 14 -65 17 -25 3 -59 13 -75 21 -17 9 -38 16 -48 16 -10 0 -39 10 -65 22 -27 12 -75 23 -112 26 -36 2 -71 9 -78 15 -7 5 -52 13 -101 18 -61 6 -100 15 -123 29 -23 14 -50 20 -92 20 -32 0 -79 7 -105 15 -25 8 -121 19 -216 24 -93 6 -188 13 -210 16 -22 4 -44 3 -48 -2z" fill="#2a5fcf" id="2a5fcf-000001"/>
    <path stroke="none" d="M4171 7363 c-163 -3 -198 -6 -213 -20 -10 -9 -18 -22 -18 -30 0 -7 -6 -22 -12 -33 -10 -16 -10 -24 0 -40 17 -28 20 -217 4 -247 -18 -32 -15 -85 8 -139 12 -26 18 -55 15 -63 -27 -68 -29 -148 -35 -1090 l-5 -985 -155 3 c-85 1 -157 4 -159 6 -2 2 -5 114 -7 248 -2 193 -6 252 -19 284 -17 44 -17 158 6 1078 6 264 12 601 13 750 1 304 5 293 -75 256 -24 -10 -62 -25 -84 -32 -22 -7 -44 -17 -50 -21 -5 -4 -19 -8 -32 -8 -13 0 -31 -4 -41 -10 -9 -5 -64 -32 -122 -61 -194 -95 -225 -112 -282 -150 -31 -22 -60 -39 -63 -39 -28 0 -508 -462 -594 -571 -41 -52 -92 -132 -108 -169 -3 -8 -18 -33 -33 -55 -14 -22 -41 -71 -59 -110 -18 -38 -37 -78 -42 -87 -5 -10 -9 -33 -9 -51 0 -18 -9 -51 -20 -72 -11 -22 -24 -76 -29 -120 -5 -44 -14 -92 -20 -106 -5 -15 -13 -103 -17 -195 -6 -161 -6 -171 15 -209 14 -26 21 -58 21 -95 0 -30 5 -71 10 -90 5 -19 18 -66 28 -105 25 -95 36 -118 74 -162 18 -21 38 -45 43 -54 6 -9 38 -56 73 -105 34 -49 116 -170 182 -269 67 -99 128 -189 136 -200 14 -17 68 -126 95 -190 4 -11 26 -60 49 -108 22 -49 40 -101 40 -116 0 -16 9 -54 20 -87 22 -63 38 -247 39 -445 1 -80 -4 -120 -19 -165 -11 -32 -20 -76 -20 -96 0 -21 -13 -63 -30 -96 -16 -33 -30 -65 -30 -72 0 -7 -22 -58 -49 -114 -26 -55 -54 -117 -61 -136 -19 -48 -54 -111 -114 -205 -28 -44 -58 -93 -66 -110 -12 -24 -82 -137 -135 -217 -39 -59 -97 -138 -120 -162 -15 -16 -43 -52 -63 -80 -19 -28 -38 -53 -41 -56 -4 -3 -22 -25 -41 -50 -19 -25 -50 -62 -70 -83 -19 -21 -41 -49 -50 -61 -28 -42 -175 -191 -285 -290 -22 -19 -58 -45 -80 -56 -22 -10 -49 -26 -59 -35 -20 -15 -20 -15 0 -29 10 -8 39 -25 63 -38 24 -12 74 -50 111 -83 37 -33 95 -80 130 -105 35 -25 91 -70 125 -100 64 -57 171 -142 304 -243 42 -31 87 -67 101 -80 102 -89 170 -147 203 -170 20 -16 47 -38 60 -50 12 -12 35 -30 50 -40 15 -10 53 -40 82 -67 90 -82 79 -80 486 -80 197 0 360 4 363 9 3 5 9 244 12 532 6 501 10 625 34 1035 7 116 7 266 2 420 -12 337 -3 1507 12 1516 6 4 93 8 194 8 180 0 183 0 191 -22 4 -13 6 -203 4 -423 -8 -716 -7 -1484 2 -1765 7 -245 10 -278 26 -299 11 -13 19 -38 19 -55 0 -20 7 -36 20 -44 11 -7 20 -21 20 -33 0 -25 86 -154 158 -237 30 -35 80 -80 111 -102 31 -21 65 -46 76 -57 11 -10 36 -25 55 -32 19 -7 54 -22 77 -32 24 -11 49 -19 56 -19 8 0 29 -8 48 -17 49 -26 354 -52 387 -34 11 6 59 15 107 20 56 7 94 16 106 27 10 9 40 19 66 21 26 3 53 9 58 13 6 3 30 12 55 19 25 7 75 28 112 47 36 19 73 34 81 34 8 0 41 13 73 29 103 50 185 81 216 81 8 0 23 9 33 20 17 18 17 21 2 38 -9 9 -37 24 -64 31 -26 8 -52 17 -58 21 -5 4 -33 10 -61 12 -44 4 -167 55 -269 111 -156 86 -343 240 -445 367 -24 30 -69 82 -100 115 -39 44 -75 101 -128 205 -63 127 -72 152 -72 199 0 41 -5 60 -20 76 -17 18 -20 37 -22 135 -1 77 2 123 11 138 7 13 16 46 21 75 10 60 82 194 134 249 19 20 52 46 73 57 21 11 52 33 70 49 30 28 31 31 20 63 -7 19 -15 39 -20 45 -19 31 -147 286 -147 294 0 6 -9 29 -19 53 -11 23 -27 69 -36 102 -9 33 -20 76 -25 95 -5 19 -10 51 -10 70 0 19 -7 49 -16 65 -10 19 -19 75 -25 150 -5 66 -13 158 -19 205 -22 192 -23 243 -5 295 10 28 21 93 25 145 6 77 13 107 39 158 17 34 31 66 31 70 -1 20 98 196 115 207 22 13 466 4 745 -15 85 -6 362 -15 615 -21 253 -5 556 -12 674 -15 227 -5 231 -4 230 41 0 11 -22 49 -49 85 -28 36 -50 70 -50 77 0 6 -22 30 -49 52 -30 25 -58 61 -74 95 -14 29 -50 81 -79 113 -29 33 -59 78 -67 99 -7 21 -30 73 -49 114 -20 41 -39 91 -43 110 -11 55 -66 207 -116 318 -12 29 -23 56 -23 61 0 4 -13 38 -30 74 -16 37 -30 76 -30 87 0 11 -15 53 -34 93 -19 40 -45 97 -59 127 -14 30 -39 71 -56 90 -17 19 -31 40 -31 45 0 6 -18 33 -40 62 -21 29 -47 67 -56 85 -9 18 -40 57 -68 88 -29 30 -74 82 -101 115 -74 90 -192 202 -260 248 -33 22 -76 55 -96 72 -19 18 -61 44 -91 59 -31 15 -73 42 -94 60 -22 18 -64 45 -94 59 -100 47 -224 97 -241 97 -9 0 -27 8 -40 19 -13 10 -40 21 -60 25 -21 4 -52 14 -70 23 -19 9 -54 21 -79 25 -112 21 -229 37 -270 38 -26 0 -52 6 -58 12 -14 14 -107 16 -411 11z" fill="#2a5fcf" id="2a5fcf-000002"/>
    <path stroke="none" d="M5092 4432 c-16 -17 -40 -57 -52 -89 -13 -32 -27 -62 -32 -67 -4 -6 -8 -19 -8 -31 0 -11 -9 -45 -20 -75 -17 -48 -20 -80 -20 -252 0 -151 4 -211 16 -255 9 -32 20 -85 24 -117 7 -49 61 -235 91 -311 4 -11 10 -33 14 -50 4 -16 13 -43 20 -60 7 -16 18 -48 25 -70 17 -60 39 -110 119 -277 28 -58 51 -110 51 -115 0 -6 21 -52 48 -104 97 -192 112 -233 112 -310 0 -82 -12 -111 -69 -162 -34 -30 -49 -37 -84 -37 -102 0 -182 50 -232 145 -43 80 -59 79 -102 -5 -31 -62 -33 -70 -33 -178 0 -93 4 -120 20 -154 11 -23 20 -47 20 -52 0 -6 24 -58 52 -115 44 -87 68 -119 143 -196 127 -130 212 -188 405 -279 52 -25 114 -57 138 -71 23 -14 51 -25 62 -25 20 0 29 -4 77 -28 13 -7 27 -12 33 -12 35 0 231 -118 277 -166 46 -49 108 -40 85 11 -7 14 -12 37 -12 50 0 14 -9 39 -20 57 -19 31 -20 51 -20 396 0 349 1 364 20 384 16 17 20 36 20 83 0 48 4 66 19 79 14 13 17 26 14 60 -4 32 0 56 15 88 11 23 23 59 26 79 4 22 19 48 40 68 37 36 46 37 179 15 68 -11 111 28 82 72 -21 33 -34 144 -35 297 0 79 -5 137 -12 150 -7 14 -14 105 -18 244 -5 158 -11 227 -20 238 -7 9 -12 42 -12 80 0 64 -1 65 -42 98 -22 18 -63 44 -91 57 -27 13 -81 45 -120 70 -38 25 -153 88 -255 139 -102 52 -203 106 -225 120 -22 15 -53 33 -69 41 -38 20 -43 37 -17 63 16 16 32 21 64 19 23 -1 148 -6 277 -10 129 -5 260 -15 290 -22 72 -16 136 -7 160 22 16 20 18 37 13 148 -2 69 -11 145 -19 169 -8 25 -14 68 -14 97 0 31 -5 56 -12 61 -7 4 -269 8 -583 9 -313 0 -616 4 -672 9 l-102 8 -29 -31z" fill="#2a5fcf" id="2a5fcf-000003"/>
  </g>
</svg>
